0, 0, Header, 0, 1, 384
1, 0, Start_track
1, 0, Title_t, "Sonata Op. 31/3--HaoTianTimZhang"
1, 0, Text_t, "2008 e-Piano Junior Competition recital round"
1, 0, Text_t, "recorded July 2008"
1, 0, Text_t, "http://www.piano-e-competition.com/"
1, 0, Text_t, "File processed for distribution by software from Zenph Studios, Inc., http://www.zenph.com"
1, 0, Instrument_name_t, "Yamaha Disklavier Pro Mark IV concert grand piano, model DCFIIISM4PRO"
1, 0, Sequencer_specific, 39, 67, 113, 0, 1, 0, 1, 0, 83, 111, 110, 97, 116, 97, 32, 79, 112, 46, 32, 51, 49, 47, 51, 32, 72, 97, 111, 84, 105, 97, 110, 84, 105, 109, 32, 90, 104, 97, 110, 103
1, 0, Sequencer_specific, 6, 67, 113, 0, 0, 0, 69
1, 0, System_exclusive, 21, 67, 113, 126, 21, 0, 2, 2, 0, 3, 14, 1, 4, 1, 13, 13, 10, 11, 9, 2, 7, 247
1, 0, Sequencer_specific, 5, 67, 123, 12, 2, 1
1, 0, Tempo, 512820
1, 0, Time_signature, 4, 2, 24, 8
1, 0, System_exclusive, 5, 126, 127, 9, 1, 247
1, 1, System_exclusive, 8, 67, 16, 76, 0, 0, 126, 0, 247
1, 2, System_exclusive, 8, 67, 16, 76, 8, 9, 7, 1, 247
1, 3, Control_c, 0, 0, 0
1, 3, Control_c, 1, 0, 0
1, 3, Control_c, 2, 0, 0
1, 3, Control_c, 3, 0, 0
1, 3, Control_c, 4, 0, 0
1, 3, Control_c, 5, 0, 0
1, 3, Control_c, 6, 0, 0
1, 3, Control_c, 7, 0, 0
1, 3, Control_c, 8, 0, 0
1, 3, Control_c, 9, 0, 127
1, 3, Control_c, 10, 0, 0
1, 3, Control_c, 11, 0, 0
1, 3, Control_c, 12, 0, 0
1, 3, Control_c, 13, 0, 0
1, 3, Control_c, 14, 0, 0
1, 3, Control_c, 15, 0, 0
1, 4, Control_c, 0, 32, 0
1, 4, Control_c, 1, 32, 0
1, 4, Control_c, 2, 32, 0
1, 4, Control_c, 3, 32, 0
1, 4, Control_c, 4, 32, 0
1, 4, Control_c, 5, 32, 0
1, 4, Control_c, 6, 32, 0
1, 4, Control_c, 7, 32, 0
1, 4, Control_c, 8, 32, 0
1, 4, Control_c, 9, 32, 0
1, 4, Control_c, 10, 32, 0
1, 4, Control_c, 11, 32, 0
1, 4, Control_c, 12, 32, 0
1, 4, Control_c, 13, 32, 0
1, 4, Control_c, 14, 32, 0
1, 4, Control_c, 15, 32, 0
1, 5, Program_c, 0, 0
1, 5, Program_c, 1, 0
1, 5, Program_c, 2, 0
1, 5, Program_c, 3, 0
1, 5, Program_c, 4, 0
1, 5, Program_c, 5, 0
1, 5, Program_c, 6, 0
1, 5, Program_c, 7, 0
1, 5, Program_c, 8, 0
1, 5, Program_c, 9, 0
1, 5, Program_c, 10, 0
1, 5, Program_c, 11, 0
1, 5, Program_c, 12, 0
1, 5, Program_c, 13, 0
1, 5, Program_c, 14, 0
1, 5, Program_c, 15, 0
1, 6, Control_c, 0, 7, 100
1, 6, Control_c, 1, 7, 100
1, 6, Control_c, 2, 7, 100
1, 6, Control_c, 3, 7, 100
1, 6, Control_c, 4, 7, 100
1, 6, Control_c, 5, 7, 100
1, 6, Control_c, 6, 7, 100
1, 6, Control_c, 7, 7, 100
1, 6, Control_c, 8, 7, 100
1, 6, Control_c, 9, 7, 100
1, 6, Control_c, 10, 7, 100
1, 6, Control_c, 11, 7, 100
1, 6, Control_c, 12, 7, 100
1, 6, Control_c, 13, 7, 100
1, 6, Control_c, 14, 7, 100
1, 6, Control_c, 15, 7, 100
1, 117, Control_c, 0, 64, 10
1, 229, Control_c, 0, 64, 21
1, 341, Control_c, 0, 64, 31
1, 452, Control_c, 0, 64, 42
1, 564, Control_c, 0, 64, 52
1, 676, Control_c, 0, 64, 63
1, 787, Control_c, 0, 64, 73
1, 899, Control_c, 0, 64, 84
1, 1128, Note_on_c, 0, 72, 75
1, 1134, Note_on_c, 0, 56, 46
1, 1135, Control_c, 0, 64, 109
1, 1139, Note_on_c, 0, 44, 39
1, 1140, Note_on_c, 0, 63, 58
1, 1144, Note_on_c, 0, 51, 47
1, 1144, Note_on_c, 0, 53, 47
1, 1149, Note_on_c, 0, 60, 50
1, 1149, Control_c, 0, 64, 127
1, 1344, Note_off_c, 0, 72, 60
1, 1496, Note_on_c, 0, 65, 65
1, 1525, Note_off_c, 0, 65, 68
1, 1528, Note_off_c, 0, 63, 50
1, 1590, Note_on_c, 0, 65, 72
1, 1772, Note_off_c, 0, 60, 38
1, 1775, Note_off_c, 0, 65, 62
1, 1821, Note_off_c, 0, 56, 58
1, 1847, Note_off_c, 0, 44, 41
1, 1847, Note_off_c, 0, 51, 59
1, 1848, Note_off_c, 0, 53, 61
1, 1943, Control_c, 0, 67, 12
1, 1957, Control_c, 0, 67, 23
1, 1972, Control_c, 0, 67, 37
1, 1987, Control_c, 0, 64, 115
1, 1987, Control_c, 0, 67, 50
1, 2002, Control_c, 0, 64, 99
1, 2002, Control_c, 0, 67, 62
1, 2017, Control_c, 0, 64, 86
1, 2017, Control_c, 0, 67, 76
1, 2031, Control_c, 0, 64, 71
1, 2031, Control_c, 0, 67, 96
1, 2046, Control_c, 0, 64, 42
1, 2046, Control_c, 0, 67, 114
1, 2061, Control_c, 0, 64, 0
1, 2061, Control_c, 0, 67, 127
1, 2544, Note_on_c, 0, 44, 34
1, 2548, Note_on_c, 0, 53, 28
1, 2554, Note_on_c, 0, 56, 34
1, 2555, Note_on_c, 0, 51, 30
1, 2557, Note_on_c, 0, 72, 64
1, 2561, Note_on_c, 0, 63, 43
1, 2563, Note_on_c, 0, 60, 37
1, 2573, Control_c, 0, 64, 10
1, 2588, Control_c, 0, 64, 64
1, 2602, Control_c, 0, 64, 75
1, 2617, Control_c, 0, 64, 89
1, 2632, Control_c, 0, 64, 104
1, 2646, Control_c, 0, 64, 116
1, 2661, Control_c, 0, 64, 121
1, 2676, Control_c, 0, 64, 123
1, 2691, Control_c, 0, 64, 125
1, 2706, Control_c, 0, 64, 127
1, 2715, Note_off_c, 0, 72, 59
1, 2863, Note_off_c, 0, 63, 0
1, 2863, Note_on_c, 0, 63, 11
1, 2869, Note_on_c, 0, 65, 62
1, 2896, Note_off_c, 0, 65, 65
1, 2898, Note_off_c, 0, 63, 59
1, 2989, Note_on_c, 0, 65, 53
1, 3150, Note_off_c, 0, 56, 41
1, 3159, Note_off_c, 0, 60, 37
1, 3180, Note_off_c, 0, 65, 35
1, 3236, Note_off_c, 0, 53, 41
1, 3266, Note_off_c, 0, 51, 40
1, 3320, Note_off_c, 0, 44, 41
1, 3382, Control_c, 0, 64, 122
1, 3397, Control_c, 0, 64, 116
1, 3412, Control_c, 0, 64, 109
1, 3426, Control_c, 0, 64, 102
1, 3441, Control_c, 0, 64, 93
1, 3456, Control_c, 0, 64, 84
1, 3470, Control_c, 0, 64, 72
1, 3485, Control_c, 0, 64, 58
1, 3500, Control_c, 0, 64, 0
1, 3848, Control_c, 0, 64, 26
1, 3863, Control_c, 0, 64, 36
1, 3877, Control_c, 0, 64, 43
1, 3892, Control_c, 0, 64, 48
1, 3907, Control_c, 0, 64, 53
1, 3922, Control_c, 0, 64, 56
1, 3937, Control_c, 0, 64, 59
1, 3952, Control_c, 0, 64, 62
1, 3967, Control_c, 0, 64, 64
1, 3982, Control_c, 0, 64, 66
1, 3996, Control_c, 0, 64, 68
1, 4011, Control_c, 0, 64, 71
1, 4027, Control_c, 0, 64, 75
1, 4037, Note_on_c, 0, 39, 28
1, 4041, Note_on_c, 0, 65, 38
1, 4042, Control_c, 0, 64, 80
1, 4044, Note_on_c, 0, 60, 27
1, 4052, Note_on_c, 0, 32, 36
1, 4053, Note_on_c, 0, 63, 35
1, 4056, Control_c, 0, 64, 85
1, 4071, Control_c, 0, 64, 89
1, 4086, Control_c, 0, 64, 92
1, 4101, Control_c, 0, 64, 95
1, 4116, Control_c, 0, 64, 99
1, 4131, Control_c, 0, 64, 105
1, 4145, Control_c, 0, 64, 111
1, 4160, Control_c, 0, 64, 115
1, 4175, Control_c, 0, 64, 119
1, 4178, Note_off_c, 0, 39, 48
1, 4180, Note_off_c, 0, 60, 45
1, 4190, Control_c, 0, 64, 122
1, 4191, Note_off_c, 0, 32, 36
1, 4201, Note_off_c, 0, 63, 51
1, 4205, Control_c, 0, 64, 123
1, 4210, Note_off_c, 0, 65, 49
1, 4220, Control_c, 0, 64, 124
1, 4234, Control_c, 0, 64, 127
1, 4249, Control_c, 0, 64, 127
1, 4426, Control_c, 0, 64, 127
1, 4441, Control_c, 0, 64, 114
1, 4464, Control_c, 0, 64, 104
1, 4479, Control_c, 0, 64, 95
1, 4482, Note_on_c, 0, 39, 41
1, 4483, Note_on_c, 0, 65, 58
1, 4486, Note_on_c, 0, 63, 52
1, 4490, Note_on_c, 0, 60, 42
1, 4493, Note_on_c, 0, 32, 44
1, 4494, Control_c, 0, 64, 87
1, 4508, Control_c, 0, 64, 80
1, 4523, Control_c, 0, 64, 73
1, 4538, Control_c, 0, 64, 68
1, 4553, Control_c, 0, 64, 67
1, 4568, Control_c, 0, 64, 70
1, 4582, Note_off_c, 0, 32, 52
1, 4582, Control_c, 0, 64, 77
1, 4596, Note_off_c, 0, 39, 54
1, 4597, Control_c, 0, 64, 86
1, 4612, Control_c, 0, 64, 94
1, 4617, Note_off_c, 0, 63, 59
1, 4626, Control_c, 0, 64, 102
1, 4630, Note_off_c, 0, 65, 58
1, 4641, Note_off_c, 0, 60, 34
1, 4641, Control_c, 0, 64, 109
1, 4656, Control_c, 0, 64, 117
1, 4671, Control_c, 0, 64, 127
1, 4849, Control_c, 0, 64, 113
1, 4864, Control_c, 0, 64, 101
1, 4870, Note_on_c, 0, 39, 48
1, 4871, Note_on_c, 0, 65, 64
1, 4877, Note_on_c, 0, 60, 52
1, 4879, Control_c, 0, 64, 90
1, 4879, Note_on_c, 0, 63, 63
1, 4885, Note_on_c, 0, 32, 45
1, 4894, Control_c, 0, 64, 82
1, 4909, Control_c, 0, 64, 74
1, 4923, Control_c, 0, 64, 69
1, 4938, Control_c, 0, 64, 69
1, 4953, Control_c, 0, 64, 73
1, 4956, Note_off_c, 0, 32, 57
1, 4968, Control_c, 0, 64, 80
1, 4978, Note_off_c, 0, 60, 54
1, 4983, Control_c, 0, 64, 89
1, 4986, Note_off_c, 0, 63, 61
1, 4989, Note_off_c, 0, 39, 57
1, 4997, Control_c, 0, 64, 99
1, 5000, Note_off_c, 0, 65, 63
1, 5012, Control_c, 0, 64, 106
1, 5027, Control_c, 0, 64, 112
1, 5042, Control_c, 0, 64, 119
1, 5056, Control_c, 0, 64, 127
1, 5286, Control_c, 0, 64, 121
1, 5301, Control_c, 0, 64, 112
1, 5308, Note_on_c, 0, 39, 37
1, 5310, Note_on_c, 0, 66, 57
1, 5315, Note_on_c, 0, 63, 50
1, 5316, Control_c, 0, 64, 102
1, 5330, Control_c, 0, 64, 92
1, 5339, Note_on_c, 0, 33, 38
1, 5342, Note_on_c, 0, 60, 28
1, 5345, Control_c, 0, 64, 80
1, 5360, Control_c, 0, 64, 68
1, 5375, Control_c, 0, 64, 21
1, 5390, Control_c, 0, 64, 0
1, 5567, Control_c, 0, 64, 51
1, 5582, Control_c, 0, 64, 62
1, 5597, Control_c, 0, 64, 67
1, 5612, Control_c, 0, 64, 72
1, 5627, Control_c, 0, 64, 80
1, 5642, Control_c, 0, 64, 86
1, 5657, Control_c, 0, 64, 91
1, 5672, Control_c, 0, 64, 95
1, 5687, Control_c, 0, 64, 100
1, 5702, Control_c, 0, 64, 107
1, 5716, Control_c, 0, 64, 118
1, 5731, Control_c, 0, 64, 127
1, 5961, Control_c, 0, 67, 126
1, 5976, Control_c, 0, 67, 116
1, 5978, Note_off_c, 0, 60, 30
1, 5984, Note_off_c, 0, 33, 42
1, 5991, Control_c, 0, 67, 108
1, 6001, Note_off_c, 0, 66, 38
1, 6005, Control_c, 0, 67, 101
1, 6007, Note_off_c, 0, 39, 38
1, 6015, Note_off_c, 0, 63, 34
1, 6020, Control_c, 0, 67, 96
1, 6035, Control_c, 0, 67, 93
1, 6050, Control_c, 0, 67, 91
1, 6065, Control_c, 0, 67, 86
1, 6079, Control_c, 0, 67, 75
1, 6094, Control_c, 0, 67, 64
1, 6109, Control_c, 0, 67, 52
1, 6124, Control_c, 0, 67, 43
1, 6139, Control_c, 0, 67, 37
1, 6153, Control_c, 0, 67, 34
1, 6168, Control_c, 0, 67, 30
1, 6183, Control_c, 0, 67, 23
1, 6197, Control_c, 0, 67, 14
1, 6212, Control_c, 0, 67, 0
1, 6599, Control_c, 0, 64, 119
1, 6614, Control_c, 0, 64, 104
1, 6621, Note_on_c, 0, 66, 62
1, 6623, Note_on_c, 0, 63, 56
1, 6627, Note_on_c, 0, 54, 48
1, 6629, Control_c, 0, 64, 89
1, 6633, Note_on_c, 0, 51, 41
1, 6635, Note_on_c, 0, 60, 49
1, 6643, Control_c, 0, 64, 78
1, 6648, Note_on_c, 0, 45, 37
1, 6658, Control_c, 0, 64, 67
1, 6673, Control_c, 0, 64, 52
1, 6695, Control_c, 0, 64, 28
1, 6710, Control_c, 0, 64, 52
1, 6725, Control_c, 0, 64, 65
1, 6740, Control_c, 0, 64, 73
1, 6755, Control_c, 0, 64, 81
1, 6770, Control_c, 0, 64, 88
1, 6784, Control_c, 0, 64, 95
1, 6799, Control_c, 0, 64, 101
1, 6814, Control_c, 0, 64, 109
1, 6819, Note_off_c, 0, 60, 48
1, 6828, Control_c, 0, 64, 118
1, 6843, Control_c, 0, 64, 127
1, 6849, Note_off_c, 0, 54, 61
1, 6852, Note_off_c, 0, 63, 62
1, 6853, Note_off_c, 0, 51, 61
1, 6859, Note_off_c, 0, 45, 40
1, 6861, Note_off_c, 0, 66, 63
1, 7094, Note_on_c, 0, 45, 48
1, 7097, Note_on_c, 0, 66, 78
1, 7098, Note_on_c, 0, 63, 78
1, 7103, Note_on_c, 0, 54, 63
1, 7103, Note_on_c, 0, 60, 69
1, 7104, Note_on_c, 0, 51, 55
1, 7125, Control_c, 0, 64, 121
1, 7140, Control_c, 0, 64, 104
1, 7155, Control_c, 0, 64, 94
1, 7169, Control_c, 0, 64, 87
1, 7184, Control_c, 0, 64, 83
1, 7199, Control_c, 0, 64, 83
1, 7214, Control_c, 0, 64, 85
1, 7230, Control_c, 0, 64, 91
1, 7244, Control_c, 0, 64, 102
1, 7259, Control_c, 0, 64, 118
1, 7274, Control_c, 0, 64, 127
1, 7313, Note_off_c, 0, 60, 58
1, 7343, Note_off_c, 0, 54, 59
1, 7344, Note_off_c, 0, 63, 62
1, 7347, Note_off_c, 0, 51, 59
1, 7356, Note_off_c, 0, 45, 41
1, 7356, Note_off_c, 0, 66, 59
1, 7606, Note_on_c, 0, 63, 87
1, 7606, Note_on_c, 0, 66, 86
1, 7609, Note_on_c, 0, 54, 70
1, 7609, Note_on_c, 0, 60, 85
1, 7614, Note_on_c, 0, 51, 63
1, 7615, Note_on_c, 0, 45, 60
1, 7799, Note_off_c, 0, 60, 58
1, 7800, Note_off_c, 0, 45, 60
1, 7838, Note_off_c, 0, 54, 57
1, 7839, Note_off_c, 0, 66, 66
1, 7840, Note_off_c, 0, 63, 62
1, 7857, Note_off_c, 0, 51, 55
1, 8364, Note_on_c, 0, 67, 83
1, 8366, Note_on_c, 0, 63, 85
1, 8368, Note_on_c, 0, 58, 76
1, 8375, Note_on_c, 0, 51, 63
1, 8375, Note_on_c, 0, 55, 61
1, 8378, Note_on_c, 0, 46, 63
1, 8430, Control_c, 0, 64, 101
1, 8445, Control_c, 0, 64, 82
1, 8460, Control_c, 0, 64, 66
1, 8474, Control_c, 0, 64, 0
1, 8592, Control_c, 0, 64, 50
1, 8607, Control_c, 0, 64, 64
1, 8622, Control_c, 0, 64, 70
1, 8637, Control_c, 0, 64, 78
1, 8652, Control_c, 0, 64, 86
1, 8666, Control_c, 0, 64, 94
1, 8681, Control_c, 0, 64, 102
1, 8696, Control_c, 0, 64, 113
1, 8711, Control_c, 0, 64, 127
1, 9898, Control_c, 0, 67, 9
1, 9913, Control_c, 0, 67, 12
1, 9927, Control_c, 0, 67, 16
1, 9942, Control_c, 0, 67, 22
1, 9957, Control_c, 0, 67, 29
1, 9972, Control_c, 0, 67, 37
1, 9988, Control_c, 0, 67, 44
1, 10002, Control_c, 0, 67, 51
1, 10017, Control_c, 0, 67, 61
1, 10032, Control_c, 0, 67, 71
1, 10039, Note_off_c, 0, 55, 35
1, 10046, Control_c, 0, 67, 81
1, 10061, Control_c, 0, 67, 89
1, 10076, Control_c, 0, 67, 93
1, 10150, Control_c, 0, 67, 92
1, 10160, Note_off_c, 0, 67, 54
1, 10164, Control_c, 0, 67, 89
1, 10179, Note_off_c, 0, 63, 57
1, 10179, Control_c, 0, 67, 86
1, 10194, Control_c, 0, 67, 85
1, 10203, Note_off_c, 0, 51, 36
1, 10209, Control_c, 0, 64, 107
1, 10209, Control_c, 0, 67, 84
1, 10216, Note_off_c, 0, 58, 37
1, 10224, Note_off_c, 0, 46, 46
1, 10224, Control_c, 0, 64, 93
1, 10224, Control_c, 0, 67, 82
1, 10238, Control_c, 0, 64, 79
1, 10238, Control_c, 0, 67, 81
1, 10253, Control_c, 0, 64, 63
1, 10253, Control_c, 0, 67, 79
1, 10268, Control_c, 0, 64, 0
1, 10268, Control_c, 0, 67, 79
1, 10328, Control_c, 0, 67, 80
1, 10343, Control_c, 0, 67, 81
1, 10357, Control_c, 0, 67, 82
1, 10372, Control_c, 0, 67, 82
1, 10387, Control_c, 0, 67, 83
1, 10417, Control_c, 0, 67, 83
1, 10638, Note_on_c, 0, 34, 45
1, 10640, Note_on_c, 0, 46, 55
1, 10646, Note_on_c, 0, 67, 53
1, 10647, Control_c, 0, 67, 83
1, 10650, Note_on_c, 0, 62, 50
1, 10656, Note_on_c, 0, 56, 40
1, 10663, Note_off_c, 0, 46, 58
1, 10667, Note_off_c, 0, 34, 46
1, 10688, Note_off_c, 0, 62, 54
1, 10709, Note_off_c, 0, 56, 42
1, 10725, Note_off_c, 0, 67, 57
1, 10757, Note_on_c, 0, 65, 62
1, 10799, Note_off_c, 0, 65, 61
1, 10899, Control_c, 0, 67, 82
1, 10912, Note_on_c, 0, 65, 67
1, 10914, Control_c, 0, 67, 82
1, 10916, Note_on_c, 0, 46, 60
1, 10918, Note_on_c, 0, 56, 60
1, 10936, Note_on_c, 0, 34, 16
1, 10942, Note_off_c, 0, 46, 62
1, 10948, Note_off_c, 0, 56, 63
1, 10978, Note_off_c, 0, 65, 63
1, 10980, Note_off_c, 0, 34, 29
1, 10990, Note_on_c, 0, 67, 65
1, 11040, Note_on_c, 0, 65, 60
1, 11045, Note_off_c, 0, 67, 58
1, 11109, Note_off_c, 0, 65, 64
1, 11120, Note_on_c, 0, 64, 51
1, 11171, Note_on_c, 0, 65, 51
1, 11177, Note_on_c, 0, 56, 50
1, 11205, Note_on_c, 0, 34, 57
1, 11205, Note_off_c, 0, 64, 51
1, 11214, Note_on_c, 0, 46, 49
1, 11230, Note_off_c, 0, 56, 58
1, 11232, Note_off_c, 0, 34, 59
1, 11240, Note_off_c, 0, 46, 58
1, 11334, Note_on_c, 0, 67, 67
1, 11334, Note_off_c, 0, 65, 62
1, 11337, Control_c, 0, 67, 82
1, 11377, Note_off_c, 0, 67, 61
1, 11481, Note_on_c, 0, 63, 59
1, 11504, Note_on_c, 0, 39, 38
1, 11504, Note_on_c, 0, 51, 49
1, 11516, Note_on_c, 0, 55, 34
1, 11523, Note_off_c, 0, 63, 60
1, 11553, Note_off_c, 0, 55, 49
1, 11559, Note_on_c, 0, 65, 64
1, 11631, Note_on_c, 0, 63, 70
1, 11636, Note_off_c, 0, 65, 61
1, 11690, Note_off_c, 0, 63, 64
1, 11698, Note_off_c, 0, 39, 53
1, 11699, Note_off_c, 0, 51, 53
1, 11704, Note_on_c, 0, 62, 64
1, 11766, Note_off_c, 0, 62, 56
1, 11777, Note_on_c, 0, 63, 66
1, 11806, Note_off_c, 0, 63, 67
1, 11882, Note_on_c, 0, 65, 62
1, 11912, Note_off_c, 0, 65, 68
1, 11992, Note_on_c, 0, 67, 60
1, 12015, Note_off_c, 0, 67, 63
1, 12041, Control_c, 0, 67, 83
1, 12083, Note_on_c, 0, 68, 56
1, 12105, Note_off_c, 0, 68, 60
1, 12164, Note_on_c, 0, 70, 65
1, 12203, Note_off_c, 0, 70, 66
1, 12262, Note_on_c, 0, 72, 74
1, 12298, Note_off_c, 0, 72, 58
1, 12355, Note_on_c, 0, 74, 69
1, 12367, Control_c, 0, 67, 82
1, 12382, Note_off_c, 0, 74, 65
1, 12397, Control_c, 0, 67, 82
1, 12438, Note_on_c, 0, 75, 80
1, 12473, Note_off_c, 0, 75, 65
1, 12530, Note_on_c, 0, 77, 81
1, 12545, Control_c, 0, 67, 81
1, 12559, Control_c, 0, 67, 81
1, 12564, Note_off_c, 0, 77, 60
1, 12574, Control_c, 0, 67, 80
1, 12589, Control_c, 0, 67, 80
1, 12617, Note_on_c, 0, 78, 87
1, 12619, Control_c, 0, 67, 78
1, 12633, Control_c, 0, 67, 76
1, 12648, Control_c, 0, 67, 69
1, 12661, Note_off_c, 0, 78, 62
1, 12663, Control_c, 0, 67, 58
1, 12678, Control_c, 0, 67, 41
1, 12701, Control_c, 0, 67, 22
1, 12713, Note_on_c, 0, 79, 88
1, 12715, Control_c, 0, 67, 0
1, 12750, Note_off_c, 0, 79, 65
1, 12797, Note_on_c, 0, 80, 90
1, 12851, Note_off_c, 0, 80, 63
1, 12894, Note_on_c, 0, 81, 88
1, 12932, Note_off_c, 0, 81, 63
1, 12983, Note_on_c, 0, 82, 84
1, 13044, Note_off_c, 0, 82, 57
1, 13074, Note_on_c, 0, 83, 76
1, 13151, Note_off_c, 0, 83, 61
1, 13240, Note_on_c, 0, 84, 81
1, 13276, Note_on_c, 0, 75, 38
1, 13278, Note_on_c, 0, 72, 39
1, 13285, Note_on_c, 0, 68, 37
1, 13513, Note_on_c, 0, 77, 73
1, 13535, Note_off_c, 0, 77, 67
1, 13600, Note_on_c, 0, 77, 62
1, 13660, Note_off_c, 0, 84, 59
1, 13860, Note_off_c, 0, 77, 63
1, 13874, Note_off_c, 0, 75, 65
1, 13882, Note_off_c, 0, 72, 65
1, 13894, Note_off_c, 0, 68, 59
1, 13953, Control_c, 0, 67, 11
1, 13968, Control_c, 0, 67, 14
1, 13997, Control_c, 0, 67, 15
1, 14012, Control_c, 0, 67, 16
1, 14027, Control_c, 0, 67, 20
1, 14042, Control_c, 0, 67, 30
1, 14057, Control_c, 0, 67, 42
1, 14072, Control_c, 0, 67, 53
1, 14086, Control_c, 0, 67, 61
1, 14101, Control_c, 0, 67, 68
1, 14116, Control_c, 0, 67, 74
1, 14131, Control_c, 0, 67, 77
1, 14197, Control_c, 0, 67, 77
1, 14237, Note_on_c, 0, 71, 49
1, 14295, Note_off_c, 0, 71, 59
1, 14313, Note_on_c, 0, 60, 39
1, 14314, Note_on_c, 0, 72, 68
1, 14318, Note_on_c, 0, 63, 42
1, 14330, Note_on_c, 0, 56, 35
1, 14390, Control_c, 0, 67, 77
1, 14421, Control_c, 0, 67, 76
1, 14495, Control_c, 0, 67, 76
1, 14509, Control_c, 0, 67, 75
1, 14545, Note_off_c, 0, 72, 52
1, 14546, Note_on_c, 0, 65, 63
1, 14575, Note_off_c, 0, 65, 68
1, 14638, Note_on_c, 0, 65, 60
1, 14731, Control_c, 0, 67, 75
1, 14775, Control_c, 0, 67, 74
1, 14835, Control_c, 0, 67, 74
1, 14850, Control_c, 0, 67, 73
1, 14875, Note_off_c, 0, 65, 64
1, 14880, Control_c, 0, 67, 73
1, 14895, Note_off_c, 0, 63, 58
1, 14906, Note_off_c, 0, 60, 62
1, 14918, Note_off_c, 0, 56, 59
1, 14990, Control_c, 0, 67, 74
1, 15005, Control_c, 0, 67, 75
1, 15020, Control_c, 0, 67, 75
1, 15035, Control_c, 0, 67, 76
1, 15050, Control_c, 0, 67, 77
1, 15079, Control_c, 0, 67, 77
1, 15094, Control_c, 0, 67, 78
1, 15154, Control_c, 0, 67, 77
1, 15198, Control_c, 0, 67, 77
1, 15214, Control_c, 0, 67, 76
1, 15243, Control_c, 0, 67, 76
1, 15257, Control_c, 0, 67, 75
1, 15302, Control_c, 0, 64, 21
1, 15317, Control_c, 0, 64, 35
1, 15331, Control_c, 0, 64, 42
1, 15331, Control_c, 0, 67, 74
1, 15346, Control_c, 0, 64, 47
1, 15361, Control_c, 0, 64, 52
1, 15361, Control_c, 0, 67, 74
1, 15376, Control_c, 0, 64, 58
1, 15390, Control_c, 0, 64, 62
1, 15405, Control_c, 0, 64, 64
1, 15405, Control_c, 0, 67, 73
1, 15408, Note_on_c, 0, 32, 27
1, 15416, Note_on_c, 0, 51, 40
1, 15418, Note_on_c, 0, 48, 36
1, 15418, Note_on_c, 0, 53, 47
1, 15420, Control_c, 0, 64, 67
1, 15421, Note_on_c, 0, 44, 31
1, 15435, Control_c, 0, 64, 71
1, 15435, Control_c, 0, 67, 73
1, 15450, Control_c, 0, 64, 78
1, 15450, Control_c, 0, 67, 72
1, 15464, Control_c, 0, 64, 87
1, 15479, Control_c, 0, 64, 95
1, 15494, Control_c, 0, 64, 102
1, 15507, Note_off_c, 0, 44, 53
1, 15509, Control_c, 0, 64, 107
1, 15524, Control_c, 0, 64, 110
1, 15538, Control_c, 0, 64, 111
1, 15540, Note_off_c, 0, 32, 36
1, 15553, Control_c, 0, 64, 112
1, 15566, Note_off_c, 0, 51, 54
1, 15567, Note_off_c, 0, 53, 63
1, 15568, Control_c, 0, 64, 114
1, 15583, Control_c, 0, 64, 118
1, 15586, Note_off_c, 0, 48, 40
1, 15598, Control_c, 0, 64, 123
1, 15613, Control_c, 0, 64, 127
1, 15768, Control_c, 0, 64, 116
1, 15783, Control_c, 0, 64, 106
1, 15783, Control_c, 0, 67, 72
1, 15798, Control_c, 0, 64, 96
1, 15813, Control_c, 0, 64, 86
1, 15822, Note_on_c, 0, 32, 41
1, 15823, Note_on_c, 0, 44, 44
1, 15825, Note_on_c, 0, 53, 59
1, 15828, Control_c, 0, 64, 80
1, 15832, Note_on_c, 0, 51, 52
1, 15834, Note_on_c, 0, 48, 44
1, 15843, Control_c, 0, 64, 76
1, 15857, Control_c, 0, 64, 75
1, 15872, Control_c, 0, 64, 76
1, 15887, Control_c, 0, 64, 78
1, 15902, Control_c, 0, 64, 86
1, 15902, Control_c, 0, 67, 71
1, 15915, Note_off_c, 0, 32, 48
1, 15917, Control_c, 0, 64, 94
1, 15917, Control_c, 0, 67, 71
1, 15918, Note_off_c, 0, 44, 54
1, 15931, Control_c, 0, 64, 102
1, 15946, Control_c, 0, 64, 110
1, 15961, Control_c, 0, 64, 116
1, 15976, Control_c, 0, 64, 125
1, 15976, Control_c, 0, 67, 71
1, 15977, Note_off_c, 0, 51, 60
1, 15978, Note_off_c, 0, 53, 62
1, 15991, Control_c, 0, 64, 127
1, 16009, Note_off_c, 0, 48, 42
1, 16066, Control_c, 0, 67, 72
1, 16081, Control_c, 0, 67, 72
1, 16096, Control_c, 0, 67, 73
1, 16170, Control_c, 0, 64, 123
1, 16185, Control_c, 0, 64, 109
1, 16185, Control_c, 0, 67, 73
1, 16200, Control_c, 0, 64, 95
1, 16200, Control_c, 0, 67, 74
1, 16214, Control_c, 0, 64, 82
1, 16214, Control_c, 0, 67, 75
1, 16226, Note_on_c, 0, 32, 38
1, 16227, Note_on_c, 0, 44, 38
1, 16229, Control_c, 0, 64, 69
1, 16229, Control_c, 0, 67, 76
1, 16233, Note_on_c, 0, 53, 56
1, 16244, Control_c, 0, 64, 37
1, 16244, Control_c, 0, 67, 77
1, 16247, Note_on_c, 0, 48, 36
1, 16251, Note_on_c, 0, 51, 41
1, 16259, Control_c, 0, 64, 0
1, 16259, Control_c, 0, 67, 78
1, 16274, Control_c, 0, 67, 79
1, 16288, Control_c, 0, 67, 83
1, 16303, Control_c, 0, 64, 57
1, 16303, Control_c, 0, 67, 87
1, 16318, Control_c, 0, 64, 69
1, 16318, Control_c, 0, 67, 90
1, 16333, Control_c, 0, 64, 77
1, 16333, Control_c, 0, 67, 96
1, 16348, Control_c, 0, 64, 85
1, 16348, Control_c, 0, 67, 109
1, 16362, Control_c, 0, 64, 91
1, 16362, Control_c, 0, 67, 122
1, 16377, Control_c, 0, 64, 99
1, 16377, Control_c, 0, 67, 127
1, 16392, Control_c, 0, 64, 105
1, 16397, Note_off_c, 0, 32, 42
1, 16403, Note_off_c, 0, 44, 41
1, 16406, Control_c, 0, 64, 109
1, 16415, Note_off_c, 0, 53, 63
1, 16421, Control_c, 0, 64, 113
1, 16439, Note_off_c, 0, 51, 56
1, 16444, Control_c, 0, 64, 116
1, 16459, Control_c, 0, 64, 120
1, 16460, Note_off_c, 0, 48, 42
1, 16474, Control_c, 0, 64, 123
1, 16488, Control_c, 0, 64, 126
1, 16503, Control_c, 0, 64, 127
1, 16518, Control_c, 0, 64, 127
1, 16666, Control_c, 0, 64, 127
1, 16680, Control_c, 0, 64, 125
1, 16695, Control_c, 0, 64, 121
1, 16710, Control_c, 0, 64, 114
1, 16713, Note_on_c, 0, 33, 41
1, 16713, Note_on_c, 0, 54, 47
1, 16719, Note_on_c, 0, 45, 38
1, 16721, Note_on_c, 0, 51, 38
1, 16725, Control_c, 0, 64, 105
1, 16740, Control_c, 0, 64, 94
1, 16752, Note_on_c, 0, 48, 28
1, 16755, Control_c, 0, 64, 81
1, 16770, Control_c, 0, 64, 66
1, 16785, Control_c, 0, 64, 0
1, 16948, Control_c, 0, 64, 24
1, 16963, Control_c, 0, 64, 51
1, 16978, Control_c, 0, 64, 60
1, 16993, Control_c, 0, 64, 65
1, 17008, Control_c, 0, 64, 70
1, 17023, Control_c, 0, 64, 76
1, 17037, Control_c, 0, 64, 82
1, 17052, Control_c, 0, 64, 88
1, 17067, Control_c, 0, 64, 94
1, 17082, Control_c, 0, 64, 100
1, 17097, Control_c, 0, 64, 108
1, 17111, Control_c, 0, 64, 116
1, 17126, Control_c, 0, 64, 122
1, 17141, Control_c, 0, 64, 127
1, 17278, Note_off_c, 0, 33, 43
1, 17306, Note_off_c, 0, 48, 42
1, 17352, Note_off_c, 0, 45, 42
1, 17374, Note_off_c, 0, 51, 41
1, 17398, Note_off_c, 0, 54, 52
1, 17971, Control_c, 0, 64, 126
1, 17986, Control_c, 0, 64, 125
1, 18001, Control_c, 0, 64, 123
1, 18016, Control_c, 0, 64, 122
1, 18031, Control_c, 0, 64, 121
1, 18045, Control_c, 0, 64, 120
1, 18060, Control_c, 0, 64, 120
1, 18075, Control_c, 0, 64, 119
1, 18090, Control_c, 0, 64, 118
1, 18105, Control_c, 0, 64, 117
1, 18120, Control_c, 0, 64, 113
1, 18134, Control_c, 0, 64, 105
1, 18149, Control_c, 0, 64, 93
1, 18164, Control_c, 0, 64, 81
1, 18178, Control_c, 0, 64, 68
1, 18181, Note_on_c, 0, 78, 58
1, 18193, Control_c, 0, 64, 38
1, 18195, Note_on_c, 0, 75, 51
1, 18199, Note_on_c, 0, 72, 31
1, 18205, Note_on_c, 0, 69, 31
1, 18208, Control_c, 0, 64, 0
1, 18282, Control_c, 0, 64, 56
1, 18282, Control_c, 0, 67, 121
1, 18297, Control_c, 0, 64, 68
1, 18297, Control_c, 0, 67, 111
1, 18312, Control_c, 0, 64, 75
1, 18312, Control_c, 0, 67, 98
1, 18326, Control_c, 0, 64, 85
1, 18326, Control_c, 0, 67, 84
1, 18338, Note_off_c, 0, 69, 53
1, 18341, Control_c, 0, 64, 93
1, 18341, Control_c, 0, 67, 66
1, 18356, Control_c, 0, 64, 100
1, 18356, Control_c, 0, 67, 46
1, 18359, Note_off_c, 0, 72, 47
1, 18364, Note_off_c, 0, 75, 60
1, 18371, Control_c, 0, 64, 106
1, 18371, Control_c, 0, 67, 28
1, 18376, Note_off_c, 0, 78, 60
1, 18385, Control_c, 0, 64, 112
1, 18385, Control_c, 0, 67, 13
1, 18401, Control_c, 0, 64, 116
1, 18401, Control_c, 0, 67, 0
1, 18416, Control_c, 0, 64, 118
1, 18431, Control_c, 0, 64, 119
1, 18594, Control_c, 0, 64, 118
1, 18609, Control_c, 0, 64, 117
1, 18624, Control_c, 0, 64, 112
1, 18639, Control_c, 0, 64, 105
1, 18654, Control_c, 0, 64, 96
1, 18675, Control_c, 0, 64, 87
1, 18685, Note_on_c, 0, 78, 85
1, 18688, Note_on_c, 0, 75, 71
1, 18690, Note_on_c, 0, 72, 48
1, 18690, Control_c, 0, 64, 77
1, 18696, Note_on_c, 0, 69, 43
1, 18705, Control_c, 0, 64, 70
1, 18720, Control_c, 0, 64, 66
1, 18735, Control_c, 0, 64, 67
1, 18749, Control_c, 0, 64, 71
1, 18764, Control_c, 0, 64, 76
1, 18779, Control_c, 0, 64, 84
1, 18794, Control_c, 0, 64, 91
1, 18809, Control_c, 0, 64, 98
1, 18823, Control_c, 0, 64, 105
1, 18838, Control_c, 0, 64, 110
1, 18853, Note_off_c, 0, 72, 62
1, 18853, Control_c, 0, 64, 113
1, 18868, Control_c, 0, 64, 115
1, 18870, Note_off_c, 0, 69, 62
1, 18871, Note_off_c, 0, 75, 63
1, 18883, Control_c, 0, 64, 116
1, 18893, Note_off_c, 0, 78, 63
1, 18913, Control_c, 0, 64, 116
1, 18927, Control_c, 0, 64, 117
1, 18957, Control_c, 0, 64, 117
1, 18971, Control_c, 0, 64, 118
1, 19193, Control_c, 0, 64, 117
1, 19209, Control_c, 0, 64, 115
1, 19223, Control_c, 0, 64, 108
1, 19231, Note_on_c, 0, 78, 93
1, 19238, Control_c, 0, 64, 98
1, 19239, Note_on_c, 0, 69, 57
1, 19239, Note_on_c, 0, 75, 80
1, 19246, Note_on_c, 0, 72, 62
1, 19253, Control_c, 0, 64, 84
1, 19268, Control_c, 0, 64, 73
1, 19283, Control_c, 0, 64, 64
1, 19298, Control_c, 0, 64, 52
1, 19312, Control_c, 0, 64, 52
1, 19327, Control_c, 0, 64, 62
1, 19342, Control_c, 0, 64, 69
1, 19357, Control_c, 0, 64, 77
1, 19372, Control_c, 0, 64, 86
1, 19387, Control_c, 0, 64, 95
1, 19402, Control_c, 0, 64, 102
1, 19404, Note_off_c, 0, 72, 56
1, 19423, Control_c, 0, 64, 109
1, 19435, Note_off_c, 0, 75, 62
1, 19438, Control_c, 0, 64, 115
1, 19451, Note_off_c, 0, 69, 55
1, 19453, Control_c, 0, 64, 124
1, 19468, Control_c, 0, 64, 127
1, 19480, Note_off_c, 0, 78, 59
1, 20079, Note_on_c, 0, 79, 82
1, 20080, Note_on_c, 0, 75, 82
1, 20081, Note_on_c, 0, 70, 62
1, 20107, Control_c, 0, 64, 111
1, 20121, Control_c, 0, 64, 94
1, 20136, Control_c, 0, 64, 79
1, 20151, Control_c, 0, 64, 65
1, 20166, Control_c, 0, 64, 0
1, 20366, Control_c, 0, 64, 43
1, 20380, Control_c, 0, 64, 62
1, 20395, Control_c, 0, 64, 67
1, 20410, Control_c, 0, 64, 73
1, 20425, Control_c, 0, 64, 78
1, 20440, Control_c, 0, 64, 83
1, 20454, Control_c, 0, 64, 89
1, 20469, Control_c, 0, 64, 98
1, 20484, Control_c, 0, 64, 107
1, 20499, Control_c, 0, 64, 115
1, 20514, Control_c, 0, 64, 119
1, 20529, Control_c, 0, 64, 121
1, 20543, Control_c, 0, 64, 127
1, 20558, Control_c, 0, 64, 127
1, 22032, Note_off_c, 0, 70, 22
1, 22178, Note_off_c, 0, 79, 56
1, 22192, Note_off_c, 0, 75, 55
1, 22234, Control_c, 0, 64, 119
1, 22249, Control_c, 0, 64, 106
1, 22263, Control_c, 0, 64, 95
1, 22278, Control_c, 0, 64, 84
1, 22278, Control_c, 0, 67, 10
1, 22293, Control_c, 0, 64, 71
1, 22293, Control_c, 0, 67, 14
1, 22308, Control_c, 0, 64, 24
1, 22308, Control_c, 0, 67, 20
1, 22323, Control_c, 0, 64, 0
1, 22323, Control_c, 0, 67, 27
1, 22338, Control_c, 0, 67, 37
1, 22352, Control_c, 0, 67, 54
1, 22367, Control_c, 0, 67, 74
1, 22382, Control_c, 0, 67, 95
1, 22398, Control_c, 0, 67, 113
1, 22420, Control_c, 0, 67, 125
1, 22435, Control_c, 0, 67, 127
1, 22731, Control_c, 0, 67, 126
1, 22746, Control_c, 0, 67, 126
1, 22761, Control_c, 0, 67, 125
1, 22776, Control_c, 0, 67, 124
1, 22791, Control_c, 0, 67, 123
1, 22806, Control_c, 0, 67, 121
1, 22812, Note_on_c, 0, 67, 52
1, 22815, Note_on_c, 0, 46, 55
1, 22821, Control_c, 0, 67, 118
1, 22827, Note_on_c, 0, 56, 40
1, 22828, Note_on_c, 0, 34, 44
1, 22830, Note_on_c, 0, 62, 43
1, 22836, Control_c, 0, 67, 117
1, 22846, Note_off_c, 0, 46, 63
1, 22856, Note_off_c, 0, 34, 53
1, 22878, Note_off_c, 0, 56, 57
1, 22886, Note_off_c, 0, 62, 55
1, 22913, Note_off_c, 0, 67, 45
1, 22943, Note_on_c, 0, 65, 57
1, 22984, Note_off_c, 0, 65, 62
1, 23104, Note_on_c, 0, 65, 54
1, 23105, Note_on_c, 0, 34, 40
1, 23107, Note_on_c, 0, 46, 49
1, 23112, Note_on_c, 0, 56, 50
1, 23131, Note_off_c, 0, 34, 50
1, 23131, Control_c, 0, 67, 117
1, 23134, Note_off_c, 0, 46, 54
1, 23135, Note_off_c, 0, 56, 62
1, 23173, Note_off_c, 0, 65, 64
1, 23186, Note_on_c, 0, 67, 60
1, 23241, Note_off_c, 0, 67, 59
1, 23242, Note_on_c, 0, 65, 56
1, 23244, Control_c, 0, 67, 117
1, 23304, Note_off_c, 0, 65, 61
1, 23316, Note_on_c, 0, 64, 53
1, 23347, Control_c, 0, 67, 117
1, 23366, Note_on_c, 0, 56, 58
1, 23378, Note_on_c, 0, 34, 51
1, 23378, Note_on_c, 0, 46, 58
1, 23388, Note_on_c, 0, 65, 55
1, 23403, Note_off_c, 0, 64, 60
1, 23405, Note_off_c, 0, 34, 59
1, 23408, Note_off_c, 0, 46, 63
1, 23410, Note_off_c, 0, 56, 59
1, 23465, Control_c, 0, 67, 116
1, 23495, Control_c, 0, 67, 117
1, 23509, Control_c, 0, 67, 117
1, 23531, Note_off_c, 0, 65, 61
1, 23549, Note_on_c, 0, 67, 58
1, 23599, Note_off_c, 0, 67, 53
1, 23702, Control_c, 0, 64, 58
1, 23711, Note_on_c, 0, 39, 49
1, 23712, Note_on_c, 0, 63, 54
1, 23712, Note_on_c, 0, 51, 51
1, 23716, Control_c, 0, 64, 72
1, 23718, Note_on_c, 0, 55, 49
1, 23731, Control_c, 0, 64, 84
1, 23746, Control_c, 0, 64, 93
1, 23747, Note_off_c, 0, 51, 64
1, 23751, Note_off_c, 0, 39, 62
1, 23757, Note_off_c, 0, 55, 59
1, 23768, Note_off_c, 0, 63, 57
1, 23776, Control_c, 0, 64, 91
1, 23790, Control_c, 0, 64, 85
1, 23805, Control_c, 0, 64, 76
1, 23820, Control_c, 0, 64, 65
1, 23835, Control_c, 0, 64, 0
1, 23859, Note_on_c, 0, 51, 50
1, 23901, Note_off_c, 0, 51, 61
1, 23931, Control_c, 0, 67, 117
1, 23961, Control_c, 0, 67, 116
1, 23976, Control_c, 0, 67, 116
1, 24017, Note_on_c, 0, 51, 45
1, 24050, Note_off_c, 0, 51, 54
1, 24152, Note_on_c, 0, 51, 53
1, 24195, Note_off_c, 0, 51, 62
1, 24273, Control_c, 0, 67, 115
1, 24301, Note_on_c, 0, 51, 65
1, 24337, Note_off_c, 0, 51, 61
1, 24436, Control_c, 0, 67, 114
1, 24446, Note_on_c, 0, 51, 50
1, 24451, Control_c, 0, 67, 109
1, 24466, Control_c, 0, 67, 98
1, 24481, Control_c, 0, 67, 84
1, 24494, Note_off_c, 0, 51, 58
1, 24495, Control_c, 0, 67, 72
1, 24510, Control_c, 0, 67, 60
1, 24525, Control_c, 0, 67, 49
1, 24532, Note_on_c, 0, 86, 58
1, 24539, Control_c, 0, 67, 37
1, 24554, Control_c, 0, 67, 22
1, 24569, Control_c, 0, 64, 46
1, 24569, Control_c, 0, 67, 0
1, 24584, Control_c, 0, 64, 67
1, 24599, Control_c, 0, 64, 78
1, 24601, Note_on_c, 0, 87, 82
1, 24605, Note_off_c, 0, 86, 63
1, 24613, Control_c, 0, 64, 93
1, 24621, Note_on_c, 0, 63, 48
1, 24623, Note_on_c, 0, 60, 46
1, 24628, Control_c, 0, 64, 101
1, 24643, Control_c, 0, 64, 102
1, 24695, Control_c, 0, 64, 101
1, 24710, Control_c, 0, 64, 100
1, 24725, Control_c, 0, 64, 98
1, 24740, Control_c, 0, 64, 95
1, 24754, Control_c, 0, 64, 91
1, 24769, Control_c, 0, 64, 88
1, 24777, Note_on_c, 0, 51, 49
1, 24784, Control_c, 0, 64, 85
1, 24800, Control_c, 0, 64, 81
1, 24815, Control_c, 0, 64, 78
1, 24820, Note_off_c, 0, 51, 61
1, 24830, Control_c, 0, 64, 76
1, 24841, Note_on_c, 0, 80, 65
1, 24844, Control_c, 0, 64, 73
1, 24859, Control_c, 0, 64, 69
1, 24865, Note_off_c, 0, 80, 66
1, 24874, Control_c, 0, 64, 65
1, 24889, Control_c, 0, 64, 60
1, 24904, Control_c, 0, 64, 53
1, 24916, Note_on_c, 0, 80, 86
1, 24918, Control_c, 0, 64, 51
1, 24932, Note_on_c, 0, 51, 50
1, 24948, Control_c, 0, 64, 50
1, 24963, Control_c, 0, 64, 50
1, 24976, Note_off_c, 0, 51, 60
1, 24977, Control_c, 0, 64, 48
1, 24992, Control_c, 0, 64, 44
1, 25007, Control_c, 0, 64, 37
1, 25022, Control_c, 0, 64, 25
1, 25026, Note_off_c, 0, 87, 56
1, 25036, Control_c, 0, 64, 0
1, 25086, Note_off_c, 0, 80, 63
1, 25088, Note_on_c, 0, 51, 43
1, 25120, Note_off_c, 0, 51, 59
1, 25170, Control_c, 0, 67, 8
1, 25185, Control_c, 0, 67, 11
1, 25200, Control_c, 0, 67, 16
1, 25215, Control_c, 0, 67, 22
1, 25229, Control_c, 0, 67, 32
1, 25239, Note_on_c, 0, 51, 46
1, 25244, Control_c, 0, 67, 44
1, 25259, Control_c, 0, 67, 55
1, 25274, Control_c, 0, 67, 63
1, 25276, Note_off_c, 0, 51, 63
1, 25288, Control_c, 0, 67, 66
1, 25333, Control_c, 0, 67, 68
1, 25348, Control_c, 0, 67, 74
1, 25362, Control_c, 0, 67, 90
1, 25377, Control_c, 0, 67, 109
1, 25382, Note_on_c, 0, 51, 53
1, 25392, Control_c, 0, 67, 126
1, 25399, Note_off_c, 0, 60, 59
1, 25407, Control_c, 0, 67, 127
1, 25417, Note_off_c, 0, 63, 57
1, 25427, Note_on_c, 0, 74, 54
1, 25429, Note_off_c, 0, 51, 63
1, 25534, Note_on_c, 0, 75, 69
1, 25535, Note_off_c, 0, 74, 65
1, 25559, Note_on_c, 0, 62, 46
1, 25563, Note_on_c, 0, 58, 49
1, 25694, Note_on_c, 0, 51, 48
1, 25707, Note_off_c, 0, 75, 54
1, 25735, Note_off_c, 0, 51, 61
1, 25752, Note_on_c, 0, 67, 52
1, 25774, Note_off_c, 0, 67, 60
1, 25843, Note_on_c, 0, 51, 49
1, 25844, Note_on_c, 0, 67, 60
1, 25884, Note_off_c, 0, 51, 61
1, 25993, Control_c, 0, 67, 124
1, 25996, Note_on_c, 0, 51, 47
1, 25996, Note_off_c, 0, 67, 61
1, 26007, Control_c, 0, 67, 120
1, 26022, Control_c, 0, 67, 114
1, 26032, Note_off_c, 0, 51, 62
1, 26037, Control_c, 0, 67, 110
1, 26052, Control_c, 0, 67, 106
1, 26067, Control_c, 0, 67, 99
1, 26082, Control_c, 0, 67, 90
1, 26097, Control_c, 0, 67, 82
1, 26111, Control_c, 0, 67, 78
1, 26126, Control_c, 0, 67, 74
1, 26141, Control_c, 0, 67, 67
1, 26144, Note_on_c, 0, 51, 53
1, 26163, Control_c, 0, 67, 55
1, 26178, Control_c, 0, 67, 42
1, 26183, Note_off_c, 0, 51, 64
1, 26192, Control_c, 0, 67, 27
1, 26207, Control_c, 0, 67, 13
1, 26211, Note_off_c, 0, 62, 43
1, 26222, Control_c, 0, 67, 0
1, 26230, Note_off_c, 0, 58, 56
1, 26282, Note_on_c, 0, 51, 54
1, 26315, Note_off_c, 0, 51, 63
1, 26436, Note_on_c, 0, 75, 78
1, 26446, Note_on_c, 0, 51, 53
1, 26449, Note_on_c, 0, 56, 54
1, 26457, Note_on_c, 0, 60, 50
1, 26476, Note_off_c, 0, 51, 63
1, 26480, Note_off_c, 0, 60, 58
1, 26482, Note_off_c, 0, 56, 64
1, 26496, Note_off_c, 0, 75, 64
1, 26502, Note_on_c, 0, 65, 66
1, 26531, Note_off_c, 0, 65, 68
1, 26589, Note_on_c, 0, 51, 50
1, 26628, Note_off_c, 0, 51, 61
1, 26736, Note_on_c, 0, 75, 73
1, 26744, Note_on_c, 0, 51, 53
1, 26750, Note_on_c, 0, 56, 54
1, 26751, Note_on_c, 0, 60, 56
1, 26779, Note_off_c, 0, 51, 63
1, 26785, Note_off_c, 0, 56, 63
1, 26788, Note_off_c, 0, 60, 61
1, 26791, Note_off_c, 0, 75, 63
1, 26807, Note_on_c, 0, 65, 47
1, 26831, Note_off_c, 0, 65, 55
1, 26880, Note_on_c, 0, 51, 55
1, 26926, Note_off_c, 0, 51, 61
1, 27021, Note_on_c, 0, 74, 66
1, 27031, Note_on_c, 0, 51, 52
1, 27038, Note_on_c, 0, 56, 57
1, 27054, Note_on_c, 0, 59, 45
1, 27064, Note_off_c, 0, 51, 64
1, 27075, Note_off_c, 0, 74, 63
1, 27076, Note_off_c, 0, 56, 63
1, 27082, Note_off_c, 0, 59, 55
1, 27096, Note_on_c, 0, 65, 53
1, 27118, Note_off_c, 0, 65, 60
1, 27161, Note_on_c, 0, 51, 54
1, 27204, Note_off_c, 0, 51, 61
1, 27322, Note_on_c, 0, 75, 55
1, 27328, Note_on_c, 0, 51, 37
1, 27343, Note_on_c, 0, 58, 50
1, 27344, Note_on_c, 0, 55, 40
1, 27374, Note_off_c, 0, 51, 61
1, 27383, Note_off_c, 0, 58, 64
1, 27388, Note_on_c, 0, 63, 57
1, 27391, Note_off_c, 0, 55, 58
1, 27398, Note_off_c, 0, 75, 63
1, 27414, Note_off_c, 0, 63, 64
1, 27483, Note_on_c, 0, 51, 52
1, 27516, Note_off_c, 0, 51, 64
1, 27626, Note_on_c, 0, 51, 50
1, 27666, Note_off_c, 0, 51, 63
1, 27781, Note_on_c, 0, 51, 53
1, 27816, Note_off_c, 0, 51, 63
1, 27915, Note_on_c, 0, 51, 59
1, 27952, Note_off_c, 0, 51, 62
1, 28057, Note_on_c, 0, 51, 55
1, 28100, Note_off_c, 0, 51, 61
1, 28230, Note_on_c, 0, 87, 85
1, 28233, Note_on_c, 0, 63, 59
1, 28234, Note_on_c, 0, 60, 59
1, 28288, Note_off_c, 0, 87, 64
1, 28291, Note_on_c, 0, 89, 80
1, 28347, Note_on_c, 0, 87, 75
1, 28371, Note_off_c, 0, 89, 63
1, 28375, Note_on_c, 0, 51, 57
1, 28419, Note_off_c, 0, 87, 63
1, 28425, Note_off_c, 0, 51, 63
1, 28427, Note_on_c, 0, 86, 77
1, 28475, Note_on_c, 0, 87, 66
1, 28502, Note_off_c, 0, 86, 60
1, 28553, Note_on_c, 0, 80, 73
1, 28555, Note_on_c, 0, 51, 54
1, 28562, Note_off_c, 0, 87, 63
1, 28603, Note_off_c, 0, 51, 58
1, 28610, Note_off_c, 0, 80, 65
1, 28738, Note_on_c, 0, 51, 53
1, 28769, Note_off_c, 0, 51, 63
1, 28839, Control_c, 0, 67, 9
1, 28854, Control_c, 0, 67, 14
1, 28869, Control_c, 0, 67, 22
1, 28882, Note_on_c, 0, 51, 51
1, 28884, Control_c, 0, 67, 32
1, 28899, Control_c, 0, 67, 41
1, 28914, Control_c, 0, 67, 47
1, 28917, Note_off_c, 0, 51, 64
1, 28928, Control_c, 0, 67, 48
1, 28958, Control_c, 0, 67, 50
1, 28973, Control_c, 0, 67, 57
1, 28988, Control_c, 0, 67, 70
1, 29002, Control_c, 0, 67, 86
1, 29017, Control_c, 0, 67, 98
1, 29019, Note_on_c, 0, 51, 52
1, 29030, Note_off_c, 0, 60, 60
1, 29032, Control_c, 0, 67, 105
1, 29048, Note_off_c, 0, 63, 65
1, 29053, Note_off_c, 0, 51, 63
1, 29062, Control_c, 0, 67, 103
1, 29077, Control_c, 0, 67, 102
1, 29091, Control_c, 0, 67, 101
1, 29106, Control_c, 0, 67, 99
1, 29121, Control_c, 0, 67, 99
1, 29150, Control_c, 0, 67, 100
1, 29176, Note_on_c, 0, 75, 62
1, 29191, Note_on_c, 0, 62, 50
1, 29193, Note_on_c, 0, 58, 48
1, 29208, Note_off_c, 0, 75, 64
1, 29235, Note_on_c, 0, 77, 61
1, 29287, Note_on_c, 0, 75, 67
1, 29289, Note_off_c, 0, 77, 61
1, 29318, Note_on_c, 0, 51, 47
1, 29323, Note_off_c, 0, 75, 64
1, 29349, Note_off_c, 0, 51, 59
1, 29355, Note_on_c, 0, 74, 47
1, 29394, Note_off_c, 0, 74, 56
1, 29396, Note_on_c, 0, 75, 50
1, 29476, Note_on_c, 0, 67, 64
1, 29485, Note_on_c, 0, 51, 39
1, 29495, Note_off_c, 0, 75, 55
1, 29522, Note_off_c, 0, 67, 61
1, 29534, Note_off_c, 0, 51, 59
1, 29558, Control_c, 0, 67, 99
1, 29573, Control_c, 0, 67, 99
1, 29588, Control_c, 0, 67, 98
1, 29603, Control_c, 0, 67, 97
1, 29618, Control_c, 0, 67, 95
1, 29632, Control_c, 0, 67, 92
1, 29647, Control_c, 0, 67, 83
1, 29650, Note_on_c, 0, 51, 52
1, 29662, Control_c, 0, 67, 68
1, 29677, Control_c, 0, 67, 46
1, 29683, Note_off_c, 0, 51, 60
1, 29692, Control_c, 0, 67, 19
1, 29707, Control_c, 0, 67, 0
1, 29792, Note_on_c, 0, 51, 52
1, 29825, Note_off_c, 0, 51, 64
1, 29892, Note_off_c, 0, 62, 42
1, 29931, Note_on_c, 0, 51, 58
1, 29959, Note_off_c, 0, 58, 54
1, 29965, Note_off_c, 0, 51, 63
1, 30080, Note_on_c, 0, 75, 77
1, 30092, Note_on_c, 0, 56, 59
1, 30097, Note_on_c, 0, 51, 56
1, 30101, Note_on_c, 0, 60, 60
1, 30131, Note_off_c, 0, 51, 63
1, 30131, Note_off_c, 0, 56, 62
1, 30139, Note_off_c, 0, 60, 59
1, 30142, Note_on_c, 0, 65, 66
1, 30144, Note_off_c, 0, 75, 63
1, 30170, Note_off_c, 0, 65, 67
1, 30231, Note_on_c, 0, 51, 52
1, 30276, Note_off_c, 0, 51, 57
1, 30379, Note_on_c, 0, 75, 74
1, 30386, Note_on_c, 0, 51, 56
1, 30395, Note_on_c, 0, 60, 59
1, 30397, Note_on_c, 0, 56, 53
1, 30425, Note_off_c, 0, 51, 62
1, 30433, Note_off_c, 0, 60, 60
1, 30437, Note_off_c, 0, 56, 62
1, 30437, Note_off_c, 0, 75, 62
1, 30443, Note_on_c, 0, 65, 52
1, 30464, Note_off_c, 0, 65, 61
1, 30524, Note_on_c, 0, 51, 56
1, 30566, Note_off_c, 0, 51, 61
1, 30682, Note_on_c, 0, 74, 60
1, 30683, Note_on_c, 0, 51, 52
1, 30690, Note_on_c, 0, 56, 51
1, 30695, Note_on_c, 0, 59, 53
1, 30720, Note_off_c, 0, 51, 63
1, 30725, Note_off_c, 0, 59, 54
1, 30727, Note_off_c, 0, 74, 64
1, 30729, Note_off_c, 0, 56, 62
1, 30744, Note_on_c, 0, 65, 54
1, 30768, Note_off_c, 0, 65, 65
1, 30820, Note_on_c, 0, 51, 50
1, 30859, Note_off_c, 0, 51, 60
1, 30990, Note_on_c, 0, 51, 31
1, 31004, Note_on_c, 0, 63, 55
1, 31009, Note_on_c, 0, 58, 40
1, 31013, Note_on_c, 0, 55, 32
1, 31069, Note_off_c, 0, 63, 62
1, 31092, Note_on_c, 0, 65, 58
1, 31154, Note_on_c, 0, 63, 62
1, 31158, Note_off_c, 0, 65, 63
1, 31207, Note_off_c, 0, 63, 63
1, 31226, Note_on_c, 0, 62, 63
1, 31250, Note_off_c, 0, 51, 53
1, 31254, Note_off_c, 0, 58, 55
1, 31275, Note_on_c, 0, 63, 68
1, 31279, Note_off_c, 0, 55, 42
1, 31297, Note_off_c, 0, 62, 60
1, 31328, Note_off_c, 0, 63, 64
1, 31349, Note_on_c, 0, 65, 76
1, 31389, Note_off_c, 0, 65, 61
1, 31430, Note_on_c, 0, 67, 74
1, 31492, Note_on_c, 0, 68, 72
1, 31496, Note_off_c, 0, 67, 61
1, 31549, Note_off_c, 0, 68, 65
1, 31553, Note_on_c, 0, 70, 73
1, 31579, Note_off_c, 0, 70, 67
1, 31711, Note_on_c, 0, 55, 58
1, 31711, Note_on_c, 0, 67, 76
1, 31735, Note_off_c, 0, 67, 68
1, 31740, Note_off_c, 0, 55, 66
1, 31851, Note_on_c, 0, 65, 73
1, 31854, Note_on_c, 0, 53, 59
1, 31876, Note_off_c, 0, 65, 70
1, 31883, Note_off_c, 0, 53, 66
1, 31993, Note_on_c, 0, 56, 56
1, 31994, Note_on_c, 0, 68, 74
1, 32023, Note_off_c, 0, 56, 65
1, 32028, Note_off_c, 0, 68, 64
1, 32134, Note_on_c, 0, 50, 60
1, 32141, Note_on_c, 0, 62, 77
1, 32172, Note_off_c, 0, 50, 65
1, 32175, Note_off_c, 0, 62, 65
1, 32281, Note_on_c, 0, 65, 74
1, 32288, Note_on_c, 0, 53, 62
1, 32312, Note_off_c, 0, 65, 62
1, 32317, Note_off_c, 0, 53, 68
1, 32422, Note_on_c, 0, 58, 76
1, 32425, Note_on_c, 0, 46, 60
1, 32449, Note_off_c, 0, 58, 68
1, 32461, Note_off_c, 0, 46, 63
1, 32556, Note_on_c, 0, 62, 72
1, 32569, Note_on_c, 0, 50, 42
1, 32585, Note_off_c, 0, 62, 65
1, 32598, Note_off_c, 0, 50, 46
1, 32710, Note_on_c, 0, 63, 65
1, 32714, Note_on_c, 0, 51, 44
1, 32770, Note_off_c, 0, 63, 65
1, 32786, Note_on_c, 0, 65, 64
1, 32852, Note_on_c, 0, 63, 72
1, 32858, Note_off_c, 0, 65, 65
1, 32879, Note_off_c, 0, 51, 62
1, 32912, Note_off_c, 0, 63, 65
1, 32924, Note_on_c, 0, 62, 77
1, 32982, Note_on_c, 0, 63, 74
1, 32990, Note_off_c, 0, 62, 61
1, 33032, Note_off_c, 0, 63, 64
1, 33057, Note_on_c, 0, 65, 77
1, 33091, Note_off_c, 0, 65, 63
1, 33132, Note_on_c, 0, 67, 76
1, 33207, Note_on_c, 0, 68, 76
1, 33208, Note_off_c, 0, 67, 62
1, 33274, Note_on_c, 0, 60, 70
1, 33279, Note_off_c, 0, 68, 64
1, 33282, Note_on_c, 0, 72, 75
1, 33347, Note_off_c, 0, 60, 60
1, 33350, Note_on_c, 0, 58, 71
1, 33352, Note_on_c, 0, 70, 79
1, 33388, Note_off_c, 0, 72, 61
1, 33415, Note_on_c, 0, 56, 71
1, 33419, Note_on_c, 0, 68, 82
1, 33431, Note_off_c, 0, 58, 64
1, 33461, Note_off_c, 0, 70, 62
1, 33478, Note_on_c, 0, 67, 86
1, 33495, Note_on_c, 0, 55, 67
1, 33501, Note_off_c, 0, 68, 64
1, 33524, Note_off_c, 0, 56, 63
1, 33546, Note_on_c, 0, 65, 83
1, 33549, Note_on_c, 0, 53, 69
1, 33551, Note_off_c, 0, 67, 64
1, 33555, Note_off_c, 0, 55, 65
1, 33574, Note_off_c, 0, 53, 69
1, 33580, Note_off_c, 0, 65, 66
1, 33707, Note_on_c, 0, 68, 75
1, 33709, Note_on_c, 0, 56, 61
1, 33734, Note_off_c, 0, 56, 66
1, 33747, Note_off_c, 0, 68, 65
1, 33851, Note_on_c, 0, 62, 76
1, 33877, Note_off_c, 0, 62, 66
1, 33988, Note_on_c, 0, 65, 69
1, 33993, Note_on_c, 0, 53, 62
1, 34016, Note_off_c, 0, 65, 65
1, 34022, Note_off_c, 0, 53, 68
1, 34132, Note_on_c, 0, 58, 72
1, 34136, Note_on_c, 0, 46, 61
1, 34163, Note_off_c, 0, 58, 66
1, 34163, Note_off_c, 0, 46, 65
1, 34271, Note_on_c, 0, 62, 66
1, 34284, Note_on_c, 0, 50, 47
1, 34303, Note_off_c, 0, 62, 64
1, 34312, Note_off_c, 0, 50, 48
1, 34428, Note_on_c, 0, 51, 64
1, 34428, Note_on_c, 0, 63, 79
1, 34462, Note_off_c, 0, 51, 63
1, 34475, Note_off_c, 0, 63, 62
1, 34567, Note_on_c, 0, 55, 57
1, 34568, Note_on_c, 0, 67, 62
1, 34598, Note_off_c, 0, 55, 66
1, 34614, Note_off_c, 0, 67, 60
1, 34708, Note_on_c, 0, 48, 63
1, 34713, Note_on_c, 0, 60, 71
1, 34740, Note_off_c, 0, 48, 65
1, 34741, Note_off_c, 0, 60, 64
1, 34846, Note_on_c, 0, 51, 64
1, 34857, Note_on_c, 0, 63, 68
1, 34880, Note_off_c, 0, 51, 64
1, 34893, Note_off_c, 0, 63, 65
1, 34990, Note_on_c, 0, 45, 66
1, 34996, Note_on_c, 0, 57, 70
1, 35023, Note_off_c, 0, 57, 65
1, 35028, Note_off_c, 0, 45, 64
1, 35129, Note_on_c, 0, 48, 58
1, 35138, Note_on_c, 0, 60, 57
1, 35164, Note_off_c, 0, 48, 67
1, 35176, Note_off_c, 0, 60, 60
1, 35295, Note_on_c, 0, 41, 55
1, 35296, Note_on_c, 0, 53, 52
1, 35333, Note_off_c, 0, 41, 65
1, 35339, Note_off_c, 0, 53, 63
1, 35438, Note_on_c, 0, 57, 58
1, 35449, Note_on_c, 0, 45, 52
1, 35473, Note_off_c, 0, 57, 62
1, 35484, Note_off_c, 0, 45, 65
1, 35585, Note_on_c, 0, 60, 63
1, 35594, Note_on_c, 0, 48, 66
1, 35619, Note_off_c, 0, 60, 61
1, 35624, Note_off_c, 0, 48, 65
1, 35721, Note_on_c, 0, 64, 71
1, 35731, Note_on_c, 0, 52, 70
1, 35761, Note_off_c, 0, 52, 68
1, 35766, Note_off_c, 0, 64, 61
1, 35857, Note_on_c, 0, 53, 69
1, 35865, Note_on_c, 0, 65, 80
1, 35906, Note_off_c, 0, 53, 66
1, 35926, Note_off_c, 0, 65, 61
1, 36014, Note_on_c, 0, 57, 76
1, 36014, Note_on_c, 0, 45, 69
1, 36053, Note_off_c, 0, 45, 65
1, 36063, Note_off_c, 0, 57, 60
1, 36154, Note_on_c, 0, 58, 82
1, 36154, Note_on_c, 0, 46, 75
1, 36189, Note_off_c, 0, 46, 67
1, 36202, Note_off_c, 0, 58, 67
1, 36295, Note_on_c, 0, 50, 66
1, 36298, Note_on_c, 0, 62, 79
1, 36329, Note_off_c, 0, 50, 64
1, 36340, Note_off_c, 0, 62, 61
1, 36432, Note_on_c, 0, 53, 62
1, 36441, Note_on_c, 0, 65, 65
1, 36462, Note_off_c, 0, 53, 68
1, 36470, Note_off_c, 0, 65, 67
1, 36589, Note_on_c, 0, 69, 67
1, 36593, Note_on_c, 0, 57, 44
1, 36734, Note_on_c, 0, 58, 60
1, 36736, Note_on_c, 0, 70, 71
1, 36756, Note_off_c, 0, 57, 53
1, 36760, Note_off_c, 0, 69, 63
1, 36770, Note_off_c, 0, 58, 67
1, 36783, Note_off_c, 0, 70, 60
1, 36888, Note_on_c, 0, 57, 71
1, 36888, Note_on_c, 0, 69, 81
1, 37022, Note_on_c, 0, 58, 75
1, 37025, Note_on_c, 0, 70, 82
1, 37049, Note_off_c, 0, 69, 65
1, 37058, Note_off_c, 0, 57, 61
1, 37078, Note_off_c, 0, 70, 63
1, 37079, Note_off_c, 0, 58, 64
1, 37182, Note_on_c, 0, 57, 71
1, 37184, Note_on_c, 0, 69, 89
1, 37321, Note_on_c, 0, 58, 77
1, 37321, Note_on_c, 0, 70, 86
1, 37344, Note_off_c, 0, 69, 66
1, 37352, Note_off_c, 0, 57, 58
1, 37374, Note_off_c, 0, 70, 62
1, 37387, Note_off_c, 0, 58, 65
1, 37484, Note_on_c, 0, 69, 84
1, 37489, Note_on_c, 0, 57, 57
1, 37642, Note_on_c, 0, 70, 75
1, 37644, Note_on_c, 0, 58, 60
1, 37665, Note_off_c, 0, 69, 63
1, 37678, Note_off_c, 0, 57, 62
1, 37687, Note_off_c, 0, 58, 63
1, 37708, Note_off_c, 0, 70, 62
1, 37819, Note_on_c, 0, 70, 77
1, 38101, Note_on_c, 0, 53, 44
1, 38106, Note_on_c, 0, 56, 42
1, 38107, Note_on_c, 0, 51, 43
1, 38110, Note_on_c, 0, 71, 73
1, 38112, Note_on_c, 0, 63, 51
1, 38119, Note_on_c, 0, 59, 42
1, 38122, Note_on_c, 0, 44, 35
1, 38178, Note_off_c, 0, 70, 55
1, 38189, Control_c, 0, 64, 40
1, 38204, Control_c, 0, 64, 61
1, 38219, Control_c, 0, 64, 68
1, 38233, Control_c, 0, 64, 79
1, 38248, Control_c, 0, 64, 95
1, 38263, Control_c, 0, 64, 119
1, 38278, Control_c, 0, 64, 127
1, 38408, Note_off_c, 0, 71, 56
1, 38414, Note_on_c, 0, 65, 56
1, 38418, Note_off_c, 0, 63, 64
1, 38433, Note_off_c, 0, 65, 63
1, 38506, Note_on_c, 0, 65, 67
1, 38716, Note_off_c, 0, 56, 61
1, 38729, Note_off_c, 0, 59, 37
1, 38753, Note_off_c, 0, 53, 61
1, 38765, Note_off_c, 0, 44, 47
1, 38780, Note_off_c, 0, 65, 59
1, 38781, Note_off_c, 0, 51, 56
1, 38826, Control_c, 0, 64, 120
1, 38826, Control_c, 0, 67, 9
1, 38840, Control_c, 0, 64, 109
1, 38840, Control_c, 0, 67, 19
1, 38855, Control_c, 0, 64, 98
1, 38855, Control_c, 0, 67, 35
1, 38870, Control_c, 0, 64, 85
1, 38870, Control_c, 0, 67, 51
1, 38885, Control_c, 0, 64, 73
1, 38885, Control_c, 0, 67, 64
1, 38908, Control_c, 0, 64, 55
1, 38908, Control_c, 0, 67, 74
1, 38922, Control_c, 0, 64, 0
1, 38922, Control_c, 0, 67, 87
1, 38937, Control_c, 0, 67, 102
1, 38952, Control_c, 0, 67, 118
1, 38967, Control_c, 0, 67, 127
1, 39284, Note_on_c, 0, 71, 56
1, 39287, Note_on_c, 0, 44, 37
1, 39290, Note_on_c, 0, 53, 35
1, 39290, Note_on_c, 0, 63, 46
1, 39291, Note_on_c, 0, 51, 34
1, 39297, Note_on_c, 0, 56, 40
1, 39302, Note_on_c, 0, 59, 34
1, 39324, Control_c, 0, 64, 59
1, 39339, Control_c, 0, 64, 68
1, 39353, Control_c, 0, 64, 77
1, 39368, Control_c, 0, 64, 87
1, 39383, Control_c, 0, 64, 96
1, 39398, Control_c, 0, 64, 103
1, 39413, Control_c, 0, 64, 107
1, 39427, Control_c, 0, 64, 108
1, 39442, Control_c, 0, 64, 109
1, 39457, Control_c, 0, 64, 110
1, 39472, Control_c, 0, 64, 110
1, 39480, Note_off_c, 0, 71, 57
1, 39487, Control_c, 0, 64, 111
1, 39502, Control_c, 0, 64, 111
1, 39517, Control_c, 0, 64, 112
1, 39532, Control_c, 0, 64, 112
1, 39536, Note_on_c, 0, 65, 58
1, 39559, Note_off_c, 0, 63, 61
1, 39559, Note_off_c, 0, 65, 65
1, 39648, Note_on_c, 0, 65, 57
1, 39819, Note_off_c, 0, 59, 39
1, 39850, Control_c, 0, 64, 112
1, 39861, Note_off_c, 0, 44, 51
1, 39879, Control_c, 0, 64, 111
1, 39896, Note_off_c, 0, 53, 41
1, 39909, Control_c, 0, 64, 110
1, 39917, Note_off_c, 0, 56, 41
1, 39920, Note_off_c, 0, 51, 48
1, 39924, Control_c, 0, 64, 109
1, 39938, Control_c, 0, 64, 107
1, 39946, Note_off_c, 0, 65, 54
1, 39952, Control_c, 0, 64, 105
1, 39968, Control_c, 0, 64, 100
1, 39983, Control_c, 0, 64, 93
1, 39998, Control_c, 0, 64, 84
1, 40013, Control_c, 0, 64, 74
1, 40028, Control_c, 0, 64, 64
1, 40042, Control_c, 0, 64, 0
1, 40265, Control_c, 0, 67, 124
1, 40280, Control_c, 0, 64, 31
1, 40280, Control_c, 0, 67, 112
1, 40294, Control_c, 0, 64, 42
1, 40294, Control_c, 0, 67, 99
1, 40309, Control_c, 0, 64, 46
1, 40309, Control_c, 0, 67, 84
1, 40324, Control_c, 0, 64, 48
1, 40324, Control_c, 0, 67, 68
1, 40339, Control_c, 0, 64, 50
1, 40339, Control_c, 0, 67, 50
1, 40354, Control_c, 0, 64, 53
1, 40354, Control_c, 0, 67, 29
1, 40368, Control_c, 0, 64, 58
1, 40368, Control_c, 0, 67, 14
1, 40383, Control_c, 0, 64, 62
1, 40383, Control_c, 0, 67, 0
1, 40405, Control_c, 0, 64, 65
1, 40420, Control_c, 0, 64, 67
1, 40429, Note_on_c, 0, 65, 45
1, 40433, Note_on_c, 0, 63, 39
1, 40435, Control_c, 0, 64, 70
1, 40438, Note_on_c, 0, 59, 34
1, 40441, Note_on_c, 0, 56, 31
1, 40450, Control_c, 0, 64, 74
1, 40465, Control_c, 0, 64, 77
1, 40480, Control_c, 0, 64, 81
1, 40494, Control_c, 0, 64, 85
1, 40509, Control_c, 0, 64, 87
1, 40524, Control_c, 0, 64, 90
1, 40539, Control_c, 0, 64, 92
1, 40554, Control_c, 0, 64, 95
1, 40562, Note_off_c, 0, 56, 36
1, 40566, Note_off_c, 0, 59, 35
1, 40568, Control_c, 0, 64, 98
1, 40583, Control_c, 0, 64, 101
1, 40598, Control_c, 0, 64, 103
1, 40613, Control_c, 0, 64, 104
1, 40618, Note_off_c, 0, 65, 57
1, 40627, Control_c, 0, 64, 105
1, 40642, Control_c, 0, 64, 106
1, 40645, Note_off_c, 0, 63, 40
1, 40657, Control_c, 0, 64, 107
1, 40672, Control_c, 0, 64, 108
1, 40687, Control_c, 0, 64, 109
1, 40716, Control_c, 0, 64, 110
1, 40746, Control_c, 0, 64, 110
1, 40777, Control_c, 0, 64, 111
1, 40779, Note_on_c, 0, 65, 75
1, 40784, Note_on_c, 0, 63, 64
1, 40790, Note_on_c, 0, 56, 38
1, 40790, Note_on_c, 0, 59, 38
1, 40885, Note_off_c, 0, 59, 38
1, 40891, Note_off_c, 0, 56, 36
1, 40903, Note_off_c, 0, 63, 57
1, 41088, Control_c, 0, 64, 110
1, 41103, Control_c, 0, 64, 105
1, 41117, Control_c, 0, 64, 96
1, 41118, Note_on_c, 0, 66, 80
1, 41132, Control_c, 0, 64, 86
1, 41141, Note_on_c, 0, 63, 64
1, 41147, Note_on_c, 0, 59, 42
1, 41149, Note_on_c, 0, 54, 40
1, 41154, Control_c, 0, 64, 76
1, 41169, Control_c, 0, 64, 65
1, 41172, Note_off_c, 0, 65, 60
1, 41184, Control_c, 0, 64, 47
1, 41198, Control_c, 0, 64, 0
1, 41213, Control_c, 0, 64, 34
1, 41228, Control_c, 0, 64, 59
1, 41232, Note_off_c, 0, 63, 59
1, 41243, Control_c, 0, 64, 67
1, 41258, Control_c, 0, 64, 75
1, 41272, Note_off_c, 0, 59, 56
1, 41273, Control_c, 0, 64, 83
1, 41288, Control_c, 0, 64, 89
1, 41302, Control_c, 0, 64, 95
1, 41317, Note_off_c, 0, 54, 36
1, 41317, Control_c, 0, 64, 102
1, 41332, Control_c, 0, 64, 109
1, 41347, Control_c, 0, 64, 113
1, 41362, Control_c, 0, 64, 116
1, 41377, Control_c, 0, 64, 117
1, 41391, Control_c, 0, 64, 118
1, 41421, Control_c, 0, 64, 119
1, 41510, Control_c, 0, 64, 117
1, 41514, Note_on_c, 0, 68, 69
1, 41524, Control_c, 0, 64, 112
1, 41525, Note_on_c, 0, 63, 50
1, 41532, Note_on_c, 0, 59, 26
1, 41539, Control_c, 0, 64, 101
1, 41541, Note_on_c, 0, 53, 30
1, 41554, Control_c, 0, 64, 89
1, 41570, Control_c, 0, 64, 76
1, 41580, Note_off_c, 0, 66, 62
1, 41585, Control_c, 0, 64, 62
1, 41585, Control_c, 0, 67, 9
1, 41600, Control_c, 0, 64, 0
1, 41600, Control_c, 0, 67, 12
1, 41614, Control_c, 0, 67, 15
1, 41629, Control_c, 0, 67, 18
1, 41644, Control_c, 0, 67, 21
1, 41659, Control_c, 0, 67, 24
1, 41673, Control_c, 0, 67, 33
1, 41688, Control_c, 0, 67, 46
1, 41703, Control_c, 0, 67, 63
1, 41718, Control_c, 0, 67, 79
1, 41733, Control_c, 0, 67, 90
1, 41747, Control_c, 0, 67, 94
1, 41762, Control_c, 0, 64, 32
1, 41777, Control_c, 0, 64, 58
1, 41792, Control_c, 0, 64, 64
1, 41792, Control_c, 0, 67, 95
1, 41807, Control_c, 0, 64, 69
1, 41807, Control_c, 0, 67, 95
1, 41821, Control_c, 0, 64, 76
1, 41836, Control_c, 0, 64, 83
1, 41836, Control_c, 0, 67, 96
1, 41851, Control_c, 0, 64, 91
1, 41866, Control_c, 0, 64, 98
1, 41881, Control_c, 0, 64, 103
1, 41881, Control_c, 0, 67, 95
1, 41903, Control_c, 0, 64, 107
1, 41918, Control_c, 0, 64, 110
1, 41933, Control_c, 0, 64, 113
1, 41947, Control_c, 0, 64, 115
1, 41962, Control_c, 0, 64, 116
1, 41977, Control_c, 0, 64, 116
1, 42021, Control_c, 0, 67, 95
1, 42056, Note_off_c, 0, 59, 40
1, 42077, Note_off_c, 0, 53, 41
1, 42110, Control_c, 0, 64, 116
1, 42155, Control_c, 0, 64, 115
1, 42170, Control_c, 0, 64, 114
1, 42185, Control_c, 0, 64, 110
1, 42195, Note_on_c, 0, 62, 43
1, 42200, Control_c, 0, 64, 104
1, 42214, Control_c, 0, 64, 93
1, 42226, Note_off_c, 0, 63, 51
1, 42229, Control_c, 0, 64, 82
1, 42229, Control_c, 0, 67, 94
1, 42244, Control_c, 0, 64, 71
1, 42259, Note_off_c, 0, 68, 44
1, 42259, Control_c, 0, 64, 53
1, 42259, Control_c, 0, 67, 94
1, 42273, Control_c, 0, 64, 0
1, 42280, Note_off_c, 0, 62, 61
1, 42288, Control_c, 0, 67, 93
1, 42333, Control_c, 0, 67, 93
1, 42347, Control_c, 0, 67, 92
1, 42363, Control_c, 0, 67, 92
1, 42393, Control_c, 0, 67, 91
1, 42408, Control_c, 0, 67, 91
1, 42511, Control_c, 0, 67, 90
1, 42526, Control_c, 0, 64, 34
1, 42541, Control_c, 0, 64, 61
1, 42556, Control_c, 0, 64, 69
1, 42563, Note_on_c, 0, 68, 27
1, 42564, Note_on_c, 0, 77, 47
1, 42570, Control_c, 0, 64, 77
1, 42571, Note_on_c, 0, 71, 31
1, 42576, Note_on_c, 0, 75, 20
1, 42585, Control_c, 0, 64, 86
1, 42600, Control_c, 0, 64, 93
1, 42615, Control_c, 0, 64, 96
1, 42630, Control_c, 0, 64, 98
1, 42630, Control_c, 0, 67, 91
1, 42652, Control_c, 0, 64, 101
1, 42667, Control_c, 0, 64, 106
1, 42668, Note_off_c, 0, 71, 35
1, 42673, Note_off_c, 0, 75, 47
1, 42679, Note_off_c, 0, 68, 39
1, 42682, Control_c, 0, 64, 110
1, 42686, Note_off_c, 0, 77, 48
1, 42696, Control_c, 0, 64, 113
1, 42696, Control_c, 0, 67, 91
1, 42711, Control_c, 0, 64, 113
1, 42770, Control_c, 0, 67, 92
1, 42829, Control_c, 0, 64, 113
1, 42844, Control_c, 0, 64, 110
1, 42859, Control_c, 0, 64, 102
1, 42874, Control_c, 0, 64, 93
1, 42888, Control_c, 0, 64, 83
1, 42900, Note_on_c, 0, 77, 62
1, 42903, Control_c, 0, 64, 75
1, 42903, Control_c, 0, 67, 91
1, 42911, Note_on_c, 0, 68, 36
1, 42918, Control_c, 0, 64, 69
1, 42923, Note_on_c, 0, 75, 38
1, 42934, Control_c, 0, 64, 63
1, 42937, Note_on_c, 0, 71, 32
1, 42949, Control_c, 0, 64, 60
1, 42959, Note_off_c, 0, 75, 55
1, 42963, Control_c, 0, 64, 62
1, 42975, Note_off_c, 0, 71, 51
1, 42978, Control_c, 0, 64, 66
1, 42992, Note_off_c, 0, 68, 59
1, 42993, Control_c, 0, 64, 71
1, 43008, Control_c, 0, 64, 78
1, 43008, Control_c, 0, 67, 91
1, 43022, Control_c, 0, 64, 85
1, 43037, Control_c, 0, 64, 91
1, 43052, Control_c, 0, 64, 96
1, 43067, Control_c, 0, 64, 103
1, 43082, Control_c, 0, 64, 107
1, 43097, Control_c, 0, 64, 108
1, 43112, Control_c, 0, 64, 109
1, 43186, Control_c, 0, 64, 107
1, 43201, Control_c, 0, 64, 101
1, 43216, Control_c, 0, 64, 92
1, 43231, Control_c, 0, 64, 81
1, 43233, Note_on_c, 0, 78, 68
1, 43246, Note_on_c, 0, 66, 44
1, 43246, Control_c, 0, 64, 72
1, 43251, Note_on_c, 0, 71, 37
1, 43257, Note_on_c, 0, 75, 41
1, 43261, Control_c, 0, 64, 63
1, 43276, Control_c, 0, 64, 56
1, 43291, Control_c, 0, 64, 59
1, 43303, Note_off_c, 0, 71, 55
1, 43303, Note_off_c, 0, 75, 57
1, 43305, Note_off_c, 0, 77, 49
1, 43306, Control_c, 0, 64, 65
1, 43309, Note_off_c, 0, 66, 49
1, 43320, Control_c, 0, 64, 71
1, 43335, Control_c, 0, 64, 79
1, 43350, Control_c, 0, 64, 87
1, 43365, Control_c, 0, 64, 93
1, 43380, Control_c, 0, 64, 97
1, 43401, Control_c, 0, 64, 100
1, 43416, Control_c, 0, 64, 103
1, 43431, Control_c, 0, 64, 105
1, 43446, Control_c, 0, 64, 106
1, 43461, Control_c, 0, 64, 107
1, 43594, Control_c, 0, 64, 106
1, 43609, Control_c, 0, 64, 104
1, 43622, Note_on_c, 0, 80, 58
1, 43624, Control_c, 0, 64, 100
1, 43636, Note_on_c, 0, 75, 39
1, 43638, Control_c, 0, 64, 95
1, 43638, Control_c, 0, 67, 91
1, 43644, Note_on_c, 0, 65, 29
1, 43653, Control_c, 0, 64, 86
1, 43663, Note_on_c, 0, 71, 19
1, 43668, Control_c, 0, 64, 77
1, 43670, Note_off_c, 0, 78, 57
1, 43683, Control_c, 0, 64, 66
1, 43698, Control_c, 0, 64, 10
1, 43712, Control_c, 0, 64, 0
1, 43801, Control_c, 0, 67, 91
1, 43875, Control_c, 0, 64, 44
1, 43890, Control_c, 0, 64, 60
1, 43905, Control_c, 0, 64, 65
1, 43905, Control_c, 0, 67, 90
1, 43920, Control_c, 0, 64, 69
1, 43920, Control_c, 0, 67, 90
1, 43935, Control_c, 0, 64, 76
1, 43949, Control_c, 0, 64, 82
1, 43965, Control_c, 0, 64, 87
1, 43965, Control_c, 0, 67, 89
1, 43980, Control_c, 0, 64, 92
1, 43980, Control_c, 0, 67, 89
1, 43995, Control_c, 0, 64, 95
1, 43995, Control_c, 0, 67, 88
1, 44009, Control_c, 0, 64, 98
1, 44009, Control_c, 0, 67, 87
1, 44024, Control_c, 0, 64, 100
1, 44024, Control_c, 0, 67, 87
1, 44026, Note_off_c, 0, 71, 32
1, 44039, Control_c, 0, 64, 102
1, 44039, Control_c, 0, 67, 86
1, 44054, Control_c, 0, 64, 104
1, 44054, Control_c, 0, 67, 85
1, 44069, Control_c, 0, 64, 104
1, 44069, Control_c, 0, 67, 84
1, 44084, Control_c, 0, 64, 105
1, 44084, Control_c, 0, 67, 83
1, 44099, Control_c, 0, 67, 78
1, 44102, Note_off_c, 0, 65, 44
1, 44113, Control_c, 0, 67, 74
1, 44128, Control_c, 0, 67, 71
1, 44150, Control_c, 0, 67, 69
1, 44165, Control_c, 0, 67, 65
1, 44180, Control_c, 0, 67, 60
1, 44195, Control_c, 0, 67, 52
1, 44210, Control_c, 0, 67, 43
1, 44224, Control_c, 0, 67, 39
1, 44239, Control_c, 0, 64, 104
1, 44239, Control_c, 0, 67, 37
1, 44254, Control_c, 0, 64, 104
1, 44254, Control_c, 0, 67, 35
1, 44268, Control_c, 0, 64, 102
1, 44268, Control_c, 0, 67, 32
1, 44283, Control_c, 0, 64, 100
1, 44283, Control_c, 0, 67, 28
1, 44298, Control_c, 0, 64, 96
1, 44298, Control_c, 0, 67, 22
1, 44313, Control_c, 0, 64, 90
1, 44313, Control_c, 0, 67, 17
1, 44328, Control_c, 0, 64, 83
1, 44328, Control_c, 0, 67, 12
1, 44332, Note_off_c, 0, 80, 33
1, 44333, Note_on_c, 0, 74, 33
1, 44343, Control_c, 0, 64, 74
1, 44343, Control_c, 0, 67, 8
1, 44358, Control_c, 0, 64, 63
1, 44358, Control_c, 0, 67, 0
1, 44373, Control_c, 0, 64, 0
1, 44400, Note_off_c, 0, 75, 30
1, 44431, Note_off_c, 0, 74, 64
1, 44594, Control_c, 0, 64, 48
1, 44608, Control_c, 0, 64, 55
1, 44623, Control_c, 0, 64, 57
1, 44638, Control_c, 0, 64, 59
1, 44653, Control_c, 0, 64, 62
1, 44668, Control_c, 0, 64, 65
1, 44683, Control_c, 0, 64, 69
1, 44698, Control_c, 0, 64, 75
1, 44699, Note_on_c, 0, 67, 52
1, 44705, Note_on_c, 0, 61, 41
1, 44706, Note_on_c, 0, 58, 36
1, 44713, Control_c, 0, 64, 80
1, 44716, Note_on_c, 0, 65, 40
1, 44727, Control_c, 0, 64, 86
1, 44742, Control_c, 0, 64, 91
1, 44757, Control_c, 0, 64, 96
1, 44772, Control_c, 0, 64, 101
1, 44787, Control_c, 0, 64, 108
1, 44802, Control_c, 0, 64, 114
1, 44817, Control_c, 0, 64, 120
1, 44830, Note_off_c, 0, 58, 60
1, 44831, Note_off_c, 0, 61, 60
1, 44832, Control_c, 0, 64, 127
1, 44847, Control_c, 0, 64, 127
1, 44850, Note_off_c, 0, 65, 51
1, 44859, Note_off_c, 0, 67, 57
1, 45040, Note_on_c, 0, 67, 80
1, 45043, Note_on_c, 0, 61, 57
1, 45046, Note_on_c, 0, 58, 54
1, 45051, Note_on_c, 0, 65, 67
1, 45101, Note_off_c, 0, 65, 55
1, 45148, Note_off_c, 0, 58, 60
1, 45154, Note_off_c, 0, 61, 60
1, 45362, Note_on_c, 0, 68, 89
1, 45365, Note_on_c, 0, 61, 67
1, 45365, Note_on_c, 0, 65, 72
1, 45375, Note_on_c, 0, 56, 59
1, 45393, Note_off_c, 0, 65, 64
1, 45401, Note_off_c, 0, 67, 63
1, 45446, Note_off_c, 0, 56, 61
1, 45447, Note_off_c, 0, 61, 58
1, 45701, Note_on_c, 0, 61, 60
1, 45715, Note_on_c, 0, 70, 83
1, 45720, Note_on_c, 0, 65, 64
1, 45721, Control_c, 0, 64, 112
1, 45724, Note_on_c, 0, 55, 49
1, 45736, Control_c, 0, 64, 100
1, 45751, Control_c, 0, 64, 85
1, 45752, Note_off_c, 0, 68, 62
1, 45766, Control_c, 0, 64, 72
1, 45781, Control_c, 0, 64, 50
1, 45795, Control_c, 0, 64, 0
1, 45988, Control_c, 0, 64, 36
1, 46003, Control_c, 0, 64, 61
1, 46018, Control_c, 0, 64, 66
1, 46033, Control_c, 0, 64, 71
1, 46048, Control_c, 0, 64, 77
1, 46063, Control_c, 0, 64, 82
1, 46078, Control_c, 0, 64, 89
1, 46093, Control_c, 0, 64, 96
1, 46107, Control_c, 0, 64, 103
1, 46122, Control_c, 0, 64, 110
1, 46137, Control_c, 0, 64, 116
1, 46152, Control_c, 0, 64, 119
1, 46157, Note_off_c, 0, 61, 26
1, 46167, Control_c, 0, 64, 120
1, 46181, Control_c, 0, 64, 122
1, 46196, Control_c, 0, 64, 124
1, 46211, Control_c, 0, 64, 126
1, 46226, Control_c, 0, 64, 127
1, 46240, Control_c, 0, 64, 127
1, 46344, Control_c, 0, 64, 127
1, 46360, Control_c, 0, 64, 125
1, 46361, Note_off_c, 0, 70, 15
1, 46375, Control_c, 0, 64, 122
1, 46397, Control_c, 0, 64, 116
1, 46403, Note_on_c, 0, 64, 53
1, 46403, Note_off_c, 0, 65, 32
1, 46412, Control_c, 0, 64, 108
1, 46420, Note_off_c, 0, 55, 42
1, 46427, Control_c, 0, 64, 95
1, 46442, Control_c, 0, 64, 83
1, 46442, Control_c, 0, 67, 9
1, 46456, Control_c, 0, 64, 70
1, 46456, Control_c, 0, 67, 10
1, 46462, Note_off_c, 0, 64, 64
1, 46471, Control_c, 0, 64, 45
1, 46471, Control_c, 0, 67, 11
1, 46486, Control_c, 0, 64, 0
1, 46486, Control_c, 0, 67, 12
1, 46516, Control_c, 0, 67, 13
1, 46531, Control_c, 0, 67, 20
1, 46545, Control_c, 0, 67, 27
1, 46560, Control_c, 0, 67, 35
1, 46575, Control_c, 0, 67, 42
1, 46590, Control_c, 0, 67, 46
1, 46604, Control_c, 0, 67, 49
1, 46619, Control_c, 0, 67, 51
1, 46634, Control_c, 0, 67, 54
1, 46649, Control_c, 0, 67, 56
1, 46663, Control_c, 0, 67, 57
1, 46678, Control_c, 0, 67, 58
1, 46693, Control_c, 0, 67, 60
1, 46708, Control_c, 0, 67, 61
1, 46723, Control_c, 0, 67, 62
1, 46737, Control_c, 0, 67, 63
1, 46752, Control_c, 0, 64, 51
1, 46765, Note_on_c, 0, 79, 47
1, 46767, Control_c, 0, 64, 62
1, 46769, Note_on_c, 0, 73, 39
1, 46774, Note_on_c, 0, 70, 35
1, 46781, Note_on_c, 0, 77, 25
1, 46782, Control_c, 0, 64, 66
1, 46796, Control_c, 0, 64, 70
1, 46811, Control_c, 0, 64, 77
1, 46822, Note_off_c, 0, 77, 47
1, 46823, Note_off_c, 0, 73, 42
1, 46826, Control_c, 0, 64, 84
1, 46841, Control_c, 0, 64, 92
1, 46853, Note_off_c, 0, 70, 39
1, 46856, Control_c, 0, 64, 98
1, 46856, Control_c, 0, 67, 63
1, 46859, Note_off_c, 0, 79, 56
1, 46871, Control_c, 0, 64, 103
1, 46886, Control_c, 0, 64, 105
1, 46901, Control_c, 0, 64, 106
1, 46915, Control_c, 0, 64, 106
1, 46930, Control_c, 0, 67, 62
1, 46945, Control_c, 0, 64, 107
1, 46975, Control_c, 0, 64, 107
1, 47049, Control_c, 0, 64, 107
1, 47049, Control_c, 0, 67, 62
1, 47063, Control_c, 0, 64, 104
1, 47078, Control_c, 0, 64, 97
1, 47093, Control_c, 0, 64, 84
1, 47094, Note_on_c, 0, 79, 68
1, 47104, Note_on_c, 0, 73, 47
1, 47108, Control_c, 0, 64, 72
1, 47113, Note_on_c, 0, 70, 42
1, 47123, Control_c, 0, 64, 57
1, 47145, Control_c, 0, 64, 0
1, 47184, Note_off_c, 0, 70, 50
1, 47190, Control_c, 0, 64, 51
1, 47193, Note_off_c, 0, 73, 55
1, 47205, Control_c, 0, 64, 62
1, 47220, Control_c, 0, 64, 66
1, 47234, Control_c, 0, 64, 71
1, 47249, Control_c, 0, 64, 78
1, 47264, Control_c, 0, 64, 86
1, 47279, Control_c, 0, 64, 92
1, 47294, Control_c, 0, 64, 97
1, 47294, Control_c, 0, 67, 62
1, 47309, Control_c, 0, 64, 99
1, 47324, Control_c, 0, 64, 100
1, 47339, Control_c, 0, 64, 102
1, 47354, Control_c, 0, 64, 104
1, 47368, Control_c, 0, 64, 106
1, 47413, Control_c, 0, 64, 105
1, 47428, Control_c, 0, 64, 102
1, 47428, Control_c, 0, 67, 63
1, 47442, Control_c, 0, 64, 97
1, 47442, Control_c, 0, 67, 63
1, 47446, Note_on_c, 0, 73, 44
1, 47455, Note_on_c, 0, 80, 67
1, 47457, Control_c, 0, 64, 90
1, 47462, Note_on_c, 0, 68, 43
1, 47471, Note_on_c, 0, 77, 40
1, 47472, Control_c, 0, 64, 80
1, 47486, Control_c, 0, 64, 72
1, 47486, Control_c, 0, 67, 64
1, 47497, Note_off_c, 0, 79, 59
1, 47501, Control_c, 0, 64, 64
1, 47501, Control_c, 0, 67, 64
1, 47502, Note_off_c, 0, 68, 54
1, 47509, Note_off_c, 0, 73, 59
1, 47516, Control_c, 0, 64, 55
1, 47526, Note_off_c, 0, 77, 47
1, 47531, Control_c, 0, 64, 56
1, 47546, Control_c, 0, 64, 61
1, 47560, Control_c, 0, 64, 65
1, 47575, Control_c, 0, 64, 68
1, 47590, Control_c, 0, 64, 75
1, 47604, Control_c, 0, 64, 84
1, 47619, Control_c, 0, 64, 93
1, 47634, Control_c, 0, 64, 100
1, 47649, Control_c, 0, 64, 102
1, 47664, Control_c, 0, 64, 103
1, 47679, Control_c, 0, 64, 104
1, 47693, Control_c, 0, 64, 104
1, 47708, Control_c, 0, 64, 105
1, 47768, Control_c, 0, 67, 65
1, 47783, Control_c, 0, 64, 104
1, 47783, Control_c, 0, 67, 65
1, 47798, Control_c, 0, 64, 100
1, 47812, Control_c, 0, 64, 92
1, 47813, Note_on_c, 0, 82, 64
1, 47827, Control_c, 0, 64, 81
1, 47829, Note_on_c, 0, 73, 36
1, 47840, Note_on_c, 0, 67, 36
1, 47840, Note_on_c, 0, 77, 38
1, 47842, Control_c, 0, 64, 67
1, 47842, Control_c, 0, 67, 67
1, 47853, Note_off_c, 0, 80, 55
1, 47857, Control_c, 0, 64, 0
1, 47857, Control_c, 0, 67, 71
1, 47872, Control_c, 0, 67, 76
1, 47893, Control_c, 0, 67, 79
1, 47903, Note_off_c, 0, 77, 0
1, 47903, Note_on_c, 0, 77, 16
1, 47908, Control_c, 0, 67, 82
1, 47923, Control_c, 0, 67, 84
1, 47938, Control_c, 0, 67, 85
1, 47953, Control_c, 0, 67, 86
1, 47969, Control_c, 0, 67, 87
1, 47983, Control_c, 0, 67, 88
1, 47998, Control_c, 0, 64, 50
1, 48013, Control_c, 0, 64, 62
1, 48013, Control_c, 0, 67, 88
1, 48028, Control_c, 0, 64, 66
1, 48042, Control_c, 0, 64, 69
1, 48057, Control_c, 0, 64, 76
1, 48072, Control_c, 0, 64, 83
1, 48087, Control_c, 0, 64, 90
1, 48102, Control_c, 0, 64, 95
1, 48117, Control_c, 0, 64, 98
1, 48132, Control_c, 0, 64, 101
1, 48132, Control_c, 0, 67, 88
1, 48137, Note_off_c, 0, 73, 39
1, 48147, Control_c, 0, 64, 103
1, 48161, Control_c, 0, 64, 105
1, 48161, Control_c, 0, 67, 87
1, 48176, Control_c, 0, 64, 106
1, 48176, Control_c, 0, 67, 87
1, 48190, Control_c, 0, 64, 107
1, 48190, Control_c, 0, 67, 86
1, 48205, Control_c, 0, 64, 107
1, 48205, Control_c, 0, 67, 85
1, 48220, Control_c, 0, 67, 84
1, 48234, Control_c, 0, 67, 84
1, 48249, Control_c, 0, 67, 83
1, 48264, Control_c, 0, 67, 82
1, 48279, Control_c, 0, 67, 82
1, 48294, Control_c, 0, 67, 81
1, 48308, Control_c, 0, 67, 81
1, 48323, Control_c, 0, 64, 107
1, 48323, Control_c, 0, 67, 79
1, 48338, Control_c, 0, 67, 79
1, 48353, Control_c, 0, 64, 106
1, 48368, Control_c, 0, 64, 106
1, 48382, Control_c, 0, 64, 105
1, 48397, Control_c, 0, 64, 105
1, 48412, Control_c, 0, 64, 104
1, 48427, Control_c, 0, 64, 104
1, 48442, Control_c, 0, 64, 103
1, 48457, Control_c, 0, 64, 102
1, 48472, Control_c, 0, 64, 101
1, 48486, Control_c, 0, 64, 100
1, 48498, Note_off_c, 0, 82, 34
1, 48501, Control_c, 0, 64, 97
1, 48516, Control_c, 0, 64, 93
1, 48531, Control_c, 0, 64, 86
1, 48531, Control_c, 0, 67, 78
1, 48546, Control_c, 0, 64, 78
1, 48555, Note_on_c, 0, 76, 43
1, 48561, Control_c, 0, 64, 67
1, 48575, Control_c, 0, 64, 33
1, 48590, Control_c, 0, 64, 0
1, 48600, Note_off_c, 0, 77, 53
1, 48609, Note_off_c, 0, 76, 64
1, 48644, Note_off_c, 0, 67, 36
1, 48761, Control_c, 0, 67, 78
1, 48791, Control_c, 0, 67, 77
1, 48882, Note_on_c, 0, 85, 54
1, 48954, Control_c, 0, 67, 77
1, 48969, Control_c, 0, 67, 76
1, 48999, Control_c, 0, 67, 75
1, 49014, Control_c, 0, 67, 75
1, 49029, Control_c, 0, 67, 74
1, 49044, Control_c, 0, 67, 72
1, 49058, Control_c, 0, 67, 68
1, 49073, Control_c, 0, 67, 63
1, 49088, Control_c, 0, 67, 57
1, 49103, Control_c, 0, 67, 48
1, 49118, Control_c, 0, 67, 37
1, 49132, Control_c, 0, 67, 27
1, 49147, Control_c, 0, 67, 20
1, 49162, Control_c, 0, 67, 14
1, 49177, Control_c, 0, 67, 9
1, 49192, Control_c, 0, 67, 0
1, 49232, Note_on_c, 0, 70, 37
1, 49236, Note_on_c, 0, 66, 36
1, 49238, Note_on_c, 0, 76, 44
1, 49288, Note_off_c, 0, 76, 62
1, 49298, Note_off_c, 0, 66, 61
1, 49310, Note_off_c, 0, 70, 53
1, 49320, Note_off_c, 0, 85, 62
1, 49904, Note_on_c, 0, 89, 67
1, 50200, Control_c, 0, 64, 59
1, 50214, Control_c, 0, 64, 75
1, 50227, Note_on_c, 0, 69, 87
1, 50229, Control_c, 0, 64, 97
1, 50233, Note_on_c, 0, 65, 82
1, 50233, Note_on_c, 0, 77, 86
1, 50244, Control_c, 0, 64, 127
1, 50269, Note_off_c, 0, 69, 68
1, 50274, Control_c, 0, 64, 110
1, 50281, Note_off_c, 0, 77, 64
1, 50284, Note_off_c, 0, 89, 65
1, 50285, Note_off_c, 0, 65, 68
1, 50288, Control_c, 0, 64, 90
1, 50303, Control_c, 0, 64, 71
1, 50318, Control_c, 0, 64, 0
1, 50511, Control_c, 0, 64, 60
1, 50526, Control_c, 0, 64, 70
1, 50541, Control_c, 0, 64, 77
1, 50545, Note_on_c, 0, 53, 101
1, 50556, Control_c, 0, 64, 78
1, 50571, Control_c, 0, 64, 73
1, 50585, Control_c, 0, 64, 64
1, 50591, Note_off_c, 0, 53, 71
1, 50600, Control_c, 0, 64, 0
1, 50778, Control_c, 0, 64, 58
1, 50793, Control_c, 0, 64, 71
1, 50808, Control_c, 0, 64, 82
1, 50822, Control_c, 0, 64, 91
1, 50852, Note_on_c, 0, 41, 99
1, 50852, Control_c, 0, 64, 88
1, 50867, Control_c, 0, 64, 79
1, 50889, Control_c, 0, 64, 65
1, 50904, Control_c, 0, 64, 0
1, 50913, Note_off_c, 0, 41, 68
1, 51185, Control_c, 0, 64, 20
1, 51196, Note_on_c, 0, 29, 90
1, 51199, Control_c, 0, 64, 68
1, 51214, Control_c, 0, 64, 78
1, 51229, Control_c, 0, 64, 90
1, 51244, Control_c, 0, 64, 96
1, 51253, Note_off_c, 0, 29, 64
1, 51259, Control_c, 0, 64, 95
1, 51274, Control_c, 0, 64, 93
1, 51288, Control_c, 0, 64, 87
1, 51303, Control_c, 0, 64, 75
1, 51318, Control_c, 0, 64, 60
1, 51333, Control_c, 0, 64, 0
1, 51686, Note_on_c, 0, 77, 64
1, 51704, Note_off_c, 0, 77, 64
1, 51837, Note_on_c, 0, 50, 41
1, 51844, Note_on_c, 0, 82, 76
1, 51858, Control_c, 0, 64, 41
1, 51873, Control_c, 0, 64, 73
1, 51888, Control_c, 0, 64, 93
1, 51894, Note_off_c, 0, 50, 47
1, 51903, Control_c, 0, 64, 127
1, 51930, Note_on_c, 0, 58, 46
1, 51973, Note_off_c, 0, 58, 63
1, 52008, Note_on_c, 0, 53, 54
1, 52046, Note_off_c, 0, 53, 64
1, 52069, Note_on_c, 0, 58, 63
1, 52101, Note_off_c, 0, 58, 65
1, 52159, Note_on_c, 0, 50, 47
1, 52186, Note_off_c, 0, 50, 59
1, 52204, Note_on_c, 0, 58, 56
1, 52238, Note_off_c, 0, 58, 62
1, 52292, Note_off_c, 0, 82, 60
1, 52297, Note_on_c, 0, 53, 44
1, 52317, Note_on_c, 0, 81, 68
1, 52331, Note_off_c, 0, 53, 54
1, 52357, Note_on_c, 0, 58, 55
1, 52380, Note_on_c, 0, 82, 70
1, 52406, Note_off_c, 0, 58, 60
1, 52415, Note_off_c, 0, 81, 57
1, 52444, Note_on_c, 0, 50, 60
1, 52444, Note_on_c, 0, 84, 83
1, 52457, Note_off_c, 0, 82, 64
1, 52476, Note_off_c, 0, 50, 64
1, 52504, Control_c, 0, 64, 124
1, 52510, Note_on_c, 0, 58, 57
1, 52519, Control_c, 0, 64, 120
1, 52534, Control_c, 0, 64, 116
1, 52548, Control_c, 0, 64, 113
1, 52561, Note_off_c, 0, 58, 56
1, 52563, Control_c, 0, 64, 111
1, 52578, Control_c, 0, 64, 107
1, 52593, Control_c, 0, 64, 101
1, 52596, Note_on_c, 0, 53, 53
1, 52599, Note_on_c, 0, 82, 79
1, 52607, Control_c, 0, 64, 94
1, 52620, Note_off_c, 0, 84, 57
1, 52622, Control_c, 0, 64, 85
1, 52637, Control_c, 0, 64, 73
1, 52641, Note_off_c, 0, 53, 61
1, 52645, Note_off_c, 0, 82, 65
1, 52652, Control_c, 0, 64, 59
1, 52668, Control_c, 0, 64, 0
1, 52675, Note_on_c, 0, 58, 63
1, 52713, Note_off_c, 0, 58, 63
1, 52764, Note_on_c, 0, 77, 68
1, 52767, Note_on_c, 0, 50, 55
1, 52803, Note_off_c, 0, 50, 63
1, 52842, Note_on_c, 0, 58, 53
1, 52884, Note_off_c, 0, 58, 63
1, 52910, Note_on_c, 0, 53, 49
1, 52964, Note_off_c, 0, 53, 60
1, 52985, Note_on_c, 0, 58, 66
1, 53017, Note_off_c, 0, 58, 66
1, 53068, Note_on_c, 0, 50, 56
1, 53115, Note_off_c, 0, 50, 57
1, 53140, Note_on_c, 0, 58, 58
1, 53183, Note_off_c, 0, 58, 62
1, 53205, Note_off_c, 0, 77, 59
1, 53225, Note_on_c, 0, 53, 50
1, 53226, Note_on_c, 0, 79, 68
1, 53274, Note_off_c, 0, 53, 61
1, 53286, Note_on_c, 0, 77, 71
1, 53295, Note_off_c, 0, 79, 61
1, 53300, Note_on_c, 0, 58, 63
1, 53333, Note_off_c, 0, 58, 65
1, 53359, Note_on_c, 0, 75, 73
1, 53360, Note_off_c, 0, 77, 60
1, 53380, Note_on_c, 0, 50, 56
1, 53418, Note_off_c, 0, 50, 63
1, 53454, Note_on_c, 0, 58, 50
1, 53495, Note_off_c, 0, 58, 63
1, 53507, Note_off_c, 0, 75, 62
1, 53524, Note_on_c, 0, 74, 64
1, 53529, Note_on_c, 0, 53, 57
1, 53551, Note_off_c, 0, 74, 68
1, 53566, Note_off_c, 0, 53, 66
1, 53600, Note_on_c, 0, 58, 60
1, 53635, Note_off_c, 0, 58, 64
1, 53671, Note_on_c, 0, 78, 78
1, 53691, Note_on_c, 0, 51, 53
1, 53734, Note_on_c, 0, 79, 73
1, 53734, Note_off_c, 0, 78, 64
1, 53748, Note_off_c, 0, 51, 58
1, 53757, Note_off_c, 0, 79, 69
1, 53760, Note_on_c, 0, 58, 54
1, 53795, Note_off_c, 0, 58, 65
1, 53841, Note_on_c, 0, 55, 53
1, 53885, Note_off_c, 0, 55, 65
1, 53921, Note_on_c, 0, 58, 52
1, 53955, Note_off_c, 0, 58, 65
1, 53978, Note_on_c, 0, 78, 77
1, 53996, Note_on_c, 0, 51, 61
1, 54041, Note_off_c, 0, 51, 63
1, 54044, Note_on_c, 0, 79, 82
1, 54048, Note_off_c, 0, 78, 65
1, 54063, Note_off_c, 0, 79, 70
1, 54066, Note_on_c, 0, 58, 58
1, 54102, Note_off_c, 0, 58, 65
1, 54133, Note_on_c, 0, 55, 56
1, 54186, Note_off_c, 0, 55, 61
1, 54195, Control_c, 0, 67, 9
1, 54210, Control_c, 0, 67, 13
1, 54219, Note_on_c, 0, 58, 59
1, 54225, Control_c, 0, 67, 15
1, 54240, Control_c, 0, 67, 19
1, 54254, Control_c, 0, 67, 23
1, 54255, Note_off_c, 0, 58, 66
1, 54269, Control_c, 0, 67, 29
1, 54284, Control_c, 0, 67, 33
1, 54291, Note_on_c, 0, 74, 68
1, 54299, Control_c, 0, 67, 36
1, 54306, Note_on_c, 0, 51, 52
1, 54314, Control_c, 0, 67, 37
1, 54345, Note_off_c, 0, 51, 62
1, 54350, Note_off_c, 0, 74, 65
1, 54357, Note_on_c, 0, 75, 67
1, 54359, Control_c, 0, 67, 37
1, 54370, Note_on_c, 0, 59, 63
1, 54374, Control_c, 0, 67, 36
1, 54386, Note_off_c, 0, 75, 67
1, 54389, Control_c, 0, 67, 35
1, 54403, Control_c, 0, 67, 34
1, 54404, Note_off_c, 0, 59, 60
1, 54433, Control_c, 0, 67, 34
1, 54442, Note_on_c, 0, 55, 53
1, 54448, Control_c, 0, 67, 33
1, 54484, Note_off_c, 0, 55, 63
1, 54530, Note_on_c, 0, 59, 56
1, 54564, Note_off_c, 0, 59, 63
1, 54606, Note_on_c, 0, 51, 51
1, 54608, Note_on_c, 0, 71, 52
1, 54658, Note_off_c, 0, 51, 63
1, 54684, Note_on_c, 0, 72, 57
1, 54685, Note_off_c, 0, 71, 61
1, 54699, Note_on_c, 0, 60, 55
1, 54702, Note_off_c, 0, 72, 64
1, 54737, Note_off_c, 0, 60, 62
1, 54751, Control_c, 0, 67, 33
1, 54773, Note_on_c, 0, 55, 49
1, 54795, Control_c, 0, 67, 32
1, 54818, Note_off_c, 0, 55, 62
1, 54825, Control_c, 0, 67, 32
1, 54840, Control_c, 0, 67, 31
1, 54848, Note_on_c, 0, 60, 58
1, 54881, Note_off_c, 0, 60, 63
1, 54919, Note_on_c, 0, 51, 55
1, 54958, Control_c, 0, 67, 31
1, 54960, Note_off_c, 0, 51, 60
1, 54973, Control_c, 0, 67, 30
1, 54988, Control_c, 0, 67, 30
1, 54993, Note_on_c, 0, 60, 49
1, 55032, Control_c, 0, 67, 29
1, 55033, Note_off_c, 0, 60, 62
1, 55047, Control_c, 0, 67, 29
1, 55060, Note_on_c, 0, 55, 55
1, 55062, Control_c, 0, 67, 28
1, 55076, Control_c, 0, 67, 27
1, 55091, Control_c, 0, 67, 26
1, 55106, Control_c, 0, 67, 25
1, 55107, Note_off_c, 0, 55, 63
1, 55121, Control_c, 0, 67, 24
1, 55136, Control_c, 0, 67, 22
1, 55139, Note_on_c, 0, 60, 67
1, 55152, Control_c, 0, 67, 18
1, 55166, Control_c, 0, 67, 12
1, 55179, Note_off_c, 0, 60, 61
1, 55181, Control_c, 0, 67, 0
1, 55222, Note_on_c, 0, 52, 58
1, 55256, Note_off_c, 0, 52, 65
1, 55294, Note_on_c, 0, 60, 61
1, 55326, Note_off_c, 0, 60, 64
1, 55357, Note_on_c, 0, 84, 72
1, 55369, Note_on_c, 0, 58, 61
1, 55387, Note_off_c, 0, 84, 71
1, 55411, Note_off_c, 0, 58, 61
1, 55459, Note_on_c, 0, 60, 53
1, 55500, Note_off_c, 0, 60, 61
1, 55544, Control_c, 0, 64, 30
1, 55545, Note_on_c, 0, 87, 77
1, 55546, Note_on_c, 0, 53, 57
1, 55559, Control_c, 0, 64, 65
1, 55573, Control_c, 0, 64, 77
1, 55588, Control_c, 0, 64, 96
1, 55589, Note_off_c, 0, 53, 61
1, 55603, Control_c, 0, 64, 127
1, 55620, Note_on_c, 0, 60, 57
1, 55664, Note_off_c, 0, 60, 57
1, 55694, Note_on_c, 0, 57, 54
1, 55733, Note_off_c, 0, 57, 60
1, 55773, Note_on_c, 0, 60, 68
1, 55802, Note_off_c, 0, 60, 61
1, 55852, Note_on_c, 0, 53, 58
1, 55903, Note_off_c, 0, 53, 64
1, 55926, Note_on_c, 0, 60, 63
1, 55967, Note_off_c, 0, 60, 59
1, 56008, Note_on_c, 0, 57, 55
1, 56025, Note_off_c, 0, 87, 59
1, 56039, Note_on_c, 0, 89, 73
1, 56048, Note_off_c, 0, 57, 61
1, 56079, Control_c, 0, 64, 127
1, 56080, Note_on_c, 0, 60, 69
1, 56094, Control_c, 0, 64, 126
1, 56109, Control_c, 0, 64, 125
1, 56121, Note_on_c, 0, 87, 84
1, 56121, Note_off_c, 0, 60, 62
1, 56130, Control_c, 0, 64, 123
1, 56136, Note_off_c, 0, 89, 61
1, 56145, Control_c, 0, 64, 122
1, 56160, Control_c, 0, 64, 121
1, 56168, Note_on_c, 0, 53, 55
1, 56175, Control_c, 0, 64, 121
1, 56190, Control_c, 0, 64, 120
1, 56199, Note_on_c, 0, 86, 78
1, 56213, Note_off_c, 0, 53, 63
1, 56216, Note_off_c, 0, 87, 62
1, 56219, Control_c, 0, 64, 120
1, 56238, Note_on_c, 0, 60, 69
1, 56264, Control_c, 0, 64, 119
1, 56286, Note_off_c, 0, 60, 59
1, 56317, Note_on_c, 0, 57, 61
1, 56323, Control_c, 0, 64, 119
1, 56335, Note_off_c, 0, 86, 63
1, 56341, Note_on_c, 0, 84, 73
1, 56353, Control_c, 0, 64, 118
1, 56380, Note_off_c, 0, 57, 60
1, 56401, Note_on_c, 0, 60, 67
1, 56412, Control_c, 0, 64, 118
1, 56448, Note_off_c, 0, 84, 59
1, 56451, Note_off_c, 0, 60, 56
1, 56456, Control_c, 0, 64, 117
1, 56471, Control_c, 0, 64, 116
1, 56486, Control_c, 0, 64, 113
1, 56489, Note_on_c, 0, 53, 64
1, 56494, Note_on_c, 0, 82, 80
1, 56501, Control_c, 0, 64, 107
1, 56515, Control_c, 0, 64, 97
1, 56530, Control_c, 0, 64, 87
1, 56545, Control_c, 0, 64, 75
1, 56559, Note_off_c, 0, 53, 55
1, 56560, Control_c, 0, 64, 56
1, 56574, Control_c, 0, 64, 0
1, 56579, Note_on_c, 0, 63, 58
1, 56615, Note_off_c, 0, 63, 59
1, 56645, Note_on_c, 0, 81, 85
1, 56649, Note_on_c, 0, 60, 62
1, 56672, Note_off_c, 0, 82, 62
1, 56704, Note_off_c, 0, 60, 54
1, 56715, Note_on_c, 0, 63, 69
1, 56763, Note_off_c, 0, 63, 62
1, 56789, Note_off_c, 0, 81, 57
1, 56795, Note_on_c, 0, 79, 87
1, 56801, Note_on_c, 0, 53, 63
1, 56872, Note_off_c, 0, 53, 56
1, 56878, Note_on_c, 0, 63, 67
1, 56906, Note_off_c, 0, 79, 49
1, 56929, Note_off_c, 0, 63, 60
1, 56954, Note_on_c, 0, 77, 83
1, 56964, Note_on_c, 0, 60, 60
1, 57017, Note_off_c, 0, 60, 54
1, 57045, Note_on_c, 0, 63, 64
1, 57086, Note_off_c, 0, 63, 59
1, 57106, Note_on_c, 0, 75, 78
1, 57116, Note_on_c, 0, 54, 57
1, 57119, Note_off_c, 0, 77, 52
1, 57173, Note_off_c, 0, 54, 56
1, 57191, Note_on_c, 0, 63, 70
1, 57234, Note_off_c, 0, 75, 63
1, 57240, Note_off_c, 0, 63, 61
1, 57251, Note_on_c, 0, 72, 73
1, 57265, Note_on_c, 0, 60, 59
1, 57322, Note_off_c, 0, 60, 56
1, 57347, Note_on_c, 0, 63, 68
1, 57381, Note_off_c, 0, 63, 64
1, 57401, Note_off_c, 0, 72, 55
1, 57419, Note_on_c, 0, 70, 76
1, 57423, Note_on_c, 0, 55, 61
1, 57465, Note_off_c, 0, 55, 61
1, 57505, Note_on_c, 0, 62, 62
1, 57543, Note_off_c, 0, 62, 61
1, 57566, Note_on_c, 0, 74, 73
1, 57571, Note_on_c, 0, 58, 60
1, 57578, Note_off_c, 0, 70, 53
1, 57608, Note_off_c, 0, 58, 66
1, 57647, Note_on_c, 0, 62, 69
1, 57687, Note_off_c, 0, 62, 64
1, 57688, Note_off_c, 0, 74, 61
1, 57727, Note_on_c, 0, 67, 71
1, 57729, Note_on_c, 0, 51, 64
1, 57806, Note_on_c, 0, 60, 69
1, 57810, Note_off_c, 0, 51, 58
1, 57829, Note_off_c, 0, 67, 54
1, 57854, Note_off_c, 0, 60, 59
1, 57857, Note_on_c, 0, 75, 66
1, 57878, Note_on_c, 0, 55, 59
1, 57955, Note_off_c, 0, 55, 64
1, 57963, Note_on_c, 0, 60, 63
1, 58008, Note_off_c, 0, 60, 61
1, 58028, Note_on_c, 0, 53, 56
1, 58033, Note_off_c, 0, 75, 55
1, 58039, Note_on_c, 0, 69, 66
1, 58074, Note_on_c, 0, 57, 52
1, 58087, Control_c, 0, 67, 12
1, 58102, Control_c, 0, 67, 21
1, 58105, Note_off_c, 0, 53, 58
1, 58117, Control_c, 0, 67, 32
1, 58132, Control_c, 0, 67, 43
1, 58146, Control_c, 0, 67, 51
1, 58149, Note_off_c, 0, 57, 60
1, 58152, Note_off_c, 0, 69, 62
1, 58159, Note_on_c, 0, 60, 51
1, 58161, Control_c, 0, 67, 56
1, 58171, Note_on_c, 0, 72, 60
1, 58176, Control_c, 0, 67, 58
1, 58191, Control_c, 0, 67, 59
1, 58193, Note_off_c, 0, 60, 64
1, 58206, Control_c, 0, 67, 61
1, 58220, Control_c, 0, 67, 62
1, 58235, Control_c, 0, 67, 64
1, 58246, Note_off_c, 0, 72, 55
1, 58250, Control_c, 0, 67, 64
1, 58260, Note_on_c, 0, 63, 56
1, 58265, Control_c, 0, 67, 65
1, 58294, Control_c, 0, 67, 64
1, 58324, Control_c, 0, 67, 64
1, 58336, Note_off_c, 0, 63, 57
1, 58340, Control_c, 0, 67, 63
1, 58355, Note_on_c, 0, 70, 56
1, 58355, Control_c, 0, 67, 63
1, 58357, Note_on_c, 0, 46, 38
1, 58370, Note_on_c, 0, 58, 43
1, 58377, Control_c, 0, 67, 62
1, 58422, Control_c, 0, 64, 13
1, 58422, Control_c, 0, 67, 62
1, 58425, Note_off_c, 0, 70, 60
1, 58437, Control_c, 0, 64, 63
1, 58451, Control_c, 0, 64, 73
1, 58451, Control_c, 0, 67, 61
1, 58466, Control_c, 0, 64, 87
1, 58466, Control_c, 0, 67, 61
1, 58467, Note_on_c, 0, 62, 62
1, 58481, Control_c, 0, 64, 107
1, 58481, Control_c, 0, 67, 60
1, 58496, Control_c, 0, 64, 118
1, 58496, Control_c, 0, 67, 60
1, 58511, Control_c, 0, 64, 119
1, 58511, Control_c, 0, 67, 59
1, 58525, Control_c, 0, 67, 58
1, 58540, Control_c, 0, 67, 57
1, 58550, Note_on_c, 0, 65, 66
1, 58555, Note_off_c, 0, 62, 55
1, 58555, Control_c, 0, 64, 118
1, 58555, Control_c, 0, 67, 56
1, 58558, Note_off_c, 0, 58, 63
1, 58570, Control_c, 0, 64, 117
1, 58570, Control_c, 0, 67, 55
1, 58585, Control_c, 0, 64, 116
1, 58586, Note_off_c, 0, 46, 45
1, 58599, Control_c, 0, 64, 115
1, 58599, Control_c, 0, 67, 54
1, 58614, Control_c, 0, 64, 114
1, 58614, Control_c, 0, 67, 53
1, 58615, Note_off_c, 0, 65, 62
1, 58619, Note_on_c, 0, 63, 66
1, 58629, Control_c, 0, 64, 112
1, 58629, Control_c, 0, 67, 51
1, 58643, Control_c, 0, 64, 109
1, 58643, Control_c, 0, 67, 47
1, 58658, Control_c, 0, 64, 105
1, 58658, Control_c, 0, 67, 40
1, 58673, Control_c, 0, 64, 101
1, 58673, Control_c, 0, 67, 35
1, 58679, Note_off_c, 0, 63, 63
1, 58688, Control_c, 0, 64, 98
1, 58688, Control_c, 0, 67, 30
1, 58690, Note_on_c, 0, 62, 71
1, 58703, Control_c, 0, 64, 94
1, 58703, Control_c, 0, 67, 25
1, 58717, Control_c, 0, 64, 89
1, 58717, Control_c, 0, 67, 19
1, 58732, Control_c, 0, 64, 84
1, 58732, Control_c, 0, 67, 13
1, 58747, Control_c, 0, 64, 77
1, 58747, Control_c, 0, 67, 0
1, 58754, Note_off_c, 0, 62, 61
1, 58758, Note_on_c, 0, 63, 60
1, 58762, Control_c, 0, 64, 68
1, 58776, Control_c, 0, 64, 30
1, 58791, Control_c, 0, 64, 0
1, 58817, Note_on_c, 0, 65, 68
1, 58821, Note_off_c, 0, 63, 65
1, 58871, Note_off_c, 0, 65, 64
1, 58890, Note_on_c, 0, 67, 75
1, 58970, Note_off_c, 0, 67, 56
1, 58979, Note_on_c, 0, 69, 70
1, 59041, Note_on_c, 0, 70, 67
1, 59047, Note_off_c, 0, 69, 63
1, 59131, Note_on_c, 0, 69, 69
1, 59149, Note_off_c, 0, 70, 60
1, 59191, Note_on_c, 0, 72, 71
1, 59195, Note_off_c, 0, 69, 63
1, 59253, Note_on_c, 0, 70, 75
1, 59271, Note_off_c, 0, 72, 62
1, 59315, Note_off_c, 0, 70, 63
1, 59319, Note_on_c, 0, 74, 69
1, 59379, Note_on_c, 0, 72, 79
1, 59413, Note_off_c, 0, 74, 66
1, 59435, Note_on_c, 0, 70, 74
1, 59463, Note_off_c, 0, 72, 64
1, 59503, Note_on_c, 0, 69, 74
1, 59516, Note_off_c, 0, 70, 60
1, 59561, Note_off_c, 0, 69, 65
1, 59569, Note_on_c, 0, 67, 74
1, 59645, Note_off_c, 0, 67, 52
1, 59656, Note_on_c, 0, 65, 69
1, 59715, Note_off_c, 0, 65, 63
1, 59728, Note_on_c, 0, 67, 63
1, 59803, Note_on_c, 0, 63, 60
1, 59805, Note_off_c, 0, 67, 58
1, 59885, Note_off_c, 0, 63, 59
1, 59902, Note_on_c, 0, 62, 57
1, 59985, Note_off_c, 0, 62, 56
1, 59988, Note_on_c, 0, 65, 55
1, 60050, Note_off_c, 0, 65, 61
1, 60054, Note_on_c, 0, 63, 56
1, 60117, Note_off_c, 0, 63, 63
1, 60132, Note_on_c, 0, 62, 56
1, 60201, Note_off_c, 0, 62, 58
1, 60210, Note_on_c, 0, 63, 60
1, 60268, Note_off_c, 0, 63, 64
1, 60279, Note_on_c, 0, 65, 66
1, 60317, Note_off_c, 0, 65, 64
1, 60361, Note_on_c, 0, 67, 67
1, 60434, Note_off_c, 0, 67, 56
1, 60438, Note_on_c, 0, 69, 70
1, 60499, Note_off_c, 0, 69, 63
1, 60508, Note_on_c, 0, 70, 68
1, 60579, Note_on_c, 0, 69, 74
1, 60582, Note_off_c, 0, 70, 61
1, 60629, Note_off_c, 0, 69, 66
1, 60658, Note_on_c, 0, 67, 70
1, 60717, Note_off_c, 0, 67, 63
1, 60721, Note_on_c, 0, 65, 72
1, 60777, Note_off_c, 0, 65, 61
1, 60802, Note_on_c, 0, 67, 78
1, 60845, Note_off_c, 0, 67, 55
1, 60870, Note_on_c, 0, 69, 80
1, 60941, Note_on_c, 0, 70, 78
1, 60959, Note_off_c, 0, 69, 60
1, 61012, Note_off_c, 0, 70, 66
1, 61018, Note_on_c, 0, 72, 75
1, 61084, Note_on_c, 0, 74, 76
1, 61085, Note_off_c, 0, 72, 66
1, 61149, Note_on_c, 0, 72, 78
1, 61185, Note_off_c, 0, 74, 63
1, 61224, Note_on_c, 0, 70, 82
1, 61246, Note_off_c, 0, 72, 62
1, 61298, Note_off_c, 0, 70, 63
1, 61302, Note_on_c, 0, 69, 85
1, 61378, Note_on_c, 0, 70, 79
1, 61391, Note_off_c, 0, 69, 61
1, 61430, Note_off_c, 0, 70, 60
1, 61440, Note_on_c, 0, 72, 78
1, 61513, Note_off_c, 0, 72, 59
1, 61520, Note_on_c, 0, 74, 77
1, 61601, Note_on_c, 0, 75, 72
1, 61605, Note_off_c, 0, 74, 60
1, 61672, Note_on_c, 0, 79, 70
1, 61678, Note_off_c, 0, 75, 62
1, 61745, Note_on_c, 0, 77, 74
1, 61775, Note_off_c, 0, 79, 61
1, 61835, Note_on_c, 0, 75, 73
1, 61856, Note_off_c, 0, 77, 59
1, 61917, Note_on_c, 0, 74, 67
1, 61929, Note_off_c, 0, 75, 57
1, 62021, Note_on_c, 0, 77, 69
1, 62043, Note_off_c, 0, 74, 58
1, 62135, Note_on_c, 0, 75, 69
1, 62159, Note_off_c, 0, 77, 54
1, 62207, Note_off_c, 0, 75, 65
1, 62213, Note_on_c, 0, 74, 75
1, 62286, Note_on_c, 0, 75, 74
1, 62307, Note_off_c, 0, 74, 63
1, 62345, Note_off_c, 0, 75, 66
1, 62362, Note_on_c, 0, 77, 84
1, 62441, Note_on_c, 0, 79, 83
1, 62442, Note_off_c, 0, 77, 57
1, 62527, Note_on_c, 0, 81, 73
1, 62560, Note_off_c, 0, 79, 63
1, 62615, Note_on_c, 0, 82, 87
1, 62618, Note_on_c, 0, 50, 47
1, 62625, Control_c, 0, 64, 56
1, 62627, Note_off_c, 0, 81, 60
1, 62640, Control_c, 0, 64, 72
1, 62655, Control_c, 0, 64, 90
1, 62670, Control_c, 0, 64, 116
1, 62684, Control_c, 0, 64, 127
1, 62698, Note_on_c, 0, 58, 56
1, 62699, Note_off_c, 0, 50, 62
1, 62699, Control_c, 0, 64, 122
1, 62714, Control_c, 0, 64, 112
1, 62729, Control_c, 0, 64, 101
1, 62744, Control_c, 0, 64, 90
1, 62750, Note_off_c, 0, 58, 60
1, 62759, Control_c, 0, 64, 77
1, 62774, Control_c, 0, 64, 63
1, 62781, Note_on_c, 0, 53, 48
1, 62789, Control_c, 0, 64, 0
1, 62837, Note_off_c, 0, 53, 63
1, 62841, Note_off_c, 0, 82, 61
1, 62874, Note_on_c, 0, 58, 44
1, 62899, Note_off_c, 0, 58, 58
1, 62935, Note_on_c, 0, 50, 56
1, 62977, Note_off_c, 0, 50, 62
1, 63006, Note_on_c, 0, 58, 47
1, 63033, Control_c, 0, 67, 10
1, 63048, Control_c, 0, 67, 12
1, 63057, Note_off_c, 0, 58, 60
1, 63063, Control_c, 0, 67, 15
1, 63078, Control_c, 0, 67, 18
1, 63092, Note_on_c, 0, 53, 52
1, 63092, Control_c, 0, 67, 20
1, 63100, Note_on_c, 0, 81, 74
1, 63107, Control_c, 0, 67, 23
1, 63122, Control_c, 0, 67, 26
1, 63138, Control_c, 0, 67, 31
1, 63141, Note_off_c, 0, 81, 57
1, 63143, Note_off_c, 0, 53, 62
1, 63151, Control_c, 0, 67, 41
1, 63156, Note_on_c, 0, 82, 75
1, 63166, Control_c, 0, 67, 52
1, 63169, Note_on_c, 0, 58, 64
1, 63180, Control_c, 0, 67, 61
1, 63182, Note_off_c, 0, 82, 64
1, 63195, Control_c, 0, 67, 65
1, 63204, Note_off_c, 0, 58, 65
1, 63239, Note_on_c, 0, 81, 85
1, 63254, Control_c, 0, 67, 64
1, 63260, Note_on_c, 0, 50, 55
1, 63269, Control_c, 0, 67, 62
1, 63284, Control_c, 0, 67, 62
1, 63286, Note_off_c, 0, 81, 59
1, 63297, Note_on_c, 0, 82, 72
1, 63297, Note_off_c, 0, 50, 64
1, 63299, Control_c, 0, 67, 61
1, 63313, Control_c, 0, 67, 60
1, 63328, Control_c, 0, 67, 60
1, 63336, Note_on_c, 0, 58, 51
1, 63343, Control_c, 0, 67, 59
1, 63345, Note_off_c, 0, 82, 62
1, 63358, Control_c, 0, 67, 58
1, 63373, Control_c, 0, 67, 58
1, 63376, Note_off_c, 0, 58, 64
1, 63382, Note_on_c, 0, 84, 74
1, 63412, Note_on_c, 0, 53, 52
1, 63432, Control_c, 0, 67, 57
1, 63455, Note_off_c, 0, 53, 63
1, 63462, Note_on_c, 0, 82, 74
1, 63465, Note_off_c, 0, 84, 63
1, 63491, Note_on_c, 0, 58, 50
1, 63501, Note_off_c, 0, 82, 63
1, 63522, Note_off_c, 0, 58, 64
1, 63536, Control_c, 0, 64, 45
1, 63550, Note_on_c, 0, 77, 73
1, 63551, Control_c, 0, 64, 63
1, 63565, Control_c, 0, 64, 65
1, 63567, Note_on_c, 0, 50, 57
1, 63580, Control_c, 0, 64, 64
1, 63595, Control_c, 0, 64, 58
1, 63608, Note_off_c, 0, 50, 64
1, 63617, Control_c, 0, 64, 29
1, 63617, Control_c, 0, 67, 56
1, 63632, Control_c, 0, 64, 0
1, 63646, Note_on_c, 0, 58, 45
1, 63688, Note_off_c, 0, 58, 64
1, 63721, Note_on_c, 0, 53, 52
1, 63736, Control_c, 0, 67, 56
1, 63751, Control_c, 0, 67, 55
1, 63764, Note_off_c, 0, 53, 63
1, 63780, Control_c, 0, 67, 54
1, 63794, Note_on_c, 0, 58, 59
1, 63810, Control_c, 0, 67, 54
1, 63826, Note_off_c, 0, 58, 66
1, 63854, Note_off_c, 0, 77, 52
1, 63873, Note_on_c, 0, 50, 57
1, 63899, Control_c, 0, 67, 53
1, 63906, Note_off_c, 0, 50, 64
1, 63950, Note_on_c, 0, 58, 44
1, 63979, Note_off_c, 0, 58, 58
1, 64018, Control_c, 0, 67, 53
1, 64021, Note_on_c, 0, 53, 55
1, 64032, Note_on_c, 0, 76, 70
1, 64033, Control_c, 0, 67, 52
1, 64048, Control_c, 0, 67, 52
1, 64062, Control_c, 0, 67, 49
1, 64067, Note_off_c, 0, 53, 62
1, 64077, Control_c, 0, 67, 45
1, 64089, Note_off_c, 0, 76, 64
1, 64092, Control_c, 0, 67, 42
1, 64095, Note_on_c, 0, 77, 71
1, 64097, Note_on_c, 0, 58, 48
1, 64107, Control_c, 0, 67, 39
1, 64121, Note_off_c, 0, 77, 67
1, 64122, Control_c, 0, 67, 38
1, 64130, Note_off_c, 0, 58, 65
1, 64136, Control_c, 0, 67, 39
1, 64166, Control_c, 0, 67, 38
1, 64172, Note_on_c, 0, 50, 59
1, 64172, Note_on_c, 0, 79, 85
1, 64196, Control_c, 0, 67, 37
1, 64205, Note_off_c, 0, 50, 64
1, 64240, Note_on_c, 0, 58, 52
1, 64243, Note_on_c, 0, 77, 78
1, 64247, Note_off_c, 0, 79, 64
1, 64255, Control_c, 0, 67, 37
1, 64270, Control_c, 0, 67, 37
1, 64280, Note_off_c, 0, 58, 64
1, 64285, Control_c, 0, 67, 36
1, 64300, Note_off_c, 0, 77, 60
1, 64318, Note_on_c, 0, 53, 49
1, 64325, Note_on_c, 0, 75, 65
1, 64344, Control_c, 0, 67, 37
1, 64358, Note_off_c, 0, 53, 65
1, 64369, Note_off_c, 0, 75, 66
1, 64398, Note_on_c, 0, 58, 51
1, 64401, Note_on_c, 0, 74, 67
1, 64410, Control_c, 0, 67, 36
1, 64423, Note_off_c, 0, 74, 72
1, 64426, Note_off_c, 0, 58, 64
1, 64455, Control_c, 0, 67, 37
1, 64473, Note_on_c, 0, 78, 93
1, 64476, Note_on_c, 0, 51, 60
1, 64485, Control_c, 0, 67, 37
1, 64500, Control_c, 0, 67, 38
1, 64514, Control_c, 0, 67, 37
1, 64516, Note_off_c, 0, 51, 63
1, 64542, Note_off_c, 0, 78, 64
1, 64544, Control_c, 0, 67, 37
1, 64551, Note_on_c, 0, 79, 74
1, 64556, Note_on_c, 0, 58, 51
1, 64592, Note_off_c, 0, 58, 66
1, 64603, Control_c, 0, 67, 37
1, 64613, Note_on_c, 0, 55, 50
1, 64618, Control_c, 0, 67, 38
1, 64619, Note_off_c, 0, 79, 61
1, 64621, Note_on_c, 0, 78, 85
1, 64667, Note_off_c, 0, 55, 62
1, 64688, Note_off_c, 0, 78, 62
1, 64697, Note_on_c, 0, 58, 54
1, 64699, Note_on_c, 0, 79, 69
1, 64706, Control_c, 0, 67, 37
1, 64721, Control_c, 0, 67, 38
1, 64736, Note_off_c, 0, 58, 65
1, 64752, Control_c, 0, 67, 39
1, 64765, Note_on_c, 0, 78, 89
1, 64773, Note_off_c, 0, 79, 61
1, 64777, Note_on_c, 0, 51, 59
1, 64782, Control_c, 0, 67, 39
1, 64797, Control_c, 0, 67, 40
1, 64811, Control_c, 0, 67, 41
1, 64818, Note_off_c, 0, 51, 63
1, 64834, Note_off_c, 0, 78, 61
1, 64846, Note_on_c, 0, 79, 78
1, 64858, Note_on_c, 0, 58, 48
1, 64871, Control_c, 0, 67, 42
1, 64884, Note_off_c, 0, 58, 60
1, 64885, Control_c, 0, 67, 42
1, 64900, Control_c, 0, 67, 44
1, 64915, Note_on_c, 0, 55, 55
1, 64915, Control_c, 0, 67, 45
1, 64917, Note_off_c, 0, 79, 61
1, 64927, Note_on_c, 0, 78, 81
1, 64930, Control_c, 0, 67, 46
1, 64945, Control_c, 0, 67, 48
1, 64959, Control_c, 0, 67, 49
1, 64969, Note_off_c, 0, 55, 60
1, 64974, Control_c, 0, 67, 51
1, 64983, Note_off_c, 0, 78, 63
1, 64986, Note_on_c, 0, 79, 55
1, 64989, Control_c, 0, 67, 55
1, 64997, Note_on_c, 0, 58, 51
1, 65004, Control_c, 0, 67, 62
1, 65010, Note_off_c, 0, 79, 62
1, 65019, Control_c, 0, 67, 70
1, 65033, Note_off_c, 0, 58, 64
1, 65033, Control_c, 0, 64, 36
1, 65033, Control_c, 0, 67, 82
1, 65048, Control_c, 0, 64, 37
1, 65048, Control_c, 0, 67, 94
1, 65063, Control_c, 0, 64, 18
1, 65063, Control_c, 0, 67, 103
1, 65070, Note_on_c, 0, 74, 82
1, 65078, Control_c, 0, 64, 0
1, 65078, Control_c, 0, 67, 109
1, 65079, Note_on_c, 0, 51, 52
1, 65093, Control_c, 0, 67, 109
1, 65115, Control_c, 0, 67, 109
1, 65126, Note_off_c, 0, 51, 61
1, 65133, Note_off_c, 0, 74, 62
1, 65146, Note_on_c, 0, 75, 77
1, 65162, Note_on_c, 0, 59, 53
1, 65189, Control_c, 0, 67, 108
1, 65190, Note_off_c, 0, 59, 60
1, 65203, Note_off_c, 0, 75, 63
1, 65203, Control_c, 0, 67, 107
1, 65218, Control_c, 0, 67, 106
1, 65224, Note_on_c, 0, 55, 50
1, 65227, Note_on_c, 0, 74, 70
1, 65233, Control_c, 0, 67, 105
1, 65248, Control_c, 0, 67, 104
1, 65263, Control_c, 0, 67, 103
1, 65268, Note_off_c, 0, 55, 62
1, 65273, Note_off_c, 0, 74, 62
1, 65278, Control_c, 0, 67, 103
1, 65292, Note_on_c, 0, 75, 61
1, 65298, Note_on_c, 0, 59, 59
1, 65323, Note_off_c, 0, 75, 67
1, 65337, Note_off_c, 0, 59, 64
1, 65352, Control_c, 0, 67, 102
1, 65367, Control_c, 0, 67, 101
1, 65382, Note_on_c, 0, 71, 71
1, 65389, Note_on_c, 0, 51, 51
1, 65411, Note_off_c, 0, 71, 61
1, 65427, Note_off_c, 0, 51, 62
1, 65456, Note_on_c, 0, 72, 63
1, 65472, Control_c, 0, 67, 101
1, 65472, Note_on_c, 0, 60, 44
1, 65486, Note_off_c, 0, 72, 66
1, 65503, Note_off_c, 0, 60, 55
1, 65516, Control_c, 0, 67, 100
1, 65529, Note_on_c, 0, 71, 62
1, 65531, Control_c, 0, 67, 100
1, 65544, Note_on_c, 0, 55, 45
1, 65585, Note_off_c, 0, 71, 58
1, 65588, Note_off_c, 0, 55, 59
1, 65602, Note_on_c, 0, 72, 63
1, 65615, Note_on_c, 0, 60, 56
1, 65621, Note_off_c, 0, 72, 68
1, 65621, Control_c, 0, 67, 99
1, 65635, Control_c, 0, 67, 99
1, 65649, Note_off_c, 0, 60, 63
1, 65650, Control_c, 0, 67, 98
1, 65680, Control_c, 0, 67, 97
1, 65692, Note_on_c, 0, 51, 53
1, 65728, Note_off_c, 0, 51, 62
1, 65739, Control_c, 0, 67, 96
1, 65753, Control_c, 0, 67, 93
1, 65762, Note_on_c, 0, 60, 48
1, 65768, Control_c, 0, 67, 88
1, 65783, Control_c, 0, 67, 83
1, 65798, Note_off_c, 0, 60, 62
1, 65798, Control_c, 0, 67, 80
1, 65813, Control_c, 0, 67, 76
1, 65827, Control_c, 0, 67, 71
1, 65832, Note_on_c, 0, 55, 53
1, 65842, Control_c, 0, 67, 63
1, 65865, Control_c, 0, 67, 56
1, 65877, Note_off_c, 0, 55, 65
1, 65880, Control_c, 0, 67, 48
1, 65895, Control_c, 0, 67, 40
1, 65908, Note_on_c, 0, 60, 64
1, 65909, Control_c, 0, 67, 30
1, 65924, Control_c, 0, 67, 19
1, 65939, Control_c, 0, 67, 9
1, 65948, Note_off_c, 0, 60, 60
1, 65953, Control_c, 0, 67, 0
1, 65999, Note_on_c, 0, 52, 55
1, 66032, Note_off_c, 0, 52, 66
1, 66073, Note_on_c, 0, 60, 45
1, 66098, Note_off_c, 0, 60, 55
1, 66130, Note_on_c, 0, 58, 48
1, 66147, Note_on_c, 0, 84, 60
1, 66164, Note_off_c, 0, 84, 66
1, 66174, Note_off_c, 0, 58, 64
1, 66202, Note_on_c, 0, 60, 57
1, 66251, Note_off_c, 0, 60, 57
1, 66303, Note_on_c, 0, 53, 53
1, 66306, Note_on_c, 0, 87, 78
1, 66324, Control_c, 0, 64, 49
1, 66339, Control_c, 0, 64, 69
1, 66348, Note_off_c, 0, 53, 62
1, 66354, Control_c, 0, 64, 84
1, 66369, Control_c, 0, 64, 108
1, 66376, Note_on_c, 0, 60, 60
1, 66384, Control_c, 0, 64, 127
1, 66425, Note_off_c, 0, 60, 52
1, 66461, Note_on_c, 0, 57, 50
1, 66512, Note_off_c, 0, 57, 58
1, 66545, Note_on_c, 0, 60, 63
1, 66575, Note_off_c, 0, 60, 62
1, 66613, Control_c, 0, 64, 123
1, 66628, Note_on_c, 0, 53, 56
1, 66628, Control_c, 0, 64, 115
1, 66643, Control_c, 0, 64, 109
1, 66658, Control_c, 0, 64, 101
1, 66670, Note_off_c, 0, 53, 63
1, 66673, Control_c, 0, 64, 93
1, 66688, Control_c, 0, 64, 84
1, 66702, Note_on_c, 0, 60, 56
1, 66703, Control_c, 0, 64, 72
1, 66718, Control_c, 0, 64, 62
1, 66732, Control_c, 0, 64, 0
1, 66738, Note_off_c, 0, 60, 56
1, 66769, Note_on_c, 0, 57, 56
1, 66774, Note_off_c, 0, 87, 46
1, 66801, Note_on_c, 0, 86, 69
1, 66819, Note_off_c, 0, 57, 54
1, 66852, Note_on_c, 0, 60, 58
1, 66870, Note_on_c, 0, 87, 79
1, 66891, Note_off_c, 0, 60, 59
1, 66901, Note_off_c, 0, 86, 61
1, 66933, Note_on_c, 0, 53, 55
1, 66937, Note_on_c, 0, 89, 80
1, 66938, Note_off_c, 0, 87, 62
1, 66986, Note_off_c, 0, 53, 61
1, 67005, Note_on_c, 0, 87, 76
1, 67010, Note_on_c, 0, 60, 59
1, 67028, Note_off_c, 0, 89, 63
1, 67046, Note_off_c, 0, 60, 64
1, 67074, Note_on_c, 0, 57, 59
1, 67081, Note_on_c, 0, 86, 79
1, 67091, Note_off_c, 0, 87, 63
1, 67126, Note_off_c, 0, 57, 58
1, 67153, Note_off_c, 0, 86, 62
1, 67157, Note_on_c, 0, 60, 59
1, 67157, Note_on_c, 0, 84, 77
1, 67195, Note_off_c, 0, 60, 62
1, 67232, Note_on_c, 0, 82, 85
1, 67242, Note_on_c, 0, 53, 50
1, 67249, Note_off_c, 0, 84, 53
1, 67291, Note_off_c, 0, 53, 62
1, 67308, Note_on_c, 0, 81, 81
1, 67320, Note_on_c, 0, 63, 58
1, 67331, Note_off_c, 0, 82, 60
1, 67364, Note_off_c, 0, 63, 64
1, 67391, Note_off_c, 0, 81, 59
1, 67391, Note_on_c, 0, 86, 81
1, 67403, Note_on_c, 0, 60, 61
1, 67451, Note_off_c, 0, 60, 55
1, 67460, Note_on_c, 0, 84, 78
1, 67466, Note_on_c, 0, 63, 68
1, 67495, Note_off_c, 0, 86, 62
1, 67503, Note_off_c, 0, 63, 64
1, 67543, Note_on_c, 0, 53, 60
1, 67546, Note_on_c, 0, 82, 84
1, 67571, Note_off_c, 0, 84, 62
1, 67594, Note_off_c, 0, 53, 55
1, 67607, Note_on_c, 0, 63, 72
1, 67619, Note_on_c, 0, 81, 82
1, 67633, Note_off_c, 0, 82, 62
1, 67657, Note_off_c, 0, 63, 57
1, 67689, Note_off_c, 0, 81, 62
1, 67697, Note_on_c, 0, 60, 59
1, 67697, Note_on_c, 0, 79, 81
1, 67737, Note_off_c, 0, 79, 63
1, 67742, Note_off_c, 0, 60, 59
1, 67770, Note_on_c, 0, 63, 64
1, 67776, Note_on_c, 0, 77, 77
1, 67818, Note_off_c, 0, 63, 59
1, 67835, Note_on_c, 0, 75, 74
1, 67840, Note_on_c, 0, 54, 54
1, 67854, Note_off_c, 0, 77, 60
1, 67888, Note_off_c, 0, 54, 61
1, 67906, Note_off_c, 0, 75, 65
1, 67917, Note_on_c, 0, 74, 67
1, 67922, Note_on_c, 0, 63, 61
1, 67958, Note_off_c, 0, 63, 65
1, 67976, Note_off_c, 0, 74, 56
1, 67986, Note_on_c, 0, 75, 67
1, 68000, Note_on_c, 0, 60, 51
1, 68047, Note_off_c, 0, 75, 64
1, 68065, Note_on_c, 0, 72, 64
1, 68073, Note_on_c, 0, 63, 51
1, 68078, Note_off_c, 0, 60, 47
1, 68119, Note_off_c, 0, 63, 65
1, 68157, Note_on_c, 0, 55, 53
1, 68205, Note_off_c, 0, 55, 56
1, 68216, Note_off_c, 0, 72, 59
1, 68255, Note_on_c, 0, 62, 43
1, 68257, Note_on_c, 0, 70, 70
1, 68287, Note_off_c, 0, 62, 51
1, 68297, Note_on_c, 0, 58, 60
1, 68325, Note_on_c, 0, 74, 77
1, 68330, Note_off_c, 0, 70, 61
1, 68339, Note_off_c, 0, 58, 64
1, 68372, Note_on_c, 0, 62, 65
1, 68411, Note_off_c, 0, 62, 64
1, 68455, Note_on_c, 0, 51, 65
1, 68497, Note_off_c, 0, 74, 60
1, 68538, Note_off_c, 0, 51, 58
1, 68539, Note_on_c, 0, 67, 80
1, 68542, Note_on_c, 0, 60, 68
1, 68593, Note_on_c, 0, 75, 78
1, 68596, Note_on_c, 0, 55, 63
1, 68596, Note_off_c, 0, 60, 58
1, 68602, Note_off_c, 0, 67, 56
1, 68675, Note_on_c, 0, 60, 58
1, 68676, Note_off_c, 0, 55, 63
1, 68720, Note_off_c, 0, 60, 62
1, 68745, Note_on_c, 0, 53, 57
1, 68768, Note_off_c, 0, 75, 52
1, 68802, Note_on_c, 0, 57, 49
1, 68806, Note_on_c, 0, 69, 61
1, 68809, Note_off_c, 0, 53, 62
1, 68867, Note_off_c, 0, 57, 61
1, 68873, Note_on_c, 0, 60, 51
1, 68891, Note_off_c, 0, 69, 63
1, 68898, Note_on_c, 0, 72, 63
1, 68906, Note_off_c, 0, 60, 64
1, 68920, Control_c, 0, 67, 10
1, 68934, Control_c, 0, 67, 17
1, 68949, Control_c, 0, 67, 25
1, 68959, Note_on_c, 0, 63, 61
1, 68964, Control_c, 0, 67, 36
1, 68965, Note_off_c, 0, 72, 52
1, 68978, Control_c, 0, 67, 55
1, 68993, Control_c, 0, 67, 70
1, 69008, Control_c, 0, 67, 82
1, 69023, Control_c, 0, 67, 86
1, 69033, Note_on_c, 0, 46, 61
1, 69038, Control_c, 0, 67, 86
1, 69040, Note_off_c, 0, 63, 47
1, 69050, Note_on_c, 0, 70, 68
1, 69082, Control_c, 0, 67, 86
1, 69087, Note_off_c, 0, 70, 62
1, 69097, Control_c, 0, 64, 40
1, 69097, Control_c, 0, 67, 84
1, 69112, Control_c, 0, 64, 65
1, 69112, Control_c, 0, 67, 83
1, 69120, Note_on_c, 0, 50, 55
1, 69126, Control_c, 0, 64, 73
1, 69126, Control_c, 0, 67, 81
1, 69141, Control_c, 0, 64, 82
1, 69141, Control_c, 0, 67, 80
1, 69156, Control_c, 0, 64, 88
1, 69171, Control_c, 0, 64, 89
1, 69171, Control_c, 0, 67, 80
1, 69180, Note_on_c, 0, 51, 65
1, 69186, Control_c, 0, 67, 79
1, 69201, Control_c, 0, 67, 77
1, 69216, Control_c, 0, 67, 75
1, 69219, Note_off_c, 0, 50, 60
1, 69231, Control_c, 0, 67, 73
1, 69245, Control_c, 0, 64, 88
1, 69245, Control_c, 0, 67, 69
1, 69260, Control_c, 0, 64, 86
1, 69260, Control_c, 0, 67, 62
1, 69265, Note_on_c, 0, 53, 72
1, 69275, Control_c, 0, 64, 82
1, 69275, Control_c, 0, 67, 50
1, 69287, Note_off_c, 0, 51, 62
1, 69290, Control_c, 0, 64, 75
1, 69290, Control_c, 0, 67, 34
1, 69304, Control_c, 0, 64, 65
1, 69304, Control_c, 0, 67, 15
1, 69319, Control_c, 0, 64, 0
1, 69319, Control_c, 0, 67, 0
1, 69323, Note_off_c, 0, 53, 65
1, 69325, Note_on_c, 0, 55, 75
1, 69348, Note_off_c, 0, 46, 52
1, 69392, Note_on_c, 0, 57, 79
1, 69401, Note_off_c, 0, 55, 57
1, 69463, Note_on_c, 0, 58, 84
1, 69487, Note_off_c, 0, 57, 62
1, 69517, Note_off_c, 0, 58, 66
1, 69543, Note_on_c, 0, 60, 85
1, 69615, Note_off_c, 0, 60, 52
1, 69620, Note_on_c, 0, 62, 88
1, 69696, Note_on_c, 0, 63, 83
1, 69710, Note_off_c, 0, 62, 60
1, 69758, Note_on_c, 0, 65, 74
1, 69758, Note_off_c, 0, 63, 67
1, 69827, Note_off_c, 0, 65, 65
1, 69840, Note_on_c, 0, 67, 71
1, 69901, Note_on_c, 0, 65, 81
1, 69937, Note_off_c, 0, 67, 55
1, 70077, Note_on_c, 0, 45, 68
1, 70077, Note_on_c, 0, 53, 76
1, 70077, Note_on_c, 0, 48, 73
1, 70103, Note_off_c, 0, 53, 69
1, 70104, Note_off_c, 0, 45, 66
1, 70110, Note_off_c, 0, 48, 65
1, 70137, Note_off_c, 0, 65, 62
1, 70211, Note_on_c, 0, 53, 76
1, 70220, Note_on_c, 0, 45, 58
1, 70220, Note_on_c, 0, 48, 65
1, 70251, Note_off_c, 0, 53, 68
1, 70253, Note_off_c, 0, 45, 65
1, 70263, Note_off_c, 0, 48, 67
1, 70368, Note_on_c, 0, 53, 73
1, 70369, Note_on_c, 0, 45, 59
1, 70376, Note_on_c, 0, 48, 60
1, 70402, Note_off_c, 0, 53, 63
1, 70411, Note_off_c, 0, 45, 64
1, 70411, Note_off_c, 0, 48, 62
1, 70447, Control_c, 0, 64, 61
1, 70462, Control_c, 0, 64, 68
1, 70477, Control_c, 0, 64, 73
1, 70491, Control_c, 0, 64, 75
1, 70503, Note_on_c, 0, 63, 95
1, 70506, Control_c, 0, 64, 75
1, 70521, Control_c, 0, 64, 71
1, 70524, Note_on_c, 0, 53, 76
1, 70536, Control_c, 0, 64, 62
1, 70549, Note_on_c, 0, 48, 43
1, 70550, Control_c, 0, 64, 0
1, 70556, Note_on_c, 0, 45, 32
1, 70557, Note_off_c, 0, 53, 65
1, 70577, Note_off_c, 0, 48, 58
1, 70585, Note_off_c, 0, 63, 64
1, 70588, Note_on_c, 0, 65, 79
1, 70591, Note_off_c, 0, 45, 48
1, 70653, Note_on_c, 0, 63, 79
1, 70656, Note_on_c, 0, 53, 55
1, 70661, Note_off_c, 0, 65, 64
1, 70666, Note_on_c, 0, 45, 38
1, 70680, Note_off_c, 0, 53, 64
1, 70697, Note_off_c, 0, 45, 49
1, 70712, Note_on_c, 0, 62, 72
1, 70720, Note_off_c, 0, 63, 56
1, 70745, Note_on_c, 0, 63, 60
1, 70751, Note_off_c, 0, 62, 63
1, 70807, Note_on_c, 0, 62, 82
1, 70813, Note_on_c, 0, 58, 67
1, 70828, Note_off_c, 0, 63, 65
1, 70832, Note_off_c, 0, 62, 67
1, 70885, Note_off_c, 0, 58, 62
1, 70905, Note_on_c, 0, 62, 64
1, 70971, Note_on_c, 0, 63, 67
1, 70993, Note_off_c, 0, 62, 53
1, 71045, Note_on_c, 0, 65, 75
1, 71055, Note_off_c, 0, 63, 65
1, 71102, Note_off_c, 0, 65, 65
1, 71119, Note_on_c, 0, 67, 78
1, 71189, Note_on_c, 0, 69, 78
1, 71195, Note_off_c, 0, 67, 58
1, 71255, Note_on_c, 0, 70, 83
1, 71276, Note_off_c, 0, 69, 65
1, 71307, Note_off_c, 0, 70, 64
1, 71340, Note_on_c, 0, 72, 79
1, 71409, Note_off_c, 0, 72, 62
1, 71412, Note_on_c, 0, 74, 79
1, 71481, Note_on_c, 0, 75, 82
1, 71486, Note_off_c, 0, 74, 66
1, 71536, Control_c, 0, 67, 8
1, 71551, Control_c, 0, 67, 10
1, 71553, Note_off_c, 0, 75, 66
1, 71558, Note_on_c, 0, 77, 70
1, 71565, Control_c, 0, 67, 15
1, 71580, Control_c, 0, 67, 21
1, 71595, Control_c, 0, 67, 27
1, 71610, Control_c, 0, 67, 31
1, 71618, Note_off_c, 0, 77, 62
1, 71624, Note_on_c, 0, 79, 71
1, 71625, Control_c, 0, 67, 32
1, 71639, Control_c, 0, 67, 35
1, 71654, Control_c, 0, 67, 43
1, 71669, Control_c, 0, 67, 52
1, 71684, Control_c, 0, 67, 61
1, 71699, Control_c, 0, 67, 65
1, 71702, Note_off_c, 0, 79, 60
1, 71708, Note_on_c, 0, 77, 67
1, 71714, Control_c, 0, 67, 66
1, 71743, Control_c, 0, 67, 67
1, 71788, Control_c, 0, 67, 66
1, 71803, Control_c, 0, 67, 66
1, 71818, Control_c, 0, 67, 65
1, 71854, Control_c, 0, 67, 64
1, 71869, Control_c, 0, 67, 63
1, 71884, Control_c, 0, 67, 61
1, 71886, Note_on_c, 0, 57, 55
1, 71896, Note_on_c, 0, 60, 57
1, 71898, Control_c, 0, 67, 60
1, 71904, Note_on_c, 0, 65, 44
1, 71906, Note_off_c, 0, 77, 63
1, 71913, Control_c, 0, 67, 59
1, 71919, Note_off_c, 0, 57, 64
1, 71930, Note_off_c, 0, 65, 55
1, 71932, Note_off_c, 0, 60, 64
1, 71945, Control_c, 0, 67, 58
1, 71974, Control_c, 0, 67, 57
1, 72003, Control_c, 0, 67, 57
1, 72032, Note_on_c, 0, 65, 63
1, 72033, Control_c, 0, 67, 56
1, 72038, Note_on_c, 0, 57, 52
1, 72039, Note_on_c, 0, 60, 54
1, 72048, Control_c, 0, 67, 56
1, 72063, Note_off_c, 0, 65, 66
1, 72068, Note_off_c, 0, 57, 63
1, 72072, Note_off_c, 0, 60, 62
1, 72122, Control_c, 0, 67, 55
1, 72180, Note_on_c, 0, 60, 57
1, 72186, Note_on_c, 0, 57, 48
1, 72189, Note_on_c, 0, 65, 54
1, 72209, Note_off_c, 0, 57, 61
1, 72209, Note_off_c, 0, 65, 63
1, 72215, Note_off_c, 0, 60, 63
1, 72301, Control_c, 0, 67, 55
1, 72334, Note_on_c, 0, 65, 51
1, 72336, Note_on_c, 0, 60, 55
1, 72337, Note_on_c, 0, 75, 79
1, 72341, Note_on_c, 0, 57, 41
1, 72365, Note_off_c, 0, 65, 66
1, 72368, Note_off_c, 0, 57, 55
1, 72372, Note_off_c, 0, 60, 64
1, 72390, Note_off_c, 0, 75, 61
1, 72399, Note_on_c, 0, 77, 71
1, 72434, Control_c, 0, 67, 55
1, 72449, Note_on_c, 0, 75, 66
1, 72459, Note_on_c, 0, 57, 50
1, 72462, Note_off_c, 0, 77, 61
1, 72463, Control_c, 0, 67, 56
1, 72469, Note_on_c, 0, 65, 48
1, 72473, Note_on_c, 0, 60, 43
1, 72483, Note_off_c, 0, 57, 60
1, 72492, Note_off_c, 0, 65, 59
1, 72493, Control_c, 0, 67, 56
1, 72498, Note_off_c, 0, 60, 56
1, 72509, Note_off_c, 0, 75, 65
1, 72517, Note_on_c, 0, 74, 65
1, 72551, Note_off_c, 0, 74, 62
1, 72556, Note_on_c, 0, 75, 57
1, 72567, Control_c, 0, 67, 56
1, 72604, Control_c, 0, 67, 55
1, 72640, Note_on_c, 0, 74, 70
1, 72654, Note_off_c, 0, 75, 62
1, 72705, Note_off_c, 0, 74, 65
1, 72797, Note_on_c, 0, 58, 52
1, 72799, Note_on_c, 0, 62, 53
1, 72824, Note_off_c, 0, 62, 61
1, 72831, Note_off_c, 0, 58, 65
1, 72872, Control_c, 0, 67, 55
1, 72901, Control_c, 0, 67, 54
1, 72947, Note_on_c, 0, 72, 78
1, 72975, Control_c, 0, 67, 54
1, 72989, Note_off_c, 0, 72, 59
1, 73014, Note_on_c, 0, 74, 65
1, 73062, Note_on_c, 0, 72, 68
1, 73086, Note_off_c, 0, 74, 65
1, 73091, Note_on_c, 0, 54, 54
1, 73094, Control_c, 0, 67, 54
1, 73096, Note_on_c, 0, 62, 52
1, 73118, Note_on_c, 0, 57, 21
1, 73118, Note_off_c, 0, 72, 65
1, 73120, Note_off_c, 0, 62, 59
1, 73122, Note_on_c, 0, 71, 67
1, 73123, Note_off_c, 0, 54, 63
1, 73156, Note_off_c, 0, 57, 30
1, 73168, Control_c, 0, 67, 54
1, 73177, Note_off_c, 0, 71, 59
1, 73186, Note_on_c, 0, 72, 68
1, 73212, Control_c, 0, 67, 53
1, 73227, Control_c, 0, 67, 53
1, 73242, Note_on_c, 0, 70, 74
1, 73242, Control_c, 0, 67, 52
1, 73257, Control_c, 0, 67, 51
1, 73269, Note_off_c, 0, 72, 63
1, 73272, Control_c, 0, 67, 46
1, 73286, Control_c, 0, 67, 36
1, 73301, Note_off_c, 0, 70, 62
1, 73301, Control_c, 0, 67, 24
1, 73316, Control_c, 0, 67, 9
1, 73331, Control_c, 0, 67, 0
1, 73395, Note_on_c, 0, 55, 54
1, 73395, Note_on_c, 0, 62, 58
1, 73405, Note_on_c, 0, 58, 54
1, 73425, Note_off_c, 0, 55, 65
1, 73427, Note_off_c, 0, 62, 64
1, 73435, Note_off_c, 0, 58, 64
1, 73551, Note_on_c, 0, 68, 75
1, 73592, Note_off_c, 0, 68, 60
1, 73618, Note_on_c, 0, 70, 67
1, 73675, Note_on_c, 0, 68, 71
1, 73681, Note_off_c, 0, 70, 64
1, 73687, Note_on_c, 0, 58, 56
1, 73688, Note_on_c, 0, 50, 46
1, 73697, Note_on_c, 0, 53, 39
1, 73714, Note_off_c, 0, 50, 56
1, 73715, Note_off_c, 0, 58, 63
1, 73725, Note_off_c, 0, 53, 56
1, 73726, Note_on_c, 0, 67, 64
1, 73755, Note_off_c, 0, 67, 64
1, 73784, Note_off_c, 0, 68, 0
1, 73784, Note_on_c, 0, 68, 9
1, 73830, Note_on_c, 0, 67, 78
1, 73861, Note_off_c, 0, 68, 61
1, 73896, Note_off_c, 0, 67, 60
1, 73983, Note_on_c, 0, 58, 60
1, 73988, Note_on_c, 0, 51, 53
1, 73991, Note_on_c, 0, 55, 53
1, 74013, Note_off_c, 0, 58, 66
1, 74019, Note_off_c, 0, 55, 66
1, 74021, Note_off_c, 0, 51, 64
1, 74135, Note_on_c, 0, 65, 67
1, 74172, Note_off_c, 0, 65, 61
1, 74204, Note_on_c, 0, 67, 54
1, 74246, Note_on_c, 0, 65, 62
1, 74260, Note_off_c, 0, 67, 62
1, 74266, Note_on_c, 0, 55, 62
1, 74271, Note_on_c, 0, 47, 57
1, 74291, Note_on_c, 0, 64, 70
1, 74302, Note_off_c, 0, 47, 64
1, 74303, Note_off_c, 0, 65, 64
1, 74305, Note_off_c, 0, 55, 64
1, 74338, Note_off_c, 0, 64, 63
1, 74356, Note_on_c, 0, 65, 61
1, 74415, Note_on_c, 0, 64, 70
1, 74451, Note_off_c, 0, 65, 64
1, 74483, Note_off_c, 0, 64, 64
1, 74558, Note_on_c, 0, 55, 72
1, 74565, Note_on_c, 0, 48, 64
1, 74574, Note_on_c, 0, 52, 62
1, 74616, Note_off_c, 0, 55, 61
1, 74623, Note_off_c, 0, 52, 66
1, 74623, Note_off_c, 0, 48, 63
1, 74703, Note_on_c, 0, 63, 93
1, 74709, Control_c, 0, 64, 46
1, 74724, Control_c, 0, 64, 56
1, 74754, Control_c, 0, 64, 50
1, 74769, Control_c, 0, 64, 21
1, 74777, Note_off_c, 0, 63, 66
1, 74780, Note_on_c, 0, 65, 79
1, 74784, Control_c, 0, 64, 0
1, 74843, Note_on_c, 0, 63, 80
1, 74855, Note_off_c, 0, 65, 64
1, 74863, Note_on_c, 0, 53, 74
1, 74864, Note_on_c, 0, 45, 63
1, 74869, Note_on_c, 0, 48, 66
1, 74892, Note_off_c, 0, 53, 68
1, 74900, Note_off_c, 0, 45, 63
1, 74907, Note_off_c, 0, 48, 65
1, 74909, Note_on_c, 0, 62, 80
1, 74909, Note_off_c, 0, 63, 65
1, 74941, Note_on_c, 0, 63, 67
1, 74958, Note_off_c, 0, 62, 61
1, 74984, Control_c, 0, 64, 45
1, 74998, Control_c, 0, 64, 58
1, 75008, Note_on_c, 0, 62, 88
1, 75013, Control_c, 0, 64, 61
1, 75028, Control_c, 0, 64, 60
1, 75029, Note_off_c, 0, 63, 65
1, 75043, Control_c, 0, 64, 54
1, 75049, Note_off_c, 0, 62, 64
1, 75058, Control_c, 0, 64, 33
1, 75072, Control_c, 0, 64, 0
1, 75144, Note_on_c, 0, 53, 81
1, 75148, Note_on_c, 0, 46, 68
1, 75151, Note_on_c, 0, 50, 68
1, 75228, Note_off_c, 0, 53, 65
1, 75237, Note_off_c, 0, 50, 64
1, 75242, Note_off_c, 0, 46, 62
1, 75300, Note_on_c, 0, 63, 75
1, 75310, Note_on_c, 0, 64, 82
1, 75368, Note_off_c, 0, 64, 59
1, 75389, Note_on_c, 0, 65, 67
1, 75389, Note_off_c, 0, 63, 30
1, 75449, Note_on_c, 0, 63, 90
1, 75455, Note_on_c, 0, 45, 66
1, 75455, Note_on_c, 0, 53, 75
1, 75458, Note_on_c, 0, 48, 60
1, 75461, Note_off_c, 0, 65, 62
1, 75488, Note_off_c, 0, 48, 66
1, 75491, Note_off_c, 0, 53, 61
1, 75492, Note_off_c, 0, 45, 62
1, 75512, Note_on_c, 0, 62, 78
1, 75518, Note_off_c, 0, 63, 65
1, 75573, Note_on_c, 0, 63, 86
1, 75577, Note_off_c, 0, 62, 51
1, 75633, Note_on_c, 0, 62, 54
1, 75655, Note_off_c, 0, 63, 66
1, 75659, Control_c, 0, 64, 10
1, 75672, Note_off_c, 0, 62, 64
1, 75673, Control_c, 0, 64, 0
1, 75744, Note_on_c, 0, 53, 84
1, 75747, Note_on_c, 0, 46, 77
1, 75752, Note_on_c, 0, 50, 73
1, 75815, Note_off_c, 0, 46, 60
1, 75826, Note_off_c, 0, 53, 51
1, 75831, Note_off_c, 0, 50, 58
1, 75894, Control_c, 0, 64, 42
1, 75896, Note_on_c, 0, 63, 99
1, 75910, Control_c, 0, 64, 71
1, 75925, Control_c, 0, 64, 85
1, 75940, Control_c, 0, 64, 97
1, 75955, Control_c, 0, 64, 96
1, 75969, Control_c, 0, 64, 88
1, 75979, Note_on_c, 0, 65, 73
1, 75984, Control_c, 0, 64, 72
1, 75986, Note_off_c, 0, 63, 66
1, 75999, Control_c, 0, 64, 0
1, 75999, Control_c, 0, 67, 12
1, 76014, Control_c, 0, 67, 25
1, 76029, Control_c, 0, 67, 44
1, 76039, Note_on_c, 0, 53, 73
1, 76039, Note_on_c, 0, 63, 86
1, 76043, Control_c, 0, 67, 66
1, 76048, Note_on_c, 0, 45, 53
1, 76055, Note_on_c, 0, 48, 55
1, 76057, Note_off_c, 0, 65, 64
1, 76058, Control_c, 0, 67, 77
1, 76073, Control_c, 0, 67, 84
1, 76074, Note_off_c, 0, 53, 63
1, 76084, Note_off_c, 0, 45, 65
1, 76088, Note_off_c, 0, 48, 66
1, 76088, Control_c, 0, 67, 92
1, 76103, Control_c, 0, 67, 99
1, 76105, Note_on_c, 0, 62, 80
1, 76115, Note_off_c, 0, 63, 64
1, 76117, Control_c, 0, 67, 104
1, 76132, Control_c, 0, 67, 106
1, 76147, Control_c, 0, 67, 106
1, 76159, Note_off_c, 0, 62, 63
1, 76161, Control_c, 0, 67, 108
1, 76164, Note_on_c, 0, 63, 71
1, 76176, Control_c, 0, 67, 113
1, 76191, Control_c, 0, 67, 126
1, 76198, Note_off_c, 0, 63, 67
1, 76206, Control_c, 0, 67, 127
1, 76300, Note_on_c, 0, 46, 44
1, 76309, Note_on_c, 0, 53, 49
1, 76321, Note_on_c, 0, 50, 43
1, 76358, Note_on_c, 0, 62, 58
1, 76388, Note_off_c, 0, 53, 63
1, 76417, Note_off_c, 0, 50, 62
1, 76419, Note_on_c, 0, 58, 69
1, 76429, Note_off_c, 0, 62, 60
1, 76431, Note_off_c, 0, 46, 57
1, 76481, Note_off_c, 0, 58, 61
1, 76504, Note_on_c, 0, 53, 65
1, 76565, Note_off_c, 0, 53, 56
1, 76573, Note_on_c, 0, 58, 65
1, 76611, Note_off_c, 0, 58, 63
1, 76635, Note_on_c, 0, 62, 64
1, 76694, Note_off_c, 0, 62, 55
1, 76715, Note_on_c, 0, 58, 66
1, 76769, Note_off_c, 0, 58, 59
1, 76786, Note_on_c, 0, 65, 62
1, 76822, Control_c, 0, 67, 123
1, 76829, Note_off_c, 0, 65, 66
1, 76837, Control_c, 0, 67, 118
1, 76852, Control_c, 0, 67, 112
1, 76866, Control_c, 0, 67, 110
1, 76871, Note_on_c, 0, 62, 62
1, 76881, Control_c, 0, 67, 109
1, 76896, Control_c, 0, 67, 107
1, 76910, Control_c, 0, 67, 103
1, 76925, Control_c, 0, 67, 97
1, 76929, Note_on_c, 0, 70, 72
1, 76940, Control_c, 0, 67, 90
1, 76953, Note_off_c, 0, 62, 50
1, 76955, Control_c, 0, 67, 83
1, 76970, Control_c, 0, 67, 75
1, 76984, Control_c, 0, 67, 65
1, 76999, Control_c, 0, 67, 53
1, 77006, Note_off_c, 0, 70, 60
1, 77011, Note_on_c, 0, 65, 66
1, 77014, Control_c, 0, 67, 40
1, 77029, Control_c, 0, 67, 29
1, 77044, Control_c, 0, 67, 21
1, 77058, Control_c, 0, 67, 18
1, 77067, Note_off_c, 0, 65, 51
1, 77073, Control_c, 0, 67, 17
1, 77089, Note_on_c, 0, 74, 62
1, 77096, Control_c, 0, 67, 16
1, 77110, Control_c, 0, 67, 16
1, 77140, Control_c, 0, 67, 15
1, 77154, Note_off_c, 0, 74, 63
1, 77160, Note_on_c, 0, 70, 67
1, 77199, Control_c, 0, 67, 15
1, 77229, Control_c, 0, 67, 14
1, 77237, Note_on_c, 0, 65, 62
1, 77242, Note_off_c, 0, 70, 58
1, 77303, Control_c, 0, 67, 14
1, 77310, Note_off_c, 0, 65, 60
1, 77315, Note_on_c, 0, 62, 66
1, 77318, Control_c, 0, 67, 13
1, 77333, Control_c, 0, 67, 10
1, 77348, Control_c, 0, 67, 0
1, 77355, Note_off_c, 0, 62, 62
1, 77383, Note_on_c, 0, 70, 67
1, 77427, Note_off_c, 0, 70, 64
1, 77456, Note_on_c, 0, 65, 70
1, 77535, Note_on_c, 0, 74, 69
1, 77550, Note_off_c, 0, 65, 59
1, 77607, Note_on_c, 0, 70, 71
1, 77609, Note_off_c, 0, 74, 63
1, 77665, Note_off_c, 0, 70, 61
1, 77680, Note_on_c, 0, 77, 67
1, 77753, Note_off_c, 0, 77, 61
1, 77762, Note_on_c, 0, 74, 72
1, 77837, Note_on_c, 0, 70, 73
1, 77839, Note_off_c, 0, 74, 63
1, 77899, Note_off_c, 0, 70, 61
1, 77917, Note_on_c, 0, 65, 70
1, 77975, Note_off_c, 0, 65, 58
1, 77979, Note_on_c, 0, 74, 72
1, 78057, Note_on_c, 0, 70, 76
1, 78057, Note_off_c, 0, 74, 64
1, 78111, Note_off_c, 0, 70, 65
1, 78129, Note_on_c, 0, 77, 73
1, 78176, Note_off_c, 0, 77, 63
1, 78205, Note_on_c, 0, 74, 76
1, 78261, Note_off_c, 0, 74, 58
1, 78277, Note_on_c, 0, 82, 77
1, 78352, Note_on_c, 0, 77, 79
1, 78358, Note_off_c, 0, 82, 61
1, 78412, Note_off_c, 0, 77, 60
1, 78423, Note_on_c, 0, 74, 69
1, 78479, Note_off_c, 0, 74, 54
1, 78503, Note_on_c, 0, 70, 76
1, 78566, Note_off_c, 0, 70, 63
1, 78584, Note_on_c, 0, 77, 70
1, 78629, Note_off_c, 0, 77, 64
1, 78659, Note_on_c, 0, 74, 67
1, 78709, Note_off_c, 0, 74, 60
1, 78731, Note_on_c, 0, 82, 80
1, 78779, Note_off_c, 0, 82, 62
1, 78816, Note_on_c, 0, 77, 63
1, 78886, Note_on_c, 0, 86, 72
1, 78922, Note_off_c, 0, 77, 45
1, 78961, Note_off_c, 0, 86, 60
1, 78963, Note_on_c, 0, 82, 72
1, 79044, Note_on_c, 0, 89, 85
1, 79046, Note_off_c, 0, 82, 62
1, 79079, Note_off_c, 0, 89, 65
1, 79218, Note_on_c, 0, 77, 74
1, 79225, Note_on_c, 0, 65, 56
1, 79241, Note_off_c, 0, 77, 68
1, 79251, Note_off_c, 0, 65, 65
1, 79379, Note_on_c, 0, 82, 72
1, 79383, Note_on_c, 0, 70, 64
1, 79401, Note_off_c, 0, 82, 69
1, 79412, Note_off_c, 0, 70, 65
1, 79529, Note_on_c, 0, 86, 67
1, 79538, Note_on_c, 0, 74, 52
1, 79556, Note_off_c, 0, 86, 66
1, 79558, Note_off_c, 0, 74, 65
1, 79685, Note_on_c, 0, 89, 70
1, 79690, Note_on_c, 0, 77, 71
1, 79708, Note_off_c, 0, 89, 70
1, 79712, Note_off_c, 0, 77, 64
1, 79841, Note_on_c, 0, 65, 58
1, 79879, Note_off_c, 0, 65, 63
1, 80007, Note_on_c, 0, 70, 72
1, 80034, Note_off_c, 0, 70, 66
1, 80168, Note_on_c, 0, 74, 69
1, 80211, Note_off_c, 0, 74, 65
1, 80319, Note_on_c, 0, 77, 88
1, 80351, Note_off_c, 0, 77, 66
1, 80479, Note_on_c, 0, 53, 97
1, 80486, Note_on_c, 0, 41, 80
1, 80525, Note_off_c, 0, 53, 64
1, 80551, Note_off_c, 0, 41, 66
1, 80634, Note_on_c, 0, 46, 91
1, 80638, Note_on_c, 0, 58, 92
1, 80680, Note_off_c, 0, 58, 70
1, 80693, Note_off_c, 0, 46, 65
1, 80785, Note_on_c, 0, 50, 82
1, 80794, Note_on_c, 0, 62, 93
1, 80841, Note_off_c, 0, 50, 60
1, 80847, Note_off_c, 0, 62, 64
1, 80960, Note_on_c, 0, 53, 87
1, 80966, Note_on_c, 0, 65, 86
1, 81008, Note_off_c, 0, 65, 64
1, 81129, Note_on_c, 0, 70, 84
1, 81150, Note_off_c, 0, 53, 65
1, 81167, Note_off_c, 0, 70, 66
1, 81273, Note_on_c, 0, 74, 71
1, 81309, Note_off_c, 0, 74, 63
1, 81419, Note_on_c, 0, 77, 69
1, 81463, Note_off_c, 0, 77, 61
1, 81568, Note_on_c, 0, 75, 65
1, 81605, Note_off_c, 0, 75, 67
1, 81730, Note_on_c, 0, 74, 64
1, 81756, Note_off_c, 0, 74, 70
1, 81872, Note_on_c, 0, 72, 75
1, 81899, Note_off_c, 0, 72, 64
1, 81932, Note_on_c, 0, 74, 65
1, 81974, Note_off_c, 0, 74, 60
1, 81989, Control_c, 0, 67, 8
1, 81995, Note_on_c, 0, 72, 69
1, 82004, Control_c, 0, 67, 12
1, 82019, Control_c, 0, 67, 17
1, 82027, Note_off_c, 0, 72, 63
1, 82034, Control_c, 0, 67, 22
1, 82045, Note_on_c, 0, 74, 45
1, 82048, Note_on_c, 0, 53, 54
1, 82048, Control_c, 0, 67, 27
1, 82063, Control_c, 0, 67, 29
1, 82069, Note_off_c, 0, 74, 62
1, 82078, Control_c, 0, 67, 30
1, 82081, Note_off_c, 0, 53, 67
1, 82096, Note_on_c, 0, 72, 55
1, 82108, Control_c, 0, 67, 29
1, 82120, Note_off_c, 0, 72, 59
1, 82123, Control_c, 0, 67, 29
1, 82138, Control_c, 0, 67, 30
1, 82151, Note_on_c, 0, 74, 53
1, 82170, Note_off_c, 0, 74, 64
1, 82197, Control_c, 0, 67, 29
1, 82201, Note_on_c, 0, 72, 67
1, 82205, Note_on_c, 0, 57, 60
1, 82220, Note_off_c, 0, 72, 65
1, 82226, Control_c, 0, 67, 28
1, 82237, Note_off_c, 0, 57, 62
1, 82239, Note_on_c, 0, 74, 64
1, 82256, Control_c, 0, 67, 28
1, 82271, Control_c, 0, 67, 27
1, 82274, Note_off_c, 0, 74, 60
1, 82286, Control_c, 0, 67, 27
1, 82295, Note_on_c, 0, 72, 70
1, 82302, Control_c, 0, 67, 26
1, 82346, Note_off_c, 0, 72, 65
1, 82353, Control_c, 0, 67, 26
1, 82358, Note_on_c, 0, 60, 60
1, 82358, Note_on_c, 0, 74, 51
1, 82368, Control_c, 0, 67, 25
1, 82383, Control_c, 0, 67, 24
1, 82388, Note_off_c, 0, 74, 62
1, 82391, Note_off_c, 0, 60, 65
1, 82398, Control_c, 0, 67, 24
1, 82412, Control_c, 0, 67, 23
1, 82418, Note_on_c, 0, 72, 58
1, 82451, Note_off_c, 0, 72, 66
1, 82457, Control_c, 0, 67, 23
1, 82468, Note_on_c, 0, 74, 59
1, 82472, Control_c, 0, 67, 22
1, 82487, Control_c, 0, 67, 21
1, 82493, Note_off_c, 0, 74, 61
1, 82502, Control_c, 0, 67, 20
1, 82507, Note_on_c, 0, 63, 62
1, 82516, Control_c, 0, 67, 19
1, 82524, Note_on_c, 0, 72, 69
1, 82531, Control_c, 0, 67, 16
1, 82532, Note_off_c, 0, 63, 67
1, 82546, Control_c, 0, 67, 13
1, 82553, Note_off_c, 0, 72, 63
1, 82561, Control_c, 0, 67, 9
1, 82572, Note_on_c, 0, 74, 60
1, 82576, Control_c, 0, 67, 0
1, 82605, Note_off_c, 0, 74, 61
1, 82631, Note_on_c, 0, 72, 68
1, 82666, Note_off_c, 0, 72, 64
1, 82671, Note_on_c, 0, 41, 68
1, 82681, Note_on_c, 0, 74, 54
1, 82710, Note_off_c, 0, 41, 65
1, 82715, Note_off_c, 0, 74, 64
1, 82737, Note_on_c, 0, 72, 66
1, 82768, Note_off_c, 0, 72, 64
1, 82796, Note_on_c, 0, 74, 54
1, 82810, Note_on_c, 0, 45, 66
1, 82817, Note_off_c, 0, 74, 63
1, 82851, Note_off_c, 0, 45, 65
1, 82853, Note_on_c, 0, 72, 63
1, 82874, Note_off_c, 0, 72, 58
1, 82898, Note_on_c, 0, 74, 57
1, 82930, Note_off_c, 0, 74, 65
1, 82952, Note_on_c, 0, 72, 71
1, 82970, Note_on_c, 0, 48, 61
1, 82993, Note_off_c, 0, 72, 65
1, 82999, Note_off_c, 0, 48, 66
1, 83014, Note_on_c, 0, 74, 58
1, 83049, Note_off_c, 0, 74, 64
1, 83067, Note_on_c, 0, 72, 61
1, 83101, Note_off_c, 0, 72, 59
1, 83125, Note_on_c, 0, 51, 61
1, 83127, Note_on_c, 0, 74, 43
1, 83151, Note_off_c, 0, 51, 66
1, 83155, Note_off_c, 0, 74, 65
1, 83173, Note_on_c, 0, 72, 73
1, 83214, Note_off_c, 0, 72, 63
1, 83238, Note_on_c, 0, 74, 56
1, 83265, Note_off_c, 0, 74, 61
1, 83272, Note_on_c, 0, 42, 66
1, 83283, Note_on_c, 0, 72, 63
1, 83312, Note_off_c, 0, 42, 65
1, 83315, Note_off_c, 0, 72, 65
1, 83351, Note_on_c, 0, 74, 50
1, 83372, Note_off_c, 0, 74, 61
1, 83387, Note_on_c, 0, 72, 75
1, 83423, Note_on_c, 0, 45, 78
1, 83426, Note_off_c, 0, 72, 64
1, 83446, Note_on_c, 0, 74, 64
1, 83465, Note_off_c, 0, 45, 64
1, 83481, Note_off_c, 0, 74, 55
1, 83509, Note_on_c, 0, 72, 67
1, 83545, Note_off_c, 0, 72, 61
1, 83568, Note_on_c, 0, 74, 54
1, 83578, Note_on_c, 0, 48, 84
1, 83603, Note_off_c, 0, 74, 64
1, 83616, Note_off_c, 0, 48, 67
1, 83621, Note_on_c, 0, 72, 69
1, 83659, Note_off_c, 0, 72, 55
1, 83692, Note_on_c, 0, 74, 61
1, 83722, Note_on_c, 0, 51, 78
1, 83729, Note_off_c, 0, 74, 63
1, 83747, Note_on_c, 0, 72, 64
1, 83760, Note_off_c, 0, 51, 64
1, 83781, Note_off_c, 0, 72, 60
1, 83807, Note_on_c, 0, 74, 55
1, 83859, Note_off_c, 0, 74, 65
1, 83874, Note_on_c, 0, 72, 63
1, 83887, Note_on_c, 0, 41, 69
1, 83906, Note_off_c, 0, 72, 52
1, 83935, Note_off_c, 0, 41, 63
1, 83936, Note_on_c, 0, 74, 55
1, 83968, Note_off_c, 0, 74, 66
1, 83993, Note_on_c, 0, 72, 60
1, 84031, Note_on_c, 0, 45, 77
1, 84044, Note_on_c, 0, 74, 59
1, 84055, Note_off_c, 0, 72, 0
1, 84084, Note_off_c, 0, 45, 62
1, 84087, Note_off_c, 0, 74, 55
1, 84099, Poly_aftertouch_c, 0, 72, 0
1, 84123, Note_on_c, 0, 72, 14
1, 84132, Note_on_c, 0, 74, 24
1, 84159, Note_off_c, 0, 74, 58
1, 84179, Note_on_c, 0, 48, 77
1, 84199, Note_off_c, 0, 72, 63
1, 84209, Note_on_c, 0, 74, 65
1, 84221, Note_off_c, 0, 48, 66
1, 84253, Note_off_c, 0, 74, 64
1, 84264, Note_on_c, 0, 72, 64
1, 84321, Note_off_c, 0, 72, 65
1, 84326, Note_on_c, 0, 51, 71
1, 84329, Note_on_c, 0, 74, 63
1, 84373, Note_off_c, 0, 74, 65
1, 84381, Note_off_c, 0, 51, 63
1, 84382, Note_on_c, 0, 72, 60
1, 84424, Note_off_c, 0, 72, 65
1, 84439, Note_on_c, 0, 74, 66
1, 84470, Note_on_c, 0, 53, 87
1, 84493, Note_off_c, 0, 74, 66
1, 84495, Note_on_c, 0, 72, 75
1, 84512, Note_off_c, 0, 53, 67
1, 84554, Note_off_c, 0, 72, 64
1, 84560, Note_on_c, 0, 74, 65
1, 84621, Note_on_c, 0, 57, 84
1, 84624, Note_on_c, 0, 72, 72
1, 84625, Note_off_c, 0, 74, 65
1, 84665, Note_off_c, 0, 57, 65
1, 84681, Note_on_c, 0, 74, 67
1, 84681, Note_off_c, 0, 72, 65
1, 84747, Note_on_c, 0, 72, 76
1, 84747, Note_off_c, 0, 74, 66
1, 84767, Note_on_c, 0, 60, 85
1, 84797, Note_on_c, 0, 74, 70
1, 84802, Note_off_c, 0, 72, 65
1, 84812, Note_off_c, 0, 60, 62
1, 84864, Note_on_c, 0, 72, 79
1, 84865, Note_off_c, 0, 74, 66
1, 84900, Poly_aftertouch_c, 0, 74, 0
1, 84907, Note_on_c, 0, 74, 71
1, 84914, Note_on_c, 0, 63, 83
1, 84915, Note_off_c, 0, 72, 63
1, 84967, Note_off_c, 0, 63, 64
1, 84974, Note_on_c, 0, 72, 80
1, 84980, Note_off_c, 0, 74, 67
1, 85052, Note_off_c, 0, 72, 65
1, 85059, Note_on_c, 0, 71, 77
1, 85079, Note_on_c, 0, 53, 54
1, 85113, Note_off_c, 0, 53, 65
1, 85132, Note_on_c, 0, 72, 85
1, 85146, Note_off_c, 0, 71, 57
1, 85227, Note_on_c, 0, 77, 84
1, 85240, Note_on_c, 0, 63, 57
1, 85243, Note_off_c, 0, 72, 64
1, 85279, Note_off_c, 0, 63, 66
1, 85294, Note_off_c, 0, 77, 63
1, 85417, Note_on_c, 0, 77, 80
1, 85420, Note_on_c, 0, 53, 47
1, 85452, Note_off_c, 0, 53, 61
1, 85486, Note_off_c, 0, 77, 60
1, 85640, Note_on_c, 0, 70, 69
1, 85642, Note_on_c, 0, 58, 40
1, 85645, Note_on_c, 0, 62, 46
1, 85699, Note_off_c, 0, 70, 59
1, 85885, Note_on_c, 0, 70, 62
1, 85938, Note_off_c, 0, 62, 52
1, 86022, Note_off_c, 0, 58, 37
1, 86053, Note_on_c, 0, 71, 65
1, 86091, Note_off_c, 0, 70, 60
1, 86230, Note_on_c, 0, 72, 80
1, 86296, Note_off_c, 0, 71, 52
1, 86396, Note_on_c, 0, 73, 84
1, 86532, Note_off_c, 0, 72, 46
1, 86573, Note_on_c, 0, 74, 71
1, 86607, Note_off_c, 0, 73, 60
1, 86785, Note_on_c, 0, 58, 35
1, 86788, Note_on_c, 0, 75, 76
1, 86794, Note_on_c, 0, 55, 34
1, 86825, Note_off_c, 0, 74, 61
1, 87068, Control_c, 0, 64, 29
1, 87083, Control_c, 0, 64, 47
1, 87098, Control_c, 0, 64, 54
1, 87113, Control_c, 0, 64, 58
1, 87128, Control_c, 0, 64, 61
1, 87143, Control_c, 0, 64, 64
1, 87158, Control_c, 0, 64, 66
1, 87173, Control_c, 0, 64, 70
1, 87173, Control_c, 0, 67, 10
1, 87187, Control_c, 0, 64, 73
1, 87187, Control_c, 0, 67, 16
1, 87202, Control_c, 0, 64, 77
1, 87202, Control_c, 0, 67, 22
1, 87217, Control_c, 0, 64, 79
1, 87217, Control_c, 0, 67, 28
1, 87232, Control_c, 0, 64, 82
1, 87232, Control_c, 0, 67, 33
1, 87246, Control_c, 0, 64, 84
1, 87246, Control_c, 0, 67, 39
1, 87261, Control_c, 0, 64, 88
1, 87261, Control_c, 0, 67, 44
1, 87276, Control_c, 0, 64, 92
1, 87276, Control_c, 0, 67, 50
1, 87291, Control_c, 0, 64, 96
1, 87291, Control_c, 0, 67, 57
1, 87306, Control_c, 0, 64, 101
1, 87306, Control_c, 0, 67, 66
1, 87320, Control_c, 0, 64, 107
1, 87320, Control_c, 0, 67, 74
1, 87334, Note_off_c, 0, 58, 30
1, 87335, Control_c, 0, 64, 110
1, 87335, Control_c, 0, 67, 82
1, 87350, Control_c, 0, 64, 113
1, 87350, Control_c, 0, 67, 91
1, 87365, Control_c, 0, 64, 115
1, 87365, Control_c, 0, 67, 100
1, 87375, Note_off_c, 0, 55, 31
1, 87380, Control_c, 0, 64, 116
1, 87380, Control_c, 0, 67, 110
1, 87394, Control_c, 0, 64, 117
1, 87394, Control_c, 0, 67, 118
1, 87409, Control_c, 0, 64, 118
1, 87409, Control_c, 0, 67, 127
1, 87424, Control_c, 0, 64, 120
1, 87424, Control_c, 0, 67, 127
1, 87438, Control_c, 0, 64, 120
1, 87453, Control_c, 0, 64, 121
1, 87742, Control_c, 0, 64, 120
1, 87757, Control_c, 0, 64, 120
1, 87772, Control_c, 0, 64, 119
1, 87802, Control_c, 0, 64, 118
1, 87816, Control_c, 0, 64, 117
1, 87831, Control_c, 0, 64, 115
1, 87846, Control_c, 0, 64, 113
1, 87860, Control_c, 0, 64, 112
1, 87875, Control_c, 0, 64, 110
1, 87891, Control_c, 0, 64, 109
1, 87906, Control_c, 0, 64, 106
1, 87921, Control_c, 0, 64, 101
1, 87924, Note_on_c, 0, 67, 57
1, 87936, Control_c, 0, 64, 95
1, 87948, Note_on_c, 0, 63, 35
1, 87950, Control_c, 0, 64, 86
1, 87955, Note_on_c, 0, 51, 30
1, 87957, Note_on_c, 0, 60, 32
1, 87965, Control_c, 0, 64, 78
1, 87980, Control_c, 0, 64, 70
1, 87995, Control_c, 0, 64, 56
1, 88010, Control_c, 0, 64, 0
1, 88168, Note_off_c, 0, 75, 55
1, 88246, Control_c, 0, 64, 17
1, 88261, Control_c, 0, 64, 53
1, 88276, Control_c, 0, 64, 62
1, 88290, Control_c, 0, 64, 65
1, 88305, Control_c, 0, 64, 68
1, 88328, Control_c, 0, 64, 74
1, 88342, Control_c, 0, 64, 79
1, 88357, Control_c, 0, 64, 83
1, 88372, Control_c, 0, 64, 88
1, 88387, Control_c, 0, 64, 91
1, 88402, Control_c, 0, 64, 94
1, 88416, Control_c, 0, 64, 97
1, 88431, Control_c, 0, 64, 101
1, 88446, Control_c, 0, 64, 104
1, 88461, Control_c, 0, 64, 106
1, 88475, Control_c, 0, 64, 108
1, 88490, Control_c, 0, 64, 108
1, 88520, Control_c, 0, 67, 126
1, 88523, Note_off_c, 0, 63, 39
1, 88528, Note_off_c, 0, 60, 37
1, 88535, Control_c, 0, 67, 123
1, 88550, Control_c, 0, 64, 109
1, 88550, Control_c, 0, 67, 121
1, 88550, Note_off_c, 0, 67, 58
1, 88565, Control_c, 0, 67, 120
1, 88568, Note_off_c, 0, 51, 40
1, 88580, Control_c, 0, 67, 119
1, 88594, Control_c, 0, 67, 118
1, 88609, Control_c, 0, 67, 117
1, 88654, Control_c, 0, 67, 117
1, 88699, Control_c, 0, 67, 116
1, 88758, Control_c, 0, 64, 108
1, 88803, Control_c, 0, 64, 108
1, 88833, Control_c, 0, 64, 107
1, 88862, Control_c, 0, 64, 107
1, 88891, Control_c, 0, 64, 106
1, 88921, Control_c, 0, 64, 106
1, 88936, Control_c, 0, 64, 104
1, 88951, Control_c, 0, 64, 102
1, 88965, Control_c, 0, 64, 97
1, 88980, Control_c, 0, 64, 90
1, 88995, Control_c, 0, 64, 80
1, 89010, Control_c, 0, 64, 68
1, 89025, Control_c, 0, 64, 31
1, 89032, Note_on_c, 0, 70, 44
1, 89039, Control_c, 0, 64, 0
1, 89054, Note_on_c, 0, 60, 27
1, 89058, Note_on_c, 0, 53, 28
1, 89069, Note_on_c, 0, 63, 14
1, 89106, Control_c, 0, 64, 32
1, 89121, Control_c, 0, 64, 55
1, 89136, Control_c, 0, 64, 62
1, 89151, Control_c, 0, 64, 66
1, 89165, Control_c, 0, 64, 70
1, 89180, Control_c, 0, 64, 78
1, 89182, Note_on_c, 0, 69, 56
1, 89190, Note_off_c, 0, 60, 50
1, 89195, Control_c, 0, 64, 86
1, 89210, Control_c, 0, 64, 93
1, 89211, Note_off_c, 0, 70, 37
1, 89212, Note_off_c, 0, 53, 40
1, 89224, Control_c, 0, 64, 98
1, 89224, Control_c, 0, 67, 117
1, 89239, Control_c, 0, 64, 102
1, 89241, Note_off_c, 0, 69, 59
1, 89254, Note_off_c, 0, 63, 42
1, 89254, Control_c, 0, 64, 105
1, 89254, Control_c, 0, 67, 116
1, 89269, Control_c, 0, 64, 106
1, 89284, Control_c, 0, 64, 106
1, 89328, Control_c, 0, 64, 105
1, 89332, Note_on_c, 0, 70, 62
1, 89343, Control_c, 0, 64, 102
1, 89343, Control_c, 0, 67, 116
1, 89349, Note_on_c, 0, 53, 47
1, 89352, Note_on_c, 0, 69, 73
1, 89358, Control_c, 0, 64, 97
1, 89361, Note_on_c, 0, 60, 45
1, 89364, Note_on_c, 0, 63, 47
1, 89372, Control_c, 0, 64, 87
1, 89372, Control_c, 0, 67, 115
1, 89387, Control_c, 0, 64, 77
1, 89387, Control_c, 0, 67, 114
1, 89400, Note_off_c, 0, 70, 47
1, 89402, Control_c, 0, 64, 64
1, 89402, Control_c, 0, 67, 113
1, 89417, Control_c, 0, 64, 0
1, 89417, Control_c, 0, 67, 112
1, 89432, Control_c, 0, 67, 111
1, 89453, Note_off_c, 0, 60, 50
1, 89478, Note_off_c, 0, 63, 25
1, 89499, Note_on_c, 0, 67, 66
1, 89507, Control_c, 0, 67, 110
1, 89522, Control_c, 0, 64, 57
1, 89530, Note_off_c, 0, 69, 60
1, 89536, Control_c, 0, 64, 67
1, 89536, Control_c, 0, 67, 110
1, 89551, Control_c, 0, 64, 75
1, 89566, Control_c, 0, 64, 87
1, 89581, Control_c, 0, 64, 97
1, 89596, Control_c, 0, 64, 105
1, 89611, Control_c, 0, 64, 109
1, 89626, Control_c, 0, 64, 110
1, 89653, Note_on_c, 0, 60, 43
1, 89660, Note_on_c, 0, 69, 64
1, 89670, Control_c, 0, 64, 107
1, 89675, Note_on_c, 0, 63, 46
1, 89685, Control_c, 0, 64, 100
1, 89700, Control_c, 0, 64, 89
1, 89701, Note_off_c, 0, 67, 56
1, 89714, Control_c, 0, 64, 76
1, 89714, Control_c, 0, 67, 109
1, 89729, Control_c, 0, 64, 62
1, 89743, Note_off_c, 0, 63, 49
1, 89744, Control_c, 0, 64, 0
1, 89796, Note_off_c, 0, 69, 58
1, 89799, Note_off_c, 0, 60, 49
1, 89803, Control_c, 0, 64, 56
1, 89817, Note_off_c, 0, 53, 36
1, 89819, Note_on_c, 0, 57, 44
1, 89826, Control_c, 0, 64, 65
1, 89838, Note_on_c, 0, 72, 55
1, 89840, Control_c, 0, 64, 72
1, 89844, Note_off_c, 0, 57, 56
1, 89855, Control_c, 0, 64, 82
1, 89870, Control_c, 0, 64, 92
1, 89870, Control_c, 0, 67, 109
1, 89885, Control_c, 0, 64, 101
1, 89900, Control_c, 0, 64, 107
1, 89914, Control_c, 0, 64, 110
1, 89929, Control_c, 0, 64, 111
1, 89944, Control_c, 0, 64, 112
1, 89988, Control_c, 0, 67, 108
1, 90003, Control_c, 0, 64, 112
1, 90018, Control_c, 0, 64, 107
1, 90031, Note_on_c, 0, 46, 42
1, 90033, Control_c, 0, 64, 98
1, 90046, Note_off_c, 0, 72, 59
1, 90047, Control_c, 0, 64, 85
1, 90049, Note_on_c, 0, 58, 43
1, 90049, Note_on_c, 0, 70, 58
1, 90062, Control_c, 0, 64, 72
1, 90072, Note_on_c, 0, 62, 39
1, 90077, Control_c, 0, 64, 53
1, 90077, Control_c, 0, 67, 108
1, 90092, Control_c, 0, 64, 0
1, 90092, Control_c, 0, 67, 107
1, 90097, Note_off_c, 0, 46, 59
1, 90106, Control_c, 0, 67, 103
1, 90121, Control_c, 0, 67, 100
1, 90135, Note_off_c, 0, 62, 56
1, 90136, Control_c, 0, 67, 99
1, 90143, Note_off_c, 0, 70, 62
1, 90146, Note_off_c, 0, 58, 60
1, 90151, Control_c, 0, 64, 65
1, 90151, Control_c, 0, 67, 98
1, 90165, Control_c, 0, 64, 74
1, 90180, Control_c, 0, 64, 85
1, 90180, Control_c, 0, 67, 98
1, 90195, Control_c, 0, 64, 97
1, 90210, Control_c, 0, 64, 107
1, 90225, Control_c, 0, 64, 116
1, 90225, Control_c, 0, 67, 97
1, 90228, Note_on_c, 0, 58, 51
1, 90228, Note_on_c, 0, 70, 67
1, 90239, Control_c, 0, 64, 121
1, 90254, Control_c, 0, 64, 122
1, 90269, Control_c, 0, 64, 122
1, 90269, Control_c, 0, 67, 97
1, 90285, Control_c, 0, 67, 96
1, 90300, Control_c, 0, 67, 96
1, 90314, Control_c, 0, 67, 94
1, 90329, Control_c, 0, 64, 122
1, 90329, Control_c, 0, 67, 91
1, 90344, Control_c, 0, 64, 120
1, 90344, Control_c, 0, 67, 89
1, 90346, Note_off_c, 0, 58, 60
1, 90359, Control_c, 0, 64, 117
1, 90359, Control_c, 0, 67, 86
1, 90366, Note_on_c, 0, 59, 68
1, 90374, Control_c, 0, 64, 115
1, 90374, Control_c, 0, 67, 84
1, 90377, Note_on_c, 0, 71, 83
1, 90383, Note_off_c, 0, 70, 60
1, 90389, Control_c, 0, 64, 112
1, 90389, Control_c, 0, 67, 79
1, 90404, Control_c, 0, 64, 109
1, 90404, Control_c, 0, 67, 72
1, 90418, Control_c, 0, 64, 106
1, 90418, Control_c, 0, 67, 62
1, 90433, Control_c, 0, 64, 102
1, 90433, Control_c, 0, 67, 54
1, 90448, Control_c, 0, 64, 98
1, 90448, Control_c, 0, 67, 49
1, 90462, Control_c, 0, 64, 93
1, 90462, Control_c, 0, 67, 45
1, 90477, Control_c, 0, 64, 89
1, 90477, Control_c, 0, 67, 42
1, 90492, Control_c, 0, 64, 86
1, 90492, Control_c, 0, 67, 37
1, 90507, Control_c, 0, 64, 84
1, 90507, Control_c, 0, 67, 30
1, 90522, Note_on_c, 0, 60, 70
1, 90522, Control_c, 0, 64, 81
1, 90522, Control_c, 0, 67, 25
1, 90532, Note_on_c, 0, 72, 88
1, 90536, Control_c, 0, 64, 78
1, 90536, Control_c, 0, 67, 21
1, 90549, Note_off_c, 0, 59, 58
1, 90551, Control_c, 0, 64, 72
1, 90551, Control_c, 0, 67, 17
1, 90574, Control_c, 0, 64, 65
1, 90574, Control_c, 0, 67, 13
1, 90575, Note_off_c, 0, 71, 59
1, 90589, Control_c, 0, 64, 43
1, 90589, Control_c, 0, 67, 8
1, 90604, Control_c, 0, 64, 0
1, 90604, Control_c, 0, 67, 0
1, 90675, Note_on_c, 0, 61, 68
1, 90681, Note_off_c, 0, 60, 52
1, 90693, Note_on_c, 0, 73, 85
1, 90743, Note_off_c, 0, 72, 63
1, 90835, Note_on_c, 0, 62, 64
1, 90836, Note_off_c, 0, 61, 60
1, 90854, Note_on_c, 0, 74, 84
1, 90876, Note_off_c, 0, 73, 61
1, 91028, Note_on_c, 0, 63, 68
1, 91043, Note_on_c, 0, 75, 80
1, 91059, Note_off_c, 0, 74, 63
1, 91100, Note_off_c, 0, 62, 48
1, 91285, Control_c, 0, 64, 46
1, 91300, Control_c, 0, 64, 62
1, 91322, Control_c, 0, 64, 66
1, 91337, Control_c, 0, 64, 70
1, 91352, Control_c, 0, 64, 75
1, 91367, Control_c, 0, 64, 82
1, 91382, Control_c, 0, 64, 91
1, 91397, Control_c, 0, 64, 101
1, 91411, Control_c, 0, 64, 108
1, 91426, Control_c, 0, 64, 112
1, 91433, Note_off_c, 0, 63, 30
1, 91441, Control_c, 0, 64, 113
1, 91456, Control_c, 0, 64, 115
1, 91471, Control_c, 0, 64, 115
1, 91486, Control_c, 0, 64, 116
1, 91500, Control_c, 0, 64, 116
1, 91664, Control_c, 0, 67, 8
1, 91679, Control_c, 0, 67, 11
1, 91693, Control_c, 0, 67, 13
1, 91708, Control_c, 0, 67, 16
1, 91723, Control_c, 0, 67, 17
1, 91738, Control_c, 0, 67, 18
1, 91753, Control_c, 0, 67, 19
1, 91767, Control_c, 0, 67, 21
1, 91782, Control_c, 0, 67, 24
1, 91797, Control_c, 0, 64, 116
1, 91797, Control_c, 0, 67, 28
1, 91811, Control_c, 0, 67, 34
1, 91826, Control_c, 0, 67, 40
1, 91841, Control_c, 0, 67, 45
1, 91856, Control_c, 0, 67, 51
1, 91871, Control_c, 0, 67, 58
1, 91887, Control_c, 0, 67, 66
1, 91902, Control_c, 0, 64, 115
1, 91902, Control_c, 0, 67, 73
1, 91916, Control_c, 0, 67, 80
1, 91931, Control_c, 0, 67, 87
1, 91946, Control_c, 0, 64, 115
1, 91946, Control_c, 0, 67, 92
1, 91961, Control_c, 0, 67, 96
1, 91976, Control_c, 0, 67, 101
1, 91990, Control_c, 0, 67, 107
1, 92005, Control_c, 0, 67, 112
1, 92020, Control_c, 0, 67, 117
1, 92034, Control_c, 0, 64, 114
1, 92034, Control_c, 0, 67, 121
1, 92049, Control_c, 0, 67, 122
1, 92072, Control_c, 0, 67, 123
1, 92087, Control_c, 0, 64, 114
1, 92087, Control_c, 0, 67, 125
1, 92102, Control_c, 0, 67, 126
1, 92116, Control_c, 0, 64, 113
1, 92131, Control_c, 0, 64, 112
1, 92146, Control_c, 0, 64, 111
1, 92161, Control_c, 0, 64, 109
1, 92176, Control_c, 0, 64, 105
1, 92184, Note_on_c, 0, 67, 66
1, 92190, Control_c, 0, 64, 98
1, 92190, Control_c, 0, 67, 127
1, 92192, Note_on_c, 0, 51, 42
1, 92200, Note_on_c, 0, 55, 49
1, 92205, Control_c, 0, 64, 90
1, 92213, Note_on_c, 0, 63, 39
1, 92220, Control_c, 0, 64, 80
1, 92234, Control_c, 0, 64, 68
1, 92249, Control_c, 0, 64, 0
1, 92284, Note_off_c, 0, 63, 0
1, 92284, Note_on_c, 0, 63, 3
1, 92353, Control_c, 0, 67, 126
1, 92398, Control_c, 0, 67, 127
1, 92404, Note_off_c, 0, 75, 59
1, 92442, Control_c, 0, 64, 34
1, 92457, Control_c, 0, 64, 59
1, 92472, Control_c, 0, 64, 66
1, 92487, Control_c, 0, 64, 71
1, 92502, Control_c, 0, 64, 77
1, 92516, Control_c, 0, 64, 82
1, 92531, Control_c, 0, 64, 88
1, 92538, Note_off_c, 0, 55, 37
1, 92546, Control_c, 0, 64, 93
1, 92546, Control_c, 0, 67, 127
1, 92561, Control_c, 0, 64, 99
1, 92576, Control_c, 0, 64, 104
1, 92590, Control_c, 0, 64, 109
1, 92600, Note_off_c, 0, 67, 60
1, 92605, Control_c, 0, 64, 112
1, 92620, Control_c, 0, 64, 114
1, 92634, Control_c, 0, 64, 116
1, 92639, Note_off_c, 0, 63, 38
1, 92649, Control_c, 0, 64, 116
1, 92664, Control_c, 0, 64, 117
1, 92680, Control_c, 0, 64, 118
1, 92680, Control_c, 0, 67, 127
1, 92695, Control_c, 0, 64, 120
1, 92710, Control_c, 0, 64, 121
1, 92725, Control_c, 0, 64, 122
1, 92880, Control_c, 0, 64, 122
1, 92895, Control_c, 0, 64, 119
1, 92910, Control_c, 0, 64, 113
1, 92924, Note_on_c, 0, 56, 45
1, 92925, Control_c, 0, 64, 102
1, 92926, Note_on_c, 0, 68, 66
1, 92939, Control_c, 0, 64, 90
1, 92954, Control_c, 0, 64, 78
1, 92969, Control_c, 0, 64, 65
1, 92984, Control_c, 0, 64, 0
1, 93057, Control_c, 0, 64, 44
1, 93072, Control_c, 0, 64, 54
1, 93087, Control_c, 0, 64, 57
1, 93102, Control_c, 0, 64, 59
1, 93117, Control_c, 0, 64, 61
1, 93131, Control_c, 0, 64, 64
1, 93146, Control_c, 0, 64, 68
1, 93153, Note_on_c, 0, 70, 68
1, 93161, Control_c, 0, 64, 75
1, 93165, Note_on_c, 0, 58, 40
1, 93176, Control_c, 0, 64, 82
1, 93182, Note_off_c, 0, 68, 60
1, 93191, Control_c, 0, 64, 89
1, 93192, Note_off_c, 0, 51, 30
1, 93206, Note_off_c, 0, 56, 28
1, 93206, Control_c, 0, 64, 94
1, 93218, Note_off_c, 0, 58, 63
1, 93221, Control_c, 0, 64, 99
1, 93230, Note_off_c, 0, 70, 59
1, 93236, Control_c, 0, 64, 103
1, 93251, Control_c, 0, 64, 107
1, 93265, Control_c, 0, 64, 110
1, 93280, Control_c, 0, 64, 113
1, 93295, Control_c, 0, 64, 114
1, 93310, Control_c, 0, 64, 115
1, 93325, Control_c, 0, 64, 116
1, 93339, Control_c, 0, 64, 116
1, 93354, Control_c, 0, 64, 117
1, 93369, Control_c, 0, 64, 117
1, 93548, Control_c, 0, 64, 117
1, 93570, Control_c, 0, 64, 116
1, 93585, Control_c, 0, 64, 114
1, 93599, Control_c, 0, 64, 112
1, 93614, Control_c, 0, 64, 108
1, 93629, Control_c, 0, 64, 102
1, 93644, Control_c, 0, 64, 93
1, 93647, Note_on_c, 0, 51, 37
1, 93650, Note_on_c, 0, 53, 39
1, 93653, Note_on_c, 0, 72, 70
1, 93654, Note_on_c, 0, 63, 50
1, 93659, Control_c, 0, 64, 82
1, 93659, Note_on_c, 0, 56, 35
1, 93662, Note_on_c, 0, 44, 37
1, 93674, Control_c, 0, 64, 69
1, 93677, Note_on_c, 0, 60, 38
1, 93688, Control_c, 0, 64, 0
1, 93806, Control_c, 0, 64, 28
1, 93821, Control_c, 0, 64, 61
1, 93836, Control_c, 0, 64, 67
1, 93851, Control_c, 0, 64, 73
1, 93866, Control_c, 0, 64, 81
1, 93880, Control_c, 0, 64, 90
1, 93886, Note_off_c, 0, 72, 57
1, 93895, Control_c, 0, 64, 99
1, 93910, Control_c, 0, 64, 107
1, 93925, Control_c, 0, 64, 112
1, 93940, Control_c, 0, 64, 113
1, 93954, Note_on_c, 0, 65, 71
1, 93969, Control_c, 0, 64, 113
1, 93982, Note_off_c, 0, 65, 66
1, 93984, Note_off_c, 0, 63, 63
1, 94055, Note_on_c, 0, 65, 59
1, 94145, Note_off_c, 0, 60, 52
1, 94169, Note_off_c, 0, 65, 64
1, 94175, Note_off_c, 0, 56, 52
1, 94201, Note_off_c, 0, 53, 63
1, 94204, Note_off_c, 0, 44, 45
1, 94216, Note_off_c, 0, 51, 58
1, 94251, Control_c, 0, 64, 113
1, 94363, Control_c, 0, 64, 110
1, 94378, Control_c, 0, 64, 103
1, 94392, Control_c, 0, 64, 92
1, 94407, Control_c, 0, 64, 80
1, 94422, Control_c, 0, 64, 65
1, 94437, Control_c, 0, 64, 0
1, 94828, Note_on_c, 0, 44, 34
1, 94829, Note_on_c, 0, 72, 53
1, 94831, Note_on_c, 0, 51, 35
1, 94831, Note_on_c, 0, 53, 33
1, 94831, Note_on_c, 0, 63, 47
1, 94838, Note_on_c, 0, 56, 26
1, 94843, Note_on_c, 0, 60, 36
1, 94866, Control_c, 0, 64, 23
1, 94881, Control_c, 0, 64, 65
1, 94896, Control_c, 0, 64, 75
1, 94911, Control_c, 0, 64, 89
1, 94926, Control_c, 0, 64, 104
1, 94934, Note_off_c, 0, 72, 57
1, 94941, Control_c, 0, 64, 110
1, 94956, Control_c, 0, 64, 111
1, 94985, Control_c, 0, 64, 112
1, 95072, Note_on_c, 0, 65, 62
1, 95099, Note_off_c, 0, 63, 27
1, 95104, Note_off_c, 0, 65, 67
1, 95188, Note_on_c, 0, 65, 51
1, 95274, Note_off_c, 0, 60, 37
1, 95309, Note_off_c, 0, 56, 40
1, 95310, Note_off_c, 0, 65, 62
1, 95378, Note_off_c, 0, 53, 49
1, 95412, Note_off_c, 0, 51, 47
1, 95423, Control_c, 0, 64, 111
1, 95433, Note_off_c, 0, 44, 54
1, 95467, Control_c, 0, 64, 110
1, 95482, Control_c, 0, 64, 107
1, 95497, Control_c, 0, 64, 102
1, 95512, Control_c, 0, 64, 95
1, 95526, Control_c, 0, 64, 88
1, 95541, Control_c, 0, 64, 79
1, 95556, Control_c, 0, 64, 68
1, 95571, Control_c, 0, 64, 37
1, 95585, Control_c, 0, 64, 0
1, 95890, Control_c, 0, 64, 13
1, 95905, Control_c, 0, 64, 21
1, 95920, Control_c, 0, 64, 29
1, 95935, Control_c, 0, 64, 39
1, 95950, Control_c, 0, 64, 47
1, 95964, Control_c, 0, 64, 54
1, 95979, Control_c, 0, 64, 59
1, 95994, Control_c, 0, 64, 63
1, 96006, Note_on_c, 0, 53, 31
1, 96008, Control_c, 0, 64, 66
1, 96012, Note_on_c, 0, 65, 33
1, 96016, Note_on_c, 0, 60, 15
1, 96020, Note_on_c, 0, 63, 33
1, 96023, Control_c, 0, 64, 70
1, 96028, Note_on_c, 0, 44, 19
1, 96033, Note_on_c, 0, 32, 18
1, 96038, Control_c, 0, 64, 77
1, 96053, Control_c, 0, 64, 84
1, 96068, Note_on_c, 0, 36, 17
1, 96068, Control_c, 0, 64, 92
1, 96083, Control_c, 0, 64, 102
1, 96097, Control_c, 0, 64, 108
1, 96112, Control_c, 0, 64, 111
1, 96127, Control_c, 0, 64, 112
1, 96142, Control_c, 0, 64, 113
1, 96157, Control_c, 0, 64, 114
1, 96169, Note_off_c, 0, 36, 36
1, 96172, Control_c, 0, 64, 115
1, 96173, Note_off_c, 0, 32, 42
1, 96174, Note_off_c, 0, 44, 41
1, 96187, Control_c, 0, 64, 116
1, 96188, Note_off_c, 0, 60, 53
1, 96197, Note_off_c, 0, 53, 41
1, 96197, Note_off_c, 0, 63, 42
1, 96201, Note_off_c, 0, 65, 51
1, 96202, Control_c, 0, 64, 117
1, 96202, Control_c, 0, 67, 125
1, 96216, Control_c, 0, 64, 118
1, 96216, Control_c, 0, 67, 123
1, 96231, Control_c, 0, 64, 119
1, 96231, Control_c, 0, 67, 121
1, 96246, Control_c, 0, 67, 120
1, 96261, Control_c, 0, 67, 119
1, 96276, Control_c, 0, 67, 118
1, 96305, Control_c, 0, 67, 117
1, 96320, Control_c, 0, 67, 116
1, 96335, Control_c, 0, 64, 118
1, 96335, Control_c, 0, 67, 114
1, 96350, Control_c, 0, 64, 116
1, 96350, Control_c, 0, 67, 112
1, 96364, Control_c, 0, 64, 109
1, 96364, Control_c, 0, 67, 107
1, 96379, Control_c, 0, 64, 100
1, 96379, Control_c, 0, 67, 101
1, 96394, Control_c, 0, 64, 92
1, 96394, Control_c, 0, 67, 96
1, 96408, Control_c, 0, 64, 85
1, 96408, Control_c, 0, 67, 91
1, 96410, Note_on_c, 0, 60, 51
1, 96411, Note_on_c, 0, 65, 54
1, 96413, Note_on_c, 0, 53, 46
1, 96417, Note_on_c, 0, 44, 41
1, 96417, Note_on_c, 0, 63, 51
1, 96423, Control_c, 0, 64, 79
1, 96423, Control_c, 0, 67, 87
1, 96438, Note_on_c, 0, 32, 36
1, 96438, Control_c, 0, 64, 77
1, 96438, Control_c, 0, 67, 83
1, 96453, Control_c, 0, 64, 76
1, 96453, Control_c, 0, 67, 80
1, 96458, Note_on_c, 0, 36, 25
1, 96468, Control_c, 0, 67, 77
1, 96482, Control_c, 0, 64, 78
1, 96482, Control_c, 0, 67, 71
1, 96497, Control_c, 0, 64, 83
1, 96497, Control_c, 0, 67, 65
1, 96512, Control_c, 0, 64, 90
1, 96512, Control_c, 0, 67, 60
1, 96527, Control_c, 0, 64, 96
1, 96527, Control_c, 0, 67, 56
1, 96542, Control_c, 0, 64, 103
1, 96542, Control_c, 0, 67, 53
1, 96562, Note_off_c, 0, 36, 38
1, 96564, Control_c, 0, 64, 107
1, 96564, Control_c, 0, 67, 51
1, 96577, Note_off_c, 0, 32, 35
1, 96578, Note_off_c, 0, 60, 56
1, 96579, Control_c, 0, 64, 111
1, 96579, Control_c, 0, 67, 49
1, 96583, Note_off_c, 0, 53, 57
1, 96583, Note_off_c, 0, 44, 34
1, 96591, Note_off_c, 0, 63, 55
1, 96592, Note_off_c, 0, 65, 55
1, 96594, Control_c, 0, 64, 114
1, 96594, Control_c, 0, 67, 46
1, 96608, Control_c, 0, 64, 117
1, 96608, Control_c, 0, 67, 43
1, 96623, Control_c, 0, 64, 119
1, 96623, Control_c, 0, 67, 41
1, 96638, Control_c, 0, 64, 123
1, 96638, Control_c, 0, 67, 37
1, 96653, Control_c, 0, 64, 127
1, 96653, Control_c, 0, 67, 33
1, 96668, Control_c, 0, 67, 28
1, 96684, Control_c, 0, 67, 21
1, 96699, Control_c, 0, 67, 14
1, 96713, Control_c, 0, 67, 9
1, 96728, Control_c, 0, 67, 0
1, 96790, Note_on_c, 0, 60, 56
1, 96793, Note_on_c, 0, 53, 55
1, 96795, Note_on_c, 0, 65, 63
1, 96795, Note_on_c, 0, 44, 45
1, 96799, Note_on_c, 0, 63, 58
1, 96804, Note_on_c, 0, 32, 34
1, 96825, Note_on_c, 0, 36, 32
1, 96891, Note_off_c, 0, 44, 58
1, 96924, Note_off_c, 0, 32, 36
1, 96929, Note_off_c, 0, 53, 62
1, 96934, Note_off_c, 0, 36, 37
1, 96942, Note_off_c, 0, 65, 60
1, 96953, Note_off_c, 0, 60, 57
1, 96963, Note_off_c, 0, 63, 60
1, 97197, Note_on_c, 0, 63, 62
1, 97203, Note_on_c, 0, 66, 69
1, 97203, Note_on_c, 0, 60, 59
1, 97207, Note_on_c, 0, 54, 54
1, 97209, Note_on_c, 0, 44, 47
1, 97211, Note_on_c, 0, 32, 44
1, 97217, Control_c, 0, 64, 117
1, 97227, Note_on_c, 0, 36, 43
1, 97231, Control_c, 0, 64, 105
1, 97246, Control_c, 0, 64, 95
1, 97261, Control_c, 0, 64, 84
1, 97276, Control_c, 0, 64, 72
1, 97291, Control_c, 0, 64, 57
1, 97313, Control_c, 0, 64, 0
1, 97402, Control_c, 0, 64, 41
1, 97417, Control_c, 0, 64, 65
1, 97431, Control_c, 0, 64, 73
1, 97446, Control_c, 0, 64, 85
1, 97461, Control_c, 0, 64, 97
1, 97477, Control_c, 0, 64, 108
1, 97492, Control_c, 0, 64, 118
1, 97507, Control_c, 0, 64, 126
1, 97522, Control_c, 0, 64, 127
1, 97782, Note_off_c, 0, 54, 49
1, 97793, Note_off_c, 0, 63, 55
1, 97798, Note_off_c, 0, 60, 53
1, 97812, Note_off_c, 0, 66, 58
1, 97880, Note_off_c, 0, 44, 55
1, 97886, Note_off_c, 0, 32, 40
1, 97895, Note_off_c, 0, 36, 41
1, 98472, Note_on_c, 0, 44, 48
1, 98473, Note_on_c, 0, 54, 56
1, 98476, Note_on_c, 0, 63, 57
1, 98476, Note_on_c, 0, 60, 55
1, 98476, Note_on_c, 0, 66, 62
1, 98477, Note_on_c, 0, 32, 49
1, 98492, Control_c, 0, 64, 115
1, 98493, Note_on_c, 0, 36, 43
1, 98507, Control_c, 0, 64, 104
1, 98522, Control_c, 0, 64, 100
1, 98537, Control_c, 0, 64, 99
1, 98566, Control_c, 0, 64, 100
1, 98581, Control_c, 0, 64, 103
1, 98595, Control_c, 0, 64, 110
1, 98610, Control_c, 0, 64, 127
1, 98631, Note_off_c, 0, 44, 60
1, 98637, Note_off_c, 0, 54, 53
1, 98638, Note_off_c, 0, 66, 60
1, 98656, Note_off_c, 0, 63, 62
1, 98660, Note_off_c, 0, 32, 39
1, 98665, Note_off_c, 0, 60, 59
1, 98682, Note_off_c, 0, 36, 40
1, 98885, Note_on_c, 0, 32, 65
1, 98886, Note_on_c, 0, 44, 70
1, 98887, Note_on_c, 0, 66, 80
1, 98891, Note_on_c, 0, 63, 77
1, 98892, Note_on_c, 0, 54, 72
1, 98894, Note_on_c, 0, 60, 72
1, 98896, Note_on_c, 0, 36, 56
1, 98998, Note_off_c, 0, 54, 58
1, 99009, Note_off_c, 0, 44, 57
1, 99010, Note_off_c, 0, 60, 58
1, 99018, Note_off_c, 0, 63, 62
1, 99019, Note_off_c, 0, 32, 0
1, 99022, Note_off_c, 0, 66, 60
1, 99034, Note_off_c, 0, 36, 52
1, 99051, Poly_aftertouch_c, 0, 32, 0
1, 99252, Note_on_c, 0, 44, 80
1, 99255, Note_on_c, 0, 32, 74
1, 99260, Note_on_c, 0, 63, 83
1, 99260, Note_on_c, 0, 66, 82
1, 99262, Note_on_c, 0, 54, 87
1, 99265, Note_on_c, 0, 60, 77
1, 99268, Note_on_c, 0, 36, 64
1, 99372, Note_off_c, 0, 36, 57
1, 99380, Note_off_c, 0, 44, 62
1, 99383, Note_off_c, 0, 54, 58
1, 99391, Note_off_c, 0, 60, 57
1, 99394, Note_off_c, 0, 63, 61
1, 99407, Note_off_c, 0, 32, 56
1, 99414, Note_off_c, 0, 66, 64
1, 99745, Note_on_c, 0, 60, 83
1, 99745, Note_on_c, 0, 63, 90
1, 99747, Note_on_c, 0, 67, 87
1, 99749, Note_on_c, 0, 43, 83
1, 99749, Note_on_c, 0, 55, 84
1, 99752, Control_c, 0, 64, 120
1, 99752, Note_on_c, 0, 36, 74
1, 99754, Note_on_c, 0, 31, 70
1, 99767, Control_c, 0, 64, 97
1, 99782, Control_c, 0, 64, 79
1, 99797, Control_c, 0, 64, 54
1, 99812, Control_c, 0, 64, 0
1, 99946, Control_c, 0, 64, 63
1, 99961, Control_c, 0, 64, 73
1, 99976, Control_c, 0, 64, 87
1, 99990, Control_c, 0, 64, 103
1, 100005, Control_c, 0, 64, 127
1, 100370, Note_off_c, 0, 36, 52
1, 100406, Note_off_c, 0, 63, 53
1, 100416, Note_off_c, 0, 60, 46
1, 100459, Note_off_c, 0, 67, 50
1, 100485, Note_off_c, 0, 43, 30
1, 100548, Note_off_c, 0, 31, 29
1, 100557, Note_off_c, 0, 55, 30
1, 100946, Control_c, 0, 64, 109
1, 100961, Control_c, 0, 64, 89
1, 100963, Note_on_c, 0, 43, 83
1, 100968, Note_on_c, 0, 36, 77
1, 100969, Note_on_c, 0, 31, 76
1, 100970, Note_on_c, 0, 63, 89
1, 100971, Note_on_c, 0, 60, 88
1, 100972, Note_on_c, 0, 67, 88
1, 100974, Note_on_c, 0, 55, 86
1, 100976, Control_c, 0, 64, 70
1, 100991, Control_c, 0, 64, 0
1, 101058, Control_c, 0, 64, 69
1, 101072, Control_c, 0, 64, 85
1, 101087, Control_c, 0, 64, 113
1, 101102, Control_c, 0, 64, 127
1, 101159, Note_off_c, 0, 55, 56
1, 101171, Note_off_c, 0, 43, 55
1, 101180, Note_off_c, 0, 63, 58
1, 101180, Note_off_c, 0, 60, 57
1, 101180, Note_off_c, 0, 67, 57
1, 101192, Note_off_c, 0, 36, 56
1, 101230, Note_off_c, 0, 31, 37
1, 101379, Note_on_c, 0, 67, 97
1, 101380, Note_on_c, 0, 43, 95
1, 101380, Note_on_c, 0, 60, 87
1, 101381, Note_on_c, 0, 55, 100
1, 101381, Note_on_c, 0, 63, 91
1, 101388, Note_on_c, 0, 31, 76
1, 101389, Note_on_c, 0, 36, 78
1, 101502, Note_off_c, 0, 43, 56
1, 101508, Note_off_c, 0, 55, 56
1, 101523, Note_off_c, 0, 60, 60
1, 101526, Note_off_c, 0, 63, 61
1, 101534, Note_off_c, 0, 36, 58
1, 101554, Note_off_c, 0, 31, 55
1, 101558, Note_off_c, 0, 67, 57
1, 101828, Note_on_c, 0, 60, 94
1, 101829, Note_on_c, 0, 55, 99
1, 101829, Note_on_c, 0, 63, 94
1, 101829, Note_on_c, 0, 67, 95
1, 101834, Note_on_c, 0, 43, 97
1, 101837, Note_on_c, 0, 36, 81
1, 101840, Note_on_c, 0, 31, 82
1, 101909, Note_off_c, 0, 43, 58
1, 101923, Note_off_c, 0, 55, 62
1, 101934, Note_off_c, 0, 31, 61
1, 101947, Note_off_c, 0, 60, 59
1, 101952, Note_off_c, 0, 67, 59
1, 101958, Note_off_c, 0, 63, 62
1, 102014, Note_off_c, 0, 36, 52
1, 102414, Control_c, 0, 64, 111
1, 102422, Note_on_c, 0, 60, 100
1, 102422, Note_on_c, 0, 63, 99
1, 102422, Note_on_c, 0, 69, 97
1, 102423, Note_on_c, 0, 57, 97
1, 102424, Note_on_c, 0, 42, 97
1, 102429, Note_on_c, 0, 30, 90
1, 102429, Control_c, 0, 64, 76
1, 102432, Note_on_c, 0, 36, 86
1, 102443, Control_c, 0, 64, 0
1, 102473, Control_c, 0, 64, 67
1, 102477, Note_off_c, 0, 57, 66
1, 102488, Control_c, 0, 64, 127
1, 102491, Note_off_c, 0, 30, 63
1, 102494, Note_off_c, 0, 60, 65
1, 102506, Note_off_c, 0, 42, 65
1, 102512, Note_off_c, 0, 36, 66
1, 102512, Note_off_c, 0, 63, 68
1, 102514, Note_off_c, 0, 69, 70
1, 102941, Note_on_c, 0, 87, 101
1, 102968, Control_c, 0, 64, 97
1, 102983, Control_c, 0, 64, 77
1, 102989, Note_on_c, 0, 86, 55
1, 102998, Control_c, 0, 64, 37
1, 103013, Control_c, 0, 64, 0
1, 103059, Note_off_c, 0, 86, 62
1, 103091, Note_off_c, 0, 87, 59
1, 103168, Note_on_c, 0, 81, 84
1, 103189, Note_off_c, 0, 81, 65
1, 103239, Note_on_c, 0, 81, 97
1, 103464, Note_off_c, 0, 81, 63
1, 103571, Note_on_c, 0, 59, 93
1, 103574, Note_on_c, 0, 53, 83
1, 103808, Note_off_c, 0, 59, 59
1, 103848, Note_on_c, 0, 68, 91
1, 103848, Note_off_c, 0, 53, 66
1, 104015, Control_c, 0, 64, 21
1, 104030, Control_c, 0, 64, 26
1, 104045, Note_off_c, 0, 68, 56
1, 104067, Control_c, 0, 64, 23
1, 104081, Note_on_c, 0, 62, 81
1, 104082, Control_c, 0, 64, 15
1, 104096, Control_c, 0, 64, 0
1, 104109, Note_off_c, 0, 62, 64
1, 104162, Note_on_c, 0, 62, 96
1, 104274, Control_c, 0, 64, 10
1, 104289, Control_c, 0, 64, 15
1, 104304, Control_c, 0, 64, 21
1, 104319, Control_c, 0, 64, 25
1, 104334, Control_c, 0, 64, 29
1, 104348, Control_c, 0, 64, 32
1, 104363, Control_c, 0, 64, 34
1, 104378, Control_c, 0, 64, 35
1, 104393, Control_c, 0, 64, 37
1, 104408, Control_c, 0, 64, 38
1, 104414, Note_off_c, 0, 62, 62
1, 104422, Control_c, 0, 64, 41
1, 104437, Control_c, 0, 64, 42
1, 104452, Control_c, 0, 64, 44
1, 104467, Control_c, 0, 64, 45
1, 104482, Control_c, 0, 64, 46
1, 104486, Note_on_c, 0, 43, 97
1, 104491, Note_on_c, 0, 39, 84
1, 104496, Control_c, 0, 64, 47
1, 104511, Control_c, 0, 64, 49
1, 104555, Control_c, 0, 64, 48
1, 104614, Control_c, 0, 64, 49
1, 104629, Control_c, 0, 64, 49
1, 104659, Control_c, 0, 64, 49
1, 104675, Control_c, 0, 64, 48
1, 104690, Control_c, 0, 64, 50
1, 104705, Control_c, 0, 64, 53
1, 104719, Control_c, 0, 64, 54
1, 104749, Control_c, 0, 64, 53
1, 104763, Control_c, 0, 64, 52
1, 104797, Note_on_c, 0, 55, 88
1, 104831, Control_c, 0, 64, 52
1, 104838, Note_off_c, 0, 43, 61
1, 104860, Control_c, 0, 64, 52
1, 104874, Note_off_c, 0, 39, 63
1, 104905, Control_c, 0, 64, 52
1, 104933, Note_off_c, 0, 55, 56
1, 104934, Control_c, 0, 64, 53
1, 104949, Control_c, 0, 64, 53
1, 104963, Control_c, 0, 64, 54
1, 105008, Control_c, 0, 64, 53
1, 105023, Control_c, 0, 64, 53
1, 105024, Note_on_c, 0, 48, 83
1, 105037, Control_c, 0, 64, 52
1, 105049, Note_off_c, 0, 48, 69
1, 105067, Control_c, 0, 64, 53
1, 105100, Note_on_c, 0, 48, 96
1, 105127, Control_c, 0, 64, 52
1, 105141, Control_c, 0, 64, 51
1, 105156, Control_c, 0, 64, 50
1, 105186, Control_c, 0, 64, 50
1, 105201, Control_c, 0, 64, 51
1, 105275, Control_c, 0, 64, 50
1, 105319, Control_c, 0, 64, 50
1, 105349, Control_c, 0, 64, 48
1, 105363, Control_c, 0, 64, 47
1, 105375, Note_off_c, 0, 48, 62
1, 105378, Control_c, 0, 64, 45
1, 105393, Control_c, 0, 64, 43
1, 105404, Note_on_c, 0, 41, 96
1, 105408, Control_c, 0, 64, 43
1, 105423, Control_c, 0, 64, 43
1, 105483, Control_c, 0, 64, 42
1, 105498, Control_c, 0, 64, 42
1, 105528, Control_c, 0, 64, 42
1, 105550, Control_c, 0, 64, 44
1, 105565, Control_c, 0, 64, 44
1, 105580, Control_c, 0, 64, 46
1, 105636, Note_on_c, 0, 35, 73
1, 105639, Control_c, 0, 64, 44
1, 105651, Note_on_c, 0, 36, 54
1, 105654, Control_c, 0, 64, 43
1, 105654, Note_off_c, 0, 41, 65
1, 105668, Control_c, 0, 64, 42
1, 105675, Note_off_c, 0, 35, 65
1, 105682, Note_off_c, 0, 36, 54
1, 105683, Control_c, 0, 64, 39
1, 105698, Control_c, 0, 64, 32
1, 105713, Control_c, 0, 64, 27
1, 105717, Note_on_c, 0, 35, 92
1, 105728, Control_c, 0, 64, 24
1, 105742, Control_c, 0, 64, 23
1, 105757, Control_c, 0, 64, 21
1, 105772, Control_c, 0, 64, 17
1, 105787, Control_c, 0, 64, 0
1, 106001, Poly_aftertouch_c, 0, 38, 127
1, 106050, Poly_aftertouch_c, 0, 38, 0
1, 106052, Note_off_c, 0, 35, 64
1, 106061, Note_on_c, 0, 50, 97
1, 106061, Note_on_c, 0, 53, 87
1, 106063, Note_on_c, 0, 55, 88
1, 106068, Control_c, 0, 64, 48
1, 106083, Control_c, 0, 64, 78
1, 106098, Control_c, 0, 64, 127
1, 106467, Note_off_c, 0, 50, 60
1, 106495, Note_off_c, 0, 53, 61
1, 106501, Note_on_c, 0, 36, 87
1, 106502, Note_off_c, 0, 55, 60
1, 106506, Control_c, 0, 64, 113
1, 106521, Control_c, 0, 64, 88
1, 106521, Control_c, 0, 67, 19
1, 106536, Control_c, 0, 64, 67
1, 106536, Control_c, 0, 67, 38
1, 106546, Note_off_c, 0, 36, 64
1, 106550, Control_c, 0, 64, 0
1, 106550, Control_c, 0, 67, 63
1, 106565, Control_c, 0, 67, 88
1, 106580, Control_c, 0, 67, 114
1, 106595, Control_c, 0, 67, 127
1, 106690, Note_on_c, 0, 48, 70
1, 106730, Note_off_c, 0, 48, 62
1, 106838, Note_on_c, 0, 48, 51
1, 106868, Note_off_c, 0, 48, 63
1, 106956, Note_on_c, 0, 48, 62
1, 107001, Note_off_c, 0, 48, 65
1, 107128, Note_on_c, 0, 48, 46
1, 107156, Note_off_c, 0, 48, 56
1, 107237, Note_on_c, 0, 48, 53
1, 107267, Note_off_c, 0, 48, 63
1, 107356, Note_on_c, 0, 83, 56
1, 107414, Note_on_c, 0, 57, 40
1, 107418, Note_on_c, 0, 60, 40
1, 107420, Note_off_c, 0, 83, 55
1, 107422, Note_on_c, 0, 84, 71
1, 107433, Control_c, 0, 64, 66
1, 107447, Control_c, 0, 64, 79
1, 107462, Control_c, 0, 64, 95
1, 107477, Control_c, 0, 64, 98
1, 107507, Control_c, 0, 64, 97
1, 107521, Control_c, 0, 64, 93
1, 107536, Control_c, 0, 64, 86
1, 107551, Control_c, 0, 64, 75
1, 107561, Note_on_c, 0, 48, 54
1, 107565, Control_c, 0, 64, 62
1, 107580, Control_c, 0, 64, 0
1, 107589, Note_off_c, 0, 48, 57
1, 107634, Note_off_c, 0, 84, 51
1, 107643, Note_on_c, 0, 77, 69
1, 107668, Note_off_c, 0, 77, 66
1, 107708, Note_on_c, 0, 48, 46
1, 107720, Note_on_c, 0, 77, 65
1, 107752, Note_off_c, 0, 48, 60
1, 107895, Note_on_c, 0, 48, 50
1, 107909, Note_off_c, 0, 77, 64
1, 107929, Note_off_c, 0, 48, 65
1, 108036, Note_on_c, 0, 48, 53
1, 108061, Note_off_c, 0, 48, 64
1, 108127, Note_off_c, 0, 60, 48
1, 108167, Note_on_c, 0, 48, 53
1, 108176, Note_off_c, 0, 57, 61
1, 108200, Note_off_c, 0, 48, 66
1, 108266, Note_on_c, 0, 71, 48
1, 108323, Note_off_c, 0, 71, 56
1, 108328, Note_on_c, 0, 72, 61
1, 108337, Note_on_c, 0, 55, 44
1, 108340, Note_on_c, 0, 59, 48
1, 108475, Note_on_c, 0, 48, 49
1, 108501, Note_off_c, 0, 72, 60
1, 108519, Note_off_c, 0, 48, 63
1, 108528, Note_on_c, 0, 64, 63
1, 108563, Note_off_c, 0, 64, 67
1, 108617, Note_on_c, 0, 64, 69
1, 108636, Note_on_c, 0, 48, 56
1, 108677, Note_off_c, 0, 48, 63
1, 108762, Note_off_c, 0, 64, 64
1, 108799, Note_on_c, 0, 48, 52
1, 108831, Note_off_c, 0, 48, 66
1, 108936, Note_on_c, 0, 48, 63
1, 108970, Note_off_c, 0, 48, 64
1, 109017, Note_off_c, 0, 59, 45
1, 109074, Note_on_c, 0, 48, 62
1, 109107, Note_off_c, 0, 55, 35
1, 109109, Note_off_c, 0, 48, 64
1, 109224, Note_on_c, 0, 72, 80
1, 109243, Note_on_c, 0, 57, 62
1, 109246, Note_on_c, 0, 48, 50
1, 109247, Note_on_c, 0, 53, 53
1, 109274, Note_off_c, 0, 57, 64
1, 109275, Note_off_c, 0, 48, 64
1, 109277, Note_off_c, 0, 72, 64
1, 109291, Note_on_c, 0, 62, 72
1, 109291, Note_off_c, 0, 53, 66
1, 109319, Note_off_c, 0, 62, 66
1, 109372, Note_on_c, 0, 48, 62
1, 109417, Note_off_c, 0, 48, 63
1, 109443, Note_on_c, 0, 62, 13
1, 109487, Note_off_c, 0, 62, 38
1, 109523, Note_on_c, 0, 72, 80
1, 109539, Note_on_c, 0, 56, 68
1, 109540, Note_on_c, 0, 53, 60
1, 109561, Note_on_c, 0, 48, 37
1, 109575, Note_off_c, 0, 72, 66
1, 109576, Note_off_c, 0, 56, 61
1, 109579, Note_off_c, 0, 53, 65
1, 109589, Note_on_c, 0, 62, 67
1, 109591, Note_off_c, 0, 48, 47
1, 109620, Note_off_c, 0, 62, 64
1, 109620, Control_c, 0, 67, 126
1, 109649, Control_c, 0, 67, 126
1, 109664, Control_c, 0, 67, 125
1, 109669, Note_on_c, 0, 48, 63
1, 109707, Note_off_c, 0, 48, 62
1, 109768, Control_c, 0, 67, 125
1, 109783, Control_c, 0, 67, 124
1, 109798, Control_c, 0, 67, 123
1, 109813, Control_c, 0, 67, 121
1, 109821, Note_on_c, 0, 71, 67
1, 109829, Note_on_c, 0, 55, 63
1, 109830, Note_on_c, 0, 53, 55
1, 109846, Note_on_c, 0, 48, 16
1, 109856, Note_off_c, 0, 71, 59
1, 109863, Note_off_c, 0, 55, 65
1, 109871, Note_off_c, 0, 53, 66
1, 109876, Note_on_c, 0, 62, 50
1, 109883, Note_off_c, 0, 48, 42
1, 109887, Control_c, 0, 67, 120
1, 109903, Note_off_c, 0, 62, 57
1, 109976, Note_on_c, 0, 48, 50
1, 110001, Note_off_c, 0, 48, 57
1, 110087, Control_c, 0, 67, 120
1, 110116, Control_c, 0, 67, 119
1, 110118, Note_on_c, 0, 72, 57
1, 110131, Note_on_c, 0, 52, 51
1, 110131, Control_c, 0, 67, 117
1, 110137, Note_on_c, 0, 55, 49
1, 110145, Note_on_c, 0, 48, 20
1, 110146, Control_c, 0, 67, 111
1, 110160, Control_c, 0, 67, 103
1, 110174, Note_off_c, 0, 72, 61
1, 110175, Control_c, 0, 67, 96
1, 110176, Note_off_c, 0, 52, 63
1, 110176, Note_off_c, 0, 55, 63
1, 110181, Note_off_c, 0, 48, 49
1, 110183, Note_on_c, 0, 60, 58
1, 110190, Control_c, 0, 67, 91
1, 110205, Control_c, 0, 67, 87
1, 110212, Note_off_c, 0, 60, 63
1, 110220, Control_c, 0, 67, 85
1, 110234, Control_c, 0, 67, 84
1, 110249, Control_c, 0, 67, 83
1, 110265, Control_c, 0, 67, 81
1, 110279, Note_on_c, 0, 48, 52
1, 110280, Control_c, 0, 67, 75
1, 110295, Control_c, 0, 67, 69
1, 110310, Control_c, 0, 67, 63
1, 110314, Note_off_c, 0, 48, 65
1, 110325, Control_c, 0, 67, 60
1, 110339, Control_c, 0, 67, 56
1, 110354, Control_c, 0, 67, 52
1, 110369, Control_c, 0, 67, 46
1, 110383, Control_c, 0, 67, 40
1, 110398, Control_c, 0, 67, 35
1, 110413, Control_c, 0, 67, 35
1, 110423, Note_on_c, 0, 48, 51
1, 110428, Control_c, 0, 67, 34
1, 110443, Control_c, 0, 67, 34
1, 110457, Control_c, 0, 67, 32
1, 110466, Note_off_c, 0, 48, 61
1, 110472, Control_c, 0, 67, 29
1, 110487, Control_c, 0, 67, 26
1, 110502, Control_c, 0, 67, 25
1, 110517, Control_c, 0, 67, 24
1, 110531, Control_c, 0, 67, 21
1, 110546, Control_c, 0, 67, 17
1, 110561, Control_c, 0, 67, 11
1, 110571, Note_on_c, 0, 48, 59
1, 110576, Control_c, 0, 67, 0
1, 110605, Note_off_c, 0, 48, 64
1, 110716, Note_on_c, 0, 48, 55
1, 110748, Note_off_c, 0, 48, 66
1, 110851, Note_on_c, 0, 48, 60
1, 110891, Note_off_c, 0, 48, 61
1, 111022, Note_on_c, 0, 84, 75
1, 111033, Note_on_c, 0, 57, 49
1, 111035, Note_on_c, 0, 60, 55
1, 111078, Note_off_c, 0, 84, 61
1, 111085, Note_on_c, 0, 86, 74
1, 111131, Note_on_c, 0, 84, 72
1, 111149, Note_off_c, 0, 86, 65
1, 111166, Note_on_c, 0, 48, 57
1, 111187, Note_off_c, 0, 84, 66
1, 111195, Note_on_c, 0, 83, 71
1, 111202, Note_off_c, 0, 48, 63
1, 111243, Note_on_c, 0, 84, 70
1, 111254, Note_off_c, 0, 83, 59
1, 111320, Note_on_c, 0, 77, 71
1, 111328, Note_on_c, 0, 48, 52
1, 111339, Note_off_c, 0, 84, 62
1, 111370, Note_off_c, 0, 48, 64
1, 111370, Note_off_c, 0, 77, 63
1, 111485, Note_on_c, 0, 48, 53
1, 111518, Note_off_c, 0, 48, 66
1, 111518, Control_c, 0, 67, 11
1, 111540, Control_c, 0, 67, 19
1, 111555, Control_c, 0, 67, 33
1, 111570, Control_c, 0, 67, 45
1, 111585, Control_c, 0, 67, 55
1, 111600, Control_c, 0, 67, 64
1, 111614, Control_c, 0, 67, 73
1, 111629, Control_c, 0, 67, 80
1, 111637, Note_on_c, 0, 48, 49
1, 111644, Control_c, 0, 67, 85
1, 111659, Control_c, 0, 67, 92
1, 111665, Note_off_c, 0, 48, 60
1, 111674, Control_c, 0, 67, 98
1, 111688, Control_c, 0, 67, 105
1, 111703, Control_c, 0, 67, 111
1, 111718, Control_c, 0, 67, 116
1, 111732, Control_c, 0, 67, 121
1, 111747, Control_c, 0, 67, 124
1, 111762, Control_c, 0, 67, 126
1, 111765, Note_on_c, 0, 48, 54
1, 111777, Control_c, 0, 67, 127
1, 111781, Note_off_c, 0, 60, 51
1, 111792, Note_off_c, 0, 57, 62
1, 111802, Note_off_c, 0, 48, 65
1, 111924, Note_on_c, 0, 72, 61
1, 111954, Note_on_c, 0, 55, 49
1, 111959, Note_off_c, 0, 72, 63
1, 111963, Note_on_c, 0, 59, 44
1, 111995, Note_on_c, 0, 74, 55
1, 112038, Note_off_c, 0, 74, 62
1, 112045, Note_on_c, 0, 72, 57
1, 112077, Note_off_c, 0, 72, 68
1, 112089, Note_on_c, 0, 48, 46
1, 112096, Note_on_c, 0, 71, 50
1, 112128, Note_off_c, 0, 48, 64
1, 112138, Note_off_c, 0, 71, 48
1, 112159, Note_on_c, 0, 72, 61
1, 112217, Note_on_c, 0, 64, 59
1, 112233, Note_on_c, 0, 48, 55
1, 112238, Note_off_c, 0, 72, 62
1, 112257, Note_off_c, 0, 64, 66
1, 112266, Note_off_c, 0, 48, 66
1, 112267, Control_c, 0, 67, 126
1, 112290, Control_c, 0, 67, 125
1, 112305, Control_c, 0, 67, 125
1, 112319, Control_c, 0, 67, 124
1, 112334, Control_c, 0, 67, 123
1, 112349, Control_c, 0, 67, 123
1, 112363, Control_c, 0, 67, 122
1, 112378, Control_c, 0, 67, 120
1, 112381, Note_on_c, 0, 48, 59
1, 112393, Control_c, 0, 67, 119
1, 112408, Control_c, 0, 67, 117
1, 112412, Note_off_c, 0, 59, 0
1, 112412, Note_on_c, 0, 59, 3
1, 112414, Note_off_c, 0, 48, 66
1, 112423, Control_c, 0, 67, 113
1, 112437, Control_c, 0, 67, 107
1, 112452, Control_c, 0, 67, 100
1, 112467, Control_c, 0, 67, 94
1, 112482, Control_c, 0, 67, 91
1, 112497, Control_c, 0, 67, 87
1, 112511, Control_c, 0, 67, 78
1, 112525, Note_on_c, 0, 48, 58
1, 112526, Control_c, 0, 67, 60
1, 112541, Control_c, 0, 67, 38
1, 112555, Control_c, 0, 67, 14
1, 112557, Note_off_c, 0, 48, 65
1, 112570, Control_c, 0, 67, 0
1, 112650, Note_on_c, 0, 48, 62
1, 112650, Note_off_c, 0, 59, 38
1, 112689, Note_off_c, 0, 48, 63
1, 112706, Note_off_c, 0, 55, 61
1, 112805, Note_on_c, 0, 72, 83
1, 112815, Note_on_c, 0, 48, 65
1, 112824, Note_on_c, 0, 57, 65
1, 112832, Note_on_c, 0, 53, 42
1, 112852, Note_off_c, 0, 48, 64
1, 112856, Note_off_c, 0, 57, 62
1, 112863, Note_off_c, 0, 72, 65
1, 112870, Note_off_c, 0, 53, 51
1, 112883, Note_on_c, 0, 62, 62
1, 112903, Note_off_c, 0, 62, 61
1, 112958, Note_on_c, 0, 48, 62
1, 112996, Note_off_c, 0, 48, 65
1, 113101, Note_on_c, 0, 72, 77
1, 113110, Note_on_c, 0, 56, 74
1, 113115, Note_on_c, 0, 53, 62
1, 113123, Note_on_c, 0, 48, 45
1, 113141, Note_off_c, 0, 56, 67
1, 113151, Note_off_c, 0, 48, 61
1, 113153, Note_off_c, 0, 72, 65
1, 113157, Note_off_c, 0, 53, 65
1, 113165, Note_on_c, 0, 62, 67
1, 113193, Note_off_c, 0, 62, 65
1, 113236, Note_on_c, 0, 48, 65
1, 113281, Note_off_c, 0, 48, 65
1, 113387, Note_on_c, 0, 53, 65
1, 113390, Note_on_c, 0, 55, 71
1, 113390, Note_on_c, 0, 71, 74
1, 113424, Note_off_c, 0, 55, 65
1, 113431, Note_off_c, 0, 71, 61
1, 113436, Note_off_c, 0, 53, 65
1, 113437, Control_c, 0, 67, 8
1, 113446, Note_on_c, 0, 62, 46
1, 113452, Control_c, 0, 67, 12
1, 113467, Control_c, 0, 67, 17
1, 113482, Control_c, 0, 67, 20
1, 113497, Control_c, 0, 67, 21
1, 113497, Note_off_c, 0, 62, 60
1, 113505, Note_on_c, 0, 48, 47
1, 113512, Control_c, 0, 67, 20
1, 113542, Note_off_c, 0, 48, 65
1, 113571, Control_c, 0, 67, 20
1, 113586, Control_c, 0, 67, 21
1, 113600, Control_c, 0, 67, 22
1, 113615, Control_c, 0, 67, 27
1, 113630, Control_c, 0, 67, 36
1, 113645, Control_c, 0, 67, 47
1, 113660, Control_c, 0, 67, 56
1, 113671, Note_on_c, 0, 48, 64
1, 113673, Note_on_c, 0, 55, 66
1, 113674, Note_on_c, 0, 72, 64
1, 113674, Control_c, 0, 67, 66
1, 113678, Note_on_c, 0, 52, 66
1, 113686, Note_on_c, 0, 60, 75
1, 113689, Control_c, 0, 67, 71
1, 113691, Note_off_c, 0, 72, 67
1, 113697, Note_off_c, 0, 48, 67
1, 113700, Note_off_c, 0, 55, 65
1, 113704, Control_c, 0, 67, 72
1, 113705, Note_off_c, 0, 52, 69
1, 113709, Note_off_c, 0, 60, 68
1, 113719, Control_c, 0, 67, 70
1, 113733, Control_c, 0, 67, 69
1, 113748, Control_c, 0, 67, 69
1, 113763, Control_c, 0, 67, 68
1, 113786, Control_c, 0, 67, 68
1, 113824, Note_on_c, 0, 52, 60
1, 113826, Note_on_c, 0, 55, 58
1, 113830, Control_c, 0, 67, 67
1, 113845, Control_c, 0, 67, 67
1, 113859, Note_off_c, 0, 52, 66
1, 113860, Control_c, 0, 67, 66
1, 113868, Note_off_c, 0, 55, 64
1, 113875, Control_c, 0, 67, 66
1, 113889, Control_c, 0, 67, 65
1, 113963, Control_c, 0, 67, 65
1, 113970, Note_on_c, 0, 52, 57
1, 113972, Note_on_c, 0, 55, 56
1, 113978, Control_c, 0, 67, 64
1, 113996, Note_off_c, 0, 52, 66
1, 114004, Note_off_c, 0, 55, 66
1, 114022, Control_c, 0, 67, 64
1, 114099, Note_on_c, 0, 55, 52
1, 114102, Note_on_c, 0, 52, 46
1, 114129, Note_off_c, 0, 52, 64
1, 114133, Note_off_c, 0, 55, 65
1, 114141, Control_c, 0, 67, 63
1, 114233, Note_on_c, 0, 55, 53
1, 114236, Note_on_c, 0, 52, 50
1, 114266, Note_off_c, 0, 52, 64
1, 114272, Note_off_c, 0, 55, 63
1, 114349, Control_c, 0, 67, 63
1, 114380, Note_on_c, 0, 52, 54
1, 114387, Note_on_c, 0, 55, 47
1, 114416, Note_off_c, 0, 52, 66
1, 114423, Control_c, 0, 67, 62
1, 114424, Note_off_c, 0, 55, 64
1, 114535, Note_on_c, 0, 47, 65
1, 114549, Note_on_c, 0, 55, 51
1, 114555, Note_on_c, 0, 53, 54
1, 114579, Note_off_c, 0, 47, 65
1, 114579, Control_c, 0, 67, 63
1, 114587, Note_off_c, 0, 55, 65
1, 114588, Note_off_c, 0, 53, 66
1, 114597, Note_on_c, 0, 37, 57
1, 114627, Note_off_c, 0, 37, 65
1, 114681, Note_on_c, 0, 53, 54
1, 114684, Note_on_c, 0, 55, 52
1, 114712, Control_c, 0, 67, 62
1, 114716, Note_off_c, 0, 53, 66
1, 114719, Note_off_c, 0, 55, 64
1, 114839, Note_on_c, 0, 47, 70
1, 114858, Note_on_c, 0, 53, 61
1, 114865, Note_on_c, 0, 55, 51
1, 114892, Note_on_c, 0, 37, 71
1, 114893, Note_off_c, 0, 47, 63
1, 114895, Note_off_c, 0, 53, 65
1, 114902, Note_off_c, 0, 55, 64
1, 114926, Note_off_c, 0, 37, 68
1, 114964, Control_c, 0, 67, 62
1, 115006, Note_on_c, 0, 55, 49
1, 115013, Note_on_c, 0, 53, 50
1, 115039, Note_off_c, 0, 53, 64
1, 115043, Note_off_c, 0, 55, 65
1, 115133, Note_on_c, 0, 47, 67
1, 115157, Note_on_c, 0, 53, 55
1, 115162, Note_on_c, 0, 55, 47
1, 115189, Note_off_c, 0, 47, 62
1, 115197, Note_off_c, 0, 53, 67
1, 115198, Note_on_c, 0, 37, 62
1, 115202, Note_off_c, 0, 55, 64
1, 115217, Control_c, 0, 67, 62
1, 115227, Note_off_c, 0, 37, 66
1, 115307, Note_on_c, 0, 55, 60
1, 115315, Note_on_c, 0, 53, 54
1, 115348, Note_off_c, 0, 55, 63
1, 115349, Note_off_c, 0, 53, 67
1, 115372, Control_c, 0, 67, 62
1, 115454, Note_on_c, 0, 48, 51
1, 115477, Note_on_c, 0, 52, 63
1, 115478, Note_on_c, 0, 55, 55
1, 115500, Note_off_c, 0, 48, 64
1, 115513, Note_off_c, 0, 52, 66
1, 115515, Note_on_c, 0, 36, 56
1, 115518, Note_off_c, 0, 55, 64
1, 115544, Note_off_c, 0, 36, 60
1, 115551, Control_c, 0, 67, 62
1, 115625, Note_on_c, 0, 55, 50
1, 115625, Note_on_c, 0, 52, 55
1, 115653, Control_c, 0, 67, 63
1, 115660, Note_off_c, 0, 55, 63
1, 115664, Note_off_c, 0, 52, 65
1, 115697, Control_c, 0, 67, 63
1, 115786, Control_c, 0, 64, 10
1, 115801, Control_c, 0, 64, 62
1, 115804, Note_on_c, 0, 67, 78
1, 115808, Note_on_c, 0, 52, 56
1, 115816, Control_c, 0, 64, 72
1, 115816, Control_c, 0, 67, 64
1, 115820, Note_on_c, 0, 55, 48
1, 115831, Control_c, 0, 64, 83
1, 115847, Control_c, 0, 64, 97
1, 115852, Note_off_c, 0, 52, 61
1, 115860, Note_off_c, 0, 55, 63
1, 115862, Control_c, 0, 64, 106
1, 115864, Note_off_c, 0, 67, 61
1, 115876, Control_c, 0, 64, 108
1, 115906, Control_c, 0, 64, 108
1, 115906, Control_c, 0, 67, 63
1, 115920, Control_c, 0, 64, 109
1, 115935, Control_c, 0, 64, 109
1, 115960, Note_on_c, 0, 52, 56
1, 115968, Note_on_c, 0, 55, 52
1, 115992, Note_off_c, 0, 52, 65
1, 116007, Note_off_c, 0, 55, 63
1, 116047, Control_c, 0, 64, 108
1, 116062, Control_c, 0, 64, 105
1, 116076, Control_c, 0, 64, 96
1, 116091, Control_c, 0, 64, 86
1, 116100, Note_on_c, 0, 72, 75
1, 116106, Control_c, 0, 64, 74
1, 116120, Control_c, 0, 64, 60
1, 116120, Control_c, 0, 67, 63
1, 116123, Note_on_c, 0, 55, 55
1, 116125, Note_on_c, 0, 52, 60
1, 116126, Note_off_c, 0, 72, 68
1, 116135, Control_c, 0, 64, 0
1, 116150, Control_c, 0, 67, 62
1, 116161, Note_off_c, 0, 52, 64
1, 116165, Note_off_c, 0, 55, 62
1, 116254, Control_c, 0, 67, 63
1, 116262, Note_on_c, 0, 52, 59
1, 116266, Note_on_c, 0, 55, 53
1, 116284, Control_c, 0, 67, 64
1, 116294, Note_off_c, 0, 52, 66
1, 116306, Note_off_c, 0, 55, 64
1, 116343, Control_c, 0, 67, 63
1, 116395, Note_on_c, 0, 47, 72
1, 116424, Note_on_c, 0, 55, 60
1, 116426, Note_on_c, 0, 53, 63
1, 116449, Note_off_c, 0, 47, 63
1, 116454, Note_on_c, 0, 37, 73
1, 116462, Note_off_c, 0, 53, 66
1, 116467, Note_off_c, 0, 55, 64
1, 116489, Note_off_c, 0, 37, 68
1, 116535, Control_c, 0, 67, 63
1, 116579, Note_on_c, 0, 53, 50
1, 116589, Note_on_c, 0, 55, 47
1, 116594, Control_c, 0, 67, 63
1, 116611, Note_off_c, 0, 53, 65
1, 116616, Note_off_c, 0, 55, 62
1, 116670, Control_c, 0, 67, 63
1, 116714, Control_c, 0, 67, 63
1, 116716, Note_on_c, 0, 47, 70
1, 116730, Note_on_c, 0, 55, 56
1, 116738, Note_on_c, 0, 53, 61
1, 116773, Note_off_c, 0, 47, 63
1, 116782, Note_off_c, 0, 53, 65
1, 116787, Note_off_c, 0, 55, 63
1, 116788, Note_on_c, 0, 37, 66
1, 116813, Note_off_c, 0, 37, 67
1, 116855, Control_c, 0, 67, 64
1, 116870, Control_c, 0, 67, 64
1, 116889, Note_on_c, 0, 53, 53
1, 116907, Note_on_c, 0, 55, 46
1, 116923, Note_off_c, 0, 53, 66
1, 116933, Note_off_c, 0, 55, 57
1, 117003, Control_c, 0, 67, 64
1, 117018, Control_c, 0, 67, 63
1, 117027, Note_on_c, 0, 47, 64
1, 117043, Note_on_c, 0, 55, 46
1, 117050, Note_on_c, 0, 53, 57
1, 117068, Note_off_c, 0, 47, 67
1, 117068, Note_on_c, 0, 37, 59
1, 117083, Note_off_c, 0, 53, 66
1, 117086, Note_off_c, 0, 55, 63
1, 117092, Control_c, 0, 67, 64
1, 117099, Note_off_c, 0, 37, 65
1, 117181, Note_on_c, 0, 53, 56
1, 117189, Note_on_c, 0, 55, 56
1, 117220, Note_off_c, 0, 53, 65
1, 117225, Note_off_c, 0, 55, 63
1, 117240, Control_c, 0, 67, 63
1, 117326, Note_on_c, 0, 48, 54
1, 117344, Note_on_c, 0, 52, 59
1, 117346, Note_on_c, 0, 55, 42
1, 117369, Note_off_c, 0, 48, 66
1, 117371, Note_on_c, 0, 36, 59
1, 117381, Note_off_c, 0, 52, 64
1, 117387, Note_off_c, 0, 55, 64
1, 117399, Note_off_c, 0, 36, 58
1, 117487, Note_on_c, 0, 52, 52
1, 117488, Note_on_c, 0, 55, 60
1, 117493, Control_c, 0, 67, 64
1, 117508, Control_c, 0, 67, 64
1, 117537, Note_off_c, 0, 52, 64
1, 117540, Note_off_c, 0, 55, 62
1, 117604, Control_c, 0, 67, 65
1, 117619, Control_c, 0, 67, 65
1, 117651, Note_on_c, 0, 67, 77
1, 117652, Note_on_c, 0, 52, 60
1, 117657, Note_on_c, 0, 55, 61
1, 117663, Control_c, 0, 64, 65
1, 117678, Control_c, 0, 64, 79
1, 117693, Note_off_c, 0, 52, 64
1, 117693, Control_c, 0, 64, 103
1, 117693, Control_c, 0, 67, 65
1, 117701, Note_off_c, 0, 55, 61
1, 117707, Control_c, 0, 64, 127
1, 117716, Note_off_c, 0, 67, 61
1, 117752, Control_c, 0, 67, 64
1, 117796, Control_c, 0, 67, 64
1, 117804, Note_on_c, 0, 55, 58
1, 117813, Note_on_c, 0, 52, 46
1, 117827, Control_c, 0, 67, 63
1, 117839, Note_off_c, 0, 52, 60
1, 117842, Note_off_c, 0, 55, 63
1, 117915, Control_c, 0, 64, 117
1, 117930, Control_c, 0, 64, 104
1, 117943, Note_on_c, 0, 76, 64
1, 117945, Control_c, 0, 64, 92
1, 117946, Note_on_c, 0, 52, 58
1, 117950, Note_on_c, 0, 55, 58
1, 117960, Control_c, 0, 64, 79
1, 117968, Note_off_c, 0, 76, 70
1, 117974, Control_c, 0, 64, 62
1, 117989, Control_c, 0, 64, 0
1, 117992, Note_off_c, 0, 52, 64
1, 118001, Note_off_c, 0, 55, 61
1, 118019, Control_c, 0, 67, 64
1, 118049, Control_c, 0, 67, 64
1, 118079, Control_c, 0, 67, 65
1, 118093, Control_c, 0, 67, 65
1, 118102, Note_on_c, 0, 55, 55
1, 118103, Note_on_c, 0, 52, 57
1, 118140, Note_off_c, 0, 52, 66
1, 118145, Note_off_c, 0, 55, 63
1, 118230, Note_on_c, 0, 47, 67
1, 118248, Note_on_c, 0, 55, 62
1, 118257, Note_on_c, 0, 53, 59
1, 118294, Note_off_c, 0, 47, 62
1, 118299, Note_off_c, 0, 53, 64
1, 118302, Note_on_c, 0, 37, 60
1, 118302, Note_off_c, 0, 55, 63
1, 118334, Note_off_c, 0, 37, 65
1, 118353, Control_c, 0, 67, 65
1, 118368, Control_c, 0, 67, 64
1, 118399, Note_on_c, 0, 53, 54
1, 118415, Note_on_c, 0, 55, 51
1, 118445, Note_off_c, 0, 53, 64
1, 118450, Note_off_c, 0, 55, 64
1, 118472, Control_c, 0, 67, 63
1, 118546, Control_c, 0, 67, 63
1, 118551, Note_on_c, 0, 47, 67
1, 118554, Note_on_c, 0, 55, 56
1, 118561, Control_c, 0, 67, 62
1, 118565, Note_on_c, 0, 53, 57
1, 118591, Control_c, 0, 67, 62
1, 118593, Note_off_c, 0, 47, 66
1, 118597, Note_off_c, 0, 53, 66
1, 118605, Note_off_c, 0, 55, 61
1, 118605, Control_c, 0, 67, 61
1, 118616, Note_on_c, 0, 37, 58
1, 118620, Control_c, 0, 67, 60
1, 118635, Control_c, 0, 67, 60
1, 118647, Note_off_c, 0, 37, 65
1, 118714, Note_on_c, 0, 55, 58
1, 118717, Note_on_c, 0, 53, 43
1, 118738, Control_c, 0, 67, 60
1, 118746, Note_off_c, 0, 53, 62
1, 118754, Note_off_c, 0, 55, 63
1, 118768, Control_c, 0, 67, 60
1, 118797, Control_c, 0, 67, 59
1, 118812, Control_c, 0, 67, 57
1, 118827, Control_c, 0, 67, 55
1, 118851, Note_on_c, 0, 47, 67
1, 118857, Note_on_c, 0, 55, 60
1, 118868, Note_on_c, 0, 53, 48
1, 118872, Control_c, 0, 67, 55
1, 118886, Control_c, 0, 67, 54
1, 118901, Control_c, 0, 67, 52
1, 118907, Note_off_c, 0, 53, 66
1, 118909, Note_off_c, 0, 47, 61
1, 118910, Note_on_c, 0, 37, 59
1, 118913, Note_off_c, 0, 55, 60
1, 118916, Control_c, 0, 67, 50
1, 118931, Control_c, 0, 67, 48
1, 118939, Note_off_c, 0, 37, 66
1, 118946, Control_c, 0, 67, 47
1, 118961, Control_c, 0, 67, 47
1, 118976, Control_c, 0, 67, 45
1, 118990, Control_c, 0, 67, 42
1, 119005, Control_c, 0, 67, 38
1, 119006, Note_on_c, 0, 55, 55
1, 119009, Note_on_c, 0, 53, 56
1, 119027, Control_c, 0, 67, 35
1, 119043, Control_c, 0, 67, 32
1, 119051, Note_off_c, 0, 53, 67
1, 119054, Note_off_c, 0, 55, 65
1, 119058, Control_c, 0, 67, 29
1, 119073, Control_c, 0, 67, 23
1, 119088, Control_c, 0, 67, 16
1, 119102, Control_c, 0, 67, 8
1, 119117, Control_c, 0, 67, 0
1, 119191, Control_c, 0, 64, 33
1, 119202, Note_on_c, 0, 48, 63
1, 119206, Control_c, 0, 64, 67
1, 119220, Control_c, 0, 64, 80
1, 119226, Note_on_c, 0, 36, 32
1, 119235, Control_c, 0, 64, 106
1, 119250, Control_c, 0, 64, 127
1, 119295, Note_on_c, 0, 52, 58
1, 119336, Note_off_c, 0, 48, 61
1, 119340, Note_off_c, 0, 52, 60
1, 119345, Note_on_c, 0, 60, 65
1, 119377, Note_off_c, 0, 36, 43
1, 119401, Note_off_c, 0, 60, 56
1, 119419, Note_on_c, 0, 55, 72
1, 119472, Note_off_c, 0, 55, 64
1, 119485, Note_on_c, 0, 64, 67
1, 119520, Note_off_c, 0, 64, 65
1, 119554, Note_on_c, 0, 60, 82
1, 119622, Note_off_c, 0, 60, 56
1, 119623, Note_on_c, 0, 67, 85
1, 119687, Note_off_c, 0, 67, 62
1, 119699, Note_on_c, 0, 64, 85
1, 119741, Note_off_c, 0, 64, 65
1, 119751, Note_on_c, 0, 72, 83
1, 119753, Control_c, 0, 64, 124
1, 119775, Control_c, 0, 64, 123
1, 119805, Control_c, 0, 64, 123
1, 119808, Note_off_c, 0, 72, 65
1, 119836, Note_on_c, 0, 67, 89
1, 119895, Control_c, 0, 64, 122
1, 119909, Note_on_c, 0, 76, 86
1, 119910, Control_c, 0, 64, 121
1, 119915, Note_off_c, 0, 67, 54
1, 119924, Control_c, 0, 64, 120
1, 119939, Control_c, 0, 64, 116
1, 119954, Control_c, 0, 64, 109
1, 119968, Control_c, 0, 64, 98
1, 119983, Note_off_c, 0, 76, 64
1, 119983, Note_on_c, 0, 72, 83
1, 119983, Control_c, 0, 64, 84
1, 119998, Control_c, 0, 64, 70
1, 120013, Control_c, 0, 64, 0
1, 120049, Note_off_c, 0, 72, 63
1, 120052, Note_on_c, 0, 79, 88
1, 120205, Note_on_c, 0, 36, 67
1, 120236, Note_off_c, 0, 79, 48
1, 120246, Note_off_c, 0, 36, 67
1, 120341, Note_on_c, 0, 40, 81
1, 120382, Note_off_c, 0, 40, 64
1, 120487, Note_on_c, 0, 43, 87
1, 120535, Note_off_c, 0, 43, 64
1, 120621, Note_on_c, 0, 70, 73
1, 120637, Note_on_c, 0, 48, 83
1, 120657, Note_off_c, 0, 70, 60
1, 120668, Note_off_c, 0, 48, 67
1, 120672, Note_on_c, 0, 72, 69
1, 120735, Note_on_c, 0, 70, 74
1, 120741, Note_off_c, 0, 72, 64
1, 120758, Note_on_c, 0, 52, 86
1, 120775, Note_off_c, 0, 70, 64
1, 120779, Note_on_c, 0, 69, 77
1, 120791, Note_off_c, 0, 52, 68
1, 120819, Note_off_c, 0, 69, 57
1, 120837, Note_on_c, 0, 70, 75
1, 120891, Note_off_c, 0, 70, 64
1, 120893, Note_on_c, 0, 69, 74
1, 120905, Note_on_c, 0, 53, 95
1, 120915, Note_off_c, 0, 69, 69
1, 121041, Note_on_c, 0, 60, 64
1, 121047, Note_on_c, 0, 57, 59
1, 121054, Note_off_c, 0, 53, 66
1, 121080, Note_off_c, 0, 57, 64
1, 121095, Note_off_c, 0, 60, 55
1, 121193, Note_on_c, 0, 57, 50
1, 121209, Note_on_c, 0, 60, 42
1, 121226, Note_off_c, 0, 57, 63
1, 121237, Note_off_c, 0, 60, 57
1, 121332, Note_on_c, 0, 60, 62
1, 121343, Note_on_c, 0, 57, 45
1, 121375, Note_off_c, 0, 60, 58
1, 121378, Note_off_c, 0, 57, 63
1, 121491, Note_on_c, 0, 57, 48
1, 121495, Note_on_c, 0, 60, 51
1, 121529, Note_off_c, 0, 57, 62
1, 121536, Note_off_c, 0, 60, 62
1, 121626, Note_on_c, 0, 57, 51
1, 121659, Note_on_c, 0, 60, 38
1, 121669, Note_off_c, 0, 57, 60
1, 121690, Note_off_c, 0, 60, 55
1, 121786, Note_on_c, 0, 40, 69
1, 121788, Note_on_c, 0, 60, 58
1, 121795, Note_on_c, 0, 58, 66
1, 121821, Note_off_c, 0, 40, 65
1, 121827, Note_off_c, 0, 60, 60
1, 121829, Note_off_c, 0, 58, 65
1, 121843, Note_on_c, 0, 30, 67
1, 121876, Note_off_c, 0, 30, 65
1, 121941, Note_on_c, 0, 58, 64
1, 121948, Note_on_c, 0, 60, 54
1, 121981, Note_off_c, 0, 58, 63
1, 121987, Note_off_c, 0, 60, 62
1, 122093, Note_on_c, 0, 40, 65
1, 122109, Note_on_c, 0, 60, 60
1, 122113, Note_on_c, 0, 58, 63
1, 122136, Note_off_c, 0, 40, 65
1, 122140, Note_on_c, 0, 30, 60
1, 122148, Note_off_c, 0, 58, 67
1, 122156, Note_off_c, 0, 60, 59
1, 122170, Note_off_c, 0, 30, 63
1, 122260, Note_on_c, 0, 58, 58
1, 122269, Note_on_c, 0, 60, 58
1, 122295, Note_off_c, 0, 58, 64
1, 122304, Note_off_c, 0, 60, 61
1, 122395, Note_on_c, 0, 40, 63
1, 122416, Note_on_c, 0, 60, 56
1, 122416, Note_on_c, 0, 58, 57
1, 122453, Note_off_c, 0, 40, 62
1, 122453, Note_off_c, 0, 58, 66
1, 122455, Note_on_c, 0, 30, 64
1, 122455, Note_off_c, 0, 60, 60
1, 122487, Note_off_c, 0, 30, 62
1, 122560, Note_on_c, 0, 58, 55
1, 122565, Note_on_c, 0, 60, 53
1, 122598, Note_off_c, 0, 58, 65
1, 122602, Note_off_c, 0, 60, 63
1, 122693, Note_on_c, 0, 41, 55
1, 122705, Note_on_c, 0, 60, 52
1, 122714, Note_on_c, 0, 57, 60
1, 122725, Note_on_c, 0, 29, 65
1, 122740, Note_off_c, 0, 41, 66
1, 122749, Note_off_c, 0, 57, 62
1, 122753, Note_off_c, 0, 29, 61
1, 122769, Note_off_c, 0, 60, 57
1, 122866, Note_on_c, 0, 57, 36
1, 122890, Control_c, 0, 64, 34
1, 122894, Note_on_c, 0, 60, 42
1, 122905, Control_c, 0, 64, 42
1, 122908, Note_off_c, 0, 57, 49
1, 122920, Control_c, 0, 64, 43
1, 122920, Note_off_c, 0, 60, 56
1, 122964, Control_c, 0, 64, 47
1, 122979, Control_c, 0, 64, 54
1, 122994, Control_c, 0, 64, 60
1, 123009, Control_c, 0, 64, 65
1, 123024, Control_c, 0, 64, 69
1, 123029, Note_on_c, 0, 72, 78
1, 123030, Note_on_c, 0, 60, 54
1, 123035, Note_on_c, 0, 57, 55
1, 123039, Control_c, 0, 64, 75
1, 123054, Control_c, 0, 64, 81
1, 123069, Control_c, 0, 64, 83
1, 123080, Note_off_c, 0, 57, 58
1, 123095, Note_off_c, 0, 60, 62
1, 123098, Control_c, 0, 64, 83
1, 123120, Note_off_c, 0, 72, 61
1, 123143, Control_c, 0, 64, 83
1, 123158, Control_c, 0, 64, 82
1, 123173, Control_c, 0, 64, 82
1, 123187, Control_c, 0, 64, 81
1, 123200, Note_on_c, 0, 57, 52
1, 123206, Note_on_c, 0, 60, 52
1, 123217, Control_c, 0, 64, 80
1, 123237, Note_off_c, 0, 57, 61
1, 123247, Control_c, 0, 64, 79
1, 123249, Note_off_c, 0, 60, 60
1, 123261, Control_c, 0, 64, 79
1, 123276, Control_c, 0, 64, 78
1, 123291, Control_c, 0, 64, 77
1, 123306, Control_c, 0, 64, 77
1, 123320, Control_c, 0, 64, 76
1, 123321, Note_on_c, 0, 77, 79
1, 123335, Control_c, 0, 64, 74
1, 123350, Control_c, 0, 64, 69
1, 123351, Note_on_c, 0, 57, 62
1, 123352, Note_off_c, 0, 77, 63
1, 123357, Note_on_c, 0, 60, 63
1, 123365, Control_c, 0, 64, 63
1, 123380, Control_c, 0, 64, 32
1, 123388, Note_off_c, 0, 57, 62
1, 123394, Control_c, 0, 64, 0
1, 123395, Note_off_c, 0, 60, 60
1, 123488, Note_on_c, 0, 57, 59
1, 123503, Note_on_c, 0, 60, 61
1, 123546, Note_off_c, 0, 57, 58
1, 123552, Note_off_c, 0, 60, 57
1, 123638, Note_on_c, 0, 40, 71
1, 123656, Note_on_c, 0, 60, 67
1, 123657, Note_on_c, 0, 58, 67
1, 123684, Note_on_c, 0, 30, 69
1, 123691, Note_off_c, 0, 40, 63
1, 123695, Note_off_c, 0, 58, 64
1, 123699, Note_off_c, 0, 60, 58
1, 123713, Note_off_c, 0, 30, 63
1, 123807, Note_on_c, 0, 58, 63
1, 123808, Note_on_c, 0, 60, 61
1, 123841, Note_off_c, 0, 58, 66
1, 123847, Note_off_c, 0, 60, 60
1, 123943, Note_on_c, 0, 40, 75
1, 123954, Note_on_c, 0, 58, 60
1, 123957, Note_on_c, 0, 60, 61
1, 123988, Note_off_c, 0, 40, 63
1, 123992, Note_off_c, 0, 58, 65
1, 123999, Note_off_c, 0, 60, 59
1, 124003, Note_on_c, 0, 30, 65
1, 124032, Note_off_c, 0, 30, 63
1, 124115, Note_on_c, 0, 58, 60
1, 124115, Note_on_c, 0, 60, 60
1, 124148, Note_off_c, 0, 58, 66
1, 124151, Note_off_c, 0, 60, 62
1, 124240, Note_on_c, 0, 40, 68
1, 124258, Note_on_c, 0, 58, 63
1, 124262, Note_on_c, 0, 60, 60
1, 124293, Note_off_c, 0, 40, 64
1, 124296, Note_on_c, 0, 30, 61
1, 124296, Note_off_c, 0, 58, 66
1, 124302, Note_off_c, 0, 60, 60
1, 124327, Note_off_c, 0, 30, 63
1, 124416, Note_on_c, 0, 58, 53
1, 124421, Note_on_c, 0, 60, 52
1, 124451, Note_off_c, 0, 58, 65
1, 124460, Note_off_c, 0, 60, 64
1, 124529, Note_on_c, 0, 41, 57
1, 124557, Note_on_c, 0, 60, 62
1, 124570, Note_on_c, 0, 57, 45
1, 124578, Note_off_c, 0, 41, 64
1, 124588, Note_on_c, 0, 29, 64
1, 124601, Note_off_c, 0, 57, 60
1, 124603, Note_off_c, 0, 60, 59
1, 124620, Note_off_c, 0, 29, 60
1, 124711, Note_on_c, 0, 57, 51
1, 124714, Control_c, 0, 67, 13
1, 124729, Control_c, 0, 67, 23
1, 124744, Control_c, 0, 67, 40
1, 124745, Note_on_c, 0, 60, 35
1, 124759, Control_c, 0, 67, 61
1, 124763, Note_off_c, 0, 57, 58
1, 124774, Control_c, 0, 67, 83
1, 124777, Note_off_c, 0, 60, 55
1, 124789, Control_c, 0, 67, 104
1, 124804, Control_c, 0, 67, 113
1, 124818, Control_c, 0, 67, 114
1, 124833, Control_c, 0, 67, 113
1, 124848, Control_c, 0, 67, 111
1, 124863, Control_c, 0, 67, 110
1, 124875, Note_on_c, 0, 57, 64
1, 124876, Note_on_c, 0, 72, 82
1, 124878, Control_c, 0, 64, 51
1, 124878, Control_c, 0, 67, 109
1, 124881, Note_on_c, 0, 60, 53
1, 124892, Control_c, 0, 64, 69
1, 124892, Control_c, 0, 67, 107
1, 124907, Control_c, 0, 64, 82
1, 124907, Control_c, 0, 67, 104
1, 124922, Control_c, 0, 64, 100
1, 124922, Control_c, 0, 67, 101
1, 124925, Note_off_c, 0, 57, 60
1, 124928, Note_off_c, 0, 72, 65
1, 124937, Control_c, 0, 64, 117
1, 124937, Control_c, 0, 67, 99
1, 124944, Note_off_c, 0, 60, 57
1, 124952, Control_c, 0, 64, 123
1, 124952, Control_c, 0, 67, 98
1, 124966, Control_c, 0, 64, 127
1, 124966, Control_c, 0, 67, 96
1, 124981, Control_c, 0, 64, 127
1, 124981, Control_c, 0, 67, 93
1, 124996, Control_c, 0, 67, 86
1, 125018, Control_c, 0, 67, 77
1, 125033, Control_c, 0, 67, 65
1, 125045, Note_on_c, 0, 57, 63
1, 125048, Control_c, 0, 67, 54
1, 125063, Control_c, 0, 67, 44
1, 125067, Note_on_c, 0, 60, 48
1, 125076, Note_off_c, 0, 57, 61
1, 125078, Control_c, 0, 67, 37
1, 125092, Control_c, 0, 67, 30
1, 125105, Note_off_c, 0, 60, 64
1, 125107, Control_c, 0, 67, 21
1, 125122, Control_c, 0, 67, 13
1, 125137, Control_c, 0, 67, 0
1, 125166, Control_c, 0, 64, 119
1, 125174, Note_on_c, 0, 81, 83
1, 125181, Control_c, 0, 64, 102
1, 125192, Note_on_c, 0, 57, 67
1, 125193, Note_on_c, 0, 60, 68
1, 125196, Control_c, 0, 64, 86
1, 125198, Note_off_c, 0, 81, 63
1, 125211, Control_c, 0, 64, 69
1, 125226, Control_c, 0, 64, 0
1, 125236, Note_off_c, 0, 57, 60
1, 125258, Note_off_c, 0, 60, 59
1, 125343, Note_on_c, 0, 57, 58
1, 125345, Note_on_c, 0, 60, 58
1, 125382, Note_off_c, 0, 57, 62
1, 125397, Note_off_c, 0, 60, 56
1, 125480, Note_on_c, 0, 40, 72
1, 125503, Note_on_c, 0, 58, 65
1, 125503, Note_on_c, 0, 60, 68
1, 125539, Note_off_c, 0, 58, 64
1, 125547, Note_on_c, 0, 30, 71
1, 125547, Note_off_c, 0, 40, 63
1, 125553, Note_off_c, 0, 60, 55
1, 125581, Note_off_c, 0, 30, 66
1, 125650, Note_on_c, 0, 58, 64
1, 125653, Note_on_c, 0, 60, 60
1, 125683, Note_off_c, 0, 58, 66
1, 125692, Note_off_c, 0, 60, 61
1, 125799, Note_on_c, 0, 40, 73
1, 125807, Note_on_c, 0, 58, 63
1, 125808, Note_on_c, 0, 60, 68
1, 125844, Note_off_c, 0, 40, 64
1, 125852, Note_off_c, 0, 58, 62
1, 125863, Note_on_c, 0, 30, 67
1, 125866, Note_off_c, 0, 60, 59
1, 125898, Note_off_c, 0, 30, 64
1, 125959, Note_on_c, 0, 60, 63
1, 125962, Note_on_c, 0, 58, 60
1, 125997, Note_off_c, 0, 58, 64
1, 126005, Note_off_c, 0, 60, 58
1, 126092, Note_on_c, 0, 40, 71
1, 126100, Note_on_c, 0, 58, 64
1, 126103, Note_on_c, 0, 60, 65
1, 126135, Note_off_c, 0, 58, 65
1, 126137, Note_off_c, 0, 40, 64
1, 126140, Note_on_c, 0, 30, 62
1, 126147, Note_off_c, 0, 60, 57
1, 126171, Note_off_c, 0, 30, 63
1, 126245, Note_on_c, 0, 58, 63
1, 126250, Note_on_c, 0, 60, 62
1, 126276, Note_off_c, 0, 58, 66
1, 126281, Note_off_c, 0, 60, 66
1, 126405, Note_on_c, 0, 41, 60
1, 126418, Control_c, 0, 64, 63
1, 126433, Control_c, 0, 64, 77
1, 126447, Control_c, 0, 64, 98
1, 126462, Control_c, 0, 64, 127
1, 126470, Note_off_c, 0, 41, 58
1, 126497, Note_on_c, 0, 29, 58
1, 126517, Note_on_c, 0, 57, 60
1, 126538, Note_off_c, 0, 29, 58
1, 126574, Note_off_c, 0, 57, 51
1, 126583, Note_on_c, 0, 65, 71
1, 126642, Note_off_c, 0, 65, 62
1, 126654, Note_on_c, 0, 60, 77
1, 126707, Note_off_c, 0, 60, 62
1, 126723, Note_on_c, 0, 69, 70
1, 126763, Note_off_c, 0, 69, 62
1, 126791, Note_on_c, 0, 65, 83
1, 126852, Note_off_c, 0, 65, 58
1, 126866, Note_on_c, 0, 72, 85
1, 126939, Note_on_c, 0, 69, 84
1, 126940, Note_off_c, 0, 72, 61
1, 126988, Note_off_c, 0, 69, 67
1, 127003, Note_on_c, 0, 77, 77
1, 127048, Note_off_c, 0, 77, 63
1, 127076, Note_on_c, 0, 72, 75
1, 127155, Note_off_c, 0, 72, 52
1, 127158, Note_on_c, 0, 81, 73
1, 127160, Note_on_c, 0, 83, 65
1, 127188, Note_off_c, 0, 83, 58
1, 127220, Note_on_c, 0, 77, 82
1, 127227, Note_off_c, 0, 81, 61
1, 127278, Control_c, 0, 64, 120
1, 127293, Control_c, 0, 64, 106
1, 127304, Note_on_c, 0, 84, 89
1, 127305, Note_off_c, 0, 77, 55
1, 127307, Control_c, 0, 64, 93
1, 127322, Control_c, 0, 64, 79
1, 127337, Control_c, 0, 64, 66
1, 127352, Control_c, 0, 64, 0
1, 127465, Note_on_c, 0, 41, 66
1, 127513, Note_off_c, 0, 41, 64
1, 127515, Note_off_c, 0, 84, 61
1, 127609, Note_on_c, 0, 45, 79
1, 127656, Note_off_c, 0, 45, 63
1, 127755, Note_on_c, 0, 48, 76
1, 127796, Note_off_c, 0, 48, 67
1, 127890, Note_on_c, 0, 75, 75
1, 127895, Note_on_c, 0, 53, 60
1, 127925, Note_off_c, 0, 53, 67
1, 127929, Note_off_c, 0, 75, 61
1, 127951, Note_on_c, 0, 77, 66
1, 128020, Note_on_c, 0, 75, 67
1, 128023, Note_off_c, 0, 77, 62
1, 128029, Note_on_c, 0, 57, 49
1, 128065, Note_on_c, 0, 74, 60
1, 128069, Note_off_c, 0, 75, 61
1, 128077, Note_off_c, 0, 57, 56
1, 128127, Note_off_c, 0, 74, 62
1, 128151, Note_on_c, 0, 75, 55
1, 128184, Note_on_c, 0, 58, 54
1, 128211, Note_on_c, 0, 73, 73
1, 128222, Note_off_c, 0, 75, 60
1, 128263, Note_off_c, 0, 73, 62
1, 128293, Note_on_c, 0, 65, 64
1, 128305, Note_off_c, 0, 58, 60
1, 128354, Note_on_c, 0, 70, 73
1, 128362, Note_off_c, 0, 65, 61
1, 128414, Note_off_c, 0, 70, 61
1, 128430, Note_on_c, 0, 65, 67
1, 128479, Note_off_c, 0, 65, 58
1, 128494, Note_on_c, 0, 73, 78
1, 128559, Note_off_c, 0, 73, 62
1, 128563, Note_on_c, 0, 70, 79
1, 128626, Note_off_c, 0, 70, 63
1, 128628, Note_on_c, 0, 77, 81
1, 128685, Note_off_c, 0, 77, 62
1, 128700, Note_on_c, 0, 73, 85
1, 128759, Note_off_c, 0, 73, 63
1, 128774, Note_on_c, 0, 82, 84
1, 128831, Note_off_c, 0, 82, 64
1, 128848, Note_on_c, 0, 77, 79
1, 128917, Note_on_c, 0, 85, 81
1, 128918, Note_off_c, 0, 77, 60
1, 128986, Note_on_c, 0, 82, 81
1, 128989, Note_off_c, 0, 85, 64
1, 129072, Control_c, 0, 64, 40
1, 129075, Note_on_c, 0, 89, 97
1, 129084, Note_off_c, 0, 82, 62
1, 129087, Control_c, 0, 64, 63
1, 129102, Control_c, 0, 64, 72
1, 129117, Control_c, 0, 64, 84
1, 129132, Control_c, 0, 64, 93
1, 129147, Control_c, 0, 64, 93
1, 129162, Control_c, 0, 64, 93
1, 129176, Control_c, 0, 64, 89
1, 129191, Control_c, 0, 64, 83
1, 129206, Control_c, 0, 64, 75
1, 129221, Control_c, 0, 64, 66
1, 129236, Control_c, 0, 64, 42
1, 129239, Note_on_c, 0, 34, 65
1, 129250, Note_off_c, 0, 89, 65
1, 129250, Control_c, 0, 64, 0
1, 129290, Note_off_c, 0, 34, 64
1, 129389, Note_on_c, 0, 38, 72
1, 129435, Note_off_c, 0, 38, 60
1, 129540, Note_on_c, 0, 41, 65
1, 129568, Note_off_c, 0, 41, 66
1, 129662, Note_on_c, 0, 46, 62
1, 129667, Note_on_c, 0, 80, 73
1, 129695, Note_off_c, 0, 46, 63
1, 129711, Note_off_c, 0, 80, 63
1, 129724, Note_on_c, 0, 82, 67
1, 129775, Note_on_c, 0, 80, 69
1, 129788, Note_off_c, 0, 82, 62
1, 129802, Note_on_c, 0, 50, 37
1, 129825, Note_off_c, 0, 80, 64
1, 129835, Note_off_c, 0, 50, 51
1, 129838, Note_on_c, 0, 79, 64
1, 129880, Note_off_c, 0, 79, 59
1, 129880, Control_c, 0, 67, 10
1, 129890, Note_on_c, 0, 80, 69
1, 129895, Control_c, 0, 67, 13
1, 129910, Control_c, 0, 67, 15
1, 129925, Control_c, 0, 67, 19
1, 129940, Control_c, 0, 67, 24
1, 129945, Note_off_c, 0, 80, 64
1, 129952, Note_on_c, 0, 79, 69
1, 129954, Control_c, 0, 67, 37
1, 129969, Control_c, 0, 67, 52
1, 129972, Note_on_c, 0, 51, 49
1, 129978, Note_off_c, 0, 79, 66
1, 129984, Control_c, 0, 64, 47
1, 129984, Control_c, 0, 67, 66
1, 129999, Control_c, 0, 64, 64
1, 129999, Control_c, 0, 67, 78
1, 130014, Control_c, 0, 64, 73
1, 130014, Control_c, 0, 67, 87
1, 130028, Control_c, 0, 64, 87
1, 130028, Control_c, 0, 67, 94
1, 130043, Control_c, 0, 64, 101
1, 130043, Control_c, 0, 67, 99
1, 130058, Control_c, 0, 64, 112
1, 130058, Control_c, 0, 67, 100
1, 130072, Control_c, 0, 64, 114
1, 130072, Control_c, 0, 67, 99
1, 130087, Control_c, 0, 67, 98
1, 130095, Note_off_c, 0, 51, 61
1, 130117, Control_c, 0, 67, 97
1, 130146, Control_c, 0, 67, 96
1, 130161, Note_on_c, 0, 55, 64
1, 130161, Control_c, 0, 64, 113
1, 130161, Control_c, 0, 67, 95
1, 130176, Control_c, 0, 64, 112
1, 130176, Control_c, 0, 67, 93
1, 130191, Control_c, 0, 64, 111
1, 130191, Control_c, 0, 67, 92
1, 130205, Control_c, 0, 64, 110
1, 130205, Control_c, 0, 67, 91
1, 130222, Control_c, 0, 64, 109
1, 130222, Control_c, 0, 67, 90
1, 130237, Control_c, 0, 64, 107
1, 130250, Note_off_c, 0, 55, 55
1, 130253, Note_on_c, 0, 63, 65
1, 130259, Control_c, 0, 64, 106
1, 130259, Control_c, 0, 67, 89
1, 130273, Control_c, 0, 64, 105
1, 130288, Control_c, 0, 64, 105
1, 130318, Control_c, 0, 64, 104
1, 130318, Control_c, 0, 67, 89
1, 130320, Note_off_c, 0, 63, 63
1, 130326, Note_on_c, 0, 58, 74
1, 130333, Control_c, 0, 64, 103
1, 130333, Control_c, 0, 67, 88
1, 130348, Control_c, 0, 64, 101
1, 130348, Control_c, 0, 67, 87
1, 130363, Control_c, 0, 64, 100
1, 130363, Control_c, 0, 67, 86
1, 130377, Control_c, 0, 64, 99
1, 130377, Control_c, 0, 67, 86
1, 130391, Note_off_c, 0, 58, 63
1, 130392, Control_c, 0, 64, 98
1, 130392, Control_c, 0, 67, 85
1, 130407, Control_c, 0, 64, 98
1, 130415, Note_on_c, 0, 67, 68
1, 130445, Note_off_c, 0, 67, 63
1, 130451, Control_c, 0, 64, 97
1, 130466, Control_c, 0, 67, 85
1, 130476, Note_on_c, 0, 63, 81
1, 130481, Control_c, 0, 67, 84
1, 130496, Control_c, 0, 64, 97
1, 130496, Control_c, 0, 67, 84
1, 130510, Control_c, 0, 67, 83
1, 130524, Note_off_c, 0, 63, 62
1, 130545, Note_on_c, 0, 70, 81
1, 130584, Control_c, 0, 67, 83
1, 130597, Note_off_c, 0, 70, 62
1, 130599, Control_c, 0, 64, 96
1, 130599, Control_c, 0, 67, 82
1, 130614, Control_c, 0, 67, 82
1, 130620, Note_on_c, 0, 67, 76
1, 130628, Control_c, 0, 64, 96
1, 130628, Control_c, 0, 67, 81
1, 130643, Control_c, 0, 67, 79
1, 130658, Control_c, 0, 64, 95
1, 130658, Control_c, 0, 67, 73
1, 130673, Control_c, 0, 64, 94
1, 130673, Control_c, 0, 67, 66
1, 130684, Note_off_c, 0, 67, 53
1, 130688, Control_c, 0, 64, 93
1, 130688, Control_c, 0, 67, 59
1, 130692, Note_on_c, 0, 75, 74
1, 130703, Control_c, 0, 64, 91
1, 130703, Control_c, 0, 67, 52
1, 130718, Control_c, 0, 64, 89
1, 130718, Control_c, 0, 67, 46
1, 130733, Control_c, 0, 64, 84
1, 130733, Control_c, 0, 67, 36
1, 130747, Control_c, 0, 64, 79
1, 130747, Control_c, 0, 67, 24
1, 130754, Note_on_c, 0, 70, 74
1, 130762, Note_off_c, 0, 75, 60
1, 130762, Control_c, 0, 64, 71
1, 130762, Control_c, 0, 67, 9
1, 130777, Control_c, 0, 64, 60
1, 130777, Control_c, 0, 67, 0
1, 130792, Control_c, 0, 64, 0
1, 130803, Note_off_c, 0, 70, 62
1, 130819, Note_on_c, 0, 79, 61
1, 130891, Note_off_c, 0, 79, 62
1, 130896, Note_on_c, 0, 75, 69
1, 130923, Note_off_c, 0, 75, 69
1, 131018, Note_on_c, 0, 82, 72
1, 131215, Note_on_c, 0, 39, 45
1, 131257, Note_off_c, 0, 39, 60
1, 131362, Note_on_c, 0, 43, 65
1, 131402, Note_off_c, 0, 43, 61
1, 131419, Note_off_c, 0, 82, 57
1, 131508, Note_on_c, 0, 46, 58
1, 131534, Note_off_c, 0, 46, 53
1, 131638, Note_on_c, 0, 73, 66
1, 131651, Note_on_c, 0, 51, 53
1, 131666, Note_off_c, 0, 73, 64
1, 131680, Note_off_c, 0, 51, 63
1, 131696, Note_on_c, 0, 75, 62
1, 131758, Note_on_c, 0, 73, 66
1, 131759, Note_off_c, 0, 75, 63
1, 131784, Note_on_c, 0, 55, 59
1, 131791, Note_off_c, 0, 73, 63
1, 131811, Note_on_c, 0, 72, 66
1, 131815, Note_off_c, 0, 55, 65
1, 131844, Note_off_c, 0, 72, 62
1, 131869, Note_on_c, 0, 73, 57
1, 131904, Note_off_c, 0, 73, 64
1, 131922, Note_on_c, 0, 72, 73
1, 131947, Note_on_c, 0, 56, 51
1, 131982, Note_off_c, 0, 56, 63
1, 132090, Note_on_c, 0, 44, 54
1, 132137, Note_off_c, 0, 44, 61
1, 132203, Note_off_c, 0, 72, 55
1, 132230, Note_on_c, 0, 48, 76
1, 132286, Note_off_c, 0, 48, 65
1, 132378, Note_on_c, 0, 51, 67
1, 132417, Note_off_c, 0, 51, 64
1, 132522, Note_on_c, 0, 56, 58
1, 132527, Note_on_c, 0, 72, 79
1, 132550, Note_off_c, 0, 56, 65
1, 132568, Note_off_c, 0, 72, 62
1, 132581, Note_on_c, 0, 73, 70
1, 132625, Note_off_c, 0, 73, 62
1, 132638, Note_on_c, 0, 72, 73
1, 132646, Note_on_c, 0, 60, 60
1, 132667, Note_off_c, 0, 60, 63
1, 132689, Note_off_c, 0, 72, 61
1, 132693, Note_on_c, 0, 71, 65
1, 132712, Note_off_c, 0, 71, 60
1, 132743, Note_on_c, 0, 72, 77
1, 132819, Note_on_c, 0, 84, 93
1, 132957, Note_on_c, 0, 44, 67
1, 132957, Note_off_c, 0, 72, 55
1, 132994, Note_off_c, 0, 84, 63
1, 133010, Note_off_c, 0, 44, 59
1, 133096, Note_on_c, 0, 48, 74
1, 133141, Note_off_c, 0, 48, 65
1, 133234, Note_on_c, 0, 50, 65
1, 133247, Note_on_c, 0, 52, 74
1, 133274, Note_off_c, 0, 52, 69
1, 133275, Note_off_c, 0, 50, 65
1, 133377, Note_on_c, 0, 56, 72
1, 133389, Note_on_c, 0, 72, 83
1, 133428, Note_off_c, 0, 56, 63
1, 133430, Note_off_c, 0, 72, 65
1, 133444, Note_on_c, 0, 73, 71
1, 133490, Note_off_c, 0, 73, 63
1, 133500, Note_on_c, 0, 60, 69
1, 133502, Note_on_c, 0, 72, 84
1, 133526, Note_off_c, 0, 60, 67
1, 133555, Note_off_c, 0, 72, 64
1, 133572, Note_on_c, 0, 71, 50
1, 133594, Note_off_c, 0, 71, 37
1, 133606, Note_on_c, 0, 72, 78
1, 133671, Note_on_c, 0, 84, 96
1, 133806, Note_on_c, 0, 44, 64
1, 133817, Note_off_c, 0, 72, 62
1, 133842, Note_off_c, 0, 84, 64
1, 133876, Note_off_c, 0, 44, 62
1, 133946, Note_on_c, 0, 48, 75
1, 134003, Note_off_c, 0, 48, 62
1, 134107, Note_on_c, 0, 53, 61
1, 134147, Note_off_c, 0, 53, 65
1, 134224, Note_on_c, 0, 56, 54
1, 134244, Note_on_c, 0, 72, 61
1, 134262, Note_off_c, 0, 56, 63
1, 134275, Note_off_c, 0, 72, 60
1, 134292, Note_on_c, 0, 73, 61
1, 134329, Note_off_c, 0, 73, 62
1, 134353, Note_on_c, 0, 60, 49
1, 134353, Note_on_c, 0, 72, 65
1, 134376, Note_off_c, 0, 60, 56
1, 134387, Note_off_c, 0, 72, 56
1, 134426, Note_on_c, 0, 71, 38
1, 134455, Note_off_c, 0, 71, 34
1, 134468, Note_on_c, 0, 72, 64
1, 134591, Note_on_c, 0, 84, 67
1, 134634, Note_off_c, 0, 72, 48
1, 134640, Control_c, 0, 67, 9
1, 134655, Control_c, 0, 67, 14
1, 134670, Control_c, 0, 67, 20
1, 134685, Control_c, 0, 67, 28
1, 134700, Control_c, 0, 67, 37
1, 134715, Control_c, 0, 67, 42
1, 134730, Control_c, 0, 67, 42
1, 134733, Note_on_c, 0, 44, 49
1, 134746, Note_off_c, 0, 84, 62
1, 134751, Control_c, 0, 67, 41
1, 134766, Control_c, 0, 67, 41
1, 134777, Note_off_c, 0, 44, 63
1, 134810, Control_c, 0, 67, 40
1, 134825, Control_c, 0, 67, 40
1, 134840, Control_c, 0, 67, 38
1, 134855, Control_c, 0, 67, 38
1, 134870, Control_c, 0, 67, 37
1, 134885, Control_c, 0, 67, 36
1, 134897, Note_on_c, 0, 48, 58
1, 134900, Control_c, 0, 67, 35
1, 134915, Control_c, 0, 67, 34
1, 134927, Note_off_c, 0, 48, 66
1, 134930, Control_c, 0, 67, 34
1, 134944, Control_c, 0, 67, 33
1, 134959, Control_c, 0, 67, 33
1, 134974, Control_c, 0, 67, 32
1, 134988, Control_c, 0, 67, 32
1, 135003, Control_c, 0, 67, 30
1, 135019, Control_c, 0, 67, 26
1, 135034, Control_c, 0, 67, 19
1, 135049, Control_c, 0, 67, 8
1, 135053, Note_on_c, 0, 53, 64
1, 135064, Control_c, 0, 67, 0
1, 135085, Note_off_c, 0, 53, 66
1, 135207, Note_on_c, 0, 56, 52
1, 135254, Note_off_c, 0, 56, 62
1, 135348, Note_on_c, 0, 60, 54
1, 135511, Note_on_c, 0, 65, 61
1, 135666, Note_on_c, 0, 68, 66
1, 135752, Control_c, 0, 64, 10
1, 135782, Control_c, 0, 64, 13
1, 135797, Control_c, 0, 64, 15
1, 135827, Control_c, 0, 64, 17
1, 135833, Note_on_c, 0, 72, 74
1, 135842, Control_c, 0, 64, 18
1, 135916, Control_c, 0, 64, 20
1, 135931, Control_c, 0, 64, 21
1, 135946, Control_c, 0, 64, 24
1, 135956, Note_on_c, 0, 44, 47
1, 135961, Control_c, 0, 64, 28
1, 135971, Note_off_c, 0, 68, 27
1, 135976, Control_c, 0, 64, 31
1, 135990, Control_c, 0, 64, 34
1, 136005, Control_c, 0, 64, 36
1, 136008, Note_off_c, 0, 60, 36
1, 136020, Control_c, 0, 64, 37
1, 136035, Control_c, 0, 64, 37
1, 136042, Note_off_c, 0, 65, 39
1, 136049, Control_c, 0, 64, 38
1, 136064, Control_c, 0, 64, 39
1, 136079, Control_c, 0, 64, 41
1, 136086, Note_off_c, 0, 72, 60
1, 136094, Control_c, 0, 64, 42
1, 136109, Control_c, 0, 64, 44
1, 136123, Control_c, 0, 64, 46
1, 136131, Note_on_c, 0, 48, 60
1, 136138, Control_c, 0, 64, 47
1, 136153, Control_c, 0, 64, 48
1, 136168, Control_c, 0, 64, 49
1, 136183, Control_c, 0, 64, 49
1, 136197, Control_c, 0, 64, 50
1, 136212, Control_c, 0, 64, 50
1, 136274, Note_on_c, 0, 53, 66
1, 136383, Control_c, 0, 64, 50
1, 136397, Control_c, 0, 64, 49
1, 136412, Control_c, 0, 64, 49
1, 136435, Note_on_c, 0, 56, 67
1, 136515, Control_c, 0, 64, 48
1, 136545, Control_c, 0, 64, 48
1, 136560, Note_off_c, 0, 44, 56
1, 136596, Note_on_c, 0, 60, 74
1, 136620, Control_c, 0, 64, 47
1, 136635, Control_c, 0, 64, 46
1, 136650, Control_c, 0, 64, 45
1, 136656, Note_off_c, 0, 56, 64
1, 136665, Control_c, 0, 64, 44
1, 136679, Control_c, 0, 64, 44
1, 136682, Note_off_c, 0, 48, 53
1, 136691, Note_off_c, 0, 53, 58
1, 136724, Control_c, 0, 64, 43
1, 136743, Note_on_c, 0, 65, 73
1, 136872, Control_c, 0, 64, 44
1, 136902, Note_on_c, 0, 68, 72
1, 136902, Control_c, 0, 64, 44
1, 137079, Note_on_c, 0, 72, 69
1, 137139, Note_off_c, 0, 68, 56
1, 137227, Note_on_c, 0, 44, 46
1, 137253, Note_off_c, 0, 65, 48
1, 137280, Note_off_c, 0, 60, 53
1, 137396, Note_off_c, 0, 72, 54
1, 137398, Note_on_c, 0, 48, 56
1, 137415, Control_c, 0, 64, 44
1, 137459, Control_c, 0, 64, 43
1, 137474, Control_c, 0, 64, 43
1, 137488, Control_c, 0, 64, 42
1, 137556, Note_on_c, 0, 53, 60
1, 137577, Control_c, 0, 64, 43
1, 137636, Control_c, 0, 64, 42
1, 137708, Note_off_c, 0, 44, 39
1, 137717, Note_on_c, 0, 56, 50
1, 137726, Control_c, 0, 64, 42
1, 137748, Control_c, 0, 64, 41
1, 137762, Control_c, 0, 64, 40
1, 137762, Control_c, 0, 67, 8
1, 137777, Control_c, 0, 64, 39
1, 137777, Control_c, 0, 67, 9
1, 137782, Note_off_c, 0, 48, 31
1, 137792, Control_c, 0, 64, 39
1, 137792, Control_c, 0, 67, 11
1, 137807, Control_c, 0, 64, 38
1, 137807, Control_c, 0, 67, 13
1, 137821, Control_c, 0, 64, 38
1, 137821, Control_c, 0, 67, 16
1, 137836, Control_c, 0, 64, 37
1, 137836, Control_c, 0, 67, 17
1, 137851, Control_c, 0, 67, 18
1, 137866, Control_c, 0, 64, 36
1, 137881, Control_c, 0, 67, 19
1, 137883, Note_on_c, 0, 60, 48
1, 137896, Note_on_c, 0, 44, 37
1, 137896, Control_c, 0, 64, 36
1, 137896, Control_c, 0, 67, 22
1, 137911, Control_c, 0, 67, 27
1, 137925, Control_c, 0, 67, 30
1, 137930, Note_off_c, 0, 56, 35
1, 137940, Control_c, 0, 64, 35
1, 137940, Control_c, 0, 67, 32
1, 137955, Control_c, 0, 64, 34
1, 137955, Control_c, 0, 67, 32
1, 137970, Control_c, 0, 64, 34
1, 137970, Control_c, 0, 67, 33
1, 138000, Control_c, 0, 67, 32
1, 138014, Control_c, 0, 67, 31
1, 138028, Control_c, 0, 67, 30
1, 138036, Note_on_c, 0, 65, 59
1, 138040, Note_off_c, 0, 53, 39
1, 138043, Control_c, 0, 67, 29
1, 138050, Note_on_c, 0, 48, 47
1, 138058, Control_c, 0, 67, 29
1, 138073, Control_c, 0, 64, 34
1, 138073, Control_c, 0, 67, 28
1, 138087, Control_c, 0, 64, 35
1, 138087, Control_c, 0, 67, 27
1, 138102, Control_c, 0, 67, 25
1, 138117, Control_c, 0, 67, 25
1, 138132, Control_c, 0, 64, 36
1, 138132, Control_c, 0, 67, 24
1, 138147, Control_c, 0, 64, 37
1, 138147, Control_c, 0, 67, 23
1, 138161, Control_c, 0, 64, 38
1, 138161, Control_c, 0, 67, 22
1, 138176, Control_c, 0, 64, 40
1, 138176, Control_c, 0, 67, 22
1, 138181, Note_on_c, 0, 68, 70
1, 138191, Control_c, 0, 64, 41
1, 138191, Control_c, 0, 67, 21
1, 138193, Note_on_c, 0, 53, 47
1, 138206, Control_c, 0, 64, 41
1, 138206, Control_c, 0, 67, 20
1, 138222, Control_c, 0, 64, 42
1, 138222, Control_c, 0, 67, 19
1, 138236, Control_c, 0, 64, 42
1, 138236, Control_c, 0, 67, 18
1, 138251, Control_c, 0, 67, 16
1, 138266, Control_c, 0, 64, 44
1, 138266, Control_c, 0, 67, 13
1, 138281, Control_c, 0, 64, 45
1, 138281, Control_c, 0, 67, 10
1, 138296, Control_c, 0, 67, 0
1, 138315, Note_off_c, 0, 44, 32
1, 138325, Control_c, 0, 64, 45
1, 138328, Note_off_c, 0, 48, 32
1, 138340, Control_c, 0, 64, 46
1, 138352, Note_on_c, 0, 72, 73
1, 138353, Note_on_c, 0, 56, 49
1, 138370, Note_off_c, 0, 60, 57
1, 138370, Control_c, 0, 64, 47
1, 138385, Control_c, 0, 64, 48
1, 138429, Control_c, 0, 64, 48
1, 138432, Note_off_c, 0, 68, 48
1, 138507, Note_on_c, 0, 60, 71
1, 138522, Note_on_c, 0, 44, 57
1, 138532, Note_off_c, 0, 65, 39
1, 138555, Control_c, 0, 64, 47
1, 138594, Note_off_c, 0, 56, 46
1, 138599, Control_c, 0, 64, 47
1, 138662, Note_on_c, 0, 65, 74
1, 138668, Note_on_c, 0, 48, 60
1, 138673, Note_off_c, 0, 53, 59
1, 138689, Control_c, 0, 64, 46
1, 138703, Control_c, 0, 64, 46
1, 138762, Control_c, 0, 64, 45
1, 138815, Note_on_c, 0, 53, 64
1, 138818, Note_on_c, 0, 68, 81
1, 138818, Note_off_c, 0, 72, 62
1, 138909, Control_c, 0, 64, 46
1, 138965, Note_off_c, 0, 44, 39
1, 138979, Note_on_c, 0, 56, 64
1, 138987, Note_on_c, 0, 72, 85
1, 138989, Note_off_c, 0, 48, 57
1, 139029, Control_c, 0, 64, 46
1, 139036, Note_off_c, 0, 60, 60
1, 139053, Note_off_c, 0, 68, 56
1, 139126, Note_off_c, 0, 65, 41
1, 139135, Note_on_c, 0, 60, 83
1, 139150, Note_on_c, 0, 44, 66
1, 139242, Note_off_c, 0, 56, 58
1, 139259, Control_c, 0, 64, 47
1, 139307, Note_on_c, 0, 65, 78
1, 139317, Note_on_c, 0, 48, 65
1, 139323, Note_off_c, 0, 53, 63
1, 139467, Note_on_c, 0, 68, 82
1, 139468, Note_on_c, 0, 53, 66
1, 139506, Note_off_c, 0, 72, 60
1, 139540, Control_c, 0, 64, 47
1, 139599, Control_c, 0, 64, 47
1, 139642, Note_on_c, 0, 56, 63
1, 139655, Note_on_c, 0, 72, 83
1, 139661, Note_off_c, 0, 44, 58
1, 139676, Note_off_c, 0, 60, 56
1, 139688, Control_c, 0, 64, 47
1, 139703, Control_c, 0, 64, 48
1, 139705, Note_off_c, 0, 68, 58
1, 139723, Note_off_c, 0, 65, 56
1, 139724, Note_off_c, 0, 48, 38
1, 139732, Control_c, 0, 64, 49
1, 139777, Control_c, 0, 64, 49
1, 139791, Control_c, 0, 64, 50
1, 139823, Control_c, 0, 64, 50
1, 139830, Note_on_c, 0, 44, 56
1, 139835, Note_on_c, 0, 60, 81
1, 139837, Control_c, 0, 64, 51
1, 139852, Control_c, 0, 64, 51
1, 139867, Control_c, 0, 64, 52
1, 139881, Control_c, 0, 64, 52
1, 139896, Control_c, 0, 64, 53
1, 139932, Note_off_c, 0, 56, 34
1, 140008, Control_c, 0, 64, 53
1, 140037, Control_c, 0, 64, 54
1, 140042, Note_on_c, 0, 48, 51
1, 140047, Note_on_c, 0, 65, 78
1, 140077, Note_off_c, 0, 53, 60
1, 140185, Control_c, 0, 64, 53
1, 140215, Control_c, 0, 64, 53
1, 140269, Note_on_c, 0, 53, 47
1, 140277, Note_on_c, 0, 68, 79
1, 140317, Note_off_c, 0, 72, 61
1, 140570, Control_c, 0, 64, 52
1, 140600, Control_c, 0, 64, 52
1, 140674, Control_c, 0, 64, 51
1, 140689, Control_c, 0, 64, 51
1, 140704, Control_c, 0, 64, 50
1, 140719, Control_c, 0, 64, 50
1, 140741, Control_c, 0, 64, 49
1, 140756, Control_c, 0, 64, 49
1, 140757, Note_on_c, 0, 56, 46
1, 140769, Note_on_c, 0, 72, 76
1, 140800, Control_c, 0, 64, 48
1, 140815, Control_c, 0, 64, 48
1, 140830, Control_c, 0, 64, 47
1, 140842, Note_off_c, 0, 65, 57
1, 140844, Control_c, 0, 64, 47
1, 140850, Note_off_c, 0, 68, 60
1, 140859, Control_c, 0, 64, 46
1, 140963, Control_c, 0, 64, 45
1, 140978, Control_c, 0, 64, 45
1, 140993, Control_c, 0, 64, 44
1, 141038, Control_c, 0, 64, 43
1, 141052, Control_c, 0, 64, 42
1, 141067, Control_c, 0, 64, 42
1, 141082, Control_c, 0, 64, 40
1, 141097, Control_c, 0, 64, 40
1, 141112, Control_c, 0, 64, 39
1, 141142, Control_c, 0, 64, 39
1, 141154, Note_on_c, 0, 65, 69
1, 141157, Control_c, 0, 64, 38
1, 141172, Control_c, 0, 64, 38
1, 141186, Control_c, 0, 64, 37
1, 141189, Note_off_c, 0, 65, 62
1, 141246, Note_on_c, 0, 65, 67
1, 141319, Control_c, 0, 64, 37
1, 141349, Control_c, 0, 64, 38
1, 141409, Control_c, 0, 64, 37
1, 141453, Control_c, 0, 64, 38
1, 141506, Control_c, 0, 64, 38
1, 141520, Control_c, 0, 64, 39
1, 141550, Control_c, 0, 64, 39
1, 141565, Control_c, 0, 64, 40
1, 141580, Control_c, 0, 64, 40
1, 141612, Note_off_c, 0, 60, 40
1, 141624, Control_c, 0, 64, 40
1, 141639, Control_c, 0, 64, 38
1, 141654, Control_c, 0, 64, 35
1, 141657, Note_off_c, 0, 44, 61
1, 141668, Control_c, 0, 64, 24
1, 141683, Control_c, 0, 64, 0
1, 141697, Note_off_c, 0, 48, 60
1, 141698, Control_c, 0, 67, 12
1, 141713, Control_c, 0, 67, 25
1, 141724, Note_off_c, 0, 53, 64
1, 141728, Control_c, 0, 67, 43
1, 141729, Note_off_c, 0, 56, 61
1, 141734, Note_off_c, 0, 65, 64
1, 141742, Control_c, 0, 67, 64
1, 141757, Control_c, 0, 67, 83
1, 141758, Note_off_c, 0, 72, 61
1, 141772, Control_c, 0, 67, 98
1, 141786, Control_c, 0, 67, 110
1, 141801, Control_c, 0, 67, 114
1, 141816, Control_c, 0, 67, 115
1, 141831, Control_c, 0, 67, 116
1, 141846, Control_c, 0, 67, 116
1, 141860, Control_c, 0, 67, 117
1, 141950, Control_c, 0, 67, 118
1, 142024, Control_c, 0, 67, 117
1, 142053, Control_c, 0, 67, 117
1, 142068, Control_c, 0, 67, 116
1, 142083, Control_c, 0, 67, 116
1, 142098, Control_c, 0, 67, 115
1, 142127, Control_c, 0, 67, 115
1, 142142, Control_c, 0, 67, 114
1, 142157, Control_c, 0, 67, 114
1, 142172, Control_c, 0, 67, 113
1, 142186, Control_c, 0, 67, 112
1, 142203, Control_c, 0, 67, 112
1, 142215, Note_on_c, 0, 72, 51
1, 142218, Control_c, 0, 67, 111
1, 142236, Note_on_c, 0, 60, 36
1, 142239, Control_c, 0, 64, 49
1, 142254, Control_c, 0, 64, 63
1, 142269, Control_c, 0, 64, 69
1, 142284, Control_c, 0, 64, 79
1, 142298, Control_c, 0, 64, 90
1, 142303, Note_off_c, 0, 60, 52
1, 142313, Control_c, 0, 64, 98
1, 142328, Control_c, 0, 64, 99
1, 142388, Control_c, 0, 64, 99
1, 142388, Control_c, 0, 67, 112
1, 142417, Control_c, 0, 64, 98
1, 142447, Control_c, 0, 64, 98
1, 142462, Control_c, 0, 64, 97
1, 142477, Control_c, 0, 64, 96
1, 142478, Note_on_c, 0, 65, 63
1, 142483, Note_on_c, 0, 53, 28
1, 142491, Control_c, 0, 64, 95
1, 142506, Control_c, 0, 64, 92
1, 142510, Note_off_c, 0, 65, 65
1, 142521, Control_c, 0, 64, 86
1, 142530, Note_off_c, 0, 53, 0
1, 142536, Control_c, 0, 64, 78
1, 142545, Note_off_c, 0, 72, 33
1, 142546, Note_on_c, 0, 53, 39
1, 142551, Control_c, 0, 64, 69
1, 142551, Control_c, 0, 67, 113
1, 142565, Control_c, 0, 64, 50
1, 142580, Control_c, 0, 64, 0
1, 142581, Note_on_c, 0, 65, 53
1, 142624, Control_c, 0, 67, 113
1, 142639, Control_c, 0, 67, 114
1, 142669, Control_c, 0, 67, 115
1, 142743, Control_c, 0, 67, 115
1, 142757, Control_c, 0, 67, 116
1, 142787, Control_c, 0, 67, 116
1, 142862, Control_c, 0, 67, 117
1, 142876, Control_c, 0, 67, 117
1, 142906, Control_c, 0, 67, 118
1, 142915, Note_off_c, 0, 53, 66
1, 142917, Note_off_c, 0, 65, 64
1, 143092, Control_c, 0, 67, 117
1, 143151, Control_c, 0, 64, 27
1, 143151, Control_c, 0, 67, 117
1, 143166, Control_c, 0, 64, 40
1, 143166, Control_c, 0, 67, 116
1, 143181, Control_c, 0, 64, 47
1, 143196, Control_c, 0, 64, 50
1, 143211, Control_c, 0, 64, 51
1, 143211, Control_c, 0, 67, 116
1, 143225, Control_c, 0, 64, 51
1, 143225, Control_c, 0, 67, 115
1, 143240, Control_c, 0, 64, 54
1, 143255, Control_c, 0, 64, 57
1, 143270, Control_c, 0, 64, 60
1, 143285, Control_c, 0, 64, 62
1, 143285, Control_c, 0, 67, 115
1, 143299, Control_c, 0, 64, 63
1, 143314, Control_c, 0, 64, 63
1, 143329, Control_c, 0, 64, 64
1, 143344, Control_c, 0, 64, 65
1, 143359, Control_c, 0, 64, 68
1, 143374, Control_c, 0, 64, 72
1, 143378, Note_on_c, 0, 65, 41
1, 143380, Note_on_c, 0, 39, 34
1, 143380, Note_on_c, 0, 63, 40
1, 143388, Control_c, 0, 64, 77
1, 143395, Note_on_c, 0, 32, 29
1, 143395, Note_on_c, 0, 60, 25
1, 143403, Control_c, 0, 64, 82
1, 143403, Control_c, 0, 67, 114
1, 143418, Control_c, 0, 64, 87
1, 143432, Control_c, 0, 64, 94
1, 143447, Control_c, 0, 64, 100
1, 143462, Control_c, 0, 64, 105
1, 143466, Note_off_c, 0, 32, 54
1, 143477, Control_c, 0, 64, 108
1, 143491, Note_off_c, 0, 39, 51
1, 143492, Control_c, 0, 64, 111
1, 143506, Control_c, 0, 64, 113
1, 143521, Control_c, 0, 64, 115
1, 143536, Control_c, 0, 64, 116
1, 143538, Note_off_c, 0, 60, 36
1, 143540, Note_off_c, 0, 63, 45
1, 143540, Note_off_c, 0, 65, 60
1, 143550, Control_c, 0, 64, 117
1, 143565, Control_c, 0, 64, 118
1, 143580, Control_c, 0, 64, 118
1, 143595, Control_c, 0, 67, 114
1, 143625, Control_c, 0, 67, 113
1, 143751, Control_c, 0, 64, 114
1, 143765, Control_c, 0, 64, 106
1, 143780, Note_on_c, 0, 65, 61
1, 143780, Control_c, 0, 64, 95
1, 143791, Note_on_c, 0, 63, 53
1, 143792, Note_on_c, 0, 39, 45
1, 143792, Note_on_c, 0, 60, 43
1, 143795, Control_c, 0, 64, 85
1, 143799, Note_on_c, 0, 32, 42
1, 143811, Control_c, 0, 64, 73
1, 143811, Control_c, 0, 67, 113
1, 143826, Control_c, 0, 64, 63
1, 143841, Control_c, 0, 64, 42
1, 143855, Control_c, 0, 64, 44
1, 143870, Control_c, 0, 64, 59
1, 143885, Control_c, 0, 64, 66
1, 143890, Note_off_c, 0, 32, 57
1, 143900, Control_c, 0, 64, 73
1, 143911, Note_off_c, 0, 39, 57
1, 143915, Control_c, 0, 64, 83
1, 143929, Control_c, 0, 64, 92
1, 143932, Note_off_c, 0, 60, 54
1, 143944, Control_c, 0, 64, 100
1, 143951, Note_off_c, 0, 63, 59
1, 143959, Control_c, 0, 64, 107
1, 143969, Note_off_c, 0, 65, 60
1, 143974, Control_c, 0, 64, 113
1, 143989, Control_c, 0, 64, 118
1, 144004, Control_c, 0, 64, 121
1, 144019, Control_c, 0, 64, 122
1, 144034, Control_c, 0, 64, 123
1, 144049, Control_c, 0, 64, 124
1, 144063, Control_c, 0, 64, 125
1, 144078, Control_c, 0, 64, 125
1, 144167, Control_c, 0, 64, 118
1, 144167, Control_c, 0, 67, 113
1, 144182, Control_c, 0, 64, 108
1, 144194, Note_on_c, 0, 32, 46
1, 144194, Note_on_c, 0, 65, 63
1, 144197, Control_c, 0, 64, 94
1, 144197, Note_on_c, 0, 39, 43
1, 144201, Note_on_c, 0, 63, 53
1, 144203, Note_on_c, 0, 60, 49
1, 144212, Control_c, 0, 64, 82
1, 144227, Control_c, 0, 64, 70
1, 144242, Control_c, 0, 64, 48
1, 144256, Control_c, 0, 64, 0
1, 144286, Control_c, 0, 64, 23
1, 144286, Control_c, 0, 67, 114
1, 144301, Control_c, 0, 64, 60
1, 144316, Control_c, 0, 64, 67
1, 144330, Control_c, 0, 64, 74
1, 144334, Note_off_c, 0, 60, 52
1, 144345, Control_c, 0, 64, 82
1, 144345, Control_c, 0, 67, 113
1, 144360, Control_c, 0, 64, 89
1, 144361, Note_off_c, 0, 39, 54
1, 144373, Note_off_c, 0, 63, 37
1, 144375, Control_c, 0, 64, 97
1, 144375, Control_c, 0, 67, 113
1, 144376, Note_off_c, 0, 32, 44
1, 144389, Control_c, 0, 64, 104
1, 144404, Control_c, 0, 64, 108
1, 144419, Control_c, 0, 64, 111
1, 144434, Control_c, 0, 64, 112
1, 144448, Control_c, 0, 64, 113
1, 144463, Control_c, 0, 64, 114
1, 144486, Control_c, 0, 64, 115
1, 144531, Control_c, 0, 64, 116
1, 144605, Control_c, 0, 67, 113
1, 144635, Control_c, 0, 64, 115
1, 144650, Control_c, 0, 64, 115
1, 144665, Control_c, 0, 64, 113
1, 144679, Control_c, 0, 64, 110
1, 144694, Control_c, 0, 64, 105
1, 144703, Note_on_c, 0, 66, 62
1, 144707, Note_on_c, 0, 39, 42
1, 144709, Control_c, 0, 64, 98
1, 144712, Note_on_c, 0, 33, 45
1, 144721, Note_on_c, 0, 60, 41
1, 144724, Control_c, 0, 64, 88
1, 144730, Note_on_c, 0, 63, 46
1, 144739, Control_c, 0, 64, 76
1, 144753, Control_c, 0, 64, 63
1, 144767, Control_c, 0, 64, 0
1, 144782, Control_c, 0, 67, 113
1, 144799, Note_off_c, 0, 65, 57
1, 144826, Control_c, 0, 67, 111
1, 144841, Control_c, 0, 67, 110
1, 144856, Control_c, 0, 67, 109
1, 144871, Control_c, 0, 67, 109
1, 144886, Control_c, 0, 67, 108
1, 144901, Control_c, 0, 67, 107
1, 144916, Control_c, 0, 67, 106
1, 144931, Control_c, 0, 67, 105
1, 144945, Control_c, 0, 64, 43
1, 144945, Control_c, 0, 67, 102
1, 144960, Control_c, 0, 64, 62
1, 144960, Control_c, 0, 67, 96
1, 144975, Control_c, 0, 64, 67
1, 144975, Control_c, 0, 67, 91
1, 144990, Control_c, 0, 64, 73
1, 144990, Control_c, 0, 67, 87
1, 145004, Control_c, 0, 64, 79
1, 145004, Control_c, 0, 67, 83
1, 145019, Control_c, 0, 64, 85
1, 145019, Control_c, 0, 67, 79
1, 145034, Control_c, 0, 64, 90
1, 145034, Control_c, 0, 67, 72
1, 145049, Control_c, 0, 64, 97
1, 145049, Control_c, 0, 67, 64
1, 145064, Control_c, 0, 64, 101
1, 145064, Control_c, 0, 67, 53
1, 145078, Control_c, 0, 64, 106
1, 145078, Control_c, 0, 67, 42
1, 145093, Control_c, 0, 64, 111
1, 145093, Control_c, 0, 67, 27
1, 145108, Control_c, 0, 64, 117
1, 145108, Control_c, 0, 67, 10
1, 145123, Control_c, 0, 64, 124
1, 145123, Control_c, 0, 67, 0
1, 145138, Control_c, 0, 64, 127
1, 145524, Note_off_c, 0, 33, 42
1, 145561, Note_off_c, 0, 60, 40
1, 145567, Note_off_c, 0, 39, 40
1, 145602, Note_off_c, 0, 63, 44
1, 145618, Note_off_c, 0, 66, 43
1, 145998, Control_c, 0, 64, 113
1, 146004, Note_on_c, 0, 63, 63
1, 146006, Note_on_c, 0, 66, 68
1, 146008, Note_on_c, 0, 54, 47
1, 146013, Control_c, 0, 64, 100
1, 146015, Note_on_c, 0, 60, 57
1, 146025, Note_on_c, 0, 51, 45
1, 146027, Control_c, 0, 64, 89
1, 146036, Note_on_c, 0, 45, 39
1, 146042, Control_c, 0, 64, 80
1, 146057, Control_c, 0, 64, 71
1, 146072, Control_c, 0, 64, 60
1, 146087, Control_c, 0, 64, 0
1, 146116, Control_c, 0, 64, 46
1, 146131, Control_c, 0, 64, 63
1, 146145, Control_c, 0, 64, 69
1, 146160, Control_c, 0, 64, 76
1, 146175, Control_c, 0, 64, 84
1, 146190, Control_c, 0, 64, 93
1, 146206, Control_c, 0, 64, 107
1, 146209, Note_off_c, 0, 60, 52
1, 146221, Control_c, 0, 64, 126
1, 146228, Note_off_c, 0, 54, 59
1, 146236, Control_c, 0, 64, 127
1, 146239, Note_off_c, 0, 45, 41
1, 146244, Note_off_c, 0, 51, 61
1, 146249, Note_off_c, 0, 63, 64
1, 146255, Note_off_c, 0, 66, 59
1, 146499, Note_on_c, 0, 54, 69
1, 146500, Note_on_c, 0, 63, 83
1, 146502, Note_on_c, 0, 51, 64
1, 146502, Control_c, 0, 64, 115
1, 146503, Note_on_c, 0, 66, 89
1, 146504, Note_on_c, 0, 60, 71
1, 146505, Note_on_c, 0, 45, 56
1, 146517, Control_c, 0, 64, 100
1, 146531, Control_c, 0, 64, 87
1, 146546, Control_c, 0, 64, 74
1, 146561, Control_c, 0, 64, 62
1, 146576, Control_c, 0, 64, 0
1, 146606, Control_c, 0, 64, 41
1, 146621, Control_c, 0, 64, 63
1, 146636, Control_c, 0, 64, 70
1, 146650, Control_c, 0, 64, 78
1, 146665, Control_c, 0, 64, 88
1, 146680, Control_c, 0, 64, 100
1, 146695, Control_c, 0, 64, 111
1, 146696, Note_off_c, 0, 45, 58
1, 146708, Note_off_c, 0, 60, 60
1, 146710, Control_c, 0, 64, 125
1, 146713, Note_off_c, 0, 54, 60
1, 146731, Control_c, 0, 64, 127
1, 146733, Note_off_c, 0, 51, 59
1, 146758, Note_off_c, 0, 63, 62
1, 146775, Note_off_c, 0, 66, 60
1, 147023, Note_on_c, 0, 66, 92
1, 147023, Note_on_c, 0, 63, 86
1, 147027, Note_on_c, 0, 54, 74
1, 147029, Note_on_c, 0, 60, 77
1, 147029, Control_c, 0, 64, 115
1, 147032, Note_on_c, 0, 51, 64
1, 147038, Note_on_c, 0, 45, 63
1, 147044, Control_c, 0, 64, 100
1, 147059, Control_c, 0, 64, 84
1, 147073, Control_c, 0, 64, 72
1, 147088, Control_c, 0, 64, 56
1, 147103, Control_c, 0, 64, 0
1, 147133, Control_c, 0, 64, 49
1, 147147, Control_c, 0, 64, 65
1, 147162, Control_c, 0, 64, 75
1, 147177, Control_c, 0, 64, 84
1, 147192, Control_c, 0, 64, 94
1, 147206, Control_c, 0, 64, 104
1, 147207, Note_off_c, 0, 60, 56
1, 147221, Control_c, 0, 64, 115
1, 147236, Control_c, 0, 64, 127
1, 147259, Note_off_c, 0, 45, 62
1, 147278, Note_off_c, 0, 54, 56
1, 147280, Note_off_c, 0, 63, 62
1, 147294, Note_off_c, 0, 51, 56
1, 147297, Note_off_c, 0, 66, 57
1, 147765, Note_on_c, 0, 51, 66
1, 147768, Note_on_c, 0, 67, 83
1, 147769, Note_on_c, 0, 63, 84
1, 147771, Note_on_c, 0, 46, 67
1, 147771, Note_on_c, 0, 55, 59
1, 147773, Note_on_c, 0, 58, 74
1, 147792, Control_c, 0, 64, 118
1, 147808, Control_c, 0, 64, 100
1, 147822, Control_c, 0, 64, 85
1, 147837, Control_c, 0, 64, 68
1, 147852, Control_c, 0, 64, 0
1, 148030, Control_c, 0, 64, 21
1, 148045, Control_c, 0, 64, 52
1, 148060, Control_c, 0, 64, 62
1, 148075, Control_c, 0, 64, 67
1, 148090, Control_c, 0, 64, 73
1, 148104, Control_c, 0, 64, 81
1, 148119, Control_c, 0, 64, 93
1, 148134, Control_c, 0, 64, 103
1, 148148, Control_c, 0, 64, 115
1, 148163, Control_c, 0, 64, 127
1, 149230, Control_c, 0, 67, 8
1, 149244, Control_c, 0, 67, 10
1, 149259, Control_c, 0, 67, 12
1, 149274, Control_c, 0, 67, 17
1, 149289, Control_c, 0, 67, 23
1, 149304, Control_c, 0, 67, 32
1, 149318, Control_c, 0, 67, 42
1, 149333, Control_c, 0, 67, 52
1, 149342, Note_off_c, 0, 46, 32
1, 149348, Control_c, 0, 67, 60
1, 149354, Note_off_c, 0, 55, 35
1, 149363, Control_c, 0, 67, 66
1, 149378, Control_c, 0, 67, 67
1, 149393, Control_c, 0, 67, 68
1, 149408, Control_c, 0, 67, 70
1, 149423, Control_c, 0, 67, 76
1, 149434, Note_off_c, 0, 51, 38
1, 149438, Control_c, 0, 67, 84
1, 149453, Control_c, 0, 67, 93
1, 149465, Note_off_c, 0, 63, 36
1, 149468, Control_c, 0, 67, 98
1, 149470, Note_off_c, 0, 67, 45
1, 149482, Control_c, 0, 67, 101
1, 149491, Note_off_c, 0, 58, 28
1, 149497, Control_c, 0, 67, 103
1, 149542, Control_c, 0, 64, 125
1, 149557, Control_c, 0, 64, 107
1, 149572, Control_c, 0, 64, 95
1, 149587, Control_c, 0, 64, 82
1, 149587, Control_c, 0, 67, 102
1, 149601, Control_c, 0, 64, 69
1, 149601, Control_c, 0, 67, 102
1, 149616, Control_c, 0, 64, 10
1, 149631, Control_c, 0, 64, 0
1, 149690, Control_c, 0, 67, 101
1, 149772, Control_c, 0, 67, 100
1, 149786, Control_c, 0, 67, 99
1, 149801, Control_c, 0, 67, 99
1, 149846, Control_c, 0, 67, 98
1, 149861, Control_c, 0, 67, 97
1, 149875, Control_c, 0, 67, 97
1, 149890, Control_c, 0, 67, 96
1, 149964, Control_c, 0, 67, 96
1, 149979, Control_c, 0, 67, 95
1, 149993, Control_c, 0, 67, 94
1, 150008, Control_c, 0, 67, 93
1, 150023, Control_c, 0, 67, 92
1, 150032, Note_on_c, 0, 67, 52
1, 150036, Note_on_c, 0, 62, 47
1, 150043, Note_on_c, 0, 56, 37
1, 150043, Note_on_c, 0, 46, 37
1, 150053, Control_c, 0, 67, 91
1, 150073, Note_off_c, 0, 46, 46
1, 150082, Control_c, 0, 67, 92
1, 150085, Note_off_c, 0, 62, 57
1, 150093, Note_off_c, 0, 56, 43
1, 150107, Note_off_c, 0, 67, 53
1, 150150, Note_on_c, 0, 65, 49
1, 150156, Control_c, 0, 67, 92
1, 150171, Control_c, 0, 67, 93
1, 150186, Note_off_c, 0, 65, 58
1, 150202, Control_c, 0, 67, 93
1, 150246, Control_c, 0, 67, 93
1, 150261, Control_c, 0, 67, 92
1, 150276, Control_c, 0, 67, 92
1, 150295, Note_on_c, 0, 65, 59
1, 150305, Control_c, 0, 67, 91
1, 150308, Note_on_c, 0, 46, 60
1, 150315, Note_on_c, 0, 34, 47
1, 150319, Note_on_c, 0, 56, 44
1, 150335, Control_c, 0, 67, 91
1, 150338, Note_off_c, 0, 46, 63
1, 150344, Note_off_c, 0, 34, 49
1, 150345, Note_off_c, 0, 56, 57
1, 150362, Note_off_c, 0, 65, 63
1, 150377, Note_on_c, 0, 67, 62
1, 150424, Note_on_c, 0, 65, 62
1, 150430, Note_off_c, 0, 67, 62
1, 150454, Control_c, 0, 67, 91
1, 150476, Control_c, 0, 67, 92
1, 150507, Note_on_c, 0, 64, 60
1, 150507, Note_off_c, 0, 65, 64
1, 150535, Control_c, 0, 67, 91
1, 150550, Control_c, 0, 67, 91
1, 150564, Control_c, 0, 67, 90
1, 150578, Note_on_c, 0, 56, 49
1, 150578, Note_off_c, 0, 64, 59
1, 150579, Control_c, 0, 67, 90
1, 150590, Note_on_c, 0, 65, 57
1, 150594, Control_c, 0, 67, 89
1, 150597, Note_on_c, 0, 34, 46
1, 150600, Note_on_c, 0, 46, 53
1, 150609, Control_c, 0, 67, 89
1, 150617, Note_off_c, 0, 56, 61
1, 150624, Control_c, 0, 67, 88
1, 150624, Note_off_c, 0, 34, 50
1, 150625, Note_off_c, 0, 46, 54
1, 150639, Control_c, 0, 67, 88
1, 150654, Control_c, 0, 67, 87
1, 150724, Note_on_c, 0, 67, 57
1, 150726, Note_off_c, 0, 65, 63
1, 150756, Control_c, 0, 67, 87
1, 150759, Note_off_c, 0, 67, 63
1, 150786, Control_c, 0, 67, 86
1, 150830, Control_c, 0, 67, 86
1, 150845, Control_c, 0, 67, 85
1, 150860, Control_c, 0, 67, 82
1, 150870, Note_on_c, 0, 63, 60
1, 150875, Control_c, 0, 67, 76
1, 150885, Note_on_c, 0, 39, 41
1, 150885, Note_on_c, 0, 51, 47
1, 150889, Control_c, 0, 67, 65
1, 150894, Note_on_c, 0, 55, 41
1, 150904, Control_c, 0, 67, 54
1, 150919, Control_c, 0, 67, 45
1, 150922, Note_off_c, 0, 63, 59
1, 150934, Note_off_c, 0, 55, 48
1, 150934, Control_c, 0, 67, 39
1, 150944, Note_on_c, 0, 65, 61
1, 150949, Control_c, 0, 67, 34
1, 150964, Control_c, 0, 67, 29
1, 150979, Control_c, 0, 67, 21
1, 150994, Control_c, 0, 67, 14
1, 151009, Control_c, 0, 67, 9
1, 151017, Note_off_c, 0, 65, 63
1, 151024, Note_on_c, 0, 63, 62
1, 151024, Control_c, 0, 67, 0
1, 151069, Note_off_c, 0, 63, 62
1, 151087, Note_on_c, 0, 62, 64
1, 151148, Note_off_c, 0, 51, 61
1, 151151, Note_off_c, 0, 62, 58
1, 151159, Note_off_c, 0, 39, 54
1, 151172, Note_on_c, 0, 63, 64
1, 151195, Note_off_c, 0, 63, 66
1, 151274, Note_on_c, 0, 65, 62
1, 151305, Note_off_c, 0, 65, 67
1, 151372, Note_on_c, 0, 67, 61
1, 151396, Note_off_c, 0, 67, 63
1, 151463, Note_on_c, 0, 68, 60
1, 151495, Note_off_c, 0, 68, 58
1, 151544, Note_on_c, 0, 70, 67
1, 151585, Note_off_c, 0, 70, 65
1, 151649, Note_on_c, 0, 72, 72
1, 151693, Note_off_c, 0, 72, 61
1, 151734, Note_on_c, 0, 74, 68
1, 151785, Note_off_c, 0, 74, 62
1, 151825, Note_on_c, 0, 75, 79
1, 151865, Note_off_c, 0, 75, 64
1, 151909, Note_on_c, 0, 77, 83
1, 151948, Note_off_c, 0, 77, 63
1, 152004, Note_on_c, 0, 78, 85
1, 152052, Note_off_c, 0, 78, 62
1, 152086, Note_on_c, 0, 79, 90
1, 152125, Note_off_c, 0, 79, 64
1, 152178, Note_on_c, 0, 80, 91
1, 152253, Note_off_c, 0, 80, 57
1, 152260, Note_on_c, 0, 81, 94
1, 152304, Note_off_c, 0, 81, 64
1, 152353, Note_on_c, 0, 82, 92
1, 152409, Note_off_c, 0, 82, 58
1, 152442, Note_on_c, 0, 83, 86
1, 152493, Note_off_c, 0, 83, 60
1, 152597, Note_on_c, 0, 84, 82
1, 152600, Note_on_c, 0, 68, 43
1, 152604, Note_on_c, 0, 75, 46
1, 152606, Note_on_c, 0, 72, 46
1, 152844, Note_on_c, 0, 77, 69
1, 152871, Note_off_c, 0, 77, 64
1, 152925, Note_on_c, 0, 77, 57
1, 153000, Note_off_c, 0, 84, 56
1, 153152, Note_off_c, 0, 77, 62
1, 153176, Note_off_c, 0, 75, 65
1, 153182, Note_off_c, 0, 72, 65
1, 153188, Note_off_c, 0, 68, 64
1, 153210, Control_c, 0, 67, 8
1, 153225, Control_c, 0, 67, 10
1, 153240, Control_c, 0, 67, 14
1, 153255, Control_c, 0, 67, 19
1, 153270, Control_c, 0, 67, 25
1, 153284, Control_c, 0, 67, 30
1, 153299, Control_c, 0, 67, 35
1, 153314, Control_c, 0, 67, 40
1, 153329, Control_c, 0, 67, 43
1, 153343, Control_c, 0, 67, 44
1, 153358, Control_c, 0, 67, 45
1, 153389, Control_c, 0, 67, 45
1, 153419, Control_c, 0, 67, 46
1, 153538, Note_on_c, 0, 71, 47
1, 153545, Control_c, 0, 67, 45
1, 153574, Control_c, 0, 67, 45
1, 153589, Control_c, 0, 67, 44
1, 153590, Note_off_c, 0, 71, 56
1, 153614, Note_on_c, 0, 56, 37
1, 153618, Note_on_c, 0, 63, 39
1, 153619, Control_c, 0, 67, 43
1, 153620, Note_on_c, 0, 60, 33
1, 153624, Note_on_c, 0, 72, 60
1, 153648, Control_c, 0, 67, 42
1, 153708, Control_c, 0, 67, 42
1, 153737, Control_c, 0, 67, 41
1, 153828, Note_off_c, 0, 72, 59
1, 153850, Note_on_c, 0, 65, 54
1, 153871, Control_c, 0, 67, 42
1, 153872, Note_off_c, 0, 65, 64
1, 153901, Control_c, 0, 67, 42
1, 153915, Control_c, 0, 67, 43
1, 153927, Note_on_c, 0, 65, 57
1, 153930, Control_c, 0, 67, 44
1, 153945, Control_c, 0, 67, 44
1, 153960, Control_c, 0, 67, 45
1, 153975, Control_c, 0, 67, 45
1, 154004, Control_c, 0, 67, 46
1, 154019, Control_c, 0, 67, 46
1, 154034, Control_c, 0, 67, 47
1, 154049, Control_c, 0, 67, 47
1, 154064, Control_c, 0, 67, 52
1, 154079, Control_c, 0, 67, 58
1, 154094, Control_c, 0, 67, 64
1, 154108, Control_c, 0, 67, 70
1, 154123, Control_c, 0, 67, 75
1, 154138, Control_c, 0, 67, 80
1, 154153, Control_c, 0, 67, 84
1, 154167, Control_c, 0, 67, 85
1, 154182, Note_off_c, 0, 65, 65
1, 154183, Note_off_c, 0, 63, 60
1, 154194, Note_off_c, 0, 60, 62
1, 154217, Note_off_c, 0, 56, 59
1, 154235, Control_c, 0, 67, 84
1, 154294, Control_c, 0, 67, 85
1, 154309, Control_c, 0, 67, 86
1, 154324, Control_c, 0, 67, 87
1, 154338, Control_c, 0, 67, 88
1, 154353, Control_c, 0, 67, 90
1, 154368, Control_c, 0, 67, 91
1, 154590, Control_c, 0, 67, 90
1, 154605, Control_c, 0, 67, 90
1, 154620, Control_c, 0, 67, 89
1, 154650, Control_c, 0, 67, 88
1, 154664, Control_c, 0, 67, 88
1, 154709, Control_c, 0, 64, 34
1, 154709, Control_c, 0, 67, 87
1, 154717, Note_on_c, 0, 51, 35
1, 154717, Note_on_c, 0, 53, 38
1, 154720, Note_on_c, 0, 32, 25
1, 154723, Control_c, 0, 64, 53
1, 154723, Control_c, 0, 67, 87
1, 154729, Note_on_c, 0, 48, 25
1, 154735, Note_on_c, 0, 44, 21
1, 154738, Control_c, 0, 64, 63
1, 154753, Control_c, 0, 64, 68
1, 154768, Control_c, 0, 64, 77
1, 154768, Control_c, 0, 67, 86
1, 154782, Control_c, 0, 64, 88
1, 154797, Control_c, 0, 64, 98
1, 154809, Note_off_c, 0, 32, 50
1, 154812, Note_off_c, 0, 44, 53
1, 154812, Control_c, 0, 64, 105
1, 154812, Control_c, 0, 67, 86
1, 154827, Control_c, 0, 64, 108
1, 154842, Control_c, 0, 64, 111
1, 154857, Control_c, 0, 64, 114
1, 154872, Control_c, 0, 64, 118
1, 154875, Note_off_c, 0, 51, 50
1, 154879, Note_off_c, 0, 53, 53
1, 154885, Note_off_c, 0, 48, 41
1, 154887, Control_c, 0, 64, 121
1, 154902, Control_c, 0, 64, 123
1, 154916, Control_c, 0, 64, 124
1, 155043, Control_c, 0, 64, 123
1, 155058, Control_c, 0, 64, 118
1, 155073, Control_c, 0, 64, 110
1, 155087, Control_c, 0, 64, 100
1, 155087, Control_c, 0, 67, 85
1, 155101, Note_on_c, 0, 32, 41
1, 155102, Control_c, 0, 64, 86
1, 155104, Note_on_c, 0, 44, 41
1, 155105, Note_on_c, 0, 53, 59
1, 155117, Control_c, 0, 64, 74
1, 155121, Note_on_c, 0, 48, 47
1, 155121, Note_on_c, 0, 51, 53
1, 155132, Control_c, 0, 64, 60
1, 155146, Control_c, 0, 64, 0
1, 155191, Control_c, 0, 64, 50
1, 155197, Note_off_c, 0, 32, 51
1, 155206, Control_c, 0, 64, 65
1, 155214, Note_off_c, 0, 44, 58
1, 155221, Control_c, 0, 64, 72
1, 155236, Control_c, 0, 64, 79
1, 155250, Control_c, 0, 64, 88
1, 155265, Control_c, 0, 64, 97
1, 155280, Control_c, 0, 64, 107
1, 155280, Note_off_c, 0, 51, 54
1, 155285, Note_off_c, 0, 48, 36
1, 155292, Note_off_c, 0, 53, 60
1, 155294, Control_c, 0, 64, 115
1, 155309, Control_c, 0, 64, 119
1, 155324, Control_c, 0, 64, 121
1, 155338, Control_c, 0, 64, 122
1, 155353, Control_c, 0, 64, 122
1, 155383, Control_c, 0, 64, 123
1, 155412, Control_c, 0, 64, 121
1, 155427, Control_c, 0, 64, 113
1, 155442, Control_c, 0, 64, 101
1, 155457, Control_c, 0, 64, 88
1, 155472, Control_c, 0, 64, 76
1, 155486, Note_on_c, 0, 32, 38
1, 155486, Control_c, 0, 64, 61
1, 155494, Note_on_c, 0, 44, 35
1, 155500, Note_on_c, 0, 53, 59
1, 155501, Control_c, 0, 64, 0
1, 155519, Note_on_c, 0, 51, 46
1, 155519, Note_on_c, 0, 48, 39
1, 155531, Control_c, 0, 64, 40
1, 155546, Control_c, 0, 64, 61
1, 155560, Control_c, 0, 64, 68
1, 155575, Control_c, 0, 64, 77
1, 155590, Control_c, 0, 64, 87
1, 155605, Control_c, 0, 64, 97
1, 155620, Control_c, 0, 64, 108
1, 155635, Control_c, 0, 64, 117
1, 155650, Control_c, 0, 64, 127
1, 155664, Note_off_c, 0, 32, 39
1, 155665, Control_c, 0, 64, 127
1, 155666, Note_off_c, 0, 53, 65
1, 155668, Note_off_c, 0, 44, 49
1, 155673, Note_off_c, 0, 51, 58
1, 155689, Note_off_c, 0, 48, 43
1, 155895, Control_c, 0, 67, 86
1, 155939, Note_on_c, 0, 54, 50
1, 155939, Control_c, 0, 64, 118
1, 155948, Note_on_c, 0, 51, 48
1, 155954, Control_c, 0, 64, 109
1, 155957, Note_on_c, 0, 33, 40
1, 155959, Note_on_c, 0, 45, 38
1, 155969, Control_c, 0, 64, 96
1, 155969, Control_c, 0, 67, 86
1, 155978, Note_on_c, 0, 48, 39
1, 155984, Control_c, 0, 64, 84
1, 155999, Control_c, 0, 64, 71
1, 156014, Control_c, 0, 64, 46
1, 156028, Control_c, 0, 64, 0
1, 156147, Control_c, 0, 67, 86
1, 156191, Control_c, 0, 67, 85
1, 156206, Control_c, 0, 64, 38
1, 156221, Control_c, 0, 64, 49
1, 156235, Control_c, 0, 64, 56
1, 156250, Control_c, 0, 64, 61
1, 156250, Control_c, 0, 67, 85
1, 156265, Control_c, 0, 64, 64
1, 156265, Control_c, 0, 67, 84
1, 156280, Control_c, 0, 64, 66
1, 156295, Control_c, 0, 64, 69
1, 156295, Control_c, 0, 67, 84
1, 156309, Control_c, 0, 64, 73
1, 156309, Control_c, 0, 67, 83
1, 156324, Control_c, 0, 64, 77
1, 156339, Control_c, 0, 64, 81
1, 156353, Control_c, 0, 64, 83
1, 156353, Control_c, 0, 67, 83
1, 156368, Control_c, 0, 64, 85
1, 156383, Control_c, 0, 64, 87
1, 156383, Control_c, 0, 67, 82
1, 156398, Control_c, 0, 64, 90
1, 156398, Control_c, 0, 67, 82
1, 156413, Control_c, 0, 64, 94
1, 156428, Control_c, 0, 64, 98
1, 156443, Control_c, 0, 64, 104
1, 156465, Control_c, 0, 64, 110
1, 156480, Control_c, 0, 64, 117
1, 156480, Control_c, 0, 67, 81
1, 156494, Control_c, 0, 64, 125
1, 156494, Control_c, 0, 67, 81
1, 156509, Control_c, 0, 64, 127
1, 156509, Control_c, 0, 67, 80
1, 156524, Control_c, 0, 67, 80
1, 156671, Note_off_c, 0, 48, 42
1, 156675, Note_off_c, 0, 33, 42
1, 156721, Note_off_c, 0, 51, 49
1, 156732, Control_c, 0, 67, 79
1, 156744, Note_off_c, 0, 45, 53
1, 156747, Control_c, 0, 67, 79
1, 156762, Note_off_c, 0, 54, 59
1, 156806, Control_c, 0, 67, 78
1, 156836, Control_c, 0, 67, 78
1, 157162, Control_c, 0, 67, 77
1, 157362, Control_c, 0, 64, 117
1, 157362, Control_c, 0, 67, 77
1, 157376, Note_on_c, 0, 78, 53
1, 157377, Control_c, 0, 64, 105
1, 157393, Control_c, 0, 64, 91
1, 157398, Note_on_c, 0, 75, 45
1, 157404, Note_on_c, 0, 69, 33
1, 157407, Note_on_c, 0, 72, 37
1, 157407, Control_c, 0, 64, 79
1, 157422, Control_c, 0, 64, 67
1, 157437, Control_c, 0, 64, 0
1, 157497, Control_c, 0, 64, 40
1, 157512, Control_c, 0, 64, 58
1, 157527, Control_c, 0, 64, 64
1, 157541, Control_c, 0, 64, 69
1, 157541, Control_c, 0, 67, 77
1, 157556, Control_c, 0, 64, 76
1, 157569, Note_off_c, 0, 72, 50
1, 157571, Control_c, 0, 64, 87
1, 157578, Note_off_c, 0, 69, 47
1, 157586, Control_c, 0, 64, 99
1, 157601, Control_c, 0, 64, 105
1, 157608, Note_off_c, 0, 75, 58
1, 157615, Control_c, 0, 64, 108
1, 157621, Note_off_c, 0, 78, 56
1, 157630, Control_c, 0, 64, 109
1, 157660, Control_c, 0, 64, 111
1, 157675, Control_c, 0, 64, 113
1, 157675, Control_c, 0, 67, 77
1, 157689, Control_c, 0, 64, 117
1, 157704, Control_c, 0, 64, 118
1, 157704, Control_c, 0, 67, 76
1, 157719, Control_c, 0, 64, 119
1, 157808, Control_c, 0, 67, 76
1, 157823, Control_c, 0, 67, 75
1, 157838, Control_c, 0, 67, 74
1, 157853, Control_c, 0, 64, 118
1, 157853, Control_c, 0, 67, 71
1, 157868, Control_c, 0, 64, 115
1, 157868, Control_c, 0, 67, 70
1, 157882, Control_c, 0, 64, 109
1, 157896, Note_on_c, 0, 72, 53
1, 157897, Note_on_c, 0, 78, 80
1, 157897, Control_c, 0, 64, 99
1, 157897, Control_c, 0, 67, 69
1, 157899, Note_on_c, 0, 75, 65
1, 157906, Note_on_c, 0, 69, 48
1, 157912, Control_c, 0, 64, 88
1, 157912, Control_c, 0, 67, 69
1, 157926, Control_c, 0, 64, 77
1, 157941, Control_c, 0, 64, 66
1, 157941, Control_c, 0, 67, 68
1, 157963, Control_c, 0, 64, 0
1, 157963, Control_c, 0, 67, 68
1, 157978, Control_c, 0, 67, 67
1, 158008, Control_c, 0, 67, 65
1, 158023, Control_c, 0, 64, 53
1, 158023, Control_c, 0, 67, 62
1, 158038, Control_c, 0, 64, 64
1, 158038, Control_c, 0, 67, 59
1, 158053, Control_c, 0, 64, 68
1, 158053, Control_c, 0, 67, 57
1, 158067, Control_c, 0, 64, 76
1, 158082, Control_c, 0, 64, 86
1, 158082, Control_c, 0, 67, 57
1, 158097, Control_c, 0, 64, 97
1, 158097, Control_c, 0, 67, 56
1, 158112, Control_c, 0, 64, 106
1, 158114, Note_off_c, 0, 72, 58
1, 158124, Note_off_c, 0, 75, 61
1, 158127, Control_c, 0, 64, 113
1, 158127, Control_c, 0, 67, 55
1, 158130, Note_off_c, 0, 69, 54
1, 158141, Control_c, 0, 64, 118
1, 158141, Control_c, 0, 67, 54
1, 158152, Note_off_c, 0, 78, 58
1, 158156, Control_c, 0, 64, 122
1, 158156, Control_c, 0, 67, 54
1, 158171, Control_c, 0, 64, 127
1, 158187, Control_c, 0, 64, 127
1, 158187, Control_c, 0, 67, 53
1, 158231, Control_c, 0, 67, 53
1, 158246, Control_c, 0, 67, 52
1, 158261, Control_c, 0, 67, 52
1, 158276, Control_c, 0, 67, 51
1, 158305, Control_c, 0, 67, 51
1, 158364, Control_c, 0, 67, 50
1, 158424, Control_c, 0, 64, 125
1, 158438, Control_c, 0, 64, 115
1, 158451, Note_on_c, 0, 72, 69
1, 158451, Note_on_c, 0, 78, 89
1, 158453, Note_on_c, 0, 75, 84
1, 158453, Control_c, 0, 64, 104
1, 158453, Control_c, 0, 67, 50
1, 158455, Note_on_c, 0, 69, 64
1, 158468, Control_c, 0, 64, 96
1, 158468, Control_c, 0, 67, 49
1, 158483, Control_c, 0, 64, 92
1, 158483, Control_c, 0, 67, 46
1, 158498, Control_c, 0, 64, 90
1, 158498, Control_c, 0, 67, 42
1, 158512, Control_c, 0, 67, 39
1, 158527, Control_c, 0, 67, 36
1, 158542, Control_c, 0, 67, 34
1, 158556, Control_c, 0, 64, 94
1, 158556, Control_c, 0, 67, 33
1, 158571, Control_c, 0, 64, 101
1, 158571, Control_c, 0, 67, 32
1, 158586, Control_c, 0, 64, 114
1, 158601, Control_c, 0, 64, 127
1, 158601, Control_c, 0, 67, 31
1, 158631, Control_c, 0, 67, 30
1, 158640, Note_off_c, 0, 72, 56
1, 158646, Control_c, 0, 67, 29
1, 158649, Note_off_c, 0, 75, 64
1, 158658, Note_off_c, 0, 69, 52
1, 158661, Control_c, 0, 67, 28
1, 158686, Note_off_c, 0, 78, 59
1, 158771, Control_c, 0, 67, 27
1, 158786, Control_c, 0, 67, 27
1, 158816, Control_c, 0, 67, 26
1, 158845, Control_c, 0, 67, 26
1, 158860, Control_c, 0, 67, 24
1, 158875, Control_c, 0, 67, 21
1, 158890, Control_c, 0, 67, 18
1, 158905, Control_c, 0, 67, 14
1, 158920, Control_c, 0, 67, 9
1, 158935, Control_c, 0, 67, 0
1, 159296, Note_on_c, 0, 79, 82
1, 159298, Note_on_c, 0, 70, 68
1, 159299, Note_on_c, 0, 75, 84
1, 159334, Control_c, 0, 64, 113
1, 159349, Control_c, 0, 64, 98
1, 159364, Control_c, 0, 64, 84
1, 159379, Control_c, 0, 64, 69
1, 159394, Control_c, 0, 64, 0
1, 159594, Control_c, 0, 64, 31
1, 159609, Control_c, 0, 64, 59
1, 159623, Control_c, 0, 64, 65
1, 159638, Control_c, 0, 64, 68
1, 159653, Control_c, 0, 64, 73
1, 159668, Control_c, 0, 64, 78
1, 159683, Control_c, 0, 64, 83
1, 159698, Control_c, 0, 64, 89
1, 159712, Control_c, 0, 64, 94
1, 159727, Control_c, 0, 64, 97
1, 159742, Control_c, 0, 64, 101
1, 159757, Control_c, 0, 64, 106
1, 159772, Control_c, 0, 64, 115
1, 159787, Control_c, 0, 64, 127
1, 161121, Note_off_c, 0, 70, 1
1, 161211, Control_c, 0, 67, 9
1, 161226, Control_c, 0, 67, 11
1, 161240, Control_c, 0, 67, 14
1, 161255, Control_c, 0, 67, 16
1, 161270, Control_c, 0, 67, 18
1, 161284, Control_c, 0, 67, 21
1, 161299, Control_c, 0, 67, 28
1, 161314, Control_c, 0, 67, 35
1, 161329, Control_c, 0, 67, 43
1, 161344, Control_c, 0, 67, 51
1, 161358, Control_c, 0, 67, 58
1, 161374, Control_c, 0, 67, 64
1, 161389, Control_c, 0, 67, 71
1, 161404, Control_c, 0, 67, 78
1, 161415, Note_off_c, 0, 79, 32
1, 161419, Control_c, 0, 67, 84
1, 161434, Control_c, 0, 67, 88
1, 161445, Note_off_c, 0, 75, 47
1, 161448, Control_c, 0, 64, 122
1, 161448, Control_c, 0, 67, 89
1, 161463, Control_c, 0, 64, 114
1, 161478, Control_c, 0, 64, 105
1, 161493, Control_c, 0, 64, 94
1, 161508, Control_c, 0, 64, 80
1, 161522, Control_c, 0, 64, 66
1, 161537, Control_c, 0, 64, 0
1, 161552, Control_c, 0, 67, 88
1, 161567, Control_c, 0, 67, 86
1, 161582, Control_c, 0, 67, 86
1, 161597, Control_c, 0, 67, 85
1, 161642, Control_c, 0, 67, 84
1, 161656, Control_c, 0, 67, 84
1, 161671, Control_c, 0, 67, 83
1, 161722, Control_c, 0, 67, 83
1, 161752, Control_c, 0, 67, 82
1, 161767, Control_c, 0, 67, 82
1, 161782, Control_c, 0, 67, 81
1, 161811, Control_c, 0, 67, 80
1, 161841, Control_c, 0, 67, 80
1, 161871, Control_c, 0, 67, 79
1, 161886, Control_c, 0, 67, 78
1, 161900, Control_c, 0, 67, 77
1, 161915, Control_c, 0, 67, 77
1, 161967, Note_on_c, 0, 67, 58
1, 161978, Note_on_c, 0, 62, 54
1, 161980, Note_on_c, 0, 56, 48
1, 161981, Note_on_c, 0, 46, 56
1, 161993, Note_on_c, 0, 34, 35
1, 162006, Note_off_c, 0, 46, 57
1, 162019, Control_c, 0, 67, 76
1, 162030, Note_off_c, 0, 34, 40
1, 162033, Note_off_c, 0, 56, 57
1, 162040, Note_off_c, 0, 62, 55
1, 162056, Note_off_c, 0, 67, 57
1, 162078, Control_c, 0, 67, 76
1, 162099, Note_on_c, 0, 65, 60
1, 162107, Control_c, 0, 67, 75
1, 162136, Note_off_c, 0, 65, 62
1, 162137, Control_c, 0, 67, 76
1, 162167, Control_c, 0, 67, 75
1, 162212, Control_c, 0, 67, 75
1, 162242, Control_c, 0, 67, 74
1, 162251, Note_on_c, 0, 46, 62
1, 162251, Note_on_c, 0, 65, 61
1, 162262, Note_on_c, 0, 34, 39
1, 162262, Note_on_c, 0, 56, 52
1, 162271, Control_c, 0, 67, 74
1, 162279, Note_off_c, 0, 46, 63
1, 162285, Note_off_c, 0, 56, 61
1, 162286, Control_c, 0, 67, 73
1, 162292, Note_off_c, 0, 34, 45
1, 162298, Note_off_c, 0, 65, 64
1, 162311, Note_on_c, 0, 67, 67
1, 162362, Note_on_c, 0, 65, 59
1, 162369, Note_off_c, 0, 67, 57
1, 162434, Note_on_c, 0, 64, 59
1, 162439, Note_off_c, 0, 65, 62
1, 162522, Note_on_c, 0, 56, 51
1, 162524, Note_on_c, 0, 65, 64
1, 162524, Note_off_c, 0, 64, 62
1, 162527, Note_on_c, 0, 46, 60
1, 162530, Note_on_c, 0, 34, 47
1, 162545, Control_c, 0, 67, 73
1, 162551, Note_off_c, 0, 46, 61
1, 162557, Note_off_c, 0, 34, 48
1, 162572, Note_off_c, 0, 56, 56
1, 162604, Control_c, 0, 67, 73
1, 162667, Note_off_c, 0, 65, 57
1, 162671, Note_on_c, 0, 67, 60
1, 162718, Note_off_c, 0, 67, 51
1, 162812, Control_c, 0, 64, 46
1, 162827, Control_c, 0, 64, 69
1, 162827, Control_c, 0, 67, 74
1, 162831, Note_on_c, 0, 39, 56
1, 162831, Note_on_c, 0, 63, 58
1, 162837, Note_on_c, 0, 51, 54
1, 162842, Control_c, 0, 64, 81
1, 162851, Note_on_c, 0, 55, 51
1, 162856, Control_c, 0, 64, 90
1, 162865, Note_off_c, 0, 39, 63
1, 162867, Note_off_c, 0, 51, 63
1, 162886, Control_c, 0, 64, 87
1, 162886, Control_c, 0, 67, 73
1, 162889, Note_off_c, 0, 55, 61
1, 162899, Note_off_c, 0, 63, 56
1, 162901, Control_c, 0, 64, 81
1, 162916, Control_c, 0, 64, 70
1, 162916, Control_c, 0, 67, 73
1, 162930, Control_c, 0, 64, 48
1, 162930, Control_c, 0, 67, 72
1, 162945, Control_c, 0, 64, 0
1, 162975, Note_on_c, 0, 51, 49
1, 163006, Control_c, 0, 67, 73
1, 163022, Note_off_c, 0, 51, 60
1, 163050, Control_c, 0, 67, 72
1, 163065, Control_c, 0, 67, 72
1, 163119, Note_on_c, 0, 51, 53
1, 163159, Note_off_c, 0, 51, 60
1, 163264, Note_on_c, 0, 51, 55
1, 163280, Control_c, 0, 67, 71
1, 163300, Note_off_c, 0, 51, 63
1, 163309, Control_c, 0, 67, 70
1, 163324, Control_c, 0, 67, 63
1, 163339, Control_c, 0, 67, 55
1, 163353, Control_c, 0, 67, 49
1, 163368, Control_c, 0, 67, 44
1, 163383, Control_c, 0, 67, 41
1, 163398, Control_c, 0, 67, 36
1, 163413, Control_c, 0, 67, 27
1, 163417, Note_on_c, 0, 51, 58
1, 163427, Control_c, 0, 67, 9
1, 163442, Control_c, 0, 67, 0
1, 163452, Note_off_c, 0, 51, 63
1, 163549, Note_on_c, 0, 51, 48
1, 163597, Note_off_c, 0, 51, 58
1, 163638, Note_on_c, 0, 86, 53
1, 163678, Control_c, 0, 64, 62
1, 163693, Control_c, 0, 64, 75
1, 163694, Note_on_c, 0, 87, 84
1, 163694, Note_off_c, 0, 86, 64
1, 163701, Note_on_c, 0, 60, 56
1, 163703, Note_on_c, 0, 63, 54
1, 163708, Control_c, 0, 64, 94
1, 163723, Control_c, 0, 64, 115
1, 163738, Control_c, 0, 64, 127
1, 163828, Control_c, 0, 64, 126
1, 163842, Control_c, 0, 64, 123
1, 163853, Note_on_c, 0, 51, 53
1, 163857, Control_c, 0, 64, 122
1, 163872, Control_c, 0, 64, 121
1, 163887, Note_off_c, 0, 51, 63
1, 163887, Control_c, 0, 64, 118
1, 163901, Control_c, 0, 64, 112
1, 163916, Control_c, 0, 64, 103
1, 163922, Note_on_c, 0, 80, 72
1, 163931, Control_c, 0, 64, 93
1, 163953, Note_off_c, 0, 80, 69
1, 163954, Control_c, 0, 64, 82
1, 163969, Control_c, 0, 64, 69
1, 163983, Control_c, 0, 64, 21
1, 163998, Control_c, 0, 64, 0
1, 164002, Note_on_c, 0, 51, 50
1, 164011, Note_on_c, 0, 80, 83
1, 164044, Note_off_c, 0, 51, 61
1, 164072, Control_c, 0, 67, 9
1, 164087, Control_c, 0, 67, 14
1, 164098, Note_off_c, 0, 87, 23
1, 164101, Control_c, 0, 67, 22
1, 164116, Control_c, 0, 67, 32
1, 164131, Control_c, 0, 67, 48
1, 164146, Control_c, 0, 67, 65
1, 164157, Note_on_c, 0, 51, 52
1, 164161, Control_c, 0, 67, 83
1, 164163, Note_off_c, 0, 80, 65
1, 164175, Control_c, 0, 67, 98
1, 164190, Control_c, 0, 67, 109
1, 164195, Note_off_c, 0, 51, 61
1, 164205, Control_c, 0, 67, 114
1, 164220, Control_c, 0, 67, 115
1, 164235, Control_c, 0, 67, 116
1, 164265, Control_c, 0, 67, 115
1, 164280, Control_c, 0, 67, 114
1, 164294, Control_c, 0, 67, 113
1, 164317, Note_on_c, 0, 51, 45
1, 164324, Control_c, 0, 67, 113
1, 164345, Note_off_c, 0, 51, 60
1, 164457, Control_c, 0, 67, 112
1, 164458, Note_on_c, 0, 51, 39
1, 164462, Note_off_c, 0, 60, 57
1, 164469, Note_off_c, 0, 63, 45
1, 164472, Control_c, 0, 67, 112
1, 164503, Note_off_c, 0, 51, 60
1, 164506, Note_on_c, 0, 74, 59
1, 164531, Control_c, 0, 67, 111
1, 164546, Control_c, 0, 67, 111
1, 164561, Control_c, 0, 67, 110
1, 164602, Note_on_c, 0, 75, 74
1, 164610, Note_off_c, 0, 74, 65
1, 164621, Control_c, 0, 67, 110
1, 164631, Note_on_c, 0, 62, 48
1, 164634, Note_on_c, 0, 58, 45
1, 164651, Control_c, 0, 67, 109
1, 164717, Control_c, 0, 67, 109
1, 164732, Control_c, 0, 67, 108
1, 164738, Note_off_c, 0, 75, 61
1, 164747, Control_c, 0, 67, 108
1, 164762, Control_c, 0, 67, 107
1, 164773, Note_on_c, 0, 51, 45
1, 164812, Note_on_c, 0, 67, 62
1, 164821, Control_c, 0, 67, 107
1, 164823, Note_off_c, 0, 51, 59
1, 164836, Control_c, 0, 67, 106
1, 164844, Note_off_c, 0, 67, 64
1, 164905, Note_on_c, 0, 67, 52
1, 164910, Control_c, 0, 67, 106
1, 164924, Control_c, 0, 67, 105
1, 164933, Note_on_c, 0, 51, 48
1, 164954, Control_c, 0, 67, 105
1, 164974, Note_off_c, 0, 51, 61
1, 164998, Control_c, 0, 67, 104
1, 165042, Note_off_c, 0, 67, 62
1, 165087, Note_on_c, 0, 51, 45
1, 165087, Control_c, 0, 67, 103
1, 165102, Control_c, 0, 67, 102
1, 165117, Control_c, 0, 67, 97
1, 165125, Note_off_c, 0, 51, 63
1, 165132, Control_c, 0, 67, 91
1, 165147, Control_c, 0, 67, 85
1, 165162, Control_c, 0, 67, 80
1, 165177, Control_c, 0, 67, 73
1, 165191, Control_c, 0, 67, 62
1, 165206, Control_c, 0, 67, 48
1, 165221, Control_c, 0, 67, 34
1, 165236, Control_c, 0, 67, 24
1, 165238, Note_on_c, 0, 51, 47
1, 165250, Control_c, 0, 67, 14
1, 165265, Control_c, 0, 67, 0
1, 165267, Note_off_c, 0, 51, 59
1, 165326, Note_off_c, 0, 62, 45
1, 165338, Note_off_c, 0, 58, 52
1, 165377, Note_on_c, 0, 51, 43
1, 165403, Note_off_c, 0, 51, 58
1, 165518, Note_on_c, 0, 75, 73
1, 165543, Note_on_c, 0, 51, 40
1, 165547, Note_on_c, 0, 56, 47
1, 165548, Note_on_c, 0, 60, 55
1, 165572, Note_off_c, 0, 60, 60
1, 165573, Note_off_c, 0, 56, 60
1, 165576, Note_off_c, 0, 51, 62
1, 165578, Note_off_c, 0, 75, 62
1, 165585, Note_on_c, 0, 65, 57
1, 165604, Note_off_c, 0, 65, 63
1, 165672, Note_on_c, 0, 51, 55
1, 165716, Note_off_c, 0, 51, 61
1, 165820, Note_on_c, 0, 75, 70
1, 165842, Note_on_c, 0, 51, 53
1, 165842, Note_on_c, 0, 60, 64
1, 165844, Note_on_c, 0, 56, 49
1, 165873, Note_off_c, 0, 75, 64
1, 165874, Note_off_c, 0, 60, 62
1, 165877, Note_off_c, 0, 51, 63
1, 165878, Note_on_c, 0, 65, 64
1, 165882, Note_off_c, 0, 56, 63
1, 165907, Note_off_c, 0, 65, 66
1, 165976, Note_on_c, 0, 51, 51
1, 166013, Note_off_c, 0, 51, 62
1, 166111, Note_on_c, 0, 51, 52
1, 166112, Note_on_c, 0, 74, 63
1, 166120, Note_on_c, 0, 56, 58
1, 166137, Note_on_c, 0, 59, 45
1, 166149, Note_off_c, 0, 51, 62
1, 166160, Note_off_c, 0, 56, 61
1, 166163, Note_off_c, 0, 74, 62
1, 166166, Note_off_c, 0, 59, 56
1, 166176, Note_on_c, 0, 65, 51
1, 166207, Note_off_c, 0, 65, 62
1, 166265, Note_on_c, 0, 51, 50
1, 166305, Note_off_c, 0, 51, 61
1, 166415, Note_on_c, 0, 75, 50
1, 166434, Note_on_c, 0, 51, 39
1, 166443, Note_on_c, 0, 55, 40
1, 166444, Note_on_c, 0, 58, 47
1, 166476, Note_off_c, 0, 51, 62
1, 166483, Note_off_c, 0, 75, 61
1, 166485, Note_on_c, 0, 63, 45
1, 166496, Note_off_c, 0, 55, 61
1, 166496, Note_off_c, 0, 58, 60
1, 166521, Note_off_c, 0, 63, 66
1, 166588, Note_on_c, 0, 51, 56
1, 166626, Note_off_c, 0, 51, 61
1, 166739, Note_on_c, 0, 51, 43
1, 166766, Note_off_c, 0, 51, 58
1, 166868, Note_on_c, 0, 51, 49
1, 166910, Note_off_c, 0, 51, 62
1, 167026, Note_on_c, 0, 51, 54
1, 167057, Note_off_c, 0, 51, 64
1, 167156, Note_on_c, 0, 51, 53
1, 167198, Note_off_c, 0, 51, 63
1, 167338, Note_on_c, 0, 60, 47
1, 167338, Note_on_c, 0, 63, 50
1, 167408, Note_on_c, 0, 87, 57
1, 167475, Note_off_c, 0, 87, 60
1, 167497, Note_on_c, 0, 51, 50
1, 167498, Note_on_c, 0, 86, 68
1, 167538, Note_off_c, 0, 51, 60
1, 167559, Note_on_c, 0, 87, 76
1, 167559, Note_off_c, 0, 86, 62
1, 167627, Note_off_c, 0, 87, 61
1, 167637, Note_on_c, 0, 86, 83
1, 167651, Note_on_c, 0, 51, 49
1, 167702, Note_off_c, 0, 51, 62
1, 167718, Note_on_c, 0, 87, 81
1, 167731, Note_off_c, 0, 86, 59
1, 167784, Note_on_c, 0, 89, 78
1, 167785, Note_off_c, 0, 87, 64
1, 167806, Note_on_c, 0, 51, 56
1, 167845, Note_off_c, 0, 51, 62
1, 167860, Note_on_c, 0, 87, 75
1, 167879, Note_off_c, 0, 89, 62
1, 167944, Note_on_c, 0, 80, 81
1, 167946, Note_on_c, 0, 51, 54
1, 167946, Note_off_c, 0, 87, 62
1, 167984, Note_off_c, 0, 51, 61
1, 167997, Note_off_c, 0, 80, 65
1, 168053, Control_c, 0, 67, 8
1, 168068, Control_c, 0, 67, 11
1, 168083, Control_c, 0, 67, 14
1, 168089, Note_on_c, 0, 51, 52
1, 168098, Control_c, 0, 67, 18
1, 168113, Control_c, 0, 67, 22
1, 168128, Note_off_c, 0, 51, 62
1, 168128, Control_c, 0, 67, 26
1, 168137, Note_off_c, 0, 60, 61
1, 168139, Note_off_c, 0, 63, 65
1, 168142, Control_c, 0, 67, 27
1, 168172, Control_c, 0, 67, 29
1, 168187, Control_c, 0, 67, 35
1, 168202, Control_c, 0, 67, 49
1, 168216, Control_c, 0, 67, 68
1, 168231, Control_c, 0, 67, 88
1, 168246, Control_c, 0, 67, 103
1, 168259, Note_on_c, 0, 58, 54
1, 168260, Control_c, 0, 67, 114
1, 168270, Note_on_c, 0, 62, 50
1, 168275, Control_c, 0, 67, 123
1, 168290, Control_c, 0, 67, 127
1, 168325, Note_on_c, 0, 75, 59
1, 168366, Note_off_c, 0, 75, 63
1, 168406, Note_on_c, 0, 74, 62
1, 168408, Control_c, 0, 67, 126
1, 168411, Note_on_c, 0, 51, 53
1, 168423, Control_c, 0, 67, 125
1, 168446, Control_c, 0, 67, 124
1, 168456, Note_off_c, 0, 74, 61
1, 168459, Note_off_c, 0, 51, 62
1, 168461, Control_c, 0, 67, 123
1, 168474, Note_on_c, 0, 75, 60
1, 168475, Control_c, 0, 67, 122
1, 168490, Control_c, 0, 67, 122
1, 168516, Note_off_c, 0, 75, 62
1, 168520, Control_c, 0, 67, 121
1, 168535, Control_c, 0, 67, 121
1, 168549, Control_c, 0, 67, 120
1, 168558, Note_on_c, 0, 74, 63
1, 168564, Control_c, 0, 67, 120
1, 168571, Note_on_c, 0, 51, 40
1, 168580, Control_c, 0, 67, 119
1, 168602, Note_off_c, 0, 74, 62
1, 168614, Note_on_c, 0, 75, 57
1, 168619, Note_off_c, 0, 51, 48
1, 168668, Note_off_c, 0, 75, 61
1, 168692, Note_on_c, 0, 77, 59
1, 168713, Control_c, 0, 67, 119
1, 168728, Control_c, 0, 67, 118
1, 168730, Note_on_c, 0, 51, 49
1, 168758, Control_c, 0, 67, 117
1, 168760, Note_on_c, 0, 75, 54
1, 168772, Note_off_c, 0, 51, 60
1, 168772, Control_c, 0, 67, 116
1, 168775, Note_off_c, 0, 77, 51
1, 168787, Control_c, 0, 67, 113
1, 168802, Control_c, 0, 67, 109
1, 168817, Control_c, 0, 67, 106
1, 168832, Control_c, 0, 67, 104
1, 168846, Control_c, 0, 67, 103
1, 168861, Control_c, 0, 67, 103
1, 168862, Note_on_c, 0, 67, 64
1, 168876, Control_c, 0, 67, 101
1, 168879, Note_on_c, 0, 51, 49
1, 168886, Note_off_c, 0, 75, 62
1, 168891, Control_c, 0, 67, 97
1, 168906, Control_c, 0, 67, 85
1, 168906, Note_off_c, 0, 67, 63
1, 168916, Note_off_c, 0, 51, 62
1, 168921, Control_c, 0, 67, 65
1, 168936, Control_c, 0, 67, 37
1, 168951, Control_c, 0, 67, 0
1, 169027, Note_on_c, 0, 51, 57
1, 169061, Note_off_c, 0, 62, 53
1, 169062, Note_off_c, 0, 51, 62
1, 169089, Note_off_c, 0, 58, 64
1, 169168, Note_on_c, 0, 51, 55
1, 169177, Note_on_c, 0, 60, 61
1, 169191, Note_on_c, 0, 56, 55
1, 169216, Note_off_c, 0, 51, 61
1, 169217, Note_off_c, 0, 60, 63
1, 169225, Note_off_c, 0, 56, 62
1, 169258, Note_on_c, 0, 65, 66
1, 169316, Note_on_c, 0, 51, 57
1, 169328, Note_off_c, 0, 65, 62
1, 169331, Note_on_c, 0, 74, 62
1, 169365, Note_off_c, 0, 51, 62
1, 169394, Note_off_c, 0, 74, 63
1, 169395, Note_on_c, 0, 75, 63
1, 169423, Note_off_c, 0, 75, 68
1, 169467, Note_on_c, 0, 56, 72
1, 169468, Note_on_c, 0, 60, 75
1, 169478, Note_on_c, 0, 51, 62
1, 169503, Note_off_c, 0, 60, 55
1, 169510, Note_off_c, 0, 51, 63
1, 169523, Note_on_c, 0, 65, 61
1, 169527, Note_off_c, 0, 56, 62
1, 169589, Note_off_c, 0, 65, 44
1, 169600, Note_on_c, 0, 74, 60
1, 169606, Note_on_c, 0, 51, 64
1, 169648, Note_off_c, 0, 51, 63
1, 169669, Note_off_c, 0, 74, 62
1, 169671, Note_on_c, 0, 75, 69
1, 169718, Note_off_c, 0, 75, 58
1, 169747, Note_on_c, 0, 56, 70
1, 169751, Note_on_c, 0, 59, 76
1, 169760, Note_on_c, 0, 51, 63
1, 169795, Note_off_c, 0, 51, 63
1, 169804, Note_on_c, 0, 65, 65
1, 169804, Note_off_c, 0, 59, 61
1, 169809, Note_off_c, 0, 56, 62
1, 169845, Note_off_c, 0, 65, 61
1, 169863, Note_on_c, 0, 73, 74
1, 169894, Note_on_c, 0, 51, 60
1, 169942, Note_off_c, 0, 51, 60
1, 169955, Note_on_c, 0, 74, 58
1, 169975, Note_off_c, 0, 73, 55
1, 169975, Note_off_c, 0, 74, 67
1, 170046, Control_c, 0, 64, 38
1, 170059, Note_on_c, 0, 51, 63
1, 170061, Note_on_c, 0, 75, 74
1, 170061, Control_c, 0, 64, 66
1, 170065, Note_on_c, 0, 58, 68
1, 170070, Note_on_c, 0, 55, 64
1, 170070, Note_on_c, 0, 63, 69
1, 170076, Control_c, 0, 64, 77
1, 170083, Note_off_c, 0, 75, 70
1, 170091, Control_c, 0, 64, 87
1, 170098, Note_off_c, 0, 63, 67
1, 170106, Control_c, 0, 64, 90
1, 170120, Control_c, 0, 64, 87
1, 170135, Control_c, 0, 64, 80
1, 170150, Control_c, 0, 64, 69
1, 170166, Control_c, 0, 64, 29
1, 170178, Note_on_c, 0, 65, 60
1, 170181, Control_c, 0, 64, 0
1, 170186, Note_off_c, 0, 51, 63
1, 170188, Note_off_c, 0, 58, 63
1, 170194, Note_off_c, 0, 55, 64
1, 170221, Note_on_c, 0, 63, 65
1, 170252, Note_off_c, 0, 65, 66
1, 170292, Note_off_c, 0, 63, 64
1, 170297, Note_on_c, 0, 62, 77
1, 170358, Note_on_c, 0, 63, 74
1, 170376, Note_off_c, 0, 62, 60
1, 170408, Note_off_c, 0, 63, 65
1, 170424, Note_on_c, 0, 65, 78
1, 170474, Note_off_c, 0, 65, 51
1, 170495, Note_on_c, 0, 67, 82
1, 170554, Note_on_c, 0, 68, 84
1, 170565, Note_off_c, 0, 67, 61
1, 170611, Note_on_c, 0, 70, 77
1, 170611, Note_off_c, 0, 68, 66
1, 170632, Note_off_c, 0, 70, 70
1, 170770, Note_on_c, 0, 55, 66
1, 170771, Note_on_c, 0, 67, 84
1, 170798, Note_off_c, 0, 67, 64
1, 170803, Note_off_c, 0, 55, 64
1, 170913, Note_on_c, 0, 53, 65
1, 170917, Note_on_c, 0, 65, 84
1, 170942, Note_off_c, 0, 53, 67
1, 170946, Note_off_c, 0, 65, 64
1, 171058, Note_on_c, 0, 56, 61
1, 171061, Note_on_c, 0, 68, 78
1, 171087, Note_off_c, 0, 56, 65
1, 171087, Note_off_c, 0, 68, 68
1, 171209, Note_on_c, 0, 50, 56
1, 171209, Note_on_c, 0, 62, 72
1, 171238, Note_off_c, 0, 62, 64
1, 171240, Note_off_c, 0, 50, 65
1, 171350, Note_on_c, 0, 65, 68
1, 171353, Note_on_c, 0, 53, 58
1, 171377, Note_off_c, 0, 53, 66
1, 171379, Note_off_c, 0, 65, 65
1, 171493, Note_on_c, 0, 46, 61
1, 171496, Note_on_c, 0, 58, 70
1, 171526, Note_off_c, 0, 58, 68
1, 171529, Note_off_c, 0, 46, 63
1, 171631, Note_on_c, 0, 62, 68
1, 171636, Note_on_c, 0, 50, 44
1, 171660, Note_off_c, 0, 62, 64
1, 171664, Note_off_c, 0, 50, 48
1, 171768, Control_c, 0, 64, 43
1, 171783, Control_c, 0, 64, 65
1, 171789, Note_on_c, 0, 63, 67
1, 171792, Note_on_c, 0, 51, 49
1, 171797, Control_c, 0, 64, 71
1, 171812, Control_c, 0, 64, 75
1, 171827, Control_c, 0, 64, 75
1, 171842, Control_c, 0, 64, 73
1, 171857, Note_off_c, 0, 63, 64
1, 171857, Control_c, 0, 64, 68
1, 171864, Note_on_c, 0, 65, 71
1, 171872, Control_c, 0, 64, 57
1, 171887, Control_c, 0, 64, 0
1, 171929, Note_on_c, 0, 63, 73
1, 171939, Note_off_c, 0, 65, 63
1, 171967, Note_off_c, 0, 51, 63
1, 171988, Note_off_c, 0, 63, 65
1, 171995, Note_on_c, 0, 62, 80
1, 172055, Note_on_c, 0, 63, 81
1, 172068, Note_off_c, 0, 62, 61
1, 172104, Note_off_c, 0, 63, 64
1, 172127, Note_on_c, 0, 65, 76
1, 172184, Note_off_c, 0, 65, 51
1, 172207, Note_on_c, 0, 67, 77
1, 172277, Note_on_c, 0, 68, 77
1, 172286, Note_off_c, 0, 67, 58
1, 172346, Note_on_c, 0, 60, 64
1, 172351, Note_on_c, 0, 72, 81
1, 172352, Note_off_c, 0, 68, 64
1, 172416, Note_on_c, 0, 58, 71
1, 172420, Note_off_c, 0, 60, 59
1, 172421, Note_on_c, 0, 70, 80
1, 172474, Note_off_c, 0, 72, 60
1, 172479, Note_on_c, 0, 56, 71
1, 172486, Note_on_c, 0, 68, 85
1, 172495, Note_off_c, 0, 58, 65
1, 172534, Note_off_c, 0, 70, 62
1, 172548, Note_on_c, 0, 67, 83
1, 172558, Note_on_c, 0, 55, 62
1, 172581, Note_off_c, 0, 68, 63
1, 172590, Note_off_c, 0, 56, 63
1, 172608, Note_on_c, 0, 53, 77
1, 172618, Note_on_c, 0, 65, 88
1, 172618, Note_off_c, 0, 55, 63
1, 172620, Note_off_c, 0, 67, 63
1, 172648, Note_off_c, 0, 53, 69
1, 172653, Note_off_c, 0, 65, 66
1, 172765, Note_on_c, 0, 68, 76
1, 172767, Note_on_c, 0, 56, 68
1, 172802, Note_off_c, 0, 68, 66
1, 172804, Note_off_c, 0, 56, 64
1, 172906, Note_on_c, 0, 62, 80
1, 172911, Note_on_c, 0, 50, 71
1, 172947, Note_off_c, 0, 62, 64
1, 172951, Note_off_c, 0, 50, 64
1, 173057, Note_on_c, 0, 65, 74
1, 173060, Note_on_c, 0, 53, 69
1, 173085, Note_off_c, 0, 53, 68
1, 173094, Note_off_c, 0, 65, 64
1, 173198, Note_on_c, 0, 46, 72
1, 173201, Note_on_c, 0, 58, 81
1, 173233, Note_off_c, 0, 46, 65
1, 173237, Note_off_c, 0, 58, 65
1, 173340, Note_on_c, 0, 62, 76
1, 173342, Note_on_c, 0, 50, 64
1, 173372, Note_off_c, 0, 50, 68
1, 173383, Note_off_c, 0, 62, 61
1, 173485, Note_on_c, 0, 51, 69
1, 173489, Note_on_c, 0, 63, 73
1, 173517, Note_off_c, 0, 63, 68
1, 173525, Note_off_c, 0, 51, 65
1, 173622, Note_on_c, 0, 55, 61
1, 173624, Note_on_c, 0, 67, 67
1, 173652, Note_off_c, 0, 55, 66
1, 173670, Note_off_c, 0, 67, 59
1, 173774, Note_on_c, 0, 48, 61
1, 173778, Note_on_c, 0, 60, 62
1, 173808, Note_off_c, 0, 60, 66
1, 173813, Note_off_c, 0, 48, 63
1, 173917, Note_on_c, 0, 63, 66
1, 173919, Note_on_c, 0, 51, 50
1, 173946, Note_off_c, 0, 51, 65
1, 173950, Note_off_c, 0, 63, 66
1, 174058, Note_on_c, 0, 45, 52
1, 174059, Note_on_c, 0, 57, 64
1, 174087, Note_off_c, 0, 57, 64
1, 174090, Note_off_c, 0, 45, 65
1, 174190, Note_on_c, 0, 48, 58
1, 174201, Note_on_c, 0, 60, 56
1, 174221, Note_off_c, 0, 48, 66
1, 174236, Note_off_c, 0, 60, 63
1, 174352, Note_on_c, 0, 53, 61
1, 174354, Note_on_c, 0, 41, 58
1, 174391, Note_off_c, 0, 53, 64
1, 174402, Note_off_c, 0, 41, 61
1, 174507, Note_on_c, 0, 45, 62
1, 174510, Note_on_c, 0, 57, 63
1, 174542, Note_off_c, 0, 45, 64
1, 174544, Note_off_c, 0, 57, 63
1, 174656, Note_on_c, 0, 60, 73
1, 174656, Note_on_c, 0, 48, 63
1, 174695, Note_off_c, 0, 48, 67
1, 174697, Note_off_c, 0, 60, 61
1, 174798, Note_on_c, 0, 52, 67
1, 174799, Note_on_c, 0, 64, 75
1, 174829, Note_off_c, 0, 52, 66
1, 174838, Note_off_c, 0, 64, 60
1, 174931, Note_on_c, 0, 53, 57
1, 174936, Note_on_c, 0, 65, 67
1, 174971, Note_off_c, 0, 53, 65
1, 174978, Note_off_c, 0, 65, 59
1, 175073, Note_on_c, 0, 45, 61
1, 175087, Note_on_c, 0, 57, 66
1, 175103, Note_off_c, 0, 45, 65
1, 175121, Note_off_c, 0, 57, 61
1, 175233, Note_on_c, 0, 58, 68
1, 175236, Note_on_c, 0, 46, 58
1, 175264, Note_off_c, 0, 46, 65
1, 175276, Note_off_c, 0, 58, 63
1, 175378, Note_on_c, 0, 50, 54
1, 175388, Note_on_c, 0, 62, 74
1, 175412, Note_off_c, 0, 50, 63
1, 175427, Note_off_c, 0, 62, 63
1, 175520, Note_on_c, 0, 53, 60
1, 175524, Note_on_c, 0, 65, 78
1, 175550, Note_off_c, 0, 53, 68
1, 175568, Note_off_c, 0, 65, 64
1, 175662, Note_on_c, 0, 69, 81
1, 175670, Note_on_c, 0, 57, 53
1, 175713, Note_off_c, 0, 57, 58
1, 175714, Note_off_c, 0, 69, 65
1, 175797, Note_on_c, 0, 58, 73
1, 175809, Note_on_c, 0, 70, 86
1, 175843, Note_off_c, 0, 58, 62
1, 175860, Note_off_c, 0, 70, 65
1, 175944, Note_on_c, 0, 62, 76
1, 175947, Note_on_c, 0, 74, 93
1, 175989, Note_off_c, 0, 62, 60
1, 175996, Note_off_c, 0, 74, 67
1, 176084, Note_on_c, 0, 77, 102
1, 176086, Note_on_c, 0, 65, 77
1, 176123, Note_off_c, 0, 65, 66
1, 176126, Note_off_c, 0, 77, 65
1, 176222, Note_on_c, 0, 81, 102
1, 176223, Note_on_c, 0, 69, 78
1, 176258, Note_off_c, 0, 69, 65
1, 176267, Note_off_c, 0, 81, 64
1, 176356, Note_on_c, 0, 82, 102
1, 176360, Note_on_c, 0, 70, 94
1, 176391, Note_off_c, 0, 70, 66
1, 176393, Note_off_c, 0, 82, 70
1, 176394, Note_on_c, 0, 71, 46
1, 176395, Note_off_c, 0, 71, 127
1, 176660, Note_on_c, 0, 58, 98
1, 176704, Note_off_c, 0, 58, 70
1, 176964, Note_on_c, 0, 46, 105
1, 176998, Note_off_c, 0, 46, 66
1, 177270, Note_on_c, 0, 34, 92
1, 177312, Note_off_c, 0, 34, 64
1, 177591, Note_on_c, 0, 32, 87
1, 177646, Note_off_c, 0, 32, 64
1, 177768, Note_on_c, 0, 82, 83
1, 177804, Note_off_c, 0, 82, 64
1, 178010, Control_c, 0, 64, 10
1, 178025, Control_c, 0, 64, 66
1, 178025, Control_c, 0, 67, 8
1, 178026, Note_on_c, 0, 31, 49
1, 178027, Note_on_c, 0, 87, 78
1, 178039, Control_c, 0, 64, 84
1, 178039, Control_c, 0, 67, 14
1, 178054, Control_c, 0, 64, 127
1, 178054, Control_c, 0, 67, 20
1, 178069, Control_c, 0, 67, 26
1, 178072, Note_off_c, 0, 31, 61
1, 178084, Control_c, 0, 67, 29
1, 178144, Control_c, 0, 67, 30
1, 178159, Control_c, 0, 67, 34
1, 178181, Control_c, 0, 67, 42
1, 178196, Control_c, 0, 67, 52
1, 178211, Control_c, 0, 67, 60
1, 178225, Control_c, 0, 67, 70
1, 178240, Control_c, 0, 67, 86
1, 178255, Control_c, 0, 67, 103
1, 178270, Control_c, 0, 67, 117
1, 178284, Control_c, 0, 67, 125
1, 178299, Control_c, 0, 67, 127
1, 178385, Note_on_c, 0, 63, 40
1, 178412, Note_off_c, 0, 63, 50
1, 178443, Note_on_c, 0, 55, 52
1, 178478, Note_off_c, 0, 55, 54
1, 178517, Note_on_c, 0, 63, 44
1, 178551, Note_off_c, 0, 87, 62
1, 178557, Note_off_c, 0, 63, 53
1, 178587, Note_on_c, 0, 86, 71
1, 178590, Note_on_c, 0, 58, 55
1, 178629, Note_off_c, 0, 58, 61
1, 178650, Note_on_c, 0, 87, 76
1, 178668, Note_on_c, 0, 63, 53
1, 178675, Note_off_c, 0, 86, 58
1, 178688, Note_off_c, 0, 63, 64
1, 178707, Note_on_c, 0, 89, 87
1, 178717, Note_off_c, 0, 87, 63
1, 178741, Note_on_c, 0, 55, 49
1, 178770, Note_off_c, 0, 55, 62
1, 178788, Control_c, 0, 64, 122
1, 178791, Note_on_c, 0, 63, 49
1, 178803, Control_c, 0, 64, 106
1, 178817, Control_c, 0, 64, 91
1, 178828, Note_off_c, 0, 63, 61
1, 178832, Control_c, 0, 64, 79
1, 178847, Control_c, 0, 64, 67
1, 178847, Control_c, 0, 67, 126
1, 178854, Note_off_c, 0, 89, 63
1, 178862, Control_c, 0, 64, 0
1, 178862, Control_c, 0, 67, 125
1, 178874, Note_on_c, 0, 87, 77
1, 178882, Note_on_c, 0, 58, 48
1, 178907, Note_off_c, 0, 58, 62
1, 178922, Note_off_c, 0, 87, 62
1, 178952, Note_on_c, 0, 63, 52
1, 178981, Note_off_c, 0, 63, 64
1, 178989, Control_c, 0, 67, 125
1, 179004, Control_c, 0, 67, 124
1, 179019, Control_c, 0, 67, 124
1, 179028, Note_on_c, 0, 55, 54
1, 179034, Control_c, 0, 67, 123
1, 179041, Note_on_c, 0, 82, 77
1, 179048, Control_c, 0, 67, 119
1, 179059, Note_off_c, 0, 55, 65
1, 179063, Control_c, 0, 67, 113
1, 179078, Control_c, 0, 67, 104
1, 179089, Note_on_c, 0, 63, 49
1, 179093, Control_c, 0, 67, 92
1, 179107, Control_c, 0, 67, 82
1, 179119, Note_off_c, 0, 63, 57
1, 179122, Control_c, 0, 67, 73
1, 179137, Control_c, 0, 67, 66
1, 179152, Control_c, 0, 67, 61
1, 179167, Control_c, 0, 67, 56
1, 179169, Note_on_c, 0, 58, 51
1, 179181, Control_c, 0, 67, 52
1, 179196, Control_c, 0, 67, 46
1, 179210, Note_off_c, 0, 58, 64
1, 179211, Control_c, 0, 67, 40
1, 179226, Control_c, 0, 67, 34
1, 179232, Note_on_c, 0, 63, 56
1, 179241, Control_c, 0, 67, 27
1, 179256, Control_c, 0, 67, 21
1, 179271, Control_c, 0, 67, 16
1, 179273, Note_off_c, 0, 63, 65
1, 179285, Control_c, 0, 67, 13
1, 179300, Control_c, 0, 67, 12
1, 179315, Control_c, 0, 67, 11
1, 179324, Note_on_c, 0, 55, 51
1, 179330, Control_c, 0, 67, 9
1, 179345, Control_c, 0, 67, 8
1, 179348, Note_off_c, 0, 55, 61
1, 179360, Control_c, 0, 67, 0
1, 179385, Note_on_c, 0, 63, 54
1, 179425, Note_off_c, 0, 63, 64
1, 179464, Note_off_c, 0, 82, 62
1, 179470, Note_on_c, 0, 58, 46
1, 179482, Note_on_c, 0, 84, 72
1, 179502, Note_off_c, 0, 58, 62
1, 179535, Note_on_c, 0, 63, 56
1, 179543, Note_on_c, 0, 82, 83
1, 179565, Note_off_c, 0, 84, 59
1, 179567, Note_off_c, 0, 63, 65
1, 179608, Note_on_c, 0, 55, 53
1, 179620, Note_on_c, 0, 80, 78
1, 179635, Note_off_c, 0, 55, 65
1, 179640, Note_off_c, 0, 82, 60
1, 179679, Note_on_c, 0, 63, 50
1, 179719, Note_off_c, 0, 63, 61
1, 179760, Note_on_c, 0, 58, 47
1, 179781, Note_off_c, 0, 80, 61
1, 179784, Note_on_c, 0, 79, 70
1, 179793, Note_off_c, 0, 58, 60
1, 179813, Note_off_c, 0, 79, 64
1, 179831, Note_on_c, 0, 63, 56
1, 179865, Note_off_c, 0, 63, 65
1, 179920, Note_on_c, 0, 56, 52
1, 179921, Note_on_c, 0, 83, 71
1, 179956, Note_off_c, 0, 56, 63
1, 179977, Note_on_c, 0, 84, 78
1, 179977, Note_off_c, 0, 83, 61
1, 179997, Note_on_c, 0, 63, 53
1, 180001, Note_off_c, 0, 84, 69
1, 180033, Note_off_c, 0, 63, 65
1, 180066, Note_on_c, 0, 60, 53
1, 180108, Note_off_c, 0, 60, 61
1, 180145, Note_on_c, 0, 63, 54
1, 180184, Note_off_c, 0, 63, 63
1, 180227, Note_on_c, 0, 83, 74
1, 180236, Note_on_c, 0, 56, 47
1, 180269, Note_off_c, 0, 56, 62
1, 180287, Note_off_c, 0, 83, 62
1, 180292, Note_on_c, 0, 84, 75
1, 180305, Note_on_c, 0, 63, 51
1, 180313, Note_off_c, 0, 84, 72
1, 180342, Note_off_c, 0, 63, 65
1, 180380, Note_on_c, 0, 60, 48
1, 180431, Note_off_c, 0, 60, 58
1, 180462, Note_on_c, 0, 63, 49
1, 180500, Note_off_c, 0, 63, 66
1, 180534, Note_on_c, 0, 79, 69
1, 180546, Note_on_c, 0, 56, 48
1, 180585, Note_off_c, 0, 56, 63
1, 180585, Note_off_c, 0, 79, 62
1, 180591, Note_on_c, 0, 80, 68
1, 180615, Note_off_c, 0, 80, 66
1, 180624, Note_on_c, 0, 64, 46
1, 180651, Note_off_c, 0, 64, 58
1, 180695, Note_on_c, 0, 60, 46
1, 180725, Note_off_c, 0, 60, 55
1, 180766, Note_on_c, 0, 64, 49
1, 180805, Note_off_c, 0, 64, 65
1, 180845, Note_on_c, 0, 76, 52
1, 180849, Note_on_c, 0, 56, 50
1, 180889, Note_off_c, 0, 56, 62
1, 180895, Note_on_c, 0, 77, 61
1, 180898, Note_off_c, 0, 76, 65
1, 180925, Note_off_c, 0, 77, 66
1, 180939, Note_on_c, 0, 65, 51
1, 180968, Note_off_c, 0, 65, 59
1, 181008, Note_on_c, 0, 60, 49
1, 181051, Note_off_c, 0, 60, 61
1, 181078, Note_on_c, 0, 65, 53
1, 181117, Note_off_c, 0, 65, 65
1, 181156, Note_on_c, 0, 56, 52
1, 181201, Note_off_c, 0, 56, 61
1, 181235, Note_on_c, 0, 65, 56
1, 181273, Note_off_c, 0, 65, 64
1, 181315, Note_on_c, 0, 60, 46
1, 181348, Note_off_c, 0, 60, 57
1, 181384, Note_on_c, 0, 65, 58
1, 181419, Note_off_c, 0, 65, 65
1, 181459, Note_on_c, 0, 57, 55
1, 181491, Note_off_c, 0, 57, 64
1, 181528, Note_on_c, 0, 65, 57
1, 181571, Note_off_c, 0, 65, 62
1, 181597, Note_on_c, 0, 77, 66
1, 181611, Note_on_c, 0, 63, 47
1, 181624, Note_off_c, 0, 77, 66
1, 181642, Note_off_c, 0, 63, 59
1, 181694, Note_on_c, 0, 65, 56
1, 181729, Note_off_c, 0, 65, 66
1, 181754, Control_c, 0, 64, 10
1, 181764, Note_on_c, 0, 80, 76
1, 181769, Control_c, 0, 64, 63
1, 181778, Note_on_c, 0, 58, 48
1, 181783, Control_c, 0, 64, 73
1, 181783, Control_c, 0, 67, 8
1, 181798, Control_c, 0, 64, 84
1, 181798, Control_c, 0, 67, 9
1, 181813, Control_c, 0, 64, 98
1, 181813, Control_c, 0, 67, 10
1, 181816, Note_off_c, 0, 58, 61
1, 181828, Control_c, 0, 64, 110
1, 181828, Control_c, 0, 67, 10
1, 181843, Control_c, 0, 64, 118
1, 181858, Note_on_c, 0, 65, 56
1, 181858, Control_c, 0, 64, 119
1, 181858, Control_c, 0, 67, 9
1, 181873, Control_c, 0, 67, 8
1, 181887, Control_c, 0, 67, 8
1, 181894, Note_off_c, 0, 65, 64
1, 181902, Control_c, 0, 67, 0
1, 181938, Note_on_c, 0, 62, 49
1, 181939, Control_c, 0, 64, 118
1, 181954, Control_c, 0, 64, 117
1, 181968, Control_c, 0, 64, 115
1, 181982, Note_off_c, 0, 62, 54
1, 181983, Control_c, 0, 64, 112
1, 181998, Control_c, 0, 64, 110
1, 182013, Control_c, 0, 64, 109
1, 182017, Note_on_c, 0, 65, 61
1, 182028, Control_c, 0, 64, 108
1, 182043, Control_c, 0, 64, 106
1, 182045, Note_off_c, 0, 65, 68
1, 182058, Control_c, 0, 64, 101
1, 182073, Control_c, 0, 64, 94
1, 182088, Control_c, 0, 64, 82
1, 182100, Note_on_c, 0, 53, 62
1, 182102, Control_c, 0, 64, 70
1, 182117, Control_c, 0, 64, 46
1, 182132, Control_c, 0, 64, 0
1, 182134, Note_off_c, 0, 53, 66
1, 182180, Note_on_c, 0, 62, 52
1, 182218, Note_off_c, 0, 62, 63
1, 182246, Note_on_c, 0, 58, 59
1, 182253, Note_off_c, 0, 80, 62
1, 182260, Note_on_c, 0, 82, 72
1, 182284, Note_off_c, 0, 58, 66
1, 182321, Note_on_c, 0, 62, 60
1, 182330, Note_on_c, 0, 80, 70
1, 182351, Note_off_c, 0, 62, 64
1, 182353, Note_off_c, 0, 82, 62
1, 182396, Note_on_c, 0, 50, 60
1, 182402, Note_on_c, 0, 79, 74
1, 182420, Note_off_c, 0, 80, 65
1, 182430, Note_off_c, 0, 50, 65
1, 182472, Note_on_c, 0, 58, 62
1, 182509, Note_off_c, 0, 58, 62
1, 182547, Note_on_c, 0, 53, 58
1, 182564, Note_on_c, 0, 77, 71
1, 182567, Note_off_c, 0, 79, 63
1, 182585, Note_off_c, 0, 53, 65
1, 182618, Note_on_c, 0, 58, 69
1, 182647, Note_off_c, 0, 58, 67
1, 182704, Note_on_c, 0, 46, 68
1, 182717, Note_off_c, 0, 77, 53
1, 182718, Note_on_c, 0, 75, 71
1, 182746, Note_off_c, 0, 46, 63
1, 182776, Note_on_c, 0, 56, 58
1, 182821, Note_off_c, 0, 56, 61
1, 182851, Note_on_c, 0, 53, 62
1, 182853, Note_on_c, 0, 74, 77
1, 182881, Note_off_c, 0, 75, 63
1, 182922, Note_off_c, 0, 53, 54
1, 182931, Note_on_c, 0, 56, 72
1, 182967, Note_off_c, 0, 56, 63
1, 182990, Note_off_c, 0, 74, 64
1, 182995, Note_on_c, 0, 72, 82
1, 183009, Note_on_c, 0, 46, 67
1, 183052, Note_off_c, 0, 46, 63
1, 183077, Note_on_c, 0, 56, 67
1, 183136, Note_off_c, 0, 56, 60
1, 183155, Note_on_c, 0, 53, 68
1, 183158, Note_on_c, 0, 70, 84
1, 183183, Note_off_c, 0, 72, 64
1, 183209, Note_off_c, 0, 53, 63
1, 183235, Note_on_c, 0, 56, 67
1, 183277, Note_off_c, 0, 56, 59
1, 183293, Note_on_c, 0, 47, 66
1, 183304, Note_on_c, 0, 68, 87
1, 183335, Note_off_c, 0, 47, 66
1, 183335, Note_off_c, 0, 70, 56
1, 183370, Note_on_c, 0, 56, 64
1, 183415, Note_off_c, 0, 56, 61
1, 183441, Note_on_c, 0, 53, 65
1, 183447, Note_off_c, 0, 68, 63
1, 183459, Note_on_c, 0, 65, 88
1, 183493, Note_off_c, 0, 53, 65
1, 183516, Note_on_c, 0, 56, 74
1, 183559, Note_off_c, 0, 56, 59
1, 183596, Note_on_c, 0, 48, 60
1, 183618, Note_on_c, 0, 63, 86
1, 183637, Note_off_c, 0, 48, 67
1, 183652, Note_off_c, 0, 65, 63
1, 183676, Note_on_c, 0, 55, 64
1, 183730, Note_off_c, 0, 55, 64
1, 183742, Note_on_c, 0, 51, 60
1, 183764, Note_on_c, 0, 67, 83
1, 183787, Note_off_c, 0, 63, 64
1, 183790, Note_off_c, 0, 51, 64
1, 183837, Note_on_c, 0, 55, 53
1, 183861, Note_off_c, 0, 55, 59
1, 183897, Note_on_c, 0, 44, 62
1, 183907, Note_off_c, 0, 67, 55
1, 183918, Note_on_c, 0, 60, 80
1, 183942, Note_off_c, 0, 44, 65
1, 183986, Note_on_c, 0, 53, 55
1, 184033, Note_off_c, 0, 53, 63
1, 184055, Note_on_c, 0, 50, 62
1, 184058, Note_on_c, 0, 68, 75
1, 184073, Note_off_c, 0, 60, 52
1, 184129, Note_off_c, 0, 50, 61
1, 184147, Note_on_c, 0, 53, 52
1, 184206, Note_off_c, 0, 53, 63
1, 184216, Note_on_c, 0, 46, 56
1, 184233, Note_on_c, 0, 62, 67
1, 184237, Note_off_c, 0, 68, 57
1, 184279, Note_off_c, 0, 46, 56
1, 184288, Note_on_c, 0, 50, 49
1, 184346, Note_off_c, 0, 50, 57
1, 184370, Note_on_c, 0, 53, 50
1, 184377, Note_off_c, 0, 62, 55
1, 184379, Control_c, 0, 67, 9
1, 184380, Note_on_c, 0, 65, 60
1, 184394, Control_c, 0, 67, 12
1, 184396, Note_off_c, 0, 53, 64
1, 184409, Control_c, 0, 67, 18
1, 184423, Control_c, 0, 67, 25
1, 184438, Control_c, 0, 67, 34
1, 184452, Control_c, 0, 67, 42
1, 184467, Control_c, 0, 67, 47
1, 184472, Note_off_c, 0, 65, 53
1, 184479, Note_on_c, 0, 56, 50
1, 184482, Control_c, 0, 67, 50
1, 184496, Control_c, 0, 67, 51
1, 184511, Control_c, 0, 67, 53
1, 184526, Control_c, 0, 67, 57
1, 184542, Control_c, 0, 67, 63
1, 184557, Control_c, 0, 67, 70
1, 184565, Note_on_c, 0, 63, 56
1, 184568, Note_off_c, 0, 56, 58
1, 184572, Control_c, 0, 67, 73
1, 184602, Note_on_c, 0, 51, 49
1, 184606, Note_on_c, 0, 39, 43
1, 184616, Control_c, 0, 67, 74
1, 184631, Control_c, 0, 67, 75
1, 184642, Note_off_c, 0, 63, 62
1, 184645, Control_c, 0, 67, 77
1, 184660, Control_c, 0, 67, 78
1, 184675, Control_c, 0, 64, 59
1, 184675, Control_c, 0, 67, 79
1, 184690, Note_on_c, 0, 55, 53
1, 184690, Control_c, 0, 64, 69
1, 184705, Control_c, 0, 64, 79
1, 184720, Control_c, 0, 64, 92
1, 184735, Control_c, 0, 64, 103
1, 184735, Control_c, 0, 67, 78
1, 184749, Control_c, 0, 64, 108
1, 184749, Control_c, 0, 67, 77
1, 184764, Control_c, 0, 67, 76
1, 184776, Note_on_c, 0, 58, 61
1, 184779, Note_off_c, 0, 55, 59
1, 184779, Control_c, 0, 67, 75
1, 184794, Control_c, 0, 67, 75
1, 184809, Control_c, 0, 67, 74
1, 184812, Note_off_c, 0, 51, 62
1, 184824, Control_c, 0, 67, 74
1, 184842, Note_on_c, 0, 56, 68
1, 184848, Note_off_c, 0, 58, 61
1, 184853, Control_c, 0, 67, 73
1, 184868, Control_c, 0, 64, 107
1, 184868, Control_c, 0, 67, 72
1, 184879, Note_off_c, 0, 39, 39
1, 184883, Control_c, 0, 64, 107
1, 184883, Control_c, 0, 67, 71
1, 184898, Control_c, 0, 64, 105
1, 184898, Control_c, 0, 67, 70
1, 184905, Note_off_c, 0, 56, 63
1, 184919, Control_c, 0, 64, 101
1, 184919, Control_c, 0, 67, 69
1, 184925, Note_on_c, 0, 55, 68
1, 184934, Control_c, 0, 64, 96
1, 184934, Control_c, 0, 67, 69
1, 184949, Control_c, 0, 64, 88
1, 184949, Control_c, 0, 67, 68
1, 184964, Control_c, 0, 64, 80
1, 184964, Control_c, 0, 67, 66
1, 184979, Control_c, 0, 64, 72
1, 184979, Control_c, 0, 67, 62
1, 184985, Note_off_c, 0, 55, 64
1, 184991, Note_on_c, 0, 56, 63
1, 184994, Control_c, 0, 64, 61
1, 184994, Control_c, 0, 67, 57
1, 185009, Control_c, 0, 64, 0
1, 185009, Control_c, 0, 67, 50
1, 185024, Control_c, 0, 67, 43
1, 185038, Control_c, 0, 67, 37
1, 185051, Note_on_c, 0, 58, 70
1, 185053, Control_c, 0, 67, 30
1, 185057, Note_off_c, 0, 56, 64
1, 185068, Control_c, 0, 67, 21
1, 185083, Control_c, 0, 67, 12
1, 185098, Control_c, 0, 67, 0
1, 185099, Note_off_c, 0, 58, 64
1, 185125, Note_on_c, 0, 60, 70
1, 185182, Note_off_c, 0, 60, 56
1, 185203, Note_on_c, 0, 62, 69
1, 185263, Note_on_c, 0, 63, 64
1, 185263, Note_off_c, 0, 62, 61
1, 185331, Note_off_c, 0, 63, 61
1, 185332, Note_on_c, 0, 62, 65
1, 185393, Note_off_c, 0, 62, 61
1, 185401, Note_on_c, 0, 65, 63
1, 185457, Note_on_c, 0, 63, 62
1, 185470, Note_off_c, 0, 65, 61
1, 185519, Note_off_c, 0, 63, 64
1, 185525, Note_on_c, 0, 67, 71
1, 185584, Note_on_c, 0, 65, 70
1, 185614, Note_off_c, 0, 67, 59
1, 185642, Note_on_c, 0, 63, 73
1, 185663, Note_off_c, 0, 65, 63
1, 185702, Note_on_c, 0, 62, 68
1, 185708, Note_off_c, 0, 63, 65
1, 185757, Note_on_c, 0, 60, 74
1, 185759, Note_off_c, 0, 62, 61
1, 185823, Note_off_c, 0, 60, 55
1, 185832, Note_on_c, 0, 58, 75
1, 185891, Note_on_c, 0, 60, 66
1, 185892, Note_off_c, 0, 58, 63
1, 185966, Note_on_c, 0, 56, 68
1, 185969, Note_off_c, 0, 60, 61
1, 186025, Note_off_c, 0, 56, 63
1, 186040, Note_on_c, 0, 55, 67
1, 186116, Note_on_c, 0, 58, 72
1, 186124, Note_off_c, 0, 55, 61
1, 186181, Note_on_c, 0, 56, 68
1, 186192, Note_off_c, 0, 58, 62
1, 186242, Note_off_c, 0, 56, 63
1, 186251, Note_on_c, 0, 55, 70
1, 186323, Note_off_c, 0, 55, 62
1, 186324, Note_on_c, 0, 56, 70
1, 186385, Note_on_c, 0, 58, 71
1, 186387, Note_off_c, 0, 56, 64
1, 186445, Note_off_c, 0, 58, 65
1, 186467, Note_on_c, 0, 60, 75
1, 186534, Note_off_c, 0, 60, 57
1, 186542, Note_on_c, 0, 62, 79
1, 186605, Note_off_c, 0, 62, 62
1, 186607, Note_on_c, 0, 63, 75
1, 186675, Note_on_c, 0, 62, 77
1, 186680, Note_off_c, 0, 63, 64
1, 186727, Note_off_c, 0, 62, 62
1, 186743, Note_on_c, 0, 60, 69
1, 186809, Note_off_c, 0, 60, 60
1, 186810, Note_on_c, 0, 58, 78
1, 186838, Note_off_c, 0, 58, 69
1, 186884, Note_on_c, 0, 60, 77
1, 186935, Note_off_c, 0, 60, 55
1, 186956, Note_on_c, 0, 62, 67
1, 187020, Note_on_c, 0, 63, 72
1, 187027, Note_off_c, 0, 62, 63
1, 187101, Note_off_c, 0, 63, 66
1, 187101, Note_on_c, 0, 65, 73
1, 187187, Note_on_c, 0, 67, 77
1, 187194, Note_off_c, 0, 65, 63
1, 187258, Note_on_c, 0, 65, 71
1, 187286, Note_off_c, 0, 67, 61
1, 187322, Note_on_c, 0, 63, 78
1, 187337, Note_off_c, 0, 65, 63
1, 187383, Note_off_c, 0, 63, 65
1, 187389, Note_on_c, 0, 62, 82
1, 187456, Note_on_c, 0, 63, 77
1, 187468, Note_off_c, 0, 62, 60
1, 187507, Note_off_c, 0, 63, 65
1, 187523, Note_on_c, 0, 65, 76
1, 187587, Note_off_c, 0, 65, 56
1, 187595, Note_on_c, 0, 67, 77
1, 187670, Note_on_c, 0, 68, 77
1, 187688, Note_off_c, 0, 67, 57
1, 187745, Note_off_c, 0, 68, 65
1, 187747, Note_on_c, 0, 72, 78
1, 187816, Note_on_c, 0, 70, 74
1, 187835, Note_off_c, 0, 72, 61
1, 187889, Note_on_c, 0, 68, 79
1, 187920, Note_off_c, 0, 70, 61
1, 187956, Note_off_c, 0, 68, 64
1, 187957, Note_on_c, 0, 67, 77
1, 188028, Note_on_c, 0, 68, 78
1, 188040, Note_off_c, 0, 67, 60
1, 188088, Note_on_c, 0, 70, 75
1, 188093, Note_off_c, 0, 68, 64
1, 188114, Note_off_c, 0, 70, 63
1, 188167, Note_on_c, 0, 72, 77
1, 188226, Note_off_c, 0, 72, 54
1, 188239, Note_on_c, 0, 74, 75
1, 188300, Note_off_c, 0, 74, 64
1, 188303, Note_on_c, 0, 75, 80
1, 188374, Note_off_c, 0, 75, 64
1, 188375, Note_on_c, 0, 74, 77
1, 188420, Note_off_c, 0, 74, 64
1, 188441, Note_on_c, 0, 72, 73
1, 188506, Note_off_c, 0, 72, 62
1, 188511, Note_on_c, 0, 70, 78
1, 188568, Note_off_c, 0, 70, 62
1, 188583, Note_on_c, 0, 72, 79
1, 188638, Note_off_c, 0, 72, 62
1, 188655, Note_on_c, 0, 74, 76
1, 188726, Note_on_c, 0, 75, 78
1, 188737, Note_off_c, 0, 74, 61
1, 188797, Note_on_c, 0, 77, 73
1, 188801, Note_off_c, 0, 75, 67
1, 188870, Note_on_c, 0, 79, 80
1, 188872, Note_off_c, 0, 77, 62
1, 188934, Note_on_c, 0, 77, 69
1, 188967, Note_off_c, 0, 79, 61
1, 189001, Note_on_c, 0, 75, 78
1, 189025, Note_off_c, 0, 77, 62
1, 189061, Note_off_c, 0, 75, 66
1, 189066, Note_on_c, 0, 74, 82
1, 189131, Note_on_c, 0, 75, 78
1, 189146, Note_off_c, 0, 74, 63
1, 189182, Note_off_c, 0, 75, 66
1, 189192, Note_on_c, 0, 77, 80
1, 189272, Note_off_c, 0, 77, 58
1, 189272, Note_on_c, 0, 79, 84
1, 189349, Note_on_c, 0, 80, 82
1, 189367, Note_off_c, 0, 79, 57
1, 189428, Note_on_c, 0, 84, 78
1, 189433, Note_off_c, 0, 80, 65
1, 189500, Note_on_c, 0, 82, 80
1, 189525, Note_off_c, 0, 84, 63
1, 189579, Note_on_c, 0, 80, 72
1, 189602, Note_off_c, 0, 82, 61
1, 189648, Note_off_c, 0, 80, 63
1, 189651, Note_on_c, 0, 79, 68
1, 189741, Note_on_c, 0, 82, 71
1, 189746, Note_off_c, 0, 79, 61
1, 189876, Note_on_c, 0, 80, 69
1, 189883, Note_off_c, 0, 82, 56
1, 189947, Note_off_c, 0, 80, 63
1, 189960, Note_on_c, 0, 79, 69
1, 190032, Note_on_c, 0, 80, 72
1, 190044, Note_off_c, 0, 79, 56
1, 190094, Note_on_c, 0, 82, 76
1, 190103, Note_off_c, 0, 80, 62
1, 190144, Note_off_c, 0, 82, 66
1, 190182, Note_on_c, 0, 84, 80
1, 190261, Note_on_c, 0, 86, 77
1, 190273, Note_off_c, 0, 84, 58
1, 190310, Control_c, 0, 64, 23
1, 190325, Control_c, 0, 64, 65
1, 190329, Note_on_c, 0, 87, 91
1, 190338, Note_on_c, 0, 55, 54
1, 190339, Control_c, 0, 64, 77
1, 190350, Note_off_c, 0, 86, 65
1, 190354, Control_c, 0, 64, 90
1, 190369, Control_c, 0, 64, 96
1, 190383, Control_c, 0, 64, 94
1, 190395, Note_off_c, 0, 55, 60
1, 190398, Control_c, 0, 64, 84
1, 190413, Control_c, 0, 64, 70
1, 190422, Note_on_c, 0, 63, 59
1, 190428, Control_c, 0, 64, 0
1, 190455, Note_off_c, 0, 63, 63
1, 190490, Note_on_c, 0, 58, 43
1, 190531, Note_off_c, 0, 58, 63
1, 190569, Note_on_c, 0, 63, 43
1, 190597, Note_off_c, 0, 63, 58
1, 190643, Note_on_c, 0, 55, 42
1, 190646, Note_off_c, 0, 87, 56
1, 190671, Note_off_c, 0, 55, 54
1, 190703, Note_on_c, 0, 63, 49
1, 190737, Note_off_c, 0, 63, 61
1, 190783, Note_on_c, 0, 58, 39
1, 190793, Note_on_c, 0, 86, 72
1, 190824, Note_off_c, 0, 58, 62
1, 190832, Note_off_c, 0, 86, 62
1, 190848, Note_on_c, 0, 87, 68
1, 190851, Note_on_c, 0, 63, 50
1, 190872, Note_off_c, 0, 87, 69
1, 190879, Note_off_c, 0, 63, 60
1, 190909, Control_c, 0, 67, 9
1, 190924, Control_c, 0, 67, 12
1, 190939, Note_on_c, 0, 86, 85
1, 190940, Control_c, 0, 67, 13
1, 190947, Note_on_c, 0, 55, 43
1, 190954, Control_c, 0, 67, 12
1, 190969, Control_c, 0, 67, 11
1, 190978, Note_off_c, 0, 55, 54
1, 190978, Note_off_c, 0, 86, 62
1, 190984, Control_c, 0, 67, 9
1, 190991, Note_on_c, 0, 63, 49
1, 190999, Note_on_c, 0, 87, 67
1, 190999, Control_c, 0, 67, 8
1, 191031, Note_off_c, 0, 63, 60
1, 191043, Control_c, 0, 67, 8
1, 191048, Note_off_c, 0, 87, 62
1, 191073, Note_on_c, 0, 89, 73
1, 191073, Control_c, 0, 67, 8
1, 191087, Note_on_c, 0, 58, 43
1, 191123, Note_off_c, 0, 58, 59
1, 191132, Control_c, 0, 67, 0
1, 191152, Note_off_c, 0, 89, 63
1, 191154, Note_on_c, 0, 87, 73
1, 191168, Note_on_c, 0, 63, 32
1, 191191, Control_c, 0, 67, 8
1, 191192, Note_off_c, 0, 87, 60
1, 191199, Note_off_c, 0, 63, 52
1, 191206, Control_c, 0, 67, 10
1, 191221, Control_c, 0, 64, 63
1, 191221, Control_c, 0, 67, 12
1, 191234, Note_on_c, 0, 82, 82
1, 191236, Control_c, 0, 64, 73
1, 191236, Control_c, 0, 67, 15
1, 191237, Note_on_c, 0, 55, 51
1, 191251, Control_c, 0, 64, 81
1, 191251, Control_c, 0, 67, 21
1, 191266, Note_off_c, 0, 55, 59
1, 191266, Control_c, 0, 64, 83
1, 191266, Control_c, 0, 67, 29
1, 191280, Control_c, 0, 64, 81
1, 191280, Control_c, 0, 67, 35
1, 191295, Control_c, 0, 64, 76
1, 191295, Control_c, 0, 67, 41
1, 191303, Note_on_c, 0, 63, 45
1, 191310, Control_c, 0, 64, 66
1, 191310, Control_c, 0, 67, 46
1, 191325, Control_c, 0, 64, 0
1, 191325, Control_c, 0, 67, 52
1, 191336, Note_off_c, 0, 63, 54
1, 191340, Control_c, 0, 67, 60
1, 191354, Control_c, 0, 67, 63
1, 191369, Control_c, 0, 67, 65
1, 191378, Note_on_c, 0, 58, 50
1, 191384, Control_c, 0, 67, 68
1, 191398, Control_c, 0, 67, 70
1, 191413, Control_c, 0, 67, 71
1, 191424, Note_off_c, 0, 58, 61
1, 191449, Note_off_c, 0, 82, 55
1, 191457, Note_on_c, 0, 63, 43
1, 191484, Note_off_c, 0, 63, 58
1, 191517, Control_c, 0, 67, 72
1, 191530, Note_on_c, 0, 55, 51
1, 191531, Control_c, 0, 67, 73
1, 191546, Control_c, 0, 67, 77
1, 191561, Control_c, 0, 67, 83
1, 191564, Note_off_c, 0, 55, 65
1, 191576, Control_c, 0, 67, 85
1, 191585, Note_on_c, 0, 63, 51
1, 191629, Note_off_c, 0, 63, 61
1, 191658, Control_c, 0, 67, 85
1, 191684, Note_on_c, 0, 58, 48
1, 191701, Note_on_c, 0, 81, 79
1, 191717, Control_c, 0, 67, 85
1, 191731, Note_off_c, 0, 58, 62
1, 191733, Control_c, 0, 67, 84
1, 191746, Note_off_c, 0, 81, 60
1, 191748, Control_c, 0, 67, 83
1, 191753, Note_on_c, 0, 82, 73
1, 191763, Control_c, 0, 67, 83
1, 191767, Note_on_c, 0, 63, 49
1, 191777, Note_off_c, 0, 82, 68
1, 191778, Control_c, 0, 67, 82
1, 191794, Note_off_c, 0, 63, 59
1, 191807, Control_c, 0, 67, 81
1, 191822, Control_c, 0, 67, 80
1, 191830, Note_on_c, 0, 84, 91
1, 191836, Control_c, 0, 67, 77
1, 191844, Note_on_c, 0, 55, 60
1, 191851, Control_c, 0, 67, 75
1, 191866, Control_c, 0, 67, 74
1, 191875, Note_off_c, 0, 55, 66
1, 191881, Control_c, 0, 67, 73
1, 191894, Note_on_c, 0, 82, 78
1, 191895, Note_on_c, 0, 63, 54
1, 191896, Control_c, 0, 67, 71
1, 191906, Note_off_c, 0, 84, 63
1, 191910, Control_c, 0, 67, 69
1, 191925, Control_c, 0, 67, 68
1, 191938, Note_off_c, 0, 63, 62
1, 191947, Note_off_c, 0, 82, 64
1, 191955, Control_c, 0, 67, 68
1, 191970, Control_c, 0, 67, 69
1, 191974, Note_on_c, 0, 80, 73
1, 191979, Note_on_c, 0, 58, 49
1, 191999, Control_c, 0, 67, 68
1, 192018, Note_off_c, 0, 80, 63
1, 192022, Note_off_c, 0, 58, 64
1, 192047, Note_on_c, 0, 79, 74
1, 192059, Note_on_c, 0, 63, 50
1, 192077, Note_off_c, 0, 79, 61
1, 192083, Note_off_c, 0, 63, 60
1, 192088, Control_c, 0, 67, 68
1, 192131, Note_on_c, 0, 83, 91
1, 192135, Note_on_c, 0, 56, 54
1, 192147, Control_c, 0, 67, 67
1, 192173, Note_off_c, 0, 56, 64
1, 192192, Control_c, 0, 67, 67
1, 192200, Note_on_c, 0, 63, 58
1, 192200, Note_on_c, 0, 84, 87
1, 192201, Note_off_c, 0, 83, 62
1, 192222, Control_c, 0, 67, 66
1, 192240, Note_off_c, 0, 63, 65
1, 192273, Note_off_c, 0, 84, 63
1, 192279, Note_on_c, 0, 60, 54
1, 192279, Note_on_c, 0, 83, 80
1, 192310, Control_c, 0, 67, 66
1, 192321, Note_off_c, 0, 60, 59
1, 192338, Note_off_c, 0, 83, 60
1, 192340, Control_c, 0, 67, 65
1, 192345, Note_on_c, 0, 84, 77
1, 192357, Note_on_c, 0, 63, 49
1, 192369, Control_c, 0, 67, 64
1, 192387, Note_off_c, 0, 63, 58
1, 192407, Control_c, 0, 67, 64
1, 192420, Note_off_c, 0, 84, 54
1, 192422, Control_c, 0, 67, 63
1, 192428, Note_on_c, 0, 83, 90
1, 192442, Note_on_c, 0, 56, 51
1, 192451, Control_c, 0, 67, 63
1, 192473, Note_off_c, 0, 56, 62
1, 192491, Note_off_c, 0, 83, 62
1, 192498, Note_on_c, 0, 84, 83
1, 192504, Note_on_c, 0, 63, 45
1, 192541, Control_c, 0, 67, 62
1, 192549, Note_off_c, 0, 63, 57
1, 192568, Note_off_c, 0, 84, 63
1, 192571, Note_on_c, 0, 83, 83
1, 192573, Note_on_c, 0, 60, 53
1, 192585, Control_c, 0, 67, 63
1, 192613, Note_off_c, 0, 60, 62
1, 192636, Note_off_c, 0, 83, 59
1, 192643, Note_on_c, 0, 84, 66
1, 192645, Control_c, 0, 64, 26
1, 192653, Note_on_c, 0, 63, 61
1, 192659, Control_c, 0, 64, 13
1, 192670, Note_off_c, 0, 84, 69
1, 192674, Control_c, 0, 64, 0
1, 192684, Note_off_c, 0, 63, 66
1, 192704, Control_c, 0, 67, 63
1, 192719, Control_c, 0, 67, 64
1, 192723, Note_on_c, 0, 79, 83
1, 192733, Control_c, 0, 67, 65
1, 192738, Note_on_c, 0, 56, 46
1, 192748, Control_c, 0, 67, 66
1, 192763, Control_c, 0, 67, 68
1, 192770, Note_off_c, 0, 56, 58
1, 192775, Note_off_c, 0, 79, 63
1, 192777, Control_c, 0, 67, 68
1, 192785, Note_on_c, 0, 80, 73
1, 192792, Control_c, 0, 67, 70
1, 192798, Note_on_c, 0, 64, 55
1, 192807, Control_c, 0, 67, 71
1, 192822, Control_c, 0, 67, 72
1, 192835, Note_off_c, 0, 64, 65
1, 192837, Control_c, 0, 67, 73
1, 192841, Note_off_c, 0, 80, 64
1, 192852, Control_c, 0, 67, 75
1, 192866, Control_c, 0, 67, 79
1, 192869, Note_on_c, 0, 79, 72
1, 192879, Note_on_c, 0, 60, 39
1, 192881, Control_c, 0, 67, 84
1, 192896, Control_c, 0, 67, 91
1, 192911, Control_c, 0, 67, 97
1, 192912, Note_off_c, 0, 79, 60
1, 192917, Note_off_c, 0, 60, 50
1, 192926, Control_c, 0, 67, 101
1, 192938, Note_on_c, 0, 80, 68
1, 192941, Control_c, 0, 67, 102
1, 192947, Note_on_c, 0, 64, 48
1, 192956, Control_c, 0, 67, 103
1, 192962, Note_off_c, 0, 80, 69
1, 192983, Note_off_c, 0, 64, 65
1, 193000, Control_c, 0, 67, 103
1, 193029, Note_on_c, 0, 76, 69
1, 193030, Control_c, 0, 67, 103
1, 193039, Note_on_c, 0, 56, 44
1, 193044, Control_c, 0, 67, 102
1, 193059, Control_c, 0, 67, 102
1, 193069, Note_off_c, 0, 56, 58
1, 193069, Note_off_c, 0, 76, 54
1, 193074, Control_c, 0, 67, 101
1, 193089, Control_c, 0, 67, 100
1, 193096, Note_on_c, 0, 77, 65
1, 193101, Note_on_c, 0, 65, 55
1, 193104, Control_c, 0, 67, 99
1, 193119, Control_c, 0, 67, 99
1, 193132, Note_off_c, 0, 77, 59
1, 193133, Control_c, 0, 67, 98
1, 193142, Note_off_c, 0, 65, 62
1, 193188, Note_on_c, 0, 76, 63
1, 193191, Note_on_c, 0, 60, 42
1, 193215, Control_c, 0, 67, 97
1, 193220, Note_off_c, 0, 76, 65
1, 193230, Control_c, 0, 67, 96
1, 193233, Note_off_c, 0, 60, 58
1, 193247, Note_on_c, 0, 77, 51
1, 193266, Note_on_c, 0, 65, 52
1, 193268, Note_off_c, 0, 77, 55
1, 193289, Control_c, 0, 67, 96
1, 193296, Note_off_c, 0, 65, 61
1, 193304, Control_c, 0, 67, 95
1, 193334, Control_c, 0, 67, 95
1, 193337, Note_on_c, 0, 56, 52
1, 193377, Note_off_c, 0, 56, 63
1, 193412, Note_on_c, 0, 65, 56
1, 193423, Control_c, 0, 67, 94
1, 193458, Note_off_c, 0, 65, 62
1, 193469, Control_c, 0, 67, 94
1, 193483, Control_c, 0, 67, 93
1, 193484, Note_on_c, 0, 60, 47
1, 193513, Control_c, 0, 67, 93
1, 193525, Note_off_c, 0, 60, 62
1, 193528, Control_c, 0, 67, 92
1, 193543, Control_c, 0, 67, 92
1, 193569, Note_on_c, 0, 65, 58
1, 193587, Control_c, 0, 67, 91
1, 193594, Note_off_c, 0, 65, 63
1, 193601, Control_c, 0, 67, 90
1, 193616, Control_c, 0, 67, 89
1, 193631, Note_on_c, 0, 57, 54
1, 193631, Control_c, 0, 67, 85
1, 193646, Control_c, 0, 67, 83
1, 193661, Control_c, 0, 67, 80
1, 193668, Note_off_c, 0, 57, 61
1, 193675, Control_c, 0, 67, 75
1, 193690, Control_c, 0, 67, 68
1, 193698, Note_on_c, 0, 65, 59
1, 193705, Control_c, 0, 67, 59
1, 193720, Control_c, 0, 67, 49
1, 193735, Control_c, 0, 67, 41
1, 193738, Note_off_c, 0, 65, 61
1, 193749, Control_c, 0, 67, 36
1, 193764, Control_c, 0, 67, 35
1, 193779, Note_on_c, 0, 77, 68
1, 193779, Control_c, 0, 67, 34
1, 193780, Note_on_c, 0, 63, 46
1, 193794, Control_c, 0, 67, 33
1, 193797, Note_off_c, 0, 77, 65
1, 193808, Control_c, 0, 67, 32
1, 193813, Note_off_c, 0, 63, 58
1, 193823, Control_c, 0, 67, 28
1, 193838, Control_c, 0, 67, 23
1, 193853, Control_c, 0, 67, 18
1, 193868, Note_on_c, 0, 65, 49
1, 193868, Control_c, 0, 67, 12
1, 193883, Control_c, 0, 67, 8
1, 193901, Note_off_c, 0, 65, 58
1, 193905, Control_c, 0, 67, 0
1, 193953, Note_on_c, 0, 58, 41
1, 193957, Note_on_c, 0, 80, 74
1, 193964, Control_c, 0, 64, 40
1, 193979, Control_c, 0, 64, 67
1, 193985, Note_off_c, 0, 58, 57
1, 193994, Control_c, 0, 64, 79
1, 194008, Control_c, 0, 64, 95
1, 194023, Control_c, 0, 64, 109
1, 194024, Note_on_c, 0, 65, 46
1, 194038, Control_c, 0, 64, 112
1, 194068, Control_c, 0, 64, 111
1, 194072, Note_off_c, 0, 65, 62
1, 194098, Control_c, 0, 64, 111
1, 194113, Note_on_c, 0, 62, 41
1, 194113, Control_c, 0, 64, 110
1, 194128, Control_c, 0, 64, 109
1, 194143, Control_c, 0, 64, 108
1, 194147, Note_off_c, 0, 62, 54
1, 194158, Control_c, 0, 64, 106
1, 194172, Control_c, 0, 64, 104
1, 194187, Note_on_c, 0, 65, 60
1, 194187, Control_c, 0, 64, 103
1, 194202, Control_c, 0, 64, 101
1, 194217, Note_off_c, 0, 65, 66
1, 194217, Control_c, 0, 64, 99
1, 194232, Control_c, 0, 64, 98
1, 194247, Control_c, 0, 64, 96
1, 194262, Control_c, 0, 64, 95
1, 194269, Note_on_c, 0, 53, 62
1, 194276, Control_c, 0, 64, 94
1, 194291, Control_c, 0, 64, 93
1, 194305, Note_off_c, 0, 53, 64
1, 194306, Control_c, 0, 64, 93
1, 194336, Control_c, 0, 64, 92
1, 194350, Control_c, 0, 64, 92
1, 194358, Note_on_c, 0, 62, 51
1, 194365, Control_c, 0, 64, 91
1, 194380, Control_c, 0, 64, 91
1, 194395, Note_off_c, 0, 62, 62
1, 194395, Control_c, 0, 64, 90
1, 194405, Note_off_c, 0, 80, 61
1, 194410, Control_c, 0, 64, 89
1, 194412, Note_on_c, 0, 58, 57
1, 194424, Control_c, 0, 64, 88
1, 194439, Control_c, 0, 64, 87
1, 194442, Note_on_c, 0, 79, 59
1, 194454, Control_c, 0, 64, 87
1, 194455, Note_off_c, 0, 58, 62
1, 194469, Control_c, 0, 64, 86
1, 194484, Control_c, 0, 64, 84
1, 194494, Note_on_c, 0, 62, 58
1, 194495, Note_on_c, 0, 80, 72
1, 194498, Control_c, 0, 64, 82
1, 194513, Control_c, 0, 64, 77
1, 194518, Note_off_c, 0, 79, 55
1, 194521, Note_off_c, 0, 62, 59
1, 194528, Control_c, 0, 64, 71
1, 194542, Control_c, 0, 64, 63
1, 194554, Note_off_c, 0, 80, 64
1, 194557, Control_c, 0, 64, 20
1, 194564, Note_on_c, 0, 82, 73
1, 194565, Note_on_c, 0, 50, 59
1, 194572, Control_c, 0, 64, 0
1, 194606, Note_off_c, 0, 50, 64
1, 194625, Note_on_c, 0, 80, 76
1, 194655, Note_off_c, 0, 82, 62
1, 194657, Note_on_c, 0, 58, 59
1, 194691, Note_off_c, 0, 58, 63
1, 194709, Note_on_c, 0, 79, 74
1, 194718, Note_off_c, 0, 80, 61
1, 194724, Note_on_c, 0, 53, 55
1, 194759, Note_off_c, 0, 53, 65
1, 194773, Note_off_c, 0, 79, 62
1, 194780, Note_on_c, 0, 77, 78
1, 194790, Note_on_c, 0, 58, 64
1, 194819, Note_off_c, 0, 58, 66
1, 194843, Note_off_c, 0, 77, 58
1, 194859, Note_on_c, 0, 75, 77
1, 194866, Note_on_c, 0, 46, 66
1, 194911, Note_off_c, 0, 46, 59
1, 194930, Note_on_c, 0, 74, 72
1, 194936, Note_on_c, 0, 56, 58
1, 194953, Note_off_c, 0, 75, 60
1, 194974, Note_off_c, 0, 56, 63
1, 194996, Note_off_c, 0, 74, 62
1, 195006, Note_on_c, 0, 79, 77
1, 195010, Note_on_c, 0, 53, 61
1, 195065, Note_on_c, 0, 77, 79
1, 195083, Note_off_c, 0, 53, 64
1, 195085, Note_on_c, 0, 56, 60
1, 195099, Note_off_c, 0, 79, 63
1, 195123, Note_off_c, 0, 56, 59
1, 195142, Note_on_c, 0, 75, 86
1, 195158, Note_on_c, 0, 46, 64
1, 195165, Note_off_c, 0, 77, 60
1, 195202, Note_off_c, 0, 46, 63
1, 195219, Note_on_c, 0, 74, 82
1, 195226, Note_on_c, 0, 56, 64
1, 195229, Note_off_c, 0, 75, 63
1, 195279, Note_off_c, 0, 56, 59
1, 195283, Note_off_c, 0, 74, 65
1, 195288, Note_on_c, 0, 72, 81
1, 195305, Note_on_c, 0, 53, 63
1, 195331, Note_off_c, 0, 72, 64
1, 195354, Note_off_c, 0, 53, 63
1, 195369, Note_on_c, 0, 70, 84
1, 195376, Note_on_c, 0, 56, 67
1, 195418, Note_off_c, 0, 56, 63
1, 195449, Note_on_c, 0, 68, 78
1, 195452, Note_on_c, 0, 47, 56
1, 195476, Note_off_c, 0, 70, 60
1, 195502, Note_off_c, 0, 47, 60
1, 195516, Note_on_c, 0, 56, 64
1, 195525, Note_off_c, 0, 68, 64
1, 195527, Note_on_c, 0, 67, 75
1, 195564, Note_off_c, 0, 56, 56
1, 195579, Note_off_c, 0, 67, 57
1, 195592, Note_on_c, 0, 53, 58
1, 195592, Note_on_c, 0, 68, 75
1, 195654, Note_off_c, 0, 68, 65
1, 195669, Note_on_c, 0, 65, 68
1, 195675, Note_off_c, 0, 53, 57
1, 195680, Note_on_c, 0, 56, 59
1, 195714, Note_off_c, 0, 56, 62
1, 195755, Note_on_c, 0, 48, 59
1, 195798, Note_off_c, 0, 48, 63
1, 195810, Note_off_c, 0, 65, 62
1, 195841, Note_on_c, 0, 63, 69
1, 195850, Note_on_c, 0, 55, 56
1, 195892, Note_off_c, 0, 55, 64
1, 195905, Note_on_c, 0, 51, 52
1, 195912, Note_on_c, 0, 67, 89
1, 195919, Note_off_c, 0, 63, 63
1, 195952, Note_off_c, 0, 51, 64
1, 195987, Note_on_c, 0, 55, 58
1, 196019, Note_off_c, 0, 55, 64
1, 196062, Note_on_c, 0, 44, 60
1, 196074, Note_off_c, 0, 67, 59
1, 196111, Note_off_c, 0, 44, 59
1, 196114, Note_on_c, 0, 60, 73
1, 196140, Note_on_c, 0, 53, 65
1, 196178, Note_off_c, 0, 60, 58
1, 196191, Note_off_c, 0, 53, 65
1, 196194, Note_on_c, 0, 68, 82
1, 196208, Note_on_c, 0, 50, 61
1, 196293, Note_on_c, 0, 53, 59
1, 196299, Note_off_c, 0, 50, 60
1, 196331, Note_off_c, 0, 53, 65
1, 196356, Note_on_c, 0, 46, 51
1, 196380, Note_off_c, 0, 68, 54
1, 196414, Note_on_c, 0, 62, 58
1, 196414, Note_off_c, 0, 46, 60
1, 196429, Note_on_c, 0, 50, 52
1, 196463, Note_off_c, 0, 50, 64
1, 196500, Note_off_c, 0, 62, 58
1, 196505, Note_on_c, 0, 65, 53
1, 196506, Note_on_c, 0, 53, 42
1, 196533, Note_off_c, 0, 53, 59
1, 196551, Note_on_c, 0, 56, 60
1, 196628, Note_off_c, 0, 56, 57
1, 196634, Note_off_c, 0, 65, 61
1, 196637, Note_on_c, 0, 63, 66
1, 196659, Note_on_c, 0, 51, 54
1, 196710, Note_off_c, 0, 51, 60
1, 196723, Note_off_c, 0, 63, 62
1, 196731, Note_on_c, 0, 55, 66
1, 196806, Note_on_c, 0, 56, 66
1, 196834, Note_off_c, 0, 55, 56
1, 196878, Note_on_c, 0, 58, 74
1, 196899, Note_off_c, 0, 56, 64
1, 196939, Note_off_c, 0, 58, 65
1, 196955, Note_on_c, 0, 60, 80
1, 197022, Note_on_c, 0, 62, 79
1, 197027, Note_off_c, 0, 60, 61
1, 197084, Note_on_c, 0, 63, 83
1, 197110, Note_off_c, 0, 62, 62
1, 197146, Note_off_c, 0, 63, 66
1, 197165, Note_on_c, 0, 65, 84
1, 197232, Note_off_c, 0, 65, 61
1, 197237, Note_on_c, 0, 67, 82
1, 197308, Note_on_c, 0, 68, 84
1, 197316, Note_off_c, 0, 67, 62
1, 197377, Note_on_c, 0, 70, 71
1, 197380, Note_off_c, 0, 68, 64
1, 197449, Note_off_c, 0, 70, 62
1, 197453, Note_on_c, 0, 72, 70
1, 197529, Note_on_c, 0, 70, 70
1, 197568, Note_off_c, 0, 72, 60
1, 197666, Note_off_c, 0, 70, 62
1, 197701, Note_on_c, 0, 58, 71
1, 197706, Note_on_c, 0, 50, 60
1, 197713, Note_on_c, 0, 53, 60
1, 197727, Note_off_c, 0, 58, 68
1, 197737, Note_off_c, 0, 50, 63
1, 197743, Note_off_c, 0, 53, 67
1, 197847, Note_on_c, 0, 58, 70
1, 197852, Note_on_c, 0, 53, 51
1, 197858, Note_on_c, 0, 50, 57
1, 197885, Note_off_c, 0, 58, 62
1, 197894, Note_off_c, 0, 50, 64
1, 197897, Note_off_c, 0, 53, 63
1, 197994, Note_on_c, 0, 58, 72
1, 198003, Note_on_c, 0, 50, 51
1, 198008, Note_on_c, 0, 53, 51
1, 198026, Note_off_c, 0, 58, 63
1, 198032, Note_off_c, 0, 50, 57
1, 198035, Note_off_c, 0, 53, 63
1, 198137, Note_on_c, 0, 68, 95
1, 198139, Note_on_c, 0, 50, 50
1, 198140, Note_on_c, 0, 58, 66
1, 198148, Note_on_c, 0, 53, 35
1, 198172, Note_off_c, 0, 50, 63
1, 198174, Note_off_c, 0, 58, 65
1, 198180, Note_off_c, 0, 53, 55
1, 198205, Note_off_c, 0, 68, 64
1, 198213, Note_on_c, 0, 70, 78
1, 198271, Note_on_c, 0, 68, 80
1, 198281, Note_on_c, 0, 58, 60
1, 198282, Note_off_c, 0, 70, 63
1, 198283, Note_on_c, 0, 50, 40
1, 198301, Note_off_c, 0, 58, 64
1, 198310, Note_off_c, 0, 50, 53
1, 198327, Note_off_c, 0, 68, 64
1, 198333, Note_on_c, 0, 67, 81
1, 198377, Note_on_c, 0, 68, 64
1, 198381, Note_off_c, 0, 67, 58
1, 198413, Control_c, 0, 64, 54
1, 198428, Control_c, 0, 64, 64
1, 198430, Note_on_c, 0, 67, 77
1, 198443, Control_c, 0, 64, 67
1, 198444, Note_on_c, 0, 63, 72
1, 198452, Note_off_c, 0, 68, 64
1, 198464, Note_off_c, 0, 67, 66
1, 198472, Control_c, 0, 64, 65
1, 198487, Control_c, 0, 64, 55
1, 198502, Control_c, 0, 64, 0
1, 198517, Note_off_c, 0, 63, 63
1, 198533, Note_on_c, 0, 67, 72
1, 198593, Note_on_c, 0, 68, 65
1, 198623, Note_off_c, 0, 67, 42
1, 198666, Note_on_c, 0, 70, 72
1, 198682, Note_off_c, 0, 68, 62
1, 198718, Note_off_c, 0, 70, 63
1, 198728, Note_on_c, 0, 72, 76
1, 198790, Note_off_c, 0, 72, 63
1, 198790, Note_on_c, 0, 74, 79
1, 198852, Note_on_c, 0, 75, 84
1, 198876, Note_off_c, 0, 74, 64
1, 198904, Note_off_c, 0, 75, 66
1, 198928, Note_on_c, 0, 77, 86
1, 198999, Note_on_c, 0, 79, 86
1, 199001, Note_off_c, 0, 77, 62
1, 199068, Note_on_c, 0, 80, 89
1, 199081, Note_off_c, 0, 79, 61
1, 199138, Note_on_c, 0, 82, 80
1, 199145, Note_off_c, 0, 80, 65
1, 199223, Note_off_c, 0, 82, 65
1, 199224, Note_on_c, 0, 84, 80
1, 199293, Note_on_c, 0, 82, 85
1, 199335, Note_off_c, 0, 84, 62
1, 199463, Note_on_c, 0, 70, 68
1, 199471, Note_on_c, 0, 62, 53
1, 199478, Note_on_c, 0, 65, 52
1, 199511, Note_off_c, 0, 70, 57
1, 199512, Note_off_c, 0, 62, 59
1, 199516, Note_off_c, 0, 65, 63
1, 199625, Note_on_c, 0, 70, 71
1, 199631, Note_on_c, 0, 65, 58
1, 199634, Note_on_c, 0, 62, 57
1, 199669, Note_off_c, 0, 65, 62
1, 199670, Note_off_c, 0, 70, 60
1, 199672, Note_off_c, 0, 62, 60
1, 199776, Note_on_c, 0, 62, 49
1, 199779, Note_on_c, 0, 70, 69
1, 199789, Note_on_c, 0, 65, 45
1, 199811, Note_off_c, 0, 70, 60
1, 199812, Note_off_c, 0, 62, 56
1, 199820, Note_off_c, 0, 65, 55
1, 199854, Note_off_c, 0, 82, 37
1, 199936, Note_on_c, 0, 80, 82
1, 199938, Note_on_c, 0, 70, 62
1, 199941, Note_on_c, 0, 62, 54
1, 199952, Note_on_c, 0, 65, 45
1, 199969, Note_off_c, 0, 70, 65
1, 199977, Note_off_c, 0, 65, 60
1, 199979, Note_off_c, 0, 62, 62
1, 199991, Note_off_c, 0, 80, 62
1, 199998, Note_on_c, 0, 82, 79
1, 200052, Note_on_c, 0, 80, 67
1, 200063, Note_off_c, 0, 82, 64
1, 200089, Note_on_c, 0, 62, 19
1, 200101, Note_on_c, 0, 70, 9
1, 200110, Note_off_c, 0, 80, 64
1, 200119, Note_on_c, 0, 79, 65
1, 200128, Note_off_c, 0, 70, 41
1, 200134, Note_off_c, 0, 62, 29
1, 200150, Note_off_c, 0, 79, 62
1, 200158, Note_on_c, 0, 80, 62
1, 200227, Note_on_c, 0, 79, 75
1, 200259, Note_off_c, 0, 80, 60
1, 200341, Note_off_c, 0, 79, 64
1, 200383, Note_on_c, 0, 70, 50
1, 200393, Note_on_c, 0, 63, 44
1, 200395, Note_on_c, 0, 67, 50
1, 200419, Note_off_c, 0, 67, 62
1, 200423, Note_off_c, 0, 70, 65
1, 200426, Note_off_c, 0, 63, 57
1, 200530, Note_on_c, 0, 77, 67
1, 200568, Note_off_c, 0, 77, 57
1, 200583, Note_on_c, 0, 79, 68
1, 200645, Note_on_c, 0, 77, 69
1, 200656, Note_off_c, 0, 79, 63
1, 200679, Note_on_c, 0, 67, 49
1, 200695, Note_on_c, 0, 59, 15
1, 200702, Note_off_c, 0, 67, 57
1, 200702, Note_off_c, 0, 77, 62
1, 200706, Note_on_c, 0, 76, 58
1, 200738, Note_off_c, 0, 59, 37
1, 200740, Note_off_c, 0, 76, 62
1, 200749, Note_on_c, 0, 77, 63
1, 200822, Note_on_c, 0, 75, 66
1, 200858, Note_off_c, 0, 77, 61
1, 200921, Note_off_c, 0, 75, 65
1, 200960, Note_on_c, 0, 60, 52
1, 200965, Note_on_c, 0, 67, 57
1, 200981, Note_on_c, 0, 63, 37
1, 200997, Note_off_c, 0, 60, 63
1, 200998, Note_off_c, 0, 67, 65
1, 201008, Note_off_c, 0, 63, 59
1, 201115, Note_on_c, 0, 73, 69
1, 201156, Note_off_c, 0, 73, 59
1, 201186, Note_on_c, 0, 75, 68
1, 201242, Note_on_c, 0, 55, 46
1, 201242, Note_on_c, 0, 73, 75
1, 201245, Note_off_c, 0, 75, 66
1, 201252, Note_on_c, 0, 63, 49
1, 201267, Note_off_c, 0, 55, 58
1, 201275, Note_off_c, 0, 63, 59
1, 201301, Note_off_c, 0, 73, 61
1, 201309, Note_on_c, 0, 72, 64
1, 201341, Note_off_c, 0, 72, 65
1, 201342, Note_on_c, 0, 73, 60
1, 201417, Note_on_c, 0, 72, 74
1, 201442, Note_off_c, 0, 73, 62
1, 201501, Note_off_c, 0, 72, 62
1, 201560, Note_on_c, 0, 63, 65
1, 201567, Note_on_c, 0, 56, 54
1, 201571, Note_on_c, 0, 60, 51
1, 201594, Note_off_c, 0, 63, 65
1, 201595, Note_off_c, 0, 60, 61
1, 201604, Note_off_c, 0, 56, 64
1, 201706, Note_on_c, 0, 70, 77
1, 201747, Note_off_c, 0, 70, 56
1, 201773, Note_on_c, 0, 72, 74
1, 201829, Note_on_c, 0, 52, 58
1, 201830, Note_on_c, 0, 70, 73
1, 201831, Note_on_c, 0, 60, 49
1, 201832, Note_off_c, 0, 72, 64
1, 201853, Note_off_c, 0, 60, 60
1, 201858, Note_off_c, 0, 52, 66
1, 201876, Note_on_c, 0, 69, 72
1, 201880, Note_off_c, 0, 70, 62
1, 201917, Note_off_c, 0, 69, 64
1, 201919, Note_on_c, 0, 70, 64
1, 201981, Note_on_c, 0, 69, 72
1, 202014, Note_off_c, 0, 70, 64
1, 202048, Note_off_c, 0, 69, 65
1, 202136, Note_on_c, 0, 53, 62
1, 202140, Note_on_c, 0, 60, 64
1, 202148, Note_on_c, 0, 57, 61
1, 202168, Note_off_c, 0, 60, 67
1, 202172, Note_off_c, 0, 53, 64
1, 202175, Note_off_c, 0, 57, 65
1, 202286, Note_on_c, 0, 68, 76
1, 202325, Note_off_c, 0, 68, 61
1, 202347, Note_on_c, 0, 70, 68
1, 202402, Note_on_c, 0, 68, 74
1, 202414, Note_off_c, 0, 70, 62
1, 202423, Note_on_c, 0, 50, 46
1, 202429, Note_on_c, 0, 58, 48
1, 202444, Note_on_c, 0, 53, 28
1, 202449, Note_off_c, 0, 50, 58
1, 202453, Note_off_c, 0, 58, 60
1, 202456, Note_on_c, 0, 67, 68
1, 202461, Note_off_c, 0, 68, 63
1, 202473, Note_off_c, 0, 53, 49
1, 202500, Note_off_c, 0, 67, 62
1, 202501, Note_on_c, 0, 68, 56
1, 202563, Note_on_c, 0, 67, 69
1, 202605, Note_off_c, 0, 68, 64
1, 202654, Note_off_c, 0, 67, 60
1, 202707, Note_on_c, 0, 58, 65
1, 202710, Note_on_c, 0, 51, 58
1, 202720, Note_on_c, 0, 55, 52
1, 202739, Note_off_c, 0, 58, 65
1, 202744, Note_off_c, 0, 55, 61
1, 202746, Note_off_c, 0, 51, 63
1, 202854, Note_on_c, 0, 65, 68
1, 202897, Note_off_c, 0, 65, 59
1, 202927, Note_on_c, 0, 67, 66
1, 202973, Note_on_c, 0, 55, 50
1, 202984, Note_on_c, 0, 65, 70
1, 202986, Note_off_c, 0, 67, 62
1, 202991, Note_on_c, 0, 47, 31
1, 202999, Note_off_c, 0, 55, 61
1, 203019, Note_off_c, 0, 47, 50
1, 203026, Note_off_c, 0, 65, 63
1, 203031, Note_on_c, 0, 64, 54
1, 203074, Note_off_c, 0, 64, 60
1, 203081, Note_on_c, 0, 65, 62
1, 203158, Note_on_c, 0, 63, 70
1, 203192, Note_off_c, 0, 65, 64
1, 203246, Note_off_c, 0, 63, 65
1, 203297, Note_on_c, 0, 48, 62
1, 203300, Note_on_c, 0, 55, 65
1, 203315, Note_on_c, 0, 51, 53
1, 203333, Note_off_c, 0, 55, 65
1, 203336, Note_off_c, 0, 48, 65
1, 203347, Note_off_c, 0, 51, 63
1, 203450, Note_on_c, 0, 61, 79
1, 203507, Note_off_c, 0, 61, 61
1, 203515, Note_on_c, 0, 63, 71
1, 203567, Note_on_c, 0, 61, 66
1, 203580, Note_on_c, 0, 43, 56
1, 203581, Note_off_c, 0, 63, 65
1, 203585, Note_on_c, 0, 51, 63
1, 203618, Note_off_c, 0, 43, 63
1, 203621, Note_on_c, 0, 60, 75
1, 203623, Note_off_c, 0, 51, 61
1, 203651, Note_off_c, 0, 61, 0
1, 203678, Note_off_c, 0, 60, 60
1, 203684, Note_on_c, 0, 61, 19
1, 203742, Note_on_c, 0, 60, 84
1, 203790, Note_off_c, 0, 61, 60
1, 203806, Note_off_c, 0, 60, 62
1, 203878, Note_on_c, 0, 51, 79
1, 203879, Note_on_c, 0, 44, 71
1, 203884, Note_on_c, 0, 48, 73
1, 203932, Note_off_c, 0, 48, 64
1, 203935, Note_off_c, 0, 51, 63
1, 203949, Note_off_c, 0, 44, 64
1, 204030, Note_on_c, 0, 58, 87
1, 204101, Note_on_c, 0, 60, 82
1, 204101, Note_off_c, 0, 58, 64
1, 204164, Note_on_c, 0, 58, 80
1, 204167, Note_on_c, 0, 40, 75
1, 204167, Note_on_c, 0, 48, 74
1, 204174, Note_off_c, 0, 60, 62
1, 204200, Note_off_c, 0, 48, 66
1, 204205, Note_off_c, 0, 40, 65
1, 204215, Note_on_c, 0, 57, 75
1, 204223, Note_off_c, 0, 58, 65
1, 204262, Control_c, 0, 64, 10
1, 204268, Note_on_c, 0, 58, 80
1, 204276, Note_off_c, 0, 57, 62
1, 204277, Control_c, 0, 64, 15
1, 204291, Control_c, 0, 64, 17
1, 204321, Control_c, 0, 64, 15
1, 204325, Note_on_c, 0, 57, 80
1, 204349, Note_off_c, 0, 58, 66
1, 204350, Control_c, 0, 64, 13
1, 204365, Control_c, 0, 64, 0
1, 204369, Note_off_c, 0, 57, 65
1, 204456, Note_on_c, 0, 48, 89
1, 204459, Note_on_c, 0, 41, 80
1, 204461, Note_on_c, 0, 45, 79
1, 204498, Note_off_c, 0, 48, 65
1, 204515, Note_off_c, 0, 41, 64
1, 204516, Note_off_c, 0, 45, 63
1, 204566, Control_c, 0, 64, 60
1, 204581, Control_c, 0, 64, 68
1, 204596, Control_c, 0, 64, 75
1, 204603, Note_on_c, 0, 56, 97
1, 204611, Control_c, 0, 64, 80
1, 204626, Control_c, 0, 64, 79
1, 204640, Control_c, 0, 64, 76
1, 204655, Control_c, 0, 64, 66
1, 204670, Control_c, 0, 64, 0
1, 204677, Note_on_c, 0, 58, 70
1, 204687, Note_off_c, 0, 56, 65
1, 204734, Note_on_c, 0, 46, 83
1, 204736, Note_on_c, 0, 56, 74
1, 204740, Note_on_c, 0, 38, 65
1, 204745, Note_on_c, 0, 41, 62
1, 204766, Note_off_c, 0, 58, 65
1, 204781, Note_off_c, 0, 38, 63
1, 204787, Note_off_c, 0, 46, 63
1, 204797, Note_off_c, 0, 41, 58
1, 204812, Note_on_c, 0, 55, 71
1, 204862, Note_off_c, 0, 55, 0
1, 204899, Poly_aftertouch_c, 0, 55, 127
1, 204904, Note_off_c, 0, 56, 66
1, 204924, Poly_aftertouch_c, 0, 55, 0
1, 205029, Note_on_c, 0, 46, 76
1, 205034, Note_on_c, 0, 39, 61
1, 205036, Note_on_c, 0, 43, 53
1, 205062, Note_off_c, 0, 39, 65
1, 205064, Note_off_c, 0, 46, 66
1, 205078, Note_off_c, 0, 43, 63
1, 205186, Note_on_c, 0, 68, 66
1, 205225, Note_off_c, 0, 68, 60
1, 205257, Note_on_c, 0, 70, 59
1, 205292, Note_off_c, 0, 70, 65
1, 205307, Note_on_c, 0, 68, 69
1, 205348, Note_off_c, 0, 68, 64
1, 205355, Note_on_c, 0, 46, 57
1, 205356, Note_on_c, 0, 38, 42
1, 205377, Note_on_c, 0, 67, 43
1, 205386, Note_off_c, 0, 46, 63
1, 205386, Note_off_c, 0, 38, 53
1, 205404, Note_off_c, 0, 67, 50
1, 205413, Note_on_c, 0, 68, 64
1, 205473, Note_on_c, 0, 67, 66
1, 205477, Note_off_c, 0, 68, 64
1, 205501, Note_off_c, 0, 67, 65
1, 205610, Note_on_c, 0, 46, 66
1, 205613, Note_on_c, 0, 39, 62
1, 205628, Note_on_c, 0, 43, 46
1, 205654, Note_off_c, 0, 39, 63
1, 205655, Note_off_c, 0, 46, 61
1, 205669, Note_off_c, 0, 43, 55
1, 205729, Control_c, 0, 64, 61
1, 205744, Control_c, 0, 64, 71
1, 205744, Note_on_c, 0, 56, 97
1, 205759, Control_c, 0, 64, 80
1, 205773, Control_c, 0, 64, 84
1, 205788, Control_c, 0, 64, 82
1, 205803, Control_c, 0, 64, 76
1, 205818, Control_c, 0, 64, 65
1, 205819, Note_on_c, 0, 58, 81
1, 205822, Note_off_c, 0, 56, 63
1, 205833, Control_c, 0, 64, 0
1, 205862, Note_on_c, 0, 46, 71
1, 205866, Note_on_c, 0, 38, 62
1, 205886, Note_on_c, 0, 56, 73
1, 205905, Note_off_c, 0, 38, 63
1, 205907, Note_off_c, 0, 46, 66
1, 205908, Note_off_c, 0, 58, 65
1, 205947, Note_on_c, 0, 55, 77
1, 205947, Note_off_c, 0, 56, 65
1, 205966, Poly_aftertouch_c, 0, 43, 0
1, 205980, Note_on_c, 0, 56, 63
1, 205986, Note_off_c, 0, 55, 62
1, 206037, Note_on_c, 0, 55, 90
1, 206069, Note_off_c, 0, 56, 64
1, 206081, Note_off_c, 0, 55, 66
1, 206194, Note_on_c, 0, 46, 68
1, 206194, Note_on_c, 0, 39, 49
1, 206206, Note_on_c, 0, 43, 45
1, 206227, Note_off_c, 0, 39, 61
1, 206234, Note_off_c, 0, 46, 63
1, 206240, Note_off_c, 0, 43, 58
1, 206347, Note_on_c, 0, 68, 58
1, 206385, Note_off_c, 0, 68, 63
1, 206409, Note_on_c, 0, 70, 61
1, 206449, Control_c, 0, 67, 8
1, 206458, Note_off_c, 0, 70, 64
1, 206466, Note_on_c, 0, 46, 50
1, 206468, Note_on_c, 0, 68, 63
1, 206471, Note_on_c, 0, 38, 30
1, 206478, Control_c, 0, 67, 0
1, 206497, Note_off_c, 0, 46, 60
1, 206501, Note_off_c, 0, 68, 65
1, 206518, Note_off_c, 0, 38, 48
1, 206524, Note_on_c, 0, 67, 60
1, 206555, Note_off_c, 0, 67, 64
1, 206561, Note_on_c, 0, 68, 72
1, 206629, Note_on_c, 0, 67, 84
1, 206647, Note_off_c, 0, 68, 64
1, 206665, Note_off_c, 0, 67, 63
1, 206742, Note_on_c, 0, 39, 61
1, 206747, Note_on_c, 0, 43, 46
1, 206747, Note_on_c, 0, 46, 70
1, 206792, Note_off_c, 0, 39, 57
1, 206803, Note_off_c, 0, 46, 58
1, 206825, Note_off_c, 0, 43, 53
1, 206911, Note_on_c, 0, 56, 94
1, 206916, Control_c, 0, 64, 48
1, 206931, Control_c, 0, 64, 68
1, 206946, Control_c, 0, 64, 86
1, 206960, Control_c, 0, 64, 115
1, 206975, Control_c, 0, 64, 127
1, 206984, Note_on_c, 0, 38, 68
1, 206985, Note_on_c, 0, 46, 82
1, 206986, Note_on_c, 0, 58, 81
1, 206987, Note_off_c, 0, 56, 65
1, 206988, Note_on_c, 0, 43, 62
1, 207032, Note_off_c, 0, 38, 62
1, 207037, Note_off_c, 0, 46, 62
1, 207038, Note_off_c, 0, 43, 60
1, 207046, Note_on_c, 0, 56, 80
1, 207074, Note_off_c, 0, 58, 64
1, 207094, Control_c, 0, 67, 9
1, 207104, Note_on_c, 0, 55, 75
1, 207109, Control_c, 0, 64, 126
1, 207109, Control_c, 0, 67, 17
1, 207117, Note_off_c, 0, 56, 64
1, 207124, Control_c, 0, 64, 122
1, 207124, Control_c, 0, 67, 34
1, 207139, Control_c, 0, 64, 118
1, 207139, Control_c, 0, 67, 53
1, 207153, Control_c, 0, 64, 116
1, 207153, Control_c, 0, 67, 73
1, 207155, Poly_aftertouch_c, 0, 56, 0
1, 207163, Note_on_c, 0, 56, 57
1, 207165, Note_off_c, 0, 55, 63
1, 207168, Control_c, 0, 64, 114
1, 207168, Control_c, 0, 67, 94
1, 207183, Control_c, 0, 64, 113
1, 207183, Control_c, 0, 67, 116
1, 207190, Note_off_c, 0, 56, 68
1, 207198, Control_c, 0, 64, 113
1, 207198, Control_c, 0, 67, 127
1, 207213, Control_c, 0, 64, 112
1, 207227, Control_c, 0, 64, 111
1, 207242, Control_c, 0, 64, 109
1, 207257, Control_c, 0, 64, 107
1, 207271, Control_c, 0, 64, 103
1, 207286, Control_c, 0, 64, 98
1, 207301, Control_c, 0, 64, 90
1, 207316, Control_c, 0, 64, 81
1, 207331, Control_c, 0, 64, 66
1, 207334, Note_on_c, 0, 46, 68
1, 207340, Note_on_c, 0, 39, 51
1, 207345, Control_c, 0, 64, 0
1, 207351, Note_on_c, 0, 43, 44
1, 207359, Note_on_c, 0, 55, 52
1, 207398, Note_off_c, 0, 46, 62
1, 207407, Note_off_c, 0, 43, 56
1, 207433, Note_on_c, 0, 51, 68
1, 207439, Note_off_c, 0, 39, 61
1, 207449, Note_off_c, 0, 55, 56
1, 207501, Control_c, 0, 67, 122
1, 207503, Note_off_c, 0, 51, 61
1, 207515, Note_on_c, 0, 46, 68
1, 207516, Control_c, 0, 67, 110
1, 207531, Control_c, 0, 67, 98
1, 207546, Control_c, 0, 67, 90
1, 207560, Control_c, 0, 67, 79
1, 207566, Note_off_c, 0, 46, 56
1, 207575, Control_c, 0, 67, 63
1, 207590, Control_c, 0, 67, 47
1, 207600, Note_on_c, 0, 51, 66
1, 207605, Control_c, 0, 67, 35
1, 207620, Control_c, 0, 67, 32
1, 207634, Control_c, 0, 67, 32
1, 207644, Note_off_c, 0, 51, 63
1, 207649, Control_c, 0, 67, 29
1, 207660, Note_on_c, 0, 55, 63
1, 207664, Control_c, 0, 67, 24
1, 207679, Control_c, 0, 67, 15
1, 207693, Control_c, 0, 67, 0
1, 207720, Note_off_c, 0, 55, 61
1, 207740, Note_on_c, 0, 51, 62
1, 207799, Note_off_c, 0, 51, 59
1, 207810, Note_on_c, 0, 58, 66
1, 207860, Note_off_c, 0, 58, 65
1, 207902, Note_on_c, 0, 55, 57
1, 207957, Note_off_c, 0, 55, 50
1, 207965, Note_on_c, 0, 63, 68
1, 208024, Note_off_c, 0, 63, 60
1, 208035, Note_on_c, 0, 58, 66
1, 208080, Note_off_c, 0, 58, 56
1, 208111, Note_on_c, 0, 67, 67
1, 208189, Note_off_c, 0, 67, 58
1, 208192, Note_on_c, 0, 63, 70
1, 208254, Note_on_c, 0, 58, 69
1, 208272, Note_off_c, 0, 63, 61
1, 208322, Note_off_c, 0, 58, 64
1, 208334, Note_on_c, 0, 55, 67
1, 208379, Note_off_c, 0, 55, 63
1, 208398, Note_on_c, 0, 63, 68
1, 208472, Note_on_c, 0, 58, 70
1, 208472, Note_off_c, 0, 63, 63
1, 208523, Note_off_c, 0, 58, 62
1, 208542, Note_on_c, 0, 67, 64
1, 208602, Note_off_c, 0, 67, 61
1, 208608, Note_on_c, 0, 63, 72
1, 208635, Note_off_c, 0, 63, 70
1, 208699, Note_on_c, 0, 70, 73
1, 208750, Note_on_c, 0, 67, 65
1, 208759, Note_off_c, 0, 70, 57
1, 208824, Note_on_c, 0, 63, 74
1, 208828, Note_off_c, 0, 67, 62
1, 208901, Note_off_c, 0, 63, 59
1, 208909, Note_on_c, 0, 58, 69
1, 208962, Note_off_c, 0, 58, 58
1, 208968, Note_on_c, 0, 67, 68
1, 209041, Note_off_c, 0, 67, 61
1, 209046, Note_on_c, 0, 63, 72
1, 209115, Note_off_c, 0, 63, 65
1, 209117, Note_on_c, 0, 70, 69
1, 209158, Note_off_c, 0, 70, 64
1, 209187, Note_on_c, 0, 67, 73
1, 209233, Note_off_c, 0, 67, 59
1, 209263, Note_on_c, 0, 75, 72
1, 209335, Note_off_c, 0, 75, 64
1, 209339, Note_on_c, 0, 70, 74
1, 209404, Note_on_c, 0, 67, 76
1, 209408, Note_off_c, 0, 70, 62
1, 209472, Note_off_c, 0, 67, 56
1, 209486, Note_on_c, 0, 63, 69
1, 209516, Note_off_c, 0, 63, 66
1, 209558, Note_on_c, 0, 70, 73
1, 209598, Note_off_c, 0, 70, 63
1, 209636, Note_on_c, 0, 67, 69
1, 209679, Note_off_c, 0, 67, 60
1, 209700, Note_on_c, 0, 75, 75
1, 209761, Note_off_c, 0, 75, 64
1, 209765, Note_on_c, 0, 70, 74
1, 209809, Note_off_c, 0, 70, 63
1, 209841, Note_on_c, 0, 79, 64
1, 209896, Note_on_c, 0, 75, 70
1, 209896, Note_off_c, 0, 79, 62
1, 209924, Note_off_c, 0, 75, 69
1, 209995, Note_on_c, 0, 82, 79
1, 210034, Note_off_c, 0, 82, 53
1, 210158, Note_on_c, 0, 70, 66
1, 210159, Note_on_c, 0, 58, 47
1, 210184, Note_off_c, 0, 58, 59
1, 210186, Note_off_c, 0, 70, 67
1, 210320, Note_on_c, 0, 63, 49
1, 210326, Note_on_c, 0, 75, 65
1, 210344, Note_off_c, 0, 63, 59
1, 210353, Note_off_c, 0, 75, 66
1, 210473, Note_on_c, 0, 79, 63
1, 210481, Note_on_c, 0, 67, 43
1, 210505, Note_off_c, 0, 79, 63
1, 210507, Note_off_c, 0, 67, 56
1, 210635, Note_on_c, 0, 82, 66
1, 210640, Note_on_c, 0, 70, 58
1, 210656, Note_off_c, 0, 82, 67
1, 210660, Note_off_c, 0, 70, 65
1, 210795, Note_on_c, 0, 58, 69
1, 210828, Note_off_c, 0, 58, 65
1, 210949, Note_on_c, 0, 63, 67
1, 210981, Note_off_c, 0, 63, 65
1, 211100, Note_on_c, 0, 67, 64
1, 211145, Note_off_c, 0, 67, 61
1, 211256, Note_on_c, 0, 70, 73
1, 211277, Note_off_c, 0, 70, 67
1, 211411, Note_on_c, 0, 46, 81
1, 211427, Note_on_c, 0, 34, 61
1, 211446, Note_off_c, 0, 46, 66
1, 211461, Note_on_c, 0, 58, 4
1, 211464, Note_off_c, 0, 34, 64
1, 211484, Note_off_c, 0, 58, 44
1, 211571, Note_on_c, 0, 51, 74
1, 211574, Note_on_c, 0, 39, 63
1, 211608, Note_off_c, 0, 51, 65
1, 211610, Note_off_c, 0, 39, 63
1, 211717, Note_on_c, 0, 55, 75
1, 211727, Note_on_c, 0, 43, 62
1, 211750, Note_off_c, 0, 55, 65
1, 211776, Note_off_c, 0, 43, 60
1, 211873, Note_on_c, 0, 46, 73
1, 211879, Note_on_c, 0, 58, 87
1, 211909, Note_off_c, 0, 46, 63
1, 211923, Note_off_c, 0, 58, 65
1, 212011, Note_on_c, 0, 51, 71
1, 212022, Note_on_c, 0, 63, 82
1, 212059, Note_off_c, 0, 51, 55
1, 212075, Note_off_c, 0, 63, 67
1, 212162, Note_on_c, 0, 55, 74
1, 212163, Note_on_c, 0, 67, 92
1, 212202, Note_off_c, 0, 67, 63
1, 212209, Note_off_c, 0, 55, 63
1, 212306, Note_on_c, 0, 58, 81
1, 212317, Note_on_c, 0, 70, 90
1, 212343, Note_off_c, 0, 58, 63
1, 212353, Note_off_c, 0, 70, 64
1, 212442, Note_on_c, 0, 75, 92
1, 212446, Note_on_c, 0, 63, 83
1, 212478, Note_off_c, 0, 63, 64
1, 212490, Note_off_c, 0, 75, 67
1, 212585, Note_on_c, 0, 79, 89
1, 212590, Note_on_c, 0, 67, 66
1, 212627, Note_off_c, 0, 79, 64
1, 212654, Note_off_c, 0, 67, 60
1, 212744, Note_on_c, 0, 70, 87
1, 212744, Note_on_c, 0, 82, 92
1, 212775, Note_off_c, 0, 82, 67
1, 212908, Note_on_c, 0, 81, 90
1, 213040, Note_off_c, 0, 70, 61
1, 213047, Note_on_c, 0, 84, 88
1, 213056, Note_off_c, 0, 81, 62
1, 213089, Note_off_c, 0, 84, 67
1, 213200, Note_on_c, 0, 82, 82
1, 213227, Note_off_c, 0, 82, 63
1, 213350, Note_on_c, 0, 80, 81
1, 213381, Note_off_c, 0, 80, 68
1, 213504, Note_on_c, 0, 79, 71
1, 213528, Note_off_c, 0, 79, 68
1, 213671, Note_on_c, 0, 77, 77
1, 213705, Note_off_c, 0, 77, 58
1, 213722, Note_on_c, 0, 79, 68
1, 213769, Note_off_c, 0, 79, 62
1, 213798, Note_on_c, 0, 77, 62
1, 213829, Note_off_c, 0, 77, 58
1, 213834, Note_on_c, 0, 79, 59
1, 213852, Note_on_c, 0, 58, 47
1, 213867, Note_off_c, 0, 79, 64
1, 213880, Note_off_c, 0, 58, 58
1, 213890, Note_on_c, 0, 77, 69
1, 213927, Note_off_c, 0, 77, 61
1, 213942, Note_on_c, 0, 79, 63
1, 213968, Note_off_c, 0, 79, 55
1, 213989, Note_on_c, 0, 77, 63
1, 213991, Note_on_c, 0, 62, 59
1, 214019, Note_off_c, 0, 77, 65
1, 214025, Note_off_c, 0, 62, 63
1, 214038, Note_on_c, 0, 79, 63
1, 214058, Note_off_c, 0, 79, 63
1, 214091, Note_on_c, 0, 77, 74
1, 214135, Note_on_c, 0, 65, 61
1, 214138, Note_off_c, 0, 77, 62
1, 214144, Note_on_c, 0, 79, 64
1, 214151, Control_c, 0, 67, 8
1, 214166, Control_c, 0, 67, 10
1, 214168, Note_off_c, 0, 65, 67
1, 214177, Note_off_c, 0, 79, 58
1, 214181, Control_c, 0, 67, 12
1, 214211, Note_on_c, 0, 77, 64
1, 214211, Control_c, 0, 67, 11
1, 214225, Control_c, 0, 67, 9
1, 214238, Note_off_c, 0, 77, 59
1, 214240, Control_c, 0, 67, 8
1, 214255, Note_on_c, 0, 79, 60
1, 214255, Control_c, 0, 67, 0
1, 214278, Note_off_c, 0, 79, 58
1, 214282, Note_on_c, 0, 68, 60
1, 214302, Note_off_c, 0, 68, 64
1, 214311, Note_on_c, 0, 77, 75
1, 214345, Note_off_c, 0, 77, 59
1, 214355, Note_on_c, 0, 79, 67
1, 214393, Note_off_c, 0, 79, 53
1, 214414, Note_on_c, 0, 77, 71
1, 214418, Control_c, 0, 67, 8
1, 214433, Control_c, 0, 67, 8
1, 214437, Note_on_c, 0, 46, 65
1, 214448, Control_c, 0, 67, 9
1, 214451, Note_off_c, 0, 77, 59
1, 214463, Control_c, 0, 67, 11
1, 214464, Note_on_c, 0, 79, 57
1, 214477, Control_c, 0, 67, 11
1, 214483, Note_off_c, 0, 46, 63
1, 214491, Note_off_c, 0, 79, 54
1, 214521, Note_on_c, 0, 77, 63
1, 214522, Control_c, 0, 67, 12
1, 214551, Control_c, 0, 67, 12
1, 214552, Note_off_c, 0, 77, 57
1, 214572, Note_on_c, 0, 79, 66
1, 214578, Note_on_c, 0, 50, 68
1, 214581, Control_c, 0, 67, 12
1, 214596, Control_c, 0, 67, 11
1, 214604, Note_off_c, 0, 79, 62
1, 214611, Control_c, 0, 67, 10
1, 214616, Note_off_c, 0, 50, 66
1, 214625, Note_on_c, 0, 77, 73
1, 214625, Control_c, 0, 67, 10
1, 214640, Control_c, 0, 67, 9
1, 214655, Control_c, 0, 67, 9
1, 214669, Control_c, 0, 67, 8
1, 214672, Note_off_c, 0, 77, 59
1, 214680, Note_on_c, 0, 79, 67
1, 214684, Control_c, 0, 67, 0
1, 214717, Note_on_c, 0, 53, 70
1, 214722, Note_off_c, 0, 79, 52
1, 214741, Note_on_c, 0, 77, 66
1, 214756, Note_off_c, 0, 53, 67
1, 214785, Note_off_c, 0, 77, 62
1, 214801, Note_on_c, 0, 79, 58
1, 214836, Note_off_c, 0, 79, 52
1, 214849, Note_on_c, 0, 77, 64
1, 214859, Note_on_c, 0, 56, 74
1, 214901, Note_off_c, 0, 56, 62
1, 214901, Note_off_c, 0, 77, 61
1, 214922, Note_on_c, 0, 79, 64
1, 214952, Note_off_c, 0, 79, 54
1, 214971, Note_on_c, 0, 77, 62
1, 215009, Note_on_c, 0, 47, 75
1, 215019, Note_off_c, 0, 77, 59
1, 215033, Note_on_c, 0, 79, 68
1, 215065, Note_off_c, 0, 79, 59
1, 215071, Note_off_c, 0, 47, 64
1, 215086, Note_on_c, 0, 77, 59
1, 215125, Note_off_c, 0, 77, 59
1, 215141, Note_on_c, 0, 79, 61
1, 215146, Note_on_c, 0, 50, 78
1, 215173, Note_off_c, 0, 79, 64
1, 215177, Note_on_c, 0, 77, 54
1, 215197, Note_off_c, 0, 50, 62
1, 215222, Note_off_c, 0, 77, 61
1, 215238, Note_on_c, 0, 79, 70
1, 215274, Note_off_c, 0, 79, 56
1, 215293, Note_on_c, 0, 53, 74
1, 215295, Note_on_c, 0, 77, 50
1, 215334, Note_on_c, 0, 79, 64
1, 215337, Note_off_c, 0, 53, 66
1, 215345, Note_off_c, 0, 77, 62
1, 215387, Note_off_c, 0, 79, 57
1, 215400, Note_on_c, 0, 77, 60
1, 215430, Note_on_c, 0, 56, 68
1, 215436, Note_off_c, 0, 77, 59
1, 215444, Note_on_c, 0, 79, 59
1, 215468, Note_off_c, 0, 56, 63
1, 215495, Note_off_c, 0, 79, 61
1, 215503, Note_on_c, 0, 77, 63
1, 215553, Note_off_c, 0, 77, 59
1, 215557, Note_on_c, 0, 79, 64
1, 215589, Note_on_c, 0, 46, 68
1, 215617, Note_off_c, 0, 79, 61
1, 215628, Note_on_c, 0, 77, 64
1, 215647, Note_off_c, 0, 46, 59
1, 215673, Note_off_c, 0, 77, 59
1, 215690, Note_on_c, 0, 79, 61
1, 215733, Note_off_c, 0, 79, 60
1, 215740, Note_on_c, 0, 50, 64
1, 215748, Note_on_c, 0, 77, 71
1, 215783, Note_off_c, 0, 50, 59
1, 215795, Note_off_c, 0, 77, 60
1, 215803, Note_on_c, 0, 79, 69
1, 215863, Note_off_c, 0, 79, 61
1, 215867, Note_on_c, 0, 77, 66
1, 215878, Note_on_c, 0, 53, 68
1, 215913, Note_off_c, 0, 77, 60
1, 215917, Note_on_c, 0, 79, 63
1, 215920, Note_off_c, 0, 53, 66
1, 215980, Note_on_c, 0, 77, 70
1, 215980, Note_off_c, 0, 79, 62
1, 216014, Note_on_c, 0, 56, 71
1, 216034, Note_on_c, 0, 79, 67
1, 216035, Note_off_c, 0, 77, 61
1, 216043, Note_off_c, 0, 56, 65
1, 216099, Note_off_c, 0, 79, 63
1, 216101, Note_on_c, 0, 77, 66
1, 216156, Note_on_c, 0, 58, 82
1, 216156, Note_on_c, 0, 79, 72
1, 216159, Note_off_c, 0, 77, 61
1, 216209, Note_off_c, 0, 58, 66
1, 216225, Note_on_c, 0, 77, 70
1, 216225, Note_off_c, 0, 79, 62
1, 216278, Note_on_c, 0, 79, 71
1, 216284, Note_off_c, 0, 77, 61
1, 216296, Note_on_c, 0, 62, 93
1, 216341, Note_off_c, 0, 62, 63
1, 216345, Note_on_c, 0, 77, 67
1, 216346, Note_off_c, 0, 79, 63
1, 216410, Note_on_c, 0, 79, 75
1, 216416, Note_off_c, 0, 77, 62
1, 216434, Note_on_c, 0, 65, 92
1, 216472, Note_on_c, 0, 77, 77
1, 216478, Note_off_c, 0, 65, 65
1, 216480, Note_off_c, 0, 79, 64
1, 216533, Note_on_c, 0, 79, 71
1, 216535, Note_off_c, 0, 77, 62
1, 216574, Note_on_c, 0, 68, 97
1, 216587, Note_on_c, 0, 77, 72
1, 216599, Note_off_c, 0, 79, 61
1, 216609, Note_off_c, 0, 68, 68
1, 216677, Note_off_c, 0, 77, 58
1, 216699, Note_on_c, 0, 76, 73
1, 216729, Note_on_c, 0, 58, 71
1, 216770, Note_on_c, 0, 77, 77
1, 216777, Note_off_c, 0, 58, 61
1, 216793, Note_off_c, 0, 76, 61
1, 216860, Note_on_c, 0, 82, 86
1, 216866, Note_off_c, 0, 77, 62
1, 216880, Note_on_c, 0, 68, 80
1, 216929, Note_off_c, 0, 68, 63
1, 216932, Note_off_c, 0, 82, 63
1, 217030, Note_on_c, 0, 82, 84
1, 217033, Note_on_c, 0, 58, 60
1, 217077, Note_off_c, 0, 58, 57
1, 217093, Note_off_c, 0, 82, 62
1, 217241, Note_on_c, 0, 63, 49
1, 217243, Note_on_c, 0, 67, 53
1, 217245, Note_on_c, 0, 75, 67
1, 217298, Note_off_c, 0, 75, 57
1, 217442, Note_on_c, 0, 75, 61
1, 217533, Note_off_c, 0, 67, 60
1, 217589, Note_off_c, 0, 63, 63
1, 217595, Note_on_c, 0, 76, 73
1, 217630, Note_off_c, 0, 75, 59
1, 217751, Note_on_c, 0, 77, 81
1, 217796, Note_off_c, 0, 76, 56
1, 217922, Note_on_c, 0, 78, 85
1, 217983, Note_off_c, 0, 77, 52
1, 218086, Note_on_c, 0, 79, 85
1, 218102, Note_off_c, 0, 78, 62
1, 218308, Note_on_c, 0, 80, 80
1, 218333, Note_on_c, 0, 63, 36
1, 218344, Note_off_c, 0, 79, 60
1, 218347, Note_on_c, 0, 60, 37
1, 218473, Control_c, 0, 64, 38
1, 218488, Control_c, 0, 64, 54
1, 218502, Control_c, 0, 64, 62
1, 218517, Control_c, 0, 64, 67
1, 218532, Control_c, 0, 64, 71
1, 218547, Control_c, 0, 64, 77
1, 218562, Control_c, 0, 64, 85
1, 218577, Control_c, 0, 64, 92
1, 218592, Control_c, 0, 64, 100
1, 218614, Control_c, 0, 64, 105
1, 218629, Control_c, 0, 64, 109
1, 218643, Control_c, 0, 64, 112
1, 218658, Control_c, 0, 64, 116
1, 218673, Control_c, 0, 64, 120
1, 218688, Control_c, 0, 64, 126
1, 218703, Control_c, 0, 64, 127
1, 218746, Note_off_c, 0, 63, 42
1, 218867, Note_off_c, 0, 60, 24
1, 218881, Control_c, 0, 67, 10
1, 218896, Control_c, 0, 67, 13
1, 218911, Control_c, 0, 67, 17
1, 218926, Control_c, 0, 67, 22
1, 218940, Control_c, 0, 67, 28
1, 218955, Control_c, 0, 64, 127
1, 218955, Control_c, 0, 67, 39
1, 218970, Control_c, 0, 64, 126
1, 218970, Control_c, 0, 67, 51
1, 218985, Control_c, 0, 64, 125
1, 218985, Control_c, 0, 67, 65
1, 219000, Control_c, 0, 67, 79
1, 219015, Control_c, 0, 64, 125
1, 219015, Control_c, 0, 67, 91
1, 219030, Control_c, 0, 64, 124
1, 219030, Control_c, 0, 67, 100
1, 219045, Control_c, 0, 67, 108
1, 219059, Control_c, 0, 64, 123
1, 219059, Control_c, 0, 67, 116
1, 219074, Control_c, 0, 67, 123
1, 219089, Control_c, 0, 64, 123
1, 219089, Control_c, 0, 67, 127
1, 219104, Control_c, 0, 64, 122
1, 219133, Control_c, 0, 64, 122
1, 219163, Control_c, 0, 64, 121
1, 219207, Control_c, 0, 64, 121
1, 219222, Control_c, 0, 64, 120
1, 219237, Control_c, 0, 64, 120
1, 219252, Control_c, 0, 64, 119
1, 219281, Control_c, 0, 64, 118
1, 219296, Control_c, 0, 64, 117
1, 219311, Control_c, 0, 64, 115
1, 219325, Control_c, 0, 64, 113
1, 219340, Control_c, 0, 64, 111
1, 219363, Control_c, 0, 64, 107
1, 219378, Control_c, 0, 64, 103
1, 219388, Note_on_c, 0, 72, 60
1, 219393, Control_c, 0, 64, 98
1, 219400, Note_on_c, 0, 56, 35
1, 219403, Note_on_c, 0, 65, 35
1, 219407, Control_c, 0, 64, 92
1, 219418, Note_on_c, 0, 68, 35
1, 219422, Control_c, 0, 64, 85
1, 219437, Control_c, 0, 64, 77
1, 219452, Control_c, 0, 64, 67
1, 219466, Control_c, 0, 64, 38
1, 219481, Control_c, 0, 64, 0
1, 219704, Control_c, 0, 64, 26
1, 219719, Control_c, 0, 64, 48
1, 219734, Control_c, 0, 64, 58
1, 219749, Control_c, 0, 64, 63
1, 219763, Control_c, 0, 64, 66
1, 219773, Note_off_c, 0, 80, 54
1, 219778, Control_c, 0, 64, 70
1, 219793, Control_c, 0, 64, 74
1, 219808, Control_c, 0, 64, 80
1, 219823, Control_c, 0, 64, 85
1, 219838, Control_c, 0, 64, 89
1, 219853, Control_c, 0, 64, 92
1, 219868, Control_c, 0, 64, 95
1, 219882, Control_c, 0, 64, 98
1, 219897, Control_c, 0, 64, 103
1, 219912, Control_c, 0, 64, 109
1, 219920, Note_off_c, 0, 65, 39
1, 219927, Control_c, 0, 64, 114
1, 219942, Control_c, 0, 64, 117
1, 219952, Note_off_c, 0, 56, 39
1, 219956, Control_c, 0, 64, 119
1, 219957, Note_off_c, 0, 68, 41
1, 219971, Control_c, 0, 64, 119
1, 219972, Note_off_c, 0, 72, 58
1, 220171, Control_c, 0, 64, 119
1, 220186, Control_c, 0, 64, 118
1, 220201, Control_c, 0, 64, 118
1, 220230, Control_c, 0, 64, 117
1, 220245, Control_c, 0, 64, 116
1, 220260, Control_c, 0, 64, 116
1, 220275, Control_c, 0, 64, 115
1, 220289, Control_c, 0, 64, 114
1, 220304, Control_c, 0, 64, 113
1, 220319, Control_c, 0, 64, 113
1, 220334, Control_c, 0, 64, 112
1, 220349, Control_c, 0, 64, 111
1, 220363, Control_c, 0, 64, 108
1, 220378, Control_c, 0, 64, 103
1, 220393, Control_c, 0, 64, 96
1, 220407, Control_c, 0, 64, 86
1, 220422, Control_c, 0, 64, 76
1, 220430, Note_on_c, 0, 75, 55
1, 220435, Note_on_c, 0, 58, 36
1, 220437, Control_c, 0, 64, 60
1, 220451, Note_on_c, 0, 68, 24
1, 220452, Control_c, 0, 64, 0
1, 220463, Note_on_c, 0, 65, 29
1, 220527, Control_c, 0, 64, 46
1, 220542, Control_c, 0, 64, 62
1, 220557, Control_c, 0, 64, 68
1, 220572, Control_c, 0, 64, 75
1, 220577, Note_on_c, 0, 74, 61
1, 220578, Note_off_c, 0, 75, 55
1, 220582, Note_off_c, 0, 58, 55
1, 220586, Control_c, 0, 64, 85
1, 220588, Note_off_c, 0, 65, 52
1, 220601, Control_c, 0, 64, 95
1, 220616, Control_c, 0, 64, 101
1, 220631, Control_c, 0, 64, 106
1, 220641, Note_off_c, 0, 74, 63
1, 220643, Note_off_c, 0, 68, 40
1, 220646, Control_c, 0, 64, 108
1, 220660, Control_c, 0, 64, 109
1, 220675, Control_c, 0, 64, 109
1, 220705, Control_c, 0, 64, 108
1, 220720, Control_c, 0, 64, 102
1, 220733, Note_on_c, 0, 75, 63
1, 220735, Control_c, 0, 64, 91
1, 220742, Note_on_c, 0, 58, 32
1, 220748, Note_on_c, 0, 68, 60
1, 220750, Control_c, 0, 64, 77
1, 220756, Note_on_c, 0, 74, 69
1, 220765, Control_c, 0, 64, 61
1, 220767, Note_on_c, 0, 65, 38
1, 220779, Control_c, 0, 64, 0
1, 220792, Note_off_c, 0, 75, 61
1, 220803, Note_off_c, 0, 68, 44
1, 220838, Control_c, 0, 64, 34
1, 220860, Control_c, 0, 64, 58
1, 220875, Control_c, 0, 64, 64
1, 220884, Note_off_c, 0, 65, 47
1, 220890, Control_c, 0, 64, 67
1, 220905, Note_on_c, 0, 72, 65
1, 220905, Control_c, 0, 64, 73
1, 220920, Control_c, 0, 64, 81
1, 220935, Control_c, 0, 64, 89
1, 220947, Note_off_c, 0, 74, 58
1, 220950, Control_c, 0, 64, 96
1, 220964, Control_c, 0, 64, 102
1, 220979, Control_c, 0, 64, 106
1, 220994, Control_c, 0, 64, 109
1, 221009, Control_c, 0, 64, 111
1, 221024, Control_c, 0, 64, 111
1, 221068, Control_c, 0, 64, 106
1, 221072, Note_on_c, 0, 74, 62
1, 221083, Control_c, 0, 64, 95
1, 221084, Note_on_c, 0, 65, 45
1, 221094, Note_off_c, 0, 72, 54
1, 221096, Note_on_c, 0, 68, 46
1, 221098, Control_c, 0, 64, 82
1, 221112, Control_c, 0, 64, 65
1, 221127, Control_c, 0, 64, 0
1, 221172, Control_c, 0, 64, 35
1, 221186, Control_c, 0, 64, 61
1, 221201, Control_c, 0, 64, 67
1, 221208, Note_off_c, 0, 68, 26
1, 221216, Control_c, 0, 64, 72
1, 221220, Note_off_c, 0, 65, 54
1, 221227, Note_off_c, 0, 74, 57
1, 221230, Control_c, 0, 64, 79
1, 221245, Note_on_c, 0, 62, 44
1, 221245, Control_c, 0, 64, 88
1, 221247, Note_off_c, 0, 58, 33
1, 221260, Control_c, 0, 64, 99
1, 221262, Note_on_c, 0, 77, 49
1, 221276, Control_c, 0, 64, 111
1, 221291, Control_c, 0, 64, 118
1, 221306, Control_c, 0, 64, 119
1, 221316, Note_off_c, 0, 62, 44
1, 221321, Control_c, 0, 64, 119
1, 221409, Control_c, 0, 64, 118
1, 221424, Control_c, 0, 64, 114
1, 221439, Control_c, 0, 64, 103
1, 221453, Control_c, 0, 64, 90
1, 221468, Control_c, 0, 64, 75
1, 221470, Note_on_c, 0, 63, 43
1, 221470, Note_off_c, 0, 77, 39
1, 221472, Note_on_c, 0, 75, 58
1, 221483, Control_c, 0, 64, 40
1, 221498, Note_on_c, 0, 67, 45
1, 221498, Control_c, 0, 64, 0
1, 221532, Note_off_c, 0, 75, 60
1, 221543, Control_c, 0, 64, 50
1, 221543, Control_c, 0, 67, 122
1, 221558, Control_c, 0, 64, 64
1, 221558, Control_c, 0, 67, 115
1, 221573, Control_c, 0, 64, 70
1, 221573, Control_c, 0, 67, 108
1, 221587, Control_c, 0, 64, 77
1, 221587, Control_c, 0, 67, 100
1, 221591, Note_off_c, 0, 63, 59
1, 221609, Control_c, 0, 64, 86
1, 221609, Control_c, 0, 67, 88
1, 221614, Note_off_c, 0, 67, 53
1, 221624, Control_c, 0, 64, 95
1, 221624, Control_c, 0, 67, 74
1, 221639, Control_c, 0, 64, 104
1, 221639, Control_c, 0, 67, 60
1, 221654, Control_c, 0, 64, 112
1, 221654, Control_c, 0, 67, 50
1, 221666, Note_on_c, 0, 51, 42
1, 221668, Control_c, 0, 64, 115
1, 221668, Control_c, 0, 67, 44
1, 221675, Note_on_c, 0, 63, 59
1, 221683, Control_c, 0, 67, 42
1, 221698, Control_c, 0, 67, 37
1, 221713, Control_c, 0, 67, 30
1, 221728, Control_c, 0, 67, 20
1, 221742, Control_c, 0, 64, 114
1, 221742, Control_c, 0, 67, 10
1, 221757, Control_c, 0, 64, 113
1, 221757, Control_c, 0, 67, 0
1, 221772, Control_c, 0, 64, 108
1, 221787, Control_c, 0, 64, 100
1, 221802, Control_c, 0, 64, 92
1, 221816, Note_on_c, 0, 52, 68
1, 221817, Control_c, 0, 64, 83
1, 221817, Note_on_c, 0, 64, 83
1, 221832, Control_c, 0, 64, 74
1, 221839, Note_off_c, 0, 63, 57
1, 221847, Control_c, 0, 64, 63
1, 221861, Control_c, 0, 64, 0
1, 221885, Note_off_c, 0, 51, 35
1, 221972, Note_on_c, 0, 53, 74
1, 221975, Note_on_c, 0, 65, 90
1, 221999, Note_off_c, 0, 52, 64
1, 222133, Note_on_c, 0, 54, 75
1, 222133, Note_on_c, 0, 66, 85
1, 222137, Note_off_c, 0, 64, 20
1, 222148, Note_off_c, 0, 53, 53
1, 222178, Note_off_c, 0, 65, 62
1, 222290, Note_on_c, 0, 67, 88
1, 222293, Note_on_c, 0, 55, 71
1, 222314, Note_off_c, 0, 66, 64
1, 222332, Note_off_c, 0, 54, 61
1, 222485, Note_on_c, 0, 56, 71
1, 222488, Note_on_c, 0, 68, 84
1, 222537, Note_off_c, 0, 67, 62
1, 222545, Note_off_c, 0, 55, 62
1, 222670, Control_c, 0, 64, 32
1, 222684, Control_c, 0, 64, 48
1, 222699, Control_c, 0, 64, 58
1, 222714, Control_c, 0, 64, 63
1, 222729, Control_c, 0, 64, 66
1, 222744, Control_c, 0, 64, 70
1, 222759, Control_c, 0, 64, 77
1, 222774, Control_c, 0, 64, 85
1, 222789, Control_c, 0, 64, 93
1, 222803, Control_c, 0, 64, 100
1, 222818, Control_c, 0, 64, 104
1, 222833, Control_c, 0, 64, 108
1, 222848, Control_c, 0, 64, 114
1, 222863, Control_c, 0, 64, 125
1, 222872, Note_off_c, 0, 56, 45
1, 222878, Control_c, 0, 64, 127
1, 222983, Note_off_c, 0, 68, 48
1, 222997, Control_c, 0, 67, 9
1, 223012, Control_c, 0, 67, 15
1, 223026, Control_c, 0, 67, 22
1, 223041, Control_c, 0, 67, 32
1, 223056, Control_c, 0, 67, 45
1, 223071, Control_c, 0, 67, 57
1, 223086, Control_c, 0, 67, 67
1, 223108, Control_c, 0, 67, 76
1, 223123, Control_c, 0, 67, 82
1, 223138, Control_c, 0, 67, 87
1, 223152, Control_c, 0, 67, 91
1, 223167, Control_c, 0, 67, 95
1, 223182, Control_c, 0, 67, 98
1, 223197, Control_c, 0, 67, 99
1, 223226, Control_c, 0, 67, 100
1, 223241, Control_c, 0, 67, 100
1, 223256, Control_c, 0, 67, 102
1, 223271, Control_c, 0, 67, 104
1, 223286, Control_c, 0, 67, 106
1, 223300, Control_c, 0, 67, 108
1, 223315, Control_c, 0, 67, 109
1, 223330, Control_c, 0, 67, 111
1, 223345, Control_c, 0, 67, 112
1, 223360, Control_c, 0, 67, 112
1, 223374, Control_c, 0, 67, 113
1, 223522, Control_c, 0, 67, 112
1, 223537, Control_c, 0, 67, 112
1, 223552, Control_c, 0, 67, 111
1, 223567, Control_c, 0, 67, 111
1, 223597, Control_c, 0, 67, 110
1, 223612, Control_c, 0, 64, 125
1, 223626, Control_c, 0, 64, 122
1, 223626, Control_c, 0, 67, 109
1, 223641, Control_c, 0, 64, 120
1, 223641, Control_c, 0, 67, 109
1, 223656, Control_c, 0, 64, 118
1, 223671, Control_c, 0, 64, 115
1, 223671, Control_c, 0, 67, 108
1, 223686, Control_c, 0, 64, 111
1, 223686, Control_c, 0, 67, 108
1, 223701, Control_c, 0, 64, 107
1, 223701, Control_c, 0, 67, 107
1, 223716, Note_on_c, 0, 60, 69
1, 223716, Control_c, 0, 64, 102
1, 223716, Control_c, 0, 67, 107
1, 223727, Note_on_c, 0, 48, 47
1, 223727, Note_on_c, 0, 56, 54
1, 223731, Control_c, 0, 64, 97
1, 223731, Control_c, 0, 67, 106
1, 223734, Note_on_c, 0, 44, 39
1, 223746, Control_c, 0, 64, 92
1, 223746, Control_c, 0, 67, 105
1, 223761, Control_c, 0, 64, 87
1, 223775, Control_c, 0, 64, 80
1, 223775, Control_c, 0, 67, 105
1, 223790, Control_c, 0, 64, 69
1, 223790, Control_c, 0, 67, 104
1, 223805, Control_c, 0, 64, 49
1, 223820, Control_c, 0, 64, 0
1, 223835, Control_c, 0, 67, 104
1, 223856, Control_c, 0, 67, 103
1, 224005, Control_c, 0, 67, 104
1, 224020, Control_c, 0, 67, 104
1, 224049, Control_c, 0, 64, 45
1, 224064, Control_c, 0, 64, 59
1, 224079, Control_c, 0, 64, 65
1, 224079, Control_c, 0, 67, 105
1, 224094, Control_c, 0, 64, 69
1, 224094, Control_c, 0, 67, 105
1, 224109, Control_c, 0, 64, 75
1, 224123, Control_c, 0, 64, 84
1, 224123, Control_c, 0, 67, 106
1, 224137, Control_c, 0, 64, 93
1, 224152, Control_c, 0, 64, 103
1, 224167, Control_c, 0, 64, 113
1, 224167, Control_c, 0, 67, 107
1, 224182, Control_c, 0, 64, 119
1, 224194, Note_off_c, 0, 48, 57
1, 224197, Control_c, 0, 64, 122
1, 224205, Note_off_c, 0, 56, 55
1, 224212, Control_c, 0, 64, 127
1, 224212, Control_c, 0, 67, 107
1, 224216, Note_off_c, 0, 60, 60
1, 224227, Control_c, 0, 64, 127
1, 224479, Control_c, 0, 64, 117
1, 224488, Note_on_c, 0, 61, 65
1, 224494, Control_c, 0, 64, 106
1, 224500, Note_on_c, 0, 49, 42
1, 224509, Control_c, 0, 64, 95
1, 224524, Control_c, 0, 64, 83
1, 224539, Control_c, 0, 64, 72
1, 224553, Control_c, 0, 64, 55
1, 224568, Control_c, 0, 64, 0
1, 224621, Control_c, 0, 64, 43
1, 224635, Control_c, 0, 64, 50
1, 224650, Control_c, 0, 64, 54
1, 224665, Control_c, 0, 64, 60
1, 224679, Control_c, 0, 64, 65
1, 224694, Control_c, 0, 64, 69
1, 224709, Control_c, 0, 64, 76
1, 224709, Control_c, 0, 67, 108
1, 224717, Note_on_c, 0, 51, 44
1, 224724, Control_c, 0, 64, 85
1, 224725, Note_on_c, 0, 63, 72
1, 224739, Control_c, 0, 64, 94
1, 224739, Control_c, 0, 67, 108
1, 224749, Note_off_c, 0, 61, 62
1, 224753, Control_c, 0, 64, 105
1, 224766, Note_off_c, 0, 51, 60
1, 224768, Control_c, 0, 64, 112
1, 224783, Control_c, 0, 64, 116
1, 224789, Note_off_c, 0, 49, 36
1, 224789, Note_off_c, 0, 44, 39
1, 224798, Control_c, 0, 64, 119
1, 224798, Control_c, 0, 67, 109
1, 224801, Note_off_c, 0, 63, 62
1, 224813, Control_c, 0, 64, 120
1, 224828, Control_c, 0, 64, 121
1, 224828, Control_c, 0, 67, 109
1, 224843, Control_c, 0, 64, 121
1, 224858, Control_c, 0, 64, 122
1, 224887, Control_c, 0, 64, 122
1, 224887, Control_c, 0, 67, 110
1, 225124, Control_c, 0, 64, 121
1, 225139, Control_c, 0, 64, 121
1, 225153, Control_c, 0, 64, 119
1, 225153, Control_c, 0, 67, 109
1, 225168, Control_c, 0, 64, 117
1, 225183, Control_c, 0, 64, 113
1, 225197, Control_c, 0, 64, 108
1, 225197, Control_c, 0, 67, 109
1, 225212, Control_c, 0, 64, 100
1, 225215, Note_on_c, 0, 44, 44
1, 225218, Note_on_c, 0, 46, 42
1, 225221, Note_on_c, 0, 65, 69
1, 225222, Note_on_c, 0, 37, 38
1, 225224, Note_on_c, 0, 56, 57
1, 225227, Control_c, 0, 64, 91
1, 225233, Note_on_c, 0, 49, 36
1, 225238, Note_on_c, 0, 53, 39
1, 225242, Control_c, 0, 64, 81
1, 225242, Control_c, 0, 67, 108
1, 225257, Control_c, 0, 64, 69
1, 225273, Control_c, 0, 64, 25
1, 225288, Control_c, 0, 64, 0
1, 225317, Control_c, 0, 67, 108
1, 225414, Control_c, 0, 64, 55
1, 225414, Control_c, 0, 67, 107
1, 225428, Control_c, 0, 64, 65
1, 225443, Control_c, 0, 64, 70
1, 225458, Control_c, 0, 64, 76
1, 225458, Control_c, 0, 67, 107
1, 225473, Control_c, 0, 64, 82
1, 225488, Control_c, 0, 64, 89
1, 225502, Control_c, 0, 64, 96
1, 225517, Control_c, 0, 64, 102
1, 225532, Control_c, 0, 64, 106
1, 225538, Note_on_c, 0, 58, 59
1, 225547, Control_c, 0, 64, 108
1, 225562, Control_c, 0, 64, 109
1, 225563, Note_off_c, 0, 56, 58
1, 225567, Note_off_c, 0, 58, 65
1, 225576, Control_c, 0, 64, 111
1, 225591, Control_c, 0, 64, 112
1, 225606, Control_c, 0, 64, 112
1, 225639, Note_on_c, 0, 58, 65
1, 225665, Control_c, 0, 67, 107
1, 225692, Note_off_c, 0, 58, 45
1, 225695, Control_c, 0, 67, 108
1, 225698, Poly_aftertouch_c, 0, 56, 127
1, 225710, Control_c, 0, 64, 112
1, 225710, Control_c, 0, 67, 109
1, 225725, Control_c, 0, 67, 109
1, 225740, Control_c, 0, 67, 110
1, 225754, Note_off_c, 0, 53, 42
1, 225755, Control_c, 0, 64, 111
1, 225755, Control_c, 0, 67, 110
1, 225755, Poly_aftertouch_c, 0, 56, 0
1, 225764, Note_off_c, 0, 49, 61
1, 225770, Control_c, 0, 67, 111
1, 225784, Control_c, 0, 67, 111
1, 225788, Note_off_c, 0, 46, 51
1, 225791, Note_off_c, 0, 44, 62
1, 225797, Note_off_c, 0, 37, 42
1, 225799, Control_c, 0, 64, 111
1, 225799, Control_c, 0, 67, 112
1, 225814, Control_c, 0, 67, 113
1, 225819, Note_off_c, 0, 65, 53
1, 225828, Control_c, 0, 67, 113
1, 225843, Control_c, 0, 67, 114
1, 225858, Control_c, 0, 67, 115
1, 225873, Control_c, 0, 64, 110
1, 225873, Control_c, 0, 67, 119
1, 225888, Control_c, 0, 64, 110
1, 225888, Control_c, 0, 67, 122
1, 225902, Control_c, 0, 64, 109
1, 225902, Control_c, 0, 67, 125
1, 225917, Control_c, 0, 64, 107
1, 225917, Control_c, 0, 67, 127
1, 225932, Control_c, 0, 64, 103
1, 225947, Control_c, 0, 64, 96
1, 225962, Control_c, 0, 64, 86
1, 225976, Control_c, 0, 64, 74
1, 225991, Control_c, 0, 64, 53
1, 226006, Control_c, 0, 64, 0
1, 226482, Note_on_c, 0, 65, 52
1, 226484, Note_on_c, 0, 37, 21
1, 226485, Note_on_c, 0, 56, 38
1, 226487, Note_on_c, 0, 44, 32
1, 226488, Note_on_c, 0, 49, 29
1, 226488, Control_c, 0, 64, 21
1, 226489, Note_on_c, 0, 46, 33
1, 226503, Control_c, 0, 64, 56
1, 226512, Note_on_c, 0, 53, 11
1, 226518, Control_c, 0, 64, 65
1, 226532, Control_c, 0, 64, 71
1, 226547, Control_c, 0, 64, 79
1, 226562, Control_c, 0, 64, 89
1, 226576, Control_c, 0, 64, 96
1, 226591, Control_c, 0, 64, 102
1, 226606, Control_c, 0, 64, 105
1, 226621, Control_c, 0, 64, 107
1, 226636, Control_c, 0, 64, 108
1, 226665, Control_c, 0, 64, 108
1, 226699, Note_off_c, 0, 65, 35
1, 226743, Note_on_c, 0, 58, 52
1, 226765, Note_off_c, 0, 58, 61
1, 226829, Note_off_c, 0, 56, 0
1, 226858, Note_on_c, 0, 58, 57
1, 226874, Poly_aftertouch_c, 0, 56, 127
1, 226890, Note_off_c, 0, 58, 56
1, 226937, Note_off_c, 0, 53, 41
1, 226946, Poly_aftertouch_c, 0, 56, 0
1, 226983, Note_off_c, 0, 49, 40
1, 226985, Control_c, 0, 64, 108
1, 226992, Note_off_c, 0, 37, 42
1, 227006, Note_off_c, 0, 46, 39
1, 227007, Note_off_c, 0, 44, 41
1, 227073, Control_c, 0, 64, 107
1, 227103, Control_c, 0, 64, 107
1, 227118, Control_c, 0, 64, 106
1, 227133, Control_c, 0, 64, 104
1, 227147, Control_c, 0, 64, 102
1, 227162, Control_c, 0, 64, 98
1, 227177, Control_c, 0, 64, 93
1, 227192, Control_c, 0, 64, 85
1, 227206, Control_c, 0, 64, 76
1, 227221, Control_c, 0, 64, 65
1, 227236, Control_c, 0, 64, 0
1, 227459, Control_c, 0, 64, 28
1, 227473, Control_c, 0, 64, 32
1, 227503, Control_c, 0, 64, 32
1, 227518, Control_c, 0, 64, 34
1, 227533, Control_c, 0, 64, 40
1, 227547, Control_c, 0, 64, 45
1, 227562, Control_c, 0, 64, 47
1, 227577, Control_c, 0, 64, 48
1, 227614, Control_c, 0, 64, 49
1, 227629, Control_c, 0, 64, 51
1, 227644, Control_c, 0, 64, 53
1, 227659, Control_c, 0, 64, 54
1, 227674, Control_c, 0, 64, 55
1, 227689, Control_c, 0, 64, 57
1, 227700, Note_on_c, 0, 58, 37
1, 227704, Control_c, 0, 64, 61
1, 227709, Note_on_c, 0, 49, 29
1, 227719, Note_on_c, 0, 53, 15
1, 227719, Control_c, 0, 64, 66
1, 227720, Note_on_c, 0, 56, 27
1, 227731, Note_on_c, 0, 37, 15
1, 227734, Control_c, 0, 64, 71
1, 227749, Control_c, 0, 64, 78
1, 227764, Control_c, 0, 64, 85
1, 227778, Control_c, 0, 64, 90
1, 227793, Control_c, 0, 64, 95
1, 227794, Note_off_c, 0, 37, 55
1, 227808, Control_c, 0, 64, 101
1, 227822, Control_c, 0, 64, 107
1, 227837, Control_c, 0, 64, 112
1, 227841, Note_off_c, 0, 58, 50
1, 227851, Note_off_c, 0, 49, 35
1, 227852, Control_c, 0, 64, 116
1, 227865, Note_off_c, 0, 56, 39
1, 227867, Control_c, 0, 64, 118
1, 227882, Control_c, 0, 64, 119
1, 227887, Note_off_c, 0, 53, 42
1, 227896, Control_c, 0, 64, 120
1, 228029, Control_c, 0, 64, 119
1, 228044, Control_c, 0, 64, 116
1, 228059, Control_c, 0, 64, 109
1, 228074, Control_c, 0, 64, 100
1, 228087, Note_on_c, 0, 58, 58
1, 228089, Control_c, 0, 64, 88
1, 228098, Note_on_c, 0, 56, 49
1, 228098, Note_on_c, 0, 49, 39
1, 228102, Note_on_c, 0, 37, 37
1, 228104, Control_c, 0, 64, 78
1, 228119, Control_c, 0, 64, 68
1, 228119, Note_on_c, 0, 53, 32
1, 228134, Control_c, 0, 64, 56
1, 228148, Control_c, 0, 64, 23
1, 228163, Control_c, 0, 64, 29
1, 228175, Note_off_c, 0, 37, 39
1, 228178, Control_c, 0, 64, 46
1, 228191, Note_off_c, 0, 49, 51
1, 228193, Control_c, 0, 64, 58
1, 228208, Control_c, 0, 64, 64
1, 228222, Control_c, 0, 64, 68
1, 228233, Note_off_c, 0, 53, 37
1, 228233, Note_off_c, 0, 56, 52
1, 228237, Control_c, 0, 64, 75
1, 228245, Note_off_c, 0, 58, 56
1, 228252, Control_c, 0, 64, 84
1, 228267, Control_c, 0, 64, 95
1, 228282, Control_c, 0, 64, 109
1, 228296, Control_c, 0, 64, 118
1, 228311, Control_c, 0, 64, 122
1, 228326, Control_c, 0, 64, 123
1, 228348, Control_c, 0, 64, 125
1, 228363, Control_c, 0, 64, 126
1, 228378, Control_c, 0, 64, 127
1, 228452, Control_c, 0, 64, 123
1, 228467, Control_c, 0, 64, 113
1, 228482, Control_c, 0, 64, 99
1, 228487, Note_on_c, 0, 58, 59
1, 228497, Control_c, 0, 64, 85
1, 228498, Note_on_c, 0, 56, 48
1, 228503, Note_on_c, 0, 49, 40
1, 228511, Note_on_c, 0, 37, 35
1, 228512, Control_c, 0, 64, 71
1, 228521, Note_on_c, 0, 53, 34
1, 228527, Control_c, 0, 64, 42
1, 228542, Control_c, 0, 64, 0
1, 228587, Control_c, 0, 64, 58
1, 228601, Control_c, 0, 64, 67
1, 228607, Note_off_c, 0, 56, 56
1, 228616, Control_c, 0, 64, 72
1, 228622, Note_off_c, 0, 37, 42
1, 228627, Note_off_c, 0, 53, 33
1, 228631, Control_c, 0, 64, 79
1, 228632, Note_off_c, 0, 58, 58
1, 228638, Note_off_c, 0, 49, 34
1, 228645, Control_c, 0, 64, 85
1, 228660, Control_c, 0, 64, 93
1, 228675, Control_c, 0, 64, 105
1, 228690, Control_c, 0, 64, 117
1, 228705, Control_c, 0, 64, 127
1, 228926, Control_c, 0, 64, 123
1, 228941, Control_c, 0, 64, 113
1, 228956, Control_c, 0, 64, 104
1, 228964, Note_on_c, 0, 59, 47
1, 228969, Note_on_c, 0, 56, 41
1, 228971, Control_c, 0, 64, 95
1, 228986, Control_c, 0, 64, 85
1, 228988, Note_on_c, 0, 38, 31
1, 228992, Note_on_c, 0, 50, 35
1, 228997, Note_on_c, 0, 53, 27
1, 229001, Control_c, 0, 64, 75
1, 229016, Control_c, 0, 64, 63
1, 229031, Control_c, 0, 64, 0
1, 229231, Control_c, 0, 64, 29
1, 229245, Control_c, 0, 64, 58
1, 229260, Control_c, 0, 64, 64
1, 229275, Control_c, 0, 64, 67
1, 229290, Control_c, 0, 64, 71
1, 229305, Control_c, 0, 64, 75
1, 229320, Control_c, 0, 64, 81
1, 229335, Control_c, 0, 64, 90
1, 229350, Control_c, 0, 64, 97
1, 229365, Control_c, 0, 64, 104
1, 229380, Control_c, 0, 64, 109
1, 229395, Control_c, 0, 64, 114
1, 229410, Control_c, 0, 64, 117
1, 229424, Control_c, 0, 64, 119
1, 229439, Control_c, 0, 64, 119
1, 229552, Note_off_c, 0, 38, 37
1, 229587, Control_c, 0, 64, 119
1, 229606, Note_off_c, 0, 53, 41
1, 229617, Control_c, 0, 64, 118
1, 229647, Control_c, 0, 64, 118
1, 229661, Control_c, 0, 64, 117
1, 229676, Note_off_c, 0, 50, 39
1, 229676, Control_c, 0, 64, 115
1, 229677, Note_off_c, 0, 56, 37
1, 229677, Note_off_c, 0, 59, 53
1, 229691, Control_c, 0, 64, 110
1, 229706, Control_c, 0, 64, 104
1, 229721, Control_c, 0, 64, 95
1, 229735, Control_c, 0, 64, 87
1, 229750, Control_c, 0, 64, 77
1, 229765, Control_c, 0, 64, 67
1, 229780, Control_c, 0, 64, 46
1, 229794, Control_c, 0, 64, 0
1, 230099, Control_c, 0, 64, 20
1, 230114, Control_c, 0, 64, 29
1, 230128, Control_c, 0, 64, 36
1, 230143, Control_c, 0, 64, 43
1, 230158, Control_c, 0, 64, 49
1, 230172, Control_c, 0, 64, 54
1, 230187, Control_c, 0, 64, 57
1, 230202, Control_c, 0, 64, 61
1, 230217, Control_c, 0, 64, 64
1, 230232, Control_c, 0, 64, 68
1, 230235, Note_on_c, 0, 71, 41
1, 230235, Note_on_c, 0, 68, 25
1, 230244, Note_on_c, 0, 62, 32
1, 230247, Control_c, 0, 64, 73
1, 230250, Note_on_c, 0, 65, 11
1, 230262, Control_c, 0, 64, 80
1, 230277, Control_c, 0, 64, 88
1, 230277, Control_c, 0, 67, 124
1, 230291, Control_c, 0, 64, 96
1, 230291, Control_c, 0, 67, 122
1, 230306, Control_c, 0, 64, 102
1, 230306, Control_c, 0, 67, 121
1, 230321, Control_c, 0, 64, 106
1, 230321, Control_c, 0, 67, 120
1, 230336, Control_c, 0, 64, 111
1, 230336, Control_c, 0, 67, 119
1, 230351, Control_c, 0, 64, 115
1, 230351, Control_c, 0, 67, 119
1, 230353, Note_off_c, 0, 62, 34
1, 230365, Control_c, 0, 64, 118
1, 230378, Note_off_c, 0, 65, 42
1, 230378, Note_off_c, 0, 71, 52
1, 230380, Control_c, 0, 64, 119
1, 230395, Control_c, 0, 64, 120
1, 230400, Note_off_c, 0, 68, 40
1, 230484, Control_c, 0, 67, 118
1, 230543, Control_c, 0, 64, 117
1, 230558, Control_c, 0, 64, 112
1, 230572, Control_c, 0, 64, 102
1, 230595, Control_c, 0, 64, 92
1, 230595, Control_c, 0, 67, 118
1, 230606, Note_on_c, 0, 71, 56
1, 230610, Control_c, 0, 64, 82
1, 230613, Note_on_c, 0, 62, 36
1, 230624, Control_c, 0, 64, 72
1, 230624, Control_c, 0, 67, 117
1, 230626, Note_on_c, 0, 68, 43
1, 230633, Note_on_c, 0, 65, 38
1, 230639, Control_c, 0, 64, 63
1, 230639, Control_c, 0, 67, 115
1, 230654, Control_c, 0, 64, 37
1, 230654, Control_c, 0, 67, 113
1, 230669, Control_c, 0, 64, 39
1, 230669, Control_c, 0, 67, 111
1, 230681, Note_off_c, 0, 65, 47
1, 230684, Control_c, 0, 64, 61
1, 230684, Control_c, 0, 67, 111
1, 230698, Control_c, 0, 64, 68
1, 230713, Control_c, 0, 64, 75
1, 230728, Control_c, 0, 64, 82
1, 230732, Note_off_c, 0, 62, 38
1, 230742, Control_c, 0, 64, 88
1, 230742, Control_c, 0, 67, 110
1, 230757, Control_c, 0, 64, 93
1, 230762, Note_off_c, 0, 71, 52
1, 230768, Note_off_c, 0, 68, 39
1, 230772, Control_c, 0, 64, 99
1, 230772, Control_c, 0, 67, 110
1, 230787, Control_c, 0, 64, 105
1, 230802, Control_c, 0, 64, 108
1, 230802, Control_c, 0, 67, 109
1, 230816, Control_c, 0, 64, 110
1, 230816, Control_c, 0, 67, 107
1, 230831, Control_c, 0, 64, 111
1, 230831, Control_c, 0, 67, 106
1, 230846, Control_c, 0, 64, 111
1, 230846, Control_c, 0, 67, 106
1, 230892, Control_c, 0, 67, 105
1, 230951, Control_c, 0, 64, 109
1, 230966, Control_c, 0, 64, 105
1, 230981, Control_c, 0, 64, 98
1, 230988, Note_on_c, 0, 71, 63
1, 230995, Control_c, 0, 64, 87
1, 231004, Note_on_c, 0, 65, 43
1, 231007, Note_on_c, 0, 62, 39
1, 231010, Control_c, 0, 64, 75
1, 231010, Control_c, 0, 67, 105
1, 231025, Control_c, 0, 64, 61
1, 231040, Control_c, 0, 64, 0
1, 231040, Control_c, 0, 67, 104
1, 231055, Control_c, 0, 67, 104
1, 231062, Note_off_c, 0, 62, 43
1, 231070, Control_c, 0, 67, 103
1, 231070, Poly_aftertouch_c, 0, 68, 127
1, 231085, Control_c, 0, 64, 58
1, 231094, Note_off_c, 0, 65, 37
1, 231100, Control_c, 0, 64, 65
1, 231114, Control_c, 0, 64, 70
1, 231117, Poly_aftertouch_c, 0, 68, 0
1, 231129, Control_c, 0, 64, 76
1, 231129, Control_c, 0, 67, 103
1, 231138, Note_off_c, 0, 71, 55
1, 231144, Control_c, 0, 64, 84
1, 231159, Control_c, 0, 64, 94
1, 231174, Control_c, 0, 64, 100
1, 231174, Control_c, 0, 67, 102
1, 231188, Control_c, 0, 64, 104
1, 231188, Control_c, 0, 67, 102
1, 231203, Control_c, 0, 64, 106
1, 231218, Control_c, 0, 64, 107
1, 231233, Control_c, 0, 64, 107
1, 231277, Control_c, 0, 64, 108
1, 231277, Control_c, 0, 67, 101
1, 231307, Control_c, 0, 67, 101
1, 231359, Control_c, 0, 67, 101
1, 231403, Control_c, 0, 64, 107
1, 231418, Control_c, 0, 64, 107
1, 231433, Control_c, 0, 64, 106
1, 231447, Control_c, 0, 64, 103
1, 231462, Control_c, 0, 64, 99
1, 231477, Control_c, 0, 64, 92
1, 231477, Control_c, 0, 67, 102
1, 231478, Note_on_c, 0, 72, 45
1, 231487, Note_on_c, 0, 63, 31
1, 231492, Control_c, 0, 64, 83
1, 231496, Note_on_c, 0, 68, 36
1, 231499, Note_on_c, 0, 66, 30
1, 231507, Control_c, 0, 64, 73
1, 231521, Control_c, 0, 64, 61
1, 231536, Control_c, 0, 64, 0
1, 231559, Note_off_c, 0, 63, 0
1, 231559, Note_on_c, 0, 63, 3
1, 231625, Control_c, 0, 67, 102
1, 231670, Control_c, 0, 64, 47
1, 231685, Control_c, 0, 64, 59
1, 231700, Control_c, 0, 64, 64
1, 231715, Control_c, 0, 64, 68
1, 231730, Control_c, 0, 64, 76
1, 231744, Control_c, 0, 64, 84
1, 231759, Control_c, 0, 64, 91
1, 231774, Control_c, 0, 64, 97
1, 231779, Note_off_c, 0, 63, 41
1, 231788, Control_c, 0, 64, 100
1, 231803, Control_c, 0, 64, 102
1, 231803, Control_c, 0, 67, 102
1, 231814, Note_off_c, 0, 72, 62
1, 231818, Control_c, 0, 64, 103
1, 231829, Note_off_c, 0, 66, 52
1, 231841, Note_off_c, 0, 68, 43
1, 231937, Control_c, 0, 64, 102
1, 231967, Control_c, 0, 64, 101
1, 231982, Control_c, 0, 64, 100
1, 231996, Control_c, 0, 64, 96
1, 232011, Control_c, 0, 64, 90
1, 232026, Control_c, 0, 64, 82
1, 232041, Control_c, 0, 64, 73
1, 232056, Control_c, 0, 64, 61
1, 232070, Control_c, 0, 64, 0
1, 232152, Control_c, 0, 67, 102
1, 232211, Control_c, 0, 67, 103
1, 232241, Control_c, 0, 67, 103
1, 232404, Control_c, 0, 67, 103
1, 232419, Control_c, 0, 64, 36
1, 232419, Control_c, 0, 67, 102
1, 232421, Note_on_c, 0, 39, 28
1, 232423, Note_on_c, 0, 60, 38
1, 232431, Note_on_c, 0, 51, 22
1, 232434, Control_c, 0, 64, 60
1, 232434, Control_c, 0, 67, 102
1, 232436, Note_on_c, 0, 54, 27
1, 232439, Note_on_c, 0, 56, 20
1, 232449, Control_c, 0, 64, 67
1, 232465, Control_c, 0, 64, 74
1, 232480, Control_c, 0, 64, 85
1, 232494, Control_c, 0, 64, 98
1, 232509, Control_c, 0, 64, 109
1, 232512, Note_off_c, 0, 56, 52
1, 232515, Note_off_c, 0, 54, 37
1, 232519, Note_off_c, 0, 39, 50
1, 232524, Control_c, 0, 64, 118
1, 232524, Control_c, 0, 67, 101
1, 232539, Control_c, 0, 64, 127
1, 232540, Note_off_c, 0, 51, 37
1, 232554, Control_c, 0, 67, 101
1, 232598, Control_c, 0, 67, 100
1, 232642, Control_c, 0, 67, 100
1, 232657, Control_c, 0, 67, 99
1, 232672, Control_c, 0, 67, 95
1, 232686, Control_c, 0, 67, 90
1, 232701, Control_c, 0, 67, 83
1, 232716, Control_c, 0, 67, 75
1, 232731, Control_c, 0, 64, 123
1, 232731, Control_c, 0, 67, 68
1, 232733, Note_off_c, 0, 60, 54
1, 232746, Control_c, 0, 64, 117
1, 232746, Control_c, 0, 67, 63
1, 232759, Note_on_c, 0, 40, 38
1, 232760, Control_c, 0, 64, 112
1, 232760, Control_c, 0, 67, 60
1, 232763, Note_on_c, 0, 61, 49
1, 232770, Note_on_c, 0, 56, 40
1, 232773, Note_on_c, 0, 52, 39
1, 232775, Control_c, 0, 64, 105
1, 232775, Control_c, 0, 67, 58
1, 232790, Control_c, 0, 64, 100
1, 232790, Control_c, 0, 67, 56
1, 232805, Control_c, 0, 64, 93
1, 232805, Control_c, 0, 67, 51
1, 232820, Control_c, 0, 64, 84
1, 232820, Control_c, 0, 67, 44
1, 232842, Control_c, 0, 64, 74
1, 232842, Control_c, 0, 67, 36
1, 232857, Control_c, 0, 64, 62
1, 232857, Control_c, 0, 67, 30
1, 232872, Control_c, 0, 64, 0
1, 232872, Control_c, 0, 67, 26
1, 232887, Control_c, 0, 67, 25
1, 232901, Control_c, 0, 67, 24
1, 232916, Control_c, 0, 67, 22
1, 232929, Note_off_c, 0, 40, 58
1, 232931, Control_c, 0, 67, 17
1, 232942, Note_off_c, 0, 56, 59
1, 232946, Control_c, 0, 67, 10
1, 232953, Note_off_c, 0, 52, 65
1, 232961, Control_c, 0, 67, 0
1, 232962, Note_off_c, 0, 61, 63
1, 233242, Control_c, 0, 64, 25
1, 233258, Control_c, 0, 64, 34
1, 233273, Control_c, 0, 64, 39
1, 233288, Control_c, 0, 64, 42
1, 233302, Control_c, 0, 64, 45
1, 233317, Control_c, 0, 64, 47
1, 233332, Control_c, 0, 64, 48
1, 233347, Control_c, 0, 64, 49
1, 233362, Control_c, 0, 64, 50
1, 233377, Control_c, 0, 64, 51
1, 233391, Control_c, 0, 64, 53
1, 233406, Control_c, 0, 64, 54
1, 233421, Control_c, 0, 64, 56
1, 233435, Control_c, 0, 64, 57
1, 233441, Note_on_c, 0, 73, 56
1, 233450, Control_c, 0, 64, 60
1, 233465, Control_c, 0, 64, 63
1, 233469, Note_on_c, 0, 64, 28
1, 233472, Note_on_c, 0, 68, 43
1, 233480, Control_c, 0, 64, 66
1, 233495, Control_c, 0, 64, 71
1, 233509, Control_c, 0, 64, 80
1, 233512, Note_off_c, 0, 64, 46
1, 233524, Control_c, 0, 64, 88
1, 233539, Control_c, 0, 64, 96
1, 233554, Control_c, 0, 64, 99
1, 233569, Control_c, 0, 64, 100
1, 233591, Control_c, 0, 64, 102
1, 233606, Control_c, 0, 64, 105
1, 233621, Control_c, 0, 64, 108
1, 233635, Control_c, 0, 64, 111
1, 233650, Control_c, 0, 64, 111
1, 233739, Control_c, 0, 64, 110
1, 233754, Control_c, 0, 64, 109
1, 233764, Note_off_c, 0, 73, 56
1, 233768, Control_c, 0, 64, 108
1, 233783, Control_c, 0, 64, 107
1, 233798, Control_c, 0, 64, 104
1, 233805, Note_on_c, 0, 74, 48
1, 233813, Control_c, 0, 64, 99
1, 233823, Note_on_c, 0, 65, 39
1, 233828, Control_c, 0, 64, 94
1, 233833, Note_on_c, 0, 71, 40
1, 233842, Control_c, 0, 64, 89
1, 233857, Control_c, 0, 64, 85
1, 233872, Control_c, 0, 64, 81
1, 233887, Control_c, 0, 64, 75
1, 233902, Control_c, 0, 64, 68
1, 233917, Control_c, 0, 64, 58
1, 233931, Control_c, 0, 64, 26
1, 233946, Control_c, 0, 64, 0
1, 234092, Note_off_c, 0, 65, 64
1, 234104, Note_off_c, 0, 74, 65
1, 234113, Note_off_c, 0, 68, 53
1, 234114, Note_off_c, 0, 71, 59
1, 234214, Control_c, 0, 64, 18
1, 234229, Control_c, 0, 64, 34
1, 234244, Control_c, 0, 64, 39
1, 234258, Control_c, 0, 64, 42
1, 234288, Control_c, 0, 64, 43
1, 234303, Control_c, 0, 64, 45
1, 234318, Control_c, 0, 64, 47
1, 234340, Control_c, 0, 64, 50
1, 234355, Control_c, 0, 64, 52
1, 234370, Control_c, 0, 64, 54
1, 234384, Control_c, 0, 64, 55
1, 234399, Control_c, 0, 64, 56
1, 234414, Control_c, 0, 64, 56
1, 234429, Control_c, 0, 64, 57
1, 234444, Control_c, 0, 64, 59
1, 234458, Control_c, 0, 64, 61
1, 234473, Control_c, 0, 64, 62
1, 234488, Control_c, 0, 64, 63
1, 234503, Control_c, 0, 64, 63
1, 234518, Control_c, 0, 64, 64
1, 234519, Note_on_c, 0, 41, 44
1, 234533, Control_c, 0, 64, 64
1, 234536, Note_on_c, 0, 62, 53
1, 234544, Note_on_c, 0, 53, 34
1, 234544, Note_on_c, 0, 56, 45
1, 234547, Control_c, 0, 64, 66
1, 234562, Control_c, 0, 64, 68
1, 234577, Control_c, 0, 64, 72
1, 234591, Control_c, 0, 64, 77
1, 234606, Control_c, 0, 64, 84
1, 234620, Control_c, 0, 64, 89
1, 234631, Note_off_c, 0, 56, 62
1, 234635, Control_c, 0, 64, 93
1, 234650, Control_c, 0, 64, 98
1, 234665, Note_off_c, 0, 53, 36
1, 234665, Control_c, 0, 64, 104
1, 234675, Note_off_c, 0, 41, 44
1, 234680, Control_c, 0, 64, 111
1, 234695, Control_c, 0, 64, 118
1, 234709, Control_c, 0, 64, 122
1, 234724, Control_c, 0, 64, 125
1, 234739, Control_c, 0, 64, 126
1, 234754, Control_c, 0, 64, 127
1, 234870, Note_on_c, 0, 54, 54
1, 234873, Control_c, 0, 64, 127
1, 234874, Note_on_c, 0, 58, 59
1, 234875, Note_on_c, 0, 63, 67
1, 234888, Control_c, 0, 64, 120
1, 234894, Note_on_c, 0, 42, 42
1, 234903, Control_c, 0, 64, 113
1, 234918, Control_c, 0, 64, 106
1, 234933, Control_c, 0, 64, 100
1, 234948, Control_c, 0, 64, 93
1, 234955, Note_off_c, 0, 62, 51
1, 234962, Control_c, 0, 64, 85
1, 234977, Control_c, 0, 64, 76
1, 234992, Control_c, 0, 64, 66
1, 235006, Control_c, 0, 64, 37
1, 235021, Control_c, 0, 64, 0
1, 235085, Note_off_c, 0, 42, 64
1, 235088, Note_off_c, 0, 58, 66
1, 235123, Note_off_c, 0, 63, 66
1, 235129, Note_off_c, 0, 54, 61
1, 235399, Control_c, 0, 64, 13
1, 235413, Control_c, 0, 64, 17
1, 235428, Control_c, 0, 64, 18
1, 235443, Control_c, 0, 64, 20
1, 235458, Control_c, 0, 64, 29
1, 235473, Control_c, 0, 64, 39
1, 235487, Control_c, 0, 64, 45
1, 235489, Note_on_c, 0, 66, 54
1, 235502, Control_c, 0, 64, 48
1, 235511, Note_on_c, 0, 75, 73
1, 235517, Note_on_c, 0, 70, 60
1, 235517, Control_c, 0, 64, 51
1, 235532, Control_c, 0, 64, 58
1, 235547, Control_c, 0, 64, 65
1, 235562, Control_c, 0, 64, 73
1, 235577, Control_c, 0, 64, 84
1, 235582, Note_off_c, 0, 66, 60
1, 235592, Control_c, 0, 64, 95
1, 235606, Control_c, 0, 64, 102
1, 235621, Control_c, 0, 64, 106
1, 235636, Control_c, 0, 64, 110
1, 235651, Control_c, 0, 64, 113
1, 235666, Control_c, 0, 64, 116
1, 235681, Control_c, 0, 64, 116
1, 235785, Control_c, 0, 64, 115
1, 235800, Control_c, 0, 64, 113
1, 235815, Control_c, 0, 64, 111
1, 235836, Control_c, 0, 64, 108
1, 235851, Control_c, 0, 64, 103
1, 235860, Note_on_c, 0, 76, 70
1, 235866, Control_c, 0, 64, 97
1, 235868, Note_on_c, 0, 73, 68
1, 235875, Note_on_c, 0, 67, 52
1, 235881, Control_c, 0, 64, 89
1, 235896, Note_off_c, 0, 75, 63
1, 235896, Control_c, 0, 64, 80
1, 235911, Control_c, 0, 64, 68
1, 235926, Control_c, 0, 64, 13
1, 235941, Control_c, 0, 64, 0
1, 236030, Control_c, 0, 64, 56
1, 236044, Control_c, 0, 64, 66
1, 236059, Control_c, 0, 64, 75
1, 236074, Control_c, 0, 64, 86
1, 236089, Control_c, 0, 64, 98
1, 236104, Control_c, 0, 64, 105
1, 236119, Control_c, 0, 64, 108
1, 236123, Note_off_c, 0, 67, 62
1, 236129, Note_off_c, 0, 76, 66
1, 236134, Control_c, 0, 64, 109
1, 236157, Note_off_c, 0, 70, 63
1, 236162, Note_off_c, 0, 73, 60
1, 236237, Control_c, 0, 64, 107
1, 236252, Control_c, 0, 64, 102
1, 236267, Control_c, 0, 64, 94
1, 236282, Control_c, 0, 64, 84
1, 236297, Control_c, 0, 64, 72
1, 236311, Control_c, 0, 64, 36
1, 236326, Control_c, 0, 64, 0
1, 236520, Control_c, 0, 64, 42
1, 236534, Control_c, 0, 64, 57
1, 236549, Control_c, 0, 64, 62
1, 236564, Control_c, 0, 64, 64
1, 236582, Note_on_c, 0, 64, 52
1, 236586, Control_c, 0, 64, 67
1, 236587, Note_on_c, 0, 58, 48
1, 236589, Note_on_c, 0, 43, 42
1, 236591, Note_on_c, 0, 61, 52
1, 236601, Note_on_c, 0, 55, 49
1, 236601, Control_c, 0, 64, 73
1, 236616, Control_c, 0, 64, 81
1, 236631, Control_c, 0, 64, 88
1, 236646, Control_c, 0, 64, 96
1, 236660, Control_c, 0, 64, 102
1, 236673, Note_off_c, 0, 43, 52
1, 236675, Control_c, 0, 64, 107
1, 236690, Control_c, 0, 64, 111
1, 236704, Note_off_c, 0, 55, 61
1, 236705, Control_c, 0, 64, 119
1, 236720, Control_c, 0, 64, 127
1, 236752, Note_off_c, 0, 61, 60
1, 236773, Note_off_c, 0, 58, 63
1, 236807, Note_off_c, 0, 64, 64
1, 237046, Control_c, 0, 64, 113
1, 237054, Note_on_c, 0, 56, 45
1, 237060, Control_c, 0, 64, 100
1, 237067, Note_on_c, 0, 65, 68
1, 237068, Note_on_c, 0, 60, 57
1, 237072, Note_on_c, 0, 44, 44
1, 237075, Control_c, 0, 64, 88
1, 237090, Control_c, 0, 64, 74
1, 237105, Control_c, 0, 64, 60
1, 237120, Control_c, 0, 64, 0
1, 237164, Control_c, 0, 64, 49
1, 237178, Control_c, 0, 64, 63
1, 237193, Control_c, 0, 64, 68
1, 237208, Control_c, 0, 64, 74
1, 237223, Control_c, 0, 64, 83
1, 237238, Control_c, 0, 64, 93
1, 237240, Note_off_c, 0, 44, 54
1, 237254, Control_c, 0, 64, 106
1, 237262, Note_off_c, 0, 56, 58
1, 237266, Note_off_c, 0, 60, 55
1, 237269, Control_c, 0, 64, 126
1, 237283, Control_c, 0, 64, 127
1, 237299, Note_off_c, 0, 65, 55
1, 237478, Note_on_c, 0, 56, 62
1, 237482, Note_on_c, 0, 44, 53
1, 237485, Note_on_c, 0, 65, 83
1, 237485, Note_on_c, 0, 60, 80
1, 237498, Control_c, 0, 64, 103
1, 237513, Control_c, 0, 64, 87
1, 237528, Control_c, 0, 64, 74
1, 237543, Control_c, 0, 64, 61
1, 237557, Control_c, 0, 64, 32
1, 237572, Control_c, 0, 64, 53
1, 237587, Control_c, 0, 64, 65
1, 237602, Control_c, 0, 64, 72
1, 237616, Control_c, 0, 64, 82
1, 237631, Control_c, 0, 64, 91
1, 237646, Control_c, 0, 64, 99
1, 237652, Note_off_c, 0, 44, 36
1, 237654, Note_off_c, 0, 56, 59
1, 237661, Control_c, 0, 64, 108
1, 237676, Control_c, 0, 64, 117
1, 237690, Control_c, 0, 64, 127
1, 237693, Note_off_c, 0, 60, 54
1, 237711, Note_off_c, 0, 65, 54
1, 237898, Control_c, 0, 64, 117
1, 237899, Note_on_c, 0, 65, 88
1, 237901, Note_on_c, 0, 56, 75
1, 237904, Note_on_c, 0, 60, 86
1, 237908, Note_on_c, 0, 44, 66
1, 237913, Control_c, 0, 64, 99
1, 237927, Control_c, 0, 64, 85
1, 237942, Control_c, 0, 64, 70
1, 237957, Control_c, 0, 64, 50
1, 237972, Control_c, 0, 64, 0
1, 238001, Control_c, 0, 64, 58
1, 238016, Control_c, 0, 64, 68
1, 238031, Control_c, 0, 64, 80
1, 238047, Control_c, 0, 64, 91
1, 238051, Note_off_c, 0, 56, 56
1, 238062, Control_c, 0, 64, 102
1, 238077, Control_c, 0, 64, 114
1, 238099, Control_c, 0, 64, 127
1, 238111, Note_off_c, 0, 44, 32
1, 238126, Note_off_c, 0, 60, 53
1, 238167, Note_off_c, 0, 65, 57
1, 238418, Note_on_c, 0, 57, 65
1, 238423, Note_on_c, 0, 60, 77
1, 238424, Control_c, 0, 64, 114
1, 238424, Note_on_c, 0, 66, 93
1, 238426, Note_on_c, 0, 63, 80
1, 238427, Note_on_c, 0, 45, 57
1, 238438, Control_c, 0, 64, 100
1, 238453, Control_c, 0, 64, 88
1, 238468, Control_c, 0, 64, 75
1, 238483, Control_c, 0, 64, 62
1, 238498, Control_c, 0, 64, 0
1, 238645, Control_c, 0, 64, 35
1, 238660, Control_c, 0, 64, 55
1, 238675, Control_c, 0, 64, 63
1, 238690, Control_c, 0, 64, 66
1, 238704, Control_c, 0, 64, 73
1, 238719, Control_c, 0, 64, 81
1, 238734, Control_c, 0, 64, 93
1, 238749, Control_c, 0, 64, 111
1, 238763, Control_c, 0, 64, 127
1, 239228, Note_off_c, 0, 45, 54
1, 239255, Note_off_c, 0, 60, 44
1, 239277, Note_off_c, 0, 63, 32
1, 239313, Note_off_c, 0, 57, 60
1, 239339, Note_off_c, 0, 66, 54
1, 240153, Note_on_c, 0, 72, 42
1, 240155, Note_on_c, 0, 78, 72
1, 240156, Note_on_c, 0, 75, 60
1, 240160, Note_on_c, 0, 69, 41
1, 240173, Control_c, 0, 64, 108
1, 240188, Control_c, 0, 64, 93
1, 240203, Control_c, 0, 64, 80
1, 240218, Control_c, 0, 64, 67
1, 240233, Control_c, 0, 64, 0
1, 240277, Control_c, 0, 64, 51
1, 240292, Control_c, 0, 64, 63
1, 240307, Control_c, 0, 64, 67
1, 240328, Control_c, 0, 64, 72
1, 240343, Control_c, 0, 64, 80
1, 240358, Control_c, 0, 64, 89
1, 240373, Control_c, 0, 64, 100
1, 240388, Control_c, 0, 64, 114
1, 240403, Control_c, 0, 64, 127
1, 240421, Note_off_c, 0, 75, 63
1, 240427, Note_off_c, 0, 72, 60
1, 240440, Note_off_c, 0, 78, 58
1, 240444, Note_off_c, 0, 69, 56
1, 240698, Note_on_c, 0, 69, 65
1, 240698, Note_on_c, 0, 72, 74
1, 240699, Control_c, 0, 64, 118
1, 240701, Note_on_c, 0, 78, 96
1, 240704, Note_on_c, 0, 75, 85
1, 240714, Control_c, 0, 64, 99
1, 240729, Control_c, 0, 64, 85
1, 240744, Control_c, 0, 64, 73
1, 240758, Control_c, 0, 64, 63
1, 240773, Control_c, 0, 64, 48
1, 240788, Control_c, 0, 64, 56
1, 240803, Control_c, 0, 64, 64
1, 240817, Control_c, 0, 64, 72
1, 240832, Control_c, 0, 64, 82
1, 240847, Control_c, 0, 64, 94
1, 240862, Control_c, 0, 64, 106
1, 240877, Control_c, 0, 64, 120
1, 240892, Control_c, 0, 64, 127
1, 240942, Note_off_c, 0, 72, 59
1, 240952, Note_off_c, 0, 75, 61
1, 240980, Note_off_c, 0, 69, 59
1, 240981, Note_off_c, 0, 78, 61
1, 241280, Note_on_c, 0, 78, 93
1, 241282, Note_on_c, 0, 72, 77
1, 241282, Note_on_c, 0, 75, 87
1, 241286, Note_on_c, 0, 69, 73
1, 241439, Note_off_c, 0, 72, 60
1, 241465, Note_off_c, 0, 69, 59
1, 241503, Note_off_c, 0, 75, 62
1, 241520, Note_off_c, 0, 78, 59
1, 242227, Note_on_c, 0, 70, 75
1, 242238, Note_on_c, 0, 79, 86
1, 242239, Note_on_c, 0, 75, 86
1, 242257, Control_c, 0, 64, 116
1, 242272, Control_c, 0, 64, 98
1, 242287, Control_c, 0, 64, 86
1, 242302, Control_c, 0, 64, 77
1, 242317, Control_c, 0, 64, 69
1, 242332, Control_c, 0, 64, 63
1, 242346, Control_c, 0, 64, 55
1, 242361, Control_c, 0, 64, 57
1, 242376, Control_c, 0, 64, 62
1, 242391, Control_c, 0, 64, 66
1, 242405, Control_c, 0, 64, 70
1, 242420, Control_c, 0, 64, 76
1, 242435, Control_c, 0, 64, 81
1, 242450, Control_c, 0, 64, 87
1, 242465, Control_c, 0, 64, 96
1, 242479, Control_c, 0, 64, 117
1, 242494, Control_c, 0, 64, 127
1, 243681, Control_c, 0, 67, 9
1, 243696, Control_c, 0, 67, 10
1, 243711, Control_c, 0, 67, 12
1, 243725, Control_c, 0, 67, 17
1, 243740, Control_c, 0, 67, 23
1, 243755, Control_c, 0, 67, 31
1, 243769, Control_c, 0, 67, 37
1, 243784, Control_c, 0, 67, 42
1, 243799, Control_c, 0, 67, 47
1, 243814, Control_c, 0, 67, 52
1, 243829, Control_c, 0, 67, 59
1, 243843, Control_c, 0, 67, 65
1, 243858, Control_c, 0, 67, 70
1, 243873, Control_c, 0, 67, 74
1, 243888, Control_c, 0, 67, 77
1, 243903, Control_c, 0, 67, 80
1, 243917, Control_c, 0, 67, 83
1, 243932, Control_c, 0, 67, 90
1, 243947, Control_c, 0, 67, 97
1, 243962, Control_c, 0, 67, 104
1, 243977, Control_c, 0, 67, 110
1, 243992, Control_c, 0, 67, 115
1, 244007, Control_c, 0, 67, 119
1, 244022, Control_c, 0, 67, 122
1, 244037, Control_c, 0, 67, 122
1, 244073, Control_c, 0, 67, 123
1, 244102, Control_c, 0, 67, 123
1, 244191, Note_off_c, 0, 70, 6
1, 244192, Control_c, 0, 67, 124
1, 244325, Control_c, 0, 67, 123
1, 244399, Control_c, 0, 67, 123
1, 244414, Control_c, 0, 67, 122
1, 244464, Note_off_c, 0, 79, 55
1, 244499, Note_off_c, 0, 75, 61
1, 244504, Control_c, 0, 67, 121
1, 244519, Control_c, 0, 67, 120
1, 244534, Control_c, 0, 67, 119
1, 244548, Control_c, 0, 64, 116
1, 244548, Control_c, 0, 67, 118
1, 244563, Control_c, 0, 64, 99
1, 244563, Control_c, 0, 67, 117
1, 244578, Control_c, 0, 64, 83
1, 244578, Control_c, 0, 67, 115
1, 244592, Control_c, 0, 64, 68
1, 244607, Control_c, 0, 64, 0
1, 244607, Control_c, 0, 67, 115
1, 244652, Control_c, 0, 67, 115
1, 244711, Control_c, 0, 67, 116
1, 244726, Control_c, 0, 67, 116
1, 244740, Control_c, 0, 67, 117
1, 244755, Control_c, 0, 67, 118
1, 244800, Control_c, 0, 67, 118
1, 244822, Control_c, 0, 67, 119
1, 244837, Control_c, 0, 67, 120
1, 244970, Control_c, 0, 67, 119
1, 244985, Control_c, 0, 67, 119
1, 245014, Control_c, 0, 67, 118
1, 245074, Control_c, 0, 67, 118
1, 245089, Control_c, 0, 67, 117
1, 245103, Control_c, 0, 67, 116
1, 245117, Control_c, 0, 67, 116
1, 245134, Note_on_c, 0, 67, 54
1, 245147, Note_on_c, 0, 62, 43
1, 245150, Note_on_c, 0, 56, 33
1, 245151, Note_on_c, 0, 46, 61
1, 245160, Note_on_c, 0, 34, 49
1, 245181, Note_off_c, 0, 46, 64
1, 245187, Note_off_c, 0, 34, 56
1, 245200, Note_off_c, 0, 62, 58
1, 245206, Note_off_c, 0, 56, 42
1, 245221, Note_off_c, 0, 67, 45
1, 245265, Note_on_c, 0, 65, 55
1, 245296, Control_c, 0, 67, 116
1, 245307, Note_off_c, 0, 65, 63
1, 245385, Control_c, 0, 67, 115
1, 245400, Control_c, 0, 67, 115
1, 245408, Note_on_c, 0, 46, 64
1, 245414, Note_on_c, 0, 65, 62
1, 245414, Control_c, 0, 67, 114
1, 245420, Note_on_c, 0, 34, 41
1, 245420, Note_on_c, 0, 56, 54
1, 245436, Note_off_c, 0, 46, 63
1, 245445, Note_off_c, 0, 56, 63
1, 245454, Note_off_c, 0, 34, 43
1, 245468, Note_off_c, 0, 65, 61
1, 245482, Note_on_c, 0, 67, 59
1, 245503, Control_c, 0, 67, 115
1, 245528, Note_off_c, 0, 67, 58
1, 245529, Note_on_c, 0, 65, 53
1, 245548, Control_c, 0, 67, 115
1, 245585, Control_c, 0, 67, 116
1, 245602, Note_on_c, 0, 64, 61
1, 245606, Note_off_c, 0, 65, 64
1, 245644, Control_c, 0, 67, 115
1, 245659, Control_c, 0, 67, 114
1, 245678, Note_off_c, 0, 64, 61
1, 245683, Note_on_c, 0, 65, 61
1, 245685, Note_on_c, 0, 34, 49
1, 245685, Note_on_c, 0, 56, 57
1, 245685, Note_on_c, 0, 46, 58
1, 245709, Note_off_c, 0, 46, 57
1, 245712, Note_off_c, 0, 34, 56
1, 245714, Note_off_c, 0, 56, 64
1, 245816, Note_on_c, 0, 67, 59
1, 245816, Note_off_c, 0, 65, 37
1, 245859, Note_off_c, 0, 67, 59
1, 245897, Control_c, 0, 67, 113
1, 245912, Control_c, 0, 67, 113
1, 245927, Control_c, 0, 67, 112
1, 245941, Control_c, 0, 67, 111
1, 245956, Control_c, 0, 67, 110
1, 245969, Note_on_c, 0, 51, 48
1, 245971, Note_on_c, 0, 63, 65
1, 245974, Note_on_c, 0, 39, 43
1, 245989, Note_on_c, 0, 55, 35
1, 246021, Note_off_c, 0, 63, 57
1, 246022, Note_off_c, 0, 55, 49
1, 246045, Note_on_c, 0, 65, 63
1, 246061, Control_c, 0, 67, 110
1, 246091, Control_c, 0, 67, 109
1, 246114, Note_off_c, 0, 65, 64
1, 246120, Control_c, 0, 67, 108
1, 246122, Note_on_c, 0, 63, 69
1, 246135, Control_c, 0, 67, 108
1, 246162, Note_off_c, 0, 63, 62
1, 246180, Note_on_c, 0, 62, 65
1, 246209, Control_c, 0, 67, 108
1, 246216, Note_off_c, 0, 51, 59
1, 246225, Note_off_c, 0, 39, 55
1, 246240, Note_off_c, 0, 62, 61
1, 246242, Note_on_c, 0, 63, 65
1, 246283, Control_c, 0, 67, 109
1, 246284, Note_off_c, 0, 63, 65
1, 246310, Note_on_c, 0, 64, 70
1, 246361, Note_off_c, 0, 64, 59
1, 246388, Note_on_c, 0, 65, 68
1, 246416, Note_off_c, 0, 65, 67
1, 246424, Control_c, 0, 67, 108
1, 246430, Note_on_c, 0, 66, 73
1, 246438, Control_c, 0, 67, 107
1, 246472, Note_off_c, 0, 66, 66
1, 246483, Control_c, 0, 67, 107
1, 246501, Note_on_c, 0, 67, 67
1, 246527, Control_c, 0, 67, 106
1, 246538, Note_off_c, 0, 67, 60
1, 246542, Control_c, 0, 67, 106
1, 246548, Note_on_c, 0, 68, 73
1, 246557, Control_c, 0, 67, 104
1, 246571, Control_c, 0, 67, 102
1, 246576, Note_off_c, 0, 68, 63
1, 246586, Control_c, 0, 67, 101
1, 246614, Note_on_c, 0, 69, 73
1, 246616, Control_c, 0, 67, 101
1, 246631, Control_c, 0, 67, 100
1, 246642, Note_off_c, 0, 69, 64
1, 246645, Control_c, 0, 67, 98
1, 246660, Note_on_c, 0, 70, 69
1, 246660, Control_c, 0, 67, 95
1, 246675, Control_c, 0, 67, 93
1, 246685, Note_off_c, 0, 70, 68
1, 246690, Control_c, 0, 67, 88
1, 246705, Control_c, 0, 67, 82
1, 246719, Control_c, 0, 67, 75
1, 246720, Note_on_c, 0, 71, 75
1, 246734, Control_c, 0, 67, 69
1, 246749, Control_c, 0, 67, 65
1, 246763, Note_off_c, 0, 71, 57
1, 246764, Control_c, 0, 67, 63
1, 246778, Note_on_c, 0, 72, 67
1, 246779, Control_c, 0, 67, 60
1, 246794, Control_c, 0, 67, 53
1, 246809, Control_c, 0, 67, 45
1, 246816, Note_on_c, 0, 73, 70
1, 246821, Note_off_c, 0, 72, 65
1, 246824, Control_c, 0, 67, 37
1, 246839, Control_c, 0, 67, 30
1, 246854, Control_c, 0, 67, 24
1, 246861, Note_off_c, 0, 73, 65
1, 246869, Control_c, 0, 67, 18
1, 246880, Note_on_c, 0, 74, 71
1, 246883, Control_c, 0, 67, 12
1, 246898, Control_c, 0, 67, 0
1, 246918, Note_off_c, 0, 74, 64
1, 246925, Note_on_c, 0, 75, 75
1, 246961, Note_off_c, 0, 75, 66
1, 246988, Note_on_c, 0, 76, 75
1, 247034, Note_off_c, 0, 76, 62
1, 247054, Note_on_c, 0, 77, 69
1, 247095, Note_on_c, 0, 78, 74
1, 247095, Note_off_c, 0, 77, 59
1, 247143, Note_off_c, 0, 78, 64
1, 247161, Note_on_c, 0, 79, 74
1, 247202, Note_off_c, 0, 79, 63
1, 247204, Note_on_c, 0, 80, 82
1, 247241, Note_off_c, 0, 80, 64
1, 247265, Note_on_c, 0, 81, 83
1, 247297, Note_off_c, 0, 81, 61
1, 247301, Note_on_c, 0, 82, 85
1, 247353, Note_off_c, 0, 82, 65
1, 247357, Note_on_c, 0, 83, 92
1, 247395, Note_off_c, 0, 83, 62
1, 247454, Control_c, 0, 67, 19
1, 247468, Control_c, 0, 67, 40
1, 247483, Control_c, 0, 67, 57
1, 247498, Control_c, 0, 67, 73
1, 247512, Control_c, 0, 67, 87
1, 247527, Control_c, 0, 67, 98
1, 247542, Control_c, 0, 67, 104
1, 247547, Note_on_c, 0, 84, 79
1, 247557, Control_c, 0, 67, 107
1, 247561, Note_on_c, 0, 75, 47
1, 247563, Note_on_c, 0, 68, 35
1, 247567, Note_on_c, 0, 72, 42
1, 247572, Control_c, 0, 64, 51
1, 247572, Control_c, 0, 67, 108
1, 247587, Control_c, 0, 64, 62
1, 247587, Control_c, 0, 67, 112
1, 247602, Control_c, 0, 64, 64
1, 247602, Control_c, 0, 67, 117
1, 247617, Control_c, 0, 67, 125
1, 247632, Control_c, 0, 64, 62
1, 247632, Control_c, 0, 67, 127
1, 247647, Control_c, 0, 64, 57
1, 247662, Control_c, 0, 64, 38
1, 247677, Control_c, 0, 64, 0
1, 247776, Note_on_c, 0, 77, 62
1, 247802, Note_off_c, 0, 77, 64
1, 247803, Note_off_c, 0, 84, 52
1, 247873, Note_on_c, 0, 77, 59
1, 247994, Note_off_c, 0, 77, 61
1, 248007, Note_off_c, 0, 75, 64
1, 248013, Note_off_c, 0, 72, 66
1, 248023, Note_off_c, 0, 68, 59
1, 248428, Note_on_c, 0, 71, 48
1, 248490, Note_off_c, 0, 71, 57
1, 248508, Note_on_c, 0, 72, 65
1, 248520, Note_on_c, 0, 60, 31
1, 248523, Note_on_c, 0, 63, 38
1, 248526, Note_on_c, 0, 56, 24
1, 248747, Note_on_c, 0, 65, 51
1, 248753, Note_off_c, 0, 72, 54
1, 248768, Note_off_c, 0, 65, 61
1, 248839, Note_on_c, 0, 65, 47
1, 248887, Note_off_c, 0, 65, 0
1, 248887, Note_on_c, 0, 65, 10
1, 249030, Note_off_c, 0, 63, 61
1, 249050, Note_off_c, 0, 65, 61
1, 249051, Note_off_c, 0, 60, 61
1, 249071, Note_off_c, 0, 56, 59
1, 249293, Control_c, 0, 64, 21
1, 249315, Control_c, 0, 64, 31
1, 249330, Control_c, 0, 64, 37
1, 249345, Control_c, 0, 64, 41
1, 249360, Control_c, 0, 64, 44
1, 249375, Control_c, 0, 64, 47
1, 249389, Control_c, 0, 64, 48
1, 249404, Control_c, 0, 64, 50
1, 249419, Control_c, 0, 64, 52
1, 249434, Control_c, 0, 64, 55
1, 249449, Control_c, 0, 64, 57
1, 249463, Control_c, 0, 64, 59
1, 249478, Control_c, 0, 64, 61
1, 249493, Control_c, 0, 64, 61
1, 249508, Control_c, 0, 64, 62
1, 249522, Control_c, 0, 64, 64
1, 249537, Control_c, 0, 64, 65
1, 249552, Control_c, 0, 64, 67
1, 249567, Control_c, 0, 64, 69
1, 249582, Control_c, 0, 64, 72
1, 249588, Note_on_c, 0, 53, 49
1, 249592, Note_on_c, 0, 51, 36
1, 249596, Control_c, 0, 64, 76
1, 249599, Note_on_c, 0, 48, 38
1, 249604, Note_on_c, 0, 32, 33
1, 249611, Control_c, 0, 64, 82
1, 249612, Note_on_c, 0, 44, 34
1, 249626, Control_c, 0, 64, 86
1, 249641, Control_c, 0, 64, 91
1, 249656, Control_c, 0, 64, 95
1, 249671, Control_c, 0, 64, 99
1, 249685, Control_c, 0, 64, 104
1, 249700, Control_c, 0, 64, 109
1, 249713, Note_off_c, 0, 44, 51
1, 249715, Control_c, 0, 64, 114
1, 249717, Note_off_c, 0, 32, 37
1, 249730, Control_c, 0, 64, 117
1, 249745, Control_c, 0, 64, 118
1, 249755, Note_off_c, 0, 51, 58
1, 249759, Note_off_c, 0, 53, 62
1, 249760, Control_c, 0, 64, 119
1, 249774, Note_off_c, 0, 48, 40
1, 249775, Control_c, 0, 64, 120
1, 249789, Control_c, 0, 64, 123
1, 249804, Control_c, 0, 64, 127
1, 249937, Control_c, 0, 64, 118
1, 249952, Control_c, 0, 64, 108
1, 249967, Control_c, 0, 64, 97
1, 249979, Note_on_c, 0, 44, 41
1, 249981, Control_c, 0, 64, 86
1, 249987, Note_on_c, 0, 32, 40
1, 249993, Note_on_c, 0, 53, 55
1, 249996, Control_c, 0, 64, 75
1, 249997, Note_on_c, 0, 51, 49
1, 250010, Note_on_c, 0, 48, 38
1, 250011, Control_c, 0, 64, 66
1, 250026, Control_c, 0, 64, 53
1, 250042, Control_c, 0, 64, 49
1, 250064, Control_c, 0, 64, 60
1, 250079, Control_c, 0, 64, 66
1, 250082, Note_off_c, 0, 32, 54
1, 250094, Control_c, 0, 64, 73
1, 250109, Control_c, 0, 64, 81
1, 250124, Control_c, 0, 64, 88
1, 250138, Control_c, 0, 64, 94
1, 250148, Note_off_c, 0, 44, 35
1, 250153, Control_c, 0, 64, 101
1, 250168, Control_c, 0, 64, 108
1, 250183, Control_c, 0, 64, 114
1, 250198, Control_c, 0, 64, 120
1, 250203, Note_off_c, 0, 51, 58
1, 250207, Note_off_c, 0, 53, 60
1, 250212, Control_c, 0, 64, 125
1, 250218, Note_off_c, 0, 48, 42
1, 250227, Control_c, 0, 64, 127
1, 250375, Control_c, 0, 64, 123
1, 250390, Control_c, 0, 64, 108
1, 250398, Note_on_c, 0, 44, 44
1, 250401, Note_on_c, 0, 32, 47
1, 250405, Control_c, 0, 64, 95
1, 250413, Note_on_c, 0, 53, 59
1, 250420, Note_on_c, 0, 51, 46
1, 250420, Control_c, 0, 64, 83
1, 250423, Note_on_c, 0, 48, 45
1, 250435, Control_c, 0, 64, 71
1, 250450, Control_c, 0, 64, 59
1, 250465, Control_c, 0, 64, 32
1, 250480, Control_c, 0, 64, 49
1, 250494, Control_c, 0, 64, 62
1, 250509, Control_c, 0, 64, 67
1, 250524, Control_c, 0, 64, 72
1, 250538, Control_c, 0, 64, 79
1, 250553, Control_c, 0, 64, 85
1, 250568, Control_c, 0, 64, 92
1, 250574, Note_off_c, 0, 44, 58
1, 250583, Control_c, 0, 64, 99
1, 250584, Note_off_c, 0, 32, 40
1, 250598, Control_c, 0, 64, 107
1, 250610, Note_off_c, 0, 48, 37
1, 250613, Control_c, 0, 64, 114
1, 250627, Control_c, 0, 64, 119
1, 250642, Note_off_c, 0, 51, 50
1, 250642, Control_c, 0, 64, 124
1, 250657, Control_c, 0, 64, 127
1, 250903, Control_c, 0, 64, 122
1, 250917, Control_c, 0, 64, 116
1, 250918, Note_on_c, 0, 45, 43
1, 250923, Note_on_c, 0, 54, 58
1, 250929, Note_on_c, 0, 33, 39
1, 250932, Control_c, 0, 64, 110
1, 250946, Note_on_c, 0, 51, 34
1, 250947, Control_c, 0, 64, 104
1, 250949, Note_on_c, 0, 48, 33
1, 250961, Control_c, 0, 64, 95
1, 250976, Control_c, 0, 64, 86
1, 250991, Control_c, 0, 64, 75
1, 251006, Control_c, 0, 64, 62
1, 251021, Control_c, 0, 64, 0
1, 251062, Note_off_c, 0, 53, 36
1, 251256, Control_c, 0, 64, 46
1, 251271, Control_c, 0, 64, 58
1, 251286, Control_c, 0, 64, 63
1, 251301, Control_c, 0, 64, 65
1, 251316, Control_c, 0, 64, 68
1, 251331, Control_c, 0, 64, 72
1, 251346, Control_c, 0, 64, 77
1, 251360, Control_c, 0, 64, 82
1, 251375, Control_c, 0, 64, 85
1, 251390, Control_c, 0, 64, 89
1, 251405, Control_c, 0, 64, 92
1, 251420, Control_c, 0, 64, 95
1, 251434, Control_c, 0, 64, 100
1, 251449, Control_c, 0, 64, 104
1, 251464, Control_c, 0, 64, 109
1, 251478, Control_c, 0, 64, 115
1, 251493, Control_c, 0, 64, 123
1, 251508, Control_c, 0, 64, 127
1, 251605, Note_off_c, 0, 33, 42
1, 251613, Note_off_c, 0, 48, 41
1, 251671, Note_off_c, 0, 51, 58
1, 251692, Note_off_c, 0, 45, 41
1, 251699, Note_off_c, 0, 54, 59
1, 252049, Control_c, 0, 64, 127
1, 252064, Control_c, 0, 64, 125
1, 252079, Control_c, 0, 64, 125
1, 252094, Control_c, 0, 64, 123
1, 252109, Control_c, 0, 64, 122
1, 252124, Control_c, 0, 64, 121
1, 252139, Control_c, 0, 64, 119
1, 252154, Control_c, 0, 64, 115
1, 252169, Control_c, 0, 64, 108
1, 252183, Control_c, 0, 64, 98
1, 252198, Control_c, 0, 64, 84
1, 252213, Control_c, 0, 64, 69
1, 252228, Control_c, 0, 64, 0
1, 252276, Note_on_c, 0, 78, 56
1, 252294, Note_on_c, 0, 69, 34
1, 252294, Note_on_c, 0, 75, 49
1, 252313, Note_on_c, 0, 72, 34
1, 252324, Control_c, 0, 64, 43
1, 252338, Control_c, 0, 64, 57
1, 252353, Control_c, 0, 64, 63
1, 252368, Control_c, 0, 64, 66
1, 252383, Control_c, 0, 64, 70
1, 252398, Control_c, 0, 64, 78
1, 252400, Note_off_c, 0, 72, 60
1, 252407, Note_off_c, 0, 69, 61
1, 252413, Control_c, 0, 64, 87
1, 252428, Control_c, 0, 64, 95
1, 252429, Note_off_c, 0, 75, 60
1, 252443, Control_c, 0, 64, 102
1, 252455, Note_off_c, 0, 78, 57
1, 252458, Control_c, 0, 64, 107
1, 252473, Control_c, 0, 64, 109
1, 252488, Control_c, 0, 64, 112
1, 252502, Control_c, 0, 64, 113
1, 252517, Control_c, 0, 64, 114
1, 252532, Control_c, 0, 64, 114
1, 252637, Control_c, 0, 64, 113
1, 252651, Control_c, 0, 64, 111
1, 252666, Control_c, 0, 64, 106
1, 252681, Control_c, 0, 64, 96
1, 252696, Control_c, 0, 64, 86
1, 252711, Control_c, 0, 64, 74
1, 252719, Note_on_c, 0, 78, 70
1, 252726, Control_c, 0, 64, 62
1, 252729, Note_on_c, 0, 75, 57
1, 252732, Note_on_c, 0, 72, 45
1, 252735, Note_on_c, 0, 69, 35
1, 252740, Control_c, 0, 64, 0
1, 252770, Control_c, 0, 64, 54
1, 252785, Control_c, 0, 64, 63
1, 252800, Control_c, 0, 64, 67
1, 252814, Control_c, 0, 64, 72
1, 252829, Control_c, 0, 64, 79
1, 252831, Note_off_c, 0, 69, 64
1, 252833, Note_off_c, 0, 72, 60
1, 252844, Control_c, 0, 64, 87
1, 252859, Control_c, 0, 64, 94
1, 252874, Note_off_c, 0, 75, 59
1, 252874, Control_c, 0, 64, 101
1, 252888, Control_c, 0, 64, 106
1, 252901, Note_off_c, 0, 78, 61
1, 252903, Control_c, 0, 64, 109
1, 252918, Control_c, 0, 64, 111
1, 252932, Control_c, 0, 64, 111
1, 252947, Control_c, 0, 64, 112
1, 252962, Control_c, 0, 64, 112
1, 252977, Control_c, 0, 64, 113
1, 253118, Control_c, 0, 64, 112
1, 253132, Control_c, 0, 64, 111
1, 253147, Control_c, 0, 64, 106
1, 253162, Control_c, 0, 64, 97
1, 253177, Control_c, 0, 64, 85
1, 253185, Note_on_c, 0, 78, 68
1, 253192, Control_c, 0, 64, 72
1, 253194, Note_on_c, 0, 75, 54
1, 253206, Control_c, 0, 64, 48
1, 253216, Note_on_c, 0, 69, 31
1, 253221, Note_on_c, 0, 72, 28
1, 253221, Control_c, 0, 64, 0
1, 253282, Control_c, 0, 64, 45
1, 253297, Control_c, 0, 64, 56
1, 253311, Control_c, 0, 64, 62
1, 253326, Control_c, 0, 64, 66
1, 253341, Control_c, 0, 64, 71
1, 253355, Control_c, 0, 64, 80
1, 253362, Note_off_c, 0, 69, 59
1, 253370, Control_c, 0, 64, 89
1, 253376, Note_off_c, 0, 72, 50
1, 253385, Control_c, 0, 64, 97
1, 253388, Note_off_c, 0, 75, 60
1, 253400, Control_c, 0, 64, 103
1, 253415, Control_c, 0, 64, 107
1, 253425, Note_off_c, 0, 78, 63
1, 253430, Control_c, 0, 64, 110
1, 253444, Control_c, 0, 64, 113
1, 253459, Control_c, 0, 64, 115
1, 253474, Control_c, 0, 64, 116
1, 253489, Control_c, 0, 64, 117
1, 253652, Control_c, 0, 64, 116
1, 253696, Control_c, 0, 64, 115
1, 253711, Control_c, 0, 64, 114
1, 253726, Control_c, 0, 64, 112
1, 253741, Control_c, 0, 64, 110
1, 253755, Control_c, 0, 64, 108
1, 253770, Control_c, 0, 64, 106
1, 253785, Control_c, 0, 64, 103
1, 253808, Control_c, 0, 64, 100
1, 253823, Control_c, 0, 64, 94
1, 253837, Control_c, 0, 64, 89
1, 253848, Note_on_c, 0, 70, 33
1, 253852, Control_c, 0, 64, 83
1, 253867, Control_c, 0, 64, 76
1, 253869, Note_on_c, 0, 75, 36
1, 253872, Note_on_c, 0, 79, 47
1, 253881, Control_c, 0, 64, 68
1, 253896, Control_c, 0, 64, 57
1, 253911, Control_c, 0, 64, 0
1, 254243, Note_off_c, 0, 79, 58
1, 254245, Note_off_c, 0, 75, 65
1, 254258, Note_off_c, 0, 70, 56
1, 254598, Note_on_c, 0, 69, 21
1, 254599, Note_on_c, 0, 78, 56
1, 254601, Control_c, 0, 64, 53
1, 254616, Control_c, 0, 64, 65
1, 254617, Note_on_c, 0, 75, 34
1, 254631, Control_c, 0, 64, 72
1, 254632, Note_on_c, 0, 72, 32
1, 254646, Control_c, 0, 64, 83
1, 254660, Control_c, 0, 64, 94
1, 254675, Control_c, 0, 64, 103
1, 254690, Control_c, 0, 64, 108
1, 254704, Control_c, 0, 64, 109
1, 254715, Note_off_c, 0, 75, 51
1, 254719, Control_c, 0, 64, 110
1, 254764, Control_c, 0, 64, 110
1, 254839, Control_c, 0, 64, 110
1, 254861, Note_off_c, 0, 69, 35
1, 254898, Control_c, 0, 64, 109
1, 254910, Note_off_c, 0, 78, 57
1, 254913, Control_c, 0, 64, 108
1, 254914, Note_on_c, 0, 79, 59
1, 254921, Note_on_c, 0, 75, 49
1, 254923, Note_on_c, 0, 70, 40
1, 254927, Control_c, 0, 64, 107
1, 254942, Control_c, 0, 64, 105
1, 254957, Control_c, 0, 64, 104
1, 254972, Control_c, 0, 64, 102
1, 254987, Control_c, 0, 64, 101
1, 254992, Note_off_c, 0, 72, 36
1, 255001, Control_c, 0, 64, 99
1, 255016, Control_c, 0, 64, 98
1, 255031, Control_c, 0, 64, 97
1, 255046, Control_c, 0, 64, 96
1, 255061, Control_c, 0, 64, 96
1, 255075, Control_c, 0, 64, 95
1, 255090, Control_c, 0, 64, 93
1, 255105, Control_c, 0, 64, 92
1, 255120, Control_c, 0, 64, 89
1, 255135, Control_c, 0, 64, 84
1, 255149, Control_c, 0, 64, 76
1, 255155, Note_off_c, 0, 70, 60
1, 255164, Control_c, 0, 64, 60
1, 255171, Note_off_c, 0, 79, 59
1, 255174, Note_off_c, 0, 75, 65
1, 255179, Control_c, 0, 64, 0
1, 255526, Note_on_c, 0, 78, 75
1, 255536, Note_on_c, 0, 69, 38
1, 255540, Note_on_c, 0, 72, 42
1, 255547, Note_on_c, 0, 75, 37
1, 255557, Control_c, 0, 64, 46
1, 255572, Control_c, 0, 64, 57
1, 255587, Control_c, 0, 64, 61
1, 255601, Control_c, 0, 64, 64
1, 255616, Control_c, 0, 64, 66
1, 255631, Note_off_c, 0, 75, 54
1, 255632, Control_c, 0, 64, 68
1, 255647, Control_c, 0, 64, 71
1, 255662, Control_c, 0, 64, 75
1, 255677, Control_c, 0, 64, 79
1, 255692, Control_c, 0, 64, 82
1, 255706, Control_c, 0, 64, 83
1, 255721, Control_c, 0, 64, 84
1, 255736, Control_c, 0, 64, 85
1, 255750, Control_c, 0, 64, 87
1, 255765, Control_c, 0, 64, 90
1, 255780, Control_c, 0, 64, 93
1, 255795, Control_c, 0, 64, 96
1, 255810, Control_c, 0, 64, 97
1, 255824, Control_c, 0, 64, 98
1, 255913, Control_c, 0, 64, 97
1, 255928, Control_c, 0, 64, 95
1, 255942, Control_c, 0, 64, 92
1, 255954, Note_off_c, 0, 78, 62
1, 255957, Control_c, 0, 64, 87
1, 255958, Note_on_c, 0, 70, 47
1, 255970, Note_on_c, 0, 79, 70
1, 255972, Note_off_c, 0, 69, 32
1, 255972, Control_c, 0, 64, 79
1, 255987, Control_c, 0, 64, 70
1, 256002, Control_c, 0, 64, 56
1, 256017, Control_c, 0, 64, 0
1, 256032, Note_off_c, 0, 72, 34
1, 256510, Note_on_c, 0, 80, 55
1, 256510, Note_off_c, 0, 79, 39
1, 256581, Note_off_c, 0, 80, 55
1, 256586, Note_on_c, 0, 82, 59
1, 256643, Note_on_c, 0, 79, 58
1, 256650, Note_off_c, 0, 82, 61
1, 256691, Note_off_c, 0, 79, 64
1, 256701, Note_off_c, 0, 70, 57
1, 256712, Note_on_c, 0, 76, 66
1, 256779, Note_off_c, 0, 76, 59
1, 256780, Note_on_c, 0, 77, 68
1, 256833, Control_c, 0, 67, 123
1, 256847, Control_c, 0, 67, 109
1, 256861, Note_off_c, 0, 77, 57
1, 256862, Control_c, 0, 67, 94
1, 256864, Note_on_c, 0, 79, 65
1, 256877, Control_c, 0, 67, 79
1, 256892, Control_c, 0, 67, 67
1, 256903, Note_on_c, 0, 75, 66
1, 256906, Control_c, 0, 67, 54
1, 256921, Control_c, 0, 67, 37
1, 256926, Note_off_c, 0, 79, 60
1, 256936, Control_c, 0, 67, 19
1, 256951, Control_c, 0, 67, 0
1, 256974, Note_on_c, 0, 68, 64
1, 256976, Note_on_c, 0, 65, 59
1, 256980, Note_off_c, 0, 75, 61
1, 256983, Note_on_c, 0, 73, 69
1, 256995, Note_on_c, 0, 58, 36
1, 257044, Note_off_c, 0, 73, 61
1, 257049, Note_on_c, 0, 74, 75
1, 257097, Note_off_c, 0, 68, 63
1, 257102, Note_off_c, 0, 74, 64
1, 257125, Note_on_c, 0, 75, 64
1, 257176, Note_on_c, 0, 72, 74
1, 257197, Note_off_c, 0, 75, 64
1, 257198, Note_off_c, 0, 65, 64
1, 257237, Note_on_c, 0, 69, 82
1, 257238, Note_off_c, 0, 58, 61
1, 257238, Note_off_c, 0, 72, 63
1, 257293, Note_off_c, 0, 69, 63
1, 257313, Note_on_c, 0, 70, 76
1, 257364, Note_off_c, 0, 70, 60
1, 257370, Note_on_c, 0, 72, 75
1, 257432, Note_on_c, 0, 68, 68
1, 257435, Note_off_c, 0, 72, 64
1, 257459, Note_off_c, 0, 68, 67
1, 257521, Note_on_c, 0, 56, 74
1, 257526, Note_on_c, 0, 46, 69
1, 257552, Note_on_c, 0, 67, 43
1, 257555, Note_off_c, 0, 56, 68
1, 257572, Note_off_c, 0, 46, 64
1, 257587, Note_off_c, 0, 67, 0
1, 257587, Note_on_c, 0, 67, 27
1, 257640, Note_off_c, 0, 67, 59
1, 257646, Note_on_c, 0, 68, 76
1, 257701, Note_off_c, 0, 68, 63
1, 257714, Note_on_c, 0, 65, 61
1, 257732, Note_off_c, 0, 65, 65
1, 257813, Note_on_c, 0, 63, 76
1, 257821, Note_on_c, 0, 51, 51
1, 257835, Note_on_c, 0, 55, 64
1, 257889, Note_off_c, 0, 51, 62
1, 257895, Note_on_c, 0, 53, 66
1, 257918, Note_off_c, 0, 55, 49
1, 257937, Note_off_c, 0, 63, 63
1, 257969, Note_off_c, 0, 53, 64
1, 257969, Note_on_c, 0, 51, 66
1, 258040, Note_off_c, 0, 51, 61
1, 258041, Note_on_c, 0, 50, 68
1, 258096, Note_on_c, 0, 51, 65
1, 258108, Note_off_c, 0, 50, 62
1, 258156, Note_on_c, 0, 53, 64
1, 258169, Note_off_c, 0, 51, 62
1, 258201, Note_off_c, 0, 53, 68
1, 258217, Note_on_c, 0, 55, 71
1, 258288, Note_off_c, 0, 55, 63
1, 258300, Note_on_c, 0, 56, 73
1, 258368, Note_on_c, 0, 58, 82
1, 258368, Note_off_c, 0, 56, 62
1, 258393, Note_off_c, 0, 58, 71
1, 258514, Note_on_c, 0, 55, 67
1, 258541, Note_off_c, 0, 55, 66
1, 258663, Note_on_c, 0, 53, 63
1, 258682, Note_on_c, 0, 70, 69
1, 258691, Note_off_c, 0, 53, 67
1, 258736, Note_off_c, 0, 70, 60
1, 258759, Note_on_c, 0, 72, 69
1, 258807, Note_on_c, 0, 56, 60
1, 258816, Note_on_c, 0, 70, 71
1, 258820, Note_off_c, 0, 72, 64
1, 258836, Note_off_c, 0, 56, 64
1, 258870, Note_off_c, 0, 70, 62
1, 258882, Note_on_c, 0, 69, 77
1, 258939, Note_on_c, 0, 70, 81
1, 258941, Note_on_c, 0, 50, 57
1, 258960, Note_off_c, 0, 69, 65
1, 258972, Note_off_c, 0, 50, 65
1, 258988, Note_off_c, 0, 70, 62
1, 259014, Note_on_c, 0, 72, 79
1, 259075, Note_off_c, 0, 72, 60
1, 259082, Note_on_c, 0, 53, 61
1, 259090, Note_on_c, 0, 74, 78
1, 259111, Note_off_c, 0, 53, 68
1, 259149, Note_on_c, 0, 75, 79
1, 259150, Note_off_c, 0, 74, 66
1, 259198, Note_off_c, 0, 75, 67
1, 259207, Note_on_c, 0, 77, 73
1, 259219, Note_on_c, 0, 46, 63
1, 259231, Note_off_c, 0, 77, 67
1, 259248, Note_off_c, 0, 46, 64
1, 259365, Note_on_c, 0, 68, 82
1, 259371, Note_on_c, 0, 50, 45
1, 259398, Note_off_c, 0, 50, 51
1, 259403, Note_off_c, 0, 68, 65
1, 259498, Note_on_c, 0, 51, 53
1, 259508, Note_on_c, 0, 67, 80
1, 259543, Note_off_c, 0, 51, 61
1, 259581, Note_on_c, 0, 53, 62
1, 259644, Note_on_c, 0, 51, 66
1, 259655, Note_off_c, 0, 67, 59
1, 259657, Note_off_c, 0, 53, 59
1, 259716, Note_off_c, 0, 51, 63
1, 259722, Note_on_c, 0, 50, 73
1, 259794, Note_on_c, 0, 51, 66
1, 259807, Note_off_c, 0, 50, 60
1, 259846, Note_on_c, 0, 53, 64
1, 259859, Note_off_c, 0, 51, 63
1, 259894, Note_off_c, 0, 53, 64
1, 259909, Note_on_c, 0, 55, 73
1, 259952, Note_off_c, 0, 55, 66
1, 259982, Note_on_c, 0, 56, 73
1, 260050, Note_off_c, 0, 56, 65
1, 260064, Note_on_c, 0, 60, 84
1, 260116, Note_off_c, 0, 60, 51
1, 260139, Note_on_c, 0, 58, 77
1, 260208, Note_on_c, 0, 56, 68
1, 260216, Note_off_c, 0, 58, 63
1, 260303, Note_on_c, 0, 55, 61
1, 260310, Note_off_c, 0, 56, 61
1, 260351, Note_off_c, 0, 55, 65
1, 260351, Note_on_c, 0, 53, 68
1, 260362, Note_on_c, 0, 82, 78
1, 260383, Note_off_c, 0, 53, 67
1, 260421, Note_off_c, 0, 82, 63
1, 260432, Note_on_c, 0, 84, 78
1, 260498, Note_on_c, 0, 82, 79
1, 260505, Note_on_c, 0, 56, 66
1, 260506, Note_off_c, 0, 84, 64
1, 260538, Note_off_c, 0, 56, 67
1, 260558, Note_off_c, 0, 82, 63
1, 260573, Note_on_c, 0, 81, 85
1, 260634, Note_on_c, 0, 82, 82
1, 260636, Note_on_c, 0, 50, 65
1, 260644, Note_off_c, 0, 81, 61
1, 260666, Note_off_c, 0, 50, 65
1, 260677, Note_off_c, 0, 82, 64
1, 260706, Note_on_c, 0, 84, 81
1, 260759, Note_off_c, 0, 84, 57
1, 260774, Note_on_c, 0, 53, 65
1, 260776, Note_on_c, 0, 86, 83
1, 260801, Note_off_c, 0, 53, 67
1, 260837, Note_on_c, 0, 87, 80
1, 260843, Note_off_c, 0, 86, 64
1, 260895, Note_off_c, 0, 87, 66
1, 260905, Note_on_c, 0, 46, 72
1, 260905, Note_on_c, 0, 89, 86
1, 260944, Note_off_c, 0, 46, 66
1, 260967, Note_off_c, 0, 89, 65
1, 260971, Note_on_c, 0, 86, 78
1, 261043, Note_on_c, 0, 50, 61
1, 261046, Note_on_c, 0, 82, 76
1, 261055, Note_off_c, 0, 86, 62
1, 261071, Note_off_c, 0, 50, 65
1, 261122, Note_on_c, 0, 80, 70
1, 261153, Note_off_c, 0, 82, 62
1, 261193, Note_on_c, 0, 79, 79
1, 261194, Note_off_c, 0, 80, 63
1, 261198, Note_on_c, 0, 51, 58
1, 261225, Note_off_c, 0, 79, 63
1, 261233, Note_off_c, 0, 51, 64
1, 261359, Note_on_c, 0, 46, 48
1, 261397, Note_off_c, 0, 46, 61
1, 261496, Note_on_c, 0, 43, 58
1, 261529, Note_off_c, 0, 43, 62
1, 261653, Note_on_c, 0, 51, 66
1, 261654, Note_on_c, 0, 63, 89
1, 261681, Note_off_c, 0, 51, 65
1, 261699, Note_off_c, 0, 63, 65
1, 261791, Note_on_c, 0, 58, 70
1, 261794, Note_on_c, 0, 46, 60
1, 261824, Note_off_c, 0, 58, 66
1, 261827, Note_off_c, 0, 46, 64
1, 261927, Note_on_c, 0, 55, 56
1, 261928, Note_on_c, 0, 67, 70
1, 261959, Note_off_c, 0, 55, 65
1, 261967, Note_off_c, 0, 67, 63
1, 262078, Note_on_c, 0, 51, 50
1, 262082, Note_on_c, 0, 63, 67
1, 262109, Note_off_c, 0, 51, 63
1, 262116, Note_off_c, 0, 63, 63
1, 262214, Note_on_c, 0, 70, 66
1, 262223, Note_on_c, 0, 58, 57
1, 262248, Note_off_c, 0, 70, 60
1, 262261, Note_off_c, 0, 58, 65
1, 262360, Note_on_c, 0, 55, 51
1, 262363, Note_on_c, 0, 67, 62
1, 262386, Note_off_c, 0, 55, 62
1, 262392, Note_off_c, 0, 67, 66
1, 262493, Note_on_c, 0, 75, 88
1, 262503, Note_on_c, 0, 63, 79
1, 262527, Note_off_c, 0, 63, 70
1, 262537, Note_off_c, 0, 75, 68
1, 262635, Note_on_c, 0, 70, 75
1, 262643, Note_on_c, 0, 58, 52
1, 262670, Note_off_c, 0, 70, 60
1, 262679, Note_off_c, 0, 58, 63
1, 262776, Note_on_c, 0, 67, 62
1, 262776, Note_on_c, 0, 79, 76
1, 262813, Note_off_c, 0, 67, 65
1, 262819, Note_off_c, 0, 79, 64
1, 262920, Note_on_c, 0, 75, 71
1, 262921, Note_on_c, 0, 63, 59
1, 262953, Note_off_c, 0, 63, 65
1, 262954, Note_off_c, 0, 75, 63
1, 263053, Note_on_c, 0, 82, 73
1, 263060, Note_on_c, 0, 70, 58
1, 263079, Note_off_c, 0, 70, 64
1, 263091, Note_off_c, 0, 82, 64
1, 263194, Note_on_c, 0, 67, 65
1, 263200, Note_on_c, 0, 79, 72
1, 263223, Note_off_c, 0, 67, 65
1, 263225, Note_off_c, 0, 79, 66
1, 263351, Note_on_c, 0, 87, 75
1, 263367, Note_on_c, 0, 75, 55
1, 263373, Note_off_c, 0, 87, 69
1, 263388, Note_off_c, 0, 75, 54
1, 263590, Note_on_c, 0, 65, 91
1, 263591, Note_on_c, 0, 68, 92
1, 263591, Note_on_c, 0, 74, 94
1, 263597, Note_on_c, 0, 58, 98
1, 263601, Note_on_c, 0, 46, 95
1, 263618, Control_c, 0, 64, 46
1, 263633, Control_c, 0, 64, 76
1, 263633, Note_off_c, 0, 65, 67
1, 263641, Note_off_c, 0, 58, 67
1, 263647, Control_c, 0, 64, 85
1, 263652, Note_off_c, 0, 46, 63
1, 263654, Note_off_c, 0, 74, 69
1, 263658, Note_off_c, 0, 68, 66
1, 263662, Control_c, 0, 64, 88
1, 263677, Control_c, 0, 64, 85
1, 263691, Control_c, 0, 64, 81
1, 263706, Control_c, 0, 64, 74
1, 263721, Control_c, 0, 64, 59
1, 263736, Control_c, 0, 64, 0
1, 264129, Note_on_c, 0, 75, 100
1, 264130, Note_on_c, 0, 67, 98
1, 264130, Note_on_c, 0, 70, 94
1, 264133, Note_on_c, 0, 63, 101
1, 264134, Note_on_c, 0, 51, 97
1, 264134, Control_c, 0, 64, 67
1, 264138, Note_on_c, 0, 39, 82
1, 264149, Control_c, 0, 64, 98
1, 264164, Control_c, 0, 64, 127
1, 264188, Note_off_c, 0, 51, 69
1, 264191, Note_off_c, 0, 39, 64
1, 264191, Note_off_c, 0, 63, 68
1, 264205, Note_off_c, 0, 67, 69
1, 264206, Note_off_c, 0, 75, 70
1, 264217, Note_off_c, 0, 70, 68
1, 264319, Control_c, 0, 64, 95
1, 264334, Control_c, 0, 64, 74
1, 264349, Control_c, 0, 64, 0
1, 265966, Control_c, 0, 64, 10
1, 265981, Control_c, 0, 64, 20
1, 265995, Control_c, 0, 64, 23
1, 266012, Control_c, 0, 64, 27
1, 266012, Control_c, 0, 67, 9
1, 266027, Control_c, 0, 64, 36
1, 266027, Control_c, 0, 67, 12
1, 266041, Control_c, 0, 64, 40
1, 266041, Control_c, 0, 67, 16
1, 266056, Control_c, 0, 64, 40
1, 266056, Control_c, 0, 67, 21
1, 266070, Control_c, 0, 64, 37
1, 266070, Control_c, 0, 67, 24
1, 266084, Control_c, 0, 64, 36
1, 266084, Control_c, 0, 67, 29
1, 266099, Control_c, 0, 64, 38
1, 266099, Control_c, 0, 67, 34
1, 266114, Control_c, 0, 64, 41
1, 266114, Control_c, 0, 67, 40
1, 266129, Control_c, 0, 64, 44
1, 266129, Control_c, 0, 67, 47
1, 266144, Control_c, 0, 64, 47
1, 266144, Control_c, 0, 67, 56
1, 266158, Control_c, 0, 64, 51
1, 266158, Control_c, 0, 67, 63
1, 266173, Control_c, 0, 64, 53
1, 266173, Control_c, 0, 67, 70
1, 266188, Control_c, 0, 64, 55
1, 266188, Control_c, 0, 67, 73
1, 266203, Control_c, 0, 64, 57
1, 266203, Control_c, 0, 67, 77
1, 266218, Control_c, 0, 67, 82
1, 266232, Control_c, 0, 64, 56
1, 266232, Control_c, 0, 67, 88
1, 266247, Control_c, 0, 67, 93
1, 266262, Control_c, 0, 64, 56
1, 266262, Control_c, 0, 67, 96
1, 266277, Control_c, 0, 64, 55
1, 266277, Control_c, 0, 67, 97
1, 266292, Control_c, 0, 64, 56
1, 266292, Control_c, 0, 67, 97
1, 266307, Control_c, 0, 67, 99
1, 266322, Control_c, 0, 64, 57
1, 266322, Control_c, 0, 67, 103
1, 266337, Control_c, 0, 64, 58
1, 266337, Control_c, 0, 67, 107
1, 266352, Control_c, 0, 64, 60
1, 266352, Control_c, 0, 67, 109
1, 266366, Control_c, 0, 64, 60
1, 266381, Control_c, 0, 64, 60
1, 266396, Control_c, 0, 64, 59
1, 266411, Control_c, 0, 64, 60
1, 266426, Control_c, 0, 64, 60
1, 266440, Control_c, 0, 64, 61
1, 266455, Control_c, 0, 64, 60
1, 266455, Control_c, 0, 67, 108
1, 266470, Control_c, 0, 64, 58
1, 266470, Control_c, 0, 67, 108
1, 266484, Control_c, 0, 64, 56
1, 266484, Control_c, 0, 67, 106
1, 266499, Control_c, 0, 64, 53
1, 266499, Control_c, 0, 67, 105
1, 266514, Control_c, 0, 64, 53
1, 266514, Control_c, 0, 67, 103
1, 266537, Control_c, 0, 64, 54
1, 266551, Control_c, 0, 64, 56
1, 266566, Control_c, 0, 64, 57
1, 266566, Control_c, 0, 67, 103
1, 266581, Control_c, 0, 64, 56
1, 266581, Control_c, 0, 67, 102
1, 266596, Control_c, 0, 64, 55
1, 266596, Control_c, 0, 67, 101
1, 266610, Control_c, 0, 67, 101
1, 266625, Control_c, 0, 64, 55
1, 266625, Control_c, 0, 67, 100
1, 266670, Control_c, 0, 67, 100
1, 266684, Control_c, 0, 67, 99
1, 266699, Control_c, 0, 64, 56
1, 266699, Control_c, 0, 67, 98
1, 266714, Control_c, 0, 67, 97
1, 266729, Control_c, 0, 67, 96
1, 266744, Control_c, 0, 67, 95
1, 266758, Control_c, 0, 67, 92
1, 266773, Control_c, 0, 64, 55
1, 266773, Control_c, 0, 67, 86
1, 266788, Control_c, 0, 64, 56
1, 266788, Control_c, 0, 67, 79
1, 266803, Control_c, 0, 64, 56
1, 266803, Control_c, 0, 67, 73
1, 266819, Control_c, 0, 64, 57
1, 266819, Control_c, 0, 67, 67
1, 266833, Control_c, 0, 64, 56
1, 266833, Control_c, 0, 67, 60
1, 266848, Control_c, 0, 64, 56
1, 266848, Control_c, 0, 67, 51
1, 266863, Control_c, 0, 67, 37
1, 266878, Control_c, 0, 67, 22
1, 266893, Control_c, 0, 67, 0
1, 266893, End_track
0, 0, End_of_file
