0, 0, Header, 0, 1, 384
1, 0, Start_track
1, 0, Title_t, "SonataInD, L. 465--Dizhou Zhao  "
1, 0, Text_t, "2009 Piano-e-Competition audition round"
1, 0, Text_t, "captured January 2009"
1, 0, Text_t, "http://www.piano-e-competition.com/"
1, 0, Text_t, "File processed for distribution by software from Zenph Studios, Inc., http://www.zenph.com"
1, 0, Instrument_name_t, "Yamaha Disklavier Pro Mark IV concert grand piano, model DCFIIISM4PRO"
1, 0, Sequencer_specific, 39, 67, 113, 0, 1, 0, 1, 0, 83, 111, 110, 97, 116, 97, 73, 110, 68, 44, 32, 76, 46, 52, 54, 53, 68, 105, 122, 104, 111, 117, 32, 90, 104, 97, 111, 32, 32, 32, 32, 32
1, 0, Sequencer_specific, 6, 67, 113, 0, 0, 0, 69
1, 0, System_exclusive, 21, 67, 113, 126, 21, 0, 2, 2, 0, 3, 14, 1, 4, 1, 13, 13, 10, 11, 9, 2, 7, 247
1, 0, Sequencer_specific, 5, 67, 123, 12, 2, 1
1, 0, Tempo, 512820
1, 0, Time_signature, 4, 2, 24, 8
1, 0, System_exclusive, 5, 126, 127, 9, 1, 247
1, 1, System_exclusive, 8, 67, 16, 76, 0, 0, 126, 0, 247
1, 2, System_exclusive, 8, 67, 16, 76, 8, 9, 7, 1, 247
1, 3, Control_c, 0, 0, 0
1, 3, Control_c, 1, 0, 0
1, 3, Control_c, 2, 0, 0
1, 3, Control_c, 3, 0, 0
1, 3, Control_c, 4, 0, 0
1, 3, Control_c, 5, 0, 0
1, 3, Control_c, 6, 0, 0
1, 3, Control_c, 7, 0, 0
1, 3, Control_c, 8, 0, 0
1, 3, Control_c, 9, 0, 127
1, 3, Control_c, 10, 0, 0
1, 3, Control_c, 11, 0, 0
1, 3, Control_c, 12, 0, 0
1, 3, Control_c, 13, 0, 0
1, 3, Control_c, 14, 0, 0
1, 3, Control_c, 15, 0, 0
1, 4, Control_c, 0, 32, 0
1, 4, Control_c, 1, 32, 0
1, 4, Control_c, 2, 32, 0
1, 4, Control_c, 3, 32, 0
1, 4, Control_c, 4, 32, 0
1, 4, Control_c, 5, 32, 0
1, 4, Control_c, 6, 32, 0
1, 4, Control_c, 7, 32, 0
1, 4, Control_c, 8, 32, 0
1, 4, Control_c, 9, 32, 0
1, 4, Control_c, 10, 32, 0
1, 4, Control_c, 11, 32, 0
1, 4, Control_c, 12, 32, 0
1, 4, Control_c, 13, 32, 0
1, 4, Control_c, 14, 32, 0
1, 4, Control_c, 15, 32, 0
1, 5, Program_c, 0, 0
1, 5, Program_c, 1, 0
1, 5, Program_c, 2, 0
1, 5, Program_c, 3, 0
1, 5, Program_c, 4, 0
1, 5, Program_c, 5, 0
1, 5, Program_c, 6, 0
1, 5, Program_c, 7, 0
1, 5, Program_c, 8, 0
1, 5, Program_c, 9, 0
1, 5, Program_c, 10, 0
1, 5, Program_c, 11, 0
1, 5, Program_c, 12, 0
1, 5, Program_c, 13, 0
1, 5, Program_c, 14, 0
1, 5, Program_c, 15, 0
1, 6, Control_c, 0, 7, 100
1, 6, Control_c, 1, 7, 100
1, 6, Control_c, 2, 7, 100
1, 6, Control_c, 3, 7, 100
1, 6, Control_c, 4, 7, 100
1, 6, Control_c, 5, 7, 100
1, 6, Control_c, 6, 7, 100
1, 6, Control_c, 7, 7, 100
1, 6, Control_c, 8, 7, 100
1, 6, Control_c, 9, 7, 100
1, 6, Control_c, 10, 7, 100
1, 6, Control_c, 11, 7, 100
1, 6, Control_c, 12, 7, 100
1, 6, Control_c, 13, 7, 100
1, 6, Control_c, 14, 7, 100
1, 6, Control_c, 15, 7, 100
1, 1129, Note_on_c, 0, 81, 85
1, 1135, Note_on_c, 0, 78, 71
1, 1157, Note_off_c, 0, 78, 70
1, 1163, Note_off_c, 0, 81, 67
1, 1296, Note_on_c, 0, 78, 85
1, 1301, Note_on_c, 0, 74, 58
1, 1318, Note_off_c, 0, 78, 70
1, 1321, Note_off_c, 0, 74, 63
1, 1442, Note_on_c, 0, 76, 86
1, 1444, Note_on_c, 0, 69, 56
1, 1477, Note_off_c, 0, 76, 61
1, 1478, Note_off_c, 0, 69, 67
1, 1597, Note_on_c, 0, 74, 85
1, 1609, Note_on_c, 0, 66, 61
1, 1624, Note_off_c, 0, 74, 64
1, 1635, Note_off_c, 0, 66, 65
1, 1745, Note_on_c, 0, 66, 63
1, 1749, Note_on_c, 0, 74, 77
1, 1772, Note_off_c, 0, 74, 70
1, 1779, Note_off_c, 0, 66, 61
1, 1896, Note_on_c, 0, 76, 80
1, 1897, Note_on_c, 0, 69, 63
1, 1921, Note_off_c, 0, 76, 67
1, 1928, Note_off_c, 0, 69, 66
1, 2053, Note_on_c, 0, 74, 77
1, 2059, Note_on_c, 0, 66, 61
1, 2080, Note_off_c, 0, 74, 65
1, 2086, Note_off_c, 0, 66, 65
1, 2205, Note_on_c, 0, 74, 74
1, 2211, Note_on_c, 0, 66, 54
1, 2228, Note_off_c, 0, 74, 67
1, 2237, Note_off_c, 0, 66, 63
1, 2357, Note_on_c, 0, 76, 75
1, 2363, Note_on_c, 0, 69, 57
1, 2382, Note_off_c, 0, 76, 66
1, 2396, Note_off_c, 0, 69, 67
1, 2506, Note_on_c, 0, 74, 70
1, 2514, Note_on_c, 0, 66, 53
1, 2530, Note_off_c, 0, 74, 69
1, 2536, Note_off_c, 0, 66, 62
1, 2652, Note_on_c, 0, 66, 56
1, 2655, Note_on_c, 0, 74, 66
1, 2682, Note_off_c, 0, 74, 68
1, 2692, Note_off_c, 0, 66, 60
1, 2808, Note_on_c, 0, 76, 88
1, 2810, Note_on_c, 0, 69, 60
1, 2835, Note_off_c, 0, 76, 64
1, 2837, Note_off_c, 0, 69, 65
1, 2952, Note_on_c, 0, 78, 94
1, 2958, Note_on_c, 0, 74, 72
1, 2983, Note_off_c, 0, 74, 70
1, 2983, Note_off_c, 0, 78, 69
1, 3104, Note_on_c, 0, 79, 95
1, 3105, Note_on_c, 0, 76, 81
1, 3129, Note_off_c, 0, 76, 68
1, 3138, Note_off_c, 0, 79, 62
1, 3245, Note_on_c, 0, 81, 88
1, 3253, Note_on_c, 0, 78, 72
1, 3266, Note_off_c, 0, 81, 70
1, 3278, Note_off_c, 0, 78, 70
1, 3429, Note_on_c, 0, 78, 78
1, 3451, Note_on_c, 0, 69, 50
1, 3471, Note_off_c, 0, 78, 64
1, 3500, Note_on_c, 0, 76, 69
1, 3528, Note_off_c, 0, 76, 62
1, 3554, Note_on_c, 0, 78, 62
1, 3573, Note_off_c, 0, 78, 65
1, 3599, Note_on_c, 0, 76, 68
1, 3633, Note_off_c, 0, 76, 61
1, 3637, Note_on_c, 0, 78, 74
1, 3660, Note_off_c, 0, 78, 70
1, 3698, Note_on_c, 0, 76, 55
1, 3721, Note_off_c, 0, 76, 61
1, 3730, Note_on_c, 0, 78, 78
1, 3758, Note_off_c, 0, 78, 62
1, 3786, Note_on_c, 0, 76, 75
1, 3851, Note_on_c, 0, 78, 87
1, 3853, Note_off_c, 0, 76, 42
1, 3887, Note_off_c, 0, 78, 65
1, 3890, Note_off_c, 0, 69, 58
1, 3899, Note_on_c, 0, 74, 78
1, 3919, Note_off_c, 0, 74, 73
1, 4035, Note_on_c, 0, 76, 80
1, 4035, Note_on_c, 0, 79, 88
1, 4053, Note_off_c, 0, 79, 72
1, 4057, Note_off_c, 0, 76, 69
1, 4182, Note_on_c, 0, 81, 87
1, 4190, Note_on_c, 0, 78, 83
1, 4199, Note_off_c, 0, 81, 74
1, 4210, Note_off_c, 0, 78, 73
1, 4367, Note_on_c, 0, 78, 73
1, 4392, Note_on_c, 0, 69, 52
1, 4404, Note_off_c, 0, 78, 62
1, 4432, Note_on_c, 0, 76, 70
1, 4462, Note_off_c, 0, 76, 62
1, 4487, Note_on_c, 0, 78, 69
1, 4512, Note_off_c, 0, 78, 70
1, 4533, Note_on_c, 0, 76, 71
1, 4586, Note_off_c, 0, 76, 59
1, 4606, Note_on_c, 0, 78, 52
1, 4628, Note_off_c, 0, 78, 61
1, 4646, Note_on_c, 0, 76, 47
1, 4674, Note_on_c, 0, 78, 71
1, 4674, Note_off_c, 0, 76, 58
1, 4707, Note_off_c, 0, 78, 60
1, 4736, Note_on_c, 0, 76, 76
1, 4783, Note_off_c, 0, 76, 55
1, 4797, Note_on_c, 0, 78, 94
1, 4799, Note_off_c, 0, 69, 46
1, 4805, Note_on_c, 0, 74, 89
1, 4818, Note_off_c, 0, 78, 69
1, 4822, Note_off_c, 0, 74, 73
1, 4955, Note_on_c, 0, 79, 103
1, 4961, Note_on_c, 0, 76, 81
1, 4980, Note_off_c, 0, 79, 64
1, 4984, Note_off_c, 0, 76, 68
1, 5117, Note_on_c, 0, 81, 93
1, 5129, Note_on_c, 0, 78, 76
1, 5139, Note_off_c, 0, 81, 69
1, 5150, Note_off_c, 0, 78, 72
1, 5392, Note_on_c, 0, 78, 53
1, 5423, Note_on_c, 0, 69, 38
1, 5436, Note_off_c, 0, 78, 61
1, 5451, Note_on_c, 0, 76, 53
1, 5484, Note_off_c, 0, 76, 54
1, 5504, Note_on_c, 0, 78, 53
1, 5508, Control_c, 0, 64, 17
1, 5523, Control_c, 0, 64, 27
1, 5537, Control_c, 0, 64, 34
1, 5539, Note_off_c, 0, 78, 66
1, 5552, Control_c, 0, 64, 40
1, 5561, Note_on_c, 0, 76, 58
1, 5567, Control_c, 0, 64, 44
1, 5582, Control_c, 0, 64, 48
1, 5588, Note_off_c, 0, 76, 56
1, 5597, Control_c, 0, 64, 51
1, 5611, Note_on_c, 0, 78, 65
1, 5612, Control_c, 0, 64, 54
1, 5627, Control_c, 0, 64, 57
1, 5639, Note_off_c, 0, 78, 67
1, 5641, Control_c, 0, 64, 58
1, 5656, Control_c, 0, 64, 60
1, 5658, Note_on_c, 0, 76, 70
1, 5671, Control_c, 0, 64, 61
1, 5685, Control_c, 0, 64, 63
1, 5700, Note_off_c, 0, 76, 59
1, 5700, Control_c, 0, 64, 64
1, 5715, Control_c, 0, 64, 65
1, 5717, Note_on_c, 0, 78, 61
1, 5730, Control_c, 0, 64, 66
1, 5740, Note_off_c, 0, 78, 65
1, 5743, Control_c, 0, 64, 68
1, 5758, Control_c, 0, 64, 69
1, 5764, Note_on_c, 0, 76, 63
1, 5773, Control_c, 0, 64, 71
1, 5788, Control_c, 0, 64, 73
1, 5800, Note_off_c, 0, 76, 62
1, 5803, Control_c, 0, 64, 75
1, 5803, Note_on_c, 0, 78, 72
1, 5818, Control_c, 0, 64, 77
1, 5830, Note_off_c, 0, 78, 67
1, 5833, Control_c, 0, 64, 79
1, 5848, Control_c, 0, 64, 80
1, 5862, Control_c, 0, 64, 81
1, 5868, Note_on_c, 0, 76, 66
1, 5877, Control_c, 0, 64, 82
1, 5892, Control_c, 0, 64, 83
1, 5900, Note_off_c, 0, 76, 54
1, 5907, Control_c, 0, 64, 84
1, 5910, Note_on_c, 0, 78, 75
1, 5922, Control_c, 0, 64, 85
1, 5937, Note_off_c, 0, 78, 65
1, 5937, Control_c, 0, 64, 86
1, 5952, Control_c, 0, 64, 87
1, 5967, Control_c, 0, 64, 89
1, 5975, Note_on_c, 0, 76, 72
1, 5979, Note_off_c, 0, 69, 63
1, 5981, Control_c, 0, 64, 90
1, 5996, Control_c, 0, 64, 92
1, 6001, Note_off_c, 0, 76, 59
1, 6008, Note_on_c, 0, 78, 68
1, 6011, Control_c, 0, 64, 94
1, 6024, Note_off_c, 0, 78, 69
1, 6026, Control_c, 0, 64, 96
1, 6041, Control_c, 0, 64, 98
1, 6062, Control_c, 0, 64, 100
1, 6073, Note_on_c, 0, 76, 63
1, 6077, Control_c, 0, 64, 104
1, 6092, Control_c, 0, 64, 108
1, 6100, Note_on_c, 0, 78, 69
1, 6102, Note_off_c, 0, 76, 51
1, 6107, Control_c, 0, 64, 112
1, 6122, Control_c, 0, 64, 116
1, 6128, Note_off_c, 0, 78, 64
1, 6137, Control_c, 0, 64, 120
1, 6152, Control_c, 0, 64, 122
1, 6166, Control_c, 0, 64, 127
1, 6181, Poly_aftertouch_c, 0, 76, 0
1, 6210, Note_on_c, 0, 78, 54
1, 6233, Note_off_c, 0, 78, 60
1, 6275, Note_on_c, 0, 76, 22
1, 6320, Note_off_c, 0, 76, 52
1, 6344, Control_c, 0, 64, 120
1, 6359, Control_c, 0, 64, 114
1, 6374, Control_c, 0, 64, 110
1, 6388, Control_c, 0, 64, 106
1, 6403, Control_c, 0, 64, 103
1, 6418, Control_c, 0, 64, 100
1, 6429, Note_on_c, 0, 50, 47
1, 6433, Control_c, 0, 64, 97
1, 6448, Control_c, 0, 64, 95
1, 6462, Control_c, 0, 64, 93
1, 6477, Control_c, 0, 64, 91
1, 6492, Control_c, 0, 64, 89
1, 6506, Control_c, 0, 64, 87
1, 6521, Control_c, 0, 64, 86
1, 6536, Control_c, 0, 64, 83
1, 6551, Control_c, 0, 64, 81
1, 6566, Control_c, 0, 64, 78
1, 6581, Control_c, 0, 64, 74
1, 6584, Note_on_c, 0, 76, 64
1, 6596, Note_on_c, 0, 62, 49
1, 6596, Control_c, 0, 64, 70
1, 6611, Control_c, 0, 64, 64
1, 6615, Note_off_c, 0, 76, 63
1, 6626, Control_c, 0, 64, 59
1, 6631, Note_on_c, 0, 74, 59
1, 6641, Control_c, 0, 64, 50
1, 6656, Control_c, 0, 64, 45
1, 6658, Note_off_c, 0, 62, 58
1, 6667, Note_off_c, 0, 74, 62
1, 6671, Control_c, 0, 64, 41
1, 6685, Control_c, 0, 64, 35
1, 6694, Note_on_c, 0, 76, 57
1, 6700, Control_c, 0, 64, 25
1, 6715, Control_c, 0, 64, 0
1, 6721, Note_off_c, 0, 76, 57
1, 6725, Note_on_c, 0, 59, 61
1, 6727, Note_on_c, 0, 55, 53
1, 6739, Note_on_c, 0, 74, 62
1, 6752, Note_off_c, 0, 59, 64
1, 6764, Note_off_c, 0, 55, 63
1, 6774, Note_off_c, 0, 74, 62
1, 6807, Note_on_c, 0, 76, 60
1, 6830, Note_off_c, 0, 76, 60
1, 6862, Note_on_c, 0, 74, 64
1, 6864, Note_off_c, 0, 50, 32
1, 6870, Note_on_c, 0, 57, 67
1, 6876, Note_on_c, 0, 54, 54
1, 6888, Note_off_c, 0, 74, 58
1, 6904, Note_on_c, 0, 76, 67
1, 6939, Note_off_c, 0, 76, 59
1, 6949, Note_off_c, 0, 57, 0
1, 6966, Note_on_c, 0, 74, 55
1, 6986, Poly_aftertouch_c, 0, 57, 127
1, 7004, Note_off_c, 0, 74, 64
1, 7018, Note_on_c, 0, 62, 62
1, 7019, Note_on_c, 0, 76, 59
1, 7043, Note_off_c, 0, 76, 62
1, 7052, Poly_aftertouch_c, 0, 57, 0
1, 7055, Note_off_c, 0, 54, 43
1, 7059, Note_off_c, 0, 62, 60
1, 7083, Note_on_c, 0, 74, 49
1, 7106, Note_off_c, 0, 74, 58
1, 7135, Note_on_c, 0, 76, 32
1, 7161, Note_on_c, 0, 55, 61
1, 7162, Note_on_c, 0, 52, 58
1, 7189, Note_off_c, 0, 55, 65
1, 7193, Note_off_c, 0, 52, 65
1, 7205, Note_on_c, 0, 74, 53
1, 7207, Note_off_c, 0, 76, 49
1, 7243, Note_off_c, 0, 74, 66
1, 7296, Note_on_c, 0, 50, 72
1, 7303, Note_on_c, 0, 79, 66
1, 7344, Note_off_c, 0, 79, 58
1, 7366, Note_on_c, 0, 78, 59
1, 7398, Note_off_c, 0, 78, 67
1, 7421, Note_on_c, 0, 79, 58
1, 7456, Note_off_c, 0, 79, 63
1, 7457, Note_on_c, 0, 62, 62
1, 7487, Note_off_c, 0, 62, 64
1, 7489, Note_on_c, 0, 78, 50
1, 7512, Note_off_c, 0, 78, 60
1, 7531, Note_on_c, 0, 79, 66
1, 7565, Note_off_c, 0, 79, 64
1, 7582, Note_on_c, 0, 78, 70
1, 7597, Note_on_c, 0, 55, 70
1, 7602, Note_on_c, 0, 59, 70
1, 7612, Note_off_c, 0, 78, 64
1, 7629, Note_off_c, 0, 59, 67
1, 7637, Note_off_c, 0, 50, 48
1, 7640, Note_off_c, 0, 55, 61
1, 7642, Note_on_c, 0, 79, 69
1, 7672, Note_off_c, 0, 79, 59
1, 7701, Note_on_c, 0, 78, 68
1, 7717, Note_off_c, 0, 78, 66
1, 7735, Note_on_c, 0, 57, 82
1, 7736, Note_on_c, 0, 54, 69
1, 7751, Note_on_c, 0, 79, 75
1, 7779, Note_off_c, 0, 79, 58
1, 7792, Note_on_c, 0, 78, 67
1, 7821, Note_off_c, 0, 78, 67
1, 7848, Note_on_c, 0, 79, 72
1, 7871, Note_on_c, 0, 62, 77
1, 7886, Note_off_c, 0, 79, 59
1, 7892, Note_on_c, 0, 78, 78
1, 7895, Note_off_c, 0, 54, 60
1, 7907, Note_off_c, 0, 57, 62
1, 7917, Note_off_c, 0, 78, 67
1, 7952, Note_on_c, 0, 79, 65
1, 7984, Note_off_c, 0, 79, 63
1, 7985, Note_off_c, 0, 62, 48
1, 7990, Note_on_c, 0, 78, 84
1, 8003, Note_on_c, 0, 52, 73
1, 8007, Note_on_c, 0, 55, 73
1, 8030, Note_off_c, 0, 78, 64
1, 8036, Note_off_c, 0, 55, 66
1, 8041, Note_on_c, 0, 79, 73
1, 8042, Note_off_c, 0, 52, 65
1, 8074, Note_off_c, 0, 79, 61
1, 8133, Note_on_c, 0, 50, 81
1, 8137, Note_on_c, 0, 83, 81
1, 8189, Note_off_c, 0, 83, 62
1, 8199, Note_on_c, 0, 81, 66
1, 8259, Note_off_c, 0, 81, 65
1, 8259, Note_on_c, 0, 83, 78
1, 8302, Note_on_c, 0, 62, 77
1, 8320, Note_off_c, 0, 83, 62
1, 8324, Note_on_c, 0, 81, 73
1, 8338, Note_off_c, 0, 62, 64
1, 8371, Note_off_c, 0, 81, 64
1, 8392, Note_on_c, 0, 83, 76
1, 8438, Note_off_c, 0, 83, 65
1, 8444, Note_on_c, 0, 81, 74
1, 8452, Note_on_c, 0, 55, 72
1, 8452, Note_on_c, 0, 59, 81
1, 8459, Note_off_c, 0, 50, 59
1, 8476, Note_off_c, 0, 59, 68
1, 8489, Note_off_c, 0, 81, 66
1, 8490, Note_off_c, 0, 55, 63
1, 8503, Note_on_c, 0, 83, 72
1, 8553, Note_off_c, 0, 83, 63
1, 8558, Note_on_c, 0, 81, 73
1, 8593, Note_on_c, 0, 57, 91
1, 8596, Note_on_c, 0, 54, 79
1, 8600, Note_off_c, 0, 81, 67
1, 8620, Note_on_c, 0, 83, 71
1, 8667, Note_off_c, 0, 83, 64
1, 8674, Note_on_c, 0, 81, 74
1, 8721, Note_off_c, 0, 81, 66
1, 8738, Note_on_c, 0, 83, 68
1, 8745, Note_on_c, 0, 62, 78
1, 8773, Note_off_c, 0, 54, 61
1, 8774, Note_off_c, 0, 83, 63
1, 8775, Note_on_c, 0, 81, 71
1, 8775, Note_off_c, 0, 57, 62
1, 8822, Note_off_c, 0, 81, 66
1, 8835, Note_on_c, 0, 83, 63
1, 8859, Note_off_c, 0, 62, 48
1, 8873, Note_off_c, 0, 83, 64
1, 8892, Note_on_c, 0, 81, 52
1, 8906, Note_on_c, 0, 52, 62
1, 8907, Note_on_c, 0, 55, 56
1, 8936, Note_off_c, 0, 55, 62
1, 8936, Note_off_c, 0, 52, 65
1, 8945, Note_on_c, 0, 83, 61
1, 8980, Note_off_c, 0, 83, 64
1, 9020, Note_off_c, 0, 81, 61
1, 9060, Note_on_c, 0, 50, 79
1, 9220, Note_on_c, 0, 79, 74
1, 9225, Note_on_c, 0, 76, 69
1, 9243, Note_off_c, 0, 76, 66
1, 9243, Note_off_c, 0, 79, 69
1, 9260, Note_off_c, 0, 50, 67
1, 9372, Note_on_c, 0, 74, 75
1, 9374, Note_on_c, 0, 78, 78
1, 9380, Note_on_c, 0, 62, 72
1, 9395, Note_off_c, 0, 74, 71
1, 9395, Note_off_c, 0, 78, 72
1, 9410, Note_off_c, 0, 62, 63
1, 9520, Note_on_c, 0, 61, 76
1, 9526, Note_on_c, 0, 76, 84
1, 9529, Note_on_c, 0, 79, 80
1, 9550, Note_off_c, 0, 76, 67
1, 9556, Note_off_c, 0, 79, 61
1, 9670, Note_on_c, 0, 76, 77
1, 9672, Note_on_c, 0, 79, 70
1, 9695, Note_off_c, 0, 76, 68
1, 9697, Note_off_c, 0, 79, 67
1, 9811, Note_off_c, 0, 61, 60
1, 9820, Note_on_c, 0, 62, 58
1, 9822, Note_on_c, 0, 74, 62
1, 9827, Note_on_c, 0, 78, 61
1, 9842, Note_off_c, 0, 62, 62
1, 9851, Note_off_c, 0, 74, 67
1, 9857, Note_off_c, 0, 78, 66
1, 9981, Note_on_c, 0, 57, 71
1, 9986, Note_on_c, 0, 69, 73
1, 9988, Note_on_c, 0, 76, 72
1, 9990, Note_on_c, 0, 81, 65
1, 9995, Note_on_c, 0, 45, 46
1, 10013, Note_off_c, 0, 69, 66
1, 10014, Note_off_c, 0, 81, 57
1, 10017, Note_off_c, 0, 76, 67
1, 10036, Note_on_c, 0, 47, 18
1, 10077, Note_off_c, 0, 57, 59
1, 10081, Note_off_c, 0, 47, 28
1, 10104, Note_off_c, 0, 45, 64
1, 10135, Note_on_c, 0, 81, 50
1, 10136, Note_on_c, 0, 69, 63
1, 10136, Note_on_c, 0, 76, 64
1, 10158, Note_off_c, 0, 81, 58
1, 10162, Note_off_c, 0, 69, 66
1, 10164, Note_off_c, 0, 76, 65
1, 10278, Note_on_c, 0, 54, 60
1, 10282, Note_on_c, 0, 69, 58
1, 10284, Note_on_c, 0, 42, 49
1, 10284, Note_on_c, 0, 74, 64
1, 10288, Note_on_c, 0, 81, 47
1, 10307, Note_off_c, 0, 54, 66
1, 10308, Note_off_c, 0, 69, 65
1, 10311, Note_off_c, 0, 74, 68
1, 10313, Note_off_c, 0, 42, 56
1, 10314, Note_off_c, 0, 81, 57
1, 10431, Note_on_c, 0, 69, 67
1, 10434, Note_on_c, 0, 76, 76
1, 10437, Note_on_c, 0, 81, 51
1, 10439, Note_on_c, 0, 57, 74
1, 10442, Note_on_c, 0, 45, 67
1, 10459, Note_off_c, 0, 69, 68
1, 10460, Note_off_c, 0, 81, 59
1, 10465, Note_off_c, 0, 76, 64
1, 10529, Note_off_c, 0, 45, 62
1, 10555, Note_off_c, 0, 57, 63
1, 10589, Note_on_c, 0, 76, 70
1, 10592, Note_on_c, 0, 69, 67
1, 10599, Note_on_c, 0, 81, 43
1, 10615, Note_off_c, 0, 76, 66
1, 10621, Note_off_c, 0, 69, 69
1, 10625, Note_off_c, 0, 81, 56
1, 10735, Note_on_c, 0, 69, 68
1, 10738, Note_on_c, 0, 81, 43
1, 10745, Note_on_c, 0, 50, 48
1, 10745, Note_on_c, 0, 78, 62
1, 10763, Note_off_c, 0, 69, 67
1, 10766, Note_off_c, 0, 81, 57
1, 10768, Note_off_c, 0, 78, 64
1, 10775, Note_off_c, 0, 50, 57
1, 10825, Poly_aftertouch_c, 0, 62, 0
1, 10896, Note_on_c, 0, 69, 70
1, 10897, Note_on_c, 0, 45, 72
1, 10898, Note_on_c, 0, 76, 69
1, 10898, Note_on_c, 0, 81, 51
1, 10903, Note_on_c, 0, 57, 57
1, 10918, Note_off_c, 0, 45, 64
1, 10921, Note_off_c, 0, 81, 61
1, 10924, Note_off_c, 0, 69, 70
1, 10925, Note_off_c, 0, 76, 66
1, 10928, Note_off_c, 0, 57, 58
1, 11043, Note_on_c, 0, 54, 65
1, 11046, Note_on_c, 0, 74, 68
1, 11046, Note_on_c, 0, 69, 69
1, 11047, Note_on_c, 0, 42, 62
1, 11051, Note_on_c, 0, 81, 49
1, 11070, Note_off_c, 0, 54, 66
1, 11070, Note_off_c, 0, 74, 70
1, 11073, Note_off_c, 0, 42, 56
1, 11075, Note_off_c, 0, 69, 67
1, 11076, Note_off_c, 0, 81, 59
1, 11187, Note_on_c, 0, 69, 71
1, 11190, Note_on_c, 0, 76, 77
1, 11191, Note_on_c, 0, 45, 74
1, 11191, Note_on_c, 0, 57, 75
1, 11191, Note_on_c, 0, 81, 52
1, 11209, Note_off_c, 0, 57, 66
1, 11210, Note_off_c, 0, 45, 63
1, 11213, Note_off_c, 0, 69, 71
1, 11213, Note_off_c, 0, 81, 59
1, 11216, Note_off_c, 0, 76, 68
1, 11344, Note_on_c, 0, 69, 85
1, 11345, Note_on_c, 0, 62, 81
1, 11348, Note_on_c, 0, 78, 81
1, 11352, Note_on_c, 0, 50, 75
1, 11353, Note_on_c, 0, 81, 53
1, 11365, Note_off_c, 0, 69, 70
1, 11367, Note_off_c, 0, 62, 69
1, 11371, Note_off_c, 0, 78, 67
1, 11373, Note_off_c, 0, 81, 63
1, 11379, Note_off_c, 0, 50, 66
1, 11493, Note_on_c, 0, 45, 85
1, 11493, Note_on_c, 0, 57, 79
1, 11493, Note_on_c, 0, 81, 71
1, 11496, Note_on_c, 0, 69, 85
1, 11497, Note_on_c, 0, 76, 80
1, 11515, Note_off_c, 0, 45, 68
1, 11515, Note_off_c, 0, 69, 73
1, 11520, Note_off_c, 0, 57, 65
1, 11520, Note_off_c, 0, 76, 69
1, 11520, Note_off_c, 0, 81, 62
1, 11636, Note_on_c, 0, 54, 83
1, 11638, Note_on_c, 0, 42, 79
1, 11640, Note_on_c, 0, 69, 89
1, 11642, Note_on_c, 0, 74, 85
1, 11646, Note_on_c, 0, 81, 72
1, 11659, Note_off_c, 0, 54, 69
1, 11660, Note_off_c, 0, 69, 71
1, 11660, Note_off_c, 0, 74, 73
1, 11660, Note_off_c, 0, 81, 68
1, 11668, Note_off_c, 0, 42, 66
1, 11799, Note_on_c, 0, 76, 100
1, 11800, Note_on_c, 0, 57, 92
1, 11801, Note_on_c, 0, 69, 95
1, 11801, Note_on_c, 0, 81, 83
1, 11803, Note_on_c, 0, 45, 91
1, 11821, Note_off_c, 0, 57, 71
1, 11822, Note_off_c, 0, 69, 66
1, 11825, Note_off_c, 0, 81, 67
1, 11827, Note_off_c, 0, 45, 69
1, 11835, Note_off_c, 0, 76, 63
1, 11955, Note_on_c, 0, 69, 93
1, 11955, Note_on_c, 0, 42, 94
1, 11955, Note_on_c, 0, 54, 90
1, 11956, Note_on_c, 0, 81, 91
1, 11958, Note_on_c, 0, 74, 83
1, 11976, Note_off_c, 0, 81, 67
1, 11978, Note_off_c, 0, 69, 67
1, 11978, Note_off_c, 0, 74, 71
1, 11982, Note_off_c, 0, 42, 67
1, 11984, Note_off_c, 0, 54, 62
1, 12119, Note_on_c, 0, 57, 91
1, 12119, Note_on_c, 0, 69, 92
1, 12120, Note_on_c, 0, 76, 94
1, 12122, Note_on_c, 0, 81, 90
1, 12122, Note_on_c, 0, 45, 91
1, 12143, Note_off_c, 0, 81, 65
1, 12145, Note_off_c, 0, 45, 69
1, 12148, Note_off_c, 0, 69, 62
1, 12148, Note_off_c, 0, 57, 66
1, 12159, Note_off_c, 0, 76, 62
1, 12279, Note_on_c, 0, 69, 96
1, 12280, Note_on_c, 0, 62, 96
1, 12283, Note_on_c, 0, 50, 97
1, 12283, Note_on_c, 0, 81, 90
1, 12285, Note_on_c, 0, 78, 88
1, 12298, Note_off_c, 0, 62, 71
1, 12313, Note_off_c, 0, 50, 67
1, 12313, Note_off_c, 0, 69, 66
1, 12316, Note_off_c, 0, 81, 62
1, 12321, Note_off_c, 0, 78, 64
1, 12444, Note_on_c, 0, 57, 94
1, 12444, Note_on_c, 0, 45, 91
1, 12451, Note_on_c, 0, 69, 89
1, 12453, Note_on_c, 0, 76, 90
1, 12453, Note_on_c, 0, 81, 87
1, 12465, Note_off_c, 0, 57, 70
1, 12479, Note_off_c, 0, 45, 63
1, 12480, Note_off_c, 0, 81, 63
1, 12491, Note_off_c, 0, 69, 65
1, 12494, Note_off_c, 0, 76, 63
1, 12502, Note_on_c, 0, 71, 17
1, 12503, Note_off_c, 0, 71, 127
1, 12618, Note_on_c, 0, 50, 95
1, 12623, Note_on_c, 0, 38, 93
1, 12627, Note_on_c, 0, 69, 89
1, 12630, Note_on_c, 0, 81, 85
1, 12631, Note_on_c, 0, 74, 86
1, 12644, Note_off_c, 0, 50, 69
1, 12664, Note_off_c, 0, 69, 66
1, 12666, Note_off_c, 0, 38, 61
1, 12668, Note_off_c, 0, 81, 64
1, 12671, Note_off_c, 0, 74, 66
1, 12865, Note_on_c, 0, 78, 94
1, 12868, Note_on_c, 0, 33, 84
1, 12869, Note_on_c, 0, 45, 80
1, 12980, Note_off_c, 0, 78, 62
1, 12981, Control_c, 0, 64, 13
1, 12996, Control_c, 0, 64, 26
1, 13011, Note_on_c, 0, 76, 74
1, 13011, Control_c, 0, 64, 35
1, 13026, Control_c, 0, 64, 42
1, 13041, Control_c, 0, 64, 48
1, 13053, Note_off_c, 0, 76, 57
1, 13055, Control_c, 0, 64, 53
1, 13070, Control_c, 0, 64, 57
1, 13079, Note_on_c, 0, 78, 78
1, 13085, Control_c, 0, 64, 59
1, 13100, Control_c, 0, 64, 61
1, 13108, Note_off_c, 0, 78, 62
1, 13115, Control_c, 0, 64, 63
1, 13130, Control_c, 0, 64, 64
1, 13136, Note_on_c, 0, 76, 75
1, 13145, Control_c, 0, 64, 66
1, 13160, Control_c, 0, 64, 68
1, 13163, Note_off_c, 0, 76, 61
1, 13175, Control_c, 0, 64, 70
1, 13189, Note_on_c, 0, 78, 77
1, 13189, Control_c, 0, 64, 73
1, 13204, Control_c, 0, 64, 76
1, 13219, Control_c, 0, 64, 78
1, 13222, Note_off_c, 0, 78, 61
1, 13232, Note_on_c, 0, 76, 75
1, 13233, Control_c, 0, 64, 80
1, 13247, Control_c, 0, 64, 81
1, 13262, Control_c, 0, 64, 83
1, 13270, Note_off_c, 0, 76, 57
1, 13277, Control_c, 0, 64, 86
1, 13283, Note_on_c, 0, 78, 82
1, 13292, Control_c, 0, 64, 90
1, 13306, Control_c, 0, 64, 93
1, 13321, Control_c, 0, 64, 95
1, 13327, Note_off_c, 0, 78, 62
1, 13336, Control_c, 0, 64, 96
1, 13345, Note_on_c, 0, 76, 76
1, 13351, Control_c, 0, 64, 97
1, 13365, Control_c, 0, 64, 100
1, 13371, Note_off_c, 0, 76, 59
1, 13379, Note_on_c, 0, 78, 82
1, 13380, Control_c, 0, 64, 103
1, 13395, Control_c, 0, 64, 106
1, 13410, Control_c, 0, 64, 111
1, 13425, Control_c, 0, 64, 121
1, 13431, Note_off_c, 0, 78, 64
1, 13437, Note_on_c, 0, 76, 80
1, 13440, Control_c, 0, 64, 127
1, 13478, Note_on_c, 0, 78, 84
1, 13482, Note_off_c, 0, 76, 60
1, 13535, Note_off_c, 0, 78, 63
1, 13556, Note_on_c, 0, 76, 79
1, 13589, Note_off_c, 0, 76, 56
1, 13595, Note_on_c, 0, 78, 76
1, 13641, Note_off_c, 0, 78, 63
1, 13647, Note_on_c, 0, 76, 83
1, 13665, Note_off_c, 0, 45, 31
1, 13675, Note_off_c, 0, 33, 56
1, 13693, Note_on_c, 0, 78, 82
1, 13697, Note_off_c, 0, 76, 63
1, 13748, Note_off_c, 0, 78, 63
1, 13757, Note_on_c, 0, 76, 82
1, 13795, Note_off_c, 0, 76, 59
1, 13797, Note_on_c, 0, 78, 76
1, 13844, Note_off_c, 0, 78, 64
1, 13851, Note_on_c, 0, 76, 74
1, 13884, Note_on_c, 0, 78, 77
1, 13896, Note_off_c, 0, 76, 60
1, 13932, Note_off_c, 0, 78, 65
1, 13940, Note_on_c, 0, 76, 80
1, 13988, Note_off_c, 0, 76, 65
1, 14433, Control_c, 0, 64, 115
1, 14447, Control_c, 0, 64, 110
1, 14462, Control_c, 0, 64, 105
1, 14477, Control_c, 0, 64, 100
1, 14492, Control_c, 0, 64, 95
1, 14507, Control_c, 0, 64, 90
1, 14522, Control_c, 0, 64, 86
1, 14537, Control_c, 0, 64, 80
1, 14552, Control_c, 0, 64, 76
1, 14567, Control_c, 0, 64, 70
1, 14582, Control_c, 0, 64, 64
1, 14596, Control_c, 0, 64, 53
1, 14611, Control_c, 0, 64, 25
1, 14626, Control_c, 0, 64, 0
1, 15115, Note_on_c, 0, 71, 61
1, 15120, Note_on_c, 0, 57, 61
1, 15120, Note_on_c, 0, 61, 65
1, 15145, Note_off_c, 0, 71, 68
1, 15148, Note_off_c, 0, 61, 66
1, 15154, Note_off_c, 0, 57, 65
1, 15160, Note_on_c, 0, 69, 67
1, 15188, Note_off_c, 0, 69, 69
1, 15208, Note_on_c, 0, 71, 74
1, 15230, Note_off_c, 0, 71, 70
1, 15255, Note_on_c, 0, 69, 66
1, 15263, Note_on_c, 0, 62, 65
1, 15266, Note_on_c, 0, 59, 61
1, 15285, Note_off_c, 0, 69, 66
1, 15291, Note_off_c, 0, 62, 66
1, 15295, Note_off_c, 0, 59, 66
1, 15310, Note_on_c, 0, 71, 67
1, 15354, Note_off_c, 0, 71, 56
1, 15376, Note_on_c, 0, 73, 78
1, 15392, Note_on_c, 0, 61, 60
1, 15396, Note_on_c, 0, 64, 71
1, 15415, Note_off_c, 0, 61, 62
1, 15416, Note_off_c, 0, 73, 61
1, 15422, Note_on_c, 0, 74, 65
1, 15424, Note_off_c, 0, 64, 68
1, 15471, Note_off_c, 0, 74, 64
1, 15488, Note_on_c, 0, 76, 74
1, 15553, Note_on_c, 0, 78, 84
1, 15554, Note_off_c, 0, 76, 63
1, 15559, Note_on_c, 0, 66, 58
1, 15571, Note_off_c, 0, 78, 73
1, 15575, Note_on_c, 0, 62, 30
1, 15717, Note_on_c, 0, 74, 80
1, 15739, Note_off_c, 0, 74, 71
1, 15771, Note_off_c, 0, 66, 59
1, 15798, Note_off_c, 0, 62, 54
1, 15880, Note_on_c, 0, 71, 69
1, 15904, Note_off_c, 0, 71, 70
1, 16029, Note_on_c, 0, 69, 76
1, 16038, Note_on_c, 0, 59, 67
1, 16040, Note_on_c, 0, 62, 62
1, 16068, Note_off_c, 0, 62, 66
1, 16071, Note_off_c, 0, 69, 67
1, 16076, Note_off_c, 0, 59, 61
1, 16080, Note_on_c, 0, 68, 70
1, 16109, Note_off_c, 0, 68, 62
1, 16130, Note_on_c, 0, 69, 68
1, 16157, Note_off_c, 0, 69, 69
1, 16158, Note_on_c, 0, 68, 56
1, 16181, Note_on_c, 0, 61, 72
1, 16187, Note_on_c, 0, 64, 72
1, 16213, Note_off_c, 0, 64, 69
1, 16218, Note_off_c, 0, 61, 64
1, 16221, Note_off_c, 0, 68, 65
1, 16224, Note_on_c, 0, 69, 77
1, 16269, Note_off_c, 0, 69, 62
1, 16302, Note_on_c, 0, 71, 76
1, 16314, Note_on_c, 0, 66, 79
1, 16324, Note_on_c, 0, 62, 58
1, 16338, Note_off_c, 0, 71, 61
1, 16340, Note_off_c, 0, 66, 65
1, 16346, Note_on_c, 0, 73, 72
1, 16355, Note_off_c, 0, 62, 65
1, 16397, Note_off_c, 0, 73, 66
1, 16412, Note_on_c, 0, 74, 67
1, 16472, Note_off_c, 0, 74, 40
1, 16486, Note_on_c, 0, 76, 81
1, 16495, Note_on_c, 0, 64, 56
1, 16496, Note_on_c, 0, 61, 56
1, 16507, Note_off_c, 0, 76, 70
1, 16661, Note_on_c, 0, 73, 66
1, 16668, Note_off_c, 0, 64, 62
1, 16678, Note_off_c, 0, 73, 64
1, 16685, Note_off_c, 0, 61, 56
1, 16813, Note_on_c, 0, 69, 64
1, 16842, Note_off_c, 0, 69, 68
1, 16957, Note_on_c, 0, 68, 72
1, 16972, Note_on_c, 0, 61, 65
1, 16975, Note_on_c, 0, 57, 60
1, 16998, Note_off_c, 0, 68, 66
1, 17000, Note_off_c, 0, 61, 66
1, 17008, Note_off_c, 0, 57, 65
1, 17013, Note_on_c, 0, 66, 71
1, 17042, Note_off_c, 0, 66, 63
1, 17059, Note_on_c, 0, 68, 66
1, 17081, Note_off_c, 0, 68, 71
1, 17099, Note_on_c, 0, 66, 58
1, 17112, Note_on_c, 0, 59, 68
1, 17113, Note_on_c, 0, 62, 67
1, 17139, Note_off_c, 0, 59, 67
1, 17139, Note_off_c, 0, 66, 65
1, 17143, Note_off_c, 0, 62, 65
1, 17161, Note_on_c, 0, 68, 69
1, 17241, Note_on_c, 0, 69, 68
1, 17252, Note_on_c, 0, 61, 71
1, 17258, Note_on_c, 0, 64, 59
1, 17271, Note_off_c, 0, 68, 56
1, 17279, Note_off_c, 0, 61, 66
1, 17279, Note_off_c, 0, 64, 66
1, 17294, Note_off_c, 0, 69, 64
1, 17306, Note_on_c, 0, 71, 60
1, 17341, Note_off_c, 0, 71, 65
1, 17359, Note_on_c, 0, 73, 61
1, 17390, Note_off_c, 0, 73, 64
1, 17434, Note_on_c, 0, 62, 56
1, 17439, Note_on_c, 0, 59, 54
1, 17452, Note_on_c, 0, 74, 80
1, 17471, Note_off_c, 0, 74, 73
1, 17607, Note_on_c, 0, 71, 74
1, 17631, Note_off_c, 0, 71, 71
1, 17661, Note_off_c, 0, 62, 55
1, 17670, Note_off_c, 0, 59, 55
1, 17756, Note_on_c, 0, 68, 67
1, 17783, Note_off_c, 0, 68, 69
1, 17910, Note_on_c, 0, 66, 59
1, 17914, Note_on_c, 0, 56, 61
1, 17923, Note_on_c, 0, 59, 55
1, 17942, Note_off_c, 0, 66, 66
1, 17947, Note_off_c, 0, 59, 62
1, 17952, Note_off_c, 0, 56, 63
1, 17974, Note_on_c, 0, 64, 45
1, 18000, Note_off_c, 0, 64, 57
1, 18007, Note_on_c, 0, 66, 70
1, 18030, Note_off_c, 0, 66, 70
1, 18059, Note_on_c, 0, 64, 70
1, 18073, Note_on_c, 0, 57, 69
1, 18084, Note_on_c, 0, 61, 55
1, 18087, Note_off_c, 0, 64, 68
1, 18102, Note_off_c, 0, 57, 66
1, 18111, Note_off_c, 0, 61, 64
1, 18155, Note_on_c, 0, 66, 73
1, 18194, Note_off_c, 0, 66, 59
1, 18203, Note_on_c, 0, 68, 68
1, 18214, Note_on_c, 0, 59, 66
1, 18215, Note_on_c, 0, 62, 55
1, 18230, Note_off_c, 0, 68, 67
1, 18236, Note_off_c, 0, 62, 61
1, 18237, Note_on_c, 0, 69, 71
1, 18242, Note_off_c, 0, 59, 66
1, 18306, Note_off_c, 0, 69, 64
1, 18334, Note_on_c, 0, 71, 59
1, 18361, Note_on_c, 0, 61, 81
1, 18370, Note_on_c, 0, 73, 80
1, 18372, Note_off_c, 0, 71, 65
1, 18391, Note_off_c, 0, 73, 71
1, 18398, Note_off_c, 0, 61, 62
1, 18447, Note_on_c, 0, 73, 90
1, 18469, Note_off_c, 0, 73, 67
1, 18523, Note_on_c, 0, 57, 65
1, 18526, Note_on_c, 0, 73, 55
1, 18546, Note_off_c, 0, 73, 62
1, 18555, Note_off_c, 0, 57, 65
1, 18586, Note_on_c, 0, 73, 82
1, 18606, Note_off_c, 0, 73, 72
1, 18648, Note_on_c, 0, 56, 63
1, 18654, Note_on_c, 0, 73, 82
1, 18674, Note_off_c, 0, 73, 68
1, 18678, Note_off_c, 0, 56, 66
1, 18734, Note_on_c, 0, 73, 86
1, 18754, Note_off_c, 0, 73, 70
1, 18799, Note_on_c, 0, 54, 78
1, 18818, Note_on_c, 0, 73, 79
1, 18821, Note_off_c, 0, 54, 68
1, 18840, Note_off_c, 0, 73, 68
1, 18889, Note_on_c, 0, 73, 79
1, 18914, Note_off_c, 0, 73, 68
1, 18956, Note_on_c, 0, 73, 81
1, 18959, Note_on_c, 0, 66, 80
1, 18978, Note_off_c, 0, 66, 71
1, 18987, Note_off_c, 0, 73, 61
1, 19023, Note_on_c, 0, 73, 60
1, 19053, Note_off_c, 0, 73, 66
1, 19098, Note_on_c, 0, 64, 76
1, 19101, Note_on_c, 0, 73, 67
1, 19122, Note_off_c, 0, 64, 70
1, 19124, Note_off_c, 0, 73, 64
1, 19181, Note_on_c, 0, 73, 75
1, 19243, Note_off_c, 0, 73, 55
1, 19267, Note_on_c, 0, 63, 61
1, 19278, Note_on_c, 0, 78, 73
1, 19414, Note_off_c, 0, 78, 56
1, 19435, Note_on_c, 0, 71, 68
1, 19460, Note_off_c, 0, 71, 70
1, 19587, Note_on_c, 0, 69, 68
1, 19591, Note_on_c, 0, 59, 51
1, 19599, Note_off_c, 0, 63, 50
1, 19614, Note_off_c, 0, 69, 69
1, 19706, Note_off_c, 0, 59, 61
1, 19749, Note_on_c, 0, 71, 85
1, 19768, Note_off_c, 0, 71, 72
1, 19825, Note_on_c, 0, 71, 81
1, 19843, Note_off_c, 0, 71, 74
1, 19899, Note_on_c, 0, 71, 87
1, 19905, Note_on_c, 0, 68, 71
1, 19922, Note_off_c, 0, 71, 66
1, 19928, Note_off_c, 0, 68, 72
1, 19997, Note_on_c, 0, 71, 53
1, 19998, Note_off_c, 0, 71, 127
1, 20054, Note_on_c, 0, 71, 83
1, 20055, Note_on_c, 0, 66, 73
1, 20074, Note_off_c, 0, 71, 70
1, 20078, Note_off_c, 0, 66, 68
1, 20132, Note_on_c, 0, 71, 75
1, 20150, Note_off_c, 0, 71, 65
1, 20201, Note_on_c, 0, 71, 93
1, 20205, Note_on_c, 0, 64, 71
1, 20230, Note_off_c, 0, 71, 63
1, 20232, Note_off_c, 0, 64, 69
1, 20293, Note_on_c, 0, 71, 63
1, 20318, Note_off_c, 0, 71, 65
1, 20362, Note_on_c, 0, 71, 80
1, 20369, Note_on_c, 0, 68, 75
1, 20382, Note_off_c, 0, 71, 70
1, 20393, Note_off_c, 0, 68, 71
1, 20432, Note_on_c, 0, 71, 72
1, 20454, Note_off_c, 0, 71, 70
1, 20505, Note_on_c, 0, 71, 70
1, 20520, Note_on_c, 0, 62, 61
1, 20530, Note_off_c, 0, 71, 68
1, 20541, Note_off_c, 0, 62, 63
1, 20573, Note_on_c, 0, 71, 66
1, 20677, Note_on_c, 0, 80, 74
1, 20689, Note_off_c, 0, 71, 48
1, 20815, Note_off_c, 0, 80, 59
1, 20840, Note_on_c, 0, 61, 52
1, 20845, Note_on_c, 0, 73, 63
1, 20874, Note_off_c, 0, 73, 64
1, 20988, Note_on_c, 0, 71, 61
1, 20991, Note_off_c, 0, 61, 46
1, 21005, Note_on_c, 0, 65, 48
1, 21018, Note_off_c, 0, 71, 67
1, 21130, Note_off_c, 0, 65, 63
1, 21154, Note_on_c, 0, 69, 78
1, 21178, Note_off_c, 0, 69, 67
1, 21235, Note_on_c, 0, 69, 56
1, 21258, Note_off_c, 0, 69, 63
1, 21300, Note_on_c, 0, 66, 73
1, 21300, Note_on_c, 0, 69, 86
1, 21320, Note_off_c, 0, 69, 68
1, 21324, Note_off_c, 0, 66, 67
1, 21384, Note_on_c, 0, 69, 66
1, 21400, Note_off_c, 0, 69, 70
1, 21447, Note_on_c, 0, 64, 67
1, 21449, Note_on_c, 0, 69, 83
1, 21473, Note_off_c, 0, 64, 66
1, 21476, Note_off_c, 0, 69, 62
1, 21531, Note_on_c, 0, 69, 66
1, 21547, Note_off_c, 0, 69, 69
1, 21600, Note_on_c, 0, 69, 74
1, 21602, Note_on_c, 0, 63, 70
1, 21627, Note_off_c, 0, 69, 61
1, 21628, Note_off_c, 0, 63, 68
1, 21686, Note_on_c, 0, 69, 57
1, 21705, Note_off_c, 0, 69, 66
1, 21764, Note_on_c, 0, 66, 64
1, 21766, Note_on_c, 0, 69, 67
1, 21792, Note_off_c, 0, 66, 66
1, 21795, Note_off_c, 0, 69, 58
1, 21850, Note_on_c, 0, 69, 43
1, 21893, Note_off_c, 0, 69, 0
1, 21906, Note_on_c, 0, 69, 58
1, 21924, Note_on_c, 0, 61, 55
1, 21926, Note_off_c, 0, 69, 65
1, 21946, Note_off_c, 0, 61, 61
1, 21992, Note_on_c, 0, 69, 65
1, 22080, Note_on_c, 0, 78, 65
1, 22087, Note_off_c, 0, 69, 53
1, 22232, Note_off_c, 0, 78, 60
1, 22242, Note_on_c, 0, 59, 45
1, 22244, Note_on_c, 0, 71, 60
1, 22263, Note_off_c, 0, 71, 65
1, 22268, Note_off_c, 0, 59, 55
1, 22377, Note_on_c, 0, 69, 60
1, 22384, Note_on_c, 0, 63, 60
1, 22406, Note_off_c, 0, 63, 63
1, 22409, Note_off_c, 0, 69, 67
1, 22556, Note_on_c, 0, 68, 58
1, 22570, Note_on_c, 0, 64, 50
1, 22595, Note_off_c, 0, 68, 65
1, 22627, Note_on_c, 0, 71, 57
1, 22651, Note_off_c, 0, 64, 52
1, 22687, Note_off_c, 0, 71, 51
1, 22706, Note_on_c, 0, 69, 55
1, 22752, Note_off_c, 0, 69, 57
1, 22779, Note_on_c, 0, 68, 59
1, 22814, Note_off_c, 0, 68, 66
1, 22844, Note_on_c, 0, 56, 52
1, 22858, Note_on_c, 0, 66, 54
1, 22884, Note_off_c, 0, 56, 63
1, 22892, Note_off_c, 0, 66, 66
1, 22943, Note_on_c, 0, 64, 41
1, 22970, Note_off_c, 0, 64, 56
1, 23014, Note_on_c, 0, 57, 63
1, 23016, Note_on_c, 0, 73, 71
1, 23039, Note_on_c, 0, 64, 29
1, 23041, Note_off_c, 0, 73, 69
1, 23057, Note_off_c, 0, 57, 62
1, 23096, Note_on_c, 0, 73, 68
1, 23151, Note_off_c, 0, 73, 59
1, 23178, Note_on_c, 0, 71, 65
1, 23209, Note_off_c, 0, 71, 63
1, 23215, Note_off_c, 0, 64, 42
1, 23252, Note_on_c, 0, 69, 58
1, 23292, Note_off_c, 0, 69, 62
1, 23334, Note_on_c, 0, 54, 49
1, 23342, Note_on_c, 0, 68, 59
1, 23363, Note_off_c, 0, 54, 63
1, 23372, Note_off_c, 0, 68, 68
1, 23422, Note_on_c, 0, 66, 56
1, 23443, Note_off_c, 0, 66, 61
1, 23488, Note_on_c, 0, 71, 73
1, 23494, Note_on_c, 0, 56, 65
1, 23503, Note_on_c, 0, 64, 60
1, 23521, Note_off_c, 0, 71, 52
1, 23577, Poly_aftertouch_c, 0, 71, 0
1, 23580, Note_off_c, 0, 56, 58
1, 23633, Note_off_c, 0, 64, 52
1, 23645, Note_on_c, 0, 69, 63
1, 23670, Note_off_c, 0, 69, 62
1, 23712, Note_on_c, 0, 68, 71
1, 23743, Note_off_c, 0, 68, 62
1, 23790, Note_on_c, 0, 66, 74
1, 23804, Note_on_c, 0, 52, 61
1, 23820, Note_off_c, 0, 66, 62
1, 23839, Note_off_c, 0, 52, 63
1, 23867, Note_on_c, 0, 64, 67
1, 23894, Note_off_c, 0, 64, 69
1, 23952, Note_on_c, 0, 64, 76
1, 23953, Note_on_c, 0, 73, 83
1, 23958, Note_on_c, 0, 57, 77
1, 23993, Note_off_c, 0, 73, 62
1, 24028, Note_on_c, 0, 73, 71
1, 24046, Note_off_c, 0, 57, 60
1, 24088, Note_off_c, 0, 73, 62
1, 24102, Note_off_c, 0, 64, 56
1, 24108, Note_on_c, 0, 71, 82
1, 24149, Note_off_c, 0, 71, 62
1, 24183, Note_on_c, 0, 69, 76
1, 24216, Note_off_c, 0, 69, 60
1, 24253, Note_on_c, 0, 54, 81
1, 24275, Note_on_c, 0, 68, 72
1, 24290, Note_off_c, 0, 54, 65
1, 24302, Note_off_c, 0, 68, 67
1, 24338, Note_on_c, 0, 66, 77
1, 24353, Note_off_c, 0, 66, 69
1, 24419, Note_on_c, 0, 64, 83
1, 24425, Note_on_c, 0, 56, 82
1, 24427, Note_on_c, 0, 76, 94
1, 24451, Note_off_c, 0, 76, 67
1, 24466, Note_off_c, 0, 64, 63
1, 24481, Note_off_c, 0, 56, 62
1, 24505, Note_on_c, 0, 76, 86
1, 24551, Note_off_c, 0, 76, 60
1, 24578, Note_on_c, 0, 75, 84
1, 24647, Note_on_c, 0, 73, 85
1, 24654, Note_off_c, 0, 75, 62
1, 24702, Note_off_c, 0, 73, 64
1, 24720, Note_on_c, 0, 71, 71
1, 24722, Note_on_c, 0, 57, 82
1, 24744, Note_off_c, 0, 71, 70
1, 24752, Note_off_c, 0, 57, 66
1, 24801, Note_on_c, 0, 69, 74
1, 24857, Note_off_c, 0, 69, 61
1, 24875, Note_on_c, 0, 68, 78
1, 24902, Note_on_c, 0, 59, 88
1, 24938, Note_off_c, 0, 59, 64
1, 24945, Note_off_c, 0, 68, 62
1, 24962, Note_on_c, 0, 69, 72
1, 25027, Note_off_c, 0, 69, 62
1, 25039, Note_on_c, 0, 71, 69
1, 25080, Note_off_c, 0, 71, 59
1, 25128, Note_on_c, 0, 64, 60
1, 25163, Note_off_c, 0, 64, 59
1, 25201, Note_on_c, 0, 47, 56
1, 25205, Note_on_c, 0, 66, 68
1, 25226, Note_off_c, 0, 47, 58
1, 25244, Note_off_c, 0, 66, 64
1, 25292, Note_on_c, 0, 63, 52
1, 25359, Note_off_c, 0, 63, 53
1, 25406, Note_on_c, 0, 40, 45
1, 25408, Note_on_c, 0, 64, 51
1, 25576, Control_c, 0, 64, 34
1, 25591, Control_c, 0, 64, 46
1, 25600, Note_off_c, 0, 64, 61
1, 25605, Control_c, 0, 64, 54
1, 25620, Control_c, 0, 64, 58
1, 25635, Control_c, 0, 64, 60
1, 25650, Control_c, 0, 64, 63
1, 25665, Control_c, 0, 64, 65
1, 25679, Control_c, 0, 64, 68
1, 25694, Control_c, 0, 64, 72
1, 25709, Control_c, 0, 64, 76
1, 25724, Control_c, 0, 64, 80
1, 25739, Control_c, 0, 64, 84
1, 25754, Control_c, 0, 64, 90
1, 25766, Note_on_c, 0, 76, 97
1, 25769, Control_c, 0, 64, 97
1, 25784, Control_c, 0, 64, 107
1, 25799, Control_c, 0, 64, 127
1, 25805, Note_off_c, 0, 76, 63
1, 25808, Note_off_c, 0, 40, 52
1, 25981, Note_on_c, 0, 76, 79
1, 25997, Note_on_c, 0, 77, 78
1, 26001, Note_on_c, 0, 40, 45
1, 26036, Control_c, 0, 64, 102
1, 26051, Control_c, 0, 64, 86
1, 26061, Note_off_c, 0, 76, 62
1, 26066, Control_c, 0, 64, 74
1, 26081, Control_c, 0, 64, 63
1, 26096, Control_c, 0, 64, 48
1, 26110, Control_c, 0, 64, 40
1, 26125, Control_c, 0, 64, 45
1, 26140, Control_c, 0, 64, 52
1, 26155, Control_c, 0, 64, 56
1, 26170, Control_c, 0, 64, 58
1, 26183, Note_on_c, 0, 74, 52
1, 26184, Control_c, 0, 64, 60
1, 26199, Control_c, 0, 64, 62
1, 26214, Control_c, 0, 64, 64
1, 26228, Control_c, 0, 64, 67
1, 26243, Control_c, 0, 64, 71
1, 26258, Control_c, 0, 64, 75
1, 26281, Control_c, 0, 64, 80
1, 26296, Control_c, 0, 64, 85
1, 26310, Control_c, 0, 64, 89
1, 26325, Control_c, 0, 64, 94
1, 26338, Note_off_c, 0, 74, 64
1, 26340, Note_on_c, 0, 76, 78
1, 26340, Control_c, 0, 64, 100
1, 26352, Note_on_c, 0, 72, 69
1, 26355, Control_c, 0, 64, 107
1, 26359, Note_off_c, 0, 77, 60
1, 26370, Control_c, 0, 64, 114
1, 26384, Control_c, 0, 64, 122
1, 26392, Note_off_c, 0, 76, 63
1, 26399, Control_c, 0, 64, 127
1, 26410, Note_off_c, 0, 72, 61
1, 26416, Note_off_c, 0, 40, 34
1, 26458, Control_c, 0, 64, 123
1, 26473, Control_c, 0, 64, 108
1, 26488, Control_c, 0, 64, 94
1, 26501, Note_on_c, 0, 72, 79
1, 26502, Control_c, 0, 64, 77
1, 26504, Note_on_c, 0, 74, 75
1, 26517, Note_on_c, 0, 40, 57
1, 26517, Control_c, 0, 64, 65
1, 26532, Control_c, 0, 64, 51
1, 26547, Control_c, 0, 64, 41
1, 26556, Note_off_c, 0, 72, 58
1, 26562, Control_c, 0, 64, 46
1, 26577, Control_c, 0, 64, 53
1, 26592, Control_c, 0, 64, 58
1, 26607, Control_c, 0, 64, 63
1, 26622, Control_c, 0, 64, 64
1, 26637, Control_c, 0, 64, 63
1, 26651, Control_c, 0, 64, 58
1, 26666, Control_c, 0, 64, 49
1, 26678, Note_on_c, 0, 71, 61
1, 26681, Control_c, 0, 64, 38
1, 26696, Control_c, 0, 64, 33
1, 26711, Control_c, 0, 64, 34
1, 26726, Control_c, 0, 64, 38
1, 26741, Control_c, 0, 64, 42
1, 26756, Control_c, 0, 64, 45
1, 26770, Control_c, 0, 64, 49
1, 26785, Control_c, 0, 64, 54
1, 26800, Control_c, 0, 64, 57
1, 26815, Control_c, 0, 64, 60
1, 26828, Note_off_c, 0, 71, 64
1, 26829, Note_on_c, 0, 72, 74
1, 26830, Control_c, 0, 64, 63
1, 26841, Note_off_c, 0, 74, 63
1, 26843, Note_on_c, 0, 69, 65
1, 26845, Control_c, 0, 64, 66
1, 26859, Control_c, 0, 64, 68
1, 26874, Control_c, 0, 64, 71
1, 26884, Note_off_c, 0, 72, 62
1, 26887, Note_off_c, 0, 40, 51
1, 26889, Control_c, 0, 64, 73
1, 26904, Control_c, 0, 64, 74
1, 26907, Note_off_c, 0, 69, 61
1, 26948, Control_c, 0, 64, 74
1, 26963, Control_c, 0, 64, 72
1, 26978, Control_c, 0, 64, 68
1, 26985, Note_on_c, 0, 69, 72
1, 26993, Control_c, 0, 64, 64
1, 26994, Note_on_c, 0, 71, 77
1, 27006, Note_on_c, 0, 40, 55
1, 27007, Control_c, 0, 64, 59
1, 27030, Control_c, 0, 64, 51
1, 27044, Note_off_c, 0, 69, 63
1, 27045, Control_c, 0, 64, 40
1, 27059, Control_c, 0, 64, 22
1, 27074, Control_c, 0, 64, 0
1, 27162, Note_on_c, 0, 67, 65
1, 27203, Note_off_c, 0, 67, 63
1, 27323, Note_on_c, 0, 65, 60
1, 27325, Note_on_c, 0, 69, 67
1, 27348, Note_off_c, 0, 40, 35
1, 27372, Note_off_c, 0, 71, 57
1, 27429, Note_off_c, 0, 65, 33
1, 27495, Note_on_c, 0, 40, 33
1, 27509, Note_on_c, 0, 64, 43
1, 27672, Note_on_c, 0, 68, 59
1, 27705, Note_off_c, 0, 69, 61
1, 27707, Note_off_c, 0, 64, 44
1, 27712, Control_c, 0, 64, 31
1, 27727, Control_c, 0, 64, 43
1, 27742, Control_c, 0, 64, 52
1, 27757, Control_c, 0, 64, 57
1, 27779, Control_c, 0, 64, 60
1, 27794, Control_c, 0, 64, 62
1, 27808, Control_c, 0, 64, 64
1, 27811, Note_off_c, 0, 68, 64
1, 27823, Note_on_c, 0, 64, 52
1, 27823, Control_c, 0, 64, 66
1, 27838, Control_c, 0, 64, 69
1, 27853, Control_c, 0, 64, 71
1, 27868, Control_c, 0, 64, 73
1, 27873, Note_off_c, 0, 64, 59
1, 27874, Note_off_c, 0, 40, 39
1, 27882, Control_c, 0, 64, 73
1, 27942, Control_c, 0, 64, 73
1, 27957, Control_c, 0, 64, 72
1, 27972, Control_c, 0, 64, 71
1, 27987, Control_c, 0, 64, 69
1, 27994, Note_on_c, 0, 40, 42
1, 27996, Note_on_c, 0, 64, 58
1, 28001, Control_c, 0, 64, 67
1, 28016, Control_c, 0, 64, 64
1, 28016, Note_on_c, 0, 65, 68
1, 28031, Control_c, 0, 64, 61
1, 28046, Control_c, 0, 64, 57
1, 28048, Note_off_c, 0, 64, 60
1, 28061, Control_c, 0, 64, 54
1, 28075, Control_c, 0, 64, 49
1, 28090, Control_c, 0, 64, 40
1, 28105, Control_c, 0, 64, 27
1, 28120, Control_c, 0, 64, 0
1, 28173, Note_on_c, 0, 62, 41
1, 28268, Control_c, 0, 64, 26
1, 28283, Control_c, 0, 64, 38
1, 28297, Control_c, 0, 64, 45
1, 28312, Control_c, 0, 64, 52
1, 28315, Note_off_c, 0, 62, 46
1, 28316, Note_off_c, 0, 65, 57
1, 28317, Note_on_c, 0, 64, 55
1, 28327, Control_c, 0, 64, 56
1, 28330, Note_on_c, 0, 60, 48
1, 28342, Control_c, 0, 64, 59
1, 28346, Note_off_c, 0, 40, 51
1, 28356, Note_off_c, 0, 64, 65
1, 28357, Control_c, 0, 64, 60
1, 28386, Control_c, 0, 64, 61
1, 28394, Note_off_c, 0, 60, 60
1, 28431, Control_c, 0, 64, 59
1, 28446, Control_c, 0, 64, 57
1, 28461, Control_c, 0, 64, 52
1, 28476, Control_c, 0, 64, 46
1, 28490, Control_c, 0, 64, 42
1, 28493, Note_on_c, 0, 40, 41
1, 28500, Note_on_c, 0, 62, 55
1, 28505, Control_c, 0, 64, 43
1, 28508, Note_on_c, 0, 60, 43
1, 28527, Control_c, 0, 64, 47
1, 28542, Control_c, 0, 64, 49
1, 28555, Note_off_c, 0, 60, 63
1, 28571, Control_c, 0, 64, 46
1, 28586, Control_c, 0, 64, 40
1, 28601, Control_c, 0, 64, 29
1, 28616, Control_c, 0, 64, 13
1, 28631, Control_c, 0, 64, 0
1, 28645, Control_c, 0, 64, 18
1, 28660, Control_c, 0, 64, 31
1, 28664, Note_on_c, 0, 59, 51
1, 28675, Control_c, 0, 64, 41
1, 28690, Control_c, 0, 64, 49
1, 28705, Control_c, 0, 64, 52
1, 28720, Control_c, 0, 64, 52
1, 28735, Control_c, 0, 64, 53
1, 28749, Control_c, 0, 64, 55
1, 28764, Control_c, 0, 64, 57
1, 28779, Control_c, 0, 64, 57
1, 28786, Note_off_c, 0, 59, 26
1, 28794, Control_c, 0, 64, 58
1, 28809, Control_c, 0, 64, 57
1, 28811, Note_off_c, 0, 62, 59
1, 28813, Note_on_c, 0, 60, 54
1, 28823, Control_c, 0, 64, 57
1, 28831, Note_on_c, 0, 57, 51
1, 28836, Note_off_c, 0, 40, 51
1, 28838, Control_c, 0, 64, 56
1, 28848, Note_off_c, 0, 60, 66
1, 28853, Control_c, 0, 64, 54
1, 28868, Control_c, 0, 64, 52
1, 28878, Note_off_c, 0, 57, 60
1, 28883, Control_c, 0, 64, 51
1, 28897, Control_c, 0, 64, 49
1, 28912, Control_c, 0, 64, 46
1, 28927, Control_c, 0, 64, 42
1, 28942, Control_c, 0, 64, 37
1, 28956, Control_c, 0, 64, 27
1, 28971, Control_c, 0, 64, 18
1, 28977, Note_on_c, 0, 57, 48
1, 28979, Note_on_c, 0, 59, 56
1, 28980, Note_on_c, 0, 40, 37
1, 28986, Control_c, 0, 64, 19
1, 29002, Control_c, 0, 64, 21
1, 29017, Control_c, 0, 64, 21
1, 29025, Note_off_c, 0, 57, 60
1, 29032, Control_c, 0, 64, 0
1, 29133, Note_on_c, 0, 55, 54
1, 29150, Control_c, 0, 64, 29
1, 29165, Control_c, 0, 64, 36
1, 29167, Note_off_c, 0, 55, 63
1, 29180, Control_c, 0, 64, 37
1, 29209, Control_c, 0, 64, 34
1, 29224, Control_c, 0, 64, 29
1, 29229, Note_off_c, 0, 40, 40
1, 29239, Control_c, 0, 64, 22
1, 29254, Control_c, 0, 64, 0
1, 29285, Note_off_c, 0, 59, 54
1, 29301, Note_on_c, 0, 57, 51
1, 29304, Note_on_c, 0, 53, 45
1, 29360, Note_off_c, 0, 53, 53
1, 29480, Note_on_c, 0, 40, 33
1, 29487, Note_on_c, 0, 52, 38
1, 29609, Note_off_c, 0, 57, 43
1, 29617, Control_c, 0, 64, 21
1, 29632, Control_c, 0, 64, 37
1, 29646, Control_c, 0, 64, 48
1, 29652, Note_on_c, 0, 56, 54
1, 29661, Control_c, 0, 64, 54
1, 29676, Control_c, 0, 64, 59
1, 29691, Control_c, 0, 64, 61
1, 29693, Note_off_c, 0, 40, 56
1, 29706, Control_c, 0, 64, 63
1, 29720, Control_c, 0, 64, 65
1, 29735, Control_c, 0, 64, 69
1, 29750, Control_c, 0, 64, 73
1, 29751, Note_off_c, 0, 52, 52
1, 29764, Control_c, 0, 64, 76
1, 29779, Control_c, 0, 64, 79
1, 29803, Note_on_c, 0, 64, 66
1, 29804, Note_off_c, 0, 56, 64
1, 29832, Note_off_c, 0, 64, 68
1, 29869, Control_c, 0, 64, 78
1, 29884, Control_c, 0, 64, 76
1, 29899, Control_c, 0, 64, 74
1, 29914, Control_c, 0, 64, 71
1, 29929, Control_c, 0, 64, 67
1, 29943, Control_c, 0, 64, 63
1, 29958, Control_c, 0, 64, 56
1, 29960, Note_on_c, 0, 57, 60
1, 29963, Note_on_c, 0, 50, 51
1, 29965, Note_on_c, 0, 65, 78
1, 29973, Control_c, 0, 64, 42
1, 29987, Note_off_c, 0, 65, 69
1, 29988, Control_c, 0, 64, 0
1, 29990, Note_on_c, 0, 67, 68
1, 30026, Note_off_c, 0, 67, 66
1, 30065, Note_on_c, 0, 65, 65
1, 30117, Note_off_c, 0, 65, 60
1, 30120, Note_on_c, 0, 64, 62
1, 30145, Note_off_c, 0, 64, 66
1, 30220, Note_off_c, 0, 57, 37
1, 30283, Note_on_c, 0, 69, 77
1, 30285, Note_on_c, 0, 65, 76
1, 30305, Note_off_c, 0, 50, 45
1, 30422, Note_off_c, 0, 65, 62
1, 30431, Note_on_c, 0, 52, 49
1, 30445, Note_on_c, 0, 59, 56
1, 30447, Note_on_c, 0, 64, 72
1, 30603, Note_on_c, 0, 68, 88
1, 30618, Note_off_c, 0, 69, 64
1, 30619, Control_c, 0, 64, 22
1, 30634, Control_c, 0, 64, 47
1, 30649, Control_c, 0, 64, 57
1, 30664, Control_c, 0, 64, 62
1, 30678, Control_c, 0, 64, 64
1, 30693, Control_c, 0, 64, 67
1, 30708, Control_c, 0, 64, 69
1, 30723, Control_c, 0, 64, 70
1, 30729, Note_off_c, 0, 64, 62
1, 30753, Control_c, 0, 64, 68
1, 30753, Note_on_c, 0, 76, 88
1, 30755, Note_off_c, 0, 68, 66
1, 30774, Control_c, 0, 64, 65
1, 30781, Note_off_c, 0, 76, 70
1, 30789, Control_c, 0, 64, 57
1, 30804, Control_c, 0, 64, 46
1, 30814, Note_off_c, 0, 59, 55
1, 30819, Control_c, 0, 64, 14
1, 30833, Control_c, 0, 64, 0
1, 30884, Note_off_c, 0, 52, 55
1, 30923, Note_on_c, 0, 50, 54
1, 30923, Note_on_c, 0, 77, 82
1, 30936, Note_on_c, 0, 57, 49
1, 30944, Note_off_c, 0, 77, 69
1, 30946, Note_on_c, 0, 79, 73
1, 31012, Note_off_c, 0, 79, 55
1, 31018, Note_on_c, 0, 77, 73
1, 31054, Note_off_c, 0, 77, 62
1, 31066, Note_on_c, 0, 76, 67
1, 31096, Note_off_c, 0, 76, 65
1, 31169, Note_off_c, 0, 57, 52
1, 31254, Note_on_c, 0, 77, 62
1, 31265, Note_on_c, 0, 69, 51
1, 31265, Note_off_c, 0, 50, 44
1, 31424, Note_on_c, 0, 52, 35
1, 31439, Note_on_c, 0, 59, 42
1, 31516, Note_off_c, 0, 77, 58
1, 31537, Control_c, 0, 64, 31
1, 31552, Control_c, 0, 64, 43
1, 31567, Control_c, 0, 64, 50
1, 31582, Control_c, 0, 64, 55
1, 31596, Control_c, 0, 64, 59
1, 31609, Note_off_c, 0, 69, 62
1, 31611, Control_c, 0, 64, 63
1, 31613, Note_on_c, 0, 76, 67
1, 31621, Note_on_c, 0, 68, 57
1, 31626, Control_c, 0, 64, 65
1, 31641, Control_c, 0, 64, 68
1, 31655, Control_c, 0, 64, 71
1, 31670, Control_c, 0, 64, 73
1, 31685, Control_c, 0, 64, 74
1, 31698, Note_off_c, 0, 76, 55
1, 31728, Note_off_c, 0, 68, 65
1, 31729, Control_c, 0, 64, 73
1, 31744, Control_c, 0, 64, 69
1, 31758, Note_on_c, 0, 64, 72
1, 31759, Control_c, 0, 64, 64
1, 31769, Note_off_c, 0, 59, 50
1, 31773, Control_c, 0, 64, 58
1, 31784, Note_off_c, 0, 64, 69
1, 31788, Control_c, 0, 64, 50
1, 31803, Control_c, 0, 64, 40
1, 31818, Control_c, 0, 64, 23
1, 31833, Control_c, 0, 64, 0
1, 31841, Note_off_c, 0, 52, 43
1, 31887, Note_on_c, 0, 50, 55
1, 31892, Note_on_c, 0, 65, 88
1, 31905, Note_on_c, 0, 57, 60
1, 31906, Note_on_c, 0, 67, 81
1, 31923, Note_off_c, 0, 65, 59
1, 31930, Note_off_c, 0, 67, 66
1, 31993, Note_on_c, 0, 65, 58
1, 32039, Note_off_c, 0, 65, 58
1, 32050, Note_on_c, 0, 64, 52
1, 32074, Note_off_c, 0, 64, 64
1, 32178, Note_off_c, 0, 57, 50
1, 32237, Note_on_c, 0, 69, 64
1, 32248, Note_on_c, 0, 65, 53
1, 32393, Note_off_c, 0, 65, 62
1, 32409, Note_off_c, 0, 50, 44
1, 32413, Note_on_c, 0, 52, 38
1, 32414, Note_on_c, 0, 64, 56
1, 32422, Note_on_c, 0, 59, 40
1, 32549, Note_off_c, 0, 69, 62
1, 32569, Note_on_c, 0, 68, 64
1, 32596, Control_c, 0, 64, 13
1, 32611, Control_c, 0, 64, 41
1, 32626, Control_c, 0, 64, 52
1, 32641, Control_c, 0, 64, 57
1, 32656, Control_c, 0, 64, 60
1, 32670, Control_c, 0, 64, 62
1, 32672, Note_off_c, 0, 64, 58
1, 32685, Control_c, 0, 64, 65
1, 32700, Control_c, 0, 64, 66
1, 32713, Note_off_c, 0, 68, 65
1, 32720, Note_on_c, 0, 76, 63
1, 32730, Control_c, 0, 64, 65
1, 32741, Note_off_c, 0, 76, 65
1, 32744, Control_c, 0, 64, 62
1, 32759, Control_c, 0, 64, 58
1, 32765, Note_off_c, 0, 59, 50
1, 32774, Control_c, 0, 64, 54
1, 32789, Control_c, 0, 64, 51
1, 32792, Note_off_c, 0, 52, 49
1, 32804, Control_c, 0, 64, 47
1, 32819, Control_c, 0, 64, 34
1, 32834, Control_c, 0, 64, 0
1, 32873, Note_on_c, 0, 77, 67
1, 32876, Note_on_c, 0, 50, 44
1, 32891, Note_on_c, 0, 57, 47
1, 32892, Note_off_c, 0, 77, 66
1, 32898, Note_on_c, 0, 79, 65
1, 32971, Note_on_c, 0, 77, 59
1, 32985, Note_off_c, 0, 79, 53
1, 33007, Note_off_c, 0, 77, 64
1, 33026, Note_on_c, 0, 76, 63
1, 33055, Note_off_c, 0, 76, 65
1, 33164, Note_off_c, 0, 57, 35
1, 33212, Note_on_c, 0, 77, 56
1, 33227, Note_on_c, 0, 69, 50
1, 33308, Note_off_c, 0, 50, 39
1, 33397, Note_on_c, 0, 59, 38
1, 33400, Note_on_c, 0, 52, 34
1, 33469, Note_off_c, 0, 77, 57
1, 33494, Control_c, 0, 64, 15
1, 33509, Control_c, 0, 64, 34
1, 33524, Control_c, 0, 64, 44
1, 33538, Control_c, 0, 64, 52
1, 33553, Control_c, 0, 64, 57
1, 33564, Note_off_c, 0, 69, 58
1, 33565, Note_on_c, 0, 76, 61
1, 33568, Control_c, 0, 64, 60
1, 33574, Note_on_c, 0, 68, 40
1, 33583, Control_c, 0, 64, 63
1, 33598, Control_c, 0, 64, 64
1, 33612, Control_c, 0, 64, 66
1, 33627, Control_c, 0, 64, 68
1, 33642, Control_c, 0, 64, 69
1, 33657, Control_c, 0, 64, 70
1, 33658, Note_off_c, 0, 76, 55
1, 33686, Control_c, 0, 64, 69
1, 33701, Control_c, 0, 64, 67
1, 33709, Note_off_c, 0, 68, 53
1, 33716, Control_c, 0, 64, 63
1, 33718, Note_off_c, 0, 59, 55
1, 33731, Note_on_c, 0, 64, 48
1, 33731, Control_c, 0, 64, 57
1, 33741, Note_off_c, 0, 52, 51
1, 33746, Control_c, 0, 64, 47
1, 33768, Control_c, 0, 64, 32
1, 33783, Control_c, 0, 64, 0
1, 33812, Note_off_c, 0, 64, 0
1, 33849, Note_on_c, 0, 50, 33
1, 33849, Poly_aftertouch_c, 0, 64, 127
1, 33889, Note_on_c, 0, 57, 42
1, 33909, Note_on_c, 0, 67, 58
1, 33931, Note_on_c, 0, 59, 45
1, 33932, Control_c, 0, 64, 25
1, 33934, Poly_aftertouch_c, 0, 64, 0
1, 33947, Control_c, 0, 64, 33
1, 33962, Control_c, 0, 64, 38
1, 33976, Control_c, 0, 64, 43
1, 33991, Control_c, 0, 64, 48
1, 34006, Control_c, 0, 64, 53
1, 34021, Control_c, 0, 64, 58
1, 34035, Control_c, 0, 64, 61
1, 34050, Control_c, 0, 64, 62
1, 34065, Note_off_c, 0, 67, 58
1, 34065, Control_c, 0, 64, 64
1, 34069, Note_on_c, 0, 65, 53
1, 34075, Note_off_c, 0, 57, 44
1, 34080, Control_c, 0, 64, 66
1, 34095, Control_c, 0, 64, 68
1, 34109, Control_c, 0, 64, 72
1, 34124, Control_c, 0, 64, 75
1, 34139, Control_c, 0, 64, 78
1, 34154, Control_c, 0, 64, 80
1, 34169, Control_c, 0, 64, 83
1, 34184, Control_c, 0, 64, 86
1, 34186, Note_off_c, 0, 65, 61
1, 34198, Control_c, 0, 64, 90
1, 34208, Note_off_c, 0, 50, 43
1, 34213, Control_c, 0, 64, 93
1, 34215, Note_on_c, 0, 64, 60
1, 34228, Control_c, 0, 64, 94
1, 34232, Note_off_c, 0, 59, 54
1, 34242, Control_c, 0, 64, 95
1, 34273, Note_off_c, 0, 64, 58
1, 34331, Note_on_c, 0, 50, 44
1, 34346, Control_c, 0, 64, 94
1, 34360, Control_c, 0, 64, 89
1, 34375, Note_on_c, 0, 74, 64
1, 34375, Control_c, 0, 64, 82
1, 34381, Note_on_c, 0, 65, 63
1, 34384, Note_on_c, 0, 57, 52
1, 34390, Control_c, 0, 64, 72
1, 34405, Control_c, 0, 64, 62
1, 34410, Note_on_c, 0, 59, 52
1, 34420, Control_c, 0, 64, 43
1, 34434, Control_c, 0, 64, 16
1, 34449, Control_c, 0, 64, 0
1, 34479, Control_c, 0, 64, 23
1, 34494, Control_c, 0, 64, 33
1, 34516, Control_c, 0, 64, 42
1, 34531, Control_c, 0, 64, 49
1, 34543, Note_on_c, 0, 72, 75
1, 34546, Control_c, 0, 64, 56
1, 34558, Note_off_c, 0, 74, 63
1, 34561, Control_c, 0, 64, 60
1, 34563, Note_off_c, 0, 57, 60
1, 34575, Control_c, 0, 64, 64
1, 34591, Control_c, 0, 64, 67
1, 34606, Control_c, 0, 64, 71
1, 34621, Control_c, 0, 64, 76
1, 34636, Control_c, 0, 64, 81
1, 34639, Note_off_c, 0, 50, 56
1, 34651, Control_c, 0, 64, 87
1, 34665, Control_c, 0, 64, 92
1, 34680, Note_off_c, 0, 72, 63
1, 34680, Control_c, 0, 64, 98
1, 34689, Note_on_c, 0, 71, 80
1, 34695, Control_c, 0, 64, 102
1, 34697, Note_off_c, 0, 59, 38
1, 34710, Control_c, 0, 64, 104
1, 34712, Note_off_c, 0, 65, 58
1, 34725, Control_c, 0, 64, 104
1, 34745, Note_off_c, 0, 71, 65
1, 34767, Note_on_c, 0, 50, 58
1, 34798, Control_c, 0, 64, 101
1, 34813, Control_c, 0, 64, 95
1, 34825, Note_on_c, 0, 57, 63
1, 34828, Control_c, 0, 64, 87
1, 34843, Control_c, 0, 64, 78
1, 34858, Control_c, 0, 64, 70
1, 34862, Note_on_c, 0, 79, 82
1, 34868, Note_on_c, 0, 69, 67
1, 34870, Note_on_c, 0, 59, 66
1, 34873, Control_c, 0, 64, 57
1, 34887, Control_c, 0, 64, 32
1, 34902, Control_c, 0, 64, 0
1, 34977, Control_c, 0, 64, 25
1, 34991, Control_c, 0, 64, 42
1, 34995, Note_off_c, 0, 57, 63
1, 35006, Control_c, 0, 64, 53
1, 35011, Note_on_c, 0, 77, 86
1, 35021, Control_c, 0, 64, 59
1, 35036, Control_c, 0, 64, 63
1, 35037, Note_off_c, 0, 79, 62
1, 35051, Control_c, 0, 64, 68
1, 35065, Control_c, 0, 64, 73
1, 35080, Control_c, 0, 64, 80
1, 35095, Control_c, 0, 64, 88
1, 35103, Note_off_c, 0, 50, 54
1, 35110, Control_c, 0, 64, 98
1, 35115, Note_off_c, 0, 59, 54
1, 35125, Control_c, 0, 64, 113
1, 35139, Control_c, 0, 64, 127
1, 35155, Note_off_c, 0, 77, 62
1, 35158, Note_on_c, 0, 76, 93
1, 35169, Note_off_c, 0, 69, 64
1, 35199, Note_off_c, 0, 76, 64
1, 35246, Note_on_c, 0, 50, 60
1, 35280, Control_c, 0, 64, 118
1, 35295, Control_c, 0, 64, 99
1, 35299, Note_on_c, 0, 57, 62
1, 35310, Control_c, 0, 64, 88
1, 35324, Control_c, 0, 64, 79
1, 35339, Control_c, 0, 64, 70
1, 35351, Note_on_c, 0, 84, 85
1, 35354, Control_c, 0, 64, 61
1, 35359, Note_on_c, 0, 59, 56
1, 35363, Note_on_c, 0, 74, 66
1, 35369, Control_c, 0, 64, 48
1, 35385, Control_c, 0, 64, 27
1, 35400, Control_c, 0, 64, 0
1, 35483, Note_off_c, 0, 57, 59
1, 35488, Control_c, 0, 64, 17
1, 35498, Note_on_c, 0, 82, 88
1, 35503, Control_c, 0, 64, 39
1, 35518, Control_c, 0, 64, 54
1, 35528, Note_off_c, 0, 84, 65
1, 35533, Control_c, 0, 64, 64
1, 35548, Control_c, 0, 64, 70
1, 35563, Control_c, 0, 64, 78
1, 35577, Control_c, 0, 64, 89
1, 35592, Control_c, 0, 64, 103
1, 35607, Control_c, 0, 64, 127
1, 35654, Note_on_c, 0, 80, 87
1, 35657, Note_off_c, 0, 50, 66
1, 35665, Note_off_c, 0, 82, 63
1, 35689, Note_off_c, 0, 74, 66
1, 35692, Note_off_c, 0, 59, 36
1, 35740, Control_c, 0, 64, 103
1, 35755, Control_c, 0, 64, 86
1, 35770, Control_c, 0, 64, 73
1, 35785, Control_c, 0, 64, 61
1, 35800, Control_c, 0, 64, 38
1, 35809, Note_on_c, 0, 48, 67
1, 35814, Control_c, 0, 64, 0
1, 35823, Note_on_c, 0, 57, 69
1, 35823, Note_on_c, 0, 81, 86
1, 35832, Note_on_c, 0, 72, 73
1, 35833, Note_off_c, 0, 80, 64
1, 35903, Control_c, 0, 64, 35
1, 35918, Control_c, 0, 64, 56
1, 35925, Note_off_c, 0, 72, 61
1, 35932, Control_c, 0, 64, 65
1, 35947, Control_c, 0, 64, 72
1, 35962, Control_c, 0, 64, 81
1, 35977, Control_c, 0, 64, 92
1, 35981, Note_on_c, 0, 76, 86
1, 35992, Control_c, 0, 64, 99
1, 35997, Note_off_c, 0, 48, 61
1, 36011, Note_off_c, 0, 81, 65
1, 36014, Control_c, 0, 64, 99
1, 36017, Note_off_c, 0, 57, 64
1, 36029, Control_c, 0, 64, 97
1, 36038, Note_off_c, 0, 76, 64
1, 36044, Control_c, 0, 64, 89
1, 36059, Control_c, 0, 64, 76
1, 36074, Control_c, 0, 64, 61
1, 36088, Control_c, 0, 64, 0
1, 36136, Note_on_c, 0, 74, 93
1, 36139, Note_on_c, 0, 59, 78
1, 36143, Note_on_c, 0, 50, 72
1, 36165, Note_off_c, 0, 59, 67
1, 36171, Note_off_c, 0, 74, 69
1, 36174, Note_off_c, 0, 50, 69
1, 36302, Note_on_c, 0, 72, 90
1, 36306, Note_on_c, 0, 57, 74
1, 36306, Note_on_c, 0, 60, 74
1, 36306, Note_on_c, 0, 52, 68
1, 36374, Note_off_c, 0, 72, 56
1, 36432, Note_off_c, 0, 57, 62
1, 36450, Note_off_c, 0, 60, 64
1, 36454, Note_off_c, 0, 52, 62
1, 36465, Note_on_c, 0, 71, 84
1, 36511, Note_off_c, 0, 71, 63
1, 36534, Note_on_c, 0, 69, 61
1, 36591, Note_off_c, 0, 69, 61
1, 36600, Note_on_c, 0, 71, 80
1, 36616, Note_on_c, 0, 59, 57
1, 36617, Note_on_c, 0, 62, 56
1, 36621, Note_on_c, 0, 52, 59
1, 36637, Note_off_c, 0, 59, 61
1, 36639, Note_off_c, 0, 62, 61
1, 36652, Note_off_c, 0, 52, 66
1, 36655, Note_off_c, 0, 71, 64
1, 36671, Note_on_c, 0, 68, 71
1, 36694, Note_off_c, 0, 68, 70
1, 36762, Note_on_c, 0, 68, 85
1, 36763, Note_on_c, 0, 45, 80
1, 36779, Note_on_c, 0, 57, 56
1, 36793, Note_off_c, 0, 45, 64
1, 36819, Note_off_c, 0, 57, 64
1, 36896, Note_off_c, 0, 68, 52
1, 36914, Note_on_c, 0, 69, 70
1, 36939, Note_off_c, 0, 69, 70
1, 37078, Note_on_c, 0, 64, 66
1, 37221, Note_on_c, 0, 50, 36
1, 37253, Note_on_c, 0, 57, 41
1, 37277, Note_on_c, 0, 67, 54
1, 37293, Note_on_c, 0, 59, 42
1, 37295, Note_off_c, 0, 64, 39
1, 37436, Note_off_c, 0, 67, 58
1, 37457, Note_on_c, 0, 65, 51
1, 37460, Control_c, 0, 64, 24
1, 37475, Control_c, 0, 64, 39
1, 37490, Control_c, 0, 64, 47
1, 37513, Control_c, 0, 64, 52
1, 37523, Note_off_c, 0, 57, 55
1, 37528, Control_c, 0, 64, 56
1, 37542, Control_c, 0, 64, 60
1, 37557, Control_c, 0, 64, 63
1, 37572, Control_c, 0, 64, 66
1, 37573, Note_off_c, 0, 65, 57
1, 37586, Control_c, 0, 64, 68
1, 37601, Control_c, 0, 64, 71
1, 37603, Note_on_c, 0, 64, 56
1, 37613, Note_off_c, 0, 50, 50
1, 37616, Control_c, 0, 64, 74
1, 37631, Control_c, 0, 64, 77
1, 37634, Note_off_c, 0, 59, 59
1, 37646, Control_c, 0, 64, 80
1, 37654, Note_off_c, 0, 64, 58
1, 37660, Control_c, 0, 64, 83
1, 37675, Control_c, 0, 64, 84
1, 37690, Control_c, 0, 64, 85
1, 37736, Note_on_c, 0, 50, 39
1, 37772, Note_on_c, 0, 65, 57
1, 37775, Note_on_c, 0, 74, 57
1, 37780, Control_c, 0, 64, 84
1, 37785, Note_on_c, 0, 57, 42
1, 37795, Note_on_c, 0, 59, 43
1, 37795, Control_c, 0, 64, 81
1, 37809, Control_c, 0, 64, 76
1, 37824, Control_c, 0, 64, 67
1, 37839, Control_c, 0, 64, 59
1, 37854, Control_c, 0, 64, 45
1, 37869, Control_c, 0, 64, 33
1, 37883, Control_c, 0, 64, 28
1, 37898, Control_c, 0, 64, 29
1, 37913, Control_c, 0, 64, 36
1, 37928, Note_off_c, 0, 74, 59
1, 37928, Control_c, 0, 64, 42
1, 37930, Note_on_c, 0, 72, 60
1, 37943, Control_c, 0, 64, 48
1, 37958, Control_c, 0, 64, 54
1, 37973, Control_c, 0, 64, 59
1, 37976, Note_off_c, 0, 57, 62
1, 37988, Control_c, 0, 64, 63
1, 38002, Control_c, 0, 64, 66
1, 38017, Control_c, 0, 64, 70
1, 38032, Control_c, 0, 64, 73
1, 38036, Note_off_c, 0, 72, 57
1, 38047, Control_c, 0, 64, 77
1, 38062, Control_c, 0, 64, 82
1, 38063, Note_off_c, 0, 50, 44
1, 38071, Note_on_c, 0, 71, 73
1, 38076, Control_c, 0, 64, 87
1, 38077, Note_off_c, 0, 59, 54
1, 38080, Note_off_c, 0, 65, 59
1, 38091, Control_c, 0, 64, 92
1, 38102, Note_off_c, 0, 71, 62
1, 38106, Control_c, 0, 64, 95
1, 38121, Control_c, 0, 64, 96
1, 38175, Note_on_c, 0, 50, 45
1, 38209, Control_c, 0, 64, 94
1, 38224, Control_c, 0, 64, 90
1, 38239, Control_c, 0, 64, 83
1, 38243, Note_on_c, 0, 57, 46
1, 38244, Note_on_c, 0, 79, 68
1, 38246, Note_on_c, 0, 69, 58
1, 38262, Control_c, 0, 64, 76
1, 38268, Note_on_c, 0, 59, 46
1, 38277, Control_c, 0, 64, 69
1, 38291, Control_c, 0, 64, 59
1, 38306, Control_c, 0, 64, 44
1, 38321, Control_c, 0, 64, 23
1, 38335, Control_c, 0, 64, 12
1, 38350, Control_c, 0, 64, 21
1, 38365, Control_c, 0, 64, 32
1, 38380, Control_c, 0, 64, 42
1, 38395, Control_c, 0, 64, 53
1, 38409, Control_c, 0, 64, 60
1, 38415, Note_off_c, 0, 57, 59
1, 38421, Note_on_c, 0, 77, 65
1, 38424, Control_c, 0, 64, 64
1, 38426, Note_off_c, 0, 79, 59
1, 38439, Control_c, 0, 64, 68
1, 38454, Control_c, 0, 64, 72
1, 38469, Control_c, 0, 64, 76
1, 38476, Note_off_c, 0, 50, 57
1, 38483, Control_c, 0, 64, 81
1, 38498, Control_c, 0, 64, 86
1, 38513, Control_c, 0, 64, 91
1, 38524, Note_off_c, 0, 69, 35
1, 38528, Control_c, 0, 64, 94
1, 38539, Note_off_c, 0, 77, 57
1, 38542, Control_c, 0, 64, 97
1, 38549, Note_off_c, 0, 59, 36
1, 38557, Control_c, 0, 64, 99
1, 38566, Note_on_c, 0, 76, 68
1, 38572, Control_c, 0, 64, 103
1, 38588, Control_c, 0, 64, 104
1, 38597, Note_off_c, 0, 76, 65
1, 38655, Note_on_c, 0, 50, 41
1, 38662, Control_c, 0, 64, 103
1, 38677, Control_c, 0, 64, 102
1, 38691, Control_c, 0, 64, 98
1, 38706, Control_c, 0, 64, 93
1, 38721, Control_c, 0, 64, 87
1, 38730, Note_on_c, 0, 57, 40
1, 38736, Control_c, 0, 64, 81
1, 38750, Control_c, 0, 64, 74
1, 38760, Note_on_c, 0, 84, 55
1, 38763, Note_on_c, 0, 74, 45
1, 38765, Control_c, 0, 64, 65
1, 38766, Note_on_c, 0, 59, 40
1, 38780, Control_c, 0, 64, 55
1, 38795, Control_c, 0, 64, 38
1, 38803, Note_off_c, 0, 57, 0
1, 38803, Note_on_c, 0, 57, 4
1, 38810, Control_c, 0, 64, 13
1, 38824, Control_c, 0, 64, 0
1, 38854, Control_c, 0, 64, 12
1, 38869, Control_c, 0, 64, 30
1, 38884, Control_c, 0, 64, 44
1, 38898, Control_c, 0, 64, 53
1, 38913, Control_c, 0, 64, 58
1, 38928, Control_c, 0, 64, 62
1, 38930, Note_off_c, 0, 84, 59
1, 38930, Note_on_c, 0, 82, 59
1, 38939, Note_off_c, 0, 57, 52
1, 38943, Control_c, 0, 64, 64
1, 38957, Control_c, 0, 64, 68
1, 38972, Control_c, 0, 64, 72
1, 38987, Control_c, 0, 64, 76
1, 39010, Control_c, 0, 64, 81
1, 39025, Control_c, 0, 64, 84
1, 39039, Control_c, 0, 64, 87
1, 39054, Control_c, 0, 64, 90
1, 39069, Control_c, 0, 64, 92
1, 39084, Control_c, 0, 64, 94
1, 39091, Note_off_c, 0, 82, 60
1, 39099, Control_c, 0, 64, 95
1, 39103, Note_on_c, 0, 80, 60
1, 39108, Note_off_c, 0, 59, 31
1, 39113, Control_c, 0, 64, 96
1, 39117, Note_off_c, 0, 50, 47
1, 39120, Note_off_c, 0, 74, 45
1, 39217, Control_c, 0, 64, 95
1, 39225, Note_off_c, 0, 80, 30
1, 39231, Control_c, 0, 64, 92
1, 39246, Control_c, 0, 64, 87
1, 39261, Control_c, 0, 64, 83
1, 39266, Note_on_c, 0, 81, 60
1, 39267, Note_on_c, 0, 48, 52
1, 39276, Control_c, 0, 64, 78
1, 39277, Note_on_c, 0, 72, 56
1, 39283, Note_on_c, 0, 57, 47
1, 39291, Control_c, 0, 64, 74
1, 39305, Control_c, 0, 64, 70
1, 39320, Control_c, 0, 64, 65
1, 39335, Control_c, 0, 64, 57
1, 39350, Control_c, 0, 64, 48
1, 39357, Note_off_c, 0, 72, 47
1, 39365, Control_c, 0, 64, 36
1, 39380, Control_c, 0, 64, 16
1, 39395, Control_c, 0, 64, 0
1, 39421, Note_off_c, 0, 48, 55
1, 39425, Note_off_c, 0, 81, 62
1, 39438, Note_off_c, 0, 57, 62
1, 39529, Poly_aftertouch_c, 0, 76, 0
1, 39581, Note_on_c, 0, 74, 64
1, 39588, Note_on_c, 0, 50, 50
1, 39591, Note_on_c, 0, 59, 53
1, 39609, Note_off_c, 0, 74, 68
1, 39617, Note_off_c, 0, 59, 62
1, 39620, Note_off_c, 0, 50, 57
1, 39743, Note_on_c, 0, 72, 61
1, 39747, Note_on_c, 0, 60, 50
1, 39758, Note_on_c, 0, 52, 45
1, 39775, Note_on_c, 0, 57, 44
1, 39817, Note_off_c, 0, 72, 53
1, 39853, Note_off_c, 0, 57, 60
1, 39862, Note_off_c, 0, 60, 62
1, 39883, Note_off_c, 0, 52, 59
1, 39909, Note_on_c, 0, 71, 73
1, 39959, Note_off_c, 0, 71, 62
1, 39985, Note_on_c, 0, 69, 61
1, 40045, Note_off_c, 0, 69, 64
1, 40059, Note_on_c, 0, 71, 64
1, 40061, Note_on_c, 0, 52, 38
1, 40091, Note_off_c, 0, 52, 59
1, 40108, Note_off_c, 0, 71, 65
1, 40121, Note_on_c, 0, 68, 65
1, 40156, Note_off_c, 0, 68, 64
1, 40206, Note_on_c, 0, 45, 86
1, 40210, Note_on_c, 0, 69, 88
1, 40235, Note_off_c, 0, 45, 68
1, 40244, Note_off_c, 0, 69, 68
1, 40355, Note_on_c, 0, 57, 82
1, 40355, Note_on_c, 0, 73, 85
1, 40377, Note_off_c, 0, 57, 69
1, 40408, Note_off_c, 0, 73, 64
1, 40530, Note_on_c, 0, 76, 77
1, 40531, Note_on_c, 0, 81, 84
1, 40548, Note_off_c, 0, 81, 74
1, 40752, Note_on_c, 0, 40, 78
1, 40766, Note_on_c, 0, 64, 83
1, 40819, Control_c, 0, 64, 14
1, 40834, Control_c, 0, 64, 35
1, 40849, Control_c, 0, 64, 52
1, 40864, Control_c, 0, 64, 63
1, 40878, Control_c, 0, 64, 69
1, 40893, Control_c, 0, 64, 77
1, 40904, Note_off_c, 0, 64, 50
1, 40908, Control_c, 0, 64, 83
1, 40923, Control_c, 0, 64, 85
1, 40929, Note_on_c, 0, 74, 82
1, 40930, Note_off_c, 0, 40, 60
1, 40942, Note_off_c, 0, 76, 57
1, 40952, Control_c, 0, 64, 79
1, 40967, Control_c, 0, 64, 69
1, 40983, Control_c, 0, 64, 49
1, 40998, Control_c, 0, 64, 0
1, 41001, Note_on_c, 0, 73, 79
1, 41003, Note_off_c, 0, 74, 61
1, 41061, Note_off_c, 0, 73, 64
1, 41073, Note_on_c, 0, 71, 69
1, 41118, Note_off_c, 0, 71, 48
1, 41141, Note_on_c, 0, 74, 71
1, 41169, Note_off_c, 0, 74, 66
1, 41212, Note_on_c, 0, 73, 92
1, 41219, Note_on_c, 0, 45, 83
1, 41264, Note_off_c, 0, 45, 65
1, 41274, Note_off_c, 0, 73, 65
1, 41294, Note_on_c, 0, 69, 75
1, 41317, Note_off_c, 0, 69, 71
1, 41363, Note_on_c, 0, 57, 84
1, 41363, Note_on_c, 0, 74, 86
1, 41387, Note_off_c, 0, 57, 69
1, 41431, Note_off_c, 0, 74, 63
1, 41439, Note_on_c, 0, 71, 76
1, 41491, Note_off_c, 0, 71, 63
1, 41520, Note_on_c, 0, 81, 90
1, 41529, Note_on_c, 0, 76, 76
1, 41538, Note_off_c, 0, 81, 75
1, 41731, Note_on_c, 0, 40, 72
1, 41755, Note_on_c, 0, 64, 82
1, 41821, Control_c, 0, 64, 30
1, 41836, Control_c, 0, 64, 44
1, 41850, Control_c, 0, 64, 51
1, 41865, Control_c, 0, 64, 57
1, 41880, Control_c, 0, 64, 61
1, 41882, Note_off_c, 0, 76, 0
1, 41895, Control_c, 0, 64, 62
1, 41902, Note_off_c, 0, 64, 39
1, 41910, Control_c, 0, 64, 63
1, 41912, Note_off_c, 0, 40, 60
1, 41914, Note_on_c, 0, 74, 77
1, 41919, Poly_aftertouch_c, 0, 76, 127
1, 41939, Control_c, 0, 64, 63
1, 41971, Poly_aftertouch_c, 0, 76, 0
1, 42000, Note_on_c, 0, 73, 80
1, 42006, Note_off_c, 0, 74, 63
1, 42021, Control_c, 0, 64, 63
1, 42036, Control_c, 0, 64, 62
1, 42051, Control_c, 0, 64, 61
1, 42056, Note_off_c, 0, 73, 64
1, 42062, Note_on_c, 0, 71, 71
1, 42065, Control_c, 0, 64, 60
1, 42080, Control_c, 0, 64, 59
1, 42095, Control_c, 0, 64, 58
1, 42110, Control_c, 0, 64, 58
1, 42116, Note_off_c, 0, 71, 59
1, 42125, Control_c, 0, 64, 57
1, 42139, Control_c, 0, 64, 56
1, 42140, Note_on_c, 0, 74, 76
1, 42167, Note_off_c, 0, 74, 65
1, 42169, Control_c, 0, 64, 56
1, 42198, Control_c, 0, 64, 54
1, 42212, Note_on_c, 0, 73, 94
1, 42213, Control_c, 0, 64, 47
1, 42219, Note_on_c, 0, 45, 81
1, 42228, Control_c, 0, 64, 0
1, 42258, Note_off_c, 0, 45, 64
1, 42265, Note_off_c, 0, 73, 66
1, 42282, Note_on_c, 0, 69, 78
1, 42306, Note_off_c, 0, 69, 70
1, 42361, Note_on_c, 0, 74, 85
1, 42367, Note_on_c, 0, 57, 77
1, 42393, Note_off_c, 0, 57, 68
1, 42424, Note_off_c, 0, 74, 63
1, 42434, Note_on_c, 0, 71, 79
1, 42482, Note_off_c, 0, 71, 65
1, 42530, Note_on_c, 0, 81, 83
1, 42531, Note_on_c, 0, 76, 80
1, 42550, Note_off_c, 0, 81, 74
1, 42775, Note_on_c, 0, 40, 64
1, 42790, Note_on_c, 0, 64, 86
1, 42873, Control_c, 0, 64, 17
1, 42887, Control_c, 0, 64, 38
1, 42902, Control_c, 0, 64, 50
1, 42917, Control_c, 0, 64, 56
1, 42927, Note_off_c, 0, 64, 55
1, 42931, Control_c, 0, 64, 58
1, 42946, Control_c, 0, 64, 58
1, 42950, Note_on_c, 0, 74, 73
1, 42951, Note_off_c, 0, 40, 61
1, 42961, Control_c, 0, 64, 60
1, 42973, Note_off_c, 0, 76, 48
1, 42976, Control_c, 0, 64, 61
1, 42991, Control_c, 0, 64, 62
1, 43005, Control_c, 0, 64, 63
1, 43020, Control_c, 0, 64, 63
1, 43029, Note_on_c, 0, 73, 75
1, 43035, Note_off_c, 0, 74, 59
1, 43065, Control_c, 0, 64, 63
1, 43079, Control_c, 0, 64, 62
1, 43087, Note_off_c, 0, 73, 62
1, 43094, Control_c, 0, 64, 62
1, 43101, Note_on_c, 0, 71, 60
1, 43109, Control_c, 0, 64, 61
1, 43124, Control_c, 0, 64, 61
1, 43134, Note_off_c, 0, 71, 61
1, 43139, Control_c, 0, 64, 60
1, 43154, Control_c, 0, 64, 59
1, 43168, Control_c, 0, 64, 57
1, 43172, Note_on_c, 0, 74, 72
1, 43184, Control_c, 0, 64, 55
1, 43198, Control_c, 0, 64, 53
1, 43204, Note_off_c, 0, 74, 62
1, 43213, Control_c, 0, 64, 49
1, 43228, Control_c, 0, 64, 44
1, 43243, Control_c, 0, 64, 35
1, 43246, Note_on_c, 0, 45, 67
1, 43254, Note_on_c, 0, 73, 76
1, 43258, Control_c, 0, 64, 19
1, 43273, Control_c, 0, 64, 0
1, 43284, Note_off_c, 0, 45, 63
1, 43288, Note_off_c, 0, 73, 61
1, 43320, Note_on_c, 0, 69, 73
1, 43353, Note_off_c, 0, 69, 61
1, 43395, Note_on_c, 0, 73, 88
1, 43400, Note_on_c, 0, 57, 74
1, 43428, Note_off_c, 0, 57, 67
1, 43435, Note_off_c, 0, 73, 65
1, 43475, Note_on_c, 0, 76, 81
1, 43550, Note_on_c, 0, 49, 75
1, 43550, Note_off_c, 0, 76, 65
1, 43555, Note_on_c, 0, 81, 85
1, 43599, Note_off_c, 0, 49, 61
1, 43629, Note_on_c, 0, 78, 86
1, 43645, Note_off_c, 0, 81, 65
1, 43677, Note_off_c, 0, 78, 66
1, 43705, Note_on_c, 0, 76, 96
1, 43712, Note_on_c, 0, 50, 86
1, 43741, Note_off_c, 0, 50, 70
1, 43756, Note_off_c, 0, 76, 59
1, 43788, Note_on_c, 0, 74, 78
1, 43843, Note_off_c, 0, 74, 60
1, 43860, Note_on_c, 0, 73, 82
1, 43868, Note_on_c, 0, 52, 74
1, 43895, Note_off_c, 0, 52, 67
1, 43944, Note_on_c, 0, 71, 69
1, 43949, Note_off_c, 0, 73, 60
1, 43970, Note_off_c, 0, 71, 69
1, 44008, Note_on_c, 0, 69, 68
1, 44015, Note_on_c, 0, 40, 65
1, 44048, Note_off_c, 0, 69, 61
1, 44060, Note_off_c, 0, 40, 57
1, 44093, Note_on_c, 0, 68, 60
1, 44125, Note_off_c, 0, 68, 68
1, 44177, Note_on_c, 0, 45, 52
1, 44181, Note_on_c, 0, 69, 67
1, 44204, Note_off_c, 0, 45, 58
1, 44209, Note_off_c, 0, 69, 66
1, 44342, Note_on_c, 0, 57, 58
1, 44349, Note_on_c, 0, 73, 65
1, 44367, Note_off_c, 0, 57, 58
1, 44401, Note_off_c, 0, 73, 57
1, 44521, Note_on_c, 0, 81, 74
1, 44526, Note_on_c, 0, 76, 57
1, 44542, Note_off_c, 0, 81, 73
1, 44757, Note_on_c, 0, 40, 50
1, 44760, Note_on_c, 0, 64, 60
1, 44873, Control_c, 0, 64, 32
1, 44888, Control_c, 0, 64, 40
1, 44902, Control_c, 0, 64, 47
1, 44917, Control_c, 0, 64, 51
1, 44919, Note_off_c, 0, 64, 52
1, 44924, Note_off_c, 0, 40, 60
1, 44932, Control_c, 0, 64, 55
1, 44940, Note_on_c, 0, 74, 60
1, 44942, Note_off_c, 0, 76, 53
1, 44947, Control_c, 0, 64, 58
1, 44962, Control_c, 0, 64, 59
1, 44978, Control_c, 0, 64, 60
1, 45014, Control_c, 0, 64, 59
1, 45018, Note_off_c, 0, 74, 59
1, 45026, Note_on_c, 0, 73, 65
1, 45044, Control_c, 0, 64, 59
1, 45071, Note_off_c, 0, 73, 62
1, 45073, Control_c, 0, 64, 58
1, 45100, Note_on_c, 0, 71, 53
1, 45118, Control_c, 0, 64, 58
1, 45137, Note_off_c, 0, 71, 57
1, 45148, Control_c, 0, 64, 57
1, 45163, Control_c, 0, 64, 56
1, 45178, Note_on_c, 0, 74, 54
1, 45178, Control_c, 0, 64, 54
1, 45192, Control_c, 0, 64, 51
1, 45207, Control_c, 0, 64, 44
1, 45218, Note_off_c, 0, 74, 61
1, 45222, Control_c, 0, 64, 25
1, 45231, Note_on_c, 0, 45, 54
1, 45231, Note_on_c, 0, 73, 69
1, 45237, Control_c, 0, 64, 0
1, 45260, Note_off_c, 0, 45, 57
1, 45264, Note_off_c, 0, 73, 62
1, 45300, Note_on_c, 0, 69, 54
1, 45322, Note_off_c, 0, 69, 62
1, 45377, Note_on_c, 0, 74, 64
1, 45382, Note_on_c, 0, 57, 56
1, 45406, Note_off_c, 0, 57, 58
1, 45436, Note_off_c, 0, 74, 53
1, 45450, Note_on_c, 0, 71, 52
1, 45496, Note_off_c, 0, 71, 60
1, 45550, Note_on_c, 0, 81, 73
1, 45565, Note_on_c, 0, 76, 53
1, 45573, Note_off_c, 0, 81, 72
1, 45793, Control_c, 0, 67, 8
1, 45798, Note_on_c, 0, 40, 46
1, 45804, Note_on_c, 0, 64, 59
1, 45808, Control_c, 0, 67, 9
1, 45822, Control_c, 0, 67, 11
1, 45837, Control_c, 0, 67, 13
1, 45852, Control_c, 0, 67, 15
1, 45867, Control_c, 0, 67, 17
1, 45882, Control_c, 0, 67, 18
1, 45896, Control_c, 0, 67, 19
1, 45911, Control_c, 0, 64, 19
1, 45911, Control_c, 0, 67, 19
1, 45926, Control_c, 0, 64, 34
1, 45941, Control_c, 0, 64, 44
1, 45956, Control_c, 0, 64, 49
1, 45957, Note_off_c, 0, 40, 59
1, 45970, Control_c, 0, 64, 53
1, 45971, Note_off_c, 0, 64, 56
1, 45979, Note_off_c, 0, 76, 57
1, 45985, Note_on_c, 0, 74, 56
1, 45985, Control_c, 0, 64, 55
1, 46000, Control_c, 0, 64, 56
1, 46015, Control_c, 0, 64, 56
1, 46045, Control_c, 0, 64, 56
1, 46048, Note_off_c, 0, 74, 58
1, 46057, Note_on_c, 0, 73, 67
1, 46060, Control_c, 0, 67, 20
1, 46075, Control_c, 0, 64, 55
1, 46090, Control_c, 0, 64, 54
1, 46104, Control_c, 0, 64, 54
1, 46110, Note_off_c, 0, 73, 62
1, 46119, Control_c, 0, 64, 53
1, 46134, Control_c, 0, 64, 53
1, 46143, Note_on_c, 0, 71, 49
1, 46148, Control_c, 0, 64, 52
1, 46163, Control_c, 0, 64, 51
1, 46179, Control_c, 0, 64, 50
1, 46182, Note_off_c, 0, 71, 58
1, 46194, Control_c, 0, 64, 49
1, 46194, Control_c, 0, 67, 20
1, 46207, Note_on_c, 0, 74, 60
1, 46209, Control_c, 0, 64, 48
1, 46223, Control_c, 0, 64, 46
1, 46238, Control_c, 0, 64, 41
1, 46238, Control_c, 0, 67, 21
1, 46239, Note_off_c, 0, 74, 62
1, 46253, Control_c, 0, 64, 31
1, 46253, Control_c, 0, 67, 21
1, 46262, Note_on_c, 0, 45, 53
1, 46267, Control_c, 0, 64, 0
1, 46267, Control_c, 0, 67, 24
1, 46278, Note_on_c, 0, 73, 72
1, 46282, Control_c, 0, 67, 28
1, 46288, Note_off_c, 0, 45, 58
1, 46297, Control_c, 0, 67, 32
1, 46312, Control_c, 0, 67, 38
1, 46323, Note_off_c, 0, 73, 63
1, 46327, Control_c, 0, 67, 43
1, 46341, Control_c, 0, 67, 47
1, 46356, Control_c, 0, 67, 48
1, 46364, Note_on_c, 0, 69, 48
1, 46371, Control_c, 0, 67, 49
1, 46402, Note_off_c, 0, 69, 57
1, 46422, Note_on_c, 0, 74, 64
1, 46433, Note_on_c, 0, 57, 37
1, 46459, Control_c, 0, 67, 49
1, 46467, Note_off_c, 0, 57, 52
1, 46497, Control_c, 0, 67, 48
1, 46499, Note_off_c, 0, 74, 57
1, 46512, Control_c, 0, 67, 48
1, 46515, Note_on_c, 0, 71, 51
1, 46527, Control_c, 0, 67, 47
1, 46542, Control_c, 0, 67, 47
1, 46556, Control_c, 0, 67, 46
1, 46584, Note_off_c, 0, 71, 45
1, 46607, Note_on_c, 0, 81, 62
1, 46620, Note_on_c, 0, 76, 58
1, 46625, Note_off_c, 0, 81, 66
1, 46632, Control_c, 0, 67, 47
1, 46646, Control_c, 0, 67, 47
1, 46661, Control_c, 0, 67, 48
1, 46676, Control_c, 0, 67, 48
1, 46691, Control_c, 0, 67, 49
1, 46706, Control_c, 0, 67, 50
1, 46720, Control_c, 0, 67, 51
1, 46735, Control_c, 0, 67, 52
1, 46750, Control_c, 0, 67, 54
1, 46765, Control_c, 0, 67, 57
1, 46779, Control_c, 0, 67, 58
1, 46865, Note_on_c, 0, 64, 49
1, 46876, Note_on_c, 0, 40, 35
1, 46927, Control_c, 0, 67, 57
1, 46942, Control_c, 0, 67, 56
1, 46957, Control_c, 0, 67, 56
1, 46972, Control_c, 0, 64, 26
1, 46972, Control_c, 0, 67, 55
1, 46987, Control_c, 0, 64, 38
1, 47002, Control_c, 0, 64, 47
1, 47002, Control_c, 0, 67, 54
1, 47017, Control_c, 0, 64, 53
1, 47032, Control_c, 0, 64, 57
1, 47036, Note_off_c, 0, 64, 39
1, 47044, Note_off_c, 0, 40, 56
1, 47046, Control_c, 0, 64, 58
1, 47046, Control_c, 0, 67, 54
1, 47048, Note_on_c, 0, 74, 54
1, 47053, Note_off_c, 0, 76, 46
1, 47061, Control_c, 0, 64, 59
1, 47076, Control_c, 0, 64, 60
1, 47102, Note_off_c, 0, 74, 57
1, 47112, Note_on_c, 0, 73, 64
1, 47163, Note_off_c, 0, 73, 62
1, 47164, Control_c, 0, 64, 59
1, 47164, Control_c, 0, 67, 53
1, 47179, Control_c, 0, 64, 59
1, 47193, Note_on_c, 0, 71, 53
1, 47194, Control_c, 0, 64, 58
1, 47194, Control_c, 0, 67, 52
1, 47209, Control_c, 0, 64, 58
1, 47209, Control_c, 0, 67, 52
1, 47224, Control_c, 0, 64, 57
1, 47224, Control_c, 0, 67, 51
1, 47225, Note_off_c, 0, 71, 60
1, 47246, Control_c, 0, 64, 56
1, 47246, Control_c, 0, 67, 50
1, 47261, Control_c, 0, 64, 54
1, 47261, Control_c, 0, 67, 49
1, 47275, Note_on_c, 0, 74, 53
1, 47276, Control_c, 0, 64, 51
1, 47276, Control_c, 0, 67, 47
1, 47290, Control_c, 0, 64, 49
1, 47290, Control_c, 0, 67, 44
1, 47305, Control_c, 0, 64, 45
1, 47305, Control_c, 0, 67, 40
1, 47315, Note_off_c, 0, 74, 63
1, 47320, Control_c, 0, 64, 40
1, 47320, Control_c, 0, 67, 33
1, 47334, Note_on_c, 0, 73, 61
1, 47335, Control_c, 0, 64, 25
1, 47335, Control_c, 0, 67, 26
1, 47341, Note_on_c, 0, 45, 57
1, 47350, Control_c, 0, 64, 0
1, 47350, Control_c, 0, 67, 20
1, 47366, Control_c, 0, 67, 13
1, 47367, Note_off_c, 0, 45, 60
1, 47367, Note_off_c, 0, 73, 65
1, 47380, Control_c, 0, 67, 0
1, 47407, Note_on_c, 0, 69, 61
1, 47444, Note_off_c, 0, 69, 56
1, 47488, Note_on_c, 0, 73, 69
1, 47495, Note_on_c, 0, 57, 54
1, 47519, Note_off_c, 0, 57, 58
1, 47521, Note_off_c, 0, 73, 60
1, 47568, Note_on_c, 0, 76, 68
1, 47611, Note_off_c, 0, 76, 55
1, 47645, Note_on_c, 0, 81, 67
1, 47646, Note_on_c, 0, 49, 56
1, 47684, Note_off_c, 0, 49, 63
1, 47715, Note_off_c, 0, 81, 57
1, 47727, Note_on_c, 0, 78, 61
1, 47780, Note_off_c, 0, 78, 62
1, 47793, Note_on_c, 0, 76, 72
1, 47805, Note_on_c, 0, 50, 50
1, 47834, Note_off_c, 0, 76, 59
1, 47834, Note_off_c, 0, 50, 59
1, 47878, Note_on_c, 0, 74, 61
1, 47918, Note_off_c, 0, 74, 54
1, 47949, Note_on_c, 0, 52, 37
1, 47949, Note_on_c, 0, 73, 63
1, 47980, Note_off_c, 0, 52, 53
1, 48028, Note_off_c, 0, 73, 60
1, 48041, Note_on_c, 0, 71, 61
1, 48070, Note_off_c, 0, 71, 67
1, 48118, Note_on_c, 0, 69, 53
1, 48123, Note_on_c, 0, 40, 38
1, 48162, Note_off_c, 0, 69, 62
1, 48171, Note_off_c, 0, 40, 45
1, 48214, Note_on_c, 0, 68, 39
1, 48257, Note_off_c, 0, 68, 62
1, 48263, Control_c, 0, 64, 32
1, 48278, Control_c, 0, 64, 51
1, 48284, Note_on_c, 0, 69, 45
1, 48292, Control_c, 0, 64, 59
1, 48297, Note_on_c, 0, 45, 33
1, 48307, Control_c, 0, 64, 64
1, 48316, Note_off_c, 0, 69, 61
1, 48322, Control_c, 0, 64, 69
1, 48333, Note_off_c, 0, 45, 51
1, 48337, Control_c, 0, 64, 73
1, 48351, Control_c, 0, 64, 77
1, 48366, Control_c, 0, 64, 80
1, 48381, Control_c, 0, 64, 82
1, 48396, Control_c, 0, 64, 83
1, 48411, Control_c, 0, 64, 84
1, 48425, Control_c, 0, 64, 84
1, 48455, Control_c, 0, 64, 84
1, 48475, Note_on_c, 0, 84, 56
1, 48485, Control_c, 0, 64, 83
1, 48487, Note_on_c, 0, 72, 33
1, 48499, Control_c, 0, 64, 81
1, 48504, Note_on_c, 0, 69, 33
1, 48504, Note_off_c, 0, 84, 0
1, 48504, Note_on_c, 0, 84, 31
1, 48514, Control_c, 0, 64, 79
1, 48529, Control_c, 0, 64, 76
1, 48543, Control_c, 0, 64, 73
1, 48558, Control_c, 0, 64, 68
1, 48573, Control_c, 0, 64, 63
1, 48588, Control_c, 0, 64, 56
1, 48603, Control_c, 0, 64, 44
1, 48617, Control_c, 0, 64, 31
1, 48632, Control_c, 0, 64, 24
1, 48647, Control_c, 0, 64, 23
1, 48650, Note_off_c, 0, 69, 47
1, 48651, Note_on_c, 0, 67, 58
1, 48662, Control_c, 0, 64, 24
1, 48677, Control_c, 0, 64, 28
1, 48692, Control_c, 0, 64, 32
1, 48707, Control_c, 0, 64, 36
1, 48722, Control_c, 0, 64, 41
1, 48743, Control_c, 0, 64, 46
1, 48758, Control_c, 0, 64, 50
1, 48773, Control_c, 0, 64, 54
1, 48788, Control_c, 0, 64, 59
1, 48803, Control_c, 0, 64, 62
1, 48817, Control_c, 0, 64, 64
1, 48819, Note_on_c, 0, 65, 66
1, 48825, Note_off_c, 0, 67, 58
1, 48832, Control_c, 0, 64, 67
1, 48847, Control_c, 0, 64, 72
1, 48852, Note_off_c, 0, 84, 65
1, 48862, Control_c, 0, 64, 76
1, 48875, Note_off_c, 0, 72, 50
1, 48877, Control_c, 0, 64, 80
1, 48892, Control_c, 0, 64, 82
1, 48907, Control_c, 0, 64, 83
1, 48922, Control_c, 0, 64, 84
1, 48980, Note_on_c, 0, 84, 70
1, 48983, Note_on_c, 0, 72, 59
1, 48994, Note_on_c, 0, 69, 63
1, 49011, Control_c, 0, 64, 83
1, 49013, Note_off_c, 0, 65, 60
1, 49026, Control_c, 0, 64, 81
1, 49041, Control_c, 0, 64, 77
1, 49056, Control_c, 0, 64, 74
1, 49071, Control_c, 0, 64, 70
1, 49085, Control_c, 0, 64, 66
1, 49100, Control_c, 0, 64, 60
1, 49115, Control_c, 0, 64, 51
1, 49130, Control_c, 0, 64, 40
1, 49145, Control_c, 0, 64, 41
1, 49157, Note_on_c, 0, 64, 68
1, 49160, Control_c, 0, 64, 45
1, 49173, Control_c, 0, 64, 50
1, 49188, Control_c, 0, 64, 56
1, 49199, Note_off_c, 0, 69, 53
1, 49203, Control_c, 0, 64, 62
1, 49218, Control_c, 0, 64, 66
1, 49232, Control_c, 0, 64, 69
1, 49247, Control_c, 0, 64, 70
1, 49270, Note_off_c, 0, 72, 53
1, 49277, Control_c, 0, 64, 70
1, 49291, Control_c, 0, 64, 68
1, 49306, Control_c, 0, 64, 66
1, 49321, Control_c, 0, 64, 63
1, 49327, Note_on_c, 0, 62, 67
1, 49336, Control_c, 0, 64, 61
1, 49351, Control_c, 0, 64, 60
1, 49355, Note_off_c, 0, 64, 60
1, 49366, Control_c, 0, 64, 58
1, 49381, Control_c, 0, 64, 56
1, 49396, Control_c, 0, 64, 54
1, 49410, Control_c, 0, 64, 51
1, 49425, Control_c, 0, 64, 48
1, 49440, Control_c, 0, 64, 44
1, 49455, Control_c, 0, 64, 38
1, 49470, Control_c, 0, 64, 31
1, 49491, Control_c, 0, 64, 19
1, 49500, Note_on_c, 0, 74, 63
1, 49503, Note_on_c, 0, 86, 66
1, 49503, Note_off_c, 0, 84, 64
1, 49506, Control_c, 0, 64, 0
1, 49542, Note_off_c, 0, 86, 62
1, 49551, Note_off_c, 0, 74, 64
1, 49659, Note_on_c, 0, 65, 66
1, 49661, Note_on_c, 0, 71, 73
1, 49664, Note_off_c, 0, 62, 61
1, 49666, Note_on_c, 0, 83, 71
1, 49689, Note_off_c, 0, 83, 58
1, 49692, Note_off_c, 0, 71, 61
1, 49732, Note_off_c, 0, 65, 54
1, 49822, Note_on_c, 0, 81, 70
1, 49824, Note_on_c, 0, 69, 60
1, 49826, Note_on_c, 0, 64, 60
1, 49899, Note_off_c, 0, 69, 62
1, 49899, Note_off_c, 0, 81, 58
1, 49968, Control_c, 0, 64, 24
1, 49983, Control_c, 0, 64, 39
1, 49987, Note_on_c, 0, 81, 60
1, 49990, Note_on_c, 0, 69, 59
1, 49997, Control_c, 0, 64, 46
1, 50008, Note_off_c, 0, 81, 60
1, 50010, Note_off_c, 0, 69, 64
1, 50012, Control_c, 0, 64, 51
1, 50014, Note_off_c, 0, 64, 59
1, 50027, Control_c, 0, 64, 54
1, 50042, Control_c, 0, 64, 57
1, 50056, Control_c, 0, 64, 59
1, 50071, Control_c, 0, 64, 59
1, 50130, Control_c, 0, 64, 59
1, 50134, Note_on_c, 0, 80, 52
1, 50135, Note_on_c, 0, 52, 40
1, 50144, Note_on_c, 0, 68, 41
1, 50145, Control_c, 0, 64, 58
1, 50171, Note_off_c, 0, 68, 56
1, 50173, Note_off_c, 0, 52, 61
1, 50175, Control_c, 0, 64, 57
1, 50189, Control_c, 0, 64, 56
1, 50199, Note_off_c, 0, 80, 57
1, 50204, Control_c, 0, 64, 55
1, 50219, Control_c, 0, 64, 54
1, 50242, Control_c, 0, 64, 52
1, 50257, Control_c, 0, 64, 50
1, 50271, Control_c, 0, 64, 41
1, 50286, Control_c, 0, 64, 0
1, 50302, Note_on_c, 0, 69, 54
1, 50303, Note_on_c, 0, 81, 58
1, 50305, Note_on_c, 0, 57, 55
1, 50321, Note_off_c, 0, 81, 65
1, 50325, Note_off_c, 0, 69, 62
1, 50329, Note_off_c, 0, 57, 58
1, 50468, Note_on_c, 0, 69, 62
1, 50470, Note_on_c, 0, 85, 62
1, 50475, Note_on_c, 0, 73, 55
1, 50633, Note_on_c, 0, 68, 70
1, 50673, Note_off_c, 0, 69, 64
1, 50761, Control_c, 0, 64, 33
1, 50776, Control_c, 0, 64, 48
1, 50791, Control_c, 0, 64, 54
1, 50795, Note_on_c, 0, 66, 77
1, 50805, Control_c, 0, 64, 58
1, 50820, Control_c, 0, 64, 61
1, 50823, Note_off_c, 0, 73, 42
1, 50835, Control_c, 0, 64, 64
1, 50837, Note_off_c, 0, 68, 63
1, 50847, Note_off_c, 0, 85, 63
1, 50850, Control_c, 0, 64, 65
1, 50865, Control_c, 0, 64, 66
1, 50909, Control_c, 0, 64, 65
1, 50924, Control_c, 0, 64, 63
1, 50938, Control_c, 0, 64, 61
1, 50947, Note_on_c, 0, 69, 72
1, 50953, Note_on_c, 0, 85, 81
1, 50953, Control_c, 0, 64, 58
1, 50962, Note_on_c, 0, 73, 66
1, 50968, Control_c, 0, 64, 54
1, 50970, Note_off_c, 0, 66, 63
1, 50990, Control_c, 0, 64, 46
1, 51005, Control_c, 0, 64, 12
1, 51020, Control_c, 0, 64, 0
1, 51109, Note_on_c, 0, 64, 77
1, 51164, Note_off_c, 0, 69, 54
1, 51268, Note_on_c, 0, 62, 76
1, 51271, Note_off_c, 0, 73, 38
1, 51306, Note_off_c, 0, 64, 63
1, 51327, Note_off_c, 0, 85, 62
1, 51391, Control_c, 0, 64, 28
1, 51406, Control_c, 0, 64, 41
1, 51421, Control_c, 0, 64, 45
1, 51426, Note_on_c, 0, 86, 89
1, 51428, Note_on_c, 0, 74, 85
1, 51435, Control_c, 0, 64, 46
1, 51444, Note_off_c, 0, 86, 70
1, 51450, Note_off_c, 0, 74, 65
1, 51450, Control_c, 0, 64, 45
1, 51465, Control_c, 0, 64, 43
1, 51480, Control_c, 0, 64, 35
1, 51494, Control_c, 0, 64, 0
1, 51564, Note_off_c, 0, 62, 60
1, 51578, Note_on_c, 0, 66, 74
1, 51581, Note_on_c, 0, 83, 87
1, 51581, Note_on_c, 0, 71, 84
1, 51599, Note_off_c, 0, 83, 73
1, 51604, Note_off_c, 0, 71, 68
1, 51633, Note_off_c, 0, 66, 63
1, 51745, Note_on_c, 0, 81, 85
1, 51749, Note_on_c, 0, 69, 76
1, 51757, Note_on_c, 0, 64, 51
1, 51782, Note_on_c, 0, 62, 42
1, 51786, Note_on_c, 0, 71, 36
1, 51787, Note_off_c, 0, 71, 127
1, 51822, Note_off_c, 0, 69, 61
1, 51834, Note_off_c, 0, 81, 63
1, 51858, Control_c, 0, 64, 35
1, 51873, Control_c, 0, 64, 46
1, 51874, Note_off_c, 0, 64, 59
1, 51887, Control_c, 0, 64, 51
1, 51897, Note_off_c, 0, 62, 42
1, 51902, Control_c, 0, 64, 53
1, 51912, Note_on_c, 0, 81, 72
1, 51914, Note_on_c, 0, 69, 70
1, 51917, Control_c, 0, 64, 56
1, 51932, Control_c, 0, 64, 58
1, 51934, Note_off_c, 0, 81, 62
1, 51939, Note_off_c, 0, 69, 66
1, 51947, Control_c, 0, 64, 60
1, 51961, Control_c, 0, 64, 61
1, 51976, Control_c, 0, 64, 62
1, 52006, Control_c, 0, 64, 63
1, 52021, Control_c, 0, 64, 63
1, 52051, Note_on_c, 0, 52, 47
1, 52058, Note_on_c, 0, 68, 70
1, 52059, Note_on_c, 0, 80, 71
1, 52078, Note_off_c, 0, 52, 58
1, 52080, Control_c, 0, 64, 63
1, 52098, Note_off_c, 0, 68, 65
1, 52109, Control_c, 0, 64, 62
1, 52130, Note_off_c, 0, 80, 61
1, 52139, Control_c, 0, 64, 62
1, 52154, Control_c, 0, 64, 61
1, 52184, Control_c, 0, 64, 61
1, 52199, Control_c, 0, 64, 58
1, 52207, Note_on_c, 0, 81, 83
1, 52209, Note_on_c, 0, 69, 80
1, 52213, Note_on_c, 0, 45, 56
1, 52214, Control_c, 0, 64, 51
1, 52226, Note_off_c, 0, 81, 74
1, 52229, Control_c, 0, 64, 0
1, 52233, Note_off_c, 0, 69, 71
1, 52239, Note_off_c, 0, 45, 58
1, 52366, Note_on_c, 0, 76, 73
1, 52370, Note_on_c, 0, 64, 67
1, 52371, Note_on_c, 0, 57, 59
1, 52382, Note_off_c, 0, 76, 67
1, 52388, Note_off_c, 0, 64, 65
1, 52394, Note_off_c, 0, 57, 60
1, 52522, Note_on_c, 0, 49, 63
1, 52525, Note_on_c, 0, 73, 73
1, 52526, Note_on_c, 0, 61, 68
1, 52552, Note_off_c, 0, 73, 68
1, 52553, Note_off_c, 0, 49, 65
1, 52556, Note_off_c, 0, 61, 65
1, 52677, Note_on_c, 0, 66, 78
1, 52677, Note_on_c, 0, 57, 61
1, 52680, Note_on_c, 0, 50, 59
1, 52680, Note_on_c, 0, 78, 71
1, 52700, Note_off_c, 0, 66, 69
1, 52704, Note_off_c, 0, 78, 70
1, 52712, Note_off_c, 0, 50, 67
1, 52827, Note_on_c, 0, 74, 77
1, 52828, Note_on_c, 0, 47, 52
1, 52833, Note_on_c, 0, 62, 61
1, 52850, Note_off_c, 0, 74, 71
1, 52854, Note_off_c, 0, 47, 58
1, 52854, Note_off_c, 0, 62, 61
1, 52978, Note_on_c, 0, 52, 60
1, 52979, Note_on_c, 0, 68, 75
1, 52979, Note_on_c, 0, 80, 77
1, 53014, Note_off_c, 0, 52, 62
1, 53019, Note_off_c, 0, 68, 50
1, 53076, Note_off_c, 0, 80, 62
1, 53131, Note_on_c, 0, 81, 85
1, 53133, Note_on_c, 0, 49, 74
1, 53133, Note_on_c, 0, 69, 80
1, 53150, Note_off_c, 0, 81, 74
1, 53155, Note_off_c, 0, 69, 72
1, 53162, Note_off_c, 0, 49, 66
1, 53288, Note_on_c, 0, 45, 74
1, 53292, Note_on_c, 0, 76, 84
1, 53295, Note_on_c, 0, 64, 71
1, 53310, Note_off_c, 0, 76, 67
1, 53318, Note_off_c, 0, 45, 65
1, 53319, Note_off_c, 0, 64, 70
1, 53441, Note_on_c, 0, 73, 84
1, 53442, Note_on_c, 0, 61, 77
1, 53444, Note_on_c, 0, 49, 72
1, 53464, Note_off_c, 0, 73, 65
1, 53464, Note_off_c, 0, 61, 68
1, 53473, Note_off_c, 0, 49, 66
1, 53594, Note_on_c, 0, 78, 89
1, 53596, Note_on_c, 0, 66, 92
1, 53601, Note_on_c, 0, 50, 81
1, 53613, Note_off_c, 0, 78, 70
1, 53619, Note_off_c, 0, 66, 66
1, 53634, Note_off_c, 0, 50, 69
1, 53743, Note_on_c, 0, 74, 94
1, 53747, Note_on_c, 0, 47, 74
1, 53748, Note_on_c, 0, 62, 78
1, 53761, Note_off_c, 0, 74, 73
1, 53766, Note_off_c, 0, 62, 69
1, 53777, Note_off_c, 0, 47, 66
1, 53896, Note_on_c, 0, 68, 91
1, 53896, Note_on_c, 0, 80, 92
1, 53898, Note_on_c, 0, 52, 80
1, 53946, Note_off_c, 0, 68, 61
1, 53949, Note_off_c, 0, 52, 61
1, 53993, Note_off_c, 0, 80, 63
1, 54016, Control_c, 0, 64, 30
1, 54031, Control_c, 0, 64, 32
1, 54045, Control_c, 0, 64, 0
1, 54056, Note_on_c, 0, 49, 83
1, 54061, Note_on_c, 0, 69, 88
1, 54061, Note_on_c, 0, 81, 96
1, 54076, Note_off_c, 0, 81, 77
1, 54083, Note_off_c, 0, 69, 67
1, 54092, Note_off_c, 0, 49, 64
1, 54207, Note_on_c, 0, 45, 80
1, 54210, Note_on_c, 0, 64, 92
1, 54213, Note_on_c, 0, 76, 84
1, 54228, Note_off_c, 0, 76, 71
1, 54229, Note_off_c, 0, 64, 73
1, 54236, Note_on_c, 0, 74, 49
1, 54237, Note_off_c, 0, 74, 127
1, 54238, Note_off_c, 0, 45, 67
1, 54358, Note_on_c, 0, 61, 89
1, 54358, Note_on_c, 0, 73, 91
1, 54360, Note_on_c, 0, 49, 79
1, 54378, Note_off_c, 0, 61, 69
1, 54389, Note_off_c, 0, 73, 59
1, 54402, Note_off_c, 0, 49, 61
1, 54514, Note_on_c, 0, 50, 84
1, 54514, Note_on_c, 0, 66, 100
1, 54514, Note_on_c, 0, 78, 92
1, 54542, Note_off_c, 0, 78, 64
1, 54544, Note_off_c, 0, 66, 66
1, 54555, Note_off_c, 0, 50, 68
1, 54661, Note_on_c, 0, 47, 80
1, 54662, Note_on_c, 0, 74, 94
1, 54663, Note_on_c, 0, 62, 86
1, 54682, Note_off_c, 0, 74, 68
1, 54685, Note_off_c, 0, 62, 70
1, 54697, Note_off_c, 0, 47, 64
1, 54821, Note_on_c, 0, 68, 97
1, 54821, Note_on_c, 0, 52, 78
1, 54821, Note_on_c, 0, 80, 95
1, 54866, Note_off_c, 0, 68, 62
1, 54912, Note_off_c, 0, 80, 63
1, 54925, Note_off_c, 0, 52, 55
1, 54969, Note_on_c, 0, 49, 81
1, 54974, Note_on_c, 0, 69, 92
1, 54975, Note_on_c, 0, 81, 92
1, 54989, Note_off_c, 0, 57, 49
1, 54990, Note_off_c, 0, 81, 77
1, 54993, Note_off_c, 0, 69, 71
1, 55015, Note_off_c, 0, 49, 60
1, 55123, Note_on_c, 0, 73, 90
1, 55123, Note_on_c, 0, 76, 86
1, 55133, Note_on_c, 0, 45, 84
1, 55149, Note_off_c, 0, 76, 67
1, 55170, Note_off_c, 0, 73, 64
1, 55173, Note_off_c, 0, 45, 63
1, 55274, Note_on_c, 0, 50, 92
1, 55280, Note_on_c, 0, 66, 86
1, 55281, Note_on_c, 0, 74, 81
1, 55303, Note_off_c, 0, 50, 68
1, 55305, Note_off_c, 0, 74, 68
1, 55314, Note_off_c, 0, 66, 63
1, 55437, Note_on_c, 0, 52, 85
1, 55439, Note_on_c, 0, 64, 95
1, 55439, Note_on_c, 0, 73, 97
1, 55465, Note_off_c, 0, 64, 66
1, 55491, Note_off_c, 0, 73, 64
1, 55526, Note_off_c, 0, 52, 59
1, 55593, Note_on_c, 0, 73, 92
1, 55594, Note_on_c, 0, 64, 90
1, 55617, Note_off_c, 0, 64, 69
1, 55630, Note_off_c, 0, 73, 63
1, 55746, Note_on_c, 0, 40, 63
1, 55747, Note_on_c, 0, 62, 78
1, 55747, Note_on_c, 0, 71, 81
1, 55768, Note_off_c, 0, 71, 73
1, 55770, Note_off_c, 0, 62, 67
1, 55784, Note_off_c, 0, 40, 61
1, 55893, Note_on_c, 0, 69, 81
1, 55894, Note_on_c, 0, 45, 77
1, 55894, Note_on_c, 0, 61, 83
1, 55930, Note_off_c, 0, 61, 63
1, 55935, Note_off_c, 0, 69, 64
1, 56053, Note_on_c, 0, 61, 76
1, 56053, Note_on_c, 0, 69, 70
1, 56079, Note_off_c, 0, 61, 66
1, 56098, Note_off_c, 0, 69, 56
1, 56148, Note_off_c, 0, 45, 53
1, 56193, Note_on_c, 0, 71, 71
1, 56208, Note_on_c, 0, 64, 66
1, 56230, Note_off_c, 0, 71, 63
1, 56245, Note_off_c, 0, 64, 66
1, 56350, Note_on_c, 0, 45, 58
1, 56359, Note_on_c, 0, 69, 72
1, 56359, Note_on_c, 0, 61, 79
1, 56386, Note_off_c, 0, 61, 67
1, 56394, Note_off_c, 0, 69, 63
1, 56511, Note_on_c, 0, 61, 78
1, 56514, Note_on_c, 0, 69, 69
1, 56536, Note_off_c, 0, 61, 67
1, 56553, Note_off_c, 0, 69, 61
1, 56625, Note_off_c, 0, 45, 47
1, 56652, Note_on_c, 0, 71, 66
1, 56661, Note_on_c, 0, 64, 63
1, 56685, Note_off_c, 0, 71, 57
1, 56690, Note_off_c, 0, 64, 67
1, 56809, Note_on_c, 0, 61, 67
1, 56809, Note_on_c, 0, 69, 63
1, 56819, Note_on_c, 0, 45, 34
1, 56836, Note_off_c, 0, 61, 66
1, 56840, Note_off_c, 0, 69, 65
1, 56956, Note_on_c, 0, 71, 68
1, 56964, Note_on_c, 0, 64, 70
1, 56993, Note_off_c, 0, 71, 65
1, 56994, Note_off_c, 0, 45, 49
1, 56997, Note_off_c, 0, 64, 68
1, 57101, Note_on_c, 0, 45, 49
1, 57119, Note_on_c, 0, 61, 74
1, 57119, Note_on_c, 0, 69, 74
1, 57144, Note_off_c, 0, 61, 67
1, 57166, Note_off_c, 0, 69, 65
1, 57264, Note_on_c, 0, 71, 79
1, 57265, Note_off_c, 0, 45, 60
1, 57265, Note_on_c, 0, 64, 81
1, 57295, Note_off_c, 0, 64, 65
1, 57298, Note_off_c, 0, 71, 65
1, 57402, Note_on_c, 0, 45, 53
1, 57410, Note_on_c, 0, 69, 72
1, 57417, Note_on_c, 0, 61, 67
1, 57446, Note_off_c, 0, 61, 65
1, 57450, Note_off_c, 0, 69, 54
1, 57557, Note_on_c, 0, 64, 68
1, 57560, Note_on_c, 0, 71, 64
1, 57583, Note_off_c, 0, 45, 57
1, 57586, Note_off_c, 0, 64, 67
1, 57592, Note_off_c, 0, 71, 65
1, 57753, Note_on_c, 0, 45, 39
1, 57769, Note_on_c, 0, 69, 53
1, 57795, Note_on_c, 0, 61, 27
1, 57877, Control_c, 0, 64, 18
1, 57890, Note_off_c, 0, 69, 62
1, 57892, Control_c, 0, 64, 27
1, 57907, Control_c, 0, 64, 32
1, 57911, Note_on_c, 0, 71, 52
1, 57922, Control_c, 0, 64, 36
1, 57936, Control_c, 0, 64, 41
1, 57951, Control_c, 0, 64, 46
1, 57963, Note_off_c, 0, 71, 62
1, 57966, Control_c, 0, 64, 51
1, 57981, Control_c, 0, 64, 54
1, 57984, Note_on_c, 0, 69, 52
1, 57996, Control_c, 0, 64, 56
1, 58010, Control_c, 0, 64, 57
1, 58025, Control_c, 0, 64, 58
1, 58026, Note_off_c, 0, 69, 65
1, 58040, Control_c, 0, 64, 60
1, 58042, Note_on_c, 0, 71, 48
1, 58055, Control_c, 0, 64, 62
1, 58070, Control_c, 0, 64, 64
1, 58072, Note_off_c, 0, 71, 63
1, 58085, Control_c, 0, 64, 65
1, 58088, Note_on_c, 0, 69, 57
1, 58100, Control_c, 0, 64, 67
1, 58115, Control_c, 0, 64, 68
1, 58122, Note_off_c, 0, 69, 67
1, 58129, Control_c, 0, 64, 69
1, 58144, Control_c, 0, 64, 70
1, 58146, Note_on_c, 0, 71, 60
1, 58159, Control_c, 0, 64, 71
1, 58171, Note_off_c, 0, 71, 63
1, 58174, Control_c, 0, 64, 72
1, 58189, Control_c, 0, 64, 73
1, 58190, Note_on_c, 0, 69, 53
1, 58218, Control_c, 0, 64, 73
1, 58229, Note_off_c, 0, 69, 62
1, 58236, Note_on_c, 0, 71, 68
1, 58264, Note_off_c, 0, 71, 66
1, 58288, Poly_aftertouch_c, 0, 69, 127
1, 58306, Poly_aftertouch_c, 0, 69, 0
1, 58325, Note_on_c, 0, 71, 63
1, 58356, Note_off_c, 0, 71, 64
1, 58370, Note_on_c, 0, 69, 51
1, 58413, Note_on_c, 0, 71, 57
1, 58413, Note_off_c, 0, 69, 54
1, 58443, Note_off_c, 0, 71, 64
1, 58460, Poly_aftertouch_c, 0, 69, 127
1, 58499, Poly_aftertouch_c, 0, 69, 0
1, 58525, Note_on_c, 0, 71, 54
1, 58536, Control_c, 0, 64, 73
1, 58547, Note_on_c, 0, 69, 57
1, 58547, Note_off_c, 0, 71, 61
1, 58582, Control_c, 0, 64, 72
1, 58602, Note_off_c, 0, 69, 61
1, 58626, Control_c, 0, 64, 72
1, 58627, Note_on_c, 0, 71, 42
1, 58641, Control_c, 0, 64, 71
1, 58654, Note_off_c, 0, 71, 57
1, 58655, Note_on_c, 0, 69, 39
1, 58656, Control_c, 0, 64, 70
1, 58671, Control_c, 0, 64, 69
1, 58685, Control_c, 0, 64, 68
1, 58700, Control_c, 0, 64, 67
1, 58715, Control_c, 0, 64, 65
1, 58730, Control_c, 0, 64, 62
1, 58745, Control_c, 0, 64, 60
1, 58759, Control_c, 0, 64, 56
1, 58774, Control_c, 0, 64, 52
1, 58789, Control_c, 0, 64, 49
1, 58804, Control_c, 0, 64, 49
1, 58819, Control_c, 0, 64, 49
1, 58833, Control_c, 0, 64, 50
1, 58863, Control_c, 0, 64, 51
1, 58878, Control_c, 0, 64, 52
1, 58893, Control_c, 0, 64, 53
1, 58908, Control_c, 0, 64, 54
1, 58922, Control_c, 0, 64, 55
1, 58937, Control_c, 0, 64, 55
1, 58952, Control_c, 0, 64, 57
1, 58967, Control_c, 0, 64, 58
1, 58982, Control_c, 0, 64, 59
1, 58997, Control_c, 0, 64, 61
1, 59012, Control_c, 0, 64, 61
1, 59026, Control_c, 0, 64, 62
1, 59041, Control_c, 0, 64, 63
1, 59056, Control_c, 0, 64, 64
1, 59070, Control_c, 0, 64, 66
1, 59085, Control_c, 0, 64, 68
1, 59100, Control_c, 0, 64, 71
1, 59115, Control_c, 0, 64, 73
1, 59130, Control_c, 0, 64, 74
1, 59144, Control_c, 0, 64, 76
1, 59159, Control_c, 0, 64, 79
1, 59174, Control_c, 0, 64, 81
1, 59189, Control_c, 0, 64, 84
1, 59203, Control_c, 0, 64, 88
1, 59226, Control_c, 0, 64, 92
1, 59241, Control_c, 0, 64, 95
1, 59253, Note_off_c, 0, 45, 42
1, 59256, Control_c, 0, 64, 99
1, 59256, Note_off_c, 0, 61, 41
1, 59271, Control_c, 0, 64, 103
1, 59285, Control_c, 0, 64, 106
1, 59300, Control_c, 0, 64, 111
1, 59301, Note_off_c, 0, 69, 48
1, 59315, Control_c, 0, 64, 114
1, 59330, Control_c, 0, 64, 117
1, 59346, Control_c, 0, 64, 118
1, 59361, Control_c, 0, 64, 119
1, 59464, Control_c, 0, 64, 118
1, 59493, Control_c, 0, 64, 114
1, 59508, Control_c, 0, 64, 109
1, 59523, Control_c, 0, 64, 103
1, 59538, Control_c, 0, 64, 97
1, 59553, Control_c, 0, 64, 91
1, 59568, Control_c, 0, 64, 84
1, 59582, Control_c, 0, 64, 78
1, 59597, Control_c, 0, 64, 73
1, 59612, Control_c, 0, 64, 67
1, 59626, Control_c, 0, 64, 62
1, 59641, Control_c, 0, 64, 55
1, 59656, Control_c, 0, 64, 47
1, 59671, Control_c, 0, 64, 30
1, 59686, Control_c, 0, 64, 0
1, 59975, Control_c, 0, 67, 9
1, 59990, Control_c, 0, 67, 10
1, 60005, Control_c, 0, 67, 11
1, 60019, Control_c, 0, 67, 12
1, 60049, Control_c, 0, 67, 12
1, 60064, Control_c, 0, 67, 13
1, 60079, Control_c, 0, 67, 14
1, 60094, Control_c, 0, 67, 15
1, 60108, Control_c, 0, 67, 16
1, 60112, Note_on_c, 0, 78, 63
1, 60115, Note_on_c, 0, 81, 57
1, 60123, Control_c, 0, 67, 18
1, 60137, Note_off_c, 0, 81, 64
1, 60138, Control_c, 0, 67, 22
1, 60142, Note_off_c, 0, 78, 67
1, 60154, Control_c, 0, 67, 25
1, 60168, Control_c, 0, 67, 28
1, 60183, Control_c, 0, 67, 32
1, 60198, Control_c, 0, 67, 34
1, 60213, Control_c, 0, 67, 37
1, 60228, Control_c, 0, 67, 40
1, 60242, Control_c, 0, 67, 43
1, 60257, Control_c, 0, 67, 46
1, 60272, Control_c, 0, 67, 49
1, 60273, Note_on_c, 0, 78, 63
1, 60287, Control_c, 0, 67, 54
1, 60288, Note_on_c, 0, 74, 36
1, 60300, Note_off_c, 0, 78, 68
1, 60302, Control_c, 0, 67, 59
1, 60316, Control_c, 0, 67, 63
1, 60318, Note_off_c, 0, 74, 55
1, 60331, Control_c, 0, 67, 66
1, 60346, Control_c, 0, 67, 68
1, 60361, Control_c, 0, 67, 69
1, 60376, Control_c, 0, 67, 70
1, 60391, Control_c, 0, 67, 72
1, 60405, Control_c, 0, 67, 75
1, 60420, Control_c, 0, 67, 77
1, 60421, Note_on_c, 0, 76, 69
1, 60431, Note_on_c, 0, 69, 46
1, 60435, Control_c, 0, 67, 79
1, 60440, Note_off_c, 0, 76, 67
1, 60449, Control_c, 0, 67, 79
1, 60459, Note_off_c, 0, 69, 56
1, 60557, Note_on_c, 0, 76, 63
1, 60574, Note_on_c, 0, 74, 73
1, 60579, Note_on_c, 0, 66, 56
1, 60610, Note_off_c, 0, 76, 57
1, 60611, Note_off_c, 0, 66, 65
1, 60617, Note_off_c, 0, 74, 61
1, 60725, Note_on_c, 0, 66, 48
1, 60736, Note_on_c, 0, 74, 54
1, 60757, Note_off_c, 0, 66, 62
1, 60758, Note_off_c, 0, 74, 62
1, 60872, Control_c, 0, 67, 80
1, 60874, Note_on_c, 0, 76, 59
1, 60875, Note_on_c, 0, 69, 49
1, 60896, Note_off_c, 0, 76, 62
1, 60905, Note_off_c, 0, 69, 61
1, 61009, Note_on_c, 0, 76, 62
1, 61024, Note_on_c, 0, 74, 71
1, 61027, Note_on_c, 0, 66, 54
1, 61039, Note_off_c, 0, 76, 65
1, 61051, Note_off_c, 0, 66, 63
1, 61052, Note_off_c, 0, 74, 66
1, 61160, Note_on_c, 0, 66, 45
1, 61165, Note_on_c, 0, 74, 61
1, 61196, Note_off_c, 0, 74, 65
1, 61203, Note_off_c, 0, 66, 62
1, 61315, Note_on_c, 0, 76, 64
1, 61324, Note_on_c, 0, 69, 45
1, 61340, Note_off_c, 0, 76, 59
1, 61352, Note_off_c, 0, 69, 56
1, 61458, Note_on_c, 0, 76, 60
1, 61474, Note_on_c, 0, 74, 68
1, 61484, Note_on_c, 0, 66, 53
1, 61493, Note_off_c, 0, 76, 65
1, 61503, Note_off_c, 0, 74, 66
1, 61509, Note_off_c, 0, 66, 61
1, 61611, Note_on_c, 0, 66, 49
1, 61614, Note_on_c, 0, 74, 66
1, 61641, Note_off_c, 0, 74, 67
1, 61657, Note_off_c, 0, 66, 59
1, 61739, Control_c, 0, 67, 79
1, 61766, Note_on_c, 0, 76, 66
1, 61769, Note_on_c, 0, 69, 46
1, 61784, Control_c, 0, 67, 79
1, 61787, Note_off_c, 0, 76, 64
1, 61799, Note_off_c, 0, 69, 60
1, 61799, Control_c, 0, 67, 78
1, 61814, Control_c, 0, 67, 78
1, 61829, Control_c, 0, 67, 77
1, 61844, Control_c, 0, 67, 76
1, 61859, Control_c, 0, 67, 76
1, 61874, Control_c, 0, 67, 74
1, 61888, Control_c, 0, 67, 73
1, 61903, Control_c, 0, 67, 71
1, 61914, Note_on_c, 0, 78, 71
1, 61918, Control_c, 0, 67, 70
1, 61926, Note_on_c, 0, 74, 54
1, 61933, Control_c, 0, 67, 67
1, 61937, Note_off_c, 0, 78, 71
1, 61948, Control_c, 0, 67, 62
1, 61952, Note_off_c, 0, 74, 64
1, 61962, Control_c, 0, 67, 55
1, 61977, Control_c, 0, 67, 43
1, 61992, Control_c, 0, 67, 30
1, 62007, Control_c, 0, 67, 15
1, 62021, Control_c, 0, 67, 0
1, 62070, Note_on_c, 0, 76, 55
1, 62076, Note_on_c, 0, 79, 57
1, 62095, Note_off_c, 0, 79, 62
1, 62103, Note_off_c, 0, 76, 60
1, 62210, Note_on_c, 0, 81, 66
1, 62229, Note_on_c, 0, 78, 54
1, 62242, Note_off_c, 0, 81, 67
1, 62250, Note_off_c, 0, 78, 62
1, 62377, Note_on_c, 0, 78, 54
1, 62401, Note_on_c, 0, 69, 46
1, 62412, Note_off_c, 0, 78, 65
1, 62422, Note_on_c, 0, 76, 60
1, 62454, Note_off_c, 0, 76, 61
1, 62473, Control_c, 0, 67, 11
1, 62484, Note_on_c, 0, 78, 64
1, 62488, Control_c, 0, 67, 16
1, 62503, Control_c, 0, 67, 22
1, 62516, Note_off_c, 0, 78, 64
1, 62517, Control_c, 0, 64, 20
1, 62517, Control_c, 0, 67, 28
1, 62529, Note_on_c, 0, 76, 67
1, 62532, Control_c, 0, 64, 40
1, 62532, Control_c, 0, 67, 35
1, 62548, Control_c, 0, 64, 48
1, 62548, Control_c, 0, 67, 42
1, 62563, Control_c, 0, 64, 53
1, 62563, Control_c, 0, 67, 49
1, 62569, Note_off_c, 0, 76, 59
1, 62578, Control_c, 0, 64, 56
1, 62578, Control_c, 0, 67, 56
1, 62592, Control_c, 0, 64, 58
1, 62592, Control_c, 0, 67, 61
1, 62598, Note_on_c, 0, 78, 47
1, 62607, Control_c, 0, 64, 59
1, 62607, Control_c, 0, 67, 65
1, 62622, Control_c, 0, 64, 60
1, 62622, Control_c, 0, 67, 68
1, 62623, Note_off_c, 0, 78, 59
1, 62635, Note_on_c, 0, 76, 58
1, 62637, Control_c, 0, 64, 61
1, 62637, Control_c, 0, 67, 70
1, 62652, Control_c, 0, 64, 62
1, 62652, Control_c, 0, 67, 72
1, 62659, Note_off_c, 0, 76, 61
1, 62667, Control_c, 0, 67, 73
1, 62674, Note_on_c, 0, 78, 64
1, 62682, Control_c, 0, 67, 74
1, 62697, Control_c, 0, 67, 74
1, 62698, Note_off_c, 0, 78, 61
1, 62733, Note_on_c, 0, 76, 62
1, 62741, Control_c, 0, 64, 61
1, 62753, Note_off_c, 0, 76, 63
1, 62756, Control_c, 0, 64, 61
1, 62765, Note_on_c, 0, 78, 63
1, 62771, Control_c, 0, 64, 60
1, 62785, Note_off_c, 0, 78, 66
1, 62786, Control_c, 0, 64, 58
1, 62801, Control_c, 0, 64, 57
1, 62801, Control_c, 0, 67, 73
1, 62805, Note_on_c, 0, 76, 80
1, 62816, Control_c, 0, 64, 54
1, 62816, Control_c, 0, 67, 72
1, 62828, Note_on_c, 0, 74, 81
1, 62830, Note_off_c, 0, 69, 55
1, 62830, Note_off_c, 0, 76, 69
1, 62830, Control_c, 0, 64, 50
1, 62830, Control_c, 0, 67, 70
1, 62845, Control_c, 0, 64, 42
1, 62845, Control_c, 0, 67, 68
1, 62847, Note_on_c, 0, 78, 59
1, 62850, Note_off_c, 0, 74, 70
1, 62860, Control_c, 0, 64, 0
1, 62860, Control_c, 0, 67, 67
1, 62868, Note_off_c, 0, 78, 64
1, 62875, Control_c, 0, 67, 65
1, 62890, Control_c, 0, 67, 63
1, 62905, Control_c, 0, 67, 60
1, 62919, Control_c, 0, 67, 57
1, 62934, Control_c, 0, 67, 54
1, 62949, Control_c, 0, 67, 48
1, 62971, Control_c, 0, 67, 39
1, 62979, Note_on_c, 0, 79, 87
1, 62986, Control_c, 0, 67, 28
1, 62997, Note_on_c, 0, 76, 66
1, 63000, Control_c, 0, 67, 16
1, 63004, Note_off_c, 0, 79, 63
1, 63015, Note_off_c, 0, 76, 65
1, 63015, Control_c, 0, 67, 0
1, 63129, Note_on_c, 0, 81, 85
1, 63138, Note_on_c, 0, 78, 76
1, 63149, Note_off_c, 0, 81, 70
1, 63160, Note_off_c, 0, 78, 72
1, 63292, Note_on_c, 0, 78, 78
1, 63313, Note_on_c, 0, 69, 63
1, 63328, Note_off_c, 0, 78, 65
1, 63343, Note_on_c, 0, 76, 76
1, 63372, Control_c, 0, 64, 24
1, 63378, Note_off_c, 0, 76, 58
1, 63387, Control_c, 0, 64, 49
1, 63397, Note_on_c, 0, 78, 73
1, 63401, Control_c, 0, 64, 57
1, 63415, Control_c, 0, 64, 59
1, 63429, Note_off_c, 0, 78, 63
1, 63430, Control_c, 0, 64, 61
1, 63445, Control_c, 0, 64, 62
1, 63453, Note_on_c, 0, 76, 78
1, 63460, Control_c, 0, 64, 64
1, 63474, Control_c, 0, 64, 65
1, 63477, Note_off_c, 0, 76, 65
1, 63489, Control_c, 0, 64, 66
1, 63495, Note_on_c, 0, 78, 74
1, 63504, Control_c, 0, 64, 67
1, 63519, Note_off_c, 0, 78, 67
1, 63551, Note_on_c, 0, 76, 72
1, 63577, Note_off_c, 0, 76, 66
1, 63589, Note_on_c, 0, 78, 79
1, 63594, Control_c, 0, 64, 66
1, 63608, Control_c, 0, 64, 66
1, 63623, Control_c, 0, 64, 65
1, 63629, Note_off_c, 0, 78, 58
1, 63638, Control_c, 0, 64, 64
1, 63653, Control_c, 0, 64, 64
1, 63657, Note_on_c, 0, 76, 66
1, 63667, Control_c, 0, 64, 63
1, 63682, Control_c, 0, 64, 62
1, 63697, Control_c, 0, 64, 61
1, 63717, Note_on_c, 0, 78, 91
1, 63717, Note_off_c, 0, 76, 62
1, 63719, Control_c, 0, 64, 60
1, 63734, Control_c, 0, 64, 60
1, 63741, Note_off_c, 0, 78, 66
1, 63746, Note_off_c, 0, 69, 59
1, 63751, Note_on_c, 0, 74, 89
1, 63763, Control_c, 0, 64, 59
1, 63772, Note_off_c, 0, 74, 69
1, 63778, Control_c, 0, 64, 55
1, 63793, Control_c, 0, 64, 29
1, 63808, Control_c, 0, 64, 0
1, 63886, Note_on_c, 0, 76, 92
1, 63889, Note_on_c, 0, 79, 92
1, 63910, Note_off_c, 0, 79, 66
1, 63912, Note_off_c, 0, 76, 64
1, 64056, Note_on_c, 0, 81, 92
1, 64060, Note_on_c, 0, 78, 80
1, 64076, Note_off_c, 0, 81, 69
1, 64079, Note_off_c, 0, 78, 73
1, 64300, Note_on_c, 0, 69, 42
1, 64300, Note_on_c, 0, 78, 55
1, 64327, Control_c, 0, 67, 8
1, 64333, Note_off_c, 0, 78, 55
1, 64342, Control_c, 0, 67, 9
1, 64357, Control_c, 0, 67, 10
1, 64364, Note_on_c, 0, 76, 55
1, 64372, Control_c, 0, 67, 13
1, 64386, Control_c, 0, 67, 16
1, 64401, Control_c, 0, 67, 20
1, 64404, Note_off_c, 0, 76, 52
1, 64414, Note_on_c, 0, 78, 64
1, 64416, Control_c, 0, 67, 26
1, 64431, Control_c, 0, 64, 27
1, 64431, Control_c, 0, 67, 32
1, 64446, Control_c, 0, 64, 40
1, 64446, Control_c, 0, 67, 38
1, 64465, Note_off_c, 0, 78, 59
1, 64468, Control_c, 0, 64, 49
1, 64468, Control_c, 0, 67, 45
1, 64483, Control_c, 0, 64, 53
1, 64483, Control_c, 0, 67, 51
1, 64486, Note_on_c, 0, 76, 55
1, 64497, Control_c, 0, 64, 55
1, 64497, Control_c, 0, 67, 55
1, 64512, Control_c, 0, 64, 57
1, 64512, Control_c, 0, 67, 58
1, 64519, Note_off_c, 0, 76, 55
1, 64527, Control_c, 0, 64, 59
1, 64527, Control_c, 0, 67, 61
1, 64539, Note_on_c, 0, 78, 54
1, 64542, Control_c, 0, 64, 61
1, 64542, Control_c, 0, 67, 62
1, 64557, Control_c, 0, 64, 63
1, 64557, Control_c, 0, 67, 63
1, 64571, Control_c, 0, 64, 65
1, 64571, Control_c, 0, 67, 63
1, 64573, Note_off_c, 0, 78, 66
1, 64586, Control_c, 0, 64, 67
1, 64590, Note_on_c, 0, 76, 70
1, 64601, Control_c, 0, 64, 69
1, 64616, Control_c, 0, 64, 71
1, 64624, Note_off_c, 0, 76, 61
1, 64631, Control_c, 0, 64, 73
1, 64646, Control_c, 0, 64, 75
1, 64648, Note_on_c, 0, 78, 64
1, 64661, Control_c, 0, 64, 77
1, 64674, Note_off_c, 0, 78, 61
1, 64676, Control_c, 0, 64, 79
1, 64690, Control_c, 0, 64, 81
1, 64700, Note_on_c, 0, 76, 69
1, 64705, Control_c, 0, 64, 83
1, 64720, Control_c, 0, 64, 85
1, 64729, Note_off_c, 0, 76, 55
1, 64735, Control_c, 0, 64, 88
1, 64740, Note_on_c, 0, 78, 75
1, 64750, Control_c, 0, 64, 90
1, 64764, Control_c, 0, 64, 93
1, 64770, Note_off_c, 0, 78, 61
1, 64779, Control_c, 0, 64, 95
1, 64794, Control_c, 0, 64, 97
1, 64800, Note_on_c, 0, 76, 76
1, 64809, Control_c, 0, 64, 101
1, 64823, Control_c, 0, 64, 105
1, 64831, Note_off_c, 0, 76, 62
1, 64838, Control_c, 0, 64, 110
1, 64846, Note_on_c, 0, 78, 71
1, 64853, Control_c, 0, 64, 117
1, 64868, Control_c, 0, 64, 127
1, 64874, Note_off_c, 0, 69, 59
1, 64877, Note_off_c, 0, 78, 64
1, 64902, Note_on_c, 0, 76, 72
1, 64912, Control_c, 0, 67, 63
1, 64935, Note_off_c, 0, 76, 56
1, 64943, Control_c, 0, 67, 62
1, 64951, Note_on_c, 0, 78, 62
1, 64972, Note_off_c, 0, 78, 66
1, 64973, Control_c, 0, 67, 62
1, 65004, Note_on_c, 0, 76, 66
1, 65017, Control_c, 0, 67, 61
1, 65036, Note_on_c, 0, 78, 73
1, 65036, Note_off_c, 0, 76, 60
1, 65076, Note_off_c, 0, 78, 54
1, 65091, Control_c, 0, 67, 61
1, 65109, Note_on_c, 0, 76, 67
1, 65141, Note_off_c, 0, 76, 61
1, 65150, Control_c, 0, 67, 60
1, 65151, Note_on_c, 0, 78, 59
1, 65171, Note_off_c, 0, 78, 64
1, 65194, Control_c, 0, 67, 60
1, 65220, Note_on_c, 0, 76, 48
1, 65245, Note_on_c, 0, 78, 65
1, 65273, Note_off_c, 0, 76, 0
1, 65281, Note_off_c, 0, 78, 60
1, 65287, Note_on_c, 0, 76, 47
1, 65321, Note_off_c, 0, 76, 61
1, 65409, Control_c, 0, 67, 60
1, 65454, Control_c, 0, 67, 61
1, 65469, Control_c, 0, 64, 107
1, 65483, Note_on_c, 0, 50, 51
1, 65483, Control_c, 0, 64, 95
1, 65498, Control_c, 0, 64, 87
1, 65498, Control_c, 0, 67, 61
1, 65513, Control_c, 0, 64, 81
1, 65513, Control_c, 0, 67, 62
1, 65528, Control_c, 0, 64, 77
1, 65543, Control_c, 0, 64, 76
1, 65558, Control_c, 0, 67, 62
1, 65587, Control_c, 0, 64, 75
1, 65602, Control_c, 0, 64, 74
1, 65617, Control_c, 0, 64, 71
1, 65632, Control_c, 0, 64, 68
1, 65647, Control_c, 0, 64, 66
1, 65659, Note_on_c, 0, 62, 45
1, 65659, Note_on_c, 0, 76, 70
1, 65677, Control_c, 0, 64, 68
1, 65692, Control_c, 0, 64, 68
1, 65706, Note_off_c, 0, 76, 57
1, 65707, Control_c, 0, 64, 69
1, 65721, Control_c, 0, 64, 68
1, 65734, Note_off_c, 0, 62, 54
1, 65736, Control_c, 0, 64, 67
1, 65741, Note_on_c, 0, 74, 46
1, 65752, Control_c, 0, 64, 66
1, 65776, Note_off_c, 0, 74, 62
1, 65791, Note_on_c, 0, 76, 47
1, 65796, Control_c, 0, 64, 67
1, 65804, Note_on_c, 0, 59, 60
1, 65807, Note_on_c, 0, 55, 56
1, 65811, Control_c, 0, 64, 68
1, 65815, Note_off_c, 0, 76, 58
1, 65826, Control_c, 0, 64, 69
1, 65834, Note_off_c, 0, 59, 65
1, 65841, Control_c, 0, 64, 69
1, 65847, Note_on_c, 0, 74, 58
1, 65852, Note_off_c, 0, 55, 58
1, 65856, Control_c, 0, 64, 67
1, 65866, Note_off_c, 0, 74, 64
1, 65870, Control_c, 0, 64, 65
1, 65880, Note_on_c, 0, 76, 71
1, 65885, Control_c, 0, 64, 63
1, 65900, Control_c, 0, 64, 61
1, 65900, Control_c, 0, 67, 62
1, 65909, Note_off_c, 0, 76, 62
1, 65915, Control_c, 0, 64, 62
1, 65915, Control_c, 0, 67, 61
1, 65929, Control_c, 0, 64, 63
1, 65929, Control_c, 0, 67, 60
1, 65938, Note_on_c, 0, 74, 65
1, 65944, Control_c, 0, 64, 66
1, 65944, Control_c, 0, 67, 60
1, 65966, Control_c, 0, 64, 68
1, 65966, Control_c, 0, 67, 59
1, 65972, Note_off_c, 0, 50, 44
1, 65973, Note_on_c, 0, 54, 61
1, 65979, Note_on_c, 0, 57, 58
1, 65981, Control_c, 0, 67, 59
1, 65984, Note_off_c, 0, 74, 60
1, 65985, Note_on_c, 0, 76, 66
1, 65996, Control_c, 0, 64, 66
1, 65996, Control_c, 0, 67, 58
1, 66011, Control_c, 0, 64, 64
1, 66011, Control_c, 0, 67, 57
1, 66017, Note_off_c, 0, 76, 62
1, 66026, Control_c, 0, 64, 61
1, 66026, Control_c, 0, 67, 55
1, 66041, Control_c, 0, 64, 60
1, 66041, Control_c, 0, 67, 55
1, 66045, Note_on_c, 0, 74, 56
1, 66056, Control_c, 0, 64, 62
1, 66056, Control_c, 0, 67, 53
1, 66070, Note_off_c, 0, 74, 62
1, 66070, Control_c, 0, 64, 64
1, 66070, Control_c, 0, 67, 51
1, 66080, Note_on_c, 0, 76, 72
1, 66085, Control_c, 0, 64, 66
1, 66085, Control_c, 0, 67, 50
1, 66100, Control_c, 0, 64, 67
1, 66100, Control_c, 0, 67, 48
1, 66102, Note_on_c, 0, 62, 63
1, 66106, Note_off_c, 0, 76, 65
1, 66114, Note_off_c, 0, 54, 45
1, 66115, Control_c, 0, 64, 66
1, 66115, Control_c, 0, 67, 46
1, 66130, Control_c, 0, 64, 64
1, 66130, Control_c, 0, 67, 42
1, 66140, Note_on_c, 0, 74, 61
1, 66144, Control_c, 0, 64, 61
1, 66144, Control_c, 0, 67, 36
1, 66148, Note_off_c, 0, 57, 53
1, 66159, Control_c, 0, 64, 59
1, 66159, Control_c, 0, 67, 29
1, 66160, Note_off_c, 0, 74, 61
1, 66169, Note_on_c, 0, 76, 72
1, 66174, Control_c, 0, 64, 58
1, 66174, Control_c, 0, 67, 22
1, 66188, Control_c, 0, 64, 60
1, 66188, Control_c, 0, 67, 14
1, 66201, Note_off_c, 0, 76, 59
1, 66203, Control_c, 0, 64, 62
1, 66203, Control_c, 0, 67, 0
1, 66218, Control_c, 0, 64, 63
1, 66233, Control_c, 0, 64, 62
1, 66237, Note_on_c, 0, 74, 54
1, 66248, Control_c, 0, 64, 60
1, 66257, Note_off_c, 0, 74, 62
1, 66262, Control_c, 0, 64, 57
1, 66269, Note_on_c, 0, 55, 70
1, 66270, Note_on_c, 0, 52, 67
1, 66271, Note_on_c, 0, 76, 54
1, 66284, Note_off_c, 0, 62, 51
1, 66292, Control_c, 0, 64, 58
1, 66296, Note_off_c, 0, 76, 59
1, 66303, Note_off_c, 0, 55, 64
1, 66306, Note_off_c, 0, 52, 65
1, 66307, Control_c, 0, 64, 60
1, 66319, Note_on_c, 0, 74, 73
1, 66322, Control_c, 0, 64, 62
1, 66336, Control_c, 0, 64, 64
1, 66343, Note_off_c, 0, 74, 70
1, 66351, Control_c, 0, 64, 64
1, 66366, Control_c, 0, 64, 61
1, 66381, Control_c, 0, 64, 58
1, 66396, Control_c, 0, 64, 56
1, 66410, Note_on_c, 0, 50, 80
1, 66411, Control_c, 0, 64, 55
1, 66425, Control_c, 0, 64, 58
1, 66437, Note_on_c, 0, 79, 74
1, 66440, Control_c, 0, 64, 61
1, 66446, Note_on_c, 0, 76, 52
1, 66448, Note_on_c, 0, 74, 35
1, 66455, Control_c, 0, 64, 64
1, 66470, Control_c, 0, 64, 66
1, 66479, Note_off_c, 0, 79, 59
1, 66490, Note_on_c, 0, 78, 70
1, 66500, Control_c, 0, 64, 63
1, 66512, Note_off_c, 0, 74, 40
1, 66515, Control_c, 0, 64, 60
1, 66530, Control_c, 0, 64, 58
1, 66537, Note_off_c, 0, 76, 37
1, 66541, Note_on_c, 0, 79, 76
1, 66543, Note_off_c, 0, 78, 60
1, 66560, Control_c, 0, 64, 61
1, 66574, Control_c, 0, 64, 63
1, 66580, Note_on_c, 0, 62, 69
1, 66586, Note_off_c, 0, 79, 62
1, 66589, Control_c, 0, 64, 66
1, 66601, Note_on_c, 0, 76, 42
1, 66602, Note_on_c, 0, 74, 43
1, 66604, Control_c, 0, 64, 69
1, 66614, Note_on_c, 0, 78, 64
1, 66615, Note_off_c, 0, 62, 66
1, 66619, Control_c, 0, 64, 68
1, 66628, Note_off_c, 0, 74, 57
1, 66632, Note_off_c, 0, 76, 53
1, 66634, Control_c, 0, 64, 65
1, 66637, Note_on_c, 0, 79, 74
1, 66643, Note_off_c, 0, 78, 66
1, 66649, Control_c, 0, 64, 62
1, 66664, Control_c, 0, 64, 59
1, 66679, Control_c, 0, 64, 58
1, 66686, Note_off_c, 0, 79, 61
1, 66693, Control_c, 0, 64, 59
1, 66697, Note_on_c, 0, 76, 67
1, 66704, Note_on_c, 0, 74, 61
1, 66715, Control_c, 0, 64, 62
1, 66725, Note_on_c, 0, 59, 80
1, 66728, Note_on_c, 0, 55, 73
1, 66730, Control_c, 0, 64, 64
1, 66736, Note_off_c, 0, 74, 65
1, 66736, Note_off_c, 0, 76, 55
1, 66740, Note_on_c, 0, 79, 74
1, 66745, Control_c, 0, 64, 66
1, 66746, Note_on_c, 0, 78, 39
1, 66755, Note_off_c, 0, 59, 66
1, 66760, Control_c, 0, 64, 65
1, 66764, Note_off_c, 0, 50, 61
1, 66774, Note_off_c, 0, 78, 55
1, 66774, Control_c, 0, 64, 61
1, 66776, Note_off_c, 0, 55, 62
1, 66789, Control_c, 0, 64, 54
1, 66790, Note_off_c, 0, 79, 58
1, 66804, Control_c, 0, 64, 45
1, 66807, Note_on_c, 0, 76, 66
1, 66819, Control_c, 0, 64, 48
1, 66820, Note_on_c, 0, 74, 51
1, 66824, Note_on_c, 0, 78, 54
1, 66834, Control_c, 0, 64, 55
1, 66835, Note_off_c, 0, 76, 50
1, 66843, Note_off_c, 0, 74, 60
1, 66849, Control_c, 0, 64, 59
1, 66849, Note_on_c, 0, 79, 79
1, 66855, Note_off_c, 0, 78, 67
1, 66864, Control_c, 0, 64, 61
1, 66865, Note_on_c, 0, 54, 75
1, 66868, Note_on_c, 0, 57, 85
1, 66879, Control_c, 0, 64, 61
1, 66893, Control_c, 0, 64, 56
1, 66896, Note_off_c, 0, 79, 63
1, 66908, Control_c, 0, 64, 48
1, 66911, Note_on_c, 0, 76, 63
1, 66917, Note_on_c, 0, 74, 57
1, 66923, Control_c, 0, 64, 37
1, 66929, Note_on_c, 0, 78, 63
1, 66938, Control_c, 0, 64, 36
1, 66938, Note_off_c, 0, 74, 61
1, 66945, Note_off_c, 0, 76, 55
1, 66951, Note_on_c, 0, 79, 71
1, 66953, Control_c, 0, 64, 46
1, 66957, Note_off_c, 0, 78, 68
1, 66967, Control_c, 0, 64, 55
1, 66982, Control_c, 0, 64, 62
1, 66993, Note_off_c, 0, 79, 63
1, 66997, Control_c, 0, 64, 64
1, 67005, Note_on_c, 0, 62, 77
1, 67007, Note_on_c, 0, 76, 61
1, 67011, Note_on_c, 0, 74, 62
1, 67011, Control_c, 0, 64, 62
1, 67026, Control_c, 0, 64, 56
1, 67027, Note_on_c, 0, 78, 61
1, 67030, Note_off_c, 0, 74, 65
1, 67030, Note_off_c, 0, 76, 61
1, 67034, Note_on_c, 0, 79, 74
1, 67037, Note_off_c, 0, 54, 60
1, 67041, Control_c, 0, 64, 44
1, 67054, Note_off_c, 0, 78, 66
1, 67056, Control_c, 0, 64, 29
1, 67060, Note_off_c, 0, 57, 57
1, 67086, Control_c, 0, 64, 46
1, 67087, Note_off_c, 0, 79, 62
1, 67094, Note_on_c, 0, 76, 73
1, 67100, Note_on_c, 0, 74, 74
1, 67100, Control_c, 0, 64, 57
1, 67115, Note_on_c, 0, 78, 70
1, 67115, Control_c, 0, 64, 63
1, 67128, Note_off_c, 0, 74, 61
1, 67130, Control_c, 0, 64, 64
1, 67132, Note_off_c, 0, 76, 60
1, 67144, Note_on_c, 0, 79, 62
1, 67145, Note_off_c, 0, 78, 66
1, 67145, Control_c, 0, 64, 60
1, 67159, Control_c, 0, 64, 53
1, 67162, Note_on_c, 0, 52, 75
1, 67165, Note_on_c, 0, 55, 69
1, 67174, Control_c, 0, 64, 45
1, 67177, Note_off_c, 0, 79, 49
1, 67177, Note_off_c, 0, 62, 47
1, 67189, Control_c, 0, 64, 44
1, 67193, Note_on_c, 0, 76, 70
1, 67193, Note_on_c, 0, 78, 75
1, 67195, Note_on_c, 0, 74, 67
1, 67203, Note_off_c, 0, 55, 63
1, 67204, Control_c, 0, 64, 52
1, 67209, Note_on_c, 0, 79, 75
1, 67215, Note_off_c, 0, 52, 63
1, 67218, Control_c, 0, 64, 59
1, 67219, Note_off_c, 0, 76, 65
1, 67220, Note_off_c, 0, 74, 67
1, 67233, Control_c, 0, 64, 65
1, 67239, Note_off_c, 0, 78, 61
1, 67248, Control_c, 0, 64, 67
1, 67261, Note_off_c, 0, 79, 60
1, 67263, Control_c, 0, 64, 66
1, 67278, Control_c, 0, 64, 60
1, 67293, Control_c, 0, 64, 47
1, 67308, Control_c, 0, 64, 32
1, 67311, Note_on_c, 0, 50, 89
1, 67323, Control_c, 0, 64, 37
1, 67338, Control_c, 0, 64, 51
1, 67339, Note_on_c, 0, 78, 55
1, 67342, Note_on_c, 0, 83, 87
1, 67353, Control_c, 0, 64, 61
1, 67360, Note_off_c, 0, 78, 62
1, 67365, Note_on_c, 0, 81, 46
1, 67368, Control_c, 0, 64, 68
1, 67382, Control_c, 0, 64, 71
1, 67391, Note_off_c, 0, 81, 57
1, 67397, Control_c, 0, 64, 69
1, 67399, Note_off_c, 0, 83, 65
1, 67404, Note_on_c, 0, 74, 48
1, 67408, Note_on_c, 0, 76, 42
1, 67412, Control_c, 0, 64, 64
1, 67427, Control_c, 0, 64, 58
1, 67437, Note_on_c, 0, 78, 52
1, 67439, Note_on_c, 0, 79, 36
1, 67442, Control_c, 0, 64, 52
1, 67454, Note_off_c, 0, 74, 59
1, 67454, Note_off_c, 0, 76, 51
1, 67464, Note_on_c, 0, 83, 83
1, 67464, Control_c, 0, 64, 53
1, 67466, Note_off_c, 0, 78, 62
1, 67467, Note_on_c, 0, 81, 68
1, 67479, Control_c, 0, 64, 59
1, 67482, Note_off_c, 0, 79, 62
1, 67488, Note_on_c, 0, 62, 82
1, 67490, Note_off_c, 0, 81, 71
1, 67494, Control_c, 0, 64, 62
1, 67509, Control_c, 0, 64, 64
1, 67514, Note_off_c, 0, 83, 63
1, 67523, Control_c, 0, 64, 66
1, 67525, Note_on_c, 0, 78, 83
1, 67528, Note_on_c, 0, 74, 60
1, 67534, Note_on_c, 0, 76, 50
1, 67538, Control_c, 0, 64, 65
1, 67546, Note_off_c, 0, 62, 63
1, 67552, Note_on_c, 0, 79, 53
1, 67552, Note_off_c, 0, 74, 60
1, 67553, Control_c, 0, 64, 62
1, 67559, Note_off_c, 0, 76, 58
1, 67568, Control_c, 0, 64, 52
1, 67571, Note_on_c, 0, 83, 87
1, 67573, Note_on_c, 0, 81, 56
1, 67576, Note_off_c, 0, 78, 66
1, 67576, Note_off_c, 0, 79, 62
1, 67582, Control_c, 0, 64, 44
1, 67597, Control_c, 0, 64, 46
1, 67612, Control_c, 0, 64, 53
1, 67613, Note_off_c, 0, 81, 0
1, 67627, Control_c, 0, 64, 59
1, 67632, Note_off_c, 0, 83, 64
1, 67633, Note_on_c, 0, 59, 87
1, 67633, Note_on_c, 0, 76, 67
1, 67633, Note_on_c, 0, 74, 72
1, 67635, Note_on_c, 0, 55, 75
1, 67639, Note_on_c, 0, 78, 80
1, 67642, Control_c, 0, 64, 63
1, 67645, Note_on_c, 0, 79, 64
1, 67647, Poly_aftertouch_c, 0, 81, 0
1, 67657, Control_c, 0, 64, 64
1, 67660, Note_off_c, 0, 76, 60
1, 67661, Note_off_c, 0, 74, 64
1, 67671, Control_c, 0, 64, 62
1, 67675, Note_off_c, 0, 50, 64
1, 67676, Note_on_c, 0, 83, 79
1, 67676, Note_off_c, 0, 79, 63
1, 67681, Note_off_c, 0, 59, 63
1, 67684, Poly_aftertouch_c, 0, 81, 127
1, 67686, Control_c, 0, 64, 55
1, 67688, Note_off_c, 0, 78, 66
1, 67693, Note_off_c, 0, 55, 61
1, 67701, Control_c, 0, 64, 42
1, 67716, Control_c, 0, 64, 29
1, 67731, Control_c, 0, 64, 30
1, 67745, Poly_aftertouch_c, 0, 81, 0
1, 67745, Note_off_c, 0, 83, 64
1, 67746, Control_c, 0, 64, 44
1, 67749, Note_on_c, 0, 74, 71
1, 67751, Note_on_c, 0, 79, 74
1, 67757, Note_on_c, 0, 76, 61
1, 67758, Note_on_c, 0, 78, 68
1, 67760, Control_c, 0, 64, 56
1, 67770, Note_on_c, 0, 54, 83
1, 67775, Note_on_c, 0, 57, 85
1, 67775, Control_c, 0, 64, 62
1, 67784, Note_off_c, 0, 76, 58
1, 67785, Note_off_c, 0, 78, 67
1, 67787, Note_off_c, 0, 74, 65
1, 67790, Control_c, 0, 64, 63
1, 67802, Note_on_c, 0, 83, 76
1, 67805, Control_c, 0, 64, 59
1, 67810, Note_on_c, 0, 81, 56
1, 67810, Note_off_c, 0, 79, 59
1, 67820, Control_c, 0, 64, 45
1, 67834, Control_c, 0, 64, 0
1, 67853, Note_on_c, 0, 76, 68
1, 67856, Note_off_c, 0, 83, 65
1, 67856, Note_on_c, 0, 74, 82
1, 67862, Note_off_c, 0, 81, 63
1, 67863, Note_on_c, 0, 78, 78
1, 67868, Note_on_c, 0, 79, 41
1, 67889, Note_off_c, 0, 76, 60
1, 67893, Control_c, 0, 64, 32
1, 67895, Note_off_c, 0, 74, 62
1, 67904, Note_off_c, 0, 78, 64
1, 67908, Control_c, 0, 64, 54
1, 67909, Note_on_c, 0, 81, 50
1, 67910, Note_on_c, 0, 83, 80
1, 67919, Note_on_c, 0, 62, 80
1, 67922, Control_c, 0, 64, 62
1, 67935, Note_off_c, 0, 79, 0
1, 67935, Note_on_c, 0, 79, 36
1, 67937, Control_c, 0, 64, 59
1, 67949, Note_on_c, 0, 76, 76
1, 67951, Note_off_c, 0, 83, 64
1, 67952, Control_c, 0, 64, 44
1, 67954, Note_off_c, 0, 57, 61
1, 67956, Note_on_c, 0, 74, 77
1, 67961, Note_off_c, 0, 81, 62
1, 67961, Note_on_c, 0, 78, 66
1, 67964, Note_off_c, 0, 54, 61
1, 67967, Control_c, 0, 64, 0
1, 67981, Note_off_c, 0, 74, 66
1, 67987, Note_off_c, 0, 76, 52
1, 68001, Note_off_c, 0, 78, 66
1, 68004, Note_on_c, 0, 83, 77
1, 68011, Control_c, 0, 64, 27
1, 68022, Note_on_c, 0, 81, 32
1, 68026, Control_c, 0, 64, 53
1, 68027, Note_off_c, 0, 79, 0
1, 68041, Control_c, 0, 64, 66
1, 68047, Note_on_c, 0, 79, 32
1, 68056, Control_c, 0, 64, 74
1, 68065, Note_on_c, 0, 74, 47
1, 68067, Note_on_c, 0, 76, 58
1, 68068, Note_off_c, 0, 81, 51
1, 68070, Note_off_c, 0, 83, 58
1, 68071, Control_c, 0, 64, 80
1, 68078, Note_on_c, 0, 78, 54
1, 68085, Note_on_c, 0, 55, 78
1, 68086, Control_c, 0, 64, 79
1, 68087, Note_on_c, 0, 52, 71
1, 68091, Note_off_c, 0, 76, 0
1, 68091, Note_on_c, 0, 76, 37
1, 68101, Control_c, 0, 64, 74
1, 68111, Note_on_c, 0, 83, 55
1, 68115, Control_c, 0, 64, 67
1, 68122, Note_off_c, 0, 55, 65
1, 68125, Note_off_c, 0, 52, 63
1, 68127, Note_off_c, 0, 62, 23
1, 68130, Control_c, 0, 64, 56
1, 68142, Note_on_c, 0, 81, 51
1, 68145, Control_c, 0, 64, 48
1, 68154, Note_off_c, 0, 74, 63
1, 68154, Note_off_c, 0, 76, 60
1, 68160, Control_c, 0, 64, 50
1, 68169, Note_off_c, 0, 81, 57
1, 68175, Control_c, 0, 64, 55
1, 68190, Control_c, 0, 64, 58
1, 68210, Note_off_c, 0, 78, 65
1, 68212, Control_c, 0, 64, 59
1, 68219, Note_off_c, 0, 79, 58
1, 68227, Control_c, 0, 64, 57
1, 68242, Control_c, 0, 64, 46
1, 68253, Note_on_c, 0, 50, 95
1, 68257, Control_c, 0, 64, 0
1, 68324, Note_off_c, 0, 83, 59
1, 68417, Note_on_c, 0, 79, 87
1, 68421, Note_on_c, 0, 76, 76
1, 68438, Note_off_c, 0, 79, 66
1, 68444, Note_off_c, 0, 76, 66
1, 68457, Note_off_c, 0, 50, 67
1, 68559, Note_on_c, 0, 78, 92
1, 68565, Note_on_c, 0, 62, 79
1, 68567, Note_on_c, 0, 74, 74
1, 68585, Note_off_c, 0, 78, 67
1, 68588, Note_off_c, 0, 74, 71
1, 68604, Note_off_c, 0, 62, 61
1, 68712, Note_on_c, 0, 61, 86
1, 68715, Note_on_c, 0, 79, 92
1, 68718, Note_on_c, 0, 76, 86
1, 68739, Note_off_c, 0, 76, 68
1, 68752, Note_off_c, 0, 79, 63
1, 68863, Note_on_c, 0, 76, 83
1, 68866, Note_on_c, 0, 79, 76
1, 68890, Note_off_c, 0, 76, 64
1, 68894, Note_off_c, 0, 79, 60
1, 69019, Note_off_c, 0, 61, 61
1, 69025, Note_on_c, 0, 62, 70
1, 69025, Note_on_c, 0, 78, 75
1, 69027, Note_on_c, 0, 74, 73
1, 69050, Note_off_c, 0, 74, 71
1, 69050, Note_off_c, 0, 78, 69
1, 69052, Note_off_c, 0, 62, 66
1, 69176, Note_on_c, 0, 45, 62
1, 69176, Note_on_c, 0, 76, 87
1, 69178, Note_on_c, 0, 69, 84
1, 69179, Note_on_c, 0, 57, 65
1, 69181, Note_on_c, 0, 81, 75
1, 69197, Note_on_c, 0, 47, 46
1, 69206, Note_off_c, 0, 81, 66
1, 69218, Note_off_c, 0, 76, 65
1, 69218, Note_off_c, 0, 69, 62
1, 69221, Note_off_c, 0, 45, 0
1, 69221, Note_on_c, 0, 45, 31
1, 69273, Note_off_c, 0, 57, 62
1, 69305, Note_off_c, 0, 47, 41
1, 69308, Note_off_c, 0, 45, 65
1, 69329, Note_on_c, 0, 69, 76
1, 69332, Note_on_c, 0, 76, 70
1, 69334, Note_on_c, 0, 81, 61
1, 69353, Note_off_c, 0, 81, 63
1, 69354, Note_off_c, 0, 69, 71
1, 69359, Note_off_c, 0, 76, 66
1, 69481, Note_on_c, 0, 54, 66
1, 69481, Note_on_c, 0, 42, 63
1, 69482, Note_on_c, 0, 69, 72
1, 69483, Note_on_c, 0, 81, 61
1, 69484, Note_on_c, 0, 74, 71
1, 69502, Note_off_c, 0, 81, 62
1, 69506, Note_off_c, 0, 69, 71
1, 69508, Note_off_c, 0, 54, 65
1, 69510, Note_off_c, 0, 74, 70
1, 69515, Note_off_c, 0, 42, 62
1, 69627, Note_on_c, 0, 57, 79
1, 69628, Note_on_c, 0, 45, 80
1, 69634, Note_on_c, 0, 69, 77
1, 69634, Note_on_c, 0, 81, 67
1, 69635, Note_on_c, 0, 76, 80
1, 69659, Note_off_c, 0, 69, 72
1, 69659, Note_off_c, 0, 81, 64
1, 69661, Note_off_c, 0, 76, 67
1, 69720, Note_off_c, 0, 45, 64
1, 69743, Note_off_c, 0, 57, 64
1, 69794, Note_on_c, 0, 76, 72
1, 69795, Note_on_c, 0, 69, 69
1, 69806, Note_on_c, 0, 81, 43
1, 69812, Note_off_c, 0, 69, 68
1, 69818, Note_off_c, 0, 76, 66
1, 69833, Note_off_c, 0, 81, 35
1, 69946, Note_on_c, 0, 50, 70
1, 69949, Note_on_c, 0, 69, 68
1, 69953, Note_on_c, 0, 78, 71
1, 69958, Note_on_c, 0, 81, 45
1, 69968, Note_on_c, 0, 62, 24
1, 69975, Note_off_c, 0, 69, 69
1, 69976, Note_off_c, 0, 78, 71
1, 69979, Note_off_c, 0, 50, 68
1, 69982, Note_off_c, 0, 81, 58
1, 70007, Note_off_c, 0, 62, 45
1, 70095, Note_on_c, 0, 45, 80
1, 70099, Note_on_c, 0, 57, 70
1, 70104, Note_on_c, 0, 69, 73
1, 70106, Note_on_c, 0, 76, 72
1, 70107, Note_on_c, 0, 81, 55
1, 70118, Note_off_c, 0, 57, 63
1, 70119, Note_off_c, 0, 45, 67
1, 70128, Note_off_c, 0, 81, 62
1, 70131, Note_off_c, 0, 69, 71
1, 70131, Note_off_c, 0, 76, 66
1, 70247, Note_on_c, 0, 42, 66
1, 70247, Note_on_c, 0, 54, 69
1, 70252, Note_on_c, 0, 69, 69
1, 70254, Note_on_c, 0, 81, 50
1, 70255, Note_on_c, 0, 74, 63
1, 70274, Note_off_c, 0, 54, 66
1, 70274, Note_off_c, 0, 74, 66
1, 70277, Note_off_c, 0, 81, 60
1, 70281, Note_off_c, 0, 42, 63
1, 70281, Note_off_c, 0, 69, 67
1, 70390, Note_on_c, 0, 57, 80
1, 70395, Note_on_c, 0, 45, 74
1, 70399, Note_on_c, 0, 69, 73
1, 70400, Note_on_c, 0, 76, 80
1, 70402, Note_on_c, 0, 81, 54
1, 70420, Note_off_c, 0, 57, 65
1, 70423, Note_off_c, 0, 45, 64
1, 70423, Note_off_c, 0, 81, 62
1, 70424, Note_off_c, 0, 69, 71
1, 70426, Note_off_c, 0, 76, 67
1, 70554, Note_on_c, 0, 69, 95
1, 70555, Note_on_c, 0, 62, 87
1, 70557, Note_on_c, 0, 78, 94
1, 70557, Note_on_c, 0, 81, 70
1, 70559, Note_on_c, 0, 50, 85
1, 70576, Note_off_c, 0, 62, 70
1, 70582, Note_off_c, 0, 69, 64
1, 70582, Note_off_c, 0, 81, 69
1, 70585, Note_off_c, 0, 50, 71
1, 70590, Note_off_c, 0, 78, 66
1, 70703, Note_on_c, 0, 45, 87
1, 70704, Note_on_c, 0, 57, 87
1, 70707, Note_on_c, 0, 69, 89
1, 70708, Note_on_c, 0, 76, 85
1, 70710, Note_on_c, 0, 81, 82
1, 70726, Note_off_c, 0, 57, 70
1, 70727, Note_off_c, 0, 45, 67
1, 70730, Note_off_c, 0, 69, 65
1, 70730, Note_off_c, 0, 81, 71
1, 70733, Note_off_c, 0, 76, 64
1, 70849, Note_on_c, 0, 42, 81
1, 70850, Note_on_c, 0, 54, 83
1, 70854, Note_on_c, 0, 69, 87
1, 70856, Note_on_c, 0, 74, 80
1, 70859, Note_on_c, 0, 81, 75
1, 70873, Note_off_c, 0, 81, 72
1, 70874, Note_off_c, 0, 42, 65
1, 70874, Note_off_c, 0, 54, 68
1, 70875, Note_off_c, 0, 69, 70
1, 70876, Note_off_c, 0, 74, 72
1, 71011, Note_on_c, 0, 57, 93
1, 71012, Note_on_c, 0, 76, 101
1, 71013, Note_on_c, 0, 81, 88
1, 71013, Note_on_c, 0, 45, 95
1, 71013, Note_on_c, 0, 69, 102
1, 71037, Note_off_c, 0, 57, 69
1, 71037, Note_off_c, 0, 45, 70
1, 71040, Note_off_c, 0, 81, 62
1, 71042, Note_off_c, 0, 69, 64
1, 71047, Note_off_c, 0, 76, 66
1, 71166, Note_on_c, 0, 42, 89
1, 71168, Note_on_c, 0, 54, 86
1, 71171, Note_on_c, 0, 69, 90
1, 71171, Note_on_c, 0, 74, 87
1, 71174, Note_on_c, 0, 81, 86
1, 71191, Note_off_c, 0, 42, 67
1, 71191, Note_off_c, 0, 74, 70
1, 71194, Note_off_c, 0, 81, 71
1, 71195, Note_off_c, 0, 54, 63
1, 71210, Note_off_c, 0, 69, 62
1, 71330, Note_on_c, 0, 57, 94
1, 71332, Note_on_c, 0, 69, 98
1, 71333, Note_on_c, 0, 45, 93
1, 71334, Note_on_c, 0, 76, 93
1, 71334, Note_on_c, 0, 81, 89
1, 71355, Note_off_c, 0, 45, 70
1, 71358, Note_off_c, 0, 57, 67
1, 71361, Note_off_c, 0, 81, 61
1, 71368, Note_off_c, 0, 76, 61
1, 71369, Note_off_c, 0, 69, 65
1, 71488, Note_on_c, 0, 62, 92
1, 71491, Note_on_c, 0, 50, 100
1, 71491, Note_on_c, 0, 69, 102
1, 71493, Note_on_c, 0, 81, 93
1, 71499, Note_on_c, 0, 78, 87
1, 71508, Note_off_c, 0, 62, 69
1, 71521, Note_off_c, 0, 50, 68
1, 71524, Note_off_c, 0, 69, 67
1, 71529, Note_off_c, 0, 81, 66
1, 71532, Note_off_c, 0, 78, 65
1, 71654, Note_on_c, 0, 45, 94
1, 71654, Note_on_c, 0, 57, 97
1, 71660, Note_on_c, 0, 69, 97
1, 71660, Note_on_c, 0, 76, 90
1, 71660, Note_on_c, 0, 81, 86
1, 71674, Note_off_c, 0, 57, 72
1, 71682, Note_off_c, 0, 45, 68
1, 71688, Note_off_c, 0, 81, 60
1, 71692, Note_off_c, 0, 69, 58
1, 71702, Note_off_c, 0, 76, 64
1, 71818, Note_on_c, 0, 50, 96
1, 71825, Note_on_c, 0, 69, 98
1, 71827, Note_on_c, 0, 38, 84
1, 71836, Note_on_c, 0, 76, 79
1, 71836, Note_on_c, 0, 81, 77
1, 71840, Note_off_c, 0, 50, 74
1, 71853, Note_on_c, 0, 40, 47
1, 71854, Note_off_c, 0, 40, 127
1, 71854, Note_off_c, 0, 81, 63
1, 71859, Note_off_c, 0, 38, 66
1, 71869, Note_off_c, 0, 76, 59
1, 71876, Note_off_c, 0, 69, 67
1, 72057, Note_on_c, 0, 78, 100
1, 72060, Note_on_c, 0, 33, 92
1, 72061, Note_on_c, 0, 45, 94
1, 72149, Control_c, 0, 64, 14
1, 72164, Control_c, 0, 64, 15
1, 72178, Control_c, 0, 64, 21
1, 72183, Note_off_c, 0, 78, 61
1, 72193, Control_c, 0, 64, 26
1, 72208, Note_on_c, 0, 76, 80
1, 72208, Control_c, 0, 64, 31
1, 72223, Control_c, 0, 64, 36
1, 72237, Control_c, 0, 64, 42
1, 72247, Note_off_c, 0, 76, 59
1, 72252, Control_c, 0, 64, 49
1, 72267, Control_c, 0, 64, 55
1, 72278, Note_on_c, 0, 78, 77
1, 72282, Control_c, 0, 64, 59
1, 72297, Control_c, 0, 64, 62
1, 72311, Note_off_c, 0, 78, 60
1, 72311, Control_c, 0, 64, 63
1, 72326, Control_c, 0, 64, 64
1, 72339, Note_on_c, 0, 76, 72
1, 72341, Control_c, 0, 64, 66
1, 72356, Control_c, 0, 64, 68
1, 72364, Note_off_c, 0, 76, 65
1, 72370, Control_c, 0, 64, 70
1, 72386, Control_c, 0, 64, 72
1, 72387, Note_on_c, 0, 78, 77
1, 72401, Control_c, 0, 64, 74
1, 72416, Control_c, 0, 64, 76
1, 72422, Note_off_c, 0, 78, 66
1, 72430, Control_c, 0, 64, 77
1, 72434, Note_on_c, 0, 76, 76
1, 72445, Control_c, 0, 64, 79
1, 72460, Control_c, 0, 64, 80
1, 72471, Note_off_c, 0, 76, 58
1, 72475, Control_c, 0, 64, 82
1, 72483, Note_on_c, 0, 78, 84
1, 72490, Control_c, 0, 64, 83
1, 72504, Control_c, 0, 64, 85
1, 72519, Control_c, 0, 64, 87
1, 72534, Note_off_c, 0, 78, 64
1, 72534, Control_c, 0, 64, 89
1, 72545, Note_on_c, 0, 76, 83
1, 72549, Control_c, 0, 64, 91
1, 72563, Control_c, 0, 64, 95
1, 72575, Note_off_c, 0, 76, 56
1, 72578, Control_c, 0, 64, 100
1, 72587, Note_on_c, 0, 78, 79
1, 72593, Control_c, 0, 64, 107
1, 72608, Control_c, 0, 64, 116
1, 72623, Control_c, 0, 64, 127
1, 72639, Note_off_c, 0, 78, 64
1, 72644, Note_on_c, 0, 76, 82
1, 72684, Note_off_c, 0, 76, 59
1, 72688, Note_on_c, 0, 78, 81
1, 72750, Note_off_c, 0, 45, 32
1, 72751, Note_off_c, 0, 78, 63
1, 72759, Note_on_c, 0, 76, 85
1, 72785, Note_off_c, 0, 76, 58
1, 72805, Note_on_c, 0, 78, 72
1, 72821, Note_off_c, 0, 33, 55
1, 72853, Note_off_c, 0, 78, 63
1, 72860, Note_on_c, 0, 76, 89
1, 72896, Note_off_c, 0, 76, 55
1, 72905, Note_on_c, 0, 78, 75
1, 72957, Note_off_c, 0, 78, 63
1, 72963, Note_on_c, 0, 76, 86
1, 72996, Note_off_c, 0, 76, 60
1, 73011, Note_on_c, 0, 78, 72
1, 73057, Note_off_c, 0, 78, 63
1, 73069, Note_on_c, 0, 76, 81
1, 73104, Note_off_c, 0, 76, 52
1, 73109, Note_on_c, 0, 78, 72
1, 73152, Note_off_c, 0, 78, 63
1, 73160, Note_on_c, 0, 76, 79
1, 73207, Note_off_c, 0, 76, 61
1, 73209, Note_on_c, 0, 78, 72
1, 73253, Note_on_c, 0, 76, 74
1, 73258, Note_off_c, 0, 78, 63
1, 73296, Note_off_c, 0, 76, 63
1, 73675, Control_c, 0, 64, 112
1, 73690, Control_c, 0, 64, 105
1, 73705, Control_c, 0, 64, 99
1, 73720, Control_c, 0, 64, 95
1, 73736, Control_c, 0, 64, 90
1, 73750, Control_c, 0, 64, 86
1, 73765, Control_c, 0, 64, 82
1, 73780, Control_c, 0, 64, 78
1, 73795, Control_c, 0, 64, 75
1, 73809, Control_c, 0, 64, 71
1, 73824, Control_c, 0, 64, 66
1, 73839, Control_c, 0, 64, 60
1, 73854, Control_c, 0, 64, 53
1, 73869, Control_c, 0, 64, 42
1, 73883, Control_c, 0, 64, 23
1, 73898, Control_c, 0, 64, 0
1, 74412, Note_on_c, 0, 61, 76
1, 74413, Note_on_c, 0, 71, 84
1, 74414, Note_on_c, 0, 57, 72
1, 74446, Note_off_c, 0, 57, 66
1, 74453, Note_off_c, 0, 61, 61
1, 74466, Note_off_c, 0, 71, 64
1, 74473, Note_on_c, 0, 69, 70
1, 74524, Note_off_c, 0, 69, 0
1, 74533, Note_on_c, 0, 71, 47
1, 74561, Note_off_c, 0, 71, 58
1, 74561, Poly_aftertouch_c, 0, 69, 127
1, 74566, Note_on_c, 0, 62, 76
1, 74568, Note_on_c, 0, 59, 73
1, 74575, Poly_aftertouch_c, 0, 69, 0
1, 74594, Note_off_c, 0, 59, 66
1, 74595, Note_off_c, 0, 62, 62
1, 74615, Note_on_c, 0, 71, 80
1, 74656, Note_off_c, 0, 71, 65
1, 74683, Note_on_c, 0, 73, 79
1, 74692, Note_on_c, 0, 61, 66
1, 74709, Note_on_c, 0, 64, 62
1, 74716, Note_off_c, 0, 73, 59
1, 74719, Note_off_c, 0, 61, 66
1, 74734, Note_on_c, 0, 74, 79
1, 74738, Note_off_c, 0, 64, 66
1, 74791, Note_off_c, 0, 74, 63
1, 74800, Note_on_c, 0, 76, 75
1, 74845, Note_on_c, 0, 62, 60
1, 74852, Note_on_c, 0, 78, 88
1, 74854, Note_on_c, 0, 68, 79
1, 74858, Note_off_c, 0, 76, 66
1, 74873, Note_off_c, 0, 78, 70
1, 74875, Note_on_c, 0, 66, 74
1, 74923, Note_off_c, 0, 68, 61
1, 75026, Note_on_c, 0, 74, 78
1, 75046, Note_off_c, 0, 74, 72
1, 75188, Note_on_c, 0, 71, 68
1, 75188, Note_off_c, 0, 62, 62
1, 75212, Note_off_c, 0, 66, 61
1, 75213, Note_off_c, 0, 71, 69
1, 75342, Note_on_c, 0, 69, 76
1, 75347, Note_on_c, 0, 62, 69
1, 75348, Note_on_c, 0, 59, 62
1, 75377, Note_off_c, 0, 62, 66
1, 75383, Note_off_c, 0, 59, 63
1, 75383, Note_off_c, 0, 69, 68
1, 75395, Note_on_c, 0, 68, 69
1, 75434, Note_off_c, 0, 68, 54
1, 75440, Note_on_c, 0, 69, 74
1, 75466, Note_off_c, 0, 69, 69
1, 75470, Note_on_c, 0, 68, 51
1, 75491, Note_on_c, 0, 61, 76
1, 75496, Note_on_c, 0, 64, 77
1, 75518, Note_off_c, 0, 64, 71
1, 75524, Note_off_c, 0, 61, 66
1, 75534, Note_off_c, 0, 68, 65
1, 75538, Note_on_c, 0, 69, 75
1, 75580, Note_off_c, 0, 69, 67
1, 75615, Note_on_c, 0, 71, 79
1, 75628, Note_on_c, 0, 66, 89
1, 75634, Note_on_c, 0, 62, 77
1, 75658, Note_off_c, 0, 66, 66
1, 75659, Note_off_c, 0, 71, 67
1, 75661, Note_on_c, 0, 73, 71
1, 75666, Note_off_c, 0, 62, 64
1, 75719, Note_off_c, 0, 73, 66
1, 75735, Note_on_c, 0, 74, 72
1, 75774, Note_off_c, 0, 74, 60
1, 75800, Note_on_c, 0, 66, 95
1, 75812, Note_on_c, 0, 61, 73
1, 75814, Note_on_c, 0, 64, 76
1, 75824, Note_on_c, 0, 76, 90
1, 75834, Note_off_c, 0, 66, 65
1, 75845, Note_off_c, 0, 76, 70
1, 75976, Note_on_c, 0, 73, 79
1, 75997, Note_off_c, 0, 73, 70
1, 76079, Note_off_c, 0, 61, 58
1, 76128, Note_on_c, 0, 69, 66
1, 76149, Note_off_c, 0, 64, 60
1, 76157, Note_off_c, 0, 69, 68
1, 76272, Note_on_c, 0, 68, 80
1, 76282, Note_on_c, 0, 57, 62
1, 76282, Note_on_c, 0, 61, 67
1, 76310, Note_off_c, 0, 61, 66
1, 76316, Note_off_c, 0, 57, 65
1, 76325, Note_off_c, 0, 68, 65
1, 76336, Note_on_c, 0, 66, 75
1, 76360, Note_off_c, 0, 66, 66
1, 76370, Note_on_c, 0, 68, 71
1, 76400, Note_off_c, 0, 68, 68
1, 76418, Note_on_c, 0, 66, 70
1, 76425, Note_on_c, 0, 59, 79
1, 76427, Note_on_c, 0, 62, 74
1, 76459, Note_off_c, 0, 62, 67
1, 76461, Note_off_c, 0, 59, 65
1, 76467, Note_off_c, 0, 66, 65
1, 76490, Note_on_c, 0, 68, 74
1, 76548, Note_off_c, 0, 68, 56
1, 76559, Note_on_c, 0, 69, 72
1, 76579, Note_on_c, 0, 61, 79
1, 76583, Note_on_c, 0, 64, 86
1, 76601, Note_on_c, 0, 71, 69
1, 76604, Note_off_c, 0, 64, 71
1, 76606, Note_off_c, 0, 61, 65
1, 76612, Note_off_c, 0, 69, 64
1, 76665, Note_off_c, 0, 71, 64
1, 76665, Note_on_c, 0, 73, 74
1, 76748, Note_on_c, 0, 64, 85
1, 76758, Note_on_c, 0, 59, 73
1, 76762, Note_on_c, 0, 62, 75
1, 76770, Note_on_c, 0, 74, 73
1, 76793, Note_off_c, 0, 74, 71
1, 76803, Note_off_c, 0, 64, 61
1, 76803, Note_off_c, 0, 73, 57
1, 76942, Note_on_c, 0, 71, 33
1, 76952, Note_on_c, 0, 72, 31
1, 76972, Note_off_c, 0, 71, 54
1, 76985, Note_off_c, 0, 72, 48
1, 77019, Note_off_c, 0, 59, 61
1, 77075, Note_on_c, 0, 68, 64
1, 77105, Note_off_c, 0, 68, 66
1, 77117, Note_off_c, 0, 62, 56
1, 77217, Note_on_c, 0, 66, 70
1, 77226, Note_on_c, 0, 56, 69
1, 77228, Note_on_c, 0, 59, 67
1, 77260, Note_off_c, 0, 59, 65
1, 77266, Note_off_c, 0, 56, 64
1, 77267, Note_off_c, 0, 66, 64
1, 77288, Note_on_c, 0, 64, 55
1, 77306, Note_on_c, 0, 66, 68
1, 77310, Note_off_c, 0, 64, 62
1, 77349, Note_off_c, 0, 66, 65
1, 77384, Note_on_c, 0, 57, 74
1, 77386, Note_on_c, 0, 61, 74
1, 77400, Note_on_c, 0, 64, 22
1, 77416, Note_off_c, 0, 57, 65
1, 77420, Note_off_c, 0, 61, 60
1, 77439, Note_off_c, 0, 64, 31
1, 77441, Note_on_c, 0, 66, 55
1, 77474, Note_off_c, 0, 66, 53
1, 77490, Note_on_c, 0, 68, 71
1, 77524, Note_on_c, 0, 70, 76
1, 77529, Note_on_c, 0, 59, 69
1, 77531, Note_on_c, 0, 62, 67
1, 77541, Note_off_c, 0, 68, 58
1, 77559, Note_off_c, 0, 62, 64
1, 77573, Note_off_c, 0, 59, 60
1, 77622, Note_off_c, 0, 70, 61
1, 77640, Note_on_c, 0, 71, 39
1, 77657, Note_on_c, 0, 61, 87
1, 77659, Note_on_c, 0, 73, 80
1, 77666, Note_off_c, 0, 71, 57
1, 77675, Note_on_c, 0, 72, 14
1, 77680, Note_off_c, 0, 73, 70
1, 77705, Note_off_c, 0, 61, 64
1, 77716, Note_off_c, 0, 72, 29
1, 77735, Note_on_c, 0, 73, 94
1, 77766, Note_off_c, 0, 73, 64
1, 77808, Note_on_c, 0, 57, 72
1, 77815, Note_on_c, 0, 73, 54
1, 77833, Note_off_c, 0, 73, 64
1, 77841, Note_off_c, 0, 57, 64
1, 77884, Note_on_c, 0, 73, 84
1, 77904, Note_off_c, 0, 73, 71
1, 77955, Note_on_c, 0, 56, 66
1, 77963, Note_on_c, 0, 73, 82
1, 77982, Note_off_c, 0, 73, 70
1, 77984, Note_off_c, 0, 56, 66
1, 78042, Note_on_c, 0, 73, 83
1, 78070, Note_off_c, 0, 73, 64
1, 78096, Note_on_c, 0, 54, 72
1, 78108, Note_on_c, 0, 73, 71
1, 78122, Note_off_c, 0, 54, 67
1, 78128, Note_off_c, 0, 73, 69
1, 78182, Note_on_c, 0, 73, 82
1, 78210, Note_off_c, 0, 73, 62
1, 78250, Note_on_c, 0, 73, 67
1, 78254, Note_on_c, 0, 66, 68
1, 78277, Note_off_c, 0, 73, 66
1, 78282, Note_off_c, 0, 66, 68
1, 78337, Note_on_c, 0, 73, 51
1, 78377, Note_off_c, 0, 73, 0
1, 78377, Note_on_c, 0, 73, 38
1, 78392, Note_on_c, 0, 64, 73
1, 78418, Note_off_c, 0, 64, 69
1, 78421, Note_off_c, 0, 73, 0
1, 78421, Note_on_c, 0, 73, 22
1, 78454, Note_off_c, 0, 73, 0
1, 78473, Note_on_c, 0, 73, 59
1, 78537, Note_off_c, 0, 73, 60
1, 78555, Note_on_c, 0, 63, 54
1, 78593, Note_on_c, 0, 78, 67
1, 78722, Note_off_c, 0, 78, 59
1, 78743, Note_on_c, 0, 71, 67
1, 78769, Note_off_c, 0, 71, 65
1, 78897, Note_on_c, 0, 59, 53
1, 78900, Note_on_c, 0, 69, 72
1, 78927, Note_off_c, 0, 69, 70
1, 78936, Note_off_c, 0, 63, 45
1, 79006, Note_off_c, 0, 59, 62
1, 79046, Note_on_c, 0, 71, 90
1, 79072, Note_off_c, 0, 71, 65
1, 79121, Note_on_c, 0, 71, 75
1, 79141, Note_off_c, 0, 71, 72
1, 79195, Note_on_c, 0, 71, 89
1, 79205, Note_on_c, 0, 68, 66
1, 79232, Note_off_c, 0, 71, 61
1, 79233, Note_off_c, 0, 68, 66
1, 79269, Note_on_c, 0, 71, 63
1, 79294, Note_off_c, 0, 71, 68
1, 79347, Note_on_c, 0, 71, 83
1, 79348, Note_on_c, 0, 66, 65
1, 79370, Note_off_c, 0, 71, 64
1, 79373, Note_off_c, 0, 66, 68
1, 79429, Note_on_c, 0, 71, 65
1, 79453, Note_off_c, 0, 71, 68
1, 79505, Note_on_c, 0, 64, 68
1, 79507, Note_on_c, 0, 71, 84
1, 79532, Note_off_c, 0, 64, 68
1, 79550, Note_off_c, 0, 71, 66
1, 79588, Note_on_c, 0, 71, 51
1, 79608, Note_off_c, 0, 71, 65
1, 79662, Note_on_c, 0, 71, 74
1, 79667, Note_on_c, 0, 68, 69
1, 79690, Note_off_c, 0, 71, 64
1, 79692, Note_off_c, 0, 68, 70
1, 79726, Note_on_c, 0, 71, 64
1, 79753, Note_off_c, 0, 71, 65
1, 79804, Note_on_c, 0, 71, 66
1, 79826, Note_on_c, 0, 62, 49
1, 79833, Note_off_c, 0, 71, 66
1, 79852, Note_off_c, 0, 62, 58
1, 79893, Note_on_c, 0, 71, 60
1, 79926, Note_off_c, 0, 71, 51
1, 79994, Note_on_c, 0, 80, 64
1, 80129, Note_off_c, 0, 80, 62
1, 80149, Note_on_c, 0, 73, 61
1, 80149, Note_on_c, 0, 61, 47
1, 80180, Note_off_c, 0, 73, 65
1, 80304, Note_on_c, 0, 71, 52
1, 80313, Note_on_c, 0, 65, 52
1, 80319, Note_off_c, 0, 61, 28
1, 80331, Note_off_c, 0, 71, 64
1, 80450, Note_off_c, 0, 65, 62
1, 80468, Note_on_c, 0, 69, 69
1, 80489, Note_off_c, 0, 69, 66
1, 80549, Note_on_c, 0, 69, 60
1, 80567, Note_off_c, 0, 69, 67
1, 80621, Note_on_c, 0, 66, 63
1, 80621, Note_on_c, 0, 69, 68
1, 80639, Note_off_c, 0, 69, 67
1, 80647, Note_off_c, 0, 66, 65
1, 80709, Note_on_c, 0, 69, 52
1, 80732, Note_off_c, 0, 69, 61
1, 80768, Note_on_c, 0, 64, 61
1, 80775, Note_on_c, 0, 69, 55
1, 80790, Note_off_c, 0, 64, 65
1, 80793, Note_off_c, 0, 69, 64
1, 80847, Note_on_c, 0, 69, 62
1, 80865, Note_off_c, 0, 69, 65
1, 80925, Note_on_c, 0, 69, 72
1, 80939, Note_on_c, 0, 63, 65
1, 80969, Note_off_c, 0, 63, 67
1, 80978, Note_off_c, 0, 69, 0
1, 80993, Note_on_c, 0, 69, 53
1, 81023, Note_off_c, 0, 69, 68
1, 81077, Note_on_c, 0, 69, 69
1, 81091, Note_on_c, 0, 66, 63
1, 81106, Note_off_c, 0, 69, 64
1, 81121, Note_off_c, 0, 66, 67
1, 81147, Note_on_c, 0, 69, 62
1, 81178, Note_off_c, 0, 69, 67
1, 81225, Note_on_c, 0, 69, 66
1, 81243, Note_on_c, 0, 61, 54
1, 81249, Note_off_c, 0, 69, 66
1, 81265, Note_off_c, 0, 61, 59
1, 81294, Note_on_c, 0, 69, 72
1, 81384, Note_on_c, 0, 78, 66
1, 81393, Note_off_c, 0, 69, 55
1, 81518, Note_off_c, 0, 78, 54
1, 81540, Note_on_c, 0, 71, 70
1, 81550, Note_on_c, 0, 59, 43
1, 81566, Note_off_c, 0, 71, 70
1, 81578, Note_off_c, 0, 59, 53
1, 81706, Note_on_c, 0, 63, 58
1, 81706, Note_on_c, 0, 69, 62
1, 81729, Note_off_c, 0, 63, 62
1, 81738, Note_off_c, 0, 69, 68
1, 81867, Note_on_c, 0, 68, 64
1, 81886, Note_on_c, 0, 64, 43
1, 81910, Note_off_c, 0, 68, 63
1, 81941, Note_on_c, 0, 71, 59
1, 81995, Note_off_c, 0, 71, 47
1, 81999, Note_off_c, 0, 64, 42
1, 82018, Note_on_c, 0, 69, 61
1, 82053, Note_off_c, 0, 69, 61
1, 82095, Note_on_c, 0, 68, 59
1, 82129, Note_off_c, 0, 68, 65
1, 82162, Note_on_c, 0, 56, 53
1, 82171, Note_on_c, 0, 66, 54
1, 82195, Note_off_c, 0, 56, 65
1, 82208, Note_off_c, 0, 66, 65
1, 82250, Note_on_c, 0, 64, 43
1, 82277, Note_off_c, 0, 64, 55
1, 82328, Note_on_c, 0, 57, 56
1, 82330, Note_on_c, 0, 73, 70
1, 82340, Note_on_c, 0, 64, 47
1, 82355, Note_off_c, 0, 73, 68
1, 82371, Note_off_c, 0, 57, 62
1, 82411, Note_on_c, 0, 73, 61
1, 82458, Note_off_c, 0, 73, 57
1, 82493, Note_on_c, 0, 71, 62
1, 82531, Note_off_c, 0, 71, 59
1, 82556, Note_off_c, 0, 64, 40
1, 82564, Note_on_c, 0, 69, 60
1, 82601, Note_off_c, 0, 69, 61
1, 82629, Note_on_c, 0, 54, 60
1, 82645, Note_on_c, 0, 68, 61
1, 82663, Note_off_c, 0, 54, 61
1, 82681, Note_off_c, 0, 68, 65
1, 82732, Note_on_c, 0, 66, 49
1, 82756, Note_off_c, 0, 66, 57
1, 82800, Note_on_c, 0, 56, 63
1, 82802, Note_on_c, 0, 71, 65
1, 82808, Note_on_c, 0, 64, 60
1, 82824, Note_off_c, 0, 71, 65
1, 82875, Note_off_c, 0, 56, 58
1, 82877, Note_on_c, 0, 71, 61
1, 82896, Note_off_c, 0, 71, 63
1, 82934, Note_off_c, 0, 64, 38
1, 82935, Note_on_c, 0, 69, 73
1, 82969, Note_off_c, 0, 69, 59
1, 83016, Note_on_c, 0, 68, 75
1, 83051, Note_off_c, 0, 68, 65
1, 83095, Note_on_c, 0, 52, 56
1, 83098, Note_on_c, 0, 66, 78
1, 83130, Note_off_c, 0, 52, 63
1, 83137, Note_off_c, 0, 66, 64
1, 83172, Note_on_c, 0, 64, 72
1, 83208, Note_off_c, 0, 64, 68
1, 83255, Note_on_c, 0, 57, 73
1, 83259, Note_on_c, 0, 64, 72
1, 83262, Note_on_c, 0, 73, 90
1, 83298, Note_off_c, 0, 73, 64
1, 83317, Note_off_c, 0, 57, 62
1, 83336, Note_on_c, 0, 73, 73
1, 83366, Note_off_c, 0, 64, 59
1, 83391, Note_off_c, 0, 73, 63
1, 83410, Note_on_c, 0, 71, 87
1, 83452, Note_off_c, 0, 71, 65
1, 83486, Note_on_c, 0, 69, 75
1, 83515, Note_off_c, 0, 69, 64
1, 83551, Note_on_c, 0, 54, 77
1, 83569, Note_on_c, 0, 68, 79
1, 83598, Note_off_c, 0, 54, 61
1, 83622, Note_off_c, 0, 68, 63
1, 83630, Note_on_c, 0, 66, 80
1, 83650, Note_off_c, 0, 66, 71
1, 83720, Note_on_c, 0, 64, 77
1, 83723, Note_on_c, 0, 76, 94
1, 83730, Note_on_c, 0, 56, 68
1, 83759, Note_off_c, 0, 76, 61
1, 83798, Note_on_c, 0, 76, 87
1, 83805, Note_off_c, 0, 64, 62
1, 83837, Note_off_c, 0, 56, 57
1, 83837, Note_off_c, 0, 76, 64
1, 83877, Note_on_c, 0, 75, 86
1, 83945, Note_off_c, 0, 75, 57
1, 83947, Note_on_c, 0, 73, 91
1, 84005, Note_off_c, 0, 73, 64
1, 84019, Note_on_c, 0, 71, 77
1, 84020, Note_on_c, 0, 57, 72
1, 84051, Note_off_c, 0, 71, 63
1, 84052, Note_off_c, 0, 57, 66
1, 84088, Note_on_c, 0, 69, 81
1, 84158, Note_off_c, 0, 69, 64
1, 84163, Note_on_c, 0, 68, 82
1, 84185, Note_on_c, 0, 59, 78
1, 84222, Note_off_c, 0, 59, 63
1, 84237, Note_off_c, 0, 68, 64
1, 84244, Note_on_c, 0, 69, 83
1, 84319, Note_on_c, 0, 71, 84
1, 84323, Note_off_c, 0, 69, 64
1, 84363, Note_off_c, 0, 71, 63
1, 84406, Note_on_c, 0, 64, 68
1, 84477, Note_off_c, 0, 64, 59
1, 84478, Note_on_c, 0, 47, 48
1, 84480, Note_on_c, 0, 66, 76
1, 84507, Note_off_c, 0, 47, 55
1, 84526, Note_off_c, 0, 66, 65
1, 84573, Note_on_c, 0, 63, 59
1, 84639, Note_off_c, 0, 63, 53
1, 84702, Note_on_c, 0, 40, 45
1, 84704, Note_on_c, 0, 64, 54
1, 84861, Control_c, 0, 64, 21
1, 84876, Control_c, 0, 64, 42
1, 84891, Control_c, 0, 64, 52
1, 84898, Note_off_c, 0, 64, 57
1, 84907, Control_c, 0, 64, 58
1, 84922, Control_c, 0, 64, 61
1, 84937, Control_c, 0, 64, 64
1, 84952, Control_c, 0, 64, 68
1, 84966, Control_c, 0, 64, 73
1, 84981, Control_c, 0, 64, 78
1, 84996, Control_c, 0, 64, 82
1, 85011, Control_c, 0, 64, 85
1, 85026, Control_c, 0, 64, 87
1, 85040, Control_c, 0, 64, 91
1, 85045, Note_on_c, 0, 76, 93
1, 85055, Control_c, 0, 64, 95
1, 85070, Control_c, 0, 64, 100
1, 85085, Control_c, 0, 64, 104
1, 85089, Note_off_c, 0, 76, 62
1, 85100, Control_c, 0, 64, 106
1, 85115, Control_c, 0, 64, 107
1, 85130, Note_off_c, 0, 40, 33
1, 85204, Control_c, 0, 64, 106
1, 85219, Control_c, 0, 64, 105
1, 85233, Control_c, 0, 64, 103
1, 85240, Note_on_c, 0, 76, 78
1, 85248, Control_c, 0, 64, 101
1, 85254, Note_on_c, 0, 40, 52
1, 85263, Control_c, 0, 64, 99
1, 85277, Control_c, 0, 64, 94
1, 85278, Note_on_c, 0, 77, 76
1, 85292, Control_c, 0, 64, 87
1, 85307, Note_off_c, 0, 76, 57
1, 85307, Control_c, 0, 64, 80
1, 85322, Control_c, 0, 64, 73
1, 85337, Control_c, 0, 64, 65
1, 85351, Control_c, 0, 64, 57
1, 85366, Control_c, 0, 64, 45
1, 85381, Control_c, 0, 64, 37
1, 85396, Control_c, 0, 64, 32
1, 85411, Control_c, 0, 64, 26
1, 85433, Control_c, 0, 64, 25
1, 85463, Control_c, 0, 64, 26
1, 85467, Note_on_c, 0, 74, 66
1, 85478, Control_c, 0, 64, 29
1, 85492, Control_c, 0, 64, 34
1, 85507, Control_c, 0, 64, 38
1, 85522, Control_c, 0, 64, 43
1, 85537, Control_c, 0, 64, 48
1, 85552, Control_c, 0, 64, 52
1, 85566, Control_c, 0, 64, 56
1, 85581, Control_c, 0, 64, 59
1, 85596, Control_c, 0, 64, 61
1, 85611, Control_c, 0, 64, 64
1, 85615, Note_on_c, 0, 76, 86
1, 85617, Note_off_c, 0, 74, 66
1, 85626, Note_off_c, 0, 77, 61
1, 85626, Control_c, 0, 64, 67
1, 85631, Note_on_c, 0, 72, 71
1, 85640, Control_c, 0, 64, 70
1, 85655, Control_c, 0, 64, 75
1, 85670, Control_c, 0, 64, 79
1, 85673, Note_off_c, 0, 76, 64
1, 85684, Note_off_c, 0, 40, 57
1, 85685, Control_c, 0, 64, 81
1, 85700, Control_c, 0, 64, 81
1, 85706, Note_off_c, 0, 72, 62
1, 85716, Control_c, 0, 64, 82
1, 85730, Control_c, 0, 64, 82
1, 85774, Note_on_c, 0, 72, 84
1, 85775, Control_c, 0, 64, 81
1, 85789, Control_c, 0, 64, 77
1, 85801, Note_on_c, 0, 40, 57
1, 85804, Control_c, 0, 64, 72
1, 85808, Note_on_c, 0, 74, 77
1, 85819, Control_c, 0, 64, 66
1, 85834, Control_c, 0, 64, 60
1, 85839, Note_off_c, 0, 72, 65
1, 85849, Control_c, 0, 64, 48
1, 85864, Control_c, 0, 64, 30
1, 85879, Control_c, 0, 64, 0
1, 85960, Note_on_c, 0, 71, 64
1, 86071, Control_c, 0, 64, 25
1, 86086, Control_c, 0, 64, 39
1, 86100, Control_c, 0, 64, 50
1, 86109, Note_on_c, 0, 72, 78
1, 86111, Note_off_c, 0, 71, 65
1, 86115, Control_c, 0, 64, 56
1, 86122, Note_off_c, 0, 74, 62
1, 86124, Note_on_c, 0, 69, 70
1, 86130, Control_c, 0, 64, 59
1, 86145, Control_c, 0, 64, 61
1, 86160, Control_c, 0, 64, 63
1, 86165, Note_off_c, 0, 40, 58
1, 86167, Note_off_c, 0, 72, 65
1, 86182, Control_c, 0, 64, 65
1, 86197, Control_c, 0, 64, 68
1, 86209, Note_off_c, 0, 69, 64
1, 86212, Control_c, 0, 64, 71
1, 86227, Control_c, 0, 64, 73
1, 86242, Control_c, 0, 64, 74
1, 86256, Control_c, 0, 64, 73
1, 86270, Note_on_c, 0, 69, 72
1, 86271, Control_c, 0, 64, 71
1, 86286, Control_c, 0, 64, 65
1, 86296, Note_on_c, 0, 71, 72
1, 86298, Note_on_c, 0, 40, 55
1, 86301, Control_c, 0, 64, 58
1, 86315, Control_c, 0, 64, 48
1, 86330, Control_c, 0, 64, 38
1, 86333, Note_off_c, 0, 69, 65
1, 86345, Control_c, 0, 64, 19
1, 86360, Control_c, 0, 64, 0
1, 86436, Note_on_c, 0, 67, 74
1, 86449, Control_c, 0, 64, 24
1, 86463, Control_c, 0, 64, 42
1, 86477, Note_off_c, 0, 67, 64
1, 86478, Control_c, 0, 64, 52
1, 86493, Control_c, 0, 64, 58
1, 86509, Control_c, 0, 64, 61
1, 86524, Control_c, 0, 64, 62
1, 86538, Control_c, 0, 64, 63
1, 86568, Control_c, 0, 64, 62
1, 86583, Control_c, 0, 64, 60
1, 86591, Note_on_c, 0, 69, 62
1, 86596, Note_on_c, 0, 65, 61
1, 86598, Control_c, 0, 64, 58
1, 86612, Control_c, 0, 64, 56
1, 86615, Note_off_c, 0, 71, 59
1, 86621, Note_off_c, 0, 40, 52
1, 86627, Control_c, 0, 64, 54
1, 86642, Control_c, 0, 64, 52
1, 86657, Control_c, 0, 64, 49
1, 86660, Note_off_c, 0, 65, 59
1, 86672, Control_c, 0, 64, 44
1, 86687, Control_c, 0, 64, 37
1, 86702, Control_c, 0, 64, 25
1, 86716, Control_c, 0, 64, 0
1, 86764, Note_on_c, 0, 40, 39
1, 86773, Note_on_c, 0, 64, 52
1, 86909, Control_c, 0, 64, 13
1, 86931, Control_c, 0, 64, 26
1, 86945, Note_on_c, 0, 68, 58
1, 86946, Control_c, 0, 64, 35
1, 86961, Control_c, 0, 64, 44
1, 86969, Note_off_c, 0, 64, 55
1, 86973, Note_off_c, 0, 69, 58
1, 86976, Control_c, 0, 64, 49
1, 86991, Control_c, 0, 64, 53
1, 87005, Control_c, 0, 64, 56
1, 87020, Control_c, 0, 64, 58
1, 87035, Control_c, 0, 64, 60
1, 87050, Control_c, 0, 64, 62
1, 87065, Control_c, 0, 64, 64
1, 87079, Control_c, 0, 64, 65
1, 87094, Control_c, 0, 64, 67
1, 87095, Note_off_c, 0, 68, 64
1, 87107, Note_on_c, 0, 64, 52
1, 87109, Control_c, 0, 64, 70
1, 87124, Control_c, 0, 64, 72
1, 87138, Control_c, 0, 64, 74
1, 87153, Control_c, 0, 64, 75
1, 87168, Control_c, 0, 64, 76
1, 87172, Note_off_c, 0, 40, 38
1, 87181, Note_off_c, 0, 64, 59
1, 87227, Control_c, 0, 64, 76
1, 87242, Control_c, 0, 64, 75
1, 87256, Control_c, 0, 64, 73
1, 87271, Control_c, 0, 64, 72
1, 87286, Control_c, 0, 64, 70
1, 87302, Control_c, 0, 64, 69
1, 87304, Note_on_c, 0, 64, 56
1, 87317, Control_c, 0, 64, 67
1, 87323, Note_on_c, 0, 40, 30
1, 87332, Control_c, 0, 64, 65
1, 87335, Note_on_c, 0, 65, 66
1, 87345, Note_off_c, 0, 64, 61
1, 87347, Control_c, 0, 64, 62
1, 87361, Control_c, 0, 64, 59
1, 87376, Control_c, 0, 64, 54
1, 87391, Control_c, 0, 64, 49
1, 87406, Control_c, 0, 64, 45
1, 87421, Control_c, 0, 64, 43
1, 87435, Control_c, 0, 64, 40
1, 87450, Control_c, 0, 64, 39
1, 87465, Control_c, 0, 64, 37
1, 87480, Control_c, 0, 64, 36
1, 87500, Note_on_c, 0, 62, 50
1, 87509, Control_c, 0, 67, 8
1, 87524, Control_c, 0, 64, 37
1, 87524, Control_c, 0, 67, 9
1, 87539, Control_c, 0, 64, 38
1, 87539, Control_c, 0, 67, 10
1, 87554, Control_c, 0, 64, 40
1, 87554, Control_c, 0, 67, 11
1, 87569, Control_c, 0, 64, 42
1, 87569, Control_c, 0, 67, 12
1, 87584, Control_c, 0, 64, 44
1, 87584, Control_c, 0, 67, 14
1, 87599, Control_c, 0, 64, 47
1, 87599, Control_c, 0, 67, 15
1, 87614, Control_c, 0, 64, 52
1, 87614, Control_c, 0, 67, 17
1, 87626, Note_off_c, 0, 65, 50
1, 87628, Control_c, 0, 64, 56
1, 87628, Control_c, 0, 67, 20
1, 87635, Note_off_c, 0, 62, 52
1, 87643, Control_c, 0, 64, 59
1, 87643, Control_c, 0, 67, 22
1, 87648, Note_on_c, 0, 64, 54
1, 87658, Note_on_c, 0, 60, 54
1, 87658, Control_c, 0, 64, 60
1, 87658, Control_c, 0, 67, 24
1, 87679, Control_c, 0, 67, 25
1, 87689, Note_off_c, 0, 40, 48
1, 87694, Note_off_c, 0, 64, 66
1, 87694, Control_c, 0, 67, 25
1, 87724, Control_c, 0, 67, 26
1, 87739, Note_off_c, 0, 60, 61
1, 87739, Control_c, 0, 67, 26
1, 87769, Control_c, 0, 64, 59
1, 87769, Control_c, 0, 67, 27
1, 87784, Control_c, 0, 64, 59
1, 87798, Control_c, 0, 64, 57
1, 87808, Note_on_c, 0, 60, 56
1, 87813, Control_c, 0, 64, 52
1, 87825, Note_on_c, 0, 40, 35
1, 87828, Control_c, 0, 64, 46
1, 87828, Control_c, 0, 67, 27
1, 87843, Control_c, 0, 64, 38
1, 87848, Note_on_c, 0, 62, 61
1, 87858, Control_c, 0, 64, 29
1, 87858, Control_c, 0, 67, 28
1, 87873, Control_c, 0, 64, 25
1, 87873, Control_c, 0, 67, 28
1, 87883, Note_off_c, 0, 60, 64
1, 87887, Control_c, 0, 67, 29
1, 87902, Control_c, 0, 67, 29
1, 87917, Control_c, 0, 64, 21
1, 87917, Control_c, 0, 67, 30
1, 87932, Control_c, 0, 64, 0
1, 87932, Control_c, 0, 67, 30
1, 87976, Control_c, 0, 67, 31
1, 87985, Note_on_c, 0, 59, 50
1, 88021, Control_c, 0, 67, 31
1, 88035, Control_c, 0, 67, 32
1, 88050, Control_c, 0, 67, 32
1, 88065, Control_c, 0, 64, 16
1, 88079, Control_c, 0, 64, 27
1, 88094, Control_c, 0, 64, 37
1, 88111, Control_c, 0, 64, 45
1, 88114, Note_off_c, 0, 59, 0
1, 88114, Note_on_c, 0, 59, 3
1, 88125, Note_off_c, 0, 62, 55
1, 88126, Control_c, 0, 64, 50
1, 88129, Note_off_c, 0, 59, 56
1, 88133, Note_on_c, 0, 60, 56
1, 88141, Control_c, 0, 64, 53
1, 88146, Note_on_c, 0, 57, 54
1, 88156, Control_c, 0, 64, 54
1, 88171, Control_c, 0, 64, 55
1, 88174, Note_off_c, 0, 60, 65
1, 88177, Note_off_c, 0, 40, 48
1, 88218, Note_off_c, 0, 57, 60
1, 88230, Control_c, 0, 64, 54
1, 88244, Control_c, 0, 64, 52
1, 88259, Control_c, 0, 64, 48
1, 88274, Control_c, 0, 64, 42
1, 88284, Note_on_c, 0, 57, 61
1, 88289, Control_c, 0, 64, 31
1, 88303, Control_c, 0, 64, 12
1, 88304, Note_on_c, 0, 40, 35
1, 88318, Control_c, 0, 64, 0
1, 88327, Note_on_c, 0, 59, 61
1, 88346, Note_off_c, 0, 57, 60
1, 88392, Control_c, 0, 64, 14
1, 88407, Control_c, 0, 64, 31
1, 88430, Control_c, 0, 64, 40
1, 88445, Control_c, 0, 64, 46
1, 88445, Control_c, 0, 67, 32
1, 88459, Control_c, 0, 64, 50
1, 88459, Control_c, 0, 67, 31
1, 88466, Note_on_c, 0, 55, 49
1, 88474, Control_c, 0, 64, 52
1, 88489, Control_c, 0, 64, 53
1, 88502, Note_off_c, 0, 55, 63
1, 88503, Control_c, 0, 67, 31
1, 88518, Control_c, 0, 64, 52
1, 88533, Control_c, 0, 64, 51
1, 88533, Control_c, 0, 67, 30
1, 88537, Note_off_c, 0, 40, 48
1, 88548, Control_c, 0, 64, 50
1, 88548, Control_c, 0, 67, 30
1, 88563, Control_c, 0, 64, 48
1, 88563, Control_c, 0, 67, 29
1, 88577, Control_c, 0, 64, 46
1, 88592, Control_c, 0, 64, 44
1, 88592, Control_c, 0, 67, 28
1, 88606, Note_off_c, 0, 59, 39
1, 88607, Control_c, 0, 64, 43
1, 88607, Control_c, 0, 67, 28
1, 88622, Control_c, 0, 64, 42
1, 88623, Note_on_c, 0, 57, 48
1, 88637, Control_c, 0, 64, 40
1, 88637, Control_c, 0, 67, 27
1, 88643, Note_on_c, 0, 53, 42
1, 88651, Control_c, 0, 64, 38
1, 88651, Control_c, 0, 67, 27
1, 88666, Control_c, 0, 64, 31
1, 88666, Control_c, 0, 67, 26
1, 88674, Note_off_c, 0, 53, 63
1, 88681, Control_c, 0, 64, 21
1, 88681, Control_c, 0, 67, 26
1, 88696, Control_c, 0, 64, 0
1, 88696, Control_c, 0, 67, 25
1, 88726, Control_c, 0, 67, 25
1, 88740, Control_c, 0, 67, 24
1, 88755, Control_c, 0, 67, 24
1, 88770, Control_c, 0, 67, 23
1, 88800, Control_c, 0, 67, 23
1, 88803, Note_on_c, 0, 40, 30
1, 88815, Note_on_c, 0, 52, 40
1, 88830, Control_c, 0, 67, 22
1, 88845, Control_c, 0, 67, 21
1, 88858, Control_c, 0, 67, 20
1, 88873, Control_c, 0, 67, 19
1, 88888, Control_c, 0, 67, 17
1, 88904, Control_c, 0, 67, 15
1, 88919, Control_c, 0, 67, 12
1, 88933, Control_c, 0, 67, 10
1, 88937, Note_off_c, 0, 57, 36
1, 88948, Control_c, 0, 64, 31
1, 88948, Control_c, 0, 67, 8
1, 88963, Control_c, 0, 64, 42
1, 88963, Control_c, 0, 67, 0
1, 88978, Control_c, 0, 64, 48
1, 88985, Note_on_c, 0, 56, 50
1, 88993, Control_c, 0, 64, 52
1, 89007, Control_c, 0, 64, 56
1, 89022, Control_c, 0, 64, 58
1, 89031, Note_off_c, 0, 40, 56
1, 89037, Control_c, 0, 64, 61
1, 89052, Control_c, 0, 64, 63
1, 89067, Control_c, 0, 64, 66
1, 89081, Control_c, 0, 64, 69
1, 89088, Note_off_c, 0, 52, 52
1, 89096, Control_c, 0, 64, 72
1, 89111, Control_c, 0, 64, 76
1, 89125, Control_c, 0, 64, 78
1, 89138, Note_on_c, 0, 64, 54
1, 89140, Control_c, 0, 64, 80
1, 89145, Note_off_c, 0, 56, 59
1, 89155, Control_c, 0, 64, 80
1, 89162, Note_off_c, 0, 64, 63
1, 89267, Control_c, 0, 64, 80
1, 89281, Control_c, 0, 64, 79
1, 89296, Control_c, 0, 64, 78
1, 89311, Control_c, 0, 64, 76
1, 89323, Note_on_c, 0, 65, 79
1, 89326, Control_c, 0, 64, 74
1, 89336, Note_on_c, 0, 50, 51
1, 89337, Note_on_c, 0, 57, 53
1, 89340, Control_c, 0, 64, 70
1, 89342, Note_on_c, 0, 67, 73
1, 89346, Note_off_c, 0, 65, 69
1, 89355, Control_c, 0, 64, 66
1, 89368, Note_off_c, 0, 67, 66
1, 89370, Control_c, 0, 64, 60
1, 89385, Control_c, 0, 64, 46
1, 89399, Control_c, 0, 64, 0
1, 89429, Note_on_c, 0, 65, 55
1, 89473, Note_on_c, 0, 64, 62
1, 89481, Note_off_c, 0, 65, 60
1, 89507, Note_off_c, 0, 64, 66
1, 89626, Note_off_c, 0, 57, 49
1, 89631, Note_on_c, 0, 69, 68
1, 89632, Note_on_c, 0, 65, 63
1, 89732, Note_off_c, 0, 50, 25
1, 89758, Note_off_c, 0, 65, 61
1, 89783, Note_on_c, 0, 59, 54
1, 89793, Note_on_c, 0, 52, 48
1, 89796, Note_on_c, 0, 64, 60
1, 89955, Note_on_c, 0, 68, 80
1, 89967, Note_off_c, 0, 69, 60
1, 89986, Control_c, 0, 64, 19
1, 90001, Control_c, 0, 64, 43
1, 90016, Control_c, 0, 64, 53
1, 90030, Control_c, 0, 64, 59
1, 90045, Control_c, 0, 64, 64
1, 90060, Control_c, 0, 64, 67
1, 90074, Control_c, 0, 64, 72
1, 90076, Note_off_c, 0, 64, 63
1, 90089, Control_c, 0, 64, 75
1, 90103, Note_on_c, 0, 76, 78
1, 90109, Note_off_c, 0, 68, 66
1, 90119, Control_c, 0, 64, 74
1, 90126, Note_off_c, 0, 76, 70
1, 90134, Control_c, 0, 64, 70
1, 90148, Control_c, 0, 64, 64
1, 90153, Note_off_c, 0, 59, 55
1, 90163, Control_c, 0, 64, 56
1, 90178, Control_c, 0, 64, 40
1, 90193, Control_c, 0, 64, 0
1, 90249, Note_off_c, 0, 52, 44
1, 90268, Note_on_c, 0, 77, 80
1, 90280, Note_on_c, 0, 50, 56
1, 90292, Note_on_c, 0, 57, 53
1, 90294, Note_off_c, 0, 77, 67
1, 90297, Note_on_c, 0, 79, 76
1, 90353, Note_on_c, 0, 77, 67
1, 90365, Note_off_c, 0, 79, 58
1, 90400, Note_off_c, 0, 77, 65
1, 90405, Note_on_c, 0, 76, 73
1, 90440, Note_off_c, 0, 76, 64
1, 90594, Note_on_c, 0, 77, 60
1, 90609, Note_on_c, 0, 69, 48
1, 90624, Note_off_c, 0, 57, 34
1, 90741, Note_off_c, 0, 50, 46
1, 90787, Note_on_c, 0, 52, 31
1, 90794, Note_on_c, 0, 59, 38
1, 90827, Note_off_c, 0, 77, 57
1, 90853, Control_c, 0, 64, 10
1, 90868, Control_c, 0, 64, 32
1, 90883, Control_c, 0, 64, 43
1, 90897, Control_c, 0, 64, 49
1, 90912, Control_c, 0, 64, 53
1, 90927, Control_c, 0, 64, 56
1, 90942, Control_c, 0, 64, 59
1, 90949, Note_off_c, 0, 69, 61
1, 90952, Note_on_c, 0, 68, 55
1, 90957, Control_c, 0, 64, 61
1, 90961, Note_on_c, 0, 76, 55
1, 90971, Control_c, 0, 64, 62
1, 90986, Control_c, 0, 64, 63
1, 91018, Note_off_c, 0, 76, 59
1, 91031, Control_c, 0, 64, 62
1, 91045, Control_c, 0, 64, 60
1, 91060, Control_c, 0, 64, 57
1, 91075, Control_c, 0, 64, 53
1, 91076, Note_off_c, 0, 68, 50
1, 91090, Control_c, 0, 64, 49
1, 91101, Note_off_c, 0, 59, 52
1, 91103, Note_on_c, 0, 64, 57
1, 91105, Control_c, 0, 64, 42
1, 91120, Control_c, 0, 64, 27
1, 91135, Control_c, 0, 64, 0
1, 91139, Note_off_c, 0, 64, 63
1, 91197, Note_off_c, 0, 52, 43
1, 91234, Note_on_c, 0, 50, 44
1, 91245, Note_on_c, 0, 65, 65
1, 91265, Note_off_c, 0, 65, 63
1, 91269, Note_on_c, 0, 67, 60
1, 91271, Note_on_c, 0, 57, 41
1, 91295, Note_off_c, 0, 67, 62
1, 91361, Note_on_c, 0, 65, 45
1, 91390, Note_off_c, 0, 65, 56
1, 91423, Note_on_c, 0, 64, 50
1, 91447, Note_off_c, 0, 64, 59
1, 91540, Note_off_c, 0, 57, 37
1, 91579, Note_on_c, 0, 65, 54
1, 91590, Note_on_c, 0, 69, 50
1, 91694, Note_off_c, 0, 50, 43
1, 91711, Note_off_c, 0, 65, 53
1, 91755, Note_on_c, 0, 52, 36
1, 91757, Note_on_c, 0, 59, 40
1, 91759, Note_on_c, 0, 64, 42
1, 91901, Note_off_c, 0, 69, 62
1, 91920, Note_on_c, 0, 68, 56
1, 91928, Control_c, 0, 64, 32
1, 91943, Control_c, 0, 64, 42
1, 91958, Control_c, 0, 64, 48
1, 91973, Control_c, 0, 64, 51
1, 91988, Control_c, 0, 64, 54
1, 92002, Control_c, 0, 64, 55
1, 92017, Control_c, 0, 64, 54
1, 92019, Note_off_c, 0, 64, 48
1, 92032, Control_c, 0, 64, 53
1, 92046, Control_c, 0, 64, 49
1, 92061, Control_c, 0, 64, 44
1, 92064, Note_off_c, 0, 68, 65
1, 92074, Note_on_c, 0, 76, 59
1, 92076, Control_c, 0, 64, 35
1, 92092, Control_c, 0, 64, 24
1, 92096, Note_off_c, 0, 76, 62
1, 92100, Note_off_c, 0, 59, 38
1, 92107, Control_c, 0, 64, 0
1, 92164, Note_off_c, 0, 52, 44
1, 92222, Note_on_c, 0, 50, 41
1, 92230, Note_on_c, 0, 77, 66
1, 92249, Note_on_c, 0, 57, 45
1, 92258, Note_off_c, 0, 77, 67
1, 92271, Note_on_c, 0, 79, 52
1, 92321, Note_off_c, 0, 79, 45
1, 92338, Note_on_c, 0, 77, 58
1, 92371, Note_off_c, 0, 77, 64
1, 92380, Note_on_c, 0, 76, 59
1, 92411, Note_off_c, 0, 76, 65
1, 92538, Note_off_c, 0, 57, 35
1, 92566, Note_on_c, 0, 77, 41
1, 92575, Note_on_c, 0, 69, 41
1, 92666, Note_off_c, 0, 50, 46
1, 92724, Note_on_c, 0, 59, 34
1, 92726, Note_on_c, 0, 52, 28
1, 92805, Note_off_c, 0, 77, 59
1, 92854, Control_c, 0, 64, 25
1, 92869, Control_c, 0, 64, 37
1, 92884, Control_c, 0, 64, 43
1, 92899, Control_c, 0, 64, 50
1, 92911, Note_on_c, 0, 68, 47
1, 92922, Control_c, 0, 64, 55
1, 92924, Note_on_c, 0, 76, 52
1, 92929, Note_off_c, 0, 69, 52
1, 92937, Control_c, 0, 64, 60
1, 92952, Control_c, 0, 64, 63
1, 92967, Control_c, 0, 64, 64
1, 92981, Control_c, 0, 64, 66
1, 92996, Control_c, 0, 64, 67
1, 93001, Note_off_c, 0, 76, 55
1, 93011, Control_c, 0, 64, 69
1, 93026, Control_c, 0, 64, 71
1, 93041, Control_c, 0, 64, 72
1, 93051, Note_off_c, 0, 68, 57
1, 93064, Note_off_c, 0, 59, 50
1, 93090, Note_on_c, 0, 64, 45
1, 93091, Note_off_c, 0, 52, 43
1, 93114, Control_c, 0, 64, 71
1, 93129, Control_c, 0, 64, 69
1, 93144, Control_c, 0, 64, 67
1, 93159, Control_c, 0, 64, 63
1, 93168, Note_on_c, 0, 50, 47
1, 93173, Control_c, 0, 64, 59
1, 93188, Control_c, 0, 64, 53
1, 93203, Control_c, 0, 64, 42
1, 93214, Note_on_c, 0, 57, 45
1, 93218, Control_c, 0, 64, 23
1, 93233, Control_c, 0, 64, 0
1, 93258, Note_on_c, 0, 59, 46
1, 93264, Note_on_c, 0, 67, 55
1, 93271, Note_off_c, 0, 64, 28
1, 93292, Control_c, 0, 64, 9
1, 93307, Control_c, 0, 64, 26
1, 93322, Control_c, 0, 64, 36
1, 93337, Control_c, 0, 64, 39
1, 93352, Control_c, 0, 64, 43
1, 93366, Control_c, 0, 64, 46
1, 93381, Control_c, 0, 64, 50
1, 93396, Control_c, 0, 64, 53
1, 93411, Control_c, 0, 64, 58
1, 93426, Control_c, 0, 64, 60
1, 93429, Note_off_c, 0, 67, 62
1, 93432, Note_on_c, 0, 65, 60
1, 93440, Control_c, 0, 64, 62
1, 93444, Note_off_c, 0, 57, 60
1, 93455, Control_c, 0, 64, 64
1, 93470, Control_c, 0, 64, 66
1, 93485, Control_c, 0, 64, 68
1, 93499, Control_c, 0, 64, 72
1, 93514, Control_c, 0, 64, 76
1, 93529, Control_c, 0, 64, 78
1, 93531, Note_off_c, 0, 50, 61
1, 93539, Note_off_c, 0, 65, 61
1, 93544, Control_c, 0, 64, 80
1, 93559, Control_c, 0, 64, 81
1, 93567, Note_off_c, 0, 59, 48
1, 93573, Control_c, 0, 64, 82
1, 93575, Note_on_c, 0, 64, 62
1, 93588, Control_c, 0, 64, 82
1, 93620, Note_off_c, 0, 64, 59
1, 93632, Control_c, 0, 64, 82
1, 93670, Control_c, 0, 64, 80
1, 93680, Note_on_c, 0, 50, 44
1, 93685, Control_c, 0, 64, 78
1, 93701, Control_c, 0, 64, 73
1, 93716, Control_c, 0, 64, 69
1, 93730, Control_c, 0, 64, 64
1, 93739, Note_on_c, 0, 57, 51
1, 93745, Control_c, 0, 64, 57
1, 93753, Note_on_c, 0, 74, 65
1, 93757, Note_on_c, 0, 65, 59
1, 93760, Control_c, 0, 64, 46
1, 93772, Note_on_c, 0, 59, 55
1, 93775, Control_c, 0, 64, 34
1, 93790, Control_c, 0, 64, 22
1, 93804, Control_c, 0, 64, 18
1, 93819, Control_c, 0, 64, 21
1, 93834, Control_c, 0, 64, 24
1, 93849, Control_c, 0, 64, 29
1, 93864, Control_c, 0, 64, 36
1, 93878, Control_c, 0, 64, 44
1, 93893, Control_c, 0, 64, 51
1, 93908, Control_c, 0, 64, 56
1, 93909, Note_on_c, 0, 72, 73
1, 93916, Note_off_c, 0, 57, 61
1, 93922, Control_c, 0, 64, 59
1, 93934, Note_off_c, 0, 74, 63
1, 93937, Control_c, 0, 64, 62
1, 93952, Control_c, 0, 64, 64
1, 93967, Control_c, 0, 64, 66
1, 93982, Control_c, 0, 64, 70
1, 93990, Note_off_c, 0, 50, 59
1, 93996, Control_c, 0, 64, 74
1, 94011, Control_c, 0, 64, 77
1, 94019, Note_off_c, 0, 59, 55
1, 94026, Control_c, 0, 64, 80
1, 94033, Note_off_c, 0, 72, 59
1, 94041, Control_c, 0, 64, 82
1, 94046, Note_on_c, 0, 71, 80
1, 94055, Control_c, 0, 64, 83
1, 94062, Note_off_c, 0, 65, 49
1, 94070, Control_c, 0, 64, 83
1, 94091, Note_off_c, 0, 71, 62
1, 94122, Note_on_c, 0, 50, 57
1, 94129, Control_c, 0, 64, 83
1, 94144, Control_c, 0, 64, 80
1, 94159, Control_c, 0, 64, 76
1, 94173, Note_on_c, 0, 57, 55
1, 94174, Control_c, 0, 64, 69
1, 94188, Control_c, 0, 64, 62
1, 94203, Control_c, 0, 64, 51
1, 94210, Note_on_c, 0, 79, 81
1, 94217, Note_on_c, 0, 59, 67
1, 94218, Control_c, 0, 64, 35
1, 94219, Note_on_c, 0, 69, 64
1, 94233, Control_c, 0, 64, 0
1, 94321, Control_c, 0, 64, 27
1, 94336, Control_c, 0, 64, 41
1, 94351, Control_c, 0, 64, 50
1, 94362, Note_on_c, 0, 77, 86
1, 94365, Note_off_c, 0, 57, 58
1, 94366, Control_c, 0, 64, 57
1, 94381, Control_c, 0, 64, 60
1, 94385, Note_off_c, 0, 79, 62
1, 94395, Control_c, 0, 64, 63
1, 94418, Control_c, 0, 64, 65
1, 94433, Control_c, 0, 64, 69
1, 94444, Note_off_c, 0, 50, 60
1, 94447, Control_c, 0, 64, 73
1, 94462, Control_c, 0, 64, 76
1, 94467, Note_off_c, 0, 59, 56
1, 94477, Control_c, 0, 64, 79
1, 94493, Control_c, 0, 64, 81
1, 94503, Note_off_c, 0, 77, 57
1, 94508, Control_c, 0, 64, 81
1, 94511, Note_off_c, 0, 69, 32
1, 94514, Note_on_c, 0, 76, 88
1, 94523, Control_c, 0, 64, 82
1, 94558, Note_off_c, 0, 76, 63
1, 94567, Control_c, 0, 64, 81
1, 94582, Control_c, 0, 64, 81
1, 94588, Note_on_c, 0, 50, 62
1, 94597, Control_c, 0, 64, 79
1, 94612, Control_c, 0, 64, 75
1, 94626, Control_c, 0, 64, 72
1, 94641, Control_c, 0, 64, 69
1, 94651, Note_on_c, 0, 57, 58
1, 94656, Control_c, 0, 64, 65
1, 94670, Control_c, 0, 64, 61
1, 94685, Control_c, 0, 64, 53
1, 94700, Control_c, 0, 64, 42
1, 94705, Note_on_c, 0, 84, 84
1, 94708, Note_on_c, 0, 59, 59
1, 94711, Note_on_c, 0, 74, 72
1, 94715, Control_c, 0, 64, 26
1, 94730, Control_c, 0, 64, 0
1, 94833, Control_c, 0, 64, 26
1, 94848, Control_c, 0, 64, 40
1, 94862, Note_off_c, 0, 57, 60
1, 94863, Control_c, 0, 64, 46
1, 94869, Note_on_c, 0, 82, 84
1, 94878, Control_c, 0, 64, 50
1, 94893, Control_c, 0, 64, 55
1, 94901, Note_off_c, 0, 84, 65
1, 94908, Control_c, 0, 64, 59
1, 94923, Control_c, 0, 64, 63
1, 94937, Control_c, 0, 64, 68
1, 94952, Control_c, 0, 64, 72
1, 94967, Control_c, 0, 64, 77
1, 94982, Control_c, 0, 64, 81
1, 94997, Control_c, 0, 64, 85
1, 95009, Note_off_c, 0, 50, 65
1, 95012, Control_c, 0, 64, 88
1, 95018, Note_on_c, 0, 80, 83
1, 95026, Control_c, 0, 64, 91
1, 95039, Note_off_c, 0, 82, 61
1, 95041, Note_off_c, 0, 74, 64
1, 95041, Control_c, 0, 64, 91
1, 95057, Note_off_c, 0, 59, 33
1, 95100, Control_c, 0, 64, 90
1, 95111, Note_off_c, 0, 80, 61
1, 95115, Control_c, 0, 64, 86
1, 95130, Control_c, 0, 64, 78
1, 95144, Control_c, 0, 64, 70
1, 95167, Control_c, 0, 64, 61
1, 95180, Note_on_c, 0, 48, 63
1, 95182, Control_c, 0, 64, 43
1, 95192, Note_on_c, 0, 81, 83
1, 95197, Control_c, 0, 64, 13
1, 95197, Note_on_c, 0, 57, 70
1, 95201, Note_on_c, 0, 72, 74
1, 95212, Control_c, 0, 64, 0
1, 95270, Control_c, 0, 64, 29
1, 95285, Control_c, 0, 64, 49
1, 95301, Control_c, 0, 64, 59
1, 95316, Control_c, 0, 64, 65
1, 95331, Control_c, 0, 64, 69
1, 95332, Note_off_c, 0, 72, 39
1, 95345, Note_on_c, 0, 76, 82
1, 95346, Control_c, 0, 64, 72
1, 95361, Control_c, 0, 64, 73
1, 95365, Note_off_c, 0, 48, 61
1, 95367, Note_off_c, 0, 57, 64
1, 95367, Note_off_c, 0, 81, 66
1, 95375, Control_c, 0, 64, 73
1, 95390, Control_c, 0, 64, 70
1, 95401, Note_off_c, 0, 76, 62
1, 95405, Control_c, 0, 64, 64
1, 95420, Control_c, 0, 64, 49
1, 95435, Control_c, 0, 64, 0
1, 95498, Note_on_c, 0, 50, 67
1, 95501, Note_on_c, 0, 59, 68
1, 95501, Note_on_c, 0, 74, 83
1, 95529, Note_off_c, 0, 59, 65
1, 95533, Note_off_c, 0, 50, 69
1, 95540, Note_off_c, 0, 74, 65
1, 95674, Note_on_c, 0, 60, 73
1, 95676, Note_on_c, 0, 72, 74
1, 95677, Note_on_c, 0, 52, 60
1, 95677, Note_on_c, 0, 57, 70
1, 95747, Note_off_c, 0, 72, 54
1, 95776, Note_off_c, 0, 57, 63
1, 95794, Note_off_c, 0, 60, 64
1, 95800, Note_off_c, 0, 52, 62
1, 95830, Note_on_c, 0, 71, 78
1, 95883, Note_off_c, 0, 71, 63
1, 95895, Note_on_c, 0, 69, 68
1, 95967, Note_off_c, 0, 69, 62
1, 95972, Note_on_c, 0, 52, 53
1, 95974, Note_on_c, 0, 59, 55
1, 95977, Note_on_c, 0, 62, 53
1, 95984, Note_on_c, 0, 71, 76
1, 95997, Note_off_c, 0, 59, 58
1, 96001, Note_off_c, 0, 62, 59
1, 96011, Note_off_c, 0, 52, 65
1, 96029, Note_off_c, 0, 71, 67
1, 96047, Note_on_c, 0, 68, 63
1, 96076, Note_off_c, 0, 68, 67
1, 96122, Note_on_c, 0, 45, 78
1, 96130, Note_on_c, 0, 57, 70
1, 96133, Note_on_c, 0, 68, 78
1, 96151, Note_off_c, 0, 45, 65
1, 96167, Note_off_c, 0, 57, 62
1, 96273, Note_off_c, 0, 68, 58
1, 96285, Note_on_c, 0, 69, 72
1, 96309, Note_off_c, 0, 69, 71
1, 96447, Note_on_c, 0, 64, 58
1, 96550, Note_on_c, 0, 50, 32
1, 96600, Note_on_c, 0, 57, 32
1, 96632, Note_on_c, 0, 67, 56
1, 96636, Note_on_c, 0, 59, 42
1, 96644, Note_off_c, 0, 64, 17
1, 96763, Note_off_c, 0, 67, 55
1, 96799, Note_on_c, 0, 65, 62
1, 96828, Control_c, 0, 64, 9
1, 96833, Note_off_c, 0, 57, 47
1, 96837, Note_off_c, 0, 65, 62
1, 96842, Control_c, 0, 64, 29
1, 96857, Control_c, 0, 64, 39
1, 96863, Note_off_c, 0, 50, 51
1, 96872, Control_c, 0, 64, 46
1, 96887, Control_c, 0, 64, 49
1, 96902, Control_c, 0, 64, 51
1, 96917, Control_c, 0, 64, 52
1, 96932, Control_c, 0, 64, 53
1, 96933, Note_off_c, 0, 59, 58
1, 96942, Note_on_c, 0, 64, 64
1, 96962, Control_c, 0, 64, 52
1, 96977, Control_c, 0, 64, 52
1, 96980, Note_off_c, 0, 64, 62
1, 96992, Control_c, 0, 64, 51
1, 97007, Control_c, 0, 64, 50
1, 97015, Note_on_c, 0, 50, 37
1, 97021, Control_c, 0, 64, 48
1, 97036, Control_c, 0, 64, 45
1, 97051, Control_c, 0, 64, 42
1, 97065, Control_c, 0, 64, 40
1, 97080, Control_c, 0, 64, 37
1, 97084, Note_on_c, 0, 57, 34
1, 97095, Control_c, 0, 64, 33
1, 97098, Note_on_c, 0, 65, 58
1, 97103, Note_on_c, 0, 74, 55
1, 97105, Note_on_c, 0, 59, 43
1, 97110, Control_c, 0, 64, 32
1, 97139, Control_c, 0, 64, 33
1, 97154, Control_c, 0, 64, 32
1, 97169, Control_c, 0, 64, 30
1, 97184, Control_c, 0, 64, 26
1, 97199, Control_c, 0, 64, 23
1, 97224, Note_off_c, 0, 74, 59
1, 97243, Control_c, 0, 64, 23
1, 97254, Note_on_c, 0, 72, 57
1, 97257, Control_c, 0, 64, 29
1, 97272, Control_c, 0, 64, 33
1, 97287, Control_c, 0, 64, 34
1, 97289, Note_off_c, 0, 72, 64
1, 97302, Control_c, 0, 64, 33
1, 97304, Note_off_c, 0, 57, 51
1, 97317, Control_c, 0, 64, 29
1, 97317, Control_c, 0, 67, 8
1, 97331, Control_c, 0, 64, 25
1, 97331, Control_c, 0, 67, 9
1, 97346, Note_off_c, 0, 50, 46
1, 97346, Control_c, 0, 64, 25
1, 97346, Control_c, 0, 67, 9
1, 97361, Control_c, 0, 67, 10
1, 97376, Control_c, 0, 64, 26
1, 97376, Control_c, 0, 67, 11
1, 97391, Control_c, 0, 64, 29
1, 97391, Control_c, 0, 67, 12
1, 97394, Note_off_c, 0, 59, 56
1, 97413, Control_c, 0, 64, 33
1, 97413, Control_c, 0, 67, 13
1, 97415, Note_on_c, 0, 71, 65
1, 97426, Note_off_c, 0, 65, 51
1, 97428, Control_c, 0, 64, 35
1, 97428, Control_c, 0, 67, 15
1, 97443, Control_c, 0, 67, 16
1, 97444, Note_off_c, 0, 71, 67
1, 97458, Control_c, 0, 64, 32
1, 97458, Control_c, 0, 67, 18
1, 97472, Control_c, 0, 64, 29
1, 97472, Control_c, 0, 67, 20
1, 97487, Control_c, 0, 64, 25
1, 97487, Control_c, 0, 67, 22
1, 97495, Note_on_c, 0, 50, 41
1, 97502, Control_c, 0, 64, 24
1, 97502, Control_c, 0, 67, 24
1, 97517, Control_c, 0, 67, 25
1, 97532, Control_c, 0, 67, 26
1, 97546, Control_c, 0, 64, 26
1, 97546, Control_c, 0, 67, 27
1, 97550, Note_on_c, 0, 57, 41
1, 97561, Control_c, 0, 64, 27
1, 97561, Control_c, 0, 67, 28
1, 97576, Control_c, 0, 67, 29
1, 97580, Note_on_c, 0, 79, 64
1, 97583, Note_on_c, 0, 59, 41
1, 97584, Note_on_c, 0, 69, 54
1, 97591, Control_c, 0, 67, 30
1, 97606, Control_c, 0, 64, 25
1, 97606, Control_c, 0, 67, 31
1, 97621, Control_c, 0, 64, 23
1, 97621, Control_c, 0, 67, 32
1, 97635, Control_c, 0, 64, 20
1, 97635, Control_c, 0, 67, 33
1, 97650, Control_c, 0, 64, 18
1, 97650, Control_c, 0, 67, 34
1, 97665, Control_c, 0, 64, 15
1, 97665, Control_c, 0, 67, 35
1, 97671, Note_off_c, 0, 79, 49
1, 97680, Control_c, 0, 64, 10
1, 97680, Control_c, 0, 67, 36
1, 97695, Control_c, 0, 64, 0
1, 97695, Control_c, 0, 67, 38
1, 97710, Control_c, 0, 67, 39
1, 97725, Control_c, 0, 67, 40
1, 97737, Note_on_c, 0, 77, 58
1, 97740, Control_c, 0, 67, 42
1, 97747, Note_off_c, 0, 57, 45
1, 97755, Control_c, 0, 67, 43
1, 97761, Note_off_c, 0, 77, 64
1, 97770, Control_c, 0, 67, 46
1, 97783, Note_off_c, 0, 50, 52
1, 97785, Control_c, 0, 67, 48
1, 97799, Control_c, 0, 67, 50
1, 97814, Control_c, 0, 67, 51
1, 97829, Control_c, 0, 67, 53
1, 97844, Note_off_c, 0, 69, 42
1, 97844, Control_c, 0, 67, 54
1, 97859, Control_c, 0, 67, 55
1, 97874, Control_c, 0, 67, 56
1, 97889, Note_on_c, 0, 76, 65
1, 97889, Control_c, 0, 67, 57
1, 97898, Note_off_c, 0, 59, 35
1, 97904, Control_c, 0, 67, 58
1, 97918, Note_off_c, 0, 76, 65
1, 97919, Control_c, 0, 67, 59
1, 97934, Control_c, 0, 67, 60
1, 97948, Control_c, 0, 67, 61
1, 97963, Control_c, 0, 67, 61
1, 97976, Note_on_c, 0, 50, 41
1, 97978, Control_c, 0, 67, 62
1, 97993, Control_c, 0, 67, 62
1, 98008, Control_c, 0, 67, 63
1, 98023, Control_c, 0, 67, 63
1, 98023, Note_on_c, 0, 57, 40
1, 98037, Control_c, 0, 67, 64
1, 98058, Note_on_c, 0, 74, 56
1, 98062, Note_on_c, 0, 84, 59
1, 98067, Control_c, 0, 67, 64
1, 98086, Note_on_c, 0, 59, 32
1, 98126, Control_c, 0, 67, 65
1, 98187, Note_off_c, 0, 84, 62
1, 98193, Control_c, 0, 64, 18
1, 98208, Control_c, 0, 64, 25
1, 98211, Note_off_c, 0, 57, 47
1, 98212, Note_on_c, 0, 82, 64
1, 98222, Control_c, 0, 64, 28
1, 98237, Control_c, 0, 64, 29
1, 98245, Note_off_c, 0, 82, 64
1, 98267, Control_c, 0, 64, 28
1, 98282, Control_c, 0, 64, 26
1, 98296, Control_c, 0, 64, 24
1, 98311, Control_c, 0, 64, 21
1, 98326, Control_c, 0, 64, 19
1, 98341, Control_c, 0, 64, 14
1, 98351, Note_off_c, 0, 50, 41
1, 98356, Control_c, 0, 64, 0
1, 98372, Note_on_c, 0, 80, 57
1, 98394, Note_off_c, 0, 80, 64
1, 98399, Note_off_c, 0, 74, 48
1, 98414, Note_off_c, 0, 59, 42
1, 98474, Control_c, 0, 67, 64
1, 98490, Control_c, 0, 67, 64
1, 98519, Control_c, 0, 67, 63
1, 98557, Note_on_c, 0, 48, 47
1, 98559, Note_on_c, 0, 81, 59
1, 98564, Control_c, 0, 64, 19
1, 98574, Note_on_c, 0, 72, 44
1, 98576, Note_on_c, 0, 57, 38
1, 98579, Control_c, 0, 64, 25
1, 98593, Control_c, 0, 64, 28
1, 98608, Control_c, 0, 64, 29
1, 98623, Control_c, 0, 67, 63
1, 98638, Note_off_c, 0, 72, 58
1, 98653, Control_c, 0, 64, 25
1, 98667, Control_c, 0, 64, 19
1, 98667, Control_c, 0, 67, 62
1, 98675, Note_off_c, 0, 48, 56
1, 98682, Control_c, 0, 64, 9
1, 98693, Note_off_c, 0, 81, 58
1, 98697, Control_c, 0, 64, 0
1, 98700, Note_off_c, 0, 57, 55
1, 98712, Note_on_c, 0, 76, 62
1, 98738, Note_off_c, 0, 76, 64
1, 98741, Control_c, 0, 67, 62
1, 98756, Control_c, 0, 67, 61
1, 98771, Control_c, 0, 67, 61
1, 98786, Control_c, 0, 67, 60
1, 98845, Control_c, 0, 67, 60
1, 98867, Note_on_c, 0, 50, 42
1, 98867, Note_on_c, 0, 74, 62
1, 98870, Note_on_c, 0, 59, 48
1, 98875, Control_c, 0, 67, 59
1, 98886, Note_off_c, 0, 74, 66
1, 98890, Control_c, 0, 67, 59
1, 98896, Note_off_c, 0, 59, 58
1, 98901, Note_off_c, 0, 50, 56
1, 98926, Control_c, 0, 67, 58
1, 98941, Control_c, 0, 67, 58
1, 98986, Control_c, 0, 67, 57
1, 99042, Note_on_c, 0, 72, 60
1, 99050, Note_on_c, 0, 52, 42
1, 99060, Note_on_c, 0, 60, 44
1, 99061, Note_on_c, 0, 57, 42
1, 99075, Control_c, 0, 67, 57
1, 99094, Note_off_c, 0, 72, 50
1, 99102, Note_off_c, 0, 57, 57
1, 99114, Note_off_c, 0, 60, 59
1, 99120, Note_off_c, 0, 52, 57
1, 99164, Control_c, 0, 67, 56
1, 99193, Control_c, 0, 67, 56
1, 99200, Note_on_c, 0, 71, 66
1, 99223, Control_c, 0, 67, 55
1, 99236, Note_off_c, 0, 71, 59
1, 99252, Control_c, 0, 67, 55
1, 99267, Control_c, 0, 67, 54
1, 99280, Note_on_c, 0, 69, 50
1, 99283, Control_c, 0, 67, 53
1, 99298, Control_c, 0, 67, 53
1, 99313, Control_c, 0, 67, 52
1, 99320, Note_off_c, 0, 69, 66
1, 99336, Note_on_c, 0, 71, 68
1, 99341, Control_c, 0, 67, 52
1, 99355, Note_on_c, 0, 52, 34
1, 99356, Control_c, 0, 67, 51
1, 99371, Control_c, 0, 67, 50
1, 99386, Note_off_c, 0, 52, 52
1, 99386, Control_c, 0, 67, 49
1, 99388, Note_off_c, 0, 71, 64
1, 99400, Note_on_c, 0, 68, 73
1, 99401, Control_c, 0, 67, 48
1, 99415, Control_c, 0, 67, 47
1, 99428, Note_off_c, 0, 68, 66
1, 99430, Control_c, 0, 67, 46
1, 99445, Control_c, 0, 67, 46
1, 99460, Control_c, 0, 67, 44
1, 99475, Control_c, 0, 67, 43
1, 99487, Note_on_c, 0, 45, 86
1, 99488, Note_on_c, 0, 69, 93
1, 99490, Control_c, 0, 67, 41
1, 99505, Control_c, 0, 67, 38
1, 99512, Note_off_c, 0, 45, 69
1, 99519, Control_c, 0, 67, 32
1, 99523, Note_off_c, 0, 69, 70
1, 99534, Control_c, 0, 67, 24
1, 99549, Control_c, 0, 67, 14
1, 99564, Control_c, 0, 67, 0
1, 99634, Note_on_c, 0, 73, 87
1, 99639, Note_on_c, 0, 57, 81
1, 99668, Note_off_c, 0, 57, 68
1, 99692, Note_off_c, 0, 73, 64
1, 99814, Note_on_c, 0, 76, 81
1, 99820, Note_on_c, 0, 81, 90
1, 99835, Note_off_c, 0, 81, 76
1, 100052, Note_on_c, 0, 66, 83
1, 100056, Note_on_c, 0, 40, 76
1, 100067, Note_on_c, 0, 64, 84
1, 100107, Note_off_c, 0, 66, 66
1, 100120, Control_c, 0, 64, 16
1, 100135, Control_c, 0, 64, 31
1, 100150, Control_c, 0, 64, 43
1, 100164, Control_c, 0, 64, 52
1, 100179, Control_c, 0, 64, 55
1, 100194, Control_c, 0, 64, 54
1, 100209, Control_c, 0, 64, 53
1, 100217, Note_off_c, 0, 64, 51
1, 100224, Control_c, 0, 64, 53
1, 100231, Note_on_c, 0, 74, 79
1, 100244, Note_off_c, 0, 76, 59
1, 100250, Note_off_c, 0, 40, 60
1, 100297, Control_c, 0, 64, 52
1, 100302, Note_off_c, 0, 74, 62
1, 100309, Note_on_c, 0, 73, 75
1, 100327, Control_c, 0, 64, 51
1, 100342, Control_c, 0, 64, 50
1, 100357, Control_c, 0, 64, 49
1, 100363, Note_off_c, 0, 73, 63
1, 100368, Note_on_c, 0, 71, 74
1, 100372, Control_c, 0, 64, 49
1, 100387, Control_c, 0, 64, 48
1, 100411, Note_off_c, 0, 71, 58
1, 100456, Note_on_c, 0, 74, 75
1, 100480, Note_off_c, 0, 74, 69
1, 100483, Control_c, 0, 64, 48
1, 100512, Control_c, 0, 64, 45
1, 100522, Note_on_c, 0, 73, 100
1, 100526, Note_on_c, 0, 45, 91
1, 100527, Control_c, 0, 64, 0
1, 100577, Note_off_c, 0, 45, 63
1, 100578, Note_off_c, 0, 73, 65
1, 100593, Note_on_c, 0, 69, 76
1, 100621, Note_off_c, 0, 69, 65
1, 100669, Note_on_c, 0, 57, 83
1, 100670, Note_on_c, 0, 74, 75
1, 100693, Note_off_c, 0, 57, 67
1, 100728, Note_off_c, 0, 74, 63
1, 100737, Note_on_c, 0, 71, 78
1, 100792, Note_off_c, 0, 71, 60
1, 100833, Note_on_c, 0, 76, 85
1, 100837, Note_on_c, 0, 81, 88
1, 100854, Note_off_c, 0, 81, 76
1, 101046, Note_on_c, 0, 40, 63
1, 101050, Note_on_c, 0, 66, 83
1, 101066, Note_on_c, 0, 64, 85
1, 101102, Note_off_c, 0, 66, 66
1, 101106, Control_c, 0, 64, 32
1, 101121, Control_c, 0, 64, 44
1, 101136, Control_c, 0, 64, 51
1, 101159, Control_c, 0, 64, 55
1, 101174, Control_c, 0, 64, 56
1, 101188, Control_c, 0, 64, 56
1, 101218, Control_c, 0, 64, 56
1, 101225, Note_off_c, 0, 64, 54
1, 101233, Note_on_c, 0, 74, 79
1, 101247, Control_c, 0, 64, 55
1, 101253, Note_off_c, 0, 40, 60
1, 101257, Note_off_c, 0, 76, 60
1, 101292, Control_c, 0, 64, 55
1, 101307, Control_c, 0, 64, 54
1, 101308, Note_on_c, 0, 73, 82
1, 101317, Note_off_c, 0, 74, 61
1, 101321, Control_c, 0, 64, 54
1, 101336, Control_c, 0, 64, 53
1, 101351, Control_c, 0, 64, 51
1, 101366, Control_c, 0, 64, 50
1, 101370, Note_off_c, 0, 73, 64
1, 101377, Note_on_c, 0, 71, 75
1, 101381, Control_c, 0, 64, 49
1, 101395, Control_c, 0, 64, 49
1, 101409, Note_off_c, 0, 71, 59
1, 101410, Control_c, 0, 64, 48
1, 101452, Note_on_c, 0, 74, 79
1, 101469, Control_c, 0, 64, 48
1, 101478, Note_off_c, 0, 74, 66
1, 101484, Control_c, 0, 64, 49
1, 101499, Control_c, 0, 64, 50
1, 101522, Note_on_c, 0, 45, 85
1, 101523, Note_on_c, 0, 73, 101
1, 101529, Control_c, 0, 64, 46
1, 101543, Control_c, 0, 64, 14
1, 101558, Control_c, 0, 64, 0
1, 101568, Note_off_c, 0, 45, 61
1, 101579, Note_off_c, 0, 73, 65
1, 101597, Note_on_c, 0, 69, 81
1, 101629, Note_off_c, 0, 69, 62
1, 101670, Note_on_c, 0, 74, 88
1, 101672, Note_on_c, 0, 57, 77
1, 101700, Note_off_c, 0, 57, 65
1, 101742, Note_off_c, 0, 74, 63
1, 101743, Note_on_c, 0, 71, 80
1, 101806, Note_off_c, 0, 71, 62
1, 101842, Note_on_c, 0, 76, 86
1, 101845, Note_on_c, 0, 81, 83
1, 101864, Note_off_c, 0, 81, 74
1, 102055, Note_on_c, 0, 40, 75
1, 102064, Note_on_c, 0, 66, 87
1, 102080, Note_on_c, 0, 64, 84
1, 102117, Note_off_c, 0, 66, 67
1, 102129, Control_c, 0, 64, 20
1, 102144, Control_c, 0, 64, 32
1, 102159, Control_c, 0, 64, 41
1, 102174, Control_c, 0, 64, 49
1, 102189, Control_c, 0, 64, 53
1, 102203, Control_c, 0, 64, 54
1, 102223, Note_off_c, 0, 64, 51
1, 102238, Note_on_c, 0, 74, 76
1, 102244, Note_off_c, 0, 40, 59
1, 102248, Control_c, 0, 64, 55
1, 102250, Note_off_c, 0, 76, 60
1, 102316, Note_off_c, 0, 74, 61
1, 102320, Note_on_c, 0, 73, 66
1, 102336, Control_c, 0, 64, 54
1, 102351, Control_c, 0, 64, 53
1, 102366, Note_off_c, 0, 73, 63
1, 102366, Control_c, 0, 64, 51
1, 102374, Note_on_c, 0, 71, 74
1, 102381, Control_c, 0, 64, 50
1, 102396, Control_c, 0, 64, 49
1, 102410, Note_off_c, 0, 71, 61
1, 102411, Control_c, 0, 64, 47
1, 102426, Control_c, 0, 64, 45
1, 102441, Control_c, 0, 64, 42
1, 102455, Control_c, 0, 64, 40
1, 102462, Note_on_c, 0, 74, 68
1, 102470, Control_c, 0, 64, 35
1, 102485, Control_c, 0, 64, 26
1, 102494, Note_off_c, 0, 74, 63
1, 102500, Control_c, 0, 64, 0
1, 102530, Note_on_c, 0, 45, 63
1, 102541, Note_on_c, 0, 73, 78
1, 102567, Note_off_c, 0, 45, 63
1, 102582, Note_off_c, 0, 73, 60
1, 102605, Note_on_c, 0, 69, 79
1, 102644, Note_off_c, 0, 69, 59
1, 102688, Note_on_c, 0, 73, 88
1, 102697, Note_on_c, 0, 57, 72
1, 102727, Note_off_c, 0, 57, 66
1, 102727, Note_off_c, 0, 73, 65
1, 102769, Note_on_c, 0, 76, 79
1, 102839, Note_on_c, 0, 81, 84
1, 102844, Note_off_c, 0, 76, 61
1, 102854, Note_on_c, 0, 49, 66
1, 102888, Note_off_c, 0, 49, 65
1, 102914, Note_on_c, 0, 78, 88
1, 102931, Note_off_c, 0, 81, 64
1, 102961, Note_off_c, 0, 78, 67
1, 102995, Note_on_c, 0, 76, 101
1, 103001, Note_on_c, 0, 50, 86
1, 103034, Note_off_c, 0, 50, 68
1, 103045, Note_off_c, 0, 76, 62
1, 103070, Note_on_c, 0, 74, 82
1, 103134, Note_off_c, 0, 74, 56
1, 103138, Note_on_c, 0, 73, 82
1, 103141, Note_on_c, 0, 52, 71
1, 103168, Note_off_c, 0, 52, 66
1, 103217, Note_off_c, 0, 73, 62
1, 103221, Note_on_c, 0, 71, 66
1, 103249, Note_off_c, 0, 71, 66
1, 103286, Note_on_c, 0, 69, 66
1, 103299, Note_on_c, 0, 40, 52
1, 103327, Note_off_c, 0, 69, 64
1, 103351, Note_off_c, 0, 40, 56
1, 103368, Note_on_c, 0, 68, 58
1, 103407, Note_off_c, 0, 68, 67
1, 103433, Control_c, 0, 67, 8
1, 103448, Control_c, 0, 67, 10
1, 103460, Note_on_c, 0, 45, 48
1, 103462, Note_on_c, 0, 69, 71
1, 103463, Control_c, 0, 67, 13
1, 103478, Control_c, 0, 67, 16
1, 103488, Note_off_c, 0, 69, 70
1, 103489, Note_off_c, 0, 45, 55
1, 103493, Control_c, 0, 67, 22
1, 103508, Control_c, 0, 67, 28
1, 103523, Control_c, 0, 67, 36
1, 103538, Control_c, 0, 67, 42
1, 103553, Control_c, 0, 67, 47
1, 103567, Control_c, 0, 67, 49
1, 103582, Control_c, 0, 67, 50
1, 103597, Control_c, 0, 67, 51
1, 103612, Control_c, 0, 67, 51
1, 103621, Note_on_c, 0, 73, 66
1, 103624, Note_on_c, 0, 57, 48
1, 103653, Note_off_c, 0, 57, 55
1, 103666, Note_off_c, 0, 73, 55
1, 103796, Note_on_c, 0, 76, 59
1, 103802, Note_on_c, 0, 81, 69
1, 103818, Note_off_c, 0, 81, 69
1, 103819, Control_c, 0, 67, 52
1, 103834, Control_c, 0, 67, 52
1, 103849, Control_c, 0, 67, 53
1, 103864, Control_c, 0, 67, 55
1, 103879, Control_c, 0, 67, 56
1, 103894, Control_c, 0, 67, 57
1, 103908, Control_c, 0, 67, 58
1, 103923, Control_c, 0, 67, 60
1, 103938, Control_c, 0, 67, 64
1, 103953, Control_c, 0, 67, 69
1, 103968, Control_c, 0, 67, 75
1, 103982, Control_c, 0, 67, 82
1, 103997, Control_c, 0, 67, 87
1, 104012, Control_c, 0, 67, 91
1, 104027, Control_c, 0, 67, 95
1, 104035, Note_on_c, 0, 66, 59
1, 104041, Note_on_c, 0, 40, 52
1, 104041, Control_c, 0, 67, 98
1, 104056, Control_c, 0, 67, 100
1, 104058, Note_on_c, 0, 64, 52
1, 104072, Control_c, 0, 67, 101
1, 104080, Note_off_c, 0, 66, 63
1, 104087, Control_c, 0, 67, 102
1, 104214, Note_off_c, 0, 40, 58
1, 104217, Note_off_c, 0, 64, 41
1, 104220, Note_off_c, 0, 76, 56
1, 104226, Note_on_c, 0, 74, 58
1, 104278, Note_off_c, 0, 74, 58
1, 104295, Note_on_c, 0, 73, 63
1, 104351, Note_off_c, 0, 73, 61
1, 104379, Note_on_c, 0, 71, 55
1, 104419, Note_off_c, 0, 71, 64
1, 104435, Control_c, 0, 67, 101
1, 104445, Note_on_c, 0, 74, 59
1, 104450, Control_c, 0, 67, 100
1, 104465, Control_c, 0, 67, 100
1, 104478, Note_off_c, 0, 74, 63
1, 104480, Control_c, 0, 67, 99
1, 104495, Control_c, 0, 67, 97
1, 104509, Control_c, 0, 67, 95
1, 104518, Note_on_c, 0, 45, 57
1, 104520, Note_on_c, 0, 73, 68
1, 104524, Control_c, 0, 67, 93
1, 104539, Control_c, 0, 67, 91
1, 104549, Note_off_c, 0, 45, 63
1, 104552, Note_off_c, 0, 73, 63
1, 104554, Control_c, 0, 67, 87
1, 104569, Control_c, 0, 67, 81
1, 104584, Control_c, 0, 67, 71
1, 104585, Note_on_c, 0, 69, 53
1, 104598, Control_c, 0, 67, 55
1, 104613, Note_off_c, 0, 69, 64
1, 104613, Control_c, 0, 67, 37
1, 104628, Control_c, 0, 67, 23
1, 104643, Control_c, 0, 67, 14
1, 104655, Note_on_c, 0, 74, 68
1, 104657, Control_c, 0, 67, 10
1, 104665, Note_on_c, 0, 57, 59
1, 104672, Control_c, 0, 67, 9
1, 104688, Note_off_c, 0, 57, 60
1, 104721, Note_off_c, 0, 74, 58
1, 104730, Note_on_c, 0, 71, 58
1, 104775, Control_c, 0, 67, 11
1, 104778, Note_off_c, 0, 71, 55
1, 104790, Control_c, 0, 67, 11
1, 104805, Control_c, 0, 67, 13
1, 104820, Control_c, 0, 67, 15
1, 104835, Control_c, 0, 67, 17
1, 104836, Note_on_c, 0, 81, 66
1, 104846, Note_on_c, 0, 76, 56
1, 104849, Control_c, 0, 67, 19
1, 104852, Note_off_c, 0, 81, 68
1, 104864, Control_c, 0, 67, 24
1, 104880, Control_c, 0, 67, 33
1, 104903, Control_c, 0, 67, 48
1, 104918, Control_c, 0, 67, 65
1, 104933, Control_c, 0, 67, 78
1, 104948, Control_c, 0, 67, 87
1, 104962, Control_c, 0, 67, 92
1, 104977, Control_c, 0, 67, 97
1, 104992, Control_c, 0, 67, 102
1, 105007, Control_c, 0, 67, 105
1, 105022, Control_c, 0, 67, 107
1, 105036, Control_c, 0, 67, 108
1, 105073, Note_on_c, 0, 40, 51
1, 105089, Note_on_c, 0, 66, 57
1, 105095, Control_c, 0, 67, 108
1, 105109, Note_on_c, 0, 64, 57
1, 105125, Note_off_c, 0, 66, 65
1, 105232, Note_off_c, 0, 40, 60
1, 105251, Note_off_c, 0, 76, 57
1, 105258, Note_off_c, 0, 64, 58
1, 105264, Note_on_c, 0, 74, 59
1, 105322, Note_off_c, 0, 74, 59
1, 105329, Note_on_c, 0, 73, 67
1, 105347, Control_c, 0, 67, 108
1, 105386, Note_off_c, 0, 73, 61
1, 105413, Note_on_c, 0, 71, 55
1, 105436, Control_c, 0, 67, 107
1, 105459, Note_off_c, 0, 71, 61
1, 105480, Control_c, 0, 67, 107
1, 105483, Note_on_c, 0, 74, 64
1, 105523, Note_off_c, 0, 74, 54
1, 105540, Control_c, 0, 67, 106
1, 105550, Note_on_c, 0, 73, 64
1, 105558, Note_on_c, 0, 45, 52
1, 105588, Note_off_c, 0, 45, 62
1, 105591, Note_off_c, 0, 73, 59
1, 105614, Note_on_c, 0, 69, 59
1, 105673, Note_off_c, 0, 69, 60
1, 105681, Control_c, 0, 67, 106
1, 105703, Note_on_c, 0, 74, 56
1, 105711, Control_c, 0, 67, 105
1, 105714, Note_on_c, 0, 57, 58
1, 105738, Note_off_c, 0, 57, 58
1, 105741, Control_c, 0, 67, 105
1, 105755, Control_c, 0, 67, 104
1, 105770, Note_on_c, 0, 71, 59
1, 105785, Note_off_c, 0, 74, 51
1, 105846, Note_off_c, 0, 71, 54
1, 105884, Note_on_c, 0, 81, 71
1, 105885, Note_on_c, 0, 76, 60
1, 105901, Note_off_c, 0, 81, 69
1, 105903, Control_c, 0, 67, 105
1, 105918, Control_c, 0, 67, 106
1, 105933, Control_c, 0, 67, 107
1, 105992, Control_c, 0, 67, 107
1, 106140, Note_on_c, 0, 40, 43
1, 106143, Note_on_c, 0, 66, 59
1, 106170, Note_on_c, 0, 64, 50
1, 106187, Note_off_c, 0, 66, 64
1, 106200, Control_c, 0, 67, 107
1, 106229, Control_c, 0, 67, 106
1, 106244, Control_c, 0, 64, 26
1, 106244, Control_c, 0, 67, 105
1, 106259, Control_c, 0, 64, 34
1, 106274, Control_c, 0, 64, 38
1, 106289, Control_c, 0, 64, 41
1, 106303, Control_c, 0, 64, 43
1, 106318, Control_c, 0, 64, 45
1, 106321, Note_on_c, 0, 74, 58
1, 106321, Note_off_c, 0, 76, 54
1, 106327, Note_off_c, 0, 40, 60
1, 106333, Control_c, 0, 64, 47
1, 106342, Note_off_c, 0, 64, 54
1, 106348, Control_c, 0, 64, 48
1, 106392, Control_c, 0, 67, 105
1, 106393, Note_off_c, 0, 74, 61
1, 106393, Note_on_c, 0, 73, 68
1, 106429, Control_c, 0, 64, 47
1, 106429, Control_c, 0, 67, 104
1, 106444, Control_c, 0, 64, 47
1, 106461, Note_off_c, 0, 73, 60
1, 106474, Control_c, 0, 64, 46
1, 106489, Control_c, 0, 64, 45
1, 106489, Control_c, 0, 67, 104
1, 106490, Note_on_c, 0, 71, 59
1, 106504, Control_c, 0, 64, 45
1, 106504, Control_c, 0, 67, 103
1, 106519, Control_c, 0, 64, 44
1, 106532, Note_off_c, 0, 71, 60
1, 106533, Control_c, 0, 64, 41
1, 106533, Control_c, 0, 67, 103
1, 106548, Control_c, 0, 64, 38
1, 106548, Control_c, 0, 67, 102
1, 106563, Control_c, 0, 64, 33
1, 106563, Control_c, 0, 67, 101
1, 106572, Note_on_c, 0, 74, 52
1, 106578, Control_c, 0, 64, 25
1, 106578, Control_c, 0, 67, 101
1, 106593, Control_c, 0, 64, 0
1, 106608, Control_c, 0, 67, 100
1, 106611, Note_off_c, 0, 74, 65
1, 106624, Note_on_c, 0, 73, 62
1, 106626, Note_on_c, 0, 45, 54
1, 106657, Note_off_c, 0, 73, 64
1, 106663, Note_off_c, 0, 45, 62
1, 106700, Note_on_c, 0, 69, 56
1, 106740, Note_off_c, 0, 69, 49
1, 106775, Note_on_c, 0, 73, 71
1, 106781, Note_on_c, 0, 57, 62
1, 106802, Note_off_c, 0, 57, 62
1, 106805, Note_off_c, 0, 73, 62
1, 106815, Control_c, 0, 67, 100
1, 106829, Control_c, 0, 67, 99
1, 106843, Control_c, 0, 67, 98
1, 106852, Note_on_c, 0, 76, 71
1, 106858, Control_c, 0, 67, 96
1, 106873, Control_c, 0, 67, 93
1, 106888, Control_c, 0, 67, 90
1, 106888, Note_off_c, 0, 76, 55
1, 106903, Control_c, 0, 67, 85
1, 106917, Control_c, 0, 67, 79
1, 106926, Note_on_c, 0, 49, 61
1, 106927, Note_on_c, 0, 81, 73
1, 106932, Control_c, 0, 67, 71
1, 106947, Control_c, 0, 67, 64
1, 106962, Control_c, 0, 67, 56
1, 106966, Note_off_c, 0, 49, 63
1, 106976, Control_c, 0, 67, 50
1, 106991, Control_c, 0, 67, 44
1, 107004, Note_on_c, 0, 78, 69
1, 107006, Note_off_c, 0, 81, 64
1, 107006, Control_c, 0, 67, 40
1, 107021, Control_c, 0, 67, 36
1, 107036, Control_c, 0, 67, 35
1, 107050, Control_c, 0, 67, 34
1, 107059, Note_off_c, 0, 78, 58
1, 107065, Control_c, 0, 67, 34
1, 107075, Note_on_c, 0, 76, 73
1, 107080, Control_c, 0, 67, 33
1, 107086, Note_on_c, 0, 50, 54
1, 107095, Control_c, 0, 67, 31
1, 107110, Control_c, 0, 67, 30
1, 107115, Note_off_c, 0, 50, 65
1, 107119, Note_off_c, 0, 76, 62
1, 107124, Control_c, 0, 67, 28
1, 107139, Control_c, 0, 67, 28
1, 107160, Note_on_c, 0, 74, 65
1, 107162, Control_c, 0, 67, 27
1, 107176, Control_c, 0, 67, 27
1, 107191, Control_c, 0, 67, 26
1, 107206, Control_c, 0, 67, 26
1, 107210, Note_off_c, 0, 74, 47
1, 107221, Control_c, 0, 67, 25
1, 107227, Note_on_c, 0, 73, 72
1, 107231, Note_on_c, 0, 52, 44
1, 107236, Control_c, 0, 67, 24
1, 107250, Control_c, 0, 67, 23
1, 107260, Note_off_c, 0, 52, 55
1, 107265, Control_c, 0, 67, 22
1, 107281, Control_c, 0, 67, 20
1, 107296, Control_c, 0, 67, 19
1, 107310, Note_off_c, 0, 73, 60
1, 107311, Control_c, 0, 67, 18
1, 107322, Note_on_c, 0, 71, 55
1, 107326, Control_c, 0, 67, 18
1, 107341, Control_c, 0, 67, 17
1, 107342, Note_off_c, 0, 71, 62
1, 107370, Control_c, 0, 67, 17
1, 107380, Note_on_c, 0, 40, 50
1, 107385, Note_on_c, 0, 69, 50
1, 107385, Control_c, 0, 67, 16
1, 107399, Control_c, 0, 67, 15
1, 107414, Control_c, 0, 67, 14
1, 107419, Note_off_c, 0, 40, 54
1, 107422, Note_off_c, 0, 69, 54
1, 107429, Control_c, 0, 67, 13
1, 107444, Control_c, 0, 67, 13
1, 107456, Note_on_c, 0, 68, 58
1, 107459, Control_c, 0, 67, 12
1, 107473, Control_c, 0, 67, 12
1, 107488, Control_c, 0, 67, 11
1, 107496, Note_off_c, 0, 68, 61
1, 107503, Control_c, 0, 67, 9
1, 107518, Control_c, 0, 67, 0
1, 107545, Note_on_c, 0, 69, 50
1, 107547, Control_c, 0, 64, 21
1, 107559, Note_on_c, 0, 45, 32
1, 107562, Control_c, 0, 64, 44
1, 107578, Control_c, 0, 64, 56
1, 107589, Note_off_c, 0, 69, 62
1, 107592, Control_c, 0, 64, 61
1, 107597, Note_off_c, 0, 45, 51
1, 107607, Control_c, 0, 64, 63
1, 107622, Control_c, 0, 64, 64
1, 107637, Control_c, 0, 64, 66
1, 107652, Control_c, 0, 64, 69
1, 107666, Control_c, 0, 64, 72
1, 107681, Control_c, 0, 64, 75
1, 107696, Control_c, 0, 64, 76
1, 107711, Control_c, 0, 64, 77
1, 107735, Note_on_c, 0, 84, 58
1, 107747, Note_on_c, 0, 72, 49
1, 107751, Note_on_c, 0, 69, 34
1, 107771, Control_c, 0, 64, 76
1, 107785, Control_c, 0, 64, 76
1, 107800, Control_c, 0, 64, 75
1, 107815, Control_c, 0, 64, 73
1, 107830, Control_c, 0, 64, 72
1, 107845, Control_c, 0, 64, 69
1, 107860, Control_c, 0, 64, 67
1, 107874, Control_c, 0, 64, 64
1, 107896, Control_c, 0, 64, 61
1, 107911, Control_c, 0, 64, 57
1, 107919, Note_on_c, 0, 67, 60
1, 107926, Control_c, 0, 64, 52
1, 107941, Note_off_c, 0, 69, 42
1, 107941, Control_c, 0, 64, 45
1, 107955, Control_c, 0, 64, 38
1, 107970, Control_c, 0, 64, 38
1, 107985, Control_c, 0, 64, 40
1, 108000, Control_c, 0, 64, 41
1, 108015, Control_c, 0, 64, 44
1, 108030, Control_c, 0, 64, 47
1, 108045, Control_c, 0, 64, 50
1, 108060, Control_c, 0, 64, 55
1, 108075, Control_c, 0, 64, 58
1, 108082, Note_on_c, 0, 65, 64
1, 108090, Control_c, 0, 64, 61
1, 108093, Note_off_c, 0, 67, 58
1, 108104, Control_c, 0, 64, 63
1, 108119, Note_off_c, 0, 84, 64
1, 108119, Control_c, 0, 64, 65
1, 108134, Control_c, 0, 64, 67
1, 108140, Note_off_c, 0, 72, 61
1, 108149, Control_c, 0, 64, 69
1, 108164, Control_c, 0, 64, 71
1, 108179, Control_c, 0, 64, 71
1, 108194, Control_c, 0, 64, 72
1, 108242, Note_on_c, 0, 69, 65
1, 108242, Note_on_c, 0, 84, 66
1, 108249, Note_off_c, 0, 65, 62
1, 108252, Note_on_c, 0, 72, 56
1, 108253, Control_c, 0, 64, 71
1, 108268, Control_c, 0, 64, 70
1, 108283, Control_c, 0, 64, 68
1, 108297, Control_c, 0, 64, 64
1, 108312, Control_c, 0, 64, 59
1, 108327, Control_c, 0, 64, 54
1, 108342, Control_c, 0, 64, 52
1, 108357, Control_c, 0, 64, 54
1, 108371, Control_c, 0, 64, 55
1, 108386, Control_c, 0, 64, 57
1, 108400, Note_on_c, 0, 64, 68
1, 108401, Control_c, 0, 64, 59
1, 108404, Note_off_c, 0, 69, 57
1, 108415, Control_c, 0, 64, 59
1, 108445, Control_c, 0, 64, 59
1, 108460, Control_c, 0, 64, 58
1, 108475, Control_c, 0, 64, 58
1, 108481, Note_off_c, 0, 64, 63
1, 108489, Control_c, 0, 64, 56
1, 108504, Control_c, 0, 64, 55
1, 108519, Control_c, 0, 64, 52
1, 108534, Control_c, 0, 64, 47
1, 108539, Note_off_c, 0, 72, 38
1, 108549, Control_c, 0, 64, 41
1, 108563, Control_c, 0, 64, 33
1, 108564, Note_on_c, 0, 62, 77
1, 108578, Control_c, 0, 64, 22
1, 108593, Control_c, 0, 64, 0
1, 108720, Note_off_c, 0, 84, 58
1, 108725, Note_on_c, 0, 86, 76
1, 108737, Note_on_c, 0, 74, 58
1, 108748, Note_off_c, 0, 86, 70
1, 108757, Note_off_c, 0, 74, 64
1, 108766, Note_off_c, 0, 62, 60
1, 108882, Note_on_c, 0, 65, 67
1, 108889, Note_on_c, 0, 71, 74
1, 108889, Note_on_c, 0, 83, 75
1, 108905, Note_off_c, 0, 83, 68
1, 108913, Note_off_c, 0, 65, 65
1, 108915, Note_off_c, 0, 71, 67
1, 109046, Note_on_c, 0, 69, 72
1, 109046, Note_on_c, 0, 81, 70
1, 109047, Note_on_c, 0, 64, 75
1, 109118, Note_off_c, 0, 69, 60
1, 109136, Note_off_c, 0, 81, 61
1, 109165, Control_c, 0, 64, 38
1, 109180, Control_c, 0, 64, 53
1, 109194, Control_c, 0, 64, 59
1, 109209, Note_on_c, 0, 81, 66
1, 109209, Control_c, 0, 64, 61
1, 109213, Note_on_c, 0, 69, 67
1, 109224, Control_c, 0, 64, 62
1, 109231, Note_off_c, 0, 69, 66
1, 109234, Note_off_c, 0, 81, 64
1, 109237, Note_off_c, 0, 64, 63
1, 109238, Control_c, 0, 64, 62
1, 109268, Control_c, 0, 64, 61
1, 109283, Control_c, 0, 64, 59
1, 109298, Control_c, 0, 64, 53
1, 109312, Control_c, 0, 64, 41
1, 109327, Control_c, 0, 64, 0
1, 109359, Note_on_c, 0, 68, 72
1, 109360, Note_on_c, 0, 52, 67
1, 109360, Note_on_c, 0, 80, 69
1, 109394, Note_off_c, 0, 68, 67
1, 109402, Note_off_c, 0, 52, 62
1, 109421, Note_off_c, 0, 80, 61
1, 109521, Note_on_c, 0, 57, 76
1, 109523, Note_on_c, 0, 69, 71
1, 109523, Note_on_c, 0, 81, 78
1, 109539, Note_off_c, 0, 69, 69
1, 109545, Note_off_c, 0, 81, 69
1, 109546, Note_off_c, 0, 57, 67
1, 109696, Note_on_c, 0, 85, 76
1, 109702, Note_on_c, 0, 69, 69
1, 109703, Note_on_c, 0, 73, 68
1, 109856, Note_on_c, 0, 68, 77
1, 109875, Note_off_c, 0, 69, 59
1, 110005, Note_off_c, 0, 73, 43
1, 110010, Note_on_c, 0, 66, 85
1, 110033, Note_off_c, 0, 85, 63
1, 110041, Note_off_c, 0, 68, 64
1, 110176, Note_on_c, 0, 69, 78
1, 110176, Note_on_c, 0, 85, 74
1, 110183, Note_on_c, 0, 73, 70
1, 110199, Note_off_c, 0, 66, 63
1, 110289, Note_off_c, 0, 69, 64
1, 110329, Note_on_c, 0, 64, 81
1, 110370, Note_off_c, 0, 64, 65
1, 110492, Note_on_c, 0, 62, 84
1, 110513, Note_off_c, 0, 73, 36
1, 110549, Note_off_c, 0, 85, 62
1, 110635, Note_off_c, 0, 62, 62
1, 110644, Note_on_c, 0, 86, 90
1, 110648, Note_on_c, 0, 74, 80
1, 110664, Note_off_c, 0, 86, 69
1, 110670, Note_off_c, 0, 74, 71
1, 110799, Note_on_c, 0, 66, 84
1, 110808, Note_on_c, 0, 71, 85
1, 110808, Note_on_c, 0, 83, 77
1, 110822, Note_off_c, 0, 83, 70
1, 110829, Note_off_c, 0, 71, 68
1, 110834, Note_on_c, 0, 81, 43
1, 110835, Note_off_c, 0, 81, 127
1, 110836, Note_off_c, 0, 66, 66
1, 110965, Note_on_c, 0, 81, 82
1, 110967, Note_on_c, 0, 64, 78
1, 110967, Note_on_c, 0, 69, 84
1, 111036, Note_off_c, 0, 69, 62
1, 111045, Note_off_c, 0, 81, 63
1, 111070, Control_c, 0, 64, 18
1, 111085, Control_c, 0, 64, 36
1, 111088, Note_off_c, 0, 64, 62
1, 111099, Control_c, 0, 64, 45
1, 111114, Control_c, 0, 64, 49
1, 111120, Note_on_c, 0, 69, 83
1, 111120, Note_on_c, 0, 81, 83
1, 111129, Control_c, 0, 64, 53
1, 111143, Control_c, 0, 64, 56
1, 111147, Note_off_c, 0, 69, 65
1, 111157, Note_off_c, 0, 81, 65
1, 111158, Control_c, 0, 64, 58
1, 111173, Control_c, 0, 64, 59
1, 111188, Control_c, 0, 64, 61
1, 111203, Control_c, 0, 64, 62
1, 111217, Control_c, 0, 64, 62
1, 111232, Control_c, 0, 64, 63
1, 111266, Note_on_c, 0, 52, 51
1, 111274, Note_on_c, 0, 68, 78
1, 111274, Note_on_c, 0, 80, 81
1, 111291, Note_off_c, 0, 52, 58
1, 111325, Note_off_c, 0, 68, 63
1, 111352, Control_c, 0, 64, 62
1, 111354, Note_off_c, 0, 80, 62
1, 111382, Control_c, 0, 64, 62
1, 111396, Control_c, 0, 64, 61
1, 111411, Control_c, 0, 64, 60
1, 111423, Note_on_c, 0, 45, 67
1, 111426, Control_c, 0, 64, 55
1, 111427, Note_on_c, 0, 81, 89
1, 111430, Note_on_c, 0, 69, 86
1, 111440, Control_c, 0, 64, 24
1, 111443, Note_off_c, 0, 81, 74
1, 111449, Note_off_c, 0, 69, 73
1, 111452, Note_off_c, 0, 45, 65
1, 111455, Control_c, 0, 64, 0
1, 111577, Note_on_c, 0, 57, 65
1, 111592, Note_on_c, 0, 64, 64
1, 111598, Note_on_c, 0, 76, 57
1, 111609, Note_off_c, 0, 57, 65
1, 111612, Note_off_c, 0, 64, 65
1, 111624, Note_off_c, 0, 76, 39
1, 111739, Note_on_c, 0, 49, 62
1, 111743, Note_on_c, 0, 61, 69
1, 111743, Note_on_c, 0, 73, 75
1, 111765, Note_off_c, 0, 73, 70
1, 111771, Note_off_c, 0, 49, 64
1, 111771, Note_off_c, 0, 61, 66
1, 111888, Note_on_c, 0, 57, 64
1, 111893, Note_on_c, 0, 66, 78
1, 111894, Note_on_c, 0, 78, 76
1, 111896, Note_on_c, 0, 50, 60
1, 111915, Note_off_c, 0, 66, 70
1, 111916, Note_off_c, 0, 78, 72
1, 111928, Note_off_c, 0, 50, 69
1, 112041, Note_on_c, 0, 74, 73
1, 112044, Note_on_c, 0, 62, 64
1, 112046, Note_on_c, 0, 47, 48
1, 112064, Note_off_c, 0, 62, 63
1, 112065, Note_off_c, 0, 74, 66
1, 112076, Note_off_c, 0, 47, 55
1, 112184, Note_on_c, 0, 68, 80
1, 112186, Note_on_c, 0, 80, 76
1, 112193, Note_on_c, 0, 52, 54
1, 112226, Note_off_c, 0, 52, 65
1, 112241, Note_off_c, 0, 68, 57
1, 112280, Note_off_c, 0, 80, 61
1, 112338, Note_on_c, 0, 49, 68
1, 112343, Note_on_c, 0, 81, 81
1, 112345, Note_on_c, 0, 69, 75
1, 112363, Note_off_c, 0, 81, 73
1, 112367, Note_off_c, 0, 49, 65
1, 112370, Note_off_c, 0, 69, 66
1, 112495, Note_on_c, 0, 45, 67
1, 112495, Note_on_c, 0, 76, 86
1, 112497, Note_on_c, 0, 64, 76
1, 112513, Note_off_c, 0, 76, 68
1, 112523, Note_off_c, 0, 64, 70
1, 112526, Note_off_c, 0, 45, 65
1, 112643, Note_on_c, 0, 49, 73
1, 112644, Note_on_c, 0, 61, 79
1, 112644, Note_on_c, 0, 73, 88
1, 112665, Note_off_c, 0, 61, 69
1, 112670, Note_off_c, 0, 73, 61
1, 112677, Note_off_c, 0, 49, 64
1, 112797, Note_on_c, 0, 50, 83
1, 112797, Note_on_c, 0, 78, 88
1, 112799, Note_on_c, 0, 66, 93
1, 112823, Note_off_c, 0, 78, 64
1, 112829, Note_off_c, 0, 66, 62
1, 112835, Note_off_c, 0, 50, 68
1, 112949, Note_on_c, 0, 47, 72
1, 112951, Note_on_c, 0, 74, 93
1, 112954, Note_on_c, 0, 62, 82
1, 112969, Note_off_c, 0, 74, 73
1, 112969, Note_off_c, 0, 62, 69
1, 112976, Note_off_c, 0, 47, 66
1, 113094, Note_on_c, 0, 68, 93
1, 113095, Note_on_c, 0, 80, 90
1, 113097, Note_on_c, 0, 52, 81
1, 113150, Note_off_c, 0, 68, 63
1, 113161, Note_off_c, 0, 52, 61
1, 113194, Note_off_c, 0, 80, 63
1, 113255, Note_on_c, 0, 49, 84
1, 113256, Note_on_c, 0, 69, 96
1, 113256, Note_on_c, 0, 81, 102
1, 113275, Note_off_c, 0, 81, 67
1, 113280, Note_off_c, 0, 69, 69
1, 113290, Note_off_c, 0, 49, 64
1, 113404, Note_on_c, 0, 45, 81
1, 113405, Note_on_c, 0, 76, 97
1, 113407, Note_on_c, 0, 64, 90
1, 113422, Note_off_c, 0, 76, 73
1, 113426, Note_off_c, 0, 64, 72
1, 113434, Note_off_c, 0, 45, 67
1, 113554, Note_on_c, 0, 49, 82
1, 113556, Note_on_c, 0, 61, 91
1, 113556, Note_on_c, 0, 73, 93
1, 113576, Note_off_c, 0, 61, 69
1, 113591, Note_off_c, 0, 73, 61
1, 113596, Note_off_c, 0, 49, 61
1, 113708, Note_on_c, 0, 50, 93
1, 113713, Note_on_c, 0, 66, 104
1, 113713, Note_on_c, 0, 78, 99
1, 113741, Note_off_c, 0, 78, 67
1, 113748, Note_off_c, 0, 66, 64
1, 113756, Note_off_c, 0, 50, 67
1, 113855, Note_on_c, 0, 47, 86
1, 113861, Note_on_c, 0, 74, 93
1, 113865, Note_on_c, 0, 62, 75
1, 113887, Note_off_c, 0, 74, 72
1, 113889, Note_off_c, 0, 62, 65
1, 113905, Note_off_c, 0, 47, 63
1, 114010, Note_on_c, 0, 52, 81
1, 114014, Note_on_c, 0, 68, 98
1, 114015, Note_on_c, 0, 80, 94
1, 114051, Note_off_c, 0, 68, 63
1, 114071, Note_off_c, 0, 80, 63
1, 114106, Note_off_c, 0, 57, 40
1, 114114, Note_off_c, 0, 52, 59
1, 114158, Note_on_c, 0, 49, 83
1, 114165, Note_on_c, 0, 69, 92
1, 114165, Note_on_c, 0, 81, 95
1, 114179, Note_off_c, 0, 81, 77
1, 114183, Note_off_c, 0, 69, 72
1, 114207, Note_off_c, 0, 49, 64
1, 114312, Note_on_c, 0, 73, 102
1, 114317, Note_on_c, 0, 45, 86
1, 114318, Note_on_c, 0, 76, 83
1, 114340, Note_off_c, 0, 76, 70
1, 114356, Note_off_c, 0, 73, 66
1, 114358, Note_off_c, 0, 45, 64
1, 114463, Note_on_c, 0, 50, 97
1, 114463, Note_on_c, 0, 74, 87
1, 114466, Note_on_c, 0, 66, 87
1, 114494, Note_off_c, 0, 50, 70
1, 114499, Note_off_c, 0, 66, 62
1, 114501, Note_off_c, 0, 74, 67
1, 114616, Note_on_c, 0, 52, 93
1, 114621, Note_on_c, 0, 64, 91
1, 114621, Note_on_c, 0, 73, 96
1, 114659, Note_off_c, 0, 64, 63
1, 114678, Note_off_c, 0, 73, 64
1, 114690, Note_off_c, 0, 52, 62
1, 114774, Note_on_c, 0, 64, 87
1, 114774, Note_on_c, 0, 73, 92
1, 114805, Note_off_c, 0, 64, 65
1, 114819, Note_off_c, 0, 73, 61
1, 114914, Note_on_c, 0, 40, 80
1, 114923, Note_on_c, 0, 71, 81
1, 114925, Note_on_c, 0, 62, 78
1, 114946, Note_off_c, 0, 71, 67
1, 114951, Note_off_c, 0, 40, 63
1, 114954, Note_off_c, 0, 62, 63
1, 115067, Note_on_c, 0, 47, 79
1, 115077, Note_on_c, 0, 45, 78
1, 115079, Note_on_c, 0, 69, 77
1, 115083, Note_on_c, 0, 61, 79
1, 115114, Note_off_c, 0, 47, 65
1, 115115, Note_off_c, 0, 61, 65
1, 115123, Note_off_c, 0, 69, 65
1, 115234, Note_on_c, 0, 69, 73
1, 115235, Note_on_c, 0, 61, 75
1, 115264, Note_off_c, 0, 61, 65
1, 115279, Note_off_c, 0, 69, 63
1, 115402, Note_on_c, 0, 71, 61
1, 115405, Note_on_c, 0, 64, 64
1, 115423, Note_off_c, 0, 45, 52
1, 115433, Note_off_c, 0, 71, 64
1, 115458, Note_off_c, 0, 64, 57
1, 115532, Note_on_c, 0, 47, 73
1, 115548, Note_on_c, 0, 61, 81
1, 115552, Note_on_c, 0, 45, 66
1, 115553, Note_on_c, 0, 69, 74
1, 115577, Note_off_c, 0, 47, 65
1, 115585, Note_off_c, 0, 61, 63
1, 115591, Note_off_c, 0, 69, 62
1, 115702, Note_on_c, 0, 69, 66
1, 115709, Note_on_c, 0, 61, 60
1, 115731, Note_off_c, 0, 61, 64
1, 115748, Note_off_c, 0, 69, 54
1, 115843, Note_on_c, 0, 71, 63
1, 115849, Note_off_c, 0, 45, 50
1, 115865, Note_on_c, 0, 64, 50
1, 115880, Note_off_c, 0, 71, 61
1, 115906, Note_off_c, 0, 64, 62
1, 115971, Note_on_c, 0, 47, 62
1, 115994, Note_on_c, 0, 45, 63
1, 115994, Note_on_c, 0, 61, 74
1, 115998, Note_on_c, 0, 69, 73
1, 116017, Note_off_c, 0, 47, 65
1, 116022, Note_off_c, 0, 61, 66
1, 116045, Note_off_c, 0, 69, 62
1, 116146, Note_on_c, 0, 71, 70
1, 116154, Note_on_c, 0, 64, 65
1, 116176, Note_off_c, 0, 71, 64
1, 116179, Note_off_c, 0, 45, 59
1, 116195, Note_off_c, 0, 64, 59
1, 116270, Note_on_c, 0, 47, 70
1, 116287, Note_on_c, 0, 45, 75
1, 116287, Note_on_c, 0, 61, 77
1, 116290, Note_on_c, 0, 69, 74
1, 116311, Note_off_c, 0, 47, 67
1, 116311, Note_off_c, 0, 61, 69
1, 116341, Note_off_c, 0, 69, 57
1, 116435, Note_on_c, 0, 71, 70
1, 116441, Note_on_c, 0, 64, 70
1, 116460, Note_off_c, 0, 45, 59
1, 116466, Note_off_c, 0, 71, 64
1, 116484, Note_off_c, 0, 64, 59
1, 116553, Note_on_c, 0, 47, 69
1, 116579, Note_on_c, 0, 45, 63
1, 116579, Note_on_c, 0, 69, 67
1, 116581, Note_on_c, 0, 61, 71
1, 116609, Note_off_c, 0, 61, 67
1, 116612, Note_off_c, 0, 47, 65
1, 116636, Note_off_c, 0, 69, 59
1, 116737, Note_on_c, 0, 71, 64
1, 116741, Note_on_c, 0, 64, 57
1, 116766, Note_off_c, 0, 64, 65
1, 116776, Note_off_c, 0, 45, 31
1, 116777, Note_off_c, 0, 71, 62
1, 116836, Note_on_c, 0, 47, 47
1, 116883, Note_off_c, 0, 47, 65
1, 116886, Note_on_c, 0, 45, 62
1, 116947, Note_on_c, 0, 69, 54
1, 116954, Note_on_c, 0, 61, 48
1, 117060, Note_off_c, 0, 69, 61
1, 117089, Note_on_c, 0, 71, 49
1, 117145, Note_off_c, 0, 71, 61
1, 117160, Note_on_c, 0, 69, 52
1, 117217, Note_off_c, 0, 69, 62
1, 117223, Control_c, 0, 64, 12
1, 117231, Note_on_c, 0, 71, 44
1, 117238, Control_c, 0, 64, 24
1, 117253, Control_c, 0, 64, 32
1, 117263, Note_off_c, 0, 71, 57
1, 117268, Control_c, 0, 64, 39
1, 117270, Note_on_c, 0, 69, 54
1, 117283, Control_c, 0, 64, 45
1, 117298, Control_c, 0, 64, 48
1, 117312, Note_off_c, 0, 69, 66
1, 117313, Control_c, 0, 64, 50
1, 117328, Control_c, 0, 64, 51
1, 117331, Note_on_c, 0, 71, 61
1, 117342, Control_c, 0, 64, 52
1, 117357, Control_c, 0, 64, 53
1, 117364, Note_off_c, 0, 71, 67
1, 117369, Note_on_c, 0, 69, 65
1, 117372, Control_c, 0, 64, 54
1, 117387, Control_c, 0, 64, 56
1, 117402, Control_c, 0, 64, 56
1, 117408, Note_off_c, 0, 69, 64
1, 117417, Control_c, 0, 64, 57
1, 117426, Note_on_c, 0, 71, 60
1, 117432, Control_c, 0, 64, 57
1, 117461, Note_off_c, 0, 71, 65
1, 117476, Control_c, 0, 64, 57
1, 117480, Note_on_c, 0, 69, 50
1, 117506, Note_off_c, 0, 69, 58
1, 117515, Note_on_c, 0, 71, 60
1, 117520, Control_c, 0, 64, 56
1, 117554, Note_off_c, 0, 71, 62
1, 117565, Control_c, 0, 64, 56
1, 117570, Note_on_c, 0, 69, 60
1, 117604, Note_off_c, 0, 69, 66
1, 117611, Note_on_c, 0, 71, 58
1, 117646, Control_c, 0, 64, 55
1, 117652, Note_off_c, 0, 71, 64
1, 117660, Note_on_c, 0, 69, 60
1, 117691, Control_c, 0, 64, 55
1, 117697, Note_off_c, 0, 69, 64
1, 117710, Note_on_c, 0, 71, 60
1, 117721, Control_c, 0, 64, 54
1, 117736, Control_c, 0, 64, 54
1, 117751, Note_off_c, 0, 71, 62
1, 117751, Control_c, 0, 64, 53
1, 117759, Note_on_c, 0, 69, 58
1, 117766, Control_c, 0, 64, 52
1, 117780, Control_c, 0, 64, 51
1, 117795, Control_c, 0, 64, 50
1, 117798, Note_off_c, 0, 69, 63
1, 117810, Note_on_c, 0, 71, 53
1, 117810, Control_c, 0, 64, 48
1, 117825, Control_c, 0, 64, 45
1, 117840, Control_c, 0, 64, 40
1, 117846, Note_off_c, 0, 71, 64
1, 117853, Note_on_c, 0, 69, 54
1, 117855, Control_c, 0, 64, 33
1, 117870, Control_c, 0, 64, 19
1, 117884, Control_c, 0, 64, 0
1, 117893, Note_off_c, 0, 69, 64
1, 117898, Note_on_c, 0, 71, 63
1, 117940, Note_off_c, 0, 71, 58
1, 117955, Note_on_c, 0, 69, 49
1, 117984, Note_off_c, 0, 69, 58
1, 117991, Note_on_c, 0, 71, 56
1, 118044, Note_off_c, 0, 71, 64
1, 118074, Note_on_c, 0, 69, 56
1, 118195, Control_c, 0, 64, 12
1, 118209, Control_c, 0, 64, 23
1, 118224, Control_c, 0, 64, 32
1, 118239, Control_c, 0, 64, 40
1, 118254, Control_c, 0, 64, 47
1, 118269, Control_c, 0, 64, 53
1, 118283, Control_c, 0, 64, 57
1, 118298, Control_c, 0, 64, 59
1, 118313, Control_c, 0, 64, 61
1, 118327, Control_c, 0, 64, 62
1, 118342, Control_c, 0, 64, 64
1, 118357, Control_c, 0, 64, 65
1, 118372, Control_c, 0, 64, 67
1, 118394, Control_c, 0, 64, 69
1, 118409, Control_c, 0, 64, 71
1, 118424, Control_c, 0, 64, 73
1, 118439, Control_c, 0, 64, 75
1, 118454, Control_c, 0, 64, 77
1, 118466, Note_off_c, 0, 61, 41
1, 118469, Control_c, 0, 64, 79
1, 118484, Control_c, 0, 64, 81
1, 118499, Control_c, 0, 64, 84
1, 118514, Control_c, 0, 64, 86
1, 118529, Control_c, 0, 64, 87
1, 118532, Note_off_c, 0, 69, 54
1, 118541, Note_off_c, 0, 45, 35
1, 118544, Control_c, 0, 64, 88
1, 118558, Control_c, 0, 64, 88
1, 118706, Control_c, 0, 64, 88
1, 118736, Control_c, 0, 64, 87
1, 118750, Control_c, 0, 64, 86
1, 118765, Control_c, 0, 64, 84
1, 118780, Control_c, 0, 64, 82
1, 118795, Control_c, 0, 64, 80
1, 118810, Control_c, 0, 64, 78
1, 118824, Control_c, 0, 64, 75
1, 118839, Control_c, 0, 64, 73
1, 118854, Control_c, 0, 64, 70
1, 118869, Control_c, 0, 64, 68
1, 118884, Control_c, 0, 64, 64
1, 118898, Control_c, 0, 64, 62
1, 118913, Control_c, 0, 64, 60
1, 118928, Control_c, 0, 64, 58
1, 118943, Control_c, 0, 64, 55
1, 118958, Control_c, 0, 64, 52
1, 118973, Control_c, 0, 64, 50
1, 118988, Control_c, 0, 64, 48
1, 119003, Control_c, 0, 64, 47
1, 119017, Control_c, 0, 64, 46
1, 119032, Control_c, 0, 64, 45
1, 119047, Control_c, 0, 64, 44
1, 119062, Control_c, 0, 64, 44
1, 119143, Control_c, 0, 64, 44
1, 119143, Control_c, 0, 67, 9
1, 119158, Control_c, 0, 64, 45
1, 119158, Control_c, 0, 67, 11
1, 119173, Control_c, 0, 64, 46
1, 119173, Control_c, 0, 67, 14
1, 119187, Control_c, 0, 64, 47
1, 119187, Control_c, 0, 67, 18
1, 119202, Control_c, 0, 64, 49
1, 119202, Control_c, 0, 67, 22
1, 119217, Control_c, 0, 64, 50
1, 119217, Control_c, 0, 67, 26
1, 119232, Control_c, 0, 64, 51
1, 119232, Control_c, 0, 67, 31
1, 119247, Control_c, 0, 64, 52
1, 119247, Control_c, 0, 67, 35
1, 119262, Control_c, 0, 64, 52
1, 119262, Control_c, 0, 67, 39
1, 119277, Control_c, 0, 64, 53
1, 119277, Control_c, 0, 67, 43
1, 119292, Control_c, 0, 64, 54
1, 119292, Control_c, 0, 67, 47
1, 119307, Control_c, 0, 64, 56
1, 119307, Control_c, 0, 67, 52
1, 119322, Control_c, 0, 64, 57
1, 119322, Control_c, 0, 67, 56
1, 119336, Control_c, 0, 64, 58
1, 119336, Control_c, 0, 67, 58
1, 119351, Control_c, 0, 64, 59
1, 119351, Control_c, 0, 67, 60
1, 119366, Control_c, 0, 64, 59
1, 119366, Control_c, 0, 67, 63
1, 119381, Control_c, 0, 64, 60
1, 119381, Control_c, 0, 67, 66
1, 119396, Control_c, 0, 64, 61
1, 119396, Control_c, 0, 67, 68
1, 119411, Control_c, 0, 64, 61
1, 119411, Control_c, 0, 67, 70
1, 119426, Control_c, 0, 64, 62
1, 119426, Control_c, 0, 67, 71
1, 119441, Control_c, 0, 64, 63
1, 119441, Control_c, 0, 67, 72
1, 119455, Control_c, 0, 64, 63
1, 119470, Control_c, 0, 64, 64
1, 119470, Control_c, 0, 67, 72
1, 119476, Note_on_c, 0, 45, 29
1, 119485, Control_c, 0, 64, 65
1, 119500, Control_c, 0, 64, 65
1, 119515, Control_c, 0, 64, 67
1, 119529, Control_c, 0, 64, 68
1, 119544, Control_c, 0, 64, 69
1, 119558, Control_c, 0, 64, 71
1, 119572, Control_c, 0, 64, 72
1, 119587, Control_c, 0, 64, 74
1, 119602, Control_c, 0, 64, 76
1, 119617, Control_c, 0, 64, 78
1, 119628, Note_on_c, 0, 73, 48
1, 119632, Control_c, 0, 64, 81
1, 119632, Control_c, 0, 67, 72
1, 119638, Note_on_c, 0, 69, 42
1, 119646, Control_c, 0, 64, 84
1, 119646, Control_c, 0, 67, 71
1, 119661, Control_c, 0, 64, 87
1, 119661, Control_c, 0, 67, 70
1, 119676, Control_c, 0, 64, 90
1, 119676, Control_c, 0, 67, 70
1, 119684, Note_off_c, 0, 45, 54
1, 119691, Control_c, 0, 64, 93
1, 119691, Control_c, 0, 67, 69
1, 119706, Control_c, 0, 64, 95
1, 119706, Control_c, 0, 67, 68
1, 119721, Control_c, 0, 64, 96
1, 119721, Control_c, 0, 67, 68
1, 119736, Control_c, 0, 64, 97
1, 119736, Control_c, 0, 67, 67
1, 119751, Control_c, 0, 67, 67
1, 119780, Control_c, 0, 67, 66
1, 119781, Note_off_c, 0, 73, 56
1, 119793, Note_on_c, 0, 74, 54
1, 119801, Note_on_c, 0, 71, 46
1, 119810, Control_c, 0, 67, 66
1, 119825, Control_c, 0, 67, 65
1, 119840, Control_c, 0, 67, 65
1, 119852, Note_off_c, 0, 69, 43
1, 119854, Control_c, 0, 67, 64
1, 119876, Control_c, 0, 67, 64
1, 119891, Control_c, 0, 64, 96
1, 119891, Control_c, 0, 67, 63
1, 119906, Control_c, 0, 64, 93
1, 119906, Control_c, 0, 67, 62
1, 119921, Control_c, 0, 64, 90
1, 119921, Control_c, 0, 67, 60
1, 119936, Control_c, 0, 64, 85
1, 119936, Control_c, 0, 67, 59
1, 119951, Control_c, 0, 64, 83
1, 119951, Control_c, 0, 67, 57
1, 119951, Note_on_c, 0, 69, 60
1, 119952, Note_on_c, 0, 73, 56
1, 119954, Note_off_c, 0, 74, 52
1, 119964, Note_on_c, 0, 76, 60
1, 119965, Control_c, 0, 64, 83
1, 119965, Control_c, 0, 67, 54
1, 119972, Note_off_c, 0, 71, 25
1, 119980, Control_c, 0, 67, 51
1, 119995, Control_c, 0, 64, 82
1, 119995, Control_c, 0, 67, 48
1, 120010, Control_c, 0, 64, 80
1, 120010, Control_c, 0, 67, 45
1, 120011, Note_off_c, 0, 73, 62
1, 120025, Control_c, 0, 64, 76
1, 120025, Control_c, 0, 67, 41
1, 120032, Note_off_c, 0, 76, 62
1, 120040, Control_c, 0, 64, 71
1, 120040, Control_c, 0, 67, 36
1, 120055, Control_c, 0, 64, 67
1, 120055, Control_c, 0, 67, 33
1, 120070, Control_c, 0, 64, 65
1, 120070, Control_c, 0, 67, 29
1, 120085, Control_c, 0, 67, 25
1, 120100, Control_c, 0, 67, 20
1, 120111, Note_on_c, 0, 76, 60
1, 120114, Note_off_c, 0, 69, 54
1, 120114, Control_c, 0, 64, 66
1, 120114, Control_c, 0, 67, 15
1, 120115, Note_on_c, 0, 67, 60
1, 120121, Note_on_c, 0, 73, 62
1, 120129, Control_c, 0, 64, 67
1, 120129, Control_c, 0, 67, 11
1, 120144, Control_c, 0, 64, 70
1, 120144, Control_c, 0, 67, 8
1, 120159, Control_c, 0, 64, 71
1, 120159, Control_c, 0, 67, 0
1, 120169, Note_off_c, 0, 73, 59
1, 120189, Control_c, 0, 64, 69
1, 120195, Note_off_c, 0, 76, 57
1, 120203, Control_c, 0, 64, 67
1, 120218, Control_c, 0, 64, 64
1, 120233, Control_c, 0, 64, 61
1, 120248, Control_c, 0, 64, 59
1, 120263, Control_c, 0, 64, 58
1, 120266, Note_on_c, 0, 74, 68
1, 120266, Note_on_c, 0, 78, 71
1, 120272, Note_on_c, 0, 66, 54
1, 120275, Note_off_c, 0, 67, 55
1, 120277, Control_c, 0, 64, 57
1, 120292, Control_c, 0, 64, 55
1, 120307, Control_c, 0, 64, 53
1, 120322, Control_c, 0, 64, 44
1, 120336, Control_c, 0, 64, 27
1, 120351, Control_c, 0, 64, 0
1, 120359, Note_off_c, 0, 74, 40
1, 120436, Note_on_c, 0, 76, 76
1, 120436, Note_on_c, 0, 79, 65
1, 120437, Note_off_c, 0, 66, 55
1, 120438, Note_off_c, 0, 78, 58
1, 120439, Note_on_c, 0, 64, 53
1, 120499, Control_c, 0, 64, 15
1, 120514, Control_c, 0, 64, 30
1, 120529, Control_c, 0, 64, 39
1, 120544, Control_c, 0, 64, 47
1, 120559, Control_c, 0, 64, 52
1, 120574, Control_c, 0, 64, 57
1, 120586, Note_on_c, 0, 74, 75
1, 120588, Control_c, 0, 64, 61
1, 120594, Note_on_c, 0, 71, 73
1, 120603, Control_c, 0, 64, 64
1, 120625, Control_c, 0, 64, 66
1, 120640, Control_c, 0, 64, 68
1, 120646, Note_off_c, 0, 74, 64
1, 120655, Control_c, 0, 64, 70
1, 120668, Note_off_c, 0, 76, 59
1, 120670, Control_c, 0, 64, 72
1, 120684, Control_c, 0, 64, 72
1, 120733, Note_off_c, 0, 71, 61
1, 120741, Note_on_c, 0, 73, 79
1, 120750, Note_on_c, 0, 76, 66
1, 120758, Note_off_c, 0, 79, 52
1, 120758, Control_c, 0, 64, 72
1, 120773, Control_c, 0, 64, 71
1, 120788, Control_c, 0, 64, 69
1, 120803, Control_c, 0, 64, 66
1, 120818, Control_c, 0, 64, 63
1, 120833, Control_c, 0, 64, 59
1, 120848, Control_c, 0, 64, 55
1, 120854, Note_off_c, 0, 73, 58
1, 120863, Control_c, 0, 64, 50
1, 120878, Control_c, 0, 64, 48
1, 120893, Control_c, 0, 64, 48
1, 120895, Note_on_c, 0, 74, 75
1, 120897, Note_on_c, 0, 78, 77
1, 120904, Note_off_c, 0, 76, 61
1, 120905, Note_on_c, 0, 71, 68
1, 120907, Control_c, 0, 64, 49
1, 120922, Control_c, 0, 64, 53
1, 120937, Control_c, 0, 64, 57
1, 120952, Note_off_c, 0, 74, 61
1, 120952, Control_c, 0, 64, 60
1, 120967, Control_c, 0, 64, 62
1, 120982, Control_c, 0, 64, 61
1, 120984, Note_off_c, 0, 78, 64
1, 120997, Control_c, 0, 64, 57
1, 121012, Control_c, 0, 64, 49
1, 121026, Control_c, 0, 64, 37
1, 121041, Control_c, 0, 64, 0
1, 121047, Note_on_c, 0, 78, 77
1, 121055, Note_on_c, 0, 69, 73
1, 121055, Note_on_c, 0, 74, 71
1, 121066, Note_off_c, 0, 71, 61
1, 121090, Note_off_c, 0, 64, 43
1, 121100, Control_c, 0, 64, 29
1, 121115, Control_c, 0, 64, 47
1, 121130, Control_c, 0, 64, 55
1, 121145, Control_c, 0, 64, 58
1, 121159, Control_c, 0, 64, 57
1, 121174, Control_c, 0, 64, 53
1, 121189, Control_c, 0, 64, 48
1, 121190, Note_off_c, 0, 74, 34
1, 121204, Control_c, 0, 64, 41
1, 121206, Note_on_c, 0, 76, 75
1, 121207, Note_on_c, 0, 79, 74
1, 121207, Note_off_c, 0, 78, 64
1, 121209, Note_on_c, 0, 67, 71
1, 121215, Note_off_c, 0, 69, 64
1, 121218, Control_c, 0, 64, 22
1, 121233, Control_c, 0, 64, 0
1, 121382, Note_on_c, 0, 81, 74
1, 121387, Note_on_c, 0, 66, 54
1, 121401, Note_on_c, 0, 69, 56
1, 121404, Note_off_c, 0, 67, 58
1, 121423, Note_off_c, 0, 79, 61
1, 121444, Note_off_c, 0, 76, 46
1, 121544, Note_off_c, 0, 69, 64
1, 121563, Note_on_c, 0, 71, 53
1, 121671, Control_c, 0, 64, 14
1, 121679, Note_off_c, 0, 71, 63
1, 121686, Control_c, 0, 64, 35
1, 121701, Control_c, 0, 64, 46
1, 121716, Control_c, 0, 64, 52
1, 121729, Note_off_c, 0, 66, 61
1, 121730, Note_on_c, 0, 72, 51
1, 121730, Control_c, 0, 64, 56
1, 121745, Control_c, 0, 64, 59
1, 121751, Note_on_c, 0, 64, 49
1, 121760, Control_c, 0, 64, 61
1, 121775, Control_c, 0, 64, 63
1, 121783, Note_off_c, 0, 72, 58
1, 121790, Control_c, 0, 64, 65
1, 121805, Control_c, 0, 64, 67
1, 121820, Control_c, 0, 64, 69
1, 121834, Control_c, 0, 64, 72
1, 121849, Control_c, 0, 64, 73
1, 121864, Control_c, 0, 64, 74
1, 121894, Control_c, 0, 64, 74
1, 121923, Control_c, 0, 64, 74
1, 121956, Note_on_c, 0, 83, 74
1, 121960, Note_off_c, 0, 64, 46
1, 121968, Control_c, 0, 64, 73
1, 121969, Note_on_c, 0, 63, 43
1, 121975, Note_on_c, 0, 71, 47
1, 121982, Control_c, 0, 64, 72
1, 121997, Control_c, 0, 64, 70
1, 122012, Control_c, 0, 64, 69
1, 122027, Control_c, 0, 64, 67
1, 122032, Note_off_c, 0, 81, 56
1, 122042, Control_c, 0, 64, 64
1, 122056, Control_c, 0, 64, 62
1, 122071, Control_c, 0, 64, 57
1, 122086, Control_c, 0, 64, 50
1, 122101, Control_c, 0, 64, 43
1, 122116, Control_c, 0, 64, 39
1, 122132, Note_off_c, 0, 63, 60
1, 122138, Control_c, 0, 64, 38
1, 122153, Note_on_c, 0, 79, 39
1, 122155, Note_on_c, 0, 64, 38
1, 122160, Note_off_c, 0, 71, 49
1, 122168, Control_c, 0, 64, 40
1, 122182, Control_c, 0, 64, 43
1, 122197, Control_c, 0, 64, 47
1, 122212, Control_c, 0, 64, 51
1, 122227, Control_c, 0, 64, 54
1, 122242, Control_c, 0, 64, 56
1, 122256, Control_c, 0, 64, 59
1, 122271, Control_c, 0, 64, 60
1, 122286, Control_c, 0, 64, 61
1, 122291, Note_off_c, 0, 64, 43
1, 122300, Control_c, 0, 64, 62
1, 122311, Note_on_c, 0, 63, 42
1, 122315, Control_c, 0, 64, 63
1, 122322, Note_off_c, 0, 79, 45
1, 122329, Note_on_c, 0, 78, 48
1, 122330, Control_c, 0, 64, 63
1, 122374, Control_c, 0, 64, 63
1, 122389, Control_c, 0, 64, 62
1, 122404, Control_c, 0, 64, 61
1, 122419, Control_c, 0, 64, 60
1, 122450, Control_c, 0, 64, 60
1, 122472, Note_off_c, 0, 78, 54
1, 122479, Control_c, 0, 64, 61
1, 122483, Note_on_c, 0, 64, 51
1, 122490, Note_off_c, 0, 63, 57
1, 122494, Note_on_c, 0, 79, 59
1, 122539, Control_c, 0, 64, 59
1, 122553, Control_c, 0, 64, 56
1, 122568, Control_c, 0, 64, 50
1, 122583, Control_c, 0, 64, 41
1, 122598, Control_c, 0, 64, 29
1, 122612, Control_c, 0, 64, 22
1, 122627, Note_on_c, 0, 81, 82
1, 122627, Control_c, 0, 64, 21
1, 122645, Note_on_c, 0, 66, 64
1, 122647, Note_off_c, 0, 64, 61
1, 122657, Control_c, 0, 64, 22
1, 122663, Note_off_c, 0, 83, 63
1, 122672, Control_c, 0, 64, 26
1, 122687, Control_c, 0, 64, 33
1, 122702, Control_c, 0, 64, 40
1, 122716, Control_c, 0, 64, 47
1, 122731, Control_c, 0, 64, 52
1, 122746, Control_c, 0, 64, 56
1, 122761, Control_c, 0, 64, 59
1, 122771, Note_off_c, 0, 66, 62
1, 122776, Control_c, 0, 64, 61
1, 122791, Note_on_c, 0, 67, 60
1, 122791, Control_c, 0, 64, 64
1, 122796, Note_on_c, 0, 83, 84
1, 122805, Control_c, 0, 64, 67
1, 122820, Control_c, 0, 64, 69
1, 122827, Note_off_c, 0, 81, 66
1, 122835, Control_c, 0, 64, 71
1, 122850, Control_c, 0, 64, 72
1, 122852, Note_off_c, 0, 79, 15
1, 122899, Note_off_c, 0, 83, 61
1, 122931, Control_c, 0, 64, 71
1, 122946, Control_c, 0, 64, 69
1, 122961, Control_c, 0, 64, 66
1, 122964, Note_on_c, 0, 83, 49
1, 122973, Note_on_c, 0, 84, 75
1, 122976, Control_c, 0, 64, 61
1, 122979, Note_on_c, 0, 57, 52
1, 122991, Control_c, 0, 64, 55
1, 123005, Control_c, 0, 64, 45
1, 123020, Control_c, 0, 64, 31
1, 123023, Note_off_c, 0, 83, 58
1, 123027, Note_off_c, 0, 67, 32
1, 123035, Control_c, 0, 64, 0
1, 123079, Control_c, 0, 64, 12
1, 123094, Control_c, 0, 64, 27
1, 123109, Control_c, 0, 64, 37
1, 123123, Control_c, 0, 64, 44
1, 123138, Control_c, 0, 64, 48
1, 123142, Note_on_c, 0, 81, 48
1, 123153, Control_c, 0, 64, 51
1, 123168, Control_c, 0, 64, 54
1, 123183, Control_c, 0, 64, 56
1, 123197, Control_c, 0, 64, 58
1, 123212, Control_c, 0, 64, 60
1, 123227, Control_c, 0, 64, 62
1, 123242, Control_c, 0, 64, 64
1, 123258, Control_c, 0, 64, 65
1, 123273, Control_c, 0, 64, 66
1, 123288, Control_c, 0, 64, 68
1, 123292, Note_off_c, 0, 81, 60
1, 123292, Note_on_c, 0, 83, 63
1, 123303, Control_c, 0, 64, 70
1, 123312, Note_off_c, 0, 84, 57
1, 123313, Note_on_c, 0, 79, 40
1, 123318, Control_c, 0, 64, 71
1, 123333, Control_c, 0, 64, 71
1, 123355, Note_off_c, 0, 83, 62
1, 123385, Note_off_c, 0, 79, 62
1, 123436, Control_c, 0, 64, 69
1, 123450, Note_on_c, 0, 81, 69
1, 123451, Control_c, 0, 64, 65
1, 123457, Note_on_c, 0, 69, 53
1, 123462, Note_on_c, 0, 79, 50
1, 123466, Control_c, 0, 64, 60
1, 123481, Note_off_c, 0, 57, 39
1, 123481, Control_c, 0, 64, 52
1, 123495, Control_c, 0, 64, 43
1, 123510, Control_c, 0, 64, 35
1, 123516, Note_off_c, 0, 79, 53
1, 123525, Control_c, 0, 64, 34
1, 123540, Control_c, 0, 64, 40
1, 123554, Control_c, 0, 64, 48
1, 123569, Control_c, 0, 64, 54
1, 123584, Control_c, 0, 64, 58
1, 123599, Control_c, 0, 64, 60
1, 123621, Control_c, 0, 64, 62
1, 123632, Note_on_c, 0, 78, 53
1, 123636, Control_c, 0, 64, 64
1, 123651, Control_c, 0, 64, 65
1, 123666, Control_c, 0, 64, 67
1, 123681, Control_c, 0, 64, 68
1, 123740, Control_c, 0, 64, 67
1, 123754, Control_c, 0, 64, 66
1, 123765, Note_off_c, 0, 78, 58
1, 123769, Control_c, 0, 64, 65
1, 123784, Note_on_c, 0, 79, 50
1, 123784, Control_c, 0, 64, 64
1, 123788, Note_on_c, 0, 76, 45
1, 123799, Control_c, 0, 64, 62
1, 123810, Note_off_c, 0, 81, 53
1, 123814, Control_c, 0, 64, 60
1, 123829, Note_off_c, 0, 76, 51
1, 123829, Control_c, 0, 64, 58
1, 123844, Control_c, 0, 64, 56
1, 123858, Control_c, 0, 64, 54
1, 123873, Control_c, 0, 64, 49
1, 123888, Control_c, 0, 64, 42
1, 123903, Control_c, 0, 64, 32
1, 123918, Control_c, 0, 64, 16
1, 123923, Note_off_c, 0, 79, 61
1, 123932, Note_on_c, 0, 76, 49
1, 123933, Control_c, 0, 64, 0
1, 123935, Note_on_c, 0, 77, 60
1, 123941, Note_off_c, 0, 69, 52
1, 123945, Note_on_c, 0, 59, 48
1, 123989, Note_off_c, 0, 76, 57
1, 124036, Note_off_c, 0, 59, 50
1, 124086, Note_on_c, 0, 80, 69
1, 124091, Note_on_c, 0, 71, 58
1, 124097, Note_on_c, 0, 74, 61
1, 124134, Note_off_c, 0, 77, 38
1, 124251, Note_on_c, 0, 81, 75
1, 124251, Note_off_c, 0, 71, 59
1, 124253, Note_on_c, 0, 69, 62
1, 124294, Note_off_c, 0, 80, 62
1, 124424, Note_on_c, 0, 83, 77
1, 124425, Note_on_c, 0, 68, 56
1, 124430, Note_off_c, 0, 69, 59
1, 124444, Note_off_c, 0, 81, 65
1, 124475, Note_off_c, 0, 74, 36
1, 124568, Note_off_c, 0, 68, 61
1, 124586, Note_on_c, 0, 64, 51
1, 124601, Note_on_c, 0, 76, 53
1, 124724, Note_off_c, 0, 64, 62
1, 124735, Note_on_c, 0, 74, 69
1, 124738, Note_on_c, 0, 68, 58
1, 124738, Note_off_c, 0, 76, 56
1, 124740, Control_c, 0, 64, 28
1, 124755, Control_c, 0, 64, 42
1, 124769, Control_c, 0, 64, 49
1, 124771, Note_off_c, 0, 68, 66
1, 124784, Control_c, 0, 64, 53
1, 124791, Note_off_c, 0, 74, 63
1, 124799, Control_c, 0, 64, 55
1, 124814, Control_c, 0, 64, 56
1, 124829, Control_c, 0, 64, 57
1, 124860, Control_c, 0, 64, 54
1, 124874, Control_c, 0, 64, 41
1, 124880, Note_on_c, 0, 76, 64
1, 124889, Note_on_c, 0, 57, 64
1, 124889, Control_c, 0, 64, 0
1, 124893, Note_on_c, 0, 74, 77
1, 124923, Note_off_c, 0, 76, 55
1, 124938, Note_off_c, 0, 83, 32
1, 125033, Note_off_c, 0, 74, 64
1, 125045, Note_on_c, 0, 72, 80
1, 125153, Note_off_c, 0, 72, 58
1, 125199, Note_on_c, 0, 81, 79
1, 125200, Note_on_c, 0, 69, 72
1, 125254, Note_off_c, 0, 57, 60
1, 125254, Note_off_c, 0, 69, 63
1, 125265, Note_off_c, 0, 81, 66
1, 125361, Note_on_c, 0, 67, 60
1, 125364, Note_on_c, 0, 81, 66
1, 125367, Note_on_c, 0, 82, 72
1, 125373, Note_on_c, 0, 57, 60
1, 125424, Note_off_c, 0, 81, 62
1, 125525, Note_on_c, 0, 79, 53
1, 125552, Note_off_c, 0, 57, 56
1, 125594, Note_off_c, 0, 67, 53
1, 125607, Control_c, 0, 64, 21
1, 125622, Control_c, 0, 64, 30
1, 125638, Control_c, 0, 64, 38
1, 125653, Control_c, 0, 64, 44
1, 125659, Note_off_c, 0, 79, 29
1, 125665, Note_on_c, 0, 81, 65
1, 125668, Control_c, 0, 64, 48
1, 125672, Note_off_c, 0, 82, 59
1, 125678, Note_on_c, 0, 65, 65
1, 125681, Note_on_c, 0, 57, 54
1, 125683, Control_c, 0, 64, 50
1, 125689, Note_on_c, 0, 77, 47
1, 125697, Control_c, 0, 64, 52
1, 125709, Note_off_c, 0, 81, 62
1, 125712, Control_c, 0, 64, 52
1, 125713, Note_off_c, 0, 65, 62
1, 125723, Note_off_c, 0, 57, 64
1, 125733, Note_off_c, 0, 77, 63
1, 125741, Control_c, 0, 64, 52
1, 125756, Control_c, 0, 64, 50
1, 125771, Control_c, 0, 64, 48
1, 125786, Control_c, 0, 64, 46
1, 125801, Control_c, 0, 64, 43
1, 125815, Control_c, 0, 64, 39
1, 125829, Note_on_c, 0, 77, 61
1, 125830, Control_c, 0, 64, 36
1, 125844, Note_on_c, 0, 57, 53
1, 125845, Note_on_c, 0, 79, 62
1, 125845, Control_c, 0, 64, 33
1, 125850, Note_on_c, 0, 64, 52
1, 125868, Control_c, 0, 64, 28
1, 125883, Control_c, 0, 64, 19
1, 125897, Control_c, 0, 64, 0
1, 125899, Note_off_c, 0, 77, 55
1, 125996, Note_on_c, 0, 76, 63
1, 126012, Note_off_c, 0, 64, 60
1, 126022, Note_off_c, 0, 57, 61
1, 126035, Note_off_c, 0, 76, 59
1, 126138, Note_off_c, 0, 79, 57
1, 126145, Note_on_c, 0, 62, 53
1, 126145, Note_on_c, 0, 77, 58
1, 126156, Note_on_c, 0, 74, 61
1, 126163, Note_on_c, 0, 57, 37
1, 126184, Note_off_c, 0, 62, 61
1, 126198, Note_off_c, 0, 57, 49
1, 126200, Note_off_c, 0, 74, 59
1, 126285, Note_on_c, 0, 57, 56
1, 126291, Note_off_c, 0, 77, 36
1, 126309, Note_on_c, 0, 74, 57
1, 126314, Note_on_c, 0, 75, 49
1, 126329, Note_off_c, 0, 57, 64
1, 126347, Note_off_c, 0, 74, 63
1, 126453, Note_on_c, 0, 78, 58
1, 126456, Note_on_c, 0, 72, 56
1, 126458, Note_on_c, 0, 69, 49
1, 126501, Note_off_c, 0, 75, 33
1, 126607, Note_on_c, 0, 79, 61
1, 126622, Note_off_c, 0, 78, 54
1, 126627, Note_off_c, 0, 69, 48
1, 126628, Note_on_c, 0, 67, 48
1, 126765, Control_c, 0, 64, 18
1, 126778, Note_off_c, 0, 67, 54
1, 126780, Control_c, 0, 64, 32
1, 126790, Note_on_c, 0, 81, 60
1, 126791, Note_off_c, 0, 79, 60
1, 126795, Control_c, 0, 64, 40
1, 126801, Note_on_c, 0, 66, 39
1, 126810, Control_c, 0, 64, 44
1, 126824, Control_c, 0, 64, 47
1, 126839, Control_c, 0, 64, 49
1, 126840, Note_off_c, 0, 72, 44
1, 126854, Control_c, 0, 64, 51
1, 126869, Control_c, 0, 64, 54
1, 126884, Control_c, 0, 64, 56
1, 126898, Control_c, 0, 64, 57
1, 126913, Control_c, 0, 64, 58
1, 126928, Control_c, 0, 64, 59
1, 126938, Note_off_c, 0, 66, 51
1, 126943, Note_on_c, 0, 74, 48
1, 126943, Control_c, 0, 64, 60
1, 126958, Control_c, 0, 64, 62
1, 126968, Note_on_c, 0, 62, 30
1, 126972, Control_c, 0, 64, 63
1, 126987, Control_c, 0, 64, 63
1, 127002, Control_c, 0, 64, 64
1, 127032, Control_c, 0, 64, 64
1, 127098, Note_on_c, 0, 72, 46
1, 127102, Note_off_c, 0, 81, 55
1, 127105, Control_c, 0, 64, 64
1, 127107, Note_on_c, 0, 66, 35
1, 127116, Note_off_c, 0, 62, 42
1, 127120, Control_c, 0, 64, 63
1, 127135, Control_c, 0, 64, 63
1, 127150, Control_c, 0, 64, 62
1, 127164, Control_c, 0, 64, 62
1, 127179, Control_c, 0, 64, 61
1, 127194, Control_c, 0, 64, 61
1, 127209, Control_c, 0, 64, 60
1, 127224, Control_c, 0, 64, 59
1, 127255, Control_c, 0, 64, 59
1, 127269, Control_c, 0, 64, 58
1, 127299, Control_c, 0, 64, 58
1, 127301, Note_off_c, 0, 72, 46
1, 127312, Note_on_c, 0, 79, 52
1, 127313, Note_off_c, 0, 66, 44
1, 127313, Control_c, 0, 64, 57
1, 127316, Note_on_c, 0, 71, 40
1, 127318, Note_on_c, 0, 67, 37
1, 127328, Control_c, 0, 64, 56
1, 127343, Control_c, 0, 64, 55
1, 127344, Note_off_c, 0, 74, 15
1, 127366, Control_c, 0, 64, 52
1, 127381, Control_c, 0, 64, 48
1, 127395, Control_c, 0, 64, 44
1, 127410, Control_c, 0, 64, 43
1, 127440, Control_c, 0, 64, 43
1, 127455, Control_c, 0, 64, 44
1, 127469, Control_c, 0, 64, 45
1, 127476, Note_off_c, 0, 71, 62
1, 127484, Control_c, 0, 64, 46
1, 127499, Control_c, 0, 64, 48
1, 127506, Note_on_c, 0, 73, 43
1, 127514, Control_c, 0, 64, 50
1, 127515, Note_on_c, 0, 64, 36
1, 127519, Note_off_c, 0, 67, 46
1, 127528, Control_c, 0, 64, 51
1, 127543, Control_c, 0, 64, 53
1, 127558, Control_c, 0, 64, 55
1, 127573, Control_c, 0, 64, 57
1, 127588, Control_c, 0, 64, 59
1, 127603, Control_c, 0, 64, 61
1, 127617, Control_c, 0, 64, 62
1, 127632, Control_c, 0, 64, 64
1, 127645, Note_off_c, 0, 64, 57
1, 127647, Control_c, 0, 64, 65
1, 127653, Note_off_c, 0, 73, 52
1, 127662, Control_c, 0, 64, 66
1, 127667, Note_on_c, 0, 74, 48
1, 127668, Note_on_c, 0, 66, 51
1, 127677, Control_c, 0, 64, 66
1, 127736, Control_c, 0, 64, 66
1, 127751, Control_c, 0, 64, 65
1, 127766, Control_c, 0, 64, 65
1, 127781, Control_c, 0, 64, 64
1, 127795, Control_c, 0, 64, 63
1, 127810, Control_c, 0, 64, 63
1, 127822, Note_off_c, 0, 66, 56
1, 127823, Note_on_c, 0, 61, 48
1, 127825, Control_c, 0, 64, 62
1, 127827, Note_on_c, 0, 76, 59
1, 127835, Note_on_c, 0, 69, 42
1, 127840, Control_c, 0, 64, 61
1, 127855, Control_c, 0, 64, 60
1, 127856, Note_off_c, 0, 79, 56
1, 127869, Control_c, 0, 64, 59
1, 127884, Control_c, 0, 64, 58
1, 127899, Control_c, 0, 64, 56
1, 127913, Control_c, 0, 64, 53
1, 127928, Control_c, 0, 64, 50
1, 127943, Control_c, 0, 64, 44
1, 127958, Control_c, 0, 64, 37
1, 127959, Note_off_c, 0, 61, 59
1, 127973, Control_c, 0, 64, 27
1, 127974, Note_on_c, 0, 62, 50
1, 127987, Note_on_c, 0, 78, 66
1, 127987, Control_c, 0, 64, 14
1, 128002, Control_c, 0, 64, 0
1, 128078, Control_c, 0, 64, 12
1, 128092, Control_c, 0, 64, 26
1, 128115, Control_c, 0, 64, 37
1, 128130, Control_c, 0, 64, 42
1, 128144, Control_c, 0, 64, 46
1, 128146, Note_on_c, 0, 59, 59
1, 128152, Note_on_c, 0, 80, 69
1, 128159, Control_c, 0, 64, 51
1, 128162, Note_off_c, 0, 62, 62
1, 128169, Note_off_c, 0, 76, 39
1, 128174, Control_c, 0, 64, 57
1, 128181, Note_off_c, 0, 69, 58
1, 128182, Note_off_c, 0, 78, 61
1, 128189, Control_c, 0, 64, 60
1, 128197, Note_off_c, 0, 59, 59
1, 128204, Control_c, 0, 64, 61
1, 128218, Control_c, 0, 64, 62
1, 128233, Control_c, 0, 64, 62
1, 128263, Control_c, 0, 64, 62
1, 128278, Control_c, 0, 64, 61
1, 128291, Note_off_c, 0, 80, 62
1, 128292, Control_c, 0, 64, 61
1, 128297, Note_on_c, 0, 81, 68
1, 128304, Note_on_c, 0, 57, 74
1, 128304, Note_on_c, 0, 69, 60
1, 128307, Control_c, 0, 64, 59
1, 128322, Control_c, 0, 64, 57
1, 128333, Note_off_c, 0, 74, 47
1, 128335, Note_off_c, 0, 57, 66
1, 128335, Note_off_c, 0, 69, 66
1, 128337, Control_c, 0, 64, 54
1, 128351, Control_c, 0, 64, 52
1, 128366, Control_c, 0, 64, 48
1, 128381, Control_c, 0, 64, 41
1, 128396, Control_c, 0, 64, 23
1, 128410, Control_c, 0, 64, 0
1, 128450, Note_on_c, 0, 55, 77
1, 128455, Note_on_c, 0, 67, 71
1, 128461, Note_on_c, 0, 73, 65
1, 128475, Note_off_c, 0, 55, 66
1, 128475, Note_off_c, 0, 67, 64
1, 128581, Note_off_c, 0, 73, 60
1, 128599, Note_on_c, 0, 54, 79
1, 128603, Note_on_c, 0, 66, 73
1, 128607, Note_on_c, 0, 74, 72
1, 128625, Note_off_c, 0, 66, 70
1, 128631, Note_off_c, 0, 81, 62
1, 128632, Note_off_c, 0, 54, 60
1, 128748, Note_on_c, 0, 61, 85
1, 128753, Note_on_c, 0, 49, 78
1, 128767, Note_on_c, 0, 76, 78
1, 128791, Note_off_c, 0, 49, 64
1, 128800, Note_off_c, 0, 61, 60
1, 128812, Note_off_c, 0, 74, 55
1, 128908, Note_on_c, 0, 62, 82
1, 128911, Note_on_c, 0, 50, 80
1, 128920, Note_on_c, 0, 78, 83
1, 128935, Note_off_c, 0, 76, 62
1, 128944, Note_off_c, 0, 62, 63
1, 128959, Note_off_c, 0, 50, 66
1, 129057, Note_on_c, 0, 59, 86
1, 129061, Note_on_c, 0, 47, 87
1, 129062, Note_on_c, 0, 80, 82
1, 129088, Note_off_c, 0, 78, 63
1, 129099, Note_off_c, 0, 59, 58
1, 129104, Note_off_c, 0, 47, 62
1, 129215, Note_on_c, 0, 81, 84
1, 129217, Note_off_c, 0, 80, 63
1, 129218, Note_on_c, 0, 45, 92
1, 129220, Note_on_c, 0, 57, 84
1, 129253, Note_off_c, 0, 57, 62
1, 129256, Note_on_c, 0, 55, 33
1, 129257, Note_off_c, 0, 55, 127
1, 129264, Note_off_c, 0, 45, 61
1, 129364, Note_on_c, 0, 55, 93
1, 129368, Note_on_c, 0, 73, 87
1, 129370, Note_on_c, 0, 43, 91
1, 129388, Note_on_c, 0, 45, 58
1, 129400, Note_off_c, 0, 55, 64
1, 129402, Note_off_c, 0, 43, 67
1, 129415, Note_off_c, 0, 45, 36
1, 129463, Note_off_c, 0, 81, 37
1, 129507, Note_off_c, 0, 73, 62
1, 129516, Note_on_c, 0, 54, 96
1, 129519, Note_on_c, 0, 42, 96
1, 129522, Note_on_c, 0, 74, 92
1, 129558, Note_off_c, 0, 54, 63
1, 129572, Note_off_c, 0, 42, 61
1, 129678, Note_on_c, 0, 49, 101
1, 129683, Note_on_c, 0, 37, 91
1, 129699, Note_on_c, 0, 76, 95
1, 129726, Note_off_c, 0, 37, 65
1, 129734, Note_off_c, 0, 49, 62
1, 129738, Note_off_c, 0, 74, 64
1, 129841, Note_on_c, 0, 50, 98
1, 129846, Note_on_c, 0, 38, 92
1, 129847, Note_on_c, 0, 78, 91
1, 129867, Note_on_c, 0, 40, 59
1, 129873, Note_off_c, 0, 76, 63
1, 129886, Note_off_c, 0, 50, 67
1, 129895, Note_off_c, 0, 40, 39
1, 129905, Note_off_c, 0, 38, 64
1, 130018, Note_on_c, 0, 80, 86
1, 130019, Note_on_c, 0, 47, 95
1, 130023, Note_on_c, 0, 35, 91
1, 130042, Control_c, 0, 64, 27
1, 130046, Note_off_c, 0, 78, 64
1, 130056, Control_c, 0, 64, 42
1, 130058, Note_off_c, 0, 47, 61
1, 130071, Control_c, 0, 64, 51
1, 130086, Control_c, 0, 64, 57
1, 130087, Note_off_c, 0, 80, 64
1, 130101, Control_c, 0, 64, 62
1, 130102, Note_off_c, 0, 35, 61
1, 130115, Control_c, 0, 64, 64
1, 130130, Control_c, 0, 64, 67
1, 130145, Control_c, 0, 64, 70
1, 130160, Control_c, 0, 64, 73
1, 130175, Control_c, 0, 64, 75
1, 130235, Control_c, 0, 64, 74
1, 130250, Control_c, 0, 64, 72
1, 130264, Control_c, 0, 64, 69
1, 130267, Note_on_c, 0, 45, 84
1, 130270, Note_on_c, 0, 33, 78
1, 130279, Note_on_c, 0, 83, 94
1, 130279, Control_c, 0, 64, 66
1, 130294, Control_c, 0, 64, 60
1, 130308, Control_c, 0, 64, 48
1, 130314, Note_on_c, 0, 35, 31
1, 130315, Note_off_c, 0, 35, 127
1, 130323, Control_c, 0, 64, 0
1, 130418, Note_off_c, 0, 83, 63
1, 130419, Note_on_c, 0, 81, 83
1, 130475, Note_off_c, 0, 81, 66
1, 130498, Note_on_c, 0, 83, 85
1, 130539, Note_off_c, 0, 83, 63
1, 130539, Control_c, 0, 64, 24
1, 130554, Control_c, 0, 64, 33
1, 130560, Note_on_c, 0, 81, 86
1, 130568, Control_c, 0, 64, 39
1, 130583, Control_c, 0, 64, 45
1, 130595, Note_off_c, 0, 81, 66
1, 130598, Control_c, 0, 64, 49
1, 130613, Control_c, 0, 64, 52
1, 130613, Note_on_c, 0, 83, 82
1, 130628, Control_c, 0, 64, 54
1, 130643, Control_c, 0, 64, 57
1, 130656, Note_off_c, 0, 83, 64
1, 130658, Control_c, 0, 64, 60
1, 130667, Note_on_c, 0, 81, 82
1, 130673, Control_c, 0, 64, 62
1, 130687, Control_c, 0, 64, 63
1, 130702, Control_c, 0, 64, 64
1, 130704, Note_off_c, 0, 81, 66
1, 130716, Note_on_c, 0, 83, 85
1, 130717, Control_c, 0, 64, 66
1, 130731, Control_c, 0, 64, 69
1, 130746, Control_c, 0, 64, 72
1, 130759, Note_off_c, 0, 83, 63
1, 130761, Control_c, 0, 64, 74
1, 130775, Note_on_c, 0, 81, 82
1, 130776, Control_c, 0, 64, 76
1, 130791, Control_c, 0, 64, 76
1, 130805, Control_c, 0, 64, 77
1, 130808, Note_off_c, 0, 81, 63
1, 130820, Note_on_c, 0, 83, 84
1, 130820, Control_c, 0, 64, 77
1, 130835, Control_c, 0, 64, 78
1, 130864, Note_off_c, 0, 83, 62
1, 130879, Note_on_c, 0, 81, 86
1, 130912, Note_off_c, 0, 81, 63
1, 130929, Note_on_c, 0, 83, 80
1, 130969, Note_off_c, 0, 83, 64
1, 130980, Note_on_c, 0, 81, 87
1, 131021, Note_off_c, 0, 81, 63
1, 131029, Note_on_c, 0, 83, 85
1, 131042, Control_c, 0, 64, 77
1, 131057, Control_c, 0, 64, 76
1, 131070, Note_off_c, 0, 83, 63
1, 131072, Control_c, 0, 64, 76
1, 131084, Note_on_c, 0, 81, 85
1, 131136, Note_off_c, 0, 81, 65
1, 131139, Note_on_c, 0, 83, 84
1, 131153, Control_c, 0, 64, 76
1, 131191, Note_off_c, 0, 83, 63
1, 131194, Note_on_c, 0, 81, 81
1, 131233, Note_on_c, 0, 83, 80
1, 131242, Note_off_c, 0, 81, 64
1, 131273, Control_c, 0, 64, 77
1, 131292, Note_off_c, 0, 83, 63
1, 131293, Note_on_c, 0, 81, 80
1, 131339, Note_on_c, 0, 83, 76
1, 131341, Note_off_c, 0, 81, 66
1, 131394, Note_off_c, 0, 83, 64
1, 131397, Note_on_c, 0, 81, 79
1, 131444, Note_on_c, 0, 83, 79
1, 131445, Note_off_c, 0, 81, 66
1, 131448, Note_off_c, 0, 33, 44
1, 131496, Note_off_c, 0, 83, 63
1, 131499, Note_off_c, 0, 45, 36
1, 131502, Note_on_c, 0, 81, 83
1, 131546, Note_on_c, 0, 83, 81
1, 131550, Note_off_c, 0, 81, 65
1, 131603, Note_on_c, 0, 81, 81
1, 131603, Note_off_c, 0, 83, 64
1, 131649, Note_on_c, 0, 83, 77
1, 131653, Note_off_c, 0, 81, 67
1, 131684, Note_off_c, 0, 83, 63
1, 131700, Note_on_c, 0, 81, 74
1, 131856, Control_c, 0, 64, 76
1, 131911, Note_off_c, 0, 81, 56
1, 132035, Control_c, 0, 64, 76
1, 132080, Control_c, 0, 64, 75
1, 132095, Control_c, 0, 64, 74
1, 132109, Control_c, 0, 64, 74
1, 132124, Control_c, 0, 64, 73
1, 132139, Control_c, 0, 64, 73
1, 132154, Control_c, 0, 64, 72
1, 132169, Control_c, 0, 64, 71
1, 132183, Control_c, 0, 64, 70
1, 132198, Control_c, 0, 64, 69
1, 132213, Control_c, 0, 64, 68
1, 132228, Control_c, 0, 64, 67
1, 132243, Control_c, 0, 64, 67
1, 132257, Control_c, 0, 64, 66
1, 132272, Control_c, 0, 64, 65
1, 132287, Control_c, 0, 64, 63
1, 132301, Control_c, 0, 64, 61
1, 132316, Control_c, 0, 64, 59
1, 132331, Control_c, 0, 64, 55
1, 132346, Control_c, 0, 64, 45
1, 132361, Control_c, 0, 64, 0
1, 132819, Note_on_c, 0, 69, 62
1, 132821, Note_on_c, 0, 66, 68
1, 132825, Note_on_c, 0, 76, 85
1, 132850, Note_off_c, 0, 69, 68
1, 132852, Note_off_c, 0, 66, 61
1, 132864, Note_off_c, 0, 76, 61
1, 132873, Note_on_c, 0, 74, 74
1, 132898, Note_off_c, 0, 74, 65
1, 132898, Poly_aftertouch_c, 0, 76, 0
1, 132906, Note_on_c, 0, 76, 74
1, 132942, Note_off_c, 0, 76, 64
1, 132950, Note_on_c, 0, 67, 68
1, 132958, Note_on_c, 0, 74, 76
1, 132961, Note_on_c, 0, 64, 52
1, 132985, Note_off_c, 0, 67, 60
1, 133007, Note_off_c, 0, 74, 68
1, 133007, Note_off_c, 0, 64, 56
1, 133016, Note_on_c, 0, 76, 79
1, 133066, Note_off_c, 0, 76, 60
1, 133080, Note_on_c, 0, 62, 68
1, 133082, Note_on_c, 0, 78, 91
1, 133083, Note_on_c, 0, 66, 74
1, 133109, Note_off_c, 0, 62, 65
1, 133111, Note_off_c, 0, 66, 66
1, 133135, Note_on_c, 0, 79, 72
1, 133138, Note_off_c, 0, 78, 65
1, 133190, Note_on_c, 0, 81, 81
1, 133193, Note_off_c, 0, 79, 64
1, 133254, Note_on_c, 0, 71, 74
1, 133257, Note_on_c, 0, 83, 94
1, 133259, Note_on_c, 0, 67, 70
1, 133272, Note_off_c, 0, 81, 67
1, 133289, Note_off_c, 0, 83, 67
1, 133426, Note_on_c, 0, 79, 84
1, 133446, Note_off_c, 0, 79, 68
1, 133550, Note_off_c, 0, 67, 61
1, 133580, Note_off_c, 0, 71, 55
1, 133582, Note_on_c, 0, 76, 75
1, 133615, Note_off_c, 0, 76, 61
1, 133746, Note_on_c, 0, 74, 81
1, 133755, Note_on_c, 0, 67, 78
1, 133756, Note_on_c, 0, 64, 66
1, 133783, Note_off_c, 0, 67, 67
1, 133785, Note_off_c, 0, 64, 67
1, 133786, Note_off_c, 0, 74, 66
1, 133792, Note_on_c, 0, 73, 80
1, 133832, Note_off_c, 0, 73, 60
1, 133842, Note_on_c, 0, 74, 73
1, 133865, Note_off_c, 0, 74, 70
1, 133883, Note_on_c, 0, 73, 76
1, 133901, Note_on_c, 0, 69, 75
1, 133902, Note_on_c, 0, 66, 72
1, 133923, Note_off_c, 0, 69, 72
1, 133928, Note_off_c, 0, 66, 68
1, 133938, Note_off_c, 0, 73, 64
1, 133940, Note_on_c, 0, 74, 73
1, 133977, Note_off_c, 0, 74, 62
1, 134018, Note_on_c, 0, 76, 84
1, 134044, Note_on_c, 0, 71, 76
1, 134047, Note_on_c, 0, 67, 77
1, 134061, Note_off_c, 0, 76, 65
1, 134068, Note_on_c, 0, 78, 73
1, 134073, Note_off_c, 0, 71, 62
1, 134074, Note_off_c, 0, 67, 65
1, 134118, Note_off_c, 0, 78, 66
1, 134130, Note_on_c, 0, 79, 82
1, 134178, Note_off_c, 0, 79, 62
1, 134209, Note_on_c, 0, 69, 72
1, 134209, Note_on_c, 0, 81, 93
1, 134219, Note_on_c, 0, 66, 63
1, 134239, Note_off_c, 0, 81, 70
1, 134380, Note_on_c, 0, 78, 80
1, 134402, Note_off_c, 0, 78, 72
1, 134512, Note_off_c, 0, 66, 60
1, 134538, Note_on_c, 0, 74, 69
1, 134553, Note_off_c, 0, 69, 53
1, 134573, Note_off_c, 0, 74, 60
1, 134691, Note_on_c, 0, 73, 78
1, 134697, Note_on_c, 0, 62, 60
1, 134700, Note_on_c, 0, 66, 69
1, 134727, Note_off_c, 0, 66, 68
1, 134732, Note_off_c, 0, 62, 64
1, 134736, Note_off_c, 0, 73, 65
1, 134769, Note_on_c, 0, 71, 42
1, 134776, Note_on_c, 0, 73, 71
1, 134802, Note_off_c, 0, 71, 0
1, 134814, Note_off_c, 0, 73, 64
1, 134817, Note_on_c, 0, 71, 67
1, 134854, Note_on_c, 0, 67, 80
1, 134855, Note_on_c, 0, 64, 74
1, 134870, Note_off_c, 0, 71, 66
1, 134879, Note_off_c, 0, 67, 68
1, 134881, Note_off_c, 0, 64, 68
1, 134909, Note_on_c, 0, 73, 80
1, 134959, Note_off_c, 0, 73, 61
1, 134976, Note_on_c, 0, 74, 75
1, 134998, Note_on_c, 0, 69, 75
1, 134998, Note_on_c, 0, 66, 77
1, 135022, Note_off_c, 0, 69, 70
1, 135024, Note_on_c, 0, 76, 78
1, 135024, Note_off_c, 0, 74, 65
1, 135025, Note_off_c, 0, 66, 64
1, 135088, Note_off_c, 0, 76, 65
1, 135091, Note_on_c, 0, 78, 73
1, 135169, Note_on_c, 0, 67, 72
1, 135172, Note_off_c, 0, 78, 63
1, 135174, Note_on_c, 0, 79, 84
1, 135180, Note_on_c, 0, 64, 61
1, 135201, Note_off_c, 0, 79, 63
1, 135333, Note_on_c, 0, 75, 44
1, 135334, Note_off_c, 0, 75, 127
1, 135340, Note_on_c, 0, 76, 67
1, 135359, Note_off_c, 0, 76, 65
1, 135431, Note_off_c, 0, 64, 62
1, 135481, Note_on_c, 0, 73, 69
1, 135486, Note_off_c, 0, 67, 58
1, 135508, Note_off_c, 0, 73, 67
1, 135634, Note_on_c, 0, 71, 68
1, 135648, Note_on_c, 0, 61, 63
1, 135655, Note_on_c, 0, 64, 59
1, 135662, Note_off_c, 0, 71, 67
1, 135680, Note_on_c, 0, 69, 75
1, 135686, Note_off_c, 0, 64, 67
1, 135694, Note_off_c, 0, 61, 60
1, 135711, Note_off_c, 0, 69, 64
1, 135728, Note_on_c, 0, 71, 81
1, 135752, Note_off_c, 0, 71, 68
1, 135781, Note_on_c, 0, 69, 62
1, 135799, Note_on_c, 0, 62, 61
1, 135800, Note_on_c, 0, 66, 66
1, 135812, Note_off_c, 0, 69, 64
1, 135829, Note_off_c, 0, 62, 64
1, 135839, Note_on_c, 0, 71, 69
1, 135842, Note_off_c, 0, 66, 53
1, 135870, Note_off_c, 0, 71, 60
1, 135902, Note_on_c, 0, 73, 82
1, 135937, Note_on_c, 0, 64, 60
1, 135937, Note_on_c, 0, 74, 69
1, 135939, Note_on_c, 0, 67, 37
1, 135949, Note_on_c, 0, 66, 46
1, 135965, Note_off_c, 0, 73, 62
1, 135967, Note_off_c, 0, 64, 67
1, 135973, Note_off_c, 0, 67, 51
1, 135975, Note_off_c, 0, 66, 36
1, 136008, Note_on_c, 0, 76, 74
1, 136010, Note_off_c, 0, 74, 60
1, 136079, Note_on_c, 0, 78, 81
1, 136085, Note_off_c, 0, 76, 63
1, 136088, Note_on_c, 0, 50, 75
1, 136101, Note_off_c, 0, 78, 70
1, 136106, Control_c, 0, 64, 24
1, 136118, Note_off_c, 0, 50, 69
1, 136121, Control_c, 0, 64, 46
1, 136136, Control_c, 0, 64, 55
1, 136150, Control_c, 0, 64, 58
1, 136165, Control_c, 0, 64, 59
1, 136180, Control_c, 0, 64, 59
1, 136195, Control_c, 0, 64, 60
1, 136210, Control_c, 0, 64, 60
1, 136224, Control_c, 0, 64, 60
1, 136239, Control_c, 0, 64, 58
1, 136254, Control_c, 0, 64, 55
1, 136268, Control_c, 0, 64, 50
1, 136283, Control_c, 0, 64, 39
1, 136291, Note_on_c, 0, 62, 58
1, 136295, Note_on_c, 0, 66, 62
1, 136298, Control_c, 0, 64, 0
1, 136316, Note_off_c, 0, 66, 64
1, 136323, Note_off_c, 0, 62, 64
1, 136379, Note_on_c, 0, 66, 50
1, 136416, Note_off_c, 0, 66, 0
1, 136427, Note_on_c, 0, 66, 61
1, 136440, Note_on_c, 0, 61, 63
1, 136452, Note_off_c, 0, 66, 65
1, 136477, Note_off_c, 0, 61, 61
1, 136501, Note_on_c, 0, 66, 76
1, 136524, Note_off_c, 0, 66, 71
1, 136582, Note_on_c, 0, 66, 84
1, 136593, Note_on_c, 0, 59, 67
1, 136603, Note_off_c, 0, 66, 69
1, 136622, Note_off_c, 0, 59, 66
1, 136656, Note_on_c, 0, 66, 70
1, 136678, Note_off_c, 0, 66, 70
1, 136727, Note_on_c, 0, 66, 75
1, 136734, Note_on_c, 0, 62, 63
1, 136752, Note_off_c, 0, 66, 69
1, 136763, Note_off_c, 0, 62, 66
1, 136790, Note_on_c, 0, 66, 67
1, 136813, Note_off_c, 0, 66, 67
1, 136853, Note_on_c, 0, 66, 74
1, 136879, Note_on_c, 0, 57, 71
1, 136882, Note_off_c, 0, 66, 65
1, 136911, Note_off_c, 0, 57, 65
1, 136937, Note_on_c, 0, 66, 61
1, 136960, Note_off_c, 0, 66, 65
1, 137025, Note_on_c, 0, 55, 60
1, 137035, Note_on_c, 0, 71, 76
1, 137056, Note_off_c, 0, 55, 63
1, 137056, Note_off_c, 0, 71, 72
1, 137111, Note_on_c, 0, 71, 68
1, 137138, Note_off_c, 0, 71, 69
1, 137176, Note_on_c, 0, 71, 75
1, 137189, Note_on_c, 0, 62, 59
1, 137198, Note_off_c, 0, 71, 72
1, 137220, Note_off_c, 0, 62, 65
1, 137267, Note_on_c, 0, 71, 63
1, 137284, Note_off_c, 0, 71, 67
1, 137317, Note_on_c, 0, 54, 58
1, 137338, Note_on_c, 0, 71, 73
1, 137353, Note_off_c, 0, 71, 69
1, 137355, Note_off_c, 0, 54, 62
1, 137407, Note_on_c, 0, 71, 81
1, 137428, Note_off_c, 0, 71, 70
1, 137473, Note_on_c, 0, 52, 65
1, 137480, Note_on_c, 0, 71, 86
1, 137504, Note_off_c, 0, 52, 64
1, 137508, Note_off_c, 0, 71, 64
1, 137562, Note_on_c, 0, 71, 62
1, 137586, Note_off_c, 0, 71, 70
1, 137624, Note_on_c, 0, 64, 75
1, 137631, Note_on_c, 0, 71, 83
1, 137650, Note_off_c, 0, 64, 68
1, 137659, Note_off_c, 0, 71, 65
1, 137701, Note_on_c, 0, 71, 71
1, 137725, Note_off_c, 0, 71, 63
1, 137772, Note_on_c, 0, 50, 72
1, 137774, Note_on_c, 0, 71, 76
1, 137802, Note_off_c, 0, 50, 68
1, 137803, Note_off_c, 0, 71, 63
1, 137865, Note_on_c, 0, 71, 60
1, 137887, Note_off_c, 0, 71, 63
1, 137938, Note_on_c, 0, 49, 67
1, 137952, Note_on_c, 0, 76, 84
1, 137970, Note_off_c, 0, 49, 64
1, 137973, Note_off_c, 0, 76, 70
1, 138021, Note_on_c, 0, 76, 85
1, 138044, Note_off_c, 0, 76, 70
1, 138085, Note_on_c, 0, 76, 84
1, 138087, Note_on_c, 0, 61, 76
1, 138115, Note_off_c, 0, 76, 65
1, 138121, Note_off_c, 0, 61, 60
1, 138164, Note_on_c, 0, 76, 81
1, 138190, Note_off_c, 0, 76, 67
1, 138235, Note_on_c, 0, 76, 93
1, 138250, Note_on_c, 0, 59, 75
1, 138268, Note_off_c, 0, 76, 67
1, 138285, Note_off_c, 0, 59, 63
1, 138319, Note_on_c, 0, 76, 81
1, 138343, Note_off_c, 0, 76, 68
1, 138393, Note_on_c, 0, 76, 93
1, 138394, Note_on_c, 0, 57, 88
1, 138421, Note_off_c, 0, 57, 66
1, 138429, Note_off_c, 0, 76, 66
1, 138463, Note_on_c, 0, 76, 74
1, 138489, Note_off_c, 0, 76, 68
1, 138536, Note_on_c, 0, 76, 96
1, 138539, Note_on_c, 0, 64, 85
1, 138571, Note_off_c, 0, 76, 66
1, 138577, Note_off_c, 0, 64, 65
1, 138612, Poly_aftertouch_c, 0, 76, 0
1, 138618, Note_on_c, 0, 76, 73
1, 138650, Note_off_c, 0, 76, 63
1, 138688, Note_on_c, 0, 76, 73
1, 138694, Note_on_c, 0, 55, 72
1, 138724, Note_off_c, 0, 76, 62
1, 138727, Note_off_c, 0, 55, 64
1, 138754, Note_on_c, 0, 76, 67
1, 138788, Note_off_c, 0, 76, 66
1, 138846, Note_on_c, 0, 54, 85
1, 138854, Note_on_c, 0, 81, 90
1, 138871, Note_off_c, 0, 54, 66
1, 138871, Note_off_c, 0, 81, 73
1, 138930, Note_on_c, 0, 81, 84
1, 138960, Note_off_c, 0, 81, 65
1, 138988, Note_on_c, 0, 81, 76
1, 139004, Note_on_c, 0, 66, 94
1, 139006, Note_on_c, 0, 54, 90
1, 139021, Note_off_c, 0, 81, 65
1, 139035, Note_off_c, 0, 66, 63
1, 139039, Note_off_c, 0, 54, 64
1, 139065, Note_on_c, 0, 81, 73
1, 139105, Note_off_c, 0, 81, 66
1, 139151, Note_on_c, 0, 81, 87
1, 139156, Note_on_c, 0, 64, 87
1, 139158, Note_on_c, 0, 52, 90
1, 139184, Note_off_c, 0, 64, 67
1, 139189, Note_off_c, 0, 81, 66
1, 139195, Note_off_c, 0, 52, 63
1, 139227, Note_on_c, 0, 81, 78
1, 139271, Note_off_c, 0, 81, 64
1, 139311, Note_on_c, 0, 81, 92
1, 139314, Note_on_c, 0, 62, 90
1, 139320, Note_on_c, 0, 50, 92
1, 139345, Note_off_c, 0, 62, 68
1, 139352, Note_off_c, 0, 50, 72
1, 139353, Note_on_c, 0, 52, 48
1, 139354, Note_off_c, 0, 52, 127
1, 139359, Note_off_c, 0, 81, 66
1, 139392, Note_on_c, 0, 81, 77
1, 139428, Note_off_c, 0, 81, 63
1, 139465, Note_on_c, 0, 62, 93
1, 139468, Note_on_c, 0, 50, 91
1, 139478, Note_on_c, 0, 81, 84
1, 139487, Note_off_c, 0, 62, 70
1, 139490, Note_off_c, 0, 50, 74
1, 139516, Note_off_c, 0, 81, 65
1, 139552, Note_on_c, 0, 81, 71
1, 139593, Note_off_c, 0, 81, 63
1, 139622, Note_on_c, 0, 61, 88
1, 139622, Note_on_c, 0, 49, 88
1, 139632, Note_on_c, 0, 81, 71
1, 139648, Note_off_c, 0, 49, 66
1, 139648, Note_off_c, 0, 61, 63
1, 139663, Note_off_c, 0, 81, 65
1, 139694, Note_on_c, 0, 81, 65
1, 139744, Note_off_c, 0, 81, 66
1, 139779, Note_on_c, 0, 59, 91
1, 139781, Note_on_c, 0, 86, 93
1, 139785, Note_on_c, 0, 47, 83
1, 139797, Note_off_c, 0, 59, 71
1, 139809, Note_off_c, 0, 47, 68
1, 139814, Note_off_c, 0, 86, 63
1, 139817, Note_on_c, 0, 48, 27
1, 139818, Note_off_c, 0, 48, 127
1, 139866, Note_on_c, 0, 85, 75
1, 139930, Note_off_c, 0, 85, 61
1, 139931, Note_on_c, 0, 83, 81
1, 139932, Note_on_c, 0, 55, 84
1, 139940, Note_on_c, 0, 43, 73
1, 139949, Note_on_c, 0, 45, 61
1, 139955, Note_off_c, 0, 55, 68
1, 139962, Note_off_c, 0, 43, 60
1, 139972, Note_off_c, 0, 45, 60
1, 139990, Note_off_c, 0, 83, 64
1, 140006, Note_on_c, 0, 81, 70
1, 140045, Note_off_c, 0, 81, 61
1, 140072, Note_on_c, 0, 79, 71
1, 140084, Note_on_c, 0, 59, 90
1, 140102, Note_on_c, 0, 47, 71
1, 140115, Note_on_c, 0, 48, 50
1, 140115, Note_off_c, 0, 59, 68
1, 140122, Note_off_c, 0, 47, 62
1, 140141, Note_off_c, 0, 48, 56
1, 140142, Note_off_c, 0, 79, 57
1, 140167, Note_on_c, 0, 78, 78
1, 140219, Note_off_c, 0, 78, 64
1, 140245, Note_on_c, 0, 76, 79
1, 140247, Note_on_c, 0, 61, 92
1, 140249, Note_on_c, 0, 49, 96
1, 140269, Note_off_c, 0, 61, 67
1, 140272, Note_off_c, 0, 49, 68
1, 140294, Note_off_c, 0, 76, 65
1, 140310, Note_on_c, 0, 74, 69
1, 140358, Note_off_c, 0, 74, 59
1, 140388, Note_on_c, 0, 57, 98
1, 140391, Note_on_c, 0, 45, 93
1, 140395, Note_on_c, 0, 73, 83
1, 140409, Note_off_c, 0, 57, 71
1, 140413, Note_off_c, 0, 45, 69
1, 140472, Note_on_c, 0, 71, 78
1, 140488, Note_off_c, 0, 73, 59
1, 140540, Note_off_c, 0, 71, 64
1, 140542, Note_on_c, 0, 61, 98
1, 140545, Note_on_c, 0, 69, 74
1, 140546, Note_on_c, 0, 49, 93
1, 140569, Note_off_c, 0, 61, 61
1, 140573, Note_off_c, 0, 49, 64
1, 140601, Note_off_c, 0, 69, 65
1, 140611, Note_on_c, 0, 67, 77
1, 140677, Note_off_c, 0, 67, 60
1, 140707, Note_on_c, 0, 62, 90
1, 140708, Note_on_c, 0, 50, 97
1, 140720, Note_on_c, 0, 66, 72
1, 140792, Note_on_c, 0, 67, 79
1, 140795, Note_off_c, 0, 66, 65
1, 140836, Note_off_c, 0, 62, 58
1, 140873, Note_off_c, 0, 50, 65
1, 140875, Note_on_c, 0, 69, 75
1, 140879, Note_off_c, 0, 67, 63
1, 140950, Note_on_c, 0, 66, 75
1, 140955, Note_off_c, 0, 69, 64
1, 141009, Note_on_c, 0, 54, 82
1, 141028, Note_on_c, 0, 64, 77
1, 141030, Note_off_c, 0, 66, 63
1, 141058, Note_off_c, 0, 54, 65
1, 141082, Note_off_c, 0, 64, 64
1, 141094, Note_on_c, 0, 62, 75
1, 141131, Note_off_c, 0, 62, 63
1, 141160, Note_on_c, 0, 55, 94
1, 141183, Note_on_c, 0, 64, 86
1, 141195, Note_off_c, 0, 55, 65
1, 141246, Note_off_c, 0, 64, 64
1, 141258, Note_on_c, 0, 67, 75
1, 141325, Note_on_c, 0, 57, 88
1, 141335, Note_on_c, 0, 66, 78
1, 141337, Note_off_c, 0, 67, 61
1, 141361, Note_off_c, 0, 57, 65
1, 141412, Note_on_c, 0, 64, 70
1, 141412, Note_off_c, 0, 66, 63
1, 141453, Note_off_c, 0, 64, 62
1, 141463, Note_on_c, 0, 62, 72
1, 141473, Note_on_c, 0, 45, 74
1, 141502, Note_off_c, 0, 45, 65
1, 141521, Note_off_c, 0, 62, 61
1, 141550, Note_on_c, 0, 61, 77
1, 141647, Note_on_c, 0, 50, 77
1, 141651, Note_off_c, 0, 61, 61
1, 141658, Note_on_c, 0, 62, 80
1, 141729, Note_off_c, 0, 62, 63
1, 141801, Control_c, 0, 64, 25
1, 141815, Control_c, 0, 64, 41
1, 141830, Control_c, 0, 64, 49
1, 141845, Control_c, 0, 64, 52
1, 141859, Note_off_c, 0, 50, 65
1, 141860, Control_c, 0, 64, 54
1, 141875, Control_c, 0, 64, 57
1, 141889, Control_c, 0, 64, 59
1, 141904, Control_c, 0, 64, 60
1, 141919, Control_c, 0, 64, 61
1, 141949, Control_c, 0, 64, 60
1, 141963, Control_c, 0, 64, 59
1, 141973, Note_on_c, 0, 74, 91
1, 141978, Control_c, 0, 64, 56
1, 141979, Note_on_c, 0, 50, 99
1, 141979, Note_on_c, 0, 78, 91
1, 141993, Control_c, 0, 64, 55
1, 142008, Control_c, 0, 64, 53
1, 142022, Control_c, 0, 64, 52
1, 142037, Control_c, 0, 64, 51
1, 142052, Control_c, 0, 64, 50
1, 142067, Control_c, 0, 64, 49
1, 142082, Control_c, 0, 64, 48
1, 142096, Control_c, 0, 64, 48
1, 142114, Note_off_c, 0, 74, 60
1, 142116, Note_off_c, 0, 50, 64
1, 142126, Control_c, 0, 64, 45
1, 142140, Note_on_c, 0, 69, 97
1, 142141, Control_c, 0, 64, 0
1, 142143, Note_on_c, 0, 45, 91
1, 142144, Note_on_c, 0, 76, 94
1, 142166, Note_off_c, 0, 78, 64
1, 142181, Note_off_c, 0, 69, 67
1, 142184, Note_off_c, 0, 45, 63
1, 142190, Note_off_c, 0, 76, 64
1, 142292, Note_on_c, 0, 57, 87
1, 142298, Note_on_c, 0, 69, 88
1, 142300, Note_on_c, 0, 76, 89
1, 142327, Note_off_c, 0, 57, 66
1, 142331, Note_off_c, 0, 69, 65
1, 142350, Note_off_c, 0, 76, 64
1, 142463, Note_on_c, 0, 74, 75
1, 142464, Note_on_c, 0, 50, 79
1, 142467, Note_on_c, 0, 66, 82
1, 142496, Note_off_c, 0, 50, 68
1, 142510, Note_off_c, 0, 66, 63
1, 142521, Note_off_c, 0, 74, 62
1, 142616, Note_on_c, 0, 45, 83
1, 142622, Note_on_c, 0, 69, 85
1, 142629, Note_on_c, 0, 76, 86
1, 142653, Note_off_c, 0, 45, 66
1, 142659, Note_off_c, 0, 69, 67
1, 142662, Note_off_c, 0, 76, 60
1, 142769, Note_on_c, 0, 74, 90
1, 142770, Note_on_c, 0, 78, 88
1, 142772, Note_on_c, 0, 57, 84
1, 142794, Note_off_c, 0, 74, 67
1, 142814, Note_off_c, 0, 57, 63
1, 142818, Note_off_c, 0, 78, 64
1, 142919, Note_on_c, 0, 45, 87
1, 142919, Note_on_c, 0, 76, 95
1, 142922, Note_on_c, 0, 79, 89
1, 142953, Note_off_c, 0, 45, 67
1, 143008, Control_c, 0, 64, 23
1, 143023, Control_c, 0, 64, 39
1, 143038, Control_c, 0, 64, 48
1, 143053, Control_c, 0, 64, 54
1, 143067, Control_c, 0, 64, 53
1, 143076, Note_on_c, 0, 50, 95
1, 143081, Note_on_c, 0, 74, 92
1, 143081, Note_on_c, 0, 78, 86
1, 143082, Control_c, 0, 64, 33
1, 143088, Note_off_c, 0, 79, 58
1, 143097, Note_off_c, 0, 76, 62
1, 143105, Control_c, 0, 64, 0
1, 143117, Note_off_c, 0, 74, 65
1, 143118, Note_off_c, 0, 50, 69
1, 143135, Note_off_c, 0, 78, 66
1, 143243, Note_on_c, 0, 74, 88
1, 143243, Note_on_c, 0, 78, 88
1, 143246, Note_on_c, 0, 62, 79
1, 143270, Note_off_c, 0, 74, 65
1, 143273, Note_off_c, 0, 62, 65
1, 143291, Note_off_c, 0, 78, 66
1, 143393, Note_on_c, 0, 57, 82
1, 143395, Note_on_c, 0, 76, 88
1, 143396, Note_on_c, 0, 69, 82
1, 143417, Note_off_c, 0, 57, 69
1, 143428, Note_off_c, 0, 69, 65
1, 143437, Note_off_c, 0, 76, 61
1, 143547, Note_on_c, 0, 50, 90
1, 143550, Note_on_c, 0, 74, 82
1, 143551, Note_on_c, 0, 66, 92
1, 143587, Note_off_c, 0, 66, 66
1, 143591, Note_off_c, 0, 50, 66
1, 143600, Note_off_c, 0, 74, 64
1, 143700, Note_on_c, 0, 69, 90
1, 143702, Note_on_c, 0, 62, 80
1, 143704, Note_on_c, 0, 76, 93
1, 143734, Note_off_c, 0, 62, 65
1, 143734, Note_off_c, 0, 69, 68
1, 143745, Note_off_c, 0, 76, 64
1, 143860, Note_on_c, 0, 74, 87
1, 143860, Note_on_c, 0, 57, 79
1, 143863, Note_on_c, 0, 78, 91
1, 143884, Note_off_c, 0, 57, 67
1, 143983, Note_off_c, 0, 74, 63
1, 144012, Note_on_c, 0, 45, 85
1, 144015, Note_on_c, 0, 76, 87
1, 144016, Note_on_c, 0, 69, 84
1, 144037, Note_off_c, 0, 78, 64
1, 144039, Note_off_c, 0, 45, 68
1, 144054, Note_off_c, 0, 69, 67
1, 144057, Note_off_c, 0, 76, 67
1, 144163, Note_on_c, 0, 57, 77
1, 144172, Note_on_c, 0, 76, 81
1, 144173, Note_on_c, 0, 69, 76
1, 144191, Note_off_c, 0, 57, 67
1, 144197, Note_off_c, 0, 69, 71
1, 144209, Note_off_c, 0, 76, 58
1, 144318, Note_on_c, 0, 50, 77
1, 144322, Note_on_c, 0, 74, 73
1, 144323, Note_on_c, 0, 66, 77
1, 144347, Note_off_c, 0, 66, 68
1, 144352, Note_off_c, 0, 50, 68
1, 144373, Note_off_c, 0, 74, 64
1, 144470, Note_on_c, 0, 45, 72
1, 144474, Note_on_c, 0, 69, 80
1, 144480, Note_on_c, 0, 76, 81
1, 144503, Note_off_c, 0, 69, 65
1, 144505, Note_off_c, 0, 45, 66
1, 144507, Note_off_c, 0, 76, 65
1, 144623, Note_on_c, 0, 78, 86
1, 144623, Note_on_c, 0, 57, 71
1, 144625, Note_on_c, 0, 74, 81
1, 144645, Note_off_c, 0, 74, 71
1, 144660, Note_off_c, 0, 57, 62
1, 144671, Note_off_c, 0, 78, 63
1, 144773, Note_on_c, 0, 79, 83
1, 144776, Note_on_c, 0, 76, 84
1, 144778, Note_on_c, 0, 45, 64
1, 144806, Note_off_c, 0, 45, 66
1, 144919, Note_off_c, 0, 79, 34
1, 144923, Note_off_c, 0, 76, 24
1, 144929, Note_on_c, 0, 38, 67
1, 144936, Note_on_c, 0, 74, 71
1, 144937, Note_on_c, 0, 78, 70
1, 144961, Note_off_c, 0, 74, 69
1, 144965, Note_off_c, 0, 38, 63
1, 144973, Note_off_c, 0, 78, 62
1, 145080, Note_on_c, 0, 74, 65
1, 145081, Note_on_c, 0, 50, 60
1, 145083, Note_on_c, 0, 78, 70
1, 145106, Note_off_c, 0, 74, 68
1, 145109, Note_off_c, 0, 50, 65
1, 145113, Note_off_c, 0, 78, 65
1, 145239, Note_on_c, 0, 45, 50
1, 145241, Note_on_c, 0, 76, 63
1, 145248, Note_on_c, 0, 69, 48
1, 145260, Note_off_c, 0, 76, 64
1, 145267, Note_off_c, 0, 45, 58
1, 145273, Note_off_c, 0, 69, 58
1, 145398, Note_on_c, 0, 74, 69
1, 145406, Note_on_c, 0, 38, 58
1, 145409, Control_c, 0, 67, 8
1, 145424, Control_c, 0, 67, 9
1, 145433, Note_off_c, 0, 38, 55
1, 145449, Note_off_c, 0, 74, 65
1, 145479, Note_on_c, 0, 69, 59
1, 145518, Note_off_c, 0, 69, 62
1, 145557, Note_on_c, 0, 66, 52
1, 145571, Control_c, 0, 67, 9
1, 145613, Note_off_c, 0, 66, 63
1, 145625, Note_on_c, 0, 62, 56
1, 145682, Note_on_c, 0, 81, 72
1, 145690, Note_off_c, 0, 62, 58
1, 145691, Control_c, 0, 67, 10
1, 145697, Note_off_c, 0, 81, 70
1, 145706, Control_c, 0, 67, 12
1, 145711, Note_on_c, 0, 66, 69
1, 145721, Control_c, 0, 67, 15
1, 145735, Control_c, 0, 67, 15
1, 145750, Note_off_c, 0, 66, 63
1, 145750, Control_c, 0, 67, 16
1, 145766, Control_c, 0, 67, 16
1, 145781, Control_c, 0, 67, 17
1, 145786, Note_on_c, 0, 74, 66
1, 145796, Control_c, 0, 67, 19
1, 145810, Control_c, 0, 67, 20
1, 145825, Control_c, 0, 67, 23
1, 145840, Control_c, 0, 67, 25
1, 145851, Note_off_c, 0, 74, 63
1, 145855, Control_c, 0, 67, 26
1, 145863, Note_on_c, 0, 76, 66
1, 145868, Note_on_c, 0, 45, 71
1, 145899, Note_off_c, 0, 45, 66
1, 145914, Control_c, 0, 67, 25
1, 145929, Control_c, 0, 67, 24
1, 145936, Note_on_c, 0, 73, 76
1, 145937, Note_off_c, 0, 76, 52
1, 145944, Control_c, 0, 67, 22
1, 145959, Control_c, 0, 67, 21
1, 145974, Control_c, 0, 67, 21
1, 146016, Note_on_c, 0, 69, 64
1, 146025, Note_off_c, 0, 73, 57
1, 146048, Control_c, 0, 67, 20
1, 146062, Control_c, 0, 67, 20
1, 146077, Control_c, 0, 67, 19
1, 146090, Note_off_c, 0, 69, 64
1, 146099, Control_c, 0, 67, 18
1, 146111, Note_on_c, 0, 64, 45
1, 146114, Control_c, 0, 67, 17
1, 146129, Control_c, 0, 67, 16
1, 146144, Control_c, 0, 67, 15
1, 146159, Control_c, 0, 67, 15
1, 146174, Control_c, 0, 64, 19
1, 146174, Control_c, 0, 67, 15
1, 146174, Note_on_c, 0, 81, 72
1, 146188, Control_c, 0, 64, 30
1, 146188, Control_c, 0, 67, 16
1, 146190, Note_on_c, 0, 69, 56
1, 146197, Note_off_c, 0, 81, 71
1, 146203, Control_c, 0, 64, 34
1, 146203, Control_c, 0, 67, 16
1, 146213, Note_off_c, 0, 64, 51
1, 146218, Control_c, 0, 64, 34
1, 146218, Control_c, 0, 67, 17
1, 146233, Control_c, 0, 64, 32
1, 146248, Control_c, 0, 64, 26
1, 146253, Note_on_c, 0, 73, 52
1, 146262, Control_c, 0, 64, 0
1, 146262, Control_c, 0, 67, 17
1, 146277, Control_c, 0, 67, 18
1, 146288, Note_off_c, 0, 69, 63
1, 146292, Control_c, 0, 67, 18
1, 146322, Control_c, 0, 67, 19
1, 146329, Note_on_c, 0, 74, 67
1, 146344, Note_off_c, 0, 73, 59
1, 146351, Control_c, 0, 67, 20
1, 146358, Note_on_c, 0, 38, 63
1, 146385, Note_off_c, 0, 38, 59
1, 146403, Note_off_c, 0, 74, 61
1, 146409, Note_on_c, 0, 69, 65
1, 146412, Control_c, 0, 67, 19
1, 146427, Control_c, 0, 67, 18
1, 146441, Control_c, 0, 67, 16
1, 146456, Control_c, 0, 67, 15
1, 146471, Control_c, 0, 67, 14
1, 146481, Note_off_c, 0, 69, 64
1, 146485, Control_c, 0, 67, 13
1, 146489, Note_on_c, 0, 66, 59
1, 146500, Control_c, 0, 67, 10
1, 146515, Control_c, 0, 67, 0
1, 146534, Note_off_c, 0, 66, 63
1, 146551, Note_on_c, 0, 62, 54
1, 146603, Control_c, 0, 64, 25
1, 146618, Control_c, 0, 64, 34
1, 146626, Note_off_c, 0, 62, 61
1, 146633, Control_c, 0, 64, 38
1, 146639, Note_on_c, 0, 66, 69
1, 146643, Note_on_c, 0, 81, 80
1, 146648, Control_c, 0, 64, 39
1, 146661, Note_off_c, 0, 81, 74
1, 146663, Control_c, 0, 64, 38
1, 146677, Control_c, 0, 64, 37
1, 146690, Note_off_c, 0, 66, 63
1, 146692, Control_c, 0, 64, 32
1, 146707, Control_c, 0, 64, 21
1, 146708, Note_on_c, 0, 74, 68
1, 146722, Control_c, 0, 64, 0
1, 146787, Note_off_c, 0, 74, 62
1, 146792, Note_on_c, 0, 76, 67
1, 146835, Note_on_c, 0, 43, 49
1, 146855, Note_on_c, 0, 45, 30
1, 146867, Note_off_c, 0, 43, 53
1, 146877, Note_off_c, 0, 76, 60
1, 146878, Note_on_c, 0, 73, 72
1, 146892, Note_off_c, 0, 45, 53
1, 146958, Note_off_c, 0, 73, 62
1, 146959, Note_on_c, 0, 69, 64
1, 147029, Note_off_c, 0, 69, 65
1, 147042, Note_on_c, 0, 64, 57
1, 147114, Note_on_c, 0, 81, 88
1, 147130, Note_off_c, 0, 81, 76
1, 147132, Note_on_c, 0, 69, 61
1, 147132, Note_off_c, 0, 64, 59
1, 147192, Note_on_c, 0, 73, 64
1, 147215, Note_off_c, 0, 69, 51
1, 147278, Note_on_c, 0, 74, 59
1, 147281, Note_on_c, 0, 38, 78
1, 147281, Note_off_c, 0, 73, 60
1, 147313, Note_off_c, 0, 38, 65
1, 147353, Note_off_c, 0, 74, 63
1, 147354, Note_on_c, 0, 69, 66
1, 147427, Note_off_c, 0, 69, 65
1, 147436, Note_on_c, 0, 66, 67
1, 147494, Note_off_c, 0, 66, 62
1, 147509, Note_on_c, 0, 62, 64
1, 147583, Note_off_c, 0, 62, 59
1, 147589, Note_on_c, 0, 81, 80
1, 147593, Note_on_c, 0, 66, 71
1, 147610, Note_off_c, 0, 81, 73
1, 147636, Note_off_c, 0, 66, 62
1, 147661, Note_on_c, 0, 74, 71
1, 147734, Note_off_c, 0, 74, 63
1, 147748, Note_on_c, 0, 76, 65
1, 147768, Note_on_c, 0, 45, 76
1, 147793, Note_off_c, 0, 45, 67
1, 147822, Note_off_c, 0, 76, 57
1, 147830, Note_on_c, 0, 73, 72
1, 147913, Note_on_c, 0, 69, 60
1, 147913, Note_off_c, 0, 73, 59
1, 147990, Note_off_c, 0, 69, 65
1, 147997, Note_on_c, 0, 64, 54
1, 148066, Note_on_c, 0, 81, 76
1, 148075, Note_off_c, 0, 64, 59
1, 148078, Note_on_c, 0, 69, 55
1, 148086, Note_off_c, 0, 81, 73
1, 148150, Note_on_c, 0, 73, 62
1, 148157, Note_off_c, 0, 69, 65
1, 148198, Note_off_c, 0, 73, 57
1, 148252, Note_on_c, 0, 50, 44
1, 148254, Note_on_c, 0, 74, 57
1, 148254, Note_on_c, 0, 40, 48
1, 148255, Note_on_c, 0, 52, 51
1, 148275, Note_off_c, 0, 74, 64
1, 148287, Note_off_c, 0, 40, 50
1, 148335, Note_on_c, 0, 74, 70
1, 148355, Note_off_c, 0, 52, 60
1, 148389, Note_off_c, 0, 50, 44
1, 148400, Note_on_c, 0, 73, 81
1, 148401, Note_off_c, 0, 74, 62
1, 148412, Note_on_c, 0, 52, 68
1, 148454, Note_off_c, 0, 52, 64
1, 148471, Note_on_c, 0, 71, 73
1, 148477, Note_off_c, 0, 73, 64
1, 148522, Note_off_c, 0, 71, 64
1, 148539, Note_on_c, 0, 69, 72
1, 148550, Note_on_c, 0, 54, 91
1, 148581, Note_off_c, 0, 69, 63
1, 148586, Note_off_c, 0, 54, 67
1, 148621, Note_on_c, 0, 71, 80
1, 148671, Note_off_c, 0, 71, 59
1, 148700, Note_on_c, 0, 55, 94
1, 148700, Note_on_c, 0, 69, 78
1, 148734, Note_off_c, 0, 55, 67
1, 148749, Note_off_c, 0, 69, 65
1, 148779, Note_on_c, 0, 67, 80
1, 148830, Note_off_c, 0, 67, 57
1, 148850, Note_on_c, 0, 57, 88
1, 148868, Note_on_c, 0, 66, 76
1, 148886, Note_off_c, 0, 57, 65
1, 148943, Note_off_c, 0, 66, 61
1, 148964, Note_on_c, 0, 64, 47
1, 148964, Note_on_c, 0, 65, 47
1, 148995, Note_off_c, 0, 64, 65
1, 148995, Note_off_c, 0, 65, 60
1, 149005, Note_on_c, 0, 45, 66
1, 149007, Note_on_c, 0, 62, 66
1, 149035, Note_off_c, 0, 45, 65
1, 149083, Note_on_c, 0, 61, 78
1, 149087, Note_off_c, 0, 62, 57
1, 149105, Note_off_c, 0, 61, 68
1, 149187, Note_on_c, 0, 74, 81
1, 149190, Note_on_c, 0, 38, 78
1, 149192, Note_on_c, 0, 72, 88
1, 149200, Note_on_c, 0, 40, 65
1, 149214, Control_c, 0, 64, 20
1, 149215, Note_off_c, 0, 38, 66
1, 149226, Note_off_c, 0, 40, 57
1, 149229, Control_c, 0, 64, 41
1, 149244, Control_c, 0, 64, 0
1, 149254, Note_off_c, 0, 72, 58
1, 149256, Note_on_c, 0, 69, 85
1, 149260, Note_off_c, 0, 74, 62
1, 149332, Note_on_c, 0, 66, 82
1, 149351, Note_off_c, 0, 69, 57
1, 149397, Note_off_c, 0, 66, 63
1, 149404, Note_on_c, 0, 62, 74
1, 149489, Note_on_c, 0, 66, 86
1, 149491, Note_off_c, 0, 62, 54
1, 149494, Note_on_c, 0, 81, 100
1, 149508, Note_off_c, 0, 81, 77
1, 149553, Note_off_c, 0, 66, 64
1, 149568, Note_on_c, 0, 74, 71
1, 149654, Note_off_c, 0, 74, 65
1, 149655, Note_on_c, 0, 76, 85
1, 149664, Note_on_c, 0, 45, 91
1, 149695, Note_off_c, 0, 45, 69
1, 149742, Note_on_c, 0, 73, 88
1, 149742, Note_off_c, 0, 76, 58
1, 149834, Note_on_c, 0, 69, 74
1, 149846, Note_off_c, 0, 73, 61
1, 149893, Note_on_c, 0, 64, 68
1, 149896, Note_off_c, 0, 69, 64
1, 149974, Note_on_c, 0, 81, 95
1, 149977, Note_on_c, 0, 69, 72
1, 149979, Note_off_c, 0, 64, 59
1, 149989, Note_off_c, 0, 81, 76
1, 150046, Note_on_c, 0, 73, 80
1, 150054, Note_off_c, 0, 69, 65
1, 150114, Note_off_c, 0, 73, 63
1, 150141, Note_on_c, 0, 40, 87
1, 150150, Note_on_c, 0, 74, 89
1, 150174, Note_off_c, 0, 40, 64
1, 150226, Note_off_c, 0, 74, 44
1, 150229, Note_on_c, 0, 69, 72
1, 150298, Note_on_c, 0, 66, 75
1, 150302, Note_off_c, 0, 69, 65
1, 150365, Note_off_c, 0, 66, 62
1, 150374, Note_on_c, 0, 62, 74
1, 150448, Note_on_c, 0, 81, 92
1, 150450, Note_off_c, 0, 62, 52
1, 150458, Note_on_c, 0, 66, 82
1, 150468, Note_off_c, 0, 81, 68
1, 150517, Note_off_c, 0, 66, 64
1, 150524, Note_on_c, 0, 74, 78
1, 150609, Note_on_c, 0, 76, 82
1, 150615, Note_off_c, 0, 74, 63
1, 150621, Note_on_c, 0, 45, 82
1, 150630, Note_on_c, 0, 47, 72
1, 150651, Note_off_c, 0, 47, 63
1, 150653, Note_off_c, 0, 45, 66
1, 150696, Note_off_c, 0, 76, 55
1, 150696, Note_on_c, 0, 73, 85
1, 150778, Note_on_c, 0, 69, 74
1, 150796, Note_off_c, 0, 73, 59
1, 150843, Note_on_c, 0, 64, 71
1, 150850, Note_off_c, 0, 69, 65
1, 150919, Note_on_c, 0, 81, 89
1, 150929, Note_on_c, 0, 69, 68
1, 150934, Note_off_c, 0, 81, 75
1, 150957, Note_off_c, 0, 64, 61
1, 150997, Note_on_c, 0, 73, 74
1, 151017, Note_off_c, 0, 69, 60
1, 151086, Note_off_c, 0, 73, 62
1, 151093, Note_on_c, 0, 74, 76
1, 151097, Note_on_c, 0, 38, 82
1, 151122, Note_off_c, 0, 38, 64
1, 151156, Note_on_c, 0, 69, 71
1, 151167, Note_off_c, 0, 74, 56
1, 151240, Note_on_c, 0, 66, 77
1, 151253, Note_off_c, 0, 69, 58
1, 151304, Note_off_c, 0, 66, 63
1, 151316, Note_on_c, 0, 62, 72
1, 151391, Note_on_c, 0, 81, 100
1, 151399, Note_on_c, 0, 66, 83
1, 151400, Note_off_c, 0, 62, 59
1, 151416, Note_off_c, 0, 81, 70
1, 151465, Note_off_c, 0, 66, 63
1, 151470, Note_on_c, 0, 74, 77
1, 151554, Note_on_c, 0, 76, 83
1, 151559, Note_off_c, 0, 74, 65
1, 151564, Note_on_c, 0, 43, 83
1, 151595, Note_off_c, 0, 43, 66
1, 151641, Note_on_c, 0, 73, 82
1, 151643, Note_off_c, 0, 76, 60
1, 151720, Note_on_c, 0, 69, 72
1, 151759, Note_off_c, 0, 73, 60
1, 151793, Note_on_c, 0, 64, 69
1, 151795, Note_off_c, 0, 69, 65
1, 151849, Note_on_c, 0, 83, 72
1, 151857, Note_on_c, 0, 81, 72
1, 151864, Note_off_c, 0, 83, 68
1, 151871, Note_off_c, 0, 81, 70
1, 151875, Note_on_c, 0, 69, 72
1, 151877, Note_off_c, 0, 64, 62
1, 151940, Note_on_c, 0, 73, 81
1, 151946, Note_off_c, 0, 69, 66
1, 151986, Note_off_c, 0, 73, 62
1, 152019, Note_on_c, 0, 50, 79
1, 152026, Note_on_c, 0, 38, 68
1, 152034, Note_on_c, 0, 74, 84
1, 152040, Note_on_c, 0, 48, 39
1, 152050, Note_off_c, 0, 38, 59
1, 152063, Note_off_c, 0, 74, 66
1, 152081, Note_off_c, 0, 48, 49
1, 152114, Note_on_c, 0, 74, 78
1, 152126, Note_off_c, 0, 50, 58
1, 152183, Note_off_c, 0, 74, 47
1, 152186, Note_on_c, 0, 52, 85
1, 152188, Note_on_c, 0, 73, 89
1, 152228, Note_off_c, 0, 52, 63
1, 152258, Note_on_c, 0, 71, 77
1, 152273, Note_off_c, 0, 73, 63
1, 152318, Note_off_c, 0, 71, 65
1, 152329, Note_on_c, 0, 69, 71
1, 152333, Note_on_c, 0, 54, 90
1, 152371, Note_off_c, 0, 54, 66
1, 152372, Note_off_c, 0, 69, 61
1, 152410, Note_on_c, 0, 71, 79
1, 152458, Note_off_c, 0, 71, 62
1, 152488, Note_on_c, 0, 55, 94
1, 152489, Note_on_c, 0, 69, 73
1, 152523, Note_off_c, 0, 55, 65
1, 152543, Note_off_c, 0, 69, 66
1, 152567, Note_on_c, 0, 67, 75
1, 152621, Note_off_c, 0, 67, 54
1, 152640, Note_on_c, 0, 57, 85
1, 152655, Note_on_c, 0, 66, 73
1, 152679, Note_off_c, 0, 57, 66
1, 152730, Note_on_c, 0, 64, 67
1, 152734, Note_off_c, 0, 66, 60
1, 152788, Note_off_c, 0, 64, 63
1, 152800, Note_on_c, 0, 45, 57
1, 152809, Note_on_c, 0, 62, 54
1, 152857, Note_off_c, 0, 45, 55
1, 152866, Note_off_c, 0, 62, 57
1, 152897, Note_on_c, 0, 61, 52
1, 152962, Note_off_c, 0, 61, 59
1, 152970, Note_on_c, 0, 50, 54
1, 152988, Note_on_c, 0, 62, 56
1, 152988, Control_c, 0, 64, 38
1, 153003, Control_c, 0, 64, 52
1, 153009, Note_off_c, 0, 50, 66
1, 153018, Control_c, 0, 64, 59
1, 153033, Control_c, 0, 64, 61
1, 153036, Note_off_c, 0, 62, 61
1, 153047, Control_c, 0, 64, 62
1, 153062, Control_c, 0, 64, 64
1, 153077, Control_c, 0, 64, 66
1, 153092, Control_c, 0, 64, 68
1, 153107, Control_c, 0, 64, 71
1, 153121, Control_c, 0, 64, 72
1, 153136, Control_c, 0, 64, 73
1, 153158, Note_on_c, 0, 62, 56
1, 153166, Control_c, 0, 64, 74
1, 153170, Note_on_c, 0, 77, 52
1, 153179, Note_on_c, 0, 65, 42
1, 153225, Control_c, 0, 64, 73
1, 153240, Control_c, 0, 64, 72
1, 153253, Control_c, 0, 64, 71
1, 153268, Control_c, 0, 64, 70
1, 153283, Control_c, 0, 64, 69
1, 153298, Control_c, 0, 64, 67
1, 153313, Control_c, 0, 64, 66
1, 153321, Note_off_c, 0, 62, 59
1, 153325, Note_on_c, 0, 60, 61
1, 153328, Control_c, 0, 64, 64
1, 153343, Control_c, 0, 64, 63
1, 153358, Control_c, 0, 64, 62
1, 153372, Control_c, 0, 64, 61
1, 153387, Control_c, 0, 64, 57
1, 153402, Control_c, 0, 64, 53
1, 153417, Control_c, 0, 64, 48
1, 153432, Control_c, 0, 64, 42
1, 153446, Control_c, 0, 64, 34
1, 153461, Control_c, 0, 64, 30
1, 153490, Note_on_c, 0, 58, 65
1, 153491, Control_c, 0, 64, 31
1, 153499, Note_off_c, 0, 60, 63
1, 153506, Control_c, 0, 64, 37
1, 153520, Control_c, 0, 64, 43
1, 153533, Note_off_c, 0, 77, 61
1, 153535, Control_c, 0, 64, 48
1, 153550, Control_c, 0, 64, 50
1, 153551, Note_off_c, 0, 65, 52
1, 153565, Control_c, 0, 64, 53
1, 153587, Control_c, 0, 64, 57
1, 153602, Control_c, 0, 64, 58
1, 153632, Control_c, 0, 64, 59
1, 153662, Control_c, 0, 64, 58
1, 153668, Note_on_c, 0, 77, 65
1, 153670, Note_off_c, 0, 58, 59
1, 153671, Note_on_c, 0, 62, 60
1, 153672, Note_on_c, 0, 65, 60
1, 153676, Control_c, 0, 64, 58
1, 153691, Control_c, 0, 64, 57
1, 153706, Control_c, 0, 64, 56
1, 153721, Control_c, 0, 64, 55
1, 153736, Control_c, 0, 64, 54
1, 153751, Control_c, 0, 64, 52
1, 153766, Control_c, 0, 64, 50
1, 153781, Control_c, 0, 64, 48
1, 153796, Control_c, 0, 64, 44
1, 153810, Control_c, 0, 64, 39
1, 153818, Note_on_c, 0, 57, 69
1, 153825, Control_c, 0, 64, 33
1, 153827, Note_off_c, 0, 62, 59
1, 153840, Control_c, 0, 64, 29
1, 153855, Control_c, 0, 64, 24
1, 153870, Control_c, 0, 64, 14
1, 153884, Control_c, 0, 64, 0
1, 153928, Note_off_c, 0, 65, 37
1, 153981, Note_on_c, 0, 55, 64
1, 154003, Note_off_c, 0, 57, 61
1, 154150, Note_on_c, 0, 79, 67
1, 154156, Note_on_c, 0, 67, 62
1, 154168, Note_off_c, 0, 77, 54
1, 154177, Note_off_c, 0, 67, 61
1, 154177, Note_off_c, 0, 79, 67
1, 154301, Note_on_c, 0, 43, 63
1, 154311, Note_on_c, 0, 76, 76
1, 154326, Note_on_c, 0, 64, 56
1, 154333, Note_off_c, 0, 43, 58
1, 154335, Note_off_c, 0, 55, 37
1, 154347, Note_off_c, 0, 76, 62
1, 154348, Note_off_c, 0, 64, 61
1, 154472, Note_on_c, 0, 45, 59
1, 154477, Note_on_c, 0, 74, 62
1, 154478, Note_on_c, 0, 62, 56
1, 154541, Note_off_c, 0, 62, 47
1, 154548, Note_off_c, 0, 74, 60
1, 154638, Note_on_c, 0, 62, 62
1, 154642, Note_on_c, 0, 74, 44
1, 154670, Note_off_c, 0, 74, 57
1, 154672, Note_off_c, 0, 62, 65
1, 154705, Note_off_c, 0, 45, 37
1, 154782, Note_on_c, 0, 73, 61
1, 154783, Note_on_c, 0, 57, 53
1, 154785, Note_on_c, 0, 61, 54
1, 154809, Note_off_c, 0, 61, 62
1, 154831, Note_off_c, 0, 57, 57
1, 154850, Note_off_c, 0, 73, 54
1, 154931, Note_on_c, 0, 50, 70
1, 154938, Note_on_c, 0, 62, 60
1, 154942, Note_on_c, 0, 74, 57
1, 154959, Note_off_c, 0, 50, 69
1, 154964, Note_off_c, 0, 62, 59
1, 154997, Note_off_c, 0, 74, 65
1, 155105, Note_on_c, 0, 62, 59
1, 155131, Note_on_c, 0, 66, 60
1, 155131, Note_on_c, 0, 78, 61
1, 155279, Note_on_c, 0, 61, 77
1, 155311, Note_off_c, 0, 62, 56
1, 155400, Note_off_c, 0, 66, 50
1, 155410, Note_off_c, 0, 78, 65
1, 155446, Note_on_c, 0, 59, 78
1, 155477, Note_off_c, 0, 61, 63
1, 155603, Note_on_c, 0, 78, 49
1, 155608, Note_on_c, 0, 66, 52
1, 155618, Note_on_c, 0, 62, 80
1, 155648, Note_off_c, 0, 59, 62
1, 155769, Note_on_c, 0, 57, 81
1, 155799, Note_off_c, 0, 62, 59
1, 155929, Note_on_c, 0, 55, 79
1, 155930, Note_off_c, 0, 66, 43
1, 155949, Note_off_c, 0, 57, 54
1, 155990, Note_off_c, 0, 78, 61
1, 156094, Note_on_c, 0, 67, 84
1, 156094, Note_on_c, 0, 79, 81
1, 156115, Note_off_c, 0, 79, 70
1, 156118, Note_off_c, 0, 67, 68
1, 156189, Note_off_c, 0, 55, 47
1, 156234, Note_on_c, 0, 43, 81
1, 156245, Note_on_c, 0, 76, 87
1, 156249, Note_on_c, 0, 64, 75
1, 156270, Note_off_c, 0, 43, 64
1, 156271, Note_off_c, 0, 76, 57
1, 156274, Note_off_c, 0, 64, 67
1, 156388, Note_on_c, 0, 45, 82
1, 156392, Note_on_c, 0, 74, 85
1, 156396, Note_on_c, 0, 62, 77
1, 156460, Note_off_c, 0, 62, 58
1, 156470, Note_off_c, 0, 74, 61
1, 156517, Control_c, 0, 64, 13
1, 156532, Control_c, 0, 64, 28
1, 156546, Control_c, 0, 64, 33
1, 156555, Note_on_c, 0, 74, 76
1, 156558, Note_on_c, 0, 62, 75
1, 156561, Control_c, 0, 64, 35
1, 156580, Note_off_c, 0, 74, 69
1, 156583, Control_c, 0, 64, 34
1, 156593, Note_off_c, 0, 62, 67
1, 156598, Control_c, 0, 64, 28
1, 156613, Control_c, 0, 64, 0
1, 156617, Note_off_c, 0, 45, 54
1, 156705, Note_on_c, 0, 57, 78
1, 156707, Note_on_c, 0, 73, 83
1, 156708, Note_on_c, 0, 61, 82
1, 156735, Note_off_c, 0, 61, 65
1, 156745, Note_off_c, 0, 57, 59
1, 156766, Note_off_c, 0, 73, 61
1, 156854, Note_on_c, 0, 50, 84
1, 156856, Note_on_c, 0, 74, 92
1, 156867, Note_on_c, 0, 62, 61
1, 156886, Note_off_c, 0, 74, 65
1, 156888, Note_off_c, 0, 62, 62
1, 156894, Note_off_c, 0, 50, 67
1, 156925, Control_c, 0, 64, 20
1, 156940, Control_c, 0, 64, 31
1, 156955, Control_c, 0, 64, 34
1, 156984, Control_c, 0, 64, 31
1, 156997, Control_c, 0, 64, 23
1, 157003, Note_on_c, 0, 86, 103
1, 157006, Note_on_c, 0, 74, 86
1, 157012, Control_c, 0, 64, 0
1, 157018, Note_off_c, 0, 86, 73
1, 157025, Note_off_c, 0, 74, 73
1, 157164, Note_on_c, 0, 83, 89
1, 157170, Note_on_c, 0, 71, 82
1, 157186, Note_on_c, 0, 62, 60
1, 157214, Note_off_c, 0, 62, 64
1, 157344, Note_on_c, 0, 61, 66
1, 157415, Note_off_c, 0, 83, 63
1, 157433, Note_off_c, 0, 71, 65
1, 157449, Control_c, 0, 64, 14
1, 157464, Control_c, 0, 64, 37
1, 157479, Control_c, 0, 64, 47
1, 157493, Control_c, 0, 64, 51
1, 157508, Control_c, 0, 64, 53
1, 157509, Note_on_c, 0, 81, 78
1, 157514, Note_on_c, 0, 69, 69
1, 157523, Control_c, 0, 64, 55
1, 157538, Control_c, 0, 64, 57
1, 157546, Note_off_c, 0, 81, 66
1, 157552, Control_c, 0, 64, 58
1, 157555, Note_off_c, 0, 69, 61
1, 157582, Control_c, 0, 64, 57
1, 157608, Note_off_c, 0, 61, 62
1, 157613, Control_c, 0, 64, 56
1, 157628, Control_c, 0, 64, 55
1, 157642, Control_c, 0, 64, 53
1, 157657, Control_c, 0, 64, 52
1, 157658, Note_on_c, 0, 79, 77
1, 157664, Note_on_c, 0, 67, 74
1, 157672, Control_c, 0, 64, 50
1, 157687, Control_c, 0, 64, 49
1, 157693, Note_off_c, 0, 79, 51
1, 157695, Note_off_c, 0, 67, 63
1, 157702, Control_c, 0, 64, 47
1, 157716, Control_c, 0, 64, 45
1, 157731, Control_c, 0, 64, 42
1, 157746, Control_c, 0, 64, 41
1, 157775, Control_c, 0, 64, 40
1, 157790, Control_c, 0, 64, 37
1, 157805, Control_c, 0, 64, 32
1, 157814, Note_on_c, 0, 66, 67
1, 157816, Note_on_c, 0, 78, 67
1, 157819, Note_on_c, 0, 50, 53
1, 157820, Control_c, 0, 64, 27
1, 157832, Note_off_c, 0, 66, 66
1, 157835, Control_c, 0, 64, 22
1, 157850, Control_c, 0, 64, 14
1, 157853, Note_off_c, 0, 78, 62
1, 157865, Control_c, 0, 64, 0
1, 157950, Note_on_c, 0, 86, 78
1, 157954, Note_on_c, 0, 74, 66
1, 157972, Note_off_c, 0, 74, 68
1, 157972, Note_off_c, 0, 86, 66
1, 157983, Note_off_c, 0, 50, 37
1, 158125, Note_on_c, 0, 55, 53
1, 158127, Note_on_c, 0, 82, 66
1, 158138, Note_on_c, 0, 70, 59
1, 158155, Note_off_c, 0, 55, 62
1, 158293, Note_on_c, 0, 57, 57
1, 158351, Note_off_c, 0, 70, 63
1, 158356, Note_off_c, 0, 82, 62
1, 158421, Control_c, 0, 64, 16
1, 158436, Control_c, 0, 64, 28
1, 158442, Note_on_c, 0, 81, 73
1, 158448, Note_on_c, 0, 69, 61
1, 158451, Control_c, 0, 64, 34
1, 158463, Note_off_c, 0, 81, 72
1, 158465, Control_c, 0, 64, 36
1, 158467, Note_off_c, 0, 69, 64
1, 158480, Control_c, 0, 64, 37
1, 158496, Control_c, 0, 64, 35
1, 158511, Control_c, 0, 64, 29
1, 158520, Note_off_c, 0, 57, 52
1, 158526, Control_c, 0, 64, 0
1, 158589, Note_on_c, 0, 79, 90
1, 158589, Note_on_c, 0, 67, 84
1, 158597, Note_on_c, 0, 45, 64
1, 158607, Note_off_c, 0, 79, 70
1, 158612, Note_off_c, 0, 67, 69
1, 158664, Note_off_c, 0, 45, 53
1, 158739, Note_on_c, 0, 77, 97
1, 158741, Note_on_c, 0, 50, 87
1, 158741, Note_on_c, 0, 65, 90
1, 158760, Note_off_c, 0, 65, 72
1, 158768, Note_off_c, 0, 77, 63
1, 158777, Control_c, 0, 64, 12
1, 158783, Note_off_c, 0, 50, 66
1, 158792, Control_c, 0, 64, 30
1, 158814, Control_c, 0, 64, 46
1, 158829, Control_c, 0, 64, 54
1, 158844, Control_c, 0, 64, 57
1, 158873, Control_c, 0, 64, 55
1, 158888, Control_c, 0, 64, 49
1, 158899, Note_on_c, 0, 86, 99
1, 158902, Note_on_c, 0, 74, 88
1, 158903, Control_c, 0, 64, 0
1, 158914, Note_off_c, 0, 86, 75
1, 158919, Note_off_c, 0, 74, 74
1, 159058, Note_on_c, 0, 83, 96
1, 159060, Note_on_c, 0, 71, 89
1, 159066, Note_on_c, 0, 62, 77
1, 159100, Note_off_c, 0, 62, 65
1, 159227, Note_on_c, 0, 61, 80
1, 159290, Note_off_c, 0, 83, 61
1, 159311, Note_off_c, 0, 71, 64
1, 159348, Control_c, 0, 64, 26
1, 159363, Control_c, 0, 64, 44
1, 159378, Control_c, 0, 64, 50
1, 159391, Note_on_c, 0, 81, 79
1, 159393, Control_c, 0, 64, 51
1, 159399, Note_on_c, 0, 69, 71
1, 159408, Control_c, 0, 64, 52
1, 159411, Note_off_c, 0, 81, 68
1, 159422, Control_c, 0, 64, 51
1, 159429, Note_off_c, 0, 69, 67
1, 159437, Control_c, 0, 64, 48
1, 159452, Control_c, 0, 64, 42
1, 159453, Note_off_c, 0, 61, 61
1, 159467, Control_c, 0, 64, 27
1, 159482, Control_c, 0, 64, 0
1, 159536, Note_on_c, 0, 79, 71
1, 159540, Note_on_c, 0, 67, 71
1, 159554, Note_off_c, 0, 79, 66
1, 159576, Note_off_c, 0, 67, 67
1, 159697, Note_on_c, 0, 50, 54
1, 159699, Note_on_c, 0, 78, 67
1, 159700, Note_on_c, 0, 66, 53
1, 159722, Note_off_c, 0, 66, 60
1, 159738, Note_off_c, 0, 78, 64
1, 159845, Note_on_c, 0, 86, 74
1, 159860, Note_off_c, 0, 86, 70
1, 159863, Note_on_c, 0, 74, 46
1, 159864, Note_off_c, 0, 50, 38
1, 159888, Note_off_c, 0, 74, 59
1, 160005, Note_on_c, 0, 55, 46
1, 160018, Note_on_c, 0, 70, 58
1, 160020, Note_on_c, 0, 82, 55
1, 160032, Note_off_c, 0, 55, 56
1, 160082, Control_c, 0, 67, 8
1, 160097, Control_c, 0, 67, 9
1, 160111, Control_c, 0, 67, 10
1, 160126, Control_c, 0, 67, 11
1, 160141, Control_c, 0, 67, 12
1, 160156, Control_c, 0, 67, 13
1, 160170, Control_c, 0, 67, 15
1, 160178, Note_on_c, 0, 57, 50
1, 160185, Control_c, 0, 67, 16
1, 160200, Control_c, 0, 67, 18
1, 160213, Note_off_c, 0, 82, 59
1, 160215, Note_off_c, 0, 70, 63
1, 160215, Control_c, 0, 67, 20
1, 160230, Control_c, 0, 67, 22
1, 160244, Control_c, 0, 67, 25
1, 160259, Control_c, 0, 67, 27
1, 160274, Control_c, 0, 67, 29
1, 160289, Control_c, 0, 67, 31
1, 160304, Control_c, 0, 67, 32
1, 160321, Note_on_c, 0, 81, 59
1, 160326, Control_c, 0, 67, 34
1, 160328, Note_on_c, 0, 69, 52
1, 160340, Note_off_c, 0, 81, 62
1, 160341, Control_c, 0, 67, 36
1, 160353, Note_off_c, 0, 69, 59
1, 160356, Control_c, 0, 64, 23
1, 160356, Control_c, 0, 67, 38
1, 160370, Control_c, 0, 64, 33
1, 160370, Control_c, 0, 67, 39
1, 160385, Control_c, 0, 64, 41
1, 160385, Control_c, 0, 67, 39
1, 160400, Control_c, 0, 64, 48
1, 160415, Control_c, 0, 64, 52
1, 160415, Control_c, 0, 67, 40
1, 160423, Note_off_c, 0, 57, 37
1, 160430, Control_c, 0, 64, 54
1, 160444, Control_c, 0, 64, 56
1, 160459, Control_c, 0, 64, 57
1, 160474, Control_c, 0, 64, 58
1, 160476, Note_on_c, 0, 67, 71
1, 160477, Note_on_c, 0, 79, 67
1, 160478, Note_on_c, 0, 45, 34
1, 160489, Control_c, 0, 64, 59
1, 160494, Note_off_c, 0, 79, 65
1, 160501, Note_off_c, 0, 67, 62
1, 160504, Control_c, 0, 64, 60
1, 160518, Control_c, 0, 64, 61
1, 160533, Control_c, 0, 64, 61
1, 160562, Control_c, 0, 67, 39
1, 160577, Control_c, 0, 67, 39
1, 160592, Control_c, 0, 67, 38
1, 160607, Control_c, 0, 64, 59
1, 160607, Control_c, 0, 67, 38
1, 160622, Control_c, 0, 64, 55
1, 160622, Control_c, 0, 67, 37
1, 160625, Note_on_c, 0, 65, 78
1, 160627, Note_on_c, 0, 77, 74
1, 160637, Control_c, 0, 64, 50
1, 160637, Control_c, 0, 67, 36
1, 160637, Note_on_c, 0, 50, 52
1, 160651, Note_off_c, 0, 77, 65
1, 160652, Control_c, 0, 64, 42
1, 160652, Control_c, 0, 67, 36
1, 160658, Note_off_c, 0, 65, 58
1, 160667, Control_c, 0, 64, 27
1, 160667, Control_c, 0, 67, 35
1, 160681, Control_c, 0, 64, 0
1, 160696, Control_c, 0, 67, 34
1, 160711, Control_c, 0, 67, 34
1, 160724, Note_off_c, 0, 45, 42
1, 160726, Control_c, 0, 67, 33
1, 160768, Note_off_c, 0, 50, 36
1, 160770, Control_c, 0, 67, 33
1, 160780, Note_on_c, 0, 64, 64
1, 160786, Control_c, 0, 67, 32
1, 160789, Note_on_c, 0, 76, 54
1, 160789, Note_on_c, 0, 52, 42
1, 160800, Note_off_c, 0, 64, 63
1, 160813, Note_off_c, 0, 76, 59
1, 160816, Control_c, 0, 67, 32
1, 160821, Note_off_c, 0, 52, 61
1, 160831, Control_c, 0, 67, 31
1, 160860, Control_c, 0, 67, 31
1, 160890, Control_c, 0, 67, 30
1, 160905, Control_c, 0, 67, 29
1, 160920, Control_c, 0, 67, 27
1, 160924, Note_on_c, 0, 62, 64
1, 160931, Note_on_c, 0, 53, 50
1, 160934, Control_c, 0, 67, 25
1, 160938, Note_on_c, 0, 74, 49
1, 160949, Control_c, 0, 67, 23
1, 160950, Note_off_c, 0, 62, 64
1, 160962, Note_off_c, 0, 74, 60
1, 160964, Control_c, 0, 67, 21
1, 160967, Note_off_c, 0, 53, 65
1, 160979, Control_c, 0, 67, 18
1, 160993, Control_c, 0, 67, 16
1, 161008, Control_c, 0, 67, 12
1, 161023, Control_c, 0, 67, 8
1, 161038, Control_c, 0, 67, 0
1, 161087, Note_on_c, 0, 79, 79
1, 161092, Note_on_c, 0, 55, 54
1, 161093, Note_on_c, 0, 67, 66
1, 161109, Note_off_c, 0, 79, 70
1, 161112, Note_off_c, 0, 67, 63
1, 161116, Note_off_c, 0, 55, 59
1, 161248, Note_on_c, 0, 65, 66
1, 161251, Note_on_c, 0, 77, 65
1, 161261, Note_on_c, 0, 57, 42
1, 161267, Note_off_c, 0, 65, 63
1, 161270, Note_off_c, 0, 77, 63
1, 161290, Note_off_c, 0, 57, 52
1, 161399, Note_on_c, 0, 76, 63
1, 161400, Note_on_c, 0, 45, 46
1, 161402, Note_on_c, 0, 64, 55
1, 161419, Note_off_c, 0, 76, 63
1, 161426, Note_off_c, 0, 64, 60
1, 161449, Note_off_c, 0, 45, 46
1, 161554, Note_on_c, 0, 74, 71
1, 161555, Note_on_c, 0, 50, 57
1, 161564, Note_on_c, 0, 62, 45
1, 161580, Note_off_c, 0, 74, 69
1, 161588, Note_off_c, 0, 50, 67
1, 161593, Note_off_c, 0, 62, 56
1, 161700, Note_on_c, 0, 81, 77
1, 161706, Note_on_c, 0, 69, 66
1, 161721, Note_off_c, 0, 81, 72
1, 161724, Note_off_c, 0, 69, 67
1, 161859, Note_on_c, 0, 50, 51
1, 161863, Note_on_c, 0, 78, 65
1, 161866, Note_on_c, 0, 66, 55
1, 161886, Note_off_c, 0, 66, 61
1, 161892, Note_off_c, 0, 78, 67
1, 161897, Note_off_c, 0, 50, 65
1, 162011, Note_on_c, 0, 83, 76
1, 162016, Note_on_c, 0, 55, 58
1, 162017, Note_on_c, 0, 71, 66
1, 162035, Note_off_c, 0, 83, 66
1, 162035, Note_off_c, 0, 71, 65
1, 162047, Note_off_c, 0, 55, 64
1, 162163, Note_on_c, 0, 79, 71
1, 162165, Note_on_c, 0, 67, 69
1, 162175, Note_on_c, 0, 52, 47
1, 162180, Note_off_c, 0, 79, 67
1, 162183, Note_off_c, 0, 67, 64
1, 162201, Note_off_c, 0, 52, 58
1, 162320, Note_on_c, 0, 73, 69
1, 162320, Note_on_c, 0, 85, 71
1, 162327, Note_on_c, 0, 57, 46
1, 162355, Note_off_c, 0, 73, 57
1, 162357, Note_off_c, 0, 57, 53
1, 162442, Note_off_c, 0, 85, 49
1, 162475, Note_on_c, 0, 54, 52
1, 162475, Note_on_c, 0, 74, 72
1, 162475, Note_on_c, 0, 86, 68
1, 162478, Note_on_c, 0, 62, 51
1, 162491, Note_off_c, 0, 86, 67
1, 162501, Note_off_c, 0, 74, 67
1, 162506, Note_off_c, 0, 54, 65
1, 162624, Note_on_c, 0, 69, 72
1, 162625, Note_on_c, 0, 81, 69
1, 162628, Note_on_c, 0, 50, 59
1, 162640, Note_off_c, 0, 81, 68
1, 162650, Note_off_c, 0, 69, 70
1, 162656, Note_off_c, 0, 50, 62
1, 162778, Note_on_c, 0, 78, 77
1, 162780, Note_on_c, 0, 54, 61
1, 162781, Note_on_c, 0, 66, 68
1, 162799, Note_off_c, 0, 66, 66
1, 162808, Note_off_c, 0, 78, 64
1, 162808, Note_off_c, 0, 62, 62
1, 162813, Note_off_c, 0, 54, 64
1, 162925, Note_on_c, 0, 62, 74
1, 162928, Note_on_c, 0, 55, 69
1, 162929, Note_on_c, 0, 83, 88
1, 162932, Note_on_c, 0, 71, 79
1, 162947, Note_off_c, 0, 83, 73
1, 162953, Note_off_c, 0, 71, 72
1, 162962, Note_off_c, 0, 55, 63
1, 163073, Note_on_c, 0, 79, 86
1, 163078, Note_on_c, 0, 52, 66
1, 163081, Note_on_c, 0, 67, 71
1, 163090, Note_off_c, 0, 79, 73
1, 163099, Note_off_c, 0, 67, 65
1, 163108, Note_off_c, 0, 52, 65
1, 163224, Note_on_c, 0, 57, 76
1, 163224, Note_on_c, 0, 73, 97
1, 163224, Note_on_c, 0, 85, 90
1, 163240, Note_off_c, 0, 62, 48
1, 163263, Note_off_c, 0, 73, 64
1, 163271, Note_off_c, 0, 57, 61
1, 163316, Note_off_c, 0, 85, 62
1, 163379, Note_on_c, 0, 62, 77
1, 163383, Note_on_c, 0, 86, 93
1, 163384, Note_on_c, 0, 54, 77
1, 163385, Note_on_c, 0, 74, 89
1, 163400, Note_off_c, 0, 86, 73
1, 163405, Note_off_c, 0, 74, 69
1, 163412, Note_on_c, 0, 76, 44
1, 163413, Note_off_c, 0, 76, 127
1, 163421, Note_off_c, 0, 54, 62
1, 163534, Note_on_c, 0, 81, 91
1, 163536, Note_on_c, 0, 50, 82
1, 163536, Note_on_c, 0, 69, 86
1, 163549, Note_off_c, 0, 81, 77
1, 163555, Note_off_c, 0, 69, 74
1, 163579, Note_off_c, 0, 50, 65
1, 163686, Note_on_c, 0, 78, 85
1, 163686, Note_on_c, 0, 66, 84
1, 163689, Note_on_c, 0, 54, 76
1, 163705, Note_off_c, 0, 66, 72
1, 163708, Note_off_c, 0, 62, 61
1, 163722, Note_off_c, 0, 78, 63
1, 163730, Note_off_c, 0, 54, 63
1, 163833, Note_on_c, 0, 55, 81
1, 163833, Note_on_c, 0, 62, 81
1, 163836, Note_on_c, 0, 83, 95
1, 163838, Note_on_c, 0, 71, 96
1, 163851, Note_on_c, 0, 81, 77
1, 163862, Note_off_c, 0, 83, 57
1, 163864, Note_off_c, 0, 71, 67
1, 163866, Note_off_c, 0, 81, 71
1, 163880, Note_off_c, 0, 55, 63
1, 163986, Note_on_c, 0, 52, 77
1, 163990, Note_on_c, 0, 67, 91
1, 163990, Note_on_c, 0, 79, 90
1, 164008, Note_off_c, 0, 79, 72
1, 164008, Note_off_c, 0, 67, 70
1, 164023, Note_on_c, 0, 77, 44
1, 164024, Note_off_c, 0, 77, 127
1, 164035, Note_off_c, 0, 62, 57
1, 164123, Note_off_c, 0, 52, 32
1, 164132, Note_on_c, 0, 57, 80
1, 164141, Note_on_c, 0, 73, 98
1, 164141, Note_on_c, 0, 85, 99
1, 164188, Note_off_c, 0, 73, 59
1, 164190, Note_off_c, 0, 85, 66
1, 164217, Note_off_c, 0, 57, 60
1, 164280, Note_on_c, 0, 54, 72
1, 164286, Note_on_c, 0, 74, 89
1, 164288, Note_on_c, 0, 62, 78
1, 164288, Note_on_c, 0, 86, 96
1, 164303, Note_off_c, 0, 86, 75
1, 164312, Note_off_c, 0, 74, 67
1, 164317, Note_off_c, 0, 62, 65
1, 164329, Note_off_c, 0, 54, 62
1, 164448, Note_on_c, 0, 78, 98
1, 164449, Note_on_c, 0, 81, 87
1, 164450, Note_on_c, 0, 50, 85
1, 164482, Note_off_c, 0, 81, 70
1, 164485, Note_off_c, 0, 78, 67
1, 164500, Note_off_c, 0, 50, 61
1, 164596, Note_on_c, 0, 55, 81
1, 164600, Note_on_c, 0, 76, 101
1, 164602, Note_on_c, 0, 79, 92
1, 164626, Note_off_c, 0, 76, 66
1, 164630, Note_off_c, 0, 55, 63
1, 164636, Note_off_c, 0, 79, 65
1, 164748, Note_on_c, 0, 57, 97
1, 164756, Note_on_c, 0, 74, 102
1, 164760, Note_on_c, 0, 78, 89
1, 164789, Note_off_c, 0, 74, 68
1, 164792, Note_off_c, 0, 57, 64
1, 164813, Note_off_c, 0, 78, 63
1, 164915, Note_on_c, 0, 78, 90
1, 164916, Note_on_c, 0, 74, 89
1, 164947, Note_off_c, 0, 74, 67
1, 164958, Note_off_c, 0, 78, 65
1, 165067, Note_on_c, 0, 45, 77
1, 165069, Note_on_c, 0, 69, 91
1, 165071, Note_on_c, 0, 76, 91
1, 165091, Note_off_c, 0, 76, 69
1, 165093, Note_off_c, 0, 45, 67
1, 165098, Note_off_c, 0, 69, 65
1, 165219, Note_on_c, 0, 74, 86
1, 165220, Note_on_c, 0, 66, 92
1, 165225, Note_on_c, 0, 38, 76
1, 165263, Note_off_c, 0, 66, 64
1, 165266, Note_off_c, 0, 74, 63
1, 165371, Note_on_c, 0, 66, 81
1, 165372, Note_on_c, 0, 74, 71
1, 165405, Note_off_c, 0, 66, 65
1, 165421, Note_off_c, 0, 74, 63
1, 165517, Note_on_c, 0, 76, 74
1, 165520, Note_on_c, 0, 69, 73
1, 165542, Note_off_c, 0, 38, 60
1, 165553, Note_off_c, 0, 76, 66
1, 165559, Note_off_c, 0, 69, 65
1, 165672, Note_on_c, 0, 38, 70
1, 165672, Note_on_c, 0, 74, 84
1, 165675, Note_on_c, 0, 66, 85
1, 165704, Note_off_c, 0, 66, 63
1, 165714, Note_off_c, 0, 74, 64
1, 165828, Note_on_c, 0, 74, 71
1, 165833, Note_on_c, 0, 66, 71
1, 165856, Note_off_c, 0, 66, 70
1, 165868, Note_off_c, 0, 74, 57
1, 165967, Note_off_c, 0, 38, 39
1, 165979, Note_on_c, 0, 76, 56
1, 165986, Note_on_c, 0, 69, 55
1, 166012, Note_off_c, 0, 76, 50
1, 166014, Note_off_c, 0, 69, 65
1, 166126, Note_on_c, 0, 38, 40
1, 166129, Note_on_c, 0, 66, 67
1, 166129, Note_on_c, 0, 74, 70
1, 166155, Note_off_c, 0, 66, 69
1, 166169, Note_off_c, 0, 74, 58
1, 166272, Note_on_c, 0, 69, 78
1, 166274, Note_on_c, 0, 76, 76
1, 166309, Note_off_c, 0, 76, 65
1, 166313, Note_off_c, 0, 69, 64
1, 166319, Note_off_c, 0, 38, 56
1, 166432, Note_on_c, 0, 66, 86
1, 166432, Note_on_c, 0, 38, 58
1, 166435, Note_on_c, 0, 74, 77
1, 166456, Note_off_c, 0, 66, 65
1, 166478, Note_off_c, 0, 74, 65
1, 166586, Note_on_c, 0, 69, 88
1, 166588, Note_on_c, 0, 76, 89
1, 166605, Note_off_c, 0, 38, 57
1, 166613, Note_off_c, 0, 76, 66
1, 166620, Note_off_c, 0, 69, 66
1, 166744, Note_on_c, 0, 74, 85
1, 166746, Note_on_c, 0, 66, 81
1, 166754, Note_on_c, 0, 38, 53
1, 166769, Note_off_c, 0, 66, 69
1, 166801, Note_off_c, 0, 74, 58
1, 166912, Note_on_c, 0, 76, 83
1, 166918, Note_on_c, 0, 69, 73
1, 166941, Note_off_c, 0, 69, 72
1, 166950, Note_off_c, 0, 76, 63
1, 166962, Note_off_c, 0, 38, 46
1, 167028, Control_c, 0, 64, 18
1, 167043, Control_c, 0, 64, 31
1, 167066, Control_c, 0, 64, 37
1, 167080, Control_c, 0, 64, 43
1, 167095, Control_c, 0, 64, 47
1, 167110, Control_c, 0, 64, 51
1, 167125, Control_c, 0, 64, 54
1, 167139, Control_c, 0, 64, 55
1, 167150, Note_on_c, 0, 74, 72
1, 167151, Note_on_c, 0, 38, 30
1, 167154, Control_c, 0, 64, 56
1, 167165, Note_on_c, 0, 66, 60
1, 167169, Control_c, 0, 64, 56
1, 167185, Control_c, 0, 64, 57
1, 167229, Control_c, 0, 64, 56
1, 167259, Control_c, 0, 64, 57
1, 167314, Note_off_c, 0, 74, 62
1, 167333, Control_c, 0, 64, 57
1, 167335, Note_on_c, 0, 76, 58
1, 167362, Control_c, 0, 64, 58
1, 167377, Control_c, 0, 64, 58
1, 167394, Note_off_c, 0, 76, 62
1, 167407, Note_on_c, 0, 74, 59
1, 167407, Control_c, 0, 64, 59
1, 167421, Control_c, 0, 64, 59
1, 167451, Control_c, 0, 64, 60
1, 167453, Note_off_c, 0, 74, 63
1, 167466, Control_c, 0, 64, 60
1, 167472, Note_on_c, 0, 76, 52
1, 167511, Note_off_c, 0, 76, 63
1, 167511, Control_c, 0, 64, 61
1, 167523, Note_on_c, 0, 74, 56
1, 167555, Control_c, 0, 64, 61
1, 167563, Note_off_c, 0, 74, 64
1, 167570, Control_c, 0, 64, 62
1, 167586, Note_on_c, 0, 76, 66
1, 167615, Control_c, 0, 64, 62
1, 167620, Note_off_c, 0, 76, 61
1, 167629, Control_c, 0, 64, 63
1, 167638, Note_on_c, 0, 74, 51
1, 167667, Note_off_c, 0, 74, 61
1, 167673, Control_c, 0, 64, 63
1, 167691, Note_on_c, 0, 76, 54
1, 167716, Note_off_c, 0, 76, 59
1, 167731, Note_on_c, 0, 74, 59
1, 167733, Control_c, 0, 64, 64
1, 167760, Note_off_c, 0, 74, 65
1, 167784, Note_on_c, 0, 76, 62
1, 167815, Control_c, 0, 64, 64
1, 167817, Note_off_c, 0, 76, 62
1, 167841, Note_on_c, 0, 74, 54
1, 167863, Note_off_c, 0, 74, 61
1, 167876, Note_on_c, 0, 76, 59
1, 167901, Note_off_c, 0, 76, 60
1, 167921, Note_on_c, 0, 74, 58
1, 167946, Note_off_c, 0, 74, 58
1, 167972, Note_on_c, 0, 76, 70
1, 168012, Note_off_c, 0, 76, 62
1, 168018, Note_on_c, 0, 74, 64
1, 168049, Note_off_c, 0, 74, 66
1, 168060, Note_on_c, 0, 76, 55
1, 168092, Note_off_c, 0, 76, 63
1, 168102, Note_on_c, 0, 74, 61
1, 168126, Control_c, 0, 64, 64
1, 168135, Note_off_c, 0, 74, 64
1, 168161, Note_on_c, 0, 76, 62
1, 168193, Note_off_c, 0, 76, 58
1, 168200, Control_c, 0, 64, 63
1, 168207, Note_on_c, 0, 74, 58
1, 168243, Note_off_c, 0, 74, 60
1, 168245, Control_c, 0, 64, 63
1, 168256, Note_on_c, 0, 76, 44
1, 168283, Note_off_c, 0, 76, 58
1, 168289, Control_c, 0, 64, 62
1, 168319, Control_c, 0, 64, 62
1, 168348, Control_c, 0, 64, 61
1, 168363, Control_c, 0, 64, 61
1, 168408, Control_c, 0, 64, 60
1, 168438, Control_c, 0, 64, 60
1, 168452, Control_c, 0, 64, 59
1, 168467, Control_c, 0, 64, 59
1, 168496, Control_c, 0, 64, 58
1, 168511, Control_c, 0, 64, 57
1, 168526, Control_c, 0, 64, 56
1, 168541, Control_c, 0, 64, 55
1, 168563, Control_c, 0, 64, 54
1, 168623, Control_c, 0, 64, 55
1, 168638, Control_c, 0, 64, 55
1, 168652, Control_c, 0, 64, 56
1, 168667, Control_c, 0, 64, 57
1, 168682, Control_c, 0, 64, 58
1, 168697, Control_c, 0, 64, 58
1, 168726, Control_c, 0, 64, 59
1, 168741, Control_c, 0, 64, 59
1, 168756, Control_c, 0, 64, 60
1, 168771, Control_c, 0, 64, 61
1, 168787, Control_c, 0, 64, 61
1, 168801, Control_c, 0, 64, 62
1, 168816, Control_c, 0, 64, 62
1, 168831, Control_c, 0, 64, 63
1, 168861, Control_c, 0, 64, 63
1, 168875, Control_c, 0, 64, 64
1, 168890, Control_c, 0, 64, 64
1, 168905, Control_c, 0, 64, 65
1, 168920, Control_c, 0, 64, 65
1, 168934, Control_c, 0, 64, 66
1, 168949, Control_c, 0, 64, 67
1, 168964, Control_c, 0, 64, 68
1, 168979, Control_c, 0, 64, 69
1, 168993, Control_c, 0, 64, 70
1, 169008, Control_c, 0, 64, 71
1, 169023, Control_c, 0, 64, 72
1, 169038, Control_c, 0, 64, 74
1, 169053, Control_c, 0, 64, 75
1, 169067, Control_c, 0, 64, 77
1, 169082, Control_c, 0, 64, 78
1, 169097, Control_c, 0, 64, 78
1, 169112, Control_c, 0, 64, 79
1, 169126, Control_c, 0, 64, 79
1, 169141, Control_c, 0, 64, 80
1, 169201, Control_c, 0, 64, 80
1, 169261, Control_c, 0, 64, 81
1, 169300, Poly_aftertouch_c, 0, 74, 0
1, 169319, Note_off_c, 0, 66, 26
1, 169326, Control_c, 0, 64, 81
1, 169395, Note_off_c, 0, 38, 29
1, 169549, Control_c, 0, 64, 81
1, 169564, Control_c, 0, 64, 80
1, 169580, Control_c, 0, 64, 80
1, 169594, Control_c, 0, 64, 79
1, 169609, Control_c, 0, 64, 78
1, 169624, Control_c, 0, 64, 76
1, 169639, Control_c, 0, 64, 75
1, 169654, Control_c, 0, 64, 74
1, 169669, Control_c, 0, 64, 73
1, 169684, Control_c, 0, 64, 71
1, 169698, Control_c, 0, 64, 70
1, 169713, Control_c, 0, 64, 69
1, 169727, Control_c, 0, 64, 67
1, 169742, Control_c, 0, 64, 65
1, 169756, Control_c, 0, 64, 63
1, 169771, Control_c, 0, 64, 62
1, 169786, Control_c, 0, 64, 61
1, 169801, Control_c, 0, 64, 60
1, 169816, Control_c, 0, 64, 58
1, 169830, Control_c, 0, 64, 55
1, 169845, Control_c, 0, 64, 52
1, 169860, Control_c, 0, 64, 48
1, 169875, Control_c, 0, 64, 47
1, 169890, Control_c, 0, 64, 46
1, 169905, Control_c, 0, 64, 44
1, 169919, Control_c, 0, 64, 39
1, 169934, Control_c, 0, 64, 29
1, 169949, Control_c, 0, 64, 19
1, 169964, Control_c, 0, 64, 14
1, 169979, Control_c, 0, 64, 13
1, 169994, Control_c, 0, 64, 0
1, 170069, End_track
0, 0, End_of_file
