0, 0, Header, 0, 1, 384
1, 0, Start_track
1, 0, Title_t, "Sonata in Eb, Op.81a--Zhdanov   "
1, 0, Text_t, "2009 International Piano-e-Competition finals"
1, 0, Text_t, "captured June-July 2009"
1, 0, Text_t, "http://www.piano-e-competition.com/"
1, 0, Text_t, "standard-resolution version"
1, 0, Text_t, "File processed for distribution by software from Zenph Studios, Inc., http://www.zenph.com"
1, 0, Instrument_name_t, "Yamaha Disklavier Pro Mark IV concert grand piano, model DCFIIISM4PRO"
1, 0, Sequencer_specific, 39, 67, 113, 0, 1, 0, 1, 0, 83, 111, 110, 97, 116, 97, 32, 69, 98, 44, 32, 79, 112, 56, 49, 97, 68, 101, 110, 105, 115, 32, 90, 104, 100, 97, 110, 111, 118, 32, 32, 32
1, 0, Sequencer_specific, 6, 67, 113, 0, 0, 0, 69
1, 0, System_exclusive, 21, 67, 113, 126, 21, 0, 2, 2, 2, 3, 12, 8, 4, 10, 4, 12, 14, 5, 8, 4, 4, 247
1, 0, Sequencer_specific, 5, 67, 123, 12, 2, 1
1, 0, Tempo, 512820
1, 0, Time_signature, 4, 2, 24, 8
1, 0, System_exclusive, 5, 126, 127, 9, 1, 247
1, 1, System_exclusive, 8, 67, 16, 76, 0, 0, 126, 0, 247
1, 2, System_exclusive, 8, 67, 16, 76, 8, 9, 7, 1, 247
1, 3, Control_c, 0, 0, 0
1, 3, Control_c, 1, 0, 0
1, 3, Control_c, 2, 0, 0
1, 3, Control_c, 3, 0, 0
1, 3, Control_c, 4, 0, 0
1, 3, Control_c, 5, 0, 0
1, 3, Control_c, 6, 0, 0
1, 3, Control_c, 7, 0, 0
1, 3, Control_c, 8, 0, 0
1, 3, Control_c, 9, 0, 127
1, 3, Control_c, 10, 0, 0
1, 3, Control_c, 11, 0, 0
1, 3, Control_c, 12, 0, 0
1, 3, Control_c, 13, 0, 0
1, 3, Control_c, 14, 0, 0
1, 3, Control_c, 15, 0, 0
1, 4, Control_c, 0, 32, 0
1, 4, Control_c, 1, 32, 0
1, 4, Control_c, 2, 32, 0
1, 4, Control_c, 3, 32, 0
1, 4, Control_c, 4, 32, 0
1, 4, Control_c, 5, 32, 0
1, 4, Control_c, 6, 32, 0
1, 4, Control_c, 7, 32, 0
1, 4, Control_c, 8, 32, 0
1, 4, Control_c, 9, 32, 0
1, 4, Control_c, 10, 32, 0
1, 4, Control_c, 11, 32, 0
1, 4, Control_c, 12, 32, 0
1, 4, Control_c, 13, 32, 0
1, 4, Control_c, 14, 32, 0
1, 4, Control_c, 15, 32, 0
1, 5, Program_c, 0, 0
1, 5, Program_c, 1, 0
1, 5, Program_c, 2, 0
1, 5, Program_c, 3, 0
1, 5, Program_c, 4, 0
1, 5, Program_c, 5, 0
1, 5, Program_c, 6, 0
1, 5, Program_c, 7, 0
1, 5, Program_c, 8, 0
1, 5, Program_c, 9, 0
1, 5, Program_c, 10, 0
1, 5, Program_c, 11, 0
1, 5, Program_c, 12, 0
1, 5, Program_c, 13, 0
1, 5, Program_c, 14, 0
1, 5, Program_c, 15, 0
1, 6, Control_c, 0, 7, 100
1, 6, Control_c, 1, 7, 100
1, 6, Control_c, 2, 7, 100
1, 6, Control_c, 3, 7, 100
1, 6, Control_c, 4, 7, 100
1, 6, Control_c, 5, 7, 100
1, 6, Control_c, 6, 7, 100
1, 6, Control_c, 7, 7, 100
1, 6, Control_c, 8, 7, 100
1, 6, Control_c, 9, 7, 100
1, 6, Control_c, 10, 7, 100
1, 6, Control_c, 11, 7, 100
1, 6, Control_c, 12, 7, 100
1, 6, Control_c, 13, 7, 100
1, 6, Control_c, 14, 7, 100
1, 6, Control_c, 15, 7, 100
1, 117, Control_c, 0, 64, 15
1, 229, Control_c, 0, 64, 31
1, 341, Control_c, 0, 64, 46
1, 452, Control_c, 0, 64, 63
1, 564, Control_c, 0, 64, 77
1, 676, Control_c, 0, 64, 94
1, 787, Control_c, 0, 64, 108
1, 899, Control_c, 0, 64, 127
1, 1133, Note_on_c, 0, 67, 49
1, 1137, Note_on_c, 0, 63, 37
1, 1972, Control_c, 0, 67, 8
1, 1987, Control_c, 0, 67, 8
1, 2003, Control_c, 0, 67, 11
1, 2018, Control_c, 0, 67, 15
1, 2032, Control_c, 0, 67, 20
1, 2047, Control_c, 0, 67, 26
1, 2062, Control_c, 0, 67, 33
1, 2077, Control_c, 0, 67, 39
1, 2092, Control_c, 0, 67, 44
1, 2106, Control_c, 0, 67, 48
1, 2121, Control_c, 0, 67, 52
1, 2136, Control_c, 0, 67, 55
1, 2151, Control_c, 0, 67, 57
1, 2166, Control_c, 0, 67, 58
1, 2188, Control_c, 0, 67, 62
1, 2203, Control_c, 0, 67, 66
1, 2218, Control_c, 0, 67, 69
1, 2232, Control_c, 0, 67, 72
1, 2247, Control_c, 0, 67, 73
1, 2262, Control_c, 0, 67, 74
1, 2292, Control_c, 0, 67, 75
1, 2306, Control_c, 0, 67, 76
1, 2321, Control_c, 0, 67, 78
1, 2336, Control_c, 0, 67, 79
1, 2351, Control_c, 0, 67, 80
1, 2366, Control_c, 0, 67, 81
1, 2632, Control_c, 0, 67, 80
1, 2765, Control_c, 0, 67, 80
1, 2882, Note_on_c, 0, 65, 51
1, 2890, Note_on_c, 0, 58, 42
1, 3011, Control_c, 0, 67, 79
1, 3026, Control_c, 0, 64, 123
1, 3041, Control_c, 0, 64, 110
1, 3055, Control_c, 0, 64, 103
1, 3071, Control_c, 0, 64, 99
1, 3086, Control_c, 0, 64, 94
1, 3086, Control_c, 0, 67, 79
1, 3101, Control_c, 0, 64, 89
1, 3116, Control_c, 0, 64, 83
1, 3130, Control_c, 0, 64, 78
1, 3141, Note_off_c, 0, 63, 33
1, 3144, Note_off_c, 0, 67, 56
1, 3145, Control_c, 0, 64, 74
1, 3160, Control_c, 0, 64, 69
1, 3175, Control_c, 0, 64, 66
1, 3189, Control_c, 0, 64, 65
1, 3204, Control_c, 0, 64, 64
1, 3219, Control_c, 0, 64, 62
1, 3234, Control_c, 0, 64, 59
1, 3249, Control_c, 0, 64, 53
1, 3263, Control_c, 0, 64, 49
1, 3293, Control_c, 0, 64, 51
1, 3308, Control_c, 0, 64, 53
1, 3322, Control_c, 0, 64, 57
1, 3337, Control_c, 0, 64, 60
1, 3352, Control_c, 0, 64, 63
1, 3367, Control_c, 0, 64, 66
1, 3382, Control_c, 0, 64, 69
1, 3397, Control_c, 0, 64, 74
1, 3412, Control_c, 0, 64, 79
1, 3427, Control_c, 0, 64, 83
1, 3441, Control_c, 0, 64, 84
1, 3456, Control_c, 0, 64, 86
1, 3471, Control_c, 0, 64, 90
1, 3486, Control_c, 0, 64, 95
1, 3501, Control_c, 0, 64, 100
1, 3516, Control_c, 0, 64, 103
1, 3530, Control_c, 0, 64, 108
1, 3545, Control_c, 0, 64, 118
1, 3560, Control_c, 0, 64, 127
1, 3605, Control_c, 0, 67, 79
1, 3635, Control_c, 0, 67, 80
1, 3665, Control_c, 0, 67, 80
1, 3731, Control_c, 0, 67, 81
1, 3760, Control_c, 0, 67, 81
1, 3775, Control_c, 0, 67, 82
1, 3805, Control_c, 0, 67, 82
1, 3835, Control_c, 0, 67, 83
1, 3850, Control_c, 0, 67, 84
1, 3865, Control_c, 0, 67, 88
1, 3879, Control_c, 0, 67, 91
1, 3894, Control_c, 0, 67, 93
1, 3909, Control_c, 0, 67, 95
1, 3924, Control_c, 0, 67, 98
1, 3939, Control_c, 0, 67, 100
1, 3953, Control_c, 0, 67, 103
1, 3968, Control_c, 0, 67, 105
1, 3983, Control_c, 0, 67, 106
1, 3997, Control_c, 0, 67, 107
1, 4012, Control_c, 0, 67, 109
1, 4027, Control_c, 0, 67, 111
1, 4042, Control_c, 0, 67, 112
1, 4057, Control_c, 0, 67, 112
1, 4071, Control_c, 0, 67, 113
1, 4086, Control_c, 0, 67, 113
1, 4131, Control_c, 0, 67, 114
1, 4148, Note_off_c, 0, 58, 35
1, 4160, Control_c, 0, 67, 114
1, 4190, Control_c, 0, 67, 115
1, 4205, Control_c, 0, 67, 116
1, 4220, Control_c, 0, 67, 117
1, 4234, Control_c, 0, 67, 118
1, 4249, Control_c, 0, 67, 120
1, 4264, Control_c, 0, 67, 121
1, 4279, Control_c, 0, 67, 121
1, 4294, Control_c, 0, 67, 122
1, 4309, Control_c, 0, 67, 124
1, 4323, Control_c, 0, 67, 125
1, 4338, Control_c, 0, 67, 125
1, 4353, Control_c, 0, 67, 126
1, 4368, Control_c, 0, 67, 126
1, 4383, Control_c, 0, 67, 127
1, 4398, Control_c, 0, 67, 127
1, 4855, Note_on_c, 0, 63, 41
1, 4869, Note_on_c, 0, 36, 37
1, 4877, Note_on_c, 0, 48, 33
1, 4879, Note_on_c, 0, 55, 34
1, 4968, Control_c, 0, 64, 120
1, 4983, Control_c, 0, 64, 110
1, 4998, Control_c, 0, 64, 105
1, 5003, Note_off_c, 0, 65, 41
1, 5013, Control_c, 0, 64, 99
1, 5027, Control_c, 0, 64, 95
1, 5042, Control_c, 0, 64, 91
1, 5057, Control_c, 0, 64, 87
1, 5072, Control_c, 0, 64, 83
1, 5087, Control_c, 0, 64, 80
1, 5102, Control_c, 0, 64, 77
1, 5117, Control_c, 0, 64, 74
1, 5132, Control_c, 0, 64, 71
1, 5146, Control_c, 0, 64, 68
1, 5161, Control_c, 0, 64, 65
1, 5183, Control_c, 0, 64, 64
1, 5199, Control_c, 0, 64, 63
1, 5214, Control_c, 0, 64, 61
1, 5229, Control_c, 0, 64, 56
1, 5244, Control_c, 0, 64, 53
1, 5258, Control_c, 0, 64, 49
1, 5273, Control_c, 0, 64, 43
1, 5288, Control_c, 0, 64, 30
1, 5303, Control_c, 0, 64, 0
1, 5495, Control_c, 0, 64, 11
1, 5510, Control_c, 0, 64, 38
1, 5525, Control_c, 0, 64, 48
1, 5540, Control_c, 0, 64, 54
1, 5555, Control_c, 0, 64, 59
1, 5569, Control_c, 0, 64, 62
1, 5584, Control_c, 0, 64, 63
1, 5584, Control_c, 0, 67, 127
1, 5599, Control_c, 0, 64, 64
1, 5614, Control_c, 0, 64, 65
1, 5629, Control_c, 0, 64, 66
1, 5643, Control_c, 0, 64, 68
1, 5658, Control_c, 0, 64, 69
1, 5658, Control_c, 0, 67, 126
1, 5673, Control_c, 0, 64, 71
1, 5688, Control_c, 0, 64, 72
1, 5703, Control_c, 0, 64, 73
1, 5717, Control_c, 0, 64, 75
1, 5732, Control_c, 0, 64, 78
1, 5747, Control_c, 0, 64, 80
1, 5762, Control_c, 0, 64, 83
1, 5776, Control_c, 0, 64, 85
1, 5791, Control_c, 0, 64, 87
1, 5806, Control_c, 0, 64, 90
1, 5821, Control_c, 0, 64, 93
1, 5836, Control_c, 0, 64, 96
1, 5850, Control_c, 0, 64, 99
1, 5865, Control_c, 0, 64, 102
1, 5880, Control_c, 0, 64, 105
1, 5895, Control_c, 0, 64, 109
1, 5910, Control_c, 0, 64, 113
1, 5932, Control_c, 0, 64, 120
1, 5947, Control_c, 0, 64, 127
1, 6022, Control_c, 0, 67, 126
1, 6306, Note_off_c, 0, 36, 37
1, 6630, Note_off_c, 0, 55, 37
1, 6693, Note_off_c, 0, 48, 41
1, 6766, Note_off_c, 0, 63, 36
1, 7363, Control_c, 0, 64, 119
1, 7378, Control_c, 0, 64, 108
1, 7384, Note_on_c, 0, 63, 46
1, 7393, Control_c, 0, 64, 102
1, 7397, Note_on_c, 0, 48, 38
1, 7397, Note_on_c, 0, 51, 41
1, 7408, Control_c, 0, 64, 96
1, 7430, Control_c, 0, 64, 91
1, 7445, Control_c, 0, 64, 85
1, 7460, Control_c, 0, 64, 78
1, 7475, Control_c, 0, 64, 74
1, 7490, Control_c, 0, 64, 70
1, 7504, Control_c, 0, 64, 66
1, 7519, Control_c, 0, 64, 63
1, 7534, Control_c, 0, 64, 57
1, 7548, Control_c, 0, 64, 45
1, 7563, Control_c, 0, 64, 0
1, 7653, Control_c, 0, 64, 36
1, 7668, Control_c, 0, 64, 52
1, 7683, Control_c, 0, 64, 63
1, 7698, Control_c, 0, 64, 68
1, 7698, Control_c, 0, 67, 125
1, 7713, Control_c, 0, 64, 74
1, 7727, Control_c, 0, 64, 81
1, 7742, Control_c, 0, 64, 89
1, 7757, Control_c, 0, 64, 95
1, 7757, Control_c, 0, 67, 125
1, 7771, Control_c, 0, 64, 101
1, 7786, Control_c, 0, 64, 106
1, 7801, Control_c, 0, 64, 110
1, 7816, Control_c, 0, 64, 118
1, 7831, Control_c, 0, 64, 127
1, 7949, Control_c, 0, 67, 124
1, 8116, Note_on_c, 0, 68, 67
1, 8169, Note_off_c, 0, 63, 56
1, 8282, Control_c, 0, 67, 124
1, 8300, Note_on_c, 0, 67, 69
1, 8312, Control_c, 0, 64, 117
1, 8317, Note_on_c, 0, 52, 45
1, 8318, Note_on_c, 0, 46, 44
1, 8327, Control_c, 0, 64, 107
1, 8334, Note_off_c, 0, 68, 60
1, 8342, Control_c, 0, 64, 99
1, 8355, Note_off_c, 0, 48, 41
1, 8357, Control_c, 0, 64, 93
1, 8371, Control_c, 0, 64, 89
1, 8386, Control_c, 0, 64, 84
1, 8402, Control_c, 0, 64, 77
1, 8411, Note_off_c, 0, 51, 44
1, 8417, Control_c, 0, 64, 70
1, 8432, Control_c, 0, 64, 65
1, 8446, Control_c, 0, 64, 61
1, 8461, Control_c, 0, 64, 52
1, 8476, Control_c, 0, 64, 21
1, 8491, Control_c, 0, 64, 0
1, 8565, Control_c, 0, 64, 52
1, 8580, Control_c, 0, 64, 64
1, 8594, Control_c, 0, 64, 72
1, 8609, Control_c, 0, 64, 81
1, 8624, Control_c, 0, 64, 92
1, 8624, Control_c, 0, 67, 123
1, 8639, Control_c, 0, 64, 103
1, 8654, Control_c, 0, 64, 113
1, 8668, Control_c, 0, 64, 127
1, 8749, Note_off_c, 0, 67, 58
1, 8758, Note_off_c, 0, 52, 50
1, 8788, Note_off_c, 0, 46, 41
1, 8846, Control_c, 0, 67, 123
1, 9221, Note_on_c, 0, 67, 72
1, 9235, Note_on_c, 0, 46, 48
1, 9249, Note_on_c, 0, 52, 41
1, 9270, Control_c, 0, 64, 113
1, 9285, Control_c, 0, 64, 103
1, 9299, Control_c, 0, 64, 95
1, 9314, Control_c, 0, 64, 87
1, 9329, Control_c, 0, 64, 80
1, 9344, Control_c, 0, 64, 72
1, 9359, Control_c, 0, 64, 65
1, 9359, Control_c, 0, 67, 122
1, 9373, Control_c, 0, 64, 59
1, 9388, Control_c, 0, 64, 50
1, 9403, Control_c, 0, 64, 35
1, 9418, Control_c, 0, 64, 0
1, 9492, Control_c, 0, 64, 40
1, 9492, Control_c, 0, 67, 122
1, 9507, Control_c, 0, 64, 60
1, 9522, Control_c, 0, 64, 66
1, 9522, Control_c, 0, 67, 121
1, 9536, Control_c, 0, 64, 74
1, 9536, Control_c, 0, 67, 121
1, 9551, Control_c, 0, 64, 82
1, 9551, Control_c, 0, 67, 120
1, 9566, Control_c, 0, 64, 92
1, 9566, Control_c, 0, 67, 119
1, 9581, Control_c, 0, 64, 102
1, 9581, Control_c, 0, 67, 118
1, 9596, Control_c, 0, 64, 112
1, 9596, Control_c, 0, 67, 118
1, 9611, Control_c, 0, 64, 127
1, 9611, Control_c, 0, 67, 117
1, 9625, Control_c, 0, 67, 115
1, 9640, Control_c, 0, 67, 114
1, 9655, Control_c, 0, 67, 112
1, 9678, Control_c, 0, 67, 107
1, 9692, Control_c, 0, 67, 97
1, 9707, Control_c, 0, 67, 86
1, 9722, Control_c, 0, 67, 74
1, 9737, Control_c, 0, 67, 64
1, 9751, Control_c, 0, 67, 56
1, 9766, Control_c, 0, 67, 49
1, 9781, Control_c, 0, 67, 40
1, 9796, Control_c, 0, 67, 31
1, 9810, Control_c, 0, 67, 22
1, 9824, Control_c, 0, 67, 15
1, 9827, Note_off_c, 0, 52, 38
1, 9839, Control_c, 0, 67, 9
1, 9854, Control_c, 0, 67, 0
1, 9916, Note_on_c, 0, 73, 79
1, 10031, Note_off_c, 0, 67, 57
1, 10094, Note_on_c, 0, 72, 71
1, 10120, Note_on_c, 0, 45, 45
1, 10127, Note_on_c, 0, 53, 42
1, 10137, Control_c, 0, 64, 121
1, 10152, Control_c, 0, 64, 108
1, 10154, Note_off_c, 0, 73, 61
1, 10166, Control_c, 0, 64, 100
1, 10181, Control_c, 0, 64, 93
1, 10187, Note_off_c, 0, 46, 34
1, 10196, Control_c, 0, 64, 87
1, 10211, Control_c, 0, 64, 79
1, 10226, Control_c, 0, 64, 73
1, 10240, Control_c, 0, 64, 68
1, 10255, Control_c, 0, 64, 63
1, 10270, Control_c, 0, 64, 56
1, 10285, Control_c, 0, 64, 38
1, 10300, Control_c, 0, 64, 0
1, 10403, Control_c, 0, 64, 45
1, 10426, Control_c, 0, 64, 62
1, 10440, Control_c, 0, 64, 68
1, 10455, Control_c, 0, 64, 75
1, 10470, Control_c, 0, 64, 84
1, 10485, Control_c, 0, 64, 95
1, 10500, Control_c, 0, 64, 108
1, 10514, Control_c, 0, 64, 127
1, 10612, Note_off_c, 0, 72, 56
1, 10649, Note_off_c, 0, 53, 63
1, 10995, Note_on_c, 0, 72, 73
1, 11010, Note_on_c, 0, 54, 44
1, 11015, Note_on_c, 0, 44, 48
1, 11049, Control_c, 0, 64, 120
1, 11063, Control_c, 0, 64, 111
1, 11078, Control_c, 0, 64, 107
1, 11093, Control_c, 0, 64, 103
1, 11107, Control_c, 0, 64, 99
1, 11122, Control_c, 0, 64, 95
1, 11135, Note_off_c, 0, 45, 45
1, 11137, Control_c, 0, 64, 93
1, 11152, Control_c, 0, 64, 91
1, 11174, Control_c, 0, 64, 89
1, 11189, Control_c, 0, 64, 85
1, 11195, Note_on_c, 0, 74, 79
1, 11195, Note_off_c, 0, 72, 64
1, 11204, Control_c, 0, 64, 80
1, 11219, Control_c, 0, 64, 75
1, 11234, Control_c, 0, 64, 71
1, 11248, Control_c, 0, 64, 67
1, 11263, Control_c, 0, 64, 63
1, 11273, Note_on_c, 0, 72, 79
1, 11278, Control_c, 0, 64, 62
1, 11283, Note_off_c, 0, 74, 63
1, 11293, Control_c, 0, 64, 59
1, 11308, Control_c, 0, 64, 54
1, 11322, Control_c, 0, 64, 37
1, 11327, Note_on_c, 0, 71, 80
1, 11331, Note_off_c, 0, 72, 65
1, 11337, Control_c, 0, 64, 0
1, 11412, Note_on_c, 0, 72, 82
1, 11434, Note_off_c, 0, 71, 64
1, 11649, Control_c, 0, 64, 34
1, 11664, Control_c, 0, 64, 55
1, 11665, Note_on_c, 0, 74, 87
1, 11679, Control_c, 0, 64, 63
1, 11693, Control_c, 0, 64, 67
1, 11708, Control_c, 0, 64, 71
1, 11722, Note_off_c, 0, 72, 57
1, 11723, Control_c, 0, 64, 77
1, 11737, Control_c, 0, 64, 83
1, 11752, Control_c, 0, 64, 90
1, 11754, Note_off_c, 0, 54, 36
1, 11767, Control_c, 0, 64, 96
1, 11782, Control_c, 0, 64, 100
1, 11797, Control_c, 0, 64, 105
1, 11812, Control_c, 0, 64, 110
1, 11827, Control_c, 0, 64, 117
1, 11842, Control_c, 0, 64, 127
1, 12039, Note_on_c, 0, 75, 71
1, 12076, Note_on_c, 0, 63, 45
1, 12086, Note_on_c, 0, 55, 36
1, 12086, Control_c, 0, 64, 117
1, 12095, Note_on_c, 0, 43, 39
1, 12101, Control_c, 0, 64, 110
1, 12116, Control_c, 0, 64, 104
1, 12131, Control_c, 0, 64, 99
1, 12136, Note_off_c, 0, 74, 59
1, 12146, Control_c, 0, 64, 95
1, 12161, Control_c, 0, 64, 90
1, 12176, Control_c, 0, 64, 85
1, 12190, Note_off_c, 0, 44, 36
1, 12190, Control_c, 0, 64, 79
1, 12205, Control_c, 0, 64, 72
1, 12220, Control_c, 0, 64, 66
1, 12235, Control_c, 0, 64, 63
1, 12250, Control_c, 0, 64, 59
1, 12265, Control_c, 0, 64, 53
1, 12280, Control_c, 0, 64, 35
1, 12294, Control_c, 0, 64, 0
1, 12414, Control_c, 0, 64, 14
1, 12429, Control_c, 0, 64, 58
1, 12443, Control_c, 0, 64, 65
1, 12458, Control_c, 0, 64, 70
1, 12473, Control_c, 0, 64, 76
1, 12488, Control_c, 0, 64, 84
1, 12503, Control_c, 0, 64, 92
1, 12517, Control_c, 0, 64, 100
1, 12532, Control_c, 0, 64, 108
1, 12546, Note_off_c, 0, 63, 47
1, 12547, Control_c, 0, 64, 127
1, 12635, Control_c, 0, 67, 8
1, 12650, Control_c, 0, 67, 10
1, 12673, Control_c, 0, 67, 14
1, 12688, Control_c, 0, 67, 21
1, 12703, Control_c, 0, 67, 30
1, 12717, Control_c, 0, 67, 38
1, 12724, Note_off_c, 0, 55, 41
1, 12732, Control_c, 0, 67, 44
1, 12747, Control_c, 0, 67, 49
1, 12761, Control_c, 0, 67, 54
1, 12776, Control_c, 0, 67, 59
1, 12791, Control_c, 0, 67, 64
1, 12806, Control_c, 0, 67, 67
1, 12819, Control_c, 0, 67, 68
1, 12834, Control_c, 0, 67, 70
1, 12849, Control_c, 0, 67, 70
1, 12879, Control_c, 0, 67, 71
1, 12893, Control_c, 0, 67, 72
1, 12908, Control_c, 0, 67, 73
1, 12923, Control_c, 0, 67, 75
1, 12938, Control_c, 0, 67, 77
1, 12953, Control_c, 0, 67, 80
1, 12967, Control_c, 0, 67, 81
1, 12982, Control_c, 0, 67, 82
1, 13012, Control_c, 0, 67, 82
1, 13071, Control_c, 0, 64, 121
1, 13077, Note_on_c, 0, 66, 46
1, 13085, Note_on_c, 0, 63, 39
1, 13085, Control_c, 0, 64, 111
1, 13099, Note_on_c, 0, 57, 32
1, 13100, Control_c, 0, 64, 104
1, 13115, Control_c, 0, 64, 95
1, 13130, Control_c, 0, 64, 85
1, 13145, Control_c, 0, 64, 77
1, 13159, Control_c, 0, 64, 72
1, 13174, Control_c, 0, 64, 68
1, 13190, Control_c, 0, 64, 65
1, 13205, Control_c, 0, 64, 61
1, 13220, Control_c, 0, 64, 56
1, 13235, Control_c, 0, 64, 46
1, 13250, Control_c, 0, 64, 14
1, 13264, Control_c, 0, 64, 0
1, 13279, Control_c, 0, 64, 14
1, 13294, Control_c, 0, 64, 37
1, 13309, Control_c, 0, 64, 49
1, 13324, Control_c, 0, 64, 58
1, 13338, Control_c, 0, 64, 64
1, 13353, Control_c, 0, 64, 69
1, 13368, Control_c, 0, 64, 74
1, 13368, Control_c, 0, 67, 83
1, 13383, Control_c, 0, 64, 80
1, 13398, Control_c, 0, 64, 85
1, 13398, Control_c, 0, 67, 83
1, 13420, Control_c, 0, 64, 90
1, 13420, Control_c, 0, 67, 84
1, 13435, Control_c, 0, 64, 96
1, 13450, Control_c, 0, 64, 101
1, 13464, Control_c, 0, 64, 107
1, 13464, Control_c, 0, 67, 84
1, 13479, Note_off_c, 0, 63, 43
1, 13479, Control_c, 0, 64, 114
1, 13479, Control_c, 0, 67, 85
1, 13494, Control_c, 0, 64, 127
1, 13494, Control_c, 0, 67, 86
1, 13509, Control_c, 0, 67, 89
1, 13523, Control_c, 0, 67, 90
1, 13535, Note_off_c, 0, 57, 39
1, 13538, Control_c, 0, 67, 90
1, 13542, Note_on_c, 0, 72, 54
1, 13553, Control_c, 0, 67, 91
1, 13595, Note_off_c, 0, 75, 22
1, 13597, Control_c, 0, 67, 91
1, 13612, Note_off_c, 0, 66, 36
1, 13693, Note_off_c, 0, 72, 37
1, 13702, Control_c, 0, 67, 91
1, 13776, Control_c, 0, 67, 90
1, 13968, Control_c, 0, 67, 90
1, 14043, Control_c, 0, 64, 117
1, 14058, Control_c, 0, 64, 111
1, 14073, Control_c, 0, 64, 107
1, 14075, Note_on_c, 0, 71, 35
1, 14085, Note_on_c, 0, 62, 35
1, 14087, Control_c, 0, 64, 103
1, 14089, Note_on_c, 0, 59, 27
1, 14095, Note_on_c, 0, 67, 30
1, 14102, Control_c, 0, 64, 98
1, 14117, Control_c, 0, 64, 94
1, 14131, Control_c, 0, 64, 90
1, 14146, Control_c, 0, 64, 86
1, 14169, Control_c, 0, 64, 81
1, 14184, Control_c, 0, 64, 76
1, 14199, Control_c, 0, 64, 70
1, 14213, Control_c, 0, 64, 67
1, 14228, Control_c, 0, 64, 65
1, 14243, Control_c, 0, 64, 64
1, 14258, Control_c, 0, 64, 60
1, 14273, Control_c, 0, 64, 52
1, 14287, Control_c, 0, 64, 29
1, 14302, Control_c, 0, 64, 0
1, 14465, Control_c, 0, 67, 89
1, 14480, Control_c, 0, 64, 45
1, 14495, Control_c, 0, 64, 57
1, 14510, Control_c, 0, 64, 64
1, 14510, Control_c, 0, 67, 89
1, 14524, Control_c, 0, 64, 68
1, 14539, Control_c, 0, 64, 73
1, 14539, Control_c, 0, 67, 88
1, 14554, Control_c, 0, 64, 78
1, 14554, Control_c, 0, 67, 88
1, 14569, Control_c, 0, 64, 83
1, 14584, Control_c, 0, 64, 87
1, 14584, Control_c, 0, 67, 87
1, 14587, Note_off_c, 0, 62, 38
1, 14599, Control_c, 0, 64, 90
1, 14599, Control_c, 0, 67, 87
1, 14613, Control_c, 0, 64, 93
1, 14628, Control_c, 0, 64, 98
1, 14628, Control_c, 0, 67, 86
1, 14639, Note_off_c, 0, 43, 40
1, 14643, Control_c, 0, 64, 103
1, 14643, Control_c, 0, 67, 86
1, 14657, Control_c, 0, 64, 108
1, 14672, Control_c, 0, 64, 115
1, 14687, Control_c, 0, 64, 127
1, 14687, Control_c, 0, 67, 85
1, 14725, Note_off_c, 0, 67, 41
1, 14731, Control_c, 0, 67, 85
1, 14759, Note_off_c, 0, 59, 40
1, 14775, Note_off_c, 0, 71, 45
1, 15066, Control_c, 0, 64, 123
1, 15081, Control_c, 0, 64, 118
1, 15096, Control_c, 0, 64, 112
1, 15110, Control_c, 0, 64, 106
1, 15125, Control_c, 0, 64, 102
1, 15140, Control_c, 0, 64, 99
1, 15154, Control_c, 0, 64, 95
1, 15169, Control_c, 0, 64, 90
1, 15184, Control_c, 0, 64, 86
1, 15198, Note_on_c, 0, 79, 47
1, 15199, Control_c, 0, 64, 82
1, 15214, Control_c, 0, 64, 79
1, 15229, Control_c, 0, 64, 74
1, 15243, Control_c, 0, 64, 69
1, 15243, Control_c, 0, 67, 85
1, 15258, Control_c, 0, 64, 66
1, 15273, Control_c, 0, 64, 65
1, 15288, Control_c, 0, 64, 63
1, 15303, Control_c, 0, 64, 54
1, 15317, Control_c, 0, 64, 28
1, 15332, Control_c, 0, 64, 0
1, 15422, Control_c, 0, 64, 26
1, 15436, Control_c, 0, 64, 51
1, 15436, Control_c, 0, 67, 85
1, 15451, Control_c, 0, 64, 61
1, 15451, Control_c, 0, 67, 84
1, 15466, Control_c, 0, 64, 64
1, 15466, Control_c, 0, 67, 84
1, 15480, Control_c, 0, 64, 68
1, 15480, Control_c, 0, 67, 83
1, 15495, Control_c, 0, 64, 74
1, 15495, Control_c, 0, 67, 82
1, 15510, Control_c, 0, 64, 81
1, 15510, Control_c, 0, 67, 81
1, 15525, Control_c, 0, 64, 91
1, 15525, Control_c, 0, 67, 81
1, 15540, Control_c, 0, 64, 96
1, 15540, Control_c, 0, 67, 80
1, 15554, Control_c, 0, 64, 100
1, 15554, Control_c, 0, 67, 80
1, 15569, Control_c, 0, 64, 106
1, 15569, Control_c, 0, 67, 78
1, 15585, Control_c, 0, 64, 122
1, 15585, Control_c, 0, 67, 76
1, 15600, Control_c, 0, 64, 127
1, 15600, Control_c, 0, 67, 73
1, 15611, Note_on_c, 0, 87, 65
1, 15615, Control_c, 0, 67, 70
1, 15630, Control_c, 0, 67, 67
1, 15645, Control_c, 0, 67, 65
1, 15666, Control_c, 0, 67, 62
1, 15681, Control_c, 0, 67, 58
1, 15689, Note_off_c, 0, 79, 58
1, 15696, Control_c, 0, 67, 52
1, 15711, Control_c, 0, 67, 46
1, 15721, Note_off_c, 0, 87, 63
1, 15726, Control_c, 0, 67, 38
1, 15741, Control_c, 0, 67, 30
1, 15756, Control_c, 0, 67, 23
1, 15771, Control_c, 0, 67, 16
1, 15785, Control_c, 0, 67, 10
1, 15800, Control_c, 0, 67, 0
1, 16113, Note_on_c, 0, 87, 66
1, 16132, Note_on_c, 0, 75, 44
1, 16151, Note_on_c, 0, 55, 35
1, 16164, Note_on_c, 0, 67, 26
1, 16185, Control_c, 0, 64, 107
1, 16200, Control_c, 0, 64, 98
1, 16215, Control_c, 0, 64, 93
1, 16230, Control_c, 0, 64, 88
1, 16245, Control_c, 0, 64, 83
1, 16259, Control_c, 0, 64, 78
1, 16274, Control_c, 0, 64, 72
1, 16289, Control_c, 0, 64, 67
1, 16304, Control_c, 0, 64, 65
1, 16319, Control_c, 0, 64, 63
1, 16334, Control_c, 0, 64, 60
1, 16349, Control_c, 0, 64, 56
1, 16364, Control_c, 0, 64, 54
1, 16394, Control_c, 0, 64, 57
1, 16416, Control_c, 0, 64, 62
1, 16431, Control_c, 0, 64, 65
1, 16446, Control_c, 0, 64, 67
1, 16461, Control_c, 0, 64, 70
1, 16476, Control_c, 0, 64, 74
1, 16490, Control_c, 0, 64, 83
1, 16505, Control_c, 0, 64, 92
1, 16520, Control_c, 0, 64, 100
1, 16534, Control_c, 0, 64, 106
1, 16549, Control_c, 0, 64, 116
1, 16563, Control_c, 0, 64, 127
1, 16567, Note_off_c, 0, 75, 40
1, 16660, Note_off_c, 0, 67, 40
1, 17067, Note_on_c, 0, 78, 57
1, 17073, Note_on_c, 0, 75, 44
1, 17094, Note_on_c, 0, 69, 46
1, 17126, Control_c, 0, 64, 114
1, 17141, Control_c, 0, 64, 103
1, 17163, Control_c, 0, 64, 94
1, 17178, Control_c, 0, 64, 86
1, 17194, Control_c, 0, 64, 79
1, 17209, Control_c, 0, 64, 73
1, 17224, Control_c, 0, 64, 67
1, 17238, Control_c, 0, 64, 60
1, 17253, Control_c, 0, 64, 48
1, 17268, Control_c, 0, 64, 43
1, 17283, Control_c, 0, 64, 42
1, 17312, Control_c, 0, 64, 44
1, 17327, Control_c, 0, 64, 47
1, 17342, Control_c, 0, 64, 57
1, 17356, Control_c, 0, 64, 64
1, 17371, Control_c, 0, 64, 68
1, 17386, Control_c, 0, 64, 72
1, 17401, Control_c, 0, 64, 78
1, 17416, Control_c, 0, 64, 85
1, 17419, Note_off_c, 0, 87, 53
1, 17431, Control_c, 0, 64, 94
1, 17446, Control_c, 0, 64, 102
1, 17461, Control_c, 0, 64, 110
1, 17475, Control_c, 0, 64, 127
1, 17522, Note_on_c, 0, 84, 75
1, 17631, Note_off_c, 0, 69, 59
1, 17657, Note_off_c, 0, 75, 41
1, 17658, Note_off_c, 0, 78, 54
1, 17728, Note_off_c, 0, 84, 55
1, 18005, Note_on_c, 0, 83, 76
1, 18021, Note_on_c, 0, 79, 54
1, 18026, Note_on_c, 0, 74, 51
1, 18027, Note_on_c, 0, 71, 50
1, 18076, Control_c, 0, 64, 120
1, 18091, Control_c, 0, 64, 107
1, 18105, Control_c, 0, 64, 97
1, 18120, Control_c, 0, 64, 89
1, 18135, Control_c, 0, 64, 82
1, 18150, Control_c, 0, 64, 74
1, 18165, Control_c, 0, 64, 68
1, 18179, Control_c, 0, 64, 64
1, 18194, Control_c, 0, 64, 60
1, 18209, Control_c, 0, 64, 49
1, 18224, Control_c, 0, 64, 0
1, 18283, Control_c, 0, 64, 37
1, 18298, Control_c, 0, 64, 54
1, 18313, Control_c, 0, 64, 63
1, 18328, Control_c, 0, 64, 68
1, 18343, Control_c, 0, 64, 75
1, 18358, Control_c, 0, 64, 83
1, 18372, Control_c, 0, 64, 96
1, 18387, Control_c, 0, 64, 107
1, 18402, Control_c, 0, 64, 127
1, 18403, Note_off_c, 0, 55, 42
1, 18488, Note_off_c, 0, 74, 44
1, 18555, Note_off_c, 0, 83, 62
1, 18570, Note_off_c, 0, 79, 38
1, 18906, Note_on_c, 0, 82, 91
1, 18921, Note_on_c, 0, 79, 69
1, 18930, Note_on_c, 0, 70, 58
1, 18933, Note_on_c, 0, 74, 62
1, 18937, Note_on_c, 0, 67, 57
1, 18989, Note_off_c, 0, 71, 37
1, 19004, Control_c, 0, 64, 112
1, 19019, Control_c, 0, 64, 96
1, 19034, Control_c, 0, 64, 87
1, 19049, Control_c, 0, 64, 80
1, 19064, Control_c, 0, 64, 73
1, 19078, Control_c, 0, 64, 65
1, 19093, Control_c, 0, 64, 53
1, 19108, Control_c, 0, 64, 35
1, 19123, Control_c, 0, 64, 34
1, 19137, Control_c, 0, 64, 47
1, 19152, Control_c, 0, 64, 59
1, 19167, Control_c, 0, 64, 65
1, 19182, Control_c, 0, 64, 72
1, 19196, Control_c, 0, 64, 80
1, 19211, Control_c, 0, 64, 92
1, 19226, Control_c, 0, 64, 107
1, 19241, Control_c, 0, 64, 127
1, 19285, Note_off_c, 0, 74, 58
1, 19307, Note_off_c, 0, 79, 62
1, 19330, Note_off_c, 0, 82, 62
1, 19332, Note_off_c, 0, 67, 62
1, 19419, Note_off_c, 0, 70, 64
1, 19862, Note_on_c, 0, 82, 91
1, 19877, Note_on_c, 0, 74, 74
1, 19878, Note_on_c, 0, 68, 59
1, 19880, Note_on_c, 0, 70, 56
1, 19892, Note_on_c, 0, 65, 56
1, 19990, Control_c, 0, 64, 112
1, 20005, Control_c, 0, 64, 100
1, 20020, Control_c, 0, 64, 91
1, 20034, Control_c, 0, 64, 82
1, 20049, Control_c, 0, 64, 74
1, 20064, Control_c, 0, 64, 67
1, 20078, Control_c, 0, 64, 62
1, 20093, Control_c, 0, 64, 57
1, 20108, Control_c, 0, 64, 50
1, 20123, Control_c, 0, 64, 38
1, 20138, Control_c, 0, 64, 35
1, 20160, Control_c, 0, 64, 44
1, 20175, Control_c, 0, 64, 57
1, 20190, Control_c, 0, 64, 64
1, 20205, Control_c, 0, 64, 67
1, 20220, Control_c, 0, 64, 70
1, 20234, Control_c, 0, 64, 74
1, 20249, Control_c, 0, 64, 83
1, 20264, Control_c, 0, 64, 94
1, 20278, Control_c, 0, 64, 104
1, 20293, Control_c, 0, 64, 116
1, 20307, Control_c, 0, 64, 127
1, 20453, Note_off_c, 0, 74, 52
1, 20502, Note_off_c, 0, 65, 55
1, 20557, Note_off_c, 0, 68, 59
1, 20851, Note_on_c, 0, 75, 57
1, 20876, Note_on_c, 0, 67, 44
1, 20879, Note_on_c, 0, 63, 41
1, 20908, Control_c, 0, 64, 113
1, 20923, Control_c, 0, 64, 103
1, 20938, Control_c, 0, 64, 96
1, 20953, Control_c, 0, 64, 88
1, 20968, Control_c, 0, 64, 81
1, 20982, Control_c, 0, 64, 73
1, 20997, Control_c, 0, 64, 66
1, 21012, Control_c, 0, 64, 61
1, 21026, Control_c, 0, 64, 56
1, 21041, Control_c, 0, 64, 53
1, 21056, Control_c, 0, 64, 47
1, 21071, Control_c, 0, 64, 40
1, 21086, Control_c, 0, 64, 41
1, 21100, Control_c, 0, 64, 52
1, 21115, Control_c, 0, 64, 62
1, 21130, Control_c, 0, 64, 65
1, 21145, Control_c, 0, 64, 69
1, 21145, Control_c, 0, 67, 8
1, 21160, Control_c, 0, 64, 74
1, 21160, Control_c, 0, 67, 11
1, 21176, Control_c, 0, 64, 80
1, 21176, Control_c, 0, 67, 15
1, 21191, Control_c, 0, 64, 86
1, 21191, Control_c, 0, 67, 20
1, 21205, Control_c, 0, 64, 91
1, 21205, Control_c, 0, 67, 24
1, 21220, Control_c, 0, 64, 94
1, 21220, Control_c, 0, 67, 28
1, 21235, Control_c, 0, 64, 98
1, 21235, Control_c, 0, 67, 33
1, 21250, Control_c, 0, 64, 103
1, 21250, Control_c, 0, 67, 37
1, 21265, Control_c, 0, 64, 110
1, 21265, Control_c, 0, 67, 40
1, 21267, Note_off_c, 0, 63, 35
1, 21279, Control_c, 0, 64, 123
1, 21279, Control_c, 0, 67, 44
1, 21294, Control_c, 0, 64, 127
1, 21294, Control_c, 0, 67, 47
1, 21309, Control_c, 0, 67, 50
1, 21324, Control_c, 0, 67, 54
1, 21339, Control_c, 0, 67, 59
1, 21339, Note_off_c, 0, 67, 52
1, 21354, Control_c, 0, 67, 64
1, 21369, Control_c, 0, 67, 68
1, 21384, Control_c, 0, 67, 72
1, 21398, Control_c, 0, 67, 74
1, 21413, Control_c, 0, 67, 76
1, 21413, Note_off_c, 0, 75, 54
1, 21428, Control_c, 0, 67, 78
1, 21443, Control_c, 0, 67, 80
1, 21458, Control_c, 0, 67, 83
1, 21472, Control_c, 0, 67, 86
1, 21487, Control_c, 0, 67, 90
1, 21502, Control_c, 0, 67, 93
1, 21516, Control_c, 0, 67, 96
1, 21531, Control_c, 0, 67, 99
1, 21546, Control_c, 0, 67, 102
1, 21561, Control_c, 0, 67, 105
1, 21576, Control_c, 0, 67, 106
1, 21590, Control_c, 0, 67, 108
1, 21605, Control_c, 0, 67, 109
1, 21620, Control_c, 0, 67, 111
1, 21635, Control_c, 0, 67, 111
1, 21672, Control_c, 0, 67, 112
1, 21806, Control_c, 0, 64, 106
1, 21815, Note_on_c, 0, 77, 46
1, 21821, Control_c, 0, 64, 95
1, 21836, Control_c, 0, 64, 85
1, 21837, Note_on_c, 0, 65, 34
1, 21850, Control_c, 0, 64, 75
1, 21852, Note_on_c, 0, 62, 18
1, 21865, Control_c, 0, 64, 66
1, 21880, Control_c, 0, 64, 57
1, 21895, Control_c, 0, 64, 50
1, 21900, Note_off_c, 0, 82, 55
1, 21910, Control_c, 0, 64, 51
1, 21924, Control_c, 0, 64, 57
1, 21928, Note_off_c, 0, 70, 55
1, 21939, Control_c, 0, 64, 63
1, 21954, Control_c, 0, 64, 67
1, 21970, Control_c, 0, 64, 74
1, 21985, Control_c, 0, 64, 81
1, 22000, Control_c, 0, 64, 90
1, 22015, Control_c, 0, 64, 96
1, 22015, Control_c, 0, 67, 111
1, 22029, Note_off_c, 0, 77, 55
1, 22029, Control_c, 0, 64, 101
1, 22044, Control_c, 0, 64, 108
1, 22059, Control_c, 0, 64, 117
1, 22074, Control_c, 0, 64, 127
1, 22074, Control_c, 0, 67, 111
1, 22155, Note_on_c, 0, 70, 57
1, 22162, Control_c, 0, 67, 110
1, 22218, Note_off_c, 0, 65, 47
1, 22251, Control_c, 0, 67, 110
1, 22266, Note_off_c, 0, 62, 45
1, 22307, Note_off_c, 0, 70, 38
1, 22311, Control_c, 0, 67, 109
1, 22461, Note_on_c, 0, 72, 63
1, 22510, Control_c, 0, 67, 109
1, 22551, Note_off_c, 0, 72, 61
1, 22585, Control_c, 0, 67, 108
1, 22615, Control_c, 0, 64, 124
1, 22629, Control_c, 0, 64, 120
1, 22644, Control_c, 0, 64, 117
1, 22659, Control_c, 0, 64, 113
1, 22673, Control_c, 0, 64, 111
1, 22688, Control_c, 0, 64, 109
1, 22703, Control_c, 0, 64, 108
1, 22718, Control_c, 0, 64, 106
1, 22733, Control_c, 0, 64, 103
1, 22747, Control_c, 0, 64, 99
1, 22762, Control_c, 0, 64, 97
1, 22778, Control_c, 0, 64, 96
1, 22779, Note_on_c, 0, 69, 56
1, 22790, Note_on_c, 0, 62, 38
1, 22793, Note_on_c, 0, 58, 41
1, 22793, Control_c, 0, 64, 94
1, 22808, Control_c, 0, 64, 91
1, 22823, Control_c, 0, 64, 88
1, 22838, Control_c, 0, 64, 85
1, 22852, Control_c, 0, 64, 80
1, 22867, Control_c, 0, 64, 74
1, 22882, Control_c, 0, 64, 70
1, 22896, Control_c, 0, 64, 65
1, 22911, Control_c, 0, 64, 63
1, 22926, Control_c, 0, 64, 62
1, 22941, Control_c, 0, 64, 59
1, 22956, Control_c, 0, 64, 53
1, 22970, Control_c, 0, 64, 45
1, 22985, Control_c, 0, 64, 42
1, 23030, Control_c, 0, 64, 38
1, 23044, Control_c, 0, 64, 24
1, 23059, Control_c, 0, 64, 17
1, 23074, Control_c, 0, 64, 14
1, 23104, Control_c, 0, 64, 0
1, 23115, Note_on_c, 0, 70, 47
1, 23178, Note_off_c, 0, 69, 39
1, 23275, Note_off_c, 0, 70, 55
1, 23393, Control_c, 0, 64, 14
1, 23408, Control_c, 0, 67, 108
1, 23422, Control_c, 0, 64, 17
1, 23437, Control_c, 0, 64, 21
1, 23452, Control_c, 0, 64, 24
1, 23467, Control_c, 0, 64, 26
1, 23467, Control_c, 0, 67, 107
1, 23482, Control_c, 0, 64, 27
1, 23485, Note_on_c, 0, 68, 47
1, 23496, Control_c, 0, 64, 29
1, 23511, Control_c, 0, 64, 33
1, 23526, Control_c, 0, 64, 36
1, 23572, Control_c, 0, 64, 36
1, 23586, Control_c, 0, 64, 38
1, 23601, Control_c, 0, 64, 40
1, 23631, Control_c, 0, 64, 40
1, 23631, Control_c, 0, 67, 107
1, 23661, Control_c, 0, 64, 42
1, 23675, Control_c, 0, 64, 43
1, 23688, Note_off_c, 0, 62, 42
1, 23690, Control_c, 0, 64, 44
1, 23695, Note_off_c, 0, 68, 62
1, 23705, Control_c, 0, 64, 45
1, 23712, Note_off_c, 0, 58, 61
1, 23719, Control_c, 0, 64, 46
1, 23749, Control_c, 0, 64, 47
1, 23920, Control_c, 0, 64, 47
1, 24069, Note_on_c, 0, 67, 54
1, 24075, Note_on_c, 0, 61, 46
1, 24076, Note_on_c, 0, 58, 43
1, 24079, Note_on_c, 0, 64, 49
1, 24141, Control_c, 0, 67, 106
1, 24230, Control_c, 0, 67, 106
1, 24290, Control_c, 0, 64, 48
1, 24305, Control_c, 0, 64, 49
1, 24319, Control_c, 0, 64, 49
1, 24319, Control_c, 0, 67, 105
1, 24334, Control_c, 0, 64, 50
1, 24349, Control_c, 0, 64, 51
1, 24364, Control_c, 0, 64, 53
1, 24364, Control_c, 0, 67, 105
1, 24379, Control_c, 0, 64, 54
1, 24394, Control_c, 0, 64, 55
1, 24409, Control_c, 0, 64, 57
1, 24424, Control_c, 0, 64, 59
1, 24439, Control_c, 0, 64, 61
1, 24454, Control_c, 0, 64, 62
1, 24468, Control_c, 0, 64, 63
1, 24483, Control_c, 0, 64, 65
1, 24498, Control_c, 0, 64, 67
1, 24513, Control_c, 0, 64, 69
1, 24528, Control_c, 0, 64, 73
1, 24542, Control_c, 0, 64, 77
1, 24557, Control_c, 0, 64, 81
1, 24572, Control_c, 0, 64, 84
1, 24587, Control_c, 0, 64, 87
1, 24602, Control_c, 0, 64, 90
1, 24616, Control_c, 0, 64, 94
1, 24631, Control_c, 0, 64, 98
1, 24654, Control_c, 0, 64, 101
1, 24669, Control_c, 0, 64, 106
1, 24683, Control_c, 0, 64, 111
1, 24698, Control_c, 0, 64, 121
1, 24713, Control_c, 0, 64, 127
1, 24802, Control_c, 0, 67, 105
1, 24831, Control_c, 0, 67, 106
1, 24861, Control_c, 0, 67, 106
1, 24875, Control_c, 0, 67, 107
1, 24890, Control_c, 0, 67, 107
1, 24905, Control_c, 0, 67, 108
1, 24920, Control_c, 0, 67, 108
1, 24949, Control_c, 0, 67, 109
1, 24964, Control_c, 0, 67, 109
1, 24979, Control_c, 0, 67, 110
1, 24994, Control_c, 0, 67, 110
1, 25009, Control_c, 0, 67, 111
1, 25038, Control_c, 0, 67, 111
1, 25046, Note_off_c, 0, 64, 56
1, 25053, Control_c, 0, 67, 112
1, 25068, Control_c, 0, 67, 112
1, 25083, Control_c, 0, 67, 113
1, 25098, Control_c, 0, 67, 113
1, 25128, Control_c, 0, 67, 114
1, 25142, Control_c, 0, 67, 115
1, 25157, Control_c, 0, 67, 118
1, 25172, Control_c, 0, 67, 122
1, 25187, Control_c, 0, 67, 125
1, 25202, Control_c, 0, 67, 126
1, 25217, Control_c, 0, 67, 127
1, 25232, Control_c, 0, 67, 127
1, 25382, Note_off_c, 0, 61, 36
1, 25386, Note_off_c, 0, 58, 26
1, 25945, Note_on_c, 0, 65, 45
1, 25957, Note_on_c, 0, 56, 37
1, 25957, Note_on_c, 0, 62, 37
1, 25964, Note_on_c, 0, 46, 33
1, 25970, Note_on_c, 0, 34, 39
1, 25980, Control_c, 0, 64, 116
1, 25995, Control_c, 0, 64, 107
1, 26010, Control_c, 0, 64, 101
1, 26025, Control_c, 0, 64, 97
1, 26039, Control_c, 0, 64, 93
1, 26054, Control_c, 0, 64, 89
1, 26069, Control_c, 0, 64, 84
1, 26075, Note_off_c, 0, 67, 44
1, 26084, Control_c, 0, 64, 77
1, 26099, Control_c, 0, 64, 73
1, 26113, Control_c, 0, 64, 70
1, 26128, Control_c, 0, 64, 67
1, 26150, Control_c, 0, 64, 65
1, 26165, Control_c, 0, 64, 63
1, 26180, Control_c, 0, 64, 60
1, 26195, Control_c, 0, 64, 53
1, 26210, Control_c, 0, 64, 40
1, 26225, Control_c, 0, 64, 19
1, 26239, Control_c, 0, 64, 0
1, 26358, Control_c, 0, 64, 33
1, 26373, Control_c, 0, 64, 48
1, 26387, Control_c, 0, 64, 58
1, 26402, Control_c, 0, 64, 64
1, 26417, Control_c, 0, 64, 67
1, 26432, Control_c, 0, 64, 68
1, 26446, Control_c, 0, 64, 69
1, 26461, Control_c, 0, 64, 72
1, 26476, Control_c, 0, 64, 79
1, 26491, Control_c, 0, 64, 86
1, 26506, Control_c, 0, 64, 90
1, 26520, Control_c, 0, 64, 90
1, 26535, Control_c, 0, 64, 92
1, 26550, Control_c, 0, 64, 96
1, 26565, Control_c, 0, 64, 101
1, 26580, Control_c, 0, 64, 105
1, 26594, Control_c, 0, 64, 108
1, 26609, Control_c, 0, 64, 111
1, 26624, Control_c, 0, 64, 116
1, 26639, Control_c, 0, 64, 124
1, 26654, Control_c, 0, 64, 127
1, 26867, Note_off_c, 0, 62, 20
1, 26966, Note_off_c, 0, 34, 42
1, 27013, Note_off_c, 0, 46, 42
1, 27098, Note_off_c, 0, 56, 21
1, 28242, Note_on_c, 0, 63, 37
1, 28269, Note_on_c, 0, 54, 29
1, 28284, Note_on_c, 0, 47, 19
1, 28297, Note_on_c, 0, 35, 19
1, 28314, Control_c, 0, 64, 115
1, 28329, Control_c, 0, 64, 108
1, 28344, Control_c, 0, 64, 101
1, 28359, Control_c, 0, 64, 93
1, 28374, Control_c, 0, 64, 89
1, 28396, Control_c, 0, 64, 86
1, 28411, Control_c, 0, 64, 83
1, 28423, Note_off_c, 0, 65, 40
1, 28426, Control_c, 0, 64, 80
1, 28440, Control_c, 0, 64, 76
1, 28455, Control_c, 0, 64, 72
1, 28470, Control_c, 0, 64, 69
1, 28485, Control_c, 0, 64, 67
1, 28500, Control_c, 0, 64, 66
1, 28514, Control_c, 0, 64, 64
1, 28529, Control_c, 0, 64, 63
1, 28545, Control_c, 0, 64, 61
1, 28560, Control_c, 0, 64, 59
1, 28575, Control_c, 0, 64, 58
1, 28589, Control_c, 0, 64, 55
1, 28604, Control_c, 0, 64, 50
1, 28619, Control_c, 0, 64, 47
1, 28633, Control_c, 0, 64, 42
1, 28648, Control_c, 0, 64, 30
1, 28663, Control_c, 0, 64, 0
1, 28812, Control_c, 0, 64, 11
1, 28827, Control_c, 0, 64, 14
1, 28841, Control_c, 0, 64, 23
1, 28856, Control_c, 0, 64, 29
1, 28901, Control_c, 0, 64, 30
1, 28915, Control_c, 0, 64, 37
1, 28930, Control_c, 0, 64, 44
1, 28945, Control_c, 0, 64, 47
1, 28960, Control_c, 0, 64, 48
1, 28975, Control_c, 0, 64, 50
1, 28989, Control_c, 0, 64, 54
1, 29004, Control_c, 0, 64, 58
1, 29019, Control_c, 0, 64, 61
1, 29033, Control_c, 0, 64, 62
1, 29048, Control_c, 0, 64, 64
1, 29063, Control_c, 0, 64, 64
1, 29078, Control_c, 0, 64, 65
1, 29093, Control_c, 0, 64, 67
1, 29107, Control_c, 0, 64, 68
1, 29122, Control_c, 0, 64, 72
1, 29145, Control_c, 0, 64, 74
1, 29161, Control_c, 0, 64, 75
1, 29176, Control_c, 0, 64, 76
1, 29191, Control_c, 0, 64, 78
1, 29205, Control_c, 0, 64, 81
1, 29220, Control_c, 0, 64, 84
1, 29235, Control_c, 0, 64, 85
1, 29264, Control_c, 0, 64, 86
1, 29279, Control_c, 0, 64, 90
1, 29294, Control_c, 0, 64, 95
1, 29309, Control_c, 0, 64, 98
1, 29324, Control_c, 0, 64, 98
1, 29338, Control_c, 0, 64, 99
1, 29353, Control_c, 0, 64, 101
1, 29368, Control_c, 0, 64, 104
1, 29383, Control_c, 0, 64, 107
1, 29398, Control_c, 0, 64, 107
1, 29427, Control_c, 0, 64, 108
1, 29442, Control_c, 0, 64, 110
1, 29456, Control_c, 0, 64, 115
1, 29471, Control_c, 0, 64, 121
1, 29486, Control_c, 0, 64, 124
1, 29501, Control_c, 0, 64, 126
1, 29516, Control_c, 0, 64, 127
1, 29778, Note_off_c, 0, 35, 40
1, 29936, Note_off_c, 0, 47, 45
1, 29977, Note_off_c, 0, 54, 43
1, 30138, Note_off_c, 0, 63, 29
1, 30747, Note_on_c, 0, 66, 45
1, 30767, Note_on_c, 0, 63, 35
1, 30770, Note_on_c, 0, 54, 30
1, 30777, Control_c, 0, 64, 119
1, 30780, Note_on_c, 0, 47, 31
1, 30791, Control_c, 0, 64, 109
1, 30806, Control_c, 0, 64, 103
1, 30821, Control_c, 0, 64, 98
1, 30835, Control_c, 0, 64, 94
1, 30850, Control_c, 0, 64, 90
1, 30865, Control_c, 0, 64, 87
1, 30880, Control_c, 0, 64, 83
1, 30895, Control_c, 0, 64, 78
1, 30909, Control_c, 0, 64, 73
1, 30924, Control_c, 0, 64, 69
1, 30939, Control_c, 0, 64, 65
1, 30954, Control_c, 0, 64, 63
1, 30969, Control_c, 0, 64, 61
1, 30983, Control_c, 0, 64, 57
1, 30998, Control_c, 0, 64, 51
1, 31013, Control_c, 0, 64, 44
1, 31028, Control_c, 0, 64, 44
1, 31042, Control_c, 0, 64, 55
1, 31057, Control_c, 0, 64, 62
1, 31072, Control_c, 0, 64, 65
1, 31087, Control_c, 0, 64, 67
1, 31102, Control_c, 0, 64, 70
1, 31116, Control_c, 0, 64, 76
1, 31131, Control_c, 0, 64, 84
1, 31146, Control_c, 0, 64, 93
1, 31161, Control_c, 0, 64, 99
1, 31176, Control_c, 0, 64, 103
1, 31191, Control_c, 0, 64, 108
1, 31206, Control_c, 0, 64, 119
1, 31221, Control_c, 0, 64, 127
1, 31305, Note_off_c, 0, 63, 52
1, 31408, Note_off_c, 0, 54, 42
1, 31421, Note_on_c, 0, 71, 56
1, 31510, Note_off_c, 0, 66, 51
1, 31518, Note_off_c, 0, 71, 56
1, 31522, Note_off_c, 0, 47, 42
1, 31650, Note_on_c, 0, 71, 54
1, 31665, Note_on_c, 0, 54, 37
1, 31668, Note_on_c, 0, 49, 43
1, 31671, Note_on_c, 0, 64, 32
1, 31689, Control_c, 0, 64, 108
1, 31703, Control_c, 0, 64, 99
1, 31718, Control_c, 0, 64, 92
1, 31733, Control_c, 0, 64, 86
1, 31748, Control_c, 0, 64, 80
1, 31763, Control_c, 0, 64, 73
1, 31778, Control_c, 0, 64, 67
1, 31793, Control_c, 0, 64, 62
1, 31807, Control_c, 0, 64, 57
1, 31822, Control_c, 0, 64, 53
1, 31837, Control_c, 0, 64, 52
1, 31866, Control_c, 0, 64, 55
1, 31881, Control_c, 0, 64, 61
1, 31896, Control_c, 0, 64, 64
1, 31911, Control_c, 0, 64, 66
1, 31925, Control_c, 0, 64, 68
1, 31940, Control_c, 0, 64, 70
1, 31955, Control_c, 0, 64, 75
1, 31970, Control_c, 0, 64, 85
1, 31984, Control_c, 0, 64, 95
1, 31999, Control_c, 0, 64, 104
1, 32014, Control_c, 0, 64, 111
1, 32029, Control_c, 0, 64, 120
1, 32044, Control_c, 0, 64, 127
1, 32103, Control_c, 0, 67, 126
1, 32118, Control_c, 0, 67, 123
1, 32140, Control_c, 0, 67, 120
1, 32144, Note_off_c, 0, 64, 37
1, 32155, Control_c, 0, 67, 117
1, 32170, Note_off_c, 0, 49, 57
1, 32170, Control_c, 0, 67, 115
1, 32184, Control_c, 0, 67, 114
1, 32192, Note_off_c, 0, 54, 47
1, 32199, Control_c, 0, 67, 111
1, 32214, Control_c, 0, 67, 106
1, 32229, Control_c, 0, 67, 100
1, 32244, Control_c, 0, 67, 93
1, 32258, Control_c, 0, 67, 87
1, 32273, Control_c, 0, 67, 84
1, 32288, Control_c, 0, 67, 81
1, 32303, Control_c, 0, 67, 78
1, 32318, Control_c, 0, 67, 75
1, 32332, Control_c, 0, 67, 72
1, 32347, Control_c, 0, 67, 69
1, 32363, Control_c, 0, 67, 69
1, 32378, Control_c, 0, 67, 68
1, 32511, Control_c, 0, 67, 69
1, 32526, Control_c, 0, 67, 69
1, 32538, Note_on_c, 0, 70, 55
1, 32553, Note_on_c, 0, 49, 41
1, 32559, Note_on_c, 0, 54, 34
1, 32563, Note_on_c, 0, 64, 40
1, 32586, Control_c, 0, 67, 70
1, 32600, Control_c, 0, 64, 109
1, 32600, Control_c, 0, 67, 70
1, 32615, Note_off_c, 0, 71, 52
1, 32615, Control_c, 0, 64, 99
1, 32630, Control_c, 0, 64, 92
1, 32645, Control_c, 0, 64, 83
1, 32660, Control_c, 0, 64, 76
1, 32674, Control_c, 0, 64, 69
1, 32689, Control_c, 0, 64, 63
1, 32704, Control_c, 0, 64, 54
1, 32719, Control_c, 0, 64, 48
1, 32734, Control_c, 0, 64, 44
1, 32748, Control_c, 0, 64, 43
1, 32763, Control_c, 0, 64, 48
1, 32778, Control_c, 0, 64, 58
1, 32793, Control_c, 0, 64, 64
1, 32807, Control_c, 0, 64, 67
1, 32822, Control_c, 0, 64, 71
1, 32837, Control_c, 0, 64, 76
1, 32852, Control_c, 0, 64, 81
1, 32867, Control_c, 0, 64, 86
1, 32889, Control_c, 0, 64, 90
1, 32904, Control_c, 0, 64, 93
1, 32919, Control_c, 0, 64, 96
1, 32934, Control_c, 0, 64, 101
1, 32941, Note_off_c, 0, 54, 45
1, 32949, Control_c, 0, 64, 106
1, 32963, Control_c, 0, 64, 113
1, 32978, Control_c, 0, 64, 127
1, 33233, Note_on_c, 0, 76, 73
1, 33300, Note_off_c, 0, 64, 63
1, 33363, Note_off_c, 0, 70, 37
1, 33446, Note_on_c, 0, 75, 63
1, 33453, Note_on_c, 0, 63, 47
1, 33468, Control_c, 0, 64, 107
1, 33480, Note_on_c, 0, 47, 37
1, 33482, Note_on_c, 0, 54, 34
1, 33483, Control_c, 0, 64, 97
1, 33497, Control_c, 0, 64, 88
1, 33498, Note_off_c, 0, 76, 59
1, 33512, Control_c, 0, 64, 82
1, 33512, Control_c, 0, 67, 71
1, 33527, Control_c, 0, 64, 76
1, 33536, Note_off_c, 0, 49, 43
1, 33542, Control_c, 0, 64, 69
1, 33557, Control_c, 0, 64, 64
1, 33571, Control_c, 0, 64, 57
1, 33586, Control_c, 0, 64, 43
1, 33601, Control_c, 0, 64, 0
1, 33638, Control_c, 0, 67, 70
1, 33668, Control_c, 0, 67, 70
1, 33698, Control_c, 0, 64, 53
1, 33698, Control_c, 0, 67, 69
1, 33712, Control_c, 0, 64, 63
1, 33712, Control_c, 0, 67, 68
1, 33727, Control_c, 0, 64, 67
1, 33727, Control_c, 0, 67, 68
1, 33742, Control_c, 0, 64, 71
1, 33742, Control_c, 0, 67, 67
1, 33757, Control_c, 0, 64, 77
1, 33757, Control_c, 0, 67, 66
1, 33772, Control_c, 0, 64, 84
1, 33772, Control_c, 0, 67, 66
1, 33786, Control_c, 0, 64, 92
1, 33786, Control_c, 0, 67, 63
1, 33801, Control_c, 0, 64, 99
1, 33801, Control_c, 0, 67, 57
1, 33816, Control_c, 0, 64, 108
1, 33816, Control_c, 0, 67, 51
1, 33830, Control_c, 0, 64, 127
1, 33830, Control_c, 0, 67, 46
1, 33842, Note_off_c, 0, 63, 55
1, 33845, Control_c, 0, 67, 44
1, 33860, Control_c, 0, 67, 40
1, 33875, Control_c, 0, 67, 33
1, 33890, Control_c, 0, 67, 24
1, 33904, Control_c, 0, 67, 13
1, 33919, Control_c, 0, 67, 0
1, 33920, Note_off_c, 0, 75, 58
1, 33936, Note_off_c, 0, 54, 46
1, 34339, Note_on_c, 0, 75, 64
1, 34342, Note_on_c, 0, 54, 54
1, 34365, Note_on_c, 0, 46, 45
1, 34491, Control_c, 0, 64, 114
1, 34505, Control_c, 0, 64, 107
1, 34518, Note_off_c, 0, 47, 44
1, 34521, Control_c, 0, 64, 102
1, 34535, Control_c, 0, 64, 98
1, 34539, Note_off_c, 0, 75, 62
1, 34550, Note_on_c, 0, 77, 69
1, 34550, Control_c, 0, 64, 95
1, 34565, Control_c, 0, 64, 92
1, 34580, Control_c, 0, 64, 90
1, 34595, Control_c, 0, 64, 88
1, 34610, Control_c, 0, 64, 87
1, 34619, Note_on_c, 0, 75, 77
1, 34622, Note_off_c, 0, 77, 59
1, 34625, Control_c, 0, 64, 86
1, 34640, Control_c, 0, 64, 84
1, 34654, Control_c, 0, 64, 82
1, 34669, Control_c, 0, 64, 80
1, 34684, Control_c, 0, 64, 78
1, 34690, Note_off_c, 0, 75, 63
1, 34691, Note_on_c, 0, 74, 79
1, 34699, Control_c, 0, 64, 77
1, 34714, Control_c, 0, 64, 74
1, 34728, Control_c, 0, 64, 71
1, 34743, Control_c, 0, 64, 68
1, 34759, Control_c, 0, 64, 67
1, 34766, Note_on_c, 0, 75, 75
1, 34774, Control_c, 0, 64, 66
1, 34789, Control_c, 0, 64, 64
1, 34795, Note_off_c, 0, 74, 64
1, 34804, Control_c, 0, 64, 63
1, 34818, Control_c, 0, 64, 63
1, 34833, Control_c, 0, 64, 61
1, 34848, Control_c, 0, 64, 54
1, 34863, Control_c, 0, 64, 44
1, 34877, Control_c, 0, 64, 38
1, 34892, Control_c, 0, 64, 32
1, 34907, Control_c, 0, 64, 26
1, 34922, Control_c, 0, 64, 11
1, 34937, Control_c, 0, 64, 0
1, 34990, Note_on_c, 0, 77, 80
1, 35086, Note_off_c, 0, 75, 50
1, 35210, Control_c, 0, 64, 11
1, 35240, Control_c, 0, 64, 14
1, 35319, Note_on_c, 0, 78, 75
1, 35344, Note_on_c, 0, 72, 42
1, 35352, Note_on_c, 0, 45, 38
1, 35417, Control_c, 0, 64, 11
1, 35432, Control_c, 0, 64, 0
1, 35433, Note_off_c, 0, 46, 42
1, 35464, Note_off_c, 0, 77, 55
1, 35536, Control_c, 0, 64, 11
1, 35567, Control_c, 0, 64, 17
1, 35581, Control_c, 0, 64, 29
1, 35596, Control_c, 0, 64, 44
1, 35611, Control_c, 0, 64, 50
1, 35625, Control_c, 0, 64, 55
1, 35640, Control_c, 0, 64, 60
1, 35655, Control_c, 0, 64, 63
1, 35670, Control_c, 0, 64, 66
1, 35685, Control_c, 0, 64, 69
1, 35699, Control_c, 0, 64, 73
1, 35714, Control_c, 0, 64, 77
1, 35729, Control_c, 0, 64, 83
1, 35744, Control_c, 0, 64, 87
1, 35759, Control_c, 0, 64, 92
1, 35773, Control_c, 0, 64, 97
1, 35788, Control_c, 0, 64, 104
1, 35803, Control_c, 0, 64, 113
1, 35818, Control_c, 0, 64, 127
1, 35850, Note_off_c, 0, 72, 33
1, 35900, Control_c, 0, 67, 10
1, 35914, Control_c, 0, 67, 13
1, 35929, Control_c, 0, 67, 18
1, 35944, Control_c, 0, 67, 27
1, 35959, Control_c, 0, 67, 37
1, 35974, Control_c, 0, 67, 44
1, 35988, Control_c, 0, 67, 49
1, 35996, Note_off_c, 0, 54, 38
1, 36003, Control_c, 0, 67, 52
1, 36018, Control_c, 0, 67, 53
1, 36032, Control_c, 0, 67, 54
1, 36047, Control_c, 0, 67, 55
1, 36062, Control_c, 0, 67, 57
1, 36077, Control_c, 0, 67, 58
1, 36092, Control_c, 0, 67, 59
1, 36106, Control_c, 0, 67, 61
1, 36121, Control_c, 0, 67, 62
1, 36136, Control_c, 0, 67, 64
1, 36151, Control_c, 0, 67, 66
1, 36166, Control_c, 0, 67, 67
1, 36181, Control_c, 0, 67, 68
1, 36196, Control_c, 0, 67, 68
1, 36225, Control_c, 0, 67, 69
1, 36255, Note_on_c, 0, 72, 43
1, 36279, Note_on_c, 0, 53, 32
1, 36314, Control_c, 0, 64, 113
1, 36329, Control_c, 0, 64, 103
1, 36345, Control_c, 0, 64, 93
1, 36345, Control_c, 0, 67, 68
1, 36360, Control_c, 0, 64, 83
1, 36375, Control_c, 0, 64, 75
1, 36389, Control_c, 0, 64, 68
1, 36389, Control_c, 0, 67, 68
1, 36404, Control_c, 0, 64, 64
1, 36419, Control_c, 0, 64, 61
1, 36434, Control_c, 0, 64, 58
1, 36448, Control_c, 0, 64, 49
1, 36448, Control_c, 0, 67, 67
1, 36463, Control_c, 0, 64, 30
1, 36478, Control_c, 0, 64, 0
1, 36493, Control_c, 0, 64, 11
1, 36508, Control_c, 0, 64, 43
1, 36508, Control_c, 0, 67, 67
1, 36522, Control_c, 0, 64, 58
1, 36522, Control_c, 0, 67, 66
1, 36537, Control_c, 0, 64, 63
1, 36552, Control_c, 0, 64, 65
1, 36567, Control_c, 0, 64, 68
1, 36567, Control_c, 0, 67, 66
1, 36582, Control_c, 0, 64, 72
1, 36596, Control_c, 0, 64, 77
1, 36611, Control_c, 0, 64, 84
1, 36611, Control_c, 0, 67, 65
1, 36634, Control_c, 0, 64, 89
1, 36649, Control_c, 0, 64, 94
1, 36663, Control_c, 0, 64, 97
1, 36663, Control_c, 0, 67, 65
1, 36678, Control_c, 0, 64, 101
1, 36689, Note_on_c, 0, 75, 59
1, 36693, Control_c, 0, 64, 106
1, 36708, Control_c, 0, 64, 116
1, 36708, Control_c, 0, 67, 64
1, 36723, Control_c, 0, 64, 127
1, 36767, Control_c, 0, 67, 64
1, 36770, Note_off_c, 0, 72, 55
1, 36868, Note_off_c, 0, 53, 43
1, 36910, Note_off_c, 0, 78, 33
1, 37138, Note_on_c, 0, 74, 58
1, 37165, Note_on_c, 0, 70, 38
1, 37167, Note_on_c, 0, 46, 41
1, 37185, Note_on_c, 0, 53, 34
1, 37209, Note_off_c, 0, 75, 50
1, 37227, Control_c, 0, 64, 122
1, 37242, Control_c, 0, 64, 104
1, 37242, Control_c, 0, 67, 63
1, 37257, Control_c, 0, 64, 93
1, 37267, Note_off_c, 0, 45, 41
1, 37271, Control_c, 0, 64, 84
1, 37286, Control_c, 0, 64, 77
1, 37301, Control_c, 0, 64, 71
1, 37301, Control_c, 0, 67, 63
1, 37316, Control_c, 0, 64, 66
1, 37331, Control_c, 0, 64, 61
1, 37345, Control_c, 0, 64, 53
1, 37360, Control_c, 0, 64, 43
1, 37382, Control_c, 0, 64, 33
1, 37397, Control_c, 0, 64, 28
1, 37412, Control_c, 0, 64, 32
1, 37427, Control_c, 0, 64, 50
1, 37427, Control_c, 0, 67, 62
1, 37442, Control_c, 0, 64, 60
1, 37457, Control_c, 0, 64, 64
1, 37471, Control_c, 0, 64, 67
1, 37486, Control_c, 0, 64, 72
1, 37501, Control_c, 0, 64, 77
1, 37516, Control_c, 0, 64, 85
1, 37530, Control_c, 0, 64, 94
1, 37544, Control_c, 0, 64, 101
1, 37559, Control_c, 0, 64, 108
1, 37559, Control_c, 0, 67, 62
1, 37574, Control_c, 0, 64, 120
1, 37589, Control_c, 0, 64, 127
1, 37677, Control_c, 0, 67, 62
1, 37701, Note_off_c, 0, 74, 53
1, 37703, Note_off_c, 0, 53, 43
1, 37719, Note_off_c, 0, 70, 43
1, 37767, Control_c, 0, 67, 63
1, 38039, Note_on_c, 0, 73, 69
1, 38043, Note_on_c, 0, 52, 54
1, 38049, Note_on_c, 0, 70, 45
1, 38053, Note_on_c, 0, 44, 46
1, 38093, Control_c, 0, 67, 63
1, 38108, Control_c, 0, 64, 113
1, 38130, Control_c, 0, 64, 103
1, 38145, Control_c, 0, 64, 96
1, 38148, Note_off_c, 0, 46, 40
1, 38160, Control_c, 0, 64, 91
1, 38175, Control_c, 0, 64, 89
1, 38190, Control_c, 0, 64, 86
1, 38205, Control_c, 0, 64, 82
1, 38219, Control_c, 0, 64, 78
1, 38233, Note_off_c, 0, 73, 62
1, 38234, Control_c, 0, 64, 74
1, 38249, Control_c, 0, 64, 69
1, 38252, Note_on_c, 0, 75, 68
1, 38264, Control_c, 0, 64, 66
1, 38279, Control_c, 0, 64, 64
1, 38293, Control_c, 0, 64, 63
1, 38308, Control_c, 0, 64, 59
1, 38323, Control_c, 0, 64, 53
1, 38330, Note_on_c, 0, 73, 68
1, 38330, Note_off_c, 0, 75, 56
1, 38338, Control_c, 0, 64, 50
1, 38353, Control_c, 0, 64, 49
1, 38381, Note_off_c, 0, 73, 62
1, 38396, Note_on_c, 0, 72, 67
1, 38441, Control_c, 0, 64, 50
1, 38471, Control_c, 0, 64, 50
1, 38480, Note_off_c, 0, 72, 61
1, 38485, Note_on_c, 0, 73, 76
1, 38515, Control_c, 0, 64, 51
1, 38545, Control_c, 0, 64, 51
1, 38560, Control_c, 0, 64, 52
1, 38604, Control_c, 0, 64, 52
1, 38619, Control_c, 0, 64, 53
1, 38649, Control_c, 0, 64, 53
1, 38649, Control_c, 0, 67, 63
1, 38664, Control_c, 0, 64, 54
1, 38708, Control_c, 0, 64, 55
1, 38718, Note_on_c, 0, 75, 74
1, 38738, Control_c, 0, 64, 56
1, 38753, Control_c, 0, 64, 56
1, 38753, Control_c, 0, 67, 62
1, 38768, Control_c, 0, 64, 57
1, 38779, Note_off_c, 0, 73, 54
1, 38828, Control_c, 0, 64, 57
1, 38879, Control_c, 0, 64, 59
1, 38894, Control_c, 0, 64, 60
1, 38909, Control_c, 0, 64, 60
1, 38953, Control_c, 0, 64, 61
1, 38983, Control_c, 0, 64, 61
1, 39065, Note_on_c, 0, 76, 66
1, 39099, Note_on_c, 0, 43, 38
1, 39166, Note_off_c, 0, 75, 57
1, 39171, Note_off_c, 0, 44, 51
1, 39190, Control_c, 0, 67, 62
1, 39205, Control_c, 0, 64, 61
1, 39309, Control_c, 0, 64, 61
1, 39338, Control_c, 0, 64, 62
1, 39353, Control_c, 0, 64, 63
1, 39367, Control_c, 0, 64, 65
1, 39382, Control_c, 0, 64, 67
1, 39397, Control_c, 0, 64, 69
1, 39412, Control_c, 0, 64, 70
1, 39427, Control_c, 0, 64, 74
1, 39427, Control_c, 0, 67, 62
1, 39442, Control_c, 0, 64, 79
1, 39457, Control_c, 0, 64, 87
1, 39457, Control_c, 0, 67, 63
1, 39472, Control_c, 0, 64, 95
1, 39487, Control_c, 0, 64, 103
1, 39487, Control_c, 0, 67, 63
1, 39501, Control_c, 0, 64, 111
1, 39501, Control_c, 0, 67, 64
1, 39516, Control_c, 0, 64, 127
1, 39516, Control_c, 0, 67, 64
1, 39561, Control_c, 0, 67, 65
1, 39570, Note_off_c, 0, 70, 41
1, 39584, Note_off_c, 0, 52, 58
1, 39658, Control_c, 0, 67, 65
1, 39997, Note_on_c, 0, 70, 41
1, 40006, Note_on_c, 0, 51, 37
1, 40043, Control_c, 0, 64, 109
1, 40058, Control_c, 0, 64, 97
1, 40072, Control_c, 0, 64, 90
1, 40087, Control_c, 0, 64, 83
1, 40102, Control_c, 0, 64, 75
1, 40117, Control_c, 0, 64, 68
1, 40132, Control_c, 0, 64, 64
1, 40146, Control_c, 0, 64, 60
1, 40161, Control_c, 0, 64, 55
1, 40176, Control_c, 0, 64, 49
1, 40190, Control_c, 0, 64, 44
1, 40205, Control_c, 0, 64, 42
1, 40220, Control_c, 0, 64, 43
1, 40220, Control_c, 0, 67, 66
1, 40235, Control_c, 0, 64, 52
1, 40250, Control_c, 0, 64, 59
1, 40265, Control_c, 0, 64, 62
1, 40280, Control_c, 0, 64, 64
1, 40294, Control_c, 0, 64, 67
1, 40294, Control_c, 0, 67, 66
1, 40309, Control_c, 0, 64, 73
1, 40324, Control_c, 0, 64, 80
1, 40340, Control_c, 0, 64, 90
1, 40355, Control_c, 0, 64, 97
1, 40377, Control_c, 0, 64, 101
1, 40392, Control_c, 0, 64, 104
1, 40407, Control_c, 0, 64, 107
1, 40421, Control_c, 0, 64, 115
1, 40427, Note_on_c, 0, 75, 54
1, 40436, Control_c, 0, 64, 127
1, 40510, Control_c, 0, 67, 66
1, 40556, Note_off_c, 0, 51, 46
1, 40632, Note_on_c, 0, 73, 63
1, 40688, Control_c, 0, 67, 65
1, 40708, Note_off_c, 0, 70, 37
1, 40806, Note_off_c, 0, 76, 35
1, 40908, Note_on_c, 0, 71, 53
1, 40932, Note_on_c, 0, 68, 42
1, 40935, Note_on_c, 0, 44, 38
1, 40939, Control_c, 0, 64, 121
1, 40940, Note_on_c, 0, 51, 34
1, 40954, Control_c, 0, 64, 109
1, 40969, Control_c, 0, 64, 100
1, 40984, Control_c, 0, 64, 93
1, 40999, Control_c, 0, 64, 88
1, 40999, Control_c, 0, 67, 65
1, 41013, Control_c, 0, 64, 82
1, 41014, Note_off_c, 0, 75, 38
1, 41028, Control_c, 0, 64, 77
1, 41035, Note_off_c, 0, 73, 38
1, 41039, Note_off_c, 0, 43, 40
1, 41043, Control_c, 0, 64, 72
1, 41058, Control_c, 0, 64, 67
1, 41073, Control_c, 0, 64, 64
1, 41087, Control_c, 0, 64, 62
1, 41102, Control_c, 0, 64, 59
1, 41125, Control_c, 0, 64, 54
1, 41141, Control_c, 0, 64, 47
1, 41156, Control_c, 0, 64, 36
1, 41170, Control_c, 0, 64, 34
1, 41185, Control_c, 0, 64, 36
1, 41200, Control_c, 0, 64, 47
1, 41215, Control_c, 0, 64, 54
1, 41230, Control_c, 0, 64, 59
1, 41244, Control_c, 0, 64, 64
1, 41259, Control_c, 0, 64, 68
1, 41274, Control_c, 0, 64, 72
1, 41289, Control_c, 0, 64, 78
1, 41304, Control_c, 0, 64, 87
1, 41318, Control_c, 0, 64, 93
1, 41333, Control_c, 0, 64, 98
1, 41348, Control_c, 0, 64, 104
1, 41363, Control_c, 0, 64, 112
1, 41377, Control_c, 0, 64, 127
1, 41378, Note_off_c, 0, 68, 50
1, 41409, Note_off_c, 0, 51, 44
1, 41491, Note_off_c, 0, 71, 40
1, 41511, Control_c, 0, 67, 65
1, 41576, Note_off_c, 0, 44, 42
1, 41674, Control_c, 0, 67, 66
1, 41733, Control_c, 0, 67, 66
1, 41854, Note_on_c, 0, 70, 54
1, 41866, Note_on_c, 0, 75, 77
1, 41883, Note_on_c, 0, 42, 53
1, 41886, Note_on_c, 0, 63, 51
1, 41889, Note_on_c, 0, 46, 54
1, 41890, Note_on_c, 0, 54, 46
1, 41918, Control_c, 0, 64, 111
1, 41918, Control_c, 0, 67, 66
1, 41933, Control_c, 0, 64, 102
1, 41949, Control_c, 0, 64, 96
1, 41964, Control_c, 0, 64, 90
1, 41979, Control_c, 0, 64, 84
1, 41993, Control_c, 0, 64, 77
1, 42008, Control_c, 0, 64, 70
1, 42023, Control_c, 0, 64, 64
1, 42038, Control_c, 0, 64, 59
1, 42038, Control_c, 0, 67, 65
1, 42053, Control_c, 0, 64, 57
1, 42067, Control_c, 0, 64, 55
1, 42082, Control_c, 0, 64, 53
1, 42097, Control_c, 0, 64, 53
1, 42112, Control_c, 0, 64, 52
1, 42127, Control_c, 0, 64, 53
1, 42141, Control_c, 0, 64, 56
1, 42156, Control_c, 0, 64, 61
1, 42171, Control_c, 0, 64, 64
1, 42185, Control_c, 0, 64, 66
1, 42200, Control_c, 0, 64, 69
1, 42215, Control_c, 0, 64, 72
1, 42230, Control_c, 0, 64, 76
1, 42245, Control_c, 0, 64, 82
1, 42260, Control_c, 0, 64, 87
1, 42274, Control_c, 0, 64, 91
1, 42289, Control_c, 0, 64, 95
1, 42304, Control_c, 0, 64, 99
1, 42319, Control_c, 0, 64, 104
1, 42334, Control_c, 0, 64, 115
1, 42348, Control_c, 0, 64, 127
1, 42348, Control_c, 0, 67, 66
1, 42369, Note_off_c, 0, 70, 56
1, 42396, Note_off_c, 0, 46, 52
1, 42420, Note_off_c, 0, 42, 36
1, 42438, Control_c, 0, 67, 66
1, 42453, Note_off_c, 0, 75, 40
1, 42467, Control_c, 0, 67, 67
1, 42471, Note_off_c, 0, 54, 33
1, 42496, Note_off_c, 0, 63, 56
1, 42497, Control_c, 0, 67, 67
1, 42571, Control_c, 0, 67, 68
1, 42637, Control_c, 0, 67, 68
1, 42905, Control_c, 0, 64, 116
1, 42912, Note_on_c, 0, 74, 49
1, 42920, Note_on_c, 0, 70, 45
1, 42920, Control_c, 0, 64, 109
1, 42920, Control_c, 0, 67, 69
1, 42930, Note_on_c, 0, 41, 34
1, 42930, Note_on_c, 0, 68, 42
1, 42933, Note_on_c, 0, 46, 42
1, 42935, Control_c, 0, 64, 104
1, 42939, Note_on_c, 0, 53, 32
1, 42941, Note_on_c, 0, 62, 34
1, 42950, Control_c, 0, 64, 98
1, 42964, Control_c, 0, 64, 91
1, 42979, Control_c, 0, 64, 85
1, 42994, Control_c, 0, 64, 78
1, 43008, Control_c, 0, 64, 71
1, 43023, Control_c, 0, 64, 66
1, 43038, Control_c, 0, 64, 64
1, 43053, Control_c, 0, 64, 61
1, 43068, Control_c, 0, 64, 57
1, 43083, Control_c, 0, 64, 53
1, 43097, Control_c, 0, 64, 42
1, 43112, Control_c, 0, 64, 28
1, 43127, Control_c, 0, 64, 19
1, 43141, Control_c, 0, 64, 0
1, 43290, Control_c, 0, 67, 69
1, 43579, Control_c, 0, 64, 23
1, 43594, Control_c, 0, 64, 30
1, 43609, Control_c, 0, 64, 31
1, 43654, Control_c, 0, 64, 35
1, 43669, Control_c, 0, 64, 41
1, 43683, Note_off_c, 0, 41, 40
1, 43684, Control_c, 0, 64, 42
1, 43713, Control_c, 0, 67, 69
1, 43728, Control_c, 0, 64, 42
1, 43732, Note_off_c, 0, 53, 45
1, 43734, Note_off_c, 0, 70, 40
1, 43737, Note_off_c, 0, 62, 39
1, 43743, Control_c, 0, 64, 43
1, 43755, Note_off_c, 0, 46, 35
1, 43757, Control_c, 0, 64, 44
1, 43759, Note_off_c, 0, 74, 43
1, 43764, Note_off_c, 0, 68, 43
1, 43772, Control_c, 0, 64, 44
1, 43787, Control_c, 0, 64, 45
1, 43979, Control_c, 0, 64, 45
1, 43994, Control_c, 0, 64, 46
1, 44038, Control_c, 0, 67, 68
1, 44135, Control_c, 0, 64, 46
1, 44150, Control_c, 0, 64, 47
1, 44194, Control_c, 0, 64, 47
1, 44224, Control_c, 0, 64, 48
1, 44238, Control_c, 0, 64, 48
1, 44253, Control_c, 0, 64, 49
1, 44269, Control_c, 0, 64, 50
1, 44284, Control_c, 0, 64, 51
1, 44313, Control_c, 0, 64, 51
1, 44344, Control_c, 0, 64, 52
1, 44359, Control_c, 0, 64, 53
1, 44418, Control_c, 0, 64, 54
1, 44433, Control_c, 0, 64, 55
1, 44448, Control_c, 0, 64, 56
1, 44566, Control_c, 0, 64, 56
1, 44744, Control_c, 0, 64, 57
1, 44744, Control_c, 0, 67, 68
1, 44759, Control_c, 0, 64, 57
1, 44774, Control_c, 0, 64, 58
1, 44788, Control_c, 0, 64, 59
1, 44833, Control_c, 0, 64, 59
1, 44848, Control_c, 0, 64, 60
1, 44848, Control_c, 0, 67, 67
1, 44900, Control_c, 0, 64, 61
1, 44914, Control_c, 0, 64, 62
1, 44929, Control_c, 0, 64, 63
1, 44944, Control_c, 0, 64, 64
1, 44959, Control_c, 0, 64, 65
1, 44974, Control_c, 0, 64, 66
1, 44988, Control_c, 0, 64, 67
1, 45003, Control_c, 0, 64, 68
1, 45018, Control_c, 0, 64, 69
1, 45033, Control_c, 0, 64, 71
1, 45048, Control_c, 0, 64, 72
1, 45062, Control_c, 0, 64, 74
1, 45077, Control_c, 0, 64, 76
1, 45092, Control_c, 0, 64, 78
1, 45107, Control_c, 0, 64, 82
1, 45121, Control_c, 0, 64, 85
1, 45138, Control_c, 0, 64, 88
1, 45138, Control_c, 0, 67, 67
1, 45153, Control_c, 0, 64, 90
1, 45153, Control_c, 0, 67, 66
1, 45167, Control_c, 0, 64, 91
1, 45182, Control_c, 0, 64, 94
1, 45197, Control_c, 0, 64, 97
1, 45197, Control_c, 0, 67, 66
1, 45211, Control_c, 0, 64, 99
1, 45226, Control_c, 0, 64, 99
1, 45226, Control_c, 0, 67, 65
1, 45241, Control_c, 0, 64, 100
1, 45241, Control_c, 0, 67, 65
1, 45256, Control_c, 0, 64, 102
1, 45264, Note_on_c, 0, 74, 55
1, 45266, Note_on_c, 0, 70, 46
1, 45270, Note_on_c, 0, 68, 45
1, 45271, Control_c, 0, 64, 106
1, 45272, Note_on_c, 0, 62, 35
1, 45281, Note_on_c, 0, 41, 41
1, 45283, Note_on_c, 0, 46, 39
1, 45285, Control_c, 0, 64, 112
1, 45286, Note_on_c, 0, 53, 40
1, 45300, Control_c, 0, 64, 118
1, 45300, Control_c, 0, 67, 64
1, 45315, Control_c, 0, 64, 127
1, 45344, Control_c, 0, 67, 64
1, 45416, Note_off_c, 0, 74, 62
1, 45426, Note_off_c, 0, 68, 37
1, 45428, Note_off_c, 0, 53, 58
1, 45433, Note_off_c, 0, 70, 50
1, 45433, Control_c, 0, 67, 64
1, 45441, Note_off_c, 0, 41, 42
1, 45460, Note_off_c, 0, 62, 42
1, 45473, Note_off_c, 0, 46, 39
1, 45552, Control_c, 0, 67, 65
1, 45648, Control_c, 0, 67, 64
1, 45693, Control_c, 0, 64, 116
1, 45708, Control_c, 0, 64, 109
1, 45723, Control_c, 0, 64, 102
1, 45737, Note_on_c, 0, 75, 57
1, 45737, Control_c, 0, 64, 96
1, 45752, Control_c, 0, 64, 90
1, 45752, Note_on_c, 0, 70, 49
1, 45759, Note_on_c, 0, 66, 46
1, 45762, Note_on_c, 0, 63, 36
1, 45766, Control_c, 0, 64, 83
1, 45769, Note_on_c, 0, 51, 31
1, 45770, Note_on_c, 0, 39, 36
1, 45778, Note_on_c, 0, 46, 40
1, 45781, Control_c, 0, 64, 74
1, 45796, Control_c, 0, 64, 66
1, 45810, Control_c, 0, 64, 57
1, 45825, Control_c, 0, 64, 37
1, 45825, Control_c, 0, 67, 64
1, 45840, Control_c, 0, 64, 0
1, 45914, Control_c, 0, 64, 49
1, 45929, Control_c, 0, 64, 63
1, 45929, Control_c, 0, 67, 63
1, 45945, Control_c, 0, 64, 68
1, 45959, Control_c, 0, 64, 74
1, 45974, Note_off_c, 0, 66, 60
1, 45974, Control_c, 0, 64, 82
1, 45976, Note_off_c, 0, 51, 46
1, 45979, Note_off_c, 0, 70, 61
1, 45979, Note_off_c, 0, 75, 62
1, 45980, Note_off_c, 0, 46, 50
1, 45989, Control_c, 0, 64, 93
1, 45991, Note_off_c, 0, 63, 37
1, 46002, Note_off_c, 0, 39, 40
1, 46004, Control_c, 0, 64, 107
1, 46019, Control_c, 0, 64, 127
1, 46107, Control_c, 0, 67, 64
1, 46122, Control_c, 0, 64, 113
1, 46137, Control_c, 0, 64, 100
1, 46152, Control_c, 0, 64, 92
1, 46167, Control_c, 0, 64, 85
1, 46182, Control_c, 0, 64, 79
1, 46197, Control_c, 0, 64, 73
1, 46211, Note_on_c, 0, 75, 63
1, 46212, Control_c, 0, 64, 67
1, 46226, Control_c, 0, 64, 64
1, 46232, Note_on_c, 0, 51, 31
1, 46232, Note_on_c, 0, 70, 43
1, 46238, Note_on_c, 0, 63, 28
1, 46241, Control_c, 0, 64, 61
1, 46243, Note_on_c, 0, 39, 28
1, 46247, Note_on_c, 0, 46, 34
1, 46252, Note_on_c, 0, 66, 39
1, 46256, Control_c, 0, 64, 54
1, 46271, Control_c, 0, 64, 29
1, 46286, Control_c, 0, 64, 0
1, 46345, Control_c, 0, 64, 31
1, 46367, Control_c, 0, 64, 56
1, 46381, Control_c, 0, 64, 65
1, 46396, Control_c, 0, 64, 70
1, 46411, Note_off_c, 0, 66, 58
1, 46411, Control_c, 0, 64, 77
1, 46419, Note_off_c, 0, 46, 45
1, 46426, Control_c, 0, 64, 84
1, 46441, Control_c, 0, 64, 89
1, 46447, Note_off_c, 0, 70, 51
1, 46449, Note_off_c, 0, 39, 40
1, 46456, Control_c, 0, 64, 95
1, 46462, Note_off_c, 0, 63, 44
1, 46467, Note_off_c, 0, 75, 57
1, 46471, Control_c, 0, 64, 101
1, 46476, Note_off_c, 0, 51, 45
1, 46486, Control_c, 0, 64, 103
1, 46574, Control_c, 0, 64, 103
1, 46589, Control_c, 0, 64, 100
1, 46604, Control_c, 0, 64, 95
1, 46619, Control_c, 0, 64, 91
1, 46633, Control_c, 0, 64, 88
1, 46648, Control_c, 0, 64, 86
1, 46663, Control_c, 0, 64, 83
1, 46677, Control_c, 0, 64, 79
1, 46692, Control_c, 0, 64, 76
1, 46707, Control_c, 0, 64, 73
1, 46722, Control_c, 0, 64, 69
1, 46738, Control_c, 0, 64, 66
1, 46753, Control_c, 0, 64, 64
1, 46753, Control_c, 0, 67, 64
1, 46768, Control_c, 0, 64, 63
1, 46782, Control_c, 0, 64, 61
1, 46797, Control_c, 0, 64, 58
1, 46812, Control_c, 0, 64, 50
1, 46821, Note_on_c, 0, 77, 49
1, 46827, Control_c, 0, 64, 41
1, 46829, Note_on_c, 0, 70, 38
1, 46833, Note_on_c, 0, 65, 34
1, 46842, Control_c, 0, 64, 37
1, 46843, Note_on_c, 0, 50, 25
1, 46856, Control_c, 0, 64, 35
1, 46857, Note_on_c, 0, 46, 21
1, 46869, Note_on_c, 0, 38, 19
1, 46871, Control_c, 0, 64, 32
1, 46886, Control_c, 0, 64, 29
1, 46901, Control_c, 0, 64, 27
1, 46916, Control_c, 0, 64, 26
1, 46930, Control_c, 0, 64, 24
1, 46945, Control_c, 0, 64, 21
1, 46960, Control_c, 0, 64, 11
1, 46975, Control_c, 0, 64, 0
1, 47160, Control_c, 0, 64, 14
1, 47175, Control_c, 0, 64, 28
1, 47189, Control_c, 0, 64, 30
1, 47249, Control_c, 0, 64, 31
1, 47294, Control_c, 0, 64, 32
1, 47308, Control_c, 0, 64, 36
1, 47323, Control_c, 0, 64, 38
1, 47331, Note_off_c, 0, 65, 39
1, 47383, Control_c, 0, 64, 39
1, 47398, Control_c, 0, 64, 40
1, 47428, Control_c, 0, 64, 41
1, 47457, Note_off_c, 0, 70, 49
1, 47457, Control_c, 0, 64, 43
1, 47472, Control_c, 0, 64, 45
1, 47476, Note_off_c, 0, 38, 43
1, 47478, Note_off_c, 0, 46, 38
1, 47478, Note_off_c, 0, 50, 46
1, 47487, Control_c, 0, 64, 46
1, 47516, Control_c, 0, 64, 47
1, 47520, Note_off_c, 0, 77, 38
1, 47532, Control_c, 0, 64, 48
1, 47547, Control_c, 0, 64, 49
1, 47577, Control_c, 0, 64, 49
1, 47592, Control_c, 0, 64, 50
1, 47621, Control_c, 0, 67, 65
1, 47636, Control_c, 0, 64, 50
1, 47651, Control_c, 0, 64, 51
1, 47725, Control_c, 0, 64, 51
1, 47739, Control_c, 0, 64, 52
1, 47813, Control_c, 0, 64, 53
1, 47828, Control_c, 0, 64, 53
1, 47881, Control_c, 0, 64, 54
1, 47895, Control_c, 0, 64, 54
1, 47910, Control_c, 0, 64, 55
1, 47954, Control_c, 0, 64, 55
1, 47969, Control_c, 0, 64, 57
1, 47984, Control_c, 0, 64, 59
1, 47999, Control_c, 0, 64, 60
1, 48013, Control_c, 0, 64, 61
1, 48028, Control_c, 0, 64, 61
1, 48058, Control_c, 0, 64, 62
1, 48073, Control_c, 0, 64, 62
1, 48087, Control_c, 0, 64, 63
1, 48117, Control_c, 0, 64, 63
1, 48146, Control_c, 0, 64, 64
1, 48161, Control_c, 0, 64, 64
1, 48176, Control_c, 0, 64, 65
1, 48206, Control_c, 0, 64, 65
1, 48236, Control_c, 0, 64, 66
1, 48250, Control_c, 0, 64, 68
1, 48265, Control_c, 0, 64, 69
1, 48280, Control_c, 0, 64, 70
1, 48295, Control_c, 0, 64, 71
1, 48310, Control_c, 0, 64, 72
1, 48325, Control_c, 0, 64, 74
1, 48340, Control_c, 0, 64, 76
1, 48355, Control_c, 0, 64, 77
1, 48355, Control_c, 0, 67, 65
1, 48370, Control_c, 0, 64, 78
1, 48385, Control_c, 0, 64, 79
1, 48399, Control_c, 0, 64, 83
1, 48414, Control_c, 0, 64, 87
1, 48429, Control_c, 0, 64, 89
1, 48474, Control_c, 0, 64, 90
1, 48489, Control_c, 0, 64, 91
1, 48503, Control_c, 0, 64, 94
1, 48518, Control_c, 0, 64, 97
1, 48533, Control_c, 0, 64, 98
1, 48547, Control_c, 0, 64, 100
1, 48562, Control_c, 0, 64, 101
1, 48577, Control_c, 0, 64, 103
1, 48592, Control_c, 0, 64, 107
1, 48614, Control_c, 0, 64, 115
1, 48629, Control_c, 0, 64, 127
1, 48644, Control_c, 0, 67, 66
1, 48659, Control_c, 0, 67, 66
1, 48689, Control_c, 0, 67, 67
1, 48733, Control_c, 0, 67, 68
1, 48777, Control_c, 0, 67, 68
1, 48866, Control_c, 0, 67, 69
1, 48895, Control_c, 0, 67, 69
1, 48954, Control_c, 0, 67, 70
1, 48984, Control_c, 0, 67, 70
1, 49043, Note_on_c, 0, 74, 46
1, 49057, Note_on_c, 0, 70, 37
1, 49070, Note_on_c, 0, 65, 32
1, 49076, Note_on_c, 0, 68, 29
1, 49207, Control_c, 0, 67, 70
1, 49246, Note_off_c, 0, 74, 57
1, 49261, Note_off_c, 0, 68, 41
1, 49272, Note_off_c, 0, 65, 42
1, 49282, Control_c, 0, 67, 69
1, 49305, Note_off_c, 0, 70, 36
1, 49326, Control_c, 0, 67, 69
1, 49407, Control_c, 0, 67, 68
1, 49467, Control_c, 0, 64, 118
1, 49482, Control_c, 0, 64, 110
1, 49496, Control_c, 0, 64, 104
1, 49510, Control_c, 0, 64, 99
1, 49525, Control_c, 0, 64, 93
1, 49526, Note_on_c, 0, 75, 48
1, 49530, Note_on_c, 0, 70, 35
1, 49540, Control_c, 0, 64, 87
1, 49550, Note_on_c, 0, 66, 35
1, 49554, Note_on_c, 0, 63, 34
1, 49555, Control_c, 0, 64, 82
1, 49570, Control_c, 0, 64, 76
1, 49584, Control_c, 0, 64, 71
1, 49599, Control_c, 0, 64, 66
1, 49614, Control_c, 0, 64, 61
1, 49629, Control_c, 0, 64, 56
1, 49644, Control_c, 0, 64, 54
1, 49673, Control_c, 0, 64, 57
1, 49688, Control_c, 0, 64, 61
1, 49702, Control_c, 0, 64, 65
1, 49717, Control_c, 0, 64, 68
1, 49732, Control_c, 0, 64, 73
1, 49747, Note_off_c, 0, 66, 42
1, 49747, Control_c, 0, 64, 79
1, 49754, Note_off_c, 0, 70, 51
1, 49757, Note_off_c, 0, 63, 52
1, 49762, Control_c, 0, 64, 87
1, 49762, Control_c, 0, 67, 68
1, 49776, Note_off_c, 0, 75, 55
1, 49777, Control_c, 0, 64, 94
1, 49792, Control_c, 0, 64, 99
1, 49792, Control_c, 0, 67, 67
1, 49806, Control_c, 0, 64, 100
1, 49881, Control_c, 0, 64, 98
1, 49896, Control_c, 0, 64, 94
1, 49910, Control_c, 0, 64, 90
1, 49926, Control_c, 0, 64, 85
1, 49941, Control_c, 0, 64, 79
1, 49956, Control_c, 0, 64, 74
1, 49970, Control_c, 0, 64, 69
1, 49985, Control_c, 0, 64, 65
1, 50000, Control_c, 0, 64, 63
1, 50012, Note_on_c, 0, 75, 46
1, 50015, Control_c, 0, 64, 59
1, 50023, Note_on_c, 0, 70, 29
1, 50030, Control_c, 0, 64, 53
1, 50037, Note_on_c, 0, 63, 30
1, 50042, Note_on_c, 0, 66, 21
1, 50045, Control_c, 0, 64, 37
1, 50060, Control_c, 0, 64, 0
1, 50140, Control_c, 0, 64, 30
1, 50155, Control_c, 0, 64, 50
1, 50170, Control_c, 0, 64, 62
1, 50185, Control_c, 0, 64, 66
1, 50200, Control_c, 0, 64, 71
1, 50215, Control_c, 0, 64, 76
1, 50230, Control_c, 0, 64, 80
1, 50245, Control_c, 0, 64, 84
1, 50245, Control_c, 0, 67, 67
1, 50259, Control_c, 0, 64, 88
1, 50266, Note_off_c, 0, 75, 55
1, 50269, Note_off_c, 0, 63, 41
1, 50273, Note_off_c, 0, 70, 40
1, 50273, Control_c, 0, 64, 90
1, 50273, Control_c, 0, 67, 66
1, 50288, Control_c, 0, 64, 91
1, 50303, Control_c, 0, 64, 91
1, 50303, Control_c, 0, 67, 66
1, 50319, Note_off_c, 0, 66, 36
1, 50347, Control_c, 0, 64, 90
1, 50362, Control_c, 0, 64, 89
1, 50377, Control_c, 0, 64, 87
1, 50377, Control_c, 0, 67, 65
1, 50392, Control_c, 0, 64, 85
1, 50406, Control_c, 0, 64, 83
1, 50421, Control_c, 0, 64, 79
1, 50436, Control_c, 0, 64, 76
1, 50451, Control_c, 0, 64, 74
1, 50466, Control_c, 0, 64, 72
1, 50480, Control_c, 0, 64, 71
1, 50495, Control_c, 0, 64, 69
1, 50510, Control_c, 0, 64, 67
1, 50525, Control_c, 0, 64, 66
1, 50540, Control_c, 0, 64, 65
1, 50555, Control_c, 0, 64, 64
1, 50570, Control_c, 0, 64, 63
1, 50584, Control_c, 0, 64, 61
1, 50599, Control_c, 0, 64, 59
1, 50614, Control_c, 0, 64, 56
1, 50617, Note_on_c, 0, 77, 43
1, 50629, Control_c, 0, 64, 54
1, 50637, Note_on_c, 0, 70, 25
1, 50640, Note_on_c, 0, 65, 23
1, 50644, Control_c, 0, 64, 52
1, 50649, Note_on_c, 0, 62, 16
1, 50658, Control_c, 0, 64, 50
1, 50673, Control_c, 0, 64, 46
1, 50688, Control_c, 0, 64, 43
1, 50703, Control_c, 0, 64, 37
1, 50718, Control_c, 0, 64, 36
1, 50734, Control_c, 0, 64, 35
1, 50748, Control_c, 0, 64, 30
1, 50763, Control_c, 0, 64, 24
1, 50778, Control_c, 0, 64, 0
1, 51186, Control_c, 0, 64, 11
1, 51230, Control_c, 0, 64, 17
1, 51245, Control_c, 0, 64, 19
1, 51260, Control_c, 0, 64, 21
1, 51260, Control_c, 0, 67, 65
1, 51264, Note_off_c, 0, 70, 37
1, 51290, Note_off_c, 0, 65, 40
1, 51304, Control_c, 0, 64, 26
1, 51312, Note_off_c, 0, 77, 35
1, 51319, Control_c, 0, 64, 31
1, 51334, Note_off_c, 0, 62, 38
1, 51393, Control_c, 0, 64, 32
1, 51408, Control_c, 0, 64, 36
1, 51422, Control_c, 0, 64, 38
1, 51437, Control_c, 0, 64, 38
1, 51467, Control_c, 0, 64, 39
1, 51482, Control_c, 0, 64, 40
1, 51497, Control_c, 0, 64, 42
1, 51512, Control_c, 0, 64, 43
1, 51527, Control_c, 0, 64, 44
1, 51571, Control_c, 0, 64, 45
1, 51586, Control_c, 0, 64, 46
1, 51609, Control_c, 0, 64, 48
1, 51624, Control_c, 0, 64, 49
1, 51668, Control_c, 0, 64, 49
1, 51683, Control_c, 0, 64, 50
1, 51698, Control_c, 0, 64, 50
1, 51727, Control_c, 0, 64, 51
1, 51756, Control_c, 0, 64, 51
1, 51771, Control_c, 0, 64, 52
1, 51786, Control_c, 0, 64, 53
1, 51801, Control_c, 0, 64, 55
1, 51816, Control_c, 0, 64, 56
1, 51831, Control_c, 0, 64, 57
1, 51845, Control_c, 0, 64, 58
1, 51860, Control_c, 0, 64, 58
1, 51875, Control_c, 0, 64, 59
1, 51890, Control_c, 0, 64, 59
1, 51904, Control_c, 0, 67, 64
1, 51919, Control_c, 0, 64, 60
1, 51934, Control_c, 0, 64, 60
1, 51978, Control_c, 0, 64, 61
1, 51993, Control_c, 0, 64, 61
1, 52008, Control_c, 0, 64, 62
1, 52023, Control_c, 0, 64, 63
1, 52052, Control_c, 0, 64, 64
1, 52082, Control_c, 0, 64, 65
1, 52096, Control_c, 0, 64, 65
1, 52141, Control_c, 0, 64, 66
1, 52156, Control_c, 0, 64, 68
1, 52170, Control_c, 0, 64, 70
1, 52185, Control_c, 0, 64, 71
1, 52185, Control_c, 0, 67, 64
1, 52215, Control_c, 0, 64, 72
1, 52230, Control_c, 0, 64, 74
1, 52245, Control_c, 0, 64, 77
1, 52260, Control_c, 0, 64, 80
1, 52275, Control_c, 0, 64, 83
1, 52289, Control_c, 0, 64, 84
1, 52304, Control_c, 0, 64, 86
1, 52319, Control_c, 0, 64, 87
1, 52334, Control_c, 0, 64, 88
1, 52357, Control_c, 0, 64, 89
1, 52372, Control_c, 0, 64, 90
1, 52387, Control_c, 0, 64, 92
1, 52401, Control_c, 0, 64, 95
1, 52416, Control_c, 0, 64, 97
1, 52431, Control_c, 0, 64, 98
1, 52446, Control_c, 0, 64, 100
1, 52461, Control_c, 0, 64, 102
1, 52475, Control_c, 0, 64, 106
1, 52490, Control_c, 0, 64, 111
1, 52505, Control_c, 0, 64, 119
1, 52520, Control_c, 0, 64, 127
1, 52534, Control_c, 0, 67, 63
1, 52653, Control_c, 0, 67, 64
1, 52723, Note_on_c, 0, 77, 56
1, 52743, Note_on_c, 0, 62, 32
1, 52747, Note_on_c, 0, 70, 43
1, 52752, Note_on_c, 0, 65, 35
1, 53067, Note_off_c, 0, 70, 37
1, 53077, Note_off_c, 0, 62, 40
1, 53126, Note_off_c, 0, 65, 37
1, 53229, Note_on_c, 0, 79, 73
1, 53234, Note_on_c, 0, 70, 48
1, 53255, Note_on_c, 0, 63, 47
1, 53264, Note_on_c, 0, 61, 42
1, 53269, Control_c, 0, 64, 104
1, 53284, Control_c, 0, 64, 94
1, 53284, Control_c, 0, 67, 64
1, 53298, Control_c, 0, 64, 88
1, 53313, Control_c, 0, 64, 83
1, 53328, Control_c, 0, 64, 76
1, 53343, Control_c, 0, 64, 68
1, 53357, Control_c, 0, 64, 61
1, 53363, Note_off_c, 0, 77, 51
1, 53372, Control_c, 0, 64, 54
1, 53387, Control_c, 0, 64, 50
1, 53402, Control_c, 0, 64, 47
1, 53431, Control_c, 0, 64, 55
1, 53446, Control_c, 0, 64, 63
1, 53461, Control_c, 0, 64, 66
1, 53476, Control_c, 0, 64, 68
1, 53491, Control_c, 0, 64, 71
1, 53506, Control_c, 0, 64, 77
1, 53521, Control_c, 0, 64, 89
1, 53536, Control_c, 0, 64, 99
1, 53550, Control_c, 0, 64, 103
1, 53556, Note_off_c, 0, 63, 49
1, 53565, Control_c, 0, 64, 105
1, 53568, Note_off_c, 0, 70, 60
1, 53580, Control_c, 0, 64, 112
1, 53583, Note_off_c, 0, 61, 57
1, 53595, Control_c, 0, 64, 127
1, 53647, Note_off_c, 0, 79, 52
1, 53757, Control_c, 0, 64, 118
1, 53772, Control_c, 0, 64, 107
1, 53787, Control_c, 0, 64, 99
1, 53802, Control_c, 0, 64, 93
1, 53805, Note_on_c, 0, 80, 58
1, 53816, Control_c, 0, 64, 88
1, 53822, Note_on_c, 0, 68, 42
1, 53827, Note_on_c, 0, 59, 36
1, 53831, Control_c, 0, 64, 82
1, 53834, Note_on_c, 0, 63, 32
1, 53854, Control_c, 0, 64, 75
1, 53869, Control_c, 0, 64, 69
1, 53883, Control_c, 0, 64, 64
1, 53898, Control_c, 0, 64, 61
1, 53913, Control_c, 0, 64, 60
1, 53929, Control_c, 0, 64, 60
1, 53973, Control_c, 0, 64, 60
1, 53988, Control_c, 0, 64, 63
1, 54004, Control_c, 0, 64, 65
1, 54018, Control_c, 0, 64, 67
1, 54033, Control_c, 0, 64, 70
1, 54048, Control_c, 0, 64, 73
1, 54063, Control_c, 0, 64, 78
1, 54078, Control_c, 0, 64, 86
1, 54092, Control_c, 0, 64, 95
1, 54093, Note_off_c, 0, 80, 58
1, 54104, Note_off_c, 0, 68, 44
1, 54107, Control_c, 0, 64, 98
1, 54122, Note_off_c, 0, 59, 37
1, 54122, Control_c, 0, 64, 99
1, 54132, Note_off_c, 0, 63, 44
1, 54137, Control_c, 0, 64, 101
1, 54152, Control_c, 0, 64, 104
1, 54166, Control_c, 0, 64, 105
1, 54166, Control_c, 0, 67, 65
1, 54270, Control_c, 0, 64, 104
1, 54285, Control_c, 0, 64, 103
1, 54299, Control_c, 0, 64, 100
1, 54314, Control_c, 0, 64, 96
1, 54329, Control_c, 0, 64, 92
1, 54344, Control_c, 0, 64, 88
1, 54359, Control_c, 0, 64, 86
1, 54373, Control_c, 0, 64, 84
1, 54388, Control_c, 0, 64, 81
1, 54403, Control_c, 0, 64, 79
1, 54418, Control_c, 0, 64, 76
1, 54433, Control_c, 0, 64, 74
1, 54448, Control_c, 0, 64, 72
1, 54463, Control_c, 0, 64, 70
1, 54478, Control_c, 0, 64, 68
1, 54485, Note_on_c, 0, 80, 39
1, 54492, Control_c, 0, 64, 66
1, 54500, Note_on_c, 0, 63, 22
1, 54505, Note_on_c, 0, 59, 27
1, 54507, Control_c, 0, 64, 65
1, 54508, Note_on_c, 0, 68, 32
1, 54522, Control_c, 0, 64, 64
1, 54618, Control_c, 0, 64, 65
1, 54633, Control_c, 0, 64, 64
1, 54647, Control_c, 0, 64, 63
1, 54662, Control_c, 0, 64, 61
1, 54677, Control_c, 0, 64, 61
1, 54692, Control_c, 0, 64, 60
1, 54707, Control_c, 0, 64, 60
1, 54767, Control_c, 0, 64, 58
1, 54782, Control_c, 0, 64, 55
1, 54797, Control_c, 0, 64, 52
1, 54811, Control_c, 0, 64, 49
1, 54826, Control_c, 0, 64, 47
1, 54915, Control_c, 0, 64, 48
1, 54930, Control_c, 0, 64, 50
1, 54945, Control_c, 0, 64, 51
1, 54960, Control_c, 0, 64, 53
1, 54975, Control_c, 0, 64, 55
1, 54989, Control_c, 0, 64, 57
1, 55004, Control_c, 0, 64, 59
1, 55063, Control_c, 0, 64, 60
1, 55076, Note_off_c, 0, 68, 33
1, 55078, Control_c, 0, 64, 61
1, 55102, Note_off_c, 0, 80, 31
1, 55108, Control_c, 0, 64, 62
1, 55120, Note_off_c, 0, 63, 33
1, 55122, Control_c, 0, 64, 63
1, 55137, Control_c, 0, 64, 63
1, 55152, Control_c, 0, 64, 64
1, 55169, Note_off_c, 0, 59, 32
1, 55270, Control_c, 0, 64, 63
1, 55515, Control_c, 0, 64, 64
1, 55679, Control_c, 0, 64, 64
1, 55724, Control_c, 0, 64, 65
1, 55753, Control_c, 0, 64, 64
1, 55798, Control_c, 0, 64, 65
1, 55812, Control_c, 0, 64, 65
1, 55827, Control_c, 0, 64, 66
1, 55857, Control_c, 0, 64, 66
1, 55871, Control_c, 0, 64, 67
1, 55886, Control_c, 0, 64, 68
1, 55901, Control_c, 0, 64, 70
1, 55916, Control_c, 0, 64, 72
1, 55931, Control_c, 0, 64, 73
1, 55945, Control_c, 0, 64, 74
1, 55960, Control_c, 0, 64, 75
1, 55975, Control_c, 0, 64, 78
1, 55990, Control_c, 0, 64, 80
1, 56005, Control_c, 0, 64, 81
1, 56034, Control_c, 0, 64, 81
1, 56049, Control_c, 0, 64, 83
1, 56063, Control_c, 0, 64, 87
1, 56078, Control_c, 0, 64, 91
1, 56101, Control_c, 0, 64, 93
1, 56116, Control_c, 0, 64, 95
1, 56131, Control_c, 0, 64, 97
1, 56145, Control_c, 0, 64, 98
1, 56160, Control_c, 0, 64, 101
1, 56175, Control_c, 0, 64, 104
1, 56190, Control_c, 0, 64, 108
1, 56205, Control_c, 0, 64, 112
1, 56219, Control_c, 0, 64, 116
1, 56234, Control_c, 0, 64, 117
1, 56248, Control_c, 0, 64, 121
1, 56263, Control_c, 0, 64, 127
1, 56803, Note_on_c, 0, 77, 38
1, 56815, Note_on_c, 0, 62, 25
1, 56828, Note_on_c, 0, 70, 28
1, 56844, Note_on_c, 0, 65, 30
1, 56879, Control_c, 0, 64, 120
1, 56893, Control_c, 0, 64, 112
1, 56908, Control_c, 0, 64, 105
1, 56923, Control_c, 0, 64, 102
1, 56923, Control_c, 0, 67, 65
1, 56953, Control_c, 0, 64, 102
1, 56967, Control_c, 0, 64, 104
1, 56982, Control_c, 0, 64, 108
1, 56998, Control_c, 0, 64, 111
1, 57013, Control_c, 0, 64, 116
1, 57028, Control_c, 0, 64, 118
1, 57028, Control_c, 0, 67, 65
1, 57081, Note_off_c, 0, 62, 45
1, 57083, Note_off_c, 0, 77, 56
1, 57090, Note_off_c, 0, 70, 42
1, 57101, Control_c, 0, 64, 118
1, 57178, Note_off_c, 0, 65, 35
1, 57236, Control_c, 0, 64, 117
1, 57265, Control_c, 0, 64, 117
1, 57280, Control_c, 0, 64, 114
1, 57295, Control_c, 0, 64, 112
1, 57310, Control_c, 0, 64, 111
1, 57324, Control_c, 0, 64, 109
1, 57339, Control_c, 0, 64, 107
1, 57345, Note_on_c, 0, 79, 46
1, 57354, Control_c, 0, 64, 104
1, 57355, Note_on_c, 0, 70, 32
1, 57369, Control_c, 0, 64, 100
1, 57379, Note_on_c, 0, 61, 37
1, 57379, Note_on_c, 0, 63, 33
1, 57384, Control_c, 0, 64, 95
1, 57399, Control_c, 0, 64, 91
1, 57414, Control_c, 0, 64, 86
1, 57429, Control_c, 0, 64, 81
1, 57444, Control_c, 0, 64, 75
1, 57458, Control_c, 0, 64, 68
1, 57473, Control_c, 0, 64, 67
1, 57503, Control_c, 0, 64, 68
1, 57517, Control_c, 0, 64, 70
1, 57532, Control_c, 0, 64, 74
1, 57547, Control_c, 0, 64, 81
1, 57562, Control_c, 0, 64, 87
1, 57562, Control_c, 0, 67, 65
1, 57577, Control_c, 0, 64, 92
1, 57599, Control_c, 0, 64, 95
1, 57613, Control_c, 0, 64, 98
1, 57619, Note_off_c, 0, 79, 57
1, 57628, Control_c, 0, 64, 103
1, 57628, Control_c, 0, 67, 65
1, 57643, Control_c, 0, 64, 110
1, 57644, Note_off_c, 0, 63, 42
1, 57650, Note_off_c, 0, 70, 44
1, 57652, Note_off_c, 0, 61, 41
1, 57658, Control_c, 0, 64, 117
1, 57673, Control_c, 0, 64, 119
1, 57688, Control_c, 0, 64, 120
1, 57703, Control_c, 0, 64, 121
1, 57703, Control_c, 0, 67, 64
1, 57717, Control_c, 0, 64, 122
1, 57791, Control_c, 0, 67, 64
1, 57806, Control_c, 0, 64, 121
1, 57835, Control_c, 0, 64, 119
1, 57850, Control_c, 0, 64, 117
1, 57865, Control_c, 0, 64, 116
1, 57880, Control_c, 0, 64, 115
1, 57895, Control_c, 0, 64, 114
1, 57911, Control_c, 0, 64, 112
1, 57926, Control_c, 0, 64, 108
1, 57940, Control_c, 0, 64, 106
1, 57940, Control_c, 0, 67, 64
1, 57955, Control_c, 0, 64, 103
1, 57960, Note_on_c, 0, 80, 44
1, 57970, Control_c, 0, 64, 99
1, 57978, Note_on_c, 0, 60, 33
1, 57980, Note_on_c, 0, 68, 34
1, 57985, Control_c, 0, 64, 96
1, 58000, Control_c, 0, 64, 93
1, 58001, Note_on_c, 0, 63, 21
1, 58012, Note_off_c, 0, 80, 0
1, 58012, Note_on_c, 0, 80, 8
1, 58015, Control_c, 0, 64, 90
1, 58029, Control_c, 0, 64, 86
1, 58044, Control_c, 0, 64, 82
1, 58044, Control_c, 0, 67, 65
1, 58059, Control_c, 0, 64, 79
1, 58073, Control_c, 0, 64, 76
1, 58076, Note_off_c, 0, 63, 0
1, 58088, Control_c, 0, 64, 73
1, 58103, Control_c, 0, 64, 69
1, 58114, Poly_aftertouch_c, 0, 63, 127
1, 58118, Control_c, 0, 64, 66
1, 58118, Control_c, 0, 67, 65
1, 58133, Control_c, 0, 64, 65
1, 58147, Control_c, 0, 64, 64
1, 58162, Control_c, 0, 64, 63
1, 58177, Control_c, 0, 64, 63
1, 58192, Control_c, 0, 64, 62
1, 58207, Control_c, 0, 64, 62
1, 58222, Control_c, 0, 64, 61
1, 58236, Control_c, 0, 64, 61
1, 58266, Control_c, 0, 64, 60
1, 58326, Control_c, 0, 64, 61
1, 58407, Control_c, 0, 64, 61
1, 58421, Control_c, 0, 64, 62
1, 58496, Control_c, 0, 64, 62
1, 58540, Control_c, 0, 67, 65
1, 58557, Note_off_c, 0, 68, 39
1, 58570, Control_c, 0, 64, 63
1, 58590, Note_off_c, 0, 80, 45
1, 58593, Poly_aftertouch_c, 0, 63, 0
1, 58600, Note_off_c, 0, 60, 45
1, 58629, Control_c, 0, 64, 63
1, 58644, Control_c, 0, 64, 64
1, 58703, Control_c, 0, 64, 64
1, 58719, Control_c, 0, 64, 65
1, 58719, Control_c, 0, 67, 64
1, 58763, Control_c, 0, 64, 65
1, 58778, Control_c, 0, 64, 66
1, 58793, Control_c, 0, 64, 68
1, 58808, Control_c, 0, 64, 70
1, 58823, Control_c, 0, 64, 73
1, 58837, Control_c, 0, 64, 74
1, 58852, Control_c, 0, 64, 76
1, 58867, Control_c, 0, 64, 77
1, 58882, Control_c, 0, 64, 79
1, 58896, Control_c, 0, 64, 82
1, 58911, Control_c, 0, 64, 85
1, 58926, Control_c, 0, 64, 88
1, 58941, Control_c, 0, 64, 90
1, 58956, Control_c, 0, 64, 92
1, 58970, Control_c, 0, 64, 95
1, 58985, Control_c, 0, 64, 98
1, 59000, Control_c, 0, 64, 100
1, 59015, Control_c, 0, 64, 101
1, 59030, Control_c, 0, 64, 103
1, 59044, Control_c, 0, 64, 104
1, 59059, Control_c, 0, 64, 105
1, 59074, Control_c, 0, 64, 106
1, 59096, Control_c, 0, 64, 107
1, 59111, Control_c, 0, 64, 109
1, 59126, Control_c, 0, 64, 111
1, 59141, Control_c, 0, 64, 114
1, 59156, Control_c, 0, 64, 117
1, 59156, Control_c, 0, 67, 64
1, 59170, Control_c, 0, 64, 119
1, 59185, Control_c, 0, 64, 124
1, 59200, Control_c, 0, 64, 127
1, 59319, Control_c, 0, 67, 64
1, 59467, Control_c, 0, 67, 64
1, 59579, Note_on_c, 0, 80, 33
1, 59581, Note_on_c, 0, 63, 23
1, 59595, Note_on_c, 0, 60, 23
1, 59601, Note_on_c, 0, 68, 24
1, 59690, Control_c, 0, 67, 64
1, 59890, Control_c, 0, 67, 65
1, 59926, Note_off_c, 0, 80, 38
1, 59948, Note_off_c, 0, 68, 36
1, 59981, Note_off_c, 0, 60, 40
1, 59998, Note_off_c, 0, 63, 38
1, 60290, Control_c, 0, 67, 64
1, 60305, Control_c, 0, 64, 119
1, 60320, Control_c, 0, 64, 115
1, 60335, Control_c, 0, 64, 111
1, 60350, Control_c, 0, 64, 108
1, 60365, Control_c, 0, 64, 104
1, 60380, Control_c, 0, 64, 101
1, 60395, Control_c, 0, 64, 100
1, 60409, Control_c, 0, 64, 99
1, 60424, Control_c, 0, 64, 99
1, 60439, Control_c, 0, 64, 96
1, 60453, Control_c, 0, 64, 93
1, 60468, Control_c, 0, 64, 91
1, 60483, Control_c, 0, 64, 90
1, 60498, Control_c, 0, 64, 89
1, 60513, Control_c, 0, 64, 88
1, 60527, Control_c, 0, 64, 85
1, 60542, Control_c, 0, 64, 83
1, 60557, Control_c, 0, 64, 82
1, 60572, Control_c, 0, 64, 80
1, 60594, Control_c, 0, 64, 78
1, 60609, Control_c, 0, 64, 75
1, 60624, Control_c, 0, 64, 73
1, 60639, Control_c, 0, 64, 71
1, 60654, Control_c, 0, 64, 71
1, 60683, Control_c, 0, 64, 70
1, 60698, Control_c, 0, 64, 67
1, 60713, Control_c, 0, 64, 66
1, 60728, Control_c, 0, 64, 65
1, 60728, Control_c, 0, 67, 65
1, 60757, Control_c, 0, 64, 66
1, 60787, Control_c, 0, 64, 65
1, 60816, Control_c, 0, 64, 65
1, 60831, Control_c, 0, 67, 64
1, 60846, Control_c, 0, 64, 65
1, 60890, Control_c, 0, 67, 64
1, 60905, Control_c, 0, 64, 66
1, 60920, Control_c, 0, 64, 68
1, 60920, Control_c, 0, 67, 63
1, 60934, Control_c, 0, 64, 69
1, 60949, Control_c, 0, 64, 70
1, 60964, Control_c, 0, 64, 70
1, 60979, Control_c, 0, 64, 73
1, 60979, Control_c, 0, 67, 63
1, 60994, Control_c, 0, 64, 76
1, 60994, Control_c, 0, 67, 62
1, 61009, Control_c, 0, 64, 79
1, 61009, Control_c, 0, 67, 62
1, 61024, Control_c, 0, 64, 81
1, 61039, Control_c, 0, 64, 83
1, 61053, Control_c, 0, 64, 85
1, 61068, Control_c, 0, 64, 88
1, 61068, Control_c, 0, 67, 61
1, 61083, Control_c, 0, 64, 90
1, 61083, Control_c, 0, 67, 61
1, 61098, Control_c, 0, 64, 90
1, 61113, Control_c, 0, 64, 91
1, 61128, Control_c, 0, 64, 93
1, 61143, Control_c, 0, 64, 96
1, 61158, Control_c, 0, 64, 98
1, 61173, Control_c, 0, 64, 99
1, 61173, Control_c, 0, 67, 60
1, 61188, Control_c, 0, 64, 99
1, 61202, Control_c, 0, 64, 100
1, 61217, Control_c, 0, 64, 102
1, 61232, Control_c, 0, 64, 103
1, 61247, Control_c, 0, 64, 105
1, 61262, Control_c, 0, 64, 107
1, 61262, Control_c, 0, 67, 60
1, 61277, Control_c, 0, 64, 111
1, 61291, Control_c, 0, 64, 118
1, 61306, Control_c, 0, 64, 127
1, 61472, Note_on_c, 0, 80, 44
1, 61486, Note_on_c, 0, 63, 32
1, 61490, Note_on_c, 0, 60, 30
1, 61492, Note_on_c, 0, 68, 30
1, 61683, Control_c, 0, 67, 59
1, 61760, Note_off_c, 0, 68, 35
1, 61766, Note_off_c, 0, 80, 30
1, 61891, Control_c, 0, 67, 59
1, 61915, Note_off_c, 0, 63, 43
1, 61936, Control_c, 0, 67, 58
1, 61951, Control_c, 0, 67, 57
1, 61966, Control_c, 0, 67, 56
1, 61980, Control_c, 0, 67, 52
1, 61995, Control_c, 0, 67, 46
1, 62010, Control_c, 0, 67, 42
1, 62017, Note_off_c, 0, 60, 50
1, 62025, Control_c, 0, 67, 40
1, 62040, Control_c, 0, 67, 36
1, 62055, Control_c, 0, 67, 29
1, 62070, Control_c, 0, 67, 21
1, 62092, Control_c, 0, 67, 12
1, 62107, Control_c, 0, 67, 0
1, 62195, Control_c, 0, 64, 101
1, 62210, Control_c, 0, 64, 86
1, 62225, Control_c, 0, 64, 76
1, 62240, Control_c, 0, 64, 67
1, 62255, Control_c, 0, 64, 61
1, 62270, Control_c, 0, 64, 44
1, 62285, Control_c, 0, 64, 0
1, 62334, Note_on_c, 0, 80, 94
1, 62336, Note_on_c, 0, 68, 92
1, 62339, Note_on_c, 0, 63, 85
1, 62344, Control_c, 0, 64, 39
1, 62347, Note_on_c, 0, 60, 86
1, 62359, Control_c, 0, 64, 64
1, 62374, Control_c, 0, 64, 71
1, 62388, Control_c, 0, 64, 80
1, 62403, Control_c, 0, 64, 95
1, 62418, Control_c, 0, 64, 110
1, 62432, Control_c, 0, 64, 127
1, 62519, Note_off_c, 0, 80, 53
1, 62575, Note_off_c, 0, 68, 58
1, 62603, Note_off_c, 0, 60, 61
1, 62651, Note_off_c, 0, 63, 35
1, 62870, Note_on_c, 0, 62, 66
1, 62871, Note_on_c, 0, 67, 85
1, 62872, Note_on_c, 0, 74, 88
1, 62874, Note_on_c, 0, 59, 73
1, 62900, Control_c, 0, 64, 113
1, 62908, Note_off_c, 0, 62, 58
1, 62909, Note_off_c, 0, 67, 60
1, 62915, Control_c, 0, 64, 94
1, 62917, Note_off_c, 0, 74, 61
1, 62930, Control_c, 0, 64, 77
1, 62943, Note_off_c, 0, 59, 50
1, 62944, Control_c, 0, 64, 57
1, 62959, Control_c, 0, 64, 0
1, 62961, Note_on_c, 0, 58, 71
1, 62961, Note_on_c, 0, 67, 79
1, 62962, Note_on_c, 0, 61, 75
1, 62966, Note_on_c, 0, 79, 93
1, 62994, Note_off_c, 0, 58, 62
1, 62997, Note_off_c, 0, 67, 63
1, 63005, Note_off_c, 0, 79, 63
1, 63006, Note_off_c, 0, 61, 61
1, 63017, Control_c, 0, 64, 55
1, 63032, Control_c, 0, 64, 68
1, 63045, Note_on_c, 0, 67, 82
1, 63045, Note_on_c, 0, 79, 84
1, 63047, Control_c, 0, 64, 80
1, 63051, Note_on_c, 0, 61, 73
1, 63051, Note_on_c, 0, 58, 82
1, 63061, Control_c, 0, 64, 101
1, 63074, Note_off_c, 0, 67, 67
1, 63076, Control_c, 0, 64, 127
1, 63082, Note_off_c, 0, 79, 62
1, 63092, Note_off_c, 0, 61, 62
1, 63095, Note_off_c, 0, 58, 65
1, 63231, Note_on_c, 0, 57, 82
1, 63233, Note_on_c, 0, 60, 78
1, 63238, Note_on_c, 0, 72, 86
1, 63241, Note_on_c, 0, 65, 85
1, 63282, Note_off_c, 0, 60, 59
1, 63283, Control_c, 0, 64, 103
1, 63285, Note_off_c, 0, 72, 61
1, 63289, Note_off_c, 0, 65, 63
1, 63298, Note_off_c, 0, 57, 57
1, 63298, Control_c, 0, 64, 83
1, 63313, Control_c, 0, 64, 68
1, 63328, Control_c, 0, 64, 43
1, 63328, Note_on_c, 0, 65, 67
1, 63331, Note_on_c, 0, 56, 76
1, 63333, Note_on_c, 0, 77, 93
1, 63340, Note_on_c, 0, 59, 70
1, 63343, Control_c, 0, 64, 14
1, 63357, Note_off_c, 0, 65, 63
1, 63358, Control_c, 0, 64, 47
1, 63367, Note_off_c, 0, 59, 64
1, 63370, Note_off_c, 0, 56, 61
1, 63373, Control_c, 0, 64, 62
1, 63375, Note_off_c, 0, 77, 63
1, 63387, Control_c, 0, 64, 66
1, 63402, Control_c, 0, 64, 72
1, 63410, Note_on_c, 0, 77, 85
1, 63411, Note_on_c, 0, 65, 88
1, 63417, Control_c, 0, 64, 81
1, 63423, Note_on_c, 0, 56, 72
1, 63427, Note_on_c, 0, 59, 84
1, 63432, Control_c, 0, 64, 94
1, 63446, Control_c, 0, 64, 105
1, 63450, Note_off_c, 0, 65, 66
1, 63450, Note_off_c, 0, 77, 65
1, 63451, Note_off_c, 0, 59, 63
1, 63461, Control_c, 0, 64, 107
1, 63468, Note_off_c, 0, 56, 66
1, 63476, Control_c, 0, 64, 110
1, 63491, Control_c, 0, 64, 113
1, 63507, Control_c, 0, 64, 120
1, 63522, Control_c, 0, 64, 127
1, 63592, Note_on_c, 0, 58, 72
1, 63596, Note_on_c, 0, 70, 92
1, 63608, Note_on_c, 0, 55, 73
1, 63611, Note_on_c, 0, 63, 67
1, 63662, Note_on_c, 0, 57, 74
1, 63684, Note_on_c, 0, 75, 91
1, 63687, Note_off_c, 0, 58, 61
1, 63688, Note_on_c, 0, 54, 69
1, 63689, Note_off_c, 0, 55, 63
1, 63704, Note_off_c, 0, 57, 60
1, 63716, Note_off_c, 0, 70, 65
1, 63721, Note_off_c, 0, 54, 67
1, 63736, Note_off_c, 0, 75, 64
1, 63743, Note_off_c, 0, 63, 26
1, 63787, Note_on_c, 0, 75, 83
1, 63796, Control_c, 0, 64, 119
1, 63799, Note_on_c, 0, 68, 76
1, 63799, Note_on_c, 0, 56, 70
1, 63799, Note_on_c, 0, 70, 79
1, 63811, Control_c, 0, 64, 95
1, 63814, Note_on_c, 0, 53, 75
1, 63814, Note_on_c, 0, 63, 42
1, 63826, Control_c, 0, 64, 78
1, 63841, Control_c, 0, 64, 64
1, 63855, Control_c, 0, 64, 0
1, 63974, Control_c, 0, 64, 46
1, 63989, Control_c, 0, 64, 63
1, 64003, Control_c, 0, 64, 70
1, 64018, Control_c, 0, 64, 84
1, 64018, Control_c, 0, 67, 8
1, 64033, Control_c, 0, 64, 106
1, 64033, Control_c, 0, 67, 9
1, 64048, Control_c, 0, 64, 127
1, 64048, Control_c, 0, 67, 12
1, 64063, Control_c, 0, 67, 13
1, 64070, Note_off_c, 0, 56, 61
1, 64077, Control_c, 0, 67, 13
1, 64089, Note_off_c, 0, 75, 56
1, 64104, Note_off_c, 0, 53, 63
1, 64112, Note_off_c, 0, 63, 56
1, 64122, Control_c, 0, 67, 13
1, 64151, Control_c, 0, 67, 12
1, 64166, Control_c, 0, 67, 11
1, 64181, Control_c, 0, 67, 10
1, 64185, Note_off_c, 0, 68, 58
1, 64195, Control_c, 0, 67, 9
1, 64210, Control_c, 0, 67, 9
1, 64219, Note_on_c, 0, 74, 80
1, 64225, Control_c, 0, 67, 8
1, 64236, Note_on_c, 0, 62, 56
1, 64242, Note_off_c, 0, 70, 60
1, 64267, Note_off_c, 0, 62, 63
1, 64270, Control_c, 0, 67, 0
1, 64284, Note_off_c, 0, 74, 63
1, 64397, Control_c, 0, 64, 97
1, 64406, Note_on_c, 0, 75, 67
1, 64410, Note_on_c, 0, 70, 59
1, 64412, Control_c, 0, 64, 82
1, 64421, Note_on_c, 0, 55, 55
1, 64424, Note_on_c, 0, 51, 55
1, 64425, Note_on_c, 0, 63, 51
1, 64427, Control_c, 0, 64, 70
1, 64441, Control_c, 0, 64, 62
1, 64456, Control_c, 0, 64, 55
1, 64471, Control_c, 0, 64, 57
1, 64476, Note_off_c, 0, 63, 56
1, 64486, Control_c, 0, 64, 64
1, 64501, Control_c, 0, 64, 68
1, 64510, Note_off_c, 0, 75, 60
1, 64511, Note_off_c, 0, 70, 58
1, 64515, Control_c, 0, 64, 73
1, 64530, Control_c, 0, 64, 79
1, 64545, Control_c, 0, 64, 85
1, 64558, Note_off_c, 0, 55, 0
1, 64560, Control_c, 0, 64, 90
1, 64572, Note_off_c, 0, 51, 49
1, 64575, Control_c, 0, 64, 93
1, 64594, Note_on_c, 0, 53, 63
1, 64595, Poly_aftertouch_c, 0, 55, 127
1, 64601, Note_on_c, 0, 50, 62
1, 64604, Control_c, 0, 64, 94
1, 64605, Note_on_c, 0, 77, 75
1, 64612, Note_on_c, 0, 70, 61
1, 64619, Control_c, 0, 64, 95
1, 64631, Note_off_c, 0, 53, 65
1, 64633, Control_c, 0, 64, 95
1, 64639, Note_off_c, 0, 50, 66
1, 64651, Poly_aftertouch_c, 0, 55, 0
1, 64669, Poly_aftertouch_c, 0, 65, 127
1, 64677, Note_off_c, 0, 77, 60
1, 64678, Control_c, 0, 64, 96
1, 64680, Note_off_c, 0, 70, 60
1, 64693, Control_c, 0, 64, 97
1, 64702, Poly_aftertouch_c, 0, 65, 0
1, 64708, Control_c, 0, 64, 97
1, 64723, Control_c, 0, 64, 97
1, 64738, Control_c, 0, 64, 91
1, 64753, Control_c, 0, 64, 82
1, 64768, Control_c, 0, 64, 72
1, 64782, Control_c, 0, 64, 64
1, 64788, Note_on_c, 0, 79, 70
1, 64788, Note_on_c, 0, 48, 61
1, 64794, Note_on_c, 0, 67, 57
1, 64794, Note_on_c, 0, 70, 66
1, 64796, Note_on_c, 0, 51, 50
1, 64797, Control_c, 0, 64, 61
1, 64812, Control_c, 0, 64, 63
1, 64826, Control_c, 0, 64, 67
1, 64841, Control_c, 0, 64, 73
1, 64856, Control_c, 0, 64, 81
1, 64857, Note_off_c, 0, 67, 60
1, 64863, Note_off_c, 0, 79, 62
1, 64871, Control_c, 0, 64, 93
1, 64873, Note_off_c, 0, 51, 59
1, 64886, Control_c, 0, 64, 109
1, 64887, Note_off_c, 0, 70, 59
1, 64895, Note_off_c, 0, 48, 60
1, 64900, Control_c, 0, 64, 127
1, 64945, Control_c, 0, 64, 103
1, 64960, Control_c, 0, 64, 82
1, 64964, Note_on_c, 0, 80, 78
1, 64966, Note_on_c, 0, 70, 57
1, 64974, Control_c, 0, 64, 68
1, 64975, Note_on_c, 0, 46, 59
1, 64979, Note_on_c, 0, 50, 49
1, 64984, Note_on_c, 0, 53, 45
1, 64985, Note_on_c, 0, 68, 49
1, 64989, Control_c, 0, 64, 53
1, 65004, Control_c, 0, 64, 46
1, 65019, Control_c, 0, 64, 55
1, 65028, Note_off_c, 0, 68, 61
1, 65030, Note_off_c, 0, 70, 63
1, 65033, Control_c, 0, 64, 63
1, 65040, Note_off_c, 0, 50, 60
1, 65042, Note_off_c, 0, 53, 58
1, 65047, Note_off_c, 0, 46, 55
1, 65048, Control_c, 0, 64, 68
1, 65062, Note_off_c, 0, 80, 64
1, 65063, Control_c, 0, 64, 76
1, 65086, Control_c, 0, 64, 87
1, 65101, Control_c, 0, 64, 102
1, 65116, Control_c, 0, 64, 126
1, 65131, Control_c, 0, 64, 127
1, 65161, Note_on_c, 0, 82, 89
1, 65172, Note_on_c, 0, 70, 72
1, 65177, Note_on_c, 0, 50, 55
1, 65182, Note_on_c, 0, 46, 63
1, 65188, Note_on_c, 0, 53, 33
1, 65212, Note_off_c, 0, 50, 66
1, 65220, Note_off_c, 0, 82, 63
1, 65223, Note_off_c, 0, 70, 58
1, 65227, Note_off_c, 0, 46, 61
1, 65227, Note_off_c, 0, 53, 49
1, 65338, Control_c, 0, 64, 99
1, 65353, Control_c, 0, 64, 77
1, 65361, Note_on_c, 0, 79, 75
1, 65363, Note_on_c, 0, 39, 60
1, 65363, Note_on_c, 0, 70, 62
1, 65368, Control_c, 0, 64, 64
1, 65383, Control_c, 0, 64, 32
1, 65386, Note_on_c, 0, 67, 39
1, 65397, Control_c, 0, 64, 19
1, 65412, Control_c, 0, 64, 53
1, 65427, Control_c, 0, 64, 64
1, 65438, Note_off_c, 0, 67, 50
1, 65442, Control_c, 0, 64, 69
1, 65447, Note_off_c, 0, 39, 57
1, 65456, Control_c, 0, 64, 76
1, 65457, Note_on_c, 0, 46, 68
1, 65467, Note_off_c, 0, 79, 58
1, 65471, Control_c, 0, 64, 86
1, 65481, Note_off_c, 0, 70, 60
1, 65486, Control_c, 0, 64, 96
1, 65501, Control_c, 0, 64, 106
1, 65516, Control_c, 0, 64, 118
1, 65523, Note_off_c, 0, 46, 62
1, 65531, Control_c, 0, 64, 127
1, 65548, Note_on_c, 0, 55, 63
1, 65595, Note_off_c, 0, 55, 63
1, 65628, Note_on_c, 0, 46, 73
1, 65688, Note_off_c, 0, 46, 60
1, 65733, Note_on_c, 0, 82, 92
1, 65733, Note_on_c, 0, 39, 66
1, 65739, Note_on_c, 0, 70, 79
1, 65793, Note_off_c, 0, 70, 62
1, 65825, Note_off_c, 0, 39, 57
1, 65829, Note_off_c, 0, 82, 61
1, 65835, Note_on_c, 0, 46, 67
1, 65907, Note_off_c, 0, 46, 62
1, 65932, Note_on_c, 0, 55, 67
1, 66002, Note_off_c, 0, 55, 59
1, 66020, Note_on_c, 0, 46, 69
1, 66121, Note_off_c, 0, 46, 58
1, 66138, Note_on_c, 0, 41, 67
1, 66139, Note_on_c, 0, 94, 90
1, 66145, Note_on_c, 0, 82, 90
1, 66146, Control_c, 0, 64, 113
1, 66161, Control_c, 0, 64, 91
1, 66176, Control_c, 0, 64, 76
1, 66191, Control_c, 0, 64, 63
1, 66206, Control_c, 0, 64, 0
1, 66237, Note_off_c, 0, 41, 62
1, 66253, Note_on_c, 0, 46, 58
1, 66265, Control_c, 0, 64, 50
1, 66279, Control_c, 0, 64, 64
1, 66294, Control_c, 0, 64, 74
1, 66309, Control_c, 0, 64, 86
1, 66320, Note_off_c, 0, 46, 62
1, 66324, Control_c, 0, 64, 98
1, 66333, Note_on_c, 0, 56, 58
1, 66339, Control_c, 0, 64, 107
1, 66353, Note_off_c, 0, 94, 64
1, 66353, Control_c, 0, 64, 116
1, 66368, Control_c, 0, 64, 127
1, 66383, Note_off_c, 0, 56, 53
1, 66398, Note_off_c, 0, 82, 61
1, 66422, Note_on_c, 0, 46, 63
1, 66443, Control_c, 0, 67, 8
1, 66458, Control_c, 0, 67, 9
1, 66472, Control_c, 0, 67, 10
1, 66487, Control_c, 0, 67, 12
1, 66497, Note_off_c, 0, 46, 60
1, 66502, Control_c, 0, 67, 13
1, 66511, Note_on_c, 0, 41, 69
1, 66517, Control_c, 0, 67, 15
1, 66532, Control_c, 0, 67, 16
1, 66546, Control_c, 0, 67, 17
1, 66598, Control_c, 0, 67, 16
1, 66606, Note_off_c, 0, 41, 60
1, 66631, Note_on_c, 0, 46, 62
1, 66699, Note_off_c, 0, 46, 60
1, 66702, Control_c, 0, 67, 16
1, 66711, Note_on_c, 0, 82, 97
1, 66716, Note_on_c, 0, 70, 84
1, 66728, Note_on_c, 0, 56, 60
1, 66732, Control_c, 0, 67, 15
1, 66792, Control_c, 0, 67, 15
1, 66818, Note_off_c, 0, 56, 54
1, 66821, Control_c, 0, 67, 14
1, 66824, Note_on_c, 0, 46, 62
1, 66836, Control_c, 0, 67, 14
1, 66866, Control_c, 0, 64, 113
1, 66866, Control_c, 0, 67, 14
1, 66881, Control_c, 0, 64, 93
1, 66881, Control_c, 0, 67, 15
1, 66896, Control_c, 0, 64, 78
1, 66908, Note_off_c, 0, 46, 61
1, 66910, Control_c, 0, 64, 66
1, 66915, Note_on_c, 0, 43, 65
1, 66925, Control_c, 0, 64, 38
1, 66940, Control_c, 0, 64, 0
1, 66940, Control_c, 0, 67, 15
1, 66955, Control_c, 0, 64, 48
1, 66955, Control_c, 0, 67, 16
1, 66969, Control_c, 0, 64, 62
1, 66969, Control_c, 0, 67, 16
1, 66984, Control_c, 0, 64, 66
1, 66984, Control_c, 0, 67, 17
1, 66999, Control_c, 0, 64, 71
1, 66999, Control_c, 0, 67, 17
1, 67002, Note_off_c, 0, 43, 61
1, 67014, Control_c, 0, 64, 77
1, 67014, Control_c, 0, 67, 18
1, 67027, Note_on_c, 0, 46, 59
1, 67028, Control_c, 0, 64, 85
1, 67028, Control_c, 0, 67, 19
1, 67043, Control_c, 0, 64, 95
1, 67043, Control_c, 0, 67, 23
1, 67058, Control_c, 0, 64, 104
1, 67058, Control_c, 0, 67, 30
1, 67073, Control_c, 0, 64, 106
1, 67073, Control_c, 0, 67, 37
1, 67078, Note_off_c, 0, 46, 61
1, 67088, Control_c, 0, 64, 107
1, 67088, Control_c, 0, 67, 43
1, 67102, Control_c, 0, 64, 109
1, 67102, Control_c, 0, 67, 48
1, 67114, Note_on_c, 0, 58, 56
1, 67117, Control_c, 0, 64, 115
1, 67117, Control_c, 0, 67, 52
1, 67132, Control_c, 0, 64, 127
1, 67132, Control_c, 0, 67, 55
1, 67147, Control_c, 0, 67, 60
1, 67155, Note_off_c, 0, 58, 55
1, 67162, Control_c, 0, 67, 65
1, 67176, Control_c, 0, 67, 70
1, 67191, Control_c, 0, 67, 73
1, 67203, Note_on_c, 0, 46, 61
1, 67206, Control_c, 0, 67, 74
1, 67221, Control_c, 0, 67, 77
1, 67236, Control_c, 0, 67, 79
1, 67239, Note_off_c, 0, 82, 61
1, 67251, Control_c, 0, 67, 81
1, 67260, Note_off_c, 0, 46, 59
1, 67266, Control_c, 0, 67, 82
1, 67286, Note_on_c, 0, 43, 62
1, 67307, Note_off_c, 0, 70, 57
1, 67310, Control_c, 0, 67, 83
1, 67332, Control_c, 0, 67, 83
1, 67347, Control_c, 0, 67, 84
1, 67353, Note_off_c, 0, 43, 57
1, 67391, Control_c, 0, 67, 84
1, 67394, Note_on_c, 0, 46, 50
1, 67406, Control_c, 0, 67, 85
1, 67468, Note_off_c, 0, 46, 59
1, 67506, Note_on_c, 0, 58, 47
1, 67508, Note_on_c, 0, 79, 67
1, 67540, Control_c, 0, 67, 84
1, 67546, Note_on_c, 0, 67, 46
1, 67570, Control_c, 0, 67, 84
1, 67598, Note_off_c, 0, 79, 59
1, 67599, Control_c, 0, 67, 83
1, 67602, Note_off_c, 0, 67, 55
1, 67617, Note_on_c, 0, 46, 54
1, 67629, Control_c, 0, 64, 116
1, 67644, Control_c, 0, 64, 106
1, 67651, Note_off_c, 0, 58, 35
1, 67659, Control_c, 0, 64, 97
1, 67674, Control_c, 0, 64, 88
1, 67689, Control_c, 0, 64, 79
1, 67704, Control_c, 0, 64, 70
1, 67705, Note_off_c, 0, 46, 61
1, 67719, Control_c, 0, 64, 63
1, 67726, Note_on_c, 0, 77, 67
1, 67730, Note_on_c, 0, 44, 66
1, 67733, Control_c, 0, 64, 62
1, 67748, Control_c, 0, 64, 63
1, 67763, Control_c, 0, 64, 65
1, 67763, Control_c, 0, 67, 83
1, 67766, Note_on_c, 0, 65, 32
1, 67778, Control_c, 0, 64, 68
1, 67792, Note_off_c, 0, 77, 61
1, 67793, Control_c, 0, 64, 72
1, 67793, Control_c, 0, 67, 82
1, 67805, Note_off_c, 0, 65, 63
1, 67807, Control_c, 0, 64, 76
1, 67807, Control_c, 0, 67, 82
1, 67822, Control_c, 0, 64, 83
1, 67827, Note_off_c, 0, 44, 55
1, 67837, Control_c, 0, 64, 88
1, 67837, Control_c, 0, 67, 81
1, 67842, Note_on_c, 0, 46, 50
1, 67851, Control_c, 0, 64, 93
1, 67866, Control_c, 0, 64, 100
1, 67880, Note_off_c, 0, 46, 61
1, 67881, Control_c, 0, 64, 103
1, 67881, Control_c, 0, 67, 81
1, 67896, Control_c, 0, 64, 104
1, 67909, Note_on_c, 0, 56, 63
1, 67913, Note_on_c, 0, 74, 73
1, 67925, Control_c, 0, 67, 80
1, 67931, Note_on_c, 0, 62, 53
1, 67955, Control_c, 0, 64, 103
1, 67960, Note_off_c, 0, 56, 62
1, 67983, Note_off_c, 0, 74, 63
1, 67984, Note_off_c, 0, 62, 58
1, 67984, Control_c, 0, 64, 103
1, 67984, Control_c, 0, 67, 80
1, 67989, Note_on_c, 0, 46, 64
1, 67999, Control_c, 0, 64, 102
1, 68014, Control_c, 0, 64, 100
1, 68025, Note_off_c, 0, 46, 64
1, 68029, Control_c, 0, 64, 97
1, 68029, Control_c, 0, 67, 79
1, 68044, Control_c, 0, 64, 95
1, 68044, Control_c, 0, 67, 79
1, 68059, Control_c, 0, 64, 94
1, 68081, Control_c, 0, 64, 93
1, 68096, Control_c, 0, 64, 93
1, 68106, Note_on_c, 0, 71, 78
1, 68111, Control_c, 0, 64, 92
1, 68111, Control_c, 0, 67, 78
1, 68117, Note_on_c, 0, 59, 63
1, 68123, Note_on_c, 0, 34, 62
1, 68125, Control_c, 0, 64, 91
1, 68140, Control_c, 0, 64, 90
1, 68140, Control_c, 0, 67, 78
1, 68153, Note_off_c, 0, 34, 54
1, 68169, Control_c, 0, 64, 90
1, 68169, Control_c, 0, 67, 77
1, 68172, Note_off_c, 0, 59, 60
1, 68184, Control_c, 0, 64, 89
1, 68199, Control_c, 0, 64, 88
1, 68199, Control_c, 0, 67, 77
1, 68208, Note_off_c, 0, 71, 62
1, 68214, Control_c, 0, 64, 87
1, 68229, Control_c, 0, 64, 85
1, 68229, Control_c, 0, 67, 76
1, 68232, Note_on_c, 0, 46, 58
1, 68244, Control_c, 0, 64, 83
1, 68244, Control_c, 0, 67, 76
1, 68247, Poly_aftertouch_c, 0, 37, 0
1, 68258, Control_c, 0, 64, 79
1, 68273, Control_c, 0, 64, 76
1, 68276, Note_off_c, 0, 46, 63
1, 68288, Control_c, 0, 64, 73
1, 68292, Note_on_c, 0, 70, 81
1, 68299, Note_on_c, 0, 53, 69
1, 68300, Note_on_c, 0, 58, 75
1, 68304, Control_c, 0, 64, 70
1, 68319, Control_c, 0, 64, 70
1, 68342, Note_off_c, 0, 53, 60
1, 68348, Control_c, 0, 67, 75
1, 68376, Note_on_c, 0, 46, 71
1, 68393, Control_c, 0, 64, 68
1, 68393, Control_c, 0, 67, 75
1, 68400, Note_off_c, 0, 58, 46
1, 68408, Control_c, 0, 64, 63
1, 68409, Note_off_c, 0, 70, 60
1, 68422, Control_c, 0, 64, 0
1, 68422, Control_c, 0, 67, 74
1, 68437, Control_c, 0, 67, 74
1, 68467, Note_off_c, 0, 46, 52
1, 68467, Control_c, 0, 67, 73
1, 68477, Note_on_c, 0, 70, 86
1, 68478, Note_on_c, 0, 39, 83
1, 68482, Control_c, 0, 67, 73
1, 68482, Note_on_c, 0, 58, 84
1, 68497, Control_c, 0, 64, 57
1, 68497, Control_c, 0, 67, 71
1, 68512, Note_off_c, 0, 58, 63
1, 68512, Control_c, 0, 64, 68
1, 68512, Control_c, 0, 67, 68
1, 68527, Control_c, 0, 64, 79
1, 68527, Control_c, 0, 67, 64
1, 68538, Note_off_c, 0, 70, 63
1, 68541, Control_c, 0, 64, 94
1, 68541, Control_c, 0, 67, 58
1, 68556, Control_c, 0, 64, 115
1, 68556, Control_c, 0, 67, 47
1, 68571, Control_c, 0, 64, 127
1, 68571, Control_c, 0, 67, 35
1, 68574, Note_on_c, 0, 46, 70
1, 68576, Note_off_c, 0, 39, 56
1, 68586, Control_c, 0, 67, 27
1, 68600, Control_c, 0, 67, 23
1, 68615, Control_c, 0, 67, 18
1, 68630, Control_c, 0, 67, 13
1, 68645, Control_c, 0, 67, 0
1, 68649, Note_off_c, 0, 46, 62
1, 68667, Note_on_c, 0, 55, 66
1, 68708, Note_off_c, 0, 55, 63
1, 68756, Note_on_c, 0, 46, 73
1, 68828, Note_off_c, 0, 46, 61
1, 68862, Note_on_c, 0, 39, 74
1, 68866, Note_on_c, 0, 82, 97
1, 68868, Note_on_c, 0, 70, 92
1, 68914, Note_off_c, 0, 70, 64
1, 68939, Note_off_c, 0, 82, 63
1, 68959, Note_on_c, 0, 46, 69
1, 68959, Note_off_c, 0, 39, 56
1, 69029, Note_off_c, 0, 46, 62
1, 69050, Note_on_c, 0, 55, 72
1, 69121, Note_off_c, 0, 55, 57
1, 69144, Note_on_c, 0, 46, 69
1, 69254, Note_off_c, 0, 46, 51
1, 69256, Note_on_c, 0, 41, 74
1, 69260, Note_on_c, 0, 94, 80
1, 69266, Note_on_c, 0, 82, 99
1, 69290, Control_c, 0, 64, 99
1, 69305, Control_c, 0, 64, 80
1, 69319, Control_c, 0, 64, 65
1, 69334, Control_c, 0, 64, 24
1, 69349, Control_c, 0, 64, 28
1, 69360, Note_off_c, 0, 41, 61
1, 69364, Control_c, 0, 64, 56
1, 69374, Note_on_c, 0, 46, 68
1, 69379, Control_c, 0, 64, 64
1, 69394, Control_c, 0, 64, 68
1, 69409, Control_c, 0, 64, 72
1, 69423, Control_c, 0, 64, 80
1, 69430, Note_off_c, 0, 46, 62
1, 69438, Control_c, 0, 64, 95
1, 69438, Control_c, 0, 67, 9
1, 69446, Note_on_c, 0, 56, 66
1, 69453, Control_c, 0, 64, 117
1, 69453, Control_c, 0, 67, 9
1, 69468, Control_c, 0, 64, 127
1, 69468, Control_c, 0, 67, 11
1, 69476, Note_off_c, 0, 94, 65
1, 69483, Control_c, 0, 67, 12
1, 69497, Control_c, 0, 67, 14
1, 69512, Control_c, 0, 67, 16
1, 69515, Note_off_c, 0, 82, 59
1, 69527, Control_c, 0, 67, 18
1, 69528, Note_on_c, 0, 46, 65
1, 69540, Note_off_c, 0, 56, 41
1, 69542, Control_c, 0, 67, 20
1, 69557, Control_c, 0, 67, 22
1, 69579, Control_c, 0, 67, 24
1, 69609, Control_c, 0, 67, 24
1, 69619, Note_off_c, 0, 46, 61
1, 69623, Control_c, 0, 67, 25
1, 69634, Note_on_c, 0, 41, 77
1, 69653, Control_c, 0, 67, 24
1, 69668, Control_c, 0, 67, 24
1, 69683, Control_c, 0, 67, 22
1, 69697, Control_c, 0, 67, 21
1, 69712, Control_c, 0, 67, 21
1, 69718, Note_off_c, 0, 41, 59
1, 69754, Note_on_c, 0, 46, 62
1, 69758, Control_c, 0, 67, 20
1, 69817, Control_c, 0, 67, 20
1, 69817, Note_off_c, 0, 46, 61
1, 69830, Note_on_c, 0, 82, 93
1, 69836, Note_on_c, 0, 70, 88
1, 69839, Note_on_c, 0, 56, 69
1, 69846, Control_c, 0, 67, 19
1, 69919, Note_off_c, 0, 56, 52
1, 69934, Note_on_c, 0, 46, 69
1, 69966, Control_c, 0, 64, 119
1, 69981, Control_c, 0, 64, 95
1, 69995, Control_c, 0, 64, 77
1, 69995, Control_c, 0, 67, 20
1, 70009, Note_off_c, 0, 46, 61
1, 70010, Control_c, 0, 64, 45
1, 70021, Note_on_c, 0, 43, 75
1, 70025, Control_c, 0, 64, 0
1, 70025, Control_c, 0, 67, 21
1, 70039, Control_c, 0, 67, 21
1, 70054, Control_c, 0, 67, 22
1, 70069, Control_c, 0, 67, 22
1, 70084, Control_c, 0, 64, 48
1, 70084, Control_c, 0, 67, 23
1, 70095, Note_off_c, 0, 43, 62
1, 70099, Control_c, 0, 64, 64
1, 70099, Control_c, 0, 67, 23
1, 70114, Control_c, 0, 64, 70
1, 70114, Control_c, 0, 67, 24
1, 70128, Control_c, 0, 64, 77
1, 70128, Control_c, 0, 67, 25
1, 70130, Note_on_c, 0, 51, 59
1, 70143, Control_c, 0, 64, 86
1, 70143, Control_c, 0, 67, 27
1, 70158, Control_c, 0, 64, 94
1, 70158, Control_c, 0, 67, 28
1, 70173, Control_c, 0, 64, 98
1, 70173, Control_c, 0, 67, 32
1, 70188, Control_c, 0, 64, 98
1, 70188, Control_c, 0, 67, 34
1, 70202, Control_c, 0, 67, 38
1, 70210, Note_off_c, 0, 51, 64
1, 70217, Control_c, 0, 67, 41
1, 70219, Note_off_c, 0, 82, 51
1, 70232, Control_c, 0, 67, 44
1, 70234, Note_on_c, 0, 58, 59
1, 70247, Control_c, 0, 64, 99
1, 70247, Control_c, 0, 67, 48
1, 70261, Control_c, 0, 67, 50
1, 70276, Control_c, 0, 67, 54
1, 70279, Note_off_c, 0, 58, 54
1, 70291, Control_c, 0, 67, 58
1, 70306, Control_c, 0, 67, 63
1, 70323, Note_on_c, 0, 51, 67
1, 70328, Control_c, 0, 67, 66
1, 70343, Control_c, 0, 67, 69
1, 70348, Note_off_c, 0, 70, 55
1, 70358, Control_c, 0, 67, 70
1, 70372, Control_c, 0, 64, 99
1, 70372, Control_c, 0, 67, 70
1, 70387, Note_off_c, 0, 51, 61
1, 70387, Control_c, 0, 64, 100
1, 70402, Control_c, 0, 64, 100
1, 70409, Note_on_c, 0, 43, 62
1, 70417, Control_c, 0, 64, 101
1, 70432, Control_c, 0, 64, 101
1, 70446, Control_c, 0, 64, 102
1, 70458, Note_off_c, 0, 43, 59
1, 70461, Control_c, 0, 64, 103
1, 70516, Note_on_c, 0, 51, 59
1, 70565, Control_c, 0, 67, 70
1, 70579, Note_off_c, 0, 51, 60
1, 70605, Note_on_c, 0, 58, 58
1, 70607, Note_on_c, 0, 79, 74
1, 70616, Note_on_c, 0, 67, 64
1, 70624, Control_c, 0, 67, 69
1, 70653, Note_off_c, 0, 58, 53
1, 70653, Control_c, 0, 67, 69
1, 70668, Control_c, 0, 64, 102
1, 70674, Note_off_c, 0, 67, 46
1, 70675, Note_off_c, 0, 79, 59
1, 70683, Control_c, 0, 64, 101
1, 70699, Control_c, 0, 64, 101
1, 70705, Note_on_c, 0, 51, 61
1, 70729, Control_c, 0, 64, 100
1, 70743, Control_c, 0, 64, 97
1, 70758, Control_c, 0, 64, 90
1, 70773, Control_c, 0, 64, 77
1, 70787, Control_c, 0, 64, 65
1, 70788, Note_off_c, 0, 51, 53
1, 70802, Control_c, 0, 64, 0
1, 70817, Note_on_c, 0, 44, 59
1, 70831, Note_on_c, 0, 76, 65
1, 70842, Note_on_c, 0, 64, 49
1, 70861, Control_c, 0, 64, 40
1, 70876, Control_c, 0, 64, 60
1, 70888, Note_off_c, 0, 64, 57
1, 70891, Control_c, 0, 64, 66
1, 70906, Control_c, 0, 64, 72
1, 70914, Note_off_c, 0, 44, 63
1, 70919, Note_off_c, 0, 76, 59
1, 70921, Control_c, 0, 64, 80
1, 70921, Control_c, 0, 67, 68
1, 70935, Note_on_c, 0, 51, 50
1, 70936, Control_c, 0, 64, 88
1, 70950, Control_c, 0, 64, 95
1, 70965, Control_c, 0, 64, 97
1, 70965, Control_c, 0, 67, 67
1, 70988, Note_off_c, 0, 51, 62
1, 70995, Control_c, 0, 67, 67
1, 71010, Control_c, 0, 64, 97
1, 71027, Note_on_c, 0, 60, 59
1, 71032, Note_on_c, 0, 77, 67
1, 71039, Control_c, 0, 67, 66
1, 71050, Note_on_c, 0, 65, 50
1, 71070, Note_off_c, 0, 60, 57
1, 71070, Note_off_c, 0, 77, 59
1, 71076, Control_c, 0, 67, 66
1, 71087, Note_off_c, 0, 65, 58
1, 71091, Control_c, 0, 67, 65
1, 71113, Note_on_c, 0, 51, 58
1, 71136, Control_c, 0, 64, 95
1, 71150, Control_c, 0, 64, 83
1, 71165, Control_c, 0, 64, 70
1, 71180, Control_c, 0, 64, 52
1, 71190, Note_off_c, 0, 51, 58
1, 71194, Control_c, 0, 64, 21
1, 71209, Control_c, 0, 64, 38
1, 71224, Note_on_c, 0, 45, 43
1, 71224, Note_on_c, 0, 72, 67
1, 71224, Control_c, 0, 64, 58
1, 71229, Note_on_c, 0, 60, 55
1, 71239, Control_c, 0, 64, 66
1, 71254, Control_c, 0, 64, 71
1, 71260, Note_off_c, 0, 60, 65
1, 71263, Note_off_c, 0, 72, 61
1, 71269, Control_c, 0, 64, 78
1, 71272, Note_off_c, 0, 45, 60
1, 71284, Control_c, 0, 64, 87
1, 71299, Control_c, 0, 64, 91
1, 71314, Control_c, 0, 64, 91
1, 71324, Note_on_c, 0, 53, 67
1, 71358, Control_c, 0, 64, 91
1, 71379, Note_off_c, 0, 53, 61
1, 71401, Note_on_c, 0, 75, 68
1, 71402, Note_on_c, 0, 60, 55
1, 71409, Note_on_c, 0, 63, 59
1, 71417, Control_c, 0, 64, 91
1, 71447, Control_c, 0, 64, 92
1, 71448, Note_off_c, 0, 60, 56
1, 71452, Note_off_c, 0, 63, 56
1, 71462, Control_c, 0, 64, 93
1, 71490, Note_off_c, 0, 75, 53
1, 71492, Control_c, 0, 64, 90
1, 71493, Note_on_c, 0, 53, 68
1, 71507, Control_c, 0, 64, 81
1, 71522, Control_c, 0, 64, 70
1, 71537, Control_c, 0, 64, 61
1, 71552, Control_c, 0, 64, 60
1, 71552, Control_c, 0, 67, 66
1, 71560, Note_off_c, 0, 53, 51
1, 71566, Control_c, 0, 64, 64
1, 71581, Control_c, 0, 64, 69
1, 71581, Control_c, 0, 67, 66
1, 71588, Note_on_c, 0, 46, 66
1, 71594, Note_on_c, 0, 74, 73
1, 71596, Control_c, 0, 64, 74
1, 71596, Control_c, 0, 67, 67
1, 71603, Note_on_c, 0, 62, 40
1, 71610, Control_c, 0, 64, 82
1, 71610, Control_c, 0, 67, 67
1, 71619, Note_off_c, 0, 46, 62
1, 71625, Control_c, 0, 64, 87
1, 71625, Control_c, 0, 67, 68
1, 71632, Note_off_c, 0, 62, 53
1, 71640, Control_c, 0, 64, 89
1, 71655, Control_c, 0, 64, 89
1, 71670, Control_c, 0, 67, 68
1, 71677, Note_on_c, 0, 70, 71
1, 71692, Note_off_c, 0, 74, 29
1, 71699, Control_c, 0, 67, 69
1, 71714, Control_c, 0, 67, 69
1, 71744, Control_c, 0, 64, 87
1, 71744, Control_c, 0, 67, 70
1, 71758, Control_c, 0, 64, 80
1, 71758, Control_c, 0, 67, 70
1, 71770, Note_on_c, 0, 69, 69
1, 71770, Note_off_c, 0, 70, 62
1, 71773, Control_c, 0, 64, 70
1, 71773, Control_c, 0, 67, 71
1, 71780, Note_on_c, 0, 63, 66
1, 71788, Control_c, 0, 64, 52
1, 71788, Control_c, 0, 67, 72
1, 71803, Control_c, 0, 64, 0
1, 71825, Control_c, 0, 67, 73
1, 71834, Note_off_c, 0, 69, 58
1, 71840, Control_c, 0, 67, 74
1, 71844, Note_off_c, 0, 63, 62
1, 71853, Note_on_c, 0, 70, 76
1, 71855, Control_c, 0, 64, 28
1, 71855, Control_c, 0, 67, 75
1, 71870, Control_c, 0, 64, 29
1, 71870, Control_c, 0, 67, 77
1, 71874, Note_on_c, 0, 62, 64
1, 71885, Control_c, 0, 67, 78
1, 71899, Control_c, 0, 67, 80
1, 71914, Control_c, 0, 67, 81
1, 71929, Control_c, 0, 67, 83
1, 71938, Note_off_c, 0, 70, 63
1, 71940, Note_on_c, 0, 69, 67
1, 71940, Note_on_c, 0, 72, 74
1, 71944, Control_c, 0, 67, 84
1, 71955, Note_off_c, 0, 62, 53
1, 71959, Control_c, 0, 67, 85
1, 71966, Note_on_c, 0, 60, 62
1, 71973, Control_c, 0, 64, 30
1, 71973, Control_c, 0, 67, 86
1, 71988, Control_c, 0, 64, 32
1, 71988, Control_c, 0, 67, 88
1, 72000, Note_off_c, 0, 69, 57
1, 72003, Control_c, 0, 64, 34
1, 72003, Control_c, 0, 67, 89
1, 72007, Note_off_c, 0, 60, 60
1, 72013, Note_off_c, 0, 72, 57
1, 72017, Control_c, 0, 67, 91
1, 72031, Note_on_c, 0, 74, 71
1, 72032, Note_on_c, 0, 70, 59
1, 72032, Control_c, 0, 67, 92
1, 72039, Note_on_c, 0, 58, 73
1, 72047, Control_c, 0, 67, 93
1, 72059, Note_off_c, 0, 74, 67
1, 72061, Note_off_c, 0, 70, 66
1, 72062, Control_c, 0, 67, 93
1, 72077, Control_c, 0, 67, 94
1, 72092, Control_c, 0, 67, 94
1, 72098, Note_off_c, 0, 58, 64
1, 72107, Control_c, 0, 67, 95
1, 72112, Note_on_c, 0, 72, 73
1, 72122, Control_c, 0, 67, 95
1, 72131, Note_on_c, 0, 75, 65
1, 72133, Note_on_c, 0, 57, 65
1, 72136, Control_c, 0, 64, 35
1, 72136, Control_c, 0, 67, 96
1, 72151, Control_c, 0, 64, 36
1, 72151, Control_c, 0, 67, 97
1, 72166, Control_c, 0, 64, 40
1, 72166, Control_c, 0, 67, 97
1, 72173, Note_off_c, 0, 72, 59
1, 72173, Note_off_c, 0, 75, 58
1, 72181, Control_c, 0, 64, 42
1, 72188, Note_off_c, 0, 57, 56
1, 72196, Control_c, 0, 64, 42
1, 72196, Control_c, 0, 67, 98
1, 72204, Note_on_c, 0, 74, 71
1, 72213, Note_on_c, 0, 77, 62
1, 72217, Note_on_c, 0, 56, 66
1, 72256, Note_off_c, 0, 77, 53
1, 72271, Note_off_c, 0, 74, 0
1, 72280, Note_off_c, 0, 56, 64
1, 72303, Poly_aftertouch_c, 0, 74, 0
1, 72310, Note_on_c, 0, 75, 46
1, 72312, Note_on_c, 0, 79, 64
1, 72320, Note_on_c, 0, 55, 62
1, 72375, Note_off_c, 0, 55, 49
1, 72409, Note_on_c, 0, 53, 68
1, 72442, Note_off_c, 0, 75, 59
1, 72449, Note_off_c, 0, 79, 62
1, 72464, Note_off_c, 0, 53, 58
1, 72478, Control_c, 0, 64, 43
1, 72493, Control_c, 0, 64, 45
1, 72500, Note_on_c, 0, 51, 61
1, 72508, Control_c, 0, 64, 46
1, 72537, Control_c, 0, 64, 46
1, 72547, Note_off_c, 0, 51, 60
1, 72575, Control_c, 0, 64, 47
1, 72588, Note_on_c, 0, 50, 66
1, 72648, Control_c, 0, 67, 97
1, 72675, Note_off_c, 0, 50, 63
1, 72676, Note_on_c, 0, 51, 65
1, 72694, Note_on_c, 0, 80, 69
1, 72703, Note_on_c, 0, 84, 57
1, 72723, Control_c, 0, 67, 97
1, 72742, Note_off_c, 0, 80, 57
1, 72767, Note_off_c, 0, 51, 60
1, 72774, Note_on_c, 0, 79, 71
1, 72777, Note_on_c, 0, 53, 68
1, 72789, Note_on_c, 0, 82, 67
1, 72804, Note_off_c, 0, 84, 28
1, 72831, Note_off_c, 0, 53, 64
1, 72840, Note_off_c, 0, 79, 60
1, 72849, Note_on_c, 0, 80, 71
1, 72852, Note_off_c, 0, 82, 62
1, 72856, Control_c, 0, 64, 46
1, 72867, Note_on_c, 0, 55, 54
1, 72881, Note_on_c, 0, 77, 59
1, 72885, Note_off_c, 0, 80, 60
1, 72908, Note_off_c, 0, 55, 60
1, 72908, Note_off_c, 0, 77, 67
1, 72915, Control_c, 0, 64, 46
1, 72949, Note_on_c, 0, 56, 59
1, 72951, Note_on_c, 0, 79, 74
1, 72962, Note_on_c, 0, 75, 62
1, 73019, Control_c, 0, 67, 97
1, 73034, Control_c, 0, 67, 98
1, 73043, Note_off_c, 0, 75, 58
1, 73047, Note_off_c, 0, 56, 62
1, 73049, Note_on_c, 0, 77, 68
1, 73051, Note_on_c, 0, 74, 69
1, 73062, Note_on_c, 0, 58, 64
1, 73063, Control_c, 0, 67, 99
1, 73078, Control_c, 0, 67, 100
1, 73094, Control_c, 0, 67, 101
1, 73108, Note_off_c, 0, 74, 62
1, 73109, Control_c, 0, 67, 104
1, 73117, Note_off_c, 0, 79, 42
1, 73124, Control_c, 0, 67, 109
1, 73125, Note_off_c, 0, 77, 64
1, 73138, Control_c, 0, 67, 111
1, 73153, Control_c, 0, 67, 112
1, 73168, Control_c, 0, 67, 112
1, 73183, Control_c, 0, 67, 113
1, 73198, Control_c, 0, 67, 113
1, 73213, Control_c, 0, 67, 114
1, 73242, Control_c, 0, 67, 114
1, 73253, Note_off_c, 0, 58, 62
1, 73262, Note_on_c, 0, 60, 63
1, 73302, Control_c, 0, 67, 115
1, 73331, Note_off_c, 0, 60, 63
1, 73339, Control_c, 0, 64, 46
1, 73353, Control_c, 0, 64, 47
1, 73369, Note_on_c, 0, 62, 54
1, 73409, Note_off_c, 0, 62, 58
1, 73438, Note_on_c, 0, 92, 80
1, 73441, Note_on_c, 0, 63, 65
1, 73441, Note_on_c, 0, 96, 66
1, 73457, Control_c, 0, 64, 47
1, 73472, Control_c, 0, 64, 48
1, 73472, Control_c, 0, 67, 114
1, 73485, Note_off_c, 0, 92, 66
1, 73487, Control_c, 0, 64, 48
1, 73502, Control_c, 0, 64, 49
1, 73513, Note_off_c, 0, 63, 60
1, 73517, Control_c, 0, 64, 49
1, 73521, Note_off_c, 0, 96, 0
1, 73521, Note_on_c, 0, 96, 26
1, 73524, Note_on_c, 0, 91, 73
1, 73530, Note_on_c, 0, 65, 68
1, 73531, Note_on_c, 0, 94, 71
1, 73531, Control_c, 0, 67, 114
1, 73546, Control_c, 0, 64, 50
1, 73561, Control_c, 0, 67, 113
1, 73571, Note_off_c, 0, 65, 60
1, 73574, Note_off_c, 0, 96, 49
1, 73590, Control_c, 0, 64, 50
1, 73590, Control_c, 0, 67, 113
1, 73591, Note_off_c, 0, 91, 63
1, 73597, Note_on_c, 0, 92, 65
1, 73599, Note_off_c, 0, 94, 64
1, 73605, Control_c, 0, 64, 51
1, 73618, Note_on_c, 0, 67, 53
1, 73618, Note_off_c, 0, 92, 67
1, 73627, Note_on_c, 0, 89, 62
1, 73635, Control_c, 0, 67, 112
1, 73648, Note_off_c, 0, 89, 63
1, 73651, Note_off_c, 0, 67, 61
1, 73679, Control_c, 0, 67, 112
1, 73681, Note_on_c, 0, 68, 65
1, 73698, Note_on_c, 0, 91, 76
1, 73710, Note_on_c, 0, 87, 69
1, 73753, Control_c, 0, 67, 111
1, 73768, Control_c, 0, 64, 51
1, 73785, Note_off_c, 0, 68, 61
1, 73785, Note_on_c, 0, 86, 79
1, 73789, Note_on_c, 0, 70, 70
1, 73789, Note_on_c, 0, 89, 77
1, 73802, Note_off_c, 0, 91, 60
1, 73803, Note_off_c, 0, 87, 66
1, 73811, Note_off_c, 0, 86, 68
1, 73812, Note_off_c, 0, 89, 68
1, 73857, Control_c, 0, 64, 51
1, 73917, Control_c, 0, 67, 111
1, 73932, Control_c, 0, 67, 110
1, 73977, Note_on_c, 0, 68, 78
1, 73981, Note_on_c, 0, 84, 86
1, 73983, Note_on_c, 0, 74, 86
1, 74006, Control_c, 0, 67, 110
1, 74015, Note_off_c, 0, 70, 45
1, 74035, Control_c, 0, 64, 51
1, 74050, Control_c, 0, 64, 52
1, 74051, Note_off_c, 0, 68, 62
1, 74059, Note_on_c, 0, 82, 80
1, 74073, Note_on_c, 0, 75, 77
1, 74073, Control_c, 0, 64, 52
1, 74078, Note_off_c, 0, 74, 60
1, 74083, Note_off_c, 0, 84, 60
1, 74086, Note_on_c, 0, 67, 75
1, 74088, Control_c, 0, 64, 53
1, 74103, Note_off_c, 0, 75, 64
1, 74115, Note_off_c, 0, 82, 61
1, 74117, Control_c, 0, 64, 53
1, 74132, Control_c, 0, 64, 54
1, 74172, Note_off_c, 0, 67, 56
1, 74172, Note_on_c, 0, 80, 86
1, 74175, Note_on_c, 0, 71, 81
1, 74178, Note_on_c, 0, 65, 75
1, 74206, Control_c, 0, 64, 54
1, 74220, Control_c, 0, 64, 55
1, 74235, Note_off_c, 0, 71, 63
1, 74235, Control_c, 0, 67, 109
1, 74265, Note_on_c, 0, 63, 79
1, 74265, Note_on_c, 0, 72, 76
1, 74269, Note_off_c, 0, 65, 39
1, 74281, Note_off_c, 0, 80, 63
1, 74286, Note_off_c, 0, 72, 69
1, 74295, Control_c, 0, 67, 109
1, 74310, Control_c, 0, 64, 54
1, 74327, Note_off_c, 0, 63, 62
1, 74339, Control_c, 0, 64, 54
1, 74339, Control_c, 0, 67, 108
1, 74354, Note_on_c, 0, 62, 78
1, 74354, Note_on_c, 0, 67, 84
1, 74354, Control_c, 0, 67, 108
1, 74362, Note_on_c, 0, 77, 83
1, 74369, Control_c, 0, 67, 107
1, 74384, Control_c, 0, 64, 53
1, 74387, Note_off_c, 0, 67, 61
1, 74413, Control_c, 0, 67, 107
1, 74428, Control_c, 0, 67, 106
1, 74441, Note_on_c, 0, 60, 77
1, 74441, Note_on_c, 0, 75, 73
1, 74441, Note_on_c, 0, 78, 79
1, 74443, Note_off_c, 0, 62, 61
1, 74448, Note_off_c, 0, 77, 64
1, 74458, Control_c, 0, 67, 106
1, 74471, Note_off_c, 0, 75, 60
1, 74473, Control_c, 0, 67, 105
1, 74477, Note_off_c, 0, 78, 60
1, 74487, Control_c, 0, 67, 105
1, 74502, Control_c, 0, 67, 104
1, 74517, Control_c, 0, 67, 104
1, 74532, Note_on_c, 0, 74, 82
1, 74533, Note_on_c, 0, 59, 83
1, 74534, Note_on_c, 0, 79, 83
1, 74561, Control_c, 0, 67, 103
1, 74569, Note_off_c, 0, 60, 28
1, 74576, Control_c, 0, 67, 103
1, 74578, Note_off_c, 0, 79, 59
1, 74580, Note_off_c, 0, 74, 57
1, 74588, Note_off_c, 0, 59, 64
1, 74591, Control_c, 0, 67, 101
1, 74606, Control_c, 0, 64, 54
1, 74606, Control_c, 0, 67, 101
1, 74611, Note_on_c, 0, 78, 86
1, 74618, Note_on_c, 0, 81, 85
1, 74619, Note_on_c, 0, 57, 81
1, 74620, Control_c, 0, 67, 100
1, 74621, Note_on_c, 0, 74, 52
1, 74635, Control_c, 0, 64, 54
1, 74635, Control_c, 0, 67, 98
1, 74643, Note_off_c, 0, 74, 62
1, 74649, Note_off_c, 0, 81, 61
1, 74650, Control_c, 0, 67, 96
1, 74654, Note_off_c, 0, 78, 64
1, 74665, Control_c, 0, 67, 93
1, 74681, Control_c, 0, 67, 88
1, 74696, Control_c, 0, 67, 83
1, 74703, Note_on_c, 0, 74, 90
1, 74706, Note_on_c, 0, 55, 82
1, 74707, Note_off_c, 0, 57, 40
1, 74708, Note_on_c, 0, 83, 89
1, 74710, Note_on_c, 0, 79, 82
1, 74710, Control_c, 0, 67, 80
1, 74725, Control_c, 0, 67, 77
1, 74729, Note_off_c, 0, 79, 71
1, 74740, Control_c, 0, 67, 72
1, 74750, Note_off_c, 0, 83, 64
1, 74754, Note_off_c, 0, 74, 56
1, 74755, Control_c, 0, 67, 65
1, 74770, Control_c, 0, 67, 54
1, 74777, Note_off_c, 0, 55, 60
1, 74784, Control_c, 0, 67, 41
1, 74785, Note_on_c, 0, 53, 84
1, 74789, Poly_aftertouch_c, 0, 83, 0
1, 74791, Note_on_c, 0, 74, 65
1, 74794, Note_on_c, 0, 79, 93
1, 74795, Note_on_c, 0, 83, 78
1, 74799, Control_c, 0, 64, 55
1, 74799, Control_c, 0, 67, 27
1, 74822, Control_c, 0, 64, 56
1, 74822, Control_c, 0, 67, 16
1, 74828, Note_off_c, 0, 74, 67
1, 74834, Note_off_c, 0, 79, 62
1, 74834, Note_off_c, 0, 83, 67
1, 74837, Control_c, 0, 64, 59
1, 74837, Control_c, 0, 67, 11
1, 74845, Note_off_c, 0, 53, 66
1, 74851, Control_c, 0, 64, 64
1, 74851, Control_c, 0, 67, 0
1, 74866, Control_c, 0, 64, 69
1, 74881, Control_c, 0, 64, 74
1, 74882, Note_on_c, 0, 51, 87
1, 74892, Note_on_c, 0, 75, 93
1, 74895, Note_on_c, 0, 84, 99
1, 74896, Control_c, 0, 64, 79
1, 74900, Note_on_c, 0, 80, 75
1, 74911, Control_c, 0, 64, 85
1, 74915, Note_off_c, 0, 80, 68
1, 74925, Control_c, 0, 64, 89
1, 74927, Note_off_c, 0, 75, 62
1, 74929, Note_off_c, 0, 84, 65
1, 74930, Note_off_c, 0, 51, 64
1, 74940, Control_c, 0, 64, 90
1, 74966, Note_on_c, 0, 50, 87
1, 74980, Note_on_c, 0, 86, 106
1, 74983, Control_c, 0, 64, 89
1, 74986, Note_on_c, 0, 77, 87
1, 74998, Control_c, 0, 64, 89
1, 75005, Note_off_c, 0, 77, 71
1, 75013, Control_c, 0, 64, 88
1, 75014, Note_off_c, 0, 86, 69
1, 75019, Note_off_c, 0, 50, 67
1, 75052, Note_on_c, 0, 48, 87
1, 75067, Note_on_c, 0, 79, 65
1, 75069, Note_on_c, 0, 87, 109
1, 75094, Note_off_c, 0, 48, 64
1, 75105, Note_off_c, 0, 79, 63
1, 75107, Note_off_c, 0, 87, 69
1, 75141, Note_on_c, 0, 46, 97
1, 75147, Control_c, 0, 64, 83
1, 75156, Note_on_c, 0, 84, 90
1, 75157, Note_on_c, 0, 79, 85
1, 75161, Control_c, 0, 64, 72
1, 75165, Note_on_c, 0, 88, 80
1, 75168, Note_on_c, 0, 86, 69
1, 75173, Note_on_c, 0, 48, 47
1, 75176, Control_c, 0, 64, 21
1, 75180, Note_off_c, 0, 46, 65
1, 75180, Note_off_c, 0, 84, 68
1, 75182, Note_off_c, 0, 79, 61
1, 75185, Note_off_c, 0, 88, 71
1, 75190, Note_off_c, 0, 86, 71
1, 75191, Control_c, 0, 64, 0
1, 75192, Note_off_c, 0, 48, 38
1, 75193, Note_on_c, 0, 83, 32
1, 75194, Note_off_c, 0, 83, 127
1, 75221, Control_c, 0, 64, 35
1, 75234, Note_on_c, 0, 46, 104
1, 75234, Note_on_c, 0, 48, 94
1, 75235, Control_c, 0, 64, 74
1, 75236, Note_on_c, 0, 84, 100
1, 75237, Note_on_c, 0, 88, 104
1, 75239, Note_on_c, 0, 79, 94
1, 75250, Control_c, 0, 64, 100
1, 75254, Note_off_c, 0, 79, 74
1, 75255, Note_off_c, 0, 88, 69
1, 75256, Note_off_c, 0, 48, 71
1, 75260, Note_off_c, 0, 84, 72
1, 75264, Note_off_c, 0, 46, 69
1, 75265, Control_c, 0, 64, 127
1, 75428, Control_c, 0, 64, 104
1, 75442, Control_c, 0, 64, 77
1, 75457, Control_c, 0, 64, 0
1, 75644, Control_c, 0, 64, 44
1, 75657, Note_on_c, 0, 89, 101
1, 75659, Note_on_c, 0, 77, 94
1, 75659, Control_c, 0, 64, 68
1, 75660, Note_on_c, 0, 84, 95
1, 75666, Note_on_c, 0, 48, 92
1, 75669, Note_on_c, 0, 45, 98
1, 75673, Control_c, 0, 64, 89
1, 75688, Control_c, 0, 64, 127
1, 75690, Note_off_c, 0, 77, 68
1, 75690, Note_off_c, 0, 89, 67
1, 75696, Note_off_c, 0, 84, 72
1, 75709, Note_off_c, 0, 48, 66
1, 75716, Note_off_c, 0, 45, 68
1, 75865, Control_c, 0, 64, 109
1, 75880, Control_c, 0, 64, 72
1, 75895, Control_c, 0, 64, 0
1, 76013, Control_c, 0, 64, 53
1, 76028, Control_c, 0, 64, 56
1, 76043, Control_c, 0, 64, 54
1, 76057, Control_c, 0, 64, 54
1, 76072, Control_c, 0, 64, 56
1, 76087, Control_c, 0, 64, 59
1, 76117, Control_c, 0, 64, 57
1, 76129, Note_on_c, 0, 75, 100
1, 76131, Control_c, 0, 64, 55
1, 76132, Note_on_c, 0, 70, 97
1, 76137, Note_on_c, 0, 48, 94
1, 76138, Note_on_c, 0, 42, 90
1, 76146, Control_c, 0, 64, 55
1, 76176, Control_c, 0, 64, 52
1, 76190, Control_c, 0, 64, 50
1, 76205, Control_c, 0, 64, 49
1, 76220, Control_c, 0, 64, 48
1, 76265, Control_c, 0, 64, 47
1, 76280, Control_c, 0, 64, 46
1, 76348, Control_c, 0, 64, 47
1, 76377, Control_c, 0, 64, 49
1, 76392, Control_c, 0, 64, 50
1, 76421, Control_c, 0, 64, 47
1, 76436, Control_c, 0, 64, 46
1, 76451, Control_c, 0, 64, 46
1, 76481, Control_c, 0, 64, 46
1, 76496, Control_c, 0, 64, 47
1, 76541, Control_c, 0, 64, 47
1, 76688, Control_c, 0, 64, 42
1, 76689, Note_on_c, 0, 77, 99
1, 76694, Note_on_c, 0, 41, 89
1, 76703, Control_c, 0, 64, 40
1, 76718, Note_off_c, 0, 75, 63
1, 76760, Note_off_c, 0, 77, 55
1, 76761, Note_off_c, 0, 41, 60
1, 76764, Note_off_c, 0, 42, 58
1, 76906, Note_on_c, 0, 39, 88
1, 76906, Note_on_c, 0, 78, 106
1, 76911, Control_c, 0, 64, 39
1, 76926, Control_c, 0, 64, 38
1, 76940, Control_c, 0, 64, 36
1, 76953, Note_off_c, 0, 70, 47
1, 76955, Control_c, 0, 64, 29
1, 76970, Control_c, 0, 64, 19
1, 76985, Control_c, 0, 64, 0
1, 77126, Note_on_c, 0, 70, 82
1, 77214, Note_on_c, 0, 69, 78
1, 77215, Control_c, 0, 64, 14
1, 77218, Note_off_c, 0, 70, 61
1, 77229, Control_c, 0, 64, 43
1, 77244, Control_c, 0, 64, 52
1, 77259, Control_c, 0, 64, 56
1, 77274, Control_c, 0, 64, 59
1, 77289, Control_c, 0, 64, 62
1, 77303, Control_c, 0, 64, 65
1, 77305, Note_on_c, 0, 70, 83
1, 77306, Note_off_c, 0, 69, 56
1, 77318, Control_c, 0, 64, 69
1, 77333, Control_c, 0, 64, 73
1, 77348, Control_c, 0, 64, 80
1, 77362, Control_c, 0, 64, 87
1, 77377, Control_c, 0, 64, 93
1, 77385, Note_off_c, 0, 70, 62
1, 77390, Note_on_c, 0, 69, 85
1, 77392, Control_c, 0, 64, 98
1, 77407, Control_c, 0, 64, 103
1, 77422, Control_c, 0, 64, 112
1, 77436, Control_c, 0, 64, 127
1, 77458, Note_off_c, 0, 69, 54
1, 77475, Note_on_c, 0, 70, 88
1, 77529, Note_off_c, 0, 48, 59
1, 77538, Note_off_c, 0, 78, 52
1, 77551, Note_on_c, 0, 69, 85
1, 77565, Note_off_c, 0, 70, 64
1, 77591, Note_off_c, 0, 69, 66
1, 77621, Note_off_c, 0, 39, 38
1, 77678, Note_on_c, 0, 75, 97
1, 77683, Note_on_c, 0, 70, 84
1, 77687, Note_on_c, 0, 48, 77
1, 77691, Note_on_c, 0, 42, 90
1, 77703, Control_c, 0, 64, 92
1, 77718, Control_c, 0, 64, 70
1, 77733, Control_c, 0, 64, 0
1, 78244, Note_on_c, 0, 77, 100
1, 78255, Note_on_c, 0, 41, 79
1, 78259, Control_c, 0, 64, 11
1, 78273, Note_off_c, 0, 75, 65
1, 78274, Control_c, 0, 64, 17
1, 78283, Note_off_c, 0, 42, 62
1, 78321, Note_off_c, 0, 41, 62
1, 78321, Note_off_c, 0, 77, 59
1, 78334, Control_c, 0, 64, 19
1, 78452, Control_c, 0, 64, 17
1, 78467, Control_c, 0, 64, 0
1, 78480, Note_on_c, 0, 79, 98
1, 78486, Note_on_c, 0, 40, 68
1, 78576, Note_off_c, 0, 70, 58
1, 78700, Note_on_c, 0, 70, 65
1, 78772, Note_off_c, 0, 70, 61
1, 78798, Note_on_c, 0, 69, 62
1, 78879, Note_off_c, 0, 69, 59
1, 78889, Note_on_c, 0, 70, 62
1, 78890, Control_c, 0, 67, 9
1, 78905, Control_c, 0, 67, 14
1, 78920, Control_c, 0, 67, 22
1, 78935, Control_c, 0, 64, 42
1, 78935, Control_c, 0, 67, 32
1, 78950, Control_c, 0, 64, 62
1, 78950, Control_c, 0, 67, 42
1, 78964, Control_c, 0, 64, 67
1, 78964, Control_c, 0, 67, 56
1, 78971, Note_off_c, 0, 70, 61
1, 78979, Control_c, 0, 64, 70
1, 78979, Control_c, 0, 67, 68
1, 78994, Control_c, 0, 64, 73
1, 78994, Control_c, 0, 67, 77
1, 78997, Note_on_c, 0, 69, 55
1, 79008, Control_c, 0, 64, 76
1, 79008, Control_c, 0, 67, 84
1, 79023, Control_c, 0, 64, 78
1, 79023, Control_c, 0, 67, 89
1, 79038, Control_c, 0, 64, 81
1, 79038, Control_c, 0, 67, 95
1, 79053, Control_c, 0, 64, 81
1, 79053, Control_c, 0, 67, 100
1, 79059, Note_off_c, 0, 69, 47
1, 79068, Control_c, 0, 64, 82
1, 79068, Control_c, 0, 67, 102
1, 79082, Control_c, 0, 67, 104
1, 79096, Note_on_c, 0, 70, 55
1, 79097, Control_c, 0, 64, 82
1, 79097, Control_c, 0, 67, 106
1, 79112, Control_c, 0, 67, 109
1, 79127, Note_off_c, 0, 79, 34
1, 79127, Control_c, 0, 64, 81
1, 79127, Control_c, 0, 67, 113
1, 79142, Control_c, 0, 67, 119
1, 79156, Control_c, 0, 67, 124
1, 79159, Note_off_c, 0, 48, 50
1, 79171, Control_c, 0, 67, 126
1, 79186, Control_c, 0, 67, 127
1, 79193, Note_on_c, 0, 69, 45
1, 79201, Control_c, 0, 64, 81
1, 79210, Note_off_c, 0, 70, 36
1, 79213, Note_off_c, 0, 40, 40
1, 79216, Control_c, 0, 64, 80
1, 79231, Control_c, 0, 64, 79
1, 79246, Control_c, 0, 64, 78
1, 79261, Control_c, 0, 64, 78
1, 79275, Control_c, 0, 64, 77
1, 79280, Note_off_c, 0, 69, 60
1, 79290, Control_c, 0, 64, 75
1, 79312, Control_c, 0, 64, 73
1, 79326, Control_c, 0, 64, 69
1, 79341, Control_c, 0, 64, 67
1, 79356, Control_c, 0, 64, 65
1, 79371, Control_c, 0, 64, 63
1, 79386, Control_c, 0, 64, 57
1, 79401, Control_c, 0, 64, 36
1, 79416, Control_c, 0, 64, 0
1, 79431, Note_on_c, 0, 78, 54
1, 79437, Note_on_c, 0, 48, 40
1, 79447, Note_on_c, 0, 41, 34
1, 79526, Note_off_c, 0, 78, 56
1, 79578, Note_off_c, 0, 48, 56
1, 79582, Note_off_c, 0, 41, 52
1, 79631, Note_on_c, 0, 70, 47
1, 79691, Note_off_c, 0, 70, 54
1, 79715, Note_on_c, 0, 69, 47
1, 79784, Note_off_c, 0, 69, 57
1, 79812, Note_on_c, 0, 70, 49
1, 79872, Note_off_c, 0, 70, 54
1, 79900, Note_on_c, 0, 69, 54
1, 79947, Note_off_c, 0, 69, 57
1, 79985, Note_on_c, 0, 70, 54
1, 80084, Note_on_c, 0, 69, 52
1, 80086, Note_off_c, 0, 70, 57
1, 80137, Note_off_c, 0, 69, 52
1, 80185, Note_on_c, 0, 77, 61
1, 80198, Note_on_c, 0, 50, 47
1, 80203, Note_on_c, 0, 41, 45
1, 80259, Note_off_c, 0, 77, 57
1, 80281, Note_off_c, 0, 41, 61
1, 80287, Note_off_c, 0, 50, 64
1, 80365, Note_on_c, 0, 72, 53
1, 80441, Note_off_c, 0, 72, 61
1, 80453, Note_on_c, 0, 71, 57
1, 80522, Note_off_c, 0, 71, 62
1, 80554, Note_on_c, 0, 72, 56
1, 80617, Note_off_c, 0, 72, 48
1, 80640, Note_on_c, 0, 71, 60
1, 80686, Note_off_c, 0, 71, 57
1, 80728, Note_on_c, 0, 72, 55
1, 80800, Note_off_c, 0, 72, 45
1, 80817, Note_on_c, 0, 71, 47
1, 80916, Note_off_c, 0, 71, 49
1, 80918, Note_on_c, 0, 51, 53
1, 80918, Note_on_c, 0, 77, 58
1, 80923, Note_on_c, 0, 41, 41
1, 80982, Note_off_c, 0, 77, 56
1, 80991, Note_off_c, 0, 51, 62
1, 80993, Note_off_c, 0, 41, 56
1, 81106, Note_on_c, 0, 74, 56
1, 81172, Note_off_c, 0, 74, 55
1, 81191, Note_on_c, 0, 72, 53
1, 81255, Note_off_c, 0, 72, 39
1, 81282, Note_on_c, 0, 77, 66
1, 81304, Note_on_c, 0, 50, 41
1, 81309, Note_on_c, 0, 41, 38
1, 81359, Note_off_c, 0, 77, 59
1, 81359, Control_c, 0, 64, 14
1, 81374, Control_c, 0, 64, 21
1, 81378, Note_off_c, 0, 50, 63
1, 81387, Note_off_c, 0, 41, 56
1, 81389, Control_c, 0, 64, 26
1, 81403, Control_c, 0, 64, 27
1, 81463, Control_c, 0, 64, 28
1, 81476, Note_on_c, 0, 72, 57
1, 81477, Control_c, 0, 64, 29
1, 81566, Note_off_c, 0, 72, 59
1, 81577, Note_on_c, 0, 70, 53
1, 81674, Note_on_c, 0, 77, 68
1, 81694, Note_off_c, 0, 70, 37
1, 81696, Note_on_c, 0, 41, 39
1, 81699, Note_on_c, 0, 48, 34
1, 81758, Note_off_c, 0, 77, 60
1, 81778, Note_off_c, 0, 41, 58
1, 81786, Note_off_c, 0, 48, 58
1, 81810, Control_c, 0, 64, 30
1, 81875, Note_on_c, 0, 70, 58
1, 81951, Note_on_c, 0, 69, 55
1, 81959, Note_off_c, 0, 70, 57
1, 81989, Control_c, 0, 64, 29
1, 82048, Note_on_c, 0, 77, 69
1, 82066, Note_on_c, 0, 50, 43
1, 82069, Note_on_c, 0, 41, 42
1, 82080, Note_off_c, 0, 69, 55
1, 82093, Control_c, 0, 64, 30
1, 82108, Control_c, 0, 64, 32
1, 82122, Control_c, 0, 64, 34
1, 82132, Note_off_c, 0, 77, 60
1, 82137, Control_c, 0, 64, 35
1, 82143, Note_off_c, 0, 50, 61
1, 82144, Note_off_c, 0, 41, 57
1, 82248, Note_on_c, 0, 72, 65
1, 82256, Control_c, 0, 64, 36
1, 82323, Note_off_c, 0, 72, 59
1, 82333, Note_on_c, 0, 70, 65
1, 82382, Control_c, 0, 64, 36
1, 82449, Note_on_c, 0, 78, 84
1, 82456, Control_c, 0, 64, 37
1, 82464, Note_off_c, 0, 70, 52
1, 82465, Note_on_c, 0, 48, 39
1, 82470, Note_on_c, 0, 41, 41
1, 82471, Control_c, 0, 64, 38
1, 82560, Control_c, 0, 64, 38
1, 82590, Control_c, 0, 64, 39
1, 82629, Note_off_c, 0, 78, 53
1, 82636, Note_off_c, 0, 48, 56
1, 82649, Note_off_c, 0, 41, 56
1, 82649, Control_c, 0, 64, 38
1, 82654, Note_on_c, 0, 70, 58
1, 82680, Control_c, 0, 64, 38
1, 82731, Note_off_c, 0, 70, 61
1, 82748, Note_on_c, 0, 69, 54
1, 82754, Control_c, 0, 64, 37
1, 82769, Control_c, 0, 64, 36
1, 82823, Note_off_c, 0, 69, 57
1, 82847, Note_on_c, 0, 70, 54
1, 82911, Note_off_c, 0, 70, 57
1, 82936, Note_on_c, 0, 69, 56
1, 82975, Note_off_c, 0, 69, 58
1, 83028, Note_on_c, 0, 70, 57
1, 83108, Note_off_c, 0, 70, 56
1, 83111, Note_on_c, 0, 69, 49
1, 83212, Note_on_c, 0, 77, 65
1, 83217, Note_off_c, 0, 69, 46
1, 83225, Note_on_c, 0, 41, 41
1, 83226, Note_on_c, 0, 50, 36
1, 83294, Control_c, 0, 64, 37
1, 83296, Note_off_c, 0, 77, 60
1, 83309, Control_c, 0, 64, 38
1, 83330, Note_off_c, 0, 50, 64
1, 83338, Note_off_c, 0, 41, 56
1, 83398, Control_c, 0, 64, 38
1, 83401, Note_on_c, 0, 72, 55
1, 83479, Note_off_c, 0, 72, 61
1, 83482, Note_on_c, 0, 71, 64
1, 83557, Note_off_c, 0, 71, 61
1, 83587, Note_on_c, 0, 72, 61
1, 83649, Note_off_c, 0, 72, 56
1, 83668, Note_on_c, 0, 71, 65
1, 83728, Note_off_c, 0, 71, 58
1, 83758, Note_on_c, 0, 72, 64
1, 83836, Note_off_c, 0, 72, 52
1, 83847, Note_on_c, 0, 71, 62
1, 83956, Note_on_c, 0, 77, 67
1, 83967, Note_on_c, 0, 51, 48
1, 83967, Note_off_c, 0, 71, 49
1, 83973, Note_on_c, 0, 41, 44
1, 83984, Control_c, 0, 64, 39
1, 84013, Control_c, 0, 64, 40
1, 84033, Note_off_c, 0, 77, 59
1, 84043, Control_c, 0, 64, 40
1, 84049, Note_off_c, 0, 51, 61
1, 84055, Note_off_c, 0, 41, 57
1, 84072, Control_c, 0, 64, 41
1, 84140, Note_on_c, 0, 74, 65
1, 84206, Note_off_c, 0, 74, 57
1, 84221, Control_c, 0, 64, 40
1, 84224, Note_on_c, 0, 72, 64
1, 84296, Control_c, 0, 64, 40
1, 84325, Control_c, 0, 64, 39
1, 84333, Note_on_c, 0, 77, 69
1, 84340, Note_on_c, 0, 41, 43
1, 84340, Note_on_c, 0, 50, 44
1, 84346, Note_off_c, 0, 72, 46
1, 84407, Note_off_c, 0, 77, 58
1, 84423, Note_off_c, 0, 50, 62
1, 84429, Control_c, 0, 64, 40
1, 84444, Note_off_c, 0, 41, 53
1, 84516, Note_on_c, 0, 72, 63
1, 84609, Note_off_c, 0, 72, 59
1, 84612, Note_on_c, 0, 71, 66
1, 84710, Note_on_c, 0, 41, 39
1, 84711, Note_on_c, 0, 77, 74
1, 84714, Note_on_c, 0, 51, 45
1, 84722, Note_off_c, 0, 71, 58
1, 84772, Note_off_c, 0, 41, 61
1, 84792, Note_off_c, 0, 77, 58
1, 84792, Control_c, 0, 64, 40
1, 84817, Note_off_c, 0, 51, 61
1, 84821, Control_c, 0, 64, 41
1, 84851, Control_c, 0, 64, 42
1, 84892, Note_on_c, 0, 74, 74
1, 84969, Note_off_c, 0, 74, 59
1, 84975, Note_on_c, 0, 72, 70
1, 85082, Note_on_c, 0, 77, 76
1, 85089, Control_c, 0, 64, 42
1, 85094, Note_on_c, 0, 53, 55
1, 85097, Note_off_c, 0, 72, 56
1, 85104, Control_c, 0, 64, 44
1, 85118, Control_c, 0, 64, 47
1, 85133, Control_c, 0, 64, 49
1, 85148, Control_c, 0, 64, 50
1, 85163, Control_c, 0, 64, 51
1, 85167, Note_off_c, 0, 77, 54
1, 85178, Control_c, 0, 64, 52
1, 85193, Control_c, 0, 64, 53
1, 85259, Note_on_c, 0, 55, 60
1, 85263, Note_off_c, 0, 53, 51
1, 85274, Note_on_c, 0, 75, 76
1, 85280, Note_on_c, 0, 72, 49
1, 85282, Control_c, 0, 64, 52
1, 85304, Control_c, 0, 64, 51
1, 85319, Control_c, 0, 64, 51
1, 85333, Control_c, 0, 64, 50
1, 85363, Control_c, 0, 64, 50
1, 85367, Note_on_c, 0, 57, 60
1, 85372, Note_off_c, 0, 55, 56
1, 85378, Control_c, 0, 64, 49
1, 85393, Control_c, 0, 64, 49
1, 85448, Note_on_c, 0, 58, 70
1, 85464, Note_off_c, 0, 72, 62
1, 85467, Note_off_c, 0, 57, 58
1, 85481, Note_on_c, 0, 65, 70
1, 85518, Note_off_c, 0, 58, 62
1, 85526, Control_c, 0, 64, 48
1, 85547, Note_off_c, 0, 75, 62
1, 85556, Note_on_c, 0, 60, 61
1, 85615, Control_c, 0, 64, 48
1, 85630, Control_c, 0, 64, 47
1, 85638, Note_on_c, 0, 62, 69
1, 85644, Control_c, 0, 64, 46
1, 85658, Note_off_c, 0, 60, 54
1, 85659, Control_c, 0, 64, 43
1, 85663, Note_on_c, 0, 74, 80
1, 85666, Note_on_c, 0, 70, 69
1, 85674, Control_c, 0, 64, 36
1, 85689, Control_c, 0, 64, 0
1, 85706, Note_off_c, 0, 65, 49
1, 85732, Note_on_c, 0, 63, 80
1, 85741, Note_off_c, 0, 62, 58
1, 85807, Control_c, 0, 64, 36
1, 85807, Control_c, 0, 67, 125
1, 85822, Control_c, 0, 64, 57
1, 85822, Control_c, 0, 67, 123
1, 85823, Note_off_c, 0, 70, 53
1, 85837, Control_c, 0, 64, 64
1, 85837, Control_c, 0, 67, 120
1, 85840, Note_on_c, 0, 69, 68
1, 85840, Note_on_c, 0, 72, 74
1, 85846, Note_on_c, 0, 65, 71
1, 85852, Control_c, 0, 64, 69
1, 85852, Control_c, 0, 67, 117
1, 85861, Note_off_c, 0, 63, 61
1, 85862, Note_off_c, 0, 74, 61
1, 85863, Note_off_c, 0, 69, 69
1, 85867, Control_c, 0, 64, 74
1, 85867, Control_c, 0, 67, 114
1, 85881, Note_off_c, 0, 72, 64
1, 85882, Control_c, 0, 64, 78
1, 85882, Control_c, 0, 67, 110
1, 85897, Control_c, 0, 64, 80
1, 85897, Control_c, 0, 67, 106
1, 85912, Control_c, 0, 67, 102
1, 85926, Control_c, 0, 67, 99
1, 85941, Control_c, 0, 67, 99
1, 85956, Control_c, 0, 67, 98
1, 85971, Control_c, 0, 64, 80
1, 85971, Control_c, 0, 67, 97
1, 85986, Control_c, 0, 64, 79
1, 85986, Control_c, 0, 67, 95
1, 86001, Control_c, 0, 64, 79
1, 86001, Control_c, 0, 67, 93
1, 86016, Control_c, 0, 64, 77
1, 86016, Control_c, 0, 67, 89
1, 86020, Note_off_c, 0, 65, 61
1, 86030, Note_on_c, 0, 87, 80
1, 86030, Control_c, 0, 64, 75
1, 86030, Control_c, 0, 67, 84
1, 86032, Note_on_c, 0, 67, 75
1, 86049, Note_on_c, 0, 84, 64
1, 86053, Control_c, 0, 64, 71
1, 86053, Control_c, 0, 67, 77
1, 86068, Control_c, 0, 64, 67
1, 86068, Control_c, 0, 67, 68
1, 86082, Control_c, 0, 64, 66
1, 86082, Control_c, 0, 67, 60
1, 86097, Control_c, 0, 64, 66
1, 86097, Control_c, 0, 67, 52
1, 86112, Control_c, 0, 64, 65
1, 86112, Control_c, 0, 67, 43
1, 86126, Control_c, 0, 64, 63
1, 86126, Control_c, 0, 67, 34
1, 86141, Note_on_c, 0, 69, 75
1, 86141, Control_c, 0, 64, 60
1, 86141, Control_c, 0, 67, 24
1, 86156, Control_c, 0, 64, 57
1, 86156, Control_c, 0, 67, 15
1, 86157, Note_off_c, 0, 67, 51
1, 86171, Control_c, 0, 64, 56
1, 86171, Control_c, 0, 67, 0
1, 86200, Control_c, 0, 64, 55
1, 86215, Control_c, 0, 64, 52
1, 86222, Note_on_c, 0, 70, 84
1, 86230, Control_c, 0, 64, 48
1, 86236, Note_on_c, 0, 77, 80
1, 86239, Note_off_c, 0, 69, 60
1, 86245, Control_c, 0, 64, 44
1, 86248, Note_off_c, 0, 84, 62
1, 86260, Control_c, 0, 64, 40
1, 86275, Control_c, 0, 64, 36
1, 86290, Control_c, 0, 64, 28
1, 86296, Note_off_c, 0, 87, 63
1, 86305, Control_c, 0, 64, 26
1, 86319, Control_c, 0, 64, 21
1, 86324, Note_on_c, 0, 72, 84
1, 86334, Control_c, 0, 64, 0
1, 86348, Note_off_c, 0, 70, 63
1, 86412, Note_on_c, 0, 74, 85
1, 86413, Note_off_c, 0, 72, 64
1, 86416, Note_on_c, 0, 86, 83
1, 86422, Note_on_c, 0, 82, 80
1, 86477, Note_off_c, 0, 77, 53
1, 86487, Note_on_c, 0, 75, 80
1, 86510, Note_off_c, 0, 74, 64
1, 86526, Control_c, 0, 64, 38
1, 86541, Control_c, 0, 64, 61
1, 86556, Control_c, 0, 64, 66
1, 86571, Control_c, 0, 64, 72
1, 86586, Control_c, 0, 64, 79
1, 86591, Note_on_c, 0, 84, 82
1, 86596, Note_on_c, 0, 77, 79
1, 86598, Note_on_c, 0, 81, 79
1, 86600, Control_c, 0, 64, 87
1, 86603, Note_off_c, 0, 75, 63
1, 86615, Control_c, 0, 64, 92
1, 86616, Note_off_c, 0, 86, 65
1, 86627, Note_off_c, 0, 82, 64
1, 86630, Control_c, 0, 64, 94
1, 86635, Note_off_c, 0, 81, 62
1, 86645, Control_c, 0, 64, 95
1, 86650, Note_off_c, 0, 84, 66
1, 86779, Control_c, 0, 64, 93
1, 86802, Control_c, 0, 64, 88
1, 86817, Control_c, 0, 64, 81
1, 86820, Note_on_c, 0, 91, 97
1, 86831, Control_c, 0, 64, 73
1, 86841, Note_on_c, 0, 84, 61
1, 86844, Note_on_c, 0, 81, 67
1, 86846, Control_c, 0, 64, 66
1, 86848, Note_on_c, 0, 75, 69
1, 86861, Control_c, 0, 64, 60
1, 86876, Control_c, 0, 64, 54
1, 86891, Control_c, 0, 64, 51
1, 86897, Note_off_c, 0, 77, 55
1, 86900, Note_off_c, 0, 84, 61
1, 86905, Control_c, 0, 64, 52
1, 86920, Control_c, 0, 64, 59
1, 86928, Note_off_c, 0, 81, 64
1, 86935, Control_c, 0, 64, 65
1, 86949, Control_c, 0, 64, 70
1, 86964, Control_c, 0, 64, 73
1, 86979, Control_c, 0, 64, 77
1, 86994, Control_c, 0, 64, 81
1, 87009, Control_c, 0, 64, 89
1, 87023, Control_c, 0, 64, 100
1, 87029, Note_on_c, 0, 82, 84
1, 87038, Control_c, 0, 64, 109
1, 87044, Note_on_c, 0, 77, 71
1, 87047, Note_on_c, 0, 74, 69
1, 87053, Control_c, 0, 64, 113
1, 87059, Note_off_c, 0, 75, 58
1, 87068, Control_c, 0, 64, 115
1, 87083, Control_c, 0, 64, 115
1, 87090, Note_off_c, 0, 91, 57
1, 87112, Control_c, 0, 64, 116
1, 87130, Note_off_c, 0, 82, 59
1, 87142, Control_c, 0, 64, 115
1, 87202, Control_c, 0, 64, 113
1, 87216, Control_c, 0, 64, 107
1, 87231, Control_c, 0, 64, 100
1, 87241, Note_on_c, 0, 89, 99
1, 87246, Control_c, 0, 64, 91
1, 87252, Note_on_c, 0, 82, 69
1, 87260, Note_on_c, 0, 73, 66
1, 87261, Control_c, 0, 64, 82
1, 87274, Note_off_c, 0, 77, 0
1, 87274, Note_on_c, 0, 77, 8
1, 87275, Control_c, 0, 64, 73
1, 87290, Control_c, 0, 64, 64
1, 87305, Control_c, 0, 64, 26
1, 87316, Note_off_c, 0, 74, 59
1, 87320, Control_c, 0, 64, 0
1, 87364, Control_c, 0, 64, 11
1, 87379, Control_c, 0, 64, 49
1, 87394, Control_c, 0, 64, 57
1, 87398, Note_off_c, 0, 77, 48
1, 87406, Note_off_c, 0, 82, 61
1, 87409, Control_c, 0, 64, 62
1, 87423, Control_c, 0, 64, 65
1, 87438, Control_c, 0, 64, 68
1, 87453, Control_c, 0, 64, 72
1, 87469, Control_c, 0, 64, 76
1, 87479, Note_on_c, 0, 82, 75
1, 87484, Control_c, 0, 64, 81
1, 87492, Note_off_c, 0, 73, 61
1, 87494, Note_on_c, 0, 72, 63
1, 87499, Note_on_c, 0, 79, 69
1, 87499, Control_c, 0, 64, 86
1, 87513, Control_c, 0, 64, 92
1, 87528, Control_c, 0, 64, 95
1, 87551, Control_c, 0, 64, 97
1, 87565, Control_c, 0, 64, 99
1, 87580, Control_c, 0, 64, 105
1, 87595, Control_c, 0, 64, 119
1, 87610, Control_c, 0, 64, 127
1, 87613, Note_off_c, 0, 82, 62
1, 87625, Note_off_c, 0, 79, 57
1, 87722, Note_on_c, 0, 87, 92
1, 87725, Note_on_c, 0, 84, 47
1, 87748, Note_on_c, 0, 65, 59
1, 87748, Note_off_c, 0, 89, 62
1, 87763, Note_off_c, 0, 72, 56
1, 87763, Note_off_c, 0, 84, 64
1, 87786, Note_off_c, 0, 87, 67
1, 87814, Note_off_c, 0, 65, 62
1, 88069, Control_c, 0, 64, 110
1, 88080, Note_on_c, 0, 86, 77
1, 88084, Control_c, 0, 64, 103
1, 88087, Note_on_c, 0, 58, 46
1, 88098, Control_c, 0, 64, 97
1, 88113, Control_c, 0, 64, 89
1, 88128, Control_c, 0, 64, 80
1, 88143, Control_c, 0, 64, 71
1, 88158, Control_c, 0, 64, 62
1, 88172, Control_c, 0, 64, 49
1, 88187, Control_c, 0, 64, 41
1, 88202, Control_c, 0, 64, 28
1, 88217, Control_c, 0, 64, 0
1, 88260, Note_on_c, 0, 77, 48
1, 88299, Control_c, 0, 67, 10
1, 88314, Control_c, 0, 67, 15
1, 88329, Control_c, 0, 67, 21
1, 88336, Note_off_c, 0, 77, 53
1, 88344, Control_c, 0, 67, 28
1, 88358, Control_c, 0, 64, 49
1, 88358, Control_c, 0, 67, 35
1, 88373, Control_c, 0, 64, 60
1, 88373, Control_c, 0, 67, 41
1, 88375, Note_on_c, 0, 79, 48
1, 88388, Control_c, 0, 64, 65
1, 88388, Control_c, 0, 67, 47
1, 88391, Note_on_c, 0, 64, 36
1, 88396, Note_on_c, 0, 61, 33
1, 88403, Control_c, 0, 64, 69
1, 88403, Control_c, 0, 67, 54
1, 88418, Control_c, 0, 64, 73
1, 88418, Control_c, 0, 67, 62
1, 88429, Note_off_c, 0, 79, 43
1, 88433, Control_c, 0, 64, 76
1, 88433, Control_c, 0, 67, 69
1, 88446, Control_c, 0, 64, 79
1, 88446, Control_c, 0, 67, 74
1, 88460, Control_c, 0, 64, 82
1, 88460, Control_c, 0, 67, 78
1, 88469, Note_on_c, 0, 77, 44
1, 88475, Control_c, 0, 64, 86
1, 88475, Control_c, 0, 67, 82
1, 88490, Control_c, 0, 64, 90
1, 88490, Control_c, 0, 67, 87
1, 88505, Control_c, 0, 64, 92
1, 88505, Control_c, 0, 67, 91
1, 88519, Control_c, 0, 64, 94
1, 88519, Control_c, 0, 67, 95
1, 88534, Note_off_c, 0, 77, 52
1, 88534, Control_c, 0, 64, 95
1, 88534, Control_c, 0, 67, 100
1, 88549, Control_c, 0, 64, 97
1, 88549, Control_c, 0, 67, 102
1, 88564, Note_off_c, 0, 64, 53
1, 88564, Control_c, 0, 64, 98
1, 88564, Control_c, 0, 67, 105
1, 88572, Note_on_c, 0, 79, 45
1, 88579, Control_c, 0, 64, 99
1, 88579, Control_c, 0, 67, 106
1, 88594, Control_c, 0, 67, 107
1, 88609, Control_c, 0, 67, 109
1, 88624, Control_c, 0, 64, 100
1, 88624, Control_c, 0, 67, 110
1, 88630, Note_off_c, 0, 79, 43
1, 88633, Note_off_c, 0, 61, 49
1, 88639, Control_c, 0, 67, 111
1, 88663, Note_on_c, 0, 77, 45
1, 88725, Note_off_c, 0, 77, 42
1, 88746, Note_off_c, 0, 86, 39
1, 88751, Note_on_c, 0, 79, 51
1, 88761, Note_on_c, 0, 65, 33
1, 88772, Control_c, 0, 64, 99
1, 88779, Note_on_c, 0, 62, 28
1, 88788, Note_off_c, 0, 58, 36
1, 88816, Control_c, 0, 67, 110
1, 88822, Note_off_c, 0, 65, 0
1, 88838, Note_off_c, 0, 79, 56
1, 88845, Note_on_c, 0, 77, 46
1, 88846, Control_c, 0, 64, 98
1, 88859, Poly_aftertouch_c, 0, 65, 127
1, 88860, Control_c, 0, 64, 96
1, 88875, Control_c, 0, 64, 94
1, 88875, Control_c, 0, 67, 110
1, 88890, Control_c, 0, 64, 92
1, 88890, Control_c, 0, 67, 109
1, 88905, Control_c, 0, 64, 90
1, 88919, Control_c, 0, 64, 88
1, 88925, Poly_aftertouch_c, 0, 65, 0
1, 88934, Note_off_c, 0, 77, 57
1, 88934, Control_c, 0, 64, 86
1, 88944, Note_off_c, 0, 62, 49
1, 88948, Note_on_c, 0, 84, 76
1, 88949, Control_c, 0, 64, 83
1, 88958, Note_on_c, 0, 58, 42
1, 88964, Control_c, 0, 64, 79
1, 88964, Control_c, 0, 67, 109
1, 88979, Control_c, 0, 64, 74
1, 88993, Control_c, 0, 64, 69
1, 89008, Control_c, 0, 64, 64
1, 89023, Control_c, 0, 64, 63
1, 89045, Control_c, 0, 64, 60
1, 89060, Control_c, 0, 64, 56
1, 89077, Control_c, 0, 64, 44
1, 89089, Note_on_c, 0, 75, 53
1, 89091, Control_c, 0, 64, 0
1, 89138, Note_off_c, 0, 75, 55
1, 89182, Note_on_c, 0, 77, 42
1, 89195, Note_on_c, 0, 66, 38
1, 89196, Control_c, 0, 64, 36
1, 89198, Note_on_c, 0, 69, 30
1, 89211, Control_c, 0, 64, 58
1, 89225, Control_c, 0, 64, 64
1, 89239, Note_off_c, 0, 77, 52
1, 89240, Control_c, 0, 64, 68
1, 89255, Control_c, 0, 64, 72
1, 89255, Control_c, 0, 67, 108
1, 89270, Control_c, 0, 64, 76
1, 89270, Control_c, 0, 67, 108
1, 89273, Note_on_c, 0, 75, 44
1, 89284, Control_c, 0, 64, 79
1, 89299, Control_c, 0, 64, 82
1, 89299, Control_c, 0, 67, 107
1, 89314, Control_c, 0, 64, 86
1, 89329, Control_c, 0, 64, 90
1, 89330, Note_off_c, 0, 75, 56
1, 89343, Control_c, 0, 64, 94
1, 89343, Control_c, 0, 67, 107
1, 89358, Control_c, 0, 64, 97
1, 89361, Note_on_c, 0, 77, 52
1, 89373, Control_c, 0, 64, 101
1, 89373, Control_c, 0, 67, 106
1, 89388, Control_c, 0, 64, 106
1, 89403, Control_c, 0, 64, 113
1, 89417, Control_c, 0, 64, 126
1, 89422, Note_off_c, 0, 77, 57
1, 89432, Control_c, 0, 64, 127
1, 89432, Control_c, 0, 67, 106
1, 89452, Note_on_c, 0, 75, 58
1, 89494, Note_off_c, 0, 66, 33
1, 89526, Note_off_c, 0, 75, 59
1, 89542, Note_on_c, 0, 77, 56
1, 89556, Note_off_c, 0, 84, 42
1, 89573, Note_on_c, 0, 65, 40
1, 89589, Note_off_c, 0, 58, 34
1, 89607, Note_off_c, 0, 77, 60
1, 89635, Note_on_c, 0, 75, 58
1, 89649, Note_off_c, 0, 65, 53
1, 89667, Note_off_c, 0, 69, 42
1, 89670, Note_off_c, 0, 75, 54
1, 89684, Control_c, 0, 64, 114
1, 89699, Control_c, 0, 64, 101
1, 89714, Control_c, 0, 64, 90
1, 89724, Note_on_c, 0, 82, 72
1, 89729, Control_c, 0, 64, 78
1, 89734, Note_on_c, 0, 58, 41
1, 89743, Control_c, 0, 64, 67
1, 89758, Control_c, 0, 64, 61
1, 89762, Note_on_c, 0, 74, 53
1, 89773, Control_c, 0, 64, 60
1, 89795, Control_c, 0, 64, 62
1, 89810, Control_c, 0, 64, 64
1, 89818, Note_off_c, 0, 74, 63
1, 89825, Control_c, 0, 64, 67
1, 89840, Control_c, 0, 64, 72
1, 89849, Note_off_c, 0, 82, 63
1, 89855, Control_c, 0, 64, 78
1, 89870, Control_c, 0, 64, 83
1, 89872, Note_on_c, 0, 70, 55
1, 89885, Control_c, 0, 64, 87
1, 89900, Control_c, 0, 64, 89
1, 89915, Control_c, 0, 64, 92
1, 89929, Control_c, 0, 64, 95
1, 89932, Note_off_c, 0, 70, 57
1, 89944, Control_c, 0, 64, 99
1, 89945, Note_on_c, 0, 65, 45
1, 89958, Note_on_c, 0, 62, 42
1, 89959, Control_c, 0, 64, 103
1, 89963, Note_on_c, 0, 72, 51
1, 89974, Control_c, 0, 64, 107
1, 89994, Note_off_c, 0, 65, 48
1, 90005, Note_off_c, 0, 62, 56
1, 90036, Note_on_c, 0, 70, 66
1, 90043, Note_off_c, 0, 72, 53
1, 90064, Control_c, 0, 64, 107
1, 90078, Control_c, 0, 64, 104
1, 90093, Control_c, 0, 64, 101
1, 90108, Control_c, 0, 64, 93
1, 90115, Note_off_c, 0, 70, 56
1, 90123, Control_c, 0, 64, 83
1, 90126, Note_on_c, 0, 79, 76
1, 90138, Control_c, 0, 64, 73
1, 90144, Note_on_c, 0, 67, 56
1, 90153, Control_c, 0, 64, 65
1, 90164, Note_on_c, 0, 63, 41
1, 90167, Control_c, 0, 64, 60
1, 90182, Control_c, 0, 64, 59
1, 90197, Control_c, 0, 64, 61
1, 90200, Note_off_c, 0, 67, 56
1, 90212, Control_c, 0, 64, 64
1, 90227, Note_on_c, 0, 70, 67
1, 90227, Control_c, 0, 64, 67
1, 90228, Note_off_c, 0, 79, 60
1, 90241, Control_c, 0, 64, 72
1, 90256, Control_c, 0, 64, 79
1, 90271, Control_c, 0, 64, 85
1, 90271, Control_c, 0, 67, 105
1, 90286, Control_c, 0, 64, 90
1, 90286, Control_c, 0, 67, 105
1, 90300, Control_c, 0, 64, 93
1, 90304, Note_off_c, 0, 70, 58
1, 90315, Control_c, 0, 64, 95
1, 90315, Control_c, 0, 67, 104
1, 90317, Note_on_c, 0, 77, 81
1, 90330, Control_c, 0, 64, 96
1, 90336, Note_off_c, 0, 58, 54
1, 90337, Note_on_c, 0, 65, 53
1, 90340, Note_on_c, 0, 62, 54
1, 90369, Note_off_c, 0, 63, 24
1, 90372, Note_off_c, 0, 62, 64
1, 90374, Note_off_c, 0, 65, 57
1, 90405, Note_on_c, 0, 70, 72
1, 90421, Note_off_c, 0, 77, 55
1, 90448, Control_c, 0, 64, 95
1, 90459, Note_off_c, 0, 70, 63
1, 90463, Control_c, 0, 64, 93
1, 90478, Control_c, 0, 64, 91
1, 90493, Control_c, 0, 64, 89
1, 90508, Control_c, 0, 64, 83
1, 90517, Note_on_c, 0, 77, 80
1, 90523, Control_c, 0, 64, 75
1, 90541, Note_on_c, 0, 70, 54
1, 90543, Note_on_c, 0, 53, 55
1, 90545, Control_c, 0, 64, 65
1, 90552, Note_on_c, 0, 62, 29
1, 90560, Control_c, 0, 64, 54
1, 90574, Control_c, 0, 64, 49
1, 90583, Note_off_c, 0, 62, 53
1, 90589, Control_c, 0, 67, 104
1, 90604, Control_c, 0, 64, 50
1, 90615, Note_off_c, 0, 70, 59
1, 90619, Control_c, 0, 64, 58
1, 90632, Note_on_c, 0, 65, 63
1, 90634, Control_c, 0, 64, 64
1, 90643, Note_off_c, 0, 77, 59
1, 90648, Control_c, 0, 64, 68
1, 90664, Control_c, 0, 64, 71
1, 90664, Control_c, 0, 67, 103
1, 90679, Control_c, 0, 64, 75
1, 90679, Control_c, 0, 67, 102
1, 90694, Control_c, 0, 64, 79
1, 90694, Control_c, 0, 67, 102
1, 90706, Note_on_c, 0, 75, 79
1, 90709, Control_c, 0, 64, 86
1, 90716, Note_off_c, 0, 65, 61
1, 90719, Note_on_c, 0, 63, 59
1, 90720, Note_on_c, 0, 69, 57
1, 90723, Control_c, 0, 64, 96
1, 90725, Note_on_c, 0, 60, 51
1, 90738, Control_c, 0, 64, 104
1, 90738, Control_c, 0, 67, 101
1, 90753, Control_c, 0, 64, 108
1, 90756, Note_off_c, 0, 69, 60
1, 90783, Control_c, 0, 64, 102
1, 90797, Control_c, 0, 64, 91
1, 90803, Note_on_c, 0, 65, 68
1, 90809, Note_off_c, 0, 63, 53
1, 90810, Note_off_c, 0, 75, 63
1, 90812, Control_c, 0, 64, 79
1, 90827, Control_c, 0, 64, 68
1, 90842, Control_c, 0, 64, 64
1, 90857, Control_c, 0, 67, 101
1, 90871, Control_c, 0, 64, 67
1, 90886, Control_c, 0, 64, 73
1, 90888, Note_off_c, 0, 65, 60
1, 90889, Note_on_c, 0, 70, 64
1, 90891, Note_on_c, 0, 74, 85
1, 90897, Note_off_c, 0, 60, 55
1, 90901, Control_c, 0, 64, 81
1, 90908, Note_on_c, 0, 62, 44
1, 90916, Control_c, 0, 64, 92
1, 90919, Note_on_c, 0, 58, 50
1, 90931, Control_c, 0, 64, 101
1, 90946, Control_c, 0, 64, 102
1, 90961, Control_c, 0, 64, 97
1, 90962, Note_off_c, 0, 70, 53
1, 90976, Control_c, 0, 64, 85
1, 90978, Note_on_c, 0, 65, 72
1, 90990, Control_c, 0, 64, 72
1, 91001, Note_off_c, 0, 58, 56
1, 91001, Note_off_c, 0, 74, 63
1, 91005, Control_c, 0, 64, 64
1, 91020, Control_c, 0, 64, 62
1, 91035, Control_c, 0, 64, 65
1, 91050, Control_c, 0, 64, 69
1, 91064, Control_c, 0, 64, 75
1, 91064, Control_c, 0, 67, 101
1, 91067, Note_on_c, 0, 72, 84
1, 91068, Note_off_c, 0, 65, 59
1, 91078, Note_off_c, 0, 62, 30
1, 91079, Control_c, 0, 64, 82
1, 91086, Note_on_c, 0, 57, 50
1, 91094, Control_c, 0, 64, 90
1, 91101, Note_on_c, 0, 60, 42
1, 91108, Control_c, 0, 64, 97
1, 91121, Note_off_c, 0, 53, 37
1, 91123, Control_c, 0, 64, 100
1, 91128, Note_off_c, 0, 57, 63
1, 91133, Note_off_c, 0, 60, 65
1, 91138, Control_c, 0, 64, 101
1, 91153, Control_c, 0, 64, 103
1, 91168, Control_c, 0, 64, 103
1, 91178, Note_on_c, 0, 65, 62
1, 91197, Control_c, 0, 67, 102
1, 91227, Control_c, 0, 67, 102
1, 91256, Control_c, 0, 64, 103
1, 91271, Control_c, 0, 64, 101
1, 91271, Control_c, 0, 67, 103
1, 91294, Control_c, 0, 64, 99
1, 91294, Control_c, 0, 67, 103
1, 91307, Note_on_c, 0, 46, 54
1, 91309, Control_c, 0, 64, 96
1, 91313, Note_on_c, 0, 74, 83
1, 91320, Note_off_c, 0, 65, 36
1, 91323, Control_c, 0, 64, 91
1, 91323, Control_c, 0, 67, 104
1, 91338, Control_c, 0, 64, 84
1, 91338, Control_c, 0, 67, 105
1, 91353, Control_c, 0, 64, 77
1, 91367, Note_off_c, 0, 72, 56
1, 91368, Control_c, 0, 64, 70
1, 91368, Control_c, 0, 67, 105
1, 91382, Control_c, 0, 64, 64
1, 91397, Control_c, 0, 64, 53
1, 91412, Control_c, 0, 64, 0
1, 91412, Control_c, 0, 67, 106
1, 91441, Note_on_c, 0, 65, 43
1, 91441, Control_c, 0, 67, 106
1, 91490, Note_off_c, 0, 65, 62
1, 91503, Note_on_c, 0, 52, 63
1, 91508, Note_on_c, 0, 49, 64
1, 91515, Note_on_c, 0, 67, 55
1, 91589, Note_off_c, 0, 67, 59
1, 91608, Note_on_c, 0, 65, 44
1, 91635, Control_c, 0, 64, 45
1, 91649, Control_c, 0, 64, 61
1, 91664, Control_c, 0, 64, 66
1, 91665, Note_off_c, 0, 65, 58
1, 91679, Control_c, 0, 64, 73
1, 91679, Control_c, 0, 67, 106
1, 91694, Control_c, 0, 64, 78
1, 91697, Note_on_c, 0, 67, 54
1, 91709, Control_c, 0, 64, 84
1, 91709, Control_c, 0, 67, 105
1, 91724, Control_c, 0, 64, 87
1, 91738, Note_off_c, 0, 52, 62
1, 91738, Control_c, 0, 64, 91
1, 91753, Control_c, 0, 64, 96
1, 91753, Control_c, 0, 67, 105
1, 91768, Control_c, 0, 64, 98
1, 91768, Control_c, 0, 67, 104
1, 91776, Note_off_c, 0, 67, 51
1, 91783, Note_on_c, 0, 65, 55
1, 91783, Control_c, 0, 64, 98
1, 91783, Control_c, 0, 67, 104
1, 91812, Control_c, 0, 67, 103
1, 91821, Note_off_c, 0, 49, 46
1, 91849, Note_off_c, 0, 65, 53
1, 91861, Note_off_c, 0, 74, 61
1, 91871, Control_c, 0, 64, 98
1, 91873, Note_on_c, 0, 67, 58
1, 91885, Note_on_c, 0, 53, 52
1, 91886, Control_c, 0, 64, 97
1, 91899, Note_on_c, 0, 50, 46
1, 91901, Control_c, 0, 64, 95
1, 91909, Note_off_c, 0, 46, 55
1, 91916, Control_c, 0, 64, 93
1, 91930, Control_c, 0, 64, 90
1, 91945, Control_c, 0, 64, 87
1, 91960, Control_c, 0, 64, 85
1, 91967, Note_off_c, 0, 67, 59
1, 91968, Note_on_c, 0, 65, 60
1, 91975, Control_c, 0, 64, 83
1, 91990, Control_c, 0, 64, 81
1, 92004, Control_c, 0, 64, 77
1, 92019, Control_c, 0, 64, 74
1, 92042, Control_c, 0, 64, 71
1, 92057, Control_c, 0, 64, 69
1, 92062, Note_off_c, 0, 65, 60
1, 92071, Control_c, 0, 64, 67
1, 92072, Note_off_c, 0, 53, 58
1, 92076, Note_on_c, 0, 72, 75
1, 92076, Note_off_c, 0, 50, 63
1, 92084, Note_on_c, 0, 46, 45
1, 92086, Control_c, 0, 64, 65
1, 92086, Control_c, 0, 67, 104
1, 92101, Control_c, 0, 64, 64
1, 92116, Control_c, 0, 64, 61
1, 92116, Control_c, 0, 67, 104
1, 92131, Control_c, 0, 64, 51
1, 92131, Control_c, 0, 67, 105
1, 92145, Control_c, 0, 64, 0
1, 92145, Control_c, 0, 67, 105
1, 92197, Note_on_c, 0, 63, 62
1, 92220, Control_c, 0, 67, 106
1, 92259, Note_off_c, 0, 63, 57
1, 92275, Note_on_c, 0, 54, 61
1, 92275, Note_on_c, 0, 57, 51
1, 92288, Note_on_c, 0, 65, 48
1, 92358, Note_off_c, 0, 65, 61
1, 92369, Control_c, 0, 67, 105
1, 92376, Note_on_c, 0, 63, 56
1, 92443, Control_c, 0, 67, 105
1, 92447, Note_off_c, 0, 63, 56
1, 92473, Note_on_c, 0, 65, 51
1, 92487, Control_c, 0, 67, 104
1, 92517, Control_c, 0, 64, 54
1, 92523, Note_off_c, 0, 65, 61
1, 92532, Control_c, 0, 64, 64
1, 92532, Control_c, 0, 67, 104
1, 92547, Control_c, 0, 64, 69
1, 92557, Note_on_c, 0, 63, 59
1, 92562, Control_c, 0, 64, 74
1, 92576, Control_c, 0, 64, 79
1, 92591, Control_c, 0, 64, 83
1, 92606, Control_c, 0, 64, 86
1, 92611, Note_off_c, 0, 63, 47
1, 92621, Control_c, 0, 64, 88
1, 92636, Control_c, 0, 64, 91
1, 92645, Note_off_c, 0, 46, 58
1, 92646, Note_on_c, 0, 53, 51
1, 92651, Control_c, 0, 64, 93
1, 92653, Note_on_c, 0, 65, 52
1, 92666, Control_c, 0, 64, 93
1, 92685, Note_off_c, 0, 72, 57
1, 92696, Note_off_c, 0, 65, 62
1, 92705, Note_off_c, 0, 53, 60
1, 92719, Note_on_c, 0, 63, 65
1, 92720, Note_off_c, 0, 54, 40
1, 92754, Control_c, 0, 64, 93
1, 92769, Control_c, 0, 64, 90
1, 92778, Note_off_c, 0, 63, 43
1, 92791, Control_c, 0, 64, 84
1, 92794, Note_off_c, 0, 57, 39
1, 92806, Control_c, 0, 64, 78
1, 92821, Control_c, 0, 64, 70
1, 92834, Note_on_c, 0, 46, 49
1, 92836, Control_c, 0, 64, 63
1, 92836, Note_on_c, 0, 70, 69
1, 92851, Control_c, 0, 64, 49
1, 92863, Note_on_c, 0, 62, 51
1, 92866, Control_c, 0, 64, 40
1, 92881, Control_c, 0, 64, 46
1, 92895, Control_c, 0, 64, 59
1, 92910, Control_c, 0, 64, 64
1, 92910, Note_off_c, 0, 62, 59
1, 92925, Control_c, 0, 64, 69
1, 92931, Note_off_c, 0, 70, 62
1, 92940, Control_c, 0, 64, 74
1, 92954, Note_on_c, 0, 58, 62
1, 92955, Control_c, 0, 64, 81
1, 92969, Control_c, 0, 64, 87
1, 92984, Control_c, 0, 64, 91
1, 92999, Control_c, 0, 64, 92
1, 93017, Note_on_c, 0, 50, 54
1, 93020, Note_on_c, 0, 53, 43
1, 93028, Note_off_c, 0, 58, 37
1, 93040, Note_on_c, 0, 60, 58
1, 93066, Note_off_c, 0, 50, 61
1, 93069, Note_off_c, 0, 53, 61
1, 93118, Control_c, 0, 64, 92
1, 93128, Note_on_c, 0, 58, 67
1, 93133, Control_c, 0, 64, 91
1, 93134, Note_off_c, 0, 60, 57
1, 93148, Control_c, 0, 64, 88
1, 93163, Control_c, 0, 64, 82
1, 93177, Control_c, 0, 64, 73
1, 93192, Control_c, 0, 64, 64
1, 93205, Note_on_c, 0, 55, 60
1, 93205, Note_off_c, 0, 58, 57
1, 93207, Control_c, 0, 64, 49
1, 93208, Note_on_c, 0, 67, 75
1, 93222, Control_c, 0, 64, 48
1, 93226, Note_on_c, 0, 51, 44
1, 93237, Control_c, 0, 64, 56
1, 93251, Control_c, 0, 64, 63
1, 93251, Control_c, 0, 67, 103
1, 93266, Control_c, 0, 64, 67
1, 93266, Control_c, 0, 67, 103
1, 93277, Note_off_c, 0, 55, 58
1, 93281, Control_c, 0, 64, 72
1, 93295, Note_off_c, 0, 67, 59
1, 93296, Control_c, 0, 64, 80
1, 93307, Note_on_c, 0, 58, 70
1, 93310, Control_c, 0, 64, 87
1, 93325, Control_c, 0, 64, 88
1, 93340, Control_c, 0, 64, 85
1, 93355, Control_c, 0, 64, 79
1, 93355, Control_c, 0, 67, 102
1, 93370, Control_c, 0, 64, 73
1, 93374, Note_off_c, 0, 58, 56
1, 93384, Control_c, 0, 64, 70
1, 93392, Note_on_c, 0, 65, 76
1, 93399, Control_c, 0, 64, 71
1, 93402, Note_off_c, 0, 46, 54
1, 93403, Note_on_c, 0, 50, 60
1, 93414, Control_c, 0, 64, 75
1, 93424, Note_on_c, 0, 55, 16
1, 93424, Note_off_c, 0, 51, 27
1, 93429, Note_on_c, 0, 53, 33
1, 93429, Control_c, 0, 64, 79
1, 93444, Control_c, 0, 64, 83
1, 93448, Note_off_c, 0, 50, 65
1, 93459, Control_c, 0, 64, 84
1, 93460, Note_off_c, 0, 55, 55
1, 93464, Note_off_c, 0, 53, 51
1, 93469, Note_on_c, 0, 58, 75
1, 93474, Control_c, 0, 64, 85
1, 93477, Note_off_c, 0, 65, 62
1, 93489, Control_c, 0, 64, 86
1, 93518, Control_c, 0, 64, 85
1, 93522, Note_off_c, 0, 58, 62
1, 93540, Control_c, 0, 64, 79
1, 93555, Control_c, 0, 64, 71
1, 93555, Control_c, 0, 67, 102
1, 93570, Control_c, 0, 64, 62
1, 93584, Control_c, 0, 64, 52
1, 93587, Note_on_c, 0, 65, 79
1, 93594, Note_on_c, 0, 58, 55
1, 93595, Note_on_c, 0, 50, 47
1, 93599, Note_on_c, 0, 41, 59
1, 93599, Control_c, 0, 64, 54
1, 93614, Control_c, 0, 64, 61
1, 93629, Control_c, 0, 64, 65
1, 93632, Note_off_c, 0, 50, 64
1, 93644, Control_c, 0, 64, 69
1, 93659, Control_c, 0, 64, 74
1, 93673, Control_c, 0, 64, 80
1, 93678, Note_on_c, 0, 53, 59
1, 93684, Note_off_c, 0, 58, 61
1, 93688, Control_c, 0, 64, 86
1, 93694, Note_off_c, 0, 65, 60
1, 93703, Control_c, 0, 64, 86
1, 93718, Control_c, 0, 64, 83
1, 93718, Control_c, 0, 67, 101
1, 93733, Control_c, 0, 64, 76
1, 93748, Control_c, 0, 64, 67
1, 93757, Note_off_c, 0, 53, 62
1, 93763, Note_on_c, 0, 63, 80
1, 93763, Control_c, 0, 64, 57
1, 93773, Note_on_c, 0, 57, 60
1, 93774, Note_on_c, 0, 51, 56
1, 93778, Control_c, 0, 64, 49
1, 93780, Note_on_c, 0, 48, 58
1, 93792, Control_c, 0, 64, 57
1, 93792, Control_c, 0, 67, 101
1, 93807, Control_c, 0, 64, 64
1, 93808, Note_off_c, 0, 57, 59
1, 93822, Control_c, 0, 64, 68
1, 93822, Control_c, 0, 67, 100
1, 93831, Note_off_c, 0, 51, 60
1, 93836, Control_c, 0, 64, 71
1, 93851, Control_c, 0, 64, 76
1, 93851, Control_c, 0, 67, 100
1, 93853, Note_on_c, 0, 53, 67
1, 93855, Note_off_c, 0, 63, 61
1, 93867, Control_c, 0, 64, 83
1, 93867, Control_c, 0, 67, 99
1, 93882, Control_c, 0, 64, 86
1, 93897, Control_c, 0, 64, 87
1, 93897, Control_c, 0, 67, 98
1, 93912, Control_c, 0, 64, 85
1, 93912, Control_c, 0, 67, 98
1, 93921, Note_off_c, 0, 48, 35
1, 93927, Control_c, 0, 64, 78
1, 93927, Control_c, 0, 67, 97
1, 93936, Note_off_c, 0, 53, 61
1, 93941, Control_c, 0, 64, 69
1, 93941, Control_c, 0, 67, 94
1, 93946, Note_on_c, 0, 50, 60
1, 93947, Note_on_c, 0, 62, 73
1, 93948, Note_on_c, 0, 46, 60
1, 93949, Note_on_c, 0, 58, 62
1, 93956, Control_c, 0, 64, 63
1, 93956, Control_c, 0, 67, 89
1, 93971, Control_c, 0, 67, 84
1, 93986, Control_c, 0, 64, 66
1, 93986, Control_c, 0, 67, 80
1, 93997, Note_off_c, 0, 58, 49
1, 94001, Control_c, 0, 64, 70
1, 94001, Control_c, 0, 67, 77
1, 94015, Control_c, 0, 64, 76
1, 94015, Control_c, 0, 67, 74
1, 94030, Control_c, 0, 64, 84
1, 94030, Control_c, 0, 67, 70
1, 94035, Note_off_c, 0, 62, 60
1, 94037, Note_on_c, 0, 53, 76
1, 94045, Control_c, 0, 64, 91
1, 94045, Control_c, 0, 67, 68
1, 94058, Note_off_c, 0, 50, 50
1, 94059, Control_c, 0, 64, 91
1, 94059, Control_c, 0, 67, 65
1, 94061, Note_off_c, 0, 46, 37
1, 94074, Control_c, 0, 64, 85
1, 94074, Control_c, 0, 67, 60
1, 94089, Control_c, 0, 64, 77
1, 94089, Control_c, 0, 67, 52
1, 94104, Control_c, 0, 64, 70
1, 94104, Control_c, 0, 67, 45
1, 94106, Note_off_c, 0, 53, 60
1, 94115, Note_off_c, 0, 41, 33
1, 94119, Note_on_c, 0, 60, 79
1, 94119, Control_c, 0, 64, 66
1, 94119, Control_c, 0, 67, 40
1, 94127, Note_on_c, 0, 45, 45
1, 94133, Control_c, 0, 64, 68
1, 94133, Control_c, 0, 67, 36
1, 94138, Note_on_c, 0, 48, 62
1, 94148, Control_c, 0, 64, 72
1, 94148, Control_c, 0, 67, 32
1, 94162, Note_off_c, 0, 45, 64
1, 94163, Control_c, 0, 64, 76
1, 94163, Control_c, 0, 67, 27
1, 94173, Note_off_c, 0, 48, 65
1, 94178, Control_c, 0, 64, 79
1, 94178, Control_c, 0, 67, 24
1, 94192, Note_off_c, 0, 60, 64
1, 94193, Control_c, 0, 64, 80
1, 94193, Control_c, 0, 67, 20
1, 94207, Note_on_c, 0, 53, 77
1, 94207, Control_c, 0, 64, 80
1, 94207, Control_c, 0, 67, 17
1, 94222, Control_c, 0, 67, 16
1, 94289, Control_c, 0, 64, 80
1, 94304, Control_c, 0, 64, 79
1, 94304, Control_c, 0, 67, 17
1, 94308, Note_off_c, 0, 53, 59
1, 94317, Note_on_c, 0, 58, 85
1, 94319, Control_c, 0, 64, 78
1, 94319, Control_c, 0, 67, 18
1, 94330, Note_on_c, 0, 34, 64
1, 94333, Control_c, 0, 64, 76
1, 94333, Control_c, 0, 67, 19
1, 94348, Control_c, 0, 64, 73
1, 94348, Control_c, 0, 67, 20
1, 94363, Control_c, 0, 64, 69
1, 94363, Control_c, 0, 67, 21
1, 94378, Control_c, 0, 64, 64
1, 94378, Control_c, 0, 67, 22
1, 94393, Control_c, 0, 64, 50
1, 94393, Control_c, 0, 67, 22
1, 94407, Control_c, 0, 64, 0
1, 94407, Control_c, 0, 67, 23
1, 94416, Note_on_c, 0, 54, 87
1, 94422, Control_c, 0, 67, 24
1, 94437, Control_c, 0, 67, 24
1, 94452, Control_c, 0, 67, 25
1, 94481, Control_c, 0, 67, 25
1, 94508, Note_on_c, 0, 50, 83
1, 94511, Control_c, 0, 67, 26
1, 94541, Control_c, 0, 67, 26
1, 94556, Control_c, 0, 67, 27
1, 94571, Control_c, 0, 64, 42
1, 94582, Note_off_c, 0, 54, 63
1, 94586, Control_c, 0, 64, 59
1, 94586, Control_c, 0, 67, 27
1, 94597, Note_on_c, 0, 42, 82
1, 94601, Control_c, 0, 64, 65
1, 94613, Note_off_c, 0, 34, 61
1, 94615, Control_c, 0, 64, 68
1, 94615, Control_c, 0, 67, 28
1, 94630, Control_c, 0, 64, 72
1, 94644, Note_off_c, 0, 50, 60
1, 94645, Control_c, 0, 64, 74
1, 94675, Control_c, 0, 64, 72
1, 94687, Note_on_c, 0, 41, 83
1, 94690, Control_c, 0, 64, 68
1, 94705, Control_c, 0, 64, 64
1, 94720, Control_c, 0, 64, 58
1, 94735, Control_c, 0, 64, 55
1, 94750, Control_c, 0, 64, 53
1, 94752, Note_off_c, 0, 58, 51
1, 94764, Control_c, 0, 64, 44
1, 94772, Note_on_c, 0, 53, 69
1, 94779, Control_c, 0, 64, 0
1, 94780, Note_off_c, 0, 42, 38
1, 94794, Control_c, 0, 67, 27
1, 94801, Note_off_c, 0, 41, 60
1, 94852, Note_off_c, 0, 53, 63
1, 94861, Note_on_c, 0, 50, 69
1, 94869, Note_on_c, 0, 34, 76
1, 94935, Note_off_c, 0, 34, 61
1, 94947, Note_on_c, 0, 58, 71
1, 94947, Note_off_c, 0, 50, 63
1, 95019, Note_off_c, 0, 58, 61
1, 95038, Control_c, 0, 64, 51
1, 95049, Note_on_c, 0, 29, 76
1, 95053, Control_c, 0, 64, 62
1, 95063, Note_on_c, 0, 53, 78
1, 95068, Control_c, 0, 64, 66
1, 95079, Note_off_c, 0, 29, 64
1, 95082, Control_c, 0, 64, 70
1, 95097, Control_c, 0, 64, 71
1, 95112, Control_c, 0, 64, 72
1, 95131, Note_off_c, 0, 53, 61
1, 95152, Note_on_c, 0, 58, 72
1, 95187, Control_c, 0, 64, 72
1, 95217, Control_c, 0, 64, 71
1, 95234, Note_on_c, 0, 51, 67
1, 95245, Note_on_c, 0, 57, 79
1, 95246, Control_c, 0, 64, 71
1, 95258, Note_off_c, 0, 58, 59
1, 95276, Control_c, 0, 64, 70
1, 95290, Control_c, 0, 64, 70
1, 95309, Note_off_c, 0, 51, 63
1, 95320, Control_c, 0, 64, 69
1, 95322, Note_on_c, 0, 58, 76
1, 95334, Note_on_c, 0, 50, 64
1, 95335, Control_c, 0, 64, 69
1, 95338, Note_off_c, 0, 57, 56
1, 95350, Control_c, 0, 64, 68
1, 95364, Control_c, 0, 64, 68
1, 95408, Note_off_c, 0, 50, 63
1, 95408, Note_on_c, 0, 48, 72
1, 95408, Control_c, 0, 64, 67
1, 95415, Note_on_c, 0, 60, 79
1, 95442, Note_off_c, 0, 58, 63
1, 95484, Control_c, 0, 64, 67
1, 95498, Note_on_c, 0, 62, 81
1, 95499, Control_c, 0, 64, 66
1, 95501, Note_on_c, 0, 46, 71
1, 95501, Note_off_c, 0, 48, 60
1, 95517, Note_off_c, 0, 60, 63
1, 95528, Control_c, 0, 64, 66
1, 95558, Control_c, 0, 64, 66
1, 95587, Control_c, 0, 67, 28
1, 95590, Note_on_c, 0, 41, 54
1, 95592, Note_on_c, 0, 63, 77
1, 95594, Note_on_c, 0, 45, 68
1, 95617, Control_c, 0, 64, 65
1, 95622, Note_off_c, 0, 62, 62
1, 95634, Note_off_c, 0, 46, 62
1, 95647, Control_c, 0, 64, 65
1, 95656, Note_off_c, 0, 45, 65
1, 95665, Note_off_c, 0, 41, 62
1, 95674, Note_off_c, 0, 63, 63
1, 95674, Note_on_c, 0, 60, 80
1, 95681, Note_on_c, 0, 48, 72
1, 95692, Control_c, 0, 64, 64
1, 95721, Control_c, 0, 64, 63
1, 95736, Control_c, 0, 64, 61
1, 95738, Note_off_c, 0, 48, 61
1, 95751, Control_c, 0, 64, 58
1, 95766, Control_c, 0, 64, 50
1, 95766, Control_c, 0, 67, 27
1, 95784, Note_on_c, 0, 46, 73
1, 95785, Note_on_c, 0, 70, 85
1, 95787, Control_c, 0, 64, 26
1, 95802, Control_c, 0, 64, 0
1, 95806, Note_off_c, 0, 60, 62
1, 95888, Note_on_c, 0, 66, 89
1, 95935, Control_c, 0, 64, 42
1, 95950, Control_c, 0, 64, 59
1, 95965, Control_c, 0, 64, 65
1, 95973, Note_on_c, 0, 62, 88
1, 95979, Control_c, 0, 64, 69
1, 95994, Control_c, 0, 64, 72
1, 96009, Control_c, 0, 64, 75
1, 96023, Control_c, 0, 64, 77
1, 96034, Note_off_c, 0, 66, 60
1, 96038, Control_c, 0, 64, 78
1, 96046, Note_off_c, 0, 46, 62
1, 96067, Note_on_c, 0, 54, 85
1, 96108, Note_off_c, 0, 62, 58
1, 96127, Control_c, 0, 64, 77
1, 96142, Control_c, 0, 64, 76
1, 96153, Note_on_c, 0, 53, 87
1, 96157, Control_c, 0, 64, 75
1, 96172, Control_c, 0, 64, 75
1, 96178, Note_off_c, 0, 70, 21
1, 96189, Note_off_c, 0, 54, 60
1, 96201, Control_c, 0, 64, 74
1, 96201, Control_c, 0, 67, 27
1, 96216, Control_c, 0, 64, 74
1, 96231, Control_c, 0, 64, 72
1, 96246, Control_c, 0, 64, 71
1, 96252, Note_on_c, 0, 65, 76
1, 96262, Control_c, 0, 64, 70
1, 96271, Note_off_c, 0, 53, 64
1, 96291, Control_c, 0, 67, 26
1, 96306, Control_c, 0, 64, 69
1, 96306, Control_c, 0, 67, 26
1, 96321, Control_c, 0, 64, 67
1, 96335, Control_c, 0, 64, 57
1, 96336, Note_on_c, 0, 46, 81
1, 96338, Note_off_c, 0, 65, 62
1, 96343, Note_on_c, 0, 62, 78
1, 96350, Control_c, 0, 64, 0
1, 96395, Control_c, 0, 67, 25
1, 96425, Control_c, 0, 67, 25
1, 96427, Note_on_c, 0, 70, 80
1, 96431, Note_off_c, 0, 62, 62
1, 96431, Note_off_c, 0, 46, 62
1, 96454, Control_c, 0, 64, 47
1, 96469, Control_c, 0, 64, 61
1, 96484, Control_c, 0, 64, 66
1, 96484, Control_c, 0, 67, 24
1, 96499, Control_c, 0, 64, 69
1, 96508, Note_off_c, 0, 70, 63
1, 96514, Control_c, 0, 64, 71
1, 96514, Control_c, 0, 67, 24
1, 96529, Note_on_c, 0, 41, 77
1, 96530, Note_on_c, 0, 65, 84
1, 96535, Control_c, 0, 64, 73
1, 96550, Control_c, 0, 64, 73
1, 96556, Note_off_c, 0, 41, 65
1, 96565, Control_c, 0, 64, 73
1, 96580, Control_c, 0, 64, 72
1, 96595, Control_c, 0, 64, 72
1, 96600, Note_off_c, 0, 65, 62
1, 96610, Control_c, 0, 64, 71
1, 96619, Note_on_c, 0, 70, 83
1, 96625, Control_c, 0, 64, 70
1, 96639, Control_c, 0, 64, 69
1, 96654, Control_c, 0, 64, 68
1, 96669, Control_c, 0, 64, 67
1, 96669, Control_c, 0, 67, 24
1, 96684, Control_c, 0, 64, 65
1, 96699, Control_c, 0, 64, 64
1, 96701, Note_on_c, 0, 63, 73
1, 96708, Note_on_c, 0, 69, 87
1, 96714, Control_c, 0, 64, 63
1, 96722, Note_off_c, 0, 70, 62
1, 96728, Control_c, 0, 64, 62
1, 96743, Control_c, 0, 64, 57
1, 96758, Control_c, 0, 64, 44
1, 96758, Control_c, 0, 67, 25
1, 96773, Control_c, 0, 64, 0
1, 96777, Note_off_c, 0, 63, 61
1, 96786, Note_on_c, 0, 70, 87
1, 96793, Note_on_c, 0, 62, 69
1, 96809, Note_off_c, 0, 69, 61
1, 96832, Control_c, 0, 67, 24
1, 96863, Note_on_c, 0, 60, 71
1, 96872, Note_off_c, 0, 62, 60
1, 96883, Note_on_c, 0, 72, 90
1, 96929, Note_off_c, 0, 70, 62
1, 96935, Control_c, 0, 67, 25
1, 96948, Note_on_c, 0, 58, 78
1, 96950, Control_c, 0, 67, 26
1, 96960, Note_off_c, 0, 60, 55
1, 96965, Control_c, 0, 67, 27
1, 96968, Note_on_c, 0, 74, 87
1, 96980, Control_c, 0, 67, 27
1, 96995, Control_c, 0, 67, 28
1, 97000, Note_off_c, 0, 72, 63
1, 97009, Control_c, 0, 67, 30
1, 97024, Control_c, 0, 67, 33
1, 97036, Note_off_c, 0, 58, 63
1, 97039, Control_c, 0, 67, 40
1, 97048, Note_on_c, 0, 57, 67
1, 97055, Control_c, 0, 67, 47
1, 97063, Note_on_c, 0, 75, 86
1, 97070, Control_c, 0, 67, 54
1, 97077, Note_on_c, 0, 53, 53
1, 97077, Note_off_c, 0, 74, 64
1, 97084, Control_c, 0, 67, 63
1, 97099, Control_c, 0, 67, 72
1, 97114, Control_c, 0, 67, 81
1, 97129, Control_c, 0, 67, 85
1, 97144, Control_c, 0, 64, 63
1, 97144, Control_c, 0, 67, 86
1, 97149, Note_off_c, 0, 57, 57
1, 97158, Control_c, 0, 64, 69
1, 97158, Control_c, 0, 67, 87
1, 97159, Note_on_c, 0, 72, 69
1, 97165, Note_on_c, 0, 60, 61
1, 97173, Control_c, 0, 64, 75
1, 97173, Control_c, 0, 67, 88
1, 97187, Note_off_c, 0, 75, 62
1, 97188, Control_c, 0, 64, 81
1, 97188, Control_c, 0, 67, 89
1, 97194, Note_off_c, 0, 53, 61
1, 97195, Note_off_c, 0, 72, 66
1, 97203, Control_c, 0, 64, 83
1, 97203, Control_c, 0, 67, 90
1, 97218, Control_c, 0, 67, 92
1, 97225, Note_off_c, 0, 60, 64
1, 97233, Control_c, 0, 67, 92
1, 97248, Control_c, 0, 67, 93
1, 97262, Control_c, 0, 64, 83
1, 97262, Control_c, 0, 67, 95
1, 97284, Control_c, 0, 64, 81
1, 97284, Control_c, 0, 67, 99
1, 97299, Control_c, 0, 64, 77
1, 97299, Control_c, 0, 67, 104
1, 97314, Control_c, 0, 64, 72
1, 97314, Control_c, 0, 67, 110
1, 97329, Control_c, 0, 64, 66
1, 97329, Control_c, 0, 67, 113
1, 97344, Control_c, 0, 64, 61
1, 97344, Control_c, 0, 67, 117
1, 97358, Control_c, 0, 64, 43
1, 97358, Control_c, 0, 67, 122
1, 97373, Control_c, 0, 64, 0
1, 97373, Control_c, 0, 67, 125
1, 97388, Control_c, 0, 67, 126
1, 97403, Control_c, 0, 67, 127
1, 97418, Control_c, 0, 67, 127
1, 97460, Note_on_c, 0, 62, 44
1, 97460, Note_on_c, 0, 74, 55
1, 97489, Note_on_c, 0, 58, 26
1, 97558, Note_on_c, 0, 72, 59
1, 97635, Note_off_c, 0, 74, 46
1, 97653, Note_on_c, 0, 70, 59
1, 97699, Note_off_c, 0, 72, 48
1, 97716, Note_off_c, 0, 58, 48
1, 97723, Note_off_c, 0, 62, 42
1, 97763, Note_on_c, 0, 60, 47
1, 97849, Note_on_c, 0, 58, 45
1, 97864, Note_off_c, 0, 60, 55
1, 97942, Note_on_c, 0, 67, 55
1, 97944, Note_off_c, 0, 70, 62
1, 98014, Note_off_c, 0, 67, 62
1, 98043, Note_on_c, 0, 65, 50
1, 98089, Note_off_c, 0, 58, 61
1, 98127, Note_on_c, 0, 55, 47
1, 98223, Note_off_c, 0, 55, 58
1, 98240, Note_on_c, 0, 53, 36
1, 98286, Control_c, 0, 64, 19
1, 98296, Note_off_c, 0, 65, 58
1, 98315, Control_c, 0, 64, 0
1, 98318, Note_on_c, 0, 63, 55
1, 98421, Note_on_c, 0, 62, 46
1, 98435, Note_off_c, 0, 63, 51
1, 98455, Note_off_c, 0, 53, 54
1, 98481, Note_on_c, 0, 51, 44
1, 98593, Note_off_c, 0, 51, 50
1, 98598, Note_on_c, 0, 50, 43
1, 98653, Note_off_c, 0, 62, 61
1, 98672, Control_c, 0, 64, 33
1, 98685, Note_on_c, 0, 60, 52
1, 98687, Control_c, 0, 64, 54
1, 98702, Control_c, 0, 64, 61
1, 98716, Control_c, 0, 64, 64
1, 98731, Control_c, 0, 64, 65
1, 98746, Control_c, 0, 64, 66
1, 98761, Control_c, 0, 64, 66
1, 98784, Note_off_c, 0, 60, 60
1, 98788, Note_on_c, 0, 58, 54
1, 98831, Note_off_c, 0, 50, 64
1, 98842, Control_c, 0, 64, 65
1, 98857, Control_c, 0, 64, 65
1, 98887, Control_c, 0, 64, 64
1, 98901, Note_on_c, 0, 48, 46
1, 98902, Control_c, 0, 64, 64
1, 98917, Control_c, 0, 64, 63
1, 98946, Control_c, 0, 64, 63
1, 98961, Control_c, 0, 64, 62
1, 98979, Note_off_c, 0, 48, 56
1, 98991, Control_c, 0, 64, 62
1, 99000, Note_on_c, 0, 46, 39
1, 99005, Control_c, 0, 64, 61
1, 99020, Control_c, 0, 64, 61
1, 99050, Control_c, 0, 64, 60
1, 99067, Note_off_c, 0, 58, 61
1, 99078, Note_on_c, 0, 55, 47
1, 99123, Control_c, 0, 64, 60
1, 99138, Control_c, 0, 64, 59
1, 99169, Note_off_c, 0, 55, 62
1, 99192, Note_on_c, 0, 53, 48
1, 99247, Note_off_c, 0, 46, 56
1, 99289, Note_on_c, 0, 43, 46
1, 99374, Note_off_c, 0, 43, 58
1, 99395, Note_on_c, 0, 41, 38
1, 99405, Control_c, 0, 64, 60
1, 99444, Note_off_c, 0, 53, 62
1, 99475, Note_on_c, 0, 51, 50
1, 99480, Control_c, 0, 64, 60
1, 99532, Control_c, 0, 64, 59
1, 99561, Control_c, 0, 64, 59
1, 99582, Note_on_c, 0, 50, 45
1, 99591, Control_c, 0, 64, 58
1, 99606, Control_c, 0, 64, 57
1, 99616, Note_off_c, 0, 51, 38
1, 99620, Note_off_c, 0, 41, 43
1, 99621, Control_c, 0, 64, 53
1, 99635, Control_c, 0, 64, 49
1, 99637, Note_on_c, 0, 39, 40
1, 99650, Control_c, 0, 64, 49
1, 99679, Control_c, 0, 64, 47
1, 99694, Control_c, 0, 64, 35
1, 99709, Control_c, 0, 64, 0
1, 99742, Note_off_c, 0, 39, 42
1, 99757, Note_on_c, 0, 38, 38
1, 99817, Note_off_c, 0, 50, 65
1, 99842, Control_c, 0, 64, 45
1, 99856, Note_on_c, 0, 48, 48
1, 99857, Control_c, 0, 64, 58
1, 99871, Control_c, 0, 64, 64
1, 99886, Control_c, 0, 64, 67
1, 99901, Control_c, 0, 64, 68
1, 99916, Control_c, 0, 64, 68
1, 99930, Note_off_c, 0, 38, 49
1, 99945, Note_off_c, 0, 48, 59
1, 99956, Note_on_c, 0, 46, 44
1, 100005, Control_c, 0, 64, 68
1, 100014, Note_on_c, 0, 36, 46
1, 100020, Control_c, 0, 64, 67
1, 100035, Control_c, 0, 64, 67
1, 100050, Control_c, 0, 64, 65
1, 100059, Note_off_c, 0, 46, 0
1, 100059, Note_on_c, 0, 46, 8
1, 100065, Control_c, 0, 64, 63
1, 100079, Control_c, 0, 64, 60
1, 100091, Note_off_c, 0, 36, 55
1, 100094, Control_c, 0, 64, 47
1, 100109, Control_c, 0, 64, 19
1, 100124, Note_on_c, 0, 34, 46
1, 100124, Control_c, 0, 64, 0
1, 100139, Control_c, 0, 64, 29
1, 100153, Control_c, 0, 64, 48
1, 100168, Control_c, 0, 64, 58
1, 100169, Note_off_c, 0, 34, 61
1, 100183, Control_c, 0, 64, 63
1, 100197, Control_c, 0, 64, 66
1, 100212, Control_c, 0, 64, 70
1, 100225, Note_off_c, 0, 46, 51
1, 100227, Control_c, 0, 64, 73
1, 100231, Note_on_c, 0, 48, 50
1, 100243, Control_c, 0, 64, 75
1, 100258, Control_c, 0, 64, 77
1, 100280, Control_c, 0, 64, 78
1, 100324, Control_c, 0, 64, 79
1, 100328, Note_off_c, 0, 48, 49
1, 100339, Control_c, 0, 64, 79
1, 100345, Note_on_c, 0, 46, 47
1, 100400, Note_off_c, 0, 46, 56
1, 100451, Note_on_c, 0, 65, 56
1, 100452, Note_on_c, 0, 68, 58
1, 100473, Control_c, 0, 64, 79
1, 100486, Note_off_c, 0, 65, 62
1, 100488, Control_c, 0, 64, 77
1, 100489, Note_off_c, 0, 68, 60
1, 100502, Control_c, 0, 64, 76
1, 100517, Control_c, 0, 64, 74
1, 100532, Control_c, 0, 64, 73
1, 100547, Note_on_c, 0, 68, 48
1, 100547, Control_c, 0, 64, 72
1, 100559, Note_on_c, 0, 65, 49
1, 100562, Control_c, 0, 64, 70
1, 100576, Control_c, 0, 64, 67
1, 100591, Control_c, 0, 64, 64
1, 100606, Control_c, 0, 64, 59
1, 100620, Control_c, 0, 64, 53
1, 100635, Control_c, 0, 64, 47
1, 100650, Control_c, 0, 64, 28
1, 100665, Control_c, 0, 64, 0
1, 101371, Note_on_c, 0, 63, 44
1, 101376, Note_on_c, 0, 67, 39
1, 101412, Note_off_c, 0, 68, 55
1, 101416, Note_off_c, 0, 65, 37
1, 101635, Control_c, 0, 64, 27
1, 101650, Control_c, 0, 64, 47
1, 101665, Control_c, 0, 64, 57
1, 101680, Control_c, 0, 64, 62
1, 101680, Control_c, 0, 67, 126
1, 101695, Control_c, 0, 64, 65
1, 101695, Control_c, 0, 67, 124
1, 101710, Control_c, 0, 64, 68
1, 101710, Control_c, 0, 67, 121
1, 101724, Control_c, 0, 64, 71
1, 101724, Control_c, 0, 67, 116
1, 101739, Control_c, 0, 64, 74
1, 101739, Control_c, 0, 67, 111
1, 101754, Control_c, 0, 64, 77
1, 101754, Control_c, 0, 67, 106
1, 101776, Control_c, 0, 64, 80
1, 101776, Control_c, 0, 67, 100
1, 101790, Control_c, 0, 64, 84
1, 101790, Control_c, 0, 67, 92
1, 101805, Control_c, 0, 64, 88
1, 101805, Control_c, 0, 67, 80
1, 101820, Control_c, 0, 64, 92
1, 101820, Control_c, 0, 67, 68
1, 101835, Control_c, 0, 64, 96
1, 101835, Control_c, 0, 67, 58
1, 101851, Control_c, 0, 64, 100
1, 101851, Control_c, 0, 67, 50
1, 101866, Control_c, 0, 64, 103
1, 101866, Control_c, 0, 67, 44
1, 101880, Control_c, 0, 64, 107
1, 101880, Control_c, 0, 67, 39
1, 101895, Control_c, 0, 64, 112
1, 101895, Control_c, 0, 67, 34
1, 101910, Control_c, 0, 64, 117
1, 101910, Control_c, 0, 67, 28
1, 101925, Control_c, 0, 64, 122
1, 101925, Control_c, 0, 67, 22
1, 101940, Control_c, 0, 64, 126
1, 101940, Control_c, 0, 67, 15
1, 101954, Control_c, 0, 64, 127
1, 101954, Control_c, 0, 67, 0
1, 102162, Control_c, 0, 64, 119
1, 102172, Note_on_c, 0, 77, 59
1, 102177, Note_on_c, 0, 70, 52
1, 102177, Control_c, 0, 64, 113
1, 102187, Note_off_c, 0, 67, 32
1, 102191, Note_on_c, 0, 65, 41
1, 102191, Control_c, 0, 64, 108
1, 102194, Note_on_c, 0, 62, 43
1, 102206, Control_c, 0, 64, 104
1, 102221, Control_c, 0, 64, 102
1, 102236, Control_c, 0, 64, 99
1, 102249, Note_off_c, 0, 63, 35
1, 102251, Control_c, 0, 64, 95
1, 102265, Control_c, 0, 64, 90
1, 102280, Control_c, 0, 64, 85
1, 102295, Control_c, 0, 64, 79
1, 102310, Control_c, 0, 64, 74
1, 102325, Control_c, 0, 64, 68
1, 102339, Control_c, 0, 64, 63
1, 102354, Control_c, 0, 64, 58
1, 102369, Control_c, 0, 64, 52
1, 102384, Control_c, 0, 64, 47
1, 102399, Control_c, 0, 64, 43
1, 102413, Control_c, 0, 64, 43
1, 102428, Control_c, 0, 64, 49
1, 102443, Control_c, 0, 64, 57
1, 102458, Control_c, 0, 64, 62
1, 102473, Control_c, 0, 64, 64
1, 102488, Control_c, 0, 64, 66
1, 102503, Control_c, 0, 64, 69
1, 102525, Control_c, 0, 64, 73
1, 102540, Control_c, 0, 64, 77
1, 102554, Control_c, 0, 64, 81
1, 102569, Control_c, 0, 64, 85
1, 102584, Control_c, 0, 64, 88
1, 102598, Control_c, 0, 64, 91
1, 102613, Control_c, 0, 64, 95
1, 102628, Control_c, 0, 64, 98
1, 102644, Control_c, 0, 64, 103
1, 102659, Control_c, 0, 64, 110
1, 102674, Control_c, 0, 64, 119
1, 102689, Control_c, 0, 64, 127
1, 102774, Note_off_c, 0, 70, 35
1, 102963, Note_on_c, 0, 79, 80
1, 102970, Control_c, 0, 64, 124
1, 102972, Note_on_c, 0, 70, 63
1, 102980, Note_on_c, 0, 61, 60
1, 102982, Note_on_c, 0, 63, 55
1, 102985, Control_c, 0, 64, 112
1, 103000, Control_c, 0, 64, 103
1, 103014, Control_c, 0, 64, 97
1, 103016, Note_off_c, 0, 62, 60
1, 103019, Note_off_c, 0, 65, 56
1, 103029, Control_c, 0, 64, 91
1, 103036, Note_off_c, 0, 77, 51
1, 103044, Control_c, 0, 64, 86
1, 103059, Control_c, 0, 64, 80
1, 103074, Control_c, 0, 64, 73
1, 103088, Control_c, 0, 64, 65
1, 103103, Control_c, 0, 64, 59
1, 103118, Control_c, 0, 64, 54
1, 103133, Control_c, 0, 64, 49
1, 103148, Control_c, 0, 64, 45
1, 103162, Control_c, 0, 64, 46
1, 103177, Control_c, 0, 64, 56
1, 103192, Control_c, 0, 64, 62
1, 103207, Control_c, 0, 64, 65
1, 103221, Control_c, 0, 64, 68
1, 103236, Control_c, 0, 64, 71
1, 103251, Control_c, 0, 64, 74
1, 103274, Control_c, 0, 64, 79
1, 103289, Control_c, 0, 64, 87
1, 103303, Control_c, 0, 64, 93
1, 103318, Control_c, 0, 64, 98
1, 103333, Control_c, 0, 64, 103
1, 103348, Control_c, 0, 64, 112
1, 103363, Control_c, 0, 64, 127
1, 103457, Note_off_c, 0, 79, 61
1, 103471, Note_off_c, 0, 70, 63
1, 103524, Note_off_c, 0, 61, 63
1, 103528, Note_off_c, 0, 63, 61
1, 103773, Note_on_c, 0, 80, 95
1, 103774, Note_on_c, 0, 68, 98
1, 103779, Control_c, 0, 64, 117
1, 103779, Note_on_c, 0, 63, 87
1, 103781, Note_on_c, 0, 60, 89
1, 103793, Control_c, 0, 64, 91
1, 103808, Control_c, 0, 64, 73
1, 103823, Control_c, 0, 64, 44
1, 103837, Control_c, 0, 64, 0
1, 103911, Control_c, 0, 64, 14
1, 103926, Control_c, 0, 64, 56
1, 103941, Control_c, 0, 64, 67
1, 103956, Control_c, 0, 64, 74
1, 103970, Control_c, 0, 64, 83
1, 103985, Control_c, 0, 64, 93
1, 104000, Control_c, 0, 64, 105
1, 104023, Control_c, 0, 64, 127
1, 104056, Note_off_c, 0, 80, 59
1, 104066, Note_off_c, 0, 68, 60
1, 104083, Note_off_c, 0, 60, 64
1, 104101, Note_off_c, 0, 63, 50
1, 104275, Control_c, 0, 64, 101
1, 104290, Control_c, 0, 64, 84
1, 104305, Control_c, 0, 64, 68
1, 104320, Control_c, 0, 64, 0
1, 104337, Note_on_c, 0, 62, 64
1, 104339, Note_on_c, 0, 67, 79
1, 104339, Note_on_c, 0, 59, 70
1, 104341, Note_on_c, 0, 74, 82
1, 104367, Note_off_c, 0, 67, 62
1, 104370, Note_off_c, 0, 62, 63
1, 104372, Note_off_c, 0, 74, 64
1, 104375, Note_off_c, 0, 59, 59
1, 104420, Note_on_c, 0, 58, 69
1, 104424, Note_on_c, 0, 61, 74
1, 104427, Note_on_c, 0, 67, 79
1, 104428, Note_on_c, 0, 79, 90
1, 104453, Note_off_c, 0, 61, 65
1, 104456, Note_off_c, 0, 58, 61
1, 104461, Note_off_c, 0, 67, 63
1, 104466, Note_off_c, 0, 79, 63
1, 104497, Control_c, 0, 64, 44
1, 104512, Control_c, 0, 64, 70
1, 104518, Note_on_c, 0, 67, 87
1, 104518, Note_on_c, 0, 79, 99
1, 104521, Note_on_c, 0, 58, 76
1, 104523, Note_on_c, 0, 61, 88
1, 104527, Control_c, 0, 64, 87
1, 104542, Control_c, 0, 64, 127
1, 104548, Note_off_c, 0, 67, 64
1, 104548, Note_off_c, 0, 79, 65
1, 104566, Note_off_c, 0, 61, 63
1, 104572, Note_off_c, 0, 58, 64
1, 104705, Control_c, 0, 64, 99
1, 104710, Note_on_c, 0, 60, 84
1, 104715, Note_on_c, 0, 57, 77
1, 104715, Note_on_c, 0, 65, 91
1, 104720, Note_on_c, 0, 72, 88
1, 104720, Control_c, 0, 64, 80
1, 104734, Control_c, 0, 64, 63
1, 104749, Control_c, 0, 64, 0
1, 104777, Note_off_c, 0, 60, 61
1, 104793, Note_off_c, 0, 72, 0
1, 104809, Note_off_c, 0, 57, 58
1, 104813, Note_on_c, 0, 56, 75
1, 104814, Note_on_c, 0, 77, 86
1, 104819, Note_on_c, 0, 59, 70
1, 104825, Poly_aftertouch_c, 0, 72, 0
1, 104836, Note_off_c, 0, 65, 65
1, 104843, Note_off_c, 0, 56, 66
1, 104846, Note_off_c, 0, 59, 64
1, 104849, Note_on_c, 0, 76, 39
1, 104850, Note_off_c, 0, 76, 127
1, 104850, Note_off_c, 0, 77, 62
1, 104890, Control_c, 0, 64, 45
1, 104902, Note_on_c, 0, 65, 98
1, 104903, Note_on_c, 0, 77, 89
1, 104905, Control_c, 0, 64, 67
1, 104914, Note_on_c, 0, 56, 89
1, 104916, Note_on_c, 0, 59, 85
1, 104920, Control_c, 0, 64, 82
1, 104932, Note_off_c, 0, 77, 64
1, 104935, Note_off_c, 0, 65, 68
1, 104935, Control_c, 0, 64, 127
1, 104941, Note_off_c, 0, 59, 63
1, 104957, Note_off_c, 0, 56, 64
1, 105086, Note_on_c, 0, 58, 80
1, 105099, Control_c, 0, 64, 95
1, 105099, Note_on_c, 0, 70, 93
1, 105100, Note_on_c, 0, 55, 68
1, 105105, Note_on_c, 0, 63, 78
1, 105114, Control_c, 0, 64, 70
1, 105129, Control_c, 0, 64, 0
1, 105162, Note_on_c, 0, 57, 68
1, 105170, Note_off_c, 0, 55, 60
1, 105180, Note_on_c, 0, 54, 67
1, 105180, Note_on_c, 0, 75, 87
1, 105201, Note_off_c, 0, 58, 60
1, 105205, Note_off_c, 0, 63, 58
1, 105208, Note_off_c, 0, 57, 62
1, 105216, Note_off_c, 0, 70, 63
1, 105220, Note_off_c, 0, 54, 65
1, 105237, Note_off_c, 0, 75, 64
1, 105301, Note_on_c, 0, 75, 84
1, 105311, Note_on_c, 0, 70, 78
1, 105313, Note_on_c, 0, 63, 59
1, 105321, Note_on_c, 0, 56, 74
1, 105323, Note_on_c, 0, 68, 70
1, 105329, Note_on_c, 0, 53, 63
1, 105454, Control_c, 0, 64, 58
1, 105469, Control_c, 0, 64, 66
1, 105484, Control_c, 0, 64, 73
1, 105499, Control_c, 0, 64, 82
1, 105521, Control_c, 0, 64, 92
1, 105536, Control_c, 0, 64, 101
1, 105551, Control_c, 0, 64, 113
1, 105565, Control_c, 0, 64, 127
1, 105615, Note_off_c, 0, 75, 56
1, 105627, Note_off_c, 0, 53, 65
1, 105630, Note_off_c, 0, 68, 52
1, 105637, Note_off_c, 0, 56, 38
1, 105654, Note_off_c, 0, 63, 41
1, 105745, Note_on_c, 0, 74, 75
1, 105759, Note_off_c, 0, 70, 56
1, 105769, Note_on_c, 0, 62, 40
1, 105800, Note_off_c, 0, 62, 53
1, 105805, Note_off_c, 0, 74, 60
1, 105847, Control_c, 0, 64, 126
1, 105862, Control_c, 0, 64, 123
1, 105877, Control_c, 0, 64, 120
1, 105892, Control_c, 0, 64, 113
1, 105907, Control_c, 0, 64, 98
1, 105922, Control_c, 0, 64, 81
1, 105934, Note_on_c, 0, 75, 64
1, 105937, Control_c, 0, 64, 64
1, 105946, Note_on_c, 0, 55, 46
1, 105949, Note_on_c, 0, 70, 51
1, 105952, Note_on_c, 0, 51, 49
1, 105952, Control_c, 0, 64, 0
1, 105956, Note_on_c, 0, 63, 37
1, 106008, Note_off_c, 0, 63, 56
1, 106026, Control_c, 0, 64, 51
1, 106040, Control_c, 0, 64, 66
1, 106041, Note_off_c, 0, 70, 60
1, 106053, Note_off_c, 0, 75, 61
1, 106055, Control_c, 0, 64, 75
1, 106070, Control_c, 0, 64, 84
1, 106085, Control_c, 0, 64, 91
1, 106100, Control_c, 0, 64, 95
1, 106114, Control_c, 0, 64, 99
1, 106121, Note_off_c, 0, 51, 56
1, 106124, Note_on_c, 0, 53, 57
1, 106129, Control_c, 0, 64, 103
1, 106132, Note_on_c, 0, 77, 76
1, 106137, Note_on_c, 0, 50, 56
1, 106144, Note_on_c, 0, 65, 49
1, 106144, Control_c, 0, 64, 107
1, 106146, Note_on_c, 0, 70, 58
1, 106159, Control_c, 0, 64, 113
1, 106163, Note_off_c, 0, 53, 66
1, 106171, Note_off_c, 0, 50, 67
1, 106172, Note_off_c, 0, 55, 39
1, 106174, Control_c, 0, 64, 116
1, 106190, Note_off_c, 0, 65, 48
1, 106211, Note_off_c, 0, 70, 55
1, 106222, Note_off_c, 0, 77, 61
1, 106247, Control_c, 0, 64, 115
1, 106270, Control_c, 0, 64, 104
1, 106285, Control_c, 0, 64, 91
1, 106300, Control_c, 0, 64, 79
1, 106314, Control_c, 0, 64, 69
1, 106320, Note_on_c, 0, 51, 51
1, 106320, Note_on_c, 0, 79, 80
1, 106329, Control_c, 0, 64, 60
1, 106330, Note_on_c, 0, 48, 57
1, 106330, Note_on_c, 0, 70, 67
1, 106339, Note_on_c, 0, 67, 61
1, 106344, Control_c, 0, 64, 50
1, 106359, Control_c, 0, 64, 59
1, 106373, Control_c, 0, 64, 66
1, 106388, Control_c, 0, 64, 72
1, 106403, Control_c, 0, 64, 80
1, 106405, Note_off_c, 0, 51, 60
1, 106408, Note_off_c, 0, 79, 63
1, 106414, Note_off_c, 0, 67, 54
1, 106417, Control_c, 0, 64, 93
1, 106432, Control_c, 0, 64, 106
1, 106433, Note_off_c, 0, 48, 60
1, 106440, Note_off_c, 0, 70, 60
1, 106447, Control_c, 0, 64, 114
1, 106462, Control_c, 0, 64, 111
1, 106476, Control_c, 0, 64, 93
1, 106491, Control_c, 0, 64, 75
1, 106506, Control_c, 0, 64, 41
1, 106511, Note_on_c, 0, 80, 85
1, 106516, Note_on_c, 0, 70, 62
1, 106517, Note_on_c, 0, 46, 59
1, 106520, Note_on_c, 0, 53, 55
1, 106521, Control_c, 0, 64, 0
1, 106521, Note_on_c, 0, 50, 50
1, 106536, Note_on_c, 0, 68, 60
1, 106551, Control_c, 0, 64, 62
1, 106565, Control_c, 0, 64, 70
1, 106580, Control_c, 0, 64, 80
1, 106589, Note_off_c, 0, 70, 60
1, 106590, Note_off_c, 0, 68, 52
1, 106595, Control_c, 0, 64, 99
1, 106598, Note_off_c, 0, 53, 61
1, 106602, Note_off_c, 0, 46, 56
1, 106610, Control_c, 0, 64, 127
1, 106619, Note_off_c, 0, 50, 38
1, 106623, Note_off_c, 0, 80, 63
1, 106670, Control_c, 0, 64, 91
1, 106685, Control_c, 0, 64, 76
1, 106700, Control_c, 0, 64, 71
1, 106704, Note_on_c, 0, 82, 90
1, 106712, Note_on_c, 0, 50, 49
1, 106712, Note_on_c, 0, 70, 75
1, 106714, Note_on_c, 0, 53, 61
1, 106715, Control_c, 0, 64, 77
1, 106724, Note_on_c, 0, 46, 64
1, 106730, Control_c, 0, 64, 88
1, 106744, Control_c, 0, 64, 103
1, 106747, Note_off_c, 0, 53, 64
1, 106756, Note_off_c, 0, 50, 67
1, 106758, Note_off_c, 0, 70, 58
1, 106759, Control_c, 0, 64, 127
1, 106761, Note_off_c, 0, 82, 64
1, 106762, Note_off_c, 0, 46, 62
1, 106862, Control_c, 0, 64, 119
1, 106877, Control_c, 0, 64, 89
1, 106892, Control_c, 0, 64, 65
1, 106907, Note_on_c, 0, 70, 78
1, 106907, Note_on_c, 0, 79, 82
1, 106907, Control_c, 0, 64, 0
1, 106912, Note_on_c, 0, 39, 71
1, 106912, Note_on_c, 0, 67, 73
1, 106966, Control_c, 0, 64, 49
1, 106980, Control_c, 0, 64, 67
1, 106992, Note_off_c, 0, 67, 59
1, 106995, Control_c, 0, 64, 76
1, 107015, Note_off_c, 0, 79, 62
1, 107018, Control_c, 0, 64, 89
1, 107021, Note_off_c, 0, 39, 59
1, 107022, Note_on_c, 0, 46, 70
1, 107023, Note_off_c, 0, 70, 61
1, 107033, Control_c, 0, 64, 109
1, 107048, Control_c, 0, 64, 127
1, 107086, Note_off_c, 0, 46, 62
1, 107102, Note_on_c, 0, 55, 68
1, 107153, Note_off_c, 0, 55, 60
1, 107181, Note_on_c, 0, 46, 75
1, 107252, Note_off_c, 0, 46, 61
1, 107288, Note_on_c, 0, 82, 100
1, 107293, Note_on_c, 0, 39, 68
1, 107294, Note_on_c, 0, 70, 90
1, 107338, Note_off_c, 0, 70, 66
1, 107363, Note_off_c, 0, 82, 63
1, 107377, Note_off_c, 0, 39, 57
1, 107389, Note_on_c, 0, 46, 71
1, 107454, Note_off_c, 0, 46, 61
1, 107481, Note_on_c, 0, 55, 59
1, 107554, Note_off_c, 0, 55, 59
1, 107571, Note_on_c, 0, 46, 63
1, 107680, Note_off_c, 0, 46, 50
1, 107690, Note_on_c, 0, 94, 100
1, 107690, Note_on_c, 0, 82, 93
1, 107696, Note_on_c, 0, 41, 69
1, 107715, Control_c, 0, 64, 105
1, 107730, Control_c, 0, 64, 88
1, 107745, Control_c, 0, 64, 71
1, 107767, Control_c, 0, 64, 45
1, 107782, Control_c, 0, 64, 0
1, 107818, Note_off_c, 0, 41, 59
1, 107834, Note_on_c, 0, 46, 61
1, 107856, Control_c, 0, 64, 31
1, 107871, Control_c, 0, 64, 61
1, 107885, Control_c, 0, 64, 67
1, 107898, Note_off_c, 0, 46, 62
1, 107900, Control_c, 0, 64, 74
1, 107906, Note_on_c, 0, 56, 53
1, 107916, Control_c, 0, 64, 84
1, 107931, Control_c, 0, 64, 98
1, 107931, Note_off_c, 0, 94, 64
1, 107946, Control_c, 0, 64, 117
1, 107956, Note_off_c, 0, 82, 63
1, 107960, Control_c, 0, 64, 127
1, 107994, Note_on_c, 0, 46, 62
1, 107994, Note_off_c, 0, 56, 55
1, 108073, Note_off_c, 0, 46, 59
1, 108083, Note_on_c, 0, 41, 70
1, 108163, Note_off_c, 0, 41, 59
1, 108196, Note_on_c, 0, 46, 60
1, 108275, Note_off_c, 0, 46, 62
1, 108286, Note_on_c, 0, 82, 89
1, 108295, Note_on_c, 0, 56, 60
1, 108298, Note_on_c, 0, 70, 81
1, 108376, Control_c, 0, 64, 104
1, 108384, Note_off_c, 0, 56, 57
1, 108390, Control_c, 0, 64, 91
1, 108396, Note_on_c, 0, 46, 56
1, 108405, Control_c, 0, 64, 79
1, 108420, Control_c, 0, 64, 64
1, 108435, Control_c, 0, 64, 0
1, 108473, Note_off_c, 0, 46, 62
1, 108483, Note_on_c, 0, 43, 70
1, 108516, Control_c, 0, 64, 42
1, 108531, Control_c, 0, 64, 64
1, 108531, Control_c, 0, 67, 8
1, 108546, Control_c, 0, 64, 72
1, 108546, Control_c, 0, 67, 11
1, 108561, Control_c, 0, 64, 80
1, 108561, Control_c, 0, 67, 15
1, 108565, Note_off_c, 0, 43, 59
1, 108576, Control_c, 0, 64, 89
1, 108576, Control_c, 0, 67, 23
1, 108590, Control_c, 0, 64, 95
1, 108590, Control_c, 0, 67, 32
1, 108603, Note_on_c, 0, 46, 58
1, 108605, Control_c, 0, 64, 97
1, 108605, Control_c, 0, 67, 40
1, 108620, Control_c, 0, 64, 98
1, 108620, Control_c, 0, 67, 47
1, 108635, Control_c, 0, 67, 54
1, 108650, Control_c, 0, 67, 60
1, 108650, Note_off_c, 0, 46, 62
1, 108664, Control_c, 0, 67, 65
1, 108679, Control_c, 0, 67, 71
1, 108689, Note_on_c, 0, 58, 55
1, 108694, Control_c, 0, 67, 78
1, 108709, Control_c, 0, 67, 83
1, 108724, Control_c, 0, 64, 97
1, 108724, Control_c, 0, 67, 87
1, 108739, Control_c, 0, 67, 90
1, 108741, Note_off_c, 0, 82, 61
1, 108754, Control_c, 0, 67, 91
1, 108768, Control_c, 0, 67, 92
1, 108775, Note_on_c, 0, 46, 53
1, 108783, Control_c, 0, 67, 93
1, 108798, Control_c, 0, 64, 97
1, 108804, Note_off_c, 0, 58, 36
1, 108813, Control_c, 0, 64, 96
1, 108813, Control_c, 0, 67, 93
1, 108844, Note_off_c, 0, 46, 59
1, 108866, Note_on_c, 0, 43, 61
1, 108872, Control_c, 0, 64, 96
1, 108892, Note_off_c, 0, 70, 48
1, 108916, Control_c, 0, 67, 93
1, 108933, Note_off_c, 0, 43, 49
1, 108968, Note_on_c, 0, 46, 52
1, 109020, Control_c, 0, 67, 92
1, 109037, Note_off_c, 0, 46, 60
1, 109051, Control_c, 0, 67, 92
1, 109076, Note_on_c, 0, 79, 74
1, 109083, Note_on_c, 0, 58, 50
1, 109095, Control_c, 0, 67, 91
1, 109100, Note_on_c, 0, 67, 55
1, 109154, Control_c, 0, 64, 95
1, 109161, Note_on_c, 0, 46, 61
1, 109165, Note_off_c, 0, 58, 56
1, 109168, Note_off_c, 0, 67, 57
1, 109169, Note_off_c, 0, 79, 51
1, 109169, Control_c, 0, 67, 91
1, 109198, Control_c, 0, 67, 90
1, 109213, Control_c, 0, 64, 94
1, 109228, Control_c, 0, 64, 89
1, 109237, Note_off_c, 0, 46, 55
1, 109243, Control_c, 0, 64, 79
1, 109265, Control_c, 0, 64, 66
1, 109276, Note_on_c, 0, 44, 67
1, 109280, Control_c, 0, 64, 0
1, 109282, Note_on_c, 0, 77, 68
1, 109309, Note_on_c, 0, 65, 46
1, 109325, Control_c, 0, 67, 90
1, 109339, Control_c, 0, 64, 48
1, 109339, Control_c, 0, 67, 89
1, 109354, Note_off_c, 0, 44, 54
1, 109354, Control_c, 0, 64, 63
1, 109354, Control_c, 0, 67, 89
1, 109359, Note_off_c, 0, 77, 63
1, 109369, Control_c, 0, 64, 70
1, 109371, Note_on_c, 0, 46, 54
1, 109372, Note_off_c, 0, 65, 61
1, 109383, Control_c, 0, 64, 77
1, 109383, Control_c, 0, 67, 88
1, 109398, Control_c, 0, 64, 86
1, 109398, Control_c, 0, 67, 88
1, 109413, Control_c, 0, 64, 93
1, 109413, Control_c, 0, 67, 87
1, 109424, Note_off_c, 0, 46, 62
1, 109428, Control_c, 0, 64, 98
1, 109428, Control_c, 0, 67, 86
1, 109443, Control_c, 0, 64, 100
1, 109443, Control_c, 0, 67, 84
1, 109450, Note_on_c, 0, 56, 65
1, 109457, Control_c, 0, 64, 101
1, 109457, Control_c, 0, 67, 84
1, 109472, Note_on_c, 0, 74, 83
1, 109472, Control_c, 0, 64, 102
1, 109472, Control_c, 0, 67, 83
1, 109481, Note_on_c, 0, 62, 62
1, 109487, Control_c, 0, 64, 103
1, 109487, Control_c, 0, 67, 82
1, 109501, Note_off_c, 0, 56, 63
1, 109502, Control_c, 0, 64, 104
1, 109502, Control_c, 0, 67, 81
1, 109517, Control_c, 0, 64, 104
1, 109517, Control_c, 0, 67, 80
1, 109523, Note_on_c, 0, 46, 75
1, 109532, Control_c, 0, 67, 78
1, 109535, Note_off_c, 0, 74, 65
1, 109547, Control_c, 0, 67, 74
1, 109553, Note_off_c, 0, 46, 66
1, 109553, Note_off_c, 0, 62, 60
1, 109562, Control_c, 0, 67, 69
1, 109577, Control_c, 0, 67, 62
1, 109591, Control_c, 0, 64, 104
1, 109591, Control_c, 0, 67, 53
1, 109606, Control_c, 0, 64, 103
1, 109606, Control_c, 0, 67, 46
1, 109621, Control_c, 0, 64, 102
1, 109621, Control_c, 0, 67, 39
1, 109636, Control_c, 0, 64, 98
1, 109636, Control_c, 0, 67, 33
1, 109645, Note_on_c, 0, 34, 70
1, 109648, Note_on_c, 0, 71, 82
1, 109651, Control_c, 0, 64, 94
1, 109651, Control_c, 0, 67, 31
1, 109654, Note_on_c, 0, 59, 71
1, 109665, Control_c, 0, 64, 93
1, 109665, Control_c, 0, 67, 29
1, 109680, Control_c, 0, 67, 27
1, 109693, Note_off_c, 0, 34, 60
1, 109695, Control_c, 0, 67, 23
1, 109710, Control_c, 0, 67, 19
1, 109719, Note_off_c, 0, 59, 58
1, 109725, Control_c, 0, 67, 17
1, 109739, Control_c, 0, 64, 93
1, 109739, Control_c, 0, 67, 16
1, 109746, Note_on_c, 0, 46, 65
1, 109752, Note_off_c, 0, 71, 62
1, 109754, Control_c, 0, 67, 15
1, 109769, Control_c, 0, 67, 14
1, 109783, Control_c, 0, 67, 11
1, 109798, Control_c, 0, 67, 0
1, 109813, Control_c, 0, 64, 92
1, 109815, Note_off_c, 0, 46, 62
1, 109829, Control_c, 0, 64, 92
1, 109831, Note_on_c, 0, 53, 70
1, 109836, Note_on_c, 0, 70, 82
1, 109840, Note_on_c, 0, 58, 78
1, 109884, Note_off_c, 0, 53, 64
1, 109905, Note_off_c, 0, 58, 55
1, 109918, Control_c, 0, 64, 89
1, 109922, Note_on_c, 0, 46, 74
1, 109930, Note_off_c, 0, 70, 60
1, 109933, Control_c, 0, 64, 79
1, 109947, Control_c, 0, 64, 64
1, 109962, Control_c, 0, 64, 0
1, 110013, Note_off_c, 0, 46, 47
1, 110021, Note_on_c, 0, 39, 82
1, 110027, Note_on_c, 0, 70, 92
1, 110029, Note_on_c, 0, 58, 87
1, 110044, Control_c, 0, 64, 52
1, 110059, Control_c, 0, 64, 67
1, 110074, Control_c, 0, 64, 76
1, 110078, Note_off_c, 0, 58, 63
1, 110081, Note_off_c, 0, 70, 64
1, 110088, Control_c, 0, 64, 90
1, 110103, Control_c, 0, 64, 105
1, 110118, Control_c, 0, 64, 115
1, 110119, Note_on_c, 0, 46, 71
1, 110126, Note_off_c, 0, 39, 59
1, 110133, Control_c, 0, 64, 120
1, 110148, Control_c, 0, 64, 127
1, 110201, Note_off_c, 0, 46, 61
1, 110215, Note_on_c, 0, 55, 73
1, 110266, Note_off_c, 0, 55, 62
1, 110305, Note_on_c, 0, 46, 72
1, 110372, Note_off_c, 0, 46, 59
1, 110413, Note_on_c, 0, 82, 103
1, 110415, Note_on_c, 0, 39, 75
1, 110419, Note_on_c, 0, 70, 95
1, 110460, Note_off_c, 0, 70, 66
1, 110477, Note_off_c, 0, 82, 65
1, 110500, Note_off_c, 0, 39, 56
1, 110510, Note_on_c, 0, 46, 71
1, 110578, Note_off_c, 0, 46, 62
1, 110609, Note_on_c, 0, 55, 68
1, 110680, Note_off_c, 0, 55, 56
1, 110689, Note_on_c, 0, 46, 72
1, 110822, Control_c, 0, 64, 122
1, 110826, Note_off_c, 0, 46, 59
1, 110828, Note_on_c, 0, 41, 70
1, 110831, Note_on_c, 0, 94, 92
1, 110834, Note_on_c, 0, 82, 89
1, 110836, Control_c, 0, 64, 94
1, 110851, Control_c, 0, 64, 77
1, 110866, Control_c, 0, 64, 63
1, 110881, Control_c, 0, 64, 0
1, 110931, Note_off_c, 0, 41, 63
1, 110949, Note_on_c, 0, 46, 63
1, 110985, Control_c, 0, 64, 50
1, 111000, Control_c, 0, 64, 63
1, 111015, Control_c, 0, 64, 68
1, 111017, Note_off_c, 0, 46, 62
1, 111030, Control_c, 0, 64, 75
1, 111035, Note_on_c, 0, 56, 65
1, 111045, Control_c, 0, 64, 84
1, 111051, Note_off_c, 0, 94, 65
1, 111060, Control_c, 0, 64, 97
1, 111075, Control_c, 0, 64, 113
1, 111090, Control_c, 0, 64, 127
1, 111107, Note_off_c, 0, 82, 61
1, 111111, Note_off_c, 0, 56, 39
1, 111118, Note_on_c, 0, 46, 64
1, 111192, Note_off_c, 0, 46, 60
1, 111207, Note_on_c, 0, 41, 70
1, 111279, Note_off_c, 0, 41, 59
1, 111323, Note_on_c, 0, 46, 60
1, 111383, Note_off_c, 0, 46, 60
1, 111401, Note_on_c, 0, 82, 92
1, 111407, Note_on_c, 0, 70, 83
1, 111412, Note_on_c, 0, 56, 63
1, 111490, Note_off_c, 0, 56, 55
1, 111517, Note_on_c, 0, 46, 63
1, 111542, Control_c, 0, 64, 113
1, 111557, Control_c, 0, 64, 89
1, 111572, Control_c, 0, 64, 72
1, 111586, Control_c, 0, 64, 36
1, 111601, Note_off_c, 0, 46, 61
1, 111601, Control_c, 0, 64, 0
1, 111604, Note_on_c, 0, 43, 71
1, 111646, Control_c, 0, 67, 9
1, 111660, Control_c, 0, 64, 11
1, 111660, Control_c, 0, 67, 14
1, 111675, Control_c, 0, 64, 57
1, 111675, Control_c, 0, 67, 21
1, 111689, Note_off_c, 0, 43, 61
1, 111690, Control_c, 0, 64, 66
1, 111690, Control_c, 0, 67, 31
1, 111705, Control_c, 0, 64, 72
1, 111705, Control_c, 0, 67, 39
1, 111714, Note_on_c, 0, 51, 63
1, 111720, Control_c, 0, 64, 78
1, 111720, Control_c, 0, 67, 48
1, 111735, Control_c, 0, 64, 84
1, 111735, Control_c, 0, 67, 55
1, 111750, Control_c, 0, 64, 88
1, 111750, Control_c, 0, 67, 60
1, 111765, Control_c, 0, 64, 90
1, 111765, Control_c, 0, 67, 64
1, 111779, Control_c, 0, 64, 91
1, 111779, Control_c, 0, 67, 69
1, 111794, Note_off_c, 0, 51, 63
1, 111794, Control_c, 0, 64, 92
1, 111794, Control_c, 0, 67, 75
1, 111809, Control_c, 0, 64, 96
1, 111809, Control_c, 0, 67, 80
1, 111820, Note_on_c, 0, 58, 61
1, 111824, Control_c, 0, 64, 98
1, 111824, Control_c, 0, 67, 85
1, 111839, Control_c, 0, 67, 90
1, 111853, Control_c, 0, 67, 95
1, 111863, Note_off_c, 0, 82, 61
1, 111868, Control_c, 0, 67, 99
1, 111883, Control_c, 0, 67, 102
1, 111890, Note_off_c, 0, 58, 40
1, 111898, Control_c, 0, 67, 103
1, 111906, Note_on_c, 0, 51, 63
1, 111913, Control_c, 0, 67, 104
1, 111927, Control_c, 0, 64, 97
1, 111965, Note_off_c, 0, 51, 59
1, 111993, Note_on_c, 0, 43, 64
1, 111995, Note_off_c, 0, 70, 56
1, 112042, Note_off_c, 0, 43, 59
1, 112101, Note_on_c, 0, 51, 55
1, 112164, Control_c, 0, 64, 97
1, 112170, Note_off_c, 0, 51, 61
1, 112179, Control_c, 0, 64, 95
1, 112185, Note_on_c, 0, 58, 61
1, 112194, Control_c, 0, 64, 93
1, 112197, Note_on_c, 0, 79, 70
1, 112209, Control_c, 0, 64, 93
1, 112227, Note_on_c, 0, 67, 50
1, 112267, Note_off_c, 0, 58, 38
1, 112277, Control_c, 0, 64, 92
1, 112283, Note_off_c, 0, 79, 60
1, 112298, Note_off_c, 0, 67, 61
1, 112299, Note_on_c, 0, 51, 58
1, 112306, Control_c, 0, 64, 91
1, 112321, Control_c, 0, 64, 89
1, 112336, Control_c, 0, 64, 87
1, 112351, Control_c, 0, 64, 84
1, 112362, Note_off_c, 0, 51, 57
1, 112365, Control_c, 0, 64, 78
1, 112380, Control_c, 0, 64, 69
1, 112395, Control_c, 0, 64, 50
1, 112407, Note_on_c, 0, 76, 65
1, 112408, Note_on_c, 0, 44, 61
1, 112409, Control_c, 0, 64, 0
1, 112420, Note_on_c, 0, 64, 53
1, 112454, Control_c, 0, 64, 39
1, 112469, Control_c, 0, 64, 59
1, 112469, Control_c, 0, 67, 104
1, 112476, Note_off_c, 0, 64, 55
1, 112483, Control_c, 0, 64, 66
1, 112483, Control_c, 0, 67, 103
1, 112494, Note_off_c, 0, 44, 61
1, 112498, Control_c, 0, 64, 73
1, 112499, Note_off_c, 0, 76, 60
1, 112503, Note_on_c, 0, 51, 52
1, 112513, Control_c, 0, 64, 80
1, 112528, Control_c, 0, 64, 88
1, 112543, Control_c, 0, 64, 94
1, 112543, Control_c, 0, 67, 103
1, 112557, Control_c, 0, 64, 97
1, 112559, Note_off_c, 0, 51, 62
1, 112572, Control_c, 0, 64, 97
1, 112572, Control_c, 0, 67, 102
1, 112596, Note_on_c, 0, 77, 72
1, 112599, Note_on_c, 0, 60, 66
1, 112611, Note_on_c, 0, 65, 52
1, 112617, Control_c, 0, 67, 102
1, 112635, Note_off_c, 0, 77, 55
1, 112641, Note_off_c, 0, 60, 53
1, 112647, Control_c, 0, 67, 101
1, 112649, Note_off_c, 0, 65, 63
1, 112676, Control_c, 0, 67, 101
1, 112686, Note_on_c, 0, 51, 57
1, 112721, Control_c, 0, 64, 94
1, 112735, Control_c, 0, 64, 85
1, 112748, Note_off_c, 0, 51, 52
1, 112750, Control_c, 0, 64, 74
1, 112765, Control_c, 0, 64, 63
1, 112770, Note_on_c, 0, 45, 53
1, 112775, Note_on_c, 0, 72, 68
1, 112775, Note_on_c, 0, 60, 57
1, 112780, Control_c, 0, 64, 45
1, 112795, Control_c, 0, 64, 49
1, 112809, Control_c, 0, 64, 59
1, 112816, Note_off_c, 0, 60, 59
1, 112824, Control_c, 0, 64, 64
1, 112832, Note_off_c, 0, 45, 63
1, 112832, Note_off_c, 0, 72, 62
1, 112839, Control_c, 0, 64, 69
1, 112854, Control_c, 0, 64, 74
1, 112869, Control_c, 0, 64, 80
1, 112879, Note_on_c, 0, 53, 62
1, 112883, Control_c, 0, 64, 84
1, 112898, Control_c, 0, 64, 85
1, 112930, Note_off_c, 0, 53, 62
1, 112956, Note_on_c, 0, 60, 58
1, 112957, Note_on_c, 0, 75, 67
1, 112964, Note_on_c, 0, 63, 59
1, 112993, Note_off_c, 0, 60, 61
1, 113016, Note_off_c, 0, 63, 55
1, 113052, Note_on_c, 0, 53, 60
1, 113070, Control_c, 0, 64, 81
1, 113085, Note_off_c, 0, 75, 59
1, 113085, Control_c, 0, 64, 72
1, 113100, Control_c, 0, 64, 61
1, 113114, Control_c, 0, 64, 0
1, 113114, Control_c, 0, 67, 101
1, 113144, Control_c, 0, 64, 50
1, 113148, Note_on_c, 0, 74, 71
1, 113151, Note_off_c, 0, 53, 62
1, 113159, Control_c, 0, 64, 64
1, 113160, Note_on_c, 0, 46, 63
1, 113168, Note_on_c, 0, 62, 37
1, 113174, Control_c, 0, 64, 69
1, 113174, Control_c, 0, 67, 102
1, 113188, Control_c, 0, 64, 74
1, 113188, Control_c, 0, 67, 102
1, 113190, Note_off_c, 0, 46, 64
1, 113197, Note_off_c, 0, 62, 52
1, 113203, Control_c, 0, 64, 80
1, 113218, Control_c, 0, 64, 85
1, 113232, Control_c, 0, 64, 88
1, 113240, Note_on_c, 0, 70, 71
1, 113247, Control_c, 0, 67, 103
1, 113252, Note_off_c, 0, 74, 51
1, 113262, Control_c, 0, 67, 103
1, 113277, Control_c, 0, 64, 86
1, 113277, Control_c, 0, 67, 104
1, 113292, Control_c, 0, 64, 79
1, 113306, Control_c, 0, 64, 69
1, 113321, Control_c, 0, 64, 47
1, 113335, Note_on_c, 0, 69, 70
1, 113335, Note_off_c, 0, 70, 63
1, 113336, Control_c, 0, 64, 0
1, 113350, Note_on_c, 0, 63, 68
1, 113351, Control_c, 0, 67, 104
1, 113365, Control_c, 0, 67, 105
1, 113413, Note_off_c, 0, 69, 59
1, 113416, Note_off_c, 0, 63, 62
1, 113417, Note_on_c, 0, 70, 76
1, 113441, Note_on_c, 0, 62, 66
1, 113500, Note_on_c, 0, 72, 76
1, 113502, Note_off_c, 0, 70, 64
1, 113511, Note_on_c, 0, 69, 65
1, 113515, Note_off_c, 0, 62, 44
1, 113529, Note_on_c, 0, 60, 69
1, 113556, Note_off_c, 0, 69, 57
1, 113578, Note_off_c, 0, 72, 56
1, 113589, Note_on_c, 0, 70, 67
1, 113592, Note_on_c, 0, 74, 75
1, 113594, Note_off_c, 0, 60, 53
1, 113607, Note_on_c, 0, 58, 73
1, 113617, Note_off_c, 0, 70, 65
1, 113629, Note_off_c, 0, 74, 65
1, 113675, Note_on_c, 0, 72, 74
1, 113675, Note_off_c, 0, 58, 63
1, 113684, Note_on_c, 0, 75, 72
1, 113696, Note_on_c, 0, 57, 69
1, 113732, Note_off_c, 0, 72, 51
1, 113758, Note_off_c, 0, 75, 61
1, 113771, Note_off_c, 0, 57, 60
1, 113774, Note_on_c, 0, 77, 68
1, 113777, Note_on_c, 0, 74, 66
1, 113789, Note_on_c, 0, 56, 70
1, 113853, Note_off_c, 0, 77, 61
1, 113867, Note_off_c, 0, 74, 63
1, 113868, Note_off_c, 0, 56, 63
1, 113878, Control_c, 0, 67, 104
1, 113878, Note_on_c, 0, 75, 57
1, 113881, Note_on_c, 0, 79, 62
1, 113895, Note_on_c, 0, 55, 64
1, 113972, Note_off_c, 0, 55, 53
1, 113984, Note_on_c, 0, 53, 69
1, 113995, Note_off_c, 0, 75, 63
1, 114003, Note_off_c, 0, 79, 63
1, 114046, Note_off_c, 0, 53, 57
1, 114054, Control_c, 0, 64, 21
1, 114069, Control_c, 0, 64, 31
1, 114074, Note_on_c, 0, 51, 67
1, 114084, Control_c, 0, 64, 35
1, 114131, Note_off_c, 0, 51, 55
1, 114158, Note_on_c, 0, 50, 67
1, 114255, Note_on_c, 0, 51, 66
1, 114259, Note_off_c, 0, 50, 64
1, 114274, Note_on_c, 0, 80, 66
1, 114278, Note_on_c, 0, 84, 57
1, 114291, Control_c, 0, 64, 34
1, 114291, Control_c, 0, 67, 104
1, 114313, Note_off_c, 0, 80, 56
1, 114335, Control_c, 0, 64, 33
1, 114350, Note_on_c, 0, 53, 72
1, 114353, Note_on_c, 0, 79, 73
1, 114353, Note_off_c, 0, 51, 61
1, 114358, Note_on_c, 0, 82, 68
1, 114400, Note_off_c, 0, 84, 25
1, 114406, Note_off_c, 0, 53, 64
1, 114424, Control_c, 0, 64, 34
1, 114425, Note_off_c, 0, 79, 56
1, 114432, Note_off_c, 0, 82, 60
1, 114435, Note_on_c, 0, 80, 68
1, 114442, Note_on_c, 0, 55, 62
1, 114447, Note_on_c, 0, 77, 65
1, 114461, Note_off_c, 0, 80, 64
1, 114478, Note_off_c, 0, 77, 64
1, 114483, Note_off_c, 0, 55, 60
1, 114533, Note_on_c, 0, 56, 65
1, 114542, Note_on_c, 0, 79, 73
1, 114555, Note_on_c, 0, 75, 66
1, 114565, Control_c, 0, 64, 33
1, 114608, Note_off_c, 0, 75, 62
1, 114632, Note_on_c, 0, 77, 81
1, 114635, Note_off_c, 0, 56, 62
1, 114639, Note_on_c, 0, 74, 74
1, 114640, Control_c, 0, 64, 32
1, 114647, Note_on_c, 0, 58, 66
1, 114656, Control_c, 0, 64, 30
1, 114659, Note_off_c, 0, 79, 58
1, 114662, Note_off_c, 0, 74, 72
1, 114671, Control_c, 0, 64, 28
1, 114674, Note_off_c, 0, 77, 64
1, 114700, Control_c, 0, 64, 27
1, 114774, Control_c, 0, 64, 28
1, 114774, Control_c, 0, 67, 104
1, 114789, Control_c, 0, 64, 29
1, 114789, Control_c, 0, 67, 105
1, 114803, Control_c, 0, 64, 30
1, 114827, Note_off_c, 0, 58, 63
1, 114833, Control_c, 0, 67, 105
1, 114837, Note_on_c, 0, 60, 68
1, 114848, Control_c, 0, 64, 31
1, 114863, Control_c, 0, 64, 33
1, 114877, Control_c, 0, 64, 36
1, 114892, Control_c, 0, 64, 36
1, 114903, Note_off_c, 0, 60, 64
1, 114907, Control_c, 0, 64, 37
1, 114935, Note_on_c, 0, 62, 62
1, 114951, Control_c, 0, 64, 38
1, 114966, Control_c, 0, 67, 105
1, 114981, Control_c, 0, 64, 38
1, 114981, Control_c, 0, 67, 104
1, 114991, Note_on_c, 0, 92, 77
1, 114991, Note_off_c, 0, 62, 54
1, 114993, Note_on_c, 0, 96, 71
1, 114996, Control_c, 0, 64, 39
1, 115011, Control_c, 0, 64, 40
1, 115011, Note_on_c, 0, 63, 69
1, 115038, Note_off_c, 0, 92, 64
1, 115041, Control_c, 0, 64, 40
1, 115041, Control_c, 0, 67, 104
1, 115055, Control_c, 0, 64, 41
1, 115055, Control_c, 0, 67, 103
1, 115070, Control_c, 0, 64, 42
1, 115077, Note_on_c, 0, 91, 70
1, 115082, Note_off_c, 0, 63, 60
1, 115085, Control_c, 0, 64, 42
1, 115085, Control_c, 0, 67, 103
1, 115092, Note_on_c, 0, 94, 59
1, 115099, Note_on_c, 0, 65, 69
1, 115100, Control_c, 0, 64, 43
1, 115115, Control_c, 0, 64, 44
1, 115129, Control_c, 0, 67, 102
1, 115130, Note_off_c, 0, 96, 60
1, 115148, Note_on_c, 0, 92, 66
1, 115151, Note_off_c, 0, 65, 60
1, 115155, Note_off_c, 0, 91, 63
1, 115159, Control_c, 0, 64, 44
1, 115160, Note_off_c, 0, 94, 63
1, 115172, Note_on_c, 0, 89, 73
1, 115176, Note_on_c, 0, 67, 62
1, 115181, Note_off_c, 0, 92, 64
1, 115189, Control_c, 0, 67, 102
1, 115199, Note_off_c, 0, 89, 63
1, 115203, Control_c, 0, 64, 44
1, 115215, Note_off_c, 0, 67, 60
1, 115218, Control_c, 0, 67, 101
1, 115233, Control_c, 0, 64, 43
1, 115255, Control_c, 0, 64, 43
1, 115264, Note_on_c, 0, 68, 65
1, 115266, Note_on_c, 0, 91, 85
1, 115291, Note_on_c, 0, 87, 62
1, 115300, Control_c, 0, 67, 101
1, 115315, Control_c, 0, 64, 42
1, 115329, Control_c, 0, 67, 100
1, 115344, Control_c, 0, 67, 100
1, 115354, Note_on_c, 0, 86, 72
1, 115359, Control_c, 0, 64, 43
1, 115362, Note_on_c, 0, 89, 69
1, 115363, Note_on_c, 0, 70, 71
1, 115363, Note_off_c, 0, 87, 57
1, 115365, Note_on_c, 0, 84, 60
1, 115365, Note_off_c, 0, 91, 63
1, 115367, Note_off_c, 0, 68, 59
1, 115377, Note_off_c, 0, 86, 71
1, 115379, Note_off_c, 0, 89, 66
1, 115383, Note_off_c, 0, 84, 63
1, 115403, Control_c, 0, 64, 41
1, 115418, Control_c, 0, 64, 39
1, 115434, Control_c, 0, 64, 38
1, 115449, Control_c, 0, 64, 39
1, 115464, Control_c, 0, 64, 41
1, 115479, Control_c, 0, 64, 42
1, 115523, Control_c, 0, 64, 42
1, 115538, Control_c, 0, 64, 43
1, 115538, Control_c, 0, 67, 99
1, 115552, Control_c, 0, 64, 44
1, 115552, Control_c, 0, 67, 98
1, 115569, Note_on_c, 0, 84, 88
1, 115572, Note_on_c, 0, 74, 91
1, 115573, Note_on_c, 0, 68, 78
1, 115582, Control_c, 0, 64, 45
1, 115582, Control_c, 0, 67, 98
1, 115597, Control_c, 0, 64, 46
1, 115597, Control_c, 0, 67, 97
1, 115612, Control_c, 0, 64, 47
1, 115612, Control_c, 0, 67, 97
1, 115616, Note_off_c, 0, 70, 56
1, 115626, Control_c, 0, 64, 47
1, 115626, Control_c, 0, 67, 96
1, 115640, Note_off_c, 0, 68, 63
1, 115655, Note_on_c, 0, 82, 77
1, 115656, Note_on_c, 0, 75, 79
1, 115656, Control_c, 0, 64, 48
1, 115661, Note_on_c, 0, 67, 80
1, 115664, Note_off_c, 0, 84, 63
1, 115666, Note_off_c, 0, 74, 63
1, 115671, Control_c, 0, 64, 48
1, 115693, Note_off_c, 0, 75, 62
1, 115697, Note_off_c, 0, 82, 61
1, 115715, Control_c, 0, 64, 48
1, 115715, Control_c, 0, 67, 96
1, 115730, Control_c, 0, 67, 95
1, 115745, Control_c, 0, 67, 95
1, 115750, Note_off_c, 0, 67, 44
1, 115757, Note_on_c, 0, 65, 75
1, 115757, Note_on_c, 0, 71, 81
1, 115759, Note_on_c, 0, 80, 85
1, 115759, Control_c, 0, 67, 94
1, 115774, Control_c, 0, 67, 93
1, 115789, Control_c, 0, 67, 93
1, 115804, Control_c, 0, 67, 92
1, 115816, Note_off_c, 0, 71, 63
1, 115819, Control_c, 0, 67, 90
1, 115833, Control_c, 0, 67, 88
1, 115839, Note_on_c, 0, 72, 77
1, 115848, Control_c, 0, 67, 86
1, 115851, Note_on_c, 0, 63, 79
1, 115857, Note_off_c, 0, 80, 35
1, 115861, Note_off_c, 0, 65, 34
1, 115863, Control_c, 0, 67, 85
1, 115867, Note_on_c, 0, 79, 40
1, 115876, Note_off_c, 0, 72, 64
1, 115878, Control_c, 0, 67, 83
1, 115893, Control_c, 0, 67, 81
1, 115895, Note_off_c, 0, 79, 55
1, 115908, Control_c, 0, 67, 79
1, 115908, Note_off_c, 0, 63, 63
1, 115923, Control_c, 0, 67, 77
1, 115927, Note_on_c, 0, 67, 80
1, 115929, Note_on_c, 0, 62, 82
1, 115938, Note_on_c, 0, 77, 76
1, 115938, Control_c, 0, 67, 76
1, 115952, Control_c, 0, 67, 73
1, 115967, Control_c, 0, 67, 69
1, 115975, Note_off_c, 0, 67, 58
1, 115982, Control_c, 0, 67, 65
1, 116004, Control_c, 0, 67, 60
1, 116019, Control_c, 0, 64, 47
1, 116019, Control_c, 0, 67, 57
1, 116025, Note_on_c, 0, 60, 81
1, 116033, Control_c, 0, 67, 56
1, 116035, Note_off_c, 0, 62, 60
1, 116048, Control_c, 0, 67, 55
1, 116060, Note_off_c, 0, 77, 63
1, 116060, Note_on_c, 0, 74, 23
1, 116063, Control_c, 0, 67, 54
1, 116078, Control_c, 0, 67, 51
1, 116093, Control_c, 0, 64, 48
1, 116093, Control_c, 0, 67, 49
1, 116108, Control_c, 0, 64, 49
1, 116108, Control_c, 0, 67, 48
1, 116120, Note_off_c, 0, 74, 0
1, 116120, Note_on_c, 0, 74, 71
1, 116123, Control_c, 0, 64, 52
1, 116123, Control_c, 0, 67, 47
1, 116124, Note_on_c, 0, 59, 83
1, 116125, Note_on_c, 0, 79, 85
1, 116129, Note_off_c, 0, 60, 0
1, 116138, Control_c, 0, 64, 53
1, 116152, Control_c, 0, 64, 55
1, 116167, Control_c, 0, 64, 57
1, 116176, Note_off_c, 0, 79, 62
1, 116182, Control_c, 0, 64, 59
1, 116182, Control_c, 0, 67, 48
1, 116185, Note_off_c, 0, 59, 60
1, 116188, Poly_aftertouch_c, 0, 60, 0
1, 116197, Control_c, 0, 64, 60
1, 116203, Note_on_c, 0, 78, 84
1, 116206, Note_on_c, 0, 81, 85
1, 116209, Note_on_c, 0, 57, 77
1, 116212, Control_c, 0, 64, 61
1, 116227, Control_c, 0, 64, 60
1, 116234, Note_off_c, 0, 74, 66
1, 116236, Note_off_c, 0, 78, 62
1, 116240, Note_off_c, 0, 81, 65
1, 116242, Control_c, 0, 64, 60
1, 116257, Control_c, 0, 64, 59
1, 116272, Control_c, 0, 67, 47
1, 116287, Control_c, 0, 64, 57
1, 116287, Control_c, 0, 67, 46
1, 116297, Note_on_c, 0, 79, 83
1, 116300, Note_on_c, 0, 55, 82
1, 116301, Control_c, 0, 64, 52
1, 116301, Control_c, 0, 67, 46
1, 116303, Note_on_c, 0, 83, 84
1, 116305, Note_on_c, 0, 74, 77
1, 116316, Control_c, 0, 64, 49
1, 116316, Control_c, 0, 67, 44
1, 116319, Note_off_c, 0, 57, 53
1, 116320, Note_off_c, 0, 79, 64
1, 116329, Note_off_c, 0, 74, 69
1, 116331, Control_c, 0, 64, 47
1, 116331, Control_c, 0, 67, 42
1, 116331, Note_off_c, 0, 83, 61
1, 116346, Control_c, 0, 67, 39
1, 116361, Control_c, 0, 64, 48
1, 116361, Control_c, 0, 67, 34
1, 116375, Control_c, 0, 64, 51
1, 116375, Control_c, 0, 67, 26
1, 116383, Note_on_c, 0, 53, 86
1, 116384, Note_on_c, 0, 79, 86
1, 116384, Note_on_c, 0, 83, 86
1, 116387, Note_on_c, 0, 74, 82
1, 116390, Control_c, 0, 64, 53
1, 116390, Control_c, 0, 67, 15
1, 116394, Note_off_c, 0, 55, 57
1, 116405, Control_c, 0, 64, 53
1, 116405, Control_c, 0, 67, 0
1, 116408, Note_off_c, 0, 74, 72
1, 116413, Note_off_c, 0, 79, 62
1, 116420, Control_c, 0, 64, 54
1, 116427, Note_off_c, 0, 83, 64
1, 116435, Control_c, 0, 64, 55
1, 116443, Note_off_c, 0, 53, 66
1, 116464, Control_c, 0, 64, 56
1, 116475, Note_on_c, 0, 75, 93
1, 116476, Note_on_c, 0, 51, 86
1, 116477, Note_on_c, 0, 80, 82
1, 116479, Note_on_c, 0, 84, 91
1, 116479, Control_c, 0, 64, 57
1, 116494, Control_c, 0, 64, 57
1, 116497, Note_off_c, 0, 80, 69
1, 116503, Note_off_c, 0, 75, 64
1, 116505, Note_off_c, 0, 84, 59
1, 116531, Note_off_c, 0, 51, 63
1, 116553, Control_c, 0, 64, 58
1, 116557, Note_on_c, 0, 50, 91
1, 116567, Control_c, 0, 64, 58
1, 116571, Note_on_c, 0, 86, 96
1, 116573, Note_on_c, 0, 77, 80
1, 116580, Note_on_c, 0, 79, 79
1, 116582, Control_c, 0, 64, 58
1, 116591, Note_off_c, 0, 86, 65
1, 116595, Note_off_c, 0, 77, 70
1, 116597, Control_c, 0, 64, 57
1, 116601, Note_off_c, 0, 79, 68
1, 116612, Note_off_c, 0, 50, 68
1, 116612, Control_c, 0, 64, 57
1, 116644, Note_on_c, 0, 48, 95
1, 116652, Note_on_c, 0, 87, 103
1, 116653, Note_on_c, 0, 79, 94
1, 116669, Note_on_c, 0, 84, 65
1, 116671, Control_c, 0, 64, 57
1, 116682, Note_off_c, 0, 79, 62
1, 116686, Note_off_c, 0, 84, 66
1, 116691, Note_off_c, 0, 48, 64
1, 116692, Note_off_c, 0, 87, 69
1, 116731, Control_c, 0, 64, 52
1, 116737, Note_on_c, 0, 84, 100
1, 116740, Note_on_c, 0, 46, 94
1, 116749, Note_on_c, 0, 79, 96
1, 116751, Note_on_c, 0, 88, 93
1, 116753, Control_c, 0, 64, 0
1, 116757, Note_on_c, 0, 48, 75
1, 116768, Note_on_c, 0, 50, 63
1, 116778, Note_off_c, 0, 84, 69
1, 116781, Note_off_c, 0, 79, 63
1, 116783, Note_off_c, 0, 88, 62
1, 116785, Note_off_c, 0, 46, 60
1, 116789, Note_off_c, 0, 48, 65
1, 116791, Note_off_c, 0, 50, 64
1, 116827, Control_c, 0, 64, 39
1, 116829, Note_on_c, 0, 88, 100
1, 116831, Note_on_c, 0, 46, 100
1, 116831, Note_on_c, 0, 84, 108
1, 116833, Note_on_c, 0, 79, 90
1, 116836, Note_on_c, 0, 48, 77
1, 116842, Control_c, 0, 64, 78
1, 116848, Note_off_c, 0, 79, 73
1, 116850, Note_off_c, 0, 88, 70
1, 116851, Note_off_c, 0, 84, 72
1, 116856, Control_c, 0, 64, 127
1, 116859, Note_off_c, 0, 48, 67
1, 116863, Note_off_c, 0, 46, 65
1, 117020, Control_c, 0, 64, 99
1, 117035, Control_c, 0, 64, 75
1, 117050, Control_c, 0, 64, 0
1, 117246, Note_on_c, 0, 77, 92
1, 117247, Note_on_c, 0, 89, 100
1, 117248, Note_on_c, 0, 84, 94
1, 117253, Note_on_c, 0, 48, 92
1, 117254, Note_on_c, 0, 45, 96
1, 117257, Control_c, 0, 64, 68
1, 117271, Control_c, 0, 64, 87
1, 117279, Note_off_c, 0, 77, 66
1, 117285, Note_off_c, 0, 89, 66
1, 117286, Control_c, 0, 64, 127
1, 117290, Note_off_c, 0, 84, 70
1, 117317, Note_off_c, 0, 48, 64
1, 117322, Note_off_c, 0, 45, 66
1, 117501, Control_c, 0, 64, 104
1, 117516, Control_c, 0, 64, 79
1, 117530, Control_c, 0, 64, 58
1, 117545, Control_c, 0, 64, 0
1, 117665, Control_c, 0, 64, 31
1, 117679, Control_c, 0, 64, 32
1, 117709, Control_c, 0, 64, 27
1, 117723, Control_c, 0, 64, 0
1, 117753, Note_on_c, 0, 75, 94
1, 117755, Note_on_c, 0, 70, 93
1, 117758, Note_on_c, 0, 42, 95
1, 117759, Note_on_c, 0, 48, 86
1, 118315, Note_off_c, 0, 75, 0
1, 118327, Note_on_c, 0, 77, 99
1, 118333, Note_on_c, 0, 41, 91
1, 118348, Poly_aftertouch_c, 0, 75, 0
1, 118361, Note_off_c, 0, 42, 63
1, 118382, Note_off_c, 0, 77, 58
1, 118404, Note_off_c, 0, 41, 61
1, 118541, Note_on_c, 0, 78, 101
1, 118542, Note_on_c, 0, 39, 81
1, 118570, Note_off_c, 0, 70, 62
1, 118749, Note_on_c, 0, 70, 81
1, 118834, Note_on_c, 0, 69, 80
1, 118841, Note_off_c, 0, 70, 64
1, 118931, Note_off_c, 0, 69, 57
1, 118932, Note_on_c, 0, 70, 90
1, 118962, Control_c, 0, 64, 31
1, 118977, Control_c, 0, 64, 50
1, 118999, Control_c, 0, 64, 61
1, 119014, Control_c, 0, 64, 66
1, 119027, Note_on_c, 0, 69, 84
1, 119029, Control_c, 0, 64, 69
1, 119032, Note_off_c, 0, 70, 63
1, 119044, Control_c, 0, 64, 73
1, 119059, Control_c, 0, 64, 78
1, 119074, Control_c, 0, 64, 84
1, 119089, Control_c, 0, 64, 89
1, 119089, Note_off_c, 0, 69, 63
1, 119103, Control_c, 0, 64, 95
1, 119117, Note_on_c, 0, 70, 89
1, 119118, Control_c, 0, 64, 101
1, 119133, Note_off_c, 0, 48, 57
1, 119133, Control_c, 0, 64, 109
1, 119148, Control_c, 0, 64, 118
1, 119163, Control_c, 0, 64, 127
1, 119168, Note_off_c, 0, 78, 57
1, 119198, Note_on_c, 0, 69, 80
1, 119202, Note_off_c, 0, 70, 63
1, 119227, Note_off_c, 0, 39, 34
1, 119237, Note_off_c, 0, 69, 61
1, 119315, Note_on_c, 0, 75, 102
1, 119325, Control_c, 0, 64, 107
1, 119328, Note_on_c, 0, 48, 79
1, 119328, Note_on_c, 0, 70, 76
1, 119330, Note_on_c, 0, 42, 87
1, 119340, Control_c, 0, 64, 85
1, 119355, Control_c, 0, 64, 63
1, 119369, Control_c, 0, 64, 0
1, 119871, Note_off_c, 0, 70, 0
1, 119883, Note_on_c, 0, 70, 73
1, 119886, Note_on_c, 0, 77, 96
1, 119890, Note_on_c, 0, 41, 79
1, 119912, Note_off_c, 0, 75, 68
1, 119914, Note_off_c, 0, 42, 63
1, 119951, Note_off_c, 0, 41, 64
1, 119954, Note_off_c, 0, 77, 61
1, 120132, Note_on_c, 0, 79, 98
1, 120147, Note_on_c, 0, 40, 68
1, 120193, Note_off_c, 0, 70, 58
1, 120345, Note_on_c, 0, 70, 66
1, 120386, Control_c, 0, 67, 8
1, 120401, Control_c, 0, 67, 14
1, 120415, Control_c, 0, 67, 22
1, 120424, Note_off_c, 0, 70, 62
1, 120430, Control_c, 0, 67, 30
1, 120441, Note_on_c, 0, 69, 59
1, 120445, Control_c, 0, 67, 41
1, 120460, Control_c, 0, 67, 55
1, 120475, Control_c, 0, 67, 66
1, 120497, Control_c, 0, 67, 76
1, 120512, Control_c, 0, 67, 83
1, 120527, Control_c, 0, 67, 89
1, 120529, Note_off_c, 0, 69, 58
1, 120541, Control_c, 0, 67, 96
1, 120545, Note_on_c, 0, 70, 65
1, 120556, Control_c, 0, 67, 103
1, 120571, Control_c, 0, 67, 109
1, 120586, Control_c, 0, 67, 114
1, 120601, Control_c, 0, 67, 118
1, 120615, Control_c, 0, 67, 121
1, 120628, Note_off_c, 0, 70, 62
1, 120630, Control_c, 0, 67, 124
1, 120643, Note_on_c, 0, 69, 65
1, 120645, Control_c, 0, 67, 125
1, 120660, Control_c, 0, 64, 39
1, 120675, Control_c, 0, 64, 58
1, 120689, Control_c, 0, 64, 64
1, 120704, Control_c, 0, 64, 67
1, 120719, Control_c, 0, 64, 70
1, 120732, Note_off_c, 0, 69, 58
1, 120734, Control_c, 0, 64, 72
1, 120749, Control_c, 0, 64, 74
1, 120757, Note_on_c, 0, 70, 50
1, 120764, Control_c, 0, 64, 76
1, 120779, Control_c, 0, 64, 80
1, 120789, Note_off_c, 0, 79, 49
1, 120794, Control_c, 0, 64, 81
1, 120821, Note_off_c, 0, 48, 51
1, 120838, Control_c, 0, 67, 124
1, 120847, Note_on_c, 0, 69, 58
1, 120853, Control_c, 0, 67, 123
1, 120863, Note_off_c, 0, 70, 44
1, 120871, Note_off_c, 0, 40, 33
1, 120905, Note_off_c, 0, 69, 39
1, 120912, Control_c, 0, 64, 80
1, 120941, Control_c, 0, 64, 80
1, 120956, Control_c, 0, 64, 79
1, 120971, Control_c, 0, 64, 78
1, 120986, Control_c, 0, 64, 76
1, 121001, Control_c, 0, 64, 74
1, 121017, Control_c, 0, 64, 71
1, 121032, Control_c, 0, 64, 68
1, 121046, Control_c, 0, 64, 65
1, 121061, Control_c, 0, 64, 60
1, 121076, Control_c, 0, 64, 54
1, 121077, Note_on_c, 0, 78, 54
1, 121082, Note_on_c, 0, 48, 39
1, 121091, Control_c, 0, 64, 51
1, 121092, Note_on_c, 0, 41, 34
1, 121106, Control_c, 0, 64, 49
1, 121120, Control_c, 0, 64, 43
1, 121135, Control_c, 0, 64, 0
1, 121170, Note_off_c, 0, 78, 52
1, 121203, Note_off_c, 0, 48, 56
1, 121210, Note_off_c, 0, 41, 52
1, 121277, Note_on_c, 0, 70, 52
1, 121351, Note_off_c, 0, 70, 60
1, 121368, Note_on_c, 0, 69, 52
1, 121423, Note_off_c, 0, 69, 55
1, 121470, Note_on_c, 0, 70, 45
1, 121523, Note_off_c, 0, 70, 57
1, 121544, Note_on_c, 0, 69, 48
1, 121596, Note_off_c, 0, 69, 55
1, 121636, Note_on_c, 0, 70, 55
1, 121717, Note_off_c, 0, 70, 60
1, 121718, Note_on_c, 0, 69, 53
1, 121779, Control_c, 0, 67, 123
1, 121784, Note_off_c, 0, 69, 45
1, 121794, Control_c, 0, 67, 122
1, 121825, Note_on_c, 0, 77, 63
1, 121838, Note_on_c, 0, 41, 43
1, 121840, Note_on_c, 0, 50, 45
1, 121855, Control_c, 0, 67, 122
1, 121899, Control_c, 0, 67, 121
1, 121904, Note_off_c, 0, 77, 60
1, 121927, Note_off_c, 0, 50, 64
1, 121929, Note_off_c, 0, 41, 60
1, 121958, Control_c, 0, 67, 121
1, 121995, Control_c, 0, 67, 120
1, 122020, Note_on_c, 0, 72, 55
1, 122101, Note_off_c, 0, 72, 61
1, 122105, Note_on_c, 0, 71, 55
1, 122177, Note_off_c, 0, 71, 61
1, 122202, Note_on_c, 0, 72, 57
1, 122266, Note_off_c, 0, 72, 52
1, 122290, Note_on_c, 0, 71, 64
1, 122357, Note_off_c, 0, 71, 60
1, 122382, Note_on_c, 0, 72, 56
1, 122394, Control_c, 0, 67, 120
1, 122463, Note_off_c, 0, 72, 47
1, 122475, Note_on_c, 0, 71, 57
1, 122555, Note_off_c, 0, 71, 52
1, 122568, Note_on_c, 0, 77, 63
1, 122582, Note_on_c, 0, 51, 44
1, 122596, Note_on_c, 0, 41, 36
1, 122602, Control_c, 0, 64, 14
1, 122618, Control_c, 0, 64, 19
1, 122633, Control_c, 0, 64, 23
1, 122645, Note_off_c, 0, 77, 59
1, 122648, Control_c, 0, 64, 26
1, 122654, Note_off_c, 0, 51, 62
1, 122659, Note_off_c, 0, 41, 59
1, 122663, Control_c, 0, 64, 28
1, 122678, Control_c, 0, 64, 29
1, 122743, Control_c, 0, 64, 30
1, 122763, Note_on_c, 0, 74, 60
1, 122773, Control_c, 0, 64, 31
1, 122824, Note_off_c, 0, 74, 57
1, 122857, Note_on_c, 0, 72, 55
1, 122877, Control_c, 0, 64, 30
1, 122892, Control_c, 0, 67, 119
1, 122941, Note_off_c, 0, 72, 53
1, 122956, Note_on_c, 0, 77, 62
1, 122961, Note_on_c, 0, 50, 44
1, 122964, Note_on_c, 0, 41, 41
1, 122966, Control_c, 0, 64, 31
1, 122996, Control_c, 0, 64, 32
1, 123010, Control_c, 0, 64, 34
1, 123023, Note_off_c, 0, 77, 57
1, 123025, Control_c, 0, 64, 37
1, 123040, Control_c, 0, 64, 38
1, 123042, Note_off_c, 0, 50, 63
1, 123052, Note_off_c, 0, 41, 58
1, 123055, Control_c, 0, 64, 40
1, 123069, Control_c, 0, 64, 40
1, 123099, Control_c, 0, 64, 41
1, 123145, Note_on_c, 0, 72, 59
1, 123233, Note_off_c, 0, 72, 57
1, 123235, Note_on_c, 0, 70, 58
1, 123277, Control_c, 0, 67, 119
1, 123310, Note_off_c, 0, 70, 56
1, 123339, Note_on_c, 0, 77, 64
1, 123351, Note_on_c, 0, 41, 41
1, 123351, Note_on_c, 0, 48, 46
1, 123381, Control_c, 0, 64, 42
1, 123411, Control_c, 0, 64, 42
1, 123417, Note_off_c, 0, 77, 59
1, 123426, Control_c, 0, 64, 44
1, 123430, Note_off_c, 0, 48, 62
1, 123437, Note_off_c, 0, 41, 59
1, 123441, Control_c, 0, 64, 46
1, 123456, Control_c, 0, 64, 47
1, 123543, Note_on_c, 0, 70, 56
1, 123552, Control_c, 0, 64, 46
1, 123566, Control_c, 0, 64, 46
1, 123581, Control_c, 0, 64, 45
1, 123596, Control_c, 0, 64, 45
1, 123611, Control_c, 0, 64, 44
1, 123622, Note_off_c, 0, 70, 55
1, 123630, Note_on_c, 0, 69, 57
1, 123640, Control_c, 0, 64, 44
1, 123655, Control_c, 0, 64, 42
1, 123670, Control_c, 0, 64, 41
1, 123727, Note_on_c, 0, 77, 66
1, 123745, Control_c, 0, 64, 40
1, 123748, Note_on_c, 0, 41, 42
1, 123751, Note_on_c, 0, 50, 44
1, 123754, Note_off_c, 0, 69, 36
1, 123801, Note_off_c, 0, 77, 60
1, 123804, Control_c, 0, 64, 41
1, 123828, Note_off_c, 0, 41, 58
1, 123828, Note_off_c, 0, 50, 59
1, 123833, Control_c, 0, 64, 42
1, 123848, Control_c, 0, 64, 43
1, 123863, Control_c, 0, 64, 43
1, 123878, Control_c, 0, 64, 44
1, 123892, Control_c, 0, 64, 44
1, 123907, Control_c, 0, 64, 45
1, 123922, Control_c, 0, 64, 45
1, 123933, Note_on_c, 0, 72, 58
1, 123966, Control_c, 0, 64, 46
1, 123981, Control_c, 0, 64, 47
1, 124006, Note_off_c, 0, 72, 58
1, 124021, Note_on_c, 0, 70, 50
1, 124040, Control_c, 0, 64, 48
1, 124055, Control_c, 0, 64, 49
1, 124070, Control_c, 0, 64, 50
1, 124100, Control_c, 0, 64, 50
1, 124114, Control_c, 0, 64, 51
1, 124120, Note_off_c, 0, 70, 46
1, 124123, Note_on_c, 0, 78, 66
1, 124129, Control_c, 0, 64, 52
1, 124143, Note_on_c, 0, 48, 38
1, 124144, Control_c, 0, 64, 53
1, 124154, Note_on_c, 0, 41, 34
1, 124159, Control_c, 0, 64, 53
1, 124242, Control_c, 0, 64, 54
1, 124257, Control_c, 0, 64, 54
1, 124286, Control_c, 0, 64, 54
1, 124293, Note_off_c, 0, 48, 56
1, 124301, Control_c, 0, 67, 119
1, 124302, Note_off_c, 0, 41, 56
1, 124319, Note_off_c, 0, 78, 37
1, 124325, Note_on_c, 0, 70, 59
1, 124330, Control_c, 0, 64, 53
1, 124345, Control_c, 0, 64, 53
1, 124360, Control_c, 0, 64, 52
1, 124375, Control_c, 0, 64, 51
1, 124390, Control_c, 0, 64, 50
1, 124405, Control_c, 0, 64, 50
1, 124407, Note_off_c, 0, 70, 60
1, 124420, Note_on_c, 0, 69, 49
1, 124435, Control_c, 0, 64, 49
1, 124450, Control_c, 0, 64, 48
1, 124464, Control_c, 0, 64, 47
1, 124479, Control_c, 0, 64, 47
1, 124498, Note_off_c, 0, 69, 59
1, 124522, Note_on_c, 0, 70, 53
1, 124583, Note_off_c, 0, 70, 57
1, 124608, Note_on_c, 0, 69, 57
1, 124654, Note_off_c, 0, 69, 58
1, 124700, Note_on_c, 0, 70, 61
1, 124731, Control_c, 0, 64, 47
1, 124776, Control_c, 0, 64, 48
1, 124786, Note_off_c, 0, 70, 50
1, 124788, Note_on_c, 0, 69, 43
1, 124805, Control_c, 0, 64, 48
1, 124864, Control_c, 0, 64, 49
1, 124877, Note_off_c, 0, 69, 54
1, 124889, Note_on_c, 0, 77, 55
1, 124894, Control_c, 0, 64, 49
1, 124903, Note_on_c, 0, 41, 42
1, 124911, Note_on_c, 0, 50, 37
1, 124938, Control_c, 0, 64, 50
1, 124953, Control_c, 0, 64, 51
1, 124968, Control_c, 0, 64, 52
1, 124975, Note_off_c, 0, 77, 59
1, 125020, Note_off_c, 0, 50, 64
1, 125030, Note_off_c, 0, 41, 57
1, 125092, Note_on_c, 0, 72, 57
1, 125153, Control_c, 0, 67, 120
1, 125166, Note_off_c, 0, 72, 59
1, 125174, Note_on_c, 0, 71, 57
1, 125247, Note_off_c, 0, 71, 59
1, 125278, Note_on_c, 0, 72, 63
1, 125316, Control_c, 0, 64, 51
1, 125343, Note_off_c, 0, 72, 56
1, 125354, Note_on_c, 0, 71, 63
1, 125435, Note_off_c, 0, 71, 59
1, 125452, Note_on_c, 0, 72, 64
1, 125464, Control_c, 0, 64, 52
1, 125527, Note_off_c, 0, 72, 55
1, 125544, Note_on_c, 0, 71, 63
1, 125553, Control_c, 0, 64, 52
1, 125568, Control_c, 0, 64, 53
1, 125642, Control_c, 0, 64, 53
1, 125649, Note_on_c, 0, 51, 47
1, 125650, Note_on_c, 0, 77, 66
1, 125655, Note_on_c, 0, 41, 44
1, 125656, Control_c, 0, 64, 54
1, 125665, Note_off_c, 0, 71, 57
1, 125671, Control_c, 0, 64, 54
1, 125686, Control_c, 0, 64, 55
1, 125701, Control_c, 0, 64, 55
1, 125716, Control_c, 0, 64, 56
1, 125722, Note_off_c, 0, 77, 60
1, 125749, Note_off_c, 0, 51, 61
1, 125755, Note_off_c, 0, 41, 58
1, 125840, Note_on_c, 0, 74, 63
1, 125858, Control_c, 0, 64, 56
1, 125903, Note_off_c, 0, 74, 57
1, 125917, Control_c, 0, 64, 55
1, 125927, Note_on_c, 0, 72, 57
1, 125991, Control_c, 0, 64, 54
1, 126021, Control_c, 0, 64, 55
1, 126028, Note_on_c, 0, 41, 45
1, 126028, Note_on_c, 0, 50, 48
1, 126030, Note_on_c, 0, 77, 70
1, 126050, Control_c, 0, 64, 55
1, 126057, Note_off_c, 0, 72, 61
1, 126094, Control_c, 0, 64, 56
1, 126096, Note_off_c, 0, 77, 60
1, 126114, Note_off_c, 0, 50, 63
1, 126124, Control_c, 0, 64, 56
1, 126127, Note_off_c, 0, 41, 55
1, 126214, Note_on_c, 0, 72, 65
1, 126287, Control_c, 0, 64, 56
1, 126305, Note_on_c, 0, 71, 66
1, 126313, Note_off_c, 0, 72, 57
1, 126361, Control_c, 0, 64, 56
1, 126398, Note_on_c, 0, 77, 76
1, 126409, Note_off_c, 0, 71, 61
1, 126411, Note_on_c, 0, 41, 39
1, 126416, Note_on_c, 0, 51, 47
1, 126450, Control_c, 0, 64, 57
1, 126497, Note_off_c, 0, 77, 57
1, 126502, Note_off_c, 0, 41, 60
1, 126517, Control_c, 0, 64, 57
1, 126542, Note_off_c, 0, 51, 61
1, 126594, Note_on_c, 0, 74, 70
1, 126636, Control_c, 0, 64, 57
1, 126665, Control_c, 0, 67, 119
1, 126673, Note_on_c, 0, 72, 71
1, 126674, Note_off_c, 0, 74, 56
1, 126695, Control_c, 0, 64, 56
1, 126770, Note_on_c, 0, 77, 73
1, 126787, Note_on_c, 0, 53, 58
1, 126788, Note_off_c, 0, 72, 62
1, 126813, Control_c, 0, 64, 57
1, 126842, Note_off_c, 0, 77, 57
1, 126843, Control_c, 0, 64, 57
1, 126857, Control_c, 0, 64, 58
1, 126872, Control_c, 0, 64, 58
1, 126961, Control_c, 0, 67, 120
1, 126964, Note_on_c, 0, 55, 56
1, 126966, Note_on_c, 0, 75, 78
1, 126976, Control_c, 0, 67, 120
1, 126977, Note_on_c, 0, 72, 60
1, 126991, Control_c, 0, 64, 58
1, 126991, Note_off_c, 0, 53, 38
1, 127036, Control_c, 0, 64, 57
1, 127063, Note_on_c, 0, 57, 63
1, 127063, Note_off_c, 0, 55, 61
1, 127095, Control_c, 0, 64, 57
1, 127128, Note_off_c, 0, 72, 62
1, 127149, Note_on_c, 0, 65, 68
1, 127151, Note_on_c, 0, 58, 72
1, 127164, Note_off_c, 0, 57, 55
1, 127183, Control_c, 0, 64, 56
1, 127200, Note_off_c, 0, 75, 62
1, 127213, Control_c, 0, 67, 120
1, 127232, Note_off_c, 0, 58, 62
1, 127235, Control_c, 0, 67, 119
1, 127264, Note_on_c, 0, 60, 64
1, 127265, Control_c, 0, 64, 55
1, 127265, Control_c, 0, 67, 119
1, 127295, Control_c, 0, 67, 118
1, 127324, Control_c, 0, 64, 55
1, 127337, Note_on_c, 0, 62, 74
1, 127339, Control_c, 0, 64, 54
1, 127339, Control_c, 0, 67, 118
1, 127346, Note_on_c, 0, 74, 74
1, 127351, Note_on_c, 0, 70, 69
1, 127354, Control_c, 0, 64, 53
1, 127354, Control_c, 0, 67, 117
1, 127355, Note_off_c, 0, 60, 59
1, 127369, Control_c, 0, 64, 50
1, 127383, Control_c, 0, 64, 44
1, 127383, Control_c, 0, 67, 117
1, 127386, Note_off_c, 0, 65, 54
1, 127398, Control_c, 0, 64, 31
1, 127414, Control_c, 0, 64, 0
1, 127414, Control_c, 0, 67, 116
1, 127429, Control_c, 0, 67, 115
1, 127435, Note_on_c, 0, 63, 82
1, 127444, Control_c, 0, 67, 114
1, 127444, Note_off_c, 0, 62, 58
1, 127459, Control_c, 0, 67, 112
1, 127474, Control_c, 0, 67, 111
1, 127488, Control_c, 0, 67, 108
1, 127503, Control_c, 0, 64, 32
1, 127503, Control_c, 0, 67, 105
1, 127505, Note_off_c, 0, 70, 59
1, 127518, Control_c, 0, 64, 60
1, 127518, Control_c, 0, 67, 103
1, 127520, Note_on_c, 0, 69, 69
1, 127525, Note_on_c, 0, 72, 74
1, 127532, Control_c, 0, 64, 66
1, 127532, Control_c, 0, 67, 99
1, 127541, Note_off_c, 0, 74, 44
1, 127547, Control_c, 0, 64, 71
1, 127547, Control_c, 0, 67, 93
1, 127548, Note_off_c, 0, 69, 66
1, 127557, Note_on_c, 0, 65, 74
1, 127562, Control_c, 0, 64, 75
1, 127562, Control_c, 0, 67, 87
1, 127566, Note_off_c, 0, 72, 63
1, 127570, Note_off_c, 0, 63, 62
1, 127577, Control_c, 0, 64, 76
1, 127577, Control_c, 0, 67, 81
1, 127592, Control_c, 0, 67, 77
1, 127606, Control_c, 0, 67, 73
1, 127621, Control_c, 0, 67, 68
1, 127636, Control_c, 0, 64, 75
1, 127636, Control_c, 0, 67, 64
1, 127651, Control_c, 0, 64, 73
1, 127651, Control_c, 0, 67, 60
1, 127666, Control_c, 0, 64, 71
1, 127666, Control_c, 0, 67, 57
1, 127680, Control_c, 0, 64, 68
1, 127680, Control_c, 0, 67, 56
1, 127695, Control_c, 0, 64, 65
1, 127695, Control_c, 0, 67, 54
1, 127710, Control_c, 0, 64, 63
1, 127710, Control_c, 0, 67, 51
1, 127725, Control_c, 0, 64, 58
1, 127725, Control_c, 0, 67, 49
1, 127728, Note_on_c, 0, 67, 76
1, 127728, Note_off_c, 0, 65, 63
1, 127737, Note_on_c, 0, 87, 83
1, 127739, Control_c, 0, 64, 47
1, 127739, Control_c, 0, 67, 46
1, 127740, Note_on_c, 0, 84, 76
1, 127754, Control_c, 0, 64, 36
1, 127754, Control_c, 0, 67, 45
1, 127769, Control_c, 0, 64, 30
1, 127769, Control_c, 0, 67, 44
1, 127784, Control_c, 0, 64, 17
1, 127784, Control_c, 0, 67, 42
1, 127799, Control_c, 0, 64, 0
1, 127799, Control_c, 0, 67, 42
1, 127814, Control_c, 0, 67, 41
1, 127832, Note_on_c, 0, 69, 80
1, 127854, Note_off_c, 0, 67, 54
1, 127873, Control_c, 0, 67, 41
1, 127903, Control_c, 0, 67, 40
1, 127929, Note_on_c, 0, 70, 86
1, 127932, Control_c, 0, 67, 40
1, 127936, Note_on_c, 0, 77, 77
1, 127953, Note_off_c, 0, 69, 59
1, 127957, Note_off_c, 0, 84, 61
1, 127999, Control_c, 0, 67, 39
1, 128000, Note_off_c, 0, 87, 62
1, 128028, Control_c, 0, 67, 39
1, 128033, Note_on_c, 0, 72, 85
1, 128060, Note_off_c, 0, 70, 64
1, 128115, Note_on_c, 0, 86, 79
1, 128119, Note_on_c, 0, 74, 87
1, 128124, Note_on_c, 0, 82, 78
1, 128125, Note_off_c, 0, 72, 64
1, 128177, Note_off_c, 0, 77, 59
1, 128192, Control_c, 0, 67, 39
1, 128192, Note_on_c, 0, 75, 81
1, 128207, Control_c, 0, 67, 40
1, 128222, Note_off_c, 0, 74, 65
1, 128222, Control_c, 0, 67, 41
1, 128237, Control_c, 0, 67, 42
1, 128267, Control_c, 0, 67, 42
1, 128281, Control_c, 0, 67, 43
1, 128296, Control_c, 0, 67, 44
1, 128305, Note_on_c, 0, 84, 81
1, 128306, Note_on_c, 0, 77, 76
1, 128311, Note_on_c, 0, 81, 80
1, 128311, Control_c, 0, 64, 43
1, 128311, Control_c, 0, 67, 45
1, 128312, Note_off_c, 0, 75, 64
1, 128326, Control_c, 0, 64, 60
1, 128337, Note_off_c, 0, 86, 65
1, 128341, Control_c, 0, 64, 66
1, 128341, Note_off_c, 0, 82, 63
1, 128355, Control_c, 0, 64, 72
1, 128355, Control_c, 0, 67, 45
1, 128362, Note_off_c, 0, 81, 65
1, 128370, Control_c, 0, 64, 78
1, 128380, Note_off_c, 0, 84, 64
1, 128385, Control_c, 0, 64, 83
1, 128385, Control_c, 0, 67, 46
1, 128400, Control_c, 0, 64, 85
1, 128415, Control_c, 0, 64, 85
1, 128429, Control_c, 0, 64, 86
1, 128473, Control_c, 0, 64, 85
1, 128488, Control_c, 0, 64, 85
1, 128488, Control_c, 0, 67, 46
1, 128503, Control_c, 0, 64, 84
1, 128518, Control_c, 0, 64, 82
1, 128532, Note_on_c, 0, 91, 100
1, 128533, Control_c, 0, 64, 79
1, 128547, Control_c, 0, 64, 74
1, 128547, Control_c, 0, 67, 47
1, 128553, Note_on_c, 0, 84, 63
1, 128556, Note_on_c, 0, 81, 68
1, 128560, Note_on_c, 0, 75, 66
1, 128562, Control_c, 0, 64, 68
1, 128562, Control_c, 0, 67, 48
1, 128577, Control_c, 0, 64, 63
1, 128580, Note_off_c, 0, 77, 55
1, 128592, Control_c, 0, 64, 58
1, 128607, Control_c, 0, 64, 54
1, 128622, Note_off_c, 0, 84, 58
1, 128622, Control_c, 0, 64, 56
1, 128630, Note_off_c, 0, 81, 51
1, 128636, Control_c, 0, 64, 62
1, 128651, Control_c, 0, 64, 65
1, 128666, Control_c, 0, 64, 67
1, 128666, Control_c, 0, 67, 48
1, 128681, Control_c, 0, 64, 70
1, 128681, Control_c, 0, 67, 49
1, 128696, Control_c, 0, 64, 73
1, 128711, Control_c, 0, 64, 78
1, 128733, Control_c, 0, 64, 84
1, 128748, Control_c, 0, 64, 89
1, 128759, Note_on_c, 0, 82, 75
1, 128762, Control_c, 0, 64, 93
1, 128773, Note_on_c, 0, 74, 69
1, 128777, Control_c, 0, 64, 96
1, 128783, Note_off_c, 0, 75, 56
1, 128785, Note_on_c, 0, 77, 63
1, 128792, Control_c, 0, 64, 100
1, 128792, Control_c, 0, 67, 48
1, 128797, Note_off_c, 0, 91, 60
1, 128807, Control_c, 0, 64, 104
1, 128822, Control_c, 0, 64, 110
1, 128822, Control_c, 0, 67, 48
1, 128836, Control_c, 0, 64, 126
1, 128848, Note_off_c, 0, 82, 59
1, 128851, Control_c, 0, 64, 127
1, 128851, Control_c, 0, 67, 47
1, 128881, Control_c, 0, 67, 47
1, 128911, Control_c, 0, 67, 46
1, 128979, Note_on_c, 0, 89, 94
1, 128990, Note_on_c, 0, 82, 75
1, 129000, Control_c, 0, 64, 111
1, 129007, Note_on_c, 0, 73, 58
1, 129015, Control_c, 0, 64, 100
1, 129015, Control_c, 0, 67, 46
1, 129030, Control_c, 0, 64, 90
1, 129045, Control_c, 0, 64, 77
1, 129060, Control_c, 0, 64, 66
1, 129060, Control_c, 0, 67, 45
1, 129075, Control_c, 0, 64, 48
1, 129075, Control_c, 0, 67, 45
1, 129084, Note_off_c, 0, 74, 53
1, 129090, Control_c, 0, 64, 0
1, 129090, Control_c, 0, 67, 44
1, 129104, Control_c, 0, 67, 43
1, 129131, Note_off_c, 0, 77, 49
1, 129156, Note_off_c, 0, 82, 62
1, 129164, Control_c, 0, 64, 32
1, 129178, Control_c, 0, 64, 57
1, 129193, Control_c, 0, 64, 63
1, 129208, Control_c, 0, 64, 65
1, 129218, Note_on_c, 0, 82, 67
1, 129223, Control_c, 0, 64, 67
1, 129223, Control_c, 0, 67, 44
1, 129238, Control_c, 0, 64, 71
1, 129240, Note_on_c, 0, 79, 56
1, 129241, Note_on_c, 0, 72, 58
1, 129242, Note_off_c, 0, 73, 63
1, 129252, Control_c, 0, 64, 75
1, 129252, Control_c, 0, 67, 44
1, 129267, Control_c, 0, 64, 80
1, 129282, Control_c, 0, 64, 84
1, 129296, Control_c, 0, 64, 88
1, 129311, Control_c, 0, 64, 92
1, 129326, Control_c, 0, 64, 95
1, 129327, Note_off_c, 0, 82, 63
1, 129341, Control_c, 0, 64, 96
1, 129341, Control_c, 0, 67, 45
1, 129343, Note_off_c, 0, 79, 60
1, 129356, Control_c, 0, 64, 99
1, 129370, Control_c, 0, 64, 104
1, 129385, Control_c, 0, 64, 112
1, 129400, Control_c, 0, 64, 127
1, 129455, Note_on_c, 0, 84, 42
1, 129474, Note_on_c, 0, 87, 92
1, 129497, Note_off_c, 0, 89, 61
1, 129501, Note_on_c, 0, 81, 44
1, 129501, Note_on_c, 0, 65, 54
1, 129507, Note_off_c, 0, 72, 54
1, 129514, Note_off_c, 0, 84, 63
1, 129525, Note_off_c, 0, 81, 57
1, 129536, Note_off_c, 0, 87, 66
1, 129566, Note_off_c, 0, 65, 62
1, 129763, Control_c, 0, 67, 45
1, 129808, Control_c, 0, 67, 46
1, 129823, Control_c, 0, 64, 109
1, 129823, Control_c, 0, 67, 46
1, 129833, Note_on_c, 0, 86, 68
1, 129838, Control_c, 0, 64, 99
1, 129853, Control_c, 0, 64, 91
1, 129856, Note_on_c, 0, 58, 46
1, 129868, Control_c, 0, 64, 84
1, 129882, Control_c, 0, 64, 76
1, 129882, Control_c, 0, 67, 47
1, 129897, Control_c, 0, 64, 68
1, 129897, Control_c, 0, 67, 47
1, 129912, Control_c, 0, 64, 61
1, 129912, Control_c, 0, 67, 48
1, 129927, Control_c, 0, 64, 52
1, 129927, Control_c, 0, 67, 49
1, 129942, Control_c, 0, 64, 45
1, 129942, Control_c, 0, 67, 49
1, 129957, Control_c, 0, 64, 23
1, 129972, Control_c, 0, 64, 0
1, 129972, Control_c, 0, 67, 50
1, 129987, Control_c, 0, 67, 51
1, 130001, Control_c, 0, 67, 52
1, 130016, Control_c, 0, 67, 55
1, 130023, Note_on_c, 0, 77, 44
1, 130031, Control_c, 0, 67, 60
1, 130045, Control_c, 0, 67, 66
1, 130060, Control_c, 0, 67, 74
1, 130075, Control_c, 0, 64, 43
1, 130075, Control_c, 0, 67, 85
1, 130090, Control_c, 0, 64, 59
1, 130090, Control_c, 0, 67, 95
1, 130104, Note_off_c, 0, 77, 44
1, 130105, Control_c, 0, 64, 64
1, 130105, Control_c, 0, 67, 102
1, 130119, Control_c, 0, 64, 66
1, 130119, Control_c, 0, 67, 107
1, 130130, Note_on_c, 0, 64, 38
1, 130134, Note_on_c, 0, 79, 42
1, 130134, Control_c, 0, 64, 70
1, 130134, Control_c, 0, 67, 113
1, 130136, Note_on_c, 0, 61, 24
1, 130149, Control_c, 0, 64, 74
1, 130149, Control_c, 0, 67, 116
1, 130164, Control_c, 0, 64, 79
1, 130164, Control_c, 0, 67, 119
1, 130179, Control_c, 0, 64, 84
1, 130179, Control_c, 0, 67, 121
1, 130193, Control_c, 0, 64, 88
1, 130193, Control_c, 0, 67, 122
1, 130208, Control_c, 0, 64, 91
1, 130208, Control_c, 0, 67, 123
1, 130230, Note_off_c, 0, 79, 38
1, 130231, Control_c, 0, 64, 93
1, 130231, Control_c, 0, 67, 123
1, 130241, Note_on_c, 0, 77, 47
1, 130246, Control_c, 0, 64, 95
1, 130260, Control_c, 0, 64, 96
1, 130275, Control_c, 0, 64, 98
1, 130290, Control_c, 0, 64, 101
1, 130300, Note_off_c, 0, 64, 55
1, 130305, Control_c, 0, 64, 101
1, 130313, Note_off_c, 0, 77, 57
1, 130339, Note_on_c, 0, 79, 49
1, 130364, Control_c, 0, 67, 122
1, 130371, Note_off_c, 0, 61, 42
1, 130393, Note_off_c, 0, 79, 42
1, 130395, Control_c, 0, 67, 122
1, 130424, Control_c, 0, 67, 121
1, 130431, Note_on_c, 0, 77, 51
1, 130439, Control_c, 0, 67, 121
1, 130453, Control_c, 0, 67, 120
1, 130483, Control_c, 0, 64, 101
1, 130494, Note_off_c, 0, 77, 50
1, 130496, Note_on_c, 0, 65, 38
1, 130498, Control_c, 0, 67, 120
1, 130511, Note_off_c, 0, 86, 50
1, 130513, Control_c, 0, 67, 119
1, 130515, Note_on_c, 0, 79, 56
1, 130528, Note_on_c, 0, 62, 32
1, 130541, Note_off_c, 0, 58, 37
1, 130542, Control_c, 0, 64, 100
1, 130557, Control_c, 0, 64, 98
1, 130572, Control_c, 0, 64, 97
1, 130587, Control_c, 0, 67, 118
1, 130600, Note_off_c, 0, 79, 60
1, 130613, Note_on_c, 0, 77, 56
1, 130632, Control_c, 0, 64, 97
1, 130647, Control_c, 0, 64, 96
1, 130662, Control_c, 0, 64, 95
1, 130676, Control_c, 0, 64, 94
1, 130691, Control_c, 0, 64, 92
1, 130696, Note_off_c, 0, 65, 40
1, 130696, Note_off_c, 0, 77, 61
1, 130706, Control_c, 0, 64, 89
1, 130717, Note_on_c, 0, 58, 42
1, 130717, Note_on_c, 0, 84, 76
1, 130719, Note_off_c, 0, 62, 40
1, 130721, Control_c, 0, 64, 84
1, 130736, Control_c, 0, 64, 77
1, 130750, Control_c, 0, 64, 71
1, 130765, Control_c, 0, 64, 68
1, 130780, Control_c, 0, 64, 66
1, 130795, Control_c, 0, 64, 65
1, 130810, Control_c, 0, 64, 64
1, 130824, Control_c, 0, 64, 62
1, 130839, Control_c, 0, 64, 59
1, 130851, Note_on_c, 0, 75, 53
1, 130854, Control_c, 0, 64, 50
1, 130869, Control_c, 0, 64, 29
1, 130884, Control_c, 0, 64, 0
1, 130914, Note_off_c, 0, 75, 53
1, 130933, Note_on_c, 0, 69, 38
1, 130938, Note_on_c, 0, 77, 54
1, 130940, Note_on_c, 0, 66, 49
1, 131021, Note_off_c, 0, 77, 60
1, 131039, Control_c, 0, 64, 31
1, 131045, Note_on_c, 0, 75, 53
1, 131054, Control_c, 0, 64, 55
1, 131069, Control_c, 0, 64, 64
1, 131069, Control_c, 0, 67, 118
1, 131084, Control_c, 0, 64, 68
1, 131084, Control_c, 0, 67, 117
1, 131099, Control_c, 0, 64, 72
1, 131110, Note_off_c, 0, 75, 57
1, 131114, Control_c, 0, 64, 77
1, 131128, Control_c, 0, 64, 82
1, 131128, Control_c, 0, 67, 117
1, 131139, Note_on_c, 0, 77, 53
1, 131143, Control_c, 0, 64, 86
1, 131143, Control_c, 0, 67, 116
1, 131157, Control_c, 0, 64, 88
1, 131172, Control_c, 0, 64, 90
1, 131180, Note_off_c, 0, 77, 55
1, 131187, Control_c, 0, 64, 92
1, 131202, Control_c, 0, 64, 94
1, 131202, Control_c, 0, 67, 116
1, 131217, Control_c, 0, 64, 97
1, 131217, Control_c, 0, 67, 115
1, 131229, Note_on_c, 0, 75, 54
1, 131230, Note_off_c, 0, 66, 38
1, 131231, Control_c, 0, 64, 100
1, 131246, Control_c, 0, 64, 101
1, 131302, Note_off_c, 0, 75, 48
1, 131304, Note_on_c, 0, 77, 58
1, 131310, Note_off_c, 0, 58, 37
1, 131320, Note_on_c, 0, 65, 46
1, 131329, Note_off_c, 0, 84, 57
1, 131361, Note_off_c, 0, 77, 62
1, 131387, Note_off_c, 0, 69, 43
1, 131391, Note_on_c, 0, 75, 61
1, 131420, Note_off_c, 0, 65, 36
1, 131425, Control_c, 0, 64, 100
1, 131440, Control_c, 0, 64, 98
1, 131442, Note_off_c, 0, 75, 44
1, 131454, Control_c, 0, 64, 97
1, 131469, Control_c, 0, 64, 95
1, 131484, Control_c, 0, 64, 91
1, 131495, Note_on_c, 0, 58, 49
1, 131497, Note_on_c, 0, 82, 75
1, 131498, Control_c, 0, 64, 83
1, 131513, Control_c, 0, 64, 74
1, 131526, Note_on_c, 0, 74, 57
1, 131528, Control_c, 0, 64, 67
1, 131543, Control_c, 0, 64, 63
1, 131558, Control_c, 0, 64, 61
1, 131588, Control_c, 0, 64, 64
1, 131588, Control_c, 0, 67, 116
1, 131594, Note_off_c, 0, 74, 63
1, 131602, Control_c, 0, 64, 68
1, 131602, Control_c, 0, 67, 116
1, 131611, Note_off_c, 0, 82, 63
1, 131617, Control_c, 0, 64, 72
1, 131625, Note_on_c, 0, 70, 62
1, 131632, Control_c, 0, 64, 76
1, 131632, Control_c, 0, 67, 117
1, 131647, Control_c, 0, 64, 81
1, 131662, Control_c, 0, 64, 87
1, 131677, Control_c, 0, 64, 93
1, 131686, Note_on_c, 0, 65, 49
1, 131691, Control_c, 0, 64, 98
1, 131696, Note_on_c, 0, 62, 47
1, 131704, Note_off_c, 0, 70, 58
1, 131706, Control_c, 0, 64, 102
1, 131728, Control_c, 0, 64, 105
1, 131730, Note_on_c, 0, 72, 62
1, 131743, Control_c, 0, 64, 105
1, 131748, Note_off_c, 0, 65, 51
1, 131750, Note_off_c, 0, 62, 56
1, 131812, Note_on_c, 0, 70, 71
1, 131826, Note_off_c, 0, 72, 55
1, 131847, Control_c, 0, 64, 103
1, 131862, Control_c, 0, 64, 97
1, 131877, Control_c, 0, 64, 88
1, 131886, Note_off_c, 0, 70, 54
1, 131892, Control_c, 0, 64, 78
1, 131892, Note_on_c, 0, 79, 81
1, 131904, Note_on_c, 0, 67, 56
1, 131906, Control_c, 0, 64, 66
1, 131918, Note_on_c, 0, 63, 42
1, 131921, Control_c, 0, 64, 60
1, 131951, Control_c, 0, 64, 64
1, 131966, Control_c, 0, 64, 68
1, 131967, Note_off_c, 0, 67, 61
1, 131980, Control_c, 0, 64, 73
1, 131985, Note_off_c, 0, 79, 61
1, 131987, Note_on_c, 0, 70, 72
1, 131995, Control_c, 0, 64, 79
1, 132010, Control_c, 0, 64, 83
1, 132024, Control_c, 0, 64, 88
1, 132039, Control_c, 0, 64, 92
1, 132054, Control_c, 0, 64, 93
1, 132063, Note_off_c, 0, 70, 58
1, 132069, Control_c, 0, 64, 94
1, 132073, Note_off_c, 0, 63, 35
1, 132076, Note_on_c, 0, 77, 83
1, 132084, Control_c, 0, 64, 95
1, 132097, Note_on_c, 0, 65, 59
1, 132104, Note_on_c, 0, 62, 57
1, 132106, Note_off_c, 0, 58, 50
1, 132135, Note_off_c, 0, 65, 60
1, 132136, Note_off_c, 0, 62, 64
1, 132158, Control_c, 0, 64, 95
1, 132162, Note_on_c, 0, 70, 73
1, 132199, Note_off_c, 0, 77, 52
1, 132218, Control_c, 0, 64, 95
1, 132219, Note_off_c, 0, 70, 62
1, 132248, Control_c, 0, 64, 92
1, 132263, Control_c, 0, 64, 86
1, 132267, Note_on_c, 0, 77, 77
1, 132270, Note_on_c, 0, 70, 51
1, 132277, Control_c, 0, 64, 74
1, 132279, Note_on_c, 0, 53, 64
1, 132285, Note_on_c, 0, 62, 49
1, 132292, Control_c, 0, 64, 65
1, 132307, Control_c, 0, 64, 60
1, 132336, Control_c, 0, 64, 63
1, 132338, Note_off_c, 0, 62, 55
1, 132351, Control_c, 0, 64, 65
1, 132357, Note_off_c, 0, 70, 62
1, 132366, Control_c, 0, 64, 68
1, 132366, Control_c, 0, 67, 116
1, 132375, Note_on_c, 0, 65, 63
1, 132381, Control_c, 0, 64, 71
1, 132395, Control_c, 0, 64, 74
1, 132397, Note_off_c, 0, 77, 59
1, 132410, Control_c, 0, 64, 77
1, 132425, Control_c, 0, 64, 78
1, 132440, Control_c, 0, 64, 79
1, 132440, Control_c, 0, 67, 115
1, 132455, Control_c, 0, 64, 80
1, 132455, Control_c, 0, 67, 115
1, 132455, Note_on_c, 0, 75, 81
1, 132462, Note_off_c, 0, 65, 61
1, 132476, Note_on_c, 0, 69, 56
1, 132477, Control_c, 0, 64, 81
1, 132491, Note_on_c, 0, 63, 52
1, 132500, Note_on_c, 0, 60, 51
1, 132512, Note_off_c, 0, 69, 61
1, 132551, Control_c, 0, 67, 114
1, 132560, Note_off_c, 0, 63, 62
1, 132562, Note_on_c, 0, 65, 71
1, 132566, Control_c, 0, 64, 79
1, 132568, Note_off_c, 0, 75, 63
1, 132581, Control_c, 0, 64, 75
1, 132596, Control_c, 0, 64, 69
1, 132610, Control_c, 0, 64, 64
1, 132610, Control_c, 0, 67, 114
1, 132625, Control_c, 0, 64, 59
1, 132625, Control_c, 0, 67, 113
1, 132636, Note_off_c, 0, 60, 52
1, 132640, Control_c, 0, 64, 59
1, 132640, Control_c, 0, 67, 112
1, 132646, Note_off_c, 0, 65, 60
1, 132653, Note_on_c, 0, 74, 86
1, 132655, Control_c, 0, 64, 62
1, 132655, Control_c, 0, 67, 111
1, 132664, Note_on_c, 0, 70, 64
1, 132665, Note_on_c, 0, 62, 45
1, 132668, Note_on_c, 0, 58, 60
1, 132670, Control_c, 0, 64, 65
1, 132685, Control_c, 0, 64, 69
1, 132685, Control_c, 0, 67, 111
1, 132699, Control_c, 0, 64, 73
1, 132703, Note_off_c, 0, 70, 59
1, 132714, Control_c, 0, 64, 78
1, 132729, Control_c, 0, 64, 83
1, 132729, Control_c, 0, 67, 110
1, 132744, Control_c, 0, 64, 85
1, 132748, Note_on_c, 0, 65, 76
1, 132759, Control_c, 0, 64, 86
1, 132759, Control_c, 0, 67, 110
1, 132762, Note_off_c, 0, 74, 64
1, 132776, Note_off_c, 0, 58, 46
1, 132803, Note_off_c, 0, 62, 37
1, 132829, Note_on_c, 0, 72, 86
1, 132833, Control_c, 0, 64, 85
1, 132843, Note_off_c, 0, 65, 59
1, 132847, Control_c, 0, 67, 110
1, 132848, Note_on_c, 0, 57, 54
1, 132853, Note_on_c, 0, 60, 56
1, 132867, Note_off_c, 0, 53, 27
1, 132882, Note_off_c, 0, 57, 63
1, 132887, Note_off_c, 0, 60, 66
1, 132892, Control_c, 0, 64, 85
1, 132907, Control_c, 0, 64, 84
1, 132921, Control_c, 0, 64, 84
1, 132936, Control_c, 0, 67, 111
1, 132950, Note_on_c, 0, 65, 67
1, 132981, Control_c, 0, 64, 83
1, 132997, Control_c, 0, 64, 81
1, 133012, Control_c, 0, 64, 80
1, 133026, Control_c, 0, 64, 80
1, 133041, Control_c, 0, 64, 79
1, 133053, Note_on_c, 0, 74, 84
1, 133056, Note_on_c, 0, 46, 55
1, 133056, Control_c, 0, 64, 77
1, 133061, Note_off_c, 0, 65, 60
1, 133070, Control_c, 0, 64, 74
1, 133085, Control_c, 0, 64, 70
1, 133096, Note_off_c, 0, 72, 62
1, 133100, Control_c, 0, 64, 66
1, 133115, Control_c, 0, 64, 62
1, 133130, Control_c, 0, 64, 43
1, 133144, Control_c, 0, 64, 0
1, 133176, Note_on_c, 0, 65, 61
1, 133204, Control_c, 0, 67, 110
1, 133256, Note_on_c, 0, 52, 62
1, 133258, Note_off_c, 0, 65, 60
1, 133260, Note_on_c, 0, 67, 62
1, 133262, Note_on_c, 0, 49, 69
1, 133340, Note_off_c, 0, 67, 60
1, 133359, Control_c, 0, 64, 11
1, 133359, Control_c, 0, 67, 111
1, 133360, Note_on_c, 0, 65, 53
1, 133375, Control_c, 0, 64, 49
1, 133390, Control_c, 0, 64, 62
1, 133405, Control_c, 0, 64, 67
1, 133409, Note_off_c, 0, 65, 61
1, 133419, Control_c, 0, 64, 71
1, 133434, Control_c, 0, 64, 75
1, 133437, Note_on_c, 0, 67, 62
1, 133449, Control_c, 0, 64, 79
1, 133451, Note_off_c, 0, 52, 58
1, 133464, Control_c, 0, 64, 84
1, 133478, Control_c, 0, 64, 89
1, 133487, Note_off_c, 0, 49, 57
1, 133493, Control_c, 0, 64, 93
1, 133508, Control_c, 0, 64, 95
1, 133519, Note_off_c, 0, 67, 58
1, 133523, Control_c, 0, 64, 97
1, 133523, Control_c, 0, 67, 111
1, 133529, Note_on_c, 0, 65, 60
1, 133538, Control_c, 0, 64, 98
1, 133552, Control_c, 0, 64, 100
1, 133567, Control_c, 0, 64, 101
1, 133577, Note_off_c, 0, 74, 58
1, 133582, Control_c, 0, 64, 103
1, 133582, Control_c, 0, 67, 112
1, 133600, Note_off_c, 0, 65, 59
1, 133629, Note_on_c, 0, 50, 49
1, 133632, Note_on_c, 0, 53, 44
1, 133633, Note_on_c, 0, 67, 63
1, 133640, Note_off_c, 0, 46, 56
1, 133701, Control_c, 0, 67, 112
1, 133707, Note_on_c, 0, 65, 68
1, 133713, Note_off_c, 0, 67, 54
1, 133760, Control_c, 0, 64, 102
1, 133760, Control_c, 0, 67, 113
1, 133775, Control_c, 0, 64, 100
1, 133779, Note_off_c, 0, 53, 28
1, 133790, Control_c, 0, 64, 99
1, 133797, Note_off_c, 0, 65, 62
1, 133805, Control_c, 0, 64, 96
1, 133814, Note_on_c, 0, 46, 50
1, 133817, Note_on_c, 0, 72, 80
1, 133820, Control_c, 0, 64, 93
1, 133823, Note_off_c, 0, 50, 63
1, 133835, Control_c, 0, 64, 89
1, 133850, Control_c, 0, 64, 85
1, 133865, Control_c, 0, 64, 81
1, 133880, Control_c, 0, 64, 78
1, 133894, Control_c, 0, 64, 75
1, 133909, Control_c, 0, 64, 71
1, 133924, Control_c, 0, 64, 67
1, 133938, Note_on_c, 0, 63, 59
1, 133939, Control_c, 0, 64, 62
1, 133954, Control_c, 0, 64, 55
1, 133975, Control_c, 0, 64, 49
1, 133990, Control_c, 0, 64, 33
1, 134005, Note_off_c, 0, 63, 59
1, 134005, Control_c, 0, 64, 0
1, 134020, Control_c, 0, 67, 113
1, 134029, Note_on_c, 0, 54, 68
1, 134033, Note_on_c, 0, 57, 57
1, 134033, Note_on_c, 0, 65, 59
1, 134112, Note_off_c, 0, 65, 61
1, 134121, Note_on_c, 0, 63, 61
1, 134139, Control_c, 0, 67, 114
1, 134183, Control_c, 0, 64, 42
1, 134198, Control_c, 0, 64, 58
1, 134206, Note_off_c, 0, 63, 60
1, 134213, Control_c, 0, 64, 64
1, 134227, Control_c, 0, 64, 68
1, 134236, Note_on_c, 0, 65, 50
1, 134242, Control_c, 0, 64, 73
1, 134257, Control_c, 0, 64, 78
1, 134272, Control_c, 0, 64, 86
1, 134287, Control_c, 0, 64, 92
1, 134296, Note_off_c, 0, 65, 60
1, 134301, Control_c, 0, 64, 96
1, 134301, Control_c, 0, 67, 114
1, 134316, Control_c, 0, 64, 98
1, 134321, Note_on_c, 0, 63, 62
1, 134331, Control_c, 0, 64, 100
1, 134346, Control_c, 0, 64, 102
1, 134361, Control_c, 0, 64, 106
1, 134375, Control_c, 0, 64, 110
1, 134390, Control_c, 0, 64, 111
1, 134393, Note_off_c, 0, 63, 58
1, 134394, Note_off_c, 0, 54, 37
1, 134407, Note_on_c, 0, 65, 63
1, 134416, Note_on_c, 0, 53, 55
1, 134421, Note_off_c, 0, 46, 40
1, 134449, Note_off_c, 0, 72, 58
1, 134467, Note_off_c, 0, 65, 60
1, 134489, Note_off_c, 0, 53, 60
1, 134494, Control_c, 0, 64, 111
1, 134496, Note_on_c, 0, 63, 62
1, 134505, Note_off_c, 0, 57, 40
1, 134509, Control_c, 0, 64, 110
1, 134524, Control_c, 0, 64, 109
1, 134529, Note_off_c, 0, 63, 57
1, 134539, Control_c, 0, 64, 105
1, 134554, Control_c, 0, 64, 95
1, 134568, Control_c, 0, 64, 84
1, 134583, Control_c, 0, 64, 74
1, 134589, Note_on_c, 0, 70, 77
1, 134592, Note_on_c, 0, 46, 51
1, 134598, Control_c, 0, 64, 65
1, 134613, Note_on_c, 0, 62, 60
1, 134613, Control_c, 0, 64, 61
1, 134628, Control_c, 0, 64, 61
1, 134643, Control_c, 0, 64, 62
1, 134658, Control_c, 0, 64, 66
1, 134673, Control_c, 0, 64, 69
1, 134681, Note_off_c, 0, 62, 61
1, 134683, Note_off_c, 0, 70, 64
1, 134688, Control_c, 0, 64, 72
1, 134688, Control_c, 0, 67, 114
1, 134703, Control_c, 0, 64, 76
1, 134708, Note_on_c, 0, 58, 71
1, 134724, Control_c, 0, 64, 82
1, 134724, Control_c, 0, 67, 113
1, 134739, Control_c, 0, 64, 88
1, 134739, Control_c, 0, 67, 113
1, 134754, Control_c, 0, 64, 94
1, 134769, Control_c, 0, 64, 96
1, 134769, Control_c, 0, 67, 112
1, 134784, Control_c, 0, 64, 96
1, 134786, Note_on_c, 0, 53, 58
1, 134793, Note_on_c, 0, 50, 56
1, 134795, Note_off_c, 0, 58, 62
1, 134798, Control_c, 0, 67, 112
1, 134802, Note_on_c, 0, 60, 69
1, 134813, Control_c, 0, 67, 111
1, 134828, Control_c, 0, 67, 111
1, 134843, Note_off_c, 0, 53, 61
1, 134852, Note_off_c, 0, 50, 59
1, 134873, Control_c, 0, 67, 110
1, 134887, Control_c, 0, 67, 110
1, 134891, Note_on_c, 0, 58, 71
1, 134893, Note_off_c, 0, 60, 62
1, 134902, Control_c, 0, 64, 93
1, 134902, Control_c, 0, 67, 109
1, 134917, Control_c, 0, 64, 87
1, 134932, Control_c, 0, 64, 78
1, 134932, Control_c, 0, 67, 109
1, 134947, Control_c, 0, 64, 66
1, 134962, Control_c, 0, 64, 0
1, 134962, Control_c, 0, 67, 108
1, 134968, Note_on_c, 0, 67, 81
1, 134973, Note_off_c, 0, 58, 61
1, 134975, Note_on_c, 0, 55, 66
1, 134977, Control_c, 0, 67, 108
1, 134987, Note_on_c, 0, 51, 51
1, 135006, Control_c, 0, 67, 107
1, 135021, Control_c, 0, 64, 19
1, 135021, Control_c, 0, 67, 106
1, 135036, Control_c, 0, 64, 61
1, 135036, Control_c, 0, 67, 106
1, 135042, Note_off_c, 0, 55, 63
1, 135050, Control_c, 0, 64, 68
1, 135065, Control_c, 0, 64, 76
1, 135067, Note_off_c, 0, 67, 60
1, 135073, Note_on_c, 0, 58, 77
1, 135080, Control_c, 0, 64, 83
1, 135095, Control_c, 0, 64, 87
1, 135110, Control_c, 0, 64, 86
1, 135110, Control_c, 0, 67, 106
1, 135124, Control_c, 0, 64, 79
1, 135139, Control_c, 0, 64, 69
1, 135152, Note_off_c, 0, 58, 60
1, 135154, Control_c, 0, 64, 49
1, 135154, Control_c, 0, 67, 106
1, 135155, Note_on_c, 0, 65, 85
1, 135157, Note_off_c, 0, 51, 36
1, 135165, Note_on_c, 0, 50, 64
1, 135169, Control_c, 0, 64, 0
1, 135174, Note_on_c, 0, 53, 47
1, 135194, Note_off_c, 0, 46, 58
1, 135198, Control_c, 0, 64, 54
1, 135211, Note_off_c, 0, 50, 64
1, 135212, Note_off_c, 0, 53, 66
1, 135213, Control_c, 0, 64, 64
1, 135228, Control_c, 0, 64, 71
1, 135239, Note_on_c, 0, 58, 74
1, 135242, Control_c, 0, 64, 78
1, 135252, Note_off_c, 0, 65, 63
1, 135257, Control_c, 0, 64, 86
1, 135272, Control_c, 0, 64, 92
1, 135287, Control_c, 0, 64, 93
1, 135287, Control_c, 0, 67, 105
1, 135292, Note_off_c, 0, 58, 62
1, 135302, Control_c, 0, 64, 91
1, 135302, Control_c, 0, 67, 105
1, 135317, Control_c, 0, 64, 81
1, 135317, Control_c, 0, 67, 104
1, 135332, Control_c, 0, 64, 68
1, 135332, Control_c, 0, 67, 102
1, 135343, Note_on_c, 0, 65, 82
1, 135344, Note_on_c, 0, 58, 61
1, 135346, Control_c, 0, 64, 36
1, 135346, Control_c, 0, 67, 99
1, 135350, Note_on_c, 0, 41, 61
1, 135360, Note_on_c, 0, 50, 50
1, 135361, Control_c, 0, 64, 0
1, 135361, Control_c, 0, 67, 95
1, 135376, Control_c, 0, 67, 93
1, 135392, Control_c, 0, 67, 92
1, 135400, Note_off_c, 0, 50, 65
1, 135407, Control_c, 0, 64, 56
1, 135421, Control_c, 0, 64, 66
1, 135421, Control_c, 0, 67, 92
1, 135436, Control_c, 0, 64, 73
1, 135437, Note_on_c, 0, 53, 68
1, 135451, Control_c, 0, 64, 81
1, 135454, Note_off_c, 0, 58, 60
1, 135471, Note_off_c, 0, 65, 57
1, 135473, Control_c, 0, 64, 87
1, 135473, Control_c, 0, 67, 93
1, 135488, Control_c, 0, 64, 88
1, 135503, Control_c, 0, 64, 84
1, 135518, Control_c, 0, 64, 73
1, 135529, Note_off_c, 0, 53, 63
1, 135532, Note_on_c, 0, 63, 87
1, 135533, Control_c, 0, 64, 59
1, 135543, Note_on_c, 0, 48, 56
1, 135544, Note_on_c, 0, 57, 63
1, 135547, Note_on_c, 0, 51, 58
1, 135547, Control_c, 0, 64, 0
1, 135592, Control_c, 0, 64, 59
1, 135592, Control_c, 0, 67, 93
1, 135595, Note_off_c, 0, 57, 50
1, 135607, Control_c, 0, 64, 68
1, 135618, Note_off_c, 0, 51, 62
1, 135621, Control_c, 0, 64, 75
1, 135624, Note_on_c, 0, 53, 79
1, 135636, Control_c, 0, 64, 83
1, 135642, Note_off_c, 0, 63, 61
1, 135651, Control_c, 0, 64, 92
1, 135651, Control_c, 0, 67, 93
1, 135665, Control_c, 0, 64, 98
1, 135680, Control_c, 0, 64, 97
1, 135688, Note_off_c, 0, 48, 36
1, 135695, Control_c, 0, 64, 89
1, 135708, Note_off_c, 0, 53, 57
1, 135710, Control_c, 0, 64, 73
1, 135716, Note_on_c, 0, 62, 84
1, 135716, Note_on_c, 0, 58, 74
1, 135724, Note_on_c, 0, 46, 60
1, 135725, Note_on_c, 0, 50, 63
1, 135725, Control_c, 0, 64, 57
1, 135725, Control_c, 0, 67, 92
1, 135739, Control_c, 0, 64, 34
1, 135739, Control_c, 0, 67, 92
1, 135754, Control_c, 0, 64, 56
1, 135754, Control_c, 0, 67, 91
1, 135769, Control_c, 0, 64, 67
1, 135769, Control_c, 0, 67, 91
1, 135780, Note_off_c, 0, 58, 60
1, 135784, Control_c, 0, 64, 77
1, 135784, Control_c, 0, 67, 90
1, 135799, Control_c, 0, 64, 89
1, 135805, Note_on_c, 0, 53, 83
1, 135813, Control_c, 0, 64, 96
1, 135813, Control_c, 0, 67, 90
1, 135822, Note_off_c, 0, 62, 61
1, 135828, Control_c, 0, 64, 95
1, 135828, Control_c, 0, 67, 89
1, 135832, Note_off_c, 0, 46, 56
1, 135843, Control_c, 0, 64, 86
1, 135843, Control_c, 0, 67, 86
1, 135856, Note_off_c, 0, 50, 38
1, 135858, Control_c, 0, 64, 77
1, 135858, Control_c, 0, 67, 81
1, 135872, Control_c, 0, 64, 70
1, 135872, Control_c, 0, 67, 76
1, 135877, Note_off_c, 0, 53, 60
1, 135887, Control_c, 0, 64, 69
1, 135887, Control_c, 0, 67, 71
1, 135894, Note_on_c, 0, 60, 86
1, 135902, Control_c, 0, 64, 72
1, 135902, Control_c, 0, 67, 64
1, 135905, Note_on_c, 0, 45, 48
1, 135906, Note_off_c, 0, 41, 33
1, 135913, Note_on_c, 0, 48, 60
1, 135917, Control_c, 0, 64, 75
1, 135917, Control_c, 0, 67, 57
1, 135932, Control_c, 0, 64, 77
1, 135932, Control_c, 0, 67, 49
1, 135938, Note_off_c, 0, 45, 65
1, 135945, Note_off_c, 0, 48, 65
1, 135946, Control_c, 0, 67, 43
1, 135961, Control_c, 0, 64, 76
1, 135961, Control_c, 0, 67, 38
1, 135968, Note_off_c, 0, 60, 66
1, 135976, Control_c, 0, 64, 75
1, 135976, Control_c, 0, 67, 35
1, 135980, Note_on_c, 0, 53, 86
1, 135990, Control_c, 0, 64, 76
1, 135990, Control_c, 0, 67, 32
1, 136005, Control_c, 0, 64, 76
1, 136005, Control_c, 0, 67, 30
1, 136020, Control_c, 0, 64, 77
1, 136020, Control_c, 0, 67, 29
1, 136050, Control_c, 0, 64, 76
1, 136063, Note_off_c, 0, 53, 61
1, 136065, Control_c, 0, 64, 74
1, 136080, Control_c, 0, 64, 70
1, 136082, Note_on_c, 0, 58, 93
1, 136095, Control_c, 0, 64, 64
1, 136098, Note_on_c, 0, 34, 64
1, 136110, Control_c, 0, 64, 48
1, 136110, Control_c, 0, 67, 30
1, 136124, Control_c, 0, 64, 0
1, 136124, Control_c, 0, 67, 31
1, 136139, Control_c, 0, 67, 31
1, 136154, Control_c, 0, 67, 32
1, 136169, Control_c, 0, 67, 32
1, 136184, Note_on_c, 0, 54, 89
1, 136184, Control_c, 0, 67, 33
1, 136199, Control_c, 0, 67, 34
1, 136222, Control_c, 0, 67, 34
1, 136237, Control_c, 0, 67, 35
1, 136251, Control_c, 0, 67, 36
1, 136284, Note_on_c, 0, 50, 87
1, 136310, Control_c, 0, 67, 36
1, 136325, Control_c, 0, 67, 37
1, 136340, Control_c, 0, 67, 38
1, 136355, Control_c, 0, 67, 38
1, 136367, Note_off_c, 0, 34, 60
1, 136369, Note_off_c, 0, 54, 52
1, 136369, Control_c, 0, 64, 50
1, 136369, Control_c, 0, 67, 39
1, 136370, Note_on_c, 0, 42, 85
1, 136384, Control_c, 0, 64, 63
1, 136399, Control_c, 0, 64, 68
1, 136414, Control_c, 0, 64, 72
1, 136414, Control_c, 0, 67, 39
1, 136429, Control_c, 0, 64, 75
1, 136429, Control_c, 0, 67, 40
1, 136435, Note_off_c, 0, 50, 60
1, 136443, Control_c, 0, 64, 78
1, 136455, Note_on_c, 0, 41, 88
1, 136458, Control_c, 0, 64, 81
1, 136458, Control_c, 0, 67, 41
1, 136473, Control_c, 0, 64, 82
1, 136473, Control_c, 0, 67, 41
1, 136488, Control_c, 0, 64, 81
1, 136488, Control_c, 0, 67, 42
1, 136503, Control_c, 0, 64, 75
1, 136503, Control_c, 0, 67, 42
1, 136518, Control_c, 0, 64, 66
1, 136518, Control_c, 0, 67, 43
1, 136533, Control_c, 0, 64, 17
1, 136533, Control_c, 0, 67, 44
1, 136542, Note_off_c, 0, 42, 55
1, 136548, Control_c, 0, 64, 0
1, 136548, Control_c, 0, 67, 44
1, 136554, Note_on_c, 0, 53, 68
1, 136584, Note_off_c, 0, 41, 59
1, 136610, Note_off_c, 0, 58, 24
1, 136637, Note_off_c, 0, 53, 65
1, 136651, Note_on_c, 0, 34, 78
1, 136654, Note_on_c, 0, 50, 76
1, 136736, Note_off_c, 0, 34, 61
1, 136739, Note_on_c, 0, 58, 75
1, 136741, Note_off_c, 0, 50, 64
1, 136784, Control_c, 0, 67, 44
1, 136799, Control_c, 0, 67, 43
1, 136810, Note_off_c, 0, 58, 60
1, 136813, Control_c, 0, 64, 47
1, 136828, Control_c, 0, 64, 64
1, 136829, Note_on_c, 0, 29, 80
1, 136843, Control_c, 0, 64, 71
1, 136851, Note_on_c, 0, 53, 73
1, 136855, Note_off_c, 0, 29, 65
1, 136858, Control_c, 0, 64, 77
1, 136861, Note_on_c, 0, 55, 64
1, 136873, Control_c, 0, 64, 82
1, 136888, Control_c, 0, 64, 83
1, 136894, Note_off_c, 0, 55, 49
1, 136899, Note_off_c, 0, 53, 58
1, 136941, Note_on_c, 0, 58, 75
1, 137000, Control_c, 0, 64, 83
1, 137000, Control_c, 0, 67, 44
1, 137015, Control_c, 0, 64, 82
1, 137030, Control_c, 0, 67, 44
1, 137034, Note_on_c, 0, 51, 71
1, 137040, Note_on_c, 0, 57, 80
1, 137044, Control_c, 0, 67, 45
1, 137061, Note_off_c, 0, 58, 60
1, 137074, Control_c, 0, 64, 81
1, 137089, Control_c, 0, 64, 79
1, 137089, Control_c, 0, 67, 44
1, 137104, Control_c, 0, 64, 78
1, 137110, Note_off_c, 0, 51, 63
1, 137119, Note_on_c, 0, 58, 73
1, 137119, Control_c, 0, 64, 77
1, 137134, Note_on_c, 0, 50, 67
1, 137134, Control_c, 0, 64, 77
1, 137141, Note_off_c, 0, 57, 60
1, 137149, Control_c, 0, 64, 76
1, 137164, Control_c, 0, 64, 74
1, 137179, Control_c, 0, 64, 71
1, 137179, Control_c, 0, 67, 44
1, 137193, Control_c, 0, 64, 67
1, 137203, Note_on_c, 0, 48, 76
1, 137205, Note_off_c, 0, 50, 65
1, 137208, Control_c, 0, 64, 63
1, 137208, Control_c, 0, 67, 43
1, 137219, Note_on_c, 0, 60, 83
1, 137223, Control_c, 0, 64, 58
1, 137238, Control_c, 0, 64, 49
1, 137248, Note_off_c, 0, 58, 61
1, 137252, Control_c, 0, 64, 23
1, 137267, Control_c, 0, 64, 0
1, 137297, Note_off_c, 0, 48, 54
1, 137305, Note_on_c, 0, 46, 75
1, 137307, Note_on_c, 0, 62, 86
1, 137321, Note_off_c, 0, 60, 60
1, 137326, Control_c, 0, 67, 44
1, 137394, Note_on_c, 0, 63, 86
1, 137397, Note_on_c, 0, 45, 72
1, 137400, Control_c, 0, 67, 44
1, 137401, Note_on_c, 0, 41, 64
1, 137416, Note_off_c, 0, 62, 61
1, 137423, Note_off_c, 0, 46, 48
1, 137460, Control_c, 0, 67, 44
1, 137460, Note_off_c, 0, 45, 65
1, 137480, Note_off_c, 0, 63, 64
1, 137481, Note_on_c, 0, 48, 74
1, 137482, Note_off_c, 0, 41, 62
1, 137486, Note_on_c, 0, 60, 81
1, 137519, Control_c, 0, 67, 43
1, 137543, Note_off_c, 0, 48, 59
1, 137549, Control_c, 0, 67, 43
1, 137579, Control_c, 0, 67, 42
1, 137582, Note_on_c, 0, 46, 69
1, 137589, Note_on_c, 0, 70, 91
1, 137592, Note_off_c, 0, 60, 57
1, 137667, Control_c, 0, 67, 43
1, 137682, Control_c, 0, 67, 43
1, 137686, Note_on_c, 0, 66, 90
1, 137697, Control_c, 0, 64, 41
1, 137719, Control_c, 0, 64, 56
1, 137734, Control_c, 0, 64, 63
1, 137749, Control_c, 0, 64, 67
1, 137763, Control_c, 0, 64, 71
1, 137778, Control_c, 0, 64, 75
1, 137778, Control_c, 0, 67, 44
1, 137787, Note_on_c, 0, 62, 87
1, 137794, Control_c, 0, 64, 81
1, 137809, Control_c, 0, 64, 85
1, 137809, Control_c, 0, 67, 44
1, 137824, Control_c, 0, 64, 87
1, 137824, Control_c, 0, 67, 45
1, 137839, Control_c, 0, 64, 89
1, 137842, Note_off_c, 0, 46, 62
1, 137852, Note_off_c, 0, 66, 56
1, 137853, Control_c, 0, 64, 91
1, 137868, Control_c, 0, 64, 93
1, 137871, Note_on_c, 0, 54, 87
1, 137883, Control_c, 0, 64, 94
1, 137883, Control_c, 0, 67, 45
1, 137935, Note_off_c, 0, 62, 51
1, 137948, Note_off_c, 0, 70, 0
1, 137955, Note_on_c, 0, 53, 90
1, 137957, Control_c, 0, 64, 93
1, 137972, Control_c, 0, 64, 90
1, 137985, Poly_aftertouch_c, 0, 70, 127
1, 137987, Note_off_c, 0, 54, 65
1, 137987, Control_c, 0, 64, 83
1, 137987, Control_c, 0, 67, 45
1, 138002, Control_c, 0, 64, 77
1, 138016, Control_c, 0, 64, 71
1, 138031, Poly_aftertouch_c, 0, 70, 0
1, 138031, Control_c, 0, 64, 66
1, 138031, Control_c, 0, 67, 44
1, 138046, Control_c, 0, 64, 61
1, 138046, Control_c, 0, 67, 44
1, 138056, Note_on_c, 0, 65, 75
1, 138060, Control_c, 0, 64, 49
1, 138075, Control_c, 0, 64, 0
1, 138083, Note_off_c, 0, 53, 63
1, 138105, Control_c, 0, 67, 43
1, 138135, Control_c, 0, 67, 43
1, 138144, Note_off_c, 0, 65, 60
1, 138160, Note_on_c, 0, 46, 82
1, 138161, Note_on_c, 0, 62, 78
1, 138164, Control_c, 0, 67, 42
1, 138242, Note_off_c, 0, 46, 62
1, 138245, Note_on_c, 0, 70, 81
1, 138253, Note_off_c, 0, 62, 62
1, 138268, Control_c, 0, 67, 42
1, 138283, Control_c, 0, 64, 19
1, 138298, Control_c, 0, 64, 54
1, 138298, Control_c, 0, 67, 41
1, 138312, Control_c, 0, 64, 64
1, 138326, Note_off_c, 0, 70, 62
1, 138327, Control_c, 0, 64, 69
1, 138340, Note_on_c, 0, 41, 73
1, 138342, Control_c, 0, 64, 73
1, 138346, Note_on_c, 0, 65, 84
1, 138357, Control_c, 0, 64, 78
1, 138368, Note_off_c, 0, 41, 64
1, 138372, Control_c, 0, 64, 82
1, 138386, Control_c, 0, 64, 84
1, 138401, Control_c, 0, 64, 84
1, 138423, Note_off_c, 0, 65, 57
1, 138431, Control_c, 0, 64, 84
1, 138431, Control_c, 0, 67, 42
1, 138435, Note_on_c, 0, 70, 79
1, 138446, Control_c, 0, 67, 42
1, 138482, Control_c, 0, 67, 43
1, 138497, Control_c, 0, 64, 83
1, 138497, Control_c, 0, 67, 43
1, 138512, Control_c, 0, 64, 82
1, 138527, Control_c, 0, 64, 80
1, 138527, Control_c, 0, 67, 44
1, 138536, Note_on_c, 0, 69, 87
1, 138539, Note_on_c, 0, 63, 71
1, 138542, Control_c, 0, 64, 78
1, 138548, Note_off_c, 0, 70, 62
1, 138557, Control_c, 0, 64, 78
1, 138572, Control_c, 0, 67, 44
1, 138587, Control_c, 0, 64, 77
1, 138602, Control_c, 0, 64, 74
1, 138617, Note_off_c, 0, 63, 62
1, 138617, Control_c, 0, 64, 70
1, 138620, Note_on_c, 0, 70, 86
1, 138630, Note_on_c, 0, 62, 63
1, 138632, Control_c, 0, 64, 66
1, 138643, Note_off_c, 0, 69, 59
1, 138646, Control_c, 0, 64, 65
1, 138661, Control_c, 0, 64, 64
1, 138676, Control_c, 0, 64, 63
1, 138676, Control_c, 0, 67, 45
1, 138691, Control_c, 0, 64, 58
1, 138703, Note_on_c, 0, 60, 72
1, 138706, Control_c, 0, 64, 45
1, 138706, Control_c, 0, 67, 45
1, 138709, Note_off_c, 0, 62, 60
1, 138718, Note_on_c, 0, 72, 86
1, 138721, Control_c, 0, 64, 11
1, 138736, Control_c, 0, 64, 0
1, 138736, Control_c, 0, 67, 46
1, 138751, Control_c, 0, 67, 47
1, 138765, Control_c, 0, 67, 49
1, 138769, Note_off_c, 0, 70, 56
1, 138780, Control_c, 0, 67, 53
1, 138795, Control_c, 0, 67, 57
1, 138798, Note_off_c, 0, 60, 61
1, 138801, Note_on_c, 0, 58, 69
1, 138802, Note_on_c, 0, 74, 83
1, 138809, Control_c, 0, 67, 62
1, 138824, Control_c, 0, 67, 70
1, 138839, Control_c, 0, 67, 78
1, 138842, Note_off_c, 0, 72, 58
1, 138854, Control_c, 0, 67, 86
1, 138869, Control_c, 0, 67, 91
1, 138883, Control_c, 0, 67, 92
1, 138890, Note_off_c, 0, 58, 63
1, 138896, Note_on_c, 0, 75, 84
1, 138898, Control_c, 0, 67, 93
1, 138903, Note_off_c, 0, 74, 62
1, 138907, Note_on_c, 0, 57, 58
1, 138911, Note_on_c, 0, 53, 43
1, 138913, Control_c, 0, 67, 94
1, 138928, Control_c, 0, 67, 95
1, 138943, Control_c, 0, 67, 96
1, 138958, Control_c, 0, 67, 98
1, 138972, Control_c, 0, 67, 100
1, 138987, Control_c, 0, 67, 103
1, 138992, Note_on_c, 0, 72, 66
1, 139002, Control_c, 0, 64, 50
1, 139002, Control_c, 0, 67, 106
1, 139010, Note_off_c, 0, 57, 53
1, 139013, Note_on_c, 0, 60, 61
1, 139016, Control_c, 0, 64, 63
1, 139016, Control_c, 0, 67, 110
1, 139030, Note_off_c, 0, 75, 61
1, 139031, Control_c, 0, 64, 68
1, 139031, Control_c, 0, 67, 111
1, 139045, Note_off_c, 0, 72, 65
1, 139046, Control_c, 0, 64, 72
1, 139046, Control_c, 0, 67, 114
1, 139061, Control_c, 0, 64, 75
1, 139061, Control_c, 0, 67, 119
1, 139062, Note_off_c, 0, 53, 61
1, 139064, Note_off_c, 0, 60, 61
1, 139076, Control_c, 0, 64, 77
1, 139076, Control_c, 0, 67, 123
1, 139090, Control_c, 0, 64, 78
1, 139090, Control_c, 0, 67, 127
1, 139105, Control_c, 0, 64, 79
1, 139150, Control_c, 0, 64, 78
1, 139165, Control_c, 0, 64, 75
1, 139180, Control_c, 0, 64, 71
1, 139195, Control_c, 0, 64, 68
1, 139216, Control_c, 0, 64, 65
1, 139231, Control_c, 0, 64, 64
1, 139246, Control_c, 0, 64, 59
1, 139261, Control_c, 0, 64, 32
1, 139276, Control_c, 0, 64, 0
1, 139303, Note_on_c, 0, 74, 63
1, 139319, Note_on_c, 0, 62, 46
1, 139332, Note_on_c, 0, 58, 38
1, 139404, Note_on_c, 0, 72, 59
1, 139470, Note_off_c, 0, 74, 46
1, 139491, Note_on_c, 0, 70, 68
1, 139532, Note_off_c, 0, 72, 54
1, 139579, Note_off_c, 0, 58, 53
1, 139581, Note_off_c, 0, 62, 48
1, 139601, Note_on_c, 0, 60, 56
1, 139693, Note_on_c, 0, 58, 60
1, 139710, Note_off_c, 0, 60, 51
1, 139785, Note_off_c, 0, 70, 62
1, 139792, Note_on_c, 0, 67, 59
1, 139860, Note_off_c, 0, 67, 60
1, 139877, Note_on_c, 0, 65, 53
1, 139929, Note_off_c, 0, 58, 62
1, 139964, Control_c, 0, 64, 11
1, 139965, Note_on_c, 0, 55, 55
1, 139979, Control_c, 0, 64, 19
1, 140038, Control_c, 0, 64, 21
1, 140065, Note_off_c, 0, 55, 59
1, 140083, Note_on_c, 0, 53, 52
1, 140128, Control_c, 0, 64, 23
1, 140145, Note_off_c, 0, 65, 57
1, 140166, Note_on_c, 0, 63, 55
1, 140265, Note_on_c, 0, 62, 50
1, 140291, Note_off_c, 0, 63, 45
1, 140331, Note_off_c, 0, 53, 61
1, 140351, Note_on_c, 0, 51, 52
1, 140440, Control_c, 0, 64, 26
1, 140448, Note_off_c, 0, 51, 56
1, 140453, Note_on_c, 0, 50, 50
1, 140454, Control_c, 0, 64, 31
1, 140469, Control_c, 0, 64, 34
1, 140484, Control_c, 0, 64, 35
1, 140499, Control_c, 0, 64, 37
1, 140506, Note_off_c, 0, 62, 53
1, 140514, Control_c, 0, 64, 40
1, 140528, Control_c, 0, 64, 42
1, 140530, Note_on_c, 0, 60, 46
1, 140543, Control_c, 0, 64, 47
1, 140558, Control_c, 0, 64, 50
1, 140573, Control_c, 0, 64, 51
1, 140617, Control_c, 0, 64, 50
1, 140629, Note_off_c, 0, 60, 60
1, 140631, Note_on_c, 0, 58, 53
1, 140661, Control_c, 0, 64, 49
1, 140676, Control_c, 0, 64, 48
1, 140688, Note_off_c, 0, 50, 64
1, 140691, Control_c, 0, 64, 47
1, 140729, Control_c, 0, 64, 46
1, 140743, Note_on_c, 0, 48, 59
1, 140743, Control_c, 0, 64, 44
1, 140758, Control_c, 0, 64, 43
1, 140773, Control_c, 0, 64, 42
1, 140832, Control_c, 0, 64, 40
1, 140833, Note_off_c, 0, 48, 57
1, 140847, Control_c, 0, 64, 39
1, 140853, Note_on_c, 0, 46, 46
1, 140861, Control_c, 0, 64, 38
1, 140921, Control_c, 0, 64, 38
1, 140925, Note_off_c, 0, 58, 62
1, 140936, Control_c, 0, 64, 36
1, 140941, Note_on_c, 0, 55, 50
1, 141017, Note_off_c, 0, 55, 63
1, 141041, Note_on_c, 0, 53, 54
1, 141075, Note_off_c, 0, 46, 61
1, 141115, Control_c, 0, 64, 36
1, 141123, Note_on_c, 0, 43, 46
1, 141204, Note_off_c, 0, 43, 59
1, 141222, Note_on_c, 0, 41, 45
1, 141277, Control_c, 0, 64, 37
1, 141281, Note_off_c, 0, 53, 63
1, 141317, Note_on_c, 0, 51, 50
1, 141398, Note_off_c, 0, 51, 55
1, 141406, Note_on_c, 0, 50, 52
1, 141462, Note_off_c, 0, 41, 48
1, 141482, Note_on_c, 0, 39, 46
1, 141507, Control_c, 0, 64, 38
1, 141582, Note_off_c, 0, 39, 53
1, 141602, Note_on_c, 0, 38, 39
1, 141652, Note_off_c, 0, 50, 63
1, 141654, Control_c, 0, 64, 38
1, 141684, Control_c, 0, 64, 38
1, 141688, Note_on_c, 0, 48, 46
1, 141782, Note_off_c, 0, 48, 59
1, 141784, Note_off_c, 0, 38, 53
1, 141796, Note_on_c, 0, 46, 43
1, 141848, Control_c, 0, 64, 37
1, 141859, Note_on_c, 0, 36, 44
1, 141863, Control_c, 0, 64, 35
1, 141878, Control_c, 0, 64, 28
1, 141893, Control_c, 0, 64, 14
1, 141907, Control_c, 0, 64, 0
1, 141950, Note_off_c, 0, 36, 54
1, 141975, Note_on_c, 0, 34, 49
1, 142012, Note_off_c, 0, 34, 63
1, 142025, Control_c, 0, 64, 43
1, 142040, Control_c, 0, 64, 60
1, 142055, Control_c, 0, 64, 65
1, 142063, Note_off_c, 0, 46, 44
1, 142065, Note_on_c, 0, 48, 47
1, 142070, Control_c, 0, 64, 70
1, 142085, Control_c, 0, 64, 72
1, 142099, Control_c, 0, 64, 74
1, 142114, Control_c, 0, 64, 77
1, 142129, Control_c, 0, 64, 79
1, 142144, Control_c, 0, 64, 81
1, 142159, Control_c, 0, 64, 82
1, 142160, Note_off_c, 0, 48, 54
1, 142164, Note_on_c, 0, 46, 45
1, 142173, Control_c, 0, 64, 82
1, 142229, Note_off_c, 0, 46, 60
1, 142282, Note_on_c, 0, 65, 49
1, 142285, Control_c, 0, 64, 82
1, 142286, Note_on_c, 0, 68, 59
1, 142300, Control_c, 0, 64, 81
1, 142307, Note_off_c, 0, 65, 59
1, 142312, Note_off_c, 0, 68, 55
1, 142329, Control_c, 0, 64, 80
1, 142344, Control_c, 0, 64, 78
1, 142356, Note_on_c, 0, 68, 60
1, 142358, Control_c, 0, 64, 74
1, 142362, Note_on_c, 0, 65, 62
1, 142373, Control_c, 0, 64, 71
1, 142388, Control_c, 0, 64, 68
1, 142403, Control_c, 0, 64, 65
1, 142418, Control_c, 0, 64, 64
1, 142432, Control_c, 0, 64, 60
1, 142447, Control_c, 0, 64, 52
1, 142462, Control_c, 0, 64, 45
1, 142477, Control_c, 0, 64, 36
1, 142492, Control_c, 0, 64, 17
1, 142507, Control_c, 0, 64, 0
1, 143196, Note_on_c, 0, 63, 49
1, 143197, Note_on_c, 0, 67, 46
1, 143225, Note_off_c, 0, 65, 52
1, 143243, Note_off_c, 0, 68, 51
1, 143479, Control_c, 0, 64, 14
1, 143494, Control_c, 0, 64, 29
1, 143509, Control_c, 0, 64, 34
1, 143524, Control_c, 0, 64, 43
1, 143539, Control_c, 0, 64, 53
1, 143553, Control_c, 0, 64, 60
1, 143568, Control_c, 0, 64, 64
1, 143583, Control_c, 0, 64, 67
1, 143598, Control_c, 0, 64, 70
1, 143613, Control_c, 0, 64, 73
1, 143627, Control_c, 0, 64, 77
1, 143642, Control_c, 0, 64, 80
1, 143657, Control_c, 0, 64, 83
1, 143672, Control_c, 0, 64, 85
1, 143687, Control_c, 0, 64, 88
1, 143709, Control_c, 0, 64, 90
1, 143724, Control_c, 0, 64, 92
1, 143739, Control_c, 0, 64, 95
1, 143754, Control_c, 0, 64, 97
1, 143768, Control_c, 0, 64, 98
1, 143798, Control_c, 0, 64, 99
1, 143887, Control_c, 0, 64, 98
1, 143961, Control_c, 0, 64, 97
1, 143976, Control_c, 0, 64, 94
1, 143991, Control_c, 0, 64, 92
1, 144020, Control_c, 0, 64, 92
1, 144035, Control_c, 0, 64, 90
1, 144046, Note_on_c, 0, 77, 56
1, 144050, Control_c, 0, 64, 87
1, 144058, Note_on_c, 0, 70, 48
1, 144065, Control_c, 0, 64, 84
1, 144075, Note_on_c, 0, 65, 35
1, 144076, Note_on_c, 0, 62, 28
1, 144079, Control_c, 0, 64, 84
1, 144094, Control_c, 0, 64, 82
1, 144096, Note_off_c, 0, 67, 32
1, 144109, Control_c, 0, 64, 79
1, 144123, Control_c, 0, 64, 74
1, 144128, Note_off_c, 0, 63, 38
1, 144138, Control_c, 0, 64, 69
1, 144153, Control_c, 0, 64, 65
1, 144168, Control_c, 0, 64, 62
1, 144184, Control_c, 0, 64, 60
1, 144199, Control_c, 0, 64, 56
1, 144214, Control_c, 0, 64, 48
1, 144228, Control_c, 0, 64, 35
1, 144243, Control_c, 0, 64, 0
1, 144317, Control_c, 0, 64, 26
1, 144332, Control_c, 0, 64, 43
1, 144347, Control_c, 0, 64, 59
1, 144362, Control_c, 0, 64, 64
1, 144376, Control_c, 0, 64, 67
1, 144391, Control_c, 0, 64, 70
1, 144406, Control_c, 0, 64, 74
1, 144420, Control_c, 0, 64, 78
1, 144435, Control_c, 0, 64, 83
1, 144458, Control_c, 0, 64, 87
1, 144473, Control_c, 0, 64, 89
1, 144488, Control_c, 0, 64, 91
1, 144502, Control_c, 0, 64, 95
1, 144517, Control_c, 0, 64, 100
1, 144532, Control_c, 0, 64, 104
1, 144547, Control_c, 0, 64, 109
1, 144561, Control_c, 0, 64, 115
1, 144576, Control_c, 0, 64, 123
1, 144591, Control_c, 0, 64, 127
1, 144675, Note_off_c, 0, 70, 58
1, 144828, Control_c, 0, 64, 121
1, 144843, Control_c, 0, 64, 120
1, 144858, Control_c, 0, 64, 119
1, 144873, Control_c, 0, 64, 112
1, 144888, Control_c, 0, 64, 105
1, 144893, Note_on_c, 0, 80, 70
1, 144902, Control_c, 0, 64, 98
1, 144903, Note_on_c, 0, 63, 51
1, 144903, Note_on_c, 0, 68, 58
1, 144907, Note_on_c, 0, 60, 46
1, 144917, Control_c, 0, 64, 93
1, 144929, Note_off_c, 0, 77, 60
1, 144932, Control_c, 0, 64, 88
1, 144947, Control_c, 0, 64, 84
1, 144953, Note_off_c, 0, 62, 45
1, 144961, Control_c, 0, 64, 79
1, 144978, Control_c, 0, 64, 74
1, 144990, Note_off_c, 0, 65, 35
1, 144993, Control_c, 0, 64, 68
1, 145007, Control_c, 0, 64, 62
1, 145022, Control_c, 0, 64, 58
1, 145037, Control_c, 0, 64, 55
1, 145051, Control_c, 0, 64, 52
1, 145066, Control_c, 0, 64, 51
1, 145081, Control_c, 0, 64, 54
1, 145096, Control_c, 0, 64, 60
1, 145111, Control_c, 0, 64, 64
1, 145125, Control_c, 0, 64, 66
1, 145140, Control_c, 0, 64, 69
1, 145155, Control_c, 0, 64, 72
1, 145169, Control_c, 0, 64, 75
1, 145184, Control_c, 0, 64, 78
1, 145207, Control_c, 0, 64, 82
1, 145222, Control_c, 0, 64, 87
1, 145237, Control_c, 0, 64, 91
1, 145237, Control_c, 0, 67, 125
1, 145251, Control_c, 0, 64, 95
1, 145251, Control_c, 0, 67, 122
1, 145266, Control_c, 0, 64, 99
1, 145266, Control_c, 0, 67, 118
1, 145281, Control_c, 0, 64, 105
1, 145281, Control_c, 0, 67, 113
1, 145296, Control_c, 0, 64, 112
1, 145296, Control_c, 0, 67, 110
1, 145311, Control_c, 0, 64, 127
1, 145311, Control_c, 0, 67, 105
1, 145325, Control_c, 0, 67, 99
1, 145340, Control_c, 0, 67, 92
1, 145355, Control_c, 0, 67, 84
1, 145370, Control_c, 0, 67, 73
1, 145384, Control_c, 0, 67, 61
1, 145399, Control_c, 0, 67, 50
1, 145414, Control_c, 0, 67, 40
1, 145429, Control_c, 0, 67, 30
1, 145444, Control_c, 0, 67, 17
1, 145450, Note_off_c, 0, 80, 61
1, 145458, Control_c, 0, 67, 0
1, 145462, Note_off_c, 0, 68, 61
1, 145492, Note_off_c, 0, 60, 64
1, 145514, Note_off_c, 0, 63, 60
1, 145562, Control_c, 0, 64, 105
1, 145577, Control_c, 0, 64, 83
1, 145592, Control_c, 0, 64, 65
1, 145607, Control_c, 0, 64, 0
1, 145734, Note_on_c, 0, 67, 97
1, 145734, Note_on_c, 0, 79, 100
1, 145740, Note_on_c, 0, 62, 85
1, 145742, Note_on_c, 0, 59, 88
1, 145874, Control_c, 0, 64, 47
1, 145889, Control_c, 0, 64, 61
1, 145904, Control_c, 0, 64, 66
1, 145919, Control_c, 0, 64, 70
1, 145934, Control_c, 0, 64, 74
1, 145956, Control_c, 0, 64, 79
1, 145970, Control_c, 0, 64, 87
1, 145985, Control_c, 0, 64, 96
1, 146000, Control_c, 0, 64, 101
1, 146015, Control_c, 0, 64, 104
1, 146030, Control_c, 0, 64, 109
1, 146045, Control_c, 0, 64, 127
1, 146060, Note_off_c, 0, 67, 62
1, 146065, Note_off_c, 0, 79, 60
1, 146069, Note_off_c, 0, 62, 57
1, 146071, Note_off_c, 0, 59, 64
1, 146193, Control_c, 0, 64, 99
1, 146207, Control_c, 0, 64, 84
1, 146222, Control_c, 0, 64, 71
1, 146237, Control_c, 0, 64, 61
1, 146252, Control_c, 0, 64, 27
1, 146267, Control_c, 0, 64, 14
1, 146281, Control_c, 0, 64, 17
1, 146296, Control_c, 0, 64, 24
1, 146305, Note_on_c, 0, 74, 95
1, 146311, Control_c, 0, 64, 26
1, 146319, Note_on_c, 0, 62, 80
1, 146322, Note_on_c, 0, 58, 85
1, 146326, Control_c, 0, 64, 27
1, 146341, Control_c, 0, 64, 32
1, 146355, Control_c, 0, 64, 37
1, 146370, Control_c, 0, 64, 38
1, 146385, Control_c, 0, 64, 36
1, 146386, Note_off_c, 0, 62, 57
1, 146397, Note_off_c, 0, 58, 61
1, 146397, Note_off_c, 0, 74, 0
1, 146400, Control_c, 0, 64, 31
1, 146400, Note_on_c, 0, 79, 95
1, 146415, Control_c, 0, 64, 30
1, 146423, Poly_aftertouch_c, 0, 74, 0
1, 146429, Control_c, 0, 64, 29
1, 146444, Control_c, 0, 64, 34
1, 146448, Note_off_c, 0, 79, 64
1, 146459, Control_c, 0, 64, 51
1, 146474, Control_c, 0, 64, 63
1, 146489, Note_on_c, 0, 67, 85
1, 146489, Control_c, 0, 64, 70
1, 146490, Note_on_c, 0, 79, 92
1, 146495, Note_on_c, 0, 57, 93
1, 146496, Note_on_c, 0, 60, 96
1, 146504, Control_c, 0, 64, 80
1, 146519, Control_c, 0, 64, 96
1, 146533, Control_c, 0, 64, 127
1, 146547, Note_off_c, 0, 60, 68
1, 146547, Note_off_c, 0, 79, 63
1, 146553, Note_off_c, 0, 57, 67
1, 146560, Note_off_c, 0, 67, 61
1, 146579, Control_c, 0, 64, 101
1, 146593, Control_c, 0, 64, 80
1, 146608, Control_c, 0, 64, 62
1, 146623, Control_c, 0, 64, 0
1, 146668, Control_c, 0, 64, 28
1, 146683, Control_c, 0, 64, 31
1, 146704, Control_c, 0, 64, 27
1, 146712, Note_on_c, 0, 72, 84
1, 146719, Control_c, 0, 64, 26
1, 146763, Note_off_c, 0, 72, 66
1, 146778, Control_c, 0, 64, 23
1, 146793, Control_c, 0, 64, 0
1, 146805, Note_on_c, 0, 77, 91
1, 146853, Note_off_c, 0, 77, 64
1, 146889, Note_on_c, 0, 77, 82
1, 146894, Note_on_c, 0, 65, 82
1, 146896, Note_on_c, 0, 56, 93
1, 146896, Note_on_c, 0, 60, 85
1, 146897, Control_c, 0, 64, 58
1, 146912, Control_c, 0, 64, 67
1, 146917, Note_on_c, 0, 67, 53
1, 146927, Control_c, 0, 64, 76
1, 146935, Note_off_c, 0, 67, 40
1, 146942, Note_off_c, 0, 60, 65
1, 146942, Control_c, 0, 64, 87
1, 146943, Note_off_c, 0, 77, 63
1, 146944, Note_off_c, 0, 56, 67
1, 146956, Control_c, 0, 64, 100
1, 146971, Control_c, 0, 64, 107
1, 146974, Note_off_c, 0, 65, 55
1, 146986, Control_c, 0, 64, 108
1, 147001, Control_c, 0, 64, 109
1, 147045, Control_c, 0, 64, 103
1, 147060, Control_c, 0, 64, 95
1, 147075, Control_c, 0, 64, 87
1, 147082, Note_on_c, 0, 72, 87
1, 147090, Control_c, 0, 64, 79
1, 147104, Control_c, 0, 64, 69
1, 147119, Control_c, 0, 64, 56
1, 147134, Control_c, 0, 64, 0
1, 147167, Note_on_c, 0, 75, 92
1, 147170, Note_off_c, 0, 72, 62
1, 147211, Note_off_c, 0, 75, 65
1, 147237, Control_c, 0, 64, 57
1, 147249, Poly_aftertouch_c, 0, 75, 0
1, 147252, Control_c, 0, 64, 65
1, 147255, Note_on_c, 0, 55, 81
1, 147255, Note_on_c, 0, 63, 83
1, 147256, Note_on_c, 0, 75, 85
1, 147258, Note_on_c, 0, 60, 72
1, 147267, Control_c, 0, 64, 71
1, 147282, Control_c, 0, 64, 76
1, 147297, Control_c, 0, 64, 81
1, 147302, Note_off_c, 0, 60, 59
1, 147305, Note_off_c, 0, 63, 60
1, 147306, Note_off_c, 0, 55, 63
1, 147312, Control_c, 0, 64, 83
1, 147321, Note_off_c, 0, 75, 60
1, 147342, Control_c, 0, 64, 82
1, 147356, Control_c, 0, 64, 77
1, 147371, Control_c, 0, 64, 69
1, 147386, Control_c, 0, 64, 45
1, 147401, Control_c, 0, 64, 0
1, 147430, Note_on_c, 0, 69, 87
1, 147431, Control_c, 0, 64, 53
1, 147448, Note_on_c, 0, 60, 79
1, 147453, Note_on_c, 0, 54, 80
1, 147453, Control_c, 0, 64, 63
1, 147468, Control_c, 0, 64, 67
1, 147483, Control_c, 0, 64, 73
1, 147498, Control_c, 0, 64, 81
1, 147500, Note_off_c, 0, 60, 64
1, 147513, Control_c, 0, 64, 87
1, 147518, Note_off_c, 0, 54, 60
1, 147527, Note_on_c, 0, 74, 89
1, 147527, Control_c, 0, 64, 87
1, 147531, Note_off_c, 0, 69, 57
1, 147542, Control_c, 0, 64, 81
1, 147557, Control_c, 0, 64, 70
1, 147569, Note_off_c, 0, 74, 64
1, 147571, Control_c, 0, 64, 31
1, 147586, Control_c, 0, 64, 0
1, 147601, Control_c, 0, 64, 33
1, 147616, Note_on_c, 0, 67, 98
1, 147616, Control_c, 0, 64, 63
1, 147622, Note_on_c, 0, 53, 74
1, 147623, Note_on_c, 0, 59, 73
1, 147624, Note_on_c, 0, 62, 81
1, 147626, Note_on_c, 0, 74, 83
1, 147627, Note_on_c, 0, 55, 76
1, 147631, Control_c, 0, 64, 69
1, 147645, Note_off_c, 0, 62, 69
1, 147646, Control_c, 0, 64, 75
1, 147647, Note_off_c, 0, 74, 71
1, 147650, Note_off_c, 0, 67, 66
1, 147654, Note_off_c, 0, 59, 58
1, 147655, Note_off_c, 0, 55, 67
1, 147661, Control_c, 0, 64, 83
1, 147662, Note_off_c, 0, 53, 63
1, 147676, Control_c, 0, 64, 87
1, 147720, Control_c, 0, 64, 87
1, 147735, Control_c, 0, 64, 85
1, 147750, Control_c, 0, 64, 83
1, 147765, Control_c, 0, 64, 81
1, 147779, Control_c, 0, 64, 77
1, 147794, Control_c, 0, 64, 73
1, 147809, Control_c, 0, 64, 67
1, 147824, Control_c, 0, 64, 61
1, 147828, Note_on_c, 0, 79, 87
1, 147830, Note_on_c, 0, 72, 80
1, 147839, Control_c, 0, 64, 49
1, 147842, Note_on_c, 0, 60, 72
1, 147844, Note_on_c, 0, 51, 71
1, 147846, Note_on_c, 0, 55, 64
1, 147853, Control_c, 0, 64, 23
1, 147868, Control_c, 0, 64, 0
1, 147944, Note_on_c, 0, 84, 88
1, 147956, Note_off_c, 0, 72, 65
1, 147983, Note_off_c, 0, 60, 62
1, 148011, Note_off_c, 0, 55, 64
1, 148012, Note_off_c, 0, 84, 66
1, 148012, Note_off_c, 0, 79, 60
1, 148040, Note_off_c, 0, 51, 65
1, 148075, Control_c, 0, 67, 8
1, 148090, Control_c, 0, 67, 13
1, 148105, Control_c, 0, 67, 21
1, 148120, Control_c, 0, 67, 27
1, 148135, Control_c, 0, 67, 33
1, 148149, Control_c, 0, 67, 39
1, 148165, Control_c, 0, 67, 46
1, 148180, Control_c, 0, 67, 54
1, 148202, Control_c, 0, 67, 64
1, 148217, Control_c, 0, 67, 74
1, 148232, Control_c, 0, 67, 82
1, 148247, Control_c, 0, 67, 90
1, 148262, Control_c, 0, 67, 97
1, 148276, Control_c, 0, 67, 104
1, 148291, Control_c, 0, 67, 111
1, 148306, Control_c, 0, 64, 11
1, 148306, Control_c, 0, 67, 119
1, 148321, Control_c, 0, 64, 19
1, 148321, Control_c, 0, 67, 125
1, 148336, Control_c, 0, 64, 21
1, 148336, Control_c, 0, 67, 127
1, 148350, Control_c, 0, 64, 23
1, 148394, Note_on_c, 0, 65, 56
1, 148395, Control_c, 0, 64, 24
1, 148409, Control_c, 0, 64, 27
1, 148424, Control_c, 0, 64, 30
1, 148439, Control_c, 0, 64, 33
1, 148454, Control_c, 0, 64, 34
1, 148528, Control_c, 0, 64, 35
1, 148543, Control_c, 0, 64, 36
1, 148558, Control_c, 0, 64, 38
1, 148573, Control_c, 0, 64, 40
1, 148588, Control_c, 0, 64, 42
1, 148602, Control_c, 0, 64, 43
1, 148662, Control_c, 0, 64, 44
1, 148676, Control_c, 0, 64, 45
1, 148736, Control_c, 0, 64, 46
1, 148750, Control_c, 0, 64, 47
1, 148839, Control_c, 0, 64, 47
1, 148898, Control_c, 0, 64, 48
1, 148913, Control_c, 0, 64, 48
1, 148950, Control_c, 0, 64, 49
1, 148981, Control_c, 0, 64, 50
1, 148996, Control_c, 0, 64, 51
1, 149040, Control_c, 0, 64, 52
1, 149055, Control_c, 0, 64, 53
1, 149070, Control_c, 0, 64, 54
1, 149188, Control_c, 0, 64, 55
1, 149198, Note_on_c, 0, 63, 35
1, 149203, Control_c, 0, 64, 55
1, 149218, Control_c, 0, 64, 56
1, 149278, Note_off_c, 0, 65, 40
1, 149351, Control_c, 0, 64, 56
1, 149558, Control_c, 0, 64, 57
1, 149603, Control_c, 0, 64, 57
1, 149632, Control_c, 0, 64, 58
1, 149662, Control_c, 0, 64, 58
1, 149699, Control_c, 0, 64, 59
1, 149729, Control_c, 0, 64, 59
1, 149784, Note_off_c, 0, 63, 60
1, 149863, Control_c, 0, 64, 59
1, 149943, Note_on_c, 0, 75, 63
1, 149951, Note_on_c, 0, 69, 50
1, 149972, Note_on_c, 0, 66, 38
1, 150040, Control_c, 0, 64, 59
1, 150132, Note_on_c, 0, 48, 60
1, 150191, Note_off_c, 0, 48, 58
1, 150211, Note_on_c, 0, 54, 63
1, 150249, Note_off_c, 0, 54, 62
1, 150317, Note_on_c, 0, 54, 51
1, 150405, Note_off_c, 0, 54, 56
1, 150507, Note_on_c, 0, 45, 60
1, 150555, Note_off_c, 0, 45, 64
1, 150600, Note_on_c, 0, 51, 57
1, 150637, Note_off_c, 0, 51, 61
1, 150697, Note_on_c, 0, 51, 63
1, 150769, Note_off_c, 0, 51, 43
1, 150886, Note_on_c, 0, 41, 58
1, 150907, Note_off_c, 0, 69, 55
1, 150938, Note_off_c, 0, 41, 62
1, 150960, Note_off_c, 0, 66, 50
1, 150969, Note_on_c, 0, 48, 58
1, 151005, Note_off_c, 0, 48, 59
1, 151057, Note_on_c, 0, 48, 62
1, 151071, Control_c, 0, 64, 59
1, 151138, Note_off_c, 0, 48, 39
1, 151282, Note_on_c, 0, 49, 49
1, 151283, Note_on_c, 0, 73, 57
1, 151297, Note_on_c, 0, 70, 47
1, 151297, Note_on_c, 0, 65, 36
1, 151359, Note_off_c, 0, 49, 61
1, 151366, Note_off_c, 0, 70, 58
1, 151377, Note_off_c, 0, 73, 58
1, 151390, Note_off_c, 0, 65, 40
1, 151390, Note_off_c, 0, 75, 58
1, 151557, Note_on_c, 0, 73, 66
1, 151923, Control_c, 0, 64, 59
1, 152019, Control_c, 0, 64, 60
1, 152389, Control_c, 0, 64, 59
1, 152394, Note_on_c, 0, 72, 48
1, 152448, Control_c, 0, 64, 59
1, 152470, Note_off_c, 0, 73, 57
1, 152493, Control_c, 0, 64, 58
1, 152522, Control_c, 0, 64, 58
1, 152537, Control_c, 0, 64, 57
1, 152552, Control_c, 0, 64, 57
1, 152612, Control_c, 0, 64, 56
1, 152671, Control_c, 0, 64, 57
1, 152707, Control_c, 0, 64, 57
1, 152722, Control_c, 0, 64, 59
1, 152737, Control_c, 0, 64, 61
1, 152752, Control_c, 0, 64, 64
1, 152767, Control_c, 0, 64, 66
1, 152782, Control_c, 0, 64, 69
1, 152797, Control_c, 0, 64, 73
1, 152812, Control_c, 0, 64, 80
1, 152827, Control_c, 0, 64, 85
1, 152841, Control_c, 0, 64, 88
1, 152856, Control_c, 0, 64, 90
1, 152871, Control_c, 0, 64, 92
1, 152886, Control_c, 0, 64, 93
1, 152901, Control_c, 0, 64, 95
1, 152916, Control_c, 0, 64, 97
1, 152946, Control_c, 0, 64, 97
1, 152962, Note_off_c, 0, 72, 30
1, 152976, Control_c, 0, 64, 98
1, 153169, Control_c, 0, 64, 95
1, 153173, Note_on_c, 0, 72, 55
1, 153176, Note_on_c, 0, 81, 58
1, 153177, Note_on_c, 0, 78, 56
1, 153183, Control_c, 0, 64, 89
1, 153186, Note_on_c, 0, 74, 49
1, 153198, Control_c, 0, 64, 79
1, 153213, Control_c, 0, 64, 70
1, 153228, Control_c, 0, 64, 63
1, 153243, Control_c, 0, 64, 60
1, 153257, Control_c, 0, 64, 60
1, 153272, Control_c, 0, 64, 62
1, 153287, Control_c, 0, 64, 63
1, 153316, Control_c, 0, 64, 63
1, 153346, Control_c, 0, 64, 64
1, 153356, Note_on_c, 0, 62, 59
1, 153361, Control_c, 0, 64, 65
1, 153390, Control_c, 0, 64, 64
1, 153414, Note_off_c, 0, 62, 58
1, 153420, Control_c, 0, 64, 65
1, 153454, Note_on_c, 0, 69, 54
1, 153475, Note_off_c, 0, 69, 60
1, 153516, Control_c, 0, 64, 65
1, 153537, Note_on_c, 0, 69, 65
1, 153594, Note_off_c, 0, 69, 53
1, 153709, Control_c, 0, 64, 65
1, 153718, Note_on_c, 0, 54, 61
1, 153756, Note_off_c, 0, 54, 66
1, 153803, Note_on_c, 0, 60, 67
1, 153840, Note_off_c, 0, 60, 60
1, 153903, Note_on_c, 0, 60, 63
1, 153943, Note_off_c, 0, 60, 54
1, 154086, Note_on_c, 0, 50, 58
1, 154130, Note_off_c, 0, 50, 66
1, 154148, Note_on_c, 0, 57, 58
1, 154189, Note_off_c, 0, 57, 62
1, 154247, Note_on_c, 0, 57, 67
1, 154281, Control_c, 0, 64, 64
1, 154293, Note_off_c, 0, 57, 58
1, 154369, Control_c, 0, 64, 64
1, 154413, Control_c, 0, 64, 63
1, 154428, Control_c, 0, 64, 63
1, 154443, Control_c, 0, 64, 61
1, 154458, Control_c, 0, 64, 59
1, 154473, Control_c, 0, 64, 57
1, 154475, Note_on_c, 0, 38, 42
1, 154517, Control_c, 0, 64, 55
1, 154529, Note_off_c, 0, 72, 37
1, 154532, Control_c, 0, 64, 40
1, 154543, Note_on_c, 0, 50, 46
1, 154546, Control_c, 0, 64, 28
1, 154591, Note_off_c, 0, 38, 37
1, 154606, Note_off_c, 0, 50, 65
1, 154651, Control_c, 0, 64, 19
1, 154666, Control_c, 0, 64, 0
1, 154726, Note_off_c, 0, 81, 52
1, 154729, Note_on_c, 0, 72, 56
1, 154748, Note_off_c, 0, 74, 57
1, 154755, Note_off_c, 0, 78, 57
1, 155000, Control_c, 0, 64, 17
1, 155044, Control_c, 0, 64, 19
1, 155059, Control_c, 0, 64, 24
1, 155074, Control_c, 0, 64, 26
1, 155088, Control_c, 0, 64, 27
1, 155103, Control_c, 0, 64, 28
1, 155118, Control_c, 0, 64, 32
1, 155133, Control_c, 0, 64, 36
1, 155148, Control_c, 0, 64, 38
1, 155192, Control_c, 0, 64, 38
1, 155207, Control_c, 0, 64, 42
1, 155222, Control_c, 0, 64, 46
1, 155236, Control_c, 0, 64, 47
1, 155295, Control_c, 0, 64, 49
1, 155310, Control_c, 0, 64, 51
1, 155325, Control_c, 0, 64, 52
1, 155340, Control_c, 0, 64, 52
1, 155356, Control_c, 0, 64, 53
1, 155371, Control_c, 0, 64, 53
1, 155385, Control_c, 0, 64, 54
1, 155430, Control_c, 0, 64, 54
1, 155503, Control_c, 0, 64, 55
1, 155530, Note_on_c, 0, 71, 43
1, 155563, Control_c, 0, 64, 55
1, 155571, Note_off_c, 0, 72, 56
1, 155689, Control_c, 0, 64, 56
1, 155704, Control_c, 0, 64, 56
1, 155718, Control_c, 0, 64, 57
1, 155733, Control_c, 0, 64, 58
1, 155748, Control_c, 0, 64, 59
1, 155763, Control_c, 0, 64, 60
1, 155778, Control_c, 0, 64, 62
1, 155793, Control_c, 0, 64, 63
1, 155807, Control_c, 0, 64, 65
1, 155822, Control_c, 0, 64, 66
1, 155838, Control_c, 0, 64, 68
1, 155853, Control_c, 0, 64, 70
1, 155867, Control_c, 0, 64, 72
1, 155882, Control_c, 0, 64, 75
1, 155897, Control_c, 0, 64, 78
1, 155912, Control_c, 0, 64, 79
1, 155927, Control_c, 0, 64, 81
1, 155942, Control_c, 0, 64, 84
1, 155956, Control_c, 0, 64, 87
1, 155971, Control_c, 0, 64, 91
1, 155986, Control_c, 0, 64, 93
1, 156001, Control_c, 0, 64, 93
1, 156043, Note_off_c, 0, 71, 35
1, 156180, Control_c, 0, 64, 93
1, 156224, Control_c, 0, 64, 92
1, 156239, Control_c, 0, 64, 91
1, 156254, Control_c, 0, 64, 89
1, 156269, Control_c, 0, 64, 86
1, 156279, Note_on_c, 0, 81, 54
1, 156280, Note_on_c, 0, 78, 51
1, 156283, Control_c, 0, 64, 85
1, 156288, Note_on_c, 0, 75, 41
1, 156291, Note_on_c, 0, 71, 44
1, 156298, Control_c, 0, 64, 83
1, 156313, Control_c, 0, 64, 80
1, 156327, Control_c, 0, 64, 76
1, 156342, Control_c, 0, 64, 74
1, 156357, Control_c, 0, 64, 72
1, 156372, Control_c, 0, 64, 71
1, 156387, Control_c, 0, 64, 70
1, 156401, Control_c, 0, 64, 69
1, 156469, Note_on_c, 0, 54, 53
1, 156513, Control_c, 0, 64, 70
1, 156514, Note_off_c, 0, 54, 57
1, 156565, Note_on_c, 0, 63, 43
1, 156586, Control_c, 0, 64, 70
1, 156629, Note_off_c, 0, 63, 0
1, 156644, Note_on_c, 0, 63, 46
1, 156682, Note_off_c, 0, 63, 60
1, 156705, Control_c, 0, 64, 70
1, 156779, Control_c, 0, 64, 69
1, 156794, Control_c, 0, 64, 69
1, 156808, Control_c, 0, 64, 68
1, 156839, Note_on_c, 0, 51, 48
1, 156853, Control_c, 0, 64, 67
1, 156867, Control_c, 0, 64, 65
1, 156872, Note_off_c, 0, 51, 63
1, 156882, Control_c, 0, 64, 64
1, 156903, Note_on_c, 0, 59, 59
1, 156933, Note_off_c, 0, 59, 62
1, 157012, Note_on_c, 0, 59, 59
1, 157046, Control_c, 0, 64, 65
1, 157055, Note_off_c, 0, 59, 55
1, 157298, Note_on_c, 0, 54, 46
1, 157300, Poly_aftertouch_c, 0, 47, 0
1, 157334, Note_off_c, 0, 54, 56
1, 157335, Control_c, 0, 64, 65
1, 157381, Note_on_c, 0, 54, 51
1, 157394, Control_c, 0, 64, 66
1, 157409, Control_c, 0, 64, 66
1, 157414, Note_off_c, 0, 54, 64
1, 157453, Control_c, 0, 64, 66
1, 157542, Control_c, 0, 64, 65
1, 157572, Control_c, 0, 64, 66
1, 157595, Note_on_c, 0, 42, 34
1, 157602, Control_c, 0, 64, 65
1, 157638, Note_off_c, 0, 42, 52
1, 157669, Note_on_c, 0, 51, 48
1, 157706, Note_off_c, 0, 51, 61
1, 157720, Control_c, 0, 64, 65
1, 157749, Note_off_c, 0, 71, 46
1, 157810, Control_c, 0, 64, 64
1, 157849, Note_on_c, 0, 71, 60
1, 157854, Control_c, 0, 64, 64
1, 157856, Note_off_c, 0, 81, 44
1, 157869, Control_c, 0, 64, 63
1, 157878, Note_off_c, 0, 75, 44
1, 157878, Note_off_c, 0, 78, 50
1, 157899, Control_c, 0, 64, 62
1, 157913, Control_c, 0, 64, 62
1, 157966, Control_c, 0, 64, 61
1, 157995, Control_c, 0, 64, 61
1, 158099, Control_c, 0, 64, 61
1, 158128, Control_c, 0, 64, 62
1, 158173, Control_c, 0, 64, 62
1, 158187, Control_c, 0, 64, 63
1, 158202, Control_c, 0, 64, 63
1, 158276, Control_c, 0, 64, 64
1, 158291, Control_c, 0, 64, 64
1, 158440, Control_c, 0, 64, 65
1, 158618, Control_c, 0, 64, 65
1, 158666, Note_on_c, 0, 70, 43
1, 158716, Note_off_c, 0, 71, 51
1, 158922, Control_c, 0, 64, 66
1, 158937, Control_c, 0, 64, 67
1, 158952, Control_c, 0, 64, 67
1, 158982, Control_c, 0, 64, 68
1, 158997, Control_c, 0, 64, 69
1, 159011, Control_c, 0, 64, 71
1, 159026, Control_c, 0, 64, 75
1, 159041, Control_c, 0, 64, 79
1, 159056, Control_c, 0, 64, 82
1, 159071, Control_c, 0, 64, 83
1, 159085, Control_c, 0, 64, 85
1, 159100, Control_c, 0, 64, 87
1, 159115, Control_c, 0, 64, 89
1, 159129, Control_c, 0, 64, 92
1, 159144, Control_c, 0, 64, 95
1, 159159, Control_c, 0, 64, 98
1, 159174, Control_c, 0, 64, 100
1, 159185, Note_off_c, 0, 70, 55
1, 159189, Control_c, 0, 64, 101
1, 159412, Control_c, 0, 64, 100
1, 159434, Control_c, 0, 64, 99
1, 159449, Control_c, 0, 64, 96
1, 159464, Control_c, 0, 64, 92
1, 159476, Note_on_c, 0, 77, 61
1, 159477, Note_on_c, 0, 70, 54
1, 159477, Note_on_c, 0, 80, 59
1, 159479, Control_c, 0, 64, 86
1, 159480, Note_on_c, 0, 74, 55
1, 159494, Control_c, 0, 64, 81
1, 159508, Control_c, 0, 64, 77
1, 159523, Control_c, 0, 64, 74
1, 159538, Control_c, 0, 64, 72
1, 159553, Control_c, 0, 64, 68
1, 159567, Control_c, 0, 64, 65
1, 159597, Control_c, 0, 64, 65
1, 159612, Control_c, 0, 64, 66
1, 159656, Control_c, 0, 64, 66
1, 159658, Note_on_c, 0, 56, 61
1, 159671, Control_c, 0, 64, 67
1, 159686, Control_c, 0, 64, 68
1, 159692, Note_off_c, 0, 56, 64
1, 159737, Note_on_c, 0, 65, 56
1, 159745, Control_c, 0, 64, 69
1, 159760, Control_c, 0, 64, 69
1, 159761, Note_off_c, 0, 65, 64
1, 159790, Control_c, 0, 64, 69
1, 159805, Control_c, 0, 64, 68
1, 159829, Note_on_c, 0, 65, 68
1, 159834, Control_c, 0, 64, 69
1, 159849, Control_c, 0, 64, 68
1, 159853, Note_off_c, 0, 65, 68
1, 159864, Control_c, 0, 64, 68
1, 159878, Control_c, 0, 64, 68
1, 159923, Control_c, 0, 64, 68
1, 159938, Control_c, 0, 64, 67
1, 159997, Control_c, 0, 64, 67
1, 160010, Note_on_c, 0, 53, 67
1, 160012, Control_c, 0, 64, 66
1, 160041, Control_c, 0, 64, 67
1, 160047, Note_off_c, 0, 53, 66
1, 160056, Control_c, 0, 64, 68
1, 160070, Control_c, 0, 64, 69
1, 160085, Control_c, 0, 64, 70
1, 160100, Control_c, 0, 64, 71
1, 160102, Note_on_c, 0, 62, 64
1, 160115, Control_c, 0, 64, 72
1, 160130, Note_off_c, 0, 77, 37
1, 160130, Control_c, 0, 64, 74
1, 160132, Note_off_c, 0, 62, 64
1, 160146, Control_c, 0, 64, 75
1, 160155, Note_off_c, 0, 74, 62
1, 160157, Note_off_c, 0, 70, 61
1, 160161, Control_c, 0, 64, 76
1, 160195, Note_off_c, 0, 80, 60
1, 160197, Note_on_c, 0, 62, 71
1, 160198, Control_c, 0, 64, 75
1, 160213, Control_c, 0, 64, 75
1, 160222, Note_off_c, 0, 62, 65
1, 160243, Control_c, 0, 64, 74
1, 160272, Control_c, 0, 64, 74
1, 160287, Control_c, 0, 64, 73
1, 160345, Control_c, 0, 64, 71
1, 160360, Control_c, 0, 64, 68
1, 160375, Control_c, 0, 64, 66
1, 160378, Note_on_c, 0, 82, 81
1, 160383, Note_on_c, 0, 53, 63
1, 160386, Note_on_c, 0, 50, 44
1, 160389, Control_c, 0, 64, 66
1, 160404, Control_c, 0, 64, 68
1, 160411, Note_off_c, 0, 53, 67
1, 160418, Note_off_c, 0, 50, 57
1, 160419, Control_c, 0, 64, 72
1, 160434, Control_c, 0, 64, 72
1, 160449, Control_c, 0, 64, 72
1, 160464, Control_c, 0, 64, 71
1, 160473, Note_on_c, 0, 56, 63
1, 160478, Control_c, 0, 64, 69
1, 160481, Note_on_c, 0, 53, 54
1, 160504, Note_off_c, 0, 53, 62
1, 160505, Note_off_c, 0, 56, 62
1, 160538, Control_c, 0, 64, 68
1, 160566, Note_on_c, 0, 83, 82
1, 160568, Control_c, 0, 64, 69
1, 160571, Note_on_c, 0, 53, 68
1, 160575, Note_on_c, 0, 56, 58
1, 160582, Control_c, 0, 64, 71
1, 160597, Control_c, 0, 64, 73
1, 160598, Note_off_c, 0, 82, 61
1, 160617, Note_off_c, 0, 53, 64
1, 160625, Note_off_c, 0, 56, 51
1, 160627, Control_c, 0, 64, 72
1, 160642, Control_c, 0, 64, 69
1, 160656, Control_c, 0, 64, 68
1, 160671, Control_c, 0, 64, 69
1, 160686, Control_c, 0, 64, 71
1, 160700, Control_c, 0, 64, 74
1, 160715, Control_c, 0, 64, 76
1, 160730, Control_c, 0, 64, 77
1, 160747, Note_on_c, 0, 50, 60
1, 160753, Note_on_c, 0, 82, 80
1, 160757, Note_on_c, 0, 53, 60
1, 160762, Note_off_c, 0, 83, 63
1, 160774, Control_c, 0, 64, 78
1, 160775, Note_off_c, 0, 82, 67
1, 160789, Control_c, 0, 64, 78
1, 160818, Note_off_c, 0, 50, 62
1, 160824, Note_on_c, 0, 56, 75
1, 160826, Note_off_c, 0, 53, 66
1, 160845, Note_off_c, 0, 56, 69
1, 160878, Control_c, 0, 64, 79
1, 160893, Control_c, 0, 64, 80
1, 160908, Control_c, 0, 64, 80
1, 160930, Control_c, 0, 64, 79
1, 160945, Control_c, 0, 64, 74
1, 160961, Note_on_c, 0, 70, 83
1, 160961, Note_on_c, 0, 77, 81
1, 160961, Control_c, 0, 64, 69
1, 160962, Note_on_c, 0, 80, 82
1, 160964, Note_on_c, 0, 74, 80
1, 160976, Control_c, 0, 64, 65
1, 160991, Control_c, 0, 64, 66
1, 161005, Control_c, 0, 64, 66
1, 161020, Control_c, 0, 64, 66
1, 161079, Control_c, 0, 64, 65
1, 161138, Control_c, 0, 64, 66
1, 161152, Note_on_c, 0, 56, 78
1, 161153, Control_c, 0, 64, 65
1, 161168, Control_c, 0, 64, 65
1, 161183, Control_c, 0, 64, 63
1, 161197, Control_c, 0, 64, 58
1, 161212, Note_off_c, 0, 56, 61
1, 161212, Control_c, 0, 64, 49
1, 161227, Control_c, 0, 64, 38
1, 161242, Note_on_c, 0, 65, 78
1, 161242, Control_c, 0, 64, 28
1, 161257, Control_c, 0, 64, 11
1, 161257, Control_c, 0, 67, 127
1, 161271, Control_c, 0, 64, 0
1, 161274, Note_off_c, 0, 65, 65
1, 161316, Control_c, 0, 67, 127
1, 161333, Note_on_c, 0, 65, 84
1, 161361, Control_c, 0, 64, 36
1, 161376, Control_c, 0, 64, 50
1, 161385, Note_off_c, 0, 65, 64
1, 161391, Control_c, 0, 64, 55
1, 161405, Control_c, 0, 64, 59
1, 161420, Control_c, 0, 64, 63
1, 161420, Control_c, 0, 67, 127
1, 161435, Control_c, 0, 64, 67
1, 161449, Control_c, 0, 64, 69
1, 161449, Control_c, 0, 67, 126
1, 161464, Control_c, 0, 64, 68
1, 161464, Control_c, 0, 67, 126
1, 161479, Control_c, 0, 64, 66
1, 161479, Control_c, 0, 67, 125
1, 161494, Control_c, 0, 64, 64
1, 161494, Control_c, 0, 67, 123
1, 161509, Control_c, 0, 64, 61
1, 161509, Control_c, 0, 67, 121
1, 161523, Control_c, 0, 67, 118
1, 161524, Note_on_c, 0, 53, 68
1, 161527, Note_on_c, 0, 52, 66
1, 161538, Control_c, 0, 64, 64
1, 161538, Control_c, 0, 67, 116
1, 161553, Control_c, 0, 64, 66
1, 161553, Control_c, 0, 67, 114
1, 161565, Note_off_c, 0, 52, 62
1, 161568, Control_c, 0, 64, 64
1, 161568, Control_c, 0, 67, 111
1, 161569, Note_off_c, 0, 53, 63
1, 161583, Control_c, 0, 64, 61
1, 161583, Control_c, 0, 67, 108
1, 161596, Note_on_c, 0, 62, 76
1, 161597, Control_c, 0, 64, 54
1, 161597, Control_c, 0, 67, 104
1, 161612, Control_c, 0, 64, 44
1, 161612, Control_c, 0, 67, 100
1, 161627, Control_c, 0, 64, 49
1, 161627, Control_c, 0, 67, 96
1, 161642, Note_off_c, 0, 62, 60
1, 161642, Control_c, 0, 64, 60
1, 161642, Control_c, 0, 67, 91
1, 161656, Control_c, 0, 64, 65
1, 161656, Control_c, 0, 67, 84
1, 161679, Control_c, 0, 64, 69
1, 161679, Control_c, 0, 67, 76
1, 161694, Control_c, 0, 64, 74
1, 161694, Control_c, 0, 67, 71
1, 161695, Note_off_c, 0, 74, 58
1, 161698, Note_off_c, 0, 70, 61
1, 161700, Note_on_c, 0, 62, 78
1, 161709, Note_off_c, 0, 77, 61
1, 161709, Control_c, 0, 64, 79
1, 161709, Control_c, 0, 67, 69
1, 161724, Control_c, 0, 64, 85
1, 161724, Control_c, 0, 67, 66
1, 161734, Note_off_c, 0, 80, 63
1, 161738, Control_c, 0, 64, 88
1, 161738, Control_c, 0, 67, 62
1, 161748, Note_off_c, 0, 62, 64
1, 161754, Control_c, 0, 64, 89
1, 161754, Control_c, 0, 67, 56
1, 161769, Control_c, 0, 64, 88
1, 161769, Control_c, 0, 67, 50
1, 161784, Control_c, 0, 67, 48
1, 161799, Control_c, 0, 67, 46
1, 161814, Control_c, 0, 67, 44
1, 161828, Control_c, 0, 67, 41
1, 161843, Control_c, 0, 67, 39
1, 161858, Control_c, 0, 64, 88
1, 161858, Control_c, 0, 67, 38
1, 161873, Control_c, 0, 64, 85
1, 161873, Control_c, 0, 67, 37
1, 161888, Control_c, 0, 64, 78
1, 161888, Control_c, 0, 67, 36
1, 161902, Control_c, 0, 64, 70
1, 161902, Control_c, 0, 67, 34
1, 161907, Note_on_c, 0, 82, 89
1, 161913, Note_on_c, 0, 74, 90
1, 161915, Note_on_c, 0, 77, 89
1, 161917, Control_c, 0, 64, 62
1, 161917, Control_c, 0, 67, 29
1, 161932, Control_c, 0, 64, 57
1, 161932, Control_c, 0, 67, 20
1, 161946, Control_c, 0, 64, 63
1, 161946, Control_c, 0, 67, 0
1, 161961, Control_c, 0, 64, 67
1, 161976, Control_c, 0, 64, 71
1, 161991, Control_c, 0, 64, 74
1, 162006, Control_c, 0, 64, 77
1, 162020, Control_c, 0, 64, 80
1, 162035, Control_c, 0, 64, 86
1, 162050, Control_c, 0, 64, 91
1, 162065, Control_c, 0, 64, 92
1, 162079, Control_c, 0, 64, 89
1, 162088, Note_off_c, 0, 74, 63
1, 162094, Control_c, 0, 64, 81
1, 162099, Note_on_c, 0, 83, 92
1, 162100, Note_off_c, 0, 82, 64
1, 162103, Note_on_c, 0, 75, 90
1, 162109, Note_on_c, 0, 78, 94
1, 162109, Control_c, 0, 64, 72
1, 162124, Control_c, 0, 64, 67
1, 162136, Note_off_c, 0, 77, 65
1, 162139, Control_c, 0, 64, 70
1, 162154, Control_c, 0, 64, 76
1, 162169, Control_c, 0, 64, 81
1, 162184, Control_c, 0, 64, 84
1, 162213, Control_c, 0, 64, 83
1, 162243, Control_c, 0, 64, 84
1, 162258, Control_c, 0, 64, 89
1, 162272, Control_c, 0, 64, 100
1, 162280, Note_on_c, 0, 82, 101
1, 162283, Note_on_c, 0, 77, 94
1, 162287, Control_c, 0, 64, 127
1, 162289, Note_on_c, 0, 74, 94
1, 162295, Note_off_c, 0, 83, 66
1, 162300, Note_off_c, 0, 75, 39
1, 162303, Note_off_c, 0, 78, 65
1, 162309, Note_off_c, 0, 77, 64
1, 162312, Note_off_c, 0, 74, 69
1, 162313, Note_off_c, 0, 82, 70
1, 162566, Note_on_c, 0, 79, 94
1, 162568, Note_on_c, 0, 75, 96
1, 162568, Note_on_c, 0, 87, 99
1, 162569, Note_on_c, 0, 82, 94
1, 162574, Note_on_c, 0, 70, 89
1, 162574, Note_on_c, 0, 61, 89
1, 162576, Note_on_c, 0, 67, 89
1, 162607, Control_c, 0, 64, 95
1, 162622, Control_c, 0, 64, 79
1, 162637, Control_c, 0, 64, 67
1, 162652, Control_c, 0, 64, 31
1, 162666, Control_c, 0, 64, 0
1, 162696, Control_c, 0, 64, 47
1, 162711, Control_c, 0, 64, 61
1, 162726, Control_c, 0, 64, 65
1, 162741, Control_c, 0, 64, 70
1, 162756, Control_c, 0, 64, 77
1, 162770, Control_c, 0, 64, 86
1, 162785, Control_c, 0, 64, 95
1, 162800, Control_c, 0, 64, 104
1, 162807, Note_off_c, 0, 70, 61
1, 162815, Control_c, 0, 64, 116
1, 162830, Control_c, 0, 64, 127
1, 162830, Note_off_c, 0, 67, 62
1, 162839, Note_off_c, 0, 87, 54
1, 162839, Note_off_c, 0, 75, 56
1, 162845, Note_off_c, 0, 79, 57
1, 162861, Note_off_c, 0, 61, 63
1, 162874, Note_off_c, 0, 82, 55
1, 163099, Note_on_c, 0, 80, 86
1, 163105, Note_on_c, 0, 77, 70
1, 163125, Note_on_c, 0, 68, 72
1, 163129, Note_on_c, 0, 59, 67
1, 163142, Note_on_c, 0, 65, 57
1, 163153, Note_off_c, 0, 77, 62
1, 163173, Note_off_c, 0, 68, 56
1, 163176, Note_off_c, 0, 65, 64
1, 163183, Note_off_c, 0, 59, 61
1, 163194, Note_on_c, 0, 85, 99
1, 163214, Note_off_c, 0, 80, 65
1, 163233, Note_off_c, 0, 85, 65
1, 163236, Control_c, 0, 64, 104
1, 163251, Control_c, 0, 64, 82
1, 163266, Control_c, 0, 64, 66
1, 163281, Control_c, 0, 64, 49
1, 163288, Note_on_c, 0, 85, 97
1, 163296, Control_c, 0, 64, 58
1, 163301, Note_on_c, 0, 78, 70
1, 163309, Note_on_c, 0, 66, 70
1, 163310, Note_on_c, 0, 58, 64
1, 163310, Control_c, 0, 64, 66
1, 163313, Note_on_c, 0, 61, 61
1, 163318, Note_off_c, 0, 78, 68
1, 163325, Control_c, 0, 64, 74
1, 163337, Note_off_c, 0, 66, 65
1, 163340, Control_c, 0, 64, 84
1, 163343, Note_off_c, 0, 85, 59
1, 163348, Note_off_c, 0, 61, 64
1, 163355, Note_off_c, 0, 58, 61
1, 163356, Control_c, 0, 64, 95
1, 163371, Control_c, 0, 64, 107
1, 163386, Control_c, 0, 64, 119
1, 163400, Control_c, 0, 64, 127
1, 163430, Control_c, 0, 64, 110
1, 163445, Control_c, 0, 64, 94
1, 163460, Control_c, 0, 64, 78
1, 163474, Control_c, 0, 64, 67
1, 163484, Note_on_c, 0, 77, 80
1, 163487, Note_on_c, 0, 71, 74
1, 163489, Control_c, 0, 64, 64
1, 163492, Note_on_c, 0, 56, 60
1, 163503, Note_on_c, 0, 61, 58
1, 163504, Control_c, 0, 64, 65
1, 163519, Control_c, 0, 64, 69
1, 163533, Note_off_c, 0, 56, 64
1, 163534, Control_c, 0, 64, 75
1, 163549, Control_c, 0, 64, 83
1, 163561, Note_off_c, 0, 61, 52
1, 163564, Control_c, 0, 64, 96
1, 163567, Note_on_c, 0, 83, 85
1, 163577, Note_off_c, 0, 71, 62
1, 163579, Control_c, 0, 64, 108
1, 163585, Note_off_c, 0, 77, 64
1, 163593, Control_c, 0, 64, 124
1, 163606, Note_off_c, 0, 83, 61
1, 163608, Control_c, 0, 64, 127
1, 163638, Control_c, 0, 64, 121
1, 163651, Note_on_c, 0, 83, 83
1, 163653, Control_c, 0, 64, 94
1, 163667, Control_c, 0, 64, 78
1, 163668, Note_on_c, 0, 80, 72
1, 163675, Note_on_c, 0, 53, 59
1, 163682, Control_c, 0, 64, 66
1, 163685, Note_on_c, 0, 71, 61
1, 163693, Note_on_c, 0, 61, 42
1, 163697, Control_c, 0, 64, 56
1, 163712, Control_c, 0, 64, 45
1, 163726, Control_c, 0, 64, 48
1, 163738, Note_off_c, 0, 61, 60
1, 163741, Control_c, 0, 64, 63
1, 163746, Note_off_c, 0, 71, 60
1, 163756, Control_c, 0, 64, 68
1, 163756, Control_c, 0, 67, 9
1, 163771, Control_c, 0, 64, 73
1, 163771, Control_c, 0, 67, 14
1, 163786, Control_c, 0, 64, 79
1, 163786, Control_c, 0, 67, 19
1, 163800, Control_c, 0, 64, 86
1, 163800, Control_c, 0, 67, 24
1, 163802, Note_off_c, 0, 80, 62
1, 163815, Control_c, 0, 64, 92
1, 163815, Control_c, 0, 67, 30
1, 163830, Control_c, 0, 64, 92
1, 163830, Control_c, 0, 67, 36
1, 163844, Control_c, 0, 64, 90
1, 163844, Control_c, 0, 67, 42
1, 163859, Control_c, 0, 64, 88
1, 163859, Control_c, 0, 67, 49
1, 163864, Note_off_c, 0, 53, 56
1, 163865, Note_on_c, 0, 82, 87
1, 163874, Control_c, 0, 67, 55
1, 163885, Note_on_c, 0, 61, 65
1, 163885, Note_on_c, 0, 78, 61
1, 163889, Note_on_c, 0, 54, 61
1, 163889, Control_c, 0, 64, 89
1, 163889, Control_c, 0, 67, 62
1, 163892, Note_on_c, 0, 70, 49
1, 163904, Control_c, 0, 64, 92
1, 163904, Control_c, 0, 67, 69
1, 163926, Control_c, 0, 64, 93
1, 163926, Control_c, 0, 67, 75
1, 163927, Note_off_c, 0, 83, 61
1, 163941, Control_c, 0, 67, 82
1, 163945, Note_off_c, 0, 70, 63
1, 163955, Note_off_c, 0, 61, 59
1, 163956, Control_c, 0, 67, 89
1, 163957, Note_off_c, 0, 78, 62
1, 163968, Note_off_c, 0, 82, 64
1, 163971, Control_c, 0, 67, 97
1, 163986, Control_c, 0, 67, 101
1, 164000, Control_c, 0, 67, 102
1, 164008, Note_off_c, 0, 54, 57
1, 164015, Control_c, 0, 67, 103
1, 164030, Control_c, 0, 64, 92
1, 164030, Control_c, 0, 67, 105
1, 164044, Control_c, 0, 64, 88
1, 164044, Control_c, 0, 67, 107
1, 164059, Control_c, 0, 64, 81
1, 164059, Control_c, 0, 67, 111
1, 164074, Control_c, 0, 64, 72
1, 164074, Control_c, 0, 67, 116
1, 164079, Note_on_c, 0, 80, 73
1, 164089, Control_c, 0, 64, 63
1, 164089, Control_c, 0, 67, 120
1, 164095, Note_on_c, 0, 63, 56
1, 164104, Control_c, 0, 64, 50
1, 164104, Control_c, 0, 67, 125
1, 164107, Note_on_c, 0, 59, 46
1, 164118, Note_on_c, 0, 68, 45
1, 164119, Control_c, 0, 64, 45
1, 164119, Control_c, 0, 67, 127
1, 164133, Control_c, 0, 64, 47
1, 164149, Control_c, 0, 64, 56
1, 164164, Control_c, 0, 64, 63
1, 164176, Note_off_c, 0, 63, 56
1, 164179, Control_c, 0, 64, 67
1, 164194, Control_c, 0, 64, 72
1, 164209, Control_c, 0, 64, 77
1, 164211, Note_off_c, 0, 80, 61
1, 164223, Note_off_c, 0, 68, 60
1, 164223, Control_c, 0, 64, 82
1, 164238, Control_c, 0, 64, 86
1, 164253, Control_c, 0, 64, 87
1, 164282, Note_off_c, 0, 59, 54
1, 164294, Note_on_c, 0, 78, 59
1, 164297, Control_c, 0, 64, 88
1, 164309, Note_on_c, 0, 58, 57
1, 164312, Note_on_c, 0, 61, 46
1, 164312, Control_c, 0, 64, 89
1, 164319, Note_on_c, 0, 66, 49
1, 164327, Control_c, 0, 64, 89
1, 164344, Note_off_c, 0, 66, 57
1, 164392, Note_off_c, 0, 78, 57
1, 164467, Note_off_c, 0, 58, 33
1, 164484, Note_on_c, 0, 77, 73
1, 164490, Control_c, 0, 64, 89
1, 164492, Note_on_c, 0, 56, 56
1, 164505, Note_off_c, 0, 61, 33
1, 164505, Control_c, 0, 64, 87
1, 164510, Note_on_c, 0, 59, 38
1, 164520, Control_c, 0, 64, 82
1, 164529, Note_on_c, 0, 65, 26
1, 164535, Control_c, 0, 64, 77
1, 164549, Control_c, 0, 64, 71
1, 164564, Note_off_c, 0, 65, 45
1, 164564, Control_c, 0, 64, 67
1, 164579, Control_c, 0, 64, 66
1, 164594, Control_c, 0, 64, 67
1, 164607, Note_off_c, 0, 77, 63
1, 164609, Control_c, 0, 64, 69
1, 164623, Control_c, 0, 64, 73
1, 164638, Control_c, 0, 64, 77
1, 164653, Control_c, 0, 64, 82
1, 164675, Control_c, 0, 64, 86
1, 164679, Note_off_c, 0, 56, 35
1, 164689, Note_on_c, 0, 78, 72
1, 164690, Control_c, 0, 64, 87
1, 164696, Note_on_c, 0, 54, 51
1, 164697, Note_on_c, 0, 66, 62
1, 164705, Control_c, 0, 64, 88
1, 164708, Note_on_c, 0, 58, 52
1, 164738, Note_off_c, 0, 66, 53
1, 164754, Note_off_c, 0, 59, 30
1, 164758, Note_off_c, 0, 78, 61
1, 164764, Control_c, 0, 64, 87
1, 164779, Control_c, 0, 64, 87
1, 164794, Control_c, 0, 64, 86
1, 164809, Control_c, 0, 64, 85
1, 164813, Note_off_c, 0, 54, 54
1, 164822, Control_c, 0, 64, 83
1, 164833, Note_off_c, 0, 58, 37
1, 164837, Control_c, 0, 64, 81
1, 164851, Control_c, 0, 64, 80
1, 164866, Control_c, 0, 64, 78
1, 164881, Control_c, 0, 64, 76
1, 164896, Control_c, 0, 64, 71
1, 164911, Control_c, 0, 64, 64
1, 164925, Note_on_c, 0, 80, 81
1, 164926, Control_c, 0, 64, 56
1, 164932, Note_on_c, 0, 71, 61
1, 164941, Control_c, 0, 64, 47
1, 164950, Note_on_c, 0, 68, 51
1, 164956, Control_c, 0, 64, 46
1, 164971, Control_c, 0, 64, 42
1, 164986, Control_c, 0, 64, 0
1, 165113, Note_on_c, 0, 41, 63
1, 165161, Note_off_c, 0, 41, 62
1, 165189, Note_on_c, 0, 49, 63
1, 165218, Note_off_c, 0, 49, 65
1, 165267, Control_c, 0, 64, 33
1, 165282, Control_c, 0, 64, 57
1, 165283, Note_on_c, 0, 49, 73
1, 165296, Control_c, 0, 64, 64
1, 165311, Control_c, 0, 64, 67
1, 165323, Note_off_c, 0, 49, 61
1, 165326, Control_c, 0, 64, 70
1, 165341, Control_c, 0, 64, 73
1, 165356, Control_c, 0, 64, 78
1, 165370, Control_c, 0, 64, 83
1, 165385, Control_c, 0, 64, 86
1, 165400, Control_c, 0, 64, 87
1, 165466, Note_off_c, 0, 80, 50
1, 165469, Note_off_c, 0, 71, 57
1, 165480, Note_off_c, 0, 68, 48
1, 165516, Note_on_c, 0, 53, 39
1, 165556, Control_c, 0, 64, 85
1, 165571, Control_c, 0, 64, 82
1, 165583, Note_off_c, 0, 53, 63
1, 165586, Control_c, 0, 64, 79
1, 165594, Note_on_c, 0, 61, 55
1, 165601, Control_c, 0, 64, 78
1, 165630, Control_c, 0, 64, 77
1, 165634, Note_off_c, 0, 61, 61
1, 165645, Control_c, 0, 64, 75
1, 165660, Control_c, 0, 64, 69
1, 165675, Control_c, 0, 64, 64
1, 165689, Control_c, 0, 64, 59
1, 165690, Note_on_c, 0, 80, 79
1, 165701, Note_on_c, 0, 71, 58
1, 165704, Control_c, 0, 64, 56
1, 165716, Note_on_c, 0, 68, 54
1, 165719, Control_c, 0, 64, 55
1, 165734, Control_c, 0, 64, 52
1, 165750, Control_c, 0, 64, 37
1, 165765, Control_c, 0, 64, 0
1, 165883, Note_on_c, 0, 41, 59
1, 165931, Note_off_c, 0, 41, 62
1, 165968, Note_on_c, 0, 50, 54
1, 165999, Note_off_c, 0, 50, 66
1, 166057, Note_on_c, 0, 50, 56
1, 166061, Control_c, 0, 64, 41
1, 166076, Control_c, 0, 64, 56
1, 166091, Control_c, 0, 64, 63
1, 166097, Note_off_c, 0, 50, 65
1, 166106, Control_c, 0, 64, 67
1, 166120, Control_c, 0, 64, 71
1, 166135, Control_c, 0, 64, 76
1, 166150, Control_c, 0, 64, 80
1, 166172, Control_c, 0, 64, 82
1, 166187, Control_c, 0, 64, 84
1, 166202, Control_c, 0, 64, 85
1, 166241, Note_off_c, 0, 71, 59
1, 166266, Note_on_c, 0, 53, 58
1, 166291, Control_c, 0, 64, 84
1, 166296, Note_off_c, 0, 68, 50
1, 166296, Note_off_c, 0, 80, 48
1, 166306, Control_c, 0, 64, 83
1, 166319, Note_off_c, 0, 53, 62
1, 166320, Control_c, 0, 64, 81
1, 166363, Note_on_c, 0, 62, 51
1, 166365, Control_c, 0, 64, 81
1, 166380, Control_c, 0, 64, 80
1, 166390, Note_off_c, 0, 62, 62
1, 166394, Control_c, 0, 64, 79
1, 166409, Control_c, 0, 64, 76
1, 166424, Control_c, 0, 64, 74
1, 166439, Control_c, 0, 64, 73
1, 166453, Control_c, 0, 64, 72
1, 166458, Note_on_c, 0, 79, 70
1, 166468, Control_c, 0, 64, 69
1, 166470, Note_on_c, 0, 72, 51
1, 166480, Note_on_c, 0, 67, 50
1, 166483, Control_c, 0, 64, 66
1, 166498, Control_c, 0, 64, 63
1, 166512, Control_c, 0, 64, 62
1, 166527, Control_c, 0, 64, 61
1, 166543, Control_c, 0, 64, 60
1, 166558, Control_c, 0, 64, 59
1, 166573, Control_c, 0, 64, 58
1, 166588, Control_c, 0, 64, 57
1, 166603, Control_c, 0, 64, 56
1, 166617, Control_c, 0, 64, 56
1, 166632, Control_c, 0, 64, 54
1, 166634, Note_on_c, 0, 39, 53
1, 166647, Control_c, 0, 64, 53
1, 166676, Note_off_c, 0, 39, 59
1, 166706, Control_c, 0, 64, 52
1, 166711, Note_on_c, 0, 48, 59
1, 166721, Control_c, 0, 64, 50
1, 166735, Control_c, 0, 64, 50
1, 166739, Note_off_c, 0, 48, 65
1, 166750, Control_c, 0, 64, 51
1, 166765, Control_c, 0, 64, 55
1, 166780, Control_c, 0, 64, 59
1, 166795, Control_c, 0, 64, 62
1, 166810, Control_c, 0, 64, 64
1, 166814, Note_on_c, 0, 48, 65
1, 166825, Control_c, 0, 64, 66
1, 166840, Control_c, 0, 64, 68
1, 166843, Note_off_c, 0, 48, 65
1, 166850, Note_off_c, 0, 79, 56
1, 166855, Control_c, 0, 64, 71
1, 166864, Note_off_c, 0, 72, 63
1, 166869, Control_c, 0, 64, 75
1, 166884, Control_c, 0, 64, 79
1, 166899, Control_c, 0, 64, 81
1, 166921, Control_c, 0, 64, 82
1, 166936, Control_c, 0, 64, 82
1, 166968, Note_off_c, 0, 67, 39
1, 166995, Control_c, 0, 64, 82
1, 167010, Control_c, 0, 64, 81
1, 167013, Note_on_c, 0, 51, 53
1, 167025, Control_c, 0, 64, 80
1, 167039, Control_c, 0, 64, 79
1, 167054, Control_c, 0, 64, 77
1, 167064, Note_off_c, 0, 51, 59
1, 167068, Control_c, 0, 64, 73
1, 167083, Control_c, 0, 64, 69
1, 167093, Note_on_c, 0, 60, 58
1, 167098, Control_c, 0, 64, 66
1, 167113, Control_c, 0, 64, 64
1, 167128, Control_c, 0, 64, 63
1, 167129, Note_off_c, 0, 60, 65
1, 167142, Control_c, 0, 64, 61
1, 167157, Control_c, 0, 64, 58
1, 167172, Control_c, 0, 64, 54
1, 167187, Control_c, 0, 64, 50
1, 167193, Note_on_c, 0, 77, 73
1, 167206, Note_on_c, 0, 71, 53
1, 167218, Note_on_c, 0, 65, 48
1, 167224, Note_on_c, 0, 67, 40
1, 167351, Control_c, 0, 64, 51
1, 167365, Control_c, 0, 64, 51
1, 167376, Note_on_c, 0, 38, 52
1, 167380, Control_c, 0, 64, 52
1, 167395, Control_c, 0, 64, 52
1, 167410, Control_c, 0, 64, 53
1, 167419, Note_off_c, 0, 38, 61
1, 167452, Note_on_c, 0, 47, 49
1, 167469, Control_c, 0, 64, 52
1, 167481, Note_off_c, 0, 47, 61
1, 167484, Control_c, 0, 64, 51
1, 167499, Control_c, 0, 64, 50
1, 167528, Control_c, 0, 64, 52
1, 167543, Control_c, 0, 64, 58
1, 167557, Note_on_c, 0, 47, 59
1, 167558, Control_c, 0, 64, 63
1, 167573, Control_c, 0, 64, 66
1, 167585, Note_off_c, 0, 47, 66
1, 167588, Control_c, 0, 64, 69
1, 167603, Control_c, 0, 64, 73
1, 167610, Note_off_c, 0, 77, 58
1, 167618, Control_c, 0, 64, 77
1, 167632, Control_c, 0, 64, 81
1, 167647, Control_c, 0, 64, 85
1, 167653, Note_off_c, 0, 71, 61
1, 167669, Control_c, 0, 64, 87
1, 167684, Control_c, 0, 64, 87
1, 167698, Control_c, 0, 64, 88
1, 167733, Note_off_c, 0, 65, 61
1, 167742, Note_off_c, 0, 67, 36
1, 167757, Note_on_c, 0, 50, 50
1, 167758, Control_c, 0, 64, 88
1, 167773, Control_c, 0, 64, 88
1, 167814, Note_off_c, 0, 50, 59
1, 167817, Control_c, 0, 64, 87
1, 167854, Note_on_c, 0, 59, 49
1, 167877, Control_c, 0, 64, 85
1, 167882, Note_off_c, 0, 59, 62
1, 167891, Control_c, 0, 64, 82
1, 167906, Control_c, 0, 64, 80
1, 167921, Control_c, 0, 64, 79
1, 167936, Control_c, 0, 64, 79
1, 167944, Note_on_c, 0, 75, 63
1, 167950, Note_on_c, 0, 72, 53
1, 167951, Control_c, 0, 64, 77
1, 167964, Note_on_c, 0, 63, 42
1, 167965, Control_c, 0, 64, 75
1, 167969, Note_on_c, 0, 67, 41
1, 167980, Control_c, 0, 64, 71
1, 167995, Control_c, 0, 64, 68
1, 168010, Control_c, 0, 64, 67
1, 168024, Control_c, 0, 64, 66
1, 168039, Control_c, 0, 64, 65
1, 168054, Control_c, 0, 64, 63
1, 168069, Control_c, 0, 64, 61
1, 168084, Control_c, 0, 64, 60
1, 168113, Control_c, 0, 64, 59
1, 168128, Control_c, 0, 64, 56
1, 168130, Note_on_c, 0, 36, 43
1, 168144, Control_c, 0, 64, 49
1, 168159, Control_c, 0, 64, 42
1, 168174, Control_c, 0, 64, 42
1, 168175, Note_off_c, 0, 36, 59
1, 168188, Control_c, 0, 64, 41
1, 168203, Control_c, 0, 64, 38
1, 168215, Note_on_c, 0, 48, 46
1, 168218, Control_c, 0, 64, 14
1, 168233, Control_c, 0, 64, 0
1, 168245, Note_off_c, 0, 48, 59
1, 168306, Control_c, 0, 64, 34
1, 168320, Note_on_c, 0, 48, 60
1, 168321, Control_c, 0, 64, 54
1, 168336, Control_c, 0, 64, 62
1, 168348, Note_off_c, 0, 48, 65
1, 168351, Control_c, 0, 64, 65
1, 168366, Control_c, 0, 64, 69
1, 168381, Control_c, 0, 64, 73
1, 168396, Control_c, 0, 64, 77
1, 168418, Control_c, 0, 64, 82
1, 168433, Control_c, 0, 64, 84
1, 168447, Control_c, 0, 64, 85
1, 168464, Note_off_c, 0, 67, 55
1, 168477, Control_c, 0, 64, 85
1, 168490, Note_off_c, 0, 63, 57
1, 168515, Note_on_c, 0, 48, 38
1, 168530, Note_off_c, 0, 72, 37
1, 168530, Note_off_c, 0, 75, 60
1, 168536, Control_c, 0, 64, 85
1, 168570, Note_off_c, 0, 48, 58
1, 168582, Control_c, 0, 64, 84
1, 168596, Control_c, 0, 64, 83
1, 168606, Note_on_c, 0, 60, 45
1, 168611, Control_c, 0, 64, 81
1, 168626, Control_c, 0, 64, 80
1, 168633, Note_off_c, 0, 60, 58
1, 168655, Control_c, 0, 64, 80
1, 168670, Control_c, 0, 64, 78
1, 168685, Control_c, 0, 64, 75
1, 168700, Control_c, 0, 64, 72
1, 168709, Note_on_c, 0, 74, 63
1, 168715, Control_c, 0, 64, 71
1, 168718, Note_on_c, 0, 65, 49
1, 168720, Note_on_c, 0, 71, 47
1, 168727, Note_on_c, 0, 68, 44
1, 168730, Control_c, 0, 64, 70
1, 168745, Control_c, 0, 64, 70
1, 168759, Control_c, 0, 64, 67
1, 168774, Control_c, 0, 64, 64
1, 168789, Control_c, 0, 64, 61
1, 168804, Control_c, 0, 64, 60
1, 168848, Control_c, 0, 64, 59
1, 168863, Control_c, 0, 64, 58
1, 168878, Control_c, 0, 64, 57
1, 168891, Note_on_c, 0, 36, 50
1, 168929, Note_off_c, 0, 36, 59
1, 168938, Control_c, 0, 64, 57
1, 168953, Control_c, 0, 64, 54
1, 168967, Note_on_c, 0, 48, 50
1, 168968, Control_c, 0, 64, 52
1, 168983, Control_c, 0, 64, 51
1, 168998, Control_c, 0, 64, 51
1, 168999, Note_off_c, 0, 48, 59
1, 169027, Control_c, 0, 64, 52
1, 169042, Control_c, 0, 64, 55
1, 169056, Control_c, 0, 64, 60
1, 169071, Control_c, 0, 64, 64
1, 169073, Note_on_c, 0, 48, 53
1, 169086, Control_c, 0, 64, 66
1, 169101, Control_c, 0, 64, 68
1, 169106, Note_off_c, 0, 48, 64
1, 169116, Control_c, 0, 64, 71
1, 169131, Control_c, 0, 64, 74
1, 169145, Control_c, 0, 64, 79
1, 169163, Note_off_c, 0, 71, 59
1, 169168, Control_c, 0, 64, 82
1, 169178, Note_off_c, 0, 68, 49
1, 169183, Control_c, 0, 64, 83
1, 169189, Note_off_c, 0, 65, 56
1, 169198, Control_c, 0, 64, 83
1, 169240, Note_off_c, 0, 74, 60
1, 169263, Note_on_c, 0, 48, 45
1, 169301, Control_c, 0, 64, 82
1, 169316, Control_c, 0, 64, 81
1, 169326, Note_off_c, 0, 48, 57
1, 169331, Control_c, 0, 64, 81
1, 169345, Control_c, 0, 64, 80
1, 169360, Note_on_c, 0, 60, 44
1, 169360, Control_c, 0, 64, 79
1, 169375, Control_c, 0, 64, 77
1, 169390, Note_off_c, 0, 60, 65
1, 169390, Control_c, 0, 64, 75
1, 169405, Control_c, 0, 64, 73
1, 169419, Control_c, 0, 64, 72
1, 169434, Control_c, 0, 64, 72
1, 169437, Note_on_c, 0, 72, 56
1, 169449, Control_c, 0, 64, 71
1, 169451, Note_on_c, 0, 67, 47
1, 169452, Note_on_c, 0, 63, 42
1, 169463, Control_c, 0, 64, 69
1, 169478, Control_c, 0, 64, 66
1, 169493, Control_c, 0, 64, 64
1, 169508, Control_c, 0, 64, 63
1, 169537, Control_c, 0, 64, 63
1, 169552, Control_c, 0, 64, 62
1, 169567, Control_c, 0, 64, 61
1, 169582, Control_c, 0, 64, 60
1, 169597, Control_c, 0, 64, 59
1, 169669, Note_on_c, 0, 36, 13
1, 169707, Note_on_c, 0, 48, 56
1, 169716, Control_c, 0, 64, 59
1, 169717, Note_off_c, 0, 36, 49
1, 169740, Note_off_c, 0, 48, 63
1, 169761, Control_c, 0, 64, 60
1, 169776, Control_c, 0, 64, 64
1, 169791, Control_c, 0, 64, 66
1, 169806, Control_c, 0, 64, 68
1, 169821, Control_c, 0, 64, 71
1, 169824, Note_on_c, 0, 48, 53
1, 169835, Control_c, 0, 64, 75
1, 169850, Control_c, 0, 64, 79
1, 169856, Note_off_c, 0, 48, 64
1, 169865, Control_c, 0, 64, 82
1, 169880, Control_c, 0, 64, 85
1, 169881, Note_off_c, 0, 72, 56
1, 169891, Note_off_c, 0, 67, 60
1, 169894, Control_c, 0, 64, 86
1, 169916, Control_c, 0, 64, 87
1, 169931, Control_c, 0, 64, 88
1, 169946, Note_off_c, 0, 63, 56
1, 169946, Control_c, 0, 64, 88
1, 170017, Note_on_c, 0, 48, 45
1, 170050, Control_c, 0, 64, 88
1, 170065, Control_c, 0, 64, 87
1, 170073, Note_off_c, 0, 48, 54
1, 170111, Note_on_c, 0, 60, 47
1, 170124, Control_c, 0, 64, 86
1, 170139, Note_off_c, 0, 60, 64
1, 170139, Control_c, 0, 64, 83
1, 170154, Control_c, 0, 64, 82
1, 170168, Control_c, 0, 64, 81
1, 170183, Control_c, 0, 64, 81
1, 170198, Note_on_c, 0, 68, 50
1, 170198, Control_c, 0, 64, 80
1, 170209, Note_on_c, 0, 65, 38
1, 170212, Control_c, 0, 64, 78
1, 170214, Note_on_c, 0, 59, 38
1, 170219, Note_on_c, 0, 62, 33
1, 170227, Control_c, 0, 64, 74
1, 170242, Control_c, 0, 64, 71
1, 170257, Control_c, 0, 64, 68
1, 170272, Control_c, 0, 64, 67
1, 170286, Control_c, 0, 64, 66
1, 170301, Control_c, 0, 64, 66
1, 170316, Control_c, 0, 64, 65
1, 170331, Control_c, 0, 64, 64
1, 170346, Control_c, 0, 64, 64
1, 170360, Control_c, 0, 64, 62
1, 170375, Control_c, 0, 64, 59
1, 170381, Note_on_c, 0, 36, 45
1, 170390, Control_c, 0, 64, 53
1, 170405, Control_c, 0, 64, 49
1, 170420, Control_c, 0, 64, 49
1, 170435, Note_off_c, 0, 36, 43
1, 170463, Note_on_c, 0, 48, 49
1, 170489, Note_off_c, 0, 48, 60
1, 170494, Control_c, 0, 64, 52
1, 170509, Control_c, 0, 64, 58
1, 170524, Control_c, 0, 64, 62
1, 170539, Control_c, 0, 64, 63
1, 170554, Control_c, 0, 64, 65
1, 170569, Control_c, 0, 64, 68
1, 170584, Control_c, 0, 64, 72
1, 170588, Note_on_c, 0, 48, 55
1, 170599, Control_c, 0, 64, 76
1, 170614, Control_c, 0, 64, 78
1, 170617, Note_off_c, 0, 48, 64
1, 170628, Control_c, 0, 64, 80
1, 170643, Control_c, 0, 64, 81
1, 170665, Control_c, 0, 64, 82
1, 170675, Note_off_c, 0, 62, 51
1, 170677, Note_off_c, 0, 59, 38
1, 170691, Note_off_c, 0, 65, 52
1, 170735, Note_off_c, 0, 68, 38
1, 170769, Control_c, 0, 64, 81
1, 170770, Note_on_c, 0, 48, 45
1, 170784, Control_c, 0, 64, 81
1, 170798, Control_c, 0, 64, 80
1, 170813, Note_off_c, 0, 48, 59
1, 170855, Note_on_c, 0, 60, 47
1, 170857, Control_c, 0, 64, 79
1, 170872, Control_c, 0, 64, 78
1, 170881, Note_off_c, 0, 60, 61
1, 170887, Control_c, 0, 64, 77
1, 170916, Control_c, 0, 64, 76
1, 170931, Control_c, 0, 64, 76
1, 170946, Control_c, 0, 64, 74
1, 170951, Note_on_c, 0, 67, 49
1, 170952, Note_on_c, 0, 63, 36
1, 170961, Control_c, 0, 64, 73
1, 170973, Note_on_c, 0, 60, 48
1, 170976, Control_c, 0, 64, 70
1, 170990, Control_c, 0, 64, 67
1, 171005, Control_c, 0, 64, 65
1, 171020, Control_c, 0, 64, 65
1, 171049, Control_c, 0, 64, 64
1, 171079, Control_c, 0, 64, 63
1, 171094, Control_c, 0, 64, 62
1, 171108, Control_c, 0, 64, 60
1, 171123, Control_c, 0, 64, 58
1, 171136, Note_on_c, 0, 36, 44
1, 171138, Control_c, 0, 64, 57
1, 171153, Control_c, 0, 64, 56
1, 171168, Control_c, 0, 64, 55
1, 171183, Control_c, 0, 64, 53
1, 171188, Note_off_c, 0, 36, 55
1, 171198, Control_c, 0, 64, 53
1, 171213, Control_c, 0, 64, 54
1, 171223, Note_on_c, 0, 48, 41
1, 171227, Control_c, 0, 64, 57
1, 171242, Control_c, 0, 64, 59
1, 171253, Note_off_c, 0, 48, 49
1, 171257, Control_c, 0, 64, 61
1, 171272, Control_c, 0, 64, 63
1, 171287, Control_c, 0, 64, 65
1, 171301, Control_c, 0, 64, 66
1, 171316, Control_c, 0, 64, 69
1, 171329, Note_on_c, 0, 48, 49
1, 171332, Control_c, 0, 64, 71
1, 171347, Control_c, 0, 64, 74
1, 171362, Control_c, 0, 64, 79
1, 171362, Note_off_c, 0, 48, 65
1, 171377, Control_c, 0, 64, 81
1, 171392, Control_c, 0, 64, 82
1, 171397, Note_off_c, 0, 60, 47
1, 171438, Note_off_c, 0, 63, 59
1, 171458, Note_off_c, 0, 67, 56
1, 171487, Control_c, 0, 64, 81
1, 171517, Control_c, 0, 64, 81
1, 171520, Note_on_c, 0, 48, 46
1, 171561, Control_c, 0, 64, 80
1, 171571, Note_off_c, 0, 48, 60
1, 171576, Control_c, 0, 64, 78
1, 171591, Control_c, 0, 64, 77
1, 171618, Note_on_c, 0, 60, 41
1, 171644, Note_off_c, 0, 60, 59
1, 171665, Control_c, 0, 64, 75
1, 171680, Control_c, 0, 64, 74
1, 171693, Note_on_c, 0, 68, 53
1, 171695, Control_c, 0, 64, 73
1, 171702, Note_on_c, 0, 63, 40
1, 171710, Control_c, 0, 64, 72
1, 171717, Note_on_c, 0, 60, 44
1, 171725, Control_c, 0, 64, 71
1, 171739, Control_c, 0, 64, 70
1, 171754, Control_c, 0, 64, 69
1, 171769, Control_c, 0, 64, 68
1, 171799, Control_c, 0, 64, 68
1, 171813, Control_c, 0, 64, 67
1, 171828, Control_c, 0, 64, 67
1, 171843, Control_c, 0, 64, 65
1, 171857, Control_c, 0, 64, 65
1, 171872, Control_c, 0, 64, 64
1, 171875, Note_on_c, 0, 36, 48
1, 171927, Note_off_c, 0, 36, 56
1, 171931, Control_c, 0, 64, 64
1, 171946, Control_c, 0, 64, 63
1, 171953, Note_on_c, 0, 48, 51
1, 171961, Control_c, 0, 64, 63
1, 171976, Control_c, 0, 64, 61
1, 171979, Note_off_c, 0, 48, 61
1, 171991, Control_c, 0, 64, 59
1, 172006, Control_c, 0, 64, 59
1, 172021, Control_c, 0, 64, 61
1, 172035, Control_c, 0, 64, 64
1, 172050, Control_c, 0, 64, 65
1, 172056, Note_on_c, 0, 48, 57
1, 172065, Control_c, 0, 64, 66
1, 172080, Control_c, 0, 64, 67
1, 172094, Note_off_c, 0, 48, 60
1, 172095, Control_c, 0, 64, 69
1, 172110, Control_c, 0, 64, 71
1, 172125, Control_c, 0, 64, 72
1, 172140, Control_c, 0, 64, 74
1, 172162, Control_c, 0, 64, 75
1, 172177, Control_c, 0, 64, 76
1, 172192, Control_c, 0, 64, 77
1, 172211, Note_off_c, 0, 60, 37
1, 172219, Note_off_c, 0, 63, 47
1, 172233, Note_off_c, 0, 68, 58
1, 172258, Note_on_c, 0, 48, 50
1, 172310, Note_off_c, 0, 48, 59
1, 172326, Control_c, 0, 64, 77
1, 172337, Note_on_c, 0, 60, 49
1, 172368, Note_off_c, 0, 60, 65
1, 172385, Control_c, 0, 64, 76
1, 172400, Control_c, 0, 64, 74
1, 172414, Control_c, 0, 64, 71
1, 172426, Note_on_c, 0, 68, 56
1, 172429, Control_c, 0, 64, 69
1, 172440, Note_on_c, 0, 63, 42
1, 172444, Control_c, 0, 64, 69
1, 172459, Control_c, 0, 64, 68
1, 172474, Control_c, 0, 64, 66
1, 172489, Control_c, 0, 64, 65
1, 172503, Control_c, 0, 64, 64
1, 172533, Control_c, 0, 64, 64
1, 172618, Note_on_c, 0, 48, 55
1, 172668, Note_off_c, 0, 48, 59
1, 172697, Note_on_c, 0, 60, 42
1, 172727, Note_off_c, 0, 60, 57
1, 172741, Control_c, 0, 64, 64
1, 172785, Control_c, 0, 64, 63
1, 172796, Note_on_c, 0, 48, 57
1, 172814, Control_c, 0, 64, 64
1, 172829, Control_c, 0, 64, 65
1, 172844, Control_c, 0, 64, 67
1, 172859, Control_c, 0, 64, 69
1, 172874, Control_c, 0, 64, 72
1, 172879, Note_on_c, 0, 60, 46
1, 172888, Control_c, 0, 64, 74
1, 172896, Note_off_c, 0, 48, 61
1, 172911, Control_c, 0, 64, 77
1, 172918, Note_off_c, 0, 60, 65
1, 172926, Control_c, 0, 64, 79
1, 172942, Control_c, 0, 64, 80
1, 172963, Note_off_c, 0, 68, 52
1, 172971, Control_c, 0, 64, 81
1, 173001, Control_c, 0, 64, 81
1, 173104, Control_c, 0, 64, 80
1, 173119, Control_c, 0, 64, 78
1, 173134, Control_c, 0, 64, 75
1, 173149, Control_c, 0, 64, 71
1, 173164, Control_c, 0, 64, 68
1, 173178, Control_c, 0, 64, 66
1, 173179, Note_on_c, 0, 68, 57
1, 173190, Note_on_c, 0, 62, 49
1, 173193, Control_c, 0, 64, 65
1, 173208, Control_c, 0, 64, 64
1, 173237, Control_c, 0, 64, 64
1, 173252, Control_c, 0, 64, 63
1, 173267, Control_c, 0, 64, 62
1, 173278, Note_off_c, 0, 63, 54
1, 173282, Control_c, 0, 64, 63
1, 173297, Control_c, 0, 64, 63
1, 173360, Note_on_c, 0, 47, 58
1, 173371, Control_c, 0, 64, 64
1, 173429, Note_off_c, 0, 47, 60
1, 173456, Note_on_c, 0, 59, 41
1, 173460, Control_c, 0, 64, 64
1, 173475, Control_c, 0, 64, 64
1, 173485, Note_off_c, 0, 59, 52
1, 173490, Control_c, 0, 64, 63
1, 173543, Note_on_c, 0, 47, 64
1, 173549, Control_c, 0, 64, 64
1, 173578, Control_c, 0, 64, 65
1, 173593, Control_c, 0, 64, 67
1, 173608, Control_c, 0, 64, 69
1, 173622, Control_c, 0, 64, 71
1, 173631, Note_on_c, 0, 59, 49
1, 173637, Control_c, 0, 64, 73
1, 173643, Note_off_c, 0, 47, 60
1, 173660, Control_c, 0, 64, 76
1, 173669, Note_off_c, 0, 59, 63
1, 173675, Control_c, 0, 64, 78
1, 173690, Control_c, 0, 64, 80
1, 173702, Note_off_c, 0, 68, 58
1, 173705, Control_c, 0, 64, 81
1, 173735, Control_c, 0, 64, 81
1, 173749, Control_c, 0, 64, 82
1, 173868, Control_c, 0, 64, 81
1, 173883, Control_c, 0, 64, 80
1, 173898, Control_c, 0, 64, 76
1, 173899, Note_on_c, 0, 68, 72
1, 173912, Note_on_c, 0, 63, 63
1, 173913, Control_c, 0, 64, 71
1, 173927, Control_c, 0, 64, 65
1, 173942, Control_c, 0, 64, 62
1, 173957, Control_c, 0, 64, 61
1, 173965, Note_off_c, 0, 62, 59
1, 173972, Control_c, 0, 64, 62
1, 174031, Control_c, 0, 64, 63
1, 174046, Control_c, 0, 64, 64
1, 174060, Control_c, 0, 64, 64
1, 174075, Control_c, 0, 64, 65
1, 174083, Note_on_c, 0, 48, 66
1, 174149, Control_c, 0, 64, 64
1, 174152, Note_off_c, 0, 48, 59
1, 174173, Note_on_c, 0, 60, 53
1, 174179, Control_c, 0, 64, 64
1, 174202, Note_off_c, 0, 60, 61
1, 174267, Note_on_c, 0, 48, 68
1, 174268, Control_c, 0, 64, 64
1, 174283, Control_c, 0, 64, 65
1, 174298, Control_c, 0, 64, 67
1, 174313, Control_c, 0, 64, 69
1, 174327, Control_c, 0, 64, 71
1, 174342, Control_c, 0, 64, 75
1, 174357, Control_c, 0, 64, 80
1, 174361, Note_on_c, 0, 60, 59
1, 174369, Note_off_c, 0, 48, 60
1, 174372, Control_c, 0, 64, 83
1, 174386, Control_c, 0, 64, 85
1, 174390, Note_off_c, 0, 60, 66
1, 174408, Control_c, 0, 64, 86
1, 174429, Note_off_c, 0, 63, 56
1, 174434, Note_off_c, 0, 68, 60
1, 174438, Control_c, 0, 64, 86
1, 174617, Control_c, 0, 64, 85
1, 174627, Note_on_c, 0, 68, 81
1, 174632, Control_c, 0, 64, 82
1, 174647, Control_c, 0, 64, 77
1, 174650, Note_on_c, 0, 63, 60
1, 174662, Control_c, 0, 64, 72
1, 174676, Control_c, 0, 64, 68
1, 174691, Control_c, 0, 64, 64
1, 174706, Control_c, 0, 64, 62
1, 174721, Control_c, 0, 64, 61
1, 174751, Control_c, 0, 64, 61
1, 174780, Control_c, 0, 64, 62
1, 174823, Note_on_c, 0, 48, 69
1, 174824, Control_c, 0, 64, 62
1, 174839, Control_c, 0, 64, 63
1, 174854, Control_c, 0, 64, 63
1, 174896, Note_off_c, 0, 48, 61
1, 174898, Control_c, 0, 64, 63
1, 174900, Note_on_c, 0, 60, 60
1, 174928, Control_c, 0, 64, 62
1, 174936, Note_off_c, 0, 60, 63
1, 174943, Control_c, 0, 64, 62
1, 174957, Control_c, 0, 64, 61
1, 174972, Control_c, 0, 64, 61
1, 174987, Control_c, 0, 64, 61
1, 175001, Control_c, 0, 64, 63
1, 175003, Note_on_c, 0, 48, 74
1, 175016, Control_c, 0, 64, 65
1, 175031, Control_c, 0, 64, 68
1, 175046, Control_c, 0, 64, 71
1, 175061, Control_c, 0, 64, 75
1, 175067, Note_off_c, 0, 63, 62
1, 175075, Note_off_c, 0, 68, 64
1, 175076, Control_c, 0, 64, 80
1, 175091, Control_c, 0, 64, 85
1, 175097, Note_on_c, 0, 60, 68
1, 175099, Note_off_c, 0, 48, 62
1, 175106, Control_c, 0, 64, 88
1, 175121, Control_c, 0, 64, 89
1, 175124, Note_off_c, 0, 60, 65
1, 175351, Control_c, 0, 64, 89
1, 175359, Note_on_c, 0, 68, 87
1, 175366, Control_c, 0, 64, 83
1, 175369, Note_on_c, 0, 63, 81
1, 175380, Control_c, 0, 64, 75
1, 175395, Control_c, 0, 64, 66
1, 175410, Control_c, 0, 64, 60
1, 175425, Control_c, 0, 64, 58
1, 175440, Control_c, 0, 64, 63
1, 175455, Control_c, 0, 64, 66
1, 175469, Control_c, 0, 64, 68
1, 175484, Control_c, 0, 64, 69
1, 175499, Control_c, 0, 64, 71
1, 175514, Control_c, 0, 64, 73
1, 175529, Control_c, 0, 64, 74
1, 175536, Note_on_c, 0, 48, 72
1, 175544, Control_c, 0, 64, 74
1, 175559, Control_c, 0, 64, 73
1, 175574, Control_c, 0, 64, 72
1, 175603, Control_c, 0, 64, 73
1, 175612, Note_off_c, 0, 48, 61
1, 175618, Control_c, 0, 64, 73
1, 175618, Control_c, 0, 67, 126
1, 175622, Note_on_c, 0, 60, 68
1, 175632, Control_c, 0, 67, 123
1, 175647, Control_c, 0, 67, 119
1, 175660, Note_off_c, 0, 60, 61
1, 175662, Control_c, 0, 67, 117
1, 175677, Control_c, 0, 64, 74
1, 175677, Control_c, 0, 67, 114
1, 175692, Control_c, 0, 64, 75
1, 175692, Control_c, 0, 67, 110
1, 175706, Control_c, 0, 64, 75
1, 175706, Control_c, 0, 67, 105
1, 175717, Note_on_c, 0, 48, 76
1, 175721, Control_c, 0, 67, 102
1, 175736, Control_c, 0, 64, 76
1, 175736, Control_c, 0, 67, 100
1, 175742, Note_off_c, 0, 68, 58
1, 175751, Control_c, 0, 64, 77
1, 175751, Control_c, 0, 67, 99
1, 175753, Note_off_c, 0, 63, 57
1, 175766, Control_c, 0, 64, 78
1, 175766, Control_c, 0, 67, 97
1, 175780, Control_c, 0, 64, 79
1, 175780, Control_c, 0, 67, 95
1, 175785, Note_off_c, 0, 48, 63
1, 175795, Control_c, 0, 67, 91
1, 175810, Control_c, 0, 67, 86
1, 175813, Note_on_c, 0, 60, 60
1, 175824, Control_c, 0, 67, 84
1, 175839, Control_c, 0, 67, 83
1, 175847, Note_off_c, 0, 60, 60
1, 175854, Control_c, 0, 67, 82
1, 175869, Control_c, 0, 67, 81
1, 175884, Control_c, 0, 67, 80
1, 175887, Note_on_c, 0, 56, 83
1, 175891, Note_on_c, 0, 48, 80
1, 175906, Control_c, 0, 67, 79
1, 175921, Control_c, 0, 67, 77
1, 175936, Control_c, 0, 67, 74
1, 175951, Control_c, 0, 64, 78
1, 175951, Control_c, 0, 67, 72
1, 175954, Note_off_c, 0, 48, 63
1, 175966, Control_c, 0, 64, 77
1, 175966, Control_c, 0, 67, 69
1, 175978, Note_on_c, 0, 68, 80
1, 175980, Control_c, 0, 67, 67
1, 175988, Note_on_c, 0, 60, 68
1, 175991, Note_off_c, 0, 56, 64
1, 175995, Control_c, 0, 67, 61
1, 176010, Control_c, 0, 64, 77
1, 176010, Control_c, 0, 67, 53
1, 176024, Control_c, 0, 64, 76
1, 176024, Control_c, 0, 67, 43
1, 176030, Note_off_c, 0, 68, 57
1, 176033, Note_off_c, 0, 60, 52
1, 176039, Control_c, 0, 64, 74
1, 176039, Control_c, 0, 67, 31
1, 176054, Control_c, 0, 64, 72
1, 176054, Control_c, 0, 67, 22
1, 176069, Note_on_c, 0, 56, 88
1, 176069, Control_c, 0, 64, 71
1, 176069, Control_c, 0, 67, 14
1, 176071, Note_on_c, 0, 48, 84
1, 176084, Control_c, 0, 64, 72
1, 176084, Control_c, 0, 67, 0
1, 176098, Control_c, 0, 64, 72
1, 176113, Control_c, 0, 64, 74
1, 176129, Control_c, 0, 64, 75
1, 176130, Note_off_c, 0, 56, 64
1, 176132, Note_off_c, 0, 48, 62
1, 176141, Note_on_c, 0, 68, 83
1, 176144, Control_c, 0, 64, 75
1, 176149, Note_on_c, 0, 60, 75
1, 176159, Control_c, 0, 64, 76
1, 176174, Control_c, 0, 64, 77
1, 176176, Note_off_c, 0, 68, 64
1, 176185, Note_off_c, 0, 60, 62
1, 176233, Control_c, 0, 64, 77
1, 176246, Note_on_c, 0, 68, 92
1, 176250, Note_on_c, 0, 60, 81
1, 176307, Control_c, 0, 64, 77
1, 176322, Control_c, 0, 64, 78
1, 176328, Note_off_c, 0, 68, 58
1, 176328, Note_off_c, 0, 60, 65
1, 176331, Note_on_c, 0, 63, 84
1, 176331, Note_on_c, 0, 80, 90
1, 176337, Control_c, 0, 64, 79
1, 176379, Note_off_c, 0, 80, 64
1, 176382, Control_c, 0, 64, 80
1, 176392, Note_off_c, 0, 63, 61
1, 176397, Control_c, 0, 64, 83
1, 176411, Note_on_c, 0, 60, 86
1, 176411, Control_c, 0, 64, 86
1, 176414, Note_on_c, 0, 68, 95
1, 176426, Control_c, 0, 64, 89
1, 176441, Control_c, 0, 64, 91
1, 176455, Control_c, 0, 64, 93
1, 176470, Control_c, 0, 64, 97
1, 176485, Control_c, 0, 64, 104
1, 176497, Note_on_c, 0, 63, 85
1, 176498, Note_on_c, 0, 80, 93
1, 176500, Control_c, 0, 64, 127
1, 176504, Note_off_c, 0, 60, 58
1, 176518, Note_off_c, 0, 68, 59
1, 176557, Note_off_c, 0, 80, 63
1, 176575, Note_off_c, 0, 63, 54
1, 176584, Note_on_c, 0, 60, 91
1, 176586, Note_on_c, 0, 68, 91
1, 176665, Note_off_c, 0, 60, 62
1, 176667, Note_on_c, 0, 80, 100
1, 176672, Note_off_c, 0, 68, 51
1, 176674, Note_on_c, 0, 63, 91
1, 176704, Note_off_c, 0, 80, 66
1, 176732, Note_off_c, 0, 63, 59
1, 176862, Note_on_c, 0, 80, 102
1, 176864, Note_on_c, 0, 68, 97
1, 176870, Note_on_c, 0, 63, 94
1, 176878, Note_on_c, 0, 60, 96
1, 176892, Control_c, 0, 64, 98
1, 176907, Control_c, 0, 64, 80
1, 176923, Control_c, 0, 64, 64
1, 176938, Control_c, 0, 64, 0
1, 177041, Control_c, 0, 64, 49
1, 177056, Control_c, 0, 64, 64
1, 177071, Control_c, 0, 64, 72
1, 177085, Control_c, 0, 64, 81
1, 177100, Control_c, 0, 64, 93
1, 177115, Control_c, 0, 64, 109
1, 177124, Note_off_c, 0, 80, 51
1, 177130, Control_c, 0, 64, 127
1, 177157, Note_off_c, 0, 60, 59
1, 177182, Note_off_c, 0, 63, 39
1, 177183, Note_off_c, 0, 68, 39
1, 177402, Note_on_c, 0, 59, 69
1, 177404, Note_on_c, 0, 74, 80
1, 177405, Note_on_c, 0, 67, 77
1, 177414, Note_on_c, 0, 62, 61
1, 177437, Note_off_c, 0, 67, 60
1, 177444, Note_off_c, 0, 62, 63
1, 177446, Note_off_c, 0, 74, 61
1, 177446, Note_off_c, 0, 59, 61
1, 177478, Control_c, 0, 64, 109
1, 177488, Note_on_c, 0, 58, 81
1, 177490, Note_on_c, 0, 67, 71
1, 177492, Note_on_c, 0, 61, 84
1, 177493, Control_c, 0, 64, 82
1, 177495, Note_on_c, 0, 79, 92
1, 177508, Control_c, 0, 64, 62
1, 177523, Control_c, 0, 64, 0
1, 177529, Note_off_c, 0, 67, 62
1, 177532, Note_off_c, 0, 58, 63
1, 177533, Note_off_c, 0, 79, 62
1, 177538, Control_c, 0, 64, 23
1, 177538, Note_off_c, 0, 61, 61
1, 177550, Control_c, 0, 64, 65
1, 177565, Control_c, 0, 64, 74
1, 177576, Note_on_c, 0, 67, 83
1, 177577, Note_on_c, 0, 61, 75
1, 177580, Note_on_c, 0, 79, 88
1, 177580, Control_c, 0, 64, 87
1, 177584, Note_on_c, 0, 58, 78
1, 177595, Control_c, 0, 64, 106
1, 177607, Note_off_c, 0, 79, 65
1, 177610, Control_c, 0, 64, 127
1, 177613, Note_off_c, 0, 67, 64
1, 177619, Note_off_c, 0, 61, 64
1, 177626, Note_off_c, 0, 58, 65
1, 177759, Note_on_c, 0, 65, 85
1, 177760, Note_on_c, 0, 72, 80
1, 177762, Note_on_c, 0, 57, 84
1, 177762, Note_on_c, 0, 60, 80
1, 177789, Control_c, 0, 64, 115
1, 177803, Control_c, 0, 64, 95
1, 177812, Note_off_c, 0, 60, 63
1, 177818, Control_c, 0, 64, 78
1, 177824, Note_off_c, 0, 57, 58
1, 177833, Control_c, 0, 64, 59
1, 177848, Control_c, 0, 64, 0
1, 177850, Note_on_c, 0, 77, 92
1, 177861, Note_on_c, 0, 56, 82
1, 177870, Note_off_c, 0, 72, 64
1, 177872, Note_on_c, 0, 59, 77
1, 177875, Note_off_c, 0, 65, 63
1, 177892, Control_c, 0, 64, 59
1, 177897, Note_off_c, 0, 56, 60
1, 177897, Note_off_c, 0, 77, 63
1, 177903, Note_off_c, 0, 59, 61
1, 177907, Control_c, 0, 64, 70
1, 177922, Control_c, 0, 64, 81
1, 177930, Note_on_c, 0, 65, 86
1, 177934, Note_on_c, 0, 77, 81
1, 177937, Control_c, 0, 64, 91
1, 177943, Note_on_c, 0, 59, 76
1, 177949, Note_on_c, 0, 56, 82
1, 177952, Control_c, 0, 64, 97
1, 177966, Control_c, 0, 64, 100
1, 177968, Note_off_c, 0, 77, 66
1, 177970, Note_off_c, 0, 65, 66
1, 177981, Control_c, 0, 64, 103
1, 177982, Note_off_c, 0, 59, 62
1, 177996, Control_c, 0, 64, 109
1, 177998, Note_off_c, 0, 56, 66
1, 178011, Control_c, 0, 64, 127
1, 178085, Control_c, 0, 64, 113
1, 178099, Control_c, 0, 64, 102
1, 178115, Note_on_c, 0, 70, 87
1, 178122, Note_on_c, 0, 63, 67
1, 178122, Note_on_c, 0, 58, 74
1, 178128, Note_on_c, 0, 55, 73
1, 178129, Control_c, 0, 64, 116
1, 178152, Control_c, 0, 64, 127
1, 178199, Note_on_c, 0, 75, 90
1, 178203, Note_on_c, 0, 57, 67
1, 178214, Note_off_c, 0, 55, 62
1, 178219, Note_off_c, 0, 63, 60
1, 178221, Note_on_c, 0, 54, 73
1, 178233, Note_off_c, 0, 58, 59
1, 178234, Note_off_c, 0, 57, 65
1, 178242, Note_off_c, 0, 70, 63
1, 178262, Note_off_c, 0, 54, 62
1, 178265, Note_off_c, 0, 75, 61
1, 178318, Note_on_c, 0, 75, 80
1, 178330, Control_c, 0, 64, 100
1, 178336, Note_on_c, 0, 70, 66
1, 178342, Note_on_c, 0, 68, 61
1, 178345, Note_on_c, 0, 56, 69
1, 178345, Control_c, 0, 64, 83
1, 178349, Note_on_c, 0, 63, 42
1, 178351, Note_on_c, 0, 53, 66
1, 178359, Control_c, 0, 64, 70
1, 178374, Control_c, 0, 64, 32
1, 178389, Control_c, 0, 64, 0
1, 178523, Control_c, 0, 64, 49
1, 178538, Control_c, 0, 64, 66
1, 178552, Note_off_c, 0, 63, 0
1, 178553, Control_c, 0, 64, 74
1, 178568, Control_c, 0, 64, 82
1, 178583, Control_c, 0, 64, 90
1, 178590, Poly_aftertouch_c, 0, 63, 127
1, 178597, Control_c, 0, 64, 96
1, 178612, Control_c, 0, 64, 100
1, 178617, Note_off_c, 0, 75, 38
1, 178627, Control_c, 0, 64, 101
1, 178638, Note_off_c, 0, 53, 63
1, 178641, Poly_aftertouch_c, 0, 63, 0
1, 178641, Control_c, 0, 64, 102
1, 178683, Note_off_c, 0, 68, 52
1, 178713, Note_off_c, 0, 56, 24
1, 178734, Note_on_c, 0, 74, 81
1, 178754, Note_on_c, 0, 62, 56
1, 178766, Note_off_c, 0, 70, 57
1, 178787, Note_off_c, 0, 62, 63
1, 178802, Note_off_c, 0, 74, 61
1, 178820, Control_c, 0, 64, 101
1, 178835, Control_c, 0, 64, 100
1, 178901, Control_c, 0, 64, 99
1, 178916, Control_c, 0, 64, 96
1, 178929, Note_on_c, 0, 75, 70
1, 178930, Control_c, 0, 64, 86
1, 178933, Note_on_c, 0, 70, 57
1, 178936, Note_on_c, 0, 51, 62
1, 178939, Note_on_c, 0, 55, 54
1, 178945, Control_c, 0, 64, 75
1, 178947, Note_on_c, 0, 63, 44
1, 178960, Control_c, 0, 64, 65
1, 178975, Control_c, 0, 64, 61
1, 178990, Control_c, 0, 64, 63
1, 178992, Note_off_c, 0, 63, 61
1, 179005, Control_c, 0, 64, 67
1, 179020, Control_c, 0, 64, 73
1, 179032, Note_off_c, 0, 70, 62
1, 179035, Control_c, 0, 64, 81
1, 179047, Note_off_c, 0, 75, 59
1, 179049, Control_c, 0, 64, 84
1, 179064, Control_c, 0, 64, 78
1, 179079, Control_c, 0, 64, 70
1, 179094, Control_c, 0, 64, 64
1, 179096, Note_off_c, 0, 55, 0
1, 179109, Control_c, 0, 64, 65
1, 179111, Note_off_c, 0, 51, 59
1, 179115, Note_on_c, 0, 77, 76
1, 179116, Note_on_c, 0, 53, 58
1, 179121, Note_on_c, 0, 50, 61
1, 179123, Control_c, 0, 64, 71
1, 179130, Note_on_c, 0, 70, 65
1, 179133, Poly_aftertouch_c, 0, 55, 127
1, 179136, Note_on_c, 0, 65, 49
1, 179138, Control_c, 0, 64, 79
1, 179151, Note_off_c, 0, 53, 67
1, 179153, Control_c, 0, 64, 90
1, 179163, Note_off_c, 0, 50, 66
1, 179168, Control_c, 0, 64, 102
1, 179177, Poly_aftertouch_c, 0, 55, 0
1, 179178, Note_off_c, 0, 65, 54
1, 179182, Control_c, 0, 64, 110
1, 179197, Control_c, 0, 64, 118
1, 179203, Note_off_c, 0, 70, 61
1, 179209, Note_off_c, 0, 77, 62
1, 179212, Control_c, 0, 64, 127
1, 179242, Control_c, 0, 64, 118
1, 179256, Control_c, 0, 64, 99
1, 179271, Control_c, 0, 64, 89
1, 179286, Control_c, 0, 64, 82
1, 179294, Note_on_c, 0, 79, 84
1, 179301, Control_c, 0, 64, 78
1, 179303, Note_on_c, 0, 51, 57
1, 179305, Note_on_c, 0, 48, 64
1, 179305, Note_on_c, 0, 67, 68
1, 179306, Note_on_c, 0, 70, 78
1, 179317, Control_c, 0, 64, 75
1, 179332, Control_c, 0, 64, 76
1, 179346, Control_c, 0, 64, 82
1, 179361, Control_c, 0, 64, 90
1, 179367, Note_off_c, 0, 67, 59
1, 179376, Control_c, 0, 64, 100
1, 179386, Note_off_c, 0, 51, 61
1, 179391, Control_c, 0, 64, 116
1, 179395, Note_off_c, 0, 79, 47
1, 179403, Note_off_c, 0, 48, 61
1, 179405, Note_off_c, 0, 70, 62
1, 179405, Control_c, 0, 64, 127
1, 179450, Control_c, 0, 64, 91
1, 179464, Control_c, 0, 64, 72
1, 179476, Note_on_c, 0, 70, 73
1, 179479, Note_on_c, 0, 80, 88
1, 179479, Control_c, 0, 64, 58
1, 179485, Note_on_c, 0, 53, 59
1, 179485, Note_on_c, 0, 46, 62
1, 179487, Note_on_c, 0, 50, 57
1, 179491, Note_on_c, 0, 68, 59
1, 179494, Control_c, 0, 64, 57
1, 179509, Control_c, 0, 64, 65
1, 179524, Control_c, 0, 64, 73
1, 179527, Note_off_c, 0, 68, 62
1, 179538, Control_c, 0, 64, 85
1, 179548, Note_off_c, 0, 50, 55
1, 179553, Control_c, 0, 64, 99
1, 179554, Note_off_c, 0, 70, 63
1, 179554, Note_off_c, 0, 80, 65
1, 179560, Note_off_c, 0, 53, 61
1, 179562, Note_off_c, 0, 46, 58
1, 179568, Control_c, 0, 64, 119
1, 179583, Control_c, 0, 64, 127
1, 179658, Note_on_c, 0, 82, 96
1, 179665, Note_on_c, 0, 70, 82
1, 179678, Note_on_c, 0, 53, 67
1, 179679, Note_on_c, 0, 50, 48
1, 179683, Note_on_c, 0, 46, 66
1, 179705, Note_off_c, 0, 53, 68
1, 179708, Note_off_c, 0, 82, 65
1, 179710, Note_off_c, 0, 50, 66
1, 179717, Note_off_c, 0, 70, 60
1, 179727, Note_off_c, 0, 46, 60
1, 179828, Control_c, 0, 64, 109
1, 179840, Note_on_c, 0, 70, 79
1, 179842, Note_on_c, 0, 39, 68
1, 179842, Note_on_c, 0, 79, 84
1, 179842, Control_c, 0, 64, 83
1, 179845, Note_on_c, 0, 67, 76
1, 179857, Control_c, 0, 64, 64
1, 179872, Control_c, 0, 64, 0
1, 179917, Control_c, 0, 64, 62
1, 179918, Note_off_c, 0, 67, 59
1, 179932, Control_c, 0, 64, 69
1, 179935, Note_off_c, 0, 79, 61
1, 179938, Note_on_c, 0, 46, 76
1, 179941, Note_off_c, 0, 39, 59
1, 179946, Control_c, 0, 64, 77
1, 179949, Note_off_c, 0, 70, 61
1, 179961, Control_c, 0, 64, 87
1, 179976, Control_c, 0, 64, 103
1, 179991, Control_c, 0, 64, 127
1, 179998, Note_off_c, 0, 46, 62
1, 180014, Note_on_c, 0, 55, 74
1, 180070, Note_off_c, 0, 55, 61
1, 180097, Note_on_c, 0, 46, 77
1, 180169, Note_off_c, 0, 46, 60
1, 180199, Note_on_c, 0, 39, 71
1, 180206, Note_on_c, 0, 82, 100
1, 180209, Note_on_c, 0, 70, 89
1, 180261, Note_off_c, 0, 70, 63
1, 180292, Note_off_c, 0, 39, 58
1, 180299, Note_off_c, 0, 82, 58
1, 180302, Note_on_c, 0, 46, 67
1, 180371, Note_off_c, 0, 46, 61
1, 180396, Note_on_c, 0, 55, 67
1, 180468, Note_off_c, 0, 55, 57
1, 180491, Note_on_c, 0, 46, 60
1, 180599, Note_off_c, 0, 46, 57
1, 180603, Note_on_c, 0, 94, 91
1, 180606, Control_c, 0, 64, 117
1, 180607, Note_on_c, 0, 41, 67
1, 180609, Note_on_c, 0, 82, 92
1, 180620, Control_c, 0, 64, 95
1, 180635, Control_c, 0, 64, 79
1, 180650, Control_c, 0, 64, 64
1, 180665, Control_c, 0, 64, 0
1, 180722, Note_off_c, 0, 41, 61
1, 180731, Note_on_c, 0, 46, 65
1, 180754, Control_c, 0, 64, 49
1, 180769, Control_c, 0, 64, 64
1, 180784, Control_c, 0, 64, 73
1, 180793, Note_off_c, 0, 46, 62
1, 180799, Control_c, 0, 64, 84
1, 180813, Note_on_c, 0, 56, 64
1, 180813, Control_c, 0, 64, 98
1, 180828, Control_c, 0, 64, 112
1, 180843, Control_c, 0, 64, 127
1, 180857, Note_off_c, 0, 56, 57
1, 180871, Note_off_c, 0, 94, 64
1, 180896, Note_on_c, 0, 46, 62
1, 180930, Note_off_c, 0, 82, 61
1, 180975, Note_off_c, 0, 46, 62
1, 180981, Note_on_c, 0, 41, 74
1, 181061, Note_off_c, 0, 41, 56
1, 181094, Note_on_c, 0, 46, 63
1, 181172, Note_off_c, 0, 46, 62
1, 181178, Note_on_c, 0, 82, 94
1, 181184, Note_on_c, 0, 70, 79
1, 181191, Note_on_c, 0, 56, 62
1, 181268, Note_off_c, 0, 56, 55
1, 181280, Note_on_c, 0, 46, 63
1, 181311, Control_c, 0, 64, 101
1, 181325, Control_c, 0, 64, 84
1, 181340, Control_c, 0, 64, 68
1, 181355, Control_c, 0, 64, 0
1, 181369, Note_off_c, 0, 46, 62
1, 181376, Note_on_c, 0, 43, 68
1, 181414, Control_c, 0, 67, 9
1, 181429, Control_c, 0, 64, 58
1, 181429, Control_c, 0, 67, 15
1, 181443, Control_c, 0, 64, 67
1, 181443, Control_c, 0, 67, 23
1, 181458, Control_c, 0, 64, 74
1, 181458, Control_c, 0, 67, 31
1, 181460, Note_off_c, 0, 43, 62
1, 181473, Control_c, 0, 64, 83
1, 181473, Control_c, 0, 67, 39
1, 181485, Note_on_c, 0, 46, 58
1, 181488, Control_c, 0, 64, 91
1, 181488, Control_c, 0, 67, 45
1, 181503, Control_c, 0, 64, 93
1, 181503, Control_c, 0, 67, 52
1, 181518, Control_c, 0, 67, 59
1, 181533, Control_c, 0, 64, 94
1, 181533, Control_c, 0, 67, 68
1, 181536, Note_off_c, 0, 46, 62
1, 181548, Control_c, 0, 64, 96
1, 181548, Control_c, 0, 67, 76
1, 181562, Control_c, 0, 64, 98
1, 181562, Control_c, 0, 67, 81
1, 181577, Control_c, 0, 67, 84
1, 181577, Note_on_c, 0, 58, 52
1, 181592, Control_c, 0, 67, 86
1, 181598, Note_off_c, 0, 82, 60
1, 181607, Control_c, 0, 67, 88
1, 181622, Control_c, 0, 67, 88
1, 181635, Note_off_c, 0, 58, 47
1, 181651, Control_c, 0, 64, 97
1, 181663, Note_on_c, 0, 46, 61
1, 181666, Control_c, 0, 64, 95
1, 181681, Control_c, 0, 64, 95
1, 181720, Note_off_c, 0, 46, 60
1, 181723, Note_off_c, 0, 70, 55
1, 181747, Note_on_c, 0, 43, 67
1, 181756, Control_c, 0, 67, 87
1, 181771, Control_c, 0, 64, 94
1, 181771, Control_c, 0, 67, 86
1, 181809, Note_off_c, 0, 43, 57
1, 181842, Note_on_c, 0, 46, 54
1, 181860, Control_c, 0, 64, 94
1, 181912, Note_off_c, 0, 46, 61
1, 181929, Note_on_c, 0, 79, 74
1, 181951, Note_on_c, 0, 58, 56
1, 181953, Note_on_c, 0, 67, 56
1, 181956, Control_c, 0, 67, 85
1, 181986, Control_c, 0, 64, 93
1, 182006, Note_off_c, 0, 79, 58
1, 182015, Control_c, 0, 64, 91
1, 182017, Note_off_c, 0, 67, 59
1, 182030, Control_c, 0, 64, 89
1, 182040, Note_on_c, 0, 46, 61
1, 182045, Control_c, 0, 64, 85
1, 182060, Control_c, 0, 64, 77
1, 182067, Note_off_c, 0, 58, 37
1, 182074, Control_c, 0, 64, 67
1, 182089, Control_c, 0, 64, 54
1, 182104, Control_c, 0, 64, 42
1, 182114, Note_off_c, 0, 46, 57
1, 182119, Control_c, 0, 64, 42
1, 182134, Control_c, 0, 64, 50
1, 182138, Note_on_c, 0, 77, 73
1, 182148, Control_c, 0, 64, 61
1, 182150, Note_on_c, 0, 44, 68
1, 182161, Note_on_c, 0, 65, 50
1, 182163, Control_c, 0, 64, 65
1, 182178, Control_c, 0, 64, 69
1, 182192, Control_c, 0, 64, 73
1, 182192, Control_c, 0, 67, 85
1, 182207, Control_c, 0, 64, 78
1, 182207, Control_c, 0, 67, 84
1, 182217, Note_off_c, 0, 77, 61
1, 182222, Control_c, 0, 64, 83
1, 182222, Control_c, 0, 67, 83
1, 182227, Note_off_c, 0, 44, 59
1, 182227, Note_off_c, 0, 65, 61
1, 182237, Control_c, 0, 64, 88
1, 182237, Control_c, 0, 67, 81
1, 182238, Note_on_c, 0, 46, 55
1, 182252, Control_c, 0, 64, 92
1, 182252, Control_c, 0, 67, 81
1, 182266, Control_c, 0, 64, 94
1, 182276, Note_off_c, 0, 46, 62
1, 182308, Note_on_c, 0, 56, 65
1, 182311, Control_c, 0, 67, 80
1, 182331, Note_on_c, 0, 74, 76
1, 182340, Control_c, 0, 67, 80
1, 182348, Note_on_c, 0, 62, 56
1, 182366, Note_off_c, 0, 56, 63
1, 182367, Note_on_c, 0, 46, 62
1, 182370, Control_c, 0, 67, 79
1, 182385, Control_c, 0, 67, 79
1, 182400, Note_off_c, 0, 74, 61
1, 182400, Control_c, 0, 67, 78
1, 182408, Note_off_c, 0, 62, 59
1, 182415, Control_c, 0, 67, 78
1, 182417, Note_off_c, 0, 46, 63
1, 182430, Control_c, 0, 64, 93
1, 182430, Control_c, 0, 67, 77
1, 182445, Control_c, 0, 64, 92
1, 182445, Control_c, 0, 67, 76
1, 182459, Control_c, 0, 64, 91
1, 182459, Control_c, 0, 67, 75
1, 182474, Control_c, 0, 64, 91
1, 182474, Control_c, 0, 67, 73
1, 182489, Control_c, 0, 64, 90
1, 182489, Control_c, 0, 67, 70
1, 182495, Note_on_c, 0, 34, 69
1, 182504, Control_c, 0, 64, 89
1, 182504, Control_c, 0, 67, 69
1, 182513, Note_on_c, 0, 71, 82
1, 182516, Note_on_c, 0, 59, 74
1, 182519, Control_c, 0, 64, 89
1, 182519, Control_c, 0, 67, 66
1, 182527, Note_off_c, 0, 34, 64
1, 182534, Control_c, 0, 67, 62
1, 182549, Control_c, 0, 67, 59
1, 182564, Control_c, 0, 67, 56
1, 182570, Note_off_c, 0, 59, 61
1, 182579, Control_c, 0, 67, 55
1, 182594, Control_c, 0, 64, 88
1, 182594, Control_c, 0, 67, 53
1, 182597, Note_on_c, 0, 46, 61
1, 182600, Poly_aftertouch_c, 0, 37, 127
1, 182608, Control_c, 0, 67, 52
1, 182609, Note_off_c, 0, 71, 63
1, 182623, Control_c, 0, 64, 88
1, 182623, Control_c, 0, 67, 50
1, 182645, Poly_aftertouch_c, 0, 37, 0
1, 182645, Control_c, 0, 67, 49
1, 182660, Control_c, 0, 67, 48
1, 182675, Control_c, 0, 67, 48
1, 182681, Note_off_c, 0, 46, 62
1, 182693, Note_on_c, 0, 53, 69
1, 182694, Note_on_c, 0, 70, 81
1, 182698, Note_on_c, 0, 58, 80
1, 182704, Control_c, 0, 67, 47
1, 182719, Control_c, 0, 67, 46
1, 182734, Control_c, 0, 67, 44
1, 182737, Note_off_c, 0, 53, 65
1, 182749, Control_c, 0, 67, 42
1, 182764, Control_c, 0, 67, 40
1, 182770, Note_off_c, 0, 58, 54
1, 182777, Note_on_c, 0, 46, 72
1, 182779, Control_c, 0, 67, 38
1, 182794, Control_c, 0, 64, 84
1, 182794, Control_c, 0, 67, 36
1, 182795, Note_off_c, 0, 70, 61
1, 182808, Control_c, 0, 64, 73
1, 182808, Control_c, 0, 67, 34
1, 182823, Control_c, 0, 64, 0
1, 182823, Control_c, 0, 67, 29
1, 182838, Control_c, 0, 67, 21
1, 182853, Control_c, 0, 67, 0
1, 182863, Note_off_c, 0, 46, 0
1, 182871, Note_on_c, 0, 39, 88
1, 182874, Note_on_c, 0, 58, 90
1, 182874, Note_on_c, 0, 70, 97
1, 182883, Control_c, 0, 64, 59
1, 182897, Control_c, 0, 64, 70
1, 182912, Control_c, 0, 64, 82
1, 182916, Note_off_c, 0, 58, 61
1, 182922, Poly_aftertouch_c, 0, 46, 0
1, 182925, Note_off_c, 0, 70, 63
1, 182927, Control_c, 0, 64, 98
1, 182941, Control_c, 0, 64, 127
1, 182975, Note_on_c, 0, 46, 65
1, 182980, Note_off_c, 0, 39, 58
1, 183038, Note_off_c, 0, 46, 62
1, 183060, Note_on_c, 0, 55, 77
1, 183060, Control_c, 0, 64, 106
1, 183075, Control_c, 0, 64, 85
1, 183089, Control_c, 0, 64, 69
1, 183104, Control_c, 0, 64, 0
1, 183118, Note_off_c, 0, 55, 55
1, 183139, Note_on_c, 0, 46, 76
1, 183223, Note_off_c, 0, 46, 59
1, 183223, Control_c, 0, 64, 56
1, 183238, Control_c, 0, 64, 67
1, 183240, Note_on_c, 0, 41, 90
1, 183250, Note_on_c, 0, 82, 99
1, 183253, Note_on_c, 0, 70, 94
1, 183253, Control_c, 0, 64, 77
1, 183267, Control_c, 0, 64, 93
1, 183282, Control_c, 0, 64, 127
1, 183294, Note_off_c, 0, 70, 66
1, 183311, Note_off_c, 0, 82, 64
1, 183334, Note_off_c, 0, 41, 61
1, 183341, Note_on_c, 0, 46, 74
1, 183425, Note_off_c, 0, 46, 61
1, 183438, Control_c, 0, 64, 103
1, 183446, Note_on_c, 0, 56, 72
1, 183453, Control_c, 0, 64, 86
1, 183468, Control_c, 0, 64, 71
1, 183483, Control_c, 0, 64, 47
1, 183498, Control_c, 0, 64, 0
1, 183530, Note_on_c, 0, 46, 75
1, 183530, Note_off_c, 0, 56, 61
1, 183622, Note_off_c, 0, 46, 55
1, 183631, Control_c, 0, 64, 48
1, 183636, Note_on_c, 0, 43, 81
1, 183641, Note_on_c, 0, 94, 86
1, 183646, Control_c, 0, 64, 62
1, 183647, Note_on_c, 0, 82, 94
1, 183661, Control_c, 0, 64, 66
1, 183676, Control_c, 0, 64, 71
1, 183691, Control_c, 0, 64, 77
1, 183706, Control_c, 0, 64, 83
1, 183713, Note_off_c, 0, 43, 61
1, 183720, Control_c, 0, 64, 90
1, 183735, Control_c, 0, 64, 96
1, 183746, Note_on_c, 0, 51, 74
1, 183750, Control_c, 0, 64, 101
1, 183764, Control_c, 0, 64, 106
1, 183779, Control_c, 0, 64, 127
1, 183820, Note_off_c, 0, 51, 62
1, 183826, Note_off_c, 0, 94, 63
1, 183833, Note_on_c, 0, 58, 66
1, 183862, Note_off_c, 0, 82, 60
1, 183873, Note_off_c, 0, 58, 55
1, 183906, Note_on_c, 0, 51, 68
1, 183986, Note_off_c, 0, 51, 60
1, 183995, Note_on_c, 0, 43, 77
1, 184057, Note_off_c, 0, 43, 59
1, 184118, Note_on_c, 0, 51, 64
1, 184183, Note_on_c, 0, 82, 97
1, 184189, Note_on_c, 0, 70, 87
1, 184194, Note_off_c, 0, 51, 64
1, 184198, Note_on_c, 0, 58, 70
1, 184217, Control_c, 0, 64, 118
1, 184232, Control_c, 0, 64, 112
1, 184247, Control_c, 0, 64, 104
1, 184247, Control_c, 0, 67, 8
1, 184258, Note_off_c, 0, 58, 56
1, 184261, Control_c, 0, 64, 94
1, 184261, Control_c, 0, 67, 9
1, 184276, Control_c, 0, 64, 82
1, 184276, Control_c, 0, 67, 11
1, 184281, Note_on_c, 0, 51, 75
1, 184291, Control_c, 0, 64, 68
1, 184291, Control_c, 0, 67, 12
1, 184306, Control_c, 0, 64, 46
1, 184306, Control_c, 0, 67, 13
1, 184321, Control_c, 0, 64, 0
1, 184321, Control_c, 0, 67, 14
1, 184335, Control_c, 0, 67, 16
1, 184350, Control_c, 0, 67, 20
1, 184361, Note_off_c, 0, 51, 62
1, 184365, Control_c, 0, 67, 25
1, 184373, Note_on_c, 0, 43, 69
1, 184380, Control_c, 0, 67, 28
1, 184394, Control_c, 0, 64, 38
1, 184394, Control_c, 0, 67, 33
1, 184409, Control_c, 0, 64, 61
1, 184409, Control_c, 0, 67, 38
1, 184424, Control_c, 0, 64, 67
1, 184424, Control_c, 0, 67, 46
1, 184439, Control_c, 0, 64, 73
1, 184439, Control_c, 0, 67, 53
1, 184440, Note_off_c, 0, 43, 61
1, 184454, Control_c, 0, 64, 79
1, 184454, Control_c, 0, 67, 60
1, 184469, Control_c, 0, 64, 84
1, 184469, Control_c, 0, 67, 68
1, 184484, Control_c, 0, 64, 88
1, 184484, Control_c, 0, 67, 74
1, 184487, Note_on_c, 0, 51, 67
1, 184499, Control_c, 0, 64, 89
1, 184499, Control_c, 0, 67, 77
1, 184514, Control_c, 0, 67, 79
1, 184514, Note_off_c, 0, 82, 61
1, 184528, Control_c, 0, 64, 90
1, 184528, Control_c, 0, 67, 79
1, 184543, Control_c, 0, 67, 80
1, 184548, Note_off_c, 0, 51, 62
1, 184560, Note_on_c, 0, 58, 63
1, 184579, Note_off_c, 0, 70, 54
1, 184628, Note_off_c, 0, 58, 40
1, 184642, Note_on_c, 0, 51, 70
1, 184647, Control_c, 0, 67, 79
1, 184661, Control_c, 0, 67, 79
1, 184676, Control_c, 0, 67, 78
1, 184691, Control_c, 0, 64, 89
1, 184691, Control_c, 0, 67, 78
1, 184710, Note_off_c, 0, 51, 62
1, 184720, Control_c, 0, 64, 89
1, 184726, Note_on_c, 0, 43, 70
1, 184735, Control_c, 0, 67, 77
1, 184750, Control_c, 0, 67, 76
1, 184765, Control_c, 0, 64, 88
1, 184765, Control_c, 0, 67, 76
1, 184780, Control_c, 0, 64, 87
1, 184784, Note_off_c, 0, 43, 58
1, 184794, Control_c, 0, 64, 86
1, 184809, Control_c, 0, 64, 85
1, 184841, Note_on_c, 0, 51, 64
1, 184868, Control_c, 0, 64, 85
1, 184868, Control_c, 0, 67, 75
1, 184883, Control_c, 0, 64, 84
1, 184894, Note_off_c, 0, 51, 57
1, 184906, Control_c, 0, 64, 84
1, 184919, Note_on_c, 0, 79, 80
1, 184926, Note_on_c, 0, 58, 59
1, 184933, Note_on_c, 0, 67, 65
1, 184966, Note_off_c, 0, 58, 56
1, 184970, Note_off_c, 0, 79, 62
1, 184976, Note_off_c, 0, 67, 53
1, 184981, Control_c, 0, 64, 83
1, 185017, Note_on_c, 0, 51, 55
1, 185041, Control_c, 0, 67, 76
1, 185056, Control_c, 0, 64, 82
1, 185071, Control_c, 0, 64, 78
1, 185085, Control_c, 0, 64, 70
1, 185100, Control_c, 0, 64, 59
1, 185103, Note_off_c, 0, 51, 59
1, 185113, Note_on_c, 0, 44, 66
1, 185115, Control_c, 0, 64, 21
1, 185115, Control_c, 0, 67, 76
1, 185128, Note_on_c, 0, 76, 67
1, 185130, Control_c, 0, 64, 28
1, 185137, Note_on_c, 0, 64, 52
1, 185144, Control_c, 0, 64, 59
1, 185144, Control_c, 0, 67, 77
1, 185159, Control_c, 0, 64, 65
1, 185174, Control_c, 0, 64, 70
1, 185178, Note_off_c, 0, 64, 55
1, 185189, Control_c, 0, 64, 76
1, 185204, Control_c, 0, 64, 83
1, 185205, Note_off_c, 0, 44, 61
1, 185215, Note_off_c, 0, 76, 59
1, 185218, Control_c, 0, 64, 88
1, 185220, Note_on_c, 0, 51, 60
1, 185233, Control_c, 0, 64, 89
1, 185275, Note_off_c, 0, 51, 57
1, 185292, Control_c, 0, 67, 76
1, 185309, Note_on_c, 0, 60, 62
1, 185309, Note_on_c, 0, 77, 70
1, 185328, Note_on_c, 0, 65, 53
1, 185344, Note_off_c, 0, 77, 57
1, 185364, Note_off_c, 0, 65, 63
1, 185366, Control_c, 0, 67, 76
1, 185370, Note_off_c, 0, 60, 44
1, 185381, Control_c, 0, 67, 75
1, 185396, Note_on_c, 0, 51, 54
1, 185411, Control_c, 0, 64, 88
1, 185426, Control_c, 0, 64, 82
1, 185441, Control_c, 0, 64, 72
1, 185455, Control_c, 0, 64, 61
1, 185457, Note_off_c, 0, 51, 55
1, 185470, Control_c, 0, 64, 36
1, 185476, Note_on_c, 0, 45, 69
1, 185485, Control_c, 0, 64, 45
1, 185486, Note_on_c, 0, 72, 68
1, 185487, Note_on_c, 0, 60, 60
1, 185500, Control_c, 0, 64, 60
1, 185515, Control_c, 0, 64, 64
1, 185521, Note_off_c, 0, 60, 67
1, 185530, Note_off_c, 0, 72, 62
1, 185530, Control_c, 0, 64, 69
1, 185535, Note_off_c, 0, 45, 60
1, 185544, Control_c, 0, 64, 72
1, 185559, Control_c, 0, 64, 75
1, 185574, Control_c, 0, 64, 77
1, 185589, Control_c, 0, 64, 77
1, 185597, Note_on_c, 0, 53, 55
1, 185618, Control_c, 0, 64, 76
1, 185640, Control_c, 0, 64, 76
1, 185649, Note_off_c, 0, 53, 60
1, 185664, Note_on_c, 0, 60, 62
1, 185668, Note_on_c, 0, 75, 63
1, 185673, Note_on_c, 0, 63, 53
1, 185685, Control_c, 0, 67, 76
1, 185712, Note_off_c, 0, 60, 59
1, 185715, Note_off_c, 0, 63, 59
1, 185749, Note_on_c, 0, 53, 59
1, 185750, Note_off_c, 0, 75, 49
1, 185760, Control_c, 0, 64, 74
1, 185774, Control_c, 0, 64, 68
1, 185789, Control_c, 0, 64, 55
1, 185804, Control_c, 0, 64, 0
1, 185804, Control_c, 0, 67, 76
1, 185848, Control_c, 0, 64, 55
1, 185848, Control_c, 0, 67, 77
1, 185853, Note_on_c, 0, 74, 72
1, 185857, Note_off_c, 0, 53, 61
1, 185858, Note_on_c, 0, 46, 67
1, 185862, Note_on_c, 0, 62, 53
1, 185863, Control_c, 0, 64, 64
1, 185878, Control_c, 0, 64, 68
1, 185878, Control_c, 0, 67, 77
1, 185887, Note_off_c, 0, 46, 64
1, 185890, Note_off_c, 0, 62, 57
1, 185893, Control_c, 0, 64, 73
1, 185893, Control_c, 0, 67, 78
1, 185908, Control_c, 0, 64, 78
1, 185908, Control_c, 0, 67, 78
1, 185922, Control_c, 0, 64, 79
1, 185922, Control_c, 0, 67, 79
1, 185937, Control_c, 0, 64, 78
1, 185937, Control_c, 0, 67, 80
1, 185939, Note_off_c, 0, 74, 56
1, 185943, Note_on_c, 0, 70, 71
1, 185952, Control_c, 0, 64, 73
1, 185952, Control_c, 0, 67, 80
1, 185966, Control_c, 0, 64, 65
1, 185981, Control_c, 0, 64, 48
1, 185996, Control_c, 0, 64, 0
1, 186011, Control_c, 0, 67, 81
1, 186026, Control_c, 0, 67, 81
1, 186034, Note_on_c, 0, 69, 73
1, 186040, Note_on_c, 0, 63, 67
1, 186040, Note_off_c, 0, 70, 61
1, 186055, Control_c, 0, 67, 82
1, 186085, Control_c, 0, 67, 82
1, 186103, Note_off_c, 0, 63, 61
1, 186108, Note_off_c, 0, 69, 56
1, 186116, Note_on_c, 0, 70, 76
1, 186129, Note_on_c, 0, 62, 65
1, 186208, Note_on_c, 0, 69, 70
1, 186208, Note_off_c, 0, 70, 63
1, 186210, Note_on_c, 0, 72, 77
1, 186210, Note_off_c, 0, 62, 55
1, 186219, Note_on_c, 0, 60, 67
1, 186219, Control_c, 0, 67, 81
1, 186268, Note_off_c, 0, 69, 55
1, 186272, Note_off_c, 0, 60, 59
1, 186289, Note_on_c, 0, 70, 75
1, 186290, Note_on_c, 0, 74, 81
1, 186293, Note_off_c, 0, 72, 61
1, 186299, Note_on_c, 0, 58, 73
1, 186318, Note_off_c, 0, 70, 64
1, 186322, Control_c, 0, 67, 81
1, 186334, Note_off_c, 0, 74, 64
1, 186368, Note_off_c, 0, 58, 62
1, 186394, Note_on_c, 0, 75, 77
1, 186397, Note_on_c, 0, 57, 67
1, 186397, Note_on_c, 0, 72, 69
1, 186418, Control_c, 0, 64, 14
1, 186433, Control_c, 0, 64, 26
1, 186448, Control_c, 0, 64, 31
1, 186458, Note_off_c, 0, 57, 58
1, 186460, Note_off_c, 0, 72, 59
1, 186463, Control_c, 0, 64, 35
1, 186463, Control_c, 0, 67, 81
1, 186464, Note_on_c, 0, 77, 74
1, 186465, Note_off_c, 0, 75, 61
1, 186480, Note_on_c, 0, 74, 70
1, 186484, Note_on_c, 0, 56, 69
1, 186544, Note_off_c, 0, 77, 59
1, 186559, Note_off_c, 0, 56, 63
1, 186565, Note_off_c, 0, 74, 64
1, 186570, Note_on_c, 0, 79, 69
1, 186573, Note_on_c, 0, 75, 68
1, 186582, Control_c, 0, 64, 36
1, 186585, Note_on_c, 0, 55, 63
1, 186612, Control_c, 0, 64, 36
1, 186627, Control_c, 0, 64, 37
1, 186642, Control_c, 0, 64, 38
1, 186649, Note_off_c, 0, 55, 51
1, 186671, Control_c, 0, 64, 38
1, 186674, Note_on_c, 0, 53, 69
1, 186681, Note_off_c, 0, 75, 64
1, 186686, Control_c, 0, 64, 40
1, 186692, Note_off_c, 0, 79, 63
1, 186701, Control_c, 0, 64, 43
1, 186716, Control_c, 0, 64, 45
1, 186731, Control_c, 0, 64, 47
1, 186744, Note_off_c, 0, 53, 60
1, 186745, Control_c, 0, 64, 50
1, 186745, Control_c, 0, 67, 82
1, 186760, Control_c, 0, 64, 54
1, 186767, Note_on_c, 0, 51, 71
1, 186775, Control_c, 0, 64, 56
1, 186775, Control_c, 0, 67, 82
1, 186789, Control_c, 0, 64, 56
1, 186827, Note_off_c, 0, 51, 61
1, 186849, Control_c, 0, 64, 56
1, 186851, Note_on_c, 0, 50, 71
1, 186878, Control_c, 0, 64, 55
1, 186893, Control_c, 0, 64, 54
1, 186908, Control_c, 0, 64, 54
1, 186937, Control_c, 0, 64, 54
1, 186946, Note_off_c, 0, 50, 60
1, 186947, Note_on_c, 0, 51, 67
1, 186952, Note_on_c, 0, 80, 64
1, 186952, Note_on_c, 0, 84, 68
1, 186982, Control_c, 0, 64, 54
1, 186982, Control_c, 0, 67, 82
1, 186985, Note_off_c, 0, 80, 59
1, 186997, Control_c, 0, 67, 81
1, 187012, Control_c, 0, 64, 53
1, 187012, Control_c, 0, 67, 81
1, 187013, Note_off_c, 0, 51, 64
1, 187028, Note_on_c, 0, 53, 71
1, 187029, Note_on_c, 0, 79, 77
1, 187041, Control_c, 0, 64, 53
1, 187049, Note_on_c, 0, 82, 59
1, 187077, Note_off_c, 0, 53, 65
1, 187086, Control_c, 0, 67, 80
1, 187096, Note_off_c, 0, 84, 47
1, 187109, Note_on_c, 0, 80, 62
1, 187110, Note_off_c, 0, 79, 53
1, 187111, Note_on_c, 0, 55, 63
1, 187114, Note_off_c, 0, 82, 61
1, 187128, Note_on_c, 0, 77, 66
1, 187143, Note_off_c, 0, 80, 67
1, 187158, Note_off_c, 0, 55, 59
1, 187169, Note_off_c, 0, 77, 60
1, 187181, Control_c, 0, 64, 49
1, 187196, Note_on_c, 0, 56, 69
1, 187196, Control_c, 0, 64, 34
1, 187211, Control_c, 0, 64, 0
1, 187211, Control_c, 0, 67, 80
1, 187226, Note_on_c, 0, 79, 75
1, 187241, Control_c, 0, 67, 79
1, 187249, Note_on_c, 0, 75, 61
1, 187256, Control_c, 0, 64, 21
1, 187256, Control_c, 0, 67, 78
1, 187271, Control_c, 0, 64, 53
1, 187271, Control_c, 0, 67, 78
1, 187286, Control_c, 0, 64, 63
1, 187301, Control_c, 0, 64, 67
1, 187301, Control_c, 0, 67, 77
1, 187310, Note_on_c, 0, 58, 79
1, 187316, Note_on_c, 0, 77, 77
1, 187316, Control_c, 0, 64, 73
1, 187320, Note_on_c, 0, 74, 77
1, 187328, Note_off_c, 0, 75, 63
1, 187331, Control_c, 0, 64, 77
1, 187336, Note_off_c, 0, 79, 55
1, 187336, Note_off_c, 0, 77, 71
1, 187337, Note_off_c, 0, 56, 58
1, 187341, Note_off_c, 0, 74, 72
1, 187346, Control_c, 0, 64, 78
1, 187375, Control_c, 0, 64, 77
1, 187380, Note_off_c, 0, 58, 64
1, 187390, Control_c, 0, 64, 77
1, 187390, Control_c, 0, 67, 77
1, 187405, Control_c, 0, 64, 76
1, 187420, Control_c, 0, 64, 76
1, 187480, Control_c, 0, 64, 74
1, 187494, Control_c, 0, 64, 68
1, 187509, Control_c, 0, 64, 50
1, 187519, Note_on_c, 0, 80, 88
1, 187520, Note_on_c, 0, 65, 79
1, 187520, Note_on_c, 0, 71, 84
1, 187524, Control_c, 0, 64, 0
1, 187568, Control_c, 0, 64, 17
1, 187577, Note_off_c, 0, 71, 62
1, 187583, Control_c, 0, 64, 44
1, 187598, Control_c, 0, 64, 46
1, 187598, Control_c, 0, 67, 77
1, 187607, Note_on_c, 0, 72, 84
1, 187611, Note_off_c, 0, 65, 39
1, 187614, Note_on_c, 0, 63, 75
1, 187636, Note_off_c, 0, 80, 65
1, 187643, Note_off_c, 0, 72, 64
1, 187657, Control_c, 0, 64, 49
1, 187657, Control_c, 0, 67, 77
1, 187669, Note_off_c, 0, 63, 63
1, 187686, Control_c, 0, 64, 48
1, 187699, Note_on_c, 0, 62, 80
1, 187700, Note_on_c, 0, 67, 84
1, 187701, Control_c, 0, 64, 46
1, 187710, Note_on_c, 0, 77, 81
1, 187716, Control_c, 0, 64, 44
1, 187730, Control_c, 0, 64, 42
1, 187739, Note_off_c, 0, 67, 60
1, 187745, Control_c, 0, 67, 76
1, 187763, Note_off_c, 0, 62, 60
1, 187775, Control_c, 0, 67, 76
1, 187788, Note_on_c, 0, 60, 82
1, 187790, Note_on_c, 0, 78, 83
1, 187795, Note_on_c, 0, 75, 76
1, 187798, Note_off_c, 0, 77, 61
1, 187804, Control_c, 0, 67, 75
1, 187822, Note_off_c, 0, 75, 62
1, 187834, Note_off_c, 0, 78, 61
1, 187834, Control_c, 0, 67, 75
1, 187851, Note_off_c, 0, 60, 59
1, 187864, Control_c, 0, 64, 43
1, 187886, Control_c, 0, 64, 43
1, 187887, Note_on_c, 0, 59, 83
1, 187894, Note_on_c, 0, 79, 87
1, 187898, Note_on_c, 0, 74, 78
1, 187901, Control_c, 0, 64, 44
1, 187916, Control_c, 0, 64, 43
1, 187930, Note_off_c, 0, 79, 60
1, 187931, Control_c, 0, 64, 43
1, 187933, Note_off_c, 0, 74, 64
1, 187945, Note_off_c, 0, 59, 62
1, 187945, Control_c, 0, 67, 74
1, 187974, Note_on_c, 0, 57, 81
1, 187975, Control_c, 0, 64, 45
1, 187976, Note_on_c, 0, 81, 83
1, 187977, Note_on_c, 0, 74, 67
1, 187977, Note_on_c, 0, 78, 81
1, 187990, Control_c, 0, 64, 46
1, 187990, Control_c, 0, 67, 74
1, 187998, Note_off_c, 0, 78, 67
1, 188002, Note_off_c, 0, 74, 68
1, 188004, Control_c, 0, 67, 73
1, 188011, Note_off_c, 0, 81, 66
1, 188019, Control_c, 0, 64, 45
1, 188019, Control_c, 0, 67, 73
1, 188035, Control_c, 0, 64, 44
1, 188035, Control_c, 0, 67, 72
1, 188043, Note_off_c, 0, 57, 53
1, 188050, Control_c, 0, 64, 42
1, 188050, Control_c, 0, 67, 70
1, 188065, Control_c, 0, 64, 38
1, 188065, Control_c, 0, 67, 69
1, 188067, Note_on_c, 0, 55, 79
1, 188069, Note_on_c, 0, 74, 81
1, 188072, Note_on_c, 0, 83, 90
1, 188080, Control_c, 0, 64, 35
1, 188080, Control_c, 0, 67, 68
1, 188083, Note_on_c, 0, 79, 67
1, 188084, Note_off_c, 0, 83, 73
1, 188094, Control_c, 0, 67, 65
1, 188103, Note_off_c, 0, 79, 64
1, 188108, Note_off_c, 0, 74, 65
1, 188110, Control_c, 0, 64, 36
1, 188110, Control_c, 0, 67, 63
1, 188115, Note_on_c, 0, 81, 29
1, 188116, Note_off_c, 0, 81, 127
1, 188125, Control_c, 0, 64, 40
1, 188125, Control_c, 0, 67, 60
1, 188140, Control_c, 0, 64, 44
1, 188140, Control_c, 0, 67, 55
1, 188144, Note_off_c, 0, 55, 56
1, 188147, Note_on_c, 0, 53, 83
1, 188154, Control_c, 0, 64, 45
1, 188154, Control_c, 0, 67, 50
1, 188156, Note_on_c, 0, 83, 80
1, 188160, Note_on_c, 0, 79, 85
1, 188169, Control_c, 0, 64, 46
1, 188169, Control_c, 0, 67, 44
1, 188179, Note_off_c, 0, 79, 67
1, 188184, Control_c, 0, 64, 48
1, 188184, Control_c, 0, 67, 40
1, 188186, Note_on_c, 0, 74, 31
1, 188186, Note_off_c, 0, 83, 64
1, 188199, Control_c, 0, 64, 49
1, 188199, Control_c, 0, 67, 34
1, 188205, Note_off_c, 0, 53, 66
1, 188214, Control_c, 0, 64, 51
1, 188214, Control_c, 0, 67, 25
1, 188221, Note_off_c, 0, 74, 30
1, 188228, Control_c, 0, 67, 14
1, 188243, Note_on_c, 0, 51, 85
1, 188243, Control_c, 0, 67, 0
1, 188255, Note_on_c, 0, 85, 80
1, 188258, Note_on_c, 0, 80, 60
1, 188269, Note_off_c, 0, 85, 71
1, 188275, Note_off_c, 0, 80, 64
1, 188276, Note_on_c, 0, 76, 43
1, 188276, Note_on_c, 0, 84, 38
1, 188287, Note_off_c, 0, 51, 66
1, 188288, Control_c, 0, 64, 52
1, 188303, Control_c, 0, 64, 53
1, 188305, Note_off_c, 0, 84, 53
1, 188306, Note_off_c, 0, 76, 54
1, 188317, Control_c, 0, 64, 55
1, 188325, Note_on_c, 0, 50, 81
1, 188329, Note_on_c, 0, 86, 89
1, 188334, Note_on_c, 0, 77, 68
1, 188347, Control_c, 0, 64, 53
1, 188348, Note_on_c, 0, 79, 64
1, 188357, Note_off_c, 0, 77, 69
1, 188361, Note_off_c, 0, 86, 69
1, 188362, Control_c, 0, 64, 52
1, 188365, Note_off_c, 0, 79, 64
1, 188373, Note_on_c, 0, 82, 20
1, 188374, Note_off_c, 0, 82, 127
1, 188377, Control_c, 0, 64, 52
1, 188380, Note_off_c, 0, 50, 66
1, 188392, Control_c, 0, 64, 53
1, 188420, Note_on_c, 0, 87, 99
1, 188421, Note_on_c, 0, 48, 84
1, 188421, Control_c, 0, 64, 52
1, 188427, Note_on_c, 0, 79, 76
1, 188430, Note_on_c, 0, 84, 68
1, 188436, Control_c, 0, 64, 51
1, 188448, Note_off_c, 0, 79, 69
1, 188453, Note_off_c, 0, 84, 69
1, 188466, Control_c, 0, 64, 53
1, 188468, Note_off_c, 0, 48, 63
1, 188470, Note_off_c, 0, 87, 65
1, 188481, Control_c, 0, 64, 54
1, 188494, Note_on_c, 0, 46, 91
1, 188510, Control_c, 0, 64, 53
1, 188511, Note_on_c, 0, 84, 84
1, 188517, Note_on_c, 0, 89, 93
1, 188525, Control_c, 0, 64, 51
1, 188530, Note_on_c, 0, 77, 67
1, 188535, Note_off_c, 0, 46, 64
1, 188540, Control_c, 0, 64, 41
1, 188545, Note_off_c, 0, 84, 64
1, 188546, Note_off_c, 0, 89, 64
1, 188548, Note_off_c, 0, 77, 67
1, 188554, Control_c, 0, 64, 0
1, 188591, Note_on_c, 0, 89, 92
1, 188594, Note_on_c, 0, 84, 84
1, 188594, Note_on_c, 0, 48, 83
1, 188596, Note_on_c, 0, 45, 86
1, 188597, Note_on_c, 0, 77, 94
1, 188619, Note_off_c, 0, 77, 66
1, 188624, Note_off_c, 0, 45, 67
1, 188636, Control_c, 0, 64, 24
1, 188642, Note_off_c, 0, 89, 65
1, 188645, Note_off_c, 0, 84, 62
1, 188647, Note_off_c, 0, 48, 52
1, 188651, Control_c, 0, 64, 52
1, 188666, Control_c, 0, 64, 63
1, 188680, Poly_aftertouch_c, 0, 89, 0
1, 188681, Control_c, 0, 64, 64
1, 188682, Note_on_c, 0, 45, 88
1, 188684, Note_on_c, 0, 84, 80
1, 188685, Note_on_c, 0, 77, 92
1, 188685, Note_on_c, 0, 89, 85
1, 188689, Note_on_c, 0, 48, 42
1, 188696, Control_c, 0, 64, 59
1, 188703, Note_off_c, 0, 45, 72
1, 188710, Control_c, 0, 64, 0
1, 188715, Note_off_c, 0, 48, 53
1, 188717, Note_off_c, 0, 84, 68
1, 188720, Note_off_c, 0, 77, 65
1, 188726, Note_off_c, 0, 89, 63
1, 188769, Control_c, 0, 64, 61
1, 188771, Note_on_c, 0, 44, 105
1, 188773, Note_on_c, 0, 46, 88
1, 188776, Note_on_c, 0, 86, 106
1, 188779, Note_on_c, 0, 77, 96
1, 188779, Note_on_c, 0, 82, 87
1, 188784, Control_c, 0, 64, 80
1, 188793, Note_off_c, 0, 44, 71
1, 188794, Note_off_c, 0, 77, 77
1, 188794, Note_on_c, 0, 81, 79
1, 188794, Note_off_c, 0, 46, 68
1, 188799, Control_c, 0, 64, 127
1, 188803, Note_off_c, 0, 82, 66
1, 188805, Note_off_c, 0, 86, 67
1, 188809, Note_off_c, 0, 81, 72
1, 188876, Note_on_c, 0, 46, 3
1, 188892, Note_off_c, 0, 46, 54
1, 188963, Control_c, 0, 64, 97
1, 188977, Control_c, 0, 64, 76
1, 188992, Control_c, 0, 64, 59
1, 189007, Control_c, 0, 64, 0
1, 189160, Note_on_c, 0, 87, 101
1, 189161, Note_on_c, 0, 75, 98
1, 189164, Note_on_c, 0, 82, 98
1, 189165, Note_on_c, 0, 46, 92
1, 189168, Note_on_c, 0, 43, 91
1, 189170, Control_c, 0, 64, 66
1, 189185, Control_c, 0, 64, 86
1, 189199, Note_off_c, 0, 75, 67
1, 189199, Note_off_c, 0, 87, 68
1, 189199, Control_c, 0, 64, 127
1, 189207, Note_off_c, 0, 82, 69
1, 189232, Note_off_c, 0, 43, 65
1, 189232, Note_off_c, 0, 46, 63
1, 189384, Control_c, 0, 64, 100
1, 189399, Control_c, 0, 64, 78
1, 189414, Control_c, 0, 64, 62
1, 189429, Control_c, 0, 64, 0
1, 189682, Note_on_c, 0, 68, 100
1, 189683, Note_on_c, 0, 63, 96
1, 189690, Note_on_c, 0, 47, 89
1, 189691, Note_on_c, 0, 53, 94
1, 190052, Control_c, 0, 64, 11
1, 190067, Control_c, 0, 64, 19
1, 190096, Control_c, 0, 64, 17
1, 190133, Control_c, 0, 64, 26
1, 190147, Control_c, 0, 64, 31
1, 190162, Control_c, 0, 64, 33
1, 190177, Control_c, 0, 64, 34
1, 190192, Control_c, 0, 64, 36
1, 190207, Control_c, 0, 64, 36
1, 190222, Control_c, 0, 64, 41
1, 190237, Control_c, 0, 64, 45
1, 190267, Control_c, 0, 64, 44
1, 190280, Control_c, 0, 64, 43
1, 190281, Note_on_c, 0, 46, 90
1, 190282, Note_on_c, 0, 70, 94
1, 190306, Note_off_c, 0, 47, 66
1, 190308, Note_off_c, 0, 68, 61
1, 190325, Control_c, 0, 64, 43
1, 190353, Note_off_c, 0, 46, 62
1, 190354, Control_c, 0, 64, 43
1, 190359, Note_off_c, 0, 70, 60
1, 190399, Control_c, 0, 64, 44
1, 190413, Control_c, 0, 64, 44
1, 190458, Control_c, 0, 64, 44
1, 190473, Control_c, 0, 64, 43
1, 190487, Control_c, 0, 64, 38
1, 190503, Control_c, 0, 64, 32
1, 190512, Note_on_c, 0, 71, 102
1, 190518, Control_c, 0, 64, 27
1, 190521, Note_on_c, 0, 44, 84
1, 190533, Control_c, 0, 64, 11
1, 190548, Control_c, 0, 64, 0
1, 190555, Note_off_c, 0, 63, 60
1, 190722, Note_on_c, 0, 63, 81
1, 190805, Note_on_c, 0, 62, 76
1, 190806, Note_off_c, 0, 63, 61
1, 190904, Note_on_c, 0, 63, 87
1, 190905, Note_off_c, 0, 62, 61
1, 190988, Note_on_c, 0, 62, 81
1, 190996, Note_off_c, 0, 63, 63
1, 191045, Control_c, 0, 64, 51
1, 191060, Control_c, 0, 64, 64
1, 191074, Note_off_c, 0, 62, 57
1, 191074, Control_c, 0, 64, 70
1, 191082, Note_on_c, 0, 63, 89
1, 191089, Control_c, 0, 64, 78
1, 191104, Control_c, 0, 64, 86
1, 191119, Control_c, 0, 64, 94
1, 191124, Note_off_c, 0, 71, 48
1, 191131, Note_off_c, 0, 53, 63
1, 191134, Control_c, 0, 64, 103
1, 191149, Control_c, 0, 64, 111
1, 191162, Note_on_c, 0, 62, 84
1, 191163, Control_c, 0, 64, 124
1, 191173, Note_off_c, 0, 63, 61
1, 191178, Control_c, 0, 64, 127
1, 191192, Note_off_c, 0, 62, 65
1, 191207, Note_off_c, 0, 44, 53
1, 191294, Note_on_c, 0, 68, 97
1, 191296, Control_c, 0, 64, 126
1, 191301, Note_on_c, 0, 63, 90
1, 191305, Note_on_c, 0, 47, 92
1, 191305, Note_on_c, 0, 53, 86
1, 191313, Control_c, 0, 64, 91
1, 191327, Control_c, 0, 64, 67
1, 191342, Control_c, 0, 64, 0
1, 191861, Note_on_c, 0, 70, 95
1, 191870, Note_on_c, 0, 46, 80
1, 191879, Note_off_c, 0, 47, 62
1, 191891, Note_off_c, 0, 68, 62
1, 191896, Control_c, 0, 64, 11
1, 191911, Control_c, 0, 64, 21
1, 191935, Note_off_c, 0, 46, 61
1, 191941, Note_off_c, 0, 70, 62
1, 191941, Control_c, 0, 64, 19
1, 191956, Control_c, 0, 64, 17
1, 192000, Control_c, 0, 64, 14
1, 192015, Control_c, 0, 64, 0
1, 192097, Note_on_c, 0, 72, 93
1, 192115, Note_on_c, 0, 45, 77
1, 192180, Note_off_c, 0, 63, 59
1, 192304, Note_on_c, 0, 63, 68
1, 192326, Control_c, 0, 67, 9
1, 192341, Control_c, 0, 67, 13
1, 192356, Control_c, 0, 67, 19
1, 192379, Control_c, 0, 67, 25
1, 192394, Control_c, 0, 67, 31
1, 192398, Note_off_c, 0, 63, 61
1, 192403, Note_on_c, 0, 62, 62
1, 192408, Control_c, 0, 67, 39
1, 192423, Control_c, 0, 67, 48
1, 192438, Control_c, 0, 67, 57
1, 192453, Control_c, 0, 67, 64
1, 192468, Control_c, 0, 67, 70
1, 192482, Control_c, 0, 67, 77
1, 192485, Note_off_c, 0, 62, 59
1, 192497, Control_c, 0, 67, 84
1, 192508, Note_on_c, 0, 63, 60
1, 192512, Control_c, 0, 67, 91
1, 192526, Control_c, 0, 67, 98
1, 192541, Control_c, 0, 67, 102
1, 192556, Control_c, 0, 64, 35
1, 192556, Control_c, 0, 67, 104
1, 192571, Control_c, 0, 64, 42
1, 192571, Control_c, 0, 67, 105
1, 192573, Note_off_c, 0, 63, 61
1, 192586, Control_c, 0, 64, 51
1, 192586, Control_c, 0, 67, 108
1, 192598, Note_on_c, 0, 62, 57
1, 192601, Control_c, 0, 64, 62
1, 192601, Control_c, 0, 67, 111
1, 192616, Control_c, 0, 64, 66
1, 192616, Control_c, 0, 67, 114
1, 192631, Control_c, 0, 64, 68
1, 192631, Control_c, 0, 67, 116
1, 192645, Control_c, 0, 64, 69
1, 192645, Control_c, 0, 67, 116
1, 192660, Control_c, 0, 64, 70
1, 192671, Note_off_c, 0, 62, 57
1, 192675, Control_c, 0, 64, 71
1, 192690, Control_c, 0, 64, 73
1, 192690, Note_off_c, 0, 72, 36
1, 192698, Note_off_c, 0, 53, 56
1, 192699, Note_on_c, 0, 63, 54
1, 192705, Control_c, 0, 64, 73
1, 192749, Control_c, 0, 64, 73
1, 192749, Control_c, 0, 67, 116
1, 192764, Control_c, 0, 64, 72
1, 192764, Control_c, 0, 67, 115
1, 192779, Control_c, 0, 67, 114
1, 192799, Note_on_c, 0, 62, 41
1, 192807, Note_off_c, 0, 45, 58
1, 192808, Control_c, 0, 64, 71
1, 192823, Control_c, 0, 64, 70
1, 192824, Note_off_c, 0, 63, 38
1, 192838, Control_c, 0, 64, 69
1, 192846, Note_off_c, 0, 62, 60
1, 192852, Control_c, 0, 64, 67
1, 192852, Control_c, 0, 67, 113
1, 192867, Control_c, 0, 64, 66
1, 192867, Control_c, 0, 67, 113
1, 192882, Control_c, 0, 64, 65
1, 192898, Control_c, 0, 64, 61
1, 192913, Control_c, 0, 64, 56
1, 192928, Control_c, 0, 64, 53
1, 192928, Control_c, 0, 67, 112
1, 192943, Control_c, 0, 64, 52
1, 192943, Control_c, 0, 67, 111
1, 192957, Control_c, 0, 64, 50
1, 192972, Control_c, 0, 64, 44
1, 192980, Note_on_c, 0, 71, 51
1, 192987, Control_c, 0, 64, 19
1, 193002, Control_c, 0, 64, 0
1, 193009, Note_on_c, 0, 53, 41
1, 193013, Note_on_c, 0, 46, 37
1, 193046, Control_c, 0, 67, 112
1, 193061, Control_c, 0, 67, 112
1, 193066, Note_off_c, 0, 71, 42
1, 193076, Control_c, 0, 67, 113
1, 193125, Note_off_c, 0, 53, 64
1, 193141, Note_off_c, 0, 46, 56
1, 193200, Note_on_c, 0, 63, 47
1, 193263, Note_off_c, 0, 63, 53
1, 193292, Note_on_c, 0, 62, 38
1, 193346, Note_off_c, 0, 62, 58
1, 193377, Note_on_c, 0, 63, 55
1, 193435, Note_off_c, 0, 63, 54
1, 193461, Note_on_c, 0, 62, 52
1, 193513, Note_off_c, 0, 62, 57
1, 193554, Note_on_c, 0, 63, 50
1, 193587, Control_c, 0, 67, 113
1, 193602, Control_c, 0, 67, 114
1, 193616, Control_c, 0, 64, 11
1, 193631, Control_c, 0, 64, 21
1, 193635, Note_off_c, 0, 63, 54
1, 193638, Note_on_c, 0, 62, 44
1, 193661, Control_c, 0, 64, 23
1, 193707, Control_c, 0, 64, 24
1, 193742, Note_on_c, 0, 46, 41
1, 193747, Note_on_c, 0, 70, 57
1, 193748, Note_on_c, 0, 55, 39
1, 193759, Note_off_c, 0, 62, 37
1, 193823, Note_off_c, 0, 70, 58
1, 193840, Control_c, 0, 64, 26
1, 193843, Note_off_c, 0, 55, 60
1, 193850, Note_off_c, 0, 46, 55
1, 193854, Control_c, 0, 64, 28
1, 193933, Note_on_c, 0, 65, 51
1, 193951, Control_c, 0, 64, 29
1, 193966, Control_c, 0, 64, 30
1, 194010, Control_c, 0, 64, 31
1, 194015, Note_off_c, 0, 65, 57
1, 194017, Note_on_c, 0, 64, 54
1, 194026, Control_c, 0, 64, 32
1, 194040, Control_c, 0, 64, 33
1, 194055, Control_c, 0, 67, 113
1, 194091, Note_off_c, 0, 64, 61
1, 194117, Note_on_c, 0, 65, 50
1, 194129, Control_c, 0, 64, 34
1, 194144, Control_c, 0, 64, 36
1, 194159, Control_c, 0, 64, 36
1, 194173, Control_c, 0, 64, 38
1, 194182, Note_off_c, 0, 65, 51
1, 194204, Note_on_c, 0, 64, 58
1, 194218, Control_c, 0, 64, 38
1, 194273, Note_off_c, 0, 64, 56
1, 194277, Control_c, 0, 64, 39
1, 194292, Control_c, 0, 64, 40
1, 194303, Note_on_c, 0, 65, 55
1, 194306, Control_c, 0, 64, 40
1, 194321, Control_c, 0, 64, 42
1, 194336, Control_c, 0, 64, 42
1, 194351, Control_c, 0, 64, 43
1, 194366, Control_c, 0, 64, 43
1, 194374, Note_off_c, 0, 65, 49
1, 194380, Control_c, 0, 64, 44
1, 194392, Note_on_c, 0, 64, 58
1, 194395, Control_c, 0, 64, 44
1, 194410, Control_c, 0, 64, 45
1, 194470, Control_c, 0, 64, 45
1, 194478, Note_on_c, 0, 46, 41
1, 194482, Note_on_c, 0, 70, 64
1, 194484, Note_on_c, 0, 56, 37
1, 194485, Control_c, 0, 64, 46
1, 194488, Note_off_c, 0, 64, 53
1, 194500, Control_c, 0, 64, 48
1, 194514, Control_c, 0, 64, 49
1, 194529, Control_c, 0, 64, 50
1, 194544, Control_c, 0, 64, 50
1, 194558, Note_off_c, 0, 70, 58
1, 194559, Control_c, 0, 64, 51
1, 194573, Note_off_c, 0, 56, 62
1, 194581, Note_off_c, 0, 46, 55
1, 194690, Note_on_c, 0, 67, 54
1, 194741, Note_off_c, 0, 67, 57
1, 194744, Control_c, 0, 64, 50
1, 194759, Control_c, 0, 64, 50
1, 194772, Note_on_c, 0, 65, 43
1, 194833, Control_c, 0, 67, 113
1, 194862, Note_on_c, 0, 70, 64
1, 194866, Note_off_c, 0, 65, 34
1, 194878, Note_on_c, 0, 46, 46
1, 194883, Note_on_c, 0, 55, 40
1, 194922, Control_c, 0, 64, 50
1, 194937, Control_c, 0, 64, 51
1, 194952, Control_c, 0, 64, 52
1, 194959, Note_off_c, 0, 70, 51
1, 194960, Note_off_c, 0, 55, 61
1, 194974, Note_off_c, 0, 46, 56
1, 195047, Note_on_c, 0, 65, 61
1, 195070, Control_c, 0, 64, 52
1, 195126, Note_off_c, 0, 65, 57
1, 195140, Note_on_c, 0, 63, 54
1, 195203, Control_c, 0, 67, 112
1, 195233, Note_on_c, 0, 70, 68
1, 195244, Note_on_c, 0, 46, 48
1, 195248, Note_off_c, 0, 63, 38
1, 195250, Note_on_c, 0, 53, 42
1, 195315, Note_off_c, 0, 70, 59
1, 195323, Control_c, 0, 64, 53
1, 195342, Note_off_c, 0, 46, 59
1, 195342, Note_off_c, 0, 53, 62
1, 195430, Note_on_c, 0, 63, 58
1, 195508, Control_c, 0, 64, 52
1, 195511, Note_off_c, 0, 63, 56
1, 195516, Note_on_c, 0, 62, 52
1, 195523, Control_c, 0, 64, 52
1, 195538, Control_c, 0, 64, 51
1, 195538, Control_c, 0, 67, 112
1, 195552, Control_c, 0, 64, 51
1, 195567, Control_c, 0, 67, 111
1, 195597, Control_c, 0, 64, 50
1, 195607, Note_on_c, 0, 46, 47
1, 195609, Note_on_c, 0, 70, 69
1, 195610, Note_off_c, 0, 62, 38
1, 195612, Control_c, 0, 64, 50
1, 195616, Note_on_c, 0, 55, 45
1, 195626, Control_c, 0, 64, 49
1, 195626, Control_c, 0, 67, 111
1, 195641, Control_c, 0, 64, 48
1, 195656, Control_c, 0, 64, 47
1, 195671, Control_c, 0, 64, 47
1, 195686, Control_c, 0, 64, 46
1, 195698, Note_off_c, 0, 46, 60
1, 195704, Note_off_c, 0, 70, 46
1, 195706, Note_off_c, 0, 55, 62
1, 195745, Control_c, 0, 67, 111
1, 195760, Control_c, 0, 64, 47
1, 195775, Control_c, 0, 64, 47
1, 195790, Control_c, 0, 64, 48
1, 195793, Note_on_c, 0, 65, 65
1, 195805, Control_c, 0, 64, 49
1, 195819, Control_c, 0, 64, 49
1, 195834, Control_c, 0, 64, 50
1, 195834, Control_c, 0, 67, 112
1, 195849, Control_c, 0, 64, 51
1, 195864, Control_c, 0, 64, 52
1, 195868, Note_off_c, 0, 65, 62
1, 195869, Note_on_c, 0, 63, 63
1, 195893, Control_c, 0, 64, 53
1, 195899, Note_off_c, 0, 63, 66
1, 195923, Control_c, 0, 64, 53
1, 195938, Control_c, 0, 64, 54
1, 195967, Control_c, 0, 64, 54
1, 196037, Note_on_c, 0, 83, 86
1, 196041, Control_c, 0, 64, 54
1, 196056, Control_c, 0, 64, 53
1, 196071, Note_on_c, 0, 58, 40
1, 196077, Note_on_c, 0, 65, 39
1, 196085, Control_c, 0, 64, 53
1, 196124, Control_c, 0, 67, 112
1, 196154, Control_c, 0, 64, 52
1, 196198, Control_c, 0, 64, 52
1, 196207, Note_off_c, 0, 83, 62
1, 196257, Control_c, 0, 64, 51
1, 196258, Note_on_c, 0, 75, 55
1, 196271, Note_off_c, 0, 65, 61
1, 196284, Note_off_c, 0, 58, 62
1, 196286, Control_c, 0, 64, 51
1, 196338, Note_off_c, 0, 75, 60
1, 196345, Control_c, 0, 67, 113
1, 196350, Note_on_c, 0, 74, 57
1, 196360, Control_c, 0, 67, 113
1, 196389, Control_c, 0, 64, 50
1, 196389, Control_c, 0, 67, 114
1, 196404, Control_c, 0, 64, 49
1, 196404, Control_c, 0, 67, 114
1, 196419, Note_off_c, 0, 74, 61
1, 196419, Control_c, 0, 64, 49
1, 196419, Control_c, 0, 67, 115
1, 196449, Note_on_c, 0, 75, 56
1, 196449, Control_c, 0, 64, 48
1, 196449, Control_c, 0, 67, 115
1, 196464, Control_c, 0, 64, 48
1, 196479, Control_c, 0, 64, 47
1, 196493, Control_c, 0, 67, 116
1, 196508, Control_c, 0, 67, 117
1, 196518, Note_off_c, 0, 75, 58
1, 196523, Control_c, 0, 67, 117
1, 196533, Note_on_c, 0, 74, 68
1, 196553, Control_c, 0, 67, 118
1, 196582, Control_c, 0, 67, 118
1, 196594, Note_off_c, 0, 74, 56
1, 196597, Control_c, 0, 64, 46
1, 196597, Control_c, 0, 67, 121
1, 196612, Control_c, 0, 67, 126
1, 196627, Control_c, 0, 67, 127
1, 196634, Note_on_c, 0, 75, 60
1, 196712, Note_on_c, 0, 74, 61
1, 196713, Note_off_c, 0, 75, 55
1, 196823, Note_on_c, 0, 82, 79
1, 196828, Note_off_c, 0, 74, 52
1, 196834, Control_c, 0, 64, 47
1, 196848, Note_on_c, 0, 58, 43
1, 196850, Note_on_c, 0, 67, 44
1, 196902, Control_c, 0, 64, 47
1, 196917, Control_c, 0, 64, 48
1, 196961, Control_c, 0, 64, 48
1, 196967, Note_off_c, 0, 82, 59
1, 196992, Note_off_c, 0, 67, 61
1, 197003, Note_off_c, 0, 58, 62
1, 197023, Note_on_c, 0, 77, 59
1, 197102, Note_off_c, 0, 77, 61
1, 197108, Note_on_c, 0, 76, 63
1, 197183, Note_off_c, 0, 76, 59
1, 197204, Note_on_c, 0, 77, 57
1, 197212, Control_c, 0, 64, 48
1, 197281, Note_off_c, 0, 77, 59
1, 197296, Note_on_c, 0, 76, 59
1, 197365, Note_off_c, 0, 76, 53
1, 197394, Note_on_c, 0, 77, 62
1, 197451, Note_off_c, 0, 77, 49
1, 197477, Note_on_c, 0, 76, 65
1, 197494, Control_c, 0, 64, 48
1, 197538, Control_c, 0, 64, 49
1, 197568, Control_c, 0, 64, 49
1, 197579, Note_on_c, 0, 82, 73
1, 197583, Control_c, 0, 64, 50
1, 197592, Note_off_c, 0, 76, 55
1, 197594, Note_on_c, 0, 58, 45
1, 197597, Control_c, 0, 64, 50
1, 197603, Note_on_c, 0, 68, 43
1, 197635, Control_c, 0, 64, 51
1, 197664, Control_c, 0, 64, 52
1, 197677, Note_off_c, 0, 82, 61
1, 197679, Control_c, 0, 64, 53
1, 197695, Control_c, 0, 64, 53
1, 197701, Note_off_c, 0, 68, 57
1, 197707, Note_off_c, 0, 58, 60
1, 197740, Control_c, 0, 64, 54
1, 197784, Note_on_c, 0, 79, 60
1, 197847, Note_off_c, 0, 79, 58
1, 197859, Control_c, 0, 64, 53
1, 197868, Note_on_c, 0, 77, 63
1, 197969, Note_on_c, 0, 82, 73
1, 197977, Note_on_c, 0, 58, 48
1, 197984, Note_off_c, 0, 77, 58
1, 197988, Note_on_c, 0, 67, 40
1, 198036, Control_c, 0, 64, 54
1, 198042, Note_off_c, 0, 82, 64
1, 198051, Control_c, 0, 64, 54
1, 198061, Note_off_c, 0, 67, 61
1, 198077, Note_off_c, 0, 58, 62
1, 198095, Control_c, 0, 64, 55
1, 198110, Control_c, 0, 64, 55
1, 198125, Control_c, 0, 64, 56
1, 198160, Note_on_c, 0, 77, 67
1, 198199, Control_c, 0, 64, 56
1, 198244, Note_on_c, 0, 76, 68
1, 198244, Note_off_c, 0, 77, 58
1, 198318, Control_c, 0, 64, 57
1, 198341, Note_on_c, 0, 82, 78
1, 198369, Control_c, 0, 64, 57
1, 198373, Note_on_c, 0, 68, 48
1, 198378, Note_off_c, 0, 76, 55
1, 198384, Note_on_c, 0, 58, 46
1, 198428, Control_c, 0, 64, 58
1, 198449, Note_off_c, 0, 82, 63
1, 198458, Control_c, 0, 64, 58
1, 198466, Note_off_c, 0, 68, 54
1, 198475, Note_off_c, 0, 58, 54
1, 198488, Control_c, 0, 64, 59
1, 198518, Control_c, 0, 64, 59
1, 198527, Note_on_c, 0, 79, 73
1, 198548, Control_c, 0, 64, 60
1, 198563, Control_c, 0, 64, 61
1, 198577, Control_c, 0, 64, 61
1, 198598, Note_off_c, 0, 79, 57
1, 198607, Control_c, 0, 64, 62
1, 198612, Note_on_c, 0, 77, 70
1, 198637, Control_c, 0, 64, 62
1, 198667, Control_c, 0, 64, 63
1, 198696, Control_c, 0, 64, 63
1, 198718, Note_on_c, 0, 82, 82
1, 198726, Control_c, 0, 64, 64
1, 198730, Note_off_c, 0, 77, 57
1, 198739, Note_on_c, 0, 58, 56
1, 198756, Control_c, 0, 64, 64
1, 198770, Control_c, 0, 64, 65
1, 198785, Control_c, 0, 64, 66
1, 198800, Control_c, 0, 64, 67
1, 198815, Control_c, 0, 64, 67
1, 198844, Control_c, 0, 64, 67
1, 198874, Note_off_c, 0, 82, 61
1, 198913, Note_on_c, 0, 80, 79
1, 198917, Note_on_c, 0, 60, 53
1, 198918, Control_c, 0, 64, 66
1, 198933, Control_c, 0, 64, 65
1, 198937, Note_on_c, 0, 77, 55
1, 198948, Control_c, 0, 64, 64
1, 198962, Control_c, 0, 64, 64
1, 198963, Note_off_c, 0, 58, 32
1, 198992, Control_c, 0, 64, 63
1, 199015, Note_on_c, 0, 62, 60
1, 199022, Note_off_c, 0, 60, 61
1, 199022, Control_c, 0, 64, 62
1, 199036, Control_c, 0, 64, 62
1, 199051, Control_c, 0, 64, 60
1, 199066, Control_c, 0, 64, 59
1, 199081, Control_c, 0, 64, 58
1, 199090, Note_off_c, 0, 77, 58
1, 199095, Note_on_c, 0, 70, 75
1, 199101, Note_on_c, 0, 63, 70
1, 199117, Note_off_c, 0, 80, 64
1, 199129, Note_off_c, 0, 62, 59
1, 199184, Note_off_c, 0, 63, 61
1, 199205, Note_on_c, 0, 65, 66
1, 199222, Control_c, 0, 64, 59
1, 199251, Control_c, 0, 64, 58
1, 199281, Control_c, 0, 64, 58
1, 199285, Note_on_c, 0, 67, 82
1, 199297, Control_c, 0, 64, 57
1, 199302, Note_on_c, 0, 75, 73
1, 199304, Note_on_c, 0, 79, 68
1, 199311, Control_c, 0, 64, 53
1, 199311, Control_c, 0, 67, 126
1, 199312, Note_off_c, 0, 65, 59
1, 199317, Note_off_c, 0, 70, 61
1, 199326, Control_c, 0, 64, 43
1, 199326, Control_c, 0, 67, 124
1, 199341, Control_c, 0, 64, 0
1, 199341, Control_c, 0, 67, 122
1, 199356, Control_c, 0, 67, 121
1, 199371, Control_c, 0, 67, 118
1, 199378, Note_on_c, 0, 68, 86
1, 199385, Control_c, 0, 67, 115
1, 199394, Note_off_c, 0, 67, 60
1, 199400, Control_c, 0, 67, 111
1, 199415, Control_c, 0, 67, 107
1, 199430, Control_c, 0, 67, 102
1, 199445, Control_c, 0, 64, 19
1, 199445, Control_c, 0, 67, 96
1, 199460, Control_c, 0, 64, 51
1, 199460, Control_c, 0, 67, 87
1, 199472, Note_on_c, 0, 77, 77
1, 199474, Note_off_c, 0, 79, 47
1, 199475, Control_c, 0, 64, 63
1, 199475, Control_c, 0, 67, 77
1, 199476, Note_on_c, 0, 70, 84
1, 199478, Note_on_c, 0, 74, 73
1, 199490, Control_c, 0, 64, 67
1, 199490, Control_c, 0, 67, 69
1, 199501, Note_off_c, 0, 68, 61
1, 199504, Note_off_c, 0, 74, 69
1, 199504, Control_c, 0, 64, 70
1, 199504, Control_c, 0, 67, 61
1, 199507, Note_off_c, 0, 75, 52
1, 199519, Control_c, 0, 64, 72
1, 199519, Control_c, 0, 67, 57
1, 199522, Note_off_c, 0, 77, 66
1, 199534, Control_c, 0, 64, 73
1, 199534, Control_c, 0, 67, 53
1, 199549, Control_c, 0, 64, 73
1, 199549, Control_c, 0, 67, 49
1, 199564, Control_c, 0, 67, 42
1, 199579, Control_c, 0, 67, 36
1, 199593, Control_c, 0, 64, 72
1, 199593, Control_c, 0, 67, 29
1, 199608, Control_c, 0, 64, 71
1, 199608, Control_c, 0, 67, 22
1, 199623, Control_c, 0, 64, 69
1, 199623, Control_c, 0, 67, 16
1, 199638, Control_c, 0, 64, 69
1, 199638, Control_c, 0, 67, 8
1, 199653, Control_c, 0, 64, 68
1, 199653, Control_c, 0, 67, 0
1, 199665, Note_on_c, 0, 72, 76
1, 199665, Note_on_c, 0, 92, 83
1, 199667, Control_c, 0, 64, 68
1, 199672, Note_off_c, 0, 70, 63
1, 199676, Note_on_c, 0, 89, 81
1, 199682, Control_c, 0, 64, 66
1, 199697, Control_c, 0, 64, 65
1, 199711, Control_c, 0, 64, 64
1, 199726, Control_c, 0, 64, 64
1, 199741, Control_c, 0, 64, 63
1, 199756, Control_c, 0, 64, 62
1, 199769, Note_on_c, 0, 74, 88
1, 199771, Control_c, 0, 64, 59
1, 199785, Control_c, 0, 64, 56
1, 199788, Note_off_c, 0, 72, 62
1, 199800, Control_c, 0, 64, 55
1, 199815, Control_c, 0, 64, 54
1, 199841, Note_on_c, 0, 82, 77
1, 199845, Note_off_c, 0, 89, 63
1, 199845, Note_off_c, 0, 92, 63
1, 199851, Note_on_c, 0, 75, 89
1, 199886, Note_off_c, 0, 74, 62
1, 199912, Control_c, 0, 64, 53
1, 199926, Control_c, 0, 64, 52
1, 199941, Control_c, 0, 64, 51
1, 199949, Note_on_c, 0, 77, 89
1, 199956, Note_off_c, 0, 75, 63
1, 199956, Control_c, 0, 64, 51
1, 199971, Control_c, 0, 64, 50
1, 199986, Control_c, 0, 64, 50
1, 200033, Note_on_c, 0, 79, 93
1, 200036, Note_on_c, 0, 91, 77
1, 200038, Note_off_c, 0, 77, 62
1, 200038, Note_on_c, 0, 87, 68
1, 200049, Note_off_c, 0, 82, 62
1, 200059, Control_c, 0, 64, 51
1, 200074, Control_c, 0, 64, 52
1, 200089, Control_c, 0, 64, 53
1, 200104, Control_c, 0, 64, 54
1, 200106, Note_on_c, 0, 80, 88
1, 200119, Control_c, 0, 64, 55
1, 200132, Note_off_c, 0, 79, 63
1, 200163, Control_c, 0, 64, 54
1, 200178, Control_c, 0, 64, 53
1, 200193, Control_c, 0, 64, 50
1, 200208, Control_c, 0, 64, 34
1, 200209, Note_on_c, 0, 82, 88
1, 200220, Note_off_c, 0, 80, 62
1, 200223, Control_c, 0, 64, 0
1, 200226, Note_on_c, 0, 89, 81
1, 200237, Note_on_c, 0, 86, 77
1, 200254, Note_off_c, 0, 91, 58
1, 200268, Note_off_c, 0, 87, 64
1, 200282, Control_c, 0, 64, 38
1, 200293, Note_off_c, 0, 86, 63
1, 200297, Control_c, 0, 64, 57
1, 200302, Note_off_c, 0, 89, 64
1, 200312, Control_c, 0, 64, 64
1, 200327, Control_c, 0, 64, 70
1, 200341, Control_c, 0, 64, 76
1, 200356, Control_c, 0, 64, 82
1, 200371, Control_c, 0, 64, 85
1, 200386, Control_c, 0, 64, 85
1, 200445, Control_c, 0, 64, 84
1, 200446, Note_on_c, 0, 96, 94
1, 200457, Note_on_c, 0, 89, 69
1, 200459, Control_c, 0, 64, 84
1, 200466, Note_on_c, 0, 80, 72
1, 200467, Note_on_c, 0, 86, 58
1, 200486, Note_off_c, 0, 89, 61
1, 200487, Note_off_c, 0, 86, 60
1, 200489, Control_c, 0, 64, 84
1, 200519, Control_c, 0, 64, 85
1, 200531, Note_off_c, 0, 82, 42
1, 200578, Control_c, 0, 64, 85
1, 200659, Note_off_c, 0, 96, 59
1, 200670, Note_on_c, 0, 87, 79
1, 200680, Note_on_c, 0, 82, 79
1, 200683, Note_on_c, 0, 79, 66
1, 200695, Note_off_c, 0, 80, 62
1, 200764, Control_c, 0, 64, 85
1, 200781, Note_off_c, 0, 87, 59
1, 200823, Control_c, 0, 64, 84
1, 200838, Control_c, 0, 64, 84
1, 200853, Control_c, 0, 64, 83
1, 200882, Control_c, 0, 64, 83
1, 200886, Note_on_c, 0, 94, 98
1, 200897, Note_on_c, 0, 87, 77
1, 200898, Control_c, 0, 64, 82
1, 200913, Control_c, 0, 64, 80
1, 200917, Note_on_c, 0, 78, 62
1, 200928, Control_c, 0, 64, 75
1, 200943, Control_c, 0, 64, 70
1, 200957, Control_c, 0, 64, 65
1, 200968, Note_off_c, 0, 82, 60
1, 200972, Control_c, 0, 64, 63
1, 200975, Note_off_c, 0, 79, 57
1, 200987, Control_c, 0, 64, 60
1, 201002, Control_c, 0, 64, 58
1, 201002, Control_c, 0, 67, 8
1, 201017, Control_c, 0, 64, 58
1, 201017, Control_c, 0, 67, 9
1, 201031, Control_c, 0, 64, 63
1, 201031, Control_c, 0, 67, 10
1, 201046, Control_c, 0, 64, 65
1, 201046, Control_c, 0, 67, 13
1, 201061, Control_c, 0, 64, 67
1, 201061, Control_c, 0, 67, 16
1, 201076, Control_c, 0, 64, 70
1, 201076, Control_c, 0, 67, 20
1, 201081, Note_off_c, 0, 87, 63
1, 201090, Control_c, 0, 64, 73
1, 201090, Control_c, 0, 67, 24
1, 201105, Control_c, 0, 64, 77
1, 201105, Control_c, 0, 67, 30
1, 201120, Control_c, 0, 64, 83
1, 201120, Control_c, 0, 67, 36
1, 201129, Note_on_c, 0, 84, 66
1, 201135, Control_c, 0, 64, 89
1, 201135, Control_c, 0, 67, 41
1, 201141, Note_on_c, 0, 87, 67
1, 201143, Note_off_c, 0, 78, 63
1, 201144, Note_on_c, 0, 77, 63
1, 201150, Control_c, 0, 64, 93
1, 201150, Control_c, 0, 67, 46
1, 201165, Control_c, 0, 64, 98
1, 201165, Control_c, 0, 67, 49
1, 201180, Control_c, 0, 64, 104
1, 201180, Control_c, 0, 67, 52
1, 201195, Control_c, 0, 64, 115
1, 201195, Control_c, 0, 67, 58
1, 201197, Note_off_c, 0, 84, 59
1, 201210, Control_c, 0, 64, 127
1, 201210, Control_c, 0, 67, 65
1, 201224, Control_c, 0, 67, 70
1, 201239, Control_c, 0, 67, 75
1, 201248, Note_off_c, 0, 87, 63
1, 201254, Control_c, 0, 67, 77
1, 201269, Control_c, 0, 67, 78
1, 201283, Control_c, 0, 67, 80
1, 201298, Control_c, 0, 67, 82
1, 201313, Control_c, 0, 67, 84
1, 201328, Control_c, 0, 67, 84
1, 201343, Control_c, 0, 67, 85
1, 201391, Note_on_c, 0, 92, 89
1, 201394, Control_c, 0, 67, 85
1, 201405, Note_on_c, 0, 89, 67
1, 201412, Note_on_c, 0, 70, 68
1, 201412, Note_off_c, 0, 94, 65
1, 201420, Note_off_c, 0, 77, 54
1, 201424, Note_on_c, 0, 86, 39
1, 201435, Note_off_c, 0, 89, 65
1, 201448, Note_off_c, 0, 92, 67
1, 201451, Note_off_c, 0, 86, 56
1, 201480, Note_off_c, 0, 70, 63
1, 201528, Control_c, 0, 67, 84
1, 201543, Control_c, 0, 67, 84
1, 201558, Control_c, 0, 67, 83
1, 201572, Control_c, 0, 67, 83
1, 201602, Control_c, 0, 67, 82
1, 201616, Control_c, 0, 67, 82
1, 201646, Control_c, 0, 67, 81
1, 201661, Control_c, 0, 67, 81
1, 201791, Note_on_c, 0, 63, 49
1, 201795, Control_c, 0, 64, 111
1, 201800, Note_on_c, 0, 91, 83
1, 201810, Control_c, 0, 64, 103
1, 201823, Note_on_c, 0, 79, 49
1, 201825, Control_c, 0, 64, 96
1, 201825, Control_c, 0, 67, 81
1, 201840, Control_c, 0, 64, 88
1, 201840, Control_c, 0, 67, 82
1, 201855, Control_c, 0, 64, 79
1, 201869, Control_c, 0, 64, 71
1, 201869, Control_c, 0, 67, 82
1, 201871, Note_off_c, 0, 79, 0
1, 201871, Note_on_c, 0, 79, 17
1, 201884, Control_c, 0, 64, 63
1, 201884, Control_c, 0, 67, 83
1, 201899, Control_c, 0, 64, 59
1, 201913, Control_c, 0, 64, 57
1, 201913, Control_c, 0, 67, 83
1, 201928, Control_c, 0, 64, 53
1, 201928, Control_c, 0, 67, 85
1, 201943, Control_c, 0, 64, 45
1, 201943, Control_c, 0, 67, 85
1, 201958, Control_c, 0, 64, 43
1, 201973, Control_c, 0, 64, 50
1, 201983, Note_on_c, 0, 82, 50
1, 201988, Control_c, 0, 64, 58
1, 201988, Control_c, 0, 67, 86
1, 202002, Control_c, 0, 64, 61
1, 202017, Control_c, 0, 64, 63
1, 202017, Control_c, 0, 67, 87
1, 202032, Control_c, 0, 64, 64
1, 202032, Control_c, 0, 67, 88
1, 202047, Control_c, 0, 64, 66
1, 202047, Control_c, 0, 67, 90
1, 202062, Note_off_c, 0, 82, 60
1, 202062, Control_c, 0, 64, 70
1, 202062, Control_c, 0, 67, 92
1, 202075, Note_on_c, 0, 69, 42
1, 202077, Control_c, 0, 64, 74
1, 202077, Control_c, 0, 67, 94
1, 202083, Note_on_c, 0, 66, 37
1, 202088, Note_on_c, 0, 84, 52
1, 202092, Control_c, 0, 64, 80
1, 202092, Control_c, 0, 67, 96
1, 202113, Control_c, 0, 64, 84
1, 202113, Control_c, 0, 67, 97
1, 202128, Control_c, 0, 64, 88
1, 202128, Control_c, 0, 67, 99
1, 202143, Control_c, 0, 64, 91
1, 202143, Control_c, 0, 67, 100
1, 202158, Control_c, 0, 64, 93
1, 202158, Control_c, 0, 67, 101
1, 202173, Control_c, 0, 64, 96
1, 202173, Control_c, 0, 67, 102
1, 202182, Note_off_c, 0, 84, 56
1, 202186, Note_on_c, 0, 82, 70
1, 202187, Control_c, 0, 64, 98
1, 202202, Control_c, 0, 64, 101
1, 202214, Note_off_c, 0, 91, 30
1, 202214, Note_off_c, 0, 69, 58
1, 202217, Control_c, 0, 64, 104
1, 202232, Control_c, 0, 64, 107
1, 202247, Control_c, 0, 64, 109
1, 202262, Control_c, 0, 64, 110
1, 202271, Note_off_c, 0, 82, 61
1, 202287, Note_off_c, 0, 66, 51
1, 202292, Control_c, 0, 64, 110
1, 202294, Note_on_c, 0, 84, 64
1, 202321, Control_c, 0, 67, 101
1, 202336, Control_c, 0, 67, 101
1, 202351, Control_c, 0, 67, 100
1, 202381, Note_on_c, 0, 82, 69
1, 202381, Note_off_c, 0, 84, 59
1, 202395, Control_c, 0, 67, 100
1, 202439, Control_c, 0, 67, 99
1, 202454, Control_c, 0, 64, 110
1, 202454, Control_c, 0, 67, 98
1, 202461, Note_off_c, 0, 63, 52
1, 202465, Note_on_c, 0, 84, 73
1, 202465, Note_off_c, 0, 82, 63
1, 202485, Control_c, 0, 64, 109
1, 202497, Note_on_c, 0, 67, 41
1, 202500, Note_on_c, 0, 70, 38
1, 202500, Control_c, 0, 64, 108
1, 202500, Control_c, 0, 67, 98
1, 202515, Control_c, 0, 64, 107
1, 202530, Control_c, 0, 64, 104
1, 202544, Control_c, 0, 64, 100
1, 202544, Control_c, 0, 67, 97
1, 202555, Note_off_c, 0, 79, 41
1, 202559, Control_c, 0, 64, 97
1, 202560, Note_on_c, 0, 82, 78
1, 202565, Note_off_c, 0, 84, 56
1, 202574, Control_c, 0, 64, 95
1, 202589, Control_c, 0, 64, 94
1, 202589, Control_c, 0, 67, 97
1, 202604, Control_c, 0, 64, 93
1, 202618, Control_c, 0, 64, 90
1, 202633, Control_c, 0, 64, 86
1, 202644, Note_off_c, 0, 70, 59
1, 202648, Control_c, 0, 64, 80
1, 202658, Note_on_c, 0, 89, 88
1, 202658, Note_off_c, 0, 67, 52
1, 202662, Control_c, 0, 64, 74
1, 202666, Note_off_c, 0, 82, 62
1, 202677, Control_c, 0, 64, 69
1, 202684, Note_on_c, 0, 63, 52
1, 202690, Note_on_c, 0, 77, 48
1, 202692, Control_c, 0, 64, 65
1, 202707, Control_c, 0, 64, 63
1, 202722, Control_c, 0, 64, 62
1, 202736, Control_c, 0, 64, 58
1, 202751, Control_c, 0, 64, 53
1, 202766, Control_c, 0, 64, 46
1, 202781, Control_c, 0, 64, 38
1, 202795, Note_on_c, 0, 80, 56
1, 202796, Control_c, 0, 64, 36
1, 202840, Control_c, 0, 64, 36
1, 202862, Control_c, 0, 64, 42
1, 202874, Note_off_c, 0, 80, 60
1, 202877, Control_c, 0, 64, 51
1, 202892, Control_c, 0, 64, 59
1, 202895, Note_on_c, 0, 82, 53
1, 202897, Note_off_c, 0, 77, 33
1, 202905, Note_on_c, 0, 71, 50
1, 202907, Control_c, 0, 64, 63
1, 202916, Note_on_c, 0, 74, 39
1, 202922, Control_c, 0, 64, 66
1, 202936, Control_c, 0, 64, 71
1, 202951, Control_c, 0, 64, 76
1, 202966, Control_c, 0, 64, 81
1, 202981, Control_c, 0, 64, 85
1, 202996, Control_c, 0, 64, 89
1, 202996, Control_c, 0, 67, 96
1, 202998, Note_off_c, 0, 82, 38
1, 203007, Note_on_c, 0, 80, 48
1, 203009, Control_c, 0, 64, 92
1, 203009, Control_c, 0, 67, 95
1, 203024, Control_c, 0, 64, 95
1, 203039, Control_c, 0, 64, 97
1, 203053, Control_c, 0, 64, 99
1, 203054, Note_off_c, 0, 80, 52
1, 203068, Control_c, 0, 64, 102
1, 203068, Control_c, 0, 67, 95
1, 203070, Note_off_c, 0, 89, 33
1, 203083, Control_c, 0, 64, 103
1, 203098, Control_c, 0, 64, 103
1, 203098, Control_c, 0, 67, 94
1, 203102, Note_on_c, 0, 82, 52
1, 203127, Control_c, 0, 67, 94
1, 203142, Control_c, 0, 67, 93
1, 203172, Control_c, 0, 67, 93
1, 203181, Note_on_c, 0, 80, 51
1, 203189, Note_off_c, 0, 82, 34
1, 203191, Note_off_c, 0, 71, 53
1, 203216, Note_off_c, 0, 74, 30
1, 203266, Note_off_c, 0, 80, 59
1, 203281, Note_on_c, 0, 70, 47
1, 203287, Note_on_c, 0, 82, 64
1, 203304, Note_off_c, 0, 63, 33
1, 203351, Control_c, 0, 64, 103
1, 203367, Note_off_c, 0, 70, 62
1, 203377, Note_on_c, 0, 80, 53
1, 203380, Control_c, 0, 64, 102
1, 203385, Note_off_c, 0, 82, 62
1, 203404, Note_off_c, 0, 80, 59
1, 203410, Control_c, 0, 64, 100
1, 203425, Control_c, 0, 64, 96
1, 203439, Control_c, 0, 64, 91
1, 203454, Control_c, 0, 64, 85
1, 203469, Control_c, 0, 64, 78
1, 203473, Note_on_c, 0, 87, 79
1, 203484, Control_c, 0, 64, 70
1, 203484, Control_c, 0, 67, 93
1, 203486, Note_on_c, 0, 63, 57
1, 203490, Note_on_c, 0, 79, 64
1, 203499, Control_c, 0, 64, 62
1, 203514, Control_c, 0, 64, 61
1, 203529, Control_c, 0, 64, 63
1, 203529, Control_c, 0, 67, 94
1, 203544, Control_c, 0, 64, 65
1, 203547, Note_off_c, 0, 79, 61
1, 203558, Control_c, 0, 64, 67
1, 203567, Note_off_c, 0, 87, 64
1, 203573, Control_c, 0, 64, 71
1, 203573, Control_c, 0, 67, 94
1, 203588, Control_c, 0, 64, 76
1, 203609, Note_on_c, 0, 75, 57
1, 203610, Control_c, 0, 64, 84
1, 203625, Control_c, 0, 64, 91
1, 203639, Control_c, 0, 64, 95
1, 203654, Control_c, 0, 64, 96
1, 203669, Control_c, 0, 64, 98
1, 203672, Note_off_c, 0, 75, 57
1, 203677, Note_on_c, 0, 77, 69
1, 203684, Control_c, 0, 64, 100
1, 203684, Control_c, 0, 67, 95
1, 203687, Note_on_c, 0, 67, 56
1, 203699, Control_c, 0, 64, 102
1, 203703, Note_on_c, 0, 70, 38
1, 203714, Control_c, 0, 64, 104
1, 203728, Control_c, 0, 64, 105
1, 203737, Note_off_c, 0, 67, 49
1, 203749, Note_off_c, 0, 70, 45
1, 203755, Note_off_c, 0, 77, 59
1, 203782, Note_on_c, 0, 75, 62
1, 203824, Note_off_c, 0, 75, 55
1, 203859, Note_on_c, 0, 84, 79
1, 203871, Note_on_c, 0, 72, 60
1, 203883, Note_on_c, 0, 68, 51
1, 203914, Note_off_c, 0, 72, 45
1, 203945, Note_off_c, 0, 84, 65
1, 203961, Note_on_c, 0, 75, 64
1, 203966, Control_c, 0, 64, 103
1, 203981, Control_c, 0, 64, 101
1, 203981, Control_c, 0, 67, 95
1, 203996, Control_c, 0, 64, 100
1, 204010, Control_c, 0, 67, 96
1, 204024, Note_off_c, 0, 68, 34
1, 204038, Note_off_c, 0, 75, 47
1, 204042, Note_off_c, 0, 63, 57
1, 204045, Note_on_c, 0, 82, 79
1, 204046, Note_on_c, 0, 70, 59
1, 204051, Note_on_c, 0, 67, 58
1, 204055, Control_c, 0, 67, 96
1, 204081, Note_off_c, 0, 67, 65
1, 204086, Control_c, 0, 64, 100
1, 204093, Note_off_c, 0, 70, 53
1, 204113, Note_off_c, 0, 82, 63
1, 204139, Note_on_c, 0, 75, 67
1, 204160, Control_c, 0, 64, 99
1, 204175, Control_c, 0, 64, 99
1, 204183, Note_off_c, 0, 75, 48
1, 204189, Control_c, 0, 64, 97
1, 204204, Control_c, 0, 64, 92
1, 204219, Control_c, 0, 64, 85
1, 204223, Note_on_c, 0, 82, 81
1, 204229, Note_on_c, 0, 58, 48
1, 204234, Control_c, 0, 64, 79
1, 204249, Control_c, 0, 64, 73
1, 204263, Control_c, 0, 64, 67
1, 204278, Control_c, 0, 64, 65
1, 204293, Control_c, 0, 64, 63
1, 204307, Control_c, 0, 64, 63
1, 204322, Control_c, 0, 64, 64
1, 204328, Note_on_c, 0, 70, 64
1, 204337, Control_c, 0, 64, 67
1, 204360, Note_off_c, 0, 82, 62
1, 204360, Control_c, 0, 64, 70
1, 204375, Control_c, 0, 64, 74
1, 204389, Control_c, 0, 64, 78
1, 204404, Control_c, 0, 64, 83
1, 204408, Note_off_c, 0, 70, 62
1, 204415, Note_on_c, 0, 68, 41
1, 204415, Note_on_c, 0, 80, 79
1, 204419, Control_c, 0, 64, 86
1, 204419, Control_c, 0, 67, 96
1, 204420, Note_on_c, 0, 65, 49
1, 204433, Control_c, 0, 64, 89
1, 204433, Control_c, 0, 67, 95
1, 204436, Note_on_c, 0, 74, 54
1, 204448, Control_c, 0, 64, 92
1, 204448, Control_c, 0, 67, 95
1, 204453, Note_off_c, 0, 68, 49
1, 204459, Note_off_c, 0, 74, 61
1, 204463, Control_c, 0, 64, 96
1, 204463, Control_c, 0, 67, 94
1, 204478, Control_c, 0, 64, 100
1, 204478, Control_c, 0, 67, 93
1, 204493, Control_c, 0, 64, 101
1, 204493, Control_c, 0, 67, 92
1, 204501, Note_on_c, 0, 70, 76
1, 204501, Note_off_c, 0, 80, 60
1, 204507, Control_c, 0, 67, 91
1, 204522, Control_c, 0, 67, 90
1, 204537, Control_c, 0, 67, 89
1, 204552, Control_c, 0, 64, 100
1, 204552, Control_c, 0, 67, 85
1, 204567, Control_c, 0, 64, 100
1, 204567, Control_c, 0, 67, 80
1, 204581, Control_c, 0, 67, 74
1, 204585, Note_off_c, 0, 70, 61
1, 204596, Note_off_c, 0, 65, 31
1, 204596, Control_c, 0, 67, 67
1, 204600, Note_on_c, 0, 79, 82
1, 204601, Note_on_c, 0, 63, 63
1, 204601, Note_on_c, 0, 67, 45
1, 204610, Note_on_c, 0, 75, 62
1, 204611, Control_c, 0, 67, 61
1, 204626, Note_off_c, 0, 67, 57
1, 204626, Control_c, 0, 64, 99
1, 204626, Control_c, 0, 67, 55
1, 204641, Control_c, 0, 67, 48
1, 204655, Control_c, 0, 67, 39
1, 204670, Control_c, 0, 67, 30
1, 204685, Control_c, 0, 67, 19
1, 204696, Note_on_c, 0, 70, 76
1, 204697, Note_off_c, 0, 79, 58
1, 204699, Note_off_c, 0, 75, 59
1, 204700, Control_c, 0, 67, 10
1, 204715, Control_c, 0, 67, 0
1, 204716, Note_off_c, 0, 63, 39
1, 204763, Note_off_c, 0, 58, 37
1, 204775, Note_off_c, 0, 70, 63
1, 204778, Note_on_c, 0, 77, 86
1, 204797, Note_on_c, 0, 65, 56
1, 204799, Note_on_c, 0, 68, 55
1, 204802, Note_on_c, 0, 62, 45
1, 204834, Note_off_c, 0, 68, 64
1, 204836, Note_off_c, 0, 62, 63
1, 204839, Note_off_c, 0, 65, 61
1, 204869, Note_on_c, 0, 70, 70
1, 204896, Note_off_c, 0, 70, 67
1, 204938, Control_c, 0, 64, 99
1, 204953, Control_c, 0, 64, 98
1, 204968, Control_c, 0, 64, 97
1, 204983, Control_c, 0, 64, 96
1, 204997, Control_c, 0, 64, 94
1, 205006, Note_on_c, 0, 79, 85
1, 205011, Note_off_c, 0, 77, 60
1, 205012, Control_c, 0, 64, 91
1, 205027, Control_c, 0, 64, 88
1, 205031, Note_on_c, 0, 67, 55
1, 205037, Note_on_c, 0, 51, 58
1, 205042, Control_c, 0, 64, 84
1, 205056, Control_c, 0, 64, 80
1, 205071, Control_c, 0, 64, 73
1, 205086, Control_c, 0, 64, 65
1, 205109, Control_c, 0, 64, 58
1, 205123, Control_c, 0, 64, 47
1, 205138, Control_c, 0, 64, 44
1, 205150, Note_on_c, 0, 70, 62
1, 205153, Control_c, 0, 64, 37
1, 205168, Control_c, 0, 64, 28
1, 205183, Control_c, 0, 64, 11
1, 205198, Control_c, 0, 64, 0
1, 205212, Control_c, 0, 64, 29
1, 205227, Control_c, 0, 64, 51
1, 205232, Note_off_c, 0, 70, 61
1, 205236, Note_on_c, 0, 72, 57
1, 205242, Control_c, 0, 64, 60
1, 205249, Note_on_c, 0, 57, 51
1, 205255, Note_on_c, 0, 54, 58
1, 205256, Control_c, 0, 64, 63
1, 205271, Control_c, 0, 64, 65
1, 205286, Control_c, 0, 64, 67
1, 205296, Note_off_c, 0, 79, 40
1, 205301, Control_c, 0, 64, 72
1, 205316, Control_c, 0, 64, 77
1, 205330, Control_c, 0, 64, 82
1, 205332, Note_on_c, 0, 70, 58
1, 205343, Note_off_c, 0, 72, 58
1, 205345, Control_c, 0, 64, 85
1, 205360, Control_c, 0, 64, 87
1, 205370, Note_off_c, 0, 57, 54
1, 205375, Control_c, 0, 64, 88
1, 205390, Control_c, 0, 64, 89
1, 205404, Control_c, 0, 64, 92
1, 205417, Note_off_c, 0, 54, 56
1, 205419, Control_c, 0, 64, 96
1, 205422, Note_off_c, 0, 70, 63
1, 205434, Control_c, 0, 64, 100
1, 205436, Note_on_c, 0, 72, 64
1, 205449, Control_c, 0, 64, 102
1, 205463, Control_c, 0, 64, 103
1, 205478, Control_c, 0, 64, 104
1, 205493, Control_c, 0, 64, 104
1, 205508, Note_off_c, 0, 72, 58
1, 205508, Control_c, 0, 64, 106
1, 205511, Note_on_c, 0, 70, 68
1, 205523, Control_c, 0, 64, 108
1, 205538, Control_c, 0, 64, 110
1, 205553, Control_c, 0, 64, 113
1, 205568, Control_c, 0, 64, 116
1, 205583, Control_c, 0, 64, 117
1, 205600, Note_off_c, 0, 70, 61
1, 205607, Note_on_c, 0, 72, 75
1, 205612, Note_on_c, 0, 55, 51
1, 205612, Control_c, 0, 64, 118
1, 205622, Note_on_c, 0, 58, 44
1, 205632, Note_off_c, 0, 51, 55
1, 205672, Control_c, 0, 64, 117
1, 205698, Note_on_c, 0, 70, 70
1, 205698, Note_off_c, 0, 72, 59
1, 205729, Note_off_c, 0, 67, 39
1, 205746, Control_c, 0, 64, 117
1, 205761, Control_c, 0, 64, 116
1, 205763, Note_off_c, 0, 55, 49
1, 205773, Note_off_c, 0, 58, 37
1, 205776, Control_c, 0, 64, 111
1, 205791, Control_c, 0, 64, 106
1, 205794, Note_on_c, 0, 51, 54
1, 205796, Note_on_c, 0, 77, 82
1, 205799, Note_off_c, 0, 70, 62
1, 205806, Control_c, 0, 64, 99
1, 205809, Note_on_c, 0, 65, 64
1, 205821, Control_c, 0, 64, 90
1, 205836, Control_c, 0, 64, 81
1, 205858, Control_c, 0, 64, 73
1, 205873, Control_c, 0, 64, 64
1, 205887, Control_c, 0, 64, 53
1, 205902, Control_c, 0, 64, 41
1, 205917, Control_c, 0, 64, 33
1, 205921, Note_on_c, 0, 68, 62
1, 205932, Control_c, 0, 64, 32
1, 205947, Control_c, 0, 64, 42
1, 205961, Control_c, 0, 64, 57
1, 205976, Control_c, 0, 64, 64
1, 205991, Control_c, 0, 64, 67
1, 205994, Note_off_c, 0, 68, 61
1, 205998, Note_on_c, 0, 70, 68
1, 206006, Control_c, 0, 64, 70
1, 206015, Note_on_c, 0, 59, 60
1, 206018, Note_on_c, 0, 62, 55
1, 206021, Control_c, 0, 64, 73
1, 206036, Control_c, 0, 64, 76
1, 206038, Note_off_c, 0, 65, 51
1, 206046, Note_off_c, 0, 77, 50
1, 206051, Control_c, 0, 64, 80
1, 206064, Note_on_c, 0, 73, 17
1, 206065, Control_c, 0, 64, 84
1, 206080, Control_c, 0, 64, 85
1, 206080, Control_c, 0, 67, 9
1, 206095, Control_c, 0, 64, 86
1, 206095, Control_c, 0, 67, 10
1, 206098, Note_on_c, 0, 68, 71
1, 206110, Control_c, 0, 64, 88
1, 206110, Control_c, 0, 67, 12
1, 206114, Note_off_c, 0, 73, 48
1, 206125, Control_c, 0, 64, 90
1, 206125, Control_c, 0, 67, 14
1, 206125, Note_off_c, 0, 70, 60
1, 206140, Control_c, 0, 64, 93
1, 206140, Control_c, 0, 67, 17
1, 206154, Control_c, 0, 64, 96
1, 206154, Control_c, 0, 67, 21
1, 206169, Control_c, 0, 64, 100
1, 206169, Control_c, 0, 67, 26
1, 206184, Control_c, 0, 64, 103
1, 206184, Control_c, 0, 67, 30
1, 206197, Note_on_c, 0, 70, 63
1, 206199, Control_c, 0, 64, 107
1, 206199, Control_c, 0, 67, 34
1, 206201, Note_off_c, 0, 68, 60
1, 206213, Control_c, 0, 64, 111
1, 206213, Control_c, 0, 67, 40
1, 206228, Control_c, 0, 64, 121
1, 206228, Control_c, 0, 67, 45
1, 206243, Control_c, 0, 64, 127
1, 206243, Control_c, 0, 67, 46
1, 206258, Control_c, 0, 67, 46
1, 206277, Note_off_c, 0, 70, 62
1, 206281, Note_on_c, 0, 68, 73
1, 206287, Control_c, 0, 67, 46
1, 206317, Control_c, 0, 67, 45
1, 206347, Control_c, 0, 67, 44
1, 206361, Control_c, 0, 67, 43
1, 206370, Note_off_c, 0, 68, 59
1, 206374, Note_off_c, 0, 59, 59
1, 206375, Note_on_c, 0, 70, 75
1, 206376, Control_c, 0, 67, 42
1, 206377, Note_on_c, 0, 58, 66
1, 206390, Note_off_c, 0, 51, 48
1, 206406, Note_off_c, 0, 58, 64
1, 206414, Note_off_c, 0, 62, 35
1, 206435, Control_c, 0, 67, 41
1, 206450, Control_c, 0, 67, 41
1, 206458, Note_on_c, 0, 68, 68
1, 206465, Control_c, 0, 67, 40
1, 206481, Control_c, 0, 67, 40
1, 206495, Note_off_c, 0, 70, 62
1, 206495, Note_off_c, 0, 68, 56
1, 206496, Control_c, 0, 64, 115
1, 206510, Control_c, 0, 64, 99
1, 206525, Control_c, 0, 64, 85
1, 206540, Control_c, 0, 64, 70
1, 206540, Control_c, 0, 67, 39
1, 206555, Control_c, 0, 64, 61
1, 206555, Control_c, 0, 67, 38
1, 206569, Control_c, 0, 64, 53
1, 206575, Note_on_c, 0, 75, 67
1, 206581, Note_on_c, 0, 66, 39
1, 206584, Control_c, 0, 64, 56
1, 206584, Control_c, 0, 67, 38
1, 206594, Note_on_c, 0, 55, 56
1, 206595, Note_on_c, 0, 51, 53
1, 206596, Note_on_c, 0, 67, 73
1, 206596, Note_on_c, 0, 58, 63
1, 206607, Control_c, 0, 64, 63
1, 206619, Note_off_c, 0, 66, 57
1, 206622, Control_c, 0, 64, 67
1, 206636, Control_c, 0, 64, 74
1, 206636, Control_c, 0, 67, 38
1, 206649, Note_off_c, 0, 75, 61
1, 206651, Control_c, 0, 64, 81
1, 206658, Note_off_c, 0, 67, 62
1, 206666, Control_c, 0, 64, 88
1, 206681, Control_c, 0, 64, 94
1, 206696, Control_c, 0, 64, 98
1, 206706, Note_on_c, 0, 63, 67
1, 206710, Control_c, 0, 64, 100
1, 206724, Note_off_c, 0, 58, 60
1, 206725, Control_c, 0, 64, 102
1, 206725, Control_c, 0, 67, 39
1, 206728, Note_off_c, 0, 55, 62
1, 206740, Control_c, 0, 64, 104
1, 206755, Control_c, 0, 64, 106
1, 206757, Note_off_c, 0, 51, 66
1, 206770, Control_c, 0, 64, 108
1, 206774, Note_off_c, 0, 63, 60
1, 206781, Note_on_c, 0, 65, 68
1, 206829, Control_c, 0, 67, 38
1, 206843, Control_c, 0, 67, 39
1, 206868, Note_on_c, 0, 63, 75
1, 206883, Note_off_c, 0, 65, 56
1, 206913, Note_off_c, 0, 63, 59
1, 206918, Control_c, 0, 64, 101
1, 206933, Control_c, 0, 64, 90
1, 206933, Control_c, 0, 67, 38
1, 206948, Control_c, 0, 64, 78
1, 206963, Control_c, 0, 64, 68
1, 206970, Note_on_c, 0, 72, 73
1, 206973, Note_on_c, 0, 68, 65
1, 206977, Note_on_c, 0, 56, 56
1, 206977, Control_c, 0, 64, 63
1, 206977, Control_c, 0, 67, 38
1, 206978, Note_on_c, 0, 51, 56
1, 206980, Note_on_c, 0, 44, 59
1, 206992, Control_c, 0, 64, 62
1, 206992, Control_c, 0, 67, 37
1, 207007, Control_c, 0, 64, 65
1, 207022, Control_c, 0, 64, 68
1, 207024, Note_off_c, 0, 56, 63
1, 207035, Note_off_c, 0, 68, 53
1, 207036, Control_c, 0, 64, 73
1, 207036, Control_c, 0, 67, 38
1, 207037, Note_off_c, 0, 72, 63
1, 207040, Note_off_c, 0, 51, 63
1, 207048, Note_on_c, 0, 60, 66
1, 207051, Control_c, 0, 64, 78
1, 207056, Note_off_c, 0, 44, 64
1, 207066, Control_c, 0, 64, 83
1, 207081, Control_c, 0, 64, 84
1, 207096, Control_c, 0, 64, 80
1, 207110, Control_c, 0, 64, 70
1, 207116, Note_off_c, 0, 60, 62
1, 207125, Control_c, 0, 64, 60
1, 207140, Control_c, 0, 64, 52
1, 207147, Note_on_c, 0, 70, 70
1, 207148, Note_on_c, 0, 67, 65
1, 207155, Control_c, 0, 64, 60
1, 207163, Note_on_c, 0, 39, 63
1, 207164, Note_on_c, 0, 51, 67
1, 207170, Control_c, 0, 64, 66
1, 207184, Control_c, 0, 64, 71
1, 207199, Note_off_c, 0, 51, 63
1, 207199, Control_c, 0, 64, 78
1, 207209, Note_off_c, 0, 39, 61
1, 207210, Note_off_c, 0, 67, 60
1, 207214, Control_c, 0, 64, 84
1, 207222, Note_off_c, 0, 70, 61
1, 207225, Note_on_c, 0, 58, 72
1, 207228, Control_c, 0, 64, 90
1, 207243, Control_c, 0, 64, 92
1, 207258, Control_c, 0, 64, 92
1, 207274, Control_c, 0, 64, 85
1, 207289, Control_c, 0, 64, 76
1, 207289, Control_c, 0, 67, 38
1, 207304, Control_c, 0, 64, 66
1, 207304, Control_c, 0, 67, 38
1, 207308, Note_off_c, 0, 58, 59
1, 207319, Control_c, 0, 64, 63
1, 207326, Note_on_c, 0, 70, 74
1, 207333, Control_c, 0, 64, 64
1, 207338, Note_on_c, 0, 67, 59
1, 207340, Note_on_c, 0, 34, 62
1, 207356, Control_c, 0, 64, 67
1, 207371, Control_c, 0, 64, 71
1, 207371, Control_c, 0, 67, 38
1, 207386, Control_c, 0, 64, 77
1, 207389, Note_off_c, 0, 67, 59
1, 207400, Control_c, 0, 64, 84
1, 207410, Note_off_c, 0, 70, 60
1, 207415, Note_on_c, 0, 58, 76
1, 207415, Control_c, 0, 64, 87
1, 207430, Control_c, 0, 64, 87
1, 207445, Control_c, 0, 64, 81
1, 207459, Control_c, 0, 64, 71
1, 207474, Control_c, 0, 64, 61
1, 207488, Note_off_c, 0, 58, 55
1, 207489, Control_c, 0, 64, 35
1, 207504, Control_c, 0, 64, 40
1, 207519, Control_c, 0, 64, 58
1, 207524, Note_on_c, 0, 68, 69
1, 207533, Note_off_c, 0, 34, 38
1, 207533, Control_c, 0, 64, 65
1, 207535, Note_on_c, 0, 46, 60
1, 207541, Note_on_c, 0, 65, 56
1, 207548, Control_c, 0, 64, 70
1, 207563, Control_c, 0, 64, 76
1, 207578, Control_c, 0, 64, 83
1, 207593, Control_c, 0, 64, 87
1, 207600, Note_on_c, 0, 56, 71
1, 207603, Note_off_c, 0, 65, 42
1, 207607, Control_c, 0, 64, 88
1, 207611, Note_off_c, 0, 68, 56
1, 207622, Control_c, 0, 64, 86
1, 207637, Control_c, 0, 64, 79
1, 207651, Note_off_c, 0, 56, 63
1, 207651, Control_c, 0, 64, 68
1, 207666, Note_off_c, 0, 46, 35
1, 207666, Control_c, 0, 64, 45
1, 207681, Control_c, 0, 64, 11
1, 207681, Control_c, 0, 67, 38
1, 207693, Note_on_c, 0, 34, 59
1, 207696, Control_c, 0, 64, 48
1, 207705, Note_on_c, 0, 67, 74
1, 207711, Control_c, 0, 64, 63
1, 207711, Control_c, 0, 67, 37
1, 207714, Note_on_c, 0, 63, 58
1, 207726, Control_c, 0, 64, 68
1, 207741, Control_c, 0, 64, 73
1, 207741, Control_c, 0, 67, 38
1, 207750, Note_off_c, 0, 63, 62
1, 207756, Control_c, 0, 64, 79
1, 207756, Control_c, 0, 67, 38
1, 207771, Control_c, 0, 64, 88
1, 207774, Note_off_c, 0, 67, 59
1, 207785, Control_c, 0, 64, 90
1, 207787, Note_on_c, 0, 55, 69
1, 207800, Control_c, 0, 64, 86
1, 207815, Control_c, 0, 64, 75
1, 207815, Control_c, 0, 67, 38
1, 207822, Note_off_c, 0, 34, 60
1, 207830, Control_c, 0, 64, 63
1, 207845, Control_c, 0, 64, 50
1, 207859, Control_c, 0, 64, 56
1, 207859, Control_c, 0, 67, 37
1, 207866, Note_off_c, 0, 55, 59
1, 207874, Control_c, 0, 64, 65
1, 207881, Note_on_c, 0, 65, 72
1, 207884, Note_on_c, 0, 62, 63
1, 207889, Note_on_c, 0, 46, 58
1, 207889, Control_c, 0, 64, 70
1, 207904, Control_c, 0, 64, 73
1, 207919, Control_c, 0, 64, 76
1, 207919, Control_c, 0, 67, 38
1, 207933, Control_c, 0, 64, 75
1, 207933, Control_c, 0, 67, 38
1, 207936, Note_off_c, 0, 62, 57
1, 207948, Control_c, 0, 64, 73
1, 207958, Note_on_c, 0, 53, 74
1, 207959, Note_off_c, 0, 65, 62
1, 207963, Control_c, 0, 64, 69
1, 207977, Control_c, 0, 64, 64
1, 207977, Control_c, 0, 67, 39
1, 207992, Control_c, 0, 64, 55
1, 208000, Note_off_c, 0, 46, 50
1, 208007, Control_c, 0, 64, 39
1, 208007, Control_c, 0, 67, 39
1, 208022, Control_c, 0, 64, 0
1, 208022, Control_c, 0, 67, 40
1, 208037, Control_c, 0, 67, 40
1, 208043, Note_on_c, 0, 39, 59
1, 208043, Note_off_c, 0, 53, 63
1, 208051, Control_c, 0, 67, 41
1, 208060, Note_on_c, 0, 63, 87
1, 208066, Control_c, 0, 67, 41
1, 208082, Control_c, 0, 67, 42
1, 208104, Control_c, 0, 67, 42
1, 208119, Control_c, 0, 67, 43
1, 208134, Control_c, 0, 67, 44
1, 208149, Control_c, 0, 67, 45
1, 208155, Note_on_c, 0, 59, 86
1, 208164, Control_c, 0, 67, 46
1, 208179, Control_c, 0, 64, 40
1, 208179, Control_c, 0, 67, 47
1, 208194, Control_c, 0, 64, 55
1, 208194, Control_c, 0, 67, 49
1, 208209, Control_c, 0, 64, 62
1, 208209, Control_c, 0, 67, 51
1, 208224, Control_c, 0, 64, 65
1, 208224, Control_c, 0, 67, 54
1, 208239, Note_on_c, 0, 55, 88
1, 208239, Control_c, 0, 64, 70
1, 208239, Control_c, 0, 67, 57
1, 208253, Control_c, 0, 64, 75
1, 208253, Control_c, 0, 67, 58
1, 208268, Control_c, 0, 64, 79
1, 208268, Control_c, 0, 67, 59
1, 208283, Control_c, 0, 64, 81
1, 208283, Control_c, 0, 67, 61
1, 208298, Control_c, 0, 64, 82
1, 208298, Control_c, 0, 67, 64
1, 208313, Control_c, 0, 67, 67
1, 208316, Note_off_c, 0, 59, 60
1, 208328, Control_c, 0, 64, 82
1, 208328, Control_c, 0, 67, 70
1, 208330, Note_on_c, 0, 47, 80
1, 208343, Control_c, 0, 64, 83
1, 208343, Control_c, 0, 67, 72
1, 208353, Note_off_c, 0, 39, 53
1, 208372, Control_c, 0, 64, 82
1, 208401, Control_c, 0, 64, 82
1, 208416, Control_c, 0, 64, 81
1, 208416, Control_c, 0, 67, 72
1, 208426, Note_off_c, 0, 55, 59
1, 208426, Note_on_c, 0, 46, 86
1, 208431, Control_c, 0, 64, 78
1, 208431, Control_c, 0, 67, 73
1, 208446, Control_c, 0, 64, 75
1, 208446, Control_c, 0, 67, 74
1, 208456, Note_off_c, 0, 63, 29
1, 208461, Control_c, 0, 64, 72
1, 208463, Note_off_c, 0, 47, 65
1, 208475, Control_c, 0, 64, 67
1, 208490, Control_c, 0, 64, 63
1, 208505, Control_c, 0, 64, 45
1, 208513, Note_on_c, 0, 58, 68
1, 208520, Control_c, 0, 64, 0
1, 208564, Control_c, 0, 67, 73
1, 208568, Note_off_c, 0, 46, 60
1, 208579, Control_c, 0, 67, 72
1, 208593, Control_c, 0, 67, 72
1, 208600, Note_off_c, 0, 58, 58
1, 208608, Control_c, 0, 67, 71
1, 208609, Note_on_c, 0, 55, 70
1, 208619, Note_on_c, 0, 39, 72
1, 208623, Control_c, 0, 67, 70
1, 208688, Note_off_c, 0, 39, 62
1, 208688, Note_off_c, 0, 55, 61
1, 208698, Control_c, 0, 67, 70
1, 208698, Note_on_c, 0, 63, 68
1, 208727, Control_c, 0, 67, 69
1, 208742, Control_c, 0, 64, 23
1, 208757, Control_c, 0, 64, 53
1, 208763, Note_off_c, 0, 63, 60
1, 208772, Control_c, 0, 64, 63
1, 208785, Note_on_c, 0, 34, 74
1, 208787, Control_c, 0, 64, 67
1, 208797, Note_on_c, 0, 58, 76
1, 208801, Control_c, 0, 64, 71
1, 208816, Control_c, 0, 64, 75
1, 208818, Note_off_c, 0, 34, 65
1, 208831, Control_c, 0, 64, 76
1, 208831, Control_c, 0, 67, 70
1, 208865, Note_off_c, 0, 58, 63
1, 208897, Note_on_c, 0, 63, 68
1, 208928, Control_c, 0, 64, 76
1, 208958, Control_c, 0, 67, 70
1, 208987, Note_on_c, 0, 62, 77
1, 208994, Note_off_c, 0, 63, 61
1, 209000, Note_on_c, 0, 56, 68
1, 209002, Control_c, 0, 64, 75
1, 209002, Control_c, 0, 67, 71
1, 209017, Control_c, 0, 64, 75
1, 209031, Control_c, 0, 64, 74
1, 209057, Note_off_c, 0, 56, 64
1, 209069, Note_on_c, 0, 63, 80
1, 209076, Control_c, 0, 64, 74
1, 209079, Note_on_c, 0, 55, 67
1, 209079, Note_off_c, 0, 62, 56
1, 209091, Control_c, 0, 64, 72
1, 209091, Control_c, 0, 67, 70
1, 209106, Control_c, 0, 64, 70
1, 209106, Control_c, 0, 67, 70
1, 209121, Control_c, 0, 64, 69
1, 209136, Control_c, 0, 64, 70
1, 209147, Note_off_c, 0, 55, 62
1, 209151, Control_c, 0, 64, 70
1, 209154, Note_on_c, 0, 65, 82
1, 209156, Note_on_c, 0, 53, 74
1, 209166, Control_c, 0, 67, 69
1, 209186, Note_off_c, 0, 63, 62
1, 209195, Control_c, 0, 64, 70
1, 209210, Control_c, 0, 64, 69
1, 209232, Note_off_c, 0, 53, 64
1, 209238, Note_on_c, 0, 51, 75
1, 209239, Control_c, 0, 64, 69
1, 209241, Note_on_c, 0, 67, 83
1, 209254, Control_c, 0, 64, 67
1, 209258, Note_off_c, 0, 65, 61
1, 209269, Control_c, 0, 64, 66
1, 209284, Control_c, 0, 64, 66
1, 209298, Control_c, 0, 64, 65
1, 209313, Control_c, 0, 64, 65
1, 209327, Note_on_c, 0, 68, 89
1, 209328, Note_on_c, 0, 50, 70
1, 209328, Control_c, 0, 67, 70
1, 209338, Note_off_c, 0, 51, 55
1, 209343, Note_on_c, 0, 46, 67
1, 209343, Note_off_c, 0, 67, 61
1, 209343, Control_c, 0, 64, 64
1, 209358, Control_c, 0, 64, 64
1, 209372, Control_c, 0, 64, 63
1, 209387, Control_c, 0, 64, 63
1, 209388, Note_off_c, 0, 50, 65
1, 209402, Control_c, 0, 64, 62
1, 209403, Note_off_c, 0, 68, 64
1, 209413, Note_off_c, 0, 46, 61
1, 209416, Note_on_c, 0, 65, 83
1, 209416, Note_on_c, 0, 53, 72
1, 209416, Control_c, 0, 64, 61
1, 209431, Control_c, 0, 64, 60
1, 209431, Control_c, 0, 67, 69
1, 209446, Control_c, 0, 64, 58
1, 209461, Control_c, 0, 64, 56
1, 209476, Control_c, 0, 64, 50
1, 209479, Note_off_c, 0, 53, 62
1, 209490, Control_c, 0, 64, 19
1, 209505, Control_c, 0, 64, 0
1, 209512, Note_on_c, 0, 75, 90
1, 209516, Note_on_c, 0, 51, 71
1, 209520, Control_c, 0, 67, 70
1, 209522, Note_off_c, 0, 65, 58
1, 209550, Control_c, 0, 67, 70
1, 209580, Control_c, 0, 67, 71
1, 209613, Note_on_c, 0, 71, 87
1, 209617, Control_c, 0, 67, 71
1, 209631, Control_c, 0, 64, 44
1, 209646, Control_c, 0, 64, 61
1, 209661, Control_c, 0, 64, 66
1, 209661, Control_c, 0, 67, 71
1, 209677, Control_c, 0, 64, 70
1, 209692, Control_c, 0, 64, 73
1, 209692, Control_c, 0, 67, 70
1, 209706, Note_on_c, 0, 67, 94
1, 209707, Control_c, 0, 64, 77
1, 209707, Control_c, 0, 67, 70
1, 209722, Control_c, 0, 64, 81
1, 209722, Control_c, 0, 67, 69
1, 209736, Control_c, 0, 64, 83
1, 209736, Control_c, 0, 67, 69
1, 209768, Note_off_c, 0, 71, 63
1, 209781, Control_c, 0, 64, 84
1, 209788, Note_off_c, 0, 51, 63
1, 209796, Control_c, 0, 64, 85
1, 209796, Control_c, 0, 67, 68
1, 209798, Note_on_c, 0, 59, 83
1, 209840, Control_c, 0, 64, 85
1, 209854, Control_c, 0, 64, 84
1, 209873, Note_off_c, 0, 67, 44
1, 209884, Control_c, 0, 64, 84
1, 209887, Note_on_c, 0, 58, 90
1, 209899, Control_c, 0, 64, 82
1, 209914, Control_c, 0, 64, 79
1, 209923, Note_off_c, 0, 59, 62
1, 209929, Control_c, 0, 64, 77
1, 209944, Control_c, 0, 64, 74
1, 209958, Control_c, 0, 64, 74
1, 209958, Control_c, 0, 67, 69
1, 209973, Control_c, 0, 64, 73
1, 209976, Note_on_c, 0, 70, 74
1, 209988, Control_c, 0, 64, 73
1, 209988, Control_c, 0, 67, 68
1, 210003, Control_c, 0, 64, 71
1, 210003, Control_c, 0, 67, 68
1, 210018, Note_off_c, 0, 58, 58
1, 210018, Control_c, 0, 64, 69
1, 210033, Control_c, 0, 64, 66
1, 210039, Note_off_c, 0, 75, 24
1, 210047, Control_c, 0, 64, 63
1, 210062, Control_c, 0, 64, 57
1, 210076, Note_on_c, 0, 67, 72
1, 210077, Control_c, 0, 64, 27
1, 210077, Control_c, 0, 67, 67
1, 210078, Note_off_c, 0, 70, 58
1, 210089, Note_on_c, 0, 51, 79
1, 210092, Control_c, 0, 64, 0
1, 210161, Note_on_c, 0, 75, 75
1, 210161, Note_off_c, 0, 67, 61
1, 210170, Note_off_c, 0, 51, 65
1, 210181, Control_c, 0, 64, 24
1, 210195, Control_c, 0, 64, 51
1, 210195, Control_c, 0, 67, 68
1, 210210, Control_c, 0, 64, 62
1, 210225, Note_off_c, 0, 75, 60
1, 210225, Control_c, 0, 64, 66
1, 210240, Control_c, 0, 64, 69
1, 210254, Control_c, 0, 64, 70
1, 210257, Note_on_c, 0, 46, 81
1, 210265, Note_on_c, 0, 70, 82
1, 210286, Note_off_c, 0, 46, 67
1, 210299, Control_c, 0, 64, 71
1, 210299, Control_c, 0, 67, 68
1, 210328, Control_c, 0, 64, 71
1, 210329, Note_off_c, 0, 70, 63
1, 210361, Note_on_c, 0, 75, 74
1, 210395, Control_c, 0, 64, 71
1, 210425, Control_c, 0, 64, 70
1, 210440, Control_c, 0, 64, 70
1, 210453, Note_on_c, 0, 74, 89
1, 210454, Control_c, 0, 64, 69
1, 210455, Note_on_c, 0, 68, 76
1, 210466, Note_off_c, 0, 75, 59
1, 210469, Control_c, 0, 64, 68
1, 210485, Control_c, 0, 64, 67
1, 210500, Control_c, 0, 64, 67
1, 210500, Control_c, 0, 67, 69
1, 210521, Note_off_c, 0, 68, 62
1, 210537, Note_on_c, 0, 75, 81
1, 210541, Note_on_c, 0, 67, 70
1, 210554, Note_off_c, 0, 74, 59
1, 210559, Control_c, 0, 64, 66
1, 210574, Control_c, 0, 64, 66
1, 210606, Note_off_c, 0, 67, 61
1, 210618, Note_on_c, 0, 65, 71
1, 210619, Control_c, 0, 64, 65
1, 210632, Note_on_c, 0, 77, 88
1, 210633, Control_c, 0, 64, 64
1, 210648, Control_c, 0, 64, 63
1, 210663, Control_c, 0, 64, 62
1, 210663, Control_c, 0, 67, 69
1, 210671, Note_off_c, 0, 75, 58
1, 210677, Control_c, 0, 64, 59
1, 210677, Control_c, 0, 67, 70
1, 210692, Control_c, 0, 64, 45
1, 210701, Note_on_c, 0, 63, 77
1, 210707, Note_off_c, 0, 65, 62
1, 210707, Control_c, 0, 64, 0
1, 210707, Control_c, 0, 67, 70
1, 210722, Note_on_c, 0, 79, 88
1, 210722, Control_c, 0, 67, 71
1, 210751, Control_c, 0, 67, 72
1, 210754, Note_off_c, 0, 77, 62
1, 210781, Control_c, 0, 67, 72
1, 210795, Note_off_c, 0, 63, 59
1, 210796, Control_c, 0, 67, 73
1, 210801, Note_on_c, 0, 62, 64
1, 210810, Note_on_c, 0, 80, 83
1, 210811, Control_c, 0, 67, 74
1, 210823, Note_off_c, 0, 79, 60
1, 210826, Control_c, 0, 67, 74
1, 210834, Note_on_c, 0, 58, 47
1, 210841, Control_c, 0, 67, 76
1, 210856, Control_c, 0, 64, 56
1, 210856, Control_c, 0, 67, 76
1, 210870, Control_c, 0, 64, 65
1, 210870, Control_c, 0, 67, 78
1, 210885, Control_c, 0, 64, 70
1, 210885, Control_c, 0, 67, 82
1, 210900, Control_c, 0, 64, 75
1, 210900, Control_c, 0, 67, 85
1, 210902, Note_off_c, 0, 62, 59
1, 210914, Note_on_c, 0, 77, 70
1, 210915, Control_c, 0, 64, 81
1, 210915, Control_c, 0, 67, 89
1, 210928, Note_on_c, 0, 65, 59
1, 210930, Control_c, 0, 64, 84
1, 210930, Control_c, 0, 67, 92
1, 210936, Note_off_c, 0, 80, 61
1, 210944, Control_c, 0, 64, 85
1, 210944, Control_c, 0, 67, 95
1, 210951, Note_off_c, 0, 77, 65
1, 210959, Control_c, 0, 67, 98
1, 210970, Note_off_c, 0, 58, 49
1, 210974, Control_c, 0, 67, 103
1, 210981, Note_off_c, 0, 65, 61
1, 210989, Control_c, 0, 67, 107
1, 211003, Control_c, 0, 67, 111
1, 211018, Control_c, 0, 64, 84
1, 211018, Control_c, 0, 67, 114
1, 211033, Control_c, 0, 64, 83
1, 211033, Control_c, 0, 67, 117
1, 211048, Control_c, 0, 64, 80
1, 211048, Control_c, 0, 67, 121
1, 211063, Control_c, 0, 64, 77
1, 211063, Control_c, 0, 67, 125
1, 211077, Control_c, 0, 64, 73
1, 211077, Control_c, 0, 67, 127
1, 211100, Control_c, 0, 64, 69
1, 211115, Control_c, 0, 64, 63
1, 211130, Control_c, 0, 64, 59
1, 211145, Control_c, 0, 64, 53
1, 211159, Control_c, 0, 64, 42
1, 211174, Control_c, 0, 64, 11
1, 211189, Control_c, 0, 64, 0
1, 211248, Note_on_c, 0, 79, 52
1, 211270, Note_on_c, 0, 63, 33
1, 211272, Note_on_c, 0, 67, 35
1, 211293, Control_c, 0, 64, 21
1, 211308, Control_c, 0, 64, 30
1, 211347, Note_on_c, 0, 77, 60
1, 211353, Control_c, 0, 64, 35
1, 211367, Control_c, 0, 64, 44
1, 211382, Control_c, 0, 64, 51
1, 211397, Control_c, 0, 64, 52
1, 211411, Note_off_c, 0, 79, 43
1, 211412, Control_c, 0, 64, 54
1, 211426, Control_c, 0, 64, 57
1, 211441, Control_c, 0, 64, 60
1, 211446, Note_on_c, 0, 75, 55
1, 211456, Control_c, 0, 64, 61
1, 211471, Control_c, 0, 64, 62
1, 211500, Control_c, 0, 64, 63
1, 211510, Note_off_c, 0, 63, 46
1, 211515, Note_off_c, 0, 77, 46
1, 211515, Control_c, 0, 64, 63
1, 211517, Note_off_c, 0, 67, 42
1, 211530, Control_c, 0, 64, 64
1, 211549, Note_on_c, 0, 65, 48
1, 211589, Control_c, 0, 64, 64
1, 211604, Control_c, 0, 64, 65
1, 211619, Control_c, 0, 64, 65
1, 211631, Note_on_c, 0, 63, 51
1, 211634, Control_c, 0, 64, 65
1, 211637, Note_off_c, 0, 65, 56
1, 211664, Control_c, 0, 64, 64
1, 211678, Control_c, 0, 64, 65
1, 211708, Note_off_c, 0, 75, 61
1, 211723, Control_c, 0, 64, 64
1, 211724, Note_on_c, 0, 72, 58
1, 211792, Note_off_c, 0, 72, 59
1, 211812, Control_c, 0, 64, 64
1, 211816, Note_on_c, 0, 70, 53
1, 211860, Note_off_c, 0, 63, 61
1, 211893, Control_c, 0, 64, 63
1, 211906, Note_on_c, 0, 60, 45
1, 211995, Note_off_c, 0, 60, 55
1, 212004, Note_on_c, 0, 58, 52
1, 212041, Control_c, 0, 64, 64
1, 212087, Note_off_c, 0, 70, 60
1, 212088, Note_on_c, 0, 68, 57
1, 212146, Control_c, 0, 64, 63
1, 212189, Note_on_c, 0, 67, 56
1, 212218, Note_off_c, 0, 68, 47
1, 212260, Note_off_c, 0, 58, 58
1, 212279, Control_c, 0, 64, 63
1, 212281, Note_on_c, 0, 56, 44
1, 212294, Control_c, 0, 64, 62
1, 212309, Control_c, 0, 64, 61
1, 212323, Control_c, 0, 64, 59
1, 212338, Control_c, 0, 64, 55
1, 212353, Control_c, 0, 64, 54
1, 212367, Note_off_c, 0, 56, 55
1, 212377, Note_on_c, 0, 55, 51
1, 212398, Control_c, 0, 64, 55
1, 212413, Control_c, 0, 64, 57
1, 212420, Note_off_c, 0, 67, 59
1, 212428, Control_c, 0, 64, 60
1, 212442, Control_c, 0, 64, 63
1, 212454, Note_on_c, 0, 65, 47
1, 212457, Control_c, 0, 64, 64
1, 212472, Control_c, 0, 64, 66
1, 212487, Control_c, 0, 64, 67
1, 212502, Control_c, 0, 64, 69
1, 212516, Control_c, 0, 64, 70
1, 212546, Note_off_c, 0, 65, 61
1, 212550, Note_on_c, 0, 63, 58
1, 212554, Note_off_c, 0, 55, 60
1, 212598, Control_c, 0, 64, 69
1, 212613, Control_c, 0, 64, 69
1, 212628, Control_c, 0, 64, 68
1, 212643, Control_c, 0, 64, 68
1, 212651, Note_on_c, 0, 53, 57
1, 212657, Control_c, 0, 64, 67
1, 212702, Control_c, 0, 64, 67
1, 212717, Control_c, 0, 64, 66
1, 212731, Control_c, 0, 64, 65
1, 212742, Note_off_c, 0, 53, 60
1, 212761, Control_c, 0, 64, 64
1, 212764, Note_on_c, 0, 51, 47
1, 212775, Control_c, 0, 64, 63
1, 212790, Control_c, 0, 64, 61
1, 212805, Control_c, 0, 64, 54
1, 212820, Control_c, 0, 64, 45
1, 212835, Control_c, 0, 64, 44
1, 212842, Note_off_c, 0, 63, 60
1, 212850, Control_c, 0, 64, 47
1, 212852, Note_on_c, 0, 60, 51
1, 212865, Control_c, 0, 64, 53
1, 212880, Control_c, 0, 64, 59
1, 212895, Control_c, 0, 64, 62
1, 212909, Note_off_c, 0, 60, 59
1, 212910, Control_c, 0, 64, 64
1, 212925, Control_c, 0, 64, 65
1, 212932, Note_on_c, 0, 58, 53
1, 212954, Control_c, 0, 64, 65
1, 212960, Note_off_c, 0, 51, 64
1, 212999, Control_c, 0, 64, 65
1, 213020, Note_on_c, 0, 48, 51
1, 213029, Control_c, 0, 64, 64
1, 213079, Note_off_c, 0, 48, 53
1, 213120, Note_on_c, 0, 46, 50
1, 213133, Control_c, 0, 64, 64
1, 213147, Control_c, 0, 64, 62
1, 213162, Control_c, 0, 64, 60
1, 213177, Control_c, 0, 64, 56
1, 213191, Note_off_c, 0, 58, 59
1, 213191, Control_c, 0, 64, 53
1, 213202, Note_on_c, 0, 56, 53
1, 213206, Control_c, 0, 64, 54
1, 213221, Control_c, 0, 64, 57
1, 213236, Control_c, 0, 64, 59
1, 213251, Control_c, 0, 64, 61
1, 213265, Control_c, 0, 64, 63
1, 213280, Control_c, 0, 64, 64
1, 213295, Control_c, 0, 64, 65
1, 213299, Note_on_c, 0, 55, 51
1, 213303, Note_off_c, 0, 56, 50
1, 213310, Control_c, 0, 64, 67
1, 213333, Note_off_c, 0, 46, 53
1, 213398, Note_on_c, 0, 44, 48
1, 213406, Control_c, 0, 64, 66
1, 213451, Control_c, 0, 64, 66
1, 213466, Control_c, 0, 64, 66
1, 213475, Note_off_c, 0, 44, 58
1, 213496, Control_c, 0, 64, 66
1, 213508, Note_on_c, 0, 43, 43
1, 213511, Control_c, 0, 64, 65
1, 213526, Control_c, 0, 64, 65
1, 213538, Note_off_c, 0, 55, 60
1, 213541, Control_c, 0, 64, 63
1, 213555, Control_c, 0, 64, 59
1, 213570, Control_c, 0, 64, 53
1, 213584, Note_on_c, 0, 53, 45
1, 213585, Control_c, 0, 64, 51
1, 213599, Control_c, 0, 64, 52
1, 213614, Control_c, 0, 64, 56
1, 213629, Control_c, 0, 64, 61
1, 213644, Control_c, 0, 64, 64
1, 213659, Control_c, 0, 64, 65
1, 213673, Note_off_c, 0, 53, 62
1, 213675, Control_c, 0, 64, 67
1, 213679, Note_on_c, 0, 51, 50
1, 213679, Note_off_c, 0, 43, 61
1, 213690, Control_c, 0, 64, 68
1, 213704, Control_c, 0, 64, 69
1, 213719, Control_c, 0, 64, 68
1, 213734, Control_c, 0, 64, 68
1, 213765, Note_on_c, 0, 41, 48
1, 213778, Control_c, 0, 64, 67
1, 213793, Control_c, 0, 64, 65
1, 213808, Control_c, 0, 64, 62
1, 213822, Control_c, 0, 64, 56
1, 213837, Control_c, 0, 64, 47
1, 213852, Control_c, 0, 64, 46
1, 213853, Note_off_c, 0, 41, 59
1, 213867, Control_c, 0, 64, 52
1, 213880, Note_on_c, 0, 39, 42
1, 213882, Control_c, 0, 64, 59
1, 213896, Control_c, 0, 64, 63
1, 213911, Control_c, 0, 64, 65
1, 213915, Note_off_c, 0, 39, 59
1, 213926, Control_c, 0, 64, 68
1, 213930, Note_off_c, 0, 51, 55
1, 213941, Control_c, 0, 64, 71
1, 213947, Note_on_c, 0, 53, 56
1, 213956, Control_c, 0, 64, 73
1, 213986, Control_c, 0, 64, 73
1, 214001, Control_c, 0, 64, 74
1, 214015, Control_c, 0, 64, 75
1, 214030, Control_c, 0, 64, 75
1, 214045, Control_c, 0, 64, 76
1, 214046, Note_off_c, 0, 53, 52
1, 214057, Note_on_c, 0, 51, 48
1, 214060, Control_c, 0, 64, 76
1, 214075, Control_c, 0, 64, 77
1, 214096, Control_c, 0, 64, 78
1, 214135, Note_off_c, 0, 51, 60
1, 214180, Note_on_c, 0, 70, 57
1, 214183, Note_on_c, 0, 73, 62
1, 214185, Control_c, 0, 64, 77
1, 214200, Control_c, 0, 64, 77
1, 214212, Note_off_c, 0, 70, 63
1, 214215, Control_c, 0, 64, 76
1, 214230, Control_c, 0, 64, 75
1, 214245, Control_c, 0, 64, 74
1, 214248, Note_off_c, 0, 73, 0
1, 214260, Control_c, 0, 64, 72
1, 214275, Control_c, 0, 64, 70
1, 214285, Poly_aftertouch_c, 0, 73, 127
1, 214289, Control_c, 0, 64, 68
1, 214299, Note_on_c, 0, 70, 55
1, 214302, Note_on_c, 0, 73, 12
1, 214304, Control_c, 0, 64, 67
1, 214319, Control_c, 0, 64, 65
1, 214334, Control_c, 0, 64, 64
1, 214348, Control_c, 0, 64, 61
1, 214363, Control_c, 0, 64, 57
1, 214378, Control_c, 0, 64, 51
1, 214393, Control_c, 0, 64, 44
1, 214408, Control_c, 0, 64, 42
1, 214422, Control_c, 0, 64, 39
1, 214437, Control_c, 0, 64, 11
1, 214452, Control_c, 0, 64, 0
1, 215067, Control_c, 0, 64, 11
1, 215082, Control_c, 0, 64, 14
1, 215097, Control_c, 0, 64, 19
1, 215104, Note_on_c, 0, 68, 44
1, 215111, Control_c, 0, 64, 23
1, 215124, Note_on_c, 0, 72, 44
1, 215126, Control_c, 0, 64, 26
1, 215141, Control_c, 0, 64, 28
1, 215148, Note_off_c, 0, 70, 37
1, 215156, Control_c, 0, 64, 30
1, 215185, Control_c, 0, 64, 31
1, 215187, Note_off_c, 0, 73, 44
1, 215215, Control_c, 0, 64, 33
1, 215230, Control_c, 0, 64, 35
1, 215290, Control_c, 0, 64, 36
1, 215305, Control_c, 0, 64, 37
1, 215364, Control_c, 0, 64, 39
1, 215379, Control_c, 0, 64, 44
1, 215393, Control_c, 0, 64, 48
1, 215408, Control_c, 0, 64, 53
1, 215423, Control_c, 0, 64, 58
1, 215438, Control_c, 0, 64, 62
1, 215453, Control_c, 0, 64, 64
1, 215467, Control_c, 0, 64, 67
1, 215482, Control_c, 0, 64, 70
1, 215497, Control_c, 0, 64, 72
1, 215512, Control_c, 0, 64, 76
1, 215527, Control_c, 0, 64, 78
1, 215542, Control_c, 0, 64, 81
1, 215557, Control_c, 0, 64, 83
1, 215572, Control_c, 0, 64, 86
1, 215593, Control_c, 0, 64, 89
1, 215608, Control_c, 0, 64, 91
1, 215623, Control_c, 0, 64, 94
1, 215638, Control_c, 0, 64, 97
1, 215653, Control_c, 0, 64, 101
1, 215668, Control_c, 0, 64, 107
1, 215682, Control_c, 0, 64, 113
1, 215697, Control_c, 0, 64, 119
1, 215712, Control_c, 0, 64, 126
1, 215727, Control_c, 0, 64, 127
1, 215904, Control_c, 0, 64, 126
1, 215919, Control_c, 0, 64, 118
1, 215934, Control_c, 0, 64, 113
1, 215948, Control_c, 0, 64, 106
1, 215952, Note_on_c, 0, 82, 58
1, 215963, Control_c, 0, 64, 102
1, 215965, Note_on_c, 0, 75, 42
1, 215972, Note_on_c, 0, 67, 45
1, 215978, Control_c, 0, 64, 99
1, 215986, Note_on_c, 0, 70, 37
1, 215992, Control_c, 0, 64, 96
1, 216007, Control_c, 0, 64, 92
1, 216010, Note_off_c, 0, 68, 49
1, 216022, Control_c, 0, 64, 87
1, 216037, Control_c, 0, 64, 83
1, 216045, Note_off_c, 0, 72, 40
1, 216052, Control_c, 0, 64, 79
1, 216068, Control_c, 0, 64, 75
1, 216082, Control_c, 0, 64, 70
1, 216097, Control_c, 0, 64, 65
1, 216112, Control_c, 0, 64, 63
1, 216171, Control_c, 0, 64, 62
1, 216201, Control_c, 0, 64, 64
1, 216215, Control_c, 0, 64, 66
1, 216230, Control_c, 0, 64, 68
1, 216245, Control_c, 0, 64, 70
1, 216260, Control_c, 0, 64, 73
1, 216275, Control_c, 0, 64, 76
1, 216290, Control_c, 0, 64, 79
1, 216305, Control_c, 0, 64, 81
1, 216320, Control_c, 0, 64, 84
1, 216342, Control_c, 0, 64, 89
1, 216357, Control_c, 0, 64, 93
1, 216371, Control_c, 0, 64, 96
1, 216386, Control_c, 0, 64, 98
1, 216401, Control_c, 0, 64, 101
1, 216416, Control_c, 0, 64, 104
1, 216430, Control_c, 0, 64, 109
1, 216445, Control_c, 0, 64, 112
1, 216460, Control_c, 0, 64, 115
1, 216475, Control_c, 0, 64, 119
1, 216490, Control_c, 0, 64, 127
1, 216500, Note_off_c, 0, 70, 46
1, 216550, Control_c, 0, 67, 126
1, 216564, Control_c, 0, 67, 126
1, 216579, Control_c, 0, 67, 125
1, 216587, Note_off_c, 0, 75, 56
1, 216594, Control_c, 0, 67, 124
1, 216609, Control_c, 0, 67, 124
1, 216624, Control_c, 0, 67, 123
1, 216639, Control_c, 0, 67, 123
1, 216669, Control_c, 0, 67, 122
1, 216713, Control_c, 0, 67, 122
1, 216791, Note_on_c, 0, 85, 74
1, 216802, Note_on_c, 0, 73, 58
1, 216802, Control_c, 0, 64, 121
1, 216805, Note_on_c, 0, 65, 52
1, 216809, Note_on_c, 0, 68, 48
1, 216816, Control_c, 0, 64, 111
1, 216831, Control_c, 0, 64, 104
1, 216832, Note_off_c, 0, 82, 56
1, 216846, Control_c, 0, 64, 97
1, 216862, Control_c, 0, 64, 89
1, 216870, Note_off_c, 0, 67, 50
1, 216877, Control_c, 0, 64, 82
1, 216892, Control_c, 0, 64, 74
1, 216906, Control_c, 0, 64, 67
1, 216921, Control_c, 0, 64, 62
1, 216921, Control_c, 0, 67, 121
1, 216936, Control_c, 0, 64, 58
1, 216951, Control_c, 0, 64, 54
1, 216966, Control_c, 0, 64, 53
1, 216995, Control_c, 0, 64, 60
1, 217010, Control_c, 0, 64, 64
1, 217025, Control_c, 0, 64, 68
1, 217039, Control_c, 0, 64, 71
1, 217054, Control_c, 0, 64, 75
1, 217054, Control_c, 0, 67, 121
1, 217069, Control_c, 0, 64, 79
1, 217069, Control_c, 0, 67, 120
1, 217092, Control_c, 0, 64, 84
1, 217092, Control_c, 0, 67, 119
1, 217107, Control_c, 0, 64, 90
1, 217107, Control_c, 0, 67, 114
1, 217121, Control_c, 0, 64, 94
1, 217121, Control_c, 0, 67, 108
1, 217136, Control_c, 0, 64, 97
1, 217136, Control_c, 0, 67, 101
1, 217151, Control_c, 0, 64, 100
1, 217151, Control_c, 0, 67, 96
1, 217165, Control_c, 0, 64, 105
1, 217165, Control_c, 0, 67, 91
1, 217180, Control_c, 0, 64, 110
1, 217180, Control_c, 0, 67, 87
1, 217195, Control_c, 0, 64, 119
1, 217195, Control_c, 0, 67, 82
1, 217210, Control_c, 0, 64, 127
1, 217210, Control_c, 0, 67, 74
1, 217225, Control_c, 0, 67, 65
1, 217238, Control_c, 0, 67, 58
1, 217253, Control_c, 0, 67, 53
1, 217268, Control_c, 0, 67, 46
1, 217283, Control_c, 0, 67, 40
1, 217286, Note_off_c, 0, 85, 59
1, 217298, Control_c, 0, 67, 33
1, 217312, Note_off_c, 0, 73, 61
1, 217312, Control_c, 0, 67, 22
1, 217327, Control_c, 0, 67, 0
1, 217331, Note_off_c, 0, 65, 62
1, 217387, Note_off_c, 0, 68, 52
1, 217476, Control_c, 0, 64, 95
1, 217491, Control_c, 0, 64, 77
1, 217506, Control_c, 0, 64, 62
1, 217520, Control_c, 0, 64, 0
1, 217619, Note_on_c, 0, 84, 96
1, 217622, Note_on_c, 0, 72, 94
1, 217626, Note_on_c, 0, 64, 90
1, 217628, Note_on_c, 0, 67, 89
1, 217787, Control_c, 0, 64, 46
1, 217802, Control_c, 0, 64, 61
1, 217817, Control_c, 0, 64, 67
1, 217840, Control_c, 0, 64, 72
1, 217855, Control_c, 0, 64, 79
1, 217869, Control_c, 0, 64, 85
1, 217884, Control_c, 0, 64, 89
1, 217888, Note_off_c, 0, 84, 65
1, 217899, Control_c, 0, 64, 94
1, 217914, Control_c, 0, 64, 99
1, 217929, Control_c, 0, 64, 109
1, 217929, Note_off_c, 0, 72, 56
1, 217941, Note_off_c, 0, 67, 58
1, 217943, Control_c, 0, 64, 127
1, 217954, Note_off_c, 0, 64, 65
1, 218061, Control_c, 0, 64, 124
1, 218076, Control_c, 0, 64, 95
1, 218091, Control_c, 0, 64, 80
1, 218106, Control_c, 0, 64, 69
1, 218121, Control_c, 0, 64, 61
1, 218135, Control_c, 0, 64, 52
1, 218150, Control_c, 0, 64, 53
1, 218165, Control_c, 0, 64, 56
1, 218193, Note_on_c, 0, 72, 82
1, 218194, Note_on_c, 0, 77, 85
1, 218200, Note_on_c, 0, 63, 78
1, 218205, Note_on_c, 0, 69, 68
1, 218237, Note_off_c, 0, 69, 62
1, 218239, Note_off_c, 0, 72, 64
1, 218254, Control_c, 0, 64, 52
1, 218255, Note_off_c, 0, 77, 60
1, 218269, Control_c, 0, 64, 44
1, 218269, Note_off_c, 0, 63, 50
1, 218284, Note_on_c, 0, 82, 94
1, 218284, Control_c, 0, 64, 0
1, 218287, Note_on_c, 0, 73, 91
1, 218294, Note_on_c, 0, 65, 76
1, 218299, Note_on_c, 0, 61, 70
1, 218317, Note_off_c, 0, 73, 64
1, 218331, Note_off_c, 0, 65, 63
1, 218332, Note_off_c, 0, 61, 63
1, 218333, Note_off_c, 0, 82, 65
1, 218371, Poly_aftertouch_c, 0, 82, 0
1, 218373, Control_c, 0, 64, 61
1, 218374, Note_on_c, 0, 73, 99
1, 218377, Note_on_c, 0, 82, 88
1, 218380, Note_on_c, 0, 61, 76
1, 218381, Note_on_c, 0, 65, 78
1, 218387, Control_c, 0, 64, 69
1, 218400, Note_off_c, 0, 73, 66
1, 218401, Note_off_c, 0, 82, 67
1, 218402, Control_c, 0, 64, 77
1, 218407, Note_off_c, 0, 65, 65
1, 218415, Note_off_c, 0, 61, 63
1, 218417, Control_c, 0, 64, 84
1, 218432, Control_c, 0, 64, 86
1, 218558, Note_on_c, 0, 70, 86
1, 218563, Note_on_c, 0, 61, 83
1, 218563, Note_on_c, 0, 67, 78
1, 218570, Note_on_c, 0, 75, 85
1, 218588, Control_c, 0, 64, 85
1, 218603, Control_c, 0, 64, 84
1, 218612, Note_off_c, 0, 70, 62
1, 218618, Note_off_c, 0, 67, 59
1, 218618, Control_c, 0, 64, 83
1, 218633, Control_c, 0, 64, 83
1, 218639, Note_off_c, 0, 61, 55
1, 218648, Control_c, 0, 64, 80
1, 218655, Note_on_c, 0, 72, 89
1, 218658, Note_on_c, 0, 80, 89
1, 218663, Control_c, 0, 64, 74
1, 218675, Note_off_c, 0, 75, 47
1, 218675, Note_on_c, 0, 63, 77
1, 218678, Control_c, 0, 64, 65
1, 218682, Note_on_c, 0, 60, 67
1, 218692, Control_c, 0, 64, 0
1, 218693, Note_off_c, 0, 72, 66
1, 218707, Note_off_c, 0, 80, 64
1, 218709, Note_off_c, 0, 60, 64
1, 218711, Note_off_c, 0, 63, 59
1, 218737, Control_c, 0, 64, 27
1, 218747, Note_on_c, 0, 80, 83
1, 218750, Note_on_c, 0, 72, 95
1, 218752, Control_c, 0, 64, 60
1, 218752, Note_on_c, 0, 60, 89
1, 218757, Note_on_c, 0, 63, 80
1, 218766, Control_c, 0, 64, 66
1, 218778, Note_off_c, 0, 72, 68
1, 218781, Control_c, 0, 64, 71
1, 218784, Note_off_c, 0, 80, 65
1, 218792, Note_off_c, 0, 60, 66
1, 218792, Note_off_c, 0, 63, 61
1, 218796, Control_c, 0, 64, 76
1, 218810, Control_c, 0, 64, 81
1, 218825, Control_c, 0, 64, 83
1, 218840, Control_c, 0, 64, 83
1, 218855, Control_c, 0, 64, 84
1, 218930, Note_on_c, 0, 68, 73
1, 218934, Note_on_c, 0, 73, 95
1, 218936, Note_on_c, 0, 60, 85
1, 218937, Note_on_c, 0, 65, 78
1, 218953, Note_off_c, 0, 68, 68
1, 218964, Note_off_c, 0, 65, 65
1, 218973, Control_c, 0, 64, 83
1, 218988, Control_c, 0, 64, 79
1, 218991, Note_off_c, 0, 60, 63
1, 218995, Note_off_c, 0, 73, 62
1, 219003, Control_c, 0, 64, 69
1, 219017, Control_c, 0, 64, 47
1, 219020, Note_on_c, 0, 79, 91
1, 219023, Note_on_c, 0, 70, 89
1, 219027, Note_on_c, 0, 58, 81
1, 219029, Note_on_c, 0, 61, 87
1, 219032, Control_c, 0, 64, 0
1, 219058, Note_off_c, 0, 70, 65
1, 219062, Control_c, 0, 64, 60
1, 219065, Note_off_c, 0, 79, 65
1, 219072, Note_off_c, 0, 58, 62
1, 219077, Control_c, 0, 64, 67
1, 219078, Note_off_c, 0, 61, 64
1, 219092, Control_c, 0, 64, 75
1, 219107, Control_c, 0, 64, 81
1, 219113, Note_on_c, 0, 70, 92
1, 219115, Note_on_c, 0, 79, 90
1, 219116, Note_on_c, 0, 61, 84
1, 219122, Note_on_c, 0, 58, 77
1, 219122, Control_c, 0, 64, 84
1, 219136, Control_c, 0, 64, 84
1, 219142, Note_off_c, 0, 70, 62
1, 219142, Note_off_c, 0, 79, 63
1, 219170, Note_off_c, 0, 58, 65
1, 219172, Note_off_c, 0, 61, 62
1, 219240, Control_c, 0, 64, 86
1, 219256, Control_c, 0, 64, 87
1, 219271, Control_c, 0, 64, 87
1, 219286, Control_c, 0, 64, 83
1, 219290, Note_on_c, 0, 58, 89
1, 219295, Note_on_c, 0, 64, 79
1, 219298, Note_on_c, 0, 67, 87
1, 219301, Control_c, 0, 64, 74
1, 219303, Note_on_c, 0, 72, 80
1, 219315, Control_c, 0, 64, 64
1, 219337, Control_c, 0, 64, 56
1, 219341, Note_off_c, 0, 64, 58
1, 219345, Note_off_c, 0, 67, 60
1, 219349, Note_on_c, 0, 73, 23
1, 219350, Note_off_c, 0, 73, 127
1, 219352, Control_c, 0, 64, 63
1, 219360, Note_off_c, 0, 58, 63
1, 219365, Note_off_c, 0, 72, 58
1, 219366, Control_c, 0, 64, 70
1, 219381, Control_c, 0, 64, 83
1, 219390, Note_on_c, 0, 77, 91
1, 219393, Note_on_c, 0, 68, 91
1, 219394, Note_on_c, 0, 60, 82
1, 219396, Control_c, 0, 64, 96
1, 219398, Note_on_c, 0, 56, 85
1, 219411, Control_c, 0, 64, 102
1, 219434, Note_off_c, 0, 68, 62
1, 219435, Note_off_c, 0, 77, 64
1, 219438, Note_off_c, 0, 60, 63
1, 219441, Control_c, 0, 64, 101
1, 219444, Note_off_c, 0, 56, 64
1, 219456, Control_c, 0, 64, 89
1, 219471, Control_c, 0, 64, 72
1, 219483, Note_on_c, 0, 68, 87
1, 219484, Note_on_c, 0, 77, 86
1, 219485, Poly_aftertouch_c, 0, 56, 0
1, 219486, Control_c, 0, 64, 60
1, 219488, Note_on_c, 0, 60, 82
1, 219493, Note_on_c, 0, 56, 78
1, 219501, Control_c, 0, 64, 57
1, 219515, Control_c, 0, 64, 62
1, 219518, Note_off_c, 0, 68, 66
1, 219522, Note_off_c, 0, 77, 64
1, 219530, Control_c, 0, 64, 67
1, 219536, Note_off_c, 0, 60, 65
1, 219545, Control_c, 0, 64, 76
1, 219551, Note_off_c, 0, 56, 65
1, 219560, Control_c, 0, 64, 89
1, 219575, Control_c, 0, 64, 116
1, 219590, Control_c, 0, 64, 127
1, 219664, Note_on_c, 0, 56, 84
1, 219666, Note_on_c, 0, 77, 102
1, 219667, Note_on_c, 0, 65, 97
1, 219678, Note_on_c, 0, 59, 68
1, 219688, Note_off_c, 0, 65, 69
1, 219696, Note_off_c, 0, 77, 68
1, 219706, Note_off_c, 0, 59, 65
1, 219730, Note_off_c, 0, 56, 63
1, 219901, Note_on_c, 0, 77, 91
1, 219901, Control_c, 0, 64, 114
1, 219906, Note_on_c, 0, 65, 82
1, 219909, Note_on_c, 0, 55, 72
1, 219909, Note_on_c, 0, 58, 77
1, 219915, Control_c, 0, 64, 96
1, 219930, Control_c, 0, 64, 83
1, 219945, Control_c, 0, 64, 68
1, 219959, Control_c, 0, 64, 37
1, 219974, Control_c, 0, 64, 0
1, 220146, Control_c, 0, 64, 53
1, 220161, Control_c, 0, 64, 64
1, 220176, Control_c, 0, 64, 70
1, 220189, Note_off_c, 0, 65, 60
1, 220190, Control_c, 0, 64, 77
1, 220205, Control_c, 0, 64, 85
1, 220214, Note_off_c, 0, 77, 52
1, 220220, Control_c, 0, 64, 90
1, 220235, Control_c, 0, 64, 91
1, 220250, Control_c, 0, 64, 93
1, 220264, Control_c, 0, 64, 95
1, 220279, Control_c, 0, 64, 96
1, 220332, Note_on_c, 0, 76, 80
1, 220337, Note_on_c, 0, 64, 74
1, 220390, Note_off_c, 0, 55, 56
1, 220413, Control_c, 0, 64, 95
1, 220421, Note_off_c, 0, 64, 58
1, 220487, Control_c, 0, 64, 94
1, 220498, Note_off_c, 0, 76, 55
1, 220502, Control_c, 0, 64, 93
1, 220511, Note_off_c, 0, 58, 38
1, 220517, Control_c, 0, 64, 90
1, 220520, Note_on_c, 0, 77, 89
1, 220528, Note_on_c, 0, 65, 76
1, 220531, Control_c, 0, 64, 87
1, 220533, Note_on_c, 0, 56, 68
1, 220540, Note_on_c, 0, 53, 55
1, 220546, Control_c, 0, 64, 87
1, 220576, Control_c, 0, 64, 87
1, 220599, Note_off_c, 0, 65, 59
1, 220605, Control_c, 0, 64, 88
1, 220612, Note_off_c, 0, 77, 62
1, 220635, Control_c, 0, 64, 86
1, 220650, Control_c, 0, 64, 81
1, 220660, Note_off_c, 0, 53, 58
1, 220664, Control_c, 0, 64, 72
1, 220679, Control_c, 0, 64, 61
1, 220694, Control_c, 0, 64, 17
1, 220705, Note_on_c, 0, 79, 86
1, 220706, Note_on_c, 0, 55, 77
1, 220707, Note_on_c, 0, 67, 79
1, 220709, Control_c, 0, 64, 11
1, 220724, Control_c, 0, 64, 45
1, 220725, Note_on_c, 0, 52, 65
1, 220739, Control_c, 0, 64, 59
1, 220754, Control_c, 0, 64, 65
1, 220769, Control_c, 0, 64, 73
1, 220776, Note_off_c, 0, 56, 52
1, 220781, Note_off_c, 0, 55, 63
1, 220783, Control_c, 0, 64, 83
1, 220798, Control_c, 0, 64, 98
1, 220801, Note_off_c, 0, 67, 61
1, 220810, Note_off_c, 0, 52, 62
1, 220813, Control_c, 0, 64, 104
1, 220836, Control_c, 0, 64, 103
1, 220851, Control_c, 0, 64, 95
1, 220861, Note_off_c, 0, 79, 62
1, 220866, Control_c, 0, 64, 83
1, 220881, Control_c, 0, 64, 71
1, 220895, Note_on_c, 0, 80, 87
1, 220895, Note_on_c, 0, 68, 79
1, 220895, Control_c, 0, 64, 64
1, 220903, Note_on_c, 0, 53, 73
1, 220910, Control_c, 0, 64, 66
1, 220911, Note_on_c, 0, 50, 58
1, 220925, Control_c, 0, 64, 70
1, 220940, Control_c, 0, 64, 77
1, 220944, Note_off_c, 0, 53, 64
1, 220947, Note_off_c, 0, 50, 66
1, 220955, Control_c, 0, 64, 86
1, 220970, Control_c, 0, 64, 98
1, 220979, Note_off_c, 0, 68, 54
1, 220984, Control_c, 0, 64, 117
1, 220999, Control_c, 0, 64, 127
1, 221043, Control_c, 0, 64, 97
1, 221058, Control_c, 0, 64, 78
1, 221065, Note_off_c, 0, 80, 54
1, 221072, Note_on_c, 0, 82, 86
1, 221073, Control_c, 0, 64, 66
1, 221084, Note_on_c, 0, 48, 53
1, 221084, Note_on_c, 0, 55, 62
1, 221084, Note_on_c, 0, 70, 79
1, 221087, Control_c, 0, 64, 64
1, 221095, Note_on_c, 0, 58, 71
1, 221100, Note_on_c, 0, 52, 43
1, 221102, Control_c, 0, 64, 67
1, 221117, Control_c, 0, 64, 71
1, 221132, Control_c, 0, 64, 80
1, 221133, Note_off_c, 0, 52, 57
1, 221147, Control_c, 0, 64, 95
1, 221152, Note_off_c, 0, 82, 65
1, 221152, Note_off_c, 0, 55, 63
1, 221161, Control_c, 0, 64, 127
1, 221162, Note_off_c, 0, 70, 63
1, 221165, Note_off_c, 0, 48, 52
1, 221176, Note_off_c, 0, 58, 52
1, 221220, Control_c, 0, 64, 119
1, 221235, Control_c, 0, 64, 97
1, 221250, Control_c, 0, 64, 92
1, 221265, Control_c, 0, 64, 96
1, 221266, Note_on_c, 0, 79, 91
1, 221267, Note_on_c, 0, 67, 87
1, 221275, Note_on_c, 0, 52, 52
1, 221280, Note_on_c, 0, 58, 64
1, 221280, Control_c, 0, 64, 109
1, 221283, Note_on_c, 0, 55, 54
1, 221284, Note_on_c, 0, 48, 67
1, 221295, Control_c, 0, 64, 127
1, 221299, Note_off_c, 0, 58, 67
1, 221306, Note_off_c, 0, 55, 63
1, 221307, Note_off_c, 0, 52, 64
1, 221317, Note_off_c, 0, 67, 63
1, 221319, Note_off_c, 0, 79, 62
1, 221322, Note_off_c, 0, 48, 61
1, 221443, Control_c, 0, 64, 120
1, 221457, Note_on_c, 0, 41, 76
1, 221458, Control_c, 0, 64, 86
1, 221468, Note_on_c, 0, 80, 85
1, 221471, Note_on_c, 0, 72, 79
1, 221472, Note_on_c, 0, 68, 86
1, 221473, Control_c, 0, 64, 65
1, 221477, Note_on_c, 0, 77, 65
1, 221487, Control_c, 0, 64, 0
1, 221501, Note_on_c, 0, 76, 50
1, 221526, Note_off_c, 0, 68, 62
1, 221529, Note_off_c, 0, 76, 35
1, 221531, Control_c, 0, 64, 57
1, 221539, Note_off_c, 0, 41, 62
1, 221542, Note_off_c, 0, 72, 63
1, 221544, Note_off_c, 0, 80, 63
1, 221546, Control_c, 0, 64, 68
1, 221548, Note_off_c, 0, 77, 64
1, 221556, Note_on_c, 0, 48, 68
1, 221561, Control_c, 0, 64, 77
1, 221584, Control_c, 0, 64, 88
1, 221599, Control_c, 0, 64, 102
1, 221613, Control_c, 0, 64, 127
1, 221647, Note_off_c, 0, 48, 61
1, 221652, Note_on_c, 0, 56, 78
1, 221718, Note_off_c, 0, 56, 63
1, 221730, Note_on_c, 0, 48, 68
1, 221817, Note_off_c, 0, 48, 59
1, 221838, Note_on_c, 0, 41, 78
1, 221852, Note_on_c, 0, 84, 97
1, 221853, Note_on_c, 0, 72, 92
1, 221894, Note_off_c, 0, 72, 68
1, 221907, Note_off_c, 0, 84, 61
1, 221915, Note_off_c, 0, 41, 56
1, 221937, Note_on_c, 0, 48, 73
1, 222024, Note_off_c, 0, 48, 61
1, 222032, Note_on_c, 0, 56, 76
1, 222118, Note_off_c, 0, 56, 58
1, 222133, Note_on_c, 0, 48, 70
1, 222246, Note_on_c, 0, 84, 92
1, 222247, Note_on_c, 0, 96, 92
1, 222253, Note_on_c, 0, 43, 75
1, 222265, Note_off_c, 0, 48, 57
1, 222266, Control_c, 0, 64, 118
1, 222281, Control_c, 0, 64, 90
1, 222296, Control_c, 0, 64, 71
1, 222310, Control_c, 0, 64, 0
1, 222366, Note_off_c, 0, 43, 64
1, 222376, Note_on_c, 0, 48, 73
1, 222377, Control_c, 0, 64, 44
1, 222392, Control_c, 0, 64, 65
1, 222407, Control_c, 0, 64, 73
1, 222422, Control_c, 0, 64, 87
1, 222436, Control_c, 0, 64, 106
1, 222451, Control_c, 0, 64, 127
1, 222453, Note_off_c, 0, 48, 60
1, 222460, Note_on_c, 0, 58, 64
1, 222511, Note_off_c, 0, 96, 63
1, 222529, Note_off_c, 0, 58, 60
1, 222553, Note_on_c, 0, 48, 65
1, 222553, Note_off_c, 0, 84, 62
1, 222638, Note_on_c, 0, 43, 73
1, 222640, Note_off_c, 0, 48, 63
1, 222719, Note_off_c, 0, 43, 61
1, 222752, Note_on_c, 0, 48, 64
1, 222812, Note_on_c, 0, 84, 86
1, 222817, Note_on_c, 0, 72, 85
1, 222834, Note_off_c, 0, 48, 62
1, 222836, Note_on_c, 0, 58, 67
1, 222903, Note_off_c, 0, 58, 58
1, 222928, Note_on_c, 0, 48, 64
1, 222985, Control_c, 0, 64, 93
1, 223000, Control_c, 0, 64, 74
1, 223015, Control_c, 0, 64, 47
1, 223018, Note_off_c, 0, 48, 61
1, 223022, Note_on_c, 0, 44, 79
1, 223030, Control_c, 0, 64, 0
1, 223059, Control_c, 0, 64, 35
1, 223081, Control_c, 0, 64, 63
1, 223096, Control_c, 0, 64, 70
1, 223110, Control_c, 0, 64, 76
1, 223125, Control_c, 0, 64, 83
1, 223135, Note_on_c, 0, 48, 67
1, 223140, Control_c, 0, 64, 90
1, 223146, Note_off_c, 0, 44, 60
1, 223155, Control_c, 0, 64, 96
1, 223170, Control_c, 0, 64, 100
1, 223170, Control_c, 0, 67, 8
1, 223185, Control_c, 0, 64, 104
1, 223185, Control_c, 0, 67, 9
1, 223196, Note_off_c, 0, 48, 62
1, 223200, Control_c, 0, 64, 111
1, 223200, Control_c, 0, 67, 10
1, 223215, Control_c, 0, 64, 123
1, 223215, Control_c, 0, 67, 13
1, 223224, Note_on_c, 0, 60, 69
1, 223230, Control_c, 0, 64, 127
1, 223230, Control_c, 0, 67, 15
1, 223245, Control_c, 0, 67, 16
1, 223274, Note_off_c, 0, 60, 57
1, 223276, Control_c, 0, 67, 16
1, 223290, Control_c, 0, 67, 20
1, 223305, Note_off_c, 0, 84, 59
1, 223305, Control_c, 0, 67, 27
1, 223320, Control_c, 0, 67, 34
1, 223322, Note_on_c, 0, 48, 65
1, 223335, Control_c, 0, 67, 39
1, 223350, Control_c, 0, 67, 43
1, 223358, Note_off_c, 0, 72, 61
1, 223364, Control_c, 0, 67, 45
1, 223379, Control_c, 0, 67, 46
1, 223394, Control_c, 0, 67, 48
1, 223396, Note_off_c, 0, 48, 60
1, 223404, Note_on_c, 0, 44, 71
1, 223408, Control_c, 0, 67, 50
1, 223423, Control_c, 0, 67, 53
1, 223438, Control_c, 0, 67, 56
1, 223453, Control_c, 0, 67, 58
1, 223468, Note_off_c, 0, 44, 61
1, 223468, Control_c, 0, 67, 59
1, 223483, Control_c, 0, 67, 59
1, 223491, Note_on_c, 0, 48, 58
1, 223542, Note_off_c, 0, 48, 60
1, 223570, Note_on_c, 0, 80, 70
1, 223578, Note_on_c, 0, 60, 68
1, 223587, Note_on_c, 0, 68, 60
1, 223617, Note_off_c, 0, 60, 58
1, 223629, Note_off_c, 0, 68, 56
1, 223657, Note_off_c, 0, 80, 58
1, 223685, Note_on_c, 0, 48, 57
1, 223749, Control_c, 0, 64, 114
1, 223757, Note_off_c, 0, 48, 60
1, 223764, Control_c, 0, 64, 89
1, 223775, Note_on_c, 0, 46, 71
1, 223779, Note_on_c, 0, 79, 74
1, 223779, Control_c, 0, 64, 73
1, 223794, Control_c, 0, 64, 61
1, 223796, Note_on_c, 0, 67, 52
1, 223808, Control_c, 0, 64, 43
1, 223831, Control_c, 0, 64, 50
1, 223846, Control_c, 0, 64, 65
1, 223859, Note_off_c, 0, 79, 60
1, 223861, Control_c, 0, 64, 72
1, 223876, Note_off_c, 0, 67, 61
1, 223876, Control_c, 0, 64, 81
1, 223879, Note_off_c, 0, 46, 52
1, 223882, Note_on_c, 0, 48, 61
1, 223890, Control_c, 0, 64, 93
1, 223905, Control_c, 0, 64, 106
1, 223920, Control_c, 0, 64, 127
1, 223925, Note_off_c, 0, 48, 60
1, 223952, Note_on_c, 0, 58, 57
1, 223964, Control_c, 0, 67, 59
1, 223979, Control_c, 0, 67, 58
1, 223984, Note_on_c, 0, 76, 78
1, 223988, Note_off_c, 0, 58, 61
1, 223996, Note_on_c, 0, 64, 63
1, 224022, Note_on_c, 0, 48, 59
1, 224023, Control_c, 0, 67, 58
1, 224025, Note_off_c, 0, 64, 67
1, 224030, Note_off_c, 0, 76, 59
1, 224038, Control_c, 0, 67, 56
1, 224049, Note_off_c, 0, 48, 66
1, 224054, Control_c, 0, 67, 56
1, 224084, Control_c, 0, 67, 55
1, 224099, Control_c, 0, 67, 55
1, 224113, Control_c, 0, 64, 114
1, 224113, Control_c, 0, 67, 54
1, 224128, Control_c, 0, 64, 89
1, 224128, Control_c, 0, 67, 54
1, 224132, Note_on_c, 0, 36, 80
1, 224143, Control_c, 0, 64, 70
1, 224143, Control_c, 0, 67, 53
1, 224153, Note_on_c, 0, 73, 85
1, 224157, Control_c, 0, 64, 0
1, 224157, Control_c, 0, 67, 53
1, 224158, Note_on_c, 0, 61, 76
1, 224172, Control_c, 0, 67, 52
1, 224187, Control_c, 0, 67, 52
1, 224189, Note_off_c, 0, 36, 57
1, 224202, Control_c, 0, 64, 59
1, 224202, Control_c, 0, 67, 51
1, 224217, Control_c, 0, 64, 68
1, 224217, Control_c, 0, 67, 50
1, 224231, Control_c, 0, 64, 78
1, 224231, Control_c, 0, 67, 48
1, 224234, Note_on_c, 0, 48, 49
1, 224246, Control_c, 0, 64, 90
1, 224246, Control_c, 0, 67, 47
1, 224261, Control_c, 0, 64, 102
1, 224261, Control_c, 0, 67, 45
1, 224267, Note_off_c, 0, 61, 59
1, 224276, Control_c, 0, 64, 112
1, 224276, Control_c, 0, 67, 42
1, 224291, Control_c, 0, 64, 122
1, 224291, Control_c, 0, 67, 37
1, 224306, Control_c, 0, 64, 127
1, 224306, Control_c, 0, 67, 32
1, 224311, Note_off_c, 0, 48, 62
1, 224320, Control_c, 0, 67, 25
1, 224321, Note_on_c, 0, 55, 71
1, 224332, Note_on_c, 0, 72, 88
1, 224335, Note_on_c, 0, 60, 80
1, 224335, Control_c, 0, 67, 19
1, 224350, Control_c, 0, 67, 17
1, 224365, Control_c, 0, 67, 16
1, 224380, Control_c, 0, 67, 16
1, 224386, Note_off_c, 0, 73, 48
1, 224389, Note_off_c, 0, 55, 55
1, 224395, Control_c, 0, 67, 15
1, 224402, Note_on_c, 0, 48, 64
1, 224413, Note_off_c, 0, 72, 62
1, 224419, Note_off_c, 0, 60, 56
1, 224424, Control_c, 0, 67, 15
1, 224439, Control_c, 0, 67, 14
1, 224454, Control_c, 0, 67, 12
1, 224469, Control_c, 0, 67, 9
1, 224484, Control_c, 0, 64, 91
1, 224484, Control_c, 0, 67, 0
1, 224498, Control_c, 0, 64, 67
1, 224502, Note_on_c, 0, 41, 93
1, 224509, Note_off_c, 0, 48, 63
1, 224513, Control_c, 0, 64, 0
1, 224517, Note_on_c, 0, 72, 91
1, 224520, Note_on_c, 0, 60, 89
1, 224542, Control_c, 0, 64, 19
1, 224547, Note_off_c, 0, 60, 64
1, 224557, Control_c, 0, 64, 66
1, 224559, Note_off_c, 0, 72, 65
1, 224580, Control_c, 0, 64, 76
1, 224595, Control_c, 0, 64, 88
1, 224604, Note_off_c, 0, 41, 60
1, 224610, Control_c, 0, 64, 103
1, 224625, Note_on_c, 0, 48, 76
1, 224625, Control_c, 0, 64, 117
1, 224639, Control_c, 0, 64, 127
1, 224706, Note_off_c, 0, 48, 63
1, 224709, Note_on_c, 0, 56, 76
1, 224765, Note_off_c, 0, 56, 63
1, 224797, Note_on_c, 0, 48, 69
1, 224893, Note_on_c, 0, 41, 83
1, 224896, Note_off_c, 0, 48, 61
1, 224898, Note_on_c, 0, 84, 99
1, 224899, Note_on_c, 0, 72, 98
1, 224937, Note_off_c, 0, 72, 65
1, 224937, Note_off_c, 0, 84, 69
1, 224982, Note_off_c, 0, 41, 58
1, 225033, Note_on_c, 0, 48, 65
1, 225036, Note_on_c, 0, 47, 59
1, 225080, Note_off_c, 0, 47, 62
1, 225081, Note_off_c, 0, 48, 58
1, 225090, Note_on_c, 0, 56, 71
1, 225186, Note_off_c, 0, 56, 62
1, 225207, Note_on_c, 0, 48, 56
1, 225271, Note_off_c, 0, 48, 62
1, 225298, Note_on_c, 0, 43, 82
1, 225298, Note_on_c, 0, 96, 96
1, 225301, Note_on_c, 0, 84, 91
1, 225329, Control_c, 0, 64, 101
1, 225344, Control_c, 0, 64, 78
1, 225359, Control_c, 0, 64, 58
1, 225373, Control_c, 0, 64, 0
1, 225403, Control_c, 0, 64, 26
1, 225411, Note_off_c, 0, 43, 64
1, 225418, Control_c, 0, 64, 63
1, 225419, Note_on_c, 0, 48, 77
1, 225433, Control_c, 0, 64, 71
1, 225447, Control_c, 0, 64, 81
1, 225462, Control_c, 0, 64, 98
1, 225477, Control_c, 0, 64, 127
1, 225499, Note_off_c, 0, 48, 61
1, 225509, Note_on_c, 0, 58, 69
1, 225581, Note_off_c, 0, 58, 59
1, 225590, Note_off_c, 0, 96, 64
1, 225593, Note_on_c, 0, 48, 63
1, 225630, Note_off_c, 0, 84, 62
1, 225676, Note_on_c, 0, 43, 72
1, 225678, Note_off_c, 0, 48, 59
1, 225754, Note_off_c, 0, 43, 63
1, 225776, Note_on_c, 0, 48, 60
1, 225842, Note_off_c, 0, 48, 61
1, 225858, Note_on_c, 0, 58, 71
1, 225869, Note_on_c, 0, 72, 90
1, 225869, Note_on_c, 0, 84, 92
1, 225944, Note_off_c, 0, 58, 60
1, 225961, Note_on_c, 0, 48, 71
1, 226011, Control_c, 0, 64, 124
1, 226026, Control_c, 0, 64, 87
1, 226040, Control_c, 0, 64, 67
1, 226055, Control_c, 0, 64, 0
1, 226057, Note_on_c, 0, 44, 84
1, 226058, Note_off_c, 0, 48, 60
1, 226122, Control_c, 0, 64, 63
1, 226136, Control_c, 0, 64, 71
1, 226151, Control_c, 0, 64, 82
1, 226158, Note_off_c, 0, 44, 62
1, 226162, Note_on_c, 0, 48, 74
1, 226166, Control_c, 0, 64, 96
1, 226181, Control_c, 0, 64, 107
1, 226181, Control_c, 0, 67, 8
1, 226196, Control_c, 0, 64, 109
1, 226196, Control_c, 0, 67, 10
1, 226210, Control_c, 0, 67, 13
1, 226222, Note_off_c, 0, 48, 61
1, 226226, Control_c, 0, 67, 16
1, 226241, Control_c, 0, 67, 22
1, 226253, Note_on_c, 0, 60, 72
1, 226256, Control_c, 0, 67, 31
1, 226271, Control_c, 0, 67, 37
1, 226285, Control_c, 0, 64, 110
1, 226285, Control_c, 0, 67, 40
1, 226300, Control_c, 0, 64, 110
1, 226300, Control_c, 0, 67, 43
1, 226305, Note_off_c, 0, 60, 59
1, 226315, Control_c, 0, 67, 46
1, 226321, Note_off_c, 0, 84, 54
1, 226330, Control_c, 0, 67, 48
1, 226345, Control_c, 0, 67, 48
1, 226350, Note_on_c, 0, 48, 65
1, 226359, Control_c, 0, 64, 111
1, 226359, Control_c, 0, 67, 49
1, 226374, Control_c, 0, 64, 111
1, 226374, Control_c, 0, 67, 50
1, 226387, Note_off_c, 0, 72, 51
1, 226389, Note_off_c, 0, 48, 62
1, 226389, Control_c, 0, 64, 113
1, 226389, Control_c, 0, 67, 52
1, 226404, Control_c, 0, 64, 114
1, 226404, Control_c, 0, 67, 54
1, 226419, Control_c, 0, 64, 114
1, 226419, Control_c, 0, 67, 57
1, 226432, Note_on_c, 0, 41, 75
1, 226434, Control_c, 0, 64, 107
1, 226434, Control_c, 0, 67, 61
1, 226449, Control_c, 0, 64, 94
1, 226449, Control_c, 0, 67, 65
1, 226464, Control_c, 0, 64, 81
1, 226464, Control_c, 0, 67, 68
1, 226479, Control_c, 0, 64, 71
1, 226479, Control_c, 0, 67, 71
1, 226494, Control_c, 0, 64, 66
1, 226494, Control_c, 0, 67, 74
1, 226508, Control_c, 0, 64, 68
1, 226508, Control_c, 0, 67, 77
1, 226514, Note_off_c, 0, 41, 59
1, 226523, Control_c, 0, 64, 71
1, 226523, Control_c, 0, 67, 80
1, 226538, Control_c, 0, 64, 76
1, 226538, Control_c, 0, 67, 83
1, 226553, Control_c, 0, 64, 83
1, 226553, Control_c, 0, 67, 86
1, 226563, Note_on_c, 0, 48, 54
1, 226568, Control_c, 0, 64, 91
1, 226568, Control_c, 0, 67, 88
1, 226583, Control_c, 0, 64, 98
1, 226583, Control_c, 0, 67, 89
1, 226598, Control_c, 0, 64, 100
1, 226598, Control_c, 0, 67, 92
1, 226613, Control_c, 0, 64, 100
1, 226613, Control_c, 0, 67, 93
1, 226618, Poly_aftertouch_c, 0, 49, 0
1, 226622, Note_off_c, 0, 48, 56
1, 226625, Note_on_c, 0, 80, 72
1, 226627, Control_c, 0, 67, 94
1, 226629, Note_on_c, 0, 56, 60
1, 226642, Control_c, 0, 64, 101
1, 226642, Control_c, 0, 67, 95
1, 226646, Note_on_c, 0, 68, 63
1, 226657, Control_c, 0, 64, 103
1, 226657, Control_c, 0, 67, 97
1, 226672, Control_c, 0, 64, 105
1, 226672, Control_c, 0, 67, 98
1, 226677, Note_off_c, 0, 68, 64
1, 226678, Note_off_c, 0, 56, 60
1, 226687, Control_c, 0, 64, 107
1, 226687, Control_c, 0, 67, 98
1, 226690, Note_off_c, 0, 80, 62
1, 226701, Control_c, 0, 64, 108
1, 226732, Note_on_c, 0, 48, 61
1, 226760, Control_c, 0, 64, 109
1, 226768, Note_off_c, 0, 48, 60
1, 226775, Control_c, 0, 67, 98
1, 226790, Control_c, 0, 64, 108
1, 226805, Control_c, 0, 64, 102
1, 226827, Control_c, 0, 64, 90
1, 226842, Control_c, 0, 64, 75
1, 226849, Note_on_c, 0, 77, 66
1, 226850, Note_on_c, 0, 38, 62
1, 226857, Note_on_c, 0, 65, 54
1, 226857, Control_c, 0, 64, 59
1, 226872, Control_c, 0, 64, 0
1, 226901, Control_c, 0, 64, 37
1, 226916, Control_c, 0, 64, 61
1, 226931, Control_c, 0, 64, 67
1, 226938, Note_off_c, 0, 77, 60
1, 226946, Control_c, 0, 64, 74
1, 226953, Note_off_c, 0, 38, 52
1, 226955, Note_off_c, 0, 65, 57
1, 226960, Control_c, 0, 64, 83
1, 226975, Control_c, 0, 64, 93
1, 226979, Note_on_c, 0, 46, 61
1, 226990, Control_c, 0, 64, 101
1, 227005, Control_c, 0, 64, 101
1, 227034, Control_c, 0, 67, 97
1, 227049, Control_c, 0, 67, 97
1, 227051, Note_off_c, 0, 46, 60
1, 227064, Note_on_c, 0, 53, 63
1, 227064, Control_c, 0, 67, 96
1, 227072, Note_on_c, 0, 74, 80
1, 227083, Note_on_c, 0, 62, 60
1, 227093, Control_c, 0, 67, 96
1, 227108, Control_c, 0, 67, 95
1, 227114, Note_off_c, 0, 53, 56
1, 227123, Note_off_c, 0, 62, 58
1, 227123, Control_c, 0, 67, 94
1, 227129, Note_off_c, 0, 74, 63
1, 227138, Control_c, 0, 67, 92
1, 227152, Control_c, 0, 67, 92
1, 227164, Note_on_c, 0, 46, 58
1, 227167, Control_c, 0, 67, 91
1, 227182, Control_c, 0, 64, 99
1, 227182, Control_c, 0, 67, 90
1, 227197, Control_c, 0, 64, 98
1, 227197, Control_c, 0, 67, 88
1, 227210, Note_off_c, 0, 46, 59
1, 227212, Control_c, 0, 64, 97
1, 227212, Control_c, 0, 67, 88
1, 227227, Control_c, 0, 67, 86
1, 227232, Note_on_c, 0, 38, 70
1, 227238, Note_on_c, 0, 71, 83
1, 227242, Control_c, 0, 67, 84
1, 227246, Note_on_c, 0, 59, 71
1, 227257, Control_c, 0, 67, 82
1, 227272, Control_c, 0, 67, 78
1, 227287, Control_c, 0, 67, 73
1, 227302, Control_c, 0, 64, 97
1, 227302, Control_c, 0, 67, 68
1, 227306, Note_off_c, 0, 59, 59
1, 227315, Note_off_c, 0, 38, 38
1, 227317, Control_c, 0, 67, 63
1, 227330, Note_on_c, 0, 46, 69
1, 227331, Control_c, 0, 67, 59
1, 227338, Note_off_c, 0, 71, 63
1, 227346, Control_c, 0, 67, 53
1, 227361, Control_c, 0, 64, 96
1, 227361, Control_c, 0, 67, 47
1, 227376, Control_c, 0, 67, 40
1, 227391, Control_c, 0, 67, 32
1, 227406, Control_c, 0, 67, 26
1, 227409, Note_off_c, 0, 46, 60
1, 227415, Note_on_c, 0, 70, 89
1, 227416, Note_on_c, 0, 53, 70
1, 227421, Control_c, 0, 67, 21
1, 227424, Note_on_c, 0, 58, 80
1, 227436, Control_c, 0, 67, 17
1, 227450, Control_c, 0, 67, 12
1, 227465, Control_c, 0, 67, 0
1, 227476, Note_off_c, 0, 53, 62
1, 227484, Note_off_c, 0, 58, 57
1, 227489, Note_on_c, 0, 46, 66
1, 227495, Control_c, 0, 64, 97
1, 227510, Control_c, 0, 64, 97
1, 227519, Note_off_c, 0, 70, 59
1, 227539, Control_c, 0, 64, 94
1, 227554, Control_c, 0, 64, 79
1, 227576, Control_c, 0, 64, 58
1, 227581, Note_off_c, 0, 46, 60
1, 227591, Control_c, 0, 64, 0
1, 227606, Note_on_c, 0, 39, 85
1, 227606, Note_on_c, 0, 70, 97
1, 227608, Note_on_c, 0, 58, 91
1, 227649, Note_off_c, 0, 58, 63
1, 227650, Control_c, 0, 64, 52
1, 227658, Note_off_c, 0, 70, 66
1, 227665, Control_c, 0, 64, 65
1, 227680, Control_c, 0, 64, 73
1, 227695, Control_c, 0, 64, 83
1, 227699, Note_on_c, 0, 46, 74
1, 227699, Note_off_c, 0, 39, 62
1, 227709, Control_c, 0, 64, 94
1, 227724, Control_c, 0, 64, 103
1, 227739, Control_c, 0, 64, 114
1, 227754, Control_c, 0, 64, 127
1, 227794, Note_off_c, 0, 46, 62
1, 227802, Note_on_c, 0, 54, 76
1, 227883, Note_off_c, 0, 54, 59
1, 227895, Note_on_c, 0, 46, 78
1, 227972, Note_off_c, 0, 46, 59
1, 227978, Note_on_c, 0, 82, 105
1, 227982, Note_on_c, 0, 70, 93
1, 227991, Note_on_c, 0, 39, 82
1, 228025, Note_off_c, 0, 70, 66
1, 228047, Note_off_c, 0, 82, 64
1, 228082, Note_off_c, 0, 39, 60
1, 228086, Note_on_c, 0, 46, 73
1, 228173, Note_off_c, 0, 46, 62
1, 228183, Note_on_c, 0, 54, 75
1, 228243, Control_c, 0, 67, 8
1, 228266, Note_on_c, 0, 46, 70
1, 228271, Note_off_c, 0, 54, 60
1, 228288, Control_c, 0, 67, 0
1, 228375, Note_off_c, 0, 46, 59
1, 228378, Note_on_c, 0, 41, 85
1, 228380, Note_on_c, 0, 94, 96
1, 228383, Note_on_c, 0, 82, 97
1, 228413, Control_c, 0, 64, 83
1, 228428, Control_c, 0, 64, 63
1, 228443, Control_c, 0, 64, 0
1, 228443, Control_c, 0, 67, 8
1, 228458, Control_c, 0, 67, 9
1, 228471, Control_c, 0, 67, 9
1, 228483, Note_on_c, 0, 46, 76
1, 228483, Note_off_c, 0, 41, 61
1, 228486, Control_c, 0, 67, 10
1, 228501, Control_c, 0, 67, 11
1, 228516, Control_c, 0, 64, 55
1, 228516, Control_c, 0, 67, 12
1, 228530, Control_c, 0, 64, 66
1, 228530, Control_c, 0, 67, 14
1, 228545, Control_c, 0, 64, 73
1, 228545, Control_c, 0, 67, 17
1, 228560, Control_c, 0, 64, 81
1, 228560, Control_c, 0, 67, 18
1, 228562, Note_off_c, 0, 46, 62
1, 228572, Note_on_c, 0, 56, 73
1, 228575, Control_c, 0, 64, 92
1, 228575, Control_c, 0, 67, 19
1, 228590, Control_c, 0, 64, 99
1, 228590, Control_c, 0, 67, 20
1, 228604, Control_c, 0, 64, 103
1, 228604, Control_c, 0, 67, 22
1, 228619, Control_c, 0, 64, 105
1, 228619, Control_c, 0, 67, 26
1, 228634, Control_c, 0, 64, 114
1, 228634, Control_c, 0, 67, 31
1, 228638, Note_off_c, 0, 56, 53
1, 228649, Control_c, 0, 64, 127
1, 228649, Control_c, 0, 67, 36
1, 228655, Note_off_c, 0, 94, 63
1, 228661, Note_on_c, 0, 46, 72
1, 228664, Control_c, 0, 67, 39
1, 228679, Control_c, 0, 67, 40
1, 228693, Control_c, 0, 67, 41
1, 228700, Note_off_c, 0, 82, 61
1, 228708, Control_c, 0, 67, 42
1, 228723, Control_c, 0, 67, 42
1, 228750, Note_off_c, 0, 46, 55
1, 228751, Note_on_c, 0, 41, 77
1, 228797, Control_c, 0, 67, 42
1, 228812, Control_c, 0, 67, 41
1, 228841, Note_off_c, 0, 41, 60
1, 228857, Control_c, 0, 67, 41
1, 228872, Note_on_c, 0, 46, 68
1, 228935, Note_on_c, 0, 82, 91
1, 228938, Note_off_c, 0, 46, 62
1, 228940, Note_on_c, 0, 70, 86
1, 228942, Note_on_c, 0, 56, 69
1, 229018, Note_off_c, 0, 56, 57
1, 229026, Note_on_c, 0, 81, 66
1, 229043, Note_on_c, 0, 46, 64
1, 229096, Note_off_c, 0, 81, 62
1, 229117, Control_c, 0, 64, 94
1, 229132, Control_c, 0, 64, 76
1, 229145, Note_on_c, 0, 42, 76
1, 229145, Note_off_c, 0, 46, 62
1, 229146, Control_c, 0, 64, 59
1, 229146, Control_c, 0, 67, 41
1, 229161, Control_c, 0, 64, 0
1, 229161, Control_c, 0, 67, 42
1, 229176, Control_c, 0, 67, 42
1, 229191, Control_c, 0, 67, 43
1, 229206, Control_c, 0, 64, 14
1, 229206, Control_c, 0, 67, 43
1, 229221, Control_c, 0, 64, 58
1, 229221, Control_c, 0, 67, 44
1, 229236, Control_c, 0, 64, 65
1, 229236, Control_c, 0, 67, 45
1, 229251, Control_c, 0, 64, 70
1, 229251, Control_c, 0, 67, 47
1, 229258, Note_on_c, 0, 46, 62
1, 229261, Note_off_c, 0, 42, 59
1, 229266, Control_c, 0, 64, 77
1, 229266, Control_c, 0, 67, 50
1, 229280, Control_c, 0, 64, 84
1, 229280, Control_c, 0, 67, 52
1, 229295, Control_c, 0, 64, 88
1, 229295, Control_c, 0, 67, 53
1, 229310, Control_c, 0, 64, 91
1, 229310, Control_c, 0, 67, 56
1, 229325, Control_c, 0, 64, 92
1, 229325, Control_c, 0, 67, 58
1, 229329, Note_off_c, 0, 46, 59
1, 229340, Control_c, 0, 64, 94
1, 229340, Control_c, 0, 67, 63
1, 229349, Note_on_c, 0, 58, 68
1, 229354, Control_c, 0, 64, 96
1, 229354, Control_c, 0, 67, 67
1, 229369, Control_c, 0, 64, 99
1, 229369, Control_c, 0, 67, 70
1, 229382, Note_off_c, 0, 82, 58
1, 229384, Control_c, 0, 64, 102
1, 229384, Control_c, 0, 67, 72
1, 229399, Control_c, 0, 64, 102
1, 229399, Control_c, 0, 67, 75
1, 229402, Note_off_c, 0, 58, 54
1, 229414, Control_c, 0, 67, 78
1, 229415, Note_off_c, 0, 70, 57
1, 229428, Control_c, 0, 64, 102
1, 229428, Control_c, 0, 67, 84
1, 229438, Note_on_c, 0, 46, 70
1, 229443, Control_c, 0, 67, 90
1, 229458, Control_c, 0, 67, 94
1, 229472, Control_c, 0, 67, 96
1, 229487, Control_c, 0, 64, 100
1, 229487, Control_c, 0, 67, 97
1, 229494, Note_off_c, 0, 46, 58
1, 229502, Control_c, 0, 64, 100
1, 229502, Control_c, 0, 67, 98
1, 229517, Control_c, 0, 67, 99
1, 229520, Note_on_c, 0, 42, 66
1, 229532, Control_c, 0, 67, 101
1, 229546, Control_c, 0, 67, 103
1, 229561, Control_c, 0, 64, 99
1, 229561, Control_c, 0, 67, 104
1, 229576, Control_c, 0, 64, 98
1, 229583, Note_off_c, 0, 42, 59
1, 229591, Control_c, 0, 64, 97
1, 229616, Note_on_c, 0, 46, 52
1, 229635, Control_c, 0, 64, 97
1, 229651, Control_c, 0, 64, 95
1, 229661, Note_off_c, 0, 46, 57
1, 229666, Control_c, 0, 64, 92
1, 229681, Note_on_c, 0, 66, 56
1, 229681, Control_c, 0, 64, 91
1, 229684, Note_on_c, 0, 78, 62
1, 229702, Note_on_c, 0, 58, 61
1, 229725, Control_c, 0, 64, 91
1, 229725, Control_c, 0, 67, 103
1, 229740, Control_c, 0, 64, 88
1, 229740, Control_c, 0, 67, 103
1, 229755, Control_c, 0, 64, 86
1, 229770, Control_c, 0, 64, 82
1, 229773, Note_off_c, 0, 58, 57
1, 229784, Control_c, 0, 64, 76
1, 229798, Note_off_c, 0, 66, 38
1, 229799, Control_c, 0, 64, 67
1, 229807, Note_on_c, 0, 46, 44
1, 229822, Control_c, 0, 64, 40
1, 229837, Control_c, 0, 64, 0
1, 229877, Note_off_c, 0, 78, 62
1, 229881, Note_off_c, 0, 46, 56
1, 229895, Control_c, 0, 64, 40
1, 229900, Note_on_c, 0, 77, 64
1, 229903, Note_on_c, 0, 44, 67
1, 229910, Control_c, 0, 64, 59
1, 229925, Control_c, 0, 64, 65
1, 229925, Control_c, 0, 67, 102
1, 229931, Note_on_c, 0, 65, 43
1, 229940, Control_c, 0, 64, 70
1, 229940, Control_c, 0, 67, 102
1, 229955, Control_c, 0, 64, 75
1, 229955, Control_c, 0, 67, 101
1, 229963, Note_off_c, 0, 77, 61
1, 229968, Note_off_c, 0, 65, 61
1, 229969, Control_c, 0, 64, 81
1, 229969, Control_c, 0, 67, 101
1, 229971, Note_off_c, 0, 44, 60
1, 229984, Control_c, 0, 64, 86
1, 229984, Control_c, 0, 67, 100
1, 229999, Control_c, 0, 64, 89
1, 229999, Control_c, 0, 67, 99
1, 230005, Note_on_c, 0, 46, 41
1, 230014, Control_c, 0, 64, 90
1, 230014, Control_c, 0, 67, 98
1, 230029, Control_c, 0, 64, 90
1, 230029, Control_c, 0, 67, 98
1, 230041, Note_off_c, 0, 46, 50
1, 230044, Control_c, 0, 64, 91
1, 230044, Control_c, 0, 67, 97
1, 230057, Note_on_c, 0, 56, 56
1, 230059, Control_c, 0, 67, 97
1, 230074, Control_c, 0, 67, 96
1, 230086, Note_on_c, 0, 74, 80
1, 230089, Control_c, 0, 67, 96
1, 230103, Control_c, 0, 67, 95
1, 230107, Note_on_c, 0, 62, 59
1, 230109, Note_off_c, 0, 56, 63
1, 230115, Note_on_c, 0, 46, 70
1, 230118, Control_c, 0, 67, 94
1, 230143, Note_off_c, 0, 62, 62
1, 230146, Note_off_c, 0, 74, 63
1, 230148, Control_c, 0, 64, 89
1, 230148, Control_c, 0, 67, 94
1, 230155, Note_off_c, 0, 46, 63
1, 230162, Control_c, 0, 64, 88
1, 230177, Control_c, 0, 64, 87
1, 230177, Control_c, 0, 67, 93
1, 230192, Control_c, 0, 64, 86
1, 230192, Control_c, 0, 67, 93
1, 230207, Control_c, 0, 64, 85
1, 230222, Control_c, 0, 64, 84
1, 230237, Control_c, 0, 64, 82
1, 230237, Control_c, 0, 67, 92
1, 230242, Note_on_c, 0, 34, 68
1, 230251, Control_c, 0, 64, 82
1, 230259, Note_on_c, 0, 71, 82
1, 230265, Note_on_c, 0, 59, 73
1, 230266, Control_c, 0, 67, 91
1, 230267, Note_off_c, 0, 34, 62
1, 230281, Control_c, 0, 67, 90
1, 230295, Control_c, 0, 67, 89
1, 230310, Control_c, 0, 67, 88
1, 230319, Note_off_c, 0, 59, 59
1, 230325, Control_c, 0, 64, 81
1, 230325, Control_c, 0, 67, 87
1, 230338, Note_on_c, 0, 46, 71
1, 230340, Control_c, 0, 64, 79
1, 230340, Control_c, 0, 67, 86
1, 230351, Note_off_c, 0, 71, 64
1, 230355, Control_c, 0, 64, 77
1, 230355, Control_c, 0, 67, 85
1, 230369, Control_c, 0, 64, 73
1, 230369, Control_c, 0, 67, 84
1, 230384, Control_c, 0, 64, 70
1, 230384, Control_c, 0, 67, 84
1, 230399, Control_c, 0, 64, 67
1, 230414, Control_c, 0, 64, 66
1, 230415, Note_off_c, 0, 46, 62
1, 230435, Note_on_c, 0, 53, 73
1, 230437, Note_on_c, 0, 70, 86
1, 230442, Note_on_c, 0, 58, 82
1, 230445, Control_c, 0, 67, 84
1, 230460, Control_c, 0, 64, 65
1, 230474, Control_c, 0, 64, 63
1, 230489, Control_c, 0, 64, 58
1, 230504, Control_c, 0, 64, 30
1, 230505, Note_off_c, 0, 53, 61
1, 230515, Note_off_c, 0, 58, 60
1, 230518, Note_on_c, 0, 46, 73
1, 230518, Control_c, 0, 64, 0
1, 230533, Control_c, 0, 67, 83
1, 230545, Note_off_c, 0, 70, 58
1, 230548, Control_c, 0, 67, 82
1, 230571, Control_c, 0, 67, 80
1, 230586, Control_c, 0, 67, 76
1, 230600, Control_c, 0, 67, 70
1, 230608, Note_off_c, 0, 46, 51
1, 230615, Control_c, 0, 64, 56
1, 230615, Control_c, 0, 67, 59
1, 230625, Note_on_c, 0, 39, 85
1, 230628, Note_on_c, 0, 58, 91
1, 230629, Note_on_c, 0, 70, 95
1, 230630, Control_c, 0, 64, 67
1, 230630, Control_c, 0, 67, 41
1, 230645, Control_c, 0, 64, 74
1, 230645, Control_c, 0, 67, 22
1, 230650, Note_off_c, 0, 58, 68
1, 230660, Control_c, 0, 64, 83
1, 230660, Control_c, 0, 67, 0
1, 230668, Note_off_c, 0, 70, 65
1, 230674, Control_c, 0, 64, 94
1, 230689, Control_c, 0, 64, 103
1, 230690, Note_off_c, 0, 39, 62
1, 230704, Control_c, 0, 64, 108
1, 230718, Control_c, 0, 64, 119
1, 230722, Note_on_c, 0, 46, 79
1, 230733, Control_c, 0, 64, 127
1, 230816, Note_off_c, 0, 46, 58
1, 230816, Note_on_c, 0, 54, 78
1, 230909, Note_on_c, 0, 46, 74
1, 230917, Note_off_c, 0, 54, 59
1, 230941, Control_c, 0, 64, 115
1, 230956, Control_c, 0, 64, 91
1, 230971, Control_c, 0, 64, 67
1, 230985, Control_c, 0, 64, 0
1, 230996, Note_off_c, 0, 46, 56
1, 231000, Note_on_c, 0, 82, 103
1, 231002, Note_on_c, 0, 70, 95
1, 231003, Note_on_c, 0, 41, 90
1, 231030, Control_c, 0, 64, 64
1, 231045, Control_c, 0, 64, 74
1, 231047, Note_off_c, 0, 70, 65
1, 231060, Control_c, 0, 64, 88
1, 231063, Note_off_c, 0, 82, 66
1, 231074, Control_c, 0, 64, 109
1, 231089, Control_c, 0, 64, 127
1, 231100, Note_on_c, 0, 46, 80
1, 231102, Note_off_c, 0, 41, 63
1, 231166, Note_off_c, 0, 46, 61
1, 231186, Note_on_c, 0, 56, 73
1, 231271, Note_on_c, 0, 46, 78
1, 231276, Note_off_c, 0, 56, 60
1, 231344, Note_off_c, 0, 46, 60
1, 231349, Control_c, 0, 64, 89
1, 231364, Control_c, 0, 64, 64
1, 231379, Control_c, 0, 64, 40
1, 231391, Note_on_c, 0, 94, 101
1, 231392, Note_on_c, 0, 43, 76
1, 231394, Control_c, 0, 64, 63
1, 231396, Note_on_c, 0, 82, 99
1, 231409, Control_c, 0, 64, 74
1, 231423, Control_c, 0, 64, 87
1, 231438, Control_c, 0, 64, 106
1, 231440, Note_off_c, 0, 82, 65
1, 231453, Control_c, 0, 64, 127
1, 231454, Note_off_c, 0, 94, 65
1, 231481, Poly_aftertouch_c, 0, 42, 0
1, 231490, Note_off_c, 0, 43, 56
1, 231534, Note_on_c, 0, 52, 53
1, 231565, Note_off_c, 0, 52, 63
1, 231575, Note_on_c, 0, 58, 64
1, 231662, Note_off_c, 0, 58, 60
1, 231664, Note_on_c, 0, 51, 69
1, 231704, Control_c, 0, 64, 97
1, 231719, Control_c, 0, 64, 77
1, 231734, Control_c, 0, 64, 44
1, 231743, Note_off_c, 0, 51, 62
1, 231748, Control_c, 0, 64, 0
1, 231762, Note_on_c, 0, 44, 85
1, 231771, Note_on_c, 0, 95, 105
1, 231775, Note_on_c, 0, 83, 96
1, 231808, Control_c, 0, 64, 47
1, 231817, Note_off_c, 0, 83, 67
1, 231817, Note_off_c, 0, 95, 68
1, 231822, Control_c, 0, 64, 66
1, 231837, Control_c, 0, 64, 74
1, 231852, Control_c, 0, 64, 83
1, 231859, Note_on_c, 0, 51, 68
1, 231866, Control_c, 0, 64, 89
1, 231881, Control_c, 0, 64, 92
1, 231886, Note_off_c, 0, 44, 61
1, 231896, Control_c, 0, 64, 93
1, 231911, Control_c, 0, 64, 93
1, 231926, Control_c, 0, 64, 93
1, 231934, Note_off_c, 0, 51, 62
1, 231937, Note_on_c, 0, 59, 68
1, 232011, Note_off_c, 0, 59, 54
1, 232014, Control_c, 0, 64, 93
1, 232042, Note_on_c, 0, 51, 64
1, 232045, Control_c, 0, 64, 91
1, 232068, Control_c, 0, 64, 89
1, 232083, Control_c, 0, 64, 87
1, 232097, Control_c, 0, 64, 85
1, 232112, Control_c, 0, 64, 84
1, 232127, Control_c, 0, 64, 82
1, 232142, Control_c, 0, 64, 77
1, 232150, Note_off_c, 0, 51, 66
1, 232157, Control_c, 0, 64, 73
1, 232171, Control_c, 0, 64, 70
1, 232186, Control_c, 0, 64, 69
1, 232201, Control_c, 0, 64, 67
1, 232201, Control_c, 0, 67, 8
1, 232217, Control_c, 0, 64, 64
1, 232232, Control_c, 0, 64, 61
1, 232246, Control_c, 0, 64, 58
1, 232261, Control_c, 0, 64, 55
1, 232276, Control_c, 0, 64, 48
1, 232290, Control_c, 0, 64, 38
1, 232305, Control_c, 0, 64, 0
1, 232350, Control_c, 0, 67, 0
1, 232549, Note_on_c, 0, 71, 54
1, 232847, Control_c, 0, 67, 8
1, 232861, Control_c, 0, 67, 9
1, 232876, Control_c, 0, 67, 10
1, 232891, Control_c, 0, 67, 11
1, 232906, Control_c, 0, 67, 17
1, 232920, Control_c, 0, 67, 24
1, 232935, Control_c, 0, 67, 32
1, 232950, Control_c, 0, 67, 39
1, 232965, Control_c, 0, 67, 44
1, 232980, Control_c, 0, 67, 49
1, 232995, Control_c, 0, 67, 54
1, 233010, Control_c, 0, 67, 62
1, 233025, Control_c, 0, 67, 69
1, 233040, Control_c, 0, 67, 77
1, 233055, Control_c, 0, 67, 82
1, 233069, Control_c, 0, 67, 88
1, 233084, Control_c, 0, 67, 93
1, 233099, Control_c, 0, 67, 99
1, 233113, Control_c, 0, 67, 105
1, 233128, Control_c, 0, 67, 111
1, 233143, Control_c, 0, 67, 115
1, 233158, Control_c, 0, 67, 120
1, 233173, Control_c, 0, 67, 124
1, 233187, Control_c, 0, 67, 127
1, 233334, Note_on_c, 0, 70, 49
1, 233392, Note_off_c, 0, 71, 63
1, 233877, Control_c, 0, 64, 17
1, 233892, Control_c, 0, 64, 24
1, 233907, Control_c, 0, 64, 27
1, 233922, Control_c, 0, 64, 30
1, 233936, Control_c, 0, 64, 31
1, 233951, Control_c, 0, 64, 33
1, 233966, Control_c, 0, 64, 35
1, 234025, Control_c, 0, 64, 36
1, 234084, Control_c, 0, 64, 36
1, 234099, Control_c, 0, 64, 37
1, 234146, Note_on_c, 0, 68, 45
1, 234155, Note_on_c, 0, 59, 35
1, 234173, Control_c, 0, 64, 38
1, 234188, Control_c, 0, 64, 38
1, 234203, Control_c, 0, 64, 39
1, 234217, Control_c, 0, 64, 40
1, 234241, Note_off_c, 0, 70, 38
1, 234262, Control_c, 0, 64, 40
1, 234346, Note_off_c, 0, 68, 59
1, 234373, Control_c, 0, 64, 41
1, 234403, Control_c, 0, 64, 42
1, 234432, Control_c, 0, 64, 42
1, 234448, Control_c, 0, 64, 43
1, 234463, Control_c, 0, 64, 43
1, 234478, Control_c, 0, 64, 44
1, 234537, Control_c, 0, 64, 45
1, 234552, Control_c, 0, 64, 46
1, 234566, Control_c, 0, 64, 47
1, 234581, Control_c, 0, 64, 47
1, 234611, Control_c, 0, 64, 48
1, 234626, Control_c, 0, 64, 48
1, 234640, Control_c, 0, 64, 50
1, 234655, Control_c, 0, 64, 51
1, 234804, Control_c, 0, 64, 50
1, 234878, Control_c, 0, 64, 50
1, 234955, Note_on_c, 0, 58, 40
1, 235112, Note_off_c, 0, 59, 40
1, 235196, Control_c, 0, 64, 49
1, 235225, Control_c, 0, 64, 48
1, 235271, Control_c, 0, 64, 48
1, 235330, Control_c, 0, 64, 47
1, 235345, Control_c, 0, 64, 47
1, 235389, Control_c, 0, 64, 46
1, 235404, Control_c, 0, 64, 45
1, 235419, Control_c, 0, 64, 45
1, 235582, Control_c, 0, 64, 45
1, 235597, Control_c, 0, 64, 46
1, 235612, Control_c, 0, 64, 47
1, 235671, Control_c, 0, 64, 47
1, 235701, Control_c, 0, 64, 48
1, 235730, Control_c, 0, 64, 48
1, 235760, Control_c, 0, 64, 48
1, 235795, Note_on_c, 0, 72, 46
1, 235827, Note_on_c, 0, 57, 28
1, 235931, Note_off_c, 0, 58, 41
1, 236022, Note_off_c, 0, 57, 40
1, 236109, Control_c, 0, 64, 48
1, 236124, Control_c, 0, 64, 49
1, 236212, Control_c, 0, 64, 49
1, 236538, Control_c, 0, 64, 50
1, 236636, Note_on_c, 0, 70, 47
1, 236775, Note_off_c, 0, 72, 55
1, 236827, Control_c, 0, 64, 49
1, 236873, Control_c, 0, 64, 49
1, 237339, Control_c, 0, 64, 49
1, 237368, Control_c, 0, 64, 50
1, 237442, Control_c, 0, 64, 50
1, 237456, Note_on_c, 0, 69, 39
1, 237472, Note_on_c, 0, 60, 34
1, 237560, Note_off_c, 0, 70, 40
1, 237660, Note_off_c, 0, 69, 36
1, 237932, Control_c, 0, 64, 51
1, 238117, Control_c, 0, 64, 51
1, 238132, Control_c, 0, 64, 52
1, 238206, Control_c, 0, 64, 52
1, 238297, Note_on_c, 0, 58, 35
1, 238369, Control_c, 0, 64, 53
1, 238460, Note_off_c, 0, 60, 39
1, 238563, Control_c, 0, 64, 52
1, 238607, Control_c, 0, 64, 52
1, 238956, Control_c, 0, 64, 52
1, 239139, Note_on_c, 0, 77, 53
1, 239163, Control_c, 0, 64, 52
1, 239165, Note_on_c, 0, 56, 22
1, 239231, Note_off_c, 0, 58, 39
1, 239238, Control_c, 0, 64, 51
1, 239253, Control_c, 0, 64, 51
1, 239268, Control_c, 0, 64, 50
1, 239282, Control_c, 0, 64, 50
1, 239415, Note_off_c, 0, 56, 47
1, 239675, Control_c, 0, 64, 50
1, 239704, Control_c, 0, 64, 51
1, 239734, Control_c, 0, 64, 51
1, 239749, Control_c, 0, 64, 52
1, 239793, Control_c, 0, 64, 52
1, 239852, Control_c, 0, 64, 53
1, 239926, Control_c, 0, 64, 53
1, 239982, Note_on_c, 0, 75, 57
1, 240000, Control_c, 0, 64, 54
1, 240159, Note_off_c, 0, 77, 59
1, 240253, Control_c, 0, 64, 53
1, 240319, Control_c, 0, 64, 53
1, 240334, Control_c, 0, 64, 52
1, 240349, Control_c, 0, 64, 51
1, 240394, Control_c, 0, 64, 50
1, 240408, Control_c, 0, 64, 49
1, 240423, Control_c, 0, 64, 49
1, 240468, Control_c, 0, 64, 48
1, 240483, Control_c, 0, 64, 47
1, 240498, Control_c, 0, 64, 45
1, 240557, Control_c, 0, 64, 44
1, 240572, Control_c, 0, 64, 42
1, 240586, Control_c, 0, 64, 40
1, 240675, Control_c, 0, 64, 41
1, 240690, Control_c, 0, 64, 42
1, 240734, Control_c, 0, 64, 42
1, 240749, Control_c, 0, 64, 43
1, 240764, Control_c, 0, 64, 43
1, 240793, Control_c, 0, 64, 44
1, 240803, Note_on_c, 0, 74, 36
1, 240824, Control_c, 0, 64, 44
1, 240825, Note_on_c, 0, 65, 38
1, 240836, Note_on_c, 0, 68, 44
1, 240839, Control_c, 0, 64, 45
1, 240853, Control_c, 0, 64, 45
1, 240876, Note_off_c, 0, 75, 46
1, 240898, Control_c, 0, 64, 46
1, 240927, Control_c, 0, 64, 45
1, 240957, Control_c, 0, 64, 43
1, 240972, Control_c, 0, 64, 40
1, 240987, Control_c, 0, 64, 38
1, 241002, Control_c, 0, 64, 32
1, 241017, Control_c, 0, 64, 17
1, 241031, Control_c, 0, 64, 0
1, 241109, Note_off_c, 0, 74, 44
1, 241187, Control_c, 0, 64, 36
1, 241201, Control_c, 0, 64, 58
1, 241216, Control_c, 0, 64, 65
1, 241231, Control_c, 0, 64, 71
1, 241245, Control_c, 0, 64, 75
1, 241260, Control_c, 0, 64, 78
1, 241275, Control_c, 0, 64, 82
1, 241290, Control_c, 0, 64, 85
1, 241305, Control_c, 0, 64, 89
1, 241320, Control_c, 0, 64, 93
1, 241334, Control_c, 0, 64, 98
1, 241349, Control_c, 0, 64, 103
1, 241364, Control_c, 0, 64, 110
1, 241379, Control_c, 0, 64, 122
1, 241394, Control_c, 0, 64, 127
1, 241672, Note_on_c, 0, 67, 49
1, 241679, Note_on_c, 0, 63, 54
1, 241750, Control_c, 0, 64, 112
1, 241757, Note_off_c, 0, 65, 49
1, 241765, Control_c, 0, 64, 101
1, 241780, Control_c, 0, 64, 94
1, 241802, Control_c, 0, 64, 88
1, 241817, Control_c, 0, 64, 84
1, 241823, Note_off_c, 0, 68, 20
1, 241831, Control_c, 0, 64, 77
1, 241846, Control_c, 0, 64, 72
1, 241861, Control_c, 0, 64, 66
1, 241875, Control_c, 0, 64, 63
1, 241890, Control_c, 0, 64, 56
1, 241905, Control_c, 0, 64, 43
1, 241920, Control_c, 0, 64, 36
1, 241950, Control_c, 0, 64, 44
1, 241964, Control_c, 0, 64, 56
1, 241979, Control_c, 0, 64, 63
1, 241994, Control_c, 0, 64, 65
1, 242009, Control_c, 0, 64, 68
1, 242024, Control_c, 0, 64, 73
1, 242039, Control_c, 0, 64, 81
1, 242054, Control_c, 0, 64, 92
1, 242069, Control_c, 0, 64, 101
1, 242083, Control_c, 0, 64, 112
1, 242098, Control_c, 0, 64, 127
1, 242367, Note_off_c, 0, 67, 34
1, 242491, Note_on_c, 0, 82, 84
1, 242507, Note_on_c, 0, 70, 55
1, 242529, Note_on_c, 0, 62, 44
1, 242530, Note_on_c, 0, 65, 41
1, 242547, Note_off_c, 0, 63, 26
1, 242580, Control_c, 0, 64, 118
1, 242595, Control_c, 0, 64, 109
1, 242610, Control_c, 0, 64, 100
1, 242624, Control_c, 0, 64, 90
1, 242639, Control_c, 0, 64, 82
1, 242654, Control_c, 0, 64, 74
1, 242669, Control_c, 0, 64, 68
1, 242684, Control_c, 0, 64, 64
1, 242698, Control_c, 0, 64, 62
1, 242713, Control_c, 0, 64, 59
1, 242728, Control_c, 0, 64, 57
1, 242743, Control_c, 0, 64, 58
1, 242758, Control_c, 0, 64, 62
1, 242772, Control_c, 0, 64, 65
1, 242787, Control_c, 0, 64, 68
1, 242802, Control_c, 0, 64, 72
1, 242817, Control_c, 0, 64, 77
1, 242832, Control_c, 0, 64, 83
1, 242847, Control_c, 0, 64, 90
1, 242862, Control_c, 0, 64, 101
1, 242877, Control_c, 0, 64, 115
1, 242892, Control_c, 0, 64, 127
1, 242999, Note_off_c, 0, 82, 60
1, 243076, Note_off_c, 0, 70, 60
1, 243316, Note_on_c, 0, 80, 87
1, 243328, Note_on_c, 0, 68, 74
1, 243342, Note_on_c, 0, 60, 53
1, 243342, Note_on_c, 0, 63, 55
1, 243359, Control_c, 0, 64, 110
1, 243374, Control_c, 0, 64, 98
1, 243389, Control_c, 0, 64, 89
1, 243395, Note_off_c, 0, 62, 52
1, 243403, Control_c, 0, 64, 81
1, 243418, Control_c, 0, 64, 73
1, 243433, Control_c, 0, 64, 64
1, 243447, Control_c, 0, 64, 56
1, 243451, Note_off_c, 0, 65, 52
1, 243462, Control_c, 0, 64, 43
1, 243477, Control_c, 0, 64, 34
1, 243492, Control_c, 0, 64, 26
1, 243521, Control_c, 0, 64, 47
1, 243536, Control_c, 0, 64, 61
1, 243551, Control_c, 0, 64, 66
1, 243566, Control_c, 0, 64, 70
1, 243581, Control_c, 0, 64, 76
1, 243595, Control_c, 0, 64, 84
1, 243595, Control_c, 0, 67, 127
1, 243610, Control_c, 0, 64, 93
1, 243610, Control_c, 0, 67, 123
1, 243625, Control_c, 0, 64, 101
1, 243625, Control_c, 0, 67, 118
1, 243640, Control_c, 0, 64, 108
1, 243640, Control_c, 0, 67, 111
1, 243655, Control_c, 0, 64, 118
1, 243655, Control_c, 0, 67, 100
1, 243670, Control_c, 0, 64, 127
1, 243670, Control_c, 0, 67, 85
1, 243684, Note_off_c, 0, 80, 57
1, 243684, Control_c, 0, 67, 70
1, 243699, Note_off_c, 0, 68, 58
1, 243699, Control_c, 0, 67, 56
1, 243714, Control_c, 0, 67, 40
1, 243729, Control_c, 0, 67, 28
1, 243744, Control_c, 0, 67, 16
1, 243759, Control_c, 0, 67, 0
1, 243955, Note_off_c, 0, 63, 57
1, 244258, Note_on_c, 0, 79, 78
1, 244269, Note_on_c, 0, 67, 64
1, 244278, Note_on_c, 0, 62, 41
1, 244292, Note_on_c, 0, 59, 43
1, 244300, Control_c, 0, 64, 117
1, 244315, Control_c, 0, 64, 108
1, 244330, Control_c, 0, 64, 103
1, 244344, Control_c, 0, 64, 97
1, 244359, Control_c, 0, 64, 91
1, 244364, Note_off_c, 0, 60, 41
1, 244374, Control_c, 0, 64, 84
1, 244389, Control_c, 0, 64, 77
1, 244403, Control_c, 0, 64, 71
1, 244418, Control_c, 0, 64, 65
1, 244433, Control_c, 0, 64, 62
1, 244448, Control_c, 0, 64, 60
1, 244463, Control_c, 0, 64, 59
1, 244477, Control_c, 0, 64, 55
1, 244492, Control_c, 0, 64, 45
1, 244507, Control_c, 0, 64, 0
1, 244596, Control_c, 0, 64, 35
1, 244611, Control_c, 0, 64, 57
1, 244626, Control_c, 0, 64, 64
1, 244641, Control_c, 0, 64, 68
1, 244656, Control_c, 0, 64, 72
1, 244670, Control_c, 0, 64, 78
1, 244685, Control_c, 0, 64, 83
1, 244700, Control_c, 0, 64, 87
1, 244715, Control_c, 0, 64, 92
1, 244730, Control_c, 0, 64, 97
1, 244744, Control_c, 0, 64, 103
1, 244759, Control_c, 0, 64, 111
1, 244774, Control_c, 0, 64, 127
1, 244774, Control_c, 0, 67, 11
1, 244785, Note_off_c, 0, 62, 59
1, 244796, Control_c, 0, 67, 15
1, 244811, Control_c, 0, 67, 20
1, 244827, Control_c, 0, 67, 25
1, 244842, Control_c, 0, 67, 30
1, 244856, Control_c, 0, 67, 37
1, 244871, Control_c, 0, 67, 45
1, 244886, Control_c, 0, 67, 54
1, 244901, Control_c, 0, 67, 64
1, 244916, Control_c, 0, 67, 70
1, 244922, Note_off_c, 0, 59, 54
1, 244930, Control_c, 0, 67, 75
1, 244945, Control_c, 0, 67, 79
1, 244960, Control_c, 0, 67, 82
1, 244975, Control_c, 0, 67, 86
1, 244990, Control_c, 0, 67, 90
1, 245005, Control_c, 0, 67, 95
1, 245019, Control_c, 0, 67, 97
1, 245034, Control_c, 0, 67, 100
1, 245049, Control_c, 0, 67, 104
1, 245064, Control_c, 0, 67, 107
1, 245079, Control_c, 0, 67, 110
1, 245093, Control_c, 0, 67, 113
1, 245108, Control_c, 0, 67, 115
1, 245123, Control_c, 0, 67, 116
1, 245138, Control_c, 0, 67, 117
1, 245153, Control_c, 0, 67, 118
1, 245167, Control_c, 0, 67, 120
1, 245182, Control_c, 0, 67, 120
1, 245187, Note_on_c, 0, 58, 40
1, 245187, Note_on_c, 0, 63, 42
1, 245212, Control_c, 0, 64, 119
1, 245226, Control_c, 0, 64, 101
1, 245241, Control_c, 0, 64, 86
1, 245256, Control_c, 0, 64, 76
1, 245271, Control_c, 0, 64, 68
1, 245286, Control_c, 0, 64, 64
1, 245300, Control_c, 0, 64, 62
1, 245315, Control_c, 0, 64, 62
1, 245330, Control_c, 0, 64, 64
1, 245345, Control_c, 0, 64, 66
1, 245360, Control_c, 0, 64, 69
1, 245360, Control_c, 0, 67, 119
1, 245375, Control_c, 0, 64, 73
1, 245390, Control_c, 0, 64, 79
1, 245390, Control_c, 0, 67, 119
1, 245393, Note_off_c, 0, 67, 51
1, 245404, Control_c, 0, 64, 86
1, 245404, Control_c, 0, 67, 118
1, 245419, Control_c, 0, 64, 94
1, 245428, Note_off_c, 0, 79, 56
1, 245434, Control_c, 0, 64, 99
1, 245449, Control_c, 0, 64, 102
1, 245449, Control_c, 0, 67, 117
1, 245464, Control_c, 0, 64, 103
1, 245464, Control_c, 0, 67, 117
1, 245479, Control_c, 0, 64, 104
1, 245479, Control_c, 0, 67, 116
1, 245493, Control_c, 0, 64, 105
1, 245560, Control_c, 0, 67, 116
1, 245574, Control_c, 0, 64, 104
1, 245589, Control_c, 0, 64, 101
1, 245604, Control_c, 0, 64, 95
1, 245620, Control_c, 0, 64, 85
1, 245625, Note_on_c, 0, 80, 49
1, 245635, Control_c, 0, 64, 78
1, 245644, Note_on_c, 0, 65, 41
1, 245649, Control_c, 0, 64, 70
1, 245651, Note_on_c, 0, 68, 37
1, 245653, Note_off_c, 0, 63, 37
1, 245664, Control_c, 0, 64, 64
1, 245679, Control_c, 0, 64, 61
1, 245695, Control_c, 0, 64, 61
1, 245710, Control_c, 0, 64, 64
1, 245724, Control_c, 0, 64, 67
1, 245738, Note_off_c, 0, 80, 57
1, 245739, Control_c, 0, 64, 71
1, 245739, Control_c, 0, 67, 115
1, 245740, Note_off_c, 0, 68, 61
1, 245754, Control_c, 0, 64, 76
1, 245769, Control_c, 0, 64, 81
1, 245784, Control_c, 0, 64, 87
1, 245784, Control_c, 0, 67, 115
1, 245790, Note_off_c, 0, 65, 51
1, 245798, Control_c, 0, 64, 91
1, 245798, Control_c, 0, 67, 114
1, 245813, Control_c, 0, 64, 93
1, 245828, Control_c, 0, 64, 93
1, 245887, Control_c, 0, 64, 94
1, 245894, Note_on_c, 0, 77, 53
1, 245901, Note_on_c, 0, 62, 37
1, 245902, Control_c, 0, 64, 95
1, 245917, Control_c, 0, 64, 95
1, 245927, Note_on_c, 0, 65, 14
1, 245932, Control_c, 0, 67, 115
1, 245938, Note_off_c, 0, 62, 55
1, 245947, Control_c, 0, 67, 115
1, 245955, Note_off_c, 0, 58, 38
1, 245962, Control_c, 0, 67, 116
1, 245962, Note_off_c, 0, 77, 53
1, 245970, Note_off_c, 0, 65, 52
1, 245977, Control_c, 0, 67, 116
1, 245991, Control_c, 0, 67, 117
1, 246006, Control_c, 0, 67, 117
1, 246021, Control_c, 0, 67, 118
1, 246036, Control_c, 0, 67, 118
1, 246065, Control_c, 0, 64, 95
1, 246080, Control_c, 0, 64, 91
1, 246080, Control_c, 0, 67, 119
1, 246095, Control_c, 0, 64, 84
1, 246095, Control_c, 0, 67, 120
1, 246110, Control_c, 0, 64, 78
1, 246110, Control_c, 0, 67, 120
1, 246116, Note_on_c, 0, 75, 59
1, 246119, Note_on_c, 0, 79, 65
1, 246124, Control_c, 0, 64, 71
1, 246124, Control_c, 0, 67, 121
1, 246139, Control_c, 0, 64, 65
1, 246139, Control_c, 0, 67, 121
1, 246154, Control_c, 0, 64, 62
1, 246154, Control_c, 0, 67, 122
1, 246169, Control_c, 0, 64, 59
1, 246169, Control_c, 0, 67, 122
1, 246184, Control_c, 0, 64, 55
1, 246184, Control_c, 0, 67, 123
1, 246198, Control_c, 0, 64, 54
1, 246198, Control_c, 0, 67, 126
1, 246213, Control_c, 0, 64, 56
1, 246213, Control_c, 0, 67, 127
1, 246228, Control_c, 0, 64, 57
1, 246230, Note_on_c, 0, 58, 54
1, 246242, Control_c, 0, 64, 56
1, 246276, Note_off_c, 0, 58, 58
1, 246295, Control_c, 0, 64, 58
1, 246321, Note_on_c, 0, 60, 48
1, 246368, Control_c, 0, 64, 59
1, 246383, Control_c, 0, 64, 59
1, 246405, Note_on_c, 0, 58, 59
1, 246421, Note_off_c, 0, 60, 52
1, 246429, Control_c, 0, 64, 61
1, 246443, Control_c, 0, 64, 63
1, 246458, Control_c, 0, 64, 64
1, 246472, Control_c, 0, 64, 64
1, 246481, Note_off_c, 0, 58, 61
1, 246512, Note_on_c, 0, 57, 50
1, 246532, Control_c, 0, 64, 65
1, 246546, Control_c, 0, 64, 65
1, 246555, Note_off_c, 0, 57, 62
1, 246589, Note_on_c, 0, 58, 60
1, 246621, Control_c, 0, 64, 66
1, 246650, Control_c, 0, 64, 65
1, 246656, Note_off_c, 0, 58, 61
1, 246686, Note_on_c, 0, 55, 57
1, 246771, Note_on_c, 0, 51, 54
1, 246776, Note_off_c, 0, 55, 55
1, 246813, Control_c, 0, 64, 65
1, 246843, Control_c, 0, 64, 64
1, 246857, Note_off_c, 0, 51, 51
1, 246864, Note_on_c, 0, 77, 67
1, 246869, Note_on_c, 0, 56, 59
1, 246878, Note_on_c, 0, 70, 41
1, 246903, Control_c, 0, 64, 64
1, 246918, Control_c, 0, 64, 63
1, 246926, Note_off_c, 0, 56, 62
1, 246929, Note_off_c, 0, 75, 54
1, 246929, Note_off_c, 0, 79, 49
1, 246957, Note_on_c, 0, 53, 60
1, 246991, Control_c, 0, 64, 63
1, 247006, Control_c, 0, 64, 62
1, 247036, Note_off_c, 0, 53, 62
1, 247036, Control_c, 0, 64, 62
1, 247053, Note_on_c, 0, 50, 59
1, 247124, Note_off_c, 0, 50, 52
1, 247145, Note_on_c, 0, 46, 56
1, 247147, Control_c, 0, 64, 62
1, 247177, Control_c, 0, 64, 63
1, 247206, Control_c, 0, 64, 63
1, 247222, Control_c, 0, 64, 64
1, 247233, Note_on_c, 0, 44, 63
1, 247237, Control_c, 0, 64, 64
1, 247253, Note_off_c, 0, 46, 37
1, 247274, Note_off_c, 0, 44, 65
1, 247296, Control_c, 0, 64, 65
1, 247321, Note_on_c, 0, 41, 58
1, 247370, Control_c, 0, 64, 64
1, 247395, Note_off_c, 0, 41, 57
1, 247414, Note_on_c, 0, 38, 52
1, 247437, Note_off_c, 0, 70, 62
1, 247472, Note_off_c, 0, 38, 61
1, 247500, Note_on_c, 0, 34, 53
1, 247533, Control_c, 0, 64, 64
1, 247578, Control_c, 0, 64, 63
1, 247592, Control_c, 0, 64, 62
1, 247595, Note_on_c, 0, 75, 69
1, 247606, Note_off_c, 0, 34, 59
1, 247607, Control_c, 0, 64, 59
1, 247613, Note_on_c, 0, 39, 52
1, 247613, Note_on_c, 0, 67, 46
1, 247622, Control_c, 0, 64, 55
1, 247637, Control_c, 0, 64, 51
1, 247652, Control_c, 0, 64, 44
1, 247667, Control_c, 0, 64, 42
1, 247682, Control_c, 0, 64, 46
1, 247688, Note_off_c, 0, 39, 56
1, 247696, Control_c, 0, 64, 54
1, 247697, Note_on_c, 0, 41, 61
1, 247711, Control_c, 0, 64, 62
1, 247726, Control_c, 0, 64, 66
1, 247730, Note_off_c, 0, 77, 40
1, 247741, Control_c, 0, 64, 70
1, 247756, Control_c, 0, 64, 74
1, 247760, Note_off_c, 0, 41, 61
1, 247762, Note_off_c, 0, 75, 63
1, 247770, Control_c, 0, 64, 77
1, 247785, Control_c, 0, 64, 79
1, 247800, Note_on_c, 0, 43, 57
1, 247807, Control_c, 0, 64, 80
1, 247869, Note_off_c, 0, 43, 55
1, 247882, Note_on_c, 0, 44, 56
1, 247941, Control_c, 0, 64, 79
1, 247956, Control_c, 0, 64, 79
1, 247959, Note_off_c, 0, 44, 59
1, 247970, Control_c, 0, 64, 76
1, 247975, Note_on_c, 0, 46, 58
1, 247985, Control_c, 0, 64, 72
1, 247990, Note_on_c, 0, 72, 69
1, 248000, Control_c, 0, 64, 67
1, 248001, Note_on_c, 0, 68, 60
1, 248016, Control_c, 0, 64, 65
1, 248031, Control_c, 0, 64, 64
1, 248040, Note_off_c, 0, 67, 60
1, 248045, Control_c, 0, 64, 64
1, 248060, Control_c, 0, 64, 64
1, 248075, Control_c, 0, 64, 65
1, 248077, Note_off_c, 0, 46, 62
1, 248090, Control_c, 0, 64, 66
1, 248097, Note_on_c, 0, 48, 52
1, 248105, Control_c, 0, 64, 68
1, 248119, Control_c, 0, 64, 70
1, 248134, Control_c, 0, 64, 72
1, 248138, Note_off_c, 0, 48, 64
1, 248149, Control_c, 0, 64, 74
1, 248164, Control_c, 0, 64, 77
1, 248179, Control_c, 0, 64, 78
1, 248180, Note_on_c, 0, 50, 52
1, 248183, Note_on_c, 0, 70, 71
1, 248193, Control_c, 0, 64, 80
1, 248199, Note_on_c, 0, 67, 53
1, 248226, Note_off_c, 0, 50, 60
1, 248228, Note_off_c, 0, 68, 56
1, 248244, Note_on_c, 0, 51, 59
1, 248249, Note_off_c, 0, 72, 58
1, 248251, Note_off_c, 0, 67, 58
1, 248269, Note_off_c, 0, 70, 56
1, 248312, Control_c, 0, 64, 79
1, 248315, Note_off_c, 0, 51, 61
1, 248326, Control_c, 0, 64, 77
1, 248341, Control_c, 0, 64, 74
1, 248352, Note_on_c, 0, 53, 52
1, 248353, Note_on_c, 0, 46, 53
1, 248356, Control_c, 0, 64, 70
1, 248366, Note_on_c, 0, 70, 75
1, 248371, Control_c, 0, 64, 65
1, 248374, Note_on_c, 0, 67, 61
1, 248385, Control_c, 0, 64, 55
1, 248389, Note_off_c, 0, 53, 66
1, 248400, Control_c, 0, 64, 26
1, 248415, Control_c, 0, 64, 11
1, 248430, Control_c, 0, 64, 29
1, 248432, Note_off_c, 0, 46, 61
1, 248438, Note_on_c, 0, 55, 60
1, 248445, Control_c, 0, 64, 45
1, 248460, Control_c, 0, 64, 53
1, 248475, Control_c, 0, 64, 60
1, 248490, Control_c, 0, 64, 63
1, 248505, Control_c, 0, 64, 65
1, 248509, Note_off_c, 0, 55, 63
1, 248519, Control_c, 0, 64, 68
1, 248521, Note_on_c, 0, 56, 66
1, 248541, Control_c, 0, 64, 72
1, 248549, Note_off_c, 0, 67, 60
1, 248552, Note_on_c, 0, 65, 62
1, 248556, Control_c, 0, 64, 75
1, 248559, Note_on_c, 0, 68, 62
1, 248570, Control_c, 0, 64, 76
1, 248578, Note_off_c, 0, 70, 58
1, 248596, Note_off_c, 0, 68, 61
1, 248598, Note_off_c, 0, 56, 65
1, 248605, Note_on_c, 0, 57, 67
1, 248645, Control_c, 0, 64, 76
1, 248660, Control_c, 0, 64, 75
1, 248674, Control_c, 0, 64, 74
1, 248690, Control_c, 0, 64, 72
1, 248705, Control_c, 0, 64, 71
1, 248709, Note_on_c, 0, 58, 72
1, 248713, Note_off_c, 0, 57, 57
1, 248713, Note_off_c, 0, 65, 59
1, 248719, Control_c, 0, 64, 68
1, 248733, Note_on_c, 0, 67, 59
1, 248734, Control_c, 0, 64, 65
1, 248737, Note_on_c, 0, 63, 45
1, 248749, Control_c, 0, 64, 56
1, 248764, Control_c, 0, 64, 0
1, 248782, Note_off_c, 0, 63, 61
1, 248839, Control_c, 0, 64, 19
1, 248854, Control_c, 0, 64, 57
1, 248868, Control_c, 0, 64, 63
1, 248883, Control_c, 0, 64, 67
1, 248895, Note_off_c, 0, 67, 59
1, 248898, Control_c, 0, 64, 71
1, 248913, Control_c, 0, 64, 75
1, 248919, Note_on_c, 0, 56, 72
1, 248922, Note_on_c, 0, 65, 65
1, 248928, Control_c, 0, 64, 79
1, 248943, Control_c, 0, 64, 82
1, 248958, Control_c, 0, 64, 83
1, 248966, Note_off_c, 0, 56, 62
1, 248970, Note_off_c, 0, 65, 60
1, 248987, Control_c, 0, 64, 84
1, 249002, Control_c, 0, 64, 84
1, 249023, Note_off_c, 0, 58, 37
1, 249091, Control_c, 0, 64, 84
1, 249106, Control_c, 0, 64, 83
1, 249121, Control_c, 0, 64, 81
1, 249135, Control_c, 0, 64, 79
1, 249139, Note_on_c, 0, 63, 50
1, 249146, Note_on_c, 0, 55, 73
1, 249150, Control_c, 0, 64, 78
1, 249165, Control_c, 0, 64, 78
1, 249170, Note_on_c, 0, 51, 50
1, 249180, Control_c, 0, 64, 77
1, 249194, Control_c, 0, 64, 74
1, 249209, Control_c, 0, 64, 69
1, 249224, Control_c, 0, 64, 65
1, 249239, Control_c, 0, 64, 63
1, 249254, Note_on_c, 0, 58, 54
1, 249254, Control_c, 0, 64, 62
1, 249268, Control_c, 0, 64, 61
1, 249291, Control_c, 0, 64, 56
1, 249306, Control_c, 0, 64, 44
1, 249321, Control_c, 0, 64, 14
1, 249324, Note_off_c, 0, 63, 54
1, 249336, Control_c, 0, 64, 0
1, 249351, Note_on_c, 0, 60, 55
1, 249353, Note_off_c, 0, 58, 60
1, 249444, Note_on_c, 0, 58, 60
1, 249469, Note_off_c, 0, 60, 59
1, 249518, Note_off_c, 0, 58, 62
1, 249530, Note_on_c, 0, 57, 61
1, 249613, Note_on_c, 0, 58, 58
1, 249642, Note_off_c, 0, 57, 43
1, 249708, Note_on_c, 0, 67, 59
1, 249708, Note_off_c, 0, 58, 61
1, 249798, Note_on_c, 0, 63, 55
1, 249858, Note_on_c, 0, 46, 41
1, 249873, Note_on_c, 0, 53, 55
1, 249879, Note_off_c, 0, 63, 56
1, 249901, Note_off_c, 0, 67, 34
1, 249902, Note_on_c, 0, 62, 57
1, 249926, Note_off_c, 0, 55, 50
1, 249983, Note_off_c, 0, 51, 57
1, 249983, Note_off_c, 0, 62, 60
1, 249987, Note_on_c, 0, 63, 64
1, 250073, Note_off_c, 0, 63, 61
1, 250087, Note_on_c, 0, 65, 71
1, 250180, Note_on_c, 0, 67, 66
1, 250180, Note_off_c, 0, 65, 56
1, 250265, Note_on_c, 0, 68, 72
1, 250273, Note_off_c, 0, 67, 58
1, 250335, Control_c, 0, 64, 30
1, 250344, Note_off_c, 0, 68, 59
1, 250345, Note_on_c, 0, 69, 74
1, 250350, Control_c, 0, 64, 52
1, 250365, Control_c, 0, 64, 62
1, 250380, Control_c, 0, 64, 68
1, 250394, Control_c, 0, 64, 72
1, 250410, Control_c, 0, 64, 75
1, 250422, Note_off_c, 0, 46, 56
1, 250425, Note_off_c, 0, 53, 66
1, 250425, Control_c, 0, 64, 78
1, 250438, Note_on_c, 0, 72, 71
1, 250455, Note_off_c, 0, 69, 59
1, 250514, Control_c, 0, 64, 77
1, 250523, Note_on_c, 0, 70, 73
1, 250529, Control_c, 0, 64, 77
1, 250544, Control_c, 0, 64, 76
1, 250550, Note_off_c, 0, 72, 56
1, 250558, Control_c, 0, 64, 75
1, 250573, Control_c, 0, 64, 75
1, 250588, Control_c, 0, 64, 74
1, 250598, Note_on_c, 0, 67, 63
1, 250602, Note_on_c, 0, 63, 59
1, 250603, Control_c, 0, 64, 72
1, 250606, Note_off_c, 0, 70, 62
1, 250608, Note_on_c, 0, 69, 75
1, 250618, Control_c, 0, 64, 71
1, 250632, Control_c, 0, 64, 69
1, 250647, Control_c, 0, 64, 68
1, 250662, Control_c, 0, 64, 67
1, 250677, Control_c, 0, 64, 65
1, 250692, Control_c, 0, 64, 64
1, 250706, Note_on_c, 0, 70, 76
1, 250707, Control_c, 0, 64, 63
1, 250722, Note_off_c, 0, 69, 56
1, 250751, Control_c, 0, 64, 61
1, 250765, Control_c, 0, 64, 54
1, 250788, Control_c, 0, 64, 42
1, 250800, Note_on_c, 0, 72, 74
1, 250802, Note_off_c, 0, 70, 63
1, 250803, Control_c, 0, 64, 39
1, 250833, Control_c, 0, 64, 38
1, 250847, Control_c, 0, 64, 32
1, 250862, Control_c, 0, 64, 28
1, 250884, Note_on_c, 0, 70, 78
1, 250892, Control_c, 0, 64, 33
1, 250903, Note_off_c, 0, 72, 59
1, 250907, Control_c, 0, 64, 35
1, 250921, Control_c, 0, 64, 36
1, 250951, Control_c, 0, 64, 36
1, 250965, Control_c, 0, 64, 37
1, 250973, Note_on_c, 0, 69, 68
1, 250973, Note_off_c, 0, 70, 63
1, 250980, Control_c, 0, 64, 38
1, 251025, Control_c, 0, 64, 39
1, 251039, Control_c, 0, 64, 42
1, 251054, Control_c, 0, 64, 43
1, 251056, Note_on_c, 0, 70, 76
1, 251069, Control_c, 0, 64, 43
1, 251077, Note_off_c, 0, 69, 54
1, 251128, Control_c, 0, 64, 44
1, 251142, Note_on_c, 0, 79, 75
1, 251143, Control_c, 0, 64, 45
1, 251145, Note_off_c, 0, 70, 62
1, 251202, Control_c, 0, 64, 46
1, 251218, Control_c, 0, 64, 47
1, 251223, Note_on_c, 0, 75, 73
1, 251277, Control_c, 0, 64, 46
1, 251292, Control_c, 0, 64, 46
1, 251312, Note_off_c, 0, 75, 60
1, 251312, Note_off_c, 0, 79, 38
1, 251322, Note_on_c, 0, 74, 77
1, 251329, Note_on_c, 0, 58, 51
1, 251333, Note_on_c, 0, 65, 50
1, 251336, Control_c, 0, 64, 45
1, 251351, Control_c, 0, 64, 44
1, 251366, Control_c, 0, 64, 43
1, 251389, Note_off_c, 0, 67, 51
1, 251406, Note_off_c, 0, 74, 63
1, 251408, Note_on_c, 0, 75, 78
1, 251411, Control_c, 0, 64, 42
1, 251414, Note_off_c, 0, 63, 59
1, 251426, Control_c, 0, 64, 38
1, 251441, Control_c, 0, 64, 36
1, 251477, Note_off_c, 0, 75, 64
1, 251485, Control_c, 0, 64, 35
1, 251496, Note_on_c, 0, 77, 78
1, 251500, Control_c, 0, 64, 24
1, 251515, Control_c, 0, 64, 0
1, 251590, Note_on_c, 0, 79, 80
1, 251608, Note_off_c, 0, 77, 58
1, 251655, Control_c, 0, 64, 34
1, 251670, Control_c, 0, 64, 49
1, 251674, Note_on_c, 0, 80, 80
1, 251685, Control_c, 0, 64, 60
1, 251691, Note_off_c, 0, 79, 61
1, 251700, Control_c, 0, 64, 65
1, 251715, Control_c, 0, 64, 69
1, 251730, Control_c, 0, 64, 72
1, 251745, Control_c, 0, 64, 76
1, 251760, Control_c, 0, 64, 78
1, 251760, Note_off_c, 0, 80, 62
1, 251763, Note_on_c, 0, 81, 84
1, 251775, Control_c, 0, 64, 78
1, 251791, Note_off_c, 0, 58, 62
1, 251804, Note_off_c, 0, 65, 64
1, 251850, Note_on_c, 0, 84, 81
1, 251863, Control_c, 0, 64, 78
1, 251864, Note_off_c, 0, 81, 63
1, 251878, Control_c, 0, 64, 77
1, 251893, Control_c, 0, 64, 76
1, 251908, Control_c, 0, 64, 76
1, 251932, Note_on_c, 0, 82, 85
1, 251967, Control_c, 0, 64, 75
1, 251974, Note_off_c, 0, 84, 61
1, 251981, Control_c, 0, 64, 75
1, 251996, Control_c, 0, 64, 74
1, 252012, Control_c, 0, 64, 73
1, 252019, Note_on_c, 0, 81, 80
1, 252027, Control_c, 0, 64, 72
1, 252028, Note_on_c, 0, 79, 82
1, 252031, Note_on_c, 0, 75, 58
1, 252032, Note_off_c, 0, 82, 62
1, 252042, Control_c, 0, 64, 70
1, 252057, Control_c, 0, 64, 70
1, 252072, Control_c, 0, 64, 69
1, 252086, Control_c, 0, 64, 68
1, 252101, Control_c, 0, 64, 66
1, 252116, Control_c, 0, 64, 64
1, 252126, Note_on_c, 0, 82, 82
1, 252128, Note_off_c, 0, 81, 62
1, 252131, Control_c, 0, 64, 62
1, 252160, Control_c, 0, 64, 62
1, 252175, Control_c, 0, 64, 60
1, 252190, Control_c, 0, 64, 54
1, 252204, Control_c, 0, 64, 45
1, 252207, Note_on_c, 0, 84, 77
1, 252217, Note_off_c, 0, 82, 64
1, 252219, Control_c, 0, 64, 44
1, 252234, Control_c, 0, 64, 47
1, 252249, Control_c, 0, 64, 48
1, 252298, Note_on_c, 0, 82, 83
1, 252324, Note_off_c, 0, 84, 59
1, 252331, Control_c, 0, 64, 49
1, 252346, Control_c, 0, 64, 50
1, 252360, Control_c, 0, 64, 50
1, 252375, Control_c, 0, 64, 52
1, 252378, Note_off_c, 0, 82, 64
1, 252379, Note_on_c, 0, 81, 77
1, 252390, Control_c, 0, 64, 54
1, 252405, Control_c, 0, 64, 57
1, 252419, Control_c, 0, 64, 58
1, 252419, Control_c, 0, 67, 127
1, 252434, Control_c, 0, 64, 59
1, 252449, Control_c, 0, 64, 60
1, 252459, Note_on_c, 0, 82, 82
1, 252464, Control_c, 0, 64, 63
1, 252469, Note_off_c, 0, 81, 59
1, 252479, Control_c, 0, 64, 64
1, 252508, Control_c, 0, 64, 63
1, 252508, Control_c, 0, 67, 126
1, 252538, Control_c, 0, 64, 64
1, 252544, Note_on_c, 0, 91, 80
1, 252553, Control_c, 0, 64, 65
1, 252554, Note_off_c, 0, 82, 63
1, 252568, Control_c, 0, 64, 65
1, 252568, Control_c, 0, 67, 126
1, 252612, Control_c, 0, 64, 66
1, 252626, Note_on_c, 0, 87, 79
1, 252642, Control_c, 0, 64, 65
1, 252657, Control_c, 0, 64, 63
1, 252672, Control_c, 0, 64, 60
1, 252686, Control_c, 0, 64, 54
1, 252686, Control_c, 0, 67, 125
1, 252701, Control_c, 0, 64, 52
1, 252711, Note_off_c, 0, 91, 54
1, 252716, Control_c, 0, 64, 56
1, 252716, Control_c, 0, 67, 125
1, 252717, Note_off_c, 0, 79, 50
1, 252718, Note_off_c, 0, 87, 63
1, 252723, Note_on_c, 0, 86, 79
1, 252730, Note_on_c, 0, 70, 58
1, 252730, Note_on_c, 0, 77, 57
1, 252730, Control_c, 0, 64, 62
1, 252745, Control_c, 0, 64, 65
1, 252760, Control_c, 0, 64, 68
1, 252766, Note_off_c, 0, 75, 56
1, 252775, Control_c, 0, 64, 71
1, 252790, Control_c, 0, 64, 75
1, 252806, Control_c, 0, 64, 81
1, 252806, Note_off_c, 0, 77, 62
1, 252810, Note_off_c, 0, 86, 63
1, 252812, Note_on_c, 0, 87, 88
1, 252821, Control_c, 0, 64, 86
1, 252833, Note_off_c, 0, 70, 63
1, 252835, Control_c, 0, 64, 88
1, 252835, Control_c, 0, 67, 124
1, 252850, Control_c, 0, 64, 89
1, 252850, Control_c, 0, 67, 123
1, 252865, Control_c, 0, 64, 90
1, 252865, Control_c, 0, 67, 123
1, 252875, Note_off_c, 0, 87, 66
1, 252880, Control_c, 0, 64, 91
1, 252880, Control_c, 0, 67, 120
1, 252894, Note_on_c, 0, 89, 89
1, 252895, Control_c, 0, 67, 118
1, 252909, Control_c, 0, 67, 115
1, 252924, Control_c, 0, 67, 113
1, 252939, Control_c, 0, 67, 112
1, 252954, Control_c, 0, 67, 110
1, 252969, Control_c, 0, 67, 108
1, 252983, Control_c, 0, 64, 88
1, 252983, Control_c, 0, 67, 104
1, 252985, Note_on_c, 0, 91, 88
1, 252998, Control_c, 0, 64, 84
1, 252998, Control_c, 0, 67, 101
1, 253001, Note_off_c, 0, 89, 58
1, 253013, Control_c, 0, 64, 79
1, 253013, Control_c, 0, 67, 98
1, 253035, Control_c, 0, 64, 73
1, 253035, Control_c, 0, 67, 96
1, 253050, Control_c, 0, 64, 68
1, 253050, Control_c, 0, 67, 93
1, 253062, Note_on_c, 0, 74, 51
1, 253065, Control_c, 0, 64, 65
1, 253065, Control_c, 0, 67, 90
1, 253068, Note_on_c, 0, 77, 40
1, 253071, Note_on_c, 0, 92, 88
1, 253072, Note_on_c, 0, 70, 41
1, 253080, Control_c, 0, 67, 87
1, 253081, Note_on_c, 0, 68, 42
1, 253090, Note_off_c, 0, 91, 64
1, 253095, Control_c, 0, 64, 67
1, 253095, Control_c, 0, 67, 82
1, 253109, Control_c, 0, 64, 71
1, 253109, Control_c, 0, 67, 77
1, 253124, Control_c, 0, 64, 75
1, 253124, Control_c, 0, 67, 69
1, 253134, Note_off_c, 0, 77, 58
1, 253139, Control_c, 0, 64, 82
1, 253139, Control_c, 0, 67, 62
1, 253144, Note_off_c, 0, 74, 62
1, 253154, Control_c, 0, 64, 87
1, 253154, Control_c, 0, 67, 54
1, 253158, Note_on_c, 0, 93, 93
1, 253161, Note_off_c, 0, 92, 66
1, 253168, Control_c, 0, 64, 90
1, 253168, Control_c, 0, 67, 49
1, 253178, Note_off_c, 0, 70, 62
1, 253183, Control_c, 0, 64, 92
1, 253183, Control_c, 0, 67, 44
1, 253187, Note_off_c, 0, 68, 61
1, 253198, Control_c, 0, 64, 93
1, 253198, Control_c, 0, 67, 41
1, 253213, Control_c, 0, 67, 36
1, 253228, Control_c, 0, 67, 32
1, 253242, Control_c, 0, 67, 28
1, 253247, Note_on_c, 0, 96, 89
1, 253257, Control_c, 0, 67, 24
1, 253272, Control_c, 0, 67, 22
1, 253274, Note_off_c, 0, 93, 62
1, 253287, Control_c, 0, 67, 20
1, 253302, Control_c, 0, 67, 19
1, 253316, Control_c, 0, 67, 19
1, 253335, Note_on_c, 0, 94, 89
1, 253346, Control_c, 0, 64, 93
1, 253360, Control_c, 0, 64, 92
1, 253375, Control_c, 0, 64, 92
1, 253378, Note_off_c, 0, 96, 64
1, 253390, Control_c, 0, 64, 89
1, 253405, Control_c, 0, 64, 84
1, 253405, Control_c, 0, 67, 20
1, 253420, Control_c, 0, 64, 78
1, 253420, Control_c, 0, 67, 21
1, 253427, Note_on_c, 0, 93, 87
1, 253429, Note_on_c, 0, 67, 50
1, 253435, Note_off_c, 0, 94, 64
1, 253435, Control_c, 0, 64, 73
1, 253435, Control_c, 0, 67, 21
1, 253439, Note_on_c, 0, 70, 46
1, 253450, Control_c, 0, 64, 68
1, 253450, Control_c, 0, 67, 22
1, 253465, Control_c, 0, 64, 63
1, 253480, Control_c, 0, 64, 57
1, 253480, Control_c, 0, 67, 22
1, 253495, Control_c, 0, 64, 54
1, 253495, Control_c, 0, 67, 23
1, 253509, Control_c, 0, 67, 23
1, 253521, Note_on_c, 0, 94, 88
1, 253524, Control_c, 0, 64, 59
1, 253539, Control_c, 0, 64, 63
1, 253539, Control_c, 0, 67, 24
1, 253542, Note_off_c, 0, 93, 62
1, 253554, Control_c, 0, 64, 65
1, 253554, Control_c, 0, 67, 24
1, 253568, Control_c, 0, 64, 66
1, 253583, Control_c, 0, 64, 69
1, 253583, Control_c, 0, 67, 25
1, 253598, Control_c, 0, 64, 74
1, 253598, Control_c, 0, 67, 25
1, 253600, Note_on_c, 0, 92, 88
1, 253614, Control_c, 0, 64, 79
1, 253614, Control_c, 0, 67, 26
1, 253626, Note_off_c, 0, 67, 49
1, 253629, Control_c, 0, 64, 83
1, 253644, Control_c, 0, 64, 88
1, 253657, Note_off_c, 0, 94, 59
1, 253658, Control_c, 0, 64, 91
1, 253658, Control_c, 0, 67, 26
1, 253673, Control_c, 0, 64, 92
1, 253683, Note_on_c, 0, 91, 91
1, 253688, Control_c, 0, 67, 27
1, 253703, Control_c, 0, 67, 27
1, 253712, Note_off_c, 0, 92, 59
1, 253718, Control_c, 0, 64, 91
1, 253718, Control_c, 0, 67, 28
1, 253732, Control_c, 0, 67, 28
1, 253758, Note_off_c, 0, 91, 64
1, 253762, Control_c, 0, 67, 29
1, 253766, Note_on_c, 0, 89, 83
1, 253784, Control_c, 0, 64, 89
1, 253784, Control_c, 0, 67, 29
1, 253788, Note_on_c, 0, 67, 53
1, 253799, Control_c, 0, 64, 84
1, 253799, Control_c, 0, 67, 30
1, 253803, Note_on_c, 0, 63, 51
1, 253814, Control_c, 0, 64, 78
1, 253814, Control_c, 0, 67, 32
1, 253828, Control_c, 0, 64, 72
1, 253828, Control_c, 0, 67, 34
1, 253843, Control_c, 0, 64, 67
1, 253843, Control_c, 0, 67, 36
1, 253858, Control_c, 0, 64, 65
1, 253858, Control_c, 0, 67, 38
1, 253863, Note_off_c, 0, 70, 55
1, 253869, Note_on_c, 0, 87, 83
1, 253873, Control_c, 0, 67, 40
1, 253879, Note_off_c, 0, 89, 61
1, 253888, Control_c, 0, 64, 67
1, 253888, Control_c, 0, 67, 43
1, 253903, Control_c, 0, 64, 71
1, 253903, Control_c, 0, 67, 45
1, 253918, Control_c, 0, 64, 74
1, 253918, Control_c, 0, 67, 49
1, 253930, Control_c, 0, 64, 77
1, 253930, Control_c, 0, 67, 52
1, 253945, Control_c, 0, 64, 80
1, 253945, Control_c, 0, 67, 55
1, 253953, Note_on_c, 0, 86, 82
1, 253960, Control_c, 0, 64, 84
1, 253960, Control_c, 0, 67, 57
1, 253975, Control_c, 0, 64, 87
1, 253975, Control_c, 0, 67, 58
1, 253989, Control_c, 0, 64, 88
1, 253989, Control_c, 0, 67, 59
1, 254001, Note_off_c, 0, 87, 59
1, 254004, Control_c, 0, 67, 61
1, 254013, Note_off_c, 0, 86, 64
1, 254019, Control_c, 0, 67, 64
1, 254034, Control_c, 0, 67, 68
1, 254035, Note_on_c, 0, 84, 73
1, 254049, Control_c, 0, 67, 69
1, 254064, Control_c, 0, 67, 70
1, 254079, Control_c, 0, 67, 70
1, 254091, Note_off_c, 0, 63, 37
1, 254094, Control_c, 0, 64, 86
1, 254094, Control_c, 0, 67, 71
1, 254109, Control_c, 0, 64, 83
1, 254109, Control_c, 0, 67, 73
1, 254116, Note_off_c, 0, 84, 59
1, 254124, Control_c, 0, 64, 79
1, 254124, Control_c, 0, 67, 75
1, 254130, Note_on_c, 0, 58, 34
1, 254133, Note_on_c, 0, 82, 76
1, 254133, Note_on_c, 0, 68, 40
1, 254138, Control_c, 0, 64, 73
1, 254138, Control_c, 0, 67, 77
1, 254145, Note_on_c, 0, 65, 46
1, 254153, Control_c, 0, 64, 66
1, 254153, Control_c, 0, 67, 78
1, 254168, Control_c, 0, 64, 59
1, 254168, Control_c, 0, 67, 80
1, 254182, Control_c, 0, 64, 54
1, 254182, Control_c, 0, 67, 82
1, 254184, Note_off_c, 0, 67, 52
1, 254197, Control_c, 0, 64, 58
1, 254197, Control_c, 0, 67, 84
1, 254212, Control_c, 0, 64, 63
1, 254212, Control_c, 0, 67, 85
1, 254223, Note_on_c, 0, 80, 71
1, 254227, Control_c, 0, 64, 65
1, 254227, Control_c, 0, 67, 87
1, 254242, Control_c, 0, 64, 68
1, 254242, Control_c, 0, 67, 89
1, 254256, Control_c, 0, 64, 70
1, 254256, Control_c, 0, 67, 91
1, 254261, Note_off_c, 0, 82, 55
1, 254271, Control_c, 0, 64, 75
1, 254271, Control_c, 0, 67, 93
1, 254286, Control_c, 0, 64, 79
1, 254286, Control_c, 0, 67, 94
1, 254301, Control_c, 0, 64, 82
1, 254301, Control_c, 0, 67, 96
1, 254306, Note_on_c, 0, 79, 76
1, 254310, Note_off_c, 0, 80, 63
1, 254316, Control_c, 0, 64, 83
1, 254316, Control_c, 0, 67, 99
1, 254330, Control_c, 0, 64, 84
1, 254330, Control_c, 0, 67, 102
1, 254339, Note_off_c, 0, 65, 55
1, 254345, Control_c, 0, 67, 103
1, 254351, Note_off_c, 0, 68, 41
1, 254353, Note_off_c, 0, 58, 32
1, 254360, Control_c, 0, 67, 104
1, 254374, Note_off_c, 0, 79, 60
1, 254374, Control_c, 0, 67, 104
1, 254389, Control_c, 0, 67, 105
1, 254392, Note_on_c, 0, 77, 65
1, 254405, Control_c, 0, 64, 83
1, 254405, Control_c, 0, 67, 105
1, 254420, Control_c, 0, 67, 106
1, 254435, Control_c, 0, 64, 82
1, 254435, Control_c, 0, 67, 106
1, 254450, Control_c, 0, 64, 80
1, 254465, Control_c, 0, 64, 77
1, 254465, Control_c, 0, 67, 107
1, 254466, Note_off_c, 0, 77, 59
1, 254479, Control_c, 0, 64, 73
1, 254479, Control_c, 0, 67, 107
1, 254491, Note_on_c, 0, 75, 65
1, 254494, Control_c, 0, 64, 69
1, 254494, Control_c, 0, 67, 108
1, 254509, Control_c, 0, 64, 65
1, 254509, Control_c, 0, 67, 109
1, 254518, Note_on_c, 0, 68, 39
1, 254520, Note_on_c, 0, 65, 41
1, 254532, Control_c, 0, 64, 62
1, 254532, Control_c, 0, 67, 110
1, 254532, Note_on_c, 0, 58, 33
1, 254547, Control_c, 0, 64, 59
1, 254547, Control_c, 0, 67, 111
1, 254561, Control_c, 0, 64, 54
1, 254561, Control_c, 0, 67, 113
1, 254576, Control_c, 0, 64, 51
1, 254576, Control_c, 0, 67, 114
1, 254580, Note_off_c, 0, 75, 59
1, 254582, Note_off_c, 0, 68, 56
1, 254589, Note_on_c, 0, 74, 70
1, 254591, Control_c, 0, 64, 51
1, 254591, Control_c, 0, 67, 116
1, 254605, Control_c, 0, 64, 58
1, 254605, Control_c, 0, 67, 119
1, 254620, Control_c, 0, 64, 63
1, 254620, Control_c, 0, 67, 121
1, 254635, Control_c, 0, 64, 65
1, 254635, Control_c, 0, 67, 123
1, 254650, Control_c, 0, 64, 66
1, 254650, Control_c, 0, 67, 125
1, 254660, Note_off_c, 0, 65, 62
1, 254665, Control_c, 0, 64, 68
1, 254665, Control_c, 0, 67, 127
1, 254678, Note_off_c, 0, 58, 55
1, 254680, Note_off_c, 0, 74, 58
1, 254680, Control_c, 0, 64, 71
1, 254680, Control_c, 0, 67, 127
1, 254690, Note_on_c, 0, 77, 61
1, 254695, Control_c, 0, 64, 74
1, 254710, Control_c, 0, 64, 76
1, 254725, Control_c, 0, 64, 78
1, 254740, Control_c, 0, 64, 79
1, 254754, Control_c, 0, 64, 80
1, 254787, Note_on_c, 0, 80, 61
1, 254812, Note_off_c, 0, 77, 59
1, 254813, Control_c, 0, 64, 79
1, 254828, Control_c, 0, 64, 78
1, 254843, Control_c, 0, 64, 76
1, 254858, Control_c, 0, 64, 74
1, 254869, Note_off_c, 0, 80, 58
1, 254873, Control_c, 0, 64, 71
1, 254887, Control_c, 0, 64, 67
1, 254902, Control_c, 0, 64, 63
1, 254917, Control_c, 0, 64, 61
1, 254931, Control_c, 0, 64, 60
1, 254976, Control_c, 0, 64, 59
1, 254991, Control_c, 0, 64, 58
1, 254997, Note_on_c, 0, 79, 60
1, 255003, Note_on_c, 0, 75, 55
1, 255006, Control_c, 0, 64, 59
1, 255021, Control_c, 0, 64, 60
1, 255080, Control_c, 0, 64, 62
1, 255090, Note_on_c, 0, 58, 52
1, 255095, Control_c, 0, 64, 63
1, 255110, Control_c, 0, 64, 63
1, 255143, Note_off_c, 0, 58, 56
1, 255154, Control_c, 0, 64, 64
1, 255169, Control_c, 0, 64, 65
1, 255179, Note_on_c, 0, 60, 51
1, 255229, Control_c, 0, 64, 66
1, 255244, Control_c, 0, 64, 67
1, 255259, Control_c, 0, 64, 67
1, 255262, Note_on_c, 0, 58, 57
1, 255289, Note_off_c, 0, 60, 59
1, 255350, Note_off_c, 0, 58, 62
1, 255355, Control_c, 0, 64, 67
1, 255370, Control_c, 0, 64, 66
1, 255378, Note_on_c, 0, 57, 51
1, 255399, Control_c, 0, 64, 66
1, 255399, Control_c, 0, 67, 127
1, 255426, Note_off_c, 0, 57, 61
1, 255429, Control_c, 0, 64, 65
1, 255444, Control_c, 0, 64, 65
1, 255459, Control_c, 0, 64, 64
1, 255462, Note_on_c, 0, 58, 59
1, 255525, Note_off_c, 0, 58, 59
1, 255548, Control_c, 0, 67, 126
1, 255556, Note_on_c, 0, 55, 59
1, 255622, Control_c, 0, 67, 126
1, 255646, Note_off_c, 0, 55, 54
1, 255651, Note_on_c, 0, 51, 48
1, 255651, Control_c, 0, 64, 65
1, 255725, Control_c, 0, 64, 65
1, 255727, Note_on_c, 0, 77, 68
1, 255735, Note_off_c, 0, 51, 57
1, 255740, Control_c, 0, 64, 65
1, 255740, Control_c, 0, 67, 126
1, 255743, Note_on_c, 0, 56, 57
1, 255749, Note_on_c, 0, 70, 35
1, 255754, Control_c, 0, 64, 64
1, 255754, Control_c, 0, 67, 127
1, 255775, Note_off_c, 0, 75, 40
1, 255775, Note_off_c, 0, 79, 60
1, 255788, Note_off_c, 0, 56, 63
1, 255829, Note_on_c, 0, 53, 60
1, 255829, Control_c, 0, 64, 64
1, 255873, Control_c, 0, 64, 63
1, 255888, Control_c, 0, 64, 63
1, 255900, Note_off_c, 0, 53, 60
1, 255903, Control_c, 0, 64, 62
1, 255914, Note_on_c, 0, 50, 60
1, 255918, Control_c, 0, 64, 62
1, 255977, Control_c, 0, 64, 61
1, 255990, Note_off_c, 0, 50, 61
1, 255998, Note_on_c, 0, 46, 64
1, 256045, Control_c, 0, 64, 62
1, 256074, Control_c, 0, 64, 62
1, 256089, Control_c, 0, 64, 63
1, 256103, Note_on_c, 0, 44, 64
1, 256104, Control_c, 0, 64, 64
1, 256115, Note_off_c, 0, 46, 35
1, 256119, Control_c, 0, 64, 65
1, 256142, Note_off_c, 0, 44, 65
1, 256190, Note_on_c, 0, 41, 60
1, 256256, Note_off_c, 0, 41, 59
1, 256277, Note_on_c, 0, 38, 53
1, 256315, Note_off_c, 0, 70, 62
1, 256341, Note_off_c, 0, 38, 60
1, 256359, Note_on_c, 0, 34, 64
1, 256371, Control_c, 0, 64, 66
1, 256415, Control_c, 0, 64, 65
1, 256445, Control_c, 0, 64, 64
1, 256459, Control_c, 0, 64, 63
1, 256472, Note_off_c, 0, 34, 57
1, 256474, Control_c, 0, 64, 62
1, 256477, Note_on_c, 0, 39, 57
1, 256478, Note_on_c, 0, 75, 72
1, 256489, Control_c, 0, 64, 62
1, 256504, Control_c, 0, 64, 61
1, 256505, Note_on_c, 0, 67, 40
1, 256519, Control_c, 0, 64, 59
1, 256533, Control_c, 0, 64, 57
1, 256548, Control_c, 0, 64, 57
1, 256548, Control_c, 0, 67, 127
1, 256563, Control_c, 0, 64, 61
1, 256565, Note_off_c, 0, 39, 59
1, 256569, Note_on_c, 0, 41, 61
1, 256577, Control_c, 0, 64, 64
1, 256592, Control_c, 0, 64, 66
1, 256599, Note_off_c, 0, 77, 47
1, 256607, Control_c, 0, 64, 68
1, 256622, Control_c, 0, 64, 71
1, 256637, Control_c, 0, 64, 75
1, 256641, Note_off_c, 0, 41, 62
1, 256651, Note_off_c, 0, 75, 63
1, 256651, Control_c, 0, 64, 78
1, 256656, Note_on_c, 0, 43, 61
1, 256666, Control_c, 0, 64, 79
1, 256681, Control_c, 0, 64, 80
1, 256726, Control_c, 0, 67, 127
1, 256735, Note_off_c, 0, 43, 58
1, 256747, Note_on_c, 0, 44, 61
1, 256756, Control_c, 0, 67, 126
1, 256808, Control_c, 0, 64, 79
1, 256808, Control_c, 0, 67, 126
1, 256823, Control_c, 0, 64, 78
1, 256823, Control_c, 0, 67, 125
1, 256833, Note_off_c, 0, 44, 60
1, 256838, Control_c, 0, 64, 77
1, 256851, Note_on_c, 0, 46, 57
1, 256853, Control_c, 0, 64, 75
1, 256868, Control_c, 0, 64, 73
1, 256868, Control_c, 0, 67, 125
1, 256882, Control_c, 0, 64, 70
1, 256883, Note_on_c, 0, 72, 68
1, 256897, Note_on_c, 0, 68, 70
1, 256897, Control_c, 0, 64, 66
1, 256897, Control_c, 0, 67, 124
1, 256912, Control_c, 0, 64, 63
1, 256912, Control_c, 0, 67, 124
1, 256923, Note_off_c, 0, 67, 58
1, 256926, Control_c, 0, 64, 62
1, 256926, Control_c, 0, 67, 123
1, 256941, Control_c, 0, 67, 123
1, 256955, Note_off_c, 0, 46, 62
1, 256955, Control_c, 0, 64, 63
1, 256955, Control_c, 0, 67, 122
1, 256966, Note_on_c, 0, 48, 59
1, 256970, Control_c, 0, 64, 64
1, 256985, Control_c, 0, 64, 66
1, 257000, Control_c, 0, 64, 67
1, 257015, Control_c, 0, 64, 68
1, 257021, Note_off_c, 0, 48, 62
1, 257030, Control_c, 0, 64, 70
1, 257045, Control_c, 0, 64, 72
1, 257055, Note_on_c, 0, 50, 57
1, 257057, Note_on_c, 0, 70, 71
1, 257060, Control_c, 0, 64, 73
1, 257064, Note_on_c, 0, 67, 58
1, 257104, Control_c, 0, 64, 74
1, 257108, Note_off_c, 0, 68, 56
1, 257122, Note_off_c, 0, 50, 58
1, 257132, Note_on_c, 0, 51, 60
1, 257134, Control_c, 0, 64, 73
1, 257140, Note_off_c, 0, 72, 60
1, 257143, Note_off_c, 0, 70, 58
1, 257144, Note_off_c, 0, 67, 53
1, 257149, Control_c, 0, 64, 73
1, 257163, Control_c, 0, 64, 72
1, 257163, Control_c, 0, 67, 123
1, 257178, Control_c, 0, 64, 72
1, 257178, Control_c, 0, 67, 123
1, 257200, Note_off_c, 0, 51, 59
1, 257207, Control_c, 0, 64, 71
1, 257222, Control_c, 0, 64, 68
1, 257233, Note_on_c, 0, 46, 54
1, 257237, Control_c, 0, 64, 66
1, 257244, Note_on_c, 0, 70, 73
1, 257245, Note_on_c, 0, 53, 52
1, 257252, Control_c, 0, 64, 65
1, 257252, Control_c, 0, 67, 124
1, 257267, Control_c, 0, 64, 63
1, 257267, Control_c, 0, 67, 125
1, 257269, Note_on_c, 0, 67, 53
1, 257281, Control_c, 0, 64, 60
1, 257295, Note_off_c, 0, 53, 66
1, 257296, Control_c, 0, 64, 45
1, 257311, Control_c, 0, 64, 0
1, 257311, Control_c, 0, 67, 125
1, 257316, Note_off_c, 0, 46, 51
1, 257325, Control_c, 0, 67, 126
1, 257338, Note_on_c, 0, 55, 61
1, 257340, Control_c, 0, 64, 32
1, 257340, Control_c, 0, 67, 126
1, 257355, Control_c, 0, 64, 54
1, 257370, Control_c, 0, 64, 61
1, 257385, Control_c, 0, 64, 63
1, 257400, Control_c, 0, 64, 64
1, 257411, Note_off_c, 0, 55, 61
1, 257414, Control_c, 0, 64, 66
1, 257424, Note_on_c, 0, 65, 65
1, 257425, Note_on_c, 0, 56, 65
1, 257429, Control_c, 0, 64, 70
1, 257432, Note_off_c, 0, 67, 60
1, 257435, Note_on_c, 0, 68, 59
1, 257444, Control_c, 0, 64, 74
1, 257445, Note_off_c, 0, 70, 59
1, 257459, Control_c, 0, 64, 75
1, 257469, Note_off_c, 0, 68, 64
1, 257489, Control_c, 0, 67, 126
1, 257495, Note_off_c, 0, 56, 63
1, 257507, Note_on_c, 0, 57, 70
1, 257525, Control_c, 0, 64, 74
1, 257525, Control_c, 0, 67, 125
1, 257540, Control_c, 0, 64, 74
1, 257555, Control_c, 0, 64, 73
1, 257555, Control_c, 0, 67, 125
1, 257570, Control_c, 0, 64, 72
1, 257580, Note_off_c, 0, 65, 43
1, 257585, Control_c, 0, 64, 71
1, 257599, Note_on_c, 0, 67, 64
1, 257601, Control_c, 0, 64, 68
1, 257616, Control_c, 0, 64, 66
1, 257620, Note_on_c, 0, 58, 70
1, 257620, Note_on_c, 0, 63, 45
1, 257623, Note_off_c, 0, 57, 55
1, 257630, Control_c, 0, 64, 62
1, 257645, Control_c, 0, 64, 44
1, 257651, Note_off_c, 0, 63, 60
1, 257660, Control_c, 0, 64, 0
1, 257748, Control_c, 0, 64, 46
1, 257763, Control_c, 0, 64, 61
1, 257778, Control_c, 0, 64, 65
1, 257787, Note_off_c, 0, 67, 48
1, 257793, Control_c, 0, 64, 69
1, 257808, Control_c, 0, 64, 73
1, 257809, Note_on_c, 0, 65, 57
1, 257814, Note_on_c, 0, 56, 73
1, 257823, Control_c, 0, 64, 77
1, 257838, Control_c, 0, 64, 81
1, 257851, Note_off_c, 0, 56, 62
1, 257853, Control_c, 0, 64, 83
1, 257863, Note_off_c, 0, 65, 60
1, 257868, Control_c, 0, 64, 85
1, 257882, Control_c, 0, 64, 86
1, 257903, Note_off_c, 0, 58, 34
1, 257912, Control_c, 0, 64, 87
1, 258001, Control_c, 0, 64, 86
1, 258016, Control_c, 0, 64, 85
1, 258030, Control_c, 0, 64, 84
1, 258030, Control_c, 0, 67, 124
1, 258045, Control_c, 0, 64, 82
1, 258047, Note_on_c, 0, 55, 75
1, 258060, Control_c, 0, 64, 80
1, 258064, Note_on_c, 0, 51, 61
1, 258065, Note_on_c, 0, 63, 32
1, 258075, Control_c, 0, 64, 79
1, 258090, Control_c, 0, 64, 78
1, 258104, Control_c, 0, 64, 76
1, 258104, Control_c, 0, 67, 124
1, 258119, Control_c, 0, 64, 73
1, 258134, Control_c, 0, 64, 71
1, 258148, Control_c, 0, 64, 68
1, 258148, Control_c, 0, 67, 123
1, 258163, Control_c, 0, 64, 65
1, 258178, Control_c, 0, 64, 63
1, 258181, Note_on_c, 0, 58, 51
1, 258193, Control_c, 0, 64, 62
1, 258193, Control_c, 0, 67, 123
1, 258208, Control_c, 0, 64, 62
1, 258222, Control_c, 0, 64, 60
1, 258222, Control_c, 0, 67, 122
1, 258237, Control_c, 0, 64, 56
1, 258252, Control_c, 0, 64, 45
1, 258252, Control_c, 0, 67, 122
1, 258253, Note_off_c, 0, 58, 61
1, 258267, Control_c, 0, 64, 14
1, 258284, Note_on_c, 0, 60, 47
1, 258289, Control_c, 0, 64, 0
1, 258291, Note_off_c, 0, 63, 44
1, 258334, Control_c, 0, 67, 121
1, 258359, Note_on_c, 0, 58, 60
1, 258363, Control_c, 0, 67, 121
1, 258378, Control_c, 0, 67, 120
1, 258391, Note_off_c, 0, 60, 57
1, 258428, Note_off_c, 0, 58, 61
1, 258440, Control_c, 0, 67, 120
1, 258448, Note_on_c, 0, 57, 57
1, 258455, Control_c, 0, 67, 119
1, 258538, Note_on_c, 0, 58, 64
1, 258557, Note_off_c, 0, 57, 53
1, 258621, Note_off_c, 0, 58, 61
1, 258636, Note_on_c, 0, 67, 59
1, 258706, Control_c, 0, 67, 120
1, 258721, Note_on_c, 0, 63, 59
1, 258791, Note_off_c, 0, 63, 56
1, 258807, Note_off_c, 0, 67, 34
1, 258821, Note_on_c, 0, 46, 56
1, 258821, Note_on_c, 0, 62, 57
1, 258834, Note_on_c, 0, 53, 52
1, 258869, Control_c, 0, 67, 121
1, 258884, Note_off_c, 0, 55, 56
1, 258900, Note_off_c, 0, 62, 60
1, 258905, Note_on_c, 0, 63, 59
1, 258914, Note_off_c, 0, 51, 59
1, 258985, Note_off_c, 0, 63, 62
1, 259002, Control_c, 0, 67, 120
1, 259009, Note_on_c, 0, 65, 58
1, 259111, Note_on_c, 0, 67, 59
1, 259118, Note_off_c, 0, 65, 47
1, 259187, Control_c, 0, 67, 120
1, 259195, Note_off_c, 0, 67, 58
1, 259197, Note_on_c, 0, 68, 67
1, 259218, Control_c, 0, 64, 31
1, 259218, Control_c, 0, 67, 119
1, 259233, Control_c, 0, 64, 48
1, 259248, Control_c, 0, 64, 59
1, 259260, Note_off_c, 0, 68, 60
1, 259263, Control_c, 0, 64, 64
1, 259277, Control_c, 0, 64, 67
1, 259277, Control_c, 0, 67, 119
1, 259284, Note_on_c, 0, 69, 66
1, 259292, Control_c, 0, 64, 70
1, 259307, Control_c, 0, 64, 74
1, 259322, Control_c, 0, 64, 76
1, 259337, Control_c, 0, 64, 78
1, 259345, Note_off_c, 0, 46, 62
1, 259351, Control_c, 0, 64, 79
1, 259352, Note_off_c, 0, 53, 66
1, 259372, Note_off_c, 0, 69, 42
1, 259374, Note_on_c, 0, 72, 63
1, 259425, Control_c, 0, 64, 78
1, 259440, Control_c, 0, 64, 78
1, 259455, Control_c, 0, 64, 76
1, 259461, Note_on_c, 0, 70, 61
1, 259466, Note_off_c, 0, 72, 53
1, 259469, Control_c, 0, 64, 75
1, 259484, Control_c, 0, 64, 74
1, 259499, Control_c, 0, 64, 73
1, 259514, Control_c, 0, 64, 72
1, 259528, Control_c, 0, 64, 70
1, 259534, Note_off_c, 0, 70, 60
1, 259543, Control_c, 0, 64, 67
1, 259547, Note_on_c, 0, 69, 66
1, 259558, Note_on_c, 0, 63, 62
1, 259558, Control_c, 0, 64, 65
1, 259564, Note_on_c, 0, 67, 60
1, 259602, Control_c, 0, 64, 65
1, 259617, Control_c, 0, 64, 64
1, 259632, Control_c, 0, 64, 60
1, 259644, Note_on_c, 0, 70, 70
1, 259647, Control_c, 0, 64, 55
1, 259653, Note_off_c, 0, 69, 53
1, 259662, Control_c, 0, 64, 55
1, 259677, Control_c, 0, 64, 54
1, 259692, Control_c, 0, 64, 53
1, 259707, Control_c, 0, 64, 48
1, 259721, Control_c, 0, 64, 35
1, 259731, Note_off_c, 0, 70, 63
1, 259734, Note_on_c, 0, 72, 70
1, 259736, Control_c, 0, 64, 0
1, 259828, Note_on_c, 0, 70, 74
1, 259856, Note_off_c, 0, 72, 57
1, 259910, Note_off_c, 0, 70, 61
1, 259916, Note_on_c, 0, 69, 69
1, 260005, Note_on_c, 0, 70, 75
1, 260014, Note_off_c, 0, 69, 55
1, 260091, Note_on_c, 0, 79, 71
1, 260091, Note_off_c, 0, 70, 62
1, 260100, Control_c, 0, 64, 11
1, 260159, Control_c, 0, 64, 14
1, 260174, Note_on_c, 0, 75, 67
1, 260174, Control_c, 0, 64, 21
1, 260189, Control_c, 0, 64, 24
1, 260204, Control_c, 0, 64, 26
1, 260233, Control_c, 0, 64, 27
1, 260248, Control_c, 0, 64, 29
1, 260255, Note_off_c, 0, 75, 59
1, 260273, Note_on_c, 0, 74, 69
1, 260273, Note_off_c, 0, 79, 36
1, 260284, Note_on_c, 0, 65, 49
1, 260285, Note_on_c, 0, 58, 40
1, 260307, Control_c, 0, 64, 31
1, 260322, Control_c, 0, 64, 33
1, 260325, Note_off_c, 0, 67, 56
1, 260346, Note_off_c, 0, 74, 62
1, 260357, Note_on_c, 0, 75, 77
1, 260366, Note_off_c, 0, 63, 58
1, 260396, Control_c, 0, 64, 34
1, 260419, Note_off_c, 0, 75, 63
1, 260425, Control_c, 0, 64, 33
1, 260440, Control_c, 0, 64, 28
1, 260445, Note_on_c, 0, 77, 71
1, 260455, Control_c, 0, 64, 24
1, 260470, Control_c, 0, 64, 21
1, 260485, Control_c, 0, 64, 0
1, 260535, Note_on_c, 0, 79, 78
1, 260545, Note_off_c, 0, 77, 58
1, 260625, Note_on_c, 0, 80, 76
1, 260633, Note_off_c, 0, 79, 57
1, 260640, Control_c, 0, 64, 49
1, 260655, Control_c, 0, 64, 60
1, 260669, Control_c, 0, 64, 64
1, 260684, Control_c, 0, 64, 65
1, 260698, Note_off_c, 0, 80, 60
1, 260699, Control_c, 0, 64, 67
1, 260709, Note_on_c, 0, 81, 81
1, 260714, Control_c, 0, 64, 69
1, 260729, Control_c, 0, 64, 71
1, 260743, Note_off_c, 0, 58, 62
1, 260743, Control_c, 0, 64, 75
1, 260752, Note_off_c, 0, 65, 63
1, 260758, Control_c, 0, 64, 77
1, 260773, Control_c, 0, 64, 80
1, 260788, Control_c, 0, 64, 80
1, 260800, Note_on_c, 0, 84, 78
1, 260802, Note_off_c, 0, 81, 56
1, 260804, Control_c, 0, 67, 119
1, 260819, Control_c, 0, 64, 80
1, 260848, Control_c, 0, 64, 79
1, 260878, Control_c, 0, 64, 78
1, 260887, Note_on_c, 0, 82, 79
1, 260893, Control_c, 0, 64, 77
1, 260908, Control_c, 0, 64, 76
1, 260930, Note_off_c, 0, 84, 60
1, 260952, Control_c, 0, 64, 76
1, 260967, Control_c, 0, 64, 75
1, 260971, Note_on_c, 0, 81, 78
1, 260979, Note_off_c, 0, 82, 63
1, 260981, Control_c, 0, 64, 73
1, 260990, Note_on_c, 0, 75, 57
1, 260992, Note_on_c, 0, 79, 80
1, 260996, Control_c, 0, 64, 72
1, 261011, Control_c, 0, 64, 70
1, 261026, Control_c, 0, 64, 69
1, 261040, Control_c, 0, 64, 68
1, 261055, Control_c, 0, 64, 67
1, 261070, Control_c, 0, 64, 66
1, 261076, Note_on_c, 0, 82, 80
1, 261084, Note_off_c, 0, 81, 60
1, 261085, Control_c, 0, 64, 65
1, 261100, Control_c, 0, 64, 64
1, 261114, Control_c, 0, 64, 62
1, 261129, Control_c, 0, 64, 58
1, 261144, Control_c, 0, 64, 56
1, 261161, Note_on_c, 0, 84, 76
1, 261163, Note_off_c, 0, 82, 63
1, 261188, Control_c, 0, 64, 55
1, 261203, Control_c, 0, 64, 46
1, 261218, Control_c, 0, 64, 34
1, 261233, Control_c, 0, 64, 33
1, 261244, Note_on_c, 0, 82, 83
1, 261269, Note_off_c, 0, 84, 57
1, 261270, Control_c, 0, 64, 34
1, 261270, Control_c, 0, 67, 120
1, 261285, Control_c, 0, 64, 36
1, 261299, Control_c, 0, 64, 39
1, 261314, Control_c, 0, 64, 44
1, 261329, Control_c, 0, 64, 47
1, 261337, Note_on_c, 0, 81, 72
1, 261337, Note_off_c, 0, 82, 64
1, 261344, Control_c, 0, 64, 50
1, 261359, Control_c, 0, 64, 53
1, 261373, Control_c, 0, 64, 59
1, 261388, Control_c, 0, 64, 63
1, 261403, Control_c, 0, 64, 65
1, 261403, Control_c, 0, 67, 120
1, 261419, Control_c, 0, 64, 67
1, 261421, Note_on_c, 0, 82, 80
1, 261428, Note_off_c, 0, 81, 58
1, 261434, Control_c, 0, 64, 69
1, 261448, Control_c, 0, 64, 71
1, 261463, Control_c, 0, 64, 73
1, 261478, Control_c, 0, 64, 76
1, 261492, Control_c, 0, 64, 77
1, 261508, Note_on_c, 0, 91, 76
1, 261511, Note_off_c, 0, 82, 64
1, 261588, Note_on_c, 0, 87, 72
1, 261627, Control_c, 0, 64, 76
1, 261627, Control_c, 0, 67, 121
1, 261642, Control_c, 0, 64, 75
1, 261657, Control_c, 0, 64, 73
1, 261667, Note_off_c, 0, 79, 52
1, 261669, Note_off_c, 0, 87, 62
1, 261671, Control_c, 0, 64, 68
1, 261680, Note_off_c, 0, 91, 37
1, 261683, Note_on_c, 0, 86, 76
1, 261686, Control_c, 0, 64, 64
1, 261689, Note_on_c, 0, 77, 57
1, 261692, Note_off_c, 0, 75, 53
1, 261694, Note_on_c, 0, 70, 54
1, 261701, Control_c, 0, 64, 63
1, 261716, Control_c, 0, 64, 63
1, 261731, Control_c, 0, 64, 65
1, 261746, Control_c, 0, 64, 67
1, 261758, Note_off_c, 0, 86, 63
1, 261761, Control_c, 0, 64, 70
1, 261767, Note_on_c, 0, 87, 83
1, 261776, Control_c, 0, 64, 75
1, 261790, Control_c, 0, 64, 80
1, 261803, Note_off_c, 0, 77, 63
1, 261805, Control_c, 0, 64, 84
1, 261820, Control_c, 0, 64, 87
1, 261821, Note_off_c, 0, 70, 63
1, 261835, Control_c, 0, 64, 89
1, 261838, Note_off_c, 0, 87, 65
1, 261853, Note_on_c, 0, 89, 83
1, 261939, Note_on_c, 0, 91, 84
1, 261950, Note_off_c, 0, 89, 58
1, 261983, Control_c, 0, 64, 86
1, 261997, Control_c, 0, 64, 81
1, 262020, Control_c, 0, 64, 74
1, 262035, Control_c, 0, 64, 67
1, 262035, Control_c, 0, 67, 121
1, 262035, Note_on_c, 0, 92, 84
1, 262044, Note_off_c, 0, 91, 61
1, 262050, Control_c, 0, 64, 64
1, 262057, Note_on_c, 0, 74, 57
1, 262062, Note_on_c, 0, 77, 42
1, 262065, Control_c, 0, 64, 64
1, 262065, Control_c, 0, 67, 122
1, 262066, Note_on_c, 0, 70, 50
1, 262077, Note_on_c, 0, 68, 44
1, 262079, Control_c, 0, 64, 66
1, 262094, Control_c, 0, 64, 70
1, 262094, Control_c, 0, 67, 122
1, 262109, Note_off_c, 0, 77, 49
1, 262109, Control_c, 0, 64, 76
1, 262110, Note_off_c, 0, 92, 64
1, 262115, Note_off_c, 0, 74, 61
1, 262119, Note_on_c, 0, 93, 87
1, 262123, Control_c, 0, 64, 83
1, 262138, Control_c, 0, 64, 89
1, 262138, Control_c, 0, 67, 123
1, 262145, Note_off_c, 0, 70, 62
1, 262153, Control_c, 0, 64, 95
1, 262158, Note_off_c, 0, 68, 61
1, 262168, Control_c, 0, 64, 98
1, 262183, Control_c, 0, 64, 99
1, 262197, Control_c, 0, 64, 99
1, 262203, Note_on_c, 0, 96, 83
1, 262208, Note_off_c, 0, 93, 62
1, 262288, Note_on_c, 0, 94, 87
1, 262303, Note_off_c, 0, 96, 64
1, 262315, Control_c, 0, 64, 95
1, 262330, Control_c, 0, 64, 87
1, 262345, Control_c, 0, 64, 77
1, 262354, Note_off_c, 0, 94, 64
1, 262360, Control_c, 0, 64, 72
1, 262375, Control_c, 0, 64, 71
1, 262391, Control_c, 0, 64, 74
1, 262399, Note_on_c, 0, 94, 77
1, 262406, Control_c, 0, 64, 78
1, 262412, Note_on_c, 0, 67, 55
1, 262413, Note_on_c, 0, 70, 56
1, 262420, Control_c, 0, 64, 84
1, 262428, Note_off_c, 0, 94, 64
1, 262435, Control_c, 0, 64, 89
1, 262450, Control_c, 0, 64, 91
1, 262465, Control_c, 0, 67, 122
1, 262477, Note_off_c, 0, 67, 55
1, 262479, Note_off_c, 0, 70, 60
1, 262494, Control_c, 0, 67, 122
1, 262557, Note_on_c, 0, 70, 65
1, 262568, Control_c, 0, 64, 90
1, 262583, Control_c, 0, 64, 88
1, 262598, Control_c, 0, 64, 87
1, 262613, Control_c, 0, 64, 87
1, 262628, Control_c, 0, 64, 86
1, 262643, Control_c, 0, 64, 85
1, 262657, Note_on_c, 0, 72, 73
1, 262658, Control_c, 0, 64, 83
1, 262658, Note_off_c, 0, 70, 62
1, 262673, Control_c, 0, 64, 81
1, 262676, Note_on_c, 0, 67, 63
1, 262687, Control_c, 0, 64, 79
1, 262688, Note_on_c, 0, 63, 52
1, 262702, Control_c, 0, 64, 78
1, 262717, Control_c, 0, 64, 77
1, 262732, Control_c, 0, 64, 77
1, 262746, Control_c, 0, 64, 76
1, 262750, Note_on_c, 0, 70, 80
1, 262768, Control_c, 0, 64, 76
1, 262783, Control_c, 0, 64, 75
1, 262798, Control_c, 0, 64, 73
1, 262801, Note_off_c, 0, 72, 58
1, 262813, Control_c, 0, 64, 71
1, 262828, Control_c, 0, 64, 70
1, 262837, Note_on_c, 0, 69, 79
1, 262843, Note_off_c, 0, 70, 64
1, 262843, Control_c, 0, 64, 69
1, 262848, Note_off_c, 0, 67, 58
1, 262858, Control_c, 0, 64, 68
1, 262868, Note_off_c, 0, 63, 60
1, 262873, Control_c, 0, 64, 67
1, 262887, Control_c, 0, 64, 67
1, 262887, Control_c, 0, 67, 121
1, 262917, Control_c, 0, 67, 121
1, 262925, Note_on_c, 0, 70, 81
1, 262946, Control_c, 0, 67, 120
1, 262957, Note_off_c, 0, 69, 61
1, 262961, Control_c, 0, 67, 120
1, 262976, Control_c, 0, 67, 119
1, 263006, Control_c, 0, 64, 67
1, 263011, Note_on_c, 0, 79, 81
1, 263015, Note_on_c, 0, 67, 58
1, 263020, Control_c, 0, 64, 67
1, 263021, Note_on_c, 0, 63, 48
1, 263022, Note_off_c, 0, 70, 63
1, 263035, Control_c, 0, 67, 119
1, 263065, Control_c, 0, 64, 67
1, 263099, Note_on_c, 0, 75, 74
1, 263109, Control_c, 0, 64, 67
1, 263124, Control_c, 0, 64, 66
1, 263138, Control_c, 0, 64, 65
1, 263153, Control_c, 0, 64, 63
1, 263168, Control_c, 0, 64, 54
1, 263177, Note_off_c, 0, 79, 36
1, 263180, Note_off_c, 0, 63, 44
1, 263183, Control_c, 0, 64, 0
1, 263187, Note_off_c, 0, 75, 61
1, 263191, Note_on_c, 0, 58, 51
1, 263194, Note_on_c, 0, 74, 82
1, 263207, Note_on_c, 0, 68, 52
1, 263209, Note_on_c, 0, 65, 57
1, 263227, Note_off_c, 0, 67, 55
1, 263229, Control_c, 0, 64, 29
1, 263243, Control_c, 0, 64, 50
1, 263258, Control_c, 0, 64, 60
1, 263273, Control_c, 0, 64, 65
1, 263276, Note_off_c, 0, 74, 62
1, 263283, Note_on_c, 0, 75, 83
1, 263288, Control_c, 0, 64, 69
1, 263303, Control_c, 0, 64, 74
1, 263317, Control_c, 0, 64, 78
1, 263317, Control_c, 0, 67, 119
1, 263332, Control_c, 0, 64, 80
1, 263345, Note_off_c, 0, 75, 64
1, 263347, Control_c, 0, 64, 80
1, 263347, Control_c, 0, 67, 120
1, 263361, Control_c, 0, 67, 120
1, 263363, Note_on_c, 0, 77, 83
1, 263403, Note_off_c, 0, 68, 38
1, 263421, Note_off_c, 0, 58, 38
1, 263436, Note_off_c, 0, 65, 38
1, 263456, Note_on_c, 0, 79, 82
1, 263472, Note_off_c, 0, 77, 60
1, 263495, Control_c, 0, 64, 80
1, 263517, Control_c, 0, 64, 77
1, 263517, Control_c, 0, 67, 121
1, 263532, Control_c, 0, 64, 71
1, 263532, Control_c, 0, 67, 121
1, 263547, Control_c, 0, 64, 64
1, 263550, Note_on_c, 0, 80, 85
1, 263555, Note_on_c, 0, 65, 57
1, 263561, Note_on_c, 0, 58, 53
1, 263562, Control_c, 0, 64, 56
1, 263567, Note_off_c, 0, 79, 62
1, 263576, Note_on_c, 0, 68, 22
1, 263576, Control_c, 0, 64, 55
1, 263591, Control_c, 0, 64, 60
1, 263591, Control_c, 0, 67, 122
1, 263606, Control_c, 0, 64, 64
1, 263606, Control_c, 0, 67, 122
1, 263608, Note_off_c, 0, 68, 48
1, 263621, Control_c, 0, 64, 68
1, 263629, Note_off_c, 0, 65, 62
1, 263636, Control_c, 0, 64, 72
1, 263637, Note_on_c, 0, 81, 84
1, 263639, Note_off_c, 0, 80, 63
1, 263651, Control_c, 0, 64, 78
1, 263651, Control_c, 0, 67, 123
1, 263654, Note_off_c, 0, 58, 63
1, 263665, Control_c, 0, 64, 83
1, 263665, Control_c, 0, 67, 123
1, 263680, Control_c, 0, 64, 86
1, 263680, Control_c, 0, 67, 124
1, 263695, Control_c, 0, 64, 86
1, 263722, Note_on_c, 0, 84, 80
1, 263727, Note_off_c, 0, 81, 65
1, 263806, Note_on_c, 0, 82, 86
1, 263815, Note_off_c, 0, 84, 63
1, 263829, Control_c, 0, 64, 84
1, 263843, Control_c, 0, 64, 79
1, 263858, Control_c, 0, 64, 72
1, 263873, Control_c, 0, 64, 64
1, 263876, Note_off_c, 0, 82, 63
1, 263888, Control_c, 0, 64, 56
1, 263902, Control_c, 0, 64, 54
1, 263915, Poly_aftertouch_c, 0, 82, 0
1, 263917, Control_c, 0, 64, 62
1, 263923, Note_on_c, 0, 82, 71
1, 263932, Control_c, 0, 64, 66
1, 263934, Note_on_c, 0, 58, 60
1, 263943, Note_on_c, 0, 55, 54
1, 263947, Control_c, 0, 64, 70
1, 263951, Note_off_c, 0, 82, 66
1, 263961, Control_c, 0, 64, 74
1, 263976, Control_c, 0, 64, 76
1, 263976, Control_c, 0, 67, 123
1, 263992, Control_c, 0, 64, 78
1, 263992, Control_c, 0, 67, 123
1, 263998, Note_off_c, 0, 58, 61
1, 264007, Control_c, 0, 64, 80
1, 264007, Control_c, 0, 67, 122
1, 264022, Control_c, 0, 64, 81
1, 264034, Note_off_c, 0, 55, 60
1, 264078, Note_on_c, 0, 58, 69
1, 264155, Control_c, 0, 64, 80
1, 264170, Control_c, 0, 64, 78
1, 264181, Note_on_c, 0, 60, 71
1, 264184, Note_off_c, 0, 58, 61
1, 264184, Control_c, 0, 64, 77
1, 264199, Control_c, 0, 64, 75
1, 264204, Note_on_c, 0, 55, 62
1, 264218, Note_on_c, 0, 51, 53
1, 264244, Control_c, 0, 64, 75
1, 264244, Control_c, 0, 67, 123
1, 264266, Control_c, 0, 64, 73
1, 264281, Control_c, 0, 64, 72
1, 264285, Note_on_c, 0, 58, 83
1, 264325, Control_c, 0, 64, 72
1, 264340, Control_c, 0, 64, 72
1, 264345, Note_off_c, 0, 60, 54
1, 264355, Control_c, 0, 64, 71
1, 264369, Note_on_c, 0, 57, 78
1, 264387, Note_off_c, 0, 58, 61
1, 264391, Note_off_c, 0, 51, 56
1, 264399, Control_c, 0, 64, 71
1, 264415, Control_c, 0, 64, 70
1, 264430, Control_c, 0, 64, 69
1, 264430, Control_c, 0, 67, 122
1, 264435, Note_off_c, 0, 55, 36
1, 264445, Control_c, 0, 64, 68
1, 264445, Control_c, 0, 67, 122
1, 264460, Control_c, 0, 67, 121
1, 264474, Note_on_c, 0, 58, 80
1, 264474, Control_c, 0, 67, 121
1, 264489, Control_c, 0, 64, 68
1, 264504, Control_c, 0, 64, 67
1, 264505, Note_off_c, 0, 57, 58
1, 264518, Control_c, 0, 64, 66
1, 264533, Control_c, 0, 64, 67
1, 264548, Control_c, 0, 67, 120
1, 264563, Control_c, 0, 67, 120
1, 264572, Note_on_c, 0, 55, 61
1, 264572, Note_on_c, 0, 67, 82
1, 264578, Control_c, 0, 64, 66
1, 264583, Note_on_c, 0, 51, 55
1, 264593, Control_c, 0, 64, 66
1, 264603, Note_off_c, 0, 58, 60
1, 264607, Control_c, 0, 67, 119
1, 264679, Note_on_c, 0, 63, 78
1, 264682, Control_c, 0, 64, 65
1, 264697, Control_c, 0, 64, 65
1, 264711, Control_c, 0, 64, 63
1, 264721, Note_off_c, 0, 67, 59
1, 264726, Control_c, 0, 64, 61
1, 264741, Control_c, 0, 64, 59
1, 264756, Control_c, 0, 64, 57
1, 264771, Control_c, 0, 64, 53
1, 264774, Note_on_c, 0, 46, 43
1, 264779, Note_off_c, 0, 51, 55
1, 264784, Note_on_c, 0, 57, 75
1, 264786, Control_c, 0, 64, 47
1, 264792, Note_on_c, 0, 56, 52
1, 264797, Note_on_c, 0, 53, 60
1, 264801, Control_c, 0, 64, 34
1, 264816, Control_c, 0, 64, 0
1, 264840, Note_off_c, 0, 55, 59
1, 264846, Note_off_c, 0, 63, 56
1, 264900, Note_on_c, 0, 58, 78
1, 264938, Note_off_c, 0, 57, 58
1, 264994, Control_c, 0, 64, 35
1, 265016, Control_c, 0, 64, 50
1, 265028, Note_on_c, 0, 68, 77
1, 265031, Control_c, 0, 64, 60
1, 265046, Control_c, 0, 64, 63
1, 265061, Control_c, 0, 64, 65
1, 265075, Control_c, 0, 64, 66
1, 265079, Note_off_c, 0, 58, 57
1, 265090, Control_c, 0, 64, 68
1, 265105, Control_c, 0, 64, 69
1, 265113, Note_off_c, 0, 56, 44
1, 265120, Control_c, 0, 64, 70
1, 265125, Note_off_c, 0, 46, 34
1, 265135, Control_c, 0, 64, 71
1, 265141, Note_off_c, 0, 53, 54
1, 265149, Note_on_c, 0, 65, 70
1, 265163, Control_c, 0, 67, 120
1, 265178, Control_c, 0, 67, 120
1, 265203, Note_off_c, 0, 68, 58
1, 265252, Control_c, 0, 64, 70
1, 265260, Note_off_c, 0, 65, 56
1, 265267, Control_c, 0, 64, 70
1, 265267, Control_c, 0, 67, 121
1, 265282, Control_c, 0, 64, 69
1, 265283, Note_on_c, 0, 62, 65
1, 265287, Note_on_c, 0, 53, 43
1, 265296, Control_c, 0, 64, 68
1, 265311, Control_c, 0, 64, 68
1, 265313, Note_on_c, 0, 46, 43
1, 265320, Note_on_c, 0, 56, 35
1, 265326, Control_c, 0, 64, 67
1, 265341, Control_c, 0, 64, 66
1, 265356, Control_c, 0, 64, 66
1, 265371, Control_c, 0, 64, 65
1, 265385, Control_c, 0, 64, 65
1, 265400, Control_c, 0, 64, 64
1, 265415, Control_c, 0, 64, 64
1, 265430, Control_c, 0, 64, 63
1, 265439, Note_on_c, 0, 72, 68
1, 265445, Control_c, 0, 64, 62
1, 265458, Note_off_c, 0, 62, 48
1, 265460, Control_c, 0, 64, 61
1, 265475, Control_c, 0, 64, 60
1, 265490, Control_c, 0, 64, 59
1, 265505, Control_c, 0, 64, 58
1, 265520, Control_c, 0, 64, 56
1, 265520, Control_c, 0, 67, 121
1, 265534, Control_c, 0, 64, 53
1, 265549, Control_c, 0, 64, 47
1, 265564, Control_c, 0, 64, 39
1, 265579, Control_c, 0, 64, 38
1, 265594, Control_c, 0, 64, 39
1, 265594, Control_c, 0, 67, 122
1, 265597, Note_on_c, 0, 70, 60
1, 265609, Control_c, 0, 64, 42
1, 265624, Note_off_c, 0, 72, 59
1, 265624, Control_c, 0, 67, 122
1, 265639, Control_c, 0, 64, 41
1, 265639, Control_c, 0, 67, 123
1, 265654, Control_c, 0, 67, 123
1, 265669, Control_c, 0, 64, 42
1, 265669, Control_c, 0, 67, 124
1, 265684, Control_c, 0, 64, 44
1, 265684, Control_c, 0, 67, 125
1, 265686, Note_off_c, 0, 56, 53
1, 265698, Control_c, 0, 67, 126
1, 265713, Control_c, 0, 67, 126
1, 265728, Control_c, 0, 67, 127
1, 265743, Control_c, 0, 64, 45
1, 265743, Control_c, 0, 67, 127
1, 265764, Control_c, 0, 64, 47
1, 265799, Note_off_c, 0, 70, 55
1, 265809, Note_on_c, 0, 62, 42
1, 265853, Control_c, 0, 64, 47
1, 265864, Note_off_c, 0, 53, 47
1, 265873, Note_off_c, 0, 46, 35
1, 265883, Control_c, 0, 64, 48
1, 265928, Control_c, 0, 64, 48
1, 265958, Control_c, 0, 64, 49
1, 265986, Note_off_c, 0, 62, 61
1, 265987, Control_c, 0, 64, 49
1, 266046, Control_c, 0, 64, 50
1, 266061, Control_c, 0, 64, 50
1, 266120, Control_c, 0, 64, 51
1, 266135, Control_c, 0, 64, 51
1, 266194, Control_c, 0, 64, 52
1, 266209, Control_c, 0, 64, 53
1, 266238, Control_c, 0, 64, 53
1, 266253, Control_c, 0, 64, 54
1, 266283, Control_c, 0, 64, 54
1, 266312, Control_c, 0, 64, 55
1, 266364, Note_on_c, 0, 63, 37
1, 266372, Control_c, 0, 64, 55
1, 266402, Control_c, 0, 64, 56
1, 266417, Control_c, 0, 64, 57
1, 266432, Control_c, 0, 64, 57
1, 266528, Control_c, 0, 64, 58
1, 266602, Control_c, 0, 64, 59
1, 266617, Control_c, 0, 64, 59
1, 266676, Control_c, 0, 64, 60
1, 266691, Control_c, 0, 64, 60
1, 266912, Control_c, 0, 64, 61
1, 266986, Control_c, 0, 64, 61
1, 267196, Note_on_c, 0, 58, 33
1, 267306, Control_c, 0, 64, 62
1, 267337, Note_off_c, 0, 63, 54
1, 267514, Control_c, 0, 64, 62
1, 267529, Control_c, 0, 64, 63
1, 267543, Control_c, 0, 64, 64
1, 267558, Control_c, 0, 64, 64
1, 267573, Control_c, 0, 64, 65
1, 267588, Control_c, 0, 64, 67
1, 267603, Control_c, 0, 64, 69
1, 267617, Control_c, 0, 64, 72
1, 267632, Control_c, 0, 64, 75
1, 267647, Control_c, 0, 64, 78
1, 267661, Control_c, 0, 64, 83
1, 267676, Control_c, 0, 64, 87
1, 267691, Control_c, 0, 64, 89
1, 267721, Control_c, 0, 64, 90
1, 267735, Control_c, 0, 64, 93
1, 267750, Control_c, 0, 64, 96
1, 267765, Control_c, 0, 64, 99
1, 267780, Control_c, 0, 64, 99
1, 267973, Control_c, 0, 64, 99
1, 267988, Control_c, 0, 64, 98
1, 268011, Control_c, 0, 64, 97
1, 268026, Control_c, 0, 64, 95
1, 268037, Note_on_c, 0, 55, 40
1, 268040, Control_c, 0, 64, 93
1, 268045, Note_on_c, 0, 51, 33
1, 268055, Control_c, 0, 64, 91
1, 268070, Control_c, 0, 64, 90
1, 268085, Control_c, 0, 64, 89
1, 268100, Control_c, 0, 64, 87
1, 268114, Control_c, 0, 64, 84
1, 268129, Control_c, 0, 64, 82
1, 268144, Control_c, 0, 64, 81
1, 268158, Control_c, 0, 64, 78
1, 268164, Note_off_c, 0, 58, 41
1, 268173, Control_c, 0, 64, 75
1, 268188, Control_c, 0, 64, 72
1, 268203, Control_c, 0, 64, 70
1, 268218, Control_c, 0, 64, 68
1, 268232, Control_c, 0, 64, 67
1, 268247, Control_c, 0, 64, 66
1, 268262, Control_c, 0, 64, 65
1, 268277, Control_c, 0, 64, 64
1, 268292, Control_c, 0, 64, 63
1, 268307, Control_c, 0, 64, 60
1, 268322, Control_c, 0, 64, 54
1, 268337, Control_c, 0, 64, 50
1, 268337, Note_off_c, 0, 55, 43
1, 268351, Control_c, 0, 64, 49
1, 268366, Control_c, 0, 64, 47
1, 268381, Control_c, 0, 64, 42
1, 268396, Control_c, 0, 64, 36
1, 268411, Control_c, 0, 64, 36
1, 268484, Control_c, 0, 64, 36
1, 268499, Control_c, 0, 64, 38
1, 268514, Control_c, 0, 64, 41
1, 268529, Control_c, 0, 64, 43
1, 268558, Control_c, 0, 64, 43
1, 268573, Control_c, 0, 64, 45
1, 268588, Control_c, 0, 64, 47
1, 268603, Control_c, 0, 64, 50
1, 268618, Control_c, 0, 64, 52
1, 268662, Control_c, 0, 64, 53
1, 268676, Control_c, 0, 64, 54
1, 268691, Control_c, 0, 64, 55
1, 268736, Control_c, 0, 64, 55
1, 268758, Control_c, 0, 64, 56
1, 268789, Control_c, 0, 64, 56
1, 268878, Control_c, 0, 64, 57
1, 268884, Note_on_c, 0, 46, 35
1, 268893, Control_c, 0, 64, 57
1, 268922, Control_c, 0, 64, 58
1, 268937, Control_c, 0, 64, 59
1, 268952, Control_c, 0, 64, 59
1, 268967, Control_c, 0, 64, 60
1, 268996, Control_c, 0, 64, 59
1, 269011, Control_c, 0, 64, 60
1, 269014, Note_off_c, 0, 51, 49
1, 269041, Control_c, 0, 64, 60
1, 269100, Control_c, 0, 64, 61
1, 269115, Control_c, 0, 64, 62
1, 269129, Control_c, 0, 64, 63
1, 269159, Control_c, 0, 64, 63
1, 269174, Control_c, 0, 64, 64
1, 269189, Control_c, 0, 64, 66
1, 269204, Control_c, 0, 64, 69
1, 269219, Control_c, 0, 64, 71
1, 269234, Control_c, 0, 64, 73
1, 269249, Control_c, 0, 64, 74
1, 269263, Control_c, 0, 64, 75
1, 269278, Control_c, 0, 64, 78
1, 269293, Control_c, 0, 64, 81
1, 269307, Control_c, 0, 64, 83
1, 269322, Control_c, 0, 64, 84
1, 269337, Control_c, 0, 64, 87
1, 269352, Control_c, 0, 64, 89
1, 269367, Control_c, 0, 64, 91
1, 269381, Control_c, 0, 64, 92
1, 269396, Control_c, 0, 64, 93
1, 269411, Control_c, 0, 64, 94
1, 269440, Control_c, 0, 64, 95
1, 269686, Control_c, 0, 64, 94
1, 269701, Control_c, 0, 64, 93
1, 269716, Control_c, 0, 64, 92
1, 269730, Control_c, 0, 64, 91
1, 269735, Note_on_c, 0, 67, 50
1, 269736, Note_on_c, 0, 63, 40
1, 269745, Control_c, 0, 64, 89
1, 269760, Control_c, 0, 64, 88
1, 269773, Note_on_c, 0, 43, 30
1, 269775, Control_c, 0, 64, 87
1, 269790, Control_c, 0, 64, 86
1, 269804, Control_c, 0, 64, 83
1, 269819, Control_c, 0, 64, 81
1, 269834, Control_c, 0, 64, 78
1, 269849, Control_c, 0, 64, 77
1, 269863, Control_c, 0, 64, 76
1, 269872, Note_off_c, 0, 46, 39
1, 269878, Control_c, 0, 64, 74
1, 269893, Control_c, 0, 64, 72
1, 269908, Control_c, 0, 64, 69
1, 269923, Control_c, 0, 64, 67
1, 269937, Control_c, 0, 64, 66
1, 269952, Control_c, 0, 64, 65
1, 269967, Control_c, 0, 64, 64
1, 269982, Control_c, 0, 64, 63
1, 269997, Control_c, 0, 64, 59
1, 270012, Control_c, 0, 64, 55
1, 270027, Control_c, 0, 64, 51
1, 270042, Control_c, 0, 64, 46
1, 270056, Control_c, 0, 64, 34
1, 270071, Control_c, 0, 64, 33
1, 270077, Note_off_c, 0, 43, 42
1, 270086, Control_c, 0, 64, 36
1, 270101, Control_c, 0, 64, 37
1, 270130, Control_c, 0, 64, 35
1, 270160, Control_c, 0, 64, 38
1, 270175, Control_c, 0, 64, 42
1, 270190, Control_c, 0, 64, 45
1, 270204, Control_c, 0, 64, 50
1, 270219, Control_c, 0, 64, 57
1, 270234, Control_c, 0, 64, 63
1, 270249, Control_c, 0, 64, 65
1, 270271, Control_c, 0, 64, 66
1, 270286, Control_c, 0, 64, 67
1, 270301, Control_c, 0, 64, 68
1, 270316, Control_c, 0, 64, 71
1, 270330, Control_c, 0, 64, 76
1, 270345, Control_c, 0, 64, 83
1, 270360, Control_c, 0, 64, 87
1, 270375, Control_c, 0, 64, 90
1, 270390, Control_c, 0, 64, 91
1, 270405, Control_c, 0, 64, 93
1, 270420, Control_c, 0, 64, 96
1, 270435, Control_c, 0, 64, 99
1, 270450, Control_c, 0, 64, 100
1, 270591, Note_on_c, 0, 65, 44
1, 270602, Note_on_c, 0, 58, 38
1, 270613, Control_c, 0, 64, 99
1, 270627, Control_c, 0, 64, 97
1, 270642, Control_c, 0, 64, 95
1, 270657, Control_c, 0, 64, 92
1, 270672, Control_c, 0, 64, 89
1, 270686, Control_c, 0, 64, 86
1, 270701, Control_c, 0, 64, 84
1, 270704, Note_off_c, 0, 63, 36
1, 270716, Control_c, 0, 64, 81
1, 270731, Control_c, 0, 64, 77
1, 270742, Note_off_c, 0, 67, 47
1, 270746, Control_c, 0, 64, 74
1, 270760, Control_c, 0, 64, 72
1, 270775, Control_c, 0, 64, 69
1, 270790, Control_c, 0, 64, 66
1, 270805, Control_c, 0, 64, 64
1, 270820, Control_c, 0, 64, 64
1, 270849, Control_c, 0, 64, 63
1, 270864, Control_c, 0, 64, 63
1, 270894, Control_c, 0, 64, 64
1, 270909, Control_c, 0, 64, 65
1, 270924, Control_c, 0, 64, 66
1, 270939, Control_c, 0, 64, 69
1, 270953, Control_c, 0, 64, 72
1, 270968, Control_c, 0, 64, 77
1, 270983, Control_c, 0, 64, 82
1, 271005, Control_c, 0, 64, 87
1, 271020, Control_c, 0, 64, 90
1, 271034, Control_c, 0, 64, 93
1, 271049, Control_c, 0, 64, 96
1, 271064, Control_c, 0, 64, 100
1, 271079, Control_c, 0, 64, 104
1, 271094, Control_c, 0, 64, 106
1, 271142, Note_off_c, 0, 58, 45
1, 271153, Control_c, 0, 64, 106
1, 271183, Control_c, 0, 64, 107
1, 271258, Control_c, 0, 64, 106
1, 271332, Control_c, 0, 64, 106
1, 271347, Control_c, 0, 64, 104
1, 271362, Control_c, 0, 64, 103
1, 271376, Control_c, 0, 64, 101
1, 271391, Control_c, 0, 64, 98
1, 271406, Control_c, 0, 64, 95
1, 271408, Note_off_c, 0, 65, 41
1, 271416, Note_on_c, 0, 55, 33
1, 271421, Control_c, 0, 64, 92
1, 271428, Note_on_c, 0, 63, 30
1, 271432, Note_on_c, 0, 51, 39
1, 271436, Control_c, 0, 64, 90
1, 271450, Control_c, 0, 64, 89
1, 271465, Control_c, 0, 64, 85
1, 271480, Control_c, 0, 64, 81
1, 271495, Control_c, 0, 64, 78
1, 271509, Control_c, 0, 64, 75
1, 271524, Control_c, 0, 64, 72
1, 271539, Control_c, 0, 64, 69
1, 271554, Control_c, 0, 64, 66
1, 271569, Control_c, 0, 64, 65
1, 271583, Control_c, 0, 64, 64
1, 271598, Control_c, 0, 64, 63
1, 271613, Control_c, 0, 64, 61
1, 271627, Control_c, 0, 64, 57
1, 271632, Note_off_c, 0, 63, 43
1, 271642, Control_c, 0, 64, 53
1, 271657, Control_c, 0, 64, 50
1, 271672, Control_c, 0, 64, 49
1, 271717, Control_c, 0, 64, 52
1, 271732, Control_c, 0, 64, 56
1, 271754, Control_c, 0, 64, 59
1, 271769, Control_c, 0, 64, 63
1, 271783, Control_c, 0, 64, 66
1, 271798, Control_c, 0, 64, 69
1, 271813, Control_c, 0, 64, 74
1, 271827, Control_c, 0, 64, 79
1, 271842, Control_c, 0, 64, 82
1, 271857, Control_c, 0, 64, 84
1, 271872, Control_c, 0, 64, 87
1, 271887, Control_c, 0, 64, 92
1, 271902, Control_c, 0, 64, 96
1, 271917, Control_c, 0, 64, 99
1, 271920, Note_off_c, 0, 55, 42
1, 271931, Control_c, 0, 64, 102
1, 271946, Control_c, 0, 64, 102
1, 271977, Control_c, 0, 64, 103
1, 271992, Control_c, 0, 64, 103
1, 272006, Control_c, 0, 64, 104
1, 272244, Control_c, 0, 64, 103
1, 272258, Control_c, 0, 64, 102
1, 272273, Control_c, 0, 64, 100
1, 272281, Note_on_c, 0, 46, 38
1, 272287, Note_on_c, 0, 53, 36
1, 272288, Control_c, 0, 64, 100
1, 272303, Control_c, 0, 64, 99
1, 272318, Control_c, 0, 64, 97
1, 272332, Control_c, 0, 64, 95
1, 272347, Control_c, 0, 64, 93
1, 272362, Control_c, 0, 64, 90
1, 272377, Control_c, 0, 64, 87
1, 272392, Control_c, 0, 64, 84
1, 272406, Control_c, 0, 64, 81
1, 272421, Control_c, 0, 64, 78
1, 272432, Note_off_c, 0, 51, 44
1, 272436, Control_c, 0, 64, 76
1, 272450, Control_c, 0, 64, 73
1, 272465, Control_c, 0, 64, 70
1, 272480, Control_c, 0, 64, 68
1, 272503, Control_c, 0, 64, 65
1, 272518, Control_c, 0, 64, 64
1, 272532, Control_c, 0, 64, 61
1, 272547, Control_c, 0, 64, 58
1, 272592, Control_c, 0, 64, 59
1, 272606, Control_c, 0, 64, 61
1, 272621, Control_c, 0, 64, 63
1, 272636, Control_c, 0, 64, 65
1, 272650, Control_c, 0, 64, 66
1, 272665, Control_c, 0, 64, 67
1, 272680, Control_c, 0, 64, 69
1, 272695, Control_c, 0, 64, 74
1, 272710, Control_c, 0, 64, 80
1, 272724, Control_c, 0, 64, 82
1, 272739, Control_c, 0, 64, 83
1, 272754, Control_c, 0, 64, 83
1, 272769, Control_c, 0, 64, 86
1, 272785, Control_c, 0, 64, 89
1, 272800, Control_c, 0, 64, 92
1, 272815, Control_c, 0, 64, 93
1, 272844, Control_c, 0, 64, 94
1, 272859, Control_c, 0, 64, 96
1, 272867, Note_on_c, 0, 67, 50
1, 272873, Control_c, 0, 64, 97
1, 272888, Note_on_c, 0, 63, 44
1, 272978, Control_c, 0, 64, 97
1, 273052, Control_c, 0, 64, 96
1, 273091, Note_off_c, 0, 46, 38
1, 273096, Control_c, 0, 64, 95
1, 273103, Note_on_c, 0, 65, 54
1, 273111, Control_c, 0, 64, 94
1, 273124, Note_on_c, 0, 58, 43
1, 273126, Note_on_c, 0, 43, 29
1, 273126, Control_c, 0, 64, 93
1, 273130, Note_on_c, 0, 51, 32
1, 273141, Control_c, 0, 64, 92
1, 273144, Note_off_c, 0, 53, 40
1, 273155, Control_c, 0, 64, 90
1, 273170, Control_c, 0, 64, 88
1, 273185, Control_c, 0, 64, 84
1, 273200, Control_c, 0, 64, 83
1, 273215, Control_c, 0, 64, 81
1, 273229, Control_c, 0, 64, 79
1, 273252, Control_c, 0, 64, 76
1, 273267, Control_c, 0, 64, 73
1, 273276, Note_off_c, 0, 63, 56
1, 273281, Control_c, 0, 64, 70
1, 273291, Note_off_c, 0, 67, 54
1, 273296, Control_c, 0, 64, 68
1, 273311, Control_c, 0, 64, 66
1, 273326, Control_c, 0, 64, 64
1, 273341, Control_c, 0, 64, 62
1, 273350, Note_off_c, 0, 51, 46
1, 273355, Control_c, 0, 64, 59
1, 273370, Control_c, 0, 64, 54
1, 273378, Note_off_c, 0, 43, 54
1, 273385, Control_c, 0, 64, 49
1, 273400, Control_c, 0, 64, 46
1, 273415, Control_c, 0, 64, 46
1, 273429, Control_c, 0, 64, 50
1, 273444, Control_c, 0, 64, 52
1, 273459, Control_c, 0, 64, 55
1, 273473, Control_c, 0, 64, 60
1, 273488, Control_c, 0, 64, 64
1, 273503, Control_c, 0, 64, 66
1, 273518, Control_c, 0, 64, 69
1, 273533, Control_c, 0, 64, 71
1, 273547, Control_c, 0, 64, 73
1, 273562, Control_c, 0, 64, 77
1, 273578, Control_c, 0, 64, 81
1, 273593, Control_c, 0, 64, 83
1, 273608, Control_c, 0, 64, 84
1, 273623, Control_c, 0, 64, 86
1, 273638, Control_c, 0, 64, 91
1, 273652, Control_c, 0, 64, 96
1, 273658, Note_off_c, 0, 58, 60
1, 273667, Control_c, 0, 64, 99
1, 273669, Note_on_c, 0, 55, 35
1, 273673, Note_on_c, 0, 51, 37
1, 273682, Control_c, 0, 64, 100
1, 273696, Control_c, 0, 64, 101
1, 273711, Control_c, 0, 64, 102
1, 273726, Control_c, 0, 64, 103
1, 273744, Note_off_c, 0, 55, 56
1, 273830, Control_c, 0, 64, 102
1, 273838, Note_off_c, 0, 65, 37
1, 273845, Control_c, 0, 64, 101
1, 273860, Control_c, 0, 64, 100
1, 273875, Control_c, 0, 64, 98
1, 273890, Control_c, 0, 64, 93
1, 273904, Control_c, 0, 64, 87
1, 273916, Note_on_c, 0, 55, 34
1, 273919, Control_c, 0, 64, 83
1, 273920, Note_on_c, 0, 53, 35
1, 273925, Note_on_c, 0, 63, 36
1, 273934, Note_on_c, 0, 46, 34
1, 273934, Control_c, 0, 64, 81
1, 273949, Control_c, 0, 64, 79
1, 273964, Control_c, 0, 64, 75
1, 273978, Control_c, 0, 64, 68
1, 273993, Control_c, 0, 64, 64
1, 274015, Control_c, 0, 64, 64
1, 274018, Note_off_c, 0, 51, 50
1, 274030, Control_c, 0, 64, 63
1, 274045, Control_c, 0, 64, 60
1, 274060, Control_c, 0, 64, 47
1, 274072, Note_off_c, 0, 55, 59
1, 274075, Control_c, 0, 64, 19
1, 274090, Control_c, 0, 64, 32
1, 274104, Control_c, 0, 64, 53
1, 274119, Control_c, 0, 64, 60
1, 274119, Control_c, 0, 67, 126
1, 274134, Control_c, 0, 64, 61
1, 274134, Control_c, 0, 67, 122
1, 274149, Control_c, 0, 64, 63
1, 274149, Control_c, 0, 67, 117
1, 274159, Note_off_c, 0, 63, 61
1, 274164, Control_c, 0, 64, 66
1, 274164, Control_c, 0, 67, 113
1, 274179, Control_c, 0, 64, 74
1, 274179, Control_c, 0, 67, 110
1, 274194, Control_c, 0, 64, 80
1, 274194, Control_c, 0, 67, 106
1, 274209, Control_c, 0, 64, 83
1, 274209, Control_c, 0, 67, 103
1, 274223, Control_c, 0, 64, 83
1, 274223, Control_c, 0, 67, 100
1, 274238, Control_c, 0, 64, 86
1, 274238, Control_c, 0, 67, 97
1, 274253, Control_c, 0, 64, 92
1, 274253, Control_c, 0, 67, 96
1, 274268, Control_c, 0, 64, 97
1, 274268, Control_c, 0, 67, 94
1, 274283, Control_c, 0, 64, 100
1, 274283, Control_c, 0, 67, 92
1, 274297, Control_c, 0, 64, 101
1, 274297, Control_c, 0, 67, 90
1, 274312, Control_c, 0, 64, 102
1, 274312, Control_c, 0, 67, 87
1, 274327, Control_c, 0, 64, 103
1, 274327, Control_c, 0, 67, 85
1, 274342, Control_c, 0, 64, 104
1, 274342, Control_c, 0, 67, 82
1, 274357, Control_c, 0, 67, 80
1, 274373, Control_c, 0, 67, 77
1, 274388, Control_c, 0, 64, 104
1, 274388, Control_c, 0, 67, 75
1, 274402, Control_c, 0, 67, 74
1, 274417, Control_c, 0, 67, 73
1, 274432, Control_c, 0, 67, 72
1, 274447, Control_c, 0, 64, 105
1, 274447, Control_c, 0, 67, 71
1, 274462, Control_c, 0, 67, 70
1, 274468, Note_on_c, 0, 79, 52
1, 274476, Control_c, 0, 67, 69
1, 274486, Note_on_c, 0, 75, 42
1, 274491, Control_c, 0, 67, 69
1, 274506, Control_c, 0, 67, 68
1, 274535, Control_c, 0, 67, 68
1, 274609, Control_c, 0, 64, 104
1, 274624, Control_c, 0, 64, 104
1, 274639, Control_c, 0, 64, 103
1, 274668, Control_c, 0, 64, 102
1, 274683, Control_c, 0, 64, 100
1, 274698, Control_c, 0, 64, 96
1, 274707, Note_off_c, 0, 53, 43
1, 274713, Control_c, 0, 64, 93
1, 274717, Note_on_c, 0, 77, 51
1, 274719, Note_off_c, 0, 46, 37
1, 274720, Note_on_c, 0, 70, 42
1, 274728, Control_c, 0, 64, 93
1, 274761, Note_on_c, 0, 51, 28
1, 274763, Note_on_c, 0, 43, 31
1, 274765, Control_c, 0, 64, 92
1, 274765, Control_c, 0, 67, 68
1, 274780, Control_c, 0, 64, 89
1, 274795, Control_c, 0, 64, 85
1, 274795, Control_c, 0, 67, 69
1, 274800, Note_off_c, 0, 79, 51
1, 274809, Control_c, 0, 64, 78
1, 274821, Note_off_c, 0, 75, 55
1, 274824, Control_c, 0, 64, 73
1, 274824, Control_c, 0, 67, 69
1, 274839, Control_c, 0, 64, 69
1, 274853, Control_c, 0, 64, 66
1, 274853, Control_c, 0, 67, 70
1, 274868, Control_c, 0, 64, 64
1, 274868, Control_c, 0, 67, 70
1, 274883, Control_c, 0, 64, 58
1, 274898, Control_c, 0, 64, 44
1, 274913, Control_c, 0, 64, 30
1, 274927, Control_c, 0, 64, 0
1, 274957, Control_c, 0, 64, 24
1, 274972, Control_c, 0, 64, 55
1, 274987, Control_c, 0, 64, 63
1, 274999, Note_off_c, 0, 43, 57
1, 275002, Control_c, 0, 64, 64
1, 275013, Note_off_c, 0, 51, 58
1, 275017, Control_c, 0, 64, 65
1, 275032, Control_c, 0, 64, 70
1, 275047, Control_c, 0, 64, 77
1, 275061, Control_c, 0, 64, 85
1, 275076, Control_c, 0, 64, 88
1, 275106, Control_c, 0, 64, 88
1, 275106, Control_c, 0, 67, 71
1, 275121, Control_c, 0, 64, 89
1, 275296, Note_off_c, 0, 70, 38
1, 275303, Note_on_c, 0, 63, 40
1, 275304, Note_on_c, 0, 67, 45
1, 275358, Control_c, 0, 67, 71
1, 275373, Control_c, 0, 64, 88
1, 275374, Note_off_c, 0, 67, 54
1, 275388, Control_c, 0, 64, 87
1, 275403, Control_c, 0, 64, 86
1, 275417, Control_c, 0, 64, 85
1, 275447, Control_c, 0, 64, 85
1, 275462, Control_c, 0, 64, 84
1, 275476, Control_c, 0, 64, 81
1, 275499, Control_c, 0, 64, 79
1, 275506, Note_off_c, 0, 77, 36
1, 275514, Control_c, 0, 64, 78
1, 275529, Control_c, 0, 64, 77
1, 275543, Note_on_c, 0, 75, 42
1, 275544, Control_c, 0, 64, 76
1, 275558, Note_on_c, 0, 65, 38
1, 275558, Control_c, 0, 64, 74
1, 275567, Note_on_c, 0, 67, 37
1, 275573, Control_c, 0, 64, 71
1, 275578, Note_on_c, 0, 58, 27
1, 275588, Control_c, 0, 64, 68
1, 275603, Control_c, 0, 64, 66
1, 275618, Control_c, 0, 64, 65
1, 275618, Control_c, 0, 67, 72
1, 275632, Control_c, 0, 64, 64
1, 275639, Note_off_c, 0, 63, 59
1, 275646, Control_c, 0, 64, 64
1, 275661, Control_c, 0, 64, 62
1, 275676, Control_c, 0, 64, 55
1, 275685, Note_off_c, 0, 67, 50
1, 275690, Control_c, 0, 64, 41
1, 275705, Control_c, 0, 64, 27
1, 275720, Control_c, 0, 64, 19
1, 275750, Control_c, 0, 64, 26
1, 275750, Control_c, 0, 67, 72
1, 275756, Note_off_c, 0, 75, 59
1, 275765, Control_c, 0, 64, 37
1, 275780, Control_c, 0, 64, 47
1, 275794, Control_c, 0, 64, 55
1, 275809, Control_c, 0, 64, 62
1, 275824, Control_c, 0, 64, 65
1, 275839, Control_c, 0, 64, 69
1, 275854, Control_c, 0, 64, 74
1, 275869, Control_c, 0, 64, 78
1, 275883, Control_c, 0, 64, 81
1, 275898, Control_c, 0, 64, 84
1, 275898, Control_c, 0, 67, 72
1, 275913, Control_c, 0, 64, 86
1, 275928, Control_c, 0, 64, 89
1, 275928, Control_c, 0, 67, 71
1, 275943, Control_c, 0, 64, 91
1, 275943, Control_c, 0, 67, 71
1, 275957, Control_c, 0, 64, 91
1, 275973, Control_c, 0, 67, 70
1, 276018, Control_c, 0, 64, 91
1, 276062, Control_c, 0, 64, 90
1, 276077, Control_c, 0, 64, 90
1, 276091, Control_c, 0, 64, 89
1, 276121, Control_c, 0, 64, 89
1, 276136, Control_c, 0, 64, 88
1, 276136, Control_c, 0, 67, 71
1, 276151, Control_c, 0, 64, 87
1, 276155, Note_on_c, 0, 91, 57
1, 276165, Control_c, 0, 64, 87
1, 276191, Note_on_c, 0, 87, 22
1, 276210, Control_c, 0, 64, 86
1, 276221, Note_off_c, 0, 91, 0
1, 276221, Note_on_c, 0, 91, 3
1, 276225, Control_c, 0, 64, 84
1, 276247, Control_c, 0, 64, 83
1, 276306, Control_c, 0, 64, 83
1, 276321, Control_c, 0, 64, 82
1, 276376, Note_off_c, 0, 65, 38
1, 276391, Note_off_c, 0, 91, 53
1, 276410, Note_off_c, 0, 87, 45
1, 276412, Note_on_c, 0, 63, 35
1, 276419, Note_off_c, 0, 58, 40
1, 276422, Note_on_c, 0, 55, 37
1, 276454, Control_c, 0, 64, 82
1, 276469, Control_c, 0, 64, 81
1, 276469, Control_c, 0, 67, 71
1, 276498, Control_c, 0, 64, 81
1, 276498, Control_c, 0, 67, 72
1, 276543, Control_c, 0, 64, 80
1, 276558, Control_c, 0, 64, 79
1, 276573, Control_c, 0, 64, 78
1, 276588, Control_c, 0, 67, 72
1, 276603, Control_c, 0, 64, 77
1, 276615, Note_on_c, 0, 91, 59
1, 276617, Control_c, 0, 64, 76
1, 276628, Note_on_c, 0, 87, 48
1, 276632, Control_c, 0, 64, 74
1, 276647, Control_c, 0, 64, 74
1, 276706, Control_c, 0, 64, 73
1, 276707, Note_off_c, 0, 55, 41
1, 276715, Note_off_c, 0, 63, 54
1, 276721, Control_c, 0, 64, 72
1, 276736, Control_c, 0, 64, 71
1, 276751, Control_c, 0, 64, 70
1, 276767, Control_c, 0, 64, 70
1, 276781, Control_c, 0, 64, 69
1, 276796, Control_c, 0, 64, 67
1, 276811, Control_c, 0, 64, 66
1, 276826, Note_on_c, 0, 82, 50
1, 276826, Control_c, 0, 64, 66
1, 276832, Note_on_c, 0, 89, 57
1, 276870, Note_off_c, 0, 87, 45
1, 276885, Control_c, 0, 64, 65
1, 276900, Control_c, 0, 64, 64
1, 276903, Note_off_c, 0, 82, 58
1, 276914, Control_c, 0, 64, 64
1, 276929, Control_c, 0, 64, 63
1, 276960, Note_off_c, 0, 91, 33
1, 276974, Control_c, 0, 64, 63
1, 276996, Control_c, 0, 64, 62
1, 277011, Control_c, 0, 64, 61
1, 277014, Note_on_c, 0, 87, 54
1, 277036, Note_on_c, 0, 79, 51
1, 277070, Note_off_c, 0, 89, 53
1, 277070, Control_c, 0, 64, 61
1, 277085, Note_off_c, 0, 79, 49
1, 277100, Note_off_c, 0, 87, 62
1, 277115, Control_c, 0, 64, 61
1, 277129, Control_c, 0, 64, 62
1, 277145, Control_c, 0, 67, 73
1, 277175, Control_c, 0, 64, 63
1, 277190, Control_c, 0, 64, 65
1, 277204, Control_c, 0, 64, 68
1, 277204, Control_c, 0, 67, 73
1, 277219, Control_c, 0, 64, 70
1, 277229, Note_on_c, 0, 87, 53
1, 277234, Control_c, 0, 64, 71
1, 277234, Control_c, 0, 67, 74
1, 277248, Control_c, 0, 64, 74
1, 277255, Note_on_c, 0, 79, 23
1, 277263, Control_c, 0, 64, 77
1, 277263, Control_c, 0, 67, 74
1, 277278, Control_c, 0, 64, 81
1, 277283, Note_off_c, 0, 87, 59
1, 277293, Control_c, 0, 64, 84
1, 277294, Note_off_c, 0, 79, 47
1, 277308, Control_c, 0, 64, 87
1, 277322, Control_c, 0, 64, 89
1, 277337, Control_c, 0, 64, 90
1, 277352, Control_c, 0, 64, 92
1, 277367, Control_c, 0, 64, 94
1, 277382, Control_c, 0, 64, 97
1, 277390, Note_on_c, 0, 79, 50
1, 277396, Control_c, 0, 64, 100
1, 277411, Control_c, 0, 64, 101
1, 277414, Note_on_c, 0, 75, 40
1, 277453, Note_off_c, 0, 79, 46
1, 277600, Note_on_c, 0, 70, 44
1, 277600, Note_on_c, 0, 77, 40
1, 277605, Control_c, 0, 64, 101
1, 277619, Note_off_c, 0, 75, 44
1, 277619, Control_c, 0, 64, 100
1, 277634, Control_c, 0, 64, 100
1, 277649, Control_c, 0, 64, 99
1, 277664, Control_c, 0, 64, 98
1, 277679, Control_c, 0, 64, 96
1, 277694, Control_c, 0, 64, 94
1, 277708, Control_c, 0, 64, 92
1, 277723, Control_c, 0, 64, 90
1, 277738, Control_c, 0, 64, 89
1, 277760, Control_c, 0, 64, 88
1, 277760, Control_c, 0, 67, 75
1, 277775, Control_c, 0, 64, 87
1, 277780, Note_on_c, 0, 75, 38
1, 277790, Control_c, 0, 64, 84
1, 277795, Note_on_c, 0, 67, 43
1, 277802, Note_off_c, 0, 77, 45
1, 277805, Control_c, 0, 64, 81
1, 277820, Control_c, 0, 64, 80
1, 277829, Note_off_c, 0, 70, 34
1, 277834, Control_c, 0, 64, 79
1, 277849, Control_c, 0, 64, 76
1, 277855, Note_off_c, 0, 67, 52
1, 277864, Control_c, 0, 64, 72
1, 277872, Note_off_c, 0, 75, 45
1, 277878, Control_c, 0, 64, 69
1, 277893, Control_c, 0, 64, 67
1, 277893, Control_c, 0, 67, 75
1, 277908, Control_c, 0, 64, 65
1, 277923, Control_c, 0, 64, 64
1, 277938, Control_c, 0, 64, 63
1, 277953, Control_c, 0, 64, 64
1, 277968, Control_c, 0, 64, 65
1, 277983, Control_c, 0, 64, 66
1, 277992, Note_on_c, 0, 67, 47
1, 277998, Control_c, 0, 64, 69
1, 278001, Note_on_c, 0, 75, 41
1, 278013, Control_c, 0, 64, 72
1, 278027, Control_c, 0, 64, 75
1, 278042, Control_c, 0, 64, 79
1, 278057, Control_c, 0, 64, 82
1, 278071, Control_c, 0, 64, 86
1, 278078, Note_off_c, 0, 67, 38
1, 278083, Note_off_c, 0, 75, 37
1, 278086, Control_c, 0, 64, 88
1, 278101, Control_c, 0, 64, 90
1, 278116, Control_c, 0, 64, 90
1, 278116, Control_c, 0, 67, 75
1, 278194, Note_on_c, 0, 67, 44
1, 278200, Note_on_c, 0, 63, 43
1, 278204, Control_c, 0, 67, 74
1, 278278, Control_c, 0, 64, 90
1, 278308, Control_c, 0, 64, 89
1, 278323, Control_c, 0, 64, 88
1, 278337, Control_c, 0, 64, 86
1, 278352, Control_c, 0, 64, 86
1, 278383, Note_on_c, 0, 58, 46
1, 278385, Note_off_c, 0, 63, 35
1, 278390, Note_on_c, 0, 65, 48
1, 278398, Control_c, 0, 64, 85
1, 278413, Control_c, 0, 64, 83
1, 278428, Control_c, 0, 64, 83
1, 278430, Note_off_c, 0, 58, 55
1, 278472, Control_c, 0, 64, 82
1, 278494, Control_c, 0, 64, 81
1, 278502, Note_off_c, 0, 67, 38
1, 278509, Control_c, 0, 64, 79
1, 278524, Control_c, 0, 64, 78
1, 278539, Control_c, 0, 64, 77
1, 278554, Control_c, 0, 64, 77
1, 278568, Control_c, 0, 64, 76
1, 278583, Control_c, 0, 64, 74
1, 278584, Note_on_c, 0, 63, 54
1, 278586, Note_on_c, 0, 55, 54
1, 278598, Control_c, 0, 64, 73
1, 278613, Control_c, 0, 64, 71
1, 278627, Control_c, 0, 64, 68
1, 278641, Control_c, 0, 64, 66
1, 278656, Control_c, 0, 64, 63
1, 278658, Note_off_c, 0, 65, 42
1, 278663, Note_off_c, 0, 55, 55
1, 278671, Control_c, 0, 64, 59
1, 278675, Note_off_c, 0, 63, 58
1, 278686, Control_c, 0, 64, 53
1, 278700, Control_c, 0, 64, 48
1, 278715, Control_c, 0, 64, 44
1, 278730, Control_c, 0, 64, 40
1, 278745, Control_c, 0, 64, 39
1, 278745, Control_c, 0, 67, 74
1, 278760, Control_c, 0, 64, 43
1, 278774, Control_c, 0, 64, 52
1, 278774, Control_c, 0, 67, 73
1, 278789, Control_c, 0, 64, 58
1, 278794, Note_on_c, 0, 63, 55
1, 278799, Note_on_c, 0, 55, 48
1, 278804, Control_c, 0, 64, 62
1, 278818, Control_c, 0, 64, 64
1, 278833, Control_c, 0, 64, 67
1, 278848, Control_c, 0, 64, 70
1, 278853, Note_off_c, 0, 55, 56
1, 278863, Control_c, 0, 64, 73
1, 278863, Control_c, 0, 67, 73
1, 278878, Control_c, 0, 64, 75
1, 278878, Control_c, 0, 67, 72
1, 278892, Control_c, 0, 64, 77
1, 278900, Note_off_c, 0, 63, 56
1, 278907, Control_c, 0, 64, 80
1, 278922, Control_c, 0, 64, 81
1, 278937, Control_c, 0, 64, 82
1, 278937, Control_c, 0, 67, 72
1, 278952, Control_c, 0, 64, 82
1, 278967, Note_on_c, 0, 55, 52
1, 278989, Note_on_c, 0, 51, 41
1, 279040, Note_off_c, 0, 55, 57
1, 279056, Control_c, 0, 64, 82
1, 279100, Control_c, 0, 64, 81
1, 279115, Control_c, 0, 64, 80
1, 279130, Control_c, 0, 64, 79
1, 279160, Control_c, 0, 64, 79
1, 279173, Note_on_c, 0, 53, 56
1, 279174, Note_on_c, 0, 46, 53
1, 279175, Control_c, 0, 64, 78
1, 279176, Note_off_c, 0, 51, 48
1, 279190, Control_c, 0, 64, 77
1, 279205, Control_c, 0, 64, 76
1, 279220, Control_c, 0, 64, 76
1, 279286, Control_c, 0, 64, 75
1, 279301, Control_c, 0, 64, 73
1, 279315, Control_c, 0, 64, 72
1, 279342, Note_off_c, 0, 53, 64
1, 279363, Note_off_c, 0, 46, 53
1, 279365, Note_on_c, 0, 51, 51
1, 279375, Control_c, 0, 64, 71
1, 279375, Control_c, 0, 67, 72
1, 279383, Note_on_c, 0, 43, 48
1, 279390, Control_c, 0, 64, 71
1, 279405, Control_c, 0, 64, 70
1, 279420, Control_c, 0, 64, 70
1, 279434, Control_c, 0, 64, 69
1, 279434, Control_c, 0, 67, 73
1, 279437, Note_off_c, 0, 43, 61
1, 279444, Note_off_c, 0, 51, 63
1, 279449, Control_c, 0, 64, 68
1, 279464, Control_c, 0, 64, 66
1, 279479, Control_c, 0, 64, 64
1, 279494, Control_c, 0, 64, 62
1, 279509, Control_c, 0, 64, 61
1, 279523, Control_c, 0, 64, 59
1, 279538, Control_c, 0, 64, 58
1, 279553, Control_c, 0, 64, 56
1, 279557, Note_on_c, 0, 58, 65
1, 279568, Control_c, 0, 64, 51
1, 279579, Note_on_c, 0, 53, 52
1, 279583, Control_c, 0, 64, 44
1, 279597, Control_c, 0, 64, 42
1, 279627, Control_c, 0, 64, 41
1, 279641, Control_c, 0, 64, 38
1, 279656, Control_c, 0, 64, 32
1, 279671, Control_c, 0, 64, 30
1, 279686, Control_c, 0, 67, 72
1, 279730, Control_c, 0, 67, 72
1, 279760, Note_on_c, 0, 50, 56
1, 279766, Note_on_c, 0, 46, 54
1, 279775, Control_c, 0, 64, 28
1, 279775, Control_c, 0, 67, 71
1, 279789, Control_c, 0, 64, 24
1, 279789, Control_c, 0, 67, 70
1, 279804, Control_c, 0, 64, 23
1, 279804, Control_c, 0, 67, 69
1, 279830, Note_off_c, 0, 50, 64
1, 279849, Control_c, 0, 64, 19
1, 279849, Control_c, 0, 67, 69
1, 279874, Note_off_c, 0, 46, 57
1, 279879, Control_c, 0, 64, 21
1, 279879, Control_c, 0, 67, 68
1, 279893, Note_off_c, 0, 53, 65
1, 279893, Control_c, 0, 64, 30
1, 279893, Control_c, 0, 67, 67
1, 279908, Control_c, 0, 64, 31
1, 279908, Control_c, 0, 67, 65
1, 279923, Control_c, 0, 64, 32
1, 279923, Control_c, 0, 67, 62
1, 279938, Control_c, 0, 64, 35
1, 279938, Control_c, 0, 67, 58
1, 279953, Control_c, 0, 64, 38
1, 279953, Control_c, 0, 67, 55
1, 279962, Note_on_c, 0, 39, 63
1, 279968, Control_c, 0, 64, 43
1, 279968, Control_c, 0, 67, 53
1, 279991, Control_c, 0, 64, 45
1, 279991, Control_c, 0, 67, 50
1, 280006, Control_c, 0, 67, 46
1, 280020, Control_c, 0, 67, 39
1, 280035, Control_c, 0, 67, 29
1, 280037, Note_off_c, 0, 39, 59
1, 280050, Control_c, 0, 64, 47
1, 280050, Control_c, 0, 67, 20
1, 280064, Control_c, 0, 64, 48
1, 280064, Control_c, 0, 67, 9
1, 280079, Control_c, 0, 67, 0
1, 280139, Control_c, 0, 64, 49
1, 280154, Note_on_c, 0, 55, 73
1, 280177, Note_on_c, 0, 51, 50
1, 280195, Note_off_c, 0, 58, 57
1, 280213, Control_c, 0, 64, 49
1, 280228, Control_c, 0, 64, 50
1, 280243, Control_c, 0, 64, 51
1, 280258, Control_c, 0, 64, 53
1, 280265, Note_off_c, 0, 55, 59
1, 280269, Note_off_c, 0, 51, 59
1, 280272, Control_c, 0, 64, 54
1, 280287, Control_c, 0, 64, 54
1, 280332, Control_c, 0, 64, 55
1, 280359, Note_on_c, 0, 58, 75
1, 280383, Note_on_c, 0, 53, 57
1, 280552, Note_on_c, 0, 50, 61
1, 280566, Note_on_c, 0, 46, 59
1, 280628, Control_c, 0, 64, 54
1, 280641, Note_off_c, 0, 50, 63
1, 280683, Note_off_c, 0, 46, 55
1, 280701, Note_off_c, 0, 53, 63
1, 280732, Control_c, 0, 64, 55
1, 280753, Note_on_c, 0, 39, 68
1, 280754, Control_c, 0, 64, 58
1, 280770, Control_c, 0, 64, 62
1, 280785, Control_c, 0, 64, 64
1, 280800, Control_c, 0, 64, 67
1, 280815, Control_c, 0, 64, 70
1, 280829, Control_c, 0, 64, 73
1, 280844, Control_c, 0, 64, 76
1, 280851, Note_off_c, 0, 39, 62
1, 280859, Control_c, 0, 64, 79
1, 280874, Control_c, 0, 64, 80
1, 280948, Control_c, 0, 64, 79
1, 280955, Note_on_c, 0, 55, 81
1, 280962, Control_c, 0, 64, 79
1, 280967, Note_on_c, 0, 51, 61
1, 280977, Control_c, 0, 64, 78
1, 280992, Control_c, 0, 64, 78
1, 280996, Note_off_c, 0, 58, 38
1, 281036, Control_c, 0, 64, 77
1, 281041, Note_off_c, 0, 51, 54
1, 281051, Control_c, 0, 64, 76
1, 281059, Note_off_c, 0, 55, 60
1, 281066, Control_c, 0, 64, 76
1, 281110, Control_c, 0, 64, 75
1, 281125, Control_c, 0, 64, 74
1, 281140, Control_c, 0, 64, 71
1, 281155, Control_c, 0, 64, 69
1, 281156, Note_on_c, 0, 58, 82
1, 281169, Control_c, 0, 64, 68
1, 281173, Note_on_c, 0, 53, 70
1, 281214, Control_c, 0, 64, 67
1, 281229, Control_c, 0, 64, 65
1, 281244, Control_c, 0, 64, 62
1, 281259, Control_c, 0, 64, 61
1, 281318, Control_c, 0, 64, 59
1, 281333, Control_c, 0, 64, 55
1, 281348, Control_c, 0, 64, 54
1, 281355, Note_on_c, 0, 50, 70
1, 281365, Note_on_c, 0, 46, 63
1, 281406, Control_c, 0, 64, 53
1, 281421, Control_c, 0, 64, 52
1, 281458, Note_off_c, 0, 50, 64
1, 281469, Note_off_c, 0, 46, 59
1, 281481, Control_c, 0, 64, 51
1, 281492, Note_off_c, 0, 53, 61
1, 281503, Control_c, 0, 64, 49
1, 281548, Control_c, 0, 64, 47
1, 281563, Control_c, 0, 64, 43
1, 281578, Control_c, 0, 64, 35
1, 281579, Note_on_c, 0, 39, 73
1, 281593, Control_c, 0, 64, 30
1, 281607, Control_c, 0, 64, 29
1, 281622, Control_c, 0, 64, 28
1, 281636, Control_c, 0, 64, 24
1, 281651, Control_c, 0, 64, 23
1, 281666, Control_c, 0, 64, 24
1, 281681, Control_c, 0, 64, 40
1, 281696, Note_off_c, 0, 39, 61
1, 281696, Control_c, 0, 64, 56
1, 281710, Control_c, 0, 64, 63
1, 281725, Control_c, 0, 64, 65
1, 281740, Control_c, 0, 64, 69
1, 281755, Control_c, 0, 64, 72
1, 281770, Control_c, 0, 64, 76
1, 281784, Control_c, 0, 64, 80
1, 281786, Note_on_c, 0, 55, 83
1, 281794, Note_on_c, 0, 51, 74
1, 281799, Control_c, 0, 64, 85
1, 281814, Control_c, 0, 64, 89
1, 281828, Note_off_c, 0, 58, 31
1, 281829, Control_c, 0, 64, 91
1, 281858, Control_c, 0, 64, 91
1, 281859, Note_off_c, 0, 55, 63
1, 281888, Control_c, 0, 64, 92
1, 281892, Note_off_c, 0, 51, 63
1, 281962, Control_c, 0, 64, 91
1, 281977, Control_c, 0, 64, 90
1, 281992, Control_c, 0, 64, 89
1, 282007, Control_c, 0, 64, 88
1, 282036, Control_c, 0, 64, 87
1, 282040, Note_on_c, 0, 58, 85
1, 282051, Note_on_c, 0, 53, 74
1, 282051, Control_c, 0, 64, 84
1, 282055, Note_on_c, 0, 50, 72
1, 282066, Control_c, 0, 64, 79
1, 282081, Control_c, 0, 64, 73
1, 282096, Control_c, 0, 64, 68
1, 282110, Control_c, 0, 64, 65
1, 282125, Control_c, 0, 64, 63
1, 282140, Control_c, 0, 64, 59
1, 282154, Control_c, 0, 64, 47
1, 282169, Control_c, 0, 64, 0
1, 282297, Note_on_c, 0, 46, 82
1, 282430, Control_c, 0, 64, 38
1, 282433, Note_off_c, 0, 46, 59
1, 282445, Control_c, 0, 64, 49
1, 282460, Control_c, 0, 64, 52
1, 282474, Control_c, 0, 64, 55
1, 282489, Control_c, 0, 64, 60
1, 282504, Control_c, 0, 64, 64
1, 282519, Control_c, 0, 64, 64
1, 282533, Control_c, 0, 64, 63
1, 282548, Control_c, 0, 64, 61
1, 282563, Control_c, 0, 64, 56
1, 282577, Note_on_c, 0, 34, 79
1, 282578, Control_c, 0, 64, 46
1, 282593, Control_c, 0, 64, 26
1, 282607, Control_c, 0, 64, 0
1, 282622, Control_c, 0, 64, 17
1, 282627, Note_off_c, 0, 50, 54
1, 282637, Control_c, 0, 64, 45
1, 282649, Note_off_c, 0, 53, 64
1, 282652, Control_c, 0, 64, 60
1, 282666, Control_c, 0, 64, 66
1, 282681, Control_c, 0, 64, 71
1, 282690, Note_off_c, 0, 58, 61
1, 282696, Control_c, 0, 64, 77
1, 282711, Control_c, 0, 64, 84
1, 282725, Note_off_c, 0, 34, 60
1, 282726, Control_c, 0, 64, 90
1, 282740, Control_c, 0, 64, 93
1, 282755, Control_c, 0, 64, 94
1, 282845, Control_c, 0, 64, 93
1, 282859, Control_c, 0, 64, 90
1, 282874, Control_c, 0, 64, 85
1, 282889, Control_c, 0, 64, 78
1, 282904, Control_c, 0, 64, 72
1, 282910, Note_on_c, 0, 62, 73
1, 282913, Note_on_c, 0, 56, 60
1, 282919, Control_c, 0, 64, 67
1, 282921, Note_on_c, 0, 46, 61
1, 282926, Note_on_c, 0, 53, 59
1, 282933, Control_c, 0, 64, 62
1, 282948, Control_c, 0, 64, 49
1, 282963, Control_c, 0, 64, 27
1, 282985, Control_c, 0, 64, 30
1, 283000, Control_c, 0, 64, 53
1, 283014, Control_c, 0, 64, 62
1, 283029, Control_c, 0, 64, 67
1, 283044, Control_c, 0, 64, 72
1, 283053, Note_off_c, 0, 53, 61
1, 283059, Control_c, 0, 64, 79
1, 283074, Control_c, 0, 64, 88
1, 283089, Control_c, 0, 64, 91
1, 283089, Control_c, 0, 67, 9
1, 283090, Note_off_c, 0, 62, 60
1, 283102, Note_off_c, 0, 56, 63
1, 283104, Control_c, 0, 67, 14
1, 283119, Control_c, 0, 67, 19
1, 283133, Control_c, 0, 67, 27
1, 283140, Note_off_c, 0, 46, 59
1, 283148, Control_c, 0, 64, 90
1, 283148, Control_c, 0, 67, 37
1, 283164, Control_c, 0, 64, 89
1, 283164, Control_c, 0, 67, 48
1, 283178, Control_c, 0, 64, 86
1, 283178, Control_c, 0, 67, 59
1, 283193, Control_c, 0, 64, 83
1, 283193, Control_c, 0, 67, 70
1, 283208, Control_c, 0, 64, 81
1, 283208, Control_c, 0, 67, 77
1, 283223, Control_c, 0, 64, 79
1, 283223, Control_c, 0, 67, 87
1, 283238, Control_c, 0, 64, 77
1, 283238, Control_c, 0, 67, 97
1, 283253, Control_c, 0, 64, 74
1, 283253, Control_c, 0, 67, 107
1, 283268, Control_c, 0, 64, 71
1, 283268, Control_c, 0, 67, 115
1, 283283, Control_c, 0, 64, 68
1, 283283, Control_c, 0, 67, 123
1, 283297, Control_c, 0, 64, 65
1, 283297, Control_c, 0, 67, 127
1, 283312, Control_c, 0, 64, 63
1, 283327, Control_c, 0, 64, 60
1, 283342, Control_c, 0, 64, 58
1, 283357, Control_c, 0, 64, 56
1, 283371, Control_c, 0, 64, 51
1, 283386, Control_c, 0, 64, 33
1, 283401, Control_c, 0, 64, 0
1, 283563, Note_on_c, 0, 63, 35
1, 283571, Note_on_c, 0, 39, 32
1, 283572, Note_on_c, 0, 55, 34
1, 283819, Note_off_c, 0, 63, 55
1, 283822, Note_off_c, 0, 55, 42
1, 283897, Control_c, 0, 64, 35
1, 283912, Control_c, 0, 64, 45
1, 283927, Control_c, 0, 64, 55
1, 283942, Control_c, 0, 64, 63
1, 283958, Control_c, 0, 64, 67
1, 283973, Control_c, 0, 64, 72
1, 283987, Control_c, 0, 64, 77
1, 284002, Control_c, 0, 64, 82
1, 284017, Control_c, 0, 64, 86
1, 284031, Control_c, 0, 64, 91
1, 284046, Control_c, 0, 64, 95
1, 284061, Control_c, 0, 64, 100
1, 284076, Control_c, 0, 64, 105
1, 284091, Control_c, 0, 64, 111
1, 284105, Control_c, 0, 64, 121
1, 284120, Control_c, 0, 64, 127
1, 284234, Note_off_c, 0, 39, 41
1, 284460, Note_on_c, 0, 39, 35
1, 284464, Note_on_c, 0, 38, 38
1, 284499, Control_c, 0, 64, 110
1, 284513, Control_c, 0, 64, 104
1, 284528, Control_c, 0, 64, 101
1, 284543, Control_c, 0, 64, 97
1, 284557, Control_c, 0, 64, 91
1, 284572, Control_c, 0, 64, 85
1, 284587, Control_c, 0, 64, 80
1, 284602, Control_c, 0, 64, 75
1, 284617, Control_c, 0, 64, 72
1, 284631, Control_c, 0, 64, 67
1, 284646, Control_c, 0, 64, 64
1, 284661, Control_c, 0, 64, 64
1, 284720, Control_c, 0, 64, 65
1, 284735, Control_c, 0, 64, 66
1, 284750, Control_c, 0, 64, 68
1, 284766, Control_c, 0, 64, 71
1, 284781, Control_c, 0, 64, 73
1, 284796, Control_c, 0, 64, 75
1, 284810, Control_c, 0, 64, 78
1, 284825, Control_c, 0, 64, 83
1, 284840, Control_c, 0, 64, 90
1, 284854, Control_c, 0, 64, 95
1, 284869, Note_off_c, 0, 39, 40
1, 284869, Control_c, 0, 64, 97
1, 284884, Control_c, 0, 64, 100
1, 284899, Control_c, 0, 64, 107
1, 284914, Control_c, 0, 64, 127
1, 285115, Note_off_c, 0, 38, 40
1, 285336, Control_c, 0, 64, 118
1, 285348, Note_on_c, 0, 63, 43
1, 285351, Control_c, 0, 64, 111
1, 285365, Note_on_c, 0, 36, 34
1, 285366, Control_c, 0, 64, 107
1, 285366, Note_on_c, 0, 39, 27
1, 285381, Control_c, 0, 64, 105
1, 285395, Control_c, 0, 64, 103
1, 285410, Control_c, 0, 64, 103
1, 285425, Control_c, 0, 64, 102
1, 285440, Control_c, 0, 64, 100
1, 285454, Note_off_c, 0, 63, 56
1, 285454, Control_c, 0, 64, 98
1, 285469, Control_c, 0, 64, 97
1, 285475, Note_on_c, 0, 65, 49
1, 285484, Control_c, 0, 64, 97
1, 285529, Control_c, 0, 64, 95
1, 285543, Control_c, 0, 64, 93
1, 285559, Control_c, 0, 64, 91
1, 285574, Note_on_c, 0, 63, 54
1, 285574, Control_c, 0, 64, 91
1, 285595, Note_off_c, 0, 65, 36
1, 285633, Control_c, 0, 64, 90
1, 285637, Note_off_c, 0, 63, 53
1, 285648, Control_c, 0, 64, 89
1, 285663, Note_on_c, 0, 62, 50
1, 285663, Control_c, 0, 64, 89
1, 285708, Note_off_c, 0, 62, 58
1, 285722, Control_c, 0, 64, 88
1, 285743, Note_on_c, 0, 63, 56
1, 285766, Control_c, 0, 64, 88
1, 285781, Control_c, 0, 64, 87
1, 285790, Note_off_c, 0, 63, 61
1, 285796, Control_c, 0, 64, 87
1, 285802, Note_off_c, 0, 39, 42
1, 285811, Control_c, 0, 64, 86
1, 285830, Note_on_c, 0, 65, 58
1, 285855, Control_c, 0, 64, 86
1, 285870, Control_c, 0, 64, 85
1, 285877, Note_off_c, 0, 65, 55
1, 285885, Control_c, 0, 64, 83
1, 285900, Control_c, 0, 64, 81
1, 285912, Note_on_c, 0, 67, 61
1, 285915, Control_c, 0, 64, 80
1, 285930, Control_c, 0, 64, 80
1, 285959, Control_c, 0, 64, 79
1, 285989, Note_off_c, 0, 67, 49
1, 285996, Control_c, 0, 64, 79
1, 286001, Note_on_c, 0, 68, 58
1, 286010, Control_c, 0, 64, 78
1, 286025, Control_c, 0, 64, 78
1, 286091, Note_on_c, 0, 70, 54
1, 286100, Control_c, 0, 64, 77
1, 286103, Note_off_c, 0, 68, 61
1, 286109, Note_on_c, 0, 34, 45
1, 286122, Note_on_c, 0, 39, 33
1, 286124, Note_off_c, 0, 70, 63
1, 286144, Control_c, 0, 64, 77
1, 286158, Control_c, 0, 64, 76
1, 286171, Note_on_c, 0, 72, 57
1, 286173, Control_c, 0, 64, 74
1, 286188, Control_c, 0, 64, 73
1, 286189, Note_off_c, 0, 36, 49
1, 286217, Control_c, 0, 64, 72
1, 286232, Control_c, 0, 64, 71
1, 286241, Note_off_c, 0, 72, 47
1, 286247, Control_c, 0, 64, 69
1, 286262, Control_c, 0, 64, 68
1, 286276, Note_on_c, 0, 74, 55
1, 286277, Control_c, 0, 64, 67
1, 286291, Control_c, 0, 64, 66
1, 286306, Control_c, 0, 64, 65
1, 286321, Control_c, 0, 64, 65
1, 286335, Control_c, 0, 64, 64
1, 286344, Note_off_c, 0, 74, 62
1, 286351, Note_on_c, 0, 75, 64
1, 286416, Note_off_c, 0, 75, 62
1, 286450, Note_on_c, 0, 77, 60
1, 286470, Control_c, 0, 64, 65
1, 286485, Control_c, 0, 64, 65
1, 286499, Control_c, 0, 64, 67
1, 286514, Control_c, 0, 64, 68
1, 286529, Control_c, 0, 64, 69
1, 286531, Note_off_c, 0, 77, 40
1, 286542, Note_on_c, 0, 79, 55
1, 286544, Control_c, 0, 64, 70
1, 286559, Control_c, 0, 64, 71
1, 286574, Control_c, 0, 64, 72
1, 286589, Control_c, 0, 64, 74
1, 286603, Control_c, 0, 64, 74
1, 286615, Note_off_c, 0, 79, 56
1, 286620, Note_on_c, 0, 80, 58
1, 286624, Note_off_c, 0, 39, 50
1, 286693, Control_c, 0, 64, 74
1, 286715, Note_on_c, 0, 82, 60
1, 286747, Note_off_c, 0, 80, 60
1, 286758, Control_c, 0, 64, 73
1, 286771, Note_off_c, 0, 82, 56
1, 286773, Control_c, 0, 64, 73
1, 286788, Control_c, 0, 64, 72
1, 286816, Note_on_c, 0, 32, 36
1, 286821, Note_on_c, 0, 84, 55
1, 286832, Note_on_c, 0, 39, 16
1, 286833, Control_c, 0, 64, 72
1, 286848, Control_c, 0, 64, 71
1, 286863, Control_c, 0, 64, 70
1, 286878, Control_c, 0, 64, 70
1, 286879, Note_off_c, 0, 34, 50
1, 286893, Control_c, 0, 64, 69
1, 286921, Note_off_c, 0, 84, 53
1, 286922, Control_c, 0, 64, 69
1, 286949, Note_on_c, 0, 86, 56
1, 286952, Control_c, 0, 64, 68
1, 286967, Control_c, 0, 64, 68
1, 287030, Note_off_c, 0, 86, 60
1, 287044, Note_on_c, 0, 87, 60
1, 287056, Control_c, 0, 64, 67
1, 287086, Control_c, 0, 64, 67
1, 287101, Control_c, 0, 64, 66
1, 287123, Note_off_c, 0, 87, 63
1, 287146, Note_on_c, 0, 89, 67
1, 287161, Control_c, 0, 64, 67
1, 287175, Control_c, 0, 64, 67
1, 287190, Control_c, 0, 64, 68
1, 287205, Control_c, 0, 64, 68
1, 287220, Control_c, 0, 64, 69
1, 287231, Note_off_c, 0, 89, 54
1, 287235, Control_c, 0, 64, 69
1, 287249, Note_on_c, 0, 91, 56
1, 287250, Control_c, 0, 64, 70
1, 287264, Control_c, 0, 64, 71
1, 287279, Control_c, 0, 64, 71
1, 287294, Control_c, 0, 64, 72
1, 287333, Note_off_c, 0, 91, 61
1, 287338, Control_c, 0, 64, 72
1, 287344, Note_on_c, 0, 92, 54
1, 287350, Note_off_c, 0, 39, 43
1, 287353, Control_c, 0, 64, 73
1, 287368, Control_c, 0, 64, 73
1, 287451, Note_on_c, 0, 94, 57
1, 287494, Control_c, 0, 64, 73
1, 287516, Note_off_c, 0, 92, 49
1, 287568, Control_c, 0, 64, 72
1, 287582, Control_c, 0, 64, 71
1, 287642, Control_c, 0, 64, 71
1, 287647, Note_on_c, 0, 96, 56
1, 287656, Control_c, 0, 64, 70
1, 287665, Note_on_c, 0, 31, 31
1, 287671, Control_c, 0, 64, 69
1, 287674, Note_off_c, 0, 32, 41
1, 287679, Note_on_c, 0, 39, 21
1, 287715, Note_off_c, 0, 94, 48
1, 287716, Control_c, 0, 64, 68
1, 287745, Control_c, 0, 64, 68
1, 287760, Control_c, 0, 64, 67
1, 287775, Control_c, 0, 64, 66
1, 287790, Control_c, 0, 64, 66
1, 287805, Control_c, 0, 64, 65
1, 287820, Control_c, 0, 64, 64
1, 287835, Control_c, 0, 64, 64
1, 287879, Control_c, 0, 64, 63
1, 287923, Control_c, 0, 64, 64
1, 287938, Control_c, 0, 64, 64
1, 287954, Control_c, 0, 64, 65
1, 287969, Control_c, 0, 64, 66
1, 287984, Control_c, 0, 64, 68
1, 287999, Control_c, 0, 64, 70
1, 288013, Control_c, 0, 64, 71
1, 288043, Control_c, 0, 64, 71
1, 288058, Control_c, 0, 64, 73
1, 288073, Control_c, 0, 64, 75
1, 288087, Control_c, 0, 64, 77
1, 288102, Control_c, 0, 64, 78
1, 288132, Control_c, 0, 64, 79
1, 288135, Note_on_c, 0, 94, 51
1, 288146, Control_c, 0, 64, 80
1, 288160, Note_off_c, 0, 96, 51
1, 288161, Control_c, 0, 64, 82
1, 288198, Note_off_c, 0, 39, 42
1, 288214, Note_off_c, 0, 94, 57
1, 288220, Control_c, 0, 64, 82
1, 288243, Control_c, 0, 64, 83
1, 288435, Control_c, 0, 64, 82
1, 288494, Control_c, 0, 64, 82
1, 288509, Control_c, 0, 64, 81
1, 288538, Control_c, 0, 64, 80
1, 288598, Control_c, 0, 64, 79
1, 288613, Control_c, 0, 64, 79
1, 288628, Control_c, 0, 64, 78
1, 288657, Control_c, 0, 64, 78
1, 288670, Note_on_c, 0, 87, 42
1, 288678, Note_on_c, 0, 32, 27
1, 288687, Control_c, 0, 64, 77
1, 288691, Note_on_c, 0, 39, 17
1, 288702, Control_c, 0, 64, 77
1, 288715, Note_off_c, 0, 31, 35
1, 288777, Control_c, 0, 64, 76
1, 288788, Note_off_c, 0, 87, 59
1, 288791, Control_c, 0, 64, 76
1, 288811, Note_on_c, 0, 89, 51
1, 288894, Note_off_c, 0, 89, 48
1, 288905, Note_on_c, 0, 87, 60
1, 288955, Control_c, 0, 64, 75
1, 288956, Note_off_c, 0, 87, 57
1, 288970, Control_c, 0, 64, 75
1, 288991, Control_c, 0, 64, 74
1, 288995, Note_on_c, 0, 86, 53
1, 289021, Control_c, 0, 64, 74
1, 289046, Note_off_c, 0, 86, 49
1, 289078, Note_on_c, 0, 87, 58
1, 289115, Note_off_c, 0, 87, 65
1, 289153, Note_on_c, 0, 89, 64
1, 289230, Note_off_c, 0, 89, 41
1, 289239, Note_on_c, 0, 91, 61
1, 289329, Note_off_c, 0, 91, 57
1, 289335, Note_on_c, 0, 92, 60
1, 289343, Note_off_c, 0, 39, 43
1, 289441, Note_on_c, 0, 94, 53
1, 289458, Note_off_c, 0, 92, 53
1, 289540, Control_c, 0, 64, 73
1, 289555, Control_c, 0, 64, 73
1, 289569, Control_c, 0, 64, 72
1, 289599, Control_c, 0, 64, 71
1, 289611, Note_on_c, 0, 96, 48
1, 289614, Control_c, 0, 64, 71
1, 289620, Note_on_c, 0, 31, 25
1, 289627, Note_on_c, 0, 39, 18
1, 289629, Control_c, 0, 64, 70
1, 289631, Note_off_c, 0, 32, 41
1, 289644, Control_c, 0, 64, 70
1, 289659, Control_c, 0, 64, 69
1, 289674, Control_c, 0, 64, 68
1, 289689, Control_c, 0, 64, 67
1, 289696, Note_off_c, 0, 94, 36
1, 289704, Control_c, 0, 64, 65
1, 289719, Control_c, 0, 64, 64
1, 289740, Control_c, 0, 64, 63
1, 289784, Control_c, 0, 64, 62
1, 289799, Control_c, 0, 64, 61
1, 289814, Control_c, 0, 64, 56
1, 289829, Control_c, 0, 64, 51
1, 289888, Control_c, 0, 64, 54
1, 289903, Control_c, 0, 64, 58
1, 289918, Control_c, 0, 64, 62
1, 289933, Control_c, 0, 64, 65
1, 289948, Control_c, 0, 64, 67
1, 289963, Control_c, 0, 64, 69
1, 289977, Control_c, 0, 64, 71
1, 289992, Control_c, 0, 64, 73
1, 290007, Control_c, 0, 64, 75
1, 290022, Control_c, 0, 64, 77
1, 290037, Control_c, 0, 64, 79
1, 290051, Control_c, 0, 64, 80
1, 290066, Control_c, 0, 64, 81
1, 290081, Control_c, 0, 64, 82
1, 290096, Control_c, 0, 64, 84
1, 290111, Control_c, 0, 64, 86
1, 290112, Note_off_c, 0, 39, 39
1, 290125, Control_c, 0, 64, 86
1, 290151, Note_on_c, 0, 94, 44
1, 290154, Note_off_c, 0, 96, 36
1, 290170, Control_c, 0, 64, 87
1, 290184, Control_c, 0, 64, 87
1, 290199, Control_c, 0, 64, 88
1, 290214, Control_c, 0, 64, 90
1, 290219, Note_off_c, 0, 94, 62
1, 290229, Control_c, 0, 64, 91
1, 290243, Control_c, 0, 64, 91
1, 290437, Control_c, 0, 64, 91
1, 290504, Control_c, 0, 64, 90
1, 290519, Control_c, 0, 64, 90
1, 290563, Control_c, 0, 64, 89
1, 290578, Control_c, 0, 64, 89
1, 290593, Control_c, 0, 64, 88
1, 290652, Control_c, 0, 64, 87
1, 290681, Control_c, 0, 64, 86
1, 290682, Note_off_c, 0, 31, 38
1, 290690, Note_on_c, 0, 87, 42
1, 290696, Control_c, 0, 64, 86
1, 290698, Note_on_c, 0, 32, 23
1, 290711, Control_c, 0, 64, 85
1, 290726, Control_c, 0, 64, 85
1, 290737, Note_on_c, 0, 39, 23
1, 290741, Control_c, 0, 64, 84
1, 290756, Control_c, 0, 64, 84
1, 290771, Control_c, 0, 64, 82
1, 290786, Control_c, 0, 64, 80
1, 290800, Control_c, 0, 64, 78
1, 290815, Control_c, 0, 64, 76
1, 290830, Control_c, 0, 64, 75
1, 290851, Note_off_c, 0, 87, 56
1, 290867, Note_on_c, 0, 89, 49
1, 290963, Control_c, 0, 64, 75
1, 290978, Control_c, 0, 64, 74
1, 290979, Note_on_c, 0, 87, 52
1, 290988, Note_off_c, 0, 89, 48
1, 291007, Control_c, 0, 64, 74
1, 291037, Control_c, 0, 64, 73
1, 291052, Control_c, 0, 64, 73
1, 291066, Note_off_c, 0, 87, 63
1, 291067, Control_c, 0, 64, 72
1, 291081, Control_c, 0, 64, 73
1, 291091, Note_on_c, 0, 86, 48
1, 291152, Note_off_c, 0, 86, 58
1, 291171, Control_c, 0, 64, 73
1, 291199, Note_on_c, 0, 87, 53
1, 291281, Note_off_c, 0, 87, 54
1, 291309, Note_on_c, 0, 89, 55
1, 291402, Note_off_c, 0, 89, 45
1, 291433, Note_on_c, 0, 91, 48
1, 291548, Control_c, 0, 64, 73
1, 291554, Note_off_c, 0, 39, 40
1, 291564, Note_on_c, 0, 92, 51
1, 291578, Control_c, 0, 64, 73
1, 291591, Note_off_c, 0, 91, 43
1, 291608, Control_c, 0, 64, 73
1, 291724, Note_on_c, 0, 94, 52
1, 291733, Note_off_c, 0, 92, 56
1, 291755, Control_c, 0, 64, 72
1, 292016, Control_c, 0, 64, 72
1, 292045, Control_c, 0, 64, 71
1, 292052, Note_on_c, 0, 96, 53
1, 292065, Note_on_c, 0, 84, 41
1, 292090, Note_on_c, 0, 31, 29
1, 292090, Control_c, 0, 64, 71
1, 292094, Note_on_c, 0, 39, 26
1, 292099, Note_off_c, 0, 32, 43
1, 292105, Control_c, 0, 64, 70
1, 292118, Control_c, 0, 64, 70
1, 292139, Note_off_c, 0, 94, 55
1, 292163, Control_c, 0, 64, 69
1, 292178, Control_c, 0, 64, 68
1, 292193, Control_c, 0, 64, 68
1, 292237, Control_c, 0, 64, 67
1, 292267, Control_c, 0, 64, 66
1, 292282, Control_c, 0, 64, 66
1, 292297, Control_c, 0, 64, 65
1, 292341, Control_c, 0, 64, 65
1, 292356, Control_c, 0, 64, 64
1, 292362, Note_off_c, 0, 39, 38
1, 292370, Control_c, 0, 64, 64
1, 292385, Control_c, 0, 64, 63
1, 292393, Note_off_c, 0, 31, 40
1, 292444, Control_c, 0, 64, 63
1, 292459, Control_c, 0, 64, 62
1, 292474, Control_c, 0, 64, 61
1, 292667, Control_c, 0, 64, 62
1, 292733, Control_c, 0, 64, 62
1, 292794, Control_c, 0, 64, 63
1, 292823, Control_c, 0, 64, 63
1, 292883, Control_c, 0, 64, 64
1, 292942, Control_c, 0, 64, 64
1, 292957, Control_c, 0, 64, 65
1, 292972, Control_c, 0, 64, 65
1, 292987, Control_c, 0, 64, 66
1, 293001, Control_c, 0, 64, 66
1, 293016, Control_c, 0, 64, 68
1, 293031, Control_c, 0, 64, 70
1, 293046, Control_c, 0, 64, 71
1, 293061, Control_c, 0, 64, 73
1, 293075, Control_c, 0, 64, 75
1, 293090, Control_c, 0, 64, 78
1, 293105, Control_c, 0, 64, 81
1, 293120, Control_c, 0, 64, 85
1, 293135, Control_c, 0, 64, 88
1, 293147, Note_off_c, 0, 96, 62
1, 293150, Control_c, 0, 64, 92
1, 293164, Control_c, 0, 64, 95
1, 293179, Control_c, 0, 64, 99
1, 293193, Note_off_c, 0, 84, 53
1, 293194, Control_c, 0, 64, 104
1, 293209, Control_c, 0, 64, 112
1, 293224, Control_c, 0, 64, 127
1, 293433, Note_on_c, 0, 94, 87
1, 293435, Note_on_c, 0, 82, 80
1, 293501, Note_off_c, 0, 82, 65
1, 293510, Note_off_c, 0, 94, 65
1, 293839, Control_c, 0, 64, 110
1, 293854, Control_c, 0, 64, 107
1, 293898, Control_c, 0, 64, 107
1, 293913, Control_c, 0, 64, 106
1, 293928, Control_c, 0, 64, 105
1, 293942, Control_c, 0, 64, 101
1, 293957, Control_c, 0, 64, 97
1, 293972, Control_c, 0, 64, 93
1, 293987, Control_c, 0, 64, 89
1, 294002, Control_c, 0, 64, 84
1, 294017, Control_c, 0, 64, 78
1, 294032, Control_c, 0, 64, 74
1, 294047, Control_c, 0, 64, 71
1, 294062, Control_c, 0, 64, 69
1, 294077, Control_c, 0, 64, 67
1, 294091, Control_c, 0, 64, 65
1, 294106, Control_c, 0, 64, 64
1, 294121, Control_c, 0, 64, 64
1, 294150, Control_c, 0, 64, 63
1, 294165, Control_c, 0, 64, 62
1, 294180, Control_c, 0, 64, 57
1, 294195, Control_c, 0, 64, 47
1, 294217, Control_c, 0, 64, 34
1, 294232, Control_c, 0, 64, 31
1, 294261, Control_c, 0, 64, 32
1, 294381, Control_c, 0, 64, 29
1, 294396, Control_c, 0, 67, 119
1, 294410, Control_c, 0, 64, 36
1, 294410, Control_c, 0, 67, 111
1, 294425, Control_c, 0, 64, 47
1, 294425, Control_c, 0, 67, 106
1, 294440, Control_c, 0, 64, 54
1, 294440, Control_c, 0, 67, 102
1, 294446, Note_on_c, 0, 62, 90
1, 294455, Note_on_c, 0, 56, 86
1, 294455, Control_c, 0, 64, 58
1, 294455, Control_c, 0, 67, 102
1, 294455, Note_on_c, 0, 53, 86
1, 294455, Note_on_c, 0, 58, 83
1, 294456, Note_on_c, 0, 46, 79
1, 294461, Note_on_c, 0, 34, 71
1, 294464, Note_on_c, 0, 38, 71
1, 294464, Note_on_c, 0, 41, 73
1, 294470, Control_c, 0, 64, 62
1, 294485, Control_c, 0, 64, 66
1, 294485, Control_c, 0, 67, 101
1, 294500, Control_c, 0, 64, 72
1, 294500, Control_c, 0, 67, 102
1, 294515, Control_c, 0, 64, 81
1, 294529, Control_c, 0, 64, 92
1, 294543, Note_off_c, 0, 62, 62
1, 294544, Control_c, 0, 64, 99
1, 294545, Note_off_c, 0, 56, 65
1, 294547, Note_off_c, 0, 58, 64
1, 294548, Note_off_c, 0, 53, 63
1, 294559, Control_c, 0, 64, 103
1, 294564, Note_off_c, 0, 34, 60
1, 294565, Note_off_c, 0, 38, 62
1, 294569, Note_off_c, 0, 41, 62
1, 294573, Control_c, 0, 64, 104
1, 294583, Note_off_c, 0, 46, 60
1, 294588, Control_c, 0, 64, 106
1, 294603, Control_c, 0, 64, 108
1, 294633, Control_c, 0, 64, 108
1, 294647, Control_c, 0, 64, 103
1, 294662, Control_c, 0, 64, 96
1, 294662, Control_c, 0, 67, 103
1, 294677, Control_c, 0, 64, 87
1, 294677, Control_c, 0, 67, 103
1, 294692, Control_c, 0, 64, 80
1, 294692, Control_c, 0, 67, 104
1, 294707, Control_c, 0, 64, 74
1, 294721, Control_c, 0, 64, 69
1, 294736, Control_c, 0, 64, 65
1, 294751, Control_c, 0, 64, 62
1, 294765, Control_c, 0, 64, 59
1, 294780, Control_c, 0, 64, 56
1, 294780, Control_c, 0, 67, 105
1, 294795, Control_c, 0, 64, 52
1, 294810, Control_c, 0, 64, 48
1, 294825, Control_c, 0, 64, 45
1, 294840, Control_c, 0, 64, 45
1, 294840, Control_c, 0, 67, 104
1, 294855, Control_c, 0, 64, 45
1, 294870, Control_c, 0, 64, 48
1, 294870, Control_c, 0, 67, 105
1, 294914, Control_c, 0, 64, 48
1, 294929, Control_c, 0, 67, 104
1, 294944, Control_c, 0, 64, 49
1, 294965, Control_c, 0, 64, 50
1, 295025, Control_c, 0, 64, 51
1, 295039, Control_c, 0, 64, 51
1, 295054, Control_c, 0, 67, 105
1, 295084, Control_c, 0, 64, 51
1, 295099, Control_c, 0, 64, 50
1, 295114, Control_c, 0, 64, 49
1, 295174, Control_c, 0, 64, 48
1, 295188, Control_c, 0, 64, 47
1, 295233, Control_c, 0, 64, 49
1, 295248, Control_c, 0, 64, 50
1, 295248, Control_c, 0, 67, 104
1, 295263, Control_c, 0, 64, 51
1, 295278, Control_c, 0, 64, 51
1, 295293, Control_c, 0, 64, 53
1, 295308, Control_c, 0, 64, 55
1, 295323, Control_c, 0, 64, 56
1, 295338, Control_c, 0, 64, 56
1, 295352, Control_c, 0, 64, 57
1, 295382, Control_c, 0, 64, 57
1, 295396, Control_c, 0, 64, 58
1, 295411, Control_c, 0, 64, 59
1, 295426, Control_c, 0, 64, 59
1, 295426, Control_c, 0, 67, 104
1, 295441, Control_c, 0, 64, 60
1, 295456, Control_c, 0, 67, 103
1, 295467, Note_on_c, 0, 63, 92
1, 295476, Note_on_c, 0, 58, 79
1, 295483, Note_on_c, 0, 51, 72
1, 295483, Note_on_c, 0, 55, 79
1, 295484, Note_on_c, 0, 46, 70
1, 295485, Control_c, 0, 67, 103
1, 295489, Note_on_c, 0, 43, 65
1, 295492, Note_on_c, 0, 39, 58
1, 295529, Control_c, 0, 67, 102
1, 295544, Control_c, 0, 67, 103
1, 295559, Control_c, 0, 64, 59
1, 295588, Control_c, 0, 67, 102
1, 295618, Control_c, 0, 64, 59
1, 295744, Control_c, 0, 64, 59
1, 295759, Control_c, 0, 64, 60
1, 295774, Control_c, 0, 64, 61
1, 295781, Note_off_c, 0, 55, 49
1, 295798, Note_off_c, 0, 63, 59
1, 295807, Note_off_c, 0, 58, 61
1, 295812, Note_off_c, 0, 43, 61
1, 295831, Note_off_c, 0, 39, 61
1, 295833, Control_c, 0, 64, 61
1, 295839, Note_off_c, 0, 46, 62
1, 295844, Note_off_c, 0, 51, 61
1, 295907, Control_c, 0, 64, 61
1, 295952, Control_c, 0, 64, 60
1, 296026, Control_c, 0, 64, 60
1, 296116, Control_c, 0, 64, 60
1, 296130, Control_c, 0, 67, 103
1, 296145, Control_c, 0, 64, 61
1, 296160, Control_c, 0, 64, 61
1, 296190, Control_c, 0, 64, 61
1, 296308, Control_c, 0, 64, 61
1, 296508, Control_c, 0, 64, 62
1, 296715, Control_c, 0, 67, 102
1, 296834, Control_c, 0, 64, 62
1, 297257, Control_c, 0, 64, 63
1, 297257, Control_c, 0, 67, 102
1, 298095, Control_c, 0, 64, 63
1, 298243, Control_c, 0, 67, 101
1, 298287, Control_c, 0, 64, 64
1, 298331, Control_c, 0, 67, 101
1, 298347, Control_c, 0, 67, 100
1, 298392, Control_c, 0, 64, 64
1, 298421, Control_c, 0, 67, 100
1, 298451, Control_c, 0, 67, 99
1, 298466, Control_c, 0, 67, 99
1, 298481, Control_c, 0, 64, 65
1, 298481, Control_c, 0, 67, 97
1, 298495, Control_c, 0, 67, 94
1, 298510, Control_c, 0, 64, 65
1, 298510, Control_c, 0, 67, 91
1, 298525, Control_c, 0, 67, 89
1, 298539, Control_c, 0, 67, 87
1, 298554, Control_c, 0, 67, 85
1, 298569, Control_c, 0, 64, 66
1, 298569, Control_c, 0, 67, 83
1, 298584, Control_c, 0, 64, 66
1, 298584, Control_c, 0, 67, 81
1, 298599, Control_c, 0, 64, 67
1, 298599, Control_c, 0, 67, 80
1, 298614, Control_c, 0, 64, 67
1, 298614, Control_c, 0, 67, 78
1, 298628, Control_c, 0, 64, 68
1, 298628, Control_c, 0, 67, 76
1, 298643, Control_c, 0, 67, 74
1, 298658, Control_c, 0, 64, 68
1, 298658, Control_c, 0, 67, 72
1, 298673, Control_c, 0, 64, 69
1, 298673, Control_c, 0, 67, 71
1, 298688, Control_c, 0, 64, 70
1, 298688, Control_c, 0, 67, 69
1, 298710, Control_c, 0, 64, 71
1, 298710, Control_c, 0, 67, 67
1, 298725, Control_c, 0, 64, 72
1, 298725, Control_c, 0, 67, 65
1, 298739, Control_c, 0, 64, 73
1, 298739, Control_c, 0, 67, 63
1, 298754, Control_c, 0, 64, 73
1, 298754, Control_c, 0, 67, 61
1, 298769, Control_c, 0, 64, 74
1, 298769, Control_c, 0, 67, 58
1, 298784, Control_c, 0, 64, 75
1, 298784, Control_c, 0, 67, 55
1, 298799, Control_c, 0, 64, 76
1, 298799, Control_c, 0, 67, 51
1, 298813, Control_c, 0, 64, 77
1, 298813, Control_c, 0, 67, 48
1, 298828, Control_c, 0, 64, 79
1, 298828, Control_c, 0, 67, 43
1, 298843, Control_c, 0, 64, 80
1, 298843, Control_c, 0, 67, 37
1, 298858, Control_c, 0, 64, 81
1, 298858, Control_c, 0, 67, 31
1, 298873, Control_c, 0, 64, 82
1, 298873, Control_c, 0, 67, 25
1, 298888, Control_c, 0, 64, 84
1, 298888, Control_c, 0, 67, 18
1, 298903, Control_c, 0, 64, 85
1, 298903, Control_c, 0, 67, 13
1, 298918, Control_c, 0, 64, 87
1, 298918, Control_c, 0, 67, 8
1, 298932, Control_c, 0, 64, 89
1, 298932, Control_c, 0, 67, 0
1, 298947, Control_c, 0, 64, 90
1, 298962, Control_c, 0, 64, 92
1, 298977, Control_c, 0, 64, 94
1, 298992, Control_c, 0, 64, 95
1, 299006, Control_c, 0, 64, 97
1, 299021, Control_c, 0, 64, 98
1, 299036, Control_c, 0, 64, 100
1, 299051, Control_c, 0, 64, 101
1, 299065, Control_c, 0, 64, 103
1, 299080, Control_c, 0, 64, 104
1, 299095, Control_c, 0, 64, 107
1, 299110, Control_c, 0, 64, 110
1, 299125, Control_c, 0, 64, 113
1, 299141, Control_c, 0, 64, 118
1, 299156, Control_c, 0, 64, 127
1, 299402, Note_on_c, 0, 48, 51
1, 299607, Note_on_c, 0, 67, 72
1, 299636, Note_on_c, 0, 63, 55
1, 300268, Note_on_c, 0, 66, 53
1, 300271, Note_off_c, 0, 67, 56
1, 300371, Control_c, 0, 64, 114
1, 300385, Control_c, 0, 64, 106
1, 300400, Control_c, 0, 64, 104
1, 300415, Control_c, 0, 64, 103
1, 300430, Control_c, 0, 64, 101
1, 300445, Control_c, 0, 64, 97
1, 300459, Control_c, 0, 64, 93
1, 300471, Note_on_c, 0, 69, 50
1, 300474, Control_c, 0, 64, 88
1, 300489, Control_c, 0, 64, 84
1, 300489, Control_c, 0, 67, 8
1, 300500, Note_on_c, 0, 54, 42
1, 300503, Control_c, 0, 64, 80
1, 300503, Control_c, 0, 67, 11
1, 300518, Control_c, 0, 64, 75
1, 300518, Control_c, 0, 67, 16
1, 300533, Control_c, 0, 64, 71
1, 300533, Control_c, 0, 67, 22
1, 300548, Control_c, 0, 64, 68
1, 300548, Control_c, 0, 67, 27
1, 300563, Control_c, 0, 64, 66
1, 300563, Control_c, 0, 67, 31
1, 300572, Note_off_c, 0, 66, 60
1, 300578, Control_c, 0, 64, 66
1, 300578, Control_c, 0, 67, 35
1, 300593, Control_c, 0, 64, 65
1, 300593, Control_c, 0, 67, 38
1, 300608, Control_c, 0, 64, 64
1, 300608, Control_c, 0, 67, 41
1, 300623, Control_c, 0, 64, 63
1, 300623, Control_c, 0, 67, 46
1, 300638, Control_c, 0, 64, 62
1, 300638, Control_c, 0, 67, 51
1, 300652, Control_c, 0, 64, 61
1, 300652, Control_c, 0, 67, 55
1, 300667, Control_c, 0, 64, 59
1, 300667, Control_c, 0, 67, 60
1, 300682, Control_c, 0, 64, 56
1, 300682, Control_c, 0, 67, 66
1, 300697, Control_c, 0, 64, 52
1, 300697, Control_c, 0, 67, 72
1, 300711, Control_c, 0, 64, 52
1, 300711, Control_c, 0, 67, 77
1, 300727, Control_c, 0, 64, 56
1, 300727, Control_c, 0, 67, 82
1, 300742, Control_c, 0, 64, 61
1, 300742, Control_c, 0, 67, 88
1, 300757, Control_c, 0, 64, 64
1, 300757, Control_c, 0, 67, 95
1, 300772, Control_c, 0, 64, 66
1, 300772, Control_c, 0, 67, 101
1, 300787, Control_c, 0, 64, 68
1, 300787, Control_c, 0, 67, 108
1, 300801, Control_c, 0, 64, 71
1, 300801, Control_c, 0, 67, 114
1, 300816, Control_c, 0, 64, 76
1, 300816, Control_c, 0, 67, 119
1, 300831, Control_c, 0, 64, 83
1, 300831, Control_c, 0, 67, 125
1, 300846, Control_c, 0, 64, 90
1, 300846, Control_c, 0, 67, 127
1, 300861, Control_c, 0, 64, 95
1, 300875, Control_c, 0, 64, 97
1, 300890, Control_c, 0, 64, 98
1, 300905, Control_c, 0, 64, 100
1, 300920, Control_c, 0, 64, 103
1, 300934, Control_c, 0, 64, 108
1, 300949, Control_c, 0, 64, 113
1, 300971, Control_c, 0, 64, 115
1, 301061, Control_c, 0, 64, 115
1, 301120, Control_c, 0, 64, 114
1, 301134, Control_c, 0, 64, 113
1, 301194, Control_c, 0, 64, 112
1, 301208, Control_c, 0, 64, 109
1, 301223, Control_c, 0, 64, 106
1, 301238, Control_c, 0, 64, 105
1, 301267, Control_c, 0, 64, 105
1, 301276, Note_on_c, 0, 57, 34
1, 301282, Control_c, 0, 64, 104
1, 301297, Control_c, 0, 64, 103
1, 301312, Control_c, 0, 64, 102
1, 301326, Control_c, 0, 64, 102
1, 301342, Note_off_c, 0, 54, 52
1, 301356, Control_c, 0, 64, 101
1, 301535, Control_c, 0, 64, 102
1, 301580, Control_c, 0, 64, 103
1, 301594, Control_c, 0, 64, 104
1, 301957, Control_c, 0, 64, 104
1, 302101, Note_on_c, 0, 54, 43
1, 302105, Control_c, 0, 64, 105
1, 302120, Control_c, 0, 64, 106
1, 302135, Control_c, 0, 64, 107
1, 302150, Control_c, 0, 64, 108
1, 302194, Control_c, 0, 64, 109
1, 302209, Control_c, 0, 64, 110
1, 302224, Control_c, 0, 64, 112
1, 302238, Control_c, 0, 64, 113
1, 302253, Control_c, 0, 64, 114
1, 302254, Note_off_c, 0, 69, 36
1, 302268, Note_off_c, 0, 57, 41
1, 302268, Control_c, 0, 64, 114
1, 302283, Control_c, 0, 64, 115
1, 302298, Control_c, 0, 64, 116
1, 302313, Control_c, 0, 64, 117
1, 302328, Control_c, 0, 64, 117
1, 302347, Note_off_c, 0, 48, 36
1, 302358, Note_off_c, 0, 63, 39
1, 302372, Control_c, 0, 64, 119
1, 302387, Control_c, 0, 64, 123
1, 302402, Control_c, 0, 64, 127
1, 302458, Note_off_c, 0, 54, 55
1, 302840, Control_c, 0, 64, 126
1, 302855, Control_c, 0, 64, 121
1, 302870, Control_c, 0, 64, 118
1, 302885, Control_c, 0, 64, 117
1, 302900, Control_c, 0, 64, 115
1, 302914, Control_c, 0, 64, 113
1, 302929, Control_c, 0, 64, 112
1, 302944, Control_c, 0, 64, 108
1, 302959, Control_c, 0, 64, 105
1, 302974, Control_c, 0, 64, 103
1, 302988, Control_c, 0, 64, 103
1, 303003, Control_c, 0, 64, 101
1, 303004, Note_on_c, 0, 67, 50
1, 303018, Control_c, 0, 64, 98
1, 303025, Note_on_c, 0, 48, 37
1, 303028, Note_on_c, 0, 63, 35
1, 303033, Control_c, 0, 64, 94
1, 303048, Control_c, 0, 64, 91
1, 303062, Control_c, 0, 64, 89
1, 303077, Control_c, 0, 64, 87
1, 303092, Control_c, 0, 64, 84
1, 303106, Control_c, 0, 64, 80
1, 303121, Control_c, 0, 64, 76
1, 303137, Control_c, 0, 64, 73
1, 303152, Control_c, 0, 64, 70
1, 303167, Control_c, 0, 64, 68
1, 303182, Control_c, 0, 64, 66
1, 303204, Control_c, 0, 64, 65
1, 303219, Control_c, 0, 64, 64
1, 303234, Control_c, 0, 64, 63
1, 303249, Control_c, 0, 64, 62
1, 303264, Control_c, 0, 64, 61
1, 303278, Control_c, 0, 64, 62
1, 303293, Control_c, 0, 64, 62
1, 303308, Control_c, 0, 64, 64
1, 303323, Control_c, 0, 64, 65
1, 303337, Control_c, 0, 64, 67
1, 303352, Control_c, 0, 64, 70
1, 303367, Control_c, 0, 64, 74
1, 303382, Control_c, 0, 64, 77
1, 303397, Control_c, 0, 64, 81
1, 303411, Control_c, 0, 64, 84
1, 303426, Control_c, 0, 64, 87
1, 303441, Control_c, 0, 64, 90
1, 303456, Control_c, 0, 64, 92
1, 303471, Control_c, 0, 64, 94
1, 303485, Control_c, 0, 64, 95
1, 303500, Control_c, 0, 64, 96
1, 303515, Control_c, 0, 64, 96
1, 303529, Control_c, 0, 64, 97
1, 303544, Control_c, 0, 64, 99
1, 303559, Control_c, 0, 64, 101
1, 303628, Note_off_c, 0, 67, 35
1, 303667, Note_on_c, 0, 66, 48
1, 303752, Control_c, 0, 64, 100
1, 303782, Control_c, 0, 64, 100
1, 303811, Control_c, 0, 64, 98
1, 303826, Control_c, 0, 64, 97
1, 303841, Control_c, 0, 64, 95
1, 303855, Control_c, 0, 64, 94
1, 303869, Note_on_c, 0, 69, 48
1, 303870, Control_c, 0, 64, 94
1, 303885, Control_c, 0, 64, 92
1, 303900, Control_c, 0, 64, 89
1, 303914, Note_on_c, 0, 54, 33
1, 303915, Control_c, 0, 64, 87
1, 303931, Control_c, 0, 64, 85
1, 303946, Control_c, 0, 64, 84
1, 303967, Control_c, 0, 64, 83
1, 303982, Control_c, 0, 64, 80
1, 303993, Note_off_c, 0, 66, 33
1, 303997, Control_c, 0, 64, 78
1, 304012, Control_c, 0, 64, 77
1, 304027, Control_c, 0, 64, 76
1, 304042, Control_c, 0, 64, 75
1, 304057, Control_c, 0, 64, 74
1, 304072, Control_c, 0, 64, 72
1, 304086, Control_c, 0, 64, 69
1, 304099, Control_c, 0, 64, 67
1, 304114, Control_c, 0, 64, 67
1, 304173, Control_c, 0, 64, 68
1, 304188, Control_c, 0, 64, 70
1, 304203, Control_c, 0, 64, 71
1, 304218, Control_c, 0, 64, 72
1, 304233, Control_c, 0, 64, 74
1, 304247, Control_c, 0, 64, 77
1, 304262, Control_c, 0, 64, 82
1, 304277, Control_c, 0, 64, 87
1, 304292, Control_c, 0, 64, 91
1, 304307, Control_c, 0, 64, 95
1, 304322, Control_c, 0, 64, 97
1, 304337, Control_c, 0, 64, 100
1, 304351, Control_c, 0, 64, 104
1, 304366, Control_c, 0, 64, 109
1, 304381, Control_c, 0, 64, 114
1, 304396, Control_c, 0, 64, 127
1, 304647, Control_c, 0, 64, 121
1, 304662, Control_c, 0, 64, 115
1, 304677, Control_c, 0, 64, 113
1, 304692, Control_c, 0, 64, 111
1, 304714, Note_on_c, 0, 57, 39
1, 304714, Control_c, 0, 64, 109
1, 304730, Control_c, 0, 64, 105
1, 304745, Control_c, 0, 64, 101
1, 304760, Control_c, 0, 64, 98
1, 304775, Control_c, 0, 64, 96
1, 304789, Control_c, 0, 64, 93
1, 304804, Control_c, 0, 64, 88
1, 304819, Control_c, 0, 64, 83
1, 304834, Control_c, 0, 64, 80
1, 304849, Control_c, 0, 64, 77
1, 304859, Note_off_c, 0, 54, 44
1, 304863, Control_c, 0, 64, 73
1, 304878, Control_c, 0, 64, 70
1, 304893, Control_c, 0, 64, 67
1, 304922, Control_c, 0, 64, 68
1, 304937, Control_c, 0, 64, 70
1, 304952, Control_c, 0, 64, 72
1, 304967, Control_c, 0, 64, 73
1, 304981, Control_c, 0, 64, 76
1, 304996, Control_c, 0, 64, 80
1, 305011, Control_c, 0, 64, 85
1, 305026, Control_c, 0, 64, 90
1, 305041, Control_c, 0, 64, 96
1, 305055, Control_c, 0, 64, 101
1, 305070, Control_c, 0, 64, 106
1, 305082, Note_off_c, 0, 69, 58
1, 305085, Control_c, 0, 64, 110
1, 305100, Control_c, 0, 64, 115
1, 305115, Control_c, 0, 64, 122
1, 305130, Control_c, 0, 64, 127
1, 305538, Control_c, 0, 64, 123
1, 305550, Note_on_c, 0, 69, 67
1, 305553, Control_c, 0, 64, 119
1, 305568, Control_c, 0, 64, 114
1, 305583, Control_c, 0, 64, 110
1, 305589, Note_on_c, 0, 54, 40
1, 305598, Control_c, 0, 64, 107
1, 305612, Control_c, 0, 64, 105
1, 305627, Control_c, 0, 64, 103
1, 305642, Control_c, 0, 64, 99
1, 305657, Control_c, 0, 64, 95
1, 305672, Control_c, 0, 64, 92
1, 305686, Control_c, 0, 64, 89
1, 305701, Control_c, 0, 64, 86
1, 305716, Control_c, 0, 64, 82
1, 305730, Control_c, 0, 64, 78
1, 305745, Control_c, 0, 64, 73
1, 305760, Control_c, 0, 64, 70
1, 305762, Note_off_c, 0, 57, 38
1, 305775, Control_c, 0, 64, 68
1, 305790, Control_c, 0, 64, 66
1, 305804, Control_c, 0, 64, 64
1, 305834, Control_c, 0, 64, 65
1, 305834, Control_c, 0, 67, 127
1, 305848, Control_c, 0, 64, 67
1, 305848, Control_c, 0, 67, 126
1, 305860, Note_off_c, 0, 63, 40
1, 305863, Control_c, 0, 64, 69
1, 305863, Control_c, 0, 67, 125
1, 305878, Control_c, 0, 64, 71
1, 305878, Control_c, 0, 67, 125
1, 305893, Control_c, 0, 64, 75
1, 305908, Control_c, 0, 64, 79
1, 305923, Control_c, 0, 64, 84
1, 305938, Control_c, 0, 64, 89
1, 305953, Control_c, 0, 64, 94
1, 305967, Control_c, 0, 64, 98
1, 305982, Control_c, 0, 64, 104
1, 305997, Control_c, 0, 64, 110
1, 306012, Control_c, 0, 64, 120
1, 306027, Control_c, 0, 64, 127
1, 306057, Note_off_c, 0, 48, 41
1, 306167, Note_off_c, 0, 54, 46
1, 306175, Control_c, 0, 67, 125
1, 306208, Note_on_c, 0, 75, 74
1, 306225, Note_off_c, 0, 69, 56
1, 306271, Control_c, 0, 67, 126
1, 306306, Note_off_c, 0, 75, 61
1, 306376, Control_c, 0, 64, 114
1, 306391, Control_c, 0, 64, 108
1, 306406, Control_c, 0, 64, 105
1, 306421, Control_c, 0, 64, 101
1, 306429, Note_on_c, 0, 75, 72
1, 306435, Control_c, 0, 64, 97
1, 306435, Control_c, 0, 67, 126
1, 306450, Control_c, 0, 64, 93
1, 306465, Control_c, 0, 64, 90
1, 306480, Control_c, 0, 64, 88
1, 306495, Control_c, 0, 64, 85
1, 306510, Control_c, 0, 64, 81
1, 306525, Control_c, 0, 64, 77
1, 306540, Control_c, 0, 64, 74
1, 306554, Control_c, 0, 64, 69
1, 306569, Control_c, 0, 64, 66
1, 306584, Control_c, 0, 64, 65
1, 306599, Control_c, 0, 64, 64
1, 306628, Control_c, 0, 64, 64
1, 306643, Control_c, 0, 64, 63
1, 306658, Control_c, 0, 64, 63
1, 306672, Control_c, 0, 64, 64
1, 306687, Control_c, 0, 64, 65
1, 306702, Control_c, 0, 64, 66
1, 306717, Control_c, 0, 64, 67
1, 306732, Control_c, 0, 64, 70
1, 306746, Control_c, 0, 64, 73
1, 306761, Control_c, 0, 64, 76
1, 306776, Control_c, 0, 64, 80
1, 306791, Control_c, 0, 64, 84
1, 306806, Control_c, 0, 64, 89
1, 306820, Control_c, 0, 64, 93
1, 306835, Control_c, 0, 64, 97
1, 306850, Control_c, 0, 64, 101
1, 306865, Control_c, 0, 64, 107
1, 306880, Control_c, 0, 64, 117
1, 306895, Control_c, 0, 64, 127
1, 307022, Note_off_c, 0, 75, 38
1, 307243, Control_c, 0, 67, 127
1, 307296, Note_on_c, 0, 74, 55
1, 307317, Control_c, 0, 64, 123
1, 307321, Note_on_c, 0, 62, 38
1, 307321, Note_on_c, 0, 47, 31
1, 307324, Note_on_c, 0, 55, 37
1, 307332, Control_c, 0, 64, 112
1, 307347, Control_c, 0, 64, 104
1, 307362, Control_c, 0, 64, 97
1, 307376, Control_c, 0, 64, 93
1, 307391, Control_c, 0, 64, 89
1, 307406, Control_c, 0, 64, 84
1, 307421, Control_c, 0, 64, 78
1, 307421, Control_c, 0, 67, 127
1, 307436, Control_c, 0, 64, 74
1, 307450, Control_c, 0, 64, 71
1, 307465, Control_c, 0, 64, 68
1, 307480, Control_c, 0, 64, 66
1, 307494, Control_c, 0, 64, 64
1, 307509, Control_c, 0, 64, 63
1, 307539, Control_c, 0, 64, 62
1, 307554, Control_c, 0, 64, 59
1, 307583, Control_c, 0, 64, 62
1, 307598, Control_c, 0, 64, 65
1, 307613, Control_c, 0, 64, 66
1, 307628, Control_c, 0, 64, 67
1, 307643, Control_c, 0, 64, 68
1, 307658, Control_c, 0, 64, 70
1, 307673, Control_c, 0, 64, 74
1, 307687, Control_c, 0, 64, 79
1, 307709, Control_c, 0, 64, 85
1, 307724, Control_c, 0, 64, 90
1, 307739, Control_c, 0, 64, 94
1, 307739, Control_c, 0, 67, 126
1, 307754, Control_c, 0, 64, 98
1, 307769, Control_c, 0, 64, 101
1, 307783, Control_c, 0, 64, 104
1, 307795, Note_off_c, 0, 62, 35
1, 307798, Control_c, 0, 64, 107
1, 307813, Control_c, 0, 64, 109
1, 307813, Control_c, 0, 67, 126
1, 307828, Control_c, 0, 64, 110
1, 307842, Control_c, 0, 64, 111
1, 307857, Control_c, 0, 64, 112
1, 307886, Note_off_c, 0, 55, 41
1, 307899, Note_off_c, 0, 74, 39
1, 307950, Note_on_c, 0, 67, 47
1, 307990, Note_off_c, 0, 67, 61
1, 308001, Note_off_c, 0, 47, 40
1, 308021, Control_c, 0, 64, 111
1, 308081, Control_c, 0, 64, 111
1, 308096, Control_c, 0, 64, 110
1, 308111, Control_c, 0, 64, 109
1, 308111, Control_c, 0, 67, 126
1, 308125, Control_c, 0, 64, 108
1, 308140, Control_c, 0, 64, 108
1, 308155, Control_c, 0, 64, 106
1, 308170, Control_c, 0, 64, 102
1, 308185, Control_c, 0, 64, 100
1, 308199, Control_c, 0, 64, 98
1, 308199, Control_c, 0, 67, 127
1, 308211, Note_on_c, 0, 67, 46
1, 308214, Control_c, 0, 64, 96
1, 308229, Control_c, 0, 64, 92
1, 308243, Control_c, 0, 64, 88
1, 308258, Control_c, 0, 64, 84
1, 308258, Control_c, 0, 67, 127
1, 308273, Control_c, 0, 64, 81
1, 308288, Control_c, 0, 64, 77
1, 308303, Control_c, 0, 64, 72
1, 308317, Control_c, 0, 64, 69
1, 308332, Control_c, 0, 64, 67
1, 308347, Control_c, 0, 64, 66
1, 308362, Control_c, 0, 64, 64
1, 308377, Control_c, 0, 64, 63
1, 308391, Control_c, 0, 64, 62
1, 308406, Control_c, 0, 64, 61
1, 308421, Control_c, 0, 64, 60
1, 308436, Control_c, 0, 64, 54
1, 308458, Control_c, 0, 64, 42
1, 308473, Control_c, 0, 64, 41
1, 308503, Control_c, 0, 64, 46
1, 308518, Control_c, 0, 64, 51
1, 308532, Control_c, 0, 64, 54
1, 308547, Control_c, 0, 64, 57
1, 308562, Control_c, 0, 64, 62
1, 308577, Control_c, 0, 64, 65
1, 308592, Control_c, 0, 64, 69
1, 308606, Control_c, 0, 64, 71
1, 308621, Control_c, 0, 64, 74
1, 308636, Control_c, 0, 64, 78
1, 308650, Control_c, 0, 64, 85
1, 308665, Control_c, 0, 64, 92
1, 308680, Control_c, 0, 64, 96
1, 308695, Control_c, 0, 64, 98
1, 308710, Control_c, 0, 64, 101
1, 308724, Note_off_c, 0, 67, 50
1, 308726, Control_c, 0, 64, 105
1, 308741, Control_c, 0, 64, 111
1, 308755, Control_c, 0, 64, 117
1, 308770, Control_c, 0, 64, 127
1, 309066, Control_c, 0, 64, 120
1, 309067, Note_on_c, 0, 66, 41
1, 309081, Control_c, 0, 64, 113
1, 309085, Note_on_c, 0, 50, 31
1, 309085, Note_on_c, 0, 60, 33
1, 309096, Control_c, 0, 64, 106
1, 309111, Control_c, 0, 64, 104
1, 309112, Note_on_c, 0, 57, 18
1, 309126, Control_c, 0, 64, 103
1, 309140, Control_c, 0, 64, 101
1, 309155, Control_c, 0, 64, 96
1, 309170, Control_c, 0, 64, 91
1, 309193, Control_c, 0, 64, 87
1, 309208, Control_c, 0, 64, 84
1, 309222, Control_c, 0, 64, 80
1, 309237, Control_c, 0, 64, 76
1, 309252, Control_c, 0, 64, 72
1, 309266, Control_c, 0, 64, 68
1, 309281, Control_c, 0, 64, 67
1, 309296, Control_c, 0, 64, 65
1, 309311, Control_c, 0, 64, 65
1, 309326, Control_c, 0, 64, 64
1, 309371, Control_c, 0, 64, 65
1, 309386, Control_c, 0, 64, 66
1, 309401, Control_c, 0, 64, 67
1, 309416, Control_c, 0, 64, 69
1, 309430, Control_c, 0, 64, 70
1, 309445, Control_c, 0, 64, 72
1, 309460, Control_c, 0, 64, 75
1, 309474, Control_c, 0, 64, 79
1, 309489, Control_c, 0, 64, 83
1, 309504, Control_c, 0, 64, 83
1, 309520, Control_c, 0, 64, 84
1, 309535, Control_c, 0, 64, 86
1, 309550, Control_c, 0, 64, 90
1, 309565, Control_c, 0, 64, 94
1, 309569, Note_off_c, 0, 60, 34
1, 309579, Control_c, 0, 64, 96
1, 309594, Control_c, 0, 64, 97
1, 309609, Control_c, 0, 64, 98
1, 309624, Control_c, 0, 64, 100
1, 309638, Control_c, 0, 64, 103
1, 309653, Control_c, 0, 64, 106
1, 309668, Control_c, 0, 64, 107
1, 309703, Note_on_c, 0, 69, 49
1, 309712, Control_c, 0, 64, 109
1, 309720, Note_off_c, 0, 57, 40
1, 309727, Control_c, 0, 64, 110
1, 309777, Note_off_c, 0, 66, 38
1, 309783, Note_off_c, 0, 69, 56
1, 309798, Note_off_c, 0, 50, 45
1, 309920, Control_c, 0, 64, 110
1, 309942, Control_c, 0, 64, 109
1, 309971, Control_c, 0, 64, 108
1, 309986, Control_c, 0, 64, 106
1, 310001, Control_c, 0, 64, 104
1, 310007, Note_on_c, 0, 69, 41
1, 310016, Control_c, 0, 64, 102
1, 310030, Control_c, 0, 64, 99
1, 310045, Control_c, 0, 64, 96
1, 310060, Control_c, 0, 64, 93
1, 310075, Control_c, 0, 64, 89
1, 310090, Control_c, 0, 64, 85
1, 310105, Control_c, 0, 64, 82
1, 310120, Control_c, 0, 64, 79
1, 310135, Control_c, 0, 64, 76
1, 310150, Control_c, 0, 64, 72
1, 310164, Control_c, 0, 64, 70
1, 310179, Control_c, 0, 64, 68
1, 310194, Control_c, 0, 64, 67
1, 310209, Control_c, 0, 64, 66
1, 310223, Control_c, 0, 64, 64
1, 310238, Control_c, 0, 64, 63
1, 310297, Control_c, 0, 64, 63
1, 310312, Control_c, 0, 64, 62
1, 310388, Control_c, 0, 64, 63
1, 310402, Control_c, 0, 64, 63
1, 310432, Control_c, 0, 64, 64
1, 310462, Note_on_c, 0, 71, 46
1, 310476, Control_c, 0, 64, 65
1, 310524, Note_off_c, 0, 69, 57
1, 310550, Control_c, 0, 64, 66
1, 310609, Control_c, 0, 64, 66
1, 310624, Control_c, 0, 64, 67
1, 310639, Control_c, 0, 64, 67
1, 310706, Control_c, 0, 64, 68
1, 310720, Control_c, 0, 64, 69
1, 310735, Control_c, 0, 64, 70
1, 310780, Control_c, 0, 64, 71
1, 310794, Control_c, 0, 64, 73
1, 310809, Control_c, 0, 64, 75
1, 310838, Control_c, 0, 64, 75
1, 310853, Control_c, 0, 64, 76
1, 310868, Control_c, 0, 64, 79
1, 310883, Control_c, 0, 64, 83
1, 310898, Control_c, 0, 64, 84
1, 310912, Control_c, 0, 64, 85
1, 310927, Control_c, 0, 64, 87
1, 310936, Note_on_c, 0, 55, 28
1, 310942, Control_c, 0, 64, 92
1, 310943, Note_on_c, 0, 59, 21
1, 310949, Note_on_c, 0, 43, 24
1, 310952, Note_on_c, 0, 62, 18
1, 310957, Control_c, 0, 64, 98
1, 310972, Control_c, 0, 64, 100
1, 311016, Control_c, 0, 64, 102
1, 311031, Control_c, 0, 64, 112
1, 311045, Control_c, 0, 64, 127
1, 311243, Note_off_c, 0, 55, 42
1, 311266, Note_off_c, 0, 59, 40
1, 311292, Note_off_c, 0, 43, 40
1, 311311, Note_off_c, 0, 62, 38
1, 311832, Note_on_c, 0, 59, 11
1, 311840, Poly_aftertouch_c, 0, 62, 127
1, 311843, Note_on_c, 0, 43, 14
1, 311887, Poly_aftertouch_c, 0, 55, 127
1, 312047, Note_off_c, 0, 59, 42
1, 312104, Poly_aftertouch_c, 0, 62, 0
1, 312141, Note_off_c, 0, 71, 44
1, 312180, Note_off_c, 0, 43, 40
1, 312219, Poly_aftertouch_c, 0, 55, 0
1, 312422, Note_on_c, 0, 72, 48
1, 312518, Note_on_c, 0, 71, 57
1, 312545, Note_off_c, 0, 72, 45
1, 312588, Control_c, 0, 64, 119
1, 312603, Control_c, 0, 64, 113
1, 312606, Note_off_c, 0, 71, 62
1, 312611, Note_on_c, 0, 69, 59
1, 312618, Control_c, 0, 64, 110
1, 312633, Control_c, 0, 64, 108
1, 312648, Control_c, 0, 64, 102
1, 312663, Control_c, 0, 64, 97
1, 312677, Control_c, 0, 64, 94
1, 312692, Control_c, 0, 64, 92
1, 312707, Note_on_c, 0, 71, 64
1, 312707, Control_c, 0, 64, 92
1, 312722, Control_c, 0, 64, 90
1, 312737, Note_off_c, 0, 69, 46
1, 312737, Control_c, 0, 64, 85
1, 312752, Control_c, 0, 64, 81
1, 312767, Control_c, 0, 64, 78
1, 312782, Control_c, 0, 64, 76
1, 312797, Control_c, 0, 64, 73
1, 312812, Control_c, 0, 64, 70
1, 312827, Control_c, 0, 64, 67
1, 312841, Control_c, 0, 64, 66
1, 312856, Control_c, 0, 64, 65
1, 312871, Control_c, 0, 64, 63
1, 312886, Control_c, 0, 64, 57
1, 312901, Control_c, 0, 64, 51
1, 312915, Control_c, 0, 64, 47
1, 312937, Control_c, 0, 64, 44
1, 312952, Control_c, 0, 64, 40
1, 312967, Control_c, 0, 64, 39
1, 312982, Control_c, 0, 64, 40
1, 312996, Control_c, 0, 64, 40
1, 313011, Control_c, 0, 64, 46
1, 313026, Control_c, 0, 64, 56
1, 313041, Control_c, 0, 64, 64
1, 313056, Control_c, 0, 64, 67
1, 313071, Control_c, 0, 64, 69
1, 313086, Control_c, 0, 64, 70
1, 313087, Note_on_c, 0, 72, 68
1, 313101, Control_c, 0, 64, 72
1, 313115, Control_c, 0, 64, 76
1, 313130, Control_c, 0, 64, 84
1, 313145, Control_c, 0, 64, 90
1, 313148, Note_off_c, 0, 71, 62
1, 313160, Control_c, 0, 64, 92
1, 313175, Control_c, 0, 64, 93
1, 313187, Note_off_c, 0, 72, 65
1, 313189, Control_c, 0, 64, 96
1, 313204, Control_c, 0, 64, 104
1, 313219, Control_c, 0, 64, 127
1, 313225, Note_on_c, 0, 53, 61
1, 313293, Control_c, 0, 67, 127
1, 313337, Control_c, 0, 67, 126
1, 313396, Control_c, 0, 67, 126
1, 313411, Control_c, 0, 67, 125
1, 313473, Note_on_c, 0, 75, 68
1, 313485, Control_c, 0, 67, 125
1, 313509, Note_on_c, 0, 68, 48
1, 313545, Control_c, 0, 64, 124
1, 313560, Control_c, 0, 64, 111
1, 313575, Control_c, 0, 64, 101
1, 313590, Control_c, 0, 64, 92
1, 313605, Control_c, 0, 64, 88
1, 313619, Control_c, 0, 64, 86
1, 313634, Control_c, 0, 64, 85
1, 313649, Control_c, 0, 64, 82
1, 313664, Control_c, 0, 64, 76
1, 313686, Control_c, 0, 64, 69
1, 313701, Control_c, 0, 64, 64
1, 313716, Control_c, 0, 64, 64
1, 313731, Control_c, 0, 64, 64
1, 313760, Control_c, 0, 67, 125
1, 313775, Control_c, 0, 64, 65
1, 313790, Control_c, 0, 64, 69
1, 313805, Control_c, 0, 64, 73
1, 313819, Control_c, 0, 64, 78
1, 313819, Control_c, 0, 67, 126
1, 313834, Control_c, 0, 64, 83
1, 313849, Control_c, 0, 64, 86
1, 313864, Control_c, 0, 64, 89
1, 313879, Control_c, 0, 64, 94
1, 313894, Control_c, 0, 64, 100
1, 313909, Control_c, 0, 64, 104
1, 313923, Control_c, 0, 64, 106
1, 313923, Control_c, 0, 67, 125
1, 313938, Control_c, 0, 64, 107
1, 313953, Control_c, 0, 64, 109
1, 313953, Control_c, 0, 67, 125
1, 313968, Control_c, 0, 64, 111
1, 313983, Control_c, 0, 64, 112
1, 314027, Note_on_c, 0, 74, 75
1, 314081, Note_off_c, 0, 75, 56
1, 314131, Control_c, 0, 64, 112
1, 314145, Control_c, 0, 67, 125
1, 314189, Control_c, 0, 64, 110
1, 314204, Control_c, 0, 64, 108
1, 314219, Control_c, 0, 64, 108
1, 314234, Control_c, 0, 64, 106
1, 314236, Note_on_c, 0, 77, 67
1, 314249, Control_c, 0, 64, 104
1, 314263, Control_c, 0, 64, 100
1, 314263, Control_c, 0, 67, 126
1, 314278, Control_c, 0, 64, 96
1, 314284, Note_on_c, 0, 59, 41
1, 314293, Control_c, 0, 64, 91
1, 314309, Control_c, 0, 64, 87
1, 314324, Control_c, 0, 64, 84
1, 314339, Control_c, 0, 64, 80
1, 314353, Note_off_c, 0, 74, 57
1, 314354, Control_c, 0, 64, 76
1, 314368, Control_c, 0, 64, 70
1, 314383, Control_c, 0, 64, 66
1, 314398, Control_c, 0, 64, 64
1, 314413, Control_c, 0, 64, 62
1, 314435, Control_c, 0, 64, 61
1, 314450, Control_c, 0, 64, 59
1, 314465, Control_c, 0, 64, 59
1, 314480, Control_c, 0, 64, 61
1, 314494, Control_c, 0, 64, 64
1, 314509, Control_c, 0, 64, 66
1, 314524, Control_c, 0, 64, 69
1, 314539, Control_c, 0, 64, 72
1, 314554, Control_c, 0, 64, 76
1, 314568, Control_c, 0, 64, 79
1, 314583, Control_c, 0, 64, 83
1, 314598, Control_c, 0, 64, 87
1, 314612, Control_c, 0, 64, 91
1, 314612, Control_c, 0, 67, 125
1, 314627, Control_c, 0, 64, 93
1, 314642, Control_c, 0, 64, 96
1, 314657, Control_c, 0, 64, 100
1, 314672, Control_c, 0, 64, 103
1, 314687, Control_c, 0, 64, 106
1, 314701, Control_c, 0, 64, 108
1, 314716, Control_c, 0, 64, 111
1, 314731, Control_c, 0, 64, 114
1, 314746, Control_c, 0, 64, 115
1, 314776, Control_c, 0, 64, 115
1, 314791, Control_c, 0, 64, 116
1, 314805, Control_c, 0, 64, 116
1, 314894, Control_c, 0, 64, 116
1, 314968, Control_c, 0, 64, 114
1, 314983, Control_c, 0, 64, 111
1, 314998, Control_c, 0, 64, 109
1, 315006, Note_on_c, 0, 62, 49
1, 315012, Control_c, 0, 64, 109
1, 315027, Control_c, 0, 64, 108
1, 315042, Control_c, 0, 64, 106
1, 315057, Control_c, 0, 64, 102
1, 315072, Control_c, 0, 64, 99
1, 315086, Control_c, 0, 64, 96
1, 315101, Control_c, 0, 64, 94
1, 315117, Control_c, 0, 64, 91
1, 315132, Control_c, 0, 64, 86
1, 315134, Note_off_c, 0, 59, 48
1, 315147, Control_c, 0, 64, 81
1, 315147, Control_c, 0, 67, 125
1, 315162, Control_c, 0, 64, 76
1, 315177, Control_c, 0, 64, 72
1, 315199, Control_c, 0, 64, 70
1, 315199, Control_c, 0, 67, 124
1, 315214, Control_c, 0, 64, 71
1, 315229, Control_c, 0, 64, 71
1, 315243, Control_c, 0, 64, 73
1, 315243, Control_c, 0, 67, 124
1, 315258, Control_c, 0, 64, 75
1, 315258, Control_c, 0, 67, 123
1, 315273, Control_c, 0, 64, 78
1, 315288, Control_c, 0, 64, 81
1, 315288, Control_c, 0, 67, 123
1, 315303, Control_c, 0, 64, 85
1, 315317, Control_c, 0, 64, 87
1, 315332, Control_c, 0, 64, 88
1, 315332, Control_c, 0, 67, 122
1, 315347, Control_c, 0, 64, 89
1, 315347, Control_c, 0, 67, 122
1, 315362, Control_c, 0, 64, 89
1, 315362, Control_c, 0, 67, 120
1, 315377, Control_c, 0, 67, 116
1, 315391, Control_c, 0, 64, 90
1, 315391, Control_c, 0, 67, 113
1, 315406, Control_c, 0, 67, 111
1, 315421, Control_c, 0, 67, 108
1, 315435, Control_c, 0, 67, 105
1, 315450, Control_c, 0, 67, 103
1, 315465, Control_c, 0, 64, 91
1, 315465, Control_c, 0, 67, 101
1, 315480, Control_c, 0, 64, 92
1, 315480, Control_c, 0, 67, 99
1, 315495, Control_c, 0, 64, 95
1, 315495, Control_c, 0, 67, 96
1, 315509, Control_c, 0, 64, 97
1, 315509, Control_c, 0, 67, 93
1, 315524, Control_c, 0, 64, 100
1, 315524, Control_c, 0, 67, 90
1, 315539, Control_c, 0, 64, 103
1, 315539, Control_c, 0, 67, 86
1, 315554, Control_c, 0, 64, 106
1, 315554, Control_c, 0, 67, 80
1, 315569, Control_c, 0, 64, 108
1, 315569, Control_c, 0, 67, 72
1, 315584, Control_c, 0, 64, 112
1, 315584, Control_c, 0, 67, 64
1, 315599, Control_c, 0, 64, 119
1, 315599, Control_c, 0, 67, 57
1, 315614, Control_c, 0, 64, 127
1, 315614, Control_c, 0, 67, 50
1, 315628, Control_c, 0, 67, 45
1, 315643, Control_c, 0, 67, 37
1, 315658, Control_c, 0, 67, 30
1, 315673, Control_c, 0, 67, 24
1, 315688, Control_c, 0, 67, 18
1, 315702, Control_c, 0, 67, 13
1, 315717, Control_c, 0, 67, 8
1, 315732, Control_c, 0, 67, 0
1, 315754, Note_on_c, 0, 59, 41
1, 315773, Note_off_c, 0, 77, 38
1, 315874, Note_off_c, 0, 53, 42
1, 315885, Note_off_c, 0, 62, 58
1, 315970, Note_off_c, 0, 68, 39
1, 316061, Note_off_c, 0, 59, 59
1, 316278, Note_on_c, 0, 53, 56
1, 316284, Note_on_c, 0, 74, 74
1, 316380, Note_on_c, 0, 77, 78
1, 316411, Note_off_c, 0, 74, 62
1, 316466, Control_c, 0, 64, 110
1, 316481, Control_c, 0, 64, 101
1, 316488, Note_on_c, 0, 75, 78
1, 316496, Control_c, 0, 64, 96
1, 316504, Note_on_c, 0, 68, 54
1, 316511, Control_c, 0, 64, 93
1, 316525, Control_c, 0, 64, 90
1, 316540, Control_c, 0, 64, 86
1, 316555, Control_c, 0, 64, 81
1, 316570, Control_c, 0, 64, 78
1, 316584, Control_c, 0, 64, 74
1, 316595, Note_off_c, 0, 77, 53
1, 316599, Control_c, 0, 64, 71
1, 316614, Control_c, 0, 64, 68
1, 316629, Control_c, 0, 64, 66
1, 316644, Control_c, 0, 64, 65
1, 316681, Control_c, 0, 64, 64
1, 316696, Control_c, 0, 64, 62
1, 316711, Control_c, 0, 64, 56
1, 316726, Control_c, 0, 64, 54
1, 316741, Control_c, 0, 64, 59
1, 316756, Control_c, 0, 64, 63
1, 316770, Control_c, 0, 64, 64
1, 316785, Control_c, 0, 64, 65
1, 316800, Control_c, 0, 64, 67
1, 316815, Control_c, 0, 64, 70
1, 316829, Control_c, 0, 64, 74
1, 316844, Control_c, 0, 64, 78
1, 316859, Control_c, 0, 64, 82
1, 316874, Control_c, 0, 64, 87
1, 316888, Control_c, 0, 64, 91
1, 316903, Control_c, 0, 64, 95
1, 316918, Control_c, 0, 64, 100
1, 316933, Control_c, 0, 64, 104
1, 316948, Control_c, 0, 64, 109
1, 316962, Control_c, 0, 64, 114
1, 316977, Control_c, 0, 64, 115
1, 316992, Control_c, 0, 64, 116
1, 317057, Note_on_c, 0, 74, 72
1, 317095, Control_c, 0, 64, 115
1, 317125, Note_off_c, 0, 75, 59
1, 317125, Control_c, 0, 64, 114
1, 317140, Control_c, 0, 64, 111
1, 317155, Control_c, 0, 64, 109
1, 317170, Control_c, 0, 64, 108
1, 317185, Control_c, 0, 64, 106
1, 317199, Control_c, 0, 64, 103
1, 317214, Control_c, 0, 64, 99
1, 317229, Control_c, 0, 64, 96
1, 317244, Control_c, 0, 64, 94
1, 317259, Control_c, 0, 64, 93
1, 317262, Note_on_c, 0, 77, 63
1, 317273, Control_c, 0, 64, 90
1, 317285, Note_on_c, 0, 59, 40
1, 317288, Control_c, 0, 64, 87
1, 317303, Control_c, 0, 64, 83
1, 317318, Control_c, 0, 64, 81
1, 317333, Control_c, 0, 64, 79
1, 317347, Control_c, 0, 64, 76
1, 317362, Control_c, 0, 64, 73
1, 317363, Note_off_c, 0, 74, 62
1, 317377, Control_c, 0, 64, 69
1, 317392, Control_c, 0, 64, 66
1, 317406, Control_c, 0, 64, 65
1, 317429, Control_c, 0, 64, 63
1, 317444, Control_c, 0, 64, 60
1, 317459, Control_c, 0, 64, 54
1, 317474, Control_c, 0, 64, 54
1, 317488, Control_c, 0, 64, 56
1, 317504, Control_c, 0, 64, 58
1, 317518, Control_c, 0, 64, 59
1, 317533, Control_c, 0, 64, 61
1, 317548, Control_c, 0, 64, 63
1, 317563, Control_c, 0, 64, 66
1, 317578, Control_c, 0, 64, 70
1, 317592, Control_c, 0, 64, 75
1, 317607, Control_c, 0, 64, 80
1, 317622, Control_c, 0, 64, 86
1, 317636, Control_c, 0, 64, 91
1, 317651, Control_c, 0, 64, 95
1, 317666, Control_c, 0, 64, 97
1, 317681, Control_c, 0, 64, 102
1, 317696, Control_c, 0, 64, 106
1, 317710, Control_c, 0, 64, 109
1, 317725, Control_c, 0, 64, 109
1, 317740, Control_c, 0, 64, 110
1, 317888, Control_c, 0, 64, 109
1, 317903, Control_c, 0, 64, 109
1, 317918, Control_c, 0, 64, 108
1, 317933, Control_c, 0, 64, 106
1, 317948, Control_c, 0, 64, 105
1, 317963, Control_c, 0, 64, 103
1, 317977, Control_c, 0, 64, 102
1, 317992, Control_c, 0, 64, 101
1, 318007, Control_c, 0, 64, 100
1, 318022, Control_c, 0, 64, 98
1, 318029, Note_on_c, 0, 62, 47
1, 318036, Control_c, 0, 64, 97
1, 318051, Control_c, 0, 64, 96
1, 318066, Control_c, 0, 64, 95
1, 318081, Control_c, 0, 64, 92
1, 318096, Control_c, 0, 64, 89
1, 318110, Control_c, 0, 64, 86
1, 318125, Control_c, 0, 64, 84
1, 318140, Control_c, 0, 64, 83
1, 318150, Note_off_c, 0, 59, 49
1, 318154, Control_c, 0, 64, 80
1, 318169, Control_c, 0, 64, 76
1, 318192, Control_c, 0, 64, 72
1, 318207, Control_c, 0, 64, 70
1, 318222, Control_c, 0, 64, 69
1, 318266, Control_c, 0, 64, 70
1, 318281, Control_c, 0, 64, 71
1, 318296, Control_c, 0, 64, 75
1, 318311, Control_c, 0, 64, 79
1, 318326, Control_c, 0, 64, 83
1, 318341, Control_c, 0, 64, 86
1, 318356, Control_c, 0, 64, 90
1, 318371, Control_c, 0, 64, 94
1, 318386, Control_c, 0, 64, 97
1, 318400, Control_c, 0, 64, 101
1, 318415, Control_c, 0, 64, 105
1, 318430, Control_c, 0, 64, 109
1, 318445, Control_c, 0, 64, 117
1, 318459, Control_c, 0, 64, 127
1, 318769, Note_on_c, 0, 74, 74
1, 318800, Control_c, 0, 64, 115
1, 318809, Note_on_c, 0, 59, 34
1, 318815, Control_c, 0, 64, 108
1, 318830, Control_c, 0, 64, 105
1, 318845, Control_c, 0, 64, 103
1, 318859, Control_c, 0, 64, 99
1, 318865, Note_off_c, 0, 77, 56
1, 318874, Control_c, 0, 64, 94
1, 318889, Control_c, 0, 64, 89
1, 318904, Control_c, 0, 64, 85
1, 318919, Control_c, 0, 64, 83
1, 318938, Note_off_c, 0, 62, 54
1, 318940, Control_c, 0, 64, 80
1, 318955, Control_c, 0, 64, 75
1, 318970, Control_c, 0, 64, 68
1, 318985, Control_c, 0, 64, 64
1, 319000, Control_c, 0, 64, 64
1, 319015, Control_c, 0, 64, 65
1, 319030, Control_c, 0, 64, 66
1, 319059, Control_c, 0, 64, 65
1, 319074, Control_c, 0, 64, 66
1, 319089, Note_off_c, 0, 68, 46
1, 319089, Control_c, 0, 64, 68
1, 319105, Control_c, 0, 64, 72
1, 319120, Control_c, 0, 64, 79
1, 319135, Control_c, 0, 64, 86
1, 319149, Control_c, 0, 64, 93
1, 319164, Control_c, 0, 64, 99
1, 319179, Control_c, 0, 64, 105
1, 319194, Control_c, 0, 64, 112
1, 319209, Control_c, 0, 64, 127
1, 319344, Note_on_c, 0, 80, 76
1, 319367, Note_off_c, 0, 53, 36
1, 319417, Note_off_c, 0, 74, 61
1, 319460, Note_off_c, 0, 59, 41
1, 319469, Note_off_c, 0, 80, 59
1, 319579, Note_on_c, 0, 80, 76
1, 319653, Control_c, 0, 64, 118
1, 319668, Control_c, 0, 64, 111
1, 319690, Control_c, 0, 64, 102
1, 319705, Control_c, 0, 64, 94
1, 319720, Control_c, 0, 64, 88
1, 319735, Control_c, 0, 64, 84
1, 319750, Control_c, 0, 64, 80
1, 319764, Control_c, 0, 64, 75
1, 319779, Control_c, 0, 64, 68
1, 319794, Control_c, 0, 64, 65
1, 319808, Control_c, 0, 64, 64
1, 319823, Control_c, 0, 64, 64
1, 319868, Control_c, 0, 64, 64
1, 319882, Control_c, 0, 64, 66
1, 319897, Control_c, 0, 64, 68
1, 319897, Control_c, 0, 67, 11
1, 319913, Control_c, 0, 64, 71
1, 319913, Control_c, 0, 67, 16
1, 319928, Control_c, 0, 64, 75
1, 319928, Control_c, 0, 67, 23
1, 319943, Control_c, 0, 64, 81
1, 319943, Control_c, 0, 67, 33
1, 319958, Control_c, 0, 64, 90
1, 319958, Control_c, 0, 67, 42
1, 319973, Control_c, 0, 64, 97
1, 319973, Control_c, 0, 67, 49
1, 319987, Control_c, 0, 64, 102
1, 319987, Control_c, 0, 67, 57
1, 320002, Control_c, 0, 64, 106
1, 320002, Control_c, 0, 67, 65
1, 320017, Control_c, 0, 64, 111
1, 320017, Control_c, 0, 67, 75
1, 320031, Control_c, 0, 64, 118
1, 320031, Control_c, 0, 67, 84
1, 320046, Control_c, 0, 64, 127
1, 320046, Control_c, 0, 67, 92
1, 320061, Control_c, 0, 67, 98
1, 320076, Control_c, 0, 67, 105
1, 320091, Control_c, 0, 67, 111
1, 320106, Control_c, 0, 67, 118
1, 320121, Control_c, 0, 67, 124
1, 320136, Control_c, 0, 67, 127
1, 320142, Note_off_c, 0, 80, 36
1, 320381, Note_on_c, 0, 79, 55
1, 320399, Note_on_c, 0, 60, 37
1, 320411, Note_on_c, 0, 67, 39
1, 320425, Note_on_c, 0, 51, 35
1, 320439, Control_c, 0, 64, 117
1, 320454, Control_c, 0, 64, 103
1, 320469, Control_c, 0, 64, 96
1, 320484, Control_c, 0, 64, 95
1, 320499, Control_c, 0, 64, 94
1, 320513, Control_c, 0, 64, 92
1, 320528, Control_c, 0, 64, 86
1, 320543, Control_c, 0, 64, 78
1, 320557, Control_c, 0, 64, 74
1, 320572, Control_c, 0, 64, 71
1, 320587, Control_c, 0, 64, 69
1, 320602, Control_c, 0, 64, 67
1, 320617, Control_c, 0, 64, 66
1, 320631, Control_c, 0, 64, 65
1, 320646, Control_c, 0, 64, 64
1, 320661, Control_c, 0, 64, 62
1, 320676, Control_c, 0, 64, 59
1, 320691, Control_c, 0, 64, 58
1, 320707, Control_c, 0, 64, 58
1, 320722, Control_c, 0, 64, 60
1, 320736, Control_c, 0, 64, 62
1, 320751, Control_c, 0, 64, 63
1, 320766, Control_c, 0, 64, 65
1, 320781, Control_c, 0, 64, 68
1, 320796, Control_c, 0, 64, 72
1, 320810, Control_c, 0, 64, 78
1, 320825, Control_c, 0, 64, 87
1, 320840, Control_c, 0, 64, 93
1, 320854, Control_c, 0, 64, 96
1, 320869, Control_c, 0, 64, 98
1, 320884, Control_c, 0, 64, 100
1, 320899, Control_c, 0, 64, 103
1, 320914, Control_c, 0, 64, 110
1, 320926, Note_off_c, 0, 67, 35
1, 320929, Control_c, 0, 64, 120
1, 320944, Control_c, 0, 64, 127
1, 320947, Note_off_c, 0, 60, 54
1, 320989, Note_off_c, 0, 51, 42
1, 320999, Note_off_c, 0, 79, 29
1, 321002, Note_on_c, 0, 72, 51
1, 321066, Note_off_c, 0, 72, 57
1, 321136, Control_c, 0, 64, 118
1, 321151, Control_c, 0, 64, 113
1, 321173, Control_c, 0, 64, 110
1, 321188, Control_c, 0, 64, 108
1, 321203, Control_c, 0, 64, 101
1, 321218, Control_c, 0, 64, 94
1, 321233, Control_c, 0, 64, 89
1, 321236, Note_on_c, 0, 72, 43
1, 321247, Control_c, 0, 64, 86
1, 321262, Control_c, 0, 64, 82
1, 321277, Control_c, 0, 64, 78
1, 321292, Control_c, 0, 64, 73
1, 321307, Control_c, 0, 64, 70
1, 321321, Control_c, 0, 64, 69
1, 321335, Control_c, 0, 64, 68
1, 321350, Control_c, 0, 64, 66
1, 321365, Control_c, 0, 64, 64
1, 321379, Control_c, 0, 64, 62
1, 321394, Control_c, 0, 64, 61
1, 321409, Control_c, 0, 64, 61
1, 321424, Control_c, 0, 64, 59
1, 321439, Control_c, 0, 64, 55
1, 321453, Control_c, 0, 64, 49
1, 321483, Control_c, 0, 64, 51
1, 321499, Control_c, 0, 64, 53
1, 321514, Control_c, 0, 64, 54
1, 321529, Control_c, 0, 64, 56
1, 321544, Control_c, 0, 64, 61
1, 321558, Control_c, 0, 64, 64
1, 321573, Control_c, 0, 64, 68
1, 321588, Control_c, 0, 64, 71
1, 321602, Control_c, 0, 64, 73
1, 321617, Control_c, 0, 64, 76
1, 321632, Control_c, 0, 64, 79
1, 321647, Control_c, 0, 64, 83
1, 321662, Control_c, 0, 64, 88
1, 321677, Control_c, 0, 64, 94
1, 321692, Control_c, 0, 64, 98
1, 321707, Control_c, 0, 64, 103
1, 321722, Control_c, 0, 64, 106
1, 321736, Control_c, 0, 64, 108
1, 321742, Note_off_c, 0, 72, 53
1, 321751, Control_c, 0, 64, 110
1, 321766, Control_c, 0, 64, 113
1, 321781, Control_c, 0, 64, 119
1, 321795, Control_c, 0, 64, 123
1, 321810, Control_c, 0, 64, 126
1, 321825, Control_c, 0, 64, 127
1, 322070, Control_c, 0, 64, 122
1, 322071, Note_on_c, 0, 71, 47
1, 322085, Control_c, 0, 64, 119
1, 322087, Note_on_c, 0, 55, 30
1, 322096, Note_on_c, 0, 65, 39
1, 322100, Control_c, 0, 64, 117
1, 322115, Note_on_c, 0, 62, 34
1, 322115, Control_c, 0, 64, 113
1, 322130, Control_c, 0, 64, 109
1, 322144, Control_c, 0, 64, 104
1, 322159, Control_c, 0, 64, 100
1, 322174, Control_c, 0, 64, 96
1, 322189, Control_c, 0, 64, 90
1, 322203, Control_c, 0, 64, 85
1, 322218, Control_c, 0, 64, 81
1, 322233, Control_c, 0, 64, 78
1, 322248, Control_c, 0, 64, 74
1, 322263, Control_c, 0, 64, 72
1, 322277, Control_c, 0, 64, 69
1, 322293, Control_c, 0, 64, 68
1, 322308, Control_c, 0, 64, 67
1, 322323, Control_c, 0, 64, 66
1, 322338, Control_c, 0, 64, 65
1, 322353, Control_c, 0, 64, 64
1, 322397, Control_c, 0, 64, 66
1, 322412, Control_c, 0, 64, 67
1, 322426, Control_c, 0, 64, 69
1, 322441, Control_c, 0, 64, 72
1, 322456, Control_c, 0, 64, 75
1, 322471, Control_c, 0, 64, 78
1, 322486, Control_c, 0, 64, 82
1, 322500, Control_c, 0, 64, 86
1, 322515, Control_c, 0, 64, 89
1, 322530, Control_c, 0, 64, 94
1, 322545, Control_c, 0, 64, 97
1, 322560, Control_c, 0, 64, 100
1, 322574, Control_c, 0, 64, 103
1, 322589, Control_c, 0, 64, 107
1, 322604, Control_c, 0, 64, 112
1, 322616, Note_off_c, 0, 65, 43
1, 322619, Control_c, 0, 64, 120
1, 322634, Control_c, 0, 64, 127
1, 322772, Note_on_c, 0, 74, 59
1, 322851, Note_off_c, 0, 71, 45
1, 322863, Note_off_c, 0, 74, 60
1, 322880, Note_off_c, 0, 62, 34
1, 322946, Note_off_c, 0, 55, 40
1, 323012, Control_c, 0, 64, 118
1, 323026, Control_c, 0, 64, 113
1, 323037, Note_on_c, 0, 74, 55
1, 323041, Control_c, 0, 64, 109
1, 323056, Control_c, 0, 64, 103
1, 323071, Control_c, 0, 64, 98
1, 323086, Control_c, 0, 64, 95
1, 323102, Control_c, 0, 64, 91
1, 323116, Control_c, 0, 64, 88
1, 323131, Control_c, 0, 64, 86
1, 323146, Control_c, 0, 64, 83
1, 323161, Control_c, 0, 64, 80
1, 323175, Control_c, 0, 64, 77
1, 323190, Control_c, 0, 64, 73
1, 323205, Control_c, 0, 64, 70
1, 323220, Control_c, 0, 64, 67
1, 323235, Control_c, 0, 64, 65
1, 323249, Control_c, 0, 64, 64
1, 323264, Control_c, 0, 64, 64
1, 323279, Control_c, 0, 64, 62
1, 323294, Control_c, 0, 64, 55
1, 323309, Control_c, 0, 64, 44
1, 323323, Control_c, 0, 64, 43
1, 323338, Control_c, 0, 64, 43
1, 323353, Control_c, 0, 64, 44
1, 323367, Control_c, 0, 64, 43
1, 323382, Control_c, 0, 64, 38
1, 323397, Control_c, 0, 64, 36
1, 323435, Control_c, 0, 64, 37
1, 323479, Control_c, 0, 64, 38
1, 323494, Control_c, 0, 64, 44
1, 323498, Note_on_c, 0, 75, 50
1, 323509, Control_c, 0, 64, 46
1, 323553, Control_c, 0, 64, 47
1, 323568, Control_c, 0, 64, 51
1, 323582, Control_c, 0, 64, 52
1, 323595, Note_off_c, 0, 74, 60
1, 323612, Control_c, 0, 64, 53
1, 323627, Control_c, 0, 64, 54
1, 323642, Control_c, 0, 64, 56
1, 323656, Control_c, 0, 64, 58
1, 323671, Control_c, 0, 64, 58
1, 323701, Control_c, 0, 64, 59
1, 323716, Control_c, 0, 64, 60
1, 323731, Control_c, 0, 64, 61
1, 323775, Control_c, 0, 64, 62
1, 323790, Control_c, 0, 64, 63
1, 323805, Control_c, 0, 64, 64
1, 323849, Control_c, 0, 64, 64
1, 323864, Control_c, 0, 64, 65
1, 323879, Control_c, 0, 64, 67
1, 323895, Control_c, 0, 64, 68
1, 323910, Control_c, 0, 64, 69
1, 323939, Control_c, 0, 64, 71
1, 323951, Note_on_c, 0, 63, 36
1, 323954, Note_on_c, 0, 48, 33
1, 323954, Control_c, 0, 64, 75
1, 323969, Control_c, 0, 64, 82
1, 323975, Note_on_c, 0, 60, 25
1, 323984, Control_c, 0, 64, 88
1, 323999, Control_c, 0, 64, 93
1, 324014, Control_c, 0, 64, 95
1, 324029, Control_c, 0, 64, 97
1, 324044, Control_c, 0, 64, 101
1, 324059, Control_c, 0, 64, 107
1, 324073, Control_c, 0, 64, 116
1, 324088, Control_c, 0, 64, 127
1, 324231, Note_off_c, 0, 63, 33
1, 324276, Note_off_c, 0, 48, 41
1, 324283, Note_off_c, 0, 60, 44
1, 324658, Control_c, 0, 67, 127
1, 324688, Control_c, 0, 67, 126
1, 324718, Control_c, 0, 67, 126
1, 324762, Control_c, 0, 67, 125
1, 324789, Note_on_c, 0, 63, 37
1, 324795, Note_on_c, 0, 48, 17
1, 324822, Control_c, 0, 67, 125
1, 324831, Note_on_c, 0, 60, 8
1, 324851, Control_c, 0, 67, 124
1, 324866, Control_c, 0, 67, 123
1, 324881, Control_c, 0, 67, 123
1, 324887, Note_off_c, 0, 75, 37
1, 324896, Control_c, 0, 67, 122
1, 324905, Note_off_c, 0, 63, 53
1, 324918, Control_c, 0, 67, 121
1, 324929, Note_off_c, 0, 48, 51
1, 324933, Control_c, 0, 67, 118
1, 324947, Control_c, 0, 67, 115
1, 324962, Control_c, 0, 67, 113
1, 324977, Control_c, 0, 67, 111
1, 324979, Note_off_c, 0, 60, 46
1, 324992, Control_c, 0, 67, 109
1, 325007, Control_c, 0, 67, 109
1, 325021, Control_c, 0, 67, 108
1, 325096, Control_c, 0, 67, 109
1, 325291, Note_on_c, 0, 68, 64
1, 325304, Control_c, 0, 64, 120
1, 325309, Note_on_c, 0, 60, 38
1, 325319, Control_c, 0, 64, 107
1, 325320, Note_on_c, 0, 63, 34
1, 325334, Control_c, 0, 64, 98
1, 325348, Control_c, 0, 64, 91
1, 325363, Control_c, 0, 64, 83
1, 325378, Control_c, 0, 64, 74
1, 325393, Control_c, 0, 64, 68
1, 325408, Control_c, 0, 64, 65
1, 325422, Control_c, 0, 64, 64
1, 325437, Control_c, 0, 64, 63
1, 325437, Control_c, 0, 67, 108
1, 325452, Control_c, 0, 64, 64
1, 325452, Control_c, 0, 67, 108
1, 325467, Control_c, 0, 64, 66
1, 325482, Control_c, 0, 64, 70
1, 325498, Control_c, 0, 64, 74
1, 325498, Control_c, 0, 67, 107
1, 325513, Control_c, 0, 64, 80
1, 325513, Control_c, 0, 67, 106
1, 325527, Control_c, 0, 64, 87
1, 325527, Control_c, 0, 67, 105
1, 325542, Control_c, 0, 64, 97
1, 325542, Control_c, 0, 67, 99
1, 325547, Note_off_c, 0, 63, 50
1, 325557, Control_c, 0, 64, 107
1, 325557, Control_c, 0, 67, 93
1, 325571, Control_c, 0, 64, 116
1, 325571, Control_c, 0, 67, 86
1, 325586, Control_c, 0, 64, 127
1, 325586, Control_c, 0, 67, 79
1, 325601, Control_c, 0, 67, 71
1, 325616, Control_c, 0, 67, 64
1, 325631, Control_c, 0, 67, 58
1, 325645, Control_c, 0, 67, 53
1, 325649, Note_on_c, 0, 67, 80
1, 325668, Control_c, 0, 67, 50
1, 325682, Note_on_c, 0, 58, 44
1, 325683, Control_c, 0, 67, 46
1, 325689, Note_on_c, 0, 61, 38
1, 325693, Note_on_c, 0, 63, 42
1, 325698, Control_c, 0, 64, 113
1, 325698, Control_c, 0, 67, 43
1, 325713, Control_c, 0, 64, 98
1, 325713, Control_c, 0, 67, 40
1, 325727, Control_c, 0, 64, 90
1, 325727, Control_c, 0, 67, 37
1, 325734, Note_off_c, 0, 60, 34
1, 325742, Control_c, 0, 64, 84
1, 325742, Control_c, 0, 67, 33
1, 325757, Control_c, 0, 64, 80
1, 325757, Control_c, 0, 67, 30
1, 325771, Control_c, 0, 64, 76
1, 325771, Control_c, 0, 67, 27
1, 325786, Control_c, 0, 64, 74
1, 325786, Control_c, 0, 67, 24
1, 325801, Control_c, 0, 64, 75
1, 325801, Control_c, 0, 67, 21
1, 325805, Note_off_c, 0, 63, 49
1, 325808, Note_off_c, 0, 68, 60
1, 325815, Control_c, 0, 64, 78
1, 325815, Control_c, 0, 67, 17
1, 325830, Control_c, 0, 64, 84
1, 325830, Control_c, 0, 67, 10
1, 325844, Control_c, 0, 64, 92
1, 325844, Control_c, 0, 67, 0
1, 325859, Control_c, 0, 64, 104
1, 325874, Control_c, 0, 64, 122
1, 325889, Control_c, 0, 64, 127
1, 325996, Note_on_c, 0, 68, 79
1, 326017, Note_on_c, 0, 56, 44
1, 326020, Note_on_c, 0, 63, 40
1, 326023, Control_c, 0, 64, 101
1, 326024, Note_on_c, 0, 60, 49
1, 326037, Control_c, 0, 64, 86
1, 326052, Control_c, 0, 64, 72
1, 326055, Note_off_c, 0, 61, 40
1, 326067, Control_c, 0, 64, 65
1, 326082, Control_c, 0, 64, 61
1, 326088, Note_off_c, 0, 58, 34
1, 326097, Control_c, 0, 64, 60
1, 326112, Control_c, 0, 64, 62
1, 326125, Note_off_c, 0, 67, 61
1, 326126, Control_c, 0, 64, 65
1, 326141, Control_c, 0, 64, 70
1, 326156, Control_c, 0, 64, 76
1, 326170, Control_c, 0, 64, 84
1, 326185, Control_c, 0, 64, 96
1, 326196, Note_off_c, 0, 56, 56
1, 326199, Note_off_c, 0, 60, 62
1, 326200, Control_c, 0, 64, 115
1, 326215, Control_c, 0, 64, 127
1, 326251, Note_off_c, 0, 63, 51
1, 326437, Note_on_c, 0, 72, 70
1, 326452, Note_on_c, 0, 63, 50
1, 326458, Note_on_c, 0, 58, 45
1, 326460, Note_on_c, 0, 55, 42
1, 326527, Note_off_c, 0, 68, 61
1, 326535, Control_c, 0, 64, 109
1, 326549, Control_c, 0, 64, 99
1, 326564, Control_c, 0, 64, 91
1, 326579, Control_c, 0, 64, 84
1, 326593, Control_c, 0, 64, 76
1, 326608, Control_c, 0, 64, 69
1, 326623, Control_c, 0, 64, 64
1, 326638, Control_c, 0, 64, 62
1, 326653, Control_c, 0, 64, 58
1, 326667, Control_c, 0, 64, 54
1, 326682, Control_c, 0, 64, 53
1, 326697, Control_c, 0, 64, 57
1, 326712, Control_c, 0, 64, 63
1, 326727, Control_c, 0, 64, 66
1, 326741, Control_c, 0, 64, 68
1, 326756, Control_c, 0, 64, 71
1, 326771, Control_c, 0, 64, 75
1, 326786, Control_c, 0, 64, 82
1, 326801, Control_c, 0, 64, 89
1, 326816, Control_c, 0, 64, 97
1, 326831, Control_c, 0, 64, 102
1, 326846, Control_c, 0, 64, 109
1, 326860, Control_c, 0, 64, 127
1, 326986, Note_off_c, 0, 72, 61
1, 326996, Note_on_c, 0, 70, 72
1, 327009, Note_off_c, 0, 58, 51
1, 327022, Note_off_c, 0, 55, 58
1, 327054, Note_off_c, 0, 70, 63
1, 327059, Note_on_c, 0, 72, 73
1, 327118, Note_on_c, 0, 70, 74
1, 327120, Note_off_c, 0, 72, 63
1, 327123, Note_off_c, 0, 63, 35
1, 327186, Note_on_c, 0, 69, 77
1, 327190, Note_off_c, 0, 70, 64
1, 327265, Note_on_c, 0, 70, 76
1, 327288, Note_on_c, 0, 64, 58
1, 327298, Note_on_c, 0, 55, 46
1, 327298, Note_on_c, 0, 58, 51
1, 327310, Note_off_c, 0, 69, 53
1, 327328, Control_c, 0, 64, 119
1, 327342, Control_c, 0, 64, 108
1, 327357, Control_c, 0, 64, 98
1, 327372, Control_c, 0, 64, 90
1, 327387, Control_c, 0, 64, 80
1, 327402, Control_c, 0, 64, 73
1, 327416, Control_c, 0, 64, 66
1, 327431, Control_c, 0, 64, 63
1, 327446, Control_c, 0, 64, 57
1, 327461, Control_c, 0, 64, 40
1, 327476, Control_c, 0, 64, 0
1, 327564, Control_c, 0, 64, 30
1, 327579, Control_c, 0, 64, 55
1, 327594, Control_c, 0, 64, 64
1, 327609, Control_c, 0, 64, 68
1, 327624, Control_c, 0, 64, 74
1, 327639, Control_c, 0, 64, 80
1, 327654, Control_c, 0, 64, 85
1, 327668, Control_c, 0, 64, 89
1, 327683, Control_c, 0, 64, 93
1, 327698, Control_c, 0, 64, 97
1, 327713, Control_c, 0, 64, 101
1, 327728, Control_c, 0, 64, 105
1, 327742, Control_c, 0, 64, 108
1, 327757, Control_c, 0, 64, 109
1, 327829, Note_on_c, 0, 72, 82
1, 327861, Control_c, 0, 64, 108
1, 327876, Control_c, 0, 64, 107
1, 327892, Control_c, 0, 64, 106
1, 327907, Control_c, 0, 64, 106
1, 327928, Control_c, 0, 64, 104
1, 327943, Control_c, 0, 64, 99
1, 327958, Control_c, 0, 64, 95
1, 327972, Control_c, 0, 64, 93
1, 327984, Note_off_c, 0, 70, 32
1, 327987, Control_c, 0, 64, 91
1, 328002, Control_c, 0, 64, 89
1, 328017, Control_c, 0, 64, 86
1, 328032, Control_c, 0, 64, 81
1, 328047, Control_c, 0, 64, 74
1, 328062, Control_c, 0, 64, 68
1, 328077, Control_c, 0, 64, 63
1, 328086, Note_on_c, 0, 73, 87
1, 328092, Control_c, 0, 64, 50
1, 328107, Control_c, 0, 64, 0
1, 328165, Note_off_c, 0, 72, 58
1, 328166, Control_c, 0, 64, 17
1, 328181, Control_c, 0, 64, 55
1, 328196, Control_c, 0, 64, 64
1, 328211, Control_c, 0, 64, 68
1, 328226, Control_c, 0, 64, 75
1, 328240, Control_c, 0, 64, 85
1, 328252, Note_off_c, 0, 55, 62
1, 328255, Control_c, 0, 64, 96
1, 328270, Control_c, 0, 64, 108
1, 328282, Note_off_c, 0, 58, 62
1, 328285, Control_c, 0, 64, 127
1, 328316, Note_off_c, 0, 64, 63
1, 328536, Note_on_c, 0, 61, 66
1, 328554, Note_on_c, 0, 56, 52
1, 328566, Control_c, 0, 64, 115
1, 328566, Note_on_c, 0, 53, 51
1, 328581, Control_c, 0, 64, 101
1, 328595, Control_c, 0, 64, 90
1, 328610, Control_c, 0, 64, 78
1, 328625, Control_c, 0, 64, 70
1, 328640, Control_c, 0, 64, 65
1, 328662, Control_c, 0, 64, 62
1, 328677, Control_c, 0, 64, 57
1, 328693, Control_c, 0, 64, 55
1, 328708, Control_c, 0, 64, 55
1, 328723, Control_c, 0, 64, 61
1, 328737, Control_c, 0, 64, 65
1, 328752, Control_c, 0, 64, 69
1, 328767, Control_c, 0, 64, 74
1, 328782, Control_c, 0, 64, 80
1, 328796, Control_c, 0, 64, 89
1, 328811, Control_c, 0, 64, 103
1, 328826, Control_c, 0, 64, 127
1, 328876, Note_off_c, 0, 53, 38
1, 328877, Note_off_c, 0, 56, 60
1, 328888, Note_off_c, 0, 61, 56
1, 329034, Note_on_c, 0, 60, 61
1, 329041, Note_on_c, 0, 55, 52
1, 329063, Control_c, 0, 64, 108
1, 329078, Control_c, 0, 64, 98
1, 329079, Note_on_c, 0, 52, 37
1, 329093, Control_c, 0, 64, 87
1, 329108, Control_c, 0, 64, 75
1, 329122, Control_c, 0, 64, 65
1, 329137, Control_c, 0, 64, 46
1, 329152, Control_c, 0, 64, 0
1, 329272, Note_on_c, 0, 72, 76
1, 329285, Control_c, 0, 64, 59
1, 329300, Control_c, 0, 64, 66
1, 329314, Note_off_c, 0, 73, 62
1, 329314, Control_c, 0, 64, 71
1, 329329, Control_c, 0, 64, 79
1, 329344, Control_c, 0, 64, 88
1, 329359, Control_c, 0, 64, 97
1, 329368, Note_off_c, 0, 55, 51
1, 329374, Control_c, 0, 64, 105
1, 329382, Note_off_c, 0, 52, 41
1, 329386, Note_off_c, 0, 60, 58
1, 329388, Control_c, 0, 64, 111
1, 329403, Control_c, 0, 64, 122
1, 329426, Control_c, 0, 64, 127
1, 329555, Note_on_c, 0, 82, 80
1, 329579, Note_on_c, 0, 55, 43
1, 329582, Note_on_c, 0, 60, 40
1, 329585, Note_on_c, 0, 52, 39
1, 329618, Control_c, 0, 64, 119
1, 329633, Control_c, 0, 64, 106
1, 329648, Control_c, 0, 64, 98
1, 329663, Control_c, 0, 64, 92
1, 329678, Control_c, 0, 64, 84
1, 329692, Control_c, 0, 64, 73
1, 329698, Note_off_c, 0, 72, 50
1, 329707, Control_c, 0, 64, 63
1, 329722, Control_c, 0, 64, 50
1, 329736, Control_c, 0, 64, 44
1, 329751, Control_c, 0, 64, 35
1, 329766, Control_c, 0, 64, 23
1, 329781, Control_c, 0, 64, 26
1, 329796, Control_c, 0, 64, 49
1, 329810, Control_c, 0, 64, 62
1, 329817, Note_on_c, 0, 79, 77
1, 329825, Control_c, 0, 64, 67
1, 329840, Control_c, 0, 64, 72
1, 329855, Control_c, 0, 64, 80
1, 329870, Control_c, 0, 64, 90
1, 329884, Control_c, 0, 64, 100
1, 329887, Note_off_c, 0, 82, 56
1, 329899, Control_c, 0, 64, 113
1, 329914, Control_c, 0, 64, 127
1, 329916, Note_off_c, 0, 55, 55
1, 329924, Note_off_c, 0, 60, 56
1, 329936, Note_off_c, 0, 52, 41
1, 329949, Note_off_c, 0, 79, 60
1, 330217, Note_on_c, 0, 79, 60
1, 330254, Note_on_c, 0, 55, 33
1, 330259, Note_on_c, 0, 60, 28
1, 330259, Note_on_c, 0, 52, 27
1, 330307, Control_c, 0, 64, 119
1, 330322, Control_c, 0, 64, 108
1, 330337, Control_c, 0, 64, 100
1, 330352, Control_c, 0, 64, 96
1, 330366, Control_c, 0, 64, 92
1, 330381, Control_c, 0, 64, 88
1, 330396, Control_c, 0, 64, 82
1, 330411, Control_c, 0, 64, 75
1, 330426, Control_c, 0, 64, 68
1, 330441, Control_c, 0, 64, 64
1, 330456, Control_c, 0, 64, 62
1, 330470, Control_c, 0, 64, 61
1, 330485, Control_c, 0, 64, 59
1, 330500, Control_c, 0, 64, 58
1, 330530, Control_c, 0, 64, 59
1, 330545, Control_c, 0, 64, 62
1, 330559, Control_c, 0, 64, 63
1, 330574, Control_c, 0, 64, 64
1, 330589, Control_c, 0, 64, 66
1, 330604, Control_c, 0, 64, 68
1, 330619, Control_c, 0, 64, 72
1, 330633, Control_c, 0, 64, 75
1, 330633, Control_c, 0, 67, 11
1, 330648, Control_c, 0, 64, 79
1, 330648, Control_c, 0, 67, 16
1, 330663, Control_c, 0, 64, 82
1, 330663, Control_c, 0, 67, 23
1, 330678, Control_c, 0, 64, 86
1, 330678, Control_c, 0, 67, 29
1, 330693, Control_c, 0, 64, 90
1, 330693, Control_c, 0, 67, 34
1, 330707, Control_c, 0, 64, 95
1, 330707, Control_c, 0, 67, 42
1, 330722, Control_c, 0, 64, 100
1, 330722, Control_c, 0, 67, 51
1, 330723, Note_off_c, 0, 55, 47
1, 330737, Control_c, 0, 64, 104
1, 330737, Control_c, 0, 67, 58
1, 330752, Control_c, 0, 64, 109
1, 330752, Control_c, 0, 67, 64
1, 330766, Control_c, 0, 64, 112
1, 330766, Control_c, 0, 67, 67
1, 330781, Control_c, 0, 64, 118
1, 330781, Control_c, 0, 67, 71
1, 330796, Control_c, 0, 64, 124
1, 330796, Control_c, 0, 67, 76
1, 330811, Control_c, 0, 64, 127
1, 330811, Control_c, 0, 67, 83
1, 330826, Control_c, 0, 67, 89
1, 330832, Note_off_c, 0, 60, 43
1, 330840, Control_c, 0, 67, 96
1, 330855, Control_c, 0, 67, 101
1, 330870, Control_c, 0, 67, 105
1, 330885, Control_c, 0, 67, 109
1, 330900, Control_c, 0, 67, 112
1, 330921, Note_off_c, 0, 52, 41
1, 330922, Control_c, 0, 67, 117
1, 330937, Control_c, 0, 67, 119
1, 330952, Control_c, 0, 67, 122
1, 330966, Control_c, 0, 67, 124
1, 330981, Control_c, 0, 67, 125
1, 330996, Control_c, 0, 67, 126
1, 331011, Control_c, 0, 67, 127
1, 331160, Control_c, 0, 64, 126
1, 331175, Control_c, 0, 64, 118
1, 331189, Control_c, 0, 64, 113
1, 331204, Control_c, 0, 64, 110
1, 331219, Control_c, 0, 64, 107
1, 331234, Control_c, 0, 64, 102
1, 331237, Note_on_c, 0, 53, 31
1, 331246, Note_on_c, 0, 56, 31
1, 331248, Note_on_c, 0, 60, 27
1, 331249, Control_c, 0, 64, 97
1, 331263, Control_c, 0, 64, 94
1, 331278, Control_c, 0, 64, 92
1, 331293, Control_c, 0, 64, 91
1, 331308, Control_c, 0, 64, 90
1, 331323, Control_c, 0, 64, 88
1, 331338, Control_c, 0, 64, 83
1, 331353, Control_c, 0, 64, 78
1, 331368, Control_c, 0, 64, 72
1, 331382, Control_c, 0, 64, 67
1, 331397, Control_c, 0, 64, 64
1, 331412, Control_c, 0, 64, 63
1, 331427, Control_c, 0, 64, 61
1, 331442, Control_c, 0, 64, 59
1, 331456, Control_c, 0, 64, 54
1, 331456, Control_c, 0, 67, 127
1, 331471, Control_c, 0, 64, 47
1, 331486, Control_c, 0, 64, 45
1, 331500, Control_c, 0, 67, 126
1, 331575, Control_c, 0, 67, 126
1, 331589, Control_c, 0, 64, 45
1, 331604, Control_c, 0, 64, 46
1, 331619, Control_c, 0, 64, 47
1, 331634, Control_c, 0, 64, 48
1, 331656, Control_c, 0, 64, 50
1, 331671, Control_c, 0, 64, 51
1, 331671, Control_c, 0, 67, 125
1, 331686, Control_c, 0, 64, 52
1, 331686, Control_c, 0, 67, 125
1, 331700, Note_on_c, 0, 82, 47
1, 331701, Control_c, 0, 64, 53
1, 331715, Control_c, 0, 64, 54
1, 331730, Control_c, 0, 64, 56
1, 331744, Note_off_c, 0, 79, 47
1, 331745, Control_c, 0, 64, 56
1, 331775, Control_c, 0, 64, 57
1, 331789, Control_c, 0, 64, 57
1, 331789, Control_c, 0, 67, 124
1, 331804, Control_c, 0, 64, 58
1, 331819, Control_c, 0, 64, 59
1, 331834, Control_c, 0, 67, 124
1, 331849, Control_c, 0, 64, 60
1, 331878, Control_c, 0, 67, 123
1, 331909, Control_c, 0, 64, 60
1, 331924, Control_c, 0, 64, 61
1, 331924, Control_c, 0, 67, 123
1, 331953, Control_c, 0, 64, 61
1, 331983, Control_c, 0, 67, 122
1, 331998, Control_c, 0, 64, 62
1, 332008, Note_on_c, 0, 80, 35
1, 332025, Note_off_c, 0, 82, 34
1, 332072, Control_c, 0, 64, 62
1, 332131, Control_c, 0, 64, 63
1, 332152, Note_off_c, 0, 60, 39
1, 332161, Control_c, 0, 64, 63
1, 332204, Note_off_c, 0, 53, 42
1, 332205, Note_off_c, 0, 56, 38
1, 332205, Control_c, 0, 64, 64
1, 332258, Note_off_c, 0, 80, 51
1, 332279, Control_c, 0, 67, 122
1, 332524, Control_c, 0, 64, 64
1, 332612, Control_c, 0, 64, 65
1, 332612, Control_c, 0, 67, 121
1, 332835, Control_c, 0, 64, 65
1, 333058, Control_c, 0, 64, 66
1, 333168, Control_c, 0, 64, 66
1, 333186, Note_on_c, 0, 68, 49
1, 333258, Control_c, 0, 64, 67
1, 333273, Control_c, 0, 64, 69
1, 333287, Control_c, 0, 64, 71
1, 333302, Control_c, 0, 64, 73
1, 333317, Control_c, 0, 64, 74
1, 333332, Control_c, 0, 64, 75
1, 333347, Control_c, 0, 64, 78
1, 333361, Control_c, 0, 64, 82
1, 333376, Control_c, 0, 64, 86
1, 333391, Control_c, 0, 64, 91
1, 333406, Control_c, 0, 64, 94
1, 333421, Control_c, 0, 64, 98
1, 333435, Control_c, 0, 64, 102
1, 333450, Control_c, 0, 64, 108
1, 333465, Control_c, 0, 64, 127
1, 333583, Note_on_c, 0, 67, 70
1, 333715, Note_off_c, 0, 67, 62
1, 333715, Note_off_c, 0, 68, 43
1, 334015, Note_on_c, 0, 67, 72
1, 334027, Note_on_c, 0, 60, 49
1, 334030, Note_on_c, 0, 57, 48
1, 334036, Note_on_c, 0, 38, 48
1, 334045, Note_on_c, 0, 51, 48
1, 334095, Control_c, 0, 64, 105
1, 334110, Control_c, 0, 64, 96
1, 334125, Control_c, 0, 64, 89
1, 334140, Control_c, 0, 64, 83
1, 334155, Control_c, 0, 64, 77
1, 334170, Control_c, 0, 64, 69
1, 334184, Control_c, 0, 64, 62
1, 334199, Control_c, 0, 64, 54
1, 334214, Control_c, 0, 64, 50
1, 334214, Control_c, 0, 67, 121
1, 334229, Control_c, 0, 64, 42
1, 334244, Control_c, 0, 64, 32
1, 334258, Control_c, 0, 64, 30
1, 334274, Control_c, 0, 64, 43
1, 334289, Control_c, 0, 64, 59
1, 334304, Control_c, 0, 64, 64
1, 334319, Control_c, 0, 64, 66
1, 334333, Control_c, 0, 64, 68
1, 334348, Control_c, 0, 64, 72
1, 334363, Control_c, 0, 64, 77
1, 334378, Control_c, 0, 64, 83
1, 334393, Control_c, 0, 64, 90
1, 334407, Control_c, 0, 64, 93
1, 334422, Control_c, 0, 64, 96
1, 334437, Control_c, 0, 64, 98
1, 334452, Control_c, 0, 64, 100
1, 334467, Control_c, 0, 64, 103
1, 334481, Control_c, 0, 64, 105
1, 334496, Control_c, 0, 64, 107
1, 334511, Control_c, 0, 64, 108
1, 334540, Control_c, 0, 64, 108
1, 334555, Control_c, 0, 64, 109
1, 334570, Control_c, 0, 64, 110
1, 334585, Control_c, 0, 64, 112
1, 334596, Note_on_c, 0, 66, 71
1, 334599, Control_c, 0, 64, 112
1, 334600, Note_off_c, 0, 67, 53
1, 334629, Control_c, 0, 64, 113
1, 334711, Control_c, 0, 64, 112
1, 334770, Control_c, 0, 64, 112
1, 334785, Control_c, 0, 64, 110
1, 334787, Note_on_c, 0, 69, 70
1, 334801, Control_c, 0, 64, 106
1, 334808, Note_on_c, 0, 42, 50
1, 334815, Control_c, 0, 64, 101
1, 334830, Control_c, 0, 64, 96
1, 334845, Control_c, 0, 64, 91
1, 334848, Note_off_c, 0, 66, 57
1, 334860, Control_c, 0, 64, 87
1, 334875, Control_c, 0, 64, 84
1, 334889, Control_c, 0, 64, 77
1, 334904, Control_c, 0, 64, 69
1, 334919, Control_c, 0, 64, 62
1, 334933, Control_c, 0, 64, 51
1, 334948, Control_c, 0, 64, 49
1, 334963, Control_c, 0, 64, 47
1, 334978, Control_c, 0, 64, 40
1, 334993, Control_c, 0, 64, 32
1, 335007, Control_c, 0, 64, 36
1, 335022, Control_c, 0, 64, 51
1, 335022, Control_c, 0, 67, 120
1, 335037, Control_c, 0, 64, 60
1, 335052, Control_c, 0, 64, 64
1, 335067, Control_c, 0, 64, 66
1, 335067, Control_c, 0, 67, 120
1, 335083, Control_c, 0, 64, 71
1, 335083, Control_c, 0, 67, 119
1, 335097, Control_c, 0, 64, 77
1, 335097, Control_c, 0, 67, 118
1, 335112, Control_c, 0, 64, 85
1, 335112, Control_c, 0, 67, 116
1, 335127, Control_c, 0, 64, 95
1, 335127, Control_c, 0, 67, 115
1, 335142, Control_c, 0, 64, 104
1, 335142, Control_c, 0, 67, 115
1, 335156, Control_c, 0, 64, 113
1, 335156, Control_c, 0, 67, 114
1, 335171, Control_c, 0, 64, 126
1, 335171, Control_c, 0, 67, 112
1, 335186, Control_c, 0, 64, 127
1, 335186, Control_c, 0, 67, 107
1, 335201, Control_c, 0, 67, 99
1, 335216, Control_c, 0, 67, 91
1, 335231, Control_c, 0, 67, 83
1, 335246, Control_c, 0, 67, 77
1, 335261, Control_c, 0, 67, 71
1, 335276, Control_c, 0, 67, 65
1, 335291, Control_c, 0, 67, 58
1, 335305, Control_c, 0, 67, 52
1, 335320, Control_c, 0, 67, 47
1, 335335, Control_c, 0, 67, 45
1, 335349, Control_c, 0, 67, 42
1, 335364, Control_c, 0, 67, 40
1, 335379, Control_c, 0, 67, 37
1, 335394, Control_c, 0, 67, 34
1, 335416, Control_c, 0, 67, 32
1, 335431, Control_c, 0, 67, 30
1, 335446, Control_c, 0, 67, 28
1, 335461, Control_c, 0, 67, 25
1, 335475, Control_c, 0, 67, 22
1, 335490, Control_c, 0, 67, 19
1, 335505, Control_c, 0, 67, 15
1, 335520, Control_c, 0, 67, 13
1, 335535, Control_c, 0, 67, 10
1, 335550, Control_c, 0, 67, 8
1, 335551, Note_on_c, 0, 45, 64
1, 335564, Control_c, 0, 67, 0
1, 335579, Control_c, 0, 64, 110
1, 335594, Control_c, 0, 64, 98
1, 335599, Note_off_c, 0, 42, 62
1, 335609, Control_c, 0, 64, 88
1, 335624, Control_c, 0, 64, 79
1, 335638, Control_c, 0, 64, 70
1, 335653, Control_c, 0, 64, 61
1, 335668, Control_c, 0, 64, 50
1, 335682, Control_c, 0, 64, 49
1, 335712, Control_c, 0, 64, 52
1, 335727, Control_c, 0, 64, 57
1, 335742, Control_c, 0, 64, 63
1, 335756, Control_c, 0, 64, 66
1, 335771, Control_c, 0, 64, 69
1, 335786, Control_c, 0, 64, 74
1, 335801, Control_c, 0, 64, 81
1, 335816, Control_c, 0, 64, 89
1, 335830, Note_off_c, 0, 57, 36
1, 335830, Control_c, 0, 64, 97
1, 335845, Control_c, 0, 64, 107
1, 335857, Note_off_c, 0, 38, 40
1, 335860, Control_c, 0, 64, 121
1, 335876, Control_c, 0, 64, 127
1, 335881, Note_off_c, 0, 60, 56
1, 335902, Note_off_c, 0, 45, 64
1, 335906, Note_off_c, 0, 69, 38
1, 335937, Note_off_c, 0, 51, 64
1, 336367, Note_on_c, 0, 69, 77
1, 336386, Note_on_c, 0, 62, 54
1, 336394, Note_on_c, 0, 58, 56
1, 336399, Note_on_c, 0, 50, 53
1, 336405, Note_on_c, 0, 46, 51
1, 336416, Control_c, 0, 64, 114
1, 336431, Control_c, 0, 64, 103
1, 336446, Control_c, 0, 64, 95
1, 336460, Control_c, 0, 64, 88
1, 336475, Control_c, 0, 64, 81
1, 336490, Control_c, 0, 64, 73
1, 336504, Control_c, 0, 64, 64
1, 336519, Control_c, 0, 64, 54
1, 336534, Control_c, 0, 64, 45
1, 336549, Control_c, 0, 64, 38
1, 336564, Control_c, 0, 64, 23
1, 336578, Control_c, 0, 64, 0
1, 336608, Control_c, 0, 64, 36
1, 336623, Control_c, 0, 64, 56
1, 336638, Control_c, 0, 64, 63
1, 336653, Control_c, 0, 64, 67
1, 336668, Control_c, 0, 64, 71
1, 336683, Control_c, 0, 64, 77
1, 336698, Control_c, 0, 64, 85
1, 336713, Control_c, 0, 64, 93
1, 336727, Control_c, 0, 64, 101
1, 336730, Note_off_c, 0, 58, 60
1, 336742, Control_c, 0, 64, 109
1, 336757, Control_c, 0, 64, 122
1, 336772, Control_c, 0, 64, 127
1, 336804, Note_off_c, 0, 50, 62
1, 336810, Note_off_c, 0, 62, 58
1, 336824, Note_off_c, 0, 46, 53
1, 336853, Note_off_c, 0, 69, 54
1, 337031, Control_c, 0, 64, 120
1, 337046, Note_on_c, 0, 67, 84
1, 337046, Control_c, 0, 64, 116
1, 337061, Control_c, 0, 64, 112
1, 337076, Control_c, 0, 64, 107
1, 337091, Control_c, 0, 64, 103
1, 337106, Control_c, 0, 64, 99
1, 337120, Control_c, 0, 64, 96
1, 337135, Control_c, 0, 64, 93
1, 337148, Note_off_c, 0, 67, 59
1, 337150, Control_c, 0, 64, 88
1, 337165, Control_c, 0, 64, 80
1, 337180, Control_c, 0, 64, 72
1, 337195, Control_c, 0, 64, 65
1, 337209, Control_c, 0, 64, 59
1, 337224, Control_c, 0, 64, 35
1, 337239, Control_c, 0, 64, 0
1, 337242, Note_on_c, 0, 67, 86
1, 337255, Note_on_c, 0, 45, 68
1, 337257, Note_on_c, 0, 57, 69
1, 337264, Note_on_c, 0, 50, 66
1, 337264, Note_on_c, 0, 62, 67
1, 337276, Note_on_c, 0, 60, 58
1, 337431, Control_c, 0, 64, 42
1, 337446, Control_c, 0, 64, 60
1, 337461, Control_c, 0, 64, 67
1, 337477, Control_c, 0, 64, 73
1, 337492, Control_c, 0, 64, 80
1, 337506, Control_c, 0, 64, 88
1, 337517, Note_off_c, 0, 60, 61
1, 337521, Control_c, 0, 64, 94
1, 337533, Note_off_c, 0, 62, 48
1, 337536, Control_c, 0, 64, 100
1, 337550, Control_c, 0, 64, 107
1, 337565, Note_off_c, 0, 57, 61
1, 337565, Control_c, 0, 64, 117
1, 337580, Control_c, 0, 64, 127
1, 337595, Note_off_c, 0, 67, 46
1, 337613, Note_off_c, 0, 45, 62
1, 337630, Note_off_c, 0, 50, 64
1, 337845, Note_on_c, 0, 66, 91
1, 337890, Note_on_c, 0, 62, 28
1, 337934, Note_off_c, 0, 62, 45
1, 337958, Note_off_c, 0, 66, 53
1, 337988, Control_c, 0, 64, 117
1, 338003, Control_c, 0, 64, 105
1, 338018, Control_c, 0, 64, 93
1, 338031, Note_on_c, 0, 69, 87
1, 338033, Control_c, 0, 64, 81
1, 338045, Note_on_c, 0, 62, 62
1, 338048, Control_c, 0, 64, 69
1, 338049, Note_on_c, 0, 55, 72
1, 338053, Note_on_c, 0, 43, 64
1, 338055, Note_on_c, 0, 58, 66
1, 338056, Note_on_c, 0, 50, 65
1, 338063, Control_c, 0, 64, 49
1, 338077, Control_c, 0, 64, 0
1, 338240, Control_c, 0, 64, 55
1, 338255, Control_c, 0, 64, 65
1, 338271, Control_c, 0, 64, 71
1, 338286, Control_c, 0, 64, 77
1, 338300, Control_c, 0, 64, 84
1, 338315, Control_c, 0, 64, 91
1, 338330, Control_c, 0, 64, 99
1, 338333, Note_off_c, 0, 58, 50
1, 338345, Control_c, 0, 64, 108
1, 338360, Control_c, 0, 64, 127
1, 338373, Note_off_c, 0, 62, 38
1, 338379, Note_off_c, 0, 69, 55
1, 338389, Note_off_c, 0, 55, 63
1, 338444, Note_off_c, 0, 43, 61
1, 338528, Note_off_c, 0, 50, 38
1, 338686, Note_on_c, 0, 67, 92
1, 338798, Note_off_c, 0, 67, 59
1, 338968, Note_on_c, 0, 70, 91
1, 338983, Note_on_c, 0, 62, 71
1, 338985, Note_on_c, 0, 54, 64
1, 338990, Note_on_c, 0, 42, 62
1, 338991, Note_on_c, 0, 57, 60
1, 338997, Note_on_c, 0, 50, 63
1, 339079, Control_c, 0, 64, 124
1, 339094, Control_c, 0, 64, 104
1, 339109, Control_c, 0, 64, 94
1, 339123, Control_c, 0, 64, 85
1, 339138, Control_c, 0, 64, 77
1, 339160, Control_c, 0, 64, 71
1, 339175, Control_c, 0, 64, 63
1, 339190, Control_c, 0, 64, 40
1, 339205, Control_c, 0, 64, 0
1, 339338, Control_c, 0, 64, 48
1, 339353, Control_c, 0, 64, 63
1, 339368, Control_c, 0, 64, 68
1, 339383, Control_c, 0, 64, 73
1, 339397, Control_c, 0, 64, 78
1, 339409, Note_off_c, 0, 57, 34
1, 339412, Control_c, 0, 64, 83
1, 339427, Control_c, 0, 64, 88
1, 339442, Control_c, 0, 64, 93
1, 339457, Control_c, 0, 64, 96
1, 339471, Control_c, 0, 64, 98
1, 339486, Control_c, 0, 64, 101
1, 339501, Control_c, 0, 64, 106
1, 339516, Control_c, 0, 64, 111
1, 339530, Control_c, 0, 64, 114
1, 339545, Control_c, 0, 64, 116
1, 339555, Note_off_c, 0, 62, 36
1, 339560, Control_c, 0, 64, 117
1, 339575, Control_c, 0, 64, 119
1, 339590, Control_c, 0, 64, 124
1, 339604, Control_c, 0, 64, 127
1, 339859, Note_on_c, 0, 69, 53
1, 339936, Note_off_c, 0, 54, 36
1, 339941, Note_off_c, 0, 70, 36
1, 339983, Control_c, 0, 64, 121
1, 339998, Control_c, 0, 64, 117
1, 340008, Note_off_c, 0, 69, 54
1, 340013, Control_c, 0, 64, 117
1, 340027, Control_c, 0, 67, 8
1, 340042, Control_c, 0, 67, 10
1, 340057, Control_c, 0, 64, 116
1, 340057, Control_c, 0, 67, 12
1, 340071, Control_c, 0, 64, 114
1, 340071, Control_c, 0, 67, 15
1, 340086, Control_c, 0, 64, 113
1, 340086, Control_c, 0, 67, 17
1, 340101, Control_c, 0, 64, 112
1, 340101, Control_c, 0, 67, 21
1, 340116, Control_c, 0, 64, 111
1, 340116, Control_c, 0, 67, 24
1, 340131, Control_c, 0, 64, 109
1, 340131, Control_c, 0, 67, 28
1, 340136, Note_off_c, 0, 50, 31
1, 340145, Control_c, 0, 64, 107
1, 340145, Control_c, 0, 67, 31
1, 340160, Control_c, 0, 64, 106
1, 340160, Control_c, 0, 67, 34
1, 340165, Note_off_c, 0, 42, 39
1, 340175, Control_c, 0, 64, 106
1, 340175, Control_c, 0, 67, 38
1, 340190, Control_c, 0, 67, 40
1, 340205, Control_c, 0, 67, 42
1, 340219, Control_c, 0, 64, 105
1, 340219, Control_c, 0, 67, 45
1, 340234, Control_c, 0, 64, 105
1, 340234, Control_c, 0, 67, 48
1, 340249, Control_c, 0, 67, 49
1, 340264, Control_c, 0, 67, 51
1, 340278, Control_c, 0, 67, 53
1, 340293, Control_c, 0, 67, 56
1, 340308, Control_c, 0, 64, 104
1, 340308, Control_c, 0, 67, 59
1, 340323, Note_on_c, 0, 66, 44
1, 340323, Control_c, 0, 64, 103
1, 340323, Control_c, 0, 67, 61
1, 340338, Control_c, 0, 64, 102
1, 340338, Control_c, 0, 67, 64
1, 340352, Control_c, 0, 64, 102
1, 340352, Control_c, 0, 67, 65
1, 340367, Control_c, 0, 64, 101
1, 340367, Control_c, 0, 67, 67
1, 340382, Control_c, 0, 64, 100
1, 340382, Control_c, 0, 67, 70
1, 340397, Control_c, 0, 64, 99
1, 340397, Control_c, 0, 67, 74
1, 340412, Control_c, 0, 64, 98
1, 340412, Control_c, 0, 67, 76
1, 340427, Control_c, 0, 64, 96
1, 340427, Control_c, 0, 67, 78
1, 340442, Control_c, 0, 64, 92
1, 340442, Control_c, 0, 67, 80
1, 340456, Control_c, 0, 64, 89
1, 340456, Control_c, 0, 67, 82
1, 340471, Control_c, 0, 64, 88
1, 340471, Control_c, 0, 67, 84
1, 340486, Control_c, 0, 64, 87
1, 340486, Control_c, 0, 67, 87
1, 340501, Control_c, 0, 64, 84
1, 340501, Control_c, 0, 67, 89
1, 340516, Control_c, 0, 64, 81
1, 340516, Control_c, 0, 67, 92
1, 340531, Control_c, 0, 64, 77
1, 340531, Control_c, 0, 67, 93
1, 340545, Control_c, 0, 64, 75
1, 340545, Control_c, 0, 67, 94
1, 340560, Control_c, 0, 64, 74
1, 340560, Control_c, 0, 67, 96
1, 340567, Note_on_c, 0, 69, 38
1, 340573, Note_off_c, 0, 66, 53
1, 340575, Control_c, 0, 64, 73
1, 340575, Control_c, 0, 67, 98
1, 340590, Control_c, 0, 64, 73
1, 340590, Control_c, 0, 67, 100
1, 340605, Control_c, 0, 64, 72
1, 340605, Control_c, 0, 67, 103
1, 340619, Control_c, 0, 64, 71
1, 340619, Control_c, 0, 67, 105
1, 340634, Control_c, 0, 64, 71
1, 340634, Control_c, 0, 67, 107
1, 340656, Control_c, 0, 64, 69
1, 340656, Control_c, 0, 67, 108
1, 340672, Control_c, 0, 64, 68
1, 340672, Control_c, 0, 67, 109
1, 340687, Control_c, 0, 64, 67
1, 340687, Control_c, 0, 67, 110
1, 340701, Control_c, 0, 64, 66
1, 340701, Control_c, 0, 67, 111
1, 340731, Control_c, 0, 64, 66
1, 340731, Control_c, 0, 67, 112
1, 340746, Control_c, 0, 64, 65
1, 340746, Control_c, 0, 67, 113
1, 340761, Control_c, 0, 64, 64
1, 340775, Control_c, 0, 64, 60
1, 340778, Note_off_c, 0, 69, 53
1, 340784, Note_on_c, 0, 72, 42
1, 340791, Control_c, 0, 64, 58
1, 340850, Control_c, 0, 64, 57
1, 340865, Control_c, 0, 64, 55
1, 340880, Control_c, 0, 64, 51
1, 340895, Control_c, 0, 64, 49
1, 340969, Control_c, 0, 64, 48
1, 340982, Note_on_c, 0, 75, 50
1, 340984, Control_c, 0, 64, 48
1, 340999, Control_c, 0, 64, 50
1, 341014, Control_c, 0, 64, 50
1, 341031, Note_off_c, 0, 72, 42
1, 341073, Control_c, 0, 64, 51
1, 341088, Control_c, 0, 64, 52
1, 341147, Control_c, 0, 64, 53
1, 341162, Control_c, 0, 64, 53
1, 341176, Note_on_c, 0, 74, 55
1, 341176, Control_c, 0, 64, 54
1, 341191, Control_c, 0, 67, 112
1, 341206, Control_c, 0, 64, 54
1, 341221, Control_c, 0, 64, 55
1, 341250, Control_c, 0, 64, 56
1, 341256, Note_off_c, 0, 75, 34
1, 341265, Control_c, 0, 64, 56
1, 341265, Control_c, 0, 67, 112
1, 341294, Control_c, 0, 67, 111
1, 341324, Control_c, 0, 64, 57
1, 341339, Control_c, 0, 64, 57
1, 341354, Control_c, 0, 64, 58
1, 341354, Control_c, 0, 67, 111
1, 341366, Note_on_c, 0, 72, 53
1, 341384, Control_c, 0, 64, 58
1, 341406, Control_c, 0, 64, 59
1, 341416, Note_off_c, 0, 74, 36
1, 341420, Control_c, 0, 64, 59
1, 341481, Control_c, 0, 64, 60
1, 341496, Control_c, 0, 67, 110
1, 341566, Note_on_c, 0, 70, 49
1, 341585, Control_c, 0, 64, 60
1, 341585, Control_c, 0, 67, 110
1, 341586, Note_off_c, 0, 72, 57
1, 341614, Control_c, 0, 64, 61
1, 341644, Control_c, 0, 64, 61
1, 341703, Control_c, 0, 64, 62
1, 341703, Control_c, 0, 67, 109
1, 341771, Note_on_c, 0, 69, 24
1, 341777, Control_c, 0, 64, 63
1, 341792, Control_c, 0, 64, 64
1, 341807, Control_c, 0, 64, 64
1, 341819, Note_off_c, 0, 70, 34
1, 341822, Control_c, 0, 64, 65
1, 341837, Control_c, 0, 64, 65
1, 341851, Control_c, 0, 64, 66
1, 341851, Control_c, 0, 67, 109
1, 341866, Control_c, 0, 64, 68
1, 341881, Control_c, 0, 64, 70
1, 341896, Control_c, 0, 64, 71
1, 341911, Control_c, 0, 64, 73
1, 341925, Control_c, 0, 64, 76
1, 341940, Control_c, 0, 64, 78
1, 341940, Control_c, 0, 67, 108
1, 341955, Control_c, 0, 64, 80
1, 341970, Control_c, 0, 64, 84
1, 341977, Note_on_c, 0, 72, 47
1, 341978, Note_off_c, 0, 69, 49
1, 341985, Control_c, 0, 64, 87
1, 341999, Control_c, 0, 64, 91
1, 342008, Note_off_c, 0, 72, 65
1, 342014, Control_c, 0, 64, 96
1, 342029, Control_c, 0, 64, 99
1, 342029, Control_c, 0, 67, 108
1, 342043, Control_c, 0, 64, 101
1, 342058, Control_c, 0, 64, 101
1, 342185, Control_c, 0, 64, 101
1, 342196, Note_on_c, 0, 78, 49
1, 342214, Control_c, 0, 64, 100
1, 342243, Control_c, 0, 64, 99
1, 342258, Control_c, 0, 64, 97
1, 342274, Control_c, 0, 64, 96
1, 342302, Control_c, 0, 64, 96
1, 342332, Control_c, 0, 64, 94
1, 342346, Control_c, 0, 64, 93
1, 342361, Control_c, 0, 64, 92
1, 342376, Control_c, 0, 64, 91
1, 342391, Control_c, 0, 64, 90
1, 342392, Note_on_c, 0, 81, 59
1, 342406, Control_c, 0, 64, 89
1, 342421, Control_c, 0, 64, 87
1, 342425, Note_off_c, 0, 78, 57
1, 342436, Control_c, 0, 64, 85
1, 342451, Control_c, 0, 64, 85
1, 342465, Control_c, 0, 64, 84
1, 342480, Control_c, 0, 64, 84
1, 342495, Control_c, 0, 64, 82
1, 342510, Control_c, 0, 64, 80
1, 342525, Control_c, 0, 64, 77
1, 342539, Control_c, 0, 64, 76
1, 342554, Control_c, 0, 64, 75
1, 342569, Control_c, 0, 64, 74
1, 342582, Note_on_c, 0, 84, 55
1, 342584, Control_c, 0, 64, 73
1, 342599, Control_c, 0, 64, 71
1, 342613, Note_off_c, 0, 81, 58
1, 342613, Control_c, 0, 64, 70
1, 342628, Control_c, 0, 64, 68
1, 342643, Control_c, 0, 64, 67
1, 342657, Control_c, 0, 64, 66
1, 342702, Control_c, 0, 64, 66
1, 342717, Control_c, 0, 64, 65
1, 342731, Control_c, 0, 64, 65
1, 342779, Note_on_c, 0, 82, 49
1, 342791, Control_c, 0, 64, 64
1, 342806, Control_c, 0, 64, 64
1, 342807, Note_off_c, 0, 84, 40
1, 342820, Control_c, 0, 64, 63
1, 342880, Control_c, 0, 64, 62
1, 342973, Note_on_c, 0, 81, 58
1, 343006, Control_c, 0, 64, 63
1, 343029, Note_off_c, 0, 82, 46
1, 343035, Control_c, 0, 64, 63
1, 343125, Control_c, 0, 64, 64
1, 343181, Note_on_c, 0, 79, 48
1, 343184, Control_c, 0, 64, 64
1, 343187, Note_off_c, 0, 81, 62
1, 343357, Note_off_c, 0, 79, 57
1, 343369, Note_on_c, 0, 78, 45
1, 343392, Control_c, 0, 64, 65
1, 343422, Control_c, 0, 64, 65
1, 343495, Control_c, 0, 64, 66
1, 343510, Control_c, 0, 64, 66
1, 343552, Note_off_c, 0, 78, 57
1, 343569, Control_c, 0, 67, 107
1, 343572, Note_on_c, 0, 81, 52
1, 343636, Control_c, 0, 64, 67
1, 343725, Control_c, 0, 64, 67
1, 343784, Note_on_c, 0, 84, 50
1, 343799, Control_c, 0, 67, 107
1, 343808, Note_off_c, 0, 81, 37
1, 343889, Control_c, 0, 64, 68
1, 343904, Control_c, 0, 67, 106
1, 343918, Control_c, 0, 64, 67
1, 343963, Control_c, 0, 64, 68
1, 343974, Note_off_c, 0, 84, 59
1, 343986, Note_on_c, 0, 86, 48
1, 344037, Control_c, 0, 64, 68
1, 344052, Control_c, 0, 64, 69
1, 344066, Control_c, 0, 64, 70
1, 344081, Control_c, 0, 64, 71
1, 344096, Control_c, 0, 64, 71
1, 344111, Control_c, 0, 64, 73
1, 344126, Control_c, 0, 64, 76
1, 344141, Control_c, 0, 64, 79
1, 344156, Control_c, 0, 64, 83
1, 344156, Control_c, 0, 67, 106
1, 344168, Note_on_c, 0, 87, 60
1, 344171, Control_c, 0, 64, 86
1, 344185, Control_c, 0, 64, 87
1, 344198, Note_off_c, 0, 86, 38
1, 344200, Control_c, 0, 64, 88
1, 344215, Control_c, 0, 64, 89
1, 344241, Note_off_c, 0, 87, 60
1, 344369, Note_on_c, 0, 86, 50
1, 344385, Control_c, 0, 64, 89
1, 344400, Control_c, 0, 64, 88
1, 344430, Control_c, 0, 64, 88
1, 344444, Control_c, 0, 64, 87
1, 344474, Control_c, 0, 64, 87
1, 344504, Control_c, 0, 64, 86
1, 344518, Control_c, 0, 64, 86
1, 344534, Control_c, 0, 64, 85
1, 344564, Control_c, 0, 64, 85
1, 344587, Note_on_c, 0, 84, 56
1, 344593, Control_c, 0, 64, 84
1, 344593, Control_c, 0, 67, 105
1, 344608, Control_c, 0, 64, 84
1, 344623, Control_c, 0, 64, 83
1, 344637, Control_c, 0, 64, 83
1, 344640, Note_off_c, 0, 86, 38
1, 344668, Control_c, 0, 64, 82
1, 344683, Control_c, 0, 64, 82
1, 344698, Control_c, 0, 64, 81
1, 344713, Control_c, 0, 64, 81
1, 344742, Control_c, 0, 64, 80
1, 344757, Control_c, 0, 64, 80
1, 344772, Control_c, 0, 64, 79
1, 344787, Control_c, 0, 64, 78
1, 344788, Note_on_c, 0, 82, 59
1, 344820, Note_off_c, 0, 84, 56
1, 344846, Control_c, 0, 64, 77
1, 344860, Control_c, 0, 64, 77
1, 344875, Control_c, 0, 64, 76
1, 344890, Control_c, 0, 64, 76
1, 344964, Control_c, 0, 64, 75
1, 344999, Note_off_c, 0, 82, 53
1, 345000, Note_on_c, 0, 81, 46
1, 345023, Control_c, 0, 64, 75
1, 345083, Control_c, 0, 64, 74
1, 345231, Note_on_c, 0, 84, 54
1, 345238, Control_c, 0, 64, 74
1, 345297, Note_off_c, 0, 81, 40
1, 345386, Control_c, 0, 64, 74
1, 345401, Control_c, 0, 64, 75
1, 345458, Note_on_c, 0, 81, 51
1, 345461, Control_c, 0, 64, 75
1, 345524, Note_off_c, 0, 84, 55
1, 345551, Control_c, 0, 64, 76
1, 345625, Control_c, 0, 64, 76
1, 345655, Note_on_c, 0, 79, 56
1, 345697, Note_off_c, 0, 81, 59
1, 345713, Control_c, 0, 64, 77
1, 345859, Note_on_c, 0, 78, 61
1, 345899, Note_off_c, 0, 79, 54
1, 346083, Note_on_c, 0, 84, 64
1, 346120, Note_off_c, 0, 78, 59
1, 346209, Control_c, 0, 64, 77
1, 346305, Note_on_c, 0, 81, 66
1, 346374, Control_c, 0, 64, 77
1, 346400, Note_off_c, 0, 84, 52
1, 346447, Control_c, 0, 64, 76
1, 346523, Note_on_c, 0, 79, 73
1, 346536, Control_c, 0, 64, 76
1, 346580, Control_c, 0, 64, 76
1, 346590, Note_off_c, 0, 81, 60
1, 346692, Control_c, 0, 67, 105
1, 346755, Note_on_c, 0, 78, 74
1, 346811, Note_off_c, 0, 79, 59
1, 346839, Control_c, 0, 64, 77
1, 346973, Control_c, 0, 64, 76
1, 347019, Note_on_c, 0, 81, 74
1, 347046, Control_c, 0, 64, 76
1, 347092, Control_c, 0, 64, 75
1, 347122, Control_c, 0, 64, 75
1, 347136, Control_c, 0, 64, 74
1, 347137, Note_off_c, 0, 78, 56
1, 347269, Control_c, 0, 64, 74
1, 347284, Control_c, 0, 64, 73
1, 347299, Control_c, 0, 64, 72
1, 347301, Note_on_c, 0, 78, 79
1, 347358, Control_c, 0, 64, 71
1, 347373, Control_c, 0, 64, 70
1, 347396, Control_c, 0, 64, 69
1, 347410, Control_c, 0, 64, 69
1, 347440, Note_off_c, 0, 81, 38
1, 347440, Control_c, 0, 67, 105
1, 347455, Control_c, 0, 64, 68
1, 347469, Control_c, 0, 64, 68
1, 347514, Control_c, 0, 64, 67
1, 347514, Control_c, 0, 67, 106
1, 347530, Control_c, 0, 64, 67
1, 347544, Control_c, 0, 64, 66
1, 347559, Control_c, 0, 64, 65
1, 347607, Note_on_c, 0, 75, 77
1, 347618, Control_c, 0, 64, 65
1, 347633, Control_c, 0, 64, 64
1, 347662, Control_c, 0, 64, 63
1, 347677, Control_c, 0, 64, 62
1, 347692, Control_c, 0, 64, 60
1, 347707, Control_c, 0, 64, 56
1, 347722, Control_c, 0, 64, 55
1, 347736, Control_c, 0, 64, 54
1, 347748, Note_off_c, 0, 78, 58
1, 347751, Control_c, 0, 64, 51
1, 347766, Control_c, 0, 64, 42
1, 347781, Control_c, 0, 64, 24
1, 347795, Control_c, 0, 64, 0
1, 347931, Note_on_c, 0, 74, 81
1, 347974, Control_c, 0, 64, 32
1, 347989, Control_c, 0, 64, 49
1, 348001, Note_off_c, 0, 75, 62
1, 348004, Control_c, 0, 64, 59
1, 348019, Control_c, 0, 64, 65
1, 348019, Control_c, 0, 67, 105
1, 348034, Control_c, 0, 64, 69
1, 348049, Control_c, 0, 64, 74
1, 348064, Control_c, 0, 64, 81
1, 348078, Control_c, 0, 64, 87
1, 348091, Note_off_c, 0, 74, 65
1, 348093, Control_c, 0, 64, 93
1, 348108, Control_c, 0, 64, 98
1, 348108, Control_c, 0, 67, 105
1, 348130, Control_c, 0, 64, 102
1, 348130, Control_c, 0, 67, 104
1, 348145, Control_c, 0, 64, 106
1, 348159, Control_c, 0, 64, 111
1, 348174, Control_c, 0, 64, 119
1, 348189, Control_c, 0, 64, 127
1, 348367, Control_c, 0, 67, 105
1, 348441, Control_c, 0, 64, 119
1, 348456, Control_c, 0, 64, 117
1, 348467, Note_on_c, 0, 74, 56
1, 348471, Control_c, 0, 64, 115
1, 348485, Control_c, 0, 64, 112
1, 348490, Note_on_c, 0, 54, 34
1, 348500, Control_c, 0, 64, 107
1, 348500, Control_c, 0, 67, 105
1, 348515, Control_c, 0, 64, 101
1, 348530, Control_c, 0, 64, 96
1, 348545, Control_c, 0, 64, 91
1, 348549, Poly_aftertouch_c, 0, 57, 127
1, 348550, Note_on_c, 0, 57, 3
1, 348559, Control_c, 0, 64, 86
1, 348574, Control_c, 0, 64, 79
1, 348589, Control_c, 0, 64, 74
1, 348589, Control_c, 0, 67, 106
1, 348603, Control_c, 0, 64, 69
1, 348618, Control_c, 0, 64, 66
1, 348633, Control_c, 0, 64, 65
1, 348679, Control_c, 0, 64, 67
1, 348694, Control_c, 0, 64, 69
1, 348708, Control_c, 0, 64, 70
1, 348723, Control_c, 0, 64, 72
1, 348738, Control_c, 0, 64, 75
1, 348738, Control_c, 0, 67, 106
1, 348753, Control_c, 0, 64, 79
1, 348753, Control_c, 0, 67, 107
1, 348768, Control_c, 0, 64, 85
1, 348768, Control_c, 0, 67, 107
1, 348782, Control_c, 0, 64, 90
1, 348782, Control_c, 0, 67, 108
1, 348794, Note_off_c, 0, 54, 44
1, 348796, Note_on_c, 0, 62, 32
1, 348797, Control_c, 0, 64, 94
1, 348797, Control_c, 0, 67, 109
1, 348812, Control_c, 0, 64, 97
1, 348812, Control_c, 0, 67, 109
1, 348817, Note_off_c, 0, 57, 40
1, 348827, Control_c, 0, 64, 99
1, 348842, Control_c, 0, 64, 103
1, 348842, Control_c, 0, 67, 110
1, 348857, Control_c, 0, 64, 108
1, 348857, Control_c, 0, 67, 111
1, 348872, Control_c, 0, 64, 115
1, 348872, Control_c, 0, 67, 111
1, 348894, Control_c, 0, 64, 123
1, 348894, Control_c, 0, 67, 112
1, 348908, Control_c, 0, 64, 127
1, 348908, Control_c, 0, 67, 113
1, 348923, Control_c, 0, 67, 113
1, 348953, Control_c, 0, 67, 114
1, 348968, Control_c, 0, 67, 115
1, 348982, Control_c, 0, 67, 116
1, 348997, Control_c, 0, 67, 120
1, 349012, Control_c, 0, 67, 125
1, 349027, Note_off_c, 0, 62, 38
1, 349027, Control_c, 0, 67, 127
1, 349037, Note_on_c, 0, 57, 16
1, 349039, Note_on_c, 0, 54, 28
1, 349202, Note_off_c, 0, 54, 44
1, 349223, Note_off_c, 0, 57, 42
1, 349232, Note_on_c, 0, 62, 26
1, 349420, Note_on_c, 0, 69, 47
1, 349431, Note_on_c, 0, 57, 24
1, 349436, Note_off_c, 0, 62, 38
1, 349441, Note_on_c, 0, 54, 28
1, 349558, Note_off_c, 0, 74, 53
1, 349613, Note_off_c, 0, 54, 46
1, 349648, Note_on_c, 0, 62, 28
1, 349648, Note_off_c, 0, 57, 42
1, 349818, Note_off_c, 0, 62, 39
1, 349832, Note_on_c, 0, 57, 16
1, 349843, Note_on_c, 0, 54, 31
1, 350012, Note_off_c, 0, 54, 46
1, 350028, Note_off_c, 0, 57, 41
1, 350042, Note_on_c, 0, 62, 27
1, 350207, Note_off_c, 0, 62, 39
1, 350213, Note_on_c, 0, 57, 21
1, 350220, Note_on_c, 0, 54, 34
1, 350403, Note_off_c, 0, 54, 49
1, 350421, Note_off_c, 0, 57, 42
1, 350437, Note_on_c, 0, 62, 26
1, 350480, Control_c, 0, 67, 127
1, 350595, Note_off_c, 0, 62, 40
1, 350598, Note_on_c, 0, 54, 30
1, 350610, Note_on_c, 0, 57, 12
1, 350767, Note_off_c, 0, 54, 45
1, 350773, Note_off_c, 0, 57, 41
1, 350809, Note_on_c, 0, 62, 21
1, 350866, Control_c, 0, 64, 119
1, 350880, Control_c, 0, 64, 116
1, 350895, Control_c, 0, 64, 112
1, 350910, Control_c, 0, 64, 107
1, 350925, Control_c, 0, 64, 103
1, 350940, Control_c, 0, 64, 99
1, 350954, Control_c, 0, 64, 96
1, 350969, Control_c, 0, 64, 94
1, 350984, Control_c, 0, 64, 90
1, 350995, Note_on_c, 0, 71, 54
1, 350998, Control_c, 0, 64, 86
1, 351013, Control_c, 0, 64, 83
1, 351019, Note_on_c, 0, 55, 31
1, 351024, Note_on_c, 0, 59, 23
1, 351028, Control_c, 0, 64, 79
1, 351042, Note_off_c, 0, 62, 38
1, 351043, Control_c, 0, 64, 74
1, 351059, Control_c, 0, 64, 69
1, 351074, Control_c, 0, 64, 67
1, 351103, Control_c, 0, 64, 68
1, 351139, Note_off_c, 0, 69, 54
1, 351140, Control_c, 0, 64, 68
1, 351155, Control_c, 0, 64, 70
1, 351170, Control_c, 0, 64, 73
1, 351185, Control_c, 0, 64, 75
1, 351200, Control_c, 0, 64, 78
1, 351215, Control_c, 0, 64, 81
1, 351215, Control_c, 0, 67, 126
1, 351229, Control_c, 0, 64, 86
1, 351244, Control_c, 0, 64, 92
1, 351247, Note_on_c, 0, 62, 30
1, 351259, Control_c, 0, 64, 95
1, 351259, Note_off_c, 0, 55, 42
1, 351274, Note_off_c, 0, 59, 41
1, 351274, Control_c, 0, 64, 97
1, 351289, Control_c, 0, 64, 98
1, 351289, Control_c, 0, 67, 126
1, 351303, Control_c, 0, 64, 101
1, 351318, Control_c, 0, 64, 103
1, 351402, Note_on_c, 0, 67, 63
1, 351407, Control_c, 0, 67, 125
1, 351439, Note_on_c, 0, 55, 32
1, 351446, Note_off_c, 0, 62, 39
1, 351459, Note_on_c, 0, 59, 17
1, 351497, Note_off_c, 0, 71, 59
1, 351513, Note_off_c, 0, 67, 60
1, 351540, Control_c, 0, 67, 125
1, 351584, Note_off_c, 0, 55, 43
1, 351599, Note_off_c, 0, 59, 41
1, 351612, Note_on_c, 0, 62, 29
1, 351674, Control_c, 0, 64, 102
1, 351718, Control_c, 0, 64, 100
1, 351733, Control_c, 0, 64, 99
1, 351747, Control_c, 0, 64, 98
1, 351762, Control_c, 0, 64, 98
1, 351777, Control_c, 0, 64, 97
1, 351777, Control_c, 0, 67, 125
1, 351792, Control_c, 0, 64, 96
1, 351807, Control_c, 0, 64, 93
1, 351820, Note_on_c, 0, 67, 49
1, 351821, Control_c, 0, 64, 91
1, 351821, Control_c, 0, 67, 126
1, 351836, Control_c, 0, 64, 90
1, 351852, Control_c, 0, 64, 88
1, 351852, Note_on_c, 0, 57, 29
1, 351857, Note_off_c, 0, 62, 39
1, 351862, Note_on_c, 0, 60, 26
1, 351867, Control_c, 0, 64, 85
1, 351867, Control_c, 0, 67, 126
1, 351889, Control_c, 0, 64, 81
1, 351904, Control_c, 0, 64, 77
1, 351919, Control_c, 0, 64, 73
1, 351933, Control_c, 0, 64, 70
1, 351933, Control_c, 0, 67, 127
1, 351948, Control_c, 0, 64, 67
1, 351963, Control_c, 0, 64, 64
1, 351978, Control_c, 0, 64, 62
1, 351993, Control_c, 0, 64, 64
1, 352007, Control_c, 0, 64, 65
1, 352022, Control_c, 0, 64, 66
1, 352037, Control_c, 0, 64, 68
1, 352052, Control_c, 0, 64, 70
1, 352067, Control_c, 0, 64, 73
1, 352078, Note_on_c, 0, 62, 35
1, 352082, Control_c, 0, 64, 75
1, 352097, Control_c, 0, 64, 77
1, 352100, Note_off_c, 0, 57, 36
1, 352106, Note_off_c, 0, 60, 45
1, 352112, Control_c, 0, 64, 78
1, 352126, Control_c, 0, 64, 79
1, 352141, Control_c, 0, 64, 81
1, 352156, Control_c, 0, 64, 82
1, 352171, Control_c, 0, 64, 83
1, 352251, Note_off_c, 0, 62, 41
1, 352258, Note_on_c, 0, 57, 30
1, 352297, Poly_aftertouch_c, 0, 60, 127
1, 352339, Note_off_c, 0, 67, 55
1, 352377, Poly_aftertouch_c, 0, 60, 0
1, 352381, Note_on_c, 0, 66, 40
1, 352400, Note_off_c, 0, 57, 34
1, 352407, Control_c, 0, 64, 83
1, 352414, Note_off_c, 0, 66, 60
1, 352442, Note_on_c, 0, 62, 14
1, 352461, Note_on_c, 0, 67, 46
1, 352495, Note_off_c, 0, 67, 59
1, 352496, Control_c, 0, 64, 82
1, 352508, Note_on_c, 0, 66, 52
1, 352511, Control_c, 0, 64, 82
1, 352546, Note_off_c, 0, 66, 61
1, 352556, Control_c, 0, 64, 81
1, 352570, Control_c, 0, 64, 80
1, 352577, Note_on_c, 0, 64, 48
1, 352585, Control_c, 0, 64, 80
1, 352600, Control_c, 0, 64, 79
1, 352607, Note_off_c, 0, 62, 37
1, 352615, Control_c, 0, 64, 78
1, 352637, Control_c, 0, 64, 76
1, 352643, Note_off_c, 0, 64, 55
1, 352653, Control_c, 0, 64, 73
1, 352660, Note_on_c, 0, 57, 18
1, 352665, Note_on_c, 0, 66, 53
1, 352668, Control_c, 0, 64, 70
1, 352669, Note_on_c, 0, 60, 25
1, 352682, Control_c, 0, 64, 67
1, 352697, Control_c, 0, 64, 66
1, 352712, Control_c, 0, 64, 64
1, 352727, Control_c, 0, 64, 62
1, 352742, Control_c, 0, 64, 60
1, 352756, Control_c, 0, 64, 61
1, 352771, Control_c, 0, 64, 64
1, 352786, Control_c, 0, 64, 66
1, 352800, Control_c, 0, 64, 67
1, 352815, Control_c, 0, 64, 70
1, 352830, Control_c, 0, 64, 74
1, 352845, Control_c, 0, 64, 80
1, 352845, Control_c, 0, 67, 126
1, 352847, Note_off_c, 0, 57, 50
1, 352848, Note_on_c, 0, 62, 24
1, 352849, Note_off_c, 0, 60, 42
1, 352860, Control_c, 0, 64, 87
1, 352860, Control_c, 0, 67, 126
1, 352875, Control_c, 0, 64, 93
1, 352890, Control_c, 0, 64, 99
1, 352905, Control_c, 0, 64, 103
1, 352920, Control_c, 0, 64, 105
1, 352920, Control_c, 0, 67, 125
1, 353008, Control_c, 0, 64, 103
1, 353023, Control_c, 0, 64, 100
1, 353038, Control_c, 0, 64, 97
1, 353043, Note_off_c, 0, 62, 40
1, 353049, Note_on_c, 0, 67, 60
1, 353053, Control_c, 0, 64, 94
1, 353054, Note_on_c, 0, 57, 32
1, 353065, Note_on_c, 0, 60, 33
1, 353068, Control_c, 0, 64, 91
1, 353082, Control_c, 0, 64, 87
1, 353097, Control_c, 0, 64, 80
1, 353112, Control_c, 0, 64, 72
1, 353126, Note_off_c, 0, 66, 60
1, 353127, Control_c, 0, 64, 66
1, 353142, Control_c, 0, 64, 65
1, 353171, Control_c, 0, 64, 65
1, 353186, Control_c, 0, 64, 67
1, 353200, Control_c, 0, 64, 70
1, 353215, Control_c, 0, 64, 73
1, 353230, Note_off_c, 0, 57, 47
1, 353230, Control_c, 0, 64, 79
1, 353236, Note_off_c, 0, 60, 52
1, 353245, Control_c, 0, 64, 88
1, 353248, Note_on_c, 0, 62, 26
1, 353260, Control_c, 0, 64, 97
1, 353274, Control_c, 0, 64, 107
1, 353274, Control_c, 0, 67, 124
1, 353289, Control_c, 0, 64, 114
1, 353304, Control_c, 0, 64, 122
1, 353319, Control_c, 0, 64, 127
1, 353364, Control_c, 0, 67, 124
1, 353386, Control_c, 0, 67, 123
1, 353430, Note_on_c, 0, 69, 67
1, 353445, Control_c, 0, 64, 114
1, 353456, Note_on_c, 0, 57, 31
1, 353459, Note_off_c, 0, 62, 41
1, 353461, Control_c, 0, 64, 102
1, 353462, Note_on_c, 0, 60, 36
1, 353467, Note_off_c, 0, 67, 56
1, 353476, Control_c, 0, 64, 92
1, 353491, Control_c, 0, 64, 83
1, 353505, Control_c, 0, 64, 76
1, 353521, Control_c, 0, 64, 70
1, 353536, Control_c, 0, 64, 64
1, 353551, Control_c, 0, 64, 62
1, 353580, Control_c, 0, 64, 64
1, 353595, Control_c, 0, 64, 67
1, 353610, Control_c, 0, 64, 71
1, 353624, Control_c, 0, 64, 76
1, 353636, Note_off_c, 0, 60, 51
1, 353639, Control_c, 0, 64, 83
1, 353644, Note_off_c, 0, 57, 40
1, 353654, Control_c, 0, 64, 91
1, 353657, Note_on_c, 0, 62, 38
1, 353669, Control_c, 0, 64, 100
1, 353684, Control_c, 0, 64, 108
1, 353698, Control_c, 0, 64, 113
1, 353713, Control_c, 0, 64, 124
1, 353728, Control_c, 0, 64, 127
1, 353817, Control_c, 0, 64, 121
1, 353832, Control_c, 0, 64, 110
1, 353835, Note_on_c, 0, 71, 75
1, 353843, Note_off_c, 0, 62, 49
1, 353847, Control_c, 0, 64, 98
1, 353853, Note_on_c, 0, 55, 42
1, 353854, Note_on_c, 0, 59, 44
1, 353862, Control_c, 0, 64, 87
1, 353877, Control_c, 0, 64, 78
1, 353891, Control_c, 0, 64, 71
1, 353904, Note_off_c, 0, 69, 61
1, 353906, Control_c, 0, 64, 66
1, 353921, Control_c, 0, 64, 66
1, 353936, Control_c, 0, 64, 67
1, 353951, Control_c, 0, 64, 70
1, 353966, Control_c, 0, 64, 73
1, 353980, Control_c, 0, 64, 78
1, 353987, Note_off_c, 0, 71, 65
1, 353995, Control_c, 0, 64, 84
1, 354005, Note_off_c, 0, 59, 53
1, 354010, Control_c, 0, 64, 89
1, 354011, Note_off_c, 0, 55, 55
1, 354024, Control_c, 0, 64, 95
1, 354039, Control_c, 0, 64, 101
1, 354051, Note_on_c, 0, 62, 39
1, 354054, Control_c, 0, 64, 106
1, 354069, Control_c, 0, 64, 109
1, 354084, Control_c, 0, 64, 111
1, 354098, Control_c, 0, 64, 114
1, 354113, Control_c, 0, 64, 115
1, 354224, Control_c, 0, 64, 115
1, 354239, Control_c, 0, 64, 114
1, 354255, Control_c, 0, 64, 110
1, 354270, Control_c, 0, 64, 107
1, 354272, Note_on_c, 0, 72, 64
1, 354285, Control_c, 0, 64, 103
1, 354300, Control_c, 0, 64, 100
1, 354302, Note_on_c, 0, 54, 39
1, 354308, Note_off_c, 0, 62, 26
1, 354309, Note_on_c, 0, 57, 36
1, 354315, Control_c, 0, 64, 98
1, 354329, Control_c, 0, 64, 96
1, 354344, Control_c, 0, 64, 92
1, 354359, Control_c, 0, 64, 87
1, 354374, Control_c, 0, 64, 79
1, 354389, Control_c, 0, 64, 70
1, 354403, Control_c, 0, 64, 65
1, 354403, Control_c, 0, 67, 123
1, 354418, Control_c, 0, 64, 62
1, 354433, Control_c, 0, 64, 60
1, 354447, Control_c, 0, 64, 57
1, 354462, Control_c, 0, 64, 54
1, 354477, Control_c, 0, 64, 54
1, 354492, Control_c, 0, 64, 59
1, 354507, Control_c, 0, 64, 64
1, 354507, Control_c, 0, 67, 122
1, 354521, Control_c, 0, 64, 66
1, 354536, Control_c, 0, 64, 69
1, 354551, Control_c, 0, 64, 72
1, 354565, Note_off_c, 0, 54, 45
1, 354566, Control_c, 0, 64, 75
1, 354580, Control_c, 0, 64, 80
1, 354594, Note_on_c, 0, 73, 71
1, 354595, Note_off_c, 0, 57, 49
1, 354595, Note_on_c, 0, 62, 25
1, 354595, Control_c, 0, 64, 84
1, 354610, Control_c, 0, 64, 89
1, 354625, Control_c, 0, 64, 93
1, 354640, Note_off_c, 0, 72, 62
1, 354640, Control_c, 0, 64, 95
1, 354655, Control_c, 0, 64, 96
1, 354669, Control_c, 0, 64, 96
1, 354684, Control_c, 0, 64, 97
1, 354689, Note_off_c, 0, 73, 61
1, 354773, Control_c, 0, 64, 96
1, 354788, Control_c, 0, 64, 96
1, 354803, Control_c, 0, 64, 95
1, 354807, Note_off_c, 0, 62, 41
1, 354809, Note_on_c, 0, 73, 67
1, 354828, Note_on_c, 0, 54, 34
1, 354833, Control_c, 0, 64, 95
1, 354842, Note_on_c, 0, 57, 29
1, 354847, Control_c, 0, 64, 93
1, 354869, Control_c, 0, 64, 92
1, 354884, Control_c, 0, 64, 92
1, 354944, Control_c, 0, 64, 91
1, 355012, Note_on_c, 0, 74, 75
1, 355016, Control_c, 0, 64, 91
1, 355018, Note_off_c, 0, 54, 44
1, 355033, Note_on_c, 0, 62, 35
1, 355046, Note_off_c, 0, 57, 42
1, 355059, Note_off_c, 0, 73, 63
1, 355105, Note_off_c, 0, 74, 65
1, 355106, Control_c, 0, 64, 90
1, 355165, Control_c, 0, 64, 89
1, 355180, Control_c, 0, 64, 88
1, 355180, Control_c, 0, 67, 123
1, 355194, Control_c, 0, 64, 85
1, 355209, Control_c, 0, 64, 83
1, 355224, Control_c, 0, 64, 81
1, 355224, Control_c, 0, 67, 123
1, 355237, Note_on_c, 0, 73, 66
1, 355239, Control_c, 0, 64, 80
1, 355239, Control_c, 0, 67, 124
1, 355254, Note_on_c, 0, 54, 35
1, 355254, Control_c, 0, 64, 78
1, 355254, Control_c, 0, 67, 124
1, 355262, Note_off_c, 0, 62, 39
1, 355269, Control_c, 0, 64, 76
1, 355284, Control_c, 0, 64, 74
1, 355290, Note_on_c, 0, 57, 6
1, 355298, Control_c, 0, 64, 70
1, 355298, Control_c, 0, 67, 125
1, 355313, Control_c, 0, 64, 66
1, 355313, Control_c, 0, 67, 126
1, 355328, Control_c, 0, 64, 61
1, 355343, Control_c, 0, 64, 56
1, 355358, Control_c, 0, 67, 126
1, 355402, Control_c, 0, 64, 59
1, 355417, Control_c, 0, 64, 62
1, 355432, Control_c, 0, 64, 65
1, 355447, Control_c, 0, 64, 67
1, 355462, Control_c, 0, 64, 69
1, 355462, Control_c, 0, 67, 126
1, 355469, Note_on_c, 0, 74, 65
1, 355476, Control_c, 0, 64, 71
1, 355479, Note_on_c, 0, 62, 36
1, 355491, Control_c, 0, 64, 73
1, 355506, Control_c, 0, 64, 76
1, 355508, Note_off_c, 0, 54, 44
1, 355519, Note_off_c, 0, 57, 43
1, 355521, Control_c, 0, 64, 80
1, 355528, Note_off_c, 0, 73, 63
1, 355535, Control_c, 0, 64, 83
1, 355535, Control_c, 0, 67, 125
1, 355550, Control_c, 0, 64, 85
1, 355550, Control_c, 0, 67, 125
1, 355565, Control_c, 0, 64, 85
1, 355565, Control_c, 0, 67, 124
1, 355580, Control_c, 0, 64, 86
1, 355594, Control_c, 0, 64, 86
1, 355609, Control_c, 0, 64, 87
1, 355662, Note_off_c, 0, 62, 52
1, 355668, Note_on_c, 0, 76, 62
1, 355676, Control_c, 0, 64, 87
1, 355683, Note_on_c, 0, 54, 35
1, 355691, Control_c, 0, 64, 88
1, 355695, Note_on_c, 0, 57, 8
1, 355704, Note_off_c, 0, 74, 58
1, 355706, Control_c, 0, 64, 88
1, 355721, Control_c, 0, 64, 89
1, 355871, Note_on_c, 0, 74, 64
1, 355887, Note_off_c, 0, 54, 45
1, 355891, Note_on_c, 0, 62, 27
1, 355898, Note_off_c, 0, 57, 42
1, 355899, Control_c, 0, 64, 88
1, 355899, Control_c, 0, 67, 125
1, 355914, Control_c, 0, 64, 88
1, 355923, Note_off_c, 0, 76, 55
1, 355929, Control_c, 0, 64, 87
1, 355973, Control_c, 0, 64, 86
1, 355988, Control_c, 0, 64, 84
1, 356003, Control_c, 0, 64, 82
1, 356017, Control_c, 0, 64, 81
1, 356062, Control_c, 0, 64, 80
1, 356077, Control_c, 0, 64, 78
1, 356091, Control_c, 0, 64, 75
1, 356105, Note_on_c, 0, 69, 59
1, 356106, Control_c, 0, 64, 74
1, 356121, Control_c, 0, 64, 72
1, 356125, Note_on_c, 0, 54, 37
1, 356129, Note_off_c, 0, 62, 42
1, 356136, Control_c, 0, 64, 69
1, 356138, Note_on_c, 0, 57, 32
1, 356151, Control_c, 0, 64, 65
1, 356166, Control_c, 0, 64, 64
1, 356181, Control_c, 0, 64, 63
1, 356196, Control_c, 0, 64, 61
1, 356202, Note_off_c, 0, 74, 55
1, 356211, Control_c, 0, 64, 60
1, 356225, Control_c, 0, 64, 60
1, 356240, Control_c, 0, 64, 62
1, 356255, Control_c, 0, 64, 64
1, 356270, Control_c, 0, 64, 65
1, 356285, Control_c, 0, 64, 67
1, 356299, Control_c, 0, 64, 69
1, 356314, Control_c, 0, 64, 72
1, 356329, Control_c, 0, 64, 75
1, 356343, Control_c, 0, 64, 78
1, 356355, Note_on_c, 0, 62, 39
1, 356358, Control_c, 0, 64, 81
1, 356359, Note_off_c, 0, 57, 54
1, 356372, Note_off_c, 0, 54, 42
1, 356380, Control_c, 0, 64, 84
1, 356395, Control_c, 0, 64, 87
1, 356410, Control_c, 0, 64, 88
1, 356425, Control_c, 0, 64, 90
1, 356440, Control_c, 0, 64, 92
1, 356440, Control_c, 0, 67, 125
1, 356455, Control_c, 0, 64, 94
1, 356470, Control_c, 0, 64, 96
1, 356470, Control_c, 0, 67, 126
1, 356485, Control_c, 0, 64, 97
1, 356485, Control_c, 0, 67, 126
1, 356499, Control_c, 0, 64, 98
1, 356499, Control_c, 0, 67, 127
1, 356529, Control_c, 0, 67, 127
1, 356530, Note_off_c, 0, 62, 53
1, 356561, Note_on_c, 0, 54, 38
1, 356577, Note_on_c, 0, 57, 18
1, 356732, Note_off_c, 0, 54, 45
1, 356741, Note_on_c, 0, 62, 39
1, 356761, Note_off_c, 0, 57, 42
1, 356885, Note_off_c, 0, 62, 50
1, 356929, Note_on_c, 0, 54, 39
1, 356938, Note_on_c, 0, 57, 20
1, 357108, Note_off_c, 0, 69, 52
1, 357110, Note_off_c, 0, 54, 46
1, 357125, Note_on_c, 0, 62, 39
1, 357126, Note_on_c, 0, 71, 54
1, 357129, Note_off_c, 0, 57, 41
1, 357159, Control_c, 0, 64, 98
1, 357189, Note_off_c, 0, 71, 55
1, 357234, Note_on_c, 0, 69, 49
1, 357284, Note_off_c, 0, 62, 36
1, 357297, Note_off_c, 0, 69, 53
1, 357313, Note_on_c, 0, 71, 54
1, 357318, Note_on_c, 0, 54, 35
1, 357335, Note_on_c, 0, 57, 20
1, 357358, Note_off_c, 0, 71, 60
1, 357403, Note_on_c, 0, 69, 57
1, 357422, Note_off_c, 0, 57, 38
1, 357445, Note_off_c, 0, 69, 60
1, 357453, Note_off_c, 0, 54, 43
1, 357457, Control_c, 0, 64, 97
1, 357478, Note_on_c, 0, 62, 37
1, 357495, Note_on_c, 0, 72, 56
1, 357516, Control_c, 0, 64, 97
1, 357545, Control_c, 0, 64, 96
1, 357547, Note_off_c, 0, 72, 47
1, 357576, Note_on_c, 0, 71, 56
1, 357589, Control_c, 0, 64, 96
1, 357604, Control_c, 0, 64, 93
1, 357619, Control_c, 0, 64, 88
1, 357634, Control_c, 0, 64, 83
1, 357649, Control_c, 0, 64, 79
1, 357657, Note_off_c, 0, 62, 40
1, 357659, Note_on_c, 0, 55, 37
1, 357659, Note_off_c, 0, 71, 60
1, 357663, Control_c, 0, 64, 73
1, 357664, Note_on_c, 0, 59, 29
1, 357678, Control_c, 0, 64, 67
1, 357686, Note_on_c, 0, 72, 49
1, 357693, Control_c, 0, 64, 63
1, 357708, Control_c, 0, 64, 61
1, 357723, Control_c, 0, 64, 62
1, 357737, Control_c, 0, 64, 64
1, 357752, Control_c, 0, 64, 65
1, 357766, Note_off_c, 0, 72, 37
1, 357767, Control_c, 0, 64, 67
1, 357782, Control_c, 0, 64, 69
1, 357786, Note_on_c, 0, 71, 47
1, 357796, Control_c, 0, 64, 72
1, 357811, Control_c, 0, 64, 75
1, 357826, Control_c, 0, 64, 78
1, 357841, Control_c, 0, 64, 81
1, 357856, Control_c, 0, 64, 84
1, 357871, Note_on_c, 0, 62, 25
1, 357878, Note_off_c, 0, 55, 45
1, 357878, Control_c, 0, 64, 87
1, 357880, Note_off_c, 0, 71, 58
1, 357886, Note_off_c, 0, 59, 38
1, 357893, Control_c, 0, 64, 89
1, 357901, Note_on_c, 0, 74, 54
1, 357908, Control_c, 0, 64, 91
1, 357923, Control_c, 0, 64, 92
1, 357938, Control_c, 0, 64, 93
1, 357952, Control_c, 0, 64, 93
1, 357957, Note_off_c, 0, 74, 56
1, 357981, Note_on_c, 0, 73, 61
1, 358033, Note_off_c, 0, 73, 54
1, 358039, Note_off_c, 0, 62, 40
1, 358045, Note_on_c, 0, 55, 32
1, 358067, Note_on_c, 0, 74, 63
1, 358068, Note_on_c, 0, 59, 16
1, 358108, Note_off_c, 0, 74, 63
1, 358147, Note_on_c, 0, 73, 60
1, 358188, Note_off_c, 0, 73, 55
1, 358219, Note_on_c, 0, 76, 62
1, 358244, Note_off_c, 0, 55, 41
1, 358269, Note_on_c, 0, 62, 36
1, 358271, Note_off_c, 0, 59, 41
1, 358296, Note_off_c, 0, 76, 53
1, 358300, Note_on_c, 0, 74, 61
1, 358375, Note_off_c, 0, 74, 59
1, 358379, Note_on_c, 0, 67, 61
1, 358413, Note_off_c, 0, 67, 59
1, 358427, Control_c, 0, 64, 93
1, 358442, Control_c, 0, 64, 92
1, 358472, Control_c, 0, 64, 91
1, 358501, Control_c, 0, 64, 90
1, 358516, Control_c, 0, 64, 87
1, 358531, Control_c, 0, 64, 84
1, 358546, Control_c, 0, 64, 83
1, 358575, Control_c, 0, 64, 83
1, 358590, Control_c, 0, 64, 81
1, 358593, Note_on_c, 0, 67, 57
1, 358605, Control_c, 0, 64, 78
1, 358625, Note_on_c, 0, 60, 33
1, 358627, Note_on_c, 0, 57, 28
1, 358627, Control_c, 0, 64, 75
1, 358642, Control_c, 0, 64, 72
1, 358657, Control_c, 0, 64, 70
1, 358669, Note_off_c, 0, 62, 36
1, 358672, Control_c, 0, 64, 67
1, 358687, Control_c, 0, 64, 65
1, 358701, Control_c, 0, 64, 63
1, 358716, Control_c, 0, 64, 61
1, 358731, Control_c, 0, 64, 54
1, 358745, Control_c, 0, 64, 0
1, 358834, Control_c, 0, 64, 30
1, 358849, Control_c, 0, 64, 53
1, 358864, Control_c, 0, 64, 62
1, 358879, Control_c, 0, 64, 66
1, 358890, Note_on_c, 0, 62, 33
1, 358893, Control_c, 0, 64, 70
1, 358897, Note_off_c, 0, 57, 52
1, 358908, Control_c, 0, 64, 74
1, 358918, Note_off_c, 0, 60, 56
1, 358923, Control_c, 0, 64, 78
1, 358938, Control_c, 0, 64, 82
1, 358953, Control_c, 0, 64, 83
1, 358968, Control_c, 0, 64, 84
1, 358983, Control_c, 0, 64, 85
1, 358998, Control_c, 0, 64, 86
1, 359012, Control_c, 0, 64, 88
1, 359027, Control_c, 0, 64, 89
1, 359081, Note_off_c, 0, 62, 40
1, 359085, Note_on_c, 0, 57, 38
1, 359088, Note_on_c, 0, 60, 28
1, 359284, Note_off_c, 0, 57, 41
1, 359286, Note_on_c, 0, 62, 35
1, 359298, Note_off_c, 0, 60, 45
1, 359391, Note_off_c, 0, 67, 54
1, 359436, Note_on_c, 0, 66, 47
1, 359446, Note_off_c, 0, 62, 39
1, 359452, Note_on_c, 0, 57, 37
1, 359467, Note_on_c, 0, 60, 14
1, 359470, Note_off_c, 0, 66, 64
1, 359512, Note_on_c, 0, 67, 25
1, 359556, Note_on_c, 0, 66, 54
1, 359582, Note_off_c, 0, 67, 0
1, 359582, Note_off_c, 0, 66, 60
1, 359595, Note_on_c, 0, 67, 39
1, 359627, Note_off_c, 0, 67, 61
1, 359640, Note_off_c, 0, 57, 44
1, 359649, Note_off_c, 0, 60, 38
1, 359654, Note_on_c, 0, 66, 54
1, 359671, Note_on_c, 0, 62, 26
1, 359692, Note_off_c, 0, 66, 60
1, 359727, Note_on_c, 0, 64, 51
1, 359809, Note_on_c, 0, 66, 56
1, 359809, Note_off_c, 0, 64, 53
1, 359851, Control_c, 0, 64, 88
1, 359862, Note_on_c, 0, 57, 38
1, 359865, Control_c, 0, 64, 88
1, 359869, Note_off_c, 0, 62, 40
1, 359880, Control_c, 0, 64, 86
1, 359882, Note_on_c, 0, 60, 29
1, 359895, Control_c, 0, 64, 83
1, 359910, Control_c, 0, 64, 80
1, 359925, Control_c, 0, 64, 78
1, 359940, Control_c, 0, 64, 75
1, 359955, Control_c, 0, 64, 71
1, 359969, Control_c, 0, 64, 66
1, 359984, Control_c, 0, 64, 61
1, 359999, Control_c, 0, 64, 53
1, 360014, Control_c, 0, 64, 47
1, 360029, Control_c, 0, 64, 49
1, 360044, Control_c, 0, 64, 60
1, 360058, Control_c, 0, 64, 65
1, 360073, Control_c, 0, 64, 68
1, 360085, Note_on_c, 0, 62, 29
1, 360088, Control_c, 0, 64, 71
1, 360101, Note_off_c, 0, 57, 43
1, 360101, Note_off_c, 0, 60, 54
1, 360103, Control_c, 0, 64, 75
1, 360117, Note_off_c, 0, 66, 57
1, 360125, Control_c, 0, 64, 80
1, 360139, Control_c, 0, 64, 84
1, 360154, Control_c, 0, 64, 86
1, 360169, Control_c, 0, 64, 87
1, 360199, Control_c, 0, 64, 89
1, 360214, Control_c, 0, 64, 91
1, 360229, Control_c, 0, 64, 93
1, 360244, Control_c, 0, 64, 93
1, 360280, Note_on_c, 0, 57, 50
1, 360280, Note_on_c, 0, 69, 61
1, 360288, Control_c, 0, 64, 94
1, 360290, Note_off_c, 0, 62, 40
1, 360297, Note_on_c, 0, 60, 29
1, 360303, Control_c, 0, 64, 96
1, 360318, Control_c, 0, 64, 97
1, 360333, Control_c, 0, 64, 98
1, 360363, Control_c, 0, 64, 98
1, 360378, Control_c, 0, 64, 99
1, 360392, Control_c, 0, 64, 100
1, 360407, Control_c, 0, 64, 100
1, 360422, Control_c, 0, 64, 101
1, 360437, Control_c, 0, 64, 102
1, 360467, Note_off_c, 0, 60, 45
1, 360478, Note_off_c, 0, 69, 58
1, 360481, Note_on_c, 0, 62, 44
1, 360481, Note_off_c, 0, 57, 36
1, 360614, Control_c, 0, 64, 101
1, 360645, Control_c, 0, 64, 101
1, 360660, Control_c, 0, 64, 99
1, 360661, Note_on_c, 0, 70, 72
1, 360675, Control_c, 0, 64, 97
1, 360689, Control_c, 0, 64, 92
1, 360694, Note_on_c, 0, 58, 47
1, 360703, Note_on_c, 0, 55, 39
1, 360704, Control_c, 0, 64, 86
1, 360719, Control_c, 0, 64, 80
1, 360734, Control_c, 0, 64, 73
1, 360741, Note_off_c, 0, 62, 36
1, 360749, Control_c, 0, 64, 64
1, 360749, Control_c, 0, 67, 127
1, 360763, Control_c, 0, 64, 46
1, 360778, Control_c, 0, 64, 27
1, 360793, Control_c, 0, 64, 29
1, 360807, Control_c, 0, 64, 44
1, 360807, Control_c, 0, 67, 126
1, 360822, Control_c, 0, 64, 56
1, 360822, Control_c, 0, 67, 126
1, 360837, Control_c, 0, 64, 63
1, 360837, Control_c, 0, 67, 125
1, 360852, Control_c, 0, 64, 66
1, 360852, Control_c, 0, 67, 125
1, 360875, Control_c, 0, 64, 69
1, 360875, Control_c, 0, 67, 124
1, 360880, Note_off_c, 0, 58, 59
1, 360889, Control_c, 0, 64, 75
1, 360889, Control_c, 0, 67, 123
1, 360890, Note_off_c, 0, 55, 62
1, 360894, Note_off_c, 0, 70, 64
1, 360904, Control_c, 0, 64, 81
1, 360919, Control_c, 0, 64, 88
1, 360919, Control_c, 0, 67, 123
1, 360926, Note_on_c, 0, 62, 43
1, 360934, Control_c, 0, 64, 93
1, 360934, Control_c, 0, 67, 122
1, 360948, Control_c, 0, 64, 97
1, 360948, Control_c, 0, 67, 121
1, 360963, Control_c, 0, 64, 100
1, 360963, Control_c, 0, 67, 121
1, 360978, Control_c, 0, 64, 104
1, 360993, Control_c, 0, 64, 109
1, 360993, Control_c, 0, 67, 120
1, 361007, Control_c, 0, 64, 114
1, 361022, Control_c, 0, 64, 114
1, 361103, Note_on_c, 0, 72, 85
1, 361127, Note_off_c, 0, 62, 53
1, 361134, Note_on_c, 0, 54, 49
1, 361140, Control_c, 0, 64, 113
1, 361143, Note_on_c, 0, 57, 45
1, 361155, Control_c, 0, 64, 110
1, 361170, Control_c, 0, 64, 103
1, 361185, Control_c, 0, 64, 95
1, 361200, Control_c, 0, 64, 87
1, 361214, Control_c, 0, 64, 79
1, 361229, Control_c, 0, 64, 69
1, 361244, Control_c, 0, 64, 64
1, 361259, Control_c, 0, 64, 63
1, 361288, Control_c, 0, 64, 64
1, 361303, Control_c, 0, 64, 66
1, 361303, Control_c, 0, 67, 120
1, 361318, Control_c, 0, 64, 70
1, 361318, Control_c, 0, 67, 119
1, 361332, Control_c, 0, 64, 75
1, 361332, Control_c, 0, 67, 119
1, 361347, Control_c, 0, 64, 80
1, 361347, Control_c, 0, 67, 118
1, 361362, Control_c, 0, 64, 85
1, 361362, Control_c, 0, 67, 117
1, 361377, Control_c, 0, 64, 90
1, 361377, Control_c, 0, 67, 115
1, 361392, Note_on_c, 0, 62, 40
1, 361392, Control_c, 0, 64, 95
1, 361392, Control_c, 0, 67, 112
1, 361394, Note_on_c, 0, 73, 96
1, 361395, Note_off_c, 0, 54, 56
1, 361406, Control_c, 0, 64, 103
1, 361406, Control_c, 0, 67, 109
1, 361408, Note_off_c, 0, 57, 56
1, 361421, Control_c, 0, 64, 110
1, 361421, Control_c, 0, 67, 104
1, 361424, Note_off_c, 0, 72, 63
1, 361437, Control_c, 0, 64, 123
1, 361437, Control_c, 0, 67, 98
1, 361452, Control_c, 0, 64, 127
1, 361452, Control_c, 0, 67, 91
1, 361467, Control_c, 0, 67, 87
1, 361482, Control_c, 0, 67, 84
1, 361497, Control_c, 0, 67, 78
1, 361500, Note_off_c, 0, 73, 63
1, 361511, Control_c, 0, 67, 71
1, 361526, Control_c, 0, 67, 64
1, 361541, Control_c, 0, 67, 58
1, 361555, Control_c, 0, 67, 54
1, 361570, Control_c, 0, 67, 48
1, 361585, Control_c, 0, 67, 43
1, 361600, Control_c, 0, 67, 39
1, 361616, Note_on_c, 0, 73, 94
1, 361623, Control_c, 0, 67, 36
1, 361631, Note_on_c, 0, 54, 54
1, 361637, Control_c, 0, 67, 34
1, 361642, Note_on_c, 0, 57, 48
1, 361652, Control_c, 0, 64, 101
1, 361652, Control_c, 0, 67, 30
1, 361654, Note_off_c, 0, 62, 36
1, 361667, Control_c, 0, 64, 88
1, 361667, Control_c, 0, 67, 25
1, 361682, Control_c, 0, 64, 80
1, 361682, Control_c, 0, 67, 20
1, 361697, Control_c, 0, 64, 76
1, 361697, Control_c, 0, 67, 14
1, 361711, Control_c, 0, 67, 0
1, 361726, Control_c, 0, 64, 79
1, 361741, Control_c, 0, 64, 84
1, 361756, Control_c, 0, 64, 91
1, 361770, Control_c, 0, 64, 97
1, 361778, Note_off_c, 0, 54, 60
1, 361780, Note_off_c, 0, 57, 60
1, 361785, Control_c, 0, 64, 102
1, 361800, Control_c, 0, 64, 111
1, 361815, Control_c, 0, 64, 127
1, 361817, Note_on_c, 0, 74, 97
1, 361826, Note_on_c, 0, 62, 59
1, 361840, Note_off_c, 0, 73, 60
1, 361888, Note_off_c, 0, 74, 67
1, 361916, Note_off_c, 0, 62, 52
1, 362015, Note_on_c, 0, 74, 95
1, 362028, Note_on_c, 0, 55, 71
1, 362031, Note_on_c, 0, 58, 72
1, 362037, Control_c, 0, 64, 105
1, 362052, Control_c, 0, 64, 91
1, 362067, Control_c, 0, 64, 79
1, 362082, Control_c, 0, 64, 68
1, 362097, Control_c, 0, 64, 61
1, 362111, Control_c, 0, 64, 56
1, 362123, Note_off_c, 0, 58, 56
1, 362137, Note_off_c, 0, 55, 62
1, 362148, Note_off_c, 0, 74, 59
1, 362170, Control_c, 0, 64, 57
1, 362185, Control_c, 0, 64, 58
1, 362238, Note_on_c, 0, 62, 88
1, 362246, Control_c, 0, 64, 58
1, 362260, Control_c, 0, 64, 59
1, 362275, Control_c, 0, 64, 59
1, 362306, Note_off_c, 0, 62, 64
1, 362320, Control_c, 0, 64, 60
1, 362334, Control_c, 0, 64, 60
1, 362372, Control_c, 0, 64, 61
1, 362416, Control_c, 0, 64, 61
1, 362441, Note_on_c, 0, 82, 99
1, 362446, Control_c, 0, 64, 61
1, 362458, Note_on_c, 0, 74, 87
1, 362460, Control_c, 0, 64, 60
1, 362463, Note_on_c, 0, 66, 87
1, 362520, Control_c, 0, 64, 60
1, 362530, Note_off_c, 0, 66, 62
1, 362534, Control_c, 0, 64, 59
1, 362564, Control_c, 0, 64, 59
1, 362579, Control_c, 0, 64, 58
1, 362652, Note_on_c, 0, 67, 91
1, 362653, Control_c, 0, 64, 59
1, 362688, Note_off_c, 0, 74, 61
1, 362705, Note_off_c, 0, 67, 63
1, 362712, Control_c, 0, 64, 59
1, 362727, Control_c, 0, 64, 60
1, 362729, Note_off_c, 0, 82, 64
1, 362742, Control_c, 0, 64, 60
1, 362786, Control_c, 0, 64, 61
1, 362801, Control_c, 0, 64, 61
1, 362857, Note_on_c, 0, 62, 83
1, 362905, Note_off_c, 0, 62, 62
1, 363008, Control_c, 0, 67, 8
1, 363024, Control_c, 0, 67, 10
1, 363039, Control_c, 0, 67, 13
1, 363054, Control_c, 0, 67, 17
1, 363063, Note_on_c, 0, 58, 74
1, 363069, Control_c, 0, 67, 22
1, 363083, Control_c, 0, 67, 27
1, 363105, Control_c, 0, 67, 31
1, 363109, Note_off_c, 0, 58, 60
1, 363120, Control_c, 0, 64, 62
1, 363120, Control_c, 0, 67, 36
1, 363135, Control_c, 0, 64, 62
1, 363135, Control_c, 0, 67, 42
1, 363150, Control_c, 0, 67, 50
1, 363165, Control_c, 0, 67, 55
1, 363180, Control_c, 0, 67, 59
1, 363195, Control_c, 0, 67, 62
1, 363209, Control_c, 0, 67, 66
1, 363224, Control_c, 0, 67, 71
1, 363239, Control_c, 0, 67, 77
1, 363254, Note_on_c, 0, 82, 73
1, 363254, Control_c, 0, 67, 84
1, 363268, Note_on_c, 0, 74, 62
1, 363269, Note_on_c, 0, 57, 58
1, 363269, Control_c, 0, 67, 88
1, 363284, Control_c, 0, 67, 92
1, 363299, Control_c, 0, 67, 95
1, 363314, Control_c, 0, 67, 98
1, 363324, Note_off_c, 0, 57, 60
1, 363329, Control_c, 0, 67, 101
1, 363343, Control_c, 0, 67, 105
1, 363358, Control_c, 0, 64, 63
1, 363358, Control_c, 0, 67, 108
1, 363373, Control_c, 0, 67, 110
1, 363388, Control_c, 0, 67, 112
1, 363403, Control_c, 0, 67, 115
1, 363417, Control_c, 0, 67, 119
1, 363428, Note_off_c, 0, 82, 61
1, 363432, Control_c, 0, 67, 122
1, 363445, Note_off_c, 0, 74, 58
1, 363447, Control_c, 0, 67, 123
1, 363462, Control_c, 0, 67, 124
1, 363467, Note_on_c, 0, 55, 70
1, 363477, Control_c, 0, 67, 125
1, 363491, Control_c, 0, 67, 126
1, 363506, Note_off_c, 0, 55, 64
1, 363506, Control_c, 0, 64, 63
1, 363506, Control_c, 0, 67, 127
1, 363661, Note_on_c, 0, 50, 55
1, 363666, Note_on_c, 0, 54, 61
1, 363669, Control_c, 0, 64, 64
1, 363695, Note_off_c, 0, 54, 65
1, 363698, Note_off_c, 0, 50, 63
1, 363873, Note_on_c, 0, 57, 62
1, 363905, Note_off_c, 0, 57, 63
1, 364070, Note_on_c, 0, 81, 55
1, 364084, Note_on_c, 0, 72, 43
1, 364086, Note_on_c, 0, 60, 55
1, 364109, Note_off_c, 0, 60, 62
1, 364279, Note_on_c, 0, 50, 57
1, 364295, Note_off_c, 0, 81, 56
1, 364328, Note_off_c, 0, 50, 61
1, 364351, Note_off_c, 0, 72, 42
1, 364373, Control_c, 0, 67, 127
1, 364418, Control_c, 0, 67, 126
1, 364462, Control_c, 0, 64, 64
1, 364477, Note_on_c, 0, 51, 63
1, 364521, Control_c, 0, 67, 126
1, 364542, Note_off_c, 0, 51, 56
1, 364596, Control_c, 0, 64, 64
1, 364596, Control_c, 0, 67, 125
1, 364663, Control_c, 0, 64, 63
1, 364691, Note_on_c, 0, 55, 61
1, 364708, Control_c, 0, 64, 63
1, 364741, Note_off_c, 0, 55, 56
1, 364767, Control_c, 0, 64, 62
1, 364767, Control_c, 0, 67, 125
1, 364811, Control_c, 0, 67, 124
1, 364841, Control_c, 0, 64, 63
1, 364841, Control_c, 0, 67, 124
1, 364855, Control_c, 0, 67, 123
1, 364870, Control_c, 0, 64, 63
1, 364900, Control_c, 0, 67, 123
1, 364906, Note_on_c, 0, 79, 61
1, 364909, Note_on_c, 0, 58, 61
1, 364911, Note_on_c, 0, 70, 55
1, 364930, Control_c, 0, 67, 122
1, 364945, Control_c, 0, 64, 64
1, 364960, Control_c, 0, 67, 122
1, 364968, Note_off_c, 0, 58, 60
1, 364974, Control_c, 0, 67, 121
1, 365019, Control_c, 0, 67, 121
1, 365033, Note_off_c, 0, 70, 39
1, 365034, Control_c, 0, 67, 120
1, 365049, Control_c, 0, 67, 119
1, 365049, Note_off_c, 0, 79, 59
1, 365063, Control_c, 0, 67, 119
1, 365078, Control_c, 0, 67, 118
1, 365093, Control_c, 0, 67, 117
1, 365107, Control_c, 0, 67, 116
1, 365122, Control_c, 0, 67, 115
1, 365130, Note_on_c, 0, 51, 67
1, 365137, Control_c, 0, 64, 64
1, 365137, Control_c, 0, 67, 114
1, 365152, Control_c, 0, 67, 113
1, 365167, Control_c, 0, 67, 113
1, 365177, Note_off_c, 0, 51, 61
1, 365196, Control_c, 0, 67, 112
1, 365226, Control_c, 0, 67, 112
1, 365241, Control_c, 0, 67, 111
1, 365255, Control_c, 0, 67, 109
1, 365270, Control_c, 0, 67, 107
1, 365285, Control_c, 0, 67, 102
1, 365299, Control_c, 0, 67, 96
1, 365314, Control_c, 0, 67, 88
1, 365327, Note_on_c, 0, 55, 82
1, 365329, Control_c, 0, 67, 78
1, 365331, Note_on_c, 0, 51, 74
1, 365344, Control_c, 0, 67, 71
1, 365367, Control_c, 0, 67, 64
1, 365381, Control_c, 0, 67, 56
1, 365396, Control_c, 0, 67, 48
1, 365411, Control_c, 0, 67, 38
1, 365426, Control_c, 0, 67, 25
1, 365442, Control_c, 0, 67, 10
1, 365457, Control_c, 0, 67, 0
1, 365457, Note_off_c, 0, 55, 62
1, 365463, Note_off_c, 0, 51, 62
1, 365500, Control_c, 0, 64, 64
1, 365515, Control_c, 0, 64, 63
1, 365530, Control_c, 0, 64, 62
1, 365545, Control_c, 0, 64, 61
1, 365559, Control_c, 0, 64, 61
1, 365560, Note_on_c, 0, 58, 90
1, 365574, Control_c, 0, 64, 59
1, 365589, Control_c, 0, 64, 58
1, 365603, Control_c, 0, 64, 57
1, 365633, Control_c, 0, 64, 56
1, 365654, Note_off_c, 0, 58, 61
1, 365693, Control_c, 0, 64, 57
1, 365708, Control_c, 0, 64, 58
1, 365723, Control_c, 0, 64, 59
1, 365776, Note_on_c, 0, 70, 91
1, 365776, Note_on_c, 0, 79, 87
1, 365779, Note_on_c, 0, 67, 88
1, 365788, Note_on_c, 0, 62, 81
1, 365885, Control_c, 0, 64, 59
1, 365886, Note_off_c, 0, 62, 61
1, 365929, Control_c, 0, 64, 60
1, 365944, Control_c, 0, 64, 60
1, 365959, Control_c, 0, 64, 61
1, 365989, Control_c, 0, 64, 61
1, 366000, Note_on_c, 0, 63, 85
1, 366018, Control_c, 0, 64, 62
1, 366033, Control_c, 0, 64, 62
1, 366061, Note_off_c, 0, 63, 62
1, 366062, Note_off_c, 0, 67, 60
1, 366072, Note_off_c, 0, 70, 60
1, 366077, Control_c, 0, 64, 63
1, 366083, Note_off_c, 0, 79, 62
1, 366144, Control_c, 0, 64, 63
1, 366204, Note_on_c, 0, 58, 75
1, 366264, Note_off_c, 0, 58, 63
1, 366280, Control_c, 0, 64, 64
1, 366324, Control_c, 0, 67, 8
1, 366339, Control_c, 0, 67, 12
1, 366353, Control_c, 0, 67, 17
1, 366368, Control_c, 0, 67, 23
1, 366383, Control_c, 0, 67, 29
1, 366398, Control_c, 0, 67, 34
1, 366402, Note_on_c, 0, 55, 70
1, 366413, Control_c, 0, 67, 40
1, 366427, Control_c, 0, 67, 47
1, 366442, Control_c, 0, 67, 54
1, 366445, Note_off_c, 0, 55, 63
1, 366457, Control_c, 0, 67, 59
1, 366472, Control_c, 0, 67, 64
1, 366487, Control_c, 0, 67, 69
1, 366501, Control_c, 0, 67, 74
1, 366516, Control_c, 0, 67, 80
1, 366531, Control_c, 0, 67, 87
1, 366546, Control_c, 0, 67, 93
1, 366560, Control_c, 0, 67, 99
1, 366575, Control_c, 0, 67, 105
1, 366590, Control_c, 0, 67, 110
1, 366605, Control_c, 0, 64, 63
1, 366605, Control_c, 0, 67, 115
1, 366608, Note_on_c, 0, 53, 66
1, 366610, Note_on_c, 0, 67, 57
1, 366610, Note_on_c, 0, 75, 57
1, 366610, Note_on_c, 0, 79, 61
1, 366620, Control_c, 0, 67, 120
1, 366635, Control_c, 0, 67, 125
1, 366650, Control_c, 0, 67, 127
1, 366658, Note_off_c, 0, 53, 61
1, 366813, Note_on_c, 0, 51, 69
1, 366823, Note_off_c, 0, 75, 46
1, 366826, Note_off_c, 0, 79, 57
1, 366827, Control_c, 0, 64, 64
1, 366864, Note_off_c, 0, 51, 59
1, 366882, Note_off_c, 0, 67, 39
1, 366968, Control_c, 0, 64, 63
1, 367024, Note_on_c, 0, 43, 58
1, 367028, Note_on_c, 0, 47, 61
1, 367073, Note_off_c, 0, 47, 64
1, 367108, Note_off_c, 0, 43, 61
1, 367191, Control_c, 0, 64, 63
1, 367243, Note_on_c, 0, 50, 62
1, 367279, Note_off_c, 0, 50, 66
1, 367354, Control_c, 0, 64, 62
1, 367398, Control_c, 0, 64, 62
1, 367428, Control_c, 0, 64, 61
1, 367458, Note_on_c, 0, 74, 48
1, 367459, Note_on_c, 0, 55, 55
1, 367463, Note_on_c, 0, 77, 41
1, 367478, Note_on_c, 0, 67, 38
1, 367487, Control_c, 0, 64, 61
1, 367502, Control_c, 0, 64, 60
1, 367502, Note_off_c, 0, 55, 59
1, 367547, Control_c, 0, 64, 60
1, 367562, Control_c, 0, 64, 59
1, 367576, Control_c, 0, 64, 58
1, 367580, Note_off_c, 0, 74, 46
1, 367591, Control_c, 0, 64, 57
1, 367613, Control_c, 0, 64, 58
1, 367628, Control_c, 0, 64, 58
1, 367675, Note_on_c, 0, 47, 55
1, 367675, Note_off_c, 0, 67, 31
1, 367685, Note_off_c, 0, 77, 37
1, 367717, Control_c, 0, 64, 59
1, 367732, Control_c, 0, 64, 60
1, 367738, Note_off_c, 0, 47, 58
1, 367774, Control_c, 0, 64, 60
1, 367804, Control_c, 0, 64, 61
1, 367819, Control_c, 0, 64, 61
1, 367893, Note_on_c, 0, 48, 62
1, 367894, Control_c, 0, 64, 62
1, 367953, Control_c, 0, 64, 62
1, 367975, Note_off_c, 0, 48, 60
1, 368119, Note_on_c, 0, 51, 63
1, 368131, Control_c, 0, 64, 63
1, 368201, Note_off_c, 0, 51, 59
1, 368205, Control_c, 0, 64, 63
1, 368374, Note_on_c, 0, 55, 46
1, 368376, Note_on_c, 0, 75, 43
1, 368387, Note_on_c, 0, 72, 40
1, 368395, Note_on_c, 0, 67, 39
1, 368461, Note_off_c, 0, 55, 61
1, 368524, Note_off_c, 0, 72, 38
1, 368530, Note_off_c, 0, 67, 41
1, 368598, Note_off_c, 0, 75, 36
1, 368643, Control_c, 0, 64, 64
1, 368668, Note_on_c, 0, 48, 45
1, 368795, Note_off_c, 0, 48, 58
1, 368820, Control_c, 0, 64, 64
1, 369073, Control_c, 0, 64, 65
1, 369192, Note_on_c, 0, 77, 55
1, 369196, Note_on_c, 0, 73, 52
1, 369201, Note_on_c, 0, 70, 41
1, 369211, Note_on_c, 0, 67, 42
1, 369214, Note_on_c, 0, 61, 42
1, 369216, Note_on_c, 0, 46, 40
1, 369376, Control_c, 0, 64, 65
1, 369391, Control_c, 0, 64, 66
1, 369406, Control_c, 0, 64, 67
1, 369422, Control_c, 0, 64, 68
1, 369437, Control_c, 0, 64, 70
1, 369451, Control_c, 0, 64, 74
1, 369466, Control_c, 0, 64, 77
1, 369481, Control_c, 0, 64, 81
1, 369496, Control_c, 0, 64, 84
1, 369511, Control_c, 0, 64, 87
1, 369525, Control_c, 0, 64, 91
1, 369540, Control_c, 0, 64, 96
1, 369555, Control_c, 0, 64, 104
1, 369569, Control_c, 0, 64, 113
1, 369584, Control_c, 0, 64, 127
1, 369833, Note_off_c, 0, 77, 39
1, 369862, Note_on_c, 0, 76, 63
1, 370064, Note_on_c, 0, 79, 62
1, 370093, Note_on_c, 0, 52, 46
1, 370111, Control_c, 0, 64, 115
1, 370125, Control_c, 0, 64, 102
1, 370140, Control_c, 0, 64, 94
1, 370152, Note_off_c, 0, 76, 60
1, 370155, Control_c, 0, 64, 90
1, 370170, Control_c, 0, 64, 86
1, 370185, Control_c, 0, 64, 82
1, 370200, Control_c, 0, 64, 77
1, 370215, Control_c, 0, 64, 71
1, 370230, Control_c, 0, 64, 68
1, 370245, Control_c, 0, 64, 67
1, 370304, Control_c, 0, 64, 68
1, 370319, Control_c, 0, 64, 71
1, 370334, Control_c, 0, 64, 76
1, 370349, Control_c, 0, 64, 81
1, 370364, Control_c, 0, 64, 86
1, 370379, Control_c, 0, 64, 91
1, 370393, Control_c, 0, 64, 97
1, 370408, Control_c, 0, 64, 103
1, 370423, Control_c, 0, 64, 110
1, 370438, Control_c, 0, 64, 127
1, 370844, Note_on_c, 0, 55, 36
1, 370919, Note_off_c, 0, 52, 59
1, 371600, Note_on_c, 0, 52, 37
1, 371679, Note_off_c, 0, 79, 29
1, 371723, Note_off_c, 0, 67, 34
1, 371798, Note_off_c, 0, 46, 40
1, 371799, Note_off_c, 0, 55, 42
1, 371822, Note_off_c, 0, 70, 40
1, 371846, Note_off_c, 0, 61, 37
1, 371873, Note_off_c, 0, 73, 33
1, 371987, Note_off_c, 0, 52, 41
1, 372412, Note_on_c, 0, 77, 48
1, 372419, Note_on_c, 0, 73, 43
1, 372423, Note_on_c, 0, 61, 41
1, 372424, Note_on_c, 0, 67, 42
1, 372433, Note_on_c, 0, 70, 40
1, 372436, Note_on_c, 0, 46, 40
1, 372489, Control_c, 0, 64, 114
1, 372504, Control_c, 0, 64, 105
1, 372519, Control_c, 0, 64, 99
1, 372534, Control_c, 0, 64, 93
1, 372549, Control_c, 0, 64, 88
1, 372564, Control_c, 0, 64, 83
1, 372579, Control_c, 0, 64, 79
1, 372594, Control_c, 0, 64, 74
1, 372609, Control_c, 0, 64, 71
1, 372624, Control_c, 0, 64, 68
1, 372639, Control_c, 0, 64, 65
1, 372654, Control_c, 0, 64, 64
1, 372668, Control_c, 0, 64, 64
1, 372713, Control_c, 0, 64, 64
1, 372728, Control_c, 0, 64, 66
1, 372743, Control_c, 0, 64, 69
1, 372758, Control_c, 0, 64, 72
1, 372772, Control_c, 0, 64, 74
1, 372787, Control_c, 0, 64, 75
1, 372802, Control_c, 0, 64, 78
1, 372817, Control_c, 0, 64, 84
1, 372832, Control_c, 0, 64, 90
1, 372854, Control_c, 0, 64, 95
1, 372868, Control_c, 0, 64, 98
1, 372883, Control_c, 0, 64, 98
1, 373011, Note_on_c, 0, 76, 54
1, 373014, Note_off_c, 0, 77, 32
1, 373077, Control_c, 0, 64, 97
1, 373091, Control_c, 0, 64, 97
1, 373106, Control_c, 0, 64, 96
1, 373121, Control_c, 0, 64, 95
1, 373136, Control_c, 0, 64, 95
1, 373151, Control_c, 0, 64, 94
1, 373166, Control_c, 0, 64, 92
1, 373181, Control_c, 0, 64, 91
1, 373195, Control_c, 0, 64, 88
1, 373210, Control_c, 0, 64, 86
1, 373225, Control_c, 0, 64, 85
1, 373229, Note_on_c, 0, 79, 52
1, 373240, Control_c, 0, 64, 84
1, 373255, Control_c, 0, 64, 81
1, 373261, Note_on_c, 0, 52, 38
1, 373269, Control_c, 0, 64, 79
1, 373284, Control_c, 0, 64, 77
1, 373299, Control_c, 0, 64, 74
1, 373313, Control_c, 0, 64, 72
1, 373327, Note_off_c, 0, 76, 51
1, 373328, Control_c, 0, 64, 70
1, 373343, Control_c, 0, 64, 68
1, 373358, Control_c, 0, 64, 68
1, 373373, Control_c, 0, 64, 67
1, 373387, Control_c, 0, 64, 65
1, 373402, Control_c, 0, 64, 63
1, 373418, Control_c, 0, 64, 62
1, 373433, Control_c, 0, 64, 60
1, 373448, Control_c, 0, 64, 59
1, 373463, Control_c, 0, 64, 58
1, 373507, Control_c, 0, 64, 59
1, 373522, Control_c, 0, 64, 63
1, 373536, Control_c, 0, 64, 66
1, 373551, Control_c, 0, 64, 68
1, 373566, Control_c, 0, 64, 70
1, 373581, Control_c, 0, 64, 72
1, 373604, Control_c, 0, 64, 75
1, 373618, Control_c, 0, 64, 81
1, 373633, Control_c, 0, 64, 88
1, 373648, Control_c, 0, 64, 93
1, 373663, Control_c, 0, 64, 94
1, 373678, Control_c, 0, 64, 95
1, 373692, Control_c, 0, 64, 97
1, 373707, Control_c, 0, 64, 100
1, 373722, Control_c, 0, 64, 103
1, 373722, Control_c, 0, 67, 125
1, 373737, Control_c, 0, 64, 103
1, 373737, Control_c, 0, 67, 120
1, 373751, Control_c, 0, 67, 113
1, 373766, Control_c, 0, 67, 108
1, 373781, Control_c, 0, 67, 104
1, 373796, Control_c, 0, 67, 101
1, 373811, Control_c, 0, 64, 104
1, 373811, Control_c, 0, 67, 97
1, 373825, Control_c, 0, 67, 91
1, 373840, Control_c, 0, 67, 85
1, 373855, Control_c, 0, 64, 104
1, 373855, Control_c, 0, 67, 80
1, 373869, Control_c, 0, 64, 105
1, 373869, Control_c, 0, 67, 76
1, 373884, Control_c, 0, 64, 106
1, 373884, Control_c, 0, 67, 72
1, 373899, Control_c, 0, 67, 69
1, 373914, Control_c, 0, 67, 67
1, 373929, Control_c, 0, 67, 65
1, 373944, Control_c, 0, 67, 62
1, 373959, Control_c, 0, 64, 107
1, 373959, Control_c, 0, 67, 60
1, 373974, Control_c, 0, 64, 107
1, 373974, Control_c, 0, 67, 57
1, 373989, Control_c, 0, 64, 108
1, 373989, Control_c, 0, 67, 54
1, 374004, Control_c, 0, 67, 53
1, 374018, Control_c, 0, 64, 108
1, 374018, Control_c, 0, 67, 52
1, 374033, Control_c, 0, 67, 52
1, 374045, Note_on_c, 0, 55, 35
1, 374048, Control_c, 0, 64, 109
1, 374048, Control_c, 0, 67, 51
1, 374062, Control_c, 0, 64, 110
1, 374062, Control_c, 0, 67, 49
1, 374077, Control_c, 0, 67, 47
1, 374092, Control_c, 0, 64, 111
1, 374092, Control_c, 0, 67, 45
1, 374107, Control_c, 0, 64, 111
1, 374107, Control_c, 0, 67, 44
1, 374122, Control_c, 0, 64, 113
1, 374122, Control_c, 0, 67, 43
1, 374136, Control_c, 0, 64, 115
1, 374136, Control_c, 0, 67, 41
1, 374151, Control_c, 0, 64, 118
1, 374151, Control_c, 0, 67, 39
1, 374166, Control_c, 0, 64, 120
1, 374166, Control_c, 0, 67, 37
1, 374181, Control_c, 0, 64, 121
1, 374181, Control_c, 0, 67, 34
1, 374188, Note_off_c, 0, 52, 41
1, 374196, Control_c, 0, 64, 124
1, 374196, Control_c, 0, 67, 32
1, 374212, Control_c, 0, 64, 127
1, 374212, Control_c, 0, 67, 28
1, 374227, Control_c, 0, 67, 24
1, 374241, Control_c, 0, 67, 19
1, 374256, Control_c, 0, 67, 13
1, 374271, Control_c, 0, 67, 8
1, 374285, Control_c, 0, 67, 0
1, 374290, Note_off_c, 0, 67, 39
1, 374341, Note_off_c, 0, 79, 35
1, 374405, Note_off_c, 0, 70, 56
1, 374409, Note_off_c, 0, 46, 39
1, 374423, Note_off_c, 0, 73, 52
1, 374591, Note_off_c, 0, 61, 41
1, 374615, Note_off_c, 0, 55, 42
1, 374850, Note_on_c, 0, 79, 74
1, 374856, Control_c, 0, 64, 116
1, 374871, Control_c, 0, 64, 110
1, 374875, Note_on_c, 0, 73, 47
1, 374885, Control_c, 0, 64, 105
1, 374888, Note_on_c, 0, 46, 36
1, 374900, Note_on_c, 0, 52, 37
1, 374900, Control_c, 0, 64, 101
1, 374915, Control_c, 0, 64, 94
1, 374930, Control_c, 0, 64, 89
1, 374945, Control_c, 0, 64, 85
1, 374959, Control_c, 0, 64, 82
1, 374974, Control_c, 0, 64, 78
1, 374989, Control_c, 0, 64, 73
1, 375004, Control_c, 0, 64, 67
1, 375020, Control_c, 0, 64, 65
1, 375035, Control_c, 0, 64, 64
1, 375050, Control_c, 0, 64, 63
1, 375064, Control_c, 0, 64, 59
1, 375079, Control_c, 0, 64, 45
1, 375101, Control_c, 0, 64, 26
1, 375115, Control_c, 0, 64, 28
1, 375130, Control_c, 0, 64, 47
1, 375145, Control_c, 0, 64, 57
1, 375160, Control_c, 0, 64, 63
1, 375175, Control_c, 0, 64, 66
1, 375190, Control_c, 0, 64, 69
1, 375205, Control_c, 0, 64, 75
1, 375220, Control_c, 0, 64, 82
1, 375235, Control_c, 0, 64, 89
1, 375250, Control_c, 0, 64, 95
1, 375264, Control_c, 0, 64, 102
1, 375279, Control_c, 0, 64, 108
1, 375294, Control_c, 0, 64, 121
1, 375309, Control_c, 0, 64, 127
1, 375341, Note_off_c, 0, 73, 44
1, 375394, Note_off_c, 0, 46, 42
1, 375417, Note_off_c, 0, 52, 41
1, 375444, Note_on_c, 0, 85, 79
1, 375554, Note_off_c, 0, 79, 45
1, 375593, Note_off_c, 0, 85, 60
1, 375664, Note_on_c, 0, 85, 69
1, 375679, Control_c, 0, 64, 118
1, 375694, Control_c, 0, 64, 109
1, 375708, Control_c, 0, 64, 101
1, 375723, Control_c, 0, 64, 94
1, 375738, Control_c, 0, 64, 88
1, 375753, Control_c, 0, 64, 83
1, 375768, Control_c, 0, 64, 78
1, 375782, Control_c, 0, 64, 73
1, 375797, Control_c, 0, 64, 68
1, 375813, Control_c, 0, 64, 65
1, 375828, Control_c, 0, 64, 64
1, 375850, Control_c, 0, 64, 60
1, 375865, Control_c, 0, 64, 46
1, 375880, Control_c, 0, 64, 30
1, 375894, Control_c, 0, 64, 28
1, 375909, Control_c, 0, 64, 29
1, 375924, Control_c, 0, 64, 40
1, 375938, Control_c, 0, 64, 47
1, 375953, Control_c, 0, 64, 52
1, 375968, Control_c, 0, 64, 60
1, 375983, Control_c, 0, 64, 65
1, 375998, Control_c, 0, 64, 71
1, 376013, Control_c, 0, 64, 77
1, 376028, Control_c, 0, 64, 84
1, 376043, Control_c, 0, 64, 91
1, 376057, Control_c, 0, 64, 98
1, 376072, Control_c, 0, 64, 103
1, 376087, Control_c, 0, 64, 112
1, 376102, Control_c, 0, 64, 127
1, 376228, Note_off_c, 0, 85, 38
1, 376514, Note_on_c, 0, 84, 57
1, 376539, Note_on_c, 0, 44, 37
1, 376546, Control_c, 0, 64, 115
1, 376548, Note_on_c, 0, 72, 37
1, 376549, Note_on_c, 0, 48, 32
1, 376552, Note_on_c, 0, 53, 29
1, 376561, Control_c, 0, 64, 108
1, 376576, Control_c, 0, 64, 103
1, 376598, Control_c, 0, 64, 97
1, 376614, Control_c, 0, 64, 91
1, 376629, Control_c, 0, 64, 86
1, 376643, Control_c, 0, 64, 81
1, 376658, Control_c, 0, 64, 76
1, 376673, Control_c, 0, 64, 71
1, 376687, Control_c, 0, 64, 68
1, 376702, Control_c, 0, 64, 65
1, 376717, Control_c, 0, 64, 63
1, 376732, Control_c, 0, 64, 60
1, 376747, Control_c, 0, 64, 58
1, 376761, Control_c, 0, 64, 57
1, 376791, Control_c, 0, 64, 58
1, 376806, Control_c, 0, 64, 61
1, 376821, Control_c, 0, 64, 64
1, 376835, Control_c, 0, 64, 65
1, 376850, Control_c, 0, 64, 67
1, 376865, Control_c, 0, 64, 69
1, 376880, Control_c, 0, 64, 74
1, 376895, Control_c, 0, 64, 81
1, 376910, Control_c, 0, 64, 90
1, 376925, Control_c, 0, 64, 95
1, 376940, Control_c, 0, 64, 97
1, 376954, Note_off_c, 0, 53, 43
1, 376955, Control_c, 0, 64, 101
1, 376969, Control_c, 0, 64, 107
1, 376970, Note_off_c, 0, 72, 36
1, 376972, Note_off_c, 0, 44, 44
1, 376984, Control_c, 0, 64, 119
1, 376984, Control_c, 0, 67, 9
1, 376999, Control_c, 0, 64, 127
1, 376999, Control_c, 0, 67, 13
1, 377013, Note_off_c, 0, 48, 41
1, 377014, Control_c, 0, 67, 18
1, 377029, Control_c, 0, 67, 23
1, 377043, Control_c, 0, 67, 28
1, 377058, Control_c, 0, 67, 36
1, 377073, Control_c, 0, 67, 43
1, 377087, Control_c, 0, 67, 51
1, 377102, Control_c, 0, 67, 57
1, 377117, Control_c, 0, 67, 63
1, 377132, Control_c, 0, 67, 68
1, 377147, Control_c, 0, 67, 73
1, 377161, Control_c, 0, 67, 78
1, 377166, Note_on_c, 0, 77, 61
1, 377176, Control_c, 0, 67, 84
1, 377191, Control_c, 0, 67, 91
1, 377206, Control_c, 0, 67, 97
1, 377213, Note_off_c, 0, 84, 32
1, 377221, Control_c, 0, 67, 102
1, 377235, Note_off_c, 0, 77, 60
1, 377235, Control_c, 0, 67, 107
1, 377250, Control_c, 0, 67, 112
1, 377265, Control_c, 0, 67, 115
1, 377280, Control_c, 0, 67, 118
1, 377295, Control_c, 0, 67, 121
1, 377309, Control_c, 0, 67, 124
1, 377324, Control_c, 0, 67, 125
1, 377347, Control_c, 0, 67, 126
1, 377362, Control_c, 0, 67, 127
1, 377406, Control_c, 0, 64, 119
1, 377412, Note_on_c, 0, 77, 56
1, 377422, Control_c, 0, 64, 112
1, 377437, Control_c, 0, 64, 106
1, 377452, Control_c, 0, 64, 101
1, 377466, Control_c, 0, 64, 97
1, 377481, Control_c, 0, 64, 93
1, 377496, Control_c, 0, 64, 90
1, 377510, Control_c, 0, 64, 86
1, 377525, Control_c, 0, 64, 83
1, 377540, Control_c, 0, 64, 80
1, 377555, Control_c, 0, 64, 76
1, 377570, Control_c, 0, 64, 72
1, 377584, Control_c, 0, 64, 67
1, 377599, Control_c, 0, 64, 65
1, 377614, Control_c, 0, 64, 63
1, 377629, Control_c, 0, 64, 61
1, 377644, Control_c, 0, 64, 57
1, 377658, Control_c, 0, 64, 48
1, 377673, Control_c, 0, 64, 38
1, 377688, Control_c, 0, 64, 36
1, 377733, Control_c, 0, 64, 39
1, 377748, Control_c, 0, 64, 46
1, 377763, Control_c, 0, 64, 57
1, 377777, Control_c, 0, 64, 62
1, 377792, Control_c, 0, 64, 64
1, 377807, Control_c, 0, 64, 65
1, 377822, Control_c, 0, 64, 68
1, 377836, Control_c, 0, 64, 72
1, 377851, Control_c, 0, 64, 79
1, 377866, Control_c, 0, 64, 86
1, 377881, Control_c, 0, 64, 89
1, 377896, Control_c, 0, 64, 90
1, 377910, Control_c, 0, 64, 92
1, 377925, Control_c, 0, 64, 98
1, 377940, Control_c, 0, 64, 105
1, 377955, Control_c, 0, 64, 113
1, 377970, Control_c, 0, 64, 115
1, 377972, Note_off_c, 0, 77, 51
1, 377984, Control_c, 0, 64, 117
1, 377999, Control_c, 0, 64, 122
1, 378014, Control_c, 0, 64, 127
1, 378265, Note_on_c, 0, 76, 42
1, 378290, Note_on_c, 0, 64, 30
1, 378294, Note_on_c, 0, 70, 30
1, 378308, Note_on_c, 0, 55, 33
1, 378328, Note_on_c, 0, 48, 15
1, 378378, Control_c, 0, 64, 124
1, 378393, Control_c, 0, 64, 112
1, 378407, Control_c, 0, 64, 107
1, 378422, Control_c, 0, 64, 104
1, 378437, Control_c, 0, 64, 100
1, 378452, Control_c, 0, 64, 95
1, 378466, Control_c, 0, 64, 92
1, 378481, Control_c, 0, 64, 89
1, 378496, Control_c, 0, 64, 87
1, 378511, Control_c, 0, 64, 83
1, 378526, Control_c, 0, 64, 77
1, 378541, Control_c, 0, 64, 71
1, 378555, Control_c, 0, 64, 68
1, 378570, Control_c, 0, 64, 67
1, 378585, Control_c, 0, 64, 66
1, 378600, Control_c, 0, 64, 65
1, 378615, Control_c, 0, 64, 64
1, 378630, Control_c, 0, 64, 64
1, 378645, Control_c, 0, 64, 66
1, 378659, Control_c, 0, 64, 67
1, 378674, Control_c, 0, 64, 69
1, 378689, Control_c, 0, 64, 70
1, 378704, Control_c, 0, 64, 73
1, 378719, Control_c, 0, 64, 78
1, 378733, Control_c, 0, 64, 84
1, 378748, Control_c, 0, 64, 92
1, 378763, Control_c, 0, 64, 97
1, 378778, Control_c, 0, 64, 100
1, 378793, Control_c, 0, 64, 102
1, 378797, Note_off_c, 0, 70, 43
1, 378806, Note_off_c, 0, 48, 42
1, 378807, Control_c, 0, 64, 106
1, 378822, Control_c, 0, 64, 110
1, 378845, Control_c, 0, 64, 112
1, 378850, Note_off_c, 0, 64, 40
1, 378859, Control_c, 0, 64, 113
1, 378874, Control_c, 0, 64, 116
1, 378880, Note_off_c, 0, 55, 41
1, 378889, Control_c, 0, 64, 126
1, 378904, Control_c, 0, 64, 127
1, 378948, Note_on_c, 0, 79, 47
1, 378991, Note_off_c, 0, 76, 59
1, 379026, Note_off_c, 0, 79, 52
1, 379231, Control_c, 0, 64, 116
1, 379239, Note_on_c, 0, 79, 53
1, 379245, Control_c, 0, 64, 109
1, 379260, Control_c, 0, 64, 105
1, 379275, Control_c, 0, 64, 103
1, 379304, Control_c, 0, 64, 103
1, 379319, Control_c, 0, 64, 100
1, 379334, Control_c, 0, 64, 96
1, 379349, Control_c, 0, 64, 91
1, 379363, Control_c, 0, 64, 85
1, 379378, Control_c, 0, 64, 80
1, 379393, Control_c, 0, 64, 76
1, 379408, Control_c, 0, 64, 72
1, 379423, Control_c, 0, 64, 68
1, 379438, Control_c, 0, 64, 65
1, 379453, Control_c, 0, 64, 64
1, 379482, Control_c, 0, 64, 64
1, 379497, Control_c, 0, 64, 63
1, 379512, Control_c, 0, 64, 61
1, 379527, Control_c, 0, 64, 58
1, 379542, Control_c, 0, 64, 56
1, 379556, Control_c, 0, 64, 53
1, 379571, Control_c, 0, 64, 47
1, 379593, Control_c, 0, 64, 45
1, 379658, Note_on_c, 0, 80, 51
1, 379667, Control_c, 0, 64, 45
1, 379712, Control_c, 0, 64, 46
1, 379727, Control_c, 0, 64, 47
1, 379742, Control_c, 0, 64, 48
1, 379756, Control_c, 0, 64, 50
1, 379771, Note_off_c, 0, 79, 58
1, 379771, Control_c, 0, 64, 51
1, 379786, Control_c, 0, 64, 51
1, 379801, Control_c, 0, 64, 52
1, 379816, Control_c, 0, 64, 53
1, 379831, Control_c, 0, 64, 54
1, 379846, Control_c, 0, 64, 57
1, 379861, Control_c, 0, 64, 58
1, 379891, Control_c, 0, 64, 59
1, 379905, Control_c, 0, 64, 60
1, 379920, Control_c, 0, 64, 63
1, 379935, Control_c, 0, 64, 64
1, 379950, Control_c, 0, 64, 64
1, 379965, Control_c, 0, 64, 65
1, 379979, Control_c, 0, 64, 66
1, 379994, Control_c, 0, 64, 68
1, 380009, Control_c, 0, 64, 71
1, 380024, Control_c, 0, 64, 75
1, 380039, Control_c, 0, 64, 79
1, 380053, Control_c, 0, 64, 83
1, 380068, Control_c, 0, 64, 86
1, 380083, Control_c, 0, 64, 87
1, 380097, Note_on_c, 0, 53, 38
1, 380097, Note_on_c, 0, 68, 40
1, 380098, Control_c, 0, 64, 90
1, 380112, Control_c, 0, 64, 95
1, 380114, Note_on_c, 0, 65, 35
1, 380127, Control_c, 0, 64, 101
1, 380142, Control_c, 0, 64, 109
1, 380157, Control_c, 0, 64, 119
1, 380172, Control_c, 0, 64, 127
1, 380357, Note_off_c, 0, 68, 40
1, 380399, Note_off_c, 0, 65, 37
1, 380412, Note_off_c, 0, 53, 43
1, 380949, Note_on_c, 0, 68, 34
1, 380954, Note_on_c, 0, 53, 33
1, 380998, Poly_aftertouch_c, 0, 65, 127
1, 381039, Note_off_c, 0, 80, 58
1, 381058, Note_off_c, 0, 68, 57
1, 381068, Note_off_c, 0, 53, 56
1, 381117, Poly_aftertouch_c, 0, 65, 0
1, 381426, Note_on_c, 0, 73, 69
1, 381459, Note_on_c, 0, 65, 46
1, 381464, Note_on_c, 0, 68, 44
1, 381491, Control_c, 0, 64, 124
1, 381506, Control_c, 0, 64, 104
1, 381521, Control_c, 0, 64, 95
1, 381536, Control_c, 0, 64, 88
1, 381550, Control_c, 0, 64, 81
1, 381565, Control_c, 0, 64, 74
1, 381580, Control_c, 0, 64, 66
1, 381595, Control_c, 0, 64, 60
1, 381610, Control_c, 0, 64, 49
1, 381624, Control_c, 0, 64, 36
1, 381639, Control_c, 0, 64, 29
1, 381654, Control_c, 0, 64, 33
1, 381669, Control_c, 0, 64, 56
1, 381683, Control_c, 0, 64, 64
1, 381685, Note_off_c, 0, 68, 56
1, 381698, Control_c, 0, 64, 68
1, 381713, Control_c, 0, 64, 73
1, 381728, Control_c, 0, 64, 80
1, 381743, Control_c, 0, 64, 91
1, 381743, Control_c, 0, 67, 126
1, 381757, Control_c, 0, 64, 108
1, 381757, Control_c, 0, 67, 125
1, 381772, Control_c, 0, 64, 127
1, 381772, Control_c, 0, 67, 122
1, 381787, Control_c, 0, 67, 121
1, 381802, Control_c, 0, 67, 119
1, 381807, Note_on_c, 0, 72, 77
1, 381817, Control_c, 0, 67, 118
1, 381827, Note_on_c, 0, 68, 51
1, 381835, Note_on_c, 0, 66, 54
1, 381837, Note_on_c, 0, 63, 50
1, 381839, Control_c, 0, 67, 115
1, 381854, Control_c, 0, 67, 111
1, 381869, Control_c, 0, 64, 114
1, 381869, Control_c, 0, 67, 108
1, 381883, Control_c, 0, 64, 96
1, 381883, Control_c, 0, 67, 106
1, 381897, Note_off_c, 0, 65, 38
1, 381898, Control_c, 0, 64, 82
1, 381898, Control_c, 0, 67, 104
1, 381913, Control_c, 0, 64, 70
1, 381913, Control_c, 0, 67, 101
1, 381928, Control_c, 0, 64, 57
1, 381928, Control_c, 0, 67, 96
1, 381943, Control_c, 0, 64, 0
1, 381943, Control_c, 0, 67, 90
1, 381955, Note_off_c, 0, 73, 62
1, 381957, Control_c, 0, 67, 83
1, 381972, Control_c, 0, 64, 45
1, 381972, Control_c, 0, 67, 77
1, 381975, Note_off_c, 0, 68, 51
1, 381986, Control_c, 0, 64, 59
1, 381986, Control_c, 0, 67, 70
1, 382001, Control_c, 0, 64, 65
1, 382001, Control_c, 0, 67, 62
1, 382016, Control_c, 0, 64, 71
1, 382016, Control_c, 0, 67, 55
1, 382031, Control_c, 0, 64, 80
1, 382031, Control_c, 0, 67, 49
1, 382046, Control_c, 0, 64, 97
1, 382046, Control_c, 0, 67, 44
1, 382061, Control_c, 0, 64, 127
1, 382061, Control_c, 0, 67, 38
1, 382075, Control_c, 0, 67, 32
1, 382090, Control_c, 0, 67, 26
1, 382105, Control_c, 0, 67, 18
1, 382120, Control_c, 0, 67, 10
1, 382135, Control_c, 0, 67, 0
1, 382166, Note_on_c, 0, 73, 85
1, 382188, Note_on_c, 0, 68, 55
1, 382189, Note_on_c, 0, 61, 49
1, 382201, Note_on_c, 0, 65, 55
1, 382225, Control_c, 0, 64, 102
1, 382240, Control_c, 0, 64, 83
1, 382249, Note_off_c, 0, 66, 37
1, 382250, Note_off_c, 0, 72, 63
1, 382254, Control_c, 0, 64, 71
1, 382255, Note_off_c, 0, 63, 37
1, 382269, Control_c, 0, 64, 64
1, 382284, Control_c, 0, 64, 59
1, 382298, Control_c, 0, 64, 59
1, 382313, Control_c, 0, 64, 64
1, 382328, Control_c, 0, 64, 68
1, 382336, Note_off_c, 0, 61, 54
1, 382343, Control_c, 0, 64, 72
1, 382351, Note_off_c, 0, 65, 62
1, 382358, Control_c, 0, 64, 80
1, 382372, Control_c, 0, 64, 92
1, 382387, Control_c, 0, 64, 106
1, 382393, Note_off_c, 0, 68, 55
1, 382402, Control_c, 0, 64, 127
1, 382606, Note_on_c, 0, 77, 80
1, 382621, Note_on_c, 0, 68, 55
1, 382624, Note_on_c, 0, 63, 51
1, 382629, Note_on_c, 0, 60, 44
1, 382695, Note_off_c, 0, 73, 62
1, 382705, Control_c, 0, 64, 113
1, 382721, Control_c, 0, 64, 103
1, 382736, Control_c, 0, 64, 94
1, 382751, Control_c, 0, 64, 83
1, 382766, Control_c, 0, 64, 71
1, 382780, Control_c, 0, 64, 59
1, 382795, Control_c, 0, 64, 14
1, 382810, Control_c, 0, 64, 0
1, 382854, Control_c, 0, 64, 32
1, 382869, Control_c, 0, 64, 55
1, 382884, Control_c, 0, 64, 63
1, 382899, Control_c, 0, 64, 67
1, 382914, Control_c, 0, 64, 72
1, 382928, Control_c, 0, 64, 78
1, 382943, Control_c, 0, 64, 86
1, 382958, Control_c, 0, 64, 95
1, 382973, Control_c, 0, 64, 106
1, 382988, Control_c, 0, 64, 127
1, 383144, Note_off_c, 0, 77, 62
1, 383147, Note_on_c, 0, 75, 78
1, 383191, Note_off_c, 0, 63, 52
1, 383211, Note_on_c, 0, 77, 77
1, 383212, Note_off_c, 0, 75, 63
1, 383225, Note_off_c, 0, 68, 61
1, 383243, Note_off_c, 0, 60, 33
1, 383277, Note_on_c, 0, 75, 82
1, 383282, Note_off_c, 0, 77, 65
1, 383346, Note_on_c, 0, 74, 87
1, 383354, Note_off_c, 0, 75, 65
1, 383427, Note_on_c, 0, 75, 81
1, 383440, Note_on_c, 0, 69, 68
1, 383441, Note_on_c, 0, 60, 54
1, 383443, Note_on_c, 0, 63, 56
1, 383470, Control_c, 0, 64, 118
1, 383485, Note_off_c, 0, 74, 57
1, 383485, Control_c, 0, 64, 107
1, 383500, Control_c, 0, 64, 96
1, 383515, Control_c, 0, 64, 86
1, 383529, Control_c, 0, 64, 77
1, 383544, Control_c, 0, 64, 69
1, 383559, Control_c, 0, 64, 63
1, 383574, Control_c, 0, 64, 51
1, 383589, Control_c, 0, 64, 36
1, 383603, Control_c, 0, 64, 0
1, 383662, Control_c, 0, 64, 38
1, 383677, Control_c, 0, 64, 53
1, 383692, Control_c, 0, 64, 60
1, 383707, Control_c, 0, 64, 64
1, 383721, Control_c, 0, 64, 68
1, 383736, Control_c, 0, 64, 72
1, 383751, Control_c, 0, 64, 78
1, 383766, Control_c, 0, 64, 85
1, 383781, Control_c, 0, 64, 90
1, 383797, Control_c, 0, 64, 94
1, 383812, Control_c, 0, 64, 98
1, 383826, Control_c, 0, 64, 104
1, 383841, Control_c, 0, 64, 112
1, 383856, Control_c, 0, 64, 126
1, 383870, Control_c, 0, 64, 127
1, 383983, Note_on_c, 0, 77, 88
1, 384034, Control_c, 0, 64, 118
1, 384049, Control_c, 0, 64, 110
1, 384064, Control_c, 0, 64, 104
1, 384085, Control_c, 0, 64, 101
1, 384100, Control_c, 0, 64, 101
1, 384115, Control_c, 0, 64, 100
1, 384123, Note_off_c, 0, 75, 53
1, 384130, Control_c, 0, 64, 98
1, 384145, Control_c, 0, 64, 92
1, 384160, Control_c, 0, 64, 86
1, 384174, Control_c, 0, 64, 81
1, 384189, Control_c, 0, 64, 76
1, 384204, Control_c, 0, 64, 71
1, 384219, Control_c, 0, 64, 67
1, 384234, Control_c, 0, 64, 62
1, 384234, Note_on_c, 0, 78, 89
1, 384249, Control_c, 0, 64, 50
1, 384264, Control_c, 0, 64, 0
1, 384314, Note_off_c, 0, 77, 61
1, 384338, Control_c, 0, 64, 40
1, 384352, Control_c, 0, 64, 61
1, 384367, Control_c, 0, 64, 67
1, 384382, Control_c, 0, 64, 74
1, 384396, Control_c, 0, 64, 83
1, 384411, Control_c, 0, 64, 95
1, 384426, Control_c, 0, 64, 120
1, 384428, Note_off_c, 0, 63, 60
1, 384441, Control_c, 0, 64, 127
1, 384443, Note_off_c, 0, 69, 63
1, 384481, Note_off_c, 0, 60, 62
1, 384674, Note_on_c, 0, 66, 64
1, 384693, Note_on_c, 0, 58, 55
1, 384696, Note_on_c, 0, 61, 57
1, 384723, Control_c, 0, 64, 107
1, 384738, Control_c, 0, 64, 92
1, 384753, Control_c, 0, 64, 80
1, 384768, Control_c, 0, 64, 69
1, 384783, Control_c, 0, 64, 63
1, 384797, Control_c, 0, 64, 59
1, 384812, Control_c, 0, 64, 58
1, 384849, Control_c, 0, 64, 61
1, 384864, Control_c, 0, 64, 65
1, 384879, Control_c, 0, 64, 69
1, 384894, Control_c, 0, 64, 73
1, 384908, Control_c, 0, 64, 82
1, 384923, Control_c, 0, 64, 93
1, 384938, Control_c, 0, 64, 108
1, 384953, Control_c, 0, 64, 127
1, 384965, Note_off_c, 0, 66, 60
1, 384979, Note_off_c, 0, 58, 54
1, 384994, Note_off_c, 0, 61, 53
1, 385140, Note_on_c, 0, 65, 65
1, 385152, Note_on_c, 0, 60, 51
1, 385159, Note_on_c, 0, 57, 51
1, 385190, Control_c, 0, 64, 103
1, 385205, Control_c, 0, 64, 91
1, 385219, Control_c, 0, 64, 79
1, 385234, Control_c, 0, 64, 68
1, 385249, Control_c, 0, 64, 53
1, 385264, Control_c, 0, 64, 0
1, 385353, Control_c, 0, 64, 55
1, 385367, Control_c, 0, 64, 65
1, 385379, Note_on_c, 0, 77, 83
1, 385382, Control_c, 0, 64, 70
1, 385398, Control_c, 0, 64, 75
1, 385404, Note_off_c, 0, 78, 64
1, 385413, Control_c, 0, 64, 82
1, 385428, Control_c, 0, 64, 89
1, 385442, Control_c, 0, 64, 98
1, 385446, Note_off_c, 0, 60, 60
1, 385452, Note_off_c, 0, 57, 52
1, 385457, Control_c, 0, 64, 106
1, 385461, Note_off_c, 0, 65, 55
1, 385472, Control_c, 0, 64, 120
1, 385487, Control_c, 0, 64, 127
1, 385666, Note_on_c, 0, 87, 83
1, 385698, Note_on_c, 0, 65, 36
1, 385701, Note_on_c, 0, 57, 37
1, 385704, Note_on_c, 0, 60, 37
1, 385732, Control_c, 0, 64, 115
1, 385747, Control_c, 0, 64, 100
1, 385762, Control_c, 0, 64, 87
1, 385777, Control_c, 0, 64, 77
1, 385792, Control_c, 0, 64, 69
1, 385806, Control_c, 0, 64, 66
1, 385821, Control_c, 0, 64, 65
1, 385838, Note_off_c, 0, 77, 51
1, 385865, Control_c, 0, 64, 65
1, 385880, Control_c, 0, 64, 66
1, 385895, Control_c, 0, 64, 68
1, 385910, Control_c, 0, 64, 71
1, 385924, Control_c, 0, 64, 75
1, 385939, Control_c, 0, 64, 82
1, 385944, Note_on_c, 0, 84, 79
1, 385954, Control_c, 0, 64, 89
1, 385969, Control_c, 0, 64, 98
1, 385984, Control_c, 0, 64, 106
1, 385997, Note_off_c, 0, 65, 49
1, 385999, Control_c, 0, 64, 116
1, 386002, Note_off_c, 0, 87, 60
1, 386014, Control_c, 0, 64, 127
1, 386017, Note_off_c, 0, 60, 43
1, 386023, Note_off_c, 0, 84, 65
1, 386029, Note_off_c, 0, 57, 34
1, 386375, Note_on_c, 0, 84, 59
1, 386410, Note_on_c, 0, 60, 29
1, 386415, Note_on_c, 0, 65, 11
1, 386419, Note_on_c, 0, 57, 27
1, 386422, Control_c, 0, 64, 118
1, 386437, Control_c, 0, 64, 111
1, 386452, Control_c, 0, 64, 105
1, 386466, Control_c, 0, 64, 100
1, 386480, Control_c, 0, 64, 95
1, 386495, Control_c, 0, 64, 90
1, 386510, Control_c, 0, 64, 86
1, 386525, Control_c, 0, 64, 80
1, 386540, Control_c, 0, 64, 75
1, 386554, Control_c, 0, 64, 69
1, 386569, Control_c, 0, 64, 66
1, 386584, Control_c, 0, 64, 64
1, 386598, Control_c, 0, 64, 63
1, 386613, Control_c, 0, 64, 61
1, 386643, Control_c, 0, 64, 62
1, 386658, Control_c, 0, 64, 63
1, 386672, Control_c, 0, 64, 64
1, 386687, Control_c, 0, 64, 65
1, 386702, Control_c, 0, 64, 66
1, 386717, Control_c, 0, 64, 68
1, 386732, Control_c, 0, 64, 72
1, 386747, Control_c, 0, 64, 77
1, 386762, Control_c, 0, 64, 83
1, 386777, Control_c, 0, 64, 90
1, 386791, Control_c, 0, 64, 95
1, 386806, Control_c, 0, 64, 99
1, 386821, Control_c, 0, 64, 102
1, 386836, Control_c, 0, 64, 108
1, 386851, Control_c, 0, 64, 114
1, 386851, Control_c, 0, 67, 8
1, 386865, Control_c, 0, 64, 127
1, 386865, Control_c, 0, 67, 12
1, 386880, Control_c, 0, 67, 18
1, 386895, Control_c, 0, 67, 26
1, 386910, Control_c, 0, 67, 34
1, 386925, Control_c, 0, 67, 41
1, 386929, Note_off_c, 0, 60, 42
1, 386939, Control_c, 0, 67, 48
1, 386954, Control_c, 0, 67, 56
1, 386969, Control_c, 0, 67, 63
1, 386984, Control_c, 0, 67, 70
1, 387000, Control_c, 0, 67, 77
1, 387014, Control_c, 0, 67, 84
1, 387022, Note_off_c, 0, 65, 42
1, 387029, Control_c, 0, 67, 90
1, 387044, Control_c, 0, 67, 96
1, 387059, Control_c, 0, 67, 102
1, 387081, Control_c, 0, 67, 107
1, 387096, Control_c, 0, 67, 114
1, 387101, Note_off_c, 0, 57, 51
1, 387111, Control_c, 0, 67, 120
1, 387126, Control_c, 0, 67, 124
1, 387140, Control_c, 0, 67, 127
1, 387348, Control_c, 0, 64, 122
1, 387363, Control_c, 0, 64, 117
1, 387377, Control_c, 0, 64, 111
1, 387392, Control_c, 0, 64, 107
1, 387396, Note_on_c, 0, 65, 27
1, 387400, Note_on_c, 0, 61, 36
1, 387407, Control_c, 0, 64, 104
1, 387409, Note_on_c, 0, 58, 33
1, 387421, Control_c, 0, 64, 103
1, 387436, Control_c, 0, 64, 101
1, 387451, Control_c, 0, 64, 98
1, 387466, Control_c, 0, 64, 95
1, 387481, Control_c, 0, 64, 91
1, 387495, Control_c, 0, 64, 88
1, 387510, Control_c, 0, 64, 84
1, 387525, Control_c, 0, 64, 81
1, 387540, Control_c, 0, 64, 77
1, 387555, Control_c, 0, 64, 72
1, 387570, Control_c, 0, 64, 68
1, 387585, Control_c, 0, 64, 65
1, 387599, Control_c, 0, 64, 64
1, 387614, Control_c, 0, 64, 63
1, 387793, Control_c, 0, 64, 64
1, 387830, Control_c, 0, 64, 64
1, 387844, Control_c, 0, 64, 65
1, 387898, Note_on_c, 0, 87, 46
1, 387904, Control_c, 0, 64, 65
1, 387952, Note_off_c, 0, 84, 57
1, 387978, Control_c, 0, 64, 66
1, 388052, Control_c, 0, 64, 66
1, 388112, Control_c, 0, 64, 67
1, 388126, Control_c, 0, 64, 67
1, 388197, Note_on_c, 0, 85, 44
1, 388200, Control_c, 0, 64, 68
1, 388258, Note_off_c, 0, 65, 40
1, 388267, Note_off_c, 0, 87, 44
1, 388333, Note_off_c, 0, 58, 43
1, 388336, Note_off_c, 0, 61, 41
1, 388348, Control_c, 0, 64, 68
1, 388451, Note_off_c, 0, 85, 51
1, 388577, Control_c, 0, 64, 68
1, 388697, Control_c, 0, 64, 68
1, 388787, Control_c, 0, 64, 68
1, 388846, Control_c, 0, 64, 68
1, 388875, Control_c, 0, 64, 68
1, 389098, Control_c, 0, 64, 68
1, 389113, Control_c, 0, 64, 68
1, 389287, Note_on_c, 0, 66, 51
1, 389387, Control_c, 0, 64, 67
1, 389387, Control_c, 0, 67, 127
1, 389462, Control_c, 0, 64, 67
1, 389506, Control_c, 0, 64, 67
1, 389580, Control_c, 0, 67, 126
1, 389654, Control_c, 0, 64, 68
1, 389669, Control_c, 0, 64, 69
1, 389684, Control_c, 0, 64, 70
1, 389688, Note_on_c, 0, 65, 73
1, 389698, Control_c, 0, 64, 73
1, 389713, Control_c, 0, 64, 78
1, 389728, Control_c, 0, 64, 86
1, 389743, Control_c, 0, 64, 99
1, 389758, Control_c, 0, 64, 113
1, 389773, Control_c, 0, 64, 127
1, 389789, Note_off_c, 0, 65, 65
1, 389790, Note_off_c, 0, 66, 36
1, 389832, Control_c, 0, 67, 126
1, 390125, Note_on_c, 0, 65, 71
1, 390135, Note_on_c, 0, 61, 65
1, 390136, Note_on_c, 0, 55, 52
1, 390142, Note_on_c, 0, 58, 57
1, 390148, Note_on_c, 0, 36, 48
1, 390152, Note_on_c, 0, 49, 53
1, 390180, Control_c, 0, 67, 125
1, 390196, Control_c, 0, 64, 111
1, 390210, Control_c, 0, 64, 103
1, 390210, Control_c, 0, 67, 125
1, 390225, Control_c, 0, 64, 95
1, 390239, Control_c, 0, 64, 89
1, 390254, Control_c, 0, 64, 83
1, 390269, Control_c, 0, 64, 75
1, 390284, Control_c, 0, 64, 67
1, 390299, Control_c, 0, 64, 61
1, 390299, Control_c, 0, 67, 124
1, 390313, Control_c, 0, 64, 50
1, 390328, Control_c, 0, 64, 43
1, 390328, Control_c, 0, 67, 124
1, 390343, Control_c, 0, 64, 42
1, 390343, Control_c, 0, 67, 123
1, 390358, Control_c, 0, 64, 43
1, 390358, Control_c, 0, 67, 123
1, 390373, Control_c, 0, 64, 52
1, 390373, Control_c, 0, 67, 122
1, 390387, Control_c, 0, 64, 61
1, 390387, Control_c, 0, 67, 122
1, 390402, Control_c, 0, 64, 66
1, 390402, Control_c, 0, 67, 121
1, 390417, Control_c, 0, 64, 70
1, 390417, Control_c, 0, 67, 120
1, 390432, Control_c, 0, 64, 76
1, 390432, Control_c, 0, 67, 118
1, 390446, Control_c, 0, 64, 82
1, 390446, Control_c, 0, 67, 114
1, 390461, Control_c, 0, 64, 90
1, 390461, Control_c, 0, 67, 110
1, 390476, Control_c, 0, 64, 98
1, 390476, Control_c, 0, 67, 105
1, 390491, Control_c, 0, 64, 106
1, 390491, Control_c, 0, 67, 100
1, 390506, Control_c, 0, 64, 113
1, 390506, Control_c, 0, 67, 95
1, 390521, Control_c, 0, 64, 127
1, 390521, Control_c, 0, 67, 89
1, 390536, Control_c, 0, 67, 83
1, 390551, Control_c, 0, 67, 77
1, 390565, Control_c, 0, 67, 71
1, 390580, Control_c, 0, 67, 65
1, 390595, Control_c, 0, 67, 61
1, 390610, Control_c, 0, 67, 57
1, 390625, Control_c, 0, 67, 53
1, 390639, Control_c, 0, 67, 49
1, 390654, Control_c, 0, 67, 46
1, 390669, Control_c, 0, 67, 41
1, 390684, Control_c, 0, 67, 32
1, 390685, Note_off_c, 0, 65, 57
1, 390699, Control_c, 0, 67, 23
1, 390713, Control_c, 0, 67, 13
1, 390728, Control_c, 0, 67, 0
1, 390731, Note_on_c, 0, 64, 68
1, 390920, Note_on_c, 0, 67, 66
1, 390928, Control_c, 0, 64, 117
1, 390943, Control_c, 0, 64, 107
1, 390948, Note_on_c, 0, 40, 49
1, 390958, Control_c, 0, 64, 100
1, 390972, Control_c, 0, 64, 94
1, 390980, Note_off_c, 0, 64, 55
1, 390988, Control_c, 0, 64, 88
1, 391003, Control_c, 0, 64, 83
1, 391018, Control_c, 0, 64, 75
1, 391033, Control_c, 0, 64, 68
1, 391048, Control_c, 0, 64, 61
1, 391062, Control_c, 0, 64, 52
1, 391077, Control_c, 0, 64, 42
1, 391092, Control_c, 0, 64, 21
1, 391107, Control_c, 0, 64, 0
1, 391195, Control_c, 0, 64, 33
1, 391210, Control_c, 0, 64, 56
1, 391225, Control_c, 0, 64, 64
1, 391240, Control_c, 0, 64, 68
1, 391255, Control_c, 0, 64, 74
1, 391269, Control_c, 0, 64, 82
1, 391284, Control_c, 0, 64, 91
1, 391299, Control_c, 0, 64, 100
1, 391314, Control_c, 0, 64, 112
1, 391329, Control_c, 0, 64, 127
1, 391698, Note_on_c, 0, 43, 53
1, 391707, Control_c, 0, 64, 121
1, 391722, Control_c, 0, 64, 108
1, 391736, Control_c, 0, 64, 101
1, 391751, Control_c, 0, 64, 94
1, 391756, Note_off_c, 0, 40, 60
1, 391766, Control_c, 0, 64, 85
1, 391781, Control_c, 0, 64, 75
1, 391797, Control_c, 0, 64, 66
1, 391811, Control_c, 0, 64, 59
1, 391826, Control_c, 0, 64, 53
1, 391841, Control_c, 0, 64, 49
1, 391856, Control_c, 0, 64, 49
1, 391871, Control_c, 0, 64, 50
1, 391885, Control_c, 0, 64, 60
1, 391900, Control_c, 0, 64, 65
1, 391915, Control_c, 0, 64, 70
1, 391930, Control_c, 0, 64, 77
1, 391945, Control_c, 0, 64, 84
1, 391959, Control_c, 0, 64, 93
1, 391974, Control_c, 0, 64, 102
1, 391980, Note_off_c, 0, 55, 32
1, 391989, Control_c, 0, 64, 117
1, 392004, Control_c, 0, 64, 127
1, 392040, Note_off_c, 0, 67, 53
1, 392052, Note_off_c, 0, 49, 62
1, 392059, Note_off_c, 0, 58, 58
1, 392060, Note_off_c, 0, 43, 60
1, 392086, Note_off_c, 0, 36, 59
1, 392109, Note_off_c, 0, 61, 32
1, 392473, Note_on_c, 0, 67, 75
1, 392482, Note_on_c, 0, 60, 57
1, 392488, Note_on_c, 0, 56, 56
1, 392497, Note_on_c, 0, 36, 52
1, 392497, Note_on_c, 0, 44, 51
1, 392501, Note_on_c, 0, 32, 51
1, 392530, Control_c, 0, 64, 110
1, 392545, Control_c, 0, 64, 99
1, 392560, Control_c, 0, 64, 91
1, 392575, Control_c, 0, 64, 82
1, 392590, Control_c, 0, 64, 72
1, 392605, Control_c, 0, 64, 63
1, 392620, Control_c, 0, 64, 52
1, 392634, Control_c, 0, 64, 42
1, 392649, Control_c, 0, 64, 33
1, 392664, Control_c, 0, 64, 28
1, 392679, Control_c, 0, 64, 30
1, 392694, Control_c, 0, 64, 52
1, 392709, Control_c, 0, 64, 63
1, 392724, Control_c, 0, 64, 67
1, 392739, Control_c, 0, 64, 72
1, 392753, Control_c, 0, 64, 78
1, 392768, Control_c, 0, 64, 85
1, 392783, Control_c, 0, 64, 94
1, 392783, Note_off_c, 0, 56, 57
1, 392798, Control_c, 0, 64, 105
1, 392802, Note_off_c, 0, 44, 55
1, 392813, Control_c, 0, 64, 117
1, 392828, Control_c, 0, 64, 127
1, 392878, Note_off_c, 0, 60, 39
1, 392921, Note_off_c, 0, 67, 53
1, 392923, Note_off_c, 0, 36, 34
1, 393065, Note_off_c, 0, 32, 35
1, 393126, Note_on_c, 0, 65, 85
1, 393221, Note_off_c, 0, 65, 58
1, 393332, Note_on_c, 0, 65, 85
1, 393337, Control_c, 0, 64, 108
1, 393346, Note_on_c, 0, 60, 71
1, 393352, Control_c, 0, 64, 96
1, 393353, Note_on_c, 0, 31, 59
1, 393356, Note_on_c, 0, 43, 60
1, 393356, Note_on_c, 0, 58, 61
1, 393362, Note_on_c, 0, 36, 60
1, 393366, Control_c, 0, 64, 89
1, 393382, Control_c, 0, 64, 83
1, 393397, Control_c, 0, 64, 77
1, 393412, Control_c, 0, 64, 68
1, 393427, Control_c, 0, 64, 60
1, 393442, Control_c, 0, 64, 49
1, 393456, Control_c, 0, 64, 42
1, 393471, Control_c, 0, 64, 37
1, 393486, Control_c, 0, 64, 33
1, 393516, Control_c, 0, 64, 42
1, 393530, Control_c, 0, 64, 56
1, 393544, Note_off_c, 0, 58, 61
1, 393545, Control_c, 0, 64, 64
1, 393560, Control_c, 0, 64, 68
1, 393575, Control_c, 0, 64, 74
1, 393589, Control_c, 0, 64, 82
1, 393604, Control_c, 0, 64, 91
1, 393610, Note_off_c, 0, 43, 51
1, 393613, Note_off_c, 0, 60, 58
1, 393619, Control_c, 0, 64, 98
1, 393634, Control_c, 0, 64, 101
1, 393649, Control_c, 0, 64, 104
1, 393651, Note_off_c, 0, 65, 44
1, 393663, Control_c, 0, 64, 113
1, 393678, Control_c, 0, 64, 127
1, 393730, Note_off_c, 0, 36, 49
1, 393983, Note_on_c, 0, 64, 89
1, 394098, Poly_aftertouch_c, 0, 60, 127
1, 394098, Note_off_c, 0, 64, 58
1, 394181, Note_on_c, 0, 67, 82
1, 394182, Note_on_c, 0, 60, 8
1, 394190, Control_c, 0, 64, 113
1, 394195, Note_on_c, 0, 29, 73
1, 394200, Note_on_c, 0, 36, 73
1, 394200, Note_on_c, 0, 41, 72
1, 394202, Note_on_c, 0, 56, 58
1, 394205, Control_c, 0, 64, 98
1, 394220, Control_c, 0, 64, 85
1, 394235, Control_c, 0, 64, 74
1, 394250, Control_c, 0, 64, 64
1, 394253, Note_off_c, 0, 31, 36
1, 394265, Control_c, 0, 64, 42
1, 394279, Control_c, 0, 64, 0
1, 394427, Control_c, 0, 64, 54
1, 394442, Control_c, 0, 64, 66
1, 394457, Control_c, 0, 64, 72
1, 394472, Control_c, 0, 64, 79
1, 394486, Control_c, 0, 64, 85
1, 394501, Control_c, 0, 64, 94
1, 394516, Control_c, 0, 64, 102
1, 394531, Control_c, 0, 64, 114
1, 394534, Note_off_c, 0, 56, 38
1, 394546, Control_c, 0, 64, 127
1, 394560, Note_off_c, 0, 60, 45
1, 394564, Note_off_c, 0, 41, 50
1, 394564, Note_off_c, 0, 67, 38
1, 394628, Note_off_c, 0, 36, 57
1, 394899, Note_on_c, 0, 65, 88
1, 394998, Note_off_c, 0, 65, 63
1, 395199, Note_on_c, 0, 68, 87
1, 395211, Note_on_c, 0, 60, 60
1, 395215, Note_on_c, 0, 55, 64
1, 395221, Control_c, 0, 64, 111
1, 395227, Note_on_c, 0, 28, 60
1, 395229, Note_on_c, 0, 40, 52
1, 395235, Control_c, 0, 64, 104
1, 395241, Note_on_c, 0, 36, 54
1, 395250, Control_c, 0, 64, 98
1, 395265, Control_c, 0, 64, 91
1, 395280, Note_off_c, 0, 29, 60
1, 395280, Control_c, 0, 64, 83
1, 395295, Control_c, 0, 64, 74
1, 395317, Control_c, 0, 64, 68
1, 395332, Control_c, 0, 64, 66
1, 395347, Control_c, 0, 64, 65
1, 395361, Control_c, 0, 64, 63
1, 395376, Control_c, 0, 64, 56
1, 395391, Control_c, 0, 64, 0
1, 395639, Note_off_c, 0, 55, 36
1, 395673, Control_c, 0, 64, 41
1, 395688, Control_c, 0, 64, 58
1, 395688, Control_c, 0, 67, 9
1, 395702, Control_c, 0, 64, 64
1, 395702, Control_c, 0, 67, 12
1, 395717, Control_c, 0, 64, 67
1, 395717, Control_c, 0, 67, 16
1, 395732, Control_c, 0, 64, 70
1, 395732, Control_c, 0, 67, 22
1, 395747, Control_c, 0, 64, 73
1, 395747, Control_c, 0, 67, 28
1, 395751, Note_off_c, 0, 60, 50
1, 395761, Control_c, 0, 64, 77
1, 395761, Control_c, 0, 67, 34
1, 395777, Control_c, 0, 64, 81
1, 395777, Control_c, 0, 67, 40
1, 395792, Control_c, 0, 64, 84
1, 395792, Control_c, 0, 67, 46
1, 395807, Control_c, 0, 64, 87
1, 395807, Control_c, 0, 67, 53
1, 395822, Control_c, 0, 64, 89
1, 395822, Control_c, 0, 67, 58
1, 395837, Control_c, 0, 64, 92
1, 395837, Control_c, 0, 67, 63
1, 395851, Control_c, 0, 64, 94
1, 395851, Control_c, 0, 67, 67
1, 395866, Control_c, 0, 64, 97
1, 395866, Control_c, 0, 67, 72
1, 395881, Control_c, 0, 64, 99
1, 395881, Control_c, 0, 67, 77
1, 395896, Control_c, 0, 64, 99
1, 395896, Control_c, 0, 67, 82
1, 395911, Control_c, 0, 67, 87
1, 395926, Control_c, 0, 67, 92
1, 395940, Control_c, 0, 67, 97
1, 395955, Control_c, 0, 67, 101
1, 395970, Control_c, 0, 67, 106
1, 395985, Control_c, 0, 67, 111
1, 396000, Control_c, 0, 67, 117
1, 396015, Control_c, 0, 67, 123
1, 396029, Control_c, 0, 67, 127
1, 396066, Control_c, 0, 64, 99
1, 396081, Control_c, 0, 64, 98
1, 396125, Note_off_c, 0, 68, 54
1, 396126, Control_c, 0, 64, 98
1, 396143, Note_on_c, 0, 67, 54
1, 396155, Control_c, 0, 64, 97
1, 396209, Note_off_c, 0, 28, 29
1, 396229, Control_c, 0, 64, 97
1, 396274, Note_off_c, 0, 67, 57
1, 396289, Control_c, 0, 64, 96
1, 396304, Control_c, 0, 64, 95
1, 396319, Control_c, 0, 64, 95
1, 396348, Control_c, 0, 64, 94
1, 396357, Note_off_c, 0, 40, 32
1, 396363, Control_c, 0, 64, 94
1, 396377, Control_c, 0, 64, 92
1, 396392, Control_c, 0, 64, 91
1, 396407, Control_c, 0, 64, 90
1, 396445, Note_off_c, 0, 36, 30
1, 396466, Control_c, 0, 64, 89
1, 396481, Control_c, 0, 64, 87
1, 396496, Control_c, 0, 64, 85
1, 396510, Control_c, 0, 64, 84
1, 396525, Control_c, 0, 64, 83
1, 396532, Note_on_c, 0, 64, 39
1, 396540, Control_c, 0, 64, 82
1, 396555, Control_c, 0, 64, 80
1, 396570, Control_c, 0, 64, 78
1, 396586, Control_c, 0, 64, 76
1, 396600, Control_c, 0, 64, 74
1, 396615, Control_c, 0, 64, 73
1, 396630, Control_c, 0, 64, 71
1, 396645, Control_c, 0, 64, 70
1, 396660, Control_c, 0, 64, 68
1, 396674, Control_c, 0, 64, 67
1, 396689, Control_c, 0, 64, 66
1, 396704, Control_c, 0, 64, 65
1, 396719, Control_c, 0, 64, 64
1, 396734, Control_c, 0, 64, 63
1, 396748, Control_c, 0, 64, 62
1, 396763, Control_c, 0, 64, 60
1, 396775, Note_on_c, 0, 67, 40
1, 396778, Control_c, 0, 64, 58
1, 396793, Control_c, 0, 64, 57
1, 396806, Note_off_c, 0, 64, 49
1, 396815, Control_c, 0, 64, 57
1, 396830, Control_c, 0, 64, 55
1, 396845, Control_c, 0, 64, 49
1, 396860, Control_c, 0, 64, 40
1, 396875, Control_c, 0, 64, 37
1, 396904, Control_c, 0, 64, 38
1, 396919, Control_c, 0, 64, 38
1, 396948, Control_c, 0, 64, 40
1, 396963, Control_c, 0, 64, 43
1, 396976, Note_on_c, 0, 70, 48
1, 396977, Control_c, 0, 64, 45
1, 396992, Control_c, 0, 64, 46
1, 396998, Note_off_c, 0, 67, 58
1, 397007, Control_c, 0, 64, 47
1, 397052, Control_c, 0, 64, 48
1, 397067, Control_c, 0, 64, 49
1, 397081, Control_c, 0, 64, 49
1, 397096, Control_c, 0, 64, 50
1, 397155, Control_c, 0, 64, 51
1, 397186, Note_on_c, 0, 73, 49
1, 397199, Control_c, 0, 64, 51
1, 397214, Control_c, 0, 64, 52
1, 397229, Control_c, 0, 64, 53
1, 397233, Note_off_c, 0, 70, 37
1, 397303, Control_c, 0, 64, 53
1, 397362, Control_c, 0, 64, 54
1, 397378, Control_c, 0, 64, 54
1, 397383, Note_on_c, 0, 72, 50
1, 397393, Control_c, 0, 64, 55
1, 397431, Note_off_c, 0, 73, 37
1, 397452, Control_c, 0, 64, 55
1, 397467, Control_c, 0, 64, 56
1, 397574, Note_on_c, 0, 70, 48
1, 397578, Control_c, 0, 64, 55
1, 397615, Note_off_c, 0, 72, 51
1, 397682, Control_c, 0, 64, 55
1, 397697, Control_c, 0, 64, 54
1, 397711, Control_c, 0, 64, 54
1, 397782, Note_on_c, 0, 68, 44
1, 397797, Note_off_c, 0, 70, 58
1, 397934, Control_c, 0, 64, 53
1, 397948, Control_c, 0, 64, 53
1, 397949, Note_off_c, 0, 68, 53
1, 397970, Note_on_c, 0, 67, 38
1, 398008, Control_c, 0, 64, 52
1, 398022, Control_c, 0, 64, 51
1, 398067, Control_c, 0, 64, 50
1, 398082, Control_c, 0, 64, 49
1, 398111, Control_c, 0, 64, 50
1, 398126, Control_c, 0, 64, 55
1, 398141, Control_c, 0, 64, 61
1, 398155, Note_off_c, 0, 67, 55
1, 398155, Control_c, 0, 64, 64
1, 398171, Control_c, 0, 64, 66
1, 398172, Note_on_c, 0, 70, 44
1, 398186, Control_c, 0, 64, 69
1, 398201, Control_c, 0, 64, 74
1, 398216, Control_c, 0, 64, 78
1, 398231, Control_c, 0, 64, 81
1, 398240, Note_off_c, 0, 70, 61
1, 398245, Control_c, 0, 64, 83
1, 398260, Control_c, 0, 64, 83
1, 398342, Control_c, 0, 64, 83
1, 398357, Control_c, 0, 64, 82
1, 398386, Control_c, 0, 64, 81
1, 398395, Note_on_c, 0, 76, 39
1, 398416, Control_c, 0, 64, 81
1, 398431, Control_c, 0, 64, 80
1, 398447, Control_c, 0, 64, 79
1, 398461, Control_c, 0, 64, 78
1, 398476, Control_c, 0, 64, 77
1, 398491, Control_c, 0, 64, 76
1, 398506, Control_c, 0, 64, 76
1, 398521, Control_c, 0, 64, 75
1, 398535, Control_c, 0, 64, 73
1, 398550, Control_c, 0, 64, 72
1, 398565, Control_c, 0, 64, 72
1, 398578, Note_on_c, 0, 79, 50
1, 398579, Control_c, 0, 64, 71
1, 398594, Control_c, 0, 64, 69
1, 398598, Note_off_c, 0, 76, 44
1, 398609, Control_c, 0, 64, 68
1, 398624, Control_c, 0, 64, 67
1, 398639, Control_c, 0, 64, 66
1, 398653, Control_c, 0, 64, 65
1, 398668, Control_c, 0, 64, 64
1, 398683, Control_c, 0, 64, 63
1, 398697, Control_c, 0, 64, 63
1, 398712, Control_c, 0, 64, 62
1, 398727, Control_c, 0, 64, 59
1, 398742, Control_c, 0, 64, 56
1, 398757, Control_c, 0, 64, 53
1, 398775, Note_on_c, 0, 82, 56
1, 398792, Note_off_c, 0, 79, 50
1, 398802, Control_c, 0, 64, 53
1, 398817, Control_c, 0, 64, 52
1, 398832, Control_c, 0, 64, 50
1, 398876, Control_c, 0, 64, 50
1, 398920, Control_c, 0, 64, 51
1, 398935, Control_c, 0, 64, 54
1, 398950, Control_c, 0, 64, 55
1, 398965, Control_c, 0, 64, 55
1, 398980, Note_on_c, 0, 80, 50
1, 398981, Control_c, 0, 64, 56
1, 398995, Control_c, 0, 64, 56
1, 399031, Note_off_c, 0, 82, 52
1, 399062, Control_c, 0, 64, 57
1, 399106, Control_c, 0, 64, 57
1, 399136, Control_c, 0, 64, 58
1, 399180, Control_c, 0, 64, 58
1, 399195, Note_on_c, 0, 79, 52
1, 399195, Control_c, 0, 64, 59
1, 399240, Control_c, 0, 64, 59
1, 399240, Note_off_c, 0, 80, 52
1, 399358, Control_c, 0, 64, 60
1, 399373, Control_c, 0, 64, 60
1, 399380, Note_on_c, 0, 77, 51
1, 399389, Note_off_c, 0, 79, 55
1, 399447, Control_c, 0, 64, 61
1, 399520, Control_c, 0, 64, 61
1, 399535, Control_c, 0, 64, 62
1, 399580, Note_off_c, 0, 77, 58
1, 399585, Note_on_c, 0, 76, 55
1, 399595, Control_c, 0, 64, 62
1, 399610, Control_c, 0, 64, 63
1, 399743, Control_c, 0, 64, 63
1, 399778, Note_off_c, 0, 76, 57
1, 399781, Note_on_c, 0, 79, 56
1, 399855, Control_c, 0, 64, 64
1, 399981, Note_on_c, 0, 82, 60
1, 400020, Note_off_c, 0, 79, 56
1, 400048, Control_c, 0, 64, 64
1, 400188, Note_on_c, 0, 84, 66
1, 400230, Note_off_c, 0, 82, 61
1, 400299, Control_c, 0, 64, 65
1, 400314, Control_c, 0, 64, 65
1, 400329, Control_c, 0, 64, 66
1, 400343, Control_c, 0, 64, 67
1, 400358, Control_c, 0, 64, 69
1, 400373, Control_c, 0, 64, 73
1, 400385, Note_on_c, 0, 85, 75
1, 400388, Control_c, 0, 64, 76
1, 400403, Control_c, 0, 64, 77
1, 400417, Control_c, 0, 64, 79
1, 400428, Note_off_c, 0, 84, 61
1, 400432, Control_c, 0, 64, 81
1, 400447, Control_c, 0, 64, 82
1, 400477, Control_c, 0, 64, 82
1, 400492, Note_off_c, 0, 85, 60
1, 400537, Control_c, 0, 64, 82
1, 400573, Control_c, 0, 64, 81
1, 400604, Control_c, 0, 64, 81
1, 400611, Note_on_c, 0, 84, 62
1, 400634, Control_c, 0, 64, 80
1, 400648, Control_c, 0, 64, 79
1, 400663, Control_c, 0, 64, 79
1, 400692, Control_c, 0, 64, 78
1, 400707, Control_c, 0, 64, 78
1, 400721, Control_c, 0, 64, 77
1, 400736, Control_c, 0, 64, 77
1, 400766, Control_c, 0, 64, 76
1, 400781, Control_c, 0, 64, 75
1, 400796, Control_c, 0, 64, 74
1, 400811, Control_c, 0, 64, 74
1, 400812, Note_on_c, 0, 82, 72
1, 400855, Control_c, 0, 64, 73
1, 400870, Control_c, 0, 64, 72
1, 400929, Control_c, 0, 64, 72
1, 400944, Control_c, 0, 64, 71
1, 400955, Note_off_c, 0, 84, 43
1, 401003, Control_c, 0, 64, 71
1, 401013, Note_on_c, 0, 80, 67
1, 401139, Note_off_c, 0, 82, 38
1, 401209, Note_on_c, 0, 79, 69
1, 401255, Control_c, 0, 64, 71
1, 401267, Note_off_c, 0, 80, 58
1, 401351, Control_c, 0, 64, 72
1, 401366, Control_c, 0, 64, 72
1, 401396, Control_c, 0, 64, 72
1, 401426, Control_c, 0, 64, 72
1, 401438, Note_on_c, 0, 82, 74
1, 401465, Note_off_c, 0, 79, 58
1, 401685, Note_on_c, 0, 79, 69
1, 401723, Control_c, 0, 64, 72
1, 401783, Control_c, 0, 64, 71
1, 401890, Note_on_c, 0, 77, 63
1, 401970, Note_off_c, 0, 82, 47
1, 401982, Note_off_c, 0, 79, 55
1, 401989, Control_c, 0, 64, 71
1, 402103, Note_on_c, 0, 76, 70
1, 402160, Control_c, 0, 64, 70
1, 402176, Control_c, 0, 64, 71
1, 402194, Note_off_c, 0, 77, 61
1, 402294, Control_c, 0, 64, 70
1, 402313, Note_on_c, 0, 82, 77
1, 402353, Control_c, 0, 64, 70
1, 402383, Control_c, 0, 64, 69
1, 402398, Control_c, 0, 64, 69
1, 402407, Note_off_c, 0, 76, 56
1, 402413, Control_c, 0, 64, 68
1, 402427, Control_c, 0, 64, 66
1, 402442, Control_c, 0, 64, 65
1, 402457, Control_c, 0, 64, 65
1, 402472, Control_c, 0, 64, 64
1, 402516, Control_c, 0, 64, 64
1, 402530, Note_on_c, 0, 79, 83
1, 402531, Control_c, 0, 64, 63
1, 402546, Control_c, 0, 64, 63
1, 402576, Control_c, 0, 64, 62
1, 402590, Control_c, 0, 64, 62
1, 402595, Note_off_c, 0, 82, 63
1, 402605, Control_c, 0, 64, 60
1, 402620, Control_c, 0, 64, 58
1, 402635, Control_c, 0, 64, 57
1, 402650, Control_c, 0, 64, 56
1, 402694, Control_c, 0, 64, 56
1, 402709, Control_c, 0, 64, 55
1, 402724, Control_c, 0, 64, 55
1, 402738, Control_c, 0, 64, 56
1, 402759, Note_on_c, 0, 77, 78
1, 402768, Control_c, 0, 64, 57
1, 402783, Control_c, 0, 64, 58
1, 402805, Control_c, 0, 64, 62
1, 402820, Control_c, 0, 64, 64
1, 402835, Control_c, 0, 64, 65
1, 402843, Note_off_c, 0, 79, 58
1, 402850, Control_c, 0, 64, 66
1, 402865, Control_c, 0, 64, 68
1, 402879, Control_c, 0, 64, 69
1, 402894, Control_c, 0, 64, 72
1, 402909, Control_c, 0, 64, 75
1, 402924, Control_c, 0, 64, 79
1, 402939, Control_c, 0, 64, 83
1, 402953, Control_c, 0, 64, 87
1, 402969, Control_c, 0, 64, 92
1, 402984, Control_c, 0, 64, 97
1, 402990, Note_on_c, 0, 76, 74
1, 402999, Control_c, 0, 64, 101
1, 403005, Note_off_c, 0, 77, 64
1, 403014, Control_c, 0, 64, 106
1, 403029, Control_c, 0, 64, 109
1, 403042, Note_off_c, 0, 76, 63
1, 403043, Control_c, 0, 64, 111
1, 403058, Control_c, 0, 64, 113
1, 403073, Control_c, 0, 64, 116
1, 403088, Control_c, 0, 64, 120
1, 403103, Control_c, 0, 64, 126
1, 403117, Control_c, 0, 64, 127
1, 403132, Control_c, 0, 64, 126
1, 403221, Control_c, 0, 64, 119
1, 403236, Control_c, 0, 64, 113
1, 403250, Control_c, 0, 64, 109
1, 403265, Control_c, 0, 64, 106
1, 403278, Note_on_c, 0, 91, 88
1, 403280, Control_c, 0, 64, 102
1, 403295, Note_on_c, 0, 79, 71
1, 403295, Control_c, 0, 64, 96
1, 403310, Control_c, 0, 64, 88
1, 403324, Control_c, 0, 64, 81
1, 403339, Control_c, 0, 64, 74
1, 403354, Control_c, 0, 64, 68
1, 403368, Control_c, 0, 64, 63
1, 403383, Control_c, 0, 64, 61
1, 403398, Control_c, 0, 64, 62
1, 403413, Control_c, 0, 64, 65
1, 403428, Control_c, 0, 64, 69
1, 403443, Control_c, 0, 64, 75
1, 403458, Control_c, 0, 64, 83
1, 403469, Note_off_c, 0, 91, 62
1, 403473, Control_c, 0, 64, 92
1, 403488, Control_c, 0, 64, 101
1, 403497, Note_off_c, 0, 79, 59
1, 403502, Control_c, 0, 64, 109
1, 403517, Control_c, 0, 64, 114
1, 403532, Control_c, 0, 64, 116
1, 403610, Note_on_c, 0, 88, 90
1, 403627, Note_on_c, 0, 76, 66
1, 403658, Control_c, 0, 64, 117
1, 403673, Control_c, 0, 64, 119
1, 403687, Control_c, 0, 64, 127
1, 403736, Note_off_c, 0, 88, 62
1, 403739, Note_off_c, 0, 76, 57
1, 403914, Note_on_c, 0, 85, 89
1, 403941, Note_on_c, 0, 73, 54
1, 403985, Control_c, 0, 64, 109
1, 403999, Control_c, 0, 64, 99
1, 403999, Control_c, 0, 67, 126
1, 404014, Control_c, 0, 64, 90
1, 404014, Control_c, 0, 67, 125
1, 404029, Control_c, 0, 64, 81
1, 404029, Control_c, 0, 67, 124
1, 404044, Control_c, 0, 64, 73
1, 404044, Control_c, 0, 67, 123
1, 404059, Control_c, 0, 64, 67
1, 404059, Control_c, 0, 67, 121
1, 404073, Control_c, 0, 64, 64
1, 404073, Control_c, 0, 67, 120
1, 404088, Control_c, 0, 64, 63
1, 404088, Control_c, 0, 67, 119
1, 404103, Control_c, 0, 64, 64
1, 404103, Control_c, 0, 67, 118
1, 404117, Control_c, 0, 64, 67
1, 404117, Control_c, 0, 67, 117
1, 404132, Control_c, 0, 64, 68
1, 404147, Control_c, 0, 64, 70
1, 404147, Control_c, 0, 67, 118
1, 404162, Control_c, 0, 64, 71
1, 404177, Control_c, 0, 64, 71
1, 404177, Control_c, 0, 67, 119
1, 404191, Control_c, 0, 64, 69
1, 404191, Control_c, 0, 67, 120
1, 404203, Note_off_c, 0, 73, 61
1, 404206, Control_c, 0, 64, 69
1, 404236, Control_c, 0, 64, 68
1, 404236, Control_c, 0, 67, 121
1, 404251, Control_c, 0, 67, 121
1, 404254, Note_on_c, 0, 84, 86
1, 404263, Note_on_c, 0, 72, 63
1, 404266, Control_c, 0, 64, 69
1, 404281, Control_c, 0, 64, 71
1, 404281, Control_c, 0, 67, 122
1, 404303, Control_c, 0, 64, 75
1, 404318, Control_c, 0, 64, 79
1, 404330, Note_off_c, 0, 85, 63
1, 404332, Control_c, 0, 64, 85
1, 404332, Control_c, 0, 67, 122
1, 404347, Control_c, 0, 64, 91
1, 404362, Control_c, 0, 64, 98
1, 404377, Control_c, 0, 64, 106
1, 404377, Control_c, 0, 67, 123
1, 404392, Control_c, 0, 64, 116
1, 404406, Control_c, 0, 64, 127
1, 404406, Control_c, 0, 67, 123
1, 404424, Note_off_c, 0, 72, 53
1, 404471, Note_off_c, 0, 84, 47
1, 404769, Note_on_c, 0, 84, 71
1, 404785, Note_on_c, 0, 72, 50
1, 404793, Control_c, 0, 64, 117
1, 404808, Control_c, 0, 64, 107
1, 404822, Control_c, 0, 64, 99
1, 404825, Note_on_c, 0, 52, 36
1, 404826, Note_on_c, 0, 55, 28
1, 404837, Control_c, 0, 64, 92
1, 404852, Control_c, 0, 64, 86
1, 404867, Control_c, 0, 64, 78
1, 404882, Control_c, 0, 64, 72
1, 404896, Control_c, 0, 64, 66
1, 404911, Control_c, 0, 64, 64
1, 404926, Control_c, 0, 64, 63
1, 404955, Control_c, 0, 64, 64
1, 404970, Control_c, 0, 64, 65
1, 404985, Control_c, 0, 64, 67
1, 405000, Control_c, 0, 64, 69
1, 405014, Control_c, 0, 64, 72
1, 405029, Control_c, 0, 64, 76
1, 405052, Control_c, 0, 64, 81
1, 405067, Control_c, 0, 64, 84
1, 405082, Control_c, 0, 64, 88
1, 405096, Control_c, 0, 64, 92
1, 405111, Control_c, 0, 64, 95
1, 405126, Control_c, 0, 64, 98
1, 405126, Control_c, 0, 67, 124
1, 405140, Control_c, 0, 64, 102
1, 405155, Control_c, 0, 64, 108
1, 405155, Control_c, 0, 67, 124
1, 405170, Control_c, 0, 64, 117
1, 405173, Note_on_c, 0, 60, 37
1, 405185, Control_c, 0, 64, 127
1, 405210, Note_off_c, 0, 55, 41
1, 405215, Control_c, 0, 67, 125
1, 405221, Note_off_c, 0, 52, 40
1, 405385, Note_off_c, 0, 60, 47
1, 405427, Note_on_c, 0, 55, 13
1, 405433, Note_on_c, 0, 52, 14
1, 405486, Note_off_c, 0, 84, 52
1, 405603, Note_off_c, 0, 72, 60
1, 405622, Note_off_c, 0, 55, 42
1, 405624, Note_off_c, 0, 52, 39
1, 405633, Note_on_c, 0, 60, 27
1, 405840, Note_on_c, 0, 79, 65
1, 405858, Note_off_c, 0, 60, 44
1, 405866, Note_on_c, 0, 52, 31
1, 405870, Note_on_c, 0, 55, 26
1, 405872, Note_on_c, 0, 67, 46
1, 406063, Note_off_c, 0, 55, 39
1, 406067, Note_on_c, 0, 60, 37
1, 406081, Note_off_c, 0, 52, 39
1, 406186, Control_c, 0, 67, 124
1, 406260, Note_on_c, 0, 55, 30
1, 406264, Note_on_c, 0, 52, 23
1, 406266, Note_off_c, 0, 60, 37
1, 406433, Note_on_c, 0, 60, 38
1, 406438, Control_c, 0, 67, 124
1, 406444, Note_off_c, 0, 55, 40
1, 406467, Control_c, 0, 67, 123
1, 406475, Note_off_c, 0, 52, 39
1, 406564, Control_c, 0, 67, 123
1, 406633, Note_on_c, 0, 52, 34
1, 406634, Note_off_c, 0, 60, 47
1, 406645, Note_on_c, 0, 55, 34
1, 406711, Control_c, 0, 67, 122
1, 406819, Note_off_c, 0, 55, 40
1, 406825, Note_on_c, 0, 60, 40
1, 406856, Note_off_c, 0, 52, 40
1, 406904, Control_c, 0, 67, 122
1, 406934, Note_off_c, 0, 67, 30
1, 407012, Note_off_c, 0, 60, 50
1, 407023, Note_on_c, 0, 52, 23
1, 407023, Control_c, 0, 67, 121
1, 407029, Note_on_c, 0, 55, 34
1, 407193, Note_on_c, 0, 60, 43
1, 407205, Note_off_c, 0, 55, 36
1, 407318, Note_off_c, 0, 52, 41
1, 407406, Note_on_c, 0, 81, 70
1, 407423, Note_on_c, 0, 69, 50
1, 407430, Control_c, 0, 67, 122
1, 407431, Note_on_c, 0, 53, 37
1, 407445, Control_c, 0, 64, 119
1, 407452, Note_on_c, 0, 57, 33
1, 407458, Note_off_c, 0, 60, 47
1, 407459, Control_c, 0, 64, 112
1, 407474, Control_c, 0, 64, 106
1, 407489, Control_c, 0, 64, 98
1, 407504, Control_c, 0, 64, 88
1, 407519, Control_c, 0, 64, 79
1, 407528, Note_off_c, 0, 79, 38
1, 407533, Control_c, 0, 64, 71
1, 407548, Control_c, 0, 64, 66
1, 407563, Control_c, 0, 64, 63
1, 407578, Control_c, 0, 64, 59
1, 407593, Control_c, 0, 64, 54
1, 407607, Control_c, 0, 64, 51
1, 407622, Control_c, 0, 64, 51
1, 407637, Control_c, 0, 64, 56
1, 407637, Control_c, 0, 67, 121
1, 407652, Control_c, 0, 64, 63
1, 407653, Note_on_c, 0, 60, 39
1, 407667, Control_c, 0, 64, 66
1, 407682, Control_c, 0, 64, 72
1, 407694, Note_off_c, 0, 53, 49
1, 407697, Control_c, 0, 64, 78
1, 407706, Note_off_c, 0, 57, 46
1, 407709, Note_off_c, 0, 69, 63
1, 407712, Control_c, 0, 64, 86
1, 407727, Control_c, 0, 64, 92
1, 407741, Control_c, 0, 64, 98
1, 407756, Control_c, 0, 64, 102
1, 407771, Control_c, 0, 64, 106
1, 407786, Control_c, 0, 64, 111
1, 407786, Control_c, 0, 67, 121
1, 407801, Control_c, 0, 64, 115
1, 407804, Note_off_c, 0, 81, 60
1, 407816, Control_c, 0, 64, 127
1, 407831, Control_c, 0, 67, 120
1, 407861, Note_off_c, 0, 60, 51
1, 407864, Note_on_c, 0, 77, 66
1, 407865, Note_on_c, 0, 53, 34
1, 407889, Note_on_c, 0, 57, 21
1, 407896, Note_on_c, 0, 65, 59
1, 407935, Control_c, 0, 67, 121
1, 407950, Note_off_c, 0, 65, 54
1, 407986, Note_off_c, 0, 77, 57
1, 408045, Note_off_c, 0, 53, 44
1, 408063, Note_off_c, 0, 57, 40
1, 408090, Control_c, 0, 67, 121
1, 408094, Note_on_c, 0, 60, 26
1, 408120, Control_c, 0, 67, 122
1, 408164, Control_c, 0, 67, 122
1, 408180, Control_c, 0, 67, 123
1, 408239, Control_c, 0, 64, 116
1, 408254, Control_c, 0, 64, 107
1, 408269, Control_c, 0, 64, 99
1, 408283, Control_c, 0, 64, 90
1, 408283, Control_c, 0, 67, 123
1, 408285, Note_on_c, 0, 77, 57
1, 408298, Control_c, 0, 64, 85
1, 408308, Note_on_c, 0, 55, 35
1, 408311, Note_off_c, 0, 60, 41
1, 408313, Control_c, 0, 64, 78
1, 408315, Note_on_c, 0, 65, 32
1, 408321, Note_on_c, 0, 58, 24
1, 408328, Control_c, 0, 64, 71
1, 408343, Control_c, 0, 64, 64
1, 408357, Control_c, 0, 64, 56
1, 408372, Control_c, 0, 64, 50
1, 408372, Control_c, 0, 67, 124
1, 408387, Control_c, 0, 64, 49
1, 408417, Control_c, 0, 64, 51
1, 408431, Control_c, 0, 64, 57
1, 408446, Control_c, 0, 64, 63
1, 408461, Control_c, 0, 64, 66
1, 408476, Control_c, 0, 64, 70
1, 408490, Control_c, 0, 64, 75
1, 408505, Control_c, 0, 64, 79
1, 408520, Control_c, 0, 64, 82
1, 408534, Note_on_c, 0, 60, 32
1, 408535, Control_c, 0, 64, 85
1, 408550, Control_c, 0, 64, 87
1, 408561, Note_off_c, 0, 58, 44
1, 408561, Note_off_c, 0, 55, 41
1, 408566, Control_c, 0, 64, 89
1, 408580, Control_c, 0, 64, 90
1, 408580, Control_c, 0, 67, 123
1, 408595, Control_c, 0, 64, 91
1, 408621, Note_off_c, 0, 77, 38
1, 408670, Note_on_c, 0, 76, 48
1, 408699, Control_c, 0, 64, 91
1, 408709, Note_off_c, 0, 60, 41
1, 408722, Note_on_c, 0, 55, 29
1, 408750, Note_off_c, 0, 76, 51
1, 408755, Note_on_c, 0, 58, 21
1, 408781, Note_on_c, 0, 77, 51
1, 408815, Note_off_c, 0, 65, 23
1, 408856, Note_off_c, 0, 77, 48
1, 408879, Note_on_c, 0, 76, 60
1, 408889, Note_off_c, 0, 58, 35
1, 408889, Note_off_c, 0, 55, 42
1, 408911, Note_on_c, 0, 60, 23
1, 408919, Note_off_c, 0, 76, 60
1, 408956, Note_on_c, 0, 74, 56
1, 408958, Control_c, 0, 64, 90
1, 408987, Control_c, 0, 64, 90
1, 409002, Control_c, 0, 64, 89
1, 409017, Control_c, 0, 64, 87
1, 409032, Control_c, 0, 64, 85
1, 409047, Control_c, 0, 64, 81
1, 409053, Note_on_c, 0, 76, 58
1, 409058, Note_off_c, 0, 60, 38
1, 409062, Control_c, 0, 64, 77
1, 409073, Note_on_c, 0, 55, 34
1, 409077, Control_c, 0, 64, 72
1, 409088, Note_on_c, 0, 64, 13
1, 409092, Control_c, 0, 64, 66
1, 409095, Note_on_c, 0, 58, 26
1, 409107, Control_c, 0, 64, 62
1, 409121, Control_c, 0, 64, 53
1, 409136, Control_c, 0, 64, 48
1, 409137, Note_off_c, 0, 74, 39
1, 409166, Control_c, 0, 64, 51
1, 409180, Control_c, 0, 64, 56
1, 409180, Control_c, 0, 67, 123
1, 409195, Control_c, 0, 64, 61
1, 409195, Control_c, 0, 67, 122
1, 409210, Control_c, 0, 64, 64
1, 409225, Control_c, 0, 64, 67
1, 409239, Control_c, 0, 64, 72
1, 409239, Control_c, 0, 67, 122
1, 409254, Control_c, 0, 64, 78
1, 409254, Control_c, 0, 67, 121
1, 409268, Note_on_c, 0, 60, 37
1, 409269, Control_c, 0, 64, 85
1, 409284, Control_c, 0, 64, 91
1, 409284, Control_c, 0, 67, 121
1, 409295, Note_off_c, 0, 55, 42
1, 409299, Control_c, 0, 64, 96
1, 409300, Note_off_c, 0, 64, 41
1, 409310, Note_off_c, 0, 58, 43
1, 409313, Control_c, 0, 64, 100
1, 409328, Control_c, 0, 64, 105
1, 409343, Control_c, 0, 64, 109
1, 409359, Control_c, 0, 64, 110
1, 409403, Control_c, 0, 64, 109
1, 409448, Control_c, 0, 64, 107
1, 409454, Note_on_c, 0, 77, 73
1, 409463, Control_c, 0, 64, 103
1, 409474, Note_on_c, 0, 55, 40
1, 409476, Note_on_c, 0, 65, 46
1, 409477, Control_c, 0, 64, 98
1, 409477, Control_c, 0, 67, 121
1, 409489, Note_on_c, 0, 58, 28
1, 409492, Control_c, 0, 64, 91
1, 409506, Note_off_c, 0, 60, 38
1, 409507, Control_c, 0, 64, 82
1, 409522, Control_c, 0, 64, 72
1, 409544, Control_c, 0, 64, 64
1, 409559, Control_c, 0, 64, 62
1, 409574, Control_c, 0, 64, 63
1, 409574, Control_c, 0, 67, 121
1, 409589, Control_c, 0, 64, 65
1, 409604, Control_c, 0, 64, 69
1, 409618, Control_c, 0, 64, 74
1, 409633, Control_c, 0, 64, 82
1, 409633, Control_c, 0, 67, 120
1, 409648, Control_c, 0, 64, 92
1, 409649, Note_off_c, 0, 65, 51
1, 409662, Control_c, 0, 64, 101
1, 409669, Note_on_c, 0, 60, 39
1, 409670, Note_off_c, 0, 76, 36
1, 409672, Note_off_c, 0, 77, 60
1, 409677, Control_c, 0, 64, 109
1, 409692, Control_c, 0, 64, 117
1, 409700, Note_off_c, 0, 55, 44
1, 409707, Control_c, 0, 64, 127
1, 409707, Control_c, 0, 67, 120
1, 409714, Note_off_c, 0, 58, 44
1, 409722, Control_c, 0, 67, 119
1, 409781, Control_c, 0, 67, 119
1, 409796, Control_c, 0, 67, 118
1, 409810, Control_c, 0, 67, 118
1, 409854, Note_on_c, 0, 79, 82
1, 409855, Control_c, 0, 64, 114
1, 409870, Control_c, 0, 64, 103
1, 409872, Note_on_c, 0, 55, 48
1, 409876, Note_on_c, 0, 67, 56
1, 409879, Note_on_c, 0, 58, 43
1, 409885, Control_c, 0, 64, 90
1, 409885, Control_c, 0, 67, 117
1, 409900, Control_c, 0, 64, 76
1, 409902, Note_off_c, 0, 60, 38
1, 409915, Control_c, 0, 64, 67
1, 409915, Control_c, 0, 67, 117
1, 409929, Control_c, 0, 64, 62
1, 409944, Control_c, 0, 64, 62
1, 409944, Control_c, 0, 67, 116
1, 409959, Control_c, 0, 64, 63
1, 409959, Control_c, 0, 67, 115
1, 409974, Control_c, 0, 64, 67
1, 409974, Control_c, 0, 67, 115
1, 409989, Control_c, 0, 64, 71
1, 410004, Control_c, 0, 64, 78
1, 410004, Control_c, 0, 67, 113
1, 410018, Control_c, 0, 64, 85
1, 410018, Control_c, 0, 67, 110
1, 410033, Control_c, 0, 64, 95
1, 410033, Control_c, 0, 67, 105
1, 410048, Control_c, 0, 64, 107
1, 410048, Control_c, 0, 67, 100
1, 410059, Note_off_c, 0, 55, 52
1, 410061, Note_off_c, 0, 79, 59
1, 410062, Control_c, 0, 64, 127
1, 410062, Control_c, 0, 67, 93
1, 410064, Note_off_c, 0, 67, 59
1, 410065, Note_on_c, 0, 60, 45
1, 410077, Control_c, 0, 67, 85
1, 410092, Control_c, 0, 67, 78
1, 410099, Note_off_c, 0, 58, 37
1, 410107, Control_c, 0, 67, 71
1, 410122, Control_c, 0, 67, 64
1, 410136, Control_c, 0, 67, 57
1, 410152, Control_c, 0, 67, 52
1, 410167, Control_c, 0, 67, 47
1, 410182, Control_c, 0, 67, 43
1, 410197, Control_c, 0, 67, 39
1, 410212, Control_c, 0, 67, 35
1, 410226, Control_c, 0, 67, 31
1, 410241, Control_c, 0, 67, 26
1, 410256, Control_c, 0, 67, 22
1, 410259, Note_on_c, 0, 81, 82
1, 410271, Control_c, 0, 67, 17
1, 410284, Note_on_c, 0, 57, 45
1, 410287, Note_on_c, 0, 69, 58
1, 410291, Note_on_c, 0, 53, 46
1, 410293, Control_c, 0, 67, 12
1, 410308, Note_off_c, 0, 60, 39
1, 410308, Control_c, 0, 67, 0
1, 410323, Control_c, 0, 64, 101
1, 410338, Control_c, 0, 64, 88
1, 410353, Control_c, 0, 64, 78
1, 410367, Control_c, 0, 64, 69
1, 410382, Control_c, 0, 64, 63
1, 410397, Control_c, 0, 64, 63
1, 410412, Control_c, 0, 64, 65
1, 410427, Control_c, 0, 64, 68
1, 410441, Control_c, 0, 64, 73
1, 410452, Note_off_c, 0, 69, 60
1, 410456, Control_c, 0, 64, 79
1, 410471, Control_c, 0, 64, 90
1, 410477, Note_off_c, 0, 81, 64
1, 410485, Control_c, 0, 64, 103
1, 410494, Note_on_c, 0, 60, 42
1, 410494, Note_off_c, 0, 53, 48
1, 410497, Note_off_c, 0, 57, 54
1, 410500, Control_c, 0, 64, 127
1, 410719, Note_on_c, 0, 82, 77
1, 410749, Note_on_c, 0, 70, 57
1, 410767, Note_on_c, 0, 55, 34
1, 410773, Note_on_c, 0, 52, 34
1, 410782, Control_c, 0, 64, 106
1, 410797, Control_c, 0, 64, 94
1, 410807, Note_off_c, 0, 60, 36
1, 410812, Control_c, 0, 64, 85
1, 410827, Control_c, 0, 64, 78
1, 410841, Control_c, 0, 64, 71
1, 410856, Control_c, 0, 64, 65
1, 410871, Control_c, 0, 64, 64
1, 410885, Control_c, 0, 64, 63
1, 410900, Control_c, 0, 64, 63
1, 410915, Control_c, 0, 64, 63
1, 410930, Control_c, 0, 64, 65
1, 410945, Note_off_c, 0, 70, 56
1, 410945, Control_c, 0, 64, 67
1, 410961, Control_c, 0, 64, 70
1, 410975, Control_c, 0, 64, 73
1, 410990, Control_c, 0, 64, 76
1, 411005, Control_c, 0, 64, 80
1, 411020, Control_c, 0, 64, 84
1, 411042, Control_c, 0, 64, 90
1, 411050, Note_on_c, 0, 83, 86
1, 411056, Control_c, 0, 64, 96
1, 411061, Note_off_c, 0, 55, 42
1, 411068, Note_on_c, 0, 60, 34
1, 411071, Note_on_c, 0, 71, 51
1, 411071, Control_c, 0, 64, 101
1, 411086, Note_off_c, 0, 52, 41
1, 411086, Control_c, 0, 64, 106
1, 411101, Control_c, 0, 64, 110
1, 411109, Note_off_c, 0, 71, 49
1, 411115, Note_off_c, 0, 82, 62
1, 411116, Control_c, 0, 64, 113
1, 411131, Control_c, 0, 64, 116
1, 411146, Control_c, 0, 64, 117
1, 411179, Note_off_c, 0, 83, 63
1, 411220, Control_c, 0, 64, 116
1, 411282, Note_on_c, 0, 83, 80
1, 411302, Note_off_c, 0, 60, 45
1, 411308, Control_c, 0, 64, 116
1, 411310, Note_on_c, 0, 52, 33
1, 411316, Note_on_c, 0, 55, 19
1, 411316, Note_on_c, 0, 71, 53
1, 411323, Control_c, 0, 64, 114
1, 411338, Control_c, 0, 64, 113
1, 411353, Control_c, 0, 64, 111
1, 411368, Control_c, 0, 64, 110
1, 411382, Control_c, 0, 64, 109
1, 411393, Note_off_c, 0, 71, 56
1, 411397, Control_c, 0, 64, 108
1, 411412, Control_c, 0, 64, 107
1, 411427, Control_c, 0, 64, 103
1, 411442, Control_c, 0, 64, 101
1, 411456, Control_c, 0, 64, 99
1, 411471, Control_c, 0, 64, 97
1, 411471, Control_c, 0, 67, 8
1, 411486, Control_c, 0, 64, 96
1, 411486, Control_c, 0, 67, 9
1, 411500, Control_c, 0, 67, 13
1, 411505, Note_on_c, 0, 84, 75
1, 411515, Note_on_c, 0, 72, 52
1, 411515, Control_c, 0, 67, 17
1, 411516, Note_on_c, 0, 60, 35
1, 411517, Note_off_c, 0, 55, 39
1, 411526, Note_off_c, 0, 52, 39
1, 411530, Control_c, 0, 67, 23
1, 411542, Note_off_c, 0, 83, 62
1, 411545, Control_c, 0, 67, 29
1, 411551, Note_off_c, 0, 72, 55
1, 411560, Control_c, 0, 67, 35
1, 411575, Control_c, 0, 64, 96
1, 411575, Control_c, 0, 67, 40
1, 411590, Control_c, 0, 67, 45
1, 411605, Note_off_c, 0, 84, 64
1, 411605, Control_c, 0, 67, 51
1, 411620, Control_c, 0, 67, 55
1, 411634, Control_c, 0, 67, 61
1, 411649, Control_c, 0, 64, 95
1, 411649, Control_c, 0, 67, 66
1, 411664, Control_c, 0, 64, 94
1, 411664, Control_c, 0, 67, 70
1, 411679, Control_c, 0, 64, 93
1, 411679, Control_c, 0, 67, 77
1, 411694, Control_c, 0, 64, 92
1, 411694, Control_c, 0, 67, 83
1, 411708, Control_c, 0, 64, 91
1, 411708, Control_c, 0, 67, 88
1, 411723, Control_c, 0, 64, 90
1, 411723, Control_c, 0, 67, 92
1, 411738, Control_c, 0, 64, 89
1, 411738, Control_c, 0, 67, 96
1, 411754, Control_c, 0, 64, 88
1, 411754, Control_c, 0, 67, 100
1, 411769, Control_c, 0, 64, 86
1, 411769, Control_c, 0, 67, 102
1, 411791, Control_c, 0, 64, 84
1, 411791, Control_c, 0, 67, 105
1, 411795, Note_on_c, 0, 83, 61
1, 411806, Control_c, 0, 64, 80
1, 411806, Control_c, 0, 67, 107
1, 411813, Note_on_c, 0, 52, 36
1, 411820, Control_c, 0, 64, 77
1, 411820, Control_c, 0, 67, 109
1, 411823, Note_on_c, 0, 55, 34
1, 411835, Control_c, 0, 64, 72
1, 411835, Control_c, 0, 67, 112
1, 411850, Control_c, 0, 64, 69
1, 411850, Control_c, 0, 67, 115
1, 411852, Note_off_c, 0, 60, 40
1, 411865, Control_c, 0, 64, 66
1, 411865, Control_c, 0, 67, 118
1, 411879, Control_c, 0, 64, 64
1, 411879, Control_c, 0, 67, 121
1, 411894, Control_c, 0, 64, 62
1, 411894, Control_c, 0, 67, 123
1, 411909, Control_c, 0, 64, 60
1, 411909, Control_c, 0, 67, 124
1, 411924, Control_c, 0, 64, 59
1, 411924, Control_c, 0, 67, 125
1, 411939, Control_c, 0, 67, 126
1, 411968, Control_c, 0, 64, 61
1, 411983, Control_c, 0, 64, 64
1, 411998, Control_c, 0, 64, 66
1, 412013, Control_c, 0, 64, 68
1, 412028, Control_c, 0, 64, 71
1, 412043, Control_c, 0, 64, 74
1, 412057, Control_c, 0, 64, 79
1, 412072, Control_c, 0, 64, 84
1, 412073, Note_on_c, 0, 60, 41
1, 412079, Note_on_c, 0, 84, 69
1, 412087, Control_c, 0, 64, 88
1, 412087, Control_c, 0, 67, 125
1, 412102, Control_c, 0, 64, 91
1, 412115, Note_off_c, 0, 55, 40
1, 412117, Control_c, 0, 64, 93
1, 412117, Control_c, 0, 67, 125
1, 412129, Note_off_c, 0, 52, 36
1, 412131, Control_c, 0, 64, 96
1, 412131, Control_c, 0, 67, 124
1, 412146, Control_c, 0, 64, 98
1, 412146, Control_c, 0, 67, 124
1, 412153, Note_off_c, 0, 83, 63
1, 412161, Control_c, 0, 64, 100
1, 412161, Control_c, 0, 67, 123
1, 412176, Control_c, 0, 64, 103
1, 412191, Control_c, 0, 64, 105
1, 412191, Control_c, 0, 67, 122
1, 412205, Control_c, 0, 64, 107
1, 412220, Control_c, 0, 64, 109
1, 412235, Control_c, 0, 64, 110
1, 412284, Note_on_c, 0, 52, 32
1, 412286, Note_on_c, 0, 86, 74
1, 412293, Note_off_c, 0, 60, 37
1, 412307, Note_on_c, 0, 55, 27
1, 412338, Control_c, 0, 67, 122
1, 412345, Note_off_c, 0, 84, 58
1, 412470, Note_on_c, 0, 84, 76
1, 412477, Note_off_c, 0, 55, 46
1, 412500, Note_on_c, 0, 60, 30
1, 412514, Note_off_c, 0, 52, 38
1, 412517, Control_c, 0, 67, 121
1, 412584, Control_c, 0, 67, 121
1, 412614, Control_c, 0, 64, 109
1, 412628, Control_c, 0, 64, 107
1, 412643, Control_c, 0, 64, 107
1, 412658, Control_c, 0, 64, 106
1, 412673, Control_c, 0, 64, 104
1, 412687, Control_c, 0, 64, 101
1, 412694, Note_off_c, 0, 86, 39
1, 412699, Note_on_c, 0, 79, 65
1, 412702, Control_c, 0, 64, 97
1, 412716, Note_on_c, 0, 52, 37
1, 412717, Control_c, 0, 64, 95
1, 412729, Note_on_c, 0, 55, 32
1, 412732, Control_c, 0, 64, 94
1, 412734, Note_off_c, 0, 60, 45
1, 412747, Control_c, 0, 64, 93
1, 412761, Control_c, 0, 64, 88
1, 412776, Control_c, 0, 64, 80
1, 412791, Control_c, 0, 64, 72
1, 412791, Control_c, 0, 67, 120
1, 412797, Note_off_c, 0, 84, 63
1, 412806, Control_c, 0, 64, 69
1, 412821, Control_c, 0, 64, 71
1, 412836, Control_c, 0, 64, 74
1, 412851, Control_c, 0, 64, 78
1, 412866, Control_c, 0, 64, 83
1, 412880, Control_c, 0, 64, 88
1, 412880, Control_c, 0, 67, 119
1, 412895, Control_c, 0, 64, 92
1, 412909, Note_on_c, 0, 60, 36
1, 412910, Control_c, 0, 64, 94
1, 412916, Note_off_c, 0, 55, 43
1, 412925, Control_c, 0, 64, 95
1, 412936, Note_off_c, 0, 52, 42
1, 413043, Control_c, 0, 64, 95
1, 413113, Note_off_c, 0, 60, 37
1, 413117, Control_c, 0, 64, 96
1, 413122, Note_on_c, 0, 52, 32
1, 413124, Note_on_c, 0, 55, 33
1, 413132, Control_c, 0, 64, 97
1, 413132, Control_c, 0, 67, 120
1, 413146, Control_c, 0, 64, 99
1, 413161, Control_c, 0, 64, 100
1, 413161, Control_c, 0, 67, 120
1, 413176, Control_c, 0, 64, 100
1, 413206, Control_c, 0, 64, 101
1, 413220, Control_c, 0, 64, 101
1, 413235, Control_c, 0, 64, 102
1, 413250, Control_c, 0, 64, 102
1, 413265, Control_c, 0, 64, 103
1, 413287, Control_c, 0, 64, 103
1, 413309, Note_off_c, 0, 55, 40
1, 413310, Note_on_c, 0, 60, 36
1, 413343, Note_off_c, 0, 52, 38
1, 413363, Control_c, 0, 64, 104
1, 413392, Control_c, 0, 64, 104
1, 413422, Control_c, 0, 64, 105
1, 413477, Note_off_c, 0, 60, 37
1, 413491, Note_on_c, 0, 52, 36
1, 413500, Note_on_c, 0, 55, 34
1, 413584, Control_c, 0, 67, 121
1, 413666, Note_off_c, 0, 79, 58
1, 413667, Note_off_c, 0, 55, 34
1, 413679, Note_on_c, 0, 60, 36
1, 413685, Note_off_c, 0, 52, 39
1, 413686, Note_on_c, 0, 81, 52
1, 413735, Note_off_c, 0, 81, 43
1, 413786, Note_on_c, 0, 79, 51
1, 413813, Note_off_c, 0, 60, 50
1, 413844, Note_off_c, 0, 79, 41
1, 413855, Note_on_c, 0, 81, 52
1, 413878, Note_on_c, 0, 52, 17
1, 413901, Poly_aftertouch_c, 0, 55, 127
1, 413903, Note_on_c, 0, 55, 3
1, 413911, Note_off_c, 0, 81, 59
1, 413962, Note_on_c, 0, 79, 49
1, 413986, Note_off_c, 0, 55, 38
1, 413995, Note_off_c, 0, 79, 52
1, 413999, Control_c, 0, 64, 104
1, 414040, Note_on_c, 0, 82, 63
1, 414040, Note_off_c, 0, 52, 40
1, 414048, Note_on_c, 0, 60, 40
1, 414066, Control_c, 0, 64, 104
1, 414081, Control_c, 0, 64, 103
1, 414096, Control_c, 0, 64, 101
1, 414114, Note_off_c, 0, 82, 58
1, 414125, Control_c, 0, 64, 101
1, 414133, Note_on_c, 0, 81, 57
1, 414140, Control_c, 0, 64, 100
1, 414156, Control_c, 0, 64, 98
1, 414171, Control_c, 0, 64, 93
1, 414186, Control_c, 0, 64, 86
1, 414200, Control_c, 0, 64, 81
1, 414214, Note_off_c, 0, 60, 37
1, 414215, Control_c, 0, 64, 76
1, 414217, Note_off_c, 0, 81, 61
1, 414224, Note_on_c, 0, 53, 37
1, 414230, Control_c, 0, 64, 70
1, 414235, Note_on_c, 0, 57, 31
1, 414243, Note_on_c, 0, 82, 60
1, 414245, Control_c, 0, 64, 65
1, 414260, Control_c, 0, 64, 62
1, 414274, Control_c, 0, 64, 61
1, 414289, Control_c, 0, 64, 61
1, 414304, Control_c, 0, 64, 63
1, 414319, Control_c, 0, 64, 65
1, 414327, Note_off_c, 0, 82, 60
1, 414333, Control_c, 0, 64, 68
1, 414339, Note_on_c, 0, 81, 60
1, 414348, Control_c, 0, 64, 71
1, 414363, Control_c, 0, 64, 75
1, 414378, Control_c, 0, 64, 81
1, 414392, Note_off_c, 0, 81, 55
1, 414393, Control_c, 0, 64, 87
1, 414407, Control_c, 0, 64, 93
1, 414422, Control_c, 0, 64, 99
1, 414425, Note_on_c, 0, 60, 45
1, 414437, Control_c, 0, 64, 103
1, 414440, Note_on_c, 0, 84, 53
1, 414446, Note_off_c, 0, 57, 38
1, 414449, Note_off_c, 0, 53, 43
1, 414451, Control_c, 0, 64, 106
1, 414466, Control_c, 0, 64, 113
1, 414481, Control_c, 0, 64, 127
1, 414485, Note_off_c, 0, 84, 59
1, 414516, Note_on_c, 0, 83, 62
1, 414564, Note_off_c, 0, 60, 57
1, 414564, Note_off_c, 0, 83, 59
1, 414571, Control_c, 0, 67, 121
1, 414576, Note_on_c, 0, 53, 41
1, 414601, Note_on_c, 0, 84, 62
1, 414609, Note_on_c, 0, 57, 19
1, 414664, Note_off_c, 0, 84, 63
1, 414677, Note_on_c, 0, 83, 61
1, 414728, Note_off_c, 0, 83, 54
1, 414740, Note_on_c, 0, 86, 61
1, 414779, Note_off_c, 0, 53, 41
1, 414792, Note_off_c, 0, 57, 41
1, 414806, Note_on_c, 0, 60, 36
1, 414808, Note_off_c, 0, 86, 56
1, 414815, Control_c, 0, 67, 121
1, 414832, Note_on_c, 0, 84, 54
1, 414888, Note_off_c, 0, 84, 53
1, 414895, Note_on_c, 0, 89, 64
1, 414945, Note_off_c, 0, 89, 60
1, 414977, Note_on_c, 0, 77, 63
1, 415006, Note_off_c, 0, 77, 65
1, 415188, Note_on_c, 0, 77, 64
1, 415202, Control_c, 0, 64, 123
1, 415214, Note_on_c, 0, 65, 50
1, 415217, Control_c, 0, 64, 105
1, 415221, Note_on_c, 0, 55, 35
1, 415231, Control_c, 0, 64, 96
1, 415239, Note_on_c, 0, 58, 31
1, 415246, Control_c, 0, 64, 89
1, 415261, Control_c, 0, 64, 82
1, 415275, Control_c, 0, 64, 75
1, 415282, Note_off_c, 0, 60, 29
1, 415290, Control_c, 0, 64, 69
1, 415305, Control_c, 0, 64, 64
1, 415320, Control_c, 0, 64, 59
1, 415335, Control_c, 0, 64, 54
1, 415349, Control_c, 0, 64, 53
1, 415379, Control_c, 0, 64, 55
1, 415394, Control_c, 0, 64, 59
1, 415409, Control_c, 0, 64, 64
1, 415423, Control_c, 0, 64, 67
1, 415438, Control_c, 0, 64, 70
1, 415453, Control_c, 0, 64, 74
1, 415468, Control_c, 0, 64, 79
1, 415483, Control_c, 0, 64, 83
1, 415498, Control_c, 0, 64, 88
1, 415513, Note_on_c, 0, 60, 39
1, 415513, Control_c, 0, 64, 93
1, 415535, Control_c, 0, 64, 96
1, 415545, Note_off_c, 0, 55, 42
1, 415550, Control_c, 0, 64, 100
1, 415551, Note_off_c, 0, 58, 43
1, 415564, Control_c, 0, 64, 105
1, 415579, Control_c, 0, 64, 111
1, 415594, Control_c, 0, 64, 116
1, 415608, Control_c, 0, 64, 119
1, 415664, Note_off_c, 0, 77, 55
1, 415668, Control_c, 0, 64, 119
1, 415682, Control_c, 0, 64, 120
1, 415691, Note_on_c, 0, 76, 64
1, 415715, Note_on_c, 0, 55, 40
1, 415716, Note_off_c, 0, 60, 45
1, 415740, Note_on_c, 0, 58, 24
1, 415774, Note_off_c, 0, 65, 35
1, 415781, Note_off_c, 0, 76, 61
1, 415790, Note_on_c, 0, 77, 67
1, 415817, Control_c, 0, 64, 119
1, 415874, Note_on_c, 0, 76, 67
1, 415905, Control_c, 0, 64, 118
1, 415905, Control_c, 0, 67, 120
1, 415916, Note_off_c, 0, 55, 37
1, 415920, Control_c, 0, 64, 116
1, 415921, Note_on_c, 0, 60, 36
1, 415921, Note_off_c, 0, 77, 33
1, 415927, Note_off_c, 0, 58, 44
1, 415935, Control_c, 0, 64, 115
1, 415950, Control_c, 0, 64, 114
1, 415952, Note_on_c, 0, 74, 76
1, 415954, Note_off_c, 0, 76, 55
1, 415965, Control_c, 0, 64, 113
1, 415965, Control_c, 0, 67, 120
1, 415979, Control_c, 0, 64, 111
1, 415994, Control_c, 0, 64, 108
1, 415994, Control_c, 0, 67, 119
1, 416009, Control_c, 0, 64, 105
1, 416024, Control_c, 0, 64, 101
1, 416039, Control_c, 0, 64, 98
1, 416053, Control_c, 0, 64, 93
1, 416067, Note_on_c, 0, 76, 70
1, 416068, Control_c, 0, 64, 86
1, 416082, Note_on_c, 0, 55, 41
1, 416083, Control_c, 0, 64, 78
1, 416087, Note_on_c, 0, 58, 30
1, 416087, Note_off_c, 0, 60, 37
1, 416093, Note_on_c, 0, 64, 31
1, 416097, Control_c, 0, 64, 70
1, 416112, Control_c, 0, 64, 65
1, 416112, Control_c, 0, 67, 119
1, 416127, Control_c, 0, 64, 61
1, 416142, Control_c, 0, 64, 59
1, 416154, Note_off_c, 0, 74, 57
1, 416157, Control_c, 0, 64, 58
1, 416171, Control_c, 0, 64, 59
1, 416171, Control_c, 0, 67, 118
1, 416186, Control_c, 0, 64, 62
1, 416186, Control_c, 0, 67, 118
1, 416201, Control_c, 0, 64, 65
1, 416201, Control_c, 0, 67, 117
1, 416216, Control_c, 0, 64, 68
1, 416216, Control_c, 0, 67, 117
1, 416231, Control_c, 0, 64, 72
1, 416246, Control_c, 0, 64, 79
1, 416261, Control_c, 0, 64, 88
1, 416261, Control_c, 0, 67, 116
1, 416280, Note_off_c, 0, 64, 39
1, 416283, Control_c, 0, 64, 101
1, 416283, Control_c, 0, 67, 115
1, 416297, Note_on_c, 0, 60, 45
1, 416297, Control_c, 0, 64, 115
1, 416297, Control_c, 0, 67, 115
1, 416312, Control_c, 0, 64, 127
1, 416312, Control_c, 0, 67, 114
1, 416327, Control_c, 0, 67, 114
1, 416330, Note_off_c, 0, 55, 41
1, 416333, Note_off_c, 0, 58, 43
1, 416476, Control_c, 0, 64, 113
1, 416478, Note_on_c, 0, 55, 48
1, 416480, Note_on_c, 0, 77, 80
1, 416489, Note_on_c, 0, 58, 45
1, 416490, Control_c, 0, 64, 96
1, 416505, Control_c, 0, 64, 84
1, 416505, Control_c, 0, 67, 113
1, 416505, Note_on_c, 0, 65, 37
1, 416519, Note_off_c, 0, 60, 37
1, 416520, Control_c, 0, 64, 74
1, 416520, Control_c, 0, 67, 113
1, 416535, Control_c, 0, 64, 67
1, 416535, Control_c, 0, 67, 111
1, 416550, Control_c, 0, 64, 64
1, 416550, Control_c, 0, 67, 109
1, 416565, Control_c, 0, 64, 65
1, 416565, Control_c, 0, 67, 107
1, 416571, Note_off_c, 0, 76, 51
1, 416580, Control_c, 0, 64, 68
1, 416580, Control_c, 0, 67, 105
1, 416595, Control_c, 0, 64, 72
1, 416595, Control_c, 0, 67, 104
1, 416610, Control_c, 0, 64, 77
1, 416610, Control_c, 0, 67, 102
1, 416625, Control_c, 0, 64, 85
1, 416625, Control_c, 0, 67, 101
1, 416634, Note_off_c, 0, 65, 44
1, 416639, Control_c, 0, 64, 96
1, 416639, Control_c, 0, 67, 100
1, 416654, Control_c, 0, 64, 113
1, 416654, Control_c, 0, 67, 98
1, 416668, Note_off_c, 0, 77, 62
1, 416669, Control_c, 0, 64, 127
1, 416669, Control_c, 0, 67, 97
1, 416684, Control_c, 0, 67, 97
1, 416684, Note_off_c, 0, 55, 54
1, 416689, Note_on_c, 0, 60, 49
1, 416699, Control_c, 0, 67, 95
1, 416714, Control_c, 0, 67, 93
1, 416714, Note_off_c, 0, 58, 37
1, 416728, Control_c, 0, 67, 90
1, 416743, Control_c, 0, 67, 87
1, 416758, Control_c, 0, 67, 83
1, 416773, Control_c, 0, 67, 80
1, 416788, Control_c, 0, 67, 77
1, 416802, Control_c, 0, 67, 73
1, 416817, Control_c, 0, 67, 68
1, 416832, Control_c, 0, 67, 63
1, 416846, Control_c, 0, 67, 60
1, 416854, Note_on_c, 0, 79, 85
1, 416861, Control_c, 0, 67, 57
1, 416876, Control_c, 0, 64, 116
1, 416876, Control_c, 0, 67, 55
1, 416878, Note_on_c, 0, 67, 60
1, 416879, Note_on_c, 0, 55, 49
1, 416886, Note_on_c, 0, 58, 47
1, 416891, Control_c, 0, 64, 97
1, 416891, Control_c, 0, 67, 52
1, 416906, Control_c, 0, 64, 85
1, 416906, Control_c, 0, 67, 49
1, 416919, Note_off_c, 0, 60, 52
1, 416920, Control_c, 0, 64, 76
1, 416920, Control_c, 0, 67, 44
1, 416935, Control_c, 0, 64, 66
1, 416935, Control_c, 0, 67, 39
1, 416950, Control_c, 0, 64, 63
1, 416950, Control_c, 0, 67, 35
1, 416965, Control_c, 0, 64, 62
1, 416965, Control_c, 0, 67, 30
1, 416980, Control_c, 0, 64, 65
1, 416980, Control_c, 0, 67, 26
1, 416994, Control_c, 0, 64, 68
1, 416994, Control_c, 0, 67, 22
1, 417009, Control_c, 0, 64, 73
1, 417009, Control_c, 0, 67, 19
1, 417032, Control_c, 0, 64, 81
1, 417032, Control_c, 0, 67, 13
1, 417039, Note_off_c, 0, 79, 61
1, 417046, Control_c, 0, 64, 90
1, 417046, Control_c, 0, 67, 0
1, 417055, Note_off_c, 0, 67, 60
1, 417061, Control_c, 0, 64, 103
1, 417076, Control_c, 0, 64, 127
1, 417083, Note_on_c, 0, 60, 51
1, 417096, Note_off_c, 0, 55, 54
1, 417133, Note_off_c, 0, 58, 38
1, 417251, Note_on_c, 0, 80, 86
1, 417268, Control_c, 0, 64, 103
1, 417269, Note_on_c, 0, 56, 59
1, 417271, Note_on_c, 0, 68, 67
1, 417283, Control_c, 0, 64, 87
1, 417284, Note_off_c, 0, 60, 52
1, 417286, Note_on_c, 0, 53, 50
1, 417298, Control_c, 0, 64, 74
1, 417313, Control_c, 0, 64, 64
1, 417328, Control_c, 0, 64, 62
1, 417343, Control_c, 0, 64, 64
1, 417358, Control_c, 0, 64, 67
1, 417373, Control_c, 0, 64, 71
1, 417388, Control_c, 0, 64, 76
1, 417403, Control_c, 0, 64, 83
1, 417406, Note_off_c, 0, 68, 59
1, 417418, Control_c, 0, 64, 95
1, 417432, Control_c, 0, 64, 111
1, 417447, Control_c, 0, 64, 127
1, 417449, Note_off_c, 0, 80, 59
1, 417474, Note_off_c, 0, 53, 54
1, 417480, Note_off_c, 0, 56, 60
1, 417483, Note_on_c, 0, 60, 48
1, 417703, Note_on_c, 0, 82, 86
1, 417718, Note_on_c, 0, 70, 67
1, 417730, Note_on_c, 0, 55, 48
1, 417739, Note_on_c, 0, 52, 46
1, 417743, Control_c, 0, 64, 106
1, 417754, Note_off_c, 0, 60, 57
1, 417758, Control_c, 0, 64, 92
1, 417781, Control_c, 0, 64, 81
1, 417796, Control_c, 0, 64, 69
1, 417811, Control_c, 0, 64, 62
1, 417825, Control_c, 0, 64, 59
1, 417840, Control_c, 0, 64, 62
1, 417855, Control_c, 0, 64, 64
1, 417869, Control_c, 0, 64, 67
1, 417884, Control_c, 0, 64, 72
1, 417891, Note_off_c, 0, 70, 53
1, 417899, Control_c, 0, 64, 78
1, 417915, Control_c, 0, 64, 85
1, 417930, Control_c, 0, 64, 94
1, 417944, Control_c, 0, 64, 101
1, 417959, Control_c, 0, 64, 109
1, 417974, Control_c, 0, 64, 127
1, 418008, Note_on_c, 0, 83, 93
1, 418023, Note_on_c, 0, 71, 74
1, 418047, Note_on_c, 0, 60, 52
1, 418059, Note_off_c, 0, 82, 62
1, 418061, Note_off_c, 0, 55, 61
1, 418064, Note_off_c, 0, 52, 56
1, 418064, Note_off_c, 0, 71, 50
1, 418124, Note_off_c, 0, 83, 63
1, 418231, Note_on_c, 0, 83, 88
1, 418239, Note_off_c, 0, 60, 55
1, 418242, Control_c, 0, 64, 97
1, 418246, Note_on_c, 0, 55, 58
1, 418246, Note_on_c, 0, 52, 60
1, 418249, Note_on_c, 0, 71, 75
1, 418256, Control_c, 0, 64, 81
1, 418271, Control_c, 0, 64, 70
1, 418286, Control_c, 0, 64, 67
1, 418300, Control_c, 0, 64, 68
1, 418315, Control_c, 0, 64, 70
1, 418330, Control_c, 0, 64, 75
1, 418333, Note_off_c, 0, 71, 61
1, 418345, Control_c, 0, 64, 81
1, 418360, Control_c, 0, 64, 89
1, 418374, Control_c, 0, 64, 98
1, 418389, Control_c, 0, 64, 111
1, 418404, Control_c, 0, 64, 127
1, 418409, Note_off_c, 0, 55, 63
1, 418425, Note_on_c, 0, 84, 92
1, 418430, Note_on_c, 0, 72, 87
1, 418438, Note_off_c, 0, 52, 60
1, 418439, Note_on_c, 0, 60, 70
1, 418446, Note_off_c, 0, 83, 49
1, 418488, Note_off_c, 0, 60, 59
1, 418519, Note_off_c, 0, 72, 49
1, 418524, Note_off_c, 0, 84, 60
1, 418634, Control_c, 0, 64, 120
1, 418641, Note_on_c, 0, 80, 90
1, 418642, Note_on_c, 0, 72, 87
1, 418642, Note_on_c, 0, 84, 91
1, 418649, Control_c, 0, 64, 90
1, 418652, Note_on_c, 0, 56, 77
1, 418657, Note_on_c, 0, 53, 78
1, 418662, Control_c, 0, 64, 75
1, 418677, Control_c, 0, 64, 63
1, 418691, Control_c, 0, 64, 38
1, 418706, Control_c, 0, 64, 24
1, 418721, Control_c, 0, 64, 26
1, 418735, Note_off_c, 0, 72, 63
1, 418736, Control_c, 0, 64, 30
1, 418751, Control_c, 0, 64, 33
1, 418756, Note_off_c, 0, 84, 65
1, 418762, Note_off_c, 0, 56, 61
1, 418765, Note_off_c, 0, 53, 63
1, 418765, Control_c, 0, 64, 38
1, 418768, Note_off_c, 0, 80, 64
1, 418780, Control_c, 0, 64, 43
1, 418795, Control_c, 0, 64, 48
1, 418810, Control_c, 0, 64, 50
1, 418854, Control_c, 0, 64, 51
1, 418861, Note_on_c, 0, 60, 90
1, 418869, Control_c, 0, 64, 51
1, 418914, Control_c, 0, 64, 52
1, 418929, Control_c, 0, 64, 53
1, 418938, Note_off_c, 0, 60, 64
1, 418944, Control_c, 0, 64, 54
1, 418959, Control_c, 0, 64, 55
1, 418974, Control_c, 0, 64, 55
1, 419018, Control_c, 0, 64, 56
1, 419061, Note_on_c, 0, 92, 96
1, 419062, Note_on_c, 0, 80, 89
1, 419063, Control_c, 0, 64, 55
1, 419063, Note_on_c, 0, 84, 83
1, 419078, Control_c, 0, 64, 55
1, 419079, Note_on_c, 0, 64, 88
1, 419093, Control_c, 0, 64, 54
1, 419108, Control_c, 0, 64, 52
1, 419167, Control_c, 0, 64, 51
1, 419167, Note_off_c, 0, 64, 64
1, 419211, Control_c, 0, 64, 54
1, 419226, Control_c, 0, 64, 55
1, 419240, Control_c, 0, 64, 56
1, 419255, Control_c, 0, 64, 58
1, 419275, Note_off_c, 0, 92, 64
1, 419278, Control_c, 0, 64, 59
1, 419278, Note_off_c, 0, 80, 60
1, 419284, Note_on_c, 0, 65, 89
1, 419286, Note_off_c, 0, 84, 64
1, 419292, Control_c, 0, 64, 60
1, 419307, Control_c, 0, 64, 60
1, 419342, Note_off_c, 0, 65, 63
1, 419367, Control_c, 0, 64, 60
1, 419469, Note_on_c, 0, 60, 78
1, 419525, Note_off_c, 0, 60, 65
1, 419529, Control_c, 0, 67, 9
1, 419544, Control_c, 0, 67, 12
1, 419559, Control_c, 0, 67, 17
1, 419574, Control_c, 0, 67, 23
1, 419588, Control_c, 0, 64, 60
1, 419588, Control_c, 0, 67, 28
1, 419603, Control_c, 0, 67, 34
1, 419618, Control_c, 0, 67, 39
1, 419633, Control_c, 0, 67, 44
1, 419647, Control_c, 0, 67, 48
1, 419662, Control_c, 0, 67, 52
1, 419673, Note_on_c, 0, 56, 81
1, 419677, Control_c, 0, 67, 56
1, 419692, Control_c, 0, 67, 62
1, 419707, Control_c, 0, 67, 69
1, 419722, Note_off_c, 0, 56, 63
1, 419722, Control_c, 0, 67, 76
1, 419737, Control_c, 0, 67, 81
1, 419752, Control_c, 0, 67, 85
1, 419767, Control_c, 0, 67, 89
1, 419782, Control_c, 0, 67, 94
1, 419797, Control_c, 0, 67, 100
1, 419811, Control_c, 0, 67, 107
1, 419826, Control_c, 0, 67, 112
1, 419841, Control_c, 0, 67, 117
1, 419856, Control_c, 0, 64, 60
1, 419856, Control_c, 0, 67, 120
1, 419869, Note_on_c, 0, 80, 72
1, 419871, Control_c, 0, 64, 59
1, 419871, Control_c, 0, 67, 124
1, 419875, Note_on_c, 0, 55, 67
1, 419881, Note_on_c, 0, 72, 58
1, 419886, Control_c, 0, 67, 127
1, 419915, Control_c, 0, 64, 60
1, 419918, Note_off_c, 0, 55, 62
1, 420005, Control_c, 0, 64, 59
1, 420029, Note_off_c, 0, 80, 60
1, 420041, Control_c, 0, 64, 59
1, 420056, Control_c, 0, 64, 58
1, 420059, Note_off_c, 0, 72, 54
1, 420079, Note_on_c, 0, 53, 71
1, 420119, Note_off_c, 0, 53, 63
1, 420204, Control_c, 0, 64, 59
1, 420249, Control_c, 0, 64, 59
1, 420264, Control_c, 0, 64, 60
1, 420276, Note_on_c, 0, 48, 61
1, 420284, Note_on_c, 0, 52, 54
1, 420293, Control_c, 0, 64, 60
1, 420320, Note_off_c, 0, 52, 63
1, 420338, Control_c, 0, 64, 61
1, 420356, Note_off_c, 0, 48, 61
1, 420476, Note_on_c, 0, 55, 65
1, 420500, Control_c, 0, 64, 61
1, 420520, Note_off_c, 0, 55, 61
1, 420664, Control_c, 0, 64, 61
1, 420679, Note_on_c, 0, 79, 60
1, 420685, Note_on_c, 0, 58, 52
1, 420691, Note_on_c, 0, 70, 43
1, 420693, Control_c, 0, 64, 60
1, 420748, Note_off_c, 0, 58, 47
1, 420775, Control_c, 0, 64, 61
1, 420875, Note_off_c, 0, 70, 34
1, 420882, Note_on_c, 0, 48, 53
1, 420924, Control_c, 0, 64, 61
1, 420943, Note_off_c, 0, 48, 57
1, 420964, Note_off_c, 0, 79, 37
1, 421027, Control_c, 0, 64, 62
1, 421087, Note_on_c, 0, 49, 57
1, 421176, Control_c, 0, 64, 62
1, 421182, Note_off_c, 0, 49, 52
1, 421310, Note_on_c, 0, 53, 47
1, 421379, Note_off_c, 0, 53, 48
1, 421525, Note_on_c, 0, 77, 61
1, 421528, Note_on_c, 0, 56, 63
1, 421536, Note_on_c, 0, 68, 51
1, 421540, Control_c, 0, 64, 63
1, 421555, Control_c, 0, 64, 64
1, 421570, Control_c, 0, 64, 64
1, 421585, Control_c, 0, 64, 65
1, 421594, Note_off_c, 0, 56, 56
1, 421599, Control_c, 0, 64, 65
1, 421614, Control_c, 0, 64, 66
1, 421614, Control_c, 0, 67, 127
1, 421629, Control_c, 0, 64, 66
1, 421641, Note_off_c, 0, 77, 61
1, 421643, Control_c, 0, 64, 67
1, 421643, Control_c, 0, 67, 126
1, 421655, Note_off_c, 0, 68, 60
1, 421657, Control_c, 0, 64, 68
1, 421657, Control_c, 0, 67, 126
1, 421672, Control_c, 0, 67, 125
1, 421687, Control_c, 0, 67, 124
1, 421702, Control_c, 0, 64, 68
1, 421702, Control_c, 0, 67, 123
1, 421716, Control_c, 0, 67, 121
1, 421722, Note_on_c, 0, 49, 71
1, 421731, Control_c, 0, 67, 120
1, 421746, Control_c, 0, 64, 67
1, 421746, Control_c, 0, 67, 118
1, 421761, Control_c, 0, 67, 115
1, 421776, Control_c, 0, 67, 111
1, 421784, Note_off_c, 0, 49, 61
1, 421790, Control_c, 0, 67, 104
1, 421805, Control_c, 0, 64, 67
1, 421805, Control_c, 0, 67, 94
1, 421820, Control_c, 0, 67, 83
1, 421835, Control_c, 0, 64, 66
1, 421835, Control_c, 0, 67, 69
1, 421850, Control_c, 0, 67, 54
1, 421865, Control_c, 0, 64, 66
1, 421865, Control_c, 0, 67, 38
1, 421880, Control_c, 0, 64, 65
1, 421880, Control_c, 0, 67, 23
1, 421895, Control_c, 0, 64, 64
1, 421895, Control_c, 0, 67, 0
1, 421909, Control_c, 0, 64, 64
1, 421927, Note_on_c, 0, 77, 88
1, 421929, Note_on_c, 0, 68, 89
1, 421933, Note_on_c, 0, 65, 88
1, 421937, Note_on_c, 0, 49, 79
1, 421939, Control_c, 0, 64, 63
1, 421941, Note_on_c, 0, 53, 84
1, 422024, Note_off_c, 0, 65, 64
1, 422028, Control_c, 0, 64, 64
1, 422042, Control_c, 0, 64, 64
1, 422053, Note_off_c, 0, 53, 62
1, 422054, Note_off_c, 0, 77, 62
1, 422062, Note_off_c, 0, 68, 63
1, 422066, Note_off_c, 0, 49, 61
1, 422087, Control_c, 0, 64, 64
1, 422102, Control_c, 0, 64, 63
1, 422148, Note_on_c, 0, 56, 93
1, 422177, Control_c, 0, 64, 62
1, 422192, Control_c, 0, 64, 61
1, 422206, Control_c, 0, 64, 61
1, 422221, Control_c, 0, 64, 60
1, 422224, Note_off_c, 0, 56, 65
1, 422273, Control_c, 0, 64, 60
1, 422381, Note_on_c, 0, 80, 93
1, 422381, Note_on_c, 0, 89, 91
1, 422384, Note_on_c, 0, 77, 86
1, 422392, Note_on_c, 0, 60, 67
1, 422407, Control_c, 0, 64, 60
1, 422421, Control_c, 0, 64, 59
1, 422451, Control_c, 0, 64, 58
1, 422465, Control_c, 0, 64, 56
1, 422480, Control_c, 0, 64, 53
1, 422495, Control_c, 0, 64, 47
1, 422502, Note_off_c, 0, 60, 63
1, 422510, Control_c, 0, 64, 38
1, 422525, Control_c, 0, 64, 33
1, 422539, Control_c, 0, 64, 30
1, 422554, Control_c, 0, 64, 24
1, 422569, Control_c, 0, 64, 0
1, 422601, Note_on_c, 0, 61, 88
1, 422613, Note_off_c, 0, 89, 64
1, 422619, Note_off_c, 0, 77, 58
1, 422656, Note_off_c, 0, 80, 63
1, 422664, Note_off_c, 0, 61, 63
1, 422718, Control_c, 0, 64, 11
1, 422762, Control_c, 0, 64, 17
1, 422777, Control_c, 0, 64, 26
1, 422791, Control_c, 0, 64, 35
1, 422799, Note_on_c, 0, 56, 77
1, 422806, Control_c, 0, 64, 37
1, 422851, Control_c, 0, 64, 38
1, 422858, Note_off_c, 0, 56, 64
1, 422865, Control_c, 0, 64, 40
1, 422880, Control_c, 0, 64, 42
1, 422895, Control_c, 0, 64, 42
1, 422910, Control_c, 0, 67, 10
1, 422925, Control_c, 0, 67, 13
1, 422941, Control_c, 0, 64, 43
1, 422941, Control_c, 0, 67, 17
1, 422956, Control_c, 0, 64, 45
1, 422956, Control_c, 0, 67, 21
1, 422970, Control_c, 0, 64, 45
1, 422970, Control_c, 0, 67, 24
1, 422985, Control_c, 0, 67, 27
1, 423000, Control_c, 0, 67, 29
1, 423021, Note_on_c, 0, 53, 64
1, 423022, Control_c, 0, 67, 31
1, 423036, Control_c, 0, 64, 46
1, 423036, Control_c, 0, 67, 32
1, 423051, Control_c, 0, 64, 46
1, 423051, Control_c, 0, 67, 33
1, 423058, Note_off_c, 0, 53, 66
1, 423066, Control_c, 0, 67, 34
1, 423081, Control_c, 0, 67, 38
1, 423096, Control_c, 0, 64, 47
1, 423096, Control_c, 0, 67, 41
1, 423111, Control_c, 0, 64, 49
1, 423111, Control_c, 0, 67, 45
1, 423126, Control_c, 0, 64, 50
1, 423126, Control_c, 0, 67, 48
1, 423141, Control_c, 0, 67, 50
1, 423156, Control_c, 0, 67, 52
1, 423170, Control_c, 0, 64, 51
1, 423170, Control_c, 0, 67, 54
1, 423185, Control_c, 0, 64, 52
1, 423185, Control_c, 0, 67, 58
1, 423200, Control_c, 0, 67, 62
1, 423214, Control_c, 0, 64, 53
1, 423214, Control_c, 0, 67, 68
1, 423215, Note_on_c, 0, 77, 59
1, 423219, Note_on_c, 0, 68, 52
1, 423225, Note_on_c, 0, 51, 65
1, 423229, Control_c, 0, 67, 72
1, 423244, Control_c, 0, 64, 53
1, 423244, Control_c, 0, 67, 77
1, 423259, Control_c, 0, 64, 55
1, 423259, Control_c, 0, 67, 81
1, 423274, Control_c, 0, 64, 55
1, 423274, Control_c, 0, 67, 85
1, 423288, Control_c, 0, 64, 56
1, 423288, Control_c, 0, 67, 89
1, 423303, Control_c, 0, 67, 93
1, 423313, Note_off_c, 0, 51, 37
1, 423318, Control_c, 0, 67, 97
1, 423333, Control_c, 0, 67, 101
1, 423348, Control_c, 0, 67, 105
1, 423362, Control_c, 0, 67, 109
1, 423376, Note_off_c, 0, 77, 46
1, 423377, Control_c, 0, 64, 56
1, 423377, Control_c, 0, 67, 114
1, 423392, Control_c, 0, 67, 119
1, 423406, Control_c, 0, 64, 57
1, 423406, Control_c, 0, 67, 123
1, 423416, Note_off_c, 0, 68, 55
1, 423421, Control_c, 0, 67, 127
1, 423434, Note_on_c, 0, 49, 67
1, 423436, Control_c, 0, 64, 57
1, 423477, Note_off_c, 0, 49, 61
1, 423525, Control_c, 0, 64, 58
1, 423630, Note_on_c, 0, 41, 58
1, 423647, Note_on_c, 0, 45, 59
1, 423659, Control_c, 0, 64, 58
1, 423674, Control_c, 0, 64, 59
1, 423686, Note_off_c, 0, 45, 64
1, 423688, Control_c, 0, 64, 59
1, 423714, Note_off_c, 0, 41, 46
1, 423749, Control_c, 0, 64, 59
1, 423856, Note_on_c, 0, 48, 59
1, 423859, Control_c, 0, 64, 58
1, 423901, Note_off_c, 0, 48, 59
1, 423964, Control_c, 0, 64, 59
1, 424062, Note_on_c, 0, 53, 49
1, 424063, Note_on_c, 0, 72, 40
1, 424065, Note_on_c, 0, 75, 49
1, 424069, Note_on_c, 0, 65, 43
1, 424100, Note_off_c, 0, 53, 60
1, 424240, Note_off_c, 0, 72, 35
1, 424250, Note_off_c, 0, 75, 49
1, 424250, Note_off_c, 0, 65, 43
1, 424270, Note_on_c, 0, 45, 48
1, 424275, Control_c, 0, 64, 59
1, 424330, Note_off_c, 0, 45, 56
1, 424334, Control_c, 0, 64, 60
1, 424349, Control_c, 0, 64, 60
1, 424467, Control_c, 0, 64, 61
1, 424489, Note_on_c, 0, 46, 56
1, 424565, Control_c, 0, 64, 60
1, 424572, Note_off_c, 0, 46, 55
1, 424595, Control_c, 0, 64, 60
1, 424654, Control_c, 0, 64, 59
1, 424715, Note_on_c, 0, 49, 51
1, 424757, Control_c, 0, 64, 59
1, 424772, Control_c, 0, 64, 58
1, 424801, Note_off_c, 0, 49, 58
1, 424891, Control_c, 0, 64, 59
1, 424905, Control_c, 0, 64, 59
1, 424935, Control_c, 0, 64, 60
1, 424950, Control_c, 0, 64, 60
1, 424962, Note_on_c, 0, 70, 44
1, 424966, Note_on_c, 0, 53, 49
1, 424970, Note_on_c, 0, 73, 50
1, 424980, Control_c, 0, 64, 61
1, 424986, Note_on_c, 0, 65, 35
1, 425009, Control_c, 0, 64, 61
1, 425028, Note_off_c, 0, 53, 54
1, 425083, Control_c, 0, 64, 62
1, 425126, Note_off_c, 0, 65, 61
1, 425134, Note_off_c, 0, 70, 62
1, 425168, Note_off_c, 0, 73, 59
1, 425201, Control_c, 0, 64, 62
1, 425245, Note_on_c, 0, 46, 51
1, 425328, Control_c, 0, 64, 63
1, 425380, Note_off_c, 0, 46, 53
1, 425388, Control_c, 0, 64, 63
1, 425462, Control_c, 0, 64, 64
1, 425698, Control_c, 0, 64, 63
1, 425743, Note_on_c, 0, 72, 61
1, 425750, Note_on_c, 0, 68, 56
1, 425753, Note_on_c, 0, 65, 48
1, 425758, Note_on_c, 0, 62, 42
1, 425761, Note_on_c, 0, 56, 52
1, 425769, Note_on_c, 0, 43, 46
1, 425817, Control_c, 0, 64, 63
1, 425906, Control_c, 0, 64, 63
1, 425936, Control_c, 0, 64, 64
1, 425951, Control_c, 0, 64, 65
1, 425965, Control_c, 0, 64, 66
1, 425980, Control_c, 0, 64, 67
1, 425995, Control_c, 0, 64, 69
1, 426017, Control_c, 0, 64, 73
1, 426032, Control_c, 0, 64, 79
1, 426047, Control_c, 0, 64, 85
1, 426062, Control_c, 0, 64, 88
1, 426077, Control_c, 0, 64, 89
1, 426091, Control_c, 0, 64, 92
1, 426106, Control_c, 0, 64, 97
1, 426121, Control_c, 0, 64, 103
1, 426137, Control_c, 0, 64, 113
1, 426151, Control_c, 0, 64, 127
1, 426327, Note_on_c, 0, 71, 66
1, 426360, Note_off_c, 0, 72, 55
1, 426536, Note_on_c, 0, 74, 66
1, 426558, Note_on_c, 0, 47, 47
1, 426566, Control_c, 0, 64, 118
1, 426580, Control_c, 0, 64, 107
1, 426595, Control_c, 0, 64, 100
1, 426610, Control_c, 0, 64, 94
1, 426625, Control_c, 0, 64, 87
1, 426637, Note_off_c, 0, 71, 47
1, 426639, Control_c, 0, 64, 80
1, 426654, Control_c, 0, 64, 74
1, 426669, Control_c, 0, 64, 70
1, 426684, Control_c, 0, 64, 67
1, 426699, Control_c, 0, 64, 65
1, 426713, Control_c, 0, 64, 62
1, 426728, Control_c, 0, 64, 57
1, 426743, Control_c, 0, 64, 57
1, 426765, Control_c, 0, 64, 58
1, 426780, Control_c, 0, 64, 61
1, 426795, Control_c, 0, 64, 62
1, 426810, Control_c, 0, 64, 64
1, 426825, Control_c, 0, 64, 66
1, 426839, Control_c, 0, 64, 67
1, 426854, Control_c, 0, 64, 69
1, 426869, Control_c, 0, 64, 73
1, 426884, Control_c, 0, 64, 77
1, 426900, Control_c, 0, 64, 82
1, 426914, Control_c, 0, 64, 85
1, 426930, Control_c, 0, 64, 88
1, 426944, Control_c, 0, 64, 90
1, 426959, Control_c, 0, 64, 93
1, 426974, Control_c, 0, 64, 95
1, 426989, Control_c, 0, 64, 95
1, 427004, Control_c, 0, 64, 96
1, 427019, Control_c, 0, 64, 97
1, 427034, Control_c, 0, 64, 99
1, 427049, Control_c, 0, 64, 100
1, 427152, Control_c, 0, 64, 99
1, 427181, Control_c, 0, 64, 99
1, 427211, Control_c, 0, 64, 98
1, 427226, Control_c, 0, 64, 98
1, 427241, Control_c, 0, 64, 97
1, 427270, Control_c, 0, 64, 97
1, 427274, Note_on_c, 0, 50, 48
1, 427285, Control_c, 0, 64, 96
1, 427300, Control_c, 0, 64, 95
1, 427315, Control_c, 0, 64, 94
1, 427329, Control_c, 0, 64, 94
1, 427359, Control_c, 0, 64, 93
1, 427374, Control_c, 0, 64, 92
1, 427379, Note_off_c, 0, 47, 36
1, 427403, Control_c, 0, 64, 92
1, 427418, Control_c, 0, 64, 91
1, 427433, Control_c, 0, 64, 91
1, 427448, Control_c, 0, 64, 90
1, 427515, Control_c, 0, 64, 90
1, 427544, Control_c, 0, 64, 89
1, 427946, Control_c, 0, 64, 89
1, 427990, Control_c, 0, 64, 88
1, 428004, Control_c, 0, 64, 87
1, 428019, Control_c, 0, 64, 87
1, 428064, Control_c, 0, 64, 86
1, 428093, Control_c, 0, 64, 85
1, 428110, Note_on_c, 0, 47, 36
1, 428229, Note_off_c, 0, 62, 34
1, 428275, Note_off_c, 0, 50, 41
1, 428294, Note_off_c, 0, 65, 37
1, 428399, Note_off_c, 0, 74, 45
1, 428412, Note_off_c, 0, 68, 33
1, 428487, Note_off_c, 0, 56, 31
1, 428506, Note_off_c, 0, 47, 37
1, 428566, Note_off_c, 0, 43, 39
1, 428650, Control_c, 0, 64, 85
1, 428724, Control_c, 0, 64, 84
1, 428798, Control_c, 0, 64, 84
1, 428827, Control_c, 0, 64, 83
1, 428842, Control_c, 0, 64, 83
1, 428857, Control_c, 0, 64, 82
1, 428872, Control_c, 0, 64, 81
1, 428887, Control_c, 0, 64, 80
1, 428901, Control_c, 0, 64, 80
1, 428903, Note_on_c, 0, 72, 61
1, 428916, Control_c, 0, 64, 78
1, 428931, Control_c, 0, 64, 76
1, 428945, Control_c, 0, 64, 74
1, 428960, Control_c, 0, 64, 72
1, 428975, Control_c, 0, 64, 71
1, 428990, Control_c, 0, 64, 70
1, 429013, Control_c, 0, 64, 68
1, 429027, Control_c, 0, 64, 67
1, 429042, Control_c, 0, 64, 66
1, 429057, Control_c, 0, 64, 66
1, 429072, Control_c, 0, 64, 65
1, 429087, Control_c, 0, 64, 63
1, 429101, Control_c, 0, 64, 62
1, 429116, Control_c, 0, 64, 60
1, 429131, Control_c, 0, 64, 58
1, 429146, Control_c, 0, 64, 56
1, 429160, Control_c, 0, 64, 54
1, 429175, Control_c, 0, 64, 52
1, 429190, Control_c, 0, 64, 48
1, 429205, Control_c, 0, 64, 46
1, 429249, Control_c, 0, 64, 47
1, 429264, Control_c, 0, 64, 48
1, 429264, Control_c, 0, 67, 127
1, 429279, Control_c, 0, 64, 49
1, 429294, Control_c, 0, 64, 52
1, 429308, Control_c, 0, 64, 54
1, 429324, Control_c, 0, 64, 55
1, 429339, Control_c, 0, 64, 55
1, 429354, Control_c, 0, 67, 126
1, 429369, Control_c, 0, 64, 56
1, 429369, Control_c, 0, 67, 126
1, 429383, Control_c, 0, 64, 58
1, 429383, Control_c, 0, 67, 125
1, 429398, Control_c, 0, 64, 59
1, 429413, Control_c, 0, 64, 59
1, 429413, Control_c, 0, 67, 125
1, 429428, Control_c, 0, 67, 124
1, 429457, Control_c, 0, 64, 60
1, 429457, Control_c, 0, 67, 123
1, 429472, Control_c, 0, 64, 60
1, 429472, Control_c, 0, 67, 123
1, 429487, Control_c, 0, 64, 61
1, 429487, Control_c, 0, 67, 122
1, 429496, Note_on_c, 0, 71, 42
1, 429502, Note_off_c, 0, 72, 51
1, 429502, Control_c, 0, 67, 121
1, 429517, Control_c, 0, 67, 120
1, 429532, Control_c, 0, 67, 119
1, 429547, Control_c, 0, 67, 118
1, 429562, Control_c, 0, 67, 117
1, 429576, Control_c, 0, 67, 117
1, 429591, Control_c, 0, 67, 115
1, 429606, Control_c, 0, 67, 113
1, 429621, Control_c, 0, 64, 61
1, 429621, Control_c, 0, 67, 111
1, 429636, Control_c, 0, 67, 109
1, 429650, Control_c, 0, 67, 107
1, 429665, Control_c, 0, 67, 106
1, 429678, Note_on_c, 0, 74, 50
1, 429680, Control_c, 0, 67, 105
1, 429687, Note_off_c, 0, 71, 51
1, 429695, Control_c, 0, 67, 103
1, 429710, Control_c, 0, 67, 102
1, 429724, Control_c, 0, 67, 101
1, 429739, Control_c, 0, 67, 100
1, 429761, Control_c, 0, 67, 99
1, 429776, Control_c, 0, 67, 98
1, 429791, Control_c, 0, 67, 97
1, 429806, Control_c, 0, 67, 96
1, 429821, Control_c, 0, 67, 94
1, 429836, Control_c, 0, 67, 94
1, 429850, Control_c, 0, 64, 62
1, 429880, Control_c, 0, 64, 61
1, 429923, Control_c, 0, 64, 62
1, 429953, Control_c, 0, 67, 94
1, 429982, Control_c, 0, 67, 95
1, 430027, Control_c, 0, 67, 95
1, 430042, Control_c, 0, 67, 96
1, 430056, Control_c, 0, 64, 62
1, 430056, Control_c, 0, 67, 96
1, 430060, Note_off_c, 0, 74, 43
1, 430146, Control_c, 0, 64, 63
1, 430206, Control_c, 0, 64, 63
1, 430206, Control_c, 0, 67, 96
1, 430369, Control_c, 0, 64, 64
1, 430502, Note_on_c, 0, 74, 62
1, 430539, Control_c, 0, 64, 64
1, 430674, Control_c, 0, 64, 64
1, 430851, Control_c, 0, 64, 64
1, 430880, Control_c, 0, 67, 96
1, 430926, Control_c, 0, 67, 97
1, 431029, Control_c, 0, 67, 96
1, 431162, Note_on_c, 0, 72, 39
1, 431162, Control_c, 0, 64, 65
1, 431195, Note_off_c, 0, 74, 37
1, 431357, Note_on_c, 0, 75, 46
1, 431358, Note_off_c, 0, 72, 51
1, 431510, Control_c, 0, 67, 97
1, 431599, Control_c, 0, 64, 65
1, 431688, Control_c, 0, 67, 97
1, 431748, Control_c, 0, 64, 66
1, 431765, Note_off_c, 0, 75, 47
1, 431851, Control_c, 0, 64, 66
1, 431896, Control_c, 0, 64, 67
1, 431926, Control_c, 0, 64, 67
1, 431940, Control_c, 0, 64, 68
1, 431955, Control_c, 0, 64, 69
1, 431970, Control_c, 0, 64, 69
1, 431985, Control_c, 0, 64, 70
1, 432007, Control_c, 0, 64, 72
1, 432022, Control_c, 0, 64, 73
1, 432037, Control_c, 0, 64, 74
1, 432040, Note_on_c, 0, 47, 33
1, 432051, Control_c, 0, 64, 76
1, 432066, Control_c, 0, 64, 78
1, 432081, Control_c, 0, 64, 82
1, 432096, Control_c, 0, 64, 84
1, 432096, Control_c, 0, 67, 97
1, 432111, Control_c, 0, 64, 86
1, 432125, Control_c, 0, 64, 88
1, 432140, Control_c, 0, 64, 88
1, 432155, Control_c, 0, 64, 89
1, 432170, Control_c, 0, 64, 88
1, 432214, Control_c, 0, 67, 96
1, 432288, Control_c, 0, 64, 88
1, 432352, Note_on_c, 0, 75, 47
1, 432369, Note_on_c, 0, 65, 39
1, 432373, Note_on_c, 0, 68, 37
1, 432378, Note_on_c, 0, 62, 35
1, 432391, Control_c, 0, 64, 87
1, 432421, Control_c, 0, 64, 87
1, 432465, Control_c, 0, 64, 86
1, 432555, Control_c, 0, 64, 86
1, 432721, Note_off_c, 0, 75, 38
1, 432940, Note_on_c, 0, 74, 52
1, 433007, Control_c, 0, 64, 85
1, 433037, Control_c, 0, 64, 85
1, 433081, Control_c, 0, 64, 84
1, 433111, Control_c, 0, 64, 84
1, 433140, Control_c, 0, 64, 83
1, 433151, Note_on_c, 0, 77, 44
1, 433155, Control_c, 0, 64, 83
1, 433185, Control_c, 0, 64, 82
1, 433192, Note_on_c, 0, 53, 29
1, 433199, Control_c, 0, 64, 81
1, 433214, Control_c, 0, 64, 81
1, 433244, Control_c, 0, 64, 80
1, 433244, Control_c, 0, 67, 97
1, 433256, Note_off_c, 0, 74, 51
1, 433259, Control_c, 0, 64, 79
1, 433273, Control_c, 0, 64, 78
1, 433288, Control_c, 0, 64, 76
1, 433303, Control_c, 0, 64, 75
1, 433319, Control_c, 0, 64, 75
1, 433364, Control_c, 0, 67, 97
1, 433378, Control_c, 0, 64, 75
1, 433393, Control_c, 0, 64, 76
1, 433408, Control_c, 0, 64, 77
1, 433422, Control_c, 0, 64, 78
1, 433437, Control_c, 0, 64, 79
1, 433452, Control_c, 0, 64, 79
1, 433467, Control_c, 0, 64, 81
1, 433467, Control_c, 0, 67, 97
1, 433482, Control_c, 0, 64, 83
1, 433504, Control_c, 0, 64, 84
1, 433548, Control_c, 0, 64, 84
1, 433563, Control_c, 0, 64, 85
1, 433593, Control_c, 0, 64, 86
1, 433947, Note_on_c, 0, 56, 35
1, 433979, Control_c, 0, 64, 86
1, 434080, Note_off_c, 0, 53, 43
1, 434143, Control_c, 0, 67, 97
1, 434202, Control_c, 0, 64, 87
1, 434254, Control_c, 0, 64, 87
1, 434269, Control_c, 0, 64, 88
1, 434358, Control_c, 0, 64, 88
1, 434432, Control_c, 0, 64, 89
1, 434446, Control_c, 0, 64, 89
1, 434653, Control_c, 0, 64, 90
1, 434653, Control_c, 0, 67, 98
1, 434731, Note_on_c, 0, 53, 36
1, 434757, Control_c, 0, 64, 90
1, 434846, Control_c, 0, 64, 91
1, 434855, Note_off_c, 0, 65, 31
1, 434927, Note_off_c, 0, 56, 44
1, 434985, Note_off_c, 0, 68, 55
1, 435121, Note_off_c, 0, 77, 35
1, 435121, Control_c, 0, 67, 98
1, 435176, Note_off_c, 0, 62, 39
1, 435195, Control_c, 0, 64, 90
1, 435216, Note_off_c, 0, 53, 38
1, 435225, Control_c, 0, 64, 90
1, 435269, Control_c, 0, 67, 99
1, 435314, Control_c, 0, 64, 89
1, 435315, Note_off_c, 0, 47, 36
1, 435358, Control_c, 0, 64, 89
1, 435358, Control_c, 0, 67, 99
1, 435373, Control_c, 0, 64, 88
1, 435373, Control_c, 0, 67, 100
1, 435388, Control_c, 0, 64, 88
1, 435402, Control_c, 0, 67, 100
1, 435461, Control_c, 0, 64, 87
1, 435461, Control_c, 0, 67, 101
1, 435506, Control_c, 0, 64, 87
1, 435535, Control_c, 0, 64, 86
1, 435550, Control_c, 0, 64, 85
1, 435564, Note_on_c, 0, 75, 61
1, 435595, Control_c, 0, 64, 85
1, 435610, Control_c, 0, 64, 84
1, 435625, Control_c, 0, 64, 83
1, 435640, Control_c, 0, 64, 83
1, 435655, Control_c, 0, 64, 82
1, 435684, Control_c, 0, 64, 82
1, 435699, Control_c, 0, 64, 81
1, 435714, Control_c, 0, 64, 80
1, 435729, Control_c, 0, 64, 80
1, 435766, Control_c, 0, 64, 79
1, 435781, Control_c, 0, 64, 78
1, 435796, Control_c, 0, 64, 78
1, 435811, Control_c, 0, 64, 77
1, 435825, Control_c, 0, 64, 77
1, 435840, Control_c, 0, 64, 76
1, 435855, Control_c, 0, 64, 75
1, 435870, Control_c, 0, 64, 74
1, 435899, Control_c, 0, 64, 74
1, 435914, Control_c, 0, 64, 73
1, 435929, Control_c, 0, 64, 71
1, 435944, Control_c, 0, 64, 70
1, 435959, Control_c, 0, 64, 69
1, 435988, Control_c, 0, 64, 69
1, 436003, Control_c, 0, 64, 68
1, 436018, Control_c, 0, 64, 67
1, 436033, Control_c, 0, 64, 67
1, 436166, Control_c, 0, 64, 67
1, 436171, Note_on_c, 0, 74, 46
1, 436238, Note_off_c, 0, 75, 55
1, 436240, Control_c, 0, 64, 68
1, 436329, Control_c, 0, 64, 68
1, 436359, Note_on_c, 0, 77, 43
1, 436388, Note_off_c, 0, 74, 51
1, 436418, Control_c, 0, 64, 69
1, 436499, Control_c, 0, 64, 69
1, 436574, Control_c, 0, 64, 70
1, 436589, Control_c, 0, 64, 70
1, 436663, Control_c, 0, 64, 71
1, 436737, Control_c, 0, 64, 71
1, 436750, Note_off_c, 0, 77, 43
1, 436767, Control_c, 0, 64, 72
1, 436796, Control_c, 0, 64, 71
1, 436826, Control_c, 0, 64, 72
1, 436871, Control_c, 0, 64, 72
1, 436945, Control_c, 0, 64, 73
1, 436945, Control_c, 0, 67, 100
1, 436989, Control_c, 0, 64, 73
1, 437107, Control_c, 0, 64, 74
1, 437241, Note_on_c, 0, 77, 31
1, 437278, Control_c, 0, 64, 74
1, 437457, Control_c, 0, 64, 75
1, 437471, Control_c, 0, 64, 75
1, 437530, Control_c, 0, 64, 76
1, 437545, Control_c, 0, 64, 77
1, 437589, Control_c, 0, 64, 77
1, 437604, Control_c, 0, 64, 78
1, 437619, Control_c, 0, 64, 78
1, 437649, Control_c, 0, 64, 79
1, 437679, Control_c, 0, 64, 79
1, 437694, Control_c, 0, 64, 80
1, 437911, Note_on_c, 0, 75, 36
1, 437946, Note_off_c, 0, 77, 44
1, 438027, Control_c, 0, 67, 101
1, 438101, Control_c, 0, 64, 79
1, 438117, Control_c, 0, 67, 101
1, 438139, Note_on_c, 0, 79, 36
1, 438176, Control_c, 0, 67, 102
1, 438185, Note_off_c, 0, 75, 42
1, 438220, Control_c, 0, 67, 102
1, 438235, Control_c, 0, 64, 79
1, 438280, Control_c, 0, 67, 103
1, 438309, Control_c, 0, 64, 78
1, 438338, Control_c, 0, 64, 78
1, 438383, Control_c, 0, 64, 77
1, 438398, Control_c, 0, 64, 76
1, 438412, Control_c, 0, 64, 75
1, 438427, Control_c, 0, 64, 74
1, 438457, Control_c, 0, 64, 74
1, 438472, Control_c, 0, 64, 73
1, 438486, Control_c, 0, 64, 72
1, 438501, Control_c, 0, 64, 71
1, 438516, Control_c, 0, 64, 71
1, 438531, Control_c, 0, 64, 70
1, 438546, Control_c, 0, 64, 70
1, 438561, Control_c, 0, 64, 69
1, 438561, Control_c, 0, 67, 103
1, 438620, Control_c, 0, 64, 69
1, 438620, Control_c, 0, 67, 104
1, 438635, Control_c, 0, 64, 68
1, 438650, Control_c, 0, 64, 69
1, 438665, Control_c, 0, 64, 70
1, 438680, Control_c, 0, 64, 72
1, 438694, Control_c, 0, 64, 74
1, 438709, Control_c, 0, 64, 75
1, 438724, Control_c, 0, 64, 76
1, 438746, Control_c, 0, 64, 79
1, 438761, Control_c, 0, 64, 84
1, 438765, Note_off_c, 0, 79, 26
1, 438776, Control_c, 0, 64, 91
1, 438782, Note_on_c, 0, 46, 31
1, 438791, Control_c, 0, 64, 96
1, 438791, Control_c, 0, 67, 103
1, 438805, Control_c, 0, 64, 97
1, 438820, Control_c, 0, 64, 98
1, 438835, Control_c, 0, 64, 100
1, 438850, Control_c, 0, 64, 104
1, 438864, Control_c, 0, 64, 110
1, 438879, Control_c, 0, 64, 111
1, 438894, Control_c, 0, 64, 112
1, 438909, Control_c, 0, 64, 114
1, 438925, Control_c, 0, 64, 124
1, 438940, Control_c, 0, 64, 127
1, 438954, Control_c, 0, 67, 103
1, 438966, Note_off_c, 0, 46, 41
1, 438999, Control_c, 0, 67, 102
1, 439103, Control_c, 0, 67, 102
1, 439202, Note_on_c, 0, 79, 55
1, 439211, Note_on_c, 0, 74, 47
1, 439221, Control_c, 0, 67, 101
1, 439223, Note_on_c, 0, 68, 37
1, 439255, Note_on_c, 0, 62, 25
1, 439443, Control_c, 0, 67, 101
1, 439494, Control_c, 0, 67, 101
1, 439613, Control_c, 0, 67, 102
1, 439682, Note_off_c, 0, 79, 53
1, 439762, Control_c, 0, 67, 102
1, 439833, Note_on_c, 0, 77, 43
1, 440018, Note_off_c, 0, 68, 39
1, 440052, Note_on_c, 0, 80, 48
1, 440075, Note_off_c, 0, 74, 33
1, 440084, Note_on_c, 0, 53, 30
1, 440179, Note_off_c, 0, 77, 44
1, 440201, Note_off_c, 0, 62, 37
1, 440870, Note_on_c, 0, 62, 27
1, 441001, Note_off_c, 0, 80, 46
1, 441015, Note_off_c, 0, 53, 40
1, 441544, Note_on_c, 0, 77, 34
1, 441771, Note_off_c, 0, 77, 43
1, 441771, Control_c, 0, 67, 102
1, 441773, Note_on_c, 0, 86, 36
1, 441817, Note_on_c, 0, 53, 17
1, 441951, Note_off_c, 0, 62, 39
1, 442107, Note_off_c, 0, 53, 44
1, 442490, Control_c, 0, 67, 101
1, 442613, Note_on_c, 0, 65, 30
1, 442655, Note_off_c, 0, 86, 37
1, 442875, Control_c, 0, 67, 101
1, 443155, Note_off_c, 0, 65, 41
1, 443172, Control_c, 0, 67, 100
1, 443208, Note_on_c, 0, 80, 34
1, 443366, Note_off_c, 0, 80, 41
1, 443417, Control_c, 0, 67, 100
1, 443459, Note_on_c, 0, 89, 41
1, 443474, Note_on_c, 0, 62, 24
1, 443654, Control_c, 0, 67, 99
1, 443817, Note_off_c, 0, 62, 39
1, 443830, Note_off_c, 0, 89, 21
1, 443878, Control_c, 0, 67, 99
1, 444311, Note_on_c, 0, 68, 35
1, 444625, Control_c, 0, 67, 98
1, 445048, Note_on_c, 0, 86, 28
1, 445083, Note_off_c, 0, 68, 43
1, 445323, Note_off_c, 0, 86, 27
1, 445401, Note_on_c, 0, 92, 44
1, 445432, Note_on_c, 0, 65, 22
1, 445515, Control_c, 0, 67, 98
1, 445659, Note_off_c, 0, 92, 40
1, 445671, Note_off_c, 0, 65, 39
1, 445766, Control_c, 0, 67, 97
1, 445944, Control_c, 0, 67, 97
1, 446123, Control_c, 0, 67, 97
1, 446212, Control_c, 0, 67, 98
1, 446293, Control_c, 0, 67, 97
1, 446308, Control_c, 0, 67, 97
1, 446323, Control_c, 0, 64, 90
1, 446323, Control_c, 0, 67, 94
1, 446338, Control_c, 0, 64, 68
1, 446338, Control_c, 0, 67, 85
1, 446352, Note_on_c, 0, 80, 100
1, 446352, Control_c, 0, 64, 65
1, 446352, Control_c, 0, 67, 51
1, 446355, Note_on_c, 0, 86, 97
1, 446358, Note_on_c, 0, 89, 93
1, 446358, Note_on_c, 0, 92, 84
1, 446359, Note_on_c, 0, 68, 99
1, 446363, Note_on_c, 0, 65, 93
1, 446364, Note_on_c, 0, 58, 85
1, 446368, Control_c, 0, 64, 78
1, 446368, Control_c, 0, 67, 0
1, 446372, Note_on_c, 0, 62, 80
1, 446375, Note_off_c, 0, 92, 75
1, 446377, Note_off_c, 0, 89, 68
1, 446382, Note_off_c, 0, 86, 67
1, 446383, Control_c, 0, 64, 127
1, 446383, Note_off_c, 0, 80, 67
1, 446393, Note_off_c, 0, 65, 67
1, 446394, Note_off_c, 0, 68, 64
1, 446395, Note_off_c, 0, 62, 69
1, 446405, Note_off_c, 0, 58, 66
1, 446676, Note_on_c, 0, 58, 75
1, 446684, Note_on_c, 0, 44, 31
1, 446713, Note_off_c, 0, 58, 50
1, 446724, Note_off_c, 0, 44, 53
1, 446738, Note_on_c, 0, 57, 73
1, 446753, Control_c, 0, 64, 126
1, 446761, Note_on_c, 0, 50, 36
1, 446797, Control_c, 0, 64, 124
1, 446798, Note_off_c, 0, 50, 55
1, 446803, Note_off_c, 0, 57, 57
1, 446809, Note_on_c, 0, 46, 66
1, 446810, Note_on_c, 0, 58, 73
1, 446845, Note_off_c, 0, 46, 63
1, 446863, Note_on_c, 0, 62, 70
1, 446874, Note_on_c, 0, 50, 61
1, 446879, Note_off_c, 0, 58, 61
1, 446886, Control_c, 0, 64, 120
1, 446886, Control_c, 0, 67, 8
1, 446902, Control_c, 0, 64, 111
1, 446902, Control_c, 0, 67, 10
1, 446911, Note_on_c, 0, 65, 65
1, 446911, Note_off_c, 0, 50, 66
1, 446916, Control_c, 0, 64, 101
1, 446916, Control_c, 0, 67, 12
1, 446918, Note_off_c, 0, 62, 60
1, 446931, Control_c, 0, 64, 92
1, 446931, Control_c, 0, 67, 15
1, 446946, Control_c, 0, 64, 86
1, 446946, Control_c, 0, 67, 20
1, 446957, Note_off_c, 0, 65, 62
1, 446961, Control_c, 0, 64, 83
1, 446961, Control_c, 0, 67, 24
1, 446976, Note_on_c, 0, 50, 69
1, 446983, Control_c, 0, 64, 83
1, 446983, Control_c, 0, 67, 28
1, 446997, Note_on_c, 0, 62, 54
1, 446998, Control_c, 0, 64, 82
1, 446998, Control_c, 0, 67, 31
1, 447006, Note_off_c, 0, 50, 69
1, 447013, Control_c, 0, 64, 81
1, 447013, Control_c, 0, 67, 33
1, 447028, Control_c, 0, 64, 78
1, 447028, Control_c, 0, 67, 34
1, 447037, Note_on_c, 0, 53, 59
1, 447041, Note_off_c, 0, 62, 57
1, 447043, Control_c, 0, 64, 76
1, 447043, Control_c, 0, 67, 36
1, 447052, Note_on_c, 0, 65, 70
1, 447057, Control_c, 0, 64, 76
1, 447057, Control_c, 0, 67, 38
1, 447059, Note_off_c, 0, 53, 65
1, 447072, Control_c, 0, 67, 41
1, 447080, Note_on_c, 0, 50, 65
1, 447087, Control_c, 0, 67, 44
1, 447100, Note_off_c, 0, 65, 60
1, 447101, Control_c, 0, 64, 75
1, 447101, Control_c, 0, 67, 45
1, 447116, Control_c, 0, 67, 46
1, 447125, Note_on_c, 0, 68, 71
1, 447131, Control_c, 0, 67, 47
1, 447154, Note_on_c, 0, 53, 56
1, 447157, Note_off_c, 0, 50, 52
1, 447161, Control_c, 0, 64, 76
1, 447184, Note_off_c, 0, 68, 61
1, 447185, Note_on_c, 0, 65, 72
1, 447219, Note_off_c, 0, 65, 64
1, 447220, Control_c, 0, 64, 77
1, 447220, Control_c, 0, 67, 47
1, 447235, Control_c, 0, 64, 78
1, 447235, Control_c, 0, 67, 46
1, 447240, Note_on_c, 0, 62, 70
1, 447250, Note_on_c, 0, 50, 49
1, 447256, Note_off_c, 0, 53, 62
1, 447264, Note_off_c, 0, 62, 67
1, 447264, Control_c, 0, 64, 76
1, 447279, Control_c, 0, 64, 71
1, 447288, Note_off_c, 0, 50, 58
1, 447294, Control_c, 0, 64, 64
1, 447308, Control_c, 0, 64, 59
1, 447308, Control_c, 0, 67, 45
1, 447313, Note_on_c, 0, 68, 77
1, 447323, Note_on_c, 0, 52, 51
1, 447323, Note_on_c, 0, 53, 55
1, 447323, Control_c, 0, 64, 57
1, 447323, Control_c, 0, 67, 45
1, 447338, Control_c, 0, 64, 60
1, 447352, Note_off_c, 0, 52, 57
1, 447353, Control_c, 0, 64, 64
1, 447358, Note_off_c, 0, 53, 64
1, 447365, Note_off_c, 0, 68, 63
1, 447368, Control_c, 0, 64, 65
1, 447368, Control_c, 0, 67, 45
1, 447378, Note_on_c, 0, 65, 75
1, 447382, Control_c, 0, 64, 66
1, 447384, Note_on_c, 0, 56, 68
1, 447397, Control_c, 0, 67, 45
1, 447412, Control_c, 0, 64, 66
1, 447412, Control_c, 0, 67, 44
1, 447421, Note_off_c, 0, 56, 65
1, 447427, Control_c, 0, 64, 68
1, 447437, Note_off_c, 0, 65, 59
1, 447442, Note_on_c, 0, 53, 63
1, 447442, Control_c, 0, 64, 68
1, 447443, Note_on_c, 0, 68, 75
1, 447478, Note_off_c, 0, 53, 66
1, 447498, Note_off_c, 0, 68, 61
1, 447501, Control_c, 0, 64, 69
1, 447506, Note_on_c, 0, 70, 75
1, 447510, Note_on_c, 0, 56, 63
1, 447516, Control_c, 0, 67, 44
1, 447541, Note_off_c, 0, 56, 65
1, 447560, Control_c, 0, 64, 69
1, 447562, Note_on_c, 0, 68, 69
1, 447564, Note_on_c, 0, 53, 56
1, 447565, Note_off_c, 0, 70, 63
1, 447575, Control_c, 0, 64, 70
1, 447590, Control_c, 0, 64, 73
1, 447595, Note_off_c, 0, 53, 59
1, 447597, Note_on_c, 0, 56, 73
1, 447605, Control_c, 0, 64, 74
1, 447608, Note_off_c, 0, 68, 62
1, 447611, Note_on_c, 0, 65, 74
1, 447619, Note_off_c, 0, 56, 70
1, 447619, Control_c, 0, 64, 72
1, 447634, Control_c, 0, 64, 69
1, 447639, Note_off_c, 0, 65, 67
1, 447649, Control_c, 0, 64, 68
1, 447649, Control_c, 0, 67, 43
1, 447664, Control_c, 0, 64, 70
1, 447679, Control_c, 0, 64, 72
1, 447686, Note_on_c, 0, 70, 80
1, 447695, Note_on_c, 0, 58, 73
1, 447709, Control_c, 0, 64, 71
1, 447731, Control_c, 0, 64, 70
1, 447731, Control_c, 0, 67, 43
1, 447745, Note_off_c, 0, 70, 65
1, 447746, Control_c, 0, 64, 69
1, 447748, Note_off_c, 0, 58, 59
1, 447760, Note_on_c, 0, 68, 77
1, 447761, Control_c, 0, 64, 69
1, 447761, Control_c, 0, 67, 43
1, 447767, Note_on_c, 0, 62, 63
1, 447776, Control_c, 0, 64, 70
1, 447799, Note_off_c, 0, 62, 62
1, 447823, Note_off_c, 0, 68, 61
1, 447830, Note_on_c, 0, 70, 73
1, 447833, Note_on_c, 0, 58, 73
1, 447835, Control_c, 0, 64, 70
1, 447850, Control_c, 0, 64, 70
1, 447850, Control_c, 0, 67, 43
1, 447865, Control_c, 0, 64, 69
1, 447865, Control_c, 0, 67, 42
1, 447873, Note_off_c, 0, 70, 62
1, 447875, Note_on_c, 0, 74, 77
1, 447879, Control_c, 0, 67, 42
1, 447882, Note_off_c, 0, 58, 63
1, 447902, Note_on_c, 0, 62, 66
1, 447924, Control_c, 0, 64, 69
1, 447936, Note_off_c, 0, 74, 64
1, 447939, Control_c, 0, 64, 68
1, 447941, Note_on_c, 0, 70, 78
1, 447942, Note_off_c, 0, 62, 59
1, 447954, Control_c, 0, 64, 67
1, 447974, Note_on_c, 0, 58, 68
1, 447984, Control_c, 0, 64, 68
1, 447984, Control_c, 0, 67, 42
1, 447984, Note_off_c, 0, 70, 66
1, 447990, Note_on_c, 0, 68, 82
1, 447994, Note_off_c, 0, 58, 69
1, 447998, Control_c, 0, 67, 42
1, 448011, Note_off_c, 0, 68, 68
1, 448013, Note_on_c, 0, 62, 66
1, 448028, Control_c, 0, 64, 67
1, 448040, Note_off_c, 0, 62, 65
1, 448043, Control_c, 0, 64, 67
1, 448043, Control_c, 0, 67, 41
1, 448057, Control_c, 0, 67, 41
1, 448077, Note_on_c, 0, 77, 84
1, 448087, Control_c, 0, 64, 66
1, 448089, Note_on_c, 0, 62, 76
1, 448117, Control_c, 0, 64, 67
1, 448126, Note_off_c, 0, 62, 60
1, 448131, Control_c, 0, 64, 68
1, 448131, Control_c, 0, 67, 41
1, 448133, Note_on_c, 0, 74, 81
1, 448133, Note_off_c, 0, 77, 64
1, 448146, Control_c, 0, 64, 68
1, 448155, Note_on_c, 0, 65, 71
1, 448184, Note_off_c, 0, 65, 64
1, 448191, Control_c, 0, 64, 69
1, 448201, Note_off_c, 0, 74, 64
1, 448203, Note_on_c, 0, 77, 84
1, 448206, Note_on_c, 0, 62, 72
1, 448220, Control_c, 0, 64, 69
1, 448220, Control_c, 0, 67, 41
1, 448235, Control_c, 0, 64, 70
1, 448249, Control_c, 0, 67, 40
1, 448258, Note_off_c, 0, 62, 55
1, 448261, Note_on_c, 0, 80, 75
1, 448261, Note_off_c, 0, 77, 64
1, 448264, Control_c, 0, 64, 70
1, 448279, Control_c, 0, 64, 71
1, 448281, Note_on_c, 0, 65, 75
1, 448309, Note_off_c, 0, 65, 61
1, 448309, Control_c, 0, 67, 40
1, 448322, Note_on_c, 0, 77, 80
1, 448323, Control_c, 0, 67, 39
1, 448329, Note_off_c, 0, 80, 64
1, 448338, Control_c, 0, 64, 71
1, 448342, Note_on_c, 0, 62, 64
1, 448353, Control_c, 0, 64, 72
1, 448368, Control_c, 0, 64, 74
1, 448368, Control_c, 0, 67, 39
1, 448370, Note_off_c, 0, 77, 62
1, 448376, Note_off_c, 0, 62, 64
1, 448377, Note_on_c, 0, 65, 63
1, 448383, Control_c, 0, 64, 74
1, 448386, Note_on_c, 0, 74, 77
1, 448398, Control_c, 0, 64, 73
1, 448401, Note_off_c, 0, 65, 68
1, 448412, Note_off_c, 0, 74, 66
1, 448413, Control_c, 0, 64, 69
1, 448428, Control_c, 0, 64, 67
1, 448442, Control_c, 0, 64, 68
1, 448452, Note_on_c, 0, 65, 75
1, 448455, Note_on_c, 0, 80, 81
1, 448457, Control_c, 0, 64, 71
1, 448479, Control_c, 0, 64, 74
1, 448495, Control_c, 0, 64, 77
1, 448510, Control_c, 0, 64, 78
1, 448518, Note_off_c, 0, 80, 64
1, 448519, Note_off_c, 0, 65, 59
1, 448524, Note_on_c, 0, 77, 82
1, 448525, Control_c, 0, 67, 39
1, 448528, Note_on_c, 0, 68, 69
1, 448553, Note_off_c, 0, 68, 66
1, 448554, Control_c, 0, 64, 78
1, 448569, Control_c, 0, 64, 79
1, 448581, Note_off_c, 0, 77, 63
1, 448584, Control_c, 0, 64, 80
1, 448587, Note_on_c, 0, 65, 51
1, 448595, Note_on_c, 0, 80, 80
1, 448599, Control_c, 0, 64, 79
1, 448624, Note_off_c, 0, 65, 64
1, 448651, Note_on_c, 0, 82, 89
1, 448651, Note_off_c, 0, 80, 64
1, 448652, Note_on_c, 0, 68, 65
1, 448692, Note_off_c, 0, 68, 62
1, 448702, Control_c, 0, 67, 39
1, 448703, Note_on_c, 0, 65, 57
1, 448713, Note_on_c, 0, 80, 83
1, 448718, Note_off_c, 0, 82, 66
1, 448732, Control_c, 0, 64, 80
1, 448732, Control_c, 0, 67, 38
1, 448737, Note_off_c, 0, 65, 66
1, 448747, Control_c, 0, 64, 81
1, 448747, Control_c, 0, 67, 38
1, 448753, Note_on_c, 0, 68, 71
1, 448762, Control_c, 0, 64, 83
1, 448763, Note_off_c, 0, 80, 65
1, 448765, Note_on_c, 0, 77, 82
1, 448771, Note_off_c, 0, 68, 71
1, 448777, Control_c, 0, 64, 84
1, 448791, Control_c, 0, 64, 82
1, 448806, Note_off_c, 0, 77, 62
1, 448806, Control_c, 0, 64, 79
1, 448821, Control_c, 0, 64, 77
1, 448821, Control_c, 0, 67, 37
1, 448836, Control_c, 0, 64, 78
1, 448836, Control_c, 0, 67, 36
1, 448847, Note_on_c, 0, 82, 93
1, 448851, Control_c, 0, 64, 80
1, 448851, Control_c, 0, 67, 35
1, 448853, Note_on_c, 0, 74, 75
1, 448866, Control_c, 0, 64, 83
1, 448866, Control_c, 0, 67, 33
1, 448880, Control_c, 0, 64, 83
1, 448880, Control_c, 0, 67, 32
1, 448895, Control_c, 0, 67, 29
1, 448896, Note_off_c, 0, 74, 63
1, 448910, Note_off_c, 0, 82, 65
1, 448910, Control_c, 0, 67, 26
1, 448912, Note_on_c, 0, 80, 84
1, 448915, Note_on_c, 0, 77, 77
1, 448925, Control_c, 0, 67, 19
1, 448940, Control_c, 0, 64, 84
1, 448940, Control_c, 0, 67, 10
1, 448954, Control_c, 0, 64, 84
1, 448954, Control_c, 0, 67, 0
1, 448958, Note_off_c, 0, 77, 58
1, 448969, Note_on_c, 0, 74, 76
1, 448972, Note_off_c, 0, 80, 62
1, 448979, Note_on_c, 0, 82, 90
1, 449027, Note_off_c, 0, 74, 65
1, 449036, Note_on_c, 0, 86, 77
1, 449036, Note_off_c, 0, 82, 64
1, 449043, Note_on_c, 0, 77, 83
1, 449093, Note_off_c, 0, 77, 64
1, 449095, Note_on_c, 0, 82, 87
1, 449102, Control_c, 0, 64, 85
1, 449106, Note_off_c, 0, 86, 63
1, 449116, Note_on_c, 0, 74, 73
1, 449117, Control_c, 0, 64, 85
1, 449132, Control_c, 0, 64, 87
1, 449146, Control_c, 0, 64, 90
1, 449149, Note_off_c, 0, 82, 66
1, 449157, Note_on_c, 0, 80, 87
1, 449161, Control_c, 0, 64, 91
1, 449165, Note_off_c, 0, 74, 65
1, 449167, Note_on_c, 0, 77, 76
1, 449176, Control_c, 0, 64, 88
1, 449191, Control_c, 0, 64, 84
1, 449201, Note_off_c, 0, 80, 61
1, 449202, Note_off_c, 0, 77, 63
1, 449206, Control_c, 0, 64, 80
1, 449233, Note_on_c, 0, 86, 88
1, 449243, Note_on_c, 0, 77, 64
1, 449243, Control_c, 0, 64, 83
1, 449258, Control_c, 0, 64, 87
1, 449272, Control_c, 0, 64, 88
1, 449287, Note_off_c, 0, 86, 65
1, 449287, Control_c, 0, 64, 88
1, 449307, Note_on_c, 0, 82, 89
1, 449313, Note_on_c, 0, 80, 80
1, 449313, Note_off_c, 0, 77, 63
1, 449364, Note_off_c, 0, 80, 60
1, 449373, Note_on_c, 0, 77, 74
1, 449373, Note_off_c, 0, 82, 62
1, 449374, Note_on_c, 0, 86, 84
1, 449427, Note_on_c, 0, 89, 79
1, 449429, Note_off_c, 0, 77, 63
1, 449431, Note_off_c, 0, 86, 66
1, 449444, Note_on_c, 0, 80, 79
1, 449492, Note_off_c, 0, 80, 63
1, 449492, Note_on_c, 0, 86, 81
1, 449501, Note_off_c, 0, 89, 62
1, 449507, Note_on_c, 0, 77, 77
1, 449511, Control_c, 0, 64, 88
1, 449526, Control_c, 0, 64, 89
1, 449541, Control_c, 0, 64, 90
1, 449546, Note_on_c, 0, 82, 85
1, 449547, Note_off_c, 0, 86, 66
1, 449556, Control_c, 0, 64, 91
1, 449559, Note_on_c, 0, 80, 79
1, 449564, Note_off_c, 0, 77, 65
1, 449570, Control_c, 0, 64, 90
1, 449574, Note_off_c, 0, 82, 66
1, 449577, Note_off_c, 0, 80, 71
1, 449585, Control_c, 0, 64, 87
1, 449600, Control_c, 0, 64, 85
1, 449624, Note_on_c, 0, 89, 102
1, 449630, Control_c, 0, 64, 86
1, 449644, Control_c, 0, 64, 89
1, 449659, Control_c, 0, 64, 89
1, 449674, Control_c, 0, 64, 89
1, 449680, Note_off_c, 0, 89, 58
1, 449683, Note_on_c, 0, 86, 90
1, 449704, Control_c, 0, 64, 89
1, 449719, Control_c, 0, 64, 90
1, 449733, Control_c, 0, 64, 90
1, 449756, Note_on_c, 0, 89, 96
1, 449763, Control_c, 0, 64, 89
1, 449767, Note_off_c, 0, 86, 66
1, 449778, Control_c, 0, 64, 86
1, 449793, Control_c, 0, 64, 82
1, 449793, Control_c, 0, 67, 8
1, 449804, Note_on_c, 0, 92, 90
1, 449808, Control_c, 0, 64, 77
1, 449808, Control_c, 0, 67, 10
1, 449810, Note_off_c, 0, 89, 65
1, 449822, Control_c, 0, 64, 75
1, 449822, Control_c, 0, 67, 12
1, 449837, Control_c, 0, 64, 80
1, 449837, Control_c, 0, 67, 13
1, 449852, Control_c, 0, 64, 86
1, 449852, Control_c, 0, 67, 15
1, 449867, Control_c, 0, 64, 93
1, 449867, Control_c, 0, 67, 15
1, 449871, Note_on_c, 0, 80, 91
1, 449874, Note_on_c, 0, 77, 87
1, 449874, Note_on_c, 0, 89, 95
1, 449882, Control_c, 0, 64, 100
1, 449896, Control_c, 0, 64, 104
1, 449896, Control_c, 0, 67, 15
1, 449911, Note_off_c, 0, 92, 65
1, 449911, Control_c, 0, 64, 104
1, 449911, Control_c, 0, 67, 14
1, 449926, Control_c, 0, 67, 13
1, 449933, Note_off_c, 0, 77, 61
1, 449936, Note_off_c, 0, 80, 65
1, 449941, Note_on_c, 0, 86, 89
1, 449941, Control_c, 0, 67, 12
1, 449943, Note_off_c, 0, 89, 63
1, 449956, Control_c, 0, 64, 102
1, 449956, Control_c, 0, 67, 10
1, 449978, Control_c, 0, 64, 99
1, 449978, Control_c, 0, 67, 9
1, 449991, Note_off_c, 0, 86, 67
1, 449993, Control_c, 0, 64, 94
1, 449993, Control_c, 0, 67, 8
1, 450008, Control_c, 0, 64, 86
1, 450008, Control_c, 0, 67, 0
1, 450022, Control_c, 0, 64, 74
1, 450030, Note_on_c, 0, 77, 100
1, 450032, Note_on_c, 0, 74, 91
1, 450037, Control_c, 0, 64, 60
1, 450038, Note_on_c, 0, 82, 89
1, 450052, Control_c, 0, 64, 0
1, 450106, Note_on_c, 0, 81, 93
1, 450109, Note_off_c, 0, 82, 65
1, 450112, Control_c, 0, 64, 45
1, 450127, Control_c, 0, 64, 62
1, 450142, Control_c, 0, 64, 66
1, 450157, Control_c, 0, 64, 70
1, 450172, Control_c, 0, 64, 74
1, 450179, Note_on_c, 0, 82, 89
1, 450182, Note_off_c, 0, 81, 65
1, 450187, Control_c, 0, 64, 78
1, 450201, Control_c, 0, 64, 80
1, 450216, Control_c, 0, 64, 83
1, 450228, Note_on_c, 0, 86, 77
1, 450231, Control_c, 0, 64, 86
1, 450245, Control_c, 0, 64, 89
1, 450249, Note_off_c, 0, 82, 64
1, 450283, Note_off_c, 0, 77, 63
1, 450291, Note_on_c, 0, 89, 94
1, 450293, Note_off_c, 0, 74, 68
1, 450305, Control_c, 0, 64, 90
1, 450306, Note_off_c, 0, 86, 67
1, 450319, Control_c, 0, 64, 91
1, 450334, Control_c, 0, 64, 92
1, 450336, Note_off_c, 0, 89, 62
1, 450361, Note_on_c, 0, 86, 85
1, 450393, Control_c, 0, 64, 91
1, 450408, Control_c, 0, 64, 88
1, 450417, Note_off_c, 0, 86, 62
1, 450421, Note_on_c, 0, 89, 105
1, 450423, Control_c, 0, 64, 82
1, 450437, Control_c, 0, 64, 78
1, 450467, Control_c, 0, 64, 79
1, 450482, Control_c, 0, 64, 81
1, 450488, Note_off_c, 0, 89, 65
1, 450494, Note_on_c, 0, 86, 92
1, 450497, Control_c, 0, 64, 83
1, 450541, Control_c, 0, 64, 82
1, 450558, Note_on_c, 0, 89, 92
1, 450567, Note_off_c, 0, 86, 64
1, 450586, Control_c, 0, 64, 83
1, 450601, Control_c, 0, 64, 83
1, 450616, Control_c, 0, 64, 83
1, 450616, Note_on_c, 0, 92, 85
1, 450618, Note_off_c, 0, 89, 64
1, 450645, Control_c, 0, 64, 82
1, 450675, Control_c, 0, 64, 82
1, 450678, Note_on_c, 0, 89, 85
1, 450679, Note_on_c, 0, 77, 82
1, 450681, Note_on_c, 0, 80, 86
1, 450690, Control_c, 0, 64, 79
1, 450702, Note_off_c, 0, 92, 66
1, 450705, Control_c, 0, 64, 76
1, 450726, Control_c, 0, 64, 74
1, 450741, Control_c, 0, 64, 73
1, 450744, Note_off_c, 0, 77, 61
1, 450747, Note_off_c, 0, 80, 63
1, 450748, Note_on_c, 0, 86, 80
1, 450748, Note_off_c, 0, 89, 63
1, 450756, Control_c, 0, 64, 74
1, 450786, Control_c, 0, 64, 73
1, 450787, Note_off_c, 0, 86, 61
1, 450801, Control_c, 0, 64, 72
1, 450816, Control_c, 0, 64, 70
1, 450830, Control_c, 0, 64, 67
1, 450836, Note_on_c, 0, 82, 88
1, 450841, Note_on_c, 0, 77, 90
1, 450845, Control_c, 0, 64, 63
1, 450846, Note_on_c, 0, 74, 88
1, 450859, Control_c, 0, 64, 49
1, 450874, Control_c, 0, 64, 19
1, 450889, Control_c, 0, 64, 0
1, 450896, Note_off_c, 0, 82, 64
1, 450905, Note_on_c, 0, 81, 82
1, 450920, Control_c, 0, 64, 36
1, 450935, Control_c, 0, 64, 57
1, 450949, Control_c, 0, 64, 64
1, 450963, Note_off_c, 0, 81, 62
1, 450964, Control_c, 0, 64, 70
1, 450968, Note_on_c, 0, 82, 89
1, 450979, Control_c, 0, 64, 77
1, 450994, Control_c, 0, 64, 85
1, 451009, Control_c, 0, 64, 93
1, 451021, Note_off_c, 0, 77, 65
1, 451023, Control_c, 0, 64, 98
1, 451027, Note_on_c, 0, 86, 83
1, 451037, Note_off_c, 0, 82, 64
1, 451038, Control_c, 0, 64, 99
1, 451039, Note_off_c, 0, 74, 68
1, 451053, Control_c, 0, 64, 99
1, 451067, Control_c, 0, 64, 100
1, 451090, Note_on_c, 0, 89, 86
1, 451091, Note_off_c, 0, 86, 66
1, 451141, Control_c, 0, 64, 99
1, 451149, Note_on_c, 0, 86, 80
1, 451169, Note_off_c, 0, 89, 62
1, 451193, Note_off_c, 0, 86, 62
1, 451240, Note_on_c, 0, 77, 92
1, 451245, Control_c, 0, 64, 99
1, 451260, Control_c, 0, 64, 94
1, 451275, Control_c, 0, 64, 87
1, 451289, Control_c, 0, 64, 79
1, 451297, Note_off_c, 0, 77, 64
1, 451302, Note_on_c, 0, 74, 81
1, 451304, Control_c, 0, 64, 72
1, 451319, Control_c, 0, 64, 67
1, 451334, Control_c, 0, 64, 67
1, 451349, Control_c, 0, 64, 67
1, 451366, Note_on_c, 0, 77, 90
1, 451375, Note_off_c, 0, 74, 64
1, 451379, Control_c, 0, 64, 69
1, 451394, Control_c, 0, 64, 73
1, 451408, Control_c, 0, 64, 78
1, 451422, Note_on_c, 0, 80, 85
1, 451423, Control_c, 0, 64, 83
1, 451430, Note_off_c, 0, 77, 64
1, 451438, Control_c, 0, 64, 88
1, 451453, Control_c, 0, 64, 90
1, 451474, Control_c, 0, 64, 92
1, 451504, Note_on_c, 0, 77, 94
1, 451505, Note_on_c, 0, 65, 78
1, 451507, Note_on_c, 0, 68, 82
1, 451539, Note_off_c, 0, 80, 64
1, 451556, Note_off_c, 0, 65, 62
1, 451556, Note_off_c, 0, 68, 63
1, 451562, Note_off_c, 0, 77, 63
1, 451565, Note_on_c, 0, 74, 88
1, 451579, Control_c, 0, 64, 91
1, 451593, Control_c, 0, 64, 90
1, 451608, Control_c, 0, 64, 89
1, 451612, Note_off_c, 0, 74, 67
1, 451623, Control_c, 0, 64, 87
1, 451638, Control_c, 0, 64, 84
1, 451653, Control_c, 0, 64, 80
1, 451654, Note_on_c, 0, 70, 86
1, 451660, Note_on_c, 0, 65, 92
1, 451664, Note_on_c, 0, 62, 83
1, 451667, Control_c, 0, 64, 73
1, 451682, Control_c, 0, 64, 62
1, 451698, Control_c, 0, 64, 0
1, 451713, Control_c, 0, 67, 8
1, 451722, Note_on_c, 0, 69, 85
1, 451722, Note_off_c, 0, 70, 64
1, 451728, Control_c, 0, 67, 8
1, 451743, Control_c, 0, 67, 8
1, 451757, Control_c, 0, 64, 17
1, 451772, Control_c, 0, 64, 55
1, 451787, Control_c, 0, 64, 65
1, 451787, Control_c, 0, 67, 0
1, 451793, Note_on_c, 0, 70, 80
1, 451799, Note_off_c, 0, 69, 63
1, 451802, Control_c, 0, 64, 71
1, 451817, Control_c, 0, 64, 76
1, 451832, Control_c, 0, 64, 80
1, 451844, Note_on_c, 0, 74, 84
1, 451846, Control_c, 0, 64, 82
1, 451861, Control_c, 0, 64, 84
1, 451868, Note_off_c, 0, 70, 63
1, 451898, Note_off_c, 0, 65, 63
1, 451907, Note_off_c, 0, 62, 63
1, 451915, Note_on_c, 0, 77, 89
1, 451925, Note_off_c, 0, 74, 68
1, 451962, Note_off_c, 0, 77, 63
1, 451979, Control_c, 0, 67, 8
1, 451983, Note_on_c, 0, 74, 87
1, 452042, Note_off_c, 0, 74, 57
1, 452052, Note_on_c, 0, 77, 98
1, 452053, Control_c, 0, 64, 83
1, 452068, Control_c, 0, 64, 79
1, 452083, Control_c, 0, 64, 70
1, 452097, Control_c, 0, 64, 57
1, 452109, Note_off_c, 0, 77, 56
1, 452112, Control_c, 0, 64, 45
1, 452127, Control_c, 0, 64, 57
1, 452130, Note_on_c, 0, 74, 91
1, 452142, Control_c, 0, 64, 64
1, 452142, Control_c, 0, 67, 0
1, 452157, Control_c, 0, 64, 68
1, 452172, Control_c, 0, 64, 71
1, 452187, Control_c, 0, 64, 75
1, 452195, Note_on_c, 0, 77, 87
1, 452198, Note_off_c, 0, 74, 63
1, 452202, Control_c, 0, 64, 80
1, 452223, Control_c, 0, 64, 82
1, 452249, Note_on_c, 0, 80, 80
1, 452256, Note_off_c, 0, 77, 64
1, 452268, Control_c, 0, 64, 82
1, 452322, Note_on_c, 0, 77, 88
1, 452330, Note_on_c, 0, 68, 79
1, 452333, Note_on_c, 0, 65, 66
1, 452342, Control_c, 0, 64, 81
1, 452344, Note_off_c, 0, 80, 63
1, 452371, Note_off_c, 0, 65, 57
1, 452371, Note_off_c, 0, 77, 64
1, 452378, Note_on_c, 0, 74, 86
1, 452395, Note_off_c, 0, 68, 62
1, 452401, Control_c, 0, 64, 82
1, 452425, Note_off_c, 0, 74, 62
1, 452431, Control_c, 0, 64, 80
1, 452446, Control_c, 0, 64, 74
1, 452461, Control_c, 0, 64, 63
1, 452461, Note_on_c, 0, 70, 86
1, 452476, Control_c, 0, 64, 0
1, 452484, Note_on_c, 0, 65, 85
1, 452489, Note_on_c, 0, 62, 85
1, 452491, Control_c, 0, 64, 39
1, 452506, Control_c, 0, 64, 63
1, 452521, Control_c, 0, 64, 70
1, 452523, Note_off_c, 0, 70, 64
1, 452531, Note_on_c, 0, 69, 88
1, 452535, Note_off_c, 0, 65, 66
1, 452535, Control_c, 0, 64, 78
1, 452545, Note_off_c, 0, 62, 64
1, 452550, Control_c, 0, 64, 90
1, 452565, Control_c, 0, 64, 103
1, 452580, Control_c, 0, 64, 115
1, 452592, Note_on_c, 0, 70, 84
1, 452595, Control_c, 0, 64, 127
1, 452603, Note_off_c, 0, 69, 62
1, 452646, Note_on_c, 0, 74, 87
1, 452664, Note_off_c, 0, 70, 63
1, 452703, Note_off_c, 0, 74, 64
1, 452725, Note_on_c, 0, 77, 93
1, 452790, Note_on_c, 0, 74, 90
1, 452815, Note_off_c, 0, 77, 64
1, 452825, Note_off_c, 0, 74, 65
1, 452935, Control_c, 0, 64, 107
1, 452950, Control_c, 0, 64, 80
1, 452973, Control_c, 0, 64, 65
1, 452980, Note_on_c, 0, 68, 96
1, 452983, Note_on_c, 0, 77, 95
1, 452985, Note_on_c, 0, 80, 82
1, 452987, Note_on_c, 0, 74, 90
1, 452988, Control_c, 0, 64, 68
1, 452991, Note_on_c, 0, 58, 90
1, 452992, Note_on_c, 0, 46, 89
1, 452998, Note_on_c, 0, 50, 81
1, 452999, Note_on_c, 0, 53, 88
1, 453001, Note_off_c, 0, 80, 73
1, 453002, Control_c, 0, 64, 79
1, 453010, Note_off_c, 0, 74, 68
1, 453012, Note_off_c, 0, 77, 66
1, 453015, Note_off_c, 0, 68, 64
1, 453017, Control_c, 0, 64, 95
1, 453027, Note_on_c, 0, 73, 36
1, 453028, Note_off_c, 0, 73, 127
1, 453032, Control_c, 0, 64, 106
1, 453033, Note_off_c, 0, 58, 66
1, 453039, Note_off_c, 0, 53, 68
1, 453040, Note_off_c, 0, 46, 64
1, 453043, Note_off_c, 0, 50, 66
1, 453061, Control_c, 0, 64, 105
1, 453076, Control_c, 0, 64, 101
1, 453091, Control_c, 0, 64, 98
1, 453121, Control_c, 0, 64, 98
1, 453136, Control_c, 0, 64, 99
1, 453151, Control_c, 0, 64, 100
1, 453195, Control_c, 0, 64, 99
1, 453237, Note_on_c, 0, 46, 77
1, 453260, Note_on_c, 0, 58, 70
1, 453269, Control_c, 0, 64, 99
1, 453277, Note_on_c, 0, 57, 65
1, 453285, Control_c, 0, 64, 97
1, 453289, Note_off_c, 0, 46, 59
1, 453300, Control_c, 0, 64, 96
1, 453304, Note_off_c, 0, 57, 0
1, 453313, Note_off_c, 0, 58, 42
1, 453315, Control_c, 0, 64, 94
1, 453321, Note_on_c, 0, 57, 69
1, 453330, Control_c, 0, 64, 93
1, 453370, Note_off_c, 0, 57, 63
1, 453394, Note_on_c, 0, 46, 79
1, 453400, Note_on_c, 0, 58, 84
1, 453467, Note_on_c, 0, 57, 80
1, 453469, Note_off_c, 0, 46, 58
1, 453477, Control_c, 0, 64, 91
1, 453480, Note_off_c, 0, 58, 57
1, 453492, Control_c, 0, 64, 81
1, 453507, Control_c, 0, 64, 66
1, 453522, Control_c, 0, 64, 0
1, 453531, Note_on_c, 0, 60, 77
1, 453533, Note_on_c, 0, 50, 86
1, 453542, Note_off_c, 0, 57, 58
1, 453552, Control_c, 0, 64, 48
1, 453567, Control_c, 0, 64, 63
1, 453582, Control_c, 0, 64, 68
1, 453588, Note_off_c, 0, 60, 64
1, 453597, Control_c, 0, 64, 73
1, 453602, Note_off_c, 0, 50, 67
1, 453604, Note_on_c, 0, 58, 82
1, 453611, Control_c, 0, 64, 76
1, 453641, Control_c, 0, 64, 74
1, 453656, Control_c, 0, 64, 71
1, 453660, Note_off_c, 0, 58, 64
1, 453665, Note_on_c, 0, 63, 79
1, 453670, Control_c, 0, 64, 69
1, 453675, Note_on_c, 0, 53, 68
1, 453685, Control_c, 0, 64, 70
1, 453700, Control_c, 0, 64, 71
1, 453716, Note_off_c, 0, 63, 64
1, 453722, Control_c, 0, 64, 72
1, 453751, Note_on_c, 0, 62, 77
1, 453752, Note_off_c, 0, 53, 66
1, 453752, Control_c, 0, 64, 71
1, 453767, Control_c, 0, 64, 68
1, 453782, Control_c, 0, 64, 62
1, 453796, Control_c, 0, 64, 0
1, 453811, Note_on_c, 0, 58, 74
1, 453818, Note_on_c, 0, 67, 83
1, 453829, Note_off_c, 0, 62, 57
1, 453841, Control_c, 0, 64, 27
1, 453856, Control_c, 0, 64, 57
1, 453856, Note_off_c, 0, 58, 62
1, 453870, Control_c, 0, 64, 65
1, 453873, Note_off_c, 0, 67, 63
1, 453875, Note_on_c, 0, 65, 85
1, 453885, Control_c, 0, 64, 69
1, 453900, Control_c, 0, 64, 70
1, 453915, Control_c, 0, 64, 68
1, 453930, Control_c, 0, 64, 66
1, 453939, Note_on_c, 0, 62, 86
1, 453942, Note_off_c, 0, 65, 62
1, 453945, Note_on_c, 0, 70, 86
1, 453959, Control_c, 0, 64, 67
1, 453974, Control_c, 0, 64, 66
1, 453988, Control_c, 0, 64, 61
1, 454000, Note_off_c, 0, 62, 62
1, 454003, Note_off_c, 0, 70, 65
1, 454003, Control_c, 0, 64, 19
1, 454018, Control_c, 0, 64, 0
1, 454024, Note_on_c, 0, 69, 74
1, 454048, Control_c, 0, 64, 50
1, 454053, Note_on_c, 0, 67, 34
1, 454054, Note_off_c, 0, 67, 127
1, 454062, Control_c, 0, 64, 62
1, 454070, Note_on_c, 0, 65, 87
1, 454077, Control_c, 0, 64, 66
1, 454089, Note_on_c, 0, 72, 84
1, 454093, Control_c, 0, 64, 69
1, 454095, Note_off_c, 0, 69, 62
1, 454108, Control_c, 0, 64, 72
1, 454118, Note_off_c, 0, 65, 65
1, 454123, Control_c, 0, 64, 71
1, 454138, Control_c, 0, 64, 69
1, 454142, Note_off_c, 0, 72, 62
1, 454157, Note_on_c, 0, 70, 88
1, 454167, Control_c, 0, 64, 70
1, 454182, Control_c, 0, 64, 71
1, 454197, Control_c, 0, 64, 72
1, 454205, Note_on_c, 0, 68, 92
1, 454211, Control_c, 0, 64, 73
1, 454214, Note_on_c, 0, 75, 84
1, 454226, Control_c, 0, 64, 72
1, 454251, Note_off_c, 0, 70, 64
1, 454252, Note_off_c, 0, 68, 60
1, 454258, Note_off_c, 0, 75, 63
1, 454271, Control_c, 0, 64, 72
1, 454285, Note_on_c, 0, 74, 86
1, 454285, Control_c, 0, 64, 70
1, 454300, Control_c, 0, 64, 70
1, 454315, Control_c, 0, 64, 70
1, 454330, Control_c, 0, 64, 71
1, 454345, Note_on_c, 0, 68, 86
1, 454345, Note_on_c, 0, 70, 81
1, 454357, Note_on_c, 0, 79, 89
1, 454360, Control_c, 0, 64, 70
1, 454366, Note_off_c, 0, 74, 62
1, 454375, Control_c, 0, 64, 70
1, 454387, Note_off_c, 0, 68, 63
1, 454390, Control_c, 0, 64, 68
1, 454394, Note_off_c, 0, 70, 62
1, 454404, Control_c, 0, 64, 67
1, 454407, Note_off_c, 0, 79, 62
1, 454419, Control_c, 0, 64, 67
1, 454425, Note_on_c, 0, 77, 89
1, 454434, Control_c, 0, 64, 68
1, 454449, Control_c, 0, 64, 68
1, 454471, Control_c, 0, 64, 70
1, 454486, Control_c, 0, 64, 70
1, 454494, Note_on_c, 0, 68, 86
1, 454499, Note_on_c, 0, 82, 86
1, 454501, Note_on_c, 0, 70, 76
1, 454506, Note_off_c, 0, 77, 64
1, 454515, Control_c, 0, 64, 71
1, 454530, Control_c, 0, 64, 73
1, 454545, Control_c, 0, 64, 73
1, 454545, Control_c, 0, 67, 8
1, 454548, Note_off_c, 0, 68, 63
1, 454557, Note_off_c, 0, 82, 64
1, 454559, Note_off_c, 0, 70, 59
1, 454560, Control_c, 0, 64, 72
1, 454560, Control_c, 0, 67, 12
1, 454570, Note_on_c, 0, 81, 91
1, 454574, Control_c, 0, 64, 71
1, 454574, Control_c, 0, 67, 17
1, 454589, Control_c, 0, 64, 69
1, 454589, Control_c, 0, 67, 22
1, 454604, Control_c, 0, 64, 68
1, 454604, Control_c, 0, 67, 27
1, 454619, Control_c, 0, 64, 69
1, 454619, Control_c, 0, 67, 30
1, 454634, Control_c, 0, 64, 72
1, 454634, Control_c, 0, 67, 37
1, 454649, Control_c, 0, 64, 76
1, 454649, Control_c, 0, 67, 44
1, 454656, Note_on_c, 0, 84, 90
1, 454664, Control_c, 0, 64, 81
1, 454664, Control_c, 0, 67, 51
1, 454671, Note_off_c, 0, 81, 63
1, 454672, Note_on_c, 0, 68, 75
1, 454679, Control_c, 0, 64, 87
1, 454679, Control_c, 0, 67, 56
1, 454683, Note_on_c, 0, 70, 60
1, 454693, Control_c, 0, 64, 92
1, 454693, Control_c, 0, 67, 60
1, 454708, Control_c, 0, 64, 96
1, 454708, Control_c, 0, 67, 66
1, 454712, Note_off_c, 0, 70, 62
1, 454720, Note_off_c, 0, 68, 62
1, 454723, Control_c, 0, 64, 96
1, 454723, Control_c, 0, 67, 72
1, 454738, Control_c, 0, 67, 80
1, 454747, Note_on_c, 0, 82, 100
1, 454753, Control_c, 0, 64, 96
1, 454753, Control_c, 0, 67, 87
1, 454767, Control_c, 0, 67, 95
1, 454768, Note_off_c, 0, 84, 64
1, 454782, Control_c, 0, 67, 104
1, 454797, Control_c, 0, 67, 111
1, 454809, Note_off_c, 0, 82, 64
1, 454811, Control_c, 0, 64, 95
1, 454811, Control_c, 0, 67, 116
1, 454826, Control_c, 0, 64, 91
1, 454826, Control_c, 0, 67, 120
1, 454841, Control_c, 0, 64, 86
1, 454841, Control_c, 0, 67, 124
1, 454856, Control_c, 0, 64, 80
1, 454856, Control_c, 0, 67, 126
1, 454871, Control_c, 0, 64, 75
1, 454871, Control_c, 0, 67, 127
1, 454887, Control_c, 0, 64, 70
1, 454902, Control_c, 0, 64, 67
1, 454916, Control_c, 0, 64, 64
1, 454931, Control_c, 0, 64, 60
1, 454946, Control_c, 0, 64, 41
1, 454961, Control_c, 0, 64, 0
1, 455016, Note_on_c, 0, 82, 72
1, 455049, Note_on_c, 0, 70, 33
1, 455054, Note_on_c, 0, 63, 36
1, 455067, Note_on_c, 0, 67, 36
1, 455079, Control_c, 0, 64, 50
1, 455094, Control_c, 0, 64, 64
1, 455108, Control_c, 0, 64, 69
1, 455123, Control_c, 0, 64, 73
1, 455123, Control_c, 0, 67, 127
1, 455129, Note_off_c, 0, 70, 59
1, 455138, Control_c, 0, 64, 76
1, 455138, Control_c, 0, 67, 126
1, 455139, Note_off_c, 0, 67, 60
1, 455150, Note_off_c, 0, 63, 58
1, 455153, Control_c, 0, 64, 78
1, 455153, Control_c, 0, 67, 126
1, 455183, Control_c, 0, 64, 77
1, 455183, Control_c, 0, 67, 125
1, 455184, Note_on_c, 0, 79, 64
1, 455197, Control_c, 0, 64, 76
1, 455197, Control_c, 0, 67, 125
1, 455220, Control_c, 0, 64, 74
1, 455224, Note_off_c, 0, 82, 38
1, 455234, Control_c, 0, 64, 73
1, 455234, Control_c, 0, 67, 124
1, 455249, Control_c, 0, 64, 72
1, 455264, Control_c, 0, 64, 71
1, 455264, Control_c, 0, 67, 123
1, 455279, Control_c, 0, 64, 69
1, 455279, Control_c, 0, 67, 123
1, 455294, Control_c, 0, 64, 66
1, 455294, Control_c, 0, 67, 122
1, 455308, Control_c, 0, 64, 61
1, 455323, Control_c, 0, 64, 42
1, 455338, Control_c, 0, 64, 0
1, 455341, Note_on_c, 0, 75, 72
1, 455388, Note_off_c, 0, 79, 53
1, 455456, Control_c, 0, 67, 122
1, 455471, Control_c, 0, 67, 121
1, 455486, Control_c, 0, 64, 29
1, 455495, Note_on_c, 0, 74, 74
1, 455498, Note_on_c, 0, 70, 32
1, 455501, Control_c, 0, 64, 56
1, 455504, Note_on_c, 0, 65, 28
1, 455509, Note_off_c, 0, 75, 55
1, 455513, Note_on_c, 0, 58, 28
1, 455515, Note_on_c, 0, 68, 43
1, 455515, Control_c, 0, 64, 65
1, 455530, Control_c, 0, 64, 72
1, 455545, Control_c, 0, 64, 77
1, 455545, Control_c, 0, 67, 121
1, 455555, Note_off_c, 0, 58, 55
1, 455560, Control_c, 0, 64, 80
1, 455564, Note_off_c, 0, 70, 62
1, 455567, Note_off_c, 0, 68, 62
1, 455574, Note_off_c, 0, 65, 62
1, 455575, Control_c, 0, 64, 80
1, 455604, Control_c, 0, 64, 79
1, 455641, Note_off_c, 0, 74, 60
1, 455646, Note_on_c, 0, 77, 70
1, 455663, Control_c, 0, 64, 79
1, 455678, Control_c, 0, 64, 78
1, 455694, Control_c, 0, 64, 77
1, 455724, Control_c, 0, 64, 76
1, 455738, Control_c, 0, 64, 74
1, 455753, Control_c, 0, 64, 71
1, 455768, Control_c, 0, 64, 67
1, 455783, Control_c, 0, 64, 65
1, 455790, Note_on_c, 0, 82, 80
1, 455798, Control_c, 0, 64, 64
1, 455808, Note_off_c, 0, 77, 60
1, 455812, Control_c, 0, 64, 63
1, 455812, Control_c, 0, 67, 120
1, 455827, Control_c, 0, 64, 59
1, 455842, Control_c, 0, 64, 45
1, 455856, Control_c, 0, 64, 0
1, 455868, Note_off_c, 0, 82, 64
1, 455964, Note_on_c, 0, 82, 69
1, 455990, Note_on_c, 0, 70, 36
1, 455994, Note_on_c, 0, 63, 44
1, 455996, Note_on_c, 0, 67, 41
1, 456027, Control_c, 0, 64, 40
1, 456042, Control_c, 0, 64, 58
1, 456056, Control_c, 0, 64, 64
1, 456071, Control_c, 0, 64, 67
1, 456086, Control_c, 0, 64, 70
1, 456102, Control_c, 0, 64, 73
1, 456113, Note_off_c, 0, 70, 51
1, 456117, Note_off_c, 0, 67, 62
1, 456117, Control_c, 0, 64, 74
1, 456119, Note_on_c, 0, 79, 70
1, 456126, Note_off_c, 0, 63, 61
1, 456163, Note_off_c, 0, 82, 57
1, 456176, Control_c, 0, 64, 75
1, 456235, Control_c, 0, 64, 74
1, 456259, Note_off_c, 0, 79, 61
1, 456270, Note_on_c, 0, 75, 74
1, 456280, Control_c, 0, 64, 74
1, 456294, Control_c, 0, 64, 73
1, 456309, Control_c, 0, 64, 73
1, 456309, Control_c, 0, 67, 120
1, 456324, Control_c, 0, 67, 119
1, 456327, Note_off_c, 0, 75, 56
1, 456354, Control_c, 0, 64, 72
1, 456354, Control_c, 0, 67, 119
1, 456369, Control_c, 0, 64, 71
1, 456383, Control_c, 0, 64, 70
1, 456398, Control_c, 0, 64, 70
1, 456413, Control_c, 0, 67, 118
1, 456427, Note_on_c, 0, 75, 75
1, 456457, Control_c, 0, 64, 69
1, 456472, Control_c, 0, 64, 69
1, 456488, Control_c, 0, 67, 118
1, 456503, Control_c, 0, 67, 117
1, 456518, Control_c, 0, 64, 68
1, 456533, Control_c, 0, 64, 68
1, 456548, Control_c, 0, 64, 67
1, 456559, Note_off_c, 0, 75, 60
1, 456562, Control_c, 0, 64, 67
1, 456576, Note_on_c, 0, 79, 81
1, 456577, Control_c, 0, 64, 67
1, 456592, Control_c, 0, 67, 117
1, 456636, Control_c, 0, 64, 67
1, 456651, Control_c, 0, 67, 117
1, 456666, Control_c, 0, 64, 67
1, 456680, Control_c, 0, 64, 67
1, 456680, Control_c, 0, 67, 118
1, 456695, Control_c, 0, 64, 66
1, 456695, Control_c, 0, 67, 118
1, 456718, Control_c, 0, 64, 65
1, 456718, Control_c, 0, 67, 119
1, 456722, Note_on_c, 0, 72, 54
1, 456726, Note_on_c, 0, 70, 48
1, 456727, Note_on_c, 0, 84, 85
1, 456733, Note_on_c, 0, 64, 48
1, 456733, Control_c, 0, 64, 64
1, 456733, Control_c, 0, 67, 119
1, 456742, Note_on_c, 0, 67, 35
1, 456748, Control_c, 0, 67, 120
1, 456762, Control_c, 0, 64, 65
1, 456762, Control_c, 0, 67, 120
1, 456762, Note_off_c, 0, 72, 49
1, 456764, Note_off_c, 0, 70, 63
1, 456770, Note_off_c, 0, 79, 61
1, 456773, Note_off_c, 0, 67, 55
1, 456777, Control_c, 0, 64, 66
1, 456777, Control_c, 0, 67, 121
1, 456786, Note_off_c, 0, 64, 58
1, 456792, Control_c, 0, 64, 69
1, 456807, Control_c, 0, 64, 72
1, 456821, Control_c, 0, 64, 74
1, 456829, Note_off_c, 0, 84, 63
1, 456894, Note_on_c, 0, 84, 73
1, 456894, Control_c, 0, 64, 72
1, 456909, Control_c, 0, 64, 68
1, 456914, Note_on_c, 0, 72, 41
1, 456915, Note_on_c, 0, 65, 53
1, 456922, Note_on_c, 0, 68, 46
1, 456924, Control_c, 0, 64, 65
1, 456939, Control_c, 0, 64, 64
1, 456953, Control_c, 0, 64, 63
1, 456968, Control_c, 0, 64, 65
1, 456983, Control_c, 0, 64, 66
1, 456983, Control_c, 0, 67, 120
1, 456998, Control_c, 0, 64, 67
1, 457013, Control_c, 0, 64, 68
1, 457013, Control_c, 0, 67, 120
1, 457019, Note_off_c, 0, 72, 58
1, 457028, Control_c, 0, 64, 69
1, 457039, Note_off_c, 0, 65, 63
1, 457043, Control_c, 0, 64, 71
1, 457043, Control_c, 0, 67, 119
1, 457052, Note_off_c, 0, 68, 62
1, 457055, Note_on_c, 0, 80, 79
1, 457058, Control_c, 0, 64, 74
1, 457072, Control_c, 0, 64, 75
1, 457087, Control_c, 0, 64, 76
1, 457117, Control_c, 0, 64, 75
1, 457146, Note_off_c, 0, 84, 50
1, 457161, Control_c, 0, 64, 75
1, 457176, Control_c, 0, 64, 74
1, 457191, Control_c, 0, 64, 73
1, 457205, Control_c, 0, 64, 73
1, 457214, Note_on_c, 0, 77, 89
1, 457233, Note_on_c, 0, 78, 29
1, 457234, Note_off_c, 0, 78, 127
1, 457235, Control_c, 0, 64, 72
1, 457250, Control_c, 0, 64, 71
1, 457265, Control_c, 0, 64, 71
1, 457281, Control_c, 0, 64, 70
1, 457296, Control_c, 0, 64, 68
1, 457310, Control_c, 0, 64, 64
1, 457325, Control_c, 0, 64, 46
1, 457325, Control_c, 0, 67, 119
1, 457340, Control_c, 0, 64, 0
1, 457340, Control_c, 0, 67, 118
1, 457341, Note_off_c, 0, 80, 34
1, 457355, Control_c, 0, 67, 117
1, 457360, Note_on_c, 0, 76, 87
1, 457362, Note_on_c, 0, 60, 51
1, 457364, Note_on_c, 0, 72, 58
1, 457370, Control_c, 0, 67, 116
1, 457376, Note_on_c, 0, 70, 50
1, 457382, Note_on_c, 0, 67, 48
1, 457384, Control_c, 0, 67, 116
1, 457396, Note_off_c, 0, 77, 63
1, 457399, Control_c, 0, 67, 114
1, 457414, Control_c, 0, 64, 21
1, 457414, Control_c, 0, 67, 113
1, 457428, Control_c, 0, 64, 47
1, 457428, Control_c, 0, 67, 105
1, 457443, Control_c, 0, 64, 63
1, 457443, Control_c, 0, 67, 95
1, 457447, Note_off_c, 0, 72, 60
1, 457466, Control_c, 0, 64, 67
1, 457466, Control_c, 0, 67, 84
1, 457477, Note_off_c, 0, 60, 61
1, 457481, Control_c, 0, 64, 71
1, 457481, Control_c, 0, 67, 74
1, 457496, Note_off_c, 0, 67, 60
1, 457496, Control_c, 0, 64, 74
1, 457496, Control_c, 0, 67, 69
1, 457505, Note_off_c, 0, 70, 62
1, 457510, Control_c, 0, 64, 76
1, 457510, Control_c, 0, 67, 63
1, 457512, Note_on_c, 0, 79, 90
1, 457525, Control_c, 0, 64, 77
1, 457525, Control_c, 0, 67, 58
1, 457540, Control_c, 0, 64, 77
1, 457540, Control_c, 0, 67, 53
1, 457551, Note_off_c, 0, 76, 62
1, 457555, Control_c, 0, 64, 78
1, 457555, Control_c, 0, 67, 49
1, 457570, Control_c, 0, 67, 45
1, 457584, Control_c, 0, 64, 78
1, 457584, Control_c, 0, 67, 41
1, 457599, Control_c, 0, 67, 38
1, 457613, Control_c, 0, 67, 37
1, 457628, Control_c, 0, 64, 78
1, 457628, Control_c, 0, 67, 36
1, 457642, Control_c, 0, 64, 77
1, 457657, Control_c, 0, 64, 77
1, 457660, Note_on_c, 0, 84, 93
1, 457672, Control_c, 0, 64, 75
1, 457687, Control_c, 0, 64, 74
1, 457702, Control_c, 0, 64, 74
1, 457712, Note_off_c, 0, 79, 59
1, 457731, Control_c, 0, 64, 73
1, 457731, Control_c, 0, 67, 37
1, 457746, Control_c, 0, 64, 72
1, 457746, Control_c, 0, 67, 37
1, 457757, Note_off_c, 0, 84, 65
1, 457761, Control_c, 0, 64, 71
1, 457776, Control_c, 0, 64, 70
1, 457776, Control_c, 0, 67, 38
1, 457791, Control_c, 0, 67, 40
1, 457821, Control_c, 0, 64, 69
1, 457821, Control_c, 0, 67, 40
1, 457827, Note_on_c, 0, 84, 82
1, 457835, Control_c, 0, 64, 67
1, 457841, Note_on_c, 0, 68, 49
1, 457850, Control_c, 0, 64, 64
1, 457850, Control_c, 0, 67, 41
1, 457852, Note_on_c, 0, 65, 41
1, 457857, Note_on_c, 0, 72, 30
1, 457865, Control_c, 0, 64, 61
1, 457880, Control_c, 0, 64, 57
1, 457895, Control_c, 0, 64, 45
1, 457909, Control_c, 0, 64, 0
1, 457939, Control_c, 0, 67, 41
1, 457979, Note_off_c, 0, 72, 49
1, 457982, Note_on_c, 0, 80, 77
1, 457983, Control_c, 0, 67, 42
1, 458011, Note_off_c, 0, 65, 62
1, 458013, Control_c, 0, 64, 44
1, 458022, Note_off_c, 0, 68, 61
1, 458027, Control_c, 0, 64, 60
1, 458042, Control_c, 0, 64, 65
1, 458057, Control_c, 0, 64, 66
1, 458073, Control_c, 0, 64, 66
1, 458088, Control_c, 0, 64, 67
1, 458103, Control_c, 0, 64, 69
1, 458118, Note_off_c, 0, 84, 39
1, 458118, Control_c, 0, 64, 70
1, 458135, Note_on_c, 0, 77, 74
1, 458192, Control_c, 0, 67, 41
1, 458216, Note_off_c, 0, 80, 57
1, 458244, Control_c, 0, 64, 69
1, 458258, Control_c, 0, 64, 68
1, 458273, Control_c, 0, 64, 68
1, 458304, Note_on_c, 0, 74, 77
1, 458310, Note_off_c, 0, 77, 59
1, 458332, Control_c, 0, 67, 42
1, 458347, Control_c, 0, 64, 67
1, 458347, Control_c, 0, 67, 42
1, 458362, Control_c, 0, 64, 68
1, 458421, Control_c, 0, 64, 67
1, 458436, Control_c, 0, 64, 67
1, 458436, Control_c, 0, 67, 43
1, 458451, Control_c, 0, 64, 67
1, 458451, Control_c, 0, 67, 44
1, 458456, Note_on_c, 0, 77, 68
1, 458459, Note_off_c, 0, 74, 59
1, 458495, Control_c, 0, 67, 44
1, 458510, Control_c, 0, 64, 67
1, 458510, Control_c, 0, 67, 45
1, 458539, Control_c, 0, 67, 45
1, 458554, Control_c, 0, 64, 65
1, 458569, Control_c, 0, 64, 63
1, 458569, Control_c, 0, 67, 46
1, 458584, Control_c, 0, 64, 52
1, 458599, Control_c, 0, 64, 46
1, 458599, Control_c, 0, 67, 46
1, 458602, Note_on_c, 0, 70, 54
1, 458604, Note_on_c, 0, 82, 78
1, 458609, Note_on_c, 0, 62, 46
1, 458614, Control_c, 0, 64, 51
1, 458616, Note_on_c, 0, 65, 44
1, 458622, Note_off_c, 0, 77, 62
1, 458628, Control_c, 0, 64, 58
1, 458628, Control_c, 0, 67, 47
1, 458643, Control_c, 0, 64, 62
1, 458658, Control_c, 0, 64, 65
1, 458658, Control_c, 0, 67, 47
1, 458659, Note_off_c, 0, 65, 61
1, 458673, Control_c, 0, 64, 67
1, 458673, Control_c, 0, 67, 48
1, 458681, Note_off_c, 0, 62, 55
1, 458685, Note_off_c, 0, 70, 51
1, 458688, Control_c, 0, 64, 70
1, 458690, Note_off_c, 0, 82, 64
1, 458703, Control_c, 0, 64, 74
1, 458718, Control_c, 0, 64, 76
1, 458732, Control_c, 0, 64, 78
1, 458732, Control_c, 0, 67, 48
1, 458776, Control_c, 0, 64, 78
1, 458776, Control_c, 0, 67, 49
1, 458777, Note_on_c, 0, 82, 73
1, 458791, Control_c, 0, 64, 76
1, 458791, Control_c, 0, 67, 50
1, 458795, Note_on_c, 0, 70, 41
1, 458801, Note_on_c, 0, 67, 42
1, 458806, Control_c, 0, 64, 72
1, 458806, Control_c, 0, 67, 53
1, 458807, Note_on_c, 0, 63, 49
1, 458821, Control_c, 0, 64, 68
1, 458821, Control_c, 0, 67, 57
1, 458836, Control_c, 0, 64, 64
1, 458836, Control_c, 0, 67, 60
1, 458850, Control_c, 0, 64, 62
1, 458850, Control_c, 0, 67, 61
1, 458865, Control_c, 0, 64, 59
1, 458865, Control_c, 0, 67, 64
1, 458881, Control_c, 0, 67, 66
1, 458885, Note_off_c, 0, 70, 61
1, 458896, Control_c, 0, 64, 62
1, 458896, Control_c, 0, 67, 70
1, 458911, Control_c, 0, 64, 64
1, 458911, Control_c, 0, 67, 76
1, 458912, Note_off_c, 0, 67, 62
1, 458926, Control_c, 0, 64, 66
1, 458926, Control_c, 0, 67, 82
1, 458933, Note_on_c, 0, 79, 67
1, 458941, Control_c, 0, 64, 68
1, 458941, Control_c, 0, 67, 86
1, 458942, Note_off_c, 0, 63, 62
1, 458962, Control_c, 0, 64, 71
1, 458962, Control_c, 0, 67, 91
1, 458975, Note_off_c, 0, 82, 57
1, 458977, Control_c, 0, 64, 73
1, 458977, Control_c, 0, 67, 94
1, 458992, Control_c, 0, 64, 74
1, 458992, Control_c, 0, 67, 95
1, 459007, Control_c, 0, 67, 96
1, 459037, Control_c, 0, 64, 73
1, 459052, Control_c, 0, 64, 71
1, 459067, Control_c, 0, 64, 70
1, 459086, Note_on_c, 0, 75, 67
1, 459096, Control_c, 0, 67, 95
1, 459111, Control_c, 0, 64, 70
1, 459111, Control_c, 0, 67, 94
1, 459126, Control_c, 0, 64, 69
1, 459136, Note_off_c, 0, 79, 52
1, 459141, Control_c, 0, 64, 67
1, 459156, Control_c, 0, 64, 65
1, 459171, Control_c, 0, 64, 63
1, 459186, Control_c, 0, 64, 61
1, 459186, Control_c, 0, 67, 94
1, 459201, Control_c, 0, 64, 56
1, 459215, Control_c, 0, 64, 40
1, 459230, Control_c, 0, 64, 0
1, 459245, Note_on_c, 0, 72, 70
1, 459251, Note_on_c, 0, 65, 44
1, 459256, Note_on_c, 0, 60, 43
1, 459257, Note_off_c, 0, 75, 58
1, 459260, Note_on_c, 0, 56, 45
1, 459275, Control_c, 0, 64, 36
1, 459289, Control_c, 0, 64, 55
1, 459304, Control_c, 0, 64, 63
1, 459304, Control_c, 0, 67, 93
1, 459319, Control_c, 0, 64, 66
1, 459334, Control_c, 0, 64, 70
1, 459349, Control_c, 0, 64, 73
1, 459363, Control_c, 0, 64, 77
1, 459367, Note_off_c, 0, 65, 58
1, 459378, Control_c, 0, 64, 79
1, 459378, Control_c, 0, 67, 93
1, 459393, Control_c, 0, 64, 80
1, 459395, Note_off_c, 0, 60, 63
1, 459398, Note_off_c, 0, 56, 61
1, 459407, Control_c, 0, 67, 92
1, 459418, Note_on_c, 0, 77, 68
1, 459419, Note_off_c, 0, 72, 56
1, 459422, Control_c, 0, 64, 79
1, 459452, Control_c, 0, 64, 79
1, 459481, Control_c, 0, 64, 78
1, 459496, Control_c, 0, 64, 76
1, 459511, Control_c, 0, 64, 73
1, 459511, Control_c, 0, 67, 92
1, 459526, Control_c, 0, 64, 71
1, 459541, Control_c, 0, 64, 69
1, 459556, Control_c, 0, 64, 68
1, 459564, Note_on_c, 0, 80, 67
1, 459570, Control_c, 0, 64, 67
1, 459585, Control_c, 0, 64, 65
1, 459600, Control_c, 0, 64, 60
1, 459603, Note_off_c, 0, 77, 54
1, 459615, Control_c, 0, 64, 37
1, 459630, Control_c, 0, 64, 0
1, 459675, Note_off_c, 0, 80, 60
1, 459712, Control_c, 0, 64, 37
1, 459712, Control_c, 0, 67, 92
1, 459718, Note_on_c, 0, 67, 49
1, 459721, Note_on_c, 0, 70, 61
1, 459722, Note_on_c, 0, 63, 48
1, 459725, Note_on_c, 0, 58, 46
1, 459727, Control_c, 0, 64, 55
1, 459742, Control_c, 0, 64, 62
1, 459757, Control_c, 0, 64, 65
1, 459772, Control_c, 0, 64, 69
1, 459786, Control_c, 0, 64, 73
1, 459801, Note_off_c, 0, 67, 58
1, 459801, Control_c, 0, 64, 77
1, 459816, Control_c, 0, 64, 81
1, 459817, Note_off_c, 0, 63, 60
1, 459824, Note_off_c, 0, 58, 54
1, 459830, Control_c, 0, 64, 82
1, 459877, Note_on_c, 0, 75, 63
1, 459890, Control_c, 0, 64, 81
1, 459904, Control_c, 0, 64, 81
1, 459934, Control_c, 0, 64, 80
1, 459946, Note_off_c, 0, 70, 36
1, 459949, Control_c, 0, 64, 80
1, 459949, Control_c, 0, 67, 92
1, 459964, Control_c, 0, 64, 78
1, 459979, Control_c, 0, 64, 76
1, 459994, Control_c, 0, 64, 73
1, 460009, Control_c, 0, 64, 71
1, 460024, Control_c, 0, 64, 70
1, 460027, Note_on_c, 0, 79, 62
1, 460038, Control_c, 0, 64, 68
1, 460051, Note_off_c, 0, 75, 51
1, 460053, Control_c, 0, 64, 65
1, 460068, Control_c, 0, 64, 59
1, 460083, Control_c, 0, 64, 39
1, 460098, Control_c, 0, 64, 0
1, 460112, Control_c, 0, 67, 92
1, 460127, Control_c, 0, 64, 29
1, 460139, Note_off_c, 0, 79, 58
1, 460142, Control_c, 0, 64, 50
1, 460157, Control_c, 0, 64, 60
1, 460172, Control_c, 0, 64, 64
1, 460187, Note_on_c, 0, 65, 39
1, 460187, Control_c, 0, 64, 66
1, 460187, Note_on_c, 0, 68, 57
1, 460194, Note_on_c, 0, 58, 33
1, 460199, Note_on_c, 0, 62, 38
1, 460202, Control_c, 0, 64, 68
1, 460217, Control_c, 0, 64, 71
1, 460231, Control_c, 0, 64, 74
1, 460246, Control_c, 0, 64, 77
1, 460249, Note_off_c, 0, 65, 53
1, 460261, Control_c, 0, 64, 78
1, 460261, Control_c, 0, 67, 92
1, 460265, Note_off_c, 0, 62, 59
1, 460298, Note_off_c, 0, 58, 59
1, 460305, Control_c, 0, 67, 91
1, 460320, Control_c, 0, 64, 78
1, 460331, Note_on_c, 0, 74, 54
1, 460334, Note_off_c, 0, 68, 37
1, 460335, Control_c, 0, 64, 77
1, 460335, Control_c, 0, 67, 91
1, 460349, Control_c, 0, 64, 76
1, 460364, Control_c, 0, 64, 76
1, 460394, Control_c, 0, 64, 75
1, 460423, Control_c, 0, 64, 75
1, 460438, Control_c, 0, 64, 74
1, 460476, Note_on_c, 0, 58, 69
1, 460477, Control_c, 0, 64, 74
1, 460477, Control_c, 0, 67, 90
1, 460488, Note_on_c, 0, 77, 57
1, 460492, Control_c, 0, 64, 73
1, 460496, Note_on_c, 0, 68, 41
1, 460497, Note_off_c, 0, 74, 47
1, 460506, Control_c, 0, 64, 72
1, 460521, Control_c, 0, 64, 72
1, 460548, Note_off_c, 0, 68, 59
1, 460549, Note_off_c, 0, 58, 57
1, 460566, Control_c, 0, 64, 71
1, 460581, Control_c, 0, 64, 70
1, 460596, Control_c, 0, 64, 69
1, 460610, Control_c, 0, 64, 69
1, 460625, Control_c, 0, 64, 68
1, 460626, Note_off_c, 0, 77, 55
1, 460640, Control_c, 0, 64, 68
1, 460640, Control_c, 0, 67, 90
1, 460641, Note_on_c, 0, 58, 68
1, 460645, Note_on_c, 0, 75, 57
1, 460654, Control_c, 0, 64, 67
1, 460655, Note_on_c, 0, 67, 46
1, 460684, Control_c, 0, 64, 67
1, 460699, Control_c, 0, 64, 66
1, 460714, Control_c, 0, 64, 65
1, 460728, Control_c, 0, 64, 64
1, 460730, Note_off_c, 0, 67, 59
1, 460782, Note_off_c, 0, 75, 62
1, 460783, Note_on_c, 0, 55, 72
1, 460786, Note_off_c, 0, 58, 57
1, 460787, Control_c, 0, 64, 63
1, 460817, Control_c, 0, 67, 89
1, 460918, Note_on_c, 0, 51, 73
1, 460921, Control_c, 0, 64, 64
1, 460927, Note_on_c, 0, 79, 66
1, 460960, Note_off_c, 0, 55, 54
1, 460980, Control_c, 0, 64, 64
1, 460980, Control_c, 0, 67, 90
1, 461025, Control_c, 0, 67, 90
1, 461040, Control_c, 0, 64, 64
1, 461040, Control_c, 0, 67, 91
1, 461043, Note_off_c, 0, 79, 56
1, 461054, Control_c, 0, 64, 63
1, 461054, Control_c, 0, 67, 91
1, 461061, Note_on_c, 0, 50, 61
1, 461073, Note_on_c, 0, 80, 68
1, 461099, Control_c, 0, 64, 63
1, 461100, Note_off_c, 0, 51, 33
1, 461114, Control_c, 0, 64, 61
1, 461128, Control_c, 0, 64, 58
1, 461131, Note_off_c, 0, 80, 62
1, 461143, Control_c, 0, 64, 59
1, 461147, Note_on_c, 0, 79, 73
1, 461158, Control_c, 0, 64, 60
1, 461187, Control_c, 0, 64, 60
1, 461210, Control_c, 0, 64, 61
1, 461215, Note_on_c, 0, 53, 53
1, 461215, Note_off_c, 0, 79, 61
1, 461225, Note_on_c, 0, 80, 68
1, 461225, Control_c, 0, 64, 63
1, 461237, Note_off_c, 0, 50, 58
1, 461240, Control_c, 0, 64, 65
1, 461254, Control_c, 0, 64, 66
1, 461254, Control_c, 0, 67, 92
1, 461256, Note_off_c, 0, 80, 61
1, 461284, Control_c, 0, 64, 66
1, 461285, Note_on_c, 0, 77, 73
1, 461299, Control_c, 0, 64, 67
1, 461329, Control_c, 0, 67, 91
1, 461344, Control_c, 0, 64, 67
1, 461351, Note_off_c, 0, 53, 58
1, 461356, Note_on_c, 0, 58, 66
1, 461356, Note_on_c, 0, 82, 75
1, 461356, Note_off_c, 0, 77, 57
1, 461388, Control_c, 0, 64, 66
1, 461389, Note_off_c, 0, 58, 62
1, 461402, Control_c, 0, 64, 66
1, 461413, Note_off_c, 0, 82, 62
1, 461415, Note_on_c, 0, 80, 71
1, 461417, Control_c, 0, 64, 65
1, 461432, Control_c, 0, 64, 63
1, 461432, Control_c, 0, 67, 92
1, 461447, Control_c, 0, 64, 61
1, 461462, Control_c, 0, 64, 54
1, 461476, Control_c, 0, 64, 34
1, 461476, Control_c, 0, 67, 92
1, 461481, Note_off_c, 0, 80, 62
1, 461488, Note_on_c, 0, 58, 67
1, 461491, Control_c, 0, 64, 0
1, 461498, Note_on_c, 0, 79, 69
1, 461521, Control_c, 0, 64, 28
1, 461521, Control_c, 0, 67, 93
1, 461536, Control_c, 0, 64, 42
1, 461550, Control_c, 0, 64, 48
1, 461565, Control_c, 0, 64, 52
1, 461580, Note_off_c, 0, 79, 58
1, 461580, Control_c, 0, 64, 59
1, 461594, Control_c, 0, 64, 64
1, 461609, Control_c, 0, 64, 67
1, 461624, Control_c, 0, 64, 70
1, 461639, Control_c, 0, 64, 73
1, 461650, Note_on_c, 0, 94, 76
1, 461654, Control_c, 0, 64, 76
1, 461660, Note_on_c, 0, 55, 68
1, 461661, Note_off_c, 0, 58, 60
1, 461669, Control_c, 0, 64, 79
1, 461684, Control_c, 0, 64, 81
1, 461684, Control_c, 0, 67, 92
1, 461698, Note_off_c, 0, 94, 64
1, 461699, Control_c, 0, 64, 81
1, 461714, Control_c, 0, 67, 92
1, 461773, Control_c, 0, 64, 81
1, 461788, Control_c, 0, 64, 80
1, 461794, Note_on_c, 0, 51, 79
1, 461802, Control_c, 0, 64, 80
1, 461804, Note_off_c, 0, 55, 35
1, 461817, Control_c, 0, 64, 79
1, 461832, Control_c, 0, 64, 79
1, 461832, Control_c, 0, 67, 91
1, 461847, Control_c, 0, 64, 78
1, 461858, Note_off_c, 0, 51, 63
1, 461862, Control_c, 0, 64, 78
1, 461862, Control_c, 0, 67, 90
1, 461876, Control_c, 0, 64, 76
1, 461891, Control_c, 0, 64, 73
1, 461906, Control_c, 0, 64, 68
1, 461921, Control_c, 0, 64, 63
1, 461936, Control_c, 0, 64, 49
1, 461958, Control_c, 0, 64, 14
1, 461958, Note_on_c, 0, 51, 80
1, 461973, Control_c, 0, 64, 0
1, 461988, Control_c, 0, 64, 27
1, 462002, Control_c, 0, 64, 47
1, 462017, Control_c, 0, 64, 57
1, 462032, Control_c, 0, 64, 62
1, 462047, Control_c, 0, 64, 64
1, 462047, Control_c, 0, 67, 90
1, 462062, Control_c, 0, 64, 66
1, 462077, Control_c, 0, 64, 68
1, 462077, Control_c, 0, 67, 89
1, 462093, Control_c, 0, 64, 71
1, 462093, Control_c, 0, 67, 89
1, 462097, Note_on_c, 0, 55, 80
1, 462107, Note_off_c, 0, 51, 63
1, 462107, Control_c, 0, 64, 73
1, 462122, Control_c, 0, 64, 74
1, 462122, Control_c, 0, 67, 88
1, 462137, Control_c, 0, 67, 88
1, 462152, Control_c, 0, 67, 87
1, 462167, Control_c, 0, 64, 74
1, 462167, Control_c, 0, 67, 87
1, 462182, Control_c, 0, 67, 86
1, 462226, Control_c, 0, 64, 73
1, 462236, Note_on_c, 0, 52, 73
1, 462240, Note_on_c, 0, 60, 72
1, 462241, Control_c, 0, 64, 73
1, 462241, Note_off_c, 0, 55, 63
1, 462242, Note_on_c, 0, 67, 74
1, 462256, Control_c, 0, 64, 72
1, 462286, Control_c, 0, 64, 72
1, 462286, Control_c, 0, 67, 87
1, 462300, Control_c, 0, 67, 88
1, 462304, Note_off_c, 0, 52, 59
1, 462310, Note_off_c, 0, 60, 64
1, 462315, Control_c, 0, 64, 71
1, 462315, Control_c, 0, 67, 88
1, 462330, Control_c, 0, 67, 89
1, 462337, Note_off_c, 0, 67, 59
1, 462345, Control_c, 0, 67, 89
1, 462360, Control_c, 0, 64, 70
1, 462360, Control_c, 0, 67, 90
1, 462374, Control_c, 0, 64, 67
1, 462374, Control_c, 0, 67, 90
1, 462389, Control_c, 0, 64, 63
1, 462389, Control_c, 0, 67, 91
1, 462394, Note_on_c, 0, 60, 85
1, 462404, Control_c, 0, 64, 57
1, 462419, Control_c, 0, 64, 56
1, 462433, Control_c, 0, 64, 57
1, 462448, Control_c, 0, 64, 60
1, 462463, Control_c, 0, 64, 61
1, 462478, Control_c, 0, 64, 64
1, 462478, Control_c, 0, 67, 90
1, 462493, Control_c, 0, 64, 65
1, 462493, Control_c, 0, 67, 90
1, 462507, Control_c, 0, 64, 66
1, 462522, Control_c, 0, 64, 66
1, 462522, Control_c, 0, 67, 89
1, 462534, Note_on_c, 0, 56, 81
1, 462537, Control_c, 0, 64, 68
1, 462537, Control_c, 0, 67, 89
1, 462551, Control_c, 0, 64, 69
1, 462551, Control_c, 0, 67, 88
1, 462566, Control_c, 0, 64, 70
1, 462566, Control_c, 0, 67, 88
1, 462568, Note_off_c, 0, 60, 60
1, 462581, Control_c, 0, 64, 69
1, 462596, Control_c, 0, 64, 68
1, 462626, Control_c, 0, 67, 87
1, 462641, Control_c, 0, 67, 87
1, 462671, Control_c, 0, 64, 67
1, 462677, Note_on_c, 0, 53, 79
1, 462685, Control_c, 0, 64, 67
1, 462687, Note_on_c, 0, 68, 77
1, 462707, Control_c, 0, 64, 66
1, 462716, Note_off_c, 0, 56, 61
1, 462722, Control_c, 0, 64, 66
1, 462722, Control_c, 0, 67, 87
1, 462751, Control_c, 0, 64, 65
1, 462751, Control_c, 0, 67, 87
1, 462766, Control_c, 0, 64, 60
1, 462781, Control_c, 0, 64, 32
1, 462796, Control_c, 0, 64, 0
1, 462805, Note_off_c, 0, 68, 57
1, 462811, Control_c, 0, 67, 86
1, 462824, Note_on_c, 0, 52, 75
1, 462826, Note_off_c, 0, 53, 60
1, 462829, Note_on_c, 0, 70, 72
1, 462840, Control_c, 0, 64, 28
1, 462855, Control_c, 0, 64, 52
1, 462855, Control_c, 0, 67, 86
1, 462870, Control_c, 0, 64, 59
1, 462886, Control_c, 0, 64, 61
1, 462893, Note_off_c, 0, 70, 63
1, 462901, Control_c, 0, 64, 62
1, 462903, Note_on_c, 0, 68, 78
1, 462916, Control_c, 0, 64, 63
1, 462930, Control_c, 0, 64, 62
1, 462945, Control_c, 0, 64, 61
1, 462961, Note_on_c, 0, 55, 72
1, 462963, Note_on_c, 0, 70, 75
1, 462975, Note_off_c, 0, 68, 60
1, 462975, Control_c, 0, 64, 61
1, 462990, Control_c, 0, 64, 62
1, 462993, Note_off_c, 0, 52, 57
1, 463004, Control_c, 0, 64, 63
1, 463013, Note_off_c, 0, 70, 62
1, 463019, Control_c, 0, 64, 62
1, 463025, Note_off_c, 0, 55, 63
1, 463034, Control_c, 0, 64, 60
1, 463036, Note_on_c, 0, 67, 77
1, 463049, Control_c, 0, 64, 58
1, 463049, Control_c, 0, 67, 86
1, 463064, Control_c, 0, 64, 57
1, 463079, Control_c, 0, 64, 56
1, 463094, Control_c, 0, 64, 53
1, 463096, Note_on_c, 0, 72, 75
1, 463109, Control_c, 0, 64, 45
1, 463109, Control_c, 0, 67, 87
1, 463109, Note_on_c, 0, 60, 71
1, 463110, Note_off_c, 0, 67, 58
1, 463123, Control_c, 0, 64, 26
1, 463138, Control_c, 0, 64, 0
1, 463165, Note_off_c, 0, 72, 63
1, 463167, Note_off_c, 0, 60, 63
1, 463168, Control_c, 0, 67, 87
1, 463168, Note_on_c, 0, 70, 76
1, 463182, Control_c, 0, 67, 88
1, 463227, Control_c, 0, 67, 88
1, 463230, Note_off_c, 0, 70, 64
1, 463242, Control_c, 0, 67, 89
1, 463243, Note_on_c, 0, 68, 76
1, 463246, Note_on_c, 0, 60, 69
1, 463256, Control_c, 0, 67, 90
1, 463271, Control_c, 0, 67, 91
1, 463301, Control_c, 0, 64, 21
1, 463301, Control_c, 0, 67, 91
1, 463316, Control_c, 0, 64, 57
1, 463326, Note_off_c, 0, 68, 61
1, 463330, Control_c, 0, 64, 66
1, 463330, Control_c, 0, 67, 91
1, 463345, Control_c, 0, 64, 71
1, 463360, Control_c, 0, 64, 74
1, 463360, Control_c, 0, 67, 90
1, 463365, Note_off_c, 0, 60, 62
1, 463374, Control_c, 0, 64, 75
1, 463386, Note_on_c, 0, 56, 72
1, 463389, Control_c, 0, 67, 90
1, 463399, Note_on_c, 0, 84, 80
1, 463419, Control_c, 0, 67, 89
1, 463434, Control_c, 0, 64, 74
1, 463455, Note_off_c, 0, 84, 64
1, 463456, Control_c, 0, 64, 73
1, 463456, Control_c, 0, 67, 88
1, 463471, Control_c, 0, 64, 72
1, 463486, Control_c, 0, 64, 72
1, 463486, Control_c, 0, 67, 87
1, 463501, Control_c, 0, 64, 71
1, 463501, Control_c, 0, 67, 87
1, 463511, Note_off_c, 0, 56, 63
1, 463516, Control_c, 0, 64, 70
1, 463516, Control_c, 0, 67, 86
1, 463530, Control_c, 0, 64, 69
1, 463545, Control_c, 0, 64, 69
1, 463545, Control_c, 0, 67, 86
1, 463546, Note_on_c, 0, 53, 77
1, 463560, Control_c, 0, 67, 85
1, 463574, Control_c, 0, 67, 85
1, 463589, Control_c, 0, 64, 68
1, 463589, Control_c, 0, 67, 84
1, 463604, Control_c, 0, 67, 84
1, 463610, Note_off_c, 0, 53, 64
1, 463619, Control_c, 0, 64, 68
1, 463634, Control_c, 0, 64, 66
1, 463648, Control_c, 0, 64, 64
1, 463648, Control_c, 0, 67, 83
1, 463663, Control_c, 0, 64, 46
1, 463663, Control_c, 0, 67, 83
1, 463679, Control_c, 0, 64, 0
1, 463679, Control_c, 0, 67, 82
1, 463694, Control_c, 0, 67, 81
1, 463700, Note_on_c, 0, 50, 81
1, 463709, Control_c, 0, 67, 80
1, 463724, Control_c, 0, 67, 79
1, 463739, Control_c, 0, 67, 78
1, 463768, Control_c, 0, 64, 56
1, 463768, Control_c, 0, 67, 78
1, 463783, Control_c, 0, 64, 65
1, 463797, Control_c, 0, 64, 69
1, 463797, Control_c, 0, 67, 77
1, 463812, Control_c, 0, 64, 73
1, 463812, Control_c, 0, 67, 77
1, 463827, Control_c, 0, 64, 75
1, 463827, Control_c, 0, 67, 76
1, 463842, Note_on_c, 0, 53, 77
1, 463842, Control_c, 0, 64, 75
1, 463842, Control_c, 0, 67, 74
1, 463857, Control_c, 0, 64, 76
1, 463857, Control_c, 0, 67, 73
1, 463858, Note_off_c, 0, 50, 54
1, 463872, Control_c, 0, 64, 76
1, 463872, Control_c, 0, 67, 70
1, 463887, Control_c, 0, 64, 77
1, 463887, Control_c, 0, 67, 67
1, 463902, Control_c, 0, 67, 65
1, 463917, Control_c, 0, 67, 64
1, 463931, Control_c, 0, 67, 63
1, 463937, Note_off_c, 0, 53, 58
1, 463946, Control_c, 0, 67, 62
1, 463976, Control_c, 0, 64, 76
1, 463979, Note_on_c, 0, 50, 71
1, 463979, Note_on_c, 0, 77, 80
1, 463980, Note_on_c, 0, 58, 79
1, 464005, Control_c, 0, 64, 75
1, 464005, Control_c, 0, 67, 63
1, 464020, Control_c, 0, 67, 64
1, 464029, Note_off_c, 0, 50, 64
1, 464035, Control_c, 0, 67, 65
1, 464050, Control_c, 0, 64, 76
1, 464050, Control_c, 0, 67, 65
1, 464053, Note_off_c, 0, 58, 62
1, 464065, Control_c, 0, 64, 76
1, 464065, Control_c, 0, 67, 66
1, 464069, Note_off_c, 0, 77, 64
1, 464079, Control_c, 0, 64, 77
1, 464079, Control_c, 0, 67, 67
1, 464094, Control_c, 0, 64, 77
1, 464094, Control_c, 0, 67, 68
1, 464109, Control_c, 0, 64, 78
1, 464109, Control_c, 0, 67, 69
1, 464124, Control_c, 0, 64, 79
1, 464124, Control_c, 0, 67, 70
1, 464137, Note_on_c, 0, 58, 85
1, 464138, Control_c, 0, 67, 71
1, 464141, Note_on_c, 0, 51, 79
1, 464153, Control_c, 0, 64, 77
1, 464153, Control_c, 0, 67, 72
1, 464168, Control_c, 0, 64, 71
1, 464168, Control_c, 0, 67, 73
1, 464183, Control_c, 0, 64, 59
1, 464183, Control_c, 0, 67, 74
1, 464205, Control_c, 0, 64, 0
1, 464235, Control_c, 0, 67, 73
1, 464250, Control_c, 0, 64, 32
1, 464250, Control_c, 0, 67, 72
1, 464265, Control_c, 0, 64, 61
1, 464279, Control_c, 0, 64, 70
1, 464279, Control_c, 0, 67, 71
1, 464294, Control_c, 0, 64, 77
1, 464294, Control_c, 0, 67, 71
1, 464298, Note_on_c, 0, 55, 86
1, 464309, Control_c, 0, 64, 85
1, 464309, Control_c, 0, 67, 70
1, 464324, Control_c, 0, 64, 89
1, 464324, Control_c, 0, 67, 68
1, 464333, Note_off_c, 0, 51, 62
1, 464333, Note_off_c, 0, 58, 59
1, 464339, Control_c, 0, 64, 90
1, 464339, Control_c, 0, 67, 67
1, 464353, Control_c, 0, 67, 65
1, 464368, Control_c, 0, 64, 90
1, 464368, Control_c, 0, 67, 64
1, 464383, Control_c, 0, 67, 62
1, 464397, Control_c, 0, 67, 61
1, 464412, Control_c, 0, 67, 59
1, 464427, Control_c, 0, 67, 58
1, 464430, Note_on_c, 0, 79, 90
1, 464434, Note_on_c, 0, 51, 88
1, 464442, Control_c, 0, 67, 56
1, 464456, Note_off_c, 0, 55, 63
1, 464457, Control_c, 0, 67, 54
1, 464473, Control_c, 0, 67, 50
1, 464488, Control_c, 0, 64, 90
1, 464488, Control_c, 0, 67, 46
1, 464502, Control_c, 0, 64, 89
1, 464502, Control_c, 0, 67, 44
1, 464507, Note_off_c, 0, 51, 62
1, 464517, Control_c, 0, 67, 41
1, 464532, Control_c, 0, 67, 37
1, 464540, Note_off_c, 0, 79, 59
1, 464547, Control_c, 0, 64, 87
1, 464547, Control_c, 0, 67, 29
1, 464562, Control_c, 0, 64, 79
1, 464562, Control_c, 0, 67, 20
1, 464576, Control_c, 0, 64, 66
1, 464576, Control_c, 0, 67, 0
1, 464584, Note_on_c, 0, 80, 79
1, 464585, Note_on_c, 0, 44, 83
1, 464591, Control_c, 0, 64, 14
1, 464596, Note_on_c, 0, 48, 73
1, 464606, Control_c, 0, 64, 0
1, 464620, Control_c, 0, 64, 36
1, 464635, Control_c, 0, 64, 63
1, 464648, Note_off_c, 0, 80, 64
1, 464650, Control_c, 0, 64, 69
1, 464653, Note_on_c, 0, 79, 85
1, 464665, Control_c, 0, 64, 74
1, 464680, Control_c, 0, 64, 78
1, 464695, Control_c, 0, 64, 79
1, 464710, Control_c, 0, 64, 80
1, 464713, Note_off_c, 0, 44, 58
1, 464715, Note_on_c, 0, 80, 80
1, 464719, Note_off_c, 0, 79, 64
1, 464722, Note_on_c, 0, 53, 78
1, 464725, Note_off_c, 0, 48, 61
1, 464754, Control_c, 0, 64, 80
1, 464768, Note_off_c, 0, 80, 64
1, 464769, Control_c, 0, 64, 81
1, 464784, Control_c, 0, 64, 82
1, 464788, Note_on_c, 0, 77, 80
1, 464820, Note_off_c, 0, 77, 65
1, 464838, Note_off_c, 0, 53, 61
1, 464843, Control_c, 0, 64, 83
1, 464852, Note_on_c, 0, 56, 77
1, 464856, Note_on_c, 0, 92, 107
1, 464858, Control_c, 0, 64, 86
1, 464873, Control_c, 0, 64, 88
1, 464888, Control_c, 0, 64, 89
1, 464889, Note_off_c, 0, 92, 63
1, 464999, Note_off_c, 0, 56, 63
1, 465014, Control_c, 0, 64, 88
1, 465017, Note_on_c, 0, 46, 92
1, 465028, Control_c, 0, 64, 84
1, 465043, Control_c, 0, 64, 74
1, 465058, Control_c, 0, 64, 62
1, 465073, Control_c, 0, 64, 0
1, 465117, Control_c, 0, 64, 47
1, 465132, Control_c, 0, 64, 63
1, 465146, Control_c, 0, 64, 70
1, 465157, Note_on_c, 0, 51, 86
1, 465161, Control_c, 0, 64, 77
1, 465176, Control_c, 0, 64, 83
1, 465191, Control_c, 0, 64, 87
1, 465192, Note_off_c, 0, 46, 61
1, 465235, Control_c, 0, 64, 87
1, 465266, Control_c, 0, 64, 87
1, 465296, Control_c, 0, 64, 87
1, 465300, Note_on_c, 0, 55, 88
1, 465312, Note_on_c, 0, 75, 95
1, 465317, Note_off_c, 0, 51, 64
1, 465369, Control_c, 0, 64, 89
1, 465384, Control_c, 0, 64, 90
1, 465399, Control_c, 0, 64, 91
1, 465429, Control_c, 0, 64, 89
1, 465432, Note_off_c, 0, 55, 61
1, 465443, Note_off_c, 0, 75, 58
1, 465443, Control_c, 0, 64, 81
1, 465449, Note_on_c, 0, 77, 89
1, 465451, Note_on_c, 0, 46, 91
1, 465458, Control_c, 0, 64, 69
1, 465473, Control_c, 0, 64, 27
1, 465488, Control_c, 0, 64, 0
1, 465503, Control_c, 0, 64, 50
1, 465513, Note_off_c, 0, 77, 63
1, 465517, Control_c, 0, 64, 69
1, 465529, Note_on_c, 0, 75, 90
1, 465532, Control_c, 0, 64, 80
1, 465547, Control_c, 0, 64, 94
1, 465562, Control_c, 0, 64, 106
1, 465577, Control_c, 0, 64, 114
1, 465588, Note_off_c, 0, 46, 58
1, 465591, Note_on_c, 0, 77, 88
1, 465592, Control_c, 0, 64, 124
1, 465593, Note_on_c, 0, 50, 77
1, 465598, Note_off_c, 0, 75, 64
1, 465607, Control_c, 0, 64, 127
1, 465635, Note_off_c, 0, 77, 62
1, 465654, Note_on_c, 0, 74, 89
1, 465703, Note_off_c, 0, 50, 63
1, 465713, Note_off_c, 0, 74, 66
1, 465721, Note_on_c, 0, 58, 82
1, 465730, Note_on_c, 0, 89, 99
1, 465744, Note_off_c, 0, 89, 76
1, 465767, Note_off_c, 0, 58, 65
1, 465911, Control_c, 0, 64, 108
1, 465925, Control_c, 0, 64, 79
1, 465929, Note_on_c, 0, 67, 92
1, 465940, Control_c, 0, 64, 53
1, 465944, Note_on_c, 0, 46, 83
1, 465955, Control_c, 0, 64, 0
1, 465984, Control_c, 0, 64, 36
1, 465999, Control_c, 0, 64, 64
1, 466014, Control_c, 0, 64, 71
1, 466020, Note_on_c, 0, 79, 87
1, 466029, Control_c, 0, 64, 80
1, 466030, Note_off_c, 0, 67, 61
1, 466043, Control_c, 0, 64, 88
1, 466058, Control_c, 0, 64, 90
1, 466084, Note_off_c, 0, 79, 63
1, 466099, Note_on_c, 0, 43, 85
1, 466099, Note_on_c, 0, 67, 87
1, 466110, Note_off_c, 0, 46, 58
1, 466158, Note_off_c, 0, 67, 65
1, 466169, Note_on_c, 0, 79, 82
1, 466178, Control_c, 0, 64, 89
1, 466192, Control_c, 0, 64, 89
1, 466198, Note_off_c, 0, 79, 62
1, 466235, Note_on_c, 0, 39, 82
1, 466235, Note_on_c, 0, 70, 91
1, 466274, Note_off_c, 0, 43, 55
1, 466302, Note_on_c, 0, 82, 91
1, 466311, Control_c, 0, 64, 87
1, 466316, Note_off_c, 0, 70, 64
1, 466326, Control_c, 0, 64, 82
1, 466340, Control_c, 0, 64, 72
1, 466355, Control_c, 0, 64, 59
1, 466361, Note_off_c, 0, 82, 65
1, 466369, Note_on_c, 0, 38, 87
1, 466370, Control_c, 0, 64, 0
1, 466379, Note_on_c, 0, 70, 91
1, 466396, Note_off_c, 0, 39, 53
1, 466452, Control_c, 0, 64, 50
1, 466453, Note_on_c, 0, 82, 90
1, 466466, Note_off_c, 0, 70, 62
1, 466467, Control_c, 0, 64, 64
1, 466481, Control_c, 0, 64, 71
1, 466496, Control_c, 0, 64, 76
1, 466511, Control_c, 0, 64, 80
1, 466516, Note_off_c, 0, 82, 64
1, 466526, Control_c, 0, 64, 82
1, 466528, Note_on_c, 0, 41, 81
1, 466531, Note_on_c, 0, 70, 86
1, 466541, Control_c, 0, 64, 83
1, 466555, Control_c, 0, 64, 85
1, 466556, Note_off_c, 0, 38, 60
1, 466599, Note_on_c, 0, 82, 88
1, 466599, Note_off_c, 0, 70, 60
1, 466654, Note_off_c, 0, 82, 64
1, 466658, Note_off_c, 0, 41, 62
1, 466682, Note_on_c, 0, 68, 91
1, 466685, Note_on_c, 0, 46, 87
1, 466721, Poly_aftertouch_c, 0, 80, 0
1, 466731, Note_on_c, 0, 80, 65
1, 466734, Note_off_c, 0, 46, 62
1, 466748, Note_off_c, 0, 68, 63
1, 466778, Control_c, 0, 64, 84
1, 466792, Control_c, 0, 64, 82
1, 466806, Note_off_c, 0, 80, 63
1, 466807, Control_c, 0, 64, 77
1, 466822, Control_c, 0, 64, 67
1, 466823, Note_on_c, 0, 67, 84
1, 466829, Note_on_c, 0, 46, 86
1, 466837, Control_c, 0, 64, 0
1, 466892, Note_off_c, 0, 67, 59
1, 466893, Note_on_c, 0, 79, 89
1, 466912, Control_c, 0, 64, 44
1, 466927, Control_c, 0, 64, 63
1, 466934, Note_on_c, 0, 78, 37
1, 466942, Control_c, 0, 64, 70
1, 466957, Control_c, 0, 64, 75
1, 466958, Note_off_c, 0, 79, 64
1, 466966, Note_off_c, 0, 78, 53
1, 466971, Control_c, 0, 64, 80
1, 466975, Note_on_c, 0, 67, 89
1, 466981, Note_on_c, 0, 43, 82
1, 466986, Control_c, 0, 64, 82
1, 466990, Note_off_c, 0, 46, 60
1, 467041, Note_on_c, 0, 79, 86
1, 467047, Note_off_c, 0, 67, 62
1, 467089, Note_off_c, 0, 79, 65
1, 467109, Note_on_c, 0, 39, 83
1, 467120, Note_on_c, 0, 70, 87
1, 467124, Note_off_c, 0, 43, 35
1, 467133, Control_c, 0, 64, 82
1, 467173, Note_off_c, 0, 39, 60
1, 467193, Note_on_c, 0, 82, 89
1, 467205, Note_off_c, 0, 70, 62
1, 467245, Control_c, 0, 64, 79
1, 467252, Note_off_c, 0, 82, 64
1, 467260, Control_c, 0, 64, 72
1, 467266, Note_on_c, 0, 39, 89
1, 467271, Note_on_c, 0, 70, 87
1, 467275, Control_c, 0, 64, 59
1, 467289, Control_c, 0, 64, 0
1, 467319, Control_c, 0, 64, 26
1, 467331, Note_on_c, 0, 82, 92
1, 467334, Control_c, 0, 64, 58
1, 467342, Note_off_c, 0, 70, 62
1, 467348, Control_c, 0, 64, 65
1, 467363, Control_c, 0, 64, 69
1, 467378, Control_c, 0, 64, 74
1, 467386, Note_off_c, 0, 39, 50
1, 467389, Note_off_c, 0, 82, 64
1, 467393, Control_c, 0, 64, 77
1, 467406, Note_on_c, 0, 43, 78
1, 467408, Control_c, 0, 64, 77
1, 467410, Note_on_c, 0, 70, 86
1, 467470, Note_on_c, 0, 82, 90
1, 467482, Note_off_c, 0, 70, 62
1, 467515, Note_off_c, 0, 43, 62
1, 467526, Note_off_c, 0, 82, 65
1, 467541, Control_c, 0, 64, 78
1, 467550, Note_on_c, 0, 48, 94
1, 467551, Note_on_c, 0, 40, 86
1, 467556, Control_c, 0, 64, 78
1, 467561, Note_on_c, 0, 67, 89
1, 467571, Control_c, 0, 64, 79
1, 467586, Control_c, 0, 64, 81
1, 467601, Control_c, 0, 64, 83
1, 467615, Control_c, 0, 64, 86
1, 467622, Note_off_c, 0, 40, 63
1, 467628, Note_off_c, 0, 48, 63
1, 467630, Control_c, 0, 64, 88
1, 467636, Note_on_c, 0, 79, 77
1, 467637, Note_off_c, 0, 67, 62
1, 467645, Control_c, 0, 64, 88
1, 467660, Control_c, 0, 64, 88
1, 467676, Control_c, 0, 64, 82
1, 467684, Note_off_c, 0, 79, 61
1, 467690, Control_c, 0, 64, 73
1, 467705, Control_c, 0, 64, 51
1, 467712, Note_on_c, 0, 68, 78
1, 467713, Note_on_c, 0, 48, 73
1, 467720, Control_c, 0, 64, 0
1, 467764, Control_c, 0, 64, 40
1, 467779, Control_c, 0, 64, 59
1, 467785, Note_on_c, 0, 80, 73
1, 467793, Note_off_c, 0, 68, 62
1, 467794, Control_c, 0, 64, 65
1, 467809, Control_c, 0, 64, 68
1, 467824, Control_c, 0, 64, 71
1, 467827, Note_off_c, 0, 48, 57
1, 467838, Note_off_c, 0, 80, 63
1, 467838, Control_c, 0, 64, 73
1, 467853, Control_c, 0, 64, 74
1, 467857, Note_on_c, 0, 44, 68
1, 467863, Note_on_c, 0, 68, 79
1, 467868, Control_c, 0, 64, 75
1, 467883, Control_c, 0, 64, 76
1, 467898, Control_c, 0, 64, 76
1, 467927, Note_off_c, 0, 68, 61
1, 467932, Note_on_c, 0, 80, 82
1, 467990, Note_off_c, 0, 80, 63
1, 467994, Control_c, 0, 64, 77
1, 468015, Note_on_c, 0, 72, 91
1, 468018, Note_on_c, 0, 41, 81
1, 468024, Control_c, 0, 64, 76
1, 468039, Control_c, 0, 64, 71
1, 468045, Note_off_c, 0, 44, 33
1, 468053, Control_c, 0, 64, 65
1, 468068, Control_c, 0, 64, 54
1, 468075, Note_off_c, 0, 72, 62
1, 468078, Note_on_c, 0, 84, 86
1, 468083, Control_c, 0, 64, 55
1, 468098, Control_c, 0, 64, 63
1, 468113, Control_c, 0, 64, 65
1, 468127, Control_c, 0, 64, 68
1, 468137, Note_off_c, 0, 84, 66
1, 468142, Control_c, 0, 64, 71
1, 468157, Control_c, 0, 64, 73
1, 468158, Note_on_c, 0, 40, 80
1, 468159, Note_on_c, 0, 72, 90
1, 468171, Control_c, 0, 64, 75
1, 468174, Note_off_c, 0, 41, 62
1, 468201, Control_c, 0, 64, 74
1, 468209, Note_off_c, 0, 72, 65
1, 468222, Note_on_c, 0, 84, 85
1, 468271, Note_off_c, 0, 84, 65
1, 468296, Note_on_c, 0, 72, 86
1, 468301, Note_on_c, 0, 43, 81
1, 468328, Note_off_c, 0, 40, 60
1, 468352, Note_off_c, 0, 72, 63
1, 468364, Note_on_c, 0, 84, 82
1, 468369, Note_off_c, 0, 43, 64
1, 468394, Control_c, 0, 64, 75
1, 468397, Note_off_c, 0, 84, 58
1, 468409, Control_c, 0, 64, 75
1, 468424, Control_c, 0, 64, 76
1, 468438, Control_c, 0, 64, 76
1, 468441, Note_on_c, 0, 70, 94
1, 468445, Note_on_c, 0, 48, 79
1, 468453, Control_c, 0, 64, 77
1, 468468, Control_c, 0, 64, 72
1, 468483, Control_c, 0, 64, 65
1, 468498, Control_c, 0, 64, 26
1, 468511, Note_on_c, 0, 82, 82
1, 468513, Control_c, 0, 64, 0
1, 468523, Note_off_c, 0, 70, 65
1, 468528, Note_off_c, 0, 48, 64
1, 468543, Control_c, 0, 64, 47
1, 468558, Control_c, 0, 64, 62
1, 468568, Note_off_c, 0, 82, 65
1, 468573, Control_c, 0, 64, 67
1, 468587, Note_on_c, 0, 68, 89
1, 468587, Control_c, 0, 64, 72
1, 468592, Note_on_c, 0, 48, 77
1, 468602, Control_c, 0, 64, 76
1, 468617, Control_c, 0, 64, 78
1, 468632, Control_c, 0, 64, 77
1, 468647, Control_c, 0, 64, 76
1, 468647, Note_on_c, 0, 80, 70
1, 468659, Note_off_c, 0, 68, 63
1, 468698, Control_c, 0, 64, 76
1, 468710, Note_on_c, 0, 78, 19
1, 468713, Note_off_c, 0, 48, 60
1, 468713, Control_c, 0, 64, 75
1, 468719, Note_off_c, 0, 80, 64
1, 468728, Control_c, 0, 64, 73
1, 468737, Note_off_c, 0, 78, 32
1, 468739, Note_on_c, 0, 68, 91
1, 468739, Note_on_c, 0, 44, 76
1, 468772, Control_c, 0, 64, 74
1, 468802, Note_on_c, 0, 80, 85
1, 468805, Note_off_c, 0, 68, 62
1, 468817, Control_c, 0, 64, 75
1, 468832, Control_c, 0, 64, 76
1, 468844, Note_off_c, 0, 44, 63
1, 468847, Control_c, 0, 64, 77
1, 468856, Note_off_c, 0, 80, 64
1, 468862, Control_c, 0, 64, 77
1, 468877, Control_c, 0, 64, 73
1, 468886, Note_on_c, 0, 41, 85
1, 468887, Note_on_c, 0, 72, 90
1, 468892, Control_c, 0, 64, 67
1, 468907, Control_c, 0, 64, 60
1, 468921, Control_c, 0, 64, 58
1, 468936, Control_c, 0, 64, 64
1, 468942, Note_off_c, 0, 72, 63
1, 468951, Control_c, 0, 64, 69
1, 468954, Note_on_c, 0, 84, 83
1, 468966, Control_c, 0, 64, 74
1, 468981, Control_c, 0, 64, 78
1, 468981, Note_off_c, 0, 41, 59
1, 468995, Control_c, 0, 64, 80
1, 469008, Note_off_c, 0, 84, 66
1, 469010, Control_c, 0, 64, 83
1, 469025, Control_c, 0, 64, 84
1, 469032, Note_on_c, 0, 72, 85
1, 469035, Note_on_c, 0, 38, 85
1, 469040, Control_c, 0, 64, 85
1, 469084, Control_c, 0, 64, 85
1, 469089, Note_off_c, 0, 72, 66
1, 469094, Note_on_c, 0, 84, 81
1, 469099, Control_c, 0, 64, 86
1, 469113, Control_c, 0, 64, 86
1, 469121, Note_off_c, 0, 38, 61
1, 469127, Note_off_c, 0, 84, 60
1, 469173, Note_on_c, 0, 70, 93
1, 469177, Note_on_c, 0, 41, 86
1, 469200, Note_on_c, 0, 38, 60
1, 469232, Note_off_c, 0, 38, 64
1, 469241, Note_on_c, 0, 82, 86
1, 469248, Note_off_c, 0, 70, 65
1, 469265, Note_off_c, 0, 41, 62
1, 469289, Note_on_c, 0, 80, 21
1, 469292, Control_c, 0, 64, 87
1, 469294, Note_off_c, 0, 82, 66
1, 469318, Note_on_c, 0, 68, 93
1, 469320, Note_on_c, 0, 46, 96
1, 469322, Note_on_c, 0, 38, 85
1, 469330, Note_off_c, 0, 80, 42
1, 469337, Control_c, 0, 64, 87
1, 469352, Control_c, 0, 64, 89
1, 469363, Note_off_c, 0, 38, 63
1, 469366, Note_on_c, 0, 80, 70
1, 469366, Control_c, 0, 64, 92
1, 469381, Note_off_c, 0, 46, 61
1, 469381, Control_c, 0, 64, 94
1, 469383, Note_off_c, 0, 68, 63
1, 469396, Control_c, 0, 64, 96
1, 469410, Control_c, 0, 64, 98
1, 469425, Control_c, 0, 64, 101
1, 469448, Control_c, 0, 64, 104
1, 469450, Note_off_c, 0, 80, 62
1, 469471, Note_on_c, 0, 67, 78
1, 469478, Control_c, 0, 64, 97
1, 469483, Note_on_c, 0, 46, 85
1, 469492, Control_c, 0, 64, 83
1, 469499, Note_on_c, 0, 39, 72
1, 469507, Control_c, 0, 64, 67
1, 469522, Control_c, 0, 64, 0
1, 469538, Note_off_c, 0, 67, 62
1, 469539, Note_on_c, 0, 79, 75
1, 469551, Control_c, 0, 64, 41
1, 469566, Control_c, 0, 64, 60
1, 469579, Note_off_c, 0, 79, 60
1, 469581, Control_c, 0, 64, 66
1, 469595, Control_c, 0, 64, 72
1, 469610, Control_c, 0, 64, 81
1, 469617, Note_on_c, 0, 70, 88
1, 469624, Control_c, 0, 64, 89
1, 469632, Note_on_c, 0, 43, 82
1, 469639, Control_c, 0, 64, 94
1, 469654, Note_off_c, 0, 39, 59
1, 469654, Control_c, 0, 64, 96
1, 469669, Control_c, 0, 64, 97
1, 469684, Control_c, 0, 64, 98
1, 469685, Note_on_c, 0, 82, 83
1, 469688, Note_off_c, 0, 46, 24
1, 469688, Note_off_c, 0, 70, 65
1, 469698, Control_c, 0, 64, 100
1, 469713, Control_c, 0, 64, 102
1, 469731, Note_off_c, 0, 82, 65
1, 469753, Note_on_c, 0, 39, 83
1, 469759, Note_on_c, 0, 75, 94
1, 469761, Note_off_c, 0, 43, 60
1, 469802, Note_off_c, 0, 39, 60
1, 469826, Note_on_c, 0, 87, 92
1, 469831, Control_c, 0, 64, 103
1, 469836, Note_off_c, 0, 75, 62
1, 469846, Control_c, 0, 64, 106
1, 469861, Control_c, 0, 64, 109
1, 469876, Control_c, 0, 64, 110
1, 469884, Note_off_c, 0, 87, 66
1, 469890, Control_c, 0, 64, 95
1, 469898, Note_on_c, 0, 32, 84
1, 469905, Control_c, 0, 64, 76
1, 469908, Note_on_c, 0, 75, 97
1, 469912, Note_on_c, 0, 36, 78
1, 469920, Control_c, 0, 64, 0
1, 469950, Control_c, 0, 64, 32
1, 469965, Control_c, 0, 64, 65
1, 469967, Note_on_c, 0, 87, 99
1, 469977, Note_off_c, 0, 75, 65
1, 469980, Control_c, 0, 64, 76
1, 469995, Control_c, 0, 64, 85
1, 470009, Control_c, 0, 64, 94
1, 470018, Note_off_c, 0, 36, 57
1, 470023, Note_off_c, 0, 32, 59
1, 470024, Control_c, 0, 64, 97
1, 470029, Note_off_c, 0, 87, 66
1, 470042, Note_on_c, 0, 41, 76
1, 470052, Note_on_c, 0, 72, 85
1, 470099, Control_c, 0, 64, 97
1, 470111, Note_off_c, 0, 72, 64
1, 470116, Note_on_c, 0, 84, 90
1, 470139, Note_off_c, 0, 84, 64
1, 470162, Note_on_c, 0, 44, 78
1, 470165, Note_off_c, 0, 41, 63
1, 470173, Control_c, 0, 64, 99
1, 470195, Control_c, 0, 64, 102
1, 470199, Note_on_c, 0, 68, 94
1, 470210, Control_c, 0, 64, 106
1, 470225, Control_c, 0, 64, 114
1, 470239, Control_c, 0, 64, 127
1, 470250, Note_off_c, 0, 68, 65
1, 470266, Note_on_c, 0, 80, 91
1, 470284, Control_c, 0, 64, 107
1, 470293, Note_off_c, 0, 44, 62
1, 470299, Control_c, 0, 64, 86
1, 470302, Note_off_c, 0, 80, 63
1, 470314, Control_c, 0, 64, 67
1, 470324, Note_on_c, 0, 34, 88
1, 470329, Control_c, 0, 64, 44
1, 470341, Note_on_c, 0, 75, 95
1, 470343, Control_c, 0, 64, 52
1, 470358, Control_c, 0, 64, 64
1, 470373, Control_c, 0, 64, 71
1, 470388, Control_c, 0, 64, 79
1, 470401, Note_off_c, 0, 75, 64
1, 470403, Control_c, 0, 64, 90
1, 470409, Note_on_c, 0, 87, 97
1, 470418, Control_c, 0, 64, 101
1, 470433, Control_c, 0, 64, 108
1, 470440, Note_on_c, 0, 85, 51
1, 470447, Control_c, 0, 64, 109
1, 470448, Note_off_c, 0, 87, 68
1, 470468, Note_off_c, 0, 85, 57
1, 470471, Note_on_c, 0, 39, 81
1, 470474, Note_off_c, 0, 34, 58
1, 470477, Control_c, 0, 64, 110
1, 470492, Control_c, 0, 64, 114
1, 470495, Note_on_c, 0, 70, 96
1, 470507, Control_c, 0, 64, 119
1, 470521, Control_c, 0, 64, 122
1, 470552, Note_on_c, 0, 82, 96
1, 470553, Note_off_c, 0, 70, 58
1, 470605, Note_off_c, 0, 82, 65
1, 470606, Note_off_c, 0, 39, 60
1, 470609, Note_on_c, 0, 43, 80
1, 470632, Note_on_c, 0, 67, 93
1, 470639, Control_c, 0, 64, 121
1, 470669, Control_c, 0, 64, 122
1, 470690, Note_off_c, 0, 67, 64
1, 470705, Note_on_c, 0, 79, 83
1, 470713, Control_c, 0, 64, 118
1, 470714, Note_off_c, 0, 43, 63
1, 470725, Note_off_c, 0, 79, 69
1, 470728, Control_c, 0, 64, 98
1, 470743, Note_on_c, 0, 34, 96
1, 470743, Control_c, 0, 64, 74
1, 470758, Control_c, 0, 64, 0
1, 470766, Note_on_c, 0, 70, 96
1, 470826, Note_off_c, 0, 70, 63
1, 470832, Control_c, 0, 64, 56
1, 470834, Note_on_c, 0, 82, 91
1, 470847, Control_c, 0, 64, 68
1, 470862, Control_c, 0, 64, 79
1, 470877, Control_c, 0, 64, 96
1, 470884, Note_off_c, 0, 82, 65
1, 470889, Note_on_c, 0, 41, 86
1, 470892, Control_c, 0, 64, 127
1, 470902, Note_off_c, 0, 34, 57
1, 470904, Note_on_c, 0, 68, 99
1, 470955, Note_on_c, 0, 70, 36
1, 470969, Note_off_c, 0, 68, 56
1, 470976, Note_on_c, 0, 80, 88
1, 470993, Note_off_c, 0, 70, 52
1, 471025, Note_off_c, 0, 80, 65
1, 471029, Note_off_c, 0, 41, 62
1, 471048, Note_on_c, 0, 65, 95
1, 471056, Note_on_c, 0, 46, 86
1, 471112, Note_off_c, 0, 65, 64
1, 471126, Note_on_c, 0, 77, 91
1, 471143, Note_off_c, 0, 77, 67
1, 471255, Note_off_c, 0, 46, 61
1, 471256, Control_c, 0, 64, 93
1, 471270, Control_c, 0, 64, 64
1, 471279, Note_on_c, 0, 39, 99
1, 471282, Note_on_c, 0, 55, 99
1, 471285, Control_c, 0, 64, 0
1, 471329, Control_c, 0, 64, 61
1, 471330, Note_off_c, 0, 39, 61
1, 471344, Control_c, 0, 64, 81
1, 471359, Control_c, 0, 64, 114
1, 471374, Control_c, 0, 64, 127
1, 471396, Note_off_c, 0, 55, 55
1, 471402, Note_on_c, 0, 63, 65
1, 471471, Note_on_c, 0, 58, 85
1, 471475, Note_off_c, 0, 63, 58
1, 471512, Note_on_c, 0, 51, 81
1, 471539, Note_off_c, 0, 58, 66
1, 471545, Note_on_c, 0, 67, 84
1, 471547, Note_off_c, 0, 51, 62
1, 471566, Note_off_c, 0, 67, 69
1, 471626, Note_on_c, 0, 63, 86
1, 471637, Note_on_c, 0, 51, 64
1, 471644, Note_on_c, 0, 58, 65
1, 471649, Note_on_c, 0, 55, 57
1, 471670, Note_off_c, 0, 58, 65
1, 471670, Note_off_c, 0, 51, 65
1, 471674, Note_off_c, 0, 63, 61
1, 471689, Note_off_c, 0, 55, 65
1, 471700, Note_on_c, 0, 70, 77
1, 471745, Note_off_c, 0, 70, 61
1, 471768, Note_on_c, 0, 55, 68
1, 471769, Note_on_c, 0, 58, 68
1, 471770, Note_on_c, 0, 63, 78
1, 471770, Note_on_c, 0, 67, 89
1, 471772, Note_on_c, 0, 51, 59
1, 471813, Note_off_c, 0, 58, 55
1, 471816, Note_off_c, 0, 51, 60
1, 471822, Note_off_c, 0, 63, 60
1, 471822, Note_off_c, 0, 67, 64
1, 471824, Note_off_c, 0, 55, 62
1, 471840, Note_on_c, 0, 75, 85
1, 471911, Note_on_c, 0, 51, 62
1, 471912, Note_on_c, 0, 70, 88
1, 471915, Note_on_c, 0, 55, 64
1, 471915, Note_off_c, 0, 75, 62
1, 471917, Note_on_c, 0, 63, 68
1, 471921, Note_on_c, 0, 58, 65
1, 471948, Note_off_c, 0, 58, 63
1, 471953, Note_off_c, 0, 63, 57
1, 471956, Note_off_c, 0, 51, 61
1, 471965, Note_off_c, 0, 55, 64
1, 471965, Note_off_c, 0, 70, 67
1, 471979, Note_on_c, 0, 79, 84
1, 472013, Note_off_c, 0, 79, 61
1, 472050, Note_on_c, 0, 63, 76
1, 472053, Note_on_c, 0, 58, 67
1, 472054, Note_on_c, 0, 75, 90
1, 472057, Note_on_c, 0, 51, 61
1, 472069, Note_on_c, 0, 55, 60
1, 472099, Note_off_c, 0, 55, 64
1, 472099, Note_off_c, 0, 51, 64
1, 472102, Note_off_c, 0, 63, 59
1, 472104, Note_off_c, 0, 58, 59
1, 472105, Note_off_c, 0, 75, 61
1, 472120, Note_on_c, 0, 82, 88
1, 472166, Note_off_c, 0, 82, 64
1, 472188, Note_on_c, 0, 55, 66
1, 472193, Note_on_c, 0, 51, 65
1, 472195, Note_on_c, 0, 63, 73
1, 472195, Note_on_c, 0, 79, 92
1, 472199, Note_on_c, 0, 58, 66
1, 472238, Note_off_c, 0, 51, 56
1, 472239, Note_off_c, 0, 79, 65
1, 472241, Note_off_c, 0, 58, 62
1, 472243, Note_off_c, 0, 55, 62
1, 472245, Note_off_c, 0, 63, 57
1, 472261, Note_on_c, 0, 87, 87
1, 472328, Note_on_c, 0, 63, 72
1, 472329, Note_on_c, 0, 58, 66
1, 472329, Note_on_c, 0, 82, 97
1, 472329, Note_off_c, 0, 87, 63
1, 472333, Note_on_c, 0, 55, 66
1, 472343, Note_on_c, 0, 51, 64
1, 472376, Note_off_c, 0, 51, 62
1, 472377, Note_off_c, 0, 82, 68
1, 472380, Note_off_c, 0, 63, 59
1, 472386, Note_off_c, 0, 58, 57
1, 472396, Note_off_c, 0, 55, 58
1, 472399, Note_on_c, 0, 91, 74
1, 472403, Note_on_c, 0, 93, 90
1, 472419, Note_off_c, 0, 93, 74
1, 472436, Note_off_c, 0, 91, 66
1, 472472, Note_on_c, 0, 63, 75
1, 472478, Note_on_c, 0, 58, 65
1, 472478, Note_on_c, 0, 55, 61
1, 472481, Note_on_c, 0, 51, 61
1, 472483, Note_on_c, 0, 87, 95
1, 472519, Note_off_c, 0, 55, 64
1, 472525, Note_off_c, 0, 87, 67
1, 472540, Note_off_c, 0, 63, 60
1, 472541, Note_off_c, 0, 58, 60
1, 472542, Note_on_c, 0, 94, 90
1, 472549, Note_off_c, 0, 51, 63
1, 472569, Note_on_c, 0, 95, 65
1, 472575, Control_c, 0, 64, 110
1, 472586, Note_off_c, 0, 95, 67
1, 472590, Note_off_c, 0, 94, 66
1, 472590, Control_c, 0, 64, 81
1, 472605, Control_c, 0, 64, 60
1, 472609, Note_on_c, 0, 62, 83
1, 472610, Note_on_c, 0, 58, 72
1, 472611, Note_on_c, 0, 51, 69
1, 472612, Note_on_c, 0, 56, 82
1, 472613, Note_on_c, 0, 93, 101
1, 472620, Control_c, 0, 64, 0
1, 472649, Control_c, 0, 64, 59
1, 472659, Note_off_c, 0, 93, 69
1, 472663, Note_off_c, 0, 58, 61
1, 472664, Control_c, 0, 64, 69
1, 472668, Note_off_c, 0, 56, 64
1, 472671, Note_off_c, 0, 51, 62
1, 472679, Control_c, 0, 64, 78
1, 472683, Note_on_c, 0, 94, 105
1, 472686, Note_off_c, 0, 62, 57
1, 472694, Control_c, 0, 64, 90
1, 472708, Control_c, 0, 64, 104
1, 472723, Control_c, 0, 64, 122
1, 472738, Control_c, 0, 64, 127
1, 472750, Note_on_c, 0, 56, 78
1, 472751, Note_on_c, 0, 62, 70
1, 472755, Note_on_c, 0, 93, 98
1, 472756, Note_on_c, 0, 58, 74
1, 472758, Note_on_c, 0, 51, 70
1, 472762, Note_off_c, 0, 94, 67
1, 472790, Note_off_c, 0, 58, 57
1, 472799, Note_off_c, 0, 56, 64
1, 472802, Note_off_c, 0, 93, 66
1, 472805, Note_off_c, 0, 51, 55
1, 472807, Note_off_c, 0, 62, 56
1, 472821, Note_on_c, 0, 94, 101
1, 472885, Note_off_c, 0, 94, 63
1, 472890, Note_on_c, 0, 93, 98
1, 472892, Note_on_c, 0, 62, 68
1, 472895, Note_on_c, 0, 56, 74
1, 472896, Note_on_c, 0, 51, 58
1, 472901, Note_on_c, 0, 58, 64
1, 472946, Note_off_c, 0, 62, 61
1, 472952, Note_on_c, 0, 94, 96
1, 472953, Note_off_c, 0, 58, 49
1, 472962, Note_off_c, 0, 56, 61
1, 472970, Note_off_c, 0, 93, 64
1, 472970, Note_off_c, 0, 51, 58
1, 473002, Note_off_c, 0, 94, 66
1, 473034, Control_c, 0, 64, 105
1, 473035, Note_on_c, 0, 96, 110
1, 473041, Note_on_c, 0, 63, 82
1, 473045, Note_on_c, 0, 55, 77
1, 473046, Note_on_c, 0, 58, 77
1, 473048, Note_on_c, 0, 51, 69
1, 473049, Control_c, 0, 64, 81
1, 473064, Control_c, 0, 64, 64
1, 473078, Control_c, 0, 64, 0
1, 473095, Note_off_c, 0, 63, 60
1, 473100, Note_off_c, 0, 58, 60
1, 473106, Note_off_c, 0, 51, 64
1, 473107, Note_off_c, 0, 55, 62
1, 473113, Note_on_c, 0, 94, 93
1, 473123, Control_c, 0, 64, 55
1, 473138, Control_c, 0, 64, 67
1, 473148, Note_off_c, 0, 96, 61
1, 473152, Control_c, 0, 64, 74
1, 473167, Control_c, 0, 64, 79
1, 473188, Note_on_c, 0, 92, 93
1, 473190, Control_c, 0, 64, 82
1, 473199, Note_on_c, 0, 63, 64
1, 473200, Note_on_c, 0, 58, 65
1, 473202, Note_on_c, 0, 55, 65
1, 473205, Control_c, 0, 64, 84
1, 473212, Note_on_c, 0, 51, 54
1, 473220, Control_c, 0, 64, 87
1, 473234, Control_c, 0, 64, 89
1, 473239, Note_off_c, 0, 63, 53
1, 473245, Note_off_c, 0, 51, 63
1, 473246, Note_off_c, 0, 55, 60
1, 473249, Control_c, 0, 64, 90
1, 473251, Note_off_c, 0, 58, 59
1, 473256, Note_off_c, 0, 94, 57
1, 473259, Note_on_c, 0, 91, 95
1, 473294, Note_off_c, 0, 92, 64
1, 473309, Control_c, 0, 64, 91
1, 473324, Note_on_c, 0, 89, 92
1, 473324, Control_c, 0, 64, 93
1, 473328, Note_off_c, 0, 91, 65
1, 473339, Control_c, 0, 64, 95
1, 473340, Note_on_c, 0, 63, 70
1, 473341, Note_on_c, 0, 58, 67
1, 473342, Note_on_c, 0, 51, 57
1, 473351, Note_on_c, 0, 55, 61
1, 473354, Control_c, 0, 64, 96
1, 473381, Note_off_c, 0, 51, 62
1, 473381, Note_off_c, 0, 58, 53
1, 473383, Note_off_c, 0, 55, 64
1, 473384, Note_off_c, 0, 63, 53
1, 473398, Note_on_c, 0, 87, 90
1, 473406, Note_off_c, 0, 89, 55
1, 473470, Note_on_c, 0, 86, 93
1, 473481, Note_on_c, 0, 55, 68
1, 473481, Note_on_c, 0, 63, 72
1, 473485, Note_on_c, 0, 58, 69
1, 473487, Control_c, 0, 64, 95
1, 473492, Note_on_c, 0, 51, 54
1, 473502, Control_c, 0, 64, 91
1, 473517, Note_off_c, 0, 58, 55
1, 473517, Control_c, 0, 64, 88
1, 473518, Note_off_c, 0, 87, 65
1, 473519, Note_off_c, 0, 63, 53
1, 473524, Note_off_c, 0, 51, 65
1, 473525, Note_off_c, 0, 55, 62
1, 473527, Note_off_c, 0, 86, 64
1, 473531, Control_c, 0, 64, 87
1, 473544, Note_on_c, 0, 84, 86
1, 473561, Control_c, 0, 64, 87
1, 473595, Note_off_c, 0, 84, 65
1, 473616, Note_on_c, 0, 82, 86
1, 473620, Note_on_c, 0, 58, 67
1, 473622, Note_on_c, 0, 63, 66
1, 473629, Note_on_c, 0, 51, 47
1, 473631, Note_on_c, 0, 55, 63
1, 473664, Note_off_c, 0, 55, 63
1, 473669, Note_off_c, 0, 51, 62
1, 473670, Note_off_c, 0, 58, 59
1, 473673, Note_off_c, 0, 63, 51
1, 473683, Note_on_c, 0, 80, 86
1, 473694, Control_c, 0, 64, 87
1, 473728, Note_off_c, 0, 82, 58
1, 473754, Control_c, 0, 64, 87
1, 473757, Note_on_c, 0, 79, 89
1, 473765, Note_on_c, 0, 63, 66
1, 473768, Note_on_c, 0, 51, 53
1, 473771, Note_on_c, 0, 55, 63
1, 473774, Note_on_c, 0, 58, 59
1, 473799, Note_off_c, 0, 80, 60
1, 473806, Note_off_c, 0, 51, 62
1, 473807, Note_off_c, 0, 58, 63
1, 473809, Note_off_c, 0, 55, 62
1, 473818, Note_off_c, 0, 63, 52
1, 473820, Note_off_c, 0, 79, 61
1, 473825, Note_on_c, 0, 77, 85
1, 473894, Note_off_c, 0, 77, 56
1, 473898, Note_on_c, 0, 75, 82
1, 473903, Note_on_c, 0, 58, 55
1, 473907, Note_on_c, 0, 63, 74
1, 473908, Note_on_c, 0, 55, 59
1, 473912, Note_on_c, 0, 51, 52
1, 473916, Control_c, 0, 64, 88
1, 473938, Control_c, 0, 64, 89
1, 473948, Note_off_c, 0, 55, 61
1, 473953, Control_c, 0, 64, 90
1, 473955, Note_off_c, 0, 58, 55
1, 473956, Note_off_c, 0, 63, 46
1, 473958, Note_off_c, 0, 51, 63
1, 473968, Note_on_c, 0, 74, 86
1, 473968, Control_c, 0, 64, 90
1, 473983, Control_c, 0, 64, 91
1, 474009, Note_off_c, 0, 75, 63
1, 474022, Note_off_c, 0, 74, 63
1, 474034, Note_on_c, 0, 72, 81
1, 474056, Note_on_c, 0, 55, 70
1, 474063, Note_on_c, 0, 63, 69
1, 474066, Note_on_c, 0, 51, 52
1, 474068, Note_on_c, 0, 58, 65
1, 474097, Note_off_c, 0, 72, 52
1, 474099, Note_off_c, 0, 58, 63
1, 474100, Note_on_c, 0, 70, 84
1, 474102, Note_off_c, 0, 63, 52
1, 474102, Note_off_c, 0, 51, 62
1, 474105, Note_off_c, 0, 55, 60
1, 474162, Note_on_c, 0, 68, 87
1, 474202, Note_on_c, 0, 63, 71
1, 474207, Note_on_c, 0, 51, 57
1, 474209, Note_on_c, 0, 58, 61
1, 474216, Note_off_c, 0, 70, 61
1, 474216, Note_on_c, 0, 55, 63
1, 474230, Note_off_c, 0, 63, 67
1, 474236, Note_on_c, 0, 67, 91
1, 474238, Note_off_c, 0, 58, 63
1, 474242, Note_off_c, 0, 55, 65
1, 474257, Note_off_c, 0, 51, 64
1, 474259, Note_off_c, 0, 68, 63
1, 474266, Control_c, 0, 64, 91
1, 474280, Control_c, 0, 64, 91
1, 474295, Note_on_c, 0, 65, 82
1, 474295, Control_c, 0, 64, 86
1, 474297, Note_off_c, 0, 67, 64
1, 474310, Control_c, 0, 64, 76
1, 474325, Control_c, 0, 64, 63
1, 474332, Note_on_c, 0, 51, 75
1, 474335, Note_on_c, 0, 58, 79
1, 474338, Note_on_c, 0, 56, 79
1, 474340, Control_c, 0, 64, 48
1, 474347, Note_off_c, 0, 65, 65
1, 474355, Control_c, 0, 64, 59
1, 474370, Control_c, 0, 64, 66
1, 474379, Note_off_c, 0, 56, 62
1, 474383, Note_on_c, 0, 63, 87
1, 474383, Note_on_c, 0, 50, 27
1, 474385, Control_c, 0, 64, 73
1, 474391, Note_off_c, 0, 51, 64
1, 474394, Note_off_c, 0, 58, 61
1, 474400, Control_c, 0, 64, 81
1, 474414, Control_c, 0, 64, 90
1, 474429, Note_off_c, 0, 50, 59
1, 474429, Control_c, 0, 64, 97
1, 474443, Note_off_c, 0, 63, 59
1, 474444, Control_c, 0, 64, 103
1, 474446, Note_on_c, 0, 62, 54
1, 474459, Control_c, 0, 64, 109
1, 474474, Control_c, 0, 64, 121
1, 474487, Note_on_c, 0, 51, 74
1, 474488, Control_c, 0, 64, 127
1, 474493, Note_on_c, 0, 56, 66
1, 474497, Note_on_c, 0, 58, 63
1, 474513, Note_on_c, 0, 53, 46
1, 474522, Note_off_c, 0, 56, 64
1, 474523, Note_on_c, 0, 65, 84
1, 474530, Note_off_c, 0, 62, 54
1, 474533, Note_off_c, 0, 58, 53
1, 474541, Note_off_c, 0, 53, 58
1, 474544, Note_off_c, 0, 51, 62
1, 474575, Note_off_c, 0, 65, 62
1, 474599, Note_on_c, 0, 68, 83
1, 474629, Note_on_c, 0, 51, 77
1, 474637, Note_on_c, 0, 56, 58
1, 474639, Note_on_c, 0, 58, 56
1, 474644, Note_on_c, 0, 53, 24
1, 474663, Note_off_c, 0, 56, 66
1, 474667, Note_off_c, 0, 58, 57
1, 474681, Note_on_c, 0, 62, 75
1, 474682, Note_off_c, 0, 68, 58
1, 474683, Note_off_c, 0, 51, 65
1, 474690, Note_on_c, 0, 64, 73
1, 474690, Note_off_c, 0, 53, 57
1, 474707, Note_off_c, 0, 64, 67
1, 474729, Note_off_c, 0, 62, 60
1, 474747, Control_c, 0, 64, 90
1, 474762, Control_c, 0, 64, 62
1, 474768, Note_on_c, 0, 55, 85
1, 474770, Note_on_c, 0, 39, 95
1, 474777, Control_c, 0, 64, 0
1, 474796, Note_off_c, 0, 39, 67
1, 474822, Control_c, 0, 64, 68
1, 474837, Control_c, 0, 64, 78
1, 474848, Note_on_c, 0, 63, 81
1, 474848, Note_off_c, 0, 55, 59
1, 474852, Control_c, 0, 64, 84
1, 474868, Control_c, 0, 64, 86
1, 474920, Note_on_c, 0, 58, 85
1, 474923, Note_off_c, 0, 63, 60
1, 474927, Control_c, 0, 64, 87
1, 474942, Control_c, 0, 64, 88
1, 474956, Note_on_c, 0, 51, 72
1, 474956, Control_c, 0, 64, 89
1, 474991, Note_off_c, 0, 51, 60
1, 474991, Note_on_c, 0, 67, 85
1, 474992, Note_off_c, 0, 58, 65
1, 475001, Control_c, 0, 64, 90
1, 475025, Note_off_c, 0, 67, 62
1, 475071, Note_on_c, 0, 51, 69
1, 475075, Note_on_c, 0, 63, 87
1, 475099, Note_on_c, 0, 55, 58
1, 475107, Note_on_c, 0, 58, 44
1, 475129, Note_off_c, 0, 63, 62
1, 475131, Note_off_c, 0, 51, 60
1, 475134, Note_off_c, 0, 55, 63
1, 475134, Note_off_c, 0, 58, 57
1, 475143, Note_on_c, 0, 70, 82
1, 475196, Note_off_c, 0, 70, 63
1, 475208, Note_on_c, 0, 58, 67
1, 475208, Control_c, 0, 64, 91
1, 475217, Note_on_c, 0, 55, 69
1, 475220, Note_on_c, 0, 67, 89
1, 475223, Note_on_c, 0, 63, 72
1, 475223, Control_c, 0, 64, 93
1, 475225, Note_on_c, 0, 51, 65
1, 475238, Control_c, 0, 64, 96
1, 475253, Control_c, 0, 64, 99
1, 475253, Note_off_c, 0, 63, 62
1, 475261, Note_off_c, 0, 51, 61
1, 475262, Note_off_c, 0, 58, 63
1, 475268, Control_c, 0, 64, 102
1, 475270, Note_off_c, 0, 55, 59
1, 475273, Note_off_c, 0, 67, 63
1, 475282, Control_c, 0, 64, 104
1, 475290, Note_on_c, 0, 75, 88
1, 475297, Control_c, 0, 64, 106
1, 475312, Control_c, 0, 64, 112
1, 475327, Control_c, 0, 64, 126
1, 475342, Control_c, 0, 64, 127
1, 475363, Note_on_c, 0, 51, 65
1, 475366, Note_on_c, 0, 70, 91
1, 475367, Note_on_c, 0, 63, 62
1, 475368, Note_on_c, 0, 58, 69
1, 475374, Note_off_c, 0, 75, 62
1, 475375, Note_on_c, 0, 55, 65
1, 475397, Note_off_c, 0, 63, 61
1, 475404, Note_off_c, 0, 58, 51
1, 475408, Note_off_c, 0, 55, 63
1, 475410, Note_off_c, 0, 51, 59
1, 475438, Note_off_c, 0, 70, 65
1, 475444, Note_on_c, 0, 79, 81
1, 475466, Note_off_c, 0, 79, 68
1, 475512, Note_on_c, 0, 63, 70
1, 475514, Note_on_c, 0, 58, 72
1, 475517, Note_on_c, 0, 55, 61
1, 475520, Note_on_c, 0, 75, 82
1, 475524, Note_on_c, 0, 51, 61
1, 475557, Note_off_c, 0, 55, 60
1, 475557, Note_off_c, 0, 63, 57
1, 475558, Note_off_c, 0, 51, 61
1, 475564, Note_off_c, 0, 58, 60
1, 475574, Note_off_c, 0, 75, 63
1, 475581, Note_on_c, 0, 82, 91
1, 475632, Note_off_c, 0, 82, 63
1, 475653, Note_on_c, 0, 63, 76
1, 475655, Note_on_c, 0, 51, 62
1, 475660, Note_on_c, 0, 79, 91
1, 475661, Note_on_c, 0, 58, 71
1, 475663, Note_on_c, 0, 55, 71
1, 475706, Note_off_c, 0, 63, 60
1, 475707, Note_off_c, 0, 55, 59
1, 475709, Note_off_c, 0, 79, 64
1, 475712, Note_off_c, 0, 51, 59
1, 475713, Note_off_c, 0, 58, 59
1, 475730, Note_on_c, 0, 87, 93
1, 475774, Poly_aftertouch_c, 0, 77, 0
1, 475802, Note_on_c, 0, 63, 76
1, 475802, Note_on_c, 0, 82, 98
1, 475811, Note_on_c, 0, 51, 65
1, 475812, Note_on_c, 0, 58, 70
1, 475814, Note_on_c, 0, 55, 68
1, 475816, Note_off_c, 0, 87, 65
1, 475852, Note_off_c, 0, 63, 60
1, 475854, Note_off_c, 0, 82, 68
1, 475866, Note_on_c, 0, 91, 94
1, 475867, Note_off_c, 0, 51, 56
1, 475869, Note_off_c, 0, 58, 51
1, 475870, Note_off_c, 0, 55, 58
1, 475902, Note_off_c, 0, 91, 68
1, 475942, Note_on_c, 0, 63, 84
1, 475944, Note_on_c, 0, 87, 94
1, 475949, Note_on_c, 0, 58, 65
1, 475954, Note_on_c, 0, 51, 70
1, 475956, Note_on_c, 0, 55, 66
1, 475981, Note_off_c, 0, 55, 66
1, 475991, Note_off_c, 0, 87, 64
1, 476006, Note_on_c, 0, 94, 96
1, 476007, Note_off_c, 0, 58, 60
1, 476011, Note_off_c, 0, 63, 57
1, 476019, Note_off_c, 0, 51, 62
1, 476032, Control_c, 0, 64, 108
1, 476047, Control_c, 0, 64, 88
1, 476058, Note_off_c, 0, 94, 64
1, 476061, Control_c, 0, 64, 71
1, 476076, Control_c, 0, 64, 62
1, 476080, Note_on_c, 0, 62, 83
1, 476082, Note_on_c, 0, 93, 104
1, 476082, Note_on_c, 0, 51, 77
1, 476082, Note_on_c, 0, 56, 86
1, 476083, Note_on_c, 0, 58, 79
1, 476091, Control_c, 0, 64, 64
1, 476105, Control_c, 0, 64, 67
1, 476120, Control_c, 0, 64, 73
1, 476128, Note_off_c, 0, 93, 70
1, 476135, Note_off_c, 0, 58, 61
1, 476135, Control_c, 0, 64, 83
1, 476145, Note_off_c, 0, 56, 64
1, 476147, Note_off_c, 0, 62, 58
1, 476150, Control_c, 0, 64, 95
1, 476153, Note_off_c, 0, 51, 61
1, 476155, Note_on_c, 0, 94, 102
1, 476165, Control_c, 0, 64, 113
1, 476187, Control_c, 0, 64, 127
1, 476235, Note_on_c, 0, 56, 73
1, 476236, Note_on_c, 0, 93, 102
1, 476243, Note_on_c, 0, 51, 71
1, 476243, Note_on_c, 0, 58, 74
1, 476243, Note_off_c, 0, 94, 66
1, 476246, Note_on_c, 0, 62, 72
1, 476277, Note_off_c, 0, 93, 68
1, 476292, Note_off_c, 0, 56, 63
1, 476299, Note_off_c, 0, 58, 60
1, 476299, Note_off_c, 0, 62, 60
1, 476303, Note_on_c, 0, 94, 98
1, 476305, Note_off_c, 0, 51, 59
1, 476362, Note_off_c, 0, 94, 62
1, 476365, Note_on_c, 0, 93, 92
1, 476385, Note_on_c, 0, 56, 78
1, 476385, Note_on_c, 0, 62, 68
1, 476386, Note_on_c, 0, 51, 64
1, 476392, Note_on_c, 0, 58, 61
1, 476430, Note_on_c, 0, 94, 96
1, 476435, Note_off_c, 0, 62, 62
1, 476452, Note_off_c, 0, 51, 54
1, 476454, Note_off_c, 0, 93, 67
1, 476460, Note_off_c, 0, 58, 51
1, 476462, Note_off_c, 0, 56, 62
1, 476480, Note_off_c, 0, 94, 67
1, 476514, Control_c, 0, 64, 93
1, 476517, Note_on_c, 0, 96, 103
1, 476528, Note_on_c, 0, 63, 87
1, 476528, Control_c, 0, 64, 70
1, 476531, Note_on_c, 0, 58, 73
1, 476534, Note_on_c, 0, 55, 75
1, 476538, Note_on_c, 0, 51, 66
1, 476543, Control_c, 0, 64, 0
1, 476573, Control_c, 0, 64, 55
1, 476582, Note_off_c, 0, 63, 58
1, 476588, Control_c, 0, 64, 67
1, 476591, Note_off_c, 0, 55, 62
1, 476592, Note_off_c, 0, 51, 56
1, 476595, Note_off_c, 0, 58, 61
1, 476600, Note_on_c, 0, 94, 94
1, 476602, Control_c, 0, 64, 74
1, 476617, Control_c, 0, 64, 81
1, 476632, Note_off_c, 0, 96, 64
1, 476632, Control_c, 0, 64, 86
1, 476647, Control_c, 0, 64, 90
1, 476662, Control_c, 0, 64, 94
1, 476672, Note_on_c, 0, 92, 93
1, 476676, Control_c, 0, 64, 99
1, 476681, Note_on_c, 0, 63, 73
1, 476686, Note_on_c, 0, 58, 67
1, 476691, Control_c, 0, 64, 104
1, 476692, Note_on_c, 0, 51, 58
1, 476704, Note_on_c, 0, 55, 48
1, 476706, Control_c, 0, 64, 110
1, 476712, Note_off_c, 0, 63, 58
1, 476719, Note_off_c, 0, 94, 60
1, 476720, Note_off_c, 0, 58, 52
1, 476721, Control_c, 0, 64, 114
1, 476725, Note_off_c, 0, 51, 65
1, 476730, Note_off_c, 0, 55, 57
1, 476735, Control_c, 0, 64, 123
1, 476737, Note_on_c, 0, 91, 93
1, 476750, Control_c, 0, 64, 127
1, 476776, Note_off_c, 0, 92, 64
1, 476811, Note_off_c, 0, 91, 68
1, 476812, Note_on_c, 0, 89, 90
1, 476815, Note_on_c, 0, 55, 62
1, 476816, Note_on_c, 0, 58, 75
1, 476821, Note_on_c, 0, 51, 60
1, 476821, Note_on_c, 0, 63, 74
1, 476853, Note_off_c, 0, 55, 59
1, 476855, Note_off_c, 0, 51, 63
1, 476858, Note_off_c, 0, 63, 58
1, 476859, Note_off_c, 0, 58, 58
1, 476863, Note_off_c, 0, 89, 59
1, 476889, Note_on_c, 0, 87, 92
1, 476960, Note_on_c, 0, 63, 74
1, 476967, Note_on_c, 0, 51, 58
1, 476968, Note_on_c, 0, 86, 91
1, 476969, Note_on_c, 0, 58, 68
1, 476974, Note_on_c, 0, 55, 62
1, 476997, Note_off_c, 0, 58, 59
1, 477004, Note_off_c, 0, 55, 64
1, 477005, Note_off_c, 0, 51, 64
1, 477011, Note_off_c, 0, 63, 57
1, 477012, Note_off_c, 0, 87, 64
1, 477024, Note_off_c, 0, 86, 64
1, 477042, Note_on_c, 0, 84, 86
1, 477053, Control_c, 0, 64, 123
1, 477083, Control_c, 0, 64, 122
1, 477086, Note_off_c, 0, 84, 66
1, 477098, Control_c, 0, 64, 121
1, 477108, Note_on_c, 0, 63, 72
1, 477112, Note_on_c, 0, 58, 60
1, 477112, Note_on_c, 0, 82, 85
1, 477116, Note_on_c, 0, 55, 48
1, 477119, Note_on_c, 0, 51, 61
1, 477144, Note_off_c, 0, 63, 52
1, 477149, Note_off_c, 0, 55, 64
1, 477149, Note_off_c, 0, 58, 62
1, 477153, Note_off_c, 0, 51, 63
1, 477171, Note_on_c, 0, 80, 86
1, 477214, Note_off_c, 0, 82, 63
1, 477241, Note_on_c, 0, 79, 84
1, 477247, Note_on_c, 0, 63, 71
1, 477252, Note_on_c, 0, 58, 57
1, 477255, Note_on_c, 0, 51, 55
1, 477256, Note_on_c, 0, 55, 56
1, 477269, Note_off_c, 0, 80, 62
1, 477277, Control_c, 0, 64, 120
1, 477279, Note_off_c, 0, 63, 64
1, 477285, Note_off_c, 0, 58, 63
1, 477298, Note_off_c, 0, 51, 57
1, 477298, Note_off_c, 0, 55, 62
1, 477301, Note_off_c, 0, 79, 60
1, 477303, Note_on_c, 0, 77, 78
1, 477322, Control_c, 0, 64, 119
1, 477334, Note_off_c, 0, 77, 60
1, 477337, Control_c, 0, 64, 117
1, 477351, Control_c, 0, 64, 114
1, 477363, Note_on_c, 0, 75, 85
1, 477366, Control_c, 0, 64, 114
1, 477387, Note_on_c, 0, 55, 70
1, 477388, Note_on_c, 0, 58, 68
1, 477393, Note_on_c, 0, 51, 70
1, 477411, Control_c, 0, 64, 114
1, 477420, Note_on_c, 0, 74, 84
1, 477429, Note_off_c, 0, 58, 61
1, 477440, Control_c, 0, 64, 118
1, 477444, Note_off_c, 0, 75, 64
1, 477447, Note_off_c, 0, 55, 60
1, 477449, Note_off_c, 0, 51, 62
1, 477455, Control_c, 0, 64, 126
1, 477465, Note_on_c, 0, 72, 81
1, 477470, Control_c, 0, 64, 127
1, 477471, Note_off_c, 0, 74, 65
1, 477500, Note_off_c, 0, 72, 60
1, 477527, Note_on_c, 0, 70, 83
1, 477535, Note_on_c, 0, 51, 68
1, 477538, Note_on_c, 0, 58, 70
1, 477539, Note_on_c, 0, 55, 71
1, 477558, Control_c, 0, 64, 122
1, 477562, Note_on_c, 0, 68, 81
1, 477573, Control_c, 0, 64, 118
1, 477588, Control_c, 0, 64, 115
1, 477590, Note_off_c, 0, 58, 57
1, 477602, Poly_aftertouch_c, 0, 71, 127
1, 477606, Note_off_c, 0, 51, 63
1, 477612, Note_off_c, 0, 55, 58
1, 477613, Note_on_c, 0, 67, 77
1, 477614, Note_off_c, 0, 70, 64
1, 477624, Poly_aftertouch_c, 0, 71, 0
1, 477635, Note_off_c, 0, 68, 63
1, 477655, Note_on_c, 0, 65, 78
1, 477659, Note_off_c, 0, 67, 60
1, 477688, Note_off_c, 0, 65, 67
1, 477691, Note_on_c, 0, 51, 73
1, 477693, Note_on_c, 0, 58, 75
1, 477712, Note_off_c, 0, 58, 68
1, 477720, Note_off_c, 0, 51, 69
1, 477724, Note_on_c, 0, 63, 89
1, 477744, Control_c, 0, 64, 115
1, 477772, Note_on_c, 0, 62, 80
1, 477773, Control_c, 0, 64, 111
1, 477788, Control_c, 0, 64, 86
1, 477796, Note_off_c, 0, 63, 63
1, 477803, Control_c, 0, 64, 64
1, 477818, Control_c, 0, 64, 0
1, 477820, Note_on_c, 0, 60, 82
1, 477822, Note_off_c, 0, 62, 63
1, 477831, Note_on_c, 0, 41, 79
1, 477831, Note_on_c, 0, 53, 86
1, 477837, Note_on_c, 0, 51, 65
1, 477847, Control_c, 0, 64, 63
1, 477852, Note_on_c, 0, 43, 61
1, 477861, Note_on_c, 0, 52, 51
1, 477862, Control_c, 0, 64, 77
1, 477867, Note_off_c, 0, 60, 64
1, 477868, Note_off_c, 0, 51, 66
1, 477876, Control_c, 0, 64, 94
1, 477878, Note_off_c, 0, 43, 58
1, 477880, Note_off_c, 0, 53, 55
1, 477884, Note_off_c, 0, 41, 62
1, 477891, Note_off_c, 0, 52, 59
1, 477891, Control_c, 0, 64, 105
1, 477906, Control_c, 0, 64, 106
1, 477911, Note_on_c, 0, 58, 69
1, 477951, Control_c, 0, 64, 106
1, 477960, Note_off_c, 0, 58, 61
1, 477961, Note_on_c, 0, 57, 77
1, 477966, Control_c, 0, 64, 109
1, 477975, Note_on_c, 0, 53, 80
1, 477975, Note_on_c, 0, 51, 73
1, 477978, Note_on_c, 0, 41, 82
1, 477980, Control_c, 0, 64, 114
1, 477995, Control_c, 0, 64, 122
1, 478010, Control_c, 0, 64, 127
1, 478013, Note_off_c, 0, 51, 63
1, 478017, Note_off_c, 0, 53, 60
1, 478022, Note_off_c, 0, 41, 61
1, 478046, Note_on_c, 0, 60, 82
1, 478054, Note_off_c, 0, 57, 56
1, 478117, Note_on_c, 0, 53, 81
1, 478118, Note_on_c, 0, 41, 83
1, 478120, Note_on_c, 0, 51, 79
1, 478121, Note_on_c, 0, 63, 86
1, 478137, Note_off_c, 0, 60, 64
1, 478144, Control_c, 0, 64, 112
1, 478145, Note_off_c, 0, 51, 70
1, 478157, Note_off_c, 0, 53, 62
1, 478159, Control_c, 0, 64, 88
1, 478168, Note_off_c, 0, 41, 64
1, 478174, Control_c, 0, 64, 67
1, 478186, Note_on_c, 0, 57, 86
1, 478189, Control_c, 0, 64, 0
1, 478192, Note_off_c, 0, 63, 63
1, 478240, Note_off_c, 0, 57, 65
1, 478276, Note_on_c, 0, 46, 111
1, 478276, Note_on_c, 0, 58, 109
1, 478278, Note_on_c, 0, 34, 98
1, 478299, Note_off_c, 0, 46, 66
1, 478301, Note_off_c, 0, 34, 67
1, 478304, Note_off_c, 0, 58, 70
1, 478307, Control_c, 0, 64, 65
1, 478322, Control_c, 0, 64, 79
1, 478337, Control_c, 0, 64, 96
1, 478352, Control_c, 0, 64, 118
1, 478367, Control_c, 0, 64, 127
1, 478755, Note_on_c, 0, 70, 100
1, 478764, Note_on_c, 0, 58, 97
1, 478794, Note_off_c, 0, 70, 71
1, 479222, Note_on_c, 0, 73, 105
1, 479223, Note_on_c, 0, 61, 95
1, 479264, Note_off_c, 0, 58, 63
1, 479269, Note_off_c, 0, 73, 69
1, 479670, Note_on_c, 0, 78, 108
1, 479675, Note_on_c, 0, 66, 98
1, 479683, Note_off_c, 0, 61, 58
1, 479721, Note_off_c, 0, 78, 68
1, 480049, Note_off_c, 0, 66, 54
1, 480106, Note_on_c, 0, 73, 109
1, 480117, Note_on_c, 0, 61, 97
1, 480159, Note_off_c, 0, 73, 67
1, 480550, Note_on_c, 0, 70, 101
1, 480559, Note_on_c, 0, 58, 90
1, 480565, Note_off_c, 0, 61, 59
1, 480602, Note_off_c, 0, 70, 68
1, 480681, Note_off_c, 0, 58, 64
1, 480988, Note_on_c, 0, 66, 98
1, 480993, Note_on_c, 0, 54, 92
1, 481071, Note_off_c, 0, 66, 59
1, 481137, Note_off_c, 0, 54, 59
1, 481432, Note_on_c, 0, 49, 101
1, 481432, Note_on_c, 0, 61, 99
1, 481475, Note_off_c, 0, 49, 67
1, 481483, Note_off_c, 0, 61, 66
1, 481740, Control_c, 0, 64, 112
1, 481755, Control_c, 0, 64, 78
1, 481770, Control_c, 0, 64, 0
1, 481854, Note_on_c, 0, 57, 97
1, 481856, Note_on_c, 0, 45, 104
1, 481856, Note_on_c, 0, 33, 92
1, 481859, Control_c, 0, 64, 71
1, 481874, Control_c, 0, 64, 127
1, 481891, Note_off_c, 0, 33, 62
1, 481899, Note_off_c, 0, 57, 69
1, 481902, Note_off_c, 0, 45, 68
1, 482294, Note_on_c, 0, 69, 100
1, 482300, Note_on_c, 0, 57, 97
1, 482341, Note_off_c, 0, 69, 70
1, 482729, Note_on_c, 0, 72, 102
1, 482729, Note_on_c, 0, 60, 96
1, 482768, Note_off_c, 0, 57, 60
1, 482777, Note_off_c, 0, 72, 69
1, 483156, Note_on_c, 0, 77, 105
1, 483162, Note_on_c, 0, 65, 93
1, 483167, Note_off_c, 0, 60, 58
1, 483196, Note_off_c, 0, 77, 70
1, 483469, Note_off_c, 0, 65, 58
1, 483583, Note_on_c, 0, 72, 99
1, 483591, Note_on_c, 0, 60, 92
1, 483648, Note_off_c, 0, 72, 65
1, 484016, Note_on_c, 0, 69, 99
1, 484026, Note_on_c, 0, 57, 85
1, 484056, Note_off_c, 0, 60, 65
1, 484073, Note_off_c, 0, 69, 69
1, 484136, Note_off_c, 0, 57, 64
1, 484476, Note_on_c, 0, 65, 94
1, 484484, Note_on_c, 0, 53, 86
1, 484529, Note_off_c, 0, 65, 67
1, 484595, Note_off_c, 0, 53, 63
1, 484912, Note_on_c, 0, 60, 89
1, 484917, Note_on_c, 0, 48, 70
1, 484956, Note_off_c, 0, 60, 68
1, 484966, Note_off_c, 0, 48, 61
1, 485172, Control_c, 0, 67, 9
1, 485187, Control_c, 0, 67, 15
1, 485201, Control_c, 0, 67, 23
1, 485216, Control_c, 0, 67, 30
1, 485231, Control_c, 0, 67, 33
1, 485247, Control_c, 0, 67, 34
1, 485262, Control_c, 0, 67, 38
1, 485277, Control_c, 0, 67, 45
1, 485291, Control_c, 0, 67, 49
1, 485306, Control_c, 0, 67, 52
1, 485321, Control_c, 0, 67, 58
1, 485334, Note_on_c, 0, 73, 82
1, 485336, Control_c, 0, 67, 67
1, 485338, Note_on_c, 0, 66, 68
1, 485344, Note_on_c, 0, 58, 59
1, 485349, Note_on_c, 0, 61, 54
1, 485351, Control_c, 0, 67, 78
1, 485361, Note_off_c, 0, 73, 65
1, 485365, Control_c, 0, 64, 93
1, 485365, Control_c, 0, 67, 90
1, 485373, Note_off_c, 0, 61, 63
1, 485376, Note_off_c, 0, 58, 64
1, 485378, Note_off_c, 0, 66, 56
1, 485380, Control_c, 0, 64, 75
1, 485380, Control_c, 0, 67, 99
1, 485395, Control_c, 0, 64, 47
1, 485395, Control_c, 0, 67, 104
1, 485410, Control_c, 0, 64, 0
1, 485410, Control_c, 0, 67, 107
1, 485425, Control_c, 0, 67, 110
1, 485439, Control_c, 0, 67, 113
1, 485454, Control_c, 0, 67, 118
1, 485469, Control_c, 0, 67, 121
1, 485484, Control_c, 0, 67, 122
1, 485486, Note_on_c, 0, 58, 44
1, 485492, Note_on_c, 0, 66, 48
1, 485498, Control_c, 0, 67, 122
1, 485499, Note_on_c, 0, 61, 35
1, 485521, Note_off_c, 0, 58, 63
1, 485523, Note_off_c, 0, 66, 56
1, 485531, Note_off_c, 0, 61, 51
1, 485588, Control_c, 0, 64, 40
1, 485603, Control_c, 0, 64, 43
1, 485609, Note_on_c, 0, 84, 65
1, 485614, Note_on_c, 0, 61, 57
1, 485615, Note_on_c, 0, 66, 54
1, 485615, Note_on_c, 0, 58, 58
1, 485618, Control_c, 0, 64, 50
1, 485632, Control_c, 0, 64, 60
1, 485647, Control_c, 0, 64, 63
1, 485647, Note_on_c, 0, 82, 75
1, 485648, Note_off_c, 0, 61, 63
1, 485650, Note_off_c, 0, 58, 63
1, 485653, Note_off_c, 0, 66, 60
1, 485661, Note_off_c, 0, 84, 62
1, 485677, Control_c, 0, 64, 62
1, 485677, Control_c, 0, 67, 122
1, 485689, Note_off_c, 0, 82, 63
1, 485691, Control_c, 0, 67, 121
1, 485697, Note_on_c, 0, 81, 75
1, 485706, Control_c, 0, 64, 63
1, 485706, Control_c, 0, 67, 121
1, 485721, Control_c, 0, 64, 63
1, 485750, Note_on_c, 0, 61, 53
1, 485752, Note_on_c, 0, 66, 51
1, 485752, Note_on_c, 0, 58, 59
1, 485755, Note_on_c, 0, 82, 74
1, 485756, Note_off_c, 0, 81, 65
1, 485765, Control_c, 0, 67, 120
1, 485779, Note_off_c, 0, 82, 67
1, 485780, Control_c, 0, 64, 64
1, 485780, Control_c, 0, 67, 119
1, 485784, Note_off_c, 0, 58, 63
1, 485784, Note_off_c, 0, 61, 63
1, 485784, Note_off_c, 0, 66, 57
1, 485795, Control_c, 0, 64, 64
1, 485810, Control_c, 0, 64, 65
1, 485825, Control_c, 0, 64, 65
1, 485869, Control_c, 0, 67, 119
1, 485877, Note_on_c, 0, 58, 58
1, 485883, Note_on_c, 0, 66, 51
1, 485883, Control_c, 0, 67, 118
1, 485884, Note_on_c, 0, 61, 57
1, 485923, Note_off_c, 0, 61, 63
1, 485924, Note_off_c, 0, 58, 60
1, 485928, Note_off_c, 0, 66, 60
1, 485936, Control_c, 0, 64, 65
1, 485951, Control_c, 0, 64, 64
1, 485965, Control_c, 0, 64, 65
1, 485995, Control_c, 0, 64, 65
1, 486010, Control_c, 0, 64, 65
1, 486015, Note_on_c, 0, 87, 83
1, 486016, Note_on_c, 0, 66, 60
1, 486019, Note_on_c, 0, 61, 56
1, 486025, Note_on_c, 0, 58, 58
1, 486053, Note_on_c, 0, 85, 83
1, 486056, Control_c, 0, 67, 118
1, 486058, Note_off_c, 0, 58, 64
1, 486058, Note_off_c, 0, 61, 64
1, 486062, Note_off_c, 0, 66, 53
1, 486077, Note_off_c, 0, 87, 65
1, 486099, Note_on_c, 0, 84, 74
1, 486100, Control_c, 0, 64, 64
1, 486100, Control_c, 0, 67, 117
1, 486103, Note_off_c, 0, 85, 66
1, 486114, Control_c, 0, 67, 116
1, 486149, Note_on_c, 0, 58, 58
1, 486150, Note_on_c, 0, 61, 64
1, 486157, Note_on_c, 0, 85, 90
1, 486159, Control_c, 0, 64, 65
1, 486163, Note_on_c, 0, 66, 56
1, 486164, Note_off_c, 0, 84, 66
1, 486190, Note_off_c, 0, 58, 60
1, 486190, Note_off_c, 0, 61, 61
1, 486194, Note_off_c, 0, 85, 67
1, 486196, Note_off_c, 0, 66, 61
1, 486218, Control_c, 0, 64, 65
1, 486247, Control_c, 0, 67, 117
1, 486283, Note_on_c, 0, 58, 64
1, 486285, Note_on_c, 0, 66, 59
1, 486295, Note_on_c, 0, 61, 64
1, 486321, Note_off_c, 0, 66, 58
1, 486322, Note_off_c, 0, 61, 65
1, 486326, Note_off_c, 0, 58, 59
1, 486336, Control_c, 0, 64, 66
1, 486366, Control_c, 0, 64, 65
1, 486396, Control_c, 0, 64, 66
1, 486411, Note_on_c, 0, 61, 59
1, 486416, Note_on_c, 0, 92, 86
1, 486419, Note_on_c, 0, 66, 55
1, 486422, Note_on_c, 0, 58, 63
1, 486425, Control_c, 0, 64, 65
1, 486453, Note_off_c, 0, 58, 62
1, 486455, Note_on_c, 0, 90, 81
1, 486458, Note_off_c, 0, 61, 62
1, 486458, Note_off_c, 0, 66, 58
1, 486470, Control_c, 0, 64, 66
1, 486476, Note_off_c, 0, 92, 67
1, 486486, Note_on_c, 0, 89, 89
1, 486503, Note_off_c, 0, 90, 66
1, 486529, Control_c, 0, 64, 66
1, 486543, Note_on_c, 0, 90, 88
1, 486544, Control_c, 0, 64, 67
1, 486554, Note_on_c, 0, 58, 62
1, 486557, Note_on_c, 0, 61, 61
1, 486557, Note_on_c, 0, 66, 55
1, 486559, Control_c, 0, 64, 67
1, 486560, Note_off_c, 0, 89, 65
1, 486579, Note_off_c, 0, 90, 67
1, 486583, Note_off_c, 0, 66, 57
1, 486584, Note_off_c, 0, 58, 64
1, 486585, Note_off_c, 0, 61, 65
1, 486588, Control_c, 0, 64, 67
1, 486603, Control_c, 0, 67, 117
1, 486618, Control_c, 0, 64, 67
1, 486618, Control_c, 0, 67, 118
1, 486694, Note_on_c, 0, 61, 55
1, 486700, Note_on_c, 0, 66, 45
1, 486700, Control_c, 0, 64, 68
1, 486700, Control_c, 0, 67, 118
1, 486703, Note_on_c, 0, 58, 51
1, 486714, Control_c, 0, 64, 69
1, 486729, Control_c, 0, 64, 69
1, 486729, Note_off_c, 0, 61, 63
1, 486732, Note_off_c, 0, 58, 64
1, 486732, Note_off_c, 0, 66, 53
1, 486759, Control_c, 0, 67, 119
1, 486788, Control_c, 0, 64, 70
1, 486826, Note_on_c, 0, 61, 58
1, 486828, Note_on_c, 0, 87, 59
1, 486829, Note_on_c, 0, 66, 51
1, 486834, Note_on_c, 0, 58, 45
1, 486855, Note_on_c, 0, 85, 73
1, 486862, Control_c, 0, 64, 69
1, 486866, Note_off_c, 0, 58, 63
1, 486866, Note_off_c, 0, 61, 61
1, 486867, Note_off_c, 0, 66, 59
1, 486873, Note_off_c, 0, 87, 63
1, 486877, Control_c, 0, 64, 69
1, 486887, Note_off_c, 0, 85, 63
1, 486892, Control_c, 0, 64, 68
1, 486892, Control_c, 0, 67, 118
1, 486905, Note_on_c, 0, 84, 69
1, 486936, Control_c, 0, 64, 68
1, 486951, Control_c, 0, 64, 68
1, 486958, Note_on_c, 0, 85, 76
1, 486959, Note_off_c, 0, 84, 63
1, 486961, Note_on_c, 0, 58, 46
1, 486965, Note_on_c, 0, 66, 43
1, 486966, Note_on_c, 0, 61, 57
1, 486981, Control_c, 0, 64, 67
1, 486984, Note_off_c, 0, 85, 62
1, 486995, Note_off_c, 0, 58, 62
1, 486996, Control_c, 0, 64, 68
1, 486997, Note_off_c, 0, 61, 64
1, 486999, Note_off_c, 0, 66, 53
1, 487025, Control_c, 0, 67, 119
1, 487055, Control_c, 0, 64, 67
1, 487055, Control_c, 0, 67, 119
1, 487069, Control_c, 0, 67, 120
1, 487084, Control_c, 0, 64, 68
1, 487090, Note_on_c, 0, 61, 55
1, 487093, Note_on_c, 0, 66, 48
1, 487099, Note_on_c, 0, 58, 39
1, 487125, Note_off_c, 0, 61, 62
1, 487126, Note_off_c, 0, 66, 55
1, 487128, Note_off_c, 0, 58, 58
1, 487159, Control_c, 0, 64, 67
1, 487216, Note_on_c, 0, 84, 65
1, 487218, Note_on_c, 0, 58, 46
1, 487218, Note_on_c, 0, 61, 55
1, 487224, Note_on_c, 0, 66, 47
1, 487233, Control_c, 0, 64, 67
1, 487255, Note_off_c, 0, 58, 61
1, 487257, Note_off_c, 0, 84, 61
1, 487257, Note_on_c, 0, 82, 66
1, 487258, Note_off_c, 0, 61, 61
1, 487259, Note_off_c, 0, 66, 55
1, 487277, Control_c, 0, 67, 119
1, 487291, Note_off_c, 0, 82, 63
1, 487305, Note_on_c, 0, 81, 68
1, 487336, Control_c, 0, 64, 66
1, 487354, Note_on_c, 0, 82, 72
1, 487359, Note_on_c, 0, 66, 46
1, 487359, Note_off_c, 0, 81, 64
1, 487360, Note_on_c, 0, 58, 45
1, 487361, Note_on_c, 0, 61, 55
1, 487366, Control_c, 0, 64, 67
1, 487385, Note_off_c, 0, 82, 63
1, 487392, Note_off_c, 0, 58, 61
1, 487392, Note_off_c, 0, 61, 64
1, 487395, Note_off_c, 0, 66, 53
1, 487477, Control_c, 0, 64, 66
1, 487492, Control_c, 0, 64, 67
1, 487494, Note_on_c, 0, 61, 52
1, 487500, Note_on_c, 0, 66, 50
1, 487501, Note_on_c, 0, 58, 43
1, 487522, Control_c, 0, 67, 119
1, 487532, Note_off_c, 0, 58, 58
1, 487534, Note_off_c, 0, 61, 61
1, 487537, Note_off_c, 0, 66, 57
1, 487567, Control_c, 0, 67, 118
1, 487582, Control_c, 0, 67, 118
1, 487626, Control_c, 0, 64, 67
1, 487631, Note_on_c, 0, 80, 55
1, 487636, Note_on_c, 0, 61, 57
1, 487636, Note_on_c, 0, 66, 52
1, 487638, Note_on_c, 0, 58, 43
1, 487642, Control_c, 0, 64, 68
1, 487664, Note_on_c, 0, 78, 67
1, 487674, Note_off_c, 0, 58, 62
1, 487674, Note_off_c, 0, 61, 61
1, 487674, Note_off_c, 0, 80, 61
1, 487677, Note_off_c, 0, 66, 59
1, 487695, Note_off_c, 0, 78, 62
1, 487719, Note_on_c, 0, 77, 62
1, 487746, Control_c, 0, 64, 67
1, 487761, Note_off_c, 0, 77, 58
1, 487761, Note_on_c, 0, 78, 65
1, 487773, Note_on_c, 0, 66, 50
1, 487773, Note_on_c, 0, 61, 52
1, 487787, Note_on_c, 0, 58, 26
1, 487790, Control_c, 0, 64, 67
1, 487797, Note_off_c, 0, 78, 64
1, 487810, Note_off_c, 0, 61, 63
1, 487810, Note_off_c, 0, 66, 56
1, 487818, Note_off_c, 0, 58, 51
1, 487893, Control_c, 0, 64, 66
1, 487906, Note_on_c, 0, 66, 51
1, 487908, Note_on_c, 0, 61, 52
1, 487909, Note_on_c, 0, 58, 46
1, 487923, Control_c, 0, 64, 67
1, 487938, Control_c, 0, 67, 118
1, 487946, Note_off_c, 0, 58, 61
1, 487946, Note_off_c, 0, 61, 61
1, 487948, Note_off_c, 0, 66, 57
1, 487982, Control_c, 0, 64, 66
1, 488035, Note_on_c, 0, 75, 60
1, 488044, Note_on_c, 0, 61, 53
1, 488047, Note_on_c, 0, 66, 49
1, 488056, Note_on_c, 0, 58, 34
1, 488067, Note_on_c, 0, 73, 68
1, 488089, Note_off_c, 0, 61, 58
1, 488089, Note_off_c, 0, 58, 54
1, 488091, Note_off_c, 0, 75, 57
1, 488092, Note_off_c, 0, 66, 58
1, 488099, Note_off_c, 0, 73, 62
1, 488133, Note_on_c, 0, 72, 62
1, 488145, Control_c, 0, 64, 67
1, 488167, Control_c, 0, 64, 68
1, 488180, Note_off_c, 0, 72, 58
1, 488182, Control_c, 0, 64, 68
1, 488182, Control_c, 0, 67, 118
1, 488184, Note_on_c, 0, 73, 75
1, 488190, Note_on_c, 0, 61, 58
1, 488190, Note_on_c, 0, 66, 60
1, 488197, Control_c, 0, 64, 69
1, 488201, Note_on_c, 0, 58, 39
1, 488211, Control_c, 0, 64, 71
1, 488219, Note_off_c, 0, 73, 60
1, 488226, Control_c, 0, 64, 74
1, 488229, Note_off_c, 0, 66, 58
1, 488232, Note_off_c, 0, 61, 58
1, 488234, Note_off_c, 0, 58, 55
1, 488241, Control_c, 0, 64, 78
1, 488256, Control_c, 0, 64, 79
1, 488271, Control_c, 0, 67, 119
1, 488300, Control_c, 0, 67, 119
1, 488315, Control_c, 0, 67, 120
1, 488317, Note_on_c, 0, 66, 69
1, 488330, Control_c, 0, 67, 121
1, 488335, Note_on_c, 0, 58, 49
1, 488344, Note_on_c, 0, 61, 50
1, 488360, Control_c, 0, 64, 78
1, 488360, Control_c, 0, 67, 121
1, 488366, Note_off_c, 0, 61, 60
1, 488373, Note_off_c, 0, 58, 61
1, 488375, Control_c, 0, 64, 78
1, 488375, Control_c, 0, 67, 122
1, 488378, Note_off_c, 0, 66, 61
1, 488390, Control_c, 0, 64, 77
1, 488405, Control_c, 0, 64, 77
1, 488435, Control_c, 0, 64, 76
1, 488450, Control_c, 0, 64, 75
1, 488456, Note_on_c, 0, 64, 69
1, 488457, Note_on_c, 0, 61, 50
1, 488464, Control_c, 0, 64, 74
1, 488473, Note_on_c, 0, 58, 51
1, 488479, Control_c, 0, 64, 74
1, 488494, Control_c, 0, 64, 73
1, 488504, Note_off_c, 0, 58, 64
1, 488506, Note_off_c, 0, 61, 60
1, 488509, Control_c, 0, 64, 72
1, 488509, Control_c, 0, 67, 122
1, 488511, Note_off_c, 0, 64, 61
1, 488524, Control_c, 0, 64, 68
1, 488524, Control_c, 0, 67, 123
1, 488539, Control_c, 0, 64, 65
1, 488539, Control_c, 0, 67, 123
1, 488554, Control_c, 0, 64, 63
1, 488569, Control_c, 0, 64, 61
1, 488569, Control_c, 0, 67, 124
1, 488583, Control_c, 0, 64, 58
1, 488583, Control_c, 0, 67, 125
1, 488598, Control_c, 0, 64, 55
1, 488598, Control_c, 0, 67, 126
1, 488610, Note_on_c, 0, 60, 48
1, 488613, Control_c, 0, 64, 52
1, 488613, Control_c, 0, 67, 127
1, 488613, Note_on_c, 0, 72, 58
1, 488617, Note_on_c, 0, 57, 43
1, 488620, Note_on_c, 0, 65, 46
1, 488627, Control_c, 0, 64, 51
1, 488655, Note_off_c, 0, 60, 61
1, 488655, Note_off_c, 0, 57, 52
1, 488657, Control_c, 0, 64, 51
1, 488661, Note_off_c, 0, 65, 59
1, 488670, Note_off_c, 0, 72, 60
1, 488672, Control_c, 0, 64, 53
1, 488687, Control_c, 0, 64, 54
1, 488701, Control_c, 0, 64, 55
1, 488716, Control_c, 0, 64, 57
1, 488731, Control_c, 0, 64, 58
1, 488746, Control_c, 0, 64, 59
1, 488757, Note_on_c, 0, 57, 40
1, 488761, Control_c, 0, 64, 60
1, 488765, Note_on_c, 0, 60, 34
1, 488770, Note_on_c, 0, 65, 31
1, 488776, Control_c, 0, 64, 61
1, 488789, Note_off_c, 0, 57, 54
1, 488797, Note_off_c, 0, 60, 53
1, 488804, Note_off_c, 0, 65, 47
1, 488820, Control_c, 0, 64, 61
1, 488834, Control_c, 0, 64, 62
1, 488877, Note_on_c, 0, 57, 50
1, 488878, Note_on_c, 0, 60, 58
1, 488880, Note_on_c, 0, 82, 57
1, 488894, Control_c, 0, 64, 62
1, 488896, Note_on_c, 0, 65, 47
1, 488916, Control_c, 0, 64, 63
1, 488923, Note_on_c, 0, 81, 65
1, 488926, Note_off_c, 0, 60, 60
1, 488926, Note_off_c, 0, 57, 59
1, 488926, Note_off_c, 0, 82, 58
1, 488929, Note_off_c, 0, 65, 59
1, 488958, Note_off_c, 0, 81, 62
1, 488974, Note_on_c, 0, 79, 62
1, 489018, Note_on_c, 0, 65, 50
1, 489018, Note_off_c, 0, 79, 59
1, 489019, Note_on_c, 0, 81, 64
1, 489024, Note_on_c, 0, 57, 49
1, 489028, Note_on_c, 0, 60, 54
1, 489042, Note_off_c, 0, 81, 67
1, 489061, Note_off_c, 0, 60, 64
1, 489063, Note_off_c, 0, 57, 62
1, 489064, Control_c, 0, 64, 63
1, 489066, Note_off_c, 0, 65, 60
1, 489143, Note_on_c, 0, 60, 56
1, 489159, Note_on_c, 0, 57, 47
1, 489175, Note_on_c, 0, 65, 29
1, 489185, Note_off_c, 0, 57, 58
1, 489189, Note_off_c, 0, 60, 62
1, 489209, Note_off_c, 0, 65, 46
1, 489276, Note_on_c, 0, 85, 73
1, 489279, Note_on_c, 0, 57, 47
1, 489286, Note_on_c, 0, 60, 53
1, 489290, Note_on_c, 0, 65, 54
1, 489300, Note_on_c, 0, 84, 74
1, 489321, Note_off_c, 0, 60, 63
1, 489326, Note_off_c, 0, 57, 59
1, 489327, Note_off_c, 0, 85, 61
1, 489329, Note_off_c, 0, 65, 62
1, 489352, Note_off_c, 0, 84, 65
1, 489354, Note_on_c, 0, 83, 75
1, 489401, Note_on_c, 0, 84, 76
1, 489409, Note_on_c, 0, 60, 56
1, 489414, Note_off_c, 0, 83, 65
1, 489419, Note_on_c, 0, 65, 50
1, 489428, Note_on_c, 0, 57, 50
1, 489444, Note_off_c, 0, 84, 64
1, 489453, Note_off_c, 0, 60, 61
1, 489456, Note_off_c, 0, 57, 58
1, 489458, Note_off_c, 0, 65, 61
1, 489538, Note_on_c, 0, 57, 50
1, 489546, Note_on_c, 0, 60, 55
1, 489546, Note_on_c, 0, 65, 56
1, 489582, Note_off_c, 0, 60, 64
1, 489588, Note_off_c, 0, 57, 60
1, 489589, Note_off_c, 0, 65, 59
1, 489643, Control_c, 0, 64, 64
1, 489676, Note_on_c, 0, 60, 55
1, 489686, Note_on_c, 0, 57, 59
1, 489688, Note_on_c, 0, 90, 84
1, 489699, Note_on_c, 0, 65, 49
1, 489723, Note_on_c, 0, 89, 81
1, 489725, Note_off_c, 0, 57, 58
1, 489725, Control_c, 0, 64, 64
1, 489727, Note_off_c, 0, 60, 61
1, 489728, Note_off_c, 0, 65, 57
1, 489741, Note_off_c, 0, 90, 64
1, 489761, Note_on_c, 0, 88, 80
1, 489773, Note_off_c, 0, 89, 63
1, 489799, Control_c, 0, 64, 65
1, 489811, Note_on_c, 0, 89, 83
1, 489812, Note_on_c, 0, 65, 57
1, 489816, Note_on_c, 0, 60, 58
1, 489824, Note_on_c, 0, 57, 54
1, 489831, Note_off_c, 0, 88, 65
1, 489856, Note_off_c, 0, 57, 64
1, 489856, Note_off_c, 0, 60, 62
1, 489858, Note_off_c, 0, 65, 56
1, 489858, Note_off_c, 0, 89, 63
1, 489858, Control_c, 0, 64, 65
1, 489948, Note_on_c, 0, 57, 44
1, 489950, Note_on_c, 0, 60, 56
1, 489961, Control_c, 0, 64, 65
1, 489975, Note_on_c, 0, 65, 29
1, 489984, Note_off_c, 0, 57, 57
1, 489987, Note_off_c, 0, 60, 64
1, 490006, Note_off_c, 0, 65, 48
1, 490066, Control_c, 0, 64, 64
1, 490083, Note_on_c, 0, 57, 52
1, 490084, Note_on_c, 0, 60, 58
1, 490091, Note_on_c, 0, 65, 52
1, 490091, Note_on_c, 0, 85, 72
1, 490130, Note_off_c, 0, 60, 60
1, 490130, Note_off_c, 0, 57, 58
1, 490134, Note_off_c, 0, 65, 60
1, 490137, Note_on_c, 0, 84, 59
1, 490143, Note_off_c, 0, 85, 61
1, 490165, Note_on_c, 0, 83, 69
1, 490165, Note_off_c, 0, 84, 68
1, 490199, Control_c, 0, 64, 65
1, 490221, Note_on_c, 0, 84, 72
1, 490226, Note_off_c, 0, 83, 62
1, 490231, Note_on_c, 0, 60, 53
1, 490235, Note_on_c, 0, 57, 49
1, 490245, Note_on_c, 0, 65, 35
1, 490250, Note_off_c, 0, 84, 61
1, 490265, Note_off_c, 0, 57, 57
1, 490267, Note_off_c, 0, 60, 64
1, 490277, Note_off_c, 0, 65, 53
1, 490353, Note_on_c, 0, 57, 50
1, 490355, Note_on_c, 0, 60, 57
1, 490360, Note_on_c, 0, 65, 55
1, 490377, Control_c, 0, 64, 65
1, 490405, Note_off_c, 0, 57, 61
1, 490405, Note_off_c, 0, 60, 62
1, 490406, Note_off_c, 0, 65, 61
1, 490503, Note_on_c, 0, 82, 57
1, 490508, Note_on_c, 0, 57, 46
1, 490512, Note_on_c, 0, 60, 51
1, 490520, Note_on_c, 0, 65, 44
1, 490526, Note_on_c, 0, 81, 68
1, 490536, Note_off_c, 0, 82, 63
1, 490547, Note_off_c, 0, 60, 63
1, 490548, Note_off_c, 0, 57, 56
1, 490551, Note_off_c, 0, 65, 55
1, 490566, Note_off_c, 0, 81, 61
1, 490582, Note_on_c, 0, 79, 59
1, 490591, Control_c, 0, 64, 65
1, 490632, Note_on_c, 0, 81, 56
1, 490634, Note_on_c, 0, 60, 56
1, 490641, Note_on_c, 0, 65, 50
1, 490642, Note_on_c, 0, 57, 50
1, 490650, Note_off_c, 0, 79, 57
1, 490661, Note_off_c, 0, 81, 59
1, 490665, Control_c, 0, 64, 64
1, 490672, Note_off_c, 0, 60, 63
1, 490676, Note_off_c, 0, 57, 61
1, 490681, Note_off_c, 0, 65, 59
1, 490739, Control_c, 0, 64, 64
1, 490777, Note_on_c, 0, 57, 43
1, 490783, Control_c, 0, 64, 64
1, 490786, Note_on_c, 0, 65, 42
1, 490790, Note_on_c, 0, 60, 42
1, 490813, Control_c, 0, 64, 64
1, 490814, Note_off_c, 0, 57, 57
1, 490816, Note_off_c, 0, 60, 59
1, 490825, Note_off_c, 0, 65, 51
1, 490903, Control_c, 0, 64, 63
1, 490906, Note_on_c, 0, 60, 45
1, 490913, Note_on_c, 0, 57, 45
1, 490915, Note_on_c, 0, 78, 62
1, 490930, Note_on_c, 0, 65, 43
1, 490950, Note_off_c, 0, 60, 61
1, 490954, Note_off_c, 0, 57, 61
1, 490962, Note_off_c, 0, 65, 57
1, 490965, Note_off_c, 0, 78, 58
1, 490965, Note_on_c, 0, 77, 62
1, 490995, Note_off_c, 0, 77, 66
1, 491004, Note_on_c, 0, 76, 62
1, 491052, Note_on_c, 0, 60, 46
1, 491053, Note_on_c, 0, 57, 45
1, 491058, Note_on_c, 0, 77, 58
1, 491059, Note_on_c, 0, 65, 45
1, 491084, Note_off_c, 0, 76, 57
1, 491089, Note_off_c, 0, 60, 61
1, 491089, Note_off_c, 0, 77, 64
1, 491093, Note_off_c, 0, 65, 55
1, 491094, Note_off_c, 0, 57, 58
1, 491096, Control_c, 0, 64, 64
1, 491177, Control_c, 0, 64, 64
1, 491195, Note_on_c, 0, 60, 40
1, 491203, Note_on_c, 0, 57, 46
1, 491205, Note_on_c, 0, 65, 31
1, 491207, Control_c, 0, 64, 65
1, 491231, Note_off_c, 0, 60, 54
1, 491237, Note_off_c, 0, 57, 55
1, 491241, Note_off_c, 0, 65, 54
1, 491251, Control_c, 0, 64, 65
1, 491266, Control_c, 0, 64, 66
1, 491281, Control_c, 0, 64, 66
1, 491296, Control_c, 0, 64, 67
1, 491311, Control_c, 0, 64, 68
1, 491326, Note_on_c, 0, 60, 50
1, 491326, Control_c, 0, 64, 70
1, 491328, Note_on_c, 0, 73, 66
1, 491335, Note_on_c, 0, 65, 46
1, 491339, Note_on_c, 0, 57, 41
1, 491341, Control_c, 0, 64, 72
1, 491356, Control_c, 0, 64, 75
1, 491369, Note_off_c, 0, 57, 56
1, 491370, Note_off_c, 0, 73, 61
1, 491371, Control_c, 0, 64, 78
1, 491372, Note_off_c, 0, 60, 60
1, 491373, Note_on_c, 0, 72, 46
1, 491385, Control_c, 0, 64, 80
1, 491388, Note_off_c, 0, 65, 50
1, 491400, Control_c, 0, 64, 82
1, 491402, Note_off_c, 0, 72, 58
1, 491414, Note_on_c, 0, 71, 58
1, 491415, Control_c, 0, 64, 84
1, 491429, Control_c, 0, 64, 85
1, 491462, Note_on_c, 0, 72, 58
1, 491466, Note_on_c, 0, 57, 55
1, 491477, Note_off_c, 0, 71, 57
1, 491499, Note_off_c, 0, 72, 61
1, 491508, Note_off_c, 0, 57, 60
1, 491523, Poly_aftertouch_c, 0, 60, 127
1, 491533, Control_c, 0, 64, 84
1, 491556, Poly_aftertouch_c, 0, 60, 0
1, 491563, Control_c, 0, 64, 84
1, 491577, Control_c, 0, 64, 83
1, 491592, Control_c, 0, 64, 82
1, 491607, Control_c, 0, 64, 81
1, 491623, Control_c, 0, 64, 79
1, 491628, Note_on_c, 0, 53, 50
1, 491638, Control_c, 0, 64, 78
1, 491652, Control_c, 0, 64, 77
1, 491667, Control_c, 0, 64, 77
1, 491682, Control_c, 0, 64, 76
1, 491697, Control_c, 0, 64, 75
1, 491712, Control_c, 0, 64, 74
1, 491726, Control_c, 0, 64, 72
1, 491741, Control_c, 0, 64, 70
1, 491756, Control_c, 0, 64, 68
1, 491771, Note_off_c, 0, 53, 58
1, 491771, Control_c, 0, 64, 68
1, 491786, Note_on_c, 0, 73, 61
1, 491786, Control_c, 0, 64, 67
1, 491798, Note_on_c, 0, 51, 46
1, 491800, Control_c, 0, 64, 66
1, 491815, Control_c, 0, 64, 64
1, 491830, Control_c, 0, 64, 62
1, 491845, Control_c, 0, 64, 58
1, 491860, Control_c, 0, 64, 52
1, 491874, Control_c, 0, 64, 42
1, 491889, Control_c, 0, 64, 0
1, 491980, Note_off_c, 0, 73, 52
1, 491986, Note_off_c, 0, 51, 52
1, 491992, Note_on_c, 0, 74, 60
1, 491999, Note_on_c, 0, 50, 40
1, 492014, Note_on_c, 0, 46, 38
1, 492032, Note_on_c, 0, 65, 17
1, 492074, Control_c, 0, 64, 19
1, 492076, Note_off_c, 0, 65, 52
1, 492089, Control_c, 0, 64, 54
1, 492090, Note_on_c, 0, 67, 50
1, 492104, Control_c, 0, 64, 64
1, 492119, Control_c, 0, 64, 68
1, 492133, Note_off_c, 0, 67, 60
1, 492134, Control_c, 0, 64, 72
1, 492149, Control_c, 0, 64, 78
1, 492164, Control_c, 0, 64, 81
1, 492167, Note_on_c, 0, 65, 44
1, 492171, Note_off_c, 0, 50, 57
1, 492178, Control_c, 0, 64, 83
1, 492193, Control_c, 0, 64, 85
1, 492199, Note_off_c, 0, 65, 60
1, 492208, Control_c, 0, 64, 85
1, 492223, Control_c, 0, 64, 86
1, 492238, Control_c, 0, 64, 86
1, 492241, Note_on_c, 0, 67, 48
1, 492265, Note_off_c, 0, 67, 57
1, 492292, Note_on_c, 0, 65, 54
1, 492298, Note_on_c, 0, 55, 60
1, 492326, Control_c, 0, 64, 85
1, 492336, Note_off_c, 0, 55, 62
1, 492337, Note_off_c, 0, 65, 54
1, 492341, Control_c, 0, 64, 84
1, 492356, Note_on_c, 0, 67, 55
1, 492356, Control_c, 0, 64, 83
1, 492415, Control_c, 0, 64, 83
1, 492429, Note_off_c, 0, 67, 59
1, 492431, Control_c, 0, 64, 81
1, 492441, Note_on_c, 0, 70, 74
1, 492446, Control_c, 0, 64, 79
1, 492450, Note_on_c, 0, 53, 53
1, 492461, Control_c, 0, 64, 76
1, 492472, Note_off_c, 0, 74, 28
1, 492475, Control_c, 0, 64, 72
1, 492490, Control_c, 0, 64, 67
1, 492505, Control_c, 0, 64, 62
1, 492520, Control_c, 0, 64, 59
1, 492526, Note_on_c, 0, 67, 64
1, 492535, Control_c, 0, 64, 60
1, 492549, Control_c, 0, 64, 63
1, 492564, Control_c, 0, 64, 66
1, 492575, Note_off_c, 0, 67, 53
1, 492579, Control_c, 0, 64, 68
1, 492594, Control_c, 0, 64, 72
1, 492609, Control_c, 0, 64, 75
1, 492623, Control_c, 0, 64, 79
1, 492624, Note_on_c, 0, 65, 39
1, 492638, Control_c, 0, 64, 84
1, 492661, Control_c, 0, 64, 87
1, 492663, Note_off_c, 0, 65, 53
1, 492676, Control_c, 0, 64, 89
1, 492682, Note_on_c, 0, 67, 61
1, 492688, Note_off_c, 0, 46, 40
1, 492712, Note_off_c, 0, 53, 53
1, 492716, Note_off_c, 0, 67, 60
1, 492740, Note_on_c, 0, 50, 53
1, 492741, Note_on_c, 0, 65, 63
1, 492794, Control_c, 0, 64, 88
1, 492799, Note_off_c, 0, 70, 56
1, 492802, Note_off_c, 0, 65, 60
1, 492808, Control_c, 0, 64, 85
1, 492822, Note_on_c, 0, 67, 59
1, 492823, Control_c, 0, 64, 83
1, 492838, Control_c, 0, 64, 82
1, 492853, Control_c, 0, 64, 81
1, 492868, Control_c, 0, 64, 78
1, 492875, Note_on_c, 0, 41, 55
1, 492876, Note_off_c, 0, 50, 52
1, 492881, Note_on_c, 0, 48, 54
1, 492882, Note_on_c, 0, 69, 74
1, 492882, Control_c, 0, 64, 72
1, 492885, Note_off_c, 0, 67, 61
1, 492895, Note_on_c, 0, 65, 34
1, 492897, Control_c, 0, 64, 63
1, 492912, Control_c, 0, 64, 46
1, 492927, Note_off_c, 0, 65, 57
1, 492927, Control_c, 0, 64, 38
1, 492957, Control_c, 0, 64, 41
1, 492965, Note_on_c, 0, 67, 66
1, 492971, Control_c, 0, 64, 54
1, 492986, Control_c, 0, 64, 63
1, 493001, Control_c, 0, 64, 66
1, 493010, Note_off_c, 0, 69, 58
1, 493012, Note_off_c, 0, 48, 62
1, 493016, Control_c, 0, 64, 68
1, 493031, Control_c, 0, 64, 72
1, 493031, Note_off_c, 0, 67, 61
1, 493034, Note_on_c, 0, 65, 57
1, 493046, Control_c, 0, 64, 76
1, 493061, Control_c, 0, 64, 81
1, 493075, Control_c, 0, 64, 84
1, 493111, Note_on_c, 0, 67, 64
1, 493113, Note_off_c, 0, 65, 58
1, 493169, Note_on_c, 0, 65, 55
1, 493175, Note_on_c, 0, 55, 60
1, 493183, Note_off_c, 0, 67, 58
1, 493216, Note_off_c, 0, 55, 61
1, 493239, Control_c, 0, 67, 127
1, 493249, Note_on_c, 0, 67, 67
1, 493284, Control_c, 0, 64, 83
1, 493298, Control_c, 0, 64, 81
1, 493299, Note_off_c, 0, 65, 50
1, 493313, Control_c, 0, 64, 77
1, 493328, Control_c, 0, 64, 72
1, 493331, Note_on_c, 0, 75, 85
1, 493334, Note_on_c, 0, 53, 63
1, 493343, Note_off_c, 0, 67, 58
1, 493343, Control_c, 0, 64, 69
1, 493358, Control_c, 0, 64, 67
1, 493358, Control_c, 0, 67, 126
1, 493372, Control_c, 0, 64, 68
1, 493382, Poly_aftertouch_c, 0, 65, 127
1, 493387, Control_c, 0, 64, 70
1, 493387, Control_c, 0, 67, 126
1, 493410, Control_c, 0, 64, 74
1, 493410, Control_c, 0, 67, 125
1, 493419, Note_on_c, 0, 67, 64
1, 493425, Control_c, 0, 64, 77
1, 493425, Control_c, 0, 67, 123
1, 493427, Poly_aftertouch_c, 0, 65, 0
1, 493439, Control_c, 0, 64, 80
1, 493439, Control_c, 0, 67, 121
1, 493454, Control_c, 0, 64, 82
1, 493454, Control_c, 0, 67, 118
1, 493469, Control_c, 0, 64, 83
1, 493469, Control_c, 0, 67, 116
1, 493484, Control_c, 0, 67, 114
1, 493487, Note_off_c, 0, 67, 62
1, 493498, Control_c, 0, 67, 111
1, 493510, Note_on_c, 0, 65, 63
1, 493513, Control_c, 0, 67, 109
1, 493528, Control_c, 0, 64, 83
1, 493528, Control_c, 0, 67, 107
1, 493541, Note_off_c, 0, 75, 55
1, 493543, Control_c, 0, 64, 84
1, 493543, Control_c, 0, 67, 105
1, 493550, Note_off_c, 0, 41, 35
1, 493553, Note_off_c, 0, 65, 58
1, 493558, Control_c, 0, 67, 103
1, 493573, Control_c, 0, 67, 102
1, 493577, Note_on_c, 0, 67, 69
1, 493584, Note_off_c, 0, 53, 35
1, 493587, Control_c, 0, 67, 100
1, 493602, Control_c, 0, 67, 98
1, 493617, Control_c, 0, 67, 96
1, 493631, Control_c, 0, 67, 95
1, 493643, Note_off_c, 0, 67, 61
1, 493644, Note_on_c, 0, 48, 52
1, 493646, Control_c, 0, 67, 94
1, 493648, Note_on_c, 0, 65, 74
1, 493661, Control_c, 0, 67, 94
1, 493676, Control_c, 0, 64, 83
1, 493705, Control_c, 0, 67, 94
1, 493712, Note_on_c, 0, 67, 64
1, 493720, Control_c, 0, 67, 95
1, 493732, Note_off_c, 0, 65, 51
1, 493735, Control_c, 0, 64, 83
1, 493735, Control_c, 0, 67, 95
1, 493738, Note_off_c, 0, 48, 61
1, 493750, Control_c, 0, 64, 81
1, 493750, Control_c, 0, 67, 96
1, 493765, Control_c, 0, 64, 78
1, 493777, Note_on_c, 0, 50, 64
1, 493779, Control_c, 0, 64, 74
1, 493780, Note_on_c, 0, 74, 75
1, 493780, Note_off_c, 0, 67, 57
1, 493794, Control_c, 0, 64, 69
1, 493794, Control_c, 0, 67, 96
1, 493800, Note_on_c, 0, 46, 62
1, 493809, Control_c, 0, 64, 65
1, 493809, Control_c, 0, 67, 97
1, 493824, Control_c, 0, 64, 62
1, 493824, Control_c, 0, 67, 97
1, 493839, Control_c, 0, 64, 59
1, 493839, Control_c, 0, 67, 98
1, 493854, Control_c, 0, 64, 59
1, 493858, Note_on_c, 0, 67, 67
1, 493869, Control_c, 0, 64, 62
1, 493869, Control_c, 0, 67, 98
1, 493873, Poly_aftertouch_c, 0, 65, 0
1, 493884, Control_c, 0, 64, 65
1, 493898, Control_c, 0, 64, 68
1, 493913, Control_c, 0, 64, 73
1, 493925, Note_off_c, 0, 67, 61
1, 493928, Control_c, 0, 64, 78
1, 493928, Control_c, 0, 67, 99
1, 493935, Note_off_c, 0, 50, 64
1, 493943, Note_on_c, 0, 65, 64
1, 493943, Control_c, 0, 64, 85
1, 493957, Control_c, 0, 64, 90
1, 493957, Control_c, 0, 67, 100
1, 493972, Control_c, 0, 64, 92
1, 493987, Control_c, 0, 64, 93
1, 493987, Control_c, 0, 67, 100
1, 493994, Note_off_c, 0, 65, 60
1, 493996, Note_on_c, 0, 67, 64
1, 494047, Control_c, 0, 67, 101
1, 494071, Note_off_c, 0, 67, 61
1, 494073, Note_on_c, 0, 55, 75
1, 494074, Note_on_c, 0, 65, 62
1, 494092, Control_c, 0, 67, 101
1, 494121, Control_c, 0, 67, 102
1, 494135, Note_off_c, 0, 55, 61
1, 494136, Control_c, 0, 67, 102
1, 494149, Note_on_c, 0, 67, 62
1, 494158, Note_off_c, 0, 65, 51
1, 494158, Control_c, 0, 67, 103
1, 494173, Control_c, 0, 64, 92
1, 494188, Control_c, 0, 64, 91
1, 494188, Control_c, 0, 67, 103
1, 494189, Note_off_c, 0, 74, 35
1, 494203, Control_c, 0, 64, 89
1, 494203, Control_c, 0, 67, 104
1, 494217, Control_c, 0, 64, 86
1, 494226, Note_off_c, 0, 67, 61
1, 494232, Control_c, 0, 64, 82
1, 494232, Control_c, 0, 67, 104
1, 494236, Note_on_c, 0, 53, 79
1, 494237, Note_on_c, 0, 70, 69
1, 494247, Control_c, 0, 64, 78
1, 494262, Control_c, 0, 64, 72
1, 494277, Control_c, 0, 64, 66
1, 494292, Control_c, 0, 64, 61
1, 494292, Control_c, 0, 67, 105
1, 494302, Poly_aftertouch_c, 0, 65, 0
1, 494307, Control_c, 0, 64, 53
1, 494314, Note_on_c, 0, 67, 62
1, 494322, Control_c, 0, 64, 43
1, 494337, Control_c, 0, 64, 36
1, 494337, Control_c, 0, 67, 105
1, 494352, Control_c, 0, 64, 38
1, 494367, Control_c, 0, 64, 48
1, 494376, Note_off_c, 0, 67, 59
1, 494381, Control_c, 0, 64, 58
1, 494381, Control_c, 0, 67, 106
1, 494396, Control_c, 0, 64, 63
1, 494407, Note_on_c, 0, 65, 50
1, 494411, Control_c, 0, 64, 66
1, 494426, Control_c, 0, 64, 71
1, 494441, Control_c, 0, 64, 75
1, 494441, Note_off_c, 0, 65, 56
1, 494455, Control_c, 0, 64, 79
1, 494456, Note_off_c, 0, 70, 36
1, 494460, Note_on_c, 0, 67, 61
1, 494470, Control_c, 0, 64, 82
1, 494483, Note_off_c, 0, 53, 59
1, 494485, Control_c, 0, 64, 84
1, 494500, Control_c, 0, 64, 85
1, 494509, Note_off_c, 0, 67, 56
1, 494515, Control_c, 0, 67, 105
1, 494525, Note_on_c, 0, 50, 56
1, 494529, Note_on_c, 0, 65, 63
1, 494539, Note_off_c, 0, 46, 59
1, 494544, Control_c, 0, 67, 105
1, 494559, Control_c, 0, 64, 85
1, 494573, Control_c, 0, 64, 84
1, 494594, Note_off_c, 0, 65, 57
1, 494603, Control_c, 0, 64, 84
1, 494604, Note_on_c, 0, 67, 64
1, 494618, Control_c, 0, 64, 82
1, 494633, Control_c, 0, 64, 79
1, 494647, Control_c, 0, 64, 74
1, 494662, Control_c, 0, 64, 67
1, 494668, Note_off_c, 0, 67, 58
1, 494671, Note_on_c, 0, 41, 56
1, 494672, Note_on_c, 0, 48, 52
1, 494674, Note_off_c, 0, 50, 50
1, 494677, Control_c, 0, 64, 61
1, 494682, Note_on_c, 0, 69, 66
1, 494692, Control_c, 0, 64, 53
1, 494701, Note_on_c, 0, 65, 14
1, 494707, Control_c, 0, 64, 52
1, 494721, Control_c, 0, 64, 56
1, 494732, Note_off_c, 0, 65, 48
1, 494736, Control_c, 0, 64, 62
1, 494751, Control_c, 0, 64, 65
1, 494763, Note_on_c, 0, 67, 56
1, 494766, Control_c, 0, 64, 67
1, 494773, Note_off_c, 0, 69, 50
1, 494781, Control_c, 0, 64, 70
1, 494781, Control_c, 0, 67, 104
1, 494784, Note_off_c, 0, 48, 62
1, 494796, Control_c, 0, 64, 72
1, 494802, Note_off_c, 0, 67, 62
1, 494811, Control_c, 0, 64, 73
1, 494823, Note_on_c, 0, 65, 59
1, 494826, Control_c, 0, 64, 75
1, 494841, Control_c, 0, 64, 76
1, 494841, Control_c, 0, 67, 104
1, 494870, Control_c, 0, 67, 103
1, 494876, Note_off_c, 0, 65, 57
1, 494908, Control_c, 0, 67, 104
1, 494909, Note_on_c, 0, 67, 55
1, 494948, Note_off_c, 0, 67, 62
1, 494967, Control_c, 0, 64, 75
1, 494974, Note_on_c, 0, 55, 61
1, 494983, Note_on_c, 0, 65, 56
1, 495006, Note_off_c, 0, 55, 63
1, 495036, Note_on_c, 0, 67, 63
1, 495070, Note_off_c, 0, 65, 38
1, 495070, Control_c, 0, 64, 74
1, 495084, Control_c, 0, 64, 70
1, 495084, Control_c, 0, 67, 104
1, 495091, Note_off_c, 0, 67, 46
1, 495099, Control_c, 0, 64, 65
1, 495114, Note_on_c, 0, 75, 69
1, 495114, Control_c, 0, 64, 58
1, 495128, Note_on_c, 0, 53, 60
1, 495129, Control_c, 0, 64, 55
1, 495144, Control_c, 0, 64, 60
1, 495158, Control_c, 0, 64, 64
1, 495173, Control_c, 0, 64, 66
1, 495186, Note_on_c, 0, 67, 62
1, 495188, Control_c, 0, 64, 70
1, 495202, Control_c, 0, 64, 74
1, 495204, Note_off_c, 0, 75, 51
1, 495217, Control_c, 0, 64, 78
1, 495220, Note_off_c, 0, 67, 61
1, 495232, Control_c, 0, 64, 81
1, 495247, Control_c, 0, 64, 82
1, 495247, Control_c, 0, 67, 104
1, 495264, Note_on_c, 0, 65, 58
1, 495279, Note_off_c, 0, 53, 23
1, 495287, Note_off_c, 0, 41, 41
1, 495302, Note_off_c, 0, 65, 63
1, 495336, Note_on_c, 0, 67, 47
1, 495338, Note_on_c, 0, 48, 58
1, 495357, Note_off_c, 0, 67, 60
1, 495362, Note_off_c, 0, 48, 60
1, 495400, Note_on_c, 0, 65, 50
1, 495410, Control_c, 0, 64, 82
1, 495420, Note_off_c, 0, 65, 63
1, 495425, Control_c, 0, 64, 83
1, 495425, Control_c, 0, 67, 103
1, 495427, Note_on_c, 0, 67, 64
1, 495440, Control_c, 0, 64, 83
1, 495455, Control_c, 0, 64, 84
1, 495455, Control_c, 0, 67, 104
1, 495458, Note_off_c, 0, 67, 64
1, 495469, Control_c, 0, 64, 85
1, 495499, Control_c, 0, 64, 82
1, 495514, Note_on_c, 0, 46, 69
1, 495514, Control_c, 0, 64, 75
1, 495529, Control_c, 0, 64, 66
1, 495534, Note_on_c, 0, 74, 70
1, 495543, Control_c, 0, 64, 39
1, 495558, Control_c, 0, 64, 0
1, 495558, Control_c, 0, 67, 104
1, 495560, Note_off_c, 0, 74, 67
1, 495561, Note_off_c, 0, 46, 58
1, 495573, Control_c, 0, 64, 23
1, 495584, Note_on_c, 0, 77, 73
1, 495588, Control_c, 0, 64, 44
1, 495602, Control_c, 0, 64, 50
1, 495607, Note_off_c, 0, 77, 67
1, 495618, Control_c, 0, 64, 51
1, 495655, Control_c, 0, 64, 51
1, 495663, Note_on_c, 0, 50, 63
1, 495672, Note_on_c, 0, 58, 55
1, 495675, Note_on_c, 0, 53, 52
1, 495680, Note_on_c, 0, 79, 70
1, 495685, Control_c, 0, 64, 49
1, 495695, Note_off_c, 0, 50, 67
1, 495696, Note_off_c, 0, 58, 58
1, 495699, Control_c, 0, 64, 47
1, 495702, Note_off_c, 0, 53, 61
1, 495708, Note_on_c, 0, 81, 79
1, 495708, Note_off_c, 0, 79, 63
1, 495714, Control_c, 0, 64, 45
1, 495729, Control_c, 0, 64, 44
1, 495729, Control_c, 0, 67, 105
1, 495750, Note_off_c, 0, 81, 64
1, 495759, Control_c, 0, 64, 45
1, 495761, Note_on_c, 0, 82, 63
1, 495778, Note_off_c, 0, 82, 62
1, 495798, Note_on_c, 0, 53, 56
1, 495806, Note_on_c, 0, 50, 53
1, 495806, Note_on_c, 0, 58, 53
1, 495808, Note_on_c, 0, 84, 73
1, 495833, Control_c, 0, 64, 45
1, 495833, Control_c, 0, 67, 105
1, 495834, Note_off_c, 0, 58, 64
1, 495842, Note_off_c, 0, 53, 65
1, 495845, Note_off_c, 0, 50, 65
1, 495848, Control_c, 0, 64, 46
1, 495855, Note_off_c, 0, 84, 62
1, 495862, Note_on_c, 0, 86, 77
1, 495878, Control_c, 0, 64, 47
1, 495907, Control_c, 0, 64, 47
1, 495912, Note_off_c, 0, 86, 66
1, 495913, Note_on_c, 0, 87, 78
1, 495958, Note_on_c, 0, 58, 61
1, 495959, Note_on_c, 0, 50, 57
1, 495962, Note_on_c, 0, 53, 54
1, 495967, Control_c, 0, 64, 48
1, 495968, Note_off_c, 0, 87, 64
1, 495974, Note_on_c, 0, 89, 73
1, 495981, Control_c, 0, 67, 106
1, 495987, Note_off_c, 0, 58, 61
1, 495991, Note_off_c, 0, 50, 66
1, 495993, Note_off_c, 0, 53, 67
1, 496011, Control_c, 0, 64, 49
1, 496036, Note_on_c, 0, 87, 76
1, 496040, Control_c, 0, 64, 50
1, 496046, Note_off_c, 0, 89, 60
1, 496055, Control_c, 0, 64, 50
1, 496070, Control_c, 0, 64, 51
1, 496102, Note_on_c, 0, 50, 49
1, 496103, Note_on_c, 0, 53, 45
1, 496112, Note_on_c, 0, 58, 37
1, 496113, Note_on_c, 0, 86, 67
1, 496114, Control_c, 0, 64, 52
1, 496119, Note_off_c, 0, 87, 58
1, 496129, Control_c, 0, 64, 52
1, 496134, Note_off_c, 0, 53, 61
1, 496136, Note_off_c, 0, 50, 66
1, 496143, Note_off_c, 0, 58, 50
1, 496143, Note_off_c, 0, 86, 65
1, 496167, Note_on_c, 0, 84, 65
1, 496173, Control_c, 0, 67, 105
1, 496188, Control_c, 0, 64, 53
1, 496209, Note_off_c, 0, 84, 57
1, 496241, Note_on_c, 0, 50, 43
1, 496242, Note_on_c, 0, 58, 49
1, 496244, Note_on_c, 0, 82, 75
1, 496244, Note_on_c, 0, 53, 36
1, 496247, Control_c, 0, 64, 52
1, 496247, Control_c, 0, 67, 105
1, 496268, Note_off_c, 0, 58, 61
1, 496273, Note_off_c, 0, 50, 57
1, 496277, Control_c, 0, 64, 52
1, 496278, Note_off_c, 0, 53, 51
1, 496317, Note_off_c, 0, 82, 58
1, 496319, Note_on_c, 0, 81, 65
1, 496337, Control_c, 0, 67, 104
1, 496346, Note_off_c, 0, 81, 62
1, 496351, Control_c, 0, 64, 52
1, 496366, Control_c, 0, 64, 53
1, 496381, Control_c, 0, 64, 54
1, 496384, Note_on_c, 0, 79, 71
1, 496403, Control_c, 0, 64, 54
1, 496447, Note_off_c, 0, 79, 47
1, 496453, Note_on_c, 0, 81, 74
1, 496508, Control_c, 0, 64, 55
1, 496510, Note_off_c, 0, 81, 64
1, 496516, Note_on_c, 0, 82, 76
1, 496522, Note_on_c, 0, 58, 57
1, 496522, Control_c, 0, 64, 55
1, 496528, Note_on_c, 0, 51, 48
1, 496532, Note_on_c, 0, 55, 41
1, 496534, Note_off_c, 0, 82, 71
1, 496537, Control_c, 0, 64, 56
1, 496551, Note_off_c, 0, 58, 64
1, 496552, Control_c, 0, 64, 57
1, 496557, Note_off_c, 0, 51, 60
1, 496564, Note_off_c, 0, 55, 51
1, 496567, Control_c, 0, 64, 58
1, 496581, Note_on_c, 0, 84, 76
1, 496582, Control_c, 0, 64, 58
1, 496626, Control_c, 0, 67, 105
1, 496643, Note_off_c, 0, 84, 61
1, 496645, Note_on_c, 0, 86, 80
1, 496651, Note_on_c, 0, 55, 58
1, 496656, Control_c, 0, 64, 59
1, 496657, Note_on_c, 0, 51, 56
1, 496658, Note_on_c, 0, 58, 54
1, 496671, Control_c, 0, 64, 59
1, 496693, Note_off_c, 0, 55, 65
1, 496697, Note_off_c, 0, 51, 64
1, 496697, Note_off_c, 0, 58, 59
1, 496708, Note_on_c, 0, 87, 81
1, 496721, Note_off_c, 0, 86, 66
1, 496754, Note_on_c, 0, 89, 73
1, 496774, Control_c, 0, 64, 60
1, 496789, Control_c, 0, 64, 61
1, 496799, Note_off_c, 0, 87, 64
1, 496802, Note_on_c, 0, 55, 66
1, 496804, Control_c, 0, 64, 62
1, 496805, Note_on_c, 0, 51, 53
1, 496806, Note_on_c, 0, 58, 58
1, 496814, Note_on_c, 0, 91, 80
1, 496820, Note_off_c, 0, 89, 63
1, 496839, Note_off_c, 0, 55, 62
1, 496839, Note_off_c, 0, 58, 63
1, 496841, Note_off_c, 0, 51, 64
1, 496848, Control_c, 0, 67, 105
1, 496863, Control_c, 0, 64, 62
1, 496876, Note_on_c, 0, 89, 72
1, 496895, Note_off_c, 0, 91, 63
1, 496926, Note_on_c, 0, 87, 77
1, 496950, Note_on_c, 0, 55, 59
1, 496955, Note_on_c, 0, 51, 58
1, 496955, Note_off_c, 0, 89, 62
1, 496957, Note_on_c, 0, 58, 56
1, 496987, Note_on_c, 0, 86, 73
1, 496993, Note_off_c, 0, 58, 60
1, 496996, Note_off_c, 0, 55, 60
1, 497003, Note_off_c, 0, 51, 60
1, 497008, Note_off_c, 0, 87, 64
1, 497020, Note_off_c, 0, 86, 65
1, 497026, Control_c, 0, 64, 62
1, 497029, Note_on_c, 0, 84, 68
1, 497040, Control_c, 0, 67, 105
1, 497055, Note_off_c, 0, 84, 65
1, 497070, Control_c, 0, 67, 104
1, 497092, Note_on_c, 0, 51, 60
1, 497093, Note_on_c, 0, 60, 53
1, 497095, Note_on_c, 0, 55, 43
1, 497101, Note_on_c, 0, 82, 81
1, 497115, Note_off_c, 0, 60, 60
1, 497120, Note_off_c, 0, 51, 63
1, 497125, Note_off_c, 0, 55, 53
1, 497130, Control_c, 0, 64, 61
1, 497130, Control_c, 0, 67, 104
1, 497152, Control_c, 0, 64, 57
1, 497152, Control_c, 0, 67, 103
1, 497167, Control_c, 0, 64, 42
1, 497167, Control_c, 0, 67, 103
1, 497174, Note_on_c, 0, 81, 61
1, 497181, Note_off_c, 0, 82, 63
1, 497181, Control_c, 0, 64, 23
1, 497181, Control_c, 0, 67, 102
1, 497196, Control_c, 0, 64, 30
1, 497196, Control_c, 0, 67, 101
1, 497200, Note_off_c, 0, 81, 68
1, 497201, Note_on_c, 0, 79, 71
1, 497211, Control_c, 0, 64, 52
1, 497211, Control_c, 0, 67, 101
1, 497227, Control_c, 0, 64, 62
1, 497227, Control_c, 0, 67, 100
1, 497229, Note_off_c, 0, 79, 59
1, 497242, Control_c, 0, 64, 66
1, 497242, Control_c, 0, 67, 100
1, 497252, Note_on_c, 0, 77, 76
1, 497257, Control_c, 0, 64, 69
1, 497257, Control_c, 0, 67, 99
1, 497271, Control_c, 0, 64, 73
1, 497271, Control_c, 0, 67, 98
1, 497286, Control_c, 0, 64, 76
1, 497286, Control_c, 0, 67, 97
1, 497301, Control_c, 0, 64, 78
1, 497301, Control_c, 0, 67, 97
1, 497310, Note_off_c, 0, 77, 59
1, 497316, Control_c, 0, 64, 80
1, 497327, Note_on_c, 0, 86, 60
1, 497331, Control_c, 0, 64, 83
1, 497331, Control_c, 0, 67, 96
1, 497345, Control_c, 0, 64, 88
1, 497345, Control_c, 0, 67, 94
1, 497360, Control_c, 0, 64, 92
1, 497360, Control_c, 0, 67, 92
1, 497374, Note_off_c, 0, 86, 63
1, 497375, Control_c, 0, 64, 97
1, 497375, Control_c, 0, 67, 86
1, 497378, Note_on_c, 0, 53, 58
1, 497381, Note_on_c, 0, 82, 74
1, 497389, Note_on_c, 0, 62, 46
1, 497390, Note_on_c, 0, 58, 45
1, 497390, Control_c, 0, 64, 101
1, 497390, Control_c, 0, 67, 79
1, 497404, Note_off_c, 0, 82, 68
1, 497404, Control_c, 0, 64, 107
1, 497404, Control_c, 0, 67, 74
1, 497405, Note_off_c, 0, 53, 63
1, 497417, Note_off_c, 0, 62, 54
1, 497418, Note_off_c, 0, 58, 56
1, 497419, Control_c, 0, 64, 117
1, 497419, Control_c, 0, 67, 71
1, 497434, Control_c, 0, 64, 127
1, 497434, Control_c, 0, 67, 67
1, 497437, Note_on_c, 0, 89, 74
1, 497449, Control_c, 0, 67, 61
1, 497464, Control_c, 0, 67, 52
1, 497467, Note_off_c, 0, 89, 61
1, 497479, Control_c, 0, 67, 40
1, 497493, Note_on_c, 0, 53, 57
1, 497493, Control_c, 0, 67, 26
1, 497499, Note_on_c, 0, 58, 59
1, 497499, Note_on_c, 0, 62, 58
1, 497503, Note_on_c, 0, 86, 73
1, 497508, Control_c, 0, 67, 13
1, 497523, Control_c, 0, 67, 0
1, 497532, Note_off_c, 0, 58, 62
1, 497536, Note_off_c, 0, 53, 65
1, 497537, Note_off_c, 0, 86, 63
1, 497540, Note_off_c, 0, 62, 56
1, 497564, Note_on_c, 0, 94, 74
1, 497584, Note_off_c, 0, 94, 71
1, 497624, Note_on_c, 0, 89, 74
1, 497635, Note_on_c, 0, 58, 53
1, 497639, Note_on_c, 0, 53, 59
1, 497654, Note_off_c, 0, 89, 58
1, 497663, Note_on_c, 0, 62, 32
1, 497666, Note_off_c, 0, 58, 63
1, 497666, Note_on_c, 0, 98, 93
1, 497673, Note_off_c, 0, 53, 64
1, 497693, Note_off_c, 0, 62, 54
1, 497711, Note_on_c, 0, 97, 35
1, 497719, Note_off_c, 0, 98, 67
1, 497735, Note_on_c, 0, 94, 88
1, 497747, Note_off_c, 0, 97, 56
1, 497754, Note_on_c, 0, 101, 89
1, 497768, Note_on_c, 0, 53, 62
1, 497771, Note_off_c, 0, 94, 66
1, 497775, Note_on_c, 0, 58, 59
1, 497787, Note_on_c, 0, 62, 39
1, 497805, Note_off_c, 0, 58, 62
1, 497806, Note_on_c, 0, 98, 92
1, 497815, Note_off_c, 0, 62, 55
1, 497818, Note_off_c, 0, 53, 61
1, 497830, Note_off_c, 0, 101, 59
1, 497846, Note_on_c, 0, 94, 80
1, 497860, Note_off_c, 0, 98, 68
1, 497880, Note_on_c, 0, 89, 83
1, 497894, Note_off_c, 0, 94, 66
1, 497909, Note_off_c, 0, 89, 67
1, 497928, Note_on_c, 0, 58, 57
1, 497937, Note_on_c, 0, 53, 60
1, 497937, Note_on_c, 0, 62, 40
1, 497960, Note_off_c, 0, 58, 59
1, 497964, Note_off_c, 0, 53, 67
1, 497965, Note_off_c, 0, 62, 55
1, 497975, Note_on_c, 0, 86, 68
1, 498016, Note_on_c, 0, 82, 75
1, 498033, Note_off_c, 0, 86, 63
1, 498063, Note_on_c, 0, 77, 73
1, 498066, Note_off_c, 0, 82, 62
1, 498075, Note_on_c, 0, 58, 64
1, 498081, Note_on_c, 0, 62, 56
1, 498085, Note_off_c, 0, 77, 70
1, 498086, Note_on_c, 0, 53, 46
1, 498118, Note_off_c, 0, 62, 57
1, 498121, Note_off_c, 0, 58, 60
1, 498123, Note_off_c, 0, 53, 60
1, 498229, Note_on_c, 0, 53, 64
1, 498239, Note_on_c, 0, 58, 60
1, 498242, Note_on_c, 0, 62, 61
1, 498274, Note_off_c, 0, 62, 60
1, 498277, Note_off_c, 0, 58, 58
1, 498285, Note_off_c, 0, 53, 62
1, 498362, Note_on_c, 0, 62, 75
1, 498382, Note_on_c, 0, 53, 61
1, 498414, Note_off_c, 0, 53, 63
1, 498414, Note_off_c, 0, 62, 61
1, 498480, Control_c, 0, 64, 106
1, 498494, Control_c, 0, 64, 83
1, 498502, Note_on_c, 0, 84, 79
1, 498509, Control_c, 0, 64, 70
1, 498513, Note_on_c, 0, 63, 78
1, 498520, Note_on_c, 0, 53, 57
1, 498523, Note_on_c, 0, 57, 61
1, 498524, Control_c, 0, 64, 68
1, 498538, Control_c, 0, 64, 72
1, 498551, Note_off_c, 0, 84, 65
1, 498553, Control_c, 0, 64, 77
1, 498554, Note_on_c, 0, 86, 69
1, 498556, Note_off_c, 0, 53, 60
1, 498557, Note_off_c, 0, 57, 64
1, 498568, Control_c, 0, 64, 84
1, 498569, Note_off_c, 0, 63, 61
1, 498582, Note_off_c, 0, 86, 64
1, 498583, Control_c, 0, 64, 92
1, 498598, Control_c, 0, 64, 99
1, 498608, Note_on_c, 0, 84, 69
1, 498612, Control_c, 0, 64, 101
1, 498612, Control_c, 0, 67, 8
1, 498627, Control_c, 0, 67, 12
1, 498650, Control_c, 0, 67, 19
1, 498653, Note_off_c, 0, 84, 62
1, 498664, Note_on_c, 0, 86, 66
1, 498665, Control_c, 0, 67, 29
1, 498665, Note_on_c, 0, 53, 60
1, 498669, Note_on_c, 0, 57, 56
1, 498675, Note_on_c, 0, 63, 54
1, 498680, Control_c, 0, 67, 40
1, 498694, Control_c, 0, 67, 50
1, 498699, Note_off_c, 0, 86, 65
1, 498708, Note_off_c, 0, 63, 57
1, 498709, Control_c, 0, 67, 56
1, 498713, Note_on_c, 0, 84, 65
1, 498724, Control_c, 0, 64, 101
1, 498724, Control_c, 0, 67, 63
1, 498729, Note_off_c, 0, 53, 44
1, 498739, Control_c, 0, 64, 100
1, 498739, Control_c, 0, 67, 73
1, 498753, Control_c, 0, 64, 99
1, 498753, Control_c, 0, 67, 84
1, 498768, Control_c, 0, 64, 98
1, 498768, Control_c, 0, 67, 92
1, 498782, Note_off_c, 0, 84, 60
1, 498783, Control_c, 0, 67, 97
1, 498790, Note_on_c, 0, 82, 80
1, 498796, Note_on_c, 0, 63, 72
1, 498798, Control_c, 0, 64, 97
1, 498798, Control_c, 0, 67, 101
1, 498813, Control_c, 0, 64, 94
1, 498813, Control_c, 0, 67, 105
1, 498823, Note_off_c, 0, 57, 26
1, 498829, Control_c, 0, 64, 90
1, 498829, Control_c, 0, 67, 109
1, 498843, Control_c, 0, 64, 88
1, 498843, Control_c, 0, 67, 115
1, 498858, Control_c, 0, 64, 85
1, 498858, Control_c, 0, 67, 119
1, 498868, Note_off_c, 0, 63, 61
1, 498873, Control_c, 0, 64, 81
1, 498873, Control_c, 0, 67, 121
1, 498880, Note_on_c, 0, 84, 74
1, 498888, Control_c, 0, 64, 74
1, 498888, Control_c, 0, 67, 123
1, 498903, Control_c, 0, 64, 69
1, 498903, Control_c, 0, 67, 124
1, 498908, Note_off_c, 0, 82, 49
1, 498917, Control_c, 0, 64, 65
1, 498917, Control_c, 0, 67, 125
1, 498932, Control_c, 0, 64, 64
1, 498932, Control_c, 0, 67, 127
1, 498947, Control_c, 0, 64, 63
1, 498947, Control_c, 0, 67, 127
1, 498962, Control_c, 0, 64, 60
1, 498977, Control_c, 0, 64, 51
1, 498991, Control_c, 0, 64, 24
1, 499006, Control_c, 0, 64, 0
1, 499008, Note_off_c, 0, 84, 62
1, 499014, Note_on_c, 0, 62, 68
1, 499023, Note_on_c, 0, 86, 62
1, 499035, Note_on_c, 0, 58, 61
1, 499093, Poly_aftertouch_c, 0, 77, 127
1, 499121, Poly_aftertouch_c, 0, 77, 0
1, 499124, Note_on_c, 0, 79, 57
1, 499177, Note_off_c, 0, 79, 56
1, 499210, Note_on_c, 0, 77, 57
1, 499213, Control_c, 0, 64, 54
1, 499228, Control_c, 0, 64, 64
1, 499238, Note_off_c, 0, 77, 59
1, 499243, Control_c, 0, 64, 68
1, 499258, Control_c, 0, 64, 72
1, 499265, Note_off_c, 0, 62, 61
1, 499273, Note_on_c, 0, 79, 54
1, 499273, Control_c, 0, 64, 76
1, 499288, Control_c, 0, 64, 79
1, 499303, Control_c, 0, 64, 83
1, 499306, Note_off_c, 0, 79, 52
1, 499317, Control_c, 0, 64, 85
1, 499326, Note_on_c, 0, 67, 79
1, 499332, Note_on_c, 0, 77, 59
1, 499332, Control_c, 0, 64, 86
1, 499347, Control_c, 0, 64, 87
1, 499361, Control_c, 0, 64, 88
1, 499376, Control_c, 0, 64, 89
1, 499398, Control_c, 0, 64, 90
1, 499400, Note_off_c, 0, 67, 62
1, 499410, Note_on_c, 0, 79, 63
1, 499433, Note_off_c, 0, 77, 31
1, 499461, Note_off_c, 0, 86, 44
1, 499483, Note_off_c, 0, 79, 59
1, 499488, Note_on_c, 0, 82, 78
1, 499493, Note_on_c, 0, 65, 76
1, 499503, Control_c, 0, 64, 89
1, 499517, Control_c, 0, 64, 87
1, 499532, Control_c, 0, 64, 85
1, 499535, Poly_aftertouch_c, 0, 77, 127
1, 499547, Control_c, 0, 64, 82
1, 499562, Control_c, 0, 64, 79
1, 499574, Note_on_c, 0, 79, 68
1, 499576, Control_c, 0, 64, 72
1, 499580, Poly_aftertouch_c, 0, 77, 0
1, 499591, Control_c, 0, 64, 65
1, 499606, Control_c, 0, 64, 58
1, 499622, Control_c, 0, 64, 55
1, 499637, Control_c, 0, 64, 57
1, 499644, Note_off_c, 0, 79, 60
1, 499652, Control_c, 0, 64, 62
1, 499660, Note_on_c, 0, 77, 65
1, 499666, Control_c, 0, 64, 65
1, 499681, Control_c, 0, 64, 68
1, 499696, Control_c, 0, 64, 73
1, 499701, Note_off_c, 0, 77, 61
1, 499711, Control_c, 0, 64, 77
1, 499721, Note_on_c, 0, 79, 65
1, 499726, Control_c, 0, 64, 82
1, 499726, Control_c, 0, 67, 127
1, 499740, Control_c, 0, 64, 86
1, 499740, Control_c, 0, 67, 125
1, 499755, Control_c, 0, 64, 90
1, 499755, Control_c, 0, 67, 124
1, 499770, Control_c, 0, 64, 93
1, 499770, Control_c, 0, 67, 124
1, 499780, Note_off_c, 0, 65, 59
1, 499780, Note_off_c, 0, 79, 60
1, 499785, Control_c, 0, 64, 97
1, 499785, Control_c, 0, 67, 123
1, 499787, Note_on_c, 0, 62, 69
1, 499791, Note_on_c, 0, 77, 74
1, 499799, Control_c, 0, 64, 101
1, 499814, Control_c, 0, 64, 101
1, 499814, Control_c, 0, 67, 123
1, 499816, Note_off_c, 0, 58, 53
1, 499829, Control_c, 0, 67, 122
1, 499853, Note_on_c, 0, 79, 76
1, 499855, Note_off_c, 0, 77, 59
1, 499859, Control_c, 0, 67, 122
1, 499860, Note_off_c, 0, 82, 33
1, 499888, Control_c, 0, 64, 101
1, 499903, Control_c, 0, 64, 99
1, 499903, Control_c, 0, 67, 121
1, 499918, Control_c, 0, 64, 95
1, 499931, Note_off_c, 0, 79, 57
1, 499933, Control_c, 0, 64, 88
1, 499935, Note_on_c, 0, 81, 84
1, 499947, Control_c, 0, 64, 81
1, 499950, Note_on_c, 0, 53, 59
1, 499950, Note_on_c, 0, 77, 56
1, 499951, Note_on_c, 0, 60, 64
1, 499962, Control_c, 0, 64, 73
1, 499977, Control_c, 0, 64, 65
1, 499984, Note_off_c, 0, 62, 54
1, 499986, Note_off_c, 0, 77, 63
1, 499991, Control_c, 0, 64, 57
1, 499991, Control_c, 0, 67, 121
1, 500006, Control_c, 0, 64, 53
1, 500021, Control_c, 0, 67, 119
1, 500022, Note_on_c, 0, 79, 71
1, 500036, Control_c, 0, 64, 54
1, 500036, Control_c, 0, 67, 118
1, 500051, Control_c, 0, 64, 60
1, 500051, Control_c, 0, 67, 118
1, 500064, Note_off_c, 0, 81, 60
1, 500066, Control_c, 0, 64, 64
1, 500066, Control_c, 0, 67, 117
1, 500081, Control_c, 0, 64, 68
1, 500081, Control_c, 0, 67, 115
1, 500093, Note_off_c, 0, 79, 59
1, 500093, Note_on_c, 0, 77, 59
1, 500096, Control_c, 0, 64, 73
1, 500096, Control_c, 0, 67, 113
1, 500111, Control_c, 0, 64, 79
1, 500111, Control_c, 0, 67, 107
1, 500117, Note_off_c, 0, 60, 63
1, 500125, Control_c, 0, 64, 85
1, 500125, Control_c, 0, 67, 101
1, 500147, Control_c, 0, 64, 89
1, 500147, Control_c, 0, 67, 96
1, 500161, Note_off_c, 0, 77, 61
1, 500162, Control_c, 0, 64, 92
1, 500162, Control_c, 0, 67, 94
1, 500177, Control_c, 0, 64, 92
1, 500177, Control_c, 0, 67, 92
1, 500188, Note_on_c, 0, 79, 59
1, 500191, Control_c, 0, 64, 93
1, 500191, Control_c, 0, 67, 89
1, 500206, Control_c, 0, 64, 93
1, 500206, Control_c, 0, 67, 86
1, 500221, Control_c, 0, 67, 82
1, 500236, Control_c, 0, 67, 80
1, 500240, Note_off_c, 0, 79, 58
1, 500251, Control_c, 0, 67, 78
1, 500254, Note_on_c, 0, 77, 62
1, 500263, Note_on_c, 0, 67, 59
1, 500266, Control_c, 0, 67, 77
1, 500281, Control_c, 0, 67, 76
1, 500293, Note_off_c, 0, 67, 63
1, 500310, Control_c, 0, 67, 76
1, 500319, Note_on_c, 0, 79, 76
1, 500340, Control_c, 0, 67, 75
1, 500370, Control_c, 0, 67, 76
1, 500393, Note_on_c, 0, 87, 93
1, 500400, Note_off_c, 0, 79, 58
1, 500406, Note_on_c, 0, 65, 66
1, 500415, Control_c, 0, 64, 93
1, 500415, Control_c, 0, 67, 76
1, 500427, Note_off_c, 0, 77, 26
1, 500430, Control_c, 0, 64, 92
1, 500474, Control_c, 0, 67, 77
1, 500495, Note_on_c, 0, 79, 64
1, 500504, Control_c, 0, 67, 77
1, 500517, Note_off_c, 0, 65, 37
1, 500557, Note_off_c, 0, 79, 46
1, 500570, Note_on_c, 0, 77, 60
1, 500582, Note_off_c, 0, 53, 39
1, 500606, Note_off_c, 0, 87, 61
1, 500608, Control_c, 0, 67, 77
1, 500626, Note_off_c, 0, 77, 44
1, 500637, Control_c, 0, 67, 76
1, 500646, Note_on_c, 0, 79, 72
1, 500682, Control_c, 0, 67, 76
1, 500698, Note_on_c, 0, 60, 64
1, 500716, Note_on_c, 0, 77, 69
1, 500726, Control_c, 0, 67, 75
1, 500736, Note_off_c, 0, 79, 60
1, 500755, Control_c, 0, 67, 74
1, 500770, Control_c, 0, 64, 92
1, 500770, Control_c, 0, 67, 72
1, 500785, Control_c, 0, 64, 91
1, 500785, Control_c, 0, 67, 71
1, 500794, Note_on_c, 0, 79, 72
1, 500800, Control_c, 0, 64, 91
1, 500800, Control_c, 0, 67, 69
1, 500808, Note_off_c, 0, 60, 51
1, 500811, Note_off_c, 0, 77, 53
1, 500814, Control_c, 0, 64, 90
1, 500814, Control_c, 0, 67, 67
1, 500829, Control_c, 0, 64, 89
1, 500829, Control_c, 0, 67, 64
1, 500844, Control_c, 0, 64, 87
1, 500844, Control_c, 0, 67, 61
1, 500859, Control_c, 0, 64, 84
1, 500859, Control_c, 0, 67, 59
1, 500865, Note_on_c, 0, 62, 67
1, 500874, Note_on_c, 0, 58, 61
1, 500874, Control_c, 0, 64, 78
1, 500874, Control_c, 0, 67, 58
1, 500878, Note_on_c, 0, 86, 81
1, 500896, Note_off_c, 0, 79, 62
1, 500896, Control_c, 0, 64, 71
1, 500896, Control_c, 0, 67, 57
1, 500908, Note_on_c, 0, 77, 46
1, 500911, Control_c, 0, 64, 65
1, 500911, Control_c, 0, 67, 55
1, 500926, Control_c, 0, 64, 63
1, 500926, Control_c, 0, 67, 53
1, 500940, Control_c, 0, 64, 63
1, 500940, Control_c, 0, 67, 52
1, 500948, Note_off_c, 0, 77, 46
1, 500955, Control_c, 0, 64, 63
1, 500955, Control_c, 0, 67, 51
1, 500970, Note_on_c, 0, 79, 71
1, 500970, Control_c, 0, 64, 65
1, 500970, Control_c, 0, 67, 51
1, 500985, Control_c, 0, 64, 69
1, 501000, Control_c, 0, 64, 72
1, 501014, Control_c, 0, 64, 76
1, 501029, Control_c, 0, 64, 79
1, 501032, Note_off_c, 0, 62, 59
1, 501035, Note_off_c, 0, 79, 61
1, 501040, Note_on_c, 0, 77, 66
1, 501044, Control_c, 0, 64, 82
1, 501059, Control_c, 0, 64, 82
1, 501074, Control_c, 0, 64, 83
1, 501074, Control_c, 0, 67, 50
1, 501089, Control_c, 0, 64, 83
1, 501108, Note_off_c, 0, 77, 61
1, 501109, Note_on_c, 0, 79, 76
1, 501118, Control_c, 0, 64, 84
1, 501133, Control_c, 0, 64, 85
1, 501148, Control_c, 0, 64, 85
1, 501148, Control_c, 0, 67, 51
1, 501163, Note_on_c, 0, 67, 80
1, 501163, Control_c, 0, 64, 86
1, 501163, Control_c, 0, 67, 52
1, 501178, Control_c, 0, 64, 86
1, 501178, Control_c, 0, 67, 53
1, 501178, Note_off_c, 0, 79, 61
1, 501184, Note_on_c, 0, 77, 68
1, 501193, Control_c, 0, 64, 87
1, 501193, Control_c, 0, 67, 54
1, 501208, Control_c, 0, 67, 55
1, 501223, Control_c, 0, 64, 87
1, 501223, Control_c, 0, 67, 56
1, 501237, Control_c, 0, 67, 57
1, 501242, Note_off_c, 0, 67, 61
1, 501252, Control_c, 0, 67, 58
1, 501260, Note_on_c, 0, 79, 69
1, 501267, Control_c, 0, 67, 58
1, 501282, Control_c, 0, 67, 59
1, 501285, Note_off_c, 0, 77, 39
1, 501297, Control_c, 0, 67, 60
1, 501323, Note_off_c, 0, 79, 60
1, 501333, Note_on_c, 0, 65, 77
1, 501333, Note_on_c, 0, 82, 74
1, 501342, Control_c, 0, 67, 60
1, 501357, Control_c, 0, 64, 86
1, 501357, Control_c, 0, 67, 61
1, 501371, Control_c, 0, 64, 85
1, 501371, Control_c, 0, 67, 62
1, 501386, Control_c, 0, 64, 82
1, 501386, Control_c, 0, 67, 63
1, 501401, Control_c, 0, 64, 76
1, 501401, Control_c, 0, 67, 64
1, 501404, Note_off_c, 0, 86, 29
1, 501416, Control_c, 0, 64, 69
1, 501416, Control_c, 0, 67, 65
1, 501420, Note_on_c, 0, 79, 64
1, 501431, Control_c, 0, 64, 64
1, 501431, Control_c, 0, 67, 67
1, 501445, Control_c, 0, 64, 63
1, 501445, Control_c, 0, 67, 69
1, 501460, Control_c, 0, 64, 64
1, 501460, Control_c, 0, 67, 71
1, 501475, Control_c, 0, 64, 64
1, 501475, Control_c, 0, 67, 75
1, 501476, Note_off_c, 0, 79, 58
1, 501490, Control_c, 0, 64, 65
1, 501490, Control_c, 0, 67, 80
1, 501503, Note_on_c, 0, 77, 53
1, 501505, Control_c, 0, 64, 68
1, 501505, Control_c, 0, 67, 87
1, 501519, Control_c, 0, 64, 72
1, 501519, Control_c, 0, 67, 93
1, 501534, Control_c, 0, 64, 77
1, 501534, Control_c, 0, 67, 97
1, 501536, Note_off_c, 0, 77, 55
1, 501549, Control_c, 0, 64, 83
1, 501549, Control_c, 0, 67, 99
1, 501563, Control_c, 0, 64, 87
1, 501563, Control_c, 0, 67, 101
1, 501565, Note_on_c, 0, 79, 64
1, 501578, Control_c, 0, 64, 90
1, 501578, Control_c, 0, 67, 105
1, 501593, Control_c, 0, 64, 92
1, 501593, Control_c, 0, 67, 110
1, 501604, Note_off_c, 0, 65, 53
1, 501607, Note_off_c, 0, 79, 55
1, 501608, Control_c, 0, 67, 114
1, 501623, Control_c, 0, 64, 93
1, 501623, Control_c, 0, 67, 117
1, 501627, Note_on_c, 0, 77, 61
1, 501643, Note_on_c, 0, 62, 54
1, 501645, Control_c, 0, 64, 92
1, 501645, Control_c, 0, 67, 118
1, 501652, Note_off_c, 0, 58, 59
1, 501660, Control_c, 0, 67, 120
1, 501675, Control_c, 0, 67, 121
1, 501690, Control_c, 0, 67, 122
1, 501692, Note_off_c, 0, 82, 38
1, 501701, Note_off_c, 0, 77, 57
1, 501705, Control_c, 0, 67, 123
1, 501719, Control_c, 0, 67, 125
1, 501720, Note_on_c, 0, 79, 63
1, 501734, Control_c, 0, 67, 126
1, 501749, Control_c, 0, 64, 91
1, 501749, Control_c, 0, 67, 127
1, 501760, Note_off_c, 0, 62, 53
1, 501763, Control_c, 0, 64, 88
1, 501763, Control_c, 0, 67, 127
1, 501768, Note_off_c, 0, 79, 46
1, 501777, Note_on_c, 0, 53, 51
1, 501778, Control_c, 0, 64, 83
1, 501789, Note_on_c, 0, 81, 61
1, 501792, Note_on_c, 0, 60, 48
1, 501793, Control_c, 0, 64, 76
1, 501808, Control_c, 0, 64, 69
1, 501823, Control_c, 0, 64, 62
1, 501837, Control_c, 0, 64, 53
1, 501852, Control_c, 0, 64, 53
1, 501865, Note_on_c, 0, 79, 63
1, 501867, Control_c, 0, 64, 56
1, 501882, Control_c, 0, 64, 62
1, 501897, Control_c, 0, 64, 65
1, 501900, Note_off_c, 0, 81, 49
1, 501911, Control_c, 0, 64, 69
1, 501926, Control_c, 0, 64, 74
1, 501929, Note_off_c, 0, 60, 63
1, 501932, Note_off_c, 0, 79, 60
1, 501941, Control_c, 0, 64, 80
1, 501945, Note_on_c, 0, 77, 64
1, 501956, Control_c, 0, 64, 85
1, 501971, Control_c, 0, 64, 88
1, 501986, Note_off_c, 0, 77, 56
1, 501986, Control_c, 0, 64, 90
1, 502001, Control_c, 0, 64, 91
1, 502017, Note_on_c, 0, 79, 54
1, 502075, Note_off_c, 0, 79, 57
1, 502095, Note_on_c, 0, 77, 56
1, 502102, Note_on_c, 0, 67, 60
1, 502126, Note_off_c, 0, 67, 60
1, 502150, Control_c, 0, 64, 90
1, 502156, Note_on_c, 0, 79, 60
1, 502165, Control_c, 0, 64, 89
1, 502179, Control_c, 0, 64, 87
1, 502188, Note_off_c, 0, 77, 36
1, 502194, Control_c, 0, 64, 82
1, 502209, Control_c, 0, 64, 76
1, 502220, Note_off_c, 0, 79, 60
1, 502221, Note_on_c, 0, 87, 76
1, 502224, Control_c, 0, 64, 68
1, 502239, Control_c, 0, 64, 64
1, 502254, Control_c, 0, 64, 64
1, 502254, Note_on_c, 0, 65, 48
1, 502268, Control_c, 0, 64, 64
1, 502283, Control_c, 0, 64, 66
1, 502298, Control_c, 0, 64, 70
1, 502302, Note_on_c, 0, 79, 58
1, 502303, Note_off_c, 0, 65, 44
1, 502313, Control_c, 0, 64, 75
1, 502314, Note_off_c, 0, 87, 55
1, 502328, Control_c, 0, 64, 80
1, 502342, Control_c, 0, 64, 84
1, 502357, Control_c, 0, 64, 86
1, 502370, Note_off_c, 0, 79, 59
1, 502372, Control_c, 0, 64, 87
1, 502400, Note_on_c, 0, 77, 59
1, 502428, Note_off_c, 0, 77, 57
1, 502439, Control_c, 0, 64, 87
1, 502454, Control_c, 0, 64, 88
1, 502457, Note_on_c, 0, 79, 56
1, 502483, Note_off_c, 0, 53, 41
1, 502497, Note_off_c, 0, 79, 60
1, 502518, Note_on_c, 0, 77, 63
1, 502521, Note_on_c, 0, 60, 52
1, 502544, Note_off_c, 0, 60, 62
1, 502580, Note_off_c, 0, 77, 59
1, 502595, Note_on_c, 0, 79, 44
1, 502616, Control_c, 0, 64, 85
1, 502624, Note_off_c, 0, 79, 55
1, 502631, Control_c, 0, 64, 77
1, 502646, Control_c, 0, 64, 67
1, 502660, Control_c, 0, 64, 47
1, 502669, Note_on_c, 0, 65, 49
1, 502675, Control_c, 0, 64, 0
1, 502683, Note_on_c, 0, 62, 27
1, 502690, Control_c, 0, 64, 23
1, 502705, Control_c, 0, 64, 44
1, 502710, Note_off_c, 0, 65, 64
1, 502719, Control_c, 0, 64, 46
1, 502721, Note_off_c, 0, 62, 50
1, 502731, Note_on_c, 0, 67, 66
1, 502749, Control_c, 0, 64, 47
1, 502764, Control_c, 0, 64, 48
1, 502765, Note_off_c, 0, 67, 62
1, 502779, Control_c, 0, 64, 51
1, 502794, Control_c, 0, 64, 52
1, 502800, Note_on_c, 0, 69, 64
1, 502802, Note_on_c, 0, 86, 66
1, 502802, Note_on_c, 0, 82, 64
1, 502821, Note_off_c, 0, 82, 65
1, 502821, Note_off_c, 0, 86, 65
1, 502824, Control_c, 0, 64, 52
1, 502827, Note_off_c, 0, 69, 67
1, 502839, Control_c, 0, 64, 53
1, 502854, Control_c, 0, 64, 55
1, 502857, Note_on_c, 0, 70, 66
1, 502869, Control_c, 0, 64, 56
1, 502898, Control_c, 0, 64, 57
1, 502907, Note_off_c, 0, 70, 64
1, 502913, Note_on_c, 0, 72, 72
1, 502913, Control_c, 0, 64, 58
1, 502928, Control_c, 0, 64, 59
1, 502940, Note_on_c, 0, 82, 68
1, 502940, Note_off_c, 0, 72, 65
1, 502943, Control_c, 0, 64, 61
1, 502947, Note_on_c, 0, 86, 66
1, 502957, Control_c, 0, 64, 62
1, 502970, Note_off_c, 0, 82, 64
1, 502972, Note_on_c, 0, 74, 71
1, 502972, Control_c, 0, 64, 62
1, 502977, Note_off_c, 0, 86, 64
1, 502996, Note_off_c, 0, 74, 70
1, 503002, Control_c, 0, 64, 63
1, 503017, Control_c, 0, 64, 63
1, 503032, Control_c, 0, 64, 64
1, 503034, Note_on_c, 0, 75, 56
1, 503047, Control_c, 0, 64, 66
1, 503062, Control_c, 0, 64, 66
1, 503065, Note_off_c, 0, 75, 65
1, 503071, Note_on_c, 0, 77, 79
1, 503081, Note_on_c, 0, 82, 78
1, 503086, Note_on_c, 0, 86, 79
1, 503107, Note_off_c, 0, 82, 65
1, 503107, Control_c, 0, 64, 67
1, 503116, Note_off_c, 0, 86, 66
1, 503121, Control_c, 0, 64, 67
1, 503140, Note_off_c, 0, 77, 62
1, 503148, Note_on_c, 0, 75, 74
1, 503158, Control_c, 0, 64, 67
1, 503173, Control_c, 0, 64, 66
1, 503184, Note_off_c, 0, 75, 62
1, 503188, Control_c, 0, 64, 66
1, 503203, Control_c, 0, 64, 66
1, 503220, Note_on_c, 0, 74, 75
1, 503233, Note_on_c, 0, 82, 77
1, 503239, Note_on_c, 0, 86, 75
1, 503247, Control_c, 0, 64, 66
1, 503266, Note_off_c, 0, 82, 66
1, 503270, Note_off_c, 0, 86, 63
1, 503280, Note_off_c, 0, 74, 54
1, 503292, Note_on_c, 0, 72, 71
1, 503351, Control_c, 0, 64, 65
1, 503357, Note_on_c, 0, 70, 70
1, 503357, Note_off_c, 0, 72, 58
1, 503366, Control_c, 0, 64, 66
1, 503369, Note_on_c, 0, 86, 78
1, 503374, Note_on_c, 0, 82, 67
1, 503381, Control_c, 0, 64, 67
1, 503389, Note_off_c, 0, 70, 65
1, 503391, Note_off_c, 0, 82, 66
1, 503400, Note_off_c, 0, 86, 64
1, 503410, Control_c, 0, 64, 65
1, 503425, Control_c, 0, 64, 62
1, 503440, Control_c, 0, 64, 56
1, 503445, Note_on_c, 0, 69, 56
1, 503455, Control_c, 0, 64, 57
1, 503470, Control_c, 0, 64, 63
1, 503477, Note_off_c, 0, 69, 65
1, 503484, Control_c, 0, 64, 65
1, 503499, Control_c, 0, 64, 68
1, 503501, Note_on_c, 0, 67, 71
1, 503506, Note_on_c, 0, 63, 73
1, 503514, Control_c, 0, 64, 69
1, 503535, Note_off_c, 0, 63, 65
1, 503536, Note_off_c, 0, 67, 62
1, 503543, Control_c, 0, 64, 68
1, 503575, Note_on_c, 0, 69, 66
1, 503588, Control_c, 0, 64, 69
1, 503617, Note_off_c, 0, 69, 64
1, 503633, Control_c, 0, 64, 68
1, 503642, Note_on_c, 0, 70, 77
1, 503646, Note_on_c, 0, 82, 74
1, 503648, Control_c, 0, 64, 68
1, 503649, Note_on_c, 0, 84, 72
1, 503668, Note_off_c, 0, 82, 69
1, 503673, Note_off_c, 0, 84, 68
1, 503706, Note_off_c, 0, 70, 65
1, 503712, Note_on_c, 0, 72, 71
1, 503722, Control_c, 0, 64, 67
1, 503739, Note_off_c, 0, 72, 64
1, 503752, Control_c, 0, 64, 68
1, 503759, Note_on_c, 0, 74, 78
1, 503781, Control_c, 0, 64, 68
1, 503785, Note_on_c, 0, 84, 74
1, 503790, Note_on_c, 0, 82, 80
1, 503794, Note_off_c, 0, 74, 65
1, 503796, Control_c, 0, 64, 69
1, 503811, Control_c, 0, 64, 69
1, 503823, Note_on_c, 0, 75, 74
1, 503825, Note_off_c, 0, 82, 62
1, 503826, Control_c, 0, 64, 68
1, 503834, Note_off_c, 0, 84, 65
1, 503840, Control_c, 0, 64, 66
1, 503855, Control_c, 0, 64, 64
1, 503860, Note_on_c, 0, 77, 66
1, 503864, Note_off_c, 0, 75, 63
1, 503893, Control_c, 0, 64, 66
1, 503897, Note_off_c, 0, 77, 65
1, 503908, Control_c, 0, 64, 70
1, 503913, Note_on_c, 0, 79, 79
1, 503922, Control_c, 0, 64, 76
1, 503937, Control_c, 0, 64, 82
1, 503944, Note_on_c, 0, 82, 86
1, 503950, Note_on_c, 0, 84, 76
1, 503952, Control_c, 0, 64, 86
1, 503966, Control_c, 0, 64, 88
1, 503980, Note_off_c, 0, 79, 60
1, 503981, Control_c, 0, 64, 90
1, 503983, Note_off_c, 0, 84, 62
1, 503984, Note_on_c, 0, 77, 77
1, 503991, Note_off_c, 0, 82, 66
1, 503996, Control_c, 0, 64, 92
1, 504011, Control_c, 0, 64, 92
1, 504026, Control_c, 0, 64, 94
1, 504041, Note_on_c, 0, 75, 74
1, 504041, Control_c, 0, 64, 96
1, 504056, Control_c, 0, 64, 98
1, 504071, Control_c, 0, 64, 100
1, 504075, Note_off_c, 0, 77, 50
1, 504083, Note_on_c, 0, 82, 88
1, 504086, Control_c, 0, 64, 101
1, 504096, Note_on_c, 0, 74, 81
1, 504096, Note_on_c, 0, 84, 75
1, 504101, Control_c, 0, 64, 101
1, 504102, Note_off_c, 0, 75, 65
1, 504115, Control_c, 0, 64, 104
1, 504117, Note_off_c, 0, 74, 72
1, 504118, Note_off_c, 0, 84, 68
1, 504130, Control_c, 0, 64, 106
1, 504132, Note_off_c, 0, 82, 64
1, 504145, Control_c, 0, 64, 107
1, 504161, Note_on_c, 0, 72, 81
1, 504212, Note_on_c, 0, 82, 78
1, 504219, Note_off_c, 0, 72, 55
1, 504221, Note_on_c, 0, 70, 75
1, 504228, Note_on_c, 0, 84, 58
1, 504249, Note_on_c, 0, 69, 59
1, 504264, Note_off_c, 0, 84, 57
1, 504266, Note_off_c, 0, 70, 60
1, 504289, Note_off_c, 0, 82, 57
1, 504301, Note_on_c, 0, 67, 73
1, 504304, Note_off_c, 0, 69, 63
1, 504308, Control_c, 0, 64, 108
1, 504323, Control_c, 0, 64, 105
1, 504323, Note_off_c, 0, 67, 68
1, 504338, Control_c, 0, 64, 91
1, 504353, Control_c, 0, 64, 75
1, 504361, Note_on_c, 0, 65, 80
1, 504367, Control_c, 0, 64, 53
1, 504382, Control_c, 0, 64, 42
1, 504397, Control_c, 0, 64, 63
1, 504412, Note_off_c, 0, 65, 64
1, 504412, Control_c, 0, 64, 74
1, 504427, Control_c, 0, 64, 83
1, 504430, Note_on_c, 0, 53, 88
1, 504442, Control_c, 0, 64, 96
1, 504442, Control_c, 0, 67, 127
1, 504457, Control_c, 0, 64, 105
1, 504457, Control_c, 0, 67, 126
1, 504472, Control_c, 0, 64, 110
1, 504472, Control_c, 0, 67, 124
1, 504487, Control_c, 0, 64, 112
1, 504487, Control_c, 0, 67, 119
1, 504502, Control_c, 0, 67, 115
1, 504507, Note_off_c, 0, 53, 65
1, 504515, Note_on_c, 0, 58, 73
1, 504516, Control_c, 0, 64, 113
1, 504516, Control_c, 0, 67, 110
1, 504522, Note_on_c, 0, 82, 84
1, 504525, Note_on_c, 0, 86, 80
1, 504531, Control_c, 0, 64, 120
1, 504531, Control_c, 0, 67, 102
1, 504546, Control_c, 0, 64, 127
1, 504546, Control_c, 0, 67, 93
1, 504555, Note_off_c, 0, 86, 63
1, 504555, Note_off_c, 0, 82, 62
1, 504561, Control_c, 0, 67, 80
1, 504564, Note_off_c, 0, 58, 62
1, 504575, Control_c, 0, 67, 62
1, 504586, Note_on_c, 0, 62, 70
1, 504590, Control_c, 0, 67, 42
1, 504605, Control_c, 0, 67, 24
1, 504613, Note_off_c, 0, 62, 67
1, 504620, Control_c, 0, 67, 0
1, 504648, Note_on_c, 0, 65, 72
1, 504670, Note_on_c, 0, 82, 87
1, 504671, Note_on_c, 0, 86, 82
1, 504672, Note_off_c, 0, 65, 68
1, 504711, Note_off_c, 0, 82, 66
1, 504716, Note_off_c, 0, 86, 65
1, 504724, Note_on_c, 0, 70, 82
1, 504782, Note_off_c, 0, 70, 63
1, 504796, Note_on_c, 0, 74, 82
1, 504813, Note_on_c, 0, 86, 94
1, 504815, Note_on_c, 0, 82, 94
1, 504840, Note_off_c, 0, 82, 64
1, 504851, Note_off_c, 0, 86, 67
1, 504864, Note_off_c, 0, 74, 50
1, 504871, Note_on_c, 0, 70, 85
1, 504919, Note_off_c, 0, 70, 62
1, 504937, Note_on_c, 0, 77, 83
1, 504956, Note_on_c, 0, 82, 92
1, 504957, Note_on_c, 0, 86, 93
1, 504990, Note_off_c, 0, 77, 66
1, 504993, Note_off_c, 0, 82, 67
1, 505002, Note_off_c, 0, 86, 66
1, 505008, Note_on_c, 0, 74, 78
1, 505067, Note_on_c, 0, 70, 81
1, 505090, Note_off_c, 0, 74, 63
1, 505102, Note_on_c, 0, 82, 91
1, 505104, Note_on_c, 0, 86, 88
1, 505119, Note_on_c, 0, 65, 90
1, 505141, Note_off_c, 0, 70, 62
1, 505149, Note_off_c, 0, 82, 65
1, 505165, Note_off_c, 0, 86, 67
1, 505172, Note_off_c, 0, 65, 65
1, 505255, Note_on_c, 0, 72, 85
1, 505259, Note_on_c, 0, 65, 81
1, 505260, Note_on_c, 0, 89, 102
1, 505262, Note_on_c, 0, 81, 93
1, 505265, Control_c, 0, 64, 94
1, 505267, Note_on_c, 0, 87, 95
1, 505280, Control_c, 0, 64, 69
1, 505295, Control_c, 0, 64, 49
1, 505306, Note_off_c, 0, 81, 62
1, 505309, Control_c, 0, 64, 61
1, 505313, Note_off_c, 0, 72, 64
1, 505317, Note_off_c, 0, 89, 63
1, 505324, Control_c, 0, 64, 71
1, 505327, Note_off_c, 0, 87, 65
1, 505328, Note_on_c, 0, 74, 86
1, 505332, Note_off_c, 0, 65, 0
1, 505339, Control_c, 0, 64, 86
1, 505352, Note_on_c, 0, 65, 26
1, 505354, Control_c, 0, 64, 127
1, 505384, Note_off_c, 0, 74, 65
1, 505410, Note_on_c, 0, 72, 70
1, 505436, Note_on_c, 0, 81, 85
1, 505437, Note_on_c, 0, 87, 92
1, 505439, Note_on_c, 0, 89, 80
1, 505443, Note_off_c, 0, 72, 57
1, 505448, Note_on_c, 0, 88, 80
1, 505454, Note_on_c, 0, 74, 86
1, 505467, Note_off_c, 0, 88, 60
1, 505476, Note_off_c, 0, 89, 63
1, 505477, Note_off_c, 0, 81, 63
1, 505478, Note_off_c, 0, 87, 65
1, 505497, Note_off_c, 0, 74, 65
1, 505518, Note_on_c, 0, 72, 65
1, 505542, Note_off_c, 0, 72, 65
1, 505549, Note_on_c, 0, 74, 79
1, 505576, Note_on_c, 0, 81, 93
1, 505577, Note_on_c, 0, 89, 98
1, 505579, Note_on_c, 0, 87, 92
1, 505593, Note_off_c, 0, 74, 67
1, 505613, Note_off_c, 0, 81, 66
1, 505614, Note_on_c, 0, 72, 54
1, 505621, Note_off_c, 0, 87, 64
1, 505622, Note_off_c, 0, 89, 62
1, 505636, Note_off_c, 0, 72, 62
1, 505657, Note_on_c, 0, 74, 80
1, 505680, Note_off_c, 0, 74, 68
1, 505700, Note_on_c, 0, 72, 70
1, 505718, Note_on_c, 0, 81, 91
1, 505719, Note_on_c, 0, 89, 95
1, 505724, Note_on_c, 0, 87, 96
1, 505741, Note_off_c, 0, 72, 63
1, 505743, Note_on_c, 0, 74, 82
1, 505751, Note_off_c, 0, 81, 66
1, 505763, Note_off_c, 0, 89, 63
1, 505765, Note_off_c, 0, 87, 62
1, 505790, Note_off_c, 0, 74, 63
1, 505805, Note_on_c, 0, 72, 65
1, 505838, Note_on_c, 0, 74, 79
1, 505840, Note_off_c, 0, 72, 62
1, 505864, Note_on_c, 0, 89, 88
1, 505867, Note_on_c, 0, 87, 90
1, 505868, Note_on_c, 0, 81, 80
1, 505884, Note_off_c, 0, 74, 66
1, 505886, Note_off_c, 0, 81, 70
1, 505899, Note_off_c, 0, 87, 58
1, 505908, Note_off_c, 0, 89, 62
1, 505912, Note_on_c, 0, 72, 52
1, 505938, Note_off_c, 0, 72, 67
1, 505970, Note_on_c, 0, 74, 69
1, 506007, Note_off_c, 0, 74, 59
1, 506025, Note_on_c, 0, 72, 68
1, 506028, Note_on_c, 0, 89, 77
1, 506031, Note_on_c, 0, 81, 72
1, 506031, Note_on_c, 0, 87, 80
1, 506052, Note_off_c, 0, 81, 71
1, 506053, Note_off_c, 0, 89, 66
1, 506057, Note_off_c, 0, 87, 68
1, 506070, Note_off_c, 0, 65, 41
1, 506077, Note_off_c, 0, 72, 62
1, 506154, Control_c, 0, 67, 8
1, 506168, Control_c, 0, 67, 13
1, 506183, Control_c, 0, 64, 113
1, 506183, Control_c, 0, 67, 22
1, 506198, Control_c, 0, 64, 98
1, 506198, Control_c, 0, 67, 33
1, 506213, Control_c, 0, 64, 80
1, 506213, Control_c, 0, 67, 44
1, 506228, Control_c, 0, 64, 68
1, 506228, Control_c, 0, 67, 57
1, 506242, Control_c, 0, 64, 59
1, 506242, Control_c, 0, 67, 69
1, 506257, Control_c, 0, 64, 50
1, 506257, Control_c, 0, 67, 80
1, 506272, Control_c, 0, 64, 27
1, 506272, Control_c, 0, 67, 89
1, 506287, Control_c, 0, 64, 0
1, 506287, Control_c, 0, 67, 97
1, 506302, Control_c, 0, 67, 103
1, 506317, Control_c, 0, 67, 107
1, 506329, Note_on_c, 0, 65, 36
1, 506332, Control_c, 0, 67, 114
1, 506347, Control_c, 0, 67, 120
1, 506361, Control_c, 0, 67, 127
1, 506376, Control_c, 0, 67, 127
1, 506406, Control_c, 0, 64, 42
1, 506421, Control_c, 0, 64, 62
1, 506435, Control_c, 0, 64, 69
1, 506450, Control_c, 0, 64, 76
1, 506452, Note_on_c, 0, 71, 21
1, 506465, Control_c, 0, 64, 84
1, 506480, Control_c, 0, 64, 93
1, 506495, Control_c, 0, 64, 102
1, 506504, Note_on_c, 0, 72, 50
1, 506509, Note_off_c, 0, 71, 46
1, 506509, Control_c, 0, 64, 106
1, 506524, Control_c, 0, 64, 109
1, 506536, Note_off_c, 0, 72, 64
1, 506539, Control_c, 0, 64, 112
1, 506553, Control_c, 0, 64, 116
1, 506568, Control_c, 0, 64, 118
1, 506569, Note_on_c, 0, 74, 53
1, 506583, Control_c, 0, 64, 118
1, 506601, Note_off_c, 0, 74, 61
1, 506609, Note_off_c, 0, 65, 42
1, 506634, Note_on_c, 0, 72, 43
1, 506642, Control_c, 0, 64, 118
1, 506644, Note_on_c, 0, 92, 66
1, 506656, Note_on_c, 0, 80, 51
1, 506687, Control_c, 0, 64, 117
1, 506701, Note_off_c, 0, 72, 58
1, 506716, Note_on_c, 0, 71, 55
1, 506716, Note_off_c, 0, 80, 0
1, 506716, Note_on_c, 0, 80, 16
1, 506716, Control_c, 0, 64, 116
1, 506731, Control_c, 0, 64, 107
1, 506746, Note_off_c, 0, 71, 63
1, 506746, Control_c, 0, 64, 95
1, 506761, Control_c, 0, 64, 83
1, 506776, Control_c, 0, 64, 70
1, 506791, Control_c, 0, 64, 63
1, 506806, Control_c, 0, 64, 61
1, 506810, Note_on_c, 0, 63, 62
1, 506821, Control_c, 0, 64, 62
1, 506836, Control_c, 0, 64, 64
1, 506851, Control_c, 0, 64, 68
1, 506865, Control_c, 0, 64, 74
1, 506888, Control_c, 0, 64, 80
1, 506889, Note_off_c, 0, 63, 61
1, 506896, Note_on_c, 0, 72, 48
1, 506903, Control_c, 0, 64, 85
1, 506918, Control_c, 0, 64, 90
1, 506932, Control_c, 0, 64, 95
1, 506947, Control_c, 0, 64, 97
1, 506950, Note_off_c, 0, 80, 46
1, 506959, Note_off_c, 0, 72, 62
1, 506962, Control_c, 0, 64, 98
1, 506976, Note_on_c, 0, 74, 51
1, 507000, Note_off_c, 0, 74, 60
1, 507035, Note_on_c, 0, 75, 52
1, 507068, Note_off_c, 0, 75, 50
1, 507080, Note_off_c, 0, 92, 52
1, 507090, Note_on_c, 0, 74, 56
1, 507098, Note_on_c, 0, 91, 71
1, 507104, Note_on_c, 0, 79, 65
1, 507127, Note_off_c, 0, 91, 64
1, 507131, Note_off_c, 0, 79, 64
1, 507169, Note_off_c, 0, 74, 59
1, 507169, Control_c, 0, 64, 98
1, 507184, Control_c, 0, 64, 97
1, 507185, Note_on_c, 0, 72, 40
1, 507199, Control_c, 0, 64, 94
1, 507212, Note_off_c, 0, 72, 56
1, 507214, Control_c, 0, 64, 88
1, 507229, Control_c, 0, 64, 81
1, 507244, Control_c, 0, 64, 72
1, 507258, Control_c, 0, 64, 62
1, 507273, Note_on_c, 0, 63, 67
1, 507273, Control_c, 0, 64, 50
1, 507288, Control_c, 0, 64, 49
1, 507302, Control_c, 0, 64, 54
1, 507317, Control_c, 0, 64, 63
1, 507332, Control_c, 0, 64, 67
1, 507347, Control_c, 0, 64, 74
1, 507358, Note_on_c, 0, 69, 56
1, 507362, Control_c, 0, 64, 82
1, 507376, Control_c, 0, 64, 92
1, 507391, Control_c, 0, 64, 105
1, 507406, Control_c, 0, 64, 127
1, 507432, Note_on_c, 0, 70, 62
1, 507435, Note_off_c, 0, 69, 38
1, 507463, Note_off_c, 0, 70, 65
1, 507488, Note_on_c, 0, 72, 65
1, 507546, Note_off_c, 0, 63, 33
1, 507560, Note_off_c, 0, 72, 55
1, 507563, Note_on_c, 0, 70, 59
1, 507572, Note_on_c, 0, 90, 84
1, 507584, Note_on_c, 0, 78, 68
1, 507637, Control_c, 0, 64, 119
1, 507652, Control_c, 0, 64, 108
1, 507666, Note_on_c, 0, 69, 52
1, 507667, Control_c, 0, 64, 99
1, 507676, Note_off_c, 0, 70, 37
1, 507681, Control_c, 0, 64, 89
1, 507696, Control_c, 0, 64, 79
1, 507700, Note_off_c, 0, 69, 64
1, 507711, Control_c, 0, 64, 67
1, 507726, Control_c, 0, 64, 56
1, 507732, Note_on_c, 0, 62, 64
1, 507740, Control_c, 0, 64, 57
1, 507755, Control_c, 0, 64, 63
1, 507770, Control_c, 0, 64, 68
1, 507784, Control_c, 0, 64, 75
1, 507799, Note_off_c, 0, 62, 59
1, 507799, Control_c, 0, 64, 84
1, 507807, Note_on_c, 0, 70, 59
1, 507813, Control_c, 0, 64, 95
1, 507828, Control_c, 0, 64, 101
1, 507843, Control_c, 0, 64, 103
1, 507858, Control_c, 0, 64, 104
1, 507871, Note_off_c, 0, 70, 62
1, 507871, Note_off_c, 0, 78, 50
1, 507873, Control_c, 0, 64, 105
1, 507876, Note_on_c, 0, 72, 55
1, 507888, Control_c, 0, 64, 107
1, 507903, Control_c, 0, 64, 107
1, 507906, Note_off_c, 0, 72, 65
1, 507933, Note_on_c, 0, 74, 60
1, 507935, Note_on_c, 0, 87, 11
1, 507974, Note_off_c, 0, 74, 60
1, 507981, Note_on_c, 0, 72, 50
1, 508013, Note_on_c, 0, 89, 73
1, 508017, Note_off_c, 0, 90, 57
1, 508030, Note_on_c, 0, 77, 59
1, 508030, Note_off_c, 0, 72, 58
1, 508030, Note_off_c, 0, 89, 66
1, 508037, Note_on_c, 0, 70, 70
1, 508051, Note_off_c, 0, 77, 64
1, 508058, Note_off_c, 0, 70, 71
1, 508080, Control_c, 0, 64, 107
1, 508082, Note_off_c, 0, 87, 44
1, 508124, Control_c, 0, 64, 106
1, 508139, Control_c, 0, 64, 104
1, 508154, Control_c, 0, 64, 96
1, 508165, Note_on_c, 0, 53, 72
1, 508169, Control_c, 0, 64, 84
1, 508184, Control_c, 0, 64, 70
1, 508198, Control_c, 0, 64, 49
1, 508213, Control_c, 0, 64, 0
1, 508243, Control_c, 0, 64, 48
1, 508258, Control_c, 0, 64, 63
1, 508271, Note_on_c, 0, 59, 48
1, 508272, Control_c, 0, 64, 69
1, 508287, Control_c, 0, 64, 76
1, 508302, Control_c, 0, 64, 90
1, 508306, Note_on_c, 0, 60, 64
1, 508314, Note_off_c, 0, 59, 59
1, 508317, Control_c, 0, 64, 105
1, 508332, Control_c, 0, 64, 118
1, 508338, Note_off_c, 0, 60, 65
1, 508343, Note_off_c, 0, 53, 52
1, 508347, Control_c, 0, 64, 120
1, 508386, Note_on_c, 0, 62, 61
1, 508436, Note_off_c, 0, 62, 52
1, 508444, Control_c, 0, 64, 119
1, 508455, Note_on_c, 0, 80, 87
1, 508462, Note_on_c, 0, 60, 56
1, 508464, Note_on_c, 0, 68, 79
1, 508474, Control_c, 0, 64, 119
1, 508489, Control_c, 0, 64, 117
1, 508503, Control_c, 0, 64, 115
1, 508518, Control_c, 0, 64, 111
1, 508522, Note_off_c, 0, 60, 60
1, 508533, Note_on_c, 0, 59, 62
1, 508533, Control_c, 0, 64, 100
1, 508548, Control_c, 0, 64, 87
1, 508562, Control_c, 0, 64, 74
1, 508568, Note_off_c, 0, 59, 60
1, 508577, Control_c, 0, 64, 60
1, 508592, Control_c, 0, 64, 0
1, 508621, Note_on_c, 0, 51, 65
1, 508622, Control_c, 0, 64, 41
1, 508636, Control_c, 0, 64, 62
1, 508651, Control_c, 0, 64, 68
1, 508666, Control_c, 0, 64, 75
1, 508681, Control_c, 0, 64, 82
1, 508688, Note_off_c, 0, 51, 64
1, 508696, Control_c, 0, 64, 85
1, 508726, Control_c, 0, 64, 87
1, 508731, Note_on_c, 0, 60, 28
1, 508740, Control_c, 0, 64, 88
1, 508749, Note_off_c, 0, 68, 52
1, 508755, Control_c, 0, 64, 89
1, 508765, Note_on_c, 0, 62, 48
1, 508765, Note_off_c, 0, 60, 51
1, 508785, Control_c, 0, 64, 87
1, 508798, Note_off_c, 0, 62, 63
1, 508800, Control_c, 0, 64, 86
1, 508815, Control_c, 0, 64, 85
1, 508818, Note_on_c, 0, 63, 58
1, 508844, Control_c, 0, 64, 85
1, 508859, Control_c, 0, 64, 83
1, 508861, Note_off_c, 0, 63, 54
1, 508874, Control_c, 0, 64, 81
1, 508889, Control_c, 0, 64, 79
1, 508903, Control_c, 0, 64, 78
1, 508908, Note_on_c, 0, 62, 42
1, 508912, Note_on_c, 0, 79, 74
1, 508913, Note_off_c, 0, 80, 60
1, 508921, Note_on_c, 0, 67, 61
1, 508953, Note_off_c, 0, 67, 64
1, 508963, Note_off_c, 0, 79, 62
1, 508970, Note_off_c, 0, 62, 60
1, 508979, Note_on_c, 0, 60, 47
1, 509003, Note_off_c, 0, 60, 63
1, 509036, Control_c, 0, 64, 76
1, 509051, Control_c, 0, 64, 70
1, 509066, Control_c, 0, 64, 61
1, 509076, Note_on_c, 0, 51, 63
1, 509080, Control_c, 0, 64, 41
1, 509095, Control_c, 0, 64, 39
1, 509110, Control_c, 0, 64, 54
1, 509133, Control_c, 0, 64, 63
1, 509148, Control_c, 0, 64, 66
1, 509162, Control_c, 0, 64, 73
1, 509176, Note_on_c, 0, 57, 53
1, 509177, Control_c, 0, 64, 80
1, 509192, Control_c, 0, 64, 88
1, 509208, Control_c, 0, 64, 93
1, 509223, Control_c, 0, 64, 95
1, 509231, Note_off_c, 0, 57, 54
1, 509232, Note_on_c, 0, 58, 61
1, 509272, Note_off_c, 0, 58, 61
1, 509294, Note_on_c, 0, 60, 61
1, 509297, Control_c, 0, 64, 94
1, 509312, Control_c, 0, 64, 94
1, 509326, Control_c, 0, 64, 93
1, 509341, Control_c, 0, 64, 93
1, 509356, Control_c, 0, 64, 92
1, 509363, Note_on_c, 0, 78, 83
1, 509366, Note_on_c, 0, 58, 54
1, 509367, Note_off_c, 0, 60, 44
1, 509372, Note_on_c, 0, 66, 67
1, 509377, Note_off_c, 0, 51, 41
1, 509430, Control_c, 0, 64, 91
1, 509445, Control_c, 0, 64, 85
1, 509454, Note_on_c, 0, 57, 50
1, 509459, Control_c, 0, 64, 75
1, 509464, Note_off_c, 0, 58, 37
1, 509474, Control_c, 0, 64, 64
1, 509489, Control_c, 0, 64, 0
1, 509492, Note_off_c, 0, 57, 64
1, 509518, Control_c, 0, 64, 14
1, 509524, Note_on_c, 0, 50, 71
1, 509533, Control_c, 0, 64, 62
1, 509548, Control_c, 0, 64, 68
1, 509563, Control_c, 0, 64, 74
1, 509578, Control_c, 0, 64, 79
1, 509593, Control_c, 0, 64, 83
1, 509593, Note_off_c, 0, 50, 62
1, 509599, Note_on_c, 0, 58, 67
1, 509608, Control_c, 0, 64, 85
1, 509623, Control_c, 0, 64, 86
1, 509631, Note_off_c, 0, 66, 38
1, 509669, Note_off_c, 0, 58, 60
1, 509684, Note_on_c, 0, 60, 49
1, 509715, Note_off_c, 0, 60, 66
1, 509726, Control_c, 0, 64, 85
1, 509730, Note_on_c, 0, 62, 59
1, 509741, Control_c, 0, 64, 85
1, 509742, Note_off_c, 0, 78, 62
1, 509756, Control_c, 0, 64, 84
1, 509770, Control_c, 0, 64, 84
1, 509781, Note_off_c, 0, 62, 50
1, 509811, Note_on_c, 0, 60, 49
1, 509814, Note_on_c, 0, 77, 69
1, 509815, Control_c, 0, 64, 83
1, 509817, Note_on_c, 0, 65, 64
1, 509840, Note_off_c, 0, 77, 66
1, 509845, Note_off_c, 0, 60, 64
1, 509846, Note_off_c, 0, 65, 66
1, 509863, Note_on_c, 0, 58, 56
1, 509882, Control_c, 0, 64, 85
1, 509900, Note_off_c, 0, 58, 65
1, 509911, Control_c, 0, 64, 80
1, 509926, Control_c, 0, 64, 67
1, 509941, Control_c, 0, 64, 0
1, 509969, Note_on_c, 0, 50, 77
1, 509985, Control_c, 0, 64, 55
1, 510001, Control_c, 0, 64, 64
1, 510016, Control_c, 0, 64, 70
1, 510031, Control_c, 0, 64, 72
1, 510046, Control_c, 0, 64, 73
1, 510052, Note_off_c, 0, 50, 62
1, 510061, Control_c, 0, 64, 71
1, 510063, Note_on_c, 0, 53, 57
1, 510076, Control_c, 0, 64, 69
1, 510091, Control_c, 0, 64, 68
1, 510107, Note_on_c, 0, 58, 63
1, 510115, Note_on_c, 0, 77, 72
1, 510121, Control_c, 0, 64, 65
1, 510124, Note_on_c, 0, 65, 61
1, 510125, Note_off_c, 0, 53, 58
1, 510127, Note_on_c, 0, 70, 52
1, 510135, Control_c, 0, 64, 63
1, 510136, Note_off_c, 0, 77, 70
1, 510137, Note_off_c, 0, 58, 67
1, 510144, Note_off_c, 0, 65, 63
1, 510148, Note_off_c, 0, 70, 61
1, 510150, Control_c, 0, 64, 55
1, 510165, Control_c, 0, 64, 48
1, 510168, Note_on_c, 0, 62, 62
1, 510180, Control_c, 0, 64, 48
1, 510195, Control_c, 0, 64, 52
1, 510209, Control_c, 0, 64, 53
1, 510224, Control_c, 0, 64, 54
1, 510231, Note_on_c, 0, 58, 50
1, 510246, Note_off_c, 0, 62, 60
1, 510254, Control_c, 0, 64, 54
1, 510263, Note_on_c, 0, 65, 63
1, 510264, Note_on_c, 0, 70, 61
1, 510267, Note_on_c, 0, 77, 76
1, 510273, Note_on_c, 0, 53, 68
1, 510283, Control_c, 0, 64, 53
1, 510290, Note_off_c, 0, 65, 67
1, 510290, Note_off_c, 0, 77, 68
1, 510291, Note_off_c, 0, 70, 66
1, 510291, Note_off_c, 0, 58, 61
1, 510298, Control_c, 0, 64, 49
1, 510311, Note_off_c, 0, 53, 66
1, 510313, Control_c, 0, 64, 42
1, 510327, Control_c, 0, 64, 31
1, 510342, Control_c, 0, 64, 17
1, 510357, Control_c, 0, 64, 24
1, 510372, Control_c, 0, 64, 44
1, 510387, Control_c, 0, 64, 56
1, 510401, Control_c, 0, 64, 59
1, 510403, Note_on_c, 0, 43, 78
1, 510474, Note_off_c, 0, 43, 63
1, 510475, Control_c, 0, 64, 58
1, 510485, Note_on_c, 0, 46, 63
1, 510490, Control_c, 0, 64, 57
1, 510505, Control_c, 0, 64, 57
1, 510542, Note_on_c, 0, 50, 54
1, 510544, Note_on_c, 0, 75, 84
1, 510546, Note_off_c, 0, 46, 62
1, 510547, Note_on_c, 0, 67, 78
1, 510559, Note_on_c, 0, 70, 58
1, 510565, Control_c, 0, 64, 57
1, 510571, Note_off_c, 0, 67, 66
1, 510580, Control_c, 0, 64, 58
1, 510580, Note_off_c, 0, 50, 67
1, 510580, Note_off_c, 0, 70, 62
1, 510593, Note_on_c, 0, 55, 65
1, 510606, Note_off_c, 0, 75, 60
1, 510631, Control_c, 0, 64, 59
1, 510666, Note_off_c, 0, 55, 57
1, 510671, Note_on_c, 0, 50, 59
1, 510699, Note_on_c, 0, 70, 55
1, 510704, Note_on_c, 0, 74, 89
1, 510705, Control_c, 0, 64, 59
1, 510710, Note_on_c, 0, 67, 76
1, 510716, Note_on_c, 0, 46, 69
1, 510716, Note_off_c, 0, 50, 66
1, 510720, Control_c, 0, 64, 60
1, 510732, Note_off_c, 0, 70, 66
1, 510734, Note_off_c, 0, 67, 67
1, 510747, Note_off_c, 0, 74, 63
1, 510750, Control_c, 0, 64, 59
1, 510753, Note_off_c, 0, 46, 63
1, 510764, Control_c, 0, 64, 56
1, 510779, Control_c, 0, 64, 46
1, 510794, Control_c, 0, 64, 40
1, 510810, Control_c, 0, 64, 49
1, 510824, Control_c, 0, 64, 62
1, 510834, Note_on_c, 0, 39, 79
1, 510839, Control_c, 0, 64, 66
1, 510854, Control_c, 0, 64, 71
1, 510869, Control_c, 0, 64, 73
1, 510884, Control_c, 0, 64, 72
1, 510899, Control_c, 0, 64, 71
1, 510914, Control_c, 0, 64, 69
1, 510921, Note_on_c, 0, 43, 63
1, 510928, Note_off_c, 0, 39, 61
1, 510928, Control_c, 0, 64, 67
1, 510943, Control_c, 0, 64, 65
1, 510958, Control_c, 0, 64, 64
1, 510971, Note_on_c, 0, 48, 49
1, 510973, Control_c, 0, 64, 63
1, 510980, Note_on_c, 0, 74, 84
1, 510988, Control_c, 0, 64, 61
1, 510990, Note_on_c, 0, 63, 75
1, 510997, Note_on_c, 0, 67, 60
1, 510997, Note_off_c, 0, 43, 63
1, 511003, Control_c, 0, 64, 58
1, 511018, Control_c, 0, 64, 49
1, 511021, Note_off_c, 0, 48, 64
1, 511021, Note_off_c, 0, 63, 58
1, 511023, Note_on_c, 0, 51, 72
1, 511025, Note_off_c, 0, 67, 61
1, 511032, Control_c, 0, 64, 36
1, 511039, Note_off_c, 0, 74, 63
1, 511047, Control_c, 0, 64, 29
1, 511062, Control_c, 0, 64, 30
1, 511089, Note_off_c, 0, 51, 63
1, 511101, Note_on_c, 0, 48, 55
1, 511106, Control_c, 0, 64, 21
1, 511121, Control_c, 0, 64, 0
1, 511136, Note_off_c, 0, 48, 64
1, 511137, Note_on_c, 0, 67, 68
1, 511138, Note_on_c, 0, 72, 81
1, 511141, Note_on_c, 0, 63, 76
1, 511146, Note_on_c, 0, 43, 68
1, 511175, Note_off_c, 0, 67, 62
1, 511186, Note_off_c, 0, 72, 64
1, 511197, Note_off_c, 0, 63, 60
1, 511220, Note_off_c, 0, 43, 63
1, 511254, Control_c, 0, 64, 53
1, 511258, Note_on_c, 0, 41, 88
1, 511268, Control_c, 0, 64, 66
1, 511283, Control_c, 0, 64, 73
1, 511298, Control_c, 0, 64, 77
1, 511313, Control_c, 0, 64, 78
1, 511339, Note_off_c, 0, 41, 56
1, 511343, Control_c, 0, 64, 78
1, 511344, Note_on_c, 0, 48, 65
1, 511358, Control_c, 0, 64, 77
1, 511403, Note_off_c, 0, 48, 62
1, 511405, Note_on_c, 0, 51, 73
1, 511423, Note_on_c, 0, 70, 80
1, 511426, Note_on_c, 0, 60, 77
1, 511426, Note_on_c, 0, 63, 82
1, 511439, Control_c, 0, 64, 76
1, 511449, Note_off_c, 0, 51, 63
1, 511450, Note_off_c, 0, 60, 69
1, 511454, Control_c, 0, 64, 76
1, 511459, Note_off_c, 0, 63, 56
1, 511469, Note_on_c, 0, 53, 67
1, 511469, Control_c, 0, 64, 75
1, 511489, Note_off_c, 0, 70, 61
1, 511513, Control_c, 0, 64, 74
1, 511528, Control_c, 0, 64, 73
1, 511528, Note_on_c, 0, 51, 65
1, 511539, Note_off_c, 0, 53, 61
1, 511542, Control_c, 0, 64, 71
1, 511557, Control_c, 0, 64, 69
1, 511562, Note_on_c, 0, 63, 77
1, 511564, Note_on_c, 0, 60, 77
1, 511569, Note_on_c, 0, 69, 79
1, 511572, Control_c, 0, 64, 68
1, 511580, Note_off_c, 0, 51, 64
1, 511587, Control_c, 0, 64, 65
1, 511592, Note_on_c, 0, 48, 80
1, 511602, Control_c, 0, 64, 62
1, 511607, Note_off_c, 0, 69, 63
1, 511608, Note_off_c, 0, 60, 61
1, 511608, Note_off_c, 0, 63, 61
1, 511617, Control_c, 0, 64, 51
1, 511632, Control_c, 0, 64, 0
1, 511634, Note_off_c, 0, 48, 61
1, 511706, Control_c, 0, 64, 52
1, 511709, Note_on_c, 0, 38, 90
1, 511721, Control_c, 0, 64, 66
1, 511736, Control_c, 0, 64, 71
1, 511751, Control_c, 0, 64, 74
1, 511766, Control_c, 0, 64, 76
1, 511780, Control_c, 0, 64, 77
1, 511801, Note_off_c, 0, 38, 61
1, 511808, Note_on_c, 0, 41, 70
1, 511844, Note_on_c, 0, 70, 85
1, 511853, Note_on_c, 0, 46, 70
1, 511853, Note_on_c, 0, 58, 80
1, 511856, Note_on_c, 0, 62, 71
1, 511885, Note_off_c, 0, 41, 61
1, 511891, Note_off_c, 0, 58, 53
1, 511896, Note_off_c, 0, 46, 63
1, 511917, Note_on_c, 0, 50, 69
1, 511927, Note_off_c, 0, 70, 60
1, 511982, Note_off_c, 0, 62, 0
1, 511987, Note_on_c, 0, 46, 65
1, 511996, Note_on_c, 0, 62, 52
1, 512001, Note_on_c, 0, 58, 78
1, 512002, Note_off_c, 0, 50, 51
1, 512006, Note_on_c, 0, 65, 77
1, 512014, Note_on_c, 0, 41, 66
1, 512032, Control_c, 0, 64, 78
1, 512034, Note_off_c, 0, 46, 63
1, 512046, Control_c, 0, 64, 80
1, 512051, Note_off_c, 0, 62, 61
1, 512053, Note_off_c, 0, 41, 65
1, 512055, Note_off_c, 0, 65, 62
1, 512061, Control_c, 0, 64, 82
1, 512063, Note_off_c, 0, 58, 63
1, 512076, Control_c, 0, 64, 79
1, 512091, Control_c, 0, 64, 70
1, 512106, Control_c, 0, 64, 30
1, 512128, Control_c, 0, 64, 0
1, 512133, Note_on_c, 0, 31, 92
1, 512158, Control_c, 0, 64, 63
1, 512172, Control_c, 0, 64, 70
1, 512187, Control_c, 0, 64, 75
1, 512202, Control_c, 0, 64, 76
1, 512217, Control_c, 0, 64, 75
1, 512224, Note_on_c, 0, 34, 68
1, 512231, Note_off_c, 0, 31, 54
1, 512232, Control_c, 0, 64, 74
1, 512261, Control_c, 0, 64, 75
1, 512273, Note_on_c, 0, 38, 55
1, 512276, Control_c, 0, 64, 76
1, 512293, Note_on_c, 0, 63, 81
1, 512294, Note_on_c, 0, 55, 81
1, 512296, Note_on_c, 0, 58, 77
1, 512300, Note_off_c, 0, 34, 60
1, 512315, Note_off_c, 0, 38, 62
1, 512320, Control_c, 0, 67, 127
1, 512324, Note_on_c, 0, 43, 76
1, 512327, Note_off_c, 0, 55, 62
1, 512332, Note_off_c, 0, 58, 54
1, 512335, Control_c, 0, 67, 125
1, 512350, Control_c, 0, 67, 122
1, 512365, Control_c, 0, 67, 118
1, 512380, Control_c, 0, 67, 114
1, 512385, Note_off_c, 0, 63, 58
1, 512395, Control_c, 0, 64, 75
1, 512395, Control_c, 0, 67, 110
1, 512410, Control_c, 0, 64, 75
1, 512410, Control_c, 0, 67, 107
1, 512411, Note_off_c, 0, 43, 61
1, 512423, Note_on_c, 0, 38, 61
1, 512425, Control_c, 0, 67, 105
1, 512440, Note_on_c, 0, 34, 71
1, 512440, Note_on_c, 0, 58, 82
1, 512440, Control_c, 0, 64, 75
1, 512440, Control_c, 0, 67, 102
1, 512443, Note_on_c, 0, 55, 81
1, 512444, Note_on_c, 0, 62, 80
1, 512455, Control_c, 0, 64, 76
1, 512455, Control_c, 0, 67, 99
1, 512465, Note_off_c, 0, 38, 63
1, 512470, Control_c, 0, 64, 78
1, 512470, Control_c, 0, 67, 95
1, 512484, Note_off_c, 0, 34, 57
1, 512484, Control_c, 0, 64, 80
1, 512484, Control_c, 0, 67, 91
1, 512487, Note_off_c, 0, 58, 62
1, 512495, Note_off_c, 0, 55, 63
1, 512495, Note_off_c, 0, 62, 59
1, 512499, Control_c, 0, 64, 81
1, 512499, Control_c, 0, 67, 86
1, 512514, Control_c, 0, 64, 79
1, 512514, Control_c, 0, 67, 81
1, 512529, Control_c, 0, 64, 69
1, 512529, Control_c, 0, 67, 76
1, 512544, Control_c, 0, 64, 0
1, 512544, Control_c, 0, 67, 75
1, 512559, Control_c, 0, 67, 75
1, 512574, Note_on_c, 0, 40, 83
1, 512589, Control_c, 0, 64, 35
1, 512589, Control_c, 0, 67, 76
1, 512603, Control_c, 0, 64, 64
1, 512618, Control_c, 0, 64, 71
1, 512633, Control_c, 0, 64, 77
1, 512648, Control_c, 0, 64, 80
1, 512648, Control_c, 0, 67, 75
1, 512649, Note_on_c, 0, 43, 70
1, 512660, Note_off_c, 0, 40, 62
1, 512663, Control_c, 0, 64, 81
1, 512677, Control_c, 0, 64, 80
1, 512709, Note_off_c, 0, 43, 63
1, 512715, Note_on_c, 0, 48, 78
1, 512724, Note_on_c, 0, 62, 83
1, 512732, Note_on_c, 0, 51, 82
1, 512734, Note_on_c, 0, 55, 74
1, 512766, Control_c, 0, 64, 80
1, 512778, Note_off_c, 0, 51, 56
1, 512781, Control_c, 0, 64, 79
1, 512781, Control_c, 0, 67, 74
1, 512783, Note_off_c, 0, 62, 60
1, 512785, Note_on_c, 0, 43, 57
1, 512795, Control_c, 0, 64, 79
1, 512795, Control_c, 0, 67, 73
1, 512798, Note_off_c, 0, 48, 62
1, 512810, Note_off_c, 0, 55, 50
1, 512810, Control_c, 0, 67, 70
1, 512825, Control_c, 0, 64, 78
1, 512825, Control_c, 0, 67, 70
1, 512840, Control_c, 0, 64, 78
1, 512853, Note_on_c, 0, 39, 68
1, 512855, Control_c, 0, 64, 77
1, 512871, Note_off_c, 0, 43, 62
1, 512877, Control_c, 0, 67, 69
1, 512881, Note_on_c, 0, 55, 59
1, 512884, Note_on_c, 0, 51, 85
1, 512885, Note_on_c, 0, 60, 77
1, 512892, Control_c, 0, 67, 69
1, 512907, Control_c, 0, 67, 67
1, 512920, Note_off_c, 0, 39, 61
1, 512921, Control_c, 0, 64, 78
1, 512921, Control_c, 0, 67, 62
1, 512924, Note_off_c, 0, 55, 64
1, 512935, Note_off_c, 0, 60, 65
1, 512936, Control_c, 0, 64, 78
1, 512936, Control_c, 0, 67, 54
1, 512938, Note_off_c, 0, 51, 66
1, 512951, Control_c, 0, 64, 79
1, 512951, Control_c, 0, 67, 45
1, 512966, Control_c, 0, 64, 79
1, 512966, Control_c, 0, 67, 31
1, 512981, Control_c, 0, 64, 77
1, 512981, Control_c, 0, 67, 9
1, 512995, Control_c, 0, 64, 68
1, 512995, Control_c, 0, 67, 0
1, 513008, Note_on_c, 0, 29, 96
1, 513010, Control_c, 0, 64, 0
1, 513055, Control_c, 0, 64, 19
1, 513069, Control_c, 0, 64, 64
1, 513084, Control_c, 0, 64, 70
1, 513099, Control_c, 0, 64, 75
1, 513114, Control_c, 0, 64, 78
1, 513116, Note_on_c, 0, 36, 72
1, 513128, Control_c, 0, 64, 79
1, 513143, Control_c, 0, 64, 78
1, 513147, Note_off_c, 0, 29, 60
1, 513163, Note_on_c, 0, 58, 75
1, 513166, Note_on_c, 0, 48, 76
1, 513167, Note_on_c, 0, 39, 60
1, 513167, Note_on_c, 0, 51, 73
1, 513186, Note_off_c, 0, 36, 60
1, 513191, Note_on_c, 0, 57, 47
1, 513200, Note_off_c, 0, 48, 63
1, 513204, Note_off_c, 0, 51, 61
1, 513219, Note_off_c, 0, 57, 56
1, 513230, Note_off_c, 0, 58, 60
1, 513231, Note_on_c, 0, 41, 72
1, 513248, Control_c, 0, 64, 78
1, 513259, Note_off_c, 0, 39, 0
1, 513287, Note_on_c, 0, 39, 14
1, 513296, Note_on_c, 0, 51, 72
1, 513298, Note_on_c, 0, 57, 65
1, 513302, Note_on_c, 0, 48, 67
1, 513314, Note_off_c, 0, 41, 50
1, 513326, Note_on_c, 0, 36, 73
1, 513326, Note_off_c, 0, 57, 66
1, 513337, Control_c, 0, 64, 78
1, 513343, Note_off_c, 0, 39, 59
1, 513352, Control_c, 0, 64, 80
1, 513352, Note_off_c, 0, 51, 61
1, 513361, Note_off_c, 0, 48, 62
1, 513367, Control_c, 0, 64, 83
1, 513382, Control_c, 0, 64, 82
1, 513390, Note_off_c, 0, 36, 62
1, 513397, Control_c, 0, 64, 74
1, 513412, Control_c, 0, 64, 48
1, 513426, Control_c, 0, 64, 0
1, 513432, Note_on_c, 0, 34, 98
1, 513453, Note_on_c, 0, 46, 82
1, 513455, Note_off_c, 0, 34, 69
1, 513456, Control_c, 0, 64, 37
1, 513470, Control_c, 0, 64, 68
1, 513482, Note_off_c, 0, 46, 67
1, 513485, Control_c, 0, 64, 78
1, 513500, Control_c, 0, 64, 84
1, 513527, Note_on_c, 0, 48, 69
1, 513530, Control_c, 0, 64, 82
1, 513544, Control_c, 0, 64, 81
1, 513566, Note_off_c, 0, 48, 61
1, 513577, Note_on_c, 0, 50, 75
1, 513604, Control_c, 0, 64, 81
1, 513614, Note_on_c, 0, 46, 84
1, 513627, Note_on_c, 0, 51, 76
1, 513653, Note_off_c, 0, 50, 65
1, 513665, Note_off_c, 0, 51, 64
1, 513670, Control_c, 0, 64, 81
1, 513671, Note_off_c, 0, 46, 62
1, 513685, Control_c, 0, 64, 81
1, 513700, Note_on_c, 0, 53, 74
1, 513748, Note_on_c, 0, 50, 74
1, 513750, Note_off_c, 0, 53, 60
1, 513757, Note_on_c, 0, 55, 81
1, 513763, Note_on_c, 0, 46, 66
1, 513777, Note_off_c, 0, 50, 70
1, 513791, Note_off_c, 0, 46, 65
1, 513805, Control_c, 0, 64, 81
1, 513813, Note_on_c, 0, 57, 75
1, 513819, Control_c, 0, 64, 83
1, 513834, Control_c, 0, 64, 85
1, 513838, Note_off_c, 0, 55, 63
1, 513845, Note_on_c, 0, 58, 77
1, 513864, Note_off_c, 0, 57, 63
1, 513864, Control_c, 0, 64, 83
1, 513868, Note_off_c, 0, 58, 71
1, 513878, Control_c, 0, 64, 74
1, 513884, Note_on_c, 0, 46, 72
1, 513885, Note_on_c, 0, 50, 80
1, 513888, Note_on_c, 0, 53, 84
1, 513893, Control_c, 0, 64, 57
1, 513908, Control_c, 0, 64, 0
1, 513913, Note_on_c, 0, 60, 68
1, 513938, Control_c, 0, 64, 34
1, 513952, Control_c, 0, 64, 63
1, 513967, Note_off_c, 0, 60, 62
1, 513967, Control_c, 0, 64, 69
1, 513968, Note_on_c, 0, 62, 81
1, 513982, Control_c, 0, 64, 74
1, 513998, Control_c, 0, 64, 79
1, 514013, Control_c, 0, 64, 80
1, 514017, Note_on_c, 0, 63, 79
1, 514021, Note_off_c, 0, 62, 63
1, 514029, Note_off_c, 0, 53, 63
1, 514041, Note_off_c, 0, 63, 67
1, 514043, Control_c, 0, 64, 80
1, 514075, Note_off_c, 0, 46, 58
1, 514081, Note_on_c, 0, 65, 80
1, 514101, Note_off_c, 0, 50, 63
1, 514101, Control_c, 0, 64, 79
1, 514113, Note_off_c, 0, 65, 63
1, 514146, Control_c, 0, 64, 79
1, 514151, Note_on_c, 0, 67, 80
1, 514161, Control_c, 0, 64, 74
1, 514175, Note_on_c, 0, 69, 72
1, 514175, Note_on_c, 0, 41, 66
1, 514175, Control_c, 0, 64, 66
1, 514184, Note_on_c, 0, 48, 63
1, 514190, Control_c, 0, 64, 0
1, 514195, Note_on_c, 0, 53, 55
1, 514203, Note_off_c, 0, 67, 59
1, 514208, Note_off_c, 0, 41, 64
1, 514213, Note_off_c, 0, 48, 64
1, 514216, Note_off_c, 0, 53, 65
1, 514227, Note_off_c, 0, 69, 62
1, 514253, Note_on_c, 0, 57, 72
1, 514288, Note_off_c, 0, 57, 61
1, 514309, Control_c, 0, 64, 56
1, 514315, Note_on_c, 0, 58, 82
1, 514322, Note_on_c, 0, 50, 82
1, 514323, Note_on_c, 0, 53, 70
1, 514324, Control_c, 0, 64, 65
1, 514329, Note_on_c, 0, 46, 78
1, 514339, Control_c, 0, 64, 69
1, 514353, Control_c, 0, 64, 73
1, 514372, Note_off_c, 0, 50, 63
1, 514373, Note_off_c, 0, 58, 64
1, 514375, Control_c, 0, 64, 76
1, 514383, Note_off_c, 0, 46, 60
1, 514389, Note_off_c, 0, 53, 62
1, 514390, Control_c, 0, 64, 77
1, 514397, Note_on_c, 0, 60, 77
1, 514420, Control_c, 0, 64, 77
1, 514435, Control_c, 0, 64, 76
1, 514454, Note_off_c, 0, 60, 62
1, 514459, Note_on_c, 0, 62, 81
1, 514479, Note_on_c, 0, 46, 78
1, 514482, Note_on_c, 0, 50, 63
1, 514483, Note_on_c, 0, 53, 72
1, 514508, Note_on_c, 0, 63, 79
1, 514517, Note_off_c, 0, 50, 66
1, 514517, Note_off_c, 0, 53, 64
1, 514527, Note_off_c, 0, 62, 61
1, 514530, Note_off_c, 0, 46, 61
1, 514550, Note_off_c, 0, 63, 58
1, 514572, Note_on_c, 0, 65, 76
1, 514583, Control_c, 0, 64, 77
1, 514607, Note_on_c, 0, 50, 72
1, 514609, Note_on_c, 0, 53, 80
1, 514613, Control_c, 0, 64, 77
1, 514615, Note_on_c, 0, 46, 76
1, 514630, Note_off_c, 0, 65, 63
1, 514632, Note_on_c, 0, 67, 84
1, 514655, Note_off_c, 0, 50, 64
1, 514657, Control_c, 0, 64, 78
1, 514663, Note_off_c, 0, 46, 62
1, 514663, Note_off_c, 0, 53, 59
1, 514672, Control_c, 0, 64, 80
1, 514687, Control_c, 0, 64, 85
1, 514688, Note_on_c, 0, 69, 77
1, 514701, Control_c, 0, 64, 89
1, 514713, Note_off_c, 0, 67, 61
1, 514718, Note_on_c, 0, 70, 81
1, 514731, Control_c, 0, 64, 82
1, 514736, Note_off_c, 0, 69, 63
1, 514738, Note_off_c, 0, 70, 71
1, 514746, Control_c, 0, 64, 71
1, 514752, Note_on_c, 0, 50, 90
1, 514757, Note_on_c, 0, 53, 93
1, 514759, Note_on_c, 0, 46, 86
1, 514761, Control_c, 0, 64, 55
1, 514775, Control_c, 0, 64, 61
1, 514777, Note_on_c, 0, 72, 85
1, 514791, Control_c, 0, 64, 67
1, 514806, Control_c, 0, 64, 74
1, 514821, Control_c, 0, 64, 81
1, 514836, Control_c, 0, 64, 90
1, 514842, Note_on_c, 0, 74, 82
1, 514842, Note_off_c, 0, 72, 64
1, 514851, Control_c, 0, 64, 98
1, 514865, Control_c, 0, 64, 103
1, 514880, Control_c, 0, 64, 104
1, 514881, Note_on_c, 0, 75, 77
1, 514884, Note_off_c, 0, 74, 66
1, 514899, Note_off_c, 0, 75, 71
1, 514914, Note_off_c, 0, 53, 60
1, 514941, Note_off_c, 0, 46, 57
1, 514944, Note_on_c, 0, 77, 88
1, 514956, Note_off_c, 0, 50, 63
1, 514982, Note_off_c, 0, 77, 62
1, 515009, Note_on_c, 0, 79, 82
1, 515014, Note_on_c, 0, 53, 76
1, 515016, Note_on_c, 0, 41, 72
1, 515017, Note_on_c, 0, 48, 75
1, 515034, Note_on_c, 0, 81, 75
1, 515048, Note_off_c, 0, 41, 63
1, 515052, Note_off_c, 0, 48, 64
1, 515057, Note_off_c, 0, 79, 57
1, 515058, Control_c, 0, 64, 103
1, 515060, Note_off_c, 0, 53, 43
1, 515072, Control_c, 0, 64, 99
1, 515083, Note_off_c, 0, 81, 64
1, 515087, Control_c, 0, 64, 87
1, 515102, Note_on_c, 0, 69, 76
1, 515102, Control_c, 0, 64, 71
1, 515124, Control_c, 0, 64, 0
1, 515154, Note_off_c, 0, 69, 62
1, 515173, Note_on_c, 0, 50, 85
1, 515176, Note_on_c, 0, 46, 88
1, 515177, Note_on_c, 0, 70, 84
1, 515178, Note_on_c, 0, 53, 84
1, 515198, Control_c, 0, 64, 62
1, 515213, Control_c, 0, 64, 69
1, 515228, Control_c, 0, 64, 76
1, 515233, Note_off_c, 0, 70, 64
1, 515240, Note_off_c, 0, 46, 64
1, 515240, Note_off_c, 0, 50, 66
1, 515243, Control_c, 0, 64, 83
1, 515254, Note_off_c, 0, 53, 63
1, 515255, Note_on_c, 0, 72, 85
1, 515258, Control_c, 0, 64, 85
1, 515302, Control_c, 0, 64, 85
1, 515316, Control_c, 0, 64, 85
1, 515319, Note_off_c, 0, 72, 59
1, 515322, Note_on_c, 0, 74, 88
1, 515324, Note_on_c, 0, 50, 86
1, 515325, Note_on_c, 0, 46, 89
1, 515328, Note_on_c, 0, 53, 82
1, 515346, Control_c, 0, 64, 86
1, 515361, Control_c, 0, 64, 87
1, 515369, Note_off_c, 0, 50, 63
1, 515371, Note_on_c, 0, 75, 79
1, 515375, Note_off_c, 0, 46, 63
1, 515375, Note_off_c, 0, 53, 64
1, 515376, Control_c, 0, 64, 88
1, 515383, Note_off_c, 0, 74, 64
1, 515391, Control_c, 0, 64, 91
1, 515406, Control_c, 0, 64, 94
1, 515417, Note_off_c, 0, 75, 62
1, 515421, Control_c, 0, 64, 98
1, 515436, Control_c, 0, 64, 100
1, 515440, Note_on_c, 0, 77, 82
1, 515458, Note_on_c, 0, 50, 88
1, 515459, Note_on_c, 0, 46, 87
1, 515459, Note_on_c, 0, 53, 91
1, 515480, Control_c, 0, 64, 101
1, 515495, Control_c, 0, 64, 102
1, 515501, Note_on_c, 0, 79, 88
1, 515503, Note_off_c, 0, 77, 62
1, 515510, Control_c, 0, 64, 103
1, 515511, Note_off_c, 0, 50, 62
1, 515522, Note_off_c, 0, 53, 56
1, 515525, Control_c, 0, 64, 106
1, 515533, Note_off_c, 0, 46, 61
1, 515540, Control_c, 0, 64, 109
1, 515548, Note_on_c, 0, 81, 80
1, 515555, Control_c, 0, 64, 110
1, 515570, Control_c, 0, 64, 107
1, 515580, Note_off_c, 0, 79, 55
1, 515582, Note_on_c, 0, 82, 90
1, 515585, Control_c, 0, 64, 94
1, 515598, Note_off_c, 0, 81, 64
1, 515598, Note_off_c, 0, 82, 75
1, 515600, Control_c, 0, 64, 83
1, 515609, Note_on_c, 0, 50, 87
1, 515612, Note_on_c, 0, 53, 97
1, 515614, Note_on_c, 0, 46, 86
1, 515614, Control_c, 0, 64, 81
1, 515629, Control_c, 0, 64, 89
1, 515644, Note_on_c, 0, 84, 86
1, 515644, Control_c, 0, 64, 109
1, 515659, Control_c, 0, 64, 127
1, 515704, Note_off_c, 0, 84, 67
1, 515707, Note_on_c, 0, 86, 83
1, 515734, Note_off_c, 0, 53, 60
1, 515736, Note_off_c, 0, 46, 57
1, 515747, Note_on_c, 0, 87, 77
1, 515751, Note_off_c, 0, 86, 67
1, 515767, Note_off_c, 0, 50, 61
1, 515769, Note_off_c, 0, 87, 71
1, 515808, Note_on_c, 0, 88, 76
1, 515826, Note_on_c, 0, 53, 83
1, 515829, Note_on_c, 0, 41, 62
1, 515830, Note_on_c, 0, 48, 73
1, 515855, Note_off_c, 0, 41, 58
1, 515855, Note_off_c, 0, 48, 65
1, 515856, Note_off_c, 0, 88, 66
1, 515879, Note_off_c, 0, 53, 59
1, 515924, Note_on_c, 0, 93, 45
1, 515956, Note_on_c, 0, 81, 74
1, 515960, Note_off_c, 0, 93, 53
1, 515988, Note_off_c, 0, 81, 64
1, 516008, Control_c, 0, 64, 81
1, 516021, Control_c, 0, 64, 0
1, 516027, Note_on_c, 0, 94, 105
1, 516041, Note_on_c, 0, 82, 85
1, 516048, Note_on_c, 0, 58, 94
1, 516052, Note_off_c, 0, 94, 73
1, 516053, Note_on_c, 0, 50, 79
1, 516054, Note_on_c, 0, 46, 76
1, 516054, Note_off_c, 0, 82, 73
1, 516058, Note_on_c, 0, 53, 79
1, 516065, Control_c, 0, 64, 70
1, 516080, Control_c, 0, 64, 87
1, 516093, Note_off_c, 0, 53, 64
1, 516095, Control_c, 0, 64, 127
1, 516097, Note_off_c, 0, 46, 57
1, 516101, Note_off_c, 0, 58, 62
1, 516103, Note_off_c, 0, 50, 63
1, 516480, Note_on_c, 0, 82, 103
1, 516482, Note_on_c, 0, 74, 97
1, 516485, Note_on_c, 0, 77, 93
1, 516488, Note_on_c, 0, 46, 83
1, 516488, Note_on_c, 0, 58, 85
1, 516494, Note_on_c, 0, 53, 88
1, 516495, Note_on_c, 0, 50, 81
1, 516513, Note_off_c, 0, 74, 69
1, 516519, Note_off_c, 0, 77, 66
1, 516522, Note_off_c, 0, 82, 68
1, 516566, Note_off_c, 0, 46, 63
1, 516582, Note_off_c, 0, 50, 62
1, 516589, Note_off_c, 0, 53, 65
1, 516590, Note_off_c, 0, 58, 63
1, 516936, Note_on_c, 0, 70, 92
1, 516938, Note_on_c, 0, 62, 89
1, 516939, Note_on_c, 0, 58, 83
1, 516940, Note_on_c, 0, 65, 87
1, 516942, Note_on_c, 0, 46, 72
1, 516944, Note_on_c, 0, 53, 77
1, 516951, Note_on_c, 0, 50, 73
1, 517117, Note_off_c, 0, 62, 46
1, 517135, Note_off_c, 0, 70, 60
1, 517139, Note_off_c, 0, 65, 57
1, 517155, Note_off_c, 0, 46, 61
1, 517163, Note_off_c, 0, 50, 62
1, 517191, Note_off_c, 0, 53, 64
1, 517222, Note_off_c, 0, 58, 56
1, 517431, Control_c, 0, 67, 8
1, 517446, Control_c, 0, 64, 108
1, 517446, Control_c, 0, 67, 15
1, 517461, Control_c, 0, 64, 92
1, 517461, Control_c, 0, 67, 23
1, 517475, Control_c, 0, 64, 80
1, 517475, Control_c, 0, 67, 34
1, 517490, Control_c, 0, 64, 69
1, 517490, Control_c, 0, 67, 44
1, 517505, Control_c, 0, 64, 58
1, 517505, Control_c, 0, 67, 54
1, 517519, Control_c, 0, 64, 0
1, 517519, Control_c, 0, 67, 64
1, 517534, Control_c, 0, 67, 71
1, 517549, Control_c, 0, 67, 78
1, 517564, Control_c, 0, 67, 84
1, 517579, Control_c, 0, 67, 89
1, 517594, Control_c, 0, 67, 95
1, 517609, Control_c, 0, 67, 102
1, 517624, Control_c, 0, 67, 108
1, 517638, Control_c, 0, 67, 113
1, 517653, Control_c, 0, 67, 115
1, 517662, Note_on_c, 0, 82, 62
1, 517668, Control_c, 0, 64, 40
1, 517668, Control_c, 0, 67, 117
1, 517683, Control_c, 0, 64, 61
1, 517683, Control_c, 0, 67, 119
1, 517698, Control_c, 0, 64, 67
1, 517698, Control_c, 0, 67, 120
1, 517712, Control_c, 0, 64, 73
1, 517712, Control_c, 0, 67, 121
1, 517727, Control_c, 0, 64, 79
1, 517742, Control_c, 0, 64, 85
1, 517757, Control_c, 0, 64, 90
1, 517762, Note_off_c, 0, 82, 60
1, 517772, Control_c, 0, 64, 90
1, 517849, Note_on_c, 0, 82, 69
1, 517860, Control_c, 0, 64, 90
1, 517875, Control_c, 0, 64, 89
1, 517883, Note_on_c, 0, 63, 36
1, 517883, Note_on_c, 0, 67, 39
1, 517885, Note_on_c, 0, 70, 39
1, 517890, Control_c, 0, 64, 88
1, 517905, Control_c, 0, 64, 84
1, 517905, Control_c, 0, 67, 121
1, 517919, Control_c, 0, 64, 81
1, 517934, Control_c, 0, 64, 79
1, 517949, Control_c, 0, 64, 78
1, 517964, Control_c, 0, 64, 75
1, 517979, Control_c, 0, 64, 70
1, 517979, Control_c, 0, 67, 120
1, 517980, Note_off_c, 0, 70, 29
1, 517991, Note_off_c, 0, 67, 59
1, 517995, Control_c, 0, 64, 64
1, 517995, Control_c, 0, 67, 119
1, 518006, Note_on_c, 0, 79, 78
1, 518009, Control_c, 0, 64, 64
1, 518015, Note_off_c, 0, 63, 58
1, 518054, Control_c, 0, 64, 63
1, 518068, Control_c, 0, 64, 62
1, 518068, Control_c, 0, 67, 118
1, 518083, Control_c, 0, 64, 56
1, 518083, Control_c, 0, 67, 118
1, 518098, Control_c, 0, 64, 0
1, 518136, Control_c, 0, 67, 117
1, 518163, Note_on_c, 0, 75, 81
1, 518210, Control_c, 0, 67, 117
1, 518234, Note_off_c, 0, 82, 46
1, 518239, Control_c, 0, 67, 116
1, 518240, Note_off_c, 0, 79, 59
1, 518268, Control_c, 0, 67, 115
1, 518283, Control_c, 0, 67, 115
1, 518298, Control_c, 0, 67, 114
1, 518313, Note_on_c, 0, 70, 46
1, 518313, Control_c, 0, 64, 37
1, 518313, Control_c, 0, 67, 112
1, 518320, Note_on_c, 0, 58, 50
1, 518322, Note_on_c, 0, 74, 75
1, 518323, Note_on_c, 0, 65, 44
1, 518328, Control_c, 0, 64, 62
1, 518328, Control_c, 0, 67, 111
1, 518329, Note_on_c, 0, 68, 42
1, 518342, Control_c, 0, 64, 70
1, 518357, Control_c, 0, 64, 78
1, 518372, Note_off_c, 0, 75, 61
1, 518372, Control_c, 0, 64, 89
1, 518372, Control_c, 0, 67, 111
1, 518382, Note_off_c, 0, 58, 60
1, 518382, Note_off_c, 0, 70, 63
1, 518387, Control_c, 0, 64, 100
1, 518387, Control_c, 0, 67, 110
1, 518402, Control_c, 0, 64, 104
1, 518404, Note_off_c, 0, 65, 62
1, 518405, Note_off_c, 0, 68, 61
1, 518416, Control_c, 0, 64, 104
1, 518461, Control_c, 0, 64, 104
1, 518469, Note_on_c, 0, 77, 82
1, 518476, Control_c, 0, 64, 102
1, 518491, Control_c, 0, 64, 100
1, 518494, Note_off_c, 0, 74, 61
1, 518506, Control_c, 0, 64, 97
1, 518521, Control_c, 0, 64, 92
1, 518535, Control_c, 0, 64, 85
1, 518550, Control_c, 0, 64, 78
1, 518565, Control_c, 0, 64, 71
1, 518580, Control_c, 0, 64, 67
1, 518595, Control_c, 0, 64, 65
1, 518609, Control_c, 0, 64, 61
1, 518624, Control_c, 0, 64, 47
1, 518624, Control_c, 0, 67, 111
1, 518625, Note_on_c, 0, 82, 92
1, 518639, Control_c, 0, 64, 0
1, 518659, Note_off_c, 0, 77, 63
1, 518723, Note_off_c, 0, 82, 65
1, 518789, Note_on_c, 0, 82, 80
1, 518804, Note_on_c, 0, 63, 39
1, 518807, Note_on_c, 0, 70, 43
1, 518815, Note_on_c, 0, 67, 33
1, 518833, Control_c, 0, 64, 23
1, 518847, Control_c, 0, 64, 61
1, 518870, Control_c, 0, 64, 67
1, 518884, Control_c, 0, 64, 73
1, 518899, Control_c, 0, 64, 79
1, 518914, Control_c, 0, 64, 84
1, 518929, Control_c, 0, 64, 89
1, 518944, Control_c, 0, 64, 93
1, 518952, Note_off_c, 0, 70, 62
1, 518953, Note_on_c, 0, 79, 80
1, 518959, Control_c, 0, 64, 94
1, 518973, Control_c, 0, 64, 95
1, 518980, Note_off_c, 0, 67, 59
1, 518988, Control_c, 0, 67, 110
1, 518993, Note_off_c, 0, 63, 52
1, 519018, Control_c, 0, 67, 110
1, 519028, Note_off_c, 0, 82, 51
1, 519033, Control_c, 0, 67, 109
1, 519047, Control_c, 0, 67, 109
1, 519062, Control_c, 0, 67, 107
1, 519077, Control_c, 0, 64, 94
1, 519077, Control_c, 0, 67, 105
1, 519091, Control_c, 0, 64, 93
1, 519091, Control_c, 0, 67, 100
1, 519096, Note_on_c, 0, 75, 88
1, 519099, Note_off_c, 0, 79, 58
1, 519106, Control_c, 0, 64, 93
1, 519106, Control_c, 0, 67, 93
1, 519121, Control_c, 0, 67, 88
1, 519136, Control_c, 0, 64, 91
1, 519136, Control_c, 0, 67, 84
1, 519151, Control_c, 0, 64, 90
1, 519151, Control_c, 0, 67, 80
1, 519157, Note_off_c, 0, 75, 63
1, 519165, Control_c, 0, 64, 89
1, 519165, Control_c, 0, 67, 78
1, 519180, Control_c, 0, 67, 77
1, 519210, Control_c, 0, 64, 89
1, 519225, Control_c, 0, 64, 87
1, 519225, Control_c, 0, 67, 77
1, 519239, Control_c, 0, 64, 85
1, 519239, Control_c, 0, 67, 78
1, 519254, Control_c, 0, 64, 84
1, 519254, Control_c, 0, 67, 78
1, 519255, Note_on_c, 0, 75, 85
1, 519269, Control_c, 0, 67, 79
1, 519284, Control_c, 0, 67, 80
1, 519299, Control_c, 0, 64, 84
1, 519314, Control_c, 0, 64, 82
1, 519314, Control_c, 0, 67, 81
1, 519329, Control_c, 0, 64, 80
1, 519329, Control_c, 0, 67, 81
1, 519344, Control_c, 0, 64, 78
1, 519358, Control_c, 0, 64, 77
1, 519373, Control_c, 0, 64, 76
1, 519388, Control_c, 0, 64, 74
1, 519388, Control_c, 0, 67, 82
1, 519397, Note_on_c, 0, 79, 85
1, 519403, Control_c, 0, 64, 71
1, 519403, Control_c, 0, 67, 83
1, 519418, Control_c, 0, 64, 68
1, 519420, Note_off_c, 0, 75, 60
1, 519432, Control_c, 0, 64, 64
1, 519432, Control_c, 0, 67, 83
1, 519447, Control_c, 0, 64, 60
1, 519447, Control_c, 0, 67, 84
1, 519462, Control_c, 0, 64, 53
1, 519477, Control_c, 0, 64, 42
1, 519491, Control_c, 0, 64, 19
1, 519506, Control_c, 0, 64, 0
1, 519536, Control_c, 0, 67, 83
1, 519546, Note_on_c, 0, 84, 85
1, 519550, Note_on_c, 0, 70, 49
1, 519551, Note_on_c, 0, 72, 49
1, 519551, Control_c, 0, 64, 47
1, 519551, Control_c, 0, 67, 83
1, 519563, Note_on_c, 0, 67, 41
1, 519565, Control_c, 0, 64, 61
1, 519571, Note_on_c, 0, 64, 30
1, 519581, Control_c, 0, 64, 65
1, 519581, Control_c, 0, 67, 82
1, 519594, Note_off_c, 0, 70, 61
1, 519594, Note_off_c, 0, 72, 49
1, 519596, Control_c, 0, 64, 70
1, 519597, Note_off_c, 0, 79, 59
1, 519603, Note_off_c, 0, 67, 51
1, 519618, Control_c, 0, 64, 75
1, 519618, Control_c, 0, 67, 82
1, 519633, Control_c, 0, 64, 79
1, 519633, Control_c, 0, 67, 81
1, 519636, Note_off_c, 0, 64, 45
1, 519648, Control_c, 0, 64, 81
1, 519648, Control_c, 0, 67, 81
1, 519649, Note_off_c, 0, 84, 65
1, 519662, Control_c, 0, 64, 82
1, 519677, Control_c, 0, 64, 82
1, 519715, Note_on_c, 0, 84, 78
1, 519722, Control_c, 0, 67, 80
1, 519735, Note_on_c, 0, 72, 41
1, 519737, Control_c, 0, 64, 81
1, 519737, Control_c, 0, 67, 80
1, 519740, Note_on_c, 0, 65, 46
1, 519741, Note_on_c, 0, 68, 49
1, 519752, Control_c, 0, 64, 79
1, 519767, Control_c, 0, 64, 75
1, 519767, Control_c, 0, 67, 80
1, 519782, Control_c, 0, 64, 70
1, 519796, Control_c, 0, 64, 64
1, 519796, Control_c, 0, 67, 81
1, 519811, Control_c, 0, 64, 49
1, 519811, Control_c, 0, 67, 80
1, 519826, Control_c, 0, 64, 11
1, 519826, Control_c, 0, 67, 80
1, 519841, Control_c, 0, 64, 0
1, 519841, Control_c, 0, 67, 79
1, 519856, Control_c, 0, 67, 78
1, 519870, Control_c, 0, 64, 40
1, 519870, Control_c, 0, 67, 78
1, 519871, Note_on_c, 0, 80, 86
1, 519875, Note_off_c, 0, 72, 49
1, 519885, Control_c, 0, 64, 60
1, 519885, Control_c, 0, 67, 77
1, 519888, Note_off_c, 0, 65, 63
1, 519899, Note_off_c, 0, 68, 61
1, 519900, Control_c, 0, 64, 65
1, 519900, Control_c, 0, 67, 76
1, 519914, Control_c, 0, 64, 70
1, 519914, Control_c, 0, 67, 75
1, 519929, Control_c, 0, 64, 74
1, 519929, Control_c, 0, 67, 74
1, 519944, Control_c, 0, 64, 79
1, 519944, Control_c, 0, 67, 72
1, 519959, Control_c, 0, 64, 84
1, 519959, Control_c, 0, 67, 68
1, 519974, Control_c, 0, 64, 87
1, 519974, Control_c, 0, 67, 61
1, 519988, Control_c, 0, 64, 87
1, 519988, Control_c, 0, 67, 52
1, 520003, Control_c, 0, 67, 44
1, 520015, Note_on_c, 0, 77, 85
1, 520018, Control_c, 0, 67, 41
1, 520032, Control_c, 0, 67, 38
1, 520047, Control_c, 0, 67, 36
1, 520056, Note_off_c, 0, 84, 25
1, 520062, Control_c, 0, 67, 32
1, 520077, Control_c, 0, 64, 86
1, 520077, Control_c, 0, 67, 28
1, 520092, Control_c, 0, 64, 82
1, 520092, Control_c, 0, 67, 24
1, 520104, Note_off_c, 0, 80, 60
1, 520107, Control_c, 0, 64, 77
1, 520107, Control_c, 0, 67, 20
1, 520122, Control_c, 0, 64, 71
1, 520122, Control_c, 0, 67, 18
1, 520136, Control_c, 0, 64, 64
1, 520136, Control_c, 0, 67, 17
1, 520151, Control_c, 0, 64, 51
1, 520151, Control_c, 0, 67, 16
1, 520154, Note_on_c, 0, 76, 85
1, 520161, Note_on_c, 0, 60, 56
1, 520166, Control_c, 0, 64, 0
1, 520166, Control_c, 0, 67, 15
1, 520181, Control_c, 0, 67, 13
1, 520184, Note_on_c, 0, 67, 46
1, 520188, Note_on_c, 0, 72, 38
1, 520192, Note_on_c, 0, 70, 40
1, 520196, Control_c, 0, 67, 10
1, 520201, Note_off_c, 0, 77, 64
1, 520211, Control_c, 0, 67, 0
1, 520226, Control_c, 0, 64, 31
1, 520240, Control_c, 0, 64, 59
1, 520255, Control_c, 0, 64, 65
1, 520270, Control_c, 0, 64, 69
1, 520285, Note_off_c, 0, 60, 58
1, 520285, Control_c, 0, 64, 75
1, 520292, Note_off_c, 0, 67, 56
1, 520294, Note_off_c, 0, 70, 61
1, 520294, Note_off_c, 0, 72, 53
1, 520297, Note_on_c, 0, 79, 93
1, 520300, Control_c, 0, 64, 81
1, 520314, Control_c, 0, 64, 88
1, 520329, Control_c, 0, 64, 94
1, 520342, Note_off_c, 0, 76, 62
1, 520344, Control_c, 0, 64, 97
1, 520366, Control_c, 0, 64, 99
1, 520381, Control_c, 0, 64, 99
1, 520397, Control_c, 0, 64, 100
1, 520453, Note_on_c, 0, 84, 92
1, 520502, Note_off_c, 0, 79, 61
1, 520541, Note_off_c, 0, 84, 64
1, 520544, Control_c, 0, 64, 99
1, 520559, Control_c, 0, 64, 98
1, 520574, Control_c, 0, 64, 96
1, 520589, Control_c, 0, 64, 94
1, 520604, Control_c, 0, 64, 94
1, 520618, Control_c, 0, 64, 92
1, 520624, Note_on_c, 0, 84, 92
1, 520633, Control_c, 0, 64, 88
1, 520648, Control_c, 0, 64, 81
1, 520658, Note_on_c, 0, 68, 49
1, 520658, Note_on_c, 0, 72, 47
1, 520662, Control_c, 0, 64, 71
1, 520668, Note_on_c, 0, 65, 41
1, 520677, Control_c, 0, 64, 63
1, 520692, Control_c, 0, 64, 40
1, 520707, Control_c, 0, 64, 0
1, 520766, Control_c, 0, 64, 39
1, 520779, Note_on_c, 0, 80, 78
1, 520781, Control_c, 0, 64, 58
1, 520784, Note_off_c, 0, 72, 60
1, 520796, Control_c, 0, 64, 63
1, 520810, Control_c, 0, 64, 66
1, 520825, Control_c, 0, 64, 70
1, 520829, Note_off_c, 0, 65, 62
1, 520840, Control_c, 0, 64, 76
1, 520841, Note_off_c, 0, 68, 61
1, 520855, Control_c, 0, 64, 83
1, 520870, Control_c, 0, 64, 86
1, 520885, Control_c, 0, 64, 87
1, 520900, Control_c, 0, 64, 87
1, 520923, Note_off_c, 0, 84, 31
1, 520926, Note_on_c, 0, 77, 84
1, 520989, Control_c, 0, 64, 87
1, 521003, Control_c, 0, 64, 85
1, 521013, Note_off_c, 0, 80, 61
1, 521018, Control_c, 0, 64, 83
1, 521033, Control_c, 0, 64, 79
1, 521048, Control_c, 0, 64, 73
1, 521062, Control_c, 0, 64, 65
1, 521077, Control_c, 0, 64, 55
1, 521080, Note_on_c, 0, 74, 86
1, 521092, Control_c, 0, 64, 24
1, 521114, Control_c, 0, 64, 0
1, 521129, Note_off_c, 0, 77, 61
1, 521229, Note_on_c, 0, 77, 83
1, 521272, Note_off_c, 0, 74, 60
1, 521293, Control_c, 0, 64, 42
1, 521308, Control_c, 0, 64, 54
1, 521323, Control_c, 0, 64, 63
1, 521338, Control_c, 0, 64, 68
1, 521353, Control_c, 0, 64, 76
1, 521367, Control_c, 0, 64, 84
1, 521369, Note_on_c, 0, 82, 88
1, 521376, Note_on_c, 0, 70, 52
1, 521376, Note_on_c, 0, 68, 53
1, 521382, Control_c, 0, 64, 93
1, 521388, Note_on_c, 0, 62, 44
1, 521397, Control_c, 0, 64, 99
1, 521401, Note_on_c, 0, 65, 41
1, 521412, Control_c, 0, 64, 106
1, 521415, Note_off_c, 0, 77, 63
1, 521418, Note_off_c, 0, 68, 58
1, 521424, Note_off_c, 0, 70, 56
1, 521427, Control_c, 0, 64, 119
1, 521441, Control_c, 0, 64, 127
1, 521442, Note_off_c, 0, 65, 50
1, 521452, Note_off_c, 0, 62, 51
1, 521459, Note_off_c, 0, 82, 64
1, 521485, Control_c, 0, 67, 9
1, 521500, Control_c, 0, 67, 13
1, 521515, Control_c, 0, 67, 16
1, 521530, Control_c, 0, 67, 18
1, 521535, Note_on_c, 0, 82, 80
1, 521545, Control_c, 0, 64, 119
1, 521545, Control_c, 0, 67, 19
1, 521559, Control_c, 0, 64, 99
1, 521559, Control_c, 0, 67, 20
1, 521561, Note_on_c, 0, 70, 46
1, 521569, Note_on_c, 0, 63, 49
1, 521574, Note_on_c, 0, 67, 55
1, 521574, Control_c, 0, 64, 86
1, 521589, Control_c, 0, 64, 75
1, 521604, Control_c, 0, 64, 67
1, 521604, Control_c, 0, 67, 19
1, 521618, Control_c, 0, 64, 62
1, 521618, Control_c, 0, 67, 18
1, 521633, Control_c, 0, 64, 61
1, 521633, Control_c, 0, 67, 18
1, 521658, Note_off_c, 0, 70, 63
1, 521663, Control_c, 0, 64, 63
1, 521676, Note_off_c, 0, 67, 63
1, 521678, Control_c, 0, 64, 65
1, 521678, Control_c, 0, 67, 17
1, 521687, Note_on_c, 0, 79, 79
1, 521692, Control_c, 0, 64, 67
1, 521702, Note_off_c, 0, 63, 63
1, 521707, Control_c, 0, 64, 71
1, 521707, Control_c, 0, 67, 16
1, 521722, Control_c, 0, 64, 75
1, 521722, Control_c, 0, 67, 15
1, 521737, Control_c, 0, 64, 78
1, 521737, Control_c, 0, 67, 14
1, 521749, Note_off_c, 0, 82, 60
1, 521752, Control_c, 0, 64, 80
1, 521752, Control_c, 0, 67, 12
1, 521767, Control_c, 0, 64, 81
1, 521767, Control_c, 0, 67, 12
1, 521782, Control_c, 0, 64, 82
1, 521782, Control_c, 0, 67, 11
1, 521826, Control_c, 0, 64, 81
1, 521838, Note_on_c, 0, 75, 84
1, 521841, Control_c, 0, 67, 11
1, 521863, Control_c, 0, 67, 12
1, 521878, Control_c, 0, 67, 13
1, 521892, Control_c, 0, 64, 80
1, 521892, Control_c, 0, 67, 14
1, 521893, Note_off_c, 0, 79, 60
1, 521907, Control_c, 0, 64, 79
1, 521907, Control_c, 0, 67, 15
1, 521922, Control_c, 0, 64, 78
1, 521922, Control_c, 0, 67, 16
1, 521937, Control_c, 0, 64, 75
1, 521937, Control_c, 0, 67, 17
1, 521952, Control_c, 0, 64, 71
1, 521952, Control_c, 0, 67, 19
1, 521967, Control_c, 0, 64, 65
1, 521967, Control_c, 0, 67, 19
1, 521982, Control_c, 0, 64, 45
1, 521982, Control_c, 0, 67, 20
1, 521997, Note_on_c, 0, 72, 74
1, 521997, Control_c, 0, 64, 0
1, 521997, Control_c, 0, 67, 22
1, 522011, Note_on_c, 0, 65, 56
1, 522011, Control_c, 0, 67, 25
1, 522019, Note_on_c, 0, 56, 55
1, 522026, Control_c, 0, 67, 33
1, 522028, Note_on_c, 0, 60, 49
1, 522033, Note_off_c, 0, 75, 59
1, 522041, Control_c, 0, 67, 41
1, 522056, Control_c, 0, 67, 47
1, 522071, Control_c, 0, 67, 53
1, 522086, Control_c, 0, 64, 17
1, 522086, Control_c, 0, 67, 59
1, 522101, Control_c, 0, 64, 59
1, 522101, Control_c, 0, 67, 66
1, 522115, Control_c, 0, 64, 67
1, 522115, Control_c, 0, 67, 72
1, 522118, Note_off_c, 0, 65, 63
1, 522130, Control_c, 0, 64, 73
1, 522130, Control_c, 0, 67, 76
1, 522136, Note_off_c, 0, 56, 64
1, 522145, Control_c, 0, 64, 80
1, 522145, Control_c, 0, 67, 79
1, 522149, Note_off_c, 0, 60, 64
1, 522160, Control_c, 0, 64, 85
1, 522160, Control_c, 0, 67, 81
1, 522163, Note_on_c, 0, 77, 73
1, 522172, Note_off_c, 0, 72, 55
1, 522175, Control_c, 0, 64, 87
1, 522175, Control_c, 0, 67, 84
1, 522189, Control_c, 0, 64, 88
1, 522189, Control_c, 0, 67, 88
1, 522204, Control_c, 0, 67, 92
1, 522219, Control_c, 0, 67, 97
1, 522233, Control_c, 0, 67, 101
1, 522248, Control_c, 0, 67, 105
1, 522263, Control_c, 0, 67, 110
1, 522278, Control_c, 0, 64, 86
1, 522278, Control_c, 0, 67, 112
1, 522293, Control_c, 0, 64, 82
1, 522293, Control_c, 0, 67, 113
1, 522307, Control_c, 0, 64, 77
1, 522307, Control_c, 0, 67, 114
1, 522312, Note_on_c, 0, 80, 70
1, 522322, Control_c, 0, 64, 72
1, 522322, Control_c, 0, 67, 117
1, 522337, Control_c, 0, 64, 67
1, 522337, Control_c, 0, 67, 119
1, 522352, Control_c, 0, 64, 63
1, 522352, Control_c, 0, 67, 122
1, 522367, Control_c, 0, 64, 50
1, 522367, Control_c, 0, 67, 123
1, 522374, Note_off_c, 0, 77, 58
1, 522381, Control_c, 0, 64, 0
1, 522381, Control_c, 0, 67, 123
1, 522396, Control_c, 0, 67, 124
1, 522411, Control_c, 0, 67, 126
1, 522426, Control_c, 0, 67, 127
1, 522448, Note_off_c, 0, 80, 57
1, 522459, Note_on_c, 0, 70, 66
1, 522476, Note_on_c, 0, 63, 48
1, 522476, Note_on_c, 0, 67, 48
1, 522481, Note_on_c, 0, 58, 49
1, 522515, Control_c, 0, 64, 56
1, 522530, Control_c, 0, 64, 66
1, 522545, Control_c, 0, 64, 72
1, 522560, Control_c, 0, 64, 79
1, 522570, Note_off_c, 0, 67, 60
1, 522575, Control_c, 0, 64, 82
1, 522589, Control_c, 0, 64, 83
1, 522609, Note_off_c, 0, 63, 58
1, 522617, Note_off_c, 0, 58, 53
1, 522621, Note_on_c, 0, 75, 69
1, 522655, Control_c, 0, 64, 80
1, 522670, Control_c, 0, 64, 78
1, 522678, Note_off_c, 0, 70, 38
1, 522685, Control_c, 0, 64, 75
1, 522700, Control_c, 0, 64, 72
1, 522715, Control_c, 0, 64, 69
1, 522730, Control_c, 0, 64, 65
1, 522745, Control_c, 0, 64, 56
1, 522760, Control_c, 0, 64, 0
1, 522761, Note_on_c, 0, 79, 68
1, 522786, Note_off_c, 0, 75, 55
1, 522879, Control_c, 0, 67, 127
1, 522886, Note_off_c, 0, 79, 57
1, 522894, Control_c, 0, 64, 36
1, 522894, Control_c, 0, 67, 126
1, 522909, Control_c, 0, 64, 57
1, 522909, Control_c, 0, 67, 126
1, 522915, Note_on_c, 0, 68, 61
1, 522924, Control_c, 0, 64, 64
1, 522927, Note_on_c, 0, 62, 44
1, 522934, Note_on_c, 0, 58, 42
1, 522938, Control_c, 0, 64, 69
1, 522938, Control_c, 0, 67, 125
1, 522940, Note_on_c, 0, 65, 30
1, 522953, Control_c, 0, 64, 73
1, 522968, Control_c, 0, 64, 75
1, 522975, Note_off_c, 0, 65, 54
1, 522983, Note_off_c, 0, 62, 57
1, 522983, Control_c, 0, 64, 76
1, 522983, Control_c, 0, 67, 125
1, 522998, Control_c, 0, 67, 124
1, 523028, Note_off_c, 0, 58, 55
1, 523043, Control_c, 0, 64, 75
1, 523057, Note_off_c, 0, 68, 52
1, 523058, Note_on_c, 0, 74, 59
1, 523087, Control_c, 0, 64, 75
1, 523102, Control_c, 0, 64, 74
1, 523117, Control_c, 0, 64, 72
1, 523131, Control_c, 0, 64, 71
1, 523161, Control_c, 0, 67, 124
1, 523176, Control_c, 0, 64, 71
1, 523191, Control_c, 0, 64, 70
1, 523204, Note_on_c, 0, 58, 64
1, 523205, Control_c, 0, 64, 69
1, 523208, Note_on_c, 0, 77, 57
1, 523214, Note_on_c, 0, 68, 44
1, 523222, Note_off_c, 0, 74, 48
1, 523235, Control_c, 0, 67, 123
1, 523264, Control_c, 0, 67, 123
1, 523268, Note_off_c, 0, 58, 61
1, 523279, Control_c, 0, 64, 68
1, 523294, Control_c, 0, 64, 68
1, 523297, Note_off_c, 0, 68, 59
1, 523309, Control_c, 0, 64, 68
1, 523338, Control_c, 0, 64, 68
1, 523344, Note_off_c, 0, 77, 56
1, 523361, Control_c, 0, 67, 122
1, 523368, Note_on_c, 0, 58, 70
1, 523374, Note_on_c, 0, 75, 55
1, 523376, Control_c, 0, 64, 67
1, 523389, Note_on_c, 0, 67, 42
1, 523405, Control_c, 0, 64, 66
1, 523420, Control_c, 0, 67, 122
1, 523435, Control_c, 0, 67, 121
1, 523450, Control_c, 0, 67, 121
1, 523454, Note_off_c, 0, 67, 54
1, 523479, Control_c, 0, 64, 66
1, 523501, Note_off_c, 0, 75, 63
1, 523509, Control_c, 0, 64, 65
1, 523518, Note_on_c, 0, 55, 73
1, 523524, Control_c, 0, 64, 64
1, 523532, Note_off_c, 0, 58, 61
1, 523538, Control_c, 0, 64, 63
1, 523553, Control_c, 0, 64, 63
1, 523553, Control_c, 0, 67, 120
1, 523568, Control_c, 0, 64, 63
1, 523639, Note_on_c, 0, 51, 74
1, 523654, Note_on_c, 0, 79, 65
1, 523671, Note_off_c, 0, 55, 57
1, 523761, Note_off_c, 0, 79, 57
1, 523761, Control_c, 0, 64, 62
1, 523776, Control_c, 0, 64, 61
1, 523779, Note_on_c, 0, 50, 64
1, 523786, Note_off_c, 0, 51, 57
1, 523791, Control_c, 0, 64, 58
1, 523794, Note_on_c, 0, 80, 67
1, 523806, Control_c, 0, 64, 47
1, 523821, Control_c, 0, 64, 0
1, 523847, Note_off_c, 0, 80, 60
1, 523868, Note_on_c, 0, 79, 68
1, 523913, Note_on_c, 0, 53, 64
1, 523916, Note_off_c, 0, 79, 59
1, 523925, Control_c, 0, 64, 24
1, 523930, Note_on_c, 0, 80, 69
1, 523936, Note_off_c, 0, 50, 62
1, 523940, Control_c, 0, 64, 40
1, 523954, Control_c, 0, 64, 50
1, 523956, Note_off_c, 0, 80, 63
1, 523969, Control_c, 0, 64, 56
1, 523984, Control_c, 0, 64, 59
1, 523998, Control_c, 0, 64, 60
1, 524001, Note_on_c, 0, 77, 67
1, 524013, Control_c, 0, 64, 61
1, 524015, Note_off_c, 0, 53, 60
1, 524028, Control_c, 0, 64, 62
1, 524041, Note_on_c, 0, 58, 65
1, 524043, Control_c, 0, 64, 63
1, 524056, Note_on_c, 0, 82, 76
1, 524062, Note_off_c, 0, 77, 59
1, 524091, Note_off_c, 0, 58, 60
1, 524110, Control_c, 0, 67, 121
1, 524115, Note_off_c, 0, 82, 62
1, 524123, Note_on_c, 0, 80, 70
1, 524125, Control_c, 0, 64, 62
1, 524140, Control_c, 0, 64, 62
1, 524154, Control_c, 0, 64, 60
1, 524169, Control_c, 0, 64, 57
1, 524169, Control_c, 0, 67, 121
1, 524180, Note_off_c, 0, 80, 62
1, 524184, Control_c, 0, 64, 45
1, 524199, Control_c, 0, 64, 0
1, 524200, Note_on_c, 0, 58, 67
1, 524203, Note_on_c, 0, 79, 65
1, 524241, Note_off_c, 0, 79, 55
1, 524302, Control_c, 0, 64, 47
1, 524317, Control_c, 0, 64, 62
1, 524332, Control_c, 0, 64, 67
1, 524332, Control_c, 0, 67, 122
1, 524347, Control_c, 0, 64, 71
1, 524361, Note_on_c, 0, 94, 71
1, 524361, Control_c, 0, 64, 77
1, 524361, Control_c, 0, 67, 122
1, 524362, Note_on_c, 0, 55, 70
1, 524377, Control_c, 0, 64, 81
1, 524379, Note_off_c, 0, 58, 59
1, 524387, Note_off_c, 0, 94, 67
1, 524392, Control_c, 0, 64, 83
1, 524392, Control_c, 0, 67, 123
1, 524452, Control_c, 0, 64, 83
1, 524452, Control_c, 0, 67, 123
1, 524466, Control_c, 0, 64, 81
1, 524481, Control_c, 0, 64, 80
1, 524496, Control_c, 0, 64, 80
1, 524499, Note_on_c, 0, 51, 75
1, 524510, Control_c, 0, 64, 79
1, 524522, Note_off_c, 0, 55, 33
1, 524558, Note_off_c, 0, 51, 63
1, 524570, Control_c, 0, 64, 78
1, 524584, Control_c, 0, 64, 77
1, 524599, Control_c, 0, 64, 75
1, 524614, Control_c, 0, 64, 73
1, 524629, Control_c, 0, 64, 70
1, 524644, Control_c, 0, 64, 65
1, 524649, Note_on_c, 0, 51, 74
1, 524658, Control_c, 0, 64, 33
1, 524673, Control_c, 0, 64, 0
1, 524763, Control_c, 0, 64, 26
1, 524777, Control_c, 0, 64, 54
1, 524777, Control_c, 0, 67, 123
1, 524785, Note_on_c, 0, 55, 79
1, 524792, Control_c, 0, 64, 62
1, 524792, Control_c, 0, 67, 122
1, 524802, Note_off_c, 0, 51, 63
1, 524807, Control_c, 0, 64, 66
1, 524807, Control_c, 0, 67, 122
1, 524821, Control_c, 0, 64, 68
1, 524821, Control_c, 0, 67, 121
1, 524836, Control_c, 0, 64, 70
1, 524836, Control_c, 0, 67, 120
1, 524873, Control_c, 0, 64, 69
1, 524873, Control_c, 0, 67, 119
1, 524888, Control_c, 0, 64, 69
1, 524888, Control_c, 0, 67, 118
1, 524918, Control_c, 0, 67, 118
1, 524939, Note_off_c, 0, 55, 64
1, 524942, Note_on_c, 0, 52, 73
1, 524944, Note_on_c, 0, 60, 77
1, 524948, Note_on_c, 0, 67, 69
1, 524963, Control_c, 0, 64, 69
1, 525009, Note_off_c, 0, 52, 61
1, 525017, Note_off_c, 0, 67, 62
1, 525019, Note_off_c, 0, 60, 64
1, 525022, Control_c, 0, 67, 118
1, 525036, Control_c, 0, 64, 69
1, 525036, Control_c, 0, 67, 119
1, 525066, Control_c, 0, 64, 68
1, 525066, Control_c, 0, 67, 120
1, 525081, Control_c, 0, 64, 66
1, 525081, Control_c, 0, 67, 120
1, 525093, Note_on_c, 0, 60, 85
1, 525096, Control_c, 0, 64, 63
1, 525096, Control_c, 0, 67, 121
1, 525110, Control_c, 0, 64, 54
1, 525110, Control_c, 0, 67, 122
1, 525125, Control_c, 0, 64, 0
1, 525125, Control_c, 0, 67, 122
1, 525155, Control_c, 0, 67, 123
1, 525200, Control_c, 0, 64, 34
1, 525215, Control_c, 0, 64, 58
1, 525215, Control_c, 0, 67, 122
1, 525230, Control_c, 0, 64, 63
1, 525241, Note_on_c, 0, 56, 79
1, 525245, Control_c, 0, 64, 63
1, 525259, Control_c, 0, 64, 62
1, 525271, Note_off_c, 0, 60, 63
1, 525274, Control_c, 0, 64, 61
1, 525274, Control_c, 0, 67, 122
1, 525289, Control_c, 0, 64, 54
1, 525304, Control_c, 0, 64, 38
1, 525319, Control_c, 0, 64, 0
1, 525333, Control_c, 0, 67, 121
1, 525382, Note_on_c, 0, 53, 75
1, 525388, Note_on_c, 0, 68, 73
1, 525406, Note_off_c, 0, 56, 59
1, 525503, Note_off_c, 0, 68, 58
1, 525514, Note_on_c, 0, 52, 71
1, 525523, Note_on_c, 0, 70, 69
1, 525534, Note_off_c, 0, 53, 60
1, 525571, Control_c, 0, 67, 121
1, 525587, Note_off_c, 0, 70, 62
1, 525609, Note_on_c, 0, 68, 76
1, 525646, Note_on_c, 0, 55, 73
1, 525663, Note_off_c, 0, 52, 60
1, 525663, Note_on_c, 0, 70, 69
1, 525666, Note_off_c, 0, 68, 62
1, 525705, Note_off_c, 0, 70, 62
1, 525740, Note_off_c, 0, 55, 63
1, 525745, Note_on_c, 0, 67, 75
1, 525788, Note_on_c, 0, 60, 72
1, 525796, Note_off_c, 0, 67, 56
1, 525797, Note_on_c, 0, 72, 72
1, 525845, Note_off_c, 0, 60, 64
1, 525845, Control_c, 0, 67, 120
1, 525864, Note_off_c, 0, 72, 62
1, 525875, Note_on_c, 0, 70, 73
1, 525919, Control_c, 0, 67, 121
1, 525937, Note_off_c, 0, 70, 63
1, 525939, Note_on_c, 0, 60, 71
1, 525944, Note_on_c, 0, 68, 74
1, 525963, Control_c, 0, 64, 56
1, 525979, Control_c, 0, 64, 65
1, 525994, Control_c, 0, 64, 71
1, 525994, Control_c, 0, 67, 121
1, 526005, Note_off_c, 0, 68, 62
1, 526009, Control_c, 0, 64, 76
1, 526023, Control_c, 0, 64, 81
1, 526023, Control_c, 0, 67, 122
1, 526038, Control_c, 0, 64, 85
1, 526053, Control_c, 0, 64, 86
1, 526053, Control_c, 0, 67, 122
1, 526068, Control_c, 0, 67, 123
1, 526071, Note_off_c, 0, 60, 60
1, 526082, Control_c, 0, 67, 123
1, 526093, Note_on_c, 0, 56, 71
1, 526110, Note_on_c, 0, 84, 83
1, 526127, Control_c, 0, 64, 85
1, 526142, Control_c, 0, 64, 84
1, 526156, Control_c, 0, 64, 82
1, 526156, Control_c, 0, 67, 123
1, 526158, Note_off_c, 0, 84, 64
1, 526171, Control_c, 0, 64, 79
1, 526171, Control_c, 0, 67, 122
1, 526186, Control_c, 0, 64, 76
1, 526201, Control_c, 0, 64, 73
1, 526201, Control_c, 0, 67, 121
1, 526210, Note_off_c, 0, 56, 63
1, 526216, Control_c, 0, 64, 70
1, 526216, Control_c, 0, 67, 121
1, 526230, Control_c, 0, 64, 67
1, 526230, Control_c, 0, 67, 120
1, 526235, Note_on_c, 0, 53, 82
1, 526245, Control_c, 0, 64, 65
1, 526245, Control_c, 0, 67, 120
1, 526260, Control_c, 0, 64, 64
1, 526274, Control_c, 0, 64, 63
1, 526274, Control_c, 0, 67, 119
1, 526289, Control_c, 0, 64, 62
1, 526304, Control_c, 0, 64, 55
1, 526304, Control_c, 0, 67, 119
1, 526310, Note_off_c, 0, 53, 62
1, 526319, Control_c, 0, 64, 19
1, 526334, Control_c, 0, 64, 0
1, 526334, Control_c, 0, 67, 118
1, 526371, Control_c, 0, 67, 117
1, 526386, Control_c, 0, 67, 117
1, 526395, Note_on_c, 0, 50, 79
1, 526400, Control_c, 0, 67, 116
1, 526415, Control_c, 0, 67, 116
1, 526430, Control_c, 0, 67, 115
1, 526460, Control_c, 0, 64, 51
1, 526474, Control_c, 0, 64, 64
1, 526489, Control_c, 0, 64, 69
1, 526489, Control_c, 0, 67, 115
1, 526504, Control_c, 0, 64, 73
1, 526519, Control_c, 0, 64, 76
1, 526519, Control_c, 0, 67, 114
1, 526534, Note_on_c, 0, 53, 76
1, 526534, Control_c, 0, 64, 78
1, 526534, Control_c, 0, 67, 114
1, 526539, Note_off_c, 0, 50, 64
1, 526548, Control_c, 0, 64, 79
1, 526548, Control_c, 0, 67, 112
1, 526563, Control_c, 0, 64, 82
1, 526563, Control_c, 0, 67, 110
1, 526578, Control_c, 0, 64, 84
1, 526578, Control_c, 0, 67, 107
1, 526593, Control_c, 0, 64, 85
1, 526593, Control_c, 0, 67, 106
1, 526608, Control_c, 0, 67, 103
1, 526623, Note_off_c, 0, 53, 63
1, 526623, Control_c, 0, 67, 101
1, 526638, Control_c, 0, 64, 85
1, 526638, Control_c, 0, 67, 99
1, 526653, Control_c, 0, 67, 96
1, 526668, Control_c, 0, 67, 93
1, 526674, Note_on_c, 0, 50, 71
1, 526675, Note_on_c, 0, 77, 81
1, 526677, Note_on_c, 0, 58, 78
1, 526682, Control_c, 0, 64, 84
1, 526682, Control_c, 0, 67, 92
1, 526697, Control_c, 0, 64, 83
1, 526697, Control_c, 0, 67, 90
1, 526712, Control_c, 0, 64, 82
1, 526712, Control_c, 0, 67, 89
1, 526719, Note_off_c, 0, 50, 65
1, 526727, Control_c, 0, 64, 81
1, 526727, Control_c, 0, 67, 87
1, 526736, Note_off_c, 0, 77, 63
1, 526742, Control_c, 0, 67, 87
1, 526747, Note_off_c, 0, 58, 62
1, 526756, Control_c, 0, 67, 88
1, 526772, Control_c, 0, 67, 88
1, 526787, Control_c, 0, 67, 90
1, 526802, Control_c, 0, 67, 91
1, 526817, Control_c, 0, 64, 81
1, 526817, Control_c, 0, 67, 92
1, 526831, Control_c, 0, 64, 79
1, 526831, Control_c, 0, 67, 94
1, 526838, Note_on_c, 0, 58, 94
1, 526846, Control_c, 0, 64, 74
1, 526846, Control_c, 0, 67, 95
1, 526848, Note_on_c, 0, 51, 80
1, 526861, Control_c, 0, 64, 66
1, 526861, Control_c, 0, 67, 96
1, 526876, Control_c, 0, 64, 38
1, 526891, Control_c, 0, 64, 0
1, 526905, Control_c, 0, 67, 97
1, 526950, Control_c, 0, 64, 54
1, 526950, Control_c, 0, 67, 96
1, 526965, Control_c, 0, 64, 66
1, 526965, Control_c, 0, 67, 95
1, 526979, Control_c, 0, 64, 72
1, 526979, Control_c, 0, 67, 94
1, 526994, Control_c, 0, 64, 79
1, 526994, Control_c, 0, 67, 92
1, 527006, Note_on_c, 0, 55, 84
1, 527009, Control_c, 0, 64, 84
1, 527009, Control_c, 0, 67, 91
1, 527023, Control_c, 0, 64, 86
1, 527023, Control_c, 0, 67, 90
1, 527038, Control_c, 0, 67, 89
1, 527039, Note_off_c, 0, 51, 64
1, 527039, Note_off_c, 0, 58, 61
1, 527053, Control_c, 0, 67, 88
1, 527068, Control_c, 0, 67, 87
1, 527083, Control_c, 0, 67, 86
1, 527105, Control_c, 0, 64, 86
1, 527105, Control_c, 0, 67, 85
1, 527120, Control_c, 0, 64, 85
1, 527120, Control_c, 0, 67, 84
1, 527135, Control_c, 0, 64, 84
1, 527137, Note_on_c, 0, 79, 88
1, 527140, Note_on_c, 0, 51, 86
1, 527150, Control_c, 0, 64, 84
1, 527155, Note_off_c, 0, 55, 63
1, 527179, Control_c, 0, 67, 83
1, 527194, Control_c, 0, 67, 83
1, 527196, Note_off_c, 0, 51, 63
1, 527251, Note_off_c, 0, 79, 59
1, 527253, Control_c, 0, 64, 80
1, 527253, Control_c, 0, 67, 82
1, 527268, Control_c, 0, 64, 71
1, 527268, Control_c, 0, 67, 82
1, 527282, Note_on_c, 0, 44, 79
1, 527283, Control_c, 0, 64, 46
1, 527283, Control_c, 0, 67, 81
1, 527286, Note_on_c, 0, 80, 84
1, 527297, Control_c, 0, 64, 0
1, 527297, Control_c, 0, 67, 79
1, 527298, Note_on_c, 0, 48, 74
1, 527312, Control_c, 0, 67, 76
1, 527327, Control_c, 0, 67, 72
1, 527342, Control_c, 0, 64, 54
1, 527342, Control_c, 0, 67, 67
1, 527355, Note_off_c, 0, 80, 63
1, 527357, Note_on_c, 0, 79, 82
1, 527357, Control_c, 0, 64, 66
1, 527357, Control_c, 0, 67, 60
1, 527371, Control_c, 0, 64, 72
1, 527371, Control_c, 0, 67, 54
1, 527386, Control_c, 0, 64, 78
1, 527386, Control_c, 0, 67, 46
1, 527401, Control_c, 0, 64, 86
1, 527401, Control_c, 0, 67, 37
1, 527416, Note_on_c, 0, 53, 85
1, 527416, Control_c, 0, 64, 95
1, 527416, Control_c, 0, 67, 29
1, 527422, Note_on_c, 0, 80, 78
1, 527422, Note_off_c, 0, 79, 63
1, 527431, Control_c, 0, 64, 101
1, 527431, Control_c, 0, 67, 22
1, 527443, Note_off_c, 0, 48, 61
1, 527446, Control_c, 0, 64, 107
1, 527446, Control_c, 0, 67, 17
1, 527455, Note_off_c, 0, 44, 45
1, 527461, Control_c, 0, 64, 115
1, 527461, Control_c, 0, 67, 12
1, 527468, Note_off_c, 0, 80, 65
1, 527475, Control_c, 0, 64, 127
1, 527475, Control_c, 0, 67, 8
1, 527484, Note_on_c, 0, 77, 84
1, 527490, Control_c, 0, 67, 0
1, 527523, Note_off_c, 0, 77, 65
1, 527558, Note_on_c, 0, 56, 83
1, 527567, Note_on_c, 0, 92, 91
1, 527570, Note_off_c, 0, 53, 63
1, 527587, Note_off_c, 0, 92, 69
1, 527707, Note_off_c, 0, 56, 63
1, 527714, Note_on_c, 0, 46, 93
1, 527758, Control_c, 0, 64, 92
1, 527773, Control_c, 0, 64, 70
1, 527788, Control_c, 0, 64, 0
1, 527832, Control_c, 0, 64, 50
1, 527854, Control_c, 0, 64, 65
1, 527865, Note_on_c, 0, 51, 87
1, 527869, Control_c, 0, 64, 72
1, 527884, Control_c, 0, 64, 79
1, 527899, Control_c, 0, 64, 87
1, 527914, Control_c, 0, 64, 90
1, 527917, Note_off_c, 0, 46, 55
1, 527928, Control_c, 0, 64, 91
1, 528003, Note_on_c, 0, 75, 93
1, 528008, Note_on_c, 0, 55, 87
1, 528047, Note_off_c, 0, 51, 60
1, 528091, Control_c, 0, 64, 91
1, 528106, Control_c, 0, 64, 92
1, 528121, Control_c, 0, 64, 91
1, 528129, Note_off_c, 0, 75, 60
1, 528135, Control_c, 0, 64, 84
1, 528140, Note_on_c, 0, 77, 83
1, 528147, Note_off_c, 0, 55, 60
1, 528150, Note_on_c, 0, 46, 89
1, 528150, Control_c, 0, 64, 73
1, 528165, Control_c, 0, 64, 62
1, 528179, Control_c, 0, 64, 57
1, 528194, Control_c, 0, 64, 66
1, 528203, Note_off_c, 0, 77, 63
1, 528209, Control_c, 0, 64, 75
1, 528218, Note_on_c, 0, 75, 87
1, 528224, Control_c, 0, 64, 83
1, 528239, Control_c, 0, 64, 94
1, 528253, Control_c, 0, 64, 103
1, 528268, Control_c, 0, 64, 120
1, 528277, Note_on_c, 0, 77, 80
1, 528280, Note_on_c, 0, 50, 77
1, 528283, Control_c, 0, 64, 127
1, 528292, Note_off_c, 0, 46, 59
1, 528292, Note_off_c, 0, 75, 63
1, 528319, Note_off_c, 0, 77, 62
1, 528337, Note_on_c, 0, 74, 86
1, 528383, Note_off_c, 0, 50, 65
1, 528391, Note_off_c, 0, 74, 64
1, 528411, Note_on_c, 0, 58, 85
1, 528420, Note_on_c, 0, 89, 95
1, 528435, Note_off_c, 0, 89, 73
1, 528456, Note_off_c, 0, 58, 63
1, 528631, Note_on_c, 0, 67, 96
1, 528633, Control_c, 0, 64, 118
1, 528642, Note_on_c, 0, 46, 88
1, 528648, Control_c, 0, 64, 80
1, 528663, Control_c, 0, 64, 61
1, 528677, Control_c, 0, 64, 0
1, 528722, Control_c, 0, 64, 54
1, 528727, Note_on_c, 0, 79, 86
1, 528734, Note_off_c, 0, 67, 63
1, 528737, Control_c, 0, 64, 67
1, 528751, Control_c, 0, 64, 75
1, 528766, Control_c, 0, 64, 84
1, 528781, Control_c, 0, 64, 92
1, 528795, Note_off_c, 0, 79, 62
1, 528796, Control_c, 0, 64, 95
1, 528804, Note_on_c, 0, 43, 86
1, 528809, Note_on_c, 0, 67, 94
1, 528811, Control_c, 0, 64, 95
1, 528824, Note_off_c, 0, 46, 60
1, 528826, Control_c, 0, 64, 96
1, 528856, Control_c, 0, 64, 95
1, 528875, Note_off_c, 0, 67, 62
1, 528880, Note_on_c, 0, 79, 82
1, 528916, Note_off_c, 0, 79, 61
1, 528937, Note_on_c, 0, 39, 83
1, 528944, Note_on_c, 0, 70, 95
1, 528977, Note_off_c, 0, 43, 54
1, 528989, Control_c, 0, 64, 94
1, 529003, Control_c, 0, 64, 93
1, 529014, Note_on_c, 0, 82, 91
1, 529018, Control_c, 0, 64, 90
1, 529025, Note_off_c, 0, 70, 61
1, 529033, Control_c, 0, 64, 83
1, 529048, Control_c, 0, 64, 74
1, 529063, Control_c, 0, 64, 63
1, 529067, Note_on_c, 0, 38, 87
1, 529077, Control_c, 0, 64, 0
1, 529078, Note_off_c, 0, 82, 63
1, 529085, Note_on_c, 0, 70, 89
1, 529088, Note_off_c, 0, 39, 53
1, 529153, Note_on_c, 0, 82, 94
1, 529160, Note_off_c, 0, 70, 59
1, 529167, Control_c, 0, 64, 47
1, 529182, Control_c, 0, 64, 64
1, 529197, Control_c, 0, 64, 72
1, 529212, Control_c, 0, 64, 82
1, 529213, Note_off_c, 0, 82, 65
1, 529217, Note_on_c, 0, 41, 83
1, 529225, Note_on_c, 0, 70, 88
1, 529226, Control_c, 0, 64, 88
1, 529241, Control_c, 0, 64, 90
1, 529256, Control_c, 0, 64, 90
1, 529266, Note_off_c, 0, 38, 54
1, 529271, Control_c, 0, 64, 91
1, 529297, Note_on_c, 0, 82, 92
1, 529298, Note_off_c, 0, 70, 61
1, 529360, Note_off_c, 0, 82, 64
1, 529368, Note_off_c, 0, 41, 62
1, 529380, Note_on_c, 0, 46, 86
1, 529383, Note_on_c, 0, 68, 92
1, 529412, Control_c, 0, 64, 91
1, 529441, Note_on_c, 0, 80, 85
1, 529446, Note_off_c, 0, 46, 62
1, 529458, Note_off_c, 0, 68, 62
1, 529513, Note_off_c, 0, 80, 63
1, 529516, Control_c, 0, 64, 90
1, 529526, Note_on_c, 0, 67, 90
1, 529530, Note_on_c, 0, 46, 88
1, 529531, Control_c, 0, 64, 85
1, 529546, Control_c, 0, 64, 75
1, 529561, Control_c, 0, 64, 60
1, 529575, Control_c, 0, 64, 0
1, 529600, Note_off_c, 0, 67, 61
1, 529603, Note_on_c, 0, 79, 87
1, 529634, Control_c, 0, 64, 44
1, 529649, Control_c, 0, 64, 65
1, 529658, Note_off_c, 0, 79, 63
1, 529664, Control_c, 0, 64, 72
1, 529674, Note_on_c, 0, 67, 89
1, 529676, Note_on_c, 0, 43, 77
1, 529679, Control_c, 0, 64, 78
1, 529690, Note_off_c, 0, 46, 60
1, 529693, Control_c, 0, 64, 82
1, 529708, Control_c, 0, 64, 82
1, 529743, Note_off_c, 0, 67, 62
1, 529747, Note_on_c, 0, 79, 84
1, 529791, Note_off_c, 0, 79, 63
1, 529795, Note_off_c, 0, 43, 53
1, 529815, Note_on_c, 0, 39, 80
1, 529819, Note_on_c, 0, 70, 89
1, 529827, Control_c, 0, 64, 82
1, 529880, Note_off_c, 0, 39, 60
1, 529884, Note_off_c, 0, 70, 64
1, 529889, Note_on_c, 0, 82, 88
1, 529940, Note_off_c, 0, 82, 64
1, 529945, Control_c, 0, 64, 80
1, 529960, Control_c, 0, 64, 73
1, 529961, Note_on_c, 0, 70, 93
1, 529967, Note_on_c, 0, 39, 85
1, 529976, Control_c, 0, 64, 54
1, 529991, Control_c, 0, 64, 0
1, 530021, Note_off_c, 0, 70, 63
1, 530026, Note_on_c, 0, 82, 80
1, 530036, Control_c, 0, 64, 42
1, 530050, Control_c, 0, 64, 64
1, 530065, Control_c, 0, 64, 70
1, 530078, Note_off_c, 0, 82, 65
1, 530080, Control_c, 0, 64, 74
1, 530081, Note_off_c, 0, 39, 53
1, 530102, Control_c, 0, 64, 76
1, 530105, Note_on_c, 0, 43, 75
1, 530105, Note_on_c, 0, 70, 87
1, 530131, Control_c, 0, 64, 77
1, 530161, Control_c, 0, 64, 77
1, 530168, Note_on_c, 0, 82, 85
1, 530176, Control_c, 0, 64, 78
1, 530182, Note_off_c, 0, 70, 61
1, 530209, Note_off_c, 0, 43, 61
1, 530222, Note_off_c, 0, 82, 64
1, 530234, Note_on_c, 0, 48, 82
1, 530237, Note_on_c, 0, 40, 72
1, 530253, Note_on_c, 0, 67, 90
1, 530275, Note_off_c, 0, 40, 65
1, 530297, Note_off_c, 0, 48, 63
1, 530325, Note_on_c, 0, 79, 75
1, 530326, Note_off_c, 0, 67, 63
1, 530353, Control_c, 0, 64, 78
1, 530368, Control_c, 0, 64, 74
1, 530373, Note_off_c, 0, 79, 62
1, 530383, Control_c, 0, 64, 67
1, 530387, Note_on_c, 0, 48, 90
1, 530394, Note_on_c, 0, 68, 91
1, 530397, Control_c, 0, 64, 53
1, 530412, Control_c, 0, 64, 0
1, 530465, Note_on_c, 0, 80, 81
1, 530480, Note_off_c, 0, 68, 60
1, 530516, Control_c, 0, 64, 49
1, 530522, Note_off_c, 0, 80, 63
1, 530531, Control_c, 0, 64, 61
1, 530538, Note_on_c, 0, 44, 79
1, 530541, Note_on_c, 0, 68, 82
1, 530546, Control_c, 0, 64, 67
1, 530556, Note_off_c, 0, 48, 61
1, 530561, Control_c, 0, 64, 72
1, 530575, Control_c, 0, 64, 77
1, 530590, Control_c, 0, 64, 81
1, 530602, Note_on_c, 0, 80, 79
1, 530605, Control_c, 0, 64, 84
1, 530606, Note_off_c, 0, 68, 61
1, 530649, Control_c, 0, 64, 83
1, 530651, Note_off_c, 0, 80, 63
1, 530674, Note_off_c, 0, 44, 53
1, 530680, Note_on_c, 0, 41, 82
1, 530680, Note_on_c, 0, 72, 87
1, 530694, Control_c, 0, 64, 83
1, 530709, Control_c, 0, 64, 80
1, 530723, Control_c, 0, 64, 78
1, 530731, Note_off_c, 0, 72, 65
1, 530738, Control_c, 0, 64, 77
1, 530742, Note_on_c, 0, 84, 84
1, 530769, Control_c, 0, 64, 76
1, 530784, Control_c, 0, 64, 74
1, 530794, Note_off_c, 0, 84, 67
1, 530799, Control_c, 0, 64, 67
1, 530811, Note_off_c, 0, 41, 58
1, 530812, Note_on_c, 0, 40, 79
1, 530814, Control_c, 0, 64, 50
1, 530815, Note_on_c, 0, 72, 90
1, 530828, Control_c, 0, 64, 0
1, 530865, Control_c, 0, 64, 11
1, 530869, Note_off_c, 0, 72, 66
1, 530880, Control_c, 0, 64, 58
1, 530890, Note_on_c, 0, 84, 89
1, 530895, Control_c, 0, 64, 65
1, 530909, Control_c, 0, 64, 70
1, 530924, Control_c, 0, 64, 74
1, 530936, Note_off_c, 0, 84, 65
1, 530939, Control_c, 0, 64, 78
1, 530954, Control_c, 0, 64, 78
1, 530956, Note_on_c, 0, 72, 84
1, 530960, Note_on_c, 0, 43, 75
1, 530969, Control_c, 0, 64, 79
1, 531004, Note_off_c, 0, 40, 62
1, 531017, Note_off_c, 0, 72, 64
1, 531035, Note_on_c, 0, 84, 80
1, 531058, Control_c, 0, 64, 78
1, 531061, Note_off_c, 0, 43, 63
1, 531072, Control_c, 0, 64, 78
1, 531074, Note_off_c, 0, 84, 64
1, 531087, Control_c, 0, 64, 77
1, 531104, Note_on_c, 0, 48, 73
1, 531106, Note_on_c, 0, 70, 93
1, 531159, Note_off_c, 0, 48, 64
1, 531161, Control_c, 0, 64, 77
1, 531173, Note_on_c, 0, 82, 87
1, 531178, Note_off_c, 0, 70, 64
1, 531226, Note_off_c, 0, 82, 66
1, 531235, Control_c, 0, 64, 76
1, 531249, Note_on_c, 0, 68, 93
1, 531250, Control_c, 0, 64, 70
1, 531252, Note_on_c, 0, 48, 80
1, 531264, Control_c, 0, 64, 56
1, 531279, Control_c, 0, 64, 0
1, 531315, Note_on_c, 0, 80, 84
1, 531324, Control_c, 0, 64, 50
1, 531327, Note_off_c, 0, 68, 61
1, 531339, Control_c, 0, 64, 63
1, 531354, Control_c, 0, 64, 66
1, 531368, Control_c, 0, 64, 70
1, 531371, Note_off_c, 0, 48, 57
1, 531371, Note_off_c, 0, 80, 63
1, 531383, Control_c, 0, 64, 74
1, 531393, Note_on_c, 0, 68, 87
1, 531396, Note_on_c, 0, 44, 73
1, 531398, Control_c, 0, 64, 77
1, 531413, Control_c, 0, 64, 78
1, 531428, Control_c, 0, 64, 79
1, 531443, Control_c, 0, 64, 79
1, 531451, Note_off_c, 0, 68, 61
1, 531460, Note_on_c, 0, 80, 79
1, 531498, Note_off_c, 0, 44, 63
1, 531502, Control_c, 0, 64, 79
1, 531511, Note_off_c, 0, 80, 63
1, 531532, Control_c, 0, 64, 78
1, 531538, Note_on_c, 0, 72, 87
1, 531541, Note_on_c, 0, 41, 80
1, 531577, Control_c, 0, 64, 79
1, 531599, Control_c, 0, 64, 80
1, 531602, Note_off_c, 0, 72, 64
1, 531614, Control_c, 0, 64, 81
1, 531619, Note_on_c, 0, 84, 83
1, 531621, Note_off_c, 0, 41, 60
1, 531628, Control_c, 0, 64, 81
1, 531643, Control_c, 0, 64, 77
1, 531658, Control_c, 0, 64, 69
1, 531670, Note_off_c, 0, 84, 65
1, 531673, Control_c, 0, 64, 45
1, 531684, Note_on_c, 0, 38, 87
1, 531688, Control_c, 0, 64, 0
1, 531690, Note_on_c, 0, 72, 89
1, 531702, Control_c, 0, 64, 54
1, 531717, Control_c, 0, 64, 66
1, 531732, Control_c, 0, 64, 72
1, 531747, Note_off_c, 0, 72, 64
1, 531747, Control_c, 0, 64, 77
1, 531760, Note_on_c, 0, 84, 82
1, 531762, Control_c, 0, 64, 80
1, 531770, Note_off_c, 0, 38, 61
1, 531777, Control_c, 0, 64, 82
1, 531791, Note_off_c, 0, 84, 64
1, 531816, Note_on_c, 0, 41, 85
1, 531833, Note_on_c, 0, 70, 91
1, 531893, Note_off_c, 0, 70, 62
1, 531899, Note_off_c, 0, 41, 60
1, 531904, Note_on_c, 0, 82, 82
1, 531955, Note_off_c, 0, 82, 65
1, 531964, Note_on_c, 0, 46, 90
1, 531965, Note_on_c, 0, 38, 91
1, 531974, Note_on_c, 0, 68, 94
1, 532010, Note_off_c, 0, 38, 61
1, 532027, Note_off_c, 0, 46, 60
1, 532038, Note_off_c, 0, 68, 63
1, 532039, Note_on_c, 0, 80, 66
1, 532102, Note_off_c, 0, 80, 63
1, 532115, Note_on_c, 0, 67, 86
1, 532117, Control_c, 0, 64, 78
1, 532126, Note_on_c, 0, 46, 87
1, 532132, Note_on_c, 0, 39, 77
1, 532132, Control_c, 0, 64, 69
1, 532147, Control_c, 0, 64, 0
1, 532185, Note_off_c, 0, 67, 62
1, 532187, Note_on_c, 0, 79, 74
1, 532221, Control_c, 0, 64, 61
1, 532224, Note_off_c, 0, 79, 63
1, 532236, Control_c, 0, 64, 68
1, 532251, Control_c, 0, 64, 73
1, 532261, Note_on_c, 0, 70, 91
1, 532266, Control_c, 0, 64, 78
1, 532277, Note_on_c, 0, 43, 86
1, 532281, Control_c, 0, 64, 80
1, 532295, Control_c, 0, 64, 81
1, 532299, Note_off_c, 0, 39, 60
1, 532331, Note_off_c, 0, 70, 63
1, 532333, Note_on_c, 0, 82, 88
1, 532347, Note_off_c, 0, 46, 23
1, 532361, Control_c, 0, 64, 81
1, 532378, Control_c, 0, 64, 82
1, 532386, Note_off_c, 0, 82, 65
1, 532407, Note_on_c, 0, 39, 84
1, 532415, Note_on_c, 0, 75, 95
1, 532424, Note_off_c, 0, 43, 60
1, 532451, Control_c, 0, 64, 83
1, 532457, Note_off_c, 0, 39, 60
1, 532466, Control_c, 0, 64, 84
1, 532479, Note_off_c, 0, 75, 64
1, 532481, Control_c, 0, 64, 86
1, 532489, Note_on_c, 0, 87, 95
1, 532495, Control_c, 0, 64, 88
1, 532510, Control_c, 0, 64, 90
1, 532525, Control_c, 0, 64, 91
1, 532540, Control_c, 0, 64, 90
1, 532545, Note_off_c, 0, 87, 64
1, 532549, Note_on_c, 0, 32, 83
1, 532555, Control_c, 0, 64, 78
1, 532561, Note_on_c, 0, 75, 93
1, 532570, Note_on_c, 0, 36, 71
1, 532570, Control_c, 0, 64, 62
1, 532585, Control_c, 0, 64, 0
1, 532622, Note_off_c, 0, 75, 61
1, 532629, Control_c, 0, 64, 52
1, 532629, Note_on_c, 0, 87, 97
1, 532643, Control_c, 0, 64, 70
1, 532658, Control_c, 0, 64, 81
1, 532673, Control_c, 0, 64, 93
1, 532679, Note_off_c, 0, 87, 67
1, 532687, Note_on_c, 0, 85, 5
1, 532688, Control_c, 0, 64, 106
1, 532692, Note_off_c, 0, 32, 55
1, 532698, Note_on_c, 0, 41, 84
1, 532702, Note_off_c, 0, 36, 56
1, 532703, Control_c, 0, 64, 116
1, 532707, Note_on_c, 0, 72, 90
1, 532717, Control_c, 0, 64, 127
1, 532736, Note_off_c, 0, 85, 41
1, 532763, Note_off_c, 0, 72, 63
1, 532768, Note_on_c, 0, 84, 87
1, 532795, Note_off_c, 0, 84, 61
1, 532828, Note_on_c, 0, 44, 85
1, 532836, Note_off_c, 0, 41, 61
1, 532847, Note_on_c, 0, 70, 83
1, 532859, Note_on_c, 0, 69, 88
1, 532902, Note_off_c, 0, 69, 64
1, 532914, Note_on_c, 0, 80, 90
1, 532917, Note_off_c, 0, 70, 58
1, 532952, Note_off_c, 0, 80, 59
1, 532954, Control_c, 0, 64, 121
1, 532958, Note_off_c, 0, 44, 63
1, 532969, Control_c, 0, 64, 83
1, 532978, Note_on_c, 0, 34, 93
1, 532984, Control_c, 0, 64, 63
1, 532999, Note_on_c, 0, 75, 95
1, 532999, Control_c, 0, 64, 53
1, 533014, Control_c, 0, 64, 65
1, 533029, Control_c, 0, 64, 76
1, 533043, Control_c, 0, 64, 91
1, 533051, Note_on_c, 0, 87, 88
1, 533058, Control_c, 0, 64, 114
1, 533059, Note_off_c, 0, 75, 67
1, 533073, Control_c, 0, 64, 127
1, 533114, Note_off_c, 0, 87, 66
1, 533141, Note_on_c, 0, 39, 81
1, 533150, Note_on_c, 0, 70, 97
1, 533174, Note_off_c, 0, 34, 57
1, 533212, Note_on_c, 0, 82, 85
1, 533216, Note_off_c, 0, 70, 60
1, 533229, Note_on_c, 0, 80, 68
1, 533255, Note_off_c, 0, 82, 67
1, 533276, Note_off_c, 0, 80, 62
1, 533288, Note_on_c, 0, 67, 93
1, 533295, Note_on_c, 0, 43, 79
1, 533297, Note_off_c, 0, 39, 52
1, 533329, Note_on_c, 0, 41, 39
1, 533330, Note_off_c, 0, 41, 127
1, 533342, Note_off_c, 0, 67, 64
1, 533356, Note_on_c, 0, 79, 87
1, 533363, Control_c, 0, 64, 122
1, 533378, Control_c, 0, 64, 88
1, 533384, Note_off_c, 0, 79, 60
1, 533392, Control_c, 0, 64, 67
1, 533393, Note_off_c, 0, 43, 63
1, 533407, Control_c, 0, 64, 0
1, 533422, Note_on_c, 0, 34, 92
1, 533430, Note_on_c, 0, 70, 91
1, 533437, Control_c, 0, 64, 60
1, 533452, Control_c, 0, 64, 73
1, 533466, Control_c, 0, 64, 91
1, 533481, Note_off_c, 0, 70, 64
1, 533481, Control_c, 0, 64, 127
1, 533493, Note_on_c, 0, 82, 97
1, 533537, Note_off_c, 0, 34, 57
1, 533547, Note_off_c, 0, 82, 64
1, 533550, Note_on_c, 0, 41, 80
1, 533568, Note_on_c, 0, 68, 96
1, 533620, Note_off_c, 0, 68, 64
1, 533637, Note_on_c, 0, 80, 96
1, 533689, Note_off_c, 0, 80, 66
1, 533702, Note_off_c, 0, 41, 62
1, 533707, Note_on_c, 0, 46, 88
1, 533714, Note_on_c, 0, 65, 93
1, 533780, Note_off_c, 0, 65, 63
1, 533786, Note_on_c, 0, 77, 92
1, 533807, Note_off_c, 0, 77, 67
1, 533914, Note_off_c, 0, 46, 61
1, 533944, Note_on_c, 0, 39, 99
1, 533945, Note_on_c, 0, 55, 101
1, 533947, Control_c, 0, 64, 99
1, 533963, Control_c, 0, 64, 69
1, 533978, Control_c, 0, 64, 0
1, 533986, Note_off_c, 0, 39, 61
1, 534008, Control_c, 0, 64, 17
1, 534022, Control_c, 0, 64, 71
1, 534037, Control_c, 0, 64, 90
1, 534052, Control_c, 0, 64, 127
1, 534060, Note_on_c, 0, 63, 80
1, 534066, Note_off_c, 0, 55, 61
1, 534135, Note_on_c, 0, 58, 86
1, 534140, Note_off_c, 0, 63, 54
1, 534165, Note_on_c, 0, 51, 79
1, 534197, Note_on_c, 0, 67, 82
1, 534202, Note_off_c, 0, 58, 67
1, 534210, Note_off_c, 0, 51, 57
1, 534226, Note_off_c, 0, 67, 62
1, 534281, Note_on_c, 0, 63, 89
1, 534296, Note_on_c, 0, 58, 71
1, 534297, Note_on_c, 0, 55, 68
1, 534301, Note_on_c, 0, 51, 56
1, 534334, Note_off_c, 0, 51, 64
1, 534334, Note_off_c, 0, 63, 61
1, 534341, Note_off_c, 0, 55, 60
1, 534343, Note_off_c, 0, 58, 61
1, 534349, Note_on_c, 0, 70, 87
1, 534394, Note_off_c, 0, 70, 63
1, 534417, Note_on_c, 0, 51, 72
1, 534420, Note_on_c, 0, 58, 79
1, 534423, Note_on_c, 0, 67, 87
1, 534424, Note_on_c, 0, 63, 83
1, 534425, Note_on_c, 0, 55, 73
1, 534472, Note_off_c, 0, 63, 59
1, 534472, Note_off_c, 0, 67, 63
1, 534476, Note_off_c, 0, 51, 64
1, 534481, Note_off_c, 0, 55, 62
1, 534481, Note_off_c, 0, 58, 60
1, 534494, Note_on_c, 0, 75, 80
1, 534561, Note_on_c, 0, 63, 77
1, 534562, Note_on_c, 0, 70, 92
1, 534563, Note_off_c, 0, 75, 59
1, 534573, Note_on_c, 0, 51, 65
1, 534574, Note_on_c, 0, 58, 69
1, 534588, Note_on_c, 0, 55, 61
1, 534612, Note_off_c, 0, 51, 62
1, 534614, Poly_aftertouch_c, 0, 76, 0
1, 534618, Note_off_c, 0, 55, 64
1, 534624, Note_off_c, 0, 63, 59
1, 534625, Note_off_c, 0, 58, 53
1, 534633, Note_off_c, 0, 70, 66
1, 534638, Note_on_c, 0, 79, 81
1, 534662, Note_off_c, 0, 79, 64
1, 534711, Note_on_c, 0, 63, 83
1, 534716, Note_on_c, 0, 75, 88
1, 534716, Note_on_c, 0, 51, 67
1, 534716, Note_on_c, 0, 55, 61
1, 534724, Note_on_c, 0, 58, 73
1, 534761, Note_off_c, 0, 58, 60
1, 534767, Note_off_c, 0, 63, 60
1, 534768, Note_off_c, 0, 55, 61
1, 534768, Note_off_c, 0, 75, 62
1, 534770, Note_off_c, 0, 51, 62
1, 534779, Note_on_c, 0, 82, 89
1, 534831, Note_off_c, 0, 82, 64
1, 534854, Note_on_c, 0, 63, 82
1, 534856, Note_on_c, 0, 79, 94
1, 534857, Note_on_c, 0, 58, 73
1, 534865, Note_on_c, 0, 51, 65
1, 534868, Note_on_c, 0, 55, 70
1, 534903, Note_off_c, 0, 55, 61
1, 534904, Note_off_c, 0, 79, 65
1, 534905, Note_off_c, 0, 51, 63
1, 534907, Note_off_c, 0, 58, 62
1, 534907, Note_off_c, 0, 63, 59
1, 534929, Note_on_c, 0, 87, 90
1, 534996, Note_on_c, 0, 63, 77
1, 534996, Note_on_c, 0, 51, 65
1, 534999, Note_on_c, 0, 82, 100
1, 534999, Note_on_c, 0, 58, 68
1, 535002, Note_on_c, 0, 55, 70
1, 535011, Note_off_c, 0, 87, 60
1, 535039, Note_off_c, 0, 51, 62
1, 535041, Note_off_c, 0, 55, 54
1, 535041, Note_off_c, 0, 63, 57
1, 535047, Note_off_c, 0, 58, 59
1, 535059, Note_off_c, 0, 82, 67
1, 535061, Note_on_c, 0, 91, 95
1, 535097, Note_off_c, 0, 91, 69
1, 535131, Note_on_c, 0, 63, 81
1, 535136, Note_on_c, 0, 87, 95
1, 535137, Note_on_c, 0, 58, 73
1, 535138, Note_on_c, 0, 55, 75
1, 535139, Note_on_c, 0, 51, 73
1, 535179, Note_off_c, 0, 55, 60
1, 535181, Note_off_c, 0, 87, 65
1, 535197, Note_on_c, 0, 94, 92
1, 535197, Note_off_c, 0, 63, 57
1, 535215, Note_off_c, 0, 51, 62
1, 535218, Note_on_c, 0, 95, 74
1, 535229, Note_off_c, 0, 58, 39
1, 535238, Note_off_c, 0, 95, 72
1, 535244, Note_off_c, 0, 94, 65
1, 535245, Control_c, 0, 64, 91
1, 535260, Control_c, 0, 64, 69
1, 535266, Note_on_c, 0, 58, 69
1, 535272, Note_on_c, 0, 93, 103
1, 535273, Note_on_c, 0, 51, 69
1, 535273, Note_on_c, 0, 56, 79
1, 535274, Note_on_c, 0, 62, 81
1, 535275, Control_c, 0, 64, 0
1, 535304, Control_c, 0, 64, 57
1, 535319, Control_c, 0, 64, 70
1, 535334, Note_off_c, 0, 93, 59
1, 535338, Note_off_c, 0, 56, 63
1, 535342, Control_c, 0, 64, 82
1, 535342, Note_off_c, 0, 58, 59
1, 535349, Note_on_c, 0, 94, 104
1, 535349, Note_off_c, 0, 51, 58
1, 535351, Note_off_c, 0, 62, 56
1, 535357, Control_c, 0, 64, 96
1, 535371, Control_c, 0, 64, 114
1, 535386, Control_c, 0, 64, 127
1, 535421, Note_on_c, 0, 93, 98
1, 535422, Note_on_c, 0, 51, 68
1, 535422, Note_on_c, 0, 56, 71
1, 535426, Note_on_c, 0, 58, 70
1, 535426, Note_off_c, 0, 94, 66
1, 535428, Note_on_c, 0, 62, 68
1, 535463, Note_off_c, 0, 58, 60
1, 535466, Note_off_c, 0, 93, 67
1, 535467, Note_off_c, 0, 62, 53
1, 535473, Note_off_c, 0, 56, 62
1, 535484, Note_off_c, 0, 51, 59
1, 535486, Note_on_c, 0, 94, 101
1, 535552, Note_on_c, 0, 93, 99
1, 535554, Note_off_c, 0, 94, 63
1, 535567, Note_on_c, 0, 51, 64
1, 535570, Note_on_c, 0, 62, 71
1, 535572, Note_on_c, 0, 56, 72
1, 535572, Note_on_c, 0, 58, 65
1, 535616, Note_on_c, 0, 94, 96
1, 535618, Note_off_c, 0, 62, 58
1, 535641, Note_off_c, 0, 93, 66
1, 535649, Note_off_c, 0, 51, 60
1, 535649, Note_off_c, 0, 58, 58
1, 535655, Note_off_c, 0, 56, 62
1, 535674, Note_off_c, 0, 94, 65
1, 535699, Control_c, 0, 64, 106
1, 535703, Note_on_c, 0, 96, 100
1, 535714, Control_c, 0, 64, 77
1, 535719, Note_on_c, 0, 58, 75
1, 535720, Note_on_c, 0, 63, 86
1, 535721, Note_on_c, 0, 51, 69
1, 535722, Note_on_c, 0, 55, 80
1, 535729, Control_c, 0, 64, 29
1, 535743, Control_c, 0, 64, 0
1, 535773, Control_c, 0, 64, 58
1, 535780, Note_off_c, 0, 51, 59
1, 535783, Note_on_c, 0, 94, 92
1, 535783, Note_off_c, 0, 55, 62
1, 535783, Note_off_c, 0, 58, 61
1, 535786, Note_off_c, 0, 63, 57
1, 535787, Control_c, 0, 64, 70
1, 535802, Control_c, 0, 64, 82
1, 535817, Control_c, 0, 64, 98
1, 535826, Note_off_c, 0, 96, 59
1, 535832, Control_c, 0, 64, 127
1, 535849, Note_on_c, 0, 92, 91
1, 535861, Note_on_c, 0, 58, 62
1, 535867, Note_on_c, 0, 55, 63
1, 535873, Note_on_c, 0, 51, 59
1, 535876, Note_on_c, 0, 63, 60
1, 535907, Note_off_c, 0, 51, 61
1, 535911, Note_off_c, 0, 63, 62
1, 535918, Note_off_c, 0, 58, 61
1, 535919, Note_on_c, 0, 91, 91
1, 535924, Note_off_c, 0, 55, 58
1, 535928, Note_off_c, 0, 94, 55
1, 535971, Note_off_c, 0, 92, 64
1, 535992, Note_on_c, 0, 89, 90
1, 535996, Note_on_c, 0, 63, 71
1, 536000, Note_on_c, 0, 51, 59
1, 536000, Note_off_c, 0, 91, 64
1, 536001, Note_on_c, 0, 58, 65
1, 536004, Note_on_c, 0, 55, 66
1, 536037, Note_off_c, 0, 58, 63
1, 536039, Note_off_c, 0, 63, 46
1, 536040, Note_off_c, 0, 51, 64
1, 536044, Note_off_c, 0, 55, 60
1, 536068, Note_off_c, 0, 89, 49
1, 536071, Note_on_c, 0, 87, 90
1, 536137, Note_on_c, 0, 58, 63
1, 536141, Note_on_c, 0, 55, 61
1, 536148, Note_on_c, 0, 63, 64
1, 536150, Note_on_c, 0, 86, 91
1, 536156, Note_on_c, 0, 51, 57
1, 536178, Note_off_c, 0, 63, 65
1, 536183, Note_off_c, 0, 55, 59
1, 536184, Note_off_c, 0, 51, 62
1, 536186, Note_off_c, 0, 58, 55
1, 536198, Note_off_c, 0, 87, 64
1, 536203, Note_off_c, 0, 86, 63
1, 536227, Note_on_c, 0, 84, 82
1, 536275, Note_on_c, 0, 63, 58
1, 536275, Note_off_c, 0, 84, 64
1, 536279, Note_on_c, 0, 51, 53
1, 536284, Note_on_c, 0, 58, 64
1, 536292, Note_on_c, 0, 55, 59
1, 536293, Note_on_c, 0, 82, 93
1, 536309, Note_off_c, 0, 58, 63
1, 536311, Note_off_c, 0, 63, 61
1, 536320, Note_off_c, 0, 55, 65
1, 536324, Note_off_c, 0, 51, 61
1, 536363, Note_on_c, 0, 80, 86
1, 536392, Note_off_c, 0, 82, 64
1, 536417, Note_on_c, 0, 55, 53
1, 536417, Note_on_c, 0, 58, 64
1, 536418, Note_on_c, 0, 63, 69
1, 536421, Note_on_c, 0, 51, 63
1, 536436, Note_on_c, 0, 79, 92
1, 536457, Note_off_c, 0, 58, 57
1, 536457, Note_off_c, 0, 55, 61
1, 536460, Note_off_c, 0, 51, 60
1, 536465, Note_off_c, 0, 63, 55
1, 536471, Note_off_c, 0, 80, 61
1, 536500, Note_off_c, 0, 79, 60
1, 536507, Note_on_c, 0, 77, 84
1, 536552, Control_c, 0, 64, 119
1, 536555, Note_on_c, 0, 55, 71
1, 536557, Note_on_c, 0, 63, 78
1, 536560, Note_on_c, 0, 58, 68
1, 536566, Control_c, 0, 64, 118
1, 536568, Note_on_c, 0, 51, 59
1, 536575, Note_on_c, 0, 75, 89
1, 536587, Note_off_c, 0, 77, 60
1, 536600, Note_off_c, 0, 63, 48
1, 536601, Note_off_c, 0, 51, 62
1, 536604, Note_off_c, 0, 58, 59
1, 536610, Control_c, 0, 64, 117
1, 536611, Note_off_c, 0, 55, 59
1, 536625, Control_c, 0, 64, 115
1, 536640, Control_c, 0, 64, 112
1, 536649, Note_on_c, 0, 74, 94
1, 536655, Control_c, 0, 64, 111
1, 536683, Note_off_c, 0, 75, 61
1, 536703, Note_on_c, 0, 63, 68
1, 536708, Note_on_c, 0, 55, 65
1, 536708, Note_on_c, 0, 58, 68
1, 536710, Note_on_c, 0, 51, 50
1, 536713, Note_off_c, 0, 74, 63
1, 536714, Control_c, 0, 64, 111
1, 536719, Note_on_c, 0, 72, 85
1, 536729, Control_c, 0, 64, 110
1, 536744, Control_c, 0, 64, 109
1, 536746, Note_off_c, 0, 58, 54
1, 536748, Note_off_c, 0, 63, 56
1, 536751, Note_off_c, 0, 51, 58
1, 536754, Note_off_c, 0, 55, 60
1, 536773, Note_off_c, 0, 72, 62
1, 536793, Note_on_c, 0, 70, 85
1, 536856, Note_on_c, 0, 63, 73
1, 536860, Note_on_c, 0, 68, 87
1, 536861, Note_on_c, 0, 55, 71
1, 536862, Note_on_c, 0, 51, 59
1, 536866, Note_on_c, 0, 58, 69
1, 536884, Control_c, 0, 64, 110
1, 536890, Note_off_c, 0, 63, 63
1, 536892, Note_off_c, 0, 55, 64
1, 536901, Note_off_c, 0, 58, 59
1, 536914, Control_c, 0, 64, 110
1, 536918, Note_off_c, 0, 51, 61
1, 536919, Note_off_c, 0, 70, 59
1, 536925, Note_on_c, 0, 67, 91
1, 536929, Control_c, 0, 64, 110
1, 536943, Control_c, 0, 64, 98
1, 536952, Note_off_c, 0, 68, 63
1, 536958, Control_c, 0, 64, 80
1, 536973, Control_c, 0, 64, 63
1, 536980, Note_off_c, 0, 67, 63
1, 536987, Note_on_c, 0, 51, 82
1, 536987, Note_on_c, 0, 65, 81
1, 536987, Control_c, 0, 64, 46
1, 536988, Note_on_c, 0, 58, 81
1, 536991, Note_on_c, 0, 56, 80
1, 537002, Control_c, 0, 64, 61
1, 537017, Control_c, 0, 64, 71
1, 537031, Note_off_c, 0, 65, 61
1, 537032, Control_c, 0, 64, 82
1, 537036, Note_off_c, 0, 56, 61
1, 537047, Control_c, 0, 64, 94
1, 537053, Note_off_c, 0, 58, 55
1, 537058, Note_off_c, 0, 51, 60
1, 537062, Control_c, 0, 64, 102
1, 537062, Note_on_c, 0, 63, 88
1, 537077, Control_c, 0, 64, 103
1, 537119, Note_off_c, 0, 63, 61
1, 537121, Control_c, 0, 64, 103
1, 537134, Note_on_c, 0, 51, 69
1, 537134, Note_on_c, 0, 62, 80
1, 537135, Control_c, 0, 64, 106
1, 537136, Note_on_c, 0, 58, 80
1, 537137, Note_on_c, 0, 56, 70
1, 537150, Control_c, 0, 64, 109
1, 537165, Note_on_c, 0, 53, 48
1, 537166, Control_c, 0, 64, 112
1, 537168, Note_off_c, 0, 56, 66
1, 537184, Note_off_c, 0, 58, 59
1, 537187, Note_off_c, 0, 51, 63
1, 537195, Note_off_c, 0, 53, 57
1, 537211, Control_c, 0, 64, 113
1, 537213, Note_on_c, 0, 65, 80
1, 537221, Note_off_c, 0, 62, 60
1, 537226, Control_c, 0, 64, 115
1, 537240, Control_c, 0, 64, 118
1, 537255, Control_c, 0, 64, 119
1, 537270, Control_c, 0, 64, 120
1, 537273, Note_off_c, 0, 65, 64
1, 537282, Note_on_c, 0, 51, 75
1, 537282, Note_on_c, 0, 58, 72
1, 537283, Note_on_c, 0, 56, 67
1, 537283, Note_on_c, 0, 68, 86
1, 537285, Control_c, 0, 64, 121
1, 537300, Control_c, 0, 64, 127
1, 537302, Note_off_c, 0, 58, 70
1, 537307, Note_off_c, 0, 56, 68
1, 537324, Note_off_c, 0, 68, 65
1, 537330, Note_off_c, 0, 51, 66
1, 537356, Note_on_c, 0, 62, 87
1, 537417, Note_off_c, 0, 62, 59
1, 537418, Control_c, 0, 64, 84
1, 537432, Note_on_c, 0, 39, 114
1, 537432, Control_c, 0, 64, 24
1, 537444, Note_on_c, 0, 55, 88
1, 537447, Control_c, 0, 64, 0
1, 537454, Note_off_c, 0, 39, 68
1, 537477, Control_c, 0, 64, 38
1, 537492, Control_c, 0, 64, 75
1, 537506, Control_c, 0, 64, 89
1, 537509, Note_off_c, 0, 55, 59
1, 537521, Control_c, 0, 64, 106
1, 537528, Note_on_c, 0, 63, 83
1, 537536, Control_c, 0, 64, 112
1, 537566, Control_c, 0, 64, 113
1, 537588, Control_c, 0, 64, 115
1, 537602, Note_on_c, 0, 58, 89
1, 537603, Control_c, 0, 64, 126
1, 537610, Note_off_c, 0, 63, 58
1, 537618, Control_c, 0, 64, 127
1, 537637, Note_on_c, 0, 51, 73
1, 537657, Poly_aftertouch_c, 0, 64, 0
1, 537667, Note_on_c, 0, 67, 84
1, 537672, Note_off_c, 0, 51, 62
1, 537672, Note_off_c, 0, 58, 65
1, 537706, Note_off_c, 0, 67, 62
1, 537745, Note_on_c, 0, 51, 70
1, 537759, Note_on_c, 0, 63, 85
1, 537763, Note_on_c, 0, 55, 58
1, 537768, Note_on_c, 0, 58, 64
1, 537791, Note_off_c, 0, 58, 69
1, 537795, Note_off_c, 0, 55, 65
1, 537797, Note_off_c, 0, 51, 61
1, 537799, Note_off_c, 0, 63, 63
1, 537825, Note_on_c, 0, 70, 83
1, 537870, Note_off_c, 0, 70, 64
1, 537881, Note_on_c, 0, 58, 71
1, 537888, Note_on_c, 0, 55, 59
1, 537889, Note_on_c, 0, 63, 82
1, 537894, Note_on_c, 0, 51, 72
1, 537895, Note_on_c, 0, 67, 93
1, 537929, Note_off_c, 0, 51, 64
1, 537932, Note_off_c, 0, 58, 62
1, 537934, Note_off_c, 0, 55, 65
1, 537938, Note_off_c, 0, 63, 57
1, 537944, Note_off_c, 0, 67, 64
1, 537972, Note_on_c, 0, 75, 84
1, 538038, Note_on_c, 0, 55, 62
1, 538038, Note_on_c, 0, 63, 73
1, 538040, Note_on_c, 0, 58, 69
1, 538041, Note_on_c, 0, 70, 89
1, 538043, Note_on_c, 0, 51, 64
1, 538055, Note_off_c, 0, 75, 57
1, 538076, Note_off_c, 0, 51, 62
1, 538077, Note_off_c, 0, 55, 60
1, 538078, Note_off_c, 0, 63, 56
1, 538090, Note_off_c, 0, 58, 59
1, 538104, Note_on_c, 0, 79, 84
1, 538109, Note_off_c, 0, 70, 65
1, 538144, Note_off_c, 0, 79, 63
1, 538185, Note_on_c, 0, 63, 77
1, 538189, Note_on_c, 0, 58, 74
1, 538189, Note_on_c, 0, 75, 92
1, 538190, Note_on_c, 0, 51, 59
1, 538197, Note_on_c, 0, 55, 59
1, 538222, Note_off_c, 0, 63, 61
1, 538228, Note_off_c, 0, 55, 64
1, 538231, Note_off_c, 0, 58, 62
1, 538239, Note_off_c, 0, 51, 60
1, 538242, Note_off_c, 0, 75, 62
1, 538256, Note_on_c, 0, 82, 89
1, 538304, Note_off_c, 0, 82, 64
1, 538323, Note_on_c, 0, 63, 75
1, 538335, Note_on_c, 0, 51, 73
1, 538340, Note_on_c, 0, 79, 94
1, 538341, Note_on_c, 0, 55, 53
1, 538343, Note_on_c, 0, 58, 68
1, 538377, Note_off_c, 0, 58, 57
1, 538378, Note_off_c, 0, 55, 59
1, 538383, Note_off_c, 0, 63, 57
1, 538385, Note_off_c, 0, 79, 64
1, 538410, Note_on_c, 0, 87, 92
1, 538410, Note_off_c, 0, 51, 53
1, 538480, Note_on_c, 0, 63, 79
1, 538484, Note_on_c, 0, 82, 96
1, 538490, Note_on_c, 0, 58, 69
1, 538494, Note_on_c, 0, 55, 65
1, 538502, Note_on_c, 0, 51, 58
1, 538503, Note_off_c, 0, 87, 55
1, 538529, Note_off_c, 0, 55, 58
1, 538537, Note_off_c, 0, 63, 57
1, 538541, Note_off_c, 0, 51, 55
1, 538544, Note_off_c, 0, 58, 58
1, 538546, Note_off_c, 0, 82, 67
1, 538550, Note_on_c, 0, 91, 91
1, 538587, Note_off_c, 0, 91, 68
1, 538624, Note_on_c, 0, 63, 77
1, 538626, Note_on_c, 0, 87, 95
1, 538630, Note_on_c, 0, 51, 67
1, 538630, Note_on_c, 0, 58, 67
1, 538636, Note_on_c, 0, 55, 70
1, 538669, Note_off_c, 0, 87, 67
1, 538669, Note_off_c, 0, 55, 63
1, 538684, Note_off_c, 0, 58, 59
1, 538689, Note_off_c, 0, 63, 61
1, 538692, Note_on_c, 0, 94, 91
1, 538699, Note_off_c, 0, 51, 63
1, 538737, Control_c, 0, 64, 114
1, 538740, Note_off_c, 0, 94, 65
1, 538752, Control_c, 0, 64, 83
1, 538758, Note_on_c, 0, 62, 87
1, 538761, Note_on_c, 0, 56, 83
1, 538761, Note_on_c, 0, 58, 80
1, 538763, Note_on_c, 0, 51, 73
1, 538764, Note_on_c, 0, 93, 98
1, 538767, Control_c, 0, 64, 63
1, 538781, Note_on_c, 0, 91, 73
1, 538782, Control_c, 0, 64, 0
1, 538797, Note_off_c, 0, 91, 66
1, 538797, Control_c, 0, 64, 34
1, 538809, Note_off_c, 0, 58, 60
1, 538812, Control_c, 0, 64, 63
1, 538814, Note_off_c, 0, 93, 67
1, 538815, Note_off_c, 0, 62, 60
1, 538823, Note_off_c, 0, 56, 64
1, 538827, Control_c, 0, 64, 73
1, 538829, Note_off_c, 0, 51, 62
1, 538841, Note_on_c, 0, 94, 102
1, 538842, Control_c, 0, 64, 86
1, 538856, Control_c, 0, 64, 104
1, 538871, Control_c, 0, 64, 127
1, 538908, Note_on_c, 0, 51, 71
1, 538909, Note_on_c, 0, 56, 77
1, 538909, Note_on_c, 0, 93, 97
1, 538910, Note_on_c, 0, 62, 79
1, 538913, Note_on_c, 0, 58, 77
1, 538919, Note_off_c, 0, 94, 66
1, 538949, Note_off_c, 0, 58, 58
1, 538952, Note_off_c, 0, 62, 55
1, 538955, Note_off_c, 0, 93, 67
1, 538963, Note_off_c, 0, 56, 62
1, 538974, Note_on_c, 0, 94, 95
1, 538974, Note_off_c, 0, 51, 58
1, 539038, Note_off_c, 0, 94, 62
1, 539042, Note_on_c, 0, 93, 99
1, 539053, Note_on_c, 0, 58, 64
1, 539056, Note_on_c, 0, 56, 74
1, 539058, Note_on_c, 0, 62, 66
1, 539060, Note_on_c, 0, 51, 64
1, 539098, Note_off_c, 0, 62, 55
1, 539100, Note_off_c, 0, 93, 64
1, 539118, Note_on_c, 0, 94, 97
1, 539136, Note_off_c, 0, 56, 62
1, 539142, Note_off_c, 0, 51, 60
1, 539144, Note_off_c, 0, 58, 56
1, 539167, Note_off_c, 0, 94, 68
1, 539205, Control_c, 0, 64, 97
1, 539206, Note_on_c, 0, 96, 103
1, 539214, Note_on_c, 0, 63, 89
1, 539214, Note_on_c, 0, 58, 76
1, 539219, Control_c, 0, 64, 69
1, 539220, Note_on_c, 0, 55, 81
1, 539220, Note_on_c, 0, 51, 68
1, 539235, Control_c, 0, 64, 0
1, 539278, Note_off_c, 0, 63, 58
1, 539279, Note_on_c, 0, 94, 93
1, 539280, Control_c, 0, 64, 54
1, 539282, Note_off_c, 0, 58, 58
1, 539283, Note_off_c, 0, 55, 62
1, 539286, Note_off_c, 0, 51, 60
1, 539294, Control_c, 0, 64, 71
1, 539309, Control_c, 0, 64, 82
1, 539314, Note_off_c, 0, 96, 62
1, 539324, Control_c, 0, 64, 100
1, 539338, Control_c, 0, 64, 127
1, 539348, Note_on_c, 0, 92, 92
1, 539366, Note_on_c, 0, 58, 68
1, 539369, Note_on_c, 0, 63, 70
1, 539370, Note_on_c, 0, 51, 62
1, 539370, Note_on_c, 0, 55, 67
1, 539396, Note_off_c, 0, 63, 62
1, 539397, Note_off_c, 0, 94, 62
1, 539406, Note_off_c, 0, 51, 64
1, 539410, Note_off_c, 0, 58, 59
1, 539411, Note_off_c, 0, 55, 55
1, 539414, Note_on_c, 0, 91, 96
1, 539450, Note_off_c, 0, 92, 65
1, 539495, Note_on_c, 0, 89, 89
1, 539498, Note_off_c, 0, 91, 62
1, 539503, Note_on_c, 0, 63, 72
1, 539505, Note_on_c, 0, 51, 64
1, 539508, Note_on_c, 0, 58, 73
1, 539515, Note_on_c, 0, 55, 63
1, 539529, Note_off_c, 0, 58, 66
1, 539531, Note_off_c, 0, 63, 60
1, 539542, Note_off_c, 0, 55, 65
1, 539542, Note_off_c, 0, 51, 66
1, 539569, Note_on_c, 0, 87, 93
1, 539576, Note_off_c, 0, 89, 56
1, 539637, Note_on_c, 0, 63, 75
1, 539640, Note_on_c, 0, 55, 57
1, 539642, Note_on_c, 0, 58, 69
1, 539646, Note_on_c, 0, 86, 91
1, 539647, Note_on_c, 0, 51, 66
1, 539676, Note_off_c, 0, 55, 64
1, 539677, Note_off_c, 0, 51, 65
1, 539677, Note_off_c, 0, 58, 64
1, 539683, Note_off_c, 0, 63, 55
1, 539683, Note_off_c, 0, 87, 64
1, 539707, Note_off_c, 0, 86, 60
1, 539715, Note_on_c, 0, 84, 81
1, 539761, Note_off_c, 0, 84, 64
1, 539776, Note_on_c, 0, 63, 80
1, 539783, Note_on_c, 0, 51, 61
1, 539784, Note_on_c, 0, 58, 64
1, 539786, Note_on_c, 0, 55, 60
1, 539787, Note_on_c, 0, 82, 87
1, 539813, Note_off_c, 0, 55, 65
1, 539819, Note_off_c, 0, 58, 63
1, 539831, Note_off_c, 0, 51, 65
1, 539835, Note_off_c, 0, 63, 58
1, 539843, Note_on_c, 0, 81, 49
1, 539858, Note_on_c, 0, 80, 84
1, 539879, Note_off_c, 0, 81, 55
1, 539886, Note_off_c, 0, 82, 57
1, 539929, Note_on_c, 0, 63, 80
1, 539930, Note_on_c, 0, 79, 74
1, 539936, Note_off_c, 0, 80, 59
1, 539936, Note_on_c, 0, 55, 59
1, 539936, Note_on_c, 0, 58, 59
1, 539946, Note_on_c, 0, 51, 61
1, 539965, Note_off_c, 0, 58, 64
1, 539977, Note_off_c, 0, 51, 63
1, 539979, Note_off_c, 0, 55, 62
1, 539981, Note_off_c, 0, 63, 59
1, 539985, Note_off_c, 0, 79, 62
1, 539990, Note_on_c, 0, 77, 46
1, 540038, Note_off_c, 0, 77, 62
1, 540059, Note_on_c, 0, 75, 83
1, 540070, Note_on_c, 0, 58, 74
1, 540072, Note_on_c, 0, 51, 63
1, 540073, Note_on_c, 0, 55, 71
1, 540073, Control_c, 0, 64, 104
1, 540088, Control_c, 0, 64, 101
1, 540102, Control_c, 0, 64, 103
1, 540117, Control_c, 0, 64, 127
1, 540117, Note_on_c, 0, 74, 88
1, 540126, Note_off_c, 0, 58, 60
1, 540135, Note_off_c, 0, 55, 62
1, 540137, Note_off_c, 0, 75, 64
1, 540139, Note_off_c, 0, 51, 63
1, 540163, Note_on_c, 0, 72, 80
1, 540165, Note_off_c, 0, 74, 65
1, 540187, Note_off_c, 0, 72, 66
1, 540220, Note_on_c, 0, 51, 67
1, 540225, Note_on_c, 0, 58, 73
1, 540228, Note_on_c, 0, 70, 88
1, 540231, Note_on_c, 0, 55, 64
1, 540254, Note_on_c, 0, 68, 80
1, 540273, Note_off_c, 0, 58, 61
1, 540293, Note_off_c, 0, 55, 60
1, 540298, Note_off_c, 0, 51, 62
1, 540305, Note_on_c, 0, 67, 89
1, 540313, Note_off_c, 0, 70, 62
1, 540333, Note_off_c, 0, 68, 64
1, 540358, Note_off_c, 0, 67, 63
1, 540360, Note_on_c, 0, 65, 75
1, 540373, Note_on_c, 0, 51, 77
1, 540380, Note_on_c, 0, 58, 67
1, 540384, Note_off_c, 0, 65, 69
1, 540405, Note_off_c, 0, 58, 66
1, 540412, Note_off_c, 0, 51, 66
1, 540419, Note_on_c, 0, 63, 89
1, 540458, Control_c, 0, 64, 86
1, 540460, Note_on_c, 0, 62, 78
1, 540473, Control_c, 0, 64, 54
1, 540488, Note_off_c, 0, 63, 63
1, 540488, Control_c, 0, 64, 0
1, 540509, Note_on_c, 0, 60, 82
1, 540511, Note_on_c, 0, 41, 91
1, 540512, Note_on_c, 0, 51, 86
1, 540514, Note_off_c, 0, 62, 63
1, 540519, Note_on_c, 0, 53, 74
1, 540532, Control_c, 0, 64, 64
1, 540545, Note_off_c, 0, 53, 66
1, 540547, Control_c, 0, 64, 73
1, 540556, Note_off_c, 0, 60, 64
1, 540562, Control_c, 0, 64, 86
1, 540565, Note_off_c, 0, 51, 63
1, 540571, Note_off_c, 0, 41, 64
1, 540584, Control_c, 0, 64, 104
1, 540591, Note_on_c, 0, 58, 97
1, 540599, Control_c, 0, 64, 127
1, 540655, Note_off_c, 0, 58, 63
1, 540668, Note_on_c, 0, 57, 86
1, 540670, Note_on_c, 0, 51, 92
1, 540676, Note_on_c, 0, 41, 86
1, 540677, Note_on_c, 0, 53, 65
1, 540717, Note_off_c, 0, 53, 59
1, 540720, Note_off_c, 0, 51, 63
1, 540724, Note_off_c, 0, 41, 61
1, 540740, Note_on_c, 0, 60, 93
1, 540746, Note_off_c, 0, 57, 62
1, 540805, Note_on_c, 0, 63, 96
1, 540806, Control_c, 0, 64, 91
1, 540816, Note_off_c, 0, 60, 63
1, 540821, Control_c, 0, 64, 62
1, 540821, Note_on_c, 0, 41, 83
1, 540824, Note_on_c, 0, 51, 74
1, 540827, Note_on_c, 0, 53, 70
1, 540836, Control_c, 0, 64, 0
1, 540846, Note_off_c, 0, 51, 70
1, 540862, Note_off_c, 0, 53, 66
1, 540875, Note_on_c, 0, 57, 90
1, 540878, Note_off_c, 0, 41, 65
1, 540888, Note_off_c, 0, 63, 55
1, 540927, Note_off_c, 0, 57, 66
1, 540966, Note_on_c, 0, 58, 107
1, 540973, Note_on_c, 0, 46, 106
1, 540976, Note_on_c, 0, 34, 98
1, 540994, Note_off_c, 0, 58, 71
1, 540997, Note_off_c, 0, 34, 69
1, 540997, Note_off_c, 0, 46, 62
1, 540998, Control_c, 0, 64, 66
1, 541013, Control_c, 0, 64, 96
1, 541028, Control_c, 0, 64, 127
1, 541429, Note_on_c, 0, 70, 104
1, 541431, Note_on_c, 0, 58, 95
1, 541468, Note_off_c, 0, 70, 70
1, 541873, Note_on_c, 0, 73, 104
1, 541876, Note_off_c, 0, 58, 65
1, 541878, Note_on_c, 0, 61, 95
1, 541919, Note_off_c, 0, 73, 68
1, 542328, Note_on_c, 0, 78, 102
1, 542333, Note_on_c, 0, 66, 96
1, 542338, Note_off_c, 0, 61, 58
1, 542369, Note_off_c, 0, 78, 68
1, 542707, Note_off_c, 0, 66, 55
1, 542741, Note_on_c, 0, 73, 101
1, 542746, Note_on_c, 0, 61, 94
1, 542800, Note_off_c, 0, 73, 64
1, 543185, Note_on_c, 0, 70, 97
1, 543191, Note_on_c, 0, 58, 92
1, 543216, Note_off_c, 0, 61, 63
1, 543254, Note_off_c, 0, 70, 68
1, 543315, Note_off_c, 0, 58, 66
1, 543617, Note_on_c, 0, 66, 93
1, 543632, Note_on_c, 0, 54, 90
1, 543737, Note_off_c, 0, 66, 58
1, 543764, Note_off_c, 0, 54, 63
1, 544038, Note_on_c, 0, 61, 101
1, 544043, Note_on_c, 0, 49, 93
1, 544085, Note_off_c, 0, 61, 66
1, 544090, Note_off_c, 0, 49, 67
1, 544306, Control_c, 0, 64, 89
1, 544327, Control_c, 0, 64, 60
1, 544342, Control_c, 0, 64, 0
1, 544404, Poly_aftertouch_c, 0, 56, 127
1, 544435, Poly_aftertouch_c, 0, 56, 0
1, 544447, Control_c, 0, 64, 58
1, 544462, Control_c, 0, 64, 67
1, 544477, Note_on_c, 0, 33, 93
1, 544477, Control_c, 0, 64, 81
1, 544478, Note_on_c, 0, 45, 100
1, 544479, Note_on_c, 0, 57, 97
1, 544492, Control_c, 0, 64, 127
1, 544517, Note_off_c, 0, 33, 61
1, 544526, Note_off_c, 0, 57, 69
1, 544529, Note_off_c, 0, 45, 70
1, 544897, Note_on_c, 0, 69, 96
1, 544908, Note_on_c, 0, 57, 93
1, 544917, Note_on_c, 0, 67, 59
1, 544918, Note_off_c, 0, 67, 127
1, 544970, Note_off_c, 0, 69, 68
1, 545323, Note_on_c, 0, 60, 97
1, 545330, Note_on_c, 0, 72, 99
1, 545371, Note_off_c, 0, 57, 50
1, 545416, Note_off_c, 0, 72, 67
1, 545736, Note_off_c, 0, 60, 63
1, 545742, Note_on_c, 0, 65, 93
1, 545749, Note_on_c, 0, 77, 107
1, 545784, Note_off_c, 0, 77, 70
1, 546163, Note_off_c, 0, 65, 59
1, 546178, Note_on_c, 0, 72, 99
1, 546179, Note_on_c, 0, 60, 91
1, 546270, Note_off_c, 0, 72, 57
1, 546602, Note_on_c, 0, 69, 94
1, 546607, Note_on_c, 0, 57, 85
1, 546639, Note_off_c, 0, 60, 59
1, 546652, Note_off_c, 0, 69, 68
1, 546734, Note_off_c, 0, 57, 64
1, 547047, Note_on_c, 0, 65, 93
1, 547060, Note_on_c, 0, 53, 69
1, 547082, Note_on_c, 0, 55, 44
1, 547083, Note_off_c, 0, 55, 127
1, 547096, Note_off_c, 0, 65, 67
1, 547128, Note_off_c, 0, 53, 65
1, 547473, Note_on_c, 0, 60, 82
1, 547495, Note_on_c, 0, 48, 62
1, 547531, Note_off_c, 0, 60, 66
1, 547533, Note_off_c, 0, 48, 62
1, 547619, Control_c, 0, 67, 10
1, 547634, Control_c, 0, 67, 18
1, 547648, Control_c, 0, 67, 27
1, 547663, Control_c, 0, 67, 35
1, 547678, Control_c, 0, 67, 42
1, 547692, Control_c, 0, 67, 49
1, 547707, Control_c, 0, 67, 55
1, 547722, Control_c, 0, 67, 60
1, 547737, Control_c, 0, 67, 65
1, 547752, Control_c, 0, 67, 70
1, 547766, Control_c, 0, 67, 76
1, 547781, Control_c, 0, 67, 81
1, 547796, Control_c, 0, 67, 87
1, 547811, Control_c, 0, 67, 92
1, 547826, Control_c, 0, 67, 96
1, 547841, Control_c, 0, 67, 101
1, 547856, Control_c, 0, 64, 106
1, 547856, Control_c, 0, 67, 107
1, 547871, Control_c, 0, 64, 90
1, 547871, Control_c, 0, 67, 114
1, 547871, Note_on_c, 0, 66, 67
1, 547876, Note_on_c, 0, 58, 62
1, 547877, Note_on_c, 0, 61, 60
1, 547877, Note_on_c, 0, 73, 71
1, 547885, Control_c, 0, 64, 78
1, 547885, Control_c, 0, 67, 121
1, 547900, Control_c, 0, 64, 67
1, 547900, Control_c, 0, 67, 127
1, 547904, Note_off_c, 0, 73, 66
1, 547907, Note_off_c, 0, 61, 64
1, 547910, Note_off_c, 0, 58, 62
1, 547915, Note_off_c, 0, 66, 56
1, 547915, Control_c, 0, 64, 48
1, 547930, Control_c, 0, 64, 0
1, 547974, Control_c, 0, 64, 27
1, 548014, Note_on_c, 0, 61, 51
1, 548019, Note_on_c, 0, 58, 57
1, 548020, Note_on_c, 0, 66, 57
1, 548033, Control_c, 0, 64, 26
1, 548048, Control_c, 0, 64, 33
1, 548050, Note_off_c, 0, 61, 63
1, 548051, Note_off_c, 0, 58, 64
1, 548054, Note_off_c, 0, 66, 59
1, 548070, Control_c, 0, 64, 49
1, 548085, Control_c, 0, 64, 58
1, 548100, Control_c, 0, 64, 62
1, 548115, Control_c, 0, 64, 63
1, 548145, Control_c, 0, 64, 64
1, 548148, Note_on_c, 0, 84, 73
1, 548154, Note_on_c, 0, 61, 59
1, 548154, Note_on_c, 0, 58, 58
1, 548157, Note_on_c, 0, 66, 53
1, 548160, Control_c, 0, 64, 64
1, 548191, Note_off_c, 0, 58, 61
1, 548192, Note_off_c, 0, 61, 63
1, 548194, Note_on_c, 0, 82, 75
1, 548198, Note_off_c, 0, 66, 59
1, 548204, Note_off_c, 0, 84, 64
1, 548243, Note_on_c, 0, 81, 75
1, 548244, Note_off_c, 0, 82, 63
1, 548279, Control_c, 0, 64, 64
1, 548287, Note_on_c, 0, 82, 74
1, 548299, Note_on_c, 0, 58, 60
1, 548299, Note_off_c, 0, 81, 66
1, 548300, Note_on_c, 0, 61, 61
1, 548302, Note_on_c, 0, 66, 55
1, 548329, Note_off_c, 0, 61, 65
1, 548330, Note_off_c, 0, 58, 65
1, 548332, Note_off_c, 0, 66, 56
1, 548333, Note_off_c, 0, 82, 65
1, 548412, Note_on_c, 0, 58, 62
1, 548413, Note_on_c, 0, 61, 65
1, 548416, Note_on_c, 0, 66, 63
1, 548455, Note_off_c, 0, 61, 61
1, 548456, Note_off_c, 0, 66, 60
1, 548460, Note_off_c, 0, 58, 59
1, 548502, Control_c, 0, 64, 63
1, 548531, Control_c, 0, 64, 64
1, 548542, Note_on_c, 0, 87, 84
1, 548554, Note_on_c, 0, 61, 65
1, 548556, Note_on_c, 0, 58, 63
1, 548557, Note_on_c, 0, 66, 63
1, 548576, Control_c, 0, 64, 63
1, 548577, Note_on_c, 0, 85, 80
1, 548589, Note_off_c, 0, 61, 64
1, 548591, Note_off_c, 0, 58, 60
1, 548592, Note_off_c, 0, 66, 59
1, 548605, Note_off_c, 0, 87, 65
1, 548622, Note_on_c, 0, 84, 80
1, 548629, Note_off_c, 0, 85, 65
1, 548635, Control_c, 0, 67, 126
1, 548679, Note_on_c, 0, 85, 90
1, 548681, Note_on_c, 0, 66, 69
1, 548682, Note_on_c, 0, 61, 73
1, 548688, Note_on_c, 0, 58, 68
1, 548691, Note_off_c, 0, 84, 65
1, 548694, Control_c, 0, 64, 64
1, 548722, Note_off_c, 0, 58, 63
1, 548722, Note_off_c, 0, 61, 61
1, 548723, Note_off_c, 0, 85, 64
1, 548723, Control_c, 0, 64, 64
1, 548731, Note_off_c, 0, 66, 60
1, 548822, Note_on_c, 0, 66, 69
1, 548824, Note_on_c, 0, 58, 68
1, 548825, Note_on_c, 0, 61, 67
1, 548858, Note_off_c, 0, 61, 65
1, 548860, Note_off_c, 0, 58, 60
1, 548863, Note_off_c, 0, 66, 57
1, 548894, Control_c, 0, 67, 127
1, 548909, Control_c, 0, 64, 64
1, 548945, Note_on_c, 0, 92, 87
1, 548952, Note_on_c, 0, 58, 67
1, 548952, Note_on_c, 0, 61, 64
1, 548953, Control_c, 0, 64, 63
1, 548953, Control_c, 0, 67, 127
1, 548957, Note_on_c, 0, 66, 67
1, 548968, Control_c, 0, 64, 62
1, 548978, Note_on_c, 0, 90, 84
1, 548983, Control_c, 0, 64, 62
1, 548989, Note_off_c, 0, 58, 58
1, 548991, Note_off_c, 0, 61, 62
1, 548993, Note_off_c, 0, 66, 57
1, 548998, Control_c, 0, 64, 62
1, 549004, Note_off_c, 0, 92, 68
1, 549025, Note_on_c, 0, 89, 81
1, 549033, Note_off_c, 0, 90, 65
1, 549078, Note_on_c, 0, 90, 89
1, 549080, Note_on_c, 0, 61, 69
1, 549084, Note_on_c, 0, 66, 65
1, 549087, Note_on_c, 0, 58, 66
1, 549093, Note_off_c, 0, 89, 65
1, 549102, Control_c, 0, 64, 63
1, 549112, Note_off_c, 0, 90, 67
1, 549116, Control_c, 0, 64, 63
1, 549117, Note_off_c, 0, 58, 63
1, 549118, Note_off_c, 0, 61, 61
1, 549122, Note_off_c, 0, 66, 60
1, 549176, Control_c, 0, 64, 64
1, 549206, Control_c, 0, 64, 64
1, 549221, Control_c, 0, 64, 65
1, 549224, Note_on_c, 0, 66, 64
1, 549227, Note_on_c, 0, 61, 63
1, 549229, Note_on_c, 0, 58, 56
1, 549257, Note_off_c, 0, 61, 64
1, 549259, Note_off_c, 0, 58, 64
1, 549262, Note_off_c, 0, 66, 56
1, 549347, Note_on_c, 0, 61, 62
1, 549349, Note_on_c, 0, 58, 57
1, 549354, Control_c, 0, 64, 65
1, 549355, Note_on_c, 0, 87, 63
1, 549356, Note_on_c, 0, 66, 64
1, 549385, Note_on_c, 0, 85, 66
1, 549385, Note_off_c, 0, 58, 62
1, 549385, Note_off_c, 0, 61, 63
1, 549388, Note_off_c, 0, 66, 60
1, 549401, Note_off_c, 0, 87, 64
1, 549424, Note_off_c, 0, 85, 60
1, 549426, Note_on_c, 0, 84, 71
1, 549475, Note_on_c, 0, 66, 64
1, 549476, Note_on_c, 0, 61, 67
1, 549478, Note_on_c, 0, 58, 52
1, 549478, Note_on_c, 0, 85, 73
1, 549487, Note_off_c, 0, 84, 62
1, 549509, Note_off_c, 0, 61, 65
1, 549511, Note_off_c, 0, 85, 64
1, 549512, Note_off_c, 0, 58, 64
1, 549515, Note_off_c, 0, 66, 59
1, 549599, Control_c, 0, 64, 65
1, 549614, Control_c, 0, 64, 64
1, 549618, Note_on_c, 0, 61, 59
1, 549620, Note_on_c, 0, 58, 46
1, 549628, Control_c, 0, 64, 64
1, 549629, Note_on_c, 0, 66, 54
1, 549643, Control_c, 0, 64, 64
1, 549652, Note_off_c, 0, 58, 64
1, 549652, Note_off_c, 0, 61, 63
1, 549656, Note_off_c, 0, 66, 57
1, 549702, Control_c, 0, 64, 64
1, 549732, Control_c, 0, 64, 63
1, 549742, Note_on_c, 0, 66, 56
1, 549743, Note_on_c, 0, 61, 66
1, 549746, Note_on_c, 0, 58, 55
1, 549747, Note_on_c, 0, 84, 68
1, 549776, Control_c, 0, 64, 62
1, 549782, Note_off_c, 0, 58, 63
1, 549785, Note_off_c, 0, 61, 60
1, 549787, Note_on_c, 0, 82, 74
1, 549791, Note_off_c, 0, 66, 57
1, 549791, Control_c, 0, 64, 62
1, 549800, Note_off_c, 0, 84, 60
1, 549826, Note_off_c, 0, 82, 64
1, 549839, Note_on_c, 0, 81, 66
1, 549850, Control_c, 0, 64, 62
1, 549880, Note_on_c, 0, 61, 58
1, 549881, Note_on_c, 0, 58, 49
1, 549887, Note_on_c, 0, 66, 54
1, 549887, Note_on_c, 0, 82, 64
1, 549896, Note_off_c, 0, 81, 63
1, 549914, Note_off_c, 0, 58, 64
1, 549916, Note_off_c, 0, 61, 63
1, 549916, Note_off_c, 0, 66, 57
1, 549922, Note_off_c, 0, 82, 63
1, 549940, Control_c, 0, 64, 63
1, 549999, Control_c, 0, 64, 63
1, 550013, Note_on_c, 0, 61, 58
1, 550014, Note_on_c, 0, 66, 50
1, 550017, Note_on_c, 0, 58, 47
1, 550049, Note_off_c, 0, 58, 64
1, 550050, Note_off_c, 0, 61, 63
1, 550056, Note_off_c, 0, 66, 58
1, 550141, Note_on_c, 0, 80, 69
1, 550145, Note_on_c, 0, 61, 57
1, 550148, Note_on_c, 0, 66, 55
1, 550148, Control_c, 0, 64, 64
1, 550149, Note_on_c, 0, 58, 47
1, 550174, Note_on_c, 0, 78, 63
1, 550177, Control_c, 0, 64, 63
1, 550185, Note_off_c, 0, 58, 61
1, 550185, Note_off_c, 0, 61, 61
1, 550188, Note_off_c, 0, 66, 57
1, 550191, Note_off_c, 0, 80, 59
1, 550206, Note_off_c, 0, 78, 62
1, 550222, Control_c, 0, 64, 64
1, 550231, Note_on_c, 0, 77, 66
1, 550276, Note_on_c, 0, 78, 69
1, 550282, Note_off_c, 0, 77, 60
1, 550282, Note_on_c, 0, 66, 52
1, 550288, Note_on_c, 0, 58, 45
1, 550288, Note_on_c, 0, 61, 54
1, 550314, Note_off_c, 0, 78, 64
1, 550327, Note_off_c, 0, 61, 61
1, 550328, Note_off_c, 0, 58, 59
1, 550330, Note_off_c, 0, 66, 55
1, 550426, Note_on_c, 0, 61, 50
1, 550427, Note_on_c, 0, 66, 51
1, 550429, Note_on_c, 0, 58, 44
1, 550437, Control_c, 0, 64, 63
1, 550461, Note_off_c, 0, 58, 58
1, 550461, Note_off_c, 0, 61, 62
1, 550463, Note_off_c, 0, 66, 56
1, 550466, Control_c, 0, 64, 64
1, 550554, Note_on_c, 0, 66, 59
1, 550556, Note_on_c, 0, 75, 64
1, 550558, Note_on_c, 0, 61, 57
1, 550567, Note_on_c, 0, 58, 43
1, 550590, Note_on_c, 0, 73, 60
1, 550598, Note_off_c, 0, 61, 61
1, 550601, Note_off_c, 0, 58, 61
1, 550610, Note_off_c, 0, 75, 59
1, 550611, Note_off_c, 0, 66, 55
1, 550623, Note_off_c, 0, 73, 65
1, 550641, Note_on_c, 0, 72, 63
1, 550694, Note_on_c, 0, 61, 60
1, 550694, Note_on_c, 0, 66, 59
1, 550694, Note_off_c, 0, 72, 56
1, 550700, Note_on_c, 0, 73, 59
1, 550703, Control_c, 0, 64, 64
1, 550705, Note_on_c, 0, 58, 45
1, 550718, Control_c, 0, 64, 65
1, 550730, Note_off_c, 0, 73, 66
1, 550739, Note_off_c, 0, 58, 63
1, 550739, Note_off_c, 0, 66, 58
1, 550743, Note_off_c, 0, 61, 59
1, 550763, Control_c, 0, 64, 65
1, 550778, Control_c, 0, 64, 67
1, 550792, Control_c, 0, 64, 68
1, 550807, Control_c, 0, 64, 70
1, 550819, Note_on_c, 0, 66, 78
1, 550822, Control_c, 0, 64, 71
1, 550837, Control_c, 0, 64, 72
1, 550840, Note_on_c, 0, 58, 54
1, 550842, Note_on_c, 0, 61, 61
1, 550867, Control_c, 0, 64, 72
1, 550873, Note_off_c, 0, 61, 63
1, 550881, Control_c, 0, 64, 73
1, 550884, Note_off_c, 0, 58, 58
1, 550892, Note_off_c, 0, 66, 61
1, 550896, Control_c, 0, 64, 74
1, 550941, Control_c, 0, 64, 74
1, 550966, Note_on_c, 0, 61, 56
1, 550966, Note_on_c, 0, 64, 71
1, 550970, Note_on_c, 0, 58, 57
1, 550985, Control_c, 0, 64, 73
1, 551000, Control_c, 0, 64, 72
1, 551015, Control_c, 0, 64, 70
1, 551016, Note_off_c, 0, 61, 57
1, 551016, Note_off_c, 0, 58, 55
1, 551016, Note_off_c, 0, 64, 62
1, 551030, Control_c, 0, 64, 68
1, 551045, Control_c, 0, 64, 67
1, 551066, Control_c, 0, 64, 66
1, 551081, Control_c, 0, 64, 64
1, 551096, Control_c, 0, 64, 61
1, 551110, Note_on_c, 0, 60, 57
1, 551111, Control_c, 0, 64, 58
1, 551117, Note_on_c, 0, 57, 56
1, 551117, Note_on_c, 0, 65, 57
1, 551120, Note_on_c, 0, 72, 61
1, 551126, Control_c, 0, 64, 56
1, 551152, Note_off_c, 0, 60, 61
1, 551154, Note_off_c, 0, 57, 62
1, 551156, Control_c, 0, 64, 57
1, 551165, Note_off_c, 0, 65, 57
1, 551179, Note_off_c, 0, 72, 62
1, 551186, Control_c, 0, 64, 58
1, 551200, Control_c, 0, 64, 58
1, 551215, Control_c, 0, 64, 59
1, 551230, Control_c, 0, 64, 59
1, 551245, Control_c, 0, 64, 60
1, 551246, Note_on_c, 0, 57, 49
1, 551255, Note_on_c, 0, 60, 53
1, 551260, Note_on_c, 0, 65, 43
1, 551283, Note_off_c, 0, 60, 64
1, 551286, Note_off_c, 0, 57, 59
1, 551290, Note_off_c, 0, 65, 57
1, 551304, Control_c, 0, 64, 60
1, 551318, Control_c, 0, 64, 61
1, 551333, Control_c, 0, 64, 61
1, 551369, Note_on_c, 0, 60, 55
1, 551373, Note_on_c, 0, 82, 68
1, 551374, Note_on_c, 0, 57, 58
1, 551374, Note_on_c, 0, 65, 59
1, 551392, Control_c, 0, 64, 62
1, 551402, Note_on_c, 0, 81, 69
1, 551415, Note_off_c, 0, 57, 59
1, 551416, Note_off_c, 0, 60, 62
1, 551418, Note_off_c, 0, 65, 59
1, 551419, Note_off_c, 0, 82, 61
1, 551446, Note_off_c, 0, 81, 62
1, 551454, Note_on_c, 0, 79, 72
1, 551481, Control_c, 0, 64, 62
1, 551497, Note_on_c, 0, 81, 71
1, 551510, Note_on_c, 0, 60, 53
1, 551511, Note_off_c, 0, 79, 61
1, 551517, Note_on_c, 0, 65, 52
1, 551523, Note_on_c, 0, 57, 46
1, 551539, Note_off_c, 0, 81, 63
1, 551545, Note_off_c, 0, 60, 65
1, 551549, Note_off_c, 0, 65, 59
1, 551549, Note_off_c, 0, 57, 58
1, 551621, Note_on_c, 0, 60, 63
1, 551626, Note_on_c, 0, 57, 56
1, 551627, Note_on_c, 0, 65, 65
1, 551671, Note_off_c, 0, 57, 59
1, 551672, Note_off_c, 0, 60, 61
1, 551674, Note_off_c, 0, 65, 57
1, 551757, Note_on_c, 0, 85, 81
1, 551762, Note_on_c, 0, 60, 59
1, 551769, Note_on_c, 0, 57, 57
1, 551772, Note_on_c, 0, 65, 58
1, 551789, Note_on_c, 0, 84, 74
1, 551803, Note_off_c, 0, 60, 63
1, 551805, Note_off_c, 0, 57, 62
1, 551815, Note_off_c, 0, 85, 65
1, 551817, Note_off_c, 0, 65, 60
1, 551842, Note_on_c, 0, 83, 81
1, 551846, Note_off_c, 0, 84, 66
1, 551859, Control_c, 0, 64, 62
1, 551892, Note_on_c, 0, 84, 83
1, 551896, Note_on_c, 0, 60, 62
1, 551905, Note_on_c, 0, 65, 58
1, 551907, Note_on_c, 0, 57, 59
1, 551910, Note_off_c, 0, 83, 65
1, 551919, Control_c, 0, 64, 61
1, 551936, Note_off_c, 0, 84, 65
1, 551941, Note_off_c, 0, 60, 63
1, 551942, Note_off_c, 0, 57, 63
1, 551944, Note_off_c, 0, 65, 60
1, 551979, Control_c, 0, 64, 62
1, 552023, Control_c, 0, 64, 62
1, 552029, Note_on_c, 0, 57, 61
1, 552029, Note_on_c, 0, 60, 64
1, 552035, Note_on_c, 0, 65, 62
1, 552053, Control_c, 0, 64, 63
1, 552070, Note_off_c, 0, 60, 62
1, 552075, Note_off_c, 0, 57, 59
1, 552083, Note_off_c, 0, 65, 57
1, 552083, Control_c, 0, 64, 63
1, 552113, Control_c, 0, 64, 64
1, 552127, Control_c, 0, 64, 64
1, 552157, Control_c, 0, 64, 65
1, 552157, Note_on_c, 0, 90, 84
1, 552167, Note_on_c, 0, 60, 65
1, 552172, Control_c, 0, 64, 66
1, 552173, Note_on_c, 0, 57, 58
1, 552177, Note_on_c, 0, 65, 56
1, 552187, Control_c, 0, 64, 66
1, 552190, Note_on_c, 0, 89, 84
1, 552204, Note_off_c, 0, 60, 64
1, 552208, Note_off_c, 0, 57, 63
1, 552211, Note_off_c, 0, 90, 67
1, 552213, Note_off_c, 0, 65, 59
1, 552231, Note_on_c, 0, 88, 81
1, 552245, Note_off_c, 0, 89, 64
1, 552280, Note_on_c, 0, 89, 83
1, 552290, Note_on_c, 0, 57, 60
1, 552290, Control_c, 0, 64, 66
1, 552291, Note_on_c, 0, 60, 64
1, 552296, Note_on_c, 0, 65, 59
1, 552297, Note_off_c, 0, 88, 65
1, 552317, Note_off_c, 0, 89, 65
1, 552320, Control_c, 0, 64, 65
1, 552336, Note_off_c, 0, 65, 61
1, 552336, Note_off_c, 0, 57, 58
1, 552339, Note_off_c, 0, 60, 62
1, 552433, Note_on_c, 0, 60, 53
1, 552441, Note_on_c, 0, 57, 51
1, 552443, Note_on_c, 0, 65, 52
1, 552467, Note_off_c, 0, 57, 58
1, 552471, Note_off_c, 0, 60, 65
1, 552477, Note_off_c, 0, 65, 55
1, 552513, Control_c, 0, 64, 65
1, 552552, Note_on_c, 0, 85, 75
1, 552554, Note_on_c, 0, 60, 64
1, 552565, Note_on_c, 0, 57, 50
1, 552571, Note_on_c, 0, 65, 58
1, 552600, Note_on_c, 0, 84, 73
1, 552607, Note_off_c, 0, 60, 60
1, 552610, Note_off_c, 0, 65, 59
1, 552610, Control_c, 0, 64, 64
1, 552610, Note_off_c, 0, 57, 58
1, 552613, Note_off_c, 0, 85, 64
1, 552635, Note_off_c, 0, 84, 64
1, 552644, Note_on_c, 0, 83, 70
1, 552691, Note_on_c, 0, 84, 70
1, 552700, Note_off_c, 0, 83, 65
1, 552708, Note_on_c, 0, 60, 57
1, 552712, Note_on_c, 0, 57, 54
1, 552714, Note_on_c, 0, 65, 56
1, 552715, Note_off_c, 0, 84, 68
1, 552742, Note_off_c, 0, 60, 64
1, 552744, Note_off_c, 0, 57, 63
1, 552752, Note_off_c, 0, 65, 60
1, 552802, Control_c, 0, 64, 65
1, 552834, Note_on_c, 0, 60, 56
1, 552839, Note_on_c, 0, 57, 51
1, 552839, Note_on_c, 0, 65, 58
1, 552879, Note_off_c, 0, 60, 62
1, 552881, Note_off_c, 0, 57, 61
1, 552885, Note_off_c, 0, 65, 57
1, 552954, Note_on_c, 0, 82, 72
1, 552974, Note_on_c, 0, 57, 52
1, 552983, Note_on_c, 0, 60, 53
1, 552988, Note_on_c, 0, 65, 50
1, 552992, Note_on_c, 0, 81, 63
1, 552997, Note_off_c, 0, 82, 61
1, 553013, Note_off_c, 0, 57, 60
1, 553016, Note_off_c, 0, 60, 65
1, 553018, Note_off_c, 0, 81, 67
1, 553021, Note_off_c, 0, 65, 57
1, 553036, Note_on_c, 0, 79, 64
1, 553073, Note_on_c, 0, 81, 68
1, 553087, Note_off_c, 0, 79, 59
1, 553097, Note_on_c, 0, 60, 58
1, 553107, Note_on_c, 0, 57, 48
1, 553112, Note_on_c, 0, 65, 51
1, 553113, Note_off_c, 0, 81, 62
1, 553138, Note_off_c, 0, 60, 62
1, 553144, Note_off_c, 0, 57, 60
1, 553152, Note_off_c, 0, 65, 59
1, 553242, Note_on_c, 0, 57, 42
1, 553249, Note_on_c, 0, 65, 41
1, 553250, Note_on_c, 0, 60, 49
1, 553276, Note_off_c, 0, 57, 54
1, 553278, Note_off_c, 0, 60, 59
1, 553281, Note_off_c, 0, 65, 55
1, 553351, Note_on_c, 0, 78, 64
1, 553376, Note_on_c, 0, 60, 51
1, 553381, Note_on_c, 0, 57, 47
1, 553393, Note_on_c, 0, 77, 57
1, 553397, Note_off_c, 0, 78, 55
1, 553397, Note_on_c, 0, 65, 35
1, 553410, Note_off_c, 0, 60, 63
1, 553411, Note_off_c, 0, 57, 57
1, 553418, Control_c, 0, 64, 65
1, 553425, Note_off_c, 0, 77, 67
1, 553430, Note_off_c, 0, 65, 48
1, 553442, Note_on_c, 0, 76, 65
1, 553496, Note_on_c, 0, 60, 51
1, 553496, Note_on_c, 0, 77, 61
1, 553498, Note_on_c, 0, 57, 50
1, 553501, Note_off_c, 0, 76, 54
1, 553517, Note_off_c, 0, 77, 65
1, 553520, Note_on_c, 0, 65, 46
1, 553534, Note_off_c, 0, 60, 62
1, 553537, Control_c, 0, 64, 66
1, 553537, Note_off_c, 0, 57, 60
1, 553546, Note_off_c, 0, 65, 59
1, 553631, Note_on_c, 0, 65, 46
1, 553633, Note_on_c, 0, 60, 45
1, 553640, Note_on_c, 0, 57, 42
1, 553674, Note_off_c, 0, 60, 64
1, 553675, Note_off_c, 0, 57, 55
1, 553678, Note_off_c, 0, 65, 52
1, 553700, Control_c, 0, 64, 66
1, 553714, Control_c, 0, 64, 67
1, 553729, Control_c, 0, 64, 67
1, 553744, Control_c, 0, 64, 69
1, 553759, Control_c, 0, 64, 70
1, 553761, Note_on_c, 0, 73, 64
1, 553767, Note_on_c, 0, 60, 58
1, 553772, Note_on_c, 0, 57, 42
1, 553774, Control_c, 0, 64, 71
1, 553778, Note_on_c, 0, 65, 54
1, 553788, Note_on_c, 0, 72, 64
1, 553798, Note_off_c, 0, 73, 60
1, 553804, Note_off_c, 0, 57, 56
1, 553811, Note_off_c, 0, 60, 57
1, 553821, Note_off_c, 0, 65, 56
1, 553824, Note_off_c, 0, 72, 59
1, 553833, Control_c, 0, 64, 70
1, 553850, Note_on_c, 0, 71, 64
1, 553895, Note_on_c, 0, 57, 58
1, 553901, Note_on_c, 0, 72, 60
1, 553901, Note_off_c, 0, 71, 60
1, 553907, Control_c, 0, 64, 71
1, 553935, Note_off_c, 0, 57, 61
1, 553935, Note_off_c, 0, 72, 63
1, 553967, Control_c, 0, 64, 71
1, 553982, Control_c, 0, 64, 72
1, 554011, Control_c, 0, 64, 72
1, 554043, Note_on_c, 0, 53, 62
1, 554123, Control_c, 0, 64, 72
1, 554137, Control_c, 0, 64, 71
1, 554152, Control_c, 0, 64, 70
1, 554167, Control_c, 0, 64, 70
1, 554178, Note_off_c, 0, 53, 56
1, 554182, Control_c, 0, 64, 69
1, 554194, Note_on_c, 0, 73, 57
1, 554196, Note_on_c, 0, 51, 52
1, 554197, Control_c, 0, 64, 69
1, 554211, Control_c, 0, 64, 68
1, 554226, Control_c, 0, 64, 66
1, 554241, Control_c, 0, 64, 65
1, 554256, Control_c, 0, 64, 63
1, 554271, Control_c, 0, 64, 62
1, 554286, Control_c, 0, 64, 59
1, 554301, Control_c, 0, 64, 54
1, 554315, Control_c, 0, 64, 38
1, 554330, Control_c, 0, 64, 0
1, 554363, Note_off_c, 0, 73, 55
1, 554372, Note_on_c, 0, 74, 62
1, 554383, Note_off_c, 0, 51, 59
1, 554390, Note_on_c, 0, 50, 43
1, 554410, Note_on_c, 0, 46, 21
1, 554476, Note_on_c, 0, 67, 43
1, 554476, Poly_aftertouch_c, 0, 65, 0
1, 554478, Control_c, 0, 64, 24
1, 554493, Control_c, 0, 64, 46
1, 554508, Control_c, 0, 64, 60
1, 554512, Note_off_c, 0, 67, 57
1, 554523, Control_c, 0, 64, 65
1, 554537, Control_c, 0, 64, 69
1, 554552, Control_c, 0, 64, 73
1, 554560, Note_off_c, 0, 50, 59
1, 554567, Control_c, 0, 64, 76
1, 554579, Note_on_c, 0, 65, 16
1, 554582, Control_c, 0, 64, 78
1, 554597, Control_c, 0, 64, 80
1, 554602, Note_on_c, 0, 67, 60
1, 554611, Control_c, 0, 64, 81
1, 554625, Note_off_c, 0, 65, 38
1, 554626, Control_c, 0, 64, 81
1, 554641, Note_off_c, 0, 67, 58
1, 554672, Note_on_c, 0, 55, 55
1, 554694, Note_on_c, 0, 65, 41
1, 554707, Note_off_c, 0, 55, 60
1, 554725, Note_off_c, 0, 65, 59
1, 554749, Note_on_c, 0, 67, 59
1, 554760, Control_c, 0, 64, 81
1, 554775, Control_c, 0, 64, 80
1, 554790, Control_c, 0, 64, 79
1, 554810, Note_off_c, 0, 67, 56
1, 554813, Control_c, 0, 64, 77
1, 554823, Note_on_c, 0, 70, 72
1, 554827, Note_on_c, 0, 53, 52
1, 554828, Control_c, 0, 64, 74
1, 554835, Note_on_c, 0, 65, 43
1, 554837, Note_off_c, 0, 74, 26
1, 554842, Control_c, 0, 64, 70
1, 554857, Control_c, 0, 64, 65
1, 554871, Note_off_c, 0, 65, 59
1, 554872, Control_c, 0, 64, 60
1, 554886, Control_c, 0, 64, 58
1, 554901, Control_c, 0, 64, 60
1, 554916, Control_c, 0, 64, 63
1, 554924, Note_on_c, 0, 67, 55
1, 554931, Control_c, 0, 64, 65
1, 554946, Control_c, 0, 64, 67
1, 554959, Note_off_c, 0, 67, 63
1, 554961, Control_c, 0, 64, 70
1, 554976, Control_c, 0, 64, 73
1, 554991, Control_c, 0, 64, 79
1, 554995, Note_on_c, 0, 65, 39
1, 555006, Control_c, 0, 64, 82
1, 555021, Control_c, 0, 64, 85
1, 555031, Note_off_c, 0, 65, 54
1, 555035, Control_c, 0, 64, 87
1, 555050, Control_c, 0, 64, 88
1, 555051, Note_on_c, 0, 67, 57
1, 555064, Note_off_c, 0, 46, 47
1, 555076, Note_off_c, 0, 53, 57
1, 555093, Note_off_c, 0, 67, 59
1, 555109, Control_c, 0, 67, 127
1, 555110, Note_on_c, 0, 50, 58
1, 555120, Note_on_c, 0, 65, 60
1, 555139, Control_c, 0, 67, 126
1, 555154, Control_c, 0, 64, 87
1, 555168, Note_off_c, 0, 65, 58
1, 555168, Control_c, 0, 64, 86
1, 555183, Control_c, 0, 64, 85
1, 555183, Control_c, 0, 67, 126
1, 555192, Note_off_c, 0, 70, 30
1, 555195, Note_on_c, 0, 67, 63
1, 555198, Control_c, 0, 64, 84
1, 555213, Control_c, 0, 64, 83
1, 555213, Control_c, 0, 67, 125
1, 555228, Control_c, 0, 64, 81
1, 555243, Control_c, 0, 64, 77
1, 555243, Note_on_c, 0, 48, 62
1, 555246, Note_on_c, 0, 41, 53
1, 555246, Note_off_c, 0, 67, 59
1, 555248, Note_off_c, 0, 50, 58
1, 555250, Note_on_c, 0, 69, 71
1, 555257, Control_c, 0, 64, 71
1, 555257, Control_c, 0, 67, 125
1, 555272, Control_c, 0, 64, 62
1, 555272, Control_c, 0, 67, 124
1, 555287, Control_c, 0, 64, 51
1, 555302, Control_c, 0, 64, 49
1, 555302, Control_c, 0, 67, 124
1, 555317, Note_on_c, 0, 65, 3
1, 555317, Control_c, 0, 64, 54
1, 555317, Control_c, 0, 67, 123
1, 555332, Control_c, 0, 64, 59
1, 555335, Note_on_c, 0, 67, 64
1, 555347, Control_c, 0, 64, 63
1, 555347, Control_c, 0, 67, 123
1, 555351, Note_off_c, 0, 65, 36
1, 555361, Control_c, 0, 64, 65
1, 555376, Control_c, 0, 64, 67
1, 555376, Control_c, 0, 67, 122
1, 555380, Note_off_c, 0, 69, 60
1, 555391, Control_c, 0, 64, 69
1, 555391, Control_c, 0, 67, 121
1, 555398, Note_off_c, 0, 67, 59
1, 555398, Note_off_c, 0, 48, 63
1, 555405, Note_on_c, 0, 65, 64
1, 555405, Control_c, 0, 64, 71
1, 555405, Control_c, 0, 67, 121
1, 555420, Control_c, 0, 64, 73
1, 555420, Control_c, 0, 67, 120
1, 555435, Control_c, 0, 64, 74
1, 555435, Control_c, 0, 67, 118
1, 555450, Control_c, 0, 67, 116
1, 555465, Control_c, 0, 67, 114
1, 555472, Note_off_c, 0, 65, 61
1, 555479, Control_c, 0, 67, 112
1, 555480, Note_on_c, 0, 67, 65
1, 555494, Control_c, 0, 67, 110
1, 555509, Control_c, 0, 67, 109
1, 555525, Control_c, 0, 64, 74
1, 555525, Control_c, 0, 67, 108
1, 555538, Note_on_c, 0, 55, 63
1, 555539, Note_on_c, 0, 65, 60
1, 555539, Note_off_c, 0, 67, 62
1, 555540, Control_c, 0, 67, 107
1, 555562, Control_c, 0, 67, 106
1, 555577, Control_c, 0, 67, 105
1, 555581, Note_off_c, 0, 55, 64
1, 555591, Control_c, 0, 64, 73
1, 555591, Control_c, 0, 67, 105
1, 555612, Note_on_c, 0, 67, 68
1, 555621, Control_c, 0, 67, 104
1, 555636, Control_c, 0, 67, 104
1, 555648, Note_off_c, 0, 65, 60
1, 555651, Control_c, 0, 67, 103
1, 555666, Control_c, 0, 67, 103
1, 555679, Note_on_c, 0, 53, 63
1, 555681, Control_c, 0, 64, 73
1, 555685, Note_on_c, 0, 75, 85
1, 555693, Note_off_c, 0, 67, 61
1, 555724, Control_c, 0, 64, 72
1, 555767, Note_on_c, 0, 67, 66
1, 555769, Control_c, 0, 64, 72
1, 555840, Note_off_c, 0, 67, 62
1, 555843, Control_c, 0, 64, 71
1, 555854, Note_on_c, 0, 65, 69
1, 555857, Control_c, 0, 67, 102
1, 555867, Note_off_c, 0, 53, 53
1, 555870, Note_off_c, 0, 75, 55
1, 555876, Note_off_c, 0, 41, 36
1, 555887, Control_c, 0, 64, 72
1, 555916, Note_on_c, 0, 67, 73
1, 555916, Note_off_c, 0, 65, 60
1, 555931, Control_c, 0, 67, 103
1, 555961, Control_c, 0, 67, 103
1, 555976, Control_c, 0, 64, 71
1, 555976, Control_c, 0, 67, 104
1, 555985, Note_on_c, 0, 48, 64
1, 555987, Note_off_c, 0, 67, 62
1, 555988, Note_on_c, 0, 65, 65
1, 556006, Control_c, 0, 67, 104
1, 556049, Note_on_c, 0, 67, 76
1, 556065, Control_c, 0, 67, 105
1, 556095, Control_c, 0, 64, 71
1, 556106, Note_off_c, 0, 48, 61
1, 556109, Control_c, 0, 64, 70
1, 556124, Control_c, 0, 64, 70
1, 556131, Note_on_c, 0, 74, 85
1, 556132, Note_on_c, 0, 50, 66
1, 556139, Control_c, 0, 64, 68
1, 556143, Note_off_c, 0, 65, 0
1, 556145, Note_on_c, 0, 46, 70
1, 556147, Note_off_c, 0, 67, 59
1, 556154, Control_c, 0, 64, 66
1, 556169, Control_c, 0, 64, 62
1, 556183, Control_c, 0, 64, 52
1, 556198, Control_c, 0, 64, 41
1, 556212, Poly_aftertouch_c, 0, 65, 0
1, 556213, Control_c, 0, 64, 43
1, 556217, Note_on_c, 0, 67, 65
1, 556227, Control_c, 0, 64, 56
1, 556227, Control_c, 0, 67, 105
1, 556242, Control_c, 0, 64, 63
1, 556242, Control_c, 0, 67, 106
1, 556257, Control_c, 0, 64, 66
1, 556272, Control_c, 0, 64, 69
1, 556272, Control_c, 0, 67, 106
1, 556276, Note_off_c, 0, 67, 63
1, 556287, Control_c, 0, 64, 73
1, 556292, Note_off_c, 0, 50, 64
1, 556292, Note_on_c, 0, 65, 68
1, 556309, Control_c, 0, 64, 75
1, 556309, Control_c, 0, 67, 107
1, 556324, Control_c, 0, 64, 76
1, 556339, Control_c, 0, 64, 78
1, 556354, Control_c, 0, 64, 78
1, 556354, Control_c, 0, 67, 107
1, 556360, Note_off_c, 0, 65, 62
1, 556366, Note_on_c, 0, 67, 71
1, 556369, Control_c, 0, 64, 79
1, 556399, Control_c, 0, 64, 79
1, 556430, Note_off_c, 0, 67, 59
1, 556431, Note_on_c, 0, 55, 79
1, 556441, Note_on_c, 0, 65, 61
1, 556444, Control_c, 0, 67, 108
1, 556458, Control_c, 0, 67, 108
1, 556488, Control_c, 0, 64, 79
1, 556488, Control_c, 0, 67, 109
1, 556503, Control_c, 0, 64, 78
1, 556503, Control_c, 0, 67, 109
1, 556506, Note_on_c, 0, 67, 66
1, 556506, Note_off_c, 0, 55, 63
1, 556518, Control_c, 0, 64, 77
1, 556518, Control_c, 0, 67, 110
1, 556530, Note_off_c, 0, 65, 41
1, 556532, Control_c, 0, 64, 75
1, 556532, Control_c, 0, 67, 110
1, 556547, Control_c, 0, 64, 73
1, 556562, Control_c, 0, 64, 71
1, 556562, Control_c, 0, 67, 111
1, 556569, Note_off_c, 0, 67, 59
1, 556577, Control_c, 0, 64, 68
1, 556577, Control_c, 0, 67, 111
1, 556584, Note_on_c, 0, 70, 70
1, 556592, Control_c, 0, 64, 64
1, 556598, Note_on_c, 0, 53, 72
1, 556606, Control_c, 0, 64, 58
1, 556621, Control_c, 0, 64, 44
1, 556636, Control_c, 0, 64, 11
1, 556636, Control_c, 0, 67, 112
1, 556638, Note_off_c, 0, 74, 24
1, 556650, Control_c, 0, 64, 0
1, 556650, Control_c, 0, 67, 112
1, 556661, Note_on_c, 0, 67, 63
1, 556680, Control_c, 0, 64, 19
1, 556695, Control_c, 0, 64, 53
1, 556695, Control_c, 0, 67, 113
1, 556710, Control_c, 0, 64, 62
1, 556712, Note_off_c, 0, 67, 55
1, 556724, Control_c, 0, 64, 64
1, 556739, Control_c, 0, 64, 67
1, 556742, Note_on_c, 0, 65, 55
1, 556754, Control_c, 0, 64, 70
1, 556754, Control_c, 0, 67, 112
1, 556769, Control_c, 0, 64, 75
1, 556781, Note_off_c, 0, 65, 63
1, 556784, Control_c, 0, 64, 79
1, 556799, Control_c, 0, 64, 79
1, 556799, Control_c, 0, 67, 112
1, 556813, Control_c, 0, 67, 111
1, 556815, Note_on_c, 0, 67, 54
1, 556816, Note_off_c, 0, 53, 59
1, 556828, Control_c, 0, 67, 111
1, 556840, Note_off_c, 0, 70, 31
1, 556843, Control_c, 0, 64, 79
1, 556851, Note_off_c, 0, 67, 62
1, 556858, Control_c, 0, 64, 78
1, 556864, Note_on_c, 0, 50, 50
1, 556864, Note_off_c, 0, 46, 59
1, 556873, Control_c, 0, 64, 78
1, 556882, Note_on_c, 0, 65, 62
1, 556888, Control_c, 0, 64, 77
1, 556888, Control_c, 0, 67, 110
1, 556933, Note_off_c, 0, 65, 55
1, 556944, Note_on_c, 0, 67, 62
1, 556947, Control_c, 0, 64, 76
1, 556962, Control_c, 0, 64, 75
1, 556977, Control_c, 0, 64, 73
1, 556992, Control_c, 0, 64, 70
1, 556992, Control_c, 0, 67, 111
1, 557001, Note_off_c, 0, 50, 57
1, 557006, Control_c, 0, 64, 65
1, 557009, Note_on_c, 0, 41, 46
1, 557010, Note_on_c, 0, 48, 49
1, 557013, Note_off_c, 0, 67, 57
1, 557021, Control_c, 0, 64, 59
1, 557026, Note_on_c, 0, 69, 62
1, 557036, Control_c, 0, 64, 45
1, 557058, Control_c, 0, 64, 35
1, 557073, Control_c, 0, 64, 36
1, 557088, Control_c, 0, 64, 48
1, 557088, Control_c, 0, 67, 110
1, 557103, Control_c, 0, 64, 59
1, 557118, Control_c, 0, 64, 64
1, 557124, Note_on_c, 0, 67, 51
1, 557133, Control_c, 0, 64, 66
1, 557142, Note_off_c, 0, 69, 35
1, 557144, Note_off_c, 0, 48, 63
1, 557148, Control_c, 0, 64, 69
1, 557148, Control_c, 0, 67, 110
1, 557162, Note_off_c, 0, 67, 63
1, 557162, Control_c, 0, 64, 72
1, 557177, Control_c, 0, 64, 76
1, 557177, Control_c, 0, 67, 109
1, 557192, Control_c, 0, 64, 77
1, 557192, Control_c, 0, 67, 109
1, 557194, Note_on_c, 0, 65, 59
1, 557237, Control_c, 0, 64, 77
1, 557237, Note_off_c, 0, 65, 58
1, 557265, Note_on_c, 0, 67, 51
1, 557296, Control_c, 0, 64, 76
1, 557304, Note_off_c, 0, 67, 62
1, 557305, Note_on_c, 0, 55, 62
1, 557331, Note_on_c, 0, 65, 52
1, 557336, Note_off_c, 0, 55, 63
1, 557370, Control_c, 0, 67, 109
1, 557385, Control_c, 0, 64, 75
1, 557400, Note_on_c, 0, 67, 55
1, 557400, Control_c, 0, 64, 73
1, 557404, Note_off_c, 0, 65, 39
1, 557415, Control_c, 0, 64, 68
1, 557415, Control_c, 0, 67, 110
1, 557429, Control_c, 0, 64, 64
1, 557442, Note_off_c, 0, 67, 56
1, 557444, Control_c, 0, 64, 60
1, 557451, Note_on_c, 0, 53, 56
1, 557459, Control_c, 0, 64, 58
1, 557467, Note_on_c, 0, 75, 60
1, 557488, Control_c, 0, 64, 59
1, 557503, Control_c, 0, 64, 63
1, 557518, Control_c, 0, 64, 65
1, 557533, Control_c, 0, 64, 67
1, 557541, Note_on_c, 0, 67, 58
1, 557542, Note_off_c, 0, 75, 54
1, 557547, Control_c, 0, 64, 69
1, 557562, Control_c, 0, 64, 70
1, 557576, Note_off_c, 0, 67, 61
1, 557577, Control_c, 0, 64, 71
1, 557592, Control_c, 0, 64, 72
1, 557607, Control_c, 0, 64, 73
1, 557621, Note_on_c, 0, 65, 58
1, 557621, Control_c, 0, 67, 109
1, 557651, Note_off_c, 0, 53, 49
1, 557662, Note_off_c, 0, 65, 61
1, 557672, Note_off_c, 0, 41, 41
1, 557681, Control_c, 0, 64, 74
1, 557688, Note_on_c, 0, 67, 52
1, 557714, Note_on_c, 0, 48, 52
1, 557725, Note_off_c, 0, 67, 62
1, 557741, Note_off_c, 0, 48, 58
1, 557758, Note_on_c, 0, 65, 64
1, 557785, Note_off_c, 0, 65, 65
1, 557821, Control_c, 0, 64, 73
1, 557881, Note_on_c, 0, 46, 66
1, 557896, Control_c, 0, 64, 73
1, 557896, Control_c, 0, 67, 110
1, 557899, Note_on_c, 0, 74, 76
1, 557910, Control_c, 0, 64, 72
1, 557922, Note_off_c, 0, 46, 59
1, 557925, Control_c, 0, 64, 68
1, 557934, Note_off_c, 0, 74, 64
1, 557941, Control_c, 0, 64, 56
1, 557955, Control_c, 0, 64, 0
1, 557955, Control_c, 0, 67, 110
1, 557957, Note_on_c, 0, 77, 67
1, 557982, Note_off_c, 0, 77, 69
1, 558013, Note_on_c, 0, 50, 63
1, 558015, Control_c, 0, 67, 111
1, 558022, Note_on_c, 0, 58, 58
1, 558029, Note_on_c, 0, 79, 75
1, 558035, Note_on_c, 0, 53, 35
1, 558049, Note_off_c, 0, 50, 65
1, 558052, Note_off_c, 0, 58, 60
1, 558059, Control_c, 0, 64, 19
1, 558069, Note_off_c, 0, 53, 52
1, 558071, Note_on_c, 0, 81, 79
1, 558073, Note_off_c, 0, 79, 62
1, 558074, Control_c, 0, 64, 24
1, 558089, Control_c, 0, 64, 28
1, 558103, Control_c, 0, 64, 31
1, 558107, Note_off_c, 0, 81, 65
1, 558110, Note_on_c, 0, 82, 71
1, 558127, Note_off_c, 0, 82, 67
1, 558133, Control_c, 0, 64, 32
1, 558150, Note_on_c, 0, 50, 56
1, 558150, Note_on_c, 0, 53, 57
1, 558158, Note_on_c, 0, 58, 52
1, 558164, Note_on_c, 0, 84, 77
1, 558177, Control_c, 0, 67, 111
1, 558188, Note_off_c, 0, 58, 59
1, 558190, Note_off_c, 0, 53, 63
1, 558193, Note_off_c, 0, 50, 66
1, 558217, Note_on_c, 0, 86, 80
1, 558219, Note_off_c, 0, 84, 63
1, 558221, Control_c, 0, 64, 33
1, 558263, Note_on_c, 0, 87, 78
1, 558275, Note_off_c, 0, 86, 63
1, 558295, Note_on_c, 0, 50, 61
1, 558295, Note_on_c, 0, 58, 64
1, 558298, Note_on_c, 0, 53, 60
1, 558310, Control_c, 0, 64, 34
1, 558317, Note_on_c, 0, 89, 79
1, 558317, Note_off_c, 0, 87, 65
1, 558325, Note_off_c, 0, 58, 63
1, 558332, Note_off_c, 0, 53, 66
1, 558334, Note_off_c, 0, 50, 68
1, 558384, Control_c, 0, 64, 35
1, 558387, Note_on_c, 0, 87, 80
1, 558396, Note_off_c, 0, 89, 63
1, 558399, Control_c, 0, 64, 36
1, 558414, Control_c, 0, 64, 38
1, 558429, Control_c, 0, 64, 40
1, 558444, Note_on_c, 0, 58, 48
1, 558444, Control_c, 0, 64, 41
1, 558447, Note_on_c, 0, 50, 50
1, 558453, Note_on_c, 0, 53, 33
1, 558456, Note_on_c, 0, 86, 74
1, 558459, Control_c, 0, 64, 42
1, 558471, Note_off_c, 0, 58, 56
1, 558474, Control_c, 0, 64, 43
1, 558477, Note_off_c, 0, 87, 60
1, 558487, Note_off_c, 0, 50, 52
1, 558491, Note_off_c, 0, 53, 54
1, 558492, Note_off_c, 0, 86, 61
1, 558518, Note_on_c, 0, 84, 61
1, 558565, Note_off_c, 0, 84, 60
1, 558576, Note_on_c, 0, 58, 55
1, 558578, Note_on_c, 0, 53, 59
1, 558584, Control_c, 0, 67, 111
1, 558587, Note_on_c, 0, 50, 57
1, 558599, Note_on_c, 0, 82, 74
1, 558602, Note_off_c, 0, 53, 63
1, 558605, Note_off_c, 0, 58, 64
1, 558614, Note_off_c, 0, 50, 60
1, 558614, Control_c, 0, 64, 43
1, 558629, Control_c, 0, 64, 44
1, 558644, Control_c, 0, 67, 110
1, 558662, Note_off_c, 0, 82, 58
1, 558668, Note_on_c, 0, 81, 71
1, 558703, Control_c, 0, 67, 110
1, 558706, Note_off_c, 0, 81, 60
1, 558733, Control_c, 0, 64, 45
1, 558734, Note_on_c, 0, 79, 67
1, 558748, Control_c, 0, 67, 109
1, 558763, Control_c, 0, 64, 45
1, 558778, Control_c, 0, 64, 47
1, 558778, Control_c, 0, 67, 109
1, 558793, Note_off_c, 0, 79, 56
1, 558793, Control_c, 0, 67, 108
1, 558804, Note_on_c, 0, 81, 72
1, 558808, Control_c, 0, 67, 107
1, 558844, Note_off_c, 0, 81, 63
1, 558852, Control_c, 0, 64, 47
1, 558852, Control_c, 0, 67, 107
1, 558855, Note_on_c, 0, 82, 69
1, 558857, Note_on_c, 0, 58, 56
1, 558858, Note_on_c, 0, 51, 52
1, 558859, Note_on_c, 0, 55, 53
1, 558867, Control_c, 0, 64, 48
1, 558867, Control_c, 0, 67, 106
1, 558878, Note_off_c, 0, 82, 69
1, 558882, Control_c, 0, 64, 49
1, 558882, Control_c, 0, 67, 105
1, 558885, Note_off_c, 0, 55, 59
1, 558888, Note_off_c, 0, 51, 64
1, 558888, Note_off_c, 0, 58, 64
1, 558912, Control_c, 0, 64, 50
1, 558912, Control_c, 0, 67, 105
1, 558921, Note_on_c, 0, 84, 75
1, 558927, Control_c, 0, 64, 51
1, 558942, Control_c, 0, 64, 52
1, 558942, Control_c, 0, 67, 104
1, 558957, Control_c, 0, 64, 52
1, 558957, Control_c, 0, 67, 103
1, 558972, Control_c, 0, 67, 103
1, 558975, Note_off_c, 0, 84, 50
1, 558982, Note_on_c, 0, 55, 56
1, 558987, Control_c, 0, 64, 53
1, 558987, Note_on_c, 0, 51, 61
1, 558989, Note_on_c, 0, 58, 57
1, 558992, Note_on_c, 0, 86, 75
1, 559001, Control_c, 0, 64, 54
1, 559016, Control_c, 0, 64, 55
1, 559024, Note_off_c, 0, 55, 66
1, 559028, Note_off_c, 0, 51, 64
1, 559030, Note_off_c, 0, 58, 55
1, 559046, Note_on_c, 0, 87, 78
1, 559056, Note_off_c, 0, 86, 64
1, 559060, Control_c, 0, 64, 55
1, 559060, Control_c, 0, 67, 103
1, 559075, Control_c, 0, 64, 56
1, 559075, Control_c, 0, 67, 104
1, 559090, Control_c, 0, 64, 57
1, 559096, Note_on_c, 0, 89, 65
1, 559105, Control_c, 0, 67, 104
1, 559132, Note_on_c, 0, 55, 65
1, 559133, Note_off_c, 0, 87, 43
1, 559134, Control_c, 0, 67, 105
1, 559137, Note_on_c, 0, 51, 61
1, 559137, Note_on_c, 0, 58, 60
1, 559149, Control_c, 0, 64, 58
1, 559149, Control_c, 0, 67, 105
1, 559161, Note_off_c, 0, 89, 63
1, 559164, Control_c, 0, 64, 59
1, 559169, Note_on_c, 0, 91, 63
1, 559170, Note_off_c, 0, 58, 61
1, 559171, Note_off_c, 0, 55, 63
1, 559174, Note_off_c, 0, 51, 65
1, 559208, Control_c, 0, 67, 106
1, 559221, Note_on_c, 0, 89, 60
1, 559245, Note_off_c, 0, 91, 61
1, 559252, Control_c, 0, 64, 59
1, 559260, Note_on_c, 0, 87, 75
1, 559267, Control_c, 0, 67, 105
1, 559280, Note_on_c, 0, 55, 60
1, 559282, Note_on_c, 0, 51, 63
1, 559288, Note_off_c, 0, 89, 63
1, 559305, Control_c, 0, 64, 60
1, 559305, Control_c, 0, 67, 105
1, 559305, Note_on_c, 0, 58, 39
1, 559317, Note_on_c, 0, 86, 72
1, 559320, Control_c, 0, 64, 61
1, 559332, Note_off_c, 0, 87, 62
1, 559334, Note_off_c, 0, 55, 59
1, 559335, Note_off_c, 0, 58, 56
1, 559339, Note_off_c, 0, 51, 59
1, 559349, Control_c, 0, 67, 104
1, 559356, Note_off_c, 0, 86, 63
1, 559366, Note_on_c, 0, 84, 64
1, 559379, Control_c, 0, 64, 61
1, 559379, Control_c, 0, 67, 104
1, 559392, Note_off_c, 0, 84, 69
1, 559394, Control_c, 0, 64, 62
1, 559408, Control_c, 0, 67, 103
1, 559423, Control_c, 0, 64, 62
1, 559423, Control_c, 0, 67, 103
1, 559427, Note_on_c, 0, 82, 82
1, 559428, Note_on_c, 0, 55, 54
1, 559431, Note_on_c, 0, 51, 65
1, 559452, Note_off_c, 0, 55, 59
1, 559452, Control_c, 0, 64, 63
1, 559456, Note_off_c, 0, 51, 66
1, 559467, Control_c, 0, 64, 63
1, 559481, Note_on_c, 0, 60, 2
1, 559482, Control_c, 0, 67, 102
1, 559484, Note_on_c, 0, 81, 66
1, 559497, Control_c, 0, 64, 58
1, 559512, Note_off_c, 0, 82, 63
1, 559512, Control_c, 0, 64, 36
1, 559512, Control_c, 0, 67, 101
1, 559520, Note_off_c, 0, 81, 64
1, 559522, Note_off_c, 0, 60, 26
1, 559526, Note_on_c, 0, 79, 69
1, 559528, Control_c, 0, 64, 0
1, 559528, Control_c, 0, 67, 101
1, 559543, Control_c, 0, 67, 100
1, 559557, Control_c, 0, 64, 34
1, 559557, Control_c, 0, 67, 98
1, 559559, Note_off_c, 0, 79, 57
1, 559570, Note_on_c, 0, 77, 78
1, 559572, Control_c, 0, 64, 59
1, 559572, Control_c, 0, 67, 93
1, 559587, Control_c, 0, 64, 65
1, 559587, Control_c, 0, 67, 89
1, 559602, Control_c, 0, 64, 69
1, 559602, Control_c, 0, 67, 85
1, 559617, Control_c, 0, 64, 71
1, 559617, Control_c, 0, 67, 79
1, 559628, Note_off_c, 0, 77, 57
1, 559631, Control_c, 0, 64, 74
1, 559631, Control_c, 0, 67, 74
1, 559636, Note_on_c, 0, 86, 74
1, 559646, Control_c, 0, 64, 77
1, 559646, Control_c, 0, 67, 67
1, 559661, Control_c, 0, 64, 80
1, 559661, Control_c, 0, 67, 60
1, 559675, Control_c, 0, 64, 83
1, 559675, Control_c, 0, 67, 52
1, 559690, Control_c, 0, 64, 86
1, 559690, Control_c, 0, 67, 46
1, 559695, Note_off_c, 0, 86, 63
1, 559699, Note_on_c, 0, 82, 78
1, 559705, Note_on_c, 0, 53, 69
1, 559705, Control_c, 0, 64, 89
1, 559705, Control_c, 0, 67, 39
1, 559720, Note_on_c, 0, 62, 46
1, 559720, Control_c, 0, 64, 93
1, 559720, Control_c, 0, 67, 31
1, 559723, Note_on_c, 0, 58, 44
1, 559735, Control_c, 0, 64, 97
1, 559735, Control_c, 0, 67, 21
1, 559736, Note_off_c, 0, 53, 66
1, 559744, Note_on_c, 0, 89, 79
1, 559748, Note_off_c, 0, 82, 61
1, 559750, Control_c, 0, 64, 100
1, 559750, Control_c, 0, 67, 8
1, 559750, Note_off_c, 0, 62, 54
1, 559753, Note_off_c, 0, 58, 55
1, 559765, Control_c, 0, 64, 106
1, 559765, Control_c, 0, 67, 0
1, 559779, Control_c, 0, 64, 116
1, 559782, Note_off_c, 0, 89, 60
1, 559794, Control_c, 0, 64, 127
1, 559815, Note_on_c, 0, 86, 69
1, 559827, Note_on_c, 0, 53, 58
1, 559830, Note_on_c, 0, 58, 63
1, 559830, Note_on_c, 0, 62, 59
1, 559854, Note_off_c, 0, 86, 64
1, 559866, Note_off_c, 0, 58, 59
1, 559870, Note_off_c, 0, 62, 56
1, 559875, Note_off_c, 0, 53, 64
1, 559878, Note_on_c, 0, 94, 80
1, 559900, Note_off_c, 0, 94, 67
1, 559940, Note_on_c, 0, 89, 79
1, 559970, Note_on_c, 0, 58, 59
1, 559970, Note_off_c, 0, 89, 62
1, 559975, Note_on_c, 0, 53, 62
1, 559981, Note_on_c, 0, 62, 55
1, 559990, Note_on_c, 0, 98, 93
1, 560007, Note_off_c, 0, 53, 64
1, 560009, Note_off_c, 0, 58, 62
1, 560011, Note_off_c, 0, 62, 60
1, 560052, Note_off_c, 0, 98, 67
1, 560060, Note_on_c, 0, 94, 90
1, 560089, Note_on_c, 0, 101, 91
1, 560104, Note_on_c, 0, 58, 68
1, 560105, Note_off_c, 0, 94, 64
1, 560108, Note_on_c, 0, 53, 64
1, 560121, Note_on_c, 0, 62, 51
1, 560136, Note_on_c, 0, 98, 90
1, 560147, Note_off_c, 0, 53, 53
1, 560149, Note_off_c, 0, 58, 63
1, 560156, Note_off_c, 0, 62, 58
1, 560176, Note_off_c, 0, 101, 61
1, 560179, Note_on_c, 0, 94, 83
1, 560203, Note_off_c, 0, 98, 66
1, 560227, Note_on_c, 0, 89, 78
1, 560231, Note_off_c, 0, 94, 66
1, 560250, Note_off_c, 0, 89, 68
1, 560259, Note_on_c, 0, 58, 65
1, 560262, Note_on_c, 0, 53, 63
1, 560268, Note_on_c, 0, 62, 50
1, 560283, Note_off_c, 0, 58, 63
1, 560295, Note_off_c, 0, 53, 64
1, 560299, Note_off_c, 0, 62, 53
1, 560312, Note_on_c, 0, 86, 70
1, 560366, Note_off_c, 0, 86, 65
1, 560369, Note_on_c, 0, 82, 54
1, 560398, Note_on_c, 0, 77, 75
1, 560402, Note_off_c, 0, 82, 55
1, 560408, Note_on_c, 0, 62, 61
1, 560410, Note_on_c, 0, 58, 63
1, 560416, Note_on_c, 0, 53, 54
1, 560420, Note_off_c, 0, 77, 71
1, 560446, Note_off_c, 0, 58, 61
1, 560447, Note_off_c, 0, 62, 57
1, 560448, Note_off_c, 0, 53, 66
1, 560554, Note_on_c, 0, 53, 58
1, 560555, Note_on_c, 0, 58, 57
1, 560557, Note_on_c, 0, 62, 57
1, 560594, Note_off_c, 0, 58, 61
1, 560594, Note_off_c, 0, 62, 58
1, 560597, Note_off_c, 0, 53, 54
1, 560693, Note_on_c, 0, 62, 63
1, 560698, Note_on_c, 0, 58, 60
1, 560706, Note_on_c, 0, 53, 46
1, 560730, Note_off_c, 0, 58, 61
1, 560736, Note_off_c, 0, 53, 67
1, 560754, Note_off_c, 0, 62, 60
1, 560817, Control_c, 0, 64, 97
1, 560832, Control_c, 0, 64, 79
1, 560841, Note_on_c, 0, 63, 72
1, 560843, Note_on_c, 0, 84, 79
1, 560847, Control_c, 0, 64, 67
1, 560853, Note_on_c, 0, 57, 60
1, 560862, Control_c, 0, 64, 60
1, 560864, Note_on_c, 0, 53, 42
1, 560876, Control_c, 0, 64, 59
1, 560886, Note_on_c, 0, 86, 68
1, 560890, Note_off_c, 0, 57, 64
1, 560890, Note_off_c, 0, 84, 65
1, 560891, Note_off_c, 0, 53, 62
1, 560891, Control_c, 0, 64, 65
1, 560891, Control_c, 0, 67, 8
1, 560900, Note_off_c, 0, 63, 59
1, 560906, Control_c, 0, 64, 70
1, 560906, Control_c, 0, 67, 9
1, 560921, Control_c, 0, 64, 77
1, 560921, Control_c, 0, 67, 11
1, 560921, Note_off_c, 0, 86, 65
1, 560936, Control_c, 0, 64, 85
1, 560936, Control_c, 0, 67, 15
1, 560943, Note_on_c, 0, 84, 64
1, 560951, Control_c, 0, 64, 93
1, 560951, Control_c, 0, 67, 22
1, 560966, Control_c, 0, 64, 99
1, 560966, Control_c, 0, 67, 30
1, 560978, Note_on_c, 0, 63, 58
1, 560979, Note_on_c, 0, 53, 51
1, 560980, Control_c, 0, 64, 104
1, 560980, Control_c, 0, 67, 37
1, 560987, Note_on_c, 0, 86, 75
1, 560990, Note_off_c, 0, 84, 63
1, 560994, Note_on_c, 0, 57, 54
1, 560995, Control_c, 0, 64, 108
1, 560995, Control_c, 0, 67, 43
1, 561010, Control_c, 0, 64, 111
1, 561010, Control_c, 0, 67, 53
1, 561024, Control_c, 0, 64, 111
1, 561024, Control_c, 0, 67, 62
1, 561033, Note_off_c, 0, 63, 57
1, 561036, Note_off_c, 0, 57, 56
1, 561037, Note_off_c, 0, 86, 63
1, 561039, Control_c, 0, 67, 70
1, 561045, Note_on_c, 0, 84, 67
1, 561054, Control_c, 0, 67, 77
1, 561059, Note_off_c, 0, 53, 54
1, 561069, Control_c, 0, 64, 111
1, 561069, Control_c, 0, 67, 83
1, 561084, Control_c, 0, 64, 110
1, 561084, Control_c, 0, 67, 87
1, 561098, Control_c, 0, 64, 110
1, 561098, Control_c, 0, 67, 92
1, 561106, Note_off_c, 0, 84, 57
1, 561113, Control_c, 0, 64, 107
1, 561113, Control_c, 0, 67, 97
1, 561127, Note_on_c, 0, 82, 81
1, 561129, Control_c, 0, 64, 103
1, 561129, Control_c, 0, 67, 101
1, 561142, Note_on_c, 0, 63, 67
1, 561144, Control_c, 0, 64, 101
1, 561144, Control_c, 0, 67, 104
1, 561158, Note_on_c, 0, 57, 19
1, 561159, Control_c, 0, 64, 100
1, 561159, Control_c, 0, 67, 106
1, 561174, Control_c, 0, 64, 100
1, 561174, Control_c, 0, 67, 109
1, 561189, Control_c, 0, 64, 99
1, 561189, Control_c, 0, 67, 111
1, 561194, Note_off_c, 0, 57, 51
1, 561202, Note_off_c, 0, 63, 60
1, 561203, Control_c, 0, 64, 97
1, 561203, Control_c, 0, 67, 114
1, 561211, Note_on_c, 0, 84, 77
1, 561218, Control_c, 0, 64, 94
1, 561218, Control_c, 0, 67, 116
1, 561223, Note_off_c, 0, 82, 62
1, 561233, Control_c, 0, 64, 91
1, 561233, Control_c, 0, 67, 116
1, 561247, Control_c, 0, 64, 89
1, 561307, Control_c, 0, 64, 89
1, 561321, Control_c, 0, 64, 87
1, 561329, Note_off_c, 0, 84, 59
1, 561336, Control_c, 0, 64, 84
1, 561340, Note_on_c, 0, 86, 71
1, 561342, Note_on_c, 0, 62, 64
1, 561351, Control_c, 0, 64, 78
1, 561366, Control_c, 0, 64, 71
1, 561367, Note_on_c, 0, 58, 54
1, 561377, Note_on_c, 0, 77, 34
1, 561381, Control_c, 0, 64, 65
1, 561395, Control_c, 0, 64, 54
1, 561409, Note_off_c, 0, 77, 48
1, 561410, Control_c, 0, 64, 26
1, 561425, Control_c, 0, 64, 0
1, 561438, Note_on_c, 0, 79, 62
1, 561470, Control_c, 0, 67, 116
1, 561485, Control_c, 0, 64, 49
1, 561485, Control_c, 0, 67, 115
1, 561499, Note_off_c, 0, 79, 59
1, 561499, Control_c, 0, 64, 60
1, 561499, Control_c, 0, 67, 115
1, 561507, Note_on_c, 0, 77, 57
1, 561514, Control_c, 0, 64, 64
1, 561514, Control_c, 0, 67, 114
1, 561529, Control_c, 0, 64, 68
1, 561529, Control_c, 0, 67, 113
1, 561551, Control_c, 0, 64, 73
1, 561551, Control_c, 0, 67, 113
1, 561566, Control_c, 0, 64, 78
1, 561568, Note_off_c, 0, 77, 56
1, 561576, Note_off_c, 0, 62, 61
1, 561581, Control_c, 0, 64, 82
1, 561587, Note_on_c, 0, 79, 65
1, 561596, Control_c, 0, 64, 86
1, 561610, Control_c, 0, 64, 88
1, 561610, Control_c, 0, 67, 112
1, 561625, Control_c, 0, 64, 89
1, 561625, Control_c, 0, 67, 112
1, 561640, Control_c, 0, 64, 90
1, 561640, Control_c, 0, 67, 111
1, 561648, Note_off_c, 0, 79, 57
1, 561654, Control_c, 0, 64, 90
1, 561660, Note_on_c, 0, 67, 80
1, 561664, Note_on_c, 0, 77, 67
1, 561669, Control_c, 0, 64, 91
1, 561699, Control_c, 0, 64, 91
1, 561699, Control_c, 0, 67, 111
1, 561714, Control_c, 0, 67, 110
1, 561720, Note_off_c, 0, 77, 57
1, 561722, Note_off_c, 0, 67, 62
1, 561729, Control_c, 0, 64, 91
1, 561730, Note_on_c, 0, 79, 69
1, 561796, Note_off_c, 0, 79, 58
1, 561803, Control_c, 0, 64, 90
1, 561803, Control_c, 0, 67, 110
1, 561812, Note_on_c, 0, 82, 75
1, 561818, Note_on_c, 0, 65, 76
1, 561818, Control_c, 0, 64, 89
1, 561833, Control_c, 0, 64, 86
1, 561847, Control_c, 0, 64, 84
1, 561862, Control_c, 0, 64, 82
1, 561863, Note_off_c, 0, 86, 43
1, 561877, Control_c, 0, 64, 79
1, 561890, Note_on_c, 0, 79, 71
1, 561892, Control_c, 0, 64, 74
1, 561907, Control_c, 0, 64, 67
1, 561919, Poly_aftertouch_c, 0, 77, 0
1, 561923, Control_c, 0, 64, 59
1, 561938, Control_c, 0, 64, 54
1, 561951, Note_off_c, 0, 79, 59
1, 561967, Control_c, 0, 64, 59
1, 561972, Note_on_c, 0, 77, 58
1, 561982, Control_c, 0, 64, 62
1, 561997, Control_c, 0, 64, 64
1, 562012, Control_c, 0, 64, 65
1, 562012, Control_c, 0, 67, 109
1, 562017, Note_off_c, 0, 77, 59
1, 562027, Control_c, 0, 64, 67
1, 562027, Control_c, 0, 67, 109
1, 562039, Note_on_c, 0, 79, 69
1, 562042, Control_c, 0, 64, 70
1, 562057, Control_c, 0, 64, 75
1, 562057, Control_c, 0, 67, 108
1, 562071, Control_c, 0, 64, 80
1, 562071, Control_c, 0, 67, 107
1, 562086, Control_c, 0, 64, 85
1, 562086, Control_c, 0, 67, 107
1, 562096, Note_off_c, 0, 79, 60
1, 562101, Control_c, 0, 64, 89
1, 562112, Note_on_c, 0, 77, 77
1, 562116, Control_c, 0, 64, 92
1, 562116, Control_c, 0, 67, 106
1, 562118, Note_off_c, 0, 65, 54
1, 562127, Note_on_c, 0, 62, 71
1, 562131, Control_c, 0, 64, 95
1, 562131, Control_c, 0, 67, 106
1, 562145, Control_c, 0, 64, 97
1, 562145, Control_c, 0, 67, 105
1, 562160, Control_c, 0, 64, 98
1, 562160, Control_c, 0, 67, 105
1, 562164, Note_off_c, 0, 58, 56
1, 562182, Note_off_c, 0, 77, 58
1, 562184, Note_on_c, 0, 79, 81
1, 562202, Note_off_c, 0, 82, 34
1, 562219, Control_c, 0, 67, 104
1, 562234, Control_c, 0, 67, 104
1, 562257, Note_off_c, 0, 79, 62
1, 562262, Note_on_c, 0, 81, 74
1, 562263, Control_c, 0, 64, 97
1, 562268, Note_on_c, 0, 77, 62
1, 562278, Control_c, 0, 64, 94
1, 562278, Control_c, 0, 67, 103
1, 562279, Note_on_c, 0, 60, 80
1, 562283, Note_on_c, 0, 53, 66
1, 562301, Control_c, 0, 64, 88
1, 562316, Control_c, 0, 64, 81
1, 562316, Control_c, 0, 67, 102
1, 562331, Control_c, 0, 64, 73
1, 562331, Control_c, 0, 67, 101
1, 562332, Note_off_c, 0, 77, 59
1, 562345, Control_c, 0, 64, 65
1, 562345, Control_c, 0, 67, 99
1, 562352, Note_on_c, 0, 79, 79
1, 562360, Control_c, 0, 64, 55
1, 562360, Control_c, 0, 67, 97
1, 562371, Note_off_c, 0, 62, 56
1, 562375, Control_c, 0, 64, 49
1, 562375, Control_c, 0, 67, 95
1, 562390, Control_c, 0, 64, 52
1, 562390, Control_c, 0, 67, 94
1, 562398, Note_off_c, 0, 81, 61
1, 562404, Control_c, 0, 64, 62
1, 562404, Control_c, 0, 67, 92
1, 562419, Control_c, 0, 64, 66
1, 562419, Control_c, 0, 67, 91
1, 562421, Note_off_c, 0, 79, 60
1, 562424, Note_on_c, 0, 77, 80
1, 562434, Control_c, 0, 64, 68
1, 562434, Control_c, 0, 67, 87
1, 562449, Control_c, 0, 64, 72
1, 562449, Control_c, 0, 67, 84
1, 562464, Control_c, 0, 64, 75
1, 562464, Control_c, 0, 67, 80
1, 562478, Control_c, 0, 64, 78
1, 562478, Control_c, 0, 67, 75
1, 562490, Note_off_c, 0, 60, 64
1, 562492, Note_off_c, 0, 77, 61
1, 562493, Control_c, 0, 64, 82
1, 562493, Control_c, 0, 67, 68
1, 562504, Note_on_c, 0, 79, 83
1, 562508, Control_c, 0, 64, 84
1, 562508, Control_c, 0, 67, 60
1, 562523, Control_c, 0, 67, 54
1, 562538, Control_c, 0, 67, 48
1, 562552, Control_c, 0, 64, 84
1, 562552, Control_c, 0, 67, 44
1, 562567, Control_c, 0, 67, 41
1, 562570, Note_on_c, 0, 77, 75
1, 562570, Note_off_c, 0, 79, 62
1, 562580, Note_on_c, 0, 67, 79
1, 562582, Control_c, 0, 64, 85
1, 562582, Control_c, 0, 67, 40
1, 562596, Control_c, 0, 67, 40
1, 562626, Control_c, 0, 67, 39
1, 562641, Note_on_c, 0, 79, 80
1, 562641, Control_c, 0, 67, 39
1, 562652, Note_off_c, 0, 67, 62
1, 562656, Control_c, 0, 67, 38
1, 562671, Control_c, 0, 67, 37
1, 562686, Control_c, 0, 64, 85
1, 562686, Control_c, 0, 67, 36
1, 562701, Control_c, 0, 64, 84
1, 562701, Control_c, 0, 67, 30
1, 562716, Control_c, 0, 67, 24
1, 562719, Note_on_c, 0, 87, 90
1, 562729, Note_on_c, 0, 65, 75
1, 562731, Control_c, 0, 67, 17
1, 562740, Note_off_c, 0, 79, 60
1, 562746, Control_c, 0, 67, 11
1, 562761, Control_c, 0, 67, 0
1, 562790, Control_c, 0, 64, 84
1, 562802, Note_on_c, 0, 79, 75
1, 562808, Note_off_c, 0, 77, 20
1, 562853, Note_off_c, 0, 53, 63
1, 562861, Note_off_c, 0, 87, 61
1, 562877, Note_off_c, 0, 79, 60
1, 562889, Note_on_c, 0, 77, 80
1, 562899, Note_off_c, 0, 65, 51
1, 562947, Note_off_c, 0, 77, 62
1, 562951, Note_on_c, 0, 79, 81
1, 562968, Control_c, 0, 64, 83
1, 563019, Note_on_c, 0, 60, 64
1, 563022, Note_on_c, 0, 77, 78
1, 563023, Note_off_c, 0, 79, 63
1, 563027, Control_c, 0, 64, 83
1, 563050, Control_c, 0, 64, 82
1, 563064, Control_c, 0, 64, 81
1, 563089, Note_on_c, 0, 79, 84
1, 563109, Control_c, 0, 64, 81
1, 563124, Note_off_c, 0, 77, 56
1, 563124, Control_c, 0, 64, 80
1, 563139, Control_c, 0, 64, 80
1, 563154, Control_c, 0, 64, 79
1, 563163, Note_off_c, 0, 60, 62
1, 563169, Control_c, 0, 64, 78
1, 563169, Note_on_c, 0, 86, 77
1, 563172, Note_off_c, 0, 79, 60
1, 563183, Control_c, 0, 64, 77
1, 563187, Note_on_c, 0, 62, 71
1, 563195, Note_on_c, 0, 58, 71
1, 563198, Control_c, 0, 64, 75
1, 563213, Control_c, 0, 64, 71
1, 563225, Poly_aftertouch_c, 0, 77, 127
1, 563227, Control_c, 0, 64, 64
1, 563242, Control_c, 0, 64, 52
1, 563257, Control_c, 0, 64, 47
1, 563263, Note_on_c, 0, 79, 67
1, 563264, Poly_aftertouch_c, 0, 77, 0
1, 563272, Control_c, 0, 64, 48
1, 563287, Control_c, 0, 64, 53
1, 563301, Control_c, 0, 64, 61
1, 563315, Note_off_c, 0, 79, 57
1, 563316, Control_c, 0, 64, 65
1, 563331, Control_c, 0, 64, 70
1, 563338, Note_on_c, 0, 77, 65
1, 563346, Control_c, 0, 64, 74
1, 563361, Control_c, 0, 64, 80
1, 563361, Control_c, 0, 67, 10
1, 563369, Note_off_c, 0, 62, 62
1, 563375, Control_c, 0, 64, 84
1, 563375, Control_c, 0, 67, 12
1, 563382, Note_off_c, 0, 77, 57
1, 563390, Control_c, 0, 64, 86
1, 563390, Control_c, 0, 67, 13
1, 563401, Note_on_c, 0, 79, 69
1, 563405, Control_c, 0, 67, 14
1, 563434, Control_c, 0, 67, 15
1, 563449, Control_c, 0, 67, 15
1, 563455, Note_off_c, 0, 79, 56
1, 563464, Control_c, 0, 64, 86
1, 563464, Control_c, 0, 67, 16
1, 563466, Note_on_c, 0, 67, 85
1, 563470, Note_on_c, 0, 77, 65
1, 563479, Control_c, 0, 64, 87
1, 563479, Control_c, 0, 67, 16
1, 563494, Control_c, 0, 64, 87
1, 563509, Control_c, 0, 67, 17
1, 563524, Control_c, 0, 67, 17
1, 563534, Note_off_c, 0, 77, 51
1, 563539, Control_c, 0, 67, 18
1, 563551, Note_on_c, 0, 79, 70
1, 563554, Control_c, 0, 64, 87
1, 563565, Note_off_c, 0, 67, 62
1, 563569, Control_c, 0, 67, 18
1, 563584, Control_c, 0, 67, 19
1, 563598, Control_c, 0, 64, 86
1, 563598, Control_c, 0, 67, 20
1, 563613, Control_c, 0, 64, 85
1, 563613, Control_c, 0, 67, 21
1, 563628, Note_off_c, 0, 79, 58
1, 563628, Control_c, 0, 64, 83
1, 563628, Control_c, 0, 67, 21
1, 563643, Control_c, 0, 64, 82
1, 563643, Control_c, 0, 67, 22
1, 563647, Note_on_c, 0, 82, 66
1, 563649, Note_on_c, 0, 65, 74
1, 563658, Control_c, 0, 64, 80
1, 563658, Control_c, 0, 67, 23
1, 563673, Control_c, 0, 64, 76
1, 563673, Control_c, 0, 67, 25
1, 563687, Control_c, 0, 64, 71
1, 563687, Control_c, 0, 67, 27
1, 563702, Control_c, 0, 64, 65
1, 563702, Control_c, 0, 67, 30
1, 563717, Control_c, 0, 64, 58
1, 563717, Control_c, 0, 67, 33
1, 563723, Note_off_c, 0, 86, 32
1, 563732, Control_c, 0, 64, 52
1, 563732, Control_c, 0, 67, 37
1, 563741, Note_on_c, 0, 79, 58
1, 563747, Control_c, 0, 64, 52
1, 563747, Control_c, 0, 67, 42
1, 563762, Control_c, 0, 64, 53
1, 563762, Control_c, 0, 67, 49
1, 563777, Control_c, 0, 64, 56
1, 563777, Control_c, 0, 67, 55
1, 563780, Note_off_c, 0, 79, 59
1, 563798, Control_c, 0, 64, 61
1, 563798, Control_c, 0, 67, 61
1, 563813, Control_c, 0, 64, 65
1, 563813, Control_c, 0, 67, 68
1, 563828, Control_c, 0, 64, 69
1, 563828, Control_c, 0, 67, 76
1, 563831, Note_on_c, 0, 77, 51
1, 563842, Control_c, 0, 64, 72
1, 563842, Control_c, 0, 67, 83
1, 563857, Control_c, 0, 64, 76
1, 563857, Control_c, 0, 67, 90
1, 563872, Note_off_c, 0, 77, 61
1, 563872, Control_c, 0, 64, 81
1, 563872, Control_c, 0, 67, 96
1, 563887, Control_c, 0, 64, 89
1, 563887, Control_c, 0, 67, 100
1, 563888, Note_on_c, 0, 79, 64
1, 563902, Control_c, 0, 64, 95
1, 563902, Control_c, 0, 67, 106
1, 563917, Control_c, 0, 64, 96
1, 563917, Control_c, 0, 67, 111
1, 563923, Note_off_c, 0, 79, 58
1, 563924, Note_off_c, 0, 65, 50
1, 563932, Control_c, 0, 67, 116
1, 563944, Note_on_c, 0, 62, 57
1, 563947, Control_c, 0, 67, 120
1, 563956, Note_off_c, 0, 58, 58
1, 563962, Control_c, 0, 67, 121
1, 563964, Note_on_c, 0, 77, 60
1, 563976, Control_c, 0, 67, 122
1, 563991, Control_c, 0, 67, 123
1, 564006, Control_c, 0, 67, 124
1, 564006, Note_off_c, 0, 77, 58
1, 564021, Control_c, 0, 67, 124
1, 564033, Note_on_c, 0, 79, 63
1, 564033, Note_off_c, 0, 82, 41
1, 564087, Note_on_c, 0, 53, 59
1, 564088, Note_off_c, 0, 62, 57
1, 564095, Control_c, 0, 64, 95
1, 564099, Note_off_c, 0, 79, 58
1, 564106, Note_on_c, 0, 60, 55
1, 564110, Note_on_c, 0, 81, 67
1, 564110, Control_c, 0, 64, 89
1, 564124, Control_c, 0, 64, 82
1, 564139, Control_c, 0, 64, 73
1, 564154, Control_c, 0, 64, 64
1, 564168, Control_c, 0, 64, 53
1, 564183, Control_c, 0, 64, 52
1, 564198, Control_c, 0, 64, 57
1, 564200, Note_on_c, 0, 79, 55
1, 564201, Note_off_c, 0, 81, 52
1, 564213, Control_c, 0, 64, 64
1, 564228, Control_c, 0, 64, 66
1, 564228, Control_c, 0, 67, 124
1, 564236, Note_off_c, 0, 79, 59
1, 564242, Control_c, 0, 64, 68
1, 564242, Control_c, 0, 67, 123
1, 564243, Note_off_c, 0, 60, 61
1, 564257, Control_c, 0, 64, 71
1, 564269, Note_on_c, 0, 77, 56
1, 564272, Control_c, 0, 64, 75
1, 564287, Control_c, 0, 64, 80
1, 564287, Control_c, 0, 67, 123
1, 564301, Note_off_c, 0, 77, 65
1, 564302, Control_c, 0, 64, 85
1, 564318, Control_c, 0, 64, 88
1, 564318, Control_c, 0, 67, 122
1, 564329, Note_on_c, 0, 79, 66
1, 564333, Control_c, 0, 64, 91
1, 564333, Control_c, 0, 67, 122
1, 564347, Control_c, 0, 64, 91
1, 564363, Note_off_c, 0, 79, 60
1, 564400, Note_on_c, 0, 67, 62
1, 564403, Note_on_c, 0, 77, 62
1, 564431, Note_off_c, 0, 67, 64
1, 564470, Note_on_c, 0, 79, 67
1, 564487, Note_off_c, 0, 77, 38
1, 564495, Control_c, 0, 64, 89
1, 564510, Control_c, 0, 64, 84
1, 564525, Control_c, 0, 64, 76
1, 564531, Note_off_c, 0, 79, 59
1, 564547, Control_c, 0, 64, 68
1, 564550, Note_on_c, 0, 87, 76
1, 564562, Control_c, 0, 64, 63
1, 564564, Note_on_c, 0, 65, 56
1, 564592, Control_c, 0, 64, 66
1, 564606, Control_c, 0, 64, 70
1, 564621, Control_c, 0, 64, 74
1, 564631, Note_off_c, 0, 87, 64
1, 564633, Note_on_c, 0, 79, 59
1, 564636, Control_c, 0, 64, 79
1, 564651, Control_c, 0, 64, 82
1, 564665, Control_c, 0, 64, 84
1, 564678, Note_off_c, 0, 79, 57
1, 564680, Control_c, 0, 64, 86
1, 564696, Control_c, 0, 64, 87
1, 564711, Note_on_c, 0, 77, 66
1, 564711, Control_c, 0, 64, 89
1, 564726, Control_c, 0, 64, 90
1, 564743, Note_off_c, 0, 65, 27
1, 564750, Note_off_c, 0, 77, 57
1, 564752, Note_off_c, 0, 53, 43
1, 564786, Note_on_c, 0, 79, 64
1, 564789, Note_on_c, 0, 60, 54
1, 564812, Note_off_c, 0, 60, 62
1, 564814, Note_off_c, 0, 79, 66
1, 564814, Control_c, 0, 67, 121
1, 564829, Control_c, 0, 67, 121
1, 564844, Control_c, 0, 67, 120
1, 564853, Note_on_c, 0, 77, 57
1, 564859, Control_c, 0, 64, 91
1, 564874, Control_c, 0, 64, 92
1, 564888, Note_on_c, 0, 79, 74
1, 564889, Control_c, 0, 64, 94
1, 564894, Note_off_c, 0, 77, 48
1, 564904, Control_c, 0, 64, 93
1, 564909, Note_off_c, 0, 79, 69
1, 564919, Control_c, 0, 64, 86
1, 564933, Control_c, 0, 64, 75
1, 564948, Control_c, 0, 64, 63
1, 564953, Note_on_c, 0, 62, 49
1, 564957, Note_on_c, 0, 65, 51
1, 564963, Control_c, 0, 64, 21
1, 564978, Control_c, 0, 64, 17
1, 564987, Note_off_c, 0, 62, 61
1, 564991, Note_off_c, 0, 65, 63
1, 564992, Control_c, 0, 64, 47
1, 564992, Control_c, 0, 67, 121
1, 565007, Control_c, 0, 64, 54
1, 565026, Note_on_c, 0, 67, 73
1, 565037, Control_c, 0, 64, 55
1, 565052, Control_c, 0, 64, 56
1, 565062, Note_off_c, 0, 67, 61
1, 565066, Control_c, 0, 64, 58
1, 565081, Control_c, 0, 64, 59
1, 565088, Note_on_c, 0, 82, 78
1, 565096, Note_on_c, 0, 69, 70
1, 565097, Note_on_c, 0, 86, 65
1, 565110, Note_off_c, 0, 82, 70
1, 565111, Control_c, 0, 64, 58
1, 565118, Note_off_c, 0, 86, 68
1, 565123, Note_off_c, 0, 69, 66
1, 565142, Control_c, 0, 64, 59
1, 565157, Control_c, 0, 64, 59
1, 565164, Note_on_c, 0, 70, 68
1, 565186, Control_c, 0, 64, 59
1, 565205, Note_off_c, 0, 70, 65
1, 565215, Note_on_c, 0, 72, 73
1, 565229, Note_on_c, 0, 86, 63
1, 565234, Note_on_c, 0, 82, 69
1, 565246, Note_off_c, 0, 72, 62
1, 565256, Note_off_c, 0, 82, 69
1, 565264, Note_off_c, 0, 86, 66
1, 565273, Note_on_c, 0, 74, 67
1, 565297, Control_c, 0, 64, 58
1, 565306, Note_off_c, 0, 74, 69
1, 565333, Note_on_c, 0, 75, 70
1, 565376, Note_off_c, 0, 75, 63
1, 565377, Note_on_c, 0, 86, 76
1, 565378, Note_on_c, 0, 82, 69
1, 565383, Note_on_c, 0, 77, 77
1, 565386, Control_c, 0, 64, 59
1, 565397, Note_off_c, 0, 82, 68
1, 565401, Control_c, 0, 64, 59
1, 565401, Control_c, 0, 67, 120
1, 565405, Note_off_c, 0, 86, 64
1, 565445, Control_c, 0, 67, 120
1, 565446, Note_off_c, 0, 77, 62
1, 565455, Note_on_c, 0, 75, 71
1, 565460, Control_c, 0, 67, 119
1, 565475, Control_c, 0, 67, 119
1, 565484, Note_off_c, 0, 75, 64
1, 565490, Control_c, 0, 67, 118
1, 565509, Note_on_c, 0, 82, 71
1, 565517, Note_on_c, 0, 86, 70
1, 565519, Control_c, 0, 67, 118
1, 565524, Note_on_c, 0, 74, 76
1, 565534, Control_c, 0, 67, 117
1, 565540, Note_off_c, 0, 82, 64
1, 565544, Note_off_c, 0, 86, 68
1, 565565, Note_off_c, 0, 74, 59
1, 565600, Note_on_c, 0, 72, 70
1, 565608, Control_c, 0, 67, 117
1, 565637, Control_c, 0, 67, 116
1, 565647, Note_on_c, 0, 86, 78
1, 565649, Note_on_c, 0, 82, 68
1, 565664, Note_on_c, 0, 70, 70
1, 565666, Note_off_c, 0, 72, 59
1, 565667, Note_off_c, 0, 82, 68
1, 565667, Control_c, 0, 64, 60
1, 565677, Note_off_c, 0, 86, 65
1, 565682, Control_c, 0, 64, 59
1, 565691, Note_off_c, 0, 70, 67
1, 565697, Control_c, 0, 64, 59
1, 565711, Control_c, 0, 64, 56
1, 565726, Control_c, 0, 64, 55
1, 565726, Control_c, 0, 67, 116
1, 565741, Note_on_c, 0, 69, 68
1, 565756, Control_c, 0, 64, 55
1, 565773, Note_off_c, 0, 69, 64
1, 565808, Note_on_c, 0, 67, 65
1, 565813, Note_on_c, 0, 63, 66
1, 565815, Control_c, 0, 64, 56
1, 565830, Control_c, 0, 64, 58
1, 565838, Note_off_c, 0, 67, 63
1, 565843, Note_off_c, 0, 63, 65
1, 565845, Control_c, 0, 64, 59
1, 565869, Note_on_c, 0, 69, 77
1, 565904, Control_c, 0, 64, 59
1, 565904, Control_c, 0, 67, 116
1, 565919, Note_off_c, 0, 69, 63
1, 565920, Control_c, 0, 64, 60
1, 565925, Note_on_c, 0, 82, 78
1, 565929, Note_on_c, 0, 84, 66
1, 565948, Note_on_c, 0, 70, 71
1, 565948, Note_off_c, 0, 82, 66
1, 565955, Note_off_c, 0, 84, 69
1, 565994, Control_c, 0, 64, 60
1, 565994, Control_c, 0, 67, 117
1, 565995, Note_off_c, 0, 70, 63
1, 566009, Control_c, 0, 64, 61
1, 566024, Note_on_c, 0, 74, 63
1, 566024, Control_c, 0, 64, 62
1, 566024, Note_on_c, 0, 72, 63
1, 566045, Control_c, 0, 64, 63
1, 566058, Note_off_c, 0, 72, 67
1, 566060, Control_c, 0, 64, 63
1, 566075, Control_c, 0, 64, 64
1, 566079, Note_on_c, 0, 82, 79
1, 566079, Note_on_c, 0, 84, 72
1, 566108, Note_off_c, 0, 74, 64
1, 566110, Note_off_c, 0, 82, 63
1, 566112, Note_off_c, 0, 84, 66
1, 566145, Note_on_c, 0, 75, 61
1, 566150, Control_c, 0, 67, 116
1, 566174, Note_off_c, 0, 75, 68
1, 566179, Control_c, 0, 67, 115
1, 566184, Note_on_c, 0, 77, 59
1, 566193, Control_c, 0, 64, 65
1, 566208, Control_c, 0, 64, 65
1, 566208, Control_c, 0, 67, 115
1, 566212, Note_on_c, 0, 82, 82
1, 566212, Note_off_c, 0, 77, 67
1, 566218, Note_on_c, 0, 79, 79
1, 566219, Note_on_c, 0, 84, 72
1, 566223, Control_c, 0, 64, 66
1, 566238, Control_c, 0, 64, 68
1, 566238, Control_c, 0, 67, 114
1, 566245, Note_off_c, 0, 84, 64
1, 566252, Control_c, 0, 64, 70
1, 566252, Control_c, 0, 67, 113
1, 566260, Note_off_c, 0, 82, 62
1, 566267, Control_c, 0, 64, 72
1, 566267, Control_c, 0, 67, 113
1, 566282, Control_c, 0, 64, 74
1, 566282, Control_c, 0, 67, 112
1, 566289, Note_off_c, 0, 79, 61
1, 566293, Note_on_c, 0, 77, 76
1, 566297, Control_c, 0, 64, 76
1, 566297, Control_c, 0, 67, 111
1, 566312, Control_c, 0, 64, 77
1, 566312, Control_c, 0, 67, 109
1, 566326, Control_c, 0, 64, 79
1, 566326, Control_c, 0, 67, 107
1, 566341, Control_c, 0, 64, 81
1, 566341, Control_c, 0, 67, 105
1, 566343, Note_on_c, 0, 75, 70
1, 566351, Note_on_c, 0, 82, 84
1, 566352, Note_on_c, 0, 84, 71
1, 566356, Control_c, 0, 64, 84
1, 566356, Control_c, 0, 67, 102
1, 566369, Note_off_c, 0, 77, 54
1, 566371, Control_c, 0, 64, 88
1, 566371, Control_c, 0, 67, 97
1, 566386, Control_c, 0, 64, 92
1, 566386, Control_c, 0, 67, 93
1, 566389, Note_off_c, 0, 84, 61
1, 566400, Control_c, 0, 64, 93
1, 566400, Control_c, 0, 67, 91
1, 566404, Note_off_c, 0, 82, 64
1, 566411, Note_off_c, 0, 75, 65
1, 566412, Note_on_c, 0, 74, 73
1, 566415, Control_c, 0, 64, 93
1, 566415, Control_c, 0, 67, 91
1, 566430, Control_c, 0, 67, 90
1, 566436, Note_off_c, 0, 74, 71
1, 566445, Control_c, 0, 67, 91
1, 566460, Control_c, 0, 67, 91
1, 566472, Note_on_c, 0, 72, 82
1, 566475, Control_c, 0, 67, 92
1, 566485, Note_on_c, 0, 82, 77
1, 566489, Control_c, 0, 67, 93
1, 566495, Note_on_c, 0, 84, 64
1, 566504, Control_c, 0, 67, 93
1, 566519, Control_c, 0, 67, 94
1, 566526, Note_off_c, 0, 72, 61
1, 566528, Note_off_c, 0, 84, 61
1, 566534, Control_c, 0, 67, 94
1, 566535, Note_on_c, 0, 70, 73
1, 566553, Note_off_c, 0, 82, 60
1, 566558, Note_off_c, 0, 70, 69
1, 566563, Control_c, 0, 67, 94
1, 566566, Note_on_c, 0, 69, 59
1, 566573, Note_on_c, 0, 67, 58
1, 566593, Control_c, 0, 64, 91
1, 566603, Note_off_c, 0, 69, 66
1, 566608, Control_c, 0, 64, 80
1, 566619, Note_off_c, 0, 67, 61
1, 566623, Control_c, 0, 64, 65
1, 566637, Control_c, 0, 64, 0
1, 566650, Note_on_c, 0, 65, 67
1, 566682, Control_c, 0, 64, 57
1, 566682, Control_c, 0, 67, 93
1, 566697, Control_c, 0, 64, 66
1, 566697, Control_c, 0, 67, 92
1, 566710, Note_off_c, 0, 65, 63
1, 566713, Control_c, 0, 64, 72
1, 566728, Control_c, 0, 64, 79
1, 566728, Control_c, 0, 67, 92
1, 566733, Note_on_c, 0, 53, 83
1, 566742, Control_c, 0, 64, 86
1, 566757, Control_c, 0, 64, 89
1, 566757, Control_c, 0, 67, 91
1, 566772, Control_c, 0, 64, 90
1, 566772, Control_c, 0, 67, 90
1, 566794, Control_c, 0, 67, 90
1, 566809, Control_c, 0, 67, 89
1, 566818, Note_on_c, 0, 82, 78
1, 566820, Note_on_c, 0, 86, 77
1, 566820, Note_off_c, 0, 53, 64
1, 566823, Control_c, 0, 64, 92
1, 566823, Control_c, 0, 67, 89
1, 566826, Note_on_c, 0, 58, 75
1, 566838, Control_c, 0, 64, 95
1, 566838, Control_c, 0, 67, 87
1, 566853, Control_c, 0, 64, 97
1, 566853, Control_c, 0, 67, 84
1, 566855, Note_off_c, 0, 82, 61
1, 566864, Note_off_c, 0, 86, 62
1, 566868, Control_c, 0, 64, 97
1, 566868, Control_c, 0, 67, 81
1, 566878, Note_off_c, 0, 58, 63
1, 566883, Control_c, 0, 67, 75
1, 566898, Control_c, 0, 67, 66
1, 566910, Note_on_c, 0, 62, 67
1, 566913, Control_c, 0, 64, 98
1, 566913, Control_c, 0, 67, 56
1, 566928, Control_c, 0, 67, 46
1, 566935, Note_off_c, 0, 62, 65
1, 566942, Control_c, 0, 67, 38
1, 566950, Note_on_c, 0, 65, 75
1, 566957, Control_c, 0, 67, 31
1, 566967, Note_on_c, 0, 86, 85
1, 566968, Note_on_c, 0, 82, 83
1, 566972, Control_c, 0, 67, 25
1, 566974, Note_off_c, 0, 65, 69
1, 566987, Control_c, 0, 67, 17
1, 567001, Control_c, 0, 64, 98
1, 567001, Control_c, 0, 67, 0
1, 567006, Note_off_c, 0, 82, 62
1, 567011, Note_off_c, 0, 86, 67
1, 567031, Control_c, 0, 64, 99
1, 567035, Note_on_c, 0, 70, 75
1, 567046, Control_c, 0, 64, 100
1, 567061, Control_c, 0, 64, 101
1, 567075, Control_c, 0, 64, 104
1, 567090, Control_c, 0, 64, 108
1, 567101, Note_off_c, 0, 70, 62
1, 567105, Control_c, 0, 64, 112
1, 567113, Note_on_c, 0, 82, 90
1, 567114, Note_on_c, 0, 74, 81
1, 567115, Note_on_c, 0, 86, 84
1, 567120, Control_c, 0, 64, 119
1, 567135, Control_c, 0, 64, 127
1, 567152, Note_off_c, 0, 82, 63
1, 567156, Note_off_c, 0, 86, 66
1, 567172, Note_off_c, 0, 74, 64
1, 567200, Note_on_c, 0, 70, 79
1, 567253, Note_off_c, 0, 70, 63
1, 567262, Note_on_c, 0, 82, 93
1, 567262, Note_on_c, 0, 77, 82
1, 567262, Note_on_c, 0, 86, 87
1, 567303, Note_off_c, 0, 82, 66
1, 567307, Note_off_c, 0, 86, 67
1, 567317, Note_off_c, 0, 77, 66
1, 567327, Note_on_c, 0, 74, 80
1, 567387, Note_on_c, 0, 70, 82
1, 567409, Note_on_c, 0, 86, 91
1, 567410, Note_on_c, 0, 82, 93
1, 567417, Note_on_c, 0, 65, 83
1, 567428, Note_off_c, 0, 74, 60
1, 567460, Note_off_c, 0, 70, 63
1, 567464, Note_off_c, 0, 82, 65
1, 567472, Note_off_c, 0, 86, 65
1, 567483, Note_off_c, 0, 65, 65
1, 567492, Poly_aftertouch_c, 0, 68, 127
1, 567519, Poly_aftertouch_c, 0, 68, 0
1, 567558, Control_c, 0, 64, 106
1, 567561, Note_on_c, 0, 65, 88
1, 567564, Note_on_c, 0, 72, 81
1, 567569, Note_on_c, 0, 81, 95
1, 567570, Note_on_c, 0, 89, 95
1, 567573, Control_c, 0, 64, 81
1, 567580, Note_on_c, 0, 87, 86
1, 567588, Control_c, 0, 64, 63
1, 567603, Control_c, 0, 64, 0
1, 567620, Note_off_c, 0, 81, 65
1, 567630, Note_off_c, 0, 72, 63
1, 567632, Control_c, 0, 64, 56
1, 567641, Note_off_c, 0, 89, 62
1, 567647, Control_c, 0, 64, 68
1, 567649, Note_on_c, 0, 74, 82
1, 567652, Note_off_c, 0, 87, 65
1, 567662, Control_c, 0, 64, 79
1, 567677, Control_c, 0, 64, 93
1, 567688, Note_off_c, 0, 74, 63
1, 567692, Control_c, 0, 64, 110
1, 567707, Control_c, 0, 64, 127
1, 567718, Note_on_c, 0, 72, 73
1, 567737, Note_on_c, 0, 81, 79
1, 567737, Note_on_c, 0, 89, 94
1, 567747, Note_on_c, 0, 87, 88
1, 567750, Note_off_c, 0, 72, 63
1, 567770, Note_on_c, 0, 74, 91
1, 567783, Note_off_c, 0, 81, 65
1, 567790, Note_off_c, 0, 89, 62
1, 567792, Note_off_c, 0, 87, 61
1, 567810, Note_off_c, 0, 74, 64
1, 567837, Note_on_c, 0, 72, 61
1, 567858, Note_off_c, 0, 72, 62
1, 567872, Note_on_c, 0, 74, 88
1, 567879, Note_on_c, 0, 89, 90
1, 567882, Note_on_c, 0, 81, 80
1, 567889, Note_on_c, 0, 87, 88
1, 567911, Note_off_c, 0, 74, 63
1, 567914, Note_off_c, 0, 81, 61
1, 567917, Note_off_c, 0, 87, 60
1, 567929, Note_off_c, 0, 89, 63
1, 567930, Note_on_c, 0, 72, 67
1, 567956, Note_off_c, 0, 72, 67
1, 567969, Note_on_c, 0, 74, 85
1, 568011, Note_off_c, 0, 74, 63
1, 568028, Note_on_c, 0, 89, 96
1, 568028, Note_on_c, 0, 72, 62
1, 568031, Note_on_c, 0, 81, 83
1, 568031, Note_on_c, 0, 87, 88
1, 568056, Note_off_c, 0, 72, 65
1, 568059, Note_off_c, 0, 81, 62
1, 568063, Note_on_c, 0, 74, 77
1, 568077, Note_off_c, 0, 87, 64
1, 568078, Note_off_c, 0, 89, 61
1, 568107, Note_off_c, 0, 74, 65
1, 568131, Note_on_c, 0, 72, 65
1, 568162, Note_off_c, 0, 72, 66
1, 568170, Note_on_c, 0, 74, 83
1, 568185, Note_on_c, 0, 89, 90
1, 568189, Note_on_c, 0, 81, 80
1, 568191, Note_on_c, 0, 87, 81
1, 568215, Note_off_c, 0, 74, 64
1, 568216, Note_off_c, 0, 81, 62
1, 568221, Note_off_c, 0, 87, 58
1, 568230, Note_on_c, 0, 72, 59
1, 568230, Note_off_c, 0, 89, 63
1, 568272, Note_off_c, 0, 72, 62
1, 568308, Note_on_c, 0, 74, 54
1, 568335, Note_off_c, 0, 74, 58
1, 568355, Note_on_c, 0, 72, 59
1, 568376, Note_on_c, 0, 89, 74
1, 568379, Note_on_c, 0, 81, 71
1, 568382, Note_on_c, 0, 87, 72
1, 568397, Control_c, 0, 67, 10
1, 568401, Note_off_c, 0, 81, 69
1, 568405, Note_off_c, 0, 89, 63
1, 568411, Note_on_c, 0, 74, 70
1, 568412, Control_c, 0, 67, 14
1, 568412, Note_off_c, 0, 72, 58
1, 568412, Note_off_c, 0, 87, 64
1, 568427, Control_c, 0, 67, 19
1, 568441, Control_c, 0, 67, 22
1, 568449, Note_off_c, 0, 65, 45
1, 568451, Note_off_c, 0, 74, 56
1, 568456, Control_c, 0, 67, 27
1, 568471, Control_c, 0, 67, 33
1, 568486, Control_c, 0, 67, 42
1, 568501, Control_c, 0, 67, 54
1, 568515, Control_c, 0, 64, 113
1, 568515, Control_c, 0, 67, 63
1, 568530, Control_c, 0, 64, 106
1, 568530, Control_c, 0, 67, 72
1, 568545, Control_c, 0, 64, 98
1, 568545, Control_c, 0, 67, 80
1, 568560, Control_c, 0, 64, 91
1, 568560, Control_c, 0, 67, 87
1, 568575, Control_c, 0, 64, 82
1, 568575, Control_c, 0, 67, 94
1, 568589, Control_c, 0, 64, 76
1, 568589, Control_c, 0, 67, 102
1, 568604, Control_c, 0, 64, 68
1, 568604, Control_c, 0, 67, 108
1, 568619, Control_c, 0, 64, 62
1, 568619, Control_c, 0, 67, 114
1, 568633, Control_c, 0, 64, 47
1, 568633, Control_c, 0, 67, 120
1, 568648, Control_c, 0, 64, 11
1, 568648, Control_c, 0, 67, 124
1, 568663, Control_c, 0, 64, 0
1, 568663, Control_c, 0, 67, 127
1, 568680, Note_on_c, 0, 65, 50
1, 568752, Control_c, 0, 64, 38
1, 568767, Control_c, 0, 64, 61
1, 568782, Control_c, 0, 64, 67
1, 568797, Control_c, 0, 64, 73
1, 568805, Note_on_c, 0, 71, 45
1, 568812, Control_c, 0, 64, 80
1, 568827, Control_c, 0, 64, 88
1, 568831, Note_off_c, 0, 65, 37
1, 568841, Control_c, 0, 64, 91
1, 568849, Note_off_c, 0, 71, 62
1, 568856, Control_c, 0, 64, 92
1, 568865, Note_on_c, 0, 72, 54
1, 568871, Control_c, 0, 64, 93
1, 568901, Note_off_c, 0, 72, 65
1, 568901, Control_c, 0, 64, 92
1, 568943, Note_on_c, 0, 74, 59
1, 568974, Control_c, 0, 64, 92
1, 568975, Note_off_c, 0, 74, 65
1, 568989, Control_c, 0, 64, 90
1, 569000, Note_on_c, 0, 92, 80
1, 569004, Control_c, 0, 64, 87
1, 569009, Note_on_c, 0, 80, 70
1, 569016, Note_on_c, 0, 72, 38
1, 569019, Control_c, 0, 64, 85
1, 569041, Control_c, 0, 64, 82
1, 569056, Control_c, 0, 64, 76
1, 569065, Note_off_c, 0, 72, 64
1, 569071, Control_c, 0, 64, 69
1, 569086, Control_c, 0, 64, 60
1, 569090, Note_on_c, 0, 71, 47
1, 569101, Control_c, 0, 64, 33
1, 569116, Control_c, 0, 64, 11
1, 569124, Note_off_c, 0, 71, 66
1, 569145, Control_c, 0, 64, 19
1, 569160, Control_c, 0, 64, 50
1, 569175, Control_c, 0, 64, 62
1, 569184, Note_on_c, 0, 63, 61
1, 569190, Control_c, 0, 64, 66
1, 569205, Control_c, 0, 64, 70
1, 569220, Control_c, 0, 64, 76
1, 569235, Control_c, 0, 64, 83
1, 569250, Control_c, 0, 64, 92
1, 569251, Note_off_c, 0, 63, 62
1, 569259, Note_on_c, 0, 72, 54
1, 569264, Control_c, 0, 64, 98
1, 569279, Control_c, 0, 64, 100
1, 569306, Note_off_c, 0, 72, 58
1, 569336, Note_off_c, 0, 80, 53
1, 569338, Note_on_c, 0, 74, 48
1, 569367, Note_off_c, 0, 74, 60
1, 569408, Note_on_c, 0, 75, 52
1, 569412, Control_c, 0, 64, 99
1, 569427, Control_c, 0, 64, 98
1, 569442, Control_c, 0, 64, 96
1, 569444, Note_off_c, 0, 75, 53
1, 569456, Control_c, 0, 64, 96
1, 569466, Note_on_c, 0, 74, 49
1, 569486, Control_c, 0, 64, 95
1, 569488, Note_on_c, 0, 91, 71
1, 569498, Note_on_c, 0, 79, 63
1, 569501, Control_c, 0, 64, 93
1, 569516, Control_c, 0, 64, 92
1, 569530, Control_c, 0, 64, 91
1, 569533, Note_off_c, 0, 79, 61
1, 569540, Note_off_c, 0, 92, 64
1, 569542, Note_off_c, 0, 91, 65
1, 569545, Control_c, 0, 64, 89
1, 569548, Note_off_c, 0, 74, 62
1, 569559, Note_on_c, 0, 72, 56
1, 569560, Control_c, 0, 64, 87
1, 569575, Control_c, 0, 64, 85
1, 569589, Note_off_c, 0, 72, 67
1, 569590, Control_c, 0, 64, 83
1, 569605, Control_c, 0, 64, 79
1, 569619, Control_c, 0, 64, 71
1, 569634, Control_c, 0, 64, 63
1, 569649, Control_c, 0, 64, 40
1, 569661, Note_on_c, 0, 63, 66
1, 569664, Control_c, 0, 64, 32
1, 569679, Control_c, 0, 64, 44
1, 569694, Control_c, 0, 64, 58
1, 569709, Control_c, 0, 64, 65
1, 569724, Control_c, 0, 64, 70
1, 569736, Note_on_c, 0, 69, 59
1, 569738, Control_c, 0, 64, 75
1, 569753, Control_c, 0, 64, 82
1, 569768, Control_c, 0, 64, 89
1, 569789, Control_c, 0, 64, 95
1, 569804, Control_c, 0, 64, 97
1, 569813, Note_on_c, 0, 70, 68
1, 569819, Control_c, 0, 64, 98
1, 569827, Note_off_c, 0, 69, 54
1, 569834, Control_c, 0, 64, 99
1, 569849, Control_c, 0, 64, 99
1, 569864, Control_c, 0, 64, 100
1, 569868, Note_off_c, 0, 70, 61
1, 569879, Control_c, 0, 64, 100
1, 569885, Note_on_c, 0, 72, 69
1, 569944, Note_on_c, 0, 90, 88
1, 569947, Note_off_c, 0, 63, 38
1, 569953, Control_c, 0, 64, 100
1, 569954, Note_on_c, 0, 78, 78
1, 569956, Note_off_c, 0, 72, 57
1, 569962, Note_on_c, 0, 70, 62
1, 569968, Control_c, 0, 64, 99
1, 569983, Control_c, 0, 64, 98
1, 569998, Control_c, 0, 64, 96
1, 570013, Control_c, 0, 64, 92
1, 570028, Note_off_c, 0, 70, 63
1, 570028, Control_c, 0, 64, 87
1, 570043, Note_on_c, 0, 69, 56
1, 570043, Control_c, 0, 64, 79
1, 570058, Control_c, 0, 64, 69
1, 570073, Control_c, 0, 64, 54
1, 570082, Note_off_c, 0, 69, 63
1, 570087, Control_c, 0, 64, 0
1, 570102, Control_c, 0, 64, 14
1, 570105, Note_on_c, 0, 62, 74
1, 570117, Control_c, 0, 64, 54
1, 570132, Control_c, 0, 64, 64
1, 570147, Control_c, 0, 64, 70
1, 570161, Control_c, 0, 64, 78
1, 570176, Control_c, 0, 64, 85
1, 570183, Note_off_c, 0, 62, 59
1, 570191, Note_on_c, 0, 70, 66
1, 570191, Control_c, 0, 64, 90
1, 570206, Control_c, 0, 64, 93
1, 570220, Control_c, 0, 64, 96
1, 570235, Control_c, 0, 64, 98
1, 570250, Control_c, 0, 64, 98
1, 570251, Note_off_c, 0, 70, 63
1, 570254, Note_on_c, 0, 72, 64
1, 570278, Note_off_c, 0, 78, 56
1, 570280, Control_c, 0, 64, 99
1, 570294, Control_c, 0, 64, 101
1, 570295, Note_off_c, 0, 72, 62
1, 570309, Control_c, 0, 64, 103
1, 570314, Note_on_c, 0, 74, 65
1, 570324, Control_c, 0, 64, 106
1, 570339, Control_c, 0, 64, 108
1, 570377, Note_on_c, 0, 72, 44
1, 570377, Note_off_c, 0, 74, 55
1, 570395, Note_off_c, 0, 90, 63
1, 570396, Note_on_c, 0, 89, 78
1, 570406, Note_on_c, 0, 77, 66
1, 570433, Note_on_c, 0, 70, 73
1, 570434, Note_off_c, 0, 72, 53
1, 570438, Note_off_c, 0, 89, 62
1, 570445, Note_off_c, 0, 77, 62
1, 570451, Note_off_c, 0, 70, 72
1, 570486, Poly_aftertouch_c, 0, 87, 0
1, 570502, Control_c, 0, 64, 107
1, 570517, Control_c, 0, 64, 103
1, 570538, Control_c, 0, 64, 97
1, 570553, Control_c, 0, 64, 89
1, 570568, Control_c, 0, 64, 81
1, 570575, Note_on_c, 0, 53, 74
1, 570583, Control_c, 0, 64, 68
1, 570598, Control_c, 0, 64, 44
1, 570612, Control_c, 0, 64, 0
1, 570642, Control_c, 0, 64, 48
1, 570657, Control_c, 0, 64, 62
1, 570672, Control_c, 0, 64, 68
1, 570677, Note_on_c, 0, 59, 64
1, 570687, Control_c, 0, 64, 76
1, 570701, Control_c, 0, 64, 86
1, 570717, Control_c, 0, 64, 95
1, 570732, Control_c, 0, 64, 96
1, 570740, Note_on_c, 0, 60, 66
1, 570743, Note_off_c, 0, 59, 54
1, 570761, Note_off_c, 0, 53, 60
1, 570779, Note_off_c, 0, 60, 64
1, 570791, Control_c, 0, 64, 96
1, 570806, Control_c, 0, 64, 94
1, 570808, Note_on_c, 0, 62, 63
1, 570821, Control_c, 0, 64, 93
1, 570836, Control_c, 0, 64, 92
1, 570851, Control_c, 0, 64, 90
1, 570861, Note_on_c, 0, 80, 89
1, 570861, Note_off_c, 0, 62, 49
1, 570865, Control_c, 0, 64, 87
1, 570869, Note_on_c, 0, 68, 81
1, 570880, Control_c, 0, 64, 86
1, 570884, Note_on_c, 0, 60, 63
1, 570895, Control_c, 0, 64, 83
1, 570910, Control_c, 0, 64, 80
1, 570925, Control_c, 0, 64, 72
1, 570939, Note_off_c, 0, 60, 62
1, 570940, Control_c, 0, 64, 59
1, 570954, Note_on_c, 0, 59, 62
1, 570955, Control_c, 0, 64, 0
1, 570986, Note_off_c, 0, 59, 61
1, 571014, Control_c, 0, 64, 52
1, 571029, Control_c, 0, 64, 65
1, 571031, Note_on_c, 0, 51, 72
1, 571043, Control_c, 0, 64, 72
1, 571058, Control_c, 0, 64, 79
1, 571073, Control_c, 0, 64, 84
1, 571088, Control_c, 0, 64, 85
1, 571104, Note_off_c, 0, 51, 65
1, 571107, Note_on_c, 0, 60, 52
1, 571117, Control_c, 0, 64, 86
1, 571161, Control_c, 0, 64, 85
1, 571170, Note_off_c, 0, 68, 59
1, 571173, Note_off_c, 0, 60, 61
1, 571183, Note_on_c, 0, 62, 51
1, 571217, Note_off_c, 0, 62, 64
1, 571221, Control_c, 0, 64, 85
1, 571235, Control_c, 0, 64, 83
1, 571239, Note_on_c, 0, 63, 59
1, 571250, Control_c, 0, 64, 81
1, 571265, Control_c, 0, 64, 80
1, 571288, Note_off_c, 0, 63, 55
1, 571303, Control_c, 0, 64, 79
1, 571320, Note_on_c, 0, 62, 45
1, 571327, Note_on_c, 0, 79, 76
1, 571332, Control_c, 0, 64, 79
1, 571335, Note_on_c, 0, 67, 65
1, 571337, Note_off_c, 0, 80, 61
1, 571347, Control_c, 0, 64, 77
1, 571380, Note_off_c, 0, 67, 59
1, 571384, Note_off_c, 0, 79, 63
1, 571393, Note_off_c, 0, 62, 60
1, 571404, Note_on_c, 0, 60, 48
1, 571435, Control_c, 0, 64, 76
1, 571436, Note_off_c, 0, 60, 64
1, 571450, Control_c, 0, 64, 72
1, 571465, Control_c, 0, 64, 62
1, 571480, Control_c, 0, 64, 0
1, 571495, Note_on_c, 0, 51, 70
1, 571540, Control_c, 0, 64, 52
1, 571555, Control_c, 0, 64, 65
1, 571570, Control_c, 0, 64, 71
1, 571584, Control_c, 0, 64, 79
1, 571586, Note_on_c, 0, 57, 56
1, 571599, Control_c, 0, 64, 88
1, 571614, Control_c, 0, 64, 92
1, 571629, Control_c, 0, 64, 93
1, 571647, Note_on_c, 0, 58, 69
1, 571652, Note_off_c, 0, 57, 58
1, 571697, Note_off_c, 0, 58, 62
1, 571703, Control_c, 0, 64, 92
1, 571714, Note_on_c, 0, 60, 65
1, 571718, Control_c, 0, 64, 92
1, 571736, Note_off_c, 0, 51, 0
1, 571748, Control_c, 0, 64, 91
1, 571763, Control_c, 0, 64, 90
1, 571772, Note_on_c, 0, 78, 86
1, 571778, Control_c, 0, 64, 89
1, 571780, Note_on_c, 0, 66, 71
1, 571792, Note_on_c, 0, 58, 62
1, 571792, Control_c, 0, 64, 89
1, 571793, Poly_aftertouch_c, 0, 51, 0
1, 571807, Control_c, 0, 64, 87
1, 571821, Note_off_c, 0, 60, 39
1, 571822, Control_c, 0, 64, 85
1, 571837, Control_c, 0, 64, 81
1, 571852, Control_c, 0, 64, 75
1, 571853, Note_off_c, 0, 58, 61
1, 571866, Control_c, 0, 64, 66
1, 571878, Note_on_c, 0, 57, 54
1, 571881, Control_c, 0, 64, 46
1, 571896, Control_c, 0, 64, 0
1, 571918, Note_off_c, 0, 57, 63
1, 571940, Control_c, 0, 64, 44
1, 571944, Note_on_c, 0, 50, 66
1, 571955, Control_c, 0, 64, 61
1, 571970, Control_c, 0, 64, 66
1, 571984, Control_c, 0, 64, 71
1, 571999, Control_c, 0, 64, 76
1, 572008, Note_off_c, 0, 50, 64
1, 572014, Control_c, 0, 64, 82
1, 572016, Note_on_c, 0, 58, 73
1, 572037, Control_c, 0, 64, 85
1, 572052, Control_c, 0, 64, 86
1, 572098, Note_off_c, 0, 58, 61
1, 572103, Note_on_c, 0, 60, 60
1, 572110, Note_off_c, 0, 66, 57
1, 572126, Control_c, 0, 64, 85
1, 572140, Note_off_c, 0, 60, 64
1, 572140, Control_c, 0, 64, 84
1, 572155, Control_c, 0, 64, 83
1, 572171, Note_on_c, 0, 62, 46
1, 572183, Control_c, 0, 64, 82
1, 572198, Control_c, 0, 64, 81
1, 572210, Note_off_c, 0, 62, 48
1, 572213, Control_c, 0, 64, 80
1, 572225, Note_on_c, 0, 60, 43
1, 572228, Control_c, 0, 64, 78
1, 572243, Control_c, 0, 64, 78
1, 572253, Note_on_c, 0, 65, 60
1, 572254, Note_on_c, 0, 77, 68
1, 572258, Control_c, 0, 64, 77
1, 572274, Note_off_c, 0, 60, 57
1, 572278, Note_off_c, 0, 78, 58
1, 572286, Note_off_c, 0, 65, 62
1, 572287, Control_c, 0, 64, 76
1, 572299, Note_off_c, 0, 77, 59
1, 572299, Note_on_c, 0, 58, 51
1, 572303, Control_c, 0, 64, 74
1, 572318, Control_c, 0, 64, 70
1, 572332, Note_off_c, 0, 58, 63
1, 572333, Control_c, 0, 64, 64
1, 572348, Control_c, 0, 64, 39
1, 572362, Control_c, 0, 64, 0
1, 572398, Note_on_c, 0, 50, 60
1, 572407, Control_c, 0, 64, 40
1, 572421, Control_c, 0, 64, 60
1, 572436, Control_c, 0, 64, 66
1, 572451, Control_c, 0, 64, 70
1, 572466, Control_c, 0, 64, 73
1, 572478, Note_on_c, 0, 53, 60
1, 572478, Note_off_c, 0, 50, 54
1, 572481, Control_c, 0, 64, 73
1, 572526, Control_c, 0, 64, 73
1, 572529, Note_on_c, 0, 58, 59
1, 572541, Control_c, 0, 64, 72
1, 572549, Note_off_c, 0, 53, 62
1, 572556, Note_on_c, 0, 77, 65
1, 572559, Note_on_c, 0, 65, 55
1, 572564, Note_off_c, 0, 58, 64
1, 572570, Control_c, 0, 64, 71
1, 572573, Note_on_c, 0, 70, 33
1, 572581, Note_off_c, 0, 65, 61
1, 572582, Note_off_c, 0, 77, 68
1, 572585, Control_c, 0, 64, 71
1, 572596, Note_on_c, 0, 62, 59
1, 572600, Control_c, 0, 64, 70
1, 572606, Note_off_c, 0, 70, 32
1, 572614, Control_c, 0, 64, 69
1, 572629, Control_c, 0, 64, 68
1, 572644, Control_c, 0, 64, 67
1, 572665, Note_on_c, 0, 58, 53
1, 572671, Note_off_c, 0, 62, 55
1, 572674, Control_c, 0, 64, 67
1, 572688, Control_c, 0, 64, 66
1, 572697, Note_on_c, 0, 65, 59
1, 572699, Note_on_c, 0, 70, 62
1, 572702, Note_on_c, 0, 77, 76
1, 572703, Control_c, 0, 64, 65
1, 572718, Control_c, 0, 64, 62
1, 572720, Note_off_c, 0, 58, 62
1, 572721, Note_on_c, 0, 53, 67
1, 572726, Note_off_c, 0, 70, 66
1, 572730, Note_off_c, 0, 65, 66
1, 572732, Control_c, 0, 64, 45
1, 572734, Note_off_c, 0, 77, 58
1, 572747, Control_c, 0, 64, 0
1, 572752, Note_off_c, 0, 53, 66
1, 572829, Control_c, 0, 64, 41
1, 572844, Control_c, 0, 64, 61
1, 572853, Note_on_c, 0, 43, 71
1, 572859, Control_c, 0, 64, 67
1, 572874, Control_c, 0, 64, 70
1, 572888, Control_c, 0, 64, 73
1, 572903, Control_c, 0, 64, 74
1, 572924, Note_off_c, 0, 43, 60
1, 572929, Note_on_c, 0, 46, 64
1, 572932, Control_c, 0, 64, 73
1, 572962, Control_c, 0, 64, 73
1, 572977, Control_c, 0, 64, 72
1, 572982, Note_on_c, 0, 50, 54
1, 572994, Note_off_c, 0, 46, 61
1, 572994, Note_on_c, 0, 75, 77
1, 573000, Note_on_c, 0, 67, 68
1, 573005, Note_on_c, 0, 70, 56
1, 573006, Control_c, 0, 64, 71
1, 573021, Note_off_c, 0, 50, 67
1, 573021, Control_c, 0, 64, 70
1, 573024, Note_off_c, 0, 67, 67
1, 573024, Note_off_c, 0, 70, 63
1, 573036, Control_c, 0, 64, 68
1, 573046, Note_off_c, 0, 75, 54
1, 573051, Control_c, 0, 64, 65
1, 573066, Control_c, 0, 64, 63
1, 573080, Control_c, 0, 64, 57
1, 573095, Control_c, 0, 64, 32
1, 573111, Control_c, 0, 64, 0
1, 573113, Note_on_c, 0, 50, 52
1, 573137, Note_on_c, 0, 70, 60
1, 573139, Note_on_c, 0, 74, 86
1, 573141, Note_on_c, 0, 67, 71
1, 573151, Note_off_c, 0, 50, 65
1, 573152, Note_on_c, 0, 46, 58
1, 573167, Note_off_c, 0, 70, 66
1, 573170, Note_off_c, 0, 67, 64
1, 573172, Note_off_c, 0, 74, 65
1, 573185, Note_off_c, 0, 46, 63
1, 573259, Control_c, 0, 64, 55
1, 573271, Note_on_c, 0, 39, 73
1, 573274, Control_c, 0, 64, 65
1, 573289, Control_c, 0, 64, 71
1, 573304, Control_c, 0, 64, 76
1, 573319, Control_c, 0, 64, 78
1, 573360, Note_on_c, 0, 43, 67
1, 573362, Note_off_c, 0, 39, 60
1, 573401, Note_on_c, 0, 48, 50
1, 573408, Control_c, 0, 64, 77
1, 573408, Note_on_c, 0, 74, 83
1, 573417, Note_on_c, 0, 63, 74
1, 573422, Control_c, 0, 64, 77
1, 573426, Note_off_c, 0, 43, 62
1, 573429, Note_on_c, 0, 67, 55
1, 573437, Control_c, 0, 64, 76
1, 573441, Note_off_c, 0, 63, 65
1, 573450, Note_off_c, 0, 48, 55
1, 573452, Note_off_c, 0, 67, 58
1, 573452, Control_c, 0, 64, 76
1, 573455, Note_on_c, 0, 51, 70
1, 573464, Note_off_c, 0, 74, 63
1, 573482, Control_c, 0, 64, 75
1, 573496, Control_c, 0, 64, 74
1, 573511, Control_c, 0, 64, 73
1, 573517, Note_off_c, 0, 51, 63
1, 573533, Control_c, 0, 64, 72
1, 573540, Note_on_c, 0, 48, 31
1, 573563, Control_c, 0, 64, 72
1, 573575, Note_on_c, 0, 43, 67
1, 573578, Control_c, 0, 64, 71
1, 573578, Note_on_c, 0, 67, 68
1, 573578, Note_on_c, 0, 72, 78
1, 573579, Note_on_c, 0, 63, 81
1, 573590, Note_off_c, 0, 48, 55
1, 573593, Control_c, 0, 64, 69
1, 573605, Note_off_c, 0, 67, 65
1, 573608, Control_c, 0, 64, 64
1, 573611, Note_off_c, 0, 63, 61
1, 573619, Note_off_c, 0, 72, 64
1, 573623, Control_c, 0, 64, 0
1, 573623, Control_c, 0, 67, 127
1, 573634, Note_off_c, 0, 43, 61
1, 573637, Control_c, 0, 67, 126
1, 573652, Control_c, 0, 67, 124
1, 573667, Control_c, 0, 67, 123
1, 573693, Note_on_c, 0, 41, 90
1, 573711, Control_c, 0, 64, 55
1, 573726, Control_c, 0, 64, 66
1, 573741, Control_c, 0, 64, 71
1, 573755, Control_c, 0, 64, 74
1, 573770, Control_c, 0, 64, 75
1, 573774, Note_off_c, 0, 41, 63
1, 573784, Note_on_c, 0, 48, 67
1, 573800, Control_c, 0, 64, 74
1, 573815, Control_c, 0, 64, 73
1, 573828, Note_on_c, 0, 51, 66
1, 573834, Note_off_c, 0, 48, 62
1, 573861, Note_on_c, 0, 60, 78
1, 573861, Note_on_c, 0, 70, 74
1, 573864, Note_on_c, 0, 63, 74
1, 573874, Control_c, 0, 64, 72
1, 573879, Note_off_c, 0, 51, 64
1, 573887, Note_off_c, 0, 60, 68
1, 573889, Control_c, 0, 64, 71
1, 573890, Note_off_c, 0, 63, 66
1, 573894, Note_on_c, 0, 53, 73
1, 573894, Note_on_c, 0, 69, 31
1, 573905, Control_c, 0, 64, 70
1, 573912, Note_off_c, 0, 70, 61
1, 573920, Control_c, 0, 64, 70
1, 573932, Note_off_c, 0, 69, 31
1, 573960, Note_on_c, 0, 51, 68
1, 573964, Control_c, 0, 64, 70
1, 573972, Note_off_c, 0, 53, 62
1, 573978, Control_c, 0, 64, 69
1, 573993, Control_c, 0, 64, 69
1, 574000, Note_on_c, 0, 60, 75
1, 574001, Note_on_c, 0, 63, 76
1, 574001, Note_on_c, 0, 69, 73
1, 574001, Note_off_c, 0, 51, 65
1, 574008, Control_c, 0, 64, 69
1, 574023, Control_c, 0, 64, 70
1, 574026, Note_on_c, 0, 48, 82
1, 574038, Control_c, 0, 64, 71
1, 574038, Control_c, 0, 67, 122
1, 574043, Note_off_c, 0, 63, 60
1, 574045, Note_off_c, 0, 69, 64
1, 574049, Note_off_c, 0, 60, 64
1, 574052, Control_c, 0, 64, 72
1, 574052, Control_c, 0, 67, 122
1, 574067, Note_off_c, 0, 48, 61
1, 574067, Control_c, 0, 64, 72
1, 574067, Control_c, 0, 67, 121
1, 574082, Control_c, 0, 64, 72
1, 574082, Control_c, 0, 67, 120
1, 574097, Control_c, 0, 64, 67
1, 574097, Control_c, 0, 67, 118
1, 574112, Control_c, 0, 64, 41
1, 574112, Control_c, 0, 67, 117
1, 574127, Control_c, 0, 64, 0
1, 574127, Control_c, 0, 67, 116
1, 574141, Control_c, 0, 67, 115
1, 574144, Note_on_c, 0, 38, 96
1, 574186, Control_c, 0, 64, 57
1, 574201, Control_c, 0, 64, 65
1, 574216, Control_c, 0, 64, 70
1, 574231, Control_c, 0, 64, 73
1, 574239, Note_off_c, 0, 38, 59
1, 574241, Note_on_c, 0, 41, 74
1, 574260, Control_c, 0, 64, 71
1, 574282, Control_c, 0, 64, 70
1, 574297, Control_c, 0, 64, 69
1, 574299, Note_on_c, 0, 70, 83
1, 574305, Note_on_c, 0, 58, 84
1, 574307, Note_on_c, 0, 62, 78
1, 574312, Control_c, 0, 64, 70
1, 574314, Note_on_c, 0, 46, 61
1, 574326, Control_c, 0, 64, 69
1, 574332, Note_off_c, 0, 41, 60
1, 574338, Note_off_c, 0, 58, 56
1, 574341, Control_c, 0, 64, 68
1, 574356, Control_c, 0, 64, 67
1, 574360, Note_off_c, 0, 46, 63
1, 574360, Note_off_c, 0, 70, 60
1, 574371, Control_c, 0, 64, 66
1, 574374, Note_on_c, 0, 50, 70
1, 574383, Note_off_c, 0, 62, 51
1, 574386, Control_c, 0, 64, 67
1, 574386, Control_c, 0, 67, 116
1, 574401, Control_c, 0, 64, 68
1, 574401, Control_c, 0, 67, 115
1, 574428, Note_on_c, 0, 46, 62
1, 574448, Note_on_c, 0, 58, 80
1, 574448, Note_on_c, 0, 62, 56
1, 574448, Note_off_c, 0, 50, 60
1, 574451, Note_on_c, 0, 65, 79
1, 574466, Note_on_c, 0, 41, 73
1, 574475, Control_c, 0, 64, 68
1, 574481, Note_off_c, 0, 62, 63
1, 574485, Note_off_c, 0, 46, 62
1, 574490, Control_c, 0, 64, 69
1, 574495, Note_off_c, 0, 65, 61
1, 574501, Note_off_c, 0, 58, 62
1, 574505, Control_c, 0, 64, 70
1, 574505, Control_c, 0, 67, 115
1, 574508, Note_off_c, 0, 41, 63
1, 574520, Control_c, 0, 64, 71
1, 574520, Control_c, 0, 67, 114
1, 574535, Control_c, 0, 67, 113
1, 574550, Control_c, 0, 64, 67
1, 574550, Control_c, 0, 67, 110
1, 574565, Control_c, 0, 64, 57
1, 574565, Control_c, 0, 67, 108
1, 574579, Control_c, 0, 64, 0
1, 574579, Control_c, 0, 67, 106
1, 574587, Note_on_c, 0, 31, 92
1, 574609, Control_c, 0, 67, 106
1, 574624, Control_c, 0, 67, 105
1, 574639, Control_c, 0, 64, 63
1, 574639, Control_c, 0, 67, 103
1, 574653, Control_c, 0, 64, 68
1, 574653, Control_c, 0, 67, 98
1, 574668, Control_c, 0, 64, 72
1, 574668, Control_c, 0, 67, 88
1, 574680, Note_on_c, 0, 34, 70
1, 574683, Control_c, 0, 64, 73
1, 574683, Control_c, 0, 67, 70
1, 574698, Control_c, 0, 64, 72
1, 574698, Control_c, 0, 67, 54
1, 574711, Note_off_c, 0, 31, 37
1, 574714, Control_c, 0, 64, 71
1, 574714, Control_c, 0, 67, 45
1, 574728, Note_on_c, 0, 63, 79
1, 574729, Note_on_c, 0, 58, 78
1, 574729, Control_c, 0, 64, 70
1, 574729, Control_c, 0, 67, 43
1, 574734, Note_on_c, 0, 55, 75
1, 574736, Note_on_c, 0, 38, 63
1, 574744, Control_c, 0, 67, 42
1, 574753, Note_off_c, 0, 34, 61
1, 574758, Control_c, 0, 67, 42
1, 574761, Note_off_c, 0, 55, 67
1, 574773, Control_c, 0, 64, 69
1, 574779, Note_off_c, 0, 58, 60
1, 574788, Control_c, 0, 64, 68
1, 574793, Note_off_c, 0, 38, 63
1, 574798, Note_on_c, 0, 43, 70
1, 574808, Note_off_c, 0, 63, 60
1, 574862, Control_c, 0, 64, 67
1, 574862, Control_c, 0, 67, 41
1, 574865, Note_on_c, 0, 55, 77
1, 574869, Note_on_c, 0, 62, 79
1, 574872, Note_on_c, 0, 58, 79
1, 574874, Note_off_c, 0, 43, 63
1, 574875, Note_on_c, 0, 38, 62
1, 574876, Control_c, 0, 67, 40
1, 574891, Control_c, 0, 64, 68
1, 574891, Control_c, 0, 67, 38
1, 574892, Note_on_c, 0, 34, 78
1, 574902, Note_off_c, 0, 58, 63
1, 574906, Control_c, 0, 64, 69
1, 574906, Control_c, 0, 67, 36
1, 574914, Note_off_c, 0, 38, 63
1, 574914, Note_off_c, 0, 55, 63
1, 574920, Note_off_c, 0, 62, 62
1, 574921, Control_c, 0, 64, 70
1, 574921, Control_c, 0, 67, 32
1, 574934, Note_off_c, 0, 34, 60
1, 574936, Control_c, 0, 64, 71
1, 574936, Control_c, 0, 67, 26
1, 574950, Control_c, 0, 67, 19
1, 574965, Control_c, 0, 64, 68
1, 574965, Control_c, 0, 67, 12
1, 574980, Control_c, 0, 64, 57
1, 574980, Control_c, 0, 67, 0
1, 574995, Control_c, 0, 64, 0
1, 575030, Note_on_c, 0, 40, 85
1, 575031, Note_on_c, 0, 39, 52
1, 575062, Control_c, 0, 64, 57
1, 575072, Note_off_c, 0, 39, 48
1, 575076, Control_c, 0, 64, 66
1, 575091, Control_c, 0, 64, 71
1, 575093, Note_off_c, 0, 40, 59
1, 575106, Control_c, 0, 64, 74
1, 575107, Note_on_c, 0, 43, 60
1, 575121, Control_c, 0, 64, 75
1, 575135, Control_c, 0, 64, 74
1, 575160, Note_off_c, 0, 43, 63
1, 575165, Note_on_c, 0, 48, 78
1, 575167, Note_on_c, 0, 62, 83
1, 575171, Note_on_c, 0, 51, 84
1, 575176, Note_on_c, 0, 55, 67
1, 575209, Control_c, 0, 64, 73
1, 575224, Control_c, 0, 64, 72
1, 575227, Note_off_c, 0, 51, 62
1, 575229, Note_off_c, 0, 62, 59
1, 575239, Note_off_c, 0, 48, 63
1, 575239, Control_c, 0, 64, 72
1, 575244, Note_on_c, 0, 43, 67
1, 575269, Control_c, 0, 64, 72
1, 575298, Note_on_c, 0, 39, 71
1, 575298, Note_off_c, 0, 55, 0
1, 575298, Control_c, 0, 64, 72
1, 575313, Note_on_c, 0, 55, 49
1, 575313, Control_c, 0, 64, 71
1, 575314, Note_off_c, 0, 43, 64
1, 575322, Note_on_c, 0, 51, 79
1, 575322, Note_on_c, 0, 60, 71
1, 575328, Control_c, 0, 64, 71
1, 575343, Control_c, 0, 64, 72
1, 575356, Note_off_c, 0, 39, 61
1, 575358, Control_c, 0, 64, 72
1, 575364, Note_off_c, 0, 55, 63
1, 575370, Note_off_c, 0, 60, 66
1, 575371, Note_off_c, 0, 51, 64
1, 575373, Control_c, 0, 64, 73
1, 575387, Control_c, 0, 64, 73
1, 575417, Control_c, 0, 64, 70
1, 575432, Control_c, 0, 64, 59
1, 575446, Note_on_c, 0, 29, 93
1, 575447, Control_c, 0, 64, 0
1, 575492, Note_on_c, 0, 31, 17
1, 575522, Control_c, 0, 64, 56
1, 575537, Control_c, 0, 64, 65
1, 575545, Note_off_c, 0, 31, 29
1, 575551, Control_c, 0, 64, 68
1, 575559, Note_on_c, 0, 36, 73
1, 575566, Note_off_c, 0, 29, 63
1, 575566, Control_c, 0, 64, 71
1, 575581, Control_c, 0, 64, 72
1, 575594, Note_on_c, 0, 58, 77
1, 575596, Control_c, 0, 64, 72
1, 575602, Note_on_c, 0, 48, 75
1, 575602, Note_on_c, 0, 51, 71
1, 575620, Note_off_c, 0, 36, 60
1, 575623, Note_on_c, 0, 57, 46
1, 575625, Control_c, 0, 64, 72
1, 575632, Note_on_c, 0, 39, 45
1, 575635, Note_off_c, 0, 48, 61
1, 575647, Note_off_c, 0, 51, 59
1, 575653, Note_off_c, 0, 57, 57
1, 575659, Note_off_c, 0, 58, 61
1, 575662, Note_on_c, 0, 41, 75
1, 575666, Note_off_c, 0, 39, 53
1, 575699, Control_c, 0, 64, 71
1, 575714, Control_c, 0, 64, 71
1, 575727, Note_on_c, 0, 39, 59
1, 575727, Note_on_c, 0, 57, 68
1, 575734, Note_on_c, 0, 51, 74
1, 575735, Note_off_c, 0, 41, 62
1, 575741, Note_on_c, 0, 48, 66
1, 575744, Control_c, 0, 64, 71
1, 575757, Note_off_c, 0, 57, 65
1, 575758, Control_c, 0, 64, 72
1, 575762, Note_on_c, 0, 36, 68
1, 575781, Control_c, 0, 64, 72
1, 575788, Note_off_c, 0, 51, 65
1, 575796, Note_off_c, 0, 39, 60
1, 575811, Control_c, 0, 64, 73
1, 575811, Note_off_c, 0, 48, 60
1, 575826, Control_c, 0, 64, 73
1, 575838, Note_off_c, 0, 36, 60
1, 575840, Control_c, 0, 64, 71
1, 575855, Control_c, 0, 64, 63
1, 575870, Control_c, 0, 64, 0
1, 575879, Note_on_c, 0, 34, 100
1, 575894, Note_on_c, 0, 46, 81
1, 575903, Note_off_c, 0, 34, 67
1, 575914, Control_c, 0, 64, 49
1, 575929, Control_c, 0, 64, 67
1, 575940, Note_off_c, 0, 46, 61
1, 575944, Control_c, 0, 64, 72
1, 575958, Control_c, 0, 64, 74
1, 575970, Note_on_c, 0, 48, 70
1, 575973, Control_c, 0, 64, 73
1, 575988, Control_c, 0, 64, 70
1, 576003, Control_c, 0, 64, 68
1, 576018, Control_c, 0, 64, 69
1, 576022, Note_off_c, 0, 48, 59
1, 576023, Note_on_c, 0, 50, 79
1, 576032, Control_c, 0, 64, 70
1, 576070, Note_on_c, 0, 51, 76
1, 576077, Note_on_c, 0, 46, 54
1, 576077, Control_c, 0, 64, 70
1, 576085, Note_on_c, 0, 47, 62
1, 576098, Note_off_c, 0, 50, 65
1, 576106, Note_off_c, 0, 46, 61
1, 576113, Note_off_c, 0, 47, 66
1, 576118, Note_off_c, 0, 51, 65
1, 576121, Control_c, 0, 64, 69
1, 576136, Control_c, 0, 64, 69
1, 576145, Note_on_c, 0, 53, 73
1, 576180, Control_c, 0, 64, 69
1, 576181, Note_on_c, 0, 50, 77
1, 576189, Note_on_c, 0, 46, 69
1, 576195, Note_on_c, 0, 55, 81
1, 576196, Note_off_c, 0, 53, 64
1, 576223, Note_off_c, 0, 50, 64
1, 576225, Control_c, 0, 64, 70
1, 576226, Note_off_c, 0, 46, 60
1, 576240, Control_c, 0, 64, 71
1, 576252, Note_on_c, 0, 57, 73
1, 576255, Control_c, 0, 64, 73
1, 576270, Control_c, 0, 64, 74
1, 576278, Note_off_c, 0, 55, 64
1, 576279, Note_on_c, 0, 58, 79
1, 576285, Control_c, 0, 64, 74
1, 576300, Control_c, 0, 64, 70
1, 576302, Note_off_c, 0, 57, 62
1, 576303, Note_off_c, 0, 58, 70
1, 576315, Control_c, 0, 64, 62
1, 576328, Note_on_c, 0, 50, 80
1, 576329, Note_on_c, 0, 46, 82
1, 576329, Control_c, 0, 64, 0
1, 576331, Note_on_c, 0, 53, 85
1, 576346, Note_on_c, 0, 60, 77
1, 576374, Control_c, 0, 64, 62
1, 576389, Control_c, 0, 64, 68
1, 576401, Note_on_c, 0, 62, 81
1, 576403, Note_off_c, 0, 60, 65
1, 576404, Control_c, 0, 64, 74
1, 576419, Control_c, 0, 64, 80
1, 576434, Control_c, 0, 64, 84
1, 576443, Note_on_c, 0, 63, 80
1, 576448, Control_c, 0, 64, 84
1, 576454, Note_off_c, 0, 62, 62
1, 576459, Note_off_c, 0, 53, 60
1, 576469, Note_off_c, 0, 63, 66
1, 576493, Note_off_c, 0, 46, 60
1, 576508, Note_on_c, 0, 65, 77
1, 576538, Note_off_c, 0, 50, 60
1, 576544, Control_c, 0, 64, 83
1, 576550, Note_off_c, 0, 65, 63
1, 576559, Control_c, 0, 64, 82
1, 576574, Control_c, 0, 64, 81
1, 576586, Note_on_c, 0, 67, 75
1, 576596, Note_on_c, 0, 41, 76
1, 576608, Note_on_c, 0, 53, 65
1, 576608, Note_on_c, 0, 69, 76
1, 576609, Note_on_c, 0, 48, 67
1, 576633, Note_off_c, 0, 53, 70
1, 576636, Note_off_c, 0, 67, 60
1, 576637, Note_off_c, 0, 48, 65
1, 576639, Note_off_c, 0, 41, 61
1, 576669, Note_off_c, 0, 69, 63
1, 576689, Note_on_c, 0, 57, 72
1, 576692, Control_c, 0, 64, 77
1, 576707, Control_c, 0, 64, 68
1, 576722, Control_c, 0, 64, 0
1, 576732, Note_off_c, 0, 57, 55
1, 576740, Note_on_c, 0, 50, 84
1, 576748, Note_on_c, 0, 53, 82
1, 576750, Note_on_c, 0, 46, 84
1, 576754, Note_on_c, 0, 58, 84
1, 576795, Control_c, 0, 64, 59
1, 576800, Note_off_c, 0, 50, 65
1, 576804, Note_off_c, 0, 53, 62
1, 576810, Control_c, 0, 64, 65
1, 576811, Note_off_c, 0, 58, 64
1, 576818, Note_off_c, 0, 46, 62
1, 576825, Control_c, 0, 64, 68
1, 576835, Note_on_c, 0, 60, 74
1, 576854, Control_c, 0, 64, 66
1, 576869, Control_c, 0, 64, 66
1, 576890, Note_on_c, 0, 46, 76
1, 576893, Note_off_c, 0, 60, 61
1, 576894, Note_on_c, 0, 50, 78
1, 576894, Note_on_c, 0, 62, 85
1, 576896, Note_on_c, 0, 53, 78
1, 576899, Control_c, 0, 64, 66
1, 576914, Control_c, 0, 64, 67
1, 576929, Control_c, 0, 64, 67
1, 576940, Note_off_c, 0, 50, 63
1, 576941, Note_on_c, 0, 63, 81
1, 576944, Note_off_c, 0, 53, 64
1, 576952, Note_off_c, 0, 46, 62
1, 576958, Control_c, 0, 64, 68
1, 576962, Note_off_c, 0, 62, 61
1, 576973, Control_c, 0, 64, 68
1, 576988, Control_c, 0, 64, 69
1, 576990, Note_off_c, 0, 63, 61
1, 577003, Control_c, 0, 64, 70
1, 577018, Note_on_c, 0, 65, 74
1, 577028, Note_on_c, 0, 46, 78
1, 577032, Note_on_c, 0, 50, 79
1, 577032, Note_on_c, 0, 53, 78
1, 577062, Control_c, 0, 64, 71
1, 577072, Note_off_c, 0, 50, 63
1, 577073, Note_on_c, 0, 67, 86
1, 577077, Control_c, 0, 64, 72
1, 577078, Note_off_c, 0, 65, 61
1, 577081, Note_off_c, 0, 53, 63
1, 577084, Note_off_c, 0, 46, 62
1, 577093, Control_c, 0, 64, 75
1, 577107, Control_c, 0, 64, 78
1, 577122, Control_c, 0, 64, 82
1, 577129, Note_on_c, 0, 69, 71
1, 577137, Control_c, 0, 64, 83
1, 577152, Control_c, 0, 64, 82
1, 577159, Note_on_c, 0, 70, 80
1, 577159, Note_off_c, 0, 67, 61
1, 577167, Control_c, 0, 64, 75
1, 577176, Note_off_c, 0, 69, 63
1, 577179, Note_off_c, 0, 70, 71
1, 577182, Control_c, 0, 64, 67
1, 577190, Note_on_c, 0, 53, 87
1, 577192, Note_on_c, 0, 50, 85
1, 577193, Note_on_c, 0, 46, 84
1, 577197, Control_c, 0, 64, 64
1, 577212, Control_c, 0, 64, 68
1, 577221, Note_on_c, 0, 72, 85
1, 577227, Control_c, 0, 64, 76
1, 577242, Control_c, 0, 64, 86
1, 577256, Control_c, 0, 64, 99
1, 577278, Control_c, 0, 64, 120
1, 577289, Note_off_c, 0, 72, 61
1, 577290, Note_on_c, 0, 74, 86
1, 577293, Control_c, 0, 64, 127
1, 577328, Note_on_c, 0, 75, 81
1, 577334, Note_off_c, 0, 74, 66
1, 577345, Note_off_c, 0, 53, 63
1, 577348, Note_off_c, 0, 75, 72
1, 577377, Note_off_c, 0, 46, 55
1, 577385, Note_off_c, 0, 50, 65
1, 577395, Note_on_c, 0, 77, 81
1, 577417, Note_off_c, 0, 77, 70
1, 577450, Note_on_c, 0, 41, 74
1, 577456, Note_on_c, 0, 48, 76
1, 577456, Note_on_c, 0, 79, 83
1, 577457, Note_on_c, 0, 53, 72
1, 577474, Note_on_c, 0, 81, 79
1, 577491, Note_off_c, 0, 48, 65
1, 577498, Note_off_c, 0, 41, 61
1, 577504, Note_off_c, 0, 53, 60
1, 577504, Note_off_c, 0, 79, 61
1, 577532, Note_off_c, 0, 81, 64
1, 577542, Note_on_c, 0, 69, 81
1, 577546, Control_c, 0, 64, 119
1, 577561, Control_c, 0, 64, 87
1, 577575, Control_c, 0, 64, 59
1, 577590, Note_off_c, 0, 69, 61
1, 577590, Control_c, 0, 64, 0
1, 577610, Note_on_c, 0, 50, 91
1, 577612, Note_on_c, 0, 53, 94
1, 577614, Note_on_c, 0, 46, 88
1, 577614, Note_on_c, 0, 70, 88
1, 577635, Control_c, 0, 64, 53
1, 577650, Control_c, 0, 64, 67
1, 577665, Control_c, 0, 64, 74
1, 577672, Note_off_c, 0, 70, 63
1, 577677, Note_off_c, 0, 50, 66
1, 577679, Control_c, 0, 64, 79
1, 577683, Note_off_c, 0, 53, 58
1, 577688, Note_off_c, 0, 46, 63
1, 577694, Note_on_c, 0, 72, 81
1, 577694, Control_c, 0, 64, 80
1, 577709, Control_c, 0, 64, 80
1, 577738, Control_c, 0, 64, 79
1, 577754, Note_on_c, 0, 74, 91
1, 577758, Note_off_c, 0, 72, 61
1, 577760, Note_on_c, 0, 46, 85
1, 577764, Note_on_c, 0, 50, 82
1, 577766, Note_on_c, 0, 53, 86
1, 577783, Control_c, 0, 64, 80
1, 577797, Control_c, 0, 64, 80
1, 577799, Note_on_c, 0, 75, 77
1, 577812, Note_off_c, 0, 53, 61
1, 577812, Control_c, 0, 64, 81
1, 577814, Note_off_c, 0, 50, 63
1, 577817, Note_off_c, 0, 74, 63
1, 577821, Note_off_c, 0, 46, 62
1, 577842, Control_c, 0, 64, 82
1, 577846, Note_off_c, 0, 75, 62
1, 577857, Control_c, 0, 64, 82
1, 577871, Note_on_c, 0, 77, 77
1, 577871, Control_c, 0, 64, 84
1, 577886, Control_c, 0, 64, 85
1, 577895, Note_on_c, 0, 50, 89
1, 577896, Note_on_c, 0, 53, 92
1, 577899, Note_on_c, 0, 46, 83
1, 577902, Control_c, 0, 64, 86
1, 577917, Control_c, 0, 64, 87
1, 577931, Note_off_c, 0, 77, 61
1, 577932, Control_c, 0, 64, 90
1, 577934, Note_on_c, 0, 79, 90
1, 577946, Control_c, 0, 64, 94
1, 577961, Control_c, 0, 64, 96
1, 577966, Note_off_c, 0, 50, 56
1, 577967, Note_off_c, 0, 53, 57
1, 577976, Note_off_c, 0, 46, 61
1, 577976, Control_c, 0, 64, 96
1, 577991, Control_c, 0, 64, 88
1, 577993, Note_on_c, 0, 81, 80
1, 578006, Control_c, 0, 64, 80
1, 578026, Note_off_c, 0, 79, 61
1, 578028, Control_c, 0, 64, 79
1, 578031, Note_on_c, 0, 82, 87
1, 578043, Control_c, 0, 64, 86
1, 578048, Note_off_c, 0, 81, 64
1, 578049, Note_off_c, 0, 82, 72
1, 578052, Note_on_c, 0, 50, 95
1, 578053, Note_on_c, 0, 53, 96
1, 578055, Note_on_c, 0, 46, 85
1, 578058, Control_c, 0, 64, 106
1, 578073, Control_c, 0, 64, 127
1, 578098, Note_on_c, 0, 86, 77
1, 578102, Note_on_c, 0, 84, 80
1, 578142, Note_off_c, 0, 53, 60
1, 578155, Note_off_c, 0, 46, 61
1, 578165, Note_off_c, 0, 84, 59
1, 578212, Note_off_c, 0, 86, 65
1, 578213, Note_off_c, 0, 50, 53
1, 578217, Note_on_c, 0, 87, 64
1, 578236, Note_off_c, 0, 87, 66
1, 578268, Note_on_c, 0, 53, 81
1, 578272, Note_on_c, 0, 88, 13
1, 578273, Note_on_c, 0, 48, 73
1, 578276, Note_on_c, 0, 41, 58
1, 578298, Note_off_c, 0, 48, 66
1, 578299, Note_on_c, 0, 91, 62
1, 578304, Note_off_c, 0, 41, 56
1, 578312, Note_off_c, 0, 53, 59
1, 578315, Note_off_c, 0, 88, 42
1, 578321, Note_off_c, 0, 91, 66
1, 578324, Note_on_c, 0, 79, 72
1, 578328, Note_on_c, 0, 81, 65
1, 578349, Note_off_c, 0, 79, 66
1, 578364, Note_off_c, 0, 81, 64
1, 578413, Control_c, 0, 64, 110
1, 578428, Control_c, 0, 64, 76
1, 578443, Control_c, 0, 64, 0
1, 578448, Note_on_c, 0, 82, 97
1, 578449, Note_on_c, 0, 94, 104
1, 578464, Note_on_c, 0, 58, 86
1, 578466, Note_off_c, 0, 82, 69
1, 578471, Note_off_c, 0, 94, 67
1, 578473, Note_on_c, 0, 50, 76
1, 578473, Control_c, 0, 64, 14
1, 578474, Note_on_c, 0, 53, 70
1, 578475, Note_on_c, 0, 46, 68
1, 578488, Control_c, 0, 64, 68
1, 578502, Control_c, 0, 64, 81
1, 578503, Note_off_c, 0, 53, 68
1, 578508, Note_off_c, 0, 46, 64
1, 578511, Note_off_c, 0, 50, 64
1, 578517, Control_c, 0, 64, 101
1, 578517, Note_off_c, 0, 58, 64
1, 578532, Control_c, 0, 64, 117
1, 578606, Control_c, 0, 64, 124
1, 578620, Control_c, 0, 64, 127
1, 578892, Note_on_c, 0, 82, 99
1, 578896, Note_on_c, 0, 74, 95
1, 578899, Note_on_c, 0, 77, 89
1, 578901, Note_on_c, 0, 58, 87
1, 578905, Note_on_c, 0, 46, 77
1, 578907, Note_on_c, 0, 53, 80
1, 578911, Note_on_c, 0, 50, 77
1, 578953, Note_off_c, 0, 74, 67
1, 578959, Note_off_c, 0, 82, 68
1, 578964, Note_off_c, 0, 77, 65
1, 579058, Note_off_c, 0, 50, 64
1, 579071, Note_off_c, 0, 58, 61
1, 579078, Note_off_c, 0, 53, 66
1, 579087, Note_off_c, 0, 46, 60
1, 579376, Note_on_c, 0, 70, 88
1, 579381, Note_on_c, 0, 65, 91
1, 579383, Note_on_c, 0, 58, 69
1, 579383, Note_on_c, 0, 62, 79
1, 579387, Note_on_c, 0, 46, 67
1, 579389, Note_on_c, 0, 53, 69
1, 579391, Note_on_c, 0, 50, 66
1, 579599, Note_off_c, 0, 62, 55
1, 579623, Note_off_c, 0, 65, 60
1, 579626, Note_off_c, 0, 70, 59
1, 579665, Note_off_c, 0, 46, 52
1, 579683, Note_off_c, 0, 50, 63
1, 579708, Note_off_c, 0, 53, 63
1, 579721, Note_off_c, 0, 58, 56
1, 579852, Control_c, 0, 67, 9
1, 579866, Control_c, 0, 67, 14
1, 579881, Control_c, 0, 67, 19
1, 579896, Control_c, 0, 64, 103
1, 579896, Control_c, 0, 67, 28
1, 579911, Control_c, 0, 64, 89
1, 579911, Control_c, 0, 67, 40
1, 579925, Control_c, 0, 64, 78
1, 579925, Control_c, 0, 67, 53
1, 579940, Control_c, 0, 64, 66
1, 579940, Control_c, 0, 67, 66
1, 579955, Control_c, 0, 64, 21
1, 579955, Control_c, 0, 67, 77
1, 579970, Control_c, 0, 64, 0
1, 579970, Control_c, 0, 67, 87
1, 579985, Control_c, 0, 67, 95
1, 579999, Control_c, 0, 67, 102
1, 580014, Control_c, 0, 67, 108
1, 580029, Control_c, 0, 67, 112
1, 580044, Control_c, 0, 67, 116
1, 580059, Control_c, 0, 67, 120
1, 580073, Control_c, 0, 67, 123
1, 580088, Control_c, 0, 67, 126
1, 580103, Control_c, 0, 67, 127
1, 580190, Note_on_c, 0, 70, 65
1, 580260, Note_off_c, 0, 70, 61
1, 580334, Control_c, 0, 64, 40
1, 580348, Control_c, 0, 64, 56
1, 580357, Note_on_c, 0, 70, 71
1, 580363, Control_c, 0, 64, 64
1, 580378, Control_c, 0, 64, 68
1, 580393, Control_c, 0, 64, 72
1, 580408, Control_c, 0, 64, 74
1, 580419, Note_off_c, 0, 70, 65
1, 580422, Control_c, 0, 64, 75
1, 580437, Control_c, 0, 64, 75
1, 580452, Control_c, 0, 64, 73
1, 580467, Control_c, 0, 64, 69
1, 580482, Control_c, 0, 64, 65
1, 580497, Control_c, 0, 64, 64
1, 580512, Note_on_c, 0, 66, 48
1, 580548, Note_off_c, 0, 66, 54
1, 580571, Control_c, 0, 64, 63
1, 580586, Control_c, 0, 64, 62
1, 580601, Control_c, 0, 64, 61
1, 580616, Control_c, 0, 64, 61
1, 580630, Control_c, 0, 64, 60
1, 580666, Note_on_c, 0, 63, 49
1, 580690, Note_off_c, 0, 63, 59
1, 580704, Control_c, 0, 64, 61
1, 580734, Control_c, 0, 64, 61
1, 580748, Control_c, 0, 64, 62
1, 580793, Control_c, 0, 64, 62
1, 580799, Note_on_c, 0, 58, 62
1, 580808, Control_c, 0, 64, 63
1, 580822, Control_c, 0, 64, 63
1, 580852, Control_c, 0, 64, 64
1, 580865, Note_off_c, 0, 58, 64
1, 580941, Note_on_c, 0, 54, 51
1, 580979, Note_off_c, 0, 54, 60
1, 581106, Note_on_c, 0, 51, 47
1, 581127, Control_c, 0, 64, 63
1, 581136, Note_off_c, 0, 51, 63
1, 581142, Control_c, 0, 64, 63
1, 581186, Control_c, 0, 64, 62
1, 581201, Control_c, 0, 64, 62
1, 581216, Control_c, 0, 64, 61
1, 581249, Note_on_c, 0, 46, 57
1, 581275, Control_c, 0, 64, 61
1, 581319, Control_c, 0, 64, 60
1, 581352, Note_off_c, 0, 46, 61
1, 581379, Control_c, 0, 64, 60
1, 581409, Control_c, 0, 64, 60
1, 581409, Note_on_c, 0, 42, 40
1, 581424, Control_c, 0, 64, 61
1, 581447, Note_off_c, 0, 42, 54
1, 581497, Control_c, 0, 64, 62
1, 581584, Note_on_c, 0, 39, 36
1, 581682, Note_off_c, 0, 39, 55
1, 581719, Control_c, 0, 64, 62
1, 581816, Control_c, 0, 64, 63
1, 581965, Control_c, 0, 64, 63
1, 581980, Control_c, 0, 64, 64
1, 581994, Control_c, 0, 64, 64
1, 582009, Control_c, 0, 64, 65
1, 582024, Control_c, 0, 64, 67
1, 582028, Note_on_c, 0, 82, 49
1, 582039, Control_c, 0, 64, 70
1, 582047, Note_on_c, 0, 70, 31
1, 582054, Control_c, 0, 64, 72
1, 582068, Control_c, 0, 64, 76
1, 582083, Control_c, 0, 64, 80
1, 582089, Note_off_c, 0, 70, 50
1, 582098, Control_c, 0, 64, 84
1, 582101, Note_off_c, 0, 82, 62
1, 582113, Control_c, 0, 64, 86
1, 582142, Control_c, 0, 64, 86
1, 582201, Note_on_c, 0, 82, 45
1, 582205, Note_on_c, 0, 70, 38
1, 582232, Control_c, 0, 64, 87
1, 582341, Note_on_c, 0, 63, 43
1, 582348, Note_on_c, 0, 66, 36
1, 582382, Note_off_c, 0, 66, 52
1, 582383, Note_off_c, 0, 63, 60
1, 582441, Note_off_c, 0, 70, 42
1, 582490, Note_on_c, 0, 66, 47
1, 582491, Note_on_c, 0, 63, 47
1, 582520, Control_c, 0, 64, 86
1, 582537, Note_off_c, 0, 66, 59
1, 582539, Note_off_c, 0, 63, 61
1, 582630, Note_on_c, 0, 83, 78
1, 582646, Note_on_c, 0, 71, 56
1, 582661, Note_on_c, 0, 66, 46
1, 582663, Note_on_c, 0, 63, 40
1, 582670, Note_off_c, 0, 82, 64
1, 582699, Note_off_c, 0, 66, 60
1, 582704, Note_off_c, 0, 63, 60
1, 582788, Control_c, 0, 64, 87
1, 582792, Note_on_c, 0, 66, 56
1, 582798, Note_on_c, 0, 63, 53
1, 582832, Note_off_c, 0, 66, 59
1, 582834, Note_off_c, 0, 63, 61
1, 582907, Note_off_c, 0, 71, 58
1, 582938, Note_on_c, 0, 66, 60
1, 582942, Note_on_c, 0, 63, 60
1, 582980, Note_off_c, 0, 66, 59
1, 582984, Note_off_c, 0, 63, 57
1, 583010, Control_c, 0, 64, 86
1, 583077, Note_on_c, 0, 84, 88
1, 583084, Control_c, 0, 64, 85
1, 583096, Note_on_c, 0, 72, 68
1, 583099, Control_c, 0, 64, 81
1, 583103, Note_on_c, 0, 68, 57
1, 583104, Note_on_c, 0, 66, 61
1, 583107, Note_on_c, 0, 63, 54
1, 583114, Control_c, 0, 64, 76
1, 583129, Control_c, 0, 64, 69
1, 583143, Control_c, 0, 64, 65
1, 583150, Note_off_c, 0, 63, 57
1, 583157, Note_off_c, 0, 66, 60
1, 583173, Control_c, 0, 64, 67
1, 583188, Control_c, 0, 64, 70
1, 583203, Control_c, 0, 64, 72
1, 583207, Note_off_c, 0, 68, 0
1, 583209, Note_off_c, 0, 83, 64
1, 583217, Control_c, 0, 64, 76
1, 583227, Note_on_c, 0, 68, 34
1, 583232, Control_c, 0, 64, 79
1, 583234, Note_on_c, 0, 66, 59
1, 583247, Control_c, 0, 64, 81
1, 583255, Note_on_c, 0, 63, 53
1, 583269, Control_c, 0, 64, 82
1, 583280, Note_off_c, 0, 66, 58
1, 583293, Note_off_c, 0, 63, 64
1, 583299, Control_c, 0, 64, 82
1, 583314, Control_c, 0, 64, 81
1, 583322, Note_off_c, 0, 68, 39
1, 583329, Control_c, 0, 64, 80
1, 583337, Note_off_c, 0, 72, 61
1, 583343, Control_c, 0, 64, 79
1, 583373, Control_c, 0, 64, 79
1, 583388, Control_c, 0, 64, 78
1, 583388, Note_on_c, 0, 63, 51
1, 583390, Note_on_c, 0, 66, 57
1, 583403, Control_c, 0, 64, 76
1, 583408, Note_on_c, 0, 68, 31
1, 583416, Control_c, 0, 64, 74
1, 583431, Control_c, 0, 64, 73
1, 583433, Note_off_c, 0, 66, 55
1, 583442, Note_off_c, 0, 68, 51
1, 583446, Control_c, 0, 64, 71
1, 583454, Note_off_c, 0, 63, 48
1, 583461, Control_c, 0, 64, 66
1, 583475, Control_c, 0, 64, 57
1, 583490, Control_c, 0, 64, 27
1, 583507, Control_c, 0, 64, 0
1, 583536, Note_on_c, 0, 68, 51
1, 583536, Control_c, 0, 64, 23
1, 583540, Note_on_c, 0, 85, 71
1, 583541, Note_on_c, 0, 65, 56
1, 583551, Control_c, 0, 64, 49
1, 583555, Note_on_c, 0, 73, 58
1, 583561, Note_on_c, 0, 61, 34
1, 583565, Control_c, 0, 64, 61
1, 583580, Control_c, 0, 64, 66
1, 583588, Note_off_c, 0, 68, 53
1, 583590, Note_off_c, 0, 84, 62
1, 583591, Note_off_c, 0, 65, 54
1, 583595, Control_c, 0, 64, 68
1, 583600, Note_off_c, 0, 61, 50
1, 583610, Control_c, 0, 64, 71
1, 583614, Note_off_c, 0, 85, 64
1, 583625, Control_c, 0, 64, 72
1, 583626, Note_off_c, 0, 73, 59
1, 583639, Control_c, 0, 64, 73
1, 583669, Control_c, 0, 64, 74
1, 583702, Note_on_c, 0, 61, 48
1, 583712, Note_on_c, 0, 68, 46
1, 583716, Note_on_c, 0, 65, 27
1, 583741, Note_off_c, 0, 61, 60
1, 583743, Note_off_c, 0, 68, 54
1, 583743, Control_c, 0, 64, 74
1, 583752, Note_off_c, 0, 65, 45
1, 583788, Control_c, 0, 64, 74
1, 583803, Control_c, 0, 64, 73
1, 583829, Note_on_c, 0, 73, 73
1, 583832, Control_c, 0, 64, 74
1, 583841, Note_on_c, 0, 68, 44
1, 583859, Note_on_c, 0, 61, 29
1, 583870, Note_off_c, 0, 68, 57
1, 583886, Note_off_c, 0, 73, 64
1, 583890, Note_off_c, 0, 61, 46
1, 583936, Control_c, 0, 64, 73
1, 583951, Control_c, 0, 64, 70
1, 583965, Control_c, 0, 64, 67
1, 583980, Control_c, 0, 64, 64
1, 583995, Note_on_c, 0, 73, 83
1, 583995, Control_c, 0, 64, 61
1, 584017, Control_c, 0, 64, 56
1, 584032, Control_c, 0, 64, 54
1, 584047, Control_c, 0, 64, 52
1, 584077, Control_c, 0, 64, 55
1, 584091, Control_c, 0, 64, 57
1, 584102, Note_off_c, 0, 73, 65
1, 584150, Note_on_c, 0, 70, 52
1, 584165, Control_c, 0, 64, 56
1, 584180, Control_c, 0, 64, 56
1, 584188, Note_off_c, 0, 70, 62
1, 584195, Control_c, 0, 64, 55
1, 584210, Control_c, 0, 64, 54
1, 584269, Control_c, 0, 64, 55
1, 584292, Note_on_c, 0, 66, 59
1, 584317, Note_off_c, 0, 66, 65
1, 584359, Control_c, 0, 64, 55
1, 584418, Control_c, 0, 64, 56
1, 584433, Control_c, 0, 64, 56
1, 584436, Note_on_c, 0, 61, 65
1, 584448, Control_c, 0, 64, 57
1, 584462, Control_c, 0, 64, 59
1, 584477, Control_c, 0, 64, 60
1, 584492, Control_c, 0, 64, 61
1, 584506, Control_c, 0, 64, 62
1, 584512, Note_off_c, 0, 61, 63
1, 584551, Control_c, 0, 64, 61
1, 584592, Note_on_c, 0, 58, 47
1, 584610, Control_c, 0, 64, 61
1, 584627, Note_off_c, 0, 58, 61
1, 584727, Note_on_c, 0, 54, 52
1, 584765, Note_off_c, 0, 54, 65
1, 584766, Control_c, 0, 64, 61
1, 584880, Note_on_c, 0, 49, 58
1, 584929, Control_c, 0, 64, 61
1, 585011, Note_off_c, 0, 49, 63
1, 585018, Control_c, 0, 64, 62
1, 585030, Note_on_c, 0, 46, 57
1, 585033, Control_c, 0, 64, 62
1, 585078, Note_off_c, 0, 46, 55
1, 585227, Note_on_c, 0, 42, 44
1, 585256, Control_c, 0, 64, 62
1, 585285, Control_c, 0, 64, 61
1, 585300, Control_c, 0, 64, 60
1, 585315, Control_c, 0, 64, 59
1, 585322, Note_off_c, 0, 42, 56
1, 585374, Control_c, 0, 64, 57
1, 585389, Control_c, 0, 64, 56
1, 585403, Control_c, 0, 64, 54
1, 585418, Control_c, 0, 64, 51
1, 585433, Control_c, 0, 64, 51
1, 585463, Control_c, 0, 64, 51
1, 585478, Control_c, 0, 64, 51
1, 585493, Control_c, 0, 64, 49
1, 585515, Control_c, 0, 64, 48
1, 585530, Control_c, 0, 64, 51
1, 585544, Control_c, 0, 64, 53
1, 585559, Control_c, 0, 64, 55
1, 585574, Control_c, 0, 64, 59
1, 585589, Control_c, 0, 64, 63
1, 585604, Control_c, 0, 64, 65
1, 585627, Note_on_c, 0, 85, 44
1, 585633, Control_c, 0, 64, 66
1, 585648, Control_c, 0, 64, 68
1, 585657, Note_on_c, 0, 73, 32
1, 585663, Control_c, 0, 64, 72
1, 585678, Control_c, 0, 64, 76
1, 585692, Control_c, 0, 64, 78
1, 585701, Note_off_c, 0, 73, 50
1, 585701, Note_off_c, 0, 85, 54
1, 585737, Control_c, 0, 64, 79
1, 585752, Control_c, 0, 64, 79
1, 585767, Control_c, 0, 64, 80
1, 585782, Control_c, 0, 64, 81
1, 585805, Note_on_c, 0, 85, 42
1, 585844, Note_on_c, 0, 73, 26
1, 585886, Control_c, 0, 64, 81
1, 585916, Control_c, 0, 64, 82
1, 585931, Control_c, 0, 64, 82
1, 585946, Note_on_c, 0, 70, 37
1, 585946, Control_c, 0, 64, 83
1, 585947, Note_on_c, 0, 66, 31
1, 585960, Control_c, 0, 64, 85
1, 585975, Control_c, 0, 64, 86
1, 585977, Note_off_c, 0, 70, 55
1, 585983, Note_off_c, 0, 66, 52
1, 585990, Control_c, 0, 64, 87
1, 586020, Control_c, 0, 64, 87
1, 586022, Note_off_c, 0, 73, 44
1, 586085, Note_on_c, 0, 70, 42
1, 586097, Note_on_c, 0, 66, 32
1, 586125, Note_off_c, 0, 70, 62
1, 586137, Note_off_c, 0, 66, 50
1, 586167, Control_c, 0, 64, 87
1, 586197, Control_c, 0, 64, 86
1, 586212, Control_c, 0, 64, 84
1, 586227, Control_c, 0, 64, 82
1, 586236, Note_on_c, 0, 66, 49
1, 586238, Note_on_c, 0, 87, 61
1, 586241, Control_c, 0, 64, 79
1, 586253, Note_on_c, 0, 71, 44
1, 586263, Note_on_c, 0, 75, 41
1, 586264, Control_c, 0, 64, 77
1, 586279, Control_c, 0, 64, 74
1, 586290, Note_off_c, 0, 66, 57
1, 586293, Control_c, 0, 64, 71
1, 586304, Note_off_c, 0, 71, 61
1, 586308, Control_c, 0, 64, 71
1, 586322, Note_off_c, 0, 85, 45
1, 586323, Control_c, 0, 64, 71
1, 586338, Control_c, 0, 64, 73
1, 586353, Control_c, 0, 64, 76
1, 586367, Control_c, 0, 64, 79
1, 586382, Control_c, 0, 64, 80
1, 586397, Control_c, 0, 64, 81
1, 586405, Note_on_c, 0, 66, 45
1, 586412, Control_c, 0, 64, 82
1, 586426, Note_on_c, 0, 71, 10
1, 586427, Control_c, 0, 64, 84
1, 586436, Note_off_c, 0, 66, 56
1, 586441, Control_c, 0, 64, 85
1, 586469, Note_off_c, 0, 71, 42
1, 586500, Control_c, 0, 64, 84
1, 586539, Note_on_c, 0, 66, 47
1, 586545, Control_c, 0, 64, 84
1, 586560, Control_c, 0, 64, 83
1, 586578, Note_off_c, 0, 66, 60
1, 586634, Control_c, 0, 64, 83
1, 586649, Control_c, 0, 64, 81
1, 586664, Control_c, 0, 64, 77
1, 586679, Control_c, 0, 64, 73
1, 586688, Note_on_c, 0, 66, 48
1, 586694, Control_c, 0, 64, 70
1, 586699, Note_on_c, 0, 72, 42
1, 586709, Control_c, 0, 64, 69
1, 586724, Control_c, 0, 64, 70
1, 586731, Note_off_c, 0, 75, 45
1, 586739, Control_c, 0, 64, 72
1, 586745, Note_off_c, 0, 66, 54
1, 586750, Note_off_c, 0, 72, 49
1, 586754, Control_c, 0, 64, 72
1, 586769, Control_c, 0, 64, 73
1, 586783, Control_c, 0, 64, 76
1, 586798, Control_c, 0, 64, 80
1, 586813, Control_c, 0, 64, 86
1, 586828, Control_c, 0, 64, 89
1, 586837, Note_on_c, 0, 66, 47
1, 586847, Note_on_c, 0, 72, 46
1, 586857, Control_c, 0, 64, 90
1, 586876, Note_off_c, 0, 72, 53
1, 586877, Note_off_c, 0, 66, 59
1, 586983, Note_on_c, 0, 72, 47
1, 586995, Note_on_c, 0, 66, 44
1, 587028, Control_c, 0, 64, 89
1, 587037, Note_off_c, 0, 66, 60
1, 587046, Note_off_c, 0, 72, 58
1, 587102, Control_c, 0, 64, 88
1, 587111, Poly_aftertouch_c, 0, 85, 127
1, 587116, Control_c, 0, 64, 87
1, 587131, Control_c, 0, 64, 86
1, 587146, Note_on_c, 0, 88, 82
1, 587146, Control_c, 0, 64, 84
1, 587150, Poly_aftertouch_c, 0, 85, 0
1, 587161, Control_c, 0, 64, 82
1, 587167, Note_on_c, 0, 73, 54
1, 587176, Control_c, 0, 64, 79
1, 587182, Note_on_c, 0, 76, 45
1, 587186, Note_off_c, 0, 87, 65
1, 587190, Control_c, 0, 64, 76
1, 587198, Note_on_c, 0, 66, 20
1, 587205, Control_c, 0, 64, 73
1, 587216, Note_off_c, 0, 73, 59
1, 587220, Control_c, 0, 64, 71
1, 587234, Note_off_c, 0, 66, 53
1, 587235, Control_c, 0, 64, 70
1, 587250, Control_c, 0, 64, 71
1, 587264, Control_c, 0, 64, 72
1, 587279, Control_c, 0, 64, 73
1, 587294, Control_c, 0, 64, 75
1, 587308, Control_c, 0, 64, 76
1, 587308, Control_c, 0, 67, 127
1, 587318, Note_on_c, 0, 66, 50
1, 587320, Note_on_c, 0, 73, 45
1, 587323, Control_c, 0, 67, 126
1, 587338, Control_c, 0, 67, 126
1, 587347, Note_off_c, 0, 66, 60
1, 587353, Control_c, 0, 64, 76
1, 587353, Control_c, 0, 67, 125
1, 587356, Note_off_c, 0, 73, 51
1, 587368, Control_c, 0, 64, 77
1, 587368, Control_c, 0, 67, 124
1, 587383, Control_c, 0, 64, 78
1, 587383, Control_c, 0, 67, 122
1, 587398, Control_c, 0, 67, 119
1, 587412, Control_c, 0, 67, 116
1, 587427, Control_c, 0, 67, 113
1, 587442, Control_c, 0, 64, 78
1, 587442, Control_c, 0, 67, 110
1, 587444, Note_on_c, 0, 66, 47
1, 587451, Note_on_c, 0, 73, 53
1, 587457, Control_c, 0, 64, 79
1, 587457, Control_c, 0, 67, 107
1, 587472, Control_c, 0, 67, 104
1, 587487, Control_c, 0, 67, 101
1, 587494, Note_off_c, 0, 66, 59
1, 587497, Note_off_c, 0, 73, 58
1, 587502, Control_c, 0, 67, 98
1, 587517, Control_c, 0, 64, 79
1, 587517, Control_c, 0, 67, 94
1, 587532, Control_c, 0, 67, 90
1, 587547, Control_c, 0, 67, 83
1, 587561, Control_c, 0, 67, 77
1, 587576, Control_c, 0, 67, 71
1, 587591, Control_c, 0, 67, 65
1, 587600, Note_on_c, 0, 66, 54
1, 587606, Control_c, 0, 67, 59
1, 587610, Note_on_c, 0, 73, 53
1, 587621, Control_c, 0, 67, 54
1, 587636, Control_c, 0, 67, 50
1, 587636, Note_off_c, 0, 66, 62
1, 587649, Note_off_c, 0, 73, 53
1, 587651, Control_c, 0, 67, 46
1, 587666, Control_c, 0, 67, 42
1, 587680, Control_c, 0, 67, 38
1, 587695, Control_c, 0, 67, 34
1, 587710, Control_c, 0, 67, 29
1, 587725, Control_c, 0, 67, 24
1, 587739, Control_c, 0, 67, 19
1, 587740, Note_on_c, 0, 66, 50
1, 587757, Note_off_c, 0, 76, 60
1, 587758, Note_on_c, 0, 73, 51
1, 587761, Control_c, 0, 67, 13
1, 587776, Control_c, 0, 67, 8
1, 587785, Note_off_c, 0, 66, 60
1, 587791, Control_c, 0, 64, 79
1, 587791, Control_c, 0, 67, 0
1, 587800, Note_off_c, 0, 73, 53
1, 587895, Control_c, 0, 64, 78
1, 587895, Note_on_c, 0, 66, 55
1, 587904, Note_on_c, 0, 73, 53
1, 587931, Note_off_c, 0, 66, 63
1, 587936, Note_off_c, 0, 73, 61
1, 588013, Control_c, 0, 64, 78
1, 588024, Note_on_c, 0, 90, 86
1, 588028, Control_c, 0, 64, 77
1, 588043, Control_c, 0, 64, 75
1, 588044, Note_on_c, 0, 78, 56
1, 588044, Note_on_c, 0, 66, 48
1, 588044, Note_on_c, 0, 75, 52
1, 588057, Control_c, 0, 64, 71
1, 588072, Control_c, 0, 64, 69
1, 588083, Note_off_c, 0, 75, 61
1, 588085, Note_off_c, 0, 66, 60
1, 588087, Control_c, 0, 64, 68
1, 588095, Note_off_c, 0, 88, 63
1, 588102, Control_c, 0, 64, 69
1, 588117, Control_c, 0, 64, 70
1, 588131, Control_c, 0, 64, 72
1, 588146, Control_c, 0, 64, 75
1, 588161, Control_c, 0, 64, 78
1, 588176, Control_c, 0, 64, 79
1, 588188, Note_on_c, 0, 66, 53
1, 588189, Note_on_c, 0, 75, 56
1, 588191, Control_c, 0, 64, 81
1, 588205, Control_c, 0, 64, 84
1, 588220, Control_c, 0, 64, 88
1, 588225, Note_off_c, 0, 66, 61
1, 588228, Note_off_c, 0, 75, 56
1, 588235, Control_c, 0, 64, 92
1, 588250, Control_c, 0, 64, 92
1, 588313, Note_off_c, 0, 78, 56
1, 588328, Note_on_c, 0, 66, 56
1, 588337, Note_on_c, 0, 75, 57
1, 588364, Note_off_c, 0, 66, 62
1, 588372, Note_off_c, 0, 75, 50
1, 588444, Control_c, 0, 64, 91
1, 588459, Control_c, 0, 64, 89
1, 588473, Note_on_c, 0, 91, 91
1, 588474, Control_c, 0, 64, 86
1, 588477, Note_on_c, 0, 66, 55
1, 588478, Note_on_c, 0, 76, 59
1, 588488, Control_c, 0, 64, 82
1, 588510, Control_c, 0, 64, 78
1, 588511, Note_on_c, 0, 79, 52
1, 588525, Control_c, 0, 64, 75
1, 588530, Note_off_c, 0, 66, 54
1, 588536, Note_off_c, 0, 76, 55
1, 588540, Control_c, 0, 64, 74
1, 588569, Control_c, 0, 64, 75
1, 588575, Note_off_c, 0, 90, 58
1, 588584, Control_c, 0, 64, 77
1, 588590, Note_off_c, 0, 79, 0
1, 588590, Note_on_c, 0, 79, 23
1, 588599, Control_c, 0, 64, 79
1, 588614, Control_c, 0, 64, 81
1, 588629, Control_c, 0, 64, 83
1, 588638, Note_on_c, 0, 76, 62
1, 588641, Note_on_c, 0, 66, 56
1, 588644, Control_c, 0, 64, 84
1, 588658, Control_c, 0, 64, 84
1, 588665, Note_off_c, 0, 66, 62
1, 588674, Note_off_c, 0, 76, 59
1, 588718, Control_c, 0, 64, 85
1, 588733, Control_c, 0, 64, 85
1, 588748, Control_c, 0, 64, 86
1, 588763, Note_off_c, 0, 79, 38
1, 588767, Note_on_c, 0, 66, 56
1, 588770, Note_on_c, 0, 76, 59
1, 588792, Control_c, 0, 64, 86
1, 588808, Note_off_c, 0, 66, 58
1, 588812, Note_off_c, 0, 76, 54
1, 588836, Control_c, 0, 64, 87
1, 588851, Control_c, 0, 64, 87
1, 588866, Control_c, 0, 64, 88
1, 588895, Control_c, 0, 64, 89
1, 588917, Note_on_c, 0, 92, 91
1, 588930, Note_on_c, 0, 76, 62
1, 588931, Note_on_c, 0, 66, 55
1, 588940, Control_c, 0, 64, 88
1, 588941, Note_on_c, 0, 80, 61
1, 588964, Note_off_c, 0, 66, 62
1, 588969, Note_off_c, 0, 76, 53
1, 589020, Note_off_c, 0, 91, 61
1, 589069, Note_on_c, 0, 66, 56
1, 589071, Note_on_c, 0, 76, 58
1, 589074, Control_c, 0, 64, 88
1, 589106, Note_off_c, 0, 66, 62
1, 589110, Note_off_c, 0, 76, 57
1, 589216, Note_on_c, 0, 66, 52
1, 589217, Note_on_c, 0, 76, 58
1, 589261, Note_off_c, 0, 66, 61
1, 589261, Note_off_c, 0, 76, 58
1, 589362, Note_on_c, 0, 66, 56
1, 589369, Note_on_c, 0, 76, 55
1, 589401, Note_off_c, 0, 76, 52
1, 589406, Note_off_c, 0, 66, 59
1, 589437, Control_c, 0, 67, 9
1, 589452, Control_c, 0, 67, 12
1, 589466, Control_c, 0, 67, 15
1, 589481, Control_c, 0, 67, 18
1, 589496, Control_c, 0, 67, 22
1, 589507, Note_on_c, 0, 66, 54
1, 589508, Note_on_c, 0, 76, 45
1, 589511, Control_c, 0, 67, 26
1, 589526, Control_c, 0, 67, 30
1, 589541, Note_off_c, 0, 76, 50
1, 589541, Control_c, 0, 67, 34
1, 589544, Note_off_c, 0, 66, 62
1, 589556, Control_c, 0, 67, 41
1, 589571, Control_c, 0, 67, 47
1, 589582, Note_off_c, 0, 80, 56
1, 589585, Control_c, 0, 67, 51
1, 589600, Control_c, 0, 67, 55
1, 589615, Control_c, 0, 67, 59
1, 589629, Control_c, 0, 67, 63
1, 589644, Control_c, 0, 67, 68
1, 589645, Note_on_c, 0, 76, 55
1, 589648, Note_on_c, 0, 66, 50
1, 589659, Control_c, 0, 67, 72
1, 589674, Control_c, 0, 67, 76
1, 589678, Note_off_c, 0, 76, 57
1, 589682, Note_off_c, 0, 66, 64
1, 589689, Control_c, 0, 67, 79
1, 589703, Control_c, 0, 67, 82
1, 589718, Control_c, 0, 64, 86
1, 589718, Control_c, 0, 67, 85
1, 589733, Control_c, 0, 64, 83
1, 589733, Control_c, 0, 67, 91
1, 589748, Control_c, 0, 64, 78
1, 589748, Control_c, 0, 67, 97
1, 589763, Control_c, 0, 64, 73
1, 589763, Control_c, 0, 67, 101
1, 589777, Control_c, 0, 64, 67
1, 589777, Control_c, 0, 67, 104
1, 589788, Note_on_c, 0, 90, 80
1, 589792, Control_c, 0, 64, 65
1, 589792, Control_c, 0, 67, 107
1, 589799, Note_on_c, 0, 75, 51
1, 589807, Control_c, 0, 67, 110
1, 589810, Note_on_c, 0, 66, 37
1, 589822, Control_c, 0, 64, 66
1, 589822, Control_c, 0, 67, 113
1, 589827, Note_on_c, 0, 78, 41
1, 589836, Control_c, 0, 64, 68
1, 589836, Control_c, 0, 67, 115
1, 589846, Note_off_c, 0, 75, 57
1, 589851, Note_off_c, 0, 66, 56
1, 589851, Control_c, 0, 64, 70
1, 589851, Control_c, 0, 67, 117
1, 589866, Control_c, 0, 64, 71
1, 589866, Control_c, 0, 67, 118
1, 589882, Control_c, 0, 64, 73
1, 589882, Control_c, 0, 67, 120
1, 589896, Note_off_c, 0, 92, 66
1, 589897, Control_c, 0, 64, 76
1, 589897, Control_c, 0, 67, 122
1, 589912, Control_c, 0, 64, 82
1, 589912, Control_c, 0, 67, 123
1, 589926, Control_c, 0, 64, 92
1, 589926, Control_c, 0, 67, 125
1, 589941, Control_c, 0, 64, 99
1, 589941, Control_c, 0, 67, 125
1, 589949, Note_on_c, 0, 75, 53
1, 589956, Control_c, 0, 64, 100
1, 589974, Note_on_c, 0, 66, 22
1, 589979, Note_off_c, 0, 75, 52
1, 590021, Note_off_c, 0, 66, 53
1, 590024, Note_off_c, 0, 90, 64
1, 590038, Control_c, 0, 67, 126
1, 590046, Note_off_c, 0, 78, 61
1, 590068, Control_c, 0, 64, 99
1, 590082, Control_c, 0, 64, 97
1, 590092, Note_on_c, 0, 75, 37
1, 590097, Control_c, 0, 64, 96
1, 590112, Control_c, 0, 64, 94
1, 590123, Note_off_c, 0, 75, 53
1, 590126, Control_c, 0, 64, 92
1, 590129, Note_on_c, 0, 66, 16
1, 590141, Control_c, 0, 64, 90
1, 590157, Control_c, 0, 64, 89
1, 590170, Note_off_c, 0, 66, 53
1, 590172, Control_c, 0, 64, 87
1, 590187, Control_c, 0, 64, 85
1, 590187, Control_c, 0, 67, 125
1, 590201, Control_c, 0, 64, 82
1, 590216, Control_c, 0, 64, 77
1, 590225, Note_on_c, 0, 88, 73
1, 590231, Control_c, 0, 64, 72
1, 590246, Control_c, 0, 64, 68
1, 590248, Note_on_c, 0, 73, 47
1, 590260, Control_c, 0, 64, 68
1, 590260, Control_c, 0, 67, 125
1, 590262, Note_on_c, 0, 76, 35
1, 590274, Note_on_c, 0, 66, 24
1, 590275, Control_c, 0, 64, 70
1, 590282, Note_off_c, 0, 73, 53
1, 590290, Control_c, 0, 64, 72
1, 590305, Note_off_c, 0, 66, 46
1, 590305, Control_c, 0, 64, 76
1, 590305, Control_c, 0, 67, 124
1, 590320, Control_c, 0, 64, 81
1, 590334, Control_c, 0, 64, 85
1, 590349, Control_c, 0, 64, 87
1, 590364, Control_c, 0, 64, 89
1, 590373, Note_on_c, 0, 73, 56
1, 590379, Control_c, 0, 64, 90
1, 590391, Note_on_c, 0, 66, 46
1, 590408, Note_off_c, 0, 73, 59
1, 590422, Note_off_c, 0, 66, 54
1, 590435, Note_off_c, 0, 88, 61
1, 590441, Note_off_c, 0, 76, 54
1, 590453, Control_c, 0, 67, 124
1, 590483, Control_c, 0, 67, 123
1, 590517, Note_on_c, 0, 66, 57
1, 590522, Note_on_c, 0, 73, 49
1, 590527, Control_c, 0, 67, 123
1, 590549, Note_off_c, 0, 73, 56
1, 590554, Note_off_c, 0, 66, 57
1, 590572, Control_c, 0, 67, 122
1, 590601, Control_c, 0, 64, 89
1, 590616, Control_c, 0, 64, 87
1, 590631, Control_c, 0, 64, 81
1, 590646, Control_c, 0, 64, 75
1, 590659, Note_on_c, 0, 85, 66
1, 590660, Control_c, 0, 64, 71
1, 590662, Note_on_c, 0, 73, 48
1, 590669, Note_on_c, 0, 70, 47
1, 590671, Note_on_c, 0, 66, 51
1, 590676, Control_c, 0, 64, 69
1, 590682, Note_on_c, 0, 64, 39
1, 590691, Control_c, 0, 64, 70
1, 590706, Control_c, 0, 64, 71
1, 590715, Note_off_c, 0, 64, 55
1, 590715, Note_off_c, 0, 70, 59
1, 590716, Note_off_c, 0, 66, 58
1, 590721, Control_c, 0, 64, 74
1, 590736, Control_c, 0, 64, 78
1, 590757, Control_c, 0, 64, 81
1, 590772, Control_c, 0, 64, 84
1, 590787, Control_c, 0, 64, 86
1, 590802, Control_c, 0, 64, 89
1, 590817, Control_c, 0, 64, 91
1, 590820, Note_off_c, 0, 73, 49
1, 590823, Note_on_c, 0, 64, 45
1, 590826, Note_on_c, 0, 70, 46
1, 590832, Control_c, 0, 64, 93
1, 590832, Note_on_c, 0, 66, 32
1, 590846, Control_c, 0, 64, 94
1, 590859, Note_off_c, 0, 64, 50
1, 590861, Control_c, 0, 64, 95
1, 590862, Note_off_c, 0, 70, 51
1, 590866, Note_off_c, 0, 66, 52
1, 590876, Control_c, 0, 64, 96
1, 590888, Note_off_c, 0, 85, 35
1, 590891, Control_c, 0, 64, 97
1, 590969, Note_on_c, 0, 66, 42
1, 590971, Note_on_c, 0, 70, 41
1, 590972, Note_on_c, 0, 64, 43
1, 590994, Control_c, 0, 67, 122
1, 590997, Note_off_c, 0, 66, 56
1, 590999, Note_off_c, 0, 64, 58
1, 591004, Note_off_c, 0, 70, 53
1, 591009, Control_c, 0, 67, 121
1, 591023, Control_c, 0, 67, 121
1, 591053, Control_c, 0, 64, 95
1, 591053, Control_c, 0, 67, 120
1, 591068, Control_c, 0, 64, 91
1, 591082, Control_c, 0, 64, 85
1, 591097, Control_c, 0, 64, 81
1, 591112, Control_c, 0, 64, 79
1, 591118, Note_on_c, 0, 87, 70
1, 591122, Note_on_c, 0, 66, 36
1, 591136, Note_on_c, 0, 75, 46
1, 591137, Note_on_c, 0, 63, 34
1, 591142, Control_c, 0, 64, 79
1, 591156, Control_c, 0, 64, 80
1, 591171, Control_c, 0, 64, 81
1, 591181, Note_off_c, 0, 66, 62
1, 591186, Control_c, 0, 64, 81
1, 591224, Note_off_c, 0, 75, 0
1, 591227, Note_on_c, 0, 68, 37
1, 591231, Control_c, 0, 64, 82
1, 591258, Note_off_c, 0, 68, 56
1, 591261, Poly_aftertouch_c, 0, 75, 127
1, 591285, Note_on_c, 0, 66, 46
1, 591318, Note_off_c, 0, 66, 64
1, 591347, Poly_aftertouch_c, 0, 75, 0
1, 591358, Note_on_c, 0, 68, 44
1, 591365, Note_off_c, 0, 63, 53
1, 591400, Note_off_c, 0, 68, 62
1, 591413, Note_on_c, 0, 80, 68
1, 591416, Note_on_c, 0, 66, 51
1, 591461, Note_off_c, 0, 66, 59
1, 591517, Note_on_c, 0, 68, 36
1, 591520, Note_off_c, 0, 87, 38
1, 591520, Control_c, 0, 64, 81
1, 591535, Control_c, 0, 64, 80
1, 591546, Note_off_c, 0, 68, 54
1, 591550, Control_c, 0, 64, 79
1, 591570, Note_on_c, 0, 59, 58
1, 591573, Note_on_c, 0, 78, 73
1, 591574, Note_on_c, 0, 66, 55
1, 591595, Control_c, 0, 64, 80
1, 591595, Control_c, 0, 67, 120
1, 591609, Note_off_c, 0, 66, 61
1, 591610, Control_c, 0, 64, 81
1, 591624, Control_c, 0, 64, 82
1, 591624, Control_c, 0, 67, 119
1, 591651, Note_on_c, 0, 68, 44
1, 591669, Control_c, 0, 64, 83
1, 591669, Control_c, 0, 67, 119
1, 591684, Control_c, 0, 67, 118
1, 591699, Control_c, 0, 67, 118
1, 591701, Note_off_c, 0, 68, 60
1, 591713, Control_c, 0, 67, 117
1, 591716, Note_on_c, 0, 66, 59
1, 591728, Control_c, 0, 67, 116
1, 591732, Note_off_c, 0, 80, 33
1, 591743, Control_c, 0, 67, 115
1, 591758, Control_c, 0, 67, 115
1, 591762, Note_off_c, 0, 66, 60
1, 591772, Control_c, 0, 67, 114
1, 591787, Control_c, 0, 67, 114
1, 591793, Note_on_c, 0, 68, 56
1, 591845, Note_off_c, 0, 68, 61
1, 591863, Note_on_c, 0, 75, 71
1, 591869, Note_on_c, 0, 66, 63
1, 591873, Note_off_c, 0, 59, 47
1, 591905, Note_off_c, 0, 66, 59
1, 591934, Note_on_c, 0, 68, 61
1, 591940, Note_off_c, 0, 75, 63
1, 591965, Control_c, 0, 64, 83
1, 591979, Note_off_c, 0, 68, 55
1, 591979, Control_c, 0, 64, 80
1, 591994, Control_c, 0, 64, 75
1, 592009, Control_c, 0, 64, 70
1, 592013, Note_on_c, 0, 85, 78
1, 592020, Note_on_c, 0, 66, 57
1, 592021, Note_on_c, 0, 58, 56
1, 592022, Note_on_c, 0, 73, 64
1, 592024, Control_c, 0, 64, 66
1, 592039, Control_c, 0, 67, 113
1, 592054, Control_c, 0, 64, 68
1, 592054, Control_c, 0, 67, 113
1, 592069, Note_off_c, 0, 66, 57
1, 592069, Control_c, 0, 64, 70
1, 592084, Control_c, 0, 64, 73
1, 592087, Note_on_c, 0, 68, 65
1, 592097, Note_off_c, 0, 78, 56
1, 592098, Control_c, 0, 64, 76
1, 592107, Note_off_c, 0, 58, 56
1, 592113, Control_c, 0, 64, 79
1, 592128, Control_c, 0, 64, 81
1, 592143, Control_c, 0, 64, 81
1, 592146, Note_off_c, 0, 68, 61
1, 592170, Note_on_c, 0, 66, 67
1, 592187, Control_c, 0, 67, 113
1, 592214, Note_off_c, 0, 66, 59
1, 592233, Note_on_c, 0, 68, 71
1, 592253, Control_c, 0, 67, 114
1, 592268, Control_c, 0, 64, 81
1, 592284, Control_c, 0, 64, 80
1, 592297, Note_off_c, 0, 68, 60
1, 592317, Note_on_c, 0, 66, 67
1, 592318, Note_on_c, 0, 80, 79
1, 592370, Note_off_c, 0, 66, 61
1, 592376, Note_on_c, 0, 68, 64
1, 592392, Note_off_c, 0, 73, 59
1, 592402, Control_c, 0, 64, 79
1, 592417, Note_off_c, 0, 85, 56
1, 592417, Control_c, 0, 64, 75
1, 592432, Control_c, 0, 64, 70
1, 592439, Note_off_c, 0, 68, 60
1, 592447, Control_c, 0, 64, 65
1, 592458, Note_on_c, 0, 66, 65
1, 592462, Control_c, 0, 64, 64
1, 592464, Note_on_c, 0, 78, 82
1, 592466, Note_on_c, 0, 64, 62
1, 592477, Control_c, 0, 67, 114
1, 592492, Control_c, 0, 64, 65
1, 592492, Control_c, 0, 67, 115
1, 592507, Control_c, 0, 64, 67
1, 592507, Control_c, 0, 67, 115
1, 592516, Note_off_c, 0, 66, 62
1, 592522, Control_c, 0, 64, 70
1, 592522, Control_c, 0, 67, 116
1, 592536, Control_c, 0, 64, 74
1, 592536, Control_c, 0, 67, 117
1, 592546, Note_on_c, 0, 68, 64
1, 592551, Control_c, 0, 64, 79
1, 592551, Control_c, 0, 67, 118
1, 592566, Control_c, 0, 64, 83
1, 592566, Control_c, 0, 67, 118
1, 592581, Control_c, 0, 64, 88
1, 592581, Control_c, 0, 67, 119
1, 592595, Note_off_c, 0, 68, 59
1, 592596, Control_c, 0, 64, 91
1, 592596, Control_c, 0, 67, 119
1, 592608, Note_on_c, 0, 66, 67
1, 592608, Note_off_c, 0, 80, 39
1, 592611, Control_c, 0, 64, 94
1, 592611, Control_c, 0, 67, 120
1, 592626, Control_c, 0, 64, 95
1, 592626, Control_c, 0, 67, 121
1, 592641, Control_c, 0, 64, 96
1, 592641, Control_c, 0, 67, 121
1, 592655, Control_c, 0, 64, 97
1, 592655, Control_c, 0, 67, 122
1, 592660, Note_off_c, 0, 66, 57
1, 592670, Control_c, 0, 64, 98
1, 592680, Note_on_c, 0, 68, 67
1, 592685, Control_c, 0, 64, 100
1, 592700, Control_c, 0, 64, 101
1, 592715, Control_c, 0, 64, 102
1, 592730, Note_off_c, 0, 64, 38
1, 592737, Note_off_c, 0, 68, 61
1, 592745, Note_on_c, 0, 73, 64
1, 592752, Note_on_c, 0, 66, 63
1, 592758, Note_off_c, 0, 78, 57
1, 592759, Control_c, 0, 67, 121
1, 592776, Note_off_c, 0, 73, 66
1, 592788, Note_off_c, 0, 66, 61
1, 592789, Control_c, 0, 67, 121
1, 592803, Control_c, 0, 67, 120
1, 592833, Control_c, 0, 64, 101
1, 592833, Control_c, 0, 67, 119
1, 592844, Note_on_c, 0, 68, 49
1, 592847, Control_c, 0, 64, 98
1, 592862, Control_c, 0, 64, 95
1, 592877, Control_c, 0, 64, 90
1, 592884, Note_off_c, 0, 68, 46
1, 592892, Control_c, 0, 64, 85
1, 592892, Control_c, 0, 67, 119
1, 592894, Note_on_c, 0, 87, 69
1, 592905, Note_on_c, 0, 78, 49
1, 592907, Control_c, 0, 64, 77
1, 592916, Note_on_c, 0, 63, 52
1, 592921, Note_on_c, 0, 59, 44
1, 592921, Control_c, 0, 64, 69
1, 592936, Control_c, 0, 64, 64
1, 592951, Control_c, 0, 64, 63
1, 592954, Note_off_c, 0, 78, 57
1, 592966, Control_c, 0, 64, 61
1, 592981, Control_c, 0, 64, 61
1, 592987, Note_on_c, 0, 80, 57
1, 593003, Control_c, 0, 64, 63
1, 593018, Control_c, 0, 64, 65
1, 593033, Control_c, 0, 64, 68
1, 593040, Note_off_c, 0, 80, 56
1, 593047, Control_c, 0, 64, 71
1, 593062, Control_c, 0, 64, 74
1, 593066, Note_on_c, 0, 78, 62
1, 593078, Control_c, 0, 64, 78
1, 593093, Control_c, 0, 64, 81
1, 593108, Control_c, 0, 64, 84
1, 593112, Note_off_c, 0, 78, 57
1, 593123, Control_c, 0, 64, 84
1, 593136, Note_on_c, 0, 80, 71
1, 593183, Control_c, 0, 67, 118
1, 593188, Note_off_c, 0, 80, 56
1, 593198, Control_c, 0, 67, 117
1, 593209, Note_on_c, 0, 68, 80
1, 593212, Note_on_c, 0, 78, 72
1, 593213, Control_c, 0, 64, 85
1, 593213, Control_c, 0, 67, 117
1, 593227, Control_c, 0, 67, 116
1, 593228, Note_off_c, 0, 87, 39
1, 593257, Control_c, 0, 64, 84
1, 593268, Note_off_c, 0, 63, 60
1, 593272, Control_c, 0, 64, 81
1, 593272, Control_c, 0, 67, 116
1, 593286, Note_on_c, 0, 80, 67
1, 593286, Control_c, 0, 64, 77
1, 593286, Control_c, 0, 67, 115
1, 593301, Control_c, 0, 64, 72
1, 593301, Control_c, 0, 67, 114
1, 593308, Note_off_c, 0, 78, 51
1, 593316, Control_c, 0, 64, 69
1, 593316, Control_c, 0, 67, 114
1, 593331, Control_c, 0, 64, 68
1, 593346, Note_off_c, 0, 80, 61
1, 593346, Control_c, 0, 64, 69
1, 593346, Control_c, 0, 67, 113
1, 593350, Note_on_c, 0, 83, 68
1, 593358, Note_on_c, 0, 66, 81
1, 593360, Control_c, 0, 64, 71
1, 593360, Control_c, 0, 67, 113
1, 593375, Control_c, 0, 64, 73
1, 593375, Control_c, 0, 67, 112
1, 593390, Control_c, 0, 64, 75
1, 593390, Control_c, 0, 67, 111
1, 593405, Control_c, 0, 64, 77
1, 593405, Control_c, 0, 67, 111
1, 593420, Control_c, 0, 64, 80
1, 593420, Control_c, 0, 67, 110
1, 593431, Note_on_c, 0, 80, 62
1, 593434, Control_c, 0, 64, 83
1, 593434, Control_c, 0, 67, 109
1, 593437, Note_off_c, 0, 68, 57
1, 593449, Control_c, 0, 64, 85
1, 593449, Control_c, 0, 67, 106
1, 593464, Control_c, 0, 64, 86
1, 593464, Control_c, 0, 67, 104
1, 593479, Control_c, 0, 67, 100
1, 593493, Control_c, 0, 67, 97
1, 593496, Note_off_c, 0, 80, 62
1, 593505, Note_on_c, 0, 78, 65
1, 593508, Control_c, 0, 67, 93
1, 593523, Control_c, 0, 67, 88
1, 593538, Control_c, 0, 64, 85
1, 593538, Control_c, 0, 67, 82
1, 593542, Note_off_c, 0, 66, 59
1, 593553, Control_c, 0, 67, 76
1, 593568, Control_c, 0, 67, 68
1, 593568, Note_off_c, 0, 78, 60
1, 593574, Note_on_c, 0, 80, 65
1, 593583, Control_c, 0, 67, 62
1, 593598, Control_c, 0, 64, 85
1, 593598, Control_c, 0, 67, 59
1, 593613, Control_c, 0, 67, 58
1, 593621, Note_off_c, 0, 59, 61
1, 593627, Control_c, 0, 64, 84
1, 593627, Control_c, 0, 67, 57
1, 593631, Note_off_c, 0, 80, 61
1, 593642, Control_c, 0, 64, 84
1, 593642, Control_c, 0, 67, 56
1, 593646, Note_on_c, 0, 63, 74
1, 593648, Note_on_c, 0, 78, 70
1, 593657, Control_c, 0, 64, 83
1, 593671, Control_c, 0, 64, 82
1, 593686, Control_c, 0, 64, 82
1, 593686, Control_c, 0, 67, 57
1, 593716, Note_on_c, 0, 80, 69
1, 593716, Control_c, 0, 67, 57
1, 593723, Note_off_c, 0, 83, 43
1, 593741, Note_off_c, 0, 78, 39
1, 593768, Control_c, 0, 64, 79
1, 593783, Control_c, 0, 64, 74
1, 593783, Control_c, 0, 67, 58
1, 593784, Note_off_c, 0, 80, 62
1, 593787, Note_on_c, 0, 82, 80
1, 593790, Note_off_c, 0, 63, 39
1, 593792, Note_on_c, 0, 61, 74
1, 593795, Note_on_c, 0, 54, 65
1, 593797, Control_c, 0, 64, 67
1, 593812, Control_c, 0, 64, 61
1, 593827, Control_c, 0, 64, 56
1, 593842, Control_c, 0, 64, 58
1, 593857, Control_c, 0, 64, 63
1, 593862, Note_on_c, 0, 80, 73
1, 593872, Control_c, 0, 64, 66
1, 593887, Control_c, 0, 64, 69
1, 593902, Note_off_c, 0, 82, 61
1, 593902, Control_c, 0, 64, 73
1, 593917, Control_c, 0, 64, 79
1, 593926, Note_on_c, 0, 78, 73
1, 593926, Note_off_c, 0, 80, 62
1, 593932, Control_c, 0, 64, 85
1, 593947, Control_c, 0, 64, 89
1, 593947, Control_c, 0, 67, 58
1, 593961, Control_c, 0, 64, 90
1, 593961, Control_c, 0, 67, 59
1, 593976, Control_c, 0, 67, 59
1, 593991, Control_c, 0, 67, 60
1, 593995, Note_on_c, 0, 80, 75
1, 593997, Note_off_c, 0, 78, 62
1, 594006, Control_c, 0, 67, 60
1, 594021, Control_c, 0, 67, 61
1, 594036, Control_c, 0, 67, 62
1, 594040, Note_off_c, 0, 61, 52
1, 594050, Control_c, 0, 67, 62
1, 594061, Note_off_c, 0, 80, 62
1, 594063, Note_on_c, 0, 78, 74
1, 594081, Note_on_c, 0, 68, 69
1, 594116, Note_off_c, 0, 68, 58
1, 594117, Note_off_c, 0, 54, 38
1, 594138, Note_on_c, 0, 80, 78
1, 594154, Control_c, 0, 67, 63
1, 594184, Note_off_c, 0, 78, 52
1, 594198, Control_c, 0, 64, 85
1, 594213, Control_c, 0, 64, 78
1, 594213, Control_c, 0, 67, 63
1, 594214, Note_off_c, 0, 80, 58
1, 594220, Note_on_c, 0, 90, 91
1, 594227, Control_c, 0, 64, 70
1, 594229, Note_on_c, 0, 52, 60
1, 594232, Note_on_c, 0, 66, 54
1, 594242, Control_c, 0, 64, 65
1, 594242, Control_c, 0, 67, 64
1, 594272, Control_c, 0, 64, 67
1, 594272, Control_c, 0, 67, 65
1, 594287, Control_c, 0, 64, 71
1, 594287, Control_c, 0, 67, 66
1, 594301, Control_c, 0, 64, 74
1, 594301, Control_c, 0, 67, 67
1, 594306, Note_on_c, 0, 80, 73
1, 594311, Note_off_c, 0, 66, 62
1, 594316, Control_c, 0, 64, 78
1, 594316, Control_c, 0, 67, 68
1, 594331, Control_c, 0, 64, 81
1, 594331, Control_c, 0, 67, 69
1, 594334, Note_off_c, 0, 90, 64
1, 594346, Control_c, 0, 64, 84
1, 594346, Control_c, 0, 67, 70
1, 594361, Control_c, 0, 64, 87
1, 594367, Note_off_c, 0, 80, 61
1, 594373, Note_on_c, 0, 78, 69
1, 594376, Control_c, 0, 64, 89
1, 594391, Control_c, 0, 64, 90
1, 594391, Control_c, 0, 67, 70
1, 594446, Note_off_c, 0, 78, 56
1, 594457, Note_on_c, 0, 80, 74
1, 594501, Note_off_c, 0, 52, 61
1, 594516, Note_off_c, 0, 80, 56
1, 594516, Control_c, 0, 67, 70
1, 594520, Note_on_c, 0, 61, 37
1, 594543, Note_on_c, 0, 78, 63
1, 594546, Control_c, 0, 64, 89
1, 594556, Note_off_c, 0, 61, 46
1, 594561, Control_c, 0, 64, 87
1, 594576, Control_c, 0, 64, 85
1, 594590, Control_c, 0, 64, 83
1, 594590, Control_c, 0, 67, 70
1, 594605, Control_c, 0, 64, 81
1, 594605, Control_c, 0, 67, 71
1, 594607, Note_on_c, 0, 80, 53
1, 594612, Note_off_c, 0, 78, 55
1, 594620, Control_c, 0, 64, 79
1, 594620, Control_c, 0, 67, 71
1, 594626, Note_off_c, 0, 80, 63
1, 594635, Control_c, 0, 64, 76
1, 594635, Control_c, 0, 67, 72
1, 594650, Control_c, 0, 64, 72
1, 594650, Control_c, 0, 67, 72
1, 594665, Control_c, 0, 64, 68
1, 594665, Control_c, 0, 67, 73
1, 594680, Control_c, 0, 64, 64
1, 594680, Control_c, 0, 67, 75
1, 594695, Control_c, 0, 64, 58
1, 594695, Control_c, 0, 67, 78
1, 594710, Control_c, 0, 64, 45
1, 594710, Control_c, 0, 67, 83
1, 594725, Control_c, 0, 64, 19
1, 594725, Control_c, 0, 67, 88
1, 594736, Note_on_c, 0, 51, 36
1, 594738, Note_on_c, 0, 90, 62
1, 594739, Control_c, 0, 64, 11
1, 594739, Control_c, 0, 67, 93
1, 594754, Control_c, 0, 64, 14
1, 594754, Control_c, 0, 67, 97
1, 594769, Control_c, 0, 64, 32
1, 594769, Control_c, 0, 67, 99
1, 594779, Note_off_c, 0, 51, 59
1, 594780, Note_on_c, 0, 78, 25
1, 594784, Control_c, 0, 64, 51
1, 594784, Control_c, 0, 67, 102
1, 594799, Control_c, 0, 64, 62
1, 594799, Control_c, 0, 67, 106
1, 594813, Note_on_c, 0, 59, 42
1, 594814, Control_c, 0, 64, 67
1, 594814, Control_c, 0, 67, 110
1, 594829, Control_c, 0, 64, 72
1, 594829, Control_c, 0, 67, 114
1, 594842, Note_off_c, 0, 90, 62
1, 594843, Control_c, 0, 64, 76
1, 594843, Control_c, 0, 67, 118
1, 594855, Note_off_c, 0, 59, 56
1, 594858, Control_c, 0, 64, 79
1, 594858, Control_c, 0, 67, 122
1, 594870, Note_off_c, 0, 78, 49
1, 594873, Control_c, 0, 64, 81
1, 594873, Control_c, 0, 67, 124
1, 594886, Note_on_c, 0, 51, 56
1, 594888, Control_c, 0, 64, 83
1, 594888, Control_c, 0, 67, 125
1, 594903, Control_c, 0, 64, 84
1, 594903, Control_c, 0, 67, 125
1, 594917, Control_c, 0, 67, 126
1, 594932, Control_c, 0, 67, 127
1, 594935, Note_off_c, 0, 51, 62
1, 594947, Control_c, 0, 67, 127
1, 594966, Note_on_c, 0, 59, 46
1, 595008, Note_off_c, 0, 59, 60
1, 595036, Control_c, 0, 64, 83
1, 595049, Note_on_c, 0, 51, 58
1, 595050, Control_c, 0, 64, 82
1, 595086, Note_off_c, 0, 51, 65
1, 595110, Control_c, 0, 64, 81
1, 595111, Note_on_c, 0, 59, 53
1, 595124, Control_c, 0, 64, 78
1, 595139, Control_c, 0, 64, 72
1, 595147, Note_off_c, 0, 59, 60
1, 595154, Control_c, 0, 64, 65
1, 595169, Control_c, 0, 64, 61
1, 595181, Note_on_c, 0, 78, 75
1, 595184, Control_c, 0, 64, 60
1, 595187, Note_on_c, 0, 66, 63
1, 595196, Note_on_c, 0, 50, 61
1, 595199, Control_c, 0, 64, 63
1, 595213, Control_c, 0, 64, 66
1, 595228, Control_c, 0, 64, 68
1, 595250, Control_c, 0, 64, 72
1, 595250, Control_c, 0, 67, 127
1, 595255, Note_off_c, 0, 50, 64
1, 595265, Control_c, 0, 64, 77
1, 595278, Note_on_c, 0, 60, 62
1, 595280, Control_c, 0, 64, 82
1, 595295, Control_c, 0, 64, 86
1, 595295, Control_c, 0, 67, 126
1, 595310, Control_c, 0, 64, 89
1, 595310, Control_c, 0, 67, 126
1, 595316, Note_off_c, 0, 60, 58
1, 595324, Control_c, 0, 64, 90
1, 595361, Note_on_c, 0, 50, 58
1, 595369, Control_c, 0, 64, 91
1, 595396, Note_off_c, 0, 50, 65
1, 595413, Note_off_c, 0, 78, 54
1, 595420, Note_on_c, 0, 60, 63
1, 595428, Note_off_c, 0, 66, 35
1, 595457, Control_c, 0, 64, 90
1, 595462, Note_off_c, 0, 60, 53
1, 595473, Control_c, 0, 64, 90
1, 595488, Control_c, 0, 64, 88
1, 595494, Note_on_c, 0, 50, 59
1, 595503, Control_c, 0, 64, 86
1, 595518, Control_c, 0, 64, 86
1, 595539, Note_off_c, 0, 50, 65
1, 595559, Note_on_c, 0, 60, 56
1, 595562, Control_c, 0, 64, 85
1, 595577, Control_c, 0, 64, 85
1, 595592, Control_c, 0, 64, 83
1, 595595, Note_off_c, 0, 60, 65
1, 595607, Control_c, 0, 64, 80
1, 595621, Control_c, 0, 64, 72
1, 595636, Control_c, 0, 64, 63
1, 595644, Note_on_c, 0, 78, 77
1, 595651, Control_c, 0, 64, 43
1, 595654, Note_on_c, 0, 48, 62
1, 595662, Note_on_c, 0, 74, 62
1, 595666, Control_c, 0, 64, 34
1, 595666, Note_on_c, 0, 66, 55
1, 595680, Control_c, 0, 64, 39
1, 595690, Note_off_c, 0, 48, 65
1, 595695, Control_c, 0, 64, 53
1, 595710, Control_c, 0, 64, 61
1, 595717, Note_on_c, 0, 57, 63
1, 595725, Control_c, 0, 64, 64
1, 595739, Control_c, 0, 64, 67
1, 595739, Control_c, 0, 67, 126
1, 595754, Control_c, 0, 64, 71
1, 595754, Control_c, 0, 67, 127
1, 595756, Note_off_c, 0, 57, 60
1, 595769, Control_c, 0, 64, 77
1, 595769, Control_c, 0, 67, 127
1, 595784, Control_c, 0, 64, 82
1, 595791, Note_on_c, 0, 48, 46
1, 595799, Control_c, 0, 64, 86
1, 595813, Control_c, 0, 64, 86
1, 595828, Note_off_c, 0, 48, 63
1, 595851, Note_off_c, 0, 74, 59
1, 595863, Note_on_c, 0, 57, 60
1, 595881, Note_off_c, 0, 66, 46
1, 595887, Control_c, 0, 64, 86
1, 595897, Note_off_c, 0, 57, 59
1, 595934, Note_on_c, 0, 48, 50
1, 595947, Control_c, 0, 64, 85
1, 595962, Control_c, 0, 64, 85
1, 595966, Note_off_c, 0, 48, 65
1, 596000, Note_off_c, 0, 78, 21
1, 596009, Note_on_c, 0, 57, 59
1, 596028, Control_c, 0, 64, 82
1, 596041, Note_off_c, 0, 57, 62
1, 596043, Control_c, 0, 64, 76
1, 596058, Control_c, 0, 64, 66
1, 596072, Control_c, 0, 64, 56
1, 596087, Control_c, 0, 64, 53
1, 596092, Note_on_c, 0, 47, 62
1, 596095, Note_on_c, 0, 79, 66
1, 596102, Control_c, 0, 64, 58
1, 596111, Note_on_c, 0, 67, 48
1, 596117, Control_c, 0, 64, 63
1, 596126, Note_off_c, 0, 47, 67
1, 596126, Note_on_c, 0, 74, 36
1, 596132, Control_c, 0, 64, 67
1, 596146, Control_c, 0, 64, 71
1, 596161, Control_c, 0, 64, 75
1, 596176, Control_c, 0, 64, 78
1, 596177, Note_off_c, 0, 74, 58
1, 596179, Note_on_c, 0, 55, 50
1, 596191, Control_c, 0, 64, 80
1, 596206, Control_c, 0, 64, 80
1, 596209, Note_off_c, 0, 79, 55
1, 596211, Note_off_c, 0, 55, 53
1, 596220, Note_off_c, 0, 67, 52
1, 596227, Note_on_c, 0, 47, 59
1, 596266, Control_c, 0, 64, 80
1, 596267, Note_off_c, 0, 47, 67
1, 596301, Note_on_c, 0, 55, 59
1, 596329, Note_off_c, 0, 55, 64
1, 596370, Control_c, 0, 64, 79
1, 596391, Note_on_c, 0, 45, 59
1, 596411, Note_on_c, 0, 81, 63
1, 596421, Note_on_c, 0, 69, 44
1, 596442, Note_off_c, 0, 45, 59
1, 596443, Note_on_c, 0, 74, 24
1, 596463, Note_off_c, 0, 69, 47
1, 596469, Note_on_c, 0, 54, 46
1, 596474, Note_off_c, 0, 81, 60
1, 596474, Control_c, 0, 64, 79
1, 596479, Note_off_c, 0, 74, 56
1, 596488, Control_c, 0, 64, 77
1, 596503, Control_c, 0, 64, 73
1, 596504, Note_off_c, 0, 54, 65
1, 596518, Control_c, 0, 64, 68
1, 596533, Control_c, 0, 64, 58
1, 596548, Control_c, 0, 64, 0
1, 596612, Note_on_c, 0, 74, 33
1, 596620, Note_on_c, 0, 43, 50
1, 596621, Control_c, 0, 64, 52
1, 596626, Note_on_c, 0, 83, 50
1, 596636, Control_c, 0, 64, 63
1, 596647, Note_on_c, 0, 55, 35
1, 596651, Control_c, 0, 64, 67
1, 596653, Note_off_c, 0, 43, 63
1, 596657, Note_on_c, 0, 71, 32
1, 596666, Control_c, 0, 64, 70
1, 596669, Note_off_c, 0, 83, 0
1, 596669, Note_on_c, 0, 83, 25
1, 596681, Control_c, 0, 64, 73
1, 596695, Control_c, 0, 64, 75
1, 596701, Note_off_c, 0, 55, 63
1, 596701, Note_off_c, 0, 71, 49
1, 596710, Control_c, 0, 64, 76
1, 596716, Note_off_c, 0, 74, 62
1, 596725, Control_c, 0, 64, 77
1, 596725, Control_c, 0, 67, 127
1, 596748, Control_c, 0, 67, 126
1, 596750, Note_off_c, 0, 83, 62
1, 596763, Control_c, 0, 67, 126
1, 596777, Control_c, 0, 67, 125
1, 596814, Note_on_c, 0, 55, 43
1, 596820, Note_on_c, 0, 59, 23
1, 596845, Note_off_c, 0, 55, 51
1, 596860, Note_off_c, 0, 59, 53
1, 596895, Note_on_c, 0, 62, 36
1, 596925, Control_c, 0, 64, 76
1, 596930, Note_off_c, 0, 62, 53
1, 596946, Note_on_c, 0, 55, 39
1, 596956, Note_on_c, 0, 59, 49
1, 596957, Note_on_c, 0, 88, 68
1, 596969, Control_c, 0, 64, 76
1, 596977, Note_on_c, 0, 76, 54
1, 596981, Note_off_c, 0, 55, 61
1, 596993, Note_off_c, 0, 59, 63
1, 597021, Note_off_c, 0, 76, 60
1, 597023, Note_on_c, 0, 62, 50
1, 597024, Note_off_c, 0, 88, 60
1, 597029, Control_c, 0, 67, 124
1, 597059, Note_off_c, 0, 62, 63
1, 597089, Control_c, 0, 67, 124
1, 597094, Note_on_c, 0, 55, 51
1, 597109, Note_on_c, 0, 59, 40
1, 597112, Note_on_c, 0, 86, 69
1, 597118, Control_c, 0, 64, 75
1, 597118, Control_c, 0, 67, 123
1, 597124, Note_on_c, 0, 74, 64
1, 597133, Note_off_c, 0, 55, 64
1, 597146, Note_off_c, 0, 59, 57
1, 597163, Control_c, 0, 67, 123
1, 597166, Note_on_c, 0, 62, 53
1, 597196, Note_off_c, 0, 74, 57
1, 597199, Note_off_c, 0, 86, 61
1, 597218, Note_off_c, 0, 62, 59
1, 597252, Control_c, 0, 64, 76
1, 597254, Note_on_c, 0, 55, 49
1, 597256, Note_on_c, 0, 59, 45
1, 597280, Note_off_c, 0, 55, 64
1, 597291, Note_off_c, 0, 59, 63
1, 597317, Note_on_c, 0, 62, 59
1, 597326, Control_c, 0, 64, 76
1, 597395, Note_on_c, 0, 59, 45
1, 597397, Note_off_c, 0, 62, 49
1, 597399, Note_on_c, 0, 83, 76
1, 597401, Note_on_c, 0, 55, 28
1, 597410, Note_on_c, 0, 71, 62
1, 597437, Note_off_c, 0, 55, 48
1, 597452, Note_off_c, 0, 59, 56
1, 597469, Note_on_c, 0, 62, 45
1, 597469, Note_off_c, 0, 83, 64
1, 597476, Note_off_c, 0, 71, 64
1, 597512, Control_c, 0, 64, 75
1, 597512, Control_c, 0, 67, 122
1, 597526, Control_c, 0, 64, 71
1, 597537, Note_off_c, 0, 62, 46
1, 597541, Control_c, 0, 64, 66
1, 597556, Control_c, 0, 64, 62
1, 597561, Note_on_c, 0, 81, 79
1, 597571, Control_c, 0, 67, 123
1, 597571, Note_on_c, 0, 54, 61
1, 597576, Note_on_c, 0, 69, 65
1, 597586, Control_c, 0, 64, 64
1, 597586, Control_c, 0, 67, 123
1, 597588, Note_on_c, 0, 60, 43
1, 597600, Control_c, 0, 64, 66
1, 597600, Control_c, 0, 67, 124
1, 597615, Note_off_c, 0, 54, 64
1, 597615, Control_c, 0, 64, 70
1, 597615, Control_c, 0, 67, 125
1, 597630, Control_c, 0, 64, 74
1, 597630, Control_c, 0, 67, 126
1, 597634, Note_off_c, 0, 60, 64
1, 597636, Note_off_c, 0, 69, 62
1, 597643, Control_c, 0, 64, 78
1, 597643, Control_c, 0, 67, 126
1, 597650, Note_on_c, 0, 62, 61
1, 597658, Control_c, 0, 64, 82
1, 597673, Control_c, 0, 64, 85
1, 597673, Control_c, 0, 67, 127
1, 597679, Note_off_c, 0, 81, 64
1, 597685, Note_off_c, 0, 62, 61
1, 597688, Control_c, 0, 64, 86
1, 597717, Control_c, 0, 64, 86
1, 597726, Note_on_c, 0, 54, 64
1, 597732, Note_on_c, 0, 60, 54
1, 597763, Note_off_c, 0, 54, 63
1, 597765, Note_off_c, 0, 60, 64
1, 597791, Note_on_c, 0, 62, 59
1, 597829, Note_off_c, 0, 62, 60
1, 597846, Note_on_c, 0, 88, 78
1, 597861, Note_on_c, 0, 60, 49
1, 597861, Note_on_c, 0, 76, 67
1, 597861, Note_on_c, 0, 54, 60
1, 597902, Note_off_c, 0, 54, 61
1, 597912, Note_off_c, 0, 60, 56
1, 597917, Note_off_c, 0, 88, 63
1, 597923, Note_off_c, 0, 76, 60
1, 597927, Note_on_c, 0, 62, 54
1, 597965, Note_off_c, 0, 62, 60
1, 598005, Note_on_c, 0, 86, 78
1, 598012, Note_on_c, 0, 54, 60
1, 598021, Note_on_c, 0, 60, 49
1, 598023, Note_on_c, 0, 74, 60
1, 598044, Note_off_c, 0, 54, 65
1, 598054, Note_off_c, 0, 60, 64
1, 598058, Note_off_c, 0, 86, 65
1, 598063, Note_off_c, 0, 74, 60
1, 598075, Note_on_c, 0, 62, 57
1, 598089, Control_c, 0, 64, 86
1, 598115, Note_off_c, 0, 62, 54
1, 598119, Control_c, 0, 64, 85
1, 598147, Note_on_c, 0, 54, 56
1, 598163, Note_on_c, 0, 60, 43
1, 598199, Note_off_c, 0, 60, 60
1, 598201, Note_off_c, 0, 54, 57
1, 598216, Note_on_c, 0, 62, 42
1, 598245, Control_c, 0, 64, 85
1, 598260, Control_c, 0, 64, 84
1, 598271, Note_off_c, 0, 62, 58
1, 598274, Control_c, 0, 64, 84
1, 598285, Note_on_c, 0, 69, 62
1, 598285, Note_on_c, 0, 81, 69
1, 598296, Note_on_c, 0, 60, 56
1, 598304, Control_c, 0, 67, 126
1, 598313, Note_off_c, 0, 69, 68
1, 598332, Note_off_c, 0, 81, 58
1, 598357, Note_off_c, 0, 60, 62
1, 598363, Control_c, 0, 64, 83
1, 598363, Control_c, 0, 67, 126
1, 598378, Note_on_c, 0, 62, 53
1, 598407, Control_c, 0, 64, 83
1, 598407, Control_c, 0, 67, 125
1, 598415, Note_off_c, 0, 62, 60
1, 598422, Control_c, 0, 64, 82
1, 598437, Control_c, 0, 64, 78
1, 598452, Control_c, 0, 64, 73
1, 598467, Control_c, 0, 64, 66
1, 598471, Note_on_c, 0, 83, 61
1, 598474, Note_on_c, 0, 74, 59
1, 598477, Note_on_c, 0, 59, 57
1, 598482, Control_c, 0, 64, 57
1, 598482, Control_c, 0, 67, 125
1, 598486, Note_on_c, 0, 55, 46
1, 598497, Control_c, 0, 64, 43
1, 598497, Control_c, 0, 67, 124
1, 598512, Control_c, 0, 64, 42
1, 598518, Note_off_c, 0, 74, 59
1, 598527, Control_c, 0, 64, 45
1, 598541, Control_c, 0, 64, 51
1, 598549, Note_on_c, 0, 76, 55
1, 598556, Control_c, 0, 64, 57
1, 598571, Control_c, 0, 64, 60
1, 598571, Control_c, 0, 67, 123
1, 598585, Control_c, 0, 64, 63
1, 598585, Control_c, 0, 67, 123
1, 598600, Control_c, 0, 64, 65
1, 598609, Note_off_c, 0, 76, 55
1, 598615, Control_c, 0, 64, 68
1, 598628, Note_on_c, 0, 74, 65
1, 598630, Control_c, 0, 64, 73
1, 598630, Control_c, 0, 67, 122
1, 598645, Control_c, 0, 64, 77
1, 598661, Control_c, 0, 64, 80
1, 598671, Note_off_c, 0, 74, 63
1, 598698, Note_on_c, 0, 76, 58
1, 598720, Control_c, 0, 64, 81
1, 598735, Control_c, 0, 67, 122
1, 598737, Note_off_c, 0, 76, 60
1, 598750, Control_c, 0, 67, 121
1, 598766, Note_on_c, 0, 74, 65
1, 598772, Note_on_c, 0, 64, 78
1, 598803, Note_off_c, 0, 59, 60
1, 598814, Note_off_c, 0, 83, 60
1, 598839, Note_on_c, 0, 76, 69
1, 598853, Control_c, 0, 64, 80
1, 598890, Note_off_c, 0, 76, 52
1, 598913, Note_on_c, 0, 79, 71
1, 598913, Control_c, 0, 64, 80
1, 598928, Control_c, 0, 64, 79
1, 598939, Note_on_c, 0, 62, 80
1, 598943, Control_c, 0, 64, 79
1, 598949, Note_off_c, 0, 74, 21
1, 598978, Note_off_c, 0, 64, 64
1, 598999, Note_on_c, 0, 76, 61
1, 599009, Control_c, 0, 64, 78
1, 599046, Note_off_c, 0, 76, 60
1, 599063, Note_on_c, 0, 74, 69
1, 599122, Note_off_c, 0, 74, 63
1, 599126, Note_off_c, 0, 62, 53
1, 599146, Note_on_c, 0, 76, 64
1, 599186, Note_off_c, 0, 76, 58
1, 599205, Note_off_c, 0, 55, 62
1, 599221, Note_on_c, 0, 74, 72
1, 599231, Note_on_c, 0, 59, 79
1, 599292, Note_off_c, 0, 74, 58
1, 599294, Note_on_c, 0, 76, 72
1, 599320, Control_c, 0, 64, 78
1, 599326, Note_off_c, 0, 79, 45
1, 599350, Control_c, 0, 64, 77
1, 599364, Control_c, 0, 64, 75
1, 599366, Note_off_c, 0, 76, 60
1, 599369, Note_on_c, 0, 57, 78
1, 599375, Note_on_c, 0, 50, 72
1, 599377, Note_on_c, 0, 78, 69
1, 599379, Control_c, 0, 64, 68
1, 599393, Note_off_c, 0, 59, 54
1, 599394, Control_c, 0, 64, 60
1, 599409, Control_c, 0, 64, 28
1, 599409, Control_c, 0, 67, 121
1, 599423, Control_c, 0, 64, 0
1, 599450, Note_on_c, 0, 76, 73
1, 599469, Control_c, 0, 64, 44
1, 599484, Control_c, 0, 64, 60
1, 599499, Control_c, 0, 64, 65
1, 599509, Note_off_c, 0, 78, 55
1, 599513, Control_c, 0, 64, 69
1, 599517, Note_off_c, 0, 76, 59
1, 599528, Control_c, 0, 64, 73
1, 599532, Note_on_c, 0, 74, 77
1, 599543, Control_c, 0, 64, 78
1, 599558, Control_c, 0, 64, 81
1, 599573, Control_c, 0, 64, 82
1, 599586, Note_on_c, 0, 76, 72
1, 599586, Note_off_c, 0, 74, 65
1, 599602, Control_c, 0, 64, 83
1, 599632, Control_c, 0, 64, 83
1, 599656, Note_off_c, 0, 76, 60
1, 599661, Note_on_c, 0, 74, 81
1, 599664, Note_on_c, 0, 64, 74
1, 599671, Note_off_c, 0, 57, 55
1, 599706, Control_c, 0, 67, 121
1, 599712, Note_off_c, 0, 64, 57
1, 599746, Note_on_c, 0, 76, 72
1, 599758, Control_c, 0, 64, 83
1, 599758, Control_c, 0, 67, 122
1, 599773, Note_off_c, 0, 74, 61
1, 599773, Control_c, 0, 64, 79
1, 599788, Control_c, 0, 64, 73
1, 599788, Control_c, 0, 67, 122
1, 599802, Control_c, 0, 64, 67
1, 599804, Note_on_c, 0, 84, 80
1, 599813, Note_off_c, 0, 76, 56
1, 599817, Control_c, 0, 64, 64
1, 599817, Control_c, 0, 67, 123
1, 599819, Note_on_c, 0, 62, 69
1, 599846, Control_c, 0, 64, 65
1, 599861, Control_c, 0, 64, 66
1, 599861, Control_c, 0, 67, 123
1, 599876, Control_c, 0, 64, 68
1, 599876, Control_c, 0, 67, 124
1, 599892, Control_c, 0, 64, 71
1, 599892, Control_c, 0, 67, 124
1, 599893, Note_on_c, 0, 76, 65
1, 599897, Note_off_c, 0, 84, 58
1, 599907, Control_c, 0, 64, 74
1, 599921, Control_c, 0, 64, 77
1, 599936, Control_c, 0, 64, 79
1, 599949, Note_off_c, 0, 76, 57
1, 599951, Control_c, 0, 64, 80
1, 599965, Note_on_c, 0, 74, 64
1, 599966, Control_c, 0, 64, 80
1, 600003, Note_off_c, 0, 62, 50
1, 600005, Note_off_c, 0, 74, 62
1, 600010, Control_c, 0, 64, 80
1, 600031, Note_on_c, 0, 76, 60
1, 600054, Control_c, 0, 64, 79
1, 600072, Note_off_c, 0, 76, 61
1, 600084, Control_c, 0, 64, 79
1, 600084, Control_c, 0, 67, 123
1, 600106, Note_on_c, 0, 74, 63
1, 600119, Note_on_c, 0, 57, 48
1, 600129, Control_c, 0, 67, 123
1, 600144, Control_c, 0, 64, 78
1, 600158, Note_on_c, 0, 76, 53
1, 600159, Control_c, 0, 64, 74
1, 600161, Note_off_c, 0, 74, 63
1, 600171, Note_off_c, 0, 57, 56
1, 600173, Control_c, 0, 64, 67
1, 600180, Note_off_c, 0, 76, 63
1, 600188, Control_c, 0, 64, 57
1, 600203, Control_c, 0, 64, 51
1, 600218, Control_c, 0, 64, 57
1, 600218, Control_c, 0, 67, 122
1, 600233, Control_c, 0, 64, 62
1, 600247, Control_c, 0, 64, 65
1, 600249, Note_on_c, 0, 83, 63
1, 600263, Control_c, 0, 64, 68
1, 600278, Control_c, 0, 64, 71
1, 600279, Note_on_c, 0, 55, 51
1, 600286, Note_on_c, 0, 74, 47
1, 600293, Control_c, 0, 64, 73
1, 600308, Control_c, 0, 64, 75
1, 600323, Control_c, 0, 64, 75
1, 600325, Note_off_c, 0, 83, 33
1, 600340, Note_off_c, 0, 50, 42
1, 600345, Note_off_c, 0, 55, 62
1, 600352, Control_c, 0, 64, 76
1, 600352, Control_c, 0, 67, 123
1, 600367, Control_c, 0, 64, 77
1, 600367, Control_c, 0, 67, 123
1, 600382, Control_c, 0, 64, 78
1, 600382, Control_c, 0, 67, 124
1, 600385, Note_off_c, 0, 74, 60
1, 600397, Control_c, 0, 64, 78
1, 600397, Control_c, 0, 67, 125
1, 600406, Note_on_c, 0, 71, 60
1, 600411, Control_c, 0, 64, 74
1, 600411, Control_c, 0, 67, 126
1, 600424, Note_off_c, 0, 71, 66
1, 600426, Control_c, 0, 64, 69
1, 600426, Control_c, 0, 67, 126
1, 600441, Control_c, 0, 64, 64
1, 600441, Control_c, 0, 67, 127
1, 600455, Control_c, 0, 64, 58
1, 600470, Control_c, 0, 64, 56
1, 600493, Control_c, 0, 64, 58
1, 600493, Control_c, 0, 67, 127
1, 600508, Control_c, 0, 64, 59
1, 600555, Note_on_c, 0, 67, 50
1, 600569, Note_on_c, 0, 86, 64
1, 600582, Control_c, 0, 64, 60
1, 600591, Note_off_c, 0, 86, 68
1, 600592, Note_off_c, 0, 67, 60
1, 600611, Control_c, 0, 64, 59
1, 600626, Control_c, 0, 64, 59
1, 600641, Control_c, 0, 64, 58
1, 600656, Control_c, 0, 64, 57
1, 600670, Control_c, 0, 64, 58
1, 600685, Control_c, 0, 64, 62
1, 600700, Control_c, 0, 64, 64
1, 600715, Control_c, 0, 64, 66
1, 600719, Note_on_c, 0, 86, 53
1, 600730, Control_c, 0, 64, 68
1, 600732, Note_on_c, 0, 66, 47
1, 600744, Control_c, 0, 64, 71
1, 600759, Control_c, 0, 64, 74
1, 600774, Control_c, 0, 64, 77
1, 600788, Control_c, 0, 64, 78
1, 600848, Control_c, 0, 64, 77
1, 600851, Note_off_c, 0, 66, 37
1, 600861, Note_on_c, 0, 83, 60
1, 600877, Control_c, 0, 64, 76
1, 600884, Note_off_c, 0, 86, 38
1, 600889, Note_on_c, 0, 67, 44
1, 600892, Control_c, 0, 64, 75
1, 600903, Note_off_c, 0, 83, 57
1, 600907, Control_c, 0, 64, 71
1, 600922, Control_c, 0, 64, 68
1, 600937, Control_c, 0, 64, 65
1, 600952, Control_c, 0, 64, 61
1, 600967, Control_c, 0, 64, 58
1, 600976, Note_off_c, 0, 67, 36
1, 600982, Control_c, 0, 64, 61
1, 600996, Control_c, 0, 64, 64
1, 601000, Note_on_c, 0, 62, 71
1, 601002, Note_on_c, 0, 79, 69
1, 601011, Control_c, 0, 64, 67
1, 601011, Control_c, 0, 67, 127
1, 601026, Control_c, 0, 64, 69
1, 601035, Note_off_c, 0, 79, 61
1, 601041, Control_c, 0, 64, 72
1, 601044, Note_off_c, 0, 62, 60
1, 601056, Control_c, 0, 64, 75
1, 601056, Control_c, 0, 67, 126
1, 601071, Control_c, 0, 64, 76
1, 601101, Control_c, 0, 64, 76
1, 601157, Note_on_c, 0, 62, 75
1, 601160, Control_c, 0, 64, 75
1, 601160, Control_c, 0, 67, 126
1, 601175, Control_c, 0, 64, 74
1, 601190, Control_c, 0, 64, 72
1, 601219, Control_c, 0, 64, 73
1, 601271, Control_c, 0, 64, 72
1, 601271, Control_c, 0, 67, 126
1, 601286, Note_off_c, 0, 62, 53
1, 601286, Control_c, 0, 64, 71
1, 601286, Control_c, 0, 67, 127
1, 601300, Control_c, 0, 64, 69
1, 601305, Note_on_c, 0, 71, 67
1, 601315, Control_c, 0, 64, 68
1, 601315, Control_c, 0, 67, 127
1, 601318, Note_on_c, 0, 59, 67
1, 601330, Control_c, 0, 64, 68
1, 601360, Control_c, 0, 64, 67
1, 601375, Control_c, 0, 64, 65
1, 601384, Note_off_c, 0, 71, 56
1, 601389, Control_c, 0, 64, 63
1, 601393, Note_off_c, 0, 59, 58
1, 601445, Note_on_c, 0, 55, 64
1, 601449, Note_on_c, 0, 74, 62
1, 601469, Note_off_c, 0, 55, 66
1, 601476, Note_off_c, 0, 74, 68
1, 601522, Control_c, 0, 64, 62
1, 601566, Control_c, 0, 64, 63
1, 601585, Note_on_c, 0, 53, 60
1, 601590, Note_on_c, 0, 79, 73
1, 601610, Control_c, 0, 64, 63
1, 601640, Control_c, 0, 64, 64
1, 601655, Control_c, 0, 64, 64
1, 601670, Control_c, 0, 64, 64
1, 601694, Note_off_c, 0, 53, 51
1, 601715, Control_c, 0, 64, 64
1, 601737, Note_on_c, 0, 50, 57
1, 601739, Note_on_c, 0, 83, 68
1, 601761, Note_off_c, 0, 79, 59
1, 601774, Control_c, 0, 64, 65
1, 601788, Note_off_c, 0, 83, 62
1, 601789, Control_c, 0, 64, 65
1, 601816, Note_off_c, 0, 50, 48
1, 601880, Note_on_c, 0, 47, 59
1, 601882, Note_on_c, 0, 79, 73
1, 601916, Note_off_c, 0, 79, 62
1, 601923, Control_c, 0, 64, 66
1, 601953, Control_c, 0, 64, 64
1, 601968, Control_c, 0, 64, 62
1, 601989, Control_c, 0, 64, 57
1, 602004, Control_c, 0, 64, 59
1, 602019, Control_c, 0, 64, 63
1, 602034, Control_c, 0, 64, 66
1, 602036, Note_on_c, 0, 79, 67
1, 602046, Note_on_c, 0, 88, 60
1, 602049, Control_c, 0, 64, 70
1, 602053, Note_on_c, 0, 48, 68
1, 602064, Control_c, 0, 64, 74
1, 602064, Note_off_c, 0, 47, 64
1, 602078, Control_c, 0, 64, 78
1, 602093, Control_c, 0, 64, 83
1, 602094, Note_off_c, 0, 88, 40
1, 602108, Control_c, 0, 64, 85
1, 602116, Note_off_c, 0, 48, 63
1, 602152, Note_off_c, 0, 79, 59
1, 602197, Control_c, 0, 64, 84
1, 602198, Note_on_c, 0, 76, 60
1, 602212, Control_c, 0, 64, 83
1, 602227, Control_c, 0, 64, 81
1, 602236, Note_off_c, 0, 76, 58
1, 602241, Control_c, 0, 64, 78
1, 602256, Control_c, 0, 64, 75
1, 602271, Control_c, 0, 64, 71
1, 602286, Control_c, 0, 64, 67
1, 602301, Control_c, 0, 64, 63
1, 602315, Control_c, 0, 64, 59
1, 602330, Control_c, 0, 64, 50
1, 602345, Note_on_c, 0, 67, 79
1, 602345, Note_on_c, 0, 72, 61
1, 602345, Control_c, 0, 64, 39
1, 602359, Control_c, 0, 64, 17
1, 602374, Control_c, 0, 64, 0
1, 602401, Note_off_c, 0, 72, 61
1, 602423, Note_off_c, 0, 67, 62
1, 602499, Note_on_c, 0, 71, 69
1, 602501, Note_on_c, 0, 67, 81
1, 602582, Control_c, 0, 64, 29
1, 602597, Control_c, 0, 64, 44
1, 602597, Note_off_c, 0, 71, 56
1, 602612, Control_c, 0, 64, 52
1, 602612, Note_off_c, 0, 67, 59
1, 602627, Control_c, 0, 64, 58
1, 602641, Control_c, 0, 64, 64
1, 602648, Note_on_c, 0, 64, 70
1, 602648, Note_on_c, 0, 72, 64
1, 602657, Control_c, 0, 64, 67
1, 602672, Control_c, 0, 64, 70
1, 602742, Note_off_c, 0, 64, 60
1, 602788, Note_on_c, 0, 55, 70
1, 602788, Note_on_c, 0, 76, 69
1, 602788, Note_off_c, 0, 72, 57
1, 602823, Note_off_c, 0, 76, 62
1, 602833, Note_off_c, 0, 55, 59
1, 602857, Control_c, 0, 64, 69
1, 602902, Control_c, 0, 64, 69
1, 602917, Control_c, 0, 64, 68
1, 602932, Control_c, 0, 64, 67
1, 602934, Note_on_c, 0, 55, 75
1, 602946, Control_c, 0, 64, 66
1, 602961, Control_c, 0, 64, 66
1, 602976, Control_c, 0, 64, 65
1, 603006, Control_c, 0, 64, 64
1, 603020, Control_c, 0, 64, 63
1, 603035, Control_c, 0, 64, 61
1, 603050, Control_c, 0, 64, 58
1, 603065, Control_c, 0, 64, 53
1, 603080, Note_on_c, 0, 79, 71
1, 603080, Control_c, 0, 64, 46
1, 603085, Note_off_c, 0, 55, 58
1, 603095, Control_c, 0, 64, 36
1, 603100, Note_on_c, 0, 52, 58
1, 603110, Control_c, 0, 64, 31
1, 603125, Control_c, 0, 64, 24
1, 603139, Control_c, 0, 64, 0
1, 603211, Note_off_c, 0, 52, 59
1, 603220, Note_on_c, 0, 84, 78
1, 603233, Note_off_c, 0, 79, 59
1, 603244, Note_on_c, 0, 48, 54
1, 603257, Control_c, 0, 64, 27
1, 603272, Control_c, 0, 64, 57
1, 603274, Note_off_c, 0, 48, 65
1, 603287, Control_c, 0, 64, 65
1, 603302, Control_c, 0, 64, 69
1, 603317, Control_c, 0, 64, 73
1, 603331, Control_c, 0, 64, 75
1, 603346, Control_c, 0, 64, 77
1, 603435, Control_c, 0, 64, 76
1, 603448, Note_on_c, 0, 88, 89
1, 603450, Control_c, 0, 64, 75
1, 603466, Control_c, 0, 64, 75
1, 603470, Note_on_c, 0, 76, 59
1, 603482, Note_on_c, 0, 43, 45
1, 603488, Control_c, 0, 64, 74
1, 603503, Control_c, 0, 64, 72
1, 603518, Control_c, 0, 64, 69
1, 603533, Control_c, 0, 64, 67
1, 603548, Control_c, 0, 64, 64
1, 603562, Control_c, 0, 64, 59
1, 603577, Control_c, 0, 64, 30
1, 603582, Note_off_c, 0, 84, 51
1, 603592, Control_c, 0, 64, 0
1, 603651, Control_c, 0, 64, 19
1, 603655, Note_off_c, 0, 43, 48
1, 603666, Control_c, 0, 64, 54
1, 603666, Control_c, 0, 67, 125
1, 603667, Note_on_c, 0, 36, 45
1, 603681, Control_c, 0, 64, 61
1, 603681, Control_c, 0, 67, 121
1, 603695, Control_c, 0, 64, 64
1, 603695, Control_c, 0, 67, 118
1, 603710, Control_c, 0, 64, 67
1, 603710, Control_c, 0, 67, 115
1, 603725, Control_c, 0, 64, 70
1, 603725, Control_c, 0, 67, 113
1, 603734, Note_off_c, 0, 76, 63
1, 603740, Control_c, 0, 64, 73
1, 603740, Control_c, 0, 67, 110
1, 603755, Control_c, 0, 64, 77
1, 603755, Control_c, 0, 67, 104
1, 603769, Control_c, 0, 64, 78
1, 603769, Control_c, 0, 67, 98
1, 603784, Control_c, 0, 67, 95
1, 603799, Control_c, 0, 64, 79
1, 603799, Control_c, 0, 67, 93
1, 603813, Control_c, 0, 67, 91
1, 603828, Control_c, 0, 67, 88
1, 603843, Control_c, 0, 67, 82
1, 603858, Control_c, 0, 67, 78
1, 603859, Note_off_c, 0, 36, 39
1, 603865, Note_on_c, 0, 87, 72
1, 603873, Control_c, 0, 67, 77
1, 603881, Note_on_c, 0, 75, 43
1, 603886, Note_off_c, 0, 88, 56
1, 603888, Control_c, 0, 67, 76
1, 603903, Control_c, 0, 67, 74
1, 603905, Note_on_c, 0, 48, 51
1, 603912, Note_off_c, 0, 75, 55
1, 603918, Control_c, 0, 67, 72
1, 603933, Control_c, 0, 67, 70
1, 603941, Note_off_c, 0, 48, 63
1, 603942, Note_off_c, 0, 87, 64
1, 603948, Control_c, 0, 67, 68
1, 603962, Control_c, 0, 67, 67
1, 603977, Control_c, 0, 67, 66
1, 604021, Control_c, 0, 64, 78
1, 604036, Control_c, 0, 64, 78
1, 604051, Control_c, 0, 64, 77
1, 604066, Control_c, 0, 64, 76
1, 604066, Control_c, 0, 67, 67
1, 604080, Control_c, 0, 64, 76
1, 604080, Control_c, 0, 67, 68
1, 604095, Control_c, 0, 64, 75
1, 604095, Control_c, 0, 67, 69
1, 604110, Control_c, 0, 64, 72
1, 604110, Control_c, 0, 67, 70
1, 604125, Control_c, 0, 64, 69
1, 604125, Control_c, 0, 67, 71
1, 604140, Control_c, 0, 64, 65
1, 604141, Note_on_c, 0, 87, 61
1, 604147, Note_on_c, 0, 48, 42
1, 604154, Control_c, 0, 64, 62
1, 604154, Control_c, 0, 67, 71
1, 604169, Control_c, 0, 64, 61
1, 604169, Control_c, 0, 67, 72
1, 604184, Control_c, 0, 67, 72
1, 604198, Control_c, 0, 64, 62
1, 604198, Control_c, 0, 67, 73
1, 604213, Control_c, 0, 64, 64
1, 604214, Note_off_c, 0, 48, 56
1, 604236, Control_c, 0, 64, 66
1, 604251, Control_c, 0, 64, 68
1, 604266, Note_on_c, 0, 51, 46
1, 604266, Control_c, 0, 64, 70
1, 604281, Control_c, 0, 64, 72
1, 604296, Control_c, 0, 64, 74
1, 604311, Control_c, 0, 64, 75
1, 604312, Note_off_c, 0, 51, 65
1, 604320, Note_on_c, 0, 84, 67
1, 604326, Control_c, 0, 64, 76
1, 604338, Note_on_c, 0, 56, 56
1, 604380, Note_off_c, 0, 56, 64
1, 604420, Note_on_c, 0, 51, 59
1, 604465, Note_off_c, 0, 51, 63
1, 604473, Note_on_c, 0, 80, 67
1, 604474, Note_off_c, 0, 87, 35
1, 604487, Note_on_c, 0, 56, 57
1, 604518, Control_c, 0, 67, 73
1, 604527, Note_off_c, 0, 56, 61
1, 604533, Control_c, 0, 64, 75
1, 604548, Control_c, 0, 64, 71
1, 604558, Note_off_c, 0, 84, 54
1, 604563, Control_c, 0, 64, 66
1, 604577, Note_on_c, 0, 51, 53
1, 604578, Control_c, 0, 64, 59
1, 604592, Control_c, 0, 64, 55
1, 604607, Control_c, 0, 64, 57
1, 604615, Note_off_c, 0, 51, 65
1, 604622, Control_c, 0, 64, 62
1, 604624, Note_on_c, 0, 79, 74
1, 604636, Control_c, 0, 64, 65
1, 604638, Note_on_c, 0, 49, 68
1, 604651, Control_c, 0, 64, 68
1, 604657, Note_off_c, 0, 80, 62
1, 604666, Control_c, 0, 64, 72
1, 604681, Control_c, 0, 64, 76
1, 604696, Control_c, 0, 64, 80
1, 604696, Control_c, 0, 67, 74
1, 604711, Control_c, 0, 64, 85
1, 604711, Control_c, 0, 67, 75
1, 604716, Note_on_c, 0, 51, 56
1, 604726, Control_c, 0, 64, 89
1, 604740, Control_c, 0, 64, 89
1, 604740, Control_c, 0, 67, 76
1, 604752, Note_off_c, 0, 49, 55
1, 604752, Note_off_c, 0, 79, 59
1, 604755, Control_c, 0, 67, 76
1, 604770, Control_c, 0, 67, 77
1, 604777, Note_on_c, 0, 82, 77
1, 604785, Control_c, 0, 64, 90
1, 604785, Control_c, 0, 67, 78
1, 604798, Note_on_c, 0, 55, 60
1, 604800, Control_c, 0, 64, 92
1, 604800, Control_c, 0, 67, 80
1, 604815, Control_c, 0, 67, 80
1, 604818, Note_off_c, 0, 51, 56
1, 604850, Note_off_c, 0, 55, 59
1, 604861, Note_on_c, 0, 58, 48
1, 604903, Control_c, 0, 64, 90
1, 604903, Control_c, 0, 67, 80
1, 604907, Note_off_c, 0, 58, 59
1, 604918, Control_c, 0, 64, 88
1, 604918, Control_c, 0, 67, 79
1, 604920, Note_on_c, 0, 75, 87
1, 604922, Note_on_c, 0, 61, 58
1, 604933, Control_c, 0, 64, 87
1, 604933, Control_c, 0, 67, 79
1, 604934, Note_off_c, 0, 82, 42
1, 604946, Note_on_c, 0, 87, 42
1, 604947, Control_c, 0, 64, 87
1, 604962, Control_c, 0, 67, 78
1, 604972, Note_off_c, 0, 75, 64
1, 604975, Note_off_c, 0, 87, 53
1, 604987, Note_off_c, 0, 61, 58
1, 605000, Control_c, 0, 64, 86
1, 605015, Control_c, 0, 64, 86
1, 605015, Control_c, 0, 67, 78
1, 605030, Control_c, 0, 64, 85
1, 605062, Note_on_c, 0, 55, 59
1, 605074, Control_c, 0, 64, 85
1, 605074, Control_c, 0, 67, 78
1, 605089, Control_c, 0, 64, 84
1, 605104, Control_c, 0, 64, 83
1, 605119, Control_c, 0, 64, 80
1, 605134, Control_c, 0, 64, 78
1, 605147, Note_on_c, 0, 75, 81
1, 605149, Control_c, 0, 64, 75
1, 605149, Note_off_c, 0, 55, 63
1, 605161, Note_on_c, 0, 56, 63
1, 605164, Control_c, 0, 64, 70
1, 605178, Control_c, 0, 64, 65
1, 605178, Control_c, 0, 67, 79
1, 605193, Control_c, 0, 64, 62
1, 605193, Control_c, 0, 67, 79
1, 605223, Control_c, 0, 64, 63
1, 605238, Control_c, 0, 64, 64
1, 605253, Control_c, 0, 64, 65
1, 605266, Note_off_c, 0, 56, 63
1, 605267, Control_c, 0, 64, 66
1, 605282, Control_c, 0, 64, 68
1, 605287, Note_on_c, 0, 60, 55
1, 605297, Control_c, 0, 64, 70
1, 605312, Control_c, 0, 64, 71
1, 605312, Control_c, 0, 67, 79
1, 605316, Note_on_c, 0, 72, 83
1, 605327, Control_c, 0, 64, 72
1, 605340, Note_off_c, 0, 60, 62
1, 605341, Control_c, 0, 64, 73
1, 605354, Note_on_c, 0, 63, 66
1, 605371, Control_c, 0, 64, 72
1, 605371, Control_c, 0, 67, 78
1, 605408, Note_off_c, 0, 63, 58
1, 605410, Note_off_c, 0, 75, 56
1, 605437, Note_on_c, 0, 60, 64
1, 605459, Control_c, 0, 64, 73
1, 605459, Control_c, 0, 67, 78
1, 605463, Note_on_c, 0, 68, 78
1, 605494, Note_off_c, 0, 60, 61
1, 605502, Note_on_c, 0, 63, 74
1, 605504, Control_c, 0, 64, 71
1, 605519, Control_c, 0, 64, 67
1, 605519, Control_c, 0, 67, 77
1, 605528, Note_off_c, 0, 72, 56
1, 605533, Control_c, 0, 64, 63
1, 605548, Control_c, 0, 64, 59
1, 605562, Note_off_c, 0, 63, 60
1, 605563, Control_c, 0, 64, 60
1, 605563, Control_c, 0, 67, 76
1, 605578, Control_c, 0, 64, 63
1, 605585, Note_on_c, 0, 60, 37
1, 605593, Control_c, 0, 64, 65
1, 605608, Control_c, 0, 64, 67
1, 605608, Control_c, 0, 67, 76
1, 605612, Note_on_c, 0, 75, 80
1, 605614, Note_off_c, 0, 60, 64
1, 605614, Note_on_c, 0, 55, 65
1, 605615, Note_off_c, 0, 68, 58
1, 605623, Control_c, 0, 64, 67
1, 605638, Control_c, 0, 64, 67
1, 605652, Control_c, 0, 64, 66
1, 605667, Control_c, 0, 64, 66
1, 605679, Note_off_c, 0, 55, 56
1, 605682, Control_c, 0, 64, 65
1, 605697, Note_on_c, 0, 58, 69
1, 605697, Control_c, 0, 64, 64
1, 605712, Control_c, 0, 64, 63
1, 605733, Control_c, 0, 64, 64
1, 605741, Note_off_c, 0, 58, 62
1, 605743, Note_off_c, 0, 75, 54
1, 605748, Control_c, 0, 64, 65
1, 605758, Note_on_c, 0, 70, 71
1, 605763, Note_on_c, 0, 63, 68
1, 605763, Control_c, 0, 64, 66
1, 605784, Note_off_c, 0, 70, 66
1, 605793, Control_c, 0, 67, 75
1, 605822, Control_c, 0, 64, 66
1, 605834, Note_off_c, 0, 63, 59
1, 605837, Control_c, 0, 64, 65
1, 605837, Control_c, 0, 67, 76
1, 605853, Control_c, 0, 64, 63
1, 605864, Note_on_c, 0, 58, 34
1, 605868, Control_c, 0, 64, 61
1, 605868, Control_c, 0, 67, 76
1, 605882, Control_c, 0, 64, 63
1, 605882, Control_c, 0, 67, 77
1, 605896, Note_off_c, 0, 58, 59
1, 605897, Control_c, 0, 64, 64
1, 605897, Control_c, 0, 67, 79
1, 605901, Note_on_c, 0, 55, 58
1, 605904, Note_on_c, 0, 82, 83
1, 605912, Control_c, 0, 64, 65
1, 605912, Control_c, 0, 67, 79
1, 605915, Note_on_c, 0, 70, 64
1, 605925, Note_off_c, 0, 55, 59
1, 605927, Note_off_c, 0, 82, 65
1, 605927, Control_c, 0, 64, 64
1, 605927, Control_c, 0, 67, 79
1, 605933, Note_off_c, 0, 70, 65
1, 605942, Control_c, 0, 64, 64
1, 605942, Control_c, 0, 67, 78
1, 605957, Control_c, 0, 67, 79
1, 605972, Control_c, 0, 67, 80
1, 605981, Note_on_c, 0, 58, 67
1, 605986, Control_c, 0, 64, 64
1, 606016, Control_c, 0, 64, 65
1, 606031, Control_c, 0, 64, 67
1, 606034, Note_off_c, 0, 58, 57
1, 606046, Control_c, 0, 64, 69
1, 606061, Control_c, 0, 64, 70
1, 606063, Note_on_c, 0, 70, 64
1, 606064, Note_on_c, 0, 51, 65
1, 606064, Note_on_c, 0, 82, 79
1, 606076, Control_c, 0, 64, 70
1, 606090, Control_c, 0, 64, 69
1, 606097, Note_off_c, 0, 70, 65
1, 606103, Note_off_c, 0, 82, 61
1, 606105, Control_c, 0, 64, 68
1, 606105, Control_c, 0, 67, 79
1, 606120, Control_c, 0, 64, 67
1, 606133, Note_off_c, 0, 51, 62
1, 606135, Control_c, 0, 64, 68
1, 606146, Note_on_c, 0, 55, 64
1, 606150, Control_c, 0, 64, 68
1, 606179, Control_c, 0, 67, 78
1, 606183, Note_off_c, 0, 55, 64
1, 606194, Control_c, 0, 67, 78
1, 606207, Note_on_c, 0, 58, 68
1, 606208, Control_c, 0, 64, 68
1, 606220, Note_on_c, 0, 79, 60
1, 606223, Note_on_c, 0, 67, 59
1, 606223, Control_c, 0, 64, 67
1, 606238, Control_c, 0, 64, 67
1, 606239, Note_off_c, 0, 79, 63
1, 606243, Note_off_c, 0, 58, 59
1, 606243, Note_off_c, 0, 67, 62
1, 606253, Note_on_c, 0, 77, 17
1, 606254, Note_off_c, 0, 77, 127
1, 606254, Control_c, 0, 64, 66
1, 606254, Control_c, 0, 67, 78
1, 606268, Control_c, 0, 64, 65
1, 606282, Control_c, 0, 64, 64
1, 606282, Control_c, 0, 67, 79
1, 606283, Note_on_c, 0, 55, 63
1, 606297, Control_c, 0, 67, 80
1, 606312, Control_c, 0, 64, 65
1, 606321, Note_off_c, 0, 55, 64
1, 606341, Note_on_c, 0, 58, 65
1, 606356, Note_on_c, 0, 75, 82
1, 606356, Control_c, 0, 64, 64
1, 606358, Note_on_c, 0, 63, 80
1, 606371, Control_c, 0, 64, 63
1, 606386, Control_c, 0, 64, 62
1, 606391, Note_off_c, 0, 58, 46
1, 606401, Control_c, 0, 64, 54
1, 606404, Note_off_c, 0, 63, 58
1, 606407, Note_off_c, 0, 75, 60
1, 606412, Note_on_c, 0, 55, 53
1, 606416, Control_c, 0, 64, 11
1, 606416, Control_c, 0, 67, 79
1, 606431, Control_c, 0, 64, 0
1, 606446, Note_off_c, 0, 55, 64
1, 606446, Control_c, 0, 64, 36
1, 606460, Control_c, 0, 64, 53
1, 606482, Control_c, 0, 64, 62
1, 606495, Note_on_c, 0, 46, 72
1, 606497, Control_c, 0, 64, 66
1, 606512, Control_c, 0, 64, 70
1, 606518, Note_on_c, 0, 74, 85
1, 606519, Note_on_c, 0, 62, 69
1, 606527, Control_c, 0, 64, 74
1, 606541, Control_c, 0, 64, 75
1, 606545, Note_off_c, 0, 62, 66
1, 606556, Control_c, 0, 64, 74
1, 606556, Control_c, 0, 67, 78
1, 606559, Note_off_c, 0, 46, 59
1, 606562, Note_off_c, 0, 74, 64
1, 606571, Control_c, 0, 64, 73
1, 606586, Note_on_c, 0, 56, 60
1, 606586, Control_c, 0, 64, 72
1, 606615, Control_c, 0, 67, 79
1, 606630, Control_c, 0, 67, 79
1, 606640, Note_off_c, 0, 56, 64
1, 606645, Control_c, 0, 64, 70
1, 606652, Note_on_c, 0, 58, 72
1, 606661, Control_c, 0, 64, 69
1, 606662, Note_on_c, 0, 65, 72
1, 606663, Note_on_c, 0, 77, 88
1, 606676, Control_c, 0, 64, 69
1, 606676, Control_c, 0, 67, 79
1, 606686, Note_off_c, 0, 65, 70
1, 606687, Note_off_c, 0, 77, 65
1, 606691, Control_c, 0, 64, 69
1, 606704, Note_off_c, 0, 58, 63
1, 606705, Control_c, 0, 64, 70
1, 606705, Control_c, 0, 67, 79
1, 606720, Control_c, 0, 64, 69
1, 606735, Control_c, 0, 64, 68
1, 606744, Note_on_c, 0, 56, 57
1, 606750, Control_c, 0, 64, 67
1, 606765, Control_c, 0, 64, 65
1, 606776, Note_off_c, 0, 56, 65
1, 606780, Control_c, 0, 64, 64
1, 606780, Control_c, 0, 67, 80
1, 606793, Note_on_c, 0, 58, 76
1, 606794, Control_c, 0, 64, 60
1, 606800, Note_on_c, 0, 82, 86
1, 606804, Note_on_c, 0, 70, 76
1, 606809, Control_c, 0, 64, 36
1, 606824, Control_c, 0, 64, 0
1, 606827, Note_off_c, 0, 70, 67
1, 606837, Note_off_c, 0, 58, 56
1, 606850, Note_off_c, 0, 82, 62
1, 606863, Note_on_c, 0, 56, 61
1, 606869, Control_c, 0, 67, 80
1, 606884, Control_c, 0, 64, 28
1, 606898, Control_c, 0, 64, 47
1, 606913, Control_c, 0, 64, 58
1, 606920, Note_off_c, 0, 56, 63
1, 606928, Control_c, 0, 64, 64
1, 606943, Control_c, 0, 64, 67
1, 606954, Note_on_c, 0, 51, 69
1, 606955, Note_on_c, 0, 82, 87
1, 606957, Control_c, 0, 64, 70
1, 606958, Note_on_c, 0, 70, 81
1, 606972, Control_c, 0, 64, 71
1, 606987, Control_c, 0, 64, 72
1, 606995, Note_off_c, 0, 70, 60
1, 607002, Control_c, 0, 64, 73
1, 607002, Control_c, 0, 67, 80
1, 607007, Note_off_c, 0, 82, 63
1, 607017, Control_c, 0, 67, 78
1, 607036, Note_on_c, 0, 55, 65
1, 607048, Note_off_c, 0, 51, 58
1, 607061, Control_c, 0, 64, 72
1, 607076, Control_c, 0, 67, 79
1, 607086, Note_off_c, 0, 55, 62
1, 607105, Control_c, 0, 64, 72
1, 607113, Note_on_c, 0, 58, 68
1, 607116, Note_on_c, 0, 79, 84
1, 607120, Control_c, 0, 64, 71
1, 607125, Note_on_c, 0, 67, 70
1, 607135, Control_c, 0, 64, 71
1, 607135, Control_c, 0, 67, 79
1, 607137, Note_off_c, 0, 79, 67
1, 607148, Note_off_c, 0, 67, 67
1, 607149, Control_c, 0, 64, 70
1, 607149, Control_c, 0, 67, 80
1, 607155, Note_off_c, 0, 58, 59
1, 607164, Control_c, 0, 64, 71
1, 607194, Note_on_c, 0, 55, 70
1, 607194, Control_c, 0, 64, 70
1, 607209, Control_c, 0, 64, 71
1, 607229, Note_off_c, 0, 55, 65
1, 607231, Control_c, 0, 64, 71
1, 607231, Control_c, 0, 67, 79
1, 607246, Control_c, 0, 64, 72
1, 607261, Control_c, 0, 64, 71
1, 607262, Note_on_c, 0, 58, 75
1, 607267, Note_on_c, 0, 75, 82
1, 607271, Note_on_c, 0, 63, 80
1, 607276, Control_c, 0, 64, 69
1, 607291, Control_c, 0, 64, 66
1, 607297, Note_off_c, 0, 63, 63
1, 607301, Note_off_c, 0, 58, 59
1, 607305, Control_c, 0, 64, 65
1, 607320, Note_off_c, 0, 75, 62
1, 607320, Control_c, 0, 64, 66
1, 607327, Note_on_c, 0, 55, 66
1, 607335, Control_c, 0, 64, 68
1, 607350, Control_c, 0, 64, 71
1, 607350, Control_c, 0, 67, 79
1, 607364, Control_c, 0, 64, 74
1, 607367, Note_off_c, 0, 55, 65
1, 607379, Control_c, 0, 64, 74
1, 607385, Note_on_c, 0, 58, 76
1, 607409, Control_c, 0, 64, 75
1, 607415, Note_on_c, 0, 63, 78
1, 607420, Note_on_c, 0, 75, 84
1, 607424, Control_c, 0, 64, 76
1, 607435, Note_off_c, 0, 58, 63
1, 607438, Control_c, 0, 64, 78
1, 607451, Note_on_c, 0, 55, 67
1, 607456, Note_off_c, 0, 63, 59
1, 607469, Control_c, 0, 64, 77
1, 607469, Control_c, 0, 67, 78
1, 607474, Note_off_c, 0, 75, 62
1, 607484, Control_c, 0, 64, 77
1, 607504, Note_off_c, 0, 55, 60
1, 607524, Note_on_c, 0, 58, 73
1, 607543, Control_c, 0, 64, 76
1, 607558, Control_c, 0, 64, 76
1, 607562, Note_on_c, 0, 67, 76
1, 607562, Note_on_c, 0, 79, 88
1, 607573, Control_c, 0, 67, 78
1, 607581, Note_off_c, 0, 58, 60
1, 607583, Note_off_c, 0, 67, 69
1, 607587, Control_c, 0, 67, 77
1, 607593, Note_on_c, 0, 55, 67
1, 607599, Note_off_c, 0, 79, 60
1, 607617, Control_c, 0, 67, 78
1, 607661, Note_off_c, 0, 55, 61
1, 607662, Control_c, 0, 64, 76
1, 607674, Note_on_c, 0, 52, 78
1, 607677, Control_c, 0, 64, 77
1, 607677, Control_c, 0, 67, 79
1, 607692, Control_c, 0, 64, 78
1, 607692, Control_c, 0, 67, 80
1, 607705, Note_on_c, 0, 84, 88
1, 607706, Note_on_c, 0, 72, 80
1, 607706, Control_c, 0, 67, 80
1, 607733, Note_off_c, 0, 52, 61
1, 607733, Note_off_c, 0, 72, 62
1, 607736, Control_c, 0, 64, 77
1, 607751, Control_c, 0, 64, 75
1, 607754, Note_off_c, 0, 84, 65
1, 607760, Note_on_c, 0, 55, 74
1, 607766, Control_c, 0, 64, 70
1, 607766, Control_c, 0, 67, 81
1, 607780, Control_c, 0, 64, 63
1, 607780, Control_c, 0, 67, 81
1, 607795, Control_c, 0, 64, 47
1, 607798, Note_off_c, 0, 55, 64
1, 607810, Control_c, 0, 64, 47
1, 607810, Control_c, 0, 67, 80
1, 607825, Control_c, 0, 64, 57
1, 607840, Control_c, 0, 64, 64
1, 607840, Control_c, 0, 67, 79
1, 607842, Note_on_c, 0, 53, 73
1, 607852, Note_on_c, 0, 84, 88
1, 607854, Control_c, 0, 64, 68
1, 607858, Note_on_c, 0, 72, 76
1, 607869, Control_c, 0, 64, 73
1, 607882, Note_off_c, 0, 72, 68
1, 607884, Control_c, 0, 64, 78
1, 607886, Note_off_c, 0, 84, 63
1, 607899, Control_c, 0, 64, 80
1, 607912, Note_off_c, 0, 53, 64
1, 607926, Note_on_c, 0, 56, 76
1, 607928, Control_c, 0, 67, 78
1, 607958, Control_c, 0, 64, 79
1, 607980, Control_c, 0, 64, 79
1, 607989, Note_off_c, 0, 56, 65
1, 607995, Control_c, 0, 64, 78
1, 608007, Note_on_c, 0, 60, 76
1, 608010, Control_c, 0, 64, 76
1, 608010, Control_c, 0, 67, 78
1, 608013, Note_on_c, 0, 80, 84
1, 608013, Note_on_c, 0, 68, 81
1, 608025, Control_c, 0, 64, 76
1, 608054, Control_c, 0, 64, 75
1, 608054, Control_c, 0, 67, 77
1, 608057, Note_off_c, 0, 60, 64
1, 608058, Note_off_c, 0, 68, 62
1, 608060, Note_off_c, 0, 80, 63
1, 608084, Control_c, 0, 64, 74
1, 608084, Control_c, 0, 67, 77
1, 608085, Note_on_c, 0, 56, 76
1, 608099, Control_c, 0, 64, 73
1, 608114, Control_c, 0, 64, 72
1, 608128, Control_c, 0, 67, 76
1, 608136, Note_off_c, 0, 56, 64
1, 608153, Note_on_c, 0, 60, 73
1, 608157, Note_on_c, 0, 65, 76
1, 608157, Note_on_c, 0, 77, 85
1, 608187, Control_c, 0, 64, 72
1, 608187, Control_c, 0, 67, 76
1, 608201, Note_off_c, 0, 65, 62
1, 608202, Control_c, 0, 64, 73
1, 608204, Note_off_c, 0, 77, 59
1, 608215, Note_on_c, 0, 56, 66
1, 608218, Note_off_c, 0, 60, 61
1, 608232, Control_c, 0, 64, 70
1, 608247, Control_c, 0, 64, 63
1, 608247, Control_c, 0, 67, 75
1, 608263, Control_c, 0, 64, 23
1, 608263, Control_c, 0, 67, 75
1, 608275, Note_off_c, 0, 56, 64
1, 608277, Control_c, 0, 64, 0
1, 608280, Note_on_c, 0, 48, 84
1, 608292, Control_c, 0, 64, 45
1, 608292, Control_c, 0, 67, 74
1, 608304, Note_on_c, 0, 64, 83
1, 608306, Note_on_c, 0, 76, 90
1, 608307, Control_c, 0, 64, 61
1, 608322, Control_c, 0, 64, 67
1, 608337, Control_c, 0, 64, 71
1, 608337, Control_c, 0, 67, 75
1, 608342, Note_off_c, 0, 64, 62
1, 608347, Note_off_c, 0, 48, 60
1, 608351, Control_c, 0, 64, 74
1, 608351, Control_c, 0, 67, 75
1, 608356, Note_off_c, 0, 76, 62
1, 608366, Control_c, 0, 64, 76
1, 608366, Control_c, 0, 67, 76
1, 608378, Note_on_c, 0, 58, 74
1, 608396, Control_c, 0, 64, 75
1, 608396, Control_c, 0, 67, 76
1, 608410, Control_c, 0, 67, 77
1, 608425, Control_c, 0, 67, 77
1, 608431, Note_off_c, 0, 58, 64
1, 608443, Note_on_c, 0, 60, 71
1, 608446, Note_on_c, 0, 79, 88
1, 608447, Note_on_c, 0, 67, 79
1, 608455, Control_c, 0, 67, 78
1, 608470, Control_c, 0, 64, 75
1, 608474, Note_off_c, 0, 67, 63
1, 608484, Control_c, 0, 67, 77
1, 608489, Note_off_c, 0, 79, 63
1, 608496, Note_off_c, 0, 60, 62
1, 608499, Control_c, 0, 64, 74
1, 608514, Control_c, 0, 64, 73
1, 608517, Note_on_c, 0, 58, 77
1, 608544, Control_c, 0, 64, 73
1, 608567, Note_off_c, 0, 58, 63
1, 608583, Note_on_c, 0, 60, 81
1, 608586, Note_on_c, 0, 72, 84
1, 608586, Note_on_c, 0, 84, 94
1, 608589, Control_c, 0, 64, 73
1, 608603, Control_c, 0, 64, 74
1, 608618, Control_c, 0, 64, 75
1, 608626, Note_off_c, 0, 72, 63
1, 608633, Control_c, 0, 64, 76
1, 608645, Note_off_c, 0, 60, 59
1, 608645, Note_off_c, 0, 84, 61
1, 608648, Note_on_c, 0, 58, 75
1, 608648, Control_c, 0, 64, 76
1, 608663, Control_c, 0, 64, 74
1, 608677, Control_c, 0, 64, 68
1, 608677, Control_c, 0, 67, 76
1, 608692, Control_c, 0, 64, 54
1, 608707, Control_c, 0, 64, 0
1, 608713, Note_off_c, 0, 58, 63
1, 608744, Control_c, 0, 64, 55
1, 608750, Note_on_c, 0, 84, 91
1, 608750, Note_on_c, 0, 53, 70
1, 608750, Note_on_c, 0, 72, 80
1, 608759, Control_c, 0, 64, 64
1, 608774, Control_c, 0, 64, 68
1, 608786, Note_off_c, 0, 72, 64
1, 608786, Note_off_c, 0, 84, 61
1, 608788, Control_c, 0, 64, 72
1, 608788, Control_c, 0, 67, 76
1, 608803, Control_c, 0, 64, 75
1, 608816, Note_off_c, 0, 53, 63
1, 608818, Control_c, 0, 64, 76
1, 608822, Note_on_c, 0, 56, 79
1, 608848, Control_c, 0, 64, 76
1, 608863, Control_c, 0, 64, 74
1, 608863, Control_c, 0, 67, 75
1, 608876, Control_c, 0, 64, 74
1, 608884, Note_off_c, 0, 56, 65
1, 608899, Note_on_c, 0, 60, 78
1, 608902, Note_on_c, 0, 68, 82
1, 608904, Note_on_c, 0, 80, 81
1, 608920, Control_c, 0, 64, 73
1, 608920, Control_c, 0, 67, 75
1, 608935, Control_c, 0, 64, 72
1, 608950, Note_off_c, 0, 68, 63
1, 608950, Control_c, 0, 64, 71
1, 608951, Note_off_c, 0, 80, 60
1, 608954, Note_off_c, 0, 60, 64
1, 608979, Note_on_c, 0, 56, 82
1, 609024, Control_c, 0, 64, 71
1, 609030, Note_off_c, 0, 56, 65
1, 609038, Note_on_c, 0, 65, 82
1, 609039, Note_on_c, 0, 77, 88
1, 609050, Note_on_c, 0, 60, 74
1, 609055, Control_c, 0, 64, 71
1, 609055, Control_c, 0, 67, 75
1, 609070, Control_c, 0, 64, 72
1, 609084, Note_off_c, 0, 65, 64
1, 609085, Control_c, 0, 64, 73
1, 609085, Control_c, 0, 67, 74
1, 609086, Note_off_c, 0, 77, 62
1, 609099, Control_c, 0, 67, 74
1, 609111, Note_off_c, 0, 60, 65
1, 609114, Control_c, 0, 64, 71
1, 609122, Note_on_c, 0, 56, 81
1, 609129, Control_c, 0, 64, 66
1, 609129, Control_c, 0, 67, 75
1, 609144, Control_c, 0, 64, 60
1, 609144, Control_c, 0, 67, 75
1, 609159, Control_c, 0, 64, 59
1, 609159, Control_c, 0, 67, 76
1, 609173, Control_c, 0, 64, 65
1, 609174, Note_off_c, 0, 56, 65
1, 609188, Note_on_c, 0, 62, 84
1, 609188, Control_c, 0, 64, 70
1, 609191, Note_on_c, 0, 74, 93
1, 609199, Note_on_c, 0, 58, 81
1, 609203, Control_c, 0, 64, 75
1, 609218, Control_c, 0, 64, 78
1, 609218, Control_c, 0, 67, 75
1, 609225, Note_off_c, 0, 62, 57
1, 609231, Note_off_c, 0, 74, 63
1, 609233, Control_c, 0, 67, 75
1, 609248, Control_c, 0, 64, 78
1, 609256, Note_off_c, 0, 58, 63
1, 609262, Control_c, 0, 67, 74
1, 609277, Note_on_c, 0, 56, 77
1, 609277, Control_c, 0, 64, 77
1, 609292, Control_c, 0, 67, 74
1, 609322, Control_c, 0, 64, 76
1, 609334, Note_on_c, 0, 65, 83
1, 609334, Note_off_c, 0, 56, 66
1, 609334, Note_on_c, 0, 77, 92
1, 609337, Control_c, 0, 64, 74
1, 609338, Note_on_c, 0, 58, 86
1, 609359, Note_off_c, 0, 65, 67
1, 609373, Note_off_c, 0, 77, 62
1, 609425, Control_c, 0, 64, 74
1, 609434, Note_on_c, 0, 56, 70
1, 609435, Note_on_c, 0, 50, 73
1, 609439, Note_off_c, 0, 58, 56
1, 609440, Control_c, 0, 64, 75
1, 609455, Control_c, 0, 64, 76
1, 609455, Control_c, 0, 67, 74
1, 609475, Note_on_c, 0, 70, 93
1, 609477, Note_on_c, 0, 82, 92
1, 609477, Control_c, 0, 64, 77
1, 609496, Note_off_c, 0, 56, 64
1, 609516, Note_off_c, 0, 50, 63
1, 609516, Note_off_c, 0, 70, 64
1, 609532, Note_off_c, 0, 82, 64
1, 609537, Control_c, 0, 64, 78
1, 609566, Control_c, 0, 64, 74
1, 609578, Note_on_c, 0, 51, 62
1, 609581, Control_c, 0, 64, 67
1, 609596, Control_c, 0, 64, 46
1, 609596, Control_c, 0, 67, 74
1, 609611, Control_c, 0, 64, 11
1, 609625, Control_c, 0, 64, 54
1, 609625, Control_c, 0, 67, 74
1, 609626, Note_on_c, 0, 82, 96
1, 609627, Note_on_c, 0, 70, 92
1, 609640, Control_c, 0, 64, 65
1, 609640, Control_c, 0, 67, 75
1, 609655, Control_c, 0, 64, 73
1, 609663, Note_off_c, 0, 51, 64
1, 609668, Note_off_c, 0, 70, 67
1, 609670, Control_c, 0, 64, 81
1, 609677, Note_off_c, 0, 82, 64
1, 609685, Control_c, 0, 64, 87
1, 609687, Note_on_c, 0, 55, 58
1, 609699, Control_c, 0, 64, 89
1, 609714, Control_c, 0, 64, 88
1, 609729, Control_c, 0, 64, 87
1, 609743, Control_c, 0, 64, 84
1, 609744, Note_off_c, 0, 55, 63
1, 609758, Control_c, 0, 64, 81
1, 609760, Note_on_c, 0, 58, 79
1, 609780, Note_on_c, 0, 79, 93
1, 609783, Note_on_c, 0, 67, 80
1, 609788, Control_c, 0, 67, 75
1, 609802, Note_off_c, 0, 79, 66
1, 609803, Control_c, 0, 64, 81
1, 609803, Control_c, 0, 67, 77
1, 609807, Note_off_c, 0, 67, 66
1, 609812, Note_off_c, 0, 58, 63
1, 609818, Control_c, 0, 64, 79
1, 609818, Control_c, 0, 67, 77
1, 609826, Note_on_c, 0, 55, 66
1, 609832, Control_c, 0, 64, 79
1, 609832, Control_c, 0, 67, 78
1, 609872, Note_off_c, 0, 55, 61
1, 609878, Control_c, 0, 67, 77
1, 609891, Note_on_c, 0, 58, 74
1, 609922, Control_c, 0, 67, 77
1, 609925, Note_on_c, 0, 75, 86
1, 609927, Note_on_c, 0, 63, 88
1, 609937, Control_c, 0, 67, 76
1, 609952, Control_c, 0, 64, 80
1, 609952, Control_c, 0, 67, 75
1, 609966, Note_off_c, 0, 58, 57
1, 609967, Note_on_c, 0, 55, 71
1, 609967, Control_c, 0, 64, 81
1, 609967, Control_c, 0, 67, 75
1, 609978, Note_off_c, 0, 63, 62
1, 609981, Control_c, 0, 64, 81
1, 609981, Control_c, 0, 67, 74
1, 609984, Note_off_c, 0, 75, 63
1, 609996, Note_off_c, 0, 55, 65
1, 609996, Control_c, 0, 64, 79
1, 609996, Control_c, 0, 67, 74
1, 610011, Control_c, 0, 64, 72
1, 610011, Control_c, 0, 67, 73
1, 610026, Control_c, 0, 64, 60
1, 610041, Control_c, 0, 64, 46
1, 610041, Control_c, 0, 67, 73
1, 610055, Control_c, 0, 64, 59
1, 610056, Note_on_c, 0, 44, 79
1, 610070, Control_c, 0, 64, 66
1, 610070, Control_c, 0, 67, 72
1, 610073, Note_on_c, 0, 60, 87
1, 610073, Note_on_c, 0, 72, 90
1, 610085, Control_c, 0, 64, 72
1, 610100, Control_c, 0, 64, 78
1, 610107, Note_off_c, 0, 60, 62
1, 610109, Note_off_c, 0, 72, 66
1, 610115, Control_c, 0, 64, 82
1, 610115, Control_c, 0, 67, 72
1, 610127, Note_off_c, 0, 44, 63
1, 610130, Control_c, 0, 64, 83
1, 610130, Control_c, 0, 67, 71
1, 610139, Note_on_c, 0, 53, 67
1, 610145, Control_c, 0, 67, 69
1, 610160, Control_c, 0, 67, 68
1, 610174, Control_c, 0, 64, 83
1, 610174, Control_c, 0, 67, 68
1, 610187, Note_off_c, 0, 53, 65
1, 610189, Control_c, 0, 67, 67
1, 610191, Note_on_c, 0, 56, 74
1, 610225, Note_on_c, 0, 65, 87
1, 610227, Note_on_c, 0, 77, 94
1, 610241, Control_c, 0, 67, 66
1, 610252, Note_off_c, 0, 77, 65
1, 610255, Note_off_c, 0, 65, 62
1, 610255, Control_c, 0, 67, 65
1, 610261, Note_off_c, 0, 56, 64
1, 610266, Note_on_c, 0, 53, 64
1, 610270, Control_c, 0, 67, 64
1, 610285, Control_c, 0, 67, 64
1, 610300, Control_c, 0, 67, 63
1, 610314, Note_off_c, 0, 53, 64
1, 610315, Control_c, 0, 67, 62
1, 610330, Note_on_c, 0, 56, 69
1, 610330, Control_c, 0, 67, 62
1, 610345, Control_c, 0, 67, 61
1, 610360, Control_c, 0, 67, 60
1, 610367, Note_on_c, 0, 68, 90
1, 610368, Note_on_c, 0, 80, 86
1, 610374, Control_c, 0, 67, 58
1, 610389, Control_c, 0, 64, 83
1, 610389, Control_c, 0, 67, 57
1, 610390, Note_off_c, 0, 80, 65
1, 610402, Note_on_c, 0, 53, 62
1, 610404, Note_off_c, 0, 68, 62
1, 610404, Control_c, 0, 64, 84
1, 610413, Note_off_c, 0, 56, 60
1, 610419, Control_c, 0, 64, 86
1, 610434, Control_c, 0, 64, 86
1, 610435, Note_off_c, 0, 53, 68
1, 610449, Control_c, 0, 64, 84
1, 610464, Control_c, 0, 64, 76
1, 610479, Control_c, 0, 64, 64
1, 610493, Note_on_c, 0, 46, 81
1, 610494, Control_c, 0, 64, 0
1, 610508, Control_c, 0, 64, 43
1, 610517, Note_on_c, 0, 70, 88
1, 610521, Note_on_c, 0, 58, 89
1, 610523, Control_c, 0, 64, 63
1, 610523, Control_c, 0, 67, 56
1, 610538, Control_c, 0, 64, 70
1, 610538, Control_c, 0, 67, 56
1, 610544, Note_off_c, 0, 58, 67
1, 610553, Control_c, 0, 64, 78
1, 610553, Control_c, 0, 67, 54
1, 610562, Note_off_c, 0, 46, 60
1, 610565, Note_on_c, 0, 51, 72
1, 610565, Note_off_c, 0, 70, 62
1, 610567, Control_c, 0, 64, 86
1, 610567, Control_c, 0, 67, 53
1, 610582, Control_c, 0, 64, 91
1, 610582, Control_c, 0, 67, 51
1, 610597, Control_c, 0, 67, 49
1, 610612, Control_c, 0, 67, 45
1, 610625, Note_off_c, 0, 51, 64
1, 610627, Control_c, 0, 67, 42
1, 610639, Note_on_c, 0, 55, 76
1, 610642, Control_c, 0, 67, 38
1, 610658, Control_c, 0, 67, 33
1, 610667, Note_on_c, 0, 63, 90
1, 610667, Note_on_c, 0, 75, 91
1, 610672, Control_c, 0, 67, 25
1, 610687, Control_c, 0, 67, 15
1, 610698, Note_off_c, 0, 55, 60
1, 610702, Control_c, 0, 67, 0
1, 610711, Note_on_c, 0, 51, 78
1, 610714, Note_off_c, 0, 63, 60
1, 610714, Note_off_c, 0, 75, 63
1, 610771, Note_off_c, 0, 51, 63
1, 610791, Note_on_c, 0, 55, 79
1, 610806, Note_on_c, 0, 79, 99
1, 610810, Note_on_c, 0, 67, 80
1, 610825, Note_off_c, 0, 79, 66
1, 610831, Note_off_c, 0, 67, 69
1, 610853, Note_off_c, 0, 55, 53
1, 610863, Note_on_c, 0, 51, 76
1, 610865, Control_c, 0, 64, 90
1, 610879, Control_c, 0, 64, 81
1, 610894, Control_c, 0, 64, 66
1, 610909, Control_c, 0, 64, 53
1, 610924, Control_c, 0, 64, 60
1, 610930, Note_on_c, 0, 46, 79
1, 610935, Note_off_c, 0, 51, 64
1, 610939, Control_c, 0, 64, 67
1, 610944, Note_on_c, 0, 70, 90
1, 610950, Note_on_c, 0, 58, 83
1, 610953, Control_c, 0, 64, 75
1, 610976, Control_c, 0, 64, 86
1, 610984, Note_off_c, 0, 58, 65
1, 610991, Control_c, 0, 64, 99
1, 611003, Note_off_c, 0, 70, 63
1, 611004, Note_on_c, 0, 50, 71
1, 611005, Control_c, 0, 64, 106
1, 611010, Note_off_c, 0, 46, 60
1, 611020, Control_c, 0, 64, 107
1, 611065, Control_c, 0, 64, 109
1, 611072, Note_off_c, 0, 50, 65
1, 611079, Control_c, 0, 64, 112
1, 611083, Note_on_c, 0, 53, 76
1, 611093, Poly_aftertouch_c, 0, 49, 0
1, 611094, Control_c, 0, 64, 114
1, 611099, Note_on_c, 0, 74, 92
1, 611107, Note_on_c, 0, 62, 69
1, 611126, Note_off_c, 0, 74, 66
1, 611127, Note_off_c, 0, 62, 64
1, 611138, Control_c, 0, 64, 115
1, 611149, Note_on_c, 0, 50, 84
1, 611152, Note_off_c, 0, 53, 64
1, 611153, Control_c, 0, 64, 115
1, 611168, Control_c, 0, 64, 117
1, 611179, Note_off_c, 0, 50, 66
1, 611183, Control_c, 0, 64, 118
1, 611197, Control_c, 0, 64, 119
1, 611212, Control_c, 0, 64, 120
1, 611227, Control_c, 0, 64, 119
1, 611242, Control_c, 0, 64, 105
1, 611246, Poly_aftertouch_c, 0, 51, 0
1, 611253, Note_on_c, 0, 68, 89
1, 611255, Note_on_c, 0, 58, 99
1, 611257, Control_c, 0, 64, 90
1, 611260, Note_on_c, 0, 46, 92
1, 611272, Control_c, 0, 64, 74
1, 611286, Control_c, 0, 64, 67
1, 611298, Note_off_c, 0, 46, 48
1, 611298, Note_off_c, 0, 58, 64
1, 611301, Control_c, 0, 64, 65
1, 611316, Control_c, 0, 64, 65
1, 611319, Note_off_c, 0, 68, 65
1, 611328, Note_on_c, 0, 77, 80
1, 611331, Control_c, 0, 64, 66
1, 611346, Control_c, 0, 64, 65
1, 611346, Control_c, 0, 67, 11
1, 611360, Note_off_c, 0, 77, 61
1, 611361, Control_c, 0, 64, 64
1, 611361, Control_c, 0, 67, 18
1, 611376, Control_c, 0, 64, 60
1, 611376, Control_c, 0, 67, 23
1, 611391, Control_c, 0, 67, 29
1, 611396, Note_on_c, 0, 58, 96
1, 611399, Note_on_c, 0, 46, 91
1, 611405, Control_c, 0, 64, 63
1, 611405, Control_c, 0, 67, 35
1, 611420, Control_c, 0, 64, 63
1, 611420, Control_c, 0, 67, 40
1, 611435, Control_c, 0, 67, 47
1, 611444, Note_off_c, 0, 58, 65
1, 611450, Control_c, 0, 67, 52
1, 611463, Note_off_c, 0, 46, 62
1, 611465, Control_c, 0, 67, 53
1, 611470, Note_on_c, 0, 79, 65
1, 611480, Control_c, 0, 64, 63
1, 611495, Control_c, 0, 64, 61
1, 611510, Control_c, 0, 64, 60
1, 611525, Control_c, 0, 64, 60
1, 611527, Note_off_c, 0, 79, 53
1, 611539, Control_c, 0, 64, 61
1, 611546, Note_on_c, 0, 43, 85
1, 611549, Note_on_c, 0, 55, 76
1, 611549, Note_on_c, 0, 82, 78
1, 611569, Control_c, 0, 64, 61
1, 611574, Note_off_c, 0, 55, 66
1, 611574, Note_off_c, 0, 43, 68
1, 611584, Control_c, 0, 67, 52
1, 611613, Control_c, 0, 64, 61
1, 611626, Note_off_c, 0, 82, 62
1, 611638, Note_on_c, 0, 87, 71
1, 611658, Control_c, 0, 64, 62
1, 611658, Control_c, 0, 67, 52
1, 611673, Control_c, 0, 64, 62
1, 611689, Note_on_c, 0, 91, 73
1, 611689, Note_on_c, 0, 39, 77
1, 611692, Note_on_c, 0, 51, 65
1, 611702, Control_c, 0, 64, 62
1, 611709, Note_off_c, 0, 87, 64
1, 611725, Control_c, 0, 64, 61
1, 611730, Note_off_c, 0, 51, 65
1, 611733, Note_off_c, 0, 39, 61
1, 611740, Control_c, 0, 64, 61
1, 611740, Control_c, 0, 67, 51
1, 611749, Note_off_c, 0, 91, 66
1, 611767, Note_on_c, 0, 79, 66
1, 611769, Control_c, 0, 67, 51
1, 611784, Control_c, 0, 67, 50
1, 611799, Control_c, 0, 64, 60
1, 611799, Control_c, 0, 67, 49
1, 611803, Note_off_c, 0, 79, 60
1, 611814, Control_c, 0, 67, 50
1, 611821, Note_on_c, 0, 38, 88
1, 611830, Note_on_c, 0, 50, 79
1, 611843, Control_c, 0, 64, 61
1, 611856, Note_off_c, 0, 38, 64
1, 611859, Note_off_c, 0, 50, 70
1, 611887, Control_c, 0, 64, 60
1, 611901, Control_c, 0, 64, 61
1, 611906, Note_on_c, 0, 80, 72
1, 611916, Control_c, 0, 64, 61
1, 611945, Control_c, 0, 67, 49
1, 611974, Note_on_c, 0, 53, 86
1, 611977, Note_off_c, 0, 80, 59
1, 611978, Note_on_c, 0, 41, 73
1, 611987, Note_on_c, 0, 82, 82
1, 612005, Control_c, 0, 64, 62
1, 612005, Control_c, 0, 67, 50
1, 612009, Note_off_c, 0, 41, 64
1, 612013, Note_off_c, 0, 53, 65
1, 612020, Control_c, 0, 67, 50
1, 612021, Note_on_c, 0, 43, 13
1, 612022, Note_off_c, 0, 43, 127
1, 612050, Control_c, 0, 64, 62
1, 612053, Note_on_c, 0, 89, 77
1, 612065, Control_c, 0, 64, 63
1, 612065, Control_c, 0, 67, 50
1, 612079, Control_c, 0, 64, 63
1, 612083, Note_off_c, 0, 82, 64
1, 612094, Control_c, 0, 67, 50
1, 612106, Note_on_c, 0, 58, 96
1, 612108, Note_on_c, 0, 46, 91
1, 612109, Control_c, 0, 67, 51
1, 612114, Note_on_c, 0, 92, 81
1, 612124, Control_c, 0, 64, 64
1, 612139, Control_c, 0, 64, 65
1, 612139, Control_c, 0, 67, 52
1, 612145, Note_off_c, 0, 58, 67
1, 612153, Control_c, 0, 64, 66
1, 612158, Note_off_c, 0, 89, 58
1, 612163, Note_off_c, 0, 46, 60
1, 612183, Control_c, 0, 67, 52
1, 612191, Note_on_c, 0, 80, 82
1, 612194, Note_off_c, 0, 92, 66
1, 612198, Control_c, 0, 67, 53
1, 612227, Control_c, 0, 64, 66
1, 612235, Note_off_c, 0, 80, 63
1, 612243, Control_c, 0, 64, 66
1, 612256, Note_on_c, 0, 58, 93
1, 612258, Control_c, 0, 67, 52
1, 612258, Note_on_c, 0, 46, 93
1, 612288, Control_c, 0, 67, 52
1, 612297, Note_off_c, 0, 58, 65
1, 612303, Control_c, 0, 67, 51
1, 612315, Note_off_c, 0, 46, 62
1, 612318, Note_on_c, 0, 79, 75
1, 612332, Control_c, 0, 67, 51
1, 612391, Note_on_c, 0, 82, 85
1, 612395, Note_off_c, 0, 79, 59
1, 612406, Control_c, 0, 64, 65
1, 612409, Note_on_c, 0, 43, 78
1, 612415, Note_on_c, 0, 55, 74
1, 612435, Control_c, 0, 67, 50
1, 612443, Note_off_c, 0, 55, 68
1, 612449, Note_off_c, 0, 43, 64
1, 612471, Note_on_c, 0, 87, 84
1, 612488, Control_c, 0, 67, 51
1, 612491, Note_off_c, 0, 82, 62
1, 612503, Control_c, 0, 64, 65
1, 612517, Control_c, 0, 67, 51
1, 612532, Control_c, 0, 64, 65
1, 612534, Note_on_c, 0, 91, 79
1, 612560, Note_on_c, 0, 39, 82
1, 612561, Note_on_c, 0, 51, 84
1, 612578, Note_off_c, 0, 87, 64
1, 612598, Note_off_c, 0, 51, 60
1, 612602, Note_off_c, 0, 39, 59
1, 612605, Note_off_c, 0, 91, 61
1, 612606, Note_on_c, 0, 79, 74
1, 612606, Control_c, 0, 67, 51
1, 612637, Control_c, 0, 64, 65
1, 612640, Note_off_c, 0, 79, 63
1, 612693, Note_on_c, 0, 39, 83
1, 612695, Note_on_c, 0, 51, 88
1, 612696, Control_c, 0, 67, 50
1, 612711, Control_c, 0, 64, 64
1, 612740, Note_off_c, 0, 39, 61
1, 612741, Note_off_c, 0, 51, 64
1, 612744, Note_on_c, 0, 79, 78
1, 612755, Control_c, 0, 67, 50
1, 612784, Control_c, 0, 67, 49
1, 612821, Note_on_c, 0, 82, 81
1, 612821, Note_off_c, 0, 79, 61
1, 612833, Note_on_c, 0, 55, 91
1, 612836, Note_on_c, 0, 43, 86
1, 612861, Note_off_c, 0, 43, 65
1, 612869, Note_off_c, 0, 55, 65
1, 612873, Control_c, 0, 67, 49
1, 612888, Note_on_c, 0, 45, 15
1, 612889, Note_off_c, 0, 45, 127
1, 612890, Note_on_c, 0, 87, 80
1, 612915, Note_off_c, 0, 82, 62
1, 612917, Control_c, 0, 64, 63
1, 612932, Control_c, 0, 64, 60
1, 612947, Control_c, 0, 64, 53
1, 612949, Note_on_c, 0, 91, 82
1, 612962, Control_c, 0, 64, 42
1, 612962, Control_c, 0, 67, 48
1, 612965, Note_on_c, 0, 60, 94
1, 612968, Note_on_c, 0, 48, 94
1, 612968, Note_off_c, 0, 87, 66
1, 612977, Control_c, 0, 64, 51
1, 612992, Control_c, 0, 64, 59
1, 613006, Control_c, 0, 64, 60
1, 613020, Note_off_c, 0, 60, 63
1, 613021, Control_c, 0, 64, 61
1, 613021, Control_c, 0, 67, 48
1, 613028, Note_off_c, 0, 48, 61
1, 613036, Control_c, 0, 64, 61
1, 613036, Control_c, 0, 67, 49
1, 613038, Note_on_c, 0, 88, 83
1, 613052, Control_c, 0, 64, 63
1, 613054, Note_off_c, 0, 91, 64
1, 613066, Control_c, 0, 64, 64
1, 613078, Note_off_c, 0, 88, 65
1, 613081, Control_c, 0, 64, 66
1, 613096, Control_c, 0, 64, 66
1, 613111, Control_c, 0, 67, 49
1, 613114, Note_on_c, 0, 48, 99
1, 613117, Note_on_c, 0, 60, 85
1, 613141, Control_c, 0, 64, 68
1, 613156, Control_c, 0, 64, 71
1, 613160, Note_off_c, 0, 48, 64
1, 613160, Note_off_c, 0, 60, 62
1, 613170, Control_c, 0, 64, 73
1, 613170, Control_c, 0, 67, 50
1, 613185, Control_c, 0, 67, 50
1, 613188, Note_on_c, 0, 80, 83
1, 613269, Note_on_c, 0, 56, 90
1, 613272, Note_on_c, 0, 44, 86
1, 613278, Note_on_c, 0, 84, 72
1, 613306, Note_off_c, 0, 80, 59
1, 613309, Note_off_c, 0, 56, 61
1, 613311, Control_c, 0, 64, 72
1, 613314, Note_on_c, 0, 89, 76
1, 613326, Control_c, 0, 64, 70
1, 613326, Control_c, 0, 67, 50
1, 613327, Note_off_c, 0, 44, 62
1, 613341, Control_c, 0, 64, 68
1, 613341, Control_c, 0, 67, 49
1, 613355, Control_c, 0, 64, 69
1, 613370, Control_c, 0, 64, 70
1, 613378, Note_off_c, 0, 84, 53
1, 613385, Control_c, 0, 64, 71
1, 613396, Note_on_c, 0, 92, 86
1, 613400, Control_c, 0, 64, 71
1, 613404, Note_on_c, 0, 41, 87
1, 613407, Note_on_c, 0, 53, 82
1, 613415, Control_c, 0, 64, 72
1, 613426, Note_off_c, 0, 89, 60
1, 613430, Control_c, 0, 64, 71
1, 613441, Note_off_c, 0, 53, 63
1, 613455, Note_off_c, 0, 41, 63
1, 613460, Control_c, 0, 64, 72
1, 613472, Note_on_c, 0, 82, 84
1, 613488, Note_off_c, 0, 92, 65
1, 613489, Control_c, 0, 64, 69
1, 613489, Control_c, 0, 67, 49
1, 613504, Control_c, 0, 64, 65
1, 613504, Control_c, 0, 67, 48
1, 613516, Note_off_c, 0, 82, 64
1, 613518, Control_c, 0, 64, 62
1, 613533, Control_c, 0, 64, 61
1, 613540, Note_on_c, 0, 40, 94
1, 613546, Note_on_c, 0, 52, 82
1, 613548, Control_c, 0, 64, 64
1, 613548, Control_c, 0, 67, 49
1, 613563, Control_c, 0, 64, 66
1, 613578, Control_c, 0, 64, 68
1, 613585, Note_off_c, 0, 40, 65
1, 613592, Control_c, 0, 64, 69
1, 613592, Control_c, 0, 67, 49
1, 613593, Note_off_c, 0, 52, 64
1, 613607, Control_c, 0, 64, 68
1, 613618, Note_on_c, 0, 82, 87
1, 613637, Control_c, 0, 67, 49
1, 613652, Control_c, 0, 64, 69
1, 613666, Control_c, 0, 64, 69
1, 613680, Note_on_c, 0, 84, 72
1, 613681, Control_c, 0, 64, 69
1, 613686, Note_off_c, 0, 82, 63
1, 613696, Note_on_c, 0, 43, 81
1, 613696, Control_c, 0, 64, 68
1, 613698, Note_on_c, 0, 55, 84
1, 613711, Control_c, 0, 64, 67
1, 613723, Note_on_c, 0, 91, 86
1, 613723, Note_off_c, 0, 43, 66
1, 613725, Control_c, 0, 64, 68
1, 613731, Note_off_c, 0, 55, 66
1, 613740, Control_c, 0, 64, 69
1, 613740, Control_c, 0, 67, 49
1, 613755, Control_c, 0, 64, 70
1, 613770, Control_c, 0, 64, 71
1, 613794, Note_on_c, 0, 94, 83
1, 613829, Control_c, 0, 64, 72
1, 613834, Note_on_c, 0, 60, 82
1, 613836, Note_on_c, 0, 48, 83
1, 613845, Control_c, 0, 64, 73
1, 613858, Note_on_c, 0, 82, 89
1, 613860, Control_c, 0, 64, 73
1, 613862, Note_off_c, 0, 91, 62
1, 613865, Note_off_c, 0, 48, 67
1, 613867, Note_off_c, 0, 60, 63
1, 613875, Note_off_c, 0, 94, 66
1, 613875, Control_c, 0, 64, 71
1, 613877, Note_off_c, 0, 84, 60
1, 613889, Control_c, 0, 64, 68
1, 613904, Control_c, 0, 64, 66
1, 613907, Note_off_c, 0, 82, 64
1, 613919, Control_c, 0, 64, 65
1, 613919, Control_c, 0, 67, 49
1, 613934, Control_c, 0, 64, 67
1, 613948, Control_c, 0, 64, 69
1, 613954, Note_on_c, 0, 60, 87
1, 613957, Note_on_c, 0, 48, 82
1, 613971, Control_c, 0, 64, 71
1, 613986, Control_c, 0, 64, 75
1, 613986, Control_c, 0, 67, 49
1, 614000, Note_off_c, 0, 48, 65
1, 614001, Note_off_c, 0, 60, 61
1, 614001, Control_c, 0, 64, 79
1, 614016, Control_c, 0, 64, 80
1, 614030, Control_c, 0, 64, 78
1, 614044, Note_on_c, 0, 80, 81
1, 614045, Control_c, 0, 64, 74
1, 614050, Poly_aftertouch_c, 0, 50, 127
1, 614060, Control_c, 0, 64, 70
1, 614075, Poly_aftertouch_c, 0, 50, 0
1, 614090, Control_c, 0, 64, 72
1, 614104, Control_c, 0, 64, 74
1, 614104, Control_c, 0, 67, 50
1, 614107, Note_on_c, 0, 56, 85
1, 614110, Note_on_c, 0, 44, 85
1, 614115, Note_on_c, 0, 84, 73
1, 614119, Control_c, 0, 64, 74
1, 614134, Control_c, 0, 64, 73
1, 614135, Note_off_c, 0, 80, 58
1, 614147, Note_off_c, 0, 56, 61
1, 614148, Control_c, 0, 64, 73
1, 614156, Note_on_c, 0, 89, 74
1, 614159, Note_off_c, 0, 44, 61
1, 614163, Control_c, 0, 67, 49
1, 614178, Control_c, 0, 67, 49
1, 614193, Control_c, 0, 67, 48
1, 614208, Control_c, 0, 67, 47
1, 614223, Control_c, 0, 67, 47
1, 614227, Note_off_c, 0, 84, 51
1, 614233, Note_on_c, 0, 92, 87
1, 614238, Control_c, 0, 67, 46
1, 614244, Note_on_c, 0, 41, 89
1, 614247, Note_on_c, 0, 53, 82
1, 614267, Control_c, 0, 64, 74
1, 614267, Control_c, 0, 67, 46
1, 614272, Note_off_c, 0, 53, 68
1, 614279, Poly_aftertouch_c, 0, 87, 127
1, 614282, Control_c, 0, 64, 75
1, 614284, Note_off_c, 0, 41, 63
1, 614284, Note_off_c, 0, 89, 61
1, 614292, Poly_aftertouch_c, 0, 87, 0
1, 614297, Control_c, 0, 64, 74
1, 614305, Note_on_c, 0, 80, 84
1, 614310, Note_off_c, 0, 92, 67
1, 614312, Control_c, 0, 64, 69
1, 614312, Control_c, 0, 67, 45
1, 614327, Control_c, 0, 64, 57
1, 614341, Control_c, 0, 64, 0
1, 614347, Poly_aftertouch_c, 0, 52, 0
1, 614347, Note_off_c, 0, 80, 63
1, 614356, Control_c, 0, 67, 46
1, 614371, Control_c, 0, 67, 46
1, 614376, Note_on_c, 0, 38, 92
1, 614377, Note_on_c, 0, 50, 92
1, 614386, Control_c, 0, 64, 40
1, 614386, Control_c, 0, 67, 47
1, 614401, Control_c, 0, 64, 59
1, 614401, Control_c, 0, 67, 47
1, 614415, Control_c, 0, 64, 63
1, 614419, Note_off_c, 0, 38, 60
1, 614419, Note_off_c, 0, 50, 67
1, 614430, Control_c, 0, 64, 63
1, 614430, Control_c, 0, 67, 48
1, 614444, Note_on_c, 0, 80, 77
1, 614445, Control_c, 0, 64, 62
1, 614460, Control_c, 0, 64, 59
1, 614475, Control_c, 0, 64, 58
1, 614475, Control_c, 0, 67, 47
1, 614489, Control_c, 0, 64, 59
1, 614489, Control_c, 0, 67, 46
1, 614504, Control_c, 0, 64, 60
1, 614515, Note_on_c, 0, 82, 85
1, 614516, Note_off_c, 0, 80, 57
1, 614519, Control_c, 0, 67, 47
1, 614524, Note_on_c, 0, 41, 90
1, 614533, Note_on_c, 0, 53, 78
1, 614534, Control_c, 0, 64, 59
1, 614534, Control_c, 0, 67, 47
1, 614548, Control_c, 0, 67, 48
1, 614558, Note_off_c, 0, 41, 64
1, 614563, Note_off_c, 0, 53, 66
1, 614563, Control_c, 0, 67, 48
1, 614581, Note_on_c, 0, 89, 74
1, 614593, Control_c, 0, 64, 58
1, 614593, Control_c, 0, 67, 48
1, 614608, Control_c, 0, 64, 57
1, 614616, Note_off_c, 0, 82, 64
1, 614622, Control_c, 0, 64, 59
1, 614622, Control_c, 0, 67, 48
1, 614638, Control_c, 0, 64, 61
1, 614638, Control_c, 0, 67, 49
1, 614640, Note_on_c, 0, 92, 81
1, 614653, Control_c, 0, 64, 62
1, 614653, Control_c, 0, 67, 49
1, 614659, Note_on_c, 0, 87, 26
1, 614662, Note_on_c, 0, 46, 92
1, 614662, Note_on_c, 0, 58, 93
1, 614683, Control_c, 0, 64, 60
1, 614683, Control_c, 0, 67, 50
1, 614695, Note_off_c, 0, 87, 54
1, 614696, Note_off_c, 0, 89, 61
1, 614698, Control_c, 0, 64, 46
1, 614698, Control_c, 0, 67, 49
1, 614705, Note_off_c, 0, 58, 64
1, 614708, Note_off_c, 0, 46, 61
1, 614720, Control_c, 0, 64, 0
1, 614726, Note_on_c, 0, 80, 86
1, 614743, Note_off_c, 0, 92, 65
1, 614750, Control_c, 0, 64, 30
1, 614750, Control_c, 0, 67, 49
1, 614765, Control_c, 0, 64, 53
1, 614765, Control_c, 0, 67, 48
1, 614772, Note_off_c, 0, 80, 63
1, 614779, Control_c, 0, 64, 62
1, 614779, Control_c, 0, 67, 48
1, 614794, Control_c, 0, 64, 65
1, 614801, Note_on_c, 0, 58, 96
1, 614805, Note_on_c, 0, 46, 95
1, 614809, Control_c, 0, 64, 66
1, 614809, Control_c, 0, 67, 47
1, 614824, Control_c, 0, 64, 67
1, 614824, Control_c, 0, 67, 46
1, 614839, Control_c, 0, 64, 68
1, 614839, Control_c, 0, 67, 45
1, 614846, Note_off_c, 0, 58, 64
1, 614853, Control_c, 0, 67, 44
1, 614855, Note_on_c, 0, 79, 77
1, 614861, Note_off_c, 0, 46, 61
1, 614868, Control_c, 0, 64, 67
1, 614868, Control_c, 0, 67, 41
1, 614883, Control_c, 0, 67, 38
1, 614898, Control_c, 0, 67, 32
1, 614913, Control_c, 0, 67, 26
1, 614927, Control_c, 0, 67, 18
1, 614936, Note_on_c, 0, 82, 86
1, 614941, Note_off_c, 0, 79, 59
1, 614942, Control_c, 0, 67, 0
1, 614944, Note_on_c, 0, 43, 85
1, 614944, Note_on_c, 0, 55, 82
1, 614973, Note_off_c, 0, 55, 66
1, 614981, Note_off_c, 0, 43, 65
1, 615001, Control_c, 0, 64, 67
1, 615006, Note_on_c, 0, 87, 82
1, 615038, Note_off_c, 0, 82, 63
1, 615045, Control_c, 0, 64, 66
1, 615060, Control_c, 0, 64, 67
1, 615068, Note_on_c, 0, 91, 84
1, 615079, Note_on_c, 0, 39, 88
1, 615080, Note_on_c, 0, 51, 85
1, 615090, Control_c, 0, 64, 67
1, 615105, Control_c, 0, 64, 68
1, 615107, Note_off_c, 0, 51, 67
1, 615111, Note_off_c, 0, 87, 65
1, 615120, Control_c, 0, 64, 68
1, 615129, Note_off_c, 0, 39, 59
1, 615135, Control_c, 0, 64, 69
1, 615135, Note_off_c, 0, 91, 64
1, 615138, Note_on_c, 0, 79, 86
1, 615150, Control_c, 0, 64, 69
1, 615164, Control_c, 0, 64, 63
1, 615179, Control_c, 0, 64, 0
1, 615183, Note_off_c, 0, 79, 63
1, 615207, Note_on_c, 0, 36, 93
1, 615209, Note_on_c, 0, 48, 93
1, 615238, Control_c, 0, 64, 52
1, 615246, Note_off_c, 0, 36, 60
1, 615248, Note_off_c, 0, 48, 65
1, 615253, Control_c, 0, 64, 64
1, 615268, Control_c, 0, 64, 67
1, 615280, Note_on_c, 0, 92, 80
1, 615283, Control_c, 0, 64, 69
1, 615298, Control_c, 0, 64, 69
1, 615313, Control_c, 0, 64, 69
1, 615328, Control_c, 0, 64, 68
1, 615358, Note_on_c, 0, 41, 90
1, 615358, Control_c, 0, 64, 69
1, 615358, Note_on_c, 0, 53, 85
1, 615359, Note_on_c, 0, 89, 86
1, 615372, Control_c, 0, 64, 69
1, 615382, Note_off_c, 0, 92, 64
1, 615387, Control_c, 0, 64, 69
1, 615396, Note_off_c, 0, 41, 64
1, 615402, Control_c, 0, 64, 68
1, 615405, Note_off_c, 0, 53, 65
1, 615417, Control_c, 0, 64, 67
1, 615432, Control_c, 0, 64, 66
1, 615436, Note_on_c, 0, 87, 89
1, 615448, Control_c, 0, 64, 66
1, 615480, Note_off_c, 0, 89, 55
1, 615501, Note_on_c, 0, 56, 90
1, 615507, Note_on_c, 0, 44, 85
1, 615513, Note_on_c, 0, 80, 82
1, 615514, Control_c, 0, 64, 67
1, 615529, Control_c, 0, 64, 67
1, 615536, Note_off_c, 0, 56, 63
1, 615543, Control_c, 0, 64, 68
1, 615545, Note_off_c, 0, 44, 63
1, 615549, Note_on_c, 0, 46, 20
1, 615550, Note_off_c, 0, 46, 127
1, 615558, Control_c, 0, 64, 70
1, 615582, Note_on_c, 0, 92, 88
1, 615588, Control_c, 0, 64, 68
1, 615592, Note_off_c, 0, 80, 63
1, 615596, Note_off_c, 0, 87, 65
1, 615603, Control_c, 0, 64, 61
1, 615618, Control_c, 0, 64, 0
1, 615633, Note_off_c, 0, 92, 65
1, 615644, Note_on_c, 0, 34, 89
1, 615646, Note_on_c, 0, 46, 95
1, 615663, Control_c, 0, 64, 61
1, 615665, Note_off_c, 0, 34, 67
1, 615672, Note_off_c, 0, 46, 62
1, 615677, Control_c, 0, 64, 68
1, 615692, Control_c, 0, 64, 74
1, 615707, Note_on_c, 0, 94, 82
1, 615707, Control_c, 0, 64, 77
1, 615722, Control_c, 0, 64, 78
1, 615781, Poly_aftertouch_c, 0, 34, 127
1, 615782, Control_c, 0, 64, 78
1, 615785, Note_on_c, 0, 51, 93
1, 615788, Note_on_c, 0, 91, 82
1, 615792, Note_on_c, 0, 39, 83
1, 615812, Poly_aftertouch_c, 0, 34, 0
1, 615817, Note_off_c, 0, 39, 67
1, 615817, Note_off_c, 0, 94, 65
1, 615825, Note_off_c, 0, 51, 66
1, 615826, Control_c, 0, 64, 77
1, 615841, Control_c, 0, 64, 77
1, 615863, Note_on_c, 0, 87, 92
1, 615922, Note_on_c, 0, 55, 96
1, 615923, Note_on_c, 0, 43, 95
1, 615929, Note_on_c, 0, 82, 94
1, 615952, Note_off_c, 0, 55, 65
1, 615959, Control_c, 0, 64, 77
1, 615964, Note_off_c, 0, 43, 66
1, 615967, Note_off_c, 0, 91, 36
1, 615974, Control_c, 0, 64, 78
1, 615987, Note_off_c, 0, 87, 58
1, 616003, Control_c, 0, 64, 75
1, 616011, Note_on_c, 0, 94, 92
1, 616018, Control_c, 0, 64, 67
1, 616019, Note_off_c, 0, 82, 62
1, 616033, Control_c, 0, 64, 0
1, 616054, Note_on_c, 0, 46, 97
1, 616055, Note_on_c, 0, 34, 99
1, 616083, Note_off_c, 0, 94, 61
1, 616088, Note_off_c, 0, 34, 63
1, 616089, Note_off_c, 0, 46, 65
1, 616092, Note_on_c, 0, 33, 38
1, 616093, Note_off_c, 0, 33, 127
1, 616093, Control_c, 0, 64, 62
1, 616107, Control_c, 0, 64, 74
1, 616122, Control_c, 0, 64, 94
1, 616136, Control_c, 0, 64, 127
1, 616144, Note_on_c, 0, 94, 75
1, 616187, Note_on_c, 0, 53, 93
1, 616189, Note_on_c, 0, 41, 94
1, 616198, Note_on_c, 0, 89, 72
1, 616233, Note_off_c, 0, 53, 68
1, 616234, Note_off_c, 0, 41, 63
1, 616282, Note_on_c, 0, 86, 79
1, 616285, Note_off_c, 0, 94, 64
1, 616345, Note_on_c, 0, 82, 93
1, 616346, Note_off_c, 0, 89, 56
1, 616357, Note_on_c, 0, 58, 97
1, 616357, Note_on_c, 0, 46, 91
1, 616384, Note_off_c, 0, 86, 65
1, 616398, Note_on_c, 0, 59, 34
1, 616398, Note_off_c, 0, 58, 63
1, 616412, Note_off_c, 0, 46, 58
1, 616413, Note_off_c, 0, 82, 66
1, 616420, Note_on_c, 0, 94, 87
1, 616429, Note_off_c, 0, 59, 55
1, 616437, Note_off_c, 0, 94, 75
1, 616654, Note_on_c, 0, 39, 106
1, 616655, Note_on_c, 0, 55, 108
1, 616663, Control_c, 0, 64, 75
1, 616678, Control_c, 0, 64, 0
1, 616697, Note_off_c, 0, 39, 62
1, 616707, Control_c, 0, 64, 62
1, 616722, Control_c, 0, 64, 84
1, 616736, Control_c, 0, 64, 127
1, 616768, Note_off_c, 0, 55, 56
1, 616771, Note_on_c, 0, 63, 79
1, 616845, Note_on_c, 0, 58, 89
1, 616858, Note_off_c, 0, 63, 55
1, 616867, Note_on_c, 0, 51, 76
1, 616908, Note_off_c, 0, 51, 58
1, 616910, Note_on_c, 0, 67, 83
1, 616916, Note_off_c, 0, 58, 65
1, 616932, Note_off_c, 0, 67, 67
1, 617002, Note_on_c, 0, 63, 86
1, 617005, Note_on_c, 0, 55, 69
1, 617013, Note_on_c, 0, 51, 47
1, 617018, Note_on_c, 0, 58, 64
1, 617044, Note_off_c, 0, 58, 65
1, 617046, Note_off_c, 0, 51, 60
1, 617048, Note_off_c, 0, 63, 61
1, 617050, Note_off_c, 0, 55, 63
1, 617072, Note_on_c, 0, 70, 87
1, 617114, Note_off_c, 0, 70, 65
1, 617129, Note_on_c, 0, 51, 73
1, 617129, Note_on_c, 0, 58, 78
1, 617137, Note_on_c, 0, 63, 83
1, 617142, Note_on_c, 0, 55, 72
1, 617146, Note_on_c, 0, 67, 89
1, 617171, Note_off_c, 0, 55, 64
1, 617179, Note_off_c, 0, 58, 63
1, 617180, Note_off_c, 0, 63, 56
1, 617183, Note_off_c, 0, 51, 62
1, 617192, Note_off_c, 0, 67, 62
1, 617214, Note_on_c, 0, 75, 86
1, 617279, Note_on_c, 0, 58, 76
1, 617279, Note_on_c, 0, 63, 78
1, 617283, Note_on_c, 0, 55, 67
1, 617283, Note_on_c, 0, 70, 93
1, 617296, Note_on_c, 0, 51, 63
1, 617298, Note_off_c, 0, 75, 58
1, 617322, Note_off_c, 0, 63, 58
1, 617324, Note_off_c, 0, 55, 59
1, 617326, Note_off_c, 0, 51, 63
1, 617330, Note_off_c, 0, 58, 63
1, 617340, Note_off_c, 0, 70, 68
1, 617344, Note_on_c, 0, 79, 85
1, 617375, Note_off_c, 0, 79, 60
1, 617418, Note_on_c, 0, 63, 80
1, 617424, Note_on_c, 0, 51, 64
1, 617424, Note_on_c, 0, 58, 75
1, 617428, Note_on_c, 0, 75, 84
1, 617429, Note_on_c, 0, 55, 69
1, 617458, Note_off_c, 0, 55, 62
1, 617470, Note_off_c, 0, 58, 60
1, 617471, Note_off_c, 0, 75, 63
1, 617473, Note_off_c, 0, 51, 64
1, 617473, Note_off_c, 0, 63, 58
1, 617485, Note_on_c, 0, 82, 92
1, 617533, Note_off_c, 0, 82, 64
1, 617559, Note_on_c, 0, 63, 82
1, 617562, Note_on_c, 0, 51, 73
1, 617563, Note_on_c, 0, 79, 92
1, 617564, Note_on_c, 0, 55, 68
1, 617569, Note_on_c, 0, 58, 73
1, 617592, Note_off_c, 0, 58, 63
1, 617609, Note_off_c, 0, 55, 65
1, 617609, Note_off_c, 0, 63, 61
1, 617611, Note_off_c, 0, 51, 59
1, 617612, Note_off_c, 0, 79, 64
1, 617633, Note_on_c, 0, 87, 93
1, 617699, Note_on_c, 0, 82, 98
1, 617700, Note_on_c, 0, 63, 85
1, 617712, Note_on_c, 0, 58, 70
1, 617713, Note_on_c, 0, 55, 72
1, 617719, Note_on_c, 0, 51, 74
1, 617722, Note_off_c, 0, 87, 62
1, 617753, Note_off_c, 0, 82, 69
1, 617763, Note_off_c, 0, 63, 58
1, 617766, Note_off_c, 0, 58, 57
1, 617774, Note_off_c, 0, 51, 58
1, 617775, Note_on_c, 0, 91, 101
1, 617778, Note_off_c, 0, 55, 57
1, 617810, Note_off_c, 0, 91, 69
1, 617853, Note_on_c, 0, 63, 87
1, 617858, Note_on_c, 0, 87, 95
1, 617861, Note_on_c, 0, 51, 71
1, 617862, Note_on_c, 0, 58, 74
1, 617862, Note_on_c, 0, 55, 70
1, 617901, Note_off_c, 0, 63, 60
1, 617904, Note_off_c, 0, 87, 65
1, 617910, Note_off_c, 0, 55, 59
1, 617916, Note_on_c, 0, 94, 96
1, 617922, Note_off_c, 0, 58, 58
1, 617932, Note_off_c, 0, 51, 62
1, 617968, Control_c, 0, 64, 122
1, 617972, Note_off_c, 0, 94, 64
1, 617982, Control_c, 0, 64, 84
1, 617994, Note_on_c, 0, 51, 74
1, 617996, Note_on_c, 0, 58, 78
1, 617996, Note_on_c, 0, 62, 80
1, 617996, Note_on_c, 0, 93, 98
1, 617997, Note_on_c, 0, 56, 81
1, 617997, Control_c, 0, 64, 66
1, 618012, Note_on_c, 0, 91, 72
1, 618012, Control_c, 0, 64, 58
1, 618026, Note_off_c, 0, 91, 69
1, 618027, Control_c, 0, 64, 64
1, 618042, Control_c, 0, 64, 73
1, 618044, Note_off_c, 0, 93, 68
1, 618045, Note_off_c, 0, 58, 63
1, 618050, Note_off_c, 0, 56, 64
1, 618050, Note_off_c, 0, 62, 58
1, 618056, Control_c, 0, 64, 87
1, 618060, Note_off_c, 0, 51, 62
1, 618066, Note_on_c, 0, 94, 106
1, 618071, Control_c, 0, 64, 113
1, 618086, Control_c, 0, 64, 127
1, 618136, Note_on_c, 0, 93, 101
1, 618139, Note_on_c, 0, 51, 69
1, 618139, Note_on_c, 0, 56, 75
1, 618141, Note_on_c, 0, 62, 75
1, 618143, Note_off_c, 0, 94, 65
1, 618148, Note_on_c, 0, 58, 69
1, 618170, Note_off_c, 0, 58, 67
1, 618177, Note_off_c, 0, 56, 65
1, 618179, Note_off_c, 0, 93, 67
1, 618183, Note_off_c, 0, 62, 48
1, 618190, Note_off_c, 0, 51, 63
1, 618196, Note_on_c, 0, 94, 101
1, 618261, Note_on_c, 0, 93, 103
1, 618261, Note_off_c, 0, 94, 63
1, 618275, Note_on_c, 0, 56, 68
1, 618280, Note_on_c, 0, 58, 66
1, 618281, Note_on_c, 0, 51, 69
1, 618283, Note_on_c, 0, 62, 68
1, 618310, Note_off_c, 0, 62, 64
1, 618323, Note_on_c, 0, 94, 91
1, 618324, Note_off_c, 0, 58, 50
1, 618345, Note_off_c, 0, 93, 62
1, 618351, Note_off_c, 0, 56, 59
1, 618354, Note_off_c, 0, 51, 60
1, 618380, Note_off_c, 0, 94, 62
1, 618407, Note_on_c, 0, 96, 105
1, 618412, Control_c, 0, 64, 106
1, 618415, Note_on_c, 0, 63, 89
1, 618417, Note_on_c, 0, 51, 65
1, 618418, Note_on_c, 0, 58, 84
1, 618422, Note_on_c, 0, 55, 77
1, 618427, Control_c, 0, 64, 77
1, 618442, Control_c, 0, 64, 37
1, 618464, Control_c, 0, 64, 0
1, 618486, Note_off_c, 0, 63, 58
1, 618489, Note_on_c, 0, 94, 96
1, 618493, Note_off_c, 0, 55, 61
1, 618494, Control_c, 0, 64, 36
1, 618494, Note_off_c, 0, 58, 61
1, 618497, Note_off_c, 0, 51, 60
1, 618509, Control_c, 0, 64, 66
1, 618523, Control_c, 0, 64, 75
1, 618531, Note_off_c, 0, 96, 59
1, 618538, Control_c, 0, 64, 83
1, 618553, Control_c, 0, 64, 91
1, 618557, Note_on_c, 0, 92, 93
1, 618568, Control_c, 0, 64, 101
1, 618571, Note_on_c, 0, 58, 65
1, 618577, Note_on_c, 0, 63, 72
1, 618579, Note_on_c, 0, 55, 61
1, 618581, Note_on_c, 0, 51, 56
1, 618583, Control_c, 0, 64, 127
1, 618608, Note_off_c, 0, 63, 63
1, 618611, Note_off_c, 0, 94, 59
1, 618620, Note_off_c, 0, 51, 61
1, 618621, Note_off_c, 0, 55, 61
1, 618621, Note_off_c, 0, 58, 60
1, 618629, Note_on_c, 0, 91, 101
1, 618667, Note_off_c, 0, 92, 64
1, 618700, Note_on_c, 0, 89, 89
1, 618704, Note_on_c, 0, 63, 61
1, 618704, Note_off_c, 0, 91, 64
1, 618709, Note_on_c, 0, 51, 60
1, 618711, Note_on_c, 0, 58, 66
1, 618717, Note_on_c, 0, 55, 60
1, 618736, Note_off_c, 0, 58, 61
1, 618745, Note_off_c, 0, 51, 62
1, 618745, Note_off_c, 0, 63, 57
1, 618750, Note_off_c, 0, 55, 61
1, 618775, Note_on_c, 0, 87, 92
1, 618780, Note_off_c, 0, 89, 56
1, 618837, Note_on_c, 0, 58, 67
1, 618837, Note_on_c, 0, 63, 66
1, 618841, Note_on_c, 0, 51, 56
1, 618843, Note_on_c, 0, 55, 59
1, 618847, Note_on_c, 0, 86, 92
1, 618875, Note_off_c, 0, 58, 58
1, 618875, Note_off_c, 0, 63, 60
1, 618876, Note_off_c, 0, 51, 62
1, 618876, Note_off_c, 0, 55, 61
1, 618894, Note_off_c, 0, 87, 64
1, 618903, Note_off_c, 0, 86, 63
1, 618921, Note_on_c, 0, 84, 84
1, 618939, Control_c, 0, 64, 119
1, 618954, Control_c, 0, 64, 119
1, 618968, Note_off_c, 0, 84, 65
1, 618973, Note_on_c, 0, 63, 66
1, 618977, Note_on_c, 0, 58, 67
1, 618977, Note_on_c, 0, 55, 60
1, 618980, Note_on_c, 0, 51, 55
1, 618988, Note_on_c, 0, 82, 90
1, 618999, Control_c, 0, 64, 118
1, 619010, Note_off_c, 0, 55, 63
1, 619012, Note_off_c, 0, 58, 60
1, 619013, Control_c, 0, 64, 115
1, 619014, Note_off_c, 0, 63, 51
1, 619015, Note_off_c, 0, 51, 62
1, 619028, Control_c, 0, 64, 114
1, 619063, Note_on_c, 0, 80, 87
1, 619088, Control_c, 0, 64, 113
1, 619096, Note_off_c, 0, 82, 63
1, 619102, Control_c, 0, 64, 112
1, 619114, Note_on_c, 0, 58, 66
1, 619115, Note_on_c, 0, 63, 71
1, 619116, Note_on_c, 0, 51, 58
1, 619117, Control_c, 0, 64, 112
1, 619120, Note_on_c, 0, 55, 57
1, 619132, Note_on_c, 0, 79, 90
1, 619150, Note_off_c, 0, 55, 62
1, 619153, Note_off_c, 0, 58, 51
1, 619157, Note_off_c, 0, 63, 50
1, 619162, Control_c, 0, 64, 110
1, 619162, Note_off_c, 0, 51, 63
1, 619171, Note_off_c, 0, 80, 61
1, 619177, Control_c, 0, 64, 109
1, 619192, Control_c, 0, 64, 108
1, 619197, Note_off_c, 0, 79, 61
1, 619201, Note_on_c, 0, 77, 83
1, 619207, Control_c, 0, 64, 108
1, 619243, Control_c, 0, 64, 107
1, 619263, Note_on_c, 0, 63, 71
1, 619268, Note_on_c, 0, 51, 61
1, 619269, Note_on_c, 0, 55, 62
1, 619270, Note_on_c, 0, 58, 64
1, 619272, Control_c, 0, 64, 107
1, 619278, Note_on_c, 0, 75, 87
1, 619284, Note_off_c, 0, 77, 60
1, 619302, Control_c, 0, 64, 106
1, 619310, Note_off_c, 0, 58, 51
1, 619311, Note_off_c, 0, 55, 62
1, 619314, Note_off_c, 0, 51, 60
1, 619317, Note_off_c, 0, 63, 53
1, 619350, Note_on_c, 0, 74, 87
1, 619367, Note_off_c, 0, 75, 65
1, 619406, Control_c, 0, 64, 107
1, 619408, Note_off_c, 0, 74, 65
1, 619414, Note_on_c, 0, 72, 84
1, 619418, Note_on_c, 0, 63, 73
1, 619419, Note_on_c, 0, 55, 69
1, 619422, Note_on_c, 0, 51, 62
1, 619424, Note_on_c, 0, 58, 62
1, 619456, Note_off_c, 0, 58, 62
1, 619466, Note_off_c, 0, 55, 59
1, 619469, Note_off_c, 0, 51, 63
1, 619473, Note_off_c, 0, 72, 59
1, 619476, Note_off_c, 0, 63, 58
1, 619490, Note_on_c, 0, 70, 85
1, 619557, Note_on_c, 0, 68, 84
1, 619558, Note_on_c, 0, 63, 80
1, 619567, Note_on_c, 0, 55, 67
1, 619567, Note_on_c, 0, 58, 65
1, 619567, Note_on_c, 0, 51, 58
1, 619600, Control_c, 0, 64, 107
1, 619604, Note_off_c, 0, 55, 63
1, 619605, Note_off_c, 0, 58, 60
1, 619605, Note_off_c, 0, 70, 62
1, 619609, Note_off_c, 0, 63, 58
1, 619615, Control_c, 0, 64, 108
1, 619620, Note_off_c, 0, 51, 64
1, 619621, Note_on_c, 0, 67, 86
1, 619630, Control_c, 0, 64, 107
1, 619644, Control_c, 0, 64, 92
1, 619647, Note_off_c, 0, 68, 61
1, 619659, Control_c, 0, 64, 75
1, 619674, Control_c, 0, 64, 61
1, 619681, Note_off_c, 0, 67, 65
1, 619683, Note_on_c, 0, 65, 80
1, 619688, Note_on_c, 0, 51, 83
1, 619688, Control_c, 0, 64, 58
1, 619694, Note_on_c, 0, 58, 84
1, 619696, Note_on_c, 0, 56, 79
1, 619703, Control_c, 0, 64, 66
1, 619718, Control_c, 0, 64, 75
1, 619733, Note_off_c, 0, 65, 64
1, 619733, Control_c, 0, 64, 92
1, 619746, Note_off_c, 0, 56, 64
1, 619748, Control_c, 0, 64, 115
1, 619749, Note_off_c, 0, 58, 57
1, 619758, Note_on_c, 0, 63, 87
1, 619758, Note_off_c, 0, 51, 62
1, 619762, Control_c, 0, 64, 127
1, 619813, Note_off_c, 0, 63, 61
1, 619831, Note_on_c, 0, 62, 84
1, 619833, Note_on_c, 0, 51, 76
1, 619838, Note_on_c, 0, 58, 79
1, 619844, Note_on_c, 0, 56, 72
1, 619857, Note_on_c, 0, 53, 58
1, 619869, Note_off_c, 0, 56, 68
1, 619882, Note_off_c, 0, 62, 58
1, 619883, Note_off_c, 0, 53, 63
1, 619886, Note_off_c, 0, 58, 59
1, 619891, Note_off_c, 0, 51, 67
1, 619905, Note_on_c, 0, 65, 87
1, 619961, Note_off_c, 0, 65, 59
1, 619976, Note_on_c, 0, 68, 88
1, 619979, Note_on_c, 0, 56, 63
1, 619983, Note_on_c, 0, 58, 78
1, 619986, Note_on_c, 0, 51, 76
1, 620003, Note_off_c, 0, 58, 70
1, 620018, Note_off_c, 0, 56, 62
1, 620032, Note_off_c, 0, 51, 66
1, 620039, Note_off_c, 0, 68, 63
1, 620056, Note_on_c, 0, 62, 82
1, 620107, Note_off_c, 0, 62, 59
1, 620110, Control_c, 0, 64, 114
1, 620125, Control_c, 0, 64, 76
1, 620131, Note_on_c, 0, 39, 105
1, 620138, Note_on_c, 0, 55, 84
1, 620140, Control_c, 0, 64, 0
1, 620154, Note_off_c, 0, 39, 68
1, 620184, Control_c, 0, 64, 66
1, 620199, Control_c, 0, 64, 88
1, 620214, Control_c, 0, 64, 127
1, 620217, Note_on_c, 0, 63, 82
1, 620222, Note_off_c, 0, 55, 62
1, 620287, Note_on_c, 0, 58, 87
1, 620301, Note_off_c, 0, 63, 57
1, 620322, Note_on_c, 0, 51, 83
1, 620354, Note_on_c, 0, 67, 86
1, 620358, Note_off_c, 0, 58, 67
1, 620368, Note_off_c, 0, 51, 60
1, 620388, Note_off_c, 0, 67, 64
1, 620438, Note_on_c, 0, 63, 85
1, 620444, Note_on_c, 0, 51, 69
1, 620449, Note_on_c, 0, 58, 73
1, 620459, Note_on_c, 0, 55, 61
1, 620473, Note_off_c, 0, 63, 67
1, 620488, Note_off_c, 0, 58, 63
1, 620494, Note_off_c, 0, 55, 61
1, 620500, Note_off_c, 0, 51, 63
1, 620504, Note_on_c, 0, 70, 92
1, 620549, Note_off_c, 0, 70, 66
1, 620550, Note_on_c, 0, 71, 42
1, 620577, Note_off_c, 0, 71, 57
1, 620578, Note_on_c, 0, 58, 71
1, 620581, Note_on_c, 0, 55, 67
1, 620581, Note_on_c, 0, 63, 78
1, 620583, Note_on_c, 0, 67, 95
1, 620596, Note_on_c, 0, 51, 65
1, 620626, Note_off_c, 0, 51, 65
1, 620630, Note_off_c, 0, 67, 63
1, 620633, Note_off_c, 0, 55, 59
1, 620636, Note_off_c, 0, 63, 60
1, 620644, Note_off_c, 0, 58, 61
1, 620655, Note_on_c, 0, 75, 89
1, 620730, Note_on_c, 0, 70, 95
1, 620733, Note_on_c, 0, 63, 79
1, 620737, Note_on_c, 0, 58, 72
1, 620739, Note_on_c, 0, 51, 64
1, 620745, Note_off_c, 0, 75, 59
1, 620749, Note_on_c, 0, 55, 63
1, 620778, Note_off_c, 0, 55, 64
1, 620785, Note_off_c, 0, 63, 58
1, 620787, Note_off_c, 0, 51, 60
1, 620796, Note_off_c, 0, 58, 61
1, 620797, Note_on_c, 0, 79, 87
1, 620797, Note_off_c, 0, 70, 66
1, 620836, Note_off_c, 0, 79, 61
1, 620874, Note_on_c, 0, 63, 83
1, 620877, Note_on_c, 0, 58, 68
1, 620878, Note_on_c, 0, 75, 90
1, 620879, Note_on_c, 0, 51, 72
1, 620882, Note_on_c, 0, 55, 59
1, 620923, Note_off_c, 0, 55, 60
1, 620924, Note_off_c, 0, 63, 56
1, 620927, Note_off_c, 0, 75, 64
1, 620929, Note_off_c, 0, 58, 59
1, 620933, Note_off_c, 0, 51, 57
1, 620948, Note_on_c, 0, 82, 94
1, 620995, Note_off_c, 0, 82, 62
1, 621015, Note_on_c, 0, 63, 85
1, 621019, Note_on_c, 0, 79, 97
1, 621020, Note_on_c, 0, 51, 68
1, 621022, Note_on_c, 0, 58, 77
1, 621028, Note_on_c, 0, 55, 74
1, 621064, Note_off_c, 0, 79, 65
1, 621066, Note_off_c, 0, 55, 58
1, 621068, Note_off_c, 0, 63, 60
1, 621070, Note_off_c, 0, 58, 58
1, 621087, Note_off_c, 0, 51, 59
1, 621091, Note_on_c, 0, 87, 92
1, 621159, Note_on_c, 0, 63, 82
1, 621161, Note_on_c, 0, 82, 100
1, 621169, Note_on_c, 0, 55, 69
1, 621171, Note_on_c, 0, 58, 74
1, 621174, Note_on_c, 0, 51, 69
1, 621176, Note_off_c, 0, 87, 64
1, 621221, Note_off_c, 0, 82, 69
1, 621223, Note_on_c, 0, 91, 94
1, 621229, Note_off_c, 0, 58, 52
1, 621234, Note_off_c, 0, 55, 58
1, 621234, Note_off_c, 0, 63, 55
1, 621238, Note_off_c, 0, 51, 60
1, 621257, Note_off_c, 0, 91, 69
1, 621305, Note_on_c, 0, 87, 90
1, 621309, Note_on_c, 0, 63, 83
1, 621323, Note_on_c, 0, 55, 68
1, 621325, Note_on_c, 0, 58, 68
1, 621326, Note_on_c, 0, 51, 66
1, 621350, Note_off_c, 0, 87, 66
1, 621360, Note_on_c, 0, 94, 93
1, 621363, Note_off_c, 0, 63, 61
1, 621378, Note_off_c, 0, 55, 58
1, 621379, Note_off_c, 0, 58, 57
1, 621383, Note_off_c, 0, 51, 55
1, 621416, Note_off_c, 0, 94, 64
1, 621422, Control_c, 0, 64, 94
1, 621436, Note_on_c, 0, 61, 99
1, 621437, Control_c, 0, 64, 67
1, 621438, Note_on_c, 0, 93, 102
1, 621442, Note_on_c, 0, 58, 77
1, 621444, Note_on_c, 0, 51, 73
1, 621460, Control_c, 0, 64, 48
1, 621462, Note_on_c, 0, 55, 70
1, 621475, Control_c, 0, 64, 59
1, 621489, Control_c, 0, 64, 68
1, 621496, Note_off_c, 0, 93, 68
1, 621504, Control_c, 0, 64, 81
1, 621518, Note_off_c, 0, 58, 59
1, 621519, Control_c, 0, 64, 113
1, 621523, Note_on_c, 0, 94, 99
1, 621523, Note_off_c, 0, 61, 63
1, 621529, Note_off_c, 0, 55, 62
1, 621533, Control_c, 0, 64, 127
1, 621544, Note_off_c, 0, 51, 62
1, 621592, Note_on_c, 0, 93, 94
1, 621592, Poly_aftertouch_c, 0, 51, 0
1, 621594, Note_on_c, 0, 61, 94
1, 621597, Note_on_c, 0, 95, 81
1, 621598, Note_off_c, 0, 94, 65
1, 621601, Note_on_c, 0, 58, 75
1, 621602, Note_on_c, 0, 51, 52
1, 621612, Note_on_c, 0, 55, 63
1, 621634, Note_off_c, 0, 58, 55
1, 621637, Note_off_c, 0, 95, 65
1, 621639, Note_off_c, 0, 93, 67
1, 621652, Note_off_c, 0, 55, 59
1, 621656, Note_off_c, 0, 61, 59
1, 621659, Note_off_c, 0, 51, 62
1, 621660, Note_on_c, 0, 94, 101
1, 621726, Note_on_c, 0, 93, 95
1, 621728, Note_off_c, 0, 94, 64
1, 621729, Note_on_c, 0, 58, 77
1, 621732, Note_on_c, 0, 61, 82
1, 621735, Note_on_c, 0, 55, 70
1, 621741, Note_on_c, 0, 51, 64
1, 621785, Note_off_c, 0, 58, 58
1, 621787, Note_off_c, 0, 61, 57
1, 621794, Note_off_c, 0, 55, 59
1, 621794, Note_on_c, 0, 94, 94
1, 621797, Note_off_c, 0, 51, 57
1, 621814, Note_off_c, 0, 93, 65
1, 621837, Note_on_c, 0, 92, 41
1, 621851, Note_off_c, 0, 94, 62
1, 621866, Note_off_c, 0, 92, 55
1, 621875, Control_c, 0, 64, 103
1, 621876, Note_on_c, 0, 61, 87
1, 621881, Note_on_c, 0, 58, 74
1, 621881, Note_on_c, 0, 96, 103
1, 621888, Note_on_c, 0, 55, 72
1, 621890, Control_c, 0, 64, 82
1, 621892, Note_on_c, 0, 51, 74
1, 621904, Control_c, 0, 64, 72
1, 621919, Control_c, 0, 64, 69
1, 621934, Control_c, 0, 64, 72
1, 621937, Note_off_c, 0, 58, 57
1, 621945, Note_off_c, 0, 61, 58
1, 621946, Note_off_c, 0, 55, 61
1, 621949, Control_c, 0, 64, 78
1, 621952, Note_off_c, 0, 51, 60
1, 621956, Note_on_c, 0, 94, 92
1, 621963, Control_c, 0, 64, 89
1, 621978, Control_c, 0, 64, 110
1, 621991, Note_off_c, 0, 96, 62
1, 621993, Control_c, 0, 64, 127
1, 622027, Note_on_c, 0, 92, 93
1, 622034, Note_on_c, 0, 61, 78
1, 622036, Note_on_c, 0, 58, 68
1, 622047, Note_on_c, 0, 51, 56
1, 622047, Note_on_c, 0, 55, 64
1, 622078, Note_off_c, 0, 58, 56
1, 622078, Note_off_c, 0, 94, 59
1, 622083, Note_off_c, 0, 55, 59
1, 622084, Note_off_c, 0, 51, 62
1, 622088, Note_off_c, 0, 61, 57
1, 622095, Note_on_c, 0, 91, 95
1, 622140, Note_off_c, 0, 92, 64
1, 622160, Note_off_c, 0, 91, 63
1, 622168, Note_on_c, 0, 89, 94
1, 622172, Note_on_c, 0, 55, 71
1, 622175, Note_on_c, 0, 51, 59
1, 622175, Note_on_c, 0, 61, 77
1, 622176, Note_on_c, 0, 58, 72
1, 622231, Note_off_c, 0, 58, 60
1, 622231, Note_off_c, 0, 55, 57
1, 622233, Note_off_c, 0, 51, 60
1, 622233, Note_off_c, 0, 61, 58
1, 622247, Note_on_c, 0, 87, 92
1, 622259, Note_off_c, 0, 89, 60
1, 622319, Note_on_c, 0, 61, 76
1, 622319, Note_on_c, 0, 85, 95
1, 622324, Note_on_c, 0, 58, 73
1, 622328, Note_on_c, 0, 55, 64
1, 622333, Note_on_c, 0, 51, 61
1, 622361, Note_off_c, 0, 55, 64
1, 622363, Note_off_c, 0, 51, 63
1, 622365, Note_off_c, 0, 58, 58
1, 622368, Note_off_c, 0, 87, 64
1, 622371, Note_off_c, 0, 61, 59
1, 622393, Note_off_c, 0, 85, 65
1, 622394, Note_on_c, 0, 84, 85
1, 622441, Note_off_c, 0, 84, 65
1, 622454, Note_on_c, 0, 61, 77
1, 622459, Note_on_c, 0, 51, 53
1, 622459, Note_on_c, 0, 55, 62
1, 622462, Note_on_c, 0, 58, 69
1, 622462, Note_on_c, 0, 82, 92
1, 622483, Note_off_c, 0, 58, 63
1, 622501, Note_off_c, 0, 61, 59
1, 622503, Note_off_c, 0, 51, 63
1, 622504, Note_off_c, 0, 55, 61
1, 622530, Note_on_c, 0, 80, 87
1, 622572, Note_off_c, 0, 82, 61
1, 622595, Note_on_c, 0, 58, 71
1, 622597, Note_on_c, 0, 61, 78
1, 622600, Note_on_c, 0, 51, 62
1, 622602, Note_on_c, 0, 79, 93
1, 622605, Note_on_c, 0, 55, 69
1, 622638, Note_off_c, 0, 80, 60
1, 622640, Note_off_c, 0, 61, 55
1, 622647, Note_off_c, 0, 58, 62
1, 622648, Note_off_c, 0, 51, 61
1, 622648, Note_off_c, 0, 55, 54
1, 622668, Note_off_c, 0, 79, 63
1, 622671, Note_on_c, 0, 77, 88
1, 622737, Note_on_c, 0, 61, 78
1, 622738, Note_on_c, 0, 58, 68
1, 622743, Note_on_c, 0, 75, 92
1, 622745, Note_on_c, 0, 55, 70
1, 622753, Note_off_c, 0, 77, 57
1, 622756, Note_on_c, 0, 51, 64
1, 622791, Note_off_c, 0, 61, 58
1, 622798, Note_off_c, 0, 51, 57
1, 622808, Note_off_c, 0, 55, 63
1, 622815, Note_off_c, 0, 58, 57
1, 622816, Note_on_c, 0, 73, 96
1, 622859, Note_off_c, 0, 75, 61
1, 622880, Note_on_c, 0, 61, 78
1, 622884, Note_on_c, 0, 72, 88
1, 622886, Note_on_c, 0, 51, 71
1, 622891, Note_off_c, 0, 73, 62
1, 622893, Note_on_c, 0, 55, 67
1, 622895, Note_on_c, 0, 58, 62
1, 622920, Note_off_c, 0, 55, 66
1, 622930, Note_on_c, 0, 56, 42
1, 622930, Note_off_c, 0, 58, 55
1, 622940, Note_off_c, 0, 61, 60
1, 622945, Note_off_c, 0, 72, 46
1, 622948, Note_off_c, 0, 51, 64
1, 622958, Note_on_c, 0, 70, 93
1, 622969, Note_off_c, 0, 56, 55
1, 622986, Control_c, 0, 64, 114
1, 623001, Control_c, 0, 64, 80
1, 623016, Control_c, 0, 64, 47
1, 623025, Note_on_c, 0, 56, 85
1, 623027, Note_on_c, 0, 68, 91
1, 623028, Note_on_c, 0, 60, 82
1, 623031, Note_on_c, 0, 51, 78
1, 623031, Control_c, 0, 64, 0
1, 623046, Control_c, 0, 64, 23
1, 623060, Control_c, 0, 64, 68
1, 623075, Control_c, 0, 64, 80
1, 623079, Note_off_c, 0, 70, 63
1, 623082, Note_off_c, 0, 56, 63
1, 623083, Note_off_c, 0, 60, 64
1, 623090, Control_c, 0, 64, 99
1, 623093, Note_off_c, 0, 51, 61
1, 623096, Note_on_c, 0, 67, 94
1, 623104, Control_c, 0, 64, 127
1, 623118, Note_off_c, 0, 68, 65
1, 623156, Note_off_c, 0, 67, 61
1, 623165, Note_on_c, 0, 65, 86
1, 623173, Note_on_c, 0, 59, 82
1, 623176, Note_on_c, 0, 51, 78
1, 623178, Note_on_c, 0, 56, 73
1, 623183, Note_on_c, 0, 53, 73
1, 623213, Note_off_c, 0, 65, 64
1, 623217, Note_off_c, 0, 56, 58
1, 623222, Note_off_c, 0, 59, 62
1, 623233, Note_off_c, 0, 51, 62
1, 623234, Note_off_c, 0, 53, 62
1, 623235, Note_on_c, 0, 63, 92
1, 623299, Note_off_c, 0, 63, 62
1, 623311, Note_on_c, 0, 62, 89
1, 623311, Note_on_c, 0, 59, 83
1, 623317, Note_on_c, 0, 56, 74
1, 623320, Note_on_c, 0, 53, 77
1, 623325, Note_on_c, 0, 51, 77
1, 623362, Note_off_c, 0, 59, 60
1, 623379, Note_on_c, 0, 65, 90
1, 623383, Note_off_c, 0, 53, 62
1, 623386, Note_off_c, 0, 62, 61
1, 623387, Note_off_c, 0, 51, 63
1, 623390, Note_off_c, 0, 56, 58
1, 623446, Note_on_c, 0, 68, 95
1, 623448, Note_on_c, 0, 58, 89
1, 623455, Note_on_c, 0, 51, 78
1, 623456, Note_off_c, 0, 65, 64
1, 623465, Note_on_c, 0, 56, 59
1, 623475, Control_c, 0, 64, 96
1, 623490, Control_c, 0, 64, 70
1, 623492, Note_off_c, 0, 56, 65
1, 623492, Note_off_c, 0, 58, 65
1, 623504, Note_off_c, 0, 51, 66
1, 623505, Control_c, 0, 64, 0
1, 623516, Note_on_c, 0, 62, 88
1, 623520, Note_off_c, 0, 68, 59
1, 623569, Note_off_c, 0, 62, 64
1, 623602, Note_on_c, 0, 63, 102
1, 623607, Note_on_c, 0, 51, 110
1, 623609, Control_c, 0, 64, 39
1, 623610, Note_on_c, 0, 39, 96
1, 623624, Control_c, 0, 64, 108
1, 623631, Note_off_c, 0, 39, 70
1, 623631, Note_off_c, 0, 51, 65
1, 623634, Note_off_c, 0, 63, 69
1, 623639, Control_c, 0, 64, 127
1, 624069, Note_on_c, 0, 75, 103
1, 624077, Note_on_c, 0, 63, 98
1, 624107, Note_off_c, 0, 75, 71
1, 624504, Note_off_c, 0, 63, 57
1, 624506, Note_on_c, 0, 66, 95
1, 624510, Note_on_c, 0, 78, 105
1, 624539, Note_on_c, 0, 77, 60
1, 624552, Note_off_c, 0, 78, 69
1, 624558, Note_off_c, 0, 77, 64
1, 624945, Note_on_c, 0, 83, 105
1, 624946, Note_on_c, 0, 71, 93
1, 624954, Note_off_c, 0, 66, 58
1, 624992, Note_off_c, 0, 83, 71
1, 625365, Note_off_c, 0, 71, 57
1, 625385, Note_on_c, 0, 78, 104
1, 625389, Note_on_c, 0, 66, 95
1, 625442, Note_off_c, 0, 78, 67
1, 625816, Note_on_c, 0, 75, 99
1, 625821, Note_on_c, 0, 63, 92
1, 625821, Note_off_c, 0, 66, 60
1, 625887, Note_off_c, 0, 75, 63
1, 625950, Note_off_c, 0, 63, 63
1, 626237, Note_on_c, 0, 71, 99
1, 626245, Note_on_c, 0, 59, 97
1, 626356, Note_off_c, 0, 71, 60
1, 626403, Note_off_c, 0, 59, 55
1, 626678, Note_on_c, 0, 66, 100
1, 626685, Note_on_c, 0, 54, 95
1, 626731, Note_off_c, 0, 66, 69
1, 626746, Note_off_c, 0, 54, 67
1, 627012, Control_c, 0, 64, 118
1, 627026, Control_c, 0, 64, 84
1, 627041, Control_c, 0, 64, 53
1, 627056, Control_c, 0, 64, 0
1, 627112, Note_on_c, 0, 38, 97
1, 627112, Note_on_c, 0, 50, 98
1, 627112, Note_on_c, 0, 62, 100
1, 627130, Control_c, 0, 64, 78
1, 627145, Control_c, 0, 64, 127
1, 627158, Note_off_c, 0, 38, 65
1, 627169, Note_off_c, 0, 62, 67
1, 627184, Note_off_c, 0, 50, 68
1, 627568, Note_on_c, 0, 74, 109
1, 627571, Note_on_c, 0, 62, 93
1, 627628, Note_off_c, 0, 74, 71
1, 627994, Note_on_c, 0, 77, 101
1, 627997, Note_on_c, 0, 65, 97
1, 628019, Note_off_c, 0, 62, 59
1, 628079, Note_off_c, 0, 77, 67
1, 628427, Note_off_c, 0, 65, 61
1, 628433, Note_on_c, 0, 82, 104
1, 628438, Note_on_c, 0, 70, 101
1, 628468, Note_off_c, 0, 82, 70
1, 628714, Note_off_c, 0, 70, 60
1, 628865, Note_on_c, 0, 77, 99
1, 628871, Note_on_c, 0, 65, 95
1, 628918, Note_off_c, 0, 77, 66
1, 629324, Note_on_c, 0, 74, 104
1, 629325, Note_on_c, 0, 62, 88
1, 629364, Note_off_c, 0, 65, 61
1, 629373, Note_off_c, 0, 74, 70
1, 629439, Note_off_c, 0, 62, 65
1, 629749, Note_on_c, 0, 70, 96
1, 629759, Note_on_c, 0, 58, 86
1, 629855, Note_off_c, 0, 70, 58
1, 629921, Note_off_c, 0, 58, 50
1, 630180, Note_on_c, 0, 65, 90
1, 630186, Note_on_c, 0, 53, 72
1, 630230, Note_off_c, 0, 65, 66
1, 630232, Note_off_c, 0, 53, 63
1, 630592, Control_c, 0, 67, 8
1, 630606, Note_on_c, 0, 71, 63
1, 630607, Control_c, 0, 67, 15
1, 630608, Note_on_c, 0, 66, 57
1, 630609, Note_on_c, 0, 78, 68
1, 630612, Note_on_c, 0, 63, 53
1, 630623, Control_c, 0, 64, 95
1, 630623, Control_c, 0, 67, 28
1, 630634, Note_off_c, 0, 78, 69
1, 630638, Control_c, 0, 64, 76
1, 630638, Control_c, 0, 67, 42
1, 630642, Note_off_c, 0, 66, 63
1, 630644, Note_off_c, 0, 71, 59
1, 630646, Note_off_c, 0, 63, 64
1, 630653, Control_c, 0, 64, 63
1, 630653, Control_c, 0, 67, 56
1, 630667, Control_c, 0, 64, 32
1, 630667, Control_c, 0, 67, 68
1, 630682, Control_c, 0, 64, 33
1, 630682, Control_c, 0, 67, 74
1, 630697, Control_c, 0, 64, 44
1, 630697, Control_c, 0, 67, 80
1, 630712, Control_c, 0, 64, 48
1, 630712, Control_c, 0, 67, 88
1, 630726, Control_c, 0, 64, 50
1, 630726, Control_c, 0, 67, 94
1, 630741, Control_c, 0, 64, 51
1, 630741, Control_c, 0, 67, 100
1, 630747, Note_on_c, 0, 66, 55
1, 630749, Note_on_c, 0, 63, 48
1, 630754, Note_on_c, 0, 71, 52
1, 630756, Control_c, 0, 64, 53
1, 630756, Control_c, 0, 67, 105
1, 630771, Control_c, 0, 64, 53
1, 630771, Control_c, 0, 67, 107
1, 630779, Note_off_c, 0, 71, 58
1, 630782, Note_off_c, 0, 66, 62
1, 630785, Note_off_c, 0, 63, 64
1, 630786, Control_c, 0, 67, 109
1, 630800, Control_c, 0, 67, 112
1, 630815, Control_c, 0, 67, 115
1, 630830, Control_c, 0, 67, 117
1, 630844, Control_c, 0, 67, 117
1, 630871, Note_on_c, 0, 89, 73
1, 630880, Note_on_c, 0, 66, 57
1, 630881, Note_on_c, 0, 63, 56
1, 630883, Note_on_c, 0, 71, 47
1, 630913, Note_on_c, 0, 87, 75
1, 630914, Note_off_c, 0, 66, 62
1, 630917, Note_off_c, 0, 63, 64
1, 630919, Control_c, 0, 64, 54
1, 630919, Control_c, 0, 67, 117
1, 630920, Note_off_c, 0, 71, 60
1, 630928, Note_off_c, 0, 89, 61
1, 630934, Control_c, 0, 64, 55
1, 630949, Control_c, 0, 64, 56
1, 630949, Control_c, 0, 67, 116
1, 630960, Note_on_c, 0, 86, 79
1, 630963, Control_c, 0, 64, 56
1, 630964, Note_off_c, 0, 87, 64
1, 630978, Control_c, 0, 67, 116
1, 630993, Control_c, 0, 64, 57
1, 631007, Note_on_c, 0, 87, 77
1, 631010, Note_on_c, 0, 71, 55
1, 631011, Note_on_c, 0, 63, 59
1, 631011, Note_on_c, 0, 66, 62
1, 631013, Note_off_c, 0, 86, 65
1, 631037, Control_c, 0, 64, 57
1, 631037, Control_c, 0, 67, 115
1, 631039, Note_off_c, 0, 71, 59
1, 631042, Note_off_c, 0, 66, 64
1, 631044, Note_off_c, 0, 63, 64
1, 631047, Note_off_c, 0, 87, 65
1, 631052, Control_c, 0, 64, 59
1, 631067, Control_c, 0, 64, 61
1, 631067, Control_c, 0, 67, 115
1, 631097, Control_c, 0, 67, 114
1, 631141, Control_c, 0, 64, 61
1, 631142, Note_on_c, 0, 63, 61
1, 631143, Note_on_c, 0, 66, 60
1, 631145, Note_on_c, 0, 71, 51
1, 631156, Control_c, 0, 64, 62
1, 631156, Control_c, 0, 67, 114
1, 631177, Note_off_c, 0, 66, 63
1, 631180, Note_off_c, 0, 71, 60
1, 631184, Note_off_c, 0, 63, 59
1, 631186, Control_c, 0, 64, 62
1, 631208, Control_c, 0, 64, 63
1, 631273, Note_on_c, 0, 92, 92
1, 631282, Note_on_c, 0, 66, 59
1, 631284, Note_on_c, 0, 71, 58
1, 631296, Note_on_c, 0, 63, 57
1, 631297, Control_c, 0, 64, 62
1, 631308, Note_on_c, 0, 90, 78
1, 631312, Control_c, 0, 64, 62
1, 631318, Note_off_c, 0, 66, 63
1, 631321, Note_off_c, 0, 71, 59
1, 631326, Control_c, 0, 64, 61
1, 631327, Note_off_c, 0, 63, 65
1, 631337, Note_off_c, 0, 92, 67
1, 631354, Note_on_c, 0, 89, 92
1, 631363, Note_off_c, 0, 90, 66
1, 631387, Control_c, 0, 64, 61
1, 631401, Control_c, 0, 67, 113
1, 631402, Note_on_c, 0, 63, 66
1, 631407, Note_on_c, 0, 90, 89
1, 631410, Note_on_c, 0, 66, 70
1, 631414, Note_on_c, 0, 71, 67
1, 631422, Note_off_c, 0, 89, 64
1, 631443, Note_off_c, 0, 66, 59
1, 631446, Control_c, 0, 64, 62
1, 631450, Note_off_c, 0, 71, 57
1, 631452, Note_off_c, 0, 63, 57
1, 631455, Note_off_c, 0, 90, 66
1, 631461, Control_c, 0, 64, 62
1, 631506, Control_c, 0, 64, 63
1, 631521, Control_c, 0, 64, 65
1, 631536, Control_c, 0, 64, 67
1, 631544, Note_on_c, 0, 66, 64
1, 631548, Note_on_c, 0, 63, 60
1, 631549, Note_on_c, 0, 71, 60
1, 631550, Control_c, 0, 64, 70
1, 631565, Control_c, 0, 64, 72
1, 631576, Note_off_c, 0, 71, 55
1, 631579, Note_off_c, 0, 66, 61
1, 631580, Control_c, 0, 64, 73
1, 631580, Control_c, 0, 67, 114
1, 631583, Note_off_c, 0, 63, 64
1, 631595, Control_c, 0, 64, 73
1, 631610, Control_c, 0, 64, 74
1, 631664, Note_on_c, 0, 97, 82
1, 631668, Note_on_c, 0, 63, 67
1, 631674, Note_on_c, 0, 71, 57
1, 631676, Note_on_c, 0, 66, 66
1, 631683, Control_c, 0, 64, 73
1, 631692, Note_on_c, 0, 95, 80
1, 631706, Note_off_c, 0, 66, 63
1, 631710, Note_off_c, 0, 71, 61
1, 631718, Note_off_c, 0, 63, 56
1, 631726, Note_off_c, 0, 97, 66
1, 631728, Control_c, 0, 64, 74
1, 631742, Control_c, 0, 64, 75
1, 631745, Note_on_c, 0, 94, 83
1, 631754, Note_off_c, 0, 95, 67
1, 631757, Control_c, 0, 64, 76
1, 631772, Control_c, 0, 64, 77
1, 631782, Note_on_c, 0, 95, 78
1, 631798, Note_on_c, 0, 66, 63
1, 631807, Note_on_c, 0, 63, 62
1, 631809, Note_off_c, 0, 94, 63
1, 631813, Note_on_c, 0, 71, 58
1, 631818, Note_off_c, 0, 95, 68
1, 631831, Control_c, 0, 64, 76
1, 631833, Note_off_c, 0, 71, 62
1, 631837, Note_off_c, 0, 66, 60
1, 631837, Note_off_c, 0, 63, 64
1, 631846, Control_c, 0, 64, 76
1, 631876, Control_c, 0, 64, 75
1, 631890, Control_c, 0, 64, 75
1, 631920, Control_c, 0, 64, 74
1, 631948, Note_on_c, 0, 63, 54
1, 631950, Note_on_c, 0, 66, 59
1, 631954, Note_on_c, 0, 71, 42
1, 631957, Control_c, 0, 64, 73
1, 631972, Control_c, 0, 64, 72
1, 631976, Note_off_c, 0, 66, 66
1, 631983, Note_off_c, 0, 63, 64
1, 631983, Note_off_c, 0, 71, 58
1, 631987, Control_c, 0, 64, 71
1, 632001, Control_c, 0, 64, 71
1, 632016, Control_c, 0, 64, 70
1, 632031, Control_c, 0, 64, 69
1, 632061, Control_c, 0, 67, 114
1, 632075, Note_on_c, 0, 71, 54
1, 632078, Note_on_c, 0, 66, 59
1, 632081, Note_on_c, 0, 92, 65
1, 632083, Note_on_c, 0, 63, 56
1, 632090, Control_c, 0, 64, 69
1, 632111, Note_on_c, 0, 90, 67
1, 632117, Note_off_c, 0, 66, 62
1, 632119, Note_off_c, 0, 63, 64
1, 632120, Note_off_c, 0, 71, 57
1, 632120, Control_c, 0, 67, 115
1, 632131, Note_off_c, 0, 92, 62
1, 632158, Note_off_c, 0, 90, 62
1, 632159, Note_on_c, 0, 89, 70
1, 632204, Note_on_c, 0, 90, 64
1, 632209, Control_c, 0, 64, 69
1, 632213, Note_on_c, 0, 66, 61
1, 632215, Note_on_c, 0, 63, 54
1, 632218, Note_off_c, 0, 89, 63
1, 632227, Note_on_c, 0, 71, 54
1, 632239, Note_off_c, 0, 90, 65
1, 632244, Note_off_c, 0, 66, 63
1, 632248, Note_off_c, 0, 71, 60
1, 632250, Note_off_c, 0, 63, 64
1, 632254, Control_c, 0, 64, 70
1, 632299, Control_c, 0, 64, 70
1, 632314, Control_c, 0, 64, 71
1, 632329, Control_c, 0, 64, 71
1, 632343, Note_on_c, 0, 66, 58
1, 632349, Note_on_c, 0, 63, 49
1, 632354, Note_on_c, 0, 71, 39
1, 632358, Control_c, 0, 64, 71
1, 632382, Note_off_c, 0, 63, 63
1, 632384, Note_off_c, 0, 66, 60
1, 632388, Note_off_c, 0, 71, 56
1, 632418, Control_c, 0, 64, 70
1, 632433, Control_c, 0, 64, 69
1, 632447, Control_c, 0, 64, 69
1, 632462, Control_c, 0, 64, 68
1, 632471, Note_on_c, 0, 89, 72
1, 632477, Control_c, 0, 64, 67
1, 632485, Note_on_c, 0, 71, 48
1, 632491, Note_on_c, 0, 66, 57
1, 632493, Note_on_c, 0, 63, 42
1, 632503, Note_on_c, 0, 87, 75
1, 632506, Control_c, 0, 64, 67
1, 632517, Note_off_c, 0, 89, 60
1, 632521, Control_c, 0, 64, 66
1, 632522, Note_off_c, 0, 66, 62
1, 632528, Note_off_c, 0, 63, 58
1, 632528, Note_off_c, 0, 71, 54
1, 632536, Control_c, 0, 64, 66
1, 632541, Note_off_c, 0, 87, 63
1, 632551, Control_c, 0, 64, 65
1, 632555, Note_on_c, 0, 86, 63
1, 632565, Control_c, 0, 64, 64
1, 632580, Control_c, 0, 64, 64
1, 632595, Note_on_c, 0, 87, 79
1, 632609, Note_off_c, 0, 86, 64
1, 632615, Note_on_c, 0, 66, 60
1, 632623, Note_on_c, 0, 63, 47
1, 632624, Control_c, 0, 64, 63
1, 632636, Note_on_c, 0, 71, 39
1, 632639, Control_c, 0, 64, 63
1, 632639, Control_c, 0, 67, 115
1, 632645, Note_off_c, 0, 87, 65
1, 632651, Note_off_c, 0, 66, 61
1, 632652, Note_off_c, 0, 63, 61
1, 632654, Control_c, 0, 64, 62
1, 632663, Note_off_c, 0, 71, 55
1, 632691, Control_c, 0, 67, 116
1, 632706, Control_c, 0, 67, 116
1, 632757, Note_on_c, 0, 71, 50
1, 632764, Note_on_c, 0, 66, 56
1, 632765, Control_c, 0, 64, 63
1, 632766, Note_on_c, 0, 63, 36
1, 632780, Control_c, 0, 64, 63
1, 632797, Note_off_c, 0, 66, 63
1, 632798, Note_off_c, 0, 63, 56
1, 632799, Note_off_c, 0, 71, 60
1, 632824, Control_c, 0, 64, 63
1, 632854, Control_c, 0, 64, 63
1, 632880, Note_on_c, 0, 85, 63
1, 632885, Note_on_c, 0, 66, 56
1, 632888, Note_on_c, 0, 63, 44
1, 632910, Note_on_c, 0, 83, 66
1, 632913, Note_on_c, 0, 71, 30
1, 632917, Note_off_c, 0, 85, 62
1, 632922, Note_off_c, 0, 66, 60
1, 632923, Note_off_c, 0, 63, 63
1, 632946, Note_off_c, 0, 71, 49
1, 632953, Note_off_c, 0, 83, 65
1, 632968, Note_on_c, 0, 82, 68
1, 632987, Control_c, 0, 64, 63
1, 633006, Note_on_c, 0, 83, 66
1, 633018, Control_c, 0, 64, 63
1, 633020, Note_off_c, 0, 82, 59
1, 633030, Note_on_c, 0, 63, 37
1, 633030, Note_on_c, 0, 71, 47
1, 633032, Note_on_c, 0, 66, 48
1, 633037, Note_off_c, 0, 83, 64
1, 633056, Note_off_c, 0, 66, 59
1, 633057, Note_off_c, 0, 71, 56
1, 633062, Note_off_c, 0, 63, 55
1, 633092, Control_c, 0, 64, 64
1, 633122, Control_c, 0, 64, 64
1, 633145, Note_on_c, 0, 66, 53
1, 633154, Note_on_c, 0, 63, 47
1, 633156, Note_on_c, 0, 71, 47
1, 633166, Control_c, 0, 64, 64
1, 633193, Note_off_c, 0, 63, 62
1, 633196, Note_off_c, 0, 66, 58
1, 633196, Note_off_c, 0, 71, 61
1, 633240, Control_c, 0, 64, 63
1, 633280, Note_on_c, 0, 80, 59
1, 633292, Note_on_c, 0, 71, 54
1, 633300, Control_c, 0, 64, 64
1, 633303, Note_on_c, 0, 66, 52
1, 633305, Note_on_c, 0, 63, 34
1, 633309, Note_on_c, 0, 78, 62
1, 633324, Note_off_c, 0, 80, 61
1, 633335, Note_off_c, 0, 66, 61
1, 633338, Note_off_c, 0, 71, 58
1, 633342, Note_off_c, 0, 63, 54
1, 633342, Note_off_c, 0, 78, 62
1, 633366, Note_on_c, 0, 77, 60
1, 633388, Control_c, 0, 64, 64
1, 633408, Note_off_c, 0, 77, 58
1, 633420, Note_on_c, 0, 66, 59
1, 633422, Note_on_c, 0, 78, 62
1, 633436, Note_on_c, 0, 63, 49
1, 633447, Note_on_c, 0, 71, 54
1, 633455, Control_c, 0, 64, 65
1, 633458, Note_off_c, 0, 78, 63
1, 633470, Control_c, 0, 64, 66
1, 633472, Note_off_c, 0, 71, 58
1, 633475, Note_off_c, 0, 66, 55
1, 633476, Note_off_c, 0, 63, 59
1, 633485, Control_c, 0, 64, 67
1, 633500, Control_c, 0, 64, 67
1, 633514, Control_c, 0, 67, 116
1, 633544, Control_c, 0, 64, 68
1, 633559, Control_c, 0, 64, 69
1, 633559, Control_c, 0, 67, 115
1, 633560, Note_on_c, 0, 71, 64
1, 633574, Control_c, 0, 64, 70
1, 633580, Note_on_c, 0, 63, 52
1, 633585, Note_on_c, 0, 66, 54
1, 633603, Control_c, 0, 64, 70
1, 633607, Note_off_c, 0, 66, 62
1, 633609, Note_off_c, 0, 71, 62
1, 633616, Note_off_c, 0, 63, 63
1, 633662, Control_c, 0, 67, 115
1, 633695, Note_on_c, 0, 66, 57
1, 633700, Note_on_c, 0, 69, 66
1, 633715, Note_on_c, 0, 63, 40
1, 633721, Control_c, 0, 64, 70
1, 633731, Note_off_c, 0, 66, 64
1, 633737, Note_off_c, 0, 69, 60
1, 633745, Note_off_c, 0, 63, 55
1, 633826, Control_c, 0, 64, 70
1, 633841, Control_c, 0, 64, 69
1, 633846, Note_on_c, 0, 62, 52
1, 633848, Note_on_c, 0, 65, 58
1, 633849, Note_on_c, 0, 77, 62
1, 633855, Control_c, 0, 64, 69
1, 633870, Control_c, 0, 64, 68
1, 633885, Control_c, 0, 64, 67
1, 633887, Note_off_c, 0, 62, 59
1, 633892, Note_off_c, 0, 65, 61
1, 633900, Control_c, 0, 64, 66
1, 633902, Note_off_c, 0, 77, 57
1, 633929, Control_c, 0, 64, 65
1, 633974, Control_c, 0, 64, 65
1, 633986, Note_on_c, 0, 70, 56
1, 633998, Note_on_c, 0, 62, 31
1, 634012, Note_on_c, 0, 65, 32
1, 634021, Note_off_c, 0, 70, 62
1, 634033, Note_off_c, 0, 62, 51
1, 634046, Note_off_c, 0, 65, 48
1, 634049, Control_c, 0, 64, 64
1, 634116, Note_on_c, 0, 87, 65
1, 634117, Note_on_c, 0, 70, 54
1, 634119, Note_on_c, 0, 62, 53
1, 634123, Note_on_c, 0, 65, 61
1, 634152, Note_on_c, 0, 86, 71
1, 634156, Note_off_c, 0, 65, 64
1, 634156, Note_off_c, 0, 62, 61
1, 634160, Note_off_c, 0, 70, 59
1, 634167, Note_off_c, 0, 87, 59
1, 634197, Note_off_c, 0, 86, 64
1, 634204, Note_on_c, 0, 84, 66
1, 634204, Control_c, 0, 64, 65
1, 634248, Control_c, 0, 64, 65
1, 634251, Note_on_c, 0, 86, 74
1, 634259, Note_off_c, 0, 84, 62
1, 634267, Note_on_c, 0, 65, 53
1, 634268, Note_on_c, 0, 62, 38
1, 634269, Note_on_c, 0, 70, 47
1, 634281, Note_off_c, 0, 86, 66
1, 634293, Control_c, 0, 64, 66
1, 634294, Note_off_c, 0, 65, 60
1, 634296, Note_off_c, 0, 70, 57
1, 634298, Note_off_c, 0, 62, 54
1, 634375, Note_on_c, 0, 70, 55
1, 634380, Note_on_c, 0, 62, 56
1, 634380, Note_on_c, 0, 65, 55
1, 634418, Note_off_c, 0, 65, 64
1, 634418, Note_off_c, 0, 62, 61
1, 634426, Note_off_c, 0, 70, 57
1, 634510, Note_on_c, 0, 90, 81
1, 634514, Control_c, 0, 67, 114
1, 634529, Note_on_c, 0, 62, 49
1, 634529, Note_on_c, 0, 65, 49
1, 634529, Control_c, 0, 64, 66
1, 634530, Note_on_c, 0, 70, 48
1, 634538, Note_on_c, 0, 89, 73
1, 634555, Note_off_c, 0, 65, 60
1, 634558, Note_off_c, 0, 62, 57
1, 634558, Note_off_c, 0, 90, 66
1, 634560, Note_off_c, 0, 70, 54
1, 634590, Note_on_c, 0, 88, 75
1, 634593, Note_off_c, 0, 89, 63
1, 634633, Control_c, 0, 64, 67
1, 634640, Note_on_c, 0, 65, 61
1, 634641, Note_on_c, 0, 89, 74
1, 634643, Note_on_c, 0, 70, 58
1, 634651, Note_on_c, 0, 62, 51
1, 634651, Note_off_c, 0, 88, 65
1, 634663, Control_c, 0, 64, 67
1, 634676, Note_off_c, 0, 89, 63
1, 634691, Note_off_c, 0, 62, 60
1, 634691, Note_off_c, 0, 65, 61
1, 634692, Note_off_c, 0, 70, 55
1, 634707, Control_c, 0, 64, 68
1, 634737, Control_c, 0, 64, 68
1, 634767, Control_c, 0, 64, 69
1, 634785, Note_on_c, 0, 62, 51
1, 634788, Note_on_c, 0, 65, 48
1, 634794, Note_on_c, 0, 70, 47
1, 634811, Control_c, 0, 64, 69
1, 634818, Note_off_c, 0, 65, 60
1, 634823, Note_off_c, 0, 70, 56
1, 634824, Note_off_c, 0, 62, 60
1, 634826, Control_c, 0, 64, 69
1, 634856, Control_c, 0, 64, 69
1, 634903, Note_on_c, 0, 95, 86
1, 634904, Note_on_c, 0, 65, 63
1, 634904, Note_on_c, 0, 70, 59
1, 634914, Note_on_c, 0, 62, 62
1, 634952, Note_on_c, 0, 94, 80
1, 634956, Note_off_c, 0, 65, 60
1, 634958, Note_off_c, 0, 62, 60
1, 634962, Note_off_c, 0, 95, 66
1, 634964, Note_off_c, 0, 70, 56
1, 634994, Note_on_c, 0, 93, 79
1, 634997, Note_off_c, 0, 94, 66
1, 635050, Note_on_c, 0, 94, 84
1, 635055, Note_on_c, 0, 70, 54
1, 635056, Note_on_c, 0, 65, 59
1, 635063, Note_off_c, 0, 93, 66
1, 635068, Note_on_c, 0, 62, 45
1, 635089, Note_off_c, 0, 70, 60
1, 635089, Note_off_c, 0, 94, 67
1, 635091, Note_off_c, 0, 65, 63
1, 635094, Note_off_c, 0, 62, 57
1, 635145, Control_c, 0, 64, 69
1, 635178, Note_on_c, 0, 62, 52
1, 635187, Note_on_c, 0, 70, 48
1, 635188, Note_on_c, 0, 65, 58
1, 635219, Note_off_c, 0, 65, 65
1, 635222, Note_off_c, 0, 70, 60
1, 635223, Note_off_c, 0, 62, 59
1, 635278, Control_c, 0, 67, 115
1, 635307, Control_c, 0, 64, 68
1, 635318, Note_on_c, 0, 65, 57
1, 635319, Note_on_c, 0, 70, 53
1, 635320, Note_on_c, 0, 90, 77
1, 635330, Note_on_c, 0, 62, 51
1, 635337, Control_c, 0, 64, 69
1, 635356, Note_on_c, 0, 89, 70
1, 635363, Note_off_c, 0, 65, 60
1, 635365, Note_off_c, 0, 62, 62
1, 635365, Note_off_c, 0, 70, 56
1, 635369, Note_off_c, 0, 90, 63
1, 635393, Note_off_c, 0, 89, 62
1, 635402, Note_on_c, 0, 88, 70
1, 635412, Control_c, 0, 64, 68
1, 635452, Note_on_c, 0, 89, 67
1, 635460, Note_on_c, 0, 62, 47
1, 635462, Note_off_c, 0, 88, 63
1, 635465, Note_on_c, 0, 65, 53
1, 635465, Note_on_c, 0, 70, 51
1, 635482, Note_off_c, 0, 89, 62
1, 635494, Note_off_c, 0, 62, 55
1, 635498, Note_off_c, 0, 65, 64
1, 635502, Note_off_c, 0, 70, 59
1, 635585, Note_on_c, 0, 65, 55
1, 635587, Note_on_c, 0, 70, 53
1, 635592, Note_on_c, 0, 62, 53
1, 635624, Note_off_c, 0, 65, 63
1, 635629, Note_off_c, 0, 62, 61
1, 635629, Note_off_c, 0, 70, 58
1, 635730, Note_on_c, 0, 87, 66
1, 635739, Note_on_c, 0, 62, 42
1, 635742, Note_on_c, 0, 65, 49
1, 635745, Control_c, 0, 64, 69
1, 635748, Note_on_c, 0, 70, 49
1, 635760, Note_on_c, 0, 86, 68
1, 635767, Note_off_c, 0, 87, 59
1, 635775, Note_off_c, 0, 65, 58
1, 635776, Note_off_c, 0, 70, 56
1, 635777, Note_off_c, 0, 62, 53
1, 635791, Note_off_c, 0, 86, 63
1, 635813, Note_on_c, 0, 84, 66
1, 635858, Note_on_c, 0, 70, 55
1, 635863, Note_on_c, 0, 65, 57
1, 635864, Note_on_c, 0, 86, 72
1, 635871, Note_on_c, 0, 62, 52
1, 635888, Note_off_c, 0, 86, 67
1, 635892, Note_off_c, 0, 84, 44
1, 635903, Note_off_c, 0, 65, 62
1, 635905, Note_off_c, 0, 62, 62
1, 635906, Note_off_c, 0, 70, 57
1, 636002, Note_on_c, 0, 62, 46
1, 636023, Note_on_c, 0, 70, 35
1, 636030, Note_on_c, 0, 65, 24
1, 636036, Note_off_c, 0, 62, 53
1, 636055, Note_off_c, 0, 70, 50
1, 636069, Note_off_c, 0, 65, 43
1, 636115, Control_c, 0, 64, 68
1, 636131, Note_on_c, 0, 83, 65
1, 636132, Note_on_c, 0, 62, 47
1, 636132, Note_on_c, 0, 70, 56
1, 636160, Note_on_c, 0, 65, 25
1, 636163, Note_off_c, 0, 83, 65
1, 636167, Note_on_c, 0, 82, 74
1, 636171, Note_off_c, 0, 62, 59
1, 636172, Note_off_c, 0, 70, 59
1, 636189, Control_c, 0, 64, 69
1, 636199, Note_off_c, 0, 65, 44
1, 636203, Note_off_c, 0, 82, 63
1, 636225, Note_on_c, 0, 81, 63
1, 636259, Note_on_c, 0, 82, 61
1, 636270, Note_on_c, 0, 62, 48
1, 636275, Note_on_c, 0, 70, 43
1, 636277, Note_off_c, 0, 81, 61
1, 636285, Note_on_c, 0, 65, 42
1, 636291, Note_off_c, 0, 82, 64
1, 636302, Note_off_c, 0, 70, 57
1, 636307, Note_off_c, 0, 62, 58
1, 636313, Note_off_c, 0, 65, 56
1, 636368, Control_c, 0, 64, 69
1, 636390, Note_on_c, 0, 65, 57
1, 636396, Note_on_c, 0, 70, 47
1, 636401, Note_on_c, 0, 62, 56
1, 636413, Control_c, 0, 64, 69
1, 636446, Note_off_c, 0, 62, 58
1, 636446, Note_off_c, 0, 65, 60
1, 636450, Note_off_c, 0, 70, 57
1, 636464, Control_c, 0, 67, 114
1, 636522, Note_on_c, 0, 78, 67
1, 636538, Control_c, 0, 64, 69
1, 636553, Control_c, 0, 64, 70
1, 636553, Control_c, 0, 67, 114
1, 636556, Note_on_c, 0, 70, 42
1, 636559, Note_off_c, 0, 78, 61
1, 636561, Note_on_c, 0, 77, 57
1, 636568, Control_c, 0, 64, 70
1, 636573, Note_on_c, 0, 62, 14
1, 636582, Control_c, 0, 64, 71
1, 636582, Control_c, 0, 67, 113
1, 636592, Note_off_c, 0, 77, 66
1, 636597, Control_c, 0, 64, 72
1, 636597, Control_c, 0, 67, 113
1, 636606, Note_on_c, 0, 76, 65
1, 636612, Control_c, 0, 64, 73
1, 636612, Control_c, 0, 67, 112
1, 636618, Note_off_c, 0, 62, 37
1, 636627, Control_c, 0, 64, 74
1, 636642, Control_c, 0, 64, 74
1, 636648, Note_off_c, 0, 70, 37
1, 636651, Note_on_c, 0, 77, 60
1, 636656, Note_off_c, 0, 76, 59
1, 636657, Control_c, 0, 64, 76
1, 636672, Control_c, 0, 64, 77
1, 636682, Note_on_c, 0, 62, 55
1, 636684, Note_off_c, 0, 77, 61
1, 636687, Control_c, 0, 64, 78
1, 636702, Control_c, 0, 64, 78
1, 636714, Note_off_c, 0, 62, 64
1, 636716, Poly_aftertouch_c, 0, 65, 0
1, 636731, Control_c, 0, 67, 113
1, 636776, Control_c, 0, 67, 113
1, 636805, Control_c, 0, 67, 114
1, 636831, Note_on_c, 0, 58, 65
1, 636909, Control_c, 0, 64, 78
1, 636909, Control_c, 0, 67, 114
1, 636924, Control_c, 0, 64, 77
1, 636938, Control_c, 0, 64, 76
1, 636953, Control_c, 0, 64, 75
1, 636968, Control_c, 0, 64, 75
1, 636982, Control_c, 0, 64, 73
1, 636995, Note_on_c, 0, 78, 68
1, 636997, Control_c, 0, 64, 71
1, 637005, Note_on_c, 0, 56, 52
1, 637014, Control_c, 0, 64, 68
1, 637023, Note_off_c, 0, 58, 51
1, 637028, Control_c, 0, 64, 65
1, 637043, Control_c, 0, 64, 64
1, 637058, Control_c, 0, 64, 63
1, 637073, Control_c, 0, 64, 61
1, 637087, Control_c, 0, 64, 52
1, 637102, Control_c, 0, 64, 26
1, 637117, Control_c, 0, 64, 0
1, 637159, Note_off_c, 0, 78, 56
1, 637195, Note_on_c, 0, 79, 59
1, 637200, Note_off_c, 0, 56, 54
1, 637208, Note_on_c, 0, 55, 54
1, 637244, Note_on_c, 0, 51, 30
1, 637280, Poly_aftertouch_c, 0, 70, 0
1, 637288, Control_c, 0, 64, 52
1, 637295, Note_on_c, 0, 72, 42
1, 637303, Control_c, 0, 64, 64
1, 637318, Control_c, 0, 64, 69
1, 637325, Note_off_c, 0, 72, 59
1, 637332, Control_c, 0, 64, 72
1, 637347, Control_c, 0, 64, 75
1, 637361, Control_c, 0, 64, 77
1, 637369, Note_on_c, 0, 70, 41
1, 637376, Control_c, 0, 64, 80
1, 637391, Control_c, 0, 64, 82
1, 637403, Note_off_c, 0, 70, 56
1, 637405, Control_c, 0, 64, 84
1, 637405, Control_c, 0, 67, 114
1, 637415, Note_on_c, 0, 72, 55
1, 637420, Control_c, 0, 64, 85
1, 637435, Control_c, 0, 64, 86
1, 637456, Note_off_c, 0, 72, 59
1, 637465, Control_c, 0, 67, 113
1, 637495, Note_on_c, 0, 70, 54
1, 637510, Note_off_c, 0, 55, 34
1, 637516, Note_on_c, 0, 60, 53
1, 637560, Note_off_c, 0, 79, 42
1, 637561, Note_on_c, 0, 72, 61
1, 637606, Note_off_c, 0, 72, 53
1, 637613, Control_c, 0, 64, 85
1, 637628, Control_c, 0, 64, 84
1, 637641, Note_on_c, 0, 75, 75
1, 637643, Control_c, 0, 64, 81
1, 637658, Control_c, 0, 64, 76
1, 637673, Control_c, 0, 64, 69
1, 637677, Note_on_c, 0, 58, 54
1, 637683, Note_off_c, 0, 70, 25
1, 637687, Control_c, 0, 64, 65
1, 637702, Control_c, 0, 64, 64
1, 637715, Note_off_c, 0, 60, 55
1, 637717, Control_c, 0, 64, 64
1, 637717, Control_c, 0, 67, 113
1, 637732, Note_on_c, 0, 72, 59
1, 637732, Control_c, 0, 64, 65
1, 637747, Control_c, 0, 64, 68
1, 637747, Control_c, 0, 67, 112
1, 637761, Control_c, 0, 64, 71
1, 637761, Control_c, 0, 67, 111
1, 637776, Control_c, 0, 64, 75
1, 637776, Control_c, 0, 67, 111
1, 637790, Note_off_c, 0, 72, 60
1, 637791, Control_c, 0, 64, 81
1, 637791, Control_c, 0, 67, 110
1, 637807, Control_c, 0, 64, 85
1, 637807, Control_c, 0, 67, 110
1, 637808, Note_on_c, 0, 70, 57
1, 637822, Control_c, 0, 64, 88
1, 637822, Control_c, 0, 67, 109
1, 637836, Control_c, 0, 64, 91
1, 637836, Control_c, 0, 67, 109
1, 637851, Control_c, 0, 64, 94
1, 637851, Control_c, 0, 67, 108
1, 637852, Note_off_c, 0, 58, 61
1, 637856, Note_off_c, 0, 70, 52
1, 637866, Control_c, 0, 64, 95
1, 637866, Control_c, 0, 67, 107
1, 637881, Control_c, 0, 64, 95
1, 637881, Control_c, 0, 67, 107
1, 637891, Note_on_c, 0, 72, 62
1, 637940, Note_off_c, 0, 72, 60
1, 637943, Note_off_c, 0, 51, 51
1, 637970, Note_on_c, 0, 55, 54
1, 637970, Note_on_c, 0, 70, 71
1, 638007, Control_c, 0, 64, 95
1, 638030, Note_off_c, 0, 70, 59
1, 638030, Note_off_c, 0, 75, 55
1, 638042, Note_on_c, 0, 72, 56
1, 638055, Note_off_c, 0, 55, 54
1, 638066, Control_c, 0, 64, 93
1, 638082, Control_c, 0, 64, 90
1, 638097, Control_c, 0, 64, 86
1, 638099, Note_on_c, 0, 74, 84
1, 638103, Note_off_c, 0, 72, 59
1, 638111, Control_c, 0, 64, 81
1, 638122, Note_on_c, 0, 46, 51
1, 638126, Control_c, 0, 64, 76
1, 638127, Note_on_c, 0, 53, 53
1, 638141, Control_c, 0, 64, 72
1, 638141, Control_c, 0, 67, 107
1, 638156, Control_c, 0, 64, 67
1, 638161, Poly_aftertouch_c, 0, 70, 127
1, 638171, Control_c, 0, 64, 65
1, 638185, Control_c, 0, 64, 65
1, 638193, Note_on_c, 0, 72, 68
1, 638200, Control_c, 0, 64, 66
1, 638201, Poly_aftertouch_c, 0, 70, 0
1, 638215, Control_c, 0, 64, 70
1, 638229, Control_c, 0, 64, 73
1, 638244, Control_c, 0, 64, 77
1, 638257, Note_off_c, 0, 72, 63
1, 638259, Control_c, 0, 64, 81
1, 638270, Note_on_c, 0, 70, 72
1, 638274, Note_off_c, 0, 46, 61
1, 638274, Control_c, 0, 64, 83
1, 638289, Control_c, 0, 64, 84
1, 638298, Note_off_c, 0, 74, 36
1, 638328, Note_off_c, 0, 70, 61
1, 638340, Note_on_c, 0, 72, 69
1, 638382, Note_off_c, 0, 53, 63
1, 638392, Control_c, 0, 64, 83
1, 638402, Note_on_c, 0, 60, 61
1, 638405, Note_off_c, 0, 72, 62
1, 638411, Note_on_c, 0, 70, 74
1, 638489, Note_on_c, 0, 72, 72
1, 638515, Note_off_c, 0, 70, 49
1, 638532, Note_off_c, 0, 60, 58
1, 638538, Note_on_c, 0, 58, 59
1, 638541, Control_c, 0, 64, 83
1, 638545, Note_on_c, 0, 80, 88
1, 638570, Control_c, 0, 67, 108
1, 638573, Note_off_c, 0, 72, 61
1, 638585, Control_c, 0, 67, 108
1, 638608, Poly_aftertouch_c, 0, 70, 127
1, 638645, Poly_aftertouch_c, 0, 70, 0
1, 638645, Control_c, 0, 67, 109
1, 638655, Note_on_c, 0, 72, 56
1, 638682, Control_c, 0, 67, 109
1, 638712, Control_c, 0, 67, 110
1, 638723, Note_off_c, 0, 72, 62
1, 638731, Note_on_c, 0, 70, 68
1, 638756, Control_c, 0, 67, 110
1, 638771, Control_c, 0, 67, 111
1, 638785, Note_off_c, 0, 70, 62
1, 638801, Control_c, 0, 64, 83
1, 638805, Note_on_c, 0, 72, 63
1, 638807, Note_off_c, 0, 80, 56
1, 638854, Note_off_c, 0, 72, 62
1, 638860, Note_on_c, 0, 53, 52
1, 638865, Note_on_c, 0, 70, 74
1, 638905, Note_off_c, 0, 58, 56
1, 638929, Note_on_c, 0, 72, 62
1, 638955, Note_off_c, 0, 70, 57
1, 638964, Control_c, 0, 64, 83
1, 638974, Note_off_c, 0, 53, 61
1, 638978, Control_c, 0, 64, 82
1, 638993, Control_c, 0, 64, 79
1, 638999, Note_on_c, 0, 79, 89
1, 639008, Control_c, 0, 64, 76
1, 639009, Note_on_c, 0, 51, 63
1, 639012, Note_on_c, 0, 55, 62
1, 639020, Note_off_c, 0, 72, 62
1, 639023, Control_c, 0, 64, 71
1, 639038, Control_c, 0, 64, 65
1, 639052, Control_c, 0, 64, 62
1, 639093, Note_on_c, 0, 72, 54
1, 639097, Control_c, 0, 64, 64
1, 639112, Control_c, 0, 64, 66
1, 639126, Control_c, 0, 64, 70
1, 639141, Control_c, 0, 64, 74
1, 639156, Control_c, 0, 64, 78
1, 639157, Note_off_c, 0, 72, 63
1, 639170, Note_on_c, 0, 70, 69
1, 639171, Control_c, 0, 64, 82
1, 639171, Control_c, 0, 67, 111
1, 639185, Control_c, 0, 64, 85
1, 639200, Control_c, 0, 64, 88
1, 639215, Control_c, 0, 64, 90
1, 639231, Note_off_c, 0, 70, 62
1, 639232, Note_on_c, 0, 72, 68
1, 639285, Note_on_c, 0, 60, 77
1, 639292, Note_off_c, 0, 72, 62
1, 639313, Note_on_c, 0, 70, 68
1, 639323, Note_off_c, 0, 55, 63
1, 639349, Control_c, 0, 64, 90
1, 639354, Note_off_c, 0, 79, 53
1, 639389, Note_off_c, 0, 70, 51
1, 639390, Note_on_c, 0, 72, 69
1, 639408, Control_c, 0, 64, 89
1, 639431, Control_c, 0, 64, 88
1, 639446, Control_c, 0, 64, 84
1, 639448, Note_off_c, 0, 72, 53
1, 639456, Note_on_c, 0, 75, 77
1, 639461, Control_c, 0, 64, 79
1, 639462, Note_on_c, 0, 58, 76
1, 639476, Control_c, 0, 64, 73
1, 639490, Control_c, 0, 64, 67
1, 639505, Control_c, 0, 64, 64
1, 639520, Control_c, 0, 64, 60
1, 639533, Note_off_c, 0, 60, 62
1, 639535, Control_c, 0, 64, 57
1, 639550, Control_c, 0, 64, 57
1, 639551, Note_on_c, 0, 72, 67
1, 639564, Control_c, 0, 64, 62
1, 639579, Control_c, 0, 64, 65
1, 639594, Control_c, 0, 64, 67
1, 639600, Note_off_c, 0, 72, 60
1, 639608, Control_c, 0, 64, 71
1, 639620, Note_on_c, 0, 70, 63
1, 639623, Control_c, 0, 64, 74
1, 639638, Control_c, 0, 64, 78
1, 639653, Control_c, 0, 64, 82
1, 639653, Control_c, 0, 67, 111
1, 639662, Note_off_c, 0, 58, 62
1, 639668, Control_c, 0, 64, 84
1, 639671, Note_off_c, 0, 70, 62
1, 639689, Note_on_c, 0, 72, 64
1, 639697, Control_c, 0, 67, 110
1, 639712, Control_c, 0, 67, 110
1, 639725, Note_off_c, 0, 51, 63
1, 639727, Control_c, 0, 67, 109
1, 639742, Note_off_c, 0, 72, 55
1, 639763, Note_on_c, 0, 70, 65
1, 639766, Note_on_c, 0, 55, 54
1, 639822, Note_off_c, 0, 55, 54
1, 639825, Note_off_c, 0, 70, 55
1, 639830, Note_off_c, 0, 75, 50
1, 639843, Note_on_c, 0, 72, 63
1, 639861, Control_c, 0, 64, 83
1, 639875, Control_c, 0, 64, 81
1, 639890, Control_c, 0, 64, 75
1, 639897, Note_off_c, 0, 72, 60
1, 639903, Note_on_c, 0, 46, 46
1, 639905, Control_c, 0, 64, 69
1, 639911, Note_on_c, 0, 74, 66
1, 639920, Control_c, 0, 64, 64
1, 639922, Note_on_c, 0, 53, 47
1, 639935, Control_c, 0, 64, 61
1, 639935, Control_c, 0, 67, 110
1, 639949, Control_c, 0, 64, 61
1, 639964, Control_c, 0, 64, 62
1, 639979, Control_c, 0, 64, 65
1, 639992, Note_on_c, 0, 72, 62
1, 639994, Control_c, 0, 64, 67
1, 640000, Poly_aftertouch_c, 0, 70, 0
1, 640008, Control_c, 0, 64, 70
1, 640023, Control_c, 0, 64, 72
1, 640031, Note_off_c, 0, 74, 38
1, 640038, Control_c, 0, 64, 75
1, 640046, Note_off_c, 0, 72, 60
1, 640053, Control_c, 0, 64, 78
1, 640065, Note_on_c, 0, 70, 66
1, 640068, Control_c, 0, 64, 80
1, 640073, Note_off_c, 0, 46, 52
1, 640082, Control_c, 0, 64, 80
1, 640082, Control_c, 0, 67, 109
1, 640119, Note_off_c, 0, 70, 61
1, 640131, Note_on_c, 0, 72, 59
1, 640165, Note_off_c, 0, 53, 63
1, 640194, Note_off_c, 0, 72, 59
1, 640213, Note_on_c, 0, 60, 51
1, 640213, Note_on_c, 0, 70, 62
1, 640282, Note_off_c, 0, 70, 58
1, 640284, Control_c, 0, 64, 79
1, 640284, Control_c, 0, 67, 110
1, 640287, Note_on_c, 0, 72, 58
1, 640299, Control_c, 0, 64, 75
1, 640305, Note_off_c, 0, 60, 39
1, 640313, Control_c, 0, 64, 70
1, 640328, Control_c, 0, 64, 65
1, 640330, Note_off_c, 0, 72, 59
1, 640343, Note_on_c, 0, 58, 56
1, 640343, Control_c, 0, 64, 64
1, 640348, Note_on_c, 0, 80, 71
1, 640358, Control_c, 0, 64, 65
1, 640373, Control_c, 0, 64, 68
1, 640387, Control_c, 0, 64, 70
1, 640402, Control_c, 0, 64, 73
1, 640417, Control_c, 0, 64, 77
1, 640422, Note_on_c, 0, 72, 61
1, 640431, Control_c, 0, 64, 80
1, 640446, Control_c, 0, 64, 83
1, 640462, Note_off_c, 0, 72, 62
1, 640492, Note_off_c, 0, 80, 37
1, 640498, Note_on_c, 0, 70, 60
1, 640539, Note_off_c, 0, 70, 60
1, 640556, Note_on_c, 0, 72, 55
1, 640592, Note_off_c, 0, 72, 59
1, 640609, Note_on_c, 0, 53, 49
1, 640616, Note_off_c, 0, 58, 55
1, 640639, Note_on_c, 0, 70, 52
1, 640639, Control_c, 0, 67, 109
1, 640657, Note_on_c, 0, 72, 49
1, 640677, Note_off_c, 0, 70, 64
1, 640687, Note_off_c, 0, 53, 61
1, 640688, Note_off_c, 0, 72, 65
1, 640699, Control_c, 0, 64, 82
1, 640713, Control_c, 0, 64, 79
1, 640728, Control_c, 0, 64, 72
1, 640743, Control_c, 0, 64, 61
1, 640757, Control_c, 0, 64, 37
1, 640761, Note_on_c, 0, 51, 67
1, 640770, Note_on_c, 0, 70, 63
1, 640770, Note_on_c, 0, 79, 67
1, 640772, Control_c, 0, 64, 35
1, 640787, Control_c, 0, 64, 50
1, 640796, Note_off_c, 0, 70, 68
1, 640797, Note_off_c, 0, 51, 65
1, 640802, Control_c, 0, 64, 56
1, 640806, Note_off_c, 0, 79, 58
1, 640817, Control_c, 0, 64, 57
1, 640831, Control_c, 0, 67, 110
1, 640846, Note_on_c, 0, 72, 56
1, 640861, Control_c, 0, 64, 57
1, 640893, Note_off_c, 0, 72, 61
1, 640893, Note_on_c, 0, 74, 80
1, 640899, Note_on_c, 0, 55, 56
1, 640908, Note_on_c, 0, 63, 49
1, 640914, Note_on_c, 0, 58, 42
1, 640942, Note_off_c, 0, 63, 57
1, 640943, Control_c, 0, 64, 57
1, 640944, Note_off_c, 0, 55, 64
1, 640949, Note_off_c, 0, 58, 58
1, 640953, Note_off_c, 0, 74, 64
1, 640953, Note_on_c, 0, 75, 74
1, 640957, Control_c, 0, 64, 59
1, 640972, Control_c, 0, 64, 60
1, 640974, Note_off_c, 0, 75, 71
1, 640987, Control_c, 0, 64, 60
1, 641003, Control_c, 0, 64, 61
1, 641003, Control_c, 0, 67, 110
1, 641021, Note_on_c, 0, 77, 70
1, 641028, Note_on_c, 0, 58, 58
1, 641031, Note_on_c, 0, 55, 59
1, 641033, Note_on_c, 0, 63, 51
1, 641062, Control_c, 0, 67, 111
1, 641066, Note_off_c, 0, 58, 62
1, 641067, Note_off_c, 0, 77, 60
1, 641071, Note_off_c, 0, 55, 64
1, 641072, Note_on_c, 0, 79, 81
1, 641075, Note_off_c, 0, 63, 59
1, 641092, Control_c, 0, 67, 111
1, 641122, Control_c, 0, 64, 61
1, 641128, Note_on_c, 0, 80, 69
1, 641131, Note_off_c, 0, 79, 62
1, 641170, Note_off_c, 0, 80, 62
1, 641172, Note_on_c, 0, 63, 66
1, 641177, Note_on_c, 0, 58, 62
1, 641178, Note_on_c, 0, 82, 78
1, 641179, Note_on_c, 0, 55, 55
1, 641208, Note_off_c, 0, 58, 64
1, 641210, Control_c, 0, 64, 62
1, 641214, Note_off_c, 0, 55, 62
1, 641221, Note_off_c, 0, 63, 51
1, 641242, Note_on_c, 0, 80, 72
1, 641255, Note_off_c, 0, 82, 64
1, 641292, Note_on_c, 0, 79, 71
1, 641306, Note_off_c, 0, 80, 58
1, 641319, Note_on_c, 0, 58, 59
1, 641322, Note_on_c, 0, 55, 52
1, 641322, Note_off_c, 0, 79, 61
1, 641331, Note_on_c, 0, 63, 57
1, 641343, Control_c, 0, 64, 61
1, 641349, Note_on_c, 0, 77, 65
1, 641358, Note_off_c, 0, 58, 59
1, 641367, Note_off_c, 0, 63, 64
1, 641379, Note_off_c, 0, 77, 63
1, 641388, Control_c, 0, 67, 111
1, 641403, Note_off_c, 0, 55, 50
1, 641417, Control_c, 0, 67, 110
1, 641459, Note_on_c, 0, 63, 68
1, 641459, Note_on_c, 0, 55, 50
1, 641467, Note_on_c, 0, 74, 80
1, 641474, Note_on_c, 0, 59, 60
1, 641477, Control_c, 0, 64, 62
1, 641492, Control_c, 0, 64, 62
1, 641492, Note_off_c, 0, 74, 67
1, 641498, Note_off_c, 0, 59, 62
1, 641498, Note_off_c, 0, 63, 59
1, 641501, Note_off_c, 0, 55, 66
1, 641519, Note_on_c, 0, 72, 69
1, 641522, Control_c, 0, 64, 63
1, 641536, Control_c, 0, 64, 64
1, 641549, Note_off_c, 0, 72, 64
1, 641551, Control_c, 0, 64, 65
1, 641566, Control_c, 0, 64, 66
1, 641580, Control_c, 0, 64, 67
1, 641585, Note_on_c, 0, 71, 77
1, 641595, Control_c, 0, 64, 68
1, 641610, Control_c, 0, 64, 69
1, 641625, Control_c, 0, 64, 72
1, 641634, Note_off_c, 0, 71, 62
1, 641640, Control_c, 0, 64, 75
1, 641647, Note_on_c, 0, 72, 77
1, 641669, Control_c, 0, 64, 72
1, 641691, Note_off_c, 0, 72, 64
1, 641692, Control_c, 0, 64, 68
1, 641707, Control_c, 0, 64, 67
1, 641722, Control_c, 0, 64, 69
1, 641736, Control_c, 0, 64, 72
1, 641751, Control_c, 0, 64, 75
1, 641765, Note_on_c, 0, 74, 13
1, 641766, Control_c, 0, 64, 78
1, 641767, Note_on_c, 0, 56, 66
1, 641780, Control_c, 0, 64, 78
1, 641788, Note_on_c, 0, 63, 40
1, 641800, Note_on_c, 0, 76, 70
1, 641807, Note_off_c, 0, 56, 60
1, 641811, Control_c, 0, 64, 78
1, 641812, Note_off_c, 0, 74, 31
1, 641821, Note_off_c, 0, 63, 54
1, 641827, Note_off_c, 0, 76, 67
1, 641854, Note_on_c, 0, 78, 81
1, 641856, Control_c, 0, 64, 75
1, 641871, Control_c, 0, 64, 71
1, 641879, Note_on_c, 0, 79, 70
1, 641885, Control_c, 0, 64, 66
1, 641900, Control_c, 0, 64, 66
1, 641915, Note_off_c, 0, 78, 59
1, 641915, Note_off_c, 0, 79, 60
1, 641915, Control_c, 0, 64, 67
1, 641922, Note_on_c, 0, 80, 71
1, 641928, Note_on_c, 0, 56, 59
1, 641930, Control_c, 0, 64, 69
1, 641945, Control_c, 0, 64, 71
1, 641948, Note_on_c, 0, 60, 55
1, 641960, Control_c, 0, 64, 71
1, 641963, Note_on_c, 0, 63, 17
1, 641972, Note_off_c, 0, 60, 65
1, 641975, Control_c, 0, 64, 68
1, 641980, Note_on_c, 0, 82, 73
1, 641981, Note_off_c, 0, 56, 60
1, 641985, Note_off_c, 0, 80, 64
1, 641990, Control_c, 0, 64, 66
1, 642003, Note_off_c, 0, 63, 43
1, 642004, Control_c, 0, 64, 65
1, 642019, Control_c, 0, 64, 67
1, 642034, Note_on_c, 0, 84, 78
1, 642034, Control_c, 0, 64, 69
1, 642040, Note_off_c, 0, 82, 64
1, 642049, Control_c, 0, 64, 70
1, 642064, Control_c, 0, 64, 70
1, 642066, Note_on_c, 0, 56, 68
1, 642069, Note_on_c, 0, 60, 49
1, 642076, Note_on_c, 0, 63, 56
1, 642079, Control_c, 0, 64, 69
1, 642094, Control_c, 0, 64, 68
1, 642107, Note_on_c, 0, 82, 85
1, 642107, Note_off_c, 0, 63, 57
1, 642109, Control_c, 0, 64, 69
1, 642109, Note_off_c, 0, 60, 60
1, 642111, Note_off_c, 0, 56, 57
1, 642124, Control_c, 0, 64, 70
1, 642131, Note_off_c, 0, 84, 62
1, 642193, Note_on_c, 0, 80, 76
1, 642211, Note_on_c, 0, 56, 68
1, 642212, Control_c, 0, 64, 70
1, 642219, Note_on_c, 0, 60, 59
1, 642220, Note_off_c, 0, 82, 64
1, 642230, Note_on_c, 0, 63, 48
1, 642247, Note_on_c, 0, 79, 72
1, 642257, Note_off_c, 0, 56, 58
1, 642257, Control_c, 0, 64, 71
1, 642264, Note_off_c, 0, 60, 63
1, 642266, Note_off_c, 0, 63, 63
1, 642268, Note_off_c, 0, 80, 61
1, 642271, Control_c, 0, 64, 72
1, 642283, Note_off_c, 0, 79, 62
1, 642286, Control_c, 0, 64, 72
1, 642301, Control_c, 0, 64, 72
1, 642316, Control_c, 0, 64, 71
1, 642333, Note_on_c, 0, 77, 19
1, 642336, Note_on_c, 0, 76, 27
1, 642356, Note_on_c, 0, 57, 69
1, 642359, Note_on_c, 0, 65, 65
1, 642360, Control_c, 0, 64, 72
1, 642368, Note_on_c, 0, 75, 85
1, 642373, Note_off_c, 0, 77, 44
1, 642374, Note_off_c, 0, 76, 44
1, 642385, Note_off_c, 0, 57, 67
1, 642388, Note_off_c, 0, 65, 66
1, 642390, Control_c, 0, 64, 71
1, 642404, Control_c, 0, 64, 71
1, 642427, Control_c, 0, 64, 69
1, 642435, Note_on_c, 0, 74, 75
1, 642440, Note_off_c, 0, 75, 62
1, 642442, Control_c, 0, 64, 66
1, 642457, Control_c, 0, 64, 56
1, 642461, Note_off_c, 0, 74, 69
1, 642471, Note_on_c, 0, 72, 71
1, 642472, Control_c, 0, 64, 0
1, 642509, Note_off_c, 0, 72, 60
1, 642516, Control_c, 0, 67, 110
1, 642530, Control_c, 0, 64, 48
1, 642530, Control_c, 0, 67, 109
1, 642544, Note_on_c, 0, 70, 85
1, 642545, Control_c, 0, 64, 61
1, 642560, Control_c, 0, 64, 67
1, 642560, Control_c, 0, 67, 109
1, 642575, Control_c, 0, 64, 71
1, 642575, Control_c, 0, 67, 108
1, 642590, Control_c, 0, 64, 72
1, 642590, Control_c, 0, 67, 107
1, 642597, Note_off_c, 0, 70, 64
1, 642606, Control_c, 0, 67, 106
1, 642619, Note_on_c, 0, 79, 86
1, 642621, Control_c, 0, 67, 105
1, 642635, Control_c, 0, 67, 103
1, 642645, Note_off_c, 0, 79, 65
1, 642650, Control_c, 0, 64, 74
1, 642650, Control_c, 0, 67, 100
1, 642665, Control_c, 0, 64, 74
1, 642665, Control_c, 0, 67, 93
1, 642670, Note_on_c, 0, 58, 65
1, 642675, Note_on_c, 0, 63, 55
1, 642677, Note_on_c, 0, 67, 58
1, 642680, Control_c, 0, 64, 75
1, 642680, Control_c, 0, 67, 85
1, 642695, Control_c, 0, 67, 75
1, 642697, Note_on_c, 0, 75, 81
1, 642698, Note_off_c, 0, 58, 66
1, 642701, Note_off_c, 0, 63, 64
1, 642707, Note_off_c, 0, 67, 60
1, 642709, Control_c, 0, 67, 63
1, 642724, Control_c, 0, 67, 49
1, 642739, Control_c, 0, 67, 33
1, 642747, Note_off_c, 0, 75, 62
1, 642754, Control_c, 0, 67, 23
1, 642762, Note_on_c, 0, 82, 89
1, 642769, Control_c, 0, 67, 14
1, 642783, Control_c, 0, 64, 75
1, 642783, Control_c, 0, 67, 0
1, 642795, Note_on_c, 0, 63, 53
1, 642798, Control_c, 0, 64, 76
1, 642800, Note_on_c, 0, 58, 59
1, 642810, Note_off_c, 0, 82, 62
1, 642812, Note_on_c, 0, 67, 44
1, 642813, Control_c, 0, 64, 78
1, 642827, Control_c, 0, 64, 79
1, 642834, Note_on_c, 0, 79, 85
1, 642835, Note_off_c, 0, 63, 62
1, 642837, Note_off_c, 0, 67, 57
1, 642840, Note_off_c, 0, 58, 58
1, 642842, Control_c, 0, 64, 80
1, 642880, Note_off_c, 0, 79, 63
1, 642901, Note_on_c, 0, 87, 83
1, 642902, Control_c, 0, 64, 81
1, 642917, Control_c, 0, 64, 83
1, 642932, Control_c, 0, 64, 85
1, 642940, Note_on_c, 0, 63, 56
1, 642945, Note_on_c, 0, 67, 45
1, 642946, Control_c, 0, 64, 86
1, 642951, Note_on_c, 0, 58, 60
1, 642961, Control_c, 0, 64, 87
1, 642966, Note_off_c, 0, 87, 63
1, 642971, Note_on_c, 0, 82, 91
1, 642975, Note_off_c, 0, 63, 63
1, 642976, Control_c, 0, 64, 88
1, 642978, Note_off_c, 0, 67, 54
1, 642984, Note_off_c, 0, 58, 63
1, 642991, Control_c, 0, 64, 90
1, 643006, Control_c, 0, 64, 93
1, 643011, Note_off_c, 0, 82, 65
1, 643020, Control_c, 0, 64, 96
1, 643043, Note_on_c, 0, 91, 83
1, 643065, Control_c, 0, 64, 96
1, 643074, Note_off_c, 0, 91, 62
1, 643080, Control_c, 0, 64, 97
1, 643085, Note_on_c, 0, 58, 57
1, 643088, Note_on_c, 0, 63, 55
1, 643094, Control_c, 0, 64, 99
1, 643097, Note_on_c, 0, 67, 49
1, 643109, Control_c, 0, 64, 101
1, 643120, Note_off_c, 0, 63, 61
1, 643120, Note_on_c, 0, 87, 97
1, 643124, Control_c, 0, 64, 101
1, 643138, Note_off_c, 0, 67, 58
1, 643146, Note_off_c, 0, 58, 48
1, 643153, Control_c, 0, 64, 102
1, 643164, Note_on_c, 0, 94, 84
1, 643176, Control_c, 0, 64, 104
1, 643191, Note_off_c, 0, 87, 63
1, 643191, Control_c, 0, 64, 107
1, 643206, Control_c, 0, 64, 109
1, 643206, Control_c, 0, 67, 9
1, 643221, Control_c, 0, 67, 11
1, 643235, Control_c, 0, 67, 13
1, 643239, Note_on_c, 0, 92, 69
1, 643250, Control_c, 0, 67, 14
1, 643251, Note_on_c, 0, 91, 89
1, 643257, Note_off_c, 0, 92, 41
1, 643263, Note_on_c, 0, 63, 58
1, 643265, Control_c, 0, 67, 14
1, 643280, Control_c, 0, 67, 14
1, 643281, Note_on_c, 0, 67, 39
1, 643283, Note_on_c, 0, 58, 52
1, 643295, Control_c, 0, 67, 13
1, 643308, Note_off_c, 0, 63, 56
1, 643309, Note_off_c, 0, 67, 55
1, 643309, Control_c, 0, 67, 13
1, 643317, Note_off_c, 0, 58, 56
1, 643319, Note_on_c, 0, 87, 93
1, 643324, Control_c, 0, 67, 12
1, 643339, Control_c, 0, 64, 108
1, 643339, Control_c, 0, 67, 12
1, 643346, Note_off_c, 0, 91, 64
1, 643353, Control_c, 0, 64, 106
1, 643353, Control_c, 0, 67, 11
1, 643360, Note_off_c, 0, 94, 39
1, 643368, Control_c, 0, 64, 105
1, 643368, Control_c, 0, 67, 10
1, 643380, Note_on_c, 0, 82, 101
1, 643383, Control_c, 0, 64, 104
1, 643383, Control_c, 0, 67, 9
1, 643399, Control_c, 0, 64, 104
1, 643399, Control_c, 0, 67, 0
1, 643406, Note_off_c, 0, 87, 67
1, 643409, Note_on_c, 0, 63, 72
1, 643413, Note_on_c, 0, 58, 62
1, 643414, Note_on_c, 0, 67, 63
1, 643414, Control_c, 0, 64, 103
1, 643424, Note_off_c, 0, 82, 67
1, 643429, Control_c, 0, 64, 102
1, 643444, Control_c, 0, 64, 101
1, 643450, Note_off_c, 0, 58, 62
1, 643454, Note_off_c, 0, 63, 58
1, 643456, Note_off_c, 0, 67, 58
1, 643458, Control_c, 0, 64, 99
1, 643473, Control_c, 0, 64, 98
1, 643488, Control_c, 0, 64, 96
1, 643503, Control_c, 0, 64, 95
1, 643562, Note_on_c, 0, 63, 64
1, 643569, Note_on_c, 0, 58, 55
1, 643570, Note_on_c, 0, 67, 65
1, 643599, Note_off_c, 0, 67, 63
1, 643610, Note_off_c, 0, 63, 57
1, 643623, Note_off_c, 0, 58, 54
1, 643701, Note_on_c, 0, 67, 68
1, 643706, Note_on_c, 0, 58, 61
1, 643718, Note_on_c, 0, 63, 62
1, 643745, Note_off_c, 0, 63, 63
1, 643757, Note_off_c, 0, 67, 62
1, 643769, Note_off_c, 0, 58, 55
1, 643799, Control_c, 0, 64, 92
1, 643814, Control_c, 0, 64, 83
1, 643829, Control_c, 0, 64, 71
1, 643830, Note_on_c, 0, 89, 88
1, 643843, Control_c, 0, 64, 64
1, 643849, Note_on_c, 0, 68, 68
1, 643851, Note_on_c, 0, 62, 63
1, 643859, Note_on_c, 0, 58, 47
1, 643869, Note_on_c, 0, 91, 73
1, 643873, Control_c, 0, 64, 66
1, 643884, Note_off_c, 0, 89, 63
1, 643888, Control_c, 0, 64, 70
1, 643890, Note_off_c, 0, 62, 63
1, 643892, Note_off_c, 0, 58, 65
1, 643895, Note_off_c, 0, 68, 57
1, 643903, Control_c, 0, 64, 76
1, 643912, Note_off_c, 0, 91, 64
1, 643924, Control_c, 0, 64, 82
1, 643931, Note_on_c, 0, 89, 71
1, 643939, Control_c, 0, 64, 89
1, 643954, Control_c, 0, 64, 91
1, 643969, Control_c, 0, 64, 91
1, 643980, Note_on_c, 0, 91, 78
1, 643987, Note_off_c, 0, 89, 64
1, 643992, Note_on_c, 0, 58, 53
1, 643998, Note_on_c, 0, 68, 58
1, 644005, Note_on_c, 0, 62, 50
1, 644023, Note_off_c, 0, 58, 51
1, 644032, Note_off_c, 0, 91, 65
1, 644032, Note_off_c, 0, 62, 55
1, 644036, Note_off_c, 0, 68, 49
1, 644041, Note_on_c, 0, 89, 72
1, 644058, Control_c, 0, 64, 91
1, 644103, Control_c, 0, 64, 90
1, 644103, Control_c, 0, 67, 11
1, 644105, Note_off_c, 0, 89, 59
1, 644118, Control_c, 0, 67, 16
1, 644131, Note_on_c, 0, 87, 79
1, 644133, Control_c, 0, 67, 24
1, 644147, Note_on_c, 0, 62, 42
1, 644148, Control_c, 0, 64, 90
1, 644148, Control_c, 0, 67, 32
1, 644160, Note_on_c, 0, 68, 50
1, 644163, Control_c, 0, 64, 88
1, 644163, Control_c, 0, 67, 42
1, 644177, Control_c, 0, 64, 87
1, 644177, Control_c, 0, 67, 52
1, 644183, Note_off_c, 0, 62, 46
1, 644193, Control_c, 0, 64, 86
1, 644193, Control_c, 0, 67, 60
1, 644198, Poly_aftertouch_c, 0, 58, 127
1, 644208, Control_c, 0, 64, 85
1, 644208, Control_c, 0, 67, 68
1, 644209, Note_on_c, 0, 89, 82
1, 644211, Note_off_c, 0, 68, 59
1, 644221, Note_off_c, 0, 87, 64
1, 644222, Control_c, 0, 64, 84
1, 644222, Control_c, 0, 67, 74
1, 644234, Poly_aftertouch_c, 0, 58, 0
1, 644237, Control_c, 0, 64, 82
1, 644237, Control_c, 0, 67, 81
1, 644252, Control_c, 0, 64, 80
1, 644252, Control_c, 0, 67, 87
1, 644267, Control_c, 0, 64, 78
1, 644267, Control_c, 0, 67, 93
1, 644282, Control_c, 0, 64, 77
1, 644282, Control_c, 0, 67, 98
1, 644297, Control_c, 0, 64, 77
1, 644297, Control_c, 0, 67, 103
1, 644312, Control_c, 0, 64, 75
1, 644312, Control_c, 0, 67, 107
1, 644327, Control_c, 0, 64, 73
1, 644327, Control_c, 0, 67, 110
1, 644339, Note_off_c, 0, 89, 61
1, 644342, Control_c, 0, 64, 71
1, 644342, Control_c, 0, 67, 113
1, 644356, Control_c, 0, 64, 68
1, 644356, Control_c, 0, 67, 115
1, 644362, Note_on_c, 0, 91, 65
1, 644371, Control_c, 0, 64, 67
1, 644371, Control_c, 0, 67, 117
1, 644383, Note_on_c, 0, 67, 69
1, 644386, Control_c, 0, 64, 66
1, 644386, Control_c, 0, 67, 117
1, 644400, Control_c, 0, 64, 64
1, 644401, Note_on_c, 0, 63, 57
1, 644404, Note_on_c, 0, 82, 50
1, 644415, Control_c, 0, 64, 64
1, 644430, Control_c, 0, 64, 63
1, 644445, Control_c, 0, 64, 62
1, 644460, Control_c, 0, 64, 56
1, 644464, Note_off_c, 0, 82, 59
1, 644474, Control_c, 0, 64, 40
1, 644489, Control_c, 0, 64, 28
1, 644500, Note_on_c, 0, 84, 56
1, 644519, Control_c, 0, 64, 29
1, 644534, Control_c, 0, 64, 33
1, 644548, Note_off_c, 0, 84, 63
1, 644548, Control_c, 0, 64, 45
1, 644563, Control_c, 0, 64, 55
1, 644578, Note_on_c, 0, 82, 58
1, 644578, Control_c, 0, 64, 62
1, 644592, Control_c, 0, 64, 64
1, 644592, Control_c, 0, 67, 117
1, 644607, Control_c, 0, 64, 65
1, 644622, Control_c, 0, 64, 67
1, 644624, Note_off_c, 0, 82, 59
1, 644637, Control_c, 0, 64, 72
1, 644637, Control_c, 0, 67, 116
1, 644646, Note_on_c, 0, 84, 57
1, 644652, Control_c, 0, 64, 75
1, 644652, Control_c, 0, 67, 116
1, 644674, Control_c, 0, 64, 78
1, 644674, Control_c, 0, 67, 115
1, 644689, Control_c, 0, 64, 78
1, 644689, Control_c, 0, 67, 115
1, 644703, Note_off_c, 0, 84, 59
1, 644704, Note_off_c, 0, 91, 31
1, 644705, Note_off_c, 0, 67, 60
1, 644711, Note_on_c, 0, 72, 79
1, 644719, Control_c, 0, 64, 79
1, 644727, Note_on_c, 0, 82, 69
1, 644748, Control_c, 0, 64, 79
1, 644748, Control_c, 0, 67, 114
1, 644763, Control_c, 0, 64, 80
1, 644763, Control_c, 0, 67, 114
1, 644793, Control_c, 0, 64, 80
1, 644798, Note_on_c, 0, 84, 61
1, 644822, Control_c, 0, 67, 113
1, 644825, Note_off_c, 0, 82, 37
1, 644852, Control_c, 0, 67, 113
1, 644857, Note_off_c, 0, 84, 59
1, 644862, Note_on_c, 0, 87, 75
1, 644867, Control_c, 0, 67, 112
1, 644868, Note_on_c, 0, 70, 86
1, 644896, Control_c, 0, 64, 80
1, 644896, Control_c, 0, 67, 112
1, 644911, Control_c, 0, 64, 78
1, 644915, Note_off_c, 0, 72, 59
1, 644926, Control_c, 0, 64, 74
1, 644941, Control_c, 0, 64, 69
1, 644949, Note_on_c, 0, 84, 65
1, 644956, Control_c, 0, 64, 67
1, 644971, Control_c, 0, 64, 67
1, 644971, Control_c, 0, 67, 111
1, 644986, Control_c, 0, 64, 69
1, 644986, Control_c, 0, 67, 111
1, 645001, Control_c, 0, 64, 72
1, 645001, Control_c, 0, 67, 110
1, 645009, Note_off_c, 0, 84, 61
1, 645015, Control_c, 0, 64, 75
1, 645027, Note_on_c, 0, 82, 68
1, 645030, Control_c, 0, 64, 79
1, 645045, Control_c, 0, 64, 83
1, 645045, Control_c, 0, 67, 110
1, 645060, Control_c, 0, 64, 86
1, 645060, Control_c, 0, 67, 109
1, 645075, Control_c, 0, 64, 89
1, 645075, Control_c, 0, 67, 109
1, 645084, Note_off_c, 0, 82, 61
1, 645090, Control_c, 0, 64, 90
1, 645090, Control_c, 0, 67, 108
1, 645093, Note_on_c, 0, 84, 66
1, 645108, Note_off_c, 0, 70, 63
1, 645135, Control_c, 0, 64, 91
1, 645155, Note_off_c, 0, 84, 62
1, 645164, Note_on_c, 0, 67, 73
1, 645167, Note_on_c, 0, 82, 78
1, 645194, Control_c, 0, 67, 108
1, 645215, Note_off_c, 0, 63, 50
1, 645230, Note_on_c, 0, 84, 71
1, 645257, Note_off_c, 0, 82, 50
1, 645268, Note_off_c, 0, 87, 39
1, 645268, Control_c, 0, 67, 107
1, 645283, Control_c, 0, 64, 89
1, 645290, Note_off_c, 0, 67, 61
1, 645297, Control_c, 0, 64, 87
1, 645304, Note_off_c, 0, 84, 60
1, 645305, Note_on_c, 0, 86, 81
1, 645312, Control_c, 0, 64, 81
1, 645314, Note_on_c, 0, 82, 43
1, 645319, Note_on_c, 0, 65, 75
1, 645323, Note_on_c, 0, 58, 72
1, 645327, Control_c, 0, 64, 74
1, 645341, Control_c, 0, 64, 67
1, 645356, Control_c, 0, 64, 64
1, 645364, Note_off_c, 0, 82, 54
1, 645386, Control_c, 0, 64, 65
1, 645388, Note_on_c, 0, 84, 74
1, 645401, Control_c, 0, 64, 68
1, 645401, Control_c, 0, 67, 107
1, 645423, Control_c, 0, 64, 72
1, 645438, Control_c, 0, 64, 74
1, 645453, Control_c, 0, 64, 78
1, 645456, Note_off_c, 0, 86, 58
1, 645463, Note_on_c, 0, 82, 76
1, 645464, Note_off_c, 0, 84, 63
1, 645468, Control_c, 0, 64, 81
1, 645468, Control_c, 0, 67, 107
1, 645483, Control_c, 0, 64, 83
1, 645497, Control_c, 0, 64, 86
1, 645512, Control_c, 0, 64, 87
1, 645524, Note_off_c, 0, 58, 61
1, 645535, Note_on_c, 0, 84, 75
1, 645537, Note_off_c, 0, 82, 64
1, 645570, Control_c, 0, 64, 88
1, 645600, Note_on_c, 0, 82, 78
1, 645602, Note_off_c, 0, 84, 63
1, 645618, Note_off_c, 0, 65, 62
1, 645621, Note_on_c, 0, 72, 68
1, 645676, Note_on_c, 0, 84, 81
1, 645704, Control_c, 0, 64, 87
1, 645719, Control_c, 0, 64, 86
1, 645734, Control_c, 0, 64, 86
1, 645748, Note_off_c, 0, 72, 59
1, 645748, Control_c, 0, 67, 108
1, 645749, Note_on_c, 0, 92, 94
1, 645758, Note_on_c, 0, 70, 72
1, 645763, Control_c, 0, 67, 108
1, 645768, Note_off_c, 0, 84, 62
1, 645793, Control_c, 0, 64, 85
1, 645823, Control_c, 0, 67, 109
1, 645833, Note_on_c, 0, 84, 72
1, 645838, Note_off_c, 0, 82, 20
1, 645838, Control_c, 0, 67, 110
1, 645853, Control_c, 0, 67, 110
1, 645883, Control_c, 0, 67, 111
1, 645909, Note_off_c, 0, 84, 64
1, 645921, Note_on_c, 0, 82, 75
1, 645942, Control_c, 0, 67, 111
1, 645981, Note_off_c, 0, 92, 59
1, 645983, Note_off_c, 0, 82, 63
1, 645984, Note_on_c, 0, 84, 76
1, 645986, Control_c, 0, 64, 86
1, 646042, Note_off_c, 0, 84, 62
1, 646059, Note_on_c, 0, 82, 88
1, 646071, Note_on_c, 0, 65, 65
1, 646077, Note_off_c, 0, 70, 57
1, 646123, Note_on_c, 0, 84, 77
1, 646175, Note_off_c, 0, 82, 55
1, 646185, Note_off_c, 0, 65, 59
1, 646186, Control_c, 0, 64, 85
1, 646186, Control_c, 0, 67, 111
1, 646201, Control_c, 0, 64, 83
1, 646207, Note_on_c, 0, 91, 91
1, 646216, Control_c, 0, 64, 78
1, 646218, Note_on_c, 0, 67, 72
1, 646221, Note_on_c, 0, 63, 66
1, 646224, Note_off_c, 0, 84, 63
1, 646231, Control_c, 0, 64, 73
1, 646246, Control_c, 0, 64, 67
1, 646260, Control_c, 0, 64, 63
1, 646275, Control_c, 0, 64, 60
1, 646290, Control_c, 0, 64, 57
1, 646297, Note_on_c, 0, 84, 68
1, 646305, Control_c, 0, 64, 60
1, 646320, Control_c, 0, 64, 64
1, 646334, Control_c, 0, 64, 67
1, 646349, Control_c, 0, 64, 71
1, 646364, Control_c, 0, 64, 75
1, 646367, Note_on_c, 0, 82, 67
1, 646368, Note_off_c, 0, 84, 65
1, 646378, Control_c, 0, 64, 80
1, 646393, Control_c, 0, 64, 86
1, 646393, Control_c, 0, 67, 111
1, 646408, Control_c, 0, 64, 92
1, 646423, Control_c, 0, 64, 96
1, 646431, Note_on_c, 0, 84, 72
1, 646431, Note_off_c, 0, 82, 62
1, 646438, Control_c, 0, 64, 97
1, 646482, Control_c, 0, 64, 97
1, 646491, Note_on_c, 0, 72, 78
1, 646498, Note_off_c, 0, 67, 61
1, 646498, Note_off_c, 0, 84, 63
1, 646512, Note_on_c, 0, 82, 77
1, 646527, Control_c, 0, 67, 111
1, 646552, Note_off_c, 0, 91, 64
1, 646571, Control_c, 0, 67, 110
1, 646574, Note_on_c, 0, 84, 73
1, 646608, Note_off_c, 0, 82, 39
1, 646616, Control_c, 0, 64, 96
1, 646631, Control_c, 0, 64, 93
1, 646641, Note_on_c, 0, 87, 81
1, 646646, Control_c, 0, 64, 88
1, 646647, Note_off_c, 0, 84, 62
1, 646655, Note_on_c, 0, 70, 80
1, 646661, Control_c, 0, 64, 82
1, 646676, Control_c, 0, 64, 75
1, 646691, Control_c, 0, 64, 68
1, 646696, Note_off_c, 0, 72, 60
1, 646706, Control_c, 0, 64, 64
1, 646720, Control_c, 0, 64, 64
1, 646720, Control_c, 0, 67, 111
1, 646729, Note_on_c, 0, 84, 65
1, 646735, Control_c, 0, 64, 65
1, 646735, Control_c, 0, 67, 111
1, 646750, Control_c, 0, 64, 67
1, 646765, Control_c, 0, 64, 71
1, 646765, Control_c, 0, 67, 112
1, 646780, Control_c, 0, 64, 74
1, 646790, Note_off_c, 0, 84, 62
1, 646794, Control_c, 0, 64, 77
1, 646794, Control_c, 0, 67, 112
1, 646803, Note_on_c, 0, 82, 66
1, 646809, Control_c, 0, 64, 81
1, 646824, Control_c, 0, 64, 87
1, 646839, Control_c, 0, 64, 90
1, 646840, Note_off_c, 0, 70, 64
1, 646854, Control_c, 0, 64, 92
1, 646854, Control_c, 0, 67, 113
1, 646855, Note_off_c, 0, 82, 61
1, 646878, Note_on_c, 0, 84, 62
1, 646897, Note_off_c, 0, 63, 59
1, 646924, Note_off_c, 0, 84, 58
1, 646952, Note_on_c, 0, 67, 60
1, 646963, Note_on_c, 0, 82, 70
1, 646995, Note_off_c, 0, 67, 57
1, 647010, Note_off_c, 0, 82, 55
1, 647034, Note_on_c, 0, 84, 61
1, 647036, Note_off_c, 0, 87, 40
1, 647054, Control_c, 0, 64, 89
1, 647054, Control_c, 0, 67, 113
1, 647067, Control_c, 0, 64, 84
1, 647067, Control_c, 0, 67, 114
1, 647079, Note_off_c, 0, 84, 60
1, 647082, Control_c, 0, 64, 77
1, 647082, Control_c, 0, 67, 114
1, 647097, Note_on_c, 0, 58, 44
1, 647097, Control_c, 0, 64, 69
1, 647097, Control_c, 0, 67, 115
1, 647100, Note_on_c, 0, 86, 57
1, 647112, Control_c, 0, 64, 63
1, 647112, Control_c, 0, 67, 115
1, 647123, Note_on_c, 0, 65, 38
1, 647126, Control_c, 0, 64, 62
1, 647126, Control_c, 0, 67, 116
1, 647141, Control_c, 0, 64, 64
1, 647156, Control_c, 0, 64, 66
1, 647156, Control_c, 0, 67, 116
1, 647171, Control_c, 0, 64, 69
1, 647171, Control_c, 0, 67, 117
1, 647183, Note_on_c, 0, 84, 64
1, 647186, Control_c, 0, 64, 72
1, 647186, Control_c, 0, 67, 117
1, 647200, Note_off_c, 0, 86, 45
1, 647200, Control_c, 0, 64, 76
1, 647215, Control_c, 0, 64, 80
1, 647215, Control_c, 0, 67, 118
1, 647230, Control_c, 0, 64, 84
1, 647239, Note_off_c, 0, 84, 62
1, 647245, Control_c, 0, 64, 87
1, 647249, Note_on_c, 0, 82, 69
1, 647259, Note_off_c, 0, 58, 59
1, 647260, Control_c, 0, 64, 89
1, 647275, Control_c, 0, 64, 90
1, 647308, Note_off_c, 0, 82, 62
1, 647314, Note_off_c, 0, 65, 61
1, 647321, Note_on_c, 0, 84, 60
1, 647373, Note_off_c, 0, 84, 55
1, 647394, Control_c, 0, 64, 90
1, 647403, Note_on_c, 0, 72, 57
1, 647403, Note_on_c, 0, 82, 67
1, 647457, Note_off_c, 0, 82, 54
1, 647465, Note_off_c, 0, 72, 46
1, 647469, Control_c, 0, 64, 89
1, 647478, Note_on_c, 0, 84, 66
1, 647484, Control_c, 0, 64, 85
1, 647498, Control_c, 0, 64, 77
1, 647513, Control_c, 0, 64, 70
1, 647528, Control_c, 0, 64, 67
1, 647528, Control_c, 0, 67, 118
1, 647531, Note_off_c, 0, 84, 60
1, 647536, Note_on_c, 0, 70, 57
1, 647542, Note_on_c, 0, 92, 76
1, 647542, Control_c, 0, 64, 68
1, 647557, Control_c, 0, 64, 70
1, 647557, Control_c, 0, 67, 119
1, 647572, Control_c, 0, 64, 72
1, 647587, Control_c, 0, 64, 76
1, 647587, Control_c, 0, 67, 119
1, 647602, Control_c, 0, 64, 79
1, 647602, Control_c, 0, 67, 121
1, 647616, Control_c, 0, 64, 82
1, 647616, Control_c, 0, 67, 123
1, 647621, Note_on_c, 0, 84, 60
1, 647631, Control_c, 0, 64, 83
1, 647631, Control_c, 0, 67, 125
1, 647646, Control_c, 0, 64, 84
1, 647646, Control_c, 0, 67, 126
1, 647667, Note_off_c, 0, 92, 39
1, 647668, Control_c, 0, 67, 127
1, 647690, Note_off_c, 0, 84, 58
1, 647698, Control_c, 0, 64, 84
1, 647713, Control_c, 0, 64, 85
1, 647719, Note_off_c, 0, 70, 37
1, 647723, Note_on_c, 0, 82, 57
1, 647728, Control_c, 0, 64, 85
1, 647742, Control_c, 0, 64, 86
1, 647749, Note_off_c, 0, 82, 59
1, 647772, Note_on_c, 0, 84, 58
1, 647812, Note_off_c, 0, 84, 62
1, 647817, Note_on_c, 0, 65, 47
1, 647835, Note_on_c, 0, 82, 65
1, 647844, Note_off_c, 0, 65, 59
1, 647876, Control_c, 0, 64, 86
1, 647890, Control_c, 0, 64, 87
1, 647898, Note_off_c, 0, 82, 58
1, 647905, Control_c, 0, 64, 88
1, 647907, Note_on_c, 0, 84, 53
1, 647920, Control_c, 0, 64, 87
1, 647927, Note_off_c, 0, 84, 62
1, 647935, Control_c, 0, 64, 81
1, 647949, Control_c, 0, 64, 73
1, 647955, Note_on_c, 0, 63, 72
1, 647964, Control_c, 0, 64, 61
1, 647979, Control_c, 0, 64, 45
1, 647994, Control_c, 0, 64, 49
1, 648009, Control_c, 0, 64, 57
1, 648010, Note_off_c, 0, 63, 61
1, 648023, Control_c, 0, 64, 61
1, 648038, Control_c, 0, 64, 61
1, 648050, Note_on_c, 0, 67, 58
1, 648080, Note_off_c, 0, 67, 64
1, 648098, Control_c, 0, 64, 62
1, 648101, Note_on_c, 0, 91, 76
1, 648103, Note_on_c, 0, 68, 73
1, 648107, Note_on_c, 0, 87, 64
1, 648113, Control_c, 0, 64, 62
1, 648125, Note_off_c, 0, 87, 67
1, 648127, Control_c, 0, 64, 63
1, 648133, Note_off_c, 0, 91, 65
1, 648142, Control_c, 0, 64, 63
1, 648181, Note_off_c, 0, 68, 57
1, 648181, Note_on_c, 0, 70, 69
1, 648187, Control_c, 0, 64, 63
1, 648232, Control_c, 0, 64, 63
1, 648234, Note_off_c, 0, 70, 64
1, 648249, Note_on_c, 0, 72, 71
1, 648252, Note_on_c, 0, 87, 69
1, 648253, Note_on_c, 0, 91, 77
1, 648275, Note_off_c, 0, 87, 71
1, 648279, Note_off_c, 0, 72, 64
1, 648290, Note_off_c, 0, 91, 64
1, 648310, Note_on_c, 0, 74, 75
1, 648321, Control_c, 0, 64, 64
1, 648336, Control_c, 0, 64, 63
1, 648351, Control_c, 0, 64, 63
1, 648357, Note_off_c, 0, 74, 64
1, 648387, Note_on_c, 0, 75, 73
1, 648399, Note_on_c, 0, 91, 83
1, 648400, Note_on_c, 0, 87, 74
1, 648432, Note_off_c, 0, 87, 71
1, 648444, Note_off_c, 0, 75, 61
1, 648444, Note_off_c, 0, 91, 65
1, 648467, Note_on_c, 0, 74, 78
1, 648476, Control_c, 0, 64, 62
1, 648491, Control_c, 0, 64, 62
1, 648521, Control_c, 0, 64, 61
1, 648527, Note_off_c, 0, 74, 52
1, 648539, Note_on_c, 0, 72, 71
1, 648554, Note_on_c, 0, 87, 76
1, 648555, Note_on_c, 0, 91, 83
1, 648576, Note_off_c, 0, 87, 70
1, 648582, Note_off_c, 0, 72, 60
1, 648591, Note_off_c, 0, 91, 64
1, 648601, Note_on_c, 0, 70, 76
1, 648654, Control_c, 0, 64, 61
1, 648673, Note_off_c, 0, 70, 62
1, 648684, Control_c, 0, 64, 61
1, 648687, Note_on_c, 0, 87, 76
1, 648688, Note_on_c, 0, 91, 87
1, 648694, Note_on_c, 0, 68, 68
1, 648709, Note_off_c, 0, 87, 72
1, 648724, Note_off_c, 0, 91, 65
1, 648728, Control_c, 0, 67, 127
1, 648730, Note_off_c, 0, 68, 64
1, 648757, Note_on_c, 0, 67, 71
1, 648772, Control_c, 0, 67, 126
1, 648787, Control_c, 0, 64, 62
1, 648826, Note_on_c, 0, 68, 74
1, 648863, Note_off_c, 0, 67, 62
1, 648883, Note_off_c, 0, 68, 63
1, 648904, Note_on_c, 0, 72, 70
1, 648920, Control_c, 0, 64, 61
1, 648920, Control_c, 0, 67, 126
1, 648939, Note_off_c, 0, 72, 62
1, 648974, Note_on_c, 0, 87, 83
1, 648976, Note_on_c, 0, 89, 77
1, 648977, Note_on_c, 0, 74, 83
1, 648980, Control_c, 0, 67, 125
1, 648999, Note_off_c, 0, 87, 67
1, 649001, Note_off_c, 0, 89, 66
1, 649040, Control_c, 0, 64, 62
1, 649054, Note_off_c, 0, 74, 66
1, 649055, Note_on_c, 0, 75, 79
1, 649084, Control_c, 0, 64, 62
1, 649099, Control_c, 0, 64, 63
1, 649100, Note_off_c, 0, 75, 66
1, 649111, Note_on_c, 0, 77, 75
1, 649122, Note_on_c, 0, 89, 83
1, 649126, Note_on_c, 0, 87, 82
1, 649147, Note_off_c, 0, 87, 68
1, 649162, Note_off_c, 0, 77, 63
1, 649166, Control_c, 0, 64, 63
1, 649170, Note_off_c, 0, 89, 63
1, 649179, Note_on_c, 0, 79, 81
1, 649181, Control_c, 0, 64, 64
1, 649234, Note_off_c, 0, 79, 63
1, 649254, Note_on_c, 0, 80, 76
1, 649269, Control_c, 0, 64, 64
1, 649276, Note_on_c, 0, 89, 90
1, 649281, Note_on_c, 0, 87, 82
1, 649284, Control_c, 0, 67, 125
1, 649299, Control_c, 0, 67, 124
1, 649302, Note_off_c, 0, 87, 69
1, 649304, Note_off_c, 0, 80, 63
1, 649314, Control_c, 0, 67, 123
1, 649316, Note_off_c, 0, 89, 63
1, 649323, Note_on_c, 0, 79, 84
1, 649329, Control_c, 0, 67, 122
1, 649344, Control_c, 0, 64, 65
1, 649344, Control_c, 0, 67, 120
1, 649359, Control_c, 0, 64, 65
1, 649359, Control_c, 0, 67, 117
1, 649373, Control_c, 0, 67, 113
1, 649385, Note_off_c, 0, 79, 61
1, 649388, Control_c, 0, 67, 107
1, 649393, Note_on_c, 0, 77, 78
1, 649403, Control_c, 0, 67, 101
1, 649418, Control_c, 0, 64, 66
1, 649418, Control_c, 0, 67, 95
1, 649419, Note_on_c, 0, 87, 88
1, 649427, Note_on_c, 0, 89, 74
1, 649433, Control_c, 0, 64, 68
1, 649433, Control_c, 0, 67, 89
1, 649448, Control_c, 0, 64, 71
1, 649448, Control_c, 0, 67, 83
1, 649452, Note_on_c, 0, 75, 80
1, 649457, Note_off_c, 0, 77, 63
1, 649458, Note_off_c, 0, 89, 61
1, 649462, Control_c, 0, 64, 72
1, 649462, Control_c, 0, 67, 76
1, 649463, Note_off_c, 0, 87, 65
1, 649477, Control_c, 0, 64, 73
1, 649477, Control_c, 0, 67, 69
1, 649492, Control_c, 0, 67, 63
1, 649507, Control_c, 0, 67, 57
1, 649521, Control_c, 0, 67, 53
1, 649536, Control_c, 0, 67, 50
1, 649537, Note_off_c, 0, 75, 64
1, 649546, Note_on_c, 0, 74, 65
1, 649551, Control_c, 0, 67, 48
1, 649555, Note_on_c, 0, 87, 87
1, 649558, Note_on_c, 0, 89, 81
1, 649566, Control_c, 0, 67, 46
1, 649581, Control_c, 0, 64, 73
1, 649581, Control_c, 0, 67, 45
1, 649585, Note_on_c, 0, 72, 79
1, 649592, Note_off_c, 0, 74, 64
1, 649595, Control_c, 0, 64, 74
1, 649595, Control_c, 0, 67, 43
1, 649608, Note_off_c, 0, 89, 62
1, 649610, Control_c, 0, 64, 76
1, 649610, Control_c, 0, 67, 40
1, 649618, Note_off_c, 0, 72, 65
1, 649624, Note_off_c, 0, 87, 64
1, 649625, Control_c, 0, 64, 78
1, 649625, Control_c, 0, 67, 30
1, 649640, Control_c, 0, 64, 77
1, 649640, Control_c, 0, 67, 14
1, 649655, Control_c, 0, 64, 71
1, 649655, Control_c, 0, 67, 0
1, 649669, Control_c, 0, 64, 56
1, 649684, Control_c, 0, 64, 0
1, 649691, Note_on_c, 0, 70, 80
1, 649713, Control_c, 0, 64, 50
1, 649728, Control_c, 0, 64, 65
1, 649738, Note_off_c, 0, 70, 64
1, 649743, Control_c, 0, 64, 72
1, 649758, Control_c, 0, 64, 81
1, 649767, Note_on_c, 0, 58, 73
1, 649773, Control_c, 0, 64, 92
1, 649789, Control_c, 0, 64, 96
1, 649803, Control_c, 0, 64, 97
1, 649818, Control_c, 0, 64, 98
1, 649833, Control_c, 0, 64, 99
1, 649836, Note_off_c, 0, 58, 62
1, 649839, Note_on_c, 0, 63, 72
1, 649848, Control_c, 0, 64, 100
1, 649851, Note_on_c, 0, 87, 85
1, 649851, Note_on_c, 0, 91, 82
1, 649863, Control_c, 0, 64, 101
1, 649876, Note_off_c, 0, 87, 66
1, 649878, Control_c, 0, 64, 102
1, 649881, Note_off_c, 0, 91, 64
1, 649892, Control_c, 0, 64, 102
1, 649904, Note_off_c, 0, 63, 61
1, 649907, Control_c, 0, 64, 103
1, 649924, Note_on_c, 0, 67, 76
1, 649930, Control_c, 0, 64, 105
1, 649944, Control_c, 0, 64, 107
1, 649959, Control_c, 0, 64, 114
1, 649967, Note_off_c, 0, 67, 57
1, 649974, Control_c, 0, 64, 127
1, 649986, Note_on_c, 0, 70, 83
1, 650001, Note_on_c, 0, 91, 88
1, 650003, Note_on_c, 0, 87, 88
1, 650011, Note_off_c, 0, 70, 64
1, 650047, Note_off_c, 0, 87, 64
1, 650047, Note_off_c, 0, 91, 66
1, 650080, Note_on_c, 0, 75, 79
1, 650144, Note_on_c, 0, 91, 101
1, 650145, Note_off_c, 0, 75, 63
1, 650147, Note_on_c, 0, 79, 82
1, 650147, Note_on_c, 0, 87, 97
1, 650181, Note_off_c, 0, 87, 62
1, 650187, Note_off_c, 0, 91, 66
1, 650219, Note_off_c, 0, 79, 60
1, 650241, Note_on_c, 0, 75, 80
1, 650286, Note_on_c, 0, 91, 98
1, 650288, Note_on_c, 0, 87, 93
1, 650292, Note_on_c, 0, 82, 84
1, 650300, Note_off_c, 0, 75, 62
1, 650325, Note_off_c, 0, 87, 68
1, 650334, Note_off_c, 0, 91, 67
1, 650362, Note_on_c, 0, 79, 79
1, 650366, Note_off_c, 0, 82, 64
1, 650418, Note_on_c, 0, 75, 84
1, 650429, Note_on_c, 0, 91, 96
1, 650433, Note_on_c, 0, 87, 95
1, 650453, Note_off_c, 0, 79, 56
1, 650476, Note_off_c, 0, 87, 65
1, 650478, Note_on_c, 0, 70, 83
1, 650491, Note_off_c, 0, 91, 67
1, 650494, Note_off_c, 0, 75, 62
1, 650524, Note_off_c, 0, 70, 63
1, 650564, Poly_aftertouch_c, 0, 73, 0
1, 650566, Control_c, 0, 64, 87
1, 650572, Note_on_c, 0, 77, 77
1, 650577, Note_on_c, 0, 70, 72
1, 650577, Note_on_c, 0, 86, 96
1, 650577, Note_on_c, 0, 89, 102
1, 650582, Control_c, 0, 64, 67
1, 650597, Control_c, 0, 64, 0
1, 650625, Note_off_c, 0, 86, 68
1, 650627, Control_c, 0, 64, 55
1, 650632, Note_off_c, 0, 77, 64
1, 650634, Note_off_c, 0, 89, 58
1, 650641, Control_c, 0, 64, 67
1, 650655, Note_on_c, 0, 79, 84
1, 650664, Control_c, 0, 64, 76
1, 650679, Control_c, 0, 64, 90
1, 650694, Control_c, 0, 64, 106
1, 650709, Control_c, 0, 64, 127
1, 650715, Note_off_c, 0, 79, 62
1, 650727, Note_on_c, 0, 77, 73
1, 650753, Note_on_c, 0, 86, 77
1, 650755, Note_on_c, 0, 89, 86
1, 650758, Note_off_c, 0, 77, 64
1, 650785, Note_on_c, 0, 79, 83
1, 650796, Note_off_c, 0, 89, 64
1, 650798, Note_off_c, 0, 86, 65
1, 650825, Note_off_c, 0, 79, 58
1, 650846, Note_on_c, 0, 77, 65
1, 650885, Note_off_c, 0, 77, 63
1, 650887, Note_on_c, 0, 79, 83
1, 650891, Note_on_c, 0, 89, 96
1, 650899, Note_on_c, 0, 86, 81
1, 650927, Note_off_c, 0, 86, 63
1, 650928, Note_off_c, 0, 79, 62
1, 650933, Note_off_c, 0, 89, 63
1, 650944, Note_on_c, 0, 77, 60
1, 650989, Note_on_c, 0, 79, 86
1, 650989, Note_off_c, 0, 77, 62
1, 651034, Note_off_c, 0, 79, 63
1, 651039, Note_on_c, 0, 89, 94
1, 651044, Note_on_c, 0, 86, 81
1, 651046, Note_on_c, 0, 77, 52
1, 651080, Note_off_c, 0, 86, 61
1, 651080, Note_off_c, 0, 89, 64
1, 651085, Note_off_c, 0, 77, 64
1, 651085, Note_on_c, 0, 79, 80
1, 651127, Note_off_c, 0, 79, 63
1, 651140, Note_on_c, 0, 77, 62
1, 651186, Note_off_c, 0, 77, 61
1, 651188, Note_on_c, 0, 79, 87
1, 651190, Note_on_c, 0, 89, 90
1, 651192, Note_on_c, 0, 86, 80
1, 651224, Note_off_c, 0, 86, 63
1, 651231, Note_off_c, 0, 89, 62
1, 651231, Note_off_c, 0, 79, 64
1, 651272, Note_on_c, 0, 77, 32
1, 651305, Note_off_c, 0, 77, 54
1, 651312, Note_on_c, 0, 79, 77
1, 651346, Control_c, 0, 67, 12
1, 651356, Note_on_c, 0, 89, 85
1, 651358, Note_on_c, 0, 86, 67
1, 651360, Control_c, 0, 67, 19
1, 651368, Note_off_c, 0, 79, 61
1, 651375, Control_c, 0, 67, 30
1, 651378, Note_off_c, 0, 70, 42
1, 651382, Note_on_c, 0, 77, 59
1, 651383, Note_off_c, 0, 89, 61
1, 651384, Note_off_c, 0, 86, 69
1, 651391, Control_c, 0, 67, 43
1, 651413, Control_c, 0, 67, 56
1, 651424, Note_off_c, 0, 77, 63
1, 651428, Control_c, 0, 67, 65
1, 651443, Control_c, 0, 67, 75
1, 651458, Control_c, 0, 67, 87
1, 651472, Control_c, 0, 67, 97
1, 651487, Control_c, 0, 67, 106
1, 651502, Control_c, 0, 67, 111
1, 651517, Control_c, 0, 67, 115
1, 651532, Control_c, 0, 67, 119
1, 651547, Control_c, 0, 64, 114
1, 651547, Control_c, 0, 67, 122
1, 651561, Control_c, 0, 64, 105
1, 651561, Control_c, 0, 67, 127
1, 651576, Control_c, 0, 64, 100
1, 651576, Control_c, 0, 67, 127
1, 651590, Control_c, 0, 64, 95
1, 651605, Control_c, 0, 64, 88
1, 651620, Control_c, 0, 64, 79
1, 651635, Control_c, 0, 64, 69
1, 651637, Note_on_c, 0, 70, 60
1, 651650, Control_c, 0, 64, 61
1, 651664, Control_c, 0, 64, 50
1, 651679, Control_c, 0, 64, 40
1, 651694, Control_c, 0, 64, 41
1, 651708, Control_c, 0, 64, 50
1, 651723, Control_c, 0, 64, 62
1, 651738, Control_c, 0, 64, 67
1, 651743, Note_on_c, 0, 76, 49
1, 651753, Control_c, 0, 64, 72
1, 651768, Control_c, 0, 64, 77
1, 651782, Control_c, 0, 64, 82
1, 651797, Control_c, 0, 64, 86
1, 651803, Note_off_c, 0, 70, 51
1, 651812, Control_c, 0, 64, 89
1, 651813, Note_on_c, 0, 77, 52
1, 651833, Note_off_c, 0, 76, 59
1, 651842, Control_c, 0, 64, 89
1, 651846, Note_off_c, 0, 77, 66
1, 651874, Note_on_c, 0, 79, 65
1, 651929, Note_off_c, 0, 79, 58
1, 651937, Note_on_c, 0, 97, 72
1, 651940, Note_on_c, 0, 85, 66
1, 651949, Note_on_c, 0, 77, 44
1, 651976, Control_c, 0, 64, 89
1, 651990, Control_c, 0, 64, 87
1, 652005, Control_c, 0, 64, 82
1, 652006, Note_off_c, 0, 77, 61
1, 652012, Note_on_c, 0, 76, 44
1, 652020, Control_c, 0, 64, 73
1, 652035, Control_c, 0, 64, 65
1, 652050, Control_c, 0, 64, 46
1, 652060, Note_off_c, 0, 76, 61
1, 652064, Control_c, 0, 64, 39
1, 652079, Control_c, 0, 64, 51
1, 652094, Control_c, 0, 64, 62
1, 652104, Note_on_c, 0, 68, 65
1, 652108, Control_c, 0, 64, 66
1, 652123, Control_c, 0, 64, 70
1, 652138, Control_c, 0, 64, 76
1, 652161, Control_c, 0, 64, 87
1, 652172, Note_off_c, 0, 68, 61
1, 652176, Control_c, 0, 64, 96
1, 652191, Control_c, 0, 64, 103
1, 652206, Control_c, 0, 64, 109
1, 652217, Note_on_c, 0, 77, 27
1, 652220, Control_c, 0, 64, 122
1, 652231, Note_off_c, 0, 85, 36
1, 652235, Control_c, 0, 64, 127
1, 652251, Note_on_c, 0, 79, 56
1, 652256, Note_off_c, 0, 77, 52
1, 652283, Note_off_c, 0, 79, 63
1, 652298, Note_on_c, 0, 80, 60
1, 652330, Note_off_c, 0, 80, 62
1, 652334, Note_on_c, 0, 94, 35
1, 652369, Note_on_c, 0, 79, 51
1, 652374, Note_off_c, 0, 97, 63
1, 652379, Note_on_c, 0, 96, 75
1, 652398, Note_on_c, 0, 84, 62
1, 652408, Note_off_c, 0, 79, 59
1, 652415, Note_on_c, 0, 77, 51
1, 652416, Note_off_c, 0, 96, 62
1, 652424, Note_off_c, 0, 84, 67
1, 652438, Note_off_c, 0, 77, 61
1, 652441, Note_off_c, 0, 94, 51
1, 652442, Poly_aftertouch_c, 0, 92, 127
1, 652469, Poly_aftertouch_c, 0, 92, 0
1, 652549, Note_on_c, 0, 56, 65
1, 652561, Control_c, 0, 64, 116
1, 652576, Control_c, 0, 64, 89
1, 652591, Control_c, 0, 64, 71
1, 652605, Control_c, 0, 64, 54
1, 652620, Control_c, 0, 64, 28
1, 652635, Control_c, 0, 64, 44
1, 652639, Note_on_c, 0, 62, 54
1, 652650, Control_c, 0, 64, 62
1, 652665, Control_c, 0, 64, 68
1, 652679, Control_c, 0, 64, 73
1, 652694, Control_c, 0, 64, 80
1, 652701, Note_on_c, 0, 63, 62
1, 652709, Control_c, 0, 64, 87
1, 652724, Control_c, 0, 64, 93
1, 652736, Note_off_c, 0, 62, 32
1, 652739, Control_c, 0, 64, 95
1, 652753, Note_off_c, 0, 63, 58
1, 652780, Note_on_c, 0, 65, 52
1, 652818, Note_on_c, 0, 83, 83
1, 652837, Note_off_c, 0, 65, 42
1, 652845, Note_off_c, 0, 56, 41
1, 652846, Note_on_c, 0, 63, 58
1, 652852, Note_on_c, 0, 71, 49
1, 652927, Note_off_c, 0, 63, 61
1, 652939, Control_c, 0, 64, 93
1, 652952, Note_on_c, 0, 62, 37
1, 652954, Control_c, 0, 64, 85
1, 652968, Control_c, 0, 64, 75
1, 652980, Note_off_c, 0, 62, 59
1, 652984, Control_c, 0, 64, 64
1, 652993, Note_on_c, 0, 55, 72
1, 652999, Control_c, 0, 64, 32
1, 653014, Control_c, 0, 64, 0
1, 653029, Control_c, 0, 64, 43
1, 653037, Note_off_c, 0, 71, 62
1, 653043, Control_c, 0, 64, 62
1, 653058, Control_c, 0, 64, 67
1, 653067, Note_off_c, 0, 55, 57
1, 653073, Control_c, 0, 64, 73
1, 653088, Note_on_c, 0, 63, 61
1, 653088, Control_c, 0, 64, 80
1, 653103, Control_c, 0, 64, 87
1, 653118, Control_c, 0, 64, 88
1, 653132, Control_c, 0, 64, 88
1, 653147, Control_c, 0, 64, 90
1, 653151, Note_off_c, 0, 63, 60
1, 653153, Note_on_c, 0, 65, 57
1, 653162, Control_c, 0, 64, 91
1, 653177, Control_c, 0, 64, 92
1, 653211, Note_on_c, 0, 67, 63
1, 653225, Note_off_c, 0, 65, 0
1, 653244, Note_on_c, 0, 65, 28
1, 653263, Note_on_c, 0, 82, 73
1, 653267, Note_off_c, 0, 83, 65
1, 653273, Note_on_c, 0, 70, 55
1, 653276, Note_off_c, 0, 67, 39
1, 653290, Note_off_c, 0, 82, 65
1, 653295, Note_off_c, 0, 70, 62
1, 653311, Note_off_c, 0, 65, 62
1, 653319, Note_on_c, 0, 63, 52
1, 653340, Note_off_c, 0, 63, 63
1, 653384, Control_c, 0, 64, 91
1, 653399, Control_c, 0, 64, 85
1, 653414, Control_c, 0, 64, 74
1, 653428, Control_c, 0, 64, 61
1, 653443, Note_on_c, 0, 46, 68
1, 653443, Control_c, 0, 64, 0
1, 653473, Control_c, 0, 64, 45
1, 653487, Control_c, 0, 64, 63
1, 653502, Control_c, 0, 64, 69
1, 653517, Control_c, 0, 64, 77
1, 653532, Control_c, 0, 64, 86
1, 653547, Control_c, 0, 64, 94
1, 653549, Note_off_c, 0, 46, 56
1, 653559, Note_on_c, 0, 52, 43
1, 653562, Control_c, 0, 64, 96
1, 653577, Control_c, 0, 64, 96
1, 653584, Note_on_c, 0, 53, 50
1, 653597, Note_off_c, 0, 52, 62
1, 653606, Control_c, 0, 64, 96
1, 653641, Note_off_c, 0, 53, 65
1, 653665, Note_on_c, 0, 55, 59
1, 653708, Note_on_c, 0, 73, 86
1, 653714, Note_off_c, 0, 55, 57
1, 653717, Note_on_c, 0, 61, 73
1, 653726, Note_on_c, 0, 53, 39
1, 653747, Control_c, 0, 64, 95
1, 653761, Control_c, 0, 64, 94
1, 653776, Control_c, 0, 64, 88
1, 653788, Note_on_c, 0, 52, 55
1, 653792, Note_off_c, 0, 53, 56
1, 653792, Control_c, 0, 64, 79
1, 653808, Control_c, 0, 64, 68
1, 653823, Control_c, 0, 64, 40
1, 653838, Control_c, 0, 64, 0
1, 653841, Note_off_c, 0, 52, 62
1, 653867, Control_c, 0, 64, 50
1, 653881, Note_on_c, 0, 44, 70
1, 653882, Control_c, 0, 64, 63
1, 653897, Control_c, 0, 64, 67
1, 653911, Control_c, 0, 64, 72
1, 653926, Control_c, 0, 64, 77
1, 653941, Control_c, 0, 64, 83
1, 653947, Note_off_c, 0, 44, 62
1, 653952, Note_on_c, 0, 53, 50
1, 653956, Control_c, 0, 64, 86
1, 653971, Control_c, 0, 64, 88
1, 654005, Note_off_c, 0, 61, 37
1, 654024, Note_off_c, 0, 53, 62
1, 654038, Note_on_c, 0, 55, 45
1, 654068, Note_off_c, 0, 55, 52
1, 654070, Note_on_c, 0, 56, 65
1, 654074, Control_c, 0, 64, 87
1, 654119, Control_c, 0, 64, 87
1, 654127, Note_off_c, 0, 56, 48
1, 654144, Note_on_c, 0, 55, 52
1, 654146, Note_off_c, 0, 73, 61
1, 654149, Control_c, 0, 64, 86
1, 654156, Note_on_c, 0, 72, 73
1, 654164, Control_c, 0, 64, 85
1, 654167, Note_on_c, 0, 60, 62
1, 654185, Note_off_c, 0, 55, 65
1, 654186, Note_off_c, 0, 72, 62
1, 654198, Note_off_c, 0, 60, 67
1, 654203, Note_on_c, 0, 53, 44
1, 654208, Control_c, 0, 64, 85
1, 654234, Note_off_c, 0, 53, 55
1, 654267, Control_c, 0, 64, 84
1, 654282, Control_c, 0, 64, 81
1, 654297, Control_c, 0, 64, 72
1, 654311, Control_c, 0, 64, 50
1, 654326, Control_c, 0, 64, 0
1, 654328, Note_on_c, 0, 32, 72
1, 654385, Control_c, 0, 64, 45
1, 654408, Control_c, 0, 64, 62
1, 654422, Note_on_c, 0, 38, 55
1, 654423, Control_c, 0, 64, 66
1, 654438, Control_c, 0, 64, 71
1, 654453, Control_c, 0, 64, 74
1, 654467, Control_c, 0, 64, 75
1, 654468, Note_on_c, 0, 39, 58
1, 654477, Note_off_c, 0, 38, 61
1, 654497, Control_c, 0, 64, 74
1, 654511, Control_c, 0, 64, 74
1, 654515, Note_off_c, 0, 39, 63
1, 654526, Control_c, 0, 64, 73
1, 654536, Note_on_c, 0, 41, 59
1, 654546, Note_off_c, 0, 32, 34
1, 654571, Control_c, 0, 64, 72
1, 654587, Control_c, 0, 64, 72
1, 654588, Note_off_c, 0, 41, 56
1, 654602, Control_c, 0, 64, 71
1, 654611, Note_on_c, 0, 59, 78
1, 654617, Note_on_c, 0, 39, 59
1, 654626, Note_on_c, 0, 47, 60
1, 654646, Control_c, 0, 64, 71
1, 654661, Control_c, 0, 64, 72
1, 654692, Note_on_c, 0, 38, 52
1, 654700, Note_off_c, 0, 39, 39
1, 654705, Control_c, 0, 64, 71
1, 654720, Control_c, 0, 64, 65
1, 654728, Note_off_c, 0, 38, 64
1, 654734, Control_c, 0, 64, 0
1, 654763, Note_on_c, 0, 31, 77
1, 654808, Control_c, 0, 64, 54
1, 654823, Control_c, 0, 64, 65
1, 654831, Note_off_c, 0, 31, 54
1, 654838, Control_c, 0, 64, 68
1, 654845, Note_on_c, 0, 39, 63
1, 654853, Control_c, 0, 64, 69
1, 654867, Note_off_c, 0, 47, 60
1, 654868, Control_c, 0, 64, 68
1, 654870, Note_off_c, 0, 59, 52
1, 654882, Control_c, 0, 64, 68
1, 654897, Control_c, 0, 64, 67
1, 654921, Note_on_c, 0, 41, 54
1, 654922, Note_off_c, 0, 39, 58
1, 654927, Control_c, 0, 64, 67
1, 654957, Control_c, 0, 64, 66
1, 654960, Note_off_c, 0, 41, 61
1, 654986, Note_on_c, 0, 43, 52
1, 655025, Note_off_c, 0, 43, 60
1, 655033, Note_on_c, 0, 46, 59
1, 655034, Note_on_c, 0, 58, 63
1, 655054, Note_on_c, 0, 41, 46
1, 655061, Control_c, 0, 64, 67
1, 655061, Note_off_c, 0, 46, 64
1, 655061, Note_off_c, 0, 58, 68
1, 655075, Control_c, 0, 64, 68
1, 655085, Note_off_c, 0, 41, 62
1, 655090, Control_c, 0, 64, 70
1, 655094, Note_on_c, 0, 39, 53
1, 655105, Control_c, 0, 64, 71
1, 655128, Note_off_c, 0, 39, 62
1, 655134, Control_c, 0, 64, 67
1, 655156, Control_c, 0, 64, 52
1, 655171, Control_c, 0, 64, 0
1, 655193, Note_on_c, 0, 31, 74
1, 655260, Control_c, 0, 64, 21
1, 655275, Control_c, 0, 64, 33
1, 655285, Note_off_c, 0, 31, 63
1, 655290, Control_c, 0, 64, 32
1, 655291, Note_on_c, 0, 34, 64
1, 655305, Control_c, 0, 64, 27
1, 655330, Note_on_c, 0, 58, 77
1, 655332, Note_on_c, 0, 70, 82
1, 655334, Control_c, 0, 64, 28
1, 655349, Control_c, 0, 64, 31
1, 655352, Note_off_c, 0, 58, 69
1, 655354, Note_off_c, 0, 70, 68
1, 655361, Note_on_c, 0, 39, 54
1, 655364, Note_off_c, 0, 34, 60
1, 655401, Note_off_c, 0, 39, 62
1, 655423, Note_on_c, 0, 43, 57
1, 655425, Control_c, 0, 64, 33
1, 655439, Control_c, 0, 64, 35
1, 655469, Control_c, 0, 64, 36
1, 655478, Note_off_c, 0, 43, 58
1, 655482, Note_on_c, 0, 58, 77
1, 655483, Note_on_c, 0, 70, 81
1, 655484, Control_c, 0, 64, 45
1, 655493, Note_on_c, 0, 39, 48
1, 655499, Control_c, 0, 64, 49
1, 655500, Note_on_c, 0, 34, 69
1, 655502, Note_off_c, 0, 58, 70
1, 655503, Note_off_c, 0, 70, 69
1, 655528, Control_c, 0, 64, 48
1, 655532, Note_off_c, 0, 39, 60
1, 655543, Control_c, 0, 64, 48
1, 655549, Note_off_c, 0, 34, 60
1, 655572, Control_c, 0, 64, 50
1, 655587, Control_c, 0, 64, 50
1, 655602, Control_c, 0, 64, 50
1, 655617, Note_on_c, 0, 36, 89
1, 655631, Control_c, 0, 64, 51
1, 655646, Control_c, 0, 64, 54
1, 655676, Control_c, 0, 64, 52
1, 655690, Control_c, 0, 64, 49
1, 655702, Note_off_c, 0, 36, 62
1, 655705, Control_c, 0, 64, 47
1, 655709, Note_on_c, 0, 39, 64
1, 655720, Control_c, 0, 64, 46
1, 655735, Control_c, 0, 64, 43
1, 655749, Note_on_c, 0, 43, 70
1, 655750, Control_c, 0, 64, 42
1, 655761, Note_on_c, 0, 56, 83
1, 655761, Note_on_c, 0, 68, 83
1, 655765, Control_c, 0, 64, 40
1, 655777, Note_off_c, 0, 39, 60
1, 655779, Control_c, 0, 64, 39
1, 655796, Note_off_c, 0, 56, 61
1, 655796, Note_off_c, 0, 68, 62
1, 655806, Note_off_c, 0, 43, 64
1, 655829, Note_on_c, 0, 48, 57
1, 655854, Control_c, 0, 64, 37
1, 655854, Control_c, 0, 67, 125
1, 655869, Control_c, 0, 64, 36
1, 655869, Control_c, 0, 67, 123
1, 655877, Note_off_c, 0, 48, 50
1, 655883, Control_c, 0, 67, 121
1, 655893, Note_on_c, 0, 43, 60
1, 655905, Control_c, 0, 67, 119
1, 655915, Note_on_c, 0, 67, 93
1, 655917, Note_on_c, 0, 55, 82
1, 655920, Control_c, 0, 67, 118
1, 655935, Control_c, 0, 64, 37
1, 655935, Control_c, 0, 67, 116
1, 655937, Note_on_c, 0, 39, 65
1, 655942, Note_off_c, 0, 43, 65
1, 655945, Note_off_c, 0, 55, 66
1, 655950, Control_c, 0, 64, 40
1, 655950, Control_c, 0, 67, 115
1, 655955, Note_off_c, 0, 67, 63
1, 655964, Control_c, 0, 64, 44
1, 655964, Control_c, 0, 67, 114
1, 655975, Note_off_c, 0, 39, 62
1, 655979, Control_c, 0, 64, 44
1, 655979, Control_c, 0, 67, 114
1, 655994, Control_c, 0, 64, 27
1, 655994, Control_c, 0, 67, 113
1, 656009, Control_c, 0, 64, 0
1, 656057, Note_on_c, 0, 32, 83
1, 656068, Control_c, 0, 64, 51
1, 656068, Control_c, 0, 67, 114
1, 656082, Control_c, 0, 64, 61
1, 656097, Control_c, 0, 64, 63
1, 656112, Control_c, 0, 64, 63
1, 656154, Note_off_c, 0, 32, 62
1, 656161, Note_on_c, 0, 36, 60
1, 656171, Control_c, 0, 64, 63
1, 656171, Control_c, 0, 67, 113
1, 656187, Control_c, 0, 64, 62
1, 656187, Control_c, 0, 67, 113
1, 656201, Note_on_c, 0, 67, 89
1, 656202, Control_c, 0, 64, 62
1, 656202, Control_c, 0, 67, 112
1, 656203, Note_on_c, 0, 55, 78
1, 656204, Note_on_c, 0, 41, 62
1, 656217, Control_c, 0, 67, 112
1, 656229, Note_off_c, 0, 55, 68
1, 656232, Control_c, 0, 67, 111
1, 656233, Note_off_c, 0, 67, 62
1, 656242, Note_off_c, 0, 36, 60
1, 656247, Control_c, 0, 64, 61
1, 656247, Control_c, 0, 67, 110
1, 656261, Control_c, 0, 67, 109
1, 656264, Note_off_c, 0, 41, 63
1, 656275, Note_on_c, 0, 44, 70
1, 656276, Control_c, 0, 67, 108
1, 656291, Control_c, 0, 67, 107
1, 656305, Control_c, 0, 67, 106
1, 656320, Control_c, 0, 64, 60
1, 656320, Control_c, 0, 67, 106
1, 656335, Control_c, 0, 64, 59
1, 656340, Note_off_c, 0, 44, 58
1, 656344, Note_on_c, 0, 53, 81
1, 656346, Note_on_c, 0, 65, 83
1, 656350, Control_c, 0, 67, 105
1, 656357, Note_on_c, 0, 41, 52
1, 656365, Control_c, 0, 64, 60
1, 656365, Control_c, 0, 67, 105
1, 656371, Note_off_c, 0, 53, 71
1, 656371, Note_off_c, 0, 65, 65
1, 656375, Note_on_c, 0, 36, 67
1, 656379, Control_c, 0, 64, 61
1, 656388, Note_off_c, 0, 41, 62
1, 656394, Control_c, 0, 64, 61
1, 656424, Control_c, 0, 64, 60
1, 656427, Note_off_c, 0, 36, 59
1, 656439, Control_c, 0, 64, 51
1, 656453, Control_c, 0, 64, 0
1, 656453, Control_c, 0, 67, 105
1, 656468, Control_c, 0, 67, 106
1, 656477, Note_on_c, 0, 34, 84
1, 656483, Control_c, 0, 67, 106
1, 656498, Control_c, 0, 67, 107
1, 656513, Control_c, 0, 64, 33
1, 656513, Control_c, 0, 67, 107
1, 656528, Control_c, 0, 64, 59
1, 656543, Control_c, 0, 64, 64
1, 656557, Control_c, 0, 64, 66
1, 656571, Note_on_c, 0, 41, 66
1, 656571, Note_off_c, 0, 34, 61
1, 656572, Control_c, 0, 64, 67
1, 656572, Control_c, 0, 67, 108
1, 656587, Control_c, 0, 64, 68
1, 656587, Control_c, 0, 67, 108
1, 656617, Control_c, 0, 64, 68
1, 656621, Note_on_c, 0, 44, 67
1, 656624, Note_on_c, 0, 63, 84
1, 656626, Note_on_c, 0, 51, 83
1, 656632, Control_c, 0, 67, 109
1, 656639, Note_off_c, 0, 41, 62
1, 656653, Control_c, 0, 67, 109
1, 656663, Note_off_c, 0, 44, 66
1, 656668, Note_off_c, 0, 51, 63
1, 656668, Control_c, 0, 64, 67
1, 656671, Note_on_c, 0, 46, 76
1, 656681, Note_off_c, 0, 63, 59
1, 656698, Control_c, 0, 64, 67
1, 656698, Control_c, 0, 67, 110
1, 656712, Control_c, 0, 64, 67
1, 656735, Note_on_c, 0, 44, 69
1, 656742, Control_c, 0, 67, 109
1, 656757, Control_c, 0, 64, 67
1, 656759, Note_off_c, 0, 46, 53
1, 656769, Note_on_c, 0, 50, 79
1, 656772, Note_on_c, 0, 62, 86
1, 656779, Note_on_c, 0, 41, 67
1, 656787, Control_c, 0, 64, 68
1, 656793, Note_off_c, 0, 50, 69
1, 656802, Control_c, 0, 64, 68
1, 656802, Control_c, 0, 67, 109
1, 656806, Note_off_c, 0, 44, 63
1, 656817, Note_off_c, 0, 41, 63
1, 656817, Control_c, 0, 64, 70
1, 656818, Note_off_c, 0, 62, 60
1, 656832, Control_c, 0, 64, 72
1, 656832, Control_c, 0, 67, 108
1, 656847, Control_c, 0, 67, 107
1, 656862, Control_c, 0, 64, 68
1, 656862, Control_c, 0, 67, 107
1, 656876, Control_c, 0, 64, 54
1, 656891, Note_on_c, 0, 43, 96
1, 656891, Control_c, 0, 64, 0
1, 656906, Control_c, 0, 67, 108
1, 656921, Control_c, 0, 67, 109
1, 656936, Control_c, 0, 64, 48
1, 656936, Control_c, 0, 67, 109
1, 656951, Control_c, 0, 64, 63
1, 656966, Control_c, 0, 64, 66
1, 656981, Control_c, 0, 64, 67
1, 656996, Control_c, 0, 64, 67
1, 657002, Note_off_c, 0, 43, 61
1, 657005, Note_on_c, 0, 46, 77
1, 657011, Control_c, 0, 64, 65
1, 657011, Control_c, 0, 67, 109
1, 657025, Control_c, 0, 67, 108
1, 657040, Control_c, 0, 64, 66
1, 657040, Control_c, 0, 67, 108
1, 657051, Note_on_c, 0, 82, 98
1, 657053, Note_on_c, 0, 70, 84
1, 657055, Control_c, 0, 64, 67
1, 657062, Note_on_c, 0, 51, 72
1, 657070, Control_c, 0, 64, 68
1, 657070, Control_c, 0, 67, 107
1, 657077, Note_off_c, 0, 46, 62
1, 657080, Note_off_c, 0, 70, 64
1, 657094, Note_off_c, 0, 82, 65
1, 657100, Control_c, 0, 64, 66
1, 657118, Note_off_c, 0, 51, 64
1, 657129, Control_c, 0, 64, 67
1, 657133, Note_on_c, 0, 55, 68
1, 657144, Control_c, 0, 64, 67
1, 657144, Control_c, 0, 67, 107
1, 657174, Control_c, 0, 64, 67
1, 657189, Control_c, 0, 64, 66
1, 657191, Note_on_c, 0, 82, 95
1, 657192, Note_on_c, 0, 70, 83
1, 657194, Note_on_c, 0, 51, 65
1, 657202, Note_off_c, 0, 55, 62
1, 657206, Note_on_c, 0, 46, 67
1, 657218, Control_c, 0, 64, 67
1, 657218, Control_c, 0, 67, 107
1, 657233, Control_c, 0, 64, 69
1, 657237, Note_off_c, 0, 70, 62
1, 657238, Note_off_c, 0, 82, 65
1, 657248, Control_c, 0, 64, 71
1, 657248, Control_c, 0, 67, 107
1, 657258, Note_off_c, 0, 51, 62
1, 657263, Control_c, 0, 64, 73
1, 657264, Note_off_c, 0, 46, 63
1, 657277, Control_c, 0, 64, 72
1, 657277, Control_c, 0, 67, 106
1, 657292, Control_c, 0, 64, 64
1, 657307, Control_c, 0, 64, 0
1, 657329, Note_on_c, 0, 48, 89
1, 657333, Note_on_c, 0, 47, 82
1, 657351, Control_c, 0, 64, 38
1, 657351, Control_c, 0, 67, 106
1, 657366, Control_c, 0, 64, 62
1, 657381, Control_c, 0, 64, 68
1, 657390, Note_off_c, 0, 47, 46
1, 657403, Control_c, 0, 64, 72
1, 657418, Control_c, 0, 64, 72
1, 657424, Note_off_c, 0, 48, 64
1, 657433, Control_c, 0, 67, 105
1, 657435, Note_on_c, 0, 51, 64
1, 657448, Control_c, 0, 64, 72
1, 657463, Control_c, 0, 67, 105
1, 657474, Note_on_c, 0, 55, 67
1, 657478, Control_c, 0, 67, 104
1, 657481, Note_on_c, 0, 68, 85
1, 657482, Note_on_c, 0, 80, 91
1, 657493, Note_off_c, 0, 51, 64
1, 657507, Control_c, 0, 67, 103
1, 657514, Note_off_c, 0, 55, 65
1, 657522, Control_c, 0, 67, 101
1, 657524, Note_off_c, 0, 68, 63
1, 657529, Note_on_c, 0, 60, 74
1, 657532, Note_off_c, 0, 80, 63
1, 657536, Control_c, 0, 67, 100
1, 657551, Control_c, 0, 67, 97
1, 657566, Control_c, 0, 64, 71
1, 657566, Control_c, 0, 67, 95
1, 657581, Control_c, 0, 64, 70
1, 657581, Control_c, 0, 67, 92
1, 657596, Control_c, 0, 64, 70
1, 657596, Control_c, 0, 67, 89
1, 657598, Note_on_c, 0, 55, 65
1, 657610, Control_c, 0, 67, 84
1, 657613, Note_off_c, 0, 60, 61
1, 657620, Note_on_c, 0, 51, 77
1, 657620, Note_on_c, 0, 67, 85
1, 657621, Note_on_c, 0, 79, 90
1, 657625, Control_c, 0, 67, 79
1, 657634, Note_off_c, 0, 55, 67
1, 657640, Control_c, 0, 64, 70
1, 657640, Control_c, 0, 67, 73
1, 657654, Control_c, 0, 64, 71
1, 657654, Control_c, 0, 67, 68
1, 657662, Note_off_c, 0, 67, 63
1, 657665, Note_off_c, 0, 79, 64
1, 657669, Control_c, 0, 64, 72
1, 657669, Control_c, 0, 67, 64
1, 657675, Note_off_c, 0, 51, 64
1, 657684, Control_c, 0, 64, 72
1, 657684, Control_c, 0, 67, 61
1, 657699, Control_c, 0, 64, 73
1, 657699, Control_c, 0, 67, 58
1, 657714, Control_c, 0, 64, 71
1, 657714, Control_c, 0, 67, 55
1, 657729, Control_c, 0, 64, 65
1, 657729, Control_c, 0, 67, 50
1, 657744, Control_c, 0, 64, 14
1, 657744, Control_c, 0, 67, 45
1, 657749, Note_on_c, 0, 44, 95
1, 657759, Control_c, 0, 64, 0
1, 657759, Control_c, 0, 67, 37
1, 657774, Control_c, 0, 67, 26
1, 657789, Control_c, 0, 67, 9
1, 657804, Control_c, 0, 64, 36
1, 657804, Control_c, 0, 67, 0
1, 657819, Control_c, 0, 64, 63
1, 657833, Control_c, 0, 64, 70
1, 657848, Control_c, 0, 64, 75
1, 657853, Note_on_c, 0, 48, 66
1, 657857, Note_off_c, 0, 44, 64
1, 657863, Control_c, 0, 64, 79
1, 657893, Control_c, 0, 64, 78
1, 657899, Note_on_c, 0, 79, 94
1, 657901, Note_on_c, 0, 67, 85
1, 657905, Note_on_c, 0, 53, 61
1, 657938, Note_off_c, 0, 48, 62
1, 657940, Note_off_c, 0, 67, 60
1, 657940, Note_off_c, 0, 79, 64
1, 657949, Note_off_c, 0, 53, 66
1, 657952, Note_on_c, 0, 56, 80
1, 657953, Control_c, 0, 64, 78
1, 657967, Control_c, 0, 64, 77
1, 657982, Control_c, 0, 64, 77
1, 657997, Control_c, 0, 64, 76
1, 658015, Note_off_c, 0, 56, 63
1, 658024, Note_on_c, 0, 53, 56
1, 658051, Note_on_c, 0, 48, 76
1, 658054, Note_on_c, 0, 65, 89
1, 658054, Note_on_c, 0, 77, 94
1, 658060, Note_off_c, 0, 53, 67
1, 658084, Note_off_c, 0, 65, 63
1, 658087, Note_off_c, 0, 48, 62
1, 658088, Note_off_c, 0, 77, 62
1, 658101, Control_c, 0, 64, 76
1, 658116, Control_c, 0, 64, 77
1, 658131, Control_c, 0, 64, 78
1, 658152, Control_c, 0, 64, 73
1, 658167, Control_c, 0, 64, 64
1, 658182, Control_c, 0, 64, 0
1, 658185, Note_on_c, 0, 34, 96
1, 658242, Control_c, 0, 64, 63
1, 658257, Control_c, 0, 64, 69
1, 658271, Control_c, 0, 64, 74
1, 658277, Note_on_c, 0, 41, 73
1, 658286, Control_c, 0, 64, 76
1, 658303, Note_off_c, 0, 34, 60
1, 658316, Control_c, 0, 64, 75
1, 658325, Note_on_c, 0, 75, 90
1, 658328, Note_on_c, 0, 63, 85
1, 658331, Control_c, 0, 64, 74
1, 658346, Note_on_c, 0, 44, 55
1, 658361, Note_off_c, 0, 41, 62
1, 658366, Note_off_c, 0, 63, 61
1, 658370, Note_off_c, 0, 75, 64
1, 658374, Note_on_c, 0, 46, 79
1, 658374, Note_off_c, 0, 44, 58
1, 658390, Control_c, 0, 64, 74
1, 658405, Control_c, 0, 64, 73
1, 658420, Control_c, 0, 64, 73
1, 658438, Note_on_c, 0, 44, 74
1, 658441, Note_off_c, 0, 46, 60
1, 658469, Note_on_c, 0, 62, 82
1, 658469, Note_on_c, 0, 74, 95
1, 658494, Note_off_c, 0, 62, 66
1, 658495, Note_off_c, 0, 74, 67
1, 658498, Note_on_c, 0, 41, 66
1, 658503, Note_off_c, 0, 44, 63
1, 658508, Control_c, 0, 64, 74
1, 658523, Control_c, 0, 64, 74
1, 658528, Note_off_c, 0, 41, 64
1, 658538, Control_c, 0, 64, 73
1, 658552, Control_c, 0, 64, 67
1, 658567, Control_c, 0, 64, 0
1, 658605, Note_on_c, 0, 31, 96
1, 658643, Control_c, 0, 64, 63
1, 658657, Control_c, 0, 64, 70
1, 658672, Control_c, 0, 64, 72
1, 658701, Control_c, 0, 64, 71
1, 658705, Note_on_c, 0, 34, 76
1, 658712, Note_off_c, 0, 31, 61
1, 658716, Control_c, 0, 64, 69
1, 658731, Control_c, 0, 64, 69
1, 658738, Note_on_c, 0, 75, 88
1, 658740, Note_on_c, 0, 67, 85
1, 658742, Note_on_c, 0, 63, 84
1, 658754, Note_on_c, 0, 39, 72
1, 658761, Control_c, 0, 64, 68
1, 658775, Control_c, 0, 64, 67
1, 658778, Note_off_c, 0, 63, 56
1, 658781, Note_off_c, 0, 34, 62
1, 658790, Control_c, 0, 64, 66
1, 658806, Note_off_c, 0, 75, 62
1, 658818, Note_off_c, 0, 67, 50
1, 658820, Control_c, 0, 64, 66
1, 658821, Note_off_c, 0, 39, 61
1, 658826, Note_on_c, 0, 43, 70
1, 658865, Control_c, 0, 64, 66
1, 658877, Note_on_c, 0, 39, 52
1, 658880, Control_c, 0, 64, 65
1, 658884, Note_on_c, 0, 63, 82
1, 658884, Note_on_c, 0, 67, 70
1, 658884, Note_on_c, 0, 70, 89
1, 658889, Note_on_c, 0, 34, 71
1, 658901, Control_c, 0, 64, 66
1, 658916, Note_off_c, 0, 43, 61
1, 658916, Note_off_c, 0, 67, 66
1, 658916, Control_c, 0, 64, 68
1, 658931, Control_c, 0, 64, 70
1, 658936, Note_off_c, 0, 70, 65
1, 658941, Note_off_c, 0, 63, 62
1, 658942, Note_off_c, 0, 39, 56
1, 658946, Control_c, 0, 64, 72
1, 658950, Note_off_c, 0, 34, 62
1, 658961, Control_c, 0, 64, 71
1, 658975, Control_c, 0, 64, 64
1, 658990, Control_c, 0, 64, 0
1, 659014, Note_on_c, 0, 36, 98
1, 659050, Control_c, 0, 64, 28
1, 659064, Control_c, 0, 64, 62
1, 659079, Control_c, 0, 64, 67
1, 659094, Control_c, 0, 64, 69
1, 659100, Note_on_c, 0, 39, 70
1, 659109, Control_c, 0, 64, 68
1, 659117, Note_off_c, 0, 36, 59
1, 659124, Control_c, 0, 64, 67
1, 659139, Control_c, 0, 64, 66
1, 659146, Note_on_c, 0, 43, 55
1, 659154, Control_c, 0, 64, 67
1, 659161, Note_on_c, 0, 60, 87
1, 659161, Note_on_c, 0, 68, 86
1, 659162, Note_on_c, 0, 63, 85
1, 659176, Note_off_c, 0, 39, 61
1, 659188, Note_off_c, 0, 43, 64
1, 659198, Note_on_c, 0, 48, 79
1, 659198, Control_c, 0, 64, 66
1, 659207, Note_off_c, 0, 60, 59
1, 659243, Control_c, 0, 64, 66
1, 659243, Note_off_c, 0, 68, 61
1, 659262, Note_off_c, 0, 63, 55
1, 659272, Note_on_c, 0, 43, 73
1, 659272, Control_c, 0, 64, 66
1, 659291, Note_off_c, 0, 48, 56
1, 659297, Note_on_c, 0, 39, 73
1, 659300, Note_on_c, 0, 60, 88
1, 659300, Note_on_c, 0, 63, 71
1, 659306, Note_on_c, 0, 67, 87
1, 659316, Control_c, 0, 64, 66
1, 659319, Note_off_c, 0, 43, 65
1, 659331, Control_c, 0, 64, 67
1, 659346, Note_off_c, 0, 63, 60
1, 659346, Control_c, 0, 64, 68
1, 659354, Note_off_c, 0, 39, 62
1, 659354, Note_off_c, 0, 60, 65
1, 659354, Note_off_c, 0, 67, 63
1, 659361, Control_c, 0, 64, 69
1, 659377, Control_c, 0, 64, 69
1, 659392, Control_c, 0, 64, 66
1, 659406, Control_c, 0, 64, 48
1, 659421, Control_c, 0, 64, 0
1, 659427, Note_on_c, 0, 32, 100
1, 659466, Control_c, 0, 64, 27
1, 659480, Control_c, 0, 64, 65
1, 659495, Control_c, 0, 64, 70
1, 659510, Control_c, 0, 64, 72
1, 659522, Note_on_c, 0, 37, 63
1, 659536, Note_on_c, 0, 42, 48
1, 659539, Control_c, 0, 64, 71
1, 659559, Note_off_c, 0, 32, 58
1, 659574, Note_on_c, 0, 67, 89
1, 659580, Note_on_c, 0, 56, 91
1, 659583, Note_on_c, 0, 60, 79
1, 659599, Note_off_c, 0, 42, 60
1, 659609, Note_off_c, 0, 37, 64
1, 659613, Control_c, 0, 64, 71
1, 659628, Note_off_c, 0, 56, 61
1, 659628, Control_c, 0, 64, 70
1, 659635, Note_off_c, 0, 67, 59
1, 659648, Note_on_c, 0, 44, 74
1, 659666, Control_c, 0, 64, 71
1, 659697, Note_off_c, 0, 60, 0
1, 659712, Note_on_c, 0, 60, 62
1, 659717, Note_on_c, 0, 65, 85
1, 659720, Note_on_c, 0, 56, 86
1, 659731, Note_off_c, 0, 44, 57
1, 659732, Note_on_c, 0, 41, 64
1, 659735, Note_on_c, 0, 37, 36
1, 659739, Control_c, 0, 64, 71
1, 659754, Control_c, 0, 64, 73
1, 659763, Note_on_c, 0, 36, 49
1, 659767, Note_off_c, 0, 60, 63
1, 659767, Note_off_c, 0, 56, 65
1, 659769, Control_c, 0, 64, 74
1, 659770, Note_off_c, 0, 65, 65
1, 659781, Note_off_c, 0, 41, 61
1, 659784, Control_c, 0, 64, 76
1, 659789, Note_off_c, 0, 37, 48
1, 659795, Note_off_c, 0, 36, 59
1, 659797, Control_c, 0, 64, 76
1, 659812, Control_c, 0, 64, 76
1, 659827, Control_c, 0, 64, 69
1, 659842, Control_c, 0, 64, 40
1, 659851, Note_on_c, 0, 34, 86
1, 659856, Control_c, 0, 64, 0
1, 659874, Note_on_c, 0, 33, 61
1, 659901, Control_c, 0, 64, 64
1, 659903, Note_off_c, 0, 33, 55
1, 659916, Control_c, 0, 64, 73
1, 659930, Control_c, 0, 64, 80
1, 659945, Control_c, 0, 64, 87
1, 659956, Note_on_c, 0, 41, 69
1, 659960, Control_c, 0, 64, 91
1, 659962, Note_off_c, 0, 34, 60
1, 659975, Control_c, 0, 64, 95
1, 659990, Control_c, 0, 64, 98
1, 659992, Note_on_c, 0, 56, 75
1, 659992, Note_on_c, 0, 63, 77
1, 659994, Note_on_c, 0, 53, 80
1, 660005, Control_c, 0, 64, 101
1, 660012, Note_on_c, 0, 44, 56
1, 660020, Control_c, 0, 64, 104
1, 660030, Note_off_c, 0, 53, 63
1, 660035, Control_c, 0, 64, 106
1, 660042, Note_off_c, 0, 56, 57
1, 660044, Note_off_c, 0, 41, 61
1, 660053, Note_off_c, 0, 44, 64
1, 660060, Note_on_c, 0, 46, 80
1, 660063, Note_off_c, 0, 63, 59
1, 660135, Note_on_c, 0, 56, 81
1, 660135, Note_on_c, 0, 62, 59
1, 660136, Note_on_c, 0, 44, 71
1, 660141, Note_on_c, 0, 53, 77
1, 660158, Note_on_c, 0, 42, 70
1, 660173, Note_off_c, 0, 62, 63
1, 660174, Note_off_c, 0, 46, 54
1, 660186, Note_off_c, 0, 56, 63
1, 660191, Note_on_c, 0, 41, 61
1, 660196, Note_off_c, 0, 44, 60
1, 660197, Note_off_c, 0, 53, 58
1, 660219, Note_off_c, 0, 42, 62
1, 660228, Control_c, 0, 64, 98
1, 660229, Note_off_c, 0, 41, 62
1, 660243, Control_c, 0, 64, 81
1, 660258, Control_c, 0, 64, 62
1, 660273, Control_c, 0, 64, 0
1, 660276, Note_on_c, 0, 39, 104
1, 660287, Note_on_c, 0, 51, 79
1, 660288, Control_c, 0, 64, 43
1, 660302, Control_c, 0, 64, 64
1, 660307, Note_off_c, 0, 39, 62
1, 660317, Control_c, 0, 64, 71
1, 660328, Note_off_c, 0, 51, 62
1, 660332, Control_c, 0, 64, 78
1, 660346, Control_c, 0, 64, 80
1, 660353, Note_on_c, 0, 53, 72
1, 660361, Control_c, 0, 64, 79
1, 660376, Control_c, 0, 64, 78
1, 660399, Control_c, 0, 64, 77
1, 660423, Note_off_c, 0, 53, 65
1, 660424, Note_on_c, 0, 55, 78
1, 660443, Control_c, 0, 64, 76
1, 660458, Control_c, 0, 64, 76
1, 660463, Note_on_c, 0, 51, 80
1, 660469, Note_on_c, 0, 56, 75
1, 660472, Control_c, 0, 64, 75
1, 660500, Note_off_c, 0, 55, 64
1, 660510, Note_on_c, 0, 58, 65
1, 660514, Note_off_c, 0, 51, 65
1, 660515, Note_off_c, 0, 56, 58
1, 660529, Note_off_c, 0, 58, 64
1, 660532, Control_c, 0, 64, 75
1, 660547, Control_c, 0, 64, 74
1, 660567, Note_on_c, 0, 60, 72
1, 660577, Control_c, 0, 64, 75
1, 660592, Control_c, 0, 64, 76
1, 660597, Note_on_c, 0, 55, 62
1, 660600, Note_on_c, 0, 58, 60
1, 660605, Note_on_c, 0, 51, 58
1, 660607, Control_c, 0, 64, 77
1, 660617, Note_on_c, 0, 62, 81
1, 660618, Note_off_c, 0, 60, 61
1, 660621, Control_c, 0, 64, 78
1, 660626, Note_off_c, 0, 55, 61
1, 660636, Note_off_c, 0, 51, 67
1, 660651, Control_c, 0, 64, 75
1, 660656, Note_off_c, 0, 58, 62
1, 660659, Note_on_c, 0, 63, 80
1, 660666, Control_c, 0, 64, 68
1, 660680, Control_c, 0, 64, 48
1, 660685, Note_off_c, 0, 62, 61
1, 660695, Control_c, 0, 64, 0
1, 660709, Note_off_c, 0, 63, 63
1, 660710, Control_c, 0, 64, 50
1, 660725, Control_c, 0, 64, 65
1, 660726, Note_on_c, 0, 51, 80
1, 660727, Note_on_c, 0, 55, 81
1, 660733, Note_on_c, 0, 58, 83
1, 660740, Note_on_c, 0, 65, 78
1, 660740, Control_c, 0, 64, 71
1, 660755, Control_c, 0, 64, 78
1, 660769, Control_c, 0, 64, 86
1, 660784, Control_c, 0, 64, 91
1, 660799, Control_c, 0, 64, 94
1, 660802, Note_on_c, 0, 67, 76
1, 660811, Note_off_c, 0, 65, 62
1, 660814, Control_c, 0, 64, 96
1, 660828, Note_on_c, 0, 68, 78
1, 660829, Control_c, 0, 64, 98
1, 660843, Note_off_c, 0, 55, 63
1, 660844, Control_c, 0, 64, 103
1, 660846, Note_off_c, 0, 67, 60
1, 660859, Control_c, 0, 64, 107
1, 660864, Note_on_c, 0, 70, 67
1, 660868, Note_off_c, 0, 58, 61
1, 660871, Note_off_c, 0, 68, 59
1, 660873, Control_c, 0, 64, 109
1, 660889, Note_off_c, 0, 70, 69
1, 660896, Note_off_c, 0, 51, 62
1, 660928, Note_on_c, 0, 72, 67
1, 660947, Note_off_c, 0, 72, 66
1, 660962, Control_c, 0, 64, 109
1, 660986, Note_on_c, 0, 58, 74
1, 660989, Note_on_c, 0, 46, 72
1, 660989, Note_on_c, 0, 74, 92
1, 661011, Note_on_c, 0, 56, 47
1, 661016, Note_on_c, 0, 53, 38
1, 661020, Note_off_c, 0, 46, 65
1, 661038, Note_off_c, 0, 74, 65
1, 661040, Note_off_c, 0, 58, 61
1, 661048, Note_off_c, 0, 53, 56
1, 661050, Note_off_c, 0, 56, 55
1, 661052, Control_c, 0, 64, 98
1, 661067, Control_c, 0, 64, 80
1, 661074, Note_on_c, 0, 62, 71
1, 661082, Control_c, 0, 64, 33
1, 661096, Control_c, 0, 64, 0
1, 661104, Note_off_c, 0, 62, 65
1, 661127, Note_on_c, 0, 55, 85
1, 661131, Note_on_c, 0, 58, 85
1, 661134, Note_on_c, 0, 51, 85
1, 661137, Note_on_c, 0, 63, 81
1, 661141, Control_c, 0, 64, 57
1, 661163, Control_c, 0, 64, 66
1, 661178, Control_c, 0, 64, 71
1, 661193, Control_c, 0, 64, 74
1, 661203, Note_off_c, 0, 63, 62
1, 661204, Note_off_c, 0, 55, 64
1, 661208, Control_c, 0, 64, 75
1, 661213, Note_off_c, 0, 51, 65
1, 661220, Note_on_c, 0, 65, 78
1, 661223, Note_off_c, 0, 58, 62
1, 661223, Control_c, 0, 64, 73
1, 661237, Control_c, 0, 64, 72
1, 661267, Control_c, 0, 64, 73
1, 661280, Note_off_c, 0, 65, 58
1, 661282, Control_c, 0, 64, 73
1, 661284, Note_on_c, 0, 51, 80
1, 661284, Note_on_c, 0, 58, 80
1, 661286, Note_on_c, 0, 67, 86
1, 661289, Note_on_c, 0, 55, 83
1, 661296, Control_c, 0, 64, 73
1, 661329, Note_on_c, 0, 68, 80
1, 661336, Note_off_c, 0, 55, 64
1, 661341, Control_c, 0, 64, 73
1, 661345, Note_off_c, 0, 58, 60
1, 661348, Note_off_c, 0, 51, 60
1, 661356, Control_c, 0, 64, 74
1, 661363, Note_off_c, 0, 67, 61
1, 661370, Control_c, 0, 64, 74
1, 661376, Note_on_c, 0, 70, 77
1, 661394, Note_off_c, 0, 68, 63
1, 661398, Note_off_c, 0, 70, 70
1, 661415, Control_c, 0, 64, 75
1, 661423, Note_on_c, 0, 55, 85
1, 661423, Note_on_c, 0, 58, 90
1, 661426, Note_on_c, 0, 51, 85
1, 661430, Control_c, 0, 64, 76
1, 661432, Note_on_c, 0, 72, 80
1, 661444, Control_c, 0, 64, 79
1, 661459, Control_c, 0, 64, 83
1, 661473, Note_off_c, 0, 55, 62
1, 661474, Control_c, 0, 64, 87
1, 661488, Note_off_c, 0, 58, 58
1, 661489, Control_c, 0, 64, 92
1, 661491, Note_on_c, 0, 74, 90
1, 661495, Note_off_c, 0, 72, 64
1, 661496, Note_off_c, 0, 51, 63
1, 661503, Control_c, 0, 64, 96
1, 661518, Control_c, 0, 64, 98
1, 661533, Control_c, 0, 64, 97
1, 661536, Note_on_c, 0, 75, 82
1, 661548, Control_c, 0, 64, 87
1, 661552, Note_off_c, 0, 74, 65
1, 661563, Control_c, 0, 64, 71
1, 661568, Note_off_c, 0, 75, 60
1, 661571, Note_on_c, 0, 58, 99
1, 661571, Note_on_c, 0, 51, 92
1, 661574, Note_on_c, 0, 55, 88
1, 661577, Control_c, 0, 64, 66
1, 661592, Control_c, 0, 64, 71
1, 661604, Note_on_c, 0, 77, 86
1, 661607, Control_c, 0, 64, 81
1, 661622, Control_c, 0, 64, 101
1, 661637, Control_c, 0, 64, 127
1, 661665, Note_off_c, 0, 77, 59
1, 661679, Note_on_c, 0, 79, 76
1, 661698, Note_on_c, 0, 80, 82
1, 661701, Note_off_c, 0, 55, 63
1, 661716, Note_off_c, 0, 79, 59
1, 661722, Note_off_c, 0, 51, 56
1, 661732, Note_on_c, 0, 82, 69
1, 661733, Note_off_c, 0, 58, 56
1, 661741, Note_off_c, 0, 80, 61
1, 661754, Note_off_c, 0, 82, 69
1, 661792, Note_on_c, 0, 84, 78
1, 661812, Note_off_c, 0, 84, 71
1, 661841, Note_on_c, 0, 58, 81
1, 661849, Note_on_c, 0, 46, 68
1, 661850, Note_on_c, 0, 56, 73
1, 661852, Note_on_c, 0, 86, 89
1, 661877, Note_off_c, 0, 56, 66
1, 661882, Note_off_c, 0, 46, 63
1, 661900, Note_off_c, 0, 58, 63
1, 661902, Note_off_c, 0, 86, 67
1, 661942, Note_on_c, 0, 74, 83
1, 661956, Control_c, 0, 64, 113
1, 661971, Control_c, 0, 64, 79
1, 661973, Note_off_c, 0, 74, 62
1, 661986, Control_c, 0, 64, 21
1, 662001, Control_c, 0, 64, 0
1, 662003, Note_on_c, 0, 75, 84
1, 662004, Note_on_c, 0, 55, 85
1, 662006, Note_on_c, 0, 58, 90
1, 662007, Note_on_c, 0, 51, 87
1, 662016, Control_c, 0, 64, 17
1, 662030, Control_c, 0, 64, 68
1, 662045, Control_c, 0, 64, 83
1, 662054, Note_off_c, 0, 75, 65
1, 662060, Control_c, 0, 64, 102
1, 662068, Note_off_c, 0, 55, 65
1, 662074, Control_c, 0, 64, 127
1, 662075, Note_on_c, 0, 77, 81
1, 662080, Note_off_c, 0, 51, 65
1, 662083, Note_off_c, 0, 58, 60
1, 662136, Note_on_c, 0, 79, 91
1, 662143, Note_off_c, 0, 77, 62
1, 662154, Note_on_c, 0, 55, 81
1, 662155, Note_on_c, 0, 51, 79
1, 662156, Note_on_c, 0, 58, 79
1, 662194, Note_on_c, 0, 80, 80
1, 662203, Note_off_c, 0, 58, 60
1, 662204, Note_off_c, 0, 55, 63
1, 662215, Note_off_c, 0, 51, 63
1, 662232, Note_off_c, 0, 79, 60
1, 662233, Note_on_c, 0, 82, 82
1, 662254, Note_off_c, 0, 80, 63
1, 662269, Note_off_c, 0, 82, 62
1, 662295, Note_on_c, 0, 84, 90
1, 662311, Note_on_c, 0, 51, 83
1, 662313, Note_on_c, 0, 55, 77
1, 662314, Note_on_c, 0, 58, 71
1, 662339, Note_off_c, 0, 84, 66
1, 662363, Note_off_c, 0, 55, 60
1, 662367, Note_on_c, 0, 86, 97
1, 662371, Note_off_c, 0, 58, 55
1, 662383, Note_off_c, 0, 51, 61
1, 662385, Control_c, 0, 64, 114
1, 662400, Control_c, 0, 64, 84
1, 662415, Control_c, 0, 64, 73
1, 662430, Control_c, 0, 64, 78
1, 662433, Note_on_c, 0, 87, 99
1, 662440, Note_on_c, 0, 51, 83
1, 662441, Note_on_c, 0, 58, 89
1, 662443, Note_on_c, 0, 55, 86
1, 662444, Control_c, 0, 64, 92
1, 662448, Note_off_c, 0, 86, 63
1, 662459, Control_c, 0, 64, 127
1, 662482, Note_off_c, 0, 87, 68
1, 662484, Note_off_c, 0, 55, 61
1, 662485, Note_off_c, 0, 58, 62
1, 662511, Note_on_c, 0, 89, 92
1, 662516, Note_off_c, 0, 51, 64
1, 662582, Note_on_c, 0, 91, 91
1, 662588, Note_off_c, 0, 89, 64
1, 662650, Note_on_c, 0, 92, 88
1, 662653, Note_on_c, 0, 46, 71
1, 662668, Note_on_c, 0, 58, 63
1, 662674, Note_off_c, 0, 91, 66
1, 662677, Note_on_c, 0, 56, 65
1, 662685, Note_off_c, 0, 46, 63
1, 662686, Note_on_c, 0, 94, 80
1, 662698, Note_off_c, 0, 92, 67
1, 662708, Note_off_c, 0, 56, 64
1, 662708, Note_off_c, 0, 58, 62
1, 662708, Note_off_c, 0, 94, 69
1, 662718, Poly_aftertouch_c, 0, 53, 127
1, 662737, Note_on_c, 0, 96, 89
1, 662755, Poly_aftertouch_c, 0, 53, 0
1, 662803, Note_off_c, 0, 96, 65
1, 662809, Note_on_c, 0, 98, 82
1, 662823, Control_c, 0, 64, 86
1, 662838, Control_c, 0, 64, 61
1, 662842, Note_on_c, 0, 99, 110
1, 662851, Note_off_c, 0, 98, 69
1, 662853, Control_c, 0, 64, 0
1, 662856, Note_on_c, 0, 63, 96
1, 662858, Note_on_c, 0, 55, 80
1, 662860, Note_on_c, 0, 51, 79
1, 662865, Note_on_c, 0, 58, 83
1, 662868, Control_c, 0, 64, 59
1, 662874, Note_off_c, 0, 99, 71
1, 662882, Control_c, 0, 64, 75
1, 662897, Control_c, 0, 64, 113
1, 662912, Control_c, 0, 64, 127
1, 662918, Note_off_c, 0, 51, 64
1, 662924, Note_off_c, 0, 63, 61
1, 662926, Note_off_c, 0, 55, 61
1, 662930, Note_off_c, 0, 58, 63
1, 663288, Note_on_c, 0, 51, 86
1, 663289, Note_on_c, 0, 63, 94
1, 663291, Note_on_c, 0, 55, 89
1, 663292, Note_on_c, 0, 67, 91
1, 663293, Note_on_c, 0, 58, 90
1, 663293, Note_on_c, 0, 75, 95
1, 663295, Note_on_c, 0, 70, 93
1, 663326, Note_off_c, 0, 55, 69
1, 663326, Note_off_c, 0, 63, 64
1, 663329, Note_off_c, 0, 51, 64
1, 663335, Note_off_c, 0, 58, 67
1, 663337, Note_off_c, 0, 67, 64
1, 663343, Note_off_c, 0, 75, 68
1, 663345, Note_off_c, 0, 70, 65
1, 663815, Note_on_c, 0, 51, 81
1, 663820, Note_on_c, 0, 63, 95
1, 663822, Note_on_c, 0, 39, 74
1, 663823, Note_on_c, 0, 46, 83
1, 663823, Note_on_c, 0, 58, 93
1, 663824, Note_on_c, 0, 55, 92
1, 663825, Note_on_c, 0, 43, 78
1, 663866, Note_off_c, 0, 55, 63
1, 663902, Note_off_c, 0, 63, 58
1, 663909, Note_off_c, 0, 58, 56
1, 664092, Note_off_c, 0, 39, 59
1, 664186, Note_off_c, 0, 51, 47
1, 664227, Note_off_c, 0, 46, 57
1, 664348, Note_off_c, 0, 43, 58
1, 664721, Control_c, 0, 64, 118
1, 664736, Control_c, 0, 64, 114
1, 664751, Control_c, 0, 64, 112
1, 664766, Control_c, 0, 64, 112
1, 664781, Control_c, 0, 64, 111
1, 664795, Control_c, 0, 64, 110
1, 664810, Control_c, 0, 64, 108
1, 664825, Control_c, 0, 64, 108
1, 664854, Control_c, 0, 64, 107
1, 664869, Control_c, 0, 64, 107
1, 664884, Control_c, 0, 64, 104
1, 664907, Control_c, 0, 64, 104
1, 664936, Control_c, 0, 64, 103
1, 665024, Note_on_c, 0, 70, 85
1, 665817, Note_off_c, 0, 70, 39
1, 666041, Control_c, 0, 64, 103
1, 666204, Control_c, 0, 64, 102
1, 666204, Control_c, 0, 67, 9
1, 666219, Control_c, 0, 67, 13
1, 666233, Control_c, 0, 67, 20
1, 666248, Control_c, 0, 67, 26
1, 666263, Control_c, 0, 67, 30
1, 666278, Control_c, 0, 67, 34
1, 666293, Control_c, 0, 67, 37
1, 666308, Control_c, 0, 67, 40
1, 666323, Control_c, 0, 67, 46
1, 666328, Note_on_c, 0, 70, 65
1, 666338, Control_c, 0, 67, 52
1, 666353, Control_c, 0, 67, 58
1, 666367, Control_c, 0, 67, 64
1, 666389, Control_c, 0, 67, 69
1, 666404, Control_c, 0, 67, 73
1, 666411, Note_off_c, 0, 70, 62
1, 666418, Control_c, 0, 67, 78
1, 666433, Control_c, 0, 67, 83
1, 666448, Control_c, 0, 67, 88
1, 666463, Control_c, 0, 67, 93
1, 666478, Control_c, 0, 67, 99
1, 666493, Control_c, 0, 67, 103
1, 666508, Control_c, 0, 67, 106
1, 666523, Control_c, 0, 67, 109
1, 666538, Control_c, 0, 67, 111
1, 666552, Control_c, 0, 67, 113
1, 666568, Control_c, 0, 67, 114
1, 666583, Control_c, 0, 67, 115
1, 666701, Control_c, 0, 64, 102
1, 666716, Control_c, 0, 64, 101
1, 666731, Control_c, 0, 64, 100
1, 666746, Control_c, 0, 64, 97
1, 666755, Note_on_c, 0, 70, 53
1, 666761, Control_c, 0, 64, 94
1, 666773, Note_on_c, 0, 58, 40
1, 666776, Control_c, 0, 64, 92
1, 666782, Note_on_c, 0, 51, 38
1, 666783, Note_on_c, 0, 55, 34
1, 666790, Control_c, 0, 64, 91
1, 666805, Control_c, 0, 64, 90
1, 666820, Control_c, 0, 64, 86
1, 666820, Control_c, 0, 67, 114
1, 666835, Control_c, 0, 64, 81
1, 666849, Control_c, 0, 64, 76
1, 666864, Control_c, 0, 64, 73
1, 666879, Control_c, 0, 64, 70
1, 666894, Control_c, 0, 64, 66
1, 666908, Control_c, 0, 64, 62
1, 666923, Control_c, 0, 64, 58
1, 666923, Control_c, 0, 67, 114
1, 666938, Control_c, 0, 64, 53
1, 666953, Control_c, 0, 64, 43
1, 666968, Control_c, 0, 64, 14
1, 666982, Control_c, 0, 64, 0
1, 667041, Note_off_c, 0, 58, 50
1, 667041, Note_on_c, 0, 67, 66
1, 667064, Note_off_c, 0, 55, 56
1, 667099, Note_off_c, 0, 51, 56
1, 667116, Control_c, 0, 64, 34
1, 667138, Control_c, 0, 64, 47
1, 667153, Control_c, 0, 64, 57
1, 667153, Control_c, 0, 67, 113
1, 667168, Control_c, 0, 64, 64
1, 667183, Control_c, 0, 64, 70
1, 667183, Control_c, 0, 67, 112
1, 667197, Control_c, 0, 64, 75
1, 667197, Control_c, 0, 67, 111
1, 667212, Control_c, 0, 64, 77
1, 667212, Control_c, 0, 67, 110
1, 667241, Control_c, 0, 67, 110
1, 667254, Note_on_c, 0, 63, 74
1, 667256, Control_c, 0, 67, 109
1, 667271, Control_c, 0, 64, 75
1, 667271, Control_c, 0, 67, 109
1, 667286, Control_c, 0, 64, 73
1, 667301, Control_c, 0, 64, 69
1, 667316, Control_c, 0, 64, 65
1, 667330, Control_c, 0, 64, 60
1, 667336, Note_off_c, 0, 67, 57
1, 667340, Note_off_c, 0, 70, 46
1, 667345, Control_c, 0, 64, 56
1, 667361, Control_c, 0, 64, 55
1, 667376, Control_c, 0, 64, 45
1, 667391, Control_c, 0, 64, 0
1, 667446, Note_on_c, 0, 58, 47
1, 667447, Note_on_c, 0, 62, 67
1, 667452, Note_on_c, 0, 56, 48
1, 667453, Note_on_c, 0, 46, 44
1, 667472, Note_on_c, 0, 53, 39
1, 667491, Note_off_c, 0, 63, 58
1, 667509, Control_c, 0, 67, 108
1, 667524, Control_c, 0, 67, 108
1, 667539, Control_c, 0, 67, 107
1, 667554, Control_c, 0, 64, 27
1, 667569, Control_c, 0, 64, 56
1, 667569, Control_c, 0, 67, 106
1, 667584, Control_c, 0, 64, 65
1, 667584, Control_c, 0, 67, 106
1, 667587, Note_off_c, 0, 46, 56
1, 667587, Note_off_c, 0, 58, 62
1, 667599, Control_c, 0, 64, 70
1, 667599, Control_c, 0, 67, 105
1, 667612, Note_off_c, 0, 53, 65
1, 667613, Control_c, 0, 64, 76
1, 667613, Control_c, 0, 67, 104
1, 667618, Note_off_c, 0, 56, 63
1, 667628, Control_c, 0, 64, 80
1, 667628, Control_c, 0, 67, 103
1, 667629, Note_on_c, 0, 65, 73
1, 667643, Control_c, 0, 64, 81
1, 667643, Control_c, 0, 67, 102
1, 667658, Control_c, 0, 64, 82
1, 667658, Control_c, 0, 67, 101
1, 667658, Note_off_c, 0, 62, 60
1, 667672, Control_c, 0, 64, 83
1, 667672, Control_c, 0, 67, 99
1, 667687, Control_c, 0, 64, 82
1, 667687, Control_c, 0, 67, 97
1, 667702, Control_c, 0, 67, 94
1, 667717, Control_c, 0, 67, 91
1, 667732, Control_c, 0, 67, 88
1, 667746, Control_c, 0, 64, 81
1, 667746, Control_c, 0, 67, 85
1, 667761, Control_c, 0, 64, 80
1, 667761, Control_c, 0, 67, 84
1, 667776, Control_c, 0, 64, 80
1, 667776, Control_c, 0, 67, 82
1, 667791, Control_c, 0, 67, 81
1, 667804, Note_on_c, 0, 70, 82
1, 667806, Control_c, 0, 67, 81
1, 667820, Control_c, 0, 64, 79
1, 667842, Note_off_c, 0, 65, 62
1, 667902, Control_c, 0, 64, 79
1, 667906, Note_off_c, 0, 70, 63
1, 667917, Control_c, 0, 64, 78
1, 667932, Control_c, 0, 64, 76
1, 667961, Control_c, 0, 64, 76
1, 667976, Control_c, 0, 64, 75
1, 667976, Control_c, 0, 67, 80
1, 667990, Control_c, 0, 64, 73
1, 667991, Note_on_c, 0, 70, 76
1, 668005, Control_c, 0, 64, 69
1, 668009, Note_on_c, 0, 55, 43
1, 668009, Note_on_c, 0, 58, 47
1, 668020, Control_c, 0, 64, 64
1, 668028, Note_on_c, 0, 51, 47
1, 668035, Control_c, 0, 64, 58
1, 668035, Control_c, 0, 67, 80
1, 668050, Control_c, 0, 64, 55
1, 668064, Control_c, 0, 64, 53
1, 668064, Control_c, 0, 67, 79
1, 668079, Control_c, 0, 64, 44
1, 668079, Control_c, 0, 67, 78
1, 668094, Control_c, 0, 64, 0
1, 668094, Control_c, 0, 67, 76
1, 668109, Control_c, 0, 67, 73
1, 668124, Control_c, 0, 67, 70
1, 668138, Control_c, 0, 64, 43
1, 668138, Control_c, 0, 67, 66
1, 668153, Control_c, 0, 64, 55
1, 668153, Control_c, 0, 67, 61
1, 668169, Control_c, 0, 64, 58
1, 668169, Control_c, 0, 67, 57
1, 668176, Note_on_c, 0, 67, 83
1, 668184, Control_c, 0, 64, 62
1, 668184, Control_c, 0, 67, 51
1, 668193, Note_off_c, 0, 55, 63
1, 668199, Control_c, 0, 64, 66
1, 668199, Control_c, 0, 67, 46
1, 668214, Control_c, 0, 64, 70
1, 668214, Control_c, 0, 67, 40
1, 668229, Control_c, 0, 64, 74
1, 668229, Control_c, 0, 67, 34
1, 668243, Note_off_c, 0, 51, 58
1, 668243, Control_c, 0, 64, 76
1, 668243, Control_c, 0, 67, 28
1, 668244, Note_off_c, 0, 58, 60
1, 668258, Control_c, 0, 64, 77
1, 668258, Control_c, 0, 67, 21
1, 668273, Control_c, 0, 67, 15
1, 668287, Control_c, 0, 67, 0
1, 668302, Control_c, 0, 64, 76
1, 668317, Note_off_c, 0, 70, 32
1, 668317, Control_c, 0, 64, 76
1, 668332, Control_c, 0, 64, 75
1, 668336, Note_on_c, 0, 63, 77
1, 668347, Control_c, 0, 64, 74
1, 668377, Control_c, 0, 64, 73
1, 668391, Note_off_c, 0, 67, 60
1, 668392, Control_c, 0, 64, 71
1, 668407, Control_c, 0, 64, 68
1, 668421, Control_c, 0, 64, 67
1, 668466, Control_c, 0, 64, 66
1, 668480, Control_c, 0, 64, 64
1, 668495, Control_c, 0, 64, 55
1, 668510, Control_c, 0, 64, 0
1, 668513, Note_on_c, 0, 64, 82
1, 668520, Note_on_c, 0, 48, 56
1, 668527, Note_on_c, 0, 60, 46
1, 668531, Note_on_c, 0, 58, 46
1, 668543, Note_on_c, 0, 55, 45
1, 668552, Note_off_c, 0, 63, 62
1, 668569, Control_c, 0, 64, 42
1, 668584, Control_c, 0, 64, 61
1, 668599, Control_c, 0, 64, 67
1, 668613, Note_off_c, 0, 48, 59
1, 668613, Control_c, 0, 64, 71
1, 668628, Control_c, 0, 64, 74
1, 668651, Control_c, 0, 64, 76
1, 668651, Note_off_c, 0, 55, 53
1, 668657, Note_off_c, 0, 58, 53
1, 668666, Control_c, 0, 64, 76
1, 668678, Note_off_c, 0, 60, 51
1, 668702, Note_on_c, 0, 67, 79
1, 668725, Control_c, 0, 64, 77
1, 668732, Note_off_c, 0, 64, 62
1, 668755, Control_c, 0, 64, 77
1, 668784, Control_c, 0, 64, 76
1, 668799, Control_c, 0, 64, 74
1, 668813, Control_c, 0, 64, 69
1, 668828, Control_c, 0, 64, 63
1, 668843, Control_c, 0, 64, 58
1, 668858, Control_c, 0, 64, 59
1, 668866, Note_on_c, 0, 72, 84
1, 668873, Control_c, 0, 64, 63
1, 668875, Note_on_c, 0, 60, 55
1, 668876, Note_on_c, 0, 52, 54
1, 668887, Note_on_c, 0, 58, 35
1, 668887, Control_c, 0, 64, 67
1, 668890, Note_on_c, 0, 55, 44
1, 668902, Control_c, 0, 64, 72
1, 668911, Note_off_c, 0, 67, 62
1, 668917, Control_c, 0, 64, 77
1, 668924, Note_off_c, 0, 58, 61
1, 668932, Control_c, 0, 64, 83
1, 668933, Note_off_c, 0, 55, 61
1, 668947, Control_c, 0, 64, 88
1, 668956, Note_off_c, 0, 60, 59
1, 668963, Control_c, 0, 64, 91
1, 668970, Note_off_c, 0, 52, 58
1, 668970, Note_off_c, 0, 72, 64
1, 668978, Control_c, 0, 64, 92
1, 669051, Control_c, 0, 64, 91
1, 669064, Note_on_c, 0, 72, 81
1, 669066, Control_c, 0, 64, 89
1, 669081, Control_c, 0, 64, 85
1, 669083, Note_on_c, 0, 60, 43
1, 669084, Note_on_c, 0, 56, 49
1, 669092, Note_on_c, 0, 53, 45
1, 669096, Control_c, 0, 64, 80
1, 669110, Control_c, 0, 64, 74
1, 669125, Control_c, 0, 64, 68
1, 669134, Note_off_c, 0, 60, 0
1, 669134, Note_on_c, 0, 60, 30
1, 669140, Control_c, 0, 64, 63
1, 669155, Control_c, 0, 64, 48
1, 669170, Control_c, 0, 64, 0
1, 669252, Note_on_c, 0, 68, 81
1, 669259, Control_c, 0, 64, 35
1, 669274, Control_c, 0, 64, 55
1, 669289, Control_c, 0, 64, 63
1, 669303, Control_c, 0, 64, 66
1, 669308, Note_off_c, 0, 60, 48
1, 669318, Control_c, 0, 64, 70
1, 669325, Note_off_c, 0, 56, 64
1, 669333, Control_c, 0, 64, 74
1, 669343, Note_off_c, 0, 72, 58
1, 669348, Control_c, 0, 64, 79
1, 669363, Control_c, 0, 64, 83
1, 669366, Note_off_c, 0, 53, 61
1, 669384, Control_c, 0, 64, 83
1, 669399, Control_c, 0, 64, 84
1, 669422, Note_on_c, 0, 65, 88
1, 669429, Control_c, 0, 64, 84
1, 669498, Note_off_c, 0, 68, 61
1, 669518, Control_c, 0, 64, 83
1, 669533, Control_c, 0, 64, 83
1, 669548, Control_c, 0, 64, 80
1, 669563, Control_c, 0, 64, 76
1, 669578, Control_c, 0, 64, 73
1, 669593, Control_c, 0, 64, 71
1, 669608, Control_c, 0, 64, 71
1, 669615, Note_on_c, 0, 66, 83
1, 669623, Control_c, 0, 64, 69
1, 669628, Note_on_c, 0, 50, 54
1, 669634, Note_on_c, 0, 62, 44
1, 669637, Note_on_c, 0, 57, 45
1, 669637, Control_c, 0, 64, 65
1, 669652, Control_c, 0, 64, 55
1, 669667, Control_c, 0, 64, 0
1, 669678, Note_off_c, 0, 65, 52
1, 669810, Note_on_c, 0, 69, 84
1, 669816, Control_c, 0, 64, 33
1, 669831, Control_c, 0, 64, 56
1, 669846, Control_c, 0, 64, 64
1, 669860, Control_c, 0, 64, 67
1, 669864, Note_off_c, 0, 62, 51
1, 669868, Note_off_c, 0, 57, 59
1, 669869, Note_off_c, 0, 50, 49
1, 669875, Control_c, 0, 64, 70
1, 669881, Note_off_c, 0, 66, 60
1, 669890, Control_c, 0, 64, 73
1, 669905, Control_c, 0, 64, 76
1, 669920, Control_c, 0, 64, 81
1, 669934, Control_c, 0, 64, 86
1, 669949, Control_c, 0, 64, 88
1, 669979, Control_c, 0, 64, 87
1, 669994, Control_c, 0, 64, 83
1, 670007, Note_on_c, 0, 74, 91
1, 670008, Control_c, 0, 64, 80
1, 670016, Note_on_c, 0, 57, 55
1, 670026, Note_on_c, 0, 54, 60
1, 670035, Note_on_c, 0, 62, 49
1, 670038, Control_c, 0, 64, 82
1, 670046, Note_off_c, 0, 69, 63
1, 670052, Control_c, 0, 64, 86
1, 670067, Control_c, 0, 64, 89
1, 670082, Note_off_c, 0, 57, 61
1, 670082, Control_c, 0, 64, 93
1, 670097, Control_c, 0, 64, 94
1, 670098, Note_off_c, 0, 62, 46
1, 670101, Note_off_c, 0, 54, 52
1, 670124, Note_off_c, 0, 74, 59
1, 670208, Control_c, 0, 64, 93
1, 670223, Control_c, 0, 64, 93
1, 670238, Control_c, 0, 64, 92
1, 670245, Note_on_c, 0, 74, 86
1, 670253, Control_c, 0, 64, 91
1, 670261, Note_on_c, 0, 62, 48
1, 670265, Note_on_c, 0, 55, 45
1, 670267, Control_c, 0, 64, 89
1, 670274, Note_on_c, 0, 58, 48
1, 670282, Control_c, 0, 64, 85
1, 670296, Control_c, 0, 64, 81
1, 670311, Control_c, 0, 64, 76
1, 670326, Control_c, 0, 64, 71
1, 670341, Control_c, 0, 64, 66
1, 670356, Control_c, 0, 64, 62
1, 670371, Control_c, 0, 64, 51
1, 670385, Control_c, 0, 64, 0
1, 670472, Note_on_c, 0, 70, 82
1, 670533, Control_c, 0, 64, 31
1, 670548, Control_c, 0, 64, 54
1, 670564, Control_c, 0, 64, 63
1, 670565, Note_off_c, 0, 74, 58
1, 670579, Control_c, 0, 64, 66
1, 670594, Control_c, 0, 64, 71
1, 670609, Control_c, 0, 64, 76
1, 670624, Control_c, 0, 64, 80
1, 670638, Control_c, 0, 64, 83
1, 670653, Control_c, 0, 64, 86
1, 670668, Control_c, 0, 64, 89
1, 670682, Control_c, 0, 64, 90
1, 670687, Note_on_c, 0, 67, 85
1, 670697, Control_c, 0, 64, 92
1, 670699, Note_off_c, 0, 58, 59
1, 670705, Note_off_c, 0, 55, 55
1, 670712, Control_c, 0, 64, 93
1, 670720, Note_off_c, 0, 62, 38
1, 670727, Control_c, 0, 64, 94
1, 670742, Control_c, 0, 64, 94
1, 670756, Control_c, 0, 64, 95
1, 670788, Note_off_c, 0, 70, 63
1, 670897, Control_c, 0, 64, 94
1, 670927, Control_c, 0, 64, 94
1, 670938, Note_on_c, 0, 68, 79
1, 670942, Control_c, 0, 64, 93
1, 670956, Control_c, 0, 64, 91
1, 670971, Control_c, 0, 64, 88
1, 670979, Note_on_c, 0, 62, 46
1, 670985, Note_on_c, 0, 53, 39
1, 670986, Control_c, 0, 64, 84
1, 670991, Note_on_c, 0, 56, 38
1, 670996, Note_on_c, 0, 58, 31
1, 671001, Control_c, 0, 64, 82
1, 671015, Control_c, 0, 64, 82
1, 671023, Note_off_c, 0, 67, 58
1, 671030, Control_c, 0, 64, 80
1, 671045, Control_c, 0, 64, 77
1, 671060, Control_c, 0, 64, 73
1, 671075, Control_c, 0, 64, 67
1, 671089, Control_c, 0, 64, 64
1, 671104, Control_c, 0, 64, 63
1, 671119, Control_c, 0, 64, 62
1, 671134, Control_c, 0, 64, 57
1, 671149, Control_c, 0, 64, 43
1, 671164, Control_c, 0, 64, 0
1, 671210, Note_on_c, 0, 70, 79
1, 671347, Note_off_c, 0, 68, 56
1, 671387, Control_c, 0, 64, 21
1, 671402, Control_c, 0, 64, 39
1, 671417, Control_c, 0, 64, 50
1, 671431, Control_c, 0, 64, 55
1, 671446, Control_c, 0, 64, 57
1, 671461, Control_c, 0, 64, 59
1, 671476, Control_c, 0, 64, 59
1, 671491, Control_c, 0, 67, 8
1, 671505, Control_c, 0, 67, 12
1, 671520, Control_c, 0, 64, 60
1, 671520, Control_c, 0, 67, 16
1, 671535, Control_c, 0, 64, 63
1, 671535, Control_c, 0, 67, 20
1, 671550, Control_c, 0, 64, 66
1, 671550, Control_c, 0, 67, 25
1, 671551, Note_on_c, 0, 74, 78
1, 671565, Control_c, 0, 64, 70
1, 671565, Control_c, 0, 67, 30
1, 671579, Control_c, 0, 64, 75
1, 671579, Control_c, 0, 67, 34
1, 671594, Note_off_c, 0, 53, 46
1, 671594, Control_c, 0, 64, 80
1, 671594, Control_c, 0, 67, 38
1, 671596, Note_off_c, 0, 62, 51
1, 671608, Note_off_c, 0, 70, 58
1, 671609, Control_c, 0, 64, 85
1, 671609, Control_c, 0, 67, 44
1, 671629, Note_off_c, 0, 74, 66
1, 671631, Control_c, 0, 64, 89
1, 671631, Control_c, 0, 67, 51
1, 671646, Control_c, 0, 64, 93
1, 671646, Control_c, 0, 67, 59
1, 671660, Note_off_c, 0, 56, 50
1, 671661, Control_c, 0, 64, 95
1, 671661, Control_c, 0, 67, 66
1, 671676, Control_c, 0, 64, 98
1, 671676, Control_c, 0, 67, 73
1, 671677, Note_off_c, 0, 58, 42
1, 671691, Control_c, 0, 64, 101
1, 671691, Control_c, 0, 67, 79
1, 671705, Control_c, 0, 64, 104
1, 671705, Control_c, 0, 67, 84
1, 671720, Control_c, 0, 64, 106
1, 671720, Control_c, 0, 67, 89
1, 671735, Control_c, 0, 67, 94
1, 671750, Control_c, 0, 67, 99
1, 671765, Control_c, 0, 67, 105
1, 671779, Control_c, 0, 67, 111
1, 671794, Control_c, 0, 67, 116
1, 671809, Control_c, 0, 67, 120
1, 671824, Control_c, 0, 67, 125
1, 671838, Control_c, 0, 67, 127
1, 671868, Control_c, 0, 64, 105
1, 671883, Control_c, 0, 64, 103
1, 671898, Control_c, 0, 64, 103
1, 671927, Control_c, 0, 64, 102
1, 671942, Control_c, 0, 64, 102
1, 671957, Control_c, 0, 64, 101
1, 671972, Control_c, 0, 64, 99
1, 671987, Control_c, 0, 64, 99
1, 672016, Control_c, 0, 64, 98
1, 672031, Control_c, 0, 64, 97
1, 672046, Control_c, 0, 64, 96
1, 672061, Control_c, 0, 64, 95
1, 672076, Control_c, 0, 64, 95
1, 672091, Control_c, 0, 64, 94
1, 672105, Control_c, 0, 64, 91
1, 672120, Control_c, 0, 64, 87
1, 672133, Note_on_c, 0, 75, 52
1, 672135, Control_c, 0, 64, 85
1, 672151, Control_c, 0, 64, 83
1, 672165, Note_on_c, 0, 63, 14
1, 672165, Control_c, 0, 64, 82
1, 672177, Note_on_c, 0, 55, 35
1, 672180, Control_c, 0, 64, 79
1, 672190, Note_on_c, 0, 58, 23
1, 672194, Note_on_c, 0, 51, 9
1, 672195, Control_c, 0, 64, 76
1, 672210, Control_c, 0, 64, 72
1, 672225, Control_c, 0, 64, 69
1, 672240, Control_c, 0, 64, 67
1, 672254, Control_c, 0, 64, 65
1, 672269, Control_c, 0, 64, 64
1, 672284, Control_c, 0, 64, 63
1, 672299, Control_c, 0, 64, 61
1, 672314, Control_c, 0, 64, 60
1, 672328, Control_c, 0, 64, 57
1, 672343, Control_c, 0, 64, 49
1, 672358, Control_c, 0, 64, 37
1, 672373, Control_c, 0, 64, 17
1, 672395, Control_c, 0, 64, 0
1, 672532, Note_on_c, 0, 70, 49
1, 672601, Control_c, 0, 64, 43
1, 672616, Control_c, 0, 64, 56
1, 672631, Control_c, 0, 64, 62
1, 672645, Control_c, 0, 64, 65
1, 672660, Control_c, 0, 64, 66
1, 672675, Control_c, 0, 64, 67
1, 672690, Control_c, 0, 64, 69
1, 672705, Control_c, 0, 64, 71
1, 672720, Control_c, 0, 64, 72
1, 672734, Control_c, 0, 64, 74
1, 672749, Control_c, 0, 64, 76
1, 672764, Control_c, 0, 64, 79
1, 672766, Note_on_c, 0, 67, 47
1, 672771, Note_off_c, 0, 70, 50
1, 672778, Control_c, 0, 64, 81
1, 672793, Control_c, 0, 64, 82
1, 672808, Control_c, 0, 64, 83
1, 672823, Control_c, 0, 64, 84
1, 672836, Note_off_c, 0, 75, 29
1, 672838, Control_c, 0, 64, 85
1, 672852, Control_c, 0, 64, 85
1, 672875, Note_off_c, 0, 67, 37
1, 672941, Control_c, 0, 64, 84
1, 672957, Control_c, 0, 64, 84
1, 672977, Note_on_c, 0, 67, 54
1, 673001, Control_c, 0, 64, 83
1, 673016, Control_c, 0, 64, 82
1, 673031, Control_c, 0, 64, 81
1, 673046, Control_c, 0, 64, 81
1, 673128, Control_c, 0, 64, 80
1, 673177, Note_on_c, 0, 70, 52
1, 673188, Note_off_c, 0, 67, 51
1, 673231, Note_off_c, 0, 63, 42
1, 673233, Note_off_c, 0, 55, 42
1, 673249, Note_off_c, 0, 51, 45
1, 673318, Note_off_c, 0, 58, 42
1, 673379, Note_on_c, 0, 75, 60
1, 673411, Note_off_c, 0, 70, 61
1, 673528, Control_c, 0, 64, 80
1, 673543, Control_c, 0, 64, 79
1, 673588, Note_on_c, 0, 79, 61
1, 673602, Control_c, 0, 64, 79
1, 673619, Note_on_c, 0, 63, 40
1, 673626, Note_on_c, 0, 51, 34
1, 673632, Control_c, 0, 64, 78
1, 673666, Note_off_c, 0, 75, 38
1, 673796, Control_c, 0, 64, 79
1, 673805, Note_on_c, 0, 75, 56
1, 673829, Note_on_c, 0, 58, 49
1, 673854, Note_off_c, 0, 63, 34
1, 673855, Control_c, 0, 64, 79
1, 673858, Note_off_c, 0, 79, 38
1, 673892, Control_c, 0, 64, 80
1, 673909, Note_off_c, 0, 51, 43
1, 673951, Control_c, 0, 64, 80
1, 673989, Note_off_c, 0, 75, 55
1, 674010, Note_on_c, 0, 70, 52
1, 674011, Note_on_c, 0, 55, 45
1, 674025, Control_c, 0, 64, 81
1, 674046, Note_off_c, 0, 58, 25
1, 674066, Note_off_c, 0, 55, 55
1, 674067, Note_off_c, 0, 70, 53
1, 674188, Control_c, 0, 64, 81
1, 674207, Note_on_c, 0, 70, 50
1, 674224, Note_on_c, 0, 55, 41
1, 674277, Control_c, 0, 64, 82
1, 674306, Control_c, 0, 64, 82
1, 674351, Control_c, 0, 64, 83
1, 674365, Control_c, 0, 64, 84
1, 674380, Control_c, 0, 64, 85
1, 674383, Note_off_c, 0, 55, 46
1, 674395, Control_c, 0, 64, 86
1, 674410, Note_on_c, 0, 75, 60
1, 674413, Note_on_c, 0, 58, 42
1, 674425, Control_c, 0, 64, 86
1, 674439, Note_off_c, 0, 70, 51
1, 674440, Control_c, 0, 64, 87
1, 674455, Control_c, 0, 64, 88
1, 674470, Control_c, 0, 64, 90
1, 674485, Control_c, 0, 64, 90
1, 674514, Control_c, 0, 64, 91
1, 674544, Control_c, 0, 64, 91
1, 674559, Control_c, 0, 64, 92
1, 674598, Note_off_c, 0, 58, 44
1, 674626, Note_on_c, 0, 79, 60
1, 674631, Note_on_c, 0, 63, 49
1, 674646, Note_off_c, 0, 75, 46
1, 674661, Note_off_c, 0, 63, 62
1, 674717, Note_off_c, 0, 79, 38
1, 674848, Control_c, 0, 64, 91
1, 674878, Control_c, 0, 64, 90
1, 674913, Note_on_c, 0, 39, 45
1, 674918, Note_on_c, 0, 79, 50
1, 674918, Note_on_c, 0, 82, 60
1, 674937, Control_c, 0, 64, 90
1, 674967, Control_c, 0, 64, 89
1, 675045, Poly_aftertouch_c, 0, 43, 127
1, 675048, Note_on_c, 0, 43, 3
1, 675069, Note_off_c, 0, 79, 59
1, 675106, Note_off_c, 0, 43, 41
1, 675189, Note_on_c, 0, 79, 69
1, 675215, Note_on_c, 0, 46, 44
1, 675217, Note_on_c, 0, 75, 52
1, 675254, Note_off_c, 0, 46, 50
1, 675281, Note_off_c, 0, 82, 63
1, 675305, Note_off_c, 0, 75, 36
1, 675379, Note_off_c, 0, 39, 36
1, 675428, Note_on_c, 0, 46, 40
1, 675434, Note_on_c, 0, 75, 65
1, 675441, Note_off_c, 0, 79, 51
1, 675463, Note_on_c, 0, 70, 49
1, 675465, Note_on_c, 0, 51, 49
1, 675470, Note_off_c, 0, 46, 57
1, 675512, Note_off_c, 0, 51, 57
1, 675528, Note_off_c, 0, 75, 55
1, 675561, Note_off_c, 0, 70, 59
1, 675650, Note_on_c, 0, 79, 66
1, 675670, Note_on_c, 0, 46, 32
1, 675675, Note_on_c, 0, 75, 22
1, 675680, Note_on_c, 0, 43, 34
1, 675718, Note_off_c, 0, 75, 48
1, 675771, Note_off_c, 0, 46, 35
1, 675872, Note_on_c, 0, 75, 62
1, 675874, Note_off_c, 0, 79, 50
1, 675888, Note_on_c, 0, 46, 44
1, 675888, Note_on_c, 0, 51, 48
1, 675892, Note_on_c, 0, 70, 55
1, 675934, Note_off_c, 0, 51, 57
1, 675937, Note_off_c, 0, 70, 55
1, 676002, Note_off_c, 0, 43, 33
1, 676096, Note_off_c, 0, 75, 61
1, 676103, Note_on_c, 0, 70, 47
1, 676131, Note_on_c, 0, 67, 48
1, 676134, Note_on_c, 0, 51, 34
1, 676136, Note_off_c, 0, 46, 42
1, 676138, Note_on_c, 0, 55, 36
1, 676154, Control_c, 0, 64, 89
1, 676164, Note_off_c, 0, 70, 60
1, 676177, Note_off_c, 0, 51, 60
1, 676216, Note_off_c, 0, 55, 55
1, 676218, Note_off_c, 0, 67, 56
1, 676227, Control_c, 0, 64, 88
1, 676242, Control_c, 0, 64, 88
1, 676273, Control_c, 0, 64, 87
1, 676302, Control_c, 0, 64, 87
1, 676317, Control_c, 0, 64, 86
1, 676332, Control_c, 0, 64, 85
1, 676356, Note_on_c, 0, 75, 58
1, 676371, Note_on_c, 0, 70, 43
1, 676383, Note_on_c, 0, 51, 41
1, 676386, Note_on_c, 0, 46, 37
1, 676420, Control_c, 0, 64, 85
1, 676440, Note_off_c, 0, 70, 52
1, 676443, Note_off_c, 0, 51, 55
1, 676619, Note_on_c, 0, 67, 48
1, 676624, Note_on_c, 0, 70, 41
1, 676632, Note_on_c, 0, 55, 46
1, 676640, Note_off_c, 0, 75, 38
1, 676676, Note_on_c, 0, 51, 27
1, 676707, Note_off_c, 0, 55, 54
1, 676711, Note_off_c, 0, 51, 54
1, 676723, Note_off_c, 0, 67, 52
1, 676732, Control_c, 0, 64, 84
1, 676791, Control_c, 0, 64, 84
1, 676850, Control_c, 0, 64, 83
1, 676887, Note_off_c, 0, 70, 59
1, 676901, Note_on_c, 0, 67, 40
1, 676914, Note_on_c, 0, 63, 43
1, 676917, Control_c, 0, 64, 83
1, 676931, Note_on_c, 0, 55, 30
1, 676935, Note_on_c, 0, 58, 32
1, 676977, Control_c, 0, 64, 82
1, 677027, Poly_aftertouch_c, 0, 51, 127
1, 677030, Note_off_c, 0, 46, 36
1, 677050, Control_c, 0, 64, 82
1, 677063, Note_off_c, 0, 58, 33
1, 677065, Control_c, 0, 64, 81
1, 677080, Control_c, 0, 64, 81
1, 677082, Note_off_c, 0, 55, 44
1, 677085, Poly_aftertouch_c, 0, 51, 0
1, 677124, Control_c, 0, 64, 80
1, 677139, Control_c, 0, 64, 80
1, 677154, Control_c, 0, 64, 79
1, 677168, Control_c, 0, 64, 79
1, 677181, Note_off_c, 0, 63, 32
1, 677212, Note_on_c, 0, 70, 56
1, 677228, Control_c, 0, 64, 78
1, 677272, Control_c, 0, 64, 78
1, 677284, Note_off_c, 0, 67, 38
1, 677302, Control_c, 0, 64, 77
1, 677316, Control_c, 0, 64, 77
1, 677421, Control_c, 0, 64, 76
1, 677465, Control_c, 0, 64, 76
1, 677480, Control_c, 0, 64, 75
1, 677495, Control_c, 0, 64, 74
1, 677539, Control_c, 0, 64, 74
1, 677549, Note_on_c, 0, 68, 48
1, 677554, Control_c, 0, 64, 73
1, 677568, Control_c, 0, 64, 71
1, 677573, Note_on_c, 0, 53, 34
1, 677576, Note_on_c, 0, 46, 23
1, 677576, Note_on_c, 0, 60, 34
1, 677583, Control_c, 0, 64, 69
1, 677598, Control_c, 0, 64, 68
1, 677621, Control_c, 0, 64, 66
1, 677635, Control_c, 0, 64, 64
1, 677650, Control_c, 0, 64, 60
1, 677665, Control_c, 0, 64, 48
1, 677680, Control_c, 0, 64, 42
1, 677695, Control_c, 0, 64, 48
1, 677707, Note_off_c, 0, 70, 35
1, 677710, Control_c, 0, 64, 56
1, 677724, Control_c, 0, 64, 59
1, 677739, Control_c, 0, 64, 61
1, 677755, Control_c, 0, 64, 65
1, 677770, Control_c, 0, 64, 69
1, 677784, Control_c, 0, 64, 74
1, 677799, Control_c, 0, 64, 79
1, 677802, Note_off_c, 0, 46, 43
1, 677814, Control_c, 0, 64, 82
1, 677820, Note_off_c, 0, 60, 39
1, 677829, Control_c, 0, 64, 83
1, 677905, Note_off_c, 0, 53, 42
1, 677933, Control_c, 0, 64, 82
1, 677947, Control_c, 0, 64, 82
1, 677962, Control_c, 0, 64, 81
1, 677977, Control_c, 0, 64, 80
1, 677990, Note_off_c, 0, 68, 33
1, 677992, Control_c, 0, 64, 79
1, 678005, Note_on_c, 0, 65, 41
1, 678006, Control_c, 0, 64, 77
1, 678014, Note_on_c, 0, 46, 29
1, 678021, Control_c, 0, 64, 75
1, 678023, Note_on_c, 0, 62, 23
1, 678036, Control_c, 0, 64, 72
1, 678039, Note_on_c, 0, 58, 21
1, 678051, Control_c, 0, 64, 70
1, 678066, Control_c, 0, 64, 68
1, 678080, Control_c, 0, 64, 67
1, 678095, Control_c, 0, 64, 65
1, 678110, Control_c, 0, 64, 62
1, 678125, Control_c, 0, 64, 62
1, 678154, Control_c, 0, 64, 63
1, 678169, Control_c, 0, 64, 64
1, 678184, Control_c, 0, 64, 65
1, 678199, Control_c, 0, 64, 67
1, 678214, Control_c, 0, 64, 70
1, 678229, Control_c, 0, 64, 72
1, 678238, Note_off_c, 0, 62, 48
1, 678244, Control_c, 0, 64, 74
1, 678258, Control_c, 0, 64, 76
1, 678267, Note_off_c, 0, 65, 52
1, 678273, Control_c, 0, 64, 77
1, 678288, Control_c, 0, 64, 79
1, 678299, Note_off_c, 0, 46, 41
1, 678303, Control_c, 0, 64, 81
1, 678311, Note_off_c, 0, 58, 42
1, 678318, Control_c, 0, 64, 82
1, 678458, Control_c, 0, 64, 82
1, 678517, Control_c, 0, 64, 81
1, 678548, Control_c, 0, 64, 81
1, 678652, Control_c, 0, 64, 80
1, 678667, Control_c, 0, 64, 80
1, 678682, Control_c, 0, 64, 79
1, 678711, Control_c, 0, 64, 79
1, 678726, Control_c, 0, 64, 78
1, 678741, Control_c, 0, 64, 77
1, 678756, Control_c, 0, 64, 77
1, 678770, Control_c, 0, 64, 76
1, 678778, Note_on_c, 0, 75, 47
1, 678800, Note_on_c, 0, 58, 23
1, 678803, Note_on_c, 0, 67, 22
1, 678814, Note_on_c, 0, 51, 23
1, 678815, Control_c, 0, 64, 75
1, 678817, Note_on_c, 0, 55, 24
1, 678829, Control_c, 0, 64, 74
1, 678844, Control_c, 0, 64, 74
1, 678889, Control_c, 0, 64, 73
1, 678903, Control_c, 0, 64, 71
1, 678918, Control_c, 0, 64, 71
1, 678936, Note_off_c, 0, 67, 26
1, 678945, Note_off_c, 0, 75, 59
1, 678955, Note_on_c, 0, 74, 56
1, 678962, Control_c, 0, 64, 70
1, 678977, Control_c, 0, 64, 70
1, 678992, Control_c, 0, 64, 69
1, 679036, Control_c, 0, 64, 69
1, 679051, Control_c, 0, 64, 68
1, 679066, Control_c, 0, 64, 68
1, 679081, Control_c, 0, 64, 67
1, 679082, Note_on_c, 0, 75, 58
1, 679096, Control_c, 0, 64, 67
1, 679147, Control_c, 0, 64, 66
1, 679162, Control_c, 0, 64, 66
1, 679177, Control_c, 0, 64, 65
1, 679207, Control_c, 0, 64, 65
1, 679221, Control_c, 0, 64, 64
1, 679223, Note_off_c, 0, 74, 23
1, 679227, Note_on_c, 0, 70, 58
1, 679236, Control_c, 0, 64, 64
1, 679267, Control_c, 0, 64, 63
1, 679282, Control_c, 0, 64, 62
1, 679296, Control_c, 0, 64, 58
1, 679308, Note_off_c, 0, 75, 38
1, 679311, Control_c, 0, 64, 50
1, 679326, Control_c, 0, 64, 41
1, 679342, Control_c, 0, 64, 35
1, 679357, Control_c, 0, 64, 34
1, 679376, Note_on_c, 0, 67, 58
1, 679392, Note_off_c, 0, 70, 57
1, 679401, Control_c, 0, 64, 41
1, 679416, Control_c, 0, 64, 53
1, 679431, Control_c, 0, 64, 61
1, 679445, Control_c, 0, 64, 65
1, 679454, Note_off_c, 0, 67, 59
1, 679460, Control_c, 0, 64, 67
1, 679475, Control_c, 0, 64, 69
1, 679490, Control_c, 0, 64, 71
1, 679505, Control_c, 0, 64, 74
1, 679516, Note_off_c, 0, 58, 50
1, 679519, Control_c, 0, 64, 74
1, 679547, Note_off_c, 0, 55, 44
1, 679549, Note_off_c, 0, 51, 55
1, 679606, Note_on_c, 0, 68, 57
1, 679638, Control_c, 0, 64, 74
1, 679660, Note_on_c, 0, 67, 61
1, 679668, Control_c, 0, 64, 73
1, 679671, Note_off_c, 0, 68, 61
1, 679727, Control_c, 0, 64, 72
1, 679742, Control_c, 0, 64, 72
1, 679757, Control_c, 0, 64, 71
1, 679786, Control_c, 0, 64, 70
1, 679790, Note_on_c, 0, 66, 67
1, 679791, Note_off_c, 0, 67, 60
1, 679801, Control_c, 0, 64, 70
1, 679816, Control_c, 0, 64, 68
1, 679831, Control_c, 0, 64, 66
1, 679845, Control_c, 0, 64, 66
1, 679860, Control_c, 0, 64, 67
1, 679913, Control_c, 0, 64, 66
1, 679924, Note_off_c, 0, 66, 62
1, 679925, Note_on_c, 0, 67, 70
1, 679927, Control_c, 0, 64, 65
1, 679942, Control_c, 0, 64, 65
1, 679957, Control_c, 0, 64, 64
1, 680001, Control_c, 0, 64, 64
1, 680016, Control_c, 0, 64, 62
1, 680031, Control_c, 0, 64, 60
1, 680062, Note_on_c, 0, 70, 73
1, 680075, Note_off_c, 0, 67, 56
1, 680090, Control_c, 0, 64, 59
1, 680105, Control_c, 0, 64, 53
1, 680119, Control_c, 0, 64, 40
1, 680134, Control_c, 0, 64, 0
1, 680194, Control_c, 0, 64, 24
1, 680205, Note_on_c, 0, 75, 73
1, 680209, Control_c, 0, 64, 40
1, 680224, Control_c, 0, 64, 53
1, 680234, Note_off_c, 0, 70, 61
1, 680239, Control_c, 0, 64, 62
1, 680254, Control_c, 0, 64, 67
1, 680268, Control_c, 0, 64, 72
1, 680283, Note_off_c, 0, 75, 62
1, 680283, Control_c, 0, 64, 77
1, 680298, Control_c, 0, 64, 81
1, 680313, Control_c, 0, 64, 85
1, 680328, Control_c, 0, 64, 86
1, 680432, Control_c, 0, 64, 85
1, 680446, Control_c, 0, 64, 84
1, 680461, Control_c, 0, 64, 82
1, 680476, Control_c, 0, 64, 78
1, 680491, Control_c, 0, 64, 74
1, 680506, Control_c, 0, 64, 71
1, 680512, Note_on_c, 0, 79, 59
1, 680521, Control_c, 0, 64, 70
1, 680536, Control_c, 0, 64, 71
1, 680536, Note_on_c, 0, 51, 21
1, 680546, Note_on_c, 0, 63, 38
1, 680548, Note_on_c, 0, 67, 26
1, 680550, Control_c, 0, 64, 72
1, 680565, Control_c, 0, 64, 73
1, 680580, Control_c, 0, 64, 75
1, 680586, Note_off_c, 0, 51, 51
1, 680594, Control_c, 0, 64, 76
1, 680616, Control_c, 0, 64, 76
1, 680646, Control_c, 0, 64, 77
1, 680661, Control_c, 0, 64, 77
1, 680668, Note_on_c, 0, 78, 68
1, 680676, Control_c, 0, 64, 78
1, 680679, Note_off_c, 0, 63, 57
1, 680686, Note_off_c, 0, 79, 57
1, 680695, Note_on_c, 0, 62, 44
1, 680721, Note_off_c, 0, 67, 38
1, 680764, Control_c, 0, 64, 77
1, 680771, Note_off_c, 0, 62, 61
1, 680779, Control_c, 0, 64, 77
1, 680803, Note_on_c, 0, 79, 72
1, 680803, Note_off_c, 0, 78, 61
1, 680810, Note_on_c, 0, 63, 56
1, 680838, Control_c, 0, 64, 76
1, 680853, Control_c, 0, 64, 75
1, 680867, Control_c, 0, 64, 74
1, 680882, Control_c, 0, 64, 73
1, 680926, Control_c, 0, 64, 72
1, 680929, Note_on_c, 0, 75, 75
1, 680940, Note_off_c, 0, 63, 51
1, 680943, Control_c, 0, 64, 71
1, 680945, Note_on_c, 0, 58, 59
1, 680948, Note_off_c, 0, 79, 56
1, 680958, Control_c, 0, 64, 69
1, 680972, Control_c, 0, 64, 66
1, 680987, Control_c, 0, 64, 65
1, 681002, Control_c, 0, 64, 64
1, 681016, Control_c, 0, 64, 64
1, 681031, Control_c, 0, 64, 61
1, 681046, Control_c, 0, 64, 51
1, 681061, Control_c, 0, 64, 31
1, 681074, Note_off_c, 0, 75, 61
1, 681075, Note_on_c, 0, 70, 70
1, 681076, Control_c, 0, 64, 33
1, 681089, Note_on_c, 0, 55, 56
1, 681090, Control_c, 0, 64, 49
1, 681105, Control_c, 0, 64, 60
1, 681120, Control_c, 0, 64, 64
1, 681123, Note_off_c, 0, 58, 55
1, 681135, Control_c, 0, 64, 68
1, 681136, Note_off_c, 0, 70, 64
1, 681140, Note_off_c, 0, 55, 62
1, 681150, Control_c, 0, 64, 73
1, 681165, Control_c, 0, 64, 77
1, 681180, Control_c, 0, 64, 81
1, 681195, Control_c, 0, 64, 83
1, 681209, Control_c, 0, 64, 84
1, 681269, Control_c, 0, 64, 83
1, 681283, Control_c, 0, 64, 82
1, 681298, Control_c, 0, 64, 81
1, 681310, Note_on_c, 0, 72, 69
1, 681313, Control_c, 0, 64, 81
1, 681328, Control_c, 0, 64, 80
1, 681329, Note_on_c, 0, 56, 46
1, 681342, Control_c, 0, 64, 79
1, 681346, Note_on_c, 0, 55, 56
1, 681353, Note_on_c, 0, 70, 73
1, 681365, Control_c, 0, 64, 78
1, 681379, Control_c, 0, 64, 76
1, 681381, Note_off_c, 0, 72, 58
1, 681394, Control_c, 0, 64, 75
1, 681415, Note_off_c, 0, 56, 49
1, 681439, Control_c, 0, 64, 74
1, 681454, Control_c, 0, 64, 73
1, 681469, Control_c, 0, 64, 70
1, 681484, Control_c, 0, 64, 69
1, 681493, Note_on_c, 0, 54, 55
1, 681497, Note_on_c, 0, 69, 74
1, 681511, Note_off_c, 0, 55, 34
1, 681515, Note_off_c, 0, 70, 61
1, 681542, Control_c, 0, 64, 68
1, 681557, Control_c, 0, 64, 67
1, 681572, Control_c, 0, 64, 65
1, 681587, Control_c, 0, 64, 65
1, 681630, Note_on_c, 0, 70, 76
1, 681644, Note_on_c, 0, 55, 60
1, 681675, Note_off_c, 0, 69, 60
1, 681675, Note_off_c, 0, 54, 58
1, 681720, Control_c, 0, 64, 64
1, 681735, Control_c, 0, 64, 64
1, 681751, Control_c, 0, 64, 63
1, 681774, Note_on_c, 0, 75, 76
1, 681782, Note_on_c, 0, 58, 61
1, 681794, Note_off_c, 0, 55, 63
1, 681795, Control_c, 0, 64, 62
1, 681810, Control_c, 0, 64, 61
1, 681825, Control_c, 0, 64, 61
1, 681830, Note_off_c, 0, 70, 61
1, 681839, Control_c, 0, 64, 61
1, 681884, Control_c, 0, 64, 62
1, 681899, Control_c, 0, 64, 63
1, 681913, Control_c, 0, 64, 65
1, 681928, Control_c, 0, 64, 68
1, 681943, Control_c, 0, 64, 70
1, 681951, Note_on_c, 0, 79, 74
1, 681958, Control_c, 0, 64, 73
1, 681973, Control_c, 0, 64, 77
1, 681978, Note_on_c, 0, 63, 64
1, 681988, Control_c, 0, 64, 82
1, 682002, Note_off_c, 0, 75, 62
1, 682002, Control_c, 0, 64, 88
1, 682007, Note_off_c, 0, 58, 57
1, 682017, Control_c, 0, 64, 91
1, 682032, Control_c, 0, 64, 92
1, 682041, Note_off_c, 0, 79, 63
1, 682047, Control_c, 0, 64, 94
1, 682048, Note_off_c, 0, 63, 63
1, 682062, Control_c, 0, 64, 96
1, 682077, Control_c, 0, 64, 101
1, 682092, Control_c, 0, 64, 104
1, 682113, Control_c, 0, 64, 104
1, 682277, Control_c, 0, 64, 104
1, 682321, Control_c, 0, 64, 103
1, 682336, Control_c, 0, 64, 103
1, 682340, Note_on_c, 0, 82, 80
1, 682348, Note_on_c, 0, 39, 49
1, 682351, Control_c, 0, 64, 102
1, 682360, Note_on_c, 0, 79, 64
1, 682366, Control_c, 0, 64, 100
1, 682381, Control_c, 0, 64, 98
1, 682396, Control_c, 0, 64, 97
1, 682411, Control_c, 0, 64, 97
1, 682426, Control_c, 0, 64, 96
1, 682440, Control_c, 0, 64, 94
1, 682455, Control_c, 0, 64, 92
1, 682470, Control_c, 0, 64, 90
1, 682485, Control_c, 0, 64, 89
1, 682529, Control_c, 0, 64, 88
1, 682545, Control_c, 0, 64, 87
1, 682560, Control_c, 0, 64, 87
1, 682571, Note_on_c, 0, 84, 83
1, 682577, Note_on_c, 0, 80, 68
1, 682579, Note_off_c, 0, 79, 62
1, 682589, Control_c, 0, 64, 86
1, 682591, Note_on_c, 0, 38, 47
1, 682604, Control_c, 0, 64, 84
1, 682619, Control_c, 0, 64, 82
1, 682620, Note_off_c, 0, 82, 62
1, 682634, Control_c, 0, 64, 80
1, 682639, Note_off_c, 0, 39, 35
1, 682649, Control_c, 0, 64, 80
1, 682663, Control_c, 0, 64, 79
1, 682678, Control_c, 0, 64, 77
1, 682693, Control_c, 0, 64, 76
1, 682723, Control_c, 0, 64, 78
1, 682737, Control_c, 0, 64, 81
1, 682741, Note_on_c, 0, 82, 85
1, 682751, Note_on_c, 0, 39, 62
1, 682752, Note_on_c, 0, 79, 72
1, 682752, Control_c, 0, 64, 85
1, 682760, Note_off_c, 0, 80, 62
1, 682762, Note_off_c, 0, 84, 65
1, 682767, Control_c, 0, 64, 86
1, 682781, Control_c, 0, 64, 87
1, 682796, Control_c, 0, 64, 88
1, 682801, Note_off_c, 0, 38, 42
1, 682801, Note_off_c, 0, 82, 64
1, 682815, Note_off_c, 0, 79, 60
1, 682906, Note_on_c, 0, 79, 72
1, 682908, Control_c, 0, 64, 87
1, 682910, Note_on_c, 0, 75, 67
1, 682920, Note_on_c, 0, 43, 62
1, 682921, Note_off_c, 0, 39, 58
1, 682923, Control_c, 0, 64, 86
1, 682937, Control_c, 0, 64, 84
1, 682952, Control_c, 0, 64, 83
1, 682967, Control_c, 0, 64, 82
1, 682992, Note_off_c, 0, 75, 63
1, 682996, Control_c, 0, 64, 81
1, 683011, Control_c, 0, 64, 78
1, 683026, Control_c, 0, 64, 74
1, 683041, Control_c, 0, 64, 69
1, 683056, Control_c, 0, 64, 63
1, 683070, Control_c, 0, 64, 58
1, 683085, Control_c, 0, 64, 51
1, 683088, Note_on_c, 0, 75, 75
1, 683091, Note_on_c, 0, 67, 57
1, 683097, Note_off_c, 0, 43, 63
1, 683100, Control_c, 0, 64, 50
1, 683102, Note_on_c, 0, 46, 51
1, 683114, Control_c, 0, 64, 53
1, 683129, Control_c, 0, 64, 57
1, 683140, Note_off_c, 0, 79, 53
1, 683144, Control_c, 0, 64, 61
1, 683159, Note_off_c, 0, 67, 59
1, 683159, Control_c, 0, 64, 64
1, 683174, Control_c, 0, 64, 67
1, 683189, Control_c, 0, 64, 71
1, 683204, Control_c, 0, 64, 75
1, 683215, Note_off_c, 0, 75, 63
1, 683219, Control_c, 0, 64, 79
1, 683234, Control_c, 0, 64, 82
1, 683248, Control_c, 0, 64, 83
1, 683263, Control_c, 0, 64, 84
1, 683307, Control_c, 0, 64, 84
1, 683338, Control_c, 0, 64, 84
1, 683382, Note_off_c, 0, 46, 46
1, 683398, Control_c, 0, 64, 83
1, 683412, Control_c, 0, 64, 81
1, 683427, Control_c, 0, 64, 80
1, 683436, Note_on_c, 0, 79, 71
1, 683442, Control_c, 0, 64, 79
1, 683461, Note_on_c, 0, 43, 46
1, 683471, Note_on_c, 0, 75, 41
1, 683472, Control_c, 0, 64, 79
1, 683486, Control_c, 0, 64, 78
1, 683501, Control_c, 0, 64, 76
1, 683516, Control_c, 0, 64, 73
1, 683521, Note_off_c, 0, 75, 44
1, 683531, Control_c, 0, 64, 71
1, 683545, Control_c, 0, 64, 70
1, 683560, Control_c, 0, 64, 69
1, 683575, Control_c, 0, 64, 67
1, 683590, Control_c, 0, 64, 64
1, 683605, Control_c, 0, 64, 61
1, 683627, Control_c, 0, 64, 59
1, 683639, Note_on_c, 0, 77, 71
1, 683642, Note_on_c, 0, 80, 75
1, 683642, Control_c, 0, 64, 58
1, 683651, Note_on_c, 0, 41, 43
1, 683657, Control_c, 0, 64, 59
1, 683669, Note_off_c, 0, 43, 41
1, 683676, Note_off_c, 0, 79, 57
1, 683687, Control_c, 0, 64, 60
1, 683701, Control_c, 0, 64, 61
1, 683716, Control_c, 0, 64, 62
1, 683731, Control_c, 0, 64, 64
1, 683745, Control_c, 0, 64, 65
1, 683760, Control_c, 0, 64, 68
1, 683775, Control_c, 0, 64, 71
1, 683790, Control_c, 0, 64, 73
1, 683805, Note_on_c, 0, 79, 70
1, 683805, Control_c, 0, 64, 75
1, 683807, Note_on_c, 0, 43, 50
1, 683819, Control_c, 0, 64, 78
1, 683820, Note_on_c, 0, 75, 60
1, 683824, Note_off_c, 0, 80, 48
1, 683827, Note_off_c, 0, 41, 42
1, 683827, Note_off_c, 0, 77, 62
1, 683834, Control_c, 0, 64, 79
1, 683845, Note_off_c, 0, 79, 61
1, 683849, Control_c, 0, 64, 79
1, 683874, Note_off_c, 0, 75, 60
1, 683879, Control_c, 0, 64, 79
1, 683908, Control_c, 0, 64, 78
1, 683923, Control_c, 0, 64, 78
1, 683937, Control_c, 0, 64, 76
1, 683945, Note_off_c, 0, 43, 61
1, 683952, Control_c, 0, 64, 75
1, 683967, Control_c, 0, 64, 74
1, 683970, Note_on_c, 0, 46, 51
1, 683976, Note_on_c, 0, 70, 60
1, 683980, Note_on_c, 0, 75, 63
1, 683982, Control_c, 0, 64, 74
1, 683997, Control_c, 0, 64, 73
1, 684012, Control_c, 0, 64, 73
1, 684027, Control_c, 0, 64, 71
1, 684041, Control_c, 0, 64, 70
1, 684056, Control_c, 0, 64, 69
1, 684071, Control_c, 0, 64, 68
1, 684086, Control_c, 0, 64, 68
1, 684101, Note_off_c, 0, 70, 60
1, 684101, Control_c, 0, 64, 66
1, 684116, Control_c, 0, 64, 65
1, 684131, Control_c, 0, 64, 63
1, 684146, Control_c, 0, 64, 62
1, 684161, Control_c, 0, 64, 60
1, 684176, Control_c, 0, 64, 58
1, 684190, Control_c, 0, 64, 51
1, 684193, Note_off_c, 0, 46, 61
1, 684197, Note_on_c, 0, 70, 58
1, 684198, Note_on_c, 0, 51, 45
1, 684199, Note_on_c, 0, 67, 43
1, 684205, Control_c, 0, 64, 36
1, 684220, Control_c, 0, 64, 0
1, 684265, Note_off_c, 0, 75, 62
1, 684295, Control_c, 0, 64, 21
1, 684309, Control_c, 0, 64, 49
1, 684324, Control_c, 0, 64, 60
1, 684339, Control_c, 0, 64, 63
1, 684360, Control_c, 0, 64, 65
1, 684375, Control_c, 0, 64, 68
1, 684390, Control_c, 0, 64, 72
1, 684405, Control_c, 0, 64, 75
1, 684420, Control_c, 0, 64, 76
1, 684423, Note_off_c, 0, 67, 56
1, 684435, Control_c, 0, 64, 77
1, 684495, Control_c, 0, 64, 76
1, 684503, Note_off_c, 0, 70, 56
1, 684539, Note_off_c, 0, 51, 35
1, 684539, Control_c, 0, 64, 76
1, 684554, Control_c, 0, 64, 75
1, 684568, Control_c, 0, 64, 74
1, 684573, Note_on_c, 0, 75, 55
1, 684583, Control_c, 0, 64, 73
1, 684585, Note_on_c, 0, 46, 36
1, 684596, Note_on_c, 0, 67, 39
1, 684598, Control_c, 0, 64, 73
1, 684613, Control_c, 0, 64, 72
1, 684628, Control_c, 0, 64, 71
1, 684642, Control_c, 0, 64, 70
1, 684657, Control_c, 0, 64, 69
1, 684672, Control_c, 0, 64, 69
1, 684702, Control_c, 0, 64, 68
1, 684716, Control_c, 0, 64, 67
1, 684731, Control_c, 0, 64, 65
1, 684746, Control_c, 0, 64, 64
1, 684760, Note_off_c, 0, 46, 38
1, 684760, Control_c, 0, 64, 63
1, 684790, Control_c, 0, 64, 64
1, 684799, Note_on_c, 0, 45, 35
1, 684804, Note_on_c, 0, 77, 55
1, 684805, Control_c, 0, 64, 64
1, 684820, Control_c, 0, 64, 65
1, 684830, Note_off_c, 0, 75, 56
1, 684834, Control_c, 0, 64, 66
1, 684849, Control_c, 0, 64, 68
1, 684864, Control_c, 0, 64, 70
1, 684879, Control_c, 0, 64, 72
1, 684894, Control_c, 0, 64, 73
1, 684909, Control_c, 0, 64, 74
1, 684924, Control_c, 0, 64, 76
1, 684939, Control_c, 0, 64, 77
1, 684954, Control_c, 0, 64, 79
1, 684969, Control_c, 0, 64, 80
1, 684982, Note_off_c, 0, 45, 42
1, 684983, Control_c, 0, 64, 81
1, 684998, Control_c, 0, 64, 82
1, 684999, Note_on_c, 0, 75, 53
1, 685001, Note_off_c, 0, 77, 27
1, 685013, Control_c, 0, 64, 82
1, 685025, Note_on_c, 0, 46, 37
1, 685034, Note_off_c, 0, 75, 63
1, 685043, Control_c, 0, 64, 83
1, 685048, Note_off_c, 0, 67, 23
1, 685139, Control_c, 0, 64, 82
1, 685154, Control_c, 0, 64, 82
1, 685198, Control_c, 0, 64, 81
1, 685213, Control_c, 0, 64, 81
1, 685221, Note_on_c, 0, 67, 35
1, 685228, Note_on_c, 0, 70, 49
1, 685228, Control_c, 0, 64, 80
1, 685235, Note_on_c, 0, 51, 43
1, 685243, Control_c, 0, 64, 80
1, 685264, Note_off_c, 0, 46, 41
1, 685286, Control_c, 0, 64, 79
1, 685301, Control_c, 0, 64, 78
1, 685315, Control_c, 0, 64, 77
1, 685331, Note_off_c, 0, 67, 53
1, 685360, Control_c, 0, 64, 77
1, 685375, Control_c, 0, 64, 76
1, 685389, Control_c, 0, 64, 75
1, 685434, Control_c, 0, 64, 74
1, 685449, Control_c, 0, 64, 73
1, 685463, Control_c, 0, 64, 72
1, 685478, Control_c, 0, 64, 71
1, 685485, Note_on_c, 0, 67, 42
1, 685499, Note_on_c, 0, 55, 38
1, 685502, Note_on_c, 0, 63, 40
1, 685503, Note_off_c, 0, 70, 46
1, 685508, Control_c, 0, 64, 70
1, 685523, Control_c, 0, 64, 69
1, 685538, Control_c, 0, 64, 66
1, 685547, Note_off_c, 0, 51, 37
1, 685553, Control_c, 0, 64, 65
1, 685568, Control_c, 0, 64, 64
1, 685582, Control_c, 0, 64, 63
1, 685597, Control_c, 0, 64, 61
1, 685612, Control_c, 0, 64, 61
1, 685656, Control_c, 0, 64, 60
1, 685671, Control_c, 0, 64, 59
1, 685701, Control_c, 0, 64, 61
1, 685715, Control_c, 0, 64, 63
1, 685732, Control_c, 0, 64, 64
1, 685746, Control_c, 0, 64, 66
1, 685761, Control_c, 0, 64, 68
1, 685776, Control_c, 0, 64, 70
1, 685791, Control_c, 0, 64, 73
1, 685805, Control_c, 0, 64, 76
1, 685820, Control_c, 0, 64, 79
1, 685835, Control_c, 0, 64, 81
1, 685913, Note_off_c, 0, 55, 42
1, 685934, Note_on_c, 0, 70, 51
1, 685993, Note_off_c, 0, 67, 39
1, 685997, Note_off_c, 0, 63, 44
1, 686224, Note_off_c, 0, 70, 37
1, 686243, Control_c, 0, 64, 80
1, 686258, Control_c, 0, 64, 80
1, 686317, Control_c, 0, 64, 79
1, 686331, Control_c, 0, 64, 78
1, 686346, Control_c, 0, 64, 78
1, 686371, Note_on_c, 0, 68, 41
1, 686376, Control_c, 0, 64, 77
1, 686387, Note_on_c, 0, 46, 24
1, 686390, Note_on_c, 0, 53, 24
1, 686391, Note_on_c, 0, 60, 34
1, 686391, Control_c, 0, 64, 76
1, 686405, Control_c, 0, 64, 74
1, 686420, Control_c, 0, 64, 73
1, 686450, Control_c, 0, 64, 72
1, 686465, Control_c, 0, 64, 70
1, 686480, Control_c, 0, 64, 67
1, 686495, Control_c, 0, 64, 64
1, 686510, Control_c, 0, 64, 62
1, 686540, Control_c, 0, 64, 63
1, 686554, Control_c, 0, 64, 64
1, 686569, Control_c, 0, 64, 65
1, 686584, Control_c, 0, 64, 66
1, 686607, Control_c, 0, 64, 68
1, 686622, Control_c, 0, 64, 70
1, 686629, Note_off_c, 0, 46, 42
1, 686630, Note_off_c, 0, 60, 46
1, 686636, Control_c, 0, 64, 73
1, 686651, Control_c, 0, 64, 75
1, 686666, Control_c, 0, 64, 76
1, 686681, Control_c, 0, 64, 76
1, 686696, Control_c, 0, 64, 78
1, 686710, Control_c, 0, 64, 79
1, 686725, Control_c, 0, 64, 80
1, 686730, Note_off_c, 0, 53, 43
1, 686749, Note_off_c, 0, 68, 35
1, 686829, Control_c, 0, 64, 80
1, 686858, Control_c, 0, 64, 79
1, 686873, Control_c, 0, 64, 79
1, 686888, Control_c, 0, 64, 78
1, 686903, Control_c, 0, 64, 77
1, 686918, Control_c, 0, 64, 76
1, 686933, Control_c, 0, 64, 76
1, 686942, Note_on_c, 0, 65, 24
1, 686948, Control_c, 0, 64, 75
1, 686951, Note_on_c, 0, 46, 30
1, 686954, Note_on_c, 0, 62, 20
1, 686954, Note_on_c, 0, 58, 21
1, 686962, Control_c, 0, 64, 73
1, 686977, Control_c, 0, 64, 71
1, 686992, Control_c, 0, 64, 69
1, 687007, Control_c, 0, 64, 69
1, 687022, Control_c, 0, 64, 68
1, 687036, Control_c, 0, 64, 67
1, 687051, Control_c, 0, 64, 66
1, 687080, Control_c, 0, 64, 67
1, 687095, Control_c, 0, 64, 68
1, 687110, Control_c, 0, 64, 69
1, 687125, Control_c, 0, 64, 70
1, 687140, Control_c, 0, 64, 72
1, 687154, Control_c, 0, 64, 74
1, 687169, Control_c, 0, 64, 78
1, 687184, Control_c, 0, 64, 81
1, 687186, Note_off_c, 0, 58, 49
1, 687191, Note_off_c, 0, 46, 51
1, 687199, Control_c, 0, 64, 82
1, 687243, Control_c, 0, 64, 83
1, 687252, Note_off_c, 0, 62, 40
1, 687258, Control_c, 0, 64, 85
1, 687273, Control_c, 0, 64, 85
1, 687316, Note_off_c, 0, 65, 42
1, 687385, Control_c, 0, 64, 85
1, 687577, Control_c, 0, 64, 84
1, 687607, Control_c, 0, 64, 84
1, 687636, Control_c, 0, 64, 83
1, 687696, Control_c, 0, 64, 83
1, 687710, Control_c, 0, 64, 82
1, 687740, Control_c, 0, 64, 81
1, 687755, Control_c, 0, 64, 80
1, 687770, Control_c, 0, 64, 79
1, 687780, Note_on_c, 0, 39, 24
1, 687784, Control_c, 0, 64, 79
1, 687799, Control_c, 0, 64, 78
1, 687806, Note_on_c, 0, 43, 18
1, 687829, Control_c, 0, 64, 77
1, 687844, Control_c, 0, 64, 75
1, 687858, Control_c, 0, 64, 73
1, 687873, Control_c, 0, 64, 73
1, 687902, Control_c, 0, 64, 72
1, 687917, Control_c, 0, 64, 70
1, 687932, Control_c, 0, 64, 68
1, 687947, Control_c, 0, 64, 66
1, 687962, Control_c, 0, 64, 65
1, 688006, Control_c, 0, 64, 65
1, 688021, Control_c, 0, 64, 66
1, 688036, Control_c, 0, 64, 67
1, 688051, Control_c, 0, 64, 69
1, 688066, Control_c, 0, 64, 71
1, 688081, Control_c, 0, 64, 73
1, 688095, Control_c, 0, 64, 74
1, 688117, Control_c, 0, 64, 76
1, 688133, Control_c, 0, 64, 79
1, 688148, Control_c, 0, 64, 79
1, 688163, Control_c, 0, 64, 80
1, 688193, Control_c, 0, 64, 81
1, 688202, Note_off_c, 0, 43, 40
1, 688207, Control_c, 0, 64, 82
1, 688222, Control_c, 0, 64, 83
1, 688281, Control_c, 0, 64, 83
1, 688302, Note_on_c, 0, 82, 44
1, 688322, Note_on_c, 0, 79, 30
1, 688382, Note_off_c, 0, 39, 42
1, 688385, Control_c, 0, 64, 84
1, 688400, Control_c, 0, 64, 84
1, 688525, Note_off_c, 0, 79, 34
1, 688562, Note_off_c, 0, 82, 33
1, 688623, Note_on_c, 0, 46, 22
1, 688670, Poly_aftertouch_c, 0, 43, 127
1, 688781, Note_off_c, 0, 46, 41
1, 688809, Poly_aftertouch_c, 0, 43, 0
1, 688814, Control_c, 0, 64, 85
1, 688870, Note_on_c, 0, 79, 36
1, 688882, Note_on_c, 0, 75, 38
1, 688987, Note_off_c, 0, 75, 37
1, 689031, Control_c, 0, 64, 85
1, 689052, Note_off_c, 0, 79, 39
1, 689077, Note_on_c, 0, 51, 30
1, 689091, Control_c, 0, 64, 86
1, 689095, Note_on_c, 0, 46, 25
1, 689105, Control_c, 0, 64, 86
1, 689158, Note_off_c, 0, 46, 42
1, 689261, Note_off_c, 0, 51, 40
1, 689262, Note_on_c, 0, 75, 41
1, 689270, Note_on_c, 0, 70, 37
1, 689320, Note_off_c, 0, 75, 49
1, 689380, Note_off_c, 0, 70, 33
1, 689464, Note_on_c, 0, 43, 17
1, 689478, Note_on_c, 0, 46, 11
1, 689555, Note_off_c, 0, 46, 39
1, 689656, Note_on_c, 0, 79, 42
1, 689660, Note_on_c, 0, 75, 33
1, 689736, Note_off_c, 0, 75, 36
1, 689739, Note_off_c, 0, 43, 39
1, 689795, Note_off_c, 0, 79, 43
1, 689853, Note_on_c, 0, 51, 29
1, 689878, Note_on_c, 0, 46, 10
1, 689939, Note_off_c, 0, 46, 44
1, 689983, Note_off_c, 0, 51, 42
1, 690015, Note_on_c, 0, 75, 41
1, 690038, Note_on_c, 0, 70, 36
1, 690130, Note_off_c, 0, 75, 32
1, 690170, Note_off_c, 0, 70, 36
1, 690203, Note_on_c, 0, 55, 35
1, 690220, Note_on_c, 0, 51, 23
1, 690303, Note_off_c, 0, 51, 40
1, 690340, Note_off_c, 0, 55, 42
1, 690393, Note_on_c, 0, 70, 38
1, 690396, Note_on_c, 0, 67, 40
1, 690453, Note_off_c, 0, 70, 51
1, 690465, Note_off_c, 0, 67, 49
1, 690595, Note_on_c, 0, 51, 33
1, 690600, Note_on_c, 0, 46, 28
1, 690692, Note_off_c, 0, 51, 37
1, 690796, Note_on_c, 0, 75, 36
1, 690810, Note_on_c, 0, 70, 30
1, 690901, Note_off_c, 0, 46, 39
1, 690909, Note_off_c, 0, 75, 47
1, 690938, Note_off_c, 0, 70, 35
1, 690987, Note_on_c, 0, 55, 32
1, 691017, Note_on_c, 0, 51, 24
1, 691172, Note_off_c, 0, 51, 38
1, 691190, Note_off_c, 0, 55, 38
1, 691197, Note_on_c, 0, 70, 38
1, 691223, Note_on_c, 0, 67, 30
1, 691255, Note_off_c, 0, 70, 53
1, 691376, Note_off_c, 0, 67, 40
1, 691428, Note_on_c, 0, 55, 28
1, 691437, Note_on_c, 0, 58, 8
1, 691552, Note_off_c, 0, 58, 28
1, 691572, Note_off_c, 0, 55, 41
1, 691617, Control_c, 0, 64, 86
1, 691647, Control_c, 0, 64, 85
1, 691648, Note_on_c, 0, 67, 29
1, 691661, Poly_aftertouch_c, 0, 63, 127
1, 691676, Control_c, 0, 64, 85
1, 691706, Control_c, 0, 64, 84
1, 691735, Note_off_c, 0, 67, 39
1, 691736, Control_c, 0, 64, 84
1, 691765, Control_c, 0, 64, 83
1, 691780, Control_c, 0, 64, 83
1, 691786, Poly_aftertouch_c, 0, 63, 0
1, 691795, Control_c, 0, 64, 82
1, 691810, Control_c, 0, 64, 82
1, 691839, Control_c, 0, 64, 81
1, 691862, Control_c, 0, 64, 80
1, 691876, Control_c, 0, 64, 80
1, 691921, Note_on_c, 0, 53, 28
1, 691921, Control_c, 0, 64, 79
1, 691934, Note_on_c, 0, 46, 17
1, 691936, Control_c, 0, 64, 78
1, 691950, Control_c, 0, 64, 78
1, 691954, Poly_aftertouch_c, 0, 58, 127
1, 691956, Note_on_c, 0, 58, 3
1, 691980, Control_c, 0, 64, 77
1, 691996, Control_c, 0, 64, 76
1, 692011, Control_c, 0, 64, 75
1, 692025, Control_c, 0, 64, 74
1, 692040, Control_c, 0, 64, 74
1, 692055, Control_c, 0, 64, 73
1, 692070, Control_c, 0, 64, 72
1, 692084, Control_c, 0, 64, 70
1, 692099, Control_c, 0, 64, 69
1, 692114, Control_c, 0, 64, 67
1, 692130, Control_c, 0, 64, 66
1, 692145, Control_c, 0, 64, 65
1, 692160, Control_c, 0, 64, 65
1, 692189, Control_c, 0, 64, 65
1, 692204, Control_c, 0, 64, 67
1, 692216, Note_on_c, 0, 70, 30
1, 692219, Control_c, 0, 64, 68
1, 692230, Note_on_c, 0, 62, 25
1, 692234, Control_c, 0, 64, 70
1, 692248, Control_c, 0, 64, 71
1, 692263, Control_c, 0, 64, 73
1, 692278, Control_c, 0, 64, 75
1, 692293, Control_c, 0, 64, 77
1, 692307, Control_c, 0, 64, 78
1, 692311, Note_off_c, 0, 58, 44
1, 692313, Note_off_c, 0, 46, 42
1, 692322, Control_c, 0, 64, 79
1, 692325, Note_off_c, 0, 53, 50
1, 692337, Control_c, 0, 64, 80
1, 692352, Control_c, 0, 64, 80
1, 692367, Control_c, 0, 64, 82
1, 692382, Control_c, 0, 64, 83
1, 692397, Control_c, 0, 64, 84
1, 692412, Control_c, 0, 64, 85
1, 692448, Note_off_c, 0, 62, 17
1, 692471, Note_off_c, 0, 70, 33
1, 692536, Note_on_c, 0, 46, 8
1, 692539, Note_on_c, 0, 53, 4
1, 692556, Poly_aftertouch_c, 0, 58, 127
1, 692558, Note_on_c, 0, 58, 3
1, 692597, Control_c, 0, 64, 84
1, 692709, Note_off_c, 0, 46, 37
1, 692717, Note_off_c, 0, 58, 37
1, 692739, Note_off_c, 0, 53, 44
1, 692811, Note_on_c, 0, 68, 31
1, 692845, Note_on_c, 0, 62, 15
1, 692978, Note_off_c, 0, 62, 32
1, 692981, Note_off_c, 0, 68, 43
1, 693086, Control_c, 0, 64, 84
1, 693144, Note_on_c, 0, 56, 31
1, 693169, Note_on_c, 0, 46, 21
1, 693203, Poly_aftertouch_c, 0, 58, 127
1, 693235, Control_c, 0, 64, 83
1, 693323, Control_c, 0, 64, 83
1, 693583, Control_c, 0, 64, 82
1, 693676, Note_on_c, 0, 65, 32
1, 693720, Note_on_c, 0, 62, 15
1, 693868, Note_off_c, 0, 65, 40
1, 693917, Note_off_c, 0, 62, 20
1, 693993, Poly_aftertouch_c, 0, 58, 0
1, 694074, Note_off_c, 0, 56, 30
1, 694243, Note_off_c, 0, 46, 24
1, 695302, Control_c, 0, 64, 83
1, 695422, Control_c, 0, 64, 83
1, 695437, Control_c, 0, 64, 84
1, 695452, Control_c, 0, 64, 85
1, 695466, Control_c, 0, 64, 83
1, 695481, Control_c, 0, 64, 76
1, 695496, Control_c, 0, 64, 62
1, 695510, Control_c, 0, 64, 0
1, 695681, Control_c, 0, 67, 118
1, 695696, Control_c, 0, 64, 70
1, 695696, Control_c, 0, 67, 104
1, 695702, Note_on_c, 0, 70, 99
1, 695702, Note_on_c, 0, 82, 106
1, 695711, Control_c, 0, 64, 80
1, 695711, Control_c, 0, 67, 92
1, 695725, Control_c, 0, 64, 88
1, 695725, Control_c, 0, 67, 76
1, 695740, Control_c, 0, 64, 91
1, 695740, Control_c, 0, 67, 56
1, 695755, Control_c, 0, 64, 92
1, 695755, Control_c, 0, 67, 35
1, 695769, Note_off_c, 0, 82, 64
1, 695770, Control_c, 0, 67, 20
1, 695776, Note_on_c, 0, 94, 84
1, 695785, Control_c, 0, 67, 12
1, 695794, Note_off_c, 0, 70, 54
1, 695799, Control_c, 0, 64, 93
1, 695799, Control_c, 0, 67, 0
1, 695814, Control_c, 0, 64, 95
1, 695829, Control_c, 0, 64, 99
1, 695836, Note_off_c, 0, 94, 65
1, 695843, Control_c, 0, 64, 100
1, 695858, Note_on_c, 0, 79, 95
1, 695866, Note_on_c, 0, 67, 82
1, 695904, Note_on_c, 0, 91, 77
1, 695909, Note_off_c, 0, 79, 65
1, 695936, Note_off_c, 0, 67, 58
1, 695947, Note_off_c, 0, 91, 67
1, 695962, Control_c, 0, 64, 100
1, 695977, Control_c, 0, 64, 99
1, 695992, Control_c, 0, 64, 99
1, 695995, Note_on_c, 0, 63, 79
1, 696004, Note_on_c, 0, 75, 94
1, 696007, Control_c, 0, 64, 98
1, 696022, Control_c, 0, 64, 98
1, 696037, Control_c, 0, 64, 97
1, 696040, Note_off_c, 0, 63, 57
1, 696061, Note_off_c, 0, 75, 64
1, 696065, Note_on_c, 0, 87, 89
1, 696081, Control_c, 0, 64, 96
1, 696096, Control_c, 0, 64, 93
1, 696111, Control_c, 0, 64, 90
1, 696115, Note_off_c, 0, 87, 64
1, 696126, Control_c, 0, 64, 88
1, 696141, Control_c, 0, 64, 88
1, 696145, Note_on_c, 0, 79, 94
1, 696146, Note_on_c, 0, 67, 87
1, 696156, Control_c, 0, 64, 87
1, 696171, Control_c, 0, 64, 86
1, 696186, Control_c, 0, 64, 84
1, 696195, Note_off_c, 0, 79, 64
1, 696201, Control_c, 0, 64, 83
1, 696201, Note_on_c, 0, 91, 81
1, 696207, Note_off_c, 0, 67, 61
1, 696215, Control_c, 0, 64, 82
1, 696218, Note_off_c, 0, 91, 74
1, 696277, Note_on_c, 0, 75, 93
1, 696290, Note_on_c, 0, 63, 76
1, 696343, Note_off_c, 0, 75, 64
1, 696355, Note_on_c, 0, 87, 89
1, 696381, Note_off_c, 0, 63, 59
1, 696396, Note_off_c, 0, 87, 65
1, 696400, Control_c, 0, 64, 83
1, 696435, Note_on_c, 0, 58, 75
1, 696436, Note_on_c, 0, 70, 88
1, 696462, Note_off_c, 0, 58, 65
1, 696489, Note_off_c, 0, 70, 65
1, 696502, Note_on_c, 0, 80, 55
1, 696520, Note_on_c, 0, 81, 63
1, 696522, Note_off_c, 0, 80, 61
1, 696538, Note_off_c, 0, 81, 65
1, 696554, Poly_aftertouch_c, 0, 69, 0
1, 696570, Note_on_c, 0, 75, 94
1, 696574, Note_on_c, 0, 63, 84
1, 696608, Control_c, 0, 64, 83
1, 696618, Note_off_c, 0, 75, 66
1, 696622, Control_c, 0, 64, 84
1, 696637, Control_c, 0, 64, 84
1, 696639, Note_on_c, 0, 85, 81
1, 696642, Note_off_c, 0, 63, 61
1, 696681, Control_c, 0, 64, 85
1, 696684, Note_off_c, 0, 85, 57
1, 696711, Note_on_c, 0, 70, 92
1, 696711, Control_c, 0, 64, 86
1, 696722, Note_on_c, 0, 58, 78
1, 696726, Control_c, 0, 64, 86
1, 696740, Control_c, 0, 64, 87
1, 696760, Note_off_c, 0, 70, 56
1, 696773, Note_on_c, 0, 82, 74
1, 696819, Note_off_c, 0, 82, 62
1, 696844, Note_on_c, 0, 67, 88
1, 696850, Note_on_c, 0, 55, 80
1, 696860, Note_off_c, 0, 58, 33
1, 696889, Control_c, 0, 64, 87
1, 696891, Note_off_c, 0, 55, 63
1, 696904, Control_c, 0, 64, 88
1, 696910, Note_off_c, 0, 67, 63
1, 696919, Control_c, 0, 64, 88
1, 696922, Note_on_c, 0, 79, 65
1, 696934, Control_c, 0, 64, 89
1, 696940, Note_off_c, 0, 79, 65
1, 696949, Control_c, 0, 64, 87
1, 696964, Control_c, 0, 64, 81
1, 696979, Control_c, 0, 64, 73
1, 696982, Note_on_c, 0, 58, 84
1, 696988, Note_on_c, 0, 70, 91
1, 696993, Control_c, 0, 64, 68
1, 697008, Control_c, 0, 64, 70
1, 697023, Control_c, 0, 64, 74
1, 697038, Control_c, 0, 64, 80
1, 697044, Note_off_c, 0, 70, 64
1, 697048, Note_on_c, 0, 82, 81
1, 697052, Note_off_c, 0, 58, 61
1, 697053, Control_c, 0, 64, 88
1, 697068, Control_c, 0, 64, 96
1, 697089, Control_c, 0, 64, 101
1, 697107, Note_off_c, 0, 82, 65
1, 697122, Note_on_c, 0, 56, 83
1, 697126, Note_on_c, 0, 68, 90
1, 697170, Note_off_c, 0, 68, 64
1, 697183, Note_on_c, 0, 80, 84
1, 697197, Note_off_c, 0, 56, 62
1, 697199, Poly_aftertouch_c, 0, 46, 127
1, 697214, Poly_aftertouch_c, 0, 70, 127
1, 697233, Note_off_c, 0, 80, 64
1, 697236, Poly_aftertouch_c, 0, 46, 0
1, 697242, Poly_aftertouch_c, 0, 70, 0
1, 697251, Note_on_c, 0, 53, 76
1, 697251, Note_on_c, 0, 65, 87
1, 697253, Note_on_c, 0, 46, 60
1, 697279, Note_off_c, 0, 53, 68
1, 697283, Control_c, 0, 64, 101
1, 697288, Note_on_c, 0, 67, 36
1, 697297, Control_c, 0, 64, 103
1, 697302, Note_off_c, 0, 46, 62
1, 697312, Note_off_c, 0, 65, 64
1, 697317, Note_off_c, 0, 67, 56
1, 697321, Note_on_c, 0, 77, 87
1, 697327, Control_c, 0, 64, 98
1, 697342, Control_c, 0, 64, 84
1, 697357, Control_c, 0, 64, 65
1, 697363, Note_off_c, 0, 77, 60
1, 697371, Control_c, 0, 64, 0
1, 697390, Note_on_c, 0, 51, 102
1, 697396, Note_on_c, 0, 39, 84
1, 697413, Note_on_c, 0, 63, 87
1, 697416, Control_c, 0, 64, 63
1, 697420, Note_off_c, 0, 39, 65
1, 697422, Note_off_c, 0, 51, 64
1, 697431, Control_c, 0, 64, 76
1, 697445, Control_c, 0, 64, 88
1, 697460, Control_c, 0, 64, 99
1, 697473, Note_off_c, 0, 63, 61
1, 697475, Control_c, 0, 64, 101
1, 697478, Note_on_c, 0, 75, 83
1, 697528, Note_off_c, 0, 75, 61
1, 697549, Control_c, 0, 64, 102
1, 697558, Note_on_c, 0, 67, 90
1, 697563, Control_c, 0, 64, 102
1, 697566, Note_on_c, 0, 51, 72
1, 697574, Note_on_c, 0, 63, 68
1, 697575, Note_on_c, 0, 58, 68
1, 697593, Control_c, 0, 64, 103
1, 697607, Note_off_c, 0, 58, 60
1, 697607, Note_off_c, 0, 63, 62
1, 697608, Control_c, 0, 64, 104
1, 697613, Note_off_c, 0, 67, 63
1, 697616, Note_on_c, 0, 55, 7
1, 697622, Control_c, 0, 64, 108
1, 697626, Note_on_c, 0, 79, 86
1, 697626, Note_off_c, 0, 51, 62
1, 697637, Control_c, 0, 64, 111
1, 697652, Control_c, 0, 64, 114
1, 697667, Control_c, 0, 64, 114
1, 697673, Note_off_c, 0, 79, 63
1, 697682, Control_c, 0, 64, 115
1, 697688, Note_off_c, 0, 55, 0
1, 697692, Note_on_c, 0, 67, 95
1, 697694, Note_on_c, 0, 63, 77
1, 697695, Note_on_c, 0, 58, 73
1, 697696, Note_on_c, 0, 51, 68
1, 697697, Control_c, 0, 64, 119
1, 697701, Note_on_c, 0, 55, 55
1, 697712, Control_c, 0, 64, 127
1, 697741, Note_off_c, 0, 67, 64
1, 697742, Note_off_c, 0, 63, 56
1, 697743, Note_off_c, 0, 58, 59
1, 697745, Note_off_c, 0, 51, 58
1, 697747, Note_off_c, 0, 55, 63
1, 697762, Note_on_c, 0, 79, 90
1, 697803, Note_off_c, 0, 79, 65
1, 697822, Note_on_c, 0, 67, 96
1, 697842, Note_on_c, 0, 63, 75
1, 697844, Note_on_c, 0, 55, 68
1, 697848, Note_on_c, 0, 58, 70
1, 697849, Note_on_c, 0, 51, 66
1, 697877, Note_off_c, 0, 58, 61
1, 697878, Note_off_c, 0, 63, 55
1, 697879, Note_off_c, 0, 55, 63
1, 697883, Note_off_c, 0, 51, 64
1, 697888, Note_off_c, 0, 67, 63
1, 697897, Note_on_c, 0, 79, 86
1, 697918, Note_off_c, 0, 79, 67
1, 697966, Note_on_c, 0, 63, 84
1, 697968, Note_on_c, 0, 58, 77
1, 697969, Note_on_c, 0, 70, 92
1, 697971, Note_on_c, 0, 51, 65
1, 697977, Note_on_c, 0, 55, 71
1, 698006, Note_off_c, 0, 55, 64
1, 698008, Note_off_c, 0, 51, 62
1, 698013, Note_off_c, 0, 58, 63
1, 698013, Note_off_c, 0, 63, 59
1, 698019, Note_on_c, 0, 82, 87
1, 698025, Note_off_c, 0, 70, 64
1, 698070, Note_off_c, 0, 82, 65
1, 698100, Note_on_c, 0, 70, 96
1, 698101, Note_on_c, 0, 55, 67
1, 698102, Note_on_c, 0, 63, 81
1, 698108, Note_on_c, 0, 51, 67
1, 698110, Note_on_c, 0, 58, 72
1, 698136, Note_off_c, 0, 58, 59
1, 698145, Note_off_c, 0, 55, 62
1, 698148, Note_off_c, 0, 51, 64
1, 698150, Note_off_c, 0, 63, 58
1, 698151, Note_on_c, 0, 82, 92
1, 698156, Note_off_c, 0, 70, 60
1, 698201, Note_off_c, 0, 82, 66
1, 698224, Note_on_c, 0, 70, 93
1, 698230, Note_on_c, 0, 63, 78
1, 698231, Note_on_c, 0, 51, 70
1, 698232, Note_on_c, 0, 58, 71
1, 698238, Note_on_c, 0, 55, 72
1, 698272, Note_off_c, 0, 51, 62
1, 698273, Note_off_c, 0, 55, 56
1, 698278, Note_off_c, 0, 58, 61
1, 698278, Note_off_c, 0, 70, 63
1, 698280, Note_off_c, 0, 63, 60
1, 698283, Note_on_c, 0, 82, 90
1, 698320, Note_off_c, 0, 82, 65
1, 698359, Note_on_c, 0, 75, 92
1, 698359, Note_on_c, 0, 63, 87
1, 698364, Note_on_c, 0, 55, 75
1, 698368, Note_on_c, 0, 58, 73
1, 698371, Note_on_c, 0, 51, 67
1, 698398, Note_off_c, 0, 58, 62
1, 698400, Note_off_c, 0, 51, 64
1, 698405, Note_off_c, 0, 55, 60
1, 698408, Note_off_c, 0, 75, 63
1, 698409, Note_off_c, 0, 63, 60
1, 698415, Note_on_c, 0, 87, 89
1, 698464, Note_off_c, 0, 87, 66
1, 698489, Note_on_c, 0, 51, 66
1, 698489, Note_on_c, 0, 63, 81
1, 698492, Note_on_c, 0, 75, 98
1, 698494, Note_on_c, 0, 58, 71
1, 698495, Note_on_c, 0, 55, 71
1, 698533, Note_off_c, 0, 58, 57
1, 698534, Note_off_c, 0, 63, 60
1, 698538, Note_off_c, 0, 51, 62
1, 698541, Note_off_c, 0, 55, 53
1, 698545, Note_off_c, 0, 75, 59
1, 698552, Note_on_c, 0, 87, 93
1, 698606, Note_off_c, 0, 87, 65
1, 698624, Note_on_c, 0, 75, 91
1, 698630, Note_on_c, 0, 63, 82
1, 698634, Note_on_c, 0, 55, 73
1, 698637, Note_on_c, 0, 58, 78
1, 698640, Note_on_c, 0, 51, 72
1, 698670, Note_off_c, 0, 75, 63
1, 698678, Note_on_c, 0, 87, 67
1, 698684, Note_on_c, 0, 88, 80
1, 698684, Note_off_c, 0, 63, 57
1, 698686, Note_off_c, 0, 58, 60
1, 698693, Note_off_c, 0, 51, 61
1, 698697, Note_off_c, 0, 55, 61
1, 698702, Note_off_c, 0, 87, 71
1, 698717, Note_off_c, 0, 88, 62
1, 698751, Note_on_c, 0, 79, 91
1, 698768, Note_on_c, 0, 63, 87
1, 698772, Note_on_c, 0, 55, 73
1, 698776, Note_on_c, 0, 51, 75
1, 698779, Note_on_c, 0, 91, 86
1, 698788, Note_on_c, 0, 58, 71
1, 698796, Note_off_c, 0, 79, 63
1, 698807, Note_off_c, 0, 91, 65
1, 698819, Note_off_c, 0, 63, 61
1, 698820, Note_off_c, 0, 58, 61
1, 698830, Note_off_c, 0, 55, 60
1, 698830, Note_off_c, 0, 51, 63
1, 698877, Note_on_c, 0, 82, 79
1, 698882, Note_on_c, 0, 94, 89
1, 698893, Note_on_c, 0, 63, 88
1, 698895, Note_off_c, 0, 94, 71
1, 698903, Note_on_c, 0, 51, 68
1, 698904, Note_on_c, 0, 55, 63
1, 698905, Note_off_c, 0, 82, 63
1, 698907, Note_on_c, 0, 96, 52
1, 698915, Note_on_c, 0, 58, 63
1, 698929, Note_off_c, 0, 96, 62
1, 698940, Note_off_c, 0, 63, 58
1, 698943, Note_off_c, 0, 58, 61
1, 698952, Note_off_c, 0, 55, 60
1, 698957, Note_off_c, 0, 51, 62
1, 699026, Note_on_c, 0, 51, 88
1, 699028, Note_on_c, 0, 63, 81
1, 699028, Note_on_c, 0, 87, 98
1, 699028, Note_on_c, 0, 99, 111
1, 699036, Note_on_c, 0, 58, 69
1, 699044, Note_off_c, 0, 87, 74
1, 699045, Note_off_c, 0, 99, 71
1, 699046, Note_off_c, 0, 63, 72
1, 699054, Note_on_c, 0, 97, 50
1, 699055, Note_off_c, 0, 97, 127
1, 699060, Note_off_c, 0, 58, 66
1, 699065, Note_off_c, 0, 51, 66
1, 699253, Control_c, 0, 64, 116
1, 699268, Control_c, 0, 64, 89
1, 699283, Control_c, 0, 64, 72
1, 699298, Control_c, 0, 64, 0
1, 699369, Poly_aftertouch_c, 0, 73, 127
1, 699412, Poly_aftertouch_c, 0, 73, 0
1, 699440, Control_c, 0, 64, 69
1, 699443, Note_on_c, 0, 65, 99
1, 699444, Note_on_c, 0, 46, 101
1, 699444, Note_on_c, 0, 74, 92
1, 699446, Note_on_c, 0, 68, 90
1, 699447, Note_on_c, 0, 58, 94
1, 699447, Note_on_c, 0, 70, 93
1, 699455, Control_c, 0, 64, 90
1, 699470, Control_c, 0, 64, 127
1, 699479, Note_off_c, 0, 58, 68
1, 699485, Note_off_c, 0, 46, 65
1, 699488, Note_off_c, 0, 65, 66
1, 699500, Note_off_c, 0, 68, 64
1, 699502, Note_off_c, 0, 74, 67
1, 699512, Note_off_c, 0, 70, 63
1, 699677, Control_c, 0, 64, 85
1, 699691, Control_c, 0, 64, 48
1, 699706, Control_c, 0, 64, 0
1, 699884, Control_c, 0, 64, 43
1, 699888, Note_on_c, 0, 75, 90
1, 699890, Note_on_c, 0, 51, 94
1, 699893, Note_on_c, 0, 39, 91
1, 699894, Note_on_c, 0, 70, 91
1, 699896, Note_on_c, 0, 67, 96
1, 699899, Control_c, 0, 64, 65
1, 699914, Control_c, 0, 64, 72
1, 699929, Control_c, 0, 64, 82
1, 699944, Control_c, 0, 64, 103
1, 699958, Control_c, 0, 64, 127
1, 700010, Note_off_c, 0, 67, 62
1, 700030, Note_off_c, 0, 75, 66
1, 700034, Note_off_c, 0, 70, 65
1, 700073, Note_off_c, 0, 39, 63
1, 700077, Note_off_c, 0, 51, 66
1, 700411, Control_c, 0, 64, 95
1, 700426, Control_c, 0, 64, 72
1, 700440, Control_c, 0, 64, 0
1, 700515, End_track
0, 0, End_of_file
