0, 0, Header, 0, 1, 384
1, 0, Start_track
1, 0, Title_t, "Jeux d'eau, Ravel--Zhdanov      "
1, 0, Text_t, "2009 International Piano-e-Competition finals"
1, 0, Text_t, "captured June-July 2009"
1, 0, Text_t, "http://www.piano-e-competition.com/"
1, 0, Text_t, "standard-resolution version"
1, 0, Text_t, "File processed for distribution by software from Zenph Studios, Inc., http://www.zenph.com"
1, 0, Instrument_name_t, "Yamaha Disklavier Pro Mark IV concert grand piano, model DCFIIISM4PRO"
1, 0, Sequencer_specific, 39, 67, 113, 0, 1, 0, 1, 0, 74, 101, 117, 120, 32, 100, 39, 101, 97, 117, 32, 32, 32, 32, 32, 32, 68, 101, 110, 105, 115, 32, 90, 104, 100, 97, 110, 111, 118, 32, 32, 32
1, 0, Sequencer_specific, 6, 67, 113, 0, 0, 0, 69
1, 0, System_exclusive, 21, 67, 113, 126, 21, 0, 2, 2, 2, 3, 12, 8, 4, 10, 4, 12, 14, 5, 8, 4, 4, 247
1, 0, Sequencer_specific, 5, 67, 123, 12, 2, 1
1, 0, Tempo, 512820
1, 0, Time_signature, 4, 2, 24, 8
1, 0, System_exclusive, 5, 126, 127, 9, 1, 247
1, 1, System_exclusive, 8, 67, 16, 76, 0, 0, 126, 0, 247
1, 2, System_exclusive, 8, 67, 16, 76, 8, 9, 7, 1, 247
1, 3, Control_c, 0, 0, 0
1, 3, Control_c, 1, 0, 0
1, 3, Control_c, 2, 0, 0
1, 3, Control_c, 3, 0, 0
1, 3, Control_c, 4, 0, 0
1, 3, Control_c, 5, 0, 0
1, 3, Control_c, 6, 0, 0
1, 3, Control_c, 7, 0, 0
1, 3, Control_c, 8, 0, 0
1, 3, Control_c, 9, 0, 127
1, 3, Control_c, 10, 0, 0
1, 3, Control_c, 11, 0, 0
1, 3, Control_c, 12, 0, 0
1, 3, Control_c, 13, 0, 0
1, 3, Control_c, 14, 0, 0
1, 3, Control_c, 15, 0, 0
1, 4, Control_c, 0, 32, 0
1, 4, Control_c, 1, 32, 0
1, 4, Control_c, 2, 32, 0
1, 4, Control_c, 3, 32, 0
1, 4, Control_c, 4, 32, 0
1, 4, Control_c, 5, 32, 0
1, 4, Control_c, 6, 32, 0
1, 4, Control_c, 7, 32, 0
1, 4, Control_c, 8, 32, 0
1, 4, Control_c, 9, 32, 0
1, 4, Control_c, 10, 32, 0
1, 4, Control_c, 11, 32, 0
1, 4, Control_c, 12, 32, 0
1, 4, Control_c, 13, 32, 0
1, 4, Control_c, 14, 32, 0
1, 4, Control_c, 15, 32, 0
1, 5, Program_c, 0, 0
1, 5, Program_c, 1, 0
1, 5, Program_c, 2, 0
1, 5, Program_c, 3, 0
1, 5, Program_c, 4, 0
1, 5, Program_c, 5, 0
1, 5, Program_c, 6, 0
1, 5, Program_c, 7, 0
1, 5, Program_c, 8, 0
1, 5, Program_c, 9, 0
1, 5, Program_c, 10, 0
1, 5, Program_c, 11, 0
1, 5, Program_c, 12, 0
1, 5, Program_c, 13, 0
1, 5, Program_c, 14, 0
1, 5, Program_c, 15, 0
1, 6, Control_c, 0, 7, 100
1, 6, Control_c, 1, 7, 100
1, 6, Control_c, 2, 7, 100
1, 6, Control_c, 3, 7, 100
1, 6, Control_c, 4, 7, 100
1, 6, Control_c, 5, 7, 100
1, 6, Control_c, 6, 7, 100
1, 6, Control_c, 7, 7, 100
1, 6, Control_c, 8, 7, 100
1, 6, Control_c, 9, 7, 100
1, 6, Control_c, 10, 7, 100
1, 6, Control_c, 11, 7, 100
1, 6, Control_c, 12, 7, 100
1, 6, Control_c, 13, 7, 100
1, 6, Control_c, 14, 7, 100
1, 6, Control_c, 15, 7, 100
1, 1127, Control_c, 0, 64, 80
1, 1127, Control_c, 0, 67, 106
1, 1133, Note_on_c, 0, 75, 48
1, 1139, Note_on_c, 0, 64, 33
1, 1142, Control_c, 0, 64, 84
1, 1142, Control_c, 0, 67, 108
1, 1145, Note_on_c, 0, 71, 39
1, 1157, Control_c, 0, 64, 88
1, 1157, Control_c, 0, 67, 110
1, 1172, Control_c, 0, 64, 92
1, 1172, Control_c, 0, 67, 114
1, 1187, Control_c, 0, 64, 96
1, 1187, Control_c, 0, 67, 117
1, 1202, Control_c, 0, 64, 99
1, 1202, Control_c, 0, 67, 118
1, 1217, Control_c, 0, 64, 103
1, 1217, Control_c, 0, 67, 118
1, 1232, Control_c, 0, 64, 106
1, 1232, Control_c, 0, 67, 119
1, 1247, Control_c, 0, 64, 110
1, 1253, Note_off_c, 0, 75, 50
1, 1261, Control_c, 0, 64, 115
1, 1276, Control_c, 0, 64, 127
1, 1286, Note_on_c, 0, 80, 52
1, 1336, Note_off_c, 0, 64, 40
1, 1384, Note_off_c, 0, 71, 46
1, 1408, Note_on_c, 0, 87, 66
1, 1411, Note_off_c, 0, 80, 55
1, 1428, Note_on_c, 0, 76, 52
1, 1430, Note_on_c, 0, 68, 35
1, 1458, Note_off_c, 0, 76, 62
1, 1463, Note_off_c, 0, 68, 52
1, 1530, Note_off_c, 0, 87, 58
1, 1545, Note_on_c, 0, 90, 65
1, 1685, Note_on_c, 0, 83, 49
1, 1687, Note_off_c, 0, 90, 45
1, 1688, Note_on_c, 0, 87, 60
1, 1704, Note_on_c, 0, 76, 45
1, 1707, Note_off_c, 0, 83, 60
1, 1731, Note_off_c, 0, 76, 55
1, 1789, Note_off_c, 0, 87, 45
1, 1834, Note_on_c, 0, 80, 53
1, 1914, Note_off_c, 0, 80, 55
1, 1970, Note_on_c, 0, 69, 49
1, 1980, Note_on_c, 0, 73, 59
1, 1997, Note_off_c, 0, 69, 60
1, 2018, Note_off_c, 0, 73, 62
1, 2026, Note_on_c, 0, 80, 64
1, 2027, Poly_aftertouch_c, 0, 76, 127
1, 2051, Poly_aftertouch_c, 0, 76, 0
1, 2096, Note_off_c, 0, 80, 61
1, 2099, Note_on_c, 0, 85, 58
1, 2142, Control_c, 0, 64, 120
1, 2156, Note_on_c, 0, 88, 62
1, 2157, Control_c, 0, 64, 110
1, 2172, Control_c, 0, 64, 102
1, 2188, Control_c, 0, 64, 94
1, 2192, Note_off_c, 0, 85, 61
1, 2203, Control_c, 0, 64, 86
1, 2218, Control_c, 0, 64, 77
1, 2224, Note_off_c, 0, 88, 61
1, 2232, Control_c, 0, 64, 68
1, 2242, Note_on_c, 0, 75, 61
1, 2243, Note_on_c, 0, 64, 42
1, 2247, Control_c, 0, 64, 57
1, 2254, Note_on_c, 0, 71, 40
1, 2262, Control_c, 0, 64, 36
1, 2277, Control_c, 0, 64, 36
1, 2292, Control_c, 0, 64, 48
1, 2306, Control_c, 0, 64, 57
1, 2321, Control_c, 0, 64, 63
1, 2336, Control_c, 0, 64, 66
1, 2351, Control_c, 0, 64, 68
1, 2365, Control_c, 0, 64, 71
1, 2374, Note_off_c, 0, 75, 56
1, 2380, Control_c, 0, 64, 74
1, 2385, Note_on_c, 0, 80, 65
1, 2395, Control_c, 0, 64, 77
1, 2410, Control_c, 0, 64, 81
1, 2425, Control_c, 0, 64, 84
1, 2425, Control_c, 0, 67, 118
1, 2434, Note_off_c, 0, 71, 49
1, 2439, Control_c, 0, 64, 86
1, 2442, Note_off_c, 0, 64, 37
1, 2454, Control_c, 0, 64, 87
1, 2484, Control_c, 0, 64, 88
1, 2499, Control_c, 0, 64, 89
1, 2499, Control_c, 0, 67, 118
1, 2513, Control_c, 0, 64, 90
1, 2514, Note_off_c, 0, 80, 57
1, 2525, Note_on_c, 0, 87, 76
1, 2528, Note_on_c, 0, 68, 47
1, 2528, Control_c, 0, 64, 90
1, 2528, Control_c, 0, 67, 117
1, 2531, Note_on_c, 0, 76, 51
1, 2552, Note_off_c, 0, 68, 57
1, 2555, Note_off_c, 0, 76, 57
1, 2637, Note_off_c, 0, 87, 60
1, 2665, Note_on_c, 0, 90, 83
1, 2728, Control_c, 0, 64, 90
1, 2773, Control_c, 0, 64, 89
1, 2788, Control_c, 0, 67, 117
1, 2795, Note_off_c, 0, 90, 60
1, 2806, Note_on_c, 0, 83, 62
1, 2814, Note_on_c, 0, 76, 58
1, 2815, Note_on_c, 0, 87, 72
1, 2827, Note_off_c, 0, 83, 66
1, 2847, Note_off_c, 0, 76, 63
1, 2847, Control_c, 0, 64, 89
1, 2877, Control_c, 0, 64, 88
1, 2877, Control_c, 0, 67, 116
1, 2907, Note_off_c, 0, 87, 54
1, 2936, Control_c, 0, 64, 88
1, 2957, Note_on_c, 0, 80, 59
1, 2965, Control_c, 0, 64, 87
1, 2981, Control_c, 0, 64, 87
1, 2996, Control_c, 0, 64, 86
1, 3038, Note_off_c, 0, 80, 56
1, 3055, Control_c, 0, 64, 86
1, 3070, Control_c, 0, 67, 116
1, 3085, Control_c, 0, 64, 85
1, 3085, Control_c, 0, 67, 115
1, 3091, Note_on_c, 0, 69, 50
1, 3098, Note_on_c, 0, 73, 56
1, 3115, Note_off_c, 0, 69, 60
1, 3129, Control_c, 0, 64, 85
1, 3137, Note_off_c, 0, 73, 62
1, 3144, Control_c, 0, 64, 84
1, 3151, Note_on_c, 0, 80, 66
1, 3159, Control_c, 0, 64, 84
1, 3159, Control_c, 0, 67, 115
1, 3168, Poly_aftertouch_c, 0, 76, 0
1, 3203, Control_c, 0, 64, 83
1, 3221, Note_off_c, 0, 80, 61
1, 3224, Note_on_c, 0, 85, 65
1, 3285, Note_on_c, 0, 88, 67
1, 3292, Control_c, 0, 64, 82
1, 3306, Control_c, 0, 64, 80
1, 3312, Note_off_c, 0, 85, 56
1, 3321, Control_c, 0, 64, 77
1, 3336, Control_c, 0, 64, 73
1, 3359, Control_c, 0, 64, 68
1, 3361, Note_off_c, 0, 88, 62
1, 3374, Control_c, 0, 64, 62
1, 3384, Note_on_c, 0, 64, 41
1, 3385, Note_on_c, 0, 75, 69
1, 3388, Control_c, 0, 64, 55
1, 3402, Note_on_c, 0, 71, 32
1, 3403, Control_c, 0, 64, 53
1, 3418, Control_c, 0, 64, 54
1, 3433, Control_c, 0, 64, 58
1, 3433, Control_c, 0, 67, 114
1, 3448, Control_c, 0, 64, 62
1, 3462, Control_c, 0, 64, 64
1, 3477, Control_c, 0, 64, 66
1, 3492, Control_c, 0, 64, 69
1, 3492, Control_c, 0, 67, 114
1, 3506, Control_c, 0, 64, 72
1, 3510, Note_off_c, 0, 75, 55
1, 3515, Note_on_c, 0, 80, 69
1, 3521, Control_c, 0, 64, 75
1, 3536, Control_c, 0, 64, 79
1, 3536, Control_c, 0, 67, 113
1, 3551, Control_c, 0, 64, 81
1, 3558, Note_off_c, 0, 64, 48
1, 3566, Control_c, 0, 64, 83
1, 3566, Control_c, 0, 67, 113
1, 3581, Note_off_c, 0, 71, 57
1, 3581, Control_c, 0, 64, 84
1, 3596, Control_c, 0, 64, 85
1, 3625, Control_c, 0, 67, 112
1, 3647, Note_off_c, 0, 80, 56
1, 3657, Note_on_c, 0, 87, 79
1, 3667, Note_on_c, 0, 76, 56
1, 3670, Control_c, 0, 64, 85
1, 3670, Control_c, 0, 67, 112
1, 3670, Note_on_c, 0, 68, 35
1, 3685, Control_c, 0, 64, 86
1, 3700, Control_c, 0, 67, 111
1, 3702, Note_off_c, 0, 76, 59
1, 3702, Note_off_c, 0, 68, 50
1, 3789, Note_on_c, 0, 90, 81
1, 3799, Note_off_c, 0, 87, 60
1, 3878, Control_c, 0, 67, 111
1, 3919, Note_off_c, 0, 90, 64
1, 3925, Note_on_c, 0, 71, 50
1, 3934, Note_on_c, 0, 80, 72
1, 3949, Note_on_c, 0, 76, 40
1, 3960, Note_off_c, 0, 71, 53
1, 3995, Note_off_c, 0, 76, 46
1, 4055, Note_off_c, 0, 80, 56
1, 4061, Note_on_c, 0, 87, 83
1, 4085, Control_c, 0, 67, 111
1, 4200, Note_on_c, 0, 83, 52
1, 4206, Note_on_c, 0, 92, 84
1, 4208, Note_on_c, 0, 76, 52
1, 4219, Note_off_c, 0, 87, 62
1, 4231, Note_off_c, 0, 83, 52
1, 4255, Control_c, 0, 64, 85
1, 4257, Note_off_c, 0, 76, 52
1, 4284, Control_c, 0, 64, 85
1, 4314, Control_c, 0, 64, 84
1, 4336, Note_on_c, 0, 95, 83
1, 4344, Control_c, 0, 64, 84
1, 4370, Note_off_c, 0, 92, 38
1, 4374, Control_c, 0, 64, 83
1, 4403, Control_c, 0, 64, 82
1, 4411, Note_off_c, 0, 95, 62
1, 4418, Control_c, 0, 64, 81
1, 4433, Control_c, 0, 64, 79
1, 4448, Control_c, 0, 64, 76
1, 4463, Control_c, 0, 64, 72
1, 4463, Control_c, 0, 67, 112
1, 4471, Note_on_c, 0, 80, 78
1, 4478, Control_c, 0, 64, 67
1, 4484, Note_on_c, 0, 69, 48
1, 4492, Control_c, 0, 64, 64
1, 4499, Note_on_c, 0, 76, 47
1, 4522, Control_c, 0, 64, 65
1, 4536, Control_c, 0, 64, 65
1, 4551, Control_c, 0, 64, 67
1, 4566, Control_c, 0, 64, 69
1, 4582, Control_c, 0, 64, 71
1, 4597, Control_c, 0, 64, 73
1, 4597, Control_c, 0, 67, 112
1, 4604, Note_on_c, 0, 85, 85
1, 4608, Note_off_c, 0, 80, 57
1, 4612, Control_c, 0, 64, 75
1, 4626, Control_c, 0, 64, 77
1, 4641, Control_c, 0, 64, 81
1, 4656, Control_c, 0, 64, 85
1, 4660, Note_off_c, 0, 69, 51
1, 4671, Control_c, 0, 64, 88
1, 4686, Control_c, 0, 64, 91
1, 4700, Control_c, 0, 64, 93
1, 4715, Control_c, 0, 64, 95
1, 4724, Note_off_c, 0, 76, 58
1, 4730, Control_c, 0, 64, 95
1, 4740, Note_off_c, 0, 85, 54
1, 4742, Note_on_c, 0, 92, 89
1, 4753, Note_on_c, 0, 73, 63
1, 4758, Note_on_c, 0, 81, 58
1, 4759, Control_c, 0, 67, 113
1, 4784, Note_off_c, 0, 81, 62
1, 4787, Note_off_c, 0, 73, 64
1, 4789, Control_c, 0, 64, 96
1, 4804, Control_c, 0, 64, 96
1, 4819, Control_c, 0, 67, 113
1, 4833, Control_c, 0, 64, 97
1, 4856, Control_c, 0, 64, 97
1, 4856, Control_c, 0, 67, 114
1, 4859, Note_off_c, 0, 92, 65
1, 4871, Control_c, 0, 64, 99
1, 4871, Control_c, 0, 67, 115
1, 4881, Note_on_c, 0, 97, 98
1, 4886, Control_c, 0, 64, 103
1, 4886, Control_c, 0, 67, 115
1, 4901, Control_c, 0, 64, 105
1, 4901, Control_c, 0, 67, 116
1, 4915, Control_c, 0, 67, 117
1, 5014, Note_off_c, 0, 97, 63
1, 5030, Note_on_c, 0, 92, 71
1, 5040, Note_on_c, 0, 81, 67
1, 5063, Note_on_c, 0, 88, 15
1, 5065, Note_off_c, 0, 81, 67
1, 5104, Note_off_c, 0, 88, 53
1, 5123, Control_c, 0, 64, 105
1, 5138, Control_c, 0, 64, 104
1, 5145, Note_off_c, 0, 92, 63
1, 5152, Control_c, 0, 64, 103
1, 5167, Control_c, 0, 64, 101
1, 5176, Note_on_c, 0, 85, 64
1, 5182, Control_c, 0, 64, 100
1, 5212, Control_c, 0, 64, 100
1, 5226, Control_c, 0, 64, 99
1, 5241, Control_c, 0, 64, 98
1, 5247, Note_off_c, 0, 85, 58
1, 5256, Control_c, 0, 64, 96
1, 5271, Control_c, 0, 64, 95
1, 5286, Control_c, 0, 64, 94
1, 5300, Note_on_c, 0, 66, 58
1, 5301, Note_on_c, 0, 62, 58
1, 5302, Note_on_c, 0, 78, 64
1, 5316, Note_on_c, 0, 72, 64
1, 5326, Note_off_c, 0, 62, 58
1, 5330, Control_c, 0, 64, 93
1, 5331, Note_off_c, 0, 66, 64
1, 5342, Note_off_c, 0, 72, 69
1, 5345, Control_c, 0, 64, 93
1, 5360, Control_c, 0, 64, 92
1, 5369, Note_off_c, 0, 78, 59
1, 5372, Note_on_c, 0, 84, 65
1, 5420, Control_c, 0, 64, 91
1, 5432, Note_off_c, 0, 84, 63
1, 5435, Control_c, 0, 64, 91
1, 5437, Note_on_c, 0, 88, 68
1, 5479, Control_c, 0, 64, 90
1, 5494, Control_c, 0, 64, 90
1, 5497, Note_on_c, 0, 92, 74
1, 5509, Control_c, 0, 64, 88
1, 5513, Note_off_c, 0, 88, 55
1, 5524, Control_c, 0, 64, 85
1, 5539, Control_c, 0, 64, 81
1, 5554, Control_c, 0, 64, 73
1, 5561, Note_off_c, 0, 92, 65
1, 5569, Control_c, 0, 64, 66
1, 5576, Note_on_c, 0, 69, 49
1, 5577, Note_on_c, 0, 76, 55
1, 5578, Note_on_c, 0, 80, 73
1, 5583, Control_c, 0, 64, 60
1, 5605, Control_c, 0, 64, 56
1, 5620, Control_c, 0, 64, 55
1, 5635, Control_c, 0, 64, 57
1, 5650, Control_c, 0, 64, 61
1, 5650, Control_c, 0, 67, 116
1, 5664, Control_c, 0, 64, 63
1, 5679, Control_c, 0, 64, 65
1, 5694, Control_c, 0, 64, 67
1, 5709, Control_c, 0, 64, 69
1, 5724, Note_on_c, 0, 85, 82
1, 5724, Control_c, 0, 64, 71
1, 5727, Note_off_c, 0, 80, 62
1, 5739, Control_c, 0, 64, 75
1, 5739, Control_c, 0, 67, 116
1, 5751, Note_off_c, 0, 69, 57
1, 5754, Control_c, 0, 64, 79
1, 5754, Control_c, 0, 67, 115
1, 5760, Note_off_c, 0, 76, 55
1, 5769, Control_c, 0, 64, 81
1, 5783, Control_c, 0, 64, 83
1, 5813, Control_c, 0, 64, 83
1, 5843, Control_c, 0, 64, 84
1, 5857, Control_c, 0, 64, 85
1, 5861, Note_on_c, 0, 92, 86
1, 5876, Note_on_c, 0, 81, 66
1, 5878, Note_on_c, 0, 73, 66
1, 5882, Note_off_c, 0, 85, 63
1, 5909, Note_off_c, 0, 73, 63
1, 5909, Note_off_c, 0, 81, 61
1, 5961, Control_c, 0, 64, 86
1, 5975, Control_c, 0, 67, 116
1, 5984, Note_off_c, 0, 92, 62
1, 5990, Control_c, 0, 67, 116
1, 5998, Note_on_c, 0, 97, 92
1, 6020, Control_c, 0, 67, 117
1, 6049, Control_c, 0, 64, 85
1, 6049, Control_c, 0, 67, 117
1, 6108, Note_off_c, 0, 97, 63
1, 6108, Control_c, 0, 64, 86
1, 6144, Note_on_c, 0, 81, 63
1, 6148, Note_on_c, 0, 92, 68
1, 6159, Note_on_c, 0, 88, 32
1, 6171, Note_off_c, 0, 81, 67
1, 6195, Note_off_c, 0, 88, 32
1, 6228, Control_c, 0, 64, 85
1, 6228, Control_c, 0, 67, 117
1, 6243, Control_c, 0, 64, 85
1, 6258, Control_c, 0, 64, 84
1, 6273, Control_c, 0, 67, 116
1, 6282, Note_off_c, 0, 92, 59
1, 6290, Note_on_c, 0, 85, 62
1, 6317, Control_c, 0, 64, 84
1, 6366, Note_off_c, 0, 85, 54
1, 6412, Note_on_c, 0, 78, 72
1, 6413, Control_c, 0, 64, 83
1, 6438, Note_on_c, 0, 72, 54
1, 6439, Note_on_c, 0, 66, 38
1, 6451, Note_on_c, 0, 62, 24
1, 6460, Note_off_c, 0, 72, 61
1, 6470, Note_off_c, 0, 66, 52
1, 6484, Note_off_c, 0, 78, 60
1, 6489, Note_off_c, 0, 62, 42
1, 6496, Note_on_c, 0, 84, 60
1, 6551, Note_off_c, 0, 84, 60
1, 6552, Note_on_c, 0, 88, 70
1, 6621, Control_c, 0, 64, 83
1, 6625, Note_off_c, 0, 88, 56
1, 6630, Note_on_c, 0, 92, 69
1, 6651, Control_c, 0, 64, 82
1, 6666, Control_c, 0, 64, 80
1, 6680, Control_c, 0, 64, 75
1, 6681, Note_on_c, 0, 80, 72
1, 6684, Note_on_c, 0, 69, 46
1, 6689, Note_on_c, 0, 76, 47
1, 6691, Note_off_c, 0, 92, 64
1, 6695, Control_c, 0, 64, 66
1, 6710, Control_c, 0, 64, 57
1, 6724, Control_c, 0, 64, 55
1, 6754, Control_c, 0, 64, 56
1, 6769, Control_c, 0, 64, 60
1, 6784, Control_c, 0, 64, 64
1, 6798, Control_c, 0, 64, 67
1, 6798, Control_c, 0, 67, 117
1, 6813, Control_c, 0, 64, 70
1, 6825, Note_off_c, 0, 80, 59
1, 6828, Control_c, 0, 64, 73
1, 6832, Note_on_c, 0, 85, 71
1, 6843, Control_c, 0, 64, 76
1, 6846, Note_off_c, 0, 69, 51
1, 6858, Control_c, 0, 64, 80
1, 6872, Control_c, 0, 64, 83
1, 6887, Control_c, 0, 64, 86
1, 6895, Note_off_c, 0, 76, 36
1, 6902, Control_c, 0, 64, 88
1, 6917, Control_c, 0, 64, 89
1, 6929, Note_off_c, 0, 85, 60
1, 6949, Note_on_c, 0, 92, 67
1, 6954, Note_on_c, 0, 81, 52
1, 6973, Note_on_c, 0, 73, 40
1, 6974, Note_off_c, 0, 81, 64
1, 7003, Note_off_c, 0, 73, 55
1, 7058, Note_off_c, 0, 92, 57
1, 7066, Control_c, 0, 64, 89
1, 7090, Note_on_c, 0, 97, 50
1, 7103, Control_c, 0, 64, 88
1, 7118, Control_c, 0, 64, 88
1, 7122, Note_off_c, 0, 97, 60
1, 7192, Control_c, 0, 67, 117
1, 7207, Control_c, 0, 64, 87
1, 7207, Control_c, 0, 67, 118
1, 7222, Control_c, 0, 64, 83
1, 7235, Note_on_c, 0, 78, 62
1, 7236, Control_c, 0, 64, 78
1, 7250, Note_on_c, 0, 72, 38
1, 7251, Control_c, 0, 64, 73
1, 7252, Note_on_c, 0, 66, 41
1, 7266, Control_c, 0, 64, 69
1, 7281, Control_c, 0, 64, 66
1, 7296, Control_c, 0, 64, 65
1, 7310, Control_c, 0, 64, 65
1, 7325, Control_c, 0, 64, 65
1, 7340, Control_c, 0, 64, 67
1, 7354, Control_c, 0, 64, 68
1, 7358, Note_off_c, 0, 78, 57
1, 7369, Control_c, 0, 64, 70
1, 7370, Note_on_c, 0, 84, 59
1, 7384, Control_c, 0, 64, 73
1, 7399, Control_c, 0, 64, 75
1, 7402, Note_off_c, 0, 72, 43
1, 7414, Control_c, 0, 64, 78
1, 7429, Control_c, 0, 64, 81
1, 7444, Control_c, 0, 64, 84
1, 7444, Control_c, 0, 67, 117
1, 7459, Control_c, 0, 64, 86
1, 7469, Note_off_c, 0, 84, 58
1, 7473, Control_c, 0, 64, 87
1, 7486, Note_off_c, 0, 66, 36
1, 7496, Note_on_c, 0, 88, 61
1, 7503, Control_c, 0, 64, 88
1, 7503, Control_c, 0, 67, 117
1, 7512, Note_on_c, 0, 62, 33
1, 7516, Note_on_c, 0, 69, 33
1, 7543, Note_off_c, 0, 62, 55
1, 7548, Control_c, 0, 67, 116
1, 7550, Note_off_c, 0, 69, 51
1, 7610, Note_off_c, 0, 88, 35
1, 7632, Note_on_c, 0, 92, 63
1, 7650, Note_off_c, 0, 92, 68
1, 7710, Control_c, 0, 64, 86
1, 7725, Control_c, 0, 64, 83
1, 7740, Control_c, 0, 64, 76
1, 7754, Control_c, 0, 64, 72
1, 7762, Note_on_c, 0, 74, 71
1, 7768, Note_on_c, 0, 68, 50
1, 7769, Control_c, 0, 64, 70
1, 7781, Note_on_c, 0, 58, 48
1, 7785, Control_c, 0, 64, 71
1, 7800, Control_c, 0, 64, 73
1, 7815, Control_c, 0, 64, 75
1, 7816, Note_off_c, 0, 68, 54
1, 7821, Note_on_c, 0, 80, 74
1, 7828, Note_off_c, 0, 74, 63
1, 7830, Control_c, 0, 64, 77
1, 7852, Control_c, 0, 64, 79
1, 7867, Control_c, 0, 64, 80
1, 7882, Control_c, 0, 64, 81
1, 7885, Note_on_c, 0, 84, 69
1, 7889, Note_off_c, 0, 80, 63
1, 7897, Control_c, 0, 64, 82
1, 7911, Control_c, 0, 64, 83
1, 7920, Note_off_c, 0, 84, 63
1, 7926, Control_c, 0, 64, 84
1, 7948, Note_on_c, 0, 88, 77
1, 7956, Control_c, 0, 64, 82
1, 7971, Control_c, 0, 64, 80
1, 7985, Control_c, 0, 64, 79
1, 7993, Note_off_c, 0, 58, 45
1, 8010, Note_off_c, 0, 88, 62
1, 8016, Control_c, 0, 64, 80
1, 8018, Note_on_c, 0, 85, 75
1, 8019, Note_on_c, 0, 55, 54
1, 8025, Note_on_c, 0, 65, 41
1, 8031, Control_c, 0, 64, 81
1, 8031, Control_c, 0, 67, 116
1, 8046, Control_c, 0, 64, 82
1, 8046, Control_c, 0, 67, 115
1, 8052, Note_off_c, 0, 55, 64
1, 8054, Note_off_c, 0, 65, 53
1, 8060, Control_c, 0, 64, 83
1, 8061, Note_off_c, 0, 85, 66
1, 8087, Note_on_c, 0, 81, 58
1, 8104, Control_c, 0, 64, 84
1, 8126, Note_off_c, 0, 81, 63
1, 8150, Note_on_c, 0, 77, 64
1, 8177, Note_off_c, 0, 77, 65
1, 8178, Control_c, 0, 64, 84
1, 8192, Note_on_c, 0, 71, 67
1, 8193, Control_c, 0, 64, 85
1, 8208, Control_c, 0, 67, 116
1, 8210, Note_off_c, 0, 71, 68
1, 8223, Control_c, 0, 64, 84
1, 8223, Control_c, 0, 67, 117
1, 8238, Control_c, 0, 64, 80
1, 8252, Control_c, 0, 64, 74
1, 8252, Control_c, 0, 67, 117
1, 8267, Control_c, 0, 64, 66
1, 8268, Note_on_c, 0, 62, 59
1, 8275, Note_on_c, 0, 68, 73
1, 8282, Control_c, 0, 64, 59
1, 8285, Note_on_c, 0, 52, 53
1, 8296, Control_c, 0, 64, 53
1, 8311, Control_c, 0, 64, 56
1, 8326, Control_c, 0, 64, 62
1, 8337, Note_off_c, 0, 68, 59
1, 8340, Note_on_c, 0, 74, 75
1, 8341, Control_c, 0, 64, 67
1, 8341, Control_c, 0, 67, 118
1, 8356, Control_c, 0, 64, 71
1, 8371, Control_c, 0, 64, 77
1, 8377, Note_off_c, 0, 62, 40
1, 8386, Control_c, 0, 64, 83
1, 8401, Note_on_c, 0, 78, 73
1, 8401, Control_c, 0, 64, 90
1, 8401, Control_c, 0, 67, 118
1, 8410, Note_off_c, 0, 74, 60
1, 8416, Control_c, 0, 64, 93
1, 8419, Note_off_c, 0, 52, 61
1, 8431, Control_c, 0, 64, 94
1, 8445, Control_c, 0, 64, 95
1, 8462, Note_on_c, 0, 82, 85
1, 8469, Note_off_c, 0, 78, 64
1, 8475, Control_c, 0, 67, 118
1, 8490, Control_c, 0, 64, 93
1, 8504, Control_c, 0, 64, 83
1, 8508, Note_off_c, 0, 82, 66
1, 8519, Control_c, 0, 64, 71
1, 8534, Control_c, 0, 64, 61
1, 8544, Note_on_c, 0, 79, 66
1, 8547, Note_on_c, 0, 49, 60
1, 8548, Note_on_c, 0, 59, 57
1, 8549, Control_c, 0, 64, 53
1, 8549, Control_c, 0, 67, 117
1, 8564, Control_c, 0, 64, 54
1, 8564, Control_c, 0, 67, 116
1, 8580, Control_c, 0, 64, 62
1, 8601, Control_c, 0, 64, 66
1, 8601, Control_c, 0, 67, 116
1, 8603, Note_off_c, 0, 59, 60
1, 8612, Note_off_c, 0, 79, 56
1, 8616, Control_c, 0, 64, 70
1, 8616, Control_c, 0, 67, 115
1, 8621, Note_on_c, 0, 74, 65
1, 8631, Control_c, 0, 64, 75
1, 8631, Control_c, 0, 67, 115
1, 8636, Note_off_c, 0, 49, 62
1, 8646, Control_c, 0, 64, 79
1, 8646, Control_c, 0, 67, 114
1, 8661, Control_c, 0, 64, 83
1, 8661, Control_c, 0, 67, 114
1, 8675, Control_c, 0, 64, 84
1, 8675, Control_c, 0, 67, 113
1, 8678, Note_off_c, 0, 74, 63
1, 8694, Note_on_c, 0, 71, 61
1, 8720, Control_c, 0, 67, 113
1, 8739, Note_off_c, 0, 71, 59
1, 8748, Note_on_c, 0, 65, 67
1, 8779, Note_off_c, 0, 65, 66
1, 8794, Control_c, 0, 64, 84
1, 8808, Control_c, 0, 64, 83
1, 8823, Control_c, 0, 64, 83
1, 8838, Control_c, 0, 64, 81
1, 8853, Control_c, 0, 64, 77
1, 8868, Control_c, 0, 64, 73
1, 8882, Control_c, 0, 64, 67
1, 8897, Control_c, 0, 64, 64
1, 8912, Control_c, 0, 64, 58
1, 8918, Note_on_c, 0, 62, 59
1, 8919, Note_on_c, 0, 46, 59
1, 8919, Note_on_c, 0, 56, 66
1, 8926, Control_c, 0, 64, 46
1, 8941, Control_c, 0, 64, 34
1, 8956, Control_c, 0, 64, 31
1, 8986, Control_c, 0, 64, 38
1, 8986, Control_c, 0, 67, 112
1, 9000, Control_c, 0, 64, 53
1, 9015, Control_c, 0, 64, 61
1, 9030, Control_c, 0, 64, 65
1, 9042, Note_off_c, 0, 62, 53
1, 9045, Control_c, 0, 64, 68
1, 9052, Note_off_c, 0, 46, 62
1, 9060, Control_c, 0, 64, 72
1, 9074, Control_c, 0, 64, 76
1, 9087, Note_off_c, 0, 56, 66
1, 9089, Note_on_c, 0, 68, 53
1, 9089, Control_c, 0, 64, 80
1, 9104, Control_c, 0, 64, 83
1, 9119, Control_c, 0, 64, 84
1, 9134, Control_c, 0, 64, 85
1, 9149, Control_c, 0, 64, 86
1, 9149, Control_c, 0, 67, 113
1, 9179, Note_off_c, 0, 68, 60
1, 9179, Control_c, 0, 64, 86
1, 9262, Note_on_c, 0, 72, 58
1, 9274, Note_on_c, 0, 68, 76
1, 9281, Note_on_c, 0, 58, 58
1, 9412, Note_off_c, 0, 72, 55
1, 9420, Note_on_c, 0, 76, 60
1, 9474, Note_off_c, 0, 68, 60
1, 9535, Note_off_c, 0, 58, 61
1, 9542, Control_c, 0, 64, 85
1, 9548, Note_on_c, 0, 72, 59
1, 9557, Control_c, 0, 64, 85
1, 9572, Control_c, 0, 64, 84
1, 9587, Note_off_c, 0, 76, 32
1, 9602, Control_c, 0, 64, 84
1, 9617, Control_c, 0, 64, 83
1, 9631, Control_c, 0, 64, 82
1, 9645, Note_off_c, 0, 72, 51
1, 9646, Control_c, 0, 64, 82
1, 9661, Control_c, 0, 64, 81
1, 9683, Note_on_c, 0, 68, 65
1, 9749, Control_c, 0, 64, 80
1, 9760, Note_off_c, 0, 68, 56
1, 9764, Control_c, 0, 64, 77
1, 9779, Control_c, 0, 64, 72
1, 9794, Control_c, 0, 64, 66
1, 9809, Control_c, 0, 64, 63
1, 9814, Note_on_c, 0, 67, 51
1, 9821, Note_on_c, 0, 65, 67
1, 9823, Control_c, 0, 64, 64
1, 9829, Note_on_c, 0, 59, 53
1, 9832, Note_on_c, 0, 49, 56
1, 9838, Control_c, 0, 64, 66
1, 9853, Control_c, 0, 64, 70
1, 9858, Note_off_c, 0, 65, 56
1, 9867, Note_off_c, 0, 67, 57
1, 9867, Control_c, 0, 64, 73
1, 9878, Note_on_c, 0, 71, 66
1, 9882, Control_c, 0, 64, 77
1, 9897, Note_off_c, 0, 59, 55
1, 9897, Control_c, 0, 64, 82
1, 9903, Note_on_c, 0, 72, 44
1, 9912, Control_c, 0, 64, 84
1, 9927, Control_c, 0, 64, 85
1, 9931, Note_off_c, 0, 72, 34
1, 9936, Note_on_c, 0, 74, 79
1, 9938, Note_off_c, 0, 71, 64
1, 9972, Control_c, 0, 67, 113
1, 9983, Note_on_c, 0, 79, 73
1, 9988, Note_off_c, 0, 74, 62
1, 10001, Control_c, 0, 67, 114
1, 10016, Control_c, 0, 64, 84
1, 10022, Note_off_c, 0, 79, 60
1, 10031, Control_c, 0, 64, 83
1, 10031, Control_c, 0, 67, 114
1, 10046, Control_c, 0, 64, 80
1, 10046, Control_c, 0, 67, 115
1, 10061, Control_c, 0, 64, 74
1, 10064, Note_off_c, 0, 49, 53
1, 10075, Control_c, 0, 64, 68
1, 10090, Control_c, 0, 64, 61
1, 10109, Note_on_c, 0, 46, 49
1, 10112, Note_on_c, 0, 62, 62
1, 10112, Control_c, 0, 64, 46
1, 10118, Note_on_c, 0, 56, 46
1, 10127, Control_c, 0, 64, 38
1, 10127, Control_c, 0, 67, 115
1, 10156, Control_c, 0, 64, 48
1, 10156, Control_c, 0, 67, 116
1, 10172, Control_c, 0, 64, 59
1, 10187, Control_c, 0, 64, 64
1, 10191, Note_off_c, 0, 46, 59
1, 10202, Control_c, 0, 64, 66
1, 10213, Note_off_c, 0, 56, 64
1, 10217, Control_c, 0, 64, 70
1, 10228, Note_off_c, 0, 62, 50
1, 10232, Control_c, 0, 64, 74
1, 10246, Control_c, 0, 64, 77
1, 10261, Control_c, 0, 64, 79
1, 10265, Note_on_c, 0, 68, 54
1, 10291, Control_c, 0, 64, 79
1, 10335, Control_c, 0, 64, 78
1, 10341, Note_off_c, 0, 68, 44
1, 10350, Control_c, 0, 64, 77
1, 10413, Note_on_c, 0, 72, 57
1, 10421, Note_on_c, 0, 68, 54
1, 10425, Control_c, 0, 64, 77
1, 10445, Note_on_c, 0, 58, 21
1, 10498, Control_c, 0, 64, 76
1, 10527, Note_off_c, 0, 72, 38
1, 10528, Control_c, 0, 67, 115
1, 10551, Note_on_c, 0, 76, 58
1, 10558, Control_c, 0, 67, 115
1, 10571, Note_off_c, 0, 68, 60
1, 10572, Control_c, 0, 67, 114
1, 10602, Control_c, 0, 67, 114
1, 10648, Note_off_c, 0, 58, 55
1, 10657, Note_off_c, 0, 76, 33
1, 10699, Note_on_c, 0, 72, 53
1, 10759, Note_off_c, 0, 72, 47
1, 10765, Control_c, 0, 64, 76
1, 10765, Control_c, 0, 67, 113
1, 10794, Control_c, 0, 64, 75
1, 10833, Note_on_c, 0, 68, 60
1, 10861, Control_c, 0, 67, 113
1, 10905, Note_off_c, 0, 68, 58
1, 10905, Control_c, 0, 64, 74
1, 10920, Control_c, 0, 64, 72
1, 10935, Control_c, 0, 64, 69
1, 10950, Control_c, 0, 64, 65
1, 10961, Note_on_c, 0, 67, 51
1, 10965, Note_on_c, 0, 65, 66
1, 10965, Control_c, 0, 64, 64
1, 10965, Control_c, 0, 67, 112
1, 10981, Control_c, 0, 64, 65
1, 10988, Note_on_c, 0, 49, 40
1, 10995, Control_c, 0, 64, 67
1, 11000, Note_on_c, 0, 59, 24
1, 11010, Control_c, 0, 64, 69
1, 11015, Note_off_c, 0, 65, 49
1, 11025, Note_off_c, 0, 67, 47
1, 11025, Control_c, 0, 64, 72
1, 11030, Note_on_c, 0, 71, 70
1, 11040, Control_c, 0, 64, 74
1, 11040, Control_c, 0, 67, 112
1, 11049, Note_off_c, 0, 59, 52
1, 11055, Control_c, 0, 64, 77
1, 11070, Control_c, 0, 64, 78
1, 11070, Control_c, 0, 67, 111
1, 11084, Control_c, 0, 64, 79
1, 11087, Note_off_c, 0, 71, 64
1, 11090, Note_on_c, 0, 74, 76
1, 11140, Note_off_c, 0, 74, 67
1, 11143, Control_c, 0, 67, 112
1, 11153, Note_on_c, 0, 79, 74
1, 11158, Control_c, 0, 67, 113
1, 11173, Control_c, 0, 67, 113
1, 11188, Control_c, 0, 67, 114
1, 11191, Note_off_c, 0, 79, 60
1, 11203, Control_c, 0, 64, 78
1, 11203, Control_c, 0, 67, 115
1, 11218, Control_c, 0, 64, 77
1, 11218, Control_c, 0, 67, 115
1, 11233, Control_c, 0, 64, 74
1, 11248, Control_c, 0, 64, 69
1, 11248, Control_c, 0, 67, 116
1, 11262, Control_c, 0, 64, 64
1, 11274, Note_off_c, 0, 49, 54
1, 11277, Control_c, 0, 64, 61
1, 11280, Note_on_c, 0, 62, 58
1, 11290, Note_on_c, 0, 46, 52
1, 11292, Control_c, 0, 64, 60
1, 11298, Note_on_c, 0, 56, 41
1, 11307, Control_c, 0, 64, 61
1, 11321, Control_c, 0, 64, 64
1, 11336, Control_c, 0, 64, 66
1, 11351, Control_c, 0, 64, 68
1, 11366, Control_c, 0, 64, 70
1, 11381, Control_c, 0, 64, 74
1, 11382, Note_off_c, 0, 46, 60
1, 11395, Control_c, 0, 64, 76
1, 11395, Control_c, 0, 67, 115
1, 11400, Note_off_c, 0, 56, 64
1, 11410, Control_c, 0, 64, 78
1, 11424, Note_off_c, 0, 62, 53
1, 11440, Control_c, 0, 67, 115
1, 11444, Note_on_c, 0, 68, 53
1, 11499, Control_c, 0, 64, 77
1, 11522, Note_off_c, 0, 68, 40
1, 11595, Control_c, 0, 64, 77
1, 11653, Note_on_c, 0, 68, 72
1, 11654, Control_c, 0, 67, 114
1, 11668, Note_on_c, 0, 72, 43
1, 11680, Note_on_c, 0, 58, 57
1, 11684, Control_c, 0, 64, 76
1, 11699, Control_c, 0, 67, 114
1, 11728, Control_c, 0, 67, 113
1, 11811, Note_off_c, 0, 72, 37
1, 11832, Note_on_c, 0, 76, 54
1, 11864, Control_c, 0, 64, 77
1, 11908, Control_c, 0, 64, 77
1, 11951, Note_off_c, 0, 68, 56
1, 11962, Note_off_c, 0, 58, 55
1, 11981, Note_on_c, 0, 72, 56
1, 11985, Note_off_c, 0, 76, 30
1, 11997, Control_c, 0, 67, 114
1, 12053, Note_off_c, 0, 72, 48
1, 12070, Control_c, 0, 64, 77
1, 12102, Note_on_c, 0, 68, 50
1, 12137, Note_off_c, 0, 68, 65
1, 12249, Note_on_c, 0, 58, 36
1, 12250, Note_on_c, 0, 62, 54
1, 12252, Note_on_c, 0, 68, 17
1, 12288, Note_off_c, 0, 68, 53
1, 12293, Control_c, 0, 64, 76
1, 12359, Control_c, 0, 64, 76
1, 12374, Note_off_c, 0, 62, 49
1, 12388, Note_on_c, 0, 64, 65
1, 12449, Control_c, 0, 64, 75
1, 12481, Note_off_c, 0, 64, 58
1, 12532, Note_on_c, 0, 62, 58
1, 12537, Control_c, 0, 64, 75
1, 12551, Control_c, 0, 64, 74
1, 12563, Note_off_c, 0, 62, 63
1, 12595, Note_on_c, 0, 60, 64
1, 12631, Note_off_c, 0, 60, 64
1, 12661, Note_on_c, 0, 62, 68
1, 12702, Note_off_c, 0, 58, 48
1, 12706, Note_off_c, 0, 62, 60
1, 12729, Note_on_c, 0, 64, 58
1, 12753, Note_off_c, 0, 64, 65
1, 12774, Control_c, 0, 64, 73
1, 12788, Note_on_c, 0, 66, 65
1, 12789, Control_c, 0, 64, 70
1, 12804, Control_c, 0, 64, 66
1, 12809, Note_on_c, 0, 60, 51
1, 12810, Note_on_c, 0, 56, 52
1, 12819, Control_c, 0, 64, 63
1, 12834, Control_c, 0, 64, 62
1, 12848, Control_c, 0, 64, 63
1, 12857, Note_on_c, 0, 68, 64
1, 12863, Control_c, 0, 64, 64
1, 12878, Control_c, 0, 64, 66
1, 12890, Note_off_c, 0, 60, 62
1, 12893, Control_c, 0, 64, 68
1, 12908, Control_c, 0, 64, 71
1, 12910, Note_off_c, 0, 56, 63
1, 12920, Note_off_c, 0, 66, 52
1, 12923, Control_c, 0, 64, 74
1, 12925, Note_on_c, 0, 70, 66
1, 12937, Note_off_c, 0, 68, 56
1, 12938, Control_c, 0, 64, 76
1, 12953, Control_c, 0, 64, 78
1, 12967, Control_c, 0, 64, 79
1, 12982, Control_c, 0, 64, 81
1, 12997, Note_on_c, 0, 72, 66
1, 12997, Control_c, 0, 64, 82
1, 13014, Note_off_c, 0, 70, 63
1, 13021, Note_off_c, 0, 72, 68
1, 13027, Control_c, 0, 64, 80
1, 13041, Control_c, 0, 64, 75
1, 13056, Control_c, 0, 64, 68
1, 13071, Control_c, 0, 64, 65
1, 13079, Note_on_c, 0, 64, 52
1, 13081, Note_on_c, 0, 58, 47
1, 13090, Note_on_c, 0, 74, 70
1, 13090, Note_on_c, 0, 54, 48
1, 13108, Control_c, 0, 64, 66
1, 13122, Control_c, 0, 64, 68
1, 13122, Control_c, 0, 67, 114
1, 13126, Note_off_c, 0, 74, 60
1, 13132, Note_off_c, 0, 54, 58
1, 13134, Note_off_c, 0, 58, 57
1, 13137, Control_c, 0, 64, 71
1, 13137, Control_c, 0, 67, 115
1, 13152, Control_c, 0, 64, 73
1, 13152, Control_c, 0, 67, 116
1, 13163, Note_on_c, 0, 76, 68
1, 13167, Control_c, 0, 64, 75
1, 13167, Control_c, 0, 67, 116
1, 13173, Note_off_c, 0, 64, 60
1, 13182, Control_c, 0, 64, 77
1, 13182, Control_c, 0, 67, 117
1, 13197, Control_c, 0, 64, 77
1, 13228, Note_off_c, 0, 76, 58
1, 13242, Note_on_c, 0, 78, 64
1, 13256, Control_c, 0, 67, 117
1, 13286, Control_c, 0, 67, 118
1, 13295, Note_on_c, 0, 80, 55
1, 13298, Note_on_c, 0, 53, 38
1, 13300, Control_c, 0, 67, 118
1, 13307, Note_off_c, 0, 78, 55
1, 13322, Note_on_c, 0, 57, 40
1, 13330, Control_c, 0, 64, 77
1, 13345, Control_c, 0, 64, 76
1, 13360, Control_c, 0, 64, 75
1, 13366, Note_off_c, 0, 80, 62
1, 13376, Control_c, 0, 64, 74
1, 13376, Control_c, 0, 67, 119
1, 13382, Note_on_c, 0, 83, 52
1, 13390, Control_c, 0, 64, 70
1, 13405, Control_c, 0, 64, 66
1, 13405, Control_c, 0, 67, 119
1, 13420, Control_c, 0, 64, 62
1, 13420, Control_c, 0, 67, 120
1, 13427, Note_on_c, 0, 79, 55
1, 13435, Control_c, 0, 64, 49
1, 13435, Control_c, 0, 67, 120
1, 13449, Note_off_c, 0, 83, 54
1, 13450, Control_c, 0, 64, 32
1, 13450, Control_c, 0, 67, 121
1, 13464, Control_c, 0, 64, 33
1, 13464, Control_c, 0, 67, 122
1, 13468, Note_off_c, 0, 79, 61
1, 13475, Note_on_c, 0, 63, 42
1, 13479, Control_c, 0, 64, 46
1, 13479, Control_c, 0, 67, 127
1, 13494, Control_c, 0, 64, 57
1, 13509, Control_c, 0, 64, 62
1, 13511, Note_on_c, 0, 71, 59
1, 13523, Control_c, 0, 64, 64
1, 13538, Control_c, 0, 64, 66
1, 13553, Control_c, 0, 64, 68
1, 13563, Note_off_c, 0, 71, 52
1, 13568, Control_c, 0, 64, 71
1, 13583, Control_c, 0, 64, 74
1, 13585, Note_off_c, 0, 63, 54
1, 13597, Control_c, 0, 64, 76
1, 13611, Note_on_c, 0, 73, 61
1, 13612, Control_c, 0, 64, 79
1, 13627, Control_c, 0, 64, 82
1, 13628, Note_off_c, 0, 57, 59
1, 13642, Control_c, 0, 64, 84
1, 13657, Control_c, 0, 64, 85
1, 13665, Note_off_c, 0, 53, 50
1, 13666, Note_off_c, 0, 73, 59
1, 13671, Note_on_c, 0, 75, 64
1, 13671, Control_c, 0, 64, 86
1, 13686, Control_c, 0, 64, 87
1, 13701, Control_c, 0, 64, 89
1, 13706, Note_off_c, 0, 75, 61
1, 13716, Control_c, 0, 64, 89
1, 13758, Note_on_c, 0, 77, 52
1, 13792, Note_off_c, 0, 77, 65
1, 13834, Note_on_c, 0, 79, 46
1, 13889, Note_off_c, 0, 79, 48
1, 13915, Note_on_c, 0, 81, 53
1, 13916, Control_c, 0, 64, 89
1, 13930, Control_c, 0, 64, 88
1, 13940, Note_off_c, 0, 81, 58
1, 13990, Note_on_c, 0, 83, 53
1, 14005, Control_c, 0, 64, 88
1, 14030, Note_off_c, 0, 83, 62
1, 14061, Note_on_c, 0, 85, 68
1, 14064, Control_c, 0, 64, 87
1, 14094, Note_on_c, 0, 40, 38
1, 14096, Note_off_c, 0, 85, 61
1, 14123, Control_c, 0, 64, 87
1, 14153, Control_c, 0, 64, 86
1, 14169, Control_c, 0, 64, 85
1, 14199, Control_c, 0, 64, 84
1, 14228, Control_c, 0, 64, 83
1, 14234, Note_on_c, 0, 47, 39
1, 14243, Control_c, 0, 64, 82
1, 14258, Control_c, 0, 64, 80
1, 14273, Control_c, 0, 64, 77
1, 14281, Note_on_c, 0, 87, 45
1, 14287, Control_c, 0, 64, 74
1, 14302, Control_c, 0, 64, 68
1, 14306, Note_on_c, 0, 80, 45
1, 14317, Control_c, 0, 64, 63
1, 14332, Control_c, 0, 64, 57
1, 14346, Control_c, 0, 64, 56
1, 14358, Note_on_c, 0, 56, 38
1, 14361, Control_c, 0, 64, 57
1, 14365, Note_off_c, 0, 80, 53
1, 14376, Control_c, 0, 64, 61
1, 14379, Note_off_c, 0, 87, 43
1, 14380, Note_on_c, 0, 75, 49
1, 14388, Note_off_c, 0, 40, 31
1, 14391, Control_c, 0, 64, 64
1, 14406, Control_c, 0, 64, 67
1, 14420, Control_c, 0, 64, 69
1, 14435, Control_c, 0, 64, 71
1, 14443, Note_off_c, 0, 47, 58
1, 14450, Control_c, 0, 64, 74
1, 14464, Control_c, 0, 64, 76
1, 14476, Note_off_c, 0, 56, 62
1, 14479, Control_c, 0, 64, 78
1, 14494, Control_c, 0, 64, 81
1, 14509, Control_c, 0, 64, 85
1, 14524, Control_c, 0, 64, 87
1, 14535, Note_off_c, 0, 75, 47
1, 14536, Note_on_c, 0, 80, 54
1, 14538, Control_c, 0, 64, 88
1, 14553, Control_c, 0, 64, 89
1, 14647, Note_off_c, 0, 80, 54
1, 14676, Note_on_c, 0, 64, 50
1, 14676, Note_on_c, 0, 87, 61
1, 14679, Note_on_c, 0, 71, 41
1, 14707, Note_off_c, 0, 71, 61
1, 14710, Note_off_c, 0, 64, 65
1, 14779, Note_off_c, 0, 87, 51
1, 14828, Note_on_c, 0, 90, 68
1, 14842, Control_c, 0, 64, 89
1, 14857, Control_c, 0, 64, 90
1, 14871, Control_c, 0, 64, 92
1, 14886, Control_c, 0, 64, 92
1, 14935, Note_off_c, 0, 90, 32
1, 14977, Note_on_c, 0, 87, 57
1, 14983, Note_on_c, 0, 75, 49
1, 14986, Note_on_c, 0, 68, 47
1, 14997, Note_on_c, 0, 63, 33
1, 15007, Note_off_c, 0, 75, 59
1, 15011, Note_off_c, 0, 68, 58
1, 15027, Note_off_c, 0, 87, 54
1, 15033, Note_off_c, 0, 63, 47
1, 15065, Control_c, 0, 64, 92
1, 15127, Note_on_c, 0, 80, 48
1, 15154, Control_c, 0, 64, 91
1, 15194, Note_off_c, 0, 80, 50
1, 15254, Note_on_c, 0, 57, 56
1, 15260, Note_on_c, 0, 64, 46
1, 15261, Note_on_c, 0, 73, 52
1, 15283, Note_off_c, 0, 57, 63
1, 15287, Note_off_c, 0, 64, 56
1, 15302, Control_c, 0, 64, 91
1, 15312, Note_off_c, 0, 73, 58
1, 15316, Note_on_c, 0, 80, 61
1, 15339, Control_c, 0, 64, 90
1, 15383, Control_c, 0, 64, 90
1, 15390, Note_off_c, 0, 80, 59
1, 15394, Note_on_c, 0, 85, 61
1, 15413, Control_c, 0, 64, 88
1, 15428, Control_c, 0, 64, 85
1, 15435, Note_on_c, 0, 52, 53
1, 15442, Control_c, 0, 64, 79
1, 15451, Note_on_c, 0, 88, 55
1, 15457, Control_c, 0, 64, 71
1, 15472, Control_c, 0, 64, 65
1, 15485, Note_on_c, 0, 59, 46
1, 15485, Note_off_c, 0, 85, 58
1, 15487, Control_c, 0, 64, 63
1, 15493, Note_off_c, 0, 88, 46
1, 15502, Control_c, 0, 64, 64
1, 15513, Note_off_c, 0, 52, 61
1, 15517, Control_c, 0, 64, 65
1, 15532, Control_c, 0, 64, 67
1, 15540, Note_on_c, 0, 75, 68
1, 15547, Control_c, 0, 64, 69
1, 15561, Control_c, 0, 64, 71
1, 15564, Note_on_c, 0, 68, 61
1, 15566, Note_off_c, 0, 59, 60
1, 15576, Control_c, 0, 64, 73
1, 15591, Control_c, 0, 64, 74
1, 15600, Note_off_c, 0, 68, 61
1, 15606, Control_c, 0, 64, 76
1, 15620, Control_c, 0, 64, 78
1, 15635, Control_c, 0, 64, 80
1, 15650, Control_c, 0, 64, 80
1, 15665, Control_c, 0, 64, 81
1, 15677, Note_off_c, 0, 75, 55
1, 15680, Control_c, 0, 64, 81
1, 15686, Note_on_c, 0, 80, 72
1, 15695, Control_c, 0, 64, 82
1, 15710, Control_c, 0, 64, 83
1, 15826, Note_on_c, 0, 87, 84
1, 15833, Note_on_c, 0, 71, 54
1, 15834, Note_on_c, 0, 64, 49
1, 15847, Note_off_c, 0, 80, 58
1, 15864, Note_off_c, 0, 64, 61
1, 15865, Note_off_c, 0, 71, 66
1, 15960, Note_on_c, 0, 90, 88
1, 15972, Note_off_c, 0, 87, 63
1, 16097, Note_off_c, 0, 90, 60
1, 16108, Note_on_c, 0, 87, 69
1, 16118, Note_on_c, 0, 75, 54
1, 16139, Note_on_c, 0, 63, 41
1, 16141, Note_on_c, 0, 68, 37
1, 16141, Note_off_c, 0, 75, 63
1, 16163, Control_c, 0, 64, 82
1, 16169, Note_off_c, 0, 63, 58
1, 16175, Note_off_c, 0, 68, 50
1, 16192, Control_c, 0, 64, 82
1, 16207, Note_off_c, 0, 87, 58
1, 16236, Control_c, 0, 64, 81
1, 16270, Note_on_c, 0, 80, 54
1, 16334, Note_off_c, 0, 80, 53
1, 16370, Control_c, 0, 64, 81
1, 16383, Note_on_c, 0, 57, 50
1, 16387, Note_on_c, 0, 64, 42
1, 16390, Note_on_c, 0, 73, 52
1, 16409, Note_off_c, 0, 57, 61
1, 16415, Note_off_c, 0, 64, 55
1, 16437, Note_off_c, 0, 73, 60
1, 16442, Note_on_c, 0, 80, 65
1, 16458, Control_c, 0, 64, 80
1, 16503, Control_c, 0, 64, 80
1, 16507, Note_off_c, 0, 80, 58
1, 16515, Note_on_c, 0, 85, 60
1, 16548, Control_c, 0, 64, 78
1, 16561, Note_on_c, 0, 52, 53
1, 16563, Control_c, 0, 64, 75
1, 16578, Control_c, 0, 64, 69
1, 16579, Note_on_c, 0, 59, 45
1, 16579, Note_on_c, 0, 88, 63
1, 16593, Control_c, 0, 64, 64
1, 16607, Control_c, 0, 64, 63
1, 16612, Note_off_c, 0, 85, 56
1, 16622, Control_c, 0, 64, 63
1, 16625, Note_off_c, 0, 88, 60
1, 16631, Note_off_c, 0, 52, 54
1, 16637, Control_c, 0, 64, 64
1, 16652, Control_c, 0, 64, 67
1, 16667, Control_c, 0, 64, 70
1, 16671, Note_on_c, 0, 75, 66
1, 16682, Control_c, 0, 64, 74
1, 16685, Note_off_c, 0, 59, 60
1, 16685, Note_on_c, 0, 68, 57
1, 16697, Control_c, 0, 64, 78
1, 16712, Control_c, 0, 64, 81
1, 16720, Note_off_c, 0, 68, 63
1, 16726, Control_c, 0, 64, 83
1, 16741, Control_c, 0, 64, 84
1, 16807, Note_off_c, 0, 75, 46
1, 16817, Note_on_c, 0, 80, 61
1, 16837, Control_c, 0, 64, 83
1, 16852, Control_c, 0, 64, 83
1, 16867, Control_c, 0, 64, 82
1, 16881, Control_c, 0, 64, 82
1, 16947, Note_off_c, 0, 80, 57
1, 16959, Note_on_c, 0, 71, 52
1, 16961, Note_on_c, 0, 64, 43
1, 16969, Note_on_c, 0, 87, 65
1, 16971, Control_c, 0, 64, 81
1, 16990, Note_off_c, 0, 64, 59
1, 16991, Note_off_c, 0, 71, 65
1, 17030, Control_c, 0, 64, 81
1, 17045, Control_c, 0, 64, 80
1, 17102, Note_on_c, 0, 90, 59
1, 17120, Note_off_c, 0, 87, 44
1, 17191, Note_off_c, 0, 90, 60
1, 17241, Note_on_c, 0, 80, 49
1, 17258, Note_on_c, 0, 75, 41
1, 17263, Note_on_c, 0, 68, 32
1, 17266, Control_c, 0, 64, 81
1, 17290, Note_off_c, 0, 75, 54
1, 17298, Note_off_c, 0, 68, 50
1, 17326, Control_c, 0, 64, 81
1, 17340, Control_c, 0, 64, 82
1, 17373, Note_off_c, 0, 80, 55
1, 17383, Note_on_c, 0, 87, 62
1, 17401, Control_c, 0, 64, 82
1, 17475, Control_c, 0, 64, 83
1, 17519, Note_on_c, 0, 92, 63
1, 17528, Note_off_c, 0, 87, 59
1, 17549, Control_c, 0, 64, 83
1, 17551, Note_on_c, 0, 71, 12
1, 17553, Note_on_c, 0, 83, 19
1, 17564, Control_c, 0, 64, 84
1, 17565, Note_on_c, 0, 76, 17
1, 17579, Control_c, 0, 64, 84
1, 17601, Note_off_c, 0, 71, 39
1, 17601, Control_c, 0, 64, 85
1, 17604, Note_off_c, 0, 83, 50
1, 17620, Note_off_c, 0, 76, 39
1, 17636, Note_off_c, 0, 92, 58
1, 17674, Note_on_c, 0, 95, 62
1, 17693, Note_off_c, 0, 95, 66
1, 17794, Control_c, 0, 64, 84
1, 17808, Control_c, 0, 64, 84
1, 17823, Control_c, 0, 64, 83
1, 17838, Control_c, 0, 64, 83
1, 17853, Control_c, 0, 64, 82
1, 17865, Note_on_c, 0, 88, 72
1, 17868, Control_c, 0, 64, 79
1, 17883, Control_c, 0, 64, 75
1, 17885, Note_on_c, 0, 73, 44
1, 17898, Control_c, 0, 64, 69
1, 17913, Control_c, 0, 64, 63
1, 17926, Note_on_c, 0, 80, 26
1, 17928, Control_c, 0, 64, 61
1, 17957, Control_c, 0, 64, 62
1, 17972, Control_c, 0, 64, 64
1, 17979, Note_off_c, 0, 80, 47
1, 17984, Note_off_c, 0, 88, 52
1, 17987, Control_c, 0, 64, 66
1, 18002, Control_c, 0, 64, 68
1, 18016, Control_c, 0, 64, 70
1, 18031, Control_c, 0, 64, 73
1, 18040, Note_on_c, 0, 83, 50
1, 18046, Control_c, 0, 64, 75
1, 18047, Note_off_c, 0, 73, 58
1, 18061, Control_c, 0, 64, 79
1, 18076, Control_c, 0, 64, 82
1, 18090, Control_c, 0, 64, 85
1, 18105, Control_c, 0, 64, 87
1, 18120, Control_c, 0, 64, 89
1, 18131, Note_off_c, 0, 83, 50
1, 18135, Control_c, 0, 64, 91
1, 18150, Control_c, 0, 64, 92
1, 18152, Note_on_c, 0, 85, 55
1, 18153, Note_on_c, 0, 80, 48
1, 18166, Control_c, 0, 64, 92
1, 18173, Note_off_c, 0, 85, 64
1, 18175, Note_on_c, 0, 76, 52
1, 18189, Note_off_c, 0, 80, 63
1, 18260, Note_off_c, 0, 76, 58
1, 18284, Control_c, 0, 64, 92
1, 18299, Control_c, 0, 64, 91
1, 18314, Note_on_c, 0, 71, 41
1, 18351, Control_c, 0, 64, 91
1, 18381, Control_c, 0, 64, 90
1, 18395, Control_c, 0, 64, 88
1, 18410, Control_c, 0, 64, 84
1, 18425, Control_c, 0, 64, 79
1, 18439, Control_c, 0, 64, 71
1, 18448, Note_on_c, 0, 81, 67
1, 18454, Note_off_c, 0, 71, 55
1, 18454, Control_c, 0, 64, 65
1, 18457, Note_on_c, 0, 66, 48
1, 18469, Control_c, 0, 64, 63
1, 18473, Note_on_c, 0, 73, 46
1, 18484, Control_c, 0, 64, 64
1, 18499, Control_c, 0, 64, 66
1, 18513, Control_c, 0, 64, 69
1, 18528, Control_c, 0, 64, 72
1, 18530, Note_off_c, 0, 73, 57
1, 18539, Note_off_c, 0, 81, 51
1, 18543, Control_c, 0, 64, 75
1, 18558, Control_c, 0, 64, 78
1, 18573, Control_c, 0, 64, 82
1, 18587, Control_c, 0, 64, 84
1, 18602, Control_c, 0, 64, 86
1, 18604, Note_off_c, 0, 66, 48
1, 18606, Note_on_c, 0, 76, 51
1, 18617, Control_c, 0, 64, 87
1, 18632, Control_c, 0, 64, 87
1, 18688, Note_off_c, 0, 76, 52
1, 18724, Note_on_c, 0, 73, 51
1, 18740, Note_on_c, 0, 78, 45
1, 18747, Note_off_c, 0, 73, 60
1, 18751, Note_on_c, 0, 69, 26
1, 18765, Note_off_c, 0, 78, 58
1, 18787, Note_off_c, 0, 69, 46
1, 18806, Note_on_c, 0, 64, 55
1, 18834, Note_off_c, 0, 64, 67
1, 18864, Note_on_c, 0, 69, 60
1, 18895, Note_off_c, 0, 69, 65
1, 18905, Note_on_c, 0, 76, 65
1, 18932, Note_off_c, 0, 76, 65
1, 18989, Control_c, 0, 64, 85
1, 19003, Control_c, 0, 64, 81
1, 19016, Note_on_c, 0, 88, 83
1, 19017, Note_on_c, 0, 73, 54
1, 19017, Note_on_c, 0, 80, 50
1, 19018, Control_c, 0, 64, 75
1, 19033, Control_c, 0, 64, 68
1, 19048, Control_c, 0, 64, 65
1, 19084, Control_c, 0, 64, 66
1, 19099, Control_c, 0, 64, 68
1, 19114, Control_c, 0, 64, 71
1, 19129, Control_c, 0, 64, 74
1, 19132, Note_off_c, 0, 80, 58
1, 19138, Note_off_c, 0, 88, 48
1, 19144, Control_c, 0, 64, 77
1, 19146, Note_off_c, 0, 73, 58
1, 19159, Control_c, 0, 64, 80
1, 19174, Control_c, 0, 64, 83
1, 19177, Note_on_c, 0, 83, 55
1, 19189, Control_c, 0, 64, 86
1, 19204, Control_c, 0, 64, 89
1, 19218, Control_c, 0, 64, 90
1, 19232, Control_c, 0, 64, 90
1, 19247, Control_c, 0, 64, 91
1, 19261, Control_c, 0, 64, 93
1, 19271, Note_off_c, 0, 83, 58
1, 19276, Control_c, 0, 64, 95
1, 19291, Control_c, 0, 64, 97
1, 19310, Note_on_c, 0, 76, 57
1, 19326, Note_on_c, 0, 80, 51
1, 19329, Note_on_c, 0, 85, 33
1, 19347, Note_off_c, 0, 80, 61
1, 19361, Note_off_c, 0, 85, 49
1, 19403, Note_off_c, 0, 76, 58
1, 19437, Note_on_c, 0, 71, 60
1, 19439, Control_c, 0, 64, 96
1, 19469, Control_c, 0, 64, 96
1, 19499, Control_c, 0, 64, 95
1, 19528, Control_c, 0, 64, 94
1, 19543, Control_c, 0, 64, 91
1, 19558, Control_c, 0, 64, 86
1, 19573, Control_c, 0, 64, 79
1, 19578, Note_on_c, 0, 81, 69
1, 19583, Note_off_c, 0, 71, 60
1, 19588, Control_c, 0, 64, 71
1, 19592, Note_on_c, 0, 66, 44
1, 19603, Control_c, 0, 64, 65
1, 19605, Note_on_c, 0, 73, 47
1, 19617, Control_c, 0, 64, 63
1, 19632, Control_c, 0, 64, 63
1, 19647, Control_c, 0, 64, 65
1, 19661, Control_c, 0, 64, 68
1, 19665, Note_off_c, 0, 73, 55
1, 19676, Control_c, 0, 64, 71
1, 19678, Note_off_c, 0, 81, 50
1, 19691, Control_c, 0, 64, 73
1, 19706, Control_c, 0, 64, 76
1, 19721, Control_c, 0, 64, 80
1, 19729, Note_on_c, 0, 76, 61
1, 19735, Control_c, 0, 64, 82
1, 19746, Note_off_c, 0, 66, 41
1, 19751, Control_c, 0, 64, 85
1, 19766, Control_c, 0, 64, 85
1, 19781, Control_c, 0, 64, 86
1, 19794, Note_off_c, 0, 76, 53
1, 19865, Note_on_c, 0, 73, 46
1, 19865, Note_on_c, 0, 69, 47
1, 19882, Note_on_c, 0, 78, 32
1, 19891, Note_off_c, 0, 73, 57
1, 19900, Note_off_c, 0, 69, 64
1, 19915, Note_off_c, 0, 78, 48
1, 19938, Note_on_c, 0, 64, 58
1, 19952, Control_c, 0, 64, 86
1, 19967, Note_off_c, 0, 64, 67
1, 19992, Note_on_c, 0, 69, 56
1, 19996, Control_c, 0, 64, 86
1, 20027, Note_off_c, 0, 69, 63
1, 20034, Note_on_c, 0, 76, 64
1, 20063, Note_off_c, 0, 76, 66
1, 20144, Control_c, 0, 64, 85
1, 20154, Note_on_c, 0, 88, 84
1, 20158, Control_c, 0, 64, 83
1, 20165, Note_on_c, 0, 73, 56
1, 20168, Note_on_c, 0, 80, 50
1, 20173, Control_c, 0, 64, 80
1, 20188, Control_c, 0, 64, 74
1, 20202, Control_c, 0, 64, 69
1, 20217, Control_c, 0, 64, 66
1, 20247, Control_c, 0, 64, 67
1, 20262, Control_c, 0, 64, 69
1, 20273, Note_off_c, 0, 80, 58
1, 20277, Control_c, 0, 64, 72
1, 20291, Note_off_c, 0, 88, 52
1, 20292, Control_c, 0, 64, 76
1, 20306, Control_c, 0, 64, 82
1, 20321, Control_c, 0, 64, 86
1, 20324, Note_on_c, 0, 83, 57
1, 20326, Note_off_c, 0, 73, 61
1, 20336, Control_c, 0, 64, 90
1, 20351, Control_c, 0, 64, 92
1, 20366, Control_c, 0, 64, 93
1, 20381, Control_c, 0, 64, 96
1, 20396, Control_c, 0, 64, 98
1, 20400, Note_off_c, 0, 83, 54
1, 20410, Control_c, 0, 64, 99
1, 20425, Control_c, 0, 64, 100
1, 20440, Control_c, 0, 64, 101
1, 20447, Note_on_c, 0, 85, 58
1, 20451, Note_on_c, 0, 80, 55
1, 20462, Note_on_c, 0, 76, 53
1, 20470, Note_off_c, 0, 85, 66
1, 20483, Note_off_c, 0, 80, 63
1, 20549, Note_off_c, 0, 76, 57
1, 20581, Control_c, 0, 64, 100
1, 20593, Note_on_c, 0, 71, 57
1, 20655, Control_c, 0, 64, 99
1, 20670, Control_c, 0, 64, 98
1, 20685, Control_c, 0, 64, 97
1, 20700, Control_c, 0, 64, 95
1, 20715, Control_c, 0, 64, 92
1, 20727, Note_on_c, 0, 81, 70
1, 20730, Control_c, 0, 64, 87
1, 20739, Note_off_c, 0, 71, 55
1, 20745, Control_c, 0, 64, 79
1, 20756, Note_on_c, 0, 73, 53
1, 20758, Note_on_c, 0, 66, 42
1, 20760, Control_c, 0, 64, 70
1, 20775, Control_c, 0, 64, 65
1, 20789, Control_c, 0, 64, 64
1, 20804, Control_c, 0, 64, 66
1, 20819, Control_c, 0, 64, 68
1, 20834, Control_c, 0, 64, 72
1, 20845, Note_off_c, 0, 81, 48
1, 20847, Note_off_c, 0, 73, 58
1, 20849, Control_c, 0, 64, 75
1, 20864, Control_c, 0, 64, 80
1, 20879, Control_c, 0, 64, 83
1, 20881, Note_off_c, 0, 66, 58
1, 20883, Note_on_c, 0, 76, 55
1, 20894, Control_c, 0, 64, 86
1, 20908, Control_c, 0, 64, 88
1, 20923, Control_c, 0, 64, 90
1, 20938, Control_c, 0, 64, 92
1, 20953, Control_c, 0, 64, 93
1, 20959, Note_off_c, 0, 76, 47
1, 20968, Control_c, 0, 64, 94
1, 20982, Control_c, 0, 64, 95
1, 21019, Note_on_c, 0, 78, 43
1, 21021, Note_on_c, 0, 69, 56
1, 21027, Note_on_c, 0, 73, 47
1, 21041, Control_c, 0, 64, 96
1, 21045, Note_off_c, 0, 78, 55
1, 21053, Note_off_c, 0, 73, 57
1, 21071, Control_c, 0, 64, 95
1, 21100, Note_off_c, 0, 69, 51
1, 21147, Note_on_c, 0, 64, 48
1, 21173, Note_off_c, 0, 64, 57
1, 21175, Control_c, 0, 64, 95
1, 21189, Control_c, 0, 64, 94
1, 21248, Control_c, 0, 64, 93
1, 21263, Control_c, 0, 64, 91
1, 21278, Control_c, 0, 64, 86
1, 21293, Note_on_c, 0, 57, 43
1, 21293, Control_c, 0, 64, 81
1, 21299, Note_on_c, 0, 66, 57
1, 21308, Control_c, 0, 64, 74
1, 21311, Note_on_c, 0, 63, 49
1, 21323, Control_c, 0, 64, 66
1, 21345, Control_c, 0, 64, 63
1, 21376, Control_c, 0, 64, 65
1, 21391, Control_c, 0, 64, 68
1, 21405, Control_c, 0, 64, 70
1, 21420, Control_c, 0, 64, 73
1, 21427, Note_off_c, 0, 63, 58
1, 21435, Control_c, 0, 64, 76
1, 21450, Control_c, 0, 64, 80
1, 21460, Note_on_c, 0, 68, 52
1, 21464, Control_c, 0, 64, 84
1, 21478, Note_off_c, 0, 66, 38
1, 21479, Control_c, 0, 64, 88
1, 21494, Control_c, 0, 64, 91
1, 21509, Control_c, 0, 64, 93
1, 21524, Control_c, 0, 64, 95
1, 21538, Control_c, 0, 64, 95
1, 21583, Control_c, 0, 64, 92
1, 21591, Note_on_c, 0, 63, 38
1, 21595, Note_on_c, 0, 69, 76
1, 21598, Control_c, 0, 64, 87
1, 21612, Control_c, 0, 64, 81
1, 21621, Note_on_c, 0, 73, 52
1, 21627, Control_c, 0, 64, 76
1, 21630, Note_off_c, 0, 68, 37
1, 21635, Note_off_c, 0, 57, 55
1, 21642, Control_c, 0, 64, 75
1, 21657, Control_c, 0, 64, 76
1, 21672, Control_c, 0, 64, 79
1, 21687, Control_c, 0, 64, 83
1, 21702, Control_c, 0, 64, 85
1, 21716, Control_c, 0, 64, 87
1, 21731, Control_c, 0, 64, 90
1, 21731, Note_off_c, 0, 63, 58
1, 21738, Note_off_c, 0, 69, 63
1, 21746, Control_c, 0, 64, 92
1, 21750, Note_on_c, 0, 78, 60
1, 21755, Note_off_c, 0, 73, 38
1, 21761, Control_c, 0, 64, 93
1, 21776, Control_c, 0, 64, 95
1, 21791, Control_c, 0, 64, 95
1, 21849, Control_c, 0, 64, 96
1, 21879, Control_c, 0, 64, 95
1, 21883, Note_on_c, 0, 68, 75
1, 21894, Control_c, 0, 64, 89
1, 21909, Control_c, 0, 64, 82
1, 21923, Control_c, 0, 64, 77
1, 21938, Control_c, 0, 64, 76
1, 21968, Control_c, 0, 64, 78
1, 21982, Control_c, 0, 64, 82
1, 21997, Control_c, 0, 64, 87
1, 22012, Control_c, 0, 64, 90
1, 22020, Note_off_c, 0, 68, 60
1, 22027, Control_c, 0, 64, 92
1, 22032, Note_on_c, 0, 73, 57
1, 22042, Control_c, 0, 64, 95
1, 22056, Control_c, 0, 64, 98
1, 22066, Note_off_c, 0, 73, 64
1, 22071, Control_c, 0, 64, 100
1, 22094, Control_c, 0, 64, 102
1, 22098, Note_off_c, 0, 78, 22
1, 22109, Control_c, 0, 64, 104
1, 22138, Control_c, 0, 64, 104
1, 22154, Control_c, 0, 64, 104
1, 22176, Note_on_c, 0, 75, 66
1, 22187, Note_on_c, 0, 66, 61
1, 22187, Note_on_c, 0, 63, 52
1, 22190, Note_on_c, 0, 78, 63
1, 22199, Note_off_c, 0, 75, 69
1, 22214, Control_c, 0, 64, 103
1, 22216, Note_off_c, 0, 66, 65
1, 22217, Note_off_c, 0, 63, 62
1, 22229, Control_c, 0, 64, 101
1, 22243, Control_c, 0, 64, 99
1, 22258, Control_c, 0, 64, 97
1, 22272, Note_off_c, 0, 78, 32
1, 22273, Control_c, 0, 64, 97
1, 22319, Note_on_c, 0, 85, 66
1, 22361, Note_off_c, 0, 85, 54
1, 22376, Control_c, 0, 64, 89
1, 22391, Control_c, 0, 64, 77
1, 22406, Control_c, 0, 64, 63
1, 22421, Control_c, 0, 64, 42
1, 22435, Control_c, 0, 64, 56
1, 22444, Note_on_c, 0, 49, 83
1, 22444, Note_on_c, 0, 56, 84
1, 22450, Control_c, 0, 64, 65
1, 22465, Note_off_c, 0, 56, 72
1, 22465, Control_c, 0, 64, 72
1, 22467, Note_off_c, 0, 49, 67
1, 22480, Control_c, 0, 64, 78
1, 22494, Control_c, 0, 64, 84
1, 22509, Control_c, 0, 64, 89
1, 22554, Control_c, 0, 64, 89
1, 22576, Poly_aftertouch_c, 0, 49, 127
1, 22595, Note_on_c, 0, 80, 73
1, 22596, Note_on_c, 0, 73, 62
1, 22608, Poly_aftertouch_c, 0, 49, 0
1, 22615, Note_off_c, 0, 73, 64
1, 22626, Note_off_c, 0, 80, 61
1, 22672, Control_c, 0, 67, 126
1, 22687, Control_c, 0, 67, 124
1, 22702, Control_c, 0, 67, 122
1, 22717, Control_c, 0, 67, 120
1, 22732, Note_on_c, 0, 61, 40
1, 22732, Control_c, 0, 67, 117
1, 22740, Note_on_c, 0, 68, 67
1, 22741, Note_on_c, 0, 85, 74
1, 22746, Control_c, 0, 67, 112
1, 22754, Note_on_c, 0, 92, 37
1, 22761, Control_c, 0, 67, 107
1, 22766, Note_off_c, 0, 68, 67
1, 22766, Note_off_c, 0, 85, 64
1, 22769, Note_off_c, 0, 61, 61
1, 22776, Control_c, 0, 67, 103
1, 22786, Note_off_c, 0, 92, 36
1, 22791, Control_c, 0, 67, 101
1, 22805, Control_c, 0, 67, 97
1, 22828, Control_c, 0, 67, 91
1, 22843, Control_c, 0, 67, 83
1, 22858, Control_c, 0, 67, 75
1, 22873, Control_c, 0, 67, 70
1, 22887, Control_c, 0, 67, 68
1, 22888, Note_on_c, 0, 73, 63
1, 22891, Note_on_c, 0, 80, 64
1, 22902, Control_c, 0, 67, 68
1, 22908, Note_off_c, 0, 73, 66
1, 22917, Note_off_c, 0, 80, 61
1, 22947, Control_c, 0, 67, 68
1, 22962, Control_c, 0, 67, 69
1, 22976, Control_c, 0, 64, 89
1, 22976, Control_c, 0, 67, 69
1, 22991, Control_c, 0, 64, 90
1, 22991, Control_c, 0, 67, 70
1, 23006, Control_c, 0, 64, 91
1, 23006, Control_c, 0, 67, 70
1, 23021, Control_c, 0, 64, 92
1, 23021, Control_c, 0, 67, 71
1, 23028, Note_on_c, 0, 61, 59
1, 23035, Control_c, 0, 64, 94
1, 23035, Control_c, 0, 67, 72
1, 23036, Note_on_c, 0, 68, 55
1, 23050, Control_c, 0, 64, 97
1, 23050, Control_c, 0, 67, 73
1, 23055, Note_off_c, 0, 61, 59
1, 23061, Note_off_c, 0, 68, 58
1, 23065, Control_c, 0, 64, 102
1, 23065, Control_c, 0, 67, 73
1, 23073, Note_on_c, 0, 85, 71
1, 23080, Control_c, 0, 64, 107
1, 23080, Control_c, 0, 67, 74
1, 23095, Control_c, 0, 64, 115
1, 23095, Control_c, 0, 67, 74
1, 23109, Control_c, 0, 64, 127
1, 23109, Control_c, 0, 67, 75
1, 23117, Note_off_c, 0, 85, 57
1, 23124, Control_c, 0, 67, 76
1, 23141, Note_on_c, 0, 92, 79
1, 23154, Control_c, 0, 67, 77
1, 23169, Control_c, 0, 67, 78
1, 23183, Control_c, 0, 67, 78
1, 23201, Note_on_c, 0, 97, 86
1, 23203, Note_off_c, 0, 92, 67
1, 23213, Control_c, 0, 67, 79
1, 23228, Control_c, 0, 67, 80
1, 23243, Control_c, 0, 67, 82
1, 23249, Note_off_c, 0, 97, 67
1, 23258, Control_c, 0, 67, 83
1, 23264, Note_on_c, 0, 104, 87
1, 23272, Control_c, 0, 67, 84
1, 23275, Note_on_c, 0, 73, 70
1, 23285, Note_on_c, 0, 68, 54
1, 23287, Control_c, 0, 67, 85
1, 23302, Control_c, 0, 67, 86
1, 23304, Note_off_c, 0, 73, 64
1, 23305, Note_off_c, 0, 68, 63
1, 23312, Note_off_c, 0, 104, 65
1, 23317, Control_c, 0, 67, 87
1, 23332, Control_c, 0, 67, 88
1, 23332, Note_on_c, 0, 97, 74
1, 23347, Control_c, 0, 67, 89
1, 23362, Control_c, 0, 67, 90
1, 23376, Control_c, 0, 67, 92
1, 23391, Control_c, 0, 67, 94
1, 23396, Note_on_c, 0, 92, 71
1, 23398, Note_off_c, 0, 97, 63
1, 23406, Control_c, 0, 67, 94
1, 23435, Control_c, 0, 67, 95
1, 23459, Note_off_c, 0, 92, 65
1, 23466, Note_on_c, 0, 85, 65
1, 23480, Control_c, 0, 67, 94
1, 23484, Note_off_c, 0, 85, 67
1, 23509, Control_c, 0, 67, 94
1, 23554, Control_c, 0, 64, 109
1, 23576, Control_c, 0, 64, 97
1, 23581, Note_on_c, 0, 69, 49
1, 23591, Control_c, 0, 64, 87
1, 23591, Control_c, 0, 67, 93
1, 23597, Note_on_c, 0, 74, 46
1, 23606, Control_c, 0, 64, 78
1, 23621, Control_c, 0, 64, 69
1, 23621, Control_c, 0, 67, 93
1, 23635, Control_c, 0, 64, 65
1, 23635, Control_c, 0, 67, 93
1, 23650, Control_c, 0, 64, 64
1, 23665, Control_c, 0, 64, 65
1, 23680, Control_c, 0, 64, 66
1, 23680, Control_c, 0, 67, 93
1, 23689, Note_on_c, 0, 78, 47
1, 23695, Control_c, 0, 64, 66
1, 23713, Note_off_c, 0, 74, 60
1, 23724, Control_c, 0, 64, 67
1, 23739, Control_c, 0, 64, 68
1, 23754, Note_off_c, 0, 78, 47
1, 23755, Control_c, 0, 64, 71
1, 23770, Control_c, 0, 64, 74
1, 23776, Note_on_c, 0, 80, 57
1, 23785, Control_c, 0, 64, 75
1, 23799, Control_c, 0, 64, 77
1, 23814, Control_c, 0, 64, 79
1, 23829, Control_c, 0, 64, 81
1, 23844, Control_c, 0, 64, 83
1, 23852, Note_off_c, 0, 80, 38
1, 23858, Control_c, 0, 64, 84
1, 23865, Note_off_c, 0, 69, 49
1, 23873, Control_c, 0, 64, 87
1, 23873, Control_c, 0, 67, 92
1, 23875, Note_on_c, 0, 74, 51
1, 23877, Note_on_c, 0, 85, 63
1, 23879, Note_on_c, 0, 81, 55
1, 23888, Control_c, 0, 64, 90
1, 23888, Control_c, 0, 67, 92
1, 23903, Control_c, 0, 64, 91
1, 23903, Control_c, 0, 67, 91
1, 23911, Note_off_c, 0, 81, 66
1, 23912, Note_off_c, 0, 74, 66
1, 23947, Control_c, 0, 67, 91
1, 23948, Note_off_c, 0, 85, 54
1, 23962, Control_c, 0, 67, 90
1, 23967, Note_on_c, 0, 90, 67
1, 23977, Control_c, 0, 64, 91
1, 23992, Control_c, 0, 64, 90
1, 24006, Control_c, 0, 64, 90
1, 24006, Control_c, 0, 67, 90
1, 24021, Control_c, 0, 64, 89
1, 24036, Control_c, 0, 64, 88
1, 24036, Control_c, 0, 67, 89
1, 24038, Note_off_c, 0, 90, 63
1, 24057, Note_on_c, 0, 85, 62
1, 24065, Control_c, 0, 64, 87
1, 24065, Control_c, 0, 67, 89
1, 24095, Note_off_c, 0, 85, 63
1, 24110, Control_c, 0, 67, 88
1, 24120, Note_on_c, 0, 80, 65
1, 24125, Note_on_c, 0, 81, 57
1, 24129, Note_on_c, 0, 74, 58
1, 24155, Control_c, 0, 67, 88
1, 24157, Note_off_c, 0, 81, 64
1, 24163, Note_off_c, 0, 80, 56
1, 24164, Note_off_c, 0, 74, 67
1, 24191, Note_on_c, 0, 85, 68
1, 24214, Control_c, 0, 64, 88
1, 24217, Note_off_c, 0, 85, 66
1, 24229, Control_c, 0, 64, 89
1, 24244, Control_c, 0, 64, 92
1, 24256, Note_on_c, 0, 80, 65
1, 24258, Control_c, 0, 64, 95
1, 24258, Control_c, 0, 67, 87
1, 24273, Control_c, 0, 64, 103
1, 24275, Note_off_c, 0, 80, 66
1, 24288, Control_c, 0, 64, 119
1, 24303, Control_c, 0, 64, 127
1, 24305, Note_on_c, 0, 85, 50
1, 24335, Note_off_c, 0, 85, 59
1, 24340, Control_c, 0, 67, 88
1, 24355, Control_c, 0, 67, 88
1, 24369, Control_c, 0, 67, 89
1, 24380, Note_on_c, 0, 90, 77
1, 24384, Control_c, 0, 67, 90
1, 24402, Note_on_c, 0, 86, 54
1, 24402, Note_on_c, 0, 81, 58
1, 24420, Note_off_c, 0, 90, 60
1, 24423, Note_off_c, 0, 86, 62
1, 24432, Note_off_c, 0, 81, 67
1, 24448, Note_on_c, 0, 97, 77
1, 24458, Control_c, 0, 67, 90
1, 24495, Note_off_c, 0, 97, 62
1, 24518, Control_c, 0, 67, 90
1, 24524, Note_on_c, 0, 90, 71
1, 24533, Control_c, 0, 67, 89
1, 24547, Note_off_c, 0, 90, 71
1, 24548, Control_c, 0, 67, 89
1, 24571, Note_on_c, 0, 97, 64
1, 24593, Control_c, 0, 67, 88
1, 24599, Note_off_c, 0, 97, 68
1, 24623, Control_c, 0, 64, 95
1, 24638, Control_c, 0, 64, 74
1, 24653, Control_c, 0, 64, 62
1, 24653, Control_c, 0, 67, 88
1, 24653, Note_on_c, 0, 61, 78
1, 24654, Note_on_c, 0, 68, 77
1, 24668, Control_c, 0, 64, 62
1, 24675, Note_off_c, 0, 68, 69
1, 24676, Note_off_c, 0, 61, 68
1, 24682, Control_c, 0, 64, 66
1, 24697, Control_c, 0, 64, 70
1, 24697, Control_c, 0, 67, 87
1, 24712, Control_c, 0, 64, 78
1, 24727, Control_c, 0, 64, 90
1, 24727, Control_c, 0, 67, 87
1, 24742, Control_c, 0, 64, 104
1, 24756, Control_c, 0, 64, 116
1, 24756, Control_c, 0, 67, 86
1, 24771, Control_c, 0, 64, 127
1, 24786, Control_c, 0, 67, 86
1, 24792, Note_on_c, 0, 73, 74
1, 24797, Note_on_c, 0, 80, 71
1, 24800, Control_c, 0, 67, 85
1, 24815, Control_c, 0, 67, 84
1, 24817, Note_off_c, 0, 73, 69
1, 24830, Control_c, 0, 67, 82
1, 24845, Control_c, 0, 67, 80
1, 24847, Note_off_c, 0, 80, 59
1, 24860, Control_c, 0, 67, 78
1, 24874, Control_c, 0, 67, 74
1, 24889, Control_c, 0, 67, 70
1, 24904, Control_c, 0, 67, 63
1, 24919, Control_c, 0, 67, 54
1, 24930, Note_on_c, 0, 73, 72
1, 24931, Note_on_c, 0, 68, 68
1, 24934, Control_c, 0, 67, 48
1, 24935, Note_on_c, 0, 92, 68
1, 24942, Note_on_c, 0, 85, 73
1, 24948, Control_c, 0, 67, 42
1, 24951, Note_off_c, 0, 73, 66
1, 24953, Note_off_c, 0, 68, 69
1, 24954, Note_off_c, 0, 92, 68
1, 24963, Control_c, 0, 67, 36
1, 24966, Note_off_c, 0, 85, 68
1, 24978, Control_c, 0, 67, 29
1, 24992, Control_c, 0, 67, 20
1, 25007, Control_c, 0, 67, 0
1, 25064, Note_on_c, 0, 73, 62
1, 25082, Note_on_c, 0, 80, 75
1, 25133, Note_off_c, 0, 80, 60
1, 25161, Note_off_c, 0, 73, 38
1, 25216, Note_on_c, 0, 80, 84
1, 25219, Note_on_c, 0, 73, 73
1, 25278, Note_on_c, 0, 74, 81
1, 25326, Note_off_c, 0, 74, 68
1, 25345, Note_on_c, 0, 81, 82
1, 25391, Note_on_c, 0, 86, 85
1, 25398, Note_off_c, 0, 80, 56
1, 25402, Note_off_c, 0, 81, 65
1, 25449, Note_on_c, 0, 78, 74
1, 25449, Note_off_c, 0, 86, 67
1, 25450, Note_off_c, 0, 73, 59
1, 25452, Note_on_c, 0, 71, 73
1, 25455, Note_on_c, 0, 93, 88
1, 25478, Note_off_c, 0, 71, 69
1, 25479, Note_off_c, 0, 78, 63
1, 25518, Note_off_c, 0, 93, 64
1, 25519, Note_on_c, 0, 86, 83
1, 25580, Note_off_c, 0, 86, 63
1, 25586, Note_on_c, 0, 81, 79
1, 25635, Note_on_c, 0, 74, 84
1, 25651, Note_off_c, 0, 81, 60
1, 25663, Note_off_c, 0, 74, 66
1, 25683, Control_c, 0, 64, 118
1, 25697, Control_c, 0, 64, 85
1, 25712, Control_c, 0, 64, 67
1, 25717, Note_on_c, 0, 61, 70
1, 25720, Note_on_c, 0, 68, 74
1, 25727, Control_c, 0, 64, 38
1, 25742, Control_c, 0, 64, 35
1, 25757, Control_c, 0, 64, 58
1, 25771, Control_c, 0, 64, 66
1, 25786, Control_c, 0, 64, 72
1, 25801, Control_c, 0, 64, 83
1, 25823, Control_c, 0, 64, 99
1, 25832, Note_off_c, 0, 68, 50
1, 25838, Control_c, 0, 64, 127
1, 25857, Note_on_c, 0, 85, 86
1, 25860, Note_on_c, 0, 80, 68
1, 25882, Note_off_c, 0, 80, 66
1, 25902, Note_off_c, 0, 85, 63
1, 25969, Note_off_c, 0, 61, 58
1, 25978, Note_on_c, 0, 68, 61
1, 25984, Note_on_c, 0, 73, 74
1, 25992, Note_on_c, 0, 97, 87
1, 26000, Note_off_c, 0, 68, 69
1, 26008, Note_off_c, 0, 73, 69
1, 26018, Note_off_c, 0, 97, 63
1, 26028, Note_on_c, 0, 91, 41
1, 26055, Note_off_c, 0, 91, 56
1, 26126, Note_on_c, 0, 80, 85
1, 26132, Note_on_c, 0, 85, 81
1, 26159, Note_off_c, 0, 85, 61
1, 26170, Note_on_c, 0, 86, 38
1, 26176, Note_off_c, 0, 80, 58
1, 26196, Note_off_c, 0, 86, 57
1, 26269, Note_on_c, 0, 85, 85
1, 26271, Note_on_c, 0, 80, 85
1, 26337, Note_on_c, 0, 81, 85
1, 26390, Note_on_c, 0, 86, 88
1, 26396, Note_off_c, 0, 81, 66
1, 26439, Note_on_c, 0, 93, 87
1, 26450, Note_off_c, 0, 86, 68
1, 26479, Note_off_c, 0, 85, 56
1, 26496, Note_on_c, 0, 98, 95
1, 26508, Note_off_c, 0, 80, 47
1, 26508, Note_off_c, 0, 93, 65
1, 26525, Note_on_c, 0, 96, 40
1, 26526, Note_off_c, 0, 96, 127
1, 26529, Note_on_c, 0, 78, 79
1, 26531, Note_on_c, 0, 83, 66
1, 26554, Note_off_c, 0, 83, 70
1, 26575, Note_on_c, 0, 93, 91
1, 26578, Note_off_c, 0, 78, 64
1, 26581, Note_off_c, 0, 98, 65
1, 26645, Note_on_c, 0, 86, 87
1, 26656, Note_off_c, 0, 93, 65
1, 26692, Note_on_c, 0, 81, 83
1, 26715, Note_off_c, 0, 86, 65
1, 26730, Note_off_c, 0, 81, 63
1, 26735, Control_c, 0, 64, 89
1, 26750, Control_c, 0, 64, 66
1, 26765, Control_c, 0, 64, 17
1, 26767, Note_on_c, 0, 80, 90
1, 26768, Note_on_c, 0, 73, 88
1, 26779, Control_c, 0, 64, 0
1, 26794, Control_c, 0, 64, 51
1, 26809, Control_c, 0, 64, 64
1, 26824, Control_c, 0, 64, 72
1, 26839, Control_c, 0, 64, 83
1, 26853, Control_c, 0, 64, 105
1, 26868, Control_c, 0, 64, 127
1, 26880, Note_off_c, 0, 80, 57
1, 26915, Note_on_c, 0, 92, 90
1, 26916, Note_on_c, 0, 85, 79
1, 26936, Note_off_c, 0, 85, 70
1, 26966, Note_off_c, 0, 92, 66
1, 26984, Note_off_c, 0, 73, 60
1, 27034, Note_on_c, 0, 80, 81
1, 27036, Note_on_c, 0, 85, 90
1, 27049, Note_on_c, 0, 104, 95
1, 27052, Note_on_c, 0, 97, 102
1, 27064, Note_off_c, 0, 80, 55
1, 27079, Note_off_c, 0, 85, 61
1, 27080, Note_off_c, 0, 104, 62
1, 27095, Note_off_c, 0, 97, 65
1, 27177, Note_on_c, 0, 85, 91
1, 27177, Note_on_c, 0, 92, 106
1, 27236, Note_off_c, 0, 92, 64
1, 27280, Note_off_c, 0, 85, 50
1, 27337, Note_on_c, 0, 85, 83
1, 27338, Note_on_c, 0, 92, 103
1, 27429, Note_on_c, 0, 86, 87
1, 27468, Note_on_c, 0, 88, 37
1, 27487, Note_on_c, 0, 93, 93
1, 27491, Note_off_c, 0, 86, 67
1, 27495, Note_off_c, 0, 88, 56
1, 27540, Note_on_c, 0, 98, 97
1, 27559, Note_off_c, 0, 93, 66
1, 27589, Note_off_c, 0, 92, 59
1, 27593, Note_on_c, 0, 90, 74
1, 27597, Note_on_c, 0, 83, 86
1, 27603, Note_on_c, 0, 105, 99
1, 27603, Note_off_c, 0, 85, 60
1, 27604, Note_off_c, 0, 98, 68
1, 27629, Note_off_c, 0, 90, 63
1, 27634, Note_off_c, 0, 83, 66
1, 27666, Note_on_c, 0, 98, 97
1, 27682, Note_off_c, 0, 105, 64
1, 27729, Note_on_c, 0, 93, 92
1, 27753, Note_off_c, 0, 98, 67
1, 27775, Note_on_c, 0, 86, 91
1, 27805, Note_off_c, 0, 93, 64
1, 27819, Note_off_c, 0, 86, 67
1, 27845, Note_on_c, 0, 85, 98
1, 27848, Note_on_c, 0, 80, 94
1, 27936, Note_on_c, 0, 81, 78
1, 27979, Note_off_c, 0, 81, 66
1, 27981, Note_on_c, 0, 86, 84
1, 28031, Note_on_c, 0, 93, 82
1, 28049, Note_off_c, 0, 86, 66
1, 28075, Note_off_c, 0, 85, 57
1, 28108, Note_on_c, 0, 98, 93
1, 28108, Note_off_c, 0, 80, 60
1, 28108, Note_off_c, 0, 93, 65
1, 28112, Note_on_c, 0, 83, 70
1, 28113, Note_on_c, 0, 78, 82
1, 28133, Note_on_c, 0, 96, 53
1, 28134, Note_off_c, 0, 83, 70
1, 28161, Note_off_c, 0, 78, 63
1, 28168, Note_off_c, 0, 98, 65
1, 28169, Note_off_c, 0, 96, 46
1, 28178, Note_on_c, 0, 93, 82
1, 28241, Note_on_c, 0, 86, 86
1, 28255, Note_off_c, 0, 93, 64
1, 28299, Note_on_c, 0, 81, 76
1, 28303, Note_off_c, 0, 86, 66
1, 28325, Note_off_c, 0, 81, 64
1, 28373, Note_on_c, 0, 80, 76
1, 28383, Note_on_c, 0, 73, 73
1, 28456, Note_on_c, 0, 74, 63
1, 28483, Note_off_c, 0, 74, 67
1, 28502, Note_on_c, 0, 81, 74
1, 28560, Note_on_c, 0, 86, 76
1, 28567, Note_off_c, 0, 81, 61
1, 28581, Note_off_c, 0, 80, 54
1, 28614, Note_off_c, 0, 86, 65
1, 28634, Note_on_c, 0, 93, 76
1, 28635, Note_on_c, 0, 78, 67
1, 28647, Note_on_c, 0, 71, 59
1, 28647, Note_off_c, 0, 73, 53
1, 28662, Note_off_c, 0, 78, 66
1, 28674, Note_off_c, 0, 93, 54
1, 28677, Note_off_c, 0, 71, 66
1, 28699, Note_on_c, 0, 86, 69
1, 28753, Note_on_c, 0, 81, 73
1, 28754, Note_off_c, 0, 86, 63
1, 28823, Note_off_c, 0, 81, 62
1, 28825, Note_on_c, 0, 74, 68
1, 28850, Note_off_c, 0, 74, 69
1, 28910, Note_on_c, 0, 73, 67
1, 28917, Note_on_c, 0, 68, 58
1, 28952, Note_off_c, 0, 68, 61
1, 28957, Note_off_c, 0, 73, 49
1, 28978, Note_on_c, 0, 69, 66
1, 29008, Note_off_c, 0, 69, 66
1, 29036, Note_on_c, 0, 74, 75
1, 29089, Note_on_c, 0, 81, 64
1, 29096, Note_off_c, 0, 74, 62
1, 29158, Note_off_c, 0, 81, 63
1, 29173, Note_on_c, 0, 86, 76
1, 29183, Note_on_c, 0, 66, 69
1, 29199, Note_on_c, 0, 71, 37
1, 29216, Note_off_c, 0, 86, 47
1, 29219, Note_off_c, 0, 66, 62
1, 29227, Note_off_c, 0, 71, 58
1, 29246, Note_on_c, 0, 81, 66
1, 29294, Note_off_c, 0, 81, 58
1, 29309, Note_on_c, 0, 74, 72
1, 29360, Note_on_c, 0, 69, 73
1, 29370, Note_off_c, 0, 74, 63
1, 29395, Note_off_c, 0, 69, 62
1, 29426, Control_c, 0, 64, 106
1, 29441, Control_c, 0, 64, 75
1, 29446, Note_on_c, 0, 37, 92
1, 29448, Note_on_c, 0, 44, 97
1, 29456, Control_c, 0, 64, 0
1, 29470, Note_off_c, 0, 44, 71
1, 29474, Note_off_c, 0, 37, 66
1, 29485, Control_c, 0, 64, 48
1, 29500, Control_c, 0, 64, 69
1, 29515, Control_c, 0, 64, 85
1, 29530, Control_c, 0, 64, 113
1, 29544, Control_c, 0, 64, 127
1, 29595, Note_on_c, 0, 73, 74
1, 29601, Note_on_c, 0, 68, 57
1, 29634, Note_off_c, 0, 68, 61
1, 29672, Note_on_c, 0, 80, 78
1, 29674, Note_off_c, 0, 73, 58
1, 29695, Note_off_c, 0, 80, 67
1, 29739, Note_on_c, 0, 71, 98
1, 29768, Note_off_c, 0, 71, 71
1, 29859, Note_on_c, 0, 73, 70
1, 29868, Note_on_c, 0, 68, 52
1, 29903, Note_off_c, 0, 68, 60
1, 29932, Note_on_c, 0, 80, 73
1, 29936, Note_off_c, 0, 73, 63
1, 29955, Note_off_c, 0, 80, 67
1, 30024, Note_on_c, 0, 68, 96
1, 30048, Note_off_c, 0, 68, 64
1, 30136, Note_on_c, 0, 73, 67
1, 30194, Poly_aftertouch_c, 0, 68, 127
1, 30205, Note_on_c, 0, 80, 72
1, 30216, Note_off_c, 0, 73, 62
1, 30236, Poly_aftertouch_c, 0, 68, 0
1, 30238, Note_off_c, 0, 80, 59
1, 30304, Note_on_c, 0, 66, 93
1, 30329, Note_off_c, 0, 66, 71
1, 30417, Note_on_c, 0, 73, 66
1, 30472, Note_on_c, 0, 68, 3
1, 30490, Note_on_c, 0, 80, 71
1, 30498, Note_off_c, 0, 73, 62
1, 30513, Note_off_c, 0, 68, 51
1, 30515, Note_off_c, 0, 80, 65
1, 30589, Note_on_c, 0, 68, 86
1, 30608, Note_off_c, 0, 68, 68
1, 30714, Note_on_c, 0, 73, 65
1, 30727, Note_on_c, 0, 68, 39
1, 30769, Note_off_c, 0, 68, 47
1, 30788, Note_on_c, 0, 80, 70
1, 30797, Note_off_c, 0, 73, 62
1, 30812, Note_off_c, 0, 80, 66
1, 30878, Note_on_c, 0, 71, 77
1, 30897, Note_off_c, 0, 71, 72
1, 30982, Note_on_c, 0, 73, 69
1, 30991, Note_on_c, 0, 68, 49
1, 31022, Note_off_c, 0, 68, 61
1, 31072, Note_on_c, 0, 80, 70
1, 31079, Note_off_c, 0, 73, 61
1, 31097, Note_off_c, 0, 80, 65
1, 31156, Note_on_c, 0, 68, 79
1, 31175, Note_off_c, 0, 68, 71
1, 31213, Control_c, 0, 67, 8
1, 31228, Control_c, 0, 67, 10
1, 31242, Control_c, 0, 67, 12
1, 31257, Control_c, 0, 67, 14
1, 31269, Note_on_c, 0, 73, 68
1, 31272, Control_c, 0, 67, 17
1, 31274, Note_on_c, 0, 68, 48
1, 31287, Control_c, 0, 67, 21
1, 31302, Control_c, 0, 67, 26
1, 31312, Note_off_c, 0, 68, 58
1, 31316, Control_c, 0, 67, 30
1, 31331, Control_c, 0, 67, 34
1, 31346, Control_c, 0, 67, 37
1, 31355, Note_on_c, 0, 80, 67
1, 31360, Control_c, 0, 67, 40
1, 31362, Note_off_c, 0, 73, 61
1, 31375, Control_c, 0, 67, 43
1, 31379, Note_off_c, 0, 80, 66
1, 31390, Control_c, 0, 67, 49
1, 31405, Control_c, 0, 67, 56
1, 31420, Control_c, 0, 67, 61
1, 31427, Note_on_c, 0, 66, 69
1, 31434, Control_c, 0, 67, 65
1, 31448, Note_off_c, 0, 66, 66
1, 31449, Control_c, 0, 67, 68
1, 31464, Control_c, 0, 67, 73
1, 31479, Control_c, 0, 67, 79
1, 31494, Control_c, 0, 67, 85
1, 31509, Control_c, 0, 67, 88
1, 31515, Note_on_c, 0, 68, 55
1, 31524, Control_c, 0, 67, 90
1, 31553, Note_off_c, 0, 68, 57
1, 31553, Control_c, 0, 67, 90
1, 31556, Note_on_c, 0, 73, 65
1, 31568, Control_c, 0, 67, 91
1, 31624, Note_on_c, 0, 80, 60
1, 31637, Note_off_c, 0, 73, 62
1, 31641, Note_off_c, 0, 80, 65
1, 31657, Control_c, 0, 64, 106
1, 31657, Control_c, 0, 67, 91
1, 31672, Control_c, 0, 64, 86
1, 31687, Control_c, 0, 64, 70
1, 31695, Note_on_c, 0, 61, 74
1, 31702, Control_c, 0, 64, 45
1, 31716, Control_c, 0, 64, 36
1, 31717, Note_off_c, 0, 61, 67
1, 31732, Control_c, 0, 64, 55
1, 31747, Control_c, 0, 64, 64
1, 31762, Control_c, 0, 64, 69
1, 31769, Note_on_c, 0, 61, 58
1, 31777, Control_c, 0, 64, 73
1, 31791, Control_c, 0, 64, 77
1, 31791, Control_c, 0, 67, 91
1, 31801, Note_off_c, 0, 61, 61
1, 31813, Control_c, 0, 64, 79
1, 31832, Note_on_c, 0, 68, 70
1, 31843, Control_c, 0, 67, 90
1, 31897, Note_on_c, 0, 73, 74
1, 31897, Note_off_c, 0, 68, 61
1, 31917, Control_c, 0, 67, 90
1, 31951, Note_on_c, 0, 59, 69
1, 31958, Note_off_c, 0, 73, 62
1, 31962, Control_c, 0, 64, 78
1, 31971, Note_on_c, 0, 80, 73
1, 31975, Note_on_c, 0, 64, 40
1, 31975, Note_off_c, 0, 59, 67
1, 31996, Note_off_c, 0, 80, 63
1, 32007, Note_off_c, 0, 64, 53
1, 32036, Control_c, 0, 64, 78
1, 32048, Note_on_c, 0, 73, 60
1, 32095, Note_off_c, 0, 73, 60
1, 32108, Note_on_c, 0, 68, 67
1, 32154, Control_c, 0, 64, 78
1, 32164, Note_on_c, 0, 61, 70
1, 32169, Control_c, 0, 67, 89
1, 32170, Note_off_c, 0, 68, 61
1, 32183, Control_c, 0, 64, 77
1, 32193, Note_off_c, 0, 61, 65
1, 32198, Control_c, 0, 64, 75
1, 32198, Control_c, 0, 67, 89
1, 32213, Control_c, 0, 64, 71
1, 32228, Control_c, 0, 64, 68
1, 32237, Note_on_c, 0, 56, 76
1, 32243, Note_on_c, 0, 64, 68
1, 32243, Control_c, 0, 64, 67
1, 32257, Control_c, 0, 64, 68
1, 32257, Control_c, 0, 67, 88
1, 32272, Control_c, 0, 64, 68
1, 32275, Note_off_c, 0, 64, 59
1, 32284, Note_off_c, 0, 56, 57
1, 32287, Control_c, 0, 64, 69
1, 32310, Note_on_c, 0, 61, 59
1, 32331, Control_c, 0, 64, 70
1, 32346, Control_c, 0, 64, 72
1, 32346, Control_c, 0, 67, 88
1, 32349, Note_off_c, 0, 61, 59
1, 32361, Control_c, 0, 64, 74
1, 32361, Control_c, 0, 67, 87
1, 32376, Control_c, 0, 64, 75
1, 32376, Control_c, 0, 67, 87
1, 32384, Note_on_c, 0, 68, 66
1, 32421, Control_c, 0, 64, 75
1, 32436, Control_c, 0, 64, 74
1, 32446, Note_on_c, 0, 73, 68
1, 32448, Note_off_c, 0, 68, 60
1, 32451, Control_c, 0, 64, 70
1, 32465, Control_c, 0, 64, 67
1, 32480, Control_c, 0, 64, 65
1, 32495, Control_c, 0, 64, 64
1, 32495, Control_c, 0, 67, 86
1, 32501, Note_on_c, 0, 54, 73
1, 32509, Control_c, 0, 64, 66
1, 32512, Note_off_c, 0, 73, 61
1, 32521, Note_on_c, 0, 80, 72
1, 32524, Control_c, 0, 64, 70
1, 32528, Note_on_c, 0, 64, 46
1, 32540, Control_c, 0, 64, 75
1, 32555, Note_off_c, 0, 80, 58
1, 32555, Note_off_c, 0, 64, 56
1, 32555, Control_c, 0, 64, 79
1, 32557, Note_off_c, 0, 54, 58
1, 32577, Control_c, 0, 64, 79
1, 32615, Note_on_c, 0, 73, 50
1, 32667, Note_off_c, 0, 73, 63
1, 32675, Note_on_c, 0, 68, 60
1, 32695, Control_c, 0, 64, 80
1, 32710, Control_c, 0, 64, 80
1, 32725, Control_c, 0, 64, 79
1, 32731, Note_on_c, 0, 61, 63
1, 32738, Note_off_c, 0, 68, 59
1, 32740, Control_c, 0, 64, 75
1, 32755, Control_c, 0, 64, 69
1, 32759, Note_off_c, 0, 61, 64
1, 32770, Control_c, 0, 64, 65
1, 32785, Control_c, 0, 64, 64
1, 32789, Note_on_c, 0, 56, 74
1, 32799, Control_c, 0, 64, 66
1, 32813, Note_on_c, 0, 64, 34
1, 32814, Control_c, 0, 64, 68
1, 32829, Control_c, 0, 64, 70
1, 32835, Note_off_c, 0, 56, 55
1, 32844, Control_c, 0, 64, 73
1, 32846, Note_off_c, 0, 64, 49
1, 32858, Note_on_c, 0, 61, 58
1, 32859, Control_c, 0, 64, 75
1, 32874, Control_c, 0, 64, 78
1, 32888, Control_c, 0, 64, 80
1, 32914, Note_off_c, 0, 61, 60
1, 32931, Note_on_c, 0, 68, 61
1, 32947, Control_c, 0, 64, 80
1, 32962, Control_c, 0, 64, 81
1, 32977, Control_c, 0, 64, 83
1, 32984, Note_off_c, 0, 68, 56
1, 32992, Control_c, 0, 64, 83
1, 32993, Note_on_c, 0, 73, 67
1, 33006, Control_c, 0, 64, 82
1, 33021, Control_c, 0, 64, 76
1, 33036, Control_c, 0, 64, 70
1, 33051, Control_c, 0, 64, 66
1, 33055, Note_off_c, 0, 73, 60
1, 33056, Note_on_c, 0, 59, 61
1, 33066, Control_c, 0, 64, 67
1, 33074, Note_on_c, 0, 80, 68
1, 33079, Note_on_c, 0, 64, 41
1, 33080, Control_c, 0, 64, 69
1, 33095, Control_c, 0, 64, 71
1, 33102, Note_off_c, 0, 59, 60
1, 33105, Note_off_c, 0, 80, 60
1, 33110, Control_c, 0, 64, 74
1, 33111, Note_off_c, 0, 64, 53
1, 33125, Control_c, 0, 64, 75
1, 33160, Note_on_c, 0, 73, 54
1, 33202, Note_off_c, 0, 73, 63
1, 33213, Note_on_c, 0, 68, 60
1, 33214, Control_c, 0, 64, 76
1, 33229, Control_c, 0, 64, 77
1, 33244, Control_c, 0, 64, 79
1, 33273, Control_c, 0, 64, 76
1, 33278, Note_off_c, 0, 68, 58
1, 33279, Note_on_c, 0, 61, 56
1, 33288, Control_c, 0, 64, 71
1, 33303, Control_c, 0, 64, 65
1, 33317, Note_off_c, 0, 61, 64
1, 33325, Control_c, 0, 64, 64
1, 33327, Note_on_c, 0, 56, 63
1, 33341, Control_c, 0, 64, 66
1, 33354, Note_on_c, 0, 64, 33
1, 33356, Control_c, 0, 64, 70
1, 33371, Control_c, 0, 64, 73
1, 33377, Note_off_c, 0, 56, 58
1, 33385, Control_c, 0, 64, 76
1, 33393, Note_off_c, 0, 64, 51
1, 33400, Control_c, 0, 64, 78
1, 33412, Note_on_c, 0, 61, 60
1, 33444, Control_c, 0, 64, 78
1, 33451, Note_off_c, 0, 61, 59
1, 33459, Control_c, 0, 64, 79
1, 33474, Control_c, 0, 64, 81
1, 33488, Note_on_c, 0, 68, 61
1, 33489, Control_c, 0, 64, 82
1, 33489, Control_c, 0, 67, 86
1, 33504, Control_c, 0, 64, 84
1, 33518, Control_c, 0, 64, 85
1, 33523, Note_off_c, 0, 68, 64
1, 33533, Note_on_c, 0, 73, 69
1, 33533, Control_c, 0, 64, 86
1, 33548, Control_c, 0, 64, 84
1, 33563, Control_c, 0, 64, 79
1, 33577, Control_c, 0, 64, 72
1, 33577, Control_c, 0, 67, 85
1, 33592, Note_off_c, 0, 73, 60
1, 33592, Control_c, 0, 64, 67
1, 33592, Control_c, 0, 67, 85
1, 33607, Control_c, 0, 64, 68
1, 33607, Control_c, 0, 67, 84
1, 33613, Note_on_c, 0, 80, 64
1, 33614, Note_on_c, 0, 54, 68
1, 33622, Control_c, 0, 64, 72
1, 33632, Note_off_c, 0, 80, 67
1, 33637, Control_c, 0, 64, 76
1, 33646, Note_off_c, 0, 54, 68
1, 33652, Control_c, 0, 64, 80
1, 33667, Control_c, 0, 64, 82
1, 33676, Note_on_c, 0, 73, 55
1, 33718, Note_on_c, 0, 68, 61
1, 33718, Note_off_c, 0, 73, 64
1, 33726, Control_c, 0, 67, 84
1, 33741, Control_c, 0, 67, 83
1, 33755, Control_c, 0, 67, 83
1, 33765, Note_off_c, 0, 68, 57
1, 33770, Control_c, 0, 64, 83
1, 33780, Note_on_c, 0, 61, 60
1, 33785, Control_c, 0, 64, 84
1, 33800, Control_c, 0, 64, 84
1, 33803, Note_off_c, 0, 61, 60
1, 33815, Control_c, 0, 64, 84
1, 33815, Control_c, 0, 67, 83
1, 33829, Control_c, 0, 64, 78
1, 33844, Control_c, 0, 64, 68
1, 33844, Control_c, 0, 67, 83
1, 33855, Note_on_c, 0, 49, 83
1, 33859, Control_c, 0, 64, 38
1, 33874, Control_c, 0, 64, 0
1, 33874, Control_c, 0, 67, 82
1, 33879, Note_off_c, 0, 49, 67
1, 33889, Control_c, 0, 64, 50
1, 33903, Control_c, 0, 64, 64
1, 33903, Control_c, 0, 67, 82
1, 33918, Control_c, 0, 64, 69
1, 33918, Control_c, 0, 67, 81
1, 33932, Note_on_c, 0, 49, 58
1, 33933, Control_c, 0, 64, 74
1, 33933, Control_c, 0, 67, 81
1, 33948, Control_c, 0, 64, 76
1, 33948, Control_c, 0, 67, 80
1, 33962, Control_c, 0, 67, 79
1, 33968, Note_off_c, 0, 49, 58
1, 33977, Control_c, 0, 64, 74
1, 33977, Control_c, 0, 67, 77
1, 33992, Control_c, 0, 64, 73
1, 33992, Control_c, 0, 67, 73
1, 33995, Note_on_c, 0, 56, 70
1, 34007, Control_c, 0, 67, 69
1, 34022, Control_c, 0, 64, 74
1, 34022, Control_c, 0, 67, 64
1, 34037, Control_c, 0, 67, 60
1, 34050, Note_on_c, 0, 61, 72
1, 34059, Control_c, 0, 67, 56
1, 34074, Control_c, 0, 64, 73
1, 34074, Control_c, 0, 67, 50
1, 34077, Note_off_c, 0, 56, 64
1, 34087, Note_off_c, 0, 61, 66
1, 34089, Control_c, 0, 67, 42
1, 34104, Control_c, 0, 67, 33
1, 34118, Note_on_c, 0, 56, 86
1, 34118, Control_c, 0, 67, 27
1, 34134, Control_c, 0, 64, 73
1, 34134, Control_c, 0, 67, 21
1, 34144, Note_off_c, 0, 56, 68
1, 34149, Control_c, 0, 67, 14
1, 34164, Control_c, 0, 64, 73
1, 34164, Control_c, 0, 67, 0
1, 34193, Control_c, 0, 64, 74
1, 34196, Note_on_c, 0, 56, 67
1, 34260, Note_off_c, 0, 56, 63
1, 34267, Control_c, 0, 64, 73
1, 34268, Note_on_c, 0, 61, 71
1, 34282, Control_c, 0, 64, 73
1, 34323, Note_on_c, 0, 68, 79
1, 34327, Control_c, 0, 64, 73
1, 34340, Note_off_c, 0, 61, 63
1, 34341, Control_c, 0, 64, 74
1, 34353, Note_off_c, 0, 68, 63
1, 34382, Note_on_c, 0, 61, 82
1, 34400, Control_c, 0, 64, 75
1, 34407, Note_off_c, 0, 61, 65
1, 34415, Control_c, 0, 64, 75
1, 34460, Control_c, 0, 64, 76
1, 34461, Note_on_c, 0, 61, 70
1, 34475, Control_c, 0, 64, 79
1, 34490, Control_c, 0, 64, 83
1, 34503, Note_off_c, 0, 61, 54
1, 34505, Control_c, 0, 64, 87
1, 34513, Note_on_c, 0, 68, 79
1, 34519, Control_c, 0, 64, 91
1, 34534, Control_c, 0, 64, 94
1, 34549, Control_c, 0, 64, 97
1, 34564, Control_c, 0, 64, 101
1, 34576, Note_on_c, 0, 73, 87
1, 34578, Control_c, 0, 64, 108
1, 34593, Control_c, 0, 64, 119
1, 34597, Note_off_c, 0, 68, 63
1, 34608, Control_c, 0, 64, 127
1, 34609, Note_off_c, 0, 73, 60
1, 34640, Note_on_c, 0, 68, 90
1, 34666, Note_off_c, 0, 68, 63
1, 34727, Note_on_c, 0, 68, 72
1, 34779, Note_off_c, 0, 68, 59
1, 34779, Note_on_c, 0, 73, 85
1, 34844, Note_on_c, 0, 80, 80
1, 34856, Note_off_c, 0, 73, 62
1, 34867, Note_off_c, 0, 80, 65
1, 34904, Note_on_c, 0, 73, 98
1, 34935, Note_off_c, 0, 73, 59
1, 34982, Note_on_c, 0, 73, 69
1, 35041, Note_on_c, 0, 80, 78
1, 35047, Note_off_c, 0, 73, 62
1, 35106, Note_on_c, 0, 85, 84
1, 35122, Note_off_c, 0, 80, 62
1, 35153, Note_off_c, 0, 85, 64
1, 35179, Note_on_c, 0, 73, 92
1, 35196, Note_off_c, 0, 73, 72
1, 35253, Note_on_c, 0, 73, 67
1, 35314, Note_on_c, 0, 80, 73
1, 35315, Note_off_c, 0, 73, 61
1, 35377, Note_on_c, 0, 85, 77
1, 35387, Note_off_c, 0, 80, 62
1, 35416, Control_c, 0, 67, 9
1, 35420, Note_off_c, 0, 85, 59
1, 35431, Control_c, 0, 67, 11
1, 35446, Control_c, 0, 67, 14
1, 35446, Note_on_c, 0, 73, 80
1, 35461, Control_c, 0, 67, 18
1, 35469, Note_off_c, 0, 73, 70
1, 35476, Control_c, 0, 67, 24
1, 35490, Control_c, 0, 67, 30
1, 35505, Control_c, 0, 67, 35
1, 35520, Control_c, 0, 67, 40
1, 35524, Note_on_c, 0, 73, 59
1, 35534, Control_c, 0, 67, 46
1, 35557, Control_c, 0, 67, 50
1, 35572, Note_off_c, 0, 73, 62
1, 35572, Control_c, 0, 67, 54
1, 35587, Control_c, 0, 67, 58
1, 35587, Note_on_c, 0, 80, 66
1, 35601, Control_c, 0, 67, 61
1, 35616, Control_c, 0, 67, 64
1, 35631, Control_c, 0, 67, 67
1, 35646, Control_c, 0, 67, 71
1, 35646, Note_on_c, 0, 85, 73
1, 35658, Note_off_c, 0, 80, 59
1, 35661, Control_c, 0, 67, 75
1, 35676, Control_c, 0, 67, 78
1, 35688, Note_off_c, 0, 85, 57
1, 35690, Control_c, 0, 67, 81
1, 35705, Control_c, 0, 67, 84
1, 35720, Control_c, 0, 67, 86
1, 35734, Note_on_c, 0, 73, 71
1, 35736, Control_c, 0, 67, 88
1, 35751, Control_c, 0, 67, 91
1, 35759, Note_off_c, 0, 73, 67
1, 35765, Control_c, 0, 67, 94
1, 35780, Control_c, 0, 67, 96
1, 35795, Control_c, 0, 67, 98
1, 35810, Control_c, 0, 67, 101
1, 35825, Control_c, 0, 67, 104
1, 35839, Control_c, 0, 67, 106
1, 35842, Poly_aftertouch_c, 0, 73, 0
1, 35854, Control_c, 0, 67, 109
1, 35864, Note_on_c, 0, 80, 59
1, 35869, Control_c, 0, 67, 110
1, 35884, Control_c, 0, 67, 111
1, 35899, Control_c, 0, 67, 113
1, 35913, Control_c, 0, 67, 115
1, 35928, Control_c, 0, 67, 116
1, 35932, Note_on_c, 0, 85, 65
1, 35940, Note_off_c, 0, 80, 59
1, 35943, Control_c, 0, 67, 117
1, 35957, Control_c, 0, 67, 118
1, 35963, Note_off_c, 0, 85, 62
1, 35972, Control_c, 0, 67, 119
1, 35987, Control_c, 0, 67, 119
1, 36002, Note_on_c, 0, 73, 66
1, 36017, Control_c, 0, 67, 120
1, 36020, Note_off_c, 0, 73, 66
1, 36031, Control_c, 0, 67, 120
1, 36117, Note_on_c, 0, 73, 39
1, 36142, Note_on_c, 0, 80, 52
1, 36149, Note_off_c, 0, 73, 54
1, 36213, Note_on_c, 0, 85, 61
1, 36219, Note_off_c, 0, 80, 57
1, 36242, Note_off_c, 0, 85, 66
1, 36269, Note_on_c, 0, 73, 57
1, 36309, Note_off_c, 0, 73, 62
1, 36389, Note_on_c, 0, 73, 39
1, 36423, Note_off_c, 0, 73, 52
1, 36427, Note_on_c, 0, 80, 52
1, 36499, Note_on_c, 0, 85, 49
1, 36505, Note_off_c, 0, 80, 55
1, 36524, Note_off_c, 0, 85, 57
1, 36598, Note_on_c, 0, 73, 43
1, 36739, Note_on_c, 0, 80, 46
1, 36780, Control_c, 0, 67, 120
1, 36803, Note_on_c, 0, 85, 52
1, 36810, Control_c, 0, 67, 119
1, 36816, Note_off_c, 0, 73, 39
1, 36843, Note_off_c, 0, 80, 60
1, 36845, Note_off_c, 0, 85, 60
1, 36884, Control_c, 0, 64, 121
1, 36884, Control_c, 0, 67, 119
1, 36899, Control_c, 0, 64, 115
1, 36914, Control_c, 0, 64, 113
1, 36914, Control_c, 0, 67, 118
1, 36928, Note_on_c, 0, 59, 39
1, 36928, Control_c, 0, 64, 110
1, 36943, Control_c, 0, 64, 106
1, 36943, Control_c, 0, 67, 118
1, 36958, Control_c, 0, 64, 101
1, 36973, Control_c, 0, 64, 96
1, 36973, Control_c, 0, 67, 117
1, 36988, Control_c, 0, 64, 89
1, 37003, Control_c, 0, 64, 81
1, 37008, Note_on_c, 0, 64, 41
1, 37010, Note_on_c, 0, 61, 26
1, 37017, Control_c, 0, 64, 71
1, 37032, Control_c, 0, 64, 65
1, 37032, Control_c, 0, 67, 117
1, 37054, Control_c, 0, 64, 64
1, 37069, Control_c, 0, 67, 116
1, 37084, Control_c, 0, 64, 65
1, 37084, Control_c, 0, 67, 116
1, 37092, Note_on_c, 0, 66, 41
1, 37099, Control_c, 0, 64, 68
1, 37108, Note_on_c, 0, 71, 32
1, 37114, Note_on_c, 0, 69, 35
1, 37114, Control_c, 0, 64, 72
1, 37129, Control_c, 0, 64, 76
1, 37144, Control_c, 0, 64, 81
1, 37148, Note_off_c, 0, 59, 61
1, 37156, Note_off_c, 0, 66, 61
1, 37158, Note_off_c, 0, 64, 62
1, 37159, Control_c, 0, 64, 85
1, 37159, Control_c, 0, 67, 115
1, 37174, Control_c, 0, 64, 90
1, 37178, Note_off_c, 0, 61, 53
1, 37180, Note_on_c, 0, 76, 43
1, 37188, Control_c, 0, 64, 96
1, 37204, Control_c, 0, 64, 101
1, 37206, Note_on_c, 0, 78, 48
1, 37219, Control_c, 0, 64, 107
1, 37222, Note_off_c, 0, 69, 37
1, 37234, Control_c, 0, 64, 116
1, 37249, Control_c, 0, 64, 127
1, 37261, Note_on_c, 0, 81, 46
1, 37277, Note_on_c, 0, 83, 46
1, 37295, Note_off_c, 0, 71, 41
1, 37307, Note_off_c, 0, 76, 50
1, 37312, Note_off_c, 0, 81, 56
1, 37318, Note_off_c, 0, 83, 58
1, 37333, Note_off_c, 0, 78, 49
1, 37339, Control_c, 0, 67, 115
1, 37429, Note_on_c, 0, 85, 75
1, 37439, Note_on_c, 0, 83, 46
1, 37441, Note_on_c, 0, 73, 70
1, 37450, Note_on_c, 0, 81, 45
1, 37544, Note_off_c, 0, 73, 57
1, 37544, Note_off_c, 0, 85, 52
1, 37549, Note_off_c, 0, 81, 51
1, 37557, Note_on_c, 0, 76, 53
1, 37575, Note_off_c, 0, 83, 33
1, 37643, Note_on_c, 0, 69, 44
1, 37647, Note_on_c, 0, 71, 50
1, 37650, Control_c, 0, 67, 114
1, 37654, Note_off_c, 0, 76, 52
1, 37676, Note_off_c, 0, 71, 59
1, 37679, Note_off_c, 0, 69, 52
1, 37739, Note_on_c, 0, 87, 82
1, 37766, Note_on_c, 0, 75, 62
1, 37775, Note_on_c, 0, 71, 36
1, 37778, Note_on_c, 0, 69, 43
1, 37828, Note_off_c, 0, 69, 54
1, 37833, Note_off_c, 0, 71, 56
1, 37841, Note_on_c, 0, 76, 38
1, 37867, Note_on_c, 0, 78, 57
1, 37894, Note_off_c, 0, 87, 62
1, 37909, Control_c, 0, 67, 114
1, 37933, Note_off_c, 0, 75, 56
1, 37939, Control_c, 0, 67, 113
1, 37961, Note_on_c, 0, 81, 21
1, 37980, Note_off_c, 0, 78, 58
1, 37981, Note_on_c, 0, 83, 3
1, 37985, Note_off_c, 0, 76, 36
1, 37999, Note_off_c, 0, 81, 43
1, 38027, Control_c, 0, 67, 113
1, 38048, Note_off_c, 0, 83, 0
1, 38052, Note_on_c, 0, 85, 71
1, 38063, Note_on_c, 0, 73, 58
1, 38067, Note_on_c, 0, 83, 26
1, 38088, Note_on_c, 0, 81, 50
1, 38105, Note_off_c, 0, 73, 60
1, 38126, Note_off_c, 0, 85, 62
1, 38132, Control_c, 0, 67, 112
1, 38140, Note_off_c, 0, 81, 53
1, 38180, Note_off_c, 0, 83, 38
1, 38181, Note_on_c, 0, 76, 53
1, 38235, Control_c, 0, 67, 113
1, 38254, Note_on_c, 0, 69, 41
1, 38260, Note_on_c, 0, 71, 43
1, 38263, Note_off_c, 0, 76, 51
1, 38265, Control_c, 0, 67, 113
1, 38282, Note_off_c, 0, 69, 55
1, 38284, Note_off_c, 0, 71, 59
1, 38335, Note_on_c, 0, 90, 75
1, 38339, Control_c, 0, 67, 114
1, 38350, Note_on_c, 0, 78, 60
1, 38365, Note_on_c, 0, 71, 52
1, 38367, Note_on_c, 0, 69, 52
1, 38392, Note_off_c, 0, 90, 63
1, 38399, Note_off_c, 0, 78, 57
1, 38410, Note_off_c, 0, 69, 57
1, 38415, Note_off_c, 0, 71, 57
1, 38419, Note_on_c, 0, 76, 42
1, 38457, Note_on_c, 0, 78, 43
1, 38472, Control_c, 0, 67, 113
1, 38476, Note_on_c, 0, 87, 74
1, 38496, Note_on_c, 0, 75, 65
1, 38511, Note_on_c, 0, 81, 52
1, 38524, Note_off_c, 0, 75, 64
1, 38532, Note_off_c, 0, 87, 62
1, 38533, Note_off_c, 0, 76, 49
1, 38538, Note_on_c, 0, 83, 32
1, 38552, Note_off_c, 0, 81, 64
1, 38570, Note_off_c, 0, 78, 60
1, 38574, Note_off_c, 0, 83, 50
1, 38583, Control_c, 0, 67, 113
1, 38637, Note_on_c, 0, 85, 66
1, 38642, Note_on_c, 0, 73, 66
1, 38660, Note_on_c, 0, 83, 55
1, 38674, Note_on_c, 0, 81, 39
1, 38675, Note_off_c, 0, 85, 57
1, 38679, Note_off_c, 0, 73, 60
1, 38687, Control_c, 0, 67, 112
1, 38712, Note_off_c, 0, 83, 49
1, 38717, Note_off_c, 0, 81, 45
1, 38736, Note_on_c, 0, 78, 25
1, 38752, Note_on_c, 0, 76, 58
1, 38771, Note_off_c, 0, 78, 53
1, 38816, Note_off_c, 0, 76, 44
1, 38822, Note_on_c, 0, 69, 52
1, 38823, Note_on_c, 0, 71, 48
1, 38844, Note_off_c, 0, 69, 60
1, 38845, Note_off_c, 0, 71, 61
1, 38917, Note_on_c, 0, 71, 66
1, 38919, Note_on_c, 0, 80, 69
1, 38924, Note_on_c, 0, 68, 65
1, 38933, Note_on_c, 0, 69, 59
1, 38958, Note_off_c, 0, 69, 54
1, 38970, Note_off_c, 0, 68, 56
1, 38980, Note_off_c, 0, 80, 59
1, 38994, Note_on_c, 0, 76, 54
1, 38999, Note_off_c, 0, 71, 50
1, 39044, Note_on_c, 0, 78, 58
1, 39088, Control_c, 0, 67, 113
1, 39096, Note_on_c, 0, 81, 62
1, 39110, Note_on_c, 0, 83, 56
1, 39128, Note_off_c, 0, 76, 58
1, 39132, Control_c, 0, 67, 113
1, 39140, Note_off_c, 0, 83, 66
1, 39146, Note_off_c, 0, 81, 59
1, 39151, Note_off_c, 0, 78, 60
1, 39176, Control_c, 0, 67, 114
1, 39221, Control_c, 0, 67, 114
1, 39226, Note_on_c, 0, 80, 63
1, 39231, Note_on_c, 0, 83, 60
1, 39242, Note_on_c, 0, 68, 57
1, 39251, Note_on_c, 0, 81, 58
1, 39313, Note_on_c, 0, 78, 40
1, 39334, Note_off_c, 0, 81, 52
1, 39345, Note_on_c, 0, 76, 58
1, 39358, Note_off_c, 0, 83, 33
1, 39366, Note_off_c, 0, 80, 56
1, 39381, Note_off_c, 0, 78, 49
1, 39393, Note_off_c, 0, 68, 61
1, 39413, Note_on_c, 0, 69, 57
1, 39419, Note_on_c, 0, 71, 58
1, 39425, Note_off_c, 0, 76, 57
1, 39445, Note_off_c, 0, 71, 68
1, 39446, Note_off_c, 0, 69, 64
1, 39527, Note_on_c, 0, 66, 56
1, 39530, Note_on_c, 0, 78, 48
1, 39539, Control_c, 0, 67, 114
1, 39547, Note_on_c, 0, 69, 56
1, 39548, Note_on_c, 0, 71, 38
1, 39553, Note_off_c, 0, 78, 64
1, 39554, Control_c, 0, 67, 113
1, 39558, Note_off_c, 0, 66, 63
1, 39569, Control_c, 0, 67, 112
1, 39587, Note_off_c, 0, 69, 56
1, 39592, Note_off_c, 0, 71, 60
1, 39629, Control_c, 0, 67, 112
1, 39631, Note_on_c, 0, 76, 33
1, 39649, Note_on_c, 0, 78, 60
1, 39689, Note_on_c, 0, 81, 52
1, 39696, Note_on_c, 0, 59, 58
1, 39697, Note_off_c, 0, 76, 40
1, 39718, Note_on_c, 0, 83, 37
1, 39725, Note_off_c, 0, 81, 63
1, 39738, Note_off_c, 0, 78, 59
1, 39748, Note_off_c, 0, 83, 54
1, 39763, Control_c, 0, 64, 115
1, 39778, Control_c, 0, 64, 99
1, 39793, Control_c, 0, 64, 86
1, 39807, Control_c, 0, 64, 73
1, 39821, Note_off_c, 0, 59, 45
1, 39822, Control_c, 0, 64, 64
1, 39828, Note_on_c, 0, 83, 48
1, 39836, Note_on_c, 0, 73, 57
1, 39837, Control_c, 0, 64, 52
1, 39841, Note_on_c, 0, 81, 48
1, 39849, Note_on_c, 0, 61, 53
1, 39852, Control_c, 0, 64, 49
1, 39881, Control_c, 0, 64, 55
1, 39896, Control_c, 0, 64, 63
1, 39911, Control_c, 0, 64, 65
1, 39911, Control_c, 0, 67, 111
1, 39925, Control_c, 0, 64, 68
1, 39926, Note_off_c, 0, 81, 48
1, 39930, Note_off_c, 0, 83, 37
1, 39935, Note_on_c, 0, 78, 15
1, 39940, Note_on_c, 0, 76, 55
1, 39940, Control_c, 0, 64, 71
1, 39955, Control_c, 0, 64, 75
1, 39970, Control_c, 0, 64, 81
1, 39980, Note_off_c, 0, 78, 52
1, 39985, Note_off_c, 0, 61, 61
1, 39985, Control_c, 0, 64, 86
1, 39999, Control_c, 0, 64, 90
1, 40004, Note_off_c, 0, 73, 62
1, 40013, Note_off_c, 0, 76, 57
1, 40014, Control_c, 0, 64, 94
1, 40019, Note_on_c, 0, 69, 50
1, 40021, Note_on_c, 0, 71, 50
1, 40029, Control_c, 0, 64, 97
1, 40044, Control_c, 0, 64, 99
1, 40047, Note_off_c, 0, 69, 55
1, 40048, Note_off_c, 0, 71, 56
1, 40067, Control_c, 0, 64, 101
1, 40081, Control_c, 0, 64, 103
1, 40096, Control_c, 0, 64, 104
1, 40112, Note_on_c, 0, 75, 65
1, 40126, Control_c, 0, 64, 105
1, 40129, Note_on_c, 0, 71, 56
1, 40133, Note_on_c, 0, 63, 51
1, 40136, Note_on_c, 0, 69, 58
1, 40155, Control_c, 0, 64, 106
1, 40170, Note_off_c, 0, 69, 54
1, 40170, Control_c, 0, 64, 107
1, 40185, Control_c, 0, 64, 107
1, 40191, Note_off_c, 0, 71, 44
1, 40198, Control_c, 0, 64, 107
1, 40200, Note_on_c, 0, 76, 56
1, 40224, Note_off_c, 0, 75, 59
1, 40225, Note_on_c, 0, 78, 59
1, 40228, Control_c, 0, 64, 107
1, 40273, Control_c, 0, 67, 112
1, 40289, Note_on_c, 0, 81, 60
1, 40300, Note_on_c, 0, 83, 55
1, 40317, Note_off_c, 0, 76, 53
1, 40317, Control_c, 0, 64, 108
1, 40324, Note_off_c, 0, 83, 61
1, 40332, Note_off_c, 0, 81, 58
1, 40340, Note_off_c, 0, 78, 59
1, 40377, Control_c, 0, 64, 107
1, 40399, Note_on_c, 0, 73, 68
1, 40401, Note_on_c, 0, 83, 66
1, 40402, Note_on_c, 0, 61, 62
1, 40424, Note_on_c, 0, 81, 56
1, 40452, Note_off_c, 0, 61, 59
1, 40464, Note_off_c, 0, 73, 60
1, 40475, Note_on_c, 0, 78, 52
1, 40477, Note_off_c, 0, 63, 23
1, 40480, Control_c, 0, 67, 111
1, 40498, Note_off_c, 0, 81, 49
1, 40506, Note_on_c, 0, 76, 61
1, 40508, Note_off_c, 0, 83, 33
1, 40546, Note_off_c, 0, 78, 58
1, 40580, Note_off_c, 0, 76, 58
1, 40586, Note_on_c, 0, 71, 54
1, 40587, Note_on_c, 0, 69, 56
1, 40615, Note_off_c, 0, 69, 60
1, 40617, Note_off_c, 0, 71, 65
1, 40629, Control_c, 0, 64, 108
1, 40678, Note_on_c, 0, 78, 66
1, 40693, Note_on_c, 0, 66, 64
1, 40696, Note_on_c, 0, 71, 53
1, 40697, Note_on_c, 0, 69, 59
1, 40737, Note_off_c, 0, 78, 62
1, 40743, Note_off_c, 0, 69, 55
1, 40748, Note_off_c, 0, 71, 51
1, 40751, Note_off_c, 0, 66, 61
1, 40767, Note_on_c, 0, 76, 54
1, 40789, Note_on_c, 0, 78, 43
1, 40839, Note_on_c, 0, 63, 71
1, 40839, Note_on_c, 0, 75, 62
1, 40847, Note_on_c, 0, 81, 57
1, 40866, Note_on_c, 0, 83, 52
1, 40869, Note_off_c, 0, 75, 65
1, 40882, Note_off_c, 0, 63, 55
1, 40884, Note_off_c, 0, 76, 51
1, 40896, Note_off_c, 0, 81, 54
1, 40901, Note_off_c, 0, 83, 54
1, 40914, Note_off_c, 0, 78, 60
1, 40994, Note_on_c, 0, 61, 69
1, 40996, Note_on_c, 0, 83, 53
1, 40997, Note_on_c, 0, 73, 60
1, 41002, Note_on_c, 0, 81, 59
1, 41057, Note_on_c, 0, 78, 56
1, 41060, Note_off_c, 0, 73, 61
1, 41083, Note_off_c, 0, 83, 38
1, 41087, Note_on_c, 0, 76, 64
1, 41089, Note_off_c, 0, 61, 60
1, 41091, Note_off_c, 0, 81, 55
1, 41096, Control_c, 0, 64, 109
1, 41110, Control_c, 0, 64, 110
1, 41125, Control_c, 0, 64, 110
1, 41137, Note_off_c, 0, 78, 55
1, 41155, Control_c, 0, 64, 111
1, 41164, Note_on_c, 0, 69, 60
1, 41166, Note_on_c, 0, 71, 62
1, 41167, Note_off_c, 0, 76, 56
1, 41170, Control_c, 0, 64, 111
1, 41185, Control_c, 0, 64, 112
1, 41200, Note_off_c, 0, 69, 62
1, 41202, Note_off_c, 0, 71, 60
1, 41259, Control_c, 0, 64, 112
1, 41259, Control_c, 0, 67, 112
1, 41269, Note_on_c, 0, 68, 68
1, 41273, Control_c, 0, 67, 112
1, 41277, Note_on_c, 0, 56, 63
1, 41293, Note_on_c, 0, 71, 42
1, 41297, Note_on_c, 0, 69, 54
1, 41303, Control_c, 0, 64, 113
1, 41303, Control_c, 0, 67, 113
1, 41345, Note_off_c, 0, 69, 45
1, 41345, Note_off_c, 0, 56, 62
1, 41345, Note_off_c, 0, 68, 56
1, 41351, Note_on_c, 0, 76, 51
1, 41363, Note_off_c, 0, 71, 39
1, 41364, Control_c, 0, 64, 114
1, 41364, Control_c, 0, 67, 113
1, 41378, Control_c, 0, 64, 115
1, 41389, Note_on_c, 0, 78, 57
1, 41393, Control_c, 0, 64, 116
1, 41408, Control_c, 0, 67, 114
1, 41438, Control_c, 0, 64, 117
1, 41452, Control_c, 0, 64, 119
1, 41453, Note_on_c, 0, 81, 59
1, 41456, Note_on_c, 0, 83, 62
1, 41467, Control_c, 0, 64, 123
1, 41472, Note_off_c, 0, 76, 62
1, 41482, Control_c, 0, 64, 126
1, 41483, Note_off_c, 0, 81, 66
1, 41486, Note_off_c, 0, 83, 66
1, 41489, Note_off_c, 0, 78, 61
1, 41512, Control_c, 0, 67, 114
1, 41563, Control_c, 0, 64, 124
1, 41578, Control_c, 0, 64, 113
1, 41586, Note_on_c, 0, 68, 62
1, 41588, Note_on_c, 0, 83, 48
1, 41590, Note_on_c, 0, 56, 62
1, 41593, Control_c, 0, 64, 104
1, 41593, Note_on_c, 0, 81, 56
1, 41608, Control_c, 0, 64, 93
1, 41623, Note_on_c, 0, 78, 53
1, 41623, Control_c, 0, 64, 84
1, 41638, Control_c, 0, 64, 76
1, 41652, Control_c, 0, 64, 70
1, 41667, Control_c, 0, 64, 67
1, 41671, Note_on_c, 0, 76, 62
1, 41682, Control_c, 0, 67, 115
1, 41696, Control_c, 0, 64, 68
1, 41711, Control_c, 0, 64, 71
1, 41721, Note_off_c, 0, 81, 32
1, 41726, Note_off_c, 0, 83, 42
1, 41726, Control_c, 0, 64, 74
1, 41741, Control_c, 0, 64, 77
1, 41744, Note_off_c, 0, 78, 51
1, 41756, Control_c, 0, 64, 79
1, 41763, Note_on_c, 0, 71, 55
1, 41763, Note_off_c, 0, 68, 62
1, 41765, Note_on_c, 0, 69, 60
1, 41770, Note_off_c, 0, 76, 60
1, 41771, Control_c, 0, 64, 82
1, 41775, Note_off_c, 0, 56, 64
1, 41785, Control_c, 0, 64, 85
1, 41795, Note_off_c, 0, 69, 64
1, 41796, Note_off_c, 0, 71, 66
1, 41800, Control_c, 0, 64, 87
1, 41815, Control_c, 0, 64, 88
1, 41882, Note_on_c, 0, 71, 59
1, 41890, Note_on_c, 0, 54, 54
1, 41890, Note_on_c, 0, 69, 54
1, 41924, Note_on_c, 0, 76, 36
1, 41927, Note_off_c, 0, 54, 63
1, 41966, Note_on_c, 0, 78, 47
1, 41993, Control_c, 0, 64, 87
1, 42010, Note_off_c, 0, 71, 32
1, 42012, Note_off_c, 0, 69, 31
1, 42030, Note_on_c, 0, 83, 56
1, 42052, Control_c, 0, 64, 87
1, 42055, Note_off_c, 0, 78, 62
1, 42056, Note_off_c, 0, 76, 39
1, 42062, Note_off_c, 0, 83, 65
1, 42067, Control_c, 0, 64, 86
1, 42082, Control_c, 0, 64, 86
1, 42127, Control_c, 0, 64, 85
1, 42142, Control_c, 0, 64, 85
1, 42156, Control_c, 0, 64, 84
1, 42171, Control_c, 0, 64, 83
1, 42186, Control_c, 0, 64, 81
1, 42201, Control_c, 0, 64, 79
1, 42216, Control_c, 0, 64, 76
1, 42231, Control_c, 0, 64, 72
1, 42246, Control_c, 0, 64, 64
1, 42256, Note_on_c, 0, 85, 56
1, 42261, Control_c, 0, 64, 47
1, 42261, Note_on_c, 0, 47, 40
1, 42275, Control_c, 0, 64, 21
1, 42276, Note_on_c, 0, 78, 33
1, 42326, Control_c, 0, 64, 29
1, 42341, Control_c, 0, 64, 52
1, 42356, Control_c, 0, 64, 62
1, 42371, Control_c, 0, 64, 66
1, 42386, Note_on_c, 0, 49, 37
1, 42386, Control_c, 0, 64, 69
1, 42401, Control_c, 0, 64, 74
1, 42410, Note_off_c, 0, 47, 32
1, 42415, Note_on_c, 0, 52, 45
1, 42416, Control_c, 0, 64, 79
1, 42430, Note_off_c, 0, 85, 61
1, 42431, Control_c, 0, 64, 85
1, 42431, Control_c, 0, 67, 114
1, 42436, Note_off_c, 0, 49, 57
1, 42446, Control_c, 0, 64, 92
1, 42452, Note_off_c, 0, 52, 63
1, 42461, Control_c, 0, 64, 96
1, 42461, Control_c, 0, 67, 114
1, 42475, Control_c, 0, 64, 98
1, 42490, Control_c, 0, 64, 100
1, 42490, Control_c, 0, 67, 113
1, 42505, Control_c, 0, 64, 104
1, 42509, Note_on_c, 0, 57, 31
1, 42519, Control_c, 0, 64, 108
1, 42534, Control_c, 0, 64, 113
1, 42547, Note_off_c, 0, 57, 51
1, 42549, Control_c, 0, 64, 115
1, 42564, Control_c, 0, 64, 117
1, 42571, Note_on_c, 0, 87, 73
1, 42579, Control_c, 0, 64, 120
1, 42593, Control_c, 0, 64, 127
1, 42601, Note_on_c, 0, 80, 54
1, 42606, Note_on_c, 0, 59, 45
1, 42626, Note_on_c, 0, 75, 40
1, 42657, Note_off_c, 0, 59, 53
1, 42666, Note_off_c, 0, 87, 61
1, 42672, Note_off_c, 0, 78, 44
1, 42683, Note_on_c, 0, 61, 50
1, 42684, Note_off_c, 0, 75, 53
1, 42723, Note_off_c, 0, 61, 60
1, 42726, Control_c, 0, 67, 113
1, 42753, Note_on_c, 0, 64, 17
1, 42796, Note_on_c, 0, 69, 50
1, 42804, Note_off_c, 0, 64, 46
1, 42830, Note_on_c, 0, 78, 45
1, 42836, Note_off_c, 0, 69, 61
1, 42860, Note_on_c, 0, 85, 73
1, 42860, Control_c, 0, 67, 113
1, 42875, Control_c, 0, 67, 114
1, 42877, Note_on_c, 0, 59, 53
1, 42903, Note_off_c, 0, 80, 60
1, 42919, Note_off_c, 0, 78, 60
1, 42937, Note_off_c, 0, 85, 63
1, 42941, Note_off_c, 0, 59, 44
1, 42969, Note_on_c, 0, 61, 45
1, 43009, Note_off_c, 0, 61, 61
1, 43018, Note_on_c, 0, 64, 34
1, 43060, Note_off_c, 0, 64, 51
1, 43061, Control_c, 0, 67, 113
1, 43078, Note_on_c, 0, 69, 44
1, 43102, Note_off_c, 0, 69, 58
1, 43120, Control_c, 0, 67, 113
1, 43148, Note_on_c, 0, 90, 79
1, 43161, Note_on_c, 0, 83, 57
1, 43164, Control_c, 0, 67, 112
1, 43165, Note_on_c, 0, 76, 53
1, 43184, Note_on_c, 0, 78, 37
1, 43190, Note_off_c, 0, 76, 61
1, 43197, Note_off_c, 0, 90, 65
1, 43210, Control_c, 0, 67, 112
1, 43216, Note_off_c, 0, 78, 54
1, 43218, Note_off_c, 0, 83, 60
1, 43224, Control_c, 0, 67, 111
1, 43239, Note_on_c, 0, 69, 46
1, 43283, Note_on_c, 0, 87, 79
1, 43284, Control_c, 0, 67, 111
1, 43295, Note_on_c, 0, 80, 59
1, 43310, Note_off_c, 0, 69, 56
1, 43316, Note_on_c, 0, 75, 46
1, 43338, Note_on_c, 0, 64, 51
1, 43341, Note_off_c, 0, 87, 64
1, 43342, Note_off_c, 0, 75, 58
1, 43342, Note_off_c, 0, 80, 58
1, 43343, Control_c, 0, 67, 110
1, 43379, Note_off_c, 0, 64, 59
1, 43431, Note_on_c, 0, 85, 78
1, 43442, Poly_aftertouch_c, 0, 61, 127
1, 43448, Note_on_c, 0, 59, 53
1, 43453, Note_on_c, 0, 78, 55
1, 43472, Note_on_c, 0, 73, 40
1, 43481, Note_off_c, 0, 85, 63
1, 43489, Note_off_c, 0, 78, 61
1, 43499, Poly_aftertouch_c, 0, 61, 0
1, 43503, Note_off_c, 0, 73, 54
1, 43522, Note_on_c, 0, 61, 28
1, 43522, Note_off_c, 0, 59, 56
1, 43536, Control_c, 0, 67, 111
1, 43578, Note_on_c, 0, 64, 43
1, 43579, Note_off_c, 0, 61, 61
1, 43610, Note_off_c, 0, 64, 56
1, 43654, Note_on_c, 0, 69, 35
1, 43690, Note_off_c, 0, 69, 50
1, 43707, Note_on_c, 0, 80, 78
1, 43717, Note_on_c, 0, 73, 61
1, 43735, Note_on_c, 0, 59, 56
1, 43749, Note_off_c, 0, 73, 64
1, 43759, Control_c, 0, 67, 111
1, 43762, Note_off_c, 0, 80, 63
1, 43778, Note_off_c, 0, 59, 54
1, 43788, Control_c, 0, 67, 112
1, 43811, Control_c, 0, 67, 112
1, 43814, Poly_aftertouch_c, 0, 68, 0
1, 43830, Note_on_c, 0, 61, 52
1, 43855, Control_c, 0, 67, 113
1, 43862, Note_off_c, 0, 61, 64
1, 43870, Control_c, 0, 67, 113
1, 43885, Control_c, 0, 67, 114
1, 43933, Note_on_c, 0, 69, 41
1, 43939, Poly_aftertouch_c, 0, 64, 127
1, 43978, Note_off_c, 0, 69, 58
1, 43979, Poly_aftertouch_c, 0, 64, 0
1, 44015, Note_on_c, 0, 80, 80
1, 44033, Note_on_c, 0, 73, 56
1, 44046, Note_on_c, 0, 59, 46
1, 44118, Poly_aftertouch_c, 0, 68, 127
1, 44121, Note_off_c, 0, 59, 49
1, 44145, Note_on_c, 0, 61, 43
1, 44173, Note_off_c, 0, 61, 60
1, 44173, Poly_aftertouch_c, 0, 68, 0
1, 44186, Note_on_c, 0, 64, 39
1, 44188, Note_off_c, 0, 80, 60
1, 44229, Note_off_c, 0, 64, 47
1, 44232, Note_on_c, 0, 69, 49
1, 44280, Note_off_c, 0, 69, 57
1, 44310, Note_on_c, 0, 78, 81
1, 44312, Note_on_c, 0, 71, 48
1, 44335, Note_on_c, 0, 59, 51
1, 44365, Note_on_c, 0, 66, 19
1, 44386, Note_off_c, 0, 59, 54
1, 44392, Note_off_c, 0, 71, 63
1, 44404, Note_on_c, 0, 61, 39
1, 44410, Note_off_c, 0, 73, 60
1, 44413, Note_off_c, 0, 66, 47
1, 44422, Note_off_c, 0, 78, 60
1, 44444, Note_off_c, 0, 61, 61
1, 44633, Control_c, 0, 64, 120
1, 44635, Note_on_c, 0, 76, 75
1, 44642, Note_on_c, 0, 56, 53
1, 44648, Control_c, 0, 64, 99
1, 44663, Note_on_c, 0, 69, 49
1, 44663, Control_c, 0, 64, 85
1, 44677, Control_c, 0, 64, 73
1, 44690, Note_on_c, 0, 64, 22
1, 44692, Control_c, 0, 64, 65
1, 44707, Control_c, 0, 64, 61
1, 44736, Control_c, 0, 64, 64
1, 44751, Control_c, 0, 64, 66
1, 44765, Note_off_c, 0, 64, 46
1, 44766, Control_c, 0, 64, 70
1, 44781, Control_c, 0, 64, 75
1, 44795, Control_c, 0, 64, 81
1, 44798, Note_off_c, 0, 56, 55
1, 44804, Note_off_c, 0, 76, 62
1, 44810, Control_c, 0, 64, 90
1, 44815, Note_on_c, 0, 57, 28
1, 44825, Control_c, 0, 64, 98
1, 44836, Note_on_c, 0, 61, 46
1, 44840, Control_c, 0, 64, 106
1, 44855, Control_c, 0, 64, 115
1, 44864, Note_off_c, 0, 57, 45
1, 44869, Control_c, 0, 64, 127
1, 44893, Note_on_c, 0, 64, 43
1, 44912, Note_off_c, 0, 61, 40
1, 44914, Control_c, 0, 67, 113
1, 44943, Note_off_c, 0, 64, 47
1, 44948, Note_on_c, 0, 78, 69
1, 44965, Note_on_c, 0, 73, 70
1, 44977, Note_on_c, 0, 66, 48
1, 44980, Note_on_c, 0, 54, 60
1, 45004, Note_off_c, 0, 78, 62
1, 45009, Note_off_c, 0, 69, 49
1, 45013, Note_off_c, 0, 66, 62
1, 45033, Control_c, 0, 67, 113
1, 45060, Note_off_c, 0, 73, 54
1, 45093, Note_on_c, 0, 57, 39
1, 45097, Note_on_c, 0, 76, 81
1, 45112, Note_off_c, 0, 54, 37
1, 45122, Note_on_c, 0, 69, 34
1, 45131, Note_off_c, 0, 57, 54
1, 45132, Note_on_c, 0, 64, 27
1, 45133, Note_on_c, 0, 61, 45
1, 45136, Control_c, 0, 67, 112
1, 45137, Note_off_c, 0, 76, 62
1, 45155, Note_off_c, 0, 69, 54
1, 45173, Note_off_c, 0, 61, 61
1, 45245, Note_on_c, 0, 73, 81
1, 45254, Control_c, 0, 64, 112
1, 45257, Note_off_c, 0, 64, 46
1, 45269, Control_c, 0, 64, 98
1, 45271, Note_on_c, 0, 66, 58
1, 45272, Note_on_c, 0, 52, 63
1, 45292, Control_c, 0, 64, 86
1, 45306, Note_on_c, 0, 61, 4
1, 45307, Control_c, 0, 64, 77
1, 45322, Control_c, 0, 64, 69
1, 45337, Control_c, 0, 64, 65
1, 45349, Note_on_c, 0, 54, 52
1, 45352, Control_c, 0, 64, 64
1, 45356, Note_off_c, 0, 61, 41
1, 45367, Control_c, 0, 64, 66
1, 45382, Control_c, 0, 64, 69
1, 45397, Control_c, 0, 64, 74
1, 45402, Note_off_c, 0, 52, 50
1, 45410, Note_off_c, 0, 66, 47
1, 45412, Control_c, 0, 64, 80
1, 45412, Note_on_c, 0, 57, 45
1, 45426, Control_c, 0, 64, 87
1, 45441, Control_c, 0, 64, 96
1, 45441, Control_c, 0, 67, 112
1, 45442, Note_on_c, 0, 61, 59
1, 45456, Control_c, 0, 64, 104
1, 45456, Control_c, 0, 67, 111
1, 45464, Note_off_c, 0, 54, 60
1, 45471, Control_c, 0, 64, 116
1, 45477, Note_off_c, 0, 57, 59
1, 45485, Note_off_c, 0, 61, 60
1, 45486, Control_c, 0, 64, 127
1, 45511, Note_on_c, 0, 64, 65
1, 45530, Control_c, 0, 67, 111
1, 45565, Note_off_c, 0, 73, 59
1, 45573, Note_off_c, 0, 64, 60
1, 45573, Note_on_c, 0, 61, 63
1, 45604, Control_c, 0, 67, 110
1, 45641, Note_on_c, 0, 57, 38
1, 45651, Note_off_c, 0, 61, 62
1, 45704, Note_on_c, 0, 54, 59
1, 45710, Note_off_c, 0, 57, 61
1, 45740, Note_off_c, 0, 54, 64
1, 45785, Note_on_c, 0, 76, 77
1, 45796, Control_c, 0, 67, 110
1, 45804, Note_on_c, 0, 69, 58
1, 45805, Note_on_c, 0, 49, 67
1, 45811, Control_c, 0, 64, 106
1, 45826, Control_c, 0, 64, 90
1, 45841, Control_c, 0, 64, 79
1, 45848, Note_on_c, 0, 64, 22
1, 45856, Control_c, 0, 64, 71
1, 45856, Control_c, 0, 67, 109
1, 45870, Control_c, 0, 64, 69
1, 45885, Control_c, 0, 64, 71
1, 45888, Note_off_c, 0, 64, 55
1, 45900, Control_c, 0, 64, 75
1, 45900, Control_c, 0, 67, 109
1, 45915, Control_c, 0, 64, 83
1, 45930, Control_c, 0, 64, 95
1, 45932, Note_on_c, 0, 52, 53
1, 45944, Control_c, 0, 64, 114
1, 45959, Control_c, 0, 64, 127
1, 45966, Note_off_c, 0, 76, 62
1, 45979, Note_off_c, 0, 49, 57
1, 45982, Note_on_c, 0, 54, 59
1, 46008, Note_on_c, 0, 57, 49
1, 46016, Note_off_c, 0, 52, 62
1, 46051, Note_off_c, 0, 57, 63
1, 46068, Note_on_c, 0, 61, 66
1, 46070, Control_c, 0, 67, 109
1, 46071, Note_off_c, 0, 54, 61
1, 46100, Control_c, 0, 67, 110
1, 46103, Note_on_c, 0, 78, 76
1, 46119, Note_on_c, 0, 73, 75
1, 46130, Note_on_c, 0, 66, 57
1, 46133, Note_off_c, 0, 61, 62
1, 46151, Note_on_c, 0, 57, 58
1, 46160, Note_off_c, 0, 69, 55
1, 46185, Note_off_c, 0, 78, 63
1, 46187, Note_off_c, 0, 66, 59
1, 46205, Control_c, 0, 67, 110
1, 46237, Note_on_c, 0, 54, 46
1, 46243, Note_off_c, 0, 57, 60
1, 46258, Note_on_c, 0, 76, 83
1, 46263, Note_on_c, 0, 52, 59
1, 46273, Note_on_c, 0, 69, 66
1, 46280, Note_on_c, 0, 64, 56
1, 46297, Note_off_c, 0, 54, 60
1, 46298, Note_off_c, 0, 69, 69
1, 46298, Note_off_c, 0, 73, 62
1, 46300, Note_off_c, 0, 64, 65
1, 46300, Note_off_c, 0, 76, 63
1, 46312, Note_off_c, 0, 52, 61
1, 46339, Control_c, 0, 67, 111
1, 46368, Control_c, 0, 67, 111
1, 46388, Note_on_c, 0, 47, 69
1, 46397, Note_on_c, 0, 73, 84
1, 46398, Control_c, 0, 67, 112
1, 46413, Control_c, 0, 64, 100
1, 46413, Control_c, 0, 67, 112
1, 46416, Note_on_c, 0, 66, 66
1, 46428, Control_c, 0, 64, 84
1, 46429, Note_on_c, 0, 61, 51
1, 46442, Control_c, 0, 64, 77
1, 46457, Control_c, 0, 64, 75
1, 46458, Note_off_c, 0, 73, 62
1, 46462, Note_off_c, 0, 61, 63
1, 46464, Note_on_c, 0, 49, 68
1, 46472, Control_c, 0, 64, 77
1, 46487, Control_c, 0, 64, 82
1, 46488, Note_off_c, 0, 66, 59
1, 46501, Note_off_c, 0, 47, 58
1, 46501, Control_c, 0, 64, 90
1, 46516, Control_c, 0, 64, 97
1, 46531, Control_c, 0, 64, 105
1, 46532, Note_on_c, 0, 71, 81
1, 46546, Control_c, 0, 64, 111
1, 46546, Control_c, 0, 67, 111
1, 46547, Note_on_c, 0, 59, 57
1, 46547, Note_on_c, 0, 64, 67
1, 46551, Note_on_c, 0, 52, 58
1, 46561, Control_c, 0, 64, 118
1, 46561, Control_c, 0, 67, 111
1, 46568, Note_off_c, 0, 59, 60
1, 46575, Control_c, 0, 64, 127
1, 46575, Control_c, 0, 67, 110
1, 46590, Control_c, 0, 67, 110
1, 46593, Note_off_c, 0, 71, 62
1, 46598, Note_on_c, 0, 54, 62
1, 46601, Note_off_c, 0, 49, 60
1, 46605, Control_c, 0, 67, 109
1, 46610, Note_off_c, 0, 52, 60
1, 46613, Note_off_c, 0, 64, 62
1, 46620, Control_c, 0, 67, 108
1, 46631, Note_off_c, 0, 54, 67
1, 46635, Control_c, 0, 67, 107
1, 46649, Control_c, 0, 67, 106
1, 46655, Note_on_c, 0, 57, 61
1, 46664, Note_on_c, 0, 73, 92
1, 46664, Control_c, 0, 67, 103
1, 46670, Note_on_c, 0, 66, 69
1, 46679, Control_c, 0, 67, 97
1, 46693, Control_c, 0, 67, 90
1, 46699, Note_off_c, 0, 66, 65
1, 46708, Control_c, 0, 67, 84
1, 46710, Note_on_c, 0, 54, 70
1, 46721, Note_off_c, 0, 57, 55
1, 46723, Control_c, 0, 67, 79
1, 46730, Poly_aftertouch_c, 0, 61, 127
1, 46735, Note_off_c, 0, 73, 61
1, 46738, Control_c, 0, 67, 75
1, 46753, Control_c, 0, 67, 70
1, 46764, Poly_aftertouch_c, 0, 61, 0
1, 46768, Control_c, 0, 67, 63
1, 46774, Note_off_c, 0, 54, 64
1, 46783, Control_c, 0, 67, 56
1, 46805, Control_c, 0, 67, 51
1, 46813, Note_on_c, 0, 52, 58
1, 46820, Control_c, 0, 67, 47
1, 46835, Control_c, 0, 67, 45
1, 46849, Control_c, 0, 67, 43
1, 46864, Control_c, 0, 67, 40
1, 46871, Note_on_c, 0, 49, 66
1, 46879, Control_c, 0, 67, 37
1, 46893, Control_c, 0, 67, 34
1, 46905, Note_off_c, 0, 52, 38
1, 46908, Control_c, 0, 67, 32
1, 46924, Control_c, 0, 64, 119
1, 46924, Control_c, 0, 67, 28
1, 46939, Note_on_c, 0, 76, 84
1, 46939, Control_c, 0, 64, 94
1, 46939, Control_c, 0, 67, 25
1, 46945, Note_off_c, 0, 49, 61
1, 46951, Note_on_c, 0, 45, 79
1, 46954, Control_c, 0, 64, 78
1, 46954, Control_c, 0, 67, 22
1, 46959, Note_on_c, 0, 69, 64
1, 46969, Control_c, 0, 64, 64
1, 46969, Control_c, 0, 67, 17
1, 46984, Control_c, 0, 64, 40
1, 46984, Control_c, 0, 67, 12
1, 46987, Note_on_c, 0, 64, 42
1, 46998, Control_c, 0, 64, 42
1, 46998, Control_c, 0, 67, 0
1, 47013, Control_c, 0, 64, 59
1, 47028, Control_c, 0, 64, 66
1, 47043, Control_c, 0, 64, 72
1, 47050, Note_on_c, 0, 49, 77
1, 47058, Control_c, 0, 64, 80
1, 47072, Control_c, 0, 64, 93
1, 47087, Control_c, 0, 64, 108
1, 47096, Note_off_c, 0, 64, 44
1, 47102, Control_c, 0, 64, 127
1, 47108, Note_off_c, 0, 76, 62
1, 47123, Note_off_c, 0, 45, 54
1, 47141, Note_on_c, 0, 52, 57
1, 47182, Note_on_c, 0, 54, 67
1, 47200, Note_off_c, 0, 49, 62
1, 47214, Note_off_c, 0, 52, 61
1, 47218, Note_on_c, 0, 78, 88
1, 47227, Note_off_c, 0, 54, 63
1, 47229, Note_on_c, 0, 73, 84
1, 47239, Note_on_c, 0, 57, 67
1, 47258, Note_on_c, 0, 66, 53
1, 47296, Note_off_c, 0, 69, 38
1, 47310, Note_on_c, 0, 54, 70
1, 47330, Note_off_c, 0, 78, 62
1, 47331, Note_off_c, 0, 57, 57
1, 47352, Note_on_c, 0, 52, 67
1, 47358, Note_off_c, 0, 66, 58
1, 47380, Note_off_c, 0, 54, 60
1, 47452, Note_on_c, 0, 49, 62
1, 47480, Note_on_c, 0, 69, 37
1, 47487, Control_c, 0, 64, 111
1, 47494, Note_off_c, 0, 52, 55
1, 47498, Note_off_c, 0, 49, 60
1, 47502, Control_c, 0, 64, 89
1, 47503, Note_on_c, 0, 76, 87
1, 47505, Note_on_c, 0, 44, 83
1, 47516, Control_c, 0, 64, 75
1, 47522, Note_on_c, 0, 64, 63
1, 47531, Control_c, 0, 64, 70
1, 47554, Control_c, 0, 64, 72
1, 47569, Control_c, 0, 64, 78
1, 47584, Control_c, 0, 64, 89
1, 47598, Control_c, 0, 64, 105
1, 47600, Note_off_c, 0, 76, 64
1, 47603, Note_off_c, 0, 73, 60
1, 47604, Note_off_c, 0, 64, 63
1, 47609, Note_on_c, 0, 49, 67
1, 47613, Control_c, 0, 64, 127
1, 47615, Note_off_c, 0, 69, 62
1, 47662, Note_off_c, 0, 44, 63
1, 47681, Note_on_c, 0, 52, 43
1, 47706, Note_on_c, 0, 54, 66
1, 47731, Note_off_c, 0, 49, 59
1, 47752, Note_off_c, 0, 52, 60
1, 47760, Note_off_c, 0, 54, 64
1, 47772, Note_on_c, 0, 57, 72
1, 47792, Note_on_c, 0, 73, 84
1, 47806, Note_on_c, 0, 66, 74
1, 47818, Note_on_c, 0, 61, 62
1, 47842, Note_on_c, 0, 54, 63
1, 47891, Note_off_c, 0, 73, 60
1, 47892, Note_on_c, 0, 52, 59
1, 47894, Note_off_c, 0, 66, 60
1, 47895, Note_off_c, 0, 57, 44
1, 47907, Note_off_c, 0, 61, 61
1, 47935, Note_on_c, 0, 49, 68
1, 47936, Note_off_c, 0, 54, 63
1, 47948, Note_off_c, 0, 52, 61
1, 47978, Note_off_c, 0, 49, 65
1, 48078, Note_on_c, 0, 42, 71
1, 48083, Note_on_c, 0, 71, 85
1, 48097, Note_on_c, 0, 64, 74
1, 48103, Control_c, 0, 64, 112
1, 48103, Note_on_c, 0, 59, 67
1, 48118, Control_c, 0, 64, 92
1, 48132, Control_c, 0, 64, 76
1, 48147, Control_c, 0, 64, 66
1, 48162, Control_c, 0, 64, 62
1, 48163, Note_on_c, 0, 45, 65
1, 48177, Control_c, 0, 64, 64
1, 48192, Control_c, 0, 64, 67
1, 48202, Note_on_c, 0, 49, 70
1, 48207, Control_c, 0, 64, 71
1, 48214, Note_off_c, 0, 42, 59
1, 48221, Control_c, 0, 64, 77
1, 48235, Note_off_c, 0, 45, 64
1, 48236, Control_c, 0, 64, 85
1, 48251, Control_c, 0, 64, 94
1, 48258, Note_off_c, 0, 49, 63
1, 48263, Note_on_c, 0, 52, 72
1, 48265, Control_c, 0, 64, 109
1, 48280, Control_c, 0, 64, 127
1, 48327, Note_off_c, 0, 52, 58
1, 48357, Note_on_c, 0, 54, 78
1, 48396, Note_off_c, 0, 59, 59
1, 48398, Note_off_c, 0, 71, 60
1, 48409, Note_off_c, 0, 54, 65
1, 48427, Note_on_c, 0, 52, 79
1, 48496, Note_on_c, 0, 49, 76
1, 48497, Note_off_c, 0, 52, 52
1, 48595, Note_on_c, 0, 45, 63
1, 48595, Note_off_c, 0, 49, 60
1, 48643, Control_c, 0, 64, 102
1, 48658, Control_c, 0, 64, 85
1, 48662, Note_on_c, 0, 73, 91
1, 48664, Note_off_c, 0, 45, 60
1, 48670, Note_on_c, 0, 40, 67
1, 48673, Control_c, 0, 64, 69
1, 48678, Note_on_c, 0, 66, 62
1, 48688, Control_c, 0, 64, 44
1, 48703, Control_c, 0, 64, 0
1, 48717, Note_on_c, 0, 61, 10
1, 48732, Control_c, 0, 64, 11
1, 48747, Control_c, 0, 64, 52
1, 48756, Note_off_c, 0, 64, 20
1, 48757, Note_on_c, 0, 45, 29
1, 48762, Control_c, 0, 64, 63
1, 48771, Note_off_c, 0, 40, 61
1, 48777, Control_c, 0, 64, 69
1, 48791, Note_off_c, 0, 45, 57
1, 48792, Control_c, 0, 64, 75
1, 48798, Note_on_c, 0, 49, 63
1, 48807, Control_c, 0, 64, 83
1, 48822, Note_off_c, 0, 61, 31
1, 48822, Control_c, 0, 64, 87
1, 48828, Note_off_c, 0, 73, 64
1, 48836, Note_off_c, 0, 49, 64
1, 48836, Control_c, 0, 64, 89
1, 48837, Note_off_c, 0, 66, 63
1, 48851, Control_c, 0, 64, 90
1, 48857, Note_on_c, 0, 52, 61
1, 48880, Control_c, 0, 67, 8
1, 48895, Control_c, 0, 67, 10
1, 48897, Note_off_c, 0, 52, 57
1, 48910, Control_c, 0, 67, 12
1, 48925, Control_c, 0, 67, 16
1, 48940, Note_on_c, 0, 54, 62
1, 48940, Control_c, 0, 67, 20
1, 48954, Control_c, 0, 67, 30
1, 48969, Control_c, 0, 67, 42
1, 48976, Note_off_c, 0, 54, 66
1, 48984, Control_c, 0, 67, 53
1, 48999, Control_c, 0, 67, 62
1, 49014, Control_c, 0, 67, 66
1, 49023, Note_on_c, 0, 52, 54
1, 49036, Control_c, 0, 67, 70
1, 49051, Control_c, 0, 64, 89
1, 49051, Control_c, 0, 67, 76
1, 49066, Control_c, 0, 64, 88
1, 49066, Control_c, 0, 67, 82
1, 49081, Control_c, 0, 67, 86
1, 49081, Note_off_c, 0, 52, 55
1, 49095, Control_c, 0, 67, 93
1, 49110, Control_c, 0, 67, 99
1, 49125, Control_c, 0, 64, 87
1, 49125, Control_c, 0, 67, 105
1, 49140, Control_c, 0, 64, 86
1, 49140, Control_c, 0, 67, 110
1, 49155, Control_c, 0, 64, 85
1, 49155, Control_c, 0, 67, 115
1, 49159, Poly_aftertouch_c, 0, 49, 127
1, 49169, Control_c, 0, 64, 84
1, 49169, Control_c, 0, 67, 119
1, 49182, Poly_aftertouch_c, 0, 49, 0
1, 49184, Control_c, 0, 64, 83
1, 49184, Control_c, 0, 67, 121
1, 49199, Control_c, 0, 64, 81
1, 49199, Control_c, 0, 67, 123
1, 49214, Control_c, 0, 64, 76
1, 49214, Control_c, 0, 67, 124
1, 49229, Control_c, 0, 64, 70
1, 49229, Control_c, 0, 67, 125
1, 49243, Control_c, 0, 64, 65
1, 49243, Control_c, 0, 67, 126
1, 49258, Control_c, 0, 64, 59
1, 49258, Control_c, 0, 67, 127
1, 49273, Control_c, 0, 64, 43
1, 49273, Control_c, 0, 67, 127
1, 49287, Note_on_c, 0, 39, 49
1, 49287, Control_c, 0, 64, 0
1, 49288, Note_on_c, 0, 73, 51
1, 49296, Note_on_c, 0, 67, 43
1, 49307, Note_on_c, 0, 61, 38
1, 49363, Control_c, 0, 64, 42
1, 49371, Note_on_c, 0, 46, 51
1, 49378, Control_c, 0, 64, 63
1, 49392, Control_c, 0, 64, 68
1, 49394, Note_off_c, 0, 39, 58
1, 49402, Note_off_c, 0, 61, 38
1, 49403, Note_off_c, 0, 73, 59
1, 49406, Note_off_c, 0, 46, 63
1, 49407, Control_c, 0, 64, 72
1, 49422, Control_c, 0, 64, 77
1, 49437, Control_c, 0, 64, 83
1, 49452, Control_c, 0, 64, 86
1, 49458, Note_on_c, 0, 51, 37
1, 49466, Control_c, 0, 64, 88
1, 49466, Control_c, 0, 67, 127
1, 49481, Control_c, 0, 64, 89
1, 49481, Control_c, 0, 67, 126
1, 49495, Note_off_c, 0, 51, 52
1, 49496, Control_c, 0, 64, 90
1, 49496, Control_c, 0, 67, 126
1, 49510, Control_c, 0, 64, 92
1, 49525, Control_c, 0, 64, 93
1, 49525, Control_c, 0, 67, 125
1, 49540, Note_on_c, 0, 53, 40
1, 49540, Control_c, 0, 64, 95
1, 49555, Control_c, 0, 64, 95
1, 49573, Note_on_c, 0, 75, 64
1, 49583, Note_off_c, 0, 53, 49
1, 49591, Note_on_c, 0, 70, 57
1, 49604, Note_off_c, 0, 67, 55
1, 49623, Note_on_c, 0, 63, 30
1, 49631, Note_off_c, 0, 70, 57
1, 49636, Note_on_c, 0, 61, 51
1, 49644, Note_off_c, 0, 75, 56
1, 49645, Control_c, 0, 67, 125
1, 49659, Note_off_c, 0, 61, 59
1, 49659, Control_c, 0, 67, 124
1, 49671, Note_on_c, 0, 55, 17
1, 49671, Note_off_c, 0, 63, 46
1, 49733, Control_c, 0, 67, 123
1, 49748, Control_c, 0, 67, 123
1, 49761, Note_off_c, 0, 55, 57
1, 49763, Control_c, 0, 67, 122
1, 49785, Control_c, 0, 64, 94
1, 49787, Note_on_c, 0, 51, 46
1, 49800, Control_c, 0, 64, 90
1, 49800, Control_c, 0, 67, 122
1, 49814, Control_c, 0, 64, 81
1, 49814, Control_c, 0, 67, 121
1, 49818, Note_off_c, 0, 51, 56
1, 49829, Control_c, 0, 64, 70
1, 49844, Control_c, 0, 64, 61
1, 49859, Control_c, 0, 64, 55
1, 49868, Note_on_c, 0, 76, 54
1, 49874, Control_c, 0, 64, 61
1, 49877, Note_on_c, 0, 71, 58
1, 49881, Note_on_c, 0, 43, 61
1, 49882, Note_on_c, 0, 64, 49
1, 49889, Control_c, 0, 64, 65
1, 49903, Note_on_c, 0, 50, 33
1, 49904, Control_c, 0, 64, 70
1, 49910, Note_off_c, 0, 76, 59
1, 49914, Note_off_c, 0, 43, 63
1, 49918, Control_c, 0, 64, 76
1, 49934, Control_c, 0, 64, 85
1, 49935, Note_off_c, 0, 64, 60
1, 49939, Note_off_c, 0, 50, 53
1, 49949, Control_c, 0, 64, 95
1, 49963, Control_c, 0, 64, 99
1, 49975, Note_on_c, 0, 53, 35
1, 49978, Control_c, 0, 64, 100
1, 49993, Control_c, 0, 64, 101
1, 50008, Control_c, 0, 64, 102
1, 50012, Note_off_c, 0, 53, 56
1, 50023, Control_c, 0, 64, 104
1, 50034, Note_on_c, 0, 57, 51
1, 50037, Control_c, 0, 64, 109
1, 50052, Control_c, 0, 64, 112
1, 50052, Control_c, 0, 67, 120
1, 50060, Note_off_c, 0, 57, 62
1, 50067, Control_c, 0, 64, 112
1, 50067, Control_c, 0, 67, 120
1, 50082, Control_c, 0, 67, 119
1, 50086, Note_on_c, 0, 59, 56
1, 50097, Control_c, 0, 64, 113
1, 50097, Control_c, 0, 67, 119
1, 50113, Control_c, 0, 64, 114
1, 50118, Note_off_c, 0, 59, 63
1, 50127, Control_c, 0, 64, 114
1, 50127, Control_c, 0, 67, 118
1, 50133, Note_on_c, 0, 81, 71
1, 50142, Control_c, 0, 64, 116
1, 50142, Control_c, 0, 67, 118
1, 50145, Note_on_c, 0, 74, 55
1, 50154, Note_off_c, 0, 81, 70
1, 50157, Control_c, 0, 64, 120
1, 50159, Note_on_c, 0, 65, 52
1, 50172, Control_c, 0, 64, 127
1, 50178, Note_off_c, 0, 74, 67
1, 50187, Note_off_c, 0, 71, 57
1, 50191, Note_off_c, 0, 65, 54
1, 50214, Note_on_c, 0, 59, 51
1, 50216, Control_c, 0, 67, 118
1, 50226, Poly_aftertouch_c, 0, 69, 127
1, 50246, Control_c, 0, 67, 119
1, 50254, Poly_aftertouch_c, 0, 69, 0
1, 50261, Note_off_c, 0, 59, 59
1, 50289, Note_on_c, 0, 57, 21
1, 50296, Note_on_c, 0, 53, 66
1, 50321, Note_off_c, 0, 53, 66
1, 50332, Note_off_c, 0, 57, 51
1, 50334, Control_c, 0, 67, 119
1, 50364, Control_c, 0, 64, 120
1, 50379, Control_c, 0, 64, 101
1, 50379, Control_c, 0, 67, 120
1, 50394, Control_c, 0, 64, 87
1, 50394, Control_c, 0, 67, 120
1, 50408, Control_c, 0, 64, 76
1, 50408, Control_c, 0, 67, 121
1, 50418, Note_on_c, 0, 67, 57
1, 50419, Note_on_c, 0, 73, 64
1, 50423, Control_c, 0, 64, 70
1, 50425, Note_on_c, 0, 39, 57
1, 50425, Note_on_c, 0, 46, 62
1, 50436, Note_on_c, 0, 61, 48
1, 50438, Control_c, 0, 64, 70
1, 50453, Control_c, 0, 64, 72
1, 50458, Note_off_c, 0, 39, 56
1, 50461, Note_off_c, 0, 46, 61
1, 50467, Control_c, 0, 64, 75
1, 50476, Note_off_c, 0, 61, 55
1, 50479, Note_off_c, 0, 73, 59
1, 50482, Control_c, 0, 64, 80
1, 50497, Control_c, 0, 64, 85
1, 50512, Control_c, 0, 64, 92
1, 50524, Note_on_c, 0, 51, 16
1, 50527, Control_c, 0, 64, 98
1, 50549, Control_c, 0, 64, 102
1, 50564, Control_c, 0, 64, 105
1, 50571, Note_on_c, 0, 75, 71
1, 50572, Note_on_c, 0, 70, 64
1, 50579, Control_c, 0, 64, 111
1, 50581, Note_off_c, 0, 51, 54
1, 50584, Note_on_c, 0, 53, 57
1, 50594, Control_c, 0, 64, 127
1, 50608, Control_c, 0, 67, 120
1, 50609, Note_off_c, 0, 70, 58
1, 50612, Note_off_c, 0, 75, 59
1, 50640, Note_on_c, 0, 55, 44
1, 50643, Note_off_c, 0, 53, 61
1, 50653, Control_c, 0, 67, 120
1, 50667, Control_c, 0, 67, 119
1, 50677, Note_off_c, 0, 55, 48
1, 50682, Note_on_c, 0, 61, 67
1, 50694, Note_on_c, 0, 73, 82
1, 50712, Control_c, 0, 67, 118
1, 50721, Note_off_c, 0, 61, 61
1, 50722, Note_on_c, 0, 70, 47
1, 50742, Note_off_c, 0, 70, 62
1, 50744, Note_off_c, 0, 73, 60
1, 50753, Note_on_c, 0, 55, 52
1, 50756, Control_c, 0, 67, 118
1, 50771, Control_c, 0, 67, 117
1, 50774, Note_off_c, 0, 67, 40
1, 50782, Note_on_c, 0, 53, 47
1, 50812, Note_off_c, 0, 55, 62
1, 50813, Note_on_c, 0, 75, 79
1, 50816, Note_on_c, 0, 70, 61
1, 50822, Note_on_c, 0, 51, 65
1, 50824, Note_off_c, 0, 53, 63
1, 50831, Control_c, 0, 67, 116
1, 50846, Control_c, 0, 67, 115
1, 50847, Note_off_c, 0, 70, 65
1, 50858, Note_off_c, 0, 51, 64
1, 50860, Control_c, 0, 67, 114
1, 50873, Note_off_c, 0, 75, 61
1, 50875, Control_c, 0, 64, 115
1, 50875, Control_c, 0, 67, 112
1, 50890, Control_c, 0, 64, 97
1, 50890, Control_c, 0, 67, 111
1, 50905, Control_c, 0, 64, 78
1, 50905, Control_c, 0, 67, 110
1, 50920, Control_c, 0, 64, 66
1, 50920, Control_c, 0, 67, 110
1, 50935, Control_c, 0, 64, 63
1, 50935, Control_c, 0, 67, 109
1, 50947, Note_on_c, 0, 43, 63
1, 50950, Note_on_c, 0, 70, 67
1, 50950, Note_on_c, 0, 50, 62
1, 50950, Control_c, 0, 64, 64
1, 50950, Control_c, 0, 67, 107
1, 50963, Note_on_c, 0, 76, 71
1, 50965, Control_c, 0, 64, 68
1, 50965, Control_c, 0, 67, 106
1, 50980, Control_c, 0, 64, 75
1, 50980, Control_c, 0, 67, 106
1, 50980, Note_off_c, 0, 43, 65
1, 50983, Note_on_c, 0, 64, 53
1, 50988, Note_off_c, 0, 50, 67
1, 50995, Control_c, 0, 64, 86
1, 50995, Control_c, 0, 67, 105
1, 51000, Note_off_c, 0, 70, 64
1, 51009, Note_on_c, 0, 71, 52
1, 51010, Control_c, 0, 64, 100
1, 51010, Control_c, 0, 67, 104
1, 51016, Note_on_c, 0, 53, 63
1, 51025, Control_c, 0, 64, 117
1, 51025, Control_c, 0, 67, 103
1, 51030, Note_off_c, 0, 76, 62
1, 51039, Control_c, 0, 64, 127
1, 51039, Control_c, 0, 67, 102
1, 51042, Note_off_c, 0, 53, 68
1, 51046, Note_off_c, 0, 64, 58
1, 51054, Control_c, 0, 67, 99
1, 51069, Control_c, 0, 67, 96
1, 51069, Note_off_c, 0, 71, 0
1, 51069, Note_on_c, 0, 71, 23
1, 51083, Control_c, 0, 67, 93
1, 51098, Control_c, 0, 67, 91
1, 51099, Note_on_c, 0, 57, 68
1, 51113, Control_c, 0, 67, 89
1, 51128, Control_c, 0, 67, 87
1, 51143, Control_c, 0, 67, 85
1, 51148, Note_off_c, 0, 57, 59
1, 51157, Control_c, 0, 67, 81
1, 51159, Note_on_c, 0, 59, 71
1, 51172, Control_c, 0, 67, 79
1, 51187, Control_c, 0, 67, 77
1, 51201, Note_off_c, 0, 59, 59
1, 51202, Control_c, 0, 67, 75
1, 51217, Control_c, 0, 67, 73
1, 51228, Note_on_c, 0, 65, 71
1, 51231, Control_c, 0, 67, 70
1, 51232, Note_on_c, 0, 81, 79
1, 51238, Note_on_c, 0, 74, 67
1, 51246, Control_c, 0, 67, 66
1, 51254, Note_off_c, 0, 81, 66
1, 51260, Note_on_c, 0, 69, 30
1, 51261, Control_c, 0, 67, 62
1, 51263, Note_off_c, 0, 74, 70
1, 51266, Note_off_c, 0, 71, 47
1, 51276, Control_c, 0, 67, 60
1, 51297, Note_on_c, 0, 59, 52
1, 51298, Control_c, 0, 67, 58
1, 51303, Note_off_c, 0, 69, 52
1, 51311, Note_off_c, 0, 65, 58
1, 51313, Control_c, 0, 67, 58
1, 51357, Note_on_c, 0, 57, 68
1, 51372, Control_c, 0, 67, 59
1, 51387, Control_c, 0, 67, 59
1, 51394, Note_off_c, 0, 59, 58
1, 51401, Note_on_c, 0, 53, 54
1, 51401, Note_off_c, 0, 57, 61
1, 51402, Control_c, 0, 67, 60
1, 51417, Control_c, 0, 67, 60
1, 51429, Note_off_c, 0, 53, 59
1, 51431, Control_c, 0, 67, 61
1, 51446, Control_c, 0, 67, 61
1, 51461, Control_c, 0, 67, 62
1, 51476, Control_c, 0, 67, 63
1, 51490, Control_c, 0, 67, 64
1, 51497, Note_on_c, 0, 51, 72
1, 51505, Control_c, 0, 64, 105
1, 51505, Control_c, 0, 67, 64
1, 51514, Note_on_c, 0, 58, 72
1, 51517, Note_on_c, 0, 79, 75
1, 51517, Note_on_c, 0, 85, 85
1, 51520, Control_c, 0, 64, 86
1, 51520, Control_c, 0, 67, 65
1, 51527, Note_on_c, 0, 73, 67
1, 51535, Control_c, 0, 64, 73
1, 51550, Control_c, 0, 64, 68
1, 51550, Control_c, 0, 67, 66
1, 51558, Note_off_c, 0, 51, 64
1, 51561, Note_off_c, 0, 58, 58
1, 51564, Control_c, 0, 64, 69
1, 51579, Control_c, 0, 64, 75
1, 51594, Control_c, 0, 64, 84
1, 51598, Note_on_c, 0, 63, 44
1, 51609, Control_c, 0, 64, 97
1, 51624, Control_c, 0, 64, 116
1, 51627, Note_off_c, 0, 63, 55
1, 51639, Control_c, 0, 64, 127
1, 51639, Control_c, 0, 67, 65
1, 51644, Note_off_c, 0, 73, 62
1, 51654, Control_c, 0, 67, 64
1, 51661, Note_on_c, 0, 65, 73
1, 51669, Control_c, 0, 67, 63
1, 51671, Note_off_c, 0, 85, 62
1, 51683, Control_c, 0, 67, 62
1, 51698, Control_c, 0, 67, 61
1, 51709, Note_on_c, 0, 67, 63
1, 51713, Control_c, 0, 67, 60
1, 51728, Control_c, 0, 67, 59
1, 51737, Note_off_c, 0, 65, 63
1, 51742, Note_off_c, 0, 67, 64
1, 51743, Control_c, 0, 67, 58
1, 51757, Note_on_c, 0, 73, 86
1, 51758, Control_c, 0, 67, 58
1, 51773, Control_c, 0, 67, 57
1, 51776, Note_on_c, 0, 87, 94
1, 51777, Note_on_c, 0, 82, 87
1, 51785, Note_on_c, 0, 75, 74
1, 51788, Control_c, 0, 67, 55
1, 51803, Control_c, 0, 67, 52
1, 51809, Note_off_c, 0, 79, 60
1, 51818, Control_c, 0, 67, 48
1, 51821, Note_on_c, 0, 67, 61
1, 51821, Note_off_c, 0, 73, 64
1, 51833, Control_c, 0, 67, 41
1, 51839, Note_off_c, 0, 82, 58
1, 51847, Control_c, 0, 67, 33
1, 51862, Control_c, 0, 67, 21
1, 51874, Note_off_c, 0, 87, 62
1, 51876, Note_on_c, 0, 65, 57
1, 51877, Control_c, 0, 67, 9
1, 51892, Control_c, 0, 67, 0
1, 51894, Note_off_c, 0, 75, 57
1, 51916, Note_on_c, 0, 63, 78
1, 51925, Note_off_c, 0, 67, 62
1, 51943, Note_off_c, 0, 65, 62
1, 51967, Note_off_c, 0, 63, 62
1, 52010, Control_c, 0, 64, 107
1, 52025, Control_c, 0, 64, 86
1, 52036, Note_on_c, 0, 55, 76
1, 52047, Note_on_c, 0, 88, 90
1, 52047, Control_c, 0, 64, 72
1, 52049, Note_on_c, 0, 62, 64
1, 52050, Note_on_c, 0, 83, 80
1, 52051, Note_on_c, 0, 76, 81
1, 52062, Control_c, 0, 64, 69
1, 52077, Note_off_c, 0, 55, 64
1, 52077, Control_c, 0, 64, 72
1, 52086, Note_off_c, 0, 62, 62
1, 52092, Control_c, 0, 64, 78
1, 52104, Note_on_c, 0, 65, 72
1, 52107, Control_c, 0, 64, 90
1, 52121, Control_c, 0, 64, 114
1, 52122, Note_off_c, 0, 88, 64
1, 52131, Note_off_c, 0, 65, 66
1, 52134, Note_off_c, 0, 76, 59
1, 52136, Control_c, 0, 64, 127
1, 52181, Note_on_c, 0, 69, 79
1, 52232, Note_on_c, 0, 71, 77
1, 52249, Note_off_c, 0, 69, 60
1, 52290, Note_off_c, 0, 83, 61
1, 52293, Note_off_c, 0, 71, 62
1, 52303, Note_on_c, 0, 77, 83
1, 52304, Note_on_c, 0, 86, 55
1, 52309, Note_on_c, 0, 81, 84
1, 52315, Note_on_c, 0, 93, 87
1, 52326, Note_on_c, 0, 83, 38
1, 52346, Note_off_c, 0, 86, 65
1, 52356, Note_off_c, 0, 83, 53
1, 52357, Note_off_c, 0, 81, 63
1, 52366, Note_off_c, 0, 93, 66
1, 52370, Note_on_c, 0, 71, 59
1, 52385, Note_off_c, 0, 77, 60
1, 52396, Note_on_c, 0, 70, 73
1, 52444, Note_off_c, 0, 71, 64
1, 52450, Note_off_c, 0, 70, 65
1, 52453, Note_on_c, 0, 69, 43
1, 52455, Note_on_c, 0, 65, 64
1, 52476, Note_off_c, 0, 65, 65
1, 52480, Note_off_c, 0, 69, 57
1, 52550, Note_on_c, 0, 63, 77
1, 52551, Control_c, 0, 64, 96
1, 52557, Note_on_c, 0, 91, 88
1, 52559, Note_on_c, 0, 97, 91
1, 52561, Note_on_c, 0, 85, 89
1, 52562, Note_on_c, 0, 70, 76
1, 52566, Control_c, 0, 64, 74
1, 52581, Control_c, 0, 64, 61
1, 52596, Control_c, 0, 64, 59
1, 52600, Note_off_c, 0, 63, 61
1, 52603, Note_off_c, 0, 70, 61
1, 52610, Control_c, 0, 64, 68
1, 52625, Control_c, 0, 64, 78
1, 52631, Note_on_c, 0, 75, 66
1, 52640, Control_c, 0, 64, 96
1, 52640, Note_off_c, 0, 85, 63
1, 52643, Note_off_c, 0, 97, 65
1, 52654, Control_c, 0, 64, 127
1, 52656, Note_off_c, 0, 75, 68
1, 52703, Note_on_c, 0, 77, 80
1, 52704, Note_on_c, 0, 99, 96
1, 52709, Note_on_c, 0, 87, 85
1, 52710, Note_on_c, 0, 94, 83
1, 52743, Note_off_c, 0, 91, 63
1, 52744, Note_on_c, 0, 79, 67
1, 52763, Note_off_c, 0, 87, 62
1, 52765, Note_off_c, 0, 99, 65
1, 52783, Note_off_c, 0, 77, 62
1, 52788, Note_off_c, 0, 79, 61
1, 52791, Note_off_c, 0, 94, 61
1, 52803, Note_on_c, 0, 85, 89
1, 52820, Note_on_c, 0, 91, 92
1, 52830, Note_on_c, 0, 97, 91
1, 52852, Note_off_c, 0, 85, 65
1, 52862, Note_on_c, 0, 79, 60
1, 52871, Note_on_c, 0, 94, 18
1, 52871, Note_off_c, 0, 91, 65
1, 52882, Note_off_c, 0, 97, 65
1, 52912, Note_on_c, 0, 77, 66
1, 52914, Note_off_c, 0, 94, 0
1, 52918, Note_on_c, 0, 78, 11
1, 52926, Note_on_c, 0, 94, 75
1, 52938, Note_on_c, 0, 99, 95
1, 52952, Note_on_c, 0, 75, 76
1, 52954, Note_off_c, 0, 79, 62
1, 52968, Note_off_c, 0, 77, 63
1, 52968, Note_off_c, 0, 78, 51
1, 52971, Note_off_c, 0, 94, 66
1, 52989, Note_off_c, 0, 75, 60
1, 52995, Note_off_c, 0, 99, 66
1, 53017, Control_c, 0, 64, 94
1, 53032, Control_c, 0, 64, 73
1, 53047, Control_c, 0, 64, 63
1, 53048, Note_on_c, 0, 67, 83
1, 53053, Note_on_c, 0, 74, 81
1, 53054, Note_on_c, 0, 95, 101
1, 53055, Note_on_c, 0, 100, 97
1, 53058, Note_on_c, 0, 88, 91
1, 53061, Control_c, 0, 64, 64
1, 53075, Note_off_c, 0, 67, 62
1, 53076, Control_c, 0, 64, 70
1, 53087, Note_off_c, 0, 88, 65
1, 53091, Note_off_c, 0, 74, 63
1, 53091, Control_c, 0, 64, 86
1, 53099, Note_off_c, 0, 95, 66
1, 53102, Note_off_c, 0, 100, 65
1, 53106, Control_c, 0, 64, 127
1, 53119, Note_on_c, 0, 77, 68
1, 53137, Note_off_c, 0, 77, 67
1, 53177, Note_on_c, 0, 81, 83
1, 53234, Note_on_c, 0, 83, 73
1, 53235, Note_off_c, 0, 81, 61
1, 53299, Note_on_c, 0, 89, 83
1, 53301, Note_on_c, 0, 105, 102
1, 53302, Note_on_c, 0, 98, 100
1, 53303, Note_on_c, 0, 93, 96
1, 53308, Note_off_c, 0, 83, 0
1, 53330, Note_on_c, 0, 83, 38
1, 53334, Note_on_c, 0, 88, 41
1, 53336, Note_off_c, 0, 93, 68
1, 53337, Note_off_c, 0, 98, 66
1, 53337, Note_off_c, 0, 105, 61
1, 53355, Note_off_c, 0, 89, 64
1, 53359, Note_off_c, 0, 88, 58
1, 53400, Note_on_c, 0, 81, 74
1, 53421, Note_off_c, 0, 83, 65
1, 53425, Note_off_c, 0, 81, 66
1, 53427, Note_on_c, 0, 77, 80
1, 53446, Note_off_c, 0, 77, 72
1, 53558, Note_on_c, 0, 79, 88
1, 53558, Control_c, 0, 64, 92
1, 53561, Note_on_c, 0, 75, 90
1, 53564, Note_on_c, 0, 86, 79
1, 53565, Note_on_c, 0, 70, 86
1, 53573, Note_on_c, 0, 63, 64
1, 53573, Control_c, 0, 64, 71
1, 53588, Control_c, 0, 64, 63
1, 53591, Note_on_c, 0, 87, 78
1, 53591, Note_off_c, 0, 70, 65
1, 53594, Note_on_c, 0, 91, 78
1, 53598, Note_off_c, 0, 63, 64
1, 53599, Note_off_c, 0, 75, 63
1, 53603, Note_off_c, 0, 79, 63
1, 53603, Control_c, 0, 64, 66
1, 53618, Control_c, 0, 64, 73
1, 53620, Note_off_c, 0, 86, 68
1, 53633, Control_c, 0, 64, 86
1, 53638, Note_off_c, 0, 87, 65
1, 53641, Note_off_c, 0, 91, 66
1, 53648, Control_c, 0, 64, 118
1, 53663, Control_c, 0, 64, 127
1, 53663, Note_on_c, 0, 79, 76
1, 53701, Note_off_c, 0, 79, 57
1, 53702, Note_on_c, 0, 86, 60
1, 53715, Note_on_c, 0, 87, 57
1, 53722, Note_off_c, 0, 86, 65
1, 53725, Note_on_c, 0, 91, 68
1, 53735, Note_off_c, 0, 87, 63
1, 53741, Note_off_c, 0, 91, 68
1, 53761, Note_on_c, 0, 79, 68
1, 53797, Note_on_c, 0, 87, 81
1, 53797, Note_off_c, 0, 79, 58
1, 53806, Note_on_c, 0, 91, 77
1, 53815, Note_on_c, 0, 86, 48
1, 53831, Note_off_c, 0, 87, 62
1, 53836, Note_on_c, 0, 94, 108
1, 53837, Note_off_c, 0, 86, 59
1, 53844, Note_off_c, 0, 91, 62
1, 53854, Note_on_c, 0, 79, 76
1, 53863, Note_off_c, 0, 94, 68
1, 53895, Note_off_c, 0, 79, 61
1, 53910, Note_on_c, 0, 87, 77
1, 53913, Note_on_c, 0, 91, 77
1, 53931, Note_on_c, 0, 86, 47
1, 53933, Note_off_c, 0, 87, 71
1, 53938, Note_off_c, 0, 91, 65
1, 53953, Note_on_c, 0, 79, 74
1, 53956, Note_off_c, 0, 86, 59
1, 54000, Note_off_c, 0, 79, 60
1, 54005, Note_on_c, 0, 87, 75
1, 54012, Note_on_c, 0, 91, 75
1, 54026, Note_off_c, 0, 87, 72
1, 54032, Note_off_c, 0, 91, 70
1, 54049, Note_on_c, 0, 79, 74
1, 54077, Poly_aftertouch_c, 0, 86, 127
1, 54095, Note_on_c, 0, 87, 83
1, 54100, Note_off_c, 0, 79, 61
1, 54106, Note_on_c, 0, 91, 83
1, 54119, Note_off_c, 0, 87, 69
1, 54125, Note_off_c, 0, 91, 70
1, 54143, Poly_aftertouch_c, 0, 86, 0
1, 54146, Note_on_c, 0, 79, 70
1, 54191, Note_off_c, 0, 79, 61
1, 54201, Note_on_c, 0, 86, 50
1, 54202, Note_on_c, 0, 91, 84
1, 54202, Note_on_c, 0, 87, 67
1, 54219, Note_off_c, 0, 87, 68
1, 54220, Note_off_c, 0, 91, 73
1, 54223, Note_off_c, 0, 86, 61
1, 54241, Note_on_c, 0, 79, 76
1, 54290, Note_on_c, 0, 87, 75
1, 54294, Note_off_c, 0, 79, 61
1, 54300, Note_on_c, 0, 91, 75
1, 54313, Note_off_c, 0, 87, 71
1, 54318, Note_on_c, 0, 86, 17
1, 54319, Note_off_c, 0, 91, 72
1, 54336, Note_on_c, 0, 79, 71
1, 54379, Note_on_c, 0, 87, 64
1, 54380, Note_off_c, 0, 79, 61
1, 54381, Note_on_c, 0, 91, 67
1, 54396, Note_off_c, 0, 87, 67
1, 54402, Note_off_c, 0, 86, 47
1, 54405, Note_off_c, 0, 91, 69
1, 54420, Note_on_c, 0, 79, 71
1, 54447, Note_on_c, 0, 86, 37
1, 54455, Note_on_c, 0, 87, 75
1, 54463, Note_off_c, 0, 79, 63
1, 54469, Note_on_c, 0, 91, 67
1, 54477, Note_off_c, 0, 86, 58
1, 54477, Note_off_c, 0, 87, 71
1, 54494, Note_off_c, 0, 91, 68
1, 54509, Note_on_c, 0, 79, 72
1, 54546, Note_on_c, 0, 87, 67
1, 54547, Note_off_c, 0, 79, 60
1, 54552, Note_on_c, 0, 86, 37
1, 54566, Note_on_c, 0, 91, 58
1, 54572, Note_off_c, 0, 87, 66
1, 54578, Note_on_c, 0, 75, 97
1, 54583, Note_on_c, 0, 82, 99
1, 54583, Note_off_c, 0, 91, 62
1, 54584, Poly_aftertouch_c, 0, 79, 0
1, 54591, Note_on_c, 0, 79, 77
1, 54608, Note_off_c, 0, 86, 0
1, 54612, Note_off_c, 0, 75, 69
1, 54615, Note_off_c, 0, 82, 60
1, 54624, Note_on_c, 0, 86, 32
1, 54630, Note_off_c, 0, 79, 64
1, 54640, Note_on_c, 0, 87, 54
1, 54658, Note_off_c, 0, 86, 54
1, 54669, Note_off_c, 0, 87, 58
1, 54671, Note_on_c, 0, 91, 20
1, 54678, Note_on_c, 0, 79, 79
1, 54691, Note_on_c, 0, 81, 56
1, 54693, Note_on_c, 0, 86, 61
1, 54698, Note_on_c, 0, 87, 60
1, 54709, Note_off_c, 0, 79, 62
1, 54710, Note_off_c, 0, 81, 62
1, 54714, Note_off_c, 0, 86, 66
1, 54726, Note_off_c, 0, 87, 68
1, 54754, Note_on_c, 0, 79, 78
1, 54758, Note_off_c, 0, 91, 0
1, 54777, Note_on_c, 0, 91, 51
1, 54778, Note_on_c, 0, 86, 73
1, 54781, Note_on_c, 0, 87, 84
1, 54795, Note_off_c, 0, 79, 64
1, 54799, Note_off_c, 0, 86, 72
1, 54802, Note_off_c, 0, 87, 70
1, 54817, Note_off_c, 0, 91, 65
1, 54843, Note_on_c, 0, 79, 71
1, 54873, Note_on_c, 0, 87, 74
1, 54875, Note_on_c, 0, 91, 61
1, 54877, Note_on_c, 0, 94, 116
1, 54878, Note_off_c, 0, 79, 61
1, 54879, Note_on_c, 0, 86, 61
1, 54896, Note_off_c, 0, 87, 72
1, 54899, Note_off_c, 0, 86, 66
1, 54901, Note_off_c, 0, 91, 68
1, 54903, Note_off_c, 0, 94, 72
1, 54929, Note_on_c, 0, 79, 71
1, 54969, Note_off_c, 0, 79, 62
1, 54974, Note_on_c, 0, 87, 57
1, 54975, Note_on_c, 0, 91, 68
1, 54993, Note_off_c, 0, 87, 63
1, 54998, Note_off_c, 0, 91, 69
1, 55004, Poly_aftertouch_c, 0, 79, 0
1, 55012, Note_on_c, 0, 79, 73
1, 55039, Note_on_c, 0, 86, 36
1, 55063, Note_off_c, 0, 79, 63
1, 55066, Note_on_c, 0, 87, 62
1, 55076, Note_off_c, 0, 86, 48
1, 55086, Note_off_c, 0, 87, 64
1, 55103, Note_on_c, 0, 79, 75
1, 55112, Note_on_c, 0, 91, 14
1, 55136, Note_on_c, 0, 86, 18
1, 55138, Note_off_c, 0, 91, 0
1, 55171, Note_off_c, 0, 79, 0
1, 55174, Note_on_c, 0, 87, 41
1, 55176, Poly_aftertouch_c, 0, 91, 127
1, 55177, Note_on_c, 0, 91, 6
1, 55185, Note_on_c, 0, 79, 65
1, 55200, Note_off_c, 0, 91, 50
1, 55204, Note_off_c, 0, 87, 34
1, 55222, Note_off_c, 0, 86, 0
1, 55237, Note_on_c, 0, 87, 67
1, 55243, Note_off_c, 0, 79, 63
1, 55245, Note_on_c, 0, 91, 58
1, 55258, Poly_aftertouch_c, 0, 86, 127
1, 55262, Note_off_c, 0, 87, 69
1, 55272, Note_off_c, 0, 91, 67
1, 55304, Note_on_c, 0, 79, 64
1, 55311, Note_on_c, 0, 77, 55
1, 55331, Note_off_c, 0, 79, 65
1, 55333, Note_off_c, 0, 77, 62
1, 55335, Note_on_c, 0, 87, 74
1, 55338, Note_on_c, 0, 91, 80
1, 55358, Poly_aftertouch_c, 0, 86, 0
1, 55358, Note_off_c, 0, 87, 71
1, 55371, Note_off_c, 0, 91, 63
1, 55388, Note_on_c, 0, 79, 77
1, 55419, Note_off_c, 0, 79, 63
1, 55422, Note_on_c, 0, 87, 74
1, 55423, Note_on_c, 0, 91, 64
1, 55446, Note_off_c, 0, 87, 70
1, 55456, Note_off_c, 0, 91, 66
1, 55478, Note_on_c, 0, 79, 78
1, 55487, Note_on_c, 0, 86, 44
1, 55502, Note_on_c, 0, 87, 83
1, 55502, Note_off_c, 0, 79, 63
1, 55514, Note_on_c, 0, 91, 63
1, 55540, Note_off_c, 0, 91, 65
1, 55550, Note_off_c, 0, 87, 62
1, 55553, Note_on_c, 0, 79, 86
1, 55571, Note_off_c, 0, 86, 39
1, 55603, Note_on_c, 0, 82, 93
1, 55603, Note_off_c, 0, 79, 61
1, 55609, Note_on_c, 0, 75, 93
1, 55641, Note_off_c, 0, 82, 67
1, 55644, Note_off_c, 0, 75, 63
1, 55707, Note_on_c, 0, 79, 87
1, 55758, Note_on_c, 0, 86, 81
1, 55816, Note_on_c, 0, 91, 83
1, 55818, Note_on_c, 0, 87, 57
1, 55825, Note_off_c, 0, 79, 56
1, 55845, Note_off_c, 0, 87, 65
1, 55847, Note_off_c, 0, 86, 65
1, 55871, Note_off_c, 0, 91, 66
1, 55872, Note_on_c, 0, 94, 104
1, 55881, Note_on_c, 0, 87, 96
1, 55910, Note_off_c, 0, 94, 68
1, 55929, Note_off_c, 0, 87, 67
1, 55941, Note_on_c, 0, 91, 86
1, 56015, Note_on_c, 0, 86, 68
1, 56020, Note_off_c, 0, 91, 61
1, 56056, Note_on_c, 0, 79, 77
1, 56062, Note_off_c, 0, 86, 66
1, 56098, Note_off_c, 0, 79, 62
1, 56124, Note_on_c, 0, 82, 78
1, 56125, Note_on_c, 0, 75, 86
1, 56146, Note_off_c, 0, 82, 69
1, 56165, Note_off_c, 0, 75, 65
1, 56194, Note_on_c, 0, 79, 83
1, 56258, Note_off_c, 0, 79, 60
1, 56262, Note_on_c, 0, 74, 71
1, 56306, Note_on_c, 0, 67, 76
1, 56310, Note_off_c, 0, 74, 66
1, 56335, Note_off_c, 0, 67, 64
1, 56365, Note_on_c, 0, 63, 90
1, 56372, Note_on_c, 0, 70, 62
1, 56398, Note_off_c, 0, 70, 65
1, 56405, Note_off_c, 0, 63, 61
1, 56434, Note_on_c, 0, 67, 79
1, 56495, Note_on_c, 0, 62, 70
1, 56503, Note_off_c, 0, 67, 56
1, 56516, Note_on_c, 0, 64, 48
1, 56550, Note_off_c, 0, 64, 61
1, 56552, Note_on_c, 0, 55, 74
1, 56570, Note_off_c, 0, 62, 58
1, 56596, Note_off_c, 0, 55, 63
1, 56611, Note_on_c, 0, 58, 89
1, 56613, Note_on_c, 0, 51, 88
1, 56651, Note_off_c, 0, 58, 65
1, 56653, Note_off_c, 0, 51, 64
1, 56670, Note_on_c, 0, 55, 64
1, 56721, Note_on_c, 0, 62, 71
1, 56741, Note_off_c, 0, 55, 60
1, 56779, Note_on_c, 0, 67, 80
1, 56800, Note_off_c, 0, 62, 62
1, 56823, Note_off_c, 0, 67, 60
1, 56854, Note_on_c, 0, 63, 83
1, 56856, Note_on_c, 0, 70, 92
1, 56884, Note_off_c, 0, 63, 64
1, 56891, Note_off_c, 0, 70, 63
1, 56905, Note_on_c, 0, 67, 68
1, 56957, Note_on_c, 0, 74, 82
1, 56978, Note_off_c, 0, 67, 58
1, 57023, Note_on_c, 0, 79, 84
1, 57041, Note_off_c, 0, 74, 66
1, 57064, Note_off_c, 0, 79, 65
1, 57088, Note_on_c, 0, 75, 88
1, 57091, Note_on_c, 0, 82, 96
1, 57113, Note_off_c, 0, 82, 64
1, 57119, Note_off_c, 0, 75, 60
1, 57162, Note_on_c, 0, 79, 63
1, 57169, Note_on_c, 0, 77, 48
1, 57194, Note_off_c, 0, 77, 59
1, 57195, Note_on_c, 0, 86, 77
1, 57205, Note_off_c, 0, 79, 53
1, 57258, Note_on_c, 0, 91, 83
1, 57292, Note_off_c, 0, 86, 64
1, 57319, Note_off_c, 0, 91, 66
1, 57326, Note_on_c, 0, 94, 88
1, 57330, Note_on_c, 0, 87, 92
1, 57341, Note_off_c, 0, 94, 74
1, 57359, Note_off_c, 0, 87, 59
1, 57404, Note_on_c, 0, 91, 77
1, 57455, Note_on_c, 0, 86, 79
1, 57471, Note_off_c, 0, 91, 61
1, 57505, Note_on_c, 0, 79, 80
1, 57525, Note_off_c, 0, 86, 60
1, 57548, Note_off_c, 0, 79, 63
1, 57574, Note_on_c, 0, 75, 89
1, 57576, Note_on_c, 0, 82, 92
1, 57594, Note_off_c, 0, 75, 67
1, 57599, Control_c, 0, 67, 8
1, 57603, Note_off_c, 0, 82, 62
1, 57614, Control_c, 0, 67, 12
1, 57629, Control_c, 0, 67, 19
1, 57644, Control_c, 0, 67, 31
1, 57651, Note_on_c, 0, 79, 66
1, 57658, Control_c, 0, 67, 43
1, 57673, Control_c, 0, 67, 53
1, 57688, Control_c, 0, 67, 60
1, 57693, Note_on_c, 0, 86, 72
1, 57703, Control_c, 0, 67, 65
1, 57708, Note_off_c, 0, 79, 57
1, 57718, Control_c, 0, 67, 70
1, 57732, Control_c, 0, 67, 77
1, 57747, Control_c, 0, 67, 83
1, 57759, Note_on_c, 0, 91, 71
1, 57762, Control_c, 0, 67, 88
1, 57769, Note_off_c, 0, 86, 61
1, 57777, Control_c, 0, 67, 93
1, 57792, Control_c, 0, 67, 98
1, 57797, Note_off_c, 0, 91, 60
1, 57806, Control_c, 0, 67, 103
1, 57821, Control_c, 0, 67, 108
1, 57828, Note_on_c, 0, 94, 76
1, 57830, Note_on_c, 0, 87, 80
1, 57836, Control_c, 0, 67, 112
1, 57848, Note_off_c, 0, 94, 70
1, 57851, Control_c, 0, 67, 115
1, 57866, Control_c, 0, 67, 117
1, 57873, Note_off_c, 0, 87, 60
1, 57881, Control_c, 0, 67, 118
1, 57896, Control_c, 0, 67, 119
1, 57901, Note_on_c, 0, 91, 65
1, 57911, Control_c, 0, 67, 119
1, 57934, Note_off_c, 0, 91, 56
1, 57955, Note_on_c, 0, 86, 63
1, 58009, Note_on_c, 0, 79, 67
1, 58011, Note_off_c, 0, 86, 62
1, 58043, Note_off_c, 0, 79, 65
1, 58098, Note_on_c, 0, 75, 66
1, 58098, Note_on_c, 0, 82, 67
1, 58125, Note_off_c, 0, 75, 68
1, 58129, Note_off_c, 0, 82, 64
1, 58170, Note_on_c, 0, 79, 58
1, 58216, Note_on_c, 0, 86, 61
1, 58236, Note_off_c, 0, 79, 52
1, 58290, Note_on_c, 0, 91, 62
1, 58296, Note_off_c, 0, 86, 57
1, 58322, Note_off_c, 0, 91, 64
1, 58373, Note_on_c, 0, 87, 69
1, 58373, Note_on_c, 0, 94, 66
1, 58396, Note_off_c, 0, 94, 65
1, 58424, Note_off_c, 0, 87, 62
1, 58434, Note_on_c, 0, 91, 58
1, 58480, Note_off_c, 0, 91, 45
1, 58481, Control_c, 0, 67, 119
1, 58496, Control_c, 0, 67, 118
1, 58509, Note_on_c, 0, 86, 56
1, 58526, Control_c, 0, 67, 118
1, 58541, Control_c, 0, 67, 117
1, 58568, Note_on_c, 0, 79, 58
1, 58577, Note_off_c, 0, 86, 57
1, 58599, Note_off_c, 0, 79, 63
1, 58614, Control_c, 0, 67, 117
1, 58661, Note_on_c, 0, 82, 59
1, 58662, Note_on_c, 0, 75, 55
1, 58697, Note_off_c, 0, 75, 63
1, 58705, Note_off_c, 0, 82, 62
1, 58728, Note_on_c, 0, 79, 52
1, 58802, Note_off_c, 0, 79, 50
1, 58805, Note_on_c, 0, 86, 56
1, 58896, Note_on_c, 0, 91, 56
1, 58910, Note_off_c, 0, 86, 57
1, 58923, Note_off_c, 0, 91, 54
1, 58978, Control_c, 0, 67, 117
1, 58987, Note_on_c, 0, 87, 69
1, 58999, Note_on_c, 0, 94, 51
1, 59021, Note_off_c, 0, 87, 59
1, 59021, Note_off_c, 0, 94, 64
1, 59142, Control_c, 0, 67, 117
1, 59166, Note_on_c, 0, 86, 53
1, 59201, Control_c, 0, 67, 116
1, 59224, Note_off_c, 0, 86, 46
1, 59275, Control_c, 0, 67, 116
1, 59355, Note_on_c, 0, 74, 63
1, 59368, Note_on_c, 0, 82, 46
1, 59383, Note_off_c, 0, 74, 68
1, 59394, Note_off_c, 0, 82, 58
1, 59534, Control_c, 0, 67, 115
1, 59572, Note_on_c, 0, 79, 44
1, 59572, Note_on_c, 0, 86, 48
1, 59616, Note_off_c, 0, 79, 45
1, 59622, Note_off_c, 0, 86, 54
1, 59816, Control_c, 0, 67, 115
1, 59853, Note_on_c, 0, 86, 44
1, 59854, Note_on_c, 0, 94, 59
1, 59866, Note_on_c, 0, 91, 35
1, 59909, Note_off_c, 0, 94, 64
1, 59911, Note_off_c, 0, 91, 44
1, 59923, Note_off_c, 0, 86, 47
1, 60068, Control_c, 0, 67, 115
1, 60112, Control_c, 0, 67, 116
1, 60163, Note_on_c, 0, 86, 35
1, 60171, Note_on_c, 0, 79, 38
1, 60186, Control_c, 0, 67, 117
1, 60191, Note_off_c, 0, 86, 52
1, 60203, Note_off_c, 0, 79, 52
1, 60624, Control_c, 0, 64, 118
1, 60639, Control_c, 0, 64, 109
1, 60654, Control_c, 0, 64, 103
1, 60659, Note_on_c, 0, 87, 62
1, 60668, Control_c, 0, 64, 98
1, 60676, Note_on_c, 0, 83, 57
1, 60677, Note_on_c, 0, 80, 47
1, 60683, Control_c, 0, 64, 91
1, 60688, Note_on_c, 0, 73, 40
1, 60698, Control_c, 0, 64, 82
1, 60713, Control_c, 0, 64, 75
1, 60728, Control_c, 0, 64, 68
1, 60742, Control_c, 0, 64, 63
1, 60757, Control_c, 0, 64, 59
1, 60772, Control_c, 0, 64, 58
1, 60802, Control_c, 0, 64, 59
1, 60817, Control_c, 0, 64, 62
1, 60817, Control_c, 0, 67, 116
1, 60832, Control_c, 0, 64, 65
1, 60839, Note_on_c, 0, 82, 54
1, 60847, Control_c, 0, 64, 69
1, 60847, Control_c, 0, 67, 116
1, 60847, Note_on_c, 0, 77, 41
1, 60861, Control_c, 0, 64, 73
1, 60861, Control_c, 0, 67, 115
1, 60876, Control_c, 0, 64, 78
1, 60880, Note_off_c, 0, 73, 40
1, 60891, Control_c, 0, 64, 83
1, 60894, Note_off_c, 0, 80, 44
1, 60902, Note_off_c, 0, 77, 44
1, 60906, Control_c, 0, 64, 90
1, 60918, Note_off_c, 0, 82, 38
1, 60921, Control_c, 0, 64, 97
1, 60935, Control_c, 0, 64, 101
1, 60950, Control_c, 0, 64, 104
1, 60950, Control_c, 0, 67, 115
1, 60954, Note_off_c, 0, 83, 56
1, 60965, Control_c, 0, 64, 107
1, 60970, Note_on_c, 0, 89, 76
1, 60978, Note_on_c, 0, 85, 57
1, 60980, Control_c, 0, 64, 109
1, 60983, Note_on_c, 0, 82, 46
1, 60994, Control_c, 0, 64, 110
1, 61017, Control_c, 0, 64, 111
1, 61018, Note_on_c, 0, 77, 36
1, 61031, Note_off_c, 0, 87, 60
1, 61032, Control_c, 0, 64, 111
1, 61032, Control_c, 0, 67, 114
1, 61046, Control_c, 0, 64, 112
1, 61068, Note_off_c, 0, 85, 55
1, 61076, Note_off_c, 0, 77, 40
1, 61088, Note_off_c, 0, 89, 63
1, 61122, Note_on_c, 0, 80, 55
1, 61141, Note_on_c, 0, 73, 46
1, 61150, Control_c, 0, 64, 111
1, 61160, Note_off_c, 0, 80, 62
1, 61160, Note_off_c, 0, 82, 33
1, 61166, Note_off_c, 0, 73, 57
1, 61180, Control_c, 0, 64, 110
1, 61194, Control_c, 0, 64, 109
1, 61209, Control_c, 0, 64, 108
1, 61224, Control_c, 0, 64, 106
1, 61239, Control_c, 0, 64, 103
1, 61254, Control_c, 0, 64, 99
1, 61261, Note_on_c, 0, 85, 64
1, 61268, Control_c, 0, 64, 94
1, 61278, Note_on_c, 0, 78, 52
1, 61282, Note_on_c, 0, 81, 55
1, 61283, Control_c, 0, 64, 88
1, 61291, Note_on_c, 0, 71, 38
1, 61299, Control_c, 0, 64, 82
1, 61299, Control_c, 0, 67, 115
1, 61314, Control_c, 0, 64, 74
1, 61329, Note_off_c, 0, 81, 0
1, 61329, Note_on_c, 0, 81, 11
1, 61329, Control_c, 0, 64, 68
1, 61329, Control_c, 0, 67, 115
1, 61344, Control_c, 0, 64, 65
1, 61355, Note_off_c, 0, 71, 39
1, 61359, Control_c, 0, 64, 64
1, 61403, Control_c, 0, 67, 116
1, 61416, Note_on_c, 0, 80, 57
1, 61417, Control_c, 0, 64, 65
1, 61428, Note_on_c, 0, 75, 51
1, 61432, Control_c, 0, 64, 67
1, 61436, Note_off_c, 0, 85, 55
1, 61443, Note_off_c, 0, 81, 49
1, 61447, Control_c, 0, 64, 71
1, 61451, Note_off_c, 0, 78, 59
1, 61458, Note_off_c, 0, 80, 59
1, 61462, Control_c, 0, 64, 74
1, 61467, Note_off_c, 0, 75, 63
1, 61477, Control_c, 0, 64, 77
1, 61491, Control_c, 0, 64, 83
1, 61506, Control_c, 0, 64, 89
1, 61509, Poly_aftertouch_c, 0, 87, 127
1, 61521, Control_c, 0, 64, 94
1, 61536, Control_c, 0, 64, 98
1, 61546, Note_on_c, 0, 92, 71
1, 61551, Control_c, 0, 64, 100
1, 61558, Note_on_c, 0, 81, 48
1, 61565, Control_c, 0, 64, 103
1, 61568, Note_on_c, 0, 75, 59
1, 61580, Note_on_c, 0, 80, 53
1, 61580, Control_c, 0, 64, 104
1, 61595, Control_c, 0, 64, 105
1, 61607, Note_off_c, 0, 92, 63
1, 61610, Control_c, 0, 64, 108
1, 61613, Poly_aftertouch_c, 0, 87, 0
1, 61618, Note_off_c, 0, 80, 47
1, 61625, Control_c, 0, 64, 113
1, 61625, Control_c, 0, 67, 115
1, 61629, Note_off_c, 0, 75, 46
1, 61640, Control_c, 0, 64, 115
1, 61655, Control_c, 0, 67, 115
1, 61666, Note_off_c, 0, 81, 32
1, 61696, Note_on_c, 0, 85, 68
1, 61701, Note_on_c, 0, 71, 49
1, 61701, Note_on_c, 0, 78, 55
1, 61723, Note_off_c, 0, 71, 61
1, 61735, Note_off_c, 0, 78, 65
1, 61754, Note_off_c, 0, 85, 62
1, 61854, Note_on_c, 0, 87, 77
1, 61865, Note_on_c, 0, 80, 63
1, 61868, Note_on_c, 0, 73, 59
1, 61884, Control_c, 0, 64, 114
1, 61887, Note_on_c, 0, 83, 61
1, 61899, Control_c, 0, 64, 113
1, 61914, Control_c, 0, 64, 111
1, 61929, Control_c, 0, 64, 107
1, 61944, Control_c, 0, 64, 103
1, 61959, Control_c, 0, 64, 96
1, 61973, Control_c, 0, 64, 89
1, 61983, Note_off_c, 0, 73, 37
1, 61988, Control_c, 0, 64, 80
1, 62003, Control_c, 0, 64, 72
1, 62007, Note_on_c, 0, 82, 61
1, 62012, Note_on_c, 0, 77, 59
1, 62017, Control_c, 0, 64, 66
1, 62032, Control_c, 0, 64, 65
1, 62053, Note_off_c, 0, 80, 49
1, 62062, Control_c, 0, 64, 66
1, 62062, Control_c, 0, 67, 115
1, 62068, Note_off_c, 0, 82, 58
1, 62069, Note_off_c, 0, 77, 60
1, 62077, Control_c, 0, 64, 68
1, 62093, Control_c, 0, 64, 70
1, 62108, Control_c, 0, 64, 71
1, 62122, Control_c, 0, 64, 72
1, 62135, Note_on_c, 0, 89, 76
1, 62137, Control_c, 0, 64, 75
1, 62147, Note_on_c, 0, 82, 59
1, 62152, Control_c, 0, 64, 79
1, 62160, Note_on_c, 0, 85, 61
1, 62167, Control_c, 0, 64, 83
1, 62182, Control_c, 0, 64, 87
1, 62183, Note_on_c, 0, 77, 32
1, 62183, Note_off_c, 0, 83, 61
1, 62196, Control_c, 0, 64, 92
1, 62211, Control_c, 0, 64, 96
1, 62223, Note_off_c, 0, 82, 55
1, 62226, Control_c, 0, 64, 98
1, 62240, Control_c, 0, 64, 100
1, 62242, Note_off_c, 0, 87, 57
1, 62251, Note_off_c, 0, 85, 59
1, 62255, Control_c, 0, 64, 101
1, 62270, Control_c, 0, 64, 102
1, 62281, Note_on_c, 0, 80, 60
1, 62285, Control_c, 0, 64, 105
1, 62293, Note_off_c, 0, 89, 55
1, 62296, Note_on_c, 0, 73, 53
1, 62300, Control_c, 0, 64, 107
1, 62314, Control_c, 0, 64, 109
1, 62315, Note_off_c, 0, 77, 24
1, 62319, Note_off_c, 0, 73, 63
1, 62331, Note_off_c, 0, 80, 54
1, 62388, Control_c, 0, 64, 108
1, 62427, Note_on_c, 0, 85, 53
1, 62433, Control_c, 0, 64, 106
1, 62435, Note_on_c, 0, 78, 57
1, 62440, Note_on_c, 0, 81, 50
1, 62441, Note_on_c, 0, 71, 45
1, 62448, Control_c, 0, 64, 100
1, 62462, Control_c, 0, 64, 91
1, 62477, Control_c, 0, 64, 81
1, 62492, Control_c, 0, 64, 71
1, 62507, Control_c, 0, 64, 67
1, 62507, Control_c, 0, 67, 116
1, 62522, Note_off_c, 0, 78, 0
1, 62522, Note_on_c, 0, 78, 4
1, 62528, Note_off_c, 0, 71, 44
1, 62529, Control_c, 0, 64, 66
1, 62544, Control_c, 0, 64, 67
1, 62559, Control_c, 0, 64, 69
1, 62573, Control_c, 0, 64, 72
1, 62577, Note_off_c, 0, 81, 55
1, 62585, Note_on_c, 0, 80, 55
1, 62588, Control_c, 0, 64, 77
1, 62589, Note_on_c, 0, 75, 54
1, 62595, Note_off_c, 0, 85, 60
1, 62603, Control_c, 0, 64, 82
1, 62618, Control_c, 0, 64, 87
1, 62626, Note_off_c, 0, 80, 58
1, 62628, Note_off_c, 0, 75, 60
1, 62633, Control_c, 0, 64, 91
1, 62637, Note_off_c, 0, 78, 49
1, 62647, Control_c, 0, 64, 94
1, 62662, Control_c, 0, 64, 96
1, 62692, Control_c, 0, 64, 96
1, 62707, Control_c, 0, 64, 97
1, 62716, Note_on_c, 0, 92, 66
1, 62722, Control_c, 0, 64, 98
1, 62736, Note_on_c, 0, 87, 42
1, 62737, Control_c, 0, 64, 99
1, 62740, Note_on_c, 0, 75, 58
1, 62741, Note_on_c, 0, 80, 54
1, 62752, Control_c, 0, 64, 102
1, 62763, Note_off_c, 0, 92, 64
1, 62766, Control_c, 0, 64, 104
1, 62778, Note_off_c, 0, 87, 47
1, 62780, Note_off_c, 0, 80, 50
1, 62781, Control_c, 0, 67, 115
1, 62781, Note_off_c, 0, 75, 53
1, 62811, Control_c, 0, 67, 115
1, 62826, Note_on_c, 0, 81, 25
1, 62840, Control_c, 0, 67, 114
1, 62873, Note_on_c, 0, 85, 50
1, 62877, Note_on_c, 0, 71, 44
1, 62887, Note_off_c, 0, 81, 60
1, 62890, Note_on_c, 0, 78, 40
1, 62904, Note_off_c, 0, 71, 58
1, 62912, Note_off_c, 0, 85, 48
1, 62917, Note_off_c, 0, 78, 57
1, 63015, Note_on_c, 0, 87, 72
1, 63019, Control_c, 0, 64, 104
1, 63019, Control_c, 0, 67, 115
1, 63024, Note_on_c, 0, 80, 54
1, 63031, Note_on_c, 0, 73, 51
1, 63034, Control_c, 0, 64, 102
1, 63035, Note_on_c, 0, 83, 58
1, 63049, Control_c, 0, 64, 98
1, 63063, Control_c, 0, 64, 90
1, 63078, Control_c, 0, 64, 83
1, 63081, Note_off_c, 0, 73, 44
1, 63093, Control_c, 0, 64, 77
1, 63108, Control_c, 0, 64, 74
1, 63123, Control_c, 0, 64, 72
1, 63152, Control_c, 0, 64, 74
1, 63158, Note_on_c, 0, 82, 59
1, 63166, Note_on_c, 0, 77, 49
1, 63167, Control_c, 0, 64, 77
1, 63181, Control_c, 0, 64, 82
1, 63196, Control_c, 0, 64, 89
1, 63196, Control_c, 0, 67, 115
1, 63205, Note_off_c, 0, 82, 54
1, 63211, Control_c, 0, 64, 93
1, 63212, Note_off_c, 0, 77, 58
1, 63215, Note_off_c, 0, 80, 38
1, 63226, Control_c, 0, 64, 94
1, 63226, Control_c, 0, 67, 116
1, 63241, Control_c, 0, 64, 96
1, 63241, Control_c, 0, 67, 116
1, 63256, Control_c, 0, 64, 102
1, 63256, Control_c, 0, 67, 117
1, 63278, Control_c, 0, 64, 106
1, 63291, Note_off_c, 0, 83, 58
1, 63293, Control_c, 0, 64, 108
1, 63307, Note_on_c, 0, 85, 62
1, 63308, Control_c, 0, 64, 112
1, 63308, Control_c, 0, 67, 117
1, 63309, Note_on_c, 0, 89, 76
1, 63313, Note_on_c, 0, 82, 52
1, 63323, Control_c, 0, 64, 119
1, 63333, Note_on_c, 0, 77, 51
1, 63338, Control_c, 0, 64, 127
1, 63356, Note_off_c, 0, 87, 60
1, 63389, Note_off_c, 0, 85, 56
1, 63404, Note_off_c, 0, 82, 52
1, 63420, Note_off_c, 0, 89, 53
1, 63451, Note_on_c, 0, 80, 50
1, 63454, Note_on_c, 0, 73, 54
1, 63464, Note_off_c, 0, 77, 57
1, 63483, Note_off_c, 0, 73, 63
1, 63491, Note_off_c, 0, 80, 59
1, 63601, Note_on_c, 0, 85, 65
1, 63605, Note_on_c, 0, 81, 56
1, 63607, Note_on_c, 0, 71, 48
1, 63607, Note_on_c, 0, 78, 57
1, 63634, Control_c, 0, 64, 115
1, 63649, Control_c, 0, 64, 101
1, 63663, Control_c, 0, 64, 92
1, 63678, Control_c, 0, 64, 84
1, 63694, Control_c, 0, 64, 77
1, 63708, Control_c, 0, 64, 71
1, 63723, Control_c, 0, 64, 68
1, 63738, Control_c, 0, 64, 67
1, 63751, Note_on_c, 0, 80, 53
1, 63755, Note_on_c, 0, 75, 50
1, 63768, Control_c, 0, 64, 68
1, 63769, Note_off_c, 0, 71, 25
1, 63783, Control_c, 0, 64, 70
1, 63787, Note_off_c, 0, 78, 57
1, 63789, Note_off_c, 0, 80, 60
1, 63794, Note_off_c, 0, 75, 62
1, 63798, Control_c, 0, 64, 73
1, 63812, Control_c, 0, 64, 76
1, 63812, Control_c, 0, 67, 118
1, 63827, Control_c, 0, 64, 82
1, 63827, Control_c, 0, 67, 118
1, 63842, Control_c, 0, 64, 89
1, 63842, Control_c, 0, 67, 119
1, 63857, Control_c, 0, 64, 97
1, 63857, Control_c, 0, 67, 119
1, 63872, Control_c, 0, 64, 103
1, 63872, Control_c, 0, 67, 120
1, 63884, Note_off_c, 0, 81, 59
1, 63886, Control_c, 0, 64, 108
1, 63886, Control_c, 0, 67, 121
1, 63901, Control_c, 0, 64, 118
1, 63901, Control_c, 0, 67, 121
1, 63902, Note_on_c, 0, 87, 65
1, 63910, Note_on_c, 0, 80, 52
1, 63916, Control_c, 0, 64, 127
1, 63916, Control_c, 0, 67, 122
1, 63917, Note_on_c, 0, 83, 52
1, 63919, Note_on_c, 0, 75, 49
1, 63931, Control_c, 0, 67, 123
1, 63945, Note_off_c, 0, 85, 58
1, 63946, Control_c, 0, 67, 127
1, 63947, Note_off_c, 0, 83, 59
1, 63966, Note_off_c, 0, 87, 58
1, 64029, Note_off_c, 0, 75, 0
1, 64048, Note_on_c, 0, 71, 51
1, 64064, Note_on_c, 0, 78, 41
1, 64066, Poly_aftertouch_c, 0, 75, 127
1, 64079, Note_off_c, 0, 71, 67
1, 64090, Note_off_c, 0, 78, 57
1, 64093, Note_off_c, 0, 80, 40
1, 64108, Poly_aftertouch_c, 0, 75, 0
1, 64210, Note_on_c, 0, 69, 49
1, 64217, Note_on_c, 0, 79, 45
1, 64217, Note_on_c, 0, 83, 45
1, 64226, Note_on_c, 0, 76, 53
1, 64234, Control_c, 0, 64, 118
1, 64249, Control_c, 0, 64, 102
1, 64264, Control_c, 0, 64, 91
1, 64279, Control_c, 0, 64, 82
1, 64293, Control_c, 0, 64, 75
1, 64308, Control_c, 0, 64, 70
1, 64323, Control_c, 0, 64, 68
1, 64353, Control_c, 0, 64, 70
1, 64367, Control_c, 0, 64, 73
1, 64378, Note_on_c, 0, 78, 54
1, 64382, Note_on_c, 0, 73, 54
1, 64382, Control_c, 0, 64, 77
1, 64389, Note_off_c, 0, 69, 41
1, 64397, Control_c, 0, 64, 81
1, 64412, Control_c, 0, 64, 84
1, 64416, Note_off_c, 0, 78, 59
1, 64419, Note_off_c, 0, 76, 37
1, 64421, Note_off_c, 0, 73, 60
1, 64427, Control_c, 0, 64, 88
1, 64442, Control_c, 0, 64, 94
1, 64457, Control_c, 0, 64, 101
1, 64472, Control_c, 0, 64, 110
1, 64487, Control_c, 0, 64, 127
1, 64529, Note_on_c, 0, 73, 54
1, 64535, Note_on_c, 0, 78, 48
1, 64537, Note_off_c, 0, 79, 54
1, 64543, Note_on_c, 0, 85, 45
1, 64561, Note_on_c, 0, 81, 43
1, 64579, Note_off_c, 0, 83, 46
1, 64582, Note_off_c, 0, 78, 44
1, 64600, Note_off_c, 0, 85, 43
1, 64609, Note_off_c, 0, 81, 52
1, 64671, Note_off_c, 0, 73, 23
1, 64672, Note_on_c, 0, 76, 42
1, 64679, Note_on_c, 0, 69, 35
1, 64713, Note_off_c, 0, 69, 53
1, 64718, Note_off_c, 0, 76, 48
1, 64820, Control_c, 0, 64, 115
1, 64835, Control_c, 0, 64, 103
1, 64849, Note_on_c, 0, 78, 40
1, 64850, Control_c, 0, 64, 95
1, 64853, Note_on_c, 0, 75, 53
1, 64856, Note_on_c, 0, 82, 50
1, 64862, Note_on_c, 0, 68, 46
1, 64865, Control_c, 0, 64, 87
1, 64880, Control_c, 0, 64, 78
1, 64895, Control_c, 0, 64, 71
1, 64909, Control_c, 0, 64, 67
1, 64919, Note_off_c, 0, 68, 52
1, 64924, Control_c, 0, 64, 65
1, 64939, Control_c, 0, 64, 66
1, 64954, Control_c, 0, 64, 67
1, 64968, Control_c, 0, 64, 69
1, 64983, Control_c, 0, 64, 71
1, 64998, Control_c, 0, 64, 74
1, 65002, Note_on_c, 0, 77, 52
1, 65005, Note_on_c, 0, 72, 45
1, 65013, Control_c, 0, 64, 76
1, 65028, Control_c, 0, 64, 80
1, 65039, Note_off_c, 0, 75, 51
1, 65042, Control_c, 0, 64, 85
1, 65050, Note_off_c, 0, 72, 60
1, 65050, Note_off_c, 0, 77, 55
1, 65057, Control_c, 0, 64, 91
1, 65072, Control_c, 0, 64, 100
1, 65087, Control_c, 0, 64, 108
1, 65102, Control_c, 0, 64, 113
1, 65116, Control_c, 0, 64, 118
1, 65131, Control_c, 0, 64, 127
1, 65175, Note_on_c, 0, 77, 54
1, 65188, Note_on_c, 0, 84, 32
1, 65195, Note_on_c, 0, 72, 34
1, 65197, Note_on_c, 0, 80, 39
1, 65211, Note_off_c, 0, 78, 36
1, 65220, Note_off_c, 0, 84, 49
1, 65229, Note_off_c, 0, 80, 55
1, 65239, Note_off_c, 0, 82, 42
1, 65270, Note_off_c, 0, 77, 36
1, 65335, Note_on_c, 0, 75, 52
1, 65339, Note_on_c, 0, 68, 41
1, 65351, Note_off_c, 0, 72, 22
1, 65369, Note_off_c, 0, 75, 63
1, 65373, Note_off_c, 0, 68, 51
1, 65525, Control_c, 0, 64, 109
1, 65539, Control_c, 0, 64, 93
1, 65543, Note_on_c, 0, 82, 83
1, 65554, Control_c, 0, 64, 84
1, 65569, Control_c, 0, 64, 78
1, 65571, Note_on_c, 0, 66, 43
1, 65578, Note_on_c, 0, 56, 44
1, 65583, Control_c, 0, 64, 75
1, 65595, Note_on_c, 0, 78, 37
1, 65603, Note_on_c, 0, 63, 41
1, 65613, Control_c, 0, 64, 77
1, 65628, Control_c, 0, 64, 82
1, 65643, Control_c, 0, 64, 90
1, 65649, Note_off_c, 0, 66, 58
1, 65649, Note_off_c, 0, 56, 62
1, 65653, Note_off_c, 0, 63, 62
1, 65657, Control_c, 0, 64, 99
1, 65672, Control_c, 0, 64, 110
1, 65685, Note_off_c, 0, 82, 63
1, 65687, Control_c, 0, 64, 127
1, 65701, Note_off_c, 0, 78, 33
1, 65733, Note_on_c, 0, 70, 42
1, 65765, Note_off_c, 0, 70, 62
1, 65844, Note_on_c, 0, 84, 74
1, 65858, Note_on_c, 0, 80, 50
1, 65870, Note_on_c, 0, 78, 62
1, 65877, Note_on_c, 0, 72, 5
1, 65880, Note_off_c, 0, 84, 62
1, 65882, Note_off_c, 0, 80, 63
1, 65889, Note_on_c, 0, 70, 36
1, 65929, Note_off_c, 0, 72, 48
1, 65968, Note_off_c, 0, 78, 49
1, 65977, Note_off_c, 0, 70, 52
1, 65999, Note_on_c, 0, 68, 61
1, 66038, Note_off_c, 0, 68, 56
1, 66102, Control_c, 0, 64, 109
1, 66117, Control_c, 0, 64, 95
1, 66132, Control_c, 0, 64, 83
1, 66137, Note_on_c, 0, 80, 69
1, 66147, Control_c, 0, 64, 73
1, 66162, Control_c, 0, 64, 68
1, 66163, Note_on_c, 0, 64, 37
1, 66168, Note_on_c, 0, 70, 34
1, 66170, Note_on_c, 0, 54, 36
1, 66171, Note_on_c, 0, 76, 44
1, 66177, Control_c, 0, 64, 66
1, 66181, Note_on_c, 0, 61, 38
1, 66206, Control_c, 0, 64, 68
1, 66221, Note_off_c, 0, 64, 59
1, 66221, Control_c, 0, 64, 70
1, 66236, Control_c, 0, 64, 74
1, 66244, Note_off_c, 0, 54, 62
1, 66245, Note_off_c, 0, 61, 59
1, 66251, Control_c, 0, 64, 80
1, 66273, Control_c, 0, 64, 88
1, 66287, Control_c, 0, 64, 97
1, 66298, Note_on_c, 0, 68, 51
1, 66302, Control_c, 0, 64, 106
1, 66314, Note_off_c, 0, 80, 39
1, 66317, Control_c, 0, 64, 114
1, 66332, Control_c, 0, 64, 127
1, 66358, Note_off_c, 0, 68, 44
1, 66412, Note_on_c, 0, 80, 71
1, 66429, Note_off_c, 0, 70, 0
1, 66439, Note_on_c, 0, 87, 80
1, 66451, Note_on_c, 0, 70, 16
1, 66457, Note_on_c, 0, 82, 39
1, 66466, Note_off_c, 0, 87, 66
1, 66475, Note_off_c, 0, 80, 61
1, 66487, Note_off_c, 0, 82, 54
1, 66571, Note_on_c, 0, 78, 65
1, 66585, Note_on_c, 0, 66, 41
1, 66596, Note_off_c, 0, 70, 54
1, 66603, Note_off_c, 0, 78, 63
1, 66614, Note_off_c, 0, 66, 54
1, 66623, Note_off_c, 0, 76, 41
1, 66702, Control_c, 0, 64, 108
1, 66713, Note_on_c, 0, 66, 48
1, 66717, Control_c, 0, 64, 96
1, 66722, Note_on_c, 0, 82, 82
1, 66731, Control_c, 0, 64, 84
1, 66736, Note_on_c, 0, 78, 53
1, 66746, Control_c, 0, 64, 74
1, 66760, Note_on_c, 0, 56, 56
1, 66761, Control_c, 0, 64, 66
1, 66767, Note_on_c, 0, 63, 32
1, 66776, Control_c, 0, 64, 64
1, 66786, Note_on_c, 0, 72, 35
1, 66791, Control_c, 0, 64, 65
1, 66806, Control_c, 0, 64, 68
1, 66812, Note_off_c, 0, 66, 59
1, 66820, Control_c, 0, 64, 71
1, 66822, Note_off_c, 0, 63, 51
1, 66833, Note_off_c, 0, 56, 64
1, 66835, Control_c, 0, 64, 76
1, 66850, Control_c, 0, 64, 81
1, 66851, Note_off_c, 0, 82, 64
1, 66865, Control_c, 0, 64, 90
1, 66866, Note_off_c, 0, 78, 61
1, 66876, Note_off_c, 0, 72, 58
1, 66881, Control_c, 0, 64, 99
1, 66883, Note_on_c, 0, 70, 62
1, 66896, Control_c, 0, 64, 110
1, 66910, Control_c, 0, 64, 127
1, 66913, Note_off_c, 0, 70, 64
1, 67016, Note_on_c, 0, 84, 73
1, 67026, Note_on_c, 0, 80, 56
1, 67030, Note_on_c, 0, 78, 67
1, 67036, Note_on_c, 0, 72, 44
1, 67039, Note_on_c, 0, 70, 53
1, 67054, Note_off_c, 0, 84, 61
1, 67056, Note_off_c, 0, 80, 65
1, 67092, Note_off_c, 0, 72, 57
1, 67129, Note_off_c, 0, 78, 56
1, 67154, Note_off_c, 0, 70, 62
1, 67165, Note_on_c, 0, 68, 59
1, 67247, Note_off_c, 0, 68, 48
1, 67303, Control_c, 0, 64, 104
1, 67309, Note_on_c, 0, 80, 67
1, 67318, Control_c, 0, 64, 90
1, 67333, Control_c, 0, 64, 79
1, 67333, Note_on_c, 0, 70, 42
1, 67345, Note_on_c, 0, 76, 39
1, 67346, Note_on_c, 0, 64, 33
1, 67348, Control_c, 0, 64, 71
1, 67348, Note_on_c, 0, 54, 45
1, 67357, Note_on_c, 0, 61, 40
1, 67362, Control_c, 0, 64, 68
1, 67377, Control_c, 0, 64, 69
1, 67384, Note_off_c, 0, 64, 53
1, 67392, Control_c, 0, 64, 73
1, 67392, Control_c, 0, 67, 127
1, 67405, Note_off_c, 0, 54, 64
1, 67407, Control_c, 0, 64, 78
1, 67413, Note_off_c, 0, 61, 61
1, 67422, Control_c, 0, 64, 86
1, 67436, Control_c, 0, 64, 96
1, 67436, Control_c, 0, 67, 126
1, 67451, Control_c, 0, 64, 103
1, 67455, Note_on_c, 0, 68, 49
1, 67466, Control_c, 0, 64, 109
1, 67477, Note_off_c, 0, 80, 39
1, 67481, Control_c, 0, 64, 120
1, 67496, Control_c, 0, 64, 127
1, 67510, Control_c, 0, 67, 127
1, 67525, Control_c, 0, 67, 127
1, 67551, Note_off_c, 0, 68, 50
1, 67581, Note_on_c, 0, 80, 69
1, 67598, Note_off_c, 0, 70, 0
1, 67604, Note_on_c, 0, 87, 74
1, 67607, Note_on_c, 0, 82, 55
1, 67619, Note_on_c, 0, 70, 23
1, 67624, Note_off_c, 0, 87, 66
1, 67629, Note_off_c, 0, 82, 63
1, 67643, Note_off_c, 0, 80, 61
1, 67736, Note_on_c, 0, 66, 55
1, 67747, Note_off_c, 0, 76, 31
1, 67748, Note_on_c, 0, 78, 56
1, 67767, Note_off_c, 0, 66, 64
1, 67778, Note_off_c, 0, 78, 65
1, 67783, Note_off_c, 0, 70, 40
1, 67845, Control_c, 0, 64, 114
1, 67859, Control_c, 0, 64, 97
1, 67874, Control_c, 0, 64, 84
1, 67880, Note_on_c, 0, 66, 27
1, 67889, Control_c, 0, 64, 73
1, 67891, Note_on_c, 0, 82, 71
1, 67894, Note_on_c, 0, 78, 37
1, 67904, Control_c, 0, 64, 65
1, 67916, Note_on_c, 0, 63, 50
1, 67919, Control_c, 0, 64, 62
1, 67927, Note_on_c, 0, 56, 46
1, 67933, Control_c, 0, 64, 63
1, 67945, Note_on_c, 0, 72, 24
1, 67948, Control_c, 0, 64, 65
1, 67963, Control_c, 0, 64, 68
1, 67978, Control_c, 0, 64, 72
1, 67982, Note_off_c, 0, 56, 62
1, 67983, Note_off_c, 0, 66, 56
1, 67991, Note_off_c, 0, 63, 62
1, 67992, Control_c, 0, 64, 78
1, 68002, Note_off_c, 0, 72, 0
1, 68002, Note_on_c, 0, 72, 7
1, 68004, Note_off_c, 0, 82, 63
1, 68007, Control_c, 0, 64, 88
1, 68022, Control_c, 0, 64, 98
1, 68032, Note_off_c, 0, 78, 61
1, 68037, Control_c, 0, 64, 108
1, 68038, Note_off_c, 0, 72, 58
1, 68052, Control_c, 0, 64, 116
1, 68053, Note_on_c, 0, 70, 56
1, 68067, Control_c, 0, 64, 120
1, 68081, Control_c, 0, 64, 121
1, 68085, Note_off_c, 0, 70, 64
1, 68096, Control_c, 0, 64, 123
1, 68111, Control_c, 0, 64, 127
1, 68178, Note_on_c, 0, 84, 65
1, 68180, Note_on_c, 0, 80, 52
1, 68194, Note_on_c, 0, 78, 59
1, 68204, Note_off_c, 0, 84, 67
1, 68213, Note_on_c, 0, 72, 19
1, 68216, Note_on_c, 0, 70, 44
1, 68216, Note_off_c, 0, 80, 64
1, 68260, Note_off_c, 0, 72, 48
1, 68300, Note_off_c, 0, 78, 60
1, 68322, Note_off_c, 0, 70, 61
1, 68338, Note_on_c, 0, 68, 57
1, 68348, Control_c, 0, 64, 124
1, 68377, Control_c, 0, 64, 122
1, 68392, Control_c, 0, 64, 118
1, 68407, Note_off_c, 0, 68, 46
1, 68407, Control_c, 0, 64, 112
1, 68422, Control_c, 0, 64, 104
1, 68437, Control_c, 0, 64, 93
1, 68451, Control_c, 0, 64, 82
1, 68466, Control_c, 0, 64, 73
1, 68471, Note_on_c, 0, 80, 61
1, 68482, Control_c, 0, 64, 67
1, 68486, Note_on_c, 0, 54, 38
1, 68489, Note_on_c, 0, 64, 39
1, 68505, Control_c, 0, 64, 66
1, 68512, Note_on_c, 0, 61, 38
1, 68520, Control_c, 0, 64, 67
1, 68526, Note_on_c, 0, 70, 34
1, 68527, Note_on_c, 0, 76, 35
1, 68535, Control_c, 0, 64, 69
1, 68549, Control_c, 0, 64, 72
1, 68551, Note_off_c, 0, 64, 62
1, 68557, Note_off_c, 0, 54, 63
1, 68561, Note_off_c, 0, 61, 60
1, 68564, Control_c, 0, 64, 76
1, 68579, Control_c, 0, 64, 83
1, 68591, Note_off_c, 0, 80, 58
1, 68594, Control_c, 0, 64, 89
1, 68594, Control_c, 0, 67, 126
1, 68608, Control_c, 0, 64, 95
1, 68608, Control_c, 0, 67, 125
1, 68623, Control_c, 0, 64, 100
1, 68638, Control_c, 0, 64, 106
1, 68638, Control_c, 0, 67, 125
1, 68639, Note_on_c, 0, 68, 52
1, 68650, Note_off_c, 0, 70, 59
1, 68654, Control_c, 0, 64, 112
1, 68657, Note_off_c, 0, 76, 46
1, 68666, Note_off_c, 0, 68, 62
1, 68669, Control_c, 0, 64, 127
1, 68669, Control_c, 0, 67, 124
1, 68683, Control_c, 0, 67, 123
1, 68698, Control_c, 0, 67, 122
1, 68743, Control_c, 0, 67, 122
1, 68757, Control_c, 0, 67, 121
1, 68761, Note_on_c, 0, 82, 69
1, 68772, Control_c, 0, 67, 121
1, 68776, Note_on_c, 0, 78, 46
1, 68784, Note_on_c, 0, 68, 46
1, 68784, Note_on_c, 0, 70, 55
1, 68791, Note_off_c, 0, 82, 55
1, 68802, Note_off_c, 0, 78, 62
1, 68816, Control_c, 0, 67, 121
1, 68831, Control_c, 0, 67, 122
1, 68846, Control_c, 0, 67, 123
1, 68874, Note_off_c, 0, 70, 60
1, 68876, Control_c, 0, 67, 123
1, 68884, Note_off_c, 0, 68, 59
1, 68890, Control_c, 0, 67, 124
1, 68927, Note_on_c, 0, 66, 60
1, 68949, Control_c, 0, 67, 124
1, 68964, Control_c, 0, 67, 125
1, 68974, Note_off_c, 0, 66, 50
1, 68979, Control_c, 0, 67, 125
1, 69008, Control_c, 0, 64, 118
1, 69023, Control_c, 0, 64, 101
1, 69038, Control_c, 0, 64, 90
1, 69038, Control_c, 0, 67, 126
1, 69053, Control_c, 0, 64, 78
1, 69053, Control_c, 0, 67, 126
1, 69065, Note_on_c, 0, 78, 63
1, 69068, Control_c, 0, 64, 70
1, 69083, Control_c, 0, 64, 66
1, 69083, Note_on_c, 0, 52, 45
1, 69092, Note_on_c, 0, 59, 40
1, 69098, Note_on_c, 0, 68, 42
1, 69098, Note_on_c, 0, 74, 49
1, 69098, Control_c, 0, 64, 66
1, 69113, Control_c, 0, 64, 68
1, 69118, Note_on_c, 0, 62, 4
1, 69127, Control_c, 0, 64, 72
1, 69127, Control_c, 0, 67, 127
1, 69134, Note_off_c, 0, 52, 60
1, 69138, Note_off_c, 0, 59, 62
1, 69142, Control_c, 0, 64, 77
1, 69149, Note_off_c, 0, 62, 46
1, 69157, Control_c, 0, 64, 84
1, 69172, Control_c, 0, 64, 90
1, 69181, Note_off_c, 0, 78, 58
1, 69187, Control_c, 0, 64, 96
1, 69201, Control_c, 0, 64, 103
1, 69209, Note_off_c, 0, 74, 61
1, 69216, Control_c, 0, 64, 114
1, 69217, Note_on_c, 0, 66, 46
1, 69231, Control_c, 0, 64, 127
1, 69235, Note_off_c, 0, 68, 58
1, 69251, Note_off_c, 0, 66, 59
1, 69374, Note_on_c, 0, 80, 54
1, 69381, Note_on_c, 0, 76, 50
1, 69382, Note_on_c, 0, 66, 32
1, 69386, Note_on_c, 0, 68, 40
1, 69398, Note_off_c, 0, 80, 64
1, 69414, Note_off_c, 0, 76, 63
1, 69476, Control_c, 0, 67, 127
1, 69482, Note_off_c, 0, 68, 60
1, 69491, Note_off_c, 0, 66, 58
1, 69515, Note_on_c, 0, 64, 59
1, 69560, Note_off_c, 0, 64, 52
1, 69638, Control_c, 0, 64, 115
1, 69653, Control_c, 0, 64, 99
1, 69668, Control_c, 0, 64, 86
1, 69674, Note_on_c, 0, 77, 52
1, 69683, Control_c, 0, 64, 74
1, 69688, Note_on_c, 0, 74, 39
1, 69698, Control_c, 0, 64, 66
1, 69700, Note_on_c, 0, 70, 38
1, 69705, Note_on_c, 0, 46, 38
1, 69706, Note_on_c, 0, 58, 31
1, 69712, Control_c, 0, 64, 63
1, 69727, Note_on_c, 0, 53, 39
1, 69727, Control_c, 0, 64, 64
1, 69742, Control_c, 0, 64, 66
1, 69757, Control_c, 0, 64, 69
1, 69772, Control_c, 0, 64, 73
1, 69775, Note_off_c, 0, 77, 53
1, 69786, Control_c, 0, 64, 77
1, 69787, Note_off_c, 0, 74, 60
1, 69795, Note_off_c, 0, 46, 56
1, 69798, Note_off_c, 0, 53, 62
1, 69801, Control_c, 0, 64, 82
1, 69813, Note_off_c, 0, 70, 61
1, 69816, Control_c, 0, 64, 88
1, 69825, Note_off_c, 0, 58, 57
1, 69831, Control_c, 0, 64, 93
1, 69831, Control_c, 0, 67, 127
1, 69833, Note_on_c, 0, 65, 56
1, 69846, Control_c, 0, 64, 96
1, 69861, Control_c, 0, 64, 98
1, 69861, Control_c, 0, 67, 126
1, 69876, Control_c, 0, 64, 98
1, 69891, Control_c, 0, 64, 99
1, 69905, Control_c, 0, 64, 100
1, 69905, Control_c, 0, 67, 126
1, 69920, Control_c, 0, 64, 100
1, 69935, Control_c, 0, 67, 125
1, 69951, Note_off_c, 0, 65, 27
1, 69963, Note_on_c, 0, 70, 67
1, 69974, Note_on_c, 0, 62, 56
1, 69990, Note_off_c, 0, 70, 68
1, 70061, Note_off_c, 0, 62, 57
1, 70105, Note_on_c, 0, 65, 55
1, 70121, Control_c, 0, 64, 99
1, 70135, Control_c, 0, 64, 98
1, 70150, Control_c, 0, 67, 125
1, 70208, Note_off_c, 0, 65, 50
1, 70210, Control_c, 0, 64, 97
1, 70225, Control_c, 0, 64, 96
1, 70240, Control_c, 0, 64, 92
1, 70254, Control_c, 0, 64, 87
1, 70262, Note_on_c, 0, 78, 76
1, 70269, Control_c, 0, 64, 80
1, 70281, Note_on_c, 0, 52, 51
1, 70284, Note_on_c, 0, 62, 43
1, 70284, Control_c, 0, 64, 73
1, 70287, Note_on_c, 0, 59, 51
1, 70292, Note_on_c, 0, 74, 57
1, 70299, Control_c, 0, 64, 69
1, 70308, Note_on_c, 0, 68, 37
1, 70314, Control_c, 0, 64, 68
1, 70314, Control_c, 0, 67, 125
1, 70328, Control_c, 0, 67, 126
1, 70343, Control_c, 0, 64, 69
1, 70343, Control_c, 0, 67, 126
1, 70349, Note_off_c, 0, 62, 59
1, 70358, Control_c, 0, 64, 73
1, 70358, Control_c, 0, 67, 127
1, 70363, Note_off_c, 0, 52, 62
1, 70370, Note_off_c, 0, 59, 62
1, 70373, Control_c, 0, 64, 79
1, 70373, Control_c, 0, 67, 127
1, 70388, Control_c, 0, 64, 90
1, 70403, Control_c, 0, 64, 105
1, 70406, Note_on_c, 0, 66, 66
1, 70418, Control_c, 0, 64, 127
1, 70421, Note_off_c, 0, 78, 62
1, 70445, Note_off_c, 0, 74, 61
1, 70448, Note_off_c, 0, 68, 60
1, 70460, Note_off_c, 0, 66, 58
1, 70556, Note_on_c, 0, 80, 72
1, 70567, Note_on_c, 0, 74, 60
1, 70571, Note_on_c, 0, 76, 48
1, 70578, Note_on_c, 0, 68, 54
1, 70584, Note_off_c, 0, 80, 59
1, 70590, Note_on_c, 0, 66, 54
1, 70600, Note_off_c, 0, 74, 63
1, 70602, Note_off_c, 0, 76, 54
1, 70682, Note_off_c, 0, 68, 60
1, 70684, Control_c, 0, 64, 119
1, 70690, Note_off_c, 0, 66, 59
1, 70699, Control_c, 0, 64, 110
1, 70714, Control_c, 0, 64, 104
1, 70720, Note_on_c, 0, 64, 45
1, 70728, Control_c, 0, 64, 100
1, 70743, Control_c, 0, 64, 97
1, 70766, Control_c, 0, 64, 95
1, 70780, Control_c, 0, 64, 94
1, 70780, Control_c, 0, 67, 127
1, 70795, Control_c, 0, 64, 92
1, 70808, Note_off_c, 0, 64, 34
1, 70810, Control_c, 0, 64, 89
1, 70825, Control_c, 0, 64, 83
1, 70840, Control_c, 0, 64, 76
1, 70840, Control_c, 0, 67, 126
1, 70854, Control_c, 0, 64, 67
1, 70869, Control_c, 0, 64, 56
1, 70875, Note_on_c, 0, 77, 48
1, 70885, Note_on_c, 0, 74, 44
1, 70885, Control_c, 0, 64, 35
1, 70891, Note_on_c, 0, 46, 42
1, 70892, Note_on_c, 0, 58, 39
1, 70892, Note_on_c, 0, 70, 45
1, 70900, Control_c, 0, 64, 26
1, 70901, Note_on_c, 0, 53, 39
1, 70915, Control_c, 0, 64, 29
1, 70930, Control_c, 0, 64, 47
1, 70945, Control_c, 0, 64, 59
1, 70959, Control_c, 0, 64, 64
1, 70959, Control_c, 0, 67, 126
1, 70973, Note_off_c, 0, 77, 57
1, 70974, Control_c, 0, 64, 68
1, 70979, Note_off_c, 0, 74, 61
1, 70985, Note_off_c, 0, 46, 56
1, 70989, Note_off_c, 0, 53, 65
1, 70989, Control_c, 0, 64, 71
1, 70995, Note_off_c, 0, 58, 61
1, 70997, Note_off_c, 0, 70, 60
1, 71003, Control_c, 0, 64, 75
1, 71003, Control_c, 0, 67, 125
1, 71018, Control_c, 0, 64, 79
1, 71018, Control_c, 0, 67, 125
1, 71033, Control_c, 0, 64, 84
1, 71033, Control_c, 0, 67, 124
1, 71038, Note_on_c, 0, 65, 42
1, 71048, Control_c, 0, 64, 89
1, 71063, Control_c, 0, 64, 91
1, 71107, Note_off_c, 0, 65, 43
1, 71137, Control_c, 0, 64, 91
1, 71152, Control_c, 0, 67, 125
1, 71158, Note_on_c, 0, 70, 60
1, 71167, Control_c, 0, 67, 125
1, 71183, Note_on_c, 0, 62, 42
1, 71188, Note_off_c, 0, 70, 62
1, 71196, Control_c, 0, 67, 126
1, 71238, Note_off_c, 0, 62, 52
1, 71307, Note_on_c, 0, 65, 58
1, 71346, Note_off_c, 0, 65, 59
1, 71403, Control_c, 0, 64, 91
1, 71403, Control_c, 0, 67, 126
1, 71418, Control_c, 0, 64, 88
1, 71418, Control_c, 0, 67, 127
1, 71433, Control_c, 0, 64, 83
1, 71448, Control_c, 0, 64, 77
1, 71448, Control_c, 0, 67, 127
1, 71454, Note_on_c, 0, 78, 65
1, 71463, Control_c, 0, 64, 70
1, 71474, Note_on_c, 0, 52, 44
1, 71477, Control_c, 0, 64, 65
1, 71492, Control_c, 0, 64, 63
1, 71505, Note_on_c, 0, 59, 35
1, 71510, Note_on_c, 0, 62, 13
1, 71530, Control_c, 0, 64, 64
1, 71536, Note_on_c, 0, 74, 30
1, 71539, Note_on_c, 0, 68, 32
1, 71545, Control_c, 0, 64, 67
1, 71550, Note_off_c, 0, 62, 54
1, 71557, Note_off_c, 0, 52, 62
1, 71560, Control_c, 0, 64, 70
1, 71562, Note_off_c, 0, 59, 61
1, 71575, Control_c, 0, 64, 75
1, 71590, Control_c, 0, 64, 81
1, 71604, Control_c, 0, 64, 90
1, 71605, Note_off_c, 0, 78, 60
1, 71613, Note_on_c, 0, 66, 61
1, 71619, Control_c, 0, 64, 103
1, 71634, Control_c, 0, 64, 114
1, 71642, Note_off_c, 0, 66, 64
1, 71644, Note_off_c, 0, 68, 56
1, 71649, Control_c, 0, 64, 117
1, 71664, Control_c, 0, 64, 117
1, 71667, Note_off_c, 0, 74, 36
1, 71694, Control_c, 0, 64, 116
1, 71709, Control_c, 0, 64, 115
1, 71724, Control_c, 0, 64, 114
1, 71739, Control_c, 0, 64, 113
1, 71753, Control_c, 0, 64, 110
1, 71763, Note_on_c, 0, 80, 67
1, 71768, Control_c, 0, 64, 109
1, 71769, Note_on_c, 0, 74, 53
1, 71783, Control_c, 0, 64, 107
1, 71784, Note_on_c, 0, 68, 41
1, 71791, Note_off_c, 0, 80, 54
1, 71798, Control_c, 0, 64, 106
1, 71801, Note_on_c, 0, 66, 38
1, 71805, Note_on_c, 0, 76, 20
1, 71812, Note_off_c, 0, 74, 60
1, 71813, Control_c, 0, 64, 105
1, 71827, Control_c, 0, 64, 104
1, 71842, Control_c, 0, 64, 103
1, 71846, Note_off_c, 0, 76, 51
1, 71857, Control_c, 0, 64, 101
1, 71872, Control_c, 0, 64, 98
1, 71886, Note_off_c, 0, 68, 57
1, 71887, Control_c, 0, 64, 96
1, 71891, Note_off_c, 0, 66, 57
1, 71901, Control_c, 0, 64, 92
1, 71916, Control_c, 0, 64, 91
1, 71918, Note_on_c, 0, 64, 58
1, 71931, Control_c, 0, 64, 90
1, 71977, Note_off_c, 0, 64, 38
1, 72020, Control_c, 0, 64, 89
1, 72034, Control_c, 0, 64, 87
1, 72049, Control_c, 0, 64, 84
1, 72064, Control_c, 0, 64, 79
1, 72079, Control_c, 0, 64, 72
1, 72088, Note_on_c, 0, 77, 47
1, 72094, Control_c, 0, 64, 64
1, 72097, Note_on_c, 0, 70, 42
1, 72106, Note_on_c, 0, 74, 38
1, 72107, Note_on_c, 0, 46, 34
1, 72109, Control_c, 0, 64, 49
1, 72124, Note_on_c, 0, 58, 31
1, 72124, Control_c, 0, 64, 33
1, 72139, Control_c, 0, 64, 35
1, 72153, Control_c, 0, 64, 48
1, 72155, Note_on_c, 0, 53, 15
1, 72168, Control_c, 0, 64, 59
1, 72183, Control_c, 0, 64, 64
1, 72198, Control_c, 0, 64, 68
1, 72199, Note_off_c, 0, 77, 54
1, 72212, Note_off_c, 0, 74, 58
1, 72213, Control_c, 0, 64, 71
1, 72228, Control_c, 0, 64, 76
1, 72229, Note_off_c, 0, 53, 59
1, 72234, Note_off_c, 0, 46, 47
1, 72250, Control_c, 0, 64, 81
1, 72253, Note_off_c, 0, 58, 58
1, 72255, Note_off_c, 0, 70, 59
1, 72265, Control_c, 0, 64, 85
1, 72280, Control_c, 0, 64, 88
1, 72293, Note_on_c, 0, 65, 48
1, 72295, Control_c, 0, 64, 90
1, 72309, Control_c, 0, 64, 91
1, 72324, Control_c, 0, 64, 92
1, 72339, Control_c, 0, 64, 94
1, 72343, Note_off_c, 0, 65, 53
1, 72353, Control_c, 0, 64, 96
1, 72368, Control_c, 0, 64, 97
1, 72414, Control_c, 0, 64, 97
1, 72426, Note_on_c, 0, 70, 45
1, 72436, Note_on_c, 0, 62, 42
1, 72451, Note_off_c, 0, 70, 58
1, 72489, Control_c, 0, 67, 127
1, 72533, Control_c, 0, 67, 126
1, 72545, Note_off_c, 0, 62, 32
1, 72563, Control_c, 0, 67, 126
1, 72583, Note_on_c, 0, 65, 38
1, 72618, Note_off_c, 0, 65, 51
1, 72711, Control_c, 0, 67, 126
1, 72726, Control_c, 0, 64, 97
1, 72741, Control_c, 0, 64, 96
1, 72741, Control_c, 0, 67, 127
1, 72755, Control_c, 0, 64, 95
1, 72755, Control_c, 0, 67, 127
1, 72770, Control_c, 0, 64, 90
1, 72776, Note_on_c, 0, 66, 56
1, 72785, Note_on_c, 0, 47, 43
1, 72785, Control_c, 0, 64, 84
1, 72800, Control_c, 0, 64, 77
1, 72801, Note_on_c, 0, 56, 32
1, 72807, Note_on_c, 0, 52, 41
1, 72809, Note_on_c, 0, 62, 35
1, 72815, Control_c, 0, 64, 70
1, 72826, Note_on_c, 0, 59, 9
1, 72830, Control_c, 0, 64, 65
1, 72845, Control_c, 0, 64, 63
1, 72859, Control_c, 0, 64, 62
1, 72889, Control_c, 0, 64, 64
1, 72904, Control_c, 0, 64, 67
1, 72912, Note_off_c, 0, 56, 37
1, 72919, Control_c, 0, 64, 71
1, 72933, Note_off_c, 0, 47, 64
1, 72933, Control_c, 0, 64, 76
1, 72938, Note_on_c, 0, 68, 59
1, 72940, Note_off_c, 0, 66, 55
1, 72948, Control_c, 0, 64, 82
1, 72955, Note_off_c, 0, 52, 62
1, 72959, Note_off_c, 0, 62, 52
1, 72961, Note_off_c, 0, 59, 50
1, 72963, Control_c, 0, 64, 87
1, 72970, Note_off_c, 0, 68, 64
1, 72977, Control_c, 0, 64, 91
1, 72977, Control_c, 0, 67, 126
1, 72992, Control_c, 0, 64, 92
1, 72992, Control_c, 0, 67, 126
1, 73013, Poly_aftertouch_c, 0, 64, 127
1, 73015, Control_c, 0, 67, 125
1, 73030, Control_c, 0, 67, 125
1, 73041, Poly_aftertouch_c, 0, 64, 0
1, 73045, Control_c, 0, 67, 124
1, 73059, Control_c, 0, 67, 123
1, 73074, Control_c, 0, 67, 123
1, 73089, Control_c, 0, 64, 91
1, 73095, Note_on_c, 0, 66, 54
1, 73097, Note_on_c, 0, 71, 64
1, 73100, Note_on_c, 0, 61, 69
1, 73103, Control_c, 0, 64, 91
1, 73139, Note_off_c, 0, 71, 62
1, 73143, Note_off_c, 0, 66, 49
1, 73144, Note_on_c, 0, 62, 64
1, 73147, Control_c, 0, 67, 122
1, 73162, Control_c, 0, 67, 121
1, 73185, Note_off_c, 0, 62, 60
1, 73221, Note_on_c, 0, 74, 70
1, 73236, Control_c, 0, 64, 90
1, 73237, Note_on_c, 0, 68, 20
1, 73238, Note_off_c, 0, 74, 68
1, 73250, Control_c, 0, 64, 89
1, 73265, Control_c, 0, 64, 89
1, 73280, Note_off_c, 0, 68, 48
1, 73281, Control_c, 0, 64, 88
1, 73311, Control_c, 0, 64, 88
1, 73341, Control_c, 0, 64, 85
1, 73352, Note_on_c, 0, 74, 37
1, 73355, Control_c, 0, 64, 80
1, 73355, Control_c, 0, 67, 122
1, 73370, Control_c, 0, 64, 72
1, 73370, Control_c, 0, 67, 122
1, 73376, Note_on_c, 0, 68, 43
1, 73377, Note_on_c, 0, 78, 64
1, 73378, Note_on_c, 0, 64, 57
1, 73379, Note_off_c, 0, 61, 53
1, 73385, Control_c, 0, 64, 65
1, 73387, Note_on_c, 0, 59, 46
1, 73388, Note_on_c, 0, 71, 45
1, 73399, Control_c, 0, 64, 61
1, 73414, Control_c, 0, 64, 61
1, 73429, Control_c, 0, 64, 64
1, 73434, Note_off_c, 0, 68, 53
1, 73444, Control_c, 0, 64, 66
1, 73453, Note_off_c, 0, 59, 61
1, 73459, Control_c, 0, 64, 69
1, 73459, Control_c, 0, 67, 122
1, 73474, Control_c, 0, 64, 73
1, 73474, Control_c, 0, 67, 121
1, 73474, Note_off_c, 0, 64, 64
1, 73481, Note_off_c, 0, 71, 41
1, 73489, Control_c, 0, 64, 78
1, 73489, Control_c, 0, 67, 121
1, 73504, Control_c, 0, 64, 84
1, 73504, Control_c, 0, 67, 120
1, 73508, Note_on_c, 0, 80, 69
1, 73517, Note_off_c, 0, 78, 37
1, 73519, Control_c, 0, 64, 89
1, 73519, Control_c, 0, 67, 119
1, 73520, Note_on_c, 0, 76, 50
1, 73521, Note_off_c, 0, 74, 62
1, 73533, Control_c, 0, 64, 89
1, 73533, Control_c, 0, 67, 116
1, 73544, Note_off_c, 0, 76, 58
1, 73544, Note_off_c, 0, 80, 59
1, 73548, Control_c, 0, 67, 110
1, 73563, Control_c, 0, 67, 105
1, 73578, Control_c, 0, 67, 100
1, 73593, Control_c, 0, 67, 95
1, 73607, Control_c, 0, 67, 92
1, 73622, Control_c, 0, 64, 89
1, 73622, Control_c, 0, 67, 89
1, 73637, Control_c, 0, 64, 88
1, 73637, Control_c, 0, 67, 87
1, 73640, Note_on_c, 0, 73, 86
1, 73652, Control_c, 0, 67, 85
1, 73664, Note_on_c, 0, 83, 63
1, 73667, Control_c, 0, 64, 88
1, 73667, Control_c, 0, 67, 84
1, 73681, Control_c, 0, 67, 83
1, 73686, Note_on_c, 0, 78, 29
1, 73696, Control_c, 0, 67, 83
1, 73711, Control_c, 0, 64, 87
1, 73711, Control_c, 0, 67, 82
1, 73715, Note_on_c, 0, 74, 68
1, 73719, Note_off_c, 0, 83, 61
1, 73725, Control_c, 0, 67, 82
1, 73740, Control_c, 0, 67, 81
1, 73774, Note_off_c, 0, 74, 65
1, 73778, Control_c, 0, 67, 81
1, 73791, Note_on_c, 0, 80, 45
1, 73793, Control_c, 0, 67, 81
1, 73794, Note_on_c, 0, 86, 73
1, 73807, Control_c, 0, 67, 82
1, 73808, Note_off_c, 0, 78, 40
1, 73811, Note_off_c, 0, 86, 69
1, 73816, Note_off_c, 0, 80, 56
1, 73822, Control_c, 0, 67, 83
1, 73837, Control_c, 0, 67, 83
1, 73852, Control_c, 0, 67, 84
1, 73867, Control_c, 0, 67, 85
1, 73881, Control_c, 0, 67, 86
1, 73896, Control_c, 0, 67, 86
1, 73911, Control_c, 0, 64, 87
1, 73911, Control_c, 0, 67, 87
1, 73925, Control_c, 0, 64, 86
1, 73925, Control_c, 0, 67, 88
1, 73940, Control_c, 0, 64, 82
1, 73940, Control_c, 0, 67, 88
1, 73950, Note_on_c, 0, 90, 69
1, 73951, Note_off_c, 0, 73, 60
1, 73955, Control_c, 0, 64, 77
1, 73957, Note_on_c, 0, 71, 62
1, 73960, Note_on_c, 0, 86, 36
1, 73963, Note_on_c, 0, 76, 58
1, 73970, Note_on_c, 0, 83, 53
1, 73970, Control_c, 0, 64, 70
1, 73970, Control_c, 0, 67, 89
1, 73980, Note_on_c, 0, 80, 17
1, 73985, Control_c, 0, 64, 65
1, 73985, Control_c, 0, 67, 90
1, 73999, Control_c, 0, 64, 62
1, 73999, Control_c, 0, 67, 91
1, 74014, Control_c, 0, 64, 62
1, 74022, Note_off_c, 0, 80, 51
1, 74029, Control_c, 0, 64, 64
1, 74029, Control_c, 0, 67, 91
1, 74044, Control_c, 0, 64, 67
1, 74052, Note_off_c, 0, 71, 64
1, 74059, Control_c, 0, 64, 70
1, 74063, Note_off_c, 0, 76, 62
1, 74063, Note_off_c, 0, 90, 56
1, 74075, Control_c, 0, 64, 73
1, 74075, Control_c, 0, 67, 92
1, 74090, Control_c, 0, 64, 77
1, 74094, Note_off_c, 0, 83, 39
1, 74097, Note_on_c, 0, 92, 69
1, 74104, Control_c, 0, 64, 84
1, 74108, Note_on_c, 0, 88, 40
1, 74108, Note_off_c, 0, 86, 61
1, 74119, Control_c, 0, 64, 89
1, 74134, Control_c, 0, 64, 94
1, 74136, Note_off_c, 0, 88, 52
1, 74141, Note_off_c, 0, 92, 61
1, 74148, Control_c, 0, 64, 97
1, 74148, Control_c, 0, 67, 91
1, 74163, Control_c, 0, 64, 101
1, 74178, Control_c, 0, 64, 103
1, 74193, Control_c, 0, 67, 92
1, 74208, Control_c, 0, 64, 100
1, 74222, Control_c, 0, 64, 92
1, 74233, Note_on_c, 0, 85, 81
1, 74237, Control_c, 0, 64, 83
1, 74237, Control_c, 0, 67, 91
1, 74252, Control_c, 0, 64, 77
1, 74261, Note_on_c, 0, 95, 63
1, 74267, Control_c, 0, 64, 75
1, 74267, Control_c, 0, 67, 91
1, 74282, Control_c, 0, 64, 78
1, 74287, Note_on_c, 0, 90, 34
1, 74297, Control_c, 0, 64, 82
1, 74297, Control_c, 0, 67, 90
1, 74310, Note_off_c, 0, 95, 58
1, 74312, Control_c, 0, 64, 86
1, 74318, Note_on_c, 0, 86, 69
1, 74326, Control_c, 0, 64, 91
1, 74341, Control_c, 0, 64, 96
1, 74356, Control_c, 0, 64, 99
1, 74356, Control_c, 0, 67, 90
1, 74370, Note_off_c, 0, 85, 64
1, 74371, Control_c, 0, 64, 100
1, 74374, Note_off_c, 0, 86, 61
1, 74395, Note_on_c, 0, 98, 81
1, 74395, Note_off_c, 0, 90, 44
1, 74401, Note_on_c, 0, 83, 78
1, 74401, Control_c, 0, 67, 89
1, 74407, Note_on_c, 0, 92, 28
1, 74416, Note_off_c, 0, 98, 71
1, 74425, Note_off_c, 0, 83, 67
1, 74440, Note_off_c, 0, 92, 53
1, 74490, Control_c, 0, 67, 89
1, 74556, Control_c, 0, 64, 96
1, 74571, Control_c, 0, 64, 83
1, 74586, Control_c, 0, 64, 71
1, 74601, Control_c, 0, 64, 64
1, 74608, Note_on_c, 0, 70, 72
1, 74612, Note_on_c, 0, 101, 90
1, 74616, Control_c, 0, 64, 65
1, 74616, Control_c, 0, 67, 88
1, 74630, Control_c, 0, 64, 68
1, 74630, Note_off_c, 0, 70, 69
1, 74645, Control_c, 0, 64, 73
1, 74660, Control_c, 0, 64, 81
1, 74667, Note_on_c, 0, 98, 74
1, 74675, Control_c, 0, 64, 95
1, 74683, Note_off_c, 0, 101, 59
1, 74690, Control_c, 0, 64, 115
1, 74697, Note_on_c, 0, 94, 78
1, 74704, Control_c, 0, 64, 127
1, 74704, Control_c, 0, 67, 88
1, 74719, Note_off_c, 0, 98, 67
1, 74719, Control_c, 0, 67, 86
1, 74734, Control_c, 0, 67, 86
1, 74744, Note_on_c, 0, 89, 73
1, 74746, Note_off_c, 0, 94, 65
1, 74748, Control_c, 0, 67, 85
1, 74765, Note_on_c, 0, 77, 71
1, 74766, Note_off_c, 0, 89, 68
1, 74768, Note_on_c, 0, 82, 71
1, 74778, Control_c, 0, 67, 85
1, 74782, Note_off_c, 0, 77, 69
1, 74785, Note_off_c, 0, 82, 68
1, 74808, Control_c, 0, 67, 84
1, 74822, Control_c, 0, 67, 84
1, 74823, Note_on_c, 0, 86, 77
1, 74837, Control_c, 0, 67, 83
1, 74852, Control_c, 0, 67, 82
1, 74868, Control_c, 0, 67, 82
1, 74880, Note_off_c, 0, 86, 63
1, 74882, Note_on_c, 0, 82, 66
1, 74912, Note_off_c, 0, 82, 65
1, 74933, Note_on_c, 0, 79, 46
1, 74940, Note_on_c, 0, 77, 53
1, 74942, Control_c, 0, 67, 82
1, 74957, Control_c, 0, 67, 84
1, 74961, Note_off_c, 0, 79, 55
1, 74961, Note_off_c, 0, 77, 63
1, 74971, Control_c, 0, 67, 85
1, 74981, Note_on_c, 0, 82, 48
1, 74984, Note_on_c, 0, 86, 72
1, 74986, Control_c, 0, 67, 85
1, 75001, Control_c, 0, 67, 86
1, 75005, Note_off_c, 0, 86, 71
1, 75012, Note_off_c, 0, 82, 0
1, 75016, Control_c, 0, 67, 87
1, 75031, Control_c, 0, 67, 87
1, 75034, Note_on_c, 0, 82, 37
1, 75036, Note_on_c, 0, 77, 65
1, 75045, Control_c, 0, 67, 88
1, 75060, Note_off_c, 0, 77, 69
1, 75060, Control_c, 0, 67, 88
1, 75061, Note_off_c, 0, 82, 62
1, 75072, Note_on_c, 0, 89, 65
1, 75119, Control_c, 0, 67, 88
1, 75121, Note_off_c, 0, 89, 42
1, 75148, Note_on_c, 0, 98, 62
1, 75179, Note_on_c, 0, 94, 37
1, 75188, Note_off_c, 0, 98, 59
1, 75209, Note_off_c, 0, 94, 53
1, 75223, Note_on_c, 0, 102, 99
1, 75224, Control_c, 0, 64, 104
1, 75229, Note_on_c, 0, 68, 68
1, 75245, Control_c, 0, 64, 82
1, 75260, Control_c, 0, 64, 71
1, 75275, Control_c, 0, 64, 67
1, 75290, Control_c, 0, 64, 68
1, 75305, Control_c, 0, 64, 72
1, 75320, Control_c, 0, 64, 79
1, 75334, Control_c, 0, 64, 91
1, 75349, Control_c, 0, 64, 101
1, 75358, Note_on_c, 0, 98, 74
1, 75364, Note_off_c, 0, 102, 51
1, 75364, Control_c, 0, 64, 109
1, 75365, Note_off_c, 0, 68, 53
1, 75379, Control_c, 0, 64, 116
1, 75394, Control_c, 0, 64, 127
1, 75411, Note_off_c, 0, 98, 65
1, 75435, Note_on_c, 0, 95, 61
1, 75441, Note_on_c, 0, 83, 56
1, 75450, Note_on_c, 0, 74, 46
1, 75450, Note_on_c, 0, 78, 55
1, 75471, Note_on_c, 0, 90, 64
1, 75472, Note_off_c, 0, 83, 53
1, 75483, Note_off_c, 0, 78, 63
1, 75489, Note_off_c, 0, 74, 61
1, 75498, Note_off_c, 0, 90, 66
1, 75499, Note_off_c, 0, 95, 55
1, 75513, Control_c, 0, 67, 88
1, 75537, Note_on_c, 0, 104, 100
1, 75543, Control_c, 0, 67, 89
1, 75558, Control_c, 0, 67, 89
1, 75572, Control_c, 0, 67, 90
1, 75587, Control_c, 0, 67, 90
1, 75602, Control_c, 0, 67, 91
1, 75616, Note_off_c, 0, 104, 64
1, 75624, Note_on_c, 0, 98, 69
1, 75692, Control_c, 0, 67, 90
1, 75692, Note_on_c, 0, 78, 55
1, 75698, Note_on_c, 0, 74, 49
1, 75701, Note_off_c, 0, 98, 62
1, 75707, Control_c, 0, 67, 90
1, 75714, Note_off_c, 0, 78, 66
1, 75717, Note_on_c, 0, 95, 31
1, 75722, Note_off_c, 0, 74, 62
1, 75733, Note_on_c, 0, 96, 29
1, 75756, Note_on_c, 0, 92, 65
1, 75760, Note_off_c, 0, 95, 50
1, 75766, Note_off_c, 0, 96, 52
1, 75781, Note_off_c, 0, 92, 68
1, 75810, Control_c, 0, 64, 107
1, 75825, Control_c, 0, 64, 88
1, 75839, Note_on_c, 0, 101, 85
1, 75840, Control_c, 0, 64, 77
1, 75853, Note_on_c, 0, 58, 61
1, 75855, Control_c, 0, 64, 71
1, 75855, Control_c, 0, 67, 90
1, 75869, Control_c, 0, 64, 71
1, 75869, Control_c, 0, 67, 91
1, 75882, Note_off_c, 0, 58, 65
1, 75884, Control_c, 0, 64, 76
1, 75899, Control_c, 0, 64, 83
1, 75905, Note_on_c, 0, 98, 74
1, 75909, Note_off_c, 0, 101, 61
1, 75913, Control_c, 0, 64, 97
1, 75913, Control_c, 0, 67, 91
1, 75928, Control_c, 0, 64, 115
1, 75942, Note_on_c, 0, 94, 66
1, 75943, Control_c, 0, 64, 127
1, 75962, Note_off_c, 0, 98, 65
1, 75975, Note_off_c, 0, 94, 61
1, 76001, Note_on_c, 0, 89, 64
1, 76018, Note_off_c, 0, 89, 63
1, 76020, Note_on_c, 0, 65, 54
1, 76022, Note_on_c, 0, 70, 46
1, 76025, Control_c, 0, 67, 91
1, 76043, Note_off_c, 0, 65, 59
1, 76046, Note_off_c, 0, 70, 58
1, 76082, Note_on_c, 0, 86, 72
1, 76084, Control_c, 0, 67, 90
1, 76136, Note_on_c, 0, 82, 68
1, 76139, Note_off_c, 0, 86, 62
1, 76160, Note_off_c, 0, 82, 67
1, 76188, Control_c, 0, 67, 91
1, 76191, Note_on_c, 0, 77, 50
1, 76213, Note_off_c, 0, 77, 60
1, 76247, Control_c, 0, 67, 90
1, 76266, Note_on_c, 0, 74, 65
1, 76309, Note_off_c, 0, 74, 56
1, 76327, Note_on_c, 0, 70, 53
1, 76342, Note_on_c, 0, 58, 42
1, 76384, Note_on_c, 0, 65, 38
1, 76402, Note_off_c, 0, 70, 61
1, 76420, Note_off_c, 0, 65, 54
1, 76424, Note_on_c, 0, 74, 63
1, 76425, Control_c, 0, 67, 91
1, 76455, Control_c, 0, 67, 91
1, 76470, Control_c, 0, 64, 114
1, 76485, Control_c, 0, 64, 101
1, 76499, Note_off_c, 0, 74, 53
1, 76499, Control_c, 0, 64, 90
1, 76505, Note_on_c, 0, 78, 74
1, 76510, Note_on_c, 0, 56, 58
1, 76514, Control_c, 0, 64, 79
1, 76529, Control_c, 0, 64, 69
1, 76529, Control_c, 0, 67, 92
1, 76538, Note_off_c, 0, 58, 41
1, 76544, Control_c, 0, 64, 62
1, 76559, Control_c, 0, 64, 49
1, 76559, Control_c, 0, 67, 92
1, 76574, Control_c, 0, 64, 24
1, 76589, Control_c, 0, 64, 0
1, 76618, Control_c, 0, 64, 32
1, 76630, Note_on_c, 0, 74, 54
1, 76633, Control_c, 0, 64, 57
1, 76633, Control_c, 0, 67, 93
1, 76648, Control_c, 0, 64, 65
1, 76663, Control_c, 0, 64, 70
1, 76675, Note_off_c, 0, 78, 48
1, 76678, Control_c, 0, 64, 75
1, 76692, Control_c, 0, 64, 80
1, 76707, Control_c, 0, 64, 84
1, 76711, Note_on_c, 0, 71, 51
1, 76713, Note_off_c, 0, 74, 39
1, 76721, Note_on_c, 0, 61, 41
1, 76722, Control_c, 0, 64, 89
1, 76744, Control_c, 0, 64, 93
1, 76746, Note_on_c, 0, 62, 35
1, 76759, Control_c, 0, 64, 97
1, 76759, Control_c, 0, 67, 92
1, 76774, Control_c, 0, 64, 97
1, 76790, Note_on_c, 0, 66, 46
1, 76794, Note_off_c, 0, 71, 53
1, 76821, Note_off_c, 0, 66, 54
1, 76857, Note_on_c, 0, 80, 72
1, 76892, Control_c, 0, 64, 97
1, 76926, Note_off_c, 0, 80, 55
1, 76933, Note_off_c, 0, 61, 40
1, 76943, Note_on_c, 0, 74, 65
1, 76948, Note_off_c, 0, 56, 58
1, 76950, Note_off_c, 0, 62, 16
1, 76951, Control_c, 0, 64, 96
1, 76966, Control_c, 0, 64, 96
1, 76981, Control_c, 0, 64, 95
1, 76996, Control_c, 0, 64, 95
1, 77005, Note_off_c, 0, 74, 62
1, 77025, Control_c, 0, 64, 94
1, 77027, Note_on_c, 0, 71, 52
1, 77040, Control_c, 0, 64, 93
1, 77055, Control_c, 0, 64, 92
1, 77060, Poly_aftertouch_c, 0, 59, 127
1, 77060, Note_off_c, 0, 71, 52
1, 77070, Control_c, 0, 64, 92
1, 77091, Note_on_c, 0, 68, 60
1, 77093, Poly_aftertouch_c, 0, 59, 0
1, 77121, Note_off_c, 0, 68, 64
1, 77129, Control_c, 0, 64, 90
1, 77143, Control_c, 0, 64, 84
1, 77158, Control_c, 0, 64, 77
1, 77158, Control_c, 0, 67, 92
1, 77173, Control_c, 0, 64, 68
1, 77188, Control_c, 0, 64, 62
1, 77188, Control_c, 0, 67, 91
1, 77203, Note_on_c, 0, 77, 61
1, 77203, Control_c, 0, 64, 59
1, 77203, Control_c, 0, 67, 91
1, 77212, Note_on_c, 0, 46, 44
1, 77218, Control_c, 0, 64, 59
1, 77233, Control_c, 0, 64, 62
1, 77248, Control_c, 0, 64, 65
1, 77262, Note_off_c, 0, 46, 58
1, 77263, Control_c, 0, 64, 68
1, 77263, Control_c, 0, 67, 90
1, 77278, Control_c, 0, 64, 70
1, 77278, Control_c, 0, 67, 90
1, 77293, Control_c, 0, 64, 73
1, 77293, Control_c, 0, 67, 89
1, 77301, Note_on_c, 0, 74, 57
1, 77308, Control_c, 0, 64, 78
1, 77322, Control_c, 0, 64, 83
1, 77325, Note_off_c, 0, 77, 36
1, 77337, Control_c, 0, 64, 88
1, 77352, Control_c, 0, 64, 91
1, 77352, Control_c, 0, 67, 89
1, 77367, Control_c, 0, 64, 92
1, 77372, Note_on_c, 0, 70, 60
1, 77382, Control_c, 0, 64, 92
1, 77385, Note_off_c, 0, 74, 38
1, 77405, Note_on_c, 0, 58, 37
1, 77409, Note_on_c, 0, 53, 38
1, 77409, Note_off_c, 0, 70, 63
1, 77439, Note_off_c, 0, 58, 49
1, 77441, Control_c, 0, 67, 88
1, 77443, Note_off_c, 0, 53, 55
1, 77453, Note_on_c, 0, 65, 51
1, 77477, Note_off_c, 0, 65, 60
1, 77537, Control_c, 0, 67, 88
1, 77552, Note_on_c, 0, 62, 57
1, 77587, Note_off_c, 0, 62, 63
1, 77601, Note_on_c, 0, 58, 60
1, 77623, Note_off_c, 0, 58, 63
1, 77640, Control_c, 0, 67, 87
1, 77655, Control_c, 0, 67, 87
1, 77691, Note_on_c, 0, 53, 59
1, 77714, Control_c, 0, 64, 92
1, 77730, Note_off_c, 0, 53, 66
1, 77759, Control_c, 0, 64, 91
1, 77761, Note_on_c, 0, 46, 69
1, 77773, Control_c, 0, 64, 90
1, 77803, Control_c, 0, 64, 90
1, 77847, Control_c, 0, 64, 89
1, 77862, Control_c, 0, 64, 88
1, 77877, Control_c, 0, 64, 86
1, 77892, Control_c, 0, 64, 82
1, 77906, Control_c, 0, 64, 76
1, 77921, Control_c, 0, 64, 71
1, 77926, Note_on_c, 0, 44, 62
1, 77929, Note_on_c, 0, 59, 51
1, 77936, Control_c, 0, 64, 64
1, 77946, Note_on_c, 0, 54, 41
1, 77951, Control_c, 0, 64, 36
1, 77951, Control_c, 0, 67, 87
1, 77953, Note_on_c, 0, 50, 39
1, 77960, Note_off_c, 0, 46, 61
1, 77966, Control_c, 0, 64, 0
1, 77966, Control_c, 0, 67, 88
1, 77996, Control_c, 0, 67, 88
1, 78011, Control_c, 0, 64, 45
1, 78026, Control_c, 0, 64, 64
1, 78040, Control_c, 0, 64, 71
1, 78055, Control_c, 0, 64, 80
1, 78055, Control_c, 0, 67, 89
1, 78062, Note_off_c, 0, 50, 32
1, 78068, Note_off_c, 0, 44, 63
1, 78070, Control_c, 0, 64, 93
1, 78070, Control_c, 0, 67, 89
1, 78085, Control_c, 0, 64, 112
1, 78085, Control_c, 0, 67, 90
1, 78086, Note_on_c, 0, 61, 68
1, 78088, Note_off_c, 0, 59, 60
1, 78090, Note_off_c, 0, 54, 57
1, 78100, Control_c, 0, 64, 127
1, 78115, Note_off_c, 0, 61, 65
1, 78160, Control_c, 0, 67, 90
1, 78189, Control_c, 0, 67, 91
1, 78233, Note_on_c, 0, 58, 79
1, 78234, Control_c, 0, 67, 92
1, 78277, Note_on_c, 0, 59, 38
1, 78300, Control_c, 0, 64, 118
1, 78315, Control_c, 0, 64, 114
1, 78322, Note_on_c, 0, 54, 60
1, 78330, Control_c, 0, 64, 112
1, 78345, Control_c, 0, 64, 112
1, 78360, Poly_aftertouch_c, 0, 62, 127
1, 78360, Control_c, 0, 64, 111
1, 78360, Note_off_c, 0, 54, 66
1, 78374, Control_c, 0, 64, 111
1, 78384, Note_off_c, 0, 59, 58
1, 78389, Control_c, 0, 64, 110
1, 78392, Note_on_c, 0, 66, 64
1, 78397, Poly_aftertouch_c, 0, 62, 0
1, 78419, Control_c, 0, 64, 108
1, 78419, Control_c, 0, 67, 91
1, 78419, Note_off_c, 0, 66, 65
1, 78434, Control_c, 0, 64, 106
1, 78449, Control_c, 0, 64, 104
1, 78449, Control_c, 0, 67, 91
1, 78464, Control_c, 0, 64, 103
1, 78493, Control_c, 0, 64, 102
1, 78508, Control_c, 0, 64, 99
1, 78522, Control_c, 0, 64, 93
1, 78535, Note_on_c, 0, 56, 69
1, 78537, Control_c, 0, 64, 83
1, 78552, Control_c, 0, 64, 74
1, 78559, Note_on_c, 0, 71, 58
1, 78562, Note_on_c, 0, 66, 41
1, 78567, Control_c, 0, 64, 68
1, 78577, Note_off_c, 0, 58, 62
1, 78582, Control_c, 0, 64, 69
1, 78582, Control_c, 0, 67, 90
1, 78592, Note_on_c, 0, 62, 8
1, 78596, Control_c, 0, 64, 72
1, 78596, Control_c, 0, 67, 90
1, 78611, Control_c, 0, 64, 76
1, 78626, Control_c, 0, 64, 80
1, 78633, Note_off_c, 0, 56, 65
1, 78641, Control_c, 0, 64, 85
1, 78646, Note_off_c, 0, 71, 59
1, 78656, Control_c, 0, 64, 88
1, 78658, Note_off_c, 0, 62, 42
1, 78670, Control_c, 0, 64, 89
1, 78685, Control_c, 0, 64, 90
1, 78692, Note_off_c, 0, 66, 62
1, 78696, Note_on_c, 0, 73, 66
1, 78700, Control_c, 0, 67, 89
1, 78714, Note_off_c, 0, 73, 64
1, 78714, Control_c, 0, 67, 89
1, 78759, Control_c, 0, 67, 88
1, 78789, Control_c, 0, 64, 89
1, 78804, Control_c, 0, 64, 88
1, 78830, Note_on_c, 0, 70, 81
1, 78834, Control_c, 0, 64, 88
1, 78848, Control_c, 0, 64, 86
1, 78864, Control_c, 0, 64, 83
1, 78866, Note_on_c, 0, 71, 41
1, 78879, Control_c, 0, 64, 78
1, 78884, Note_on_c, 0, 74, 35
1, 78893, Note_on_c, 0, 66, 72
1, 78893, Control_c, 0, 64, 71
1, 78908, Control_c, 0, 64, 64
1, 78923, Control_c, 0, 64, 59
1, 78938, Control_c, 0, 64, 58
1, 78938, Note_off_c, 0, 74, 43
1, 78946, Note_off_c, 0, 66, 61
1, 78953, Control_c, 0, 64, 62
1, 78953, Control_c, 0, 67, 87
1, 78968, Control_c, 0, 64, 65
1, 78968, Control_c, 0, 67, 87
1, 78969, Note_on_c, 0, 78, 73
1, 78971, Note_off_c, 0, 71, 62
1, 78983, Control_c, 0, 64, 67
1, 78983, Control_c, 0, 67, 86
1, 79001, Note_off_c, 0, 78, 65
1, 79005, Control_c, 0, 64, 72
1, 79019, Control_c, 0, 64, 78
1, 79019, Control_c, 0, 67, 86
1, 79034, Control_c, 0, 64, 85
1, 79034, Control_c, 0, 67, 85
1, 79049, Control_c, 0, 64, 93
1, 79049, Control_c, 0, 67, 85
1, 79064, Control_c, 0, 64, 97
1, 79079, Control_c, 0, 64, 100
1, 79079, Control_c, 0, 67, 84
1, 79093, Control_c, 0, 64, 102
1, 79122, Note_on_c, 0, 68, 69
1, 79123, Control_c, 0, 64, 101
1, 79123, Control_c, 0, 67, 85
1, 79138, Control_c, 0, 64, 92
1, 79138, Control_c, 0, 67, 85
1, 79150, Note_on_c, 0, 83, 56
1, 79152, Control_c, 0, 64, 82
1, 79157, Note_on_c, 0, 74, 33
1, 79158, Note_on_c, 0, 78, 49
1, 79167, Control_c, 0, 64, 74
1, 79169, Note_off_c, 0, 70, 58
1, 79182, Control_c, 0, 64, 68
1, 79197, Control_c, 0, 64, 66
1, 79205, Note_off_c, 0, 74, 46
1, 79212, Control_c, 0, 64, 67
1, 79227, Control_c, 0, 64, 71
1, 79230, Note_off_c, 0, 83, 59
1, 79242, Control_c, 0, 64, 77
1, 79257, Control_c, 0, 64, 82
1, 79267, Note_off_c, 0, 68, 62
1, 79272, Control_c, 0, 64, 88
1, 79276, Note_off_c, 0, 78, 55
1, 79286, Note_on_c, 0, 85, 70
1, 79287, Control_c, 0, 64, 93
1, 79301, Control_c, 0, 64, 99
1, 79301, Control_c, 0, 67, 86
1, 79312, Note_off_c, 0, 85, 64
1, 79316, Control_c, 0, 64, 105
1, 79331, Control_c, 0, 64, 112
1, 79331, Control_c, 0, 67, 87
1, 79345, Control_c, 0, 64, 118
1, 79360, Control_c, 0, 64, 119
1, 79360, Control_c, 0, 67, 87
1, 79375, Control_c, 0, 67, 88
1, 79390, Control_c, 0, 64, 118
1, 79390, Control_c, 0, 67, 89
1, 79405, Control_c, 0, 64, 106
1, 79405, Control_c, 0, 67, 90
1, 79419, Control_c, 0, 64, 91
1, 79419, Control_c, 0, 67, 90
1, 79433, Note_on_c, 0, 82, 57
1, 79434, Control_c, 0, 64, 80
1, 79434, Control_c, 0, 67, 91
1, 79438, Note_on_c, 0, 70, 62
1, 79449, Control_c, 0, 64, 71
1, 79454, Note_on_c, 0, 83, 57
1, 79463, Control_c, 0, 64, 65
1, 79472, Note_on_c, 0, 86, 48
1, 79478, Control_c, 0, 64, 65
1, 79478, Control_c, 0, 67, 92
1, 79493, Control_c, 0, 64, 67
1, 79493, Control_c, 0, 67, 93
1, 79508, Note_off_c, 0, 86, 51
1, 79508, Control_c, 0, 64, 73
1, 79508, Control_c, 0, 67, 94
1, 79513, Note_off_c, 0, 70, 62
1, 79520, Note_off_c, 0, 82, 39
1, 79523, Control_c, 0, 64, 80
1, 79537, Control_c, 0, 64, 86
1, 79537, Control_c, 0, 67, 94
1, 79540, Note_on_c, 0, 78, 61
1, 79552, Control_c, 0, 64, 92
1, 79552, Control_c, 0, 67, 97
1, 79567, Control_c, 0, 64, 96
1, 79567, Control_c, 0, 67, 102
1, 79582, Control_c, 0, 64, 100
1, 79582, Control_c, 0, 67, 109
1, 79583, Note_off_c, 0, 83, 33
1, 79597, Control_c, 0, 64, 104
1, 79597, Control_c, 0, 67, 113
1, 79602, Note_off_c, 0, 78, 60
1, 79611, Note_on_c, 0, 90, 70
1, 79612, Control_c, 0, 64, 110
1, 79612, Control_c, 0, 67, 116
1, 79626, Control_c, 0, 64, 116
1, 79626, Control_c, 0, 67, 117
1, 79632, Note_on_c, 0, 80, 36
1, 79635, Note_off_c, 0, 90, 70
1, 79636, Note_on_c, 0, 68, 52
1, 79641, Control_c, 0, 64, 126
1, 79664, Note_off_c, 0, 80, 52
1, 79680, Note_off_c, 0, 68, 50
1, 79687, Control_c, 0, 67, 116
1, 79716, Control_c, 0, 67, 116
1, 79739, Control_c, 0, 67, 115
1, 79754, Control_c, 0, 64, 119
1, 79754, Control_c, 0, 67, 114
1, 79768, Control_c, 0, 64, 103
1, 79768, Control_c, 0, 67, 113
1, 79783, Control_c, 0, 64, 88
1, 79798, Control_c, 0, 64, 75
1, 79798, Control_c, 0, 67, 113
1, 79813, Control_c, 0, 64, 66
1, 79813, Control_c, 0, 67, 112
1, 79828, Control_c, 0, 64, 65
1, 79828, Control_c, 0, 67, 111
1, 79833, Note_on_c, 0, 67, 71
1, 79838, Note_on_c, 0, 98, 87
1, 79842, Control_c, 0, 64, 67
1, 79842, Control_c, 0, 67, 110
1, 79856, Note_off_c, 0, 67, 68
1, 79857, Control_c, 0, 64, 70
1, 79872, Control_c, 0, 64, 75
1, 79886, Control_c, 0, 64, 79
1, 79901, Control_c, 0, 64, 87
1, 79903, Note_on_c, 0, 95, 75
1, 79910, Note_off_c, 0, 98, 58
1, 79916, Control_c, 0, 64, 92
1, 79931, Control_c, 0, 64, 97
1, 79937, Note_on_c, 0, 91, 73
1, 79945, Control_c, 0, 64, 102
1, 79957, Note_off_c, 0, 95, 66
1, 79960, Control_c, 0, 64, 108
1, 79975, Control_c, 0, 64, 115
1, 79983, Note_off_c, 0, 91, 63
1, 79990, Control_c, 0, 64, 127
1, 79990, Control_c, 0, 67, 109
1, 79990, Note_on_c, 0, 86, 67
1, 80008, Note_off_c, 0, 86, 68
1, 80013, Note_on_c, 0, 74, 52
1, 80016, Note_on_c, 0, 79, 49
1, 80020, Control_c, 0, 67, 109
1, 80035, Note_off_c, 0, 74, 61
1, 80038, Note_off_c, 0, 79, 59
1, 80074, Note_on_c, 0, 83, 66
1, 80079, Control_c, 0, 67, 109
1, 80093, Control_c, 0, 64, 120
1, 80108, Control_c, 0, 64, 119
1, 80115, Note_on_c, 0, 79, 66
1, 80122, Note_off_c, 0, 83, 60
1, 80138, Control_c, 0, 67, 110
1, 80154, Note_off_c, 0, 79, 57
1, 80167, Note_on_c, 0, 74, 62
1, 80167, Control_c, 0, 64, 118
1, 80167, Control_c, 0, 67, 110
1, 80182, Control_c, 0, 64, 117
1, 80197, Note_off_c, 0, 74, 68
1, 80233, Note_on_c, 0, 83, 74
1, 80240, Note_on_c, 0, 79, 25
1, 80254, Note_off_c, 0, 83, 72
1, 80290, Note_on_c, 0, 74, 65
1, 80315, Control_c, 0, 67, 110
1, 80319, Note_off_c, 0, 74, 68
1, 80321, Note_on_c, 0, 86, 68
1, 80348, Note_off_c, 0, 79, 48
1, 80362, Note_off_c, 0, 86, 54
1, 80390, Control_c, 0, 67, 109
1, 80396, Note_on_c, 0, 95, 69
1, 80404, Control_c, 0, 67, 109
1, 80407, Note_on_c, 0, 91, 34
1, 80434, Control_c, 0, 64, 116
1, 80437, Note_off_c, 0, 91, 52
1, 80449, Control_c, 0, 64, 108
1, 80449, Control_c, 0, 67, 109
1, 80452, Note_off_c, 0, 95, 65
1, 80464, Control_c, 0, 64, 93
1, 80487, Control_c, 0, 64, 80
1, 80491, Note_on_c, 0, 60, 54
1, 80491, Note_on_c, 0, 99, 95
1, 80502, Control_c, 0, 64, 69
1, 80516, Control_c, 0, 64, 63
1, 80531, Control_c, 0, 64, 62
1, 80546, Control_c, 0, 64, 64
1, 80561, Control_c, 0, 64, 68
1, 80576, Control_c, 0, 64, 73
1, 80580, Note_off_c, 0, 60, 56
1, 80591, Control_c, 0, 64, 78
1, 80599, Note_on_c, 0, 94, 63
1, 80605, Control_c, 0, 64, 83
1, 80618, Note_off_c, 0, 99, 60
1, 80620, Control_c, 0, 64, 88
1, 80620, Control_c, 0, 67, 110
1, 80635, Control_c, 0, 64, 94
1, 80650, Control_c, 0, 64, 103
1, 80664, Control_c, 0, 64, 111
1, 80664, Control_c, 0, 67, 110
1, 80673, Note_on_c, 0, 70, 50
1, 80673, Note_on_c, 0, 90, 66
1, 80679, Control_c, 0, 64, 122
1, 80688, Note_on_c, 0, 66, 43
1, 80688, Note_off_c, 0, 94, 51
1, 80694, Control_c, 0, 64, 127
1, 80694, Control_c, 0, 67, 111
1, 80708, Note_on_c, 0, 75, 30
1, 80710, Note_off_c, 0, 90, 59
1, 80717, Note_off_c, 0, 70, 58
1, 80724, Control_c, 0, 67, 111
1, 80726, Note_on_c, 0, 87, 68
1, 80732, Note_off_c, 0, 66, 47
1, 80744, Note_off_c, 0, 75, 50
1, 80751, Note_off_c, 0, 87, 70
1, 80783, Control_c, 0, 67, 112
1, 80798, Note_on_c, 0, 101, 90
1, 80798, Control_c, 0, 67, 112
1, 80828, Control_c, 0, 67, 113
1, 80829, Note_off_c, 0, 101, 59
1, 80891, Note_on_c, 0, 94, 65
1, 80952, Note_on_c, 0, 90, 61
1, 80963, Note_on_c, 0, 66, 37
1, 80971, Note_off_c, 0, 94, 52
1, 80976, Note_on_c, 0, 70, 5
1, 80991, Control_c, 0, 67, 112
1, 80993, Note_off_c, 0, 66, 52
1, 81006, Control_c, 0, 67, 112
1, 81016, Note_on_c, 0, 89, 54
1, 81021, Control_c, 0, 67, 111
1, 81032, Note_off_c, 0, 70, 52
1, 81032, Note_off_c, 0, 90, 44
1, 81036, Control_c, 0, 67, 111
1, 81069, Note_off_c, 0, 89, 57
1, 81080, Control_c, 0, 64, 99
1, 81095, Control_c, 0, 64, 83
1, 81102, Note_on_c, 0, 98, 85
1, 81109, Control_c, 0, 64, 72
1, 81120, Note_on_c, 0, 55, 55
1, 81124, Control_c, 0, 64, 65
1, 81139, Control_c, 0, 64, 66
1, 81153, Note_off_c, 0, 55, 63
1, 81154, Control_c, 0, 64, 69
1, 81169, Control_c, 0, 64, 75
1, 81169, Control_c, 0, 67, 111
1, 81179, Note_off_c, 0, 98, 59
1, 81183, Control_c, 0, 64, 83
1, 81183, Control_c, 0, 67, 112
1, 81186, Note_on_c, 0, 95, 65
1, 81198, Control_c, 0, 64, 92
1, 81198, Control_c, 0, 67, 112
1, 81213, Control_c, 0, 64, 103
1, 81228, Control_c, 0, 64, 122
1, 81228, Control_c, 0, 67, 113
1, 81239, Note_on_c, 0, 91, 64
1, 81250, Control_c, 0, 64, 127
1, 81250, Control_c, 0, 67, 114
1, 81259, Note_off_c, 0, 95, 63
1, 81266, Control_c, 0, 67, 114
1, 81278, Note_off_c, 0, 91, 63
1, 81281, Control_c, 0, 67, 115
1, 81293, Note_on_c, 0, 86, 69
1, 81296, Control_c, 0, 67, 115
1, 81313, Note_on_c, 0, 62, 56
1, 81314, Note_on_c, 0, 67, 52
1, 81317, Note_off_c, 0, 86, 70
1, 81338, Note_off_c, 0, 67, 62
1, 81339, Note_on_c, 0, 71, 20
1, 81340, Note_off_c, 0, 62, 63
1, 81340, Control_c, 0, 67, 116
1, 81379, Note_off_c, 0, 71, 51
1, 81380, Note_on_c, 0, 83, 68
1, 81438, Note_off_c, 0, 83, 60
1, 81441, Note_on_c, 0, 79, 64
1, 81466, Note_off_c, 0, 79, 67
1, 81490, Note_on_c, 0, 74, 58
1, 81510, Note_off_c, 0, 74, 64
1, 81549, Control_c, 0, 67, 115
1, 81567, Note_on_c, 0, 71, 64
1, 81602, Note_off_c, 0, 71, 60
1, 81608, Control_c, 0, 67, 116
1, 81619, Note_on_c, 0, 67, 48
1, 81623, Control_c, 0, 67, 116
1, 81647, Note_on_c, 0, 55, 46
1, 81680, Note_on_c, 0, 62, 44
1, 81683, Control_c, 0, 67, 117
1, 81711, Note_off_c, 0, 62, 51
1, 81719, Note_on_c, 0, 71, 53
1, 81720, Note_off_c, 0, 67, 40
1, 81791, Note_on_c, 0, 75, 81
1, 81797, Note_off_c, 0, 55, 42
1, 81801, Control_c, 0, 64, 106
1, 81808, Note_off_c, 0, 71, 36
1, 81810, Note_on_c, 0, 48, 53
1, 81815, Control_c, 0, 64, 92
1, 81830, Control_c, 0, 64, 79
1, 81845, Control_c, 0, 64, 69
1, 81859, Control_c, 0, 64, 61
1, 81874, Control_c, 0, 64, 49
1, 81889, Control_c, 0, 64, 51
1, 81904, Control_c, 0, 64, 60
1, 81919, Control_c, 0, 64, 64
1, 81925, Note_on_c, 0, 70, 57
1, 81934, Control_c, 0, 64, 68
1, 81949, Control_c, 0, 64, 72
1, 81954, Note_off_c, 0, 75, 51
1, 81963, Control_c, 0, 64, 77
1, 81978, Control_c, 0, 64, 83
1, 82001, Control_c, 0, 64, 88
1, 82011, Note_on_c, 0, 66, 57
1, 82015, Control_c, 0, 64, 90
1, 82018, Note_on_c, 0, 53, 39
1, 82024, Note_on_c, 0, 54, 24
1, 82024, Note_off_c, 0, 70, 48
1, 82030, Control_c, 0, 64, 91
1, 82033, Note_on_c, 0, 58, 34
1, 82045, Control_c, 0, 64, 93
1, 82053, Note_off_c, 0, 66, 59
1, 82060, Control_c, 0, 64, 95
1, 82076, Control_c, 0, 64, 97
1, 82081, Note_on_c, 0, 63, 50
1, 82091, Control_c, 0, 64, 100
1, 82106, Control_c, 0, 64, 103
1, 82107, Note_off_c, 0, 63, 61
1, 82120, Control_c, 0, 64, 105
1, 82120, Control_c, 0, 67, 116
1, 82135, Control_c, 0, 64, 106
1, 82154, Note_off_c, 0, 53, 47
1, 82162, Note_on_c, 0, 77, 63
1, 82185, Note_off_c, 0, 77, 60
1, 82199, Note_off_c, 0, 58, 43
1, 82264, Note_on_c, 0, 70, 46
1, 82309, Note_off_c, 0, 70, 56
1, 82328, Note_on_c, 0, 51, 50
1, 82336, Note_on_c, 0, 66, 53
1, 82350, Note_off_c, 0, 48, 23
1, 82360, Note_off_c, 0, 51, 64
1, 82366, Note_off_c, 0, 54, 45
1, 82385, Note_off_c, 0, 66, 51
1, 82402, Control_c, 0, 64, 106
1, 82417, Control_c, 0, 64, 104
1, 82431, Control_c, 0, 64, 101
1, 82434, Note_on_c, 0, 65, 42
1, 82446, Control_c, 0, 64, 97
1, 82461, Control_c, 0, 64, 92
1, 82476, Control_c, 0, 64, 88
1, 82487, Note_off_c, 0, 65, 56
1, 82490, Control_c, 0, 64, 83
1, 82505, Control_c, 0, 64, 75
1, 82520, Control_c, 0, 64, 67
1, 82531, Note_on_c, 0, 74, 54
1, 82535, Control_c, 0, 64, 60
1, 82550, Control_c, 0, 64, 55
1, 82554, Note_on_c, 0, 43, 48
1, 82564, Control_c, 0, 64, 54
1, 82579, Control_c, 0, 64, 55
1, 82579, Control_c, 0, 67, 116
1, 82594, Control_c, 0, 64, 57
1, 82609, Control_c, 0, 64, 61
1, 82624, Control_c, 0, 64, 64
1, 82624, Control_c, 0, 67, 115
1, 82631, Note_off_c, 0, 74, 47
1, 82638, Note_off_c, 0, 43, 62
1, 82638, Control_c, 0, 64, 67
1, 82640, Note_on_c, 0, 71, 45
1, 82653, Control_c, 0, 64, 70
1, 82668, Control_c, 0, 64, 74
1, 82668, Control_c, 0, 67, 115
1, 82682, Control_c, 0, 64, 77
1, 82693, Note_off_c, 0, 71, 56
1, 82697, Control_c, 0, 64, 82
1, 82712, Control_c, 0, 64, 85
1, 82712, Control_c, 0, 67, 114
1, 82727, Control_c, 0, 64, 86
1, 82728, Note_on_c, 0, 67, 37
1, 82768, Note_off_c, 0, 67, 52
1, 82795, Note_on_c, 0, 50, 35
1, 82798, Note_on_c, 0, 55, 23
1, 82810, Note_on_c, 0, 62, 45
1, 82831, Note_off_c, 0, 50, 54
1, 82836, Note_off_c, 0, 62, 58
1, 82839, Note_off_c, 0, 55, 41
1, 82909, Note_on_c, 0, 59, 19
1, 82913, Control_c, 0, 64, 86
1, 82953, Note_off_c, 0, 59, 50
1, 82996, Note_on_c, 0, 55, 35
1, 83052, Note_off_c, 0, 55, 58
1, 83061, Control_c, 0, 64, 85
1, 83109, Note_on_c, 0, 50, 24
1, 83135, Control_c, 0, 64, 85
1, 83159, Note_off_c, 0, 50, 51
1, 83165, Control_c, 0, 64, 84
1, 83209, Note_on_c, 0, 55, 43
1, 83210, Control_c, 0, 64, 84
1, 83210, Control_c, 0, 67, 115
1, 83239, Control_c, 0, 64, 83
1, 83254, Control_c, 0, 64, 83
1, 83266, Note_off_c, 0, 55, 55
1, 83299, Control_c, 0, 64, 82
1, 83319, Note_on_c, 0, 59, 39
1, 83343, Control_c, 0, 64, 82
1, 83364, Note_off_c, 0, 59, 61
1, 83387, Control_c, 0, 64, 81
1, 83402, Control_c, 0, 64, 81
1, 83417, Control_c, 0, 64, 80
1, 83432, Control_c, 0, 64, 80
1, 83432, Control_c, 0, 67, 114
1, 83461, Note_on_c, 0, 58, 43
1, 83461, Control_c, 0, 64, 79
1, 83484, Control_c, 0, 64, 79
1, 83499, Control_c, 0, 64, 78
1, 83513, Control_c, 0, 67, 114
1, 83519, Note_off_c, 0, 58, 57
1, 83524, Note_on_c, 0, 59, 40
1, 83543, Control_c, 0, 64, 78
1, 83543, Control_c, 0, 67, 113
1, 83554, Note_off_c, 0, 59, 58
1, 83573, Note_on_c, 0, 61, 64
1, 83599, Note_off_c, 0, 61, 66
1, 83602, Control_c, 0, 67, 113
1, 83609, Note_on_c, 0, 62, 49
1, 83631, Control_c, 0, 64, 77
1, 83642, Note_off_c, 0, 62, 63
1, 83662, Control_c, 0, 64, 77
1, 83677, Control_c, 0, 64, 76
1, 83691, Note_on_c, 0, 66, 63
1, 83706, Control_c, 0, 64, 75
1, 83706, Control_c, 0, 67, 112
1, 83721, Control_c, 0, 64, 74
1, 83723, Note_off_c, 0, 66, 65
1, 83730, Note_on_c, 0, 67, 62
1, 83735, Control_c, 0, 64, 72
1, 83750, Control_c, 0, 64, 71
1, 83758, Note_off_c, 0, 67, 65
1, 83765, Control_c, 0, 64, 70
1, 83767, Note_on_c, 0, 70, 68
1, 83780, Control_c, 0, 67, 111
1, 83795, Control_c, 0, 67, 111
1, 83796, Note_off_c, 0, 70, 68
1, 83813, Note_on_c, 0, 71, 64
1, 83839, Control_c, 0, 67, 111
1, 83846, Note_off_c, 0, 71, 66
1, 83869, Control_c, 0, 64, 70
1, 83874, Note_on_c, 0, 73, 71
1, 83883, Control_c, 0, 64, 69
1, 83883, Control_c, 0, 67, 112
1, 83898, Control_c, 0, 64, 68
1, 83898, Control_c, 0, 67, 112
1, 83910, Note_on_c, 0, 74, 61
1, 83913, Note_off_c, 0, 73, 63
1, 83928, Control_c, 0, 64, 67
1, 83928, Control_c, 0, 67, 113
1, 83939, Note_off_c, 0, 74, 68
1, 83943, Control_c, 0, 67, 113
1, 83957, Note_on_c, 0, 78, 59
1, 83958, Control_c, 0, 67, 114
1, 83973, Control_c, 0, 67, 114
1, 83977, Note_off_c, 0, 78, 64
1, 83988, Control_c, 0, 67, 115
1, 84002, Control_c, 0, 64, 66
1, 84002, Control_c, 0, 67, 116
1, 84005, Note_on_c, 0, 77, 44
1, 84010, Note_on_c, 0, 79, 67
1, 84017, Control_c, 0, 64, 66
1, 84017, Control_c, 0, 67, 117
1, 84030, Note_off_c, 0, 77, 59
1, 84032, Control_c, 0, 67, 118
1, 84047, Control_c, 0, 67, 118
1, 84047, Note_off_c, 0, 79, 63
1, 84061, Control_c, 0, 64, 65
1, 84061, Control_c, 0, 67, 119
1, 84066, Note_on_c, 0, 82, 68
1, 84076, Control_c, 0, 64, 64
1, 84076, Control_c, 0, 67, 119
1, 84091, Control_c, 0, 64, 64
1, 84091, Control_c, 0, 67, 125
1, 84106, Control_c, 0, 67, 127
1, 84117, Note_on_c, 0, 83, 59
1, 84132, Note_off_c, 0, 82, 61
1, 84135, Control_c, 0, 64, 63
1, 84137, Note_off_c, 0, 83, 65
1, 84150, Control_c, 0, 64, 62
1, 84165, Control_c, 0, 64, 58
1, 84180, Control_c, 0, 64, 49
1, 84187, Note_on_c, 0, 85, 65
1, 84195, Control_c, 0, 64, 42
1, 84209, Control_c, 0, 64, 36
1, 84224, Control_c, 0, 64, 26
1, 84247, Control_c, 0, 64, 0
1, 84256, Note_off_c, 0, 85, 65
1, 84274, Note_on_c, 0, 86, 61
1, 84335, Control_c, 0, 64, 35
1, 84339, Note_off_c, 0, 86, 64
1, 84350, Control_c, 0, 64, 54
1, 84365, Control_c, 0, 64, 63
1, 84380, Control_c, 0, 64, 66
1, 84395, Control_c, 0, 64, 69
1, 84409, Control_c, 0, 64, 73
1, 84424, Control_c, 0, 64, 78
1, 84439, Control_c, 0, 64, 82
1, 84455, Control_c, 0, 64, 83
1, 84588, Control_c, 0, 64, 82
1, 84603, Control_c, 0, 64, 82
1, 84618, Control_c, 0, 64, 81
1, 84625, Note_on_c, 0, 86, 52
1, 84631, Note_on_c, 0, 61, 31
1, 84632, Control_c, 0, 64, 80
1, 84647, Control_c, 0, 64, 78
1, 84662, Control_c, 0, 64, 75
1, 84677, Control_c, 0, 64, 71
1, 84691, Control_c, 0, 64, 68
1, 84706, Control_c, 0, 64, 67
1, 84721, Control_c, 0, 64, 67
1, 84736, Control_c, 0, 64, 68
1, 84751, Control_c, 0, 64, 72
1, 84766, Control_c, 0, 64, 76
1, 84780, Control_c, 0, 64, 80
1, 84795, Control_c, 0, 64, 84
1, 84810, Control_c, 0, 64, 89
1, 84825, Control_c, 0, 64, 93
1, 84829, Note_on_c, 0, 79, 45
1, 84840, Control_c, 0, 64, 98
1, 84849, Note_off_c, 0, 86, 39
1, 84855, Control_c, 0, 64, 105
1, 84870, Control_c, 0, 64, 118
1, 84884, Control_c, 0, 64, 127
1, 84894, Note_off_c, 0, 79, 40
1, 84915, Note_on_c, 0, 65, 32
1, 84935, Note_on_c, 0, 77, 40
1, 84953, Note_off_c, 0, 61, 35
1, 85005, Note_off_c, 0, 77, 51
1, 85016, Note_on_c, 0, 74, 52
1, 85057, Note_off_c, 0, 74, 62
1, 85088, Note_on_c, 0, 85, 63
1, 85156, Note_off_c, 0, 85, 54
1, 85185, Note_on_c, 0, 79, 49
1, 85230, Note_on_c, 0, 71, 42
1, 85235, Note_off_c, 0, 79, 48
1, 85241, Note_on_c, 0, 77, 50
1, 85257, Note_off_c, 0, 65, 40
1, 85263, Note_off_c, 0, 71, 62
1, 85269, Note_off_c, 0, 77, 62
1, 85302, Note_on_c, 0, 73, 27
1, 85358, Note_off_c, 0, 73, 0
1, 85363, Note_on_c, 0, 79, 66
1, 85377, Note_on_c, 0, 73, 39
1, 85414, Note_off_c, 0, 73, 56
1, 85446, Note_off_c, 0, 79, 54
1, 85449, Note_on_c, 0, 77, 61
1, 85503, Note_off_c, 0, 77, 59
1, 85524, Note_on_c, 0, 71, 58
1, 85575, Note_on_c, 0, 67, 49
1, 85605, Note_off_c, 0, 67, 53
1, 85633, Note_on_c, 0, 80, 78
1, 85639, Note_off_c, 0, 71, 40
1, 85660, Note_on_c, 0, 65, 24
1, 85700, Note_off_c, 0, 65, 51
1, 85710, Note_on_c, 0, 77, 52
1, 85764, Note_on_c, 0, 71, 60
1, 85767, Note_off_c, 0, 80, 39
1, 85797, Note_off_c, 0, 77, 57
1, 85841, Note_off_c, 0, 71, 63
1, 85854, Note_on_c, 0, 68, 58
1, 85880, Note_off_c, 0, 68, 65
1, 85937, Control_c, 0, 64, 123
1, 85952, Control_c, 0, 64, 107
1, 85966, Note_on_c, 0, 83, 75
1, 85967, Control_c, 0, 64, 95
1, 85982, Control_c, 0, 64, 81
1, 85994, Note_on_c, 0, 61, 43
1, 85997, Control_c, 0, 64, 70
1, 86012, Control_c, 0, 64, 63
1, 86026, Control_c, 0, 64, 60
1, 86041, Control_c, 0, 64, 59
1, 86057, Control_c, 0, 64, 56
1, 86086, Control_c, 0, 64, 62
1, 86101, Control_c, 0, 64, 66
1, 86107, Note_off_c, 0, 83, 54
1, 86109, Note_on_c, 0, 79, 47
1, 86116, Control_c, 0, 64, 68
1, 86131, Control_c, 0, 64, 71
1, 86146, Control_c, 0, 64, 74
1, 86161, Control_c, 0, 64, 79
1, 86172, Note_on_c, 0, 76, 42
1, 86176, Control_c, 0, 64, 88
1, 86178, Note_off_c, 0, 79, 50
1, 86190, Control_c, 0, 64, 95
1, 86200, Note_off_c, 0, 76, 59
1, 86205, Control_c, 0, 64, 101
1, 86205, Note_on_c, 0, 64, 47
1, 86220, Control_c, 0, 64, 104
1, 86227, Note_on_c, 0, 71, 47
1, 86235, Control_c, 0, 64, 107
1, 86249, Control_c, 0, 64, 109
1, 86250, Note_off_c, 0, 71, 60
1, 86264, Control_c, 0, 64, 110
1, 86265, Note_off_c, 0, 61, 38
1, 86301, Note_on_c, 0, 75, 51
1, 86325, Note_on_c, 0, 67, 48
1, 86334, Note_off_c, 0, 75, 55
1, 86353, Control_c, 0, 64, 109
1, 86361, Note_off_c, 0, 64, 33
1, 86375, Note_on_c, 0, 76, 61
1, 86383, Control_c, 0, 64, 109
1, 86398, Control_c, 0, 64, 108
1, 86410, Note_off_c, 0, 76, 56
1, 86412, Control_c, 0, 64, 107
1, 86427, Control_c, 0, 64, 106
1, 86429, Note_on_c, 0, 77, 71
1, 86441, Note_on_c, 0, 71, 58
1, 86442, Control_c, 0, 64, 105
1, 86462, Note_off_c, 0, 67, 50
1, 86489, Note_off_c, 0, 77, 62
1, 86494, Control_c, 0, 64, 105
1, 86497, Note_on_c, 0, 78, 63
1, 86526, Note_off_c, 0, 78, 65
1, 86560, Note_on_c, 0, 76, 60
1, 86560, Note_on_c, 0, 79, 74
1, 86580, Note_off_c, 0, 71, 54
1, 86600, Note_off_c, 0, 76, 57
1, 86601, Note_off_c, 0, 79, 56
1, 86612, Control_c, 0, 64, 105
1, 86627, Control_c, 0, 64, 106
1, 86629, Note_on_c, 0, 80, 58
1, 86642, Control_c, 0, 64, 108
1, 86655, Note_off_c, 0, 80, 58
1, 86656, Control_c, 0, 64, 110
1, 86693, Note_on_c, 0, 81, 65
1, 86721, Note_off_c, 0, 81, 65
1, 86756, Note_on_c, 0, 82, 60
1, 86796, Note_off_c, 0, 82, 62
1, 86816, Note_on_c, 0, 83, 67
1, 86834, Control_c, 0, 64, 109
1, 86843, Note_off_c, 0, 83, 67
1, 86849, Control_c, 0, 64, 109
1, 86865, Control_c, 0, 64, 108
1, 86879, Control_c, 0, 64, 108
1, 86891, Note_on_c, 0, 88, 70
1, 86900, Poly_aftertouch_c, 0, 71, 127
1, 86925, Poly_aftertouch_c, 0, 71, 0
1, 86951, Note_off_c, 0, 88, 62
1, 86962, Note_on_c, 0, 87, 74
1, 86983, Control_c, 0, 64, 107
1, 87022, Note_off_c, 0, 87, 65
1, 87028, Control_c, 0, 64, 107
1, 87045, Note_on_c, 0, 86, 80
1, 87072, Control_c, 0, 64, 106
1, 87087, Control_c, 0, 64, 105
1, 87093, Note_off_c, 0, 86, 64
1, 87102, Control_c, 0, 64, 104
1, 87117, Control_c, 0, 64, 103
1, 87132, Control_c, 0, 64, 103
1, 87146, Control_c, 0, 64, 102
1, 87161, Control_c, 0, 64, 99
1, 87176, Control_c, 0, 64, 95
1, 87179, Note_on_c, 0, 86, 83
1, 87191, Control_c, 0, 64, 89
1, 87202, Note_on_c, 0, 61, 45
1, 87206, Control_c, 0, 64, 82
1, 87228, Control_c, 0, 64, 73
1, 87243, Control_c, 0, 64, 65
1, 87258, Control_c, 0, 64, 62
1, 87272, Control_c, 0, 64, 61
1, 87287, Control_c, 0, 64, 63
1, 87302, Control_c, 0, 64, 65
1, 87317, Control_c, 0, 64, 67
1, 87332, Control_c, 0, 64, 69
1, 87341, Note_off_c, 0, 86, 50
1, 87344, Note_on_c, 0, 79, 54
1, 87347, Control_c, 0, 64, 71
1, 87361, Control_c, 0, 64, 74
1, 87376, Control_c, 0, 64, 79
1, 87389, Note_off_c, 0, 79, 58
1, 87391, Control_c, 0, 64, 84
1, 87404, Note_on_c, 0, 65, 52
1, 87406, Control_c, 0, 64, 87
1, 87415, Note_on_c, 0, 77, 52
1, 87421, Control_c, 0, 64, 90
1, 87435, Control_c, 0, 64, 92
1, 87450, Control_c, 0, 64, 96
1, 87465, Control_c, 0, 64, 99
1, 87465, Control_c, 0, 67, 126
1, 87479, Control_c, 0, 64, 102
1, 87479, Control_c, 0, 67, 125
1, 87487, Note_on_c, 0, 74, 60
1, 87493, Note_off_c, 0, 61, 34
1, 87494, Control_c, 0, 64, 105
1, 87494, Control_c, 0, 67, 124
1, 87509, Control_c, 0, 64, 111
1, 87509, Control_c, 0, 67, 122
1, 87524, Control_c, 0, 64, 119
1, 87524, Control_c, 0, 67, 121
1, 87530, Note_off_c, 0, 74, 58
1, 87532, Note_on_c, 0, 85, 78
1, 87538, Note_off_c, 0, 77, 35
1, 87539, Control_c, 0, 64, 127
1, 87539, Control_c, 0, 67, 118
1, 87553, Control_c, 0, 67, 114
1, 87568, Control_c, 0, 67, 109
1, 87583, Control_c, 0, 67, 104
1, 87598, Control_c, 0, 67, 101
1, 87602, Note_on_c, 0, 79, 69
1, 87612, Control_c, 0, 67, 98
1, 87620, Note_off_c, 0, 85, 64
1, 87627, Control_c, 0, 67, 94
1, 87641, Note_on_c, 0, 71, 58
1, 87642, Control_c, 0, 67, 89
1, 87654, Note_off_c, 0, 65, 53
1, 87658, Control_c, 0, 67, 86
1, 87666, Note_on_c, 0, 77, 66
1, 87673, Control_c, 0, 67, 83
1, 87684, Note_off_c, 0, 71, 55
1, 87688, Control_c, 0, 67, 81
1, 87692, Note_off_c, 0, 79, 57
1, 87702, Control_c, 0, 67, 80
1, 87715, Note_off_c, 0, 77, 61
1, 87717, Control_c, 0, 67, 77
1, 87718, Note_on_c, 0, 73, 65
1, 87732, Control_c, 0, 67, 76
1, 87737, Note_off_c, 0, 73, 65
1, 87747, Control_c, 0, 67, 73
1, 87762, Control_c, 0, 67, 71
1, 87776, Control_c, 0, 67, 69
1, 87791, Control_c, 0, 67, 67
1, 87798, Note_on_c, 0, 79, 74
1, 87806, Control_c, 0, 67, 65
1, 87809, Note_on_c, 0, 73, 64
1, 87821, Control_c, 0, 67, 62
1, 87836, Control_c, 0, 67, 62
1, 87843, Note_off_c, 0, 73, 63
1, 87851, Control_c, 0, 67, 61
1, 87866, Control_c, 0, 67, 60
1, 87867, Note_on_c, 0, 77, 74
1, 87881, Control_c, 0, 67, 59
1, 87895, Control_c, 0, 67, 56
1, 87899, Note_off_c, 0, 79, 58
1, 87910, Control_c, 0, 67, 54
1, 87925, Control_c, 0, 67, 54
1, 87945, Note_on_c, 0, 71, 67
1, 87948, Note_off_c, 0, 77, 59
1, 87991, Control_c, 0, 67, 54
1, 88000, Note_on_c, 0, 67, 61
1, 88006, Control_c, 0, 67, 56
1, 88021, Control_c, 0, 67, 56
1, 88050, Control_c, 0, 67, 57
1, 88060, Note_off_c, 0, 67, 50
1, 88065, Control_c, 0, 67, 57
1, 88068, Note_on_c, 0, 80, 81
1, 88080, Control_c, 0, 67, 58
1, 88086, Note_on_c, 0, 65, 49
1, 88088, Note_off_c, 0, 71, 40
1, 88113, Note_off_c, 0, 65, 60
1, 88125, Control_c, 0, 67, 58
1, 88146, Note_on_c, 0, 77, 70
1, 88186, Note_off_c, 0, 80, 59
1, 88201, Note_on_c, 0, 71, 67
1, 88241, Note_off_c, 0, 77, 60
1, 88243, Control_c, 0, 67, 59
1, 88280, Note_on_c, 0, 68, 59
1, 88280, Note_off_c, 0, 71, 63
1, 88288, Control_c, 0, 67, 59
1, 88307, Note_off_c, 0, 68, 65
1, 88347, Control_c, 0, 67, 60
1, 88362, Control_c, 0, 64, 106
1, 88362, Control_c, 0, 67, 61
1, 88376, Control_c, 0, 64, 93
1, 88376, Control_c, 0, 67, 61
1, 88378, Note_on_c, 0, 83, 80
1, 88391, Control_c, 0, 64, 81
1, 88391, Control_c, 0, 67, 62
1, 88406, Control_c, 0, 64, 72
1, 88406, Control_c, 0, 67, 62
1, 88407, Note_on_c, 0, 61, 43
1, 88421, Control_c, 0, 64, 65
1, 88435, Control_c, 0, 64, 63
1, 88452, Control_c, 0, 67, 63
1, 88467, Control_c, 0, 64, 64
1, 88481, Control_c, 0, 64, 65
1, 88483, Note_on_c, 0, 79, 65
1, 88496, Control_c, 0, 64, 67
1, 88511, Control_c, 0, 64, 70
1, 88517, Note_off_c, 0, 83, 54
1, 88525, Control_c, 0, 64, 73
1, 88540, Control_c, 0, 64, 76
1, 88554, Note_on_c, 0, 76, 59
1, 88555, Control_c, 0, 64, 81
1, 88566, Note_on_c, 0, 64, 48
1, 88566, Note_off_c, 0, 79, 56
1, 88570, Control_c, 0, 64, 85
1, 88585, Control_c, 0, 64, 89
1, 88587, Note_off_c, 0, 76, 64
1, 88599, Control_c, 0, 64, 93
1, 88614, Note_on_c, 0, 71, 60
1, 88614, Control_c, 0, 64, 95
1, 88629, Control_c, 0, 64, 96
1, 88648, Note_off_c, 0, 71, 62
1, 88663, Note_off_c, 0, 61, 40
1, 88674, Note_on_c, 0, 75, 67
1, 88697, Note_on_c, 0, 67, 56
1, 88703, Control_c, 0, 67, 62
1, 88706, Note_off_c, 0, 75, 63
1, 88755, Control_c, 0, 67, 62
1, 88758, Note_on_c, 0, 76, 69
1, 88768, Note_off_c, 0, 64, 28
1, 88799, Note_off_c, 0, 76, 56
1, 88812, Note_on_c, 0, 71, 66
1, 88814, Note_on_c, 0, 77, 75
1, 88858, Note_off_c, 0, 67, 59
1, 88869, Note_off_c, 0, 77, 61
1, 88877, Note_on_c, 0, 78, 67
1, 88906, Note_off_c, 0, 78, 63
1, 88918, Control_c, 0, 64, 96
1, 88933, Control_c, 0, 64, 97
1, 88933, Note_on_c, 0, 79, 74
1, 88943, Note_on_c, 0, 76, 74
1, 88948, Control_c, 0, 64, 99
1, 88963, Control_c, 0, 64, 100
1, 88974, Note_off_c, 0, 71, 61
1, 88978, Control_c, 0, 64, 102
1, 88978, Note_off_c, 0, 79, 58
1, 88992, Control_c, 0, 64, 103
1, 88997, Note_on_c, 0, 80, 70
1, 89000, Note_off_c, 0, 76, 62
1, 89007, Control_c, 0, 64, 103
1, 89022, Control_c, 0, 64, 104
1, 89037, Control_c, 0, 64, 105
1, 89039, Note_off_c, 0, 80, 58
1, 89051, Control_c, 0, 64, 107
1, 89065, Note_on_c, 0, 81, 71
1, 89066, Control_c, 0, 64, 108
1, 89104, Note_off_c, 0, 81, 60
1, 89111, Control_c, 0, 64, 108
1, 89124, Note_on_c, 0, 82, 72
1, 89126, Control_c, 0, 64, 110
1, 89141, Control_c, 0, 64, 114
1, 89156, Control_c, 0, 64, 118
1, 89171, Control_c, 0, 64, 124
1, 89179, Note_off_c, 0, 82, 61
1, 89186, Control_c, 0, 64, 127
1, 89192, Note_on_c, 0, 83, 73
1, 89226, Note_on_c, 0, 71, 57
1, 89231, Note_off_c, 0, 83, 60
1, 89257, Note_off_c, 0, 71, 67
1, 89264, Note_on_c, 0, 88, 75
1, 89330, Note_off_c, 0, 88, 61
1, 89334, Note_on_c, 0, 87, 79
1, 89404, Note_off_c, 0, 87, 66
1, 89418, Note_on_c, 0, 86, 82
1, 89487, Note_off_c, 0, 86, 61
1, 89564, Control_c, 0, 64, 117
1, 89571, Note_on_c, 0, 49, 75
1, 89574, Note_on_c, 0, 86, 81
1, 89579, Control_c, 0, 64, 109
1, 89594, Control_c, 0, 64, 97
1, 89609, Control_c, 0, 64, 87
1, 89624, Control_c, 0, 64, 75
1, 89624, Control_c, 0, 67, 61
1, 89638, Control_c, 0, 64, 65
1, 89653, Control_c, 0, 64, 51
1, 89668, Control_c, 0, 64, 46
1, 89668, Control_c, 0, 67, 61
1, 89682, Control_c, 0, 64, 52
1, 89697, Control_c, 0, 64, 61
1, 89704, Note_off_c, 0, 86, 61
1, 89712, Control_c, 0, 64, 64
1, 89720, Note_on_c, 0, 83, 50
1, 89727, Control_c, 0, 64, 67
1, 89742, Control_c, 0, 64, 70
1, 89742, Control_c, 0, 67, 60
1, 89756, Control_c, 0, 64, 74
1, 89771, Control_c, 0, 64, 80
1, 89772, Note_off_c, 0, 83, 62
1, 89786, Control_c, 0, 64, 87
1, 89801, Control_c, 0, 64, 92
1, 89816, Control_c, 0, 64, 95
1, 89821, Note_on_c, 0, 77, 49
1, 89822, Note_off_c, 0, 49, 63
1, 89830, Control_c, 0, 64, 97
1, 89845, Control_c, 0, 64, 100
1, 89845, Control_c, 0, 67, 60
1, 89860, Control_c, 0, 64, 104
1, 89868, Note_off_c, 0, 77, 57
1, 89873, Note_on_c, 0, 74, 58
1, 89875, Control_c, 0, 64, 109
1, 89890, Control_c, 0, 64, 111
1, 89905, Control_c, 0, 64, 112
1, 89907, Note_off_c, 0, 74, 66
1, 89920, Control_c, 0, 64, 112
1, 89922, Note_on_c, 0, 85, 81
1, 89934, Control_c, 0, 64, 113
1, 89949, Control_c, 0, 64, 115
1, 89964, Control_c, 0, 64, 116
1, 89997, Note_on_c, 0, 83, 66
1, 90041, Note_off_c, 0, 85, 56
1, 90054, Note_on_c, 0, 77, 62
1, 90065, Note_on_c, 0, 61, 67
1, 90069, Control_c, 0, 64, 115
1, 90095, Note_off_c, 0, 83, 61
1, 90098, Note_off_c, 0, 61, 62
1, 90102, Note_on_c, 0, 65, 36
1, 90111, Note_on_c, 0, 73, 67
1, 90128, Note_off_c, 0, 77, 61
1, 90128, Control_c, 0, 67, 60
1, 90142, Note_off_c, 0, 65, 49
1, 90142, Note_off_c, 0, 73, 66
1, 90172, Control_c, 0, 67, 61
1, 90187, Control_c, 0, 67, 61
1, 90217, Control_c, 0, 67, 62
1, 90218, Note_on_c, 0, 88, 87
1, 90233, Note_on_c, 0, 64, 73
1, 90249, Note_on_c, 0, 71, 56
1, 90253, Control_c, 0, 67, 62
1, 90268, Control_c, 0, 67, 63
1, 90280, Note_on_c, 0, 65, 25
1, 90283, Control_c, 0, 67, 63
1, 90286, Note_off_c, 0, 88, 50
1, 90328, Note_on_c, 0, 83, 65
1, 90328, Control_c, 0, 67, 64
1, 90387, Note_on_c, 0, 77, 58
1, 90393, Note_off_c, 0, 64, 61
1, 90394, Note_off_c, 0, 83, 60
1, 90415, Note_off_c, 0, 71, 30
1, 90417, Control_c, 0, 67, 63
1, 90431, Control_c, 0, 67, 63
1, 90435, Note_off_c, 0, 77, 61
1, 90440, Note_off_c, 0, 65, 38
1, 90444, Note_on_c, 0, 76, 65
1, 90446, Control_c, 0, 67, 62
1, 90483, Note_off_c, 0, 76, 56
1, 90507, Note_on_c, 0, 86, 85
1, 90517, Note_on_c, 0, 62, 55
1, 90520, Control_c, 0, 64, 115
1, 90522, Note_on_c, 0, 65, 31
1, 90550, Note_on_c, 0, 71, 22
1, 90560, Note_off_c, 0, 62, 58
1, 90560, Note_off_c, 0, 65, 53
1, 90576, Note_on_c, 0, 83, 75
1, 90585, Note_off_c, 0, 71, 54
1, 90594, Control_c, 0, 64, 114
1, 90594, Control_c, 0, 67, 62
1, 90597, Note_off_c, 0, 86, 57
1, 90637, Note_on_c, 0, 77, 70
1, 90653, Control_c, 0, 64, 114
1, 90668, Control_c, 0, 64, 113
1, 90669, Note_off_c, 0, 83, 60
1, 90701, Note_on_c, 0, 74, 74
1, 90712, Note_off_c, 0, 77, 62
1, 90712, Control_c, 0, 64, 111
1, 90712, Control_c, 0, 67, 61
1, 90727, Control_c, 0, 64, 100
1, 90742, Control_c, 0, 64, 87
1, 90757, Control_c, 0, 64, 74
1, 90766, Note_off_c, 0, 74, 59
1, 90769, Note_on_c, 0, 86, 85
1, 90772, Control_c, 0, 64, 66
1, 90772, Control_c, 0, 67, 61
1, 90784, Note_on_c, 0, 49, 54
1, 90787, Control_c, 0, 64, 64
1, 90802, Control_c, 0, 64, 65
1, 90802, Control_c, 0, 67, 60
1, 90817, Control_c, 0, 64, 68
1, 90831, Control_c, 0, 64, 72
1, 90846, Note_on_c, 0, 83, 71
1, 90847, Control_c, 0, 64, 79
1, 90861, Control_c, 0, 64, 87
1, 90866, Note_off_c, 0, 86, 62
1, 90876, Control_c, 0, 64, 96
1, 90876, Control_c, 0, 67, 60
1, 90891, Control_c, 0, 64, 102
1, 90891, Control_c, 0, 67, 59
1, 90904, Note_off_c, 0, 49, 63
1, 90906, Control_c, 0, 64, 104
1, 90910, Note_off_c, 0, 83, 63
1, 90918, Note_on_c, 0, 77, 70
1, 90921, Control_c, 0, 64, 106
1, 90921, Control_c, 0, 67, 59
1, 90936, Control_c, 0, 64, 108
1, 90951, Control_c, 0, 64, 110
1, 90966, Control_c, 0, 64, 113
1, 90966, Control_c, 0, 67, 58
1, 90966, Note_on_c, 0, 74, 69
1, 90988, Control_c, 0, 64, 114
1, 90998, Note_off_c, 0, 77, 58
1, 91002, Control_c, 0, 64, 115
1, 91002, Control_c, 0, 67, 58
1, 91008, Note_off_c, 0, 74, 64
1, 91017, Control_c, 0, 64, 118
1, 91032, Control_c, 0, 64, 127
1, 91036, Note_on_c, 0, 85, 92
1, 91057, Note_on_c, 0, 61, 63
1, 91113, Note_on_c, 0, 83, 74
1, 91121, Note_on_c, 0, 82, 51
1, 91140, Note_off_c, 0, 61, 54
1, 91140, Poly_aftertouch_c, 0, 71, 127
1, 91172, Note_off_c, 0, 82, 40
1, 91174, Note_on_c, 0, 77, 68
1, 91195, Control_c, 0, 67, 57
1, 91195, Poly_aftertouch_c, 0, 65, 0
1, 91199, Note_off_c, 0, 85, 53
1, 91209, Note_off_c, 0, 83, 59
1, 91210, Note_on_c, 0, 73, 72
1, 91214, Poly_aftertouch_c, 0, 71, 0
1, 91224, Control_c, 0, 67, 57
1, 91236, Note_off_c, 0, 73, 68
1, 91239, Control_c, 0, 67, 56
1, 91242, Note_off_c, 0, 77, 60
1, 91253, Control_c, 0, 67, 56
1, 91268, Control_c, 0, 67, 55
1, 91283, Control_c, 0, 67, 54
1, 91294, Note_on_c, 0, 86, 87
1, 91303, Note_on_c, 0, 62, 69
1, 91313, Control_c, 0, 67, 53
1, 91327, Control_c, 0, 67, 52
1, 91342, Control_c, 0, 67, 51
1, 91357, Control_c, 0, 67, 50
1, 91359, Note_off_c, 0, 62, 60
1, 91368, Note_on_c, 0, 83, 73
1, 91372, Control_c, 0, 67, 49
1, 91387, Control_c, 0, 67, 48
1, 91389, Poly_aftertouch_c, 0, 71, 127
1, 91399, Note_off_c, 0, 86, 59
1, 91401, Control_c, 0, 67, 46
1, 91416, Control_c, 0, 67, 44
1, 91426, Note_on_c, 0, 77, 70
1, 91429, Poly_aftertouch_c, 0, 71, 0
1, 91431, Control_c, 0, 67, 42
1, 91446, Control_c, 0, 67, 40
1, 91453, Note_off_c, 0, 83, 62
1, 91461, Control_c, 0, 67, 37
1, 91467, Note_on_c, 0, 74, 76
1, 91476, Control_c, 0, 67, 34
1, 91487, Note_off_c, 0, 77, 61
1, 91490, Control_c, 0, 67, 32
1, 91499, Note_off_c, 0, 74, 66
1, 91505, Control_c, 0, 67, 29
1, 91520, Control_c, 0, 67, 25
1, 91535, Control_c, 0, 67, 22
1, 91538, Note_on_c, 0, 64, 62
1, 91542, Note_on_c, 0, 88, 90
1, 91550, Control_c, 0, 67, 19
1, 91565, Control_c, 0, 67, 16
1, 91580, Control_c, 0, 67, 13
1, 91586, Note_off_c, 0, 64, 62
1, 91594, Control_c, 0, 67, 12
1, 91612, Note_off_c, 0, 88, 51
1, 91629, Note_on_c, 0, 83, 47
1, 91666, Note_on_c, 0, 77, 62
1, 91669, Control_c, 0, 67, 13
1, 91672, Note_off_c, 0, 83, 60
1, 91684, Control_c, 0, 67, 14
1, 91696, Note_off_c, 0, 77, 67
1, 91699, Control_c, 0, 67, 15
1, 91721, Control_c, 0, 67, 16
1, 91725, Note_on_c, 0, 76, 70
1, 91736, Control_c, 0, 67, 16
1, 91750, Control_c, 0, 67, 17
1, 91765, Control_c, 0, 67, 18
1, 91780, Note_off_c, 0, 76, 61
1, 91780, Control_c, 0, 67, 18
1, 91810, Control_c, 0, 67, 19
1, 91819, Note_on_c, 0, 91, 92
1, 91824, Control_c, 0, 64, 99
1, 91831, Note_on_c, 0, 54, 55
1, 91839, Control_c, 0, 64, 81
1, 91854, Control_c, 0, 64, 69
1, 91869, Control_c, 0, 64, 64
1, 91900, Note_off_c, 0, 91, 62
1, 91929, Control_c, 0, 64, 65
1, 91933, Note_on_c, 0, 84, 65
1, 91944, Control_c, 0, 64, 68
1, 91958, Control_c, 0, 64, 72
1, 91973, Control_c, 0, 64, 78
1, 91986, Note_on_c, 0, 61, 57
1, 91988, Control_c, 0, 64, 85
1, 92003, Control_c, 0, 64, 93
1, 92003, Note_on_c, 0, 82, 65
1, 92007, Note_off_c, 0, 54, 55
1, 92018, Control_c, 0, 64, 100
1, 92018, Control_c, 0, 67, 18
1, 92032, Control_c, 0, 64, 106
1, 92032, Control_c, 0, 67, 18
1, 92034, Note_off_c, 0, 84, 37
1, 92047, Control_c, 0, 64, 115
1, 92049, Note_on_c, 0, 79, 54
1, 92062, Control_c, 0, 64, 127
1, 92062, Control_c, 0, 67, 17
1, 92075, Note_off_c, 0, 61, 55
1, 92083, Note_off_c, 0, 79, 53
1, 92087, Note_on_c, 0, 90, 88
1, 92099, Note_on_c, 0, 64, 61
1, 92108, Note_off_c, 0, 82, 52
1, 92158, Note_on_c, 0, 84, 70
1, 92170, Note_off_c, 0, 90, 66
1, 92176, Note_off_c, 0, 64, 63
1, 92216, Note_on_c, 0, 70, 62
1, 92218, Note_on_c, 0, 82, 74
1, 92244, Note_off_c, 0, 84, 62
1, 92246, Note_on_c, 0, 78, 73
1, 92251, Note_off_c, 0, 70, 63
1, 92267, Note_off_c, 0, 82, 59
1, 92277, Note_off_c, 0, 78, 62
1, 92329, Note_on_c, 0, 84, 92
1, 92336, Note_on_c, 0, 76, 71
1, 92343, Control_c, 0, 67, 17
1, 92358, Note_off_c, 0, 76, 68
1, 92381, Note_on_c, 0, 82, 83
1, 92423, Note_off_c, 0, 84, 56
1, 92453, Note_on_c, 0, 76, 71
1, 92491, Note_off_c, 0, 82, 64
1, 92526, Note_on_c, 0, 72, 69
1, 92560, Note_off_c, 0, 76, 61
1, 92578, Note_off_c, 0, 72, 62
1, 92591, Note_on_c, 0, 85, 90
1, 92602, Note_on_c, 0, 70, 66
1, 92630, Note_off_c, 0, 70, 66
1, 92649, Note_on_c, 0, 82, 76
1, 92704, Note_on_c, 0, 83, 21
1, 92707, Control_c, 0, 67, 17
1, 92719, Note_on_c, 0, 76, 79
1, 92722, Control_c, 0, 67, 18
1, 92742, Note_off_c, 0, 83, 45
1, 92744, Note_off_c, 0, 82, 63
1, 92745, Note_off_c, 0, 85, 57
1, 92766, Control_c, 0, 67, 18
1, 92787, Note_on_c, 0, 73, 66
1, 92793, Note_off_c, 0, 76, 62
1, 92816, Note_off_c, 0, 73, 67
1, 92870, Control_c, 0, 64, 107
1, 92877, Note_on_c, 0, 88, 86
1, 92885, Control_c, 0, 64, 87
1, 92891, Note_on_c, 0, 54, 62
1, 92899, Control_c, 0, 64, 71
1, 92914, Control_c, 0, 64, 61
1, 92929, Control_c, 0, 64, 52
1, 92944, Control_c, 0, 64, 56
1, 92944, Control_c, 0, 67, 18
1, 92959, Control_c, 0, 64, 63
1, 92973, Control_c, 0, 64, 66
1, 92975, Note_on_c, 0, 84, 66
1, 92988, Control_c, 0, 64, 71
1, 93003, Control_c, 0, 64, 77
1, 93011, Note_off_c, 0, 88, 55
1, 93017, Control_c, 0, 64, 85
1, 93027, Note_off_c, 0, 54, 55
1, 93032, Control_c, 0, 64, 92
1, 93035, Note_on_c, 0, 60, 49
1, 93047, Note_on_c, 0, 81, 68
1, 93047, Control_c, 0, 64, 97
1, 93047, Control_c, 0, 67, 17
1, 93062, Control_c, 0, 64, 101
1, 93065, Note_off_c, 0, 84, 55
1, 93077, Control_c, 0, 64, 106
1, 93083, Note_off_c, 0, 81, 62
1, 93091, Control_c, 0, 64, 112
1, 93095, Note_off_c, 0, 60, 60
1, 93103, Note_on_c, 0, 76, 58
1, 93106, Control_c, 0, 64, 121
1, 93113, Note_on_c, 0, 64, 52
1, 93121, Control_c, 0, 64, 126
1, 93136, Control_c, 0, 64, 127
1, 93137, Note_off_c, 0, 76, 62
1, 93154, Note_off_c, 0, 64, 64
1, 93171, Note_on_c, 0, 80, 64
1, 93193, Note_on_c, 0, 69, 65
1, 93199, Note_off_c, 0, 80, 63
1, 93231, Note_off_c, 0, 69, 65
1, 93249, Note_on_c, 0, 81, 69
1, 93278, Control_c, 0, 67, 17
1, 93281, Note_off_c, 0, 81, 62
1, 93302, Note_on_c, 0, 82, 77
1, 93308, Note_on_c, 0, 72, 54
1, 93322, Control_c, 0, 67, 16
1, 93328, Note_off_c, 0, 72, 63
1, 93342, Note_off_c, 0, 82, 59
1, 93369, Note_on_c, 0, 76, 63
1, 93374, Note_on_c, 0, 83, 72
1, 93400, Note_off_c, 0, 76, 62
1, 93423, Note_off_c, 0, 83, 55
1, 93430, Note_on_c, 0, 84, 85
1, 93446, Note_on_c, 0, 81, 70
1, 93470, Control_c, 0, 67, 17
1, 93481, Note_off_c, 0, 84, 65
1, 93485, Note_on_c, 0, 85, 79
1, 93485, Control_c, 0, 67, 18
1, 93500, Control_c, 0, 67, 18
1, 93507, Note_off_c, 0, 81, 64
1, 93514, Control_c, 0, 67, 19
1, 93529, Control_c, 0, 67, 19
1, 93533, Note_off_c, 0, 85, 60
1, 93541, Note_on_c, 0, 76, 53
1, 93541, Note_on_c, 0, 86, 78
1, 93544, Control_c, 0, 67, 20
1, 93559, Control_c, 0, 67, 21
1, 93574, Control_c, 0, 67, 21
1, 93588, Note_off_c, 0, 86, 64
1, 93589, Control_c, 0, 67, 22
1, 93606, Note_on_c, 0, 87, 81
1, 93613, Note_off_c, 0, 76, 61
1, 93622, Note_on_c, 0, 72, 61
1, 93643, Note_off_c, 0, 87, 62
1, 93647, Note_off_c, 0, 72, 65
1, 93663, Control_c, 0, 67, 21
1, 93678, Note_on_c, 0, 88, 69
1, 93678, Control_c, 0, 67, 21
1, 93693, Note_on_c, 0, 89, 49
1, 93693, Control_c, 0, 67, 20
1, 93701, Note_off_c, 0, 88, 69
1, 93708, Control_c, 0, 67, 20
1, 93710, Note_on_c, 0, 69, 64
1, 93718, Note_off_c, 0, 89, 55
1, 93722, Control_c, 0, 67, 19
1, 93729, Note_on_c, 0, 93, 83
1, 93752, Control_c, 0, 67, 19
1, 93774, Note_off_c, 0, 69, 61
1, 93782, Control_c, 0, 67, 18
1, 93792, Note_on_c, 0, 92, 85
1, 93799, Note_off_c, 0, 93, 63
1, 93802, Note_on_c, 0, 64, 57
1, 93811, Control_c, 0, 67, 18
1, 93840, Note_off_c, 0, 64, 64
1, 93840, Control_c, 0, 67, 17
1, 93853, Note_off_c, 0, 92, 67
1, 93865, Note_on_c, 0, 60, 55
1, 93872, Note_on_c, 0, 91, 93
1, 93895, Note_off_c, 0, 60, 65
1, 93919, Note_off_c, 0, 91, 66
1, 93944, Control_c, 0, 67, 17
1, 93999, Note_on_c, 0, 91, 101
1, 94011, Control_c, 0, 64, 98
1, 94021, Note_on_c, 0, 54, 61
1, 94026, Control_c, 0, 64, 78
1, 94041, Control_c, 0, 64, 64
1, 94057, Control_c, 0, 64, 47
1, 94057, Control_c, 0, 67, 16
1, 94071, Control_c, 0, 64, 54
1, 94086, Control_c, 0, 64, 64
1, 94101, Control_c, 0, 64, 71
1, 94101, Control_c, 0, 67, 16
1, 94116, Control_c, 0, 64, 80
1, 94116, Control_c, 0, 67, 15
1, 94123, Note_on_c, 0, 88, 74
1, 94131, Control_c, 0, 64, 92
1, 94131, Control_c, 0, 67, 14
1, 94144, Note_off_c, 0, 91, 48
1, 94145, Control_c, 0, 64, 109
1, 94145, Control_c, 0, 67, 13
1, 94160, Control_c, 0, 64, 127
1, 94160, Control_c, 0, 67, 12
1, 94175, Control_c, 0, 67, 11
1, 94179, Note_off_c, 0, 54, 64
1, 94190, Note_off_c, 0, 88, 62
1, 94190, Control_c, 0, 67, 11
1, 94193, Note_on_c, 0, 82, 77
1, 94205, Control_c, 0, 67, 9
1, 94219, Control_c, 0, 67, 0
1, 94242, Note_off_c, 0, 82, 64
1, 94251, Note_on_c, 0, 79, 62
1, 94278, Note_off_c, 0, 79, 65
1, 94292, Note_on_c, 0, 90, 89
1, 94365, Note_on_c, 0, 88, 75
1, 94424, Note_on_c, 0, 66, 77
1, 94431, Note_on_c, 0, 82, 80
1, 94453, Note_on_c, 0, 70, 50
1, 94462, Note_off_c, 0, 90, 58
1, 94466, Note_on_c, 0, 76, 39
1, 94471, Note_on_c, 0, 78, 65
1, 94477, Note_off_c, 0, 88, 60
1, 94478, Note_off_c, 0, 66, 61
1, 94492, Note_off_c, 0, 70, 57
1, 94499, Note_off_c, 0, 78, 65
1, 94504, Note_off_c, 0, 82, 60
1, 94507, Note_off_c, 0, 76, 47
1, 94531, Control_c, 0, 67, 8
1, 94545, Control_c, 0, 67, 10
1, 94560, Control_c, 0, 67, 11
1, 94575, Note_on_c, 0, 93, 85
1, 94575, Control_c, 0, 67, 12
1, 94577, Note_on_c, 0, 69, 86
1, 94595, Note_on_c, 0, 70, 67
1, 94609, Note_on_c, 0, 76, 58
1, 94619, Control_c, 0, 67, 12
1, 94671, Note_off_c, 0, 93, 38
1, 94675, Note_on_c, 0, 88, 71
1, 94683, Note_off_c, 0, 76, 49
1, 94693, Control_c, 0, 67, 12
1, 94716, Control_c, 0, 67, 11
1, 94731, Control_c, 0, 67, 11
1, 94741, Note_on_c, 0, 82, 69
1, 94746, Control_c, 0, 67, 10
1, 94747, Note_off_c, 0, 70, 47
1, 94751, Note_off_c, 0, 69, 61
1, 94760, Control_c, 0, 67, 9
1, 94772, Note_off_c, 0, 88, 60
1, 94783, Note_on_c, 0, 81, 68
1, 94790, Control_c, 0, 67, 9
1, 94796, Note_off_c, 0, 82, 60
1, 94804, Control_c, 0, 67, 8
1, 94819, Control_c, 0, 67, 8
1, 94833, Note_off_c, 0, 81, 63
1, 94834, Control_c, 0, 67, 0
1, 94858, Note_on_c, 0, 67, 76
1, 94858, Note_on_c, 0, 91, 88
1, 94871, Note_on_c, 0, 70, 66
1, 94883, Note_on_c, 0, 76, 35
1, 94916, Note_off_c, 0, 76, 53
1, 94918, Note_off_c, 0, 70, 51
1, 94925, Note_off_c, 0, 67, 62
1, 94929, Note_on_c, 0, 88, 79
1, 94961, Note_off_c, 0, 91, 56
1, 94991, Note_on_c, 0, 82, 76
1, 95037, Note_off_c, 0, 88, 60
1, 95048, Note_on_c, 0, 79, 74
1, 95067, Note_off_c, 0, 82, 62
1, 95072, Control_c, 0, 64, 96
1, 95087, Control_c, 0, 64, 79
1, 95101, Control_c, 0, 64, 69
1, 95111, Note_on_c, 0, 54, 62
1, 95115, Note_on_c, 0, 91, 90
1, 95116, Control_c, 0, 64, 67
1, 95126, Note_off_c, 0, 79, 46
1, 95131, Control_c, 0, 64, 70
1, 95146, Control_c, 0, 64, 76
1, 95161, Control_c, 0, 64, 86
1, 95175, Control_c, 0, 64, 100
1, 95184, Note_on_c, 0, 88, 76
1, 95190, Control_c, 0, 64, 127
1, 95226, Note_off_c, 0, 54, 64
1, 95229, Note_off_c, 0, 91, 54
1, 95252, Note_on_c, 0, 82, 78
1, 95261, Note_off_c, 0, 88, 61
1, 95301, Note_on_c, 0, 79, 69
1, 95324, Note_off_c, 0, 82, 63
1, 95328, Note_off_c, 0, 79, 65
1, 95357, Note_on_c, 0, 90, 94
1, 95365, Note_on_c, 0, 66, 78
1, 95394, Note_on_c, 0, 70, 59
1, 95407, Note_on_c, 0, 76, 38
1, 95418, Note_on_c, 0, 88, 73
1, 95440, Note_off_c, 0, 70, 52
1, 95446, Note_off_c, 0, 76, 48
1, 95485, Note_off_c, 0, 66, 58
1, 95487, Note_on_c, 0, 82, 82
1, 95503, Note_off_c, 0, 90, 56
1, 95524, Note_on_c, 0, 78, 74
1, 95529, Note_off_c, 0, 88, 60
1, 95562, Note_off_c, 0, 82, 62
1, 95568, Note_off_c, 0, 78, 62
1, 95605, Note_on_c, 0, 67, 84
1, 95610, Note_on_c, 0, 91, 94
1, 95615, Note_on_c, 0, 70, 54
1, 95687, Note_on_c, 0, 88, 81
1, 95691, Note_off_c, 0, 70, 58
1, 95705, Note_off_c, 0, 67, 64
1, 95733, Note_on_c, 0, 82, 79
1, 95734, Note_off_c, 0, 91, 62
1, 95780, Note_off_c, 0, 88, 61
1, 95783, Note_on_c, 0, 79, 75
1, 95798, Note_off_c, 0, 82, 63
1, 95830, Note_off_c, 0, 79, 62
1, 95857, Note_on_c, 0, 69, 77
1, 95857, Note_on_c, 0, 93, 95
1, 95859, Note_on_c, 0, 70, 44
1, 95893, Note_off_c, 0, 70, 64
1, 95901, Note_off_c, 0, 69, 65
1, 95920, Note_off_c, 0, 93, 44
1, 95938, Note_on_c, 0, 88, 61
1, 95981, Note_on_c, 0, 82, 74
1, 95992, Note_off_c, 0, 88, 53
1, 96027, Note_on_c, 0, 81, 69
1, 96031, Note_off_c, 0, 82, 63
1, 96056, Note_off_c, 0, 81, 66
1, 96117, Note_on_c, 0, 96, 100
1, 96120, Note_on_c, 0, 55, 66
1, 96132, Control_c, 0, 64, 106
1, 96147, Control_c, 0, 64, 79
1, 96162, Control_c, 0, 64, 65
1, 96176, Control_c, 0, 64, 49
1, 96191, Control_c, 0, 64, 55
1, 96206, Note_off_c, 0, 96, 51
1, 96206, Control_c, 0, 64, 64
1, 96228, Control_c, 0, 64, 70
1, 96229, Note_on_c, 0, 89, 69
1, 96242, Control_c, 0, 64, 79
1, 96257, Control_c, 0, 64, 94
1, 96269, Note_off_c, 0, 55, 60
1, 96272, Control_c, 0, 64, 116
1, 96274, Note_on_c, 0, 61, 65
1, 96287, Control_c, 0, 64, 127
1, 96305, Note_on_c, 0, 85, 72
1, 96342, Note_off_c, 0, 89, 56
1, 96350, Note_on_c, 0, 84, 62
1, 96371, Note_off_c, 0, 85, 61
1, 96378, Note_off_c, 0, 84, 67
1, 96382, Note_off_c, 0, 61, 62
1, 96389, Note_on_c, 0, 65, 63
1, 96394, Note_on_c, 0, 94, 93
1, 96406, Control_c, 0, 67, 8
1, 96461, Note_off_c, 0, 65, 60
1, 96466, Note_on_c, 0, 89, 77
1, 96480, Control_c, 0, 67, 8
1, 96509, Note_off_c, 0, 94, 63
1, 96510, Note_on_c, 0, 70, 58
1, 96510, Control_c, 0, 67, 0
1, 96518, Note_on_c, 0, 85, 76
1, 96546, Note_off_c, 0, 89, 62
1, 96547, Note_off_c, 0, 70, 59
1, 96561, Note_on_c, 0, 82, 66
1, 96565, Note_off_c, 0, 85, 63
1, 96581, Note_off_c, 0, 82, 67
1, 96614, Control_c, 0, 64, 116
1, 96629, Note_on_c, 0, 87, 94
1, 96629, Control_c, 0, 64, 88
1, 96631, Note_on_c, 0, 58, 76
1, 96644, Control_c, 0, 64, 75
1, 96659, Control_c, 0, 64, 68
1, 96673, Control_c, 0, 64, 67
1, 96680, Note_on_c, 0, 85, 80
1, 96688, Control_c, 0, 64, 70
1, 96703, Control_c, 0, 64, 74
1, 96718, Control_c, 0, 64, 81
1, 96733, Control_c, 0, 64, 89
1, 96742, Note_off_c, 0, 87, 54
1, 96747, Note_on_c, 0, 80, 77
1, 96747, Control_c, 0, 64, 98
1, 96762, Control_c, 0, 64, 111
1, 96777, Control_c, 0, 64, 127
1, 96780, Note_off_c, 0, 85, 61
1, 96792, Note_on_c, 0, 75, 76
1, 96802, Note_off_c, 0, 58, 60
1, 96821, Note_off_c, 0, 80, 60
1, 96838, Note_off_c, 0, 75, 61
1, 96861, Note_on_c, 0, 88, 94
1, 96867, Note_on_c, 0, 73, 75
1, 96873, Note_on_c, 0, 68, 66
1, 96876, Note_on_c, 0, 64, 66
1, 96905, Note_off_c, 0, 68, 62
1, 96910, Note_off_c, 0, 64, 63
1, 96916, Note_on_c, 0, 85, 81
1, 96948, Note_off_c, 0, 73, 54
1, 96987, Note_on_c, 0, 80, 76
1, 96990, Note_off_c, 0, 88, 60
1, 97021, Note_off_c, 0, 85, 62
1, 97044, Note_on_c, 0, 76, 68
1, 97049, Note_off_c, 0, 80, 62
1, 97086, Note_off_c, 0, 76, 57
1, 97095, Control_c, 0, 64, 97
1, 97110, Control_c, 0, 64, 79
1, 97122, Note_on_c, 0, 91, 84
1, 97125, Control_c, 0, 64, 74
1, 97126, Note_on_c, 0, 61, 74
1, 97139, Control_c, 0, 64, 76
1, 97154, Control_c, 0, 64, 81
1, 97169, Control_c, 0, 64, 92
1, 97184, Control_c, 0, 64, 108
1, 97187, Note_on_c, 0, 88, 76
1, 97199, Control_c, 0, 64, 127
1, 97208, Note_off_c, 0, 91, 59
1, 97247, Note_on_c, 0, 84, 67
1, 97268, Note_on_c, 0, 67, 60
1, 97274, Note_off_c, 0, 61, 52
1, 97282, Note_off_c, 0, 88, 61
1, 97285, Note_off_c, 0, 84, 62
1, 97304, Note_on_c, 0, 79, 71
1, 97336, Note_off_c, 0, 67, 61
1, 97348, Note_off_c, 0, 79, 51
1, 97384, Note_on_c, 0, 71, 58
1, 97384, Note_on_c, 0, 80, 70
1, 97420, Note_off_c, 0, 80, 52
1, 97446, Note_on_c, 0, 81, 71
1, 97449, Note_off_c, 0, 71, 57
1, 97470, Note_on_c, 0, 76, 67
1, 97491, Note_off_c, 0, 81, 62
1, 97500, Note_on_c, 0, 82, 76
1, 97527, Note_off_c, 0, 76, 50
1, 97542, Note_off_c, 0, 82, 60
1, 97566, Note_on_c, 0, 83, 82
1, 97609, Note_on_c, 0, 71, 64
1, 97610, Note_on_c, 0, 67, 65
1, 97614, Note_off_c, 0, 83, 61
1, 97619, Note_on_c, 0, 61, 69
1, 97632, Note_on_c, 0, 84, 84
1, 97660, Note_off_c, 0, 71, 64
1, 97673, Note_off_c, 0, 67, 62
1, 97678, Note_off_c, 0, 84, 65
1, 97682, Note_on_c, 0, 85, 76
1, 97695, Note_off_c, 0, 61, 61
1, 97721, Note_off_c, 0, 85, 63
1, 97744, Note_on_c, 0, 86, 83
1, 97799, Note_off_c, 0, 86, 62
1, 97801, Note_on_c, 0, 87, 90
1, 97834, Note_on_c, 0, 68, 62
1, 97843, Note_on_c, 0, 64, 49
1, 97848, Note_off_c, 0, 87, 65
1, 97852, Note_on_c, 0, 58, 56
1, 97870, Note_on_c, 0, 88, 77
1, 97876, Note_off_c, 0, 64, 66
1, 97881, Note_off_c, 0, 68, 56
1, 97896, Note_off_c, 0, 58, 62
1, 97912, Note_off_c, 0, 88, 61
1, 97938, Note_on_c, 0, 89, 78
1, 97949, Note_on_c, 0, 91, 64
1, 97962, Note_on_c, 0, 90, 87
1, 97964, Note_off_c, 0, 91, 64
1, 97977, Note_off_c, 0, 89, 62
1, 98018, Note_off_c, 0, 90, 66
1, 98024, Note_on_c, 0, 91, 80
1, 98038, Control_c, 0, 64, 119
1, 98045, Note_off_c, 0, 91, 71
1, 98053, Control_c, 0, 64, 84
1, 98058, Note_on_c, 0, 55, 81
1, 98068, Note_on_c, 0, 96, 97
1, 98068, Control_c, 0, 64, 70
1, 98083, Control_c, 0, 64, 66
1, 98098, Control_c, 0, 64, 71
1, 98112, Control_c, 0, 64, 79
1, 98127, Control_c, 0, 64, 91
1, 98142, Control_c, 0, 64, 108
1, 98148, Note_on_c, 0, 61, 69
1, 98157, Control_c, 0, 64, 127
1, 98161, Note_on_c, 0, 89, 78
1, 98161, Note_off_c, 0, 96, 61
1, 98174, Note_off_c, 0, 55, 58
1, 98199, Note_off_c, 0, 61, 62
1, 98224, Note_on_c, 0, 65, 70
1, 98235, Note_on_c, 0, 85, 80
1, 98248, Note_off_c, 0, 65, 68
1, 98261, Note_off_c, 0, 89, 60
1, 98269, Note_on_c, 0, 84, 77
1, 98290, Note_off_c, 0, 85, 64
1, 98314, Note_on_c, 0, 94, 96
1, 98314, Note_off_c, 0, 84, 57
1, 98324, Note_on_c, 0, 67, 64
1, 98361, Note_off_c, 0, 67, 57
1, 98383, Note_on_c, 0, 89, 81
1, 98386, Note_on_c, 0, 92, 40
1, 98403, Note_on_c, 0, 73, 65
1, 98429, Note_off_c, 0, 94, 64
1, 98433, Note_off_c, 0, 73, 65
1, 98439, Note_on_c, 0, 85, 83
1, 98440, Note_off_c, 0, 92, 63
1, 98453, Note_off_c, 0, 89, 61
1, 98478, Note_on_c, 0, 77, 64
1, 98484, Note_on_c, 0, 82, 75
1, 98495, Note_off_c, 0, 85, 65
1, 98509, Note_off_c, 0, 77, 64
1, 98514, Note_off_c, 0, 82, 63
1, 98534, Control_c, 0, 64, 102
1, 98549, Note_on_c, 0, 97, 99
1, 98549, Control_c, 0, 64, 85
1, 98553, Note_on_c, 0, 70, 76
1, 98564, Control_c, 0, 64, 75
1, 98579, Control_c, 0, 64, 70
1, 98594, Control_c, 0, 64, 72
1, 98607, Note_on_c, 0, 92, 88
1, 98608, Control_c, 0, 64, 77
1, 98623, Control_c, 0, 64, 87
1, 98637, Control_c, 0, 64, 100
1, 98652, Control_c, 0, 64, 127
1, 98670, Note_on_c, 0, 76, 71
1, 98670, Note_on_c, 0, 88, 79
1, 98670, Note_off_c, 0, 97, 59
1, 98708, Note_off_c, 0, 70, 62
1, 98712, Note_off_c, 0, 92, 64
1, 98714, Note_on_c, 0, 85, 81
1, 98733, Note_off_c, 0, 88, 65
1, 98733, Note_off_c, 0, 85, 71
1, 98762, Note_on_c, 0, 80, 79
1, 98767, Note_off_c, 0, 76, 61
1, 98774, Note_on_c, 0, 96, 100
1, 98835, Note_on_c, 0, 92, 88
1, 98846, Note_off_c, 0, 80, 63
1, 98867, Note_on_c, 0, 82, 72
1, 98884, Note_on_c, 0, 88, 81
1, 98893, Note_off_c, 0, 96, 58
1, 98894, Note_off_c, 0, 82, 67
1, 98896, Note_on_c, 0, 94, 16
1, 98926, Note_off_c, 0, 92, 65
1, 98934, Note_on_c, 0, 84, 84
1, 98940, Note_off_c, 0, 94, 47
1, 98955, Note_off_c, 0, 88, 64
1, 98979, Control_c, 0, 64, 126
1, 98984, Note_off_c, 0, 84, 64
1, 98994, Control_c, 0, 64, 90
1, 98996, Note_on_c, 0, 96, 97
1, 99005, Note_on_c, 0, 67, 81
1, 99008, Control_c, 0, 64, 71
1, 99023, Control_c, 0, 64, 63
1, 99053, Control_c, 0, 64, 67
1, 99065, Note_on_c, 0, 89, 85
1, 99068, Control_c, 0, 64, 74
1, 99071, Note_off_c, 0, 96, 60
1, 99083, Control_c, 0, 64, 84
1, 99098, Control_c, 0, 64, 100
1, 99113, Control_c, 0, 64, 117
1, 99122, Note_on_c, 0, 73, 79
1, 99125, Note_on_c, 0, 85, 84
1, 99127, Control_c, 0, 64, 127
1, 99142, Note_off_c, 0, 67, 59
1, 99166, Note_on_c, 0, 84, 74
1, 99170, Note_off_c, 0, 89, 63
1, 99193, Note_off_c, 0, 85, 64
1, 99212, Note_off_c, 0, 84, 63
1, 99225, Note_on_c, 0, 94, 97
1, 99261, Note_off_c, 0, 73, 63
1, 99271, Note_on_c, 0, 77, 81
1, 99286, Note_on_c, 0, 89, 90
1, 99288, Note_on_c, 0, 92, 58
1, 99295, Note_on_c, 0, 90, 26
1, 99330, Note_off_c, 0, 90, 50
1, 99339, Note_on_c, 0, 85, 83
1, 99348, Note_off_c, 0, 94, 63
1, 99352, Note_off_c, 0, 92, 65
1, 99353, Note_off_c, 0, 77, 51
1, 99360, Note_off_c, 0, 89, 61
1, 99362, Note_on_c, 0, 82, 86
1, 99384, Note_off_c, 0, 82, 68
1, 99391, Note_off_c, 0, 85, 65
1, 99411, Note_on_c, 0, 83, 38
1, 99431, Note_on_c, 0, 70, 80
1, 99441, Note_on_c, 0, 96, 98
1, 99441, Note_off_c, 0, 83, 39
1, 99446, Control_c, 0, 64, 95
1, 99460, Control_c, 0, 64, 79
1, 99475, Control_c, 0, 64, 70
1, 99490, Control_c, 0, 64, 70
1, 99499, Note_on_c, 0, 92, 89
1, 99505, Control_c, 0, 64, 75
1, 99520, Control_c, 0, 64, 84
1, 99530, Note_off_c, 0, 96, 61
1, 99534, Control_c, 0, 64, 95
1, 99542, Note_on_c, 0, 76, 78
1, 99542, Note_on_c, 0, 88, 82
1, 99544, Note_on_c, 0, 94, 28
1, 99549, Control_c, 0, 64, 109
1, 99564, Control_c, 0, 64, 127
1, 99579, Note_off_c, 0, 70, 61
1, 99579, Note_off_c, 0, 92, 66
1, 99582, Note_off_c, 0, 94, 50
1, 99594, Note_on_c, 0, 84, 80
1, 99620, Note_off_c, 0, 88, 63
1, 99631, Note_off_c, 0, 84, 65
1, 99644, Note_on_c, 0, 80, 74
1, 99651, Note_on_c, 0, 97, 97
1, 99651, Note_off_c, 0, 76, 60
1, 99688, Note_on_c, 0, 98, 48
1, 99699, Note_on_c, 0, 92, 85
1, 99713, Note_off_c, 0, 80, 64
1, 99713, Control_c, 0, 67, 8
1, 99714, Note_off_c, 0, 98, 61
1, 99724, Note_on_c, 0, 82, 75
1, 99728, Control_c, 0, 67, 10
1, 99739, Note_on_c, 0, 93, 50
1, 99743, Control_c, 0, 67, 12
1, 99749, Note_on_c, 0, 88, 70
1, 99756, Note_on_c, 0, 89, 68
1, 99757, Control_c, 0, 67, 15
1, 99762, Note_off_c, 0, 93, 59
1, 99772, Control_c, 0, 67, 17
1, 99773, Note_off_c, 0, 82, 65
1, 99774, Note_off_c, 0, 89, 65
1, 99775, Note_off_c, 0, 97, 63
1, 99787, Control_c, 0, 67, 18
1, 99802, Control_c, 0, 67, 18
1, 99807, Note_off_c, 0, 92, 64
1, 99810, Note_on_c, 0, 85, 81
1, 99816, Control_c, 0, 67, 17
1, 99832, Note_off_c, 0, 85, 70
1, 99832, Note_off_c, 0, 88, 64
1, 99846, Control_c, 0, 67, 17
1, 99861, Control_c, 0, 67, 16
1, 99876, Control_c, 0, 67, 15
1, 99882, Note_on_c, 0, 69, 84
1, 99884, Note_on_c, 0, 98, 99
1, 99891, Control_c, 0, 64, 96
1, 99906, Control_c, 0, 64, 84
1, 99906, Control_c, 0, 67, 15
1, 99920, Control_c, 0, 64, 82
1, 99920, Control_c, 0, 67, 13
1, 99935, Note_on_c, 0, 96, 32
1, 99935, Control_c, 0, 64, 83
1, 99935, Control_c, 0, 67, 12
1, 99950, Control_c, 0, 64, 88
1, 99950, Control_c, 0, 67, 11
1, 99963, Note_on_c, 0, 92, 86
1, 99972, Control_c, 0, 64, 93
1, 99972, Control_c, 0, 67, 10
1, 99978, Note_off_c, 0, 96, 35
1, 99985, Note_on_c, 0, 91, 81
1, 99987, Control_c, 0, 64, 101
1, 99987, Control_c, 0, 67, 9
1, 99988, Note_off_c, 0, 98, 65
1, 100002, Control_c, 0, 64, 118
1, 100002, Control_c, 0, 67, 0
1, 100016, Control_c, 0, 64, 127
1, 100022, Note_on_c, 0, 87, 92
1, 100037, Note_on_c, 0, 75, 74
1, 100066, Note_on_c, 0, 86, 75
1, 100070, Note_off_c, 0, 92, 33
1, 100071, Note_off_c, 0, 91, 65
1, 100083, Note_off_c, 0, 87, 65
1, 100108, Note_off_c, 0, 86, 66
1, 100123, Note_on_c, 0, 96, 96
1, 100145, Note_off_c, 0, 69, 60
1, 100177, Note_on_c, 0, 91, 94
1, 100183, Note_off_c, 0, 75, 64
1, 100196, Note_on_c, 0, 79, 78
1, 100209, Note_off_c, 0, 96, 61
1, 100221, Note_on_c, 0, 87, 96
1, 100244, Note_off_c, 0, 91, 66
1, 100257, Note_on_c, 0, 84, 75
1, 100264, Note_off_c, 0, 79, 61
1, 100278, Note_off_c, 0, 87, 69
1, 100294, Note_off_c, 0, 84, 67
1, 100328, Control_c, 0, 64, 98
1, 100332, Note_on_c, 0, 72, 80
1, 100335, Note_on_c, 0, 99, 105
1, 100342, Control_c, 0, 64, 80
1, 100357, Control_c, 0, 64, 72
1, 100372, Control_c, 0, 64, 71
1, 100387, Control_c, 0, 64, 77
1, 100396, Note_on_c, 0, 94, 91
1, 100402, Control_c, 0, 64, 88
1, 100416, Control_c, 0, 64, 110
1, 100432, Control_c, 0, 64, 127
1, 100453, Note_on_c, 0, 78, 68
1, 100456, Note_on_c, 0, 90, 89
1, 100457, Note_off_c, 0, 99, 58
1, 100464, Note_off_c, 0, 72, 65
1, 100487, Note_off_c, 0, 94, 62
1, 100488, Note_on_c, 0, 87, 88
1, 100512, Note_off_c, 0, 87, 67
1, 100514, Note_off_c, 0, 90, 66
1, 100545, Note_on_c, 0, 82, 83
1, 100546, Note_off_c, 0, 78, 63
1, 100551, Note_on_c, 0, 98, 97
1, 100609, Note_on_c, 0, 94, 91
1, 100627, Note_off_c, 0, 82, 64
1, 100645, Note_on_c, 0, 97, 45
1, 100652, Note_on_c, 0, 84, 61
1, 100661, Note_on_c, 0, 90, 89
1, 100671, Note_on_c, 0, 83, 64
1, 100674, Note_off_c, 0, 98, 62
1, 100682, Note_off_c, 0, 97, 54
1, 100690, Note_off_c, 0, 83, 65
1, 100698, Note_off_c, 0, 84, 63
1, 100701, Note_off_c, 0, 94, 64
1, 100713, Note_on_c, 0, 86, 81
1, 100736, Note_off_c, 0, 90, 66
1, 100759, Note_off_c, 0, 86, 66
1, 100766, Control_c, 0, 64, 112
1, 100775, Note_on_c, 0, 98, 99
1, 100781, Control_c, 0, 64, 86
1, 100785, Note_on_c, 0, 69, 81
1, 100796, Control_c, 0, 64, 71
1, 100811, Control_c, 0, 64, 66
1, 100826, Control_c, 0, 64, 70
1, 100840, Control_c, 0, 64, 77
1, 100841, Note_on_c, 0, 91, 89
1, 100856, Control_c, 0, 64, 90
1, 100863, Note_off_c, 0, 98, 61
1, 100871, Control_c, 0, 64, 113
1, 100886, Control_c, 0, 64, 127
1, 100899, Note_on_c, 0, 87, 87
1, 100907, Note_on_c, 0, 75, 76
1, 100919, Poly_aftertouch_c, 0, 93, 127
1, 100922, Note_off_c, 0, 69, 62
1, 100931, Note_on_c, 0, 86, 78
1, 100936, Note_off_c, 0, 91, 65
1, 100956, Note_off_c, 0, 87, 68
1, 100958, Poly_aftertouch_c, 0, 93, 0
1, 100974, Note_off_c, 0, 86, 65
1, 100985, Note_on_c, 0, 96, 94
1, 101042, Note_on_c, 0, 91, 90
1, 101046, Note_off_c, 0, 75, 63
1, 101052, Note_on_c, 0, 79, 70
1, 101083, Note_on_c, 0, 87, 91
1, 101089, Note_off_c, 0, 96, 61
1, 101116, Note_off_c, 0, 91, 64
1, 101118, Note_off_c, 0, 79, 59
1, 101136, Note_on_c, 0, 84, 81
1, 101151, Note_off_c, 0, 87, 66
1, 101177, Note_off_c, 0, 84, 66
1, 101188, Note_on_c, 0, 72, 82
1, 101196, Control_c, 0, 64, 104
1, 101202, Note_on_c, 0, 98, 100
1, 101211, Control_c, 0, 64, 83
1, 101226, Control_c, 0, 64, 72
1, 101242, Control_c, 0, 64, 70
1, 101256, Control_c, 0, 64, 74
1, 101262, Note_on_c, 0, 94, 97
1, 101271, Control_c, 0, 64, 83
1, 101283, Note_off_c, 0, 98, 67
1, 101286, Control_c, 0, 64, 104
1, 101301, Control_c, 0, 64, 127
1, 101304, Note_on_c, 0, 78, 75
1, 101311, Note_on_c, 0, 90, 84
1, 101313, Note_off_c, 0, 72, 62
1, 101348, Note_off_c, 0, 94, 64
1, 101348, Note_on_c, 0, 86, 81
1, 101381, Note_off_c, 0, 90, 66
1, 101401, Note_on_c, 0, 82, 81
1, 101402, Note_off_c, 0, 86, 65
1, 101405, Note_off_c, 0, 78, 64
1, 101412, Note_on_c, 0, 99, 100
1, 101472, Note_off_c, 0, 82, 66
1, 101476, Note_on_c, 0, 94, 90
1, 101537, Note_on_c, 0, 90, 83
1, 101541, Note_off_c, 0, 99, 63
1, 101557, Note_on_c, 0, 87, 91
1, 101564, Note_off_c, 0, 94, 62
1, 101593, Note_off_c, 0, 90, 66
1, 101596, Note_off_c, 0, 87, 66
1, 101613, Note_on_c, 0, 88, 35
1, 101634, Control_c, 0, 64, 99
1, 101639, Note_on_c, 0, 72, 78
1, 101644, Note_off_c, 0, 88, 39
1, 101646, Note_on_c, 0, 101, 98
1, 101649, Control_c, 0, 64, 86
1, 101664, Control_c, 0, 64, 81
1, 101679, Control_c, 0, 64, 82
1, 101694, Control_c, 0, 64, 89
1, 101709, Note_off_c, 0, 72, 64
1, 101709, Control_c, 0, 64, 101
1, 101724, Control_c, 0, 64, 127
1, 101730, Note_on_c, 0, 94, 87
1, 101736, Note_off_c, 0, 101, 61
1, 101741, Note_on_c, 0, 78, 69
1, 101795, Note_on_c, 0, 90, 85
1, 101822, Note_off_c, 0, 78, 59
1, 101825, Note_on_c, 0, 82, 75
1, 101829, Note_off_c, 0, 94, 61
1, 101849, Note_on_c, 0, 89, 67
1, 101862, Note_off_c, 0, 90, 65
1, 101869, Note_off_c, 0, 82, 65
1, 101875, Note_off_c, 0, 89, 67
1, 101886, Control_c, 0, 64, 108
1, 101894, Note_on_c, 0, 99, 99
1, 101897, Note_on_c, 0, 73, 92
1, 101901, Control_c, 0, 64, 85
1, 101916, Control_c, 0, 64, 71
1, 101930, Control_c, 0, 64, 66
1, 101945, Note_on_c, 0, 100, 21
1, 101945, Control_c, 0, 64, 69
1, 101960, Control_c, 0, 64, 76
1, 101966, Note_on_c, 0, 95, 82
1, 101968, Note_on_c, 0, 79, 70
1, 101974, Control_c, 0, 64, 87
1, 101989, Note_off_c, 0, 100, 30
1, 101989, Control_c, 0, 64, 104
1, 101992, Note_on_c, 0, 97, 49
1, 101995, Note_off_c, 0, 73, 61
1, 102004, Note_on_c, 0, 91, 72
1, 102004, Control_c, 0, 64, 127
1, 102018, Note_off_c, 0, 99, 63
1, 102021, Note_off_c, 0, 97, 59
1, 102027, Note_off_c, 0, 79, 60
1, 102037, Note_on_c, 0, 83, 82
1, 102050, Note_off_c, 0, 95, 66
1, 102055, Note_on_c, 0, 87, 74
1, 102066, Note_off_c, 0, 91, 67
1, 102078, Note_off_c, 0, 87, 68
1, 102094, Control_c, 0, 64, 97
1, 102096, Note_off_c, 0, 83, 60
1, 102105, Note_on_c, 0, 102, 97
1, 102108, Note_on_c, 0, 74, 81
1, 102109, Control_c, 0, 64, 80
1, 102124, Control_c, 0, 64, 72
1, 102139, Control_c, 0, 64, 74
1, 102153, Control_c, 0, 64, 82
1, 102161, Note_on_c, 0, 96, 80
1, 102162, Note_off_c, 0, 74, 65
1, 102168, Control_c, 0, 64, 97
1, 102177, Note_on_c, 0, 80, 77
1, 102183, Control_c, 0, 64, 127
1, 102186, Note_on_c, 0, 99, 41
1, 102219, Note_on_c, 0, 92, 82
1, 102244, Note_off_c, 0, 102, 63
1, 102249, Note_off_c, 0, 99, 65
1, 102252, Note_off_c, 0, 80, 63
1, 102258, Note_on_c, 0, 86, 63
1, 102260, Note_on_c, 0, 90, 74
1, 102260, Note_on_c, 0, 84, 60
1, 102270, Note_off_c, 0, 96, 64
1, 102277, Note_off_c, 0, 86, 66
1, 102278, Note_off_c, 0, 90, 68
1, 102281, Note_off_c, 0, 92, 65
1, 102291, Note_off_c, 0, 84, 66
1, 102294, Control_c, 0, 64, 99
1, 102309, Control_c, 0, 64, 88
1, 102312, Note_on_c, 0, 75, 69
1, 102320, Note_on_c, 0, 101, 97
1, 102324, Control_c, 0, 64, 87
1, 102339, Control_c, 0, 64, 94
1, 102343, Note_on_c, 0, 81, 59
1, 102353, Control_c, 0, 64, 110
1, 102368, Note_on_c, 0, 97, 87
1, 102368, Control_c, 0, 64, 127
1, 102368, Note_off_c, 0, 75, 63
1, 102400, Note_off_c, 0, 81, 63
1, 102402, Note_off_c, 0, 101, 59
1, 102407, Note_on_c, 0, 93, 85
1, 102414, Note_on_c, 0, 85, 83
1, 102451, Note_off_c, 0, 97, 65
1, 102452, Note_off_c, 0, 85, 66
1, 102462, Note_on_c, 0, 89, 82
1, 102475, Note_off_c, 0, 93, 66
1, 102483, Note_off_c, 0, 89, 67
1, 102511, Note_on_c, 0, 72, 81
1, 102518, Note_on_c, 0, 101, 92
1, 102556, Note_off_c, 0, 101, 60
1, 102570, Note_on_c, 0, 94, 91
1, 102574, Note_off_c, 0, 72, 63
1, 102589, Note_on_c, 0, 78, 77
1, 102630, Note_on_c, 0, 90, 90
1, 102642, Note_off_c, 0, 78, 61
1, 102649, Note_on_c, 0, 82, 76
1, 102652, Note_off_c, 0, 94, 62
1, 102666, Note_on_c, 0, 89, 76
1, 102683, Note_off_c, 0, 82, 63
1, 102690, Note_off_c, 0, 90, 66
1, 102699, Note_off_c, 0, 89, 61
1, 102716, Note_on_c, 0, 73, 85
1, 102721, Note_on_c, 0, 99, 100
1, 102771, Note_on_c, 0, 79, 67
1, 102773, Note_on_c, 0, 95, 82
1, 102792, Note_off_c, 0, 73, 61
1, 102800, Note_on_c, 0, 91, 71
1, 102822, Note_on_c, 0, 83, 84
1, 102826, Note_off_c, 0, 99, 66
1, 102829, Note_on_c, 0, 97, 12
1, 102833, Note_off_c, 0, 79, 61
1, 102849, Note_off_c, 0, 95, 67
1, 102852, Note_on_c, 0, 87, 72
1, 102857, Note_off_c, 0, 91, 65
1, 102869, Note_off_c, 0, 87, 69
1, 102877, Note_off_c, 0, 97, 48
1, 102883, Note_off_c, 0, 83, 62
1, 102887, Control_c, 0, 64, 103
1, 102901, Note_on_c, 0, 102, 101
1, 102901, Control_c, 0, 64, 90
1, 102902, Note_on_c, 0, 74, 86
1, 102916, Control_c, 0, 64, 90
1, 102931, Control_c, 0, 64, 97
1, 102946, Control_c, 0, 64, 119
1, 102956, Note_on_c, 0, 96, 92
1, 102966, Note_off_c, 0, 74, 66
1, 102969, Control_c, 0, 64, 127
1, 102979, Note_on_c, 0, 80, 76
1, 102983, Note_on_c, 0, 99, 37
1, 103017, Note_on_c, 0, 92, 83
1, 103025, Note_off_c, 0, 102, 60
1, 103035, Note_off_c, 0, 99, 64
1, 103038, Note_off_c, 0, 80, 63
1, 103045, Note_off_c, 0, 96, 66
1, 103048, Note_on_c, 0, 90, 77
1, 103051, Note_on_c, 0, 84, 53
1, 103059, Note_on_c, 0, 86, 39
1, 103067, Note_off_c, 0, 90, 68
1, 103070, Note_off_c, 0, 92, 66
1, 103080, Note_off_c, 0, 84, 65
1, 103085, Note_off_c, 0, 86, 59
1, 103107, Note_on_c, 0, 75, 71
1, 103107, Note_on_c, 0, 101, 92
1, 103141, Note_on_c, 0, 81, 61
1, 103145, Note_on_c, 0, 97, 79
1, 103163, Note_off_c, 0, 75, 62
1, 103176, Note_on_c, 0, 92, 88
1, 103196, Note_off_c, 0, 81, 62
1, 103202, Note_off_c, 0, 101, 52
1, 103204, Note_on_c, 0, 85, 78
1, 103223, Note_off_c, 0, 85, 72
1, 103227, Poly_aftertouch_c, 0, 99, 127
1, 103238, Note_off_c, 0, 97, 64
1, 103241, Note_on_c, 0, 89, 79
1, 103252, Note_off_c, 0, 92, 67
1, 103263, Poly_aftertouch_c, 0, 99, 0
1, 103265, Control_c, 0, 64, 100
1, 103276, Note_off_c, 0, 89, 63
1, 103280, Control_c, 0, 64, 95
1, 103288, Note_on_c, 0, 72, 81
1, 103295, Control_c, 0, 64, 99
1, 103296, Note_on_c, 0, 101, 96
1, 103309, Control_c, 0, 64, 110
1, 103324, Control_c, 0, 64, 127
1, 103354, Note_on_c, 0, 94, 91
1, 103356, Note_off_c, 0, 72, 60
1, 103357, Note_off_c, 0, 101, 57
1, 103369, Note_on_c, 0, 78, 82
1, 103372, Note_on_c, 0, 97, 50
1, 103401, Note_off_c, 0, 97, 60
1, 103402, Note_on_c, 0, 90, 82
1, 103416, Note_on_c, 0, 82, 78
1, 103420, Note_off_c, 0, 78, 62
1, 103432, Note_on_c, 0, 89, 70
1, 103432, Note_off_c, 0, 94, 65
1, 103456, Note_off_c, 0, 82, 64
1, 103458, Note_off_c, 0, 90, 66
1, 103467, Note_off_c, 0, 89, 56
1, 103485, Note_on_c, 0, 73, 93
1, 103489, Note_on_c, 0, 99, 95
1, 103516, Note_on_c, 0, 100, 56
1, 103536, Note_off_c, 0, 100, 63
1, 103539, Note_on_c, 0, 95, 74
1, 103539, Note_on_c, 0, 79, 63
1, 103555, Note_on_c, 0, 97, 43
1, 103566, Note_off_c, 0, 73, 63
1, 103577, Note_on_c, 0, 91, 76
1, 103584, Note_off_c, 0, 97, 62
1, 103590, Note_off_c, 0, 99, 64
1, 103593, Note_on_c, 0, 83, 84
1, 103596, Note_off_c, 0, 79, 61
1, 103611, Note_off_c, 0, 95, 64
1, 103614, Note_on_c, 0, 87, 73
1, 103621, Note_off_c, 0, 91, 66
1, 103635, Note_off_c, 0, 87, 68
1, 103647, Note_off_c, 0, 83, 64
1, 103669, Note_on_c, 0, 102, 94
1, 103672, Note_on_c, 0, 74, 85
1, 103722, Note_on_c, 0, 96, 78
1, 103724, Note_off_c, 0, 74, 63
1, 103730, Note_on_c, 0, 80, 76
1, 103747, Note_on_c, 0, 95, 50
1, 103769, Note_on_c, 0, 92, 82
1, 103774, Note_off_c, 0, 95, 38
1, 103778, Note_on_c, 0, 84, 71
1, 103784, Note_off_c, 0, 80, 63
1, 103787, Note_off_c, 0, 102, 63
1, 103792, Note_on_c, 0, 90, 76
1, 103804, Note_off_c, 0, 96, 65
1, 103813, Note_off_c, 0, 90, 71
1, 103822, Note_off_c, 0, 92, 67
1, 103830, Note_off_c, 0, 84, 61
1, 103851, Note_on_c, 0, 75, 76
1, 103867, Note_on_c, 0, 101, 79
1, 103874, Note_on_c, 0, 103, 80
1, 103875, Note_on_c, 0, 81, 73
1, 103888, Note_off_c, 0, 103, 70
1, 103902, Note_on_c, 0, 97, 84
1, 103903, Note_off_c, 0, 75, 62
1, 103934, Note_on_c, 0, 93, 86
1, 103935, Note_off_c, 0, 81, 63
1, 103938, Note_on_c, 0, 85, 81
1, 103960, Note_off_c, 0, 101, 62
1, 103974, Note_off_c, 0, 85, 66
1, 103986, Note_off_c, 0, 97, 66
1, 103992, Note_on_c, 0, 89, 78
1, 103998, Note_off_c, 0, 93, 66
1, 103998, Poly_aftertouch_c, 0, 99, 0
1, 104013, Control_c, 0, 64, 104
1, 104028, Control_c, 0, 64, 91
1, 104030, Note_off_c, 0, 89, 61
1, 104040, Note_on_c, 0, 72, 67
1, 104043, Control_c, 0, 64, 89
1, 104047, Note_on_c, 0, 71, 72
1, 104048, Note_on_c, 0, 101, 92
1, 104058, Control_c, 0, 64, 95
1, 104061, Note_off_c, 0, 71, 68
1, 104073, Control_c, 0, 64, 105
1, 104087, Note_off_c, 0, 72, 60
1, 104088, Control_c, 0, 64, 127
1, 104097, Note_off_c, 0, 101, 54
1, 104099, Note_on_c, 0, 94, 88
1, 104114, Note_on_c, 0, 78, 81
1, 104124, Note_on_c, 0, 97, 36
1, 104144, Note_on_c, 0, 90, 82
1, 104152, Note_on_c, 0, 82, 76
1, 104155, Note_off_c, 0, 97, 55
1, 104168, Note_off_c, 0, 78, 62
1, 104174, Note_off_c, 0, 94, 65
1, 104189, Note_on_c, 0, 89, 70
1, 104201, Note_off_c, 0, 82, 65
1, 104211, Note_off_c, 0, 89, 68
1, 104219, Note_off_c, 0, 90, 64
1, 104231, Note_on_c, 0, 73, 86
1, 104235, Note_on_c, 0, 99, 98
1, 104287, Note_on_c, 0, 79, 64
1, 104290, Note_on_c, 0, 95, 71
1, 104294, Note_on_c, 0, 97, 38
1, 104309, Note_off_c, 0, 73, 62
1, 104320, Note_on_c, 0, 91, 81
1, 104334, Note_on_c, 0, 83, 87
1, 104335, Note_off_c, 0, 97, 63
1, 104338, Note_off_c, 0, 79, 56
1, 104346, Note_on_c, 0, 87, 76
1, 104347, Note_off_c, 0, 99, 64
1, 104353, Note_off_c, 0, 95, 67
1, 104362, Note_off_c, 0, 91, 67
1, 104368, Note_off_c, 0, 87, 72
1, 104386, Note_off_c, 0, 83, 65
1, 104398, Control_c, 0, 64, 124
1, 104413, Control_c, 0, 64, 109
1, 104415, Note_on_c, 0, 74, 88
1, 104417, Note_on_c, 0, 101, 95
1, 104429, Control_c, 0, 64, 110
1, 104444, Control_c, 0, 64, 127
1, 104472, Note_off_c, 0, 74, 65
1, 104478, Note_on_c, 0, 96, 74
1, 104482, Note_on_c, 0, 80, 78
1, 104483, Note_on_c, 0, 95, 81
1, 104520, Note_on_c, 0, 92, 91
1, 104532, Note_off_c, 0, 101, 64
1, 104538, Note_on_c, 0, 84, 75
1, 104545, Note_off_c, 0, 96, 42
1, 104547, Note_off_c, 0, 95, 67
1, 104548, Note_off_c, 0, 80, 63
1, 104561, Note_on_c, 0, 89, 85
1, 104587, Note_off_c, 0, 92, 67
1, 104595, Note_off_c, 0, 84, 61
1, 104603, Note_off_c, 0, 89, 62
1, 104608, Note_on_c, 0, 75, 74
1, 104627, Note_on_c, 0, 102, 101
1, 104634, Note_on_c, 0, 81, 70
1, 104655, Note_on_c, 0, 97, 83
1, 104669, Note_off_c, 0, 75, 63
1, 104696, Note_on_c, 0, 94, 93
1, 104699, Note_on_c, 0, 85, 85
1, 104705, Note_off_c, 0, 81, 64
1, 104729, Note_off_c, 0, 102, 64
1, 104735, Note_off_c, 0, 85, 65
1, 104742, Note_off_c, 0, 97, 65
1, 104761, Note_off_c, 0, 94, 67
1, 104776, Note_on_c, 0, 90, 38
1, 104806, Note_off_c, 0, 90, 57
1, 104940, Note_on_c, 0, 56, 92
1, 104941, Note_on_c, 0, 94, 98
1, 104945, Note_on_c, 0, 99, 97
1, 104946, Note_on_c, 0, 106, 97
1, 104954, Control_c, 0, 64, 106
1, 104969, Control_c, 0, 64, 79
1, 104984, Control_c, 0, 64, 57
1, 104998, Control_c, 0, 64, 0
1, 105009, Note_off_c, 0, 106, 65
1, 105027, Note_off_c, 0, 94, 66
1, 105028, Control_c, 0, 64, 59
1, 105043, Control_c, 0, 64, 76
1, 105049, Note_off_c, 0, 99, 63
1, 105058, Control_c, 0, 64, 110
1, 105072, Control_c, 0, 64, 127
1, 105142, Note_on_c, 0, 58, 84
1, 105168, Note_off_c, 0, 56, 63
1, 105223, Note_on_c, 0, 61, 83
1, 105233, Note_off_c, 0, 58, 60
1, 105265, Note_on_c, 0, 63, 82
1, 105280, Note_off_c, 0, 61, 65
1, 105304, Note_on_c, 0, 66, 81
1, 105315, Note_off_c, 0, 63, 62
1, 105323, Note_off_c, 0, 66, 71
1, 105351, Note_on_c, 0, 68, 81
1, 105390, Note_on_c, 0, 70, 74
1, 105427, Note_on_c, 0, 73, 83
1, 105442, Note_off_c, 0, 68, 57
1, 105465, Note_on_c, 0, 75, 76
1, 105492, Note_on_c, 0, 78, 84
1, 105500, Note_off_c, 0, 70, 62
1, 105511, Note_off_c, 0, 73, 64
1, 105522, Note_off_c, 0, 75, 63
1, 105533, Note_off_c, 0, 78, 64
1, 105546, Note_on_c, 0, 68, 89
1, 105621, Note_on_c, 0, 70, 77
1, 105640, Note_off_c, 0, 68, 65
1, 105646, Note_on_c, 0, 73, 84
1, 105688, Note_on_c, 0, 75, 73
1, 105693, Note_off_c, 0, 70, 65
1, 105695, Note_on_c, 0, 80, 76
1, 105716, Note_off_c, 0, 73, 67
1, 105718, Note_on_c, 0, 78, 81
1, 105724, Note_off_c, 0, 75, 61
1, 105739, Note_on_c, 0, 82, 84
1, 105756, Note_off_c, 0, 78, 63
1, 105770, Note_on_c, 0, 85, 87
1, 105773, Note_off_c, 0, 80, 61
1, 105796, Note_on_c, 0, 87, 90
1, 105820, Note_on_c, 0, 90, 94
1, 105820, Note_off_c, 0, 82, 66
1, 105840, Note_off_c, 0, 85, 65
1, 105853, Note_off_c, 0, 87, 65
1, 105864, Note_off_c, 0, 90, 64
1, 105901, Note_on_c, 0, 80, 84
1, 105903, Note_on_c, 0, 82, 90
1, 105903, Note_on_c, 0, 85, 95
1, 105977, Note_off_c, 0, 82, 64
1, 105987, Note_off_c, 0, 80, 60
1, 105989, Note_off_c, 0, 85, 62
1, 106007, Note_on_c, 0, 87, 90
1, 106009, Note_on_c, 0, 92, 84
1, 106012, Note_on_c, 0, 94, 83
1, 106019, Note_on_c, 0, 90, 56
1, 106020, Note_off_c, 0, 90, 127
1, 106048, Note_off_c, 0, 87, 63
1, 106055, Note_off_c, 0, 92, 65
1, 106056, Note_off_c, 0, 94, 62
1, 106062, Note_on_c, 0, 80, 79
1, 106064, Note_on_c, 0, 85, 88
1, 106066, Note_on_c, 0, 82, 79
1, 106088, Note_off_c, 0, 82, 67
1, 106103, Poly_aftertouch_c, 0, 92, 0
1, 106105, Note_off_c, 0, 85, 66
1, 106106, Note_off_c, 0, 80, 62
1, 106106, Note_on_c, 0, 94, 81
1, 106109, Note_on_c, 0, 92, 77
1, 106111, Note_on_c, 0, 90, 80
1, 106112, Note_on_c, 0, 87, 76
1, 106133, Note_off_c, 0, 87, 71
1, 106145, Note_off_c, 0, 90, 59
1, 106148, Note_off_c, 0, 94, 66
1, 106150, Note_off_c, 0, 92, 62
1, 106158, Note_on_c, 0, 80, 77
1, 106159, Note_on_c, 0, 82, 88
1, 106165, Note_on_c, 0, 85, 77
1, 106178, Note_off_c, 0, 82, 70
1, 106186, Note_off_c, 0, 80, 62
1, 106186, Note_off_c, 0, 85, 69
1, 106188, Poly_aftertouch_c, 0, 94, 0
1, 106192, Note_on_c, 0, 90, 82
1, 106194, Note_on_c, 0, 92, 72
1, 106195, Note_on_c, 0, 94, 71
1, 106207, Note_on_c, 0, 87, 75
1, 106223, Note_off_c, 0, 87, 70
1, 106230, Note_off_c, 0, 90, 61
1, 106234, Note_off_c, 0, 92, 63
1, 106237, Note_on_c, 0, 80, 80
1, 106238, Note_off_c, 0, 94, 62
1, 106239, Note_on_c, 0, 82, 85
1, 106246, Note_on_c, 0, 85, 78
1, 106257, Note_off_c, 0, 82, 69
1, 106259, Note_off_c, 0, 80, 67
1, 106265, Note_off_c, 0, 85, 71
1, 106273, Note_on_c, 0, 90, 80
1, 106274, Note_on_c, 0, 94, 75
1, 106276, Note_on_c, 0, 87, 82
1, 106278, Note_on_c, 0, 92, 67
1, 106301, Note_off_c, 0, 87, 65
1, 106310, Note_off_c, 0, 90, 63
1, 106313, Note_off_c, 0, 92, 63
1, 106315, Note_on_c, 0, 80, 81
1, 106316, Note_on_c, 0, 82, 87
1, 106320, Note_on_c, 0, 85, 86
1, 106323, Note_off_c, 0, 94, 63
1, 106336, Note_off_c, 0, 82, 68
1, 106338, Note_off_c, 0, 80, 66
1, 106338, Note_off_c, 0, 85, 70
1, 106354, Poly_aftertouch_c, 0, 92, 0
1, 106355, Note_on_c, 0, 90, 75
1, 106355, Note_on_c, 0, 94, 72
1, 106360, Note_on_c, 0, 87, 79
1, 106362, Note_on_c, 0, 92, 68
1, 106379, Note_off_c, 0, 87, 72
1, 106388, Note_on_c, 0, 80, 84
1, 106391, Note_on_c, 0, 82, 91
1, 106391, Note_off_c, 0, 90, 64
1, 106395, Note_off_c, 0, 92, 64
1, 106399, Note_on_c, 0, 85, 82
1, 106404, Note_off_c, 0, 94, 65
1, 106415, Note_off_c, 0, 82, 62
1, 106416, Note_off_c, 0, 85, 73
1, 106420, Note_off_c, 0, 80, 58
1, 106432, Note_on_c, 0, 90, 77
1, 106435, Poly_aftertouch_c, 0, 92, 0
1, 106436, Note_on_c, 0, 87, 89
1, 106437, Note_on_c, 0, 94, 69
1, 106443, Note_on_c, 0, 92, 67
1, 106458, Note_off_c, 0, 87, 62
1, 106469, Note_off_c, 0, 92, 68
1, 106469, Note_on_c, 0, 80, 84
1, 106471, Note_off_c, 0, 90, 64
1, 106476, Note_on_c, 0, 82, 87
1, 106478, Note_on_c, 0, 85, 89
1, 106481, Note_off_c, 0, 94, 66
1, 106505, Note_off_c, 0, 82, 60
1, 106505, Note_off_c, 0, 85, 61
1, 106511, Note_on_c, 0, 87, 86
1, 106511, Note_on_c, 0, 90, 78
1, 106511, Note_off_c, 0, 80, 61
1, 106517, Note_on_c, 0, 94, 62
1, 106523, Note_on_c, 0, 92, 77
1, 106559, Note_on_c, 0, 80, 77
1, 106559, Note_off_c, 0, 92, 55
1, 106560, Note_on_c, 0, 82, 90
1, 106562, Note_off_c, 0, 94, 64
1, 106565, Note_on_c, 0, 85, 87
1, 106565, Note_off_c, 0, 90, 0
1, 106575, Note_on_c, 0, 90, 71
1, 106581, Note_off_c, 0, 80, 65
1, 106585, Note_on_c, 0, 92, 64
1, 106593, Note_off_c, 0, 82, 63
1, 106601, Note_on_c, 0, 94, 41
1, 106607, Note_off_c, 0, 87, 64
1, 106619, Note_off_c, 0, 90, 67
1, 106625, Note_on_c, 0, 82, 83
1, 106625, Note_off_c, 0, 94, 60
1, 106625, Note_on_c, 0, 80, 87
1, 106627, Note_off_c, 0, 92, 67
1, 106654, Note_off_c, 0, 85, 66
1, 106667, Note_off_c, 0, 82, 65
1, 106670, Note_off_c, 0, 80, 67
1, 106786, Note_on_c, 0, 106, 85
1, 106813, Note_on_c, 0, 104, 81
1, 106846, Note_on_c, 0, 102, 71
1, 106857, Note_off_c, 0, 106, 65
1, 106887, Note_on_c, 0, 99, 83
1, 106887, Note_off_c, 0, 104, 66
1, 106912, Note_off_c, 0, 102, 65
1, 106914, Note_on_c, 0, 97, 77
1, 106945, Note_off_c, 0, 99, 65
1, 106946, Note_on_c, 0, 94, 86
1, 106964, Note_off_c, 0, 97, 66
1, 106966, Note_on_c, 0, 92, 87
1, 106985, Note_on_c, 0, 90, 92
1, 106988, Note_off_c, 0, 94, 69
1, 107005, Note_off_c, 0, 92, 69
1, 107008, Note_on_c, 0, 87, 90
1, 107020, Note_off_c, 0, 90, 69
1, 107028, Note_on_c, 0, 85, 89
1, 107048, Note_off_c, 0, 87, 69
1, 107052, Note_on_c, 0, 82, 89
1, 107063, Note_off_c, 0, 85, 68
1, 107069, Note_on_c, 0, 80, 88
1, 107087, Note_on_c, 0, 78, 92
1, 107090, Note_off_c, 0, 82, 69
1, 107106, Note_off_c, 0, 80, 68
1, 107107, Note_on_c, 0, 75, 95
1, 107123, Note_off_c, 0, 78, 68
1, 107126, Note_on_c, 0, 73, 92
1, 107150, Note_off_c, 0, 75, 69
1, 107152, Note_on_c, 0, 70, 89
1, 107170, Note_off_c, 0, 73, 66
1, 107170, Note_on_c, 0, 68, 92
1, 107189, Note_on_c, 0, 66, 94
1, 107194, Note_off_c, 0, 70, 68
1, 107209, Note_off_c, 0, 68, 66
1, 107210, Note_on_c, 0, 63, 94
1, 107227, Note_off_c, 0, 66, 66
1, 107230, Note_on_c, 0, 61, 91
1, 107254, Note_on_c, 0, 58, 93
1, 107256, Note_off_c, 0, 63, 67
1, 107277, Note_on_c, 0, 56, 87
1, 107280, Note_off_c, 0, 61, 66
1, 107302, Note_on_c, 0, 54, 89
1, 107314, Note_off_c, 0, 58, 69
1, 107331, Note_on_c, 0, 51, 88
1, 107332, Note_off_c, 0, 56, 68
1, 107355, Note_on_c, 0, 49, 91
1, 107355, Note_off_c, 0, 54, 67
1, 107386, Note_off_c, 0, 51, 68
1, 107387, Note_on_c, 0, 46, 84
1, 107414, Note_off_c, 0, 49, 66
1, 107421, Note_on_c, 0, 44, 80
1, 107483, Note_off_c, 0, 46, 59
1, 107504, Note_off_c, 0, 44, 63
1, 107580, Note_on_c, 0, 44, 103
1, 107612, Note_off_c, 0, 44, 69
1, 107700, Note_on_c, 0, 49, 64
1, 107784, Note_on_c, 0, 52, 63
1, 107785, Note_off_c, 0, 49, 56
1, 107820, Note_off_c, 0, 52, 62
1, 107826, Note_on_c, 0, 54, 67
1, 107919, Note_on_c, 0, 58, 70
1, 107921, Note_off_c, 0, 54, 63
1, 107924, Note_on_c, 0, 32, 101
1, 107965, Note_off_c, 0, 32, 66
1, 107999, Note_on_c, 0, 54, 74
1, 108081, Note_on_c, 0, 51, 82
1, 108125, Note_off_c, 0, 54, 55
1, 108176, Note_on_c, 0, 49, 81
1, 108209, Note_off_c, 0, 51, 59
1, 108246, Note_off_c, 0, 58, 40
1, 108302, Note_off_c, 0, 49, 56
1, 108330, Note_on_c, 0, 21, 91
1, 108464, Note_on_c, 0, 49, 71
1, 108529, Note_on_c, 0, 51, 68
1, 108532, Note_off_c, 0, 21, 57
1, 108544, Note_off_c, 0, 49, 58
1, 108583, Note_on_c, 0, 54, 69
1, 108611, Note_off_c, 0, 51, 55
1, 108643, Note_on_c, 0, 58, 74
1, 108647, Note_off_c, 0, 54, 64
1, 108717, Note_on_c, 0, 54, 72
1, 108735, Note_off_c, 0, 58, 57
1, 108792, Note_off_c, 0, 54, 63
1, 108798, Note_on_c, 0, 51, 73
1, 108847, Note_on_c, 0, 49, 69
1, 108867, Note_off_c, 0, 51, 56
1, 108900, Note_off_c, 0, 49, 58
1, 108967, Note_on_c, 0, 44, 77
1, 109096, Note_on_c, 0, 49, 62
1, 109097, Note_off_c, 0, 44, 57
1, 109152, Note_on_c, 0, 51, 46
1, 109161, Note_off_c, 0, 49, 53
1, 109188, Note_on_c, 0, 54, 64
1, 109210, Note_off_c, 0, 51, 55
1, 109249, Note_off_c, 0, 54, 64
1, 109266, Note_on_c, 0, 58, 62
1, 109307, Note_off_c, 0, 58, 56
1, 109337, Note_on_c, 0, 54, 57
1, 109373, Note_off_c, 0, 54, 61
1, 109379, Note_on_c, 0, 51, 55
1, 109463, Note_off_c, 0, 51, 57
1, 109474, Note_on_c, 0, 49, 61
1, 109531, Note_off_c, 0, 49, 62
1, 109542, Note_on_c, 0, 44, 74
1, 109678, Note_off_c, 0, 44, 55
1, 109697, Note_on_c, 0, 49, 47
1, 109751, Note_off_c, 0, 49, 56
1, 109758, Note_on_c, 0, 51, 46
1, 109820, Note_off_c, 0, 51, 54
1, 109835, Note_on_c, 0, 54, 45
1, 109882, Note_off_c, 0, 54, 58
1, 109914, Note_on_c, 0, 58, 56
1, 109963, Note_off_c, 0, 58, 53
1, 109973, Control_c, 0, 67, 8
1, 109988, Control_c, 0, 67, 9
1, 109990, Note_on_c, 0, 54, 50
1, 110002, Control_c, 0, 67, 11
1, 110018, Note_off_c, 0, 54, 65
1, 110018, Control_c, 0, 67, 12
1, 110033, Control_c, 0, 67, 14
1, 110047, Note_on_c, 0, 51, 58
1, 110048, Control_c, 0, 67, 15
1, 110063, Control_c, 0, 67, 17
1, 110078, Control_c, 0, 67, 20
1, 110092, Control_c, 0, 67, 24
1, 110107, Control_c, 0, 67, 27
1, 110122, Control_c, 0, 67, 29
1, 110126, Note_off_c, 0, 51, 58
1, 110137, Control_c, 0, 67, 30
1, 110150, Note_on_c, 0, 49, 51
1, 110151, Control_c, 0, 67, 32
1, 110166, Control_c, 0, 67, 34
1, 110181, Control_c, 0, 67, 36
1, 110196, Control_c, 0, 67, 39
1, 110211, Control_c, 0, 67, 40
1, 110225, Control_c, 0, 67, 41
1, 110227, Note_on_c, 0, 44, 69
1, 110231, Note_off_c, 0, 49, 59
1, 110255, Control_c, 0, 67, 42
1, 110270, Control_c, 0, 67, 44
1, 110285, Control_c, 0, 67, 46
1, 110300, Control_c, 0, 67, 48
1, 110315, Control_c, 0, 67, 50
1, 110330, Control_c, 0, 67, 53
1, 110344, Control_c, 0, 67, 55
1, 110359, Control_c, 0, 67, 58
1, 110374, Control_c, 0, 67, 60
1, 110389, Control_c, 0, 67, 61
1, 110400, Note_on_c, 0, 49, 44
1, 110400, Note_off_c, 0, 44, 35
1, 110404, Control_c, 0, 67, 62
1, 110418, Control_c, 0, 67, 64
1, 110440, Control_c, 0, 67, 66
1, 110455, Control_c, 0, 67, 69
1, 110470, Control_c, 0, 67, 70
1, 110476, Note_off_c, 0, 49, 57
1, 110485, Control_c, 0, 67, 71
1, 110493, Note_on_c, 0, 51, 53
1, 110500, Control_c, 0, 67, 72
1, 110529, Control_c, 0, 67, 72
1, 110543, Note_off_c, 0, 51, 54
1, 110544, Control_c, 0, 67, 73
1, 110559, Note_on_c, 0, 54, 45
1, 110574, Control_c, 0, 67, 73
1, 110604, Control_c, 0, 67, 74
1, 110614, Note_off_c, 0, 54, 62
1, 110666, Note_on_c, 0, 58, 23
1, 110679, Control_c, 0, 67, 73
1, 110697, Note_on_c, 0, 54, 41
1, 110707, Note_off_c, 0, 58, 49
1, 110708, Control_c, 0, 67, 72
1, 110723, Control_c, 0, 67, 72
1, 110730, Note_off_c, 0, 54, 63
1, 110738, Control_c, 0, 67, 71
1, 110752, Control_c, 0, 67, 70
1, 110759, Note_on_c, 0, 51, 49
1, 110767, Control_c, 0, 67, 69
1, 110812, Control_c, 0, 67, 69
1, 110826, Note_off_c, 0, 51, 54
1, 110842, Control_c, 0, 67, 69
1, 110848, Note_on_c, 0, 49, 51
1, 110872, Control_c, 0, 67, 70
1, 110902, Control_c, 0, 67, 70
1, 110916, Control_c, 0, 67, 71
1, 110930, Note_off_c, 0, 49, 53
1, 110931, Control_c, 0, 67, 72
1, 110949, Note_on_c, 0, 44, 53
1, 110961, Control_c, 0, 67, 72
1, 110990, Control_c, 0, 64, 123
1, 111005, Control_c, 0, 64, 118
1, 111020, Control_c, 0, 64, 113
1, 111035, Control_c, 0, 64, 110
1, 111049, Control_c, 0, 64, 107
1, 111064, Control_c, 0, 64, 104
1, 111079, Control_c, 0, 64, 102
1, 111094, Control_c, 0, 64, 101
1, 111094, Control_c, 0, 67, 73
1, 111109, Control_c, 0, 64, 100
1, 111123, Control_c, 0, 64, 98
1, 111138, Control_c, 0, 64, 96
1, 111138, Control_c, 0, 67, 73
1, 111148, Note_on_c, 0, 49, 49
1, 111153, Control_c, 0, 64, 94
1, 111167, Control_c, 0, 64, 92
1, 111167, Control_c, 0, 67, 74
1, 111172, Note_off_c, 0, 44, 40
1, 111182, Control_c, 0, 64, 92
1, 111182, Control_c, 0, 67, 74
1, 111205, Control_c, 0, 64, 91
1, 111220, Note_off_c, 0, 49, 53
1, 111220, Control_c, 0, 64, 90
1, 111235, Control_c, 0, 67, 75
1, 111239, Note_on_c, 0, 51, 50
1, 111249, Control_c, 0, 64, 89
1, 111249, Control_c, 0, 67, 75
1, 111264, Control_c, 0, 64, 88
1, 111264, Control_c, 0, 67, 76
1, 111279, Control_c, 0, 64, 87
1, 111279, Control_c, 0, 67, 77
1, 111293, Control_c, 0, 64, 87
1, 111293, Control_c, 0, 67, 80
1, 111305, Note_off_c, 0, 51, 53
1, 111308, Control_c, 0, 67, 82
1, 111322, Note_on_c, 0, 54, 49
1, 111323, Control_c, 0, 64, 86
1, 111323, Control_c, 0, 67, 85
1, 111338, Control_c, 0, 64, 86
1, 111338, Control_c, 0, 67, 86
1, 111353, Control_c, 0, 64, 85
1, 111353, Control_c, 0, 67, 87
1, 111367, Control_c, 0, 64, 85
1, 111367, Control_c, 0, 67, 89
1, 111376, Note_off_c, 0, 54, 61
1, 111382, Control_c, 0, 64, 84
1, 111382, Control_c, 0, 67, 90
1, 111397, Control_c, 0, 64, 84
1, 111397, Control_c, 0, 67, 92
1, 111412, Note_on_c, 0, 58, 36
1, 111412, Control_c, 0, 64, 83
1, 111412, Control_c, 0, 67, 94
1, 111427, Control_c, 0, 64, 82
1, 111427, Control_c, 0, 67, 95
1, 111442, Control_c, 0, 64, 82
1, 111442, Control_c, 0, 67, 96
1, 111451, Note_off_c, 0, 58, 54
1, 111457, Control_c, 0, 64, 81
1, 111457, Control_c, 0, 67, 97
1, 111471, Control_c, 0, 64, 81
1, 111471, Control_c, 0, 67, 98
1, 111486, Control_c, 0, 67, 100
1, 111499, Note_on_c, 0, 54, 45
1, 111501, Control_c, 0, 67, 101
1, 111516, Control_c, 0, 64, 80
1, 111516, Control_c, 0, 67, 101
1, 111530, Note_off_c, 0, 54, 62
1, 111573, Note_on_c, 0, 51, 46
1, 111662, Note_off_c, 0, 51, 59
1, 111705, Note_on_c, 0, 49, 47
1, 111725, Control_c, 0, 67, 101
1, 111739, Control_c, 0, 64, 80
1, 111739, Control_c, 0, 67, 100
1, 111754, Control_c, 0, 64, 79
1, 111769, Control_c, 0, 64, 79
1, 111784, Control_c, 0, 64, 78
1, 111798, Control_c, 0, 64, 76
1, 111813, Control_c, 0, 64, 74
1, 111828, Control_c, 0, 64, 71
1, 111842, Note_off_c, 0, 49, 28
1, 111843, Control_c, 0, 64, 69
1, 111847, Note_on_c, 0, 63, 64
1, 111858, Control_c, 0, 64, 67
1, 111871, Note_on_c, 0, 58, 51
1, 111872, Control_c, 0, 64, 64
1, 111877, Note_on_c, 0, 44, 46
1, 111887, Control_c, 0, 64, 62
1, 111902, Control_c, 0, 64, 58
1, 111916, Control_c, 0, 64, 49
1, 111931, Control_c, 0, 64, 31
1, 111954, Control_c, 0, 64, 21
1, 111969, Control_c, 0, 64, 23
1, 111984, Control_c, 0, 64, 37
1, 111998, Control_c, 0, 64, 47
1, 112010, Note_on_c, 0, 49, 41
1, 112013, Control_c, 0, 64, 55
1, 112023, Note_off_c, 0, 44, 52
1, 112028, Control_c, 0, 64, 62
1, 112043, Control_c, 0, 64, 66
1, 112058, Control_c, 0, 64, 69
1, 112061, Note_off_c, 0, 58, 53
1, 112072, Control_c, 0, 64, 74
1, 112073, Note_on_c, 0, 54, 26
1, 112087, Control_c, 0, 64, 77
1, 112094, Note_off_c, 0, 49, 40
1, 112102, Control_c, 0, 64, 80
1, 112114, Note_on_c, 0, 58, 35
1, 112116, Control_c, 0, 64, 83
1, 112124, Note_off_c, 0, 54, 46
1, 112131, Control_c, 0, 64, 86
1, 112146, Control_c, 0, 64, 89
1, 112161, Control_c, 0, 64, 91
1, 112166, Note_on_c, 0, 65, 74
1, 112168, Note_off_c, 0, 58, 54
1, 112176, Control_c, 0, 64, 92
1, 112176, Control_c, 0, 67, 100
1, 112205, Control_c, 0, 67, 99
1, 112206, Note_on_c, 0, 60, 48
1, 112220, Control_c, 0, 67, 99
1, 112235, Control_c, 0, 67, 98
1, 112250, Control_c, 0, 64, 91
1, 112264, Control_c, 0, 64, 90
1, 112265, Note_on_c, 0, 57, 46
1, 112279, Control_c, 0, 64, 89
1, 112294, Control_c, 0, 64, 88
1, 112304, Note_off_c, 0, 57, 61
1, 112309, Control_c, 0, 64, 88
1, 112316, Note_off_c, 0, 63, 34
1, 112324, Control_c, 0, 64, 87
1, 112327, Note_on_c, 0, 54, 52
1, 112339, Control_c, 0, 64, 86
1, 112348, Note_off_c, 0, 60, 39
1, 112354, Control_c, 0, 64, 85
1, 112369, Control_c, 0, 64, 84
1, 112377, Note_off_c, 0, 54, 60
1, 112384, Control_c, 0, 64, 84
1, 112398, Control_c, 0, 64, 83
1, 112411, Note_on_c, 0, 50, 37
1, 112413, Control_c, 0, 64, 80
1, 112428, Control_c, 0, 64, 76
1, 112443, Control_c, 0, 64, 70
1, 112458, Note_off_c, 0, 50, 53
1, 112458, Control_c, 0, 64, 65
1, 112473, Control_c, 0, 64, 62
1, 112481, Note_on_c, 0, 62, 72
1, 112488, Control_c, 0, 64, 60
1, 112494, Note_on_c, 0, 44, 52
1, 112528, Note_on_c, 0, 57, 26
1, 112533, Control_c, 0, 64, 61
1, 112547, Control_c, 0, 64, 63
1, 112556, Note_off_c, 0, 65, 61
1, 112562, Control_c, 0, 64, 65
1, 112576, Note_on_c, 0, 50, 30
1, 112577, Control_c, 0, 64, 66
1, 112586, Note_off_c, 0, 57, 44
1, 112590, Note_off_c, 0, 62, 61
1, 112592, Control_c, 0, 64, 68
1, 112607, Control_c, 0, 64, 72
1, 112607, Control_c, 0, 67, 98
1, 112621, Control_c, 0, 64, 77
1, 112628, Note_on_c, 0, 54, 56
1, 112628, Note_off_c, 0, 50, 61
1, 112631, Note_off_c, 0, 44, 34
1, 112636, Control_c, 0, 64, 82
1, 112651, Control_c, 0, 64, 84
1, 112651, Control_c, 0, 67, 97
1, 112666, Control_c, 0, 67, 97
1, 112667, Note_off_c, 0, 54, 65
1, 112681, Control_c, 0, 67, 96
1, 112702, Note_on_c, 0, 57, 51
1, 112703, Control_c, 0, 67, 95
1, 112717, Control_c, 0, 64, 85
1, 112717, Control_c, 0, 67, 95
1, 112770, Note_off_c, 0, 57, 46
1, 112777, Control_c, 0, 67, 94
1, 112792, Control_c, 0, 64, 85
1, 112802, Note_on_c, 0, 69, 61
1, 112811, Note_on_c, 0, 60, 48
1, 112819, Note_on_c, 0, 66, 51
1, 112821, Control_c, 0, 67, 94
1, 112835, Control_c, 0, 67, 93
1, 112841, Note_off_c, 0, 60, 65
1, 112850, Control_c, 0, 64, 85
1, 112893, Note_on_c, 0, 57, 45
1, 112895, Note_off_c, 0, 69, 55
1, 112926, Note_off_c, 0, 57, 53
1, 112942, Note_on_c, 0, 62, 59
1, 112959, Note_off_c, 0, 66, 35
1, 112967, Note_on_c, 0, 54, 49
1, 112968, Control_c, 0, 67, 94
1, 112998, Control_c, 0, 67, 94
1, 113001, Note_off_c, 0, 54, 64
1, 113027, Control_c, 0, 64, 84
1, 113027, Control_c, 0, 67, 95
1, 113057, Control_c, 0, 64, 84
1, 113072, Control_c, 0, 64, 82
1, 113072, Control_c, 0, 67, 95
1, 113087, Control_c, 0, 64, 79
1, 113102, Control_c, 0, 64, 73
1, 113102, Control_c, 0, 67, 96
1, 113106, Note_on_c, 0, 44, 57
1, 113109, Note_on_c, 0, 63, 65
1, 113117, Control_c, 0, 64, 67
1, 113120, Note_on_c, 0, 58, 39
1, 113120, Note_off_c, 0, 62, 61
1, 113132, Control_c, 0, 64, 64
1, 113161, Control_c, 0, 64, 65
1, 113175, Note_off_c, 0, 58, 55
1, 113176, Control_c, 0, 64, 67
1, 113191, Control_c, 0, 64, 70
1, 113191, Control_c, 0, 67, 96
1, 113197, Note_off_c, 0, 44, 60
1, 113199, Note_on_c, 0, 49, 49
1, 113206, Control_c, 0, 64, 73
1, 113221, Control_c, 0, 64, 76
1, 113236, Control_c, 0, 64, 79
1, 113241, Note_on_c, 0, 54, 51
1, 113251, Control_c, 0, 64, 82
1, 113266, Control_c, 0, 64, 85
1, 113281, Control_c, 0, 64, 87
1, 113286, Note_off_c, 0, 54, 56
1, 113288, Note_off_c, 0, 49, 44
1, 113296, Control_c, 0, 64, 88
1, 113299, Note_on_c, 0, 58, 59
1, 113310, Control_c, 0, 64, 89
1, 113346, Note_off_c, 0, 58, 54
1, 113394, Note_on_c, 0, 65, 66
1, 113399, Control_c, 0, 64, 88
1, 113399, Control_c, 0, 67, 96
1, 113414, Control_c, 0, 67, 95
1, 113421, Note_on_c, 0, 60, 48
1, 113443, Note_on_c, 0, 57, 54
1, 113460, Note_off_c, 0, 63, 51
1, 113466, Control_c, 0, 67, 95
1, 113481, Control_c, 0, 64, 88
1, 113488, Note_off_c, 0, 57, 59
1, 113495, Control_c, 0, 64, 87
1, 113524, Note_on_c, 0, 54, 55
1, 113525, Control_c, 0, 64, 87
1, 113589, Note_off_c, 0, 54, 55
1, 113600, Note_off_c, 0, 60, 39
1, 113600, Control_c, 0, 67, 95
1, 113606, Note_on_c, 0, 50, 48
1, 113615, Control_c, 0, 67, 96
1, 113644, Control_c, 0, 64, 85
1, 113659, Control_c, 0, 64, 82
1, 113661, Note_off_c, 0, 50, 61
1, 113674, Control_c, 0, 64, 77
1, 113688, Control_c, 0, 64, 71
1, 113703, Control_c, 0, 64, 65
1, 113704, Note_on_c, 0, 44, 53
1, 113704, Note_on_c, 0, 62, 59
1, 113718, Control_c, 0, 64, 63
1, 113726, Note_on_c, 0, 57, 34
1, 113733, Control_c, 0, 64, 62
1, 113748, Control_c, 0, 64, 63
1, 113751, Note_off_c, 0, 65, 59
1, 113762, Control_c, 0, 64, 65
1, 113770, Note_off_c, 0, 57, 48
1, 113777, Control_c, 0, 64, 66
1, 113780, Note_on_c, 0, 50, 43
1, 113792, Control_c, 0, 64, 68
1, 113804, Note_off_c, 0, 44, 47
1, 113807, Control_c, 0, 64, 71
1, 113822, Control_c, 0, 64, 74
1, 113822, Control_c, 0, 67, 95
1, 113835, Note_on_c, 0, 54, 55
1, 113836, Note_off_c, 0, 50, 61
1, 113836, Control_c, 0, 64, 77
1, 113836, Control_c, 0, 67, 94
1, 113851, Control_c, 0, 64, 80
1, 113851, Control_c, 0, 67, 93
1, 113866, Control_c, 0, 64, 84
1, 113866, Control_c, 0, 67, 92
1, 113872, Note_off_c, 0, 54, 66
1, 113881, Control_c, 0, 64, 86
1, 113881, Control_c, 0, 67, 92
1, 113892, Note_off_c, 0, 62, 62
1, 113895, Note_on_c, 0, 57, 52
1, 113895, Control_c, 0, 64, 87
1, 113895, Control_c, 0, 67, 91
1, 113910, Control_c, 0, 67, 91
1, 113925, Control_c, 0, 64, 88
1, 113925, Control_c, 0, 67, 90
1, 113966, Note_off_c, 0, 57, 57
1, 113969, Control_c, 0, 67, 90
1, 113984, Note_on_c, 0, 60, 56
1, 113999, Control_c, 0, 67, 90
1, 114015, Control_c, 0, 67, 91
1, 114017, Note_off_c, 0, 60, 65
1, 114030, Control_c, 0, 67, 91
1, 114074, Control_c, 0, 64, 87
1, 114077, Note_on_c, 0, 57, 43
1, 114089, Control_c, 0, 64, 86
1, 114110, Note_off_c, 0, 57, 52
1, 114118, Control_c, 0, 67, 92
1, 114148, Note_on_c, 0, 54, 48
1, 114190, Note_off_c, 0, 54, 63
1, 114200, Control_c, 0, 64, 85
1, 114215, Control_c, 0, 64, 81
1, 114230, Control_c, 0, 64, 74
1, 114235, Note_on_c, 0, 50, 39
1, 114244, Note_on_c, 0, 70, 40
1, 114245, Control_c, 0, 64, 68
1, 114257, Note_on_c, 0, 75, 69
1, 114260, Control_c, 0, 64, 65
1, 114260, Control_c, 0, 67, 92
1, 114268, Note_off_c, 0, 50, 64
1, 114274, Control_c, 0, 64, 65
1, 114282, Note_on_c, 0, 63, 42
1, 114289, Control_c, 0, 64, 67
1, 114289, Control_c, 0, 67, 93
1, 114295, Note_on_c, 0, 44, 49
1, 114304, Control_c, 0, 64, 69
1, 114304, Control_c, 0, 67, 93
1, 114318, Control_c, 0, 64, 73
1, 114318, Control_c, 0, 67, 94
1, 114333, Control_c, 0, 64, 77
1, 114333, Control_c, 0, 67, 95
1, 114348, Control_c, 0, 64, 80
1, 114348, Control_c, 0, 67, 95
1, 114359, Note_off_c, 0, 44, 60
1, 114363, Control_c, 0, 64, 84
1, 114363, Control_c, 0, 67, 96
1, 114375, Note_on_c, 0, 49, 45
1, 114378, Control_c, 0, 64, 88
1, 114378, Control_c, 0, 67, 96
1, 114393, Control_c, 0, 64, 92
1, 114393, Control_c, 0, 67, 97
1, 114401, Note_off_c, 0, 63, 56
1, 114408, Control_c, 0, 64, 97
1, 114408, Control_c, 0, 67, 98
1, 114410, Note_on_c, 0, 54, 54
1, 114423, Control_c, 0, 64, 101
1, 114423, Control_c, 0, 67, 98
1, 114437, Control_c, 0, 64, 106
1, 114437, Control_c, 0, 67, 99
1, 114449, Note_off_c, 0, 49, 60
1, 114451, Note_off_c, 0, 54, 63
1, 114452, Control_c, 0, 64, 113
1, 114452, Control_c, 0, 67, 99
1, 114464, Note_off_c, 0, 75, 61
1, 114467, Control_c, 0, 64, 127
1, 114467, Control_c, 0, 67, 100
1, 114556, Control_c, 0, 67, 99
1, 114561, Note_on_c, 0, 77, 79
1, 114571, Control_c, 0, 67, 99
1, 114573, Note_on_c, 0, 60, 52
1, 114590, Note_on_c, 0, 72, 54
1, 114592, Note_off_c, 0, 70, 59
1, 114598, Note_on_c, 0, 65, 44
1, 114600, Control_c, 0, 67, 98
1, 114636, Note_on_c, 0, 57, 49
1, 114645, Control_c, 0, 67, 98
1, 114662, Note_off_c, 0, 60, 35
1, 114673, Note_off_c, 0, 77, 56
1, 114704, Control_c, 0, 67, 97
1, 114716, Note_on_c, 0, 54, 56
1, 114717, Note_off_c, 0, 65, 58
1, 114733, Control_c, 0, 67, 96
1, 114743, Note_off_c, 0, 57, 53
1, 114762, Note_on_c, 0, 50, 52
1, 114777, Note_off_c, 0, 54, 62
1, 114792, Control_c, 0, 64, 108
1, 114793, Note_off_c, 0, 50, 65
1, 114808, Control_c, 0, 64, 95
1, 114823, Control_c, 0, 64, 85
1, 114823, Control_c, 0, 67, 96
1, 114838, Control_c, 0, 64, 76
1, 114853, Control_c, 0, 64, 70
1, 114858, Note_on_c, 0, 74, 77
1, 114868, Control_c, 0, 64, 68
1, 114882, Control_c, 0, 64, 69
1, 114885, Note_on_c, 0, 44, 65
1, 114888, Note_on_c, 0, 69, 50
1, 114890, Note_on_c, 0, 62, 31
1, 114897, Control_c, 0, 64, 72
1, 114897, Control_c, 0, 67, 95
1, 114912, Control_c, 0, 64, 78
1, 114927, Note_off_c, 0, 72, 61
1, 114927, Control_c, 0, 64, 83
1, 114929, Note_off_c, 0, 62, 51
1, 114949, Control_c, 0, 64, 85
1, 114958, Note_off_c, 0, 69, 61
1, 114965, Note_on_c, 0, 50, 49
1, 114972, Note_off_c, 0, 74, 65
1, 114979, Control_c, 0, 64, 86
1, 114994, Control_c, 0, 64, 87
1, 115009, Control_c, 0, 64, 88
1, 115009, Control_c, 0, 67, 96
1, 115016, Note_off_c, 0, 44, 37
1, 115017, Note_on_c, 0, 54, 56
1, 115023, Control_c, 0, 64, 92
1, 115038, Control_c, 0, 64, 94
1, 115040, Note_off_c, 0, 50, 61
1, 115053, Control_c, 0, 67, 96
1, 115061, Note_off_c, 0, 54, 64
1, 115088, Note_on_c, 0, 57, 59
1, 115155, Note_off_c, 0, 57, 46
1, 115164, Note_on_c, 0, 81, 68
1, 115181, Note_on_c, 0, 78, 53
1, 115186, Note_on_c, 0, 60, 56
1, 115219, Note_off_c, 0, 60, 66
1, 115245, Control_c, 0, 64, 94
1, 115281, Note_on_c, 0, 57, 50
1, 115290, Note_off_c, 0, 81, 53
1, 115296, Note_on_c, 0, 74, 69
1, 115305, Control_c, 0, 64, 93
1, 115309, Note_off_c, 0, 57, 55
1, 115320, Control_c, 0, 64, 93
1, 115329, Note_off_c, 0, 78, 28
1, 115330, Note_off_c, 0, 74, 61
1, 115334, Control_c, 0, 64, 92
1, 115347, Note_on_c, 0, 54, 57
1, 115353, Note_on_c, 0, 69, 3
1, 115382, Note_off_c, 0, 54, 65
1, 115392, Note_off_c, 0, 69, 51
1, 115408, Control_c, 0, 64, 92
1, 115423, Control_c, 0, 64, 89
1, 115435, Note_on_c, 0, 50, 49
1, 115438, Control_c, 0, 64, 83
1, 115449, Note_on_c, 0, 75, 68
1, 115453, Control_c, 0, 64, 74
1, 115462, Note_on_c, 0, 70, 48
1, 115464, Note_off_c, 0, 50, 62
1, 115467, Control_c, 0, 64, 67
1, 115479, Note_on_c, 0, 44, 59
1, 115482, Control_c, 0, 64, 65
1, 115487, Note_on_c, 0, 63, 32
1, 115512, Control_c, 0, 64, 65
1, 115527, Control_c, 0, 64, 68
1, 115541, Control_c, 0, 64, 72
1, 115546, Note_off_c, 0, 63, 60
1, 115549, Note_off_c, 0, 44, 64
1, 115556, Control_c, 0, 64, 76
1, 115560, Note_on_c, 0, 49, 54
1, 115571, Control_c, 0, 64, 81
1, 115586, Control_c, 0, 64, 86
1, 115595, Note_on_c, 0, 54, 55
1, 115601, Control_c, 0, 64, 90
1, 115609, Note_off_c, 0, 75, 55
1, 115617, Control_c, 0, 64, 95
1, 115631, Control_c, 0, 64, 100
1, 115634, Note_off_c, 0, 49, 58
1, 115642, Note_off_c, 0, 54, 63
1, 115646, Control_c, 0, 64, 105
1, 115661, Control_c, 0, 64, 108
1, 115676, Control_c, 0, 64, 110
1, 115691, Note_on_c, 0, 58, 55
1, 115698, Control_c, 0, 64, 111
1, 115713, Control_c, 0, 64, 113
1, 115713, Control_c, 0, 67, 97
1, 115718, Note_off_c, 0, 58, 64
1, 115728, Control_c, 0, 64, 118
1, 115741, Note_on_c, 0, 77, 81
1, 115743, Control_c, 0, 64, 127
1, 115743, Control_c, 0, 67, 97
1, 115762, Note_on_c, 0, 72, 63
1, 115764, Note_on_c, 0, 65, 50
1, 115777, Note_off_c, 0, 70, 54
1, 115784, Note_on_c, 0, 60, 54
1, 115797, Note_on_c, 0, 73, 18
1, 115832, Control_c, 0, 67, 98
1, 115833, Note_on_c, 0, 57, 49
1, 115836, Note_off_c, 0, 60, 50
1, 115841, Note_off_c, 0, 73, 55
1, 115856, Note_off_c, 0, 77, 59
1, 115868, Note_off_c, 0, 65, 57
1, 115906, Note_on_c, 0, 54, 55
1, 115919, Note_off_c, 0, 57, 59
1, 115943, Note_on_c, 0, 50, 54
1, 115945, Note_off_c, 0, 54, 60
1, 115971, Note_off_c, 0, 50, 64
1, 116024, Control_c, 0, 64, 117
1, 116038, Control_c, 0, 64, 104
1, 116053, Control_c, 0, 64, 93
1, 116054, Note_on_c, 0, 74, 72
1, 116062, Note_on_c, 0, 69, 53
1, 116068, Control_c, 0, 64, 82
1, 116074, Note_on_c, 0, 62, 52
1, 116082, Note_on_c, 0, 44, 57
1, 116083, Control_c, 0, 64, 72
1, 116098, Control_c, 0, 64, 64
1, 116113, Control_c, 0, 64, 60
1, 116128, Control_c, 0, 64, 60
1, 116143, Control_c, 0, 64, 61
1, 116157, Control_c, 0, 64, 63
1, 116162, Note_off_c, 0, 72, 60
1, 116166, Note_on_c, 0, 50, 55
1, 116172, Control_c, 0, 64, 65
1, 116172, Note_off_c, 0, 44, 59
1, 116187, Control_c, 0, 64, 67
1, 116202, Control_c, 0, 64, 69
1, 116204, Note_off_c, 0, 62, 36
1, 116210, Note_on_c, 0, 54, 56
1, 116211, Note_off_c, 0, 69, 59
1, 116217, Control_c, 0, 64, 74
1, 116227, Note_off_c, 0, 50, 62
1, 116232, Control_c, 0, 64, 78
1, 116246, Control_c, 0, 64, 82
1, 116248, Note_off_c, 0, 54, 65
1, 116261, Control_c, 0, 64, 85
1, 116276, Control_c, 0, 64, 87
1, 116279, Note_on_c, 0, 57, 52
1, 116290, Control_c, 0, 64, 88
1, 116305, Control_c, 0, 64, 89
1, 116321, Note_off_c, 0, 57, 56
1, 116357, Note_on_c, 0, 69, 57
1, 116377, Note_on_c, 0, 60, 46
1, 116387, Note_off_c, 0, 74, 60
1, 116392, Note_on_c, 0, 62, 33
1, 116398, Note_off_c, 0, 69, 63
1, 116410, Note_off_c, 0, 60, 65
1, 116424, Note_off_c, 0, 62, 52
1, 116461, Note_on_c, 0, 57, 43
1, 116495, Note_off_c, 0, 57, 51
1, 116529, Note_on_c, 0, 54, 54
1, 116536, Control_c, 0, 64, 89
1, 116536, Control_c, 0, 67, 97
1, 116566, Note_off_c, 0, 54, 66
1, 116580, Control_c, 0, 67, 97
1, 116596, Note_on_c, 0, 50, 41
1, 116609, Control_c, 0, 67, 96
1, 116624, Control_c, 0, 67, 96
1, 116634, Note_off_c, 0, 50, 66
1, 116639, Control_c, 0, 67, 95
1, 116654, Control_c, 0, 67, 95
1, 116659, Note_on_c, 0, 44, 50
1, 116668, Control_c, 0, 67, 94
1, 116683, Control_c, 0, 67, 94
1, 116698, Control_c, 0, 67, 93
1, 116712, Control_c, 0, 67, 91
1, 116720, Note_on_c, 0, 50, 58
1, 116727, Control_c, 0, 67, 90
1, 116730, Note_off_c, 0, 44, 50
1, 116742, Control_c, 0, 67, 89
1, 116757, Control_c, 0, 67, 88
1, 116759, Note_on_c, 0, 54, 59
1, 116764, Note_off_c, 0, 50, 60
1, 116772, Control_c, 0, 67, 86
1, 116786, Control_c, 0, 64, 89
1, 116786, Control_c, 0, 67, 83
1, 116801, Control_c, 0, 67, 80
1, 116803, Note_off_c, 0, 54, 63
1, 116816, Control_c, 0, 64, 90
1, 116816, Control_c, 0, 67, 78
1, 116831, Control_c, 0, 64, 90
1, 116831, Control_c, 0, 67, 77
1, 116834, Note_on_c, 0, 57, 62
1, 116846, Control_c, 0, 64, 92
1, 116861, Control_c, 0, 64, 93
1, 116876, Note_off_c, 0, 57, 54
1, 116876, Control_c, 0, 64, 95
1, 116891, Control_c, 0, 64, 95
1, 116891, Control_c, 0, 67, 77
1, 116905, Control_c, 0, 64, 96
1, 116905, Control_c, 0, 67, 78
1, 116920, Control_c, 0, 64, 96
1, 116920, Control_c, 0, 67, 78
1, 116935, Control_c, 0, 64, 97
1, 116935, Control_c, 0, 67, 79
1, 116937, Note_on_c, 0, 59, 48
1, 116950, Control_c, 0, 64, 100
1, 116950, Control_c, 0, 67, 81
1, 116956, Note_on_c, 0, 60, 6
1, 116964, Note_off_c, 0, 59, 55
1, 116965, Control_c, 0, 64, 103
1, 116965, Control_c, 0, 67, 81
1, 116979, Control_c, 0, 64, 105
1, 116979, Control_c, 0, 67, 82
1, 116994, Control_c, 0, 67, 82
1, 116998, Note_on_c, 0, 57, 60
1, 117002, Note_off_c, 0, 60, 52
1, 117009, Control_c, 0, 64, 106
1, 117024, Control_c, 0, 64, 108
1, 117024, Control_c, 0, 67, 83
1, 117039, Control_c, 0, 64, 113
1, 117039, Control_c, 0, 67, 83
1, 117050, Note_off_c, 0, 57, 57
1, 117054, Control_c, 0, 64, 121
1, 117068, Control_c, 0, 64, 127
1, 117080, Note_on_c, 0, 54, 56
1, 117098, Control_c, 0, 67, 84
1, 117122, Note_off_c, 0, 54, 63
1, 117127, Control_c, 0, 67, 84
1, 117156, Note_on_c, 0, 48, 84
1, 117157, Control_c, 0, 64, 117
1, 117157, Control_c, 0, 67, 85
1, 117169, Note_on_c, 0, 50, 48
1, 117172, Control_c, 0, 64, 105
1, 117194, Control_c, 0, 64, 93
1, 117210, Control_c, 0, 64, 81
1, 117225, Control_c, 0, 64, 70
1, 117238, Note_off_c, 0, 50, 62
1, 117239, Control_c, 0, 64, 61
1, 117254, Control_c, 0, 64, 42
1, 117255, Note_on_c, 0, 44, 53
1, 117269, Control_c, 0, 64, 34
1, 117284, Control_c, 0, 64, 41
1, 117299, Control_c, 0, 64, 56
1, 117314, Control_c, 0, 64, 63
1, 117329, Control_c, 0, 64, 67
1, 117343, Control_c, 0, 64, 71
1, 117350, Note_off_c, 0, 44, 58
1, 117358, Control_c, 0, 64, 75
1, 117373, Control_c, 0, 64, 79
1, 117388, Control_c, 0, 64, 81
1, 117397, Note_on_c, 0, 54, 57
1, 117403, Poly_aftertouch_c, 0, 50, 127
1, 117403, Control_c, 0, 64, 83
1, 117417, Control_c, 0, 64, 84
1, 117432, Control_c, 0, 67, 84
1, 117442, Note_off_c, 0, 54, 63
1, 117450, Poly_aftertouch_c, 0, 50, 0
1, 117489, Note_on_c, 0, 57, 49
1, 117496, Note_off_c, 0, 48, 57
1, 117506, Control_c, 0, 67, 84
1, 117513, Note_on_c, 0, 45, 67
1, 117548, Note_off_c, 0, 45, 66
1, 117580, Note_on_c, 0, 60, 56
1, 117580, Control_c, 0, 64, 83
1, 117594, Note_off_c, 0, 57, 38
1, 117595, Control_c, 0, 67, 83
1, 117609, Control_c, 0, 67, 83
1, 117611, Note_off_c, 0, 60, 65
1, 117624, Control_c, 0, 67, 82
1, 117639, Control_c, 0, 64, 83
1, 117639, Control_c, 0, 67, 82
1, 117669, Control_c, 0, 64, 82
1, 117669, Control_c, 0, 67, 81
1, 117680, Note_on_c, 0, 57, 35
1, 117713, Note_off_c, 0, 57, 55
1, 117728, Control_c, 0, 67, 81
1, 117729, Note_on_c, 0, 54, 57
1, 117743, Control_c, 0, 64, 82
1, 117773, Control_c, 0, 67, 80
1, 117779, Note_off_c, 0, 54, 64
1, 117788, Control_c, 0, 67, 80
1, 117790, Note_on_c, 0, 50, 47
1, 117802, Control_c, 0, 67, 79
1, 117817, Control_c, 0, 67, 78
1, 117827, Note_off_c, 0, 50, 66
1, 117832, Control_c, 0, 67, 78
1, 117842, Note_on_c, 0, 44, 62
1, 117847, Control_c, 0, 64, 82
1, 117847, Control_c, 0, 67, 77
1, 117861, Control_c, 0, 64, 83
1, 117861, Control_c, 0, 67, 75
1, 117876, Control_c, 0, 64, 84
1, 117876, Control_c, 0, 67, 72
1, 117891, Control_c, 0, 64, 84
1, 117891, Control_c, 0, 67, 66
1, 117904, Note_off_c, 0, 44, 54
1, 117906, Control_c, 0, 64, 85
1, 117906, Control_c, 0, 67, 57
1, 117911, Note_on_c, 0, 50, 59
1, 117928, Control_c, 0, 64, 86
1, 117928, Control_c, 0, 67, 50
1, 117943, Control_c, 0, 64, 88
1, 117943, Control_c, 0, 67, 42
1, 117952, Note_on_c, 0, 54, 59
1, 117957, Note_off_c, 0, 50, 65
1, 117958, Control_c, 0, 64, 90
1, 117958, Control_c, 0, 67, 34
1, 117973, Control_c, 0, 64, 92
1, 117973, Control_c, 0, 67, 26
1, 117983, Note_off_c, 0, 54, 65
1, 117988, Control_c, 0, 64, 94
1, 117988, Control_c, 0, 67, 19
1, 118001, Note_on_c, 0, 57, 66
1, 118003, Control_c, 0, 64, 95
1, 118003, Control_c, 0, 67, 9
1, 118018, Control_c, 0, 67, 0
1, 118047, Control_c, 0, 64, 95
1, 118048, Note_off_c, 0, 57, 53
1, 118062, Control_c, 0, 64, 96
1, 118077, Control_c, 0, 64, 99
1, 118078, Note_on_c, 0, 60, 60
1, 118092, Control_c, 0, 64, 102
1, 118101, Note_off_c, 0, 60, 63
1, 118107, Control_c, 0, 64, 104
1, 118122, Control_c, 0, 64, 106
1, 118137, Control_c, 0, 64, 107
1, 118152, Control_c, 0, 64, 110
1, 118154, Note_on_c, 0, 57, 62
1, 118166, Control_c, 0, 64, 116
1, 118176, Note_off_c, 0, 57, 61
1, 118181, Control_c, 0, 64, 127
1, 118217, Note_on_c, 0, 54, 68
1, 118270, Control_c, 0, 64, 119
1, 118274, Note_off_c, 0, 54, 64
1, 118284, Control_c, 0, 64, 97
1, 118295, Note_on_c, 0, 60, 90
1, 118299, Control_c, 0, 64, 81
1, 118301, Note_on_c, 0, 50, 54
1, 118314, Control_c, 0, 64, 67
1, 118325, Note_on_c, 0, 44, 67
1, 118329, Control_c, 0, 64, 64
1, 118335, Note_off_c, 0, 50, 66
1, 118344, Control_c, 0, 64, 66
1, 118358, Control_c, 0, 64, 71
1, 118373, Control_c, 0, 64, 79
1, 118383, Note_off_c, 0, 60, 64
1, 118388, Control_c, 0, 64, 90
1, 118403, Control_c, 0, 64, 109
1, 118411, Note_on_c, 0, 50, 64
1, 118418, Control_c, 0, 64, 127
1, 118453, Note_on_c, 0, 54, 74
1, 118462, Note_off_c, 0, 44, 54
1, 118477, Note_off_c, 0, 50, 64
1, 118488, Note_on_c, 0, 57, 69
1, 118490, Note_off_c, 0, 54, 67
1, 118514, Note_off_c, 0, 57, 65
1, 118560, Note_on_c, 0, 62, 51
1, 118566, Note_on_c, 0, 60, 72
1, 118617, Note_on_c, 0, 66, 75
1, 118634, Note_off_c, 0, 60, 59
1, 118655, Note_off_c, 0, 62, 57
1, 118662, Note_on_c, 0, 69, 76
1, 118702, Note_off_c, 0, 66, 62
1, 118709, Note_on_c, 0, 74, 86
1, 118716, Note_off_c, 0, 69, 65
1, 118728, Note_off_c, 0, 74, 74
1, 118807, Note_on_c, 0, 72, 89
1, 118812, Note_on_c, 0, 60, 83
1, 118826, Note_on_c, 0, 68, 81
1, 118841, Control_c, 0, 64, 107
1, 118855, Control_c, 0, 64, 88
1, 118870, Control_c, 0, 64, 72
1, 118885, Control_c, 0, 64, 66
1, 118894, Note_on_c, 0, 75, 72
1, 118900, Control_c, 0, 64, 65
1, 118915, Control_c, 0, 64, 67
1, 118923, Note_off_c, 0, 68, 58
1, 118930, Control_c, 0, 64, 72
1, 118939, Note_on_c, 0, 78, 77
1, 118945, Control_c, 0, 64, 80
1, 118959, Control_c, 0, 64, 93
1, 118974, Control_c, 0, 64, 118
1, 118982, Note_off_c, 0, 72, 65
1, 118989, Control_c, 0, 64, 127
1, 119000, Note_on_c, 0, 80, 76
1, 119014, Note_off_c, 0, 60, 66
1, 119018, Note_off_c, 0, 75, 60
1, 119034, Note_off_c, 0, 78, 62
1, 119064, Note_off_c, 0, 80, 63
1, 119073, Note_on_c, 0, 74, 73
1, 119076, Note_on_c, 0, 72, 76
1, 119076, Note_on_c, 0, 69, 77
1, 119091, Note_on_c, 0, 57, 62
1, 119109, Note_off_c, 0, 69, 63
1, 119114, Note_off_c, 0, 57, 60
1, 119118, Note_off_c, 0, 72, 57
1, 119135, Note_off_c, 0, 74, 61
1, 119137, Note_on_c, 0, 78, 84
1, 119166, Note_on_c, 0, 81, 86
1, 119216, Note_off_c, 0, 78, 61
1, 119219, Note_on_c, 0, 86, 86
1, 119228, Note_off_c, 0, 81, 65
1, 119249, Note_off_c, 0, 86, 65
1, 119306, Note_on_c, 0, 84, 100
1, 119308, Note_on_c, 0, 72, 91
1, 119314, Note_on_c, 0, 80, 88
1, 119329, Control_c, 0, 64, 99
1, 119344, Control_c, 0, 64, 82
1, 119359, Control_c, 0, 64, 77
1, 119374, Control_c, 0, 64, 79
1, 119389, Control_c, 0, 64, 86
1, 119397, Note_on_c, 0, 87, 82
1, 119404, Control_c, 0, 64, 99
1, 119410, Note_off_c, 0, 80, 50
1, 119419, Control_c, 0, 64, 127
1, 119434, Note_on_c, 0, 90, 81
1, 119439, Note_off_c, 0, 84, 61
1, 119478, Note_off_c, 0, 72, 62
1, 119485, Note_on_c, 0, 92, 88
1, 119522, Note_off_c, 0, 90, 64
1, 119523, Note_off_c, 0, 87, 65
1, 119553, Note_on_c, 0, 81, 95
1, 119561, Note_on_c, 0, 69, 78
1, 119563, Note_off_c, 0, 92, 67
1, 119573, Note_on_c, 0, 84, 68
1, 119573, Note_on_c, 0, 86, 77
1, 119580, Note_off_c, 0, 69, 73
1, 119597, Note_off_c, 0, 81, 66
1, 119627, Note_on_c, 0, 90, 94
1, 119628, Note_off_c, 0, 84, 61
1, 119656, Note_off_c, 0, 86, 56
1, 119658, Note_on_c, 0, 93, 84
1, 119713, Note_on_c, 0, 98, 89
1, 119739, Note_off_c, 0, 90, 63
1, 119749, Note_off_c, 0, 93, 66
1, 119758, Note_off_c, 0, 98, 68
1, 119767, Control_c, 0, 64, 102
1, 119782, Control_c, 0, 64, 81
1, 119785, Note_on_c, 0, 85, 94
1, 119786, Note_on_c, 0, 78, 87
1, 119797, Control_c, 0, 64, 72
1, 119823, Note_off_c, 0, 85, 66
1, 119827, Control_c, 0, 64, 80
1, 119839, Note_on_c, 0, 84, 85
1, 119841, Note_on_c, 0, 86, 76
1, 119842, Control_c, 0, 64, 91
1, 119842, Note_off_c, 0, 78, 65
1, 119851, Note_on_c, 0, 93, 82
1, 119857, Control_c, 0, 64, 113
1, 119872, Control_c, 0, 64, 127
1, 119884, Note_off_c, 0, 86, 65
1, 119899, Note_off_c, 0, 93, 61
1, 119903, Note_off_c, 0, 84, 61
1, 119909, Note_on_c, 0, 81, 88
1, 119957, Note_on_c, 0, 86, 84
1, 119964, Note_on_c, 0, 84, 66
1, 119977, Note_off_c, 0, 81, 62
1, 119989, Note_off_c, 0, 84, 63
1, 119998, Note_off_c, 0, 86, 65
1, 120020, Note_on_c, 0, 73, 91
1, 120021, Note_on_c, 0, 66, 93
1, 120045, Note_off_c, 0, 73, 65
1, 120061, Note_off_c, 0, 66, 66
1, 120081, Note_on_c, 0, 72, 88
1, 120086, Note_on_c, 0, 74, 81
1, 120101, Note_on_c, 0, 81, 67
1, 120114, Note_off_c, 0, 74, 64
1, 120130, Note_off_c, 0, 81, 59
1, 120142, Note_off_c, 0, 72, 56
1, 120149, Note_on_c, 0, 69, 87
1, 120209, Note_on_c, 0, 74, 67
1, 120214, Note_on_c, 0, 72, 17
1, 120222, Note_off_c, 0, 69, 64
1, 120226, Note_off_c, 0, 74, 70
1, 120251, Note_off_c, 0, 72, 54
1, 120283, Note_on_c, 0, 56, 96
1, 120308, Control_c, 0, 67, 8
1, 120323, Control_c, 0, 67, 9
1, 120337, Control_c, 0, 67, 10
1, 120352, Note_off_c, 0, 56, 64
1, 120352, Control_c, 0, 67, 12
1, 120353, Note_on_c, 0, 62, 78
1, 120357, Note_on_c, 0, 66, 74
1, 120364, Note_on_c, 0, 69, 44
1, 120367, Control_c, 0, 67, 14
1, 120381, Note_off_c, 0, 69, 66
1, 120382, Control_c, 0, 67, 17
1, 120397, Control_c, 0, 67, 18
1, 120413, Control_c, 0, 67, 18
1, 120414, Note_off_c, 0, 62, 60
1, 120417, Note_on_c, 0, 61, 81
1, 120427, Control_c, 0, 67, 19
1, 120442, Control_c, 0, 67, 21
1, 120448, Note_off_c, 0, 66, 64
1, 120457, Control_c, 0, 67, 24
1, 120472, Control_c, 0, 67, 28
1, 120478, Note_on_c, 0, 60, 77
1, 120486, Control_c, 0, 67, 32
1, 120492, Note_off_c, 0, 61, 61
1, 120501, Control_c, 0, 67, 36
1, 120516, Control_c, 0, 67, 40
1, 120518, Note_on_c, 0, 59, 73
1, 120519, Note_on_c, 0, 44, 88
1, 120523, Note_off_c, 0, 60, 64
1, 120531, Control_c, 0, 67, 45
1, 120546, Control_c, 0, 67, 50
1, 120560, Note_off_c, 0, 44, 62
1, 120560, Control_c, 0, 67, 56
1, 120574, Note_off_c, 0, 59, 59
1, 120575, Control_c, 0, 67, 59
1, 120588, Note_on_c, 0, 58, 83
1, 120590, Control_c, 0, 67, 60
1, 120605, Control_c, 0, 67, 63
1, 120620, Control_c, 0, 67, 67
1, 120635, Control_c, 0, 67, 69
1, 120643, Note_off_c, 0, 58, 60
1, 120650, Control_c, 0, 67, 70
1, 120653, Note_on_c, 0, 57, 72
1, 120665, Control_c, 0, 67, 71
1, 120679, Control_c, 0, 67, 71
1, 120694, Control_c, 0, 67, 72
1, 120703, Note_on_c, 0, 56, 79
1, 120709, Control_c, 0, 67, 73
1, 120711, Note_off_c, 0, 57, 62
1, 120724, Control_c, 0, 67, 74
1, 120733, Note_off_c, 0, 56, 59
1, 120739, Control_c, 0, 67, 76
1, 120753, Control_c, 0, 67, 77
1, 120768, Control_c, 0, 67, 78
1, 120783, Control_c, 0, 64, 126
1, 120783, Control_c, 0, 67, 78
1, 120798, Control_c, 0, 64, 113
1, 120798, Control_c, 0, 67, 79
1, 120799, Note_on_c, 0, 32, 97
1, 120813, Control_c, 0, 64, 102
1, 120813, Control_c, 0, 67, 80
1, 120827, Control_c, 0, 64, 89
1, 120827, Control_c, 0, 67, 80
1, 120842, Control_c, 0, 64, 75
1, 120857, Control_c, 0, 64, 62
1, 120863, Note_on_c, 0, 54, 69
1, 120867, Note_on_c, 0, 50, 64
1, 120872, Control_c, 0, 64, 0
1, 120916, Control_c, 0, 64, 52
1, 120931, Note_off_c, 0, 50, 64
1, 120933, Note_on_c, 0, 49, 78
1, 120939, Control_c, 0, 64, 62
1, 120953, Control_c, 0, 64, 66
1, 120968, Control_c, 0, 64, 70
1, 120968, Control_c, 0, 67, 80
1, 120978, Note_off_c, 0, 54, 63
1, 120983, Control_c, 0, 64, 75
1, 120998, Control_c, 0, 64, 78
1, 120999, Note_on_c, 0, 48, 75
1, 121013, Control_c, 0, 64, 80
1, 121013, Control_c, 0, 67, 79
1, 121027, Control_c, 0, 64, 81
1, 121027, Control_c, 0, 67, 79
1, 121029, Note_off_c, 0, 49, 61
1, 121042, Control_c, 0, 67, 78
1, 121048, Note_off_c, 0, 32, 56
1, 121052, Note_off_c, 0, 48, 63
1, 121055, Note_on_c, 0, 47, 71
1, 121081, Note_on_c, 0, 21, 86
1, 121086, Control_c, 0, 67, 78
1, 121101, Control_c, 0, 64, 80
1, 121114, Note_off_c, 0, 47, 65
1, 121124, Note_off_c, 0, 21, 61
1, 121137, Note_on_c, 0, 46, 72
1, 121146, Control_c, 0, 64, 80
1, 121146, Control_c, 0, 67, 78
1, 121160, Control_c, 0, 67, 79
1, 121175, Control_c, 0, 67, 80
1, 121189, Note_off_c, 0, 46, 61
1, 121190, Control_c, 0, 67, 81
1, 121196, Note_on_c, 0, 45, 71
1, 121206, Control_c, 0, 67, 82
1, 121221, Control_c, 0, 67, 83
1, 121236, Control_c, 0, 64, 79
1, 121236, Control_c, 0, 67, 86
1, 121250, Control_c, 0, 67, 88
1, 121251, Note_off_c, 0, 45, 64
1, 121255, Note_on_c, 0, 44, 75
1, 121265, Control_c, 0, 64, 80
1, 121265, Control_c, 0, 67, 91
1, 121280, Control_c, 0, 67, 94
1, 121285, Note_off_c, 0, 44, 66
1, 121295, Control_c, 0, 67, 97
1, 121309, Control_c, 0, 64, 79
1, 121309, Control_c, 0, 67, 99
1, 121324, Control_c, 0, 64, 78
1, 121324, Control_c, 0, 67, 100
1, 121339, Control_c, 0, 64, 78
1, 121339, Control_c, 0, 67, 102
1, 121354, Control_c, 0, 64, 77
1, 121354, Control_c, 0, 67, 105
1, 121369, Control_c, 0, 64, 77
1, 121369, Control_c, 0, 67, 109
1, 121383, Control_c, 0, 64, 76
1, 121383, Control_c, 0, 67, 113
1, 121398, Control_c, 0, 64, 74
1, 121398, Control_c, 0, 67, 117
1, 121413, Control_c, 0, 64, 72
1, 121413, Control_c, 0, 67, 120
1, 121428, Control_c, 0, 64, 69
1, 121428, Control_c, 0, 67, 122
1, 121443, Control_c, 0, 64, 67
1, 121443, Control_c, 0, 67, 123
1, 121457, Control_c, 0, 64, 64
1, 121472, Control_c, 0, 64, 61
1, 121487, Control_c, 0, 64, 51
1, 121502, Control_c, 0, 64, 24
1, 121517, Control_c, 0, 64, 0
1, 121665, Control_c, 0, 64, 19
1, 121687, Control_c, 0, 64, 48
1, 121689, Note_on_c, 0, 65, 44
1, 121699, Note_on_c, 0, 44, 55
1, 121702, Control_c, 0, 64, 60
1, 121706, Note_on_c, 0, 60, 44
1, 121717, Control_c, 0, 64, 64
1, 121732, Control_c, 0, 64, 68
1, 121747, Control_c, 0, 64, 72
1, 121762, Control_c, 0, 64, 76
1, 121776, Control_c, 0, 64, 81
1, 121783, Note_off_c, 0, 44, 61
1, 121791, Control_c, 0, 64, 85
1, 121806, Control_c, 0, 64, 89
1, 121820, Note_on_c, 0, 53, 49
1, 121821, Control_c, 0, 64, 92
1, 121835, Control_c, 0, 64, 93
1, 121850, Control_c, 0, 64, 95
1, 121860, Note_on_c, 0, 56, 50
1, 121875, Note_off_c, 0, 60, 39
1, 121881, Note_off_c, 0, 53, 46
1, 121909, Control_c, 0, 64, 95
1, 121924, Control_c, 0, 67, 123
1, 121927, Note_off_c, 0, 56, 49
1, 121942, Note_on_c, 0, 60, 55
1, 121954, Control_c, 0, 64, 95
1, 121954, Control_c, 0, 67, 122
1, 121976, Note_off_c, 0, 60, 65
1, 122010, Note_on_c, 0, 67, 74
1, 122014, Control_c, 0, 67, 122
1, 122028, Note_on_c, 0, 62, 49
1, 122044, Control_c, 0, 67, 121
1, 122059, Control_c, 0, 64, 94
1, 122088, Control_c, 0, 64, 93
1, 122095, Note_off_c, 0, 65, 38
1, 122103, Control_c, 0, 67, 121
1, 122107, Note_on_c, 0, 59, 42
1, 122118, Control_c, 0, 64, 93
1, 122132, Control_c, 0, 64, 92
1, 122137, Note_off_c, 0, 59, 53
1, 122147, Control_c, 0, 64, 92
1, 122147, Control_c, 0, 67, 120
1, 122154, Note_on_c, 0, 56, 60
1, 122206, Control_c, 0, 67, 120
1, 122215, Note_off_c, 0, 56, 54
1, 122218, Note_off_c, 0, 62, 33
1, 122221, Control_c, 0, 64, 91
1, 122230, Note_on_c, 0, 52, 51
1, 122236, Control_c, 0, 64, 90
1, 122250, Control_c, 0, 64, 86
1, 122259, Note_off_c, 0, 52, 59
1, 122265, Control_c, 0, 64, 78
1, 122280, Note_on_c, 0, 59, 28
1, 122280, Control_c, 0, 64, 69
1, 122289, Note_on_c, 0, 64, 69
1, 122295, Control_c, 0, 64, 62
1, 122296, Note_on_c, 0, 44, 68
1, 122310, Control_c, 0, 64, 61
1, 122310, Control_c, 0, 67, 119
1, 122325, Control_c, 0, 64, 63
1, 122325, Control_c, 0, 67, 119
1, 122340, Control_c, 0, 64, 66
1, 122353, Note_off_c, 0, 67, 61
1, 122355, Control_c, 0, 64, 69
1, 122357, Note_off_c, 0, 59, 55
1, 122366, Note_on_c, 0, 52, 46
1, 122367, Note_off_c, 0, 64, 64
1, 122370, Control_c, 0, 64, 72
1, 122370, Control_c, 0, 67, 118
1, 122373, Note_off_c, 0, 44, 62
1, 122385, Control_c, 0, 64, 76
1, 122385, Control_c, 0, 67, 118
1, 122399, Control_c, 0, 64, 80
1, 122414, Control_c, 0, 64, 83
1, 122414, Control_c, 0, 67, 117
1, 122436, Note_on_c, 0, 56, 52
1, 122436, Control_c, 0, 64, 85
1, 122436, Control_c, 0, 67, 117
1, 122443, Note_off_c, 0, 52, 62
1, 122450, Control_c, 0, 64, 85
1, 122465, Control_c, 0, 67, 116
1, 122469, Note_off_c, 0, 56, 65
1, 122481, Note_on_c, 0, 59, 62
1, 122495, Control_c, 0, 67, 116
1, 122540, Control_c, 0, 67, 115
1, 122552, Note_off_c, 0, 59, 55
1, 122554, Control_c, 0, 64, 85
1, 122575, Note_on_c, 0, 71, 70
1, 122584, Note_on_c, 0, 62, 53
1, 122584, Control_c, 0, 64, 84
1, 122591, Note_on_c, 0, 68, 55
1, 122614, Note_off_c, 0, 62, 63
1, 122614, Control_c, 0, 64, 84
1, 122629, Control_c, 0, 64, 83
1, 122685, Note_on_c, 0, 59, 23
1, 122703, Note_on_c, 0, 64, 74
1, 122715, Note_off_c, 0, 71, 31
1, 122718, Note_on_c, 0, 56, 68
1, 122728, Note_off_c, 0, 59, 47
1, 122733, Note_off_c, 0, 68, 23
1, 122739, Note_off_c, 0, 64, 61
1, 122761, Note_off_c, 0, 56, 63
1, 122822, Control_c, 0, 64, 82
1, 122837, Control_c, 0, 64, 80
1, 122841, Note_on_c, 0, 44, 68
1, 122852, Control_c, 0, 64, 75
1, 122858, Note_on_c, 0, 77, 80
1, 122867, Control_c, 0, 64, 66
1, 122875, Note_on_c, 0, 72, 52
1, 122881, Control_c, 0, 64, 58
1, 122881, Control_c, 0, 67, 115
1, 122891, Note_on_c, 0, 65, 44
1, 122896, Control_c, 0, 64, 47
1, 122905, Note_off_c, 0, 44, 62
1, 122911, Control_c, 0, 64, 46
1, 122926, Control_c, 0, 64, 51
1, 122928, Note_on_c, 0, 53, 53
1, 122941, Control_c, 0, 64, 59
1, 122941, Control_c, 0, 67, 115
1, 122955, Control_c, 0, 64, 64
1, 122955, Control_c, 0, 67, 116
1, 122970, Control_c, 0, 64, 68
1, 122970, Control_c, 0, 67, 117
1, 122972, Note_on_c, 0, 56, 62
1, 122985, Control_c, 0, 64, 73
1, 122985, Control_c, 0, 67, 118
1, 122987, Note_off_c, 0, 53, 64
1, 123000, Control_c, 0, 64, 80
1, 123000, Control_c, 0, 67, 118
1, 123009, Note_off_c, 0, 56, 64
1, 123015, Control_c, 0, 64, 89
1, 123015, Control_c, 0, 67, 119
1, 123029, Control_c, 0, 64, 96
1, 123029, Control_c, 0, 67, 120
1, 123035, Note_on_c, 0, 60, 60
1, 123039, Note_off_c, 0, 77, 62
1, 123044, Control_c, 0, 64, 103
1, 123044, Control_c, 0, 67, 121
1, 123059, Control_c, 0, 64, 108
1, 123059, Control_c, 0, 67, 122
1, 123063, Note_off_c, 0, 65, 53
1, 123073, Control_c, 0, 64, 111
1, 123073, Control_c, 0, 67, 122
1, 123082, Note_off_c, 0, 60, 52
1, 123088, Control_c, 0, 64, 113
1, 123088, Control_c, 0, 67, 123
1, 123103, Control_c, 0, 64, 114
1, 123118, Note_on_c, 0, 62, 65
1, 123142, Note_on_c, 0, 79, 83
1, 123160, Note_on_c, 0, 74, 73
1, 123165, Note_off_c, 0, 72, 59
1, 123167, Note_off_c, 0, 62, 61
1, 123181, Note_on_c, 0, 67, 52
1, 123200, Control_c, 0, 67, 122
1, 123215, Control_c, 0, 67, 122
1, 123220, Note_on_c, 0, 59, 60
1, 123229, Control_c, 0, 67, 121
1, 123244, Control_c, 0, 67, 121
1, 123256, Note_off_c, 0, 59, 57
1, 123259, Control_c, 0, 64, 113
1, 123273, Control_c, 0, 64, 111
1, 123275, Note_on_c, 0, 56, 74
1, 123288, Control_c, 0, 64, 110
1, 123292, Note_off_c, 0, 67, 47
1, 123292, Note_off_c, 0, 79, 55
1, 123303, Control_c, 0, 64, 109
1, 123318, Control_c, 0, 64, 109
1, 123318, Control_c, 0, 67, 120
1, 123333, Control_c, 0, 64, 108
1, 123335, Note_off_c, 0, 56, 63
1, 123347, Control_c, 0, 64, 106
1, 123362, Control_c, 0, 64, 104
1, 123377, Control_c, 0, 64, 101
1, 123380, Note_on_c, 0, 52, 23
1, 123392, Control_c, 0, 64, 97
1, 123407, Control_c, 0, 64, 89
1, 123422, Note_off_c, 0, 52, 51
1, 123422, Control_c, 0, 64, 79
1, 123427, Note_on_c, 0, 44, 63
1, 123434, Note_on_c, 0, 76, 74
1, 123437, Control_c, 0, 64, 67
1, 123452, Note_on_c, 0, 71, 56
1, 123452, Control_c, 0, 64, 59
1, 123452, Control_c, 0, 67, 119
1, 123467, Control_c, 0, 64, 52
1, 123467, Note_on_c, 0, 64, 45
1, 123481, Control_c, 0, 64, 51
1, 123496, Control_c, 0, 64, 54
1, 123496, Control_c, 0, 67, 119
1, 123511, Note_off_c, 0, 44, 62
1, 123511, Control_c, 0, 64, 60
1, 123511, Note_on_c, 0, 52, 63
1, 123511, Note_off_c, 0, 74, 57
1, 123526, Control_c, 0, 64, 65
1, 123529, Note_off_c, 0, 64, 45
1, 123541, Control_c, 0, 64, 67
1, 123541, Control_c, 0, 67, 118
1, 123553, Note_off_c, 0, 52, 60
1, 123555, Control_c, 0, 64, 70
1, 123557, Note_on_c, 0, 56, 63
1, 123561, Note_off_c, 0, 71, 60
1, 123570, Control_c, 0, 64, 74
1, 123570, Control_c, 0, 67, 118
1, 123585, Control_c, 0, 64, 77
1, 123600, Note_off_c, 0, 56, 62
1, 123601, Control_c, 0, 64, 79
1, 123616, Control_c, 0, 64, 80
1, 123623, Note_on_c, 0, 59, 58
1, 123631, Control_c, 0, 64, 81
1, 123645, Control_c, 0, 64, 82
1, 123660, Control_c, 0, 64, 82
1, 123660, Note_off_c, 0, 59, 58
1, 123705, Note_on_c, 0, 62, 53
1, 123737, Note_off_c, 0, 62, 63
1, 123739, Note_on_c, 0, 71, 50
1, 123762, Note_on_c, 0, 64, 40
1, 123765, Note_off_c, 0, 76, 60
1, 123771, Note_off_c, 0, 71, 66
1, 123781, Note_on_c, 0, 59, 49
1, 123787, Note_off_c, 0, 64, 60
1, 123808, Control_c, 0, 64, 83
1, 123812, Note_off_c, 0, 59, 53
1, 123823, Control_c, 0, 64, 84
1, 123823, Control_c, 0, 67, 117
1, 123833, Note_on_c, 0, 56, 65
1, 123838, Control_c, 0, 64, 85
1, 123852, Control_c, 0, 67, 117
1, 123867, Control_c, 0, 64, 85
1, 123882, Control_c, 0, 64, 86
1, 123894, Note_off_c, 0, 56, 63
1, 123896, Control_c, 0, 64, 87
1, 123905, Note_on_c, 0, 52, 47
1, 123911, Control_c, 0, 64, 89
1, 123934, Control_c, 0, 64, 91
1, 123949, Control_c, 0, 64, 92
1, 123964, Control_c, 0, 64, 93
1, 123967, Note_off_c, 0, 52, 48
1, 123977, Note_on_c, 0, 44, 66
1, 123978, Control_c, 0, 64, 95
1, 123993, Control_c, 0, 64, 100
1, 124008, Control_c, 0, 64, 106
1, 124022, Control_c, 0, 64, 111
1, 124036, Note_off_c, 0, 44, 62
1, 124037, Control_c, 0, 64, 114
1, 124045, Note_on_c, 0, 52, 49
1, 124052, Control_c, 0, 64, 117
1, 124067, Control_c, 0, 64, 123
1, 124082, Control_c, 0, 64, 127
1, 124082, Control_c, 0, 67, 116
1, 124084, Note_off_c, 0, 52, 63
1, 124096, Note_on_c, 0, 56, 57
1, 124111, Control_c, 0, 67, 115
1, 124130, Note_off_c, 0, 56, 65
1, 124141, Control_c, 0, 67, 115
1, 124152, Note_on_c, 0, 59, 63
1, 124156, Control_c, 0, 67, 114
1, 124191, Note_off_c, 0, 59, 61
1, 124236, Note_on_c, 0, 62, 54
1, 124267, Note_off_c, 0, 62, 63
1, 124298, Note_on_c, 0, 59, 65
1, 124331, Note_off_c, 0, 59, 59
1, 124370, Note_on_c, 0, 56, 68
1, 124378, Control_c, 0, 67, 115
1, 124394, Control_c, 0, 67, 115
1, 124409, Control_c, 0, 67, 116
1, 124423, Control_c, 0, 67, 116
1, 124429, Note_off_c, 0, 56, 62
1, 124438, Control_c, 0, 67, 117
1, 124453, Control_c, 0, 67, 117
1, 124467, Note_on_c, 0, 52, 37
1, 124483, Control_c, 0, 67, 118
1, 124498, Control_c, 0, 64, 110
1, 124498, Control_c, 0, 67, 118
1, 124509, Note_off_c, 0, 52, 46
1, 124513, Control_c, 0, 64, 88
1, 124516, Note_on_c, 0, 50, 94
1, 124527, Note_on_c, 0, 44, 67
1, 124527, Control_c, 0, 64, 73
1, 124542, Control_c, 0, 64, 63
1, 124557, Control_c, 0, 64, 57
1, 124557, Control_c, 0, 67, 119
1, 124572, Control_c, 0, 64, 60
1, 124587, Control_c, 0, 64, 65
1, 124601, Control_c, 0, 64, 69
1, 124616, Control_c, 0, 64, 74
1, 124621, Note_off_c, 0, 44, 63
1, 124631, Note_on_c, 0, 52, 57
1, 124631, Control_c, 0, 64, 81
1, 124636, Note_off_c, 0, 50, 67
1, 124645, Control_c, 0, 64, 91
1, 124660, Control_c, 0, 64, 102
1, 124683, Control_c, 0, 64, 127
1, 124688, Note_on_c, 0, 56, 73
1, 124701, Note_off_c, 0, 52, 59
1, 124701, Poly_aftertouch_c, 0, 51, 127
1, 124713, Control_c, 0, 67, 118
1, 124730, Poly_aftertouch_c, 0, 51, 0
1, 124742, Control_c, 0, 67, 118
1, 124763, Note_off_c, 0, 56, 63
1, 124769, Note_on_c, 0, 59, 68
1, 124772, Control_c, 0, 67, 117
1, 124787, Control_c, 0, 67, 117
1, 124801, Control_c, 0, 67, 116
1, 124816, Control_c, 0, 67, 116
1, 124845, Control_c, 0, 67, 115
1, 124848, Note_on_c, 0, 47, 78
1, 124850, Note_off_c, 0, 59, 58
1, 124868, Note_on_c, 0, 64, 65
1, 124871, Note_on_c, 0, 62, 67
1, 124875, Control_c, 0, 67, 114
1, 124890, Note_off_c, 0, 47, 65
1, 124890, Control_c, 0, 67, 114
1, 124905, Control_c, 0, 67, 113
1, 124919, Control_c, 0, 67, 113
1, 124921, Note_on_c, 0, 68, 77
1, 124934, Control_c, 0, 67, 112
1, 124939, Note_off_c, 0, 62, 57
1, 124945, Note_off_c, 0, 64, 60
1, 124949, Control_c, 0, 67, 111
1, 124967, Note_on_c, 0, 71, 78
1, 125003, Note_off_c, 0, 68, 63
1, 125014, Note_on_c, 0, 76, 84
1, 125023, Note_off_c, 0, 71, 65
1, 125044, Note_off_c, 0, 76, 55
1, 125097, Control_c, 0, 64, 121
1, 125104, Note_on_c, 0, 74, 97
1, 125105, Note_on_c, 0, 68, 85
1, 125112, Control_c, 0, 64, 96
1, 125115, Note_on_c, 0, 62, 81
1, 125127, Control_c, 0, 64, 79
1, 125142, Control_c, 0, 64, 67
1, 125157, Control_c, 0, 64, 63
1, 125157, Control_c, 0, 67, 111
1, 125172, Control_c, 0, 64, 66
1, 125187, Control_c, 0, 64, 70
1, 125187, Control_c, 0, 67, 110
1, 125190, Note_on_c, 0, 75, 81
1, 125199, Note_off_c, 0, 68, 59
1, 125202, Control_c, 0, 64, 76
1, 125202, Control_c, 0, 67, 109
1, 125216, Control_c, 0, 64, 85
1, 125216, Control_c, 0, 67, 106
1, 125231, Note_on_c, 0, 80, 72
1, 125231, Control_c, 0, 64, 96
1, 125231, Control_c, 0, 67, 100
1, 125246, Control_c, 0, 64, 117
1, 125246, Control_c, 0, 67, 91
1, 125261, Control_c, 0, 64, 127
1, 125261, Control_c, 0, 67, 80
1, 125267, Note_off_c, 0, 74, 65
1, 125275, Note_off_c, 0, 62, 62
1, 125276, Control_c, 0, 67, 67
1, 125291, Control_c, 0, 67, 53
1, 125292, Note_on_c, 0, 83, 79
1, 125294, Note_off_c, 0, 75, 63
1, 125304, Note_on_c, 0, 78, 17
1, 125306, Control_c, 0, 67, 44
1, 125318, Note_off_c, 0, 80, 62
1, 125321, Control_c, 0, 67, 38
1, 125335, Control_c, 0, 67, 31
1, 125346, Note_off_c, 0, 78, 52
1, 125350, Control_c, 0, 67, 25
1, 125354, Note_off_c, 0, 83, 64
1, 125356, Note_on_c, 0, 71, 82
1, 125360, Note_on_c, 0, 59, 79
1, 125365, Control_c, 0, 67, 19
1, 125370, Note_on_c, 0, 76, 70
1, 125373, Note_on_c, 0, 74, 71
1, 125380, Control_c, 0, 67, 13
1, 125382, Note_off_c, 0, 59, 69
1, 125395, Control_c, 0, 67, 9
1, 125410, Control_c, 0, 67, 8
1, 125422, Note_off_c, 0, 74, 56
1, 125423, Note_off_c, 0, 71, 54
1, 125437, Note_on_c, 0, 80, 85
1, 125437, Note_off_c, 0, 76, 54
1, 125472, Note_on_c, 0, 83, 81
1, 125476, Control_c, 0, 67, 10
1, 125491, Control_c, 0, 67, 11
1, 125520, Note_off_c, 0, 80, 62
1, 125520, Control_c, 0, 67, 11
1, 125530, Note_on_c, 0, 88, 93
1, 125541, Note_off_c, 0, 83, 65
1, 125550, Control_c, 0, 67, 12
1, 125561, Note_off_c, 0, 88, 68
1, 125565, Control_c, 0, 67, 13
1, 125580, Control_c, 0, 67, 13
1, 125595, Control_c, 0, 67, 14
1, 125605, Note_on_c, 0, 86, 96
1, 125612, Note_on_c, 0, 74, 89
1, 125620, Note_on_c, 0, 80, 92
1, 125624, Control_c, 0, 64, 102
1, 125639, Control_c, 0, 64, 85
1, 125647, Note_on_c, 0, 82, 56
1, 125654, Control_c, 0, 64, 78
1, 125668, Control_c, 0, 64, 80
1, 125668, Control_c, 0, 67, 13
1, 125669, Note_off_c, 0, 82, 59
1, 125683, Control_c, 0, 64, 86
1, 125685, Note_off_c, 0, 80, 63
1, 125687, Note_on_c, 0, 87, 84
1, 125698, Control_c, 0, 64, 97
1, 125698, Control_c, 0, 67, 13
1, 125709, Note_on_c, 0, 92, 73
1, 125713, Control_c, 0, 64, 119
1, 125728, Control_c, 0, 64, 127
1, 125736, Note_off_c, 0, 86, 62
1, 125741, Note_off_c, 0, 74, 66
1, 125753, Note_on_c, 0, 90, 60
1, 125772, Control_c, 0, 67, 12
1, 125776, Note_on_c, 0, 95, 85
1, 125785, Note_off_c, 0, 90, 65
1, 125787, Control_c, 0, 67, 11
1, 125791, Note_off_c, 0, 87, 65
1, 125810, Note_off_c, 0, 92, 66
1, 125839, Note_on_c, 0, 83, 92
1, 125839, Note_off_c, 0, 95, 64
1, 125844, Note_on_c, 0, 71, 74
1, 125849, Note_on_c, 0, 88, 81
1, 125850, Note_on_c, 0, 86, 72
1, 125863, Note_off_c, 0, 71, 72
1, 125887, Note_off_c, 0, 83, 66
1, 125906, Note_on_c, 0, 92, 95
1, 125908, Note_off_c, 0, 86, 61
1, 125917, Note_off_c, 0, 88, 56
1, 125938, Poly_aftertouch_c, 0, 69, 0
1, 125938, Note_on_c, 0, 95, 83
1, 125992, Note_on_c, 0, 100, 91
1, 125995, Control_c, 0, 67, 12
1, 126010, Control_c, 0, 67, 13
1, 126021, Note_off_c, 0, 92, 64
1, 126025, Control_c, 0, 64, 105
1, 126034, Note_off_c, 0, 95, 65
1, 126039, Note_off_c, 0, 100, 66
1, 126039, Control_c, 0, 64, 81
1, 126039, Control_c, 0, 67, 13
1, 126054, Control_c, 0, 64, 65
1, 126060, Note_on_c, 0, 87, 94
1, 126068, Note_on_c, 0, 80, 95
1, 126069, Control_c, 0, 64, 57
1, 126084, Control_c, 0, 64, 64
1, 126099, Control_c, 0, 64, 76
1, 126100, Note_off_c, 0, 87, 68
1, 126114, Control_c, 0, 64, 98
1, 126117, Note_off_c, 0, 80, 65
1, 126120, Note_on_c, 0, 86, 77
1, 126120, Note_on_c, 0, 88, 76
1, 126129, Control_c, 0, 64, 127
1, 126129, Control_c, 0, 67, 12
1, 126129, Note_on_c, 0, 89, 80
1, 126131, Note_on_c, 0, 95, 81
1, 126143, Control_c, 0, 67, 11
1, 126150, Note_off_c, 0, 89, 62
1, 126165, Control_c, 0, 67, 9
1, 126173, Note_off_c, 0, 88, 62
1, 126180, Control_c, 0, 67, 8
1, 126183, Note_off_c, 0, 86, 62
1, 126191, Note_on_c, 0, 83, 87
1, 126191, Note_off_c, 0, 95, 63
1, 126195, Control_c, 0, 67, 0
1, 126236, Note_on_c, 0, 88, 85
1, 126245, Note_on_c, 0, 86, 71
1, 126270, Note_off_c, 0, 83, 58
1, 126273, Note_off_c, 0, 86, 62
1, 126278, Note_off_c, 0, 88, 65
1, 126298, Note_on_c, 0, 75, 85
1, 126300, Note_on_c, 0, 68, 90
1, 126325, Note_off_c, 0, 75, 65
1, 126343, Note_off_c, 0, 68, 66
1, 126363, Note_on_c, 0, 74, 94
1, 126374, Note_on_c, 0, 76, 75
1, 126380, Note_on_c, 0, 83, 71
1, 126400, Note_off_c, 0, 76, 65
1, 126418, Note_off_c, 0, 74, 61
1, 126420, Note_on_c, 0, 81, 35
1, 126432, Note_on_c, 0, 71, 88
1, 126441, Note_off_c, 0, 83, 56
1, 126450, Note_off_c, 0, 81, 59
1, 126475, Note_on_c, 0, 76, 79
1, 126499, Note_off_c, 0, 76, 64
1, 126505, Note_off_c, 0, 71, 63
1, 126550, Note_on_c, 0, 56, 96
1, 126560, Poly_aftertouch_c, 0, 74, 0
1, 126620, Note_off_c, 0, 56, 64
1, 126621, Note_on_c, 0, 49, 37
1, 126631, Note_on_c, 0, 64, 78
1, 126632, Note_on_c, 0, 68, 81
1, 126641, Note_on_c, 0, 71, 51
1, 126659, Note_off_c, 0, 71, 67
1, 126670, Note_off_c, 0, 49, 48
1, 126680, Note_off_c, 0, 64, 57
1, 126695, Note_on_c, 0, 63, 80
1, 126718, Note_off_c, 0, 68, 62
1, 126757, Note_on_c, 0, 62, 82
1, 126757, Note_off_c, 0, 63, 60
1, 126804, Note_on_c, 0, 44, 94
1, 126819, Control_c, 0, 67, 8
1, 126821, Note_on_c, 0, 61, 82
1, 126825, Note_off_c, 0, 62, 61
1, 126834, Control_c, 0, 67, 13
1, 126835, Note_off_c, 0, 44, 64
1, 126848, Control_c, 0, 67, 18
1, 126863, Control_c, 0, 67, 23
1, 126878, Control_c, 0, 67, 26
1, 126889, Note_on_c, 0, 60, 78
1, 126893, Control_c, 0, 67, 28
1, 126908, Control_c, 0, 67, 30
1, 126924, Note_off_c, 0, 61, 61
1, 126930, Poly_aftertouch_c, 0, 63, 127
1, 126930, Control_c, 0, 67, 31
1, 126945, Control_c, 0, 67, 32
1, 126949, Note_on_c, 0, 59, 76
1, 126949, Note_off_c, 0, 60, 65
1, 126967, Poly_aftertouch_c, 0, 63, 0
1, 127008, Note_on_c, 0, 58, 82
1, 127012, Note_off_c, 0, 59, 62
1, 127048, Control_c, 0, 67, 32
1, 127051, Note_off_c, 0, 58, 59
1, 127063, Control_c, 0, 67, 31
1, 127098, Note_on_c, 0, 32, 93
1, 127108, Control_c, 0, 64, 108
1, 127122, Control_c, 0, 64, 87
1, 127137, Control_c, 0, 64, 73
1, 127137, Control_c, 0, 67, 30
1, 127152, Control_c, 0, 64, 64
1, 127152, Control_c, 0, 67, 30
1, 127167, Control_c, 0, 64, 62
1, 127167, Control_c, 0, 67, 29
1, 127174, Note_on_c, 0, 56, 73
1, 127175, Note_on_c, 0, 52, 62
1, 127182, Control_c, 0, 64, 65
1, 127196, Control_c, 0, 64, 69
1, 127196, Control_c, 0, 67, 30
1, 127211, Control_c, 0, 64, 74
1, 127215, Note_off_c, 0, 52, 61
1, 127226, Control_c, 0, 64, 79
1, 127238, Note_on_c, 0, 51, 78
1, 127240, Control_c, 0, 64, 86
1, 127255, Control_c, 0, 64, 92
1, 127269, Note_off_c, 0, 56, 64
1, 127270, Control_c, 0, 64, 98
1, 127285, Control_c, 0, 64, 103
1, 127300, Control_c, 0, 64, 108
1, 127302, Note_off_c, 0, 51, 64
1, 127304, Note_off_c, 0, 32, 59
1, 127305, Note_on_c, 0, 50, 75
1, 127315, Control_c, 0, 64, 110
1, 127330, Control_c, 0, 64, 112
1, 127330, Control_c, 0, 67, 30
1, 127345, Control_c, 0, 64, 114
1, 127345, Control_c, 0, 67, 31
1, 127357, Poly_aftertouch_c, 0, 25, 127
1, 127358, Note_on_c, 0, 21, 85
1, 127360, Control_c, 0, 64, 115
1, 127360, Control_c, 0, 67, 31
1, 127372, Note_on_c, 0, 49, 83
1, 127376, Note_off_c, 0, 50, 65
1, 127394, Note_off_c, 0, 21, 63
1, 127396, Poly_aftertouch_c, 0, 25, 0
1, 127434, Control_c, 0, 67, 32
1, 127448, Control_c, 0, 67, 33
1, 127449, Note_on_c, 0, 48, 74
1, 127459, Note_off_c, 0, 49, 63
1, 127463, Control_c, 0, 67, 34
1, 127478, Control_c, 0, 67, 35
1, 127493, Control_c, 0, 67, 37
1, 127500, Note_on_c, 0, 47, 72
1, 127501, Note_off_c, 0, 48, 63
1, 127508, Control_c, 0, 67, 40
1, 127522, Control_c, 0, 67, 43
1, 127537, Control_c, 0, 64, 114
1, 127537, Control_c, 0, 67, 45
1, 127552, Note_off_c, 0, 47, 59
1, 127552, Control_c, 0, 64, 111
1, 127552, Control_c, 0, 67, 47
1, 127562, Note_on_c, 0, 46, 73
1, 127567, Control_c, 0, 64, 110
1, 127567, Control_c, 0, 67, 50
1, 127582, Control_c, 0, 64, 109
1, 127582, Control_c, 0, 67, 53
1, 127591, Note_off_c, 0, 46, 66
1, 127598, Control_c, 0, 64, 109
1, 127598, Control_c, 0, 67, 56
1, 127612, Control_c, 0, 67, 58
1, 127627, Control_c, 0, 64, 108
1, 127627, Control_c, 0, 67, 62
1, 127642, Control_c, 0, 64, 106
1, 127642, Control_c, 0, 67, 66
1, 127657, Control_c, 0, 64, 100
1, 127657, Control_c, 0, 67, 70
1, 127679, Control_c, 0, 64, 96
1, 127679, Control_c, 0, 67, 75
1, 127694, Control_c, 0, 64, 92
1, 127694, Control_c, 0, 67, 79
1, 127708, Control_c, 0, 64, 90
1, 127708, Control_c, 0, 67, 82
1, 127723, Control_c, 0, 64, 86
1, 127723, Control_c, 0, 67, 85
1, 127738, Control_c, 0, 64, 82
1, 127738, Control_c, 0, 67, 87
1, 127753, Control_c, 0, 64, 78
1, 127753, Control_c, 0, 67, 89
1, 127768, Control_c, 0, 64, 71
1, 127768, Control_c, 0, 67, 90
1, 127783, Control_c, 0, 64, 65
1, 127783, Control_c, 0, 67, 93
1, 127798, Control_c, 0, 64, 60
1, 127798, Control_c, 0, 67, 95
1, 127812, Control_c, 0, 64, 50
1, 127812, Control_c, 0, 67, 96
1, 127826, Control_c, 0, 64, 38
1, 127826, Control_c, 0, 67, 96
1, 127841, Control_c, 0, 64, 0
1, 127856, Control_c, 0, 67, 97
1, 127935, Note_on_c, 0, 66, 63
1, 127962, Note_on_c, 0, 44, 45
1, 127966, Note_on_c, 0, 61, 44
1, 127989, Control_c, 0, 64, 46
1, 128004, Control_c, 0, 64, 63
1, 128018, Control_c, 0, 64, 67
1, 128033, Control_c, 0, 64, 70
1, 128048, Control_c, 0, 64, 74
1, 128052, Note_off_c, 0, 44, 58
1, 128063, Control_c, 0, 64, 78
1, 128073, Note_on_c, 0, 49, 38
1, 128078, Control_c, 0, 64, 83
1, 128078, Control_c, 0, 67, 96
1, 128093, Control_c, 0, 64, 89
1, 128093, Control_c, 0, 67, 96
1, 128108, Control_c, 0, 64, 93
1, 128108, Control_c, 0, 67, 95
1, 128109, Note_on_c, 0, 54, 50
1, 128118, Note_off_c, 0, 49, 47
1, 128123, Control_c, 0, 64, 98
1, 128133, Note_off_c, 0, 61, 36
1, 128138, Control_c, 0, 64, 102
1, 128153, Control_c, 0, 64, 105
1, 128167, Control_c, 0, 64, 108
1, 128167, Control_c, 0, 67, 95
1, 128169, Note_off_c, 0, 54, 57
1, 128182, Control_c, 0, 64, 109
1, 128182, Control_c, 0, 67, 94
1, 128184, Note_on_c, 0, 58, 45
1, 128197, Control_c, 0, 64, 109
1, 128197, Control_c, 0, 67, 94
1, 128212, Control_c, 0, 64, 110
1, 128227, Control_c, 0, 64, 111
1, 128227, Control_c, 0, 67, 93
1, 128230, Note_off_c, 0, 58, 54
1, 128242, Control_c, 0, 64, 112
1, 128245, Note_on_c, 0, 68, 82
1, 128251, Note_on_c, 0, 63, 48
1, 128271, Control_c, 0, 67, 93
1, 128286, Control_c, 0, 67, 92
1, 128290, Note_on_c, 0, 60, 67
1, 128339, Note_off_c, 0, 60, 55
1, 128355, Note_off_c, 0, 66, 57
1, 128377, Note_on_c, 0, 56, 60
1, 128391, Control_c, 0, 67, 92
1, 128424, Note_off_c, 0, 56, 64
1, 128433, Note_on_c, 0, 51, 62
1, 128450, Note_off_c, 0, 63, 37
1, 128457, Control_c, 0, 64, 109
1, 128472, Control_c, 0, 64, 98
1, 128487, Control_c, 0, 64, 83
1, 128487, Control_c, 0, 67, 91
1, 128501, Control_c, 0, 64, 73
1, 128501, Control_c, 0, 67, 91
1, 128503, Note_off_c, 0, 51, 59
1, 128513, Note_on_c, 0, 44, 77
1, 128516, Control_c, 0, 64, 67
1, 128516, Control_c, 0, 67, 90
1, 128522, Note_on_c, 0, 65, 83
1, 128531, Control_c, 0, 64, 68
1, 128531, Control_c, 0, 67, 90
1, 128538, Note_on_c, 0, 60, 68
1, 128546, Control_c, 0, 64, 72
1, 128546, Control_c, 0, 67, 89
1, 128561, Control_c, 0, 64, 78
1, 128561, Control_c, 0, 67, 89
1, 128573, Note_off_c, 0, 44, 63
1, 128576, Control_c, 0, 64, 89
1, 128576, Control_c, 0, 67, 88
1, 128587, Note_off_c, 0, 68, 60
1, 128591, Control_c, 0, 64, 101
1, 128591, Control_c, 0, 67, 88
1, 128606, Control_c, 0, 64, 127
1, 128606, Control_c, 0, 67, 87
1, 128606, Note_off_c, 0, 65, 61
1, 128621, Control_c, 0, 67, 86
1, 128631, Note_on_c, 0, 53, 55
1, 128635, Control_c, 0, 67, 85
1, 128665, Control_c, 0, 67, 84
1, 128668, Note_on_c, 0, 58, 74
1, 128680, Control_c, 0, 67, 83
1, 128680, Note_off_c, 0, 53, 62
1, 128694, Control_c, 0, 67, 80
1, 128698, Note_off_c, 0, 60, 42
1, 128709, Control_c, 0, 67, 76
1, 128722, Note_off_c, 0, 58, 63
1, 128724, Control_c, 0, 67, 68
1, 128732, Note_on_c, 0, 62, 70
1, 128739, Control_c, 0, 67, 58
1, 128754, Control_c, 0, 67, 46
1, 128763, Note_off_c, 0, 62, 58
1, 128768, Control_c, 0, 67, 34
1, 128783, Control_c, 0, 67, 23
1, 128791, Note_on_c, 0, 72, 87
1, 128797, Note_on_c, 0, 51, 78
1, 128798, Control_c, 0, 67, 13
1, 128811, Note_on_c, 0, 56, 70
1, 128812, Control_c, 0, 67, 0
1, 128814, Note_on_c, 0, 65, 65
1, 128854, Note_off_c, 0, 51, 63
1, 128875, Note_off_c, 0, 65, 60
1, 128877, Note_off_c, 0, 56, 63
1, 128891, Note_on_c, 0, 60, 70
1, 128937, Note_on_c, 0, 65, 70
1, 128955, Note_on_c, 0, 53, 78
1, 128960, Note_off_c, 0, 60, 66
1, 128963, Note_on_c, 0, 58, 72
1, 128966, Note_off_c, 0, 72, 60
1, 128969, Note_off_c, 0, 65, 64
1, 129002, Note_off_c, 0, 53, 62
1, 129005, Note_off_c, 0, 58, 61
1, 129154, Control_c, 0, 64, 103
1, 129167, Note_on_c, 0, 64, 96
1, 129175, Control_c, 0, 64, 85
1, 129181, Note_on_c, 0, 55, 82
1, 129181, Note_on_c, 0, 84, 70
1, 129187, Note_on_c, 0, 60, 69
1, 129190, Control_c, 0, 64, 70
1, 129206, Control_c, 0, 64, 58
1, 129221, Control_c, 0, 64, 40
1, 129236, Control_c, 0, 64, 41
1, 129250, Control_c, 0, 64, 53
1, 129265, Control_c, 0, 64, 64
1, 129280, Control_c, 0, 64, 69
1, 129295, Control_c, 0, 64, 76
1, 129297, Note_off_c, 0, 64, 65
1, 129299, Note_off_c, 0, 60, 62
1, 129310, Control_c, 0, 64, 84
1, 129316, Note_off_c, 0, 55, 65
1, 129324, Control_c, 0, 64, 92
1, 129339, Control_c, 0, 64, 100
1, 129352, Note_on_c, 0, 79, 63
1, 129354, Control_c, 0, 64, 104
1, 129369, Control_c, 0, 64, 109
1, 129380, Note_off_c, 0, 84, 48
1, 129384, Control_c, 0, 64, 114
1, 129399, Control_c, 0, 64, 119
1, 129414, Control_c, 0, 64, 127
1, 129443, Note_off_c, 0, 79, 47
1, 129447, Note_on_c, 0, 44, 83
1, 129453, Note_on_c, 0, 32, 70
1, 129465, Note_on_c, 0, 76, 58
1, 129480, Note_off_c, 0, 32, 62
1, 129482, Note_off_c, 0, 44, 63
1, 129500, Note_off_c, 0, 76, 63
1, 129531, Note_on_c, 0, 72, 66
1, 129588, Note_off_c, 0, 72, 59
1, 129598, Note_on_c, 0, 86, 82
1, 129661, Note_on_c, 0, 81, 76
1, 129685, Note_off_c, 0, 86, 61
1, 129724, Control_c, 0, 64, 117
1, 129735, Note_on_c, 0, 78, 81
1, 129735, Note_on_c, 0, 66, 98
1, 129739, Control_c, 0, 64, 97
1, 129749, Note_on_c, 0, 62, 72
1, 129754, Note_on_c, 0, 57, 69
1, 129754, Control_c, 0, 64, 82
1, 129769, Control_c, 0, 64, 71
1, 129770, Note_off_c, 0, 81, 57
1, 129783, Control_c, 0, 64, 67
1, 129813, Control_c, 0, 64, 69
1, 129816, Note_off_c, 0, 78, 61
1, 129821, Note_on_c, 0, 74, 69
1, 129828, Control_c, 0, 64, 74
1, 129843, Control_c, 0, 64, 82
1, 129858, Control_c, 0, 64, 93
1, 129858, Note_off_c, 0, 62, 60
1, 129865, Note_off_c, 0, 57, 60
1, 129873, Control_c, 0, 64, 105
1, 129882, Note_off_c, 0, 74, 58
1, 129887, Note_on_c, 0, 83, 71
1, 129887, Control_c, 0, 64, 116
1, 129902, Control_c, 0, 64, 127
1, 129919, Note_off_c, 0, 66, 59
1, 129923, Note_on_c, 0, 81, 41
1, 129953, Note_on_c, 0, 78, 73
1, 129953, Note_off_c, 0, 81, 34
1, 129955, Note_off_c, 0, 83, 65
1, 130014, Control_c, 0, 64, 109
1, 130019, Note_on_c, 0, 68, 85
1, 130023, Note_off_c, 0, 78, 63
1, 130024, Note_on_c, 0, 59, 78
1, 130024, Note_on_c, 0, 74, 75
1, 130029, Control_c, 0, 64, 100
1, 130033, Note_on_c, 0, 64, 65
1, 130058, Control_c, 0, 64, 102
1, 130060, Note_off_c, 0, 64, 68
1, 130072, Note_off_c, 0, 59, 59
1, 130073, Control_c, 0, 64, 109
1, 130082, Note_off_c, 0, 68, 61
1, 130084, Note_off_c, 0, 74, 64
1, 130088, Control_c, 0, 64, 117
1, 130092, Note_on_c, 0, 71, 66
1, 130103, Control_c, 0, 64, 123
1, 130118, Control_c, 0, 64, 127
1, 130159, Note_on_c, 0, 57, 76
1, 130168, Note_on_c, 0, 62, 59
1, 130168, Note_on_c, 0, 78, 85
1, 130172, Note_on_c, 0, 66, 66
1, 130188, Note_off_c, 0, 71, 39
1, 130192, Note_off_c, 0, 57, 59
1, 130204, Note_off_c, 0, 62, 61
1, 130212, Note_off_c, 0, 66, 56
1, 130233, Note_on_c, 0, 74, 73
1, 130279, Note_off_c, 0, 78, 50
1, 130296, Note_on_c, 0, 73, 86
1, 130314, Note_on_c, 0, 68, 71
1, 130314, Note_off_c, 0, 74, 62
1, 130356, Note_on_c, 0, 71, 85
1, 130366, Note_off_c, 0, 73, 62
1, 130379, Note_off_c, 0, 68, 59
1, 130389, Note_off_c, 0, 71, 62
1, 130499, Note_on_c, 0, 56, 71
1, 130508, Note_on_c, 0, 85, 96
1, 130518, Control_c, 0, 64, 107
1, 130524, Note_on_c, 0, 78, 74
1, 130532, Control_c, 0, 64, 93
1, 130547, Control_c, 0, 64, 82
1, 130562, Control_c, 0, 64, 69
1, 130577, Control_c, 0, 64, 61
1, 130591, Control_c, 0, 64, 52
1, 130602, Note_on_c, 0, 61, 68
1, 130621, Control_c, 0, 64, 58
1, 130636, Control_c, 0, 64, 63
1, 130639, Note_off_c, 0, 56, 65
1, 130651, Control_c, 0, 64, 66
1, 130671, Note_on_c, 0, 66, 69
1, 130673, Control_c, 0, 64, 71
1, 130681, Note_off_c, 0, 78, 52
1, 130688, Control_c, 0, 64, 79
1, 130703, Control_c, 0, 64, 91
1, 130718, Control_c, 0, 64, 107
1, 130733, Control_c, 0, 64, 127
1, 130746, Note_on_c, 0, 70, 74
1, 130750, Note_off_c, 0, 61, 61
1, 130787, Note_off_c, 0, 66, 54
1, 130793, Note_on_c, 0, 87, 95
1, 130809, Note_on_c, 0, 80, 69
1, 130824, Note_off_c, 0, 70, 56
1, 130855, Note_off_c, 0, 85, 58
1, 130891, Note_on_c, 0, 72, 76
1, 130935, Note_off_c, 0, 80, 33
1, 130949, Note_off_c, 0, 72, 61
1, 130957, Note_on_c, 0, 68, 69
1, 131008, Note_on_c, 0, 63, 67
1, 131022, Note_off_c, 0, 68, 62
1, 131059, Control_c, 0, 64, 116
1, 131074, Control_c, 0, 64, 94
1, 131075, Note_off_c, 0, 63, 62
1, 131076, Note_on_c, 0, 84, 80
1, 131077, Note_on_c, 0, 80, 53
1, 131086, Note_on_c, 0, 56, 76
1, 131089, Control_c, 0, 64, 82
1, 131097, Note_on_c, 0, 79, 59
1, 131104, Control_c, 0, 64, 73
1, 131115, Note_off_c, 0, 56, 66
1, 131116, Note_off_c, 0, 87, 60
1, 131119, Control_c, 0, 64, 68
1, 131133, Control_c, 0, 64, 68
1, 131144, Note_on_c, 0, 58, 33
1, 131148, Control_c, 0, 64, 71
1, 131163, Control_c, 0, 64, 77
1, 131178, Note_off_c, 0, 58, 49
1, 131178, Control_c, 0, 64, 84
1, 131193, Control_c, 0, 64, 91
1, 131193, Note_on_c, 0, 65, 56
1, 131207, Control_c, 0, 64, 95
1, 131222, Control_c, 0, 64, 97
1, 131223, Note_off_c, 0, 80, 60
1, 131227, Note_on_c, 0, 70, 74
1, 131235, Poly_aftertouch_c, 0, 66, 0
1, 131237, Control_c, 0, 64, 100
1, 131240, Note_off_c, 0, 65, 60
1, 131252, Control_c, 0, 64, 104
1, 131264, Note_off_c, 0, 79, 53
1, 131267, Control_c, 0, 64, 105
1, 131281, Control_c, 0, 64, 106
1, 131289, Note_on_c, 0, 74, 77
1, 131290, Note_off_c, 0, 70, 62
1, 131296, Control_c, 0, 64, 107
1, 131326, Control_c, 0, 64, 102
1, 131341, Control_c, 0, 64, 92
1, 131345, Note_off_c, 0, 74, 62
1, 131355, Control_c, 0, 64, 82
1, 131368, Note_on_c, 0, 77, 78
1, 131370, Control_c, 0, 64, 74
1, 131375, Note_on_c, 0, 63, 71
1, 131376, Note_on_c, 0, 68, 66
1, 131385, Control_c, 0, 64, 71
1, 131400, Control_c, 0, 64, 73
1, 131419, Note_off_c, 0, 63, 60
1, 131422, Control_c, 0, 64, 79
1, 131437, Control_c, 0, 64, 88
1, 131441, Note_off_c, 0, 68, 59
1, 131452, Control_c, 0, 64, 98
1, 131456, Note_off_c, 0, 77, 60
1, 131467, Control_c, 0, 64, 108
1, 131467, Control_c, 0, 67, 8
1, 131474, Note_on_c, 0, 72, 62
1, 131482, Control_c, 0, 64, 113
1, 131482, Control_c, 0, 67, 13
1, 131492, Note_off_c, 0, 72, 63
1, 131496, Control_c, 0, 64, 113
1, 131496, Control_c, 0, 67, 20
1, 131511, Control_c, 0, 67, 32
1, 131526, Control_c, 0, 64, 113
1, 131526, Control_c, 0, 67, 43
1, 131531, Note_on_c, 0, 65, 77
1, 131537, Note_on_c, 0, 72, 67
1, 131538, Note_off_c, 0, 84, 54
1, 131541, Control_c, 0, 67, 53
1, 131555, Note_on_c, 0, 70, 67
1, 131556, Control_c, 0, 67, 60
1, 131564, Note_off_c, 0, 72, 66
1, 131570, Control_c, 0, 67, 65
1, 131584, Note_off_c, 0, 65, 62
1, 131586, Control_c, 0, 64, 113
1, 131586, Control_c, 0, 67, 69
1, 131595, Note_off_c, 0, 70, 63
1, 131601, Control_c, 0, 67, 73
1, 131616, Control_c, 0, 67, 78
1, 131631, Control_c, 0, 67, 82
1, 131645, Control_c, 0, 67, 85
1, 131660, Control_c, 0, 67, 87
1, 131675, Control_c, 0, 64, 113
1, 131675, Control_c, 0, 67, 89
1, 131690, Control_c, 0, 67, 91
1, 131694, Poly_aftertouch_c, 0, 74, 127
1, 131705, Control_c, 0, 67, 92
1, 131719, Control_c, 0, 67, 94
1, 131722, Poly_aftertouch_c, 0, 74, 0
1, 131734, Control_c, 0, 67, 96
1, 131749, Control_c, 0, 64, 109
1, 131749, Control_c, 0, 67, 97
1, 131764, Control_c, 0, 64, 102
1, 131764, Control_c, 0, 67, 98
1, 131779, Control_c, 0, 64, 92
1, 131779, Control_c, 0, 67, 99
1, 131781, Note_on_c, 0, 90, 73
1, 131790, Note_on_c, 0, 70, 78
1, 131793, Control_c, 0, 64, 81
1, 131793, Control_c, 0, 67, 100
1, 131807, Note_on_c, 0, 61, 65
1, 131808, Control_c, 0, 64, 68
1, 131808, Control_c, 0, 67, 101
1, 131809, Note_on_c, 0, 66, 64
1, 131823, Control_c, 0, 64, 58
1, 131823, Control_c, 0, 67, 102
1, 131837, Control_c, 0, 64, 46
1, 131837, Control_c, 0, 67, 102
1, 131852, Control_c, 0, 64, 45
1, 131852, Control_c, 0, 67, 103
1, 131867, Control_c, 0, 64, 46
1, 131867, Control_c, 0, 67, 104
1, 131882, Control_c, 0, 64, 54
1, 131882, Control_c, 0, 67, 105
1, 131897, Control_c, 0, 64, 64
1, 131897, Control_c, 0, 67, 106
1, 131912, Control_c, 0, 64, 68
1, 131912, Control_c, 0, 67, 108
1, 131913, Note_off_c, 0, 70, 65
1, 131926, Note_off_c, 0, 66, 62
1, 131926, Control_c, 0, 64, 73
1, 131926, Control_c, 0, 67, 110
1, 131941, Note_off_c, 0, 61, 63
1, 131941, Control_c, 0, 64, 79
1, 131941, Control_c, 0, 67, 111
1, 131956, Control_c, 0, 64, 85
1, 131956, Control_c, 0, 67, 112
1, 131971, Control_c, 0, 64, 89
1, 131971, Control_c, 0, 67, 113
1, 131986, Control_c, 0, 64, 90
1, 132003, Note_on_c, 0, 85, 56
1, 132016, Control_c, 0, 64, 91
1, 132030, Control_c, 0, 64, 92
1, 132045, Control_c, 0, 64, 93
1, 132090, Control_c, 0, 64, 94
1, 132100, Note_off_c, 0, 90, 34
1, 132105, Control_c, 0, 64, 95
1, 132118, Note_on_c, 0, 32, 54
1, 132119, Control_c, 0, 64, 97
1, 132120, Note_on_c, 0, 82, 57
1, 132158, Note_off_c, 0, 85, 31
1, 132159, Note_off_c, 0, 32, 53
1, 132165, Note_on_c, 0, 44, 13
1, 132200, Note_off_c, 0, 82, 55
1, 132213, Note_off_c, 0, 44, 53
1, 132229, Note_on_c, 0, 78, 51
1, 132283, Note_off_c, 0, 78, 48
1, 132310, Note_on_c, 0, 92, 70
1, 132394, Control_c, 0, 64, 96
1, 132400, Note_on_c, 0, 87, 62
1, 132424, Control_c, 0, 64, 96
1, 132439, Control_c, 0, 67, 112
1, 132454, Control_c, 0, 67, 112
1, 132468, Control_c, 0, 67, 111
1, 132483, Control_c, 0, 64, 95
1, 132487, Note_off_c, 0, 92, 36
1, 132498, Note_on_c, 0, 72, 73
1, 132498, Note_off_c, 0, 87, 53
1, 132498, Control_c, 0, 64, 95
1, 132502, Note_on_c, 0, 84, 55
1, 132513, Control_c, 0, 64, 93
1, 132515, Note_on_c, 0, 63, 54
1, 132525, Note_on_c, 0, 68, 48
1, 132528, Control_c, 0, 64, 89
1, 132542, Control_c, 0, 64, 83
1, 132542, Control_c, 0, 67, 111
1, 132557, Control_c, 0, 64, 75
1, 132572, Control_c, 0, 64, 67
1, 132572, Control_c, 0, 67, 110
1, 132587, Control_c, 0, 64, 64
1, 132599, Note_off_c, 0, 84, 60
1, 132602, Control_c, 0, 64, 65
1, 132615, Note_on_c, 0, 80, 55
1, 132616, Control_c, 0, 64, 67
1, 132631, Control_c, 0, 64, 71
1, 132646, Control_c, 0, 64, 76
1, 132660, Control_c, 0, 64, 81
1, 132675, Control_c, 0, 64, 85
1, 132679, Note_off_c, 0, 80, 61
1, 132685, Note_off_c, 0, 68, 58
1, 132690, Control_c, 0, 64, 89
1, 132699, Note_off_c, 0, 63, 58
1, 132705, Control_c, 0, 64, 92
1, 132708, Note_off_c, 0, 72, 60
1, 132711, Note_on_c, 0, 93, 69
1, 132720, Control_c, 0, 64, 96
1, 132734, Control_c, 0, 64, 100
1, 132749, Control_c, 0, 64, 106
1, 132764, Control_c, 0, 64, 110
1, 132779, Control_c, 0, 64, 111
1, 132794, Control_c, 0, 64, 112
1, 132824, Control_c, 0, 67, 111
1, 132826, Note_on_c, 0, 88, 60
1, 132868, Control_c, 0, 64, 111
1, 132877, Note_off_c, 0, 93, 35
1, 132949, Control_c, 0, 64, 110
1, 132964, Control_c, 0, 64, 108
1, 132973, Note_off_c, 0, 88, 51
1, 132975, Note_on_c, 0, 85, 61
1, 132979, Control_c, 0, 64, 106
1, 132981, Note_on_c, 0, 73, 47
1, 132982, Note_on_c, 0, 64, 45
1, 132988, Note_on_c, 0, 69, 45
1, 132994, Control_c, 0, 64, 103
1, 133008, Control_c, 0, 64, 99
1, 133023, Control_c, 0, 64, 96
1, 133038, Control_c, 0, 64, 91
1, 133054, Control_c, 0, 64, 86
1, 133068, Control_c, 0, 64, 81
1, 133083, Control_c, 0, 64, 76
1, 133087, Note_off_c, 0, 85, 61
1, 133098, Control_c, 0, 64, 74
1, 133113, Control_c, 0, 64, 72
1, 133127, Note_on_c, 0, 79, 47
1, 133128, Note_on_c, 0, 81, 44
1, 133128, Control_c, 0, 64, 73
1, 133143, Control_c, 0, 64, 76
1, 133158, Control_c, 0, 64, 81
1, 133172, Control_c, 0, 64, 84
1, 133188, Control_c, 0, 64, 87
1, 133203, Control_c, 0, 64, 90
1, 133214, Note_off_c, 0, 69, 59
1, 133217, Note_off_c, 0, 79, 50
1, 133217, Control_c, 0, 64, 93
1, 133226, Note_off_c, 0, 81, 50
1, 133229, Note_off_c, 0, 64, 37
1, 133232, Control_c, 0, 64, 97
1, 133232, Control_c, 0, 67, 111
1, 133247, Control_c, 0, 64, 100
1, 133257, Note_off_c, 0, 73, 48
1, 133262, Control_c, 0, 64, 102
1, 133262, Control_c, 0, 67, 112
1, 133277, Control_c, 0, 64, 102
1, 133277, Control_c, 0, 67, 112
1, 133292, Control_c, 0, 64, 103
1, 133292, Control_c, 0, 67, 113
1, 133298, Note_on_c, 0, 95, 53
1, 133307, Control_c, 0, 67, 113
1, 133319, Note_on_c, 0, 90, 54
1, 133321, Control_c, 0, 64, 102
1, 133336, Control_c, 0, 67, 114
1, 133351, Control_c, 0, 67, 115
1, 133366, Control_c, 0, 67, 115
1, 133376, Note_off_c, 0, 90, 53
1, 133381, Control_c, 0, 67, 119
1, 133396, Control_c, 0, 67, 122
1, 133405, Note_off_c, 0, 95, 37
1, 133410, Control_c, 0, 67, 124
1, 133425, Control_c, 0, 64, 101
1, 133425, Control_c, 0, 67, 126
1, 133440, Control_c, 0, 64, 100
1, 133440, Control_c, 0, 67, 127
1, 133455, Control_c, 0, 64, 99
1, 133558, Control_c, 0, 64, 99
1, 133602, Control_c, 0, 64, 98
1, 133617, Control_c, 0, 64, 98
1, 133632, Control_c, 0, 64, 97
1, 133647, Control_c, 0, 64, 96
1, 133670, Control_c, 0, 64, 95
1, 133684, Control_c, 0, 64, 95
1, 133699, Control_c, 0, 64, 94
1, 133714, Control_c, 0, 64, 93
1, 133729, Control_c, 0, 64, 93
1, 133744, Control_c, 0, 64, 92
1, 133746, Note_on_c, 0, 83, 36
1, 133747, Note_on_c, 0, 71, 43
1, 133747, Note_on_c, 0, 81, 39
1, 133748, Note_on_c, 0, 66, 41
1, 133758, Control_c, 0, 64, 89
1, 133760, Note_on_c, 0, 75, 41
1, 133773, Control_c, 0, 64, 86
1, 133788, Control_c, 0, 64, 82
1, 133802, Control_c, 0, 64, 77
1, 133816, Control_c, 0, 64, 75
1, 133831, Control_c, 0, 64, 74
1, 133846, Control_c, 0, 64, 75
1, 133861, Control_c, 0, 64, 79
1, 133876, Control_c, 0, 64, 82
1, 133890, Note_off_c, 0, 75, 60
1, 133891, Control_c, 0, 64, 85
1, 133906, Control_c, 0, 64, 88
1, 133914, Note_off_c, 0, 83, 44
1, 133921, Control_c, 0, 64, 90
1, 133929, Note_off_c, 0, 81, 45
1, 133936, Control_c, 0, 64, 92
1, 133937, Note_off_c, 0, 71, 60
1, 133948, Note_off_c, 0, 66, 56
1, 133950, Control_c, 0, 64, 95
1, 133965, Control_c, 0, 64, 98
1, 133980, Control_c, 0, 64, 98
1, 134188, Control_c, 0, 64, 98
1, 134203, Control_c, 0, 64, 97
1, 134262, Control_c, 0, 64, 97
1, 134277, Control_c, 0, 64, 96
1, 134292, Control_c, 0, 64, 96
1, 134336, Control_c, 0, 64, 95
1, 134366, Control_c, 0, 64, 95
1, 134395, Control_c, 0, 64, 94
1, 134418, Control_c, 0, 64, 93
1, 134432, Control_c, 0, 64, 91
1, 134447, Control_c, 0, 64, 90
1, 134462, Control_c, 0, 64, 87
1, 134477, Control_c, 0, 64, 81
1, 134487, Note_on_c, 0, 75, 39
1, 134492, Control_c, 0, 64, 74
1, 134499, Note_on_c, 0, 44, 38
1, 134506, Control_c, 0, 64, 67
1, 134521, Control_c, 0, 64, 64
1, 134536, Control_c, 0, 64, 65
1, 134551, Control_c, 0, 64, 67
1, 134565, Control_c, 0, 64, 71
1, 134580, Control_c, 0, 64, 75
1, 134595, Control_c, 0, 64, 79
1, 134600, Note_off_c, 0, 44, 56
1, 134610, Control_c, 0, 64, 84
1, 134625, Control_c, 0, 64, 89
1, 134639, Control_c, 0, 64, 95
1, 134654, Control_c, 0, 64, 101
1, 134660, Note_off_c, 0, 75, 52
1, 134669, Control_c, 0, 64, 105
1, 134672, Note_on_c, 0, 80, 46
1, 134684, Control_c, 0, 64, 109
1, 134699, Control_c, 0, 64, 112
1, 134714, Control_c, 0, 64, 117
1, 134728, Control_c, 0, 64, 121
1, 134789, Control_c, 0, 64, 122
1, 134804, Control_c, 0, 64, 124
1, 134811, Note_on_c, 0, 87, 59
1, 134813, Note_off_c, 0, 80, 44
1, 134818, Note_on_c, 0, 64, 31
1, 134818, Control_c, 0, 64, 127
1, 134821, Note_on_c, 0, 71, 40
1, 134848, Note_off_c, 0, 71, 62
1, 134851, Note_off_c, 0, 64, 51
1, 134917, Note_off_c, 0, 87, 54
1, 134961, Note_on_c, 0, 90, 60
1, 135112, Note_on_c, 0, 83, 44
1, 135114, Note_off_c, 0, 90, 43
1, 135118, Note_on_c, 0, 87, 53
1, 135134, Note_off_c, 0, 83, 57
1, 135174, Note_off_c, 0, 87, 54
1, 135176, Poly_aftertouch_c, 0, 76, 127
1, 135226, Poly_aftertouch_c, 0, 76, 0
1, 135275, Note_on_c, 0, 80, 47
1, 135364, Note_off_c, 0, 80, 59
1, 135414, Note_on_c, 0, 73, 54
1, 135424, Note_on_c, 0, 69, 35
1, 135426, Note_on_c, 0, 76, 36
1, 135457, Note_off_c, 0, 76, 53
1, 135470, Note_off_c, 0, 73, 57
1, 135472, Note_off_c, 0, 69, 61
1, 135483, Note_on_c, 0, 80, 62
1, 135551, Note_on_c, 0, 85, 59
1, 135552, Note_off_c, 0, 80, 57
1, 135608, Note_on_c, 0, 88, 55
1, 135661, Note_off_c, 0, 85, 57
1, 135671, Control_c, 0, 64, 104
1, 135680, Note_off_c, 0, 88, 58
1, 135685, Control_c, 0, 64, 93
1, 135700, Note_on_c, 0, 75, 54
1, 135700, Control_c, 0, 64, 83
1, 135715, Control_c, 0, 64, 77
1, 135723, Note_on_c, 0, 44, 39
1, 135730, Control_c, 0, 64, 72
1, 135745, Control_c, 0, 64, 70
1, 135760, Control_c, 0, 64, 72
1, 135763, Note_off_c, 0, 44, 59
1, 135775, Control_c, 0, 64, 77
1, 135790, Control_c, 0, 64, 83
1, 135804, Control_c, 0, 64, 90
1, 135819, Control_c, 0, 64, 96
1, 135834, Control_c, 0, 64, 100
1, 135849, Control_c, 0, 64, 104
1, 135864, Control_c, 0, 64, 109
1, 135864, Note_on_c, 0, 80, 63
1, 135878, Control_c, 0, 64, 112
1, 135893, Control_c, 0, 64, 116
1, 135894, Note_off_c, 0, 75, 39
1, 135915, Control_c, 0, 64, 117
1, 135945, Control_c, 0, 64, 117
1, 135974, Control_c, 0, 64, 118
1, 135989, Control_c, 0, 64, 119
1, 136004, Control_c, 0, 64, 127
1, 136019, Note_on_c, 0, 87, 69
1, 136023, Note_on_c, 0, 64, 46
1, 136027, Note_off_c, 0, 80, 56
1, 136030, Note_on_c, 0, 71, 45
1, 136058, Note_off_c, 0, 64, 52
1, 136058, Note_off_c, 0, 71, 64
1, 136165, Note_on_c, 0, 90, 80
1, 136185, Note_off_c, 0, 87, 53
1, 136316, Note_on_c, 0, 87, 63
1, 136321, Note_on_c, 0, 83, 55
1, 136324, Note_off_c, 0, 90, 52
1, 136334, Note_on_c, 0, 76, 52
1, 136353, Note_off_c, 0, 83, 67
1, 136365, Note_off_c, 0, 76, 58
1, 136425, Note_off_c, 0, 87, 53
1, 136475, Note_on_c, 0, 80, 56
1, 136563, Note_off_c, 0, 80, 59
1, 136615, Note_on_c, 0, 76, 44
1, 136615, Note_on_c, 0, 69, 43
1, 136621, Note_on_c, 0, 73, 47
1, 136641, Note_off_c, 0, 76, 56
1, 136663, Note_off_c, 0, 69, 64
1, 136675, Note_off_c, 0, 73, 60
1, 136687, Note_on_c, 0, 80, 65
1, 136755, Note_off_c, 0, 80, 55
1, 136759, Note_on_c, 0, 85, 61
1, 136815, Note_on_c, 0, 88, 58
1, 136857, Control_c, 0, 64, 116
1, 136872, Control_c, 0, 64, 97
1, 136874, Note_off_c, 0, 85, 57
1, 136887, Control_c, 0, 64, 85
1, 136894, Note_off_c, 0, 88, 47
1, 136902, Control_c, 0, 64, 75
1, 136910, Note_on_c, 0, 75, 52
1, 136915, Note_on_c, 0, 44, 35
1, 136916, Control_c, 0, 64, 69
1, 136931, Control_c, 0, 64, 66
1, 136946, Control_c, 0, 64, 67
1, 136961, Control_c, 0, 64, 70
1, 136967, Note_off_c, 0, 44, 61
1, 136976, Control_c, 0, 64, 73
1, 136991, Control_c, 0, 64, 78
1, 137006, Control_c, 0, 64, 85
1, 137021, Control_c, 0, 64, 93
1, 137035, Control_c, 0, 64, 101
1, 137050, Control_c, 0, 64, 105
1, 137063, Note_on_c, 0, 80, 61
1, 137065, Control_c, 0, 64, 110
1, 137080, Control_c, 0, 64, 119
1, 137095, Control_c, 0, 64, 127
1, 137107, Note_off_c, 0, 75, 38
1, 137200, Note_off_c, 0, 80, 58
1, 137208, Note_on_c, 0, 64, 46
1, 137214, Note_on_c, 0, 87, 63
1, 137223, Note_on_c, 0, 71, 42
1, 137246, Note_off_c, 0, 64, 62
1, 137256, Note_off_c, 0, 71, 65
1, 137355, Note_on_c, 0, 90, 67
1, 137390, Note_off_c, 0, 87, 39
1, 137468, Note_off_c, 0, 90, 55
1, 137517, Note_on_c, 0, 80, 52
1, 137520, Note_on_c, 0, 71, 45
1, 137539, Note_on_c, 0, 76, 35
1, 137565, Note_off_c, 0, 71, 61
1, 137586, Note_off_c, 0, 76, 47
1, 137656, Note_off_c, 0, 80, 55
1, 137662, Note_on_c, 0, 87, 64
1, 137814, Note_on_c, 0, 83, 47
1, 137815, Note_on_c, 0, 76, 47
1, 137819, Note_on_c, 0, 92, 57
1, 137824, Note_off_c, 0, 87, 49
1, 137837, Note_off_c, 0, 83, 59
1, 137847, Note_off_c, 0, 76, 57
1, 137959, Note_on_c, 0, 95, 58
1, 137985, Note_off_c, 0, 92, 49
1, 138064, Note_off_c, 0, 95, 28
1, 138081, Control_c, 0, 64, 100
1, 138096, Control_c, 0, 64, 86
1, 138111, Control_c, 0, 64, 73
1, 138122, Note_on_c, 0, 80, 51
1, 138126, Control_c, 0, 64, 64
1, 138134, Note_on_c, 0, 32, 42
1, 138141, Control_c, 0, 64, 63
1, 138162, Control_c, 0, 64, 64
1, 138177, Control_c, 0, 64, 68
1, 138178, Note_off_c, 0, 32, 57
1, 138192, Control_c, 0, 64, 74
1, 138207, Control_c, 0, 64, 82
1, 138213, Poly_aftertouch_c, 0, 44, 0
1, 138222, Control_c, 0, 64, 93
1, 138237, Control_c, 0, 64, 105
1, 138252, Control_c, 0, 64, 126
1, 138267, Control_c, 0, 64, 127
1, 138291, Note_on_c, 0, 85, 61
1, 138302, Note_off_c, 0, 80, 52
1, 138419, Note_on_c, 0, 76, 56
1, 138427, Note_on_c, 0, 69, 41
1, 138428, Note_on_c, 0, 92, 66
1, 138431, Note_off_c, 0, 85, 59
1, 138449, Note_off_c, 0, 76, 64
1, 138455, Note_off_c, 0, 69, 57
1, 138549, Note_off_c, 0, 92, 60
1, 138571, Note_on_c, 0, 97, 85
1, 138694, Note_off_c, 0, 97, 64
1, 138729, Note_on_c, 0, 81, 56
1, 138732, Note_on_c, 0, 92, 63
1, 138740, Note_on_c, 0, 88, 22
1, 138759, Note_off_c, 0, 81, 66
1, 138778, Note_off_c, 0, 88, 46
1, 138829, Note_off_c, 0, 92, 46
1, 138888, Note_on_c, 0, 85, 54
1, 138957, Note_off_c, 0, 85, 48
1, 139030, Note_on_c, 0, 66, 54
1, 139038, Note_on_c, 0, 78, 44
1, 139039, Note_on_c, 0, 62, 45
1, 139062, Note_off_c, 0, 66, 62
1, 139076, Note_off_c, 0, 62, 63
1, 139080, Note_off_c, 0, 78, 57
1, 139097, Note_on_c, 0, 84, 55
1, 139148, Note_off_c, 0, 84, 57
1, 139173, Note_on_c, 0, 88, 57
1, 139220, Note_on_c, 0, 92, 60
1, 139276, Note_off_c, 0, 88, 43
1, 139282, Control_c, 0, 64, 110
1, 139296, Control_c, 0, 64, 92
1, 139311, Control_c, 0, 64, 79
1, 139320, Note_off_c, 0, 92, 60
1, 139326, Note_on_c, 0, 32, 48
1, 139326, Control_c, 0, 64, 71
1, 139327, Note_on_c, 0, 80, 59
1, 139334, Note_on_c, 0, 44, 36
1, 139341, Control_c, 0, 64, 68
1, 139355, Control_c, 0, 64, 67
1, 139365, Note_off_c, 0, 32, 62
1, 139370, Control_c, 0, 64, 68
1, 139372, Note_off_c, 0, 44, 61
1, 139385, Control_c, 0, 64, 70
1, 139400, Control_c, 0, 64, 74
1, 139415, Control_c, 0, 64, 80
1, 139429, Control_c, 0, 64, 86
1, 139444, Control_c, 0, 64, 95
1, 139459, Control_c, 0, 64, 105
1, 139474, Control_c, 0, 64, 118
1, 139489, Control_c, 0, 64, 127
1, 139490, Note_on_c, 0, 85, 71
1, 139506, Note_off_c, 0, 80, 49
1, 139628, Note_on_c, 0, 69, 49
1, 139629, Note_on_c, 0, 76, 45
1, 139632, Note_on_c, 0, 92, 74
1, 139662, Note_off_c, 0, 76, 60
1, 139664, Note_off_c, 0, 85, 58
1, 139667, Note_off_c, 0, 69, 64
1, 139778, Note_on_c, 0, 97, 90
1, 139802, Note_off_c, 0, 92, 63
1, 139912, Note_off_c, 0, 97, 58
1, 139930, Note_on_c, 0, 92, 68
1, 139933, Note_on_c, 0, 81, 58
1, 139962, Note_off_c, 0, 81, 66
1, 140003, Poly_aftertouch_c, 0, 88, 0
1, 140049, Note_off_c, 0, 92, 57
1, 140090, Note_on_c, 0, 85, 60
1, 140160, Note_off_c, 0, 85, 59
1, 140234, Note_on_c, 0, 78, 52
1, 140237, Note_on_c, 0, 62, 47
1, 140245, Note_on_c, 0, 66, 41
1, 140270, Note_off_c, 0, 62, 62
1, 140274, Note_off_c, 0, 66, 54
1, 140289, Note_off_c, 0, 78, 54
1, 140300, Note_on_c, 0, 84, 52
1, 140368, Note_on_c, 0, 88, 57
1, 140371, Note_off_c, 0, 84, 54
1, 140439, Note_on_c, 0, 92, 60
1, 140469, Control_c, 0, 64, 103
1, 140473, Note_off_c, 0, 88, 59
1, 140483, Control_c, 0, 64, 86
1, 140492, Note_off_c, 0, 92, 57
1, 140498, Control_c, 0, 64, 73
1, 140513, Control_c, 0, 64, 65
1, 140518, Note_on_c, 0, 32, 48
1, 140528, Control_c, 0, 64, 62
1, 140532, Note_on_c, 0, 44, 33
1, 140543, Control_c, 0, 64, 65
1, 140550, Note_off_c, 0, 32, 58
1, 140557, Control_c, 0, 64, 71
1, 140565, Note_off_c, 0, 44, 48
1, 140572, Control_c, 0, 64, 80
1, 140587, Control_c, 0, 64, 93
1, 140601, Control_c, 0, 64, 110
1, 140616, Control_c, 0, 64, 127
1, 140631, Note_on_c, 0, 80, 42
1, 140660, Note_off_c, 0, 80, 55
1, 140690, Note_on_c, 0, 85, 61
1, 140738, Note_off_c, 0, 85, 58
1, 140748, Note_on_c, 0, 92, 64
1, 140809, Note_off_c, 0, 92, 65
1, 140830, Note_on_c, 0, 97, 67
1, 140857, Note_on_c, 0, 88, 38
1, 140881, Note_off_c, 0, 97, 62
1, 140884, Note_off_c, 0, 88, 52
1, 140913, Note_on_c, 0, 92, 63
1, 140965, Note_off_c, 0, 92, 59
1, 140977, Note_on_c, 0, 85, 62
1, 141044, Note_off_c, 0, 85, 63
1, 141051, Note_on_c, 0, 80, 51
1, 141070, Note_off_c, 0, 80, 60
1, 141110, Note_on_c, 0, 69, 54
1, 141110, Note_on_c, 0, 76, 53
1, 141132, Note_off_c, 0, 69, 62
1, 141132, Note_off_c, 0, 76, 59
1, 141197, Note_on_c, 0, 73, 64
1, 141227, Note_off_c, 0, 73, 65
1, 141267, Note_on_c, 0, 80, 62
1, 141307, Note_off_c, 0, 80, 52
1, 141323, Note_on_c, 0, 85, 70
1, 141385, Note_off_c, 0, 85, 63
1, 141408, Note_on_c, 0, 92, 69
1, 141418, Note_on_c, 0, 76, 50
1, 141430, Note_on_c, 0, 81, 31
1, 141430, Note_off_c, 0, 92, 64
1, 141441, Note_off_c, 0, 76, 59
1, 141461, Note_off_c, 0, 81, 53
1, 141492, Note_on_c, 0, 85, 56
1, 141526, Note_off_c, 0, 85, 64
1, 141543, Note_on_c, 0, 80, 55
1, 141585, Note_off_c, 0, 80, 61
1, 141602, Note_on_c, 0, 73, 64
1, 141627, Note_off_c, 0, 73, 65
1, 141685, Note_on_c, 0, 64, 37
1, 141686, Note_on_c, 0, 69, 42
1, 141713, Note_off_c, 0, 69, 55
1, 141715, Note_off_c, 0, 64, 53
1, 141752, Note_on_c, 0, 68, 56
1, 141782, Note_off_c, 0, 68, 64
1, 141819, Note_on_c, 0, 73, 57
1, 141854, Note_off_c, 0, 73, 66
1, 141868, Note_on_c, 0, 80, 61
1, 141937, Note_off_c, 0, 80, 61
1, 141956, Note_on_c, 0, 85, 71
1, 141975, Note_on_c, 0, 69, 43
1, 142001, Note_off_c, 0, 69, 58
1, 142002, Note_off_c, 0, 85, 49
1, 142061, Note_on_c, 0, 80, 46
1, 142088, Note_off_c, 0, 80, 55
1, 142104, Note_on_c, 0, 73, 53
1, 142165, Note_off_c, 0, 73, 60
1, 142171, Note_on_c, 0, 68, 47
1, 142193, Note_off_c, 0, 68, 59
1, 142233, Note_on_c, 0, 57, 56
1, 142250, Note_on_c, 0, 64, 35
1, 142264, Note_off_c, 0, 57, 65
1, 142284, Note_off_c, 0, 64, 54
1, 142330, Note_on_c, 0, 61, 48
1, 142357, Note_off_c, 0, 61, 56
1, 142411, Note_on_c, 0, 68, 49
1, 142444, Note_off_c, 0, 68, 63
1, 142452, Note_on_c, 0, 73, 63
1, 142509, Note_off_c, 0, 73, 59
1, 142537, Note_on_c, 0, 64, 44
1, 142547, Note_on_c, 0, 80, 45
1, 142556, Note_on_c, 0, 69, 6
1, 142562, Note_off_c, 0, 64, 60
1, 142571, Note_off_c, 0, 80, 58
1, 142604, Note_off_c, 0, 69, 52
1, 142628, Note_on_c, 0, 73, 34
1, 142663, Note_on_c, 0, 68, 49
1, 142665, Note_off_c, 0, 73, 55
1, 142719, Note_off_c, 0, 68, 56
1, 142734, Note_on_c, 0, 61, 54
1, 142764, Note_off_c, 0, 61, 64
1, 142844, Note_on_c, 0, 52, 44
1, 142854, Note_on_c, 0, 57, 26
1, 142877, Note_off_c, 0, 52, 57
1, 142890, Note_off_c, 0, 57, 48
1, 142907, Note_on_c, 0, 56, 38
1, 142940, Note_off_c, 0, 56, 53
1, 142976, Note_on_c, 0, 61, 45
1, 143012, Note_off_c, 0, 61, 60
1, 143018, Note_on_c, 0, 68, 59
1, 143087, Note_off_c, 0, 68, 60
1, 143113, Note_on_c, 0, 73, 61
1, 143129, Note_on_c, 0, 52, 42
1, 143134, Note_on_c, 0, 57, 43
1, 143154, Note_off_c, 0, 73, 47
1, 143178, Note_off_c, 0, 57, 58
1, 143182, Note_off_c, 0, 52, 57
1, 143220, Note_on_c, 0, 68, 40
1, 143253, Note_off_c, 0, 68, 55
1, 143284, Note_on_c, 0, 61, 46
1, 143336, Note_on_c, 0, 56, 54
1, 143337, Note_off_c, 0, 61, 54
1, 143367, Note_off_c, 0, 56, 65
1, 143438, Note_on_c, 0, 57, 32
1, 143445, Note_on_c, 0, 52, 29
1, 143476, Note_off_c, 0, 57, 49
1, 143489, Note_on_c, 0, 56, 38
1, 143498, Note_off_c, 0, 52, 43
1, 143532, Note_off_c, 0, 56, 59
1, 143570, Note_on_c, 0, 61, 47
1, 143608, Note_off_c, 0, 61, 61
1, 143640, Note_on_c, 0, 68, 49
1, 143680, Note_off_c, 0, 68, 61
1, 143728, Note_on_c, 0, 73, 42
1, 143737, Note_on_c, 0, 52, 32
1, 143753, Note_off_c, 0, 73, 58
1, 143776, Poly_aftertouch_c, 0, 57, 127
1, 143787, Note_on_c, 0, 68, 46
1, 143808, Note_off_c, 0, 52, 42
1, 143828, Poly_aftertouch_c, 0, 57, 0
1, 143844, Note_off_c, 0, 68, 51
1, 143883, Note_on_c, 0, 61, 35
1, 143928, Note_on_c, 0, 56, 51
1, 143942, Note_off_c, 0, 61, 42
1, 143964, Note_off_c, 0, 56, 61
1, 144014, Note_on_c, 0, 44, 64
1, 144079, Poly_aftertouch_c, 0, 57, 127
1, 144121, Note_on_c, 0, 56, 40
1, 144181, Poly_aftertouch_c, 0, 57, 0
1, 144184, Note_off_c, 0, 56, 58
1, 144217, Note_on_c, 0, 61, 39
1, 144252, Note_off_c, 0, 61, 58
1, 144275, Note_on_c, 0, 68, 44
1, 144315, Note_off_c, 0, 68, 62
1, 144342, Note_on_c, 0, 52, 43
1, 144362, Note_on_c, 0, 73, 42
1, 144372, Note_on_c, 0, 57, 18
1, 144400, Note_off_c, 0, 73, 49
1, 144424, Note_off_c, 0, 52, 45
1, 144424, Note_off_c, 0, 57, 46
1, 144437, Note_on_c, 0, 68, 45
1, 144506, Note_off_c, 0, 68, 53
1, 144548, Note_on_c, 0, 61, 33
1, 144594, Note_on_c, 0, 56, 45
1, 144616, Note_off_c, 0, 61, 42
1, 144623, Note_off_c, 0, 56, 61
1, 144667, Note_on_c, 0, 52, 42
1, 144712, Poly_aftertouch_c, 0, 57, 127
1, 144712, Note_on_c, 0, 57, 3
1, 144751, Note_on_c, 0, 56, 31
1, 144761, Note_off_c, 0, 57, 45
1, 144792, Note_off_c, 0, 52, 36
1, 144794, Note_off_c, 0, 56, 50
1, 144852, Note_on_c, 0, 61, 28
1, 144902, Note_off_c, 0, 61, 50
1, 144914, Note_on_c, 0, 68, 48
1, 144989, Note_off_c, 0, 68, 42
1, 145025, Note_on_c, 0, 52, 38
1, 145060, Poly_aftertouch_c, 0, 57, 127
1, 145076, Poly_aftertouch_c, 0, 73, 127
1, 145101, Poly_aftertouch_c, 0, 57, 0
1, 145113, Poly_aftertouch_c, 0, 73, 0
1, 145117, Note_off_c, 0, 52, 52
1, 145118, Note_on_c, 0, 68, 46
1, 145134, Note_off_c, 0, 44, 61
1, 145168, Note_off_c, 0, 68, 55
1, 145254, Note_on_c, 0, 61, 9
1, 145332, Note_on_c, 0, 56, 28
1, 145357, Note_off_c, 0, 61, 37
1, 145373, Note_off_c, 0, 56, 50
1, 145612, Control_c, 0, 64, 123
1, 145615, Note_on_c, 0, 42, 35
1, 145621, Note_on_c, 0, 51, 40
1, 145622, Note_on_c, 0, 56, 33
1, 145627, Control_c, 0, 64, 113
1, 145649, Control_c, 0, 64, 107
1, 145663, Control_c, 0, 64, 102
1, 145678, Control_c, 0, 64, 98
1, 145693, Control_c, 0, 64, 94
1, 145708, Control_c, 0, 64, 89
1, 145722, Control_c, 0, 64, 84
1, 145737, Control_c, 0, 64, 78
1, 145752, Control_c, 0, 64, 72
1, 145767, Control_c, 0, 64, 68
1, 145783, Control_c, 0, 64, 66
1, 145797, Control_c, 0, 64, 64
1, 145812, Control_c, 0, 64, 61
1, 145827, Control_c, 0, 64, 50
1, 145842, Control_c, 0, 64, 38
1, 145857, Control_c, 0, 64, 31
1, 145871, Control_c, 0, 64, 19
1, 145886, Control_c, 0, 64, 11
1, 145901, Control_c, 0, 64, 19
1, 145916, Control_c, 0, 64, 46
1, 145925, Note_on_c, 0, 52, 34
1, 145931, Control_c, 0, 64, 59
1, 145946, Control_c, 0, 64, 64
1, 145961, Control_c, 0, 64, 67
1, 145976, Control_c, 0, 64, 71
1, 145991, Control_c, 0, 64, 76
1, 146006, Control_c, 0, 64, 81
1, 146020, Control_c, 0, 64, 88
1, 146030, Note_off_c, 0, 42, 51
1, 146035, Control_c, 0, 64, 95
1, 146050, Control_c, 0, 64, 101
1, 146065, Control_c, 0, 64, 110
1, 146071, Note_off_c, 0, 51, 49
1, 146076, Note_off_c, 0, 56, 51
1, 146080, Control_c, 0, 64, 126
1, 146092, Note_on_c, 0, 57, 45
1, 146095, Control_c, 0, 64, 127
1, 146111, Note_off_c, 0, 52, 40
1, 146229, Note_off_c, 0, 57, 50
1, 146255, Note_on_c, 0, 60, 29
1, 146328, Note_off_c, 0, 60, 55
1, 146332, Note_on_c, 0, 64, 28
1, 146390, Note_off_c, 0, 64, 47
1, 146448, Note_on_c, 0, 54, 41
1, 146450, Note_on_c, 0, 63, 44
1, 146465, Note_on_c, 0, 68, 31
1, 146524, Note_off_c, 0, 54, 60
1, 146527, Note_off_c, 0, 68, 54
1, 146545, Note_off_c, 0, 63, 58
1, 146663, Note_on_c, 0, 69, 50
1, 146664, Poly_aftertouch_c, 0, 64, 127
1, 146696, Poly_aftertouch_c, 0, 64, 0
1, 146749, Note_off_c, 0, 69, 52
1, 146768, Note_on_c, 0, 72, 44
1, 146820, Note_off_c, 0, 72, 58
1, 146830, Note_on_c, 0, 76, 36
1, 146861, Note_off_c, 0, 76, 57
1, 146899, Note_on_c, 0, 66, 42
1, 146914, Note_on_c, 0, 75, 42
1, 146915, Note_on_c, 0, 80, 42
1, 146947, Note_off_c, 0, 66, 50
1, 146947, Control_c, 0, 67, 127
1, 146956, Note_off_c, 0, 75, 47
1, 146962, Note_off_c, 0, 80, 47
1, 146962, Control_c, 0, 67, 125
1, 146977, Control_c, 0, 67, 123
1, 146992, Control_c, 0, 67, 121
1, 146995, Note_on_c, 0, 76, 44
1, 147007, Control_c, 0, 67, 119
1, 147022, Control_c, 0, 67, 117
1, 147036, Control_c, 0, 67, 113
1, 147051, Control_c, 0, 67, 111
1, 147055, Note_off_c, 0, 76, 49
1, 147066, Control_c, 0, 67, 110
1, 147081, Control_c, 0, 67, 109
1, 147096, Control_c, 0, 67, 106
1, 147099, Note_on_c, 0, 81, 45
1, 147110, Control_c, 0, 67, 104
1, 147125, Control_c, 0, 67, 101
1, 147147, Control_c, 0, 67, 99
1, 147156, Note_off_c, 0, 81, 47
1, 147162, Control_c, 0, 67, 98
1, 147177, Control_c, 0, 67, 96
1, 147189, Note_on_c, 0, 84, 39
1, 147192, Control_c, 0, 67, 92
1, 147207, Control_c, 0, 67, 88
1, 147221, Control_c, 0, 67, 84
1, 147236, Control_c, 0, 67, 80
1, 147247, Note_off_c, 0, 84, 60
1, 147251, Control_c, 0, 67, 76
1, 147266, Control_c, 0, 67, 72
1, 147272, Note_on_c, 0, 88, 35
1, 147281, Control_c, 0, 67, 66
1, 147295, Control_c, 0, 67, 61
1, 147309, Note_off_c, 0, 88, 53
1, 147310, Control_c, 0, 67, 57
1, 147325, Control_c, 0, 67, 54
1, 147340, Control_c, 0, 67, 49
1, 147349, Note_on_c, 0, 78, 54
1, 147355, Control_c, 0, 67, 44
1, 147365, Note_on_c, 0, 92, 48
1, 147369, Control_c, 0, 67, 40
1, 147370, Note_on_c, 0, 87, 42
1, 147384, Control_c, 0, 67, 36
1, 147399, Control_c, 0, 67, 32
1, 147414, Control_c, 0, 67, 28
1, 147429, Control_c, 0, 67, 23
1, 147435, Note_off_c, 0, 87, 61
1, 147443, Control_c, 0, 67, 16
1, 147449, Note_off_c, 0, 92, 40
1, 147458, Control_c, 0, 67, 9
1, 147462, Note_off_c, 0, 78, 38
1, 147463, Note_on_c, 0, 88, 45
1, 147473, Control_c, 0, 67, 0
1, 147522, Note_off_c, 0, 88, 38
1, 147582, Note_on_c, 0, 93, 46
1, 147678, Note_on_c, 0, 96, 55
1, 147700, Note_off_c, 0, 93, 37
1, 147809, Note_on_c, 0, 100, 48
1, 147828, Note_off_c, 0, 96, 47
1, 147944, Note_off_c, 0, 100, 30
1, 147961, Note_on_c, 0, 90, 43
1, 148122, Note_off_c, 0, 90, 44
1, 148126, Note_on_c, 0, 92, 46
1, 148270, Note_on_c, 0, 99, 44
1, 148302, Note_off_c, 0, 92, 57
1, 148306, Note_off_c, 0, 99, 54
1, 148382, Note_on_c, 0, 93, 44
1, 148456, Note_off_c, 0, 93, 41
1, 148482, Note_on_c, 0, 96, 36
1, 148525, Note_off_c, 0, 96, 47
1, 148542, Note_on_c, 0, 100, 57
1, 148641, Note_off_c, 0, 100, 51
1, 148649, Note_on_c, 0, 105, 57
1, 148695, Note_off_c, 0, 105, 59
1, 148714, Note_on_c, 0, 90, 49
1, 148787, Note_off_c, 0, 90, 59
1, 148801, Note_on_c, 0, 94, 57
1, 148891, Note_off_c, 0, 94, 60
1, 148901, Note_on_c, 0, 98, 45
1, 148932, Note_off_c, 0, 98, 52
1, 148971, Note_on_c, 0, 95, 52
1, 149011, Note_off_c, 0, 95, 53
1, 149043, Note_on_c, 0, 99, 60
1, 149092, Note_off_c, 0, 99, 51
1, 149114, Note_on_c, 0, 102, 57
1, 149174, Note_on_c, 0, 107, 48
1, 149175, Note_off_c, 0, 102, 60
1, 149202, Note_off_c, 0, 107, 58
1, 149233, Note_on_c, 0, 88, 41
1, 149264, Note_off_c, 0, 88, 55
1, 149291, Note_on_c, 0, 90, 55
1, 149364, Note_off_c, 0, 90, 55
1, 149368, Note_on_c, 0, 97, 49
1, 149405, Note_off_c, 0, 97, 58
1, 149453, Note_on_c, 0, 91, 40
1, 149484, Note_off_c, 0, 91, 53
1, 149511, Note_on_c, 0, 94, 57
1, 149567, Note_on_c, 0, 98, 61
1, 149610, Note_off_c, 0, 94, 37
1, 149627, Note_on_c, 0, 103, 59
1, 149636, Note_off_c, 0, 98, 65
1, 149663, Note_on_c, 0, 88, 54
1, 149666, Note_off_c, 0, 103, 63
1, 149738, Note_off_c, 0, 88, 57
1, 149739, Note_on_c, 0, 92, 60
1, 149803, Note_on_c, 0, 96, 54
1, 149806, Note_off_c, 0, 92, 61
1, 149840, Note_off_c, 0, 96, 57
1, 149874, Note_on_c, 0, 93, 45
1, 149926, Note_on_c, 0, 97, 60
1, 149940, Note_off_c, 0, 93, 42
1, 149995, Note_off_c, 0, 97, 59
1, 149997, Note_on_c, 0, 100, 49
1, 150048, Note_on_c, 0, 105, 55
1, 150053, Note_off_c, 0, 100, 62
1, 150079, Note_off_c, 0, 105, 53
1, 150106, Note_on_c, 0, 86, 51
1, 150148, Note_off_c, 0, 86, 63
1, 150175, Note_on_c, 0, 88, 57
1, 150242, Note_on_c, 0, 95, 54
1, 150257, Note_off_c, 0, 88, 55
1, 150280, Note_off_c, 0, 95, 54
1, 150330, Note_on_c, 0, 89, 33
1, 150369, Note_on_c, 0, 92, 59
1, 150372, Note_off_c, 0, 89, 47
1, 150424, Note_on_c, 0, 96, 60
1, 150453, Note_off_c, 0, 92, 53
1, 150483, Note_on_c, 0, 101, 59
1, 150491, Note_off_c, 0, 96, 64
1, 150525, Note_off_c, 0, 101, 61
1, 150527, Note_on_c, 0, 86, 48
1, 150569, Note_off_c, 0, 86, 62
1, 150600, Note_on_c, 0, 90, 60
1, 150646, Note_off_c, 0, 90, 55
1, 150665, Note_on_c, 0, 94, 48
1, 150693, Note_off_c, 0, 94, 56
1, 150694, Note_on_c, 0, 91, 60
1, 150755, Note_off_c, 0, 91, 60
1, 150760, Note_on_c, 0, 95, 61
1, 150816, Note_off_c, 0, 95, 61
1, 150822, Note_on_c, 0, 98, 63
1, 150866, Note_on_c, 0, 103, 56
1, 150879, Note_off_c, 0, 98, 59
1, 150896, Note_off_c, 0, 103, 62
1, 150943, Note_on_c, 0, 84, 42
1, 150984, Note_off_c, 0, 84, 60
1, 150992, Note_on_c, 0, 86, 63
1, 151052, Note_off_c, 0, 86, 63
1, 151067, Note_on_c, 0, 93, 46
1, 151094, Note_off_c, 0, 93, 57
1, 151110, Note_on_c, 0, 87, 50
1, 151143, Note_off_c, 0, 87, 56
1, 151147, Note_on_c, 0, 90, 62
1, 151207, Note_on_c, 0, 94, 62
1, 151234, Note_off_c, 0, 90, 61
1, 151252, Note_on_c, 0, 99, 68
1, 151282, Note_off_c, 0, 94, 60
1, 151314, Note_off_c, 0, 99, 63
1, 151326, Note_on_c, 0, 84, 31
1, 151376, Note_on_c, 0, 88, 56
1, 151376, Note_off_c, 0, 84, 43
1, 151416, Note_off_c, 0, 88, 57
1, 151448, Note_on_c, 0, 92, 57
1, 151469, Note_on_c, 0, 89, 54
1, 151475, Note_off_c, 0, 92, 60
1, 151525, Note_off_c, 0, 89, 56
1, 151529, Note_on_c, 0, 93, 64
1, 151593, Note_on_c, 0, 96, 68
1, 151600, Note_off_c, 0, 93, 61
1, 151642, Note_on_c, 0, 101, 69
1, 151657, Note_off_c, 0, 96, 65
1, 151680, Note_off_c, 0, 101, 61
1, 151714, Note_on_c, 0, 81, 48
1, 151737, Note_off_c, 0, 81, 60
1, 151756, Note_on_c, 0, 83, 58
1, 151800, Note_off_c, 0, 83, 61
1, 151815, Note_on_c, 0, 90, 56
1, 151838, Note_off_c, 0, 90, 66
1, 151892, Note_on_c, 0, 84, 49
1, 151932, Note_off_c, 0, 84, 62
1, 151945, Note_on_c, 0, 87, 66
1, 152004, Note_on_c, 0, 91, 69
1, 152012, Note_off_c, 0, 87, 64
1, 152030, Note_on_c, 0, 96, 67
1, 152057, Note_off_c, 0, 96, 64
1, 152059, Note_off_c, 0, 91, 64
1, 152111, Note_on_c, 0, 78, 46
1, 152138, Note_off_c, 0, 78, 59
1, 152154, Note_on_c, 0, 80, 59
1, 152195, Note_off_c, 0, 80, 61
1, 152224, Note_on_c, 0, 87, 47
1, 152249, Note_off_c, 0, 87, 57
1, 152265, Note_on_c, 0, 81, 46
1, 152286, Note_off_c, 0, 81, 60
1, 152312, Note_on_c, 0, 84, 55
1, 152365, Note_off_c, 0, 84, 62
1, 152372, Note_on_c, 0, 88, 64
1, 152419, Note_on_c, 0, 93, 60
1, 152429, Note_off_c, 0, 88, 64
1, 152445, Note_off_c, 0, 93, 54
1, 152467, Note_on_c, 0, 75, 57
1, 152537, Note_off_c, 0, 75, 55
1, 152539, Note_on_c, 0, 77, 55
1, 152578, Note_off_c, 0, 77, 63
1, 152599, Note_on_c, 0, 84, 57
1, 152625, Note_off_c, 0, 84, 66
1, 152628, Note_on_c, 0, 78, 61
1, 152688, Note_on_c, 0, 81, 55
1, 152701, Note_off_c, 0, 78, 40
1, 152736, Note_on_c, 0, 85, 65
1, 152761, Note_off_c, 0, 81, 56
1, 152767, Note_on_c, 0, 90, 64
1, 152802, Note_off_c, 0, 85, 61
1, 152805, Note_off_c, 0, 90, 55
1, 152837, Note_on_c, 0, 72, 48
1, 152873, Note_off_c, 0, 72, 65
1, 152896, Note_on_c, 0, 74, 62
1, 152933, Note_off_c, 0, 74, 65
1, 152969, Note_on_c, 0, 81, 55
1, 152990, Note_on_c, 0, 75, 52
1, 152998, Note_off_c, 0, 81, 67
1, 153045, Note_off_c, 0, 75, 51
1, 153048, Note_on_c, 0, 78, 60
1, 153107, Note_on_c, 0, 82, 63
1, 153135, Note_off_c, 0, 78, 59
1, 153140, Note_on_c, 0, 87, 64
1, 153168, Note_off_c, 0, 82, 57
1, 153171, Note_off_c, 0, 87, 66
1, 153207, Note_on_c, 0, 69, 50
1, 153235, Note_off_c, 0, 69, 63
1, 153253, Note_on_c, 0, 71, 57
1, 153287, Note_off_c, 0, 71, 63
1, 153323, Note_on_c, 0, 78, 55
1, 153343, Note_off_c, 0, 78, 63
1, 153380, Note_on_c, 0, 72, 60
1, 153437, Note_off_c, 0, 72, 58
1, 153440, Note_on_c, 0, 75, 67
1, 153509, Note_off_c, 0, 75, 62
1, 153511, Note_on_c, 0, 79, 58
1, 153519, Note_on_c, 0, 84, 61
1, 153546, Note_off_c, 0, 84, 65
1, 153552, Note_off_c, 0, 79, 58
1, 153598, Note_on_c, 0, 66, 55
1, 153636, Note_off_c, 0, 66, 62
1, 153651, Note_on_c, 0, 68, 58
1, 153684, Note_off_c, 0, 68, 65
1, 153719, Note_on_c, 0, 69, 58
1, 153753, Poly_aftertouch_c, 0, 75, 127
1, 153773, Note_off_c, 0, 69, 60
1, 153775, Note_on_c, 0, 72, 61
1, 153800, Poly_aftertouch_c, 0, 75, 0
1, 153835, Note_off_c, 0, 72, 59
1, 153836, Note_on_c, 0, 76, 59
1, 153863, Note_on_c, 0, 81, 55
1, 153878, Note_off_c, 0, 76, 62
1, 153891, Note_off_c, 0, 81, 61
1, 153930, Note_on_c, 0, 63, 55
1, 153961, Control_c, 0, 67, 8
1, 153976, Control_c, 0, 67, 10
1, 153991, Control_c, 0, 67, 12
1, 154006, Control_c, 0, 67, 15
1, 154018, Note_on_c, 0, 65, 49
1, 154021, Control_c, 0, 67, 17
1, 154031, Note_off_c, 0, 63, 58
1, 154035, Control_c, 0, 67, 19
1, 154050, Control_c, 0, 67, 21
1, 154054, Note_off_c, 0, 65, 64
1, 154063, Note_on_c, 0, 72, 56
1, 154065, Control_c, 0, 67, 24
1, 154079, Control_c, 0, 67, 28
1, 154089, Note_on_c, 0, 66, 44
1, 154094, Note_off_c, 0, 72, 67
1, 154094, Control_c, 0, 67, 32
1, 154109, Control_c, 0, 67, 36
1, 154124, Control_c, 0, 67, 40
1, 154131, Note_off_c, 0, 66, 58
1, 154139, Control_c, 0, 67, 41
1, 154145, Note_on_c, 0, 69, 53
1, 154153, Control_c, 0, 67, 43
1, 154168, Control_c, 0, 67, 44
1, 154182, Note_on_c, 0, 73, 61
1, 154183, Control_c, 0, 67, 46
1, 154198, Control_c, 0, 67, 48
1, 154207, Note_on_c, 0, 78, 54
1, 154213, Note_off_c, 0, 69, 40
1, 154213, Control_c, 0, 67, 50
1, 154227, Control_c, 0, 67, 52
1, 154241, Note_off_c, 0, 78, 64
1, 154242, Control_c, 0, 67, 54
1, 154249, Note_off_c, 0, 73, 56
1, 154257, Control_c, 0, 67, 57
1, 154271, Control_c, 0, 67, 60
1, 154286, Control_c, 0, 67, 63
1, 154292, Note_on_c, 0, 60, 47
1, 154301, Control_c, 0, 67, 65
1, 154316, Control_c, 0, 67, 67
1, 154326, Note_off_c, 0, 60, 65
1, 154331, Control_c, 0, 67, 70
1, 154342, Note_on_c, 0, 62, 53
1, 154346, Control_c, 0, 67, 73
1, 154361, Control_c, 0, 67, 76
1, 154376, Control_c, 0, 67, 78
1, 154391, Control_c, 0, 67, 80
1, 154399, Note_off_c, 0, 62, 56
1, 154405, Control_c, 0, 67, 82
1, 154419, Note_on_c, 0, 63, 49
1, 154420, Control_c, 0, 67, 84
1, 154426, Note_on_c, 0, 69, 54
1, 154435, Control_c, 0, 67, 85
1, 154450, Control_c, 0, 67, 86
1, 154454, Note_off_c, 0, 69, 66
1, 154465, Control_c, 0, 67, 87
1, 154476, Note_on_c, 0, 66, 56
1, 154479, Control_c, 0, 67, 89
1, 154494, Control_c, 0, 67, 90
1, 154509, Control_c, 0, 67, 91
1, 154524, Note_off_c, 0, 63, 37
1, 154524, Control_c, 0, 67, 92
1, 154539, Control_c, 0, 67, 93
1, 154553, Note_on_c, 0, 70, 55
1, 154553, Control_c, 0, 67, 93
1, 154583, Control_c, 0, 67, 94
1, 154589, Note_on_c, 0, 75, 56
1, 154635, Control_c, 0, 67, 94
1, 154648, Note_off_c, 0, 66, 38
1, 154674, Note_off_c, 0, 75, 55
1, 154708, Note_off_c, 0, 70, 38
1, 154736, Note_on_c, 0, 54, 56
1, 154813, Control_c, 0, 64, 113
1, 154828, Control_c, 0, 64, 106
1, 154843, Control_c, 0, 64, 99
1, 154857, Control_c, 0, 64, 90
1, 154872, Control_c, 0, 64, 81
1, 154887, Control_c, 0, 64, 71
1, 154895, Note_on_c, 0, 72, 50
1, 154896, Note_on_c, 0, 67, 46
1, 154901, Control_c, 0, 64, 65
1, 154904, Note_on_c, 0, 64, 39
1, 154916, Control_c, 0, 64, 61
1, 154931, Control_c, 0, 64, 61
1, 154961, Control_c, 0, 64, 63
1, 154975, Control_c, 0, 64, 66
1, 154990, Control_c, 0, 64, 71
1, 155005, Control_c, 0, 64, 77
1, 155020, Control_c, 0, 64, 83
1, 155020, Control_c, 0, 67, 94
1, 155035, Control_c, 0, 64, 90
1, 155037, Note_on_c, 0, 70, 57
1, 155049, Control_c, 0, 64, 99
1, 155064, Control_c, 0, 64, 111
1, 155064, Control_c, 0, 67, 93
1, 155070, Note_off_c, 0, 72, 38
1, 155079, Control_c, 0, 64, 127
1, 155080, Note_off_c, 0, 67, 59
1, 155094, Control_c, 0, 67, 93
1, 155105, Note_off_c, 0, 70, 59
1, 155124, Control_c, 0, 67, 92
1, 155127, Note_off_c, 0, 64, 41
1, 155131, Note_off_c, 0, 54, 63
1, 155139, Control_c, 0, 67, 92
1, 155151, Note_on_c, 0, 66, 56
1, 155183, Control_c, 0, 67, 91
1, 155186, Note_off_c, 0, 66, 62
1, 155242, Control_c, 0, 67, 91
1, 155316, Control_c, 0, 67, 90
1, 155331, Poly_aftertouch_c, 0, 69, 127
1, 155331, Control_c, 0, 67, 90
1, 155356, Note_on_c, 0, 64, 27
1, 155376, Poly_aftertouch_c, 0, 69, 0
1, 155400, Note_off_c, 0, 64, 53
1, 155423, Note_on_c, 0, 54, 58
1, 155577, Control_c, 0, 67, 89
1, 155589, Note_on_c, 0, 58, 58
1, 155612, Note_on_c, 0, 62, 23
1, 155621, Control_c, 0, 67, 89
1, 155657, Note_off_c, 0, 62, 48
1, 155660, Note_on_c, 0, 55, 27
1, 155699, Note_off_c, 0, 55, 47
1, 155701, Note_off_c, 0, 58, 36
1, 155720, Note_on_c, 0, 66, 60
1, 155749, Note_off_c, 0, 66, 64
1, 155809, Note_off_c, 0, 54, 44
1, 155840, Note_on_c, 0, 60, 57
1, 155844, Note_on_c, 0, 55, 55
1, 155878, Note_on_c, 0, 52, 51
1, 155943, Note_off_c, 0, 60, 56
1, 155951, Note_off_c, 0, 52, 50
1, 155952, Note_off_c, 0, 55, 55
1, 155976, Control_c, 0, 67, 88
1, 155979, Note_on_c, 0, 42, 59
1, 155991, Note_on_c, 0, 58, 4
1, 156052, Note_off_c, 0, 58, 51
1, 156107, Note_on_c, 0, 55, 37
1, 156129, Note_on_c, 0, 60, 17
1, 156140, Note_on_c, 0, 52, 36
1, 156148, Note_on_c, 0, 58, 56
1, 156157, Note_off_c, 0, 55, 49
1, 156161, Control_c, 0, 67, 88
1, 156173, Note_off_c, 0, 58, 65
1, 156173, Note_off_c, 0, 60, 55
1, 156185, Note_off_c, 0, 52, 60
1, 156242, Note_off_c, 0, 42, 57
1, 156251, Note_on_c, 0, 54, 50
1, 156282, Note_off_c, 0, 54, 64
1, 156323, Note_on_c, 0, 55, 40
1, 156346, Note_on_c, 0, 48, 9
1, 156366, Note_on_c, 0, 52, 20
1, 156398, Note_off_c, 0, 55, 60
1, 156441, Note_off_c, 0, 48, 40
1, 156441, Note_off_c, 0, 52, 53
1, 156475, Note_on_c, 0, 42, 52
1, 156574, Note_on_c, 0, 48, 46
1, 156607, Control_c, 0, 67, 88
1, 156615, Note_on_c, 0, 52, 35
1, 156627, Note_off_c, 0, 42, 40
1, 156642, Note_on_c, 0, 43, 37
1, 156647, Note_on_c, 0, 46, 45
1, 156648, Note_off_c, 0, 48, 55
1, 156651, Note_off_c, 0, 52, 52
1, 156682, Note_off_c, 0, 43, 55
1, 156684, Note_off_c, 0, 46, 61
1, 156725, Note_on_c, 0, 54, 43
1, 156763, Note_off_c, 0, 54, 59
1, 156814, Control_c, 0, 67, 89
1, 156823, Note_on_c, 0, 43, 28
1, 156862, Note_on_c, 0, 46, 48
1, 156893, Note_on_c, 0, 40, 24
1, 156902, Poly_aftertouch_c, 0, 48, 127
1, 156905, Note_off_c, 0, 43, 49
1, 156919, Note_off_c, 0, 46, 56
1, 156936, Poly_aftertouch_c, 0, 48, 0
1, 156937, Note_off_c, 0, 40, 50
1, 156991, Note_on_c, 0, 30, 44
1, 156999, Control_c, 0, 67, 89
1, 157078, Note_on_c, 0, 48, 21
1, 157085, Note_on_c, 0, 40, 16
1, 157088, Control_c, 0, 67, 90
1, 157089, Note_on_c, 0, 43, 21
1, 157094, Note_on_c, 0, 46, 46
1, 157103, Control_c, 0, 67, 90
1, 157126, Note_off_c, 0, 48, 44
1, 157133, Control_c, 0, 67, 92
1, 157136, Note_off_c, 0, 43, 51
1, 157140, Note_off_c, 0, 46, 57
1, 157148, Control_c, 0, 67, 92
1, 157163, Control_c, 0, 67, 93
1, 157167, Note_off_c, 0, 40, 41
1, 157178, Control_c, 0, 67, 94
1, 157193, Control_c, 0, 67, 94
1, 157207, Control_c, 0, 67, 95
1, 157222, Control_c, 0, 67, 95
1, 157237, Control_c, 0, 67, 96
1, 157246, Note_on_c, 0, 42, 40
1, 157267, Control_c, 0, 67, 96
1, 157282, Control_c, 0, 67, 99
1, 157282, Note_off_c, 0, 30, 38
1, 157283, Note_off_c, 0, 42, 53
1, 157296, Control_c, 0, 67, 102
1, 157310, Note_on_c, 0, 40, 26
1, 157311, Control_c, 0, 67, 105
1, 157326, Control_c, 0, 67, 108
1, 157337, Note_on_c, 0, 36, 29
1, 157341, Control_c, 0, 67, 110
1, 157356, Control_c, 0, 67, 111
1, 157370, Control_c, 0, 67, 113
1, 157374, Poly_aftertouch_c, 0, 43, 127
1, 157385, Control_c, 0, 67, 114
1, 157400, Control_c, 0, 67, 116
1, 157415, Control_c, 0, 67, 119
1, 157429, Note_on_c, 0, 34, 50
1, 157430, Control_c, 0, 67, 121
1, 157444, Control_c, 0, 67, 123
1, 157446, Poly_aftertouch_c, 0, 43, 0
1, 157459, Control_c, 0, 67, 124
1, 157464, Note_off_c, 0, 34, 52
1, 157474, Control_c, 0, 67, 126
1, 157479, Note_off_c, 0, 40, 22
1, 157488, Control_c, 0, 67, 126
1, 157503, Control_c, 0, 67, 127
1, 157504, Note_off_c, 0, 36, 39
1, 157510, Note_on_c, 0, 30, 24
1, 157518, Control_c, 0, 67, 127
1, 157567, Note_off_c, 0, 30, 44
1, 157625, Note_on_c, 0, 40, 24
1, 157642, Note_on_c, 0, 36, 20
1, 157675, Note_on_c, 0, 34, 40
1, 157680, Note_off_c, 0, 40, 45
1, 157705, Note_off_c, 0, 34, 58
1, 157728, Note_off_c, 0, 36, 36
1, 157786, Note_on_c, 0, 42, 12
1, 157833, Note_off_c, 0, 42, 51
1, 157860, Note_on_c, 0, 40, 23
1, 157866, Note_on_c, 0, 36, 22
1, 157924, Note_on_c, 0, 34, 42
1, 157929, Poly_aftertouch_c, 0, 43, 127
1, 157935, Note_off_c, 0, 40, 38
1, 157963, Note_off_c, 0, 34, 52
1, 157993, Poly_aftertouch_c, 0, 43, 0
1, 158025, Note_on_c, 0, 30, 36
1, 158087, Note_off_c, 0, 36, 0
1, 158114, Note_on_c, 0, 36, 5
1, 158129, Note_on_c, 0, 40, 29
1, 158166, Note_off_c, 0, 30, 40
1, 158182, Poly_aftertouch_c, 0, 43, 127
1, 158191, Note_on_c, 0, 34, 33
1, 158208, Control_c, 0, 67, 127
1, 158229, Poly_aftertouch_c, 0, 43, 0
1, 158238, Note_off_c, 0, 34, 49
1, 158257, Note_off_c, 0, 40, 36
1, 158283, Note_on_c, 0, 42, 41
1, 158287, Note_off_c, 0, 36, 36
1, 158329, Note_off_c, 0, 42, 49
1, 158390, Note_on_c, 0, 36, 23
1, 158390, Note_on_c, 0, 40, 20
1, 158452, Control_c, 0, 67, 126
1, 158460, Note_on_c, 0, 34, 18
1, 158462, Note_off_c, 0, 40, 40
1, 158483, Poly_aftertouch_c, 0, 43, 0
1, 158503, Note_off_c, 0, 34, 51
1, 158513, Control_c, 0, 67, 126
1, 158523, Note_on_c, 0, 30, 37
1, 158544, Note_off_c, 0, 36, 35
1, 158572, Control_c, 0, 67, 125
1, 158605, Note_off_c, 0, 30, 38
1, 158616, Control_c, 0, 67, 125
1, 158638, Note_on_c, 0, 40, 27
1, 158643, Note_on_c, 0, 36, 9
1, 158662, Poly_aftertouch_c, 0, 43, 127
1, 158675, Control_c, 0, 64, 126
1, 158675, Control_c, 0, 67, 124
1, 158703, Note_off_c, 0, 40, 42
1, 158715, Note_on_c, 0, 34, 27
1, 158728, Note_off_c, 0, 36, 37
1, 158736, Poly_aftertouch_c, 0, 43, 0
1, 158763, Note_off_c, 0, 34, 47
1, 158780, Control_c, 0, 67, 124
1, 158810, Note_on_c, 0, 42, 25
1, 158849, Note_off_c, 0, 42, 50
1, 158854, Control_c, 0, 64, 124
1, 158868, Control_c, 0, 64, 123
1, 158898, Control_c, 0, 64, 121
1, 158898, Control_c, 0, 67, 123
1, 158901, Note_on_c, 0, 40, 13
1, 158913, Control_c, 0, 64, 118
1, 158919, Note_on_c, 0, 36, 21
1, 158928, Control_c, 0, 64, 115
1, 158934, Poly_aftertouch_c, 0, 43, 127
1, 158942, Control_c, 0, 64, 113
1, 158957, Control_c, 0, 64, 112
1, 158972, Control_c, 0, 64, 110
1, 158985, Note_on_c, 0, 34, 31
1, 158987, Control_c, 0, 64, 109
1, 159002, Control_c, 0, 64, 109
1, 159028, Note_off_c, 0, 34, 47
1, 159090, Note_off_c, 0, 36, 33
1, 159106, Control_c, 0, 64, 108
1, 159117, Poly_aftertouch_c, 0, 43, 0
1, 159145, Note_off_c, 0, 40, 39
1, 159156, Note_on_c, 0, 30, 46
1, 159290, Control_c, 0, 64, 109
1, 159305, Control_c, 0, 64, 112
1, 159320, Control_c, 0, 64, 117
1, 159335, Control_c, 0, 64, 127
1, 159374, Note_on_c, 0, 34, 46
1, 159467, Control_c, 0, 67, 123
1, 159482, Control_c, 0, 67, 122
1, 159500, Note_on_c, 0, 37, 42
1, 159558, Control_c, 0, 67, 122
1, 159559, Note_off_c, 0, 30, 42
1, 159559, Note_off_c, 0, 37, 56
1, 159585, Note_off_c, 0, 34, 35
1, 159594, Note_on_c, 0, 36, 53
1, 159602, Control_c, 0, 67, 121
1, 159632, Control_c, 0, 67, 121
1, 159661, Control_c, 0, 67, 120
1, 159676, Control_c, 0, 67, 120
1, 159688, Note_off_c, 0, 36, 58
1, 159690, Note_on_c, 0, 40, 46
1, 159691, Control_c, 0, 67, 119
1, 159705, Control_c, 0, 67, 119
1, 159720, Control_c, 0, 67, 118
1, 159726, Note_on_c, 0, 43, 43
1, 159735, Control_c, 0, 67, 118
1, 159750, Control_c, 0, 67, 117
1, 159758, Note_off_c, 0, 40, 51
1, 159765, Control_c, 0, 67, 117
1, 159780, Control_c, 0, 67, 116
1, 159792, Note_on_c, 0, 48, 54
1, 159795, Control_c, 0, 67, 115
1, 159810, Control_c, 0, 67, 114
1, 159818, Note_off_c, 0, 43, 57
1, 159825, Control_c, 0, 67, 113
1, 159831, Note_off_c, 0, 48, 62
1, 159839, Control_c, 0, 67, 112
1, 159846, Note_on_c, 0, 42, 58
1, 159854, Control_c, 0, 67, 110
1, 159876, Control_c, 0, 67, 109
1, 159890, Control_c, 0, 67, 106
1, 159905, Control_c, 0, 67, 104
1, 159920, Control_c, 0, 67, 102
1, 159925, Note_on_c, 0, 46, 63
1, 159935, Control_c, 0, 67, 100
1, 159950, Control_c, 0, 67, 98
1, 159965, Control_c, 0, 67, 96
1, 159971, Note_off_c, 0, 42, 59
1, 159980, Control_c, 0, 67, 94
1, 159989, Note_on_c, 0, 49, 58
1, 159993, Note_off_c, 0, 46, 60
1, 159995, Control_c, 0, 67, 91
1, 160010, Control_c, 0, 67, 88
1, 160017, Note_off_c, 0, 49, 65
1, 160024, Control_c, 0, 67, 81
1, 160027, Note_on_c, 0, 48, 59
1, 160039, Control_c, 0, 67, 75
1, 160054, Control_c, 0, 67, 69
1, 160066, Note_off_c, 0, 48, 65
1, 160067, Note_on_c, 0, 52, 67
1, 160069, Control_c, 0, 67, 65
1, 160084, Control_c, 0, 67, 61
1, 160096, Note_on_c, 0, 55, 62
1, 160098, Control_c, 0, 67, 59
1, 160113, Control_c, 0, 67, 57
1, 160128, Control_c, 0, 67, 55
1, 160140, Note_on_c, 0, 60, 72
1, 160143, Control_c, 0, 67, 53
1, 160144, Note_off_c, 0, 52, 62
1, 160158, Control_c, 0, 67, 51
1, 160164, Note_off_c, 0, 55, 63
1, 160167, Note_on_c, 0, 54, 65
1, 160172, Control_c, 0, 67, 49
1, 160187, Control_c, 0, 67, 48
1, 160194, Note_off_c, 0, 60, 62
1, 160202, Control_c, 0, 67, 46
1, 160216, Control_c, 0, 67, 42
1, 160231, Note_on_c, 0, 58, 72
1, 160231, Control_c, 0, 67, 40
1, 160239, Note_off_c, 0, 54, 62
1, 160246, Control_c, 0, 67, 36
1, 160261, Control_c, 0, 67, 33
1, 160276, Note_on_c, 0, 61, 63
1, 160276, Control_c, 0, 67, 28
1, 160278, Note_on_c, 0, 60, 74
1, 160280, Note_off_c, 0, 58, 62
1, 160290, Control_c, 0, 67, 23
1, 160302, Note_off_c, 0, 61, 65
1, 160305, Control_c, 0, 67, 16
1, 160314, Note_on_c, 0, 64, 75
1, 160320, Control_c, 0, 67, 0
1, 160330, Note_off_c, 0, 60, 65
1, 160345, Note_on_c, 0, 67, 72
1, 160384, Note_on_c, 0, 72, 81
1, 160391, Note_off_c, 0, 64, 65
1, 160412, Note_off_c, 0, 67, 62
1, 160413, Note_on_c, 0, 66, 68
1, 160430, Note_off_c, 0, 72, 64
1, 160454, Note_on_c, 0, 70, 76
1, 160469, Note_off_c, 0, 66, 60
1, 160490, Note_on_c, 0, 73, 80
1, 160497, Note_off_c, 0, 70, 59
1, 160501, Poly_aftertouch_c, 0, 65, 0
1, 160504, Note_on_c, 0, 72, 78
1, 160513, Note_off_c, 0, 73, 68
1, 160525, Poly_aftertouch_c, 0, 65, 0
1, 160535, Note_on_c, 0, 76, 81
1, 160556, Note_off_c, 0, 72, 60
1, 160565, Note_on_c, 0, 79, 78
1, 160600, Note_on_c, 0, 84, 84
1, 160601, Note_off_c, 0, 76, 65
1, 160627, Note_off_c, 0, 79, 62
1, 160635, Note_on_c, 0, 78, 72
1, 160650, Note_off_c, 0, 84, 65
1, 160663, Note_on_c, 0, 82, 79
1, 160668, Note_off_c, 0, 78, 60
1, 160674, Note_on_c, 0, 85, 83
1, 160686, Note_off_c, 0, 82, 67
1, 160696, Note_on_c, 0, 84, 78
1, 160707, Note_off_c, 0, 85, 64
1, 160737, Note_on_c, 0, 88, 87
1, 160763, Note_on_c, 0, 91, 77
1, 160765, Note_off_c, 0, 84, 65
1, 160793, Note_on_c, 0, 89, 45
1, 160794, Note_off_c, 0, 89, 127
1, 160796, Note_on_c, 0, 96, 81
1, 160813, Note_off_c, 0, 88, 65
1, 160830, Note_on_c, 0, 90, 92
1, 160832, Note_on_c, 0, 94, 94
1, 160834, Note_on_c, 0, 97, 95
1, 160834, Note_off_c, 0, 91, 66
1, 160843, Note_on_c, 0, 92, 68
1, 160849, Note_off_c, 0, 97, 74
1, 160853, Note_off_c, 0, 90, 64
1, 160856, Note_off_c, 0, 96, 66
1, 160860, Note_off_c, 0, 92, 67
1, 160862, Note_off_c, 0, 94, 61
1, 160916, Note_on_c, 0, 96, 80
1, 160937, Note_on_c, 0, 91, 84
1, 160969, Note_on_c, 0, 93, 41
1, 160984, Note_off_c, 0, 96, 64
1, 160992, Note_on_c, 0, 88, 79
1, 161005, Note_off_c, 0, 93, 49
1, 161027, Note_off_c, 0, 91, 65
1, 161035, Note_on_c, 0, 84, 70
1, 161046, Note_off_c, 0, 88, 63
1, 161059, Note_off_c, 0, 84, 68
1, 161079, Note_on_c, 0, 78, 92
1, 161080, Note_on_c, 0, 85, 87
1, 161085, Note_on_c, 0, 82, 75
1, 161101, Note_off_c, 0, 85, 69
1, 161109, Note_off_c, 0, 82, 64
1, 161127, Note_off_c, 0, 78, 64
1, 161133, Note_on_c, 0, 84, 80
1, 161174, Note_on_c, 0, 79, 81
1, 161192, Note_off_c, 0, 84, 61
1, 161201, Note_on_c, 0, 76, 80
1, 161241, Note_off_c, 0, 79, 62
1, 161246, Note_on_c, 0, 72, 80
1, 161277, Note_off_c, 0, 76, 62
1, 161290, Note_off_c, 0, 72, 66
1, 161300, Note_on_c, 0, 73, 95
1, 161303, Note_on_c, 0, 66, 87
1, 161305, Note_on_c, 0, 70, 91
1, 161346, Note_off_c, 0, 70, 64
1, 161349, Note_off_c, 0, 73, 64
1, 161351, Note_off_c, 0, 66, 63
1, 161355, Note_on_c, 0, 72, 82
1, 161390, Note_on_c, 0, 76, 81
1, 161414, Note_off_c, 0, 72, 65
1, 161437, Note_on_c, 0, 79, 81
1, 161472, Note_on_c, 0, 84, 84
1, 161473, Note_off_c, 0, 76, 65
1, 161496, Note_off_c, 0, 79, 64
1, 161511, Note_off_c, 0, 84, 67
1, 161526, Note_on_c, 0, 78, 99
1, 161532, Note_on_c, 0, 85, 97
1, 161533, Note_on_c, 0, 82, 95
1, 161566, Note_on_c, 0, 84, 84
1, 161571, Note_off_c, 0, 82, 66
1, 161571, Note_off_c, 0, 85, 66
1, 161571, Note_off_c, 0, 78, 62
1, 161610, Note_on_c, 0, 88, 93
1, 161640, Note_on_c, 0, 91, 83
1, 161649, Note_off_c, 0, 84, 62
1, 161680, Note_on_c, 0, 96, 89
1, 161699, Note_off_c, 0, 88, 62
1, 161718, Note_off_c, 0, 91, 66
1, 161740, Note_off_c, 0, 96, 66
1, 161744, Note_on_c, 0, 90, 99
1, 161747, Note_on_c, 0, 97, 103
1, 161750, Note_on_c, 0, 94, 96
1, 161783, Note_off_c, 0, 97, 66
1, 161795, Note_off_c, 0, 94, 64
1, 161798, Note_off_c, 0, 90, 65
1, 161807, Note_on_c, 0, 96, 87
1, 161834, Note_on_c, 0, 91, 85
1, 161874, Note_off_c, 0, 96, 64
1, 161879, Note_on_c, 0, 88, 88
1, 161920, Note_off_c, 0, 91, 65
1, 161921, Note_on_c, 0, 84, 76
1, 161934, Note_off_c, 0, 88, 62
1, 161937, Poly_aftertouch_c, 0, 93, 127
1, 161953, Note_off_c, 0, 84, 63
1, 161960, Poly_aftertouch_c, 0, 93, 0
1, 161971, Note_on_c, 0, 85, 86
1, 161974, Note_on_c, 0, 78, 85
1, 161983, Note_on_c, 0, 82, 73
1, 161988, Note_off_c, 0, 85, 72
1, 162006, Note_off_c, 0, 82, 69
1, 162021, Note_off_c, 0, 78, 65
1, 162026, Note_on_c, 0, 84, 80
1, 162069, Note_on_c, 0, 79, 75
1, 162079, Note_on_c, 0, 81, 66
1, 162091, Note_off_c, 0, 84, 58
1, 162097, Note_off_c, 0, 81, 62
1, 162099, Note_on_c, 0, 76, 88
1, 162146, Note_off_c, 0, 79, 59
1, 162153, Note_on_c, 0, 72, 86
1, 162188, Note_off_c, 0, 76, 62
1, 162199, Note_off_c, 0, 72, 65
1, 162208, Note_on_c, 0, 66, 94
1, 162212, Note_on_c, 0, 73, 90
1, 162214, Note_on_c, 0, 70, 93
1, 162249, Note_off_c, 0, 66, 66
1, 162253, Note_off_c, 0, 73, 66
1, 162255, Note_off_c, 0, 70, 65
1, 162275, Note_on_c, 0, 72, 83
1, 162306, Note_on_c, 0, 76, 75
1, 162332, Note_off_c, 0, 72, 56
1, 162358, Note_on_c, 0, 79, 79
1, 162391, Note_on_c, 0, 84, 82
1, 162408, Note_off_c, 0, 76, 62
1, 162424, Note_off_c, 0, 79, 62
1, 162452, Note_on_c, 0, 78, 90
1, 162452, Note_off_c, 0, 84, 63
1, 162457, Note_on_c, 0, 85, 79
1, 162460, Note_on_c, 0, 82, 81
1, 162477, Note_off_c, 0, 85, 71
1, 162502, Note_off_c, 0, 82, 65
1, 162508, Note_off_c, 0, 78, 66
1, 162516, Note_on_c, 0, 84, 75
1, 162543, Note_on_c, 0, 79, 81
1, 162573, Note_off_c, 0, 84, 62
1, 162587, Note_on_c, 0, 76, 83
1, 162621, Note_off_c, 0, 79, 61
1, 162626, Note_on_c, 0, 72, 82
1, 162658, Note_off_c, 0, 76, 61
1, 162671, Note_off_c, 0, 72, 65
1, 162684, Note_on_c, 0, 66, 96
1, 162689, Note_on_c, 0, 73, 92
1, 162697, Note_on_c, 0, 70, 88
1, 162720, Note_off_c, 0, 66, 67
1, 162731, Note_off_c, 0, 73, 65
1, 162742, Note_off_c, 0, 70, 62
1, 162755, Note_on_c, 0, 72, 84
1, 162780, Note_on_c, 0, 76, 78
1, 162809, Note_off_c, 0, 72, 61
1, 162826, Note_on_c, 0, 79, 81
1, 162865, Note_on_c, 0, 84, 86
1, 162880, Note_off_c, 0, 76, 63
1, 162902, Note_off_c, 0, 79, 62
1, 162922, Note_off_c, 0, 84, 65
1, 162927, Note_on_c, 0, 78, 93
1, 162930, Note_on_c, 0, 82, 85
1, 162930, Note_on_c, 0, 85, 82
1, 162952, Note_off_c, 0, 85, 67
1, 162976, Note_off_c, 0, 82, 63
1, 162979, Note_off_c, 0, 78, 67
1, 162994, Note_on_c, 0, 84, 71
1, 163031, Note_on_c, 0, 79, 73
1, 163046, Note_on_c, 0, 77, 66
1, 163050, Note_off_c, 0, 84, 63
1, 163064, Note_on_c, 0, 76, 78
1, 163070, Note_off_c, 0, 77, 56
1, 163083, Note_off_c, 0, 79, 63
1, 163104, Note_on_c, 0, 72, 80
1, 163129, Note_off_c, 0, 76, 62
1, 163148, Note_off_c, 0, 72, 63
1, 163165, Note_on_c, 0, 66, 92
1, 163167, Note_on_c, 0, 73, 86
1, 163174, Note_on_c, 0, 70, 86
1, 163197, Note_off_c, 0, 70, 62
1, 163206, Note_off_c, 0, 73, 63
1, 163208, Note_off_c, 0, 66, 59
1, 163228, Note_on_c, 0, 72, 77
1, 163255, Note_on_c, 0, 76, 73
1, 163286, Note_off_c, 0, 72, 56
1, 163303, Note_on_c, 0, 79, 79
1, 163330, Note_on_c, 0, 84, 81
1, 163351, Note_off_c, 0, 76, 62
1, 163371, Note_off_c, 0, 79, 61
1, 163390, Note_off_c, 0, 84, 64
1, 163401, Note_on_c, 0, 85, 91
1, 163402, Note_on_c, 0, 78, 86
1, 163403, Note_on_c, 0, 82, 82
1, 163423, Note_off_c, 0, 85, 67
1, 163429, Note_on_c, 0, 80, 44
1, 163437, Note_off_c, 0, 82, 58
1, 163449, Note_off_c, 0, 78, 63
1, 163455, Note_off_c, 0, 80, 59
1, 163471, Note_on_c, 0, 84, 72
1, 163496, Note_on_c, 0, 79, 81
1, 163521, Note_off_c, 0, 84, 61
1, 163535, Note_on_c, 0, 76, 73
1, 163566, Note_off_c, 0, 79, 61
1, 163579, Note_on_c, 0, 72, 77
1, 163604, Note_off_c, 0, 76, 62
1, 163634, Note_off_c, 0, 72, 64
1, 163651, Note_on_c, 0, 66, 83
1, 163651, Note_on_c, 0, 73, 85
1, 163658, Note_on_c, 0, 70, 80
1, 163682, Note_off_c, 0, 70, 65
1, 163684, Note_off_c, 0, 66, 58
1, 163691, Note_off_c, 0, 73, 62
1, 163720, Note_on_c, 0, 72, 72
1, 163735, Note_on_c, 0, 76, 75
1, 163762, Note_off_c, 0, 72, 52
1, 163789, Note_on_c, 0, 79, 78
1, 163813, Control_c, 0, 67, 8
1, 163824, Note_on_c, 0, 84, 76
1, 163828, Control_c, 0, 67, 10
1, 163840, Note_off_c, 0, 76, 62
1, 163843, Control_c, 0, 67, 13
1, 163858, Control_c, 0, 67, 19
1, 163861, Note_off_c, 0, 79, 62
1, 163873, Control_c, 0, 67, 26
1, 163876, Note_off_c, 0, 84, 64
1, 163883, Note_on_c, 0, 85, 78
1, 163886, Note_on_c, 0, 78, 77
1, 163887, Note_on_c, 0, 82, 74
1, 163888, Control_c, 0, 67, 32
1, 163903, Control_c, 0, 67, 38
1, 163905, Note_off_c, 0, 85, 71
1, 163917, Note_off_c, 0, 82, 60
1, 163917, Control_c, 0, 67, 42
1, 163928, Note_off_c, 0, 78, 64
1, 163932, Control_c, 0, 67, 47
1, 163947, Control_c, 0, 67, 53
1, 163949, Note_on_c, 0, 84, 64
1, 163962, Control_c, 0, 67, 60
1, 163971, Note_on_c, 0, 79, 80
1, 163977, Control_c, 0, 67, 67
1, 163991, Note_off_c, 0, 84, 57
1, 163992, Control_c, 0, 67, 73
1, 164007, Control_c, 0, 67, 76
1, 164021, Note_on_c, 0, 76, 72
1, 164021, Control_c, 0, 67, 77
1, 164036, Control_c, 0, 67, 78
1, 164037, Note_off_c, 0, 79, 59
1, 164049, Note_on_c, 0, 72, 77
1, 164051, Control_c, 0, 67, 78
1, 164065, Control_c, 0, 67, 79
1, 164072, Note_off_c, 0, 76, 61
1, 164088, Note_off_c, 0, 72, 60
1, 164116, Note_on_c, 0, 66, 80
1, 164120, Note_on_c, 0, 70, 80
1, 164122, Note_on_c, 0, 73, 70
1, 164142, Note_off_c, 0, 66, 63
1, 164148, Note_off_c, 0, 73, 68
1, 164156, Note_off_c, 0, 70, 60
1, 164183, Control_c, 0, 67, 78
1, 164192, Note_on_c, 0, 67, 71
1, 164223, Note_on_c, 0, 72, 47
1, 164228, Control_c, 0, 67, 78
1, 164234, Note_on_c, 0, 71, 61
1, 164243, Control_c, 0, 67, 77
1, 164254, Note_on_c, 0, 76, 61
1, 164260, Note_off_c, 0, 67, 59
1, 164266, Note_off_c, 0, 71, 51
1, 164272, Note_on_c, 0, 74, 63
1, 164295, Note_off_c, 0, 74, 57
1, 164302, Note_on_c, 0, 79, 52
1, 164308, Note_off_c, 0, 72, 62
1, 164328, Note_off_c, 0, 76, 62
1, 164335, Note_on_c, 0, 77, 35
1, 164347, Note_off_c, 0, 79, 51
1, 164354, Note_on_c, 0, 82, 90
1, 164364, Note_on_c, 0, 78, 91
1, 164370, Control_c, 0, 67, 78
1, 164375, Note_off_c, 0, 77, 57
1, 164388, Note_off_c, 0, 78, 61
1, 164398, Note_off_c, 0, 82, 60
1, 164430, Note_on_c, 0, 79, 69
1, 164450, Note_on_c, 0, 76, 74
1, 164467, Note_off_c, 0, 79, 56
1, 164493, Note_on_c, 0, 72, 67
1, 164514, Note_off_c, 0, 76, 59
1, 164549, Note_on_c, 0, 67, 69
1, 164560, Note_off_c, 0, 72, 56
1, 164563, Control_c, 0, 67, 77
1, 164578, Note_off_c, 0, 67, 64
1, 164578, Control_c, 0, 67, 77
1, 164600, Note_on_c, 0, 66, 72
1, 164606, Note_on_c, 0, 70, 72
1, 164607, Note_on_c, 0, 73, 69
1, 164627, Note_off_c, 0, 66, 63
1, 164640, Note_off_c, 0, 70, 60
1, 164646, Note_off_c, 0, 73, 61
1, 164669, Note_on_c, 0, 67, 64
1, 164700, Note_on_c, 0, 72, 65
1, 164737, Note_off_c, 0, 67, 58
1, 164746, Note_on_c, 0, 76, 66
1, 164770, Control_c, 0, 67, 77
1, 164785, Control_c, 0, 67, 78
1, 164790, Note_on_c, 0, 79, 70
1, 164791, Note_off_c, 0, 72, 60
1, 164815, Control_c, 0, 67, 78
1, 164827, Note_off_c, 0, 76, 62
1, 164830, Control_c, 0, 67, 79
1, 164835, Note_off_c, 0, 79, 58
1, 164845, Control_c, 0, 67, 79
1, 164845, Note_on_c, 0, 78, 80
1, 164847, Note_on_c, 0, 82, 79
1, 164870, Note_off_c, 0, 82, 57
1, 164874, Control_c, 0, 67, 80
1, 164883, Note_off_c, 0, 78, 61
1, 164904, Control_c, 0, 67, 80
1, 164919, Control_c, 0, 67, 81
1, 164940, Note_on_c, 0, 79, 54
1, 164945, Note_on_c, 0, 76, 71
1, 164949, Control_c, 0, 67, 82
1, 164963, Control_c, 0, 67, 83
1, 164965, Note_off_c, 0, 79, 59
1, 164978, Control_c, 0, 67, 84
1, 164991, Note_on_c, 0, 72, 62
1, 164993, Control_c, 0, 67, 85
1, 165003, Note_off_c, 0, 76, 58
1, 165007, Control_c, 0, 67, 86
1, 165022, Control_c, 0, 67, 86
1, 165037, Control_c, 0, 67, 87
1, 165044, Note_on_c, 0, 67, 66
1, 165052, Note_off_c, 0, 72, 59
1, 165052, Control_c, 0, 67, 88
1, 165067, Control_c, 0, 67, 90
1, 165073, Note_off_c, 0, 67, 64
1, 165081, Control_c, 0, 67, 91
1, 165096, Control_c, 0, 67, 92
1, 165099, Note_on_c, 0, 66, 62
1, 165099, Note_on_c, 0, 73, 61
1, 165100, Note_on_c, 0, 70, 63
1, 165119, Control_c, 0, 67, 92
1, 165134, Control_c, 0, 67, 94
1, 165137, Note_off_c, 0, 66, 64
1, 165138, Note_off_c, 0, 70, 64
1, 165149, Control_c, 0, 67, 96
1, 165152, Note_off_c, 0, 73, 60
1, 165164, Control_c, 0, 67, 98
1, 165169, Note_on_c, 0, 67, 55
1, 165179, Control_c, 0, 67, 101
1, 165193, Control_c, 0, 67, 104
1, 165201, Note_on_c, 0, 72, 57
1, 165208, Control_c, 0, 67, 106
1, 165217, Note_off_c, 0, 67, 46
1, 165223, Control_c, 0, 67, 109
1, 165238, Control_c, 0, 67, 112
1, 165253, Control_c, 0, 67, 115
1, 165261, Note_on_c, 0, 76, 67
1, 165268, Control_c, 0, 67, 118
1, 165283, Control_c, 0, 67, 121
1, 165284, Note_on_c, 0, 79, 75
1, 165294, Note_off_c, 0, 72, 62
1, 165298, Control_c, 0, 67, 122
1, 165312, Control_c, 0, 67, 124
1, 165322, Note_off_c, 0, 76, 62
1, 165324, Note_off_c, 0, 79, 57
1, 165327, Control_c, 0, 67, 126
1, 165342, Control_c, 0, 67, 127
1, 165351, Note_on_c, 0, 82, 76
1, 165354, Note_on_c, 0, 78, 74
1, 165384, Note_off_c, 0, 82, 59
1, 165396, Note_off_c, 0, 78, 61
1, 165441, Note_on_c, 0, 79, 56
1, 165447, Note_on_c, 0, 76, 70
1, 165499, Note_on_c, 0, 72, 66
1, 165502, Note_off_c, 0, 79, 55
1, 165509, Note_off_c, 0, 76, 59
1, 165545, Note_on_c, 0, 67, 71
1, 165561, Note_off_c, 0, 72, 58
1, 165578, Note_off_c, 0, 67, 59
1, 165608, Note_on_c, 0, 66, 58
1, 165609, Note_on_c, 0, 70, 64
1, 165609, Note_on_c, 0, 73, 57
1, 165637, Note_off_c, 0, 66, 64
1, 165641, Note_off_c, 0, 70, 62
1, 165654, Note_off_c, 0, 73, 61
1, 165688, Note_on_c, 0, 67, 59
1, 165709, Note_on_c, 0, 72, 65
1, 165731, Note_off_c, 0, 67, 54
1, 165760, Note_on_c, 0, 76, 65
1, 165797, Note_on_c, 0, 79, 71
1, 165810, Note_off_c, 0, 72, 55
1, 165840, Note_off_c, 0, 76, 59
1, 165841, Note_off_c, 0, 79, 58
1, 165864, Note_on_c, 0, 82, 71
1, 165867, Note_on_c, 0, 78, 70
1, 165892, Note_off_c, 0, 82, 65
1, 165900, Note_off_c, 0, 78, 62
1, 165968, Note_on_c, 0, 76, 65
1, 165971, Note_on_c, 0, 79, 37
1, 166003, Note_off_c, 0, 79, 53
1, 166007, Note_on_c, 0, 72, 61
1, 166014, Note_off_c, 0, 76, 49
1, 166031, Control_c, 0, 67, 127
1, 166058, Note_on_c, 0, 67, 67
1, 166061, Control_c, 0, 67, 126
1, 166073, Note_off_c, 0, 72, 58
1, 166086, Note_off_c, 0, 67, 61
1, 166126, Note_on_c, 0, 66, 62
1, 166126, Note_on_c, 0, 70, 62
1, 166156, Note_off_c, 0, 66, 63
1, 166161, Note_off_c, 0, 70, 64
1, 166199, Note_on_c, 0, 67, 61
1, 166226, Note_on_c, 0, 72, 57
1, 166239, Control_c, 0, 67, 127
1, 166240, Note_off_c, 0, 67, 59
1, 166275, Note_on_c, 0, 76, 65
1, 166283, Control_c, 0, 67, 127
1, 166314, Note_off_c, 0, 72, 62
1, 166319, Note_on_c, 0, 79, 66
1, 166343, Note_off_c, 0, 76, 59
1, 166347, Note_off_c, 0, 79, 64
1, 166386, Note_on_c, 0, 78, 65
1, 166388, Note_on_c, 0, 73, 68
1, 166416, Note_off_c, 0, 78, 64
1, 166421, Note_off_c, 0, 73, 62
1, 166457, Note_on_c, 0, 79, 59
1, 166484, Note_on_c, 0, 76, 57
1, 166490, Note_off_c, 0, 79, 55
1, 166529, Note_on_c, 0, 72, 60
1, 166530, Note_off_c, 0, 76, 52
1, 166584, Note_on_c, 0, 67, 64
1, 166606, Note_off_c, 0, 72, 58
1, 166621, Note_off_c, 0, 67, 61
1, 166631, Control_c, 0, 67, 127
1, 166657, Note_on_c, 0, 66, 54
1, 166658, Note_on_c, 0, 70, 52
1, 166687, Note_off_c, 0, 70, 64
1, 166688, Note_off_c, 0, 66, 63
1, 166741, Note_on_c, 0, 67, 46
1, 166746, Note_on_c, 0, 72, 54
1, 166767, Note_off_c, 0, 67, 57
1, 166808, Note_on_c, 0, 76, 59
1, 166839, Control_c, 0, 67, 127
1, 166850, Note_off_c, 0, 72, 59
1, 166858, Note_on_c, 0, 79, 56
1, 166893, Note_off_c, 0, 79, 61
1, 166895, Note_off_c, 0, 76, 59
1, 166918, Note_on_c, 0, 78, 60
1, 166920, Note_on_c, 0, 73, 63
1, 166951, Note_off_c, 0, 78, 54
1, 166955, Note_off_c, 0, 73, 61
1, 167013, Note_on_c, 0, 79, 38
1, 167028, Note_on_c, 0, 76, 53
1, 167046, Note_off_c, 0, 79, 52
1, 167070, Note_off_c, 0, 76, 58
1, 167071, Note_on_c, 0, 72, 55
1, 167133, Note_on_c, 0, 67, 59
1, 167145, Note_off_c, 0, 72, 56
1, 167165, Note_off_c, 0, 67, 62
1, 167190, Note_on_c, 0, 66, 54
1, 167201, Note_on_c, 0, 70, 49
1, 167229, Note_off_c, 0, 66, 58
1, 167231, Note_off_c, 0, 70, 63
1, 167272, Note_on_c, 0, 67, 43
1, 167289, Note_on_c, 0, 72, 51
1, 167304, Note_off_c, 0, 67, 53
1, 167343, Control_c, 0, 64, 124
1, 167348, Note_on_c, 0, 76, 58
1, 167365, Control_c, 0, 64, 118
1, 167380, Control_c, 0, 64, 116
1, 167394, Note_off_c, 0, 72, 57
1, 167395, Control_c, 0, 64, 115
1, 167405, Note_on_c, 0, 79, 61
1, 167409, Control_c, 0, 64, 114
1, 167424, Control_c, 0, 64, 112
1, 167434, Note_off_c, 0, 76, 56
1, 167438, Note_off_c, 0, 79, 62
1, 167439, Control_c, 0, 64, 110
1, 167454, Control_c, 0, 64, 110
1, 167466, Note_on_c, 0, 78, 54
1, 167469, Note_on_c, 0, 73, 58
1, 167469, Control_c, 0, 64, 109
1, 167498, Control_c, 0, 64, 109
1, 167507, Note_off_c, 0, 78, 49
1, 167509, Note_off_c, 0, 73, 60
1, 167512, Control_c, 0, 64, 107
1, 167527, Control_c, 0, 64, 106
1, 167543, Control_c, 0, 64, 106
1, 167560, Note_on_c, 0, 79, 46
1, 167573, Control_c, 0, 64, 105
1, 167575, Note_on_c, 0, 76, 50
1, 167587, Control_c, 0, 64, 104
1, 167592, Note_off_c, 0, 79, 51
1, 167617, Control_c, 0, 64, 104
1, 167623, Note_on_c, 0, 72, 58
1, 167627, Note_off_c, 0, 76, 49
1, 167647, Control_c, 0, 64, 103
1, 167690, Note_on_c, 0, 67, 56
1, 167698, Note_off_c, 0, 72, 53
1, 167723, Note_off_c, 0, 67, 62
1, 167753, Note_on_c, 0, 66, 54
1, 167759, Note_on_c, 0, 70, 50
1, 167796, Note_off_c, 0, 66, 56
1, 167799, Note_off_c, 0, 70, 63
1, 167824, Note_on_c, 0, 67, 42
1, 167854, Note_on_c, 0, 72, 46
1, 167867, Note_off_c, 0, 67, 45
1, 167917, Note_on_c, 0, 76, 55
1, 167969, Note_off_c, 0, 72, 41
1, 167986, Note_on_c, 0, 79, 50
1, 168016, Note_off_c, 0, 79, 55
1, 168016, Note_off_c, 0, 76, 57
1, 168042, Note_on_c, 0, 78, 51
1, 168044, Note_on_c, 0, 73, 55
1, 168079, Note_off_c, 0, 78, 49
1, 168088, Note_off_c, 0, 73, 58
1, 168118, Note_on_c, 0, 79, 54
1, 168156, Note_off_c, 0, 79, 48
1, 168160, Note_on_c, 0, 76, 41
1, 168205, Note_off_c, 0, 76, 44
1, 168220, Note_on_c, 0, 72, 49
1, 168246, Control_c, 0, 64, 103
1, 168289, Note_on_c, 0, 67, 46
1, 168295, Note_off_c, 0, 72, 40
1, 168316, Note_off_c, 0, 67, 56
1, 168348, Note_on_c, 0, 66, 47
1, 168359, Note_on_c, 0, 70, 45
1, 168403, Note_off_c, 0, 66, 53
1, 168404, Note_off_c, 0, 70, 61
1, 168443, Note_on_c, 0, 67, 34
1, 168496, Note_off_c, 0, 67, 44
1, 168508, Note_on_c, 0, 72, 42
1, 168592, Note_on_c, 0, 76, 46
1, 168606, Note_off_c, 0, 72, 36
1, 168628, Note_off_c, 0, 76, 48
1, 168657, Note_on_c, 0, 78, 49
1, 168669, Note_on_c, 0, 73, 46
1, 168729, Note_off_c, 0, 73, 54
1, 168750, Note_on_c, 0, 76, 47
1, 168752, Note_off_c, 0, 78, 46
1, 168805, Note_off_c, 0, 76, 44
1, 168841, Note_on_c, 0, 72, 39
1, 168918, Note_off_c, 0, 72, 39
1, 168926, Note_on_c, 0, 67, 41
1, 168966, Note_off_c, 0, 67, 50
1, 168994, Note_on_c, 0, 70, 40
1, 168998, Note_on_c, 0, 66, 41
1, 169055, Note_off_c, 0, 70, 58
1, 169079, Note_off_c, 0, 66, 39
1, 169103, Note_on_c, 0, 67, 34
1, 169149, Note_off_c, 0, 67, 45
1, 169194, Note_on_c, 0, 72, 29
1, 169264, Note_on_c, 0, 76, 43
1, 169270, Note_off_c, 0, 72, 37
1, 169303, Note_off_c, 0, 76, 47
1, 169355, Note_on_c, 0, 78, 38
1, 169364, Note_on_c, 0, 73, 37
1, 169419, Note_off_c, 0, 78, 42
1, 169442, Note_off_c, 0, 73, 39
1, 169452, Note_on_c, 0, 76, 42
1, 169519, Note_off_c, 0, 76, 38
1, 169567, Note_on_c, 0, 72, 38
1, 169652, Note_off_c, 0, 72, 37
1, 169657, Note_on_c, 0, 67, 24
1, 169694, Note_off_c, 0, 67, 51
1, 169727, Note_on_c, 0, 66, 41
1, 169737, Note_on_c, 0, 70, 41
1, 169790, Note_off_c, 0, 70, 59
1, 169800, Note_off_c, 0, 66, 51
1, 169852, Note_on_c, 0, 67, 30
1, 169909, Note_off_c, 0, 67, 41
1, 169954, Note_on_c, 0, 72, 26
1, 170033, Note_on_c, 0, 76, 42
1, 170034, Note_off_c, 0, 72, 34
1, 170072, Note_off_c, 0, 76, 47
1, 170138, Note_on_c, 0, 78, 44
1, 170158, Note_on_c, 0, 73, 38
1, 170219, Note_off_c, 0, 73, 42
1, 170225, Note_off_c, 0, 78, 41
1, 170258, Note_on_c, 0, 76, 41
1, 170263, Control_c, 0, 64, 103
1, 170354, Note_off_c, 0, 76, 32
1, 170377, Note_on_c, 0, 72, 46
1, 170515, Note_on_c, 0, 67, 39
1, 170535, Note_off_c, 0, 72, 31
1, 170572, Note_off_c, 0, 67, 53
1, 170622, Note_on_c, 0, 66, 33
1, 170631, Note_on_c, 0, 70, 28
1, 170739, Note_off_c, 0, 70, 37
1, 170750, Note_off_c, 0, 66, 40
1, 170795, Note_on_c, 0, 67, 24
1, 170923, Note_off_c, 0, 67, 36
1, 170936, Note_on_c, 0, 72, 34
1, 171081, Note_on_c, 0, 76, 37
1, 171125, Note_off_c, 0, 72, 38
1, 171152, Control_c, 0, 64, 104
1, 171203, Note_off_c, 0, 76, 30
1, 171274, Note_on_c, 0, 78, 22
1, 171286, Note_on_c, 0, 73, 35
1, 171286, Control_c, 0, 64, 104
1, 171346, Control_c, 0, 64, 105
1, 171390, Control_c, 0, 64, 105
1, 171398, Note_off_c, 0, 78, 44
1, 171427, Note_off_c, 0, 73, 43
1, 171449, Control_c, 0, 64, 106
1, 171522, Note_on_c, 0, 76, 36
1, 171525, Control_c, 0, 64, 106
1, 171540, Control_c, 0, 64, 107
1, 171569, Control_c, 0, 64, 107
1, 171613, Control_c, 0, 64, 108
1, 171628, Control_c, 0, 64, 109
1, 171687, Control_c, 0, 64, 109
1, 171717, Control_c, 0, 64, 110
1, 171733, Note_off_c, 0, 76, 31
1, 171795, Note_on_c, 0, 72, 36
1, 171805, Control_c, 0, 64, 110
1, 171872, Control_c, 0, 64, 111
1, 171887, Control_c, 0, 64, 111
1, 171917, Control_c, 0, 64, 112
1, 171932, Control_c, 0, 64, 112
1, 171934, Note_off_c, 0, 72, 36
1, 171961, Control_c, 0, 64, 113
1, 172164, Note_on_c, 0, 67, 41
1, 172345, Note_off_c, 0, 67, 33
1, 172695, Control_c, 0, 64, 111
1, 172710, Control_c, 0, 64, 110
1, 172725, Control_c, 0, 64, 110
1, 172740, Control_c, 0, 64, 109
1, 172754, Control_c, 0, 64, 108
1, 172769, Control_c, 0, 64, 106
1, 172784, Control_c, 0, 64, 104
1, 172799, Control_c, 0, 64, 103
1, 172814, Control_c, 0, 64, 102
1, 172828, Control_c, 0, 64, 100
1, 172829, Note_on_c, 0, 65, 35
1, 172833, Note_on_c, 0, 79, 44
1, 172842, Note_on_c, 0, 72, 40
1, 172843, Note_on_c, 0, 75, 41
1, 172843, Control_c, 0, 64, 97
1, 172858, Control_c, 0, 64, 94
1, 172873, Control_c, 0, 64, 89
1, 172888, Control_c, 0, 64, 84
1, 172902, Control_c, 0, 64, 79
1, 172917, Control_c, 0, 64, 73
1, 172932, Control_c, 0, 64, 69
1, 172947, Control_c, 0, 64, 66
1, 172962, Control_c, 0, 64, 66
1, 172976, Control_c, 0, 64, 65
1, 172991, Control_c, 0, 64, 66
1, 173006, Control_c, 0, 64, 67
1, 173021, Control_c, 0, 64, 70
1, 173028, Note_on_c, 0, 69, 47
1, 173035, Note_on_c, 0, 74, 42
1, 173036, Control_c, 0, 64, 73
1, 173050, Note_off_c, 0, 72, 30
1, 173051, Control_c, 0, 64, 75
1, 173066, Control_c, 0, 64, 79
1, 173078, Note_off_c, 0, 69, 56
1, 173081, Control_c, 0, 64, 82
1, 173081, Note_off_c, 0, 74, 55
1, 173087, Note_off_c, 0, 65, 43
1, 173095, Control_c, 0, 64, 87
1, 173110, Control_c, 0, 64, 92
1, 173125, Control_c, 0, 64, 97
1, 173140, Control_c, 0, 64, 101
1, 173155, Control_c, 0, 64, 105
1, 173169, Note_on_c, 0, 81, 64
1, 173170, Control_c, 0, 64, 109
1, 173185, Control_c, 0, 64, 113
1, 173188, Note_on_c, 0, 77, 51
1, 173190, Note_on_c, 0, 69, 46
1, 173196, Note_off_c, 0, 79, 42
1, 173200, Control_c, 0, 64, 116
1, 173206, Note_on_c, 0, 74, 37
1, 173215, Control_c, 0, 64, 117
1, 173241, Note_off_c, 0, 74, 52
1, 173257, Note_off_c, 0, 81, 58
1, 173274, Note_off_c, 0, 75, 33
1, 173289, Note_off_c, 0, 77, 50
1, 173313, Note_on_c, 0, 72, 53
1, 173328, Note_on_c, 0, 65, 44
1, 173347, Note_off_c, 0, 69, 23
1, 173351, Note_off_c, 0, 72, 56
1, 173364, Note_off_c, 0, 65, 58
1, 173444, Control_c, 0, 64, 116
1, 173474, Control_c, 0, 64, 114
1, 173488, Control_c, 0, 64, 111
1, 173495, Note_on_c, 0, 77, 49
1, 173497, Note_on_c, 0, 70, 47
1, 173498, Note_on_c, 0, 73, 47
1, 173503, Control_c, 0, 64, 107
1, 173517, Control_c, 0, 64, 101
1, 173519, Note_on_c, 0, 63, 37
1, 173532, Control_c, 0, 64, 95
1, 173547, Control_c, 0, 64, 87
1, 173562, Control_c, 0, 64, 80
1, 173576, Control_c, 0, 64, 74
1, 173591, Control_c, 0, 64, 69
1, 173606, Control_c, 0, 64, 66
1, 173621, Control_c, 0, 64, 65
1, 173636, Control_c, 0, 64, 65
1, 173650, Control_c, 0, 64, 67
1, 173655, Note_on_c, 0, 72, 50
1, 173665, Control_c, 0, 64, 68
1, 173669, Note_on_c, 0, 67, 39
1, 173680, Control_c, 0, 64, 71
1, 173685, Note_off_c, 0, 63, 22
1, 173695, Control_c, 0, 64, 73
1, 173703, Note_off_c, 0, 70, 32
1, 173705, Note_off_c, 0, 72, 56
1, 173707, Note_off_c, 0, 77, 58
1, 173710, Control_c, 0, 64, 76
1, 173714, Note_off_c, 0, 67, 58
1, 173722, Note_off_c, 0, 73, 56
1, 173725, Control_c, 0, 64, 81
1, 173740, Control_c, 0, 64, 85
1, 173754, Control_c, 0, 64, 91
1, 173769, Control_c, 0, 64, 95
1, 173784, Control_c, 0, 64, 98
1, 173789, Note_on_c, 0, 84, 60
1, 173799, Control_c, 0, 64, 101
1, 173814, Control_c, 0, 64, 107
1, 173826, Note_on_c, 0, 72, 54
1, 173829, Control_c, 0, 64, 120
1, 173840, Note_on_c, 0, 67, 33
1, 173843, Control_c, 0, 64, 127
1, 173871, Note_off_c, 0, 84, 56
1, 173883, Note_off_c, 0, 72, 41
1, 173897, Note_off_c, 0, 67, 40
1, 173920, Note_on_c, 0, 73, 35
1, 173951, Note_on_c, 0, 70, 55
1, 173966, Note_on_c, 0, 63, 33
1, 173974, Note_on_c, 0, 77, 38
1, 173999, Note_off_c, 0, 63, 54
1, 174009, Note_off_c, 0, 77, 51
1, 174011, Note_off_c, 0, 70, 46
1, 174020, Note_off_c, 0, 73, 57
1, 174116, Note_on_c, 0, 79, 70
1, 174130, Note_on_c, 0, 72, 49
1, 174130, Note_on_c, 0, 65, 44
1, 174148, Control_c, 0, 64, 109
1, 174152, Note_on_c, 0, 75, 45
1, 174163, Control_c, 0, 64, 99
1, 174178, Control_c, 0, 64, 92
1, 174192, Control_c, 0, 64, 85
1, 174207, Control_c, 0, 64, 77
1, 174222, Control_c, 0, 64, 71
1, 174237, Control_c, 0, 64, 68
1, 174252, Control_c, 0, 64, 68
1, 174267, Control_c, 0, 64, 69
1, 174267, Note_on_c, 0, 69, 52
1, 174282, Control_c, 0, 64, 71
1, 174285, Note_on_c, 0, 74, 47
1, 174297, Control_c, 0, 64, 75
1, 174300, Note_off_c, 0, 72, 54
1, 174312, Control_c, 0, 64, 80
1, 174314, Note_off_c, 0, 69, 56
1, 174315, Note_off_c, 0, 65, 46
1, 174323, Note_off_c, 0, 74, 63
1, 174327, Control_c, 0, 64, 84
1, 174341, Control_c, 0, 64, 88
1, 174341, Control_c, 0, 67, 127
1, 174356, Control_c, 0, 64, 92
1, 174356, Control_c, 0, 67, 124
1, 174371, Control_c, 0, 64, 98
1, 174371, Control_c, 0, 67, 119
1, 174386, Control_c, 0, 64, 103
1, 174386, Control_c, 0, 67, 115
1, 174400, Control_c, 0, 64, 109
1, 174400, Control_c, 0, 67, 112
1, 174407, Note_on_c, 0, 81, 73
1, 174415, Control_c, 0, 64, 117
1, 174415, Control_c, 0, 67, 107
1, 174427, Note_on_c, 0, 74, 51
1, 174430, Control_c, 0, 64, 127
1, 174430, Control_c, 0, 67, 102
1, 174445, Control_c, 0, 67, 94
1, 174447, Note_on_c, 0, 77, 37
1, 174456, Note_on_c, 0, 69, 32
1, 174460, Control_c, 0, 67, 83
1, 174474, Control_c, 0, 67, 70
1, 174475, Note_off_c, 0, 74, 56
1, 174488, Note_off_c, 0, 79, 59
1, 174489, Control_c, 0, 67, 61
1, 174504, Note_off_c, 0, 75, 48
1, 174504, Control_c, 0, 67, 56
1, 174515, Note_off_c, 0, 81, 63
1, 174518, Control_c, 0, 67, 55
1, 174549, Note_on_c, 0, 72, 53
1, 174560, Note_on_c, 0, 65, 52
1, 174562, Note_off_c, 0, 77, 40
1, 174563, Control_c, 0, 67, 56
1, 174578, Control_c, 0, 67, 57
1, 174583, Note_off_c, 0, 72, 63
1, 174592, Control_c, 0, 67, 58
1, 174597, Note_off_c, 0, 65, 64
1, 174598, Note_off_c, 0, 69, 23
1, 174607, Control_c, 0, 67, 58
1, 174622, Control_c, 0, 67, 59
1, 174637, Control_c, 0, 67, 60
1, 174652, Control_c, 0, 67, 60
1, 174682, Control_c, 0, 67, 61
1, 174696, Control_c, 0, 67, 61
1, 174712, Control_c, 0, 67, 62
1, 174719, Note_on_c, 0, 73, 52
1, 174725, Note_on_c, 0, 70, 53
1, 174726, Note_on_c, 0, 77, 57
1, 174742, Control_c, 0, 64, 119
1, 174742, Control_c, 0, 67, 62
1, 174752, Note_on_c, 0, 63, 38
1, 174757, Control_c, 0, 64, 102
1, 174757, Control_c, 0, 67, 63
1, 174771, Control_c, 0, 64, 92
1, 174771, Control_c, 0, 67, 63
1, 174786, Control_c, 0, 64, 85
1, 174786, Control_c, 0, 67, 64
1, 174801, Control_c, 0, 64, 78
1, 174816, Control_c, 0, 64, 74
1, 174831, Control_c, 0, 64, 71
1, 174853, Control_c, 0, 64, 70
1, 174868, Control_c, 0, 64, 71
1, 174881, Note_on_c, 0, 72, 54
1, 174883, Control_c, 0, 64, 72
1, 174883, Control_c, 0, 67, 64
1, 174888, Note_off_c, 0, 63, 25
1, 174897, Note_on_c, 0, 67, 42
1, 174897, Control_c, 0, 64, 76
1, 174897, Control_c, 0, 67, 65
1, 174912, Control_c, 0, 64, 80
1, 174912, Control_c, 0, 67, 65
1, 174919, Note_off_c, 0, 70, 54
1, 174924, Note_off_c, 0, 72, 59
1, 174927, Control_c, 0, 64, 85
1, 174927, Control_c, 0, 67, 66
1, 174935, Note_off_c, 0, 77, 60
1, 174936, Note_off_c, 0, 67, 53
1, 174939, Note_off_c, 0, 73, 56
1, 174942, Control_c, 0, 64, 91
1, 174957, Control_c, 0, 64, 95
1, 174957, Control_c, 0, 67, 66
1, 174971, Control_c, 0, 64, 99
1, 174971, Control_c, 0, 67, 67
1, 174986, Control_c, 0, 64, 104
1, 175001, Control_c, 0, 64, 108
1, 175001, Control_c, 0, 67, 68
1, 175016, Control_c, 0, 64, 115
1, 175016, Control_c, 0, 67, 69
1, 175030, Control_c, 0, 64, 127
1, 175030, Control_c, 0, 67, 69
1, 175031, Note_on_c, 0, 84, 69
1, 175036, Note_on_c, 0, 72, 62
1, 175045, Control_c, 0, 67, 70
1, 175051, Note_on_c, 0, 67, 50
1, 175060, Control_c, 0, 67, 70
1, 175095, Note_off_c, 0, 84, 59
1, 175114, Note_off_c, 0, 72, 51
1, 175117, Poly_aftertouch_c, 0, 79, 127
1, 175141, Note_off_c, 0, 67, 33
1, 175153, Poly_aftertouch_c, 0, 79, 0
1, 175164, Note_on_c, 0, 73, 54
1, 175176, Note_on_c, 0, 70, 63
1, 175192, Note_on_c, 0, 63, 44
1, 175192, Note_on_c, 0, 77, 54
1, 175222, Note_off_c, 0, 63, 57
1, 175236, Note_off_c, 0, 77, 56
1, 175248, Note_off_c, 0, 73, 57
1, 175253, Control_c, 0, 67, 70
1, 175254, Note_off_c, 0, 70, 57
1, 175341, Control_c, 0, 64, 122
1, 175343, Note_on_c, 0, 79, 74
1, 175349, Note_on_c, 0, 72, 54
1, 175356, Control_c, 0, 64, 108
1, 175358, Note_on_c, 0, 65, 46
1, 175367, Note_on_c, 0, 75, 51
1, 175371, Control_c, 0, 64, 99
1, 175386, Control_c, 0, 64, 91
1, 175401, Control_c, 0, 64, 82
1, 175415, Control_c, 0, 64, 73
1, 175430, Control_c, 0, 64, 67
1, 175445, Control_c, 0, 64, 64
1, 175489, Control_c, 0, 64, 66
1, 175502, Note_on_c, 0, 74, 62
1, 175504, Control_c, 0, 64, 68
1, 175512, Note_on_c, 0, 69, 45
1, 175520, Control_c, 0, 64, 71
1, 175528, Note_off_c, 0, 65, 53
1, 175529, Note_off_c, 0, 72, 53
1, 175535, Control_c, 0, 64, 76
1, 175535, Control_c, 0, 67, 70
1, 175549, Note_off_c, 0, 74, 60
1, 175550, Control_c, 0, 64, 81
1, 175565, Control_c, 0, 64, 85
1, 175571, Note_off_c, 0, 69, 51
1, 175580, Control_c, 0, 64, 89
1, 175602, Control_c, 0, 64, 94
1, 175617, Control_c, 0, 64, 102
1, 175617, Control_c, 0, 67, 71
1, 175632, Control_c, 0, 64, 117
1, 175646, Control_c, 0, 64, 127
1, 175662, Note_on_c, 0, 81, 60
1, 175679, Note_on_c, 0, 69, 38
1, 175681, Note_on_c, 0, 74, 56
1, 175682, Note_off_c, 0, 75, 54
1, 175689, Note_on_c, 0, 77, 50
1, 175723, Note_off_c, 0, 79, 61
1, 175727, Note_off_c, 0, 74, 53
1, 175750, Control_c, 0, 67, 70
1, 175752, Note_off_c, 0, 81, 54
1, 175753, Note_off_c, 0, 77, 62
1, 175810, Note_on_c, 0, 72, 53
1, 175835, Note_on_c, 0, 65, 32
1, 175844, Note_off_c, 0, 72, 63
1, 175855, Note_off_c, 0, 69, 36
1, 175867, Note_off_c, 0, 65, 52
1, 175972, Control_c, 0, 64, 114
1, 175984, Note_on_c, 0, 70, 53
1, 175986, Note_on_c, 0, 77, 54
1, 175987, Note_on_c, 0, 73, 47
1, 175987, Control_c, 0, 64, 107
1, 176002, Control_c, 0, 64, 100
1, 176016, Note_on_c, 0, 63, 35
1, 176017, Control_c, 0, 64, 93
1, 176032, Control_c, 0, 64, 86
1, 176046, Control_c, 0, 64, 78
1, 176046, Control_c, 0, 67, 71
1, 176061, Control_c, 0, 64, 72
1, 176076, Control_c, 0, 64, 67
1, 176077, Note_off_c, 0, 63, 41
1, 176091, Control_c, 0, 64, 67
1, 176106, Control_c, 0, 64, 67
1, 176120, Control_c, 0, 64, 69
1, 176120, Control_c, 0, 67, 71
1, 176135, Control_c, 0, 64, 71
1, 176135, Control_c, 0, 67, 72
1, 176150, Note_on_c, 0, 72, 42
1, 176150, Control_c, 0, 64, 75
1, 176150, Control_c, 0, 67, 72
1, 176151, Note_on_c, 0, 67, 37
1, 176164, Control_c, 0, 64, 80
1, 176164, Control_c, 0, 67, 73
1, 176179, Control_c, 0, 64, 84
1, 176179, Control_c, 0, 67, 75
1, 176194, Control_c, 0, 64, 90
1, 176194, Control_c, 0, 67, 80
1, 176209, Control_c, 0, 64, 94
1, 176209, Control_c, 0, 67, 84
1, 176211, Note_off_c, 0, 72, 54
1, 176217, Note_off_c, 0, 70, 34
1, 176224, Note_off_c, 0, 67, 48
1, 176224, Control_c, 0, 64, 98
1, 176224, Control_c, 0, 67, 87
1, 176238, Control_c, 0, 64, 102
1, 176238, Control_c, 0, 67, 90
1, 176253, Control_c, 0, 64, 107
1, 176253, Control_c, 0, 67, 92
1, 176268, Control_c, 0, 64, 116
1, 176268, Control_c, 0, 67, 96
1, 176283, Control_c, 0, 64, 127
1, 176283, Control_c, 0, 67, 98
1, 176285, Note_off_c, 0, 73, 50
1, 176298, Control_c, 0, 67, 100
1, 176302, Note_on_c, 0, 79, 60
1, 176310, Note_on_c, 0, 75, 50
1, 176312, Note_on_c, 0, 67, 22
1, 176312, Note_on_c, 0, 72, 45
1, 176314, Control_c, 0, 67, 102
1, 176329, Control_c, 0, 67, 103
1, 176349, Note_off_c, 0, 77, 61
1, 176351, Control_c, 0, 67, 104
1, 176366, Control_c, 0, 67, 105
1, 176369, Note_off_c, 0, 79, 48
1, 176381, Control_c, 0, 67, 105
1, 176399, Note_off_c, 0, 72, 38
1, 176405, Note_off_c, 0, 75, 37
1, 176450, Note_on_c, 0, 70, 59
1, 176485, Note_off_c, 0, 70, 62
1, 176486, Note_on_c, 0, 63, 28
1, 176503, Note_off_c, 0, 67, 40
1, 176524, Note_off_c, 0, 63, 51
1, 176587, Control_c, 0, 67, 105
1, 176602, Control_c, 0, 64, 126
1, 176617, Control_c, 0, 64, 115
1, 176622, Note_on_c, 0, 75, 52
1, 176625, Note_on_c, 0, 68, 50
1, 176632, Control_c, 0, 64, 110
1, 176639, Note_on_c, 0, 61, 36
1, 176640, Note_on_c, 0, 71, 48
1, 176647, Control_c, 0, 64, 106
1, 176661, Control_c, 0, 64, 100
1, 176676, Control_c, 0, 64, 93
1, 176691, Control_c, 0, 64, 87
1, 176706, Control_c, 0, 64, 79
1, 176721, Control_c, 0, 64, 73
1, 176736, Control_c, 0, 64, 67
1, 176750, Control_c, 0, 64, 65
1, 176765, Control_c, 0, 64, 64
1, 176777, Note_on_c, 0, 70, 50
1, 176780, Control_c, 0, 64, 65
1, 176780, Control_c, 0, 67, 104
1, 176786, Note_on_c, 0, 65, 46
1, 176795, Control_c, 0, 64, 67
1, 176810, Note_off_c, 0, 61, 30
1, 176810, Control_c, 0, 64, 69
1, 176825, Control_c, 0, 64, 72
1, 176828, Note_off_c, 0, 68, 50
1, 176840, Control_c, 0, 64, 77
1, 176844, Note_off_c, 0, 70, 57
1, 176855, Control_c, 0, 64, 84
1, 176865, Note_off_c, 0, 65, 57
1, 176869, Control_c, 0, 64, 91
1, 176884, Control_c, 0, 64, 96
1, 176884, Control_c, 0, 67, 104
1, 176899, Control_c, 0, 64, 100
1, 176899, Control_c, 0, 67, 103
1, 176913, Control_c, 0, 64, 103
1, 176928, Control_c, 0, 64, 104
1, 176928, Control_c, 0, 67, 103
1, 176943, Control_c, 0, 64, 106
1, 176953, Note_on_c, 0, 70, 54
1, 176958, Control_c, 0, 64, 108
1, 176961, Note_off_c, 0, 71, 54
1, 176962, Note_on_c, 0, 65, 30
1, 176963, Note_on_c, 0, 77, 54
1, 176973, Control_c, 0, 64, 111
1, 176977, Note_on_c, 0, 73, 54
1, 176987, Control_c, 0, 64, 113
1, 177002, Control_c, 0, 64, 114
1, 177015, Note_off_c, 0, 75, 56
1, 177017, Control_c, 0, 64, 114
1, 177045, Note_off_c, 0, 77, 39
1, 177063, Note_off_c, 0, 73, 43
1, 177099, Control_c, 0, 67, 102
1, 177109, Note_on_c, 0, 68, 51
1, 177126, Note_on_c, 0, 61, 39
1, 177151, Note_off_c, 0, 70, 43
1, 177159, Note_off_c, 0, 61, 52
1, 177160, Note_off_c, 0, 65, 42
1, 177174, Control_c, 0, 64, 114
1, 177188, Control_c, 0, 64, 112
1, 177197, Note_off_c, 0, 68, 36
1, 177203, Control_c, 0, 64, 110
1, 177218, Control_c, 0, 64, 108
1, 177233, Control_c, 0, 64, 106
1, 177248, Control_c, 0, 64, 103
1, 177263, Control_c, 0, 64, 102
1, 177278, Control_c, 0, 64, 100
1, 177293, Control_c, 0, 64, 98
1, 177301, Note_on_c, 0, 66, 51
1, 177302, Note_on_c, 0, 73, 55
1, 177308, Control_c, 0, 64, 96
1, 177312, Note_on_c, 0, 59, 23
1, 177312, Note_on_c, 0, 69, 42
1, 177323, Control_c, 0, 64, 94
1, 177337, Control_c, 0, 64, 92
1, 177352, Control_c, 0, 64, 87
1, 177367, Control_c, 0, 64, 80
1, 177382, Control_c, 0, 64, 73
1, 177393, Note_off_c, 0, 59, 0
1, 177397, Control_c, 0, 64, 67
1, 177411, Control_c, 0, 64, 64
1, 177426, Control_c, 0, 64, 63
1, 177430, Poly_aftertouch_c, 0, 59, 127
1, 177441, Control_c, 0, 64, 59
1, 177456, Control_c, 0, 64, 54
1, 177471, Control_c, 0, 64, 50
1, 177471, Control_c, 0, 67, 102
1, 177486, Control_c, 0, 64, 51
1, 177491, Note_on_c, 0, 68, 50
1, 177495, Note_on_c, 0, 63, 45
1, 177501, Control_c, 0, 64, 60
1, 177516, Control_c, 0, 64, 64
1, 177516, Control_c, 0, 67, 101
1, 177531, Control_c, 0, 64, 67
1, 177545, Control_c, 0, 64, 70
1, 177552, Note_off_c, 0, 66, 50
1, 177560, Control_c, 0, 64, 76
1, 177562, Poly_aftertouch_c, 0, 59, 0
1, 177574, Note_off_c, 0, 68, 51
1, 177575, Control_c, 0, 64, 82
1, 177590, Control_c, 0, 64, 88
1, 177604, Note_off_c, 0, 63, 35
1, 177605, Control_c, 0, 64, 91
1, 177619, Control_c, 0, 64, 92
1, 177634, Control_c, 0, 64, 92
1, 177649, Control_c, 0, 64, 94
1, 177664, Control_c, 0, 64, 95
1, 177679, Control_c, 0, 64, 95
1, 177679, Control_c, 0, 67, 101
1, 177703, Note_on_c, 0, 68, 48
1, 177715, Note_on_c, 0, 63, 26
1, 177716, Note_on_c, 0, 71, 50
1, 177725, Note_on_c, 0, 75, 44
1, 177785, Note_off_c, 0, 69, 36
1, 177790, Note_off_c, 0, 75, 60
1, 177808, Note_off_c, 0, 73, 35
1, 177823, Note_off_c, 0, 71, 58
1, 177879, Control_c, 0, 64, 94
1, 177879, Control_c, 0, 67, 100
1, 177893, Control_c, 0, 64, 93
1, 177908, Control_c, 0, 64, 93
1, 177908, Control_c, 0, 67, 100
1, 177954, Control_c, 0, 64, 92
1, 177968, Control_c, 0, 64, 92
1, 177977, Note_on_c, 0, 66, 51
1, 177982, Control_c, 0, 64, 91
1, 177989, Note_on_c, 0, 59, 34
1, 177997, Control_c, 0, 64, 91
1, 178021, Note_off_c, 0, 68, 53
1, 178026, Note_off_c, 0, 59, 51
1, 178027, Control_c, 0, 67, 99
1, 178032, Note_off_c, 0, 63, 24
1, 178056, Control_c, 0, 64, 90
1, 178062, Note_off_c, 0, 66, 55
1, 178071, Control_c, 0, 64, 90
1, 178086, Control_c, 0, 67, 100
1, 178160, Control_c, 0, 64, 89
1, 178220, Control_c, 0, 64, 89
1, 178234, Control_c, 0, 64, 88
1, 178249, Control_c, 0, 64, 87
1, 178264, Control_c, 0, 64, 86
1, 178279, Control_c, 0, 64, 85
1, 178294, Control_c, 0, 64, 83
1, 178308, Control_c, 0, 64, 81
1, 178323, Control_c, 0, 64, 80
1, 178338, Control_c, 0, 64, 78
1, 178339, Note_on_c, 0, 73, 72
1, 178353, Control_c, 0, 64, 75
1, 178362, Note_on_c, 0, 47, 37
1, 178362, Note_on_c, 0, 66, 43
1, 178367, Note_on_c, 0, 54, 39
1, 178367, Control_c, 0, 64, 72
1, 178369, Note_on_c, 0, 57, 35
1, 178382, Control_c, 0, 64, 68
1, 178389, Note_on_c, 0, 61, 32
1, 178397, Control_c, 0, 64, 64
1, 178412, Control_c, 0, 64, 61
1, 178427, Control_c, 0, 64, 57
1, 178441, Control_c, 0, 64, 56
1, 178456, Control_c, 0, 64, 57
1, 178471, Control_c, 0, 64, 61
1, 178486, Control_c, 0, 64, 64
1, 178501, Control_c, 0, 64, 67
1, 178507, Note_off_c, 0, 61, 54
1, 178515, Control_c, 0, 64, 71
1, 178530, Control_c, 0, 64, 77
1, 178545, Control_c, 0, 64, 83
1, 178560, Control_c, 0, 64, 91
1, 178575, Control_c, 0, 64, 100
1, 178575, Control_c, 0, 67, 100
1, 178591, Note_off_c, 0, 57, 60
1, 178597, Control_c, 0, 64, 109
1, 178597, Control_c, 0, 67, 101
1, 178609, Note_off_c, 0, 47, 40
1, 178612, Control_c, 0, 64, 127
1, 178612, Control_c, 0, 67, 102
1, 178618, Note_off_c, 0, 54, 54
1, 178627, Control_c, 0, 67, 102
1, 178640, Note_on_c, 0, 63, 49
1, 178641, Control_c, 0, 67, 103
1, 178643, Note_on_c, 0, 68, 53
1, 178656, Control_c, 0, 67, 103
1, 178671, Control_c, 0, 67, 104
1, 178676, Note_off_c, 0, 73, 60
1, 178686, Control_c, 0, 67, 104
1, 178694, Note_off_c, 0, 63, 52
1, 178694, Note_off_c, 0, 66, 56
1, 178717, Control_c, 0, 67, 105
1, 178726, Note_off_c, 0, 68, 53
1, 178746, Control_c, 0, 67, 105
1, 178833, Note_on_c, 0, 75, 78
1, 178844, Note_on_c, 0, 63, 51
1, 178850, Note_on_c, 0, 68, 62
1, 178855, Note_on_c, 0, 59, 48
1, 178862, Note_on_c, 0, 52, 53
1, 178864, Control_c, 0, 67, 105
1, 178906, Note_off_c, 0, 63, 58
1, 178909, Control_c, 0, 67, 104
1, 178923, Note_off_c, 0, 59, 47
1, 178924, Control_c, 0, 67, 104
1, 178961, Note_off_c, 0, 75, 60
1, 178962, Note_off_c, 0, 52, 61
1, 178983, Control_c, 0, 67, 103
1, 179016, Note_on_c, 0, 66, 65
1, 179028, Control_c, 0, 67, 102
1, 179044, Note_on_c, 0, 61, 56
1, 179057, Control_c, 0, 67, 102
1, 179072, Control_c, 0, 67, 101
1, 179072, Note_off_c, 0, 61, 64
1, 179074, Note_off_c, 0, 68, 59
1, 179087, Control_c, 0, 67, 101
1, 179091, Note_off_c, 0, 66, 59
1, 179117, Control_c, 0, 67, 100
1, 179146, Control_c, 0, 67, 100
1, 179161, Control_c, 0, 64, 115
1, 179176, Control_c, 0, 64, 104
1, 179190, Control_c, 0, 64, 94
1, 179190, Control_c, 0, 67, 99
1, 179192, Note_on_c, 0, 71, 76
1, 179205, Control_c, 0, 64, 84
1, 179215, Note_on_c, 0, 45, 46
1, 179217, Note_on_c, 0, 55, 46
1, 179220, Note_on_c, 0, 64, 61
1, 179220, Control_c, 0, 64, 74
1, 179228, Note_on_c, 0, 59, 37
1, 179233, Note_on_c, 0, 52, 36
1, 179235, Control_c, 0, 64, 67
1, 179250, Control_c, 0, 64, 65
1, 179258, Note_off_c, 0, 59, 53
1, 179264, Control_c, 0, 64, 64
1, 179264, Control_c, 0, 67, 99
1, 179294, Control_c, 0, 64, 65
1, 179308, Control_c, 0, 64, 68
1, 179323, Control_c, 0, 64, 71
1, 179323, Control_c, 0, 67, 99
1, 179342, Note_off_c, 0, 71, 64
1, 179343, Note_off_c, 0, 45, 63
1, 179346, Control_c, 0, 64, 75
1, 179359, Note_off_c, 0, 55, 63
1, 179361, Control_c, 0, 64, 80
1, 179361, Control_c, 0, 67, 100
1, 179367, Note_off_c, 0, 52, 56
1, 179376, Control_c, 0, 64, 87
1, 179390, Note_on_c, 0, 66, 61
1, 179390, Control_c, 0, 64, 93
1, 179392, Note_on_c, 0, 61, 53
1, 179405, Control_c, 0, 64, 99
1, 179405, Control_c, 0, 67, 100
1, 179418, Note_off_c, 0, 64, 62
1, 179420, Control_c, 0, 64, 103
1, 179422, Note_off_c, 0, 61, 56
1, 179434, Note_off_c, 0, 66, 60
1, 179435, Control_c, 0, 64, 107
1, 179450, Control_c, 0, 64, 109
1, 179464, Control_c, 0, 64, 110
1, 179540, Control_c, 0, 64, 109
1, 179569, Control_c, 0, 64, 106
1, 179569, Control_c, 0, 67, 101
1, 179584, Control_c, 0, 64, 103
1, 179599, Control_c, 0, 64, 99
1, 179605, Note_on_c, 0, 78, 72
1, 179613, Control_c, 0, 64, 95
1, 179624, Note_on_c, 0, 50, 45
1, 179628, Control_c, 0, 64, 89
1, 179640, Note_on_c, 0, 57, 37
1, 179643, Control_c, 0, 64, 84
1, 179646, Note_on_c, 0, 61, 20
1, 179658, Control_c, 0, 64, 79
1, 179673, Control_c, 0, 64, 74
1, 179688, Control_c, 0, 64, 68
1, 179702, Control_c, 0, 64, 64
1, 179702, Control_c, 0, 67, 100
1, 179717, Control_c, 0, 64, 63
1, 179717, Control_c, 0, 67, 100
1, 179732, Control_c, 0, 64, 63
1, 179746, Control_c, 0, 64, 65
1, 179761, Control_c, 0, 64, 68
1, 179776, Control_c, 0, 64, 71
1, 179791, Control_c, 0, 64, 77
1, 179806, Control_c, 0, 64, 84
1, 179810, Note_off_c, 0, 57, 61
1, 179821, Control_c, 0, 64, 92
1, 179823, Note_on_c, 0, 74, 71
1, 179824, Note_off_c, 0, 61, 49
1, 179835, Control_c, 0, 64, 97
1, 179835, Control_c, 0, 67, 99
1, 179836, Note_on_c, 0, 69, 57
1, 179841, Note_off_c, 0, 50, 64
1, 179845, Note_off_c, 0, 78, 58
1, 179850, Control_c, 0, 64, 102
1, 179850, Control_c, 0, 67, 99
1, 179865, Control_c, 0, 64, 104
1, 179877, Note_off_c, 0, 69, 60
1, 179880, Control_c, 0, 64, 104
1, 179892, Note_off_c, 0, 74, 57
1, 179895, Control_c, 0, 67, 98
1, 179925, Control_c, 0, 67, 98
1, 179939, Control_c, 0, 67, 97
1, 179999, Control_c, 0, 64, 103
1, 180008, Note_on_c, 0, 73, 78
1, 180013, Control_c, 0, 64, 100
1, 180013, Control_c, 0, 67, 97
1, 180028, Control_c, 0, 64, 94
1, 180038, Note_on_c, 0, 66, 51
1, 180043, Control_c, 0, 64, 85
1, 180052, Note_on_c, 0, 61, 37
1, 180058, Control_c, 0, 64, 76
1, 180061, Note_on_c, 0, 47, 38
1, 180073, Control_c, 0, 64, 69
1, 180077, Note_on_c, 0, 54, 28
1, 180077, Note_on_c, 0, 57, 29
1, 180095, Control_c, 0, 64, 65
1, 180110, Control_c, 0, 64, 65
1, 180119, Note_off_c, 0, 61, 60
1, 180125, Control_c, 0, 64, 65
1, 180139, Control_c, 0, 64, 66
1, 180154, Control_c, 0, 64, 69
1, 180169, Control_c, 0, 64, 72
1, 180184, Control_c, 0, 64, 77
1, 180195, Note_off_c, 0, 47, 58
1, 180199, Note_off_c, 0, 57, 61
1, 180199, Control_c, 0, 64, 84
1, 180213, Note_on_c, 0, 68, 68
1, 180213, Control_c, 0, 64, 93
1, 180223, Note_off_c, 0, 54, 56
1, 180226, Note_on_c, 0, 63, 53
1, 180227, Control_c, 0, 64, 103
1, 180227, Control_c, 0, 67, 97
1, 180242, Control_c, 0, 64, 118
1, 180257, Control_c, 0, 64, 127
1, 180257, Control_c, 0, 67, 98
1, 180265, Note_off_c, 0, 66, 58
1, 180265, Note_off_c, 0, 73, 61
1, 180271, Note_off_c, 0, 63, 54
1, 180272, Control_c, 0, 67, 98
1, 180298, Note_off_c, 0, 68, 54
1, 180317, Control_c, 0, 67, 99
1, 180347, Control_c, 0, 67, 99
1, 180361, Control_c, 0, 67, 100
1, 180391, Control_c, 0, 67, 100
1, 180393, Note_on_c, 0, 75, 74
1, 180404, Note_on_c, 0, 63, 46
1, 180404, Note_on_c, 0, 68, 61
1, 180406, Control_c, 0, 64, 114
1, 180421, Control_c, 0, 64, 102
1, 180431, Note_on_c, 0, 59, 44
1, 180435, Control_c, 0, 64, 92
1, 180438, Note_on_c, 0, 52, 45
1, 180450, Control_c, 0, 64, 83
1, 180465, Control_c, 0, 64, 74
1, 180480, Control_c, 0, 64, 68
1, 180495, Control_c, 0, 64, 66
1, 180500, Note_off_c, 0, 75, 58
1, 180504, Note_off_c, 0, 63, 58
1, 180509, Control_c, 0, 64, 66
1, 180524, Control_c, 0, 64, 68
1, 180530, Note_off_c, 0, 59, 58
1, 180539, Control_c, 0, 64, 72
1, 180539, Control_c, 0, 67, 100
1, 180554, Control_c, 0, 64, 78
1, 180564, Note_off_c, 0, 52, 63
1, 180569, Control_c, 0, 64, 85
1, 180569, Control_c, 0, 67, 99
1, 180569, Note_on_c, 0, 66, 62
1, 180584, Control_c, 0, 64, 93
1, 180584, Control_c, 0, 67, 99
1, 180599, Control_c, 0, 64, 98
1, 180611, Note_on_c, 0, 61, 43
1, 180614, Control_c, 0, 64, 101
1, 180614, Control_c, 0, 67, 98
1, 180628, Control_c, 0, 64, 102
1, 180629, Note_off_c, 0, 68, 60
1, 180639, Note_off_c, 0, 66, 60
1, 180642, Note_off_c, 0, 61, 52
1, 180643, Control_c, 0, 67, 98
1, 180658, Control_c, 0, 67, 97
1, 180732, Control_c, 0, 64, 100
1, 180747, Control_c, 0, 64, 96
1, 180751, Note_on_c, 0, 71, 71
1, 180761, Control_c, 0, 64, 87
1, 180776, Control_c, 0, 64, 79
1, 180783, Note_on_c, 0, 64, 58
1, 180785, Note_on_c, 0, 45, 42
1, 180791, Control_c, 0, 64, 71
1, 180798, Note_on_c, 0, 55, 35
1, 180801, Note_on_c, 0, 52, 28
1, 180806, Control_c, 0, 64, 65
1, 180821, Control_c, 0, 64, 62
1, 180843, Control_c, 0, 64, 59
1, 180858, Control_c, 0, 64, 58
1, 180858, Control_c, 0, 67, 98
1, 180873, Control_c, 0, 64, 61
1, 180887, Control_c, 0, 64, 64
1, 180902, Control_c, 0, 64, 68
1, 180910, Note_off_c, 0, 71, 63
1, 180917, Control_c, 0, 64, 73
1, 180917, Control_c, 0, 67, 97
1, 180920, Note_off_c, 0, 45, 58
1, 180932, Control_c, 0, 64, 79
1, 180938, Note_off_c, 0, 55, 54
1, 180945, Note_on_c, 0, 66, 62
1, 180947, Control_c, 0, 64, 87
1, 180949, Note_off_c, 0, 52, 55
1, 180954, Note_on_c, 0, 61, 44
1, 180961, Control_c, 0, 64, 96
1, 180961, Control_c, 0, 67, 98
1, 180974, Note_off_c, 0, 64, 64
1, 180976, Control_c, 0, 64, 103
1, 180985, Note_off_c, 0, 61, 57
1, 180991, Control_c, 0, 64, 109
1, 181003, Note_off_c, 0, 66, 62
1, 181006, Control_c, 0, 64, 113
1, 181021, Control_c, 0, 64, 118
1, 181035, Control_c, 0, 64, 120
1, 181079, Control_c, 0, 67, 98
1, 181111, Control_c, 0, 64, 119
1, 181140, Control_c, 0, 64, 117
1, 181155, Control_c, 0, 64, 111
1, 181161, Note_on_c, 0, 78, 63
1, 181170, Control_c, 0, 64, 106
1, 181184, Control_c, 0, 64, 101
1, 181193, Note_on_c, 0, 73, 54
1, 181199, Note_on_c, 0, 50, 38
1, 181199, Control_c, 0, 64, 95
1, 181203, Note_on_c, 0, 57, 34
1, 181207, Note_on_c, 0, 61, 26
1, 181214, Control_c, 0, 64, 88
1, 181228, Poly_aftertouch_c, 0, 66, 127
1, 181229, Control_c, 0, 64, 80
1, 181244, Control_c, 0, 64, 71
1, 181258, Control_c, 0, 64, 66
1, 181273, Control_c, 0, 64, 64
1, 181288, Control_c, 0, 64, 63
1, 181318, Control_c, 0, 64, 64
1, 181332, Control_c, 0, 64, 66
1, 181347, Control_c, 0, 64, 70
1, 181347, Control_c, 0, 67, 98
1, 181359, Note_off_c, 0, 57, 60
1, 181362, Control_c, 0, 64, 75
1, 181366, Note_off_c, 0, 61, 52
1, 181368, Note_on_c, 0, 74, 71
1, 181377, Control_c, 0, 64, 82
1, 181379, Note_on_c, 0, 69, 62
1, 181392, Control_c, 0, 64, 91
1, 181392, Note_off_c, 0, 78, 60
1, 181395, Note_off_c, 0, 50, 64
1, 181406, Control_c, 0, 64, 100
1, 181412, Poly_aftertouch_c, 0, 66, 0
1, 181421, Control_c, 0, 64, 107
1, 181436, Note_off_c, 0, 69, 61
1, 181436, Note_off_c, 0, 74, 63
1, 181436, Control_c, 0, 64, 111
1, 181443, Note_off_c, 0, 73, 40
1, 181451, Control_c, 0, 64, 113
1, 181451, Control_c, 0, 67, 97
1, 181466, Control_c, 0, 64, 113
1, 181540, Control_c, 0, 67, 97
1, 181555, Control_c, 0, 64, 113
1, 181570, Control_c, 0, 64, 112
1, 181573, Note_on_c, 0, 73, 74
1, 181591, Control_c, 0, 64, 109
1, 181606, Control_c, 0, 64, 105
1, 181616, Note_on_c, 0, 47, 46
1, 181618, Note_on_c, 0, 66, 45
1, 181621, Control_c, 0, 64, 98
1, 181624, Note_on_c, 0, 61, 40
1, 181630, Note_on_c, 0, 57, 35
1, 181631, Note_on_c, 0, 54, 38
1, 181636, Control_c, 0, 64, 91
1, 181651, Control_c, 0, 64, 83
1, 181666, Control_c, 0, 64, 76
1, 181681, Control_c, 0, 64, 69
1, 181686, Note_off_c, 0, 61, 58
1, 181696, Control_c, 0, 64, 66
1, 181725, Control_c, 0, 64, 67
1, 181740, Control_c, 0, 64, 70
1, 181755, Control_c, 0, 64, 74
1, 181770, Control_c, 0, 64, 79
1, 181770, Control_c, 0, 67, 97
1, 181775, Note_off_c, 0, 47, 62
1, 181784, Control_c, 0, 64, 87
1, 181795, Note_off_c, 0, 57, 60
1, 181799, Control_c, 0, 64, 95
1, 181799, Control_c, 0, 67, 98
1, 181814, Control_c, 0, 64, 105
1, 181819, Note_off_c, 0, 54, 64
1, 181825, Note_on_c, 0, 68, 64
1, 181827, Note_on_c, 0, 63, 56
1, 181829, Control_c, 0, 64, 118
1, 181844, Control_c, 0, 64, 127
1, 181858, Control_c, 0, 67, 98
1, 181866, Note_off_c, 0, 66, 57
1, 181888, Control_c, 0, 67, 99
1, 181890, Note_off_c, 0, 73, 60
1, 181904, Note_off_c, 0, 63, 52
1, 181923, Note_off_c, 0, 68, 55
1, 181934, Control_c, 0, 67, 100
1, 181963, Control_c, 0, 67, 100
1, 181993, Control_c, 0, 67, 101
1, 182007, Control_c, 0, 67, 101
1, 182022, Control_c, 0, 67, 102
1, 182037, Control_c, 0, 67, 103
1, 182047, Note_on_c, 0, 75, 66
1, 182047, Note_on_c, 0, 63, 44
1, 182056, Note_on_c, 0, 68, 60
1, 182067, Control_c, 0, 64, 107
1, 182067, Control_c, 0, 67, 104
1, 182073, Note_on_c, 0, 59, 46
1, 182079, Note_on_c, 0, 52, 44
1, 182081, Control_c, 0, 64, 94
1, 182096, Control_c, 0, 64, 82
1, 182111, Control_c, 0, 64, 73
1, 182125, Control_c, 0, 64, 67
1, 182140, Control_c, 0, 64, 64
1, 182170, Control_c, 0, 64, 66
1, 182185, Control_c, 0, 64, 69
1, 182185, Control_c, 0, 67, 104
1, 182190, Note_off_c, 0, 75, 54
1, 182199, Note_off_c, 0, 63, 59
1, 182200, Control_c, 0, 64, 74
1, 182214, Control_c, 0, 64, 80
1, 182224, Note_off_c, 0, 59, 58
1, 182229, Control_c, 0, 64, 89
1, 182244, Control_c, 0, 64, 99
1, 182259, Control_c, 0, 64, 109
1, 182259, Control_c, 0, 67, 104
1, 182260, Note_off_c, 0, 52, 62
1, 182270, Note_on_c, 0, 66, 63
1, 182274, Control_c, 0, 64, 118
1, 182289, Control_c, 0, 64, 127
1, 182289, Control_c, 0, 67, 103
1, 182292, Note_on_c, 0, 61, 51
1, 182304, Control_c, 0, 67, 102
1, 182319, Control_c, 0, 67, 102
1, 182324, Note_off_c, 0, 61, 64
1, 182334, Note_off_c, 0, 68, 60
1, 182340, Control_c, 0, 67, 101
1, 182345, Note_off_c, 0, 66, 59
1, 182355, Control_c, 0, 67, 101
1, 182370, Control_c, 0, 67, 100
1, 182400, Control_c, 0, 67, 100
1, 182459, Control_c, 0, 64, 112
1, 182465, Note_on_c, 0, 71, 71
1, 182474, Control_c, 0, 64, 97
1, 182480, Note_on_c, 0, 45, 48
1, 182488, Control_c, 0, 64, 87
1, 182492, Note_on_c, 0, 64, 59
1, 182494, Note_on_c, 0, 59, 33
1, 182503, Control_c, 0, 64, 77
1, 182505, Note_on_c, 0, 55, 34
1, 182518, Note_on_c, 0, 52, 36
1, 182518, Control_c, 0, 64, 69
1, 182527, Note_off_c, 0, 59, 49
1, 182533, Control_c, 0, 64, 65
1, 182548, Control_c, 0, 64, 66
1, 182563, Control_c, 0, 64, 67
1, 182578, Control_c, 0, 64, 71
1, 182593, Control_c, 0, 64, 74
1, 182593, Control_c, 0, 67, 100
1, 182607, Control_c, 0, 64, 78
1, 182622, Control_c, 0, 64, 83
1, 182629, Note_off_c, 0, 45, 63
1, 182632, Note_off_c, 0, 71, 60
1, 182637, Control_c, 0, 64, 89
1, 182652, Control_c, 0, 64, 96
1, 182655, Note_off_c, 0, 55, 57
1, 182657, Note_on_c, 0, 66, 68
1, 182659, Note_off_c, 0, 52, 54
1, 182664, Note_on_c, 0, 61, 59
1, 182667, Control_c, 0, 64, 104
1, 182681, Control_c, 0, 64, 111
1, 182694, Note_off_c, 0, 64, 62
1, 182696, Control_c, 0, 64, 119
1, 182706, Note_off_c, 0, 61, 55
1, 182712, Control_c, 0, 64, 127
1, 182723, Note_off_c, 0, 66, 60
1, 182727, Control_c, 0, 67, 101
1, 182756, Control_c, 0, 67, 101
1, 182801, Control_c, 0, 67, 102
1, 182830, Control_c, 0, 64, 123
1, 182830, Control_c, 0, 67, 102
1, 182845, Control_c, 0, 64, 114
1, 182860, Control_c, 0, 64, 107
1, 182860, Control_c, 0, 67, 103
1, 182875, Control_c, 0, 64, 99
1, 182876, Note_on_c, 0, 73, 65
1, 182890, Control_c, 0, 64, 92
1, 182890, Control_c, 0, 67, 103
1, 182896, Note_on_c, 0, 66, 45
1, 182899, Note_on_c, 0, 50, 43
1, 182904, Control_c, 0, 64, 85
1, 182904, Control_c, 0, 67, 104
1, 182912, Note_on_c, 0, 61, 36
1, 182913, Note_on_c, 0, 57, 39
1, 182919, Control_c, 0, 64, 78
1, 182934, Control_c, 0, 64, 70
1, 182948, Control_c, 0, 64, 64
1, 182963, Control_c, 0, 64, 63
1, 182963, Control_c, 0, 67, 104
1, 182978, Control_c, 0, 64, 63
1, 182978, Control_c, 0, 67, 105
1, 182993, Control_c, 0, 64, 66
1, 182993, Control_c, 0, 67, 105
1, 183008, Control_c, 0, 64, 68
1, 183008, Control_c, 0, 67, 106
1, 183019, Note_off_c, 0, 73, 59
1, 183023, Control_c, 0, 64, 70
1, 183038, Control_c, 0, 64, 73
1, 183038, Control_c, 0, 67, 106
1, 183053, Control_c, 0, 64, 78
1, 183060, Note_off_c, 0, 61, 55
1, 183063, Note_off_c, 0, 57, 60
1, 183068, Control_c, 0, 64, 84
1, 183091, Control_c, 0, 64, 91
1, 183105, Note_off_c, 0, 50, 65
1, 183106, Control_c, 0, 64, 97
1, 183117, Note_on_c, 0, 64, 52
1, 183120, Control_c, 0, 64, 101
1, 183135, Control_c, 0, 64, 104
1, 183144, Note_on_c, 0, 59, 49
1, 183150, Control_c, 0, 64, 108
1, 183162, Note_off_c, 0, 64, 59
1, 183162, Note_off_c, 0, 66, 55
1, 183164, Control_c, 0, 64, 112
1, 183179, Control_c, 0, 64, 116
1, 183179, Control_c, 0, 67, 106
1, 183185, Note_off_c, 0, 59, 58
1, 183209, Control_c, 0, 67, 105
1, 183238, Control_c, 0, 67, 105
1, 183282, Control_c, 0, 64, 114
1, 183297, Control_c, 0, 64, 110
1, 183312, Control_c, 0, 64, 106
1, 183327, Control_c, 0, 64, 102
1, 183342, Control_c, 0, 64, 98
1, 183351, Note_on_c, 0, 69, 53
1, 183356, Control_c, 0, 64, 93
1, 183371, Note_on_c, 0, 62, 36
1, 183371, Control_c, 0, 64, 87
1, 183384, Note_on_c, 0, 43, 40
1, 183386, Control_c, 0, 64, 80
1, 183389, Note_on_c, 0, 57, 35
1, 183401, Control_c, 0, 64, 73
1, 183403, Note_on_c, 0, 53, 28
1, 183415, Note_on_c, 0, 50, 20
1, 183416, Control_c, 0, 64, 68
1, 183430, Control_c, 0, 64, 65
1, 183445, Control_c, 0, 64, 63
1, 183460, Control_c, 0, 64, 61
1, 183475, Control_c, 0, 64, 59
1, 183490, Control_c, 0, 64, 57
1, 183490, Control_c, 0, 67, 104
1, 183506, Control_c, 0, 64, 56
1, 183518, Note_off_c, 0, 57, 48
1, 183521, Control_c, 0, 64, 60
1, 183535, Control_c, 0, 64, 64
1, 183535, Control_c, 0, 67, 104
1, 183550, Control_c, 0, 64, 66
1, 183565, Control_c, 0, 64, 69
1, 183580, Control_c, 0, 64, 72
1, 183594, Control_c, 0, 64, 77
1, 183599, Note_off_c, 0, 43, 52
1, 183609, Control_c, 0, 64, 83
1, 183609, Control_c, 0, 67, 103
1, 183624, Control_c, 0, 64, 91
1, 183624, Control_c, 0, 67, 103
1, 183630, Note_off_c, 0, 50, 55
1, 183635, Note_on_c, 0, 64, 44
1, 183639, Control_c, 0, 64, 96
1, 183645, Note_on_c, 0, 59, 42
1, 183647, Note_off_c, 0, 53, 41
1, 183654, Control_c, 0, 64, 99
1, 183669, Control_c, 0, 64, 102
1, 183670, Note_off_c, 0, 62, 39
1, 183684, Control_c, 0, 64, 105
1, 183684, Control_c, 0, 67, 102
1, 183693, Note_off_c, 0, 69, 33
1, 183699, Control_c, 0, 64, 107
1, 183699, Control_c, 0, 67, 102
1, 183699, Note_off_c, 0, 64, 52
1, 183706, Note_off_c, 0, 59, 42
1, 183714, Control_c, 0, 64, 108
1, 183728, Control_c, 0, 64, 109
1, 183772, Control_c, 0, 64, 108
1, 183787, Control_c, 0, 67, 101
1, 183869, Control_c, 0, 64, 108
1, 183884, Control_c, 0, 64, 106
1, 183898, Control_c, 0, 64, 104
1, 183913, Control_c, 0, 64, 104
1, 183928, Control_c, 0, 64, 103
1, 183943, Control_c, 0, 64, 102
1, 183958, Control_c, 0, 64, 100
1, 183970, Note_on_c, 0, 64, 41
1, 183973, Control_c, 0, 64, 98
1, 183979, Note_on_c, 0, 71, 36
1, 183987, Control_c, 0, 64, 96
1, 184000, Note_on_c, 0, 48, 38
1, 184001, Note_on_c, 0, 55, 31
1, 184002, Control_c, 0, 64, 94
1, 184003, Note_on_c, 0, 59, 24
1, 184017, Control_c, 0, 64, 93
1, 184032, Control_c, 0, 64, 90
1, 184047, Control_c, 0, 64, 86
1, 184061, Control_c, 0, 64, 81
1, 184076, Control_c, 0, 64, 78
1, 184091, Control_c, 0, 64, 75
1, 184105, Control_c, 0, 64, 71
1, 184120, Control_c, 0, 64, 67
1, 184135, Control_c, 0, 64, 65
1, 184150, Control_c, 0, 64, 63
1, 184165, Control_c, 0, 64, 62
1, 184179, Control_c, 0, 64, 60
1, 184194, Control_c, 0, 64, 55
1, 184209, Control_c, 0, 64, 47
1, 184224, Control_c, 0, 64, 47
1, 184239, Control_c, 0, 64, 49
1, 184253, Control_c, 0, 64, 55
1, 184268, Control_c, 0, 64, 60
1, 184283, Control_c, 0, 64, 64
1, 184298, Control_c, 0, 64, 66
1, 184314, Control_c, 0, 64, 69
1, 184328, Control_c, 0, 64, 72
1, 184343, Control_c, 0, 64, 75
1, 184358, Control_c, 0, 64, 77
1, 184358, Control_c, 0, 67, 101
1, 184373, Control_c, 0, 64, 80
1, 184388, Control_c, 0, 64, 81
1, 184402, Control_c, 0, 64, 82
1, 184417, Control_c, 0, 64, 83
1, 184432, Control_c, 0, 64, 84
1, 184445, Note_on_c, 0, 60, 58
1, 184447, Control_c, 0, 64, 85
1, 184479, Note_off_c, 0, 59, 41
1, 184496, Note_off_c, 0, 71, 40
1, 184507, Control_c, 0, 64, 85
1, 184554, Note_off_c, 0, 64, 48
1, 184588, Control_c, 0, 64, 85
1, 184595, Note_off_c, 0, 55, 41
1, 184617, Control_c, 0, 64, 84
1, 184626, Note_off_c, 0, 48, 41
1, 184662, Control_c, 0, 64, 84
1, 184706, Control_c, 0, 64, 83
1, 184736, Control_c, 0, 64, 83
1, 184781, Control_c, 0, 64, 82
1, 184781, Control_c, 0, 67, 100
1, 184825, Control_c, 0, 64, 82
1, 184899, Control_c, 0, 67, 100
1, 185166, Control_c, 0, 64, 81
1, 185211, Control_c, 0, 64, 81
1, 185255, Control_c, 0, 64, 80
1, 185270, Control_c, 0, 64, 80
1, 185285, Control_c, 0, 64, 79
1, 185299, Control_c, 0, 64, 78
1, 185326, Note_on_c, 0, 49, 30
1, 185344, Note_on_c, 0, 68, 35
1, 185349, Note_on_c, 0, 64, 32
1, 185352, Note_on_c, 0, 58, 25
1, 185352, Control_c, 0, 64, 78
1, 185357, Note_on_c, 0, 42, 28
1, 185366, Control_c, 0, 64, 77
1, 185396, Control_c, 0, 64, 77
1, 185411, Control_c, 0, 64, 76
1, 185425, Control_c, 0, 64, 75
1, 185440, Control_c, 0, 64, 73
1, 185455, Control_c, 0, 64, 71
1, 185470, Control_c, 0, 64, 70
1, 185485, Control_c, 0, 64, 69
1, 185500, Control_c, 0, 64, 68
1, 185514, Control_c, 0, 64, 66
1, 185529, Control_c, 0, 64, 65
1, 185544, Control_c, 0, 64, 64
1, 185559, Control_c, 0, 64, 63
1, 185559, Control_c, 0, 67, 100
1, 185574, Control_c, 0, 64, 61
1, 185589, Control_c, 0, 64, 59
1, 185604, Control_c, 0, 64, 57
1, 185618, Control_c, 0, 64, 51
1, 185633, Control_c, 0, 64, 45
1, 185648, Control_c, 0, 64, 35
1, 185663, Control_c, 0, 64, 14
1, 185677, Control_c, 0, 64, 0
1, 185825, Control_c, 0, 64, 34
1, 185840, Control_c, 0, 64, 44
1, 185855, Control_c, 0, 64, 50
1, 185869, Control_c, 0, 64, 57
1, 185884, Control_c, 0, 64, 62
1, 185901, Control_c, 0, 64, 64
1, 185916, Control_c, 0, 64, 65
1, 185930, Control_c, 0, 64, 66
1, 185945, Control_c, 0, 64, 68
1, 185960, Control_c, 0, 64, 70
1, 185974, Control_c, 0, 64, 72
1, 185989, Control_c, 0, 64, 74
1, 186004, Control_c, 0, 64, 75
1, 186004, Control_c, 0, 67, 100
1, 186019, Control_c, 0, 64, 78
1, 186034, Control_c, 0, 64, 80
1, 186048, Control_c, 0, 64, 81
1, 186063, Control_c, 0, 64, 81
1, 186086, Control_c, 0, 64, 83
1, 186101, Control_c, 0, 64, 85
1, 186115, Control_c, 0, 64, 86
1, 186115, Control_c, 0, 67, 100
1, 186130, Control_c, 0, 64, 87
1, 186189, Control_c, 0, 64, 87
1, 186204, Control_c, 0, 64, 88
1, 186278, Control_c, 0, 64, 88
1, 186337, Control_c, 0, 64, 89
1, 186352, Control_c, 0, 67, 101
1, 186396, Control_c, 0, 64, 89
1, 186411, Control_c, 0, 67, 101
1, 186471, Control_c, 0, 67, 102
1, 186491, Note_off_c, 0, 68, 26
1, 186500, Control_c, 0, 67, 102
1, 186540, Note_off_c, 0, 58, 38
1, 186541, Note_off_c, 0, 64, 34
1, 186589, Control_c, 0, 67, 103
1, 186599, Note_off_c, 0, 49, 37
1, 186641, Note_off_c, 0, 42, 27
1, 186723, Control_c, 0, 67, 102
1, 186835, Control_c, 0, 64, 89
1, 186850, Control_c, 0, 64, 88
1, 186864, Control_c, 0, 64, 88
1, 186894, Control_c, 0, 64, 87
1, 186923, Control_c, 0, 64, 87
1, 186938, Control_c, 0, 64, 86
1, 186953, Control_c, 0, 64, 85
1, 186969, Control_c, 0, 64, 84
1, 186999, Control_c, 0, 64, 84
1, 186999, Control_c, 0, 67, 102
1, 187013, Control_c, 0, 64, 83
1, 187028, Control_c, 0, 64, 83
1, 187043, Control_c, 0, 64, 82
1, 187058, Control_c, 0, 64, 82
1, 187087, Control_c, 0, 64, 81
1, 187102, Control_c, 0, 64, 80
1, 187117, Control_c, 0, 64, 80
1, 187131, Control_c, 0, 64, 79
1, 187146, Control_c, 0, 64, 79
1, 187161, Control_c, 0, 64, 78
1, 187176, Control_c, 0, 64, 78
1, 187191, Control_c, 0, 64, 77
1, 187205, Control_c, 0, 64, 77
1, 187220, Control_c, 0, 64, 76
1, 187235, Control_c, 0, 64, 76
1, 187250, Control_c, 0, 64, 75
1, 187279, Control_c, 0, 64, 74
1, 187294, Control_c, 0, 64, 74
1, 187309, Control_c, 0, 64, 73
1, 187324, Control_c, 0, 64, 71
1, 187338, Control_c, 0, 64, 70
1, 187353, Control_c, 0, 64, 70
1, 187353, Control_c, 0, 67, 102
1, 187368, Control_c, 0, 64, 69
1, 187383, Control_c, 0, 64, 68
1, 187383, Control_c, 0, 67, 103
1, 187398, Control_c, 0, 64, 66
1, 187398, Control_c, 0, 67, 104
1, 187413, Control_c, 0, 64, 65
1, 187443, Control_c, 0, 67, 104
1, 187457, Control_c, 0, 67, 105
1, 187472, Control_c, 0, 64, 66
1, 187472, Control_c, 0, 67, 105
1, 187487, Control_c, 0, 64, 66
1, 187487, Control_c, 0, 67, 106
1, 187502, Control_c, 0, 64, 68
1, 187502, Control_c, 0, 67, 106
1, 187517, Control_c, 0, 64, 69
1, 187532, Control_c, 0, 64, 70
1, 187547, Control_c, 0, 64, 72
1, 187547, Control_c, 0, 67, 107
1, 187562, Control_c, 0, 64, 74
1, 187562, Control_c, 0, 67, 107
1, 187584, Control_c, 0, 64, 78
1, 187584, Control_c, 0, 67, 108
1, 187599, Control_c, 0, 64, 82
1, 187614, Control_c, 0, 64, 87
1, 187614, Control_c, 0, 67, 108
1, 187628, Control_c, 0, 64, 90
1, 187643, Control_c, 0, 64, 92
1, 187643, Control_c, 0, 67, 111
1, 187658, Control_c, 0, 64, 95
1, 187658, Control_c, 0, 67, 114
1, 187673, Control_c, 0, 64, 100
1, 187673, Control_c, 0, 67, 115
1, 187688, Control_c, 0, 64, 106
1, 187702, Control_c, 0, 64, 114
1, 187717, Control_c, 0, 64, 127
1, 187836, Note_on_c, 0, 35, 31
1, 187836, Note_off_c, 0, 60, 57
1, 187851, Control_c, 0, 67, 114
1, 187875, Note_on_c, 0, 57, 21
1, 187881, Note_on_c, 0, 59, 21
1, 187888, Note_on_c, 0, 47, 19
1, 187910, Control_c, 0, 67, 113
1, 187969, Control_c, 0, 67, 113
1, 188014, Control_c, 0, 67, 112
1, 188043, Control_c, 0, 67, 112
1, 188072, Note_off_c, 0, 35, 41
1, 188072, Control_c, 0, 67, 111
1, 188107, Note_off_c, 0, 47, 52
1, 188117, Control_c, 0, 67, 111
1, 188132, Note_off_c, 0, 57, 41
1, 188134, Note_on_c, 0, 64, 36
1, 188152, Note_off_c, 0, 59, 38
1, 188236, Control_c, 0, 67, 110
1, 188237, Note_on_c, 0, 66, 50
1, 188280, Note_off_c, 0, 64, 37
1, 188311, Control_c, 0, 67, 110
1, 188326, Note_off_c, 0, 66, 61
1, 188363, Control_c, 0, 67, 109
1, 188392, Control_c, 0, 67, 109
1, 188403, Note_on_c, 0, 61, 50
1, 188422, Control_c, 0, 67, 108
1, 188462, Poly_aftertouch_c, 0, 69, 127
1, 188465, Control_c, 0, 67, 108
1, 188495, Control_c, 0, 67, 107
1, 188507, Poly_aftertouch_c, 0, 71, 0
1, 188523, Note_on_c, 0, 76, 58
1, 188529, Poly_aftertouch_c, 0, 69, 0
1, 188572, Note_on_c, 0, 78, 55
1, 188604, Note_off_c, 0, 76, 60
1, 188621, Note_on_c, 0, 81, 48
1, 188629, Note_off_c, 0, 78, 60
1, 188635, Note_on_c, 0, 83, 42
1, 188642, Note_off_c, 0, 81, 62
1, 188644, Control_c, 0, 67, 108
1, 188653, Note_off_c, 0, 61, 59
1, 188657, Note_on_c, 0, 73, 56
1, 188658, Note_off_c, 0, 83, 60
1, 188687, Note_off_c, 0, 73, 64
1, 188688, Control_c, 0, 67, 109
1, 188732, Control_c, 0, 67, 110
1, 188776, Control_c, 0, 67, 110
1, 188791, Note_on_c, 0, 88, 61
1, 188819, Note_on_c, 0, 90, 62
1, 188836, Control_c, 0, 67, 111
1, 188843, Note_off_c, 0, 88, 46
1, 188868, Note_on_c, 0, 93, 41
1, 188884, Note_off_c, 0, 90, 63
1, 188894, Control_c, 0, 67, 111
1, 188897, Note_off_c, 0, 93, 54
1, 188933, Note_on_c, 0, 85, 67
1, 188936, Note_on_c, 0, 95, 32
1, 188941, Note_on_c, 0, 73, 58
1, 188961, Note_off_c, 0, 85, 66
1, 188968, Note_off_c, 0, 73, 66
1, 188985, Note_on_c, 0, 93, 52
1, 189005, Note_off_c, 0, 95, 55
1, 189014, Control_c, 0, 67, 111
1, 189020, Note_on_c, 0, 90, 53
1, 189028, Note_off_c, 0, 93, 45
1, 189048, Note_on_c, 0, 88, 60
1, 189070, Note_off_c, 0, 90, 54
1, 189091, Note_off_c, 0, 88, 62
1, 189132, Note_on_c, 0, 81, 33
1, 189170, Control_c, 0, 67, 110
1, 189173, Note_off_c, 0, 81, 44
1, 189191, Note_on_c, 0, 83, 23
1, 189199, Control_c, 0, 67, 110
1, 189224, Note_on_c, 0, 81, 23
1, 189227, Note_off_c, 0, 83, 49
1, 189244, Control_c, 0, 67, 109
1, 189251, Note_on_c, 0, 78, 54
1, 189263, Note_off_c, 0, 81, 50
1, 189280, Note_on_c, 0, 76, 65
1, 189287, Note_off_c, 0, 78, 53
1, 189303, Control_c, 0, 67, 109
1, 189359, Note_off_c, 0, 76, 55
1, 189368, Note_on_c, 0, 71, 37
1, 189371, Note_on_c, 0, 69, 45
1, 189396, Note_off_c, 0, 69, 57
1, 189402, Note_off_c, 0, 71, 55
1, 189458, Note_on_c, 0, 87, 83
1, 189470, Note_on_c, 0, 75, 68
1, 189492, Note_on_c, 0, 69, 41
1, 189501, Note_off_c, 0, 75, 60
1, 189509, Note_off_c, 0, 87, 65
1, 189516, Note_off_c, 0, 69, 58
1, 189522, Note_on_c, 0, 76, 43
1, 189571, Note_on_c, 0, 78, 53
1, 189601, Note_off_c, 0, 76, 58
1, 189618, Note_off_c, 0, 78, 63
1, 189622, Note_on_c, 0, 81, 56
1, 189639, Note_off_c, 0, 81, 64
1, 189643, Control_c, 0, 67, 108
1, 189713, Note_on_c, 0, 83, 49
1, 189714, Note_on_c, 0, 81, 46
1, 189717, Control_c, 0, 67, 108
1, 189735, Note_off_c, 0, 81, 61
1, 189753, Note_off_c, 0, 83, 63
1, 189768, Note_on_c, 0, 88, 67
1, 189777, Control_c, 0, 67, 107
1, 189800, Note_on_c, 0, 90, 63
1, 189848, Note_on_c, 0, 93, 54
1, 189851, Note_off_c, 0, 88, 59
1, 189879, Note_on_c, 0, 95, 51
1, 189884, Note_off_c, 0, 90, 63
1, 189890, Note_off_c, 0, 93, 52
1, 189902, Note_off_c, 0, 95, 60
1, 189973, Note_on_c, 0, 95, 63
1, 189988, Note_on_c, 0, 85, 75
1, 189990, Note_on_c, 0, 93, 64
1, 189993, Note_on_c, 0, 73, 66
1, 190013, Note_off_c, 0, 95, 48
1, 190015, Note_off_c, 0, 85, 64
1, 190024, Note_off_c, 0, 73, 65
1, 190040, Note_on_c, 0, 90, 59
1, 190067, Note_off_c, 0, 93, 54
1, 190068, Note_on_c, 0, 88, 67
1, 190092, Note_off_c, 0, 90, 58
1, 190119, Note_off_c, 0, 88, 60
1, 190141, Note_on_c, 0, 81, 50
1, 190161, Note_off_c, 0, 81, 60
1, 190172, Poly_aftertouch_c, 0, 83, 127
1, 190186, Note_on_c, 0, 83, 4
1, 190232, Note_on_c, 0, 81, 30
1, 190248, Note_off_c, 0, 83, 59
1, 190267, Note_on_c, 0, 78, 56
1, 190268, Note_off_c, 0, 81, 56
1, 190295, Note_on_c, 0, 76, 68
1, 190304, Note_off_c, 0, 78, 61
1, 190364, Control_c, 0, 67, 108
1, 190376, Note_on_c, 0, 71, 47
1, 190376, Note_off_c, 0, 76, 52
1, 190379, Note_on_c, 0, 69, 58
1, 190394, Control_c, 0, 67, 108
1, 190401, Note_off_c, 0, 69, 62
1, 190405, Note_off_c, 0, 71, 60
1, 190475, Note_on_c, 0, 90, 80
1, 190492, Note_on_c, 0, 78, 66
1, 190497, Control_c, 0, 67, 109
1, 190498, Note_on_c, 0, 71, 38
1, 190508, Note_on_c, 0, 69, 35
1, 190523, Note_off_c, 0, 90, 64
1, 190532, Note_off_c, 0, 71, 53
1, 190535, Note_on_c, 0, 76, 48
1, 190537, Note_off_c, 0, 69, 54
1, 190620, Note_off_c, 0, 76, 45
1, 190623, Control_c, 0, 67, 108
1, 190629, Note_off_c, 0, 78, 64
1, 190647, Note_on_c, 0, 81, 55
1, 190661, Note_on_c, 0, 83, 41
1, 190668, Note_off_c, 0, 81, 64
1, 190687, Note_off_c, 0, 83, 54
1, 190727, Note_on_c, 0, 87, 76
1, 190737, Note_on_c, 0, 75, 65
1, 190751, Note_off_c, 0, 87, 66
1, 190766, Note_off_c, 0, 75, 63
1, 190772, Note_on_c, 0, 83, 49
1, 190799, Note_off_c, 0, 83, 58
1, 190814, Note_on_c, 0, 88, 63
1, 190837, Note_on_c, 0, 90, 66
1, 190861, Note_on_c, 0, 93, 59
1, 190876, Control_c, 0, 67, 108
1, 190881, Note_on_c, 0, 95, 55
1, 190883, Note_off_c, 0, 88, 55
1, 190895, Note_off_c, 0, 93, 64
1, 190898, Note_off_c, 0, 90, 63
1, 190901, Note_off_c, 0, 95, 62
1, 190976, Note_on_c, 0, 95, 66
1, 190977, Note_on_c, 0, 73, 76
1, 190980, Note_on_c, 0, 85, 68
1, 191005, Note_on_c, 0, 93, 59
1, 191007, Note_off_c, 0, 85, 66
1, 191019, Note_off_c, 0, 95, 51
1, 191029, Note_off_c, 0, 73, 59
1, 191059, Note_on_c, 0, 90, 59
1, 191081, Note_on_c, 0, 88, 69
1, 191086, Note_off_c, 0, 93, 46
1, 191103, Note_off_c, 0, 90, 57
1, 191127, Control_c, 0, 67, 107
1, 191128, Note_off_c, 0, 88, 57
1, 191151, Note_on_c, 0, 81, 60
1, 191168, Note_off_c, 0, 81, 65
1, 191225, Note_on_c, 0, 83, 55
1, 191247, Note_off_c, 0, 83, 59
1, 191253, Note_on_c, 0, 81, 54
1, 191275, Note_off_c, 0, 81, 60
1, 191285, Note_on_c, 0, 78, 56
1, 191309, Note_on_c, 0, 76, 67
1, 191330, Note_off_c, 0, 78, 60
1, 191357, Control_c, 0, 67, 107
1, 191388, Note_off_c, 0, 76, 58
1, 191397, Note_on_c, 0, 69, 50
1, 191409, Note_on_c, 0, 71, 38
1, 191416, Control_c, 0, 67, 106
1, 191421, Note_off_c, 0, 69, 59
1, 191437, Note_off_c, 0, 71, 57
1, 191498, Note_on_c, 0, 80, 75
1, 191505, Note_on_c, 0, 68, 65
1, 191513, Note_on_c, 0, 71, 58
1, 191521, Note_off_c, 0, 80, 68
1, 191529, Note_off_c, 0, 68, 66
1, 191546, Note_off_c, 0, 71, 66
1, 191564, Note_on_c, 0, 76, 52
1, 191580, Control_c, 0, 67, 106
1, 191588, Note_on_c, 0, 78, 59
1, 191626, Note_off_c, 0, 76, 54
1, 191640, Control_c, 0, 67, 106
1, 191642, Note_on_c, 0, 81, 63
1, 191649, Note_off_c, 0, 78, 64
1, 191661, Note_on_c, 0, 83, 44
1, 191666, Note_off_c, 0, 81, 68
1, 191687, Note_off_c, 0, 83, 55
1, 191714, Control_c, 0, 67, 107
1, 191752, Note_on_c, 0, 83, 56
1, 191758, Control_c, 0, 67, 107
1, 191788, Control_c, 0, 67, 108
1, 191791, Note_on_c, 0, 88, 69
1, 191800, Note_off_c, 0, 83, 54
1, 191802, Control_c, 0, 67, 108
1, 191820, Note_on_c, 0, 90, 68
1, 191857, Note_on_c, 0, 93, 58
1, 191862, Control_c, 0, 67, 109
1, 191869, Note_off_c, 0, 88, 55
1, 191873, Note_on_c, 0, 95, 62
1, 191901, Note_off_c, 0, 93, 60
1, 191905, Note_off_c, 0, 90, 63
1, 191917, Note_off_c, 0, 95, 61
1, 191950, Control_c, 0, 67, 109
1, 191989, Note_on_c, 0, 95, 40
1, 192000, Note_on_c, 0, 93, 56
1, 192001, Note_on_c, 0, 80, 66
1, 192007, Note_on_c, 0, 68, 66
1, 192054, Control_c, 0, 67, 109
1, 192074, Note_on_c, 0, 90, 55
1, 192078, Note_off_c, 0, 95, 38
1, 192093, Note_off_c, 0, 93, 57
1, 192099, Note_on_c, 0, 88, 64
1, 192106, Control_c, 0, 67, 108
1, 192135, Note_off_c, 0, 90, 59
1, 192145, Note_off_c, 0, 88, 57
1, 192181, Note_on_c, 0, 81, 46
1, 192190, Note_off_c, 0, 80, 62
1, 192194, Control_c, 0, 67, 108
1, 192204, Note_off_c, 0, 81, 58
1, 192224, Control_c, 0, 67, 107
1, 192250, Note_on_c, 0, 83, 46
1, 192262, Note_on_c, 0, 81, 53
1, 192276, Note_off_c, 0, 83, 57
1, 192303, Note_on_c, 0, 78, 60
1, 192305, Note_off_c, 0, 81, 59
1, 192314, Control_c, 0, 67, 107
1, 192344, Note_on_c, 0, 76, 43
1, 192349, Note_off_c, 0, 78, 52
1, 192406, Note_off_c, 0, 76, 59
1, 192412, Note_on_c, 0, 69, 58
1, 192412, Note_on_c, 0, 71, 42
1, 192435, Note_off_c, 0, 69, 60
1, 192438, Note_off_c, 0, 71, 63
1, 192491, Control_c, 0, 67, 107
1, 192521, Note_on_c, 0, 78, 56
1, 192525, Note_on_c, 0, 71, 48
1, 192531, Note_on_c, 0, 66, 52
1, 192532, Note_on_c, 0, 69, 36
1, 192552, Note_off_c, 0, 68, 39
1, 192552, Note_off_c, 0, 71, 60
1, 192562, Note_off_c, 0, 69, 54
1, 192564, Note_on_c, 0, 76, 56
1, 192581, Note_off_c, 0, 66, 59
1, 192644, Note_off_c, 0, 76, 58
1, 192654, Note_on_c, 0, 81, 59
1, 192656, Note_off_c, 0, 78, 65
1, 192668, Note_on_c, 0, 83, 39
1, 192680, Note_off_c, 0, 81, 67
1, 192694, Note_off_c, 0, 83, 57
1, 192698, Control_c, 0, 67, 108
1, 192766, Note_on_c, 0, 83, 47
1, 192788, Control_c, 0, 67, 108
1, 192796, Note_off_c, 0, 83, 54
1, 192816, Note_on_c, 0, 88, 65
1, 192841, Poly_aftertouch_c, 0, 81, 0
1, 192847, Note_on_c, 0, 90, 68
1, 192883, Control_c, 0, 67, 108
1, 192889, Note_off_c, 0, 88, 60
1, 192904, Note_on_c, 0, 93, 53
1, 192910, Note_on_c, 0, 95, 65
1, 192925, Note_off_c, 0, 90, 61
1, 192934, Note_off_c, 0, 93, 59
1, 192939, Note_off_c, 0, 95, 65
1, 193029, Note_on_c, 0, 93, 60
1, 193037, Note_on_c, 0, 61, 59
1, 193039, Note_on_c, 0, 73, 57
1, 193039, Note_on_c, 0, 95, 40
1, 193068, Note_off_c, 0, 95, 55
1, 193071, Note_off_c, 0, 73, 64
1, 193074, Note_off_c, 0, 61, 60
1, 193087, Note_on_c, 0, 90, 58
1, 193118, Note_on_c, 0, 88, 62
1, 193126, Note_off_c, 0, 93, 39
1, 193149, Note_off_c, 0, 90, 61
1, 193163, Note_off_c, 0, 88, 59
1, 193194, Note_on_c, 0, 81, 53
1, 193214, Note_off_c, 0, 81, 62
1, 193261, Note_on_c, 0, 83, 36
1, 193290, Note_off_c, 0, 83, 57
1, 193293, Note_on_c, 0, 81, 53
1, 193319, Note_on_c, 0, 78, 59
1, 193321, Note_off_c, 0, 81, 55
1, 193357, Control_c, 0, 67, 107
1, 193358, Note_on_c, 0, 76, 57
1, 193368, Note_off_c, 0, 78, 56
1, 193428, Note_off_c, 0, 76, 55
1, 193428, Note_on_c, 0, 69, 54
1, 193445, Note_on_c, 0, 71, 49
1, 193469, Note_off_c, 0, 71, 60
1, 193471, Note_off_c, 0, 69, 55
1, 193542, Note_on_c, 0, 75, 65
1, 193548, Note_on_c, 0, 63, 59
1, 193576, Note_off_c, 0, 75, 68
1, 193578, Note_on_c, 0, 69, 34
1, 193586, Note_off_c, 0, 63, 65
1, 193607, Note_off_c, 0, 69, 55
1, 193619, Note_on_c, 0, 76, 54
1, 193640, Note_on_c, 0, 78, 62
1, 193680, Note_off_c, 0, 76, 54
1, 193705, Note_on_c, 0, 81, 59
1, 193716, Note_off_c, 0, 78, 63
1, 193722, Note_on_c, 0, 83, 35
1, 193732, Note_off_c, 0, 81, 67
1, 193753, Note_off_c, 0, 83, 50
1, 193765, Control_c, 0, 67, 108
1, 193813, Note_on_c, 0, 83, 55
1, 193827, Note_on_c, 0, 81, 18
1, 193846, Note_off_c, 0, 83, 53
1, 193867, Note_off_c, 0, 81, 41
1, 193870, Note_on_c, 0, 88, 67
1, 193896, Note_on_c, 0, 90, 68
1, 193931, Note_off_c, 0, 88, 57
1, 193934, Note_on_c, 0, 93, 61
1, 193952, Note_on_c, 0, 95, 58
1, 193968, Note_off_c, 0, 93, 64
1, 193970, Note_off_c, 0, 90, 64
1, 193975, Note_off_c, 0, 95, 63
1, 194050, Note_on_c, 0, 95, 69
1, 194063, Control_c, 0, 67, 108
1, 194063, Note_on_c, 0, 61, 59
1, 194065, Note_on_c, 0, 73, 57
1, 194080, Note_on_c, 0, 93, 51
1, 194087, Note_off_c, 0, 95, 55
1, 194095, Note_off_c, 0, 73, 54
1, 194099, Note_off_c, 0, 61, 61
1, 194120, Note_on_c, 0, 90, 62
1, 194136, Note_off_c, 0, 93, 41
1, 194147, Note_on_c, 0, 88, 68
1, 194182, Note_off_c, 0, 90, 62
1, 194190, Note_off_c, 0, 88, 60
1, 194233, Note_on_c, 0, 81, 33
1, 194257, Note_off_c, 0, 81, 0
1, 194272, Poly_aftertouch_c, 0, 81, 0
1, 194277, Note_on_c, 0, 83, 51
1, 194287, Note_on_c, 0, 81, 38
1, 194303, Note_off_c, 0, 83, 57
1, 194345, Note_on_c, 0, 78, 62
1, 194364, Note_off_c, 0, 81, 60
1, 194379, Note_on_c, 0, 76, 66
1, 194396, Control_c, 0, 67, 108
1, 194404, Note_off_c, 0, 78, 44
1, 194442, Note_off_c, 0, 76, 59
1, 194454, Note_on_c, 0, 71, 48
1, 194455, Note_on_c, 0, 69, 61
1, 194485, Note_off_c, 0, 69, 62
1, 194487, Note_off_c, 0, 71, 64
1, 194541, Note_on_c, 0, 78, 65
1, 194543, Control_c, 0, 67, 108
1, 194553, Note_on_c, 0, 66, 57
1, 194566, Note_off_c, 0, 78, 69
1, 194577, Note_off_c, 0, 66, 64
1, 194581, Note_on_c, 0, 69, 23
1, 194582, Note_on_c, 0, 71, 37
1, 194606, Note_on_c, 0, 76, 59
1, 194606, Note_off_c, 0, 71, 59
1, 194619, Note_off_c, 0, 69, 50
1, 194636, Note_on_c, 0, 78, 66
1, 194656, Note_off_c, 0, 76, 48
1, 194662, Control_c, 0, 67, 108
1, 194684, Note_on_c, 0, 81, 61
1, 194689, Note_off_c, 0, 78, 64
1, 194709, Note_on_c, 0, 83, 27
1, 194710, Note_off_c, 0, 81, 67
1, 194743, Note_off_c, 0, 83, 47
1, 194794, Note_on_c, 0, 81, 29
1, 194803, Note_on_c, 0, 83, 35
1, 194805, Note_on_c, 0, 75, 72
1, 194812, Note_on_c, 0, 63, 65
1, 194826, Note_off_c, 0, 81, 54
1, 194826, Control_c, 0, 67, 108
1, 194832, Note_off_c, 0, 75, 60
1, 194835, Note_off_c, 0, 83, 54
1, 194836, Note_on_c, 0, 88, 74
1, 194843, Note_off_c, 0, 63, 64
1, 194871, Note_on_c, 0, 90, 67
1, 194918, Note_on_c, 0, 93, 62
1, 194925, Note_off_c, 0, 88, 54
1, 194935, Note_on_c, 0, 95, 65
1, 194962, Note_off_c, 0, 93, 60
1, 194965, Note_off_c, 0, 90, 62
1, 194970, Note_off_c, 0, 95, 60
1, 195071, Note_on_c, 0, 73, 64
1, 195071, Note_on_c, 0, 95, 51
1, 195072, Note_on_c, 0, 61, 62
1, 195078, Note_on_c, 0, 93, 65
1, 195085, Control_c, 0, 67, 109
1, 195103, Note_off_c, 0, 73, 63
1, 195113, Note_off_c, 0, 61, 58
1, 195131, Note_off_c, 0, 95, 41
1, 195144, Control_c, 0, 67, 109
1, 195148, Note_on_c, 0, 90, 60
1, 195165, Note_off_c, 0, 93, 57
1, 195166, Note_on_c, 0, 88, 68
1, 195192, Note_off_c, 0, 90, 58
1, 195214, Note_off_c, 0, 88, 55
1, 195241, Note_on_c, 0, 81, 53
1, 195262, Note_off_c, 0, 81, 61
1, 195318, Note_on_c, 0, 83, 24
1, 195344, Note_on_c, 0, 81, 44
1, 195354, Note_off_c, 0, 83, 51
1, 195360, Note_on_c, 0, 78, 61
1, 195368, Note_off_c, 0, 81, 59
1, 195381, Control_c, 0, 67, 109
1, 195393, Note_on_c, 0, 76, 64
1, 195396, Control_c, 0, 67, 108
1, 195422, Note_off_c, 0, 78, 39
1, 195455, Control_c, 0, 67, 108
1, 195464, Note_off_c, 0, 76, 58
1, 195471, Note_on_c, 0, 69, 50
1, 195472, Note_on_c, 0, 71, 46
1, 195485, Control_c, 0, 67, 107
1, 195501, Note_off_c, 0, 69, 56
1, 195501, Note_off_c, 0, 71, 60
1, 195563, Note_on_c, 0, 56, 64
1, 195563, Note_on_c, 0, 68, 58
1, 195584, Note_on_c, 0, 71, 47
1, 195592, Note_off_c, 0, 68, 64
1, 195596, Note_on_c, 0, 69, 47
1, 195596, Note_off_c, 0, 56, 65
1, 195616, Note_off_c, 0, 69, 61
1, 195619, Note_on_c, 0, 76, 60
1, 195622, Note_off_c, 0, 71, 54
1, 195655, Note_on_c, 0, 78, 62
1, 195679, Control_c, 0, 67, 108
1, 195708, Note_off_c, 0, 76, 60
1, 195714, Note_on_c, 0, 81, 65
1, 195722, Note_on_c, 0, 83, 61
1, 195733, Note_off_c, 0, 78, 63
1, 195737, Note_off_c, 0, 81, 70
1, 195738, Control_c, 0, 67, 108
1, 195742, Note_off_c, 0, 83, 66
1, 195828, Note_on_c, 0, 83, 56
1, 195846, Note_on_c, 0, 81, 45
1, 195864, Note_off_c, 0, 83, 49
1, 195870, Note_off_c, 0, 81, 59
1, 195876, Note_on_c, 0, 88, 73
1, 195879, Control_c, 0, 67, 109
1, 195912, Note_on_c, 0, 90, 62
1, 195957, Note_on_c, 0, 93, 64
1, 195960, Note_off_c, 0, 88, 56
1, 195995, Note_on_c, 0, 95, 55
1, 195999, Note_off_c, 0, 90, 63
1, 196007, Note_off_c, 0, 93, 62
1, 196019, Note_off_c, 0, 95, 59
1, 196079, Note_on_c, 0, 56, 59
1, 196082, Note_on_c, 0, 68, 55
1, 196106, Note_on_c, 0, 93, 49
1, 196118, Note_on_c, 0, 95, 28
1, 196150, Note_on_c, 0, 90, 58
1, 196153, Note_off_c, 0, 95, 51
1, 196186, Note_on_c, 0, 88, 62
1, 196204, Note_off_c, 0, 93, 38
1, 196213, Note_off_c, 0, 90, 57
1, 196230, Note_off_c, 0, 88, 59
1, 196258, Note_on_c, 0, 81, 53
1, 196278, Note_off_c, 0, 81, 62
1, 196350, Note_off_c, 0, 68, 59
1, 196358, Note_on_c, 0, 83, 12
1, 196367, Note_on_c, 0, 81, 45
1, 196382, Control_c, 0, 67, 108
1, 196385, Note_on_c, 0, 78, 58
1, 196399, Note_off_c, 0, 81, 51
1, 196402, Note_off_c, 0, 83, 41
1, 196412, Control_c, 0, 67, 108
1, 196418, Note_on_c, 0, 76, 61
1, 196460, Note_off_c, 0, 78, 37
1, 196487, Control_c, 0, 67, 107
1, 196495, Note_off_c, 0, 76, 57
1, 196496, Note_on_c, 0, 69, 56
1, 196499, Note_on_c, 0, 71, 46
1, 196538, Note_off_c, 0, 71, 64
1, 196540, Note_off_c, 0, 69, 61
1, 196546, Control_c, 0, 67, 108
1, 196583, Control_c, 0, 64, 101
1, 196597, Control_c, 0, 64, 88
1, 196612, Control_c, 0, 64, 80
1, 196612, Control_c, 0, 67, 108
1, 196619, Note_on_c, 0, 54, 58
1, 196624, Note_on_c, 0, 66, 52
1, 196627, Control_c, 0, 64, 78
1, 196642, Control_c, 0, 64, 81
1, 196657, Control_c, 0, 64, 86
1, 196663, Note_on_c, 0, 69, 14
1, 196672, Control_c, 0, 64, 93
1, 196673, Poly_aftertouch_c, 0, 71, 127
1, 196680, Note_on_c, 0, 76, 57
1, 196687, Control_c, 0, 64, 103
1, 196698, Note_off_c, 0, 66, 62
1, 196698, Note_off_c, 0, 56, 38
1, 196702, Control_c, 0, 64, 114
1, 196704, Note_off_c, 0, 69, 55
1, 196704, Poly_aftertouch_c, 0, 71, 0
1, 196711, Note_on_c, 0, 78, 60
1, 196716, Control_c, 0, 64, 127
1, 196717, Note_off_c, 0, 54, 63
1, 196746, Control_c, 0, 67, 108
1, 196761, Note_off_c, 0, 76, 60
1, 196771, Note_on_c, 0, 81, 61
1, 196790, Note_off_c, 0, 78, 63
1, 196791, Control_c, 0, 67, 107
1, 196797, Note_off_c, 0, 81, 67
1, 196835, Control_c, 0, 67, 107
1, 196879, Note_on_c, 0, 83, 47
1, 196886, Note_on_c, 0, 81, 35
1, 196913, Note_off_c, 0, 81, 55
1, 196931, Note_off_c, 0, 83, 47
1, 196945, Note_on_c, 0, 88, 65
1, 196969, Control_c, 0, 64, 126
1, 196983, Control_c, 0, 64, 97
1, 196998, Note_on_c, 0, 52, 60
1, 196998, Control_c, 0, 64, 82
1, 196999, Note_on_c, 0, 90, 54
1, 197012, Note_on_c, 0, 45, 54
1, 197013, Control_c, 0, 64, 71
1, 197013, Control_c, 0, 67, 106
1, 197015, Note_off_c, 0, 88, 52
1, 197028, Control_c, 0, 64, 65
1, 197028, Control_c, 0, 67, 106
1, 197034, Note_on_c, 0, 93, 39
1, 197041, Note_on_c, 0, 95, 64
1, 197050, Note_off_c, 0, 90, 0
1, 197057, Control_c, 0, 64, 67
1, 197072, Control_c, 0, 64, 70
1, 197072, Control_c, 0, 67, 106
1, 197088, Control_c, 0, 64, 76
1, 197089, Poly_aftertouch_c, 0, 90, 127
1, 197103, Control_c, 0, 64, 86
1, 197110, Note_off_c, 0, 45, 65
1, 197113, Note_off_c, 0, 93, 37
1, 197118, Control_c, 0, 64, 106
1, 197122, Note_off_c, 0, 52, 62
1, 197127, Poly_aftertouch_c, 0, 90, 0
1, 197131, Note_off_c, 0, 95, 62
1, 197132, Control_c, 0, 64, 127
1, 197177, Control_c, 0, 67, 107
1, 197221, Control_c, 0, 67, 107
1, 197265, Control_c, 0, 67, 107
1, 197333, Control_c, 0, 67, 107
1, 197343, Note_on_c, 0, 64, 75
1, 197355, Note_on_c, 0, 93, 30
1, 197356, Note_on_c, 0, 61, 52
1, 197357, Note_on_c, 0, 56, 33
1, 197362, Control_c, 0, 67, 107
1, 197366, Note_on_c, 0, 57, 46
1, 197414, Note_off_c, 0, 93, 0
1, 197436, Control_c, 0, 67, 106
1, 197451, Control_c, 0, 67, 106
1, 197452, Poly_aftertouch_c, 0, 93, 127
1, 197509, Note_on_c, 0, 90, 48
1, 197525, Control_c, 0, 67, 106
1, 197539, Control_c, 0, 67, 106
1, 197550, Poly_aftertouch_c, 0, 93, 0
1, 197593, Note_on_c, 0, 88, 53
1, 197627, Note_off_c, 0, 90, 36
1, 197632, Note_off_c, 0, 88, 51
1, 197641, Note_off_c, 0, 64, 63
1, 197643, Control_c, 0, 67, 106
1, 197650, Note_on_c, 0, 85, 41
1, 197676, Note_off_c, 0, 85, 55
1, 197698, Note_off_c, 0, 61, 51
1, 197707, Note_on_c, 0, 81, 32
1, 197736, Note_off_c, 0, 81, 52
1, 197775, Note_on_c, 0, 78, 50
1, 197804, Note_off_c, 0, 78, 64
1, 197834, Note_on_c, 0, 76, 46
1, 197866, Note_off_c, 0, 76, 60
1, 197881, Control_c, 0, 67, 106
1, 197890, Note_on_c, 0, 73, 43
1, 197898, Note_on_c, 0, 66, 68
1, 197918, Note_off_c, 0, 73, 56
1, 197948, Note_on_c, 0, 69, 47
1, 197986, Note_off_c, 0, 69, 58
1, 198000, Control_c, 0, 67, 106
1, 198005, Note_on_c, 0, 73, 55
1, 198072, Note_off_c, 0, 73, 60
1, 198084, Note_on_c, 0, 76, 44
1, 198092, Note_off_c, 0, 66, 62
1, 198111, Control_c, 0, 67, 107
1, 198124, Note_off_c, 0, 76, 58
1, 198125, Note_on_c, 0, 78, 57
1, 198151, Note_off_c, 0, 78, 66
1, 198156, Control_c, 0, 67, 107
1, 198170, Control_c, 0, 67, 108
1, 198192, Note_on_c, 0, 64, 78
1, 198212, Note_on_c, 0, 81, 62
1, 198215, Control_c, 0, 67, 109
1, 198244, Control_c, 0, 67, 109
1, 198246, Note_off_c, 0, 81, 58
1, 198287, Note_on_c, 0, 85, 60
1, 198318, Control_c, 0, 67, 110
1, 198344, Note_off_c, 0, 56, 52
1, 198350, Note_off_c, 0, 57, 47
1, 198359, Note_on_c, 0, 88, 53
1, 198366, Note_off_c, 0, 64, 59
1, 198366, Note_off_c, 0, 85, 57
1, 198414, Note_on_c, 0, 90, 54
1, 198421, Control_c, 0, 67, 109
1, 198442, Note_off_c, 0, 88, 45
1, 198463, Note_off_c, 0, 90, 55
1, 198494, Note_on_c, 0, 93, 55
1, 198510, Note_on_c, 0, 61, 76
1, 198545, Note_on_c, 0, 57, 38
1, 198547, Note_on_c, 0, 54, 44
1, 198562, Note_off_c, 0, 93, 36
1, 198585, Control_c, 0, 64, 108
1, 198600, Control_c, 0, 64, 94
1, 198600, Control_c, 0, 67, 109
1, 198614, Note_on_c, 0, 88, 49
1, 198614, Control_c, 0, 64, 84
1, 198629, Control_c, 0, 64, 76
1, 198644, Control_c, 0, 64, 72
1, 198659, Control_c, 0, 64, 70
1, 198665, Note_on_c, 0, 85, 57
1, 198668, Note_off_c, 0, 88, 44
1, 198674, Control_c, 0, 64, 71
1, 198690, Control_c, 0, 64, 73
1, 198699, Note_off_c, 0, 85, 65
1, 198704, Control_c, 0, 64, 77
1, 198704, Control_c, 0, 67, 108
1, 198719, Control_c, 0, 64, 83
1, 198731, Note_on_c, 0, 81, 54
1, 198734, Control_c, 0, 64, 95
1, 198749, Control_c, 0, 64, 108
1, 198750, Note_off_c, 0, 81, 64
1, 198764, Control_c, 0, 64, 127
1, 198764, Control_c, 0, 67, 108
1, 198810, Note_on_c, 0, 78, 65
1, 198812, Note_off_c, 0, 61, 63
1, 198815, Control_c, 0, 67, 107
1, 198822, Note_off_c, 0, 57, 52
1, 198827, Note_off_c, 0, 54, 63
1, 198860, Control_c, 0, 67, 107
1, 198886, Note_off_c, 0, 78, 56
1, 198898, Note_on_c, 0, 76, 44
1, 198904, Control_c, 0, 67, 106
1, 198943, Note_off_c, 0, 76, 58
1, 198947, Note_on_c, 0, 73, 53
1, 198948, Control_c, 0, 67, 106
1, 198963, Control_c, 0, 67, 105
1, 198985, Note_off_c, 0, 73, 63
1, 199007, Control_c, 0, 67, 105
1, 199024, Note_on_c, 0, 69, 60
1, 199041, Note_on_c, 0, 45, 50
1, 199051, Control_c, 0, 67, 104
1, 199060, Note_on_c, 0, 52, 61
1, 199066, Control_c, 0, 67, 104
1, 199083, Note_off_c, 0, 69, 53
1, 199094, Note_on_c, 0, 73, 57
1, 199129, Note_off_c, 0, 45, 64
1, 199155, Control_c, 0, 67, 103
1, 199159, Note_on_c, 0, 76, 45
1, 199161, Note_off_c, 0, 52, 62
1, 199166, Note_off_c, 0, 73, 60
1, 199185, Control_c, 0, 67, 104
1, 199199, Note_on_c, 0, 78, 60
1, 199202, Note_off_c, 0, 76, 62
1, 199217, Note_off_c, 0, 78, 65
1, 199244, Control_c, 0, 67, 104
1, 199268, Note_on_c, 0, 81, 67
1, 199274, Control_c, 0, 67, 105
1, 199289, Control_c, 0, 67, 105
1, 199304, Note_off_c, 0, 81, 56
1, 199340, Note_on_c, 0, 85, 68
1, 199348, Control_c, 0, 67, 106
1, 199392, Control_c, 0, 67, 106
1, 199400, Note_on_c, 0, 88, 64
1, 199429, Note_off_c, 0, 85, 60
1, 199450, Note_on_c, 0, 90, 62
1, 199505, Note_off_c, 0, 88, 52
1, 199526, Control_c, 0, 67, 106
1, 199536, Note_off_c, 0, 90, 59
1, 199542, Note_on_c, 0, 93, 65
1, 199545, Note_on_c, 0, 64, 80
1, 199578, Note_on_c, 0, 61, 58
1, 199591, Note_on_c, 0, 57, 44
1, 199593, Control_c, 0, 67, 105
1, 199604, Note_on_c, 0, 56, 40
1, 199608, Control_c, 0, 67, 105
1, 199632, Note_off_c, 0, 93, 39
1, 199638, Control_c, 0, 67, 104
1, 199667, Control_c, 0, 67, 104
1, 199679, Note_on_c, 0, 90, 37
1, 199682, Control_c, 0, 67, 103
1, 199697, Control_c, 0, 67, 103
1, 199709, Note_on_c, 0, 88, 45
1, 199709, Note_off_c, 0, 90, 50
1, 199712, Control_c, 0, 67, 102
1, 199727, Control_c, 0, 67, 101
1, 199742, Control_c, 0, 67, 101
1, 199746, Note_off_c, 0, 88, 58
1, 199754, Note_on_c, 0, 85, 58
1, 199757, Control_c, 0, 67, 100
1, 199772, Control_c, 0, 67, 99
1, 199778, Note_off_c, 0, 85, 64
1, 199787, Control_c, 0, 67, 98
1, 199801, Control_c, 0, 67, 96
1, 199808, Note_on_c, 0, 81, 61
1, 199816, Control_c, 0, 67, 94
1, 199831, Control_c, 0, 67, 92
1, 199834, Note_off_c, 0, 81, 68
1, 199846, Control_c, 0, 67, 89
1, 199858, Note_off_c, 0, 64, 63
1, 199860, Control_c, 0, 67, 87
1, 199875, Control_c, 0, 67, 83
1, 199881, Note_on_c, 0, 78, 61
1, 199890, Control_c, 0, 67, 80
1, 199905, Control_c, 0, 67, 77
1, 199920, Control_c, 0, 67, 75
1, 199927, Note_off_c, 0, 61, 37
1, 199934, Control_c, 0, 67, 73
1, 199948, Note_on_c, 0, 76, 44
1, 199948, Note_off_c, 0, 78, 57
1, 199949, Control_c, 0, 67, 73
1, 199993, Control_c, 0, 67, 72
1, 200000, Note_on_c, 0, 73, 55
1, 200016, Note_off_c, 0, 76, 38
1, 200045, Note_off_c, 0, 73, 58
1, 200082, Note_on_c, 0, 69, 44
1, 200112, Note_on_c, 0, 66, 72
1, 200124, Note_off_c, 0, 69, 46
1, 200154, Note_on_c, 0, 73, 63
1, 200171, Control_c, 0, 67, 73
1, 200216, Note_on_c, 0, 76, 44
1, 200216, Control_c, 0, 67, 73
1, 200223, Note_off_c, 0, 73, 58
1, 200231, Control_c, 0, 67, 74
1, 200246, Control_c, 0, 67, 74
1, 200260, Control_c, 0, 67, 75
1, 200266, Note_on_c, 0, 78, 59
1, 200276, Note_off_c, 0, 76, 60
1, 200282, Note_off_c, 0, 66, 62
1, 200303, Note_off_c, 0, 78, 66
1, 200343, Control_c, 0, 67, 75
1, 200357, Control_c, 0, 67, 76
1, 200372, Control_c, 0, 67, 76
1, 200377, Note_on_c, 0, 81, 56
1, 200402, Control_c, 0, 67, 77
1, 200416, Note_on_c, 0, 64, 77
1, 200416, Note_off_c, 0, 81, 57
1, 200417, Control_c, 0, 67, 77
1, 200431, Control_c, 0, 67, 78
1, 200446, Note_on_c, 0, 85, 65
1, 200514, Note_on_c, 0, 88, 60
1, 200524, Note_off_c, 0, 85, 60
1, 200529, Note_off_c, 0, 56, 61
1, 200549, Note_off_c, 0, 57, 37
1, 200574, Note_off_c, 0, 64, 55
1, 200578, Note_on_c, 0, 90, 60
1, 200597, Note_off_c, 0, 88, 52
1, 200628, Note_off_c, 0, 90, 55
1, 200648, Note_on_c, 0, 93, 57
1, 200674, Note_on_c, 0, 61, 76
1, 200691, Note_on_c, 0, 54, 56
1, 200696, Note_on_c, 0, 57, 45
1, 200698, Control_c, 0, 64, 107
1, 200713, Control_c, 0, 64, 92
1, 200713, Control_c, 0, 67, 78
1, 200719, Note_on_c, 0, 90, 41
1, 200728, Control_c, 0, 64, 79
1, 200732, Note_off_c, 0, 93, 38
1, 200743, Control_c, 0, 64, 72
1, 200757, Control_c, 0, 64, 68
1, 200760, Note_on_c, 0, 88, 51
1, 200771, Note_off_c, 0, 90, 49
1, 200772, Control_c, 0, 64, 67
1, 200787, Control_c, 0, 64, 69
1, 200801, Control_c, 0, 64, 72
1, 200805, Note_on_c, 0, 85, 61
1, 200815, Note_off_c, 0, 88, 56
1, 200816, Control_c, 0, 64, 77
1, 200831, Control_c, 0, 64, 84
1, 200831, Control_c, 0, 67, 78
1, 200835, Note_off_c, 0, 85, 65
1, 200845, Note_off_c, 0, 61, 63
1, 200846, Control_c, 0, 64, 90
1, 200861, Control_c, 0, 64, 95
1, 200861, Control_c, 0, 67, 77
1, 200872, Note_on_c, 0, 81, 51
1, 200875, Control_c, 0, 64, 99
1, 200875, Control_c, 0, 67, 77
1, 200890, Control_c, 0, 64, 102
1, 200893, Note_off_c, 0, 81, 60
1, 200920, Control_c, 0, 67, 76
1, 200943, Note_on_c, 0, 59, 83
1, 200949, Note_on_c, 0, 78, 57
1, 200979, Control_c, 0, 67, 76
1, 201006, Note_off_c, 0, 78, 50
1, 201008, Note_on_c, 0, 76, 53
1, 201039, Control_c, 0, 64, 101
1, 201061, Control_c, 0, 64, 101
1, 201076, Control_c, 0, 64, 100
1, 201076, Control_c, 0, 67, 76
1, 201080, Note_on_c, 0, 73, 56
1, 201092, Control_c, 0, 64, 99
1, 201094, Note_off_c, 0, 76, 38
1, 201122, Note_off_c, 0, 73, 63
1, 201153, Note_on_c, 0, 69, 60
1, 201166, Control_c, 0, 67, 77
1, 201195, Control_c, 0, 67, 77
1, 201210, Control_c, 0, 67, 78
1, 201211, Note_off_c, 0, 69, 51
1, 201213, Note_on_c, 0, 61, 79
1, 201224, Note_on_c, 0, 73, 63
1, 201224, Note_off_c, 0, 59, 57
1, 201239, Control_c, 0, 67, 78
1, 201240, Note_off_c, 0, 57, 60
1, 201265, Note_off_c, 0, 54, 64
1, 201269, Note_on_c, 0, 76, 55
1, 201288, Note_off_c, 0, 73, 54
1, 201289, Note_off_c, 0, 61, 63
1, 201310, Note_off_c, 0, 76, 58
1, 201316, Note_on_c, 0, 78, 56
1, 201337, Note_off_c, 0, 78, 64
1, 201406, Note_on_c, 0, 81, 61
1, 201447, Control_c, 0, 67, 78
1, 201468, Note_on_c, 0, 52, 75
1, 201472, Note_on_c, 0, 45, 65
1, 201473, Note_off_c, 0, 81, 47
1, 201490, Note_on_c, 0, 85, 69
1, 201492, Control_c, 0, 67, 78
1, 201501, Note_off_c, 0, 45, 67
1, 201514, Note_off_c, 0, 52, 60
1, 201550, Note_on_c, 0, 88, 53
1, 201566, Control_c, 0, 67, 79
1, 201600, Note_off_c, 0, 85, 41
1, 201617, Note_on_c, 0, 90, 69
1, 201639, Control_c, 0, 67, 79
1, 201654, Control_c, 0, 67, 80
1, 201669, Control_c, 0, 67, 80
1, 201686, Note_off_c, 0, 88, 40
1, 201698, Control_c, 0, 67, 81
1, 201722, Note_off_c, 0, 90, 60
1, 201727, Note_on_c, 0, 93, 63
1, 201787, Control_c, 0, 67, 80
1, 201805, Note_on_c, 0, 64, 81
1, 201810, Control_c, 0, 67, 80
1, 201820, Note_on_c, 0, 56, 51
1, 201825, Note_on_c, 0, 57, 51
1, 201825, Note_on_c, 0, 61, 60
1, 201844, Note_on_c, 0, 90, 62
1, 201854, Control_c, 0, 64, 98
1, 201867, Note_off_c, 0, 93, 37
1, 201869, Control_c, 0, 64, 97
1, 201869, Control_c, 0, 67, 79
1, 201885, Control_c, 0, 64, 96
1, 201885, Control_c, 0, 67, 79
1, 201900, Control_c, 0, 64, 96
1, 201911, Note_off_c, 0, 90, 57
1, 201915, Control_c, 0, 64, 95
1, 201915, Control_c, 0, 67, 78
1, 201924, Note_on_c, 0, 88, 57
1, 201929, Control_c, 0, 64, 94
1, 201929, Control_c, 0, 67, 78
1, 201944, Control_c, 0, 64, 93
1, 201959, Control_c, 0, 64, 92
1, 201973, Note_off_c, 0, 88, 60
1, 201977, Note_on_c, 0, 85, 64
1, 201989, Control_c, 0, 67, 77
1, 202003, Control_c, 0, 67, 77
1, 202009, Note_off_c, 0, 85, 64
1, 202049, Note_on_c, 0, 81, 60
1, 202067, Note_off_c, 0, 81, 66
1, 202124, Note_on_c, 0, 78, 57
1, 202132, Note_off_c, 0, 64, 63
1, 202151, Control_c, 0, 64, 92
1, 202158, Note_off_c, 0, 61, 61
1, 202188, Note_off_c, 0, 78, 52
1, 202191, Note_on_c, 0, 76, 42
1, 202210, Control_c, 0, 64, 93
1, 202234, Note_off_c, 0, 76, 47
1, 202250, Note_on_c, 0, 73, 57
1, 202255, Control_c, 0, 64, 93
1, 202292, Note_off_c, 0, 73, 61
1, 202314, Control_c, 0, 64, 94
1, 202340, Note_on_c, 0, 69, 56
1, 202349, Note_on_c, 0, 66, 77
1, 202391, Note_off_c, 0, 69, 54
1, 202411, Note_on_c, 0, 73, 60
1, 202447, Control_c, 0, 67, 77
1, 202470, Note_on_c, 0, 76, 54
1, 202487, Note_off_c, 0, 73, 59
1, 202507, Control_c, 0, 67, 78
1, 202531, Note_on_c, 0, 78, 59
1, 202551, Note_off_c, 0, 76, 49
1, 202565, Note_off_c, 0, 66, 62
1, 202567, Note_off_c, 0, 78, 67
1, 202573, Control_c, 0, 67, 78
1, 202588, Control_c, 0, 64, 94
1, 202625, Note_on_c, 0, 81, 59
1, 202647, Control_c, 0, 64, 94
1, 202662, Note_off_c, 0, 81, 48
1, 202662, Control_c, 0, 67, 79
1, 202711, Note_on_c, 0, 85, 58
1, 202722, Note_off_c, 0, 57, 47
1, 202730, Note_off_c, 0, 56, 56
1, 202763, Note_off_c, 0, 85, 56
1, 202767, Control_c, 0, 67, 79
1, 202770, Note_on_c, 0, 88, 62
1, 202828, Note_off_c, 0, 88, 59
1, 202860, Note_on_c, 0, 90, 63
1, 202884, Note_on_c, 0, 64, 73
1, 202900, Control_c, 0, 67, 79
1, 202908, Note_on_c, 0, 54, 48
1, 202908, Note_on_c, 0, 57, 37
1, 202944, Note_off_c, 0, 90, 45
1, 202948, Note_on_c, 0, 88, 62
1, 203000, Note_off_c, 0, 88, 54
1, 203010, Note_on_c, 0, 85, 67
1, 203033, Control_c, 0, 64, 93
1, 203042, Note_off_c, 0, 85, 62
1, 203078, Control_c, 0, 64, 93
1, 203078, Note_on_c, 0, 81, 52
1, 203093, Control_c, 0, 64, 92
1, 203098, Note_off_c, 0, 81, 61
1, 203107, Control_c, 0, 64, 91
1, 203122, Control_c, 0, 64, 90
1, 203155, Note_on_c, 0, 78, 53
1, 203167, Control_c, 0, 64, 89
1, 203224, Note_on_c, 0, 76, 41
1, 203230, Note_off_c, 0, 78, 40
1, 203241, Control_c, 0, 64, 89
1, 203253, Note_off_c, 0, 76, 55
1, 203266, Note_on_c, 0, 73, 63
1, 203285, Control_c, 0, 64, 88
1, 203305, Note_off_c, 0, 73, 66
1, 203344, Note_on_c, 0, 69, 48
1, 203379, Note_off_c, 0, 69, 65
1, 203396, Control_c, 0, 64, 87
1, 203396, Control_c, 0, 67, 78
1, 203407, Note_on_c, 0, 61, 71
1, 203411, Control_c, 0, 64, 84
1, 203426, Note_on_c, 0, 66, 55
1, 203426, Control_c, 0, 64, 80
1, 203441, Control_c, 0, 64, 75
1, 203449, Note_off_c, 0, 64, 41
1, 203456, Control_c, 0, 64, 71
1, 203462, Note_off_c, 0, 66, 64
1, 203471, Control_c, 0, 64, 69
1, 203486, Control_c, 0, 64, 70
1, 203501, Control_c, 0, 64, 72
1, 203505, Note_on_c, 0, 69, 57
1, 203516, Control_c, 0, 64, 75
1, 203531, Control_c, 0, 64, 79
1, 203546, Control_c, 0, 64, 83
1, 203547, Note_off_c, 0, 69, 60
1, 203561, Control_c, 0, 64, 87
1, 203575, Control_c, 0, 64, 90
1, 203590, Control_c, 0, 64, 95
1, 203605, Note_on_c, 0, 73, 57
1, 203605, Control_c, 0, 64, 99
1, 203619, Control_c, 0, 64, 103
1, 203634, Control_c, 0, 64, 107
1, 203649, Control_c, 0, 64, 109
1, 203653, Note_off_c, 0, 61, 61
1, 203655, Note_off_c, 0, 57, 59
1, 203658, Note_off_c, 0, 73, 60
1, 203668, Note_on_c, 0, 76, 37
1, 203689, Note_off_c, 0, 54, 64
1, 203703, Note_off_c, 0, 76, 52
1, 203714, Note_on_c, 0, 78, 56
1, 203734, Note_off_c, 0, 78, 65
1, 203796, Note_on_c, 0, 81, 61
1, 203797, Control_c, 0, 67, 79
1, 203842, Note_off_c, 0, 81, 53
1, 203871, Control_c, 0, 64, 109
1, 203887, Note_on_c, 0, 85, 59
1, 203900, Control_c, 0, 64, 108
1, 203915, Control_c, 0, 64, 107
1, 203930, Control_c, 0, 64, 106
1, 203945, Control_c, 0, 64, 106
1, 203960, Control_c, 0, 64, 105
1, 203975, Control_c, 0, 64, 104
1, 203990, Control_c, 0, 64, 103
1, 203998, Note_off_c, 0, 85, 53
1, 204005, Control_c, 0, 64, 101
1, 204014, Note_on_c, 0, 44, 61
1, 204017, Note_on_c, 0, 59, 61
1, 204018, Note_on_c, 0, 57, 58
1, 204018, Note_on_c, 0, 88, 59
1, 204019, Control_c, 0, 64, 100
1, 204027, Note_on_c, 0, 52, 49
1, 204034, Control_c, 0, 64, 99
1, 204056, Control_c, 0, 64, 98
1, 204071, Control_c, 0, 64, 97
1, 204086, Control_c, 0, 64, 94
1, 204100, Control_c, 0, 64, 90
1, 204115, Control_c, 0, 64, 84
1, 204130, Control_c, 0, 64, 78
1, 204142, Note_off_c, 0, 88, 62
1, 204145, Control_c, 0, 64, 72
1, 204150, Note_on_c, 0, 85, 55
1, 204160, Control_c, 0, 64, 67
1, 204160, Control_c, 0, 67, 78
1, 204175, Control_c, 0, 64, 65
1, 204204, Control_c, 0, 64, 66
1, 204219, Control_c, 0, 64, 69
1, 204228, Note_off_c, 0, 85, 62
1, 204234, Control_c, 0, 64, 72
1, 204246, Note_on_c, 0, 81, 57
1, 204249, Control_c, 0, 64, 77
1, 204264, Control_c, 0, 64, 82
1, 204279, Control_c, 0, 64, 87
1, 204294, Control_c, 0, 64, 93
1, 204295, Note_off_c, 0, 81, 58
1, 204309, Control_c, 0, 64, 99
1, 204313, Note_on_c, 0, 78, 58
1, 204324, Control_c, 0, 64, 102
1, 204339, Note_off_c, 0, 78, 61
1, 204339, Control_c, 0, 64, 103
1, 204353, Control_c, 0, 67, 79
1, 204367, Note_on_c, 0, 76, 52
1, 204368, Control_c, 0, 64, 103
1, 204383, Control_c, 0, 64, 103
1, 204383, Control_c, 0, 67, 79
1, 204390, Note_off_c, 0, 76, 59
1, 204413, Control_c, 0, 67, 80
1, 204442, Control_c, 0, 64, 102
1, 204442, Control_c, 0, 67, 80
1, 204450, Note_on_c, 0, 73, 41
1, 204457, Control_c, 0, 64, 102
1, 204457, Control_c, 0, 67, 81
1, 204472, Control_c, 0, 64, 101
1, 204481, Note_off_c, 0, 73, 55
1, 204487, Control_c, 0, 64, 99
1, 204487, Control_c, 0, 67, 81
1, 204497, Note_on_c, 0, 69, 56
1, 204502, Control_c, 0, 64, 98
1, 204502, Control_c, 0, 67, 82
1, 204516, Control_c, 0, 64, 97
1, 204531, Control_c, 0, 64, 96
1, 204531, Control_c, 0, 67, 82
1, 204537, Note_off_c, 0, 69, 59
1, 204546, Control_c, 0, 64, 95
1, 204546, Control_c, 0, 67, 83
1, 204561, Control_c, 0, 64, 94
1, 204561, Control_c, 0, 67, 84
1, 204576, Control_c, 0, 64, 94
1, 204576, Control_c, 0, 67, 85
1, 204580, Note_on_c, 0, 66, 30
1, 204591, Control_c, 0, 67, 85
1, 204605, Control_c, 0, 67, 86
1, 204616, Note_off_c, 0, 66, 46
1, 204620, Control_c, 0, 67, 87
1, 204635, Note_on_c, 0, 64, 47
1, 204635, Control_c, 0, 67, 88
1, 204649, Control_c, 0, 67, 90
1, 204664, Control_c, 0, 67, 93
1, 204679, Note_off_c, 0, 64, 47
1, 204679, Control_c, 0, 67, 96
1, 204694, Control_c, 0, 67, 100
1, 204702, Note_off_c, 0, 59, 51
1, 204709, Control_c, 0, 67, 104
1, 204718, Note_on_c, 0, 66, 45
1, 204723, Control_c, 0, 67, 107
1, 204726, Note_off_c, 0, 57, 37
1, 204729, Note_off_c, 0, 44, 60
1, 204733, Note_off_c, 0, 52, 55
1, 204738, Control_c, 0, 67, 109
1, 204746, Note_off_c, 0, 66, 56
1, 204753, Control_c, 0, 67, 112
1, 204768, Control_c, 0, 67, 114
1, 204783, Control_c, 0, 67, 117
1, 204805, Control_c, 0, 67, 120
1, 204813, Note_on_c, 0, 73, 51
1, 204820, Control_c, 0, 67, 123
1, 204835, Control_c, 0, 67, 125
1, 204837, Note_off_c, 0, 73, 61
1, 204849, Control_c, 0, 67, 126
1, 204864, Control_c, 0, 67, 127
1, 204879, Control_c, 0, 64, 93
1, 204907, Note_on_c, 0, 76, 51
1, 204909, Control_c, 0, 64, 93
1, 204942, Note_on_c, 0, 42, 45
1, 204953, Control_c, 0, 64, 92
1, 204968, Control_c, 0, 64, 92
1, 204973, Note_off_c, 0, 76, 39
1, 204982, Control_c, 0, 64, 91
1, 204994, Note_on_c, 0, 78, 50
1, 204997, Control_c, 0, 64, 90
1, 205003, Note_on_c, 0, 52, 49
1, 205012, Control_c, 0, 64, 90
1, 205027, Control_c, 0, 64, 89
1, 205057, Control_c, 0, 64, 89
1, 205072, Control_c, 0, 64, 88
1, 205081, Note_on_c, 0, 81, 59
1, 205085, Note_off_c, 0, 42, 35
1, 205087, Control_c, 0, 64, 87
1, 205088, Note_off_c, 0, 78, 38
1, 205102, Control_c, 0, 64, 86
1, 205114, Note_off_c, 0, 52, 62
1, 205117, Control_c, 0, 64, 84
1, 205132, Control_c, 0, 64, 82
1, 205137, Note_on_c, 0, 57, 49
1, 205146, Control_c, 0, 64, 80
1, 205161, Control_c, 0, 64, 77
1, 205176, Control_c, 0, 64, 75
1, 205190, Note_off_c, 0, 81, 55
1, 205191, Control_c, 0, 64, 73
1, 205206, Control_c, 0, 64, 72
1, 205230, Note_on_c, 0, 83, 53
1, 205236, Control_c, 0, 64, 73
1, 205240, Note_off_c, 0, 57, 61
1, 205251, Control_c, 0, 64, 73
1, 205255, Note_on_c, 0, 61, 68
1, 205265, Control_c, 0, 64, 75
1, 205280, Control_c, 0, 64, 76
1, 205295, Control_c, 0, 64, 78
1, 205310, Control_c, 0, 64, 79
1, 205339, Note_on_c, 0, 81, 45
1, 205339, Control_c, 0, 64, 80
1, 205354, Control_c, 0, 64, 80
1, 205387, Note_off_c, 0, 83, 40
1, 205394, Note_off_c, 0, 61, 62
1, 205395, Note_off_c, 0, 81, 55
1, 205424, Note_on_c, 0, 78, 45
1, 205428, Control_c, 0, 64, 80
1, 205453, Note_off_c, 0, 78, 57
1, 205458, Control_c, 0, 64, 79
1, 205497, Note_on_c, 0, 76, 39
1, 205527, Note_off_c, 0, 76, 53
1, 205573, Note_on_c, 0, 73, 54
1, 205615, Note_off_c, 0, 73, 62
1, 205628, Control_c, 0, 64, 79
1, 205712, Poly_aftertouch_c, 0, 69, 0
1, 205730, Note_on_c, 0, 66, 32
1, 205760, Note_off_c, 0, 66, 51
1, 205782, Note_on_c, 0, 64, 53
1, 205818, Note_off_c, 0, 64, 65
1, 205893, Note_on_c, 0, 61, 27
1, 205926, Note_off_c, 0, 61, 49
1, 205963, Note_on_c, 0, 64, 38
1, 205996, Note_off_c, 0, 64, 54
1, 206045, Note_on_c, 0, 66, 46
1, 206094, Note_off_c, 0, 66, 56
1, 206188, Note_on_c, 0, 73, 51
1, 206193, Poly_aftertouch_c, 0, 69, 0
1, 206218, Note_off_c, 0, 73, 64
1, 206234, Control_c, 0, 64, 78
1, 206285, Note_on_c, 0, 76, 50
1, 206333, Note_off_c, 0, 76, 47
1, 206370, Note_on_c, 0, 78, 53
1, 206419, Control_c, 0, 64, 77
1, 206435, Control_c, 0, 64, 75
1, 206450, Control_c, 0, 64, 73
1, 206452, Note_on_c, 0, 40, 39
1, 206459, Note_on_c, 0, 47, 40
1, 206461, Note_off_c, 0, 78, 37
1, 206465, Control_c, 0, 64, 71
1, 206466, Note_on_c, 0, 81, 55
1, 206480, Control_c, 0, 64, 69
1, 206494, Control_c, 0, 64, 68
1, 206524, Control_c, 0, 64, 70
1, 206539, Control_c, 0, 64, 73
1, 206553, Control_c, 0, 64, 78
1, 206568, Control_c, 0, 64, 84
1, 206578, Note_off_c, 0, 40, 57
1, 206583, Control_c, 0, 64, 92
1, 206598, Control_c, 0, 64, 100
1, 206603, Note_off_c, 0, 47, 56
1, 206613, Control_c, 0, 64, 109
1, 206628, Control_c, 0, 64, 119
1, 206643, Control_c, 0, 64, 124
1, 206658, Control_c, 0, 64, 127
1, 206740, Note_off_c, 0, 81, 34
1, 206773, Note_on_c, 0, 83, 43
1, 206780, Note_on_c, 0, 73, 75
1, 206810, Note_on_c, 0, 61, 51
1, 206866, Note_off_c, 0, 73, 61
1, 206875, Note_off_c, 0, 61, 56
1, 206910, Note_off_c, 0, 83, 51
1, 206950, Note_on_c, 0, 80, 43
1, 206990, Note_off_c, 0, 80, 49
1, 207104, Note_on_c, 0, 73, 45
1, 207127, Note_off_c, 0, 73, 59
1, 207147, Poly_aftertouch_c, 0, 76, 0
1, 207155, Control_c, 0, 67, 127
1, 207169, Control_c, 0, 67, 126
1, 207184, Control_c, 0, 67, 125
1, 207199, Control_c, 0, 67, 123
1, 207214, Control_c, 0, 67, 121
1, 207229, Control_c, 0, 67, 120
1, 207239, Note_on_c, 0, 68, 40
1, 207243, Control_c, 0, 67, 118
1, 207258, Control_c, 0, 67, 116
1, 207268, Note_off_c, 0, 68, 55
1, 207273, Control_c, 0, 67, 113
1, 207288, Control_c, 0, 67, 110
1, 207303, Control_c, 0, 67, 106
1, 207317, Control_c, 0, 67, 101
1, 207332, Control_c, 0, 67, 96
1, 207347, Control_c, 0, 67, 93
1, 207362, Control_c, 0, 67, 91
1, 207376, Control_c, 0, 67, 89
1, 207380, Note_on_c, 0, 61, 14
1, 207387, Note_on_c, 0, 75, 72
1, 207391, Control_c, 0, 67, 87
1, 207406, Control_c, 0, 67, 84
1, 207417, Note_on_c, 0, 63, 56
1, 207418, Note_on_c, 0, 59, 42
1, 207421, Control_c, 0, 67, 80
1, 207436, Control_c, 0, 67, 78
1, 207449, Note_off_c, 0, 59, 60
1, 207451, Control_c, 0, 67, 77
1, 207454, Note_off_c, 0, 75, 57
1, 207454, Note_off_c, 0, 61, 0
1, 207460, Note_off_c, 0, 63, 57
1, 207465, Control_c, 0, 67, 75
1, 207481, Control_c, 0, 67, 74
1, 207492, Poly_aftertouch_c, 0, 61, 127
1, 207496, Control_c, 0, 67, 72
1, 207511, Control_c, 0, 67, 69
1, 207526, Control_c, 0, 67, 67
1, 207540, Control_c, 0, 67, 64
1, 207547, Poly_aftertouch_c, 0, 61, 0
1, 207555, Control_c, 0, 67, 61
1, 207570, Control_c, 0, 67, 59
1, 207585, Control_c, 0, 67, 57
1, 207600, Control_c, 0, 67, 56
1, 207615, Control_c, 0, 67, 54
1, 207615, Note_on_c, 0, 68, 41
1, 207643, Note_off_c, 0, 68, 56
1, 207694, Note_on_c, 0, 71, 58
1, 207734, Note_off_c, 0, 71, 58
1, 207763, Control_c, 0, 67, 55
1, 207773, Note_on_c, 0, 73, 55
1, 207778, Control_c, 0, 67, 55
1, 207799, Control_c, 0, 67, 56
1, 207840, Note_off_c, 0, 73, 49
1, 207844, Control_c, 0, 67, 56
1, 207848, Note_on_c, 0, 76, 54
1, 207874, Control_c, 0, 67, 57
1, 207893, Note_on_c, 0, 80, 55
1, 207942, Note_off_c, 0, 76, 59
1, 207959, Note_on_c, 0, 68, 66
1, 207968, Note_off_c, 0, 80, 55
1, 207970, Note_on_c, 0, 56, 55
1, 207974, Note_on_c, 0, 83, 63
1, 207978, Control_c, 0, 67, 57
1, 208014, Note_off_c, 0, 56, 60
1, 208024, Note_off_c, 0, 83, 57
1, 208027, Note_off_c, 0, 68, 60
1, 208037, Control_c, 0, 67, 58
1, 208126, Control_c, 0, 67, 58
1, 208150, Note_on_c, 0, 76, 23
1, 208155, Control_c, 0, 67, 59
1, 208170, Control_c, 0, 67, 59
1, 208184, Note_on_c, 0, 73, 54
1, 208192, Note_off_c, 0, 76, 42
1, 208207, Note_off_c, 0, 73, 61
1, 208241, Note_on_c, 0, 71, 48
1, 208264, Note_off_c, 0, 71, 61
1, 208318, Note_on_c, 0, 68, 53
1, 208354, Note_off_c, 0, 68, 63
1, 208445, Note_on_c, 0, 61, 45
1, 208476, Poly_aftertouch_c, 0, 64, 0
1, 208476, Note_off_c, 0, 61, 61
1, 208550, Note_on_c, 0, 71, 66
1, 208598, Note_off_c, 0, 71, 62
1, 208599, Note_on_c, 0, 61, 44
1, 208616, Poly_aftertouch_c, 0, 59, 0
1, 208637, Note_off_c, 0, 61, 61
1, 208718, Poly_aftertouch_c, 0, 64, 127
1, 208728, Note_on_c, 0, 68, 43
1, 208746, Poly_aftertouch_c, 0, 64, 0
1, 208750, Note_off_c, 0, 68, 60
1, 208801, Control_c, 0, 67, 60
1, 208812, Note_on_c, 0, 71, 55
1, 208851, Note_off_c, 0, 71, 59
1, 208887, Note_on_c, 0, 73, 59
1, 208962, Note_off_c, 0, 73, 41
1, 209016, Note_on_c, 0, 80, 49
1, 209062, Note_off_c, 0, 80, 59
1, 209096, Note_on_c, 0, 83, 51
1, 209097, Note_on_c, 0, 73, 61
1, 209112, Control_c, 0, 67, 60
1, 209126, Note_on_c, 0, 61, 41
1, 209135, Note_off_c, 0, 83, 63
1, 209142, Control_c, 0, 67, 61
1, 209158, Note_off_c, 0, 73, 57
1, 209161, Note_off_c, 0, 61, 56
1, 209186, Control_c, 0, 67, 61
1, 209209, Note_on_c, 0, 80, 15
1, 209231, Control_c, 0, 67, 62
1, 209248, Note_on_c, 0, 76, 48
1, 209251, Note_off_c, 0, 80, 44
1, 209260, Control_c, 0, 67, 62
1, 209275, Control_c, 0, 67, 63
1, 209283, Note_off_c, 0, 76, 63
1, 209298, Control_c, 0, 67, 64
1, 209305, Note_on_c, 0, 73, 53
1, 209313, Control_c, 0, 67, 65
1, 209327, Control_c, 0, 67, 65
1, 209339, Note_off_c, 0, 73, 64
1, 209342, Control_c, 0, 67, 66
1, 209357, Control_c, 0, 67, 67
1, 209370, Note_on_c, 0, 71, 52
1, 209371, Control_c, 0, 67, 68
1, 209386, Control_c, 0, 67, 69
1, 209391, Note_off_c, 0, 71, 63
1, 209401, Control_c, 0, 67, 71
1, 209416, Control_c, 0, 67, 73
1, 209431, Control_c, 0, 67, 75
1, 209445, Control_c, 0, 67, 76
1, 209454, Note_on_c, 0, 68, 47
1, 209460, Control_c, 0, 67, 77
1, 209475, Control_c, 0, 67, 78
1, 209478, Note_off_c, 0, 68, 59
1, 209505, Control_c, 0, 67, 78
1, 209569, Note_on_c, 0, 61, 44
1, 209599, Note_off_c, 0, 61, 58
1, 209606, Poly_aftertouch_c, 0, 64, 0
1, 209639, Note_on_c, 0, 59, 48
1, 209657, Note_on_c, 0, 75, 57
1, 209667, Note_on_c, 0, 63, 45
1, 209679, Note_off_c, 0, 59, 54
1, 209704, Note_off_c, 0, 75, 56
1, 209705, Note_on_c, 0, 61, 47
1, 209717, Note_off_c, 0, 63, 57
1, 209746, Note_off_c, 0, 61, 61
1, 209757, Control_c, 0, 67, 78
1, 209796, Note_on_c, 0, 64, 19
1, 209837, Note_off_c, 0, 64, 52
1, 209841, Note_on_c, 0, 68, 51
1, 209871, Note_off_c, 0, 68, 64
1, 209906, Control_c, 0, 67, 77
1, 209934, Note_on_c, 0, 71, 51
1, 209973, Note_off_c, 0, 71, 59
1, 210005, Note_on_c, 0, 73, 57
1, 210009, Control_c, 0, 67, 77
1, 210093, Note_on_c, 0, 76, 49
1, 210095, Note_off_c, 0, 73, 55
1, 210139, Note_on_c, 0, 80, 54
1, 210204, Note_off_c, 0, 80, 61
1, 210207, Note_on_c, 0, 68, 51
1, 210214, Note_off_c, 0, 76, 43
1, 210217, Note_on_c, 0, 56, 51
1, 210219, Note_on_c, 0, 83, 57
1, 210260, Note_off_c, 0, 83, 58
1, 210265, Note_off_c, 0, 56, 59
1, 210269, Note_off_c, 0, 68, 57
1, 210351, Poly_aftertouch_c, 0, 80, 127
1, 210354, Note_on_c, 0, 76, 43
1, 210384, Poly_aftertouch_c, 0, 80, 0
1, 210387, Control_c, 0, 67, 77
1, 210396, Note_off_c, 0, 76, 60
1, 210411, Note_on_c, 0, 73, 52
1, 210417, Control_c, 0, 67, 78
1, 210437, Note_off_c, 0, 73, 61
1, 210461, Control_c, 0, 67, 78
1, 210462, Note_on_c, 0, 71, 53
1, 210482, Note_off_c, 0, 71, 63
1, 210491, Control_c, 0, 67, 79
1, 210506, Control_c, 0, 67, 79
1, 210520, Control_c, 0, 67, 80
1, 210545, Note_on_c, 0, 68, 50
1, 210550, Control_c, 0, 67, 80
1, 210565, Control_c, 0, 67, 81
1, 210577, Note_off_c, 0, 68, 62
1, 210580, Control_c, 0, 67, 83
1, 210594, Control_c, 0, 67, 86
1, 210609, Control_c, 0, 67, 87
1, 210624, Control_c, 0, 67, 88
1, 210639, Control_c, 0, 67, 89
1, 210654, Control_c, 0, 67, 90
1, 210661, Note_on_c, 0, 61, 51
1, 210670, Control_c, 0, 67, 91
1, 210684, Control_c, 0, 67, 93
1, 210699, Note_off_c, 0, 61, 61
1, 210699, Control_c, 0, 67, 95
1, 210714, Control_c, 0, 67, 96
1, 210729, Control_c, 0, 67, 97
1, 210750, Note_on_c, 0, 59, 40
1, 210775, Note_on_c, 0, 71, 49
1, 210794, Note_off_c, 0, 59, 50
1, 210822, Note_off_c, 0, 71, 65
1, 210822, Note_on_c, 0, 61, 46
1, 210856, Note_off_c, 0, 61, 63
1, 210870, Control_c, 0, 67, 96
1, 210899, Control_c, 0, 67, 96
1, 210910, Note_on_c, 0, 64, 14
1, 210953, Note_on_c, 0, 68, 46
1, 210956, Note_off_c, 0, 64, 52
1, 210977, Note_off_c, 0, 68, 60
1, 211047, Control_c, 0, 67, 95
1, 211048, Note_on_c, 0, 71, 51
1, 211084, Note_off_c, 0, 71, 60
1, 211114, Note_on_c, 0, 73, 57
1, 211174, Note_off_c, 0, 73, 51
1, 211195, Control_c, 0, 67, 95
1, 211238, Note_on_c, 0, 80, 55
1, 211294, Note_off_c, 0, 80, 54
1, 211312, Note_on_c, 0, 73, 58
1, 211322, Note_on_c, 0, 83, 53
1, 211334, Note_on_c, 0, 61, 47
1, 211364, Note_off_c, 0, 83, 60
1, 211373, Note_off_c, 0, 61, 59
1, 211379, Note_off_c, 0, 73, 59
1, 211403, Control_c, 0, 67, 95
1, 211421, Note_on_c, 0, 80, 37
1, 211450, Note_off_c, 0, 80, 56
1, 211463, Control_c, 0, 67, 96
1, 211477, Note_on_c, 0, 76, 44
1, 211493, Control_c, 0, 67, 96
1, 211507, Control_c, 0, 67, 97
1, 211514, Note_off_c, 0, 76, 60
1, 211520, Note_on_c, 0, 73, 51
1, 211522, Control_c, 0, 67, 98
1, 211559, Control_c, 0, 67, 98
1, 211564, Note_off_c, 0, 73, 64
1, 211573, Control_c, 0, 67, 99
1, 211588, Note_on_c, 0, 71, 53
1, 211588, Control_c, 0, 67, 103
1, 211603, Control_c, 0, 67, 107
1, 211609, Note_off_c, 0, 71, 64
1, 211618, Control_c, 0, 67, 112
1, 211633, Control_c, 0, 67, 114
1, 211648, Control_c, 0, 67, 116
1, 211663, Control_c, 0, 67, 117
1, 211675, Note_on_c, 0, 68, 43
1, 211692, Control_c, 0, 67, 118
1, 211704, Note_off_c, 0, 68, 55
1, 211737, Note_on_c, 0, 64, 45
1, 211737, Control_c, 0, 67, 118
1, 211784, Note_off_c, 0, 64, 57
1, 211791, Note_on_c, 0, 61, 50
1, 211824, Note_off_c, 0, 61, 63
1, 211880, Note_on_c, 0, 75, 52
1, 211897, Note_on_c, 0, 63, 42
1, 211916, Note_on_c, 0, 59, 3
1, 211933, Note_on_c, 0, 61, 45
1, 211934, Note_off_c, 0, 59, 0
1, 211941, Note_off_c, 0, 75, 51
1, 211949, Note_off_c, 0, 63, 55
1, 211955, Poly_aftertouch_c, 0, 59, 0
1, 211963, Note_off_c, 0, 61, 62
1, 212011, Note_on_c, 0, 64, 12
1, 212054, Note_off_c, 0, 64, 52
1, 212074, Note_on_c, 0, 68, 43
1, 212100, Note_off_c, 0, 68, 58
1, 212151, Control_c, 0, 67, 118
1, 212154, Note_on_c, 0, 71, 55
1, 212194, Note_off_c, 0, 71, 59
1, 212227, Note_on_c, 0, 73, 56
1, 212314, Note_off_c, 0, 73, 40
1, 212317, Note_on_c, 0, 76, 49
1, 212365, Note_on_c, 0, 80, 54
1, 212419, Note_off_c, 0, 76, 36
1, 212428, Note_off_c, 0, 80, 57
1, 212438, Note_on_c, 0, 68, 41
1, 212440, Note_on_c, 0, 56, 45
1, 212453, Note_on_c, 0, 83, 53
1, 212493, Note_off_c, 0, 83, 59
1, 212495, Note_off_c, 0, 56, 59
1, 212496, Note_off_c, 0, 68, 56
1, 212570, Note_on_c, 0, 80, 9
1, 212602, Note_on_c, 0, 76, 47
1, 212619, Note_off_c, 0, 80, 52
1, 212631, Note_off_c, 0, 76, 59
1, 212651, Note_on_c, 0, 73, 48
1, 212676, Note_off_c, 0, 73, 59
1, 212703, Note_on_c, 0, 71, 50
1, 212724, Note_off_c, 0, 71, 63
1, 212784, Note_on_c, 0, 68, 48
1, 212814, Note_off_c, 0, 68, 63
1, 212840, Note_on_c, 0, 64, 43
1, 212871, Control_c, 0, 67, 118
1, 212888, Note_off_c, 0, 64, 58
1, 212901, Control_c, 0, 67, 119
1, 212902, Note_on_c, 0, 61, 45
1, 212915, Control_c, 0, 67, 119
1, 212933, Note_off_c, 0, 61, 59
1, 212986, Note_on_c, 0, 59, 41
1, 212989, Control_c, 0, 67, 120
1, 213006, Note_on_c, 0, 71, 56
1, 213019, Control_c, 0, 67, 122
1, 213023, Note_off_c, 0, 59, 52
1, 213042, Control_c, 0, 67, 125
1, 213047, Note_off_c, 0, 71, 66
1, 213053, Note_on_c, 0, 61, 38
1, 213057, Control_c, 0, 67, 127
1, 213073, Control_c, 0, 67, 127
1, 213087, Note_off_c, 0, 61, 62
1, 213127, Note_on_c, 0, 64, 29
1, 213163, Note_off_c, 0, 64, 53
1, 213183, Note_on_c, 0, 68, 48
1, 213209, Note_off_c, 0, 68, 62
1, 213277, Note_on_c, 0, 71, 46
1, 213311, Note_off_c, 0, 71, 50
1, 213354, Note_on_c, 0, 73, 51
1, 213395, Note_off_c, 0, 73, 59
1, 213425, Note_on_c, 0, 76, 42
1, 213468, Note_on_c, 0, 80, 50
1, 213474, Note_off_c, 0, 76, 44
1, 213518, Note_off_c, 0, 80, 56
1, 213535, Note_on_c, 0, 73, 52
1, 213546, Note_on_c, 0, 83, 52
1, 213550, Note_on_c, 0, 61, 44
1, 213584, Note_off_c, 0, 83, 57
1, 213598, Note_off_c, 0, 61, 57
1, 213601, Note_off_c, 0, 73, 60
1, 213688, Note_on_c, 0, 76, 41
1, 213719, Note_off_c, 0, 76, 60
1, 213733, Note_on_c, 0, 73, 51
1, 213762, Note_off_c, 0, 73, 63
1, 213806, Note_on_c, 0, 71, 46
1, 213829, Note_off_c, 0, 71, 61
1, 213894, Note_on_c, 0, 68, 35
1, 213928, Note_off_c, 0, 68, 51
1, 214001, Note_on_c, 0, 61, 46
1, 214032, Note_off_c, 0, 61, 61
1, 214078, Note_on_c, 0, 59, 36
1, 214089, Note_on_c, 0, 75, 49
1, 214101, Note_on_c, 0, 63, 44
1, 214120, Note_off_c, 0, 59, 48
1, 214136, Note_on_c, 0, 61, 46
1, 214139, Note_off_c, 0, 75, 53
1, 214149, Note_off_c, 0, 63, 58
1, 214168, Note_off_c, 0, 61, 62
1, 214206, Note_on_c, 0, 64, 29
1, 214243, Note_off_c, 0, 64, 53
1, 214261, Note_on_c, 0, 68, 51
1, 214289, Note_off_c, 0, 68, 64
1, 214354, Note_on_c, 0, 71, 51
1, 214392, Note_off_c, 0, 71, 60
1, 214424, Note_on_c, 0, 73, 54
1, 214481, Note_off_c, 0, 73, 50
1, 214508, Note_on_c, 0, 76, 39
1, 214554, Note_on_c, 0, 80, 53
1, 214572, Note_off_c, 0, 76, 41
1, 214602, Note_off_c, 0, 80, 54
1, 214631, Note_on_c, 0, 83, 55
1, 214632, Note_on_c, 0, 68, 41
1, 214638, Note_on_c, 0, 56, 40
1, 214676, Note_off_c, 0, 83, 58
1, 214682, Note_off_c, 0, 56, 59
1, 214688, Note_off_c, 0, 68, 58
1, 214774, Note_on_c, 0, 76, 47
1, 214799, Poly_aftertouch_c, 0, 80, 0
1, 214809, Note_off_c, 0, 76, 59
1, 214834, Note_on_c, 0, 73, 45
1, 214860, Note_off_c, 0, 73, 58
1, 214891, Note_on_c, 0, 71, 44
1, 214918, Note_off_c, 0, 71, 58
1, 214971, Note_on_c, 0, 68, 44
1, 214995, Note_off_c, 0, 68, 59
1, 215070, Poly_aftertouch_c, 0, 64, 127
1, 215106, Poly_aftertouch_c, 0, 64, 0
1, 215109, Note_on_c, 0, 61, 29
1, 215149, Note_off_c, 0, 61, 47
1, 215168, Note_on_c, 0, 71, 47
1, 215186, Note_on_c, 0, 59, 13
1, 215231, Note_off_c, 0, 59, 50
1, 215237, Note_off_c, 0, 71, 62
1, 215279, Note_on_c, 0, 61, 19
1, 215326, Note_off_c, 0, 61, 53
1, 215368, Note_on_c, 0, 68, 44
1, 215394, Note_off_c, 0, 68, 62
1, 215466, Note_on_c, 0, 71, 45
1, 215505, Note_off_c, 0, 71, 49
1, 215552, Note_on_c, 0, 73, 47
1, 215617, Note_off_c, 0, 73, 50
1, 215675, Poly_aftertouch_c, 0, 76, 127
1, 215705, Note_on_c, 0, 80, 51
1, 215796, Poly_aftertouch_c, 0, 76, 0
1, 215823, Note_off_c, 0, 80, 43
1, 215851, Note_on_c, 0, 47, 36
1, 215854, Note_on_c, 0, 40, 28
1, 215856, Note_on_c, 0, 83, 20
1, 215897, Note_off_c, 0, 83, 51
1, 215940, Note_on_c, 0, 80, 53
1, 215989, Note_off_c, 0, 80, 54
1, 215995, Note_off_c, 0, 40, 36
1, 215996, Note_off_c, 0, 47, 35
1, 216062, Note_on_c, 0, 76, 24
1, 216102, Note_off_c, 0, 76, 50
1, 216104, Note_on_c, 0, 73, 54
1, 216142, Note_off_c, 0, 73, 63
1, 216185, Note_on_c, 0, 71, 48
1, 216207, Note_off_c, 0, 71, 62
1, 216271, Note_on_c, 0, 68, 44
1, 216314, Note_off_c, 0, 68, 62
1, 216359, Note_on_c, 0, 64, 32
1, 216400, Note_on_c, 0, 61, 48
1, 216418, Note_off_c, 0, 64, 44
1, 216443, Note_off_c, 0, 61, 55
1, 216483, Note_on_c, 0, 47, 33
1, 216548, Note_on_c, 0, 49, 45
1, 216588, Note_off_c, 0, 47, 34
1, 216622, Note_on_c, 0, 52, 36
1, 216646, Note_off_c, 0, 49, 56
1, 216668, Note_off_c, 0, 52, 60
1, 216675, Note_on_c, 0, 56, 40
1, 216707, Note_off_c, 0, 56, 57
1, 216727, Note_on_c, 0, 59, 45
1, 216811, Note_on_c, 0, 61, 45
1, 216818, Note_off_c, 0, 59, 53
1, 216854, Note_on_c, 0, 64, 38
1, 216867, Note_off_c, 0, 61, 58
1, 216909, Note_off_c, 0, 64, 45
1, 216922, Note_on_c, 0, 68, 56
1, 216956, Note_off_c, 0, 68, 62
1, 216998, Note_on_c, 0, 59, 38
1, 217079, Note_on_c, 0, 61, 42
1, 217100, Note_off_c, 0, 59, 36
1, 217121, Note_on_c, 0, 64, 45
1, 217159, Note_off_c, 0, 61, 53
1, 217170, Note_off_c, 0, 64, 61
1, 217192, Note_on_c, 0, 68, 32
1, 217227, Note_off_c, 0, 68, 52
1, 217231, Note_on_c, 0, 71, 45
1, 217290, Note_on_c, 0, 73, 44
1, 217293, Note_off_c, 0, 71, 55
1, 217339, Note_on_c, 0, 76, 44
1, 217343, Note_off_c, 0, 73, 61
1, 217389, Note_off_c, 0, 76, 49
1, 217408, Note_on_c, 0, 80, 48
1, 217434, Note_off_c, 0, 80, 64
1, 217493, Note_on_c, 0, 71, 42
1, 217564, Note_on_c, 0, 73, 48
1, 217568, Note_off_c, 0, 71, 49
1, 217633, Note_on_c, 0, 76, 29
1, 217672, Note_on_c, 0, 80, 46
1, 217673, Note_off_c, 0, 73, 37
1, 217694, Note_off_c, 0, 80, 62
1, 217698, Note_on_c, 0, 88, 56
1, 217707, Note_off_c, 0, 76, 40
1, 217788, Note_on_c, 0, 92, 51
1, 217856, Note_on_c, 0, 95, 51
1, 217911, Note_off_c, 0, 88, 40
1, 217961, Note_on_c, 0, 97, 47
1, 217986, Note_off_c, 0, 92, 38
1, 218000, Note_off_c, 0, 95, 37
1, 218197, Note_on_c, 0, 99, 43
1, 218213, Note_on_c, 0, 92, 16
1, 218215, Note_on_c, 0, 40, 24
1, 218215, Note_on_c, 0, 87, 31
1, 218253, Note_on_c, 0, 47, 14
1, 218279, Note_off_c, 0, 97, 18
1, 218574, Note_off_c, 0, 87, 41
1, 218786, Note_off_c, 0, 92, 40
1, 219723, Note_off_c, 0, 40, 26
1, 220401, Note_off_c, 0, 47, 16
1, 220965, Note_off_c, 0, 99, 31
1, 221648, Control_c, 0, 64, 123
1, 221663, Control_c, 0, 64, 121
1, 221677, Control_c, 0, 64, 119
1, 221692, Control_c, 0, 64, 119
1, 221707, Control_c, 0, 64, 118
1, 221722, Control_c, 0, 64, 117
1, 221737, Control_c, 0, 64, 115
1, 221751, Control_c, 0, 64, 114
1, 221766, Control_c, 0, 64, 114
1, 221781, Control_c, 0, 64, 113
1, 221796, Control_c, 0, 64, 111
1, 221811, Control_c, 0, 64, 110
1, 221825, Control_c, 0, 64, 110
1, 221841, Control_c, 0, 64, 109
1, 221856, Control_c, 0, 64, 109
1, 221871, Control_c, 0, 64, 108
1, 221886, Control_c, 0, 64, 107
1, 221901, Control_c, 0, 64, 107
1, 221915, Control_c, 0, 64, 106
1, 221930, Control_c, 0, 64, 105
1, 221945, Control_c, 0, 64, 104
1, 221959, Control_c, 0, 64, 103
1, 221974, Control_c, 0, 64, 102
1, 222027, Control_c, 0, 64, 101
1, 222041, Control_c, 0, 64, 100
1, 222056, Control_c, 0, 64, 99
1, 222071, Control_c, 0, 64, 98
1, 222086, Control_c, 0, 64, 98
1, 222100, Control_c, 0, 64, 97
1, 222115, Control_c, 0, 64, 97
1, 222130, Control_c, 0, 64, 96
1, 222161, Control_c, 0, 64, 95
1, 222175, Control_c, 0, 64, 95
1, 222190, Control_c, 0, 64, 94
1, 222205, Control_c, 0, 64, 93
1, 222220, Control_c, 0, 64, 92
1, 222235, Control_c, 0, 64, 92
1, 222249, Control_c, 0, 64, 91
1, 222293, Control_c, 0, 64, 90
1, 222308, Control_c, 0, 64, 89
1, 222323, Control_c, 0, 64, 89
1, 222338, Control_c, 0, 64, 88
1, 222367, Control_c, 0, 64, 87
1, 222397, Control_c, 0, 64, 86
1, 222412, Control_c, 0, 64, 85
1, 222427, Control_c, 0, 64, 84
1, 222456, Control_c, 0, 64, 84
1, 222471, Control_c, 0, 64, 83
1, 222486, Control_c, 0, 64, 83
1, 222501, Control_c, 0, 64, 81
1, 222516, Control_c, 0, 64, 81
1, 222546, Control_c, 0, 64, 80
1, 222575, Control_c, 0, 64, 80
1, 222590, Control_c, 0, 64, 79
1, 222605, Control_c, 0, 64, 78
1, 222620, Control_c, 0, 64, 78
1, 222635, Control_c, 0, 64, 77
1, 222665, Control_c, 0, 64, 77
1, 222695, Control_c, 0, 64, 76
1, 222710, Control_c, 0, 64, 76
1, 222724, Control_c, 0, 64, 75
1, 222739, Control_c, 0, 64, 75
1, 222754, Control_c, 0, 64, 74
1, 222820, Control_c, 0, 64, 74
1, 222835, Control_c, 0, 64, 73
1, 222850, Control_c, 0, 64, 73
1, 222865, Control_c, 0, 64, 72
1, 222880, Control_c, 0, 64, 71
1, 222910, Control_c, 0, 64, 71
1, 222939, Control_c, 0, 64, 70
1, 222969, Control_c, 0, 64, 70
1, 223013, Control_c, 0, 64, 69
1, 223028, Control_c, 0, 64, 69
1, 223072, Control_c, 0, 64, 68
1, 223087, Control_c, 0, 64, 68
1, 223102, Control_c, 0, 64, 67
1, 223146, Control_c, 0, 64, 67
1, 223176, Control_c, 0, 64, 66
1, 223205, Control_c, 0, 64, 66
1, 223264, Control_c, 0, 64, 65
1, 223309, Control_c, 0, 64, 65
1, 223384, Control_c, 0, 64, 64
1, 223398, Control_c, 0, 64, 64
1, 223443, Control_c, 0, 64, 63
1, 223488, Control_c, 0, 64, 63
1, 223503, Control_c, 0, 64, 62
1, 223554, Control_c, 0, 64, 62
1, 223569, Control_c, 0, 64, 61
1, 223584, Control_c, 0, 64, 60
1, 223599, Control_c, 0, 64, 60
1, 223614, Control_c, 0, 64, 59
1, 223643, Control_c, 0, 64, 59
1, 223658, Control_c, 0, 64, 58
1, 223673, Control_c, 0, 64, 57
1, 223688, Control_c, 0, 64, 56
1, 223746, Control_c, 0, 64, 56
1, 223761, Control_c, 0, 64, 55
1, 223776, Control_c, 0, 64, 54
1, 223791, Control_c, 0, 64, 54
1, 223998, Control_c, 0, 64, 54
1, 224027, Control_c, 0, 64, 55
1, 224132, Control_c, 0, 64, 55
1, 224220, Control_c, 0, 64, 56
1, 224288, Control_c, 0, 64, 56
1, 224317, Control_c, 0, 64, 57
1, 224406, Control_c, 0, 64, 57
1, 224540, Control_c, 0, 64, 58
1, 224643, Control_c, 0, 64, 58
1, 224673, Control_c, 0, 64, 59
1, 224880, Control_c, 0, 64, 59
1, 224969, Control_c, 0, 64, 60
1, 224999, Control_c, 0, 64, 60
1, 225140, Control_c, 0, 64, 60
1, 225186, Control_c, 0, 64, 59
1, 225215, Control_c, 0, 64, 59
1, 225230, Control_c, 0, 64, 58
1, 225245, Control_c, 0, 64, 57
1, 225260, Control_c, 0, 64, 57
1, 225274, Control_c, 0, 64, 55
1, 225289, Control_c, 0, 64, 52
1, 225304, Control_c, 0, 64, 51
1, 225318, Control_c, 0, 64, 50
1, 225333, Control_c, 0, 64, 50
1, 225348, Control_c, 0, 64, 48
1, 225363, Control_c, 0, 64, 46
1, 225378, Control_c, 0, 64, 40
1, 225393, Control_c, 0, 64, 11
1, 225408, Control_c, 0, 64, 0
1, 225571, Control_c, 0, 64, 26
1, 225585, Control_c, 0, 64, 40
1, 225600, Control_c, 0, 64, 51
1, 225615, Control_c, 0, 64, 59
1, 225630, Control_c, 0, 64, 63
1, 225644, Control_c, 0, 64, 64
1, 225659, Control_c, 0, 64, 65
1, 225674, Control_c, 0, 64, 66
1, 225674, Control_c, 0, 67, 127
1, 225689, Control_c, 0, 64, 67
1, 225689, Control_c, 0, 67, 125
1, 225704, Control_c, 0, 64, 70
1, 225704, Control_c, 0, 67, 123
1, 225718, Control_c, 0, 64, 73
1, 225718, Control_c, 0, 67, 120
1, 225733, Control_c, 0, 64, 76
1, 225733, Control_c, 0, 67, 116
1, 225748, Control_c, 0, 64, 79
1, 225748, Control_c, 0, 67, 110
1, 225771, Control_c, 0, 64, 82
1, 225771, Control_c, 0, 67, 101
1, 225786, Control_c, 0, 64, 85
1, 225786, Control_c, 0, 67, 94
1, 225800, Control_c, 0, 64, 88
1, 225800, Control_c, 0, 67, 87
1, 225815, Control_c, 0, 64, 91
1, 225815, Control_c, 0, 67, 80
1, 225830, Control_c, 0, 64, 95
1, 225830, Control_c, 0, 67, 74
1, 225846, Control_c, 0, 64, 99
1, 225846, Control_c, 0, 67, 67
1, 225861, Control_c, 0, 64, 103
1, 225861, Control_c, 0, 67, 61
1, 225876, Control_c, 0, 64, 109
1, 225876, Control_c, 0, 67, 55
1, 225890, Control_c, 0, 64, 118
1, 225890, Control_c, 0, 67, 50
1, 225905, Control_c, 0, 64, 127
1, 225905, Control_c, 0, 67, 46
1, 225920, Control_c, 0, 67, 41
1, 225935, Control_c, 0, 67, 36
1, 225949, Control_c, 0, 67, 31
1, 225964, Control_c, 0, 67, 25
1, 225979, Control_c, 0, 67, 18
1, 225994, Control_c, 0, 67, 10
1, 226009, Control_c, 0, 67, 0
1, 226084, End_track
0, 0, End_of_file
