0, 0, Header, 0, 1, 384
1, 0, Start_track
1, 0, Title_t, "Regard l'Esprit--Zhdanov        "
1, 0, Text_t, "2009 International Piano-e-Competition finals"
1, 0, Text_t, "captured June-July 2009"
1, 0, Text_t, "http://www.piano-e-competition.com/"
1, 0, Text_t, "standard-resolution version"
1, 0, Text_t, "File processed for distribution by software from Zenph Studios, Inc., http://www.zenph.com"
1, 0, Instrument_name_t, "Yamaha Disklavier Pro Mark IV concert grand piano, model DCFIIISM4PRO"
1, 0, Sequencer_specific, 39, 67, 113, 0, 1, 0, 1, 0, 82, 101, 103, 97, 114, 100, 32, 108, 39, 69, 115, 112, 114, 105, 116, 32, 68, 101, 110, 105, 115, 32, 90, 104, 100, 97, 110, 111, 118, 32, 32, 32
1, 0, Sequencer_specific, 6, 67, 113, 0, 0, 0, 69
1, 0, System_exclusive, 21, 67, 113, 126, 21, 0, 2, 2, 2, 3, 12, 8, 4, 10, 4, 12, 14, 15, 10, 1, 0, 247
1, 0, Sequencer_specific, 5, 67, 123, 12, 2, 1
1, 0, Tempo, 512820
1, 0, Time_signature, 4, 2, 24, 8
1, 0, System_exclusive, 5, 126, 127, 9, 1, 247
1, 1, System_exclusive, 8, 67, 16, 76, 0, 0, 126, 0, 247
1, 2, System_exclusive, 8, 67, 16, 76, 8, 9, 7, 1, 247
1, 3, Control_c, 0, 0, 0
1, 3, Control_c, 1, 0, 0
1, 3, Control_c, 2, 0, 0
1, 3, Control_c, 3, 0, 0
1, 3, Control_c, 4, 0, 0
1, 3, Control_c, 5, 0, 0
1, 3, Control_c, 6, 0, 0
1, 3, Control_c, 7, 0, 0
1, 3, Control_c, 8, 0, 0
1, 3, Control_c, 9, 0, 127
1, 3, Control_c, 10, 0, 0
1, 3, Control_c, 11, 0, 0
1, 3, Control_c, 12, 0, 0
1, 3, Control_c, 13, 0, 0
1, 3, Control_c, 14, 0, 0
1, 3, Control_c, 15, 0, 0
1, 4, Control_c, 0, 32, 0
1, 4, Control_c, 1, 32, 0
1, 4, Control_c, 2, 32, 0
1, 4, Control_c, 3, 32, 0
1, 4, Control_c, 4, 32, 0
1, 4, Control_c, 5, 32, 0
1, 4, Control_c, 6, 32, 0
1, 4, Control_c, 7, 32, 0
1, 4, Control_c, 8, 32, 0
1, 4, Control_c, 9, 32, 0
1, 4, Control_c, 10, 32, 0
1, 4, Control_c, 11, 32, 0
1, 4, Control_c, 12, 32, 0
1, 4, Control_c, 13, 32, 0
1, 4, Control_c, 14, 32, 0
1, 4, Control_c, 15, 32, 0
1, 5, Program_c, 0, 0
1, 5, Program_c, 1, 0
1, 5, Program_c, 2, 0
1, 5, Program_c, 3, 0
1, 5, Program_c, 4, 0
1, 5, Program_c, 5, 0
1, 5, Program_c, 6, 0
1, 5, Program_c, 7, 0
1, 5, Program_c, 8, 0
1, 5, Program_c, 9, 0
1, 5, Program_c, 10, 0
1, 5, Program_c, 11, 0
1, 5, Program_c, 12, 0
1, 5, Program_c, 13, 0
1, 5, Program_c, 14, 0
1, 5, Program_c, 15, 0
1, 6, Control_c, 0, 7, 100
1, 6, Control_c, 1, 7, 100
1, 6, Control_c, 2, 7, 100
1, 6, Control_c, 3, 7, 100
1, 6, Control_c, 4, 7, 100
1, 6, Control_c, 5, 7, 100
1, 6, Control_c, 6, 7, 100
1, 6, Control_c, 7, 7, 100
1, 6, Control_c, 8, 7, 100
1, 6, Control_c, 9, 7, 100
1, 6, Control_c, 10, 7, 100
1, 6, Control_c, 11, 7, 100
1, 6, Control_c, 12, 7, 100
1, 6, Control_c, 13, 7, 100
1, 6, Control_c, 14, 7, 100
1, 6, Control_c, 15, 7, 100
1, 1129, Note_on_c, 0, 32, 77
1, 1133, Note_on_c, 0, 44, 86
1, 1164, Note_off_c, 0, 44, 66
1, 1165, Note_off_c, 0, 32, 64
1, 1245, Note_on_c, 0, 31, 65
1, 1246, Note_on_c, 0, 43, 77
1, 1274, Note_off_c, 0, 43, 65
1, 1276, Note_off_c, 0, 31, 63
1, 1345, Note_on_c, 0, 33, 74
1, 1349, Note_on_c, 0, 45, 86
1, 1375, Note_off_c, 0, 33, 61
1, 1375, Note_off_c, 0, 45, 68
1, 1455, Note_on_c, 0, 32, 67
1, 1456, Note_on_c, 0, 44, 75
1, 1490, Note_off_c, 0, 44, 65
1, 1493, Note_off_c, 0, 32, 63
1, 1571, Note_on_c, 0, 31, 63
1, 1571, Note_on_c, 0, 43, 71
1, 1600, Note_off_c, 0, 43, 64
1, 1601, Note_off_c, 0, 31, 63
1, 1677, Note_on_c, 0, 33, 71
1, 1678, Note_on_c, 0, 45, 85
1, 1708, Note_off_c, 0, 45, 67
1, 1710, Note_off_c, 0, 33, 61
1, 1784, Note_on_c, 0, 30, 64
1, 1797, Note_on_c, 0, 42, 60
1, 1831, Note_off_c, 0, 30, 62
1, 1833, Note_off_c, 0, 42, 65
1, 1901, Note_on_c, 0, 33, 55
1, 1907, Note_on_c, 0, 45, 65
1, 1937, Note_off_c, 0, 45, 66
1, 1937, Note_off_c, 0, 33, 62
1, 2009, Note_on_c, 0, 36, 62
1, 2018, Note_on_c, 0, 48, 70
1, 2041, Note_off_c, 0, 36, 62
1, 2046, Note_off_c, 0, 48, 65
1, 2114, Note_on_c, 0, 48, 79
1, 2119, Note_on_c, 0, 36, 60
1, 2148, Note_off_c, 0, 36, 60
1, 2148, Note_off_c, 0, 48, 65
1, 2217, Note_on_c, 0, 48, 87
1, 2219, Note_on_c, 0, 36, 67
1, 2247, Note_off_c, 0, 48, 65
1, 2250, Note_off_c, 0, 36, 62
1, 2320, Note_on_c, 0, 36, 81
1, 2320, Note_on_c, 0, 48, 110
1, 2357, Note_off_c, 0, 48, 67
1, 2373, Note_off_c, 0, 36, 62
1, 2444, Note_on_c, 0, 44, 77
1, 2449, Note_on_c, 0, 32, 61
1, 2479, Note_off_c, 0, 44, 66
1, 2486, Note_off_c, 0, 32, 64
1, 2554, Note_on_c, 0, 43, 77
1, 2558, Note_on_c, 0, 31, 70
1, 2594, Note_off_c, 0, 43, 66
1, 2597, Note_off_c, 0, 31, 63
1, 2667, Note_on_c, 0, 45, 103
1, 2673, Note_on_c, 0, 33, 81
1, 2709, Note_off_c, 0, 45, 66
1, 2719, Note_off_c, 0, 33, 59
1, 2785, Note_on_c, 0, 30, 72
1, 2787, Note_on_c, 0, 42, 78
1, 2835, Note_off_c, 0, 42, 63
1, 2844, Note_off_c, 0, 30, 59
1, 2896, Note_on_c, 0, 45, 73
1, 2900, Note_on_c, 0, 33, 69
1, 2919, Note_off_c, 0, 45, 67
1, 2927, Note_off_c, 0, 33, 62
1, 3106, Note_on_c, 0, 67, 67
1, 3112, Note_on_c, 0, 49, 78
1, 3121, Note_on_c, 0, 69, 77
1, 3124, Note_on_c, 0, 75, 81
1, 3132, Note_off_c, 0, 67, 66
1, 3153, Control_c, 0, 64, 59
1, 3165, Note_on_c, 0, 61, 109
1, 3166, Note_on_c, 0, 65, 99
1, 3168, Note_on_c, 0, 48, 97
1, 3168, Control_c, 0, 64, 81
1, 3169, Note_off_c, 0, 49, 61
1, 3173, Note_on_c, 0, 78, 89
1, 3183, Control_c, 0, 64, 127
1, 3187, Note_off_c, 0, 75, 66
1, 3188, Note_off_c, 0, 78, 76
1, 3190, Note_off_c, 0, 48, 67
1, 3191, Note_off_c, 0, 65, 65
1, 3197, Note_off_c, 0, 69, 67
1, 3201, Note_off_c, 0, 61, 71
1, 3428, Control_c, 0, 64, 87
1, 3430, Note_on_c, 0, 44, 88
1, 3431, Note_on_c, 0, 32, 75
1, 3442, Control_c, 0, 64, 67
1, 3457, Control_c, 0, 64, 0
1, 3469, Note_off_c, 0, 32, 61
1, 3481, Note_off_c, 0, 44, 61
1, 3539, Note_on_c, 0, 45, 69
1, 3565, Note_off_c, 0, 45, 67
1, 3582, Note_on_c, 0, 33, 22
1, 3627, Note_off_c, 0, 33, 47
1, 3649, Note_on_c, 0, 48, 83
1, 3656, Note_on_c, 0, 36, 68
1, 3680, Note_off_c, 0, 48, 64
1, 3684, Note_off_c, 0, 36, 62
1, 3758, Note_on_c, 0, 36, 65
1, 3762, Note_on_c, 0, 48, 77
1, 3788, Note_off_c, 0, 48, 65
1, 3791, Note_off_c, 0, 36, 61
1, 3855, Note_on_c, 0, 48, 74
1, 3863, Note_on_c, 0, 36, 65
1, 3887, Note_off_c, 0, 48, 65
1, 3893, Note_off_c, 0, 36, 61
1, 3964, Note_on_c, 0, 48, 78
1, 3970, Note_on_c, 0, 36, 68
1, 3997, Note_off_c, 0, 48, 63
1, 4006, Note_off_c, 0, 36, 62
1, 4077, Note_on_c, 0, 49, 81
1, 4087, Note_on_c, 0, 37, 66
1, 4117, Note_off_c, 0, 37, 65
1, 4119, Note_off_c, 0, 49, 61
1, 4173, Note_on_c, 0, 50, 83
1, 4176, Note_on_c, 0, 38, 72
1, 4209, Note_off_c, 0, 38, 66
1, 4209, Note_off_c, 0, 50, 62
1, 4287, Note_on_c, 0, 48, 103
1, 4296, Note_on_c, 0, 36, 90
1, 4536, Note_on_c, 0, 44, 88
1, 4537, Note_off_c, 0, 48, 62
1, 4538, Note_on_c, 0, 32, 80
1, 4546, Note_off_c, 0, 36, 59
1, 4644, Note_on_c, 0, 31, 86
1, 4647, Note_on_c, 0, 43, 83
1, 4649, Note_off_c, 0, 32, 63
1, 4671, Note_off_c, 0, 44, 62
1, 4680, Note_off_c, 0, 31, 63
1, 4683, Note_off_c, 0, 43, 65
1, 4856, Note_on_c, 0, 49, 88
1, 4865, Note_on_c, 0, 67, 71
1, 4874, Note_on_c, 0, 75, 84
1, 4875, Note_on_c, 0, 69, 79
1, 4889, Note_off_c, 0, 67, 67
1, 4893, Note_on_c, 0, 62, 24
1, 4904, Note_on_c, 0, 54, 36
1, 4909, Control_c, 0, 64, 70
1, 4921, Note_on_c, 0, 61, 108
1, 4924, Control_c, 0, 64, 100
1, 4925, Note_on_c, 0, 48, 96
1, 4925, Note_on_c, 0, 78, 95
1, 4926, Note_on_c, 0, 65, 94
1, 4933, Note_off_c, 0, 62, 31
1, 4939, Control_c, 0, 64, 127
1, 4941, Note_off_c, 0, 78, 74
1, 4942, Note_off_c, 0, 49, 43
1, 4951, Note_off_c, 0, 69, 67
1, 4951, Note_off_c, 0, 75, 56
1, 4954, Note_off_c, 0, 48, 60
1, 4955, Note_off_c, 0, 54, 50
1, 4962, Note_off_c, 0, 61, 71
1, 4962, Note_off_c, 0, 65, 63
1, 5162, Control_c, 0, 64, 98
1, 5172, Note_on_c, 0, 36, 84
1, 5177, Control_c, 0, 64, 75
1, 5185, Note_on_c, 0, 48, 81
1, 5192, Control_c, 0, 64, 29
1, 5207, Control_c, 0, 64, 0
1, 5220, Note_off_c, 0, 36, 59
1, 5227, Note_on_c, 0, 49, 11
1, 5228, Note_off_c, 0, 49, 127
1, 5229, Note_off_c, 0, 48, 58
1, 5290, Note_on_c, 0, 45, 72
1, 5294, Note_on_c, 0, 33, 70
1, 5321, Note_off_c, 0, 45, 67
1, 5328, Note_off_c, 0, 33, 61
1, 5393, Note_on_c, 0, 48, 75
1, 5410, Note_on_c, 0, 36, 66
1, 5427, Note_off_c, 0, 48, 65
1, 5440, Note_off_c, 0, 36, 62
1, 5504, Note_on_c, 0, 48, 73
1, 5508, Note_on_c, 0, 36, 69
1, 5536, Note_off_c, 0, 48, 65
1, 5537, Note_off_c, 0, 36, 63
1, 5622, Note_on_c, 0, 36, 61
1, 5625, Note_on_c, 0, 48, 73
1, 5651, Note_off_c, 0, 36, 62
1, 5654, Note_off_c, 0, 48, 65
1, 5720, Note_on_c, 0, 36, 71
1, 5729, Note_on_c, 0, 48, 76
1, 5747, Note_off_c, 0, 36, 63
1, 5762, Note_off_c, 0, 48, 65
1, 5836, Note_on_c, 0, 48, 111
1, 5836, Note_on_c, 0, 36, 87
1, 6036, Note_off_c, 0, 36, 55
1, 6046, Note_off_c, 0, 48, 56
1, 6068, Note_on_c, 0, 33, 69
1, 6085, Note_on_c, 0, 45, 67
1, 6118, Note_off_c, 0, 45, 64
1, 6125, Note_off_c, 0, 33, 54
1, 6176, Note_on_c, 0, 49, 76
1, 6182, Note_on_c, 0, 37, 68
1, 6214, Note_off_c, 0, 49, 64
1, 6219, Note_off_c, 0, 37, 65
1, 6270, Note_on_c, 0, 36, 67
1, 6279, Note_on_c, 0, 48, 77
1, 6298, Note_off_c, 0, 36, 63
1, 6318, Note_off_c, 0, 48, 65
1, 6388, Note_on_c, 0, 50, 98
1, 6393, Note_on_c, 0, 38, 94
1, 6579, Note_off_c, 0, 38, 60
1, 6583, Note_on_c, 0, 36, 68
1, 6589, Note_off_c, 0, 50, 59
1, 6602, Note_on_c, 0, 48, 73
1, 6623, Note_off_c, 0, 36, 64
1, 6641, Note_off_c, 0, 48, 64
1, 6705, Note_on_c, 0, 37, 77
1, 6706, Note_on_c, 0, 49, 89
1, 6752, Note_off_c, 0, 49, 63
1, 6760, Note_off_c, 0, 37, 62
1, 6805, Note_on_c, 0, 38, 91
1, 6806, Note_on_c, 0, 50, 99
1, 6881, Note_off_c, 0, 38, 63
1, 6897, Control_c, 0, 64, 63
1, 6911, Note_on_c, 0, 48, 88
1, 6912, Control_c, 0, 64, 70
1, 6917, Note_on_c, 0, 36, 84
1, 6921, Note_off_c, 0, 50, 67
1, 6927, Control_c, 0, 64, 77
1, 6942, Control_c, 0, 64, 84
1, 6948, Note_off_c, 0, 48, 62
1, 6954, Note_off_c, 0, 36, 62
1, 6957, Control_c, 0, 64, 91
1, 6972, Control_c, 0, 64, 95
1, 7031, Control_c, 0, 64, 94
1, 7082, Control_c, 0, 64, 93
1, 7092, Note_on_c, 0, 49, 88
1, 7097, Control_c, 0, 64, 86
1, 7100, Note_on_c, 0, 67, 76
1, 7112, Control_c, 0, 64, 72
1, 7115, Note_on_c, 0, 69, 72
1, 7115, Note_on_c, 0, 75, 82
1, 7115, Note_on_c, 0, 62, 47
1, 7124, Note_off_c, 0, 67, 68
1, 7127, Control_c, 0, 64, 0
1, 7137, Note_off_c, 0, 69, 69
1, 7140, Note_off_c, 0, 62, 57
1, 7160, Note_off_c, 0, 49, 62
1, 7163, Note_on_c, 0, 65, 102
1, 7165, Note_on_c, 0, 48, 93
1, 7165, Note_on_c, 0, 61, 116
1, 7169, Note_on_c, 0, 78, 96
1, 7172, Control_c, 0, 64, 64
1, 7172, Note_on_c, 0, 69, 95
1, 7187, Control_c, 0, 64, 88
1, 7191, Note_off_c, 0, 48, 66
1, 7200, Note_off_c, 0, 75, 66
1, 7201, Control_c, 0, 64, 127
1, 7203, Note_off_c, 0, 78, 66
1, 7206, Note_off_c, 0, 65, 68
1, 7212, Note_on_c, 0, 73, 28
1, 7212, Note_off_c, 0, 69, 59
1, 7219, Note_off_c, 0, 61, 67
1, 7250, Note_off_c, 0, 73, 58
1, 7413, Note_on_c, 0, 62, 85
1, 7415, Note_on_c, 0, 49, 91
1, 7422, Control_c, 0, 64, 114
1, 7423, Note_on_c, 0, 67, 78
1, 7431, Note_on_c, 0, 69, 85
1, 7432, Note_on_c, 0, 75, 89
1, 7437, Control_c, 0, 64, 81
1, 7446, Note_off_c, 0, 67, 69
1, 7446, Note_off_c, 0, 62, 58
1, 7452, Control_c, 0, 64, 38
1, 7467, Control_c, 0, 64, 0
1, 7489, Note_off_c, 0, 49, 63
1, 7494, Note_on_c, 0, 48, 100
1, 7494, Note_on_c, 0, 61, 109
1, 7495, Note_on_c, 0, 65, 110
1, 7498, Control_c, 0, 64, 69
1, 7499, Note_on_c, 0, 78, 92
1, 7512, Control_c, 0, 64, 96
1, 7514, Note_off_c, 0, 78, 73
1, 7527, Control_c, 0, 64, 127
1, 7528, Note_off_c, 0, 69, 67
1, 7529, Note_off_c, 0, 48, 67
1, 7529, Note_off_c, 0, 75, 57
1, 7531, Note_off_c, 0, 61, 70
1, 7531, Note_off_c, 0, 65, 69
1, 7720, Control_c, 0, 64, 92
1, 7728, Note_on_c, 0, 33, 91
1, 7735, Control_c, 0, 64, 69
1, 7736, Note_on_c, 0, 45, 83
1, 7749, Control_c, 0, 64, 0
1, 7771, Note_off_c, 0, 45, 63
1, 7775, Note_off_c, 0, 33, 60
1, 7846, Note_on_c, 0, 48, 77
1, 7864, Note_on_c, 0, 36, 59
1, 7879, Note_off_c, 0, 48, 65
1, 7894, Note_off_c, 0, 36, 56
1, 7950, Note_on_c, 0, 48, 79
1, 7960, Note_on_c, 0, 36, 72
1, 7986, Note_off_c, 0, 36, 63
1, 7994, Note_off_c, 0, 48, 59
1, 8061, Note_on_c, 0, 45, 65
1, 8073, Note_on_c, 0, 33, 63
1, 8091, Note_off_c, 0, 45, 65
1, 8139, Note_off_c, 0, 33, 44
1, 8165, Note_on_c, 0, 48, 70
1, 8172, Note_on_c, 0, 36, 59
1, 8199, Note_off_c, 0, 48, 65
1, 8201, Note_off_c, 0, 36, 58
1, 8266, Note_on_c, 0, 49, 92
1, 8270, Note_on_c, 0, 37, 80
1, 8299, Note_off_c, 0, 37, 69
1, 8312, Note_off_c, 0, 49, 66
1, 8367, Note_on_c, 0, 49, 103
1, 8374, Note_on_c, 0, 37, 94
1, 8489, Note_on_c, 0, 50, 83
1, 8493, Note_off_c, 0, 37, 63
1, 8496, Note_on_c, 0, 38, 80
1, 8513, Note_off_c, 0, 49, 59
1, 8564, Note_off_c, 0, 38, 64
1, 8588, Note_off_c, 0, 50, 65
1, 8593, Note_on_c, 0, 48, 82
1, 8595, Note_on_c, 0, 36, 76
1, 8628, Note_off_c, 0, 36, 66
1, 8634, Note_off_c, 0, 48, 62
1, 8740, Note_on_c, 0, 49, 48
1, 8752, Note_on_c, 0, 46, 79
1, 8760, Note_on_c, 0, 58, 92
1, 8760, Note_on_c, 0, 61, 79
1, 8766, Note_on_c, 0, 54, 94
1, 8771, Note_off_c, 0, 49, 55
1, 8773, Control_c, 0, 64, 61
1, 8777, Note_on_c, 0, 36, 94
1, 8778, Note_on_c, 0, 48, 101
1, 8781, Note_off_c, 0, 61, 67
1, 8784, Note_on_c, 0, 55, 70
1, 8787, Control_c, 0, 64, 79
1, 8800, Note_off_c, 0, 58, 65
1, 8802, Note_on_c, 0, 53, 60
1, 8802, Note_off_c, 0, 46, 64
1, 8802, Control_c, 0, 64, 108
1, 8804, Note_off_c, 0, 55, 65
1, 8814, Note_on_c, 0, 39, 20
1, 8817, Control_c, 0, 64, 127
1, 8822, Note_off_c, 0, 36, 66
1, 8824, Note_off_c, 0, 54, 65
1, 8830, Note_off_c, 0, 48, 66
1, 8830, Note_off_c, 0, 53, 67
1, 8863, Note_off_c, 0, 39, 50
1, 8868, Poly_aftertouch_c, 0, 42, 0
1, 8951, Control_c, 0, 64, 109
1, 8966, Control_c, 0, 64, 79
1, 8980, Control_c, 0, 64, 30
1, 8982, Note_on_c, 0, 33, 102
1, 8983, Note_on_c, 0, 45, 105
1, 8995, Control_c, 0, 64, 0
1, 9025, Control_c, 0, 64, 64
1, 9039, Note_off_c, 0, 33, 62
1, 9040, Control_c, 0, 64, 77
1, 9046, Note_off_c, 0, 45, 64
1, 9054, Control_c, 0, 64, 91
1, 9069, Control_c, 0, 64, 108
1, 9085, Control_c, 0, 64, 127
1, 9145, Control_c, 0, 64, 110
1, 9159, Control_c, 0, 64, 88
1, 9174, Control_c, 0, 64, 68
1, 9189, Control_c, 0, 64, 0
1, 9196, Note_on_c, 0, 38, 79
1, 9196, Note_on_c, 0, 50, 84
1, 9246, Note_off_c, 0, 50, 63
1, 9250, Note_off_c, 0, 38, 61
1, 9303, Note_on_c, 0, 49, 81
1, 9323, Note_on_c, 0, 37, 70
1, 9355, Note_off_c, 0, 37, 66
1, 9360, Note_off_c, 0, 49, 61
1, 9408, Note_on_c, 0, 50, 82
1, 9418, Note_on_c, 0, 38, 67
1, 9457, Note_off_c, 0, 50, 61
1, 9462, Note_off_c, 0, 38, 62
1, 9515, Note_on_c, 0, 48, 75
1, 9530, Note_on_c, 0, 36, 64
1, 9553, Note_off_c, 0, 48, 63
1, 9564, Note_off_c, 0, 36, 61
1, 9616, Note_on_c, 0, 45, 78
1, 9618, Note_on_c, 0, 33, 72
1, 9652, Note_off_c, 0, 45, 66
1, 9655, Note_off_c, 0, 33, 64
1, 9724, Note_on_c, 0, 44, 88
1, 9731, Note_on_c, 0, 32, 72
1, 9771, Note_off_c, 0, 32, 63
1, 9780, Note_off_c, 0, 44, 63
1, 9831, Note_on_c, 0, 36, 70
1, 9836, Note_on_c, 0, 48, 83
1, 9870, Note_off_c, 0, 48, 61
1, 9877, Note_off_c, 0, 36, 58
1, 9935, Note_on_c, 0, 44, 84
1, 9937, Note_on_c, 0, 32, 70
1, 9977, Note_off_c, 0, 32, 63
1, 9989, Note_off_c, 0, 44, 60
1, 10030, Note_on_c, 0, 31, 74
1, 10045, Note_on_c, 0, 43, 80
1, 10108, Note_off_c, 0, 31, 62
1, 10109, Note_off_c, 0, 43, 62
1, 10147, Note_on_c, 0, 45, 89
1, 10150, Note_on_c, 0, 33, 72
1, 10182, Note_off_c, 0, 33, 61
1, 10182, Note_off_c, 0, 45, 64
1, 10284, Note_on_c, 0, 46, 82
1, 10286, Control_c, 0, 64, 55
1, 10287, Note_on_c, 0, 58, 87
1, 10287, Note_on_c, 0, 48, 117
1, 10291, Note_on_c, 0, 54, 90
1, 10292, Note_on_c, 0, 60, 73
1, 10293, Note_on_c, 0, 36, 88
1, 10301, Control_c, 0, 64, 80
1, 10305, Note_on_c, 0, 53, 80
1, 10305, Note_off_c, 0, 58, 71
1, 10308, Note_off_c, 0, 60, 67
1, 10309, Note_off_c, 0, 46, 67
1, 10315, Control_c, 0, 64, 127
1, 10322, Note_on_c, 0, 38, 44
1, 10323, Note_off_c, 0, 38, 127
1, 10325, Note_on_c, 0, 39, 31
1, 10326, Note_off_c, 0, 53, 69
1, 10328, Note_off_c, 0, 36, 62
1, 10328, Note_off_c, 0, 48, 64
1, 10330, Note_off_c, 0, 54, 59
1, 10355, Poly_aftertouch_c, 0, 38, 0
1, 10376, Note_off_c, 0, 39, 44
1, 10497, Note_on_c, 0, 33, 91
1, 10501, Note_on_c, 0, 45, 91
1, 10506, Control_c, 0, 64, 103
1, 10521, Control_c, 0, 64, 77
1, 10536, Control_c, 0, 64, 0
1, 10542, Note_off_c, 0, 45, 67
1, 10545, Note_off_c, 0, 33, 61
1, 10603, Note_on_c, 0, 48, 87
1, 10628, Note_on_c, 0, 36, 63
1, 10644, Note_off_c, 0, 48, 62
1, 10661, Note_off_c, 0, 36, 60
1, 10718, Note_on_c, 0, 48, 84
1, 10731, Note_on_c, 0, 36, 75
1, 10748, Note_off_c, 0, 48, 64
1, 10764, Note_off_c, 0, 36, 61
1, 10824, Note_on_c, 0, 44, 86
1, 10835, Note_on_c, 0, 32, 69
1, 10870, Note_off_c, 0, 32, 65
1, 10883, Note_off_c, 0, 44, 62
1, 10921, Note_on_c, 0, 31, 77
1, 10934, Note_on_c, 0, 43, 81
1, 10988, Note_off_c, 0, 31, 61
1, 10998, Note_off_c, 0, 43, 54
1, 11032, Note_on_c, 0, 45, 75
1, 11042, Note_on_c, 0, 33, 68
1, 11065, Note_off_c, 0, 45, 66
1, 11074, Note_off_c, 0, 33, 62
1, 11163, Note_on_c, 0, 58, 89
1, 11167, Control_c, 0, 64, 27
1, 11172, Note_on_c, 0, 56, 87
1, 11175, Note_on_c, 0, 33, 83
1, 11178, Note_on_c, 0, 45, 101
1, 11180, Note_on_c, 0, 51, 100
1, 11181, Control_c, 0, 64, 67
1, 11184, Note_on_c, 0, 44, 64
1, 11190, Note_on_c, 0, 42, 55
1, 11191, Note_off_c, 0, 58, 66
1, 11196, Control_c, 0, 64, 84
1, 11206, Note_off_c, 0, 56, 65
1, 11208, Note_on_c, 0, 35, 24
1, 11210, Note_off_c, 0, 44, 59
1, 11211, Control_c, 0, 64, 127
1, 11220, Note_off_c, 0, 42, 56
1, 11229, Note_off_c, 0, 33, 60
1, 11235, Note_off_c, 0, 51, 63
1, 11244, Note_off_c, 0, 45, 65
1, 11252, Note_off_c, 0, 35, 58
1, 11274, Poly_aftertouch_c, 0, 47, 0
1, 11293, Poly_aftertouch_c, 0, 47, 0
1, 11330, Control_c, 0, 64, 110
1, 11345, Control_c, 0, 64, 82
1, 11347, Note_on_c, 0, 43, 83
1, 11355, Note_on_c, 0, 55, 80
1, 11360, Control_c, 0, 64, 64
1, 11362, Note_on_c, 0, 53, 75
1, 11374, Control_c, 0, 64, 48
1, 11378, Note_off_c, 0, 55, 69
1, 11383, Note_on_c, 0, 42, 103
1, 11387, Note_on_c, 0, 30, 94
1, 11389, Control_c, 0, 64, 65
1, 11397, Note_on_c, 0, 49, 68
1, 11401, Note_off_c, 0, 43, 65
1, 11402, Note_off_c, 0, 53, 67
1, 11404, Control_c, 0, 64, 77
1, 11419, Control_c, 0, 64, 91
1, 11427, Note_off_c, 0, 49, 65
1, 11433, Note_off_c, 0, 30, 64
1, 11434, Control_c, 0, 64, 111
1, 11436, Note_off_c, 0, 42, 61
1, 11448, Control_c, 0, 64, 127
1, 11454, Poly_aftertouch_c, 0, 54, 127
1, 11475, Poly_aftertouch_c, 0, 54, 0
1, 11604, Control_c, 0, 64, 99
1, 11604, Control_c, 0, 67, 8
1, 11619, Note_on_c, 0, 30, 82
1, 11619, Control_c, 0, 64, 79
1, 11619, Control_c, 0, 67, 13
1, 11634, Control_c, 0, 64, 60
1, 11634, Control_c, 0, 67, 21
1, 11638, Note_on_c, 0, 42, 77
1, 11649, Control_c, 0, 64, 0
1, 11649, Control_c, 0, 67, 33
1, 11664, Control_c, 0, 67, 42
1, 11676, Note_off_c, 0, 30, 59
1, 11679, Control_c, 0, 67, 49
1, 11682, Note_off_c, 0, 42, 60
1, 11694, Control_c, 0, 67, 55
1, 11709, Control_c, 0, 67, 58
1, 11723, Control_c, 0, 67, 59
1, 11738, Control_c, 0, 67, 60
1, 11747, Note_on_c, 0, 43, 63
1, 11752, Note_on_c, 0, 31, 69
1, 11780, Note_off_c, 0, 43, 64
1, 11789, Note_off_c, 0, 31, 64
1, 11849, Note_on_c, 0, 44, 67
1, 11864, Note_on_c, 0, 32, 67
1, 11871, Control_c, 0, 67, 59
1, 11881, Note_off_c, 0, 44, 64
1, 11886, Control_c, 0, 67, 58
1, 11893, Note_off_c, 0, 32, 64
1, 11962, Note_on_c, 0, 32, 74
1, 11964, Note_on_c, 0, 44, 69
1, 12009, Note_off_c, 0, 32, 61
1, 12012, Note_off_c, 0, 44, 61
1, 12081, Note_on_c, 0, 43, 53
1, 12087, Note_on_c, 0, 31, 61
1, 12111, Note_off_c, 0, 43, 62
1, 12122, Note_off_c, 0, 31, 62
1, 12138, Control_c, 0, 67, 58
1, 12153, Control_c, 0, 67, 57
1, 12168, Control_c, 0, 67, 57
1, 12183, Control_c, 0, 67, 56
1, 12183, Note_on_c, 0, 45, 62
1, 12191, Note_on_c, 0, 33, 58
1, 12216, Note_off_c, 0, 45, 64
1, 12222, Note_off_c, 0, 33, 60
1, 12257, Control_c, 0, 67, 56
1, 12290, Note_on_c, 0, 48, 73
1, 12306, Note_on_c, 0, 36, 68
1, 12309, Control_c, 0, 67, 55
1, 12332, Note_off_c, 0, 48, 65
1, 12338, Note_off_c, 0, 36, 61
1, 12398, Control_c, 0, 67, 56
1, 12410, Note_on_c, 0, 45, 58
1, 12414, Note_on_c, 0, 33, 56
1, 12427, Control_c, 0, 67, 55
1, 12439, Note_off_c, 0, 45, 65
1, 12450, Note_off_c, 0, 33, 62
1, 12457, Control_c, 0, 67, 55
1, 12472, Control_c, 0, 67, 54
1, 12501, Control_c, 0, 67, 54
1, 12519, Note_on_c, 0, 48, 69
1, 12531, Control_c, 0, 67, 53
1, 12538, Note_on_c, 0, 36, 41
1, 12546, Control_c, 0, 67, 52
1, 12548, Note_off_c, 0, 48, 64
1, 12575, Note_off_c, 0, 36, 51
1, 12576, Control_c, 0, 67, 52
1, 12618, Note_on_c, 0, 48, 71
1, 12620, Control_c, 0, 67, 51
1, 12625, Note_on_c, 0, 36, 53
1, 12651, Note_off_c, 0, 48, 66
1, 12656, Note_off_c, 0, 36, 54
1, 12694, Control_c, 0, 67, 51
1, 12719, Note_on_c, 0, 36, 76
1, 12721, Note_on_c, 0, 48, 85
1, 12752, Note_off_c, 0, 36, 66
1, 12753, Control_c, 0, 67, 51
1, 12765, Note_off_c, 0, 48, 63
1, 12830, Note_on_c, 0, 48, 101
1, 12831, Note_on_c, 0, 36, 96
1, 12842, Control_c, 0, 67, 52
1, 12886, Control_c, 0, 67, 52
1, 12901, Control_c, 0, 67, 53
1, 12916, Control_c, 0, 67, 53
1, 12931, Note_on_c, 0, 49, 101
1, 12931, Control_c, 0, 67, 54
1, 12939, Note_on_c, 0, 37, 96
1, 12943, Note_off_c, 0, 36, 60
1, 12946, Control_c, 0, 67, 54
1, 12952, Note_off_c, 0, 48, 63
1, 12961, Control_c, 0, 67, 55
1, 12975, Control_c, 0, 67, 56
1, 12990, Control_c, 0, 67, 56
1, 13005, Control_c, 0, 67, 57
1, 13029, Note_on_c, 0, 48, 53
1, 13032, Note_on_c, 0, 36, 88
1, 13034, Note_off_c, 0, 37, 62
1, 13035, Control_c, 0, 67, 57
1, 13048, Note_on_c, 0, 47, 90
1, 13070, Note_off_c, 0, 49, 62
1, 13088, Control_c, 0, 67, 57
1, 13102, Note_off_c, 0, 47, 64
1, 13103, Control_c, 0, 67, 56
1, 13113, Note_off_c, 0, 36, 63
1, 13118, Control_c, 0, 67, 55
1, 13128, Note_off_c, 0, 48, 63
1, 13132, Control_c, 0, 67, 54
1, 13147, Control_c, 0, 67, 54
1, 13162, Control_c, 0, 67, 53
1, 13221, Control_c, 0, 67, 52
1, 13236, Control_c, 0, 67, 51
1, 13247, Note_on_c, 0, 49, 71
1, 13248, Note_on_c, 0, 48, 71
1, 13250, Note_on_c, 0, 67, 82
1, 13250, Control_c, 0, 67, 50
1, 13259, Note_on_c, 0, 69, 86
1, 13262, Note_on_c, 0, 60, 54
1, 13263, Note_off_c, 0, 60, 127
1, 13265, Control_c, 0, 67, 49
1, 13267, Note_on_c, 0, 75, 86
1, 13276, Note_on_c, 0, 51, 50
1, 13280, Control_c, 0, 67, 48
1, 13281, Note_off_c, 0, 67, 65
1, 13284, Note_off_c, 0, 49, 64
1, 13295, Control_c, 0, 67, 46
1, 13300, Note_off_c, 0, 48, 0
1, 13306, Note_off_c, 0, 51, 0
1, 13310, Control_c, 0, 64, 67
1, 13310, Control_c, 0, 67, 44
1, 13311, Note_on_c, 0, 58, 93
1, 13313, Note_on_c, 0, 65, 87
1, 13318, Poly_aftertouch_c, 0, 51, 0
1, 13320, Note_on_c, 0, 78, 90
1, 13321, Note_on_c, 0, 60, 88
1, 13322, Note_on_c, 0, 59, 83
1, 13324, Control_c, 0, 64, 84
1, 13333, Poly_aftertouch_c, 0, 47, 127
1, 13334, Note_off_c, 0, 78, 75
1, 13337, Poly_aftertouch_c, 0, 48, 127
1, 13339, Control_c, 0, 64, 126
1, 13339, Control_c, 0, 67, 43
1, 13340, Note_off_c, 0, 59, 67
1, 13340, Note_off_c, 0, 75, 61
1, 13342, Note_off_c, 0, 60, 72
1, 13345, Note_off_c, 0, 69, 66
1, 13345, Poly_aftertouch_c, 0, 47, 0
1, 13346, Note_on_c, 0, 73, 35
1, 13346, Poly_aftertouch_c, 0, 48, 0
1, 13354, Control_c, 0, 64, 127
1, 13355, Note_off_c, 0, 65, 66
1, 13360, Note_off_c, 0, 58, 63
1, 13369, Control_c, 0, 67, 44
1, 13380, Note_off_c, 0, 73, 55
1, 13384, Control_c, 0, 67, 45
1, 13399, Control_c, 0, 67, 45
1, 13414, Control_c, 0, 67, 46
1, 13429, Control_c, 0, 67, 47
1, 13443, Control_c, 0, 67, 48
1, 13458, Control_c, 0, 67, 49
1, 13473, Control_c, 0, 67, 50
1, 13488, Control_c, 0, 67, 51
1, 13502, Control_c, 0, 67, 51
1, 13544, Note_on_c, 0, 31, 88
1, 13545, Note_on_c, 0, 43, 83
1, 13547, Control_c, 0, 64, 96
1, 13547, Control_c, 0, 67, 52
1, 13562, Control_c, 0, 64, 73
1, 13562, Control_c, 0, 67, 53
1, 13576, Control_c, 0, 64, 0
1, 13576, Control_c, 0, 67, 53
1, 13593, Note_off_c, 0, 31, 62
1, 13601, Note_off_c, 0, 43, 56
1, 13636, Control_c, 0, 67, 53
1, 13644, Note_on_c, 0, 44, 82
1, 13661, Note_on_c, 0, 32, 71
1, 13703, Note_off_c, 0, 44, 63
1, 13709, Control_c, 0, 67, 52
1, 13711, Note_off_c, 0, 32, 58
1, 13754, Note_on_c, 0, 48, 78
1, 13761, Note_on_c, 0, 36, 76
1, 13783, Control_c, 0, 67, 51
1, 13787, Note_off_c, 0, 48, 65
1, 13806, Control_c, 0, 67, 50
1, 13807, Note_off_c, 0, 36, 62
1, 13821, Control_c, 0, 67, 49
1, 13836, Control_c, 0, 67, 48
1, 13872, Note_on_c, 0, 45, 66
1, 13875, Note_on_c, 0, 33, 66
1, 13905, Note_off_c, 0, 45, 65
1, 13916, Note_off_c, 0, 33, 63
1, 13955, Control_c, 0, 67, 49
1, 13970, Control_c, 0, 67, 49
1, 13978, Note_on_c, 0, 36, 73
1, 13980, Note_on_c, 0, 48, 85
1, 13985, Control_c, 0, 67, 50
1, 13999, Control_c, 0, 67, 50
1, 14014, Control_c, 0, 67, 51
1, 14028, Note_off_c, 0, 48, 62
1, 14041, Note_off_c, 0, 36, 58
1, 14059, Control_c, 0, 67, 50
1, 14070, Note_on_c, 0, 49, 91
1, 14073, Control_c, 0, 67, 49
1, 14075, Note_on_c, 0, 37, 80
1, 14088, Control_c, 0, 67, 49
1, 14103, Control_c, 0, 67, 48
1, 14118, Control_c, 0, 67, 48
1, 14123, Note_off_c, 0, 49, 66
1, 14132, Control_c, 0, 67, 47
1, 14147, Control_c, 0, 67, 46
1, 14148, Note_off_c, 0, 37, 63
1, 14162, Control_c, 0, 67, 45
1, 14177, Control_c, 0, 67, 44
1, 14183, Note_on_c, 0, 50, 94
1, 14183, Note_on_c, 0, 38, 84
1, 14191, Control_c, 0, 67, 44
1, 14221, Control_c, 0, 67, 43
1, 14243, Note_off_c, 0, 38, 62
1, 14245, Note_off_c, 0, 50, 66
1, 14251, Control_c, 0, 67, 44
1, 14265, Control_c, 0, 67, 44
1, 14280, Control_c, 0, 67, 45
1, 14284, Note_on_c, 0, 48, 87
1, 14288, Note_on_c, 0, 36, 68
1, 14295, Control_c, 0, 67, 45
1, 14328, Note_off_c, 0, 36, 62
1, 14329, Note_off_c, 0, 48, 62
1, 14384, Control_c, 0, 67, 44
1, 14388, Note_on_c, 0, 37, 92
1, 14391, Note_on_c, 0, 49, 99
1, 14398, Control_c, 0, 67, 44
1, 14413, Control_c, 0, 67, 41
1, 14428, Control_c, 0, 67, 35
1, 14443, Control_c, 0, 67, 17
1, 14458, Control_c, 0, 67, 0
1, 14461, Note_off_c, 0, 49, 62
1, 14500, Note_on_c, 0, 50, 87
1, 14503, Note_on_c, 0, 38, 84
1, 14503, Note_off_c, 0, 37, 56
1, 14578, Note_off_c, 0, 38, 63
1, 14585, Note_off_c, 0, 50, 63
1, 14621, Note_on_c, 0, 36, 83
1, 14621, Note_on_c, 0, 48, 86
1, 14645, Note_off_c, 0, 48, 68
1, 14648, Note_off_c, 0, 36, 63
1, 14787, Note_on_c, 0, 49, 84
1, 14813, Note_on_c, 0, 75, 85
1, 14820, Note_on_c, 0, 69, 75
1, 14823, Note_on_c, 0, 51, 54
1, 14836, Control_c, 0, 64, 47
1, 14846, Note_off_c, 0, 49, 65
1, 14849, Note_on_c, 0, 48, 93
1, 14851, Note_on_c, 0, 61, 105
1, 14851, Control_c, 0, 64, 69
1, 14852, Note_off_c, 0, 51, 62
1, 14859, Note_on_c, 0, 65, 101
1, 14859, Note_on_c, 0, 78, 96
1, 14866, Control_c, 0, 64, 89
1, 14880, Note_on_c, 0, 60, 56
1, 14881, Note_off_c, 0, 60, 127
1, 14882, Note_off_c, 0, 78, 67
1, 14882, Control_c, 0, 64, 127
1, 14884, Note_off_c, 0, 75, 64
1, 14889, Note_off_c, 0, 48, 66
1, 14892, Note_off_c, 0, 61, 70
1, 14892, Note_off_c, 0, 69, 66
1, 14895, Note_off_c, 0, 65, 69
1, 15088, Note_on_c, 0, 37, 83
1, 15095, Note_on_c, 0, 49, 87
1, 15104, Control_c, 0, 64, 92
1, 15119, Control_c, 0, 64, 71
1, 15134, Control_c, 0, 64, 0
1, 15145, Note_off_c, 0, 37, 62
1, 15146, Note_off_c, 0, 49, 63
1, 15194, Note_on_c, 0, 48, 76
1, 15197, Note_on_c, 0, 36, 71
1, 15232, Note_off_c, 0, 48, 63
1, 15234, Note_off_c, 0, 36, 65
1, 15317, Note_on_c, 0, 49, 75
1, 15330, Note_on_c, 0, 37, 67
1, 15352, Note_off_c, 0, 49, 63
1, 15365, Note_off_c, 0, 37, 65
1, 15422, Note_on_c, 0, 50, 71
1, 15438, Note_on_c, 0, 38, 49
1, 15465, Note_off_c, 0, 50, 65
1, 15473, Note_off_c, 0, 38, 60
1, 15526, Note_on_c, 0, 49, 75
1, 15528, Note_on_c, 0, 37, 61
1, 15563, Note_off_c, 0, 49, 64
1, 15564, Note_off_c, 0, 37, 65
1, 15637, Note_on_c, 0, 33, 75
1, 15638, Note_on_c, 0, 45, 80
1, 15680, Note_off_c, 0, 45, 63
1, 15689, Note_off_c, 0, 33, 57
1, 15745, Note_on_c, 0, 48, 65
1, 15749, Note_on_c, 0, 36, 64
1, 15786, Note_off_c, 0, 48, 63
1, 15791, Note_off_c, 0, 36, 61
1, 15849, Note_on_c, 0, 32, 76
1, 15852, Note_on_c, 0, 44, 88
1, 15902, Note_off_c, 0, 32, 61
1, 15924, Note_off_c, 0, 44, 57
1, 15962, Note_on_c, 0, 31, 64
1, 15965, Note_on_c, 0, 43, 62
1, 16001, Note_off_c, 0, 43, 64
1, 16004, Note_off_c, 0, 31, 64
1, 16073, Note_on_c, 0, 33, 59
1, 16073, Note_on_c, 0, 45, 74
1, 16108, Note_off_c, 0, 45, 64
1, 16113, Note_off_c, 0, 33, 62
1, 16179, Note_on_c, 0, 48, 74
1, 16180, Note_on_c, 0, 36, 65
1, 16210, Note_off_c, 0, 48, 66
1, 16216, Note_off_c, 0, 36, 61
1, 16276, Note_on_c, 0, 50, 77
1, 16278, Note_on_c, 0, 38, 63
1, 16307, Note_off_c, 0, 50, 69
1, 16314, Note_off_c, 0, 38, 63
1, 16386, Note_on_c, 0, 49, 103
1, 16391, Note_on_c, 0, 37, 95
1, 16394, Control_c, 0, 67, 12
1, 16409, Control_c, 0, 67, 20
1, 16424, Control_c, 0, 67, 30
1, 16439, Control_c, 0, 67, 38
1, 16454, Control_c, 0, 67, 43
1, 16468, Control_c, 0, 67, 46
1, 16483, Control_c, 0, 67, 48
1, 16498, Control_c, 0, 67, 50
1, 16512, Control_c, 0, 67, 53
1, 16527, Control_c, 0, 67, 54
1, 16542, Control_c, 0, 67, 55
1, 16586, Control_c, 0, 67, 54
1, 16601, Control_c, 0, 67, 53
1, 16616, Control_c, 0, 67, 52
1, 16624, Note_on_c, 0, 36, 85
1, 16631, Control_c, 0, 67, 51
1, 16639, Note_off_c, 0, 37, 64
1, 16643, Note_on_c, 0, 48, 88
1, 16646, Control_c, 0, 67, 51
1, 16648, Note_off_c, 0, 49, 60
1, 16660, Control_c, 0, 67, 49
1, 16675, Control_c, 0, 64, 17
1, 16675, Control_c, 0, 67, 49
1, 16690, Control_c, 0, 64, 43
1, 16690, Control_c, 0, 67, 48
1, 16705, Control_c, 0, 64, 50
1, 16719, Control_c, 0, 64, 55
1, 16720, Note_off_c, 0, 36, 60
1, 16728, Note_off_c, 0, 48, 56
1, 16731, Note_on_c, 0, 37, 91
1, 16734, Control_c, 0, 64, 58
1, 16734, Control_c, 0, 67, 47
1, 16742, Note_on_c, 0, 49, 88
1, 16749, Control_c, 0, 64, 61
1, 16749, Control_c, 0, 67, 47
1, 16764, Control_c, 0, 64, 63
1, 16764, Control_c, 0, 67, 46
1, 16765, Note_off_c, 0, 49, 71
1, 16778, Note_off_c, 0, 37, 64
1, 16779, Control_c, 0, 64, 64
1, 16779, Control_c, 0, 67, 46
1, 16801, Control_c, 0, 64, 65
1, 16801, Control_c, 0, 67, 45
1, 16816, Control_c, 0, 64, 65
1, 16816, Control_c, 0, 67, 44
1, 16831, Control_c, 0, 64, 64
1, 16831, Control_c, 0, 67, 42
1, 16846, Control_c, 0, 64, 60
1, 16846, Control_c, 0, 67, 41
1, 16861, Control_c, 0, 64, 49
1, 16861, Control_c, 0, 67, 38
1, 16875, Control_c, 0, 64, 0
1, 16875, Control_c, 0, 67, 36
1, 16884, Note_on_c, 0, 49, 76
1, 16890, Control_c, 0, 67, 33
1, 16901, Note_on_c, 0, 67, 69
1, 16904, Note_on_c, 0, 70, 88
1, 16905, Control_c, 0, 67, 29
1, 16919, Note_on_c, 0, 75, 81
1, 16919, Control_c, 0, 64, 54
1, 16919, Control_c, 0, 67, 24
1, 16926, Note_off_c, 0, 67, 67
1, 16930, Note_on_c, 0, 51, 43
1, 16930, Note_on_c, 0, 69, 38
1, 16934, Control_c, 0, 64, 67
1, 16934, Control_c, 0, 67, 19
1, 16937, Note_on_c, 0, 54, 24
1, 16949, Control_c, 0, 64, 79
1, 16949, Control_c, 0, 67, 15
1, 16955, Note_on_c, 0, 76, 67
1, 16958, Note_on_c, 0, 50, 95
1, 16958, Note_off_c, 0, 49, 66
1, 16958, Note_on_c, 0, 61, 108
1, 16964, Note_off_c, 0, 51, 56
1, 16964, Note_off_c, 0, 69, 33
1, 16964, Control_c, 0, 64, 96
1, 16972, Note_on_c, 0, 65, 95
1, 16976, Note_on_c, 0, 78, 77
1, 16979, Control_c, 0, 64, 127
1, 16985, Note_off_c, 0, 70, 65
1, 16990, Note_off_c, 0, 54, 53
1, 16991, Note_off_c, 0, 76, 61
1, 16992, Note_off_c, 0, 50, 68
1, 16994, Control_c, 0, 67, 17
1, 16995, Note_off_c, 0, 78, 70
1, 17001, Note_off_c, 0, 61, 66
1, 17006, Note_off_c, 0, 65, 68
1, 17009, Control_c, 0, 67, 18
1, 17015, Note_off_c, 0, 75, 60
1, 17024, Control_c, 0, 67, 19
1, 17069, Control_c, 0, 67, 20
1, 17084, Control_c, 0, 67, 20
1, 17098, Control_c, 0, 67, 21
1, 17181, Note_on_c, 0, 37, 79
1, 17187, Control_c, 0, 64, 89
1, 17193, Note_on_c, 0, 49, 86
1, 17202, Control_c, 0, 64, 64
1, 17202, Control_c, 0, 67, 21
1, 17217, Control_c, 0, 64, 0
1, 17220, Note_off_c, 0, 37, 62
1, 17247, Control_c, 0, 67, 22
1, 17247, Note_off_c, 0, 49, 59
1, 17292, Note_on_c, 0, 36, 65
1, 17295, Note_on_c, 0, 48, 74
1, 17333, Note_off_c, 0, 36, 62
1, 17335, Control_c, 0, 67, 21
1, 17337, Note_off_c, 0, 48, 60
1, 17350, Control_c, 0, 67, 21
1, 17365, Control_c, 0, 67, 20
1, 17395, Note_on_c, 0, 50, 78
1, 17410, Note_on_c, 0, 38, 61
1, 17447, Note_off_c, 0, 50, 62
1, 17450, Note_off_c, 0, 38, 62
1, 17506, Note_on_c, 0, 49, 76
1, 17518, Note_on_c, 0, 37, 60
1, 17550, Control_c, 0, 67, 19
1, 17557, Note_off_c, 0, 49, 58
1, 17564, Note_off_c, 0, 37, 64
1, 17565, Control_c, 0, 67, 19
1, 17580, Control_c, 0, 67, 18
1, 17595, Control_c, 0, 67, 18
1, 17619, Note_on_c, 0, 48, 73
1, 17623, Note_on_c, 0, 36, 61
1, 17639, Control_c, 0, 67, 18
1, 17649, Note_off_c, 0, 48, 65
1, 17664, Note_off_c, 0, 36, 61
1, 17698, Control_c, 0, 67, 19
1, 17713, Note_on_c, 0, 44, 92
1, 17717, Note_on_c, 0, 32, 76
1, 17728, Control_c, 0, 67, 19
1, 17742, Control_c, 0, 67, 20
1, 17756, Note_off_c, 0, 32, 62
1, 17765, Note_off_c, 0, 44, 65
1, 17787, Control_c, 0, 67, 19
1, 17802, Control_c, 0, 67, 19
1, 17825, Note_on_c, 0, 43, 95
1, 17830, Note_on_c, 0, 31, 90
1, 17876, Note_off_c, 0, 43, 65
1, 17888, Note_off_c, 0, 31, 64
1, 17907, Control_c, 0, 67, 20
1, 17921, Control_c, 0, 67, 21
1, 17936, Control_c, 0, 67, 23
1, 17939, Note_on_c, 0, 45, 112
1, 17942, Note_on_c, 0, 33, 94
1, 17951, Control_c, 0, 67, 25
1, 17965, Control_c, 0, 67, 25
1, 17980, Control_c, 0, 67, 26
1, 17995, Control_c, 0, 67, 27
1, 18004, Note_off_c, 0, 33, 61
1, 18010, Control_c, 0, 67, 28
1, 18025, Control_c, 0, 67, 29
1, 18034, Note_off_c, 0, 45, 55
1, 18038, Note_on_c, 0, 44, 92
1, 18049, Note_on_c, 0, 32, 86
1, 18055, Control_c, 0, 67, 29
1, 18070, Control_c, 0, 67, 28
1, 18077, Note_off_c, 0, 32, 67
1, 18078, Note_off_c, 0, 44, 64
1, 18084, Control_c, 0, 67, 28
1, 18099, Control_c, 0, 67, 27
1, 18114, Control_c, 0, 67, 25
1, 18129, Control_c, 0, 67, 24
1, 18144, Control_c, 0, 67, 23
1, 18158, Control_c, 0, 67, 23
1, 18173, Control_c, 0, 67, 22
1, 18188, Control_c, 0, 67, 22
1, 18218, Control_c, 0, 67, 21
1, 18222, Note_on_c, 0, 49, 85
1, 18231, Note_on_c, 0, 67, 82
1, 18232, Control_c, 0, 67, 21
1, 18238, Note_on_c, 0, 75, 91
1, 18240, Note_on_c, 0, 69, 87
1, 18247, Control_c, 0, 64, 19
1, 18247, Control_c, 0, 67, 20
1, 18252, Note_off_c, 0, 67, 68
1, 18256, Note_on_c, 0, 62, 35
1, 18262, Control_c, 0, 64, 63
1, 18262, Control_c, 0, 67, 20
1, 18267, Note_off_c, 0, 69, 63
1, 18277, Control_c, 0, 64, 74
1, 18277, Control_c, 0, 67, 19
1, 18296, Note_off_c, 0, 49, 63
1, 18299, Control_c, 0, 64, 90
1, 18299, Control_c, 0, 67, 18
1, 18301, Note_on_c, 0, 61, 111
1, 18302, Note_off_c, 0, 62, 32
1, 18303, Note_on_c, 0, 65, 100
1, 18303, Note_on_c, 0, 78, 94
1, 18305, Note_on_c, 0, 48, 99
1, 18309, Poly_aftertouch_c, 0, 69, 0
1, 18314, Note_on_c, 0, 69, 70
1, 18314, Control_c, 0, 64, 124
1, 18314, Control_c, 0, 67, 17
1, 18319, Note_off_c, 0, 78, 73
1, 18327, Note_off_c, 0, 75, 65
1, 18329, Control_c, 0, 64, 127
1, 18329, Control_c, 0, 67, 18
1, 18333, Note_off_c, 0, 69, 73
1, 18335, Note_off_c, 0, 61, 71
1, 18335, Note_off_c, 0, 65, 70
1, 18341, Note_off_c, 0, 48, 64
1, 18344, Control_c, 0, 67, 18
1, 18359, Control_c, 0, 67, 20
1, 18373, Control_c, 0, 67, 21
1, 18403, Control_c, 0, 67, 22
1, 18433, Control_c, 0, 67, 22
1, 18447, Control_c, 0, 67, 23
1, 18506, Control_c, 0, 67, 22
1, 18518, Note_on_c, 0, 33, 94
1, 18521, Control_c, 0, 64, 109
1, 18526, Note_on_c, 0, 45, 89
1, 18536, Control_c, 0, 64, 78
1, 18551, Control_c, 0, 64, 55
1, 18551, Control_c, 0, 67, 22
1, 18552, Note_on_c, 0, 43, 40
1, 18565, Control_c, 0, 64, 0
1, 18565, Control_c, 0, 67, 21
1, 18583, Note_off_c, 0, 33, 60
1, 18588, Note_off_c, 0, 43, 34
1, 18590, Note_off_c, 0, 45, 64
1, 18610, Control_c, 0, 67, 22
1, 18623, Note_on_c, 0, 48, 84
1, 18625, Control_c, 0, 67, 22
1, 18631, Note_on_c, 0, 36, 83
1, 18664, Note_off_c, 0, 36, 66
1, 18670, Control_c, 0, 67, 22
1, 18672, Note_off_c, 0, 48, 64
1, 18685, Control_c, 0, 67, 21
1, 18700, Control_c, 0, 67, 20
1, 18714, Control_c, 0, 67, 20
1, 18735, Note_on_c, 0, 48, 98
1, 18738, Note_on_c, 0, 36, 98
1, 18744, Control_c, 0, 67, 19
1, 18788, Control_c, 0, 67, 20
1, 18803, Control_c, 0, 67, 21
1, 18815, Note_off_c, 0, 36, 61
1, 18833, Control_c, 0, 67, 21
1, 18841, Note_off_c, 0, 48, 56
1, 18854, Note_on_c, 0, 49, 71
1, 18862, Note_on_c, 0, 37, 72
1, 18863, Control_c, 0, 67, 22
1, 18887, Note_off_c, 0, 49, 66
1, 18889, Note_off_c, 0, 37, 65
1, 18952, Control_c, 0, 67, 21
1, 18961, Note_on_c, 0, 49, 74
1, 18966, Note_on_c, 0, 37, 71
1, 18996, Note_off_c, 0, 37, 67
1, 18999, Note_off_c, 0, 49, 63
1, 19026, Control_c, 0, 67, 21
1, 19077, Control_c, 0, 67, 20
1, 19087, Note_on_c, 0, 49, 84
1, 19095, Note_on_c, 0, 37, 61
1, 19107, Control_c, 0, 67, 20
1, 19122, Note_off_c, 0, 49, 62
1, 19124, Note_off_c, 0, 37, 65
1, 19193, Note_on_c, 0, 49, 98
1, 19198, Note_on_c, 0, 37, 83
1, 19255, Control_c, 0, 67, 20
1, 19259, Note_off_c, 0, 37, 64
1, 19304, Note_on_c, 0, 48, 82
1, 19307, Note_off_c, 0, 49, 60
1, 19313, Note_on_c, 0, 36, 72
1, 19344, Control_c, 0, 67, 20
1, 19346, Note_off_c, 0, 36, 62
1, 19348, Note_off_c, 0, 48, 60
1, 19359, Control_c, 0, 67, 19
1, 19414, Note_on_c, 0, 50, 94
1, 19425, Note_on_c, 0, 38, 78
1, 19457, Note_off_c, 0, 38, 66
1, 19465, Note_off_c, 0, 50, 67
1, 19479, Control_c, 0, 67, 19
1, 19524, Note_on_c, 0, 50, 95
1, 19531, Note_on_c, 0, 38, 80
1, 19552, Control_c, 0, 67, 19
1, 19587, Note_off_c, 0, 38, 62
1, 19614, Note_off_c, 0, 50, 61
1, 19633, Note_on_c, 0, 48, 81
1, 19637, Note_on_c, 0, 36, 71
1, 19671, Note_off_c, 0, 36, 60
1, 19682, Note_off_c, 0, 48, 62
1, 19732, Note_on_c, 0, 49, 87
1, 19742, Note_on_c, 0, 37, 73
1, 19787, Note_off_c, 0, 37, 64
1, 19793, Note_off_c, 0, 49, 64
1, 19845, Note_on_c, 0, 45, 80
1, 19859, Note_on_c, 0, 33, 75
1, 19870, Control_c, 0, 67, 19
1, 19900, Control_c, 0, 67, 18
1, 19901, Note_off_c, 0, 45, 64
1, 19906, Note_off_c, 0, 33, 57
1, 19915, Control_c, 0, 67, 18
1, 19953, Note_on_c, 0, 48, 80
1, 19960, Control_c, 0, 67, 18
1, 19961, Note_on_c, 0, 36, 74
1, 19990, Control_c, 0, 67, 19
1, 20001, Note_off_c, 0, 48, 61
1, 20004, Control_c, 0, 67, 19
1, 20005, Note_off_c, 0, 36, 59
1, 20034, Control_c, 0, 67, 20
1, 20058, Note_on_c, 0, 49, 88
1, 20063, Control_c, 0, 67, 20
1, 20066, Note_on_c, 0, 37, 74
1, 20093, Control_c, 0, 67, 20
1, 20108, Control_c, 0, 67, 19
1, 20115, Note_off_c, 0, 37, 61
1, 20123, Control_c, 0, 67, 19
1, 20127, Note_off_c, 0, 49, 60
1, 20137, Control_c, 0, 67, 18
1, 20152, Control_c, 0, 67, 17
1, 20167, Note_on_c, 0, 48, 86
1, 20167, Control_c, 0, 67, 16
1, 20171, Note_on_c, 0, 36, 77
1, 20182, Control_c, 0, 67, 15
1, 20197, Control_c, 0, 67, 14
1, 20204, Note_off_c, 0, 36, 66
1, 20211, Control_c, 0, 67, 11
1, 20215, Note_off_c, 0, 48, 62
1, 20226, Control_c, 0, 67, 0
1, 20276, Note_on_c, 0, 50, 87
1, 20282, Note_on_c, 0, 38, 74
1, 20311, Note_off_c, 0, 38, 63
1, 20320, Note_off_c, 0, 50, 65
1, 20380, Note_on_c, 0, 38, 77
1, 20382, Note_on_c, 0, 50, 86
1, 20447, Note_off_c, 0, 38, 62
1, 20458, Note_off_c, 0, 50, 64
1, 20490, Note_on_c, 0, 54, 87
1, 20499, Note_on_c, 0, 42, 75
1, 20554, Note_off_c, 0, 54, 65
1, 20559, Note_off_c, 0, 42, 63
1, 20607, Note_on_c, 0, 38, 88
1, 20610, Note_on_c, 0, 50, 99
1, 20710, Note_on_c, 0, 37, 83
1, 20712, Note_on_c, 0, 49, 87
1, 20717, Note_off_c, 0, 38, 55
1, 20733, Note_off_c, 0, 50, 63
1, 20763, Note_off_c, 0, 37, 64
1, 20763, Note_off_c, 0, 49, 66
1, 20824, Note_on_c, 0, 38, 95
1, 20824, Note_on_c, 0, 50, 106
1, 20936, Note_on_c, 0, 49, 90
1, 20946, Note_off_c, 0, 38, 63
1, 20949, Note_on_c, 0, 37, 83
1, 20958, Note_off_c, 0, 50, 62
1, 20988, Note_off_c, 0, 49, 66
1, 21001, Note_off_c, 0, 37, 62
1, 21040, Note_on_c, 0, 50, 104
1, 21047, Note_on_c, 0, 38, 99
1, 21150, Note_on_c, 0, 49, 81
1, 21155, Note_off_c, 0, 50, 58
1, 21163, Note_off_c, 0, 38, 60
1, 21165, Note_on_c, 0, 37, 84
1, 21210, Note_off_c, 0, 49, 63
1, 21217, Note_off_c, 0, 37, 64
1, 21272, Note_on_c, 0, 54, 82
1, 21275, Note_on_c, 0, 42, 78
1, 21333, Note_off_c, 0, 42, 63
1, 21344, Note_off_c, 0, 54, 61
1, 21378, Note_on_c, 0, 50, 87
1, 21380, Note_on_c, 0, 38, 73
1, 21438, Note_off_c, 0, 50, 65
1, 21444, Note_off_c, 0, 38, 63
1, 21481, Note_on_c, 0, 49, 94
1, 21488, Note_on_c, 0, 37, 82
1, 21537, Note_off_c, 0, 49, 66
1, 21547, Note_off_c, 0, 37, 64
1, 21591, Note_on_c, 0, 38, 94
1, 21592, Note_on_c, 0, 50, 104
1, 21680, Control_c, 0, 64, 59
1, 21695, Control_c, 0, 64, 68
1, 21697, Note_on_c, 0, 49, 96
1, 21704, Note_on_c, 0, 37, 94
1, 21704, Note_off_c, 0, 50, 64
1, 21709, Control_c, 0, 64, 74
1, 21723, Note_off_c, 0, 38, 64
1, 21724, Control_c, 0, 64, 79
1, 21739, Control_c, 0, 64, 84
1, 21742, Note_off_c, 0, 49, 68
1, 21754, Note_off_c, 0, 37, 65
1, 21754, Control_c, 0, 64, 94
1, 21769, Control_c, 0, 64, 109
1, 21784, Control_c, 0, 64, 111
1, 21814, Control_c, 0, 64, 111
1, 21829, Control_c, 0, 64, 110
1, 21843, Control_c, 0, 64, 108
1, 21859, Control_c, 0, 64, 107
1, 21864, Note_on_c, 0, 49, 91
1, 21870, Note_on_c, 0, 67, 81
1, 21874, Control_c, 0, 64, 105
1, 21883, Note_on_c, 0, 69, 82
1, 21886, Note_on_c, 0, 75, 86
1, 21889, Control_c, 0, 64, 101
1, 21897, Note_on_c, 0, 62, 40
1, 21902, Note_off_c, 0, 67, 61
1, 21904, Control_c, 0, 64, 92
1, 21914, Note_on_c, 0, 51, 48
1, 21919, Control_c, 0, 64, 80
1, 21926, Note_off_c, 0, 69, 64
1, 21928, Note_off_c, 0, 62, 54
1, 21933, Control_c, 0, 64, 69
1, 21937, Note_off_c, 0, 49, 64
1, 21940, Note_on_c, 0, 48, 94
1, 21942, Note_off_c, 0, 51, 60
1, 21943, Note_on_c, 0, 61, 117
1, 21944, Note_on_c, 0, 78, 93
1, 21946, Note_on_c, 0, 65, 101
1, 21948, Control_c, 0, 64, 65
1, 21951, Note_on_c, 0, 69, 72
1, 21957, Note_off_c, 0, 78, 76
1, 21963, Control_c, 0, 64, 73
1, 21966, Note_off_c, 0, 75, 61
1, 21969, Note_off_c, 0, 69, 72
1, 21971, Note_off_c, 0, 48, 62
1, 21972, Note_on_c, 0, 50, 52
1, 21973, Note_off_c, 0, 50, 127
1, 21978, Control_c, 0, 64, 91
1, 21979, Note_off_c, 0, 61, 70
1, 21980, Note_on_c, 0, 74, 47
1, 21981, Note_off_c, 0, 65, 69
1, 21993, Control_c, 0, 64, 127
1, 21999, Poly_aftertouch_c, 0, 50, 0
1, 22007, Note_off_c, 0, 74, 62
1, 22163, Control_c, 0, 64, 112
1, 22178, Control_c, 0, 64, 98
1, 22193, Control_c, 0, 64, 87
1, 22207, Control_c, 0, 64, 78
1, 22222, Control_c, 0, 64, 68
1, 22237, Control_c, 0, 64, 55
1, 22252, Control_c, 0, 64, 39
1, 22264, Note_on_c, 0, 48, 38
1, 22267, Note_on_c, 0, 36, 55
1, 22267, Control_c, 0, 64, 36
1, 22272, Note_on_c, 0, 47, 44
1, 22282, Control_c, 0, 64, 35
1, 22297, Control_c, 0, 64, 30
1, 22312, Control_c, 0, 64, 0
1, 22323, Note_off_c, 0, 47, 54
1, 22385, Control_c, 0, 64, 11
1, 22487, Note_off_c, 0, 48, 58
1, 22507, Note_on_c, 0, 49, 78
1, 22508, Note_off_c, 0, 36, 60
1, 22526, Note_on_c, 0, 37, 70
1, 22577, Control_c, 0, 64, 0
1, 22581, Note_off_c, 0, 49, 63
1, 22630, Note_on_c, 0, 50, 91
1, 22645, Note_on_c, 0, 38, 76
1, 22645, Note_off_c, 0, 37, 61
1, 22687, Note_off_c, 0, 50, 67
1, 22705, Note_off_c, 0, 38, 61
1, 22729, Note_on_c, 0, 49, 97
1, 22738, Note_on_c, 0, 37, 90
1, 22786, Note_off_c, 0, 49, 68
1, 22831, Note_on_c, 0, 38, 94
1, 22840, Note_on_c, 0, 50, 102
1, 22847, Note_off_c, 0, 37, 61
1, 22888, Note_off_c, 0, 50, 70
1, 22893, Note_off_c, 0, 38, 63
1, 22933, Note_on_c, 0, 36, 97
1, 22937, Note_on_c, 0, 48, 104
1, 22970, Control_c, 0, 64, 24
1, 22971, Note_off_c, 0, 48, 67
1, 22974, Note_off_c, 0, 36, 63
1, 22985, Control_c, 0, 64, 27
1, 23000, Control_c, 0, 64, 11
1, 23015, Control_c, 0, 64, 0
1, 23093, Note_on_c, 0, 49, 85
1, 23113, Note_on_c, 0, 69, 81
1, 23113, Note_on_c, 0, 75, 88
1, 23124, Note_on_c, 0, 51, 54
1, 23135, Note_off_c, 0, 69, 65
1, 23148, Note_off_c, 0, 49, 65
1, 23148, Control_c, 0, 64, 54
1, 23151, Note_on_c, 0, 48, 95
1, 23152, Note_on_c, 0, 67, 4
1, 23153, Note_off_c, 0, 67, 127
1, 23153, Note_on_c, 0, 61, 111
1, 23156, Note_on_c, 0, 78, 96
1, 23156, Poly_aftertouch_c, 0, 69, 0
1, 23156, Note_on_c, 0, 65, 101
1, 23163, Control_c, 0, 64, 71
1, 23165, Note_on_c, 0, 69, 70
1, 23167, Note_off_c, 0, 51, 45
1, 23174, Note_on_c, 0, 74, 69
1, 23178, Control_c, 0, 64, 93
1, 23179, Note_on_c, 0, 60, 51
1, 23180, Note_off_c, 0, 60, 127
1, 23181, Note_on_c, 0, 59, 58
1, 23182, Note_off_c, 0, 59, 127
1, 23182, Note_off_c, 0, 78, 68
1, 23183, Note_off_c, 0, 48, 67
1, 23183, Note_off_c, 0, 75, 60
1, 23184, Note_on_c, 0, 52, 31
1, 23186, Note_off_c, 0, 69, 72
1, 23187, Note_off_c, 0, 61, 71
1, 23192, Note_off_c, 0, 74, 67
1, 23193, Control_c, 0, 64, 127
1, 23194, Note_off_c, 0, 65, 68
1, 23210, Note_on_c, 0, 73, 15
1, 23211, Note_off_c, 0, 73, 127
1, 23229, Note_off_c, 0, 52, 51
1, 23415, Control_c, 0, 64, 109
1, 23430, Control_c, 0, 64, 86
1, 23433, Note_on_c, 0, 48, 90
1, 23445, Control_c, 0, 64, 70
1, 23448, Note_on_c, 0, 36, 78
1, 23460, Control_c, 0, 64, 48
1, 23475, Control_c, 0, 64, 0
1, 23689, Note_off_c, 0, 48, 63
1, 23703, Note_on_c, 0, 37, 91
1, 23708, Note_on_c, 0, 49, 98
1, 23708, Note_off_c, 0, 36, 62
1, 23773, Note_off_c, 0, 49, 68
1, 23826, Note_on_c, 0, 38, 90
1, 23829, Note_on_c, 0, 50, 100
1, 23856, Note_off_c, 0, 37, 65
1, 23885, Note_off_c, 0, 50, 69
1, 23898, Note_off_c, 0, 38, 64
1, 23925, Note_on_c, 0, 48, 104
1, 23931, Note_on_c, 0, 36, 91
1, 23960, Note_off_c, 0, 48, 68
1, 23976, Note_off_c, 0, 36, 63
1, 24077, Note_on_c, 0, 49, 90
1, 24088, Note_on_c, 0, 67, 79
1, 24091, Note_on_c, 0, 69, 87
1, 24095, Note_on_c, 0, 75, 88
1, 24107, Note_on_c, 0, 51, 62
1, 24107, Note_off_c, 0, 67, 70
1, 24120, Control_c, 0, 64, 36
1, 24127, Note_off_c, 0, 69, 64
1, 24135, Control_c, 0, 64, 68
1, 24139, Note_off_c, 0, 51, 65
1, 24142, Note_on_c, 0, 61, 111
1, 24143, Note_on_c, 0, 78, 89
1, 24147, Note_on_c, 0, 65, 109
1, 24149, Note_on_c, 0, 48, 94
1, 24149, Note_on_c, 0, 50, 90
1, 24150, Control_c, 0, 64, 86
1, 24151, Note_on_c, 0, 69, 73
1, 24152, Note_off_c, 0, 49, 64
1, 24163, Note_off_c, 0, 75, 66
1, 24165, Control_c, 0, 64, 127
1, 24167, Note_on_c, 0, 73, 74
1, 24171, Note_off_c, 0, 48, 68
1, 24171, Note_off_c, 0, 78, 67
1, 24173, Note_on_c, 0, 60, 49
1, 24174, Note_off_c, 0, 60, 127
1, 24174, Note_off_c, 0, 69, 68
1, 24174, Note_off_c, 0, 50, 71
1, 24179, Note_off_c, 0, 61, 70
1, 24183, Note_off_c, 0, 65, 69
1, 24185, Note_off_c, 0, 73, 40
1, 24246, Poly_aftertouch_c, 0, 74, 0
1, 24315, Poly_aftertouch_c, 0, 48, 0
1, 24410, Control_c, 0, 64, 97
1, 24418, Note_on_c, 0, 31, 95
1, 24425, Control_c, 0, 64, 68
1, 24427, Note_on_c, 0, 45, 90
1, 24430, Note_on_c, 0, 43, 87
1, 24440, Control_c, 0, 64, 0
1, 24559, Note_off_c, 0, 45, 59
1, 24611, Note_off_c, 0, 43, 60
1, 24637, Note_off_c, 0, 31, 55
1, 24642, Note_on_c, 0, 32, 79
1, 24649, Note_on_c, 0, 44, 86
1, 24704, Note_off_c, 0, 32, 63
1, 24715, Note_off_c, 0, 44, 64
1, 24748, Note_on_c, 0, 45, 85
1, 24756, Note_on_c, 0, 33, 74
1, 24765, Note_on_c, 0, 35, 70
1, 24794, Note_off_c, 0, 35, 62
1, 24796, Note_off_c, 0, 33, 63
1, 24798, Note_off_c, 0, 45, 65
1, 24852, Note_on_c, 0, 48, 92
1, 24861, Note_on_c, 0, 36, 88
1, 24902, Note_off_c, 0, 48, 64
1, 24911, Note_off_c, 0, 36, 60
1, 24945, Note_on_c, 0, 37, 92
1, 24954, Note_on_c, 0, 49, 103
1, 24984, Note_off_c, 0, 37, 66
1, 24989, Note_off_c, 0, 49, 64
1, 25186, Note_on_c, 0, 54, 99
1, 25192, Note_on_c, 0, 42, 93
1, 25224, Note_off_c, 0, 54, 70
1, 25241, Note_off_c, 0, 42, 65
1, 25410, Note_on_c, 0, 50, 100
1, 25410, Note_on_c, 0, 38, 89
1, 25505, Note_on_c, 0, 49, 94
1, 25516, Note_on_c, 0, 37, 87
1, 25517, Note_off_c, 0, 50, 58
1, 25534, Note_off_c, 0, 38, 63
1, 25558, Note_off_c, 0, 49, 66
1, 25568, Note_off_c, 0, 37, 64
1, 25617, Note_on_c, 0, 50, 95
1, 25618, Note_on_c, 0, 38, 94
1, 25704, Note_on_c, 0, 48, 93
1, 25714, Note_on_c, 0, 36, 93
1, 25741, Note_off_c, 0, 48, 65
1, 25744, Note_off_c, 0, 50, 40
1, 25759, Note_off_c, 0, 36, 63
1, 25765, Note_off_c, 0, 38, 42
1, 25866, Note_on_c, 0, 49, 92
1, 25878, Note_on_c, 0, 70, 82
1, 25889, Note_on_c, 0, 75, 87
1, 25894, Note_on_c, 0, 67, 68
1, 25898, Note_on_c, 0, 69, 68
1, 25906, Note_on_c, 0, 60, 42
1, 25907, Note_off_c, 0, 60, 127
1, 25911, Note_off_c, 0, 67, 64
1, 25922, Control_c, 0, 64, 35
1, 25927, Note_off_c, 0, 49, 65
1, 25927, Note_off_c, 0, 70, 62
1, 25937, Control_c, 0, 64, 66
1, 25938, Note_on_c, 0, 61, 104
1, 25939, Note_on_c, 0, 65, 97
1, 25940, Note_on_c, 0, 78, 93
1, 25946, Note_on_c, 0, 50, 86
1, 25947, Note_on_c, 0, 48, 85
1, 25952, Control_c, 0, 64, 85
1, 25956, Note_off_c, 0, 75, 68
1, 25956, Note_off_c, 0, 78, 74
1, 25967, Control_c, 0, 64, 127
1, 25969, Note_off_c, 0, 61, 69
1, 25970, Note_off_c, 0, 50, 73
1, 25970, Note_off_c, 0, 48, 67
1, 25979, Note_off_c, 0, 69, 64
1, 25979, Note_off_c, 0, 65, 69
1, 26046, Poly_aftertouch_c, 0, 74, 0
1, 26188, Control_c, 0, 64, 91
1, 26193, Note_on_c, 0, 49, 107
1, 26203, Control_c, 0, 64, 68
1, 26209, Note_on_c, 0, 37, 51
1, 26212, Note_on_c, 0, 38, 81
1, 26218, Control_c, 0, 64, 0
1, 26219, Note_on_c, 0, 39, 57
1, 26330, Note_off_c, 0, 39, 44
1, 26345, Note_off_c, 0, 38, 60
1, 26350, Note_off_c, 0, 37, 44
1, 26407, Note_on_c, 0, 48, 82
1, 26411, Note_on_c, 0, 36, 66
1, 26411, Note_off_c, 0, 49, 57
1, 26435, Note_off_c, 0, 48, 67
1, 26442, Note_off_c, 0, 36, 62
1, 26512, Note_on_c, 0, 36, 74
1, 26516, Note_on_c, 0, 48, 78
1, 26550, Note_off_c, 0, 48, 66
1, 26558, Note_off_c, 0, 36, 64
1, 26623, Note_on_c, 0, 48, 68
1, 26645, Note_on_c, 0, 36, 60
1, 26653, Note_off_c, 0, 48, 65
1, 26674, Note_off_c, 0, 36, 56
1, 26744, Note_on_c, 0, 49, 89
1, 26745, Note_on_c, 0, 37, 84
1, 26832, Note_off_c, 0, 49, 63
1, 26859, Note_on_c, 0, 50, 81
1, 26868, Note_on_c, 0, 38, 65
1, 26875, Note_off_c, 0, 37, 60
1, 26912, Note_off_c, 0, 50, 65
1, 26914, Note_off_c, 0, 38, 61
1, 26965, Note_on_c, 0, 48, 79
1, 26972, Note_on_c, 0, 36, 67
1, 26992, Note_off_c, 0, 48, 65
1, 27003, Note_off_c, 0, 36, 62
1, 27081, Note_on_c, 0, 37, 88
1, 27085, Note_on_c, 0, 49, 90
1, 27183, Note_off_c, 0, 49, 64
1, 27192, Note_on_c, 0, 38, 78
1, 27193, Note_on_c, 0, 50, 82
1, 27207, Note_off_c, 0, 37, 59
1, 27246, Note_off_c, 0, 50, 66
1, 27250, Note_off_c, 0, 38, 62
1, 27297, Note_on_c, 0, 48, 84
1, 27310, Note_on_c, 0, 36, 80
1, 27345, Note_off_c, 0, 48, 61
1, 27362, Note_off_c, 0, 36, 60
1, 27404, Note_on_c, 0, 49, 99
1, 27411, Note_on_c, 0, 37, 98
1, 27478, Note_off_c, 0, 37, 65
1, 27505, Note_on_c, 0, 45, 92
1, 27508, Control_c, 0, 64, 63
1, 27517, Note_on_c, 0, 31, 91
1, 27523, Note_on_c, 0, 33, 80
1, 27523, Control_c, 0, 64, 72
1, 27526, Note_off_c, 0, 49, 58
1, 27538, Control_c, 0, 64, 81
1, 27545, Note_off_c, 0, 45, 67
1, 27553, Control_c, 0, 64, 93
1, 27556, Note_off_c, 0, 33, 65
1, 27558, Note_off_c, 0, 31, 60
1, 27568, Control_c, 0, 64, 105
1, 27583, Control_c, 0, 64, 115
1, 27598, Control_c, 0, 64, 118
1, 27628, Control_c, 0, 64, 117
1, 27657, Control_c, 0, 64, 117
1, 27672, Control_c, 0, 64, 107
1, 27680, Note_on_c, 0, 49, 83
1, 27687, Note_on_c, 0, 70, 86
1, 27687, Control_c, 0, 64, 91
1, 27696, Note_on_c, 0, 75, 92
1, 27698, Note_on_c, 0, 67, 67
1, 27702, Control_c, 0, 64, 74
1, 27705, Note_on_c, 0, 51, 54
1, 27713, Note_on_c, 0, 54, 38
1, 27716, Note_off_c, 0, 67, 63
1, 27717, Control_c, 0, 64, 54
1, 27732, Control_c, 0, 64, 21
1, 27735, Note_off_c, 0, 51, 58
1, 27740, Note_on_c, 0, 61, 107
1, 27747, Control_c, 0, 64, 63
1, 27748, Note_on_c, 0, 48, 87
1, 27750, Note_on_c, 0, 78, 92
1, 27752, Note_off_c, 0, 49, 0
1, 27756, Note_on_c, 0, 65, 99
1, 27761, Control_c, 0, 64, 76
1, 27762, Note_on_c, 0, 50, 66
1, 27768, Note_on_c, 0, 60, 58
1, 27771, Poly_aftertouch_c, 0, 62, 0
1, 27774, Note_off_c, 0, 48, 69
1, 27776, Control_c, 0, 64, 95
1, 27777, Note_off_c, 0, 70, 64
1, 27778, Note_off_c, 0, 54, 26
1, 27782, Note_off_c, 0, 78, 67
1, 27783, Note_off_c, 0, 61, 69
1, 27786, Note_off_c, 0, 50, 66
1, 27786, Poly_aftertouch_c, 0, 49, 0
1, 27788, Note_off_c, 0, 65, 68
1, 27790, Note_off_c, 0, 60, 62
1, 27791, Note_off_c, 0, 75, 59
1, 27791, Control_c, 0, 64, 127
1, 27795, Note_on_c, 0, 67, 27
1, 27796, Note_off_c, 0, 67, 127
1, 27827, Poly_aftertouch_c, 0, 67, 0
1, 27832, Poly_aftertouch_c, 0, 62, 0
1, 28018, Note_on_c, 0, 48, 98
1, 28033, Note_on_c, 0, 36, 95
1, 28050, Control_c, 0, 64, 103
1, 28065, Control_c, 0, 64, 78
1, 28079, Control_c, 0, 64, 45
1, 28094, Control_c, 0, 64, 0
1, 28226, Note_off_c, 0, 48, 55
1, 28227, Note_off_c, 0, 36, 60
1, 28239, Note_on_c, 0, 37, 71
1, 28259, Note_on_c, 0, 49, 67
1, 28277, Note_off_c, 0, 37, 65
1, 28293, Note_off_c, 0, 49, 66
1, 28355, Note_on_c, 0, 48, 75
1, 28355, Note_on_c, 0, 36, 64
1, 28386, Note_off_c, 0, 36, 62
1, 28386, Note_off_c, 0, 48, 66
1, 28460, Note_on_c, 0, 36, 65
1, 28463, Note_on_c, 0, 48, 72
1, 28492, Note_off_c, 0, 36, 62
1, 28492, Note_off_c, 0, 48, 65
1, 28563, Note_on_c, 0, 48, 71
1, 28568, Note_on_c, 0, 36, 65
1, 28597, Note_off_c, 0, 48, 65
1, 28601, Note_off_c, 0, 36, 62
1, 28671, Note_on_c, 0, 49, 73
1, 28676, Note_on_c, 0, 37, 69
1, 28704, Note_off_c, 0, 49, 66
1, 28705, Note_off_c, 0, 37, 65
1, 28783, Note_on_c, 0, 48, 73
1, 28792, Note_on_c, 0, 36, 65
1, 28816, Note_off_c, 0, 48, 65
1, 28829, Note_off_c, 0, 36, 62
1, 28895, Note_on_c, 0, 37, 68
1, 28896, Note_on_c, 0, 49, 75
1, 28927, Note_off_c, 0, 49, 66
1, 28930, Note_off_c, 0, 37, 65
1, 28996, Note_on_c, 0, 50, 83
1, 29005, Note_on_c, 0, 38, 70
1, 29035, Note_off_c, 0, 50, 63
1, 29042, Note_off_c, 0, 38, 64
1, 29100, Note_on_c, 0, 42, 67
1, 29100, Note_on_c, 0, 54, 80
1, 29136, Note_off_c, 0, 42, 61
1, 29139, Note_off_c, 0, 54, 62
1, 29195, Note_on_c, 0, 38, 65
1, 29199, Note_on_c, 0, 50, 82
1, 29225, Note_off_c, 0, 50, 69
1, 29234, Note_off_c, 0, 38, 64
1, 29290, Note_on_c, 0, 37, 74
1, 29296, Note_on_c, 0, 49, 83
1, 29318, Note_off_c, 0, 37, 65
1, 29325, Note_off_c, 0, 49, 66
1, 29408, Note_on_c, 0, 50, 97
1, 29414, Note_on_c, 0, 38, 95
1, 29637, Note_on_c, 0, 36, 78
1, 29637, Note_on_c, 0, 48, 79
1, 29647, Note_off_c, 0, 38, 63
1, 29651, Note_off_c, 0, 50, 64
1, 29687, Note_off_c, 0, 48, 63
1, 29695, Note_off_c, 0, 36, 58
1, 29747, Note_on_c, 0, 37, 71
1, 29748, Note_on_c, 0, 49, 82
1, 29786, Note_off_c, 0, 37, 62
1, 29798, Note_off_c, 0, 49, 62
1, 29846, Note_on_c, 0, 48, 76
1, 29851, Note_on_c, 0, 36, 66
1, 29879, Note_off_c, 0, 48, 65
1, 29881, Note_off_c, 0, 36, 62
1, 29948, Note_on_c, 0, 38, 87
1, 29952, Note_on_c, 0, 50, 95
1, 29997, Note_off_c, 0, 50, 64
1, 30022, Note_off_c, 0, 38, 63
1, 30064, Note_on_c, 0, 48, 71
1, 30096, Note_on_c, 0, 35, 41
1, 30097, Note_on_c, 0, 36, 46
1, 30121, Note_off_c, 0, 48, 56
1, 30131, Note_off_c, 0, 35, 62
1, 30132, Note_off_c, 0, 36, 57
1, 30167, Note_on_c, 0, 32, 76
1, 30168, Note_on_c, 0, 44, 70
1, 30225, Note_off_c, 0, 32, 62
1, 30230, Note_off_c, 0, 44, 56
1, 30277, Note_on_c, 0, 43, 83
1, 30283, Note_on_c, 0, 31, 72
1, 30330, Note_off_c, 0, 43, 63
1, 30354, Note_off_c, 0, 31, 61
1, 30385, Note_on_c, 0, 45, 100
1, 30389, Note_on_c, 0, 33, 80
1, 30428, Note_off_c, 0, 33, 61
1, 30439, Note_off_c, 0, 45, 66
1, 30489, Note_on_c, 0, 48, 101
1, 30492, Note_on_c, 0, 36, 88
1, 30528, Note_off_c, 0, 48, 68
1, 30559, Note_off_c, 0, 36, 60
1, 30609, Note_on_c, 0, 32, 70
1, 30610, Note_on_c, 0, 44, 86
1, 30689, Note_off_c, 0, 32, 57
1, 30692, Note_off_c, 0, 44, 0
1, 30704, Note_on_c, 0, 31, 74
1, 30715, Note_on_c, 0, 43, 82
1, 30766, Poly_aftertouch_c, 0, 44, 0
1, 30772, Control_c, 0, 64, 38
1, 30777, Note_off_c, 0, 31, 62
1, 30787, Control_c, 0, 64, 62
1, 30800, Note_on_c, 0, 33, 74
1, 30802, Control_c, 0, 64, 68
1, 30810, Note_on_c, 0, 45, 86
1, 30811, Note_off_c, 0, 43, 56
1, 30817, Control_c, 0, 64, 74
1, 30828, Note_off_c, 0, 33, 62
1, 30831, Control_c, 0, 64, 81
1, 30846, Control_c, 0, 64, 87
1, 30849, Note_off_c, 0, 45, 64
1, 30861, Control_c, 0, 64, 89
1, 30920, Control_c, 0, 64, 90
1, 30935, Control_c, 0, 64, 95
1, 30941, Note_on_c, 0, 38, 105
1, 30944, Note_on_c, 0, 61, 81
1, 30948, Note_on_c, 0, 58, 88
1, 30949, Note_on_c, 0, 48, 107
1, 30949, Note_on_c, 0, 54, 103
1, 30950, Control_c, 0, 64, 115
1, 30963, Note_off_c, 0, 61, 67
1, 30965, Note_off_c, 0, 58, 73
1, 30965, Control_c, 0, 64, 127
1, 30969, Note_on_c, 0, 53, 73
1, 30977, Note_off_c, 0, 38, 68
1, 30983, Note_off_c, 0, 48, 68
1, 30990, Note_off_c, 0, 54, 65
1, 30996, Note_off_c, 0, 53, 68
1, 31170, Note_on_c, 0, 33, 93
1, 31178, Note_on_c, 0, 45, 91
1, 31179, Control_c, 0, 64, 121
1, 31194, Control_c, 0, 64, 83
1, 31209, Control_c, 0, 64, 59
1, 31214, Note_off_c, 0, 33, 63
1, 31214, Note_off_c, 0, 45, 66
1, 31223, Control_c, 0, 64, 0
1, 31279, Note_on_c, 0, 48, 95
1, 31283, Control_c, 0, 64, 19
1, 31295, Note_on_c, 0, 36, 64
1, 31312, Control_c, 0, 64, 17
1, 31320, Note_on_c, 0, 38, 36
1, 31326, Note_off_c, 0, 48, 62
1, 31327, Control_c, 0, 64, 14
1, 31330, Note_off_c, 0, 36, 61
1, 31366, Note_off_c, 0, 38, 52
1, 31387, Control_c, 0, 64, 11
1, 31399, Note_on_c, 0, 48, 83
1, 31401, Control_c, 0, 64, 0
1, 31403, Note_on_c, 0, 36, 66
1, 31434, Note_off_c, 0, 48, 60
1, 31448, Note_off_c, 0, 36, 61
1, 31510, Note_on_c, 0, 44, 75
1, 31513, Note_on_c, 0, 32, 65
1, 31549, Note_off_c, 0, 32, 64
1, 31563, Note_off_c, 0, 44, 54
1, 31611, Note_on_c, 0, 31, 61
1, 31624, Note_on_c, 0, 43, 68
1, 31678, Note_off_c, 0, 31, 60
1, 31697, Note_off_c, 0, 43, 48
1, 31715, Note_on_c, 0, 45, 80
1, 31728, Control_c, 0, 64, 14
1, 31742, Note_off_c, 0, 45, 66
1, 31743, Control_c, 0, 64, 17
1, 31758, Control_c, 0, 64, 14
1, 31780, Control_c, 0, 64, 0
1, 31840, Control_c, 0, 64, 46
1, 31846, Note_on_c, 0, 58, 95
1, 31852, Note_on_c, 0, 44, 79
1, 31854, Control_c, 0, 64, 67
1, 31856, Note_on_c, 0, 33, 93
1, 31859, Note_on_c, 0, 56, 89
1, 31860, Note_on_c, 0, 45, 96
1, 31863, Note_on_c, 0, 51, 94
1, 31869, Control_c, 0, 64, 80
1, 31869, Note_off_c, 0, 58, 69
1, 31876, Note_on_c, 0, 47, 59
1, 31877, Note_off_c, 0, 47, 127
1, 31880, Note_off_c, 0, 44, 67
1, 31880, Note_off_c, 0, 56, 72
1, 31884, Control_c, 0, 64, 99
1, 31896, Note_off_c, 0, 33, 59
1, 31899, Control_c, 0, 64, 127
1, 31918, Note_off_c, 0, 51, 62
1, 31921, Note_off_c, 0, 45, 66
1, 32017, Control_c, 0, 64, 117
1, 32032, Control_c, 0, 64, 84
1, 32043, Note_on_c, 0, 43, 82
1, 32046, Control_c, 0, 64, 66
1, 32052, Note_on_c, 0, 55, 80
1, 32057, Note_on_c, 0, 53, 76
1, 32061, Control_c, 0, 64, 37
1, 32062, Note_on_c, 0, 54, 60
1, 32064, Note_on_c, 0, 30, 91
1, 32070, Note_on_c, 0, 44, 84
1, 32072, Note_on_c, 0, 42, 97
1, 32076, Control_c, 0, 64, 55
1, 32078, Note_on_c, 0, 41, 46
1, 32079, Note_off_c, 0, 41, 127
1, 32079, Note_off_c, 0, 55, 67
1, 32085, Note_off_c, 0, 53, 69
1, 32086, Note_off_c, 0, 54, 61
1, 32087, Note_off_c, 0, 43, 65
1, 32088, Note_on_c, 0, 32, 51
1, 32091, Control_c, 0, 64, 68
1, 32092, Note_off_c, 0, 44, 68
1, 32106, Control_c, 0, 64, 77
1, 32113, Note_off_c, 0, 30, 63
1, 32115, Note_on_c, 0, 49, 20
1, 32117, Note_off_c, 0, 42, 63
1, 32120, Control_c, 0, 64, 89
1, 32122, Note_off_c, 0, 32, 54
1, 32135, Control_c, 0, 64, 94
1, 32150, Control_c, 0, 64, 96
1, 32162, Note_off_c, 0, 49, 53
1, 32195, Poly_aftertouch_c, 0, 44, 127
1, 32224, Control_c, 0, 64, 96
1, 32236, Poly_aftertouch_c, 0, 44, 0
1, 32269, Control_c, 0, 64, 94
1, 32284, Control_c, 0, 64, 85
1, 32299, Control_c, 0, 64, 70
1, 32311, Note_on_c, 0, 30, 80
1, 32314, Control_c, 0, 64, 0
1, 32323, Note_on_c, 0, 42, 78
1, 32346, Note_off_c, 0, 30, 65
1, 32351, Note_off_c, 0, 42, 64
1, 32425, Note_on_c, 0, 42, 69
1, 32433, Note_on_c, 0, 30, 62
1, 32692, Note_off_c, 0, 42, 52
1, 32697, Note_off_c, 0, 30, 55
1, 32698, Note_on_c, 0, 31, 63
1, 32706, Note_on_c, 0, 43, 55
1, 32733, Note_off_c, 0, 31, 62
1, 32739, Note_off_c, 0, 43, 64
1, 32805, Note_on_c, 0, 44, 53
1, 32809, Note_on_c, 0, 32, 55
1, 32835, Note_off_c, 0, 44, 59
1, 32844, Note_off_c, 0, 32, 63
1, 32910, Note_on_c, 0, 44, 60
1, 32925, Note_on_c, 0, 32, 57
1, 32944, Note_off_c, 0, 44, 63
1, 32959, Note_off_c, 0, 32, 63
1, 33021, Note_on_c, 0, 44, 59
1, 33047, Note_on_c, 0, 32, 48
1, 33069, Note_off_c, 0, 44, 61
1, 33079, Note_off_c, 0, 32, 57
1, 33131, Note_on_c, 0, 48, 85
1, 33146, Note_on_c, 0, 36, 60
1, 33183, Note_off_c, 0, 36, 61
1, 33195, Note_off_c, 0, 48, 60
1, 33249, Note_on_c, 0, 32, 41
1, 33250, Note_on_c, 0, 44, 56
1, 33297, Note_off_c, 0, 32, 61
1, 33298, Note_off_c, 0, 44, 63
1, 33357, Note_on_c, 0, 31, 58
1, 33366, Note_on_c, 0, 43, 40
1, 33393, Note_off_c, 0, 31, 63
1, 33403, Note_off_c, 0, 43, 47
1, 33459, Note_on_c, 0, 45, 87
1, 33463, Note_on_c, 0, 33, 66
1, 33504, Note_off_c, 0, 33, 62
1, 33509, Note_off_c, 0, 45, 62
1, 33574, Note_on_c, 0, 31, 47
1, 33577, Note_on_c, 0, 43, 55
1, 33610, Note_off_c, 0, 31, 53
1, 33615, Note_off_c, 0, 43, 63
1, 33655, Note_on_c, 0, 32, 69
1, 33667, Note_on_c, 0, 44, 64
1, 33700, Note_off_c, 0, 32, 61
1, 33713, Note_off_c, 0, 44, 63
1, 33769, Note_on_c, 0, 36, 68
1, 33775, Note_on_c, 0, 48, 78
1, 33825, Note_off_c, 0, 48, 62
1, 33828, Note_off_c, 0, 36, 58
1, 33873, Note_on_c, 0, 32, 72
1, 33877, Note_on_c, 0, 44, 76
1, 33948, Note_off_c, 0, 32, 62
1, 33953, Note_off_c, 0, 44, 61
1, 33971, Note_on_c, 0, 45, 82
1, 33974, Note_on_c, 0, 33, 76
1, 34045, Note_off_c, 0, 33, 61
1, 34050, Note_off_c, 0, 45, 64
1, 34087, Note_on_c, 0, 48, 84
1, 34088, Note_on_c, 0, 36, 91
1, 34090, Note_on_c, 0, 47, 83
1, 34137, Note_off_c, 0, 47, 64
1, 34142, Note_off_c, 0, 48, 65
1, 34148, Note_off_c, 0, 36, 63
1, 34188, Note_on_c, 0, 36, 72
1, 34189, Note_on_c, 0, 48, 90
1, 34219, Control_c, 0, 64, 21
1, 34234, Control_c, 0, 64, 24
1, 34248, Control_c, 0, 64, 26
1, 34290, Note_on_c, 0, 37, 88
1, 34291, Note_on_c, 0, 49, 96
1, 34293, Control_c, 0, 64, 24
1, 34308, Control_c, 0, 64, 11
1, 34314, Note_off_c, 0, 36, 60
1, 34318, Note_off_c, 0, 48, 63
1, 34323, Control_c, 0, 64, 0
1, 34384, Note_on_c, 0, 36, 83
1, 34384, Note_on_c, 0, 48, 98
1, 34444, Note_off_c, 0, 37, 26
1, 34452, Note_off_c, 0, 49, 56
1, 34496, Note_on_c, 0, 45, 96
1, 34504, Note_on_c, 0, 33, 91
1, 34522, Note_off_c, 0, 36, 60
1, 34528, Note_off_c, 0, 48, 65
1, 34530, Control_c, 0, 64, 28
1, 34541, Note_off_c, 0, 45, 67
1, 34545, Control_c, 0, 64, 46
1, 34552, Note_off_c, 0, 33, 61
1, 34560, Control_c, 0, 64, 58
1, 34574, Control_c, 0, 64, 62
1, 34589, Control_c, 0, 64, 63
1, 34604, Control_c, 0, 64, 63
1, 34634, Control_c, 0, 64, 62
1, 34709, Control_c, 0, 64, 62
1, 34710, Note_on_c, 0, 49, 90
1, 34716, Note_on_c, 0, 67, 80
1, 34724, Control_c, 0, 64, 59
1, 34728, Note_on_c, 0, 69, 79
1, 34731, Note_on_c, 0, 75, 88
1, 34738, Control_c, 0, 64, 11
1, 34739, Note_on_c, 0, 54, 59
1, 34747, Note_off_c, 0, 67, 64
1, 34753, Control_c, 0, 64, 0
1, 34773, Note_off_c, 0, 69, 66
1, 34783, Note_off_c, 0, 54, 65
1, 34788, Note_off_c, 0, 49, 64
1, 34796, Note_on_c, 0, 61, 112
1, 34797, Note_on_c, 0, 48, 96
1, 34797, Note_on_c, 0, 78, 97
1, 34797, Note_on_c, 0, 65, 105
1, 34805, Note_on_c, 0, 69, 78
1, 34805, Control_c, 0, 64, 40
1, 34820, Control_c, 0, 64, 74
1, 34835, Control_c, 0, 64, 102
1, 34850, Control_c, 0, 64, 127
1, 34856, Note_off_c, 0, 78, 69
1, 34864, Note_off_c, 0, 75, 61
1, 34874, Note_off_c, 0, 48, 64
1, 34875, Note_off_c, 0, 65, 68
1, 34885, Note_off_c, 0, 69, 60
1, 34885, Poly_aftertouch_c, 0, 60, 127
1, 34898, Note_off_c, 0, 61, 67
1, 34917, Poly_aftertouch_c, 0, 60, 0
1, 34918, Poly_aftertouch_c, 0, 53, 127
1, 34944, Poly_aftertouch_c, 0, 53, 0
1, 35119, Note_on_c, 0, 49, 90
1, 35130, Note_on_c, 0, 62, 66
1, 35144, Note_on_c, 0, 67, 71
1, 35147, Note_on_c, 0, 69, 87
1, 35148, Note_off_c, 0, 62, 65
1, 35149, Note_on_c, 0, 74, 85
1, 35160, Control_c, 0, 64, 104
1, 35164, Note_on_c, 0, 54, 36
1, 35169, Note_off_c, 0, 67, 66
1, 35173, Note_on_c, 0, 75, 53
1, 35175, Control_c, 0, 64, 76
1, 35181, Note_on_c, 0, 51, 24
1, 35183, Note_off_c, 0, 69, 63
1, 35190, Control_c, 0, 64, 56
1, 35198, Note_off_c, 0, 54, 50
1, 35200, Note_on_c, 0, 61, 108
1, 35202, Note_on_c, 0, 78, 92
1, 35202, Note_on_c, 0, 48, 99
1, 35202, Note_off_c, 0, 49, 64
1, 35205, Control_c, 0, 64, 61
1, 35209, Note_off_c, 0, 51, 0
1, 35210, Note_on_c, 0, 65, 96
1, 35215, Note_on_c, 0, 69, 71
1, 35220, Control_c, 0, 64, 73
1, 35225, Poly_aftertouch_c, 0, 51, 0
1, 35229, Note_on_c, 0, 64, 59
1, 35230, Note_off_c, 0, 64, 127
1, 35232, Note_off_c, 0, 74, 62
1, 35233, Note_off_c, 0, 48, 68
1, 35235, Control_c, 0, 64, 100
1, 35238, Note_off_c, 0, 78, 68
1, 35241, Note_off_c, 0, 61, 71
1, 35243, Note_on_c, 0, 73, 56
1, 35245, Note_off_c, 0, 69, 67
1, 35250, Control_c, 0, 64, 127
1, 35252, Note_off_c, 0, 65, 67
1, 35257, Note_off_c, 0, 75, 0
1, 35268, Note_off_c, 0, 73, 63
1, 35291, Poly_aftertouch_c, 0, 75, 0
1, 35318, Poly_aftertouch_c, 0, 67, 0
1, 35524, Control_c, 0, 64, 119
1, 35539, Control_c, 0, 64, 102
1, 35554, Control_c, 0, 64, 90
1, 35569, Control_c, 0, 64, 81
1, 35574, Note_on_c, 0, 43, 74
1, 35582, Note_on_c, 0, 31, 65
1, 35584, Control_c, 0, 64, 74
1, 35599, Control_c, 0, 64, 67
1, 35613, Control_c, 0, 64, 62
1, 35628, Control_c, 0, 64, 52
1, 35643, Control_c, 0, 64, 19
1, 35658, Control_c, 0, 64, 0
1, 35845, Note_on_c, 0, 44, 80
1, 35846, Note_on_c, 0, 32, 78
1, 35863, Note_off_c, 0, 43, 60
1, 35909, Note_off_c, 0, 31, 57
1, 35962, Note_on_c, 0, 33, 82
1, 35967, Note_on_c, 0, 45, 84
1, 35982, Note_off_c, 0, 32, 62
1, 35991, Note_off_c, 0, 44, 60
1, 36066, Note_on_c, 0, 49, 88
1, 36074, Note_on_c, 0, 37, 87
1, 36084, Note_off_c, 0, 33, 60
1, 36088, Note_off_c, 0, 45, 61
1, 36162, Note_off_c, 0, 49, 60
1, 36179, Note_on_c, 0, 50, 75
1, 36181, Note_on_c, 0, 38, 86
1, 36189, Note_on_c, 0, 48, 74
1, 36216, Note_off_c, 0, 37, 63
1, 36233, Note_off_c, 0, 48, 43
1, 36289, Note_on_c, 0, 49, 88
1, 36297, Note_off_c, 0, 50, 38
1, 36319, Note_off_c, 0, 38, 61
1, 36331, Control_c, 0, 64, 35
1, 36346, Control_c, 0, 64, 55
1, 36361, Control_c, 0, 64, 63
1, 36365, Note_off_c, 0, 49, 64
1, 36376, Control_c, 0, 64, 67
1, 36390, Control_c, 0, 64, 71
1, 36395, Note_on_c, 0, 48, 92
1, 36405, Control_c, 0, 64, 74
1, 36406, Note_on_c, 0, 36, 59
1, 36420, Control_c, 0, 64, 76
1, 36435, Control_c, 0, 64, 76
1, 36444, Note_off_c, 0, 36, 62
1, 36479, Control_c, 0, 64, 76
1, 36491, Note_on_c, 0, 44, 92
1, 36494, Control_c, 0, 64, 76
1, 36510, Note_off_c, 0, 48, 59
1, 36516, Note_on_c, 0, 30, 70
1, 36523, Control_c, 0, 64, 76
1, 36551, Note_off_c, 0, 44, 67
1, 36552, Note_off_c, 0, 30, 52
1, 36553, Control_c, 0, 64, 75
1, 36594, Note_on_c, 0, 45, 101
1, 36598, Control_c, 0, 64, 75
1, 36612, Note_on_c, 0, 33, 83
1, 36613, Control_c, 0, 64, 74
1, 36657, Control_c, 0, 64, 75
1, 36671, Note_off_c, 0, 33, 60
1, 36672, Note_off_c, 0, 45, 65
1, 36672, Control_c, 0, 64, 75
1, 36702, Control_c, 0, 64, 74
1, 36713, Note_on_c, 0, 42, 96
1, 36716, Control_c, 0, 64, 70
1, 36730, Note_on_c, 0, 30, 91
1, 36731, Control_c, 0, 64, 60
1, 36734, Note_on_c, 0, 49, 69
1, 36746, Control_c, 0, 64, 0
1, 36766, Note_off_c, 0, 49, 61
1, 36797, Note_off_c, 0, 42, 66
1, 36806, Control_c, 0, 64, 27
1, 36817, Note_on_c, 0, 48, 102
1, 36821, Control_c, 0, 64, 64
1, 36829, Note_on_c, 0, 36, 92
1, 36835, Control_c, 0, 64, 70
1, 36847, Note_off_c, 0, 30, 62
1, 36850, Control_c, 0, 64, 76
1, 36856, Note_off_c, 0, 48, 69
1, 36865, Control_c, 0, 64, 80
1, 36880, Control_c, 0, 64, 82
1, 36892, Note_off_c, 0, 36, 62
1, 36924, Control_c, 0, 64, 82
1, 36939, Control_c, 0, 64, 82
1, 37020, Control_c, 0, 64, 81
1, 37036, Control_c, 0, 64, 79
1, 37051, Control_c, 0, 64, 73
1, 37065, Control_c, 0, 64, 64
1, 37080, Control_c, 0, 64, 0
1, 37086, Note_on_c, 0, 42, 106
1, 37094, Note_on_c, 0, 30, 98
1, 37135, Note_off_c, 0, 42, 68
1, 37137, Note_on_c, 0, 29, 39
1, 37155, Control_c, 0, 64, 52
1, 37169, Control_c, 0, 64, 68
1, 37182, Note_off_c, 0, 29, 46
1, 37183, Note_off_c, 0, 30, 60
1, 37184, Control_c, 0, 64, 78
1, 37185, Note_on_c, 0, 48, 100
1, 37192, Note_on_c, 0, 36, 93
1, 37199, Control_c, 0, 64, 89
1, 37214, Note_off_c, 0, 48, 72
1, 37214, Control_c, 0, 64, 98
1, 37229, Control_c, 0, 64, 101
1, 37244, Control_c, 0, 64, 102
1, 37254, Note_off_c, 0, 36, 62
1, 37259, Control_c, 0, 64, 102
1, 37274, Control_c, 0, 64, 103
1, 37348, Control_c, 0, 64, 103
1, 37363, Control_c, 0, 64, 104
1, 37378, Control_c, 0, 64, 104
1, 37407, Control_c, 0, 64, 103
1, 37422, Control_c, 0, 64, 92
1, 37425, Note_on_c, 0, 42, 112
1, 37426, Note_on_c, 0, 30, 102
1, 37437, Control_c, 0, 64, 75
1, 37452, Control_c, 0, 64, 0
1, 37465, Note_off_c, 0, 42, 70
1, 37496, Control_c, 0, 64, 33
1, 37511, Control_c, 0, 64, 68
1, 37524, Note_on_c, 0, 48, 104
1, 37526, Note_off_c, 0, 30, 51
1, 37526, Control_c, 0, 64, 80
1, 37540, Control_c, 0, 64, 100
1, 37545, Note_on_c, 0, 36, 92
1, 37554, Note_off_c, 0, 48, 69
1, 37555, Control_c, 0, 64, 127
1, 37587, Note_off_c, 0, 36, 64
1, 37639, Poly_aftertouch_c, 0, 47, 0
1, 37855, Note_on_c, 0, 42, 109
1, 37858, Note_on_c, 0, 30, 91
1, 37889, Control_c, 0, 64, 113
1, 37904, Control_c, 0, 64, 85
1, 37919, Control_c, 0, 64, 65
1, 37934, Control_c, 0, 64, 0
1, 38007, Control_c, 0, 64, 49
1, 38022, Control_c, 0, 64, 67
1, 38037, Control_c, 0, 64, 75
1, 38052, Control_c, 0, 64, 88
1, 38067, Control_c, 0, 64, 108
1, 38082, Control_c, 0, 64, 127
1, 38115, Note_off_c, 0, 42, 62
1, 38340, Note_off_c, 0, 30, 61
1, 38395, Note_on_c, 0, 36, 94
1, 38398, Note_on_c, 0, 48, 104
1, 38422, Control_c, 0, 64, 108
1, 38437, Control_c, 0, 64, 79
1, 38452, Control_c, 0, 64, 0
1, 38534, Control_c, 0, 64, 56
1, 38548, Control_c, 0, 64, 69
1, 38563, Control_c, 0, 64, 81
1, 38578, Control_c, 0, 64, 102
1, 38593, Control_c, 0, 64, 127
1, 38690, Note_off_c, 0, 48, 65
1, 38714, Note_off_c, 0, 36, 62
1, 39092, Note_on_c, 0, 62, 64
1, 39113, Note_on_c, 0, 67, 85
1, 39122, Note_on_c, 0, 49, 83
1, 39149, Note_off_c, 0, 62, 61
1, 39152, Note_on_c, 0, 69, 87
1, 39163, Note_on_c, 0, 75, 82
1, 39167, Note_off_c, 0, 67, 64
1, 39199, Note_on_c, 0, 54, 4
1, 39216, Note_on_c, 0, 61, 108
1, 39219, Note_off_c, 0, 49, 64
1, 39220, Note_on_c, 0, 48, 100
1, 39221, Note_on_c, 0, 65, 97
1, 39224, Note_on_c, 0, 78, 99
1, 39229, Control_c, 0, 64, 103
1, 39244, Control_c, 0, 64, 67
1, 39267, Control_c, 0, 64, 0
1, 39290, Note_off_c, 0, 48, 65
1, 39290, Note_off_c, 0, 54, 35
1, 39300, Note_off_c, 0, 61, 70
1, 39301, Note_off_c, 0, 78, 68
1, 39301, Note_off_c, 0, 75, 64
1, 39314, Note_off_c, 0, 69, 63
1, 39320, Poly_aftertouch_c, 0, 50, 0
1, 39334, Note_off_c, 0, 65, 69
1, 39964, Control_c, 0, 64, 48
1, 39978, Control_c, 0, 64, 62
1, 39993, Control_c, 0, 64, 67
1, 40016, Control_c, 0, 64, 72
1, 40031, Control_c, 0, 64, 77
1, 40046, Control_c, 0, 64, 82
1, 40060, Control_c, 0, 64, 86
1, 40075, Control_c, 0, 64, 91
1, 40090, Control_c, 0, 64, 97
1, 40105, Control_c, 0, 64, 104
1, 40120, Control_c, 0, 64, 124
1, 40134, Control_c, 0, 64, 127
1, 40249, Note_on_c, 0, 75, 78
1, 40274, Note_on_c, 0, 49, 45
1, 40283, Note_on_c, 0, 57, 34
1, 40293, Note_on_c, 0, 52, 32
1, 40299, Note_on_c, 0, 64, 42
1, 40387, Note_off_c, 0, 64, 61
1, 40395, Note_on_c, 0, 65, 74
1, 40409, Note_off_c, 0, 52, 46
1, 40431, Note_off_c, 0, 75, 60
1, 40451, Note_off_c, 0, 65, 65
1, 40453, Note_off_c, 0, 57, 33
1, 40523, Note_on_c, 0, 76, 85
1, 40544, Note_off_c, 0, 49, 61
1, 40544, Note_on_c, 0, 50, 53
1, 40549, Note_on_c, 0, 57, 30
1, 40562, Note_on_c, 0, 63, 64
1, 40565, Note_on_c, 0, 53, 52
1, 40565, Control_c, 0, 64, 117
1, 40580, Control_c, 0, 64, 93
1, 40595, Control_c, 0, 64, 79
1, 40609, Control_c, 0, 64, 68
1, 40624, Control_c, 0, 64, 51
1, 40639, Control_c, 0, 64, 0
1, 40728, Control_c, 0, 64, 46
1, 40743, Control_c, 0, 64, 64
1, 40765, Control_c, 0, 64, 69
1, 40780, Control_c, 0, 64, 74
1, 40795, Control_c, 0, 64, 80
1, 40809, Control_c, 0, 64, 87
1, 40814, Note_off_c, 0, 76, 58
1, 40824, Control_c, 0, 64, 93
1, 40839, Control_c, 0, 64, 100
1, 40854, Control_c, 0, 64, 108
1, 40869, Control_c, 0, 64, 116
1, 40881, Note_off_c, 0, 50, 64
1, 40884, Control_c, 0, 64, 127
1, 40902, Note_off_c, 0, 53, 65
1, 40935, Note_off_c, 0, 57, 40
1, 40974, Note_on_c, 0, 65, 70
1, 40994, Note_off_c, 0, 63, 38
1, 41010, Note_off_c, 0, 65, 62
1, 41077, Control_c, 0, 64, 110
1, 41092, Control_c, 0, 64, 95
1, 41107, Control_c, 0, 64, 80
1, 41122, Control_c, 0, 64, 68
1, 41132, Note_on_c, 0, 61, 65
1, 41137, Control_c, 0, 64, 62
1, 41141, Note_on_c, 0, 62, 73
1, 41143, Note_on_c, 0, 54, 61
1, 41148, Note_on_c, 0, 51, 62
1, 41152, Control_c, 0, 64, 63
1, 41161, Note_on_c, 0, 57, 24
1, 41167, Control_c, 0, 64, 66
1, 41181, Control_c, 0, 64, 73
1, 41196, Control_c, 0, 64, 84
1, 41201, Note_off_c, 0, 57, 42
1, 41206, Note_off_c, 0, 62, 62
1, 41211, Control_c, 0, 64, 100
1, 41222, Note_off_c, 0, 61, 59
1, 41226, Control_c, 0, 64, 127
1, 41280, Note_off_c, 0, 54, 62
1, 41292, Note_on_c, 0, 72, 80
1, 41298, Note_on_c, 0, 73, 91
1, 41310, Note_on_c, 0, 61, 80
1, 41314, Note_on_c, 0, 52, 65
1, 41314, Note_on_c, 0, 56, 71
1, 41314, Note_on_c, 0, 62, 66
1, 41314, Note_on_c, 0, 68, 70
1, 41314, Note_off_c, 0, 51, 50
1, 41314, Control_c, 0, 67, 10
1, 41329, Control_c, 0, 67, 13
1, 41343, Note_off_c, 0, 62, 64
1, 41344, Control_c, 0, 67, 16
1, 41358, Note_off_c, 0, 68, 59
1, 41358, Control_c, 0, 67, 17
1, 41359, Note_off_c, 0, 72, 65
1, 41362, Note_off_c, 0, 73, 63
1, 41373, Note_off_c, 0, 56, 64
1, 41373, Control_c, 0, 67, 16
1, 41374, Note_off_c, 0, 52, 61
1, 41380, Note_off_c, 0, 61, 61
1, 41388, Control_c, 0, 67, 15
1, 41403, Control_c, 0, 67, 14
1, 41418, Control_c, 0, 67, 13
1, 41432, Control_c, 0, 67, 12
1, 41447, Control_c, 0, 64, 99
1, 41447, Control_c, 0, 67, 11
1, 41462, Control_c, 0, 64, 85
1, 41462, Control_c, 0, 67, 10
1, 41477, Control_c, 0, 64, 74
1, 41477, Control_c, 0, 67, 8
1, 41492, Control_c, 0, 64, 65
1, 41492, Control_c, 0, 67, 0
1, 41514, Control_c, 0, 64, 58
1, 41529, Control_c, 0, 64, 33
1, 41544, Control_c, 0, 64, 0
1, 41588, Control_c, 0, 64, 33
1, 41603, Control_c, 0, 64, 57
1, 41618, Control_c, 0, 64, 65
1, 41626, Note_on_c, 0, 79, 80
1, 41632, Control_c, 0, 64, 71
1, 41635, Note_on_c, 0, 56, 57
1, 41635, Note_on_c, 0, 60, 51
1, 41642, Note_on_c, 0, 66, 62
1, 41647, Control_c, 0, 64, 77
1, 41649, Note_on_c, 0, 53, 60
1, 41662, Control_c, 0, 64, 84
1, 41677, Control_c, 0, 64, 90
1, 41681, Note_off_c, 0, 79, 63
1, 41692, Control_c, 0, 64, 95
1, 41700, Note_off_c, 0, 60, 53
1, 41706, Control_c, 0, 64, 101
1, 41721, Control_c, 0, 64, 106
1, 41722, Note_off_c, 0, 66, 61
1, 41736, Control_c, 0, 64, 111
1, 41739, Note_off_c, 0, 53, 60
1, 41751, Control_c, 0, 64, 115
1, 41766, Control_c, 0, 64, 124
1, 41781, Control_c, 0, 64, 127
1, 41814, Note_off_c, 0, 56, 33
1, 41829, Note_on_c, 0, 65, 72
1, 41830, Note_on_c, 0, 54, 62
1, 41833, Note_on_c, 0, 60, 59
1, 41837, Note_on_c, 0, 64, 67
1, 41838, Note_on_c, 0, 57, 57
1, 41870, Note_off_c, 0, 65, 60
1, 41872, Note_off_c, 0, 57, 63
1, 41872, Note_off_c, 0, 64, 60
1, 41877, Note_off_c, 0, 54, 62
1, 41881, Note_off_c, 0, 60, 63
1, 41947, Note_on_c, 0, 55, 82
1, 41954, Note_on_c, 0, 75, 75
1, 41957, Note_on_c, 0, 64, 80
1, 41961, Note_on_c, 0, 67, 72
1, 41963, Note_on_c, 0, 76, 67
1, 41966, Note_on_c, 0, 71, 69
1, 41975, Note_on_c, 0, 59, 56
1, 41983, Note_off_c, 0, 76, 65
1, 41993, Note_off_c, 0, 71, 67
1, 41998, Note_off_c, 0, 59, 62
1, 42003, Note_off_c, 0, 75, 59
1, 42004, Note_off_c, 0, 64, 60
1, 42009, Note_off_c, 0, 67, 58
1, 42034, Note_off_c, 0, 55, 62
1, 42064, Note_on_c, 0, 67, 72
1, 42064, Note_on_c, 0, 68, 91
1, 42076, Note_on_c, 0, 63, 85
1, 42079, Note_on_c, 0, 57, 78
1, 42094, Note_on_c, 0, 60, 49
1, 42106, Note_off_c, 0, 68, 65
1, 42112, Note_off_c, 0, 67, 62
1, 42119, Note_off_c, 0, 60, 59
1, 42151, Note_off_c, 0, 63, 62
1, 42167, Control_c, 0, 64, 119
1, 42181, Control_c, 0, 64, 93
1, 42196, Control_c, 0, 64, 72
1, 42198, Note_on_c, 0, 68, 96
1, 42201, Note_on_c, 0, 78, 81
1, 42201, Note_on_c, 0, 79, 84
1, 42204, Note_on_c, 0, 73, 58
1, 42207, Note_on_c, 0, 67, 92
1, 42210, Note_on_c, 0, 62, 76
1, 42211, Note_on_c, 0, 74, 87
1, 42211, Control_c, 0, 64, 42
1, 42213, Note_on_c, 0, 58, 88
1, 42226, Control_c, 0, 64, 42
1, 42233, Note_off_c, 0, 73, 55
1, 42240, Note_off_c, 0, 79, 61
1, 42241, Note_off_c, 0, 57, 62
1, 42241, Control_c, 0, 64, 62
1, 42245, Note_off_c, 0, 68, 67
1, 42253, Note_on_c, 0, 77, 28
1, 42254, Note_off_c, 0, 77, 127
1, 42260, Note_off_c, 0, 67, 64
1, 42263, Control_c, 0, 64, 69
1, 42268, Note_off_c, 0, 74, 67
1, 42273, Note_off_c, 0, 62, 63
1, 42278, Control_c, 0, 64, 77
1, 42280, Note_off_c, 0, 78, 64
1, 42282, Note_off_c, 0, 58, 64
1, 42293, Control_c, 0, 64, 85
1, 42308, Control_c, 0, 64, 94
1, 42323, Control_c, 0, 64, 98
1, 42337, Control_c, 0, 64, 103
1, 42352, Control_c, 0, 64, 112
1, 42367, Control_c, 0, 64, 127
1, 42538, Note_on_c, 0, 58, 97
1, 42544, Control_c, 0, 64, 98
1, 42559, Control_c, 0, 64, 76
1, 42566, Note_on_c, 0, 102, 79
1, 42574, Control_c, 0, 64, 53
1, 42589, Control_c, 0, 64, 0
1, 42634, Control_c, 0, 64, 56
1, 42636, Note_on_c, 0, 99, 79
1, 42649, Control_c, 0, 64, 66
1, 42664, Control_c, 0, 64, 72
1, 42676, Note_on_c, 0, 97, 72
1, 42678, Control_c, 0, 64, 81
1, 42679, Note_off_c, 0, 102, 59
1, 42693, Control_c, 0, 64, 92
1, 42708, Control_c, 0, 64, 106
1, 42710, Note_on_c, 0, 94, 79
1, 42723, Control_c, 0, 64, 127
1, 42735, Note_off_c, 0, 99, 62
1, 42750, Note_on_c, 0, 89, 66
1, 42751, Note_off_c, 0, 97, 65
1, 42765, Note_off_c, 0, 94, 63
1, 42777, Note_off_c, 0, 89, 67
1, 42800, Note_on_c, 0, 60, 100
1, 42809, Note_on_c, 0, 97, 86
1, 42812, Note_off_c, 0, 58, 65
1, 42872, Note_on_c, 0, 94, 42
1, 42885, Note_on_c, 0, 87, 87
1, 42887, Note_off_c, 0, 97, 65
1, 42892, Note_on_c, 0, 92, 58
1, 42900, Note_off_c, 0, 94, 56
1, 42907, Note_on_c, 0, 84, 66
1, 42917, Note_off_c, 0, 92, 58
1, 42935, Note_off_c, 0, 84, 67
1, 42960, Note_on_c, 0, 94, 87
1, 42972, Note_off_c, 0, 87, 65
1, 42981, Note_off_c, 0, 94, 69
1, 43012, Poly_aftertouch_c, 0, 86, 0
1, 43080, Note_on_c, 0, 63, 100
1, 43086, Control_c, 0, 64, 108
1, 43093, Note_on_c, 0, 79, 81
1, 43093, Note_off_c, 0, 60, 59
1, 43101, Note_on_c, 0, 78, 75
1, 43101, Control_c, 0, 64, 87
1, 43116, Control_c, 0, 64, 74
1, 43130, Control_c, 0, 64, 67
1, 43133, Note_off_c, 0, 79, 59
1, 43145, Control_c, 0, 64, 66
1, 43152, Note_off_c, 0, 78, 47
1, 43160, Control_c, 0, 64, 69
1, 43164, Note_on_c, 0, 77, 72
1, 43175, Control_c, 0, 64, 77
1, 43190, Control_c, 0, 64, 89
1, 43203, Note_off_c, 0, 77, 58
1, 43204, Note_on_c, 0, 79, 68
1, 43204, Control_c, 0, 64, 111
1, 43206, Note_on_c, 0, 78, 41
1, 43219, Control_c, 0, 64, 127
1, 43234, Note_off_c, 0, 79, 64
1, 43239, Note_off_c, 0, 78, 57
1, 43271, Note_on_c, 0, 77, 69
1, 43280, Note_off_c, 0, 63, 56
1, 43283, Note_on_c, 0, 79, 77
1, 43294, Note_on_c, 0, 78, 60
1, 43298, Note_off_c, 0, 77, 66
1, 43316, Note_off_c, 0, 78, 64
1, 43326, Note_off_c, 0, 79, 63
1, 43362, Note_on_c, 0, 77, 72
1, 43370, Note_on_c, 0, 65, 101
1, 43376, Note_on_c, 0, 78, 72
1, 43377, Note_on_c, 0, 79, 68
1, 43391, Note_off_c, 0, 77, 61
1, 43399, Note_off_c, 0, 78, 69
1, 43411, Note_off_c, 0, 65, 70
1, 43414, Note_on_c, 0, 80, 11
1, 43415, Note_off_c, 0, 80, 127
1, 43415, Note_off_c, 0, 79, 61
1, 43448, Note_on_c, 0, 77, 61
1, 43457, Note_on_c, 0, 79, 68
1, 43468, Note_on_c, 0, 78, 65
1, 43483, Note_off_c, 0, 77, 60
1, 43488, Note_off_c, 0, 78, 64
1, 43493, Note_off_c, 0, 79, 62
1, 43533, Note_on_c, 0, 77, 58
1, 43542, Note_on_c, 0, 79, 73
1, 43548, Note_on_c, 0, 78, 72
1, 43566, Note_off_c, 0, 78, 69
1, 43573, Note_off_c, 0, 77, 60
1, 43579, Note_off_c, 0, 79, 60
1, 43615, Poly_aftertouch_c, 0, 79, 0
1, 43617, Note_on_c, 0, 77, 53
1, 43622, Note_on_c, 0, 78, 73
1, 43622, Note_on_c, 0, 79, 74
1, 43652, Note_off_c, 0, 78, 60
1, 43663, Note_off_c, 0, 77, 57
1, 43665, Note_off_c, 0, 79, 63
1, 43709, Note_on_c, 0, 77, 47
1, 43714, Note_on_c, 0, 79, 74
1, 43719, Note_on_c, 0, 78, 67
1, 43728, Note_on_c, 0, 67, 107
1, 43745, Note_off_c, 0, 78, 66
1, 43764, Note_off_c, 0, 79, 62
1, 43776, Note_off_c, 0, 77, 0
1, 43792, Note_on_c, 0, 77, 49
1, 43807, Note_on_c, 0, 79, 69
1, 43812, Note_on_c, 0, 78, 71
1, 43836, Note_off_c, 0, 78, 68
1, 43848, Note_off_c, 0, 79, 61
1, 43854, Note_off_c, 0, 67, 63
1, 43891, Note_on_c, 0, 79, 70
1, 43897, Note_on_c, 0, 78, 70
1, 43919, Note_off_c, 0, 78, 64
1, 43930, Note_on_c, 0, 68, 99
1, 43933, Note_off_c, 0, 79, 63
1, 43978, Note_on_c, 0, 79, 69
1, 43981, Note_on_c, 0, 78, 67
1, 44003, Note_off_c, 0, 68, 59
1, 44006, Note_off_c, 0, 78, 67
1, 44009, Note_off_c, 0, 79, 63
1, 44050, Note_on_c, 0, 78, 87
1, 44056, Note_on_c, 0, 70, 97
1, 44058, Note_on_c, 0, 79, 78
1, 44081, Note_off_c, 0, 77, 55
1, 44088, Note_off_c, 0, 78, 63
1, 44089, Note_off_c, 0, 79, 62
1, 44092, Note_off_c, 0, 70, 67
1, 44186, Note_on_c, 0, 84, 75
1, 44238, Note_on_c, 0, 90, 87
1, 44239, Note_on_c, 0, 87, 83
1, 44250, Note_off_c, 0, 84, 66
1, 44258, Note_on_c, 0, 97, 87
1, 44277, Note_on_c, 0, 82, 71
1, 44277, Note_off_c, 0, 87, 68
1, 44291, Note_off_c, 0, 90, 67
1, 44295, Note_off_c, 0, 97, 68
1, 44325, Note_on_c, 0, 76, 78
1, 44331, Note_off_c, 0, 82, 68
1, 44356, Note_off_c, 0, 76, 67
1, 44376, Note_on_c, 0, 100, 108
1, 44378, Note_on_c, 0, 105, 108
1, 44378, Poly_aftertouch_c, 0, 86, 0
1, 44391, Note_off_c, 0, 100, 75
1, 44393, Note_off_c, 0, 105, 76
1, 44429, Control_c, 0, 64, 112
1, 44444, Control_c, 0, 64, 81
1, 44459, Control_c, 0, 64, 62
1, 44459, Control_c, 0, 67, 15
1, 44474, Control_c, 0, 64, 0
1, 44474, Control_c, 0, 67, 32
1, 44489, Control_c, 0, 67, 56
1, 44511, Control_c, 0, 67, 71
1, 44525, Control_c, 0, 67, 80
1, 44540, Control_c, 0, 67, 85
1, 44555, Control_c, 0, 67, 89
1, 44570, Control_c, 0, 67, 91
1, 44584, Control_c, 0, 67, 95
1, 44593, Note_on_c, 0, 88, 11
1, 44599, Control_c, 0, 67, 99
1, 44600, Note_off_c, 0, 88, 41
1, 44614, Control_c, 0, 67, 101
1, 44629, Control_c, 0, 67, 102
1, 44658, Control_c, 0, 67, 102
1, 44703, Control_c, 0, 64, 14
1, 44718, Control_c, 0, 64, 30
1, 44733, Control_c, 0, 64, 44
1, 44748, Control_c, 0, 64, 56
1, 44759, Note_on_c, 0, 94, 67
1, 44763, Control_c, 0, 64, 63
1, 44777, Control_c, 0, 64, 66
1, 44786, Note_on_c, 0, 34, 54
1, 44792, Control_c, 0, 64, 68
1, 44807, Control_c, 0, 64, 68
1, 44822, Control_c, 0, 64, 69
1, 44837, Control_c, 0, 64, 71
1, 44851, Control_c, 0, 64, 72
1, 44851, Control_c, 0, 67, 102
1, 44866, Control_c, 0, 64, 73
1, 44866, Control_c, 0, 67, 101
1, 44878, Note_off_c, 0, 34, 56
1, 44879, Note_on_c, 0, 93, 50
1, 44881, Control_c, 0, 67, 101
1, 44882, Note_off_c, 0, 94, 60
1, 44900, Note_on_c, 0, 37, 53
1, 44907, Note_off_c, 0, 93, 56
1, 44940, Control_c, 0, 64, 72
1, 44940, Control_c, 0, 67, 100
1, 44948, Note_on_c, 0, 87, 67
1, 44960, Note_off_c, 0, 37, 57
1, 44970, Control_c, 0, 64, 72
1, 44970, Control_c, 0, 67, 100
1, 44977, Note_on_c, 0, 42, 50
1, 44999, Control_c, 0, 64, 71
1, 45013, Note_off_c, 0, 42, 62
1, 45014, Control_c, 0, 67, 99
1, 45020, Note_on_c, 0, 88, 72
1, 45025, Note_off_c, 0, 87, 36
1, 45030, Control_c, 0, 67, 99
1, 45032, Note_on_c, 0, 44, 43
1, 45045, Control_c, 0, 67, 98
1, 45047, Note_off_c, 0, 88, 65
1, 45060, Control_c, 0, 64, 71
1, 45060, Control_c, 0, 67, 97
1, 45064, Note_off_c, 0, 44, 51
1, 45074, Control_c, 0, 67, 97
1, 45079, Note_on_c, 0, 83, 66
1, 45089, Control_c, 0, 67, 96
1, 45104, Control_c, 0, 67, 96
1, 45106, Note_off_c, 0, 83, 66
1, 45107, Note_on_c, 0, 41, 57
1, 45119, Control_c, 0, 67, 95
1, 45134, Control_c, 0, 67, 95
1, 45146, Note_on_c, 0, 81, 81
1, 45148, Control_c, 0, 64, 71
1, 45151, Note_on_c, 0, 43, 50
1, 45153, Note_off_c, 0, 41, 58
1, 45163, Control_c, 0, 64, 72
1, 45163, Control_c, 0, 67, 94
1, 45178, Control_c, 0, 64, 72
1, 45178, Control_c, 0, 67, 94
1, 45189, Note_off_c, 0, 43, 63
1, 45192, Control_c, 0, 64, 73
1, 45204, Note_off_c, 0, 81, 65
1, 45207, Control_c, 0, 64, 76
1, 45213, Note_on_c, 0, 45, 35
1, 45222, Control_c, 0, 64, 79
1, 45232, Note_on_c, 0, 49, 63
1, 45234, Note_on_c, 0, 80, 62
1, 45237, Control_c, 0, 64, 84
1, 45237, Control_c, 0, 67, 93
1, 45258, Note_off_c, 0, 45, 46
1, 45260, Note_off_c, 0, 80, 64
1, 45260, Control_c, 0, 64, 90
1, 45260, Control_c, 0, 67, 93
1, 45264, Note_on_c, 0, 84, 77
1, 45268, Note_off_c, 0, 49, 65
1, 45274, Control_c, 0, 64, 96
1, 45274, Control_c, 0, 67, 92
1, 45289, Control_c, 0, 64, 100
1, 45289, Control_c, 0, 67, 92
1, 45303, Note_on_c, 0, 44, 73
1, 45304, Control_c, 0, 64, 104
1, 45304, Control_c, 0, 67, 90
1, 45319, Control_c, 0, 64, 109
1, 45319, Control_c, 0, 67, 89
1, 45330, Note_off_c, 0, 84, 62
1, 45333, Note_on_c, 0, 78, 83
1, 45333, Control_c, 0, 64, 120
1, 45333, Control_c, 0, 67, 86
1, 45348, Control_c, 0, 64, 127
1, 45348, Control_c, 0, 67, 80
1, 45362, Note_on_c, 0, 47, 70
1, 45362, Note_off_c, 0, 44, 63
1, 45363, Control_c, 0, 67, 69
1, 45378, Control_c, 0, 67, 53
1, 45383, Note_on_c, 0, 75, 74
1, 45387, Note_on_c, 0, 50, 70
1, 45393, Control_c, 0, 67, 32
1, 45395, Note_off_c, 0, 78, 60
1, 45407, Control_c, 0, 67, 16
1, 45414, Note_off_c, 0, 47, 64
1, 45422, Control_c, 0, 67, 0
1, 45434, Note_off_c, 0, 75, 62
1, 45434, Note_on_c, 0, 81, 86
1, 45443, Note_off_c, 0, 50, 65
1, 45444, Note_on_c, 0, 52, 70
1, 45477, Note_off_c, 0, 52, 64
1, 45503, Note_on_c, 0, 48, 71
1, 45508, Note_off_c, 0, 81, 62
1, 45511, Note_on_c, 0, 74, 74
1, 45511, Note_on_c, 0, 75, 61
1, 45516, Note_on_c, 0, 76, 73
1, 45537, Note_off_c, 0, 76, 68
1, 45539, Note_off_c, 0, 75, 67
1, 45545, Note_on_c, 0, 71, 84
1, 45547, Note_on_c, 0, 54, 82
1, 45548, Note_off_c, 0, 74, 63
1, 45571, Note_on_c, 0, 52, 6
1, 45571, Note_off_c, 0, 71, 66
1, 45576, Note_off_c, 0, 48, 62
1, 45581, Note_on_c, 0, 56, 74
1, 45603, Note_on_c, 0, 71, 72
1, 45609, Note_off_c, 0, 54, 67
1, 45609, Note_on_c, 0, 57, 81
1, 45618, Note_off_c, 0, 52, 41
1, 45624, Note_on_c, 0, 66, 93
1, 45628, Note_off_c, 0, 56, 65
1, 45638, Note_off_c, 0, 71, 61
1, 45649, Note_off_c, 0, 57, 66
1, 45669, Note_off_c, 0, 66, 68
1, 45669, Note_on_c, 0, 63, 93
1, 45711, Note_on_c, 0, 58, 105
1, 45717, Note_off_c, 0, 63, 66
1, 45755, Note_on_c, 0, 61, 42
1, 45763, Control_c, 0, 64, 90
1, 45778, Control_c, 0, 64, 67
1, 45788, Note_off_c, 0, 61, 54
1, 45793, Control_c, 0, 64, 0
1, 46201, Control_c, 0, 64, 50
1, 46216, Control_c, 0, 64, 64
1, 46230, Control_c, 0, 64, 68
1, 46245, Control_c, 0, 64, 72
1, 46260, Control_c, 0, 64, 76
1, 46275, Control_c, 0, 64, 79
1, 46290, Control_c, 0, 64, 84
1, 46304, Control_c, 0, 64, 89
1, 46319, Control_c, 0, 64, 94
1, 46335, Control_c, 0, 64, 100
1, 46349, Control_c, 0, 64, 106
1, 46364, Control_c, 0, 64, 115
1, 46373, Note_off_c, 0, 58, 60
1, 46379, Control_c, 0, 64, 127
1, 46691, Control_c, 0, 64, 115
1, 46706, Control_c, 0, 64, 103
1, 46721, Control_c, 0, 64, 92
1, 46736, Control_c, 0, 64, 81
1, 46751, Note_on_c, 0, 81, 90
1, 46758, Control_c, 0, 64, 70
1, 46770, Note_on_c, 0, 63, 42
1, 46772, Note_on_c, 0, 58, 46
1, 46773, Control_c, 0, 64, 58
1, 46774, Note_on_c, 0, 55, 34
1, 46776, Note_on_c, 0, 70, 72
1, 46788, Control_c, 0, 64, 52
1, 46803, Control_c, 0, 64, 56
1, 46818, Control_c, 0, 64, 62
1, 46833, Control_c, 0, 64, 65
1, 46848, Control_c, 0, 64, 68
1, 46862, Control_c, 0, 64, 74
1, 46874, Note_off_c, 0, 70, 59
1, 46877, Control_c, 0, 64, 82
1, 46892, Control_c, 0, 64, 92
1, 46907, Control_c, 0, 64, 101
1, 46917, Note_on_c, 0, 71, 75
1, 46917, Note_off_c, 0, 63, 47
1, 46921, Control_c, 0, 64, 106
1, 46924, Note_off_c, 0, 81, 64
1, 46936, Control_c, 0, 64, 110
1, 46951, Control_c, 0, 64, 113
1, 46964, Note_off_c, 0, 58, 54
1, 46966, Control_c, 0, 64, 114
1, 47025, Note_on_c, 0, 82, 98
1, 47037, Note_on_c, 0, 56, 64
1, 47040, Note_on_c, 0, 63, 56
1, 47040, Control_c, 0, 64, 110
1, 47048, Note_on_c, 0, 59, 52
1, 47052, Note_off_c, 0, 55, 42
1, 47055, Control_c, 0, 64, 98
1, 47070, Control_c, 0, 64, 86
1, 47079, Note_on_c, 0, 69, 55
1, 47084, Control_c, 0, 64, 74
1, 47098, Control_c, 0, 64, 62
1, 47113, Control_c, 0, 64, 0
1, 47187, Control_c, 0, 64, 50
1, 47202, Control_c, 0, 64, 63
1, 47217, Control_c, 0, 64, 68
1, 47232, Control_c, 0, 64, 73
1, 47240, Note_off_c, 0, 71, 36
1, 47246, Control_c, 0, 64, 78
1, 47261, Control_c, 0, 64, 85
1, 47276, Control_c, 0, 64, 94
1, 47291, Control_c, 0, 64, 104
1, 47300, Note_off_c, 0, 69, 38
1, 47306, Control_c, 0, 64, 113
1, 47320, Control_c, 0, 64, 127
1, 47371, Note_off_c, 0, 59, 59
1, 47375, Note_off_c, 0, 63, 35
1, 47377, Note_off_c, 0, 56, 58
1, 47404, Note_off_c, 0, 82, 58
1, 47411, Note_on_c, 0, 71, 77
1, 47472, Note_off_c, 0, 71, 64
1, 47566, Control_c, 0, 64, 106
1, 47581, Control_c, 0, 64, 88
1, 47596, Control_c, 0, 64, 77
1, 47602, Note_on_c, 0, 63, 58
1, 47603, Note_on_c, 0, 68, 84
1, 47607, Note_on_c, 0, 67, 76
1, 47609, Note_on_c, 0, 60, 63
1, 47610, Control_c, 0, 64, 72
1, 47616, Note_on_c, 0, 57, 60
1, 47625, Control_c, 0, 64, 73
1, 47640, Control_c, 0, 64, 77
1, 47655, Control_c, 0, 64, 85
1, 47663, Note_off_c, 0, 63, 63
1, 47665, Note_off_c, 0, 68, 62
1, 47670, Control_c, 0, 64, 97
1, 47678, Note_off_c, 0, 67, 62
1, 47684, Control_c, 0, 64, 109
1, 47699, Control_c, 0, 64, 127
1, 47734, Note_off_c, 0, 60, 59
1, 47735, Note_off_c, 0, 57, 57
1, 47756, Note_on_c, 0, 79, 83
1, 47767, Note_on_c, 0, 67, 77
1, 47774, Note_on_c, 0, 68, 82
1, 47777, Note_on_c, 0, 74, 75
1, 47778, Note_on_c, 0, 58, 65
1, 47791, Note_on_c, 0, 62, 59
1, 47797, Note_on_c, 0, 78, 40
1, 47821, Note_off_c, 0, 68, 63
1, 47823, Note_off_c, 0, 62, 63
1, 47827, Note_off_c, 0, 78, 64
1, 47830, Note_off_c, 0, 79, 65
1, 47830, Note_off_c, 0, 67, 62
1, 47833, Note_off_c, 0, 58, 63
1, 47836, Note_off_c, 0, 74, 66
1, 47921, Control_c, 0, 64, 97
1, 47936, Control_c, 0, 64, 80
1, 47951, Control_c, 0, 64, 67
1, 47966, Control_c, 0, 64, 49
1, 47981, Control_c, 0, 64, 0
1, 48055, Control_c, 0, 64, 51
1, 48069, Control_c, 0, 64, 62
1, 48079, Note_on_c, 0, 74, 73
1, 48084, Control_c, 0, 64, 65
1, 48088, Note_on_c, 0, 73, 66
1, 48090, Note_on_c, 0, 62, 57
1, 48099, Control_c, 0, 64, 70
1, 48101, Note_on_c, 0, 59, 42
1, 48104, Note_on_c, 0, 66, 42
1, 48113, Control_c, 0, 64, 76
1, 48128, Control_c, 0, 64, 86
1, 48143, Control_c, 0, 64, 93
1, 48156, Note_off_c, 0, 74, 64
1, 48158, Control_c, 0, 64, 98
1, 48166, Note_off_c, 0, 66, 52
1, 48173, Control_c, 0, 64, 102
1, 48188, Control_c, 0, 64, 110
1, 48191, Note_off_c, 0, 59, 55
1, 48197, Note_off_c, 0, 73, 47
1, 48203, Control_c, 0, 64, 115
1, 48218, Control_c, 0, 64, 119
1, 48233, Control_c, 0, 64, 121
1, 48234, Note_off_c, 0, 62, 36
1, 48256, Control_c, 0, 64, 123
1, 48271, Control_c, 0, 64, 127
1, 48283, Note_on_c, 0, 60, 28
1, 48289, Note_on_c, 0, 66, 72
1, 48300, Note_on_c, 0, 85, 74
1, 48301, Note_on_c, 0, 63, 65
1, 48311, Note_on_c, 0, 72, 74
1, 48322, Note_off_c, 0, 85, 71
1, 48329, Note_off_c, 0, 60, 62
1, 48334, Note_off_c, 0, 72, 68
1, 48337, Note_off_c, 0, 63, 56
1, 48358, Note_off_c, 0, 66, 60
1, 48421, Note_on_c, 0, 71, 82
1, 48426, Note_on_c, 0, 70, 72
1, 48444, Note_on_c, 0, 61, 70
1, 48446, Note_on_c, 0, 68, 63
1, 48456, Note_off_c, 0, 70, 64
1, 48462, Note_off_c, 0, 71, 61
1, 48495, Note_off_c, 0, 68, 48
1, 48540, Note_on_c, 0, 82, 77
1, 48542, Note_on_c, 0, 81, 79
1, 48548, Note_on_c, 0, 72, 68
1, 48548, Note_on_c, 0, 77, 80
1, 48549, Note_on_c, 0, 69, 71
1, 48560, Note_on_c, 0, 66, 61
1, 48570, Note_on_c, 0, 63, 55
1, 48577, Note_off_c, 0, 72, 65
1, 48590, Note_off_c, 0, 81, 60
1, 48591, Note_off_c, 0, 82, 59
1, 48595, Note_off_c, 0, 61, 58
1, 48595, Poly_aftertouch_c, 0, 78, 127
1, 48599, Note_off_c, 0, 77, 62
1, 48617, Note_off_c, 0, 69, 58
1, 48625, Note_off_c, 0, 66, 60
1, 48626, Poly_aftertouch_c, 0, 78, 0
1, 48665, Note_off_c, 0, 63, 0
1, 48665, Note_on_c, 0, 63, 6
1, 48668, Note_on_c, 0, 73, 94
1, 48669, Note_on_c, 0, 69, 52
1, 48672, Note_on_c, 0, 76, 78
1, 48692, Note_off_c, 0, 69, 65
1, 48695, Note_off_c, 0, 76, 67
1, 48709, Note_off_c, 0, 73, 64
1, 48759, Poly_aftertouch_c, 0, 64, 127
1, 48772, Note_on_c, 0, 88, 73
1, 48783, Note_on_c, 0, 69, 40
1, 48784, Note_on_c, 0, 82, 74
1, 48788, Note_off_c, 0, 88, 69
1, 48794, Note_on_c, 0, 86, 47
1, 48804, Note_on_c, 0, 76, 62
1, 48806, Note_off_c, 0, 82, 70
1, 48811, Poly_aftertouch_c, 0, 64, 0
1, 48813, Note_off_c, 0, 69, 54
1, 48819, Note_off_c, 0, 86, 59
1, 48823, Note_off_c, 0, 76, 64
1, 48865, Note_off_c, 0, 63, 0
1, 48873, Poly_aftertouch_c, 0, 63, 0
1, 48876, Note_on_c, 0, 73, 90
1, 48879, Note_on_c, 0, 63, 46
1, 48883, Note_on_c, 0, 74, 90
1, 48896, Note_on_c, 0, 64, 75
1, 48900, Note_on_c, 0, 71, 56
1, 48901, Note_off_c, 0, 73, 63
1, 48915, Note_off_c, 0, 63, 50
1, 48920, Note_off_c, 0, 71, 64
1, 48924, Note_off_c, 0, 74, 64
1, 48925, Note_off_c, 0, 64, 64
1, 48987, Note_on_c, 0, 78, 75
1, 48996, Poly_aftertouch_c, 0, 75, 0
1, 48999, Note_on_c, 0, 74, 89
1, 49010, Note_on_c, 0, 66, 58
1, 49013, Note_on_c, 0, 67, 85
1, 49017, Note_on_c, 0, 86, 77
1, 49026, Note_off_c, 0, 74, 64
1, 49037, Note_off_c, 0, 86, 72
1, 49043, Note_off_c, 0, 78, 63
1, 49044, Note_on_c, 0, 85, 24
1, 49045, Note_off_c, 0, 85, 127
1, 49047, Note_off_c, 0, 66, 56
1, 49058, Note_off_c, 0, 67, 59
1, 49090, Poly_aftertouch_c, 0, 68, 127
1, 49157, Poly_aftertouch_c, 0, 68, 0
1, 49320, Poly_aftertouch_c, 0, 99, 127
1, 49366, Poly_aftertouch_c, 0, 99, 0
1, 49404, Control_c, 0, 64, 100
1, 49412, Note_on_c, 0, 55, 93
1, 49417, Note_on_c, 0, 67, 95
1, 49419, Control_c, 0, 64, 81
1, 49428, Note_on_c, 0, 104, 89
1, 49434, Control_c, 0, 64, 65
1, 49440, Note_on_c, 0, 57, 53
1, 49449, Control_c, 0, 64, 32
1, 49455, Note_on_c, 0, 102, 59
1, 49464, Control_c, 0, 64, 11
1, 49479, Control_c, 0, 64, 49
1, 49493, Control_c, 0, 64, 64
1, 49497, Note_off_c, 0, 102, 0
1, 49497, Note_on_c, 0, 102, 18
1, 49501, Note_off_c, 0, 104, 64
1, 49508, Control_c, 0, 64, 72
1, 49511, Note_on_c, 0, 97, 84
1, 49523, Control_c, 0, 64, 85
1, 49538, Control_c, 0, 64, 101
1, 49543, Note_off_c, 0, 102, 51
1, 49550, Note_on_c, 0, 94, 75
1, 49553, Control_c, 0, 64, 124
1, 49561, Note_off_c, 0, 57, 20
1, 49567, Control_c, 0, 64, 127
1, 49586, Note_off_c, 0, 55, 60
1, 49587, Note_off_c, 0, 97, 62
1, 49588, Note_on_c, 0, 89, 78
1, 49593, Note_off_c, 0, 67, 60
1, 49604, Note_off_c, 0, 94, 65
1, 49634, Note_off_c, 0, 89, 59
1, 49638, Note_on_c, 0, 99, 98
1, 49652, Note_on_c, 0, 61, 18
1, 49661, Note_on_c, 0, 69, 94
1, 49662, Note_on_c, 0, 57, 90
1, 49687, Note_off_c, 0, 61, 0
1, 49708, Note_on_c, 0, 97, 52
1, 49708, Poly_aftertouch_c, 0, 61, 0
1, 49714, Note_on_c, 0, 94, 82
1, 49744, Note_off_c, 0, 99, 63
1, 49757, Note_off_c, 0, 97, 65
1, 49758, Note_on_c, 0, 89, 66
1, 49763, Note_on_c, 0, 86, 73
1, 49768, Note_on_c, 0, 88, 68
1, 49780, Note_off_c, 0, 94, 63
1, 49792, Note_off_c, 0, 86, 66
1, 49792, Note_off_c, 0, 88, 65
1, 49795, Note_off_c, 0, 89, 61
1, 49797, Note_off_c, 0, 57, 61
1, 49827, Note_on_c, 0, 96, 64
1, 49828, Note_off_c, 0, 69, 61
1, 49842, Note_on_c, 0, 94, 47
1, 49845, Note_off_c, 0, 96, 66
1, 49865, Note_off_c, 0, 94, 59
1, 49924, Note_on_c, 0, 72, 93
1, 49926, Note_on_c, 0, 60, 94
1, 49949, Note_on_c, 0, 79, 78
1, 49956, Note_on_c, 0, 78, 66
1, 49961, Control_c, 0, 64, 102
1, 49973, Note_on_c, 0, 80, 31
1, 49976, Control_c, 0, 64, 82
1, 49986, Note_off_c, 0, 79, 60
1, 49990, Control_c, 0, 64, 66
1, 50005, Control_c, 0, 64, 28
1, 50013, Note_off_c, 0, 80, 44
1, 50015, Note_on_c, 0, 77, 71
1, 50020, Control_c, 0, 64, 24
1, 50035, Control_c, 0, 64, 48
1, 50047, Note_on_c, 0, 79, 68
1, 50050, Note_off_c, 0, 77, 60
1, 50050, Control_c, 0, 64, 61
1, 50052, Note_off_c, 0, 78, 0
1, 50052, Note_on_c, 0, 78, 19
1, 50059, Note_on_c, 0, 80, 45
1, 50064, Control_c, 0, 64, 67
1, 50079, Control_c, 0, 64, 75
1, 50082, Note_off_c, 0, 80, 58
1, 50083, Note_off_c, 0, 79, 65
1, 50094, Control_c, 0, 64, 88
1, 50108, Note_off_c, 0, 78, 0
1, 50109, Control_c, 0, 64, 108
1, 50114, Note_on_c, 0, 77, 75
1, 50121, Note_on_c, 0, 78, 59
1, 50123, Control_c, 0, 64, 127
1, 50136, Note_off_c, 0, 60, 59
1, 50137, Note_on_c, 0, 79, 68
1, 50139, Note_off_c, 0, 72, 60
1, 50159, Note_off_c, 0, 77, 61
1, 50170, Note_on_c, 0, 80, 32
1, 50176, Note_off_c, 0, 79, 61
1, 50184, Note_off_c, 0, 78, 0
1, 50198, Note_on_c, 0, 78, 54
1, 50200, Note_on_c, 0, 77, 61
1, 50209, Note_on_c, 0, 74, 98
1, 50212, Note_on_c, 0, 62, 100
1, 50213, Note_on_c, 0, 79, 66
1, 50245, Note_off_c, 0, 77, 61
1, 50249, Note_off_c, 0, 74, 70
1, 50250, Note_off_c, 0, 62, 67
1, 50253, Note_off_c, 0, 78, 60
1, 50255, Note_off_c, 0, 79, 61
1, 50279, Note_off_c, 0, 80, 21
1, 50281, Note_on_c, 0, 77, 56
1, 50289, Note_on_c, 0, 78, 53
1, 50291, Poly_aftertouch_c, 0, 79, 0
1, 50300, Note_on_c, 0, 79, 66
1, 50328, Note_on_c, 0, 80, 28
1, 50332, Note_off_c, 0, 78, 58
1, 50332, Note_off_c, 0, 79, 59
1, 50367, Note_off_c, 0, 80, 29
1, 50370, Note_on_c, 0, 78, 62
1, 50371, Note_off_c, 0, 77, 0
1, 50371, Note_on_c, 0, 77, 18
1, 50376, Note_on_c, 0, 79, 72
1, 50407, Note_off_c, 0, 77, 60
1, 50412, Note_off_c, 0, 78, 62
1, 50416, Note_off_c, 0, 79, 61
1, 50451, Note_on_c, 0, 78, 65
1, 50456, Note_on_c, 0, 79, 73
1, 50502, Note_off_c, 0, 78, 62
1, 50505, Note_off_c, 0, 79, 62
1, 50548, Note_on_c, 0, 78, 66
1, 50551, Note_on_c, 0, 64, 102
1, 50552, Note_on_c, 0, 76, 106
1, 50553, Note_on_c, 0, 79, 81
1, 50584, Note_off_c, 0, 78, 63
1, 50585, Note_on_c, 0, 65, 44
1, 50586, Note_off_c, 0, 65, 127
1, 50591, Note_off_c, 0, 79, 59
1, 50634, Note_on_c, 0, 78, 74
1, 50638, Note_on_c, 0, 79, 80
1, 50675, Note_off_c, 0, 64, 62
1, 50678, Note_off_c, 0, 78, 60
1, 50678, Note_off_c, 0, 79, 63
1, 50684, Note_off_c, 0, 76, 58
1, 50716, Note_on_c, 0, 78, 72
1, 50724, Note_on_c, 0, 79, 77
1, 50750, Note_on_c, 0, 77, 95
1, 50754, Note_on_c, 0, 65, 99
1, 50762, Note_off_c, 0, 78, 62
1, 50763, Note_off_c, 0, 79, 62
1, 50802, Note_on_c, 0, 78, 69
1, 50812, Note_on_c, 0, 79, 74
1, 50820, Note_off_c, 0, 65, 64
1, 50825, Note_off_c, 0, 77, 63
1, 50837, Note_off_c, 0, 79, 66
1, 50855, Note_off_c, 0, 78, 0
1, 50867, Note_on_c, 0, 78, 68
1, 50887, Note_on_c, 0, 79, 96
1, 50892, Note_on_c, 0, 67, 98
1, 50907, Note_off_c, 0, 78, 64
1, 50919, Note_on_c, 0, 80, 38
1, 50920, Note_off_c, 0, 80, 127
1, 50925, Note_off_c, 0, 67, 65
1, 50938, Note_off_c, 0, 79, 64
1, 51014, Note_on_c, 0, 84, 72
1, 51058, Note_on_c, 0, 90, 71
1, 51063, Note_on_c, 0, 97, 77
1, 51067, Note_off_c, 0, 84, 68
1, 51072, Note_on_c, 0, 89, 84
1, 51077, Note_off_c, 0, 97, 69
1, 51079, Note_on_c, 0, 87, 86
1, 51082, Note_on_c, 0, 96, 84
1, 51097, Note_off_c, 0, 89, 63
1, 51099, Note_on_c, 0, 94, 58
1, 51115, Note_on_c, 0, 82, 70
1, 51118, Note_off_c, 0, 87, 67
1, 51118, Note_off_c, 0, 94, 67
1, 51122, Note_off_c, 0, 96, 67
1, 51122, Note_off_c, 0, 90, 64
1, 51149, Note_on_c, 0, 86, 40
1, 51157, Note_on_c, 0, 76, 79
1, 51165, Note_off_c, 0, 82, 67
1, 51177, Note_off_c, 0, 86, 57
1, 51187, Note_off_c, 0, 76, 68
1, 51200, Note_on_c, 0, 83, 32
1, 51201, Poly_aftertouch_c, 0, 88, 0
1, 51217, Note_on_c, 0, 100, 112
1, 51219, Note_on_c, 0, 105, 113
1, 51233, Note_off_c, 0, 83, 58
1, 51248, Note_off_c, 0, 105, 62
1, 51249, Note_off_c, 0, 100, 68
1, 51262, Note_on_c, 0, 104, 41
1, 51263, Note_off_c, 0, 104, 127
1, 51265, Control_c, 0, 64, 110
1, 51279, Control_c, 0, 64, 80
1, 51279, Control_c, 0, 67, 21
1, 51294, Control_c, 0, 64, 59
1, 51294, Control_c, 0, 67, 34
1, 51309, Control_c, 0, 64, 0
1, 51309, Control_c, 0, 67, 46
1, 51324, Control_c, 0, 67, 56
1, 51339, Control_c, 0, 67, 67
1, 51354, Control_c, 0, 67, 78
1, 51368, Control_c, 0, 67, 88
1, 51383, Control_c, 0, 67, 97
1, 51398, Control_c, 0, 67, 101
1, 51413, Control_c, 0, 67, 103
1, 51429, Control_c, 0, 67, 106
1, 51443, Control_c, 0, 67, 110
1, 51458, Control_c, 0, 67, 115
1, 51473, Control_c, 0, 64, 11
1, 51473, Control_c, 0, 67, 117
1, 51488, Control_c, 0, 64, 23
1, 51488, Control_c, 0, 67, 119
1, 51503, Control_c, 0, 64, 27
1, 51503, Control_c, 0, 67, 120
1, 51518, Control_c, 0, 64, 31
1, 51518, Control_c, 0, 67, 120
1, 51532, Control_c, 0, 64, 38
1, 51547, Control_c, 0, 64, 44
1, 51547, Control_c, 0, 67, 121
1, 51562, Control_c, 0, 64, 50
1, 51577, Control_c, 0, 64, 57
1, 51592, Control_c, 0, 64, 62
1, 51607, Control_c, 0, 64, 65
1, 51616, Note_on_c, 0, 29, 60
1, 51622, Control_c, 0, 64, 67
1, 51625, Note_on_c, 0, 103, 56
1, 51636, Control_c, 0, 64, 70
1, 51651, Control_c, 0, 64, 73
1, 51666, Control_c, 0, 64, 77
1, 51681, Control_c, 0, 64, 80
1, 51690, Note_on_c, 0, 102, 64
1, 51695, Control_c, 0, 64, 81
1, 51696, Note_off_c, 0, 103, 50
1, 51754, Note_on_c, 0, 32, 20
1, 51754, Note_off_c, 0, 102, 57
1, 51769, Control_c, 0, 64, 81
1, 51769, Control_c, 0, 67, 120
1, 51772, Note_off_c, 0, 29, 34
1, 51774, Note_on_c, 0, 94, 63
1, 51784, Control_c, 0, 64, 80
1, 51787, Note_on_c, 0, 35, 47
1, 51799, Control_c, 0, 64, 79
1, 51799, Control_c, 0, 67, 119
1, 51801, Note_off_c, 0, 32, 52
1, 51814, Control_c, 0, 64, 79
1, 51814, Control_c, 0, 67, 119
1, 51819, Note_off_c, 0, 35, 61
1, 51820, Note_off_c, 0, 94, 56
1, 51829, Control_c, 0, 64, 78
1, 51843, Control_c, 0, 64, 78
1, 51843, Control_c, 0, 67, 118
1, 51851, Note_on_c, 0, 99, 60
1, 51856, Note_on_c, 0, 40, 33
1, 51858, Control_c, 0, 64, 77
1, 51858, Control_c, 0, 67, 118
1, 51873, Control_c, 0, 64, 77
1, 51873, Control_c, 0, 67, 117
1, 51887, Control_c, 0, 64, 76
1, 51894, Note_off_c, 0, 40, 51
1, 51896, Note_on_c, 0, 97, 67
1, 51902, Control_c, 0, 64, 75
1, 51902, Control_c, 0, 67, 117
1, 51917, Control_c, 0, 64, 74
1, 51918, Note_off_c, 0, 99, 59
1, 51924, Note_on_c, 0, 36, 50
1, 51947, Note_on_c, 0, 95, 60
1, 51947, Control_c, 0, 67, 116
1, 51962, Note_off_c, 0, 36, 61
1, 51974, Poly_aftertouch_c, 0, 35, 127
1, 51991, Note_off_c, 0, 97, 64
1, 51997, Note_on_c, 0, 93, 74
1, 52007, Note_off_c, 0, 95, 58
1, 52014, Poly_aftertouch_c, 0, 35, 0
1, 52034, Note_off_c, 0, 93, 61
1, 52043, Control_c, 0, 64, 75
1, 52051, Note_on_c, 0, 86, 60
1, 52058, Note_on_c, 0, 44, 56
1, 52073, Control_c, 0, 64, 74
1, 52075, Note_off_c, 0, 86, 62
1, 52087, Note_off_c, 0, 44, 64
1, 52088, Control_c, 0, 64, 73
1, 52102, Control_c, 0, 64, 70
1, 52102, Control_c, 0, 67, 116
1, 52117, Control_c, 0, 64, 70
1, 52120, Note_on_c, 0, 89, 80
1, 52132, Control_c, 0, 64, 71
1, 52132, Control_c, 0, 67, 115
1, 52146, Note_on_c, 0, 38, 48
1, 52147, Control_c, 0, 64, 72
1, 52147, Control_c, 0, 67, 115
1, 52162, Control_c, 0, 64, 74
1, 52170, Note_on_c, 0, 87, 75
1, 52176, Note_off_c, 0, 38, 58
1, 52176, Control_c, 0, 67, 114
1, 52191, Note_off_c, 0, 89, 60
1, 52191, Control_c, 0, 67, 114
1, 52205, Note_on_c, 0, 40, 32
1, 52206, Control_c, 0, 64, 73
1, 52216, Note_on_c, 0, 41, 33
1, 52222, Control_c, 0, 67, 113
1, 52226, Note_off_c, 0, 87, 66
1, 52235, Note_on_c, 0, 84, 63
1, 52237, Control_c, 0, 64, 74
1, 52237, Control_c, 0, 67, 113
1, 52245, Note_off_c, 0, 40, 55
1, 52253, Note_on_c, 0, 45, 41
1, 52256, Note_off_c, 0, 41, 46
1, 52260, Note_off_c, 0, 84, 68
1, 52284, Note_on_c, 0, 90, 84
1, 52284, Note_off_c, 0, 45, 52
1, 52290, Note_on_c, 0, 47, 56
1, 52325, Note_off_c, 0, 47, 66
1, 52325, Control_c, 0, 64, 73
1, 52326, Poly_aftertouch_c, 0, 43, 0
1, 52334, Note_off_c, 0, 90, 63
1, 52352, Note_on_c, 0, 81, 64
1, 52370, Control_c, 0, 64, 74
1, 52377, Note_off_c, 0, 81, 68
1, 52382, Note_on_c, 0, 49, 35
1, 52403, Note_on_c, 0, 48, 47
1, 52405, Note_on_c, 0, 86, 77
1, 52420, Note_off_c, 0, 49, 56
1, 52434, Note_off_c, 0, 48, 53
1, 52446, Note_on_c, 0, 51, 31
1, 52456, Note_on_c, 0, 80, 70
1, 52467, Note_off_c, 0, 86, 62
1, 52471, Note_on_c, 0, 53, 68
1, 52485, Note_off_c, 0, 51, 46
1, 52489, Control_c, 0, 64, 73
1, 52504, Control_c, 0, 67, 112
1, 52507, Note_on_c, 0, 78, 75
1, 52509, Note_off_c, 0, 80, 63
1, 52516, Note_off_c, 0, 53, 63
1, 52518, Control_c, 0, 67, 112
1, 52533, Control_c, 0, 64, 74
1, 52548, Control_c, 0, 64, 74
1, 52555, Note_on_c, 0, 50, 52
1, 52569, Note_on_c, 0, 82, 83
1, 52572, Note_off_c, 0, 78, 63
1, 52585, Note_off_c, 0, 50, 63
1, 52607, Control_c, 0, 64, 74
1, 52609, Note_off_c, 0, 82, 61
1, 52612, Note_on_c, 0, 55, 59
1, 52622, Control_c, 0, 64, 73
1, 52639, Note_off_c, 0, 55, 66
1, 52647, Note_on_c, 0, 76, 44
1, 52674, Note_on_c, 0, 49, 71
1, 52674, Note_off_c, 0, 76, 55
1, 52680, Note_on_c, 0, 80, 81
1, 52696, Control_c, 0, 64, 73
1, 52731, Note_on_c, 0, 51, 45
1, 52743, Note_on_c, 0, 78, 80
1, 52750, Note_off_c, 0, 49, 64
1, 52774, Note_off_c, 0, 80, 61
1, 52777, Note_off_c, 0, 51, 62
1, 52789, Note_off_c, 0, 78, 63
1, 52791, Note_on_c, 0, 56, 52
1, 52794, Note_on_c, 0, 54, 23
1, 52804, Note_on_c, 0, 74, 70
1, 52813, Note_on_c, 0, 58, 61
1, 52822, Control_c, 0, 67, 111
1, 52824, Note_off_c, 0, 56, 62
1, 52828, Note_off_c, 0, 54, 46
1, 52828, Note_off_c, 0, 74, 71
1, 52837, Control_c, 0, 64, 72
1, 52842, Note_off_c, 0, 58, 66
1, 52852, Control_c, 0, 64, 71
1, 52860, Note_on_c, 0, 73, 87
1, 52866, Control_c, 0, 64, 70
1, 52866, Control_c, 0, 67, 111
1, 52881, Control_c, 0, 64, 70
1, 52881, Control_c, 0, 67, 110
1, 52886, Note_on_c, 0, 53, 67
1, 52896, Control_c, 0, 64, 71
1, 52896, Control_c, 0, 67, 110
1, 52911, Note_on_c, 0, 75, 18
1, 52911, Control_c, 0, 64, 71
1, 52911, Control_c, 0, 67, 109
1, 52925, Control_c, 0, 64, 72
1, 52931, Note_off_c, 0, 53, 65
1, 52939, Note_on_c, 0, 71, 59
1, 52939, Note_off_c, 0, 73, 61
1, 52940, Control_c, 0, 64, 73
1, 52940, Control_c, 0, 67, 109
1, 52948, Note_off_c, 0, 75, 45
1, 52955, Note_on_c, 0, 69, 79
1, 52955, Control_c, 0, 64, 74
1, 52966, Note_off_c, 0, 71, 65
1, 52970, Control_c, 0, 64, 75
1, 52971, Note_on_c, 0, 59, 73
1, 52994, Note_off_c, 0, 69, 55
1, 53001, Note_off_c, 0, 59, 61
1, 53015, Control_c, 0, 67, 108
1, 53018, Note_on_c, 0, 68, 87
1, 53030, Control_c, 0, 67, 108
1, 53045, Control_c, 0, 67, 107
1, 53059, Note_off_c, 0, 68, 65
1, 53060, Control_c, 0, 67, 107
1, 53076, Control_c, 0, 67, 106
1, 53087, Note_on_c, 0, 72, 96
1, 53090, Control_c, 0, 64, 75
1, 53100, Note_on_c, 0, 47, 55
1, 53105, Control_c, 0, 64, 76
1, 53105, Control_c, 0, 67, 106
1, 53120, Control_c, 0, 64, 77
1, 53135, Control_c, 0, 64, 78
1, 53151, Note_on_c, 0, 65, 88
1, 53158, Note_off_c, 0, 72, 63
1, 53164, Control_c, 0, 67, 105
1, 53177, Note_on_c, 0, 64, 79
1, 53179, Control_c, 0, 67, 105
1, 53187, Note_on_c, 0, 49, 65
1, 53194, Control_c, 0, 64, 77
1, 53194, Control_c, 0, 67, 104
1, 53205, Note_off_c, 0, 65, 66
1, 53207, Note_off_c, 0, 47, 59
1, 53209, Control_c, 0, 64, 77
1, 53209, Control_c, 0, 67, 103
1, 53223, Control_c, 0, 64, 76
1, 53223, Control_c, 0, 67, 100
1, 53230, Note_off_c, 0, 49, 63
1, 53232, Note_on_c, 0, 62, 73
1, 53234, Note_off_c, 0, 64, 65
1, 53237, Note_on_c, 0, 51, 46
1, 53238, Control_c, 0, 67, 96
1, 53253, Control_c, 0, 67, 92
1, 53266, Note_on_c, 0, 53, 64
1, 53267, Note_off_c, 0, 51, 63
1, 53267, Note_off_c, 0, 62, 55
1, 53268, Control_c, 0, 64, 77
1, 53268, Control_c, 0, 67, 90
1, 53283, Control_c, 0, 64, 78
1, 53283, Control_c, 0, 67, 89
1, 53288, Note_on_c, 0, 47, 75
1, 53297, Note_on_c, 0, 65, 68
1, 53297, Control_c, 0, 64, 79
1, 53297, Control_c, 0, 67, 88
1, 53299, Note_off_c, 0, 53, 66
1, 53312, Control_c, 0, 64, 80
1, 53312, Control_c, 0, 67, 87
1, 53313, Note_off_c, 0, 65, 70
1, 53327, Control_c, 0, 64, 82
1, 53327, Control_c, 0, 67, 86
1, 53329, Note_on_c, 0, 49, 66
1, 53332, Note_on_c, 0, 61, 70
1, 53342, Control_c, 0, 64, 86
1, 53342, Control_c, 0, 67, 85
1, 53352, Note_off_c, 0, 47, 62
1, 53354, Note_off_c, 0, 49, 67
1, 53357, Control_c, 0, 64, 91
1, 53357, Control_c, 0, 67, 85
1, 53365, Note_on_c, 0, 59, 77
1, 53366, Note_off_c, 0, 61, 65
1, 53372, Control_c, 0, 64, 96
1, 53372, Control_c, 0, 67, 83
1, 53378, Note_on_c, 0, 57, 76
1, 53387, Control_c, 0, 64, 99
1, 53387, Control_c, 0, 67, 81
1, 53388, Note_on_c, 0, 53, 61
1, 53396, Note_off_c, 0, 59, 62
1, 53401, Control_c, 0, 64, 101
1, 53401, Control_c, 0, 67, 78
1, 53416, Control_c, 0, 64, 101
1, 53416, Control_c, 0, 67, 73
1, 53425, Note_off_c, 0, 53, 66
1, 53430, Note_on_c, 0, 61, 59
1, 53431, Control_c, 0, 64, 103
1, 53431, Control_c, 0, 67, 66
1, 53434, Note_off_c, 0, 57, 64
1, 53439, Poly_aftertouch_c, 0, 51, 0
1, 53440, Note_on_c, 0, 62, 67
1, 53446, Note_on_c, 0, 54, 94
1, 53446, Control_c, 0, 64, 108
1, 53446, Control_c, 0, 67, 55
1, 53455, Note_off_c, 0, 61, 59
1, 53458, Note_off_c, 0, 62, 65
1, 53460, Control_c, 0, 64, 127
1, 53460, Control_c, 0, 67, 33
1, 53475, Control_c, 0, 67, 0
1, 53508, Note_on_c, 0, 55, 93
1, 53513, Note_off_c, 0, 54, 68
1, 53527, Control_c, 0, 64, 86
1, 53542, Control_c, 0, 64, 56
1, 53556, Control_c, 0, 64, 0
1, 54135, Control_c, 0, 64, 36
1, 54150, Control_c, 0, 64, 52
1, 54164, Control_c, 0, 64, 62
1, 54179, Control_c, 0, 64, 66
1, 54194, Control_c, 0, 64, 69
1, 54209, Control_c, 0, 64, 72
1, 54224, Control_c, 0, 64, 75
1, 54245, Control_c, 0, 64, 79
1, 54260, Control_c, 0, 64, 84
1, 54275, Control_c, 0, 64, 87
1, 54290, Control_c, 0, 64, 90
1, 54305, Control_c, 0, 64, 93
1, 54320, Control_c, 0, 64, 96
1, 54332, Note_off_c, 0, 55, 55
1, 54334, Control_c, 0, 64, 100
1, 54349, Control_c, 0, 64, 103
1, 54364, Control_c, 0, 64, 104
1, 54557, Control_c, 0, 64, 104
1, 54571, Control_c, 0, 64, 101
1, 54586, Control_c, 0, 64, 98
1, 54588, Note_on_c, 0, 78, 79
1, 54601, Control_c, 0, 64, 94
1, 54617, Control_c, 0, 64, 89
1, 54631, Note_on_c, 0, 52, 43
1, 54632, Control_c, 0, 64, 83
1, 54634, Note_on_c, 0, 55, 39
1, 54636, Note_on_c, 0, 60, 38
1, 54647, Control_c, 0, 64, 77
1, 54656, Note_on_c, 0, 67, 21
1, 54661, Control_c, 0, 64, 70
1, 54676, Control_c, 0, 64, 65
1, 54691, Control_c, 0, 64, 64
1, 54705, Control_c, 0, 64, 65
1, 54720, Control_c, 0, 64, 68
1, 54735, Control_c, 0, 64, 71
1, 54750, Control_c, 0, 64, 76
1, 54756, Note_off_c, 0, 67, 50
1, 54765, Control_c, 0, 64, 81
1, 54767, Note_on_c, 0, 68, 72
1, 54779, Control_c, 0, 64, 87
1, 54794, Control_c, 0, 64, 92
1, 54804, Note_off_c, 0, 60, 38
1, 54805, Note_off_c, 0, 78, 61
1, 54809, Control_c, 0, 64, 96
1, 54824, Control_c, 0, 64, 96
1, 54833, Note_off_c, 0, 68, 63
1, 54868, Note_off_c, 0, 55, 43
1, 54892, Note_on_c, 0, 79, 84
1, 54898, Control_c, 0, 64, 96
1, 54901, Note_on_c, 0, 53, 52
1, 54913, Control_c, 0, 64, 93
1, 54918, Note_on_c, 0, 60, 45
1, 54919, Note_on_c, 0, 56, 44
1, 54923, Note_off_c, 0, 52, 41
1, 54928, Control_c, 0, 64, 90
1, 54934, Note_on_c, 0, 66, 57
1, 54943, Control_c, 0, 64, 84
1, 54958, Control_c, 0, 64, 78
1, 54972, Control_c, 0, 64, 71
1, 54993, Note_off_c, 0, 66, 0
1, 54993, Note_on_c, 0, 66, 13
1, 54994, Control_c, 0, 64, 63
1, 55009, Control_c, 0, 64, 33
1, 55024, Control_c, 0, 64, 0
1, 55054, Control_c, 0, 64, 11
1, 55068, Control_c, 0, 64, 49
1, 55083, Control_c, 0, 64, 62
1, 55098, Control_c, 0, 64, 67
1, 55113, Control_c, 0, 64, 72
1, 55127, Control_c, 0, 64, 77
1, 55142, Control_c, 0, 64, 83
1, 55150, Note_off_c, 0, 79, 56
1, 55157, Control_c, 0, 64, 88
1, 55172, Control_c, 0, 64, 92
1, 55187, Control_c, 0, 64, 94
1, 55187, Note_off_c, 0, 53, 63
1, 55202, Control_c, 0, 64, 96
1, 55205, Note_off_c, 0, 60, 39
1, 55217, Control_c, 0, 64, 98
1, 55226, Note_off_c, 0, 56, 64
1, 55232, Control_c, 0, 64, 100
1, 55246, Control_c, 0, 64, 101
1, 55261, Control_c, 0, 64, 101
1, 55270, Note_on_c, 0, 68, 67
1, 55291, Control_c, 0, 64, 102
1, 55327, Note_off_c, 0, 66, 61
1, 55330, Note_off_c, 0, 68, 59
1, 55394, Control_c, 0, 64, 101
1, 55410, Control_c, 0, 64, 95
1, 55425, Control_c, 0, 64, 82
1, 55440, Control_c, 0, 64, 71
1, 55455, Control_c, 0, 64, 63
1, 55461, Note_on_c, 0, 60, 62
1, 55463, Note_on_c, 0, 54, 68
1, 55464, Note_on_c, 0, 64, 78
1, 55464, Note_on_c, 0, 57, 66
1, 55465, Note_on_c, 0, 65, 82
1, 55470, Control_c, 0, 64, 62
1, 55484, Control_c, 0, 64, 65
1, 55499, Control_c, 0, 64, 69
1, 55500, Note_off_c, 0, 60, 59
1, 55509, Note_off_c, 0, 65, 62
1, 55514, Control_c, 0, 64, 77
1, 55528, Control_c, 0, 64, 87
1, 55542, Note_off_c, 0, 64, 64
1, 55543, Control_c, 0, 64, 99
1, 55558, Control_c, 0, 64, 116
1, 55566, Note_off_c, 0, 54, 58
1, 55573, Control_c, 0, 64, 127
1, 55593, Note_off_c, 0, 57, 60
1, 55603, Note_on_c, 0, 76, 84
1, 55613, Note_on_c, 0, 66, 79
1, 55616, Note_on_c, 0, 64, 76
1, 55618, Note_on_c, 0, 71, 73
1, 55619, Note_on_c, 0, 55, 67
1, 55628, Note_on_c, 0, 75, 64
1, 55630, Note_on_c, 0, 59, 66
1, 55654, Note_off_c, 0, 76, 65
1, 55658, Note_off_c, 0, 66, 59
1, 55662, Note_off_c, 0, 75, 63
1, 55667, Note_off_c, 0, 71, 64
1, 55679, Note_off_c, 0, 64, 63
1, 55696, Note_off_c, 0, 59, 61
1, 55698, Poly_aftertouch_c, 0, 65, 127
1, 55702, Note_off_c, 0, 55, 63
1, 55739, Poly_aftertouch_c, 0, 65, 0
1, 55743, Control_c, 0, 64, 122
1, 55758, Control_c, 0, 64, 99
1, 55773, Control_c, 0, 64, 87
1, 55788, Control_c, 0, 64, 76
1, 55803, Control_c, 0, 64, 66
1, 55817, Control_c, 0, 64, 60
1, 55832, Control_c, 0, 64, 46
1, 55847, Control_c, 0, 64, 0
1, 55950, Control_c, 0, 64, 37
1, 55965, Control_c, 0, 64, 54
1, 55980, Control_c, 0, 64, 63
1, 55981, Note_on_c, 0, 79, 74
1, 55995, Control_c, 0, 64, 68
1, 56004, Note_on_c, 0, 66, 56
1, 56007, Note_on_c, 0, 56, 56
1, 56010, Control_c, 0, 64, 72
1, 56011, Note_on_c, 0, 60, 46
1, 56015, Note_on_c, 0, 53, 42
1, 56025, Control_c, 0, 64, 76
1, 56040, Control_c, 0, 64, 81
1, 56054, Control_c, 0, 64, 87
1, 56069, Control_c, 0, 64, 92
1, 56084, Control_c, 0, 64, 95
1, 56099, Control_c, 0, 64, 98
1, 56108, Note_off_c, 0, 79, 56
1, 56114, Control_c, 0, 64, 103
1, 56129, Control_c, 0, 64, 109
1, 56144, Control_c, 0, 64, 113
1, 56159, Control_c, 0, 64, 116
1, 56174, Control_c, 0, 64, 118
1, 56186, Note_off_c, 0, 60, 37
1, 56189, Control_c, 0, 64, 119
1, 56256, Note_off_c, 0, 53, 38
1, 56278, Note_off_c, 0, 56, 55
1, 56280, Note_on_c, 0, 68, 71
1, 56308, Control_c, 0, 64, 118
1, 56337, Note_off_c, 0, 66, 59
1, 56344, Note_off_c, 0, 68, 59
1, 56397, Control_c, 0, 64, 116
1, 56412, Control_c, 0, 64, 104
1, 56426, Control_c, 0, 64, 91
1, 56441, Control_c, 0, 64, 78
1, 56456, Control_c, 0, 64, 67
1, 56462, Note_on_c, 0, 64, 79
1, 56464, Note_on_c, 0, 65, 71
1, 56465, Note_on_c, 0, 54, 71
1, 56468, Note_on_c, 0, 60, 61
1, 56469, Note_on_c, 0, 57, 69
1, 56471, Control_c, 0, 64, 65
1, 56493, Control_c, 0, 64, 66
1, 56508, Control_c, 0, 64, 69
1, 56517, Note_off_c, 0, 65, 63
1, 56522, Note_off_c, 0, 60, 62
1, 56522, Control_c, 0, 64, 74
1, 56537, Control_c, 0, 64, 80
1, 56548, Note_off_c, 0, 64, 63
1, 56552, Control_c, 0, 64, 87
1, 56567, Control_c, 0, 64, 93
1, 56582, Control_c, 0, 64, 96
1, 56583, Note_off_c, 0, 54, 59
1, 56596, Note_off_c, 0, 57, 56
1, 56597, Control_c, 0, 64, 97
1, 56612, Control_c, 0, 64, 98
1, 56615, Note_on_c, 0, 64, 75
1, 56622, Note_on_c, 0, 66, 92
1, 56623, Note_on_c, 0, 76, 89
1, 56624, Note_on_c, 0, 55, 71
1, 56627, Control_c, 0, 64, 100
1, 56631, Note_on_c, 0, 71, 80
1, 56635, Note_on_c, 0, 59, 60
1, 56641, Control_c, 0, 64, 107
1, 56656, Control_c, 0, 64, 118
1, 56660, Note_off_c, 0, 76, 60
1, 56663, Note_off_c, 0, 66, 55
1, 56669, Note_off_c, 0, 71, 61
1, 56671, Control_c, 0, 64, 127
1, 56680, Note_off_c, 0, 55, 63
1, 56680, Note_off_c, 0, 64, 64
1, 56695, Note_off_c, 0, 59, 60
1, 56702, Poly_aftertouch_c, 0, 75, 127
1, 56744, Poly_aftertouch_c, 0, 75, 0
1, 56759, Control_c, 0, 64, 113
1, 56774, Control_c, 0, 64, 103
1, 56789, Control_c, 0, 64, 94
1, 56804, Control_c, 0, 64, 85
1, 56819, Control_c, 0, 64, 74
1, 56833, Control_c, 0, 64, 63
1, 56848, Control_c, 0, 64, 0
1, 56901, Note_on_c, 0, 71, 87
1, 56905, Note_on_c, 0, 70, 79
1, 56910, Note_on_c, 0, 63, 73
1, 56920, Note_on_c, 0, 58, 67
1, 56923, Note_on_c, 0, 55, 56
1, 56937, Control_c, 0, 64, 59
1, 56952, Control_c, 0, 64, 67
1, 56967, Control_c, 0, 64, 74
1, 56982, Control_c, 0, 64, 82
1, 56996, Control_c, 0, 64, 93
1, 57012, Control_c, 0, 64, 106
1, 57017, Note_off_c, 0, 71, 65
1, 57027, Control_c, 0, 64, 126
1, 57042, Control_c, 0, 64, 127
1, 57044, Note_off_c, 0, 70, 63
1, 57053, Note_off_c, 0, 63, 43
1, 57065, Note_off_c, 0, 55, 60
1, 57128, Note_off_c, 0, 58, 37
1, 57149, Note_on_c, 0, 56, 60
1, 57149, Note_on_c, 0, 82, 99
1, 57154, Note_on_c, 0, 63, 73
1, 57157, Note_on_c, 0, 69, 91
1, 57178, Note_on_c, 0, 59, 40
1, 57200, Note_off_c, 0, 82, 67
1, 57208, Note_off_c, 0, 59, 52
1, 57217, Note_off_c, 0, 56, 64
1, 57219, Note_off_c, 0, 63, 58
1, 57234, Note_off_c, 0, 69, 61
1, 57271, Control_c, 0, 64, 108
1, 57286, Control_c, 0, 64, 95
1, 57301, Control_c, 0, 64, 92
1, 57304, Note_on_c, 0, 68, 90
1, 57312, Note_on_c, 0, 67, 80
1, 57313, Note_on_c, 0, 63, 76
1, 57315, Note_on_c, 0, 57, 77
1, 57330, Control_c, 0, 64, 96
1, 57338, Note_on_c, 0, 60, 56
1, 57345, Control_c, 0, 64, 101
1, 57359, Note_off_c, 0, 68, 64
1, 57360, Control_c, 0, 64, 107
1, 57370, Note_off_c, 0, 67, 60
1, 57373, Note_off_c, 0, 63, 58
1, 57375, Control_c, 0, 64, 113
1, 57388, Note_off_c, 0, 57, 52
1, 57390, Control_c, 0, 64, 116
1, 57419, Note_off_c, 0, 60, 53
1, 57426, Note_on_c, 0, 67, 93
1, 57426, Note_on_c, 0, 79, 88
1, 57428, Note_on_c, 0, 73, 84
1, 57439, Note_on_c, 0, 62, 71
1, 57440, Note_on_c, 0, 58, 71
1, 57446, Note_on_c, 0, 78, 70
1, 57455, Note_on_c, 0, 77, 52
1, 57456, Note_off_c, 0, 77, 127
1, 57464, Control_c, 0, 64, 116
1, 57474, Note_off_c, 0, 62, 60
1, 57479, Note_off_c, 0, 79, 64
1, 57479, Control_c, 0, 64, 118
1, 57486, Note_off_c, 0, 67, 63
1, 57486, Note_off_c, 0, 73, 65
1, 57486, Note_off_c, 0, 78, 50
1, 57491, Note_off_c, 0, 58, 61
1, 57494, Control_c, 0, 64, 126
1, 57508, Control_c, 0, 64, 127
1, 57567, Control_c, 0, 64, 102
1, 57578, Note_on_c, 0, 85, 100
1, 57581, Note_on_c, 0, 59, 85
1, 57581, Control_c, 0, 64, 87
1, 57587, Note_on_c, 0, 66, 80
1, 57587, Note_on_c, 0, 73, 104
1, 57596, Control_c, 0, 64, 78
1, 57597, Note_on_c, 0, 62, 61
1, 57611, Control_c, 0, 64, 74
1, 57624, Note_off_c, 0, 85, 66
1, 57626, Control_c, 0, 64, 76
1, 57629, Note_off_c, 0, 73, 62
1, 57640, Control_c, 0, 64, 81
1, 57650, Note_off_c, 0, 66, 57
1, 57655, Control_c, 0, 64, 87
1, 57661, Note_off_c, 0, 59, 56
1, 57670, Control_c, 0, 64, 93
1, 57676, Note_off_c, 0, 62, 56
1, 57685, Control_c, 0, 64, 99
1, 57700, Control_c, 0, 64, 106
1, 57701, Note_on_c, 0, 70, 81
1, 57709, Note_on_c, 0, 71, 86
1, 57710, Note_on_c, 0, 60, 75
1, 57710, Note_on_c, 0, 66, 77
1, 57712, Note_on_c, 0, 63, 77
1, 57715, Control_c, 0, 64, 116
1, 57730, Control_c, 0, 64, 127
1, 57739, Note_off_c, 0, 70, 62
1, 57749, Note_off_c, 0, 71, 60
1, 57759, Note_off_c, 0, 60, 63
1, 57767, Note_off_c, 0, 66, 61
1, 57775, Note_off_c, 0, 63, 61
1, 57811, Note_on_c, 0, 78, 93
1, 57816, Note_on_c, 0, 82, 80
1, 57819, Poly_aftertouch_c, 0, 69, 0
1, 57822, Note_on_c, 0, 83, 71
1, 57828, Note_on_c, 0, 74, 71
1, 57828, Note_on_c, 0, 72, 72
1, 57832, Note_on_c, 0, 61, 78
1, 57833, Note_off_c, 0, 78, 67
1, 57837, Note_on_c, 0, 84, 42
1, 57842, Note_on_c, 0, 69, 48
1, 57844, Note_off_c, 0, 83, 71
1, 57849, Note_on_c, 0, 68, 37
1, 57851, Note_off_c, 0, 72, 70
1, 57855, Note_off_c, 0, 74, 68
1, 57857, Note_off_c, 0, 82, 58
1, 57861, Note_off_c, 0, 84, 61
1, 57865, Note_on_c, 0, 65, 29
1, 57869, Note_off_c, 0, 69, 58
1, 57872, Note_off_c, 0, 68, 61
1, 57879, Note_off_c, 0, 61, 50
1, 57886, Note_on_c, 0, 67, 3
1, 57894, Control_c, 0, 64, 98
1, 57900, Note_off_c, 0, 67, 0
1, 57904, Note_off_c, 0, 65, 48
1, 57909, Note_on_c, 0, 74, 112
1, 57909, Control_c, 0, 64, 83
1, 57913, Note_on_c, 0, 61, 61
1, 57915, Note_on_c, 0, 73, 92
1, 57919, Note_on_c, 0, 63, 86
1, 57924, Control_c, 0, 64, 78
1, 57937, Poly_aftertouch_c, 0, 67, 127
1, 57938, Control_c, 0, 64, 80
1, 57942, Note_off_c, 0, 61, 64
1, 57944, Note_on_c, 0, 66, 64
1, 57953, Control_c, 0, 64, 88
1, 57962, Note_off_c, 0, 66, 63
1, 57966, Note_off_c, 0, 74, 68
1, 57968, Control_c, 0, 64, 103
1, 57970, Note_off_c, 0, 73, 58
1, 57990, Control_c, 0, 64, 127
1, 58015, Poly_aftertouch_c, 0, 67, 0
1, 58070, Note_off_c, 0, 63, 58
1, 58079, Control_c, 0, 64, 114
1, 58087, Note_on_c, 0, 84, 81
1, 58088, Note_on_c, 0, 80, 92
1, 58090, Note_on_c, 0, 64, 79
1, 58091, Note_on_c, 0, 73, 94
1, 58093, Note_on_c, 0, 74, 92
1, 58093, Control_c, 0, 64, 119
1, 58096, Note_on_c, 0, 68, 93
1, 58097, Note_on_c, 0, 85, 88
1, 58108, Control_c, 0, 64, 127
1, 58117, Note_off_c, 0, 74, 63
1, 58127, Note_off_c, 0, 73, 68
1, 58135, Note_on_c, 0, 82, 46
1, 58138, Note_off_c, 0, 64, 67
1, 58143, Note_off_c, 0, 68, 64
1, 58150, Note_off_c, 0, 80, 64
1, 58150, Note_off_c, 0, 84, 65
1, 58159, Note_off_c, 0, 82, 58
1, 58160, Note_off_c, 0, 85, 66
1, 58477, Note_on_c, 0, 102, 78
1, 58486, Note_on_c, 0, 40, 99
1, 58486, Note_on_c, 0, 52, 101
1, 58508, Control_c, 0, 64, 103
1, 58523, Control_c, 0, 64, 81
1, 58538, Control_c, 0, 64, 64
1, 58552, Note_on_c, 0, 99, 73
1, 58552, Control_c, 0, 64, 0
1, 58578, Note_on_c, 0, 97, 73
1, 58586, Note_off_c, 0, 102, 64
1, 58597, Control_c, 0, 64, 38
1, 58613, Control_c, 0, 64, 62
1, 58627, Control_c, 0, 64, 68
1, 58629, Note_on_c, 0, 94, 82
1, 58642, Control_c, 0, 64, 77
1, 58657, Control_c, 0, 64, 88
1, 58665, Note_off_c, 0, 99, 63
1, 58672, Control_c, 0, 64, 106
1, 58673, Note_off_c, 0, 40, 63
1, 58676, Note_on_c, 0, 89, 78
1, 58680, Note_off_c, 0, 52, 64
1, 58683, Note_off_c, 0, 97, 64
1, 58687, Control_c, 0, 64, 127
1, 58697, Note_off_c, 0, 94, 65
1, 58703, Note_on_c, 0, 46, 36
1, 58722, Note_off_c, 0, 89, 63
1, 58746, Note_off_c, 0, 46, 49
1, 58758, Note_on_c, 0, 97, 87
1, 58774, Note_on_c, 0, 42, 98
1, 58774, Note_on_c, 0, 54, 100
1, 58798, Control_c, 0, 64, 101
1, 58808, Note_on_c, 0, 94, 29
1, 58813, Control_c, 0, 64, 85
1, 58828, Control_c, 0, 64, 78
1, 58834, Note_on_c, 0, 92, 55
1, 58840, Note_on_c, 0, 87, 82
1, 58842, Control_c, 0, 64, 79
1, 58847, Note_off_c, 0, 97, 64
1, 58849, Note_off_c, 0, 94, 50
1, 58857, Control_c, 0, 64, 84
1, 58862, Note_off_c, 0, 92, 57
1, 58868, Note_on_c, 0, 84, 56
1, 58872, Control_c, 0, 64, 93
1, 58886, Control_c, 0, 64, 104
1, 58889, Note_off_c, 0, 84, 62
1, 58895, Note_off_c, 0, 87, 65
1, 58901, Control_c, 0, 64, 127
1, 58916, Note_off_c, 0, 42, 61
1, 58919, Note_on_c, 0, 94, 85
1, 58931, Note_off_c, 0, 54, 61
1, 58932, Note_off_c, 0, 94, 72
1, 59035, Note_on_c, 0, 49, 31
1, 59059, Note_on_c, 0, 57, 101
1, 59063, Note_on_c, 0, 45, 103
1, 59066, Note_on_c, 0, 76, 74
1, 59068, Note_on_c, 0, 75, 72
1, 59080, Control_c, 0, 64, 95
1, 59083, Note_off_c, 0, 49, 51
1, 59095, Control_c, 0, 64, 74
1, 59098, Note_off_c, 0, 76, 64
1, 59110, Control_c, 0, 64, 30
1, 59119, Note_off_c, 0, 75, 57
1, 59125, Control_c, 0, 64, 0
1, 59127, Note_on_c, 0, 74, 59
1, 59157, Note_on_c, 0, 76, 73
1, 59162, Note_off_c, 0, 74, 64
1, 59167, Note_on_c, 0, 75, 42
1, 59169, Control_c, 0, 64, 45
1, 59184, Control_c, 0, 64, 66
1, 59197, Note_off_c, 0, 76, 63
1, 59199, Control_c, 0, 64, 77
1, 59199, Note_off_c, 0, 75, 56
1, 59214, Control_c, 0, 64, 93
1, 59228, Control_c, 0, 64, 127
1, 59233, Note_on_c, 0, 74, 62
1, 59243, Note_off_c, 0, 45, 59
1, 59249, Note_on_c, 0, 75, 58
1, 59250, Note_on_c, 0, 76, 72
1, 59262, Note_off_c, 0, 57, 57
1, 59263, Note_off_c, 0, 74, 68
1, 59283, Note_off_c, 0, 75, 59
1, 59286, Note_off_c, 0, 76, 62
1, 59326, Note_on_c, 0, 74, 72
1, 59338, Note_on_c, 0, 76, 74
1, 59346, Note_on_c, 0, 75, 51
1, 59348, Note_on_c, 0, 47, 91
1, 59349, Note_on_c, 0, 59, 97
1, 59350, Note_off_c, 0, 74, 69
1, 59376, Control_c, 0, 64, 101
1, 59381, Note_on_c, 0, 48, 42
1, 59382, Note_off_c, 0, 48, 127
1, 59391, Control_c, 0, 64, 80
1, 59405, Note_off_c, 0, 76, 57
1, 59407, Control_c, 0, 64, 68
1, 59411, Note_on_c, 0, 74, 87
1, 59437, Control_c, 0, 64, 73
1, 59441, Note_off_c, 0, 47, 67
1, 59443, Note_off_c, 0, 75, 61
1, 59451, Control_c, 0, 64, 82
1, 59465, Note_on_c, 0, 49, 14
1, 59466, Note_off_c, 0, 74, 66
1, 59466, Control_c, 0, 64, 99
1, 59483, Note_off_c, 0, 59, 65
1, 59488, Control_c, 0, 64, 127
1, 59524, Note_off_c, 0, 49, 53
1, 59676, Note_on_c, 0, 76, 98
1, 59679, Note_on_c, 0, 68, 85
1, 59681, Control_c, 0, 64, 93
1, 59685, Note_on_c, 0, 66, 92
1, 59686, Note_on_c, 0, 73, 82
1, 59690, Note_on_c, 0, 63, 85
1, 59691, Note_on_c, 0, 52, 81
1, 59693, Note_on_c, 0, 71, 72
1, 59696, Note_on_c, 0, 55, 75
1, 59696, Control_c, 0, 64, 67
1, 59700, Note_on_c, 0, 59, 57
1, 59703, Note_on_c, 0, 58, 74
1, 59710, Control_c, 0, 64, 0
1, 59755, Control_c, 0, 64, 52
1, 59770, Control_c, 0, 64, 68
1, 59775, Note_off_c, 0, 68, 58
1, 59775, Note_off_c, 0, 71, 63
1, 59779, Note_off_c, 0, 66, 59
1, 59781, Note_off_c, 0, 52, 61
1, 59784, Control_c, 0, 64, 81
1, 59791, Note_off_c, 0, 55, 64
1, 59792, Note_off_c, 0, 59, 62
1, 59793, Note_off_c, 0, 73, 63
1, 59798, Note_off_c, 0, 58, 62
1, 59799, Control_c, 0, 64, 104
1, 59807, Note_off_c, 0, 76, 62
1, 59814, Control_c, 0, 64, 127
1, 59821, Note_off_c, 0, 63, 61
1, 60020, Note_on_c, 0, 78, 98
1, 60022, Control_c, 0, 64, 89
1, 60025, Note_on_c, 0, 76, 89
1, 60026, Note_on_c, 0, 66, 88
1, 60026, Note_on_c, 0, 71, 81
1, 60027, Note_on_c, 0, 54, 82
1, 60031, Note_on_c, 0, 69, 73
1, 60034, Note_on_c, 0, 57, 75
1, 60037, Control_c, 0, 64, 67
1, 60040, Note_on_c, 0, 62, 75
1, 60041, Note_on_c, 0, 59, 68
1, 60052, Control_c, 0, 64, 0
1, 60056, Note_on_c, 0, 73, 49
1, 60082, Control_c, 0, 64, 31
1, 60097, Control_c, 0, 64, 65
1, 60107, Note_off_c, 0, 76, 57
1, 60111, Control_c, 0, 64, 75
1, 60113, Note_off_c, 0, 71, 62
1, 60114, Note_off_c, 0, 73, 47
1, 60126, Control_c, 0, 64, 87
1, 60128, Note_off_c, 0, 69, 62
1, 60135, Note_off_c, 0, 57, 62
1, 60138, Note_off_c, 0, 62, 60
1, 60141, Control_c, 0, 64, 109
1, 60141, Note_off_c, 0, 59, 60
1, 60143, Note_off_c, 0, 54, 64
1, 60156, Control_c, 0, 64, 127
1, 60156, Note_off_c, 0, 78, 63
1, 60180, Note_off_c, 0, 66, 61
1, 60356, Control_c, 0, 64, 105
1, 60362, Note_on_c, 0, 78, 74
1, 60362, Note_on_c, 0, 81, 101
1, 60365, Note_on_c, 0, 72, 85
1, 60367, Note_on_c, 0, 75, 81
1, 60368, Note_on_c, 0, 68, 82
1, 60371, Control_c, 0, 64, 82
1, 60373, Note_on_c, 0, 57, 78
1, 60373, Note_on_c, 0, 69, 86
1, 60377, Note_on_c, 0, 62, 76
1, 60386, Control_c, 0, 64, 65
1, 60388, Note_on_c, 0, 64, 75
1, 60401, Control_c, 0, 64, 0
1, 60401, Note_on_c, 0, 59, 49
1, 60430, Control_c, 0, 64, 29
1, 60443, Note_off_c, 0, 72, 59
1, 60445, Control_c, 0, 64, 64
1, 60460, Control_c, 0, 64, 75
1, 60469, Note_off_c, 0, 75, 61
1, 60471, Note_off_c, 0, 68, 60
1, 60475, Control_c, 0, 64, 89
1, 60475, Note_off_c, 0, 78, 61
1, 60490, Control_c, 0, 64, 119
1, 60492, Note_off_c, 0, 81, 64
1, 60501, Note_off_c, 0, 59, 42
1, 60505, Control_c, 0, 64, 127
1, 60514, Note_off_c, 0, 57, 60
1, 60516, Note_off_c, 0, 64, 61
1, 60518, Note_off_c, 0, 62, 60
1, 60531, Note_off_c, 0, 69, 59
1, 60711, Note_on_c, 0, 80, 93
1, 60711, Note_on_c, 0, 83, 96
1, 60712, Note_on_c, 0, 71, 92
1, 60712, Control_c, 0, 64, 90
1, 60714, Note_on_c, 0, 70, 90
1, 60716, Note_on_c, 0, 59, 81
1, 60716, Note_on_c, 0, 78, 93
1, 60724, Note_on_c, 0, 62, 74
1, 60724, Note_on_c, 0, 64, 77
1, 60726, Control_c, 0, 64, 70
1, 60741, Control_c, 0, 64, 0
1, 60771, Control_c, 0, 64, 47
1, 60785, Note_off_c, 0, 59, 61
1, 60786, Control_c, 0, 64, 67
1, 60788, Note_off_c, 0, 70, 63
1, 60794, Note_off_c, 0, 62, 63
1, 60800, Control_c, 0, 64, 78
1, 60805, Note_off_c, 0, 64, 64
1, 60809, Note_off_c, 0, 78, 64
1, 60815, Control_c, 0, 64, 92
1, 60819, Note_off_c, 0, 80, 57
1, 60828, Note_off_c, 0, 83, 65
1, 60830, Control_c, 0, 64, 127
1, 60832, Note_off_c, 0, 71, 64
1, 61061, Control_c, 0, 64, 112
1, 61072, Note_on_c, 0, 88, 104
1, 61074, Note_on_c, 0, 80, 87
1, 61075, Note_on_c, 0, 78, 90
1, 61075, Control_c, 0, 64, 85
1, 61079, Note_on_c, 0, 85, 77
1, 61081, Note_on_c, 0, 75, 83
1, 61081, Note_on_c, 0, 83, 81
1, 61082, Note_on_c, 0, 64, 75
1, 61086, Note_on_c, 0, 67, 73
1, 61089, Note_on_c, 0, 70, 73
1, 61090, Control_c, 0, 64, 67
1, 61105, Control_c, 0, 64, 19
1, 61110, Note_on_c, 0, 71, 51
1, 61120, Note_on_c, 0, 72, 54
1, 61135, Control_c, 0, 64, 59
1, 61149, Control_c, 0, 64, 70
1, 61164, Control_c, 0, 64, 80
1, 61174, Note_off_c, 0, 64, 62
1, 61175, Note_off_c, 0, 78, 60
1, 61179, Control_c, 0, 64, 98
1, 61180, Note_off_c, 0, 83, 63
1, 61182, Note_off_c, 0, 80, 61
1, 61185, Note_off_c, 0, 67, 61
1, 61189, Note_off_c, 0, 72, 56
1, 61194, Control_c, 0, 64, 127
1, 61195, Note_off_c, 0, 85, 62
1, 61198, Note_off_c, 0, 71, 63
1, 61201, Note_off_c, 0, 70, 60
1, 61218, Note_off_c, 0, 88, 51
1, 61230, Note_off_c, 0, 75, 63
1, 61429, Control_c, 0, 64, 92
1, 61438, Note_on_c, 0, 90, 106
1, 61443, Note_on_c, 0, 78, 89
1, 61444, Note_on_c, 0, 66, 77
1, 61444, Control_c, 0, 64, 73
1, 61448, Note_on_c, 0, 83, 78
1, 61450, Note_on_c, 0, 69, 68
1, 61450, Note_on_c, 0, 81, 79
1, 61456, Note_on_c, 0, 74, 75
1, 61456, Note_on_c, 0, 88, 75
1, 61459, Control_c, 0, 64, 61
1, 61462, Note_on_c, 0, 71, 67
1, 61474, Control_c, 0, 64, 56
1, 61489, Control_c, 0, 64, 63
1, 61504, Control_c, 0, 64, 72
1, 61518, Control_c, 0, 64, 83
1, 61522, Note_off_c, 0, 81, 59
1, 61531, Note_off_c, 0, 83, 62
1, 61533, Control_c, 0, 64, 103
1, 61537, Note_off_c, 0, 88, 58
1, 61548, Control_c, 0, 64, 127
1, 61560, Note_off_c, 0, 69, 61
1, 61564, Note_off_c, 0, 71, 62
1, 61567, Note_off_c, 0, 74, 62
1, 61568, Poly_aftertouch_c, 0, 85, 0
1, 61573, Note_off_c, 0, 66, 61
1, 61579, Note_off_c, 0, 90, 63
1, 61604, Note_off_c, 0, 78, 62
1, 61823, Control_c, 0, 64, 102
1, 61826, Note_on_c, 0, 93, 106
1, 61832, Note_on_c, 0, 84, 86
1, 61834, Note_on_c, 0, 87, 83
1, 61837, Note_on_c, 0, 90, 76
1, 61838, Note_on_c, 0, 69, 80
1, 61838, Control_c, 0, 64, 83
1, 61839, Note_on_c, 0, 80, 79
1, 61840, Note_on_c, 0, 81, 83
1, 61849, Note_on_c, 0, 74, 79
1, 61852, Control_c, 0, 64, 71
1, 61867, Control_c, 0, 64, 64
1, 61870, Note_on_c, 0, 76, 61
1, 61882, Control_c, 0, 64, 64
1, 61897, Note_off_c, 0, 80, 61
1, 61897, Control_c, 0, 64, 68
1, 61903, Note_off_c, 0, 84, 60
1, 61912, Control_c, 0, 64, 76
1, 61927, Control_c, 0, 64, 90
1, 61928, Note_off_c, 0, 87, 64
1, 61938, Note_off_c, 0, 90, 63
1, 61942, Control_c, 0, 64, 127
1, 61950, Poly_aftertouch_c, 0, 71, 0
1, 61961, Note_off_c, 0, 69, 58
1, 61982, Note_off_c, 0, 76, 58
1, 61986, Note_off_c, 0, 74, 61
1, 61989, Note_off_c, 0, 81, 53
1, 61995, Note_off_c, 0, 93, 50
1, 62208, Control_c, 0, 64, 96
1, 62222, Control_c, 0, 64, 79
1, 62225, Note_on_c, 0, 83, 79
1, 62228, Note_on_c, 0, 71, 75
1, 62228, Note_on_c, 0, 95, 104
1, 62233, Note_on_c, 0, 90, 85
1, 62233, Note_on_c, 0, 92, 88
1, 62234, Note_on_c, 0, 82, 89
1, 62237, Control_c, 0, 64, 70
1, 62239, Note_on_c, 0, 74, 66
1, 62244, Note_on_c, 0, 76, 65
1, 62252, Control_c, 0, 64, 66
1, 62267, Control_c, 0, 64, 67
1, 62282, Control_c, 0, 64, 71
1, 62296, Control_c, 0, 64, 78
1, 62311, Control_c, 0, 64, 88
1, 62316, Note_off_c, 0, 71, 60
1, 62316, Note_off_c, 0, 82, 63
1, 62326, Control_c, 0, 64, 103
1, 62330, Note_off_c, 0, 74, 63
1, 62338, Note_off_c, 0, 76, 61
1, 62341, Control_c, 0, 64, 127
1, 62350, Note_off_c, 0, 90, 60
1, 62355, Note_off_c, 0, 92, 63
1, 62361, Note_off_c, 0, 95, 62
1, 62372, Note_off_c, 0, 83, 61
1, 62690, Control_c, 0, 64, 103
1, 62705, Control_c, 0, 64, 87
1, 62713, Note_on_c, 0, 97, 108
1, 62720, Note_on_c, 0, 84, 79
1, 62720, Control_c, 0, 64, 74
1, 62722, Note_on_c, 0, 90, 81
1, 62723, Note_on_c, 0, 82, 80
1, 62723, Note_on_c, 0, 92, 82
1, 62724, Note_on_c, 0, 73, 75
1, 62727, Note_on_c, 0, 88, 74
1, 62730, Note_on_c, 0, 76, 73
1, 62730, Note_on_c, 0, 78, 77
1, 62735, Control_c, 0, 64, 63
1, 62750, Control_c, 0, 64, 61
1, 62764, Control_c, 0, 64, 64
1, 62766, Note_off_c, 0, 88, 50
1, 62779, Control_c, 0, 64, 66
1, 62794, Control_c, 0, 64, 71
1, 62809, Control_c, 0, 64, 80
1, 62811, Note_off_c, 0, 92, 63
1, 62820, Note_off_c, 0, 90, 64
1, 62824, Control_c, 0, 64, 96
1, 62839, Control_c, 0, 64, 127
1, 62842, Note_off_c, 0, 97, 61
1, 62849, Note_off_c, 0, 73, 57
1, 62869, Note_off_c, 0, 82, 60
1, 62872, Note_off_c, 0, 78, 59
1, 62874, Note_off_c, 0, 84, 53
1, 62887, Note_off_c, 0, 76, 37
1, 63298, Note_on_c, 0, 98, 109
1, 63306, Note_on_c, 0, 87, 84
1, 63306, Note_on_c, 0, 90, 88
1, 63306, Control_c, 0, 64, 104
1, 63307, Note_on_c, 0, 92, 85
1, 63318, Note_on_c, 0, 74, 75
1, 63319, Note_on_c, 0, 84, 70
1, 63321, Control_c, 0, 64, 84
1, 63322, Note_on_c, 0, 76, 73
1, 63331, Note_on_c, 0, 83, 64
1, 63332, Note_on_c, 0, 79, 65
1, 63335, Control_c, 0, 64, 69
1, 63350, Control_c, 0, 64, 58
1, 63352, Note_on_c, 0, 82, 48
1, 63365, Control_c, 0, 64, 52
1, 63379, Control_c, 0, 64, 57
1, 63388, Note_off_c, 0, 82, 48
1, 63394, Control_c, 0, 64, 63
1, 63411, Control_c, 0, 64, 66
1, 63425, Control_c, 0, 64, 72
1, 63440, Control_c, 0, 64, 80
1, 63455, Control_c, 0, 64, 90
1, 63470, Control_c, 0, 64, 100
1, 63480, Note_off_c, 0, 87, 34
1, 63484, Control_c, 0, 64, 112
1, 63499, Control_c, 0, 64, 127
1, 63517, Note_off_c, 0, 98, 49
1, 63518, Note_off_c, 0, 84, 59
1, 63579, Note_off_c, 0, 90, 40
1, 63587, Note_off_c, 0, 92, 47
1, 63626, Note_off_c, 0, 74, 39
1, 63632, Note_off_c, 0, 76, 36
1, 63644, Note_off_c, 0, 83, 53
1, 63657, Note_off_c, 0, 79, 51
1, 64306, Control_c, 0, 67, 8
1, 64321, Control_c, 0, 67, 9
1, 64336, Control_c, 0, 67, 10
1, 64351, Control_c, 0, 67, 12
1, 64366, Control_c, 0, 67, 13
1, 64380, Control_c, 0, 67, 15
1, 64395, Control_c, 0, 67, 17
1, 64410, Control_c, 0, 67, 20
1, 64425, Control_c, 0, 67, 24
1, 64440, Control_c, 0, 67, 29
1, 64455, Control_c, 0, 67, 33
1, 64470, Control_c, 0, 64, 126
1, 64470, Control_c, 0, 67, 36
1, 64484, Control_c, 0, 64, 121
1, 64484, Control_c, 0, 67, 39
1, 64499, Control_c, 0, 64, 118
1, 64499, Control_c, 0, 67, 42
1, 64514, Control_c, 0, 64, 116
1, 64514, Control_c, 0, 67, 46
1, 64529, Control_c, 0, 64, 114
1, 64529, Control_c, 0, 67, 49
1, 64544, Control_c, 0, 64, 112
1, 64544, Control_c, 0, 67, 53
1, 64559, Control_c, 0, 64, 111
1, 64559, Control_c, 0, 67, 57
1, 64573, Control_c, 0, 64, 108
1, 64573, Control_c, 0, 67, 60
1, 64588, Control_c, 0, 64, 106
1, 64588, Control_c, 0, 67, 62
1, 64603, Control_c, 0, 64, 104
1, 64603, Control_c, 0, 67, 64
1, 64617, Control_c, 0, 64, 103
1, 64617, Control_c, 0, 67, 66
1, 64632, Control_c, 0, 64, 103
1, 64632, Control_c, 0, 67, 68
1, 64647, Control_c, 0, 64, 102
1, 64647, Control_c, 0, 67, 70
1, 64662, Control_c, 0, 67, 72
1, 64677, Control_c, 0, 64, 102
1, 64677, Control_c, 0, 67, 73
1, 64691, Control_c, 0, 67, 75
1, 64706, Control_c, 0, 64, 101
1, 64706, Control_c, 0, 67, 78
1, 64729, Control_c, 0, 64, 100
1, 64729, Control_c, 0, 67, 80
1, 64744, Control_c, 0, 64, 98
1, 64744, Control_c, 0, 67, 83
1, 64759, Control_c, 0, 64, 97
1, 64759, Control_c, 0, 67, 86
1, 64773, Control_c, 0, 64, 97
1, 64773, Control_c, 0, 67, 89
1, 64788, Control_c, 0, 64, 96
1, 64788, Control_c, 0, 67, 91
1, 64803, Control_c, 0, 64, 95
1, 64803, Control_c, 0, 67, 94
1, 64818, Control_c, 0, 64, 94
1, 64818, Control_c, 0, 67, 96
1, 64832, Control_c, 0, 64, 92
1, 64832, Control_c, 0, 67, 99
1, 64847, Control_c, 0, 64, 91
1, 64847, Control_c, 0, 67, 102
1, 64862, Control_c, 0, 64, 90
1, 64862, Control_c, 0, 67, 104
1, 64877, Control_c, 0, 64, 89
1, 64877, Control_c, 0, 67, 106
1, 64891, Control_c, 0, 64, 88
1, 64891, Control_c, 0, 67, 108
1, 64906, Control_c, 0, 64, 87
1, 64906, Control_c, 0, 67, 109
1, 64921, Control_c, 0, 64, 86
1, 64921, Control_c, 0, 67, 111
1, 64936, Control_c, 0, 64, 85
1, 64936, Control_c, 0, 67, 112
1, 64951, Control_c, 0, 64, 83
1, 64951, Control_c, 0, 67, 114
1, 64966, Control_c, 0, 64, 80
1, 64966, Control_c, 0, 67, 116
1, 64980, Control_c, 0, 64, 78
1, 64980, Control_c, 0, 67, 118
1, 64996, Control_c, 0, 64, 75
1, 64996, Control_c, 0, 67, 119
1, 65011, Control_c, 0, 64, 73
1, 65011, Control_c, 0, 67, 121
1, 65026, Control_c, 0, 64, 71
1, 65026, Control_c, 0, 67, 122
1, 65040, Control_c, 0, 64, 71
1, 65040, Control_c, 0, 67, 124
1, 65055, Control_c, 0, 67, 126
1, 65070, Control_c, 0, 64, 70
1, 65070, Control_c, 0, 67, 127
1, 65085, Control_c, 0, 67, 127
1, 65100, Control_c, 0, 64, 70
1, 65115, Control_c, 0, 64, 69
1, 65144, Control_c, 0, 64, 68
1, 65159, Control_c, 0, 64, 67
1, 65174, Control_c, 0, 64, 66
1, 65189, Control_c, 0, 64, 65
1, 65203, Control_c, 0, 64, 64
1, 65218, Control_c, 0, 64, 63
1, 65233, Control_c, 0, 64, 64
1, 65248, Control_c, 0, 64, 65
1, 65262, Control_c, 0, 64, 66
1, 65266, Note_on_c, 0, 45, 37
1, 65277, Note_on_c, 0, 58, 42
1, 65277, Control_c, 0, 64, 68
1, 65292, Control_c, 0, 64, 71
1, 65307, Control_c, 0, 64, 73
1, 65310, Note_off_c, 0, 45, 50
1, 65322, Control_c, 0, 64, 76
1, 65337, Control_c, 0, 64, 77
1, 65352, Control_c, 0, 64, 78
1, 65361, Note_on_c, 0, 46, 26
1, 65382, Control_c, 0, 67, 127
1, 65408, Note_off_c, 0, 46, 45
1, 65411, Control_c, 0, 64, 79
1, 65413, Note_on_c, 0, 45, 41
1, 65440, Control_c, 0, 64, 79
1, 65441, Note_on_c, 0, 50, 26
1, 65455, Control_c, 0, 67, 126
1, 65477, Control_c, 0, 67, 126
1, 65489, Note_off_c, 0, 45, 59
1, 65497, Note_off_c, 0, 58, 33
1, 65501, Note_off_c, 0, 50, 48
1, 65522, Note_on_c, 0, 46, 34
1, 65534, Note_on_c, 0, 55, 39
1, 65551, Note_off_c, 0, 46, 52
1, 65552, Control_c, 0, 64, 79
1, 65552, Control_c, 0, 67, 125
1, 65567, Control_c, 0, 64, 76
1, 65567, Control_c, 0, 67, 125
1, 65567, Note_off_c, 0, 55, 48
1, 65581, Control_c, 0, 64, 73
1, 65581, Control_c, 0, 67, 124
1, 65596, Control_c, 0, 64, 70
1, 65626, Control_c, 0, 64, 71
1, 65641, Control_c, 0, 64, 72
1, 65648, Note_on_c, 0, 52, 56
1, 65655, Control_c, 0, 64, 74
1, 65657, Note_on_c, 0, 71, 60
1, 65670, Control_c, 0, 64, 76
1, 65685, Control_c, 0, 64, 79
1, 65691, Note_off_c, 0, 52, 63
1, 65700, Control_c, 0, 64, 80
1, 65728, Note_on_c, 0, 53, 44
1, 65760, Note_off_c, 0, 53, 58
1, 65773, Control_c, 0, 64, 81
1, 65789, Note_on_c, 0, 52, 49
1, 65790, Control_c, 0, 67, 124
1, 65796, Note_on_c, 0, 61, 37
1, 65805, Control_c, 0, 67, 123
1, 65832, Note_off_c, 0, 61, 56
1, 65834, Note_off_c, 0, 71, 46
1, 65851, Note_on_c, 0, 53, 50
1, 65879, Control_c, 0, 64, 80
1, 65880, Note_on_c, 0, 65, 31
1, 65884, Note_off_c, 0, 53, 67
1, 65893, Note_off_c, 0, 52, 61
1, 65894, Control_c, 0, 64, 78
1, 65894, Control_c, 0, 67, 123
1, 65909, Control_c, 0, 64, 73
1, 65914, Note_off_c, 0, 65, 47
1, 65924, Control_c, 0, 64, 64
1, 65939, Control_c, 0, 64, 46
1, 65953, Control_c, 0, 64, 42
1, 65968, Control_c, 0, 64, 58
1, 65983, Control_c, 0, 64, 66
1, 65998, Control_c, 0, 64, 71
1, 66008, Note_on_c, 0, 84, 71
1, 66012, Control_c, 0, 64, 75
1, 66014, Note_on_c, 0, 44, 50
1, 66027, Control_c, 0, 64, 76
1, 66030, Note_off_c, 0, 84, 70
1, 66043, Note_off_c, 0, 44, 56
1, 66070, Note_on_c, 0, 45, 35
1, 66101, Control_c, 0, 64, 76
1, 66101, Control_c, 0, 67, 122
1, 66103, Note_off_c, 0, 45, 48
1, 66118, Note_on_c, 0, 44, 58
1, 66118, Note_on_c, 0, 67, 57
1, 66131, Control_c, 0, 64, 75
1, 66131, Control_c, 0, 67, 122
1, 66145, Control_c, 0, 67, 121
1, 66160, Note_off_c, 0, 67, 57
1, 66170, Note_off_c, 0, 44, 61
1, 66187, Note_on_c, 0, 45, 52
1, 66226, Note_on_c, 0, 66, 57
1, 66227, Control_c, 0, 64, 75
1, 66233, Note_off_c, 0, 45, 61
1, 66242, Control_c, 0, 64, 71
1, 66250, Note_off_c, 0, 66, 64
1, 66257, Control_c, 0, 64, 65
1, 66271, Control_c, 0, 64, 58
1, 66286, Control_c, 0, 64, 55
1, 66301, Control_c, 0, 64, 61
1, 66316, Control_c, 0, 64, 65
1, 66322, Poly_aftertouch_c, 0, 44, 0
1, 66331, Control_c, 0, 64, 67
1, 66345, Control_c, 0, 64, 70
1, 66357, Note_on_c, 0, 92, 75
1, 66360, Control_c, 0, 64, 74
1, 66365, Note_on_c, 0, 34, 63
1, 66375, Control_c, 0, 64, 76
1, 66377, Note_off_c, 0, 92, 71
1, 66390, Control_c, 0, 64, 77
1, 66395, Note_off_c, 0, 34, 63
1, 66404, Control_c, 0, 64, 77
1, 66419, Control_c, 0, 64, 76
1, 66449, Control_c, 0, 64, 76
1, 66452, Note_on_c, 0, 35, 38
1, 66464, Control_c, 0, 64, 75
1, 66479, Control_c, 0, 64, 75
1, 66486, Note_off_c, 0, 35, 51
1, 66491, Note_on_c, 0, 34, 45
1, 66493, Note_on_c, 0, 72, 53
1, 66494, Control_c, 0, 64, 74
1, 66509, Control_c, 0, 64, 73
1, 66545, Note_off_c, 0, 72, 56
1, 66583, Control_c, 0, 64, 73
1, 66597, Note_on_c, 0, 35, 24
1, 66598, Control_c, 0, 64, 71
1, 66604, Note_off_c, 0, 34, 55
1, 66605, Note_on_c, 0, 77, 42
1, 66613, Control_c, 0, 64, 67
1, 66628, Control_c, 0, 64, 62
1, 66640, Note_off_c, 0, 35, 46
1, 66643, Control_c, 0, 64, 45
1, 66658, Control_c, 0, 64, 43
1, 66672, Control_c, 0, 64, 51
1, 66687, Control_c, 0, 64, 59
1, 66701, Note_on_c, 0, 28, 54
1, 66702, Control_c, 0, 64, 63
1, 66705, Note_on_c, 0, 76, 59
1, 66717, Control_c, 0, 64, 65
1, 66729, Note_off_c, 0, 77, 45
1, 66732, Control_c, 0, 64, 68
1, 66733, Note_off_c, 0, 28, 57
1, 66747, Control_c, 0, 64, 70
1, 66751, Note_on_c, 0, 29, 44
1, 66752, Note_off_c, 0, 76, 61
1, 66761, Control_c, 0, 64, 72
1, 66776, Control_c, 0, 64, 71
1, 66788, Note_off_c, 0, 29, 55
1, 66791, Control_c, 0, 64, 71
1, 66805, Note_on_c, 0, 28, 49
1, 66806, Control_c, 0, 64, 70
1, 66806, Control_c, 0, 67, 121
1, 66820, Control_c, 0, 67, 120
1, 66835, Control_c, 0, 67, 120
1, 66840, Note_off_c, 0, 28, 49
1, 66880, Control_c, 0, 64, 70
1, 66883, Note_on_c, 0, 29, 40
1, 66894, Control_c, 0, 64, 70
1, 66909, Control_c, 0, 67, 119
1, 66918, Note_off_c, 0, 29, 50
1, 66976, Control_c, 0, 64, 70
1, 66991, Control_c, 0, 64, 67
1, 67006, Control_c, 0, 64, 63
1, 67020, Control_c, 0, 64, 53
1, 67035, Control_c, 0, 64, 49
1, 67050, Control_c, 0, 64, 53
1, 67050, Control_c, 0, 67, 120
1, 67056, Note_on_c, 0, 57, 58
1, 67065, Note_on_c, 0, 46, 60
1, 67065, Control_c, 0, 64, 60
1, 67080, Control_c, 0, 64, 64
1, 67094, Control_c, 0, 64, 66
1, 67109, Control_c, 0, 64, 69
1, 67115, Note_off_c, 0, 46, 59
1, 67124, Control_c, 0, 64, 70
1, 67155, Note_on_c, 0, 51, 62
1, 67169, Note_off_c, 0, 57, 54
1, 67180, Note_on_c, 0, 47, 15
1, 67198, Control_c, 0, 64, 71
1, 67213, Control_c, 0, 64, 72
1, 67217, Note_off_c, 0, 51, 60
1, 67227, Control_c, 0, 64, 73
1, 67232, Note_on_c, 0, 46, 55
1, 67242, Control_c, 0, 64, 74
1, 67243, Note_on_c, 0, 56, 62
1, 67260, Note_off_c, 0, 46, 63
1, 67266, Note_off_c, 0, 47, 41
1, 67269, Note_off_c, 0, 56, 66
1, 67272, Control_c, 0, 64, 74
1, 67287, Control_c, 0, 64, 70
1, 67301, Control_c, 0, 64, 65
1, 67316, Control_c, 0, 64, 59
1, 67331, Control_c, 0, 64, 56
1, 67346, Control_c, 0, 64, 59
1, 67361, Control_c, 0, 64, 63
1, 67363, Note_on_c, 0, 51, 63
1, 67376, Control_c, 0, 64, 65
1, 67384, Note_on_c, 0, 70, 66
1, 67391, Control_c, 0, 64, 67
1, 67405, Note_off_c, 0, 51, 63
1, 67406, Control_c, 0, 64, 69
1, 67421, Control_c, 0, 64, 69
1, 67441, Note_on_c, 0, 52, 40
1, 67465, Control_c, 0, 67, 119
1, 67477, Note_on_c, 0, 62, 49
1, 67498, Note_off_c, 0, 52, 41
1, 67523, Note_off_c, 0, 62, 56
1, 67525, Control_c, 0, 64, 70
1, 67526, Note_off_c, 0, 70, 37
1, 67527, Note_on_c, 0, 51, 48
1, 67540, Control_c, 0, 64, 70
1, 67553, Note_off_c, 0, 51, 59
1, 67555, Control_c, 0, 64, 71
1, 67560, Note_on_c, 0, 66, 56
1, 67583, Note_off_c, 0, 66, 64
1, 67584, Control_c, 0, 64, 68
1, 67599, Control_c, 0, 64, 63
1, 67614, Control_c, 0, 64, 50
1, 67629, Control_c, 0, 64, 40
1, 67643, Control_c, 0, 64, 46
1, 67658, Control_c, 0, 64, 57
1, 67673, Control_c, 0, 64, 63
1, 67677, Note_on_c, 0, 43, 49
1, 67688, Note_on_c, 0, 83, 57
1, 67688, Control_c, 0, 64, 65
1, 67703, Control_c, 0, 64, 67
1, 67704, Note_on_c, 0, 44, 51
1, 67707, Note_off_c, 0, 83, 62
1, 67709, Note_off_c, 0, 43, 53
1, 67725, Control_c, 0, 64, 68
1, 67751, Note_off_c, 0, 44, 58
1, 67755, Control_c, 0, 64, 68
1, 67772, Note_on_c, 0, 43, 44
1, 67784, Control_c, 0, 64, 68
1, 67796, Note_on_c, 0, 68, 57
1, 67799, Control_c, 0, 64, 69
1, 67815, Note_off_c, 0, 43, 62
1, 67847, Note_on_c, 0, 44, 56
1, 67856, Note_off_c, 0, 68, 60
1, 67858, Control_c, 0, 64, 70
1, 67873, Control_c, 0, 64, 71
1, 67888, Control_c, 0, 64, 70
1, 67891, Note_on_c, 0, 67, 45
1, 67892, Note_off_c, 0, 44, 61
1, 67903, Control_c, 0, 64, 67
1, 67916, Note_off_c, 0, 67, 55
1, 67917, Control_c, 0, 64, 63
1, 67932, Control_c, 0, 64, 57
1, 67947, Control_c, 0, 64, 55
1, 67962, Control_c, 0, 64, 60
1, 67976, Control_c, 0, 64, 65
1, 67991, Control_c, 0, 64, 67
1, 67998, Note_on_c, 0, 91, 84
1, 68006, Control_c, 0, 64, 68
1, 68016, Note_off_c, 0, 91, 72
1, 68018, Note_on_c, 0, 34, 20
1, 68021, Control_c, 0, 64, 69
1, 68036, Control_c, 0, 64, 70
1, 68037, Note_on_c, 0, 35, 31
1, 68062, Note_off_c, 0, 34, 52
1, 68094, Note_off_c, 0, 35, 0
1, 68094, Control_c, 0, 64, 70
1, 68109, Note_on_c, 0, 35, 45
1, 68124, Note_on_c, 0, 73, 50
1, 68124, Control_c, 0, 67, 120
1, 68139, Control_c, 0, 64, 71
1, 68139, Control_c, 0, 67, 120
1, 68150, Note_off_c, 0, 35, 61
1, 68154, Control_c, 0, 67, 121
1, 68168, Control_c, 0, 64, 71
1, 68182, Note_off_c, 0, 73, 60
1, 68183, Control_c, 0, 64, 72
1, 68188, Note_on_c, 0, 36, 9
1, 68199, Control_c, 0, 64, 73
1, 68205, Note_on_c, 0, 78, 56
1, 68214, Control_c, 0, 64, 73
1, 68215, Note_on_c, 0, 35, 40
1, 68228, Control_c, 0, 64, 73
1, 68236, Note_off_c, 0, 36, 51
1, 68243, Control_c, 0, 64, 69
1, 68244, Note_off_c, 0, 35, 56
1, 68258, Control_c, 0, 64, 64
1, 68258, Control_c, 0, 67, 121
1, 68273, Control_c, 0, 64, 59
1, 68288, Control_c, 0, 64, 60
1, 68303, Control_c, 0, 64, 64
1, 68318, Control_c, 0, 64, 67
1, 68322, Note_on_c, 0, 76, 62
1, 68323, Note_on_c, 0, 28, 64
1, 68333, Control_c, 0, 64, 71
1, 68347, Control_c, 0, 64, 74
1, 68354, Note_off_c, 0, 28, 61
1, 68358, Note_off_c, 0, 78, 41
1, 68359, Note_off_c, 0, 76, 61
1, 68362, Control_c, 0, 64, 76
1, 68377, Note_on_c, 0, 29, 40
1, 68377, Control_c, 0, 64, 76
1, 68417, Note_off_c, 0, 29, 46
1, 68420, Note_on_c, 0, 28, 48
1, 68473, Control_c, 0, 64, 76
1, 68506, Note_on_c, 0, 29, 37
1, 68506, Note_off_c, 0, 28, 0
1, 68518, Note_on_c, 0, 28, 27
1, 68533, Control_c, 0, 67, 121
1, 68542, Note_off_c, 0, 29, 48
1, 68560, Note_off_c, 0, 28, 51
1, 68562, Control_c, 0, 64, 74
1, 68577, Control_c, 0, 64, 71
1, 68591, Control_c, 0, 64, 66
1, 68591, Control_c, 0, 67, 120
1, 68606, Control_c, 0, 64, 63
1, 68606, Control_c, 0, 67, 120
1, 68621, Control_c, 0, 64, 63
1, 68621, Control_c, 0, 67, 119
1, 68636, Control_c, 0, 64, 66
1, 68636, Control_c, 0, 67, 119
1, 68649, Note_on_c, 0, 56, 67
1, 68651, Control_c, 0, 64, 68
1, 68664, Note_on_c, 0, 47, 67
1, 68665, Control_c, 0, 64, 70
1, 68680, Control_c, 0, 64, 73
1, 68695, Control_c, 0, 64, 75
1, 68704, Note_off_c, 0, 47, 64
1, 68725, Control_c, 0, 64, 74
1, 68725, Control_c, 0, 67, 118
1, 68739, Control_c, 0, 64, 74
1, 68739, Control_c, 0, 67, 118
1, 68749, Note_off_c, 0, 56, 59
1, 68754, Control_c, 0, 67, 117
1, 68756, Note_on_c, 0, 52, 58
1, 68769, Control_c, 0, 64, 74
1, 68799, Control_c, 0, 67, 117
1, 68808, Note_on_c, 0, 47, 54
1, 68814, Control_c, 0, 64, 75
1, 68821, Note_on_c, 0, 48, 18
1, 68829, Note_off_c, 0, 52, 60
1, 68829, Control_c, 0, 67, 116
1, 68839, Note_off_c, 0, 47, 66
1, 68840, Note_on_c, 0, 57, 63
1, 68844, Control_c, 0, 64, 73
1, 68849, Note_off_c, 0, 48, 49
1, 68859, Control_c, 0, 64, 69
1, 68859, Control_c, 0, 67, 116
1, 68863, Note_off_c, 0, 57, 65
1, 68873, Control_c, 0, 64, 65
1, 68888, Control_c, 0, 64, 64
1, 68888, Control_c, 0, 67, 115
1, 68903, Control_c, 0, 64, 64
1, 68903, Control_c, 0, 67, 115
1, 68918, Control_c, 0, 64, 67
1, 68933, Control_c, 0, 64, 69
1, 68933, Control_c, 0, 67, 114
1, 68947, Control_c, 0, 64, 72
1, 68947, Control_c, 0, 67, 114
1, 68950, Note_on_c, 0, 50, 58
1, 68962, Control_c, 0, 64, 74
1, 68974, Note_on_c, 0, 69, 61
1, 68977, Control_c, 0, 64, 75
1, 69001, Note_off_c, 0, 50, 64
1, 69022, Note_on_c, 0, 51, 58
1, 69037, Control_c, 0, 67, 113
1, 69067, Control_c, 0, 67, 113
1, 69068, Note_on_c, 0, 63, 59
1, 69076, Note_off_c, 0, 51, 56
1, 69081, Note_off_c, 0, 69, 59
1, 69114, Note_on_c, 0, 50, 46
1, 69126, Control_c, 0, 64, 75
1, 69126, Control_c, 0, 67, 112
1, 69135, Note_on_c, 0, 67, 59
1, 69141, Note_off_c, 0, 63, 57
1, 69141, Control_c, 0, 64, 75
1, 69141, Control_c, 0, 67, 111
1, 69144, Note_off_c, 0, 50, 60
1, 69156, Control_c, 0, 64, 72
1, 69156, Control_c, 0, 67, 110
1, 69164, Note_off_c, 0, 67, 65
1, 69170, Control_c, 0, 64, 68
1, 69170, Control_c, 0, 67, 108
1, 69185, Control_c, 0, 64, 64
1, 69185, Control_c, 0, 67, 106
1, 69200, Control_c, 0, 64, 61
1, 69200, Control_c, 0, 67, 103
1, 69222, Control_c, 0, 64, 63
1, 69222, Control_c, 0, 67, 99
1, 69237, Control_c, 0, 64, 65
1, 69237, Control_c, 0, 67, 96
1, 69242, Note_on_c, 0, 42, 70
1, 69252, Control_c, 0, 64, 67
1, 69252, Control_c, 0, 67, 93
1, 69263, Note_on_c, 0, 82, 79
1, 69267, Control_c, 0, 64, 70
1, 69267, Control_c, 0, 67, 92
1, 69282, Control_c, 0, 64, 72
1, 69282, Control_c, 0, 67, 91
1, 69283, Note_off_c, 0, 42, 63
1, 69291, Note_off_c, 0, 82, 58
1, 69296, Control_c, 0, 64, 73
1, 69296, Control_c, 0, 67, 90
1, 69311, Control_c, 0, 67, 90
1, 69324, Note_on_c, 0, 43, 41
1, 69326, Control_c, 0, 64, 73
1, 69341, Control_c, 0, 67, 90
1, 69353, Note_on_c, 0, 69, 63
1, 69356, Control_c, 0, 67, 91
1, 69378, Note_on_c, 0, 42, 55
1, 69385, Control_c, 0, 67, 91
1, 69400, Control_c, 0, 64, 73
1, 69400, Control_c, 0, 67, 92
1, 69402, Note_off_c, 0, 69, 53
1, 69404, Note_off_c, 0, 43, 35
1, 69415, Control_c, 0, 64, 74
1, 69415, Control_c, 0, 67, 92
1, 69420, Note_off_c, 0, 42, 60
1, 69430, Control_c, 0, 64, 72
1, 69430, Control_c, 0, 67, 93
1, 69436, Note_on_c, 0, 68, 60
1, 69445, Control_c, 0, 64, 68
1, 69445, Control_c, 0, 67, 94
1, 69460, Control_c, 0, 64, 64
1, 69460, Control_c, 0, 67, 94
1, 69465, Note_off_c, 0, 68, 64
1, 69475, Control_c, 0, 64, 60
1, 69475, Control_c, 0, 67, 95
1, 69489, Control_c, 0, 64, 60
1, 69504, Control_c, 0, 64, 64
1, 69504, Control_c, 0, 67, 96
1, 69519, Control_c, 0, 64, 66
1, 69519, Control_c, 0, 67, 96
1, 69534, Control_c, 0, 64, 69
1, 69540, Note_on_c, 0, 36, 54
1, 69545, Note_on_c, 0, 90, 79
1, 69549, Control_c, 0, 64, 73
1, 69549, Control_c, 0, 67, 97
1, 69561, Note_on_c, 0, 37, 47
1, 69563, Control_c, 0, 64, 75
1, 69569, Note_off_c, 0, 36, 56
1, 69578, Control_c, 0, 64, 76
1, 69584, Note_off_c, 0, 90, 63
1, 69593, Control_c, 0, 64, 76
1, 69607, Control_c, 0, 64, 75
1, 69622, Control_c, 0, 64, 75
1, 69635, Note_on_c, 0, 74, 66
1, 69644, Note_on_c, 0, 36, 56
1, 69652, Control_c, 0, 67, 96
1, 69668, Note_off_c, 0, 37, 0
1, 69668, Note_on_c, 0, 37, 21
1, 69712, Note_off_c, 0, 74, 57
1, 69715, Note_off_c, 0, 37, 61
1, 69722, Note_off_c, 0, 36, 62
1, 69733, Note_on_c, 0, 79, 57
1, 69741, Control_c, 0, 64, 73
1, 69756, Control_c, 0, 64, 68
1, 69756, Control_c, 0, 67, 96
1, 69770, Control_c, 0, 64, 62
1, 69786, Control_c, 0, 64, 54
1, 69801, Control_c, 0, 64, 56
1, 69816, Control_c, 0, 64, 62
1, 69826, Note_off_c, 0, 79, 52
1, 69826, Note_on_c, 0, 28, 67
1, 69831, Control_c, 0, 64, 65
1, 69833, Note_on_c, 0, 76, 66
1, 69845, Control_c, 0, 64, 68
1, 69856, Note_off_c, 0, 28, 61
1, 69860, Control_c, 0, 64, 72
1, 69866, Note_off_c, 0, 76, 60
1, 69871, Note_on_c, 0, 29, 54
1, 69875, Control_c, 0, 64, 75
1, 69890, Control_c, 0, 64, 76
1, 69905, Control_c, 0, 67, 95
1, 69915, Note_off_c, 0, 29, 49
1, 69919, Control_c, 0, 64, 75
1, 69924, Note_on_c, 0, 28, 61
1, 69976, Note_off_c, 0, 28, 60
1, 70031, Control_c, 0, 64, 75
1, 70045, Control_c, 0, 64, 71
1, 70060, Control_c, 0, 64, 66
1, 70060, Control_c, 0, 67, 96
1, 70075, Control_c, 0, 64, 62
1, 70090, Control_c, 0, 64, 61
1, 70105, Control_c, 0, 64, 64
1, 70105, Control_c, 0, 67, 96
1, 70119, Control_c, 0, 64, 66
1, 70120, Note_on_c, 0, 55, 68
1, 70126, Note_on_c, 0, 48, 64
1, 70134, Control_c, 0, 64, 69
1, 70134, Control_c, 0, 67, 97
1, 70149, Control_c, 0, 64, 72
1, 70164, Control_c, 0, 64, 75
1, 70179, Note_off_c, 0, 48, 60
1, 70179, Control_c, 0, 64, 75
1, 70181, Note_off_c, 0, 55, 54
1, 70193, Control_c, 0, 64, 75
1, 70208, Control_c, 0, 64, 74
1, 70208, Control_c, 0, 67, 96
1, 70214, Note_on_c, 0, 53, 61
1, 70223, Control_c, 0, 67, 96
1, 70226, Note_on_c, 0, 49, 40
1, 70253, Control_c, 0, 64, 75
1, 70267, Control_c, 0, 64, 75
1, 70279, Note_off_c, 0, 53, 62
1, 70294, Note_on_c, 0, 48, 46
1, 70296, Note_on_c, 0, 58, 56
1, 70303, Note_off_c, 0, 49, 62
1, 70312, Control_c, 0, 64, 72
1, 70316, Note_off_c, 0, 48, 59
1, 70319, Note_off_c, 0, 58, 63
1, 70327, Control_c, 0, 64, 68
1, 70342, Control_c, 0, 64, 65
1, 70357, Control_c, 0, 64, 64
1, 70371, Control_c, 0, 64, 66
1, 70371, Control_c, 0, 67, 95
1, 70386, Control_c, 0, 64, 68
1, 70399, Note_on_c, 0, 49, 68
1, 70401, Control_c, 0, 64, 71
1, 70413, Note_on_c, 0, 68, 70
1, 70416, Control_c, 0, 64, 73
1, 70431, Control_c, 0, 64, 74
1, 70431, Control_c, 0, 67, 96
1, 70445, Control_c, 0, 64, 75
1, 70447, Note_off_c, 0, 49, 62
1, 70460, Control_c, 0, 64, 74
1, 70464, Note_off_c, 0, 68, 52
1, 70489, Note_on_c, 0, 50, 37
1, 70490, Control_c, 0, 67, 95
1, 70496, Note_on_c, 0, 64, 68
1, 70521, Note_on_c, 0, 49, 60
1, 70534, Control_c, 0, 64, 75
1, 70536, Note_off_c, 0, 50, 61
1, 70549, Control_c, 0, 64, 76
1, 70549, Control_c, 0, 67, 96
1, 70551, Note_off_c, 0, 64, 59
1, 70553, Note_off_c, 0, 49, 60
1, 70563, Control_c, 0, 64, 77
1, 70567, Note_on_c, 0, 68, 58
1, 70578, Control_c, 0, 64, 75
1, 70586, Note_off_c, 0, 68, 66
1, 70595, Control_c, 0, 64, 70
1, 70609, Control_c, 0, 64, 64
1, 70624, Control_c, 0, 64, 62
1, 70639, Control_c, 0, 64, 64
1, 70654, Control_c, 0, 64, 66
1, 70664, Note_on_c, 0, 41, 55
1, 70666, Note_on_c, 0, 81, 84
1, 70668, Control_c, 0, 64, 70
1, 70683, Control_c, 0, 64, 73
1, 70693, Note_off_c, 0, 41, 59
1, 70698, Control_c, 0, 64, 76
1, 70698, Control_c, 0, 67, 96
1, 70717, Note_off_c, 0, 81, 63
1, 70721, Control_c, 0, 64, 78
1, 70725, Note_on_c, 0, 42, 34
1, 70765, Control_c, 0, 67, 96
1, 70768, Note_on_c, 0, 70, 61
1, 70780, Note_off_c, 0, 42, 0
1, 70780, Note_on_c, 0, 42, 14
1, 70780, Note_on_c, 0, 41, 58
1, 70821, Note_off_c, 0, 70, 61
1, 70824, Control_c, 0, 64, 79
1, 70825, Note_off_c, 0, 41, 61
1, 70826, Note_off_c, 0, 42, 59
1, 70828, Note_on_c, 0, 69, 58
1, 70839, Control_c, 0, 64, 78
1, 70849, Note_off_c, 0, 69, 63
1, 70854, Control_c, 0, 64, 74
1, 70868, Control_c, 0, 64, 68
1, 70883, Control_c, 0, 64, 64
1, 70898, Control_c, 0, 64, 64
1, 70898, Control_c, 0, 67, 95
1, 70913, Control_c, 0, 64, 66
1, 70924, Note_on_c, 0, 37, 64
1, 70928, Control_c, 0, 64, 69
1, 70932, Note_on_c, 0, 89, 72
1, 70942, Control_c, 0, 64, 72
1, 70942, Control_c, 0, 67, 96
1, 70953, Note_off_c, 0, 89, 59
1, 70957, Control_c, 0, 64, 74
1, 70959, Note_off_c, 0, 37, 65
1, 70963, Note_on_c, 0, 88, 37
1, 70972, Control_c, 0, 64, 75
1, 70972, Control_c, 0, 67, 96
1, 70992, Note_off_c, 0, 88, 33
1, 71001, Note_on_c, 0, 38, 43
1, 71001, Control_c, 0, 64, 74
1, 71006, Note_on_c, 0, 75, 68
1, 71016, Control_c, 0, 67, 96
1, 71031, Control_c, 0, 67, 95
1, 71047, Note_on_c, 0, 37, 61
1, 71078, Note_off_c, 0, 37, 65
1, 71080, Note_off_c, 0, 75, 57
1, 71090, Control_c, 0, 64, 75
1, 71090, Control_c, 0, 67, 96
1, 71099, Note_off_c, 0, 38, 34
1, 71102, Note_on_c, 0, 80, 60
1, 71105, Control_c, 0, 64, 75
1, 71120, Control_c, 0, 64, 74
1, 71135, Control_c, 0, 64, 69
1, 71135, Control_c, 0, 67, 95
1, 71150, Control_c, 0, 64, 64
1, 71150, Control_c, 0, 67, 95
1, 71165, Control_c, 0, 64, 58
1, 71165, Control_c, 0, 67, 94
1, 71174, Note_on_c, 0, 28, 73
1, 71180, Control_c, 0, 67, 94
1, 71184, Note_on_c, 0, 76, 79
1, 71194, Control_c, 0, 64, 63
1, 71206, Note_off_c, 0, 80, 59
1, 71207, Note_off_c, 0, 28, 64
1, 71209, Control_c, 0, 64, 66
1, 71214, Note_off_c, 0, 76, 62
1, 71224, Control_c, 0, 64, 69
1, 71239, Control_c, 0, 64, 72
1, 71239, Control_c, 0, 67, 94
1, 71250, Note_on_c, 0, 29, 37
1, 71254, Control_c, 0, 64, 75
1, 71268, Control_c, 0, 64, 76
1, 71268, Control_c, 0, 67, 94
1, 71269, Note_on_c, 0, 28, 73
1, 71283, Control_c, 0, 67, 93
1, 71298, Control_c, 0, 64, 75
1, 71298, Control_c, 0, 67, 93
1, 71299, Note_off_c, 0, 28, 62
1, 71300, Note_off_c, 0, 29, 58
1, 71328, Control_c, 0, 64, 76
1, 71328, Control_c, 0, 67, 92
1, 71342, Control_c, 0, 64, 76
1, 71342, Control_c, 0, 67, 93
1, 71357, Control_c, 0, 64, 76
1, 71372, Control_c, 0, 64, 73
1, 71372, Control_c, 0, 67, 93
1, 71388, Control_c, 0, 64, 67
1, 71402, Control_c, 0, 64, 64
1, 71417, Control_c, 0, 67, 93
1, 71423, Note_on_c, 0, 54, 74
1, 71424, Note_on_c, 0, 49, 76
1, 71432, Control_c, 0, 64, 66
1, 71447, Control_c, 0, 64, 69
1, 71447, Control_c, 0, 67, 92
1, 71451, Note_off_c, 0, 54, 68
1, 71469, Control_c, 0, 64, 72
1, 71484, Control_c, 0, 64, 75
1, 71490, Note_off_c, 0, 49, 62
1, 71499, Control_c, 0, 64, 76
1, 71512, Note_on_c, 0, 54, 81
1, 71513, Control_c, 0, 67, 93
1, 71522, Note_on_c, 0, 50, 49
1, 71528, Control_c, 0, 64, 76
1, 71543, Control_c, 0, 67, 92
1, 71558, Control_c, 0, 67, 91
1, 71570, Note_off_c, 0, 54, 65
1, 71573, Control_c, 0, 67, 91
1, 71581, Note_on_c, 0, 49, 62
1, 71588, Control_c, 0, 64, 76
1, 71588, Control_c, 0, 67, 90
1, 71606, Note_on_c, 0, 59, 67
1, 71611, Note_off_c, 0, 50, 63
1, 71613, Note_off_c, 0, 49, 65
1, 71617, Control_c, 0, 64, 74
1, 71630, Note_off_c, 0, 59, 67
1, 71632, Control_c, 0, 64, 69
1, 71647, Control_c, 0, 64, 64
1, 71662, Control_c, 0, 64, 62
1, 71677, Control_c, 0, 64, 64
1, 71691, Control_c, 0, 64, 67
1, 71691, Control_c, 0, 67, 90
1, 71692, Note_on_c, 0, 48, 67
1, 71706, Control_c, 0, 64, 69
1, 71707, Note_on_c, 0, 67, 77
1, 71721, Control_c, 0, 64, 72
1, 71721, Control_c, 0, 67, 89
1, 71732, Note_off_c, 0, 48, 64
1, 71736, Control_c, 0, 64, 74
1, 71743, Note_on_c, 0, 49, 43
1, 71751, Control_c, 0, 64, 75
1, 71760, Note_off_c, 0, 67, 50
1, 71780, Control_c, 0, 64, 75
1, 71784, Note_on_c, 0, 65, 70
1, 71810, Control_c, 0, 67, 89
1, 71811, Note_on_c, 0, 48, 70
1, 71825, Control_c, 0, 64, 75
1, 71825, Control_c, 0, 67, 88
1, 71832, Note_off_c, 0, 49, 63
1, 71835, Note_on_c, 0, 69, 73
1, 71840, Note_off_c, 0, 48, 66
1, 71840, Control_c, 0, 67, 87
1, 71843, Note_off_c, 0, 65, 63
1, 71855, Control_c, 0, 64, 75
1, 71855, Control_c, 0, 67, 86
1, 71859, Note_off_c, 0, 69, 69
1, 71870, Control_c, 0, 64, 71
1, 71884, Control_c, 0, 64, 65
1, 71899, Control_c, 0, 64, 59
1, 71899, Control_c, 0, 67, 86
1, 71914, Control_c, 0, 64, 58
1, 71929, Control_c, 0, 64, 62
1, 71929, Control_c, 0, 67, 85
1, 71940, Note_on_c, 0, 40, 72
1, 71944, Control_c, 0, 64, 65
1, 71944, Control_c, 0, 67, 83
1, 71948, Note_on_c, 0, 80, 84
1, 71958, Control_c, 0, 64, 68
1, 71958, Control_c, 0, 67, 82
1, 71973, Note_off_c, 0, 40, 67
1, 71973, Control_c, 0, 64, 71
1, 71973, Control_c, 0, 67, 81
1, 71988, Control_c, 0, 64, 74
1, 71988, Control_c, 0, 67, 80
1, 72003, Control_c, 0, 64, 76
1, 72010, Note_off_c, 0, 80, 62
1, 72017, Note_on_c, 0, 41, 51
1, 72017, Control_c, 0, 67, 80
1, 72023, Note_on_c, 0, 71, 66
1, 72047, Control_c, 0, 64, 76
1, 72050, Note_on_c, 0, 40, 59
1, 72062, Control_c, 0, 64, 76
1, 72077, Note_on_c, 0, 69, 10
1, 72092, Control_c, 0, 64, 77
1, 72098, Note_off_c, 0, 71, 56
1, 72101, Note_on_c, 0, 70, 64
1, 72102, Note_off_c, 0, 41, 45
1, 72108, Note_off_c, 0, 40, 62
1, 72122, Note_off_c, 0, 70, 66
1, 72122, Control_c, 0, 64, 74
1, 72127, Note_off_c, 0, 69, 29
1, 72136, Control_c, 0, 64, 70
1, 72151, Control_c, 0, 64, 65
1, 72166, Control_c, 0, 64, 64
1, 72181, Control_c, 0, 64, 66
1, 72188, Note_on_c, 0, 38, 69
1, 72196, Control_c, 0, 64, 68
1, 72196, Control_c, 0, 67, 79
1, 72215, Note_on_c, 0, 88, 80
1, 72219, Control_c, 0, 64, 71
1, 72219, Control_c, 0, 67, 79
1, 72228, Note_off_c, 0, 38, 64
1, 72233, Control_c, 0, 64, 74
1, 72233, Control_c, 0, 67, 78
1, 72248, Control_c, 0, 64, 76
1, 72248, Control_c, 0, 67, 78
1, 72257, Note_on_c, 0, 40, 58
1, 72263, Control_c, 0, 64, 76
1, 72263, Control_c, 0, 67, 76
1, 72278, Control_c, 0, 67, 75
1, 72293, Control_c, 0, 64, 76
1, 72293, Control_c, 0, 67, 74
1, 72299, Note_off_c, 0, 40, 62
1, 72302, Note_on_c, 0, 38, 64
1, 72303, Note_on_c, 0, 76, 51
1, 72308, Note_off_c, 0, 88, 36
1, 72308, Control_c, 0, 67, 74
1, 72322, Control_c, 0, 67, 73
1, 72337, Control_c, 0, 64, 76
1, 72337, Control_c, 0, 67, 73
1, 72352, Control_c, 0, 67, 72
1, 72355, Note_off_c, 0, 38, 63
1, 72359, Note_off_c, 0, 76, 57
1, 72363, Note_on_c, 0, 81, 71
1, 72367, Control_c, 0, 64, 77
1, 72367, Control_c, 0, 67, 72
1, 72381, Control_c, 0, 64, 78
1, 72396, Control_c, 0, 64, 78
1, 72396, Control_c, 0, 67, 71
1, 72411, Control_c, 0, 64, 75
1, 72411, Control_c, 0, 67, 71
1, 72426, Control_c, 0, 64, 70
1, 72426, Control_c, 0, 67, 70
1, 72429, Note_off_c, 0, 81, 61
1, 72441, Control_c, 0, 64, 65
1, 72455, Control_c, 0, 64, 64
1, 72455, Control_c, 0, 67, 70
1, 72462, Note_on_c, 0, 28, 80
1, 72462, Note_on_c, 0, 76, 74
1, 72470, Control_c, 0, 64, 66
1, 72485, Note_off_c, 0, 76, 68
1, 72485, Control_c, 0, 64, 68
1, 72485, Control_c, 0, 67, 69
1, 72494, Note_off_c, 0, 28, 65
1, 72500, Control_c, 0, 64, 71
1, 72515, Control_c, 0, 64, 73
1, 72515, Control_c, 0, 67, 70
1, 72530, Control_c, 0, 64, 74
1, 72535, Note_on_c, 0, 29, 37
1, 72544, Control_c, 0, 64, 74
1, 72544, Control_c, 0, 67, 70
1, 72549, Note_on_c, 0, 28, 78
1, 72558, Control_c, 0, 67, 71
1, 72581, Note_off_c, 0, 29, 57
1, 72584, Note_off_c, 0, 28, 62
1, 72588, Control_c, 0, 64, 74
1, 72603, Control_c, 0, 64, 75
1, 72618, Control_c, 0, 67, 71
1, 72632, Control_c, 0, 64, 73
1, 72632, Control_c, 0, 67, 72
1, 72647, Control_c, 0, 64, 68
1, 72662, Control_c, 0, 64, 65
1, 72662, Control_c, 0, 67, 72
1, 72677, Control_c, 0, 64, 64
1, 72692, Control_c, 0, 64, 66
1, 72703, Note_on_c, 0, 49, 49
1, 72703, Note_on_c, 0, 53, 77
1, 72706, Control_c, 0, 64, 69
1, 72718, Note_on_c, 0, 48, 71
1, 72721, Control_c, 0, 64, 74
1, 72736, Control_c, 0, 64, 78
1, 72751, Control_c, 0, 64, 81
1, 72757, Note_off_c, 0, 48, 61
1, 72757, Note_off_c, 0, 49, 42
1, 72765, Control_c, 0, 64, 82
1, 72771, Note_off_c, 0, 53, 65
1, 72777, Note_on_c, 0, 55, 72
1, 72795, Control_c, 0, 67, 72
1, 72810, Control_c, 0, 67, 71
1, 72825, Control_c, 0, 64, 83
1, 72825, Control_c, 0, 67, 70
1, 72838, Note_off_c, 0, 55, 64
1, 72840, Control_c, 0, 64, 83
1, 72840, Control_c, 0, 67, 70
1, 72840, Note_on_c, 0, 60, 67
1, 72855, Control_c, 0, 64, 83
1, 72861, Note_off_c, 0, 60, 66
1, 72870, Control_c, 0, 64, 78
1, 72870, Control_c, 0, 67, 69
1, 72885, Control_c, 0, 64, 71
1, 72900, Control_c, 0, 64, 66
1, 72909, Poly_aftertouch_c, 0, 50, 127
1, 72914, Control_c, 0, 64, 67
1, 72929, Control_c, 0, 64, 70
1, 72939, Note_on_c, 0, 66, 79
1, 72942, Note_on_c, 0, 47, 73
1, 72944, Control_c, 0, 64, 73
1, 72944, Poly_aftertouch_c, 0, 50, 0
1, 72965, Control_c, 0, 64, 77
1, 72974, Note_off_c, 0, 66, 61
1, 72979, Note_off_c, 0, 47, 67
1, 72980, Control_c, 0, 64, 79
1, 72997, Control_c, 0, 64, 80
1, 73021, Note_on_c, 0, 48, 49
1, 73026, Control_c, 0, 67, 70
1, 73043, Note_on_c, 0, 66, 67
1, 73052, Note_on_c, 0, 47, 64
1, 73070, Control_c, 0, 67, 70
1, 73078, Note_off_c, 0, 48, 59
1, 73085, Control_c, 0, 64, 80
1, 73088, Note_off_c, 0, 47, 63
1, 73091, Note_on_c, 0, 70, 71
1, 73100, Control_c, 0, 64, 80
1, 73100, Control_c, 0, 67, 71
1, 73105, Note_off_c, 0, 66, 61
1, 73115, Control_c, 0, 64, 76
1, 73118, Note_off_c, 0, 70, 67
1, 73129, Control_c, 0, 64, 70
1, 73129, Control_c, 0, 67, 71
1, 73144, Control_c, 0, 64, 64
1, 73159, Control_c, 0, 64, 62
1, 73174, Control_c, 0, 64, 63
1, 73187, Note_on_c, 0, 39, 68
1, 73189, Control_c, 0, 64, 66
1, 73194, Note_on_c, 0, 79, 84
1, 73204, Control_c, 0, 64, 69
1, 73219, Control_c, 0, 64, 72
1, 73222, Note_off_c, 0, 39, 63
1, 73233, Control_c, 0, 64, 74
1, 73233, Control_c, 0, 67, 71
1, 73261, Note_off_c, 0, 79, 61
1, 73262, Note_on_c, 0, 40, 44
1, 73263, Control_c, 0, 64, 73
1, 73269, Note_on_c, 0, 72, 65
1, 73293, Control_c, 0, 64, 74
1, 73298, Note_off_c, 0, 40, 53
1, 73305, Note_on_c, 0, 39, 64
1, 73308, Control_c, 0, 64, 75
1, 73323, Control_c, 0, 64, 75
1, 73325, Note_off_c, 0, 72, 61
1, 73331, Note_on_c, 0, 71, 72
1, 73337, Control_c, 0, 64, 73
1, 73352, Control_c, 0, 64, 68
1, 73352, Control_c, 0, 67, 71
1, 73356, Note_off_c, 0, 71, 68
1, 73359, Note_off_c, 0, 39, 61
1, 73367, Control_c, 0, 64, 64
1, 73367, Control_c, 0, 67, 72
1, 73396, Control_c, 0, 64, 67
1, 73411, Control_c, 0, 64, 70
1, 73420, Note_on_c, 0, 40, 37
1, 73424, Note_on_c, 0, 87, 90
1, 73426, Control_c, 0, 64, 74
1, 73441, Control_c, 0, 64, 77
1, 73442, Note_on_c, 0, 39, 56
1, 73455, Control_c, 0, 64, 79
1, 73457, Note_off_c, 0, 40, 48
1, 73470, Control_c, 0, 64, 79
1, 73481, Note_off_c, 0, 39, 62
1, 73518, Note_on_c, 0, 77, 64
1, 73522, Note_on_c, 0, 40, 50
1, 73544, Control_c, 0, 64, 79
1, 73567, Note_on_c, 0, 39, 65
1, 73567, Note_off_c, 0, 77, 54
1, 73573, Note_on_c, 0, 82, 69
1, 73588, Note_off_c, 0, 40, 61
1, 73588, Control_c, 0, 64, 79
1, 73593, Note_off_c, 0, 39, 61
1, 73601, Note_off_c, 0, 87, 38
1, 73618, Control_c, 0, 64, 77
1, 73633, Control_c, 0, 64, 73
1, 73648, Control_c, 0, 64, 67
1, 73663, Control_c, 0, 64, 65
1, 73678, Control_c, 0, 64, 66
1, 73680, Note_on_c, 0, 76, 75
1, 73681, Note_on_c, 0, 28, 78
1, 73692, Note_off_c, 0, 82, 61
1, 73692, Control_c, 0, 64, 69
1, 73713, Note_off_c, 0, 76, 66
1, 73715, Control_c, 0, 64, 72
1, 73722, Note_off_c, 0, 28, 64
1, 73730, Control_c, 0, 64, 75
1, 73733, Note_on_c, 0, 29, 55
1, 73744, Control_c, 0, 64, 77
1, 73759, Control_c, 0, 64, 77
1, 73774, Control_c, 0, 64, 77
1, 73788, Note_on_c, 0, 28, 60
1, 73790, Control_c, 0, 67, 71
1, 73801, Note_off_c, 0, 29, 57
1, 73805, Control_c, 0, 64, 78
1, 73805, Control_c, 0, 67, 70
1, 73819, Control_c, 0, 64, 80
1, 73821, Note_off_c, 0, 28, 56
1, 73834, Control_c, 0, 64, 79
1, 73849, Control_c, 0, 64, 76
1, 73864, Control_c, 0, 64, 68
1, 73879, Control_c, 0, 64, 62
1, 73879, Control_c, 0, 67, 70
1, 73893, Control_c, 0, 64, 61
1, 73908, Control_c, 0, 64, 64
1, 73923, Control_c, 0, 64, 68
1, 73926, Note_on_c, 0, 52, 73
1, 73927, Note_on_c, 0, 51, 79
1, 73938, Control_c, 0, 64, 72
1, 73938, Control_c, 0, 67, 69
1, 73953, Control_c, 0, 64, 77
1, 73953, Control_c, 0, 67, 69
1, 73961, Note_off_c, 0, 52, 64
1, 73967, Control_c, 0, 64, 82
1, 73978, Note_off_c, 0, 51, 63
1, 73982, Control_c, 0, 64, 83
1, 73999, Note_on_c, 0, 56, 77
1, 74011, Control_c, 0, 64, 83
1, 74024, Note_on_c, 0, 52, 46
1, 74026, Control_c, 0, 67, 68
1, 74041, Control_c, 0, 64, 83
1, 74054, Note_on_c, 0, 51, 69
1, 74055, Note_off_c, 0, 56, 65
1, 74056, Control_c, 0, 64, 84
1, 74056, Control_c, 0, 67, 67
1, 74061, Note_on_c, 0, 61, 65
1, 74065, Note_off_c, 0, 52, 61
1, 74071, Control_c, 0, 64, 83
1, 74071, Control_c, 0, 67, 66
1, 74081, Note_off_c, 0, 51, 66
1, 74084, Note_off_c, 0, 61, 66
1, 74085, Control_c, 0, 64, 78
1, 74085, Control_c, 0, 67, 64
1, 74100, Control_c, 0, 64, 71
1, 74100, Control_c, 0, 67, 62
1, 74115, Control_c, 0, 64, 65
1, 74115, Control_c, 0, 67, 61
1, 74130, Control_c, 0, 64, 64
1, 74130, Control_c, 0, 67, 59
1, 74145, Control_c, 0, 64, 67
1, 74145, Control_c, 0, 67, 59
1, 74146, Note_on_c, 0, 65, 76
1, 74152, Note_on_c, 0, 46, 81
1, 74159, Control_c, 0, 64, 71
1, 74174, Control_c, 0, 64, 74
1, 74174, Control_c, 0, 67, 58
1, 74189, Control_c, 0, 64, 77
1, 74201, Note_off_c, 0, 65, 62
1, 74203, Control_c, 0, 64, 78
1, 74207, Note_off_c, 0, 46, 60
1, 74208, Note_on_c, 0, 67, 77
1, 74248, Control_c, 0, 67, 59
1, 74253, Note_on_c, 0, 47, 50
1, 74263, Control_c, 0, 64, 79
1, 74263, Control_c, 0, 67, 59
1, 74275, Note_on_c, 0, 71, 71
1, 74275, Note_off_c, 0, 67, 62
1, 74277, Control_c, 0, 64, 80
1, 74284, Note_off_c, 0, 47, 64
1, 74292, Control_c, 0, 64, 79
1, 74292, Control_c, 0, 67, 60
1, 74296, Note_off_c, 0, 71, 71
1, 74307, Control_c, 0, 64, 74
1, 74307, Control_c, 0, 67, 60
1, 74322, Control_c, 0, 64, 67
1, 74322, Control_c, 0, 67, 61
1, 74336, Control_c, 0, 64, 63
1, 74336, Control_c, 0, 67, 62
1, 74351, Control_c, 0, 64, 64
1, 74366, Control_c, 0, 64, 67
1, 74366, Control_c, 0, 67, 62
1, 74373, Note_on_c, 0, 78, 83
1, 74381, Control_c, 0, 64, 70
1, 74381, Control_c, 0, 67, 63
1, 74387, Note_on_c, 0, 38, 69
1, 74396, Control_c, 0, 64, 74
1, 74396, Control_c, 0, 67, 63
1, 74411, Control_c, 0, 64, 78
1, 74413, Note_on_c, 0, 39, 57
1, 74426, Control_c, 0, 64, 82
1, 74440, Note_on_c, 0, 73, 77
1, 74463, Control_c, 0, 64, 82
1, 74471, Note_off_c, 0, 78, 58
1, 74492, Control_c, 0, 64, 83
1, 74492, Control_c, 0, 67, 63
1, 74502, Note_off_c, 0, 38, 60
1, 74505, Note_off_c, 0, 73, 63
1, 74506, Note_on_c, 0, 72, 72
1, 74507, Control_c, 0, 64, 81
1, 74507, Control_c, 0, 67, 62
1, 74510, Note_off_c, 0, 39, 60
1, 74522, Control_c, 0, 64, 75
1, 74530, Note_off_c, 0, 72, 65
1, 74536, Control_c, 0, 64, 66
1, 74551, Control_c, 0, 64, 61
1, 74566, Control_c, 0, 64, 61
1, 74566, Control_c, 0, 67, 62
1, 74575, Note_on_c, 0, 40, 74
1, 74582, Control_c, 0, 64, 64
1, 74597, Control_c, 0, 64, 68
1, 74597, Control_c, 0, 67, 61
1, 74599, Note_on_c, 0, 86, 83
1, 74612, Control_c, 0, 64, 71
1, 74627, Control_c, 0, 64, 76
1, 74631, Note_off_c, 0, 40, 60
1, 74641, Control_c, 0, 64, 79
1, 74656, Control_c, 0, 64, 80
1, 74661, Note_on_c, 0, 41, 61
1, 74676, Note_on_c, 0, 78, 68
1, 74689, Note_off_c, 0, 86, 57
1, 74697, Note_on_c, 0, 40, 63
1, 74727, Note_off_c, 0, 41, 62
1, 74730, Control_c, 0, 64, 80
1, 74731, Note_off_c, 0, 40, 65
1, 74736, Note_off_c, 0, 78, 59
1, 74740, Note_on_c, 0, 83, 61
1, 74745, Control_c, 0, 64, 81
1, 74760, Control_c, 0, 64, 80
1, 74775, Control_c, 0, 64, 76
1, 74789, Control_c, 0, 64, 69
1, 74804, Control_c, 0, 64, 64
1, 74813, Note_off_c, 0, 83, 59
1, 74817, Note_on_c, 0, 28, 83
1, 74819, Control_c, 0, 64, 64
1, 74825, Note_on_c, 0, 76, 80
1, 74833, Control_c, 0, 64, 66
1, 74848, Note_off_c, 0, 76, 67
1, 74848, Control_c, 0, 64, 69
1, 74854, Note_off_c, 0, 28, 63
1, 74863, Control_c, 0, 64, 72
1, 74874, Note_on_c, 0, 29, 49
1, 74878, Control_c, 0, 64, 75
1, 74893, Control_c, 0, 64, 77
1, 74903, Note_on_c, 0, 28, 70
1, 74907, Control_c, 0, 64, 78
1, 74928, Note_off_c, 0, 28, 68
1, 74937, Note_off_c, 0, 29, 56
1, 74951, Control_c, 0, 64, 79
1, 74966, Control_c, 0, 64, 80
1, 74981, Control_c, 0, 64, 79
1, 74996, Control_c, 0, 64, 73
1, 75011, Control_c, 0, 64, 67
1, 75025, Control_c, 0, 64, 62
1, 75040, Control_c, 0, 64, 63
1, 75040, Control_c, 0, 67, 62
1, 75052, Note_on_c, 0, 52, 84
1, 75055, Control_c, 0, 64, 66
1, 75059, Note_on_c, 0, 51, 84
1, 75070, Control_c, 0, 64, 70
1, 75085, Control_c, 0, 64, 76
1, 75099, Control_c, 0, 64, 81
1, 75104, Note_off_c, 0, 52, 63
1, 75113, Note_on_c, 0, 53, 52
1, 75114, Control_c, 0, 64, 85
1, 75118, Note_off_c, 0, 51, 65
1, 75129, Control_c, 0, 64, 85
1, 75138, Note_on_c, 0, 57, 69
1, 75174, Control_c, 0, 64, 86
1, 75177, Note_on_c, 0, 52, 67
1, 75177, Note_off_c, 0, 53, 64
1, 75210, Note_off_c, 0, 52, 66
1, 75211, Control_c, 0, 64, 83
1, 75212, Note_off_c, 0, 57, 63
1, 75213, Note_on_c, 0, 62, 65
1, 75226, Control_c, 0, 64, 76
1, 75240, Note_off_c, 0, 62, 64
1, 75240, Control_c, 0, 64, 68
1, 75255, Control_c, 0, 64, 65
1, 75270, Control_c, 0, 64, 66
1, 75285, Control_c, 0, 64, 70
1, 75293, Note_on_c, 0, 64, 74
1, 75300, Control_c, 0, 64, 75
1, 75305, Note_on_c, 0, 45, 63
1, 75310, Note_on_c, 0, 46, 65
1, 75314, Control_c, 0, 64, 79
1, 75329, Control_c, 0, 64, 83
1, 75343, Note_off_c, 0, 45, 57
1, 75344, Control_c, 0, 64, 84
1, 75344, Control_c, 0, 67, 62
1, 75352, Note_off_c, 0, 64, 52
1, 75355, Note_on_c, 0, 68, 75
1, 75389, Control_c, 0, 64, 84
1, 75404, Control_c, 0, 64, 85
1, 75412, Note_off_c, 0, 46, 60
1, 75413, Note_on_c, 0, 72, 70
1, 75414, Note_on_c, 0, 45, 34
1, 75426, Note_off_c, 0, 68, 63
1, 75434, Control_c, 0, 64, 81
1, 75436, Note_off_c, 0, 72, 69
1, 75445, Note_off_c, 0, 45, 31
1, 75449, Control_c, 0, 64, 74
1, 75449, Control_c, 0, 67, 62
1, 75463, Control_c, 0, 64, 66
1, 75478, Control_c, 0, 64, 63
1, 75493, Control_c, 0, 64, 65
1, 75508, Note_on_c, 0, 37, 75
1, 75508, Control_c, 0, 64, 68
1, 75508, Control_c, 0, 67, 61
1, 75509, Note_on_c, 0, 77, 83
1, 75523, Control_c, 0, 64, 71
1, 75538, Control_c, 0, 64, 74
1, 75553, Note_off_c, 0, 37, 61
1, 75553, Control_c, 0, 64, 76
1, 75568, Control_c, 0, 64, 77
1, 75581, Note_off_c, 0, 77, 63
1, 75582, Control_c, 0, 64, 78
1, 75585, Note_on_c, 0, 74, 85
1, 75595, Note_on_c, 0, 38, 56
1, 75597, Control_c, 0, 64, 80
1, 75612, Note_on_c, 0, 37, 56
1, 75612, Control_c, 0, 64, 83
1, 75627, Control_c, 0, 64, 84
1, 75630, Note_off_c, 0, 38, 63
1, 75639, Note_off_c, 0, 74, 67
1, 75642, Note_off_c, 0, 37, 65
1, 75642, Control_c, 0, 64, 80
1, 75657, Control_c, 0, 64, 73
1, 75659, Note_on_c, 0, 73, 65
1, 75672, Control_c, 0, 64, 67
1, 75672, Control_c, 0, 67, 62
1, 75687, Note_off_c, 0, 73, 66
1, 75702, Control_c, 0, 64, 70
1, 75702, Control_c, 0, 67, 62
1, 75715, Note_on_c, 0, 41, 70
1, 75717, Control_c, 0, 64, 74
1, 75731, Control_c, 0, 64, 80
1, 75731, Control_c, 0, 67, 63
1, 75734, Note_on_c, 0, 85, 79
1, 75746, Control_c, 0, 64, 85
1, 75761, Control_c, 0, 64, 89
1, 75764, Note_off_c, 0, 41, 62
1, 75794, Note_off_c, 0, 85, 64
1, 75795, Note_on_c, 0, 42, 68
1, 75799, Note_on_c, 0, 79, 82
1, 75805, Control_c, 0, 67, 62
1, 75830, Note_on_c, 0, 41, 61
1, 75851, Note_off_c, 0, 79, 60
1, 75856, Note_off_c, 0, 42, 62
1, 75859, Note_off_c, 0, 41, 63
1, 75864, Control_c, 0, 64, 87
1, 75871, Note_on_c, 0, 84, 77
1, 75879, Control_c, 0, 64, 80
1, 75894, Control_c, 0, 64, 71
1, 75909, Control_c, 0, 64, 65
1, 75938, Control_c, 0, 64, 68
1, 75959, Note_on_c, 0, 76, 84
1, 75961, Note_on_c, 0, 28, 81
1, 75961, Control_c, 0, 64, 72
1, 75969, Note_off_c, 0, 84, 60
1, 75976, Control_c, 0, 64, 77
1, 75990, Note_off_c, 0, 28, 65
1, 75990, Control_c, 0, 64, 80
1, 76000, Note_on_c, 0, 29, 66
1, 76005, Control_c, 0, 64, 82
1, 76011, Note_off_c, 0, 76, 63
1, 76043, Note_on_c, 0, 28, 82
1, 76064, Control_c, 0, 64, 83
1, 76064, Control_c, 0, 67, 62
1, 76071, Note_off_c, 0, 28, 63
1, 76071, Note_off_c, 0, 29, 56
1, 76079, Control_c, 0, 64, 84
1, 76094, Control_c, 0, 64, 85
1, 76109, Control_c, 0, 64, 85
1, 76123, Control_c, 0, 64, 79
1, 76138, Control_c, 0, 64, 67
1, 76138, Control_c, 0, 67, 61
1, 76153, Control_c, 0, 64, 55
1, 76153, Control_c, 0, 67, 61
1, 76168, Control_c, 0, 64, 54
1, 76168, Control_c, 0, 67, 60
1, 76184, Note_on_c, 0, 50, 80
1, 76184, Note_on_c, 0, 53, 91
1, 76184, Control_c, 0, 64, 63
1, 76199, Control_c, 0, 64, 67
1, 76199, Control_c, 0, 67, 60
1, 76213, Control_c, 0, 64, 73
1, 76228, Control_c, 0, 64, 79
1, 76243, Control_c, 0, 64, 85
1, 76256, Note_off_c, 0, 53, 63
1, 76258, Control_c, 0, 64, 87
1, 76279, Note_on_c, 0, 58, 73
1, 76291, Note_on_c, 0, 54, 75
1, 76302, Control_c, 0, 64, 87
1, 76316, Note_on_c, 0, 53, 51
1, 76317, Control_c, 0, 64, 87
1, 76330, Note_off_c, 0, 54, 64
1, 76332, Control_c, 0, 64, 81
1, 76338, Note_off_c, 0, 58, 63
1, 76342, Note_off_c, 0, 53, 69
1, 76347, Control_c, 0, 64, 73
1, 76348, Note_on_c, 0, 63, 57
1, 76348, Note_off_c, 0, 50, 65
1, 76361, Control_c, 0, 64, 65
1, 76361, Control_c, 0, 67, 60
1, 76370, Note_off_c, 0, 63, 60
1, 76376, Control_c, 0, 64, 63
1, 76391, Control_c, 0, 64, 65
1, 76391, Control_c, 0, 67, 61
1, 76405, Control_c, 0, 64, 68
1, 76420, Control_c, 0, 64, 72
1, 76427, Note_on_c, 0, 44, 87
1, 76432, Note_on_c, 0, 63, 72
1, 76435, Control_c, 0, 64, 76
1, 76450, Control_c, 0, 64, 79
1, 76465, Control_c, 0, 64, 79
1, 76474, Note_off_c, 0, 63, 52
1, 76476, Note_on_c, 0, 69, 60
1, 76490, Note_off_c, 0, 44, 61
1, 76509, Control_c, 0, 64, 81
1, 76509, Control_c, 0, 67, 61
1, 76513, Note_on_c, 0, 45, 53
1, 76524, Control_c, 0, 64, 84
1, 76532, Note_on_c, 0, 44, 50
1, 76539, Note_on_c, 0, 73, 73
1, 76539, Control_c, 0, 64, 85
1, 76544, Note_off_c, 0, 69, 63
1, 76545, Note_off_c, 0, 45, 64
1, 76554, Control_c, 0, 64, 81
1, 76557, Note_off_c, 0, 44, 66
1, 76568, Note_off_c, 0, 73, 66
1, 76569, Control_c, 0, 64, 73
1, 76584, Control_c, 0, 64, 65
1, 76598, Control_c, 0, 64, 63
1, 76613, Control_c, 0, 64, 65
1, 76628, Control_c, 0, 64, 70
1, 76635, Note_on_c, 0, 76, 90
1, 76640, Note_on_c, 0, 36, 70
1, 76643, Control_c, 0, 64, 74
1, 76658, Control_c, 0, 64, 79
1, 76664, Note_on_c, 0, 37, 38
1, 76672, Control_c, 0, 64, 82
1, 76672, Control_c, 0, 67, 61
1, 76687, Control_c, 0, 64, 85
1, 76705, Note_off_c, 0, 76, 60
1, 76707, Note_on_c, 0, 75, 80
1, 76709, Control_c, 0, 64, 88
1, 76724, Control_c, 0, 64, 89
1, 76730, Note_off_c, 0, 37, 0
1, 76730, Note_on_c, 0, 37, 36
1, 76736, Note_off_c, 0, 36, 61
1, 76739, Control_c, 0, 64, 89
1, 76754, Control_c, 0, 64, 83
1, 76754, Note_on_c, 0, 74, 73
1, 76762, Note_off_c, 0, 75, 63
1, 76767, Note_off_c, 0, 37, 50
1, 76769, Control_c, 0, 64, 74
1, 76769, Control_c, 0, 67, 60
1, 76777, Note_off_c, 0, 74, 71
1, 76784, Control_c, 0, 64, 68
1, 76799, Control_c, 0, 67, 60
1, 76813, Control_c, 0, 64, 72
1, 76828, Control_c, 0, 64, 76
1, 76828, Note_on_c, 0, 42, 79
1, 76843, Control_c, 0, 64, 81
1, 76854, Note_on_c, 0, 84, 68
1, 76858, Control_c, 0, 64, 84
1, 76863, Note_on_c, 0, 83, 65
1, 76873, Control_c, 0, 64, 85
1, 76873, Control_c, 0, 67, 60
1, 76877, Note_off_c, 0, 84, 53
1, 76879, Note_off_c, 0, 83, 66
1, 76892, Note_off_c, 0, 42, 56
1, 76907, Note_on_c, 0, 80, 72
1, 76910, Note_on_c, 0, 43, 75
1, 76917, Control_c, 0, 67, 61
1, 76940, Poly_aftertouch_c, 0, 44, 0
1, 76940, Note_off_c, 0, 80, 63
1, 76945, Note_on_c, 0, 42, 36
1, 76946, Control_c, 0, 67, 61
1, 76958, Note_off_c, 0, 43, 63
1, 76970, Note_off_c, 0, 42, 64
1, 76971, Note_on_c, 0, 85, 78
1, 76977, Control_c, 0, 64, 86
1, 76992, Control_c, 0, 64, 85
1, 76992, Control_c, 0, 67, 62
1, 77007, Control_c, 0, 64, 78
1, 77021, Control_c, 0, 64, 69
1, 77036, Control_c, 0, 64, 65
1, 77049, Note_off_c, 0, 85, 63
1, 77051, Note_on_c, 0, 76, 90
1, 77051, Control_c, 0, 64, 67
1, 77066, Control_c, 0, 64, 71
1, 77068, Note_on_c, 0, 28, 72
1, 77075, Note_on_c, 0, 26, 56
1, 77081, Control_c, 0, 64, 76
1, 77081, Control_c, 0, 67, 61
1, 77082, Note_on_c, 0, 29, 71
1, 77092, Note_off_c, 0, 76, 63
1, 77096, Control_c, 0, 64, 84
1, 77110, Control_c, 0, 64, 90
1, 77125, Control_c, 0, 64, 92
1, 77126, Note_off_c, 0, 26, 51
1, 77140, Control_c, 0, 64, 93
1, 77143, Note_off_c, 0, 28, 61
1, 77145, Note_off_c, 0, 29, 61
1, 77199, Control_c, 0, 64, 93
1, 77214, Control_c, 0, 64, 90
1, 77228, Control_c, 0, 64, 81
1, 77243, Control_c, 0, 64, 71
1, 77258, Control_c, 0, 64, 64
1, 77267, Note_on_c, 0, 49, 97
1, 77272, Note_on_c, 0, 54, 102
1, 77273, Control_c, 0, 64, 65
1, 77288, Control_c, 0, 64, 71
1, 77302, Control_c, 0, 64, 79
1, 77317, Control_c, 0, 64, 89
1, 77332, Control_c, 0, 64, 99
1, 77332, Control_c, 0, 67, 61
1, 77339, Note_on_c, 0, 59, 76
1, 77347, Control_c, 0, 64, 103
1, 77377, Note_off_c, 0, 54, 60
1, 77385, Note_on_c, 0, 55, 53
1, 77392, Control_c, 0, 64, 102
1, 77392, Control_c, 0, 67, 60
1, 77399, Note_off_c, 0, 49, 65
1, 77407, Control_c, 0, 64, 94
1, 77409, Note_off_c, 0, 55, 59
1, 77409, Note_off_c, 0, 59, 59
1, 77410, Note_on_c, 0, 64, 78
1, 77421, Control_c, 0, 64, 82
1, 77421, Control_c, 0, 67, 60
1, 77434, Note_off_c, 0, 64, 68
1, 77436, Control_c, 0, 64, 71
1, 77458, Control_c, 0, 64, 66
1, 77473, Control_c, 0, 64, 68
1, 77488, Control_c, 0, 64, 72
1, 77493, Note_on_c, 0, 43, 78
1, 77500, Note_on_c, 0, 44, 81
1, 77501, Note_on_c, 0, 62, 74
1, 77502, Control_c, 0, 64, 77
1, 77517, Control_c, 0, 64, 82
1, 77517, Control_c, 0, 67, 60
1, 77529, Note_off_c, 0, 43, 62
1, 77532, Control_c, 0, 64, 86
1, 77547, Control_c, 0, 64, 87
1, 77559, Note_on_c, 0, 70, 73
1, 77562, Note_off_c, 0, 62, 59
1, 77592, Control_c, 0, 64, 87
1, 77594, Poly_aftertouch_c, 0, 43, 0
1, 77598, Note_off_c, 0, 44, 41
1, 77621, Control_c, 0, 64, 82
1, 77627, Note_off_c, 0, 70, 64
1, 77630, Note_on_c, 0, 74, 72
1, 77636, Control_c, 0, 64, 74
1, 77651, Control_c, 0, 64, 66
1, 77653, Note_off_c, 0, 74, 71
1, 77666, Control_c, 0, 64, 64
1, 77681, Control_c, 0, 64, 66
1, 77692, Note_on_c, 0, 35, 84
1, 77696, Control_c, 0, 64, 71
1, 77704, Note_on_c, 0, 75, 83
1, 77710, Control_c, 0, 64, 76
1, 77725, Control_c, 0, 64, 81
1, 77740, Control_c, 0, 64, 86
1, 77754, Control_c, 0, 64, 90
1, 77769, Control_c, 0, 64, 92
1, 77773, Note_on_c, 0, 76, 86
1, 77773, Note_off_c, 0, 75, 62
1, 77781, Note_on_c, 0, 36, 62
1, 77782, Note_off_c, 0, 35, 60
1, 77785, Control_c, 0, 64, 93
1, 77800, Control_c, 0, 64, 91
1, 77800, Control_c, 0, 67, 61
1, 77813, Note_off_c, 0, 36, 62
1, 77815, Control_c, 0, 64, 83
1, 77829, Note_off_c, 0, 76, 63
1, 77830, Control_c, 0, 64, 74
1, 77831, Note_on_c, 0, 75, 59
1, 77844, Control_c, 0, 64, 68
1, 77853, Note_off_c, 0, 75, 69
1, 77859, Control_c, 0, 64, 70
1, 77859, Control_c, 0, 67, 60
1, 77874, Control_c, 0, 64, 75
1, 77880, Note_on_c, 0, 43, 81
1, 77889, Control_c, 0, 64, 82
1, 77904, Control_c, 0, 64, 91
1, 77913, Note_on_c, 0, 83, 91
1, 77919, Control_c, 0, 64, 98
1, 77933, Control_c, 0, 64, 103
1, 77934, Note_off_c, 0, 43, 64
1, 77948, Control_c, 0, 64, 103
1, 77959, Note_on_c, 0, 44, 78
1, 77970, Note_off_c, 0, 83, 63
1, 77977, Note_on_c, 0, 81, 74
1, 77991, Note_on_c, 0, 43, 61
1, 78007, Control_c, 0, 64, 103
1, 78010, Note_off_c, 0, 44, 61
1, 78011, Note_off_c, 0, 43, 64
1, 78022, Control_c, 0, 64, 95
1, 78024, Note_off_c, 0, 81, 64
1, 78036, Note_on_c, 0, 86, 86
1, 78037, Control_c, 0, 64, 81
1, 78051, Control_c, 0, 64, 70
1, 78066, Control_c, 0, 64, 66
1, 78081, Control_c, 0, 64, 69
1, 78096, Control_c, 0, 64, 73
1, 78109, Note_on_c, 0, 28, 83
1, 78109, Note_off_c, 0, 86, 65
1, 78111, Control_c, 0, 64, 78
1, 78115, Note_on_c, 0, 76, 84
1, 78118, Note_on_c, 0, 29, 81
1, 78125, Control_c, 0, 64, 83
1, 78140, Control_c, 0, 64, 85
1, 78142, Note_off_c, 0, 28, 64
1, 78155, Control_c, 0, 64, 86
1, 78159, Note_off_c, 0, 76, 64
1, 78176, Note_on_c, 0, 28, 67
1, 78185, Control_c, 0, 64, 86
1, 78207, Control_c, 0, 64, 88
1, 78209, Note_off_c, 0, 29, 62
1, 78211, Note_off_c, 0, 28, 66
1, 78222, Control_c, 0, 64, 91
1, 78222, Control_c, 0, 67, 60
1, 78237, Control_c, 0, 64, 97
1, 78251, Control_c, 0, 67, 59
1, 78266, Control_c, 0, 64, 88
1, 78266, Control_c, 0, 67, 59
1, 78281, Control_c, 0, 64, 76
1, 78281, Control_c, 0, 67, 58
1, 78296, Control_c, 0, 64, 64
1, 78296, Control_c, 0, 67, 58
1, 78311, Control_c, 0, 64, 62
1, 78311, Control_c, 0, 67, 57
1, 78316, Note_on_c, 0, 48, 99
1, 78317, Note_on_c, 0, 55, 93
1, 78325, Control_c, 0, 64, 68
1, 78325, Control_c, 0, 67, 56
1, 78340, Control_c, 0, 64, 75
1, 78340, Control_c, 0, 67, 55
1, 78355, Control_c, 0, 64, 86
1, 78355, Control_c, 0, 67, 55
1, 78370, Control_c, 0, 64, 97
1, 78370, Control_c, 0, 67, 54
1, 78384, Control_c, 0, 64, 103
1, 78393, Note_on_c, 0, 60, 74
1, 78399, Control_c, 0, 64, 104
1, 78415, Note_off_c, 0, 55, 0
1, 78424, Note_on_c, 0, 56, 85
1, 78432, Poly_aftertouch_c, 0, 55, 0
1, 78444, Control_c, 0, 64, 103
1, 78446, Note_off_c, 0, 56, 72
1, 78452, Note_off_c, 0, 60, 64
1, 78453, Note_on_c, 0, 65, 75
1, 78459, Control_c, 0, 64, 98
1, 78459, Control_c, 0, 67, 55
1, 78465, Note_off_c, 0, 48, 65
1, 78474, Control_c, 0, 64, 86
1, 78474, Control_c, 0, 67, 56
1, 78477, Note_off_c, 0, 65, 70
1, 78489, Control_c, 0, 64, 72
1, 78489, Control_c, 0, 67, 57
1, 78503, Control_c, 0, 64, 63
1, 78503, Control_c, 0, 67, 57
1, 78518, Control_c, 0, 64, 64
1, 78518, Control_c, 0, 67, 58
1, 78533, Control_c, 0, 64, 67
1, 78548, Control_c, 0, 64, 73
1, 78550, Note_on_c, 0, 42, 83
1, 78551, Note_on_c, 0, 61, 76
1, 78552, Note_on_c, 0, 63, 57
1, 78563, Control_c, 0, 64, 79
1, 78578, Control_c, 0, 64, 85
1, 78580, Note_off_c, 0, 61, 66
1, 78581, Note_on_c, 0, 43, 52
1, 78584, Note_off_c, 0, 63, 64
1, 78588, Note_on_c, 0, 44, 38
1, 78593, Note_off_c, 0, 42, 57
1, 78593, Control_c, 0, 64, 90
1, 78608, Control_c, 0, 64, 95
1, 78608, Note_on_c, 0, 72, 51
1, 78609, Note_off_c, 0, 43, 0
1, 78611, Note_on_c, 0, 45, 67
1, 78623, Note_off_c, 0, 44, 57
1, 78623, Control_c, 0, 64, 95
1, 78638, Control_c, 0, 64, 93
1, 78641, Note_on_c, 0, 43, 25
1, 78644, Note_off_c, 0, 45, 58
1, 78653, Control_c, 0, 64, 85
1, 78661, Note_on_c, 0, 42, 54
1, 78664, Note_on_c, 0, 75, 71
1, 78667, Control_c, 0, 64, 74
1, 78667, Control_c, 0, 67, 57
1, 78675, Note_off_c, 0, 72, 64
1, 78677, Note_off_c, 0, 42, 67
1, 78682, Control_c, 0, 64, 66
1, 78685, Note_off_c, 0, 75, 61
1, 78690, Note_off_c, 0, 43, 39
1, 78697, Control_c, 0, 64, 65
1, 78702, Poly_aftertouch_c, 0, 71, 0
1, 78712, Control_c, 0, 64, 70
1, 78727, Control_c, 0, 64, 77
1, 78742, Control_c, 0, 64, 85
1, 78747, Note_on_c, 0, 34, 83
1, 78754, Note_on_c, 0, 74, 78
1, 78756, Control_c, 0, 64, 92
1, 78771, Control_c, 0, 64, 95
1, 78778, Note_on_c, 0, 77, 75
1, 78794, Note_off_c, 0, 74, 55
1, 78796, Note_on_c, 0, 36, 28
1, 78798, Poly_aftertouch_c, 0, 42, 127
1, 78818, Note_off_c, 0, 34, 61
1, 78827, Poly_aftertouch_c, 0, 42, 0
1, 78830, Control_c, 0, 64, 94
1, 78832, Note_on_c, 0, 76, 76
1, 78845, Control_c, 0, 64, 86
1, 78847, Note_off_c, 0, 36, 47
1, 78847, Note_off_c, 0, 77, 60
1, 78860, Control_c, 0, 64, 76
1, 78869, Note_off_c, 0, 76, 64
1, 78874, Control_c, 0, 64, 68
1, 78904, Control_c, 0, 64, 73
1, 78909, Note_on_c, 0, 44, 90
1, 78919, Control_c, 0, 64, 80
1, 78934, Control_c, 0, 64, 90
1, 78939, Note_on_c, 0, 82, 91
1, 78956, Control_c, 0, 64, 99
1, 78971, Control_c, 0, 64, 106
1, 78973, Note_off_c, 0, 44, 63
1, 78982, Note_off_c, 0, 82, 58
1, 78986, Control_c, 0, 64, 106
1, 79000, Control_c, 0, 64, 106
1, 79015, Control_c, 0, 64, 105
1, 79016, Note_on_c, 0, 82, 70
1, 79026, Note_on_c, 0, 43, 63
1, 79030, Control_c, 0, 64, 95
1, 79045, Control_c, 0, 64, 83
1, 79045, Control_c, 0, 67, 57
1, 79053, Note_on_c, 0, 45, 16
1, 79058, Note_off_c, 0, 43, 62
1, 79060, Control_c, 0, 64, 74
1, 79074, Control_c, 0, 64, 73
1, 79074, Control_c, 0, 67, 56
1, 79077, Note_on_c, 0, 87, 82
1, 79089, Control_c, 0, 64, 76
1, 79090, Note_off_c, 0, 45, 46
1, 79099, Note_off_c, 0, 82, 63
1, 79104, Control_c, 0, 64, 80
1, 79119, Control_c, 0, 64, 84
1, 79133, Control_c, 0, 64, 86
1, 79142, Note_on_c, 0, 76, 90
1, 79148, Control_c, 0, 64, 87
1, 79155, Note_on_c, 0, 28, 98
1, 79159, Note_off_c, 0, 87, 65
1, 79163, Control_c, 0, 64, 87
1, 79171, Note_on_c, 0, 29, 72
1, 79191, Note_off_c, 0, 76, 64
1, 79193, Control_c, 0, 64, 88
1, 79195, Note_on_c, 0, 31, 47
1, 79202, Note_off_c, 0, 28, 65
1, 79204, Note_off_c, 0, 29, 63
1, 79222, Control_c, 0, 64, 89
1, 79229, Note_off_c, 0, 31, 53
1, 79237, Control_c, 0, 64, 90
1, 79252, Control_c, 0, 64, 91
1, 79267, Control_c, 0, 64, 93
1, 79282, Control_c, 0, 64, 95
1, 79297, Control_c, 0, 64, 94
1, 79297, Control_c, 0, 67, 56
1, 79311, Control_c, 0, 64, 86
1, 79311, Control_c, 0, 67, 55
1, 79326, Control_c, 0, 64, 75
1, 79326, Control_c, 0, 67, 54
1, 79341, Control_c, 0, 64, 65
1, 79343, Note_on_c, 0, 47, 100
1, 79353, Note_on_c, 0, 56, 98
1, 79356, Control_c, 0, 64, 65
1, 79356, Control_c, 0, 67, 53
1, 79371, Control_c, 0, 64, 71
1, 79371, Control_c, 0, 67, 53
1, 79386, Control_c, 0, 64, 81
1, 79401, Control_c, 0, 64, 96
1, 79407, Note_on_c, 0, 61, 81
1, 79416, Control_c, 0, 64, 120
1, 79431, Control_c, 0, 64, 127
1, 79436, Note_off_c, 0, 56, 62
1, 79453, Note_off_c, 0, 47, 62
1, 79465, Note_on_c, 0, 55, 55
1, 79481, Note_on_c, 0, 66, 76
1, 79487, Note_off_c, 0, 61, 62
1, 79489, Note_off_c, 0, 55, 59
1, 79505, Control_c, 0, 64, 109
1, 79510, Note_off_c, 0, 66, 64
1, 79520, Control_c, 0, 64, 90
1, 79535, Control_c, 0, 64, 76
1, 79549, Control_c, 0, 64, 71
1, 79549, Control_c, 0, 67, 53
1, 79553, Note_on_c, 0, 45, 86
1, 79556, Note_on_c, 0, 62, 71
1, 79559, Note_on_c, 0, 46, 86
1, 79564, Control_c, 0, 64, 74
1, 79579, Control_c, 0, 64, 80
1, 79594, Note_off_c, 0, 45, 57
1, 79594, Control_c, 0, 64, 88
1, 79609, Control_c, 0, 64, 99
1, 79619, Note_off_c, 0, 62, 61
1, 79623, Control_c, 0, 64, 112
1, 79628, Note_on_c, 0, 71, 61
1, 79630, Note_on_c, 0, 69, 67
1, 79638, Note_on_c, 0, 45, 53
1, 79638, Control_c, 0, 64, 119
1, 79653, Control_c, 0, 64, 117
1, 79660, Note_off_c, 0, 69, 64
1, 79661, Note_off_c, 0, 46, 54
1, 79662, Note_on_c, 0, 72, 68
1, 79663, Note_off_c, 0, 71, 66
1, 79664, Note_off_c, 0, 45, 67
1, 79668, Control_c, 0, 64, 99
1, 79668, Control_c, 0, 67, 54
1, 79683, Control_c, 0, 64, 82
1, 79684, Note_off_c, 0, 72, 65
1, 79705, Control_c, 0, 64, 68
1, 79720, Control_c, 0, 64, 64
1, 79735, Control_c, 0, 64, 68
1, 79744, Note_on_c, 0, 73, 90
1, 79749, Control_c, 0, 64, 75
1, 79750, Note_on_c, 0, 34, 94
1, 79764, Control_c, 0, 64, 85
1, 79779, Control_c, 0, 64, 98
1, 79787, Note_on_c, 0, 78, 83
1, 79791, Note_off_c, 0, 73, 63
1, 79794, Control_c, 0, 64, 115
1, 79794, Control_c, 0, 67, 54
1, 79806, Note_off_c, 0, 34, 61
1, 79809, Control_c, 0, 64, 127
1, 79809, Control_c, 0, 67, 53
1, 79823, Control_c, 0, 67, 52
1, 79832, Note_on_c, 0, 77, 83
1, 79838, Control_c, 0, 67, 51
1, 79853, Control_c, 0, 64, 100
1, 79853, Control_c, 0, 67, 49
1, 79865, Note_off_c, 0, 77, 62
1, 79868, Control_c, 0, 64, 93
1, 79868, Control_c, 0, 67, 47
1, 79872, Note_off_c, 0, 78, 62
1, 79883, Control_c, 0, 64, 93
1, 79883, Control_c, 0, 67, 44
1, 79897, Control_c, 0, 64, 101
1, 79897, Control_c, 0, 67, 41
1, 79908, Note_on_c, 0, 46, 97
1, 79912, Control_c, 0, 64, 117
1, 79912, Control_c, 0, 67, 40
1, 79915, Note_on_c, 0, 81, 93
1, 79927, Control_c, 0, 64, 127
1, 79927, Control_c, 0, 67, 39
1, 79942, Control_c, 0, 67, 37
1, 79956, Control_c, 0, 67, 36
1, 79959, Note_off_c, 0, 46, 64
1, 79971, Control_c, 0, 67, 34
1, 79977, Note_on_c, 0, 83, 93
1, 79981, Note_off_c, 0, 81, 65
1, 79986, Control_c, 0, 67, 34
1, 79990, Note_on_c, 0, 45, 63
1, 80001, Control_c, 0, 67, 33
1, 80016, Control_c, 0, 67, 31
1, 80027, Note_off_c, 0, 45, 66
1, 80030, Control_c, 0, 67, 29
1, 80036, Poly_aftertouch_c, 0, 44, 0
1, 80045, Control_c, 0, 67, 26
1, 80048, Note_on_c, 0, 88, 80
1, 80051, Note_off_c, 0, 83, 66
1, 80060, Control_c, 0, 64, 116
1, 80060, Control_c, 0, 67, 16
1, 80067, Note_on_c, 0, 86, 63
1, 80075, Control_c, 0, 64, 86
1, 80075, Control_c, 0, 67, 0
1, 80090, Control_c, 0, 64, 69
1, 80091, Note_off_c, 0, 86, 54
1, 80101, Note_on_c, 0, 28, 104
1, 80101, Note_on_c, 0, 76, 94
1, 80102, Note_off_c, 0, 88, 65
1, 80104, Control_c, 0, 64, 66
1, 80119, Control_c, 0, 64, 73
1, 80134, Control_c, 0, 64, 91
1, 80149, Control_c, 0, 64, 127
1, 80152, Note_off_c, 0, 28, 63
1, 80157, Note_off_c, 0, 76, 64
1, 80182, Note_on_c, 0, 29, 42
1, 80233, Note_off_c, 0, 29, 48
1, 80268, Control_c, 0, 64, 111
1, 80283, Control_c, 0, 64, 87
1, 80298, Note_on_c, 0, 46, 95
1, 80298, Control_c, 0, 64, 79
1, 80301, Note_on_c, 0, 57, 99
1, 80307, Note_on_c, 0, 56, 58
1, 80313, Control_c, 0, 64, 84
1, 80328, Control_c, 0, 64, 112
1, 80338, Note_on_c, 0, 62, 87
1, 80343, Control_c, 0, 64, 127
1, 80404, Note_off_c, 0, 57, 0
1, 80404, Note_off_c, 0, 46, 64
1, 80405, Note_on_c, 0, 55, 53
1, 80422, Note_on_c, 0, 67, 86
1, 80425, Note_off_c, 0, 62, 60
1, 80431, Note_off_c, 0, 55, 60
1, 80448, Poly_aftertouch_c, 0, 57, 127
1, 80457, Note_off_c, 0, 56, 42
1, 80476, Note_off_c, 0, 67, 63
1, 80491, Poly_aftertouch_c, 0, 57, 0
1, 80501, Note_on_c, 0, 59, 87
1, 80506, Note_on_c, 0, 41, 90
1, 80506, Note_on_c, 0, 43, 95
1, 80546, Note_off_c, 0, 43, 64
1, 80551, Note_off_c, 0, 41, 62
1, 80552, Note_on_c, 0, 68, 82
1, 80561, Note_on_c, 0, 45, 56
1, 80570, Note_off_c, 0, 59, 56
1, 80608, Note_on_c, 0, 41, 75
1, 80611, Note_on_c, 0, 72, 72
1, 80611, Note_off_c, 0, 68, 65
1, 80618, Note_off_c, 0, 45, 64
1, 80621, Poly_aftertouch_c, 0, 43, 127
1, 80632, Note_off_c, 0, 72, 70
1, 80633, Note_off_c, 0, 41, 64
1, 80636, Poly_aftertouch_c, 0, 43, 0
1, 80646, Control_c, 0, 64, 101
1, 80659, Poly_aftertouch_c, 0, 69, 127
1, 80661, Control_c, 0, 64, 85
1, 80663, Poly_aftertouch_c, 0, 43, 0
1, 80675, Note_on_c, 0, 71, 88
1, 80676, Control_c, 0, 64, 83
1, 80689, Poly_aftertouch_c, 0, 69, 0
1, 80691, Control_c, 0, 64, 92
1, 80694, Note_on_c, 0, 34, 92
1, 80701, Note_on_c, 0, 33, 88
1, 80705, Control_c, 0, 64, 127
1, 80727, Note_on_c, 0, 77, 91
1, 80734, Note_off_c, 0, 33, 60
1, 80747, Note_on_c, 0, 35, 39
1, 80747, Note_off_c, 0, 34, 60
1, 80757, Note_off_c, 0, 71, 65
1, 80781, Note_off_c, 0, 35, 63
1, 80804, Note_on_c, 0, 76, 57
1, 80817, Note_off_c, 0, 77, 66
1, 80829, Note_off_c, 0, 76, 43
1, 80859, Note_on_c, 0, 80, 102
1, 80859, Note_on_c, 0, 46, 77
1, 80870, Note_on_c, 0, 44, 70
1, 80870, Note_on_c, 0, 45, 82
1, 80912, Note_off_c, 0, 45, 65
1, 80915, Note_off_c, 0, 46, 62
1, 80916, Note_off_c, 0, 44, 62
1, 80918, Note_on_c, 0, 47, 94
1, 80923, Note_on_c, 0, 83, 91
1, 80944, Note_off_c, 0, 80, 60
1, 80953, Note_off_c, 0, 47, 66
1, 80986, Note_on_c, 0, 89, 96
1, 80994, Poly_aftertouch_c, 0, 79, 127
1, 81016, Note_off_c, 0, 83, 67
1, 81027, Poly_aftertouch_c, 0, 79, 0
1, 81034, Note_on_c, 0, 88, 32
1, 81070, Note_off_c, 0, 88, 32
1, 81076, Control_c, 0, 64, 85
1, 81086, Poly_aftertouch_c, 0, 87, 0
1, 81091, Note_on_c, 0, 28, 105
1, 81091, Control_c, 0, 64, 0
1, 81095, Note_on_c, 0, 76, 105
1, 81112, Note_on_c, 0, 88, 57
1, 81122, Note_on_c, 0, 26, 41
1, 81136, Control_c, 0, 64, 60
1, 81146, Note_on_c, 0, 82, 33
1, 81151, Control_c, 0, 64, 86
1, 81166, Control_c, 0, 64, 127
1, 81168, Note_off_c, 0, 26, 52
1, 81218, Note_off_c, 0, 28, 66
1, 81244, Note_on_c, 0, 29, 90
1, 81292, Note_off_c, 0, 29, 63
1, 81301, Note_off_c, 0, 82, 29
1, 81315, Note_on_c, 0, 28, 85
1, 81327, Note_on_c, 0, 29, 62
1, 81357, Note_off_c, 0, 28, 61
1, 81357, Note_off_c, 0, 29, 0
1, 81381, Note_on_c, 0, 29, 56
1, 81418, Note_on_c, 0, 28, 83
1, 81422, Note_off_c, 0, 29, 64
1, 81461, Note_off_c, 0, 28, 64
1, 81490, Note_on_c, 0, 29, 81
1, 81529, Note_on_c, 0, 28, 104
1, 81533, Note_off_c, 0, 29, 64
1, 81546, Note_off_c, 0, 76, 57
1, 81569, Note_off_c, 0, 28, 64
1, 81572, Note_off_c, 0, 89, 63
1, 81574, Note_off_c, 0, 88, 2
1, 82005, Note_on_c, 0, 76, 104
1, 82010, Note_on_c, 0, 102, 67
1, 82012, Note_on_c, 0, 104, 65
1, 82016, Note_on_c, 0, 99, 63
1, 82018, Note_on_c, 0, 97, 62
1, 82114, Note_off_c, 0, 104, 59
1, 82117, Note_off_c, 0, 102, 57
1, 82142, Note_off_c, 0, 99, 63
1, 82146, Note_off_c, 0, 97, 63
1, 82157, Note_on_c, 0, 91, 69
1, 82181, Note_off_c, 0, 76, 60
1, 82217, Note_off_c, 0, 91, 62
1, 82264, Note_on_c, 0, 76, 85
1, 82280, Note_on_c, 0, 88, 51
1, 82282, Note_on_c, 0, 86, 44
1, 82284, Note_on_c, 0, 89, 57
1, 82304, Note_off_c, 0, 89, 62
1, 82306, Note_off_c, 0, 86, 57
1, 82307, Note_off_c, 0, 88, 64
1, 82308, Note_off_c, 0, 76, 64
1, 82349, Note_on_c, 0, 91, 75
1, 82406, Note_off_c, 0, 91, 61
1, 82421, Note_on_c, 0, 76, 108
1, 82431, Note_on_c, 0, 102, 69
1, 82432, Note_on_c, 0, 97, 70
1, 82433, Note_on_c, 0, 99, 68
1, 82441, Note_on_c, 0, 94, 61
1, 82473, Note_off_c, 0, 94, 62
1, 82480, Note_off_c, 0, 102, 62
1, 82487, Note_off_c, 0, 99, 53
1, 82488, Note_off_c, 0, 97, 61
1, 82521, Note_off_c, 0, 76, 56
1, 82523, Note_on_c, 0, 89, 69
1, 82540, Note_on_c, 0, 91, 27
1, 82549, Note_off_c, 0, 89, 66
1, 82578, Note_off_c, 0, 91, 44
1, 82593, Note_on_c, 0, 86, 70
1, 82594, Note_on_c, 0, 88, 77
1, 82606, Note_on_c, 0, 76, 80
1, 82620, Note_off_c, 0, 86, 68
1, 82623, Note_off_c, 0, 88, 62
1, 82629, Note_off_c, 0, 76, 68
1, 82661, Note_on_c, 0, 89, 83
1, 82701, Note_off_c, 0, 89, 61
1, 82718, Note_on_c, 0, 76, 106
1, 82725, Note_on_c, 0, 97, 85
1, 82727, Note_on_c, 0, 92, 90
1, 82727, Note_on_c, 0, 99, 89
1, 82748, Note_on_c, 0, 95, 55
1, 82768, Note_off_c, 0, 95, 63
1, 82780, Note_off_c, 0, 99, 63
1, 82787, Note_off_c, 0, 92, 64
1, 82787, Note_off_c, 0, 97, 64
1, 82790, Note_off_c, 0, 76, 61
1, 82807, Note_on_c, 0, 89, 74
1, 82808, Note_on_c, 0, 88, 75
1, 82832, Note_off_c, 0, 88, 69
1, 82838, Note_off_c, 0, 89, 63
1, 82868, Note_on_c, 0, 86, 89
1, 82871, Note_on_c, 0, 76, 93
1, 82886, Note_on_c, 0, 88, 74
1, 82902, Note_off_c, 0, 88, 66
1, 82907, Note_off_c, 0, 86, 67
1, 82915, Note_off_c, 0, 76, 65
1, 82946, Note_on_c, 0, 88, 78
1, 82965, Note_off_c, 0, 88, 71
1, 82983, Note_on_c, 0, 76, 105
1, 82985, Note_on_c, 0, 90, 89
1, 82985, Note_on_c, 0, 92, 88
1, 82987, Note_on_c, 0, 97, 84
1, 82990, Note_on_c, 0, 94, 69
1, 83020, Note_off_c, 0, 94, 51
1, 83033, Note_off_c, 0, 97, 64
1, 83038, Note_off_c, 0, 76, 64
1, 83038, Note_off_c, 0, 92, 65
1, 83038, Note_off_c, 0, 90, 65
1, 83053, Note_on_c, 0, 86, 85
1, 83093, Note_off_c, 0, 86, 63
1, 83116, Note_on_c, 0, 84, 84
1, 83120, Note_on_c, 0, 83, 78
1, 83124, Note_on_c, 0, 76, 93
1, 83139, Note_off_c, 0, 83, 73
1, 83154, Note_off_c, 0, 84, 65
1, 83162, Note_off_c, 0, 76, 65
1, 83184, Note_on_c, 0, 86, 85
1, 83219, Note_off_c, 0, 86, 64
1, 83238, Note_on_c, 0, 92, 84
1, 83238, Note_on_c, 0, 94, 83
1, 83240, Note_on_c, 0, 76, 99
1, 83240, Note_on_c, 0, 87, 91
1, 83261, Note_on_c, 0, 90, 41
1, 83262, Note_off_c, 0, 90, 127
1, 83272, Note_off_c, 0, 94, 61
1, 83283, Note_off_c, 0, 76, 67
1, 83284, Note_off_c, 0, 92, 64
1, 83285, Note_off_c, 0, 87, 66
1, 83302, Note_on_c, 0, 84, 77
1, 83326, Note_off_c, 0, 84, 69
1, 83351, Note_on_c, 0, 81, 101
1, 83354, Poly_aftertouch_c, 0, 89, 0
1, 83368, Note_on_c, 0, 76, 97
1, 83371, Note_on_c, 0, 83, 77
1, 83390, Note_off_c, 0, 83, 72
1, 83392, Note_off_c, 0, 81, 68
1, 83413, Note_off_c, 0, 76, 66
1, 83433, Note_on_c, 0, 84, 75
1, 83467, Note_off_c, 0, 84, 66
1, 83487, Note_on_c, 0, 85, 90
1, 83494, Note_on_c, 0, 90, 74
1, 83500, Note_on_c, 0, 88, 76
1, 83506, Note_on_c, 0, 76, 98
1, 83515, Note_on_c, 0, 92, 52
1, 83522, Note_off_c, 0, 88, 66
1, 83526, Note_off_c, 0, 90, 62
1, 83538, Note_off_c, 0, 92, 58
1, 83538, Note_off_c, 0, 85, 60
1, 83551, Note_off_c, 0, 76, 65
1, 83559, Note_on_c, 0, 83, 80
1, 83582, Note_off_c, 0, 83, 67
1, 83583, Note_on_c, 0, 84, 44
1, 83610, Note_off_c, 0, 84, 58
1, 83618, Note_on_c, 0, 81, 95
1, 83634, Note_on_c, 0, 76, 88
1, 83647, Note_on_c, 0, 79, 50
1, 83667, Note_off_c, 0, 76, 62
1, 83687, Note_off_c, 0, 79, 31
1, 83702, Control_c, 0, 67, 10
1, 83716, Control_c, 0, 67, 14
1, 83720, Note_off_c, 0, 81, 65
1, 83731, Control_c, 0, 67, 18
1, 83746, Control_c, 0, 67, 23
1, 83761, Control_c, 0, 67, 28
1, 83776, Control_c, 0, 67, 33
1, 83790, Control_c, 0, 67, 38
1, 83805, Control_c, 0, 67, 42
1, 83820, Control_c, 0, 67, 48
1, 83835, Control_c, 0, 67, 54
1, 83850, Control_c, 0, 64, 103
1, 83850, Control_c, 0, 67, 60
1, 83864, Control_c, 0, 64, 77
1, 83864, Control_c, 0, 67, 66
1, 83879, Control_c, 0, 64, 48
1, 83879, Control_c, 0, 67, 71
1, 83894, Control_c, 0, 64, 0
1, 83894, Control_c, 0, 67, 74
1, 83905, Note_on_c, 0, 87, 85
1, 83909, Control_c, 0, 67, 79
1, 83910, Note_on_c, 0, 60, 63
1, 83911, Note_on_c, 0, 59, 66
1, 83914, Note_on_c, 0, 79, 74
1, 83923, Note_on_c, 0, 82, 84
1, 83923, Control_c, 0, 67, 84
1, 83938, Control_c, 0, 64, 27
1, 83938, Control_c, 0, 67, 89
1, 83944, Note_on_c, 0, 68, 63
1, 83949, Note_off_c, 0, 59, 63
1, 83953, Control_c, 0, 64, 64
1, 83953, Control_c, 0, 67, 94
1, 83959, Note_off_c, 0, 87, 66
1, 83963, Note_on_c, 0, 74, 88
1, 83968, Note_on_c, 0, 71, 85
1, 83968, Control_c, 0, 64, 75
1, 83968, Control_c, 0, 67, 98
1, 83974, Note_on_c, 0, 76, 72
1, 83974, Note_off_c, 0, 79, 64
1, 83974, Note_off_c, 0, 82, 66
1, 83975, Note_off_c, 0, 68, 66
1, 83983, Note_off_c, 0, 60, 64
1, 83983, Control_c, 0, 64, 92
1, 83983, Control_c, 0, 67, 101
1, 83991, Note_off_c, 0, 76, 64
1, 83997, Control_c, 0, 64, 127
1, 83997, Control_c, 0, 67, 102
1, 83999, Note_off_c, 0, 74, 67
1, 84009, Poly_aftertouch_c, 0, 62, 0
1, 84015, Note_off_c, 0, 71, 62
1, 84045, Poly_aftertouch_c, 0, 65, 0
1, 84102, Control_c, 0, 67, 101
1, 84116, Control_c, 0, 67, 101
1, 84146, Control_c, 0, 67, 100
1, 84161, Control_c, 0, 67, 99
1, 84162, Poly_aftertouch_c, 0, 82, 127
1, 84176, Note_on_c, 0, 59, 46
1, 84176, Control_c, 0, 67, 98
1, 84199, Control_c, 0, 67, 97
1, 84227, Note_on_c, 0, 89, 80
1, 84227, Note_off_c, 0, 59, 59
1, 84228, Control_c, 0, 64, 99
1, 84232, Note_on_c, 0, 84, 84
1, 84239, Note_on_c, 0, 81, 86
1, 84243, Note_on_c, 0, 68, 83
1, 84243, Control_c, 0, 64, 77
1, 84252, Poly_aftertouch_c, 0, 82, 0
1, 84253, Note_on_c, 0, 87, 65
1, 84258, Control_c, 0, 64, 61
1, 84271, Note_off_c, 0, 87, 66
1, 84273, Note_off_c, 0, 89, 63
1, 84273, Control_c, 0, 64, 46
1, 84273, Control_c, 0, 67, 97
1, 84276, Note_on_c, 0, 76, 77
1, 84281, Note_on_c, 0, 74, 90
1, 84287, Control_c, 0, 64, 62
1, 84287, Control_c, 0, 67, 96
1, 84289, Note_on_c, 0, 73, 98
1, 84290, Poly_aftertouch_c, 0, 60, 0
1, 84293, Note_on_c, 0, 70, 48
1, 84294, Note_off_c, 0, 84, 66
1, 84299, Note_off_c, 0, 81, 63
1, 84302, Control_c, 0, 64, 71
1, 84313, Note_off_c, 0, 68, 62
1, 84317, Control_c, 0, 64, 85
1, 84319, Note_off_c, 0, 70, 58
1, 84321, Note_off_c, 0, 74, 68
1, 84331, Note_off_c, 0, 76, 60
1, 84332, Control_c, 0, 64, 105
1, 84332, Control_c, 0, 67, 96
1, 84346, Control_c, 0, 64, 127
1, 84346, Control_c, 0, 67, 95
1, 84355, Note_off_c, 0, 73, 60
1, 84361, Control_c, 0, 67, 95
1, 84369, Poly_aftertouch_c, 0, 71, 127
1, 84376, Control_c, 0, 67, 94
1, 84391, Control_c, 0, 67, 93
1, 84399, Poly_aftertouch_c, 0, 71, 0
1, 84406, Control_c, 0, 67, 92
1, 84421, Control_c, 0, 67, 91
1, 84436, Control_c, 0, 67, 90
1, 84451, Control_c, 0, 67, 89
1, 84465, Control_c, 0, 67, 86
1, 84480, Control_c, 0, 67, 84
1, 84495, Control_c, 0, 67, 81
1, 84510, Control_c, 0, 67, 79
1, 84525, Control_c, 0, 64, 97
1, 84525, Control_c, 0, 67, 77
1, 84540, Control_c, 0, 64, 74
1, 84540, Control_c, 0, 67, 76
1, 84540, Note_on_c, 0, 87, 85
1, 84543, Note_on_c, 0, 60, 73
1, 84551, Note_on_c, 0, 79, 83
1, 84555, Control_c, 0, 64, 0
1, 84555, Control_c, 0, 67, 73
1, 84558, Note_on_c, 0, 82, 91
1, 84560, Note_on_c, 0, 64, 61
1, 84567, Note_on_c, 0, 68, 72
1, 84568, Note_on_c, 0, 66, 74
1, 84570, Control_c, 0, 67, 69
1, 84585, Control_c, 0, 67, 64
1, 84588, Note_on_c, 0, 71, 96
1, 84592, Note_off_c, 0, 64, 66
1, 84597, Note_on_c, 0, 74, 96
1, 84600, Control_c, 0, 64, 50
1, 84600, Control_c, 0, 67, 56
1, 84600, Note_on_c, 0, 76, 80
1, 84611, Note_off_c, 0, 87, 67
1, 84615, Control_c, 0, 64, 68
1, 84615, Control_c, 0, 67, 42
1, 84615, Note_off_c, 0, 68, 63
1, 84617, Note_off_c, 0, 82, 69
1, 84620, Note_off_c, 0, 66, 66
1, 84621, Note_off_c, 0, 79, 66
1, 84624, Note_off_c, 0, 60, 64
1, 84629, Control_c, 0, 64, 82
1, 84629, Control_c, 0, 67, 26
1, 84644, Control_c, 0, 64, 109
1, 84644, Control_c, 0, 67, 12
1, 84647, Note_off_c, 0, 71, 64
1, 84659, Note_off_c, 0, 74, 63
1, 84659, Control_c, 0, 64, 127
1, 84659, Control_c, 0, 67, 0
1, 84660, Note_off_c, 0, 76, 57
1, 84807, Note_on_c, 0, 59, 62
1, 84838, Note_on_c, 0, 89, 89
1, 84843, Note_off_c, 0, 59, 60
1, 84851, Control_c, 0, 64, 108
1, 84854, Note_on_c, 0, 81, 83
1, 84858, Note_on_c, 0, 84, 88
1, 84860, Note_on_c, 0, 68, 84
1, 84865, Control_c, 0, 64, 80
1, 84867, Note_on_c, 0, 87, 72
1, 84880, Control_c, 0, 64, 63
1, 84881, Note_on_c, 0, 76, 99
1, 84881, Note_on_c, 0, 85, 37
1, 84882, Note_off_c, 0, 85, 127
1, 84885, Note_on_c, 0, 74, 101
1, 84886, Note_off_c, 0, 87, 69
1, 84891, Note_off_c, 0, 89, 63
1, 84895, Control_c, 0, 64, 64
1, 84901, Note_on_c, 0, 73, 105
1, 84910, Control_c, 0, 64, 70
1, 84911, Note_on_c, 0, 71, 55
1, 84913, Note_off_c, 0, 68, 66
1, 84916, Poly_aftertouch_c, 0, 60, 0
1, 84917, Note_off_c, 0, 81, 66
1, 84919, Note_off_c, 0, 84, 65
1, 84925, Control_c, 0, 64, 82
1, 84926, Note_on_c, 0, 72, 62
1, 84933, Note_off_c, 0, 71, 37
1, 84947, Control_c, 0, 64, 100
1, 84951, Note_off_c, 0, 74, 70
1, 84951, Note_off_c, 0, 76, 61
1, 84951, Note_off_c, 0, 72, 65
1, 84962, Control_c, 0, 64, 127
1, 84963, Note_off_c, 0, 73, 60
1, 85156, Control_c, 0, 64, 101
1, 85157, Note_on_c, 0, 87, 90
1, 85162, Note_on_c, 0, 82, 91
1, 85163, Note_on_c, 0, 79, 77
1, 85165, Note_on_c, 0, 60, 81
1, 85170, Control_c, 0, 64, 74
1, 85172, Note_on_c, 0, 71, 91
1, 85174, Note_on_c, 0, 66, 78
1, 85175, Note_on_c, 0, 68, 78
1, 85185, Control_c, 0, 64, 63
1, 85196, Note_on_c, 0, 76, 90
1, 85196, Note_on_c, 0, 74, 97
1, 85200, Control_c, 0, 64, 64
1, 85211, Note_off_c, 0, 68, 59
1, 85215, Control_c, 0, 64, 71
1, 85219, Note_off_c, 0, 82, 67
1, 85224, Note_off_c, 0, 60, 64
1, 85225, Note_off_c, 0, 66, 63
1, 85226, Note_off_c, 0, 87, 66
1, 85230, Control_c, 0, 64, 85
1, 85235, Note_off_c, 0, 71, 64
1, 85236, Note_off_c, 0, 79, 62
1, 85244, Control_c, 0, 64, 111
1, 85259, Control_c, 0, 64, 127
1, 85266, Note_off_c, 0, 74, 62
1, 85268, Note_off_c, 0, 76, 61
1, 85396, Note_on_c, 0, 59, 64
1, 85411, Poly_aftertouch_c, 0, 82, 127
1, 85430, Note_on_c, 0, 89, 91
1, 85437, Note_on_c, 0, 62, 72
1, 85437, Control_c, 0, 64, 91
1, 85442, Note_on_c, 0, 84, 91
1, 85442, Note_off_c, 0, 59, 62
1, 85445, Note_on_c, 0, 81, 92
1, 85452, Control_c, 0, 64, 77
1, 85452, Note_on_c, 0, 68, 87
1, 85454, Note_on_c, 0, 87, 71
1, 85465, Note_off_c, 0, 62, 67
1, 85467, Poly_aftertouch_c, 0, 82, 0
1, 85467, Control_c, 0, 64, 78
1, 85473, Note_off_c, 0, 89, 64
1, 85475, Note_on_c, 0, 76, 92
1, 85476, Note_on_c, 0, 74, 100
1, 85476, Note_off_c, 0, 87, 71
1, 85481, Control_c, 0, 64, 89
1, 85489, Note_on_c, 0, 70, 64
1, 85491, Note_on_c, 0, 73, 102
1, 85496, Control_c, 0, 64, 118
1, 85504, Note_off_c, 0, 84, 67
1, 85505, Note_off_c, 0, 81, 66
1, 85509, Note_off_c, 0, 70, 64
1, 85511, Control_c, 0, 64, 127
1, 85520, Note_off_c, 0, 68, 61
1, 85520, Note_off_c, 0, 76, 56
1, 85527, Note_off_c, 0, 74, 70
1, 85547, Note_off_c, 0, 73, 62
1, 85726, Control_c, 0, 64, 106
1, 85741, Control_c, 0, 64, 76
1, 85742, Note_on_c, 0, 87, 90
1, 85745, Note_on_c, 0, 60, 71
1, 85750, Note_on_c, 0, 82, 82
1, 85756, Control_c, 0, 64, 64
1, 85756, Note_on_c, 0, 66, 77
1, 85760, Note_on_c, 0, 68, 74
1, 85761, Note_on_c, 0, 79, 74
1, 85768, Note_on_c, 0, 80, 59
1, 85771, Control_c, 0, 64, 65
1, 85783, Note_on_c, 0, 71, 92
1, 85786, Note_off_c, 0, 80, 63
1, 85786, Control_c, 0, 64, 74
1, 85787, Note_on_c, 0, 88, 42
1, 85788, Note_off_c, 0, 88, 127
1, 85789, Note_on_c, 0, 76, 89
1, 85790, Note_on_c, 0, 74, 99
1, 85801, Control_c, 0, 64, 95
1, 85807, Note_off_c, 0, 60, 62
1, 85807, Note_off_c, 0, 66, 63
1, 85808, Note_off_c, 0, 87, 66
1, 85810, Note_off_c, 0, 68, 61
1, 85816, Control_c, 0, 64, 127
1, 85817, Note_off_c, 0, 82, 67
1, 85827, Note_off_c, 0, 79, 63
1, 85832, Note_off_c, 0, 74, 65
1, 85833, Note_off_c, 0, 76, 44
1, 85834, Note_off_c, 0, 71, 66
1, 85867, Poly_aftertouch_c, 0, 85, 0
1, 86015, Note_on_c, 0, 59, 69
1, 86051, Note_on_c, 0, 89, 89
1, 86053, Control_c, 0, 64, 94
1, 86063, Note_on_c, 0, 81, 91
1, 86063, Note_on_c, 0, 84, 80
1, 86065, Note_off_c, 0, 59, 63
1, 86067, Note_on_c, 0, 62, 53
1, 86067, Control_c, 0, 64, 77
1, 86072, Note_on_c, 0, 66, 63
1, 86076, Note_on_c, 0, 87, 76
1, 86081, Note_on_c, 0, 76, 92
1, 86082, Control_c, 0, 64, 73
1, 86087, Note_on_c, 0, 74, 97
1, 86092, Note_on_c, 0, 67, 68
1, 86097, Control_c, 0, 64, 81
1, 86098, Note_off_c, 0, 66, 59
1, 86099, Note_on_c, 0, 70, 57
1, 86099, Note_off_c, 0, 62, 63
1, 86099, Note_off_c, 0, 87, 68
1, 86100, Note_off_c, 0, 89, 64
1, 86104, Note_on_c, 0, 73, 101
1, 86106, Note_on_c, 0, 77, 54
1, 86107, Note_off_c, 0, 77, 127
1, 86111, Control_c, 0, 64, 104
1, 86115, Note_off_c, 0, 81, 66
1, 86117, Note_off_c, 0, 67, 65
1, 86117, Note_off_c, 0, 84, 66
1, 86122, Note_off_c, 0, 70, 63
1, 86125, Note_off_c, 0, 74, 69
1, 86126, Control_c, 0, 64, 127
1, 86136, Note_off_c, 0, 76, 62
1, 86142, Note_off_c, 0, 73, 59
1, 86408, Control_c, 0, 64, 108
1, 86423, Control_c, 0, 64, 77
1, 86445, Control_c, 0, 64, 23
1, 86449, Note_on_c, 0, 100, 98
1, 86453, Note_on_c, 0, 76, 104
1, 86453, Note_on_c, 0, 88, 107
1, 86460, Control_c, 0, 64, 0
1, 86475, Control_c, 0, 64, 27
1, 86482, Note_off_c, 0, 100, 71
1, 86487, Note_off_c, 0, 88, 67
1, 86489, Note_off_c, 0, 76, 68
1, 86490, Control_c, 0, 64, 67
1, 86504, Control_c, 0, 64, 90
1, 86519, Control_c, 0, 64, 127
1, 86807, Note_on_c, 0, 88, 96
1, 86808, Note_on_c, 0, 76, 97
1, 86814, Note_on_c, 0, 64, 100
1, 86840, Note_off_c, 0, 88, 68
1, 86844, Note_off_c, 0, 76, 69
1, 86910, Note_off_c, 0, 64, 63
1, 87186, Note_on_c, 0, 76, 101
1, 87189, Note_on_c, 0, 64, 92
1, 87193, Note_on_c, 0, 52, 92
1, 87228, Note_off_c, 0, 52, 66
1, 87243, Note_off_c, 0, 76, 58
1, 87265, Note_off_c, 0, 64, 67
1, 87609, Note_on_c, 0, 52, 99
1, 87611, Note_on_c, 0, 64, 94
1, 87613, Note_on_c, 0, 40, 91
1, 87647, Note_off_c, 0, 64, 68
1, 87652, Note_off_c, 0, 52, 66
1, 87657, Note_on_c, 0, 61, 32
1, 87694, Note_off_c, 0, 61, 53
1, 87730, Note_off_c, 0, 40, 64
1, 88141, Note_on_c, 0, 52, 105
1, 88143, Note_on_c, 0, 28, 83
1, 88144, Note_on_c, 0, 40, 85
1, 89160, Note_off_c, 0, 28, 56
1, 89212, Note_off_c, 0, 40, 64
1, 89284, Note_off_c, 0, 52, 65
1, 89575, Note_on_c, 0, 93, 82
1, 89584, Note_on_c, 0, 60, 91
1, 89587, Control_c, 0, 64, 108
1, 89587, Control_c, 0, 67, 16
1, 89589, Note_on_c, 0, 96, 80
1, 89589, Note_on_c, 0, 99, 86
1, 89590, Note_on_c, 0, 52, 82
1, 89593, Note_on_c, 0, 57, 80
1, 89596, Note_on_c, 0, 49, 85
1, 89600, Note_on_c, 0, 88, 90
1, 89602, Control_c, 0, 64, 70
1, 89602, Control_c, 0, 67, 25
1, 89614, Note_off_c, 0, 57, 70
1, 89616, Control_c, 0, 64, 0
1, 89616, Control_c, 0, 67, 34
1, 89625, Note_off_c, 0, 60, 62
1, 89628, Note_off_c, 0, 99, 67
1, 89631, Control_c, 0, 67, 40
1, 89638, Note_off_c, 0, 52, 61
1, 89639, Note_off_c, 0, 93, 64
1, 89646, Note_off_c, 0, 49, 63
1, 89646, Control_c, 0, 67, 43
1, 89655, Note_off_c, 0, 96, 66
1, 89657, Note_off_c, 0, 88, 65
1, 89661, Control_c, 0, 67, 45
1, 89676, Control_c, 0, 67, 46
1, 89691, Control_c, 0, 67, 48
1, 89706, Control_c, 0, 67, 49
1, 89721, Control_c, 0, 67, 50
1, 89735, Note_on_c, 0, 96, 68
1, 89739, Note_on_c, 0, 88, 67
1, 89785, Note_off_c, 0, 96, 63
1, 89811, Note_off_c, 0, 88, 57
1, 89825, Control_c, 0, 67, 51
1, 89834, Note_on_c, 0, 46, 89
1, 89834, Note_on_c, 0, 51, 86
1, 89840, Note_on_c, 0, 55, 75
1, 89840, Control_c, 0, 67, 51
1, 89841, Note_on_c, 0, 57, 66
1, 89847, Note_on_c, 0, 85, 86
1, 89849, Note_on_c, 0, 93, 76
1, 89867, Note_off_c, 0, 55, 67
1, 89870, Note_off_c, 0, 57, 66
1, 89870, Control_c, 0, 67, 52
1, 89879, Note_off_c, 0, 85, 64
1, 89881, Note_off_c, 0, 51, 63
1, 89886, Note_off_c, 0, 46, 63
1, 89892, Note_off_c, 0, 93, 63
1, 89914, Control_c, 0, 67, 51
1, 89929, Control_c, 0, 67, 50
1, 89958, Control_c, 0, 67, 49
1, 89962, Note_on_c, 0, 52, 85
1, 89964, Note_on_c, 0, 49, 87
1, 89968, Note_on_c, 0, 45, 84
1, 89982, Note_on_c, 0, 85, 83
1, 89983, Note_on_c, 0, 93, 81
1, 89988, Control_c, 0, 67, 49
1, 89990, Note_off_c, 0, 49, 68
1, 89991, Note_off_c, 0, 45, 67
1, 89998, Note_off_c, 0, 52, 63
1, 90003, Control_c, 0, 64, 53
1, 90018, Control_c, 0, 64, 66
1, 90018, Control_c, 0, 67, 48
1, 90032, Control_c, 0, 64, 70
1, 90032, Control_c, 0, 67, 47
1, 90037, Note_off_c, 0, 93, 57
1, 90047, Control_c, 0, 64, 73
1, 90047, Control_c, 0, 67, 47
1, 90062, Control_c, 0, 67, 46
1, 90076, Control_c, 0, 64, 72
1, 90097, Note_on_c, 0, 88, 73
1, 90097, Note_off_c, 0, 85, 62
1, 90103, Note_on_c, 0, 81, 45
1, 90106, Control_c, 0, 64, 73
1, 90106, Control_c, 0, 67, 45
1, 90120, Note_off_c, 0, 88, 70
1, 90121, Control_c, 0, 67, 45
1, 90129, Note_off_c, 0, 81, 56
1, 90136, Control_c, 0, 67, 44
1, 90150, Control_c, 0, 64, 71
1, 90165, Control_c, 0, 64, 66
1, 90188, Control_c, 0, 64, 30
1, 90203, Control_c, 0, 64, 0
1, 90203, Control_c, 0, 67, 44
1, 90210, Note_on_c, 0, 66, 95
1, 90211, Note_on_c, 0, 61, 93
1, 90215, Note_on_c, 0, 52, 80
1, 90217, Note_on_c, 0, 57, 82
1, 90218, Control_c, 0, 67, 43
1, 90220, Note_on_c, 0, 93, 88
1, 90225, Note_on_c, 0, 96, 82
1, 90232, Note_on_c, 0, 88, 75
1, 90232, Control_c, 0, 67, 42
1, 90254, Note_off_c, 0, 93, 60
1, 90262, Note_off_c, 0, 57, 63
1, 90262, Control_c, 0, 64, 40
1, 90263, Note_off_c, 0, 66, 63
1, 90264, Note_off_c, 0, 61, 65
1, 90266, Note_off_c, 0, 52, 63
1, 90275, Note_off_c, 0, 96, 64
1, 90277, Control_c, 0, 64, 44
1, 90277, Control_c, 0, 67, 43
1, 90280, Note_off_c, 0, 88, 64
1, 90291, Control_c, 0, 64, 39
1, 90291, Control_c, 0, 67, 43
1, 90306, Control_c, 0, 64, 11
1, 90321, Control_c, 0, 64, 0
1, 90352, Note_on_c, 0, 96, 77
1, 90365, Control_c, 0, 67, 44
1, 90371, Note_on_c, 0, 88, 64
1, 90407, Note_off_c, 0, 96, 63
1, 90431, Note_off_c, 0, 88, 59
1, 90456, Note_on_c, 0, 64, 90
1, 90460, Note_on_c, 0, 58, 88
1, 90462, Note_on_c, 0, 51, 73
1, 90463, Note_on_c, 0, 55, 75
1, 90469, Control_c, 0, 67, 44
1, 90472, Note_on_c, 0, 93, 82
1, 90475, Note_on_c, 0, 85, 82
1, 90502, Note_off_c, 0, 64, 65
1, 90502, Note_off_c, 0, 85, 65
1, 90508, Note_off_c, 0, 51, 59
1, 90512, Note_off_c, 0, 93, 65
1, 90514, Control_c, 0, 67, 44
1, 90515, Note_off_c, 0, 55, 61
1, 90529, Control_c, 0, 67, 42
1, 90544, Control_c, 0, 67, 41
1, 90559, Control_c, 0, 67, 39
1, 90574, Control_c, 0, 67, 36
1, 90581, Note_on_c, 0, 63, 95
1, 90586, Note_on_c, 0, 49, 86
1, 90586, Note_on_c, 0, 52, 78
1, 90588, Note_on_c, 0, 57, 81
1, 90588, Control_c, 0, 67, 23
1, 90600, Note_on_c, 0, 93, 80
1, 90600, Note_off_c, 0, 58, 27
1, 90600, Note_on_c, 0, 85, 85
1, 90603, Control_c, 0, 67, 0
1, 90611, Note_off_c, 0, 49, 71
1, 90618, Note_on_c, 0, 54, 33
1, 90630, Note_off_c, 0, 57, 61
1, 90639, Note_off_c, 0, 52, 63
1, 90648, Note_off_c, 0, 63, 63
1, 90663, Note_off_c, 0, 54, 29
1, 90668, Note_off_c, 0, 93, 52
1, 90711, Note_on_c, 0, 88, 73
1, 90716, Note_off_c, 0, 85, 63
1, 90716, Note_on_c, 0, 81, 50
1, 90734, Note_off_c, 0, 88, 70
1, 90739, Note_off_c, 0, 81, 59
1, 90811, Control_c, 0, 64, 34
1, 90818, Note_on_c, 0, 72, 106
1, 90820, Note_on_c, 0, 69, 89
1, 90824, Note_on_c, 0, 61, 97
1, 90824, Note_on_c, 0, 64, 96
1, 90826, Control_c, 0, 64, 64
1, 90830, Note_on_c, 0, 93, 81
1, 90833, Note_on_c, 0, 96, 84
1, 90841, Control_c, 0, 64, 78
1, 90843, Note_on_c, 0, 88, 76
1, 90854, Note_off_c, 0, 72, 69
1, 90855, Control_c, 0, 64, 96
1, 90858, Note_off_c, 0, 69, 67
1, 90862, Note_off_c, 0, 93, 59
1, 90870, Control_c, 0, 64, 127
1, 90875, Note_off_c, 0, 64, 68
1, 90876, Note_off_c, 0, 61, 68
1, 90884, Note_off_c, 0, 96, 65
1, 90890, Note_off_c, 0, 88, 61
1, 90976, Note_on_c, 0, 96, 67
1, 91004, Note_on_c, 0, 88, 57
1, 91041, Control_c, 0, 64, 124
1, 91047, Note_off_c, 0, 96, 60
1, 91055, Control_c, 0, 64, 123
1, 91056, Note_off_c, 0, 88, 57
1, 91070, Control_c, 0, 64, 122
1, 91083, Note_on_c, 0, 69, 100
1, 91085, Note_on_c, 0, 57, 96
1, 91085, Note_on_c, 0, 64, 95
1, 91085, Control_c, 0, 64, 114
1, 91089, Note_on_c, 0, 61, 88
1, 91095, Note_on_c, 0, 93, 74
1, 91097, Note_on_c, 0, 85, 76
1, 91100, Control_c, 0, 64, 103
1, 91114, Control_c, 0, 64, 88
1, 91128, Note_off_c, 0, 85, 59
1, 91129, Control_c, 0, 64, 72
1, 91137, Note_off_c, 0, 93, 61
1, 91144, Control_c, 0, 64, 0
1, 91228, Note_on_c, 0, 93, 63
1, 91230, Note_on_c, 0, 85, 71
1, 91293, Control_c, 0, 64, 21
1, 91301, Note_off_c, 0, 93, 57
1, 91307, Control_c, 0, 64, 50
1, 91322, Control_c, 0, 64, 65
1, 91330, Note_on_c, 0, 81, 56
1, 91330, Note_on_c, 0, 88, 76
1, 91336, Note_off_c, 0, 85, 64
1, 91337, Control_c, 0, 64, 71
1, 91350, Note_off_c, 0, 81, 63
1, 91353, Control_c, 0, 64, 75
1, 91354, Note_off_c, 0, 88, 69
1, 91368, Control_c, 0, 64, 77
1, 91383, Control_c, 0, 64, 78
1, 91398, Control_c, 0, 64, 82
1, 91412, Control_c, 0, 64, 88
1, 91427, Control_c, 0, 64, 91
1, 91442, Control_c, 0, 64, 92
1, 91457, Control_c, 0, 64, 95
1, 91459, Note_on_c, 0, 93, 71
1, 91462, Note_on_c, 0, 96, 73
1, 91472, Control_c, 0, 64, 97
1, 91475, Note_on_c, 0, 88, 70
1, 91486, Note_off_c, 0, 93, 63
1, 91486, Control_c, 0, 64, 99
1, 91501, Control_c, 0, 64, 100
1, 91506, Note_off_c, 0, 88, 65
1, 91512, Note_off_c, 0, 96, 64
1, 91516, Control_c, 0, 64, 102
1, 91530, Control_c, 0, 64, 106
1, 91545, Control_c, 0, 64, 110
1, 91560, Control_c, 0, 64, 114
1, 91575, Control_c, 0, 64, 120
1, 91584, Note_on_c, 0, 96, 75
1, 91590, Control_c, 0, 64, 127
1, 91604, Note_on_c, 0, 88, 70
1, 91638, Note_off_c, 0, 96, 63
1, 91655, Note_off_c, 0, 88, 53
1, 91718, Note_on_c, 0, 93, 75
1, 91724, Note_on_c, 0, 85, 75
1, 91748, Note_off_c, 0, 85, 68
1, 91760, Note_off_c, 0, 93, 61
1, 91821, Note_off_c, 0, 69, 58
1, 91823, Note_off_c, 0, 64, 62
1, 91831, Note_off_c, 0, 61, 61
1, 91844, Note_off_c, 0, 57, 61
1, 91845, Note_on_c, 0, 85, 77
1, 91849, Note_on_c, 0, 93, 70
1, 91912, Note_off_c, 0, 93, 59
1, 91957, Note_off_c, 0, 85, 60
1, 91958, Note_on_c, 0, 88, 74
1, 91976, Note_on_c, 0, 81, 38
1, 91980, Note_off_c, 0, 88, 70
1, 92003, Note_off_c, 0, 81, 56
1, 92068, Note_on_c, 0, 66, 91
1, 92070, Note_on_c, 0, 61, 83
1, 92071, Control_c, 0, 64, 116
1, 92074, Note_on_c, 0, 97, 86
1, 92075, Note_on_c, 0, 94, 72
1, 92076, Note_on_c, 0, 52, 74
1, 92076, Note_on_c, 0, 57, 74
1, 92086, Control_c, 0, 64, 89
1, 92093, Note_off_c, 0, 94, 64
1, 92094, Note_on_c, 0, 93, 70
1, 92094, Note_off_c, 0, 61, 67
1, 92101, Control_c, 0, 64, 71
1, 92102, Note_on_c, 0, 88, 70
1, 92104, Note_off_c, 0, 57, 65
1, 92105, Note_off_c, 0, 52, 65
1, 92110, Note_off_c, 0, 93, 68
1, 92113, Note_off_c, 0, 66, 60
1, 92116, Control_c, 0, 64, 0
1, 92119, Note_off_c, 0, 97, 66
1, 92127, Note_off_c, 0, 88, 67
1, 92204, Note_on_c, 0, 96, 81
1, 92221, Note_on_c, 0, 88, 67
1, 92263, Note_off_c, 0, 96, 61
1, 92284, Note_off_c, 0, 88, 59
1, 92326, Note_on_c, 0, 93, 80
1, 92333, Note_on_c, 0, 85, 74
1, 92335, Note_on_c, 0, 63, 87
1, 92346, Note_on_c, 0, 57, 72
1, 92349, Note_on_c, 0, 49, 71
1, 92349, Note_on_c, 0, 52, 74
1, 92367, Note_off_c, 0, 85, 62
1, 92368, Control_c, 0, 64, 11
1, 92371, Note_off_c, 0, 93, 64
1, 92383, Control_c, 0, 64, 58
1, 92398, Control_c, 0, 64, 68
1, 92413, Control_c, 0, 64, 76
1, 92435, Control_c, 0, 64, 85
1, 92450, Control_c, 0, 64, 93
1, 92465, Control_c, 0, 64, 97
1, 92476, Note_on_c, 0, 93, 69
1, 92478, Note_on_c, 0, 85, 74
1, 92480, Control_c, 0, 64, 98
1, 92487, Note_off_c, 0, 57, 63
1, 92493, Note_off_c, 0, 63, 62
1, 92500, Note_off_c, 0, 52, 62
1, 92516, Note_off_c, 0, 49, 63
1, 92544, Note_off_c, 0, 93, 56
1, 92588, Note_off_c, 0, 85, 62
1, 92588, Note_on_c, 0, 88, 72
1, 92612, Note_off_c, 0, 88, 68
1, 92623, Note_on_c, 0, 81, 4
1, 92675, Note_off_c, 0, 81, 37
1, 92687, Note_on_c, 0, 52, 57
1, 92687, Control_c, 0, 64, 91
1, 92690, Note_on_c, 0, 54, 85
1, 92693, Note_on_c, 0, 45, 75
1, 92695, Note_on_c, 0, 49, 79
1, 92702, Control_c, 0, 64, 79
1, 92703, Note_on_c, 0, 97, 87
1, 92710, Note_on_c, 0, 94, 64
1, 92714, Note_off_c, 0, 45, 66
1, 92717, Control_c, 0, 64, 65
1, 92719, Note_off_c, 0, 52, 67
1, 92722, Note_off_c, 0, 54, 64
1, 92723, Note_off_c, 0, 49, 67
1, 92728, Note_off_c, 0, 94, 64
1, 92732, Control_c, 0, 64, 0
1, 92735, Note_on_c, 0, 93, 58
1, 92742, Note_on_c, 0, 88, 56
1, 92746, Note_on_c, 0, 89, 40
1, 92752, Note_off_c, 0, 97, 67
1, 92755, Note_off_c, 0, 93, 62
1, 92760, Note_off_c, 0, 88, 64
1, 92774, Note_off_c, 0, 89, 49
1, 92842, Note_on_c, 0, 96, 75
1, 92854, Note_on_c, 0, 88, 62
1, 92897, Note_off_c, 0, 96, 62
1, 92898, Note_off_c, 0, 88, 57
1, 92954, Note_on_c, 0, 93, 86
1, 92960, Note_on_c, 0, 85, 82
1, 92966, Note_on_c, 0, 60, 82
1, 92971, Note_on_c, 0, 57, 76
1, 92972, Note_on_c, 0, 49, 77
1, 92976, Note_on_c, 0, 52, 76
1, 92996, Note_off_c, 0, 85, 62
1, 93003, Note_off_c, 0, 93, 65
1, 93087, Note_on_c, 0, 93, 80
1, 93089, Note_on_c, 0, 85, 85
1, 93103, Control_c, 0, 64, 39
1, 93118, Control_c, 0, 64, 55
1, 93133, Control_c, 0, 64, 62
1, 93148, Control_c, 0, 64, 66
1, 93163, Control_c, 0, 64, 71
1, 93166, Note_off_c, 0, 93, 61
1, 93185, Control_c, 0, 64, 76
1, 93200, Control_c, 0, 64, 84
1, 93211, Note_on_c, 0, 88, 80
1, 93214, Note_on_c, 0, 81, 79
1, 93214, Control_c, 0, 64, 95
1, 93229, Control_c, 0, 64, 108
1, 93241, Note_off_c, 0, 88, 64
1, 93244, Control_c, 0, 64, 127
1, 93245, Note_off_c, 0, 85, 63
1, 93247, Note_off_c, 0, 81, 62
1, 93287, Note_off_c, 0, 57, 63
1, 93298, Note_off_c, 0, 52, 62
1, 93305, Note_off_c, 0, 60, 65
1, 93307, Note_off_c, 0, 49, 63
1, 93524, Control_c, 0, 64, 112
1, 93530, Note_on_c, 0, 67, 96
1, 93530, Note_on_c, 0, 71, 93
1, 93531, Note_on_c, 0, 64, 99
1, 93531, Note_on_c, 0, 76, 96
1, 93534, Note_on_c, 0, 62, 96
1, 93537, Note_on_c, 0, 50, 91
1, 93539, Control_c, 0, 64, 74
1, 93542, Note_on_c, 0, 55, 88
1, 93542, Note_on_c, 0, 59, 90
1, 93554, Control_c, 0, 64, 0
1, 93574, Note_on_c, 0, 73, 36
1, 93614, Control_c, 0, 64, 67
1, 93628, Control_c, 0, 64, 84
1, 93643, Control_c, 0, 64, 106
1, 93658, Note_off_c, 0, 76, 45
1, 93658, Control_c, 0, 64, 127
1, 93663, Note_off_c, 0, 73, 0
1, 93680, Note_off_c, 0, 62, 54
1, 93687, Note_off_c, 0, 59, 61
1, 93695, Note_off_c, 0, 55, 64
1, 93697, Note_off_c, 0, 67, 59
1, 93700, Poly_aftertouch_c, 0, 73, 127
1, 93701, Note_off_c, 0, 71, 59
1, 93703, Note_off_c, 0, 64, 60
1, 93717, Note_off_c, 0, 50, 64
1, 93744, Poly_aftertouch_c, 0, 73, 0
1, 93911, Control_c, 0, 64, 123
1, 93931, Note_on_c, 0, 60, 99
1, 93931, Note_on_c, 0, 70, 94
1, 93931, Note_on_c, 0, 74, 97
1, 93933, Note_on_c, 0, 65, 97
1, 93933, Control_c, 0, 64, 85
1, 93933, Note_on_c, 0, 62, 97
1, 93936, Note_on_c, 0, 58, 92
1, 93938, Note_on_c, 0, 48, 84
1, 93944, Note_on_c, 0, 53, 87
1, 93948, Control_c, 0, 64, 63
1, 93963, Control_c, 0, 64, 0
1, 93992, Control_c, 0, 64, 50
1, 94007, Control_c, 0, 64, 70
1, 94016, Note_off_c, 0, 48, 62
1, 94020, Note_off_c, 0, 74, 59
1, 94022, Control_c, 0, 64, 86
1, 94023, Note_off_c, 0, 60, 62
1, 94037, Note_off_c, 0, 58, 63
1, 94037, Control_c, 0, 64, 107
1, 94041, Note_off_c, 0, 53, 63
1, 94050, Note_off_c, 0, 65, 62
1, 94051, Control_c, 0, 64, 127
1, 94052, Note_off_c, 0, 62, 59
1, 94055, Note_off_c, 0, 70, 65
1, 94214, Control_c, 0, 64, 103
1, 94215, Note_on_c, 0, 59, 97
1, 94216, Note_on_c, 0, 64, 89
1, 94217, Note_on_c, 0, 68, 90
1, 94219, Note_on_c, 0, 56, 89
1, 94220, Note_on_c, 0, 61, 93
1, 94220, Note_on_c, 0, 73, 95
1, 94223, Note_on_c, 0, 52, 82
1, 94225, Note_on_c, 0, 47, 81
1, 94225, Note_on_c, 0, 50, 78
1, 94229, Control_c, 0, 64, 75
1, 94244, Control_c, 0, 64, 0
1, 94299, Note_off_c, 0, 61, 64
1, 94304, Control_c, 0, 64, 70
1, 94312, Note_off_c, 0, 64, 64
1, 94319, Control_c, 0, 64, 91
1, 94333, Control_c, 0, 64, 127
1, 94342, Note_off_c, 0, 68, 59
1, 94350, Note_off_c, 0, 47, 63
1, 94353, Note_off_c, 0, 73, 62
1, 94373, Note_off_c, 0, 50, 64
1, 94374, Note_off_c, 0, 52, 61
1, 94396, Note_off_c, 0, 59, 63
1, 94401, Note_off_c, 0, 56, 64
1, 94581, Note_on_c, 0, 92, 67
1, 94618, Note_on_c, 0, 100, 45
1, 94623, Note_on_c, 0, 97, 74
1, 94633, Note_on_c, 0, 101, 29
1, 94639, Note_on_c, 0, 88, 60
1, 94641, Note_off_c, 0, 100, 60
1, 94652, Note_off_c, 0, 92, 65
1, 94678, Note_off_c, 0, 101, 50
1, 94683, Note_off_c, 0, 88, 61
1, 94684, Note_off_c, 0, 97, 62
1, 94712, Control_c, 0, 67, 9
1, 94727, Control_c, 0, 67, 10
1, 94742, Control_c, 0, 67, 12
1, 94756, Control_c, 0, 67, 15
1, 94768, Note_on_c, 0, 97, 67
1, 94771, Control_c, 0, 67, 19
1, 94774, Note_on_c, 0, 71, 57
1, 94782, Note_on_c, 0, 88, 50
1, 94786, Control_c, 0, 67, 24
1, 94801, Control_c, 0, 67, 27
1, 94816, Control_c, 0, 67, 30
1, 94827, Note_off_c, 0, 97, 62
1, 94830, Control_c, 0, 67, 32
1, 94845, Control_c, 0, 67, 34
1, 94860, Control_c, 0, 67, 38
1, 94872, Note_off_c, 0, 71, 56
1, 94875, Control_c, 0, 67, 42
1, 94884, Note_on_c, 0, 94, 68
1, 94890, Note_on_c, 0, 80, 60
1, 94890, Control_c, 0, 67, 45
1, 94899, Note_on_c, 0, 86, 52
1, 94905, Control_c, 0, 67, 47
1, 94911, Note_off_c, 0, 88, 43
1, 94920, Note_off_c, 0, 94, 57
1, 94920, Control_c, 0, 67, 47
1, 94924, Note_off_c, 0, 86, 61
1, 94949, Control_c, 0, 67, 48
1, 94964, Control_c, 0, 67, 48
1, 94994, Control_c, 0, 67, 49
1, 94995, Note_off_c, 0, 80, 57
1, 95018, Note_on_c, 0, 86, 68
1, 95022, Note_on_c, 0, 94, 69
1, 95023, Note_on_c, 0, 74, 63
1, 95073, Note_off_c, 0, 94, 60
1, 95082, Control_c, 0, 67, 49
1, 95083, Note_off_c, 0, 86, 63
1, 95099, Note_off_c, 0, 74, 61
1, 95136, Note_on_c, 0, 88, 59
1, 95138, Note_on_c, 0, 83, 39
1, 95154, Note_off_c, 0, 88, 62
1, 95156, Control_c, 0, 67, 50
1, 95158, Note_on_c, 0, 85, 60
1, 95166, Note_off_c, 0, 83, 55
1, 95200, Note_off_c, 0, 85, 54
1, 95230, Control_c, 0, 67, 49
1, 95250, Note_on_c, 0, 100, 64
1, 95260, Note_on_c, 0, 92, 74
1, 95267, Note_on_c, 0, 74, 61
1, 95274, Control_c, 0, 67, 49
1, 95276, Note_off_c, 0, 100, 67
1, 95280, Note_on_c, 0, 97, 65
1, 95284, Note_on_c, 0, 88, 55
1, 95289, Control_c, 0, 67, 48
1, 95301, Note_off_c, 0, 92, 61
1, 95304, Control_c, 0, 67, 48
1, 95311, Note_off_c, 0, 97, 65
1, 95347, Note_off_c, 0, 88, 58
1, 95384, Note_off_c, 0, 74, 53
1, 95392, Note_on_c, 0, 85, 64
1, 95399, Note_on_c, 0, 88, 53
1, 95413, Note_on_c, 0, 97, 68
1, 95431, Note_off_c, 0, 85, 61
1, 95468, Note_off_c, 0, 97, 58
1, 95492, Note_off_c, 0, 88, 59
1, 95525, Note_on_c, 0, 94, 68
1, 95537, Note_on_c, 0, 80, 60
1, 95539, Note_on_c, 0, 86, 56
1, 95552, Note_off_c, 0, 94, 64
1, 95563, Note_off_c, 0, 86, 62
1, 95565, Control_c, 0, 67, 48
1, 95609, Control_c, 0, 67, 48
1, 95620, Note_off_c, 0, 80, 57
1, 95656, Note_on_c, 0, 71, 58
1, 95657, Note_on_c, 0, 86, 66
1, 95664, Note_on_c, 0, 94, 63
1, 95712, Note_off_c, 0, 94, 57
1, 95723, Note_off_c, 0, 86, 63
1, 95757, Control_c, 0, 67, 47
1, 95766, Note_off_c, 0, 71, 57
1, 95783, Note_on_c, 0, 88, 43
1, 95785, Note_on_c, 0, 83, 26
1, 95799, Note_on_c, 0, 80, 57
1, 95810, Note_off_c, 0, 88, 55
1, 95820, Note_off_c, 0, 83, 50
1, 95897, Note_off_c, 0, 80, 58
1, 95900, Note_on_c, 0, 100, 41
1, 95901, Note_on_c, 0, 92, 70
1, 95909, Note_on_c, 0, 97, 73
1, 95924, Note_on_c, 0, 74, 60
1, 95927, Note_off_c, 0, 100, 54
1, 95928, Note_on_c, 0, 88, 58
1, 95936, Note_off_c, 0, 92, 62
1, 95956, Note_off_c, 0, 97, 61
1, 95968, Note_off_c, 0, 88, 64
1, 96018, Note_off_c, 0, 74, 51
1, 96047, Note_on_c, 0, 97, 70
1, 96058, Note_on_c, 0, 85, 63
1, 96070, Note_on_c, 0, 88, 45
1, 96103, Note_off_c, 0, 97, 62
1, 96114, Note_off_c, 0, 85, 63
1, 96143, Control_c, 0, 67, 47
1, 96177, Note_on_c, 0, 94, 71
1, 96186, Note_on_c, 0, 86, 63
1, 96197, Note_on_c, 0, 74, 61
1, 96199, Note_off_c, 0, 88, 40
1, 96204, Note_off_c, 0, 94, 62
1, 96210, Control_c, 0, 67, 46
1, 96216, Note_off_c, 0, 86, 66
1, 96294, Note_off_c, 0, 74, 52
1, 96305, Note_on_c, 0, 94, 75
1, 96313, Note_on_c, 0, 85, 70
1, 96315, Note_on_c, 0, 86, 69
1, 96363, Note_off_c, 0, 85, 62
1, 96368, Note_off_c, 0, 94, 61
1, 96371, Note_off_c, 0, 86, 61
1, 96373, Control_c, 0, 67, 46
1, 96414, Note_on_c, 0, 83, 54
1, 96420, Note_on_c, 0, 88, 63
1, 96432, Control_c, 0, 67, 45
1, 96434, Note_off_c, 0, 83, 63
1, 96437, Note_off_c, 0, 88, 65
1, 96450, Note_on_c, 0, 80, 63
1, 96532, Note_on_c, 0, 100, 65
1, 96542, Note_off_c, 0, 80, 58
1, 96550, Note_on_c, 0, 92, 75
1, 96557, Note_on_c, 0, 97, 79
1, 96560, Note_on_c, 0, 71, 57
1, 96563, Note_off_c, 0, 100, 62
1, 96567, Note_on_c, 0, 88, 60
1, 96581, Note_off_c, 0, 92, 63
1, 96600, Note_off_c, 0, 88, 61
1, 96611, Note_off_c, 0, 97, 64
1, 96645, Note_off_c, 0, 71, 40
1, 96683, Note_on_c, 0, 80, 55
1, 96693, Note_on_c, 0, 97, 69
1, 96696, Note_on_c, 0, 88, 68
1, 96699, Control_c, 0, 67, 45
1, 96752, Note_off_c, 0, 97, 62
1, 96762, Note_off_c, 0, 88, 57
1, 96799, Note_off_c, 0, 80, 53
1, 96809, Note_on_c, 0, 94, 72
1, 96819, Note_on_c, 0, 86, 63
1, 96824, Note_on_c, 0, 74, 56
1, 96839, Note_off_c, 0, 94, 60
1, 96847, Note_off_c, 0, 86, 67
1, 96861, Control_c, 0, 67, 44
1, 96881, Note_off_c, 0, 74, 54
1, 96906, Control_c, 0, 67, 45
1, 96941, Note_on_c, 0, 94, 77
1, 96944, Note_on_c, 0, 86, 73
1, 96944, Note_on_c, 0, 85, 71
1, 96994, Note_off_c, 0, 85, 65
1, 97009, Note_off_c, 0, 86, 60
1, 97009, Note_off_c, 0, 94, 62
1, 97018, Control_c, 0, 67, 44
1, 97048, Control_c, 0, 67, 44
1, 97061, Note_on_c, 0, 88, 77
1, 97064, Note_on_c, 0, 83, 64
1, 97066, Note_on_c, 0, 74, 82
1, 97077, Control_c, 0, 67, 43
1, 97081, Note_off_c, 0, 88, 70
1, 97082, Note_off_c, 0, 83, 64
1, 97087, Note_off_c, 0, 74, 73
1, 97092, Control_c, 0, 67, 42
1, 97107, Control_c, 0, 67, 42
1, 97122, Control_c, 0, 67, 41
1, 97181, Control_c, 0, 64, 107
1, 97196, Control_c, 0, 64, 88
1, 97211, Control_c, 0, 64, 73
1, 97211, Control_c, 0, 67, 42
1, 97225, Control_c, 0, 64, 57
1, 97240, Control_c, 0, 64, 0
1, 97240, Control_c, 0, 67, 42
1, 97255, Control_c, 0, 67, 43
1, 97269, Control_c, 0, 67, 43
1, 97283, Note_on_c, 0, 92, 99
1, 97284, Control_c, 0, 67, 44
1, 97287, Note_on_c, 0, 100, 84
1, 97288, Note_on_c, 0, 58, 102
1, 97289, Note_on_c, 0, 47, 89
1, 97289, Note_on_c, 0, 97, 94
1, 97293, Note_on_c, 0, 56, 82
1, 97295, Note_on_c, 0, 88, 89
1, 97304, Note_on_c, 0, 52, 79
1, 97328, Note_off_c, 0, 100, 65
1, 97331, Note_on_c, 0, 94, 35
1, 97343, Note_off_c, 0, 47, 65
1, 97343, Note_off_c, 0, 52, 60
1, 97349, Note_off_c, 0, 56, 65
1, 97353, Note_off_c, 0, 92, 66
1, 97355, Note_off_c, 0, 97, 67
1, 97356, Note_off_c, 0, 58, 62
1, 97358, Control_c, 0, 67, 44
1, 97361, Note_off_c, 0, 94, 56
1, 97370, Note_off_c, 0, 88, 62
1, 97444, Note_on_c, 0, 97, 76
1, 97448, Note_on_c, 0, 88, 63
1, 97504, Note_off_c, 0, 97, 63
1, 97521, Note_off_c, 0, 88, 58
1, 97522, Control_c, 0, 67, 44
1, 97546, Note_on_c, 0, 56, 89
1, 97553, Note_on_c, 0, 46, 87
1, 97554, Note_on_c, 0, 94, 89
1, 97559, Note_on_c, 0, 86, 84
1, 97567, Note_on_c, 0, 52, 58
1, 97584, Note_on_c, 0, 53, 52
1, 97603, Note_off_c, 0, 52, 63
1, 97608, Note_off_c, 0, 56, 62
1, 97609, Note_off_c, 0, 53, 59
1, 97609, Note_off_c, 0, 86, 66
1, 97610, Control_c, 0, 67, 43
1, 97615, Note_off_c, 0, 94, 64
1, 97621, Note_off_c, 0, 46, 62
1, 97683, Note_on_c, 0, 53, 96
1, 97687, Note_on_c, 0, 44, 93
1, 97690, Note_on_c, 0, 47, 78
1, 97690, Note_on_c, 0, 52, 82
1, 97693, Note_on_c, 0, 86, 85
1, 97693, Note_on_c, 0, 94, 82
1, 97711, Note_on_c, 0, 51, 49
1, 97725, Note_on_c, 0, 46, 32
1, 97726, Note_off_c, 0, 46, 127
1, 97735, Note_off_c, 0, 51, 35
1, 97739, Note_off_c, 0, 52, 64
1, 97741, Note_off_c, 0, 44, 65
1, 97741, Note_off_c, 0, 47, 64
1, 97756, Note_off_c, 0, 53, 67
1, 97775, Note_off_c, 0, 94, 63
1, 97784, Note_off_c, 0, 86, 58
1, 97802, Note_on_c, 0, 83, 64
1, 97808, Note_on_c, 0, 88, 71
1, 97827, Note_off_c, 0, 83, 69
1, 97835, Note_off_c, 0, 88, 65
1, 97841, Control_c, 0, 67, 44
1, 97930, Control_c, 0, 67, 44
1, 97933, Note_on_c, 0, 65, 96
1, 97936, Note_on_c, 0, 100, 74
1, 97936, Note_on_c, 0, 64, 84
1, 97938, Note_on_c, 0, 92, 90
1, 97941, Note_on_c, 0, 56, 93
1, 97941, Note_on_c, 0, 59, 82
1, 97945, Control_c, 0, 67, 45
1, 97946, Note_on_c, 0, 88, 80
1, 97946, Note_on_c, 0, 97, 92
1, 97964, Note_off_c, 0, 100, 65
1, 97981, Note_off_c, 0, 64, 65
1, 97991, Note_off_c, 0, 92, 66
1, 97997, Note_off_c, 0, 59, 61
1, 97997, Note_off_c, 0, 65, 65
1, 98009, Note_off_c, 0, 88, 63
1, 98012, Note_off_c, 0, 56, 66
1, 98014, Note_off_c, 0, 97, 65
1, 98018, Control_c, 0, 67, 44
1, 98048, Control_c, 0, 67, 44
1, 98078, Control_c, 0, 67, 43
1, 98083, Note_on_c, 0, 88, 70
1, 98086, Note_on_c, 0, 97, 70
1, 98107, Control_c, 0, 67, 43
1, 98122, Control_c, 0, 67, 42
1, 98137, Control_c, 0, 67, 42
1, 98154, Note_off_c, 0, 97, 63
1, 98166, Control_c, 0, 67, 41
1, 98187, Note_on_c, 0, 58, 82
1, 98188, Note_on_c, 0, 62, 80
1, 98190, Note_on_c, 0, 64, 81
1, 98193, Note_on_c, 0, 53, 86
1, 98196, Control_c, 0, 67, 41
1, 98197, Note_on_c, 0, 94, 82
1, 98198, Note_on_c, 0, 86, 78
1, 98206, Note_off_c, 0, 88, 36
1, 98225, Control_c, 0, 67, 40
1, 98240, Control_c, 0, 67, 39
1, 98243, Note_off_c, 0, 53, 65
1, 98248, Note_off_c, 0, 62, 58
1, 98248, Note_off_c, 0, 64, 60
1, 98249, Note_off_c, 0, 86, 66
1, 98252, Note_off_c, 0, 58, 64
1, 98255, Control_c, 0, 67, 39
1, 98258, Note_off_c, 0, 94, 64
1, 98270, Control_c, 0, 67, 38
1, 98300, Control_c, 0, 67, 37
1, 98312, Note_on_c, 0, 52, 97
1, 98312, Note_on_c, 0, 62, 92
1, 98315, Note_on_c, 0, 56, 88
1, 98315, Control_c, 0, 64, 37
1, 98318, Note_on_c, 0, 59, 81
1, 98327, Note_on_c, 0, 94, 77
1, 98327, Note_on_c, 0, 86, 87
1, 98330, Control_c, 0, 64, 60
1, 98344, Note_off_c, 0, 52, 63
1, 98345, Control_c, 0, 64, 68
1, 98358, Note_off_c, 0, 59, 61
1, 98359, Control_c, 0, 64, 78
1, 98363, Note_off_c, 0, 56, 65
1, 98368, Note_off_c, 0, 62, 63
1, 98374, Control_c, 0, 64, 91
1, 98374, Control_c, 0, 67, 38
1, 98389, Control_c, 0, 64, 108
1, 98389, Control_c, 0, 67, 40
1, 98395, Note_off_c, 0, 94, 63
1, 98400, Note_off_c, 0, 86, 60
1, 98404, Control_c, 0, 64, 118
1, 98404, Control_c, 0, 67, 40
1, 98425, Control_c, 0, 64, 118
1, 98425, Control_c, 0, 67, 41
1, 98438, Note_on_c, 0, 83, 59
1, 98440, Control_c, 0, 67, 42
1, 98442, Note_on_c, 0, 88, 66
1, 98455, Control_c, 0, 67, 43
1, 98457, Note_off_c, 0, 83, 67
1, 98463, Note_off_c, 0, 88, 66
1, 98470, Control_c, 0, 67, 44
1, 98485, Control_c, 0, 67, 44
1, 98560, Control_c, 0, 64, 113
1, 98574, Note_on_c, 0, 77, 103
1, 98575, Note_on_c, 0, 64, 89
1, 98575, Control_c, 0, 64, 98
1, 98578, Note_on_c, 0, 68, 95
1, 98580, Note_on_c, 0, 92, 75
1, 98581, Note_on_c, 0, 72, 82
1, 98583, Note_on_c, 0, 100, 50
1, 98589, Note_on_c, 0, 97, 79
1, 98590, Control_c, 0, 64, 83
1, 98590, Control_c, 0, 67, 45
1, 98601, Note_on_c, 0, 88, 59
1, 98604, Control_c, 0, 64, 70
1, 98604, Control_c, 0, 67, 45
1, 98613, Note_off_c, 0, 100, 66
1, 98619, Control_c, 0, 64, 53
1, 98634, Control_c, 0, 64, 44
1, 98636, Note_off_c, 0, 92, 65
1, 98637, Note_off_c, 0, 77, 65
1, 98639, Note_off_c, 0, 72, 65
1, 98649, Control_c, 0, 64, 62
1, 98652, Note_off_c, 0, 88, 60
1, 98655, Note_off_c, 0, 97, 64
1, 98657, Note_off_c, 0, 68, 64
1, 98658, Note_off_c, 0, 64, 65
1, 98664, Control_c, 0, 64, 70
1, 98664, Control_c, 0, 67, 45
1, 98678, Control_c, 0, 64, 82
1, 98678, Control_c, 0, 67, 44
1, 98693, Control_c, 0, 64, 93
1, 98708, Control_c, 0, 64, 100
1, 98708, Control_c, 0, 67, 44
1, 98723, Control_c, 0, 64, 105
1, 98726, Note_on_c, 0, 97, 70
1, 98737, Note_on_c, 0, 88, 62
1, 98738, Control_c, 0, 64, 110
1, 98753, Control_c, 0, 64, 111
1, 98753, Control_c, 0, 67, 43
1, 98768, Control_c, 0, 64, 112
1, 98783, Control_c, 0, 67, 42
1, 98797, Control_c, 0, 67, 42
1, 98808, Note_off_c, 0, 97, 64
1, 98812, Control_c, 0, 67, 41
1, 98849, Note_off_c, 0, 88, 54
1, 98851, Note_on_c, 0, 94, 80
1, 98856, Note_on_c, 0, 70, 94
1, 98856, Control_c, 0, 64, 104
1, 98856, Control_c, 0, 67, 41
1, 98857, Note_on_c, 0, 68, 81
1, 98857, Note_on_c, 0, 59, 80
1, 98863, Note_on_c, 0, 64, 77
1, 98865, Note_on_c, 0, 86, 67
1, 98869, Note_on_c, 0, 62, 65
1, 98871, Control_c, 0, 64, 92
1, 98886, Control_c, 0, 64, 79
1, 98886, Control_c, 0, 67, 40
1, 98901, Note_on_c, 0, 61, 34
1, 98901, Control_c, 0, 64, 66
1, 98910, Note_off_c, 0, 86, 63
1, 98911, Note_off_c, 0, 94, 63
1, 98915, Control_c, 0, 64, 0
1, 98930, Control_c, 0, 67, 40
1, 98939, Note_off_c, 0, 61, 30
1, 98945, Control_c, 0, 67, 39
1, 98988, Note_on_c, 0, 86, 64
1, 98989, Control_c, 0, 67, 39
1, 98997, Note_on_c, 0, 94, 64
1, 99047, Note_off_c, 0, 94, 62
1, 99054, Note_off_c, 0, 86, 63
1, 99063, Control_c, 0, 64, 44
1, 99078, Control_c, 0, 64, 59
1, 99093, Control_c, 0, 64, 65
1, 99093, Control_c, 0, 67, 39
1, 99100, Note_on_c, 0, 83, 56
1, 99105, Note_on_c, 0, 88, 60
1, 99108, Control_c, 0, 64, 69
1, 99118, Note_off_c, 0, 83, 63
1, 99123, Control_c, 0, 64, 74
1, 99123, Control_c, 0, 67, 40
1, 99124, Note_off_c, 0, 88, 62
1, 99137, Control_c, 0, 64, 78
1, 99152, Control_c, 0, 64, 83
1, 99175, Control_c, 0, 64, 85
1, 99190, Control_c, 0, 64, 87
1, 99204, Control_c, 0, 64, 90
1, 99204, Control_c, 0, 67, 40
1, 99217, Note_on_c, 0, 100, 63
1, 99219, Control_c, 0, 64, 92
1, 99230, Note_on_c, 0, 92, 79
1, 99234, Control_c, 0, 64, 94
1, 99243, Note_on_c, 0, 97, 76
1, 99243, Note_off_c, 0, 100, 67
1, 99248, Control_c, 0, 64, 96
1, 99252, Note_on_c, 0, 88, 56
1, 99263, Control_c, 0, 64, 98
1, 99278, Note_off_c, 0, 92, 66
1, 99278, Control_c, 0, 64, 100
1, 99278, Control_c, 0, 67, 41
1, 99284, Note_off_c, 0, 97, 58
1, 99290, Note_off_c, 0, 88, 62
1, 99293, Control_c, 0, 64, 103
1, 99308, Control_c, 0, 64, 104
1, 99322, Control_c, 0, 64, 106
1, 99338, Control_c, 0, 64, 109
1, 99338, Control_c, 0, 67, 41
1, 99353, Control_c, 0, 64, 111
1, 99368, Control_c, 0, 64, 112
1, 99368, Control_c, 0, 67, 42
1, 99376, Note_on_c, 0, 97, 75
1, 99382, Note_on_c, 0, 88, 65
1, 99398, Control_c, 0, 64, 112
1, 99413, Control_c, 0, 64, 119
1, 99427, Control_c, 0, 64, 127
1, 99430, Note_off_c, 0, 97, 61
1, 99443, Note_off_c, 0, 88, 57
1, 99488, Note_on_c, 0, 94, 72
1, 99494, Note_on_c, 0, 86, 61
1, 99515, Control_c, 0, 67, 42
1, 99517, Note_off_c, 0, 94, 59
1, 99526, Note_off_c, 0, 86, 65
1, 99583, Note_off_c, 0, 59, 62
1, 99585, Note_off_c, 0, 70, 62
1, 99588, Note_off_c, 0, 62, 58
1, 99597, Note_off_c, 0, 64, 62
1, 99597, Note_off_c, 0, 68, 60
1, 99611, Note_on_c, 0, 94, 77
1, 99623, Note_on_c, 0, 86, 70
1, 99677, Note_off_c, 0, 94, 62
1, 99679, Note_off_c, 0, 86, 59
1, 99692, Control_c, 0, 67, 42
1, 99726, Note_on_c, 0, 88, 72
1, 99731, Note_on_c, 0, 83, 52
1, 99751, Note_off_c, 0, 83, 62
1, 99753, Note_off_c, 0, 88, 64
1, 99781, Control_c, 0, 67, 41
1, 99811, Control_c, 0, 64, 122
1, 99826, Control_c, 0, 64, 105
1, 99830, Note_on_c, 0, 65, 87
1, 99832, Note_on_c, 0, 64, 87
1, 99835, Note_on_c, 0, 56, 89
1, 99838, Note_on_c, 0, 59, 80
1, 99841, Control_c, 0, 64, 95
1, 99844, Note_on_c, 0, 100, 77
1, 99850, Note_on_c, 0, 92, 87
1, 99856, Control_c, 0, 64, 85
1, 99856, Control_c, 0, 67, 42
1, 99860, Note_on_c, 0, 97, 83
1, 99860, Note_off_c, 0, 65, 62
1, 99862, Note_on_c, 0, 88, 77
1, 99867, Note_off_c, 0, 64, 62
1, 99870, Control_c, 0, 64, 76
1, 99870, Control_c, 0, 67, 43
1, 99872, Note_off_c, 0, 100, 62
1, 99878, Note_off_c, 0, 56, 66
1, 99878, Note_off_c, 0, 59, 65
1, 99885, Control_c, 0, 64, 68
1, 99885, Control_c, 0, 67, 44
1, 99898, Note_off_c, 0, 92, 65
1, 99900, Control_c, 0, 64, 61
1, 99900, Control_c, 0, 67, 44
1, 99904, Note_off_c, 0, 88, 54
1, 99922, Control_c, 0, 64, 57
1, 99922, Control_c, 0, 67, 45
1, 99927, Note_off_c, 0, 97, 65
1, 99937, Control_c, 0, 67, 45
1, 99999, Note_on_c, 0, 97, 72
1, 100008, Note_on_c, 0, 88, 70
1, 100026, Control_c, 0, 64, 58
1, 100026, Control_c, 0, 67, 45
1, 100070, Control_c, 0, 67, 44
1, 100074, Note_off_c, 0, 97, 64
1, 100085, Control_c, 0, 64, 57
1, 100100, Control_c, 0, 64, 55
1, 100100, Control_c, 0, 67, 44
1, 100111, Note_on_c, 0, 62, 92
1, 100115, Control_c, 0, 64, 52
1, 100115, Control_c, 0, 67, 43
1, 100116, Note_on_c, 0, 52, 87
1, 100117, Note_on_c, 0, 94, 81
1, 100118, Note_on_c, 0, 56, 84
1, 100118, Note_on_c, 0, 59, 84
1, 100120, Note_on_c, 0, 86, 73
1, 100120, Note_off_c, 0, 88, 43
1, 100130, Control_c, 0, 64, 46
1, 100145, Control_c, 0, 64, 44
1, 100145, Control_c, 0, 67, 43
1, 100160, Control_c, 0, 64, 46
1, 100170, Note_off_c, 0, 94, 63
1, 100172, Note_off_c, 0, 86, 65
1, 100175, Control_c, 0, 64, 53
1, 100175, Control_c, 0, 67, 42
1, 100190, Control_c, 0, 64, 61
1, 100205, Control_c, 0, 64, 64
1, 100220, Control_c, 0, 64, 67
1, 100234, Control_c, 0, 64, 71
1, 100234, Control_c, 0, 67, 42
1, 100249, Control_c, 0, 64, 76
1, 100254, Note_on_c, 0, 86, 68
1, 100259, Note_off_c, 0, 59, 62
1, 100264, Control_c, 0, 64, 83
1, 100267, Note_on_c, 0, 94, 64
1, 100270, Note_off_c, 0, 52, 62
1, 100278, Note_off_c, 0, 62, 60
1, 100279, Control_c, 0, 64, 89
1, 100279, Control_c, 0, 67, 41
1, 100281, Note_off_c, 0, 56, 65
1, 100293, Control_c, 0, 64, 94
1, 100302, Note_off_c, 0, 94, 59
1, 100308, Control_c, 0, 64, 95
1, 100319, Note_off_c, 0, 86, 64
1, 100323, Control_c, 0, 64, 96
1, 100338, Control_c, 0, 64, 96
1, 100364, Note_on_c, 0, 88, 72
1, 100367, Control_c, 0, 67, 41
1, 100369, Note_on_c, 0, 83, 56
1, 100387, Note_off_c, 0, 83, 63
1, 100389, Note_off_c, 0, 88, 69
1, 100397, Control_c, 0, 64, 97
1, 100397, Control_c, 0, 67, 40
1, 100411, Control_c, 0, 64, 98
1, 100411, Control_c, 0, 67, 39
1, 100426, Control_c, 0, 64, 98
1, 100426, Control_c, 0, 67, 38
1, 100441, Control_c, 0, 67, 36
1, 100456, Control_c, 0, 67, 34
1, 100471, Control_c, 0, 64, 97
1, 100471, Control_c, 0, 67, 28
1, 100480, Note_on_c, 0, 58, 94
1, 100481, Note_on_c, 0, 56, 81
1, 100485, Note_on_c, 0, 100, 77
1, 100485, Note_on_c, 0, 50, 74
1, 100486, Control_c, 0, 64, 91
1, 100486, Control_c, 0, 67, 19
1, 100487, Note_on_c, 0, 47, 67
1, 100488, Note_on_c, 0, 92, 89
1, 100494, Note_on_c, 0, 52, 72
1, 100496, Note_on_c, 0, 97, 86
1, 100497, Note_on_c, 0, 88, 77
1, 100501, Control_c, 0, 64, 82
1, 100501, Control_c, 0, 67, 0
1, 100508, Note_off_c, 0, 100, 67
1, 100509, Note_off_c, 0, 47, 62
1, 100516, Control_c, 0, 64, 73
1, 100521, Note_off_c, 0, 52, 68
1, 100527, Note_off_c, 0, 50, 64
1, 100528, Note_off_c, 0, 56, 66
1, 100531, Control_c, 0, 64, 65
1, 100536, Note_off_c, 0, 92, 66
1, 100537, Note_off_c, 0, 58, 64
1, 100546, Control_c, 0, 64, 57
1, 100555, Note_off_c, 0, 97, 65
1, 100559, Note_off_c, 0, 88, 62
1, 100560, Control_c, 0, 64, 51
1, 100590, Control_c, 0, 64, 53
1, 100605, Control_c, 0, 64, 54
1, 100625, Note_on_c, 0, 88, 65
1, 100628, Note_on_c, 0, 97, 71
1, 100701, Control_c, 0, 64, 54
1, 100705, Note_off_c, 0, 97, 64
1, 100716, Control_c, 0, 64, 52
1, 100729, Note_off_c, 0, 88, 57
1, 100731, Control_c, 0, 64, 50
1, 100746, Control_c, 0, 64, 47
1, 100747, Note_on_c, 0, 61, 87
1, 100754, Note_on_c, 0, 94, 90
1, 100759, Note_on_c, 0, 56, 82
1, 100761, Control_c, 0, 64, 46
1, 100763, Note_on_c, 0, 52, 74
1, 100765, Note_on_c, 0, 86, 75
1, 100765, Note_on_c, 0, 50, 65
1, 100778, Note_on_c, 0, 49, 29
1, 100790, Control_c, 0, 64, 47
1, 100805, Control_c, 0, 64, 49
1, 100813, Note_off_c, 0, 94, 64
1, 100813, Note_off_c, 0, 86, 65
1, 100819, Note_off_c, 0, 49, 51
1, 100819, Control_c, 0, 64, 53
1, 100834, Control_c, 0, 64, 57
1, 100849, Control_c, 0, 64, 61
1, 100864, Control_c, 0, 64, 63
1, 100879, Control_c, 0, 64, 64
1, 100890, Note_on_c, 0, 94, 80
1, 100893, Note_on_c, 0, 86, 78
1, 100894, Control_c, 0, 64, 66
1, 100909, Control_c, 0, 64, 68
1, 100924, Control_c, 0, 64, 72
1, 100940, Control_c, 0, 64, 76
1, 100955, Control_c, 0, 64, 86
1, 100969, Note_off_c, 0, 94, 63
1, 100970, Control_c, 0, 64, 98
1, 100985, Control_c, 0, 64, 127
1, 101006, Note_on_c, 0, 88, 79
1, 101007, Note_on_c, 0, 83, 79
1, 101042, Note_off_c, 0, 83, 62
1, 101045, Note_off_c, 0, 88, 62
1, 101051, Note_off_c, 0, 86, 49
1, 101060, Note_off_c, 0, 50, 62
1, 101078, Note_off_c, 0, 52, 61
1, 101081, Note_off_c, 0, 56, 64
1, 101117, Note_off_c, 0, 61, 60
1, 101311, Note_on_c, 0, 72, 92
1, 101311, Note_on_c, 0, 78, 96
1, 101311, Control_c, 0, 64, 98
1, 101311, Note_on_c, 0, 64, 93
1, 101311, Note_on_c, 0, 69, 94
1, 101313, Note_on_c, 0, 66, 92
1, 101316, Note_on_c, 0, 52, 82
1, 101316, Note_on_c, 0, 60, 86
1, 101318, Note_on_c, 0, 55, 81
1, 101325, Control_c, 0, 64, 71
1, 101340, Control_c, 0, 64, 0
1, 101382, Note_on_c, 0, 75, 17
1, 101385, Control_c, 0, 64, 33
1, 101400, Control_c, 0, 64, 70
1, 101422, Control_c, 0, 64, 87
1, 101437, Control_c, 0, 64, 127
1, 101498, Note_off_c, 0, 78, 50
1, 101510, Note_off_c, 0, 55, 60
1, 101512, Note_off_c, 0, 72, 56
1, 101513, Note_off_c, 0, 69, 57
1, 101514, Note_off_c, 0, 60, 62
1, 101529, Note_off_c, 0, 52, 54
1, 101535, Note_off_c, 0, 75, 44
1, 101567, Note_off_c, 0, 64, 47
1, 101579, Note_off_c, 0, 66, 48
1, 101749, Control_c, 0, 64, 107
1, 101752, Note_on_c, 0, 76, 94
1, 101756, Note_on_c, 0, 70, 92
1, 101757, Note_on_c, 0, 64, 95
1, 101757, Note_on_c, 0, 67, 95
1, 101761, Note_on_c, 0, 50, 83
1, 101761, Note_on_c, 0, 62, 91
1, 101764, Control_c, 0, 64, 80
1, 101764, Note_on_c, 0, 58, 87
1, 101766, Note_on_c, 0, 54, 83
1, 101779, Control_c, 0, 64, 56
1, 101793, Control_c, 0, 64, 0
1, 101804, Note_on_c, 0, 73, 42
1, 101823, Control_c, 0, 64, 38
1, 101838, Control_c, 0, 64, 68
1, 101853, Control_c, 0, 64, 80
1, 101853, Note_off_c, 0, 50, 63
1, 101861, Note_off_c, 0, 76, 59
1, 101867, Control_c, 0, 64, 99
1, 101874, Note_off_c, 0, 62, 57
1, 101882, Control_c, 0, 64, 127
1, 101883, Note_off_c, 0, 67, 63
1, 101887, Note_off_c, 0, 58, 62
1, 101888, Note_off_c, 0, 73, 40
1, 101898, Note_off_c, 0, 70, 62
1, 101900, Note_off_c, 0, 64, 56
1, 101938, Note_off_c, 0, 54, 50
1, 102059, Control_c, 0, 64, 103
1, 102061, Note_on_c, 0, 69, 82
1, 102064, Note_on_c, 0, 66, 87
1, 102064, Note_on_c, 0, 75, 89
1, 102067, Note_on_c, 0, 61, 88
1, 102068, Note_on_c, 0, 63, 90
1, 102068, Note_on_c, 0, 49, 83
1, 102070, Note_on_c, 0, 57, 78
1, 102074, Control_c, 0, 64, 74
1, 102075, Note_on_c, 0, 52, 76
1, 102089, Control_c, 0, 64, 0
1, 102133, Control_c, 0, 64, 54
1, 102148, Control_c, 0, 64, 75
1, 102154, Note_off_c, 0, 63, 62
1, 102171, Control_c, 0, 64, 94
1, 102180, Note_off_c, 0, 69, 61
1, 102186, Note_off_c, 0, 66, 61
1, 102186, Control_c, 0, 64, 127
1, 102216, Note_off_c, 0, 75, 65
1, 102238, Note_off_c, 0, 52, 60
1, 102239, Note_off_c, 0, 49, 61
1, 102253, Note_off_c, 0, 57, 61
1, 102277, Note_off_c, 0, 61, 62
1, 102394, Note_on_c, 0, 93, 67
1, 102408, Control_c, 0, 67, 9
1, 102422, Control_c, 0, 67, 12
1, 102424, Note_on_c, 0, 96, 73
1, 102426, Note_on_c, 0, 99, 53
1, 102437, Note_on_c, 0, 88, 64
1, 102437, Control_c, 0, 67, 14
1, 102449, Note_off_c, 0, 99, 63
1, 102452, Control_c, 0, 67, 17
1, 102458, Note_off_c, 0, 93, 63
1, 102467, Control_c, 0, 67, 20
1, 102473, Note_off_c, 0, 88, 59
1, 102478, Note_off_c, 0, 96, 64
1, 102482, Control_c, 0, 67, 22
1, 102497, Control_c, 0, 67, 23
1, 102512, Control_c, 0, 67, 24
1, 102527, Control_c, 0, 67, 26
1, 102542, Control_c, 0, 67, 28
1, 102551, Note_on_c, 0, 96, 70
1, 102557, Control_c, 0, 67, 31
1, 102558, Note_on_c, 0, 69, 57
1, 102571, Control_c, 0, 67, 32
1, 102586, Control_c, 0, 67, 34
1, 102596, Note_on_c, 0, 88, 51
1, 102601, Control_c, 0, 67, 35
1, 102616, Control_c, 0, 67, 35
1, 102625, Note_off_c, 0, 96, 52
1, 102631, Control_c, 0, 67, 36
1, 102632, Note_off_c, 0, 69, 57
1, 102643, Note_off_c, 0, 88, 58
1, 102661, Control_c, 0, 67, 36
1, 102681, Note_on_c, 0, 93, 71
1, 102685, Note_on_c, 0, 85, 70
1, 102686, Note_on_c, 0, 76, 62
1, 102724, Note_off_c, 0, 85, 59
1, 102724, Note_off_c, 0, 93, 60
1, 102764, Control_c, 0, 67, 35
1, 102794, Control_c, 0, 67, 34
1, 102808, Control_c, 0, 67, 34
1, 102815, Note_on_c, 0, 73, 69
1, 102818, Note_off_c, 0, 76, 57
1, 102822, Note_on_c, 0, 93, 67
1, 102830, Note_on_c, 0, 85, 69
1, 102868, Control_c, 0, 67, 33
1, 102897, Control_c, 0, 67, 34
1, 102920, Note_off_c, 0, 93, 39
1, 102926, Note_off_c, 0, 73, 60
1, 102935, Control_c, 0, 67, 34
1, 102938, Note_off_c, 0, 85, 62
1, 102939, Note_on_c, 0, 88, 69
1, 102953, Note_on_c, 0, 81, 37
1, 102959, Note_on_c, 0, 82, 60
1, 102963, Note_off_c, 0, 88, 68
1, 102964, Control_c, 0, 67, 35
1, 102979, Control_c, 0, 67, 36
1, 102982, Note_off_c, 0, 81, 56
1, 102994, Control_c, 0, 67, 36
1, 103033, Note_off_c, 0, 82, 39
1, 103066, Note_on_c, 0, 73, 63
1, 103068, Control_c, 0, 67, 37
1, 103069, Note_on_c, 0, 99, 62
1, 103071, Note_on_c, 0, 93, 65
1, 103078, Note_on_c, 0, 96, 73
1, 103090, Note_off_c, 0, 99, 66
1, 103097, Control_c, 0, 67, 37
1, 103106, Note_on_c, 0, 88, 67
1, 103108, Note_off_c, 0, 93, 64
1, 103127, Control_c, 0, 67, 38
1, 103131, Note_off_c, 0, 96, 65
1, 103135, Note_off_c, 0, 88, 64
1, 103201, Control_c, 0, 67, 37
1, 103210, Note_on_c, 0, 82, 63
1, 103224, Note_on_c, 0, 96, 64
1, 103230, Note_off_c, 0, 73, 52
1, 103247, Note_on_c, 0, 88, 46
1, 103260, Control_c, 0, 67, 37
1, 103266, Note_off_c, 0, 82, 61
1, 103272, Note_off_c, 0, 96, 62
1, 103284, Note_off_c, 0, 88, 49
1, 103320, Control_c, 0, 67, 36
1, 103340, Note_on_c, 0, 93, 67
1, 103344, Note_on_c, 0, 85, 69
1, 103355, Note_on_c, 0, 76, 48
1, 103375, Note_off_c, 0, 85, 62
1, 103376, Note_off_c, 0, 93, 61
1, 103394, Control_c, 0, 67, 36
1, 103424, Control_c, 0, 67, 35
1, 103466, Note_off_c, 0, 76, 45
1, 103468, Note_on_c, 0, 69, 61
1, 103478, Note_on_c, 0, 85, 74
1, 103483, Note_on_c, 0, 93, 69
1, 103513, Control_c, 0, 67, 35
1, 103537, Note_off_c, 0, 93, 56
1, 103545, Note_off_c, 0, 69, 58
1, 103592, Note_off_c, 0, 85, 56
1, 103596, Note_on_c, 0, 88, 67
1, 103601, Note_on_c, 0, 76, 60
1, 103621, Note_off_c, 0, 88, 66
1, 103668, Control_c, 0, 67, 34
1, 103719, Note_on_c, 0, 93, 78
1, 103727, Note_on_c, 0, 99, 61
1, 103728, Note_on_c, 0, 96, 76
1, 103734, Note_on_c, 0, 73, 71
1, 103734, Note_off_c, 0, 76, 54
1, 103743, Control_c, 0, 67, 35
1, 103746, Note_off_c, 0, 99, 62
1, 103756, Note_on_c, 0, 88, 65
1, 103762, Note_off_c, 0, 93, 61
1, 103785, Note_off_c, 0, 96, 64
1, 103787, Note_off_c, 0, 88, 65
1, 103836, Note_off_c, 0, 73, 56
1, 103877, Note_on_c, 0, 82, 66
1, 103884, Note_on_c, 0, 96, 62
1, 103894, Note_on_c, 0, 88, 59
1, 103906, Control_c, 0, 67, 35
1, 103913, Note_off_c, 0, 96, 53
1, 103929, Note_off_c, 0, 88, 62
1, 103952, Note_off_c, 0, 82, 55
1, 103995, Note_on_c, 0, 93, 72
1, 103997, Note_on_c, 0, 85, 71
1, 103999, Note_on_c, 0, 73, 61
1, 104024, Control_c, 0, 67, 35
1, 104026, Note_off_c, 0, 85, 62
1, 104027, Note_off_c, 0, 93, 61
1, 104068, Control_c, 0, 67, 34
1, 104090, Note_off_c, 0, 73, 49
1, 104125, Note_on_c, 0, 82, 64
1, 104131, Note_on_c, 0, 85, 76
1, 104134, Note_on_c, 0, 93, 72
1, 104161, Note_off_c, 0, 82, 58
1, 104195, Note_off_c, 0, 93, 59
1, 104241, Note_on_c, 0, 88, 72
1, 104242, Note_off_c, 0, 85, 61
1, 104262, Note_on_c, 0, 76, 53
1, 104262, Note_on_c, 0, 81, 26
1, 104262, Note_off_c, 0, 88, 69
1, 104297, Note_off_c, 0, 81, 49
1, 104336, Control_c, 0, 67, 34
1, 104368, Note_on_c, 0, 93, 78
1, 104370, Note_off_c, 0, 76, 32
1, 104372, Note_on_c, 0, 69, 64
1, 104372, Note_on_c, 0, 96, 75
1, 104380, Note_on_c, 0, 99, 50
1, 104393, Note_on_c, 0, 88, 71
1, 104400, Note_off_c, 0, 93, 59
1, 104412, Note_off_c, 0, 99, 59
1, 104434, Note_off_c, 0, 96, 64
1, 104436, Note_off_c, 0, 88, 62
1, 104455, Note_off_c, 0, 69, 59
1, 104514, Note_on_c, 0, 76, 61
1, 104536, Control_c, 0, 67, 33
1, 104539, Note_on_c, 0, 96, 61
1, 104542, Note_on_c, 0, 88, 63
1, 104565, Note_off_c, 0, 96, 56
1, 104577, Note_off_c, 0, 88, 63
1, 104616, Poly_aftertouch_c, 0, 95, 127
1, 104631, Poly_aftertouch_c, 0, 95, 0
1, 104634, Note_off_c, 0, 76, 56
1, 104634, Note_on_c, 0, 73, 66
1, 104640, Control_c, 0, 67, 34
1, 104644, Note_on_c, 0, 93, 75
1, 104645, Note_on_c, 0, 85, 77
1, 104670, Note_off_c, 0, 93, 62
1, 104676, Note_off_c, 0, 85, 62
1, 104714, Control_c, 0, 67, 34
1, 104743, Note_off_c, 0, 73, 60
1, 104758, Control_c, 0, 67, 35
1, 104771, Note_on_c, 0, 82, 72
1, 104772, Note_on_c, 0, 93, 81
1, 104773, Note_on_c, 0, 85, 85
1, 104773, Control_c, 0, 67, 35
1, 104843, Note_off_c, 0, 82, 65
1, 104846, Note_off_c, 0, 93, 61
1, 104892, Note_on_c, 0, 81, 72
1, 104897, Note_on_c, 0, 88, 84
1, 104901, Note_on_c, 0, 73, 87
1, 104914, Note_off_c, 0, 81, 70
1, 104920, Note_off_c, 0, 85, 64
1, 104935, Note_off_c, 0, 88, 65
1, 104947, Note_off_c, 0, 73, 64
1, 104996, Control_c, 0, 64, 118
1, 105010, Control_c, 0, 64, 92
1, 105025, Control_c, 0, 64, 75
1, 105040, Control_c, 0, 64, 59
1, 105055, Control_c, 0, 64, 0
1, 105099, Control_c, 0, 64, 38
1, 105114, Control_c, 0, 64, 43
1, 105129, Control_c, 0, 64, 43
1, 105179, Note_on_c, 0, 99, 87
1, 105183, Note_on_c, 0, 71, 90
1, 105189, Note_on_c, 0, 102, 91
1, 105189, Note_on_c, 0, 66, 87
1, 105191, Note_on_c, 0, 62, 76
1, 105192, Note_on_c, 0, 69, 82
1, 105195, Note_on_c, 0, 95, 89
1, 105198, Note_on_c, 0, 104, 82
1, 105227, Note_off_c, 0, 69, 63
1, 105237, Note_off_c, 0, 71, 65
1, 105237, Note_off_c, 0, 104, 62
1, 105239, Note_off_c, 0, 99, 65
1, 105242, Note_off_c, 0, 62, 60
1, 105250, Note_off_c, 0, 66, 62
1, 105255, Control_c, 0, 64, 44
1, 105257, Note_off_c, 0, 95, 66
1, 105260, Note_off_c, 0, 102, 64
1, 105285, Control_c, 0, 64, 44
1, 105285, Control_c, 0, 67, 36
1, 105329, Note_on_c, 0, 102, 81
1, 105330, Note_on_c, 0, 95, 71
1, 105344, Control_c, 0, 64, 45
1, 105359, Control_c, 0, 64, 45
1, 105374, Control_c, 0, 64, 46
1, 105406, Note_off_c, 0, 102, 62
1, 105418, Control_c, 0, 64, 46
1, 105433, Control_c, 0, 64, 47
1, 105439, Note_on_c, 0, 68, 76
1, 105441, Note_on_c, 0, 69, 82
1, 105444, Note_on_c, 0, 63, 80
1, 105448, Control_c, 0, 64, 48
1, 105451, Note_on_c, 0, 99, 87
1, 105454, Note_on_c, 0, 59, 64
1, 105455, Note_on_c, 0, 93, 79
1, 105458, Note_off_c, 0, 95, 32
1, 105463, Control_c, 0, 64, 48
1, 105471, Note_off_c, 0, 68, 64
1, 105478, Note_off_c, 0, 69, 65
1, 105481, Note_off_c, 0, 59, 65
1, 105492, Control_c, 0, 64, 49
1, 105494, Note_off_c, 0, 63, 63
1, 105502, Note_off_c, 0, 93, 63
1, 105510, Note_off_c, 0, 99, 63
1, 105566, Control_c, 0, 64, 49
1, 105571, Note_on_c, 0, 65, 79
1, 105574, Note_on_c, 0, 66, 85
1, 105576, Note_on_c, 0, 57, 79
1, 105581, Control_c, 0, 64, 50
1, 105581, Control_c, 0, 67, 36
1, 105582, Note_on_c, 0, 93, 79
1, 105583, Note_on_c, 0, 62, 70
1, 105588, Note_on_c, 0, 99, 77
1, 105596, Control_c, 0, 64, 50
1, 105610, Control_c, 0, 64, 51
1, 105632, Note_off_c, 0, 57, 63
1, 105639, Note_off_c, 0, 65, 64
1, 105640, Control_c, 0, 64, 51
1, 105648, Note_off_c, 0, 62, 63
1, 105660, Note_off_c, 0, 99, 61
1, 105661, Note_off_c, 0, 66, 62
1, 105672, Note_off_c, 0, 93, 61
1, 105696, Note_on_c, 0, 97, 82
1, 105699, Note_on_c, 0, 90, 67
1, 105714, Control_c, 0, 64, 52
1, 105725, Note_off_c, 0, 90, 68
1, 105738, Note_off_c, 0, 97, 63
1, 105789, Control_c, 0, 67, 36
1, 105813, Note_on_c, 0, 99, 90
1, 105824, Note_on_c, 0, 71, 95
1, 105830, Note_on_c, 0, 69, 82
1, 105833, Note_on_c, 0, 66, 81
1, 105835, Note_on_c, 0, 62, 78
1, 105842, Note_on_c, 0, 95, 84
1, 105844, Note_on_c, 0, 102, 85
1, 105848, Control_c, 0, 64, 52
1, 105848, Control_c, 0, 67, 36
1, 105849, Note_on_c, 0, 104, 65
1, 105863, Control_c, 0, 64, 53
1, 105874, Note_off_c, 0, 69, 63
1, 105877, Note_off_c, 0, 99, 63
1, 105878, Control_c, 0, 67, 36
1, 105880, Note_off_c, 0, 104, 67
1, 105893, Note_off_c, 0, 62, 63
1, 105898, Note_off_c, 0, 71, 61
1, 105898, Note_off_c, 0, 95, 65
1, 105900, Note_off_c, 0, 66, 62
1, 105910, Note_off_c, 0, 102, 64
1, 105945, Control_c, 0, 64, 53
1, 105985, Note_on_c, 0, 95, 71
1, 105991, Note_on_c, 0, 102, 71
1, 106033, Control_c, 0, 67, 35
1, 106050, Note_off_c, 0, 102, 61
1, 106091, Note_on_c, 0, 59, 74
1, 106091, Note_on_c, 0, 68, 74
1, 106092, Note_on_c, 0, 69, 79
1, 106095, Note_on_c, 0, 63, 72
1, 106098, Note_on_c, 0, 99, 89
1, 106102, Note_on_c, 0, 93, 79
1, 106105, Note_off_c, 0, 95, 59
1, 106119, Note_off_c, 0, 68, 64
1, 106128, Note_off_c, 0, 69, 65
1, 106132, Note_off_c, 0, 59, 63
1, 106137, Note_off_c, 0, 63, 58
1, 106149, Note_off_c, 0, 93, 64
1, 106158, Note_off_c, 0, 99, 62
1, 106196, Control_c, 0, 64, 53
1, 106217, Note_on_c, 0, 57, 81
1, 106217, Note_on_c, 0, 65, 74
1, 106223, Note_on_c, 0, 62, 64
1, 106229, Note_on_c, 0, 66, 77
1, 106232, Note_on_c, 0, 93, 83
1, 106232, Note_on_c, 0, 99, 80
1, 106241, Control_c, 0, 64, 53
1, 106263, Note_off_c, 0, 57, 63
1, 106282, Note_off_c, 0, 65, 63
1, 106289, Note_off_c, 0, 62, 61
1, 106301, Note_off_c, 0, 66, 60
1, 106309, Note_off_c, 0, 99, 62
1, 106330, Note_off_c, 0, 93, 48
1, 106349, Note_on_c, 0, 97, 80
1, 106351, Note_on_c, 0, 90, 61
1, 106359, Control_c, 0, 64, 54
1, 106369, Note_off_c, 0, 90, 66
1, 106389, Control_c, 0, 64, 54
1, 106393, Note_off_c, 0, 97, 66
1, 106463, Control_c, 0, 64, 55
1, 106463, Control_c, 0, 67, 36
1, 106467, Note_on_c, 0, 99, 93
1, 106476, Note_on_c, 0, 72, 89
1, 106478, Control_c, 0, 64, 56
1, 106478, Control_c, 0, 67, 36
1, 106479, Note_on_c, 0, 69, 80
1, 106481, Note_on_c, 0, 64, 82
1, 106485, Note_on_c, 0, 61, 80
1, 106485, Note_on_c, 0, 96, 83
1, 106493, Control_c, 0, 64, 56
1, 106500, Note_on_c, 0, 102, 81
1, 106503, Note_on_c, 0, 104, 60
1, 106507, Control_c, 0, 64, 57
1, 106515, Note_off_c, 0, 72, 66
1, 106517, Note_off_c, 0, 69, 64
1, 106526, Note_off_c, 0, 99, 65
1, 106526, Note_off_c, 0, 104, 64
1, 106538, Control_c, 0, 64, 58
1, 106541, Note_off_c, 0, 96, 66
1, 106544, Note_off_c, 0, 64, 64
1, 106546, Note_off_c, 0, 61, 63
1, 106552, Note_off_c, 0, 102, 64
1, 106553, Control_c, 0, 64, 58
1, 106634, Note_on_c, 0, 96, 70
1, 106639, Note_on_c, 0, 102, 75
1, 106642, Control_c, 0, 64, 58
1, 106679, Control_c, 0, 67, 36
1, 106709, Control_c, 0, 64, 57
1, 106724, Note_off_c, 0, 102, 58
1, 106763, Note_on_c, 0, 99, 82
1, 106766, Note_on_c, 0, 61, 86
1, 106766, Note_on_c, 0, 64, 89
1, 106767, Note_on_c, 0, 93, 78
1, 106768, Note_on_c, 0, 57, 83
1, 106768, Control_c, 0, 64, 57
1, 106773, Note_off_c, 0, 96, 54
1, 106776, Note_on_c, 0, 54, 82
1, 106797, Control_c, 0, 64, 56
1, 106797, Control_c, 0, 67, 35
1, 106813, Note_off_c, 0, 93, 63
1, 106819, Note_off_c, 0, 99, 63
1, 106886, Control_c, 0, 67, 36
1, 106905, Note_on_c, 0, 93, 74
1, 106924, Note_on_c, 0, 99, 65
1, 106955, Note_off_c, 0, 99, 56
1, 106960, Control_c, 0, 67, 35
1, 106971, Note_off_c, 0, 93, 63
1, 107020, Control_c, 0, 64, 56
1, 107023, Note_on_c, 0, 90, 63
1, 107030, Note_on_c, 0, 97, 63
1, 107035, Control_c, 0, 64, 56
1, 107041, Note_off_c, 0, 90, 67
1, 107049, Note_off_c, 0, 97, 65
1, 107130, Note_on_c, 0, 99, 84
1, 107138, Control_c, 0, 67, 36
1, 107159, Note_on_c, 0, 96, 77
1, 107166, Note_on_c, 0, 102, 81
1, 107186, Note_off_c, 0, 99, 64
1, 107197, Note_on_c, 0, 104, 19
1, 107198, Control_c, 0, 64, 57
1, 107207, Note_off_c, 0, 96, 66
1, 107213, Note_off_c, 0, 102, 64
1, 107242, Note_off_c, 0, 104, 44
1, 107289, Note_on_c, 0, 96, 76
1, 107293, Note_on_c, 0, 102, 84
1, 107362, Note_off_c, 0, 102, 62
1, 107424, Note_on_c, 0, 93, 74
1, 107424, Note_on_c, 0, 99, 78
1, 107432, Note_off_c, 0, 96, 63
1, 107443, Control_c, 0, 64, 57
1, 107443, Control_c, 0, 67, 35
1, 107458, Control_c, 0, 64, 58
1, 107467, Note_off_c, 0, 99, 57
1, 107469, Note_off_c, 0, 93, 61
1, 107473, Control_c, 0, 64, 58
1, 107487, Control_c, 0, 64, 59
1, 107502, Control_c, 0, 64, 61
1, 107517, Control_c, 0, 64, 64
1, 107532, Control_c, 0, 64, 65
1, 107547, Control_c, 0, 64, 69
1, 107555, Note_on_c, 0, 93, 77
1, 107556, Note_on_c, 0, 99, 82
1, 107562, Control_c, 0, 64, 74
1, 107576, Control_c, 0, 64, 78
1, 107591, Control_c, 0, 64, 81
1, 107595, Note_off_c, 0, 61, 61
1, 107606, Control_c, 0, 64, 82
1, 107608, Note_off_c, 0, 57, 57
1, 107611, Note_off_c, 0, 64, 64
1, 107611, Note_off_c, 0, 99, 62
1, 107615, Note_off_c, 0, 54, 61
1, 107630, Note_off_c, 0, 93, 56
1, 107678, Note_on_c, 0, 97, 79
1, 107681, Note_on_c, 0, 90, 70
1, 107725, Control_c, 0, 64, 82
1, 107731, Note_off_c, 0, 90, 57
1, 107739, Note_off_c, 0, 97, 66
1, 107753, Control_c, 0, 67, 35
1, 107768, Control_c, 0, 64, 80
1, 107783, Control_c, 0, 64, 74
1, 107786, Note_on_c, 0, 94, 80
1, 107797, Note_on_c, 0, 66, 99
1, 107798, Control_c, 0, 64, 64
1, 107798, Control_c, 0, 67, 34
1, 107800, Note_on_c, 0, 64, 86
1, 107800, Note_on_c, 0, 97, 73
1, 107801, Note_on_c, 0, 60, 79
1, 107802, Note_on_c, 0, 55, 84
1, 107804, Note_on_c, 0, 99, 75
1, 107806, Note_on_c, 0, 88, 81
1, 107812, Control_c, 0, 64, 33
1, 107827, Control_c, 0, 64, 11
1, 107830, Note_on_c, 0, 96, 73
1, 107835, Note_off_c, 0, 99, 65
1, 107840, Note_off_c, 0, 97, 60
1, 107842, Control_c, 0, 64, 34
1, 107853, Note_off_c, 0, 64, 63
1, 107855, Note_off_c, 0, 94, 60
1, 107857, Control_c, 0, 64, 52
1, 107863, Note_off_c, 0, 96, 59
1, 107866, Note_off_c, 0, 66, 63
1, 107869, Note_off_c, 0, 60, 65
1, 107872, Control_c, 0, 64, 58
1, 107873, Note_off_c, 0, 55, 65
1, 107875, Note_off_c, 0, 88, 63
1, 107886, Control_c, 0, 64, 61
1, 107901, Control_c, 0, 64, 61
1, 107916, Control_c, 0, 64, 62
1, 107943, Note_on_c, 0, 96, 83
1, 107961, Control_c, 0, 64, 61
1, 107972, Note_on_c, 0, 88, 60
1, 107976, Control_c, 0, 64, 61
1, 107991, Control_c, 0, 64, 59
1, 108002, Note_off_c, 0, 96, 62
1, 108005, Control_c, 0, 64, 56
1, 108013, Note_off_c, 0, 88, 60
1, 108020, Control_c, 0, 64, 55
1, 108035, Control_c, 0, 64, 56
1, 108050, Control_c, 0, 64, 58
1, 108050, Note_on_c, 0, 63, 86
1, 108056, Note_on_c, 0, 64, 86
1, 108058, Note_on_c, 0, 58, 80
1, 108062, Note_on_c, 0, 53, 76
1, 108065, Note_on_c, 0, 93, 80
1, 108065, Control_c, 0, 64, 61
1, 108069, Note_on_c, 0, 85, 80
1, 108079, Control_c, 0, 64, 63
1, 108094, Control_c, 0, 64, 64
1, 108095, Note_off_c, 0, 63, 61
1, 108095, Note_off_c, 0, 64, 65
1, 108096, Note_off_c, 0, 53, 66
1, 108107, Note_off_c, 0, 58, 63
1, 108111, Note_off_c, 0, 85, 62
1, 108113, Note_off_c, 0, 93, 65
1, 108125, Control_c, 0, 64, 62
1, 108140, Control_c, 0, 64, 54
1, 108140, Control_c, 0, 67, 34
1, 108162, Control_c, 0, 64, 36
1, 108177, Control_c, 0, 64, 24
1, 108191, Control_c, 0, 64, 37
1, 108195, Note_on_c, 0, 60, 83
1, 108200, Note_on_c, 0, 52, 83
1, 108202, Note_on_c, 0, 61, 98
1, 108203, Note_on_c, 0, 93, 78
1, 108204, Note_on_c, 0, 85, 87
1, 108206, Note_on_c, 0, 57, 75
1, 108206, Control_c, 0, 64, 54
1, 108221, Control_c, 0, 64, 61
1, 108235, Control_c, 0, 64, 63
1, 108250, Control_c, 0, 64, 64
1, 108250, Control_c, 0, 67, 34
1, 108263, Note_off_c, 0, 60, 65
1, 108265, Control_c, 0, 64, 65
1, 108274, Note_off_c, 0, 57, 63
1, 108274, Note_off_c, 0, 52, 62
1, 108274, Note_off_c, 0, 93, 61
1, 108280, Control_c, 0, 64, 65
1, 108283, Note_off_c, 0, 61, 66
1, 108310, Control_c, 0, 64, 66
1, 108331, Note_on_c, 0, 88, 62
1, 108331, Note_off_c, 0, 85, 63
1, 108340, Control_c, 0, 64, 66
1, 108340, Note_on_c, 0, 81, 36
1, 108354, Control_c, 0, 64, 67
1, 108360, Note_off_c, 0, 88, 66
1, 108369, Note_off_c, 0, 81, 53
1, 108369, Control_c, 0, 64, 67
1, 108369, Control_c, 0, 67, 34
1, 108384, Control_c, 0, 64, 68
1, 108399, Control_c, 0, 64, 67
1, 108414, Control_c, 0, 64, 64
1, 108428, Control_c, 0, 64, 57
1, 108443, Control_c, 0, 64, 47
1, 108452, Note_on_c, 0, 93, 74
1, 108455, Note_on_c, 0, 96, 86
1, 108456, Note_on_c, 0, 66, 97
1, 108458, Note_on_c, 0, 64, 92
1, 108458, Control_c, 0, 64, 52
1, 108461, Note_on_c, 0, 55, 83
1, 108467, Note_on_c, 0, 60, 80
1, 108472, Note_on_c, 0, 88, 73
1, 108473, Control_c, 0, 64, 61
1, 108473, Control_c, 0, 67, 34
1, 108484, Note_off_c, 0, 93, 59
1, 108488, Control_c, 0, 64, 65
1, 108502, Control_c, 0, 64, 69
1, 108511, Note_off_c, 0, 96, 64
1, 108514, Note_off_c, 0, 64, 63
1, 108515, Note_off_c, 0, 88, 61
1, 108515, Note_off_c, 0, 66, 60
1, 108517, Control_c, 0, 64, 71
1, 108527, Note_off_c, 0, 60, 64
1, 108532, Control_c, 0, 64, 72
1, 108533, Note_off_c, 0, 55, 62
1, 108597, Note_on_c, 0, 96, 70
1, 108602, Note_on_c, 0, 88, 69
1, 108621, Control_c, 0, 67, 34
1, 108635, Control_c, 0, 64, 71
1, 108645, Note_off_c, 0, 96, 63
1, 108650, Control_c, 0, 64, 68
1, 108660, Note_off_c, 0, 88, 57
1, 108665, Control_c, 0, 64, 64
1, 108680, Control_c, 0, 64, 58
1, 108680, Control_c, 0, 67, 33
1, 108695, Control_c, 0, 64, 59
1, 108695, Control_c, 0, 67, 33
1, 108703, Note_on_c, 0, 64, 88
1, 108706, Note_on_c, 0, 63, 77
1, 108708, Note_on_c, 0, 53, 80
1, 108709, Note_on_c, 0, 85, 84
1, 108709, Control_c, 0, 64, 63
1, 108709, Control_c, 0, 67, 32
1, 108711, Note_on_c, 0, 58, 78
1, 108717, Note_on_c, 0, 93, 76
1, 108724, Control_c, 0, 64, 67
1, 108733, Note_off_c, 0, 63, 67
1, 108739, Control_c, 0, 64, 70
1, 108739, Control_c, 0, 67, 32
1, 108751, Note_off_c, 0, 64, 66
1, 108754, Control_c, 0, 67, 31
1, 108757, Note_off_c, 0, 93, 61
1, 108759, Note_off_c, 0, 85, 64
1, 108761, Note_off_c, 0, 53, 64
1, 108766, Note_off_c, 0, 58, 62
1, 108769, Control_c, 0, 64, 67
1, 108769, Control_c, 0, 67, 30
1, 108784, Control_c, 0, 64, 64
1, 108784, Control_c, 0, 67, 29
1, 108799, Control_c, 0, 64, 63
1, 108799, Control_c, 0, 67, 27
1, 108813, Control_c, 0, 64, 64
1, 108813, Control_c, 0, 67, 25
1, 108828, Control_c, 0, 64, 68
1, 108828, Control_c, 0, 67, 23
1, 108831, Note_on_c, 0, 61, 100
1, 108832, Note_on_c, 0, 52, 79
1, 108843, Note_on_c, 0, 57, 72
1, 108843, Control_c, 0, 64, 71
1, 108843, Control_c, 0, 67, 17
1, 108845, Note_on_c, 0, 60, 70
1, 108845, Note_on_c, 0, 85, 92
1, 108846, Note_on_c, 0, 93, 82
1, 108858, Control_c, 0, 64, 74
1, 108858, Control_c, 0, 67, 9
1, 108873, Control_c, 0, 64, 75
1, 108873, Control_c, 0, 67, 0
1, 108888, Control_c, 0, 64, 75
1, 108889, Note_off_c, 0, 52, 62
1, 108889, Note_off_c, 0, 60, 60
1, 108906, Note_off_c, 0, 57, 61
1, 108922, Note_off_c, 0, 61, 63
1, 108932, Note_off_c, 0, 93, 54
1, 108955, Control_c, 0, 64, 76
1, 108975, Note_on_c, 0, 81, 50
1, 108976, Note_off_c, 0, 85, 62
1, 108977, Note_on_c, 0, 88, 68
1, 108997, Note_off_c, 0, 88, 66
1, 108998, Note_off_c, 0, 81, 58
1, 109044, Control_c, 0, 64, 76
1, 109058, Control_c, 0, 64, 77
1, 109099, Note_on_c, 0, 61, 103
1, 109103, Note_on_c, 0, 94, 54
1, 109105, Note_on_c, 0, 51, 86
1, 109109, Note_on_c, 0, 59, 84
1, 109113, Note_on_c, 0, 57, 80
1, 109113, Note_on_c, 0, 90, 63
1, 109114, Note_on_c, 0, 54, 77
1, 109118, Control_c, 0, 64, 76
1, 109124, Note_on_c, 0, 85, 68
1, 109132, Control_c, 0, 64, 75
1, 109137, Note_on_c, 0, 93, 60
1, 109139, Note_on_c, 0, 97, 51
1, 109147, Control_c, 0, 64, 73
1, 109161, Note_off_c, 0, 97, 63
1, 109162, Control_c, 0, 64, 70
1, 109177, Control_c, 0, 64, 67
1, 109177, Note_off_c, 0, 90, 63
1, 109180, Note_off_c, 0, 93, 61
1, 109186, Note_off_c, 0, 85, 63
1, 109192, Control_c, 0, 64, 63
1, 109194, Note_off_c, 0, 94, 40
1, 109207, Control_c, 0, 64, 56
1, 109222, Control_c, 0, 64, 39
1, 109236, Poly_aftertouch_c, 0, 53, 0
1, 109237, Control_c, 0, 64, 21
1, 109249, Note_on_c, 0, 93, 77
1, 109251, Control_c, 0, 64, 0
1, 109264, Note_on_c, 0, 85, 73
1, 109322, Note_off_c, 0, 93, 61
1, 109345, Note_off_c, 0, 85, 60
1, 109386, Note_on_c, 0, 90, 76
1, 109389, Note_on_c, 0, 81, 69
1, 109433, Note_off_c, 0, 81, 63
1, 109441, Note_off_c, 0, 90, 63
1, 109473, Control_c, 0, 64, 28
1, 109488, Control_c, 0, 64, 38
1, 109503, Control_c, 0, 64, 50
1, 109513, Note_on_c, 0, 82, 80
1, 109518, Control_c, 0, 64, 61
1, 109528, Note_on_c, 0, 90, 75
1, 109532, Control_c, 0, 64, 64
1, 109547, Control_c, 0, 64, 65
1, 109551, Note_on_c, 0, 81, 62
1, 109562, Control_c, 0, 64, 67
1, 109577, Control_c, 0, 64, 69
1, 109583, Note_off_c, 0, 82, 61
1, 109592, Note_off_c, 0, 81, 60
1, 109592, Control_c, 0, 64, 71
1, 109602, Note_off_c, 0, 90, 55
1, 109606, Control_c, 0, 64, 74
1, 109621, Control_c, 0, 64, 78
1, 109636, Control_c, 0, 64, 83
1, 109639, Note_on_c, 0, 85, 80
1, 109657, Note_on_c, 0, 78, 45
1, 109658, Control_c, 0, 64, 86
1, 109669, Note_off_c, 0, 85, 67
1, 109673, Control_c, 0, 64, 89
1, 109683, Note_off_c, 0, 78, 58
1, 109688, Control_c, 0, 64, 91
1, 109703, Control_c, 0, 64, 92
1, 109718, Control_c, 0, 64, 93
1, 109761, Note_on_c, 0, 90, 83
1, 109771, Note_on_c, 0, 93, 81
1, 109774, Note_on_c, 0, 85, 80
1, 109785, Note_on_c, 0, 97, 59
1, 109803, Note_off_c, 0, 97, 64
1, 109807, Control_c, 0, 64, 91
1, 109817, Note_off_c, 0, 90, 65
1, 109820, Note_off_c, 0, 85, 65
1, 109822, Control_c, 0, 64, 89
1, 109829, Note_off_c, 0, 93, 64
1, 109837, Control_c, 0, 64, 87
1, 109852, Control_c, 0, 64, 86
1, 109867, Control_c, 0, 64, 86
1, 109902, Note_on_c, 0, 93, 80
1, 109913, Note_on_c, 0, 85, 81
1, 109941, Control_c, 0, 64, 85
1, 109959, Note_off_c, 0, 93, 64
1, 109986, Control_c, 0, 64, 85
1, 110001, Note_off_c, 0, 85, 63
1, 110015, Control_c, 0, 64, 84
1, 110026, Note_on_c, 0, 81, 77
1, 110027, Note_on_c, 0, 90, 82
1, 110030, Control_c, 0, 64, 84
1, 110071, Note_off_c, 0, 81, 63
1, 110080, Note_off_c, 0, 90, 62
1, 110117, Note_off_c, 0, 57, 53
1, 110149, Note_on_c, 0, 90, 73
1, 110152, Note_off_c, 0, 59, 52
1, 110158, Note_on_c, 0, 81, 83
1, 110160, Note_off_c, 0, 61, 57
1, 110162, Note_off_c, 0, 54, 60
1, 110165, Note_off_c, 0, 51, 59
1, 110228, Note_off_c, 0, 90, 63
1, 110233, Note_off_c, 0, 81, 62
1, 110270, Note_on_c, 0, 85, 76
1, 110286, Note_on_c, 0, 78, 41
1, 110295, Note_off_c, 0, 85, 67
1, 110316, Note_off_c, 0, 78, 56
1, 110327, Control_c, 0, 64, 83
1, 110342, Control_c, 0, 64, 80
1, 110356, Control_c, 0, 64, 71
1, 110371, Control_c, 0, 64, 60
1, 110381, Note_on_c, 0, 50, 94
1, 110383, Note_on_c, 0, 61, 107
1, 110386, Control_c, 0, 64, 56
1, 110388, Note_on_c, 0, 56, 84
1, 110388, Note_on_c, 0, 59, 87
1, 110404, Note_on_c, 0, 100, 84
1, 110407, Note_on_c, 0, 92, 87
1, 110408, Control_c, 0, 64, 63
1, 110416, Note_on_c, 0, 88, 81
1, 110423, Control_c, 0, 64, 68
1, 110426, Note_off_c, 0, 50, 65
1, 110430, Note_on_c, 0, 97, 81
1, 110438, Control_c, 0, 64, 74
1, 110441, Note_off_c, 0, 59, 66
1, 110441, Note_off_c, 0, 61, 68
1, 110448, Note_off_c, 0, 56, 66
1, 110450, Note_off_c, 0, 100, 65
1, 110453, Control_c, 0, 64, 83
1, 110465, Note_off_c, 0, 92, 66
1, 110468, Control_c, 0, 64, 92
1, 110482, Control_c, 0, 64, 95
1, 110488, Note_off_c, 0, 88, 62
1, 110493, Note_off_c, 0, 97, 65
1, 110569, Note_on_c, 0, 88, 65
1, 110570, Note_on_c, 0, 97, 68
1, 110665, Note_off_c, 0, 97, 58
1, 110691, Control_c, 0, 64, 93
1, 110694, Note_on_c, 0, 62, 95
1, 110695, Note_on_c, 0, 58, 94
1, 110696, Note_on_c, 0, 64, 100
1, 110697, Note_on_c, 0, 53, 91
1, 110698, Note_on_c, 0, 94, 75
1, 110705, Control_c, 0, 64, 90
1, 110709, Note_off_c, 0, 88, 60
1, 110710, Note_on_c, 0, 86, 70
1, 110720, Control_c, 0, 64, 82
1, 110735, Control_c, 0, 64, 72
1, 110750, Control_c, 0, 64, 49
1, 110764, Control_c, 0, 64, 0
1, 110765, Note_off_c, 0, 86, 63
1, 110767, Note_off_c, 0, 94, 63
1, 110809, Control_c, 0, 64, 54
1, 110823, Control_c, 0, 64, 65
1, 110836, Note_on_c, 0, 86, 71
1, 110838, Control_c, 0, 64, 72
1, 110839, Note_on_c, 0, 94, 65
1, 110853, Control_c, 0, 64, 78
1, 110868, Control_c, 0, 64, 83
1, 110883, Control_c, 0, 64, 85
1, 110897, Control_c, 0, 64, 85
1, 110906, Note_off_c, 0, 94, 60
1, 110912, Control_c, 0, 64, 86
1, 110927, Control_c, 0, 64, 86
1, 110942, Control_c, 0, 64, 87
1, 110947, Note_off_c, 0, 86, 54
1, 110948, Note_on_c, 0, 88, 77
1, 110949, Note_on_c, 0, 83, 70
1, 110973, Note_off_c, 0, 83, 70
1, 110983, Note_off_c, 0, 88, 62
1, 111086, Note_on_c, 0, 92, 79
1, 111086, Note_on_c, 0, 100, 61
1, 111091, Control_c, 0, 64, 88
1, 111094, Note_on_c, 0, 97, 83
1, 111105, Control_c, 0, 64, 89
1, 111110, Note_on_c, 0, 88, 57
1, 111112, Note_off_c, 0, 100, 66
1, 111120, Control_c, 0, 64, 91
1, 111131, Note_off_c, 0, 92, 65
1, 111135, Control_c, 0, 64, 93
1, 111156, Control_c, 0, 64, 93
1, 111160, Note_off_c, 0, 97, 64
1, 111162, Note_off_c, 0, 88, 50
1, 111215, Note_off_c, 0, 53, 63
1, 111220, Note_off_c, 0, 64, 55
1, 111226, Note_off_c, 0, 58, 61
1, 111227, Note_off_c, 0, 62, 52
1, 111228, Note_on_c, 0, 97, 72
1, 111230, Note_on_c, 0, 88, 73
1, 111302, Note_off_c, 0, 97, 64
1, 111348, Note_on_c, 0, 94, 74
1, 111350, Note_off_c, 0, 88, 59
1, 111350, Note_on_c, 0, 86, 69
1, 111395, Note_off_c, 0, 86, 62
1, 111404, Note_off_c, 0, 94, 60
1, 111410, Control_c, 0, 64, 92
1, 111425, Control_c, 0, 64, 85
1, 111440, Control_c, 0, 64, 76
1, 111454, Control_c, 0, 64, 68
1, 111464, Note_on_c, 0, 61, 105
1, 111468, Note_on_c, 0, 59, 81
1, 111469, Control_c, 0, 64, 66
1, 111469, Note_on_c, 0, 52, 77
1, 111475, Note_on_c, 0, 94, 71
1, 111476, Note_on_c, 0, 50, 70
1, 111480, Note_on_c, 0, 86, 77
1, 111484, Control_c, 0, 64, 68
1, 111499, Control_c, 0, 64, 72
1, 111514, Control_c, 0, 64, 79
1, 111520, Note_off_c, 0, 50, 58
1, 111528, Control_c, 0, 64, 87
1, 111529, Note_off_c, 0, 59, 61
1, 111543, Control_c, 0, 64, 95
1, 111547, Note_off_c, 0, 52, 62
1, 111547, Note_off_c, 0, 94, 62
1, 111558, Control_c, 0, 64, 100
1, 111572, Control_c, 0, 64, 100
1, 111574, Note_off_c, 0, 61, 58
1, 111584, Note_off_c, 0, 86, 47
1, 111598, Note_on_c, 0, 88, 63
1, 111602, Note_on_c, 0, 83, 50
1, 111617, Note_off_c, 0, 88, 64
1, 111624, Note_off_c, 0, 83, 60
1, 111632, Control_c, 0, 64, 101
1, 111646, Control_c, 0, 64, 101
1, 111706, Control_c, 0, 64, 99
1, 111721, Control_c, 0, 64, 89
1, 111735, Control_c, 0, 64, 77
1, 111741, Note_on_c, 0, 54, 91
1, 111746, Note_on_c, 0, 49, 90
1, 111749, Note_on_c, 0, 52, 85
1, 111750, Control_c, 0, 64, 65
1, 111757, Note_on_c, 0, 93, 70
1, 111759, Note_on_c, 0, 96, 77
1, 111765, Control_c, 0, 64, 63
1, 111771, Note_on_c, 0, 88, 71
1, 111779, Control_c, 0, 64, 65
1, 111785, Note_on_c, 0, 99, 36
1, 111794, Control_c, 0, 64, 70
1, 111796, Note_off_c, 0, 93, 58
1, 111797, Note_on_c, 0, 53, 8
1, 111798, Note_off_c, 0, 53, 127
1, 111809, Control_c, 0, 64, 76
1, 111817, Note_off_c, 0, 99, 56
1, 111823, Note_off_c, 0, 96, 64
1, 111824, Control_c, 0, 64, 82
1, 111833, Note_off_c, 0, 88, 60
1, 111839, Control_c, 0, 64, 88
1, 111854, Control_c, 0, 64, 91
1, 111866, Poly_aftertouch_c, 0, 51, 0
1, 111867, Note_off_c, 0, 49, 60
1, 111911, Note_on_c, 0, 57, 100
1, 111931, Note_on_c, 0, 96, 88
1, 111935, Note_off_c, 0, 54, 65
1, 111943, Note_on_c, 0, 88, 80
1, 111950, Note_off_c, 0, 57, 68
1, 111965, Note_off_c, 0, 52, 26
1, 112009, Note_off_c, 0, 96, 60
1, 112023, Note_off_c, 0, 88, 55
1, 112060, Note_on_c, 0, 69, 97
1, 112065, Note_on_c, 0, 58, 94
1, 112072, Note_on_c, 0, 93, 86
1, 112077, Note_on_c, 0, 85, 82
1, 112100, Note_off_c, 0, 69, 65
1, 112107, Note_off_c, 0, 58, 61
1, 112113, Note_on_c, 0, 67, 11
1, 112114, Note_off_c, 0, 67, 127
1, 112122, Note_off_c, 0, 85, 62
1, 112126, Note_off_c, 0, 93, 65
1, 112157, Poly_aftertouch_c, 0, 67, 0
1, 112203, Control_c, 0, 64, 88
1, 112218, Control_c, 0, 64, 81
1, 112222, Note_on_c, 0, 54, 91
1, 112225, Note_on_c, 0, 64, 87
1, 112227, Note_on_c, 0, 93, 82
1, 112229, Note_on_c, 0, 85, 79
1, 112229, Note_on_c, 0, 61, 79
1, 112231, Control_c, 0, 64, 67
1, 112235, Note_on_c, 0, 57, 70
1, 112246, Control_c, 0, 64, 0
1, 112312, Note_off_c, 0, 93, 52
1, 112335, Control_c, 0, 64, 59
1, 112349, Control_c, 0, 64, 68
1, 112353, Note_on_c, 0, 88, 72
1, 112362, Note_off_c, 0, 54, 66
1, 112363, Note_off_c, 0, 85, 64
1, 112364, Control_c, 0, 64, 79
1, 112370, Note_off_c, 0, 57, 62
1, 112375, Note_off_c, 0, 88, 71
1, 112379, Control_c, 0, 64, 89
1, 112379, Control_c, 0, 67, 8
1, 112382, Note_off_c, 0, 64, 64
1, 112385, Note_off_c, 0, 61, 63
1, 112394, Control_c, 0, 64, 96
1, 112394, Control_c, 0, 67, 11
1, 112408, Control_c, 0, 64, 98
1, 112408, Control_c, 0, 67, 14
1, 112423, Control_c, 0, 67, 18
1, 112433, Poly_aftertouch_c, 0, 81, 0
1, 112438, Control_c, 0, 67, 23
1, 112453, Control_c, 0, 67, 29
1, 112468, Control_c, 0, 67, 36
1, 112470, Note_on_c, 0, 94, 70
1, 112483, Control_c, 0, 67, 41
1, 112486, Note_off_c, 0, 94, 66
1, 112490, Note_on_c, 0, 97, 40
1, 112498, Control_c, 0, 64, 99
1, 112498, Control_c, 0, 67, 45
1, 112501, Note_on_c, 0, 93, 59
1, 112501, Note_on_c, 0, 96, 65
1, 112513, Control_c, 0, 67, 50
1, 112519, Note_on_c, 0, 88, 60
1, 112522, Note_off_c, 0, 93, 60
1, 112524, Note_off_c, 0, 97, 53
1, 112528, Control_c, 0, 67, 54
1, 112540, Note_off_c, 0, 88, 60
1, 112543, Control_c, 0, 67, 57
1, 112548, Note_off_c, 0, 96, 57
1, 112557, Control_c, 0, 67, 59
1, 112572, Control_c, 0, 67, 60
1, 112587, Control_c, 0, 67, 61
1, 112601, Control_c, 0, 64, 99
1, 112601, Control_c, 0, 67, 61
1, 112615, Note_on_c, 0, 82, 69
1, 112616, Control_c, 0, 64, 100
1, 112627, Note_on_c, 0, 96, 69
1, 112631, Control_c, 0, 64, 100
1, 112650, Note_on_c, 0, 88, 60
1, 112668, Note_off_c, 0, 82, 59
1, 112682, Note_off_c, 0, 96, 64
1, 112701, Note_off_c, 0, 88, 55
1, 112713, Control_c, 0, 64, 101
1, 112760, Note_on_c, 0, 93, 67
1, 112766, Note_on_c, 0, 85, 66
1, 112772, Note_on_c, 0, 76, 53
1, 112787, Note_off_c, 0, 93, 65
1, 112794, Note_off_c, 0, 85, 66
1, 112847, Note_off_c, 0, 76, 47
1, 112879, Note_on_c, 0, 69, 58
1, 112894, Note_on_c, 0, 85, 66
1, 112900, Note_on_c, 0, 93, 65
1, 112953, Note_off_c, 0, 93, 50
1, 112979, Note_off_c, 0, 69, 52
1, 113011, Note_on_c, 0, 88, 66
1, 113011, Note_off_c, 0, 85, 63
1, 113023, Note_on_c, 0, 76, 40
1, 113026, Note_off_c, 0, 88, 65
1, 113084, Control_c, 0, 64, 102
1, 113084, Control_c, 0, 67, 61
1, 113098, Control_c, 0, 64, 104
1, 113113, Control_c, 0, 64, 109
1, 113128, Control_c, 0, 64, 127
1, 113135, Note_on_c, 0, 93, 67
1, 113135, Note_on_c, 0, 96, 75
1, 113155, Note_on_c, 0, 73, 67
1, 113157, Note_on_c, 0, 99, 21
1, 113161, Note_off_c, 0, 93, 58
1, 113173, Note_on_c, 0, 88, 47
1, 113182, Note_off_c, 0, 76, 39
1, 113186, Note_off_c, 0, 96, 63
1, 113195, Note_off_c, 0, 88, 58
1, 113198, Note_off_c, 0, 99, 29
1, 113202, Control_c, 0, 67, 60
1, 113226, Note_off_c, 0, 73, 56
1, 113231, Control_c, 0, 67, 60
1, 113279, Note_on_c, 0, 96, 74
1, 113280, Note_on_c, 0, 88, 65
1, 113288, Note_on_c, 0, 82, 63
1, 113327, Note_off_c, 0, 96, 60
1, 113335, Control_c, 0, 67, 59
1, 113340, Note_off_c, 0, 88, 56
1, 113347, Note_off_c, 0, 82, 62
1, 113380, Control_c, 0, 67, 59
1, 113410, Note_on_c, 0, 93, 70
1, 113417, Note_on_c, 0, 73, 65
1, 113418, Note_on_c, 0, 85, 68
1, 113436, Note_off_c, 0, 93, 65
1, 113444, Note_off_c, 0, 85, 67
1, 113446, Control_c, 0, 67, 58
1, 113505, Control_c, 0, 67, 58
1, 113535, Note_on_c, 0, 85, 71
1, 113537, Note_off_c, 0, 73, 37
1, 113539, Note_on_c, 0, 82, 67
1, 113544, Note_on_c, 0, 93, 68
1, 113580, Control_c, 0, 67, 57
1, 113582, Note_off_c, 0, 93, 47
1, 113594, Note_off_c, 0, 82, 63
1, 113595, Control_c, 0, 67, 57
1, 113610, Control_c, 0, 67, 56
1, 113639, Control_c, 0, 67, 56
1, 113647, Note_off_c, 0, 85, 60
1, 113654, Control_c, 0, 67, 55
1, 113669, Control_c, 0, 67, 54
1, 113669, Note_on_c, 0, 81, 34
1, 113673, Note_on_c, 0, 88, 42
1, 113678, Note_on_c, 0, 76, 52
1, 113684, Control_c, 0, 67, 53
1, 113698, Control_c, 0, 67, 52
1, 113699, Note_off_c, 0, 81, 54
1, 113700, Note_off_c, 0, 88, 55
1, 113713, Control_c, 0, 67, 51
1, 113729, Control_c, 0, 67, 50
1, 113744, Control_c, 0, 67, 49
1, 113759, Control_c, 0, 67, 47
1, 113774, Control_c, 0, 67, 44
1, 113783, Note_on_c, 0, 69, 66
1, 113783, Note_on_c, 0, 93, 76
1, 113789, Control_c, 0, 67, 40
1, 113790, Note_off_c, 0, 76, 35
1, 113792, Note_on_c, 0, 99, 44
1, 113792, Note_on_c, 0, 96, 66
1, 113804, Control_c, 0, 67, 35
1, 113806, Note_on_c, 0, 88, 64
1, 113809, Note_off_c, 0, 93, 63
1, 113818, Control_c, 0, 67, 30
1, 113821, Note_off_c, 0, 99, 56
1, 113830, Note_off_c, 0, 96, 59
1, 113833, Control_c, 0, 67, 24
1, 113845, Note_off_c, 0, 88, 61
1, 113848, Control_c, 0, 67, 18
1, 113859, Note_off_c, 0, 69, 58
1, 113863, Control_c, 0, 67, 12
1, 113878, Control_c, 0, 67, 0
1, 113913, Note_on_c, 0, 76, 64
1, 113930, Note_on_c, 0, 87, 67
1, 113944, Note_on_c, 0, 96, 49
1, 113947, Note_on_c, 0, 95, 49
1, 113963, Note_off_c, 0, 87, 62
1, 113967, Note_off_c, 0, 96, 59
1, 113970, Note_off_c, 0, 95, 61
1, 114037, Note_off_c, 0, 76, 52
1, 114040, Note_on_c, 0, 93, 74
1, 114049, Note_on_c, 0, 73, 66
1, 114051, Note_on_c, 0, 85, 69
1, 114072, Note_off_c, 0, 93, 59
1, 114076, Note_off_c, 0, 85, 68
1, 114122, Note_off_c, 0, 73, 61
1, 114178, Note_on_c, 0, 93, 81
1, 114179, Note_on_c, 0, 85, 84
1, 114181, Note_on_c, 0, 82, 78
1, 114251, Note_off_c, 0, 93, 58
1, 114255, Note_off_c, 0, 82, 63
1, 114307, Note_on_c, 0, 81, 73
1, 114308, Note_on_c, 0, 88, 75
1, 114310, Note_on_c, 0, 73, 78
1, 114313, Note_off_c, 0, 85, 61
1, 114326, Note_off_c, 0, 81, 70
1, 114329, Note_off_c, 0, 88, 70
1, 114334, Note_off_c, 0, 73, 67
1, 114492, Control_c, 0, 64, 103
1, 114506, Control_c, 0, 64, 80
1, 114522, Control_c, 0, 64, 63
1, 114534, Note_on_c, 0, 61, 99
1, 114537, Control_c, 0, 64, 0
1, 114539, Note_on_c, 0, 50, 85
1, 114540, Note_on_c, 0, 56, 86
1, 114540, Note_on_c, 0, 92, 97
1, 114544, Note_on_c, 0, 97, 89
1, 114544, Note_on_c, 0, 100, 84
1, 114552, Control_c, 0, 64, 36
1, 114552, Note_on_c, 0, 88, 86
1, 114555, Note_on_c, 0, 52, 66
1, 114561, Note_on_c, 0, 59, 53
1, 114561, Note_on_c, 0, 60, 42
1, 114567, Control_c, 0, 64, 67
1, 114578, Note_off_c, 0, 52, 38
1, 114580, Note_off_c, 0, 50, 66
1, 114582, Control_c, 0, 64, 83
1, 114584, Note_off_c, 0, 61, 66
1, 114586, Note_off_c, 0, 59, 57
1, 114588, Note_off_c, 0, 100, 65
1, 114589, Note_off_c, 0, 60, 57
1, 114591, Note_off_c, 0, 56, 67
1, 114596, Control_c, 0, 64, 115
1, 114610, Note_off_c, 0, 92, 67
1, 114611, Control_c, 0, 64, 127
1, 114617, Note_off_c, 0, 97, 66
1, 114631, Note_off_c, 0, 88, 60
1, 114653, Poly_aftertouch_c, 0, 54, 0
1, 114701, Note_on_c, 0, 87, 75
1, 114733, Note_on_c, 0, 96, 41
1, 114760, Note_off_c, 0, 96, 56
1, 114778, Note_off_c, 0, 87, 65
1, 114838, Note_on_c, 0, 94, 88
1, 114838, Note_on_c, 0, 58, 89
1, 114841, Note_on_c, 0, 53, 91
1, 114841, Note_on_c, 0, 62, 87
1, 114842, Note_on_c, 0, 64, 91
1, 114850, Note_on_c, 0, 86, 81
1, 114862, Control_c, 0, 64, 112
1, 114877, Control_c, 0, 64, 84
1, 114900, Control_c, 0, 64, 64
1, 114913, Note_off_c, 0, 94, 64
1, 114915, Control_c, 0, 64, 0
1, 114921, Note_off_c, 0, 86, 62
1, 114976, Note_on_c, 0, 85, 71
1, 114989, Control_c, 0, 64, 56
1, 114991, Note_on_c, 0, 94, 69
1, 115003, Control_c, 0, 64, 65
1, 115018, Control_c, 0, 64, 71
1, 115032, Note_off_c, 0, 85, 64
1, 115033, Control_c, 0, 64, 79
1, 115048, Control_c, 0, 64, 85
1, 115058, Note_off_c, 0, 94, 60
1, 115063, Control_c, 0, 64, 90
1, 115077, Control_c, 0, 64, 94
1, 115091, Note_off_c, 0, 53, 64
1, 115092, Control_c, 0, 64, 98
1, 115100, Note_on_c, 0, 88, 74
1, 115106, Note_on_c, 0, 83, 62
1, 115107, Control_c, 0, 64, 102
1, 115114, Note_off_c, 0, 62, 58
1, 115121, Control_c, 0, 64, 111
1, 115123, Note_off_c, 0, 83, 67
1, 115126, Note_off_c, 0, 88, 66
1, 115127, Note_off_c, 0, 64, 68
1, 115129, Note_off_c, 0, 58, 62
1, 115136, Control_c, 0, 64, 127
1, 115227, Note_on_c, 0, 100, 56
1, 115234, Note_on_c, 0, 92, 72
1, 115240, Note_on_c, 0, 97, 77
1, 115249, Note_off_c, 0, 100, 59
1, 115264, Note_off_c, 0, 92, 55
1, 115273, Note_on_c, 0, 88, 43
1, 115297, Note_off_c, 0, 97, 65
1, 115300, Control_c, 0, 67, 8
1, 115302, Note_off_c, 0, 88, 58
1, 115315, Control_c, 0, 67, 10
1, 115330, Control_c, 0, 67, 12
1, 115345, Control_c, 0, 67, 16
1, 115360, Control_c, 0, 67, 21
1, 115374, Control_c, 0, 67, 28
1, 115379, Note_on_c, 0, 85, 64
1, 115389, Note_on_c, 0, 88, 64
1, 115389, Control_c, 0, 67, 33
1, 115392, Note_on_c, 0, 97, 57
1, 115404, Control_c, 0, 67, 36
1, 115414, Note_off_c, 0, 85, 59
1, 115419, Control_c, 0, 67, 39
1, 115431, Note_off_c, 0, 97, 62
1, 115434, Control_c, 0, 67, 44
1, 115449, Control_c, 0, 67, 50
1, 115464, Control_c, 0, 67, 55
1, 115479, Control_c, 0, 67, 58
1, 115493, Control_c, 0, 67, 61
1, 115497, Note_on_c, 0, 94, 70
1, 115497, Note_off_c, 0, 88, 59
1, 115505, Note_on_c, 0, 86, 65
1, 115506, Note_on_c, 0, 80, 68
1, 115508, Control_c, 0, 67, 65
1, 115523, Control_c, 0, 67, 67
1, 115530, Note_off_c, 0, 94, 56
1, 115532, Note_off_c, 0, 86, 67
1, 115537, Control_c, 0, 67, 68
1, 115580, Note_off_c, 0, 80, 59
1, 115624, Note_on_c, 0, 71, 60
1, 115634, Note_on_c, 0, 86, 66
1, 115646, Note_on_c, 0, 94, 61
1, 115693, Control_c, 0, 67, 68
1, 115700, Note_off_c, 0, 94, 57
1, 115707, Note_off_c, 0, 86, 62
1, 115723, Control_c, 0, 67, 67
1, 115738, Control_c, 0, 67, 67
1, 115740, Note_off_c, 0, 71, 60
1, 115756, Note_on_c, 0, 80, 63
1, 115761, Note_on_c, 0, 88, 57
1, 115763, Note_on_c, 0, 83, 43
1, 115780, Note_off_c, 0, 88, 62
1, 115782, Control_c, 0, 67, 66
1, 115789, Note_off_c, 0, 83, 57
1, 115812, Control_c, 0, 67, 66
1, 115841, Control_c, 0, 67, 65
1, 115856, Note_off_c, 0, 80, 55
1, 115881, Note_on_c, 0, 74, 64
1, 115882, Note_on_c, 0, 92, 76
1, 115882, Note_on_c, 0, 100, 55
1, 115890, Note_on_c, 0, 97, 77
1, 115901, Note_off_c, 0, 100, 62
1, 115917, Note_on_c, 0, 88, 53
1, 115929, Note_off_c, 0, 92, 65
1, 115939, Note_off_c, 0, 97, 61
1, 115945, Note_off_c, 0, 88, 62
1, 115966, Note_off_c, 0, 74, 58
1, 116016, Note_on_c, 0, 85, 63
1, 116018, Control_c, 0, 67, 65
1, 116027, Note_on_c, 0, 88, 70
1, 116054, Note_on_c, 0, 97, 54
1, 116063, Control_c, 0, 67, 64
1, 116073, Note_off_c, 0, 85, 64
1, 116078, Note_off_c, 0, 97, 61
1, 116105, Note_off_c, 0, 88, 60
1, 116108, Control_c, 0, 67, 64
1, 116123, Control_c, 0, 67, 63
1, 116138, Control_c, 0, 67, 63
1, 116147, Note_on_c, 0, 94, 75
1, 116155, Note_on_c, 0, 74, 59
1, 116160, Note_on_c, 0, 86, 65
1, 116167, Control_c, 0, 67, 62
1, 116188, Note_off_c, 0, 86, 66
1, 116197, Note_off_c, 0, 94, 58
1, 116197, Control_c, 0, 67, 62
1, 116212, Control_c, 0, 67, 61
1, 116227, Control_c, 0, 67, 60
1, 116257, Control_c, 0, 67, 60
1, 116270, Note_on_c, 0, 85, 66
1, 116272, Control_c, 0, 67, 59
1, 116283, Note_on_c, 0, 94, 77
1, 116287, Control_c, 0, 67, 58
1, 116287, Note_on_c, 0, 86, 71
1, 116302, Control_c, 0, 67, 57
1, 116305, Note_off_c, 0, 74, 30
1, 116315, Note_off_c, 0, 85, 59
1, 116316, Control_c, 0, 67, 56
1, 116331, Control_c, 0, 67, 53
1, 116337, Note_off_c, 0, 94, 63
1, 116346, Control_c, 0, 67, 49
1, 116346, Note_off_c, 0, 86, 63
1, 116361, Control_c, 0, 67, 46
1, 116375, Control_c, 0, 67, 42
1, 116397, Note_on_c, 0, 83, 65
1, 116397, Control_c, 0, 67, 38
1, 116406, Note_on_c, 0, 80, 65
1, 116410, Note_on_c, 0, 88, 62
1, 116412, Control_c, 0, 67, 34
1, 116421, Note_off_c, 0, 83, 67
1, 116427, Control_c, 0, 67, 30
1, 116429, Note_off_c, 0, 88, 63
1, 116442, Control_c, 0, 67, 24
1, 116457, Control_c, 0, 67, 18
1, 116471, Control_c, 0, 67, 12
1, 116486, Control_c, 0, 67, 8
1, 116499, Note_off_c, 0, 80, 58
1, 116501, Control_c, 0, 67, 0
1, 116528, Note_on_c, 0, 97, 83
1, 116534, Note_on_c, 0, 92, 76
1, 116535, Note_on_c, 0, 100, 46
1, 116539, Note_on_c, 0, 71, 57
1, 116548, Note_on_c, 0, 88, 54
1, 116560, Note_off_c, 0, 92, 67
1, 116560, Note_off_c, 0, 100, 58
1, 116585, Note_off_c, 0, 97, 65
1, 116586, Note_off_c, 0, 88, 59
1, 116631, Note_off_c, 0, 71, 60
1, 116653, Note_on_c, 0, 80, 63
1, 116669, Note_on_c, 0, 88, 71
1, 116671, Note_on_c, 0, 97, 77
1, 116730, Note_off_c, 0, 97, 64
1, 116734, Note_off_c, 0, 88, 60
1, 116776, Note_off_c, 0, 80, 60
1, 116793, Note_on_c, 0, 94, 81
1, 116796, Note_on_c, 0, 86, 72
1, 116805, Note_on_c, 0, 74, 62
1, 116838, Note_off_c, 0, 86, 62
1, 116844, Note_off_c, 0, 94, 64
1, 116862, Note_off_c, 0, 74, 53
1, 116923, Note_on_c, 0, 85, 64
1, 116938, Note_on_c, 0, 94, 75
1, 116942, Note_on_c, 0, 86, 73
1, 116955, Note_off_c, 0, 85, 63
1, 116993, Note_off_c, 0, 94, 62
1, 117021, Note_off_c, 0, 86, 56
1, 117055, Note_on_c, 0, 88, 77
1, 117056, Note_on_c, 0, 83, 75
1, 117070, Note_on_c, 0, 74, 79
1, 117083, Note_off_c, 0, 83, 65
1, 117083, Note_off_c, 0, 88, 64
1, 117111, Note_off_c, 0, 74, 64
1, 117428, Control_c, 0, 64, 107
1, 117437, Note_on_c, 0, 58, 96
1, 117439, Note_on_c, 0, 63, 101
1, 117440, Note_on_c, 0, 51, 91
1, 117440, Note_on_c, 0, 67, 97
1, 117440, Note_on_c, 0, 70, 100
1, 117440, Note_on_c, 0, 55, 88
1, 117443, Control_c, 0, 64, 75
1, 117458, Control_c, 0, 64, 0
1, 117532, Control_c, 0, 64, 64
1, 117547, Control_c, 0, 64, 78
1, 117562, Control_c, 0, 64, 93
1, 117577, Control_c, 0, 64, 127
1, 117649, Note_off_c, 0, 67, 53
1, 117664, Note_off_c, 0, 70, 58
1, 117667, Note_off_c, 0, 55, 61
1, 117676, Note_off_c, 0, 51, 62
1, 117685, Note_off_c, 0, 58, 38
1, 117688, Note_off_c, 0, 63, 60
1, 117911, Control_c, 0, 64, 103
1, 117914, Note_on_c, 0, 61, 103
1, 117914, Note_on_c, 0, 66, 90
1, 117915, Note_on_c, 0, 57, 93
1, 117915, Note_on_c, 0, 69, 89
1, 117916, Note_on_c, 0, 64, 99
1, 117918, Note_on_c, 0, 49, 91
1, 117920, Note_on_c, 0, 52, 92
1, 117920, Note_on_c, 0, 54, 88
1, 117926, Control_c, 0, 64, 72
1, 117940, Control_c, 0, 64, 0
1, 118000, Control_c, 0, 64, 63
1, 118014, Control_c, 0, 64, 82
1, 118029, Control_c, 0, 64, 106
1, 118033, Note_off_c, 0, 61, 62
1, 118044, Control_c, 0, 64, 127
1, 118054, Note_off_c, 0, 64, 50
1, 118074, Note_off_c, 0, 66, 65
1, 118088, Note_off_c, 0, 69, 63
1, 118111, Note_off_c, 0, 49, 63
1, 118126, Note_off_c, 0, 57, 60
1, 118132, Note_off_c, 0, 52, 60
1, 118143, Note_off_c, 0, 54, 63
1, 118273, Note_on_c, 0, 93, 74
1, 118299, Note_on_c, 0, 99, 57
1, 118300, Note_on_c, 0, 96, 72
1, 118310, Control_c, 0, 67, 8
1, 118313, Poly_aftertouch_c, 0, 94, 127
1, 118321, Note_on_c, 0, 88, 63
1, 118325, Control_c, 0, 67, 14
1, 118327, Note_off_c, 0, 99, 67
1, 118334, Note_off_c, 0, 93, 63
1, 118339, Control_c, 0, 67, 23
1, 118352, Note_off_c, 0, 88, 64
1, 118353, Note_off_c, 0, 96, 64
1, 118354, Poly_aftertouch_c, 0, 94, 0
1, 118354, Control_c, 0, 67, 33
1, 118369, Control_c, 0, 67, 40
1, 118384, Control_c, 0, 67, 44
1, 118399, Control_c, 0, 67, 47
1, 118413, Control_c, 0, 67, 52
1, 118428, Control_c, 0, 67, 59
1, 118429, Note_on_c, 0, 96, 72
1, 118443, Control_c, 0, 67, 64
1, 118446, Note_on_c, 0, 69, 52
1, 118458, Control_c, 0, 67, 67
1, 118462, Note_on_c, 0, 88, 55
1, 118473, Control_c, 0, 67, 69
1, 118487, Control_c, 0, 67, 70
1, 118502, Control_c, 0, 67, 70
1, 118506, Note_off_c, 0, 96, 53
1, 118509, Note_off_c, 0, 88, 54
1, 118527, Note_off_c, 0, 69, 53
1, 118561, Note_on_c, 0, 85, 70
1, 118562, Note_on_c, 0, 93, 66
1, 118575, Note_on_c, 0, 76, 63
1, 118593, Note_off_c, 0, 85, 62
1, 118593, Note_off_c, 0, 93, 63
1, 118607, Control_c, 0, 67, 70
1, 118622, Control_c, 0, 67, 69
1, 118644, Control_c, 0, 67, 69
1, 118659, Control_c, 0, 67, 68
1, 118674, Control_c, 0, 67, 68
1, 118694, Note_off_c, 0, 76, 56
1, 118698, Note_on_c, 0, 73, 67
1, 118704, Note_on_c, 0, 85, 73
1, 118704, Control_c, 0, 67, 67
1, 118710, Note_on_c, 0, 93, 61
1, 118733, Control_c, 0, 67, 66
1, 118758, Note_off_c, 0, 93, 54
1, 118777, Control_c, 0, 67, 66
1, 118795, Note_off_c, 0, 73, 62
1, 118813, Note_on_c, 0, 88, 69
1, 118821, Note_off_c, 0, 85, 63
1, 118823, Note_on_c, 0, 81, 40
1, 118835, Note_off_c, 0, 88, 70
1, 118836, Note_on_c, 0, 82, 67
1, 118850, Note_off_c, 0, 81, 56
1, 118901, Note_off_c, 0, 82, 53
1, 118937, Note_on_c, 0, 93, 71
1, 118942, Note_on_c, 0, 96, 64
1, 118943, Note_on_c, 0, 73, 65
1, 118955, Control_c, 0, 67, 66
1, 118965, Note_on_c, 0, 88, 67
1, 118970, Note_off_c, 0, 93, 58
1, 118996, Note_off_c, 0, 96, 64
1, 119005, Note_off_c, 0, 88, 61
1, 119064, Note_off_c, 0, 73, 57
1, 119074, Note_on_c, 0, 82, 65
1, 119082, Note_on_c, 0, 96, 66
1, 119107, Note_on_c, 0, 88, 48
1, 119119, Note_off_c, 0, 82, 62
1, 119142, Note_off_c, 0, 96, 51
1, 119151, Note_off_c, 0, 88, 46
1, 119177, Control_c, 0, 67, 66
1, 119200, Note_on_c, 0, 93, 68
1, 119202, Note_on_c, 0, 85, 70
1, 119207, Control_c, 0, 67, 65
1, 119214, Note_on_c, 0, 76, 51
1, 119222, Control_c, 0, 67, 65
1, 119237, Note_off_c, 0, 93, 60
1, 119240, Note_off_c, 0, 85, 57
1, 119281, Control_c, 0, 67, 64
1, 119312, Control_c, 0, 67, 64
1, 119315, Note_off_c, 0, 76, 57
1, 119332, Note_on_c, 0, 69, 57
1, 119343, Note_on_c, 0, 85, 74
1, 119344, Note_on_c, 0, 93, 75
1, 119418, Note_off_c, 0, 93, 60
1, 119423, Control_c, 0, 67, 63
1, 119428, Note_off_c, 0, 69, 61
1, 119443, Note_off_c, 0, 85, 50
1, 119476, Note_on_c, 0, 76, 54
1, 119483, Note_on_c, 0, 88, 35
1, 119515, Note_off_c, 0, 88, 53
1, 119556, Control_c, 0, 67, 64
1, 119571, Control_c, 0, 67, 64
1, 119572, Note_on_c, 0, 97, 86
1, 119576, Note_on_c, 0, 94, 77
1, 119583, Note_off_c, 0, 76, 60
1, 119585, Control_c, 0, 67, 65
1, 119586, Note_on_c, 0, 73, 73
1, 119593, Note_on_c, 0, 99, 60
1, 119595, Note_off_c, 0, 94, 70
1, 119600, Control_c, 0, 67, 65
1, 119614, Note_off_c, 0, 99, 62
1, 119617, Note_on_c, 0, 88, 70
1, 119621, Note_on_c, 0, 93, 40
1, 119632, Note_off_c, 0, 97, 66
1, 119634, Note_on_c, 0, 96, 43
1, 119645, Control_c, 0, 67, 66
1, 119649, Note_off_c, 0, 93, 57
1, 119650, Note_off_c, 0, 88, 63
1, 119660, Note_off_c, 0, 96, 56
1, 119691, Note_off_c, 0, 73, 61
1, 119704, Control_c, 0, 67, 65
1, 119719, Control_c, 0, 67, 65
1, 119720, Note_on_c, 0, 96, 85
1, 119730, Note_on_c, 0, 82, 65
1, 119734, Control_c, 0, 67, 64
1, 119749, Control_c, 0, 67, 64
1, 119751, Note_on_c, 0, 88, 62
1, 119779, Control_c, 0, 67, 63
1, 119780, Note_off_c, 0, 96, 61
1, 119793, Control_c, 0, 67, 63
1, 119794, Note_off_c, 0, 88, 52
1, 119808, Control_c, 0, 67, 62
1, 119828, Note_off_c, 0, 82, 40
1, 119846, Note_on_c, 0, 73, 67
1, 119848, Note_on_c, 0, 93, 74
1, 119857, Note_on_c, 0, 85, 69
1, 119880, Note_off_c, 0, 85, 69
1, 119882, Note_off_c, 0, 93, 62
1, 119925, Note_off_c, 0, 73, 55
1, 119965, Note_on_c, 0, 82, 66
1, 119978, Note_on_c, 0, 85, 74
1, 119980, Note_on_c, 0, 93, 71
1, 119986, Control_c, 0, 67, 63
1, 120015, Note_off_c, 0, 82, 63
1, 120043, Note_off_c, 0, 93, 59
1, 120099, Note_on_c, 0, 88, 69
1, 120105, Note_off_c, 0, 85, 63
1, 120107, Note_on_c, 0, 76, 54
1, 120114, Note_on_c, 0, 81, 39
1, 120125, Note_off_c, 0, 88, 66
1, 120142, Control_c, 0, 67, 62
1, 120147, Note_off_c, 0, 81, 57
1, 120204, Note_off_c, 0, 76, 48
1, 120225, Note_on_c, 0, 69, 65
1, 120226, Note_on_c, 0, 93, 84
1, 120234, Note_on_c, 0, 96, 81
1, 120236, Note_on_c, 0, 99, 63
1, 120252, Note_on_c, 0, 97, 46
1, 120253, Note_on_c, 0, 88, 72
1, 120255, Note_off_c, 0, 99, 63
1, 120273, Note_off_c, 0, 93, 64
1, 120278, Note_off_c, 0, 97, 58
1, 120292, Note_off_c, 0, 96, 65
1, 120297, Note_off_c, 0, 69, 60
1, 120299, Note_off_c, 0, 88, 63
1, 120354, Note_on_c, 0, 76, 60
1, 120379, Control_c, 0, 67, 62
1, 120384, Note_on_c, 0, 96, 65
1, 120394, Control_c, 0, 67, 61
1, 120400, Note_on_c, 0, 88, 62
1, 120409, Control_c, 0, 67, 61
1, 120424, Control_c, 0, 67, 60
1, 120434, Note_off_c, 0, 96, 62
1, 120441, Note_off_c, 0, 88, 54
1, 120460, Note_off_c, 0, 76, 58
1, 120478, Note_on_c, 0, 73, 61
1, 120490, Note_on_c, 0, 85, 75
1, 120493, Note_on_c, 0, 93, 71
1, 120498, Control_c, 0, 67, 61
1, 120526, Note_off_c, 0, 93, 61
1, 120528, Control_c, 0, 67, 61
1, 120536, Note_off_c, 0, 85, 61
1, 120544, Note_off_c, 0, 73, 60
1, 120613, Note_on_c, 0, 82, 68
1, 120617, Note_on_c, 0, 93, 80
1, 120624, Note_on_c, 0, 85, 79
1, 120690, Control_c, 0, 67, 61
1, 120719, Note_off_c, 0, 93, 57
1, 120720, Control_c, 0, 67, 60
1, 120725, Note_off_c, 0, 82, 61
1, 120743, Note_on_c, 0, 81, 85
1, 120746, Note_on_c, 0, 88, 75
1, 120750, Note_on_c, 0, 73, 86
1, 120764, Control_c, 0, 67, 61
1, 120771, Note_off_c, 0, 88, 66
1, 120778, Note_off_c, 0, 85, 63
1, 120779, Control_c, 0, 64, 104
1, 120779, Control_c, 0, 67, 62
1, 120786, Note_off_c, 0, 81, 66
1, 120788, Note_off_c, 0, 73, 66
1, 120794, Control_c, 0, 64, 72
1, 120794, Control_c, 0, 67, 63
1, 120809, Control_c, 0, 64, 0
1, 120809, Control_c, 0, 67, 64
1, 120824, Control_c, 0, 67, 65
1, 120838, Control_c, 0, 67, 65
1, 120853, Control_c, 0, 67, 66
1, 120890, Control_c, 0, 67, 66
1, 120921, Control_c, 0, 67, 67
1, 120951, Control_c, 0, 67, 67
1, 121025, Control_c, 0, 67, 67
1, 121039, Control_c, 0, 67, 66
1, 121087, Note_on_c, 0, 65, 97
1, 121089, Note_on_c, 0, 68, 94
1, 121091, Note_on_c, 0, 76, 90
1, 121092, Note_on_c, 0, 25, 87
1, 121093, Note_on_c, 0, 73, 90
1, 121099, Control_c, 0, 67, 67
1, 121113, Control_c, 0, 67, 67
1, 121126, Note_off_c, 0, 65, 69
1, 121129, Note_off_c, 0, 68, 65
1, 121134, Note_off_c, 0, 76, 60
1, 121137, Note_off_c, 0, 73, 65
1, 121201, Note_off_c, 0, 25, 58
1, 121217, Control_c, 0, 67, 67
1, 121235, Note_on_c, 0, 32, 58
1, 121236, Note_on_c, 0, 38, 63
1, 121282, Note_off_c, 0, 32, 59
1, 121290, Note_off_c, 0, 38, 58
1, 121291, Control_c, 0, 67, 66
1, 121321, Control_c, 0, 67, 66
1, 121336, Control_c, 0, 67, 65
1, 121348, Note_on_c, 0, 29, 80
1, 121350, Note_on_c, 0, 62, 79
1, 121351, Note_on_c, 0, 71, 77
1, 121361, Note_on_c, 0, 73, 63
1, 121374, Note_off_c, 0, 62, 67
1, 121381, Note_off_c, 0, 73, 63
1, 121384, Note_off_c, 0, 29, 67
1, 121389, Note_off_c, 0, 71, 62
1, 121439, Control_c, 0, 67, 66
1, 121479, Note_on_c, 0, 61, 68
1, 121482, Note_on_c, 0, 68, 74
1, 121483, Note_on_c, 0, 43, 56
1, 121483, Control_c, 0, 67, 66
1, 121490, Note_on_c, 0, 65, 54
1, 121493, Note_on_c, 0, 37, 55
1, 121506, Note_off_c, 0, 61, 65
1, 121514, Note_off_c, 0, 65, 60
1, 121518, Note_off_c, 0, 43, 65
1, 121518, Note_off_c, 0, 68, 63
1, 121524, Note_off_c, 0, 37, 60
1, 121602, Note_on_c, 0, 32, 67
1, 121639, Control_c, 0, 67, 67
1, 121658, Note_off_c, 0, 32, 58
1, 121728, Note_on_c, 0, 82, 90
1, 121730, Note_on_c, 0, 73, 85
1, 121732, Note_on_c, 0, 68, 84
1, 121736, Note_on_c, 0, 77, 76
1, 121738, Note_on_c, 0, 46, 72
1, 121742, Note_on_c, 0, 40, 65
1, 121774, Control_c, 0, 67, 67
1, 121779, Note_off_c, 0, 40, 66
1, 121781, Note_off_c, 0, 77, 63
1, 121782, Note_off_c, 0, 73, 62
1, 121787, Note_off_c, 0, 46, 61
1, 121797, Note_off_c, 0, 82, 64
1, 121804, Control_c, 0, 67, 67
1, 121810, Note_off_c, 0, 68, 60
1, 121834, Control_c, 0, 67, 66
1, 121849, Note_on_c, 0, 35, 76
1, 121863, Control_c, 0, 67, 66
1, 121896, Note_off_c, 0, 35, 61
1, 121908, Control_c, 0, 67, 65
1, 121937, Control_c, 0, 67, 65
1, 121970, Note_on_c, 0, 80, 84
1, 121973, Note_on_c, 0, 71, 78
1, 121974, Note_on_c, 0, 67, 78
1, 121977, Note_on_c, 0, 73, 82
1, 121980, Note_on_c, 0, 44, 68
1, 121982, Control_c, 0, 67, 64
1, 121986, Note_on_c, 0, 50, 63
1, 121996, Control_c, 0, 67, 64
1, 122002, Note_off_c, 0, 67, 63
1, 122006, Note_off_c, 0, 71, 61
1, 122010, Note_off_c, 0, 80, 62
1, 122011, Control_c, 0, 67, 63
1, 122024, Note_off_c, 0, 44, 60
1, 122025, Note_off_c, 0, 73, 58
1, 122026, Control_c, 0, 67, 62
1, 122029, Note_off_c, 0, 50, 66
1, 122041, Control_c, 0, 64, 28
1, 122041, Control_c, 0, 67, 62
1, 122055, Control_c, 0, 64, 54
1, 122055, Control_c, 0, 67, 61
1, 122070, Control_c, 0, 64, 63
1, 122070, Control_c, 0, 67, 60
1, 122085, Control_c, 0, 64, 68
1, 122085, Control_c, 0, 67, 59
1, 122087, Note_on_c, 0, 38, 79
1, 122097, Note_on_c, 0, 65, 82
1, 122100, Control_c, 0, 64, 73
1, 122100, Control_c, 0, 67, 57
1, 122104, Note_on_c, 0, 68, 76
1, 122109, Note_on_c, 0, 77, 68
1, 122109, Note_on_c, 0, 79, 78
1, 122114, Control_c, 0, 64, 77
1, 122114, Control_c, 0, 67, 56
1, 122118, Note_off_c, 0, 65, 70
1, 122123, Note_on_c, 0, 72, 56
1, 122129, Note_off_c, 0, 68, 65
1, 122129, Control_c, 0, 64, 81
1, 122129, Control_c, 0, 67, 53
1, 122134, Note_on_c, 0, 40, 25
1, 122135, Note_off_c, 0, 40, 127
1, 122141, Note_off_c, 0, 77, 63
1, 122141, Note_off_c, 0, 79, 64
1, 122142, Note_off_c, 0, 72, 63
1, 122144, Control_c, 0, 64, 82
1, 122144, Control_c, 0, 67, 50
1, 122151, Note_off_c, 0, 38, 59
1, 122159, Control_c, 0, 67, 46
1, 122174, Control_c, 0, 67, 42
1, 122189, Control_c, 0, 67, 37
1, 122204, Control_c, 0, 64, 83
1, 122204, Control_c, 0, 67, 32
1, 122213, Note_on_c, 0, 52, 68
1, 122219, Control_c, 0, 64, 84
1, 122219, Control_c, 0, 67, 24
1, 122234, Control_c, 0, 64, 86
1, 122234, Control_c, 0, 67, 18
1, 122234, Note_on_c, 0, 46, 50
1, 122248, Control_c, 0, 64, 87
1, 122248, Control_c, 0, 67, 16
1, 122263, Control_c, 0, 64, 87
1, 122263, Control_c, 0, 67, 16
1, 122266, Note_off_c, 0, 46, 54
1, 122278, Control_c, 0, 64, 83
1, 122286, Note_off_c, 0, 52, 61
1, 122293, Control_c, 0, 64, 76
1, 122307, Control_c, 0, 64, 68
1, 122322, Control_c, 0, 64, 66
1, 122330, Note_on_c, 0, 43, 88
1, 122330, Note_on_c, 0, 88, 97
1, 122331, Note_on_c, 0, 77, 100
1, 122331, Note_on_c, 0, 85, 97
1, 122332, Note_on_c, 0, 80, 103
1, 122337, Control_c, 0, 64, 69
1, 122337, Control_c, 0, 67, 16
1, 122352, Control_c, 0, 64, 75
1, 122352, Control_c, 0, 67, 17
1, 122356, Note_off_c, 0, 88, 64
1, 122365, Note_off_c, 0, 77, 69
1, 122365, Note_off_c, 0, 85, 67
1, 122366, Note_off_c, 0, 80, 63
1, 122367, Control_c, 0, 64, 81
1, 122367, Control_c, 0, 67, 19
1, 122368, Note_off_c, 0, 43, 66
1, 122389, Control_c, 0, 64, 83
1, 122389, Control_c, 0, 67, 20
1, 122403, Control_c, 0, 67, 20
1, 122418, Control_c, 0, 67, 21
1, 122448, Control_c, 0, 67, 21
1, 122476, Note_on_c, 0, 56, 69
1, 122478, Control_c, 0, 67, 22
1, 122508, Control_c, 0, 64, 84
1, 122517, Note_on_c, 0, 49, 37
1, 122523, Note_off_c, 0, 56, 61
1, 122523, Control_c, 0, 64, 84
1, 122552, Control_c, 0, 64, 84
1, 122555, Note_off_c, 0, 49, 49
1, 122567, Control_c, 0, 64, 78
1, 122581, Note_on_c, 0, 44, 86
1, 122581, Note_on_c, 0, 80, 92
1, 122581, Note_on_c, 0, 85, 101
1, 122582, Note_on_c, 0, 73, 107
1, 122582, Note_on_c, 0, 77, 92
1, 122582, Control_c, 0, 64, 67
1, 122582, Control_c, 0, 67, 21
1, 122597, Control_c, 0, 64, 0
1, 122612, Control_c, 0, 67, 21
1, 122627, Control_c, 0, 67, 20
1, 122642, Control_c, 0, 64, 42
1, 122642, Control_c, 0, 67, 20
1, 122647, Note_off_c, 0, 44, 62
1, 122657, Control_c, 0, 64, 64
1, 122672, Control_c, 0, 64, 68
1, 122686, Control_c, 0, 64, 70
1, 122701, Control_c, 0, 64, 72
1, 122701, Control_c, 0, 67, 19
1, 122716, Control_c, 0, 64, 74
1, 122719, Note_on_c, 0, 59, 80
1, 122725, Note_on_c, 0, 53, 61
1, 122731, Control_c, 0, 64, 74
1, 122731, Control_c, 0, 67, 19
1, 122755, Note_off_c, 0, 53, 68
1, 122760, Control_c, 0, 64, 75
1, 122775, Note_off_c, 0, 59, 60
1, 122775, Control_c, 0, 64, 75
1, 122804, Control_c, 0, 64, 74
1, 122819, Control_c, 0, 64, 70
1, 122833, Note_on_c, 0, 50, 92
1, 122834, Control_c, 0, 64, 62
1, 122849, Control_c, 0, 64, 34
1, 122864, Control_c, 0, 64, 23
1, 122879, Control_c, 0, 64, 50
1, 122884, Note_off_c, 0, 50, 66
1, 122893, Control_c, 0, 64, 63
1, 122908, Control_c, 0, 64, 68
1, 122923, Control_c, 0, 64, 73
1, 122937, Control_c, 0, 64, 76
1, 122937, Control_c, 0, 67, 19
1, 122952, Control_c, 0, 64, 77
1, 122965, Note_on_c, 0, 64, 79
1, 122979, Note_on_c, 0, 58, 56
1, 122982, Control_c, 0, 64, 76
1, 122997, Control_c, 0, 64, 74
1, 123004, Note_off_c, 0, 58, 58
1, 123012, Control_c, 0, 64, 69
1, 123023, Note_off_c, 0, 64, 63
1, 123026, Control_c, 0, 64, 65
1, 123041, Control_c, 0, 64, 64
1, 123056, Control_c, 0, 64, 66
1, 123071, Control_c, 0, 64, 68
1, 123080, Note_on_c, 0, 53, 90
1, 123086, Control_c, 0, 64, 71
1, 123101, Control_c, 0, 64, 73
1, 123133, Note_off_c, 0, 53, 66
1, 123137, Control_c, 0, 64, 71
1, 123152, Control_c, 0, 64, 67
1, 123167, Control_c, 0, 64, 62
1, 123182, Control_c, 0, 64, 57
1, 123197, Control_c, 0, 64, 62
1, 123211, Control_c, 0, 64, 67
1, 123213, Note_on_c, 0, 67, 74
1, 123226, Note_on_c, 0, 61, 65
1, 123226, Control_c, 0, 64, 72
1, 123241, Control_c, 0, 64, 77
1, 123256, Control_c, 0, 64, 80
1, 123263, Note_off_c, 0, 61, 60
1, 123268, Note_off_c, 0, 67, 61
1, 123271, Control_c, 0, 64, 79
1, 123271, Control_c, 0, 67, 20
1, 123286, Control_c, 0, 64, 76
1, 123301, Control_c, 0, 64, 72
1, 123316, Control_c, 0, 64, 73
1, 123322, Note_off_c, 0, 77, 60
1, 123325, Note_off_c, 0, 85, 62
1, 123330, Note_off_c, 0, 80, 57
1, 123330, Note_on_c, 0, 56, 79
1, 123331, Control_c, 0, 64, 77
1, 123346, Control_c, 0, 64, 82
1, 123354, Note_off_c, 0, 73, 61
1, 123360, Control_c, 0, 64, 85
1, 123360, Control_c, 0, 67, 20
1, 123375, Control_c, 0, 64, 86
1, 123378, Note_off_c, 0, 56, 58
1, 123405, Control_c, 0, 64, 85
1, 123456, Note_on_c, 0, 70, 65
1, 123456, Note_on_c, 0, 64, 68
1, 123474, Note_off_c, 0, 70, 64
1, 123485, Note_off_c, 0, 64, 67
1, 123509, Control_c, 0, 64, 83
1, 123524, Control_c, 0, 64, 75
1, 123539, Control_c, 0, 64, 64
1, 123553, Control_c, 0, 64, 0
1, 123563, Note_on_c, 0, 73, 95
1, 123564, Note_on_c, 0, 82, 98
1, 123566, Note_on_c, 0, 68, 94
1, 123570, Note_on_c, 0, 77, 83
1, 123583, Control_c, 0, 64, 32
1, 123584, Note_on_c, 0, 35, 82
1, 123598, Control_c, 0, 64, 63
1, 123608, Note_off_c, 0, 82, 68
1, 123613, Control_c, 0, 64, 68
1, 123614, Note_off_c, 0, 35, 69
1, 123614, Note_off_c, 0, 73, 63
1, 123614, Note_off_c, 0, 77, 60
1, 123626, Note_off_c, 0, 68, 59
1, 123628, Control_c, 0, 64, 73
1, 123628, Control_c, 0, 67, 21
1, 123643, Control_c, 0, 64, 76
1, 123643, Control_c, 0, 67, 21
1, 123658, Control_c, 0, 64, 76
1, 123673, Control_c, 0, 64, 76
1, 123687, Control_c, 0, 64, 75
1, 123711, Note_on_c, 0, 44, 72
1, 123712, Note_on_c, 0, 50, 67
1, 123732, Control_c, 0, 64, 76
1, 123754, Note_off_c, 0, 44, 60
1, 123758, Note_off_c, 0, 50, 62
1, 123776, Control_c, 0, 64, 73
1, 123791, Control_c, 0, 64, 67
1, 123791, Control_c, 0, 67, 21
1, 123806, Control_c, 0, 64, 43
1, 123806, Control_c, 0, 67, 20
1, 123813, Note_on_c, 0, 38, 86
1, 123817, Note_on_c, 0, 73, 92
1, 123817, Note_on_c, 0, 79, 97
1, 123819, Note_on_c, 0, 68, 88
1, 123821, Control_c, 0, 64, 0
1, 123821, Control_c, 0, 67, 19
1, 123823, Note_on_c, 0, 65, 80
1, 123835, Control_c, 0, 67, 18
1, 123850, Control_c, 0, 67, 18
1, 123853, Note_on_c, 0, 70, 39
1, 123854, Note_off_c, 0, 70, 127
1, 123865, Control_c, 0, 64, 53
1, 123868, Note_off_c, 0, 38, 63
1, 123887, Control_c, 0, 64, 64
1, 123902, Control_c, 0, 64, 68
1, 123917, Control_c, 0, 64, 71
1, 123924, Note_off_c, 0, 79, 60
1, 123932, Control_c, 0, 64, 73
1, 123951, Note_on_c, 0, 46, 70
1, 123953, Note_on_c, 0, 52, 71
1, 123964, Note_off_c, 0, 73, 61
1, 123968, Note_off_c, 0, 68, 63
1, 123976, Control_c, 0, 67, 17
1, 123977, Note_off_c, 0, 65, 64
1, 123991, Control_c, 0, 67, 17
1, 123997, Note_off_c, 0, 46, 59
1, 124003, Note_off_c, 0, 52, 60
1, 124006, Control_c, 0, 67, 16
1, 124021, Control_c, 0, 67, 16
1, 124050, Control_c, 0, 64, 73
1, 124050, Control_c, 0, 67, 15
1, 124064, Note_on_c, 0, 40, 86
1, 124065, Control_c, 0, 67, 12
1, 124080, Control_c, 0, 64, 70
1, 124080, Control_c, 0, 67, 0
1, 124094, Control_c, 0, 64, 65
1, 124109, Note_on_c, 0, 41, 30
1, 124111, Control_c, 0, 64, 46
1, 124126, Control_c, 0, 64, 0
1, 124133, Note_off_c, 0, 40, 60
1, 124140, Note_off_c, 0, 41, 35
1, 124155, Control_c, 0, 64, 24
1, 124170, Control_c, 0, 64, 59
1, 124184, Control_c, 0, 64, 66
1, 124186, Note_on_c, 0, 68, 86
1, 124187, Note_on_c, 0, 55, 77
1, 124187, Note_on_c, 0, 61, 90
1, 124189, Note_on_c, 0, 65, 86
1, 124190, Note_on_c, 0, 70, 87
1, 124194, Note_on_c, 0, 49, 76
1, 124199, Control_c, 0, 64, 70
1, 124213, Control_c, 0, 64, 73
1, 124228, Control_c, 0, 64, 74
1, 124232, Note_off_c, 0, 61, 63
1, 124234, Note_off_c, 0, 65, 63
1, 124242, Note_off_c, 0, 55, 64
1, 124249, Note_off_c, 0, 49, 58
1, 124249, Note_off_c, 0, 68, 64
1, 124262, Note_off_c, 0, 70, 63
1, 124287, Control_c, 0, 64, 75
1, 124299, Note_on_c, 0, 43, 92
1, 124302, Control_c, 0, 64, 75
1, 124347, Control_c, 0, 64, 73
1, 124362, Control_c, 0, 64, 67
1, 124376, Control_c, 0, 64, 34
1, 124389, Note_off_c, 0, 43, 60
1, 124391, Control_c, 0, 64, 0
1, 124422, Note_on_c, 0, 59, 88
1, 124424, Note_on_c, 0, 50, 73
1, 124424, Note_on_c, 0, 73, 93
1, 124425, Note_on_c, 0, 65, 91
1, 124425, Note_on_c, 0, 68, 93
1, 124425, Note_on_c, 0, 76, 92
1, 124436, Control_c, 0, 64, 61
1, 124450, Control_c, 0, 64, 68
1, 124459, Note_off_c, 0, 50, 68
1, 124465, Control_c, 0, 64, 74
1, 124467, Note_off_c, 0, 59, 62
1, 124480, Control_c, 0, 64, 78
1, 124495, Control_c, 0, 64, 81
1, 124509, Control_c, 0, 64, 81
1, 124541, Note_on_c, 0, 46, 89
1, 124569, Control_c, 0, 64, 80
1, 124583, Note_on_c, 0, 45, 39
1, 124583, Control_c, 0, 64, 77
1, 124598, Control_c, 0, 64, 69
1, 124613, Control_c, 0, 64, 40
1, 124618, Note_off_c, 0, 45, 53
1, 124636, Control_c, 0, 64, 0
1, 124693, Note_on_c, 0, 55, 77
1, 124702, Note_on_c, 0, 61, 96
1, 124714, Note_on_c, 0, 49, 61
1, 124724, Control_c, 0, 64, 40
1, 124739, Note_off_c, 0, 49, 60
1, 124739, Control_c, 0, 64, 67
1, 124750, Note_off_c, 0, 76, 61
1, 124754, Control_c, 0, 64, 77
1, 124755, Note_off_c, 0, 65, 61
1, 124764, Note_off_c, 0, 46, 64
1, 124769, Control_c, 0, 64, 92
1, 124781, Note_off_c, 0, 68, 59
1, 124783, Control_c, 0, 64, 127
1, 124792, Note_off_c, 0, 73, 61
1, 124818, Note_off_c, 0, 55, 64
1, 124825, Note_off_c, 0, 61, 61
1, 125053, Note_on_c, 0, 66, 99
1, 125054, Note_on_c, 0, 63, 93
1, 125056, Note_on_c, 0, 75, 99
1, 125057, Note_on_c, 0, 68, 99
1, 125057, Note_on_c, 0, 71, 97
1, 125058, Note_on_c, 0, 80, 91
1, 125059, Note_on_c, 0, 54, 92
1, 125062, Note_on_c, 0, 59, 85
1, 125065, Control_c, 0, 64, 86
1, 125080, Control_c, 0, 64, 53
1, 125095, Control_c, 0, 64, 0
1, 125124, Control_c, 0, 64, 62
1, 125139, Control_c, 0, 64, 77
1, 125142, Note_off_c, 0, 80, 63
1, 125154, Control_c, 0, 64, 95
1, 125169, Control_c, 0, 64, 127
1, 125181, Note_off_c, 0, 68, 56
1, 125194, Note_off_c, 0, 71, 60
1, 125197, Note_off_c, 0, 54, 61
1, 125206, Note_off_c, 0, 75, 58
1, 125208, Note_off_c, 0, 66, 57
1, 125227, Note_off_c, 0, 63, 58
1, 125234, Note_off_c, 0, 59, 55
1, 125443, Control_c, 0, 64, 86
1, 125444, Note_on_c, 0, 65, 93
1, 125447, Note_on_c, 0, 73, 98
1, 125447, Note_on_c, 0, 66, 98
1, 125448, Note_on_c, 0, 62, 92
1, 125448, Note_on_c, 0, 69, 95
1, 125448, Note_on_c, 0, 78, 92
1, 125449, Note_on_c, 0, 53, 89
1, 125450, Note_on_c, 0, 57, 85
1, 125457, Control_c, 0, 64, 64
1, 125472, Control_c, 0, 64, 0
1, 125502, Control_c, 0, 64, 69
1, 125517, Control_c, 0, 64, 87
1, 125524, Note_off_c, 0, 78, 65
1, 125526, Note_off_c, 0, 53, 62
1, 125531, Control_c, 0, 64, 123
1, 125535, Note_off_c, 0, 65, 61
1, 125538, Note_off_c, 0, 62, 65
1, 125538, Note_off_c, 0, 69, 62
1, 125539, Note_off_c, 0, 66, 59
1, 125546, Control_c, 0, 64, 127
1, 125547, Note_off_c, 0, 57, 57
1, 125550, Note_off_c, 0, 73, 64
1, 125740, Control_c, 0, 64, 100
1, 125747, Note_on_c, 0, 72, 91
1, 125748, Note_on_c, 0, 68, 99
1, 125748, Note_on_c, 0, 77, 94
1, 125750, Note_on_c, 0, 65, 95
1, 125754, Note_on_c, 0, 63, 90
1, 125755, Control_c, 0, 64, 73
1, 125756, Note_on_c, 0, 60, 71
1, 125758, Note_on_c, 0, 54, 79
1, 125759, Note_on_c, 0, 51, 80
1, 125762, Note_on_c, 0, 56, 80
1, 125770, Control_c, 0, 64, 0
1, 125815, Control_c, 0, 64, 64
1, 125829, Control_c, 0, 64, 82
1, 125833, Note_off_c, 0, 51, 64
1, 125843, Note_off_c, 0, 65, 65
1, 125844, Control_c, 0, 64, 104
1, 125857, Note_off_c, 0, 54, 65
1, 125859, Control_c, 0, 64, 127
1, 125860, Note_off_c, 0, 68, 65
1, 125867, Note_off_c, 0, 72, 60
1, 125869, Note_off_c, 0, 56, 64
1, 125876, Note_off_c, 0, 60, 64
1, 125885, Note_off_c, 0, 63, 60
1, 125894, Note_off_c, 0, 77, 65
1, 125963, Control_c, 0, 67, 8
1, 125978, Control_c, 0, 67, 12
1, 125992, Control_c, 0, 67, 18
1, 126007, Control_c, 0, 67, 28
1, 126022, Control_c, 0, 67, 36
1, 126037, Control_c, 0, 67, 44
1, 126052, Control_c, 0, 67, 50
1, 126067, Control_c, 0, 67, 54
1, 126081, Control_c, 0, 67, 57
1, 126096, Control_c, 0, 67, 61
1, 126111, Control_c, 0, 67, 65
1, 126133, Control_c, 0, 67, 69
1, 126148, Control_c, 0, 67, 72
1, 126162, Control_c, 0, 67, 77
1, 126177, Control_c, 0, 67, 81
1, 126187, Note_on_c, 0, 101, 69
1, 126189, Note_on_c, 0, 87, 65
1, 126192, Control_c, 0, 67, 85
1, 126193, Note_on_c, 0, 92, 54
1, 126196, Note_on_c, 0, 78, 58
1, 126199, Note_on_c, 0, 83, 55
1, 126202, Note_on_c, 0, 96, 60
1, 126207, Control_c, 0, 67, 87
1, 126222, Control_c, 0, 67, 89
1, 126225, Note_off_c, 0, 87, 65
1, 126237, Control_c, 0, 67, 90
1, 126252, Control_c, 0, 67, 92
1, 126260, Note_off_c, 0, 92, 46
1, 126261, Note_off_c, 0, 78, 50
1, 126267, Control_c, 0, 67, 92
1, 126296, Control_c, 0, 67, 93
1, 126304, Note_on_c, 0, 77, 55
1, 126305, Note_on_c, 0, 81, 64
1, 126308, Note_on_c, 0, 99, 68
1, 126311, Note_on_c, 0, 86, 55
1, 126319, Note_on_c, 0, 95, 51
1, 126321, Note_off_c, 0, 83, 25
1, 126331, Note_off_c, 0, 81, 68
1, 126331, Note_off_c, 0, 86, 61
1, 126331, Note_off_c, 0, 96, 56
1, 126335, Note_off_c, 0, 77, 66
1, 126340, Note_off_c, 0, 95, 63
1, 126343, Note_off_c, 0, 101, 41
1, 126346, Note_off_c, 0, 99, 58
1, 126415, Control_c, 0, 67, 92
1, 126429, Control_c, 0, 67, 92
1, 126433, Note_on_c, 0, 89, 67
1, 126434, Note_on_c, 0, 75, 63
1, 126436, Note_on_c, 0, 84, 60
1, 126439, Note_on_c, 0, 98, 68
1, 126440, Note_on_c, 0, 80, 57
1, 126444, Control_c, 0, 67, 91
1, 126446, Note_on_c, 0, 93, 57
1, 126460, Control_c, 0, 67, 90
1, 126463, Note_off_c, 0, 89, 62
1, 126474, Control_c, 0, 67, 90
1, 126478, Note_off_c, 0, 84, 56
1, 126484, Note_off_c, 0, 93, 48
1, 126495, Note_off_c, 0, 98, 56
1, 126505, Note_off_c, 0, 75, 59
1, 126508, Note_off_c, 0, 80, 52
1, 126554, Note_on_c, 0, 78, 62
1, 126560, Note_on_c, 0, 74, 68
1, 126560, Note_on_c, 0, 96, 65
1, 126562, Note_on_c, 0, 92, 57
1, 126568, Note_on_c, 0, 87, 50
1, 126569, Note_off_c, 0, 87, 127
1, 126579, Control_c, 0, 67, 89
1, 126580, Note_off_c, 0, 78, 68
1, 126583, Note_on_c, 0, 83, 27
1, 126584, Note_off_c, 0, 74, 70
1, 126586, Note_off_c, 0, 92, 67
1, 126587, Note_off_c, 0, 96, 65
1, 126594, Control_c, 0, 67, 88
1, 126609, Control_c, 0, 67, 88
1, 126618, Note_off_c, 0, 83, 49
1, 126624, Control_c, 0, 67, 87
1, 126663, Poly_aftertouch_c, 0, 88, 0
1, 126668, Control_c, 0, 67, 86
1, 126678, Note_on_c, 0, 86, 72
1, 126681, Note_on_c, 0, 81, 70
1, 126682, Note_on_c, 0, 90, 75
1, 126688, Note_on_c, 0, 95, 63
1, 126700, Note_on_c, 0, 72, 48
1, 126710, Note_off_c, 0, 81, 64
1, 126723, Note_off_c, 0, 72, 61
1, 126728, Note_off_c, 0, 86, 61
1, 126729, Note_on_c, 0, 77, 39
1, 126729, Note_off_c, 0, 95, 52
1, 126744, Note_off_c, 0, 90, 58
1, 126773, Note_off_c, 0, 77, 46
1, 126801, Note_on_c, 0, 80, 67
1, 126801, Note_on_c, 0, 89, 68
1, 126802, Note_on_c, 0, 71, 66
1, 126803, Note_on_c, 0, 84, 68
1, 126807, Note_on_c, 0, 93, 63
1, 126817, Note_on_c, 0, 75, 42
1, 126824, Note_off_c, 0, 80, 63
1, 126828, Note_off_c, 0, 71, 70
1, 126829, Note_off_c, 0, 89, 65
1, 126835, Note_off_c, 0, 84, 63
1, 126839, Note_off_c, 0, 93, 64
1, 126845, Note_off_c, 0, 75, 56
1, 126845, Control_c, 0, 67, 86
1, 126860, Control_c, 0, 67, 85
1, 126898, Control_c, 0, 67, 85
1, 126912, Control_c, 0, 67, 84
1, 126926, Note_on_c, 0, 92, 74
1, 126927, Note_on_c, 0, 87, 75
1, 126929, Note_on_c, 0, 83, 53
1, 126942, Control_c, 0, 67, 84
1, 126943, Note_on_c, 0, 68, 67
1, 126945, Note_on_c, 0, 78, 68
1, 126957, Control_c, 0, 67, 83
1, 126972, Control_c, 0, 67, 83
1, 126973, Note_off_c, 0, 83, 49
1, 126995, Poly_aftertouch_c, 0, 73, 127
1, 127000, Note_off_c, 0, 87, 63
1, 127000, Note_off_c, 0, 68, 64
1, 127001, Control_c, 0, 67, 82
1, 127003, Note_off_c, 0, 78, 61
1, 127008, Note_off_c, 0, 92, 59
1, 127016, Control_c, 0, 67, 82
1, 127021, Poly_aftertouch_c, 0, 73, 0
1, 127050, Note_on_c, 0, 86, 77
1, 127051, Note_on_c, 0, 90, 78
1, 127056, Note_on_c, 0, 68, 67
1, 127061, Note_on_c, 0, 81, 69
1, 127066, Note_on_c, 0, 77, 52
1, 127069, Note_on_c, 0, 72, 51
1, 127073, Note_off_c, 0, 86, 69
1, 127083, Note_off_c, 0, 81, 70
1, 127089, Note_off_c, 0, 77, 61
1, 127089, Note_off_c, 0, 72, 61
1, 127093, Note_off_c, 0, 90, 60
1, 127097, Note_off_c, 0, 68, 61
1, 127170, Note_on_c, 0, 80, 75
1, 127171, Note_on_c, 0, 75, 71
1, 127172, Note_on_c, 0, 84, 76
1, 127181, Note_on_c, 0, 89, 69
1, 127182, Note_on_c, 0, 66, 60
1, 127188, Note_on_c, 0, 71, 56
1, 127224, Note_off_c, 0, 75, 63
1, 127225, Note_off_c, 0, 80, 62
1, 127253, Control_c, 0, 67, 81
1, 127254, Note_off_c, 0, 71, 0
1, 127287, Note_on_c, 0, 74, 71
1, 127289, Note_on_c, 0, 87, 80
1, 127293, Note_on_c, 0, 78, 79
1, 127297, Note_on_c, 0, 69, 64
1, 127298, Control_c, 0, 67, 81
1, 127306, Note_on_c, 0, 83, 58
1, 127308, Note_on_c, 0, 65, 53
1, 127309, Poly_aftertouch_c, 0, 71, 0
1, 127312, Note_off_c, 0, 74, 70
1, 127315, Note_off_c, 0, 78, 69
1, 127323, Note_off_c, 0, 83, 66
1, 127323, Note_off_c, 0, 69, 67
1, 127328, Control_c, 0, 67, 80
1, 127329, Note_off_c, 0, 89, 34
1, 127335, Note_off_c, 0, 84, 45
1, 127335, Note_off_c, 0, 65, 65
1, 127343, Note_off_c, 0, 87, 65
1, 127343, Control_c, 0, 67, 80
1, 127346, Note_off_c, 0, 66, 49
1, 127358, Control_c, 0, 67, 79
1, 127373, Control_c, 0, 67, 77
1, 127388, Control_c, 0, 67, 76
1, 127402, Control_c, 0, 67, 76
1, 127408, Note_on_c, 0, 72, 65
1, 127411, Note_on_c, 0, 77, 78
1, 127414, Note_on_c, 0, 68, 68
1, 127415, Note_on_c, 0, 81, 78
1, 127416, Note_on_c, 0, 86, 74
1, 127417, Note_on_c, 0, 63, 68
1, 127417, Control_c, 0, 67, 75
1, 127432, Control_c, 0, 67, 75
1, 127458, Note_off_c, 0, 72, 54
1, 127461, Note_off_c, 0, 77, 60
1, 127467, Note_off_c, 0, 86, 62
1, 127485, Note_off_c, 0, 81, 61
1, 127492, Control_c, 0, 67, 75
1, 127492, Note_off_c, 0, 68, 61
1, 127501, Note_off_c, 0, 63, 59
1, 127528, Note_on_c, 0, 80, 74
1, 127530, Note_on_c, 0, 84, 76
1, 127531, Note_on_c, 0, 66, 72
1, 127531, Note_on_c, 0, 75, 77
1, 127535, Note_on_c, 0, 71, 72
1, 127537, Note_on_c, 0, 62, 75
1, 127560, Note_off_c, 0, 71, 65
1, 127565, Note_off_c, 0, 66, 62
1, 127571, Note_off_c, 0, 84, 58
1, 127573, Note_off_c, 0, 62, 60
1, 127575, Note_off_c, 0, 75, 62
1, 127575, Note_off_c, 0, 80, 61
1, 127581, Control_c, 0, 67, 75
1, 127610, Control_c, 0, 67, 74
1, 127661, Note_on_c, 0, 69, 79
1, 127662, Note_on_c, 0, 78, 85
1, 127663, Note_on_c, 0, 83, 80
1, 127666, Note_on_c, 0, 74, 82
1, 127669, Note_on_c, 0, 60, 70
1, 127687, Note_on_c, 0, 65, 60
1, 127702, Note_off_c, 0, 60, 64
1, 127707, Note_off_c, 0, 69, 61
1, 127708, Note_off_c, 0, 74, 61
1, 127722, Note_off_c, 0, 65, 62
1, 127733, Note_off_c, 0, 78, 62
1, 127736, Note_off_c, 0, 83, 55
1, 127778, Note_on_c, 0, 72, 85
1, 127778, Note_on_c, 0, 81, 78
1, 127779, Note_on_c, 0, 77, 85
1, 127781, Note_on_c, 0, 63, 69
1, 127781, Note_on_c, 0, 68, 75
1, 127787, Note_on_c, 0, 59, 66
1, 127809, Note_off_c, 0, 68, 59
1, 127814, Note_off_c, 0, 59, 65
1, 127815, Note_off_c, 0, 63, 59
1, 127823, Note_off_c, 0, 77, 59
1, 127825, Control_c, 0, 67, 74
1, 127826, Note_off_c, 0, 72, 63
1, 127833, Note_off_c, 0, 81, 61
1, 127869, Control_c, 0, 67, 73
1, 127891, Note_on_c, 0, 80, 90
1, 127893, Note_on_c, 0, 75, 92
1, 127900, Note_on_c, 0, 61, 75
1, 127900, Note_on_c, 0, 71, 76
1, 127902, Note_on_c, 0, 56, 77
1, 127911, Note_on_c, 0, 66, 71
1, 127928, Control_c, 0, 67, 72
1, 127938, Note_off_c, 0, 71, 54
1, 127942, Note_off_c, 0, 66, 59
1, 127943, Control_c, 0, 67, 72
1, 127958, Control_c, 0, 67, 71
1, 127966, Note_off_c, 0, 61, 61
1, 127971, Note_off_c, 0, 75, 62
1, 127973, Control_c, 0, 67, 70
1, 127975, Note_off_c, 0, 56, 63
1, 127988, Control_c, 0, 67, 70
1, 128002, Control_c, 0, 67, 69
1, 128014, Note_on_c, 0, 74, 91
1, 128016, Note_on_c, 0, 69, 83
1, 128017, Note_on_c, 0, 56, 71
1, 128018, Note_on_c, 0, 78, 83
1, 128021, Note_on_c, 0, 65, 79
1, 128026, Note_on_c, 0, 60, 71
1, 128032, Control_c, 0, 67, 68
1, 128040, Note_off_c, 0, 80, 60
1, 128043, Note_off_c, 0, 65, 70
1, 128046, Control_c, 0, 67, 68
1, 128049, Note_off_c, 0, 60, 70
1, 128060, Note_off_c, 0, 69, 64
1, 128061, Note_off_c, 0, 74, 65
1, 128061, Control_c, 0, 67, 67
1, 128064, Note_off_c, 0, 56, 66
1, 128074, Note_off_c, 0, 78, 60
1, 128076, Control_c, 0, 67, 67
1, 128107, Control_c, 0, 67, 66
1, 128122, Control_c, 0, 67, 67
1, 128124, Note_on_c, 0, 58, 87
1, 128135, Note_on_c, 0, 72, 90
1, 128137, Control_c, 0, 67, 67
1, 128138, Note_on_c, 0, 68, 89
1, 128141, Note_on_c, 0, 63, 76
1, 128141, Note_on_c, 0, 77, 76
1, 128144, Note_on_c, 0, 54, 70
1, 128182, Note_off_c, 0, 63, 53
1, 128190, Note_off_c, 0, 68, 57
1, 128190, Note_off_c, 0, 77, 57
1, 128218, Note_off_c, 0, 72, 57
1, 128225, Note_off_c, 0, 54, 54
1, 128225, Control_c, 0, 67, 67
1, 128244, Note_on_c, 0, 66, 90
1, 128244, Note_on_c, 0, 75, 85
1, 128246, Note_on_c, 0, 56, 85
1, 128249, Note_on_c, 0, 62, 79
1, 128250, Note_on_c, 0, 71, 81
1, 128252, Note_off_c, 0, 58, 0
1, 128255, Control_c, 0, 67, 66
1, 128261, Note_on_c, 0, 53, 68
1, 128270, Control_c, 0, 67, 66
1, 128273, Note_off_c, 0, 62, 68
1, 128285, Control_c, 0, 67, 65
1, 128288, Note_off_c, 0, 53, 67
1, 128292, Note_off_c, 0, 56, 65
1, 128297, Note_off_c, 0, 71, 64
1, 128300, Note_off_c, 0, 66, 63
1, 128300, Control_c, 0, 67, 64
1, 128308, Note_off_c, 0, 75, 64
1, 128309, Poly_aftertouch_c, 0, 58, 0
1, 128315, Control_c, 0, 67, 64
1, 128329, Control_c, 0, 67, 62
1, 128344, Control_c, 0, 67, 61
1, 128359, Control_c, 0, 67, 59
1, 128365, Note_on_c, 0, 51, 86
1, 128367, Note_on_c, 0, 60, 87
1, 128367, Note_on_c, 0, 69, 93
1, 128376, Note_on_c, 0, 65, 95
1, 128378, Note_on_c, 0, 74, 94
1, 128381, Control_c, 0, 67, 58
1, 128390, Note_on_c, 0, 56, 80
1, 128396, Control_c, 0, 67, 56
1, 128411, Control_c, 0, 67, 53
1, 128422, Note_off_c, 0, 65, 65
1, 128426, Note_off_c, 0, 60, 62
1, 128426, Control_c, 0, 67, 49
1, 128440, Control_c, 0, 67, 45
1, 128443, Note_off_c, 0, 74, 63
1, 128455, Control_c, 0, 67, 40
1, 128462, Note_off_c, 0, 51, 62
1, 128469, Note_off_c, 0, 56, 63
1, 128469, Note_off_c, 0, 69, 63
1, 128470, Control_c, 0, 67, 34
1, 128484, Control_c, 0, 67, 30
1, 128490, Note_on_c, 0, 63, 100
1, 128490, Note_on_c, 0, 72, 95
1, 128491, Note_on_c, 0, 50, 100
1, 128492, Note_on_c, 0, 54, 96
1, 128492, Note_on_c, 0, 59, 97
1, 128494, Note_on_c, 0, 68, 101
1, 128499, Control_c, 0, 67, 29
1, 128514, Control_c, 0, 67, 29
1, 128521, Note_off_c, 0, 59, 69
1, 128529, Note_off_c, 0, 50, 71
1, 128529, Control_c, 0, 67, 31
1, 128531, Note_off_c, 0, 54, 69
1, 128533, Note_off_c, 0, 72, 64
1, 128537, Note_on_c, 0, 69, 8
1, 128544, Control_c, 0, 67, 34
1, 128547, Note_off_c, 0, 63, 61
1, 128549, Note_off_c, 0, 68, 64
1, 128559, Control_c, 0, 67, 36
1, 128574, Control_c, 0, 67, 37
1, 128583, Note_off_c, 0, 69, 52
1, 128589, Control_c, 0, 64, 87
1, 128589, Control_c, 0, 67, 38
1, 128604, Control_c, 0, 64, 48
1, 128604, Control_c, 0, 67, 40
1, 128619, Control_c, 0, 64, 0
1, 128633, Control_c, 0, 67, 40
1, 128677, Control_c, 0, 64, 61
1, 128677, Control_c, 0, 67, 40
1, 128692, Control_c, 0, 64, 60
1, 128706, Control_c, 0, 64, 56
1, 128706, Control_c, 0, 67, 39
1, 128721, Control_c, 0, 64, 52
1, 128721, Control_c, 0, 67, 39
1, 128736, Control_c, 0, 64, 51
1, 128750, Control_c, 0, 67, 38
1, 128795, Control_c, 0, 67, 39
1, 128824, Control_c, 0, 64, 51
1, 128839, Control_c, 0, 64, 50
1, 128839, Control_c, 0, 67, 39
1, 128840, Note_on_c, 0, 68, 94
1, 128843, Note_on_c, 0, 63, 97
1, 128846, Note_on_c, 0, 29, 89
1, 128847, Note_on_c, 0, 72, 86
1, 128847, Note_on_c, 0, 74, 87
1, 128854, Control_c, 0, 64, 48
1, 128869, Control_c, 0, 64, 47
1, 128869, Control_c, 0, 67, 40
1, 128877, Note_on_c, 0, 31, 42
1, 128892, Note_off_c, 0, 63, 62
1, 128894, Note_off_c, 0, 74, 62
1, 128899, Note_off_c, 0, 68, 62
1, 128899, Note_off_c, 0, 72, 64
1, 128902, Note_off_c, 0, 29, 64
1, 128922, Note_off_c, 0, 31, 32
1, 128929, Control_c, 0, 64, 47
1, 128944, Control_c, 0, 67, 40
1, 128982, Note_on_c, 0, 45, 66
1, 129023, Note_on_c, 0, 40, 33
1, 129023, Note_off_c, 0, 45, 63
1, 129062, Note_off_c, 0, 40, 46
1, 129063, Control_c, 0, 64, 46
1, 129086, Note_on_c, 0, 32, 79
1, 129104, Note_on_c, 0, 66, 69
1, 129109, Note_on_c, 0, 72, 58
1, 129123, Note_on_c, 0, 69, 56
1, 129126, Note_on_c, 0, 62, 47
1, 129136, Note_off_c, 0, 72, 63
1, 129137, Note_off_c, 0, 66, 66
1, 129145, Note_off_c, 0, 69, 61
1, 129146, Note_off_c, 0, 32, 57
1, 129152, Note_off_c, 0, 62, 58
1, 129164, Note_on_c, 0, 71, 7
1, 129165, Note_off_c, 0, 71, 127
1, 129173, Control_c, 0, 64, 47
1, 129188, Control_c, 0, 64, 48
1, 129203, Control_c, 0, 64, 49
1, 129215, Note_on_c, 0, 63, 78
1, 129218, Control_c, 0, 64, 50
1, 129222, Note_on_c, 0, 60, 65
1, 129224, Note_on_c, 0, 69, 57
1, 129227, Note_on_c, 0, 68, 72
1, 129231, Note_on_c, 0, 41, 55
1, 129233, Note_on_c, 0, 47, 62
1, 129233, Control_c, 0, 64, 51
1, 129242, Note_off_c, 0, 63, 65
1, 129248, Control_c, 0, 64, 51
1, 129248, Note_off_c, 0, 60, 67
1, 129255, Note_off_c, 0, 69, 66
1, 129257, Note_off_c, 0, 68, 64
1, 129262, Note_off_c, 0, 41, 64
1, 129273, Note_off_c, 0, 47, 66
1, 129292, Control_c, 0, 67, 40
1, 129342, Note_on_c, 0, 38, 73
1, 129352, Control_c, 0, 67, 39
1, 129371, Note_off_c, 0, 38, 64
1, 129411, Control_c, 0, 64, 51
1, 129425, Control_c, 0, 64, 50
1, 129440, Control_c, 0, 64, 49
1, 129440, Control_c, 0, 67, 39
1, 129453, Note_on_c, 0, 80, 87
1, 129456, Note_on_c, 0, 72, 98
1, 129456, Control_c, 0, 64, 47
1, 129456, Note_on_c, 0, 75, 93
1, 129458, Note_on_c, 0, 52, 75
1, 129462, Note_on_c, 0, 81, 82
1, 129465, Note_on_c, 0, 46, 75
1, 129471, Control_c, 0, 64, 45
1, 129486, Control_c, 0, 64, 43
1, 129486, Control_c, 0, 67, 39
1, 129497, Note_off_c, 0, 81, 61
1, 129500, Control_c, 0, 67, 40
1, 129505, Note_off_c, 0, 46, 58
1, 129505, Note_off_c, 0, 72, 64
1, 129508, Note_off_c, 0, 52, 59
1, 129514, Note_off_c, 0, 75, 62
1, 129517, Note_off_c, 0, 80, 65
1, 129560, Control_c, 0, 64, 44
1, 129569, Note_on_c, 0, 39, 84
1, 129574, Control_c, 0, 64, 46
1, 129574, Control_c, 0, 67, 40
1, 129589, Control_c, 0, 64, 48
1, 129604, Control_c, 0, 64, 49
1, 129617, Note_on_c, 0, 73, 45
1, 129635, Note_off_c, 0, 39, 59
1, 129648, Control_c, 0, 67, 40
1, 129662, Note_off_c, 0, 73, 57
1, 129663, Control_c, 0, 67, 39
1, 129693, Note_on_c, 0, 80, 88
1, 129694, Control_c, 0, 67, 39
1, 129695, Note_on_c, 0, 69, 80
1, 129698, Note_on_c, 0, 53, 79
1, 129704, Note_on_c, 0, 78, 78
1, 129704, Note_on_c, 0, 48, 65
1, 129705, Note_on_c, 0, 74, 69
1, 129728, Note_off_c, 0, 69, 64
1, 129730, Note_off_c, 0, 74, 70
1, 129736, Note_off_c, 0, 78, 59
1, 129738, Control_c, 0, 64, 52
1, 129739, Note_off_c, 0, 48, 65
1, 129740, Note_off_c, 0, 80, 63
1, 129751, Note_off_c, 0, 53, 65
1, 129753, Control_c, 0, 64, 57
1, 129753, Control_c, 0, 67, 38
1, 129768, Control_c, 0, 64, 62
1, 129783, Control_c, 0, 64, 66
1, 129797, Control_c, 0, 64, 71
1, 129801, Note_on_c, 0, 41, 87
1, 129803, Note_on_c, 0, 68, 87
1, 129807, Note_on_c, 0, 75, 85
1, 129812, Control_c, 0, 64, 76
1, 129818, Note_on_c, 0, 78, 85
1, 129827, Note_on_c, 0, 73, 35
1, 129827, Control_c, 0, 64, 81
1, 129827, Control_c, 0, 67, 38
1, 129832, Note_on_c, 0, 72, 55
1, 129839, Note_off_c, 0, 68, 59
1, 129840, Note_off_c, 0, 41, 62
1, 129842, Control_c, 0, 64, 85
1, 129854, Note_off_c, 0, 72, 61
1, 129856, Note_off_c, 0, 75, 64
1, 129857, Control_c, 0, 64, 87
1, 129857, Control_c, 0, 67, 37
1, 129861, Note_off_c, 0, 73, 36
1, 129874, Note_off_c, 0, 78, 65
1, 129894, Control_c, 0, 67, 37
1, 129909, Control_c, 0, 67, 36
1, 129926, Note_on_c, 0, 57, 72
1, 129938, Control_c, 0, 67, 36
1, 129945, Note_on_c, 0, 51, 62
1, 129946, Note_on_c, 0, 80, 85
1, 129953, Control_c, 0, 64, 88
1, 129963, Note_off_c, 0, 57, 59
1, 129968, Control_c, 0, 64, 90
1, 129968, Control_c, 0, 67, 35
1, 129971, Note_off_c, 0, 51, 62
1, 129983, Control_c, 0, 64, 93
1, 129996, Note_on_c, 0, 84, 59
1, 129996, Note_off_c, 0, 80, 65
1, 129997, Control_c, 0, 64, 93
1, 130012, Control_c, 0, 64, 88
1, 130015, Note_on_c, 0, 87, 100
1, 130024, Note_on_c, 0, 93, 107
1, 130027, Control_c, 0, 64, 76
1, 130027, Control_c, 0, 67, 36
1, 130030, Note_on_c, 0, 42, 89
1, 130042, Control_c, 0, 64, 42
1, 130042, Control_c, 0, 67, 36
1, 130043, Note_on_c, 0, 85, 50
1, 130056, Control_c, 0, 64, 0
1, 130056, Control_c, 0, 67, 37
1, 130059, Note_off_c, 0, 93, 72
1, 130065, Note_off_c, 0, 85, 52
1, 130071, Note_off_c, 0, 87, 65
1, 130071, Control_c, 0, 67, 37
1, 130079, Note_off_c, 0, 42, 63
1, 130083, Note_off_c, 0, 84, 65
1, 130086, Control_c, 0, 67, 38
1, 130166, Note_on_c, 0, 59, 69
1, 130169, Note_on_c, 0, 53, 50
1, 130201, Note_off_c, 0, 59, 61
1, 130201, Note_off_c, 0, 53, 66
1, 130257, Note_on_c, 0, 45, 89
1, 130267, Note_on_c, 0, 80, 92
1, 130268, Note_on_c, 0, 75, 92
1, 130269, Note_on_c, 0, 86, 90
1, 130270, Note_on_c, 0, 84, 82
1, 130294, Control_c, 0, 67, 38
1, 130297, Note_off_c, 0, 45, 64
1, 130323, Control_c, 0, 67, 39
1, 130368, Control_c, 0, 67, 40
1, 130398, Note_on_c, 0, 62, 75
1, 130413, Note_on_c, 0, 54, 60
1, 130427, Control_c, 0, 67, 40
1, 130440, Note_off_c, 0, 54, 66
1, 130444, Note_off_c, 0, 62, 58
1, 130509, Note_on_c, 0, 50, 83
1, 130532, Control_c, 0, 67, 40
1, 130534, Note_off_c, 0, 50, 70
1, 130639, Note_on_c, 0, 57, 47
1, 130646, Note_on_c, 0, 63, 69
1, 130686, Note_off_c, 0, 57, 61
1, 130697, Note_off_c, 0, 63, 60
1, 130758, Note_on_c, 0, 51, 79
1, 130796, Note_off_c, 0, 51, 59
1, 130880, Note_on_c, 0, 65, 74
1, 130893, Note_on_c, 0, 59, 66
1, 130918, Note_off_c, 0, 59, 65
1, 130926, Note_off_c, 0, 65, 61
1, 130992, Note_on_c, 0, 54, 83
1, 130998, Note_off_c, 0, 86, 62
1, 130998, Control_c, 0, 67, 40
1, 131009, Note_off_c, 0, 84, 62
1, 131013, Control_c, 0, 67, 41
1, 131021, Note_off_c, 0, 80, 60
1, 131027, Control_c, 0, 64, 47
1, 131035, Note_off_c, 0, 54, 58
1, 131042, Control_c, 0, 64, 60
1, 131042, Control_c, 0, 67, 41
1, 131045, Note_off_c, 0, 75, 62
1, 131057, Control_c, 0, 64, 64
1, 131072, Control_c, 0, 64, 67
1, 131087, Control_c, 0, 64, 70
1, 131102, Control_c, 0, 64, 74
1, 131117, Control_c, 0, 64, 77
1, 131120, Note_on_c, 0, 71, 58
1, 131121, Note_on_c, 0, 62, 55
1, 131132, Control_c, 0, 64, 82
1, 131140, Note_off_c, 0, 71, 63
1, 131146, Control_c, 0, 64, 86
1, 131148, Note_off_c, 0, 62, 64
1, 131161, Control_c, 0, 64, 87
1, 131161, Control_c, 0, 67, 41
1, 131176, Control_c, 0, 64, 87
1, 131191, Control_c, 0, 64, 83
1, 131206, Control_c, 0, 64, 76
1, 131214, Poly_aftertouch_c, 0, 69, 0
1, 131220, Control_c, 0, 64, 68
1, 131220, Control_c, 0, 67, 40
1, 131226, Note_on_c, 0, 72, 97
1, 131226, Note_on_c, 0, 80, 86
1, 131228, Note_on_c, 0, 75, 90
1, 131228, Note_on_c, 0, 81, 84
1, 131235, Control_c, 0, 64, 60
1, 131235, Control_c, 0, 67, 40
1, 131236, Note_on_c, 0, 38, 84
1, 131250, Control_c, 0, 64, 47
1, 131253, Note_off_c, 0, 81, 65
1, 131265, Control_c, 0, 64, 46
1, 131266, Note_off_c, 0, 72, 68
1, 131268, Note_off_c, 0, 38, 65
1, 131268, Note_off_c, 0, 75, 62
1, 131272, Note_off_c, 0, 80, 64
1, 131279, Control_c, 0, 64, 50
1, 131355, Control_c, 0, 64, 52
1, 131359, Note_on_c, 0, 45, 64
1, 131371, Note_on_c, 0, 51, 69
1, 131376, Control_c, 0, 64, 53
1, 131391, Control_c, 0, 64, 52
1, 131406, Control_c, 0, 64, 49
1, 131411, Note_off_c, 0, 45, 63
1, 131421, Control_c, 0, 64, 38
1, 131423, Note_off_c, 0, 51, 60
1, 131436, Control_c, 0, 64, 0
1, 131436, Control_c, 0, 67, 39
1, 131450, Control_c, 0, 67, 39
1, 131465, Control_c, 0, 67, 38
1, 131472, Note_on_c, 0, 41, 93
1, 131480, Note_on_c, 0, 68, 94
1, 131480, Control_c, 0, 64, 29
1, 131480, Control_c, 0, 67, 37
1, 131481, Note_on_c, 0, 75, 91
1, 131484, Note_on_c, 0, 78, 94
1, 131487, Note_on_c, 0, 72, 91
1, 131495, Control_c, 0, 64, 51
1, 131510, Control_c, 0, 64, 60
1, 131510, Control_c, 0, 67, 37
1, 131515, Note_off_c, 0, 41, 63
1, 131525, Control_c, 0, 64, 64
1, 131540, Control_c, 0, 64, 65
1, 131555, Control_c, 0, 64, 66
1, 131556, Note_off_c, 0, 78, 65
1, 131566, Note_off_c, 0, 72, 62
1, 131569, Control_c, 0, 64, 67
1, 131570, Note_off_c, 0, 75, 63
1, 131584, Control_c, 0, 67, 37
1, 131588, Note_off_c, 0, 68, 61
1, 131599, Control_c, 0, 64, 67
1, 131599, Control_c, 0, 67, 38
1, 131600, Note_on_c, 0, 56, 83
1, 131620, Note_on_c, 0, 48, 55
1, 131645, Note_off_c, 0, 48, 58
1, 131653, Note_off_c, 0, 56, 64
1, 131658, Control_c, 0, 64, 67
1, 131673, Control_c, 0, 64, 67
1, 131688, Control_c, 0, 64, 66
1, 131696, Note_on_c, 0, 44, 95
1, 131702, Control_c, 0, 64, 64
1, 131702, Control_c, 0, 67, 37
1, 131717, Control_c, 0, 64, 61
1, 131732, Control_c, 0, 64, 61
1, 131732, Control_c, 0, 67, 37
1, 131747, Control_c, 0, 64, 62
1, 131747, Control_c, 0, 67, 36
1, 131762, Control_c, 0, 64, 64
1, 131762, Control_c, 0, 67, 36
1, 131768, Note_off_c, 0, 44, 62
1, 131776, Control_c, 0, 64, 65
1, 131776, Control_c, 0, 67, 35
1, 131791, Control_c, 0, 64, 66
1, 131791, Control_c, 0, 67, 34
1, 131806, Control_c, 0, 64, 67
1, 131806, Control_c, 0, 67, 33
1, 131809, Note_on_c, 0, 53, 65
1, 131817, Note_on_c, 0, 63, 96
1, 131817, Note_on_c, 0, 68, 90
1, 131819, Note_on_c, 0, 74, 95
1, 131820, Note_on_c, 0, 59, 82
1, 131820, Control_c, 0, 64, 68
1, 131820, Control_c, 0, 67, 33
1, 131825, Note_on_c, 0, 72, 82
1, 131835, Control_c, 0, 64, 69
1, 131835, Control_c, 0, 67, 32
1, 131850, Control_c, 0, 64, 70
1, 131850, Control_c, 0, 67, 31
1, 131855, Note_off_c, 0, 53, 65
1, 131865, Control_c, 0, 67, 30
1, 131877, Note_off_c, 0, 59, 62
1, 131878, Note_off_c, 0, 72, 64
1, 131880, Control_c, 0, 64, 70
1, 131880, Control_c, 0, 67, 28
1, 131882, Note_off_c, 0, 63, 62
1, 131888, Note_off_c, 0, 68, 60
1, 131895, Control_c, 0, 64, 71
1, 131895, Control_c, 0, 67, 26
1, 131901, Note_off_c, 0, 74, 68
1, 131910, Control_c, 0, 64, 71
1, 131910, Control_c, 0, 67, 22
1, 131924, Control_c, 0, 64, 72
1, 131924, Control_c, 0, 67, 18
1, 131931, Note_on_c, 0, 50, 95
1, 131939, Control_c, 0, 64, 73
1, 131939, Control_c, 0, 67, 13
1, 131954, Control_c, 0, 64, 74
1, 131954, Control_c, 0, 67, 0
1, 131984, Control_c, 0, 64, 71
1, 131999, Control_c, 0, 64, 68
1, 132011, Note_off_c, 0, 50, 62
1, 132014, Control_c, 0, 64, 64
1, 132028, Control_c, 0, 64, 62
1, 132036, Note_on_c, 0, 77, 93
1, 132039, Note_on_c, 0, 72, 85
1, 132041, Note_on_c, 0, 68, 94
1, 132042, Note_on_c, 0, 66, 97
1, 132043, Control_c, 0, 64, 65
1, 132047, Note_on_c, 0, 64, 86
1, 132052, Note_on_c, 0, 58, 82
1, 132058, Control_c, 0, 64, 68
1, 132073, Control_c, 0, 64, 73
1, 132088, Control_c, 0, 64, 78
1, 132103, Note_off_c, 0, 64, 65
1, 132103, Control_c, 0, 64, 82
1, 132106, Note_off_c, 0, 58, 59
1, 132125, Control_c, 0, 64, 84
1, 132155, Control_c, 0, 64, 84
1, 132163, Note_on_c, 0, 53, 100
1, 132170, Control_c, 0, 64, 80
1, 132185, Control_c, 0, 64, 73
1, 132199, Control_c, 0, 64, 61
1, 132214, Control_c, 0, 64, 0
1, 132246, Note_off_c, 0, 66, 56
1, 132288, Note_on_c, 0, 67, 102
1, 132288, Control_c, 0, 64, 62
1, 132293, Note_on_c, 0, 63, 95
1, 132303, Control_c, 0, 64, 74
1, 132306, Note_off_c, 0, 68, 53
1, 132311, Note_off_c, 0, 72, 61
1, 132315, Note_on_c, 0, 75, 28
1, 132318, Control_c, 0, 64, 91
1, 132318, Note_off_c, 0, 77, 62
1, 132333, Control_c, 0, 64, 127
1, 132344, Note_off_c, 0, 53, 65
1, 132352, Note_off_c, 0, 75, 46
1, 132369, Note_off_c, 0, 67, 65
1, 132375, Note_off_c, 0, 63, 65
1, 132591, Note_on_c, 0, 70, 106
1, 132591, Note_on_c, 0, 73, 105
1, 132591, Note_on_c, 0, 82, 100
1, 132592, Note_on_c, 0, 76, 96
1, 132595, Note_on_c, 0, 56, 97
1, 132595, Note_on_c, 0, 68, 104
1, 132602, Note_on_c, 0, 64, 97
1, 132606, Note_on_c, 0, 59, 89
1, 132615, Control_c, 0, 64, 80
1, 132630, Control_c, 0, 64, 0
1, 132689, Control_c, 0, 64, 64
1, 132704, Note_off_c, 0, 82, 66
1, 132704, Control_c, 0, 64, 75
1, 132718, Control_c, 0, 64, 85
1, 132733, Control_c, 0, 64, 101
1, 132748, Control_c, 0, 64, 127
1, 132761, Note_off_c, 0, 68, 55
1, 132770, Note_off_c, 0, 64, 64
1, 132770, Note_off_c, 0, 76, 57
1, 132777, Note_off_c, 0, 70, 61
1, 132779, Note_off_c, 0, 73, 59
1, 132781, Note_off_c, 0, 59, 59
1, 132796, Note_off_c, 0, 56, 51
1, 132998, Note_on_c, 0, 75, 95
1, 132999, Note_on_c, 0, 71, 100
1, 132999, Note_on_c, 0, 80, 99
1, 133001, Note_on_c, 0, 68, 104
1, 133006, Note_on_c, 0, 67, 108
1, 133008, Note_on_c, 0, 55, 94
1, 133008, Note_on_c, 0, 63, 96
1, 133009, Control_c, 0, 64, 107
1, 133009, Note_on_c, 0, 58, 91
1, 133023, Control_c, 0, 64, 78
1, 133038, Control_c, 0, 64, 53
1, 133053, Control_c, 0, 64, 0
1, 133067, Control_c, 0, 64, 59
1, 133082, Control_c, 0, 64, 70
1, 133093, Note_off_c, 0, 80, 62
1, 133097, Control_c, 0, 64, 84
1, 133111, Note_off_c, 0, 55, 48
1, 133112, Control_c, 0, 64, 110
1, 133117, Note_off_c, 0, 71, 61
1, 133121, Note_off_c, 0, 67, 54
1, 133127, Control_c, 0, 64, 127
1, 133130, Note_off_c, 0, 63, 61
1, 133134, Note_off_c, 0, 68, 44
1, 133135, Note_off_c, 0, 75, 58
1, 133138, Note_off_c, 0, 58, 61
1, 133329, Note_on_c, 0, 67, 91
1, 133329, Note_on_c, 0, 70, 96
1, 133329, Note_on_c, 0, 79, 96
1, 133331, Note_on_c, 0, 73, 97
1, 133334, Note_on_c, 0, 65, 98
1, 133334, Control_c, 0, 64, 117
1, 133335, Note_on_c, 0, 53, 93
1, 133337, Note_on_c, 0, 61, 99
1, 133338, Note_on_c, 0, 56, 89
1, 133348, Control_c, 0, 64, 79
1, 133363, Control_c, 0, 64, 0
1, 133422, Control_c, 0, 64, 67
1, 133437, Control_c, 0, 64, 84
1, 133452, Control_c, 0, 64, 114
1, 133466, Control_c, 0, 64, 127
1, 133467, Note_off_c, 0, 53, 64
1, 133469, Note_off_c, 0, 67, 63
1, 133491, Note_off_c, 0, 56, 64
1, 133506, Note_off_c, 0, 70, 62
1, 133507, Note_off_c, 0, 61, 62
1, 133508, Note_off_c, 0, 65, 64
1, 133519, Note_off_c, 0, 73, 60
1, 133522, Note_off_c, 0, 79, 66
1, 133786, Control_c, 0, 67, 9
1, 133801, Control_c, 0, 67, 13
1, 133816, Control_c, 0, 67, 19
1, 133826, Note_on_c, 0, 98, 58
1, 133828, Note_on_c, 0, 103, 62
1, 133831, Note_on_c, 0, 94, 55
1, 133831, Control_c, 0, 67, 28
1, 133835, Note_on_c, 0, 80, 53
1, 133841, Note_on_c, 0, 85, 61
1, 133845, Control_c, 0, 67, 40
1, 133860, Control_c, 0, 67, 51
1, 133875, Control_c, 0, 67, 60
1, 133880, Note_off_c, 0, 94, 61
1, 133889, Control_c, 0, 67, 69
1, 133904, Control_c, 0, 67, 79
1, 133907, Note_off_c, 0, 80, 58
1, 133919, Control_c, 0, 67, 89
1, 133934, Control_c, 0, 67, 97
1, 133949, Note_on_c, 0, 83, 69
1, 133949, Control_c, 0, 67, 103
1, 133957, Note_on_c, 0, 92, 60
1, 133960, Note_on_c, 0, 101, 64
1, 133961, Note_on_c, 0, 79, 52
1, 133964, Control_c, 0, 67, 105
1, 133965, Note_on_c, 0, 97, 51
1, 133978, Note_off_c, 0, 83, 64
1, 133979, Note_off_c, 0, 98, 62
1, 133981, Note_off_c, 0, 85, 56
1, 133981, Note_off_c, 0, 101, 61
1, 133981, Note_off_c, 0, 103, 44
1, 133984, Note_off_c, 0, 79, 61
1, 133985, Note_off_c, 0, 92, 68
1, 133989, Note_off_c, 0, 97, 60
1, 134053, Control_c, 0, 67, 104
1, 134079, Note_on_c, 0, 91, 78
1, 134083, Control_c, 0, 67, 103
1, 134085, Note_on_c, 0, 86, 69
1, 134085, Note_on_c, 0, 95, 68
1, 134087, Note_on_c, 0, 100, 64
1, 134089, Note_on_c, 0, 77, 60
1, 134097, Control_c, 0, 67, 102
1, 134111, Note_on_c, 0, 82, 53
1, 134112, Note_off_c, 0, 86, 67
1, 134115, Note_off_c, 0, 77, 58
1, 134133, Note_off_c, 0, 91, 63
1, 134142, Note_off_c, 0, 95, 63
1, 134145, Note_off_c, 0, 82, 58
1, 134172, Note_off_c, 0, 100, 50
1, 134196, Note_on_c, 0, 85, 73
1, 134204, Note_on_c, 0, 76, 72
1, 134205, Note_on_c, 0, 89, 74
1, 134205, Note_on_c, 0, 94, 71
1, 134206, Note_on_c, 0, 98, 71
1, 134214, Note_on_c, 0, 80, 47
1, 134227, Note_off_c, 0, 85, 56
1, 134229, Note_off_c, 0, 76, 65
1, 134229, Note_off_c, 0, 94, 68
1, 134230, Control_c, 0, 67, 102
1, 134231, Note_off_c, 0, 98, 70
1, 134238, Note_off_c, 0, 80, 58
1, 134241, Note_off_c, 0, 89, 61
1, 134245, Control_c, 0, 67, 100
1, 134260, Control_c, 0, 67, 99
1, 134275, Control_c, 0, 67, 98
1, 134289, Control_c, 0, 67, 97
1, 134321, Note_on_c, 0, 88, 71
1, 134321, Note_on_c, 0, 97, 73
1, 134327, Note_on_c, 0, 92, 71
1, 134328, Note_on_c, 0, 75, 69
1, 134328, Note_on_c, 0, 83, 71
1, 134334, Control_c, 0, 67, 97
1, 134344, Note_on_c, 0, 79, 69
1, 134369, Note_off_c, 0, 83, 61
1, 134388, Note_off_c, 0, 75, 62
1, 134389, Note_off_c, 0, 88, 60
1, 134402, Note_off_c, 0, 79, 47
1, 134403, Note_off_c, 0, 92, 61
1, 134406, Note_off_c, 0, 97, 65
1, 134430, Control_c, 0, 67, 97
1, 134449, Note_on_c, 0, 73, 80
1, 134456, Note_on_c, 0, 77, 65
1, 134456, Note_on_c, 0, 82, 63
1, 134456, Note_on_c, 0, 91, 71
1, 134460, Note_on_c, 0, 95, 70
1, 134467, Note_on_c, 0, 86, 62
1, 134478, Note_off_c, 0, 91, 71
1, 134480, Note_off_c, 0, 77, 69
1, 134482, Note_off_c, 0, 82, 66
1, 134484, Note_off_c, 0, 95, 70
1, 134494, Note_off_c, 0, 86, 67
1, 134501, Note_off_c, 0, 73, 61
1, 134574, Note_on_c, 0, 80, 80
1, 134580, Note_on_c, 0, 76, 76
1, 134580, Note_on_c, 0, 94, 79
1, 134582, Note_on_c, 0, 85, 78
1, 134586, Note_on_c, 0, 89, 79
1, 134589, Note_on_c, 0, 90, 49
1, 134590, Note_on_c, 0, 71, 67
1, 134643, Note_off_c, 0, 80, 62
1, 134644, Note_off_c, 0, 85, 62
1, 134645, Note_off_c, 0, 76, 53
1, 134653, Control_c, 0, 67, 97
1, 134658, Note_off_c, 0, 90, 60
1, 134661, Note_off_c, 0, 89, 61
1, 134675, Note_off_c, 0, 71, 57
1, 134696, Note_on_c, 0, 70, 78
1, 134702, Note_on_c, 0, 74, 64
1, 134703, Note_on_c, 0, 83, 78
1, 134707, Note_on_c, 0, 79, 53
1, 134707, Note_on_c, 0, 92, 71
1, 134712, Note_on_c, 0, 88, 58
1, 134718, Note_off_c, 0, 94, 64
1, 134726, Note_off_c, 0, 74, 66
1, 134728, Note_off_c, 0, 79, 60
1, 134729, Note_off_c, 0, 88, 63
1, 134732, Note_off_c, 0, 70, 60
1, 134742, Note_off_c, 0, 92, 59
1, 134747, Note_off_c, 0, 83, 64
1, 134815, Note_on_c, 0, 86, 81
1, 134816, Note_on_c, 0, 82, 81
1, 134816, Note_on_c, 0, 73, 74
1, 134818, Note_on_c, 0, 77, 76
1, 134820, Note_on_c, 0, 68, 71
1, 134822, Note_on_c, 0, 91, 77
1, 134831, Control_c, 0, 67, 96
1, 134861, Control_c, 0, 67, 96
1, 134869, Note_off_c, 0, 77, 61
1, 134873, Note_off_c, 0, 82, 64
1, 134888, Note_off_c, 0, 73, 62
1, 134888, Note_off_c, 0, 91, 48
1, 134891, Note_off_c, 0, 68, 62
1, 134933, Note_on_c, 0, 85, 83
1, 134934, Note_on_c, 0, 71, 68
1, 134935, Note_on_c, 0, 80, 81
1, 134937, Note_on_c, 0, 89, 75
1, 134938, Note_on_c, 0, 67, 73
1, 134940, Note_on_c, 0, 76, 72
1, 134964, Note_off_c, 0, 71, 64
1, 134964, Note_off_c, 0, 76, 67
1, 134970, Note_off_c, 0, 89, 56
1, 134971, Note_off_c, 0, 67, 61
1, 134974, Note_off_c, 0, 80, 61
1, 134981, Note_off_c, 0, 85, 62
1, 134994, Control_c, 0, 67, 95
1, 134995, Note_off_c, 0, 86, 24
1, 135009, Control_c, 0, 67, 95
1, 135060, Note_on_c, 0, 83, 87
1, 135061, Note_on_c, 0, 79, 86
1, 135062, Note_on_c, 0, 88, 84
1, 135063, Note_on_c, 0, 74, 80
1, 135076, Note_on_c, 0, 65, 55
1, 135086, Note_on_c, 0, 70, 64
1, 135097, Note_off_c, 0, 74, 59
1, 135098, Note_off_c, 0, 65, 63
1, 135117, Note_off_c, 0, 79, 61
1, 135125, Note_off_c, 0, 70, 62
1, 135140, Note_off_c, 0, 83, 64
1, 135152, Note_off_c, 0, 88, 51
1, 135165, Control_c, 0, 67, 95
1, 135180, Note_on_c, 0, 64, 80
1, 135184, Note_on_c, 0, 73, 74
1, 135186, Note_on_c, 0, 68, 64
1, 135189, Note_on_c, 0, 82, 83
1, 135190, Note_on_c, 0, 86, 76
1, 135191, Note_on_c, 0, 77, 83
1, 135208, Note_off_c, 0, 73, 68
1, 135209, Note_off_c, 0, 68, 68
1, 135226, Note_off_c, 0, 64, 62
1, 135232, Note_off_c, 0, 82, 64
1, 135232, Note_off_c, 0, 86, 63
1, 135239, Note_off_c, 0, 77, 63
1, 135268, Control_c, 0, 67, 95
1, 135308, Note_on_c, 0, 71, 81
1, 135308, Note_on_c, 0, 85, 87
1, 135310, Note_on_c, 0, 80, 85
1, 135311, Note_on_c, 0, 67, 77
1, 135312, Note_on_c, 0, 76, 80
1, 135329, Note_on_c, 0, 62, 63
1, 135355, Note_off_c, 0, 71, 65
1, 135357, Note_off_c, 0, 62, 65
1, 135369, Note_off_c, 0, 76, 60
1, 135374, Note_off_c, 0, 67, 62
1, 135383, Note_off_c, 0, 80, 62
1, 135388, Control_c, 0, 67, 94
1, 135399, Note_off_c, 0, 85, 62
1, 135417, Control_c, 0, 67, 95
1, 135424, Note_on_c, 0, 61, 80
1, 135427, Note_on_c, 0, 65, 68
1, 135432, Note_on_c, 0, 79, 81
1, 135433, Note_on_c, 0, 70, 65
1, 135435, Note_on_c, 0, 83, 78
1, 135439, Note_on_c, 0, 74, 80
1, 135458, Note_off_c, 0, 70, 69
1, 135458, Note_off_c, 0, 65, 66
1, 135466, Note_off_c, 0, 74, 64
1, 135468, Note_off_c, 0, 79, 60
1, 135475, Note_off_c, 0, 61, 61
1, 135476, Note_off_c, 0, 83, 62
1, 135539, Note_on_c, 0, 68, 83
1, 135542, Note_on_c, 0, 64, 80
1, 135546, Note_on_c, 0, 73, 91
1, 135549, Note_on_c, 0, 82, 85
1, 135549, Note_on_c, 0, 77, 83
1, 135553, Note_on_c, 0, 59, 68
1, 135603, Note_off_c, 0, 64, 59
1, 135609, Control_c, 0, 67, 94
1, 135613, Note_off_c, 0, 68, 63
1, 135620, Note_off_c, 0, 73, 62
1, 135621, Note_off_c, 0, 77, 63
1, 135639, Control_c, 0, 67, 94
1, 135657, Note_on_c, 0, 58, 86
1, 135659, Note_on_c, 0, 67, 80
1, 135663, Note_on_c, 0, 62, 74
1, 135663, Note_on_c, 0, 71, 87
1, 135667, Note_on_c, 0, 80, 76
1, 135669, Note_on_c, 0, 76, 80
1, 135669, Note_off_c, 0, 59, 54
1, 135683, Note_off_c, 0, 67, 62
1, 135683, Control_c, 0, 67, 93
1, 135689, Note_off_c, 0, 82, 61
1, 135692, Note_off_c, 0, 62, 65
1, 135696, Note_off_c, 0, 76, 65
1, 135698, Control_c, 0, 67, 93
1, 135707, Note_off_c, 0, 58, 64
1, 135713, Control_c, 0, 67, 92
1, 135716, Note_off_c, 0, 71, 66
1, 135717, Note_off_c, 0, 80, 62
1, 135728, Control_c, 0, 67, 90
1, 135743, Control_c, 0, 67, 88
1, 135758, Control_c, 0, 67, 85
1, 135773, Control_c, 0, 67, 82
1, 135774, Note_on_c, 0, 65, 86
1, 135776, Note_on_c, 0, 56, 84
1, 135781, Note_on_c, 0, 61, 85
1, 135782, Note_on_c, 0, 74, 92
1, 135785, Note_on_c, 0, 70, 83
1, 135788, Control_c, 0, 67, 77
1, 135789, Note_on_c, 0, 73, 49
1, 135791, Note_on_c, 0, 79, 81
1, 135803, Control_c, 0, 67, 72
1, 135812, Note_on_c, 0, 78, 31
1, 135817, Control_c, 0, 67, 64
1, 135819, Note_off_c, 0, 78, 53
1, 135819, Note_off_c, 0, 79, 55
1, 135820, Note_off_c, 0, 65, 63
1, 135824, Note_off_c, 0, 70, 53
1, 135827, Note_off_c, 0, 73, 48
1, 135832, Control_c, 0, 67, 56
1, 135847, Control_c, 0, 67, 48
1, 135849, Note_off_c, 0, 56, 62
1, 135850, Note_off_c, 0, 61, 61
1, 135856, Note_off_c, 0, 74, 63
1, 135868, Control_c, 0, 67, 39
1, 135883, Control_c, 0, 67, 28
1, 135898, Note_on_c, 0, 77, 85
1, 135898, Note_on_c, 0, 59, 86
1, 135898, Control_c, 0, 67, 18
1, 135901, Note_on_c, 0, 68, 90
1, 135901, Note_on_c, 0, 73, 100
1, 135903, Note_on_c, 0, 55, 87
1, 135906, Note_on_c, 0, 64, 84
1, 135913, Control_c, 0, 67, 9
1, 135928, Control_c, 0, 67, 0
1, 135940, Note_off_c, 0, 59, 61
1, 135950, Note_off_c, 0, 68, 65
1, 135950, Note_off_c, 0, 77, 63
1, 135952, Note_off_c, 0, 64, 60
1, 135953, Note_off_c, 0, 73, 64
1, 135955, Note_off_c, 0, 55, 64
1, 136019, Note_on_c, 0, 71, 98
1, 136022, Note_on_c, 0, 62, 86
1, 136022, Note_on_c, 0, 67, 100
1, 136026, Note_on_c, 0, 76, 89
1, 136031, Note_on_c, 0, 53, 83
1, 136047, Note_on_c, 0, 52, 63
1, 136055, Note_on_c, 0, 58, 55
1, 136058, Note_on_c, 0, 60, 38
1, 136059, Note_off_c, 0, 60, 127
1, 136074, Note_off_c, 0, 62, 64
1, 136078, Note_off_c, 0, 52, 64
1, 136086, Note_off_c, 0, 67, 59
1, 136086, Note_off_c, 0, 53, 64
1, 136097, Note_off_c, 0, 76, 61
1, 136106, Note_off_c, 0, 71, 65
1, 136109, Note_off_c, 0, 58, 60
1, 136139, Note_on_c, 0, 51, 85
1, 136139, Note_on_c, 0, 61, 98
1, 136144, Note_on_c, 0, 74, 100
1, 136145, Note_on_c, 0, 52, 88
1, 136145, Note_on_c, 0, 70, 97
1, 136147, Note_on_c, 0, 65, 97
1, 136160, Note_on_c, 0, 55, 75
1, 136170, Note_off_c, 0, 61, 68
1, 136173, Note_off_c, 0, 52, 66
1, 136173, Note_off_c, 0, 65, 65
1, 136176, Note_off_c, 0, 51, 64
1, 136179, Note_on_c, 0, 57, 32
1, 136186, Note_off_c, 0, 55, 66
1, 136192, Note_off_c, 0, 70, 67
1, 136196, Note_off_c, 0, 74, 70
1, 136197, Note_on_c, 0, 56, 8
1, 136214, Note_off_c, 0, 57, 53
1, 136241, Control_c, 0, 64, 92
1, 136243, Note_off_c, 0, 56, 55
1, 136256, Control_c, 0, 64, 68
1, 136271, Control_c, 0, 64, 0
1, 136476, Note_on_c, 0, 78, 102
1, 136477, Note_on_c, 0, 82, 99
1, 136477, Note_on_c, 0, 87, 97
1, 136479, Note_on_c, 0, 85, 95
1, 136484, Note_on_c, 0, 30, 85
1, 136529, Note_off_c, 0, 87, 67
1, 136531, Note_off_c, 0, 82, 64
1, 136533, Note_off_c, 0, 78, 64
1, 136534, Note_off_c, 0, 85, 64
1, 136561, Note_off_c, 0, 30, 59
1, 136619, Note_on_c, 0, 39, 66
1, 136626, Note_on_c, 0, 45, 67
1, 136672, Note_off_c, 0, 39, 59
1, 136674, Note_off_c, 0, 45, 65
1, 136727, Note_on_c, 0, 34, 82
1, 136739, Note_on_c, 0, 79, 85
1, 136739, Note_on_c, 0, 85, 89
1, 136740, Note_on_c, 0, 75, 86
1, 136783, Note_off_c, 0, 79, 61
1, 136789, Note_off_c, 0, 75, 63
1, 136801, Note_off_c, 0, 34, 58
1, 136805, Note_off_c, 0, 85, 63
1, 136854, Note_on_c, 0, 48, 72
1, 136858, Note_on_c, 0, 78, 82
1, 136861, Note_on_c, 0, 42, 60
1, 136864, Note_on_c, 0, 82, 79
1, 136864, Note_on_c, 0, 73, 83
1, 136868, Note_on_c, 0, 81, 81
1, 136899, Note_off_c, 0, 73, 60
1, 136900, Note_off_c, 0, 42, 62
1, 136901, Note_off_c, 0, 48, 62
1, 136914, Note_off_c, 0, 78, 63
1, 136920, Note_off_c, 0, 81, 62
1, 136927, Note_off_c, 0, 82, 63
1, 136965, Note_on_c, 0, 37, 92
1, 137041, Note_off_c, 0, 37, 61
1, 137096, Note_on_c, 0, 51, 80
1, 137099, Note_on_c, 0, 87, 89
1, 137099, Note_on_c, 0, 78, 91
1, 137100, Note_on_c, 0, 46, 66
1, 137100, Note_on_c, 0, 82, 94
1, 137101, Note_on_c, 0, 85, 82
1, 137142, Note_off_c, 0, 46, 61
1, 137156, Note_off_c, 0, 87, 66
1, 137159, Note_off_c, 0, 51, 64
1, 137160, Note_off_c, 0, 82, 64
1, 137162, Note_off_c, 0, 78, 64
1, 137165, Note_off_c, 0, 85, 63
1, 137207, Note_on_c, 0, 42, 86
1, 137230, Note_on_c, 0, 41, 56
1, 137258, Note_off_c, 0, 41, 57
1, 137281, Note_off_c, 0, 42, 60
1, 137328, Note_on_c, 0, 79, 69
1, 137331, Note_on_c, 0, 85, 96
1, 137332, Note_on_c, 0, 75, 94
1, 137340, Note_on_c, 0, 57, 74
1, 137390, Note_off_c, 0, 57, 58
1, 137394, Note_off_c, 0, 75, 63
1, 137395, Control_c, 0, 64, 14
1, 137401, Note_off_c, 0, 79, 63
1, 137410, Note_off_c, 0, 85, 64
1, 137439, Control_c, 0, 64, 24
1, 137445, Note_on_c, 0, 48, 87
1, 137454, Control_c, 0, 64, 48
1, 137460, Note_on_c, 0, 78, 91
1, 137461, Note_on_c, 0, 73, 99
1, 137464, Note_on_c, 0, 81, 85
1, 137466, Note_on_c, 0, 82, 83
1, 137469, Control_c, 0, 64, 64
1, 137481, Note_on_c, 0, 56, 49
1, 137483, Note_off_c, 0, 48, 62
1, 137484, Control_c, 0, 64, 71
1, 137499, Control_c, 0, 64, 80
1, 137510, Note_off_c, 0, 73, 63
1, 137514, Control_c, 0, 64, 96
1, 137518, Note_off_c, 0, 56, 63
1, 137526, Note_off_c, 0, 81, 64
1, 137529, Control_c, 0, 64, 127
1, 137530, Note_off_c, 0, 78, 62
1, 137536, Note_off_c, 0, 82, 63
1, 137572, Note_on_c, 0, 57, 75
1, 137573, Note_on_c, 0, 63, 75
1, 137597, Note_off_c, 0, 63, 67
1, 137615, Note_off_c, 0, 57, 65
1, 137706, Note_on_c, 0, 85, 81
1, 137707, Note_on_c, 0, 77, 101
1, 137709, Note_on_c, 0, 80, 99
1, 137710, Note_on_c, 0, 88, 94
1, 137722, Control_c, 0, 64, 90
1, 137730, Note_on_c, 0, 25, 93
1, 137733, Note_off_c, 0, 88, 67
1, 137737, Control_c, 0, 64, 69
1, 137745, Note_off_c, 0, 80, 68
1, 137749, Note_off_c, 0, 77, 67
1, 137752, Control_c, 0, 64, 0
1, 137754, Note_off_c, 0, 85, 65
1, 137811, Control_c, 0, 64, 49
1, 137816, Note_off_c, 0, 25, 57
1, 137826, Control_c, 0, 64, 58
1, 137841, Control_c, 0, 64, 61
1, 137850, Note_on_c, 0, 32, 68
1, 137853, Note_on_c, 0, 38, 64
1, 137856, Control_c, 0, 64, 62
1, 137901, Note_off_c, 0, 32, 59
1, 137914, Note_off_c, 0, 38, 60
1, 137915, Control_c, 0, 64, 59
1, 137929, Control_c, 0, 64, 55
1, 137944, Control_c, 0, 64, 52
1, 137949, Note_on_c, 0, 80, 90
1, 137952, Note_on_c, 0, 70, 98
1, 137952, Note_on_c, 0, 73, 96
1, 137954, Note_on_c, 0, 77, 87
1, 137958, Note_on_c, 0, 29, 84
1, 137959, Control_c, 0, 64, 51
1, 137974, Control_c, 0, 64, 51
1, 138003, Note_off_c, 0, 29, 60
1, 138048, Control_c, 0, 64, 52
1, 138062, Control_c, 0, 64, 53
1, 138077, Control_c, 0, 64, 54
1, 138087, Note_on_c, 0, 43, 67
1, 138098, Note_on_c, 0, 37, 60
1, 138115, Control_c, 0, 64, 55
1, 138135, Note_off_c, 0, 43, 65
1, 138139, Note_off_c, 0, 37, 64
1, 138144, Control_c, 0, 64, 55
1, 138202, Note_on_c, 0, 32, 87
1, 138203, Control_c, 0, 64, 56
1, 138261, Note_off_c, 0, 32, 59
1, 138292, Control_c, 0, 64, 56
1, 138331, Note_on_c, 0, 46, 77
1, 138335, Note_on_c, 0, 40, 71
1, 138351, Control_c, 0, 64, 57
1, 138366, Control_c, 0, 64, 57
1, 138370, Note_off_c, 0, 40, 66
1, 138384, Note_off_c, 0, 46, 60
1, 138444, Note_on_c, 0, 35, 85
1, 138455, Control_c, 0, 64, 58
1, 138492, Note_off_c, 0, 35, 57
1, 138560, Control_c, 0, 64, 58
1, 138572, Note_on_c, 0, 50, 76
1, 138579, Note_on_c, 0, 44, 77
1, 138590, Control_c, 0, 64, 59
1, 138605, Control_c, 0, 64, 59
1, 138619, Note_off_c, 0, 44, 62
1, 138620, Control_c, 0, 64, 60
1, 138626, Note_off_c, 0, 50, 64
1, 138664, Control_c, 0, 64, 61
1, 138665, Note_off_c, 0, 77, 58
1, 138667, Note_off_c, 0, 73, 59
1, 138682, Note_on_c, 0, 38, 87
1, 138693, Control_c, 0, 64, 61
1, 138696, Note_off_c, 0, 80, 60
1, 138707, Note_off_c, 0, 70, 56
1, 138708, Control_c, 0, 64, 62
1, 138723, Control_c, 0, 64, 62
1, 138731, Note_off_c, 0, 38, 63
1, 138797, Note_on_c, 0, 52, 74
1, 138808, Note_on_c, 0, 46, 65
1, 138811, Control_c, 0, 64, 61
1, 138826, Control_c, 0, 64, 53
1, 138841, Note_off_c, 0, 52, 60
1, 138841, Control_c, 0, 64, 0
1, 138843, Note_off_c, 0, 46, 60
1, 138908, Control_c, 0, 64, 53
1, 138911, Note_on_c, 0, 71, 98
1, 138911, Note_on_c, 0, 76, 98
1, 138911, Note_on_c, 0, 82, 90
1, 138912, Note_on_c, 0, 80, 91
1, 138915, Note_on_c, 0, 43, 84
1, 138923, Control_c, 0, 64, 67
1, 138938, Control_c, 0, 64, 75
1, 138950, Note_off_c, 0, 43, 65
1, 138953, Control_c, 0, 64, 83
1, 138967, Control_c, 0, 64, 87
1, 138974, Note_off_c, 0, 76, 64
1, 138982, Control_c, 0, 64, 87
1, 138997, Note_off_c, 0, 82, 64
1, 138999, Note_off_c, 0, 71, 63
1, 139005, Note_off_c, 0, 80, 62
1, 139039, Note_on_c, 0, 56, 80
1, 139056, Control_c, 0, 64, 88
1, 139071, Control_c, 0, 64, 88
1, 139073, Note_on_c, 0, 49, 52
1, 139091, Note_off_c, 0, 56, 64
1, 139100, Control_c, 0, 64, 85
1, 139103, Note_off_c, 0, 49, 57
1, 139115, Control_c, 0, 64, 77
1, 139130, Control_c, 0, 64, 66
1, 139144, Note_on_c, 0, 44, 90
1, 139145, Control_c, 0, 64, 19
1, 139158, Note_on_c, 0, 74, 94
1, 139159, Note_on_c, 0, 80, 90
1, 139159, Note_on_c, 0, 69, 84
1, 139159, Control_c, 0, 64, 0
1, 139174, Control_c, 0, 64, 45
1, 139189, Control_c, 0, 64, 63
1, 139204, Note_off_c, 0, 69, 64
1, 139204, Control_c, 0, 64, 68
1, 139207, Note_off_c, 0, 74, 65
1, 139207, Note_off_c, 0, 44, 62
1, 139213, Note_off_c, 0, 80, 62
1, 139217, Note_on_c, 0, 78, 17
1, 139219, Control_c, 0, 64, 70
1, 139234, Control_c, 0, 64, 66
1, 139249, Control_c, 0, 64, 59
1, 139254, Note_off_c, 0, 78, 44
1, 139263, Control_c, 0, 64, 11
1, 139277, Note_on_c, 0, 53, 71
1, 139278, Note_on_c, 0, 59, 77
1, 139278, Note_on_c, 0, 73, 91
1, 139279, Control_c, 0, 64, 30
1, 139281, Note_on_c, 0, 68, 88
1, 139281, Note_on_c, 0, 76, 87
1, 139290, Note_on_c, 0, 77, 76
1, 139294, Control_c, 0, 64, 60
1, 139308, Control_c, 0, 64, 68
1, 139309, Note_off_c, 0, 53, 68
1, 139323, Control_c, 0, 64, 74
1, 139331, Note_off_c, 0, 59, 63
1, 139338, Control_c, 0, 64, 77
1, 139345, Note_off_c, 0, 68, 61
1, 139352, Note_off_c, 0, 73, 59
1, 139353, Note_off_c, 0, 77, 62
1, 139353, Control_c, 0, 64, 76
1, 139359, Note_off_c, 0, 76, 63
1, 139368, Control_c, 0, 64, 71
1, 139383, Control_c, 0, 64, 65
1, 139389, Note_on_c, 0, 50, 99
1, 139398, Control_c, 0, 64, 65
1, 139412, Control_c, 0, 64, 69
1, 139427, Control_c, 0, 64, 75
1, 139442, Control_c, 0, 64, 80
1, 139465, Note_off_c, 0, 50, 58
1, 139472, Control_c, 0, 64, 75
1, 139487, Control_c, 0, 64, 67
1, 139501, Control_c, 0, 64, 63
1, 139509, Note_on_c, 0, 64, 81
1, 139515, Note_on_c, 0, 58, 80
1, 139516, Control_c, 0, 64, 65
1, 139517, Note_on_c, 0, 76, 90
1, 139519, Note_on_c, 0, 71, 93
1, 139520, Note_on_c, 0, 82, 91
1, 139524, Note_on_c, 0, 80, 84
1, 139531, Control_c, 0, 64, 71
1, 139546, Control_c, 0, 64, 80
1, 139561, Control_c, 0, 64, 87
1, 139573, Note_off_c, 0, 58, 59
1, 139573, Note_off_c, 0, 64, 64
1, 139576, Control_c, 0, 64, 90
1, 139581, Note_off_c, 0, 76, 64
1, 139594, Note_off_c, 0, 71, 65
1, 139597, Note_off_c, 0, 82, 64
1, 139610, Note_off_c, 0, 80, 62
1, 139612, Control_c, 0, 64, 90
1, 139627, Control_c, 0, 64, 86
1, 139631, Note_on_c, 0, 53, 104
1, 139642, Control_c, 0, 64, 79
1, 139657, Control_c, 0, 64, 70
1, 139672, Control_c, 0, 64, 65
1, 139687, Control_c, 0, 64, 67
1, 139702, Control_c, 0, 64, 71
1, 139715, Note_off_c, 0, 53, 58
1, 139716, Control_c, 0, 64, 78
1, 139731, Control_c, 0, 64, 86
1, 139746, Control_c, 0, 64, 98
1, 139748, Note_on_c, 0, 67, 90
1, 139755, Note_on_c, 0, 61, 84
1, 139756, Note_on_c, 0, 74, 95
1, 139757, Note_on_c, 0, 69, 100
1, 139759, Note_on_c, 0, 80, 91
1, 139761, Control_c, 0, 64, 127
1, 139800, Note_off_c, 0, 69, 66
1, 139801, Note_off_c, 0, 61, 57
1, 139806, Note_off_c, 0, 80, 63
1, 139812, Note_off_c, 0, 67, 62
1, 139815, Note_off_c, 0, 74, 61
1, 139869, Note_on_c, 0, 73, 101
1, 139872, Note_on_c, 0, 68, 104
1, 139873, Note_on_c, 0, 58, 73
1, 139880, Note_on_c, 0, 77, 82
1, 139881, Note_on_c, 0, 59, 83
1, 139881, Note_on_c, 0, 76, 83
1, 139891, Note_off_c, 0, 58, 69
1, 139897, Note_on_c, 0, 60, 56
1, 139903, Note_off_c, 0, 59, 68
1, 139919, Note_off_c, 0, 60, 62
1, 139925, Note_on_c, 0, 75, 37
1, 139936, Note_off_c, 0, 77, 62
1, 139937, Note_off_c, 0, 76, 61
1, 139940, Note_off_c, 0, 68, 60
1, 139948, Note_off_c, 0, 73, 59
1, 139957, Note_off_c, 0, 75, 49
1, 139989, Note_on_c, 0, 71, 84
1, 139991, Note_on_c, 0, 68, 80
1, 140012, Note_off_c, 0, 71, 68
1, 140012, Note_off_c, 0, 68, 63
1, 140176, Control_c, 0, 64, 121
1, 140191, Note_on_c, 0, 75, 69
1, 140191, Control_c, 0, 64, 80
1, 140196, Note_on_c, 0, 65, 100
1, 140196, Note_on_c, 0, 70, 100
1, 140197, Note_on_c, 0, 67, 101
1, 140198, Note_on_c, 0, 55, 92
1, 140198, Note_on_c, 0, 77, 92
1, 140199, Note_on_c, 0, 73, 96
1, 140199, Note_on_c, 0, 58, 84
1, 140200, Note_on_c, 0, 63, 93
1, 140202, Note_on_c, 0, 61, 84
1, 140205, Control_c, 0, 64, 0
1, 140250, Control_c, 0, 64, 58
1, 140253, Note_off_c, 0, 55, 67
1, 140263, Note_off_c, 0, 67, 64
1, 140263, Note_off_c, 0, 77, 66
1, 140265, Control_c, 0, 64, 78
1, 140272, Note_off_c, 0, 65, 66
1, 140279, Note_off_c, 0, 58, 64
1, 140280, Control_c, 0, 64, 100
1, 140282, Note_off_c, 0, 70, 66
1, 140292, Note_off_c, 0, 73, 64
1, 140293, Note_off_c, 0, 61, 64
1, 140295, Note_off_c, 0, 75, 65
1, 140295, Control_c, 0, 64, 127
1, 140301, Note_off_c, 0, 63, 62
1, 140607, Note_on_c, 0, 96, 79
1, 140611, Note_on_c, 0, 85, 74
1, 140613, Note_on_c, 0, 91, 78
1, 140617, Note_on_c, 0, 99, 86
1, 140624, Note_on_c, 0, 77, 62
1, 140656, Note_off_c, 0, 77, 62
1, 140662, Note_off_c, 0, 91, 65
1, 140667, Note_off_c, 0, 85, 62
1, 140685, Note_off_c, 0, 96, 65
1, 140727, Note_on_c, 0, 75, 81
1, 140727, Note_on_c, 0, 84, 75
1, 140736, Note_on_c, 0, 94, 82
1, 140736, Note_on_c, 0, 97, 85
1, 140738, Note_on_c, 0, 89, 88
1, 140745, Note_off_c, 0, 99, 54
1, 140750, Note_off_c, 0, 84, 67
1, 140784, Note_off_c, 0, 94, 64
1, 140784, Note_off_c, 0, 97, 65
1, 140788, Note_off_c, 0, 89, 64
1, 140790, Note_off_c, 0, 75, 59
1, 140852, Note_on_c, 0, 82, 90
1, 140860, Note_on_c, 0, 96, 77
1, 140861, Note_on_c, 0, 91, 84
1, 140862, Note_on_c, 0, 95, 76
1, 140864, Note_on_c, 0, 87, 74
1, 140881, Note_off_c, 0, 87, 69
1, 140882, Note_off_c, 0, 96, 70
1, 140897, Note_off_c, 0, 82, 65
1, 140906, Note_off_c, 0, 95, 58
1, 140908, Note_off_c, 0, 91, 64
1, 140962, Note_on_c, 0, 93, 80
1, 140963, Note_on_c, 0, 85, 81
1, 140967, Note_on_c, 0, 89, 69
1, 140977, Note_on_c, 0, 88, 64
1, 140979, Note_on_c, 0, 77, 76
1, 140988, Note_off_c, 0, 93, 63
1, 140995, Note_off_c, 0, 89, 65
1, 140999, Note_off_c, 0, 88, 65
1, 141000, Note_off_c, 0, 77, 69
1, 141007, Note_off_c, 0, 85, 59
1, 141076, Note_on_c, 0, 87, 94
1, 141081, Note_on_c, 0, 84, 83
1, 141086, Note_on_c, 0, 91, 89
1, 141091, Note_on_c, 0, 77, 69
1, 141103, Note_on_c, 0, 76, 72
1, 141128, Note_off_c, 0, 91, 58
1, 141129, Note_off_c, 0, 84, 60
1, 141131, Note_off_c, 0, 76, 57
1, 141135, Note_off_c, 0, 87, 65
1, 141138, Note_off_c, 0, 77, 63
1, 141191, Note_on_c, 0, 89, 75
1, 141196, Note_on_c, 0, 85, 81
1, 141201, Note_on_c, 0, 75, 85
1, 141213, Note_on_c, 0, 82, 74
1, 141240, Note_off_c, 0, 82, 63
1, 141240, Note_off_c, 0, 89, 62
1, 141245, Note_off_c, 0, 85, 63
1, 141278, Note_off_c, 0, 75, 60
1, 141311, Note_on_c, 0, 73, 90
1, 141314, Note_on_c, 0, 80, 78
1, 141314, Note_on_c, 0, 87, 93
1, 141325, Note_on_c, 0, 84, 77
1, 141335, Note_on_c, 0, 82, 59
1, 141356, Note_off_c, 0, 82, 62
1, 141360, Note_off_c, 0, 80, 60
1, 141362, Note_off_c, 0, 84, 60
1, 141389, Note_off_c, 0, 87, 61
1, 141392, Note_off_c, 0, 73, 59
1, 141419, Note_on_c, 0, 79, 94
1, 141419, Note_on_c, 0, 85, 70
1, 141427, Note_on_c, 0, 72, 80
1, 141443, Note_on_c, 0, 82, 50
1, 141463, Note_off_c, 0, 79, 66
1, 141468, Note_off_c, 0, 82, 59
1, 141469, Note_off_c, 0, 85, 64
1, 141544, Note_on_c, 0, 75, 100
1, 141547, Note_on_c, 0, 78, 76
1, 141548, Note_on_c, 0, 70, 90
1, 141551, Note_on_c, 0, 84, 84
1, 141556, Note_on_c, 0, 79, 86
1, 141564, Note_off_c, 0, 72, 63
1, 141568, Note_off_c, 0, 78, 58
1, 141569, Note_off_c, 0, 84, 74
1, 141574, Note_on_c, 0, 83, 51
1, 141578, Note_off_c, 0, 79, 62
1, 141582, Note_off_c, 0, 70, 67
1, 141586, Note_off_c, 0, 75, 61
1, 141597, Note_off_c, 0, 83, 62
1, 141800, Note_on_c, 0, 68, 86
1, 141800, Note_on_c, 0, 75, 85
1, 141803, Note_on_c, 0, 66, 98
1, 141806, Note_on_c, 0, 78, 77
1, 141807, Control_c, 0, 64, 111
1, 141810, Note_on_c, 0, 32, 98
1, 141812, Note_on_c, 0, 72, 84
1, 141821, Note_on_c, 0, 77, 77
1, 141821, Control_c, 0, 64, 74
1, 141836, Control_c, 0, 64, 0
1, 141839, Note_off_c, 0, 77, 63
1, 141872, Note_off_c, 0, 72, 64
1, 141879, Note_off_c, 0, 66, 61
1, 141879, Note_off_c, 0, 78, 64
1, 141880, Note_off_c, 0, 68, 63
1, 141889, Control_c, 0, 64, 41
1, 141892, Note_off_c, 0, 75, 61
1, 141903, Control_c, 0, 64, 63
1, 141908, Note_off_c, 0, 32, 58
1, 141918, Control_c, 0, 64, 64
1, 141933, Control_c, 0, 64, 63
1, 141946, Note_on_c, 0, 45, 82
1, 141948, Control_c, 0, 64, 63
1, 141950, Note_on_c, 0, 39, 68
1, 141977, Control_c, 0, 64, 64
1, 141994, Note_off_c, 0, 39, 58
1, 142002, Note_off_c, 0, 45, 65
1, 142007, Control_c, 0, 64, 63
1, 142022, Control_c, 0, 64, 62
1, 142036, Control_c, 0, 64, 61
1, 142051, Control_c, 0, 64, 60
1, 142052, Note_on_c, 0, 35, 96
1, 142057, Note_on_c, 0, 74, 88
1, 142057, Note_on_c, 0, 78, 87
1, 142057, Note_on_c, 0, 80, 91
1, 142060, Note_on_c, 0, 69, 95
1, 142104, Note_off_c, 0, 35, 65
1, 142155, Control_c, 0, 64, 61
1, 142170, Control_c, 0, 64, 61
1, 142179, Note_on_c, 0, 50, 78
1, 142185, Note_on_c, 0, 44, 76
1, 142200, Control_c, 0, 64, 62
1, 142240, Note_off_c, 0, 50, 65
1, 142244, Note_off_c, 0, 44, 61
1, 142244, Control_c, 0, 64, 61
1, 142259, Control_c, 0, 64, 61
1, 142289, Note_on_c, 0, 38, 96
1, 142319, Control_c, 0, 64, 62
1, 142334, Control_c, 0, 64, 62
1, 142343, Note_off_c, 0, 38, 64
1, 142349, Control_c, 0, 64, 63
1, 142393, Control_c, 0, 64, 64
1, 142405, Note_on_c, 0, 52, 78
1, 142408, Control_c, 0, 64, 65
1, 142422, Note_on_c, 0, 46, 72
1, 142423, Control_c, 0, 64, 67
1, 142437, Control_c, 0, 64, 69
1, 142452, Control_c, 0, 64, 72
1, 142459, Note_off_c, 0, 46, 61
1, 142467, Control_c, 0, 64, 74
1, 142474, Note_off_c, 0, 52, 61
1, 142483, Control_c, 0, 64, 74
1, 142495, Note_off_c, 0, 74, 67
1, 142498, Note_off_c, 0, 80, 59
1, 142517, Note_off_c, 0, 78, 60
1, 142522, Note_off_c, 0, 69, 63
1, 142527, Note_on_c, 0, 41, 101
1, 142572, Control_c, 0, 64, 75
1, 142575, Note_off_c, 0, 41, 63
1, 142587, Control_c, 0, 64, 75
1, 142608, Control_c, 0, 64, 76
1, 142623, Control_c, 0, 64, 77
1, 142638, Control_c, 0, 64, 78
1, 142646, Note_on_c, 0, 55, 80
1, 142668, Control_c, 0, 64, 77
1, 142670, Note_on_c, 0, 49, 58
1, 142683, Control_c, 0, 64, 73
1, 142695, Note_off_c, 0, 55, 64
1, 142697, Control_c, 0, 64, 68
1, 142702, Note_off_c, 0, 49, 65
1, 142712, Control_c, 0, 64, 64
1, 142727, Control_c, 0, 64, 63
1, 142742, Control_c, 0, 64, 64
1, 142755, Note_on_c, 0, 44, 90
1, 142757, Control_c, 0, 64, 67
1, 142757, Note_on_c, 0, 68, 92
1, 142757, Note_on_c, 0, 75, 88
1, 142759, Note_on_c, 0, 66, 98
1, 142764, Note_on_c, 0, 77, 86
1, 142769, Note_on_c, 0, 72, 79
1, 142772, Control_c, 0, 64, 70
1, 142786, Control_c, 0, 64, 74
1, 142801, Control_c, 0, 64, 77
1, 142816, Control_c, 0, 64, 81
1, 142822, Note_off_c, 0, 44, 61
1, 142831, Control_c, 0, 64, 82
1, 142835, Note_off_c, 0, 77, 59
1, 142842, Note_off_c, 0, 72, 60
1, 142851, Note_off_c, 0, 75, 62
1, 142868, Note_off_c, 0, 68, 54
1, 142874, Note_off_c, 0, 66, 57
1, 142876, Note_on_c, 0, 52, 61
1, 142881, Note_on_c, 0, 58, 81
1, 142890, Control_c, 0, 64, 83
1, 142905, Control_c, 0, 64, 85
1, 142908, Note_off_c, 0, 58, 64
1, 142920, Control_c, 0, 64, 86
1, 142925, Note_off_c, 0, 52, 62
1, 142949, Control_c, 0, 64, 84
1, 142964, Control_c, 0, 64, 79
1, 142978, Control_c, 0, 64, 66
1, 142993, Control_c, 0, 64, 0
1, 143008, Note_on_c, 0, 37, 97
1, 143013, Note_on_c, 0, 70, 93
1, 143016, Note_on_c, 0, 68, 96
1, 143022, Note_on_c, 0, 65, 89
1, 143052, Control_c, 0, 64, 57
1, 143067, Control_c, 0, 64, 68
1, 143082, Control_c, 0, 64, 76
1, 143087, Note_off_c, 0, 65, 57
1, 143097, Control_c, 0, 64, 81
1, 143106, Note_off_c, 0, 68, 57
1, 143109, Note_off_c, 0, 70, 58
1, 143112, Control_c, 0, 64, 82
1, 143127, Control_c, 0, 64, 81
1, 143142, Control_c, 0, 64, 81
1, 143147, Note_off_c, 0, 37, 59
1, 143153, Note_on_c, 0, 44, 81
1, 143156, Note_on_c, 0, 73, 98
1, 143156, Control_c, 0, 64, 81
1, 143159, Note_on_c, 0, 50, 85
1, 143162, Note_on_c, 0, 68, 70
1, 143162, Note_on_c, 0, 65, 77
1, 143171, Control_c, 0, 64, 85
1, 143179, Note_off_c, 0, 65, 74
1, 143179, Note_off_c, 0, 68, 71
1, 143186, Control_c, 0, 64, 90
1, 143197, Note_off_c, 0, 73, 63
1, 143201, Control_c, 0, 64, 94
1, 143219, Note_off_c, 0, 44, 62
1, 143219, Note_off_c, 0, 50, 65
1, 143231, Control_c, 0, 64, 93
1, 143245, Control_c, 0, 64, 92
1, 143288, Note_on_c, 0, 85, 106
1, 143290, Note_on_c, 0, 74, 107
1, 143291, Note_on_c, 0, 41, 96
1, 143320, Note_off_c, 0, 85, 68
1, 143325, Note_off_c, 0, 74, 69
1, 143365, Note_off_c, 0, 41, 60
1, 143419, Note_on_c, 0, 70, 107
1, 143424, Note_on_c, 0, 80, 100
1, 143425, Note_on_c, 0, 73, 96
1, 143427, Note_on_c, 0, 77, 89
1, 143433, Note_on_c, 0, 55, 88
1, 143446, Note_on_c, 0, 49, 76
1, 143473, Note_off_c, 0, 49, 66
1, 143477, Note_off_c, 0, 55, 66
1, 143520, Control_c, 0, 64, 92
1, 143535, Control_c, 0, 64, 87
1, 143541, Poly_aftertouch_c, 0, 81, 0
1, 143550, Control_c, 0, 64, 77
1, 143558, Note_on_c, 0, 44, 91
1, 143565, Control_c, 0, 64, 64
1, 143580, Control_c, 0, 64, 0
1, 143671, Note_on_c, 0, 52, 91
1, 143674, Note_off_c, 0, 70, 62
1, 143677, Note_on_c, 0, 58, 96
1, 143682, Control_c, 0, 64, 70
1, 143689, Note_off_c, 0, 44, 65
1, 143695, Note_off_c, 0, 73, 60
1, 143697, Control_c, 0, 64, 127
1, 143699, Note_off_c, 0, 77, 60
1, 143710, Note_off_c, 0, 80, 65
1, 143713, Note_off_c, 0, 52, 61
1, 143716, Note_off_c, 0, 58, 66
1, 143936, Note_on_c, 0, 85, 50
1, 143953, Note_on_c, 0, 104, 73
1, 143955, Note_on_c, 0, 82, 67
1, 143955, Note_on_c, 0, 95, 70
1, 143958, Note_on_c, 0, 91, 71
1, 143973, Note_off_c, 0, 82, 63
1, 143975, Note_off_c, 0, 91, 65
1, 143977, Note_on_c, 0, 98, 44
1, 143977, Note_off_c, 0, 95, 70
1, 143977, Note_off_c, 0, 104, 70
1, 143991, Note_off_c, 0, 85, 64
1, 144003, Note_off_c, 0, 98, 58
1, 144074, Note_on_c, 0, 98, 78
1, 144075, Note_on_c, 0, 94, 74
1, 144080, Note_on_c, 0, 103, 71
1, 144081, Note_on_c, 0, 80, 67
1, 144084, Note_on_c, 0, 89, 79
1, 144114, Note_off_c, 0, 80, 65
1, 144115, Note_on_c, 0, 85, 66
1, 144121, Note_off_c, 0, 103, 59
1, 144128, Note_off_c, 0, 89, 54
1, 144137, Note_off_c, 0, 94, 64
1, 144147, Note_off_c, 0, 98, 64
1, 144149, Note_off_c, 0, 85, 61
1, 144197, Note_on_c, 0, 97, 75
1, 144198, Note_on_c, 0, 92, 76
1, 144202, Note_on_c, 0, 101, 69
1, 144206, Note_on_c, 0, 83, 73
1, 144208, Note_on_c, 0, 88, 70
1, 144229, Note_off_c, 0, 101, 64
1, 144232, Note_off_c, 0, 88, 67
1, 144233, Note_off_c, 0, 83, 66
1, 144244, Note_off_c, 0, 97, 63
1, 144245, Note_off_c, 0, 92, 64
1, 144323, Note_on_c, 0, 91, 85
1, 144323, Note_on_c, 0, 95, 84
1, 144325, Note_on_c, 0, 86, 76
1, 144328, Note_on_c, 0, 100, 76
1, 144346, Note_on_c, 0, 77, 42
1, 144358, Note_on_c, 0, 82, 56
1, 144365, Note_off_c, 0, 86, 62
1, 144373, Note_off_c, 0, 91, 65
1, 144373, Note_off_c, 0, 77, 57
1, 144387, Note_off_c, 0, 95, 64
1, 144388, Note_off_c, 0, 82, 54
1, 144431, Note_off_c, 0, 100, 36
1, 144441, Note_on_c, 0, 85, 80
1, 144445, Note_on_c, 0, 76, 79
1, 144448, Note_on_c, 0, 94, 80
1, 144450, Note_on_c, 0, 89, 82
1, 144450, Note_on_c, 0, 98, 81
1, 144450, Note_on_c, 0, 80, 60
1, 144469, Note_off_c, 0, 76, 65
1, 144474, Note_off_c, 0, 85, 57
1, 144477, Note_off_c, 0, 80, 66
1, 144490, Note_off_c, 0, 94, 65
1, 144495, Note_off_c, 0, 98, 65
1, 144501, Note_off_c, 0, 89, 63
1, 144560, Note_on_c, 0, 78, 74
1, 144563, Note_on_c, 0, 92, 91
1, 144565, Note_on_c, 0, 88, 84
1, 144566, Note_on_c, 0, 97, 86
1, 144569, Note_on_c, 0, 83, 79
1, 144571, Note_on_c, 0, 73, 76
1, 144605, Note_off_c, 0, 83, 62
1, 144619, Note_off_c, 0, 73, 63
1, 144626, Note_off_c, 0, 88, 60
1, 144627, Note_off_c, 0, 78, 61
1, 144638, Note_off_c, 0, 97, 66
1, 144639, Note_off_c, 0, 92, 65
1, 144666, Poly_aftertouch_c, 0, 78, 0
1, 144681, Note_on_c, 0, 73, 86
1, 144682, Note_on_c, 0, 91, 88
1, 144682, Note_on_c, 0, 95, 91
1, 144685, Note_on_c, 0, 78, 41
1, 144686, Note_off_c, 0, 78, 127
1, 144688, Note_on_c, 0, 86, 81
1, 144689, Note_on_c, 0, 82, 69
1, 144697, Note_on_c, 0, 77, 64
1, 144713, Note_off_c, 0, 82, 67
1, 144713, Note_off_c, 0, 86, 64
1, 144716, Note_off_c, 0, 77, 65
1, 144718, Note_off_c, 0, 91, 67
1, 144724, Note_off_c, 0, 95, 65
1, 144727, Note_off_c, 0, 73, 58
1, 144796, Note_on_c, 0, 76, 87
1, 144800, Note_on_c, 0, 80, 80
1, 144803, Note_on_c, 0, 85, 96
1, 144805, Note_on_c, 0, 94, 89
1, 144808, Note_on_c, 0, 89, 90
1, 144814, Note_on_c, 0, 71, 69
1, 144827, Note_on_c, 0, 90, 52
1, 144859, Note_off_c, 0, 80, 59
1, 144863, Note_off_c, 0, 76, 60
1, 144863, Note_off_c, 0, 90, 35
1, 144875, Note_off_c, 0, 85, 63
1, 144887, Note_off_c, 0, 71, 61
1, 144887, Note_off_c, 0, 89, 61
1, 144909, Note_off_c, 0, 94, 66
1, 144933, Note_on_c, 0, 70, 74
1, 144934, Note_on_c, 0, 92, 79
1, 144935, Note_on_c, 0, 74, 79
1, 144935, Note_on_c, 0, 79, 72
1, 144935, Note_on_c, 0, 83, 87
1, 144937, Note_on_c, 0, 73, 39
1, 144939, Note_on_c, 0, 88, 79
1, 144958, Note_off_c, 0, 79, 69
1, 144960, Note_on_c, 0, 87, 59
1, 144960, Note_off_c, 0, 74, 67
1, 144963, Note_off_c, 0, 73, 61
1, 144966, Note_off_c, 0, 88, 65
1, 144979, Note_off_c, 0, 70, 62
1, 144982, Note_off_c, 0, 83, 67
1, 144984, Note_off_c, 0, 87, 37
1, 144992, Note_off_c, 0, 92, 65
1, 145043, Note_on_c, 0, 68, 88
1, 145044, Note_on_c, 0, 77, 91
1, 145047, Note_on_c, 0, 86, 95
1, 145049, Note_on_c, 0, 82, 96
1, 145056, Note_on_c, 0, 73, 74
1, 145056, Note_on_c, 0, 91, 84
1, 145088, Note_off_c, 0, 77, 63
1, 145097, Note_off_c, 0, 91, 54
1, 145107, Note_off_c, 0, 82, 62
1, 145109, Note_off_c, 0, 68, 60
1, 145118, Note_off_c, 0, 73, 62
1, 145123, Note_off_c, 0, 86, 62
1, 145163, Note_on_c, 0, 85, 94
1, 145165, Note_on_c, 0, 89, 81
1, 145166, Note_on_c, 0, 80, 90
1, 145167, Note_on_c, 0, 71, 82
1, 145167, Note_on_c, 0, 67, 88
1, 145170, Note_on_c, 0, 76, 81
1, 145174, Note_on_c, 0, 86, 55
1, 145198, Note_off_c, 0, 86, 67
1, 145199, Note_off_c, 0, 76, 63
1, 145202, Note_off_c, 0, 71, 61
1, 145211, Note_off_c, 0, 80, 66
1, 145213, Note_off_c, 0, 67, 64
1, 145218, Note_off_c, 0, 89, 61
1, 145220, Note_off_c, 0, 85, 64
1, 145282, Note_on_c, 0, 83, 97
1, 145285, Note_on_c, 0, 79, 97
1, 145288, Note_on_c, 0, 88, 91
1, 145290, Note_on_c, 0, 74, 93
1, 145300, Note_on_c, 0, 65, 73
1, 145309, Note_on_c, 0, 64, 68
1, 145317, Note_on_c, 0, 70, 56
1, 145328, Note_off_c, 0, 65, 64
1, 145328, Note_off_c, 0, 79, 62
1, 145331, Note_off_c, 0, 64, 67
1, 145331, Note_off_c, 0, 74, 64
1, 145350, Note_off_c, 0, 88, 60
1, 145353, Note_off_c, 0, 83, 65
1, 145353, Note_off_c, 0, 70, 61
1, 145396, Note_on_c, 0, 64, 82
1, 145398, Note_on_c, 0, 73, 93
1, 145402, Note_on_c, 0, 82, 90
1, 145404, Note_on_c, 0, 86, 96
1, 145405, Note_on_c, 0, 77, 92
1, 145409, Note_on_c, 0, 68, 74
1, 145441, Note_off_c, 0, 64, 64
1, 145446, Note_off_c, 0, 68, 58
1, 145448, Note_off_c, 0, 73, 64
1, 145451, Note_off_c, 0, 77, 63
1, 145458, Note_off_c, 0, 86, 62
1, 145475, Note_off_c, 0, 82, 63
1, 145517, Note_on_c, 0, 85, 103
1, 145517, Note_on_c, 0, 62, 95
1, 145517, Note_on_c, 0, 67, 88
1, 145517, Note_on_c, 0, 71, 87
1, 145518, Note_on_c, 0, 76, 95
1, 145518, Note_on_c, 0, 80, 97
1, 145536, Note_off_c, 0, 85, 63
1, 145537, Note_off_c, 0, 71, 73
1, 145538, Note_off_c, 0, 76, 68
1, 145541, Note_off_c, 0, 67, 65
1, 145548, Note_off_c, 0, 80, 55
1, 145550, Note_off_c, 0, 62, 66
1, 145826, Control_c, 0, 64, 82
1, 145833, Note_on_c, 0, 78, 87
1, 145836, Note_on_c, 0, 66, 96
1, 145836, Note_on_c, 0, 68, 93
1, 145836, Note_on_c, 0, 33, 101
1, 145836, Note_on_c, 0, 75, 87
1, 145841, Control_c, 0, 64, 41
1, 145845, Note_on_c, 0, 72, 86
1, 145854, Note_on_c, 0, 77, 86
1, 145856, Control_c, 0, 64, 0
1, 145880, Note_off_c, 0, 78, 46
1, 145885, Control_c, 0, 64, 52
1, 145893, Note_on_c, 0, 74, 36
1, 145900, Control_c, 0, 64, 74
1, 145906, Note_off_c, 0, 75, 52
1, 145915, Note_off_c, 0, 72, 65
1, 145915, Control_c, 0, 64, 95
1, 145921, Note_off_c, 0, 74, 54
1, 145926, Note_off_c, 0, 66, 60
1, 145926, Note_off_c, 0, 68, 62
1, 145930, Control_c, 0, 64, 127
1, 145941, Note_off_c, 0, 77, 64
1, 145944, Note_off_c, 0, 33, 52
1, 146003, Note_on_c, 0, 50, 82
1, 146004, Note_on_c, 0, 48, 66
1, 146011, Note_on_c, 0, 43, 64
1, 146041, Note_off_c, 0, 50, 65
1, 146044, Note_off_c, 0, 43, 64
1, 146051, Note_off_c, 0, 48, 62
1, 146096, Note_on_c, 0, 80, 93
1, 146097, Note_on_c, 0, 36, 99
1, 146097, Note_on_c, 0, 74, 88
1, 146098, Note_on_c, 0, 78, 97
1, 146099, Note_on_c, 0, 69, 96
1, 146136, Note_on_c, 0, 73, 32
1, 146137, Note_off_c, 0, 73, 127
1, 146171, Note_off_c, 0, 36, 57
1, 146230, Note_on_c, 0, 52, 81
1, 146236, Note_on_c, 0, 50, 79
1, 146241, Control_c, 0, 64, 124
1, 146242, Note_on_c, 0, 45, 70
1, 146256, Control_c, 0, 64, 84
1, 146270, Control_c, 0, 64, 52
1, 146278, Note_off_c, 0, 45, 64
1, 146282, Note_off_c, 0, 52, 58
1, 146285, Control_c, 0, 64, 0
1, 146286, Note_off_c, 0, 50, 58
1, 146367, Note_on_c, 0, 40, 107
1, 146423, Note_off_c, 0, 40, 67
1, 146426, Control_c, 0, 64, 74
1, 146441, Control_c, 0, 64, 109
1, 146453, Note_off_c, 0, 69, 52
1, 146456, Control_c, 0, 64, 127
1, 146493, Note_off_c, 0, 74, 62
1, 146533, Note_off_c, 0, 80, 63
1, 146534, Note_off_c, 0, 78, 59
1, 146535, Note_on_c, 0, 62, 96
1, 146536, Note_on_c, 0, 55, 95
1, 146562, Note_off_c, 0, 55, 68
1, 146569, Note_off_c, 0, 62, 66
1, 146766, Poly_aftertouch_c, 0, 94, 0
1, 146871, Note_on_c, 0, 101, 86
1, 146871, Note_on_c, 0, 87, 85
1, 146872, Note_on_c, 0, 96, 76
1, 146873, Note_on_c, 0, 92, 87
1, 146880, Note_on_c, 0, 83, 72
1, 146882, Note_on_c, 0, 78, 64
1, 146896, Note_on_c, 0, 97, 35
1, 146916, Note_off_c, 0, 87, 67
1, 146933, Note_off_c, 0, 92, 66
1, 146936, Note_off_c, 0, 97, 30
1, 146940, Note_off_c, 0, 83, 55
1, 146949, Note_off_c, 0, 101, 60
1, 146992, Note_on_c, 0, 99, 79
1, 146993, Note_on_c, 0, 86, 75
1, 146994, Note_on_c, 0, 77, 68
1, 146995, Note_on_c, 0, 90, 76
1, 146996, Note_on_c, 0, 81, 65
1, 147000, Note_on_c, 0, 95, 62
1, 147015, Note_off_c, 0, 86, 68
1, 147015, Note_off_c, 0, 90, 71
1, 147019, Note_off_c, 0, 95, 67
1, 147020, Note_off_c, 0, 81, 69
1, 147027, Note_on_c, 0, 94, 39
1, 147027, Note_off_c, 0, 96, 48
1, 147029, Note_off_c, 0, 77, 63
1, 147030, Note_off_c, 0, 78, 28
1, 147039, Note_off_c, 0, 99, 66
1, 147058, Note_off_c, 0, 94, 56
1, 147119, Note_on_c, 0, 89, 80
1, 147122, Note_on_c, 0, 75, 75
1, 147130, Note_on_c, 0, 84, 65
1, 147130, Note_on_c, 0, 93, 72
1, 147130, Note_on_c, 0, 98, 72
1, 147131, Note_on_c, 0, 80, 64
1, 147157, Note_off_c, 0, 89, 59
1, 147160, Note_off_c, 0, 84, 64
1, 147166, Note_off_c, 0, 98, 62
1, 147181, Note_off_c, 0, 93, 63
1, 147193, Note_off_c, 0, 80, 56
1, 147203, Note_off_c, 0, 75, 59
1, 147238, Note_on_c, 0, 92, 75
1, 147239, Note_on_c, 0, 78, 74
1, 147239, Note_on_c, 0, 96, 68
1, 147240, Note_on_c, 0, 87, 76
1, 147250, Note_on_c, 0, 74, 71
1, 147253, Note_on_c, 0, 83, 59
1, 147267, Note_off_c, 0, 87, 67
1, 147272, Note_off_c, 0, 83, 66
1, 147276, Note_off_c, 0, 74, 70
1, 147276, Note_off_c, 0, 92, 63
1, 147276, Note_off_c, 0, 96, 57
1, 147278, Note_off_c, 0, 78, 58
1, 147359, Note_on_c, 0, 95, 64
1, 147360, Note_on_c, 0, 86, 77
1, 147364, Note_on_c, 0, 90, 79
1, 147368, Note_on_c, 0, 72, 74
1, 147368, Note_on_c, 0, 81, 76
1, 147393, Note_on_c, 0, 77, 55
1, 147401, Note_off_c, 0, 81, 61
1, 147408, Note_off_c, 0, 86, 65
1, 147416, Note_off_c, 0, 72, 59
1, 147429, Note_off_c, 0, 77, 62
1, 147431, Note_off_c, 0, 90, 63
1, 147434, Note_off_c, 0, 95, 57
1, 147474, Note_on_c, 0, 89, 86
1, 147474, Poly_aftertouch_c, 0, 76, 0
1, 147481, Note_on_c, 0, 93, 77
1, 147482, Note_on_c, 0, 71, 74
1, 147482, Note_on_c, 0, 75, 66
1, 147485, Note_on_c, 0, 80, 70
1, 147485, Note_on_c, 0, 84, 76
1, 147508, Note_off_c, 0, 71, 67
1, 147514, Note_off_c, 0, 75, 63
1, 147515, Note_off_c, 0, 80, 60
1, 147520, Note_off_c, 0, 89, 62
1, 147528, Note_off_c, 0, 93, 60
1, 147532, Note_off_c, 0, 84, 61
1, 147595, Note_on_c, 0, 92, 87
1, 147598, Note_on_c, 0, 87, 90
1, 147602, Note_on_c, 0, 83, 70
1, 147607, Note_on_c, 0, 78, 82
1, 147613, Note_on_c, 0, 69, 70
1, 147617, Note_on_c, 0, 74, 71
1, 147649, Note_off_c, 0, 83, 59
1, 147655, Note_off_c, 0, 74, 53
1, 147672, Note_off_c, 0, 78, 60
1, 147676, Note_off_c, 0, 87, 62
1, 147684, Note_off_c, 0, 69, 58
1, 147714, Note_on_c, 0, 86, 89
1, 147715, Note_on_c, 0, 90, 88
1, 147718, Note_on_c, 0, 81, 80
1, 147725, Note_on_c, 0, 68, 81
1, 147726, Note_on_c, 0, 72, 68
1, 147736, Note_on_c, 0, 77, 48
1, 147746, Note_off_c, 0, 92, 60
1, 147749, Note_off_c, 0, 72, 70
1, 147756, Note_off_c, 0, 86, 65
1, 147762, Note_off_c, 0, 77, 59
1, 147764, Note_off_c, 0, 81, 63
1, 147768, Note_off_c, 0, 68, 61
1, 147774, Note_off_c, 0, 90, 63
1, 147831, Note_on_c, 0, 75, 85
1, 147832, Note_on_c, 0, 80, 90
1, 147832, Note_on_c, 0, 84, 86
1, 147842, Note_on_c, 0, 66, 74
1, 147851, Note_on_c, 0, 71, 72
1, 147857, Note_on_c, 0, 89, 61
1, 147870, Note_on_c, 0, 88, 58
1, 147893, Note_off_c, 0, 75, 65
1, 147897, Note_off_c, 0, 88, 51
1, 147902, Note_off_c, 0, 80, 60
1, 147911, Note_off_c, 0, 89, 40
1, 147950, Note_on_c, 0, 74, 87
1, 147950, Note_on_c, 0, 87, 93
1, 147950, Note_on_c, 0, 78, 92
1, 147954, Note_on_c, 0, 69, 78
1, 147954, Note_off_c, 0, 66, 0
1, 147956, Note_on_c, 0, 83, 58
1, 147957, Note_on_c, 0, 65, 78
1, 147968, Note_on_c, 0, 66, 39
1, 147984, Note_off_c, 0, 84, 65
1, 147986, Note_off_c, 0, 71, 55
1, 147986, Note_off_c, 0, 78, 65
1, 147990, Note_off_c, 0, 74, 66
1, 147991, Note_off_c, 0, 69, 62
1, 147997, Note_off_c, 0, 66, 54
1, 148003, Note_off_c, 0, 83, 63
1, 148007, Note_off_c, 0, 65, 64
1, 148018, Note_off_c, 0, 87, 65
1, 148070, Note_on_c, 0, 77, 95
1, 148073, Note_on_c, 0, 81, 91
1, 148075, Note_on_c, 0, 86, 86
1, 148078, Note_on_c, 0, 72, 88
1, 148079, Note_on_c, 0, 63, 84
1, 148083, Note_on_c, 0, 68, 81
1, 148109, Note_on_c, 0, 80, 31
1, 148119, Note_off_c, 0, 77, 64
1, 148123, Note_off_c, 0, 72, 62
1, 148133, Note_off_c, 0, 86, 63
1, 148144, Note_off_c, 0, 80, 33
1, 148149, Note_off_c, 0, 81, 66
1, 148165, Note_off_c, 0, 63, 59
1, 148167, Note_off_c, 0, 68, 60
1, 148181, Note_on_c, 0, 84, 91
1, 148183, Note_on_c, 0, 75, 99
1, 148183, Note_on_c, 0, 80, 93
1, 148191, Note_on_c, 0, 66, 99
1, 148193, Note_on_c, 0, 71, 100
1, 148195, Note_on_c, 0, 62, 91
1, 148212, Note_off_c, 0, 84, 69
1, 148218, Note_off_c, 0, 75, 66
1, 148226, Note_off_c, 0, 80, 66
1, 148239, Note_off_c, 0, 71, 66
1, 148255, Note_off_c, 0, 62, 64
1, 148268, Note_off_c, 0, 66, 64
1, 148412, Control_c, 0, 64, 108
1, 148427, Control_c, 0, 64, 73
1, 148442, Control_c, 0, 64, 0
1, 148671, Note_on_c, 0, 67, 101
1, 148672, Note_on_c, 0, 71, 100
1, 148673, Note_on_c, 0, 73, 97
1, 148675, Note_on_c, 0, 61, 103
1, 148679, Note_on_c, 0, 59, 92
1, 148684, Note_on_c, 0, 55, 88
1, 148761, Control_c, 0, 64, 54
1, 148775, Control_c, 0, 64, 66
1, 148790, Control_c, 0, 64, 73
1, 148805, Control_c, 0, 64, 80
1, 148820, Control_c, 0, 64, 91
1, 148835, Control_c, 0, 64, 114
1, 148850, Control_c, 0, 64, 127
1, 148939, Note_off_c, 0, 71, 62
1, 148948, Note_off_c, 0, 59, 56
1, 148948, Note_off_c, 0, 61, 53
1, 148952, Note_off_c, 0, 73, 56
1, 148957, Note_off_c, 0, 67, 45
1, 148978, Note_off_c, 0, 55, 57
1, 149208, Note_on_c, 0, 70, 96
1, 149208, Note_on_c, 0, 65, 99
1, 149209, Note_on_c, 0, 68, 95
1, 149209, Note_on_c, 0, 73, 94
1, 149214, Note_on_c, 0, 61, 93
1, 149216, Note_on_c, 0, 58, 92
1, 149217, Note_on_c, 0, 56, 87
1, 149218, Note_on_c, 0, 53, 90
1, 149221, Control_c, 0, 64, 93
1, 149236, Control_c, 0, 64, 66
1, 149251, Control_c, 0, 64, 0
1, 149310, Control_c, 0, 64, 63
1, 149325, Control_c, 0, 64, 75
1, 149345, Note_off_c, 0, 53, 64
1, 149347, Control_c, 0, 64, 90
1, 149348, Note_off_c, 0, 65, 59
1, 149362, Control_c, 0, 64, 113
1, 149377, Control_c, 0, 64, 127
1, 149378, Note_off_c, 0, 68, 58
1, 149381, Note_off_c, 0, 56, 63
1, 149381, Note_off_c, 0, 58, 62
1, 149388, Note_off_c, 0, 61, 63
1, 149390, Note_off_c, 0, 70, 60
1, 149395, Note_off_c, 0, 73, 59
1, 149673, Note_on_c, 0, 101, 72
1, 149673, Note_on_c, 0, 92, 71
1, 149676, Note_on_c, 0, 97, 66
1, 149679, Note_on_c, 0, 88, 68
1, 149688, Note_on_c, 0, 83, 59
1, 149694, Note_on_c, 0, 79, 47
1, 149706, Note_off_c, 0, 97, 63
1, 149709, Note_off_c, 0, 88, 62
1, 149716, Note_off_c, 0, 83, 67
1, 149717, Note_off_c, 0, 101, 61
1, 149717, Note_off_c, 0, 79, 58
1, 149718, Note_off_c, 0, 92, 63
1, 149825, Note_on_c, 0, 78, 66
1, 149834, Note_on_c, 0, 100, 68
1, 149837, Note_on_c, 0, 91, 75
1, 149843, Note_on_c, 0, 86, 66
1, 149849, Note_on_c, 0, 95, 60
1, 149861, Note_on_c, 0, 82, 60
1, 149873, Note_off_c, 0, 86, 65
1, 149874, Note_off_c, 0, 78, 62
1, 149896, Note_off_c, 0, 82, 60
1, 149899, Note_off_c, 0, 91, 64
1, 149914, Note_off_c, 0, 95, 63
1, 149931, Note_off_c, 0, 100, 52
1, 149966, Note_on_c, 0, 85, 74
1, 149968, Note_on_c, 0, 76, 71
1, 149973, Note_on_c, 0, 80, 58
1, 149976, Note_on_c, 0, 94, 73
1, 149978, Note_on_c, 0, 89, 72
1, 149978, Note_on_c, 0, 98, 70
1, 150004, Note_off_c, 0, 80, 65
1, 150005, Note_off_c, 0, 85, 58
1, 150005, Note_off_c, 0, 98, 68
1, 150006, Note_off_c, 0, 76, 58
1, 150008, Note_off_c, 0, 94, 62
1, 150027, Note_off_c, 0, 89, 60
1, 150107, Note_on_c, 0, 97, 75
1, 150114, Note_on_c, 0, 83, 68
1, 150114, Note_on_c, 0, 88, 61
1, 150116, Note_on_c, 0, 92, 69
1, 150120, Note_on_c, 0, 79, 66
1, 150142, Note_on_c, 0, 74, 54
1, 150148, Note_off_c, 0, 83, 64
1, 150163, Note_off_c, 0, 88, 59
1, 150165, Note_off_c, 0, 74, 62
1, 150176, Note_off_c, 0, 79, 57
1, 150179, Note_off_c, 0, 92, 64
1, 150191, Note_off_c, 0, 97, 64
1, 150230, Note_on_c, 0, 77, 66
1, 150232, Note_on_c, 0, 73, 76
1, 150236, Note_on_c, 0, 91, 72
1, 150238, Note_on_c, 0, 95, 72
1, 150239, Note_on_c, 0, 82, 60
1, 150250, Note_on_c, 0, 86, 57
1, 150255, Note_off_c, 0, 77, 68
1, 150257, Note_off_c, 0, 91, 70
1, 150261, Note_off_c, 0, 82, 63
1, 150264, Note_off_c, 0, 95, 65
1, 150266, Note_off_c, 0, 73, 60
1, 150269, Note_off_c, 0, 86, 66
1, 150347, Note_on_c, 0, 90, 84
1, 150358, Note_on_c, 0, 94, 77
1, 150364, Note_on_c, 0, 76, 73
1, 150367, Note_on_c, 0, 85, 64
1, 150368, Note_on_c, 0, 80, 66
1, 150370, Note_on_c, 0, 71, 68
1, 150417, Note_off_c, 0, 80, 62
1, 150428, Note_off_c, 0, 90, 65
1, 150430, Note_off_c, 0, 85, 63
1, 150432, Note_off_c, 0, 76, 56
1, 150460, Note_off_c, 0, 71, 54
1, 150478, Note_on_c, 0, 74, 77
1, 150479, Note_on_c, 0, 70, 77
1, 150481, Note_on_c, 0, 92, 80
1, 150488, Note_on_c, 0, 88, 76
1, 150489, Note_on_c, 0, 79, 60
1, 150492, Note_on_c, 0, 83, 67
1, 150504, Note_on_c, 0, 84, 62
1, 150504, Note_off_c, 0, 94, 63
1, 150507, Note_off_c, 0, 74, 65
1, 150509, Note_off_c, 0, 79, 63
1, 150513, Note_off_c, 0, 88, 66
1, 150521, Note_off_c, 0, 84, 66
1, 150529, Note_off_c, 0, 70, 63
1, 150531, Note_off_c, 0, 83, 64
1, 150534, Note_off_c, 0, 92, 63
1, 150601, Note_on_c, 0, 77, 80
1, 150602, Note_on_c, 0, 68, 80
1, 150602, Note_on_c, 0, 73, 83
1, 150604, Note_on_c, 0, 86, 83
1, 150606, Note_on_c, 0, 82, 83
1, 150612, Note_on_c, 0, 91, 74
1, 150625, Note_on_c, 0, 90, 56
1, 150650, Note_off_c, 0, 77, 62
1, 150661, Note_off_c, 0, 91, 56
1, 150664, Note_off_c, 0, 82, 63
1, 150665, Note_off_c, 0, 90, 46
1, 150677, Note_off_c, 0, 68, 61
1, 150677, Note_off_c, 0, 73, 61
1, 150683, Note_off_c, 0, 86, 63
1, 150719, Note_on_c, 0, 85, 79
1, 150720, Note_on_c, 0, 80, 84
1, 150721, Note_on_c, 0, 89, 77
1, 150727, Note_on_c, 0, 71, 80
1, 150728, Note_on_c, 0, 67, 89
1, 150737, Note_on_c, 0, 76, 66
1, 150749, Note_off_c, 0, 71, 68
1, 150755, Note_off_c, 0, 89, 55
1, 150755, Note_off_c, 0, 76, 65
1, 150757, Note_off_c, 0, 80, 61
1, 150765, Note_off_c, 0, 85, 63
1, 150770, Note_off_c, 0, 67, 62
1, 150845, Note_on_c, 0, 83, 92
1, 150848, Note_on_c, 0, 79, 89
1, 150850, Note_on_c, 0, 88, 85
1, 150857, Note_on_c, 0, 74, 79
1, 150864, Note_on_c, 0, 65, 62
1, 150869, Note_on_c, 0, 70, 69
1, 150878, Note_off_c, 0, 74, 71
1, 150891, Note_off_c, 0, 65, 66
1, 150899, Note_off_c, 0, 79, 61
1, 150905, Note_off_c, 0, 70, 61
1, 150912, Note_off_c, 0, 83, 64
1, 150919, Note_off_c, 0, 88, 60
1, 150960, Note_on_c, 0, 64, 83
1, 150964, Note_on_c, 0, 73, 84
1, 150967, Note_on_c, 0, 68, 70
1, 150969, Note_on_c, 0, 82, 90
1, 150971, Note_on_c, 0, 86, 82
1, 150973, Note_on_c, 0, 77, 82
1, 150996, Note_off_c, 0, 68, 63
1, 151006, Note_off_c, 0, 64, 63
1, 151014, Note_off_c, 0, 86, 67
1, 151014, Note_off_c, 0, 73, 59
1, 151020, Note_off_c, 0, 82, 64
1, 151021, Note_off_c, 0, 77, 63
1, 151083, Note_on_c, 0, 71, 82
1, 151085, Note_on_c, 0, 67, 80
1, 151088, Note_on_c, 0, 80, 90
1, 151088, Note_on_c, 0, 85, 88
1, 151090, Note_on_c, 0, 76, 88
1, 151110, Note_on_c, 0, 63, 27
1, 151116, Note_on_c, 0, 62, 58
1, 151125, Note_off_c, 0, 71, 64
1, 151139, Note_off_c, 0, 62, 63
1, 151148, Note_off_c, 0, 67, 62
1, 151148, Note_off_c, 0, 76, 59
1, 151149, Note_off_c, 0, 63, 54
1, 151159, Note_off_c, 0, 80, 60
1, 151186, Note_off_c, 0, 85, 62
1, 151197, Note_on_c, 0, 70, 84
1, 151200, Note_on_c, 0, 61, 84
1, 151200, Note_on_c, 0, 65, 78
1, 151209, Note_on_c, 0, 79, 89
1, 151211, Note_on_c, 0, 83, 88
1, 151217, Note_on_c, 0, 74, 85
1, 151244, Note_off_c, 0, 65, 61
1, 151247, Note_off_c, 0, 74, 58
1, 151248, Note_off_c, 0, 70, 63
1, 151250, Note_off_c, 0, 79, 64
1, 151253, Note_off_c, 0, 83, 66
1, 151256, Note_off_c, 0, 61, 63
1, 151323, Note_on_c, 0, 68, 85
1, 151325, Note_on_c, 0, 64, 82
1, 151331, Note_on_c, 0, 82, 93
1, 151333, Note_on_c, 0, 73, 94
1, 151340, Note_on_c, 0, 59, 61
1, 151340, Note_on_c, 0, 77, 78
1, 151343, Note_on_c, 0, 76, 85
1, 151393, Note_off_c, 0, 68, 60
1, 151396, Note_off_c, 0, 73, 60
1, 151398, Note_off_c, 0, 64, 59
1, 151401, Note_off_c, 0, 76, 56
1, 151410, Note_off_c, 0, 77, 64
1, 151420, Poly_aftertouch_c, 0, 60, 127
1, 151450, Note_on_c, 0, 58, 86
1, 151450, Note_on_c, 0, 62, 80
1, 151450, Note_on_c, 0, 67, 82
1, 151455, Poly_aftertouch_c, 0, 60, 0
1, 151457, Note_on_c, 0, 76, 78
1, 151457, Note_on_c, 0, 80, 81
1, 151458, Note_on_c, 0, 71, 88
1, 151469, Note_off_c, 0, 59, 31
1, 151482, Note_off_c, 0, 82, 50
1, 151487, Note_off_c, 0, 62, 61
1, 151491, Note_off_c, 0, 67, 56
1, 151497, Note_off_c, 0, 76, 64
1, 151503, Note_off_c, 0, 58, 64
1, 151507, Note_off_c, 0, 71, 66
1, 151513, Note_off_c, 0, 80, 60
1, 151569, Note_on_c, 0, 56, 89
1, 151571, Note_on_c, 0, 65, 90
1, 151571, Note_on_c, 0, 74, 92
1, 151577, Note_on_c, 0, 79, 83
1, 151578, Note_on_c, 0, 61, 85
1, 151578, Note_on_c, 0, 70, 87
1, 151622, Note_off_c, 0, 79, 55
1, 151626, Note_off_c, 0, 65, 63
1, 151631, Note_off_c, 0, 70, 62
1, 151649, Note_off_c, 0, 56, 64
1, 151652, Note_off_c, 0, 61, 61
1, 151656, Note_off_c, 0, 74, 65
1, 151703, Note_on_c, 0, 73, 91
1, 151703, Note_on_c, 0, 59, 84
1, 151704, Note_on_c, 0, 64, 90
1, 151705, Note_on_c, 0, 68, 93
1, 151706, Note_on_c, 0, 77, 81
1, 151707, Note_on_c, 0, 55, 84
1, 151747, Note_off_c, 0, 59, 64
1, 151748, Note_off_c, 0, 64, 65
1, 151751, Note_off_c, 0, 68, 65
1, 151753, Note_off_c, 0, 55, 64
1, 151763, Note_off_c, 0, 77, 60
1, 151765, Note_off_c, 0, 73, 64
1, 151831, Note_on_c, 0, 71, 96
1, 151831, Note_on_c, 0, 76, 74
1, 151832, Note_on_c, 0, 67, 100
1, 151834, Note_on_c, 0, 62, 90
1, 151848, Note_on_c, 0, 53, 66
1, 151850, Note_on_c, 0, 58, 76
1, 151862, Note_on_c, 0, 55, 63
1, 151865, Note_on_c, 0, 52, 56
1, 151876, Note_on_c, 0, 70, 26
1, 151880, Note_off_c, 0, 55, 66
1, 151884, Note_off_c, 0, 62, 64
1, 151888, Note_off_c, 0, 53, 64
1, 151891, Note_off_c, 0, 52, 62
1, 151896, Note_off_c, 0, 67, 58
1, 151908, Note_off_c, 0, 70, 56
1, 151908, Note_off_c, 0, 76, 61
1, 151914, Note_off_c, 0, 71, 65
1, 151920, Note_off_c, 0, 58, 63
1, 151968, Note_on_c, 0, 70, 97
1, 151972, Note_on_c, 0, 74, 94
1, 151975, Note_on_c, 0, 61, 90
1, 151977, Note_on_c, 0, 65, 93
1, 151977, Note_on_c, 0, 52, 79
1, 151979, Note_on_c, 0, 56, 90
1, 152030, Note_off_c, 0, 56, 60
1, 152039, Note_off_c, 0, 65, 55
1, 152046, Note_off_c, 0, 52, 62
1, 152050, Note_off_c, 0, 74, 63
1, 152052, Note_off_c, 0, 61, 60
1, 152054, Note_off_c, 0, 70, 61
1, 152118, Note_on_c, 0, 59, 101
1, 152119, Note_on_c, 0, 50, 97
1, 152120, Note_on_c, 0, 55, 92
1, 152120, Note_on_c, 0, 73, 99
1, 152122, Note_on_c, 0, 68, 93
1, 152123, Note_on_c, 0, 64, 89
1, 152149, Note_off_c, 0, 59, 64
1, 152154, Note_off_c, 0, 50, 69
1, 152156, Note_off_c, 0, 55, 65
1, 152156, Note_off_c, 0, 64, 64
1, 152158, Note_off_c, 0, 73, 68
1, 152169, Note_off_c, 0, 68, 62
1, 152260, Control_c, 0, 64, 91
1, 152275, Control_c, 0, 64, 65
1, 152290, Control_c, 0, 64, 0
1, 152537, Note_on_c, 0, 56, 109
1, 152540, Note_on_c, 0, 53, 95
1, 152544, Note_on_c, 0, 45, 95
1, 152544, Note_on_c, 0, 48, 83
1, 152559, Note_on_c, 0, 46, 59
1, 152564, Control_c, 0, 64, 96
1, 152579, Control_c, 0, 64, 127
1, 152632, Note_off_c, 0, 46, 0
1, 152632, Note_on_c, 0, 46, 20
1, 152633, Note_off_c, 0, 45, 61
1, 152633, Note_off_c, 0, 53, 67
1, 152643, Note_off_c, 0, 48, 63
1, 152651, Note_off_c, 0, 56, 59
1, 152670, Note_on_c, 0, 57, 78
1, 152671, Note_on_c, 0, 60, 59
1, 152672, Note_on_c, 0, 68, 74
1, 152674, Note_off_c, 0, 46, 42
1, 152677, Note_on_c, 0, 65, 71
1, 152697, Note_off_c, 0, 68, 67
1, 152710, Note_off_c, 0, 65, 62
1, 152712, Control_c, 0, 64, 99
1, 152713, Note_off_c, 0, 57, 62
1, 152726, Note_off_c, 0, 60, 62
1, 152727, Control_c, 0, 64, 74
1, 152742, Control_c, 0, 64, 0
1, 152777, Note_on_c, 0, 53, 85
1, 152778, Note_on_c, 0, 51, 83
1, 152782, Note_on_c, 0, 42, 78
1, 152786, Note_on_c, 0, 63, 88
1, 152791, Note_on_c, 0, 54, 88
1, 152799, Note_on_c, 0, 59, 67
1, 152807, Note_off_c, 0, 53, 68
1, 152822, Note_off_c, 0, 51, 63
1, 152827, Note_on_c, 0, 65, 32
1, 152828, Note_off_c, 0, 42, 64
1, 152828, Note_off_c, 0, 59, 63
1, 152841, Note_off_c, 0, 54, 66
1, 152850, Note_off_c, 0, 63, 63
1, 152860, Note_off_c, 0, 65, 54
1, 152906, Control_c, 0, 64, 60
1, 152907, Note_on_c, 0, 48, 97
1, 152908, Note_on_c, 0, 41, 95
1, 152913, Note_on_c, 0, 45, 84
1, 152921, Control_c, 0, 64, 95
1, 152935, Control_c, 0, 64, 127
1, 152955, Note_off_c, 0, 45, 62
1, 152961, Note_off_c, 0, 41, 62
1, 152964, Note_off_c, 0, 48, 62
1, 152994, Control_c, 0, 64, 85
1, 153009, Control_c, 0, 64, 51
1, 153020, Note_on_c, 0, 57, 89
1, 153021, Note_on_c, 0, 60, 89
1, 153024, Control_c, 0, 64, 0
1, 153053, Note_off_c, 0, 57, 64
1, 153067, Note_off_c, 0, 60, 67
1, 153143, Note_on_c, 0, 56, 11
1, 153150, Control_c, 0, 64, 88
1, 153157, Note_on_c, 0, 62, 94
1, 153159, Note_on_c, 0, 52, 73
1, 153165, Note_on_c, 0, 60, 86
1, 153165, Control_c, 0, 64, 127
1, 153170, Note_on_c, 0, 48, 70
1, 153175, Note_on_c, 0, 47, 74
1, 153182, Note_on_c, 0, 53, 60
1, 153207, Note_off_c, 0, 53, 40
1, 153210, Note_off_c, 0, 56, 61
1, 153219, Note_off_c, 0, 47, 63
1, 153222, Note_off_c, 0, 52, 63
1, 153224, Note_off_c, 0, 62, 60
1, 153239, Note_off_c, 0, 48, 63
1, 153268, Note_on_c, 0, 69, 94
1, 153269, Note_on_c, 0, 74, 88
1, 153270, Note_on_c, 0, 65, 89
1, 153272, Poly_aftertouch_c, 0, 51, 0
1, 153277, Poly_aftertouch_c, 0, 68, 0
1, 153282, Note_off_c, 0, 60, 48
1, 153283, Control_c, 0, 64, 85
1, 153298, Control_c, 0, 64, 57
1, 153302, Note_off_c, 0, 69, 67
1, 153308, Note_off_c, 0, 65, 63
1, 153311, Note_off_c, 0, 74, 66
1, 153312, Control_c, 0, 64, 0
1, 153381, Note_on_c, 0, 60, 87
1, 153389, Note_on_c, 0, 51, 73
1, 153393, Note_on_c, 0, 47, 76
1, 153396, Note_on_c, 0, 54, 74
1, 153396, Note_on_c, 0, 63, 91
1, 153397, Note_on_c, 0, 66, 86
1, 153410, Note_on_c, 0, 71, 69
1, 153410, Note_on_c, 0, 72, 64
1, 153420, Note_on_c, 0, 62, 64
1, 153421, Note_off_c, 0, 66, 65
1, 153426, Note_off_c, 0, 60, 61
1, 153426, Note_off_c, 0, 54, 65
1, 153427, Note_off_c, 0, 63, 64
1, 153430, Note_off_c, 0, 72, 66
1, 153433, Note_on_c, 0, 65, 42
1, 153434, Note_off_c, 0, 51, 61
1, 153435, Note_off_c, 0, 71, 69
1, 153436, Note_off_c, 0, 47, 64
1, 153440, Note_off_c, 0, 62, 63
1, 153461, Note_off_c, 0, 65, 55
1, 153516, Note_on_c, 0, 59, 90
1, 153517, Note_on_c, 0, 53, 83
1, 153518, Note_on_c, 0, 45, 81
1, 153523, Note_on_c, 0, 48, 76
1, 153535, Control_c, 0, 64, 61
1, 153548, Note_off_c, 0, 45, 69
1, 153550, Control_c, 0, 64, 92
1, 153552, Note_off_c, 0, 53, 65
1, 153561, Note_off_c, 0, 48, 57
1, 153565, Control_c, 0, 64, 127
1, 153575, Note_off_c, 0, 59, 63
1, 153624, Note_on_c, 0, 60, 82
1, 153631, Note_on_c, 0, 65, 84
1, 153638, Note_on_c, 0, 71, 84
1, 153653, Note_off_c, 0, 60, 63
1, 153673, Note_off_c, 0, 65, 67
1, 153678, Note_off_c, 0, 71, 66
1, 153699, Control_c, 0, 64, 84
1, 153714, Control_c, 0, 64, 0
1, 153754, Note_on_c, 0, 68, 98
1, 153762, Note_on_c, 0, 65, 81
1, 153763, Note_on_c, 0, 60, 76
1, 153772, Note_on_c, 0, 57, 78
1, 153773, Control_c, 0, 64, 37
1, 153786, Note_on_c, 0, 58, 52
1, 153788, Control_c, 0, 64, 79
1, 153802, Control_c, 0, 64, 127
1, 153813, Note_off_c, 0, 58, 55
1, 153822, Note_off_c, 0, 65, 65
1, 153822, Note_off_c, 0, 68, 65
1, 153843, Note_on_c, 0, 73, 21
1, 153844, Note_off_c, 0, 60, 62
1, 153846, Note_off_c, 0, 57, 61
1, 153884, Note_on_c, 0, 77, 80
1, 153885, Note_on_c, 0, 69, 89
1, 153885, Note_on_c, 0, 80, 84
1, 153891, Note_off_c, 0, 73, 51
1, 153900, Note_on_c, 0, 72, 59
1, 153921, Note_off_c, 0, 72, 65
1, 153921, Note_off_c, 0, 77, 60
1, 153928, Note_off_c, 0, 69, 65
1, 153929, Control_c, 0, 64, 104
1, 153929, Note_off_c, 0, 80, 62
1, 153943, Control_c, 0, 64, 71
1, 153958, Control_c, 0, 64, 0
1, 154003, Note_on_c, 0, 65, 99
1, 154007, Note_on_c, 0, 60, 82
1, 154011, Note_on_c, 0, 53, 82
1, 154017, Control_c, 0, 64, 66
1, 154019, Note_on_c, 0, 57, 71
1, 154028, Note_on_c, 0, 59, 68
1, 154032, Control_c, 0, 64, 93
1, 154043, Note_off_c, 0, 65, 64
1, 154046, Note_off_c, 0, 59, 63
1, 154047, Control_c, 0, 64, 127
1, 154052, Note_off_c, 0, 60, 67
1, 154063, Note_off_c, 0, 57, 61
1, 154067, Note_on_c, 0, 73, 17
1, 154076, Note_off_c, 0, 53, 67
1, 154117, Note_on_c, 0, 69, 70
1, 154118, Note_on_c, 0, 77, 87
1, 154118, Poly_aftertouch_c, 0, 61, 0
1, 154119, Note_on_c, 0, 72, 80
1, 154123, Note_on_c, 0, 65, 78
1, 154127, Note_off_c, 0, 73, 0
1, 154127, Note_on_c, 0, 73, 12
1, 154139, Note_off_c, 0, 69, 69
1, 154141, Note_off_c, 0, 65, 66
1, 154157, Note_off_c, 0, 72, 62
1, 154170, Note_off_c, 0, 77, 65
1, 154185, Note_off_c, 0, 73, 50
1, 154268, Note_on_c, 0, 77, 100
1, 154269, Note_on_c, 0, 53, 100
1, 154269, Note_on_c, 0, 81, 104
1, 154270, Note_on_c, 0, 84, 98
1, 154273, Note_on_c, 0, 41, 95
1, 154273, Note_on_c, 0, 45, 91
1, 154273, Note_on_c, 0, 48, 92
1, 154273, Note_on_c, 0, 89, 100
1, 154285, Note_off_c, 0, 53, 77
1, 154287, Note_off_c, 0, 77, 68
1, 154294, Note_on_c, 0, 88, 54
1, 154295, Note_off_c, 0, 88, 127
1, 154295, Note_off_c, 0, 81, 66
1, 154296, Note_off_c, 0, 48, 70
1, 154299, Note_off_c, 0, 84, 71
1, 154300, Note_off_c, 0, 45, 69
1, 154303, Note_off_c, 0, 89, 68
1, 154308, Note_off_c, 0, 41, 65
1, 154496, Note_on_c, 0, 93, 83
1, 154497, Note_on_c, 0, 24, 72
1, 154501, Note_on_c, 0, 98, 72
1, 154514, Note_on_c, 0, 29, 61
1, 154517, Note_on_c, 0, 95, 81
1, 154519, Note_on_c, 0, 89, 79
1, 154525, Note_on_c, 0, 26, 40
1, 154532, Note_off_c, 0, 98, 64
1, 154544, Note_off_c, 0, 24, 61
1, 154547, Note_on_c, 0, 28, 45
1, 154551, Note_off_c, 0, 29, 62
1, 154552, Note_off_c, 0, 93, 63
1, 154567, Note_off_c, 0, 95, 67
1, 154570, Note_off_c, 0, 89, 63
1, 154584, Note_off_c, 0, 26, 48
1, 154597, Note_off_c, 0, 28, 49
1, 154648, Note_on_c, 0, 89, 82
1, 154652, Note_on_c, 0, 95, 80
1, 154662, Note_on_c, 0, 28, 66
1, 154666, Note_on_c, 0, 35, 39
1, 154705, Note_off_c, 0, 95, 62
1, 154713, Note_off_c, 0, 28, 51
1, 154760, Note_on_c, 0, 93, 78
1, 154762, Note_on_c, 0, 31, 68
1, 154762, Note_on_c, 0, 86, 80
1, 154776, Note_off_c, 0, 89, 62
1, 154785, Note_on_c, 0, 36, 50
1, 154794, Note_off_c, 0, 31, 62
1, 154808, Note_off_c, 0, 93, 61
1, 154811, Note_off_c, 0, 86, 64
1, 154827, Note_off_c, 0, 35, 34
1, 154831, Note_off_c, 0, 36, 47
1, 154878, Note_on_c, 0, 36, 60
1, 154879, Note_on_c, 0, 86, 81
1, 154887, Note_on_c, 0, 33, 44
1, 154889, Note_on_c, 0, 93, 74
1, 154890, Note_on_c, 0, 29, 66
1, 154925, Note_off_c, 0, 33, 51
1, 154982, Note_on_c, 0, 89, 77
1, 154982, Note_off_c, 0, 93, 39
1, 154984, Note_off_c, 0, 29, 59
1, 154984, Note_off_c, 0, 36, 60
1, 154988, Note_on_c, 0, 38, 65
1, 154990, Note_on_c, 0, 83, 77
1, 154994, Note_on_c, 0, 35, 37
1, 154998, Note_off_c, 0, 86, 64
1, 155003, Note_off_c, 0, 89, 69
1, 155012, Note_off_c, 0, 83, 71
1, 155019, Note_off_c, 0, 38, 63
1, 155033, Note_off_c, 0, 35, 52
1, 155062, Control_c, 0, 64, 82
1, 155077, Control_c, 0, 64, 0
1, 155117, Note_on_c, 0, 48, 86
1, 155117, Note_on_c, 0, 57, 81
1, 155118, Note_on_c, 0, 62, 91
1, 155127, Note_on_c, 0, 52, 62
1, 155134, Note_on_c, 0, 53, 69
1, 155137, Control_c, 0, 64, 76
1, 155151, Control_c, 0, 64, 119
1, 155166, Control_c, 0, 64, 127
1, 155175, Note_off_c, 0, 57, 62
1, 155184, Note_off_c, 0, 52, 62
1, 155184, Note_off_c, 0, 62, 61
1, 155188, Note_off_c, 0, 53, 64
1, 155203, Note_off_c, 0, 48, 64
1, 155225, Control_c, 0, 64, 91
1, 155233, Note_on_c, 0, 69, 88
1, 155234, Note_on_c, 0, 65, 88
1, 155236, Note_on_c, 0, 74, 88
1, 155240, Control_c, 0, 64, 0
1, 155266, Note_off_c, 0, 65, 64
1, 155271, Note_off_c, 0, 69, 65
1, 155277, Note_off_c, 0, 74, 63
1, 155358, Note_on_c, 0, 59, 94
1, 155362, Note_on_c, 0, 53, 84
1, 155367, Note_on_c, 0, 48, 81
1, 155367, Control_c, 0, 64, 49
1, 155373, Note_on_c, 0, 45, 78
1, 155382, Control_c, 0, 64, 96
1, 155396, Control_c, 0, 64, 127
1, 155397, Note_off_c, 0, 59, 66
1, 155417, Note_off_c, 0, 53, 65
1, 155437, Note_off_c, 0, 48, 64
1, 155452, Note_off_c, 0, 45, 65
1, 155474, Note_on_c, 0, 60, 75
1, 155491, Note_on_c, 0, 71, 72
1, 155494, Note_on_c, 0, 65, 52
1, 155495, Note_on_c, 0, 64, 48
1, 155497, Note_off_c, 0, 60, 69
1, 155512, Note_on_c, 0, 69, 40
1, 155514, Note_off_c, 0, 71, 71
1, 155518, Note_off_c, 0, 65, 59
1, 155520, Note_off_c, 0, 64, 58
1, 155541, Note_off_c, 0, 69, 55
1, 155580, Poly_aftertouch_c, 0, 59, 0
1, 155590, Note_on_c, 0, 35, 78
1, 155593, Note_on_c, 0, 71, 99
1, 155593, Note_on_c, 0, 83, 105
1, 155604, Control_c, 0, 64, 116
1, 155613, Note_off_c, 0, 83, 65
1, 155619, Note_off_c, 0, 35, 66
1, 155619, Control_c, 0, 64, 73
1, 155623, Note_off_c, 0, 71, 70
1, 155634, Control_c, 0, 64, 0
1, 155729, Note_on_c, 0, 52, 82
1, 155736, Note_on_c, 0, 50, 74
1, 155737, Control_c, 0, 64, 64
1, 155744, Note_on_c, 0, 43, 62
1, 155748, Note_on_c, 0, 47, 68
1, 155750, Note_on_c, 0, 45, 61
1, 155752, Control_c, 0, 64, 94
1, 155767, Control_c, 0, 64, 127
1, 155778, Note_off_c, 0, 45, 65
1, 155779, Note_off_c, 0, 43, 64
1, 155779, Note_off_c, 0, 50, 58
1, 155784, Note_off_c, 0, 47, 65
1, 155785, Note_off_c, 0, 52, 62
1, 155836, Note_on_c, 0, 53, 87
1, 155840, Note_on_c, 0, 60, 75
1, 155842, Note_on_c, 0, 64, 80
1, 155845, Note_on_c, 0, 57, 67
1, 155867, Note_off_c, 0, 53, 66
1, 155870, Note_off_c, 0, 60, 66
1, 155873, Note_off_c, 0, 57, 65
1, 155885, Note_off_c, 0, 64, 64
1, 155900, Control_c, 0, 64, 77
1, 155915, Control_c, 0, 64, 0
1, 155922, Poly_aftertouch_c, 0, 56, 0
1, 155949, Note_on_c, 0, 56, 91
1, 155954, Note_on_c, 0, 48, 72
1, 155954, Note_on_c, 0, 53, 87
1, 155956, Note_on_c, 0, 45, 84
1, 156004, Control_c, 0, 64, 79
1, 156013, Note_off_c, 0, 53, 66
1, 156015, Note_off_c, 0, 56, 66
1, 156019, Control_c, 0, 64, 104
1, 156020, Note_off_c, 0, 48, 63
1, 156027, Note_off_c, 0, 45, 66
1, 156034, Control_c, 0, 64, 127
1, 156068, Note_on_c, 0, 57, 80
1, 156070, Note_on_c, 0, 60, 82
1, 156070, Note_on_c, 0, 65, 83
1, 156080, Note_on_c, 0, 68, 85
1, 156097, Note_off_c, 0, 57, 69
1, 156097, Note_off_c, 0, 60, 72
1, 156117, Note_off_c, 0, 65, 63
1, 156118, Note_off_c, 0, 68, 67
1, 156219, Control_c, 0, 64, 85
1, 156229, Note_on_c, 0, 44, 100
1, 156232, Note_on_c, 0, 69, 99
1, 156232, Note_on_c, 0, 72, 93
1, 156234, Note_on_c, 0, 76, 85
1, 156234, Note_on_c, 0, 80, 90
1, 156234, Control_c, 0, 64, 66
1, 156237, Note_on_c, 0, 33, 81
1, 156238, Note_on_c, 0, 41, 86
1, 156240, Note_on_c, 0, 36, 76
1, 156257, Note_on_c, 0, 77, 53
1, 156258, Note_off_c, 0, 77, 127
1, 156260, Note_off_c, 0, 33, 65
1, 156264, Control_c, 0, 64, 79
1, 156268, Note_off_c, 0, 80, 62
1, 156269, Note_off_c, 0, 69, 64
1, 156269, Note_off_c, 0, 72, 66
1, 156272, Note_off_c, 0, 36, 65
1, 156275, Note_off_c, 0, 44, 67
1, 156276, Note_off_c, 0, 41, 64
1, 156276, Note_off_c, 0, 76, 64
1, 156279, Control_c, 0, 64, 124
1, 156293, Control_c, 0, 64, 127
1, 156560, Control_c, 0, 64, 100
1, 156575, Control_c, 0, 64, 81
1, 156590, Control_c, 0, 64, 65
1, 156604, Control_c, 0, 64, 0
1, 156642, Note_on_c, 0, 63, 103
1, 156643, Note_on_c, 0, 60, 100
1, 156643, Note_on_c, 0, 67, 94
1, 156643, Note_on_c, 0, 72, 96
1, 156648, Note_on_c, 0, 58, 95
1, 156650, Note_on_c, 0, 46, 85
1, 156652, Note_on_c, 0, 55, 89
1, 156655, Note_on_c, 0, 51, 87
1, 156675, Note_on_c, 0, 70, 47
1, 156700, Note_off_c, 0, 70, 57
1, 156708, Control_c, 0, 64, 59
1, 156723, Control_c, 0, 64, 77
1, 156733, Note_off_c, 0, 72, 63
1, 156737, Control_c, 0, 64, 98
1, 156746, Note_off_c, 0, 58, 65
1, 156752, Control_c, 0, 64, 127
1, 156774, Note_off_c, 0, 60, 61
1, 156793, Note_off_c, 0, 55, 61
1, 156796, Note_off_c, 0, 46, 60
1, 156812, Note_off_c, 0, 67, 61
1, 156822, Note_off_c, 0, 63, 57
1, 156841, Note_off_c, 0, 51, 61
1, 156842, Poly_aftertouch_c, 0, 70, 127
1, 156872, Poly_aftertouch_c, 0, 70, 0
1, 157034, Note_on_c, 0, 66, 90
1, 157034, Note_on_c, 0, 70, 93
1, 157035, Note_on_c, 0, 61, 93
1, 157036, Note_on_c, 0, 58, 96
1, 157042, Note_on_c, 0, 57, 103
1, 157042, Control_c, 0, 64, 81
1, 157043, Note_on_c, 0, 54, 94
1, 157045, Note_on_c, 0, 49, 90
1, 157047, Note_on_c, 0, 45, 82
1, 157057, Control_c, 0, 64, 0
1, 157078, Note_on_c, 0, 47, 49
1, 157101, Control_c, 0, 64, 47
1, 157110, Note_off_c, 0, 47, 36
1, 157116, Note_off_c, 0, 57, 62
1, 157116, Control_c, 0, 64, 76
1, 157131, Control_c, 0, 64, 101
1, 157138, Note_off_c, 0, 70, 61
1, 157140, Note_off_c, 0, 49, 65
1, 157144, Note_off_c, 0, 58, 54
1, 157146, Control_c, 0, 64, 127
1, 157148, Note_off_c, 0, 45, 59
1, 157150, Note_off_c, 0, 54, 66
1, 157158, Note_off_c, 0, 61, 60
1, 157162, Note_off_c, 0, 66, 60
1, 157324, Control_c, 0, 64, 107
1, 157339, Control_c, 0, 64, 73
1, 157345, Note_on_c, 0, 55, 95
1, 157346, Note_on_c, 0, 60, 86
1, 157346, Note_on_c, 0, 69, 90
1, 157348, Note_on_c, 0, 64, 92
1, 157349, Note_on_c, 0, 57, 93
1, 157351, Note_on_c, 0, 52, 87
1, 157353, Control_c, 0, 64, 0
1, 157355, Note_on_c, 0, 43, 84
1, 157357, Note_on_c, 0, 46, 80
1, 157358, Note_on_c, 0, 48, 86
1, 157398, Control_c, 0, 64, 59
1, 157409, Note_off_c, 0, 55, 64
1, 157413, Note_off_c, 0, 52, 62
1, 157413, Control_c, 0, 64, 81
1, 157420, Note_off_c, 0, 57, 65
1, 157427, Control_c, 0, 64, 127
1, 157432, Note_off_c, 0, 60, 65
1, 157433, Poly_aftertouch_c, 0, 66, 127
1, 157436, Note_on_c, 0, 66, 1
1, 157437, Note_off_c, 0, 48, 64
1, 157450, Note_off_c, 0, 46, 63
1, 157452, Note_off_c, 0, 43, 62
1, 157453, Note_off_c, 0, 64, 64
1, 157468, Note_off_c, 0, 69, 66
1, 157474, Note_off_c, 0, 66, 56
1, 157733, Note_on_c, 0, 97, 81
1, 157735, Note_on_c, 0, 22, 67
1, 157738, Note_on_c, 0, 21, 53
1, 157745, Note_on_c, 0, 28, 56
1, 157758, Note_on_c, 0, 91, 54
1, 157763, Note_on_c, 0, 24, 18
1, 157776, Note_off_c, 0, 97, 66
1, 157779, Note_off_c, 0, 91, 60
1, 157784, Note_off_c, 0, 22, 60
1, 157787, Note_off_c, 0, 21, 45
1, 157789, Note_off_c, 0, 28, 60
1, 157825, Note_off_c, 0, 24, 46
1, 157864, Note_on_c, 0, 96, 62
1, 157866, Note_on_c, 0, 91, 51
1, 157870, Note_on_c, 0, 22, 71
1, 157876, Note_on_c, 0, 93, 63
1, 157884, Note_on_c, 0, 28, 51
1, 157921, Note_off_c, 0, 96, 61
1, 157929, Note_off_c, 0, 93, 48
1, 157939, Note_off_c, 0, 22, 55
1, 157967, Note_off_c, 0, 91, 43
1, 157975, Note_off_c, 0, 28, 30
1, 157982, Note_on_c, 0, 31, 64
1, 157982, Note_on_c, 0, 94, 70
1, 157984, Note_on_c, 0, 88, 71
1, 157992, Note_on_c, 0, 24, 44
1, 158012, Note_off_c, 0, 94, 64
1, 158015, Note_off_c, 0, 88, 62
1, 158016, Note_off_c, 0, 31, 62
1, 158041, Note_off_c, 0, 24, 51
1, 158107, Note_on_c, 0, 31, 65
1, 158110, Note_on_c, 0, 94, 73
1, 158119, Note_on_c, 0, 88, 56
1, 158122, Note_on_c, 0, 24, 53
1, 158132, Note_on_c, 0, 89, 57
1, 158152, Note_off_c, 0, 89, 59
1, 158155, Note_off_c, 0, 94, 62
1, 158158, Note_off_c, 0, 24, 54
1, 158163, Note_on_c, 0, 92, 61
1, 158183, Note_off_c, 0, 31, 59
1, 158188, Note_off_c, 0, 92, 69
1, 158201, Note_off_c, 0, 88, 62
1, 158202, Note_on_c, 0, 84, 57
1, 158216, Note_on_c, 0, 34, 57
1, 158231, Note_off_c, 0, 84, 66
1, 158248, Note_off_c, 0, 34, 61
1, 158270, Poly_aftertouch_c, 0, 91, 0
1, 158284, Note_on_c, 0, 91, 38
1, 158308, Note_on_c, 0, 30, 56
1, 158309, Note_on_c, 0, 88, 73
1, 158311, Note_on_c, 0, 28, 75
1, 158313, Note_on_c, 0, 84, 60
1, 158318, Note_on_c, 0, 34, 75
1, 158350, Note_on_c, 0, 82, 80
1, 158352, Note_off_c, 0, 91, 64
1, 158353, Note_off_c, 0, 84, 50
1, 158354, Note_off_c, 0, 30, 55
1, 158357, Note_on_c, 0, 36, 69
1, 158362, Note_off_c, 0, 34, 63
1, 158365, Note_off_c, 0, 28, 59
1, 158372, Note_off_c, 0, 82, 55
1, 158380, Note_off_c, 0, 88, 61
1, 158392, Note_off_c, 0, 36, 62
1, 158462, Note_on_c, 0, 82, 73
1, 158471, Note_on_c, 0, 88, 82
1, 158472, Note_on_c, 0, 36, 65
1, 158508, Note_on_c, 0, 31, 15
1, 158518, Note_off_c, 0, 36, 59
1, 158534, Poly_aftertouch_c, 0, 33, 127
1, 158536, Note_off_c, 0, 88, 54
1, 158547, Note_off_c, 0, 31, 55
1, 158578, Note_on_c, 0, 34, 73
1, 158579, Note_on_c, 0, 40, 66
1, 158584, Note_on_c, 0, 84, 70
1, 158584, Poly_aftertouch_c, 0, 33, 0
1, 158585, Note_on_c, 0, 79, 76
1, 158603, Note_off_c, 0, 82, 62
1, 158607, Note_off_c, 0, 34, 59
1, 158611, Note_off_c, 0, 40, 64
1, 158612, Note_off_c, 0, 79, 61
1, 158612, Note_off_c, 0, 84, 63
1, 158701, Note_on_c, 0, 40, 57
1, 158703, Note_on_c, 0, 79, 78
1, 158704, Note_on_c, 0, 84, 72
1, 158714, Note_on_c, 0, 35, 58
1, 158742, Note_off_c, 0, 40, 61
1, 158752, Note_off_c, 0, 35, 63
1, 158756, Note_off_c, 0, 84, 60
1, 158797, Note_on_c, 0, 76, 80
1, 158797, Note_on_c, 0, 82, 71
1, 158797, Note_off_c, 0, 79, 58
1, 158831, Note_off_c, 0, 82, 63
1, 158833, Note_off_c, 0, 76, 61
1, 158906, Poly_aftertouch_c, 0, 43, 0
1, 158917, Note_on_c, 0, 76, 91
1, 158917, Note_on_c, 0, 82, 80
1, 158918, Note_on_c, 0, 79, 86
1, 158922, Poly_aftertouch_c, 0, 43, 0
1, 158934, Note_on_c, 0, 38, 72
1, 158934, Note_off_c, 0, 82, 73
1, 158934, Note_on_c, 0, 72, 94
1, 158935, Note_on_c, 0, 46, 82
1, 158956, Note_off_c, 0, 38, 63
1, 158960, Poly_aftertouch_c, 0, 43, 127
1, 158966, Note_off_c, 0, 76, 63
1, 158982, Note_off_c, 0, 79, 61
1, 158988, Note_off_c, 0, 72, 64
1, 158990, Note_off_c, 0, 46, 62
1, 159004, Poly_aftertouch_c, 0, 43, 0
1, 159067, Note_on_c, 0, 72, 80
1, 159078, Note_on_c, 0, 79, 83
1, 159081, Note_on_c, 0, 46, 73
1, 159098, Note_on_c, 0, 40, 55
1, 159124, Note_off_c, 0, 40, 61
1, 159133, Note_off_c, 0, 79, 59
1, 159150, Note_off_c, 0, 46, 60
1, 159152, Note_off_c, 0, 72, 56
1, 159188, Note_on_c, 0, 70, 89
1, 159188, Note_on_c, 0, 76, 81
1, 159195, Note_on_c, 0, 48, 58
1, 159212, Note_on_c, 0, 43, 48
1, 159214, Note_off_c, 0, 70, 63
1, 159219, Note_on_c, 0, 40, 24
1, 159227, Note_off_c, 0, 76, 64
1, 159230, Note_off_c, 0, 48, 65
1, 159238, Note_off_c, 0, 43, 58
1, 159254, Note_off_c, 0, 40, 54
1, 159263, Note_on_c, 0, 47, 2
1, 159274, Note_off_c, 0, 47, 0
1, 159307, Poly_aftertouch_c, 0, 47, 0
1, 159309, Note_on_c, 0, 70, 89
1, 159314, Note_on_c, 0, 76, 86
1, 159328, Note_on_c, 0, 48, 62
1, 159344, Note_on_c, 0, 43, 22
1, 159356, Note_on_c, 0, 50, 18
1, 159363, Note_off_c, 0, 48, 64
1, 159390, Note_off_c, 0, 43, 52
1, 159399, Note_off_c, 0, 50, 53
1, 159411, Note_on_c, 0, 46, 42
1, 159412, Note_on_c, 0, 67, 85
1, 159414, Note_on_c, 0, 72, 81
1, 159421, Note_off_c, 0, 76, 53
1, 159429, Note_off_c, 0, 70, 55
1, 159442, Note_on_c, 0, 52, 38
1, 159442, Note_off_c, 0, 46, 63
1, 159452, Note_off_c, 0, 67, 61
1, 159458, Note_off_c, 0, 72, 59
1, 159473, Note_off_c, 0, 52, 54
1, 159525, Note_on_c, 0, 65, 84
1, 159529, Note_on_c, 0, 53, 57
1, 159537, Note_on_c, 0, 48, 73
1, 159540, Note_on_c, 0, 72, 85
1, 159545, Note_on_c, 0, 67, 62
1, 159545, Note_on_c, 0, 64, 96
1, 159554, Note_on_c, 0, 47, 50
1, 159554, Note_on_c, 0, 69, 90
1, 159566, Note_off_c, 0, 48, 65
1, 159567, Note_on_c, 0, 55, 57
1, 159571, Note_off_c, 0, 67, 37
1, 159572, Note_off_c, 0, 53, 59
1, 159575, Note_off_c, 0, 72, 54
1, 159583, Note_off_c, 0, 47, 61
1, 159591, Note_off_c, 0, 65, 58
1, 159596, Note_off_c, 0, 55, 65
1, 159605, Note_off_c, 0, 69, 63
1, 159609, Note_off_c, 0, 64, 66
1, 159672, Note_on_c, 0, 64, 99
1, 159678, Note_on_c, 0, 55, 62
1, 159680, Note_on_c, 0, 70, 86
1, 159684, Note_on_c, 0, 50, 70
1, 159687, Note_on_c, 0, 52, 51
1, 159712, Note_off_c, 0, 50, 68
1, 159712, Note_off_c, 0, 52, 60
1, 159731, Note_off_c, 0, 55, 62
1, 159751, Note_off_c, 0, 64, 62
1, 159759, Note_off_c, 0, 70, 56
1, 159783, Note_on_c, 0, 63, 100
1, 159784, Note_on_c, 0, 67, 88
1, 159800, Note_on_c, 0, 58, 81
1, 159802, Note_on_c, 0, 51, 70
1, 159833, Note_off_c, 0, 51, 67
1, 159833, Note_off_c, 0, 63, 64
1, 159838, Note_off_c, 0, 67, 62
1, 159849, Note_off_c, 0, 58, 57
1, 159912, Note_on_c, 0, 63, 102
1, 159916, Note_on_c, 0, 67, 98
1, 159929, Note_on_c, 0, 52, 81
1, 159935, Note_on_c, 0, 58, 87
1, 159936, Note_on_c, 0, 53, 81
1, 160028, Note_on_c, 0, 66, 95
1, 160028, Note_on_c, 0, 61, 96
1, 160038, Note_on_c, 0, 55, 97
1, 160039, Note_on_c, 0, 60, 93
1, 160044, Note_off_c, 0, 53, 62
1, 160052, Note_off_c, 0, 67, 65
1, 160057, Note_off_c, 0, 52, 61
1, 160058, Note_off_c, 0, 63, 65
1, 160066, Note_off_c, 0, 58, 66
1, 160073, Note_off_c, 0, 61, 68
1, 160073, Note_off_c, 0, 66, 67
1, 160086, Note_off_c, 0, 60, 67
1, 160097, Note_off_c, 0, 55, 68
1, 160112, Control_c, 0, 64, 81
1, 160127, Control_c, 0, 64, 0
1, 160358, Note_on_c, 0, 43, 89
1, 160358, Note_on_c, 0, 54, 96
1, 160362, Note_on_c, 0, 48, 88
1, 160362, Note_on_c, 0, 52, 93
1, 160443, Note_off_c, 0, 52, 63
1, 160447, Note_off_c, 0, 43, 55
1, 160468, Note_off_c, 0, 54, 61
1, 160469, Note_off_c, 0, 48, 63
1, 160481, Note_on_c, 0, 55, 76
1, 160484, Note_on_c, 0, 66, 72
1, 160508, Note_on_c, 0, 60, 14
1, 160513, Note_off_c, 0, 55, 65
1, 160516, Note_on_c, 0, 64, 29
1, 160517, Note_off_c, 0, 66, 61
1, 160547, Note_off_c, 0, 60, 43
1, 160553, Note_off_c, 0, 64, 45
1, 160614, Note_on_c, 0, 61, 82
1, 160616, Note_on_c, 0, 54, 81
1, 160622, Note_on_c, 0, 58, 68
1, 160623, Note_on_c, 0, 52, 78
1, 160624, Note_on_c, 0, 49, 79
1, 160626, Note_on_c, 0, 46, 76
1, 160644, Note_on_c, 0, 42, 47
1, 160648, Note_on_c, 0, 64, 33
1, 160651, Note_on_c, 0, 63, 38
1, 160651, Note_off_c, 0, 52, 66
1, 160655, Note_off_c, 0, 58, 60
1, 160658, Note_off_c, 0, 49, 65
1, 160667, Note_off_c, 0, 61, 62
1, 160668, Note_off_c, 0, 46, 60
1, 160672, Note_off_c, 0, 54, 64
1, 160672, Note_off_c, 0, 42, 57
1, 160681, Note_off_c, 0, 64, 50
1, 160684, Note_off_c, 0, 63, 49
1, 160732, Note_on_c, 0, 40, 90
1, 160737, Note_on_c, 0, 49, 97
1, 160744, Note_on_c, 0, 43, 76
1, 160744, Note_on_c, 0, 48, 83
1, 160756, Control_c, 0, 64, 64
1, 160771, Control_c, 0, 64, 76
1, 160786, Control_c, 0, 64, 89
1, 160788, Note_off_c, 0, 40, 62
1, 160800, Control_c, 0, 64, 102
1, 160802, Note_off_c, 0, 43, 64
1, 160804, Note_off_c, 0, 48, 63
1, 160815, Control_c, 0, 64, 108
1, 160818, Note_off_c, 0, 49, 55
1, 160830, Control_c, 0, 64, 107
1, 160844, Note_on_c, 0, 55, 62
1, 160845, Control_c, 0, 64, 99
1, 160860, Note_on_c, 0, 60, 78
1, 160861, Note_on_c, 0, 61, 81
1, 160861, Control_c, 0, 64, 85
1, 160875, Control_c, 0, 64, 69
1, 160881, Note_off_c, 0, 55, 66
1, 160889, Note_off_c, 0, 60, 66
1, 160890, Control_c, 0, 64, 0
1, 160906, Note_off_c, 0, 61, 62
1, 160972, Note_on_c, 0, 60, 95
1, 160974, Note_on_c, 0, 61, 103
1, 160976, Note_on_c, 0, 55, 81
1, 160978, Note_on_c, 0, 52, 95
1, 160979, Control_c, 0, 64, 69
1, 160994, Control_c, 0, 64, 87
1, 161009, Control_c, 0, 64, 127
1, 161048, Note_off_c, 0, 60, 63
1, 161064, Note_off_c, 0, 55, 63
1, 161066, Note_off_c, 0, 61, 63
1, 161069, Control_c, 0, 64, 89
1, 161070, Note_off_c, 0, 52, 60
1, 161083, Control_c, 0, 64, 60
1, 161092, Note_on_c, 0, 73, 89
1, 161094, Note_on_c, 0, 64, 82
1, 161098, Control_c, 0, 64, 0
1, 161101, Note_on_c, 0, 67, 68
1, 161125, Note_off_c, 0, 67, 67
1, 161130, Note_off_c, 0, 64, 64
1, 161131, Note_off_c, 0, 73, 62
1, 161214, Note_on_c, 0, 60, 82
1, 161218, Note_on_c, 0, 66, 91
1, 161218, Note_on_c, 0, 58, 82
1, 161219, Note_on_c, 0, 49, 79
1, 161219, Note_on_c, 0, 54, 81
1, 161220, Note_on_c, 0, 61, 93
1, 161224, Note_on_c, 0, 72, 81
1, 161249, Note_off_c, 0, 58, 64
1, 161249, Note_off_c, 0, 60, 63
1, 161260, Note_off_c, 0, 54, 62
1, 161264, Note_off_c, 0, 72, 64
1, 161265, Note_off_c, 0, 49, 61
1, 161268, Note_off_c, 0, 61, 61
1, 161270, Note_off_c, 0, 66, 61
1, 161344, Note_on_c, 0, 58, 100
1, 161346, Note_on_c, 0, 48, 79
1, 161347, Note_on_c, 0, 52, 82
1, 161347, Note_on_c, 0, 55, 84
1, 161357, Control_c, 0, 64, 62
1, 161364, Note_on_c, 0, 50, 67
1, 161372, Control_c, 0, 64, 84
1, 161386, Note_off_c, 0, 48, 62
1, 161387, Control_c, 0, 64, 112
1, 161388, Note_off_c, 0, 50, 63
1, 161390, Note_on_c, 0, 63, 35
1, 161401, Control_c, 0, 64, 127
1, 161403, Note_off_c, 0, 55, 66
1, 161409, Note_off_c, 0, 52, 60
1, 161410, Note_off_c, 0, 58, 60
1, 161423, Note_off_c, 0, 63, 53
1, 161465, Note_on_c, 0, 70, 83
1, 161466, Note_on_c, 0, 64, 75
1, 161483, Note_on_c, 0, 67, 49
1, 161487, Note_off_c, 0, 64, 71
1, 161507, Note_off_c, 0, 67, 58
1, 161513, Note_off_c, 0, 70, 66
1, 161519, Control_c, 0, 64, 87
1, 161534, Control_c, 0, 64, 39
1, 161549, Control_c, 0, 64, 0
1, 161580, Note_on_c, 0, 73, 102
1, 161581, Note_on_c, 0, 67, 89
1, 161588, Note_on_c, 0, 64, 69
1, 161592, Note_on_c, 0, 61, 67
1, 161599, Note_on_c, 0, 60, 71
1, 161608, Control_c, 0, 64, 72
1, 161612, Note_on_c, 0, 63, 32
1, 161613, Note_off_c, 0, 63, 127
1, 161623, Control_c, 0, 64, 102
1, 161634, Note_off_c, 0, 73, 67
1, 161635, Note_off_c, 0, 67, 63
1, 161638, Control_c, 0, 64, 127
1, 161641, Note_off_c, 0, 64, 64
1, 161653, Note_off_c, 0, 61, 57
1, 161662, Note_off_c, 0, 60, 65
1, 161702, Note_on_c, 0, 72, 91
1, 161702, Note_on_c, 0, 85, 85
1, 161705, Note_on_c, 0, 76, 69
1, 161728, Note_off_c, 0, 76, 66
1, 161729, Note_off_c, 0, 85, 64
1, 161738, Note_off_c, 0, 72, 66
1, 161758, Control_c, 0, 64, 112
1, 161763, Note_on_c, 0, 63, 51
1, 161773, Control_c, 0, 64, 75
1, 161788, Control_c, 0, 64, 0
1, 161796, Note_off_c, 0, 63, 64
1, 161822, Note_on_c, 0, 66, 107
1, 161831, Note_on_c, 0, 64, 84
1, 161832, Note_on_c, 0, 58, 82
1, 161835, Note_on_c, 0, 60, 78
1, 161839, Note_on_c, 0, 55, 79
1, 161862, Control_c, 0, 64, 52
1, 161869, Note_off_c, 0, 66, 69
1, 161870, Note_off_c, 0, 64, 63
1, 161877, Control_c, 0, 64, 91
1, 161891, Control_c, 0, 64, 127
1, 161895, Note_off_c, 0, 60, 64
1, 161903, Note_off_c, 0, 58, 63
1, 161907, Note_off_c, 0, 55, 65
1, 161918, Poly_aftertouch_c, 0, 75, 127
1, 161933, Note_on_c, 0, 76, 86
1, 161934, Note_on_c, 0, 67, 85
1, 161938, Note_on_c, 0, 70, 72
1, 161939, Note_on_c, 0, 72, 66
1, 161948, Note_on_c, 0, 78, 75
1, 161955, Note_off_c, 0, 67, 68
1, 161963, Note_off_c, 0, 72, 68
1, 161963, Poly_aftertouch_c, 0, 75, 0
1, 161966, Note_off_c, 0, 70, 63
1, 161984, Note_off_c, 0, 76, 64
1, 161991, Note_off_c, 0, 78, 62
1, 162107, Note_on_c, 0, 82, 103
1, 162109, Note_on_c, 0, 79, 98
1, 162109, Note_on_c, 0, 90, 104
1, 162112, Note_on_c, 0, 42, 99
1, 162116, Note_on_c, 0, 31, 92
1, 162121, Note_on_c, 0, 34, 82
1, 162121, Note_on_c, 0, 37, 57
1, 162124, Note_on_c, 0, 85, 69
1, 162124, Note_off_c, 0, 79, 72
1, 162125, Note_on_c, 0, 40, 69
1, 162136, Note_on_c, 0, 89, 53
1, 162136, Note_off_c, 0, 82, 69
1, 162139, Note_on_c, 0, 81, 56
1, 162141, Note_off_c, 0, 85, 68
1, 162142, Note_off_c, 0, 90, 64
1, 162143, Note_off_c, 0, 31, 65
1, 162147, Note_off_c, 0, 34, 64
1, 162153, Note_off_c, 0, 37, 54
1, 162154, Note_off_c, 0, 40, 65
1, 162154, Note_off_c, 0, 42, 67
1, 162157, Note_off_c, 0, 81, 64
1, 162158, Note_off_c, 0, 89, 59
1, 162161, Note_on_c, 0, 33, 11
1, 162217, Poly_aftertouch_c, 0, 36, 127
1, 162218, Note_off_c, 0, 33, 46
1, 162258, Poly_aftertouch_c, 0, 36, 0
1, 162362, Note_on_c, 0, 55, 56
1, 162374, Note_on_c, 0, 74, 79
1, 162383, Note_on_c, 0, 59, 44
1, 162386, Note_on_c, 0, 79, 69
1, 162389, Note_off_c, 0, 55, 64
1, 162394, Note_on_c, 0, 73, 57
1, 162399, Note_on_c, 0, 60, 38
1, 162401, Note_on_c, 0, 72, 81
1, 162412, Note_off_c, 0, 59, 62
1, 162415, Note_on_c, 0, 76, 64
1, 162426, Note_on_c, 0, 77, 63
1, 162427, Note_off_c, 0, 74, 62
1, 162429, Note_off_c, 0, 79, 55
1, 162431, Note_off_c, 0, 60, 53
1, 162445, Note_off_c, 0, 73, 44
1, 162449, Note_off_c, 0, 77, 60
1, 162462, Note_off_c, 0, 72, 65
1, 162465, Note_off_c, 0, 76, 62
1, 162487, Note_on_c, 0, 58, 64
1, 162500, Note_on_c, 0, 62, 43
1, 162532, Note_on_c, 0, 76, 83
1, 162538, Note_on_c, 0, 72, 81
1, 162543, Note_off_c, 0, 62, 46
1, 162568, Note_off_c, 0, 58, 0
1, 162606, Poly_aftertouch_c, 0, 58, 127
1, 162622, Note_off_c, 0, 72, 62
1, 162640, Note_on_c, 0, 71, 67
1, 162654, Poly_aftertouch_c, 0, 58, 0
1, 162669, Note_on_c, 0, 74, 65
1, 162684, Note_off_c, 0, 76, 61
1, 162694, Note_off_c, 0, 74, 70
1, 162696, Note_on_c, 0, 60, 67
1, 162700, Note_off_c, 0, 71, 65
1, 162729, Note_off_c, 0, 60, 61
1, 162767, Note_on_c, 0, 75, 94
1, 162779, Note_on_c, 0, 71, 85
1, 162836, Note_on_c, 0, 61, 37
1, 162842, Note_off_c, 0, 71, 61
1, 162868, Note_off_c, 0, 61, 53
1, 162874, Note_off_c, 0, 75, 59
1, 162898, Note_on_c, 0, 73, 77
1, 162905, Note_on_c, 0, 69, 69
1, 162907, Note_on_c, 0, 67, 78
1, 162928, Note_off_c, 0, 69, 69
1, 162939, Note_off_c, 0, 67, 61
1, 162950, Note_off_c, 0, 73, 63
1, 162987, Control_c, 0, 64, 105
1, 163002, Control_c, 0, 64, 73
1, 163016, Note_on_c, 0, 61, 100
1, 163017, Control_c, 0, 64, 0
1, 163019, Note_on_c, 0, 52, 88
1, 163021, Note_on_c, 0, 60, 83
1, 163027, Note_on_c, 0, 55, 79
1, 163061, Control_c, 0, 64, 68
1, 163076, Control_c, 0, 64, 76
1, 163087, Note_off_c, 0, 60, 64
1, 163091, Control_c, 0, 64, 71
1, 163092, Note_off_c, 0, 52, 64
1, 163096, Note_off_c, 0, 61, 61
1, 163097, Note_off_c, 0, 55, 63
1, 163105, Control_c, 0, 64, 0
1, 163133, Note_on_c, 0, 64, 80
1, 163137, Note_on_c, 0, 72, 72
1, 163139, Note_on_c, 0, 73, 67
1, 163142, Note_on_c, 0, 67, 60
1, 163161, Note_off_c, 0, 67, 63
1, 163166, Note_off_c, 0, 73, 65
1, 163167, Note_off_c, 0, 64, 63
1, 163173, Note_off_c, 0, 72, 63
1, 163263, Note_on_c, 0, 58, 101
1, 163265, Note_on_c, 0, 55, 91
1, 163270, Control_c, 0, 64, 68
1, 163275, Note_on_c, 0, 52, 79
1, 163275, Note_on_c, 0, 48, 79
1, 163284, Control_c, 0, 64, 110
1, 163299, Control_c, 0, 64, 127
1, 163311, Note_off_c, 0, 58, 67
1, 163314, Note_off_c, 0, 55, 64
1, 163325, Note_off_c, 0, 52, 61
1, 163343, Note_off_c, 0, 48, 64
1, 163358, Poly_aftertouch_c, 0, 64, 127
1, 163361, Note_on_c, 0, 64, 6
1, 163373, Note_on_c, 0, 70, 79
1, 163377, Note_on_c, 0, 60, 65
1, 163402, Note_off_c, 0, 60, 65
1, 163405, Note_off_c, 0, 64, 60
1, 163421, Note_off_c, 0, 70, 63
1, 163487, Note_on_c, 0, 46, 98
1, 163487, Note_on_c, 0, 72, 86
1, 163492, Control_c, 0, 64, 100
1, 163498, Note_on_c, 0, 36, 69
1, 163502, Note_on_c, 0, 74, 77
1, 163507, Note_off_c, 0, 46, 71
1, 163507, Control_c, 0, 64, 63
1, 163512, Note_on_c, 0, 82, 53
1, 163513, Note_off_c, 0, 82, 127
1, 163513, Note_on_c, 0, 84, 54
1, 163514, Note_off_c, 0, 84, 127
1, 163516, Note_on_c, 0, 83, 51
1, 163517, Note_off_c, 0, 83, 127
1, 163517, Note_off_c, 0, 72, 66
1, 163518, Note_off_c, 0, 74, 41
1, 163521, Control_c, 0, 64, 0
1, 163526, Note_off_c, 0, 36, 57
1, 163633, Note_on_c, 0, 54, 105
1, 163641, Note_on_c, 0, 43, 89
1, 163662, Control_c, 0, 64, 80
1, 163677, Control_c, 0, 64, 127
1, 163742, Note_off_c, 0, 54, 58
1, 163761, Note_on_c, 0, 55, 88
1, 163762, Note_on_c, 0, 66, 95
1, 163766, Note_on_c, 0, 60, 80
1, 163781, Control_c, 0, 64, 113
1, 163781, Note_off_c, 0, 43, 56
1, 163789, Note_off_c, 0, 55, 65
1, 163792, Note_off_c, 0, 60, 66
1, 163795, Control_c, 0, 64, 74
1, 163808, Note_off_c, 0, 66, 65
1, 163810, Control_c, 0, 64, 0
1, 163870, Note_on_c, 0, 57, 100
1, 163874, Note_on_c, 0, 52, 94
1, 163880, Note_on_c, 0, 46, 84
1, 163882, Note_on_c, 0, 48, 89
1, 163900, Note_on_c, 0, 49, 50
1, 163914, Control_c, 0, 64, 49
1, 163928, Control_c, 0, 64, 95
1, 163935, Note_off_c, 0, 57, 60
1, 163938, Note_off_c, 0, 49, 31
1, 163942, Note_off_c, 0, 52, 62
1, 163943, Control_c, 0, 64, 127
1, 163966, Note_off_c, 0, 48, 63
1, 163976, Note_off_c, 0, 46, 62
1, 163996, Note_on_c, 0, 64, 86
1, 163998, Note_on_c, 0, 69, 90
1, 163999, Note_on_c, 0, 58, 84
1, 164005, Note_on_c, 0, 60, 62
1, 164018, Note_off_c, 0, 58, 71
1, 164024, Note_on_c, 0, 66, 55
1, 164032, Note_off_c, 0, 60, 67
1, 164041, Note_on_c, 0, 61, 32
1, 164041, Note_off_c, 0, 64, 64
1, 164047, Note_off_c, 0, 69, 67
1, 164050, Note_off_c, 0, 66, 58
1, 164088, Note_off_c, 0, 61, 53
1, 164153, Note_on_c, 0, 81, 100
1, 164155, Note_on_c, 0, 45, 96
1, 164157, Note_on_c, 0, 34, 92
1, 164157, Note_on_c, 0, 76, 99
1, 164158, Note_on_c, 0, 72, 96
1, 164160, Note_on_c, 0, 36, 91
1, 164162, Note_on_c, 0, 70, 93
1, 164165, Note_on_c, 0, 40, 86
1, 164185, Note_off_c, 0, 70, 66
1, 164185, Note_off_c, 0, 81, 68
1, 164187, Note_off_c, 0, 34, 65
1, 164197, Note_off_c, 0, 45, 65
1, 164199, Note_off_c, 0, 72, 68
1, 164203, Note_off_c, 0, 36, 60
1, 164203, Note_off_c, 0, 76, 66
1, 164214, Note_off_c, 0, 40, 64
1, 164232, Poly_aftertouch_c, 0, 73, 127
1, 164261, Poly_aftertouch_c, 0, 73, 0
1, 164589, Control_c, 0, 64, 85
1, 164589, Note_on_c, 0, 68, 100
1, 164591, Note_on_c, 0, 74, 102
1, 164592, Note_on_c, 0, 60, 98
1, 164592, Note_on_c, 0, 65, 102
1, 164593, Note_on_c, 0, 62, 101
1, 164595, Note_on_c, 0, 48, 96
1, 164596, Note_on_c, 0, 51, 92
1, 164596, Note_on_c, 0, 56, 96
1, 164604, Control_c, 0, 64, 29
1, 164618, Control_c, 0, 64, 0
1, 164662, Control_c, 0, 64, 56
1, 164677, Control_c, 0, 64, 80
1, 164685, Note_off_c, 0, 74, 62
1, 164692, Control_c, 0, 64, 127
1, 164695, Note_off_c, 0, 60, 60
1, 164714, Note_off_c, 0, 62, 58
1, 164735, Note_off_c, 0, 48, 36
1, 164748, Note_off_c, 0, 65, 57
1, 164759, Note_off_c, 0, 56, 65
1, 164766, Note_off_c, 0, 51, 61
1, 164777, Note_off_c, 0, 68, 53
1, 164989, Control_c, 0, 64, 94
1, 164993, Note_on_c, 0, 63, 104
1, 164994, Note_on_c, 0, 60, 98
1, 164994, Note_on_c, 0, 66, 102
1, 164994, Note_on_c, 0, 72, 96
1, 164996, Note_on_c, 0, 59, 99
1, 164998, Note_on_c, 0, 47, 94
1, 164998, Note_on_c, 0, 49, 89
1, 164998, Note_on_c, 0, 54, 96
1, 165004, Control_c, 0, 64, 66
1, 165019, Control_c, 0, 64, 0
1, 165071, Note_off_c, 0, 72, 66
1, 165071, Control_c, 0, 64, 69
1, 165086, Control_c, 0, 64, 90
1, 165087, Note_off_c, 0, 59, 62
1, 165087, Note_off_c, 0, 60, 64
1, 165092, Note_off_c, 0, 47, 65
1, 165100, Control_c, 0, 64, 127
1, 165119, Note_off_c, 0, 54, 66
1, 165123, Note_off_c, 0, 63, 60
1, 165126, Note_off_c, 0, 49, 64
1, 165126, Note_off_c, 0, 66, 61
1, 165322, Control_c, 0, 64, 91
1, 165335, Note_on_c, 0, 57, 99
1, 165336, Note_on_c, 0, 65, 90
1, 165337, Note_on_c, 0, 59, 98
1, 165337, Note_on_c, 0, 62, 97
1, 165337, Note_on_c, 0, 71, 95
1, 165337, Control_c, 0, 64, 61
1, 165340, Note_on_c, 0, 53, 95
1, 165343, Note_on_c, 0, 45, 92
1, 165343, Note_on_c, 0, 48, 89
1, 165352, Control_c, 0, 64, 0
1, 165397, Control_c, 0, 64, 69
1, 165412, Note_off_c, 0, 57, 66
1, 165412, Control_c, 0, 64, 110
1, 165421, Note_off_c, 0, 53, 66
1, 165427, Control_c, 0, 64, 127
1, 165427, Note_off_c, 0, 59, 64
1, 165445, Note_off_c, 0, 48, 64
1, 165447, Note_off_c, 0, 62, 60
1, 165454, Note_off_c, 0, 45, 68
1, 165459, Note_off_c, 0, 65, 64
1, 165480, Note_off_c, 0, 71, 66
1, 165726, Note_on_c, 0, 93, 61
1, 165743, Note_on_c, 0, 29, 60
1, 165745, Note_on_c, 0, 24, 64
1, 165746, Note_on_c, 0, 26, 67
1, 165758, Note_on_c, 0, 33, 62
1, 165758, Note_on_c, 0, 95, 79
1, 165762, Note_on_c, 0, 89, 78
1, 165762, Note_on_c, 0, 91, 25
1, 165780, Note_off_c, 0, 29, 57
1, 165785, Note_off_c, 0, 93, 62
1, 165788, Note_off_c, 0, 24, 58
1, 165792, Note_off_c, 0, 26, 60
1, 165799, Note_off_c, 0, 89, 61
1, 165801, Note_off_c, 0, 91, 33
1, 165802, Note_off_c, 0, 33, 60
1, 165805, Note_off_c, 0, 95, 66
1, 165868, Poly_aftertouch_c, 0, 96, 0
1, 165898, Note_on_c, 0, 26, 68
1, 165902, Note_on_c, 0, 33, 63
1, 165905, Note_on_c, 0, 89, 76
1, 165928, Note_on_c, 0, 96, 56
1, 165932, Note_on_c, 0, 95, 49
1, 165967, Note_off_c, 0, 96, 52
1, 165977, Note_off_c, 0, 95, 47
1, 166001, Note_off_c, 0, 26, 52
1, 166006, Note_off_c, 0, 33, 57
1, 166013, Note_on_c, 0, 29, 61
1, 166018, Note_on_c, 0, 93, 67
1, 166020, Note_on_c, 0, 86, 73
1, 166021, Note_on_c, 0, 36, 52
1, 166032, Note_off_c, 0, 89, 61
1, 166046, Note_off_c, 0, 29, 63
1, 166047, Note_off_c, 0, 93, 65
1, 166054, Note_off_c, 0, 86, 63
1, 166056, Note_off_c, 0, 36, 50
1, 166135, Note_on_c, 0, 36, 69
1, 166136, Note_on_c, 0, 29, 65
1, 166139, Note_on_c, 0, 86, 76
1, 166141, Note_on_c, 0, 93, 69
1, 166171, Note_on_c, 0, 91, 50
1, 166172, Note_off_c, 0, 91, 127
1, 166187, Note_off_c, 0, 93, 0
1, 166187, Note_on_c, 0, 93, 14
1, 166232, Note_off_c, 0, 93, 45
1, 166239, Note_off_c, 0, 36, 59
1, 166244, Note_on_c, 0, 83, 74
1, 166246, Note_on_c, 0, 33, 66
1, 166248, Note_on_c, 0, 89, 63
1, 166252, Note_off_c, 0, 29, 60
1, 166256, Note_off_c, 0, 86, 63
1, 166261, Note_on_c, 0, 38, 54
1, 166267, Note_off_c, 0, 89, 63
1, 166272, Note_off_c, 0, 83, 65
1, 166276, Note_off_c, 0, 33, 63
1, 166291, Note_off_c, 0, 38, 57
1, 166352, Note_on_c, 0, 83, 84
1, 166352, Note_on_c, 0, 89, 76
1, 166370, Note_on_c, 0, 41, 78
1, 166373, Note_on_c, 0, 36, 65
1, 166373, Note_on_c, 0, 86, 79
1, 166375, Note_on_c, 0, 33, 34
1, 166380, Note_on_c, 0, 81, 73
1, 166387, Note_on_c, 0, 38, 36
1, 166399, Note_off_c, 0, 89, 62
1, 166401, Note_off_c, 0, 83, 65
1, 166402, Note_off_c, 0, 33, 57
1, 166403, Note_on_c, 0, 79, 36
1, 166404, Note_on_c, 0, 35, 14
1, 166405, Note_on_c, 0, 85, 49
1, 166408, Note_off_c, 0, 41, 63
1, 166409, Note_off_c, 0, 36, 60
1, 166420, Note_off_c, 0, 86, 66
1, 166424, Note_off_c, 0, 81, 64
1, 166428, Note_off_c, 0, 38, 50
1, 166430, Note_off_c, 0, 85, 58
1, 166431, Note_off_c, 0, 79, 56
1, 166447, Note_off_c, 0, 35, 54
1, 166497, Note_on_c, 0, 81, 82
1, 166498, Note_on_c, 0, 36, 71
1, 166500, Note_on_c, 0, 86, 80
1, 166506, Note_on_c, 0, 41, 76
1, 166596, Note_off_c, 0, 41, 59
1, 166611, Note_on_c, 0, 38, 68
1, 166623, Note_on_c, 0, 83, 81
1, 166624, Note_on_c, 0, 45, 69
1, 166625, Note_on_c, 0, 77, 80
1, 166628, Note_off_c, 0, 86, 61
1, 166634, Note_off_c, 0, 36, 0
1, 166643, Note_off_c, 0, 81, 58
1, 166647, Note_off_c, 0, 38, 62
1, 166652, Note_off_c, 0, 45, 65
1, 166658, Note_off_c, 0, 83, 54
1, 166664, Poly_aftertouch_c, 0, 36, 0
1, 166666, Note_off_c, 0, 77, 59
1, 166730, Note_on_c, 0, 45, 76
1, 166732, Note_on_c, 0, 38, 76
1, 166737, Note_on_c, 0, 83, 87
1, 166740, Note_on_c, 0, 77, 83
1, 166815, Note_off_c, 0, 45, 59
1, 166837, Note_on_c, 0, 41, 71
1, 166839, Note_off_c, 0, 83, 57
1, 166840, Note_off_c, 0, 38, 60
1, 166843, Note_on_c, 0, 48, 62
1, 166846, Note_on_c, 0, 74, 80
1, 166849, Note_on_c, 0, 81, 69
1, 166861, Note_off_c, 0, 77, 62
1, 166870, Note_off_c, 0, 41, 60
1, 166872, Note_off_c, 0, 81, 66
1, 166873, Note_off_c, 0, 48, 65
1, 166875, Note_off_c, 0, 74, 64
1, 166939, Note_on_c, 0, 48, 75
1, 166944, Note_on_c, 0, 41, 73
1, 166956, Note_on_c, 0, 74, 88
1, 166960, Note_on_c, 0, 81, 79
1, 166982, Note_on_c, 0, 77, 76
1, 166985, Note_on_c, 0, 71, 87
1, 166993, Note_off_c, 0, 48, 62
1, 166995, Note_on_c, 0, 50, 72
1, 166998, Note_off_c, 0, 81, 55
1, 167005, Note_on_c, 0, 45, 61
1, 167009, Note_off_c, 0, 74, 65
1, 167011, Note_off_c, 0, 41, 62
1, 167031, Note_off_c, 0, 45, 66
1, 167033, Note_off_c, 0, 77, 63
1, 167037, Note_off_c, 0, 50, 65
1, 167037, Note_off_c, 0, 71, 66
1, 167047, Note_on_c, 0, 75, 4
1, 167102, Note_off_c, 0, 75, 50
1, 167104, Note_on_c, 0, 71, 92
1, 167107, Note_on_c, 0, 45, 69
1, 167108, Note_on_c, 0, 77, 87
1, 167117, Note_on_c, 0, 50, 76
1, 167166, Note_off_c, 0, 45, 54
1, 167198, Note_off_c, 0, 50, 59
1, 167206, Note_on_c, 0, 48, 68
1, 167209, Note_on_c, 0, 69, 90
1, 167212, Note_on_c, 0, 53, 82
1, 167212, Note_on_c, 0, 74, 91
1, 167233, Note_off_c, 0, 77, 59
1, 167235, Note_off_c, 0, 71, 64
1, 167244, Note_off_c, 0, 48, 63
1, 167254, Note_off_c, 0, 53, 64
1, 167257, Note_off_c, 0, 69, 66
1, 167257, Poly_aftertouch_c, 0, 45, 127
1, 167260, Note_off_c, 0, 74, 65
1, 167288, Poly_aftertouch_c, 0, 45, 0
1, 167341, Note_on_c, 0, 48, 89
1, 167343, Note_on_c, 0, 53, 86
1, 167344, Note_on_c, 0, 69, 91
1, 167344, Note_on_c, 0, 74, 92
1, 167406, Note_off_c, 0, 74, 60
1, 167421, Note_off_c, 0, 53, 65
1, 167427, Note_off_c, 0, 48, 53
1, 167430, Note_on_c, 0, 50, 76
1, 167440, Note_on_c, 0, 57, 79
1, 167445, Note_on_c, 0, 68, 89
1, 167446, Note_on_c, 0, 72, 73
1, 167450, Note_off_c, 0, 69, 58
1, 167475, Note_off_c, 0, 50, 64
1, 167479, Note_off_c, 0, 57, 61
1, 167481, Note_off_c, 0, 68, 61
1, 167486, Note_off_c, 0, 72, 61
1, 167551, Note_on_c, 0, 57, 80
1, 167553, Note_on_c, 0, 50, 83
1, 167557, Note_on_c, 0, 68, 90
1, 167573, Note_on_c, 0, 72, 67
1, 167575, Note_on_c, 0, 66, 85
1, 167586, Note_on_c, 0, 71, 80
1, 167597, Note_off_c, 0, 57, 63
1, 167603, Note_on_c, 0, 60, 69
1, 167609, Note_on_c, 0, 53, 66
1, 167615, Note_off_c, 0, 50, 66
1, 167626, Note_off_c, 0, 72, 61
1, 167631, Note_off_c, 0, 68, 59
1, 167636, Note_off_c, 0, 53, 67
1, 167645, Note_off_c, 0, 71, 64
1, 167651, Note_off_c, 0, 66, 64
1, 167652, Note_off_c, 0, 60, 65
1, 167692, Poly_aftertouch_c, 0, 70, 0
1, 167698, Note_on_c, 0, 66, 92
1, 167700, Note_on_c, 0, 71, 99
1, 167710, Note_on_c, 0, 53, 89
1, 167720, Note_on_c, 0, 60, 83
1, 167737, Note_on_c, 0, 59, 63
1, 167760, Note_off_c, 0, 59, 37
1, 167768, Note_off_c, 0, 53, 59
1, 167784, Note_off_c, 0, 60, 53
1, 167785, Note_off_c, 0, 71, 58
1, 167785, Note_off_c, 0, 66, 61
1, 167812, Note_on_c, 0, 62, 88
1, 167816, Note_on_c, 0, 65, 97
1, 167817, Note_on_c, 0, 69, 92
1, 167819, Note_on_c, 0, 57, 78
1, 167848, Note_off_c, 0, 57, 60
1, 167855, Note_on_c, 0, 66, 9
1, 167865, Note_off_c, 0, 62, 63
1, 167867, Note_off_c, 0, 65, 65
1, 167877, Note_off_c, 0, 69, 63
1, 167901, Note_off_c, 0, 66, 53
1, 167912, Poly_aftertouch_c, 0, 71, 0
1, 167929, Note_on_c, 0, 57, 103
1, 167929, Note_on_c, 0, 69, 94
1, 167931, Note_on_c, 0, 65, 104
1, 167932, Note_on_c, 0, 62, 94
1, 167970, Control_c, 0, 64, 95
1, 167984, Control_c, 0, 64, 66
1, 167999, Control_c, 0, 64, 0
1, 168071, Note_on_c, 0, 63, 98
1, 168073, Note_on_c, 0, 68, 97
1, 168078, Note_on_c, 0, 60, 98
1, 168105, Note_off_c, 0, 62, 59
1, 168113, Note_off_c, 0, 69, 64
1, 168121, Note_off_c, 0, 57, 65
1, 168129, Note_off_c, 0, 63, 66
1, 168136, Note_off_c, 0, 68, 69
1, 168151, Note_off_c, 0, 60, 67
1, 168154, Note_off_c, 0, 65, 65
1, 168381, Note_on_c, 0, 62, 93
1, 168383, Note_on_c, 0, 67, 97
1, 168384, Note_on_c, 0, 65, 93
1, 168386, Note_on_c, 0, 58, 91
1, 168422, Control_c, 0, 64, 71
1, 168436, Control_c, 0, 64, 76
1, 168451, Control_c, 0, 64, 68
1, 168466, Control_c, 0, 64, 0
1, 168479, Note_off_c, 0, 65, 64
1, 168487, Note_off_c, 0, 67, 62
1, 168489, Note_off_c, 0, 62, 65
1, 168498, Note_on_c, 0, 70, 81
1, 168500, Note_on_c, 0, 74, 75
1, 168504, Note_on_c, 0, 79, 68
1, 168506, Note_on_c, 0, 77, 66
1, 168509, Note_off_c, 0, 58, 63
1, 168524, Note_off_c, 0, 74, 70
1, 168531, Note_off_c, 0, 77, 68
1, 168533, Note_off_c, 0, 70, 64
1, 168539, Note_off_c, 0, 79, 57
1, 168628, Note_on_c, 0, 65, 74
1, 168631, Note_on_c, 0, 63, 68
1, 168631, Note_on_c, 0, 77, 64
1, 168634, Note_on_c, 0, 55, 65
1, 168634, Note_on_c, 0, 71, 67
1, 168637, Note_on_c, 0, 67, 70
1, 168646, Note_on_c, 0, 59, 45
1, 168652, Note_off_c, 0, 65, 69
1, 168655, Note_on_c, 0, 75, 35
1, 168658, Note_off_c, 0, 63, 66
1, 168662, Note_off_c, 0, 71, 66
1, 168665, Note_off_c, 0, 67, 64
1, 168670, Note_off_c, 0, 55, 65
1, 168671, Note_off_c, 0, 59, 56
1, 168683, Note_off_c, 0, 77, 59
1, 168687, Note_off_c, 0, 75, 53
1, 168755, Note_on_c, 0, 62, 74
1, 168756, Note_on_c, 0, 53, 73
1, 168759, Note_on_c, 0, 58, 68
1, 168765, Note_on_c, 0, 61, 68
1, 168823, Note_off_c, 0, 53, 65
1, 168838, Note_off_c, 0, 58, 63
1, 168842, Note_off_c, 0, 61, 62
1, 168843, Note_off_c, 0, 62, 61
1, 168876, Note_on_c, 0, 65, 73
1, 168879, Note_on_c, 0, 74, 75
1, 168880, Note_on_c, 0, 70, 63
1, 168885, Note_on_c, 0, 73, 64
1, 168900, Note_off_c, 0, 65, 69
1, 168907, Note_off_c, 0, 70, 65
1, 168911, Note_off_c, 0, 74, 65
1, 168912, Note_off_c, 0, 73, 66
1, 169013, Note_on_c, 0, 67, 78
1, 169013, Note_on_c, 0, 58, 77
1, 169013, Note_on_c, 0, 65, 69
1, 169015, Note_on_c, 0, 62, 76
1, 169090, Note_off_c, 0, 65, 63
1, 169097, Note_off_c, 0, 62, 62
1, 169097, Note_off_c, 0, 67, 60
1, 169109, Note_off_c, 0, 58, 60
1, 169117, Note_on_c, 0, 70, 72
1, 169118, Note_on_c, 0, 79, 66
1, 169121, Note_on_c, 0, 74, 59
1, 169133, Note_on_c, 0, 77, 45
1, 169138, Note_off_c, 0, 70, 68
1, 169141, Note_off_c, 0, 74, 64
1, 169146, Note_off_c, 0, 79, 63
1, 169160, Note_off_c, 0, 77, 57
1, 169236, Note_on_c, 0, 77, 71
1, 169242, Note_on_c, 0, 65, 66
1, 169242, Note_on_c, 0, 71, 73
1, 169245, Note_on_c, 0, 55, 64
1, 169248, Note_on_c, 0, 63, 63
1, 169256, Note_on_c, 0, 67, 64
1, 169269, Note_off_c, 0, 65, 67
1, 169273, Note_off_c, 0, 71, 64
1, 169277, Note_off_c, 0, 63, 65
1, 169284, Note_off_c, 0, 55, 64
1, 169285, Note_off_c, 0, 67, 66
1, 169299, Note_off_c, 0, 77, 61
1, 169362, Note_on_c, 0, 62, 73
1, 169366, Note_on_c, 0, 53, 65
1, 169366, Note_on_c, 0, 58, 73
1, 169367, Note_on_c, 0, 61, 66
1, 169409, Note_off_c, 0, 53, 62
1, 169415, Note_off_c, 0, 61, 59
1, 169422, Note_off_c, 0, 58, 63
1, 169424, Note_off_c, 0, 62, 61
1, 169470, Note_on_c, 0, 65, 76
1, 169474, Note_on_c, 0, 70, 66
1, 169475, Note_on_c, 0, 74, 69
1, 169475, Note_on_c, 0, 73, 73
1, 169481, Control_c, 0, 64, 19
1, 169493, Note_off_c, 0, 65, 70
1, 169496, Control_c, 0, 64, 26
1, 169501, Note_off_c, 0, 70, 68
1, 169502, Note_off_c, 0, 74, 68
1, 169505, Note_off_c, 0, 73, 64
1, 169511, Control_c, 0, 64, 0
1, 169592, Control_c, 0, 64, 51
1, 169596, Note_on_c, 0, 68, 104
1, 169604, Note_on_c, 0, 57, 89
1, 169605, Note_on_c, 0, 60, 77
1, 169606, Note_on_c, 0, 65, 84
1, 169607, Control_c, 0, 64, 71
1, 169622, Control_c, 0, 64, 87
1, 169638, Control_c, 0, 64, 127
1, 169660, Note_off_c, 0, 65, 63
1, 169660, Note_off_c, 0, 68, 68
1, 169681, Note_off_c, 0, 60, 65
1, 169686, Note_off_c, 0, 57, 62
1, 169718, Note_on_c, 0, 80, 75
1, 169722, Note_on_c, 0, 77, 73
1, 169723, Note_on_c, 0, 69, 76
1, 169728, Note_on_c, 0, 72, 62
1, 169747, Note_off_c, 0, 80, 62
1, 169751, Note_off_c, 0, 77, 61
1, 169753, Note_off_c, 0, 72, 69
1, 169767, Note_off_c, 0, 69, 60
1, 169786, Control_c, 0, 64, 101
1, 169801, Control_c, 0, 64, 76
1, 169816, Control_c, 0, 64, 0
1, 169848, Note_on_c, 0, 60, 97
1, 169856, Note_on_c, 0, 53, 84
1, 169859, Note_on_c, 0, 50, 82
1, 169860, Note_on_c, 0, 57, 83
1, 169870, Poly_aftertouch_c, 0, 56, 0
1, 169875, Control_c, 0, 64, 46
1, 169889, Control_c, 0, 64, 67
1, 169904, Control_c, 0, 64, 76
1, 169906, Note_off_c, 0, 60, 63
1, 169919, Control_c, 0, 64, 90
1, 169925, Note_off_c, 0, 57, 61
1, 169934, Control_c, 0, 64, 114
1, 169937, Note_off_c, 0, 53, 66
1, 169949, Note_off_c, 0, 50, 66
1, 169949, Control_c, 0, 64, 127
1, 169974, Note_on_c, 0, 69, 83
1, 169974, Note_on_c, 0, 72, 84
1, 169976, Note_on_c, 0, 62, 74
1, 169977, Note_on_c, 0, 65, 75
1, 170000, Note_off_c, 0, 62, 66
1, 170000, Note_off_c, 0, 65, 70
1, 170015, Note_off_c, 0, 69, 65
1, 170018, Note_off_c, 0, 72, 66
1, 170146, Note_on_c, 0, 81, 101
1, 170147, Note_on_c, 0, 74, 105
1, 170147, Note_on_c, 0, 77, 100
1, 170147, Note_on_c, 0, 84, 101
1, 170151, Note_on_c, 0, 41, 97
1, 170151, Note_on_c, 0, 48, 97
1, 170153, Note_on_c, 0, 45, 92
1, 170155, Note_on_c, 0, 38, 89
1, 170163, Note_off_c, 0, 74, 74
1, 170169, Note_off_c, 0, 77, 65
1, 170171, Note_off_c, 0, 48, 70
1, 170175, Note_off_c, 0, 45, 72
1, 170175, Note_off_c, 0, 81, 69
1, 170175, Note_off_c, 0, 84, 69
1, 170183, Note_off_c, 0, 38, 68
1, 170186, Note_on_c, 0, 83, 30
1, 170187, Note_off_c, 0, 83, 127
1, 170187, Note_off_c, 0, 41, 66
1, 170405, Note_on_c, 0, 93, 86
1, 170414, Note_on_c, 0, 23, 52
1, 170418, Note_on_c, 0, 26, 66
1, 170423, Note_on_c, 0, 98, 71
1, 170425, Note_on_c, 0, 29, 51
1, 170437, Note_on_c, 0, 95, 73
1, 170438, Note_on_c, 0, 96, 68
1, 170439, Note_on_c, 0, 89, 74
1, 170447, Note_off_c, 0, 98, 71
1, 170462, Note_off_c, 0, 29, 54
1, 170462, Note_off_c, 0, 93, 63
1, 170462, Note_off_c, 0, 96, 68
1, 170462, Note_off_c, 0, 23, 47
1, 170463, Note_off_c, 0, 26, 62
1, 170483, Note_off_c, 0, 95, 65
1, 170485, Note_off_c, 0, 89, 61
1, 170508, Poly_aftertouch_c, 0, 24, 127
1, 170542, Note_on_c, 0, 89, 81
1, 170545, Poly_aftertouch_c, 0, 24, 0
1, 170552, Note_on_c, 0, 95, 81
1, 170557, Note_on_c, 0, 26, 47
1, 170562, Note_on_c, 0, 35, 46
1, 170563, Note_on_c, 0, 33, 45
1, 170583, Note_on_c, 0, 28, 36
1, 170593, Note_off_c, 0, 26, 51
1, 170605, Note_off_c, 0, 35, 48
1, 170608, Note_off_c, 0, 33, 55
1, 170623, Note_off_c, 0, 95, 57
1, 170631, Note_off_c, 0, 28, 45
1, 170657, Note_on_c, 0, 31, 69
1, 170660, Note_on_c, 0, 86, 81
1, 170660, Note_on_c, 0, 93, 87
1, 170668, Note_on_c, 0, 36, 66
1, 170680, Note_off_c, 0, 89, 58
1, 170703, Note_off_c, 0, 36, 61
1, 170704, Note_off_c, 0, 31, 61
1, 170706, Note_off_c, 0, 93, 65
1, 170709, Note_off_c, 0, 86, 65
1, 170779, Note_on_c, 0, 86, 85
1, 170781, Note_on_c, 0, 36, 57
1, 170786, Note_on_c, 0, 93, 82
1, 170786, Note_on_c, 0, 29, 71
1, 170799, Note_on_c, 0, 33, 52
1, 170870, Note_off_c, 0, 93, 60
1, 170870, Note_off_c, 0, 29, 56
1, 170872, Note_off_c, 0, 33, 58
1, 170874, Note_off_c, 0, 36, 59
1, 170875, Poly_aftertouch_c, 0, 35, 127
1, 170879, Note_on_c, 0, 84, 77
1, 170886, Note_off_c, 0, 86, 64
1, 170888, Note_on_c, 0, 38, 44
1, 170897, Poly_aftertouch_c, 0, 35, 0
1, 170898, Note_off_c, 0, 84, 72
1, 170911, Note_off_c, 0, 38, 61
1, 170995, Control_c, 0, 64, 82
1, 171004, Note_on_c, 0, 61, 90
1, 171010, Control_c, 0, 64, 0
1, 171022, Note_on_c, 0, 51, 81
1, 171024, Note_on_c, 0, 64, 79
1, 171025, Note_on_c, 0, 62, 77
1, 171058, Note_on_c, 0, 57, 54
1, 171075, Note_on_c, 0, 56, 31
1, 171095, Note_off_c, 0, 61, 64
1, 171096, Note_off_c, 0, 57, 64
1, 171105, Note_off_c, 0, 64, 64
1, 171105, Note_off_c, 0, 56, 51
1, 171108, Note_off_c, 0, 62, 61
1, 171132, Note_off_c, 0, 51, 61
1, 171139, Note_on_c, 0, 63, 74
1, 171140, Note_on_c, 0, 68, 73
1, 171144, Note_on_c, 0, 72, 66
1, 171144, Note_on_c, 0, 74, 67
1, 171163, Note_off_c, 0, 63, 69
1, 171168, Note_off_c, 0, 68, 63
1, 171171, Note_off_c, 0, 74, 70
1, 171171, Note_off_c, 0, 72, 66
1, 171248, Note_on_c, 0, 58, 58
1, 171265, Note_on_c, 0, 60, 74
1, 171273, Note_on_c, 0, 66, 72
1, 171275, Note_on_c, 0, 72, 63
1, 171278, Note_on_c, 0, 62, 64
1, 171281, Note_off_c, 0, 58, 63
1, 171283, Note_on_c, 0, 54, 50
1, 171290, Note_off_c, 0, 60, 67
1, 171293, Note_on_c, 0, 50, 27
1, 171299, Note_off_c, 0, 66, 65
1, 171305, Note_off_c, 0, 72, 63
1, 171307, Note_off_c, 0, 62, 64
1, 171311, Note_off_c, 0, 54, 58
1, 171333, Note_off_c, 0, 50, 48
1, 171387, Note_on_c, 0, 48, 72
1, 171397, Note_on_c, 0, 56, 62
1, 171407, Note_on_c, 0, 59, 51
1, 171413, Note_on_c, 0, 53, 61
1, 171415, Note_on_c, 0, 57, 55
1, 171448, Control_c, 0, 64, 56
1, 171448, Note_off_c, 0, 56, 59
1, 171457, Note_off_c, 0, 48, 63
1, 171462, Control_c, 0, 64, 65
1, 171464, Note_off_c, 0, 53, 65
1, 171471, Note_off_c, 0, 57, 57
1, 171477, Note_off_c, 0, 59, 57
1, 171477, Control_c, 0, 64, 70
1, 171492, Control_c, 0, 64, 75
1, 171504, Note_on_c, 0, 60, 71
1, 171507, Note_on_c, 0, 69, 65
1, 171507, Control_c, 0, 64, 79
1, 171508, Note_on_c, 0, 68, 72
1, 171522, Control_c, 0, 64, 83
1, 171528, Note_on_c, 0, 65, 33
1, 171528, Note_off_c, 0, 60, 68
1, 171536, Control_c, 0, 64, 86
1, 171537, Note_off_c, 0, 68, 65
1, 171537, Note_off_c, 0, 69, 65
1, 171551, Control_c, 0, 64, 87
1, 171562, Note_off_c, 0, 65, 50
1, 171566, Control_c, 0, 64, 84
1, 171581, Control_c, 0, 64, 74
1, 171596, Control_c, 0, 64, 56
1, 171610, Control_c, 0, 64, 0
1, 171619, Note_on_c, 0, 60, 55
1, 171637, Note_on_c, 0, 56, 79
1, 171639, Note_on_c, 0, 51, 76
1, 171639, Note_on_c, 0, 62, 79
1, 171669, Control_c, 0, 64, 48
1, 171684, Control_c, 0, 64, 65
1, 171699, Control_c, 0, 64, 69
1, 171728, Control_c, 0, 64, 64
1, 171729, Note_off_c, 0, 60, 62
1, 171732, Note_off_c, 0, 56, 61
1, 171743, Note_off_c, 0, 51, 60
1, 171743, Control_c, 0, 64, 26
1, 171749, Note_on_c, 0, 74, 71
1, 171749, Note_on_c, 0, 68, 70
1, 171750, Note_on_c, 0, 63, 72
1, 171750, Note_off_c, 0, 62, 61
1, 171756, Note_on_c, 0, 72, 63
1, 171758, Control_c, 0, 64, 0
1, 171779, Note_off_c, 0, 68, 64
1, 171780, Note_off_c, 0, 63, 65
1, 171781, Note_off_c, 0, 72, 69
1, 171785, Note_off_c, 0, 74, 61
1, 171861, Note_on_c, 0, 59, 76
1, 171880, Note_on_c, 0, 50, 64
1, 171880, Note_on_c, 0, 72, 71
1, 171883, Note_on_c, 0, 60, 58
1, 171884, Note_on_c, 0, 54, 57
1, 171886, Note_on_c, 0, 66, 74
1, 171889, Note_on_c, 0, 62, 73
1, 171906, Note_off_c, 0, 59, 59
1, 171908, Note_off_c, 0, 60, 58
1, 171914, Note_off_c, 0, 54, 65
1, 171918, Note_off_c, 0, 62, 64
1, 171921, Note_off_c, 0, 66, 60
1, 171922, Note_off_c, 0, 50, 67
1, 171936, Note_off_c, 0, 72, 63
1, 172003, Note_on_c, 0, 57, 79
1, 172003, Control_c, 0, 64, 56
1, 172009, Note_on_c, 0, 48, 66
1, 172010, Note_on_c, 0, 56, 74
1, 172015, Note_on_c, 0, 53, 68
1, 172018, Control_c, 0, 64, 68
1, 172033, Control_c, 0, 64, 76
1, 172048, Control_c, 0, 64, 83
1, 172063, Control_c, 0, 64, 87
1, 172069, Note_off_c, 0, 48, 61
1, 172078, Note_off_c, 0, 56, 60
1, 172089, Note_off_c, 0, 53, 58
1, 172092, Note_off_c, 0, 57, 51
1, 172107, Control_c, 0, 64, 85
1, 172122, Control_c, 0, 64, 81
1, 172124, Note_on_c, 0, 60, 73
1, 172126, Note_on_c, 0, 68, 70
1, 172126, Note_on_c, 0, 69, 67
1, 172129, Note_on_c, 0, 65, 61
1, 172137, Control_c, 0, 64, 75
1, 172152, Control_c, 0, 64, 66
1, 172154, Note_off_c, 0, 68, 65
1, 172155, Note_off_c, 0, 60, 64
1, 172157, Note_off_c, 0, 69, 65
1, 172158, Note_off_c, 0, 65, 66
1, 172167, Control_c, 0, 64, 0
1, 172241, Note_on_c, 0, 55, 73
1, 172241, Note_on_c, 0, 57, 71
1, 172244, Note_on_c, 0, 53, 62
1, 172245, Note_on_c, 0, 47, 69
1, 172249, Note_on_c, 0, 50, 67
1, 172285, Control_c, 0, 64, 62
1, 172300, Control_c, 0, 64, 68
1, 172301, Note_off_c, 0, 47, 63
1, 172314, Note_off_c, 0, 50, 65
1, 172315, Control_c, 0, 64, 72
1, 172320, Note_off_c, 0, 53, 65
1, 172322, Note_off_c, 0, 55, 58
1, 172330, Control_c, 0, 64, 75
1, 172337, Note_off_c, 0, 57, 60
1, 172345, Control_c, 0, 64, 79
1, 172348, Note_on_c, 0, 62, 70
1, 172351, Note_on_c, 0, 59, 71
1, 172351, Note_on_c, 0, 67, 79
1, 172354, Note_on_c, 0, 69, 78
1, 172354, Note_on_c, 0, 65, 80
1, 172359, Control_c, 0, 64, 83
1, 172369, Note_off_c, 0, 59, 65
1, 172374, Control_c, 0, 64, 89
1, 172378, Note_off_c, 0, 62, 66
1, 172389, Control_c, 0, 64, 96
1, 172390, Note_off_c, 0, 65, 63
1, 172397, Note_off_c, 0, 67, 64
1, 172401, Note_off_c, 0, 69, 65
1, 172403, Control_c, 0, 64, 104
1, 172418, Control_c, 0, 64, 116
1, 172433, Control_c, 0, 64, 127
1, 172477, Note_on_c, 0, 74, 95
1, 172478, Note_on_c, 0, 71, 93
1, 172479, Note_on_c, 0, 77, 87
1, 172482, Note_on_c, 0, 79, 85
1, 172483, Note_on_c, 0, 81, 85
1, 172496, Note_off_c, 0, 71, 70
1, 172520, Note_off_c, 0, 74, 67
1, 172541, Note_off_c, 0, 77, 67
1, 172542, Note_off_c, 0, 79, 64
1, 172555, Note_off_c, 0, 81, 64
1, 172596, Note_on_c, 0, 69, 100
1, 172597, Note_on_c, 0, 59, 94
1, 172597, Note_on_c, 0, 67, 100
1, 172602, Note_on_c, 0, 62, 77
1, 172603, Note_on_c, 0, 65, 77
1, 172723, Note_on_c, 0, 83, 106
1, 172726, Note_on_c, 0, 86, 100
1, 172727, Note_on_c, 0, 93, 102
1, 172729, Note_on_c, 0, 91, 99
1, 172730, Note_on_c, 0, 89, 99
1, 172738, Poly_aftertouch_c, 0, 85, 0
1, 172752, Note_off_c, 0, 83, 70
1, 172757, Note_off_c, 0, 93, 67
1, 172758, Note_off_c, 0, 86, 72
1, 172758, Note_off_c, 0, 91, 71
1, 172763, Note_off_c, 0, 89, 68
1, 172788, Note_off_c, 0, 67, 60
1, 172790, Note_off_c, 0, 69, 63
1, 172799, Note_off_c, 0, 65, 64
1, 172805, Note_off_c, 0, 62, 62
1, 172819, Note_off_c, 0, 59, 65
1, 172983, Note_on_c, 0, 71, 81
1, 172984, Note_on_c, 0, 50, 67
1, 172992, Note_on_c, 0, 76, 77
1, 172996, Note_on_c, 0, 55, 50
1, 173010, Note_on_c, 0, 69, 78
1, 173013, Note_on_c, 0, 74, 83
1, 173019, Note_on_c, 0, 53, 64
1, 173033, Note_off_c, 0, 55, 63
1, 173037, Note_on_c, 0, 59, 65
1, 173043, Note_off_c, 0, 71, 66
1, 173046, Note_off_c, 0, 50, 65
1, 173046, Note_off_c, 0, 76, 61
1, 173056, Note_off_c, 0, 69, 63
1, 173067, Note_off_c, 0, 74, 65
1, 173069, Note_off_c, 0, 53, 65
1, 173072, Note_off_c, 0, 59, 60
1, 173135, Note_on_c, 0, 74, 87
1, 173136, Note_on_c, 0, 69, 90
1, 173149, Note_on_c, 0, 55, 62
1, 173154, Note_on_c, 0, 53, 62
1, 173185, Note_off_c, 0, 53, 67
1, 173186, Note_off_c, 0, 55, 65
1, 173188, Note_on_c, 0, 59, 44
1, 173190, Note_on_c, 0, 60, 38
1, 173207, Note_off_c, 0, 59, 63
1, 173222, Note_off_c, 0, 60, 55
1, 173249, Note_on_c, 0, 65, 85
1, 173249, Note_on_c, 0, 71, 86
1, 173250, Note_off_c, 0, 74, 39
1, 173252, Note_on_c, 0, 62, 76
1, 173276, Note_off_c, 0, 69, 61
1, 173285, Note_on_c, 0, 55, 47
1, 173303, Note_off_c, 0, 62, 63
1, 173303, Note_off_c, 0, 71, 64
1, 173305, Note_off_c, 0, 65, 64
1, 173316, Note_off_c, 0, 55, 59
1, 173377, Note_on_c, 0, 55, 78
1, 173386, Note_on_c, 0, 65, 95
1, 173386, Note_on_c, 0, 62, 49
1, 173387, Note_on_c, 0, 71, 87
1, 173401, Note_off_c, 0, 55, 69
1, 173407, Note_off_c, 0, 62, 64
1, 173426, Note_on_c, 0, 69, 32
1, 173427, Note_off_c, 0, 69, 127
1, 173457, Note_off_c, 0, 71, 59
1, 173469, Poly_aftertouch_c, 0, 60, 0
1, 173470, Control_c, 0, 64, 98
1, 173485, Control_c, 0, 64, 73
1, 173494, Note_on_c, 0, 62, 69
1, 173499, Note_on_c, 0, 69, 73
1, 173500, Control_c, 0, 64, 0
1, 173510, Note_off_c, 0, 65, 59
1, 173541, Note_off_c, 0, 69, 63
1, 173544, Note_off_c, 0, 62, 62
1, 173602, Note_on_c, 0, 55, 96
1, 173603, Note_on_c, 0, 46, 99
1, 173606, Note_on_c, 0, 57, 92
1, 173609, Note_on_c, 0, 52, 85
1, 173613, Note_on_c, 0, 48, 86
1, 173618, Control_c, 0, 64, 72
1, 173634, Control_c, 0, 64, 103
1, 173648, Control_c, 0, 64, 127
1, 173651, Note_off_c, 0, 52, 59
1, 173661, Note_off_c, 0, 46, 66
1, 173666, Note_off_c, 0, 48, 59
1, 173675, Note_off_c, 0, 55, 61
1, 173677, Note_off_c, 0, 57, 67
1, 173731, Note_on_c, 0, 58, 80
1, 173731, Note_on_c, 0, 60, 68
1, 173743, Note_on_c, 0, 68, 49
1, 173745, Note_on_c, 0, 69, 75
1, 173748, Note_on_c, 0, 67, 67
1, 173749, Note_on_c, 0, 64, 60
1, 173758, Note_off_c, 0, 60, 68
1, 173774, Note_off_c, 0, 68, 63
1, 173780, Note_off_c, 0, 64, 66
1, 173780, Note_off_c, 0, 67, 64
1, 173782, Control_c, 0, 64, 87
1, 173785, Note_off_c, 0, 69, 64
1, 173797, Control_c, 0, 64, 57
1, 173797, Note_off_c, 0, 58, 53
1, 173812, Control_c, 0, 64, 0
1, 173851, Note_on_c, 0, 60, 104
1, 173854, Note_on_c, 0, 58, 92
1, 173857, Note_on_c, 0, 49, 89
1, 173857, Note_on_c, 0, 54, 91
1, 173901, Control_c, 0, 64, 77
1, 173905, Note_off_c, 0, 60, 65
1, 173912, Note_off_c, 0, 58, 66
1, 173916, Control_c, 0, 64, 127
1, 173926, Note_off_c, 0, 54, 66
1, 173940, Note_off_c, 0, 49, 65
1, 173967, Note_on_c, 0, 70, 66
1, 173970, Note_on_c, 0, 66, 75
1, 173976, Note_on_c, 0, 61, 83
1, 173977, Note_on_c, 0, 72, 81
1, 173997, Note_off_c, 0, 61, 68
1, 174019, Note_off_c, 0, 66, 63
1, 174019, Note_off_c, 0, 72, 67
1, 174026, Note_off_c, 0, 70, 64
1, 174145, Note_on_c, 0, 78, 105
1, 174147, Note_on_c, 0, 73, 100
1, 174149, Note_on_c, 0, 48, 93
1, 174149, Note_on_c, 0, 37, 88
1, 174149, Note_on_c, 0, 82, 96
1, 174150, Note_on_c, 0, 84, 93
1, 174151, Note_on_c, 0, 42, 91
1, 174152, Note_on_c, 0, 46, 87
1, 174164, Note_off_c, 0, 73, 72
1, 174166, Note_off_c, 0, 84, 75
1, 174176, Note_off_c, 0, 37, 69
1, 174178, Note_off_c, 0, 46, 67
1, 174178, Note_off_c, 0, 78, 68
1, 174182, Note_off_c, 0, 42, 67
1, 174186, Note_off_c, 0, 82, 62
1, 174189, Note_off_c, 0, 48, 64
1, 174355, Note_on_c, 0, 51, 81
1, 174355, Note_on_c, 0, 81, 83
1, 174359, Note_on_c, 0, 75, 81
1, 174366, Note_on_c, 0, 58, 60
1, 174373, Note_on_c, 0, 60, 71
1, 174387, Note_on_c, 0, 73, 83
1, 174390, Note_on_c, 0, 78, 85
1, 174407, Note_off_c, 0, 58, 63
1, 174414, Note_off_c, 0, 81, 62
1, 174417, Note_off_c, 0, 51, 65
1, 174435, Poly_aftertouch_c, 0, 50, 127
1, 174438, Note_on_c, 0, 50, 3
1, 174438, Note_off_c, 0, 60, 63
1, 174442, Note_off_c, 0, 75, 62
1, 174451, Note_off_c, 0, 73, 63
1, 174457, Note_off_c, 0, 78, 63
1, 174477, Note_off_c, 0, 50, 57
1, 174504, Note_on_c, 0, 60, 80
1, 174514, Note_on_c, 0, 52, 78
1, 174516, Note_on_c, 0, 78, 84
1, 174520, Note_on_c, 0, 73, 95
1, 174546, Note_off_c, 0, 52, 65
1, 174551, Note_on_c, 0, 79, 54
1, 174572, Note_off_c, 0, 60, 62
1, 174578, Note_off_c, 0, 78, 61
1, 174583, Note_off_c, 0, 79, 52
1, 174588, Note_off_c, 0, 73, 62
1, 174618, Note_on_c, 0, 61, 90
1, 174625, Note_on_c, 0, 54, 82
1, 174627, Note_on_c, 0, 72, 90
1, 174639, Note_on_c, 0, 76, 66
1, 174645, Note_on_c, 0, 77, 65
1, 174652, Note_off_c, 0, 54, 63
1, 174660, Note_off_c, 0, 61, 60
1, 174664, Note_off_c, 0, 72, 67
1, 174665, Note_off_c, 0, 77, 66
1, 174666, Note_off_c, 0, 76, 65
1, 174739, Control_c, 0, 64, 83
1, 174748, Note_on_c, 0, 51, 93
1, 174754, Control_c, 0, 64, 0
1, 174756, Note_on_c, 0, 55, 96
1, 174757, Note_on_c, 0, 46, 87
1, 174763, Note_on_c, 0, 57, 84
1, 174770, Note_on_c, 0, 48, 77
1, 174788, Note_on_c, 0, 53, 60
1, 174813, Note_on_c, 0, 45, 32
1, 174820, Control_c, 0, 64, 69
1, 174822, Note_off_c, 0, 53, 59
1, 174835, Control_c, 0, 64, 88
1, 174849, Note_off_c, 0, 51, 63
1, 174850, Control_c, 0, 64, 127
1, 174852, Note_off_c, 0, 45, 54
1, 174873, Note_on_c, 0, 67, 79
1, 174879, Note_on_c, 0, 60, 85
1, 174882, Note_on_c, 0, 58, 88
1, 174883, Note_off_c, 0, 48, 61
1, 174885, Note_off_c, 0, 55, 59
1, 174885, Note_on_c, 0, 64, 70
1, 174885, Note_off_c, 0, 57, 60
1, 174887, Note_on_c, 0, 69, 65
1, 174902, Note_off_c, 0, 46, 60
1, 174906, Note_off_c, 0, 69, 66
1, 174929, Note_off_c, 0, 60, 64
1, 174929, Note_off_c, 0, 67, 62
1, 174939, Note_off_c, 0, 64, 64
1, 174940, Note_off_c, 0, 58, 62
1, 174969, Control_c, 0, 64, 121
1, 174984, Control_c, 0, 64, 80
1, 174998, Control_c, 0, 64, 0
1, 175022, Note_on_c, 0, 50, 83
1, 175023, Note_on_c, 0, 45, 88
1, 175030, Note_on_c, 0, 48, 81
1, 175035, Note_on_c, 0, 60, 83
1, 175036, Note_on_c, 0, 62, 88
1, 175040, Note_on_c, 0, 57, 86
1, 175061, Note_off_c, 0, 48, 66
1, 175079, Note_off_c, 0, 50, 65
1, 175109, Note_off_c, 0, 45, 63
1, 175111, Note_off_c, 0, 60, 61
1, 175112, Note_off_c, 0, 62, 62
1, 175115, Note_off_c, 0, 57, 59
1, 175151, Note_on_c, 0, 53, 88
1, 175154, Note_on_c, 0, 48, 83
1, 175164, Note_on_c, 0, 57, 84
1, 175169, Note_on_c, 0, 64, 87
1, 175170, Note_on_c, 0, 50, 59
1, 175171, Note_on_c, 0, 60, 79
1, 175176, Note_on_c, 0, 62, 66
1, 175181, Note_off_c, 0, 48, 68
1, 175195, Note_off_c, 0, 50, 61
1, 175201, Note_off_c, 0, 53, 67
1, 175205, Note_on_c, 0, 67, 35
1, 175206, Note_off_c, 0, 57, 64
1, 175207, Note_off_c, 0, 60, 64
1, 175210, Note_off_c, 0, 62, 60
1, 175220, Note_off_c, 0, 64, 66
1, 175235, Note_off_c, 0, 67, 52
1, 175305, Note_on_c, 0, 65, 100
1, 175306, Note_on_c, 0, 63, 97
1, 175306, Note_on_c, 0, 66, 95
1, 175309, Note_on_c, 0, 75, 92
1, 175309, Note_on_c, 0, 77, 85
1, 175310, Note_on_c, 0, 54, 88
1, 175311, Note_on_c, 0, 71, 88
1, 175339, Note_on_c, 0, 64, 53
1, 175340, Note_off_c, 0, 64, 127
1, 175343, Note_off_c, 0, 65, 65
1, 175362, Note_off_c, 0, 54, 64
1, 175362, Note_off_c, 0, 63, 60
1, 175365, Note_off_c, 0, 71, 62
1, 175367, Note_off_c, 0, 77, 58
1, 175375, Note_off_c, 0, 66, 58
1, 175380, Note_off_c, 0, 75, 63
1, 175493, Note_on_c, 0, 60, 91
1, 175493, Note_on_c, 0, 57, 90
1, 175496, Note_on_c, 0, 53, 87
1, 175496, Note_on_c, 0, 50, 87
1, 175642, Control_c, 0, 64, 70
1, 175657, Control_c, 0, 64, 103
1, 175662, Note_on_c, 0, 62, 100
1, 175663, Note_on_c, 0, 72, 96
1, 175663, Note_on_c, 0, 65, 103
1, 175666, Note_off_c, 0, 60, 65
1, 175666, Note_on_c, 0, 69, 89
1, 175672, Control_c, 0, 64, 127
1, 175676, Note_off_c, 0, 57, 63
1, 175688, Note_off_c, 0, 53, 66
1, 175690, Note_on_c, 0, 70, 60
1, 175695, Note_off_c, 0, 62, 66
1, 175695, Note_off_c, 0, 65, 69
1, 175700, Note_off_c, 0, 50, 68
1, 175709, Note_off_c, 0, 69, 67
1, 175710, Note_off_c, 0, 72, 70
1, 175717, Note_off_c, 0, 70, 65
1, 175917, Note_on_c, 0, 84, 52
1, 175920, Note_on_c, 0, 86, 53
1, 175924, Note_on_c, 0, 88, 80
1, 175927, Note_on_c, 0, 33, 52
1, 175929, Note_on_c, 0, 36, 61
1, 175934, Note_on_c, 0, 38, 38
1, 175940, Note_on_c, 0, 81, 67
1, 175946, Note_off_c, 0, 88, 67
1, 175948, Note_on_c, 0, 41, 50
1, 175949, Note_off_c, 0, 84, 66
1, 175959, Note_off_c, 0, 36, 61
1, 175963, Note_off_c, 0, 33, 57
1, 175963, Note_off_c, 0, 81, 70
1, 175971, Note_off_c, 0, 38, 52
1, 175971, Note_off_c, 0, 86, 65
1, 175979, Note_off_c, 0, 41, 54
1, 176048, Note_on_c, 0, 41, 70
1, 176054, Note_on_c, 0, 81, 79
1, 176058, Note_on_c, 0, 36, 51
1, 176061, Note_on_c, 0, 35, 51
1, 176062, Note_on_c, 0, 86, 77
1, 176094, Note_off_c, 0, 35, 60
1, 176102, Note_off_c, 0, 36, 58
1, 176105, Note_off_c, 0, 41, 60
1, 176119, Note_off_c, 0, 86, 57
1, 176159, Note_on_c, 0, 38, 48
1, 176168, Note_on_c, 0, 45, 63
1, 176177, Note_on_c, 0, 84, 68
1, 176182, Note_on_c, 0, 77, 69
1, 176194, Note_off_c, 0, 38, 58
1, 176197, Note_off_c, 0, 45, 66
1, 176203, Note_off_c, 0, 81, 58
1, 176209, Note_off_c, 0, 77, 62
1, 176218, Note_on_c, 0, 83, 21
1, 176219, Note_off_c, 0, 83, 127
1, 176221, Note_off_c, 0, 84, 61
1, 176290, Note_on_c, 0, 45, 64
1, 176299, Note_on_c, 0, 38, 67
1, 176309, Note_on_c, 0, 84, 69
1, 176312, Note_on_c, 0, 77, 80
1, 176352, Note_off_c, 0, 84, 61
1, 176394, Note_off_c, 0, 45, 59
1, 176396, Note_off_c, 0, 77, 54
1, 176411, Note_on_c, 0, 41, 64
1, 176415, Note_on_c, 0, 48, 66
1, 176419, Note_on_c, 0, 80, 73
1, 176420, Note_on_c, 0, 75, 75
1, 176427, Note_off_c, 0, 38, 36
1, 176440, Note_off_c, 0, 41, 63
1, 176441, Note_off_c, 0, 48, 66
1, 176441, Note_off_c, 0, 75, 70
1, 176443, Note_off_c, 0, 80, 67
1, 176510, Note_on_c, 0, 48, 68
1, 176523, Note_on_c, 0, 75, 86
1, 176526, Note_on_c, 0, 41, 68
1, 176542, Note_on_c, 0, 80, 76
1, 176543, Note_on_c, 0, 45, 67
1, 176544, Note_off_c, 0, 48, 60
1, 176545, Note_on_c, 0, 50, 76
1, 176549, Note_on_c, 0, 74, 83
1, 176553, Note_on_c, 0, 78, 82
1, 176563, Note_off_c, 0, 41, 61
1, 176579, Note_off_c, 0, 75, 64
1, 176581, Note_off_c, 0, 45, 60
1, 176590, Note_off_c, 0, 80, 61
1, 176594, Note_off_c, 0, 74, 67
1, 176603, Note_off_c, 0, 50, 66
1, 176609, Note_off_c, 0, 78, 64
1, 176678, Note_on_c, 0, 50, 77
1, 176680, Note_on_c, 0, 45, 71
1, 176685, Note_on_c, 0, 78, 86
1, 176688, Note_on_c, 0, 74, 82
1, 176755, Note_off_c, 0, 50, 63
1, 176772, Note_on_c, 0, 48, 74
1, 176778, Note_on_c, 0, 53, 73
1, 176783, Note_off_c, 0, 45, 62
1, 176792, Note_on_c, 0, 72, 82
1, 176793, Note_on_c, 0, 77, 78
1, 176805, Note_off_c, 0, 48, 64
1, 176805, Note_off_c, 0, 74, 62
1, 176817, Note_off_c, 0, 53, 65
1, 176825, Note_off_c, 0, 78, 52
1, 176836, Note_off_c, 0, 72, 60
1, 176842, Note_off_c, 0, 77, 61
1, 176899, Note_on_c, 0, 48, 72
1, 176900, Note_on_c, 0, 53, 73
1, 176920, Note_on_c, 0, 72, 80
1, 176921, Note_on_c, 0, 77, 75
1, 176941, Note_off_c, 0, 53, 53
1, 176979, Note_on_c, 0, 50, 60
1, 176981, Note_off_c, 0, 48, 56
1, 176994, Note_off_c, 0, 77, 61
1, 177003, Note_on_c, 0, 57, 57
1, 177020, Note_off_c, 0, 50, 62
1, 177021, Note_on_c, 0, 75, 79
1, 177022, Note_on_c, 0, 71, 77
1, 177029, Note_off_c, 0, 72, 59
1, 177032, Note_off_c, 0, 57, 64
1, 177053, Note_off_c, 0, 71, 67
1, 177073, Note_off_c, 0, 75, 62
1, 177107, Note_on_c, 0, 57, 69
1, 177121, Note_on_c, 0, 50, 64
1, 177130, Note_on_c, 0, 52, 64
1, 177137, Note_on_c, 0, 71, 86
1, 177140, Note_on_c, 0, 75, 70
1, 177159, Note_off_c, 0, 57, 58
1, 177164, Note_on_c, 0, 73, 54
1, 177165, Note_off_c, 0, 73, 127
1, 177167, Note_off_c, 0, 52, 60
1, 177169, Note_on_c, 0, 60, 69
1, 177169, Note_on_c, 0, 74, 84
1, 177169, Note_on_c, 0, 69, 89
1, 177169, Note_off_c, 0, 50, 65
1, 177180, Note_off_c, 0, 75, 46
1, 177186, Note_on_c, 0, 53, 53
1, 177186, Note_off_c, 0, 71, 62
1, 177213, Note_off_c, 0, 60, 61
1, 177216, Note_off_c, 0, 53, 57
1, 177222, Note_off_c, 0, 69, 67
1, 177237, Note_off_c, 0, 74, 65
1, 177291, Note_on_c, 0, 53, 79
1, 177294, Note_on_c, 0, 60, 84
1, 177294, Note_on_c, 0, 69, 97
1, 177303, Note_on_c, 0, 74, 88
1, 177371, Note_off_c, 0, 60, 58
1, 177393, Note_on_c, 0, 62, 80
1, 177393, Note_on_c, 0, 68, 95
1, 177404, Note_off_c, 0, 53, 62
1, 177405, Note_on_c, 0, 72, 82
1, 177411, Note_off_c, 0, 69, 60
1, 177414, Note_on_c, 0, 57, 45
1, 177425, Note_off_c, 0, 74, 64
1, 177433, Note_off_c, 0, 68, 65
1, 177434, Note_off_c, 0, 57, 63
1, 177441, Note_off_c, 0, 62, 62
1, 177449, Note_off_c, 0, 72, 62
1, 177476, Note_on_c, 0, 59, 2
1, 177497, Note_off_c, 0, 59, 0
1, 177514, Note_on_c, 0, 57, 71
1, 177518, Note_on_c, 0, 68, 102
1, 177520, Note_on_c, 0, 62, 82
1, 177521, Note_on_c, 0, 72, 94
1, 177535, Poly_aftertouch_c, 0, 59, 127
1, 177543, Note_on_c, 0, 59, 8
1, 177563, Note_on_c, 0, 60, 37
1, 177583, Note_off_c, 0, 57, 57
1, 177591, Note_off_c, 0, 62, 59
1, 177592, Note_off_c, 0, 59, 51
1, 177604, Note_off_c, 0, 68, 62
1, 177607, Note_off_c, 0, 60, 0
1, 177607, Note_on_c, 0, 60, 46
1, 177617, Note_on_c, 0, 65, 71
1, 177618, Note_off_c, 0, 72, 47
1, 177638, Note_on_c, 0, 66, 84
1, 177645, Note_off_c, 0, 65, 66
1, 177649, Note_on_c, 0, 71, 62
1, 177655, Note_off_c, 0, 60, 64
1, 177675, Note_off_c, 0, 71, 71
1, 177698, Note_off_c, 0, 66, 59
1, 177719, Control_c, 0, 64, 110
1, 177734, Control_c, 0, 64, 74
1, 177749, Control_c, 0, 64, 0
1, 177762, Note_on_c, 0, 55, 99
1, 177764, Note_on_c, 0, 46, 96
1, 177765, Note_on_c, 0, 57, 92
1, 177768, Note_on_c, 0, 52, 81
1, 177785, Note_on_c, 0, 47, 56
1, 177786, Note_on_c, 0, 48, 66
1, 177816, Control_c, 0, 64, 77
1, 177830, Control_c, 0, 64, 127
1, 177840, Note_off_c, 0, 52, 62
1, 177842, Note_off_c, 0, 47, 64
1, 177851, Note_off_c, 0, 48, 62
1, 177854, Note_off_c, 0, 46, 61
1, 177857, Note_off_c, 0, 55, 62
1, 177868, Note_off_c, 0, 57, 61
1, 177893, Note_on_c, 0, 60, 79
1, 177894, Poly_aftertouch_c, 0, 45, 0
1, 177896, Note_on_c, 0, 58, 84
1, 177898, Note_on_c, 0, 67, 74
1, 177899, Note_on_c, 0, 69, 80
1, 177901, Note_on_c, 0, 64, 77
1, 177915, Note_off_c, 0, 60, 71
1, 177937, Note_off_c, 0, 64, 62
1, 177939, Note_off_c, 0, 67, 59
1, 177948, Note_off_c, 0, 69, 62
1, 177950, Control_c, 0, 64, 89
1, 177964, Control_c, 0, 64, 36
1, 177967, Note_off_c, 0, 58, 35
1, 177979, Control_c, 0, 64, 0
1, 178017, Note_on_c, 0, 60, 95
1, 178018, Note_on_c, 0, 58, 88
1, 178021, Note_on_c, 0, 54, 94
1, 178027, Note_on_c, 0, 49, 94
1, 178053, Control_c, 0, 64, 67
1, 178068, Control_c, 0, 64, 101
1, 178080, Note_off_c, 0, 60, 63
1, 178083, Control_c, 0, 64, 127
1, 178085, Note_off_c, 0, 58, 65
1, 178098, Note_off_c, 0, 54, 65
1, 178112, Note_off_c, 0, 49, 64
1, 178137, Note_on_c, 0, 61, 89
1, 178137, Note_on_c, 0, 70, 90
1, 178137, Note_on_c, 0, 66, 88
1, 178143, Note_on_c, 0, 72, 86
1, 178154, Note_off_c, 0, 61, 73
1, 178174, Note_off_c, 0, 66, 65
1, 178178, Note_off_c, 0, 70, 66
1, 178179, Note_off_c, 0, 72, 66
1, 178187, Note_on_c, 0, 68, 19
1, 178233, Note_off_c, 0, 68, 50
1, 178311, Note_on_c, 0, 73, 98
1, 178313, Note_on_c, 0, 78, 105
1, 178315, Note_on_c, 0, 48, 96
1, 178316, Note_on_c, 0, 82, 97
1, 178319, Note_on_c, 0, 42, 87
1, 178319, Note_on_c, 0, 46, 84
1, 178322, Note_on_c, 0, 84, 78
1, 178326, Note_on_c, 0, 37, 71
1, 178329, Note_off_c, 0, 73, 71
1, 178337, Note_off_c, 0, 84, 71
1, 178344, Note_off_c, 0, 46, 68
1, 178345, Note_off_c, 0, 78, 70
1, 178346, Note_off_c, 0, 42, 67
1, 178349, Note_off_c, 0, 82, 68
1, 178354, Note_off_c, 0, 37, 64
1, 178359, Note_off_c, 0, 48, 65
1, 178560, Note_on_c, 0, 91, 84
1, 178567, Note_on_c, 0, 60, 76
1, 178567, Note_on_c, 0, 87, 77
1, 178572, Note_on_c, 0, 52, 72
1, 178585, Note_on_c, 0, 59, 56
1, 178596, Note_on_c, 0, 85, 72
1, 178597, Note_on_c, 0, 89, 77
1, 178608, Note_off_c, 0, 59, 61
1, 178617, Note_off_c, 0, 52, 60
1, 178623, Note_off_c, 0, 60, 62
1, 178626, Note_off_c, 0, 91, 66
1, 178639, Note_off_c, 0, 87, 61
1, 178648, Note_off_c, 0, 89, 62
1, 178657, Note_off_c, 0, 85, 63
1, 178707, Note_on_c, 0, 52, 75
1, 178720, Note_on_c, 0, 60, 65
1, 178722, Note_on_c, 0, 90, 86
1, 178728, Note_on_c, 0, 85, 79
1, 178748, Note_off_c, 0, 52, 59
1, 178759, Note_off_c, 0, 60, 61
1, 178812, Note_off_c, 0, 90, 66
1, 178815, Note_on_c, 0, 54, 64
1, 178819, Note_on_c, 0, 61, 79
1, 178839, Note_on_c, 0, 84, 77
1, 178842, Note_on_c, 0, 88, 77
1, 178853, Note_off_c, 0, 54, 61
1, 178863, Note_off_c, 0, 61, 56
1, 178868, Note_off_c, 0, 85, 58
1, 178881, Note_off_c, 0, 84, 65
1, 178891, Note_off_c, 0, 88, 63
1, 178938, Note_on_c, 0, 54, 77
1, 178960, Note_on_c, 0, 61, 69
1, 178962, Note_on_c, 0, 84, 83
1, 178965, Note_on_c, 0, 88, 81
1, 178990, Note_off_c, 0, 54, 63
1, 179023, Note_off_c, 0, 84, 61
1, 179029, Note_off_c, 0, 61, 0
1, 179041, Note_on_c, 0, 63, 78
1, 179051, Note_on_c, 0, 56, 43
1, 179056, Note_off_c, 0, 88, 60
1, 179056, Note_on_c, 0, 87, 82
1, 179058, Note_on_c, 0, 61, 27
1, 179060, Note_on_c, 0, 83, 78
1, 179085, Note_off_c, 0, 61, 50
1, 179085, Note_off_c, 0, 56, 54
1, 179089, Note_off_c, 0, 83, 63
1, 179091, Note_off_c, 0, 63, 58
1, 179100, Note_off_c, 0, 87, 67
1, 179157, Note_on_c, 0, 55, 66
1, 179162, Note_on_c, 0, 63, 73
1, 179169, Note_on_c, 0, 83, 87
1, 179169, Note_on_c, 0, 87, 95
1, 179179, Note_on_c, 0, 57, 71
1, 179189, Note_on_c, 0, 85, 83
1, 179196, Note_on_c, 0, 64, 78
1, 179199, Note_on_c, 0, 81, 91
1, 179219, Note_off_c, 0, 63, 57
1, 179220, Note_off_c, 0, 55, 62
1, 179220, Note_off_c, 0, 83, 67
1, 179231, Note_off_c, 0, 87, 66
1, 179241, Note_off_c, 0, 57, 62
1, 179253, Note_off_c, 0, 64, 65
1, 179254, Note_off_c, 0, 81, 67
1, 179259, Note_off_c, 0, 85, 66
1, 179336, Note_on_c, 0, 81, 95
1, 179343, Note_on_c, 0, 85, 94
1, 179351, Note_on_c, 0, 59, 65
1, 179353, Note_on_c, 0, 64, 58
1, 179354, Note_on_c, 0, 57, 64
1, 179374, Note_off_c, 0, 64, 65
1, 179377, Note_off_c, 0, 59, 66
1, 179383, Note_off_c, 0, 57, 65
1, 179409, Note_off_c, 0, 85, 67
1, 179424, Note_on_c, 0, 84, 69
1, 179442, Note_off_c, 0, 81, 57
1, 179443, Note_on_c, 0, 79, 85
1, 179449, Note_on_c, 0, 66, 81
1, 179470, Note_on_c, 0, 58, 61
1, 179489, Note_off_c, 0, 84, 64
1, 179493, Note_off_c, 0, 58, 63
1, 179502, Note_off_c, 0, 79, 63
1, 179509, Note_off_c, 0, 66, 56
1, 179528, Poly_aftertouch_c, 0, 86, 0
1, 179576, Note_on_c, 0, 79, 87
1, 179577, Note_on_c, 0, 67, 82
1, 179586, Note_on_c, 0, 84, 78
1, 179593, Note_on_c, 0, 83, 73
1, 179613, Note_on_c, 0, 60, 19
1, 179617, Note_off_c, 0, 67, 57
1, 179627, Note_off_c, 0, 79, 62
1, 179649, Note_off_c, 0, 83, 56
1, 179653, Note_off_c, 0, 84, 59
1, 179656, Note_on_c, 0, 82, 75
1, 179657, Note_off_c, 0, 60, 55
1, 179690, Note_on_c, 0, 77, 87
1, 179700, Note_on_c, 0, 69, 76
1, 179705, Note_on_c, 0, 61, 69
1, 179729, Note_off_c, 0, 69, 61
1, 179730, Note_off_c, 0, 61, 65
1, 179737, Note_off_c, 0, 82, 65
1, 179739, Note_off_c, 0, 77, 64
1, 179791, Note_on_c, 0, 61, 86
1, 179793, Note_on_c, 0, 81, 100
1, 179795, Note_on_c, 0, 78, 73
1, 179802, Note_on_c, 0, 77, 87
1, 179806, Note_on_c, 0, 69, 87
1, 179808, Note_on_c, 0, 80, 79
1, 179813, Note_off_c, 0, 78, 67
1, 179845, Note_on_c, 0, 76, 78
1, 179851, Note_off_c, 0, 80, 67
1, 179864, Note_off_c, 0, 77, 57
1, 179878, Note_off_c, 0, 69, 61
1, 179883, Note_off_c, 0, 81, 59
1, 179890, Note_on_c, 0, 79, 23
1, 179891, Note_off_c, 0, 79, 127
1, 179891, Note_off_c, 0, 76, 64
1, 179896, Note_off_c, 0, 61, 60
1, 179912, Note_on_c, 0, 70, 88
1, 179917, Note_on_c, 0, 64, 77
1, 179945, Note_on_c, 0, 79, 79
1, 179952, Note_on_c, 0, 76, 87
1, 179967, Note_on_c, 0, 74, 62
1, 179968, Note_off_c, 0, 64, 62
1, 179989, Note_off_c, 0, 74, 38
1, 179991, Note_off_c, 0, 70, 61
1, 180003, Note_off_c, 0, 79, 62
1, 180005, Note_off_c, 0, 76, 64
1, 180074, Note_on_c, 0, 70, 81
1, 180075, Note_on_c, 0, 75, 91
1, 180076, Note_on_c, 0, 64, 77
1, 180077, Note_on_c, 0, 79, 85
1, 180084, Note_on_c, 0, 65, 74
1, 180084, Note_on_c, 0, 77, 81
1, 180133, Note_off_c, 0, 77, 59
1, 180133, Note_off_c, 0, 79, 62
1, 180134, Note_off_c, 0, 75, 64
1, 180142, Note_off_c, 0, 65, 56
1, 180162, Note_off_c, 0, 64, 59
1, 180186, Note_on_c, 0, 75, 97
1, 180197, Note_on_c, 0, 79, 88
1, 180202, Note_on_c, 0, 67, 83
1, 180206, Note_on_c, 0, 72, 83
1, 180227, Note_off_c, 0, 70, 33
1, 180263, Note_off_c, 0, 79, 57
1, 180267, Note_off_c, 0, 72, 57
1, 180272, Note_off_c, 0, 67, 57
1, 180283, Note_off_c, 0, 75, 60
1, 180301, Note_on_c, 0, 78, 93
1, 180307, Note_on_c, 0, 73, 99
1, 180324, Note_on_c, 0, 70, 92
1, 180325, Note_on_c, 0, 72, 84
1, 180340, Note_off_c, 0, 72, 76
1, 180345, Note_off_c, 0, 73, 67
1, 180346, Note_off_c, 0, 78, 68
1, 180371, Note_off_c, 0, 70, 64
1, 180551, Control_c, 0, 64, 104
1, 180566, Control_c, 0, 64, 73
1, 180581, Control_c, 0, 64, 0
1, 180760, Note_on_c, 0, 63, 96
1, 180762, Note_on_c, 0, 59, 96
1, 180762, Note_on_c, 0, 66, 96
1, 180766, Note_on_c, 0, 47, 87
1, 180767, Note_on_c, 0, 54, 93
1, 180769, Note_on_c, 0, 51, 91
1, 180826, Control_c, 0, 64, 63
1, 180841, Control_c, 0, 64, 73
1, 180856, Control_c, 0, 64, 85
1, 180871, Control_c, 0, 64, 108
1, 180886, Control_c, 0, 64, 127
1, 180891, Note_off_c, 0, 54, 59
1, 180928, Note_off_c, 0, 47, 56
1, 180973, Note_off_c, 0, 63, 58
1, 180974, Note_off_c, 0, 59, 58
1, 180975, Note_off_c, 0, 66, 58
1, 180977, Note_off_c, 0, 51, 62
1, 181241, Control_c, 0, 64, 82
1, 181243, Note_on_c, 0, 53, 100
1, 181246, Note_on_c, 0, 45, 90
1, 181246, Note_on_c, 0, 50, 89
1, 181246, Note_on_c, 0, 62, 94
1, 181246, Note_on_c, 0, 65, 94
1, 181247, Note_on_c, 0, 57, 95
1, 181249, Note_on_c, 0, 60, 96
1, 181249, Note_on_c, 0, 48, 86
1, 181255, Control_c, 0, 64, 0
1, 181315, Control_c, 0, 64, 72
1, 181330, Control_c, 0, 64, 117
1, 181340, Note_off_c, 0, 53, 66
1, 181342, Note_off_c, 0, 57, 62
1, 181345, Control_c, 0, 64, 127
1, 181360, Note_off_c, 0, 50, 65
1, 181361, Note_off_c, 0, 60, 61
1, 181366, Note_off_c, 0, 62, 62
1, 181368, Note_off_c, 0, 48, 65
1, 181372, Note_off_c, 0, 65, 61
1, 181379, Note_off_c, 0, 45, 66
1, 181723, Note_on_c, 0, 98, 75
1, 181735, Note_on_c, 0, 24, 67
1, 181741, Note_on_c, 0, 105, 73
1, 181754, Note_on_c, 0, 101, 78
1, 181767, Note_on_c, 0, 96, 76
1, 181787, Note_off_c, 0, 24, 60
1, 181792, Note_off_c, 0, 105, 63
1, 181792, Note_on_c, 0, 26, 75
1, 181792, Note_off_c, 0, 98, 65
1, 181800, Note_on_c, 0, 21, 76
1, 181817, Note_off_c, 0, 101, 61
1, 181819, Note_off_c, 0, 96, 64
1, 181846, Note_off_c, 0, 26, 60
1, 181853, Note_off_c, 0, 21, 61
1, 181920, Note_on_c, 0, 101, 86
1, 181921, Note_on_c, 0, 96, 80
1, 181932, Note_on_c, 0, 26, 69
1, 181936, Note_on_c, 0, 21, 72
1, 182044, Note_on_c, 0, 24, 75
1, 182050, Note_on_c, 0, 98, 77
1, 182052, Note_on_c, 0, 93, 76
1, 182052, Note_off_c, 0, 101, 60
1, 182057, Note_on_c, 0, 29, 64
1, 182057, Note_off_c, 0, 26, 60
1, 182064, Note_off_c, 0, 21, 59
1, 182072, Note_off_c, 0, 96, 65
1, 182076, Note_off_c, 0, 98, 65
1, 182084, Note_off_c, 0, 24, 61
1, 182087, Note_off_c, 0, 29, 64
1, 182090, Note_off_c, 0, 93, 62
1, 182179, Note_on_c, 0, 98, 91
1, 182179, Note_on_c, 0, 29, 66
1, 182182, Note_on_c, 0, 24, 75
1, 182183, Note_on_c, 0, 93, 83
1, 182272, Note_on_c, 0, 26, 63
1, 182276, Note_off_c, 0, 98, 58
1, 182279, Note_off_c, 0, 29, 58
1, 182296, Note_off_c, 0, 24, 55
1, 182305, Note_on_c, 0, 33, 60
1, 182306, Note_on_c, 0, 89, 74
1, 182310, Note_on_c, 0, 96, 60
1, 182319, Note_off_c, 0, 93, 63
1, 182322, Note_off_c, 0, 26, 62
1, 182328, Note_off_c, 0, 96, 66
1, 182331, Note_off_c, 0, 89, 65
1, 182340, Note_off_c, 0, 33, 59
1, 182415, Note_on_c, 0, 26, 75
1, 182419, Note_on_c, 0, 33, 67
1, 182420, Note_on_c, 0, 89, 92
1, 182421, Note_on_c, 0, 96, 80
1, 182438, Note_on_c, 0, 86, 89
1, 182439, Note_on_c, 0, 93, 86
1, 182447, Note_on_c, 0, 36, 79
1, 182455, Note_off_c, 0, 33, 60
1, 182458, Note_on_c, 0, 29, 59
1, 182460, Note_off_c, 0, 26, 59
1, 182466, Note_off_c, 0, 96, 65
1, 182482, Note_off_c, 0, 89, 63
1, 182490, Note_off_c, 0, 36, 61
1, 182492, Note_off_c, 0, 93, 64
1, 182495, Note_off_c, 0, 29, 59
1, 182496, Note_off_c, 0, 86, 67
1, 182575, Note_on_c, 0, 86, 96
1, 182576, Note_on_c, 0, 93, 104
1, 182576, Note_on_c, 0, 29, 85
1, 182576, Note_on_c, 0, 36, 89
1, 182701, Note_off_c, 0, 36, 60
1, 182703, Note_on_c, 0, 89, 84
1, 182704, Note_on_c, 0, 33, 74
1, 182704, Note_on_c, 0, 84, 84
1, 182709, Note_off_c, 0, 93, 57
1, 182714, Note_on_c, 0, 38, 67
1, 182722, Note_off_c, 0, 86, 63
1, 182727, Note_off_c, 0, 29, 60
1, 182737, Note_off_c, 0, 33, 63
1, 182745, Note_off_c, 0, 89, 58
1, 182746, Note_off_c, 0, 84, 65
1, 182747, Note_off_c, 0, 38, 63
1, 182827, Note_on_c, 0, 38, 82
1, 182832, Note_on_c, 0, 89, 102
1, 182833, Note_on_c, 0, 84, 94
1, 182835, Note_on_c, 0, 33, 87
1, 182923, Note_on_c, 0, 36, 55
1, 182933, Note_off_c, 0, 89, 57
1, 182940, Note_on_c, 0, 41, 78
1, 182946, Note_off_c, 0, 33, 58
1, 182949, Note_on_c, 0, 86, 78
1, 182951, Note_off_c, 0, 38, 57
1, 182952, Note_on_c, 0, 81, 80
1, 182967, Note_off_c, 0, 36, 59
1, 182972, Note_off_c, 0, 84, 57
1, 182978, Note_off_c, 0, 86, 61
1, 182984, Note_off_c, 0, 41, 62
1, 182990, Note_off_c, 0, 81, 61
1, 183071, Note_on_c, 0, 81, 95
1, 183077, Note_on_c, 0, 36, 69
1, 183077, Note_on_c, 0, 86, 78
1, 183082, Note_on_c, 0, 38, 69
1, 183086, Note_on_c, 0, 84, 82
1, 183087, Note_on_c, 0, 41, 62
1, 183088, Note_on_c, 0, 45, 76
1, 183090, Note_on_c, 0, 77, 84
1, 183115, Note_off_c, 0, 41, 64
1, 183118, Note_off_c, 0, 86, 58
1, 183130, Note_off_c, 0, 36, 59
1, 183132, Note_off_c, 0, 81, 64
1, 183139, Note_off_c, 0, 38, 60
1, 183146, Note_off_c, 0, 84, 62
1, 183147, Note_off_c, 0, 45, 65
1, 183160, Note_off_c, 0, 77, 64
1, 183217, Note_on_c, 0, 77, 96
1, 183218, Note_on_c, 0, 84, 90
1, 183220, Note_on_c, 0, 38, 79
1, 183223, Note_on_c, 0, 45, 83
1, 183332, Note_on_c, 0, 81, 62
1, 183339, Note_on_c, 0, 41, 77
1, 183339, Note_on_c, 0, 74, 89
1, 183342, Note_on_c, 0, 48, 82
1, 183344, Note_off_c, 0, 45, 63
1, 183354, Note_off_c, 0, 38, 61
1, 183354, Note_off_c, 0, 84, 61
1, 183360, Note_off_c, 0, 77, 63
1, 183378, Note_off_c, 0, 41, 63
1, 183382, Note_off_c, 0, 48, 61
1, 183384, Note_off_c, 0, 74, 66
1, 183387, Note_off_c, 0, 81, 65
1, 183460, Note_on_c, 0, 41, 86
1, 183461, Note_on_c, 0, 48, 84
1, 183461, Note_on_c, 0, 81, 87
1, 183462, Note_on_c, 0, 74, 99
1, 183559, Note_off_c, 0, 48, 61
1, 183563, Note_on_c, 0, 45, 76
1, 183564, Note_on_c, 0, 50, 83
1, 183568, Note_on_c, 0, 72, 88
1, 183570, Note_on_c, 0, 77, 88
1, 183574, Note_off_c, 0, 41, 61
1, 183583, Note_off_c, 0, 74, 64
1, 183583, Note_off_c, 0, 81, 58
1, 183595, Note_off_c, 0, 45, 67
1, 183608, Note_off_c, 0, 72, 67
1, 183612, Note_off_c, 0, 50, 67
1, 183618, Note_off_c, 0, 77, 62
1, 183680, Control_c, 0, 64, 112
1, 183686, Note_on_c, 0, 72, 95
1, 183688, Note_on_c, 0, 45, 84
1, 183691, Note_on_c, 0, 50, 81
1, 183695, Control_c, 0, 64, 84
1, 183698, Note_on_c, 0, 77, 87
1, 183701, Note_on_c, 0, 53, 84
1, 183709, Control_c, 0, 64, 72
1, 183713, Note_on_c, 0, 48, 71
1, 183713, Note_on_c, 0, 71, 93
1, 183720, Note_on_c, 0, 75, 88
1, 183724, Note_off_c, 0, 50, 63
1, 183724, Control_c, 0, 64, 68
1, 183739, Note_off_c, 0, 72, 59
1, 183739, Control_c, 0, 64, 71
1, 183744, Note_on_c, 0, 47, 34
1, 183745, Note_off_c, 0, 47, 127
1, 183745, Note_off_c, 0, 45, 64
1, 183752, Note_off_c, 0, 77, 61
1, 183754, Control_c, 0, 64, 79
1, 183765, Note_off_c, 0, 48, 64
1, 183768, Control_c, 0, 64, 93
1, 183779, Note_off_c, 0, 53, 65
1, 183791, Control_c, 0, 64, 127
1, 183792, Poly_aftertouch_c, 0, 47, 0
1, 183799, Note_off_c, 0, 71, 64
1, 183806, Note_off_c, 0, 75, 66
1, 183832, Poly_aftertouch_c, 0, 73, 127
1, 183870, Note_on_c, 0, 48, 89
1, 183873, Note_on_c, 0, 53, 92
1, 183873, Poly_aftertouch_c, 0, 73, 0
1, 183876, Note_on_c, 0, 71, 100
1, 183877, Note_on_c, 0, 75, 92
1, 183880, Control_c, 0, 64, 93
1, 183895, Control_c, 0, 64, 73
1, 183910, Control_c, 0, 64, 62
1, 183924, Control_c, 0, 64, 63
1, 183939, Control_c, 0, 64, 69
1, 183954, Control_c, 0, 64, 83
1, 183968, Control_c, 0, 64, 109
1, 183978, Note_off_c, 0, 75, 63
1, 183983, Control_c, 0, 64, 127
1, 184000, Note_off_c, 0, 71, 62
1, 184021, Note_off_c, 0, 48, 63
1, 184025, Note_on_c, 0, 69, 98
1, 184028, Note_on_c, 0, 50, 80
1, 184029, Note_on_c, 0, 74, 96
1, 184034, Note_on_c, 0, 54, 93
1, 184040, Note_off_c, 0, 53, 42
1, 184044, Control_c, 0, 64, 89
1, 184058, Control_c, 0, 64, 69
1, 184073, Control_c, 0, 64, 64
1, 184088, Control_c, 0, 64, 70
1, 184103, Control_c, 0, 64, 86
1, 184114, Note_off_c, 0, 74, 64
1, 184118, Control_c, 0, 64, 127
1, 184124, Note_off_c, 0, 54, 64
1, 184135, Note_off_c, 0, 69, 65
1, 184172, Note_off_c, 0, 50, 60
1, 184177, Control_c, 0, 64, 109
1, 184178, Note_on_c, 0, 68, 95
1, 184182, Note_on_c, 0, 51, 90
1, 184183, Note_on_c, 0, 72, 90
1, 184184, Note_on_c, 0, 56, 89
1, 184192, Control_c, 0, 64, 82
1, 184207, Control_c, 0, 64, 70
1, 184221, Control_c, 0, 64, 72
1, 184236, Control_c, 0, 64, 91
1, 184251, Control_c, 0, 64, 127
1, 184266, Note_off_c, 0, 56, 65
1, 184281, Note_off_c, 0, 51, 62
1, 184288, Note_off_c, 0, 68, 58
1, 184290, Note_off_c, 0, 72, 60
1, 184324, Note_on_c, 0, 57, 84
1, 184326, Control_c, 0, 64, 88
1, 184327, Note_on_c, 0, 53, 81
1, 184328, Note_on_c, 0, 71, 89
1, 184329, Note_on_c, 0, 66, 95
1, 184340, Control_c, 0, 64, 76
1, 184348, Note_on_c, 0, 54, 49
1, 184355, Control_c, 0, 64, 78
1, 184370, Control_c, 0, 64, 94
1, 184370, Note_off_c, 0, 54, 37
1, 184384, Note_off_c, 0, 53, 66
1, 184384, Control_c, 0, 64, 127
1, 184392, Note_off_c, 0, 57, 62
1, 184400, Note_off_c, 0, 66, 64
1, 184403, Note_off_c, 0, 71, 64
1, 184463, Note_on_c, 0, 66, 91
1, 184473, Control_c, 0, 64, 86
1, 184478, Note_on_c, 0, 59, 90
1, 184480, Note_on_c, 0, 71, 83
1, 184481, Note_on_c, 0, 54, 71
1, 184482, Note_on_c, 0, 57, 82
1, 184485, Note_on_c, 0, 65, 91
1, 184488, Note_on_c, 0, 69, 86
1, 184488, Control_c, 0, 64, 63
1, 184489, Note_off_c, 0, 66, 67
1, 184503, Control_c, 0, 64, 0
1, 184508, Note_on_c, 0, 53, 42
1, 184518, Control_c, 0, 64, 24
1, 184540, Control_c, 0, 64, 66
1, 184542, Note_off_c, 0, 53, 62
1, 184549, Note_off_c, 0, 71, 63
1, 184555, Control_c, 0, 64, 82
1, 184570, Control_c, 0, 64, 127
1, 184581, Note_off_c, 0, 65, 51
1, 184595, Note_off_c, 0, 57, 52
1, 184606, Note_off_c, 0, 59, 60
1, 184631, Note_off_c, 0, 69, 56
1, 184636, Note_off_c, 0, 54, 63
1, 184659, Control_c, 0, 64, 117
1, 184662, Note_on_c, 0, 68, 97
1, 184665, Note_on_c, 0, 63, 99
1, 184666, Note_on_c, 0, 56, 101
1, 184669, Note_on_c, 0, 60, 96
1, 184673, Control_c, 0, 64, 80
1, 184688, Control_c, 0, 64, 0
1, 184732, Control_c, 0, 64, 65
1, 184747, Control_c, 0, 64, 85
1, 184762, Control_c, 0, 64, 127
1, 184776, Note_off_c, 0, 60, 63
1, 184800, Note_off_c, 0, 63, 55
1, 184809, Note_off_c, 0, 56, 62
1, 184837, Control_c, 0, 64, 113
1, 184840, Note_on_c, 0, 62, 95
1, 184841, Note_on_c, 0, 57, 96
1, 184843, Note_on_c, 0, 66, 105
1, 184852, Control_c, 0, 64, 80
1, 184867, Control_c, 0, 64, 65
1, 184881, Note_off_c, 0, 68, 53
1, 184881, Control_c, 0, 64, 68
1, 184896, Control_c, 0, 64, 86
1, 184911, Note_off_c, 0, 57, 63
1, 184911, Control_c, 0, 64, 127
1, 184928, Note_off_c, 0, 62, 59
1, 184934, Note_off_c, 0, 66, 62
1, 185029, Control_c, 0, 64, 106
1, 185044, Control_c, 0, 64, 71
1, 185045, Note_on_c, 0, 60, 106
1, 185046, Note_on_c, 0, 65, 97
1, 185054, Note_on_c, 0, 59, 91
1, 185054, Note_on_c, 0, 63, 98
1, 185059, Control_c, 0, 64, 0
1, 185089, Control_c, 0, 64, 44
1, 185104, Control_c, 0, 64, 75
1, 185119, Control_c, 0, 64, 107
1, 185133, Control_c, 0, 64, 127
1, 185167, Note_off_c, 0, 60, 60
1, 185175, Note_off_c, 0, 65, 56
1, 185180, Note_off_c, 0, 63, 59
1, 185308, Note_off_c, 0, 59, 46
1, 185363, Control_c, 0, 64, 103
1, 185371, Note_on_c, 0, 63, 87
1, 185374, Note_on_c, 0, 62, 94
1, 185378, Note_on_c, 0, 60, 107
1, 185378, Control_c, 0, 64, 64
1, 185393, Control_c, 0, 64, 0
1, 185437, Control_c, 0, 64, 70
1, 185452, Control_c, 0, 64, 106
1, 185460, Note_off_c, 0, 62, 64
1, 185467, Control_c, 0, 64, 127
1, 185479, Note_off_c, 0, 63, 65
1, 185512, Note_off_c, 0, 60, 67
1, 185834, Note_on_c, 0, 51, 87
1, 185898, Note_on_c, 0, 53, 38
1, 186011, Note_on_c, 0, 87, 98
1, 186013, Note_on_c, 0, 80, 93
1, 186014, Note_on_c, 0, 73, 102
1, 186015, Note_on_c, 0, 61, 104
1, 186020, Note_on_c, 0, 56, 81
1, 186022, Note_on_c, 0, 58, 82
1, 186052, Control_c, 0, 64, 116
1, 186064, Note_on_c, 0, 82, 42
1, 186067, Control_c, 0, 64, 80
1, 186082, Control_c, 0, 64, 0
1, 186093, Note_off_c, 0, 82, 55
1, 186156, Control_c, 0, 64, 53
1, 186171, Control_c, 0, 64, 71
1, 186186, Control_c, 0, 64, 93
1, 186201, Control_c, 0, 64, 127
1, 186278, Note_off_c, 0, 80, 57
1, 186281, Note_off_c, 0, 73, 59
1, 186290, Note_off_c, 0, 87, 61
1, 186303, Note_off_c, 0, 61, 58
1, 186473, Note_off_c, 0, 51, 63
1, 186524, Note_on_c, 0, 63, 107
1, 186532, Note_on_c, 0, 89, 83
1, 186535, Note_on_c, 0, 82, 83
1, 186539, Note_on_c, 0, 75, 75
1, 186599, Note_off_c, 0, 75, 61
1, 186629, Note_off_c, 0, 82, 62
1, 186633, Note_off_c, 0, 89, 62
1, 186678, Note_off_c, 0, 63, 57
1, 186842, Note_on_c, 0, 65, 110
1, 186851, Note_on_c, 0, 79, 89
1, 186851, Note_on_c, 0, 85, 90
1, 186852, Note_on_c, 0, 92, 92
1, 186927, Note_off_c, 0, 79, 55
1, 186945, Note_off_c, 0, 85, 61
1, 186949, Note_off_c, 0, 92, 65
1, 186972, Note_off_c, 0, 65, 61
1, 187118, Note_off_c, 0, 53, 44
1, 187157, Note_on_c, 0, 94, 103
1, 187161, Note_on_c, 0, 80, 92
1, 187162, Note_on_c, 0, 67, 105
1, 187167, Note_on_c, 0, 87, 95
1, 187195, Note_off_c, 0, 80, 67
1, 187211, Note_off_c, 0, 87, 65
1, 187213, Note_off_c, 0, 94, 67
1, 187288, Note_off_c, 0, 67, 57
1, 187307, Note_off_c, 0, 58, 58
1, 187323, Note_off_c, 0, 56, 58
1, 187550, Control_c, 0, 64, 92
1, 187562, Note_on_c, 0, 63, 97
1, 187563, Note_on_c, 0, 90, 80
1, 187565, Control_c, 0, 64, 63
1, 187566, Note_on_c, 0, 82, 93
1, 187566, Note_on_c, 0, 96, 94
1, 187577, Note_on_c, 0, 60, 68
1, 187580, Control_c, 0, 64, 0
1, 187583, Note_on_c, 0, 51, 68
1, 187584, Note_on_c, 0, 56, 63
1, 187595, Control_c, 0, 64, 59
1, 187605, Note_on_c, 0, 53, 37
1, 187609, Control_c, 0, 64, 75
1, 187624, Control_c, 0, 64, 108
1, 187638, Note_off_c, 0, 96, 65
1, 187639, Control_c, 0, 64, 127
1, 187642, Note_off_c, 0, 82, 64
1, 187643, Note_off_c, 0, 63, 64
1, 187649, Note_off_c, 0, 90, 62
1, 187670, Note_off_c, 0, 53, 63
1, 187674, Note_off_c, 0, 56, 64
1, 187680, Note_off_c, 0, 51, 64
1, 187680, Poly_aftertouch_c, 0, 54, 127
1, 187703, Note_on_c, 0, 65, 100
1, 187707, Note_on_c, 0, 84, 94
1, 187712, Note_on_c, 0, 96, 104
1, 187736, Note_off_c, 0, 65, 68
1, 187744, Note_off_c, 0, 84, 66
1, 187753, Note_off_c, 0, 96, 68
1, 187776, Poly_aftertouch_c, 0, 54, 0
1, 187810, Note_off_c, 0, 60, 41
1, 187820, Note_on_c, 0, 71, 107
1, 187820, Note_on_c, 0, 99, 101
1, 187822, Note_on_c, 0, 86, 97
1, 187843, Note_on_c, 0, 60, 56
1, 187850, Note_on_c, 0, 61, 35
1, 187891, Note_off_c, 0, 61, 31
1, 188253, Note_off_c, 0, 86, 0
1, 188293, Note_off_c, 0, 60, 8
1, 188298, Poly_aftertouch_c, 0, 86, 127
1, 188415, Poly_aftertouch_c, 0, 86, 0
1, 188508, Note_off_c, 0, 71, 50
1, 188942, Note_off_c, 0, 99, 46
1, 189201, Note_on_c, 0, 61, 107
1, 189211, Note_on_c, 0, 91, 92
1, 189212, Note_on_c, 0, 51, 87
1, 189212, Note_on_c, 0, 104, 91
1, 189214, Note_on_c, 0, 58, 81
1, 189214, Note_on_c, 0, 97, 84
1, 189217, Note_on_c, 0, 56, 80
1, 189225, Note_on_c, 0, 53, 75
1, 189225, Control_c, 0, 64, 99
1, 189240, Control_c, 0, 64, 75
1, 189254, Control_c, 0, 64, 43
1, 189269, Control_c, 0, 64, 0
1, 189299, Control_c, 0, 64, 61
1, 189313, Control_c, 0, 64, 73
1, 189328, Control_c, 0, 64, 88
1, 189343, Control_c, 0, 64, 127
1, 189417, Note_off_c, 0, 97, 63
1, 189418, Note_off_c, 0, 104, 53
1, 189463, Note_off_c, 0, 91, 60
1, 189471, Note_off_c, 0, 61, 62
1, 189601, Note_off_c, 0, 51, 62
1, 189648, Note_on_c, 0, 63, 104
1, 189659, Note_on_c, 0, 89, 87
1, 189659, Note_on_c, 0, 103, 88
1, 189663, Note_on_c, 0, 96, 87
1, 189762, Note_off_c, 0, 103, 62
1, 189802, Note_off_c, 0, 89, 63
1, 189808, Note_off_c, 0, 96, 62
1, 189814, Note_off_c, 0, 63, 58
1, 189973, Note_on_c, 0, 65, 104
1, 189984, Note_on_c, 0, 94, 85
1, 189986, Note_on_c, 0, 101, 89
1, 189989, Note_on_c, 0, 87, 87
1, 190040, Note_off_c, 0, 87, 64
1, 190092, Note_off_c, 0, 94, 61
1, 190102, Note_off_c, 0, 101, 64
1, 190135, Note_off_c, 0, 65, 61
1, 190311, Note_on_c, 0, 67, 100
1, 190314, Note_on_c, 0, 104, 97
1, 190314, Note_on_c, 0, 91, 95
1, 190317, Note_on_c, 0, 97, 96
1, 190343, Note_off_c, 0, 53, 0
1, 190350, Note_off_c, 0, 91, 67
1, 190364, Note_off_c, 0, 97, 65
1, 190364, Note_off_c, 0, 104, 66
1, 190380, Poly_aftertouch_c, 0, 53, 127
1, 190450, Note_off_c, 0, 67, 58
1, 190480, Note_off_c, 0, 58, 55
1, 190493, Note_off_c, 0, 56, 57
1, 190508, Poly_aftertouch_c, 0, 53, 0
1, 190752, Control_c, 0, 64, 98
1, 190753, Note_on_c, 0, 99, 100
1, 190756, Note_on_c, 0, 85, 92
1, 190757, Note_on_c, 0, 94, 88
1, 190758, Note_on_c, 0, 63, 108
1, 190767, Control_c, 0, 64, 74
1, 190768, Note_on_c, 0, 60, 76
1, 190781, Note_on_c, 0, 56, 63
1, 190782, Control_c, 0, 64, 58
1, 190782, Note_on_c, 0, 53, 61
1, 190784, Note_on_c, 0, 51, 60
1, 190795, Note_on_c, 0, 97, 37
1, 190797, Control_c, 0, 64, 61
1, 190812, Control_c, 0, 64, 70
1, 190824, Note_off_c, 0, 97, 58
1, 190826, Control_c, 0, 64, 88
1, 190841, Control_c, 0, 64, 127
1, 190851, Note_off_c, 0, 85, 62
1, 190854, Note_off_c, 0, 63, 63
1, 190860, Note_off_c, 0, 99, 64
1, 190881, Note_off_c, 0, 94, 59
1, 190887, Note_off_c, 0, 53, 62
1, 190895, Note_off_c, 0, 51, 64
1, 190902, Note_off_c, 0, 56, 65
1, 190922, Note_on_c, 0, 65, 102
1, 190925, Note_on_c, 0, 97, 97
1, 190927, Note_on_c, 0, 84, 88
1, 190966, Note_off_c, 0, 65, 66
1, 190966, Note_off_c, 0, 84, 64
1, 190978, Note_off_c, 0, 97, 64
1, 191045, Note_on_c, 0, 99, 98
1, 191046, Note_on_c, 0, 86, 97
1, 191051, Note_on_c, 0, 71, 112
1, 191081, Note_on_c, 0, 61, 37
1, 191082, Note_off_c, 0, 61, 127
1, 191385, Note_off_c, 0, 60, 29
1, 191641, Note_off_c, 0, 99, 44
1, 191795, Note_off_c, 0, 71, 48
1, 191986, Note_off_c, 0, 86, 43
1, 192418, Note_on_c, 0, 61, 109
1, 192425, Note_on_c, 0, 51, 82
1, 192428, Note_on_c, 0, 80, 91
1, 192428, Control_c, 0, 64, 108
1, 192431, Note_on_c, 0, 58, 76
1, 192433, Note_on_c, 0, 56, 75
1, 192433, Note_on_c, 0, 89, 84
1, 192433, Note_on_c, 0, 94, 81
1, 192440, Note_on_c, 0, 53, 72
1, 192443, Control_c, 0, 64, 82
1, 192458, Control_c, 0, 64, 65
1, 192472, Control_c, 0, 64, 48
1, 192487, Control_c, 0, 64, 62
1, 192502, Control_c, 0, 64, 72
1, 192516, Control_c, 0, 64, 86
1, 192531, Control_c, 0, 64, 117
1, 192545, Note_off_c, 0, 80, 63
1, 192546, Control_c, 0, 64, 127
1, 192592, Note_off_c, 0, 89, 57
1, 192642, Note_off_c, 0, 94, 59
1, 192694, Note_off_c, 0, 61, 59
1, 192866, Note_on_c, 0, 63, 108
1, 192878, Note_on_c, 0, 97, 87
1, 192879, Note_on_c, 0, 92, 90
1, 192881, Note_on_c, 0, 84, 82
1, 192952, Note_off_c, 0, 51, 39
1, 192978, Note_off_c, 0, 84, 61
1, 192992, Note_off_c, 0, 97, 64
1, 192994, Note_off_c, 0, 92, 65
1, 193030, Note_off_c, 0, 63, 59
1, 193180, Note_on_c, 0, 65, 102
1, 193191, Note_on_c, 0, 96, 94
1, 193192, Note_on_c, 0, 82, 96
1, 193193, Note_on_c, 0, 91, 93
1, 193297, Note_off_c, 0, 96, 61
1, 193310, Note_off_c, 0, 91, 62
1, 193337, Note_off_c, 0, 82, 63
1, 193339, Note_off_c, 0, 65, 61
1, 193484, Note_off_c, 0, 53, 38
1, 193510, Note_on_c, 0, 67, 105
1, 193510, Note_on_c, 0, 80, 95
1, 193510, Note_on_c, 0, 94, 94
1, 193512, Note_on_c, 0, 89, 96
1, 193555, Note_off_c, 0, 80, 65
1, 193561, Note_off_c, 0, 94, 67
1, 193562, Note_off_c, 0, 89, 62
1, 193662, Note_off_c, 0, 67, 50
1, 193683, Note_off_c, 0, 58, 60
1, 193699, Note_off_c, 0, 56, 57
1, 193940, Control_c, 0, 64, 106
1, 193955, Control_c, 0, 64, 79
1, 193957, Note_on_c, 0, 79, 96
1, 193960, Note_on_c, 0, 92, 98
1, 193963, Note_on_c, 0, 63, 102
1, 193963, Note_on_c, 0, 87, 87
1, 193969, Control_c, 0, 64, 60
1, 193982, Note_on_c, 0, 51, 69
1, 193982, Note_on_c, 0, 60, 63
1, 193984, Control_c, 0, 64, 0
1, 193985, Note_on_c, 0, 56, 65
1, 193999, Note_on_c, 0, 53, 52
1, 193999, Control_c, 0, 64, 52
1, 194014, Control_c, 0, 64, 71
1, 194029, Control_c, 0, 64, 91
1, 194039, Note_off_c, 0, 92, 64
1, 194044, Control_c, 0, 64, 127
1, 194048, Note_off_c, 0, 87, 63
1, 194049, Note_off_c, 0, 79, 64
1, 194067, Note_off_c, 0, 63, 63
1, 194095, Note_off_c, 0, 53, 62
1, 194122, Note_off_c, 0, 51, 63
1, 194128, Note_off_c, 0, 56, 62
1, 194142, Note_on_c, 0, 65, 96
1, 194148, Note_on_c, 0, 89, 99
1, 194151, Note_on_c, 0, 75, 94
1, 194189, Note_on_c, 0, 82, 40
1, 194190, Note_off_c, 0, 82, 127
1, 194193, Note_off_c, 0, 65, 64
1, 194201, Note_off_c, 0, 89, 64
1, 194204, Note_off_c, 0, 75, 65
1, 194282, Note_on_c, 0, 87, 97
1, 194283, Note_on_c, 0, 71, 104
1, 194292, Note_on_c, 0, 74, 86
1, 194306, Note_on_c, 0, 76, 77
1, 194320, Note_on_c, 0, 61, 18
1, 194326, Note_off_c, 0, 76, 58
1, 194338, Note_on_c, 0, 88, 22
1, 194378, Note_off_c, 0, 61, 26
1, 194380, Note_off_c, 0, 88, 42
1, 194435, Note_off_c, 0, 74, 0
1, 194435, Note_on_c, 0, 74, 8
1, 194802, Note_off_c, 0, 87, 33
1, 194839, Note_off_c, 0, 71, 50
1, 195029, Note_off_c, 0, 60, 43
1, 195215, Note_off_c, 0, 74, 46
1, 195529, Note_on_c, 0, 61, 97
1, 195536, Note_on_c, 0, 82, 77
1, 195539, Note_on_c, 0, 73, 82
1, 195540, Note_on_c, 0, 51, 72
1, 195541, Control_c, 0, 64, 115
1, 195542, Note_on_c, 0, 58, 73
1, 195542, Note_on_c, 0, 77, 74
1, 195543, Note_on_c, 0, 56, 73
1, 195546, Note_on_c, 0, 53, 66
1, 195556, Control_c, 0, 64, 86
1, 195571, Control_c, 0, 64, 68
1, 195586, Control_c, 0, 64, 0
1, 195615, Control_c, 0, 64, 42
1, 195630, Control_c, 0, 64, 63
1, 195645, Control_c, 0, 64, 71
1, 195660, Control_c, 0, 64, 80
1, 195674, Control_c, 0, 64, 96
1, 195689, Control_c, 0, 64, 127
1, 195729, Note_off_c, 0, 77, 61
1, 195742, Note_off_c, 0, 73, 59
1, 195805, Note_off_c, 0, 61, 62
1, 195805, Note_off_c, 0, 82, 53
1, 195984, Note_on_c, 0, 63, 99
1, 195985, Note_on_c, 0, 85, 83
1, 195987, Note_on_c, 0, 80, 79
1, 195995, Note_on_c, 0, 77, 72
1, 196014, Note_off_c, 0, 51, 63
1, 196103, Note_off_c, 0, 85, 62
1, 196115, Note_off_c, 0, 77, 61
1, 196143, Note_off_c, 0, 80, 56
1, 196175, Note_off_c, 0, 63, 59
1, 196305, Note_on_c, 0, 65, 97
1, 196322, Note_on_c, 0, 83, 77
1, 196324, Note_on_c, 0, 78, 76
1, 196330, Note_on_c, 0, 75, 73
1, 196438, Note_off_c, 0, 78, 59
1, 196444, Note_off_c, 0, 65, 68
1, 196444, Note_off_c, 0, 75, 61
1, 196447, Note_off_c, 0, 83, 54
1, 196663, Note_on_c, 0, 81, 83
1, 196664, Note_on_c, 0, 66, 99
1, 196667, Note_on_c, 0, 76, 83
1, 196670, Note_on_c, 0, 73, 81
1, 196702, Note_off_c, 0, 73, 58
1, 196714, Note_off_c, 0, 81, 62
1, 196721, Note_off_c, 0, 76, 63
1, 196801, Note_off_c, 0, 66, 53
1, 196821, Note_off_c, 0, 58, 51
1, 196840, Note_off_c, 0, 56, 56
1, 196863, Note_off_c, 0, 53, 43
1, 197173, Note_on_c, 0, 80, 83
1, 197176, Note_on_c, 0, 75, 79
1, 197179, Note_on_c, 0, 67, 76
1, 197179, Note_on_c, 0, 72, 77
1, 197186, Note_on_c, 0, 63, 70
1, 197187, Note_on_c, 0, 56, 72
1, 197193, Note_on_c, 0, 51, 68
1, 197193, Note_on_c, 0, 60, 71
1, 197196, Note_on_c, 0, 53, 66
1, 197248, Control_c, 0, 64, 104
1, 197269, Control_c, 0, 64, 89
1, 197284, Control_c, 0, 64, 74
1, 197299, Control_c, 0, 64, 60
1, 197314, Control_c, 0, 64, 0
1, 197403, Control_c, 0, 64, 40
1, 197418, Control_c, 0, 64, 59
1, 197433, Control_c, 0, 64, 64
1, 197447, Control_c, 0, 64, 67
1, 197462, Control_c, 0, 64, 71
1, 197477, Control_c, 0, 64, 76
1, 197492, Control_c, 0, 64, 83
1, 197507, Control_c, 0, 64, 92
1, 197521, Control_c, 0, 64, 100
1, 197536, Control_c, 0, 64, 108
1, 197551, Control_c, 0, 64, 127
1, 198112, Note_off_c, 0, 53, 30
1, 198260, Note_off_c, 0, 80, 40
1, 198285, Note_off_c, 0, 51, 43
1, 198326, Note_off_c, 0, 56, 35
1, 198326, Note_off_c, 0, 67, 24
1, 198410, Note_off_c, 0, 72, 42
1, 198481, Note_off_c, 0, 75, 42
1, 198482, Note_off_c, 0, 60, 44
1, 198528, Note_off_c, 0, 63, 49
1, 199152, Control_c, 0, 64, 126
1, 199166, Control_c, 0, 64, 116
1, 199181, Control_c, 0, 64, 111
1, 199194, Note_on_c, 0, 78, 80
1, 199197, Note_on_c, 0, 75, 44
1, 199197, Control_c, 0, 64, 107
1, 199212, Control_c, 0, 64, 103
1, 199226, Note_on_c, 0, 71, 48
1, 199227, Control_c, 0, 64, 99
1, 199231, Note_on_c, 0, 68, 43
1, 199234, Note_on_c, 0, 63, 42
1, 199236, Note_on_c, 0, 60, 37
1, 199242, Control_c, 0, 64, 93
1, 199257, Control_c, 0, 64, 84
1, 199271, Control_c, 0, 64, 75
1, 199286, Control_c, 0, 64, 68
1, 199291, Poly_aftertouch_c, 0, 74, 127
1, 199301, Control_c, 0, 64, 63
1, 199315, Control_c, 0, 64, 61
1, 199330, Control_c, 0, 64, 61
1, 199345, Control_c, 0, 64, 64
1, 199360, Control_c, 0, 64, 66
1, 199375, Control_c, 0, 64, 71
1, 199389, Control_c, 0, 64, 77
1, 199404, Control_c, 0, 64, 86
1, 199419, Control_c, 0, 64, 97
1, 199434, Control_c, 0, 64, 116
1, 199449, Control_c, 0, 64, 127
1, 199454, Note_off_c, 0, 71, 56
1, 199466, Note_off_c, 0, 78, 58
1, 199471, Note_off_c, 0, 60, 57
1, 199496, Note_off_c, 0, 63, 57
1, 199522, Poly_aftertouch_c, 0, 74, 0
1, 199528, Note_off_c, 0, 75, 58
1, 199558, Note_off_c, 0, 68, 36
1, 199669, Note_on_c, 0, 80, 90
1, 199693, Control_c, 0, 64, 102
1, 199698, Note_on_c, 0, 75, 48
1, 199704, Note_on_c, 0, 68, 47
1, 199707, Control_c, 0, 64, 89
1, 199711, Note_on_c, 0, 70, 40
1, 199711, Note_on_c, 0, 73, 47
1, 199717, Note_on_c, 0, 62, 36
1, 199719, Note_on_c, 0, 59, 43
1, 199722, Control_c, 0, 64, 79
1, 199737, Note_on_c, 0, 64, 38
1, 199737, Control_c, 0, 64, 73
1, 199752, Control_c, 0, 64, 70
1, 199758, Note_off_c, 0, 70, 0
1, 199758, Note_on_c, 0, 70, 16
1, 199782, Control_c, 0, 64, 72
1, 199797, Control_c, 0, 64, 79
1, 199812, Control_c, 0, 64, 90
1, 199826, Note_off_c, 0, 59, 59
1, 199826, Control_c, 0, 64, 117
1, 199841, Control_c, 0, 64, 127
1, 199847, Note_off_c, 0, 68, 51
1, 199851, Note_off_c, 0, 80, 58
1, 199857, Note_off_c, 0, 70, 54
1, 199861, Note_off_c, 0, 75, 55
1, 199862, Note_off_c, 0, 62, 52
1, 199869, Note_off_c, 0, 64, 60
1, 199888, Note_off_c, 0, 73, 44
1, 199982, Note_on_c, 0, 82, 93
1, 199985, Note_on_c, 0, 75, 62
1, 199998, Note_on_c, 0, 72, 58
1, 200006, Control_c, 0, 64, 91
1, 200008, Note_on_c, 0, 58, 51
1, 200011, Note_on_c, 0, 64, 53
1, 200012, Note_on_c, 0, 68, 46
1, 200017, Note_on_c, 0, 61, 49
1, 200020, Control_c, 0, 64, 79
1, 200028, Note_off_c, 0, 72, 56
1, 200035, Control_c, 0, 64, 75
1, 200065, Control_c, 0, 64, 79
1, 200070, Note_off_c, 0, 75, 62
1, 200080, Control_c, 0, 64, 90
1, 200095, Control_c, 0, 64, 109
1, 200105, Note_off_c, 0, 61, 60
1, 200110, Control_c, 0, 64, 127
1, 200110, Note_off_c, 0, 82, 62
1, 200115, Note_off_c, 0, 64, 56
1, 200130, Note_off_c, 0, 58, 37
1, 200131, Note_off_c, 0, 68, 48
1, 200241, Note_on_c, 0, 84, 85
1, 200265, Control_c, 0, 64, 118
1, 200269, Note_on_c, 0, 75, 67
1, 200280, Control_c, 0, 64, 92
1, 200280, Note_on_c, 0, 68, 56
1, 200287, Note_on_c, 0, 59, 52
1, 200289, Note_on_c, 0, 62, 45
1, 200294, Control_c, 0, 64, 76
1, 200296, Note_on_c, 0, 64, 39
1, 200304, Note_on_c, 0, 73, 41
1, 200309, Control_c, 0, 64, 67
1, 200324, Control_c, 0, 64, 64
1, 200335, Note_on_c, 0, 82, 18
1, 200339, Control_c, 0, 64, 64
1, 200354, Control_c, 0, 64, 68
1, 200357, Note_off_c, 0, 73, 0
1, 200357, Note_on_c, 0, 73, 5
1, 200369, Control_c, 0, 64, 74
1, 200381, Note_off_c, 0, 82, 53
1, 200384, Control_c, 0, 64, 85
1, 200395, Note_off_c, 0, 75, 58
1, 200399, Control_c, 0, 64, 103
1, 200404, Note_off_c, 0, 84, 63
1, 200405, Note_off_c, 0, 62, 60
1, 200407, Note_off_c, 0, 59, 56
1, 200413, Control_c, 0, 64, 127
1, 200429, Note_off_c, 0, 68, 53
1, 200443, Note_off_c, 0, 73, 43
1, 200574, Note_on_c, 0, 82, 85
1, 200590, Note_off_c, 0, 64, 54
1, 200603, Note_on_c, 0, 75, 48
1, 200612, Note_on_c, 0, 71, 48
1, 200616, Note_on_c, 0, 63, 47
1, 200616, Note_on_c, 0, 68, 38
1, 200619, Control_c, 0, 64, 107
1, 200622, Note_on_c, 0, 74, 47
1, 200631, Note_on_c, 0, 60, 37
1, 200634, Control_c, 0, 64, 92
1, 200649, Control_c, 0, 64, 81
1, 200663, Control_c, 0, 64, 72
1, 200678, Control_c, 0, 64, 65
1, 200693, Control_c, 0, 64, 63
1, 200708, Control_c, 0, 64, 64
1, 200723, Control_c, 0, 64, 66
1, 200737, Control_c, 0, 64, 70
1, 200752, Control_c, 0, 64, 76
1, 200767, Control_c, 0, 64, 87
1, 200783, Control_c, 0, 64, 100
1, 200798, Control_c, 0, 64, 127
1, 200809, Note_off_c, 0, 82, 63
1, 200825, Note_off_c, 0, 60, 60
1, 200825, Note_off_c, 0, 71, 62
1, 200844, Note_off_c, 0, 63, 56
1, 200846, Note_off_c, 0, 74, 64
1, 200865, Note_off_c, 0, 75, 60
1, 200871, Note_off_c, 0, 68, 49
1, 201038, Note_on_c, 0, 80, 77
1, 201063, Note_on_c, 0, 75, 42
1, 201070, Note_on_c, 0, 68, 38
1, 201078, Note_on_c, 0, 70, 44
1, 201078, Note_on_c, 0, 62, 39
1, 201084, Note_on_c, 0, 73, 43
1, 201100, Note_on_c, 0, 59, 37
1, 201100, Note_on_c, 0, 64, 37
1, 201116, Control_c, 0, 64, 108
1, 201131, Control_c, 0, 64, 100
1, 201146, Control_c, 0, 64, 93
1, 201160, Control_c, 0, 64, 86
1, 201175, Control_c, 0, 64, 78
1, 201190, Control_c, 0, 64, 71
1, 201205, Control_c, 0, 64, 65
1, 201220, Control_c, 0, 64, 63
1, 201234, Control_c, 0, 64, 62
1, 201249, Control_c, 0, 64, 62
1, 201264, Control_c, 0, 64, 62
1, 201279, Control_c, 0, 64, 64
1, 201293, Control_c, 0, 64, 68
1, 201308, Control_c, 0, 64, 72
1, 201323, Control_c, 0, 64, 78
1, 201338, Control_c, 0, 64, 87
1, 201353, Control_c, 0, 64, 96
1, 201368, Control_c, 0, 64, 105
1, 201382, Control_c, 0, 64, 116
1, 201397, Control_c, 0, 64, 127
1, 201534, Note_off_c, 0, 59, 52
1, 201559, Note_off_c, 0, 62, 59
1, 201570, Note_off_c, 0, 75, 55
1, 201581, Note_off_c, 0, 64, 42
1, 201586, Note_off_c, 0, 73, 60
1, 201620, Note_off_c, 0, 80, 53
1, 201627, Note_off_c, 0, 68, 37
1, 201692, Note_off_c, 0, 70, 56
1, 201855, Note_on_c, 0, 78, 80
1, 201863, Note_on_c, 0, 75, 58
1, 201865, Control_c, 0, 64, 109
1, 201880, Control_c, 0, 64, 95
1, 201890, Note_on_c, 0, 61, 47
1, 201890, Note_on_c, 0, 68, 46
1, 201890, Note_on_c, 0, 72, 48
1, 201895, Control_c, 0, 64, 86
1, 201898, Note_on_c, 0, 58, 43
1, 201899, Note_on_c, 0, 69, 48
1, 201909, Control_c, 0, 64, 77
1, 201922, Note_on_c, 0, 65, 31
1, 201924, Control_c, 0, 64, 71
1, 201939, Control_c, 0, 64, 69
1, 201969, Control_c, 0, 64, 71
1, 201983, Control_c, 0, 64, 76
1, 201998, Control_c, 0, 64, 83
1, 202013, Control_c, 0, 64, 95
1, 202017, Note_off_c, 0, 69, 58
1, 202028, Control_c, 0, 64, 111
1, 202042, Control_c, 0, 64, 127
1, 202049, Note_off_c, 0, 72, 59
1, 202081, Note_off_c, 0, 78, 56
1, 202095, Note_off_c, 0, 75, 61
1, 202097, Note_off_c, 0, 65, 43
1, 202120, Note_off_c, 0, 61, 58
1, 202122, Note_off_c, 0, 68, 53
1, 202149, Note_off_c, 0, 58, 35
1, 202272, Note_on_c, 0, 80, 93
1, 202280, Control_c, 0, 64, 109
1, 202284, Note_on_c, 0, 75, 67
1, 202292, Note_on_c, 0, 70, 67
1, 202295, Control_c, 0, 64, 88
1, 202298, Note_on_c, 0, 73, 62
1, 202301, Note_on_c, 0, 62, 45
1, 202301, Note_on_c, 0, 68, 54
1, 202304, Note_on_c, 0, 59, 50
1, 202309, Control_c, 0, 64, 78
1, 202313, Note_on_c, 0, 64, 48
1, 202324, Control_c, 0, 64, 72
1, 202339, Control_c, 0, 64, 71
1, 202354, Control_c, 0, 64, 73
1, 202369, Control_c, 0, 64, 79
1, 202384, Control_c, 0, 64, 89
1, 202399, Control_c, 0, 64, 103
1, 202405, Note_off_c, 0, 73, 52
1, 202406, Note_off_c, 0, 62, 59
1, 202408, Note_off_c, 0, 75, 56
1, 202414, Control_c, 0, 64, 127
1, 202422, Note_off_c, 0, 59, 50
1, 202427, Note_off_c, 0, 80, 54
1, 202454, Note_off_c, 0, 68, 51
1, 202476, Note_off_c, 0, 70, 54
1, 202566, Note_on_c, 0, 82, 97
1, 202569, Control_c, 0, 64, 103
1, 202573, Note_on_c, 0, 75, 71
1, 202577, Note_on_c, 0, 74, 77
1, 202581, Note_on_c, 0, 68, 65
1, 202584, Control_c, 0, 64, 81
1, 202586, Note_on_c, 0, 71, 72
1, 202593, Note_on_c, 0, 63, 63
1, 202594, Note_on_c, 0, 60, 59
1, 202599, Control_c, 0, 64, 72
1, 202614, Control_c, 0, 64, 70
1, 202628, Control_c, 0, 64, 72
1, 202634, Note_off_c, 0, 64, 39
1, 202643, Control_c, 0, 64, 77
1, 202658, Control_c, 0, 64, 85
1, 202665, Note_off_c, 0, 74, 61
1, 202673, Control_c, 0, 64, 102
1, 202686, Note_off_c, 0, 71, 56
1, 202688, Note_off_c, 0, 63, 57
1, 202688, Control_c, 0, 64, 127
1, 202691, Note_off_c, 0, 60, 62
1, 202698, Note_off_c, 0, 75, 61
1, 202702, Note_off_c, 0, 82, 61
1, 202747, Note_off_c, 0, 68, 50
1, 202819, Note_on_c, 0, 80, 90
1, 202821, Note_on_c, 0, 75, 83
1, 202821, Control_c, 0, 64, 108
1, 202822, Note_on_c, 0, 73, 85
1, 202829, Note_on_c, 0, 70, 81
1, 202837, Control_c, 0, 64, 89
1, 202842, Note_on_c, 0, 59, 60
1, 202842, Note_on_c, 0, 62, 62
1, 202844, Note_on_c, 0, 68, 62
1, 202851, Note_on_c, 0, 64, 55
1, 202852, Control_c, 0, 64, 83
1, 202866, Control_c, 0, 64, 83
1, 202881, Control_c, 0, 64, 89
1, 202896, Control_c, 0, 64, 98
1, 202905, Note_off_c, 0, 59, 57
1, 202909, Note_off_c, 0, 62, 60
1, 202911, Control_c, 0, 64, 114
1, 202922, Note_off_c, 0, 64, 51
1, 202926, Control_c, 0, 64, 127
1, 202933, Note_off_c, 0, 73, 58
1, 202936, Note_off_c, 0, 75, 57
1, 202952, Note_off_c, 0, 68, 53
1, 202977, Note_off_c, 0, 70, 57
1, 203017, Note_off_c, 0, 80, 39
1, 203089, Note_on_c, 0, 58, 80
1, 203096, Note_on_c, 0, 61, 76
1, 203103, Control_c, 0, 64, 100
1, 203117, Note_on_c, 0, 65, 76
1, 203118, Control_c, 0, 64, 78
1, 203132, Control_c, 0, 64, 63
1, 203147, Control_c, 0, 64, 55
1, 203162, Control_c, 0, 64, 64
1, 203174, Note_on_c, 0, 68, 87
1, 203178, Control_c, 0, 64, 74
1, 203185, Note_on_c, 0, 75, 84
1, 203192, Note_on_c, 0, 72, 83
1, 203193, Note_on_c, 0, 69, 87
1, 203193, Control_c, 0, 64, 92
1, 203208, Control_c, 0, 64, 127
1, 203209, Note_off_c, 0, 58, 64
1, 203213, Note_off_c, 0, 61, 63
1, 203218, Note_off_c, 0, 65, 62
1, 203234, Note_off_c, 0, 68, 64
1, 203389, Note_on_c, 0, 87, 110
1, 203423, Note_off_c, 0, 87, 68
1, 204257, Note_off_c, 0, 69, 38
1, 204290, Note_off_c, 0, 72, 52
1, 204435, Note_off_c, 0, 75, 39
1, 204778, Note_on_c, 0, 82, 95
1, 204787, Note_on_c, 0, 78, 59
1, 204808, Note_on_c, 0, 66, 53
1, 204808, Note_on_c, 0, 74, 55
1, 204811, Note_on_c, 0, 71, 54
1, 204816, Note_on_c, 0, 63, 56
1, 204830, Note_on_c, 0, 77, 29
1, 204846, Control_c, 0, 64, 99
1, 204860, Control_c, 0, 64, 84
1, 204873, Note_off_c, 0, 74, 0
1, 204873, Note_on_c, 0, 74, 28
1, 204875, Control_c, 0, 64, 76
1, 204890, Control_c, 0, 64, 72
1, 204905, Control_c, 0, 64, 73
1, 204920, Control_c, 0, 64, 76
1, 204925, Note_off_c, 0, 77, 0
1, 204934, Control_c, 0, 64, 83
1, 204949, Control_c, 0, 64, 92
1, 204962, Poly_aftertouch_c, 0, 77, 127
1, 204964, Control_c, 0, 64, 121
1, 204979, Control_c, 0, 64, 127
1, 205004, Note_off_c, 0, 66, 57
1, 205005, Note_off_c, 0, 74, 57
1, 205010, Poly_aftertouch_c, 0, 77, 0
1, 205019, Note_off_c, 0, 78, 58
1, 205033, Note_off_c, 0, 82, 60
1, 205064, Note_off_c, 0, 71, 37
1, 205196, Note_on_c, 0, 83, 99
1, 205207, Note_on_c, 0, 78, 69
1, 205207, Note_off_c, 0, 63, 58
1, 205210, Note_on_c, 0, 73, 81
1, 205213, Note_on_c, 0, 76, 79
1, 205214, Note_on_c, 0, 62, 66
1, 205216, Note_on_c, 0, 71, 64
1, 205216, Control_c, 0, 64, 105
1, 205222, Note_on_c, 0, 65, 62
1, 205230, Note_on_c, 0, 67, 60
1, 205231, Control_c, 0, 64, 82
1, 205246, Control_c, 0, 64, 65
1, 205260, Control_c, 0, 64, 61
1, 205275, Control_c, 0, 64, 65
1, 205290, Control_c, 0, 64, 72
1, 205305, Control_c, 0, 64, 83
1, 205319, Note_off_c, 0, 76, 57
1, 205319, Poly_aftertouch_c, 0, 80, 0
1, 205320, Control_c, 0, 64, 102
1, 205334, Control_c, 0, 64, 127
1, 205341, Note_off_c, 0, 78, 55
1, 205345, Note_off_c, 0, 73, 55
1, 205351, Note_off_c, 0, 62, 61
1, 205353, Note_off_c, 0, 83, 68
1, 205371, Note_off_c, 0, 67, 61
1, 205373, Note_off_c, 0, 65, 62
1, 205413, Note_off_c, 0, 71, 61
1, 205488, Note_on_c, 0, 78, 49
1, 205503, Note_on_c, 0, 85, 98
1, 205509, Note_on_c, 0, 75, 82
1, 205513, Note_on_c, 0, 61, 71
1, 205517, Note_on_c, 0, 72, 73
1, 205520, Note_on_c, 0, 68, 73
1, 205520, Control_c, 0, 64, 106
1, 205521, Note_on_c, 0, 64, 68
1, 205523, Note_on_c, 0, 71, 73
1, 205534, Control_c, 0, 64, 92
1, 205549, Control_c, 0, 64, 91
1, 205564, Control_c, 0, 64, 96
1, 205580, Control_c, 0, 64, 110
1, 205594, Control_c, 0, 64, 127
1, 205602, Note_off_c, 0, 72, 40
1, 205603, Note_off_c, 0, 78, 62
1, 205609, Note_off_c, 0, 75, 51
1, 205618, Note_off_c, 0, 61, 55
1, 205620, Note_off_c, 0, 68, 50
1, 205622, Note_off_c, 0, 64, 61
1, 205636, Note_off_c, 0, 71, 60
1, 205642, Note_off_c, 0, 85, 62
1, 205747, Note_on_c, 0, 87, 98
1, 205751, Note_on_c, 0, 78, 69
1, 205757, Control_c, 0, 64, 100
1, 205761, Note_on_c, 0, 85, 75
1, 205762, Note_on_c, 0, 71, 68
1, 205763, Note_on_c, 0, 62, 71
1, 205770, Note_on_c, 0, 65, 71
1, 205772, Control_c, 0, 64, 80
1, 205776, Note_on_c, 0, 77, 52
1, 205779, Note_on_c, 0, 86, 81
1, 205780, Note_on_c, 0, 67, 65
1, 205780, Note_on_c, 0, 76, 57
1, 205787, Control_c, 0, 64, 67
1, 205788, Note_off_c, 0, 85, 0
1, 205788, Note_on_c, 0, 85, 44
1, 205802, Control_c, 0, 64, 64
1, 205817, Control_c, 0, 64, 70
1, 205819, Note_off_c, 0, 76, 53
1, 205830, Note_off_c, 0, 85, 58
1, 205832, Control_c, 0, 64, 81
1, 205845, Note_off_c, 0, 87, 65
1, 205847, Control_c, 0, 64, 99
1, 205848, Note_off_c, 0, 86, 66
1, 205862, Control_c, 0, 64, 127
1, 205896, Note_off_c, 0, 62, 57
1, 205900, Note_off_c, 0, 65, 62
1, 205925, Note_off_c, 0, 71, 56
1, 205932, Note_off_c, 0, 78, 27
1, 205937, Note_off_c, 0, 77, 27
1, 206064, Note_on_c, 0, 85, 96
1, 206066, Note_on_c, 0, 78, 57
1, 206074, Note_on_c, 0, 77, 71
1, 206077, Note_off_c, 0, 67, 58
1, 206089, Note_on_c, 0, 66, 75
1, 206096, Note_on_c, 0, 63, 70
1, 206101, Note_on_c, 0, 71, 70
1, 206110, Note_on_c, 0, 74, 50
1, 206113, Control_c, 0, 64, 99
1, 206128, Control_c, 0, 64, 83
1, 206143, Control_c, 0, 64, 70
1, 206152, Note_off_c, 0, 74, 0
1, 206158, Control_c, 0, 64, 61
1, 206170, Note_on_c, 0, 74, 42
1, 206173, Control_c, 0, 64, 56
1, 206188, Control_c, 0, 64, 61
1, 206202, Control_c, 0, 64, 66
1, 206217, Control_c, 0, 64, 73
1, 206232, Control_c, 0, 64, 83
1, 206254, Control_c, 0, 64, 103
1, 206269, Control_c, 0, 64, 127
1, 206297, Note_off_c, 0, 77, 59
1, 206316, Note_off_c, 0, 85, 61
1, 206322, Note_off_c, 0, 74, 61
1, 206353, Note_off_c, 0, 63, 55
1, 206356, Note_off_c, 0, 66, 60
1, 206379, Note_off_c, 0, 78, 36
1, 206387, Note_off_c, 0, 71, 59
1, 206504, Note_on_c, 0, 83, 85
1, 206528, Note_on_c, 0, 78, 59
1, 206534, Note_on_c, 0, 71, 44
1, 206536, Note_on_c, 0, 62, 57
1, 206536, Note_on_c, 0, 73, 55
1, 206542, Note_on_c, 0, 65, 55
1, 206543, Note_on_c, 0, 76, 50
1, 206565, Note_on_c, 0, 67, 46
1, 206596, Control_c, 0, 64, 109
1, 206611, Control_c, 0, 64, 97
1, 206625, Control_c, 0, 64, 88
1, 206640, Control_c, 0, 64, 79
1, 206655, Control_c, 0, 64, 70
1, 206670, Control_c, 0, 64, 62
1, 206685, Control_c, 0, 64, 54
1, 206699, Control_c, 0, 64, 50
1, 206729, Control_c, 0, 64, 56
1, 206744, Control_c, 0, 64, 63
1, 206759, Control_c, 0, 64, 67
1, 206773, Control_c, 0, 64, 73
1, 206788, Control_c, 0, 64, 80
1, 206803, Control_c, 0, 64, 90
1, 206818, Control_c, 0, 64, 102
1, 206832, Control_c, 0, 64, 126
1, 206847, Control_c, 0, 64, 127
1, 206909, Note_off_c, 0, 62, 57
1, 206972, Note_off_c, 0, 83, 61
1, 206979, Note_off_c, 0, 76, 60
1, 207001, Note_off_c, 0, 78, 61
1, 207011, Note_off_c, 0, 67, 61
1, 207013, Note_off_c, 0, 65, 48
1, 207097, Note_off_c, 0, 71, 63
1, 207120, Note_off_c, 0, 73, 54
1, 207281, Note_on_c, 0, 82, 93
1, 207283, Note_on_c, 0, 78, 64
1, 207303, Note_on_c, 0, 75, 58
1, 207306, Note_on_c, 0, 72, 48
1, 207309, Note_on_c, 0, 68, 57
1, 207309, Note_on_c, 0, 71, 52
1, 207310, Note_on_c, 0, 61, 59
1, 207316, Note_on_c, 0, 64, 56
1, 207329, Control_c, 0, 64, 109
1, 207344, Control_c, 0, 64, 93
1, 207359, Control_c, 0, 64, 83
1, 207374, Control_c, 0, 64, 77
1, 207389, Control_c, 0, 64, 74
1, 207419, Control_c, 0, 64, 79
1, 207434, Control_c, 0, 64, 89
1, 207434, Note_off_c, 0, 72, 47
1, 207448, Control_c, 0, 64, 103
1, 207463, Control_c, 0, 64, 127
1, 207464, Note_off_c, 0, 75, 58
1, 207475, Note_off_c, 0, 78, 59
1, 207487, Note_off_c, 0, 64, 60
1, 207499, Note_off_c, 0, 82, 61
1, 207510, Note_off_c, 0, 61, 59
1, 207529, Note_off_c, 0, 68, 57
1, 207534, Note_off_c, 0, 71, 54
1, 207654, Note_on_c, 0, 83, 96
1, 207667, Note_on_c, 0, 78, 76
1, 207674, Note_on_c, 0, 76, 74
1, 207675, Note_on_c, 0, 73, 74
1, 207677, Note_on_c, 0, 71, 67
1, 207683, Note_on_c, 0, 62, 58
1, 207685, Control_c, 0, 64, 96
1, 207687, Note_on_c, 0, 65, 57
1, 207700, Control_c, 0, 64, 84
1, 207707, Note_on_c, 0, 67, 50
1, 207715, Control_c, 0, 64, 76
1, 207729, Control_c, 0, 64, 74
1, 207752, Control_c, 0, 64, 77
1, 207767, Control_c, 0, 64, 85
1, 207778, Note_off_c, 0, 62, 61
1, 207781, Note_off_c, 0, 76, 58
1, 207782, Control_c, 0, 64, 98
1, 207788, Note_off_c, 0, 65, 63
1, 207788, Note_off_c, 0, 83, 63
1, 207797, Control_c, 0, 64, 127
1, 207799, Note_off_c, 0, 78, 52
1, 207845, Note_off_c, 0, 71, 58
1, 207854, Note_off_c, 0, 73, 33
1, 207922, Note_on_c, 0, 85, 98
1, 207928, Note_on_c, 0, 63, 82
1, 207929, Control_c, 0, 64, 104
1, 207931, Note_on_c, 0, 66, 78
1, 207934, Note_on_c, 0, 77, 77
1, 207934, Note_on_c, 0, 78, 72
1, 207943, Note_on_c, 0, 71, 74
1, 207944, Control_c, 0, 64, 86
1, 207952, Note_on_c, 0, 74, 62
1, 207959, Control_c, 0, 64, 76
1, 207966, Note_off_c, 0, 67, 56
1, 207975, Control_c, 0, 64, 74
1, 207990, Control_c, 0, 64, 80
1, 208005, Control_c, 0, 64, 96
1, 208020, Control_c, 0, 64, 127
1, 208025, Note_off_c, 0, 74, 59
1, 208034, Note_off_c, 0, 77, 42
1, 208048, Note_off_c, 0, 78, 58
1, 208060, Note_off_c, 0, 85, 62
1, 208060, Note_off_c, 0, 63, 55
1, 208063, Note_off_c, 0, 66, 58
1, 208102, Note_off_c, 0, 71, 28
1, 208142, Note_on_c, 0, 83, 95
1, 208149, Note_on_c, 0, 62, 81
1, 208152, Note_on_c, 0, 76, 85
1, 208152, Control_c, 0, 64, 91
1, 208152, Note_on_c, 0, 71, 63
1, 208155, Note_on_c, 0, 78, 76
1, 208161, Note_on_c, 0, 73, 75
1, 208163, Note_on_c, 0, 65, 62
1, 208167, Note_on_c, 0, 67, 60
1, 208167, Control_c, 0, 64, 76
1, 208182, Control_c, 0, 64, 73
1, 208194, Note_on_c, 0, 80, 39
1, 208197, Control_c, 0, 64, 80
1, 208203, Note_off_c, 0, 67, 63
1, 208212, Control_c, 0, 64, 92
1, 208214, Note_off_c, 0, 62, 61
1, 208218, Note_off_c, 0, 65, 61
1, 208226, Control_c, 0, 64, 114
1, 208230, Note_off_c, 0, 76, 57
1, 208241, Control_c, 0, 64, 127
1, 208242, Note_off_c, 0, 80, 44
1, 208250, Note_off_c, 0, 78, 60
1, 208271, Note_off_c, 0, 71, 50
1, 208277, Note_off_c, 0, 73, 59
1, 208305, Note_off_c, 0, 83, 62
1, 208307, Note_on_c, 0, 61, 82
1, 208335, Note_on_c, 0, 64, 67
1, 208345, Control_c, 0, 64, 91
1, 208349, Note_on_c, 0, 63, 60
1, 208359, Control_c, 0, 64, 72
1, 208373, Note_on_c, 0, 68, 84
1, 208374, Control_c, 0, 64, 68
1, 208376, Note_off_c, 0, 63, 46
1, 208389, Control_c, 0, 64, 74
1, 208403, Control_c, 0, 64, 90
1, 208408, Note_off_c, 0, 61, 64
1, 208413, Note_on_c, 0, 71, 91
1, 208414, Note_off_c, 0, 64, 63
1, 208418, Control_c, 0, 64, 127
1, 208433, Note_off_c, 0, 68, 64
1, 208446, Note_off_c, 0, 71, 67
1, 208459, Note_on_c, 0, 78, 93
1, 208461, Note_on_c, 0, 72, 94
1, 208462, Note_on_c, 0, 75, 93
1, 208632, Note_on_c, 0, 90, 117
1, 208658, Note_off_c, 0, 90, 66
1, 209449, Note_off_c, 0, 72, 47
1, 209572, Note_off_c, 0, 75, 38
1, 209591, Note_off_c, 0, 78, 55
1, 210076, Note_on_c, 0, 64, 100
1, 210082, Note_on_c, 0, 61, 85
1, 210086, Note_on_c, 0, 54, 84
1, 210087, Note_on_c, 0, 59, 81
1, 210093, Note_on_c, 0, 56, 80
1, 210102, Note_on_c, 0, 76, 82
1, 210102, Note_on_c, 0, 90, 87
1, 210102, Control_c, 0, 64, 91
1, 210104, Note_on_c, 0, 83, 79
1, 210117, Control_c, 0, 64, 70
1, 210131, Control_c, 0, 64, 0
1, 210161, Control_c, 0, 64, 21
1, 210176, Control_c, 0, 64, 66
1, 210191, Control_c, 0, 64, 84
1, 210191, Note_off_c, 0, 76, 59
1, 210206, Control_c, 0, 64, 120
1, 210221, Control_c, 0, 64, 127
1, 210221, Note_off_c, 0, 90, 59
1, 210255, Note_off_c, 0, 83, 62
1, 210291, Note_off_c, 0, 64, 62
1, 210579, Note_on_c, 0, 66, 109
1, 210593, Note_on_c, 0, 85, 80
1, 210593, Note_on_c, 0, 92, 83
1, 210601, Note_on_c, 0, 78, 74
1, 210638, Note_off_c, 0, 54, 38
1, 210658, Note_off_c, 0, 78, 62
1, 210668, Note_off_c, 0, 85, 62
1, 210680, Note_off_c, 0, 92, 65
1, 210762, Note_off_c, 0, 66, 61
1, 210899, Note_on_c, 0, 68, 109
1, 210901, Note_on_c, 0, 95, 97
1, 210903, Note_on_c, 0, 82, 93
1, 210906, Note_on_c, 0, 88, 93
1, 210912, Note_off_c, 0, 56, 15
1, 210927, Note_off_c, 0, 61, 61
1, 210968, Note_off_c, 0, 82, 58
1, 210971, Note_off_c, 0, 88, 62
1, 210976, Note_off_c, 0, 95, 65
1, 210984, Note_off_c, 0, 68, 59
1, 211218, Note_on_c, 0, 70, 111
1, 211219, Note_on_c, 0, 90, 98
1, 211220, Note_on_c, 0, 83, 96
1, 211220, Note_on_c, 0, 97, 102
1, 211246, Note_off_c, 0, 83, 62
1, 211253, Note_off_c, 0, 59, 0
1, 211265, Note_off_c, 0, 97, 66
1, 211266, Note_off_c, 0, 90, 65
1, 211290, Poly_aftertouch_c, 0, 59, 127
1, 211323, Note_off_c, 0, 70, 55
1, 211407, Poly_aftertouch_c, 0, 59, 0
1, 211644, Control_c, 0, 64, 104
1, 211658, Note_on_c, 0, 66, 99
1, 211659, Control_c, 0, 64, 96
1, 211667, Note_on_c, 0, 63, 76
1, 211669, Note_on_c, 0, 99, 98
1, 211670, Note_on_c, 0, 85, 102
1, 211674, Control_c, 0, 64, 96
1, 211678, Note_on_c, 0, 54, 67
1, 211681, Note_on_c, 0, 56, 60
1, 211689, Control_c, 0, 64, 103
1, 211693, Note_on_c, 0, 59, 42
1, 211693, Note_on_c, 0, 87, 63
1, 211698, Note_on_c, 0, 97, 49
1, 211699, Note_off_c, 0, 97, 127
1, 211703, Control_c, 0, 64, 127
1, 211713, Note_off_c, 0, 87, 66
1, 211723, Note_off_c, 0, 85, 61
1, 211732, Note_off_c, 0, 66, 62
1, 211747, Note_off_c, 0, 99, 63
1, 211767, Note_off_c, 0, 63, 60
1, 211786, Note_off_c, 0, 56, 63
1, 211787, Note_off_c, 0, 54, 64
1, 211795, Note_on_c, 0, 68, 100
1, 211804, Note_on_c, 0, 63, 39
1, 211804, Note_on_c, 0, 87, 92
1, 211809, Note_on_c, 0, 99, 85
1, 211813, Note_off_c, 0, 59, 41
1, 211823, Note_on_c, 0, 101, 76
1, 211825, Note_on_c, 0, 100, 73
1, 211826, Note_off_c, 0, 63, 63
1, 211839, Note_off_c, 0, 68, 63
1, 211842, Note_off_c, 0, 100, 65
1, 211844, Note_off_c, 0, 101, 64
1, 211849, Note_off_c, 0, 87, 65
1, 211853, Note_off_c, 0, 99, 66
1, 211920, Note_on_c, 0, 102, 108
1, 211923, Note_on_c, 0, 74, 111
1, 211925, Note_on_c, 0, 89, 97
1, 211944, Note_on_c, 0, 90, 49
1, 211955, Note_on_c, 0, 70, 62
1, 211965, Note_on_c, 0, 103, 38
1, 211973, Note_off_c, 0, 90, 35
1, 211976, Note_off_c, 0, 70, 64
1, 211994, Note_off_c, 0, 103, 35
1, 212364, Note_off_c, 0, 89, 27
1, 212678, Note_off_c, 0, 74, 60
1, 212984, Note_off_c, 0, 102, 39
1, 213274, Note_on_c, 0, 64, 100
1, 213282, Note_on_c, 0, 61, 82
1, 213286, Note_on_c, 0, 54, 85
1, 213288, Note_on_c, 0, 56, 80
1, 213288, Note_on_c, 0, 59, 78
1, 213288, Note_on_c, 0, 94, 90
1, 213288, Note_on_c, 0, 107, 91
1, 213294, Note_on_c, 0, 100, 84
1, 213305, Control_c, 0, 64, 94
1, 213320, Control_c, 0, 64, 68
1, 213334, Control_c, 0, 64, 35
1, 213348, Control_c, 0, 64, 36
1, 213363, Control_c, 0, 64, 62
1, 213378, Control_c, 0, 64, 72
1, 213393, Control_c, 0, 64, 88
1, 213407, Control_c, 0, 64, 127
1, 213478, Note_off_c, 0, 107, 54
1, 213497, Note_off_c, 0, 100, 63
1, 213508, Note_off_c, 0, 64, 62
1, 213508, Note_off_c, 0, 94, 64
1, 213756, Note_on_c, 0, 66, 101
1, 213767, Note_on_c, 0, 105, 79
1, 213768, Note_on_c, 0, 92, 80
1, 213771, Note_on_c, 0, 107, 87
1, 213830, Note_off_c, 0, 107, 61
1, 213855, Note_off_c, 0, 105, 63
1, 213877, Note_off_c, 0, 92, 66
1, 213894, Note_off_c, 0, 54, 49
1, 213936, Note_off_c, 0, 66, 63
1, 214075, Note_on_c, 0, 68, 104
1, 214078, Note_off_c, 0, 56, 63
1, 214083, Note_on_c, 0, 90, 95
1, 214085, Note_on_c, 0, 104, 98
1, 214137, Note_off_c, 0, 90, 65
1, 214162, Note_off_c, 0, 104, 65
1, 214201, Note_off_c, 0, 68, 68
1, 214388, Note_on_c, 0, 70, 107
1, 214392, Note_on_c, 0, 107, 92
1, 214396, Note_on_c, 0, 94, 96
1, 214397, Note_on_c, 0, 100, 89
1, 214436, Note_off_c, 0, 94, 65
1, 214437, Note_off_c, 0, 107, 65
1, 214445, Note_off_c, 0, 100, 64
1, 214490, Note_off_c, 0, 61, 58
1, 214495, Note_off_c, 0, 70, 57
1, 214535, Note_off_c, 0, 59, 56
1, 214803, Control_c, 0, 64, 103
1, 214808, Note_on_c, 0, 66, 106
1, 214814, Note_on_c, 0, 90, 96
1, 214817, Control_c, 0, 64, 81
1, 214821, Note_on_c, 0, 63, 72
1, 214821, Note_on_c, 0, 104, 84
1, 214822, Note_on_c, 0, 99, 77
1, 214825, Note_on_c, 0, 102, 82
1, 214829, Note_on_c, 0, 56, 66
1, 214832, Control_c, 0, 64, 69
1, 214832, Note_on_c, 0, 54, 69
1, 214844, Note_on_c, 0, 59, 52
1, 214846, Control_c, 0, 64, 70
1, 214861, Control_c, 0, 64, 79
1, 214864, Note_off_c, 0, 104, 65
1, 214876, Control_c, 0, 64, 103
1, 214891, Control_c, 0, 64, 127
1, 214895, Note_off_c, 0, 99, 35
1, 214897, Note_off_c, 0, 90, 62
1, 214906, Note_off_c, 0, 102, 58
1, 214924, Note_off_c, 0, 66, 57
1, 214957, Note_off_c, 0, 63, 60
1, 214971, Note_off_c, 0, 59, 60
1, 214972, Note_off_c, 0, 56, 64
1, 214976, Note_off_c, 0, 54, 64
1, 214987, Note_on_c, 0, 68, 95
1, 214993, Note_on_c, 0, 88, 88
1, 214996, Note_on_c, 0, 99, 84
1, 215012, Note_on_c, 0, 101, 70
1, 215019, Note_on_c, 0, 69, 64
1, 215021, Note_off_c, 0, 99, 60
1, 215031, Note_off_c, 0, 68, 66
1, 215033, Note_off_c, 0, 88, 63
1, 215035, Note_off_c, 0, 101, 68
1, 215037, Note_on_c, 0, 100, 39
1, 215038, Note_off_c, 0, 69, 65
1, 215068, Note_off_c, 0, 100, 56
1, 215118, Note_on_c, 0, 74, 102
1, 215119, Note_on_c, 0, 102, 104
1, 215121, Note_on_c, 0, 89, 97
1, 215503, Note_off_c, 0, 102, 45
1, 215763, Note_off_c, 0, 74, 56
1, 216012, Note_off_c, 0, 89, 56
1, 216401, Note_on_c, 0, 64, 99
1, 216410, Note_on_c, 0, 92, 87
1, 216411, Note_on_c, 0, 61, 84
1, 216411, Note_on_c, 0, 83, 86
1, 216415, Note_on_c, 0, 97, 88
1, 216418, Note_on_c, 0, 54, 74
1, 216418, Note_on_c, 0, 56, 72
1, 216418, Note_on_c, 0, 59, 81
1, 216418, Control_c, 0, 64, 119
1, 216433, Control_c, 0, 64, 84
1, 216448, Control_c, 0, 64, 64
1, 216463, Control_c, 0, 64, 0
1, 216493, Control_c, 0, 64, 58
1, 216500, Note_off_c, 0, 83, 58
1, 216508, Control_c, 0, 64, 69
1, 216522, Control_c, 0, 64, 82
1, 216537, Control_c, 0, 64, 102
1, 216552, Control_c, 0, 64, 127
1, 216597, Note_off_c, 0, 92, 63
1, 216620, Note_off_c, 0, 97, 65
1, 216644, Note_off_c, 0, 64, 66
1, 216854, Note_on_c, 0, 66, 105
1, 216857, Note_on_c, 0, 100, 86
1, 216859, Note_on_c, 0, 87, 85
1, 216859, Note_on_c, 0, 95, 87
1, 216969, Note_off_c, 0, 100, 62
1, 216982, Note_off_c, 0, 54, 55
1, 217005, Note_off_c, 0, 87, 61
1, 217005, Note_off_c, 0, 95, 63
1, 217034, Note_off_c, 0, 66, 63
1, 217104, Note_off_c, 0, 56, 36
1, 217166, Note_on_c, 0, 68, 110
1, 217179, Note_on_c, 0, 94, 89
1, 217180, Note_on_c, 0, 99, 96
1, 217181, Note_on_c, 0, 85, 93
1, 217278, Note_off_c, 0, 99, 64
1, 217287, Note_off_c, 0, 94, 63
1, 217290, Note_off_c, 0, 85, 62
1, 217298, Note_off_c, 0, 68, 63
1, 217451, Note_off_c, 0, 61, 35
1, 217469, Note_on_c, 0, 70, 109
1, 217474, Note_on_c, 0, 83, 95
1, 217475, Note_on_c, 0, 92, 96
1, 217476, Note_on_c, 0, 97, 95
1, 217513, Note_off_c, 0, 83, 67
1, 217523, Note_off_c, 0, 97, 67
1, 217535, Note_off_c, 0, 92, 66
1, 217566, Note_off_c, 0, 70, 59
1, 217616, Note_off_c, 0, 59, 54
1, 217857, Control_c, 0, 64, 106
1, 217872, Control_c, 0, 64, 82
1, 217879, Note_on_c, 0, 95, 106
1, 217879, Note_on_c, 0, 82, 96
1, 217881, Note_on_c, 0, 66, 96
1, 217887, Control_c, 0, 64, 69
1, 217893, Note_on_c, 0, 63, 74
1, 217902, Control_c, 0, 64, 68
1, 217904, Note_on_c, 0, 54, 60
1, 217904, Note_on_c, 0, 56, 60
1, 217917, Control_c, 0, 64, 73
1, 217921, Note_on_c, 0, 59, 46
1, 217931, Control_c, 0, 64, 87
1, 217934, Note_off_c, 0, 95, 57
1, 217946, Control_c, 0, 64, 127
1, 217953, Note_off_c, 0, 82, 56
1, 217988, Note_off_c, 0, 66, 60
1, 218052, Note_off_c, 0, 59, 59
1, 218053, Note_off_c, 0, 54, 63
1, 218058, Note_off_c, 0, 56, 63
1, 218065, Note_on_c, 0, 68, 98
1, 218067, Note_on_c, 0, 92, 102
1, 218070, Note_on_c, 0, 79, 95
1, 218099, Note_on_c, 0, 66, 34
1, 218106, Note_off_c, 0, 63, 46
1, 218110, Note_off_c, 0, 68, 64
1, 218111, Note_off_c, 0, 79, 62
1, 218120, Note_off_c, 0, 66, 65
1, 218129, Note_off_c, 0, 92, 65
1, 218210, Note_on_c, 0, 74, 107
1, 218210, Note_on_c, 0, 90, 100
1, 218216, Note_on_c, 0, 77, 88
1, 218350, Note_off_c, 0, 77, 0
1, 218350, Note_on_c, 0, 77, 24
1, 218586, Note_off_c, 0, 90, 63
1, 218767, Note_off_c, 0, 74, 57
1, 218982, Note_off_c, 0, 77, 44
1, 219244, Note_on_c, 0, 64, 93
1, 219247, Note_on_c, 0, 85, 92
1, 219249, Note_on_c, 0, 80, 90
1, 219253, Note_on_c, 0, 61, 84
1, 219253, Note_on_c, 0, 76, 91
1, 219257, Note_on_c, 0, 59, 81
1, 219259, Note_on_c, 0, 56, 75
1, 219260, Note_on_c, 0, 54, 76
1, 219266, Control_c, 0, 64, 89
1, 219281, Control_c, 0, 64, 71
1, 219296, Control_c, 0, 64, 53
1, 219310, Control_c, 0, 64, 40
1, 219325, Control_c, 0, 64, 62
1, 219340, Control_c, 0, 64, 70
1, 219354, Control_c, 0, 64, 81
1, 219360, Note_off_c, 0, 76, 62
1, 219369, Control_c, 0, 64, 97
1, 219384, Control_c, 0, 64, 127
1, 219417, Note_off_c, 0, 80, 59
1, 219443, Note_off_c, 0, 85, 60
1, 219455, Note_off_c, 0, 64, 62
1, 219643, Note_on_c, 0, 83, 84
1, 219645, Note_on_c, 0, 88, 90
1, 219646, Note_on_c, 0, 79, 89
1, 219651, Note_on_c, 0, 66, 99
1, 219712, Note_off_c, 0, 79, 61
1, 219712, Note_off_c, 0, 88, 63
1, 219748, Note_off_c, 0, 83, 65
1, 219816, Note_off_c, 0, 66, 61
1, 219908, Note_off_c, 0, 54, 30
1, 219962, Note_on_c, 0, 78, 95
1, 219962, Note_on_c, 0, 86, 88
1, 219964, Note_on_c, 0, 81, 94
1, 219969, Note_on_c, 0, 68, 95
1, 220008, Note_on_c, 0, 66, 38
1, 220018, Note_off_c, 0, 78, 61
1, 220022, Note_off_c, 0, 86, 61
1, 220028, Note_off_c, 0, 81, 59
1, 220045, Note_off_c, 0, 66, 51
1, 220127, Note_off_c, 0, 68, 59
1, 220275, Note_on_c, 0, 76, 100
1, 220275, Note_on_c, 0, 84, 98
1, 220278, Note_on_c, 0, 79, 91
1, 220287, Note_on_c, 0, 69, 91
1, 220315, Note_off_c, 0, 76, 64
1, 220318, Note_off_c, 0, 84, 67
1, 220322, Note_off_c, 0, 79, 63
1, 220376, Note_off_c, 0, 61, 56
1, 220387, Note_off_c, 0, 69, 61
1, 220395, Note_off_c, 0, 59, 55
1, 220417, Note_off_c, 0, 56, 58
1, 220742, Note_on_c, 0, 70, 89
1, 220755, Note_on_c, 0, 83, 76
1, 220758, Note_on_c, 0, 75, 78
1, 220759, Note_on_c, 0, 78, 76
1, 220770, Note_on_c, 0, 66, 67
1, 220780, Note_on_c, 0, 63, 57
1, 220788, Note_on_c, 0, 56, 54
1, 220788, Note_on_c, 0, 59, 52
1, 220790, Note_on_c, 0, 54, 53
1, 220808, Control_c, 0, 64, 100
1, 220823, Control_c, 0, 64, 83
1, 220838, Control_c, 0, 64, 71
1, 220853, Control_c, 0, 64, 61
1, 220868, Control_c, 0, 64, 31
1, 220882, Control_c, 0, 64, 0
1, 221045, Control_c, 0, 64, 58
1, 221060, Control_c, 0, 64, 66
1, 221074, Control_c, 0, 64, 71
1, 221089, Control_c, 0, 64, 78
1, 221104, Control_c, 0, 64, 86
1, 221119, Control_c, 0, 64, 95
1, 221134, Control_c, 0, 64, 102
1, 221149, Control_c, 0, 64, 109
1, 221164, Control_c, 0, 64, 118
1, 221179, Control_c, 0, 64, 127
1, 221909, Note_off_c, 0, 83, 32
1, 222238, Note_off_c, 0, 66, 38
1, 222262, Note_off_c, 0, 70, 62
1, 222266, Note_off_c, 0, 78, 61
1, 222267, Note_off_c, 0, 75, 61
1, 222273, Note_off_c, 0, 59, 60
1, 222273, Note_off_c, 0, 63, 60
1, 222276, Control_c, 0, 67, 12
1, 222286, Note_off_c, 0, 56, 63
1, 222291, Control_c, 0, 64, 105
1, 222291, Control_c, 0, 67, 25
1, 222302, Note_off_c, 0, 54, 64
1, 222305, Control_c, 0, 64, 83
1, 222305, Control_c, 0, 67, 40
1, 222320, Control_c, 0, 64, 67
1, 222320, Control_c, 0, 67, 54
1, 222335, Control_c, 0, 64, 44
1, 222335, Control_c, 0, 67, 65
1, 222351, Control_c, 0, 64, 0
1, 222351, Control_c, 0, 67, 75
1, 222366, Control_c, 0, 67, 84
1, 222380, Control_c, 0, 67, 92
1, 222395, Control_c, 0, 67, 101
1, 222410, Control_c, 0, 67, 108
1, 222425, Control_c, 0, 67, 113
1, 222440, Control_c, 0, 67, 116
1, 222454, Control_c, 0, 64, 21
1, 222454, Control_c, 0, 67, 118
1, 222469, Control_c, 0, 64, 26
1, 222469, Control_c, 0, 67, 119
1, 222484, Control_c, 0, 67, 121
1, 222499, Control_c, 0, 67, 122
1, 222514, Control_c, 0, 67, 123
1, 222529, Control_c, 0, 67, 123
1, 222544, Control_c, 0, 67, 124
1, 222592, Note_on_c, 0, 63, 75
1, 222615, Note_on_c, 0, 54, 52
1, 222618, Control_c, 0, 64, 27
1, 222621, Note_on_c, 0, 59, 53
1, 222662, Control_c, 0, 64, 28
1, 222677, Control_c, 0, 64, 30
1, 222708, Note_off_c, 0, 59, 54
1, 222744, Control_c, 0, 64, 31
1, 222759, Control_c, 0, 64, 32
1, 222773, Control_c, 0, 64, 34
1, 222774, Note_off_c, 0, 54, 61
1, 222787, Note_off_c, 0, 63, 58
1, 222788, Control_c, 0, 64, 35
1, 222818, Control_c, 0, 64, 36
1, 222833, Control_c, 0, 67, 123
1, 222854, Note_on_c, 0, 53, 55
1, 222864, Note_on_c, 0, 62, 63
1, 222865, Note_on_c, 0, 63, 65
1, 222874, Note_on_c, 0, 57, 23
1, 222877, Control_c, 0, 67, 123
1, 222884, Note_off_c, 0, 53, 66
1, 222893, Note_off_c, 0, 63, 66
1, 222894, Note_off_c, 0, 62, 64
1, 222915, Note_off_c, 0, 57, 42
1, 222951, Control_c, 0, 67, 122
1, 222982, Note_on_c, 0, 56, 52
1, 222982, Note_on_c, 0, 51, 54
1, 222982, Note_on_c, 0, 63, 67
1, 222995, Control_c, 0, 64, 36
1, 223000, Note_on_c, 0, 60, 43
1, 223015, Note_off_c, 0, 56, 62
1, 223015, Note_off_c, 0, 63, 63
1, 223025, Control_c, 0, 67, 122
1, 223027, Note_off_c, 0, 60, 59
1, 223030, Note_off_c, 0, 51, 59
1, 223040, Control_c, 0, 64, 37
1, 223069, Control_c, 0, 64, 38
1, 223069, Control_c, 0, 67, 121
1, 223083, Control_c, 0, 67, 121
1, 223098, Control_c, 0, 67, 120
1, 223106, Note_on_c, 0, 63, 76
1, 223112, Note_on_c, 0, 54, 50
1, 223121, Note_on_c, 0, 59, 42
1, 223128, Control_c, 0, 67, 120
1, 223138, Note_off_c, 0, 63, 62
1, 223143, Control_c, 0, 67, 119
1, 223146, Note_off_c, 0, 54, 63
1, 223152, Note_off_c, 0, 59, 51
1, 223173, Control_c, 0, 67, 119
1, 223188, Control_c, 0, 67, 118
1, 223203, Control_c, 0, 67, 118
1, 223230, Note_on_c, 0, 53, 58
1, 223230, Note_on_c, 0, 63, 69
1, 223246, Note_on_c, 0, 57, 36
1, 223252, Note_on_c, 0, 62, 33
1, 223260, Note_off_c, 0, 63, 64
1, 223261, Note_off_c, 0, 53, 66
1, 223262, Control_c, 0, 64, 37
1, 223262, Control_c, 0, 67, 117
1, 223279, Note_off_c, 0, 57, 49
1, 223285, Note_off_c, 0, 62, 47
1, 223292, Control_c, 0, 67, 117
1, 223307, Control_c, 0, 64, 35
1, 223321, Control_c, 0, 64, 34
1, 223336, Control_c, 0, 64, 32
1, 223351, Control_c, 0, 64, 29
1, 223352, Note_on_c, 0, 63, 64
1, 223354, Note_on_c, 0, 60, 56
1, 223358, Note_on_c, 0, 51, 55
1, 223358, Note_on_c, 0, 56, 55
1, 223366, Control_c, 0, 64, 17
1, 223381, Note_off_c, 0, 63, 65
1, 223381, Control_c, 0, 64, 0
1, 223386, Note_off_c, 0, 60, 65
1, 223393, Note_off_c, 0, 56, 65
1, 223396, Note_off_c, 0, 51, 62
1, 223410, Control_c, 0, 67, 117
1, 223498, Note_on_c, 0, 54, 63
1, 223503, Note_on_c, 0, 59, 56
1, 223504, Note_on_c, 0, 63, 64
1, 223504, Note_on_c, 0, 66, 67
1, 223507, Control_c, 0, 64, 50
1, 223522, Control_c, 0, 64, 65
1, 223532, Note_off_c, 0, 54, 67
1, 223536, Control_c, 0, 64, 71
1, 223540, Note_off_c, 0, 59, 63
1, 223551, Control_c, 0, 64, 79
1, 223566, Control_c, 0, 64, 88
1, 223569, Note_off_c, 0, 63, 61
1, 223581, Control_c, 0, 64, 96
1, 223581, Note_off_c, 0, 66, 62
1, 223596, Control_c, 0, 64, 100
1, 223655, Control_c, 0, 67, 118
1, 223670, Control_c, 0, 64, 101
1, 223684, Control_c, 0, 64, 102
1, 223699, Control_c, 0, 67, 118
1, 223773, Control_c, 0, 67, 118
1, 223802, Control_c, 0, 67, 117
1, 223817, Note_on_c, 0, 78, 67
1, 223817, Control_c, 0, 67, 117
1, 223826, Note_on_c, 0, 80, 72
1, 223832, Note_on_c, 0, 86, 79
1, 223842, Note_on_c, 0, 87, 91
1, 223847, Note_on_c, 0, 89, 91
1, 223847, Control_c, 0, 67, 116
1, 223854, Note_on_c, 0, 83, 78
1, 223854, Note_on_c, 0, 84, 86
1, 223857, Note_on_c, 0, 90, 92
1, 223860, Note_on_c, 0, 81, 68
1, 223874, Note_off_c, 0, 89, 64
1, 223880, Note_off_c, 0, 90, 67
1, 223881, Note_off_c, 0, 86, 66
1, 223885, Note_off_c, 0, 83, 62
1, 223887, Note_off_c, 0, 84, 63
1, 223891, Note_off_c, 0, 78, 58
1, 223893, Note_off_c, 0, 87, 64
1, 223896, Note_off_c, 0, 81, 64
1, 223906, Control_c, 0, 64, 101
1, 223906, Control_c, 0, 67, 117
1, 223910, Note_off_c, 0, 80, 59
1, 223921, Control_c, 0, 64, 98
1, 223921, Control_c, 0, 67, 118
1, 223936, Control_c, 0, 64, 94
1, 223936, Control_c, 0, 67, 118
1, 223951, Control_c, 0, 64, 89
1, 223966, Control_c, 0, 64, 86
1, 223981, Control_c, 0, 64, 84
1, 223996, Control_c, 0, 64, 83
1, 224040, Control_c, 0, 64, 82
1, 224055, Control_c, 0, 64, 77
1, 224070, Control_c, 0, 64, 71
1, 224085, Control_c, 0, 64, 65
1, 224100, Control_c, 0, 64, 54
1, 224115, Control_c, 0, 64, 24
1, 224124, Note_on_c, 0, 63, 85
1, 224130, Control_c, 0, 64, 0
1, 224150, Note_on_c, 0, 54, 57
1, 224150, Note_on_c, 0, 59, 63
1, 224174, Control_c, 0, 64, 36
1, 224189, Control_c, 0, 64, 54
1, 224204, Control_c, 0, 64, 61
1, 224225, Control_c, 0, 64, 63
1, 224240, Control_c, 0, 64, 64
1, 224247, Note_off_c, 0, 59, 57
1, 224255, Control_c, 0, 64, 64
1, 224315, Control_c, 0, 64, 65
1, 224319, Note_off_c, 0, 54, 58
1, 224323, Note_off_c, 0, 63, 60
1, 224329, Control_c, 0, 67, 118
1, 224344, Control_c, 0, 64, 64
1, 224359, Control_c, 0, 64, 64
1, 224377, Note_on_c, 0, 53, 66
1, 224380, Note_on_c, 0, 57, 58
1, 224389, Control_c, 0, 64, 63
1, 224392, Note_on_c, 0, 62, 69
1, 224396, Note_on_c, 0, 63, 67
1, 224404, Control_c, 0, 64, 62
1, 224410, Note_off_c, 0, 53, 68
1, 224412, Note_off_c, 0, 57, 64
1, 224419, Control_c, 0, 64, 60
1, 224428, Note_off_c, 0, 63, 62
1, 224431, Note_off_c, 0, 62, 59
1, 224433, Control_c, 0, 64, 54
1, 224448, Control_c, 0, 64, 42
1, 224463, Control_c, 0, 64, 27
1, 224478, Control_c, 0, 64, 11
1, 224478, Control_c, 0, 67, 118
1, 224493, Control_c, 0, 64, 0
1, 224493, Control_c, 0, 67, 119
1, 224501, Note_on_c, 0, 51, 63
1, 224502, Note_on_c, 0, 56, 60
1, 224514, Note_on_c, 0, 63, 71
1, 224517, Note_on_c, 0, 60, 57
1, 224540, Note_off_c, 0, 56, 64
1, 224542, Note_off_c, 0, 51, 61
1, 224542, Note_off_c, 0, 63, 64
1, 224549, Note_off_c, 0, 60, 65
1, 224622, Note_on_c, 0, 54, 62
1, 224624, Note_on_c, 0, 63, 81
1, 224637, Note_on_c, 0, 59, 54
1, 224655, Control_c, 0, 67, 118
1, 224660, Note_off_c, 0, 59, 59
1, 224663, Note_off_c, 0, 54, 63
1, 224675, Note_off_c, 0, 63, 61
1, 224684, Control_c, 0, 67, 118
1, 224699, Control_c, 0, 67, 117
1, 224741, Note_on_c, 0, 63, 65
1, 224747, Note_on_c, 0, 53, 64
1, 224748, Note_on_c, 0, 57, 58
1, 224750, Note_on_c, 0, 62, 66
1, 224777, Note_off_c, 0, 53, 67
1, 224781, Note_off_c, 0, 57, 64
1, 224783, Note_off_c, 0, 62, 63
1, 224784, Note_off_c, 0, 63, 60
1, 224860, Note_on_c, 0, 51, 64
1, 224870, Note_on_c, 0, 63, 68
1, 224874, Note_on_c, 0, 60, 56
1, 224877, Note_on_c, 0, 56, 39
1, 224893, Control_c, 0, 67, 118
1, 224905, Note_off_c, 0, 63, 62
1, 224907, Note_off_c, 0, 51, 61
1, 224908, Note_off_c, 0, 60, 63
1, 224917, Note_off_c, 0, 56, 52
1, 225008, Note_on_c, 0, 54, 63
1, 225012, Note_on_c, 0, 66, 73
1, 225013, Note_on_c, 0, 59, 66
1, 225015, Note_on_c, 0, 63, 70
1, 225019, Control_c, 0, 64, 28
1, 225034, Control_c, 0, 64, 61
1, 225034, Control_c, 0, 67, 117
1, 225048, Control_c, 0, 64, 68
1, 225063, Control_c, 0, 64, 74
1, 225063, Control_c, 0, 67, 117
1, 225078, Control_c, 0, 64, 82
1, 225081, Note_off_c, 0, 54, 64
1, 225092, Note_off_c, 0, 59, 63
1, 225093, Control_c, 0, 64, 90
1, 225093, Control_c, 0, 67, 116
1, 225097, Note_off_c, 0, 63, 61
1, 225108, Control_c, 0, 64, 95
1, 225113, Note_off_c, 0, 66, 63
1, 225122, Control_c, 0, 64, 99
1, 225137, Control_c, 0, 64, 100
1, 225152, Control_c, 0, 64, 101
1, 225167, Control_c, 0, 64, 101
1, 225326, Note_on_c, 0, 78, 62
1, 225331, Control_c, 0, 67, 115
1, 225332, Note_on_c, 0, 80, 61
1, 225340, Note_on_c, 0, 86, 72
1, 225346, Control_c, 0, 67, 115
1, 225354, Note_on_c, 0, 87, 93
1, 225362, Note_on_c, 0, 81, 80
1, 225363, Note_on_c, 0, 83, 80
1, 225364, Note_on_c, 0, 89, 83
1, 225366, Note_on_c, 0, 84, 90
1, 225370, Note_on_c, 0, 90, 99
1, 225375, Control_c, 0, 67, 114
1, 225377, Note_on_c, 0, 88, 71
1, 225392, Note_off_c, 0, 88, 67
1, 225398, Note_off_c, 0, 89, 64
1, 225400, Note_off_c, 0, 86, 67
1, 225403, Note_off_c, 0, 84, 68
1, 225406, Note_off_c, 0, 90, 67
1, 225411, Note_off_c, 0, 83, 65
1, 225411, Note_off_c, 0, 87, 67
1, 225417, Note_off_c, 0, 81, 66
1, 225420, Control_c, 0, 67, 115
1, 225421, Note_off_c, 0, 80, 60
1, 225431, Note_off_c, 0, 78, 63
1, 225435, Control_c, 0, 64, 101
1, 225435, Control_c, 0, 67, 116
1, 225449, Control_c, 0, 67, 116
1, 225464, Control_c, 0, 64, 99
1, 225464, Control_c, 0, 67, 117
1, 225479, Control_c, 0, 64, 97
1, 225479, Control_c, 0, 67, 118
1, 225493, Control_c, 0, 64, 96
1, 225508, Control_c, 0, 67, 118
1, 225554, Control_c, 0, 64, 95
1, 225569, Control_c, 0, 64, 94
1, 225584, Control_c, 0, 64, 89
1, 225598, Control_c, 0, 64, 81
1, 225613, Control_c, 0, 64, 72
1, 225626, Note_on_c, 0, 63, 83
1, 225628, Control_c, 0, 64, 63
1, 225643, Control_c, 0, 64, 45
1, 225656, Note_on_c, 0, 54, 66
1, 225658, Control_c, 0, 64, 21
1, 225659, Note_on_c, 0, 59, 53
1, 225672, Control_c, 0, 64, 0
1, 225764, Note_off_c, 0, 59, 42
1, 225769, Control_c, 0, 64, 11
1, 225784, Control_c, 0, 64, 19
1, 225798, Control_c, 0, 64, 28
1, 225813, Control_c, 0, 64, 30
1, 225841, Note_off_c, 0, 54, 62
1, 225845, Note_off_c, 0, 63, 57
1, 225858, Control_c, 0, 64, 31
1, 225872, Control_c, 0, 64, 33
1, 225887, Control_c, 0, 64, 34
1, 225896, Note_on_c, 0, 57, 58
1, 225907, Note_on_c, 0, 53, 54
1, 225908, Note_on_c, 0, 62, 66
1, 225912, Note_on_c, 0, 63, 67
1, 225917, Control_c, 0, 64, 35
1, 225928, Note_off_c, 0, 57, 65
1, 225931, Control_c, 0, 64, 36
1, 225932, Note_off_c, 0, 53, 63
1, 225941, Note_off_c, 0, 62, 63
1, 225946, Note_off_c, 0, 63, 61
1, 225946, Control_c, 0, 64, 37
1, 225961, Control_c, 0, 64, 38
1, 226012, Note_on_c, 0, 51, 68
1, 226015, Note_on_c, 0, 56, 63
1, 226020, Control_c, 0, 64, 39
1, 226030, Note_on_c, 0, 60, 61
1, 226034, Note_on_c, 0, 63, 69
1, 226050, Control_c, 0, 64, 40
1, 226054, Note_off_c, 0, 56, 60
1, 226061, Note_off_c, 0, 51, 57
1, 226061, Note_off_c, 0, 60, 64
1, 226062, Note_off_c, 0, 63, 63
1, 226064, Control_c, 0, 64, 42
1, 226078, Control_c, 0, 64, 43
1, 226093, Control_c, 0, 64, 44
1, 226108, Control_c, 0, 64, 45
1, 226108, Control_c, 0, 67, 118
1, 226122, Control_c, 0, 67, 117
1, 226137, Control_c, 0, 67, 116
1, 226139, Note_on_c, 0, 63, 80
1, 226143, Note_on_c, 0, 54, 63
1, 226152, Control_c, 0, 67, 116
1, 226163, Note_on_c, 0, 59, 43
1, 226167, Control_c, 0, 64, 44
1, 226167, Control_c, 0, 67, 115
1, 226182, Control_c, 0, 64, 43
1, 226184, Note_off_c, 0, 54, 62
1, 226190, Note_off_c, 0, 59, 54
1, 226190, Note_off_c, 0, 63, 61
1, 226196, Control_c, 0, 64, 41
1, 226211, Control_c, 0, 64, 40
1, 226211, Control_c, 0, 67, 114
1, 226251, Note_on_c, 0, 63, 69
1, 226259, Note_on_c, 0, 62, 65
1, 226264, Note_on_c, 0, 53, 62
1, 226267, Note_on_c, 0, 59, 42
1, 226278, Note_on_c, 0, 57, 47
1, 226294, Note_off_c, 0, 53, 67
1, 226297, Note_off_c, 0, 59, 55
1, 226301, Note_off_c, 0, 62, 55
1, 226303, Note_off_c, 0, 63, 61
1, 226306, Note_off_c, 0, 57, 56
1, 226360, Control_c, 0, 67, 115
1, 226377, Note_on_c, 0, 63, 70
1, 226380, Note_on_c, 0, 51, 73
1, 226384, Note_on_c, 0, 60, 60
1, 226390, Control_c, 0, 67, 115
1, 226405, Control_c, 0, 67, 116
1, 226412, Note_off_c, 0, 51, 67
1, 226412, Note_off_c, 0, 63, 63
1, 226416, Note_off_c, 0, 60, 65
1, 226419, Control_c, 0, 64, 40
1, 226434, Control_c, 0, 64, 37
1, 226434, Control_c, 0, 67, 116
1, 226449, Control_c, 0, 64, 32
1, 226449, Control_c, 0, 67, 117
1, 226472, Control_c, 0, 64, 17
1, 226472, Control_c, 0, 67, 118
1, 226487, Control_c, 0, 64, 0
1, 226487, Control_c, 0, 67, 119
1, 226501, Control_c, 0, 67, 119
1, 226516, Control_c, 0, 67, 120
1, 226531, Control_c, 0, 67, 121
1, 226545, Control_c, 0, 67, 121
1, 226555, Note_on_c, 0, 61, 54
1, 226559, Note_on_c, 0, 58, 47
1, 226560, Control_c, 0, 67, 122
1, 226567, Note_on_c, 0, 49, 50
1, 226571, Note_on_c, 0, 52, 41
1, 226575, Note_on_c, 0, 54, 48
1, 226575, Control_c, 0, 67, 122
1, 226590, Control_c, 0, 64, 57
1, 226605, Control_c, 0, 64, 67
1, 226605, Control_c, 0, 67, 123
1, 226619, Control_c, 0, 64, 74
1, 226634, Control_c, 0, 64, 88
1, 226644, Note_off_c, 0, 52, 62
1, 226646, Note_off_c, 0, 49, 63
1, 226649, Control_c, 0, 64, 106
1, 226654, Note_off_c, 0, 58, 61
1, 226657, Note_off_c, 0, 54, 65
1, 226664, Control_c, 0, 64, 127
1, 226669, Note_off_c, 0, 61, 62
1, 226783, Control_c, 0, 67, 122
1, 226798, Control_c, 0, 67, 121
1, 226813, Control_c, 0, 67, 120
1, 226827, Control_c, 0, 67, 119
1, 226842, Control_c, 0, 67, 118
1, 226857, Control_c, 0, 67, 116
1, 226858, Note_on_c, 0, 78, 64
1, 226868, Note_on_c, 0, 86, 79
1, 226872, Control_c, 0, 67, 115
1, 226872, Note_on_c, 0, 80, 45
1, 226881, Note_on_c, 0, 87, 97
1, 226886, Control_c, 0, 67, 114
1, 226892, Note_on_c, 0, 89, 85
1, 226892, Note_on_c, 0, 90, 98
1, 226896, Note_on_c, 0, 83, 71
1, 226896, Note_on_c, 0, 84, 94
1, 226899, Note_on_c, 0, 79, 53
1, 226902, Note_on_c, 0, 81, 81
1, 226912, Note_off_c, 0, 86, 65
1, 226914, Note_off_c, 0, 89, 68
1, 226922, Note_off_c, 0, 79, 58
1, 226924, Note_off_c, 0, 84, 71
1, 226926, Note_off_c, 0, 87, 69
1, 226926, Note_off_c, 0, 90, 69
1, 226928, Note_on_c, 0, 88, 32
1, 226929, Note_off_c, 0, 88, 127
1, 226931, Note_on_c, 0, 82, 16
1, 226943, Note_off_c, 0, 83, 65
1, 226944, Note_off_c, 0, 81, 66
1, 226950, Note_off_c, 0, 80, 35
1, 226958, Note_off_c, 0, 78, 64
1, 226970, Note_off_c, 0, 82, 52
1, 226975, Control_c, 0, 67, 115
1, 226990, Control_c, 0, 67, 116
1, 227005, Control_c, 0, 67, 117
1, 227063, Control_c, 0, 67, 117
1, 227123, Control_c, 0, 64, 112
1, 227139, Control_c, 0, 64, 97
1, 227154, Control_c, 0, 64, 84
1, 227157, Note_on_c, 0, 61, 85
1, 227168, Control_c, 0, 64, 72
1, 227183, Control_c, 0, 64, 62
1, 227189, Note_on_c, 0, 57, 58
1, 227198, Control_c, 0, 64, 40
1, 227204, Note_on_c, 0, 52, 60
1, 227221, Control_c, 0, 64, 23
1, 227236, Control_c, 0, 64, 21
1, 227250, Control_c, 0, 64, 27
1, 227250, Control_c, 0, 67, 118
1, 227265, Control_c, 0, 64, 37
1, 227280, Control_c, 0, 64, 48
1, 227292, Note_off_c, 0, 57, 59
1, 227295, Control_c, 0, 64, 58
1, 227310, Control_c, 0, 64, 62
1, 227324, Control_c, 0, 64, 62
1, 227361, Note_off_c, 0, 61, 61
1, 227368, Control_c, 0, 67, 117
1, 227369, Note_off_c, 0, 52, 60
1, 227383, Control_c, 0, 67, 117
1, 227398, Control_c, 0, 67, 116
1, 227413, Control_c, 0, 67, 115
1, 227419, Note_on_c, 0, 51, 70
1, 227422, Note_on_c, 0, 55, 65
1, 227430, Note_on_c, 0, 61, 71
1, 227438, Note_on_c, 0, 60, 62
1, 227442, Control_c, 0, 67, 115
1, 227452, Note_off_c, 0, 51, 66
1, 227453, Note_off_c, 0, 55, 64
1, 227457, Control_c, 0, 67, 114
1, 227468, Note_off_c, 0, 60, 65
1, 227472, Control_c, 0, 67, 113
1, 227478, Note_off_c, 0, 61, 61
1, 227501, Control_c, 0, 67, 113
1, 227531, Control_c, 0, 67, 112
1, 227545, Note_on_c, 0, 49, 70
1, 227546, Control_c, 0, 67, 111
1, 227552, Note_on_c, 0, 61, 73
1, 227559, Note_on_c, 0, 58, 60
1, 227561, Control_c, 0, 67, 110
1, 227564, Note_on_c, 0, 53, 26
1, 227576, Control_c, 0, 67, 108
1, 227581, Note_off_c, 0, 49, 61
1, 227589, Note_off_c, 0, 58, 64
1, 227589, Note_off_c, 0, 61, 60
1, 227591, Control_c, 0, 64, 62
1, 227591, Control_c, 0, 67, 107
1, 227598, Note_off_c, 0, 53, 50
1, 227605, Control_c, 0, 67, 106
1, 227620, Control_c, 0, 64, 62
1, 227620, Control_c, 0, 67, 105
1, 227635, Control_c, 0, 67, 102
1, 227650, Control_c, 0, 67, 99
1, 227665, Control_c, 0, 64, 63
1, 227665, Control_c, 0, 67, 96
1, 227667, Note_on_c, 0, 61, 82
1, 227669, Note_on_c, 0, 52, 63
1, 227677, Note_on_c, 0, 57, 62
1, 227680, Control_c, 0, 67, 92
1, 227694, Control_c, 0, 64, 63
1, 227694, Control_c, 0, 67, 88
1, 227707, Note_off_c, 0, 57, 64
1, 227709, Note_off_c, 0, 52, 63
1, 227709, Control_c, 0, 64, 64
1, 227709, Control_c, 0, 67, 85
1, 227718, Note_off_c, 0, 61, 63
1, 227724, Control_c, 0, 64, 64
1, 227724, Control_c, 0, 67, 80
1, 227739, Control_c, 0, 64, 65
1, 227739, Control_c, 0, 67, 73
1, 227754, Control_c, 0, 64, 66
1, 227754, Control_c, 0, 67, 64
1, 227768, Control_c, 0, 64, 67
1, 227768, Control_c, 0, 67, 55
1, 227783, Control_c, 0, 64, 69
1, 227783, Control_c, 0, 67, 46
1, 227785, Note_on_c, 0, 60, 74
1, 227786, Note_on_c, 0, 61, 75
1, 227787, Note_on_c, 0, 51, 68
1, 227793, Note_on_c, 0, 55, 60
1, 227798, Control_c, 0, 64, 71
1, 227798, Control_c, 0, 67, 40
1, 227813, Control_c, 0, 64, 74
1, 227813, Control_c, 0, 67, 34
1, 227824, Note_off_c, 0, 55, 63
1, 227828, Control_c, 0, 64, 76
1, 227828, Control_c, 0, 67, 28
1, 227842, Note_off_c, 0, 61, 62
1, 227842, Control_c, 0, 64, 79
1, 227842, Control_c, 0, 67, 20
1, 227847, Note_off_c, 0, 60, 58
1, 227849, Note_off_c, 0, 51, 53
1, 227857, Control_c, 0, 64, 83
1, 227857, Control_c, 0, 67, 11
1, 227872, Control_c, 0, 64, 88
1, 227872, Control_c, 0, 67, 0
1, 227886, Control_c, 0, 64, 95
1, 227901, Control_c, 0, 64, 108
1, 227909, Note_on_c, 0, 61, 76
1, 227910, Note_on_c, 0, 58, 68
1, 227915, Note_on_c, 0, 49, 83
1, 227916, Note_on_c, 0, 53, 65
1, 227916, Control_c, 0, 64, 127
1, 227936, Note_off_c, 0, 58, 67
1, 227939, Note_off_c, 0, 53, 65
1, 227939, Note_off_c, 0, 61, 66
1, 227942, Note_off_c, 0, 49, 67
1, 228219, Note_on_c, 0, 40, 112
1, 228219, Note_on_c, 0, 92, 103
1, 228220, Note_on_c, 0, 97, 100
1, 228220, Note_on_c, 0, 28, 105
1, 228220, Note_on_c, 0, 84, 89
1, 228221, Control_c, 0, 64, 116
1, 228236, Control_c, 0, 64, 73
1, 228250, Note_on_c, 0, 29, 48
1, 228251, Note_off_c, 0, 29, 127
1, 228251, Note_on_c, 0, 94, 58
1, 228251, Control_c, 0, 64, 0
1, 228282, Note_off_c, 0, 94, 48
1, 228295, Control_c, 0, 64, 60
1, 228311, Control_c, 0, 64, 84
1, 228325, Control_c, 0, 64, 127
1, 228351, Note_off_c, 0, 28, 63
1, 228380, Note_off_c, 0, 97, 62
1, 228383, Note_off_c, 0, 40, 65
1, 228395, Note_off_c, 0, 84, 58
1, 228403, Note_off_c, 0, 92, 62
1, 228524, Note_on_c, 0, 91, 88
1, 228524, Note_on_c, 0, 96, 95
1, 228529, Note_on_c, 0, 83, 92
1, 228532, Note_on_c, 0, 47, 79
1, 228539, Note_on_c, 0, 56, 75
1, 228621, Note_off_c, 0, 83, 61
1, 228621, Note_off_c, 0, 96, 61
1, 228637, Note_off_c, 0, 91, 63
1, 228646, Poly_aftertouch_c, 0, 84, 0
1, 228710, Note_off_c, 0, 56, 64
1, 228719, Note_on_c, 0, 59, 81
1, 228729, Note_on_c, 0, 52, 81
1, 228730, Note_on_c, 0, 95, 91
1, 228730, Note_off_c, 0, 47, 38
1, 228732, Note_on_c, 0, 82, 88
1, 228733, Note_on_c, 0, 90, 90
1, 228761, Note_off_c, 0, 52, 64
1, 228770, Note_off_c, 0, 59, 65
1, 228786, Note_off_c, 0, 82, 63
1, 228791, Note_off_c, 0, 95, 63
1, 228813, Note_off_c, 0, 90, 61
1, 228881, Note_on_c, 0, 92, 86
1, 228886, Note_on_c, 0, 97, 88
1, 228891, Note_on_c, 0, 84, 72
1, 228894, Note_on_c, 0, 64, 78
1, 228899, Note_on_c, 0, 56, 79
1, 228947, Note_off_c, 0, 84, 62
1, 228965, Note_off_c, 0, 56, 62
1, 228968, Note_off_c, 0, 92, 57
1, 228968, Note_off_c, 0, 97, 63
1, 228997, Note_off_c, 0, 64, 60
1, 229007, Poly_aftertouch_c, 0, 86, 0
1, 229017, Note_on_c, 0, 59, 71
1, 229021, Note_on_c, 0, 68, 80
1, 229025, Note_on_c, 0, 83, 84
1, 229025, Note_on_c, 0, 96, 86
1, 229027, Note_on_c, 0, 91, 88
1, 229048, Note_on_c, 0, 95, 57
1, 229060, Note_off_c, 0, 59, 61
1, 229061, Note_on_c, 0, 84, 43
1, 229071, Note_off_c, 0, 95, 41
1, 229075, Note_off_c, 0, 83, 66
1, 229080, Note_off_c, 0, 96, 66
1, 229084, Note_off_c, 0, 68, 62
1, 229089, Note_off_c, 0, 84, 61
1, 229089, Note_off_c, 0, 91, 65
1, 229151, Note_on_c, 0, 95, 83
1, 229152, Note_on_c, 0, 82, 98
1, 229158, Note_on_c, 0, 91, 93
1, 229164, Note_on_c, 0, 71, 82
1, 229170, Note_on_c, 0, 64, 81
1, 229203, Note_off_c, 0, 82, 58
1, 229205, Note_off_c, 0, 95, 65
1, 229216, Note_off_c, 0, 64, 61
1, 229216, Note_off_c, 0, 91, 65
1, 229224, Note_off_c, 0, 71, 62
1, 229276, Note_on_c, 0, 76, 84
1, 229278, Note_on_c, 0, 85, 101
1, 229278, Note_on_c, 0, 68, 66
1, 229281, Note_on_c, 0, 97, 94
1, 229297, Note_on_c, 0, 92, 69
1, 229310, Note_off_c, 0, 68, 65
1, 229325, Note_off_c, 0, 76, 64
1, 229333, Note_off_c, 0, 85, 63
1, 229350, Note_off_c, 0, 97, 65
1, 229360, Note_off_c, 0, 92, 59
1, 229396, Note_on_c, 0, 80, 87
1, 229402, Note_on_c, 0, 96, 99
1, 229409, Note_on_c, 0, 84, 79
1, 229412, Note_on_c, 0, 92, 68
1, 229417, Note_on_c, 0, 71, 66
1, 229429, Note_off_c, 0, 84, 71
1, 229432, Note_off_c, 0, 96, 69
1, 229432, Note_off_c, 0, 71, 71
1, 229435, Note_off_c, 0, 80, 59
1, 229437, Note_off_c, 0, 92, 70
1, 229526, Control_c, 0, 67, 11
1, 229542, Control_c, 0, 67, 21
1, 229557, Control_c, 0, 64, 101
1, 229557, Control_c, 0, 67, 35
1, 229571, Control_c, 0, 64, 83
1, 229571, Control_c, 0, 67, 53
1, 229586, Control_c, 0, 64, 68
1, 229586, Control_c, 0, 67, 65
1, 229601, Control_c, 0, 64, 57
1, 229601, Control_c, 0, 67, 74
1, 229616, Control_c, 0, 64, 49
1, 229616, Control_c, 0, 67, 81
1, 229631, Control_c, 0, 67, 86
1, 229645, Control_c, 0, 64, 53
1, 229645, Control_c, 0, 67, 90
1, 229660, Control_c, 0, 64, 56
1, 229660, Control_c, 0, 67, 91
1, 229675, Control_c, 0, 64, 56
1, 229675, Control_c, 0, 67, 92
1, 229680, Note_on_c, 0, 99, 69
1, 229684, Note_on_c, 0, 104, 79
1, 229686, Note_on_c, 0, 96, 69
1, 229686, Note_on_c, 0, 63, 63
1, 229689, Note_on_c, 0, 54, 53
1, 229690, Control_c, 0, 64, 57
1, 229690, Control_c, 0, 67, 94
1, 229701, Note_on_c, 0, 59, 49
1, 229705, Control_c, 0, 64, 59
1, 229705, Control_c, 0, 67, 95
1, 229719, Control_c, 0, 64, 60
1, 229719, Control_c, 0, 67, 97
1, 229722, Note_off_c, 0, 63, 63
1, 229734, Control_c, 0, 67, 98
1, 229737, Note_off_c, 0, 54, 63
1, 229740, Note_off_c, 0, 59, 58
1, 229740, Note_off_c, 0, 96, 64
1, 229749, Control_c, 0, 67, 99
1, 229750, Note_off_c, 0, 99, 63
1, 229753, Note_off_c, 0, 104, 64
1, 229764, Control_c, 0, 67, 101
1, 229779, Control_c, 0, 64, 61
1, 229779, Control_c, 0, 67, 102
1, 229793, Control_c, 0, 64, 63
1, 229793, Control_c, 0, 67, 103
1, 229798, Note_on_c, 0, 56, 72
1, 229800, Note_on_c, 0, 103, 71
1, 229802, Note_on_c, 0, 98, 71
1, 229804, Note_on_c, 0, 95, 62
1, 229812, Note_on_c, 0, 65, 57
1, 229824, Note_off_c, 0, 103, 70
1, 229827, Note_off_c, 0, 98, 69
1, 229828, Note_off_c, 0, 56, 67
1, 229832, Note_off_c, 0, 95, 68
1, 229835, Note_off_c, 0, 65, 62
1, 229853, Control_c, 0, 64, 63
1, 229868, Control_c, 0, 64, 64
1, 229883, Control_c, 0, 64, 64
1, 229914, Note_on_c, 0, 102, 87
1, 229916, Note_on_c, 0, 66, 73
1, 229917, Note_on_c, 0, 94, 71
1, 229918, Note_on_c, 0, 96, 73
1, 229924, Note_on_c, 0, 57, 64
1, 229927, Control_c, 0, 64, 65
1, 229928, Note_on_c, 0, 62, 58
1, 229942, Control_c, 0, 64, 67
1, 229957, Note_off_c, 0, 57, 62
1, 229957, Control_c, 0, 64, 67
1, 229966, Note_off_c, 0, 66, 50
1, 229967, Note_off_c, 0, 96, 64
1, 230001, Note_off_c, 0, 102, 64
1, 230029, Note_on_c, 0, 63, 71
1, 230035, Note_on_c, 0, 59, 42
1, 230035, Note_on_c, 0, 95, 76
1, 230037, Note_on_c, 0, 68, 68
1, 230037, Note_on_c, 0, 92, 80
1, 230042, Note_on_c, 0, 100, 70
1, 230044, Note_off_c, 0, 62, 51
1, 230045, Control_c, 0, 64, 67
1, 230045, Control_c, 0, 67, 102
1, 230051, Note_off_c, 0, 94, 28
1, 230056, Note_off_c, 0, 63, 66
1, 230060, Control_c, 0, 64, 67
1, 230064, Note_off_c, 0, 59, 54
1, 230065, Note_off_c, 0, 95, 63
1, 230070, Note_off_c, 0, 100, 64
1, 230072, Note_off_c, 0, 68, 62
1, 230075, Control_c, 0, 67, 102
1, 230080, Note_off_c, 0, 92, 64
1, 230104, Control_c, 0, 67, 101
1, 230119, Control_c, 0, 64, 68
1, 230119, Control_c, 0, 67, 101
1, 230134, Control_c, 0, 64, 69
1, 230134, Control_c, 0, 67, 100
1, 230140, Note_on_c, 0, 60, 66
1, 230142, Note_on_c, 0, 94, 86
1, 230145, Note_on_c, 0, 69, 72
1, 230145, Note_on_c, 0, 91, 84
1, 230149, Control_c, 0, 64, 71
1, 230149, Control_c, 0, 67, 100
1, 230151, Note_on_c, 0, 65, 68
1, 230151, Note_on_c, 0, 99, 83
1, 230163, Control_c, 0, 64, 73
1, 230172, Note_off_c, 0, 60, 64
1, 230177, Note_off_c, 0, 69, 61
1, 230178, Control_c, 0, 64, 74
1, 230182, Note_off_c, 0, 65, 63
1, 230189, Note_off_c, 0, 91, 63
1, 230193, Control_c, 0, 64, 74
1, 230213, Note_off_c, 0, 94, 65
1, 230216, Control_c, 0, 64, 74
1, 230256, Note_on_c, 0, 62, 70
1, 230256, Note_on_c, 0, 71, 80
1, 230256, Note_on_c, 0, 98, 74
1, 230259, Note_on_c, 0, 90, 76
1, 230260, Note_on_c, 0, 93, 76
1, 230267, Note_on_c, 0, 66, 63
1, 230281, Note_off_c, 0, 62, 66
1, 230286, Note_off_c, 0, 90, 66
1, 230286, Note_off_c, 0, 93, 65
1, 230289, Note_off_c, 0, 99, 56
1, 230293, Note_off_c, 0, 66, 66
1, 230300, Note_off_c, 0, 71, 63
1, 230303, Note_off_c, 0, 98, 64
1, 230304, Control_c, 0, 67, 99
1, 230319, Control_c, 0, 67, 99
1, 230334, Control_c, 0, 64, 73
1, 230350, Control_c, 0, 64, 73
1, 230365, Note_on_c, 0, 63, 81
1, 230366, Note_on_c, 0, 72, 81
1, 230369, Note_on_c, 0, 68, 72
1, 230377, Note_on_c, 0, 88, 85
1, 230378, Note_on_c, 0, 91, 95
1, 230384, Note_on_c, 0, 96, 84
1, 230409, Control_c, 0, 67, 98
1, 230412, Note_off_c, 0, 72, 59
1, 230416, Note_off_c, 0, 68, 57
1, 230419, Note_off_c, 0, 88, 62
1, 230421, Note_off_c, 0, 63, 61
1, 230424, Control_c, 0, 67, 97
1, 230439, Control_c, 0, 67, 96
1, 230448, Note_off_c, 0, 91, 65
1, 230448, Note_off_c, 0, 96, 57
1, 230481, Note_on_c, 0, 65, 74
1, 230484, Note_on_c, 0, 74, 79
1, 230488, Note_on_c, 0, 87, 85
1, 230489, Note_on_c, 0, 90, 87
1, 230491, Note_on_c, 0, 94, 83
1, 230491, Note_on_c, 0, 69, 65
1, 230507, Note_off_c, 0, 74, 70
1, 230512, Note_off_c, 0, 65, 66
1, 230518, Note_off_c, 0, 69, 66
1, 230534, Note_off_c, 0, 87, 66
1, 230540, Note_off_c, 0, 90, 64
1, 230545, Note_off_c, 0, 94, 64
1, 230595, Note_on_c, 0, 66, 84
1, 230595, Note_on_c, 0, 75, 87
1, 230599, Note_on_c, 0, 88, 92
1, 230601, Note_on_c, 0, 86, 87
1, 230604, Note_on_c, 0, 94, 85
1, 230616, Control_c, 0, 64, 72
1, 230619, Note_on_c, 0, 71, 46
1, 230631, Control_c, 0, 64, 71
1, 230642, Note_off_c, 0, 86, 64
1, 230646, Control_c, 0, 64, 71
1, 230652, Note_off_c, 0, 71, 52
1, 230652, Note_off_c, 0, 75, 62
1, 230654, Note_off_c, 0, 66, 60
1, 230661, Control_c, 0, 64, 70
1, 230676, Control_c, 0, 67, 96
1, 230678, Note_off_c, 0, 88, 61
1, 230691, Control_c, 0, 64, 70
1, 230704, Note_on_c, 0, 76, 85
1, 230706, Control_c, 0, 67, 95
1, 230707, Note_on_c, 0, 68, 69
1, 230709, Note_on_c, 0, 73, 79
1, 230709, Note_on_c, 0, 92, 90
1, 230712, Note_on_c, 0, 87, 87
1, 230712, Note_on_c, 0, 84, 86
1, 230720, Control_c, 0, 64, 70
1, 230720, Control_c, 0, 67, 95
1, 230735, Note_off_c, 0, 68, 66
1, 230737, Note_off_c, 0, 73, 63
1, 230738, Note_off_c, 0, 94, 63
1, 230745, Note_off_c, 0, 76, 64
1, 230750, Control_c, 0, 67, 94
1, 230759, Note_off_c, 0, 84, 66
1, 230762, Note_off_c, 0, 87, 65
1, 230766, Note_off_c, 0, 92, 66
1, 230780, Control_c, 0, 67, 93
1, 230794, Control_c, 0, 64, 71
1, 230809, Control_c, 0, 64, 72
1, 230809, Control_c, 0, 67, 93
1, 230816, Note_on_c, 0, 70, 84
1, 230820, Note_on_c, 0, 78, 88
1, 230824, Control_c, 0, 64, 73
1, 230824, Control_c, 0, 67, 92
1, 230825, Note_on_c, 0, 86, 90
1, 230828, Note_on_c, 0, 84, 77
1, 230831, Note_on_c, 0, 91, 85
1, 230839, Control_c, 0, 64, 74
1, 230839, Control_c, 0, 67, 92
1, 230842, Note_on_c, 0, 83, 59
1, 230846, Note_on_c, 0, 74, 54
1, 230847, Note_on_c, 0, 93, 55
1, 230854, Control_c, 0, 64, 75
1, 230854, Control_c, 0, 67, 90
1, 230855, Note_off_c, 0, 84, 66
1, 230861, Note_off_c, 0, 83, 64
1, 230868, Note_off_c, 0, 93, 62
1, 230868, Control_c, 0, 64, 76
1, 230868, Control_c, 0, 67, 88
1, 230875, Note_off_c, 0, 70, 63
1, 230879, Note_off_c, 0, 78, 64
1, 230881, Note_off_c, 0, 91, 65
1, 230881, Note_off_c, 0, 86, 67
1, 230883, Control_c, 0, 64, 79
1, 230883, Control_c, 0, 67, 86
1, 230898, Control_c, 0, 64, 84
1, 230898, Control_c, 0, 67, 82
1, 230902, Note_off_c, 0, 74, 0
1, 230912, Control_c, 0, 64, 92
1, 230912, Control_c, 0, 67, 76
1, 230926, Note_on_c, 0, 85, 95
1, 230926, Note_on_c, 0, 90, 95
1, 230927, Control_c, 0, 64, 101
1, 230927, Control_c, 0, 67, 68
1, 230928, Note_on_c, 0, 79, 90
1, 230930, Note_on_c, 0, 82, 95
1, 230940, Note_on_c, 0, 72, 57
1, 230942, Control_c, 0, 64, 121
1, 230942, Control_c, 0, 67, 57
1, 230945, Poly_aftertouch_c, 0, 74, 0
1, 230947, Note_off_c, 0, 90, 69
1, 230965, Control_c, 0, 64, 127
1, 230965, Control_c, 0, 67, 42
1, 230967, Note_off_c, 0, 72, 64
1, 230974, Note_on_c, 0, 89, 47
1, 230979, Note_off_c, 0, 85, 64
1, 230980, Control_c, 0, 67, 23
1, 230981, Note_off_c, 0, 79, 63
1, 230985, Note_off_c, 0, 82, 63
1, 230994, Control_c, 0, 67, 0
1, 231000, Note_off_c, 0, 89, 56
1, 231048, Note_on_c, 0, 88, 95
1, 231050, Note_on_c, 0, 80, 91
1, 231053, Note_on_c, 0, 83, 92
1, 231057, Note_on_c, 0, 72, 59
1, 231063, Note_on_c, 0, 74, 69
1, 231066, Note_on_c, 0, 75, 46
1, 231067, Note_on_c, 0, 73, 57
1, 231071, Note_on_c, 0, 76, 78
1, 231081, Note_on_c, 0, 84, 45
1, 231082, Note_off_c, 0, 84, 127
1, 231090, Note_off_c, 0, 73, 61
1, 231091, Note_on_c, 0, 78, 48
1, 231091, Note_off_c, 0, 75, 60
1, 231098, Note_off_c, 0, 80, 58
1, 231099, Note_off_c, 0, 72, 56
1, 231099, Note_off_c, 0, 74, 56
1, 231110, Note_off_c, 0, 76, 57
1, 231111, Note_off_c, 0, 83, 65
1, 231134, Note_on_c, 0, 80, 55
1, 231155, Note_on_c, 0, 79, 90
1, 231161, Note_on_c, 0, 86, 81
1, 231162, Note_off_c, 0, 80, 66
1, 231171, Note_off_c, 0, 88, 56
1, 231172, Note_off_c, 0, 78, 64
1, 231183, Note_on_c, 0, 81, 56
1, 231203, Note_off_c, 0, 81, 64
1, 231203, Note_off_c, 0, 86, 60
1, 231209, Note_off_c, 0, 79, 63
1, 231262, Control_c, 0, 64, 107
1, 231277, Control_c, 0, 64, 89
1, 231282, Note_on_c, 0, 61, 66
1, 231291, Control_c, 0, 64, 85
1, 231298, Note_on_c, 0, 86, 86
1, 231299, Note_on_c, 0, 73, 120
1, 231299, Note_on_c, 0, 72, 111
1, 231300, Note_on_c, 0, 82, 100
1, 231305, Note_on_c, 0, 70, 85
1, 231307, Control_c, 0, 64, 91
1, 231309, Note_on_c, 0, 80, 85
1, 231315, Note_off_c, 0, 86, 73
1, 231316, Note_on_c, 0, 85, 60
1, 231319, Note_on_c, 0, 63, 44
1, 231322, Control_c, 0, 64, 116
1, 231323, Note_off_c, 0, 70, 73
1, 231326, Note_off_c, 0, 61, 64
1, 231328, Note_off_c, 0, 80, 68
1, 231333, Note_off_c, 0, 72, 72
1, 231334, Note_off_c, 0, 73, 67
1, 231336, Control_c, 0, 64, 127
1, 231338, Note_off_c, 0, 85, 39
1, 231344, Note_off_c, 0, 82, 66
1, 231352, Note_off_c, 0, 63, 52
1, 231577, Note_on_c, 0, 97, 88
1, 231583, Note_on_c, 0, 89, 103
1, 231585, Note_on_c, 0, 102, 107
1, 231585, Note_on_c, 0, 79, 101
1, 231588, Note_on_c, 0, 70, 97
1, 231588, Control_c, 0, 64, 108
1, 231588, Control_c, 0, 67, 11
1, 231603, Control_c, 0, 64, 77
1, 231603, Control_c, 0, 67, 19
1, 231606, Note_on_c, 0, 103, 69
1, 231606, Note_on_c, 0, 91, 65
1, 231607, Note_off_c, 0, 91, 127
1, 231610, Note_off_c, 0, 89, 68
1, 231618, Control_c, 0, 64, 0
1, 231618, Control_c, 0, 67, 32
1, 231619, Note_off_c, 0, 102, 67
1, 231621, Note_off_c, 0, 97, 68
1, 231622, Note_off_c, 0, 79, 68
1, 231625, Note_off_c, 0, 103, 67
1, 231627, Note_on_c, 0, 99, 33
1, 231627, Note_off_c, 0, 70, 65
1, 231633, Control_c, 0, 67, 44
1, 231648, Control_c, 0, 67, 52
1, 231662, Control_c, 0, 67, 56
1, 231665, Note_off_c, 0, 99, 33
1, 231677, Control_c, 0, 67, 59
1, 231692, Control_c, 0, 67, 63
1, 231714, Control_c, 0, 67, 66
1, 231729, Control_c, 0, 67, 68
1, 231743, Control_c, 0, 67, 69
1, 231758, Control_c, 0, 67, 70
1, 231773, Control_c, 0, 67, 71
1, 231788, Control_c, 0, 67, 72
1, 231803, Control_c, 0, 67, 73
1, 231817, Control_c, 0, 67, 73
1, 231862, Control_c, 0, 67, 74
1, 231877, Control_c, 0, 67, 76
1, 231886, Note_on_c, 0, 91, 103
1, 231886, Note_on_c, 0, 104, 105
1, 231890, Note_on_c, 0, 98, 109
1, 231892, Control_c, 0, 67, 80
1, 231893, Note_on_c, 0, 81, 99
1, 231898, Note_on_c, 0, 72, 89
1, 231907, Control_c, 0, 67, 89
1, 231912, Note_off_c, 0, 91, 69
1, 231916, Note_off_c, 0, 98, 68
1, 231918, Note_off_c, 0, 104, 70
1, 231921, Note_off_c, 0, 72, 65
1, 231922, Control_c, 0, 67, 98
1, 231930, Note_off_c, 0, 81, 65
1, 231937, Control_c, 0, 67, 109
1, 231952, Control_c, 0, 67, 116
1, 231967, Control_c, 0, 67, 122
1, 231981, Control_c, 0, 67, 127
1, 232259, Note_on_c, 0, 83, 52
1, 232261, Note_on_c, 0, 88, 51
1, 232280, Note_off_c, 0, 83, 63
1, 232284, Note_on_c, 0, 77, 22
1, 232291, Note_off_c, 0, 88, 56
1, 232320, Note_on_c, 0, 99, 65
1, 232322, Note_off_c, 0, 77, 46
1, 232367, Note_on_c, 0, 97, 54
1, 232372, Note_off_c, 0, 99, 62
1, 232399, Note_off_c, 0, 97, 64
1, 232426, Note_on_c, 0, 86, 60
1, 232463, Note_off_c, 0, 86, 66
1, 232502, Note_on_c, 0, 94, 69
1, 232518, Note_on_c, 0, 75, 49
1, 232518, Note_on_c, 0, 81, 47
1, 232541, Note_off_c, 0, 75, 61
1, 232541, Note_off_c, 0, 81, 58
1, 232542, Note_off_c, 0, 94, 52
1, 232566, Note_on_c, 0, 83, 62
1, 232596, Note_off_c, 0, 83, 67
1, 232621, Note_on_c, 0, 88, 67
1, 232651, Note_off_c, 0, 88, 63
1, 232691, Note_on_c, 0, 82, 72
1, 232712, Note_on_c, 0, 73, 70
1, 232716, Note_off_c, 0, 82, 62
1, 232718, Note_on_c, 0, 79, 53
1, 232739, Note_off_c, 0, 79, 61
1, 232762, Note_on_c, 0, 93, 75
1, 232767, Note_off_c, 0, 73, 49
1, 232810, Note_on_c, 0, 91, 59
1, 232825, Note_off_c, 0, 93, 63
1, 232840, Note_off_c, 0, 91, 61
1, 232856, Note_on_c, 0, 80, 71
1, 232876, Note_off_c, 0, 80, 69
1, 232913, Note_on_c, 0, 77, 58
1, 232917, Note_on_c, 0, 71, 65
1, 232932, Note_off_c, 0, 77, 63
1, 232934, Note_on_c, 0, 88, 76
1, 232941, Note_off_c, 0, 71, 71
1, 232957, Note_off_c, 0, 88, 66
1, 233007, Note_on_c, 0, 77, 63
1, 233032, Note_on_c, 0, 82, 72
1, 233034, Note_off_c, 0, 77, 64
1, 233058, Note_off_c, 0, 82, 63
1, 233105, Note_on_c, 0, 76, 75
1, 233108, Note_on_c, 0, 69, 71
1, 233108, Note_on_c, 0, 75, 66
1, 233137, Note_off_c, 0, 75, 65
1, 233137, Note_off_c, 0, 76, 63
1, 233139, Note_off_c, 0, 69, 63
1, 233145, Control_c, 0, 64, 21
1, 233159, Note_on_c, 0, 87, 82
1, 233160, Control_c, 0, 64, 28
1, 233175, Control_c, 0, 64, 34
1, 233189, Control_c, 0, 64, 37
1, 233212, Control_c, 0, 64, 39
1, 233226, Note_on_c, 0, 85, 65
1, 233227, Control_c, 0, 64, 42
1, 233242, Control_c, 0, 64, 44
1, 233242, Note_off_c, 0, 87, 65
1, 233257, Control_c, 0, 64, 46
1, 233258, Note_off_c, 0, 85, 64
1, 233266, Note_on_c, 0, 74, 74
1, 233271, Control_c, 0, 64, 47
1, 233286, Control_c, 0, 64, 49
1, 233295, Note_off_c, 0, 74, 66
1, 233301, Control_c, 0, 64, 49
1, 233315, Control_c, 0, 64, 50
1, 233327, Note_on_c, 0, 73, 69
1, 233343, Note_on_c, 0, 67, 42
1, 233352, Note_off_c, 0, 73, 67
1, 233371, Note_off_c, 0, 67, 54
1, 233396, Note_on_c, 0, 71, 70
1, 233404, Control_c, 0, 64, 49
1, 233419, Control_c, 0, 64, 49
1, 233425, Note_off_c, 0, 71, 66
1, 233433, Control_c, 0, 64, 48
1, 233466, Note_on_c, 0, 76, 66
1, 233478, Control_c, 0, 64, 50
1, 233493, Control_c, 0, 64, 53
1, 233502, Note_off_c, 0, 76, 60
1, 233508, Control_c, 0, 64, 58
1, 233521, Note_on_c, 0, 70, 73
1, 233523, Control_c, 0, 64, 63
1, 233524, Note_on_c, 0, 71, 71
1, 233538, Control_c, 0, 64, 65
1, 233541, Note_on_c, 0, 65, 58
1, 233552, Control_c, 0, 64, 67
1, 233555, Note_off_c, 0, 70, 63
1, 233567, Control_c, 0, 64, 68
1, 233570, Note_off_c, 0, 71, 61
1, 233573, Note_off_c, 0, 65, 65
1, 233582, Control_c, 0, 64, 68
1, 233585, Note_on_c, 0, 81, 68
1, 233597, Control_c, 0, 64, 69
1, 233612, Control_c, 0, 64, 70
1, 233627, Control_c, 0, 64, 70
1, 233642, Control_c, 0, 64, 71
1, 233645, Note_on_c, 0, 79, 56
1, 233652, Note_off_c, 0, 81, 63
1, 233670, Note_off_c, 0, 79, 64
1, 233672, Control_c, 0, 64, 70
1, 233683, Note_on_c, 0, 68, 71
1, 233708, Note_off_c, 0, 68, 66
1, 233716, Control_c, 0, 64, 70
1, 233726, Note_on_c, 0, 69, 58
1, 233730, Control_c, 0, 67, 126
1, 233739, Note_on_c, 0, 63, 57
1, 233745, Control_c, 0, 64, 69
1, 233745, Control_c, 0, 67, 118
1, 233749, Note_on_c, 0, 77, 81
1, 233755, Note_off_c, 0, 69, 66
1, 233760, Control_c, 0, 64, 69
1, 233760, Control_c, 0, 67, 106
1, 233770, Note_off_c, 0, 63, 64
1, 233775, Control_c, 0, 64, 68
1, 233775, Control_c, 0, 67, 92
1, 233785, Note_off_c, 0, 77, 47
1, 233790, Control_c, 0, 67, 74
1, 233804, Control_c, 0, 67, 57
1, 233807, Note_on_c, 0, 65, 70
1, 233819, Control_c, 0, 67, 42
1, 233834, Control_c, 0, 67, 27
1, 233849, Control_c, 0, 67, 11
1, 233853, Note_off_c, 0, 65, 62
1, 233858, Note_on_c, 0, 70, 81
1, 233863, Control_c, 0, 67, 0
1, 233890, Note_off_c, 0, 70, 64
1, 233893, Control_c, 0, 64, 66
1, 233901, Note_on_c, 0, 55, 81
1, 233908, Control_c, 0, 64, 54
1, 233923, Control_c, 0, 64, 0
1, 233926, Note_on_c, 0, 69, 82
1, 233975, Note_on_c, 0, 71, 33
1, 233992, Note_on_c, 0, 70, 95
1, 233994, Note_on_c, 0, 80, 94
1, 233995, Note_on_c, 0, 83, 93
1, 234005, Control_c, 0, 64, 66
1, 234019, Control_c, 0, 64, 82
1, 234032, Note_on_c, 0, 61, 25
1, 234034, Control_c, 0, 64, 104
1, 234041, Note_off_c, 0, 69, 61
1, 234043, Note_on_c, 0, 82, 34
1, 234044, Note_off_c, 0, 71, 38
1, 234049, Control_c, 0, 64, 127
1, 234052, Note_off_c, 0, 55, 61
1, 234077, Note_off_c, 0, 70, 64
1, 234078, Note_off_c, 0, 82, 54
1, 234097, Note_off_c, 0, 61, 38
1, 234100, Note_off_c, 0, 83, 65
1, 234105, Note_off_c, 0, 80, 63
1, 234110, Note_on_c, 0, 55, 88
1, 234119, Poly_aftertouch_c, 0, 60, 127
1, 234129, Note_on_c, 0, 69, 85
1, 234168, Note_on_c, 0, 60, 13
1, 234172, Note_on_c, 0, 70, 100
1, 234182, Note_on_c, 0, 80, 98
1, 234183, Note_on_c, 0, 83, 92
1, 234190, Note_on_c, 0, 61, 39
1, 234270, Poly_aftertouch_c, 0, 59, 127
1, 234292, Note_off_c, 0, 83, 61
1, 234310, Note_off_c, 0, 69, 40
1, 234314, Poly_aftertouch_c, 0, 59, 0
1, 234318, Note_off_c, 0, 80, 62
1, 234333, Note_off_c, 0, 55, 62
1, 234340, Note_off_c, 0, 70, 53
1, 234381, Note_off_c, 0, 60, 44
1, 234383, Note_off_c, 0, 61, 37
1, 234398, Note_on_c, 0, 67, 69
1, 234424, Note_on_c, 0, 52, 75
1, 234453, Note_off_c, 0, 52, 62
1, 234459, Note_on_c, 0, 78, 73
1, 234460, Note_off_c, 0, 67, 49
1, 234461, Note_on_c, 0, 82, 83
1, 234480, Note_on_c, 0, 68, 66
1, 234481, Note_on_c, 0, 66, 50
1, 234500, Note_off_c, 0, 68, 64
1, 234501, Note_off_c, 0, 78, 58
1, 234501, Note_off_c, 0, 82, 66
1, 234507, Note_off_c, 0, 66, 62
1, 234524, Control_c, 0, 64, 100
1, 234539, Control_c, 0, 64, 75
1, 234553, Control_c, 0, 64, 59
1, 234568, Note_on_c, 0, 64, 76
1, 234568, Control_c, 0, 64, 42
1, 234570, Note_on_c, 0, 48, 75
1, 234583, Control_c, 0, 64, 55
1, 234598, Control_c, 0, 64, 66
1, 234600, Note_off_c, 0, 48, 66
1, 234606, Note_on_c, 0, 65, 41
1, 234613, Control_c, 0, 64, 77
1, 234614, Note_off_c, 0, 64, 64
1, 234622, Note_on_c, 0, 62, 80
1, 234622, Note_on_c, 0, 79, 89
1, 234623, Note_on_c, 0, 72, 67
1, 234627, Control_c, 0, 64, 87
1, 234635, Note_off_c, 0, 65, 61
1, 234638, Note_on_c, 0, 73, 55
1, 234642, Control_c, 0, 64, 93
1, 234646, Note_off_c, 0, 62, 67
1, 234649, Note_off_c, 0, 72, 68
1, 234656, Note_off_c, 0, 79, 62
1, 234657, Control_c, 0, 64, 94
1, 234661, Note_off_c, 0, 73, 60
1, 234724, Control_c, 0, 64, 92
1, 234739, Control_c, 0, 64, 84
1, 234754, Control_c, 0, 64, 70
1, 234767, Note_on_c, 0, 62, 73
1, 234768, Control_c, 0, 64, 43
1, 234775, Note_on_c, 0, 58, 73
1, 234783, Control_c, 0, 64, 0
1, 234798, Control_c, 0, 64, 53
1, 234803, Note_on_c, 0, 63, 74
1, 234808, Note_on_c, 0, 66, 74
1, 234813, Note_on_c, 0, 57, 50
1, 234813, Control_c, 0, 64, 68
1, 234816, Note_on_c, 0, 68, 80
1, 234828, Note_on_c, 0, 61, 49
1, 234828, Control_c, 0, 64, 79
1, 234830, Note_off_c, 0, 62, 63
1, 234839, Note_off_c, 0, 57, 58
1, 234841, Note_on_c, 0, 64, 54
1, 234842, Control_c, 0, 64, 98
1, 234847, Note_on_c, 0, 73, 90
1, 234848, Note_off_c, 0, 58, 62
1, 234854, Note_off_c, 0, 66, 64
1, 234855, Note_off_c, 0, 61, 58
1, 234857, Control_c, 0, 64, 127
1, 234867, Note_off_c, 0, 68, 65
1, 234868, Note_off_c, 0, 64, 67
1, 234873, Note_off_c, 0, 63, 62
1, 234883, Note_on_c, 0, 67, 73
1, 234883, Note_off_c, 0, 73, 60
1, 234904, Note_off_c, 0, 67, 67
1, 234945, Note_on_c, 0, 71, 93
1, 234945, Note_on_c, 0, 72, 97
1, 234981, Note_off_c, 0, 72, 70
1, 234984, Note_off_c, 0, 71, 68
1, 234989, Note_on_c, 0, 75, 103
1, 234989, Note_on_c, 0, 77, 102
1, 235019, Note_off_c, 0, 75, 70
1, 235019, Note_off_c, 0, 77, 64
1, 235050, Control_c, 0, 64, 117
1, 235065, Control_c, 0, 64, 80
1, 235079, Control_c, 0, 64, 42
1, 235094, Control_c, 0, 64, 0
1, 235199, Control_c, 0, 67, 9
1, 235214, Control_c, 0, 67, 15
1, 235229, Control_c, 0, 67, 24
1, 235244, Control_c, 0, 67, 33
1, 235258, Control_c, 0, 67, 40
1, 235273, Control_c, 0, 67, 44
1, 235288, Control_c, 0, 67, 51
1, 235302, Control_c, 0, 67, 62
1, 235317, Control_c, 0, 67, 72
1, 235332, Control_c, 0, 67, 82
1, 235347, Control_c, 0, 67, 92
1, 235362, Control_c, 0, 67, 102
1, 235377, Control_c, 0, 67, 108
1, 235392, Control_c, 0, 67, 112
1, 235407, Control_c, 0, 67, 115
1, 235421, Control_c, 0, 67, 118
1, 235436, Control_c, 0, 67, 119
1, 235451, Control_c, 0, 67, 120
1, 235473, Control_c, 0, 67, 121
1, 235488, Control_c, 0, 67, 122
1, 235503, Control_c, 0, 67, 122
1, 235532, Control_c, 0, 67, 123
1, 235562, Control_c, 0, 67, 124
1, 235591, Control_c, 0, 67, 125
1, 235651, Control_c, 0, 67, 125
1, 235664, Note_on_c, 0, 66, 60
1, 235666, Control_c, 0, 67, 126
1, 235683, Note_on_c, 0, 57, 47
1, 235687, Note_on_c, 0, 62, 46
1, 235696, Control_c, 0, 67, 126
1, 235725, Control_c, 0, 67, 127
1, 235740, Control_c, 0, 67, 127
1, 235780, Poly_aftertouch_c, 0, 68, 127
1, 235793, Note_off_c, 0, 62, 60
1, 235819, Poly_aftertouch_c, 0, 68, 0
1, 235826, Note_off_c, 0, 57, 60
1, 235828, Note_off_c, 0, 66, 62
1, 235921, Note_on_c, 0, 56, 59
1, 235929, Note_on_c, 0, 60, 50
1, 235932, Note_on_c, 0, 66, 65
1, 235937, Note_on_c, 0, 65, 49
1, 235948, Control_c, 0, 67, 127
1, 235955, Note_off_c, 0, 56, 63
1, 235961, Note_off_c, 0, 60, 65
1, 235963, Control_c, 0, 67, 126
1, 235968, Note_off_c, 0, 66, 59
1, 235971, Note_off_c, 0, 65, 62
1, 235978, Control_c, 0, 67, 126
1, 236037, Control_c, 0, 67, 125
1, 236052, Note_on_c, 0, 54, 59
1, 236056, Note_on_c, 0, 66, 58
1, 236057, Note_on_c, 0, 59, 47
1, 236065, Note_on_c, 0, 63, 48
1, 236081, Control_c, 0, 67, 125
1, 236083, Note_off_c, 0, 59, 57
1, 236088, Note_off_c, 0, 54, 64
1, 236091, Note_off_c, 0, 66, 61
1, 236096, Control_c, 0, 67, 124
1, 236104, Note_off_c, 0, 63, 63
1, 236125, Control_c, 0, 67, 124
1, 236170, Control_c, 0, 67, 123
1, 236180, Note_on_c, 0, 66, 71
1, 236184, Note_on_c, 0, 62, 60
1, 236185, Note_on_c, 0, 57, 52
1, 236222, Control_c, 0, 67, 123
1, 236223, Note_off_c, 0, 62, 63
1, 236223, Note_off_c, 0, 66, 59
1, 236229, Note_off_c, 0, 57, 61
1, 236302, Note_on_c, 0, 56, 71
1, 236305, Note_on_c, 0, 66, 63
1, 236310, Note_on_c, 0, 65, 57
1, 236316, Note_on_c, 0, 60, 54
1, 236342, Note_off_c, 0, 56, 59
1, 236345, Note_off_c, 0, 60, 62
1, 236345, Note_off_c, 0, 65, 63
1, 236347, Note_off_c, 0, 66, 59
1, 236400, Control_c, 0, 67, 122
1, 236426, Note_on_c, 0, 66, 57
1, 236429, Note_on_c, 0, 63, 56
1, 236430, Note_on_c, 0, 54, 61
1, 236461, Note_off_c, 0, 66, 63
1, 236464, Note_off_c, 0, 63, 63
1, 236465, Note_off_c, 0, 54, 62
1, 236563, Control_c, 0, 67, 123
1, 236563, Note_on_c, 0, 69, 67
1, 236569, Note_on_c, 0, 66, 63
1, 236573, Note_on_c, 0, 57, 53
1, 236574, Note_on_c, 0, 62, 57
1, 236607, Control_c, 0, 64, 59
1, 236622, Control_c, 0, 64, 66
1, 236635, Note_off_c, 0, 57, 63
1, 236637, Control_c, 0, 64, 73
1, 236651, Control_c, 0, 64, 82
1, 236653, Note_off_c, 0, 62, 61
1, 236666, Control_c, 0, 64, 92
1, 236670, Note_off_c, 0, 66, 63
1, 236681, Control_c, 0, 64, 100
1, 236691, Note_off_c, 0, 69, 63
1, 236696, Control_c, 0, 64, 105
1, 236711, Control_c, 0, 64, 109
1, 236727, Control_c, 0, 64, 111
1, 236742, Control_c, 0, 64, 111
1, 236756, Control_c, 0, 64, 113
1, 236771, Control_c, 0, 64, 119
1, 236786, Control_c, 0, 64, 127
1, 236874, Control_c, 0, 67, 122
1, 236891, Note_on_c, 0, 81, 67
1, 236904, Control_c, 0, 67, 122
1, 236919, Control_c, 0, 67, 121
1, 236924, Note_on_c, 0, 83, 79
1, 236930, Note_on_c, 0, 88, 82
1, 236934, Control_c, 0, 67, 121
1, 236939, Note_on_c, 0, 90, 91
1, 236942, Note_on_c, 0, 92, 92
1, 236948, Note_off_c, 0, 81, 64
1, 236956, Note_on_c, 0, 84, 80
1, 236958, Note_on_c, 0, 86, 83
1, 236962, Note_on_c, 0, 93, 89
1, 236980, Note_off_c, 0, 88, 66
1, 236982, Note_off_c, 0, 83, 64
1, 236983, Note_off_c, 0, 93, 66
1, 236988, Note_off_c, 0, 92, 67
1, 236994, Note_off_c, 0, 90, 65
1, 236995, Note_off_c, 0, 84, 64
1, 237000, Note_off_c, 0, 86, 64
1, 237016, Control_c, 0, 67, 121
1, 237030, Control_c, 0, 67, 122
1, 237045, Control_c, 0, 67, 122
1, 237060, Control_c, 0, 64, 118
1, 237060, Control_c, 0, 67, 123
1, 237075, Control_c, 0, 64, 113
1, 237089, Control_c, 0, 64, 110
1, 237089, Control_c, 0, 67, 123
1, 237104, Control_c, 0, 64, 109
1, 237119, Control_c, 0, 64, 107
1, 237134, Control_c, 0, 64, 104
1, 237149, Control_c, 0, 64, 101
1, 237163, Control_c, 0, 64, 97
1, 237178, Control_c, 0, 64, 91
1, 237193, Control_c, 0, 64, 84
1, 237206, Note_on_c, 0, 66, 78
1, 237208, Control_c, 0, 64, 74
1, 237223, Control_c, 0, 64, 64
1, 237237, Control_c, 0, 64, 39
1, 237239, Note_on_c, 0, 62, 56
1, 237243, Note_on_c, 0, 57, 48
1, 237252, Control_c, 0, 64, 0
1, 237296, Control_c, 0, 64, 17
1, 237311, Control_c, 0, 64, 40
1, 237326, Control_c, 0, 64, 56
1, 237341, Control_c, 0, 64, 63
1, 237355, Control_c, 0, 64, 66
1, 237362, Note_off_c, 0, 62, 57
1, 237370, Control_c, 0, 64, 67
1, 237385, Control_c, 0, 67, 123
1, 237405, Note_off_c, 0, 57, 60
1, 237406, Note_off_c, 0, 66, 58
1, 237444, Control_c, 0, 64, 67
1, 237470, Note_on_c, 0, 56, 59
1, 237470, Note_on_c, 0, 60, 60
1, 237472, Note_on_c, 0, 66, 57
1, 237474, Control_c, 0, 64, 66
1, 237475, Note_on_c, 0, 65, 65
1, 237500, Note_off_c, 0, 60, 66
1, 237503, Note_off_c, 0, 56, 64
1, 237504, Control_c, 0, 67, 122
1, 237521, Note_off_c, 0, 65, 57
1, 237535, Control_c, 0, 64, 66
1, 237537, Note_off_c, 0, 66, 58
1, 237565, Control_c, 0, 64, 65
1, 237589, Note_on_c, 0, 66, 62
1, 237594, Control_c, 0, 64, 64
1, 237596, Note_on_c, 0, 54, 62
1, 237597, Note_on_c, 0, 59, 60
1, 237600, Note_on_c, 0, 63, 65
1, 237609, Control_c, 0, 64, 64
1, 237624, Control_c, 0, 64, 63
1, 237631, Note_off_c, 0, 59, 60
1, 237633, Note_off_c, 0, 54, 66
1, 237635, Note_off_c, 0, 63, 61
1, 237639, Control_c, 0, 64, 63
1, 237643, Note_off_c, 0, 66, 62
1, 237668, Control_c, 0, 64, 62
1, 237705, Control_c, 0, 64, 62
1, 237720, Control_c, 0, 64, 61
1, 237720, Note_on_c, 0, 66, 79
1, 237732, Note_on_c, 0, 62, 69
1, 237735, Control_c, 0, 64, 59
1, 237735, Note_on_c, 0, 57, 58
1, 237749, Control_c, 0, 64, 57
1, 237764, Control_c, 0, 64, 55
1, 237768, Note_off_c, 0, 62, 62
1, 237776, Note_off_c, 0, 57, 61
1, 237778, Note_off_c, 0, 66, 62
1, 237779, Control_c, 0, 64, 54
1, 237794, Control_c, 0, 64, 53
1, 237809, Control_c, 0, 64, 50
1, 237824, Control_c, 0, 64, 46
1, 237839, Control_c, 0, 64, 44
1, 237839, Note_on_c, 0, 66, 70
1, 237845, Note_on_c, 0, 56, 68
1, 237850, Note_on_c, 0, 65, 73
1, 237851, Note_on_c, 0, 60, 65
1, 237853, Control_c, 0, 64, 43
1, 237868, Control_c, 0, 64, 42
1, 237881, Note_off_c, 0, 56, 63
1, 237883, Control_c, 0, 64, 38
1, 237884, Note_off_c, 0, 60, 64
1, 237891, Note_off_c, 0, 66, 63
1, 237898, Control_c, 0, 64, 28
1, 237900, Note_off_c, 0, 65, 59
1, 237912, Control_c, 0, 64, 11
1, 237927, Control_c, 0, 64, 0
1, 237961, Note_on_c, 0, 54, 70
1, 237961, Note_on_c, 0, 66, 75
1, 237965, Note_on_c, 0, 63, 73
1, 237976, Note_on_c, 0, 59, 46
1, 238002, Note_off_c, 0, 59, 56
1, 238006, Note_off_c, 0, 54, 58
1, 238009, Note_off_c, 0, 66, 58
1, 238011, Note_off_c, 0, 63, 57
1, 238107, Note_on_c, 0, 66, 73
1, 238107, Note_on_c, 0, 69, 78
1, 238110, Note_on_c, 0, 62, 63
1, 238111, Note_on_c, 0, 57, 62
1, 238120, Control_c, 0, 64, 35
1, 238135, Control_c, 0, 64, 62
1, 238135, Control_c, 0, 67, 122
1, 238148, Note_off_c, 0, 57, 64
1, 238150, Control_c, 0, 64, 68
1, 238165, Control_c, 0, 64, 74
1, 238173, Note_off_c, 0, 62, 62
1, 238174, Note_off_c, 0, 66, 62
1, 238179, Control_c, 0, 64, 82
1, 238194, Control_c, 0, 64, 89
1, 238200, Note_off_c, 0, 69, 63
1, 238209, Control_c, 0, 64, 95
1, 238223, Control_c, 0, 64, 98
1, 238238, Control_c, 0, 64, 100
1, 238253, Control_c, 0, 64, 100
1, 238400, Note_on_c, 0, 81, 72
1, 238432, Note_on_c, 0, 88, 79
1, 238432, Control_c, 0, 67, 121
1, 238443, Note_on_c, 0, 90, 87
1, 238452, Note_on_c, 0, 83, 74
1, 238462, Note_on_c, 0, 84, 75
1, 238463, Note_on_c, 0, 86, 91
1, 238463, Note_on_c, 0, 92, 88
1, 238474, Note_off_c, 0, 81, 55
1, 238476, Note_on_c, 0, 93, 95
1, 238510, Note_off_c, 0, 86, 68
1, 238513, Note_off_c, 0, 88, 65
1, 238513, Note_off_c, 0, 93, 67
1, 238513, Note_off_c, 0, 84, 66
1, 238516, Note_off_c, 0, 83, 44
1, 238518, Note_off_c, 0, 92, 66
1, 238521, Note_off_c, 0, 90, 64
1, 238558, Control_c, 0, 67, 122
1, 238573, Control_c, 0, 64, 99
1, 238573, Control_c, 0, 67, 122
1, 238588, Control_c, 0, 64, 98
1, 238588, Control_c, 0, 67, 123
1, 238602, Control_c, 0, 64, 97
1, 238632, Control_c, 0, 64, 96
1, 238647, Control_c, 0, 64, 96
1, 238662, Control_c, 0, 64, 94
1, 238677, Control_c, 0, 64, 91
1, 238691, Control_c, 0, 64, 85
1, 238706, Control_c, 0, 64, 74
1, 238721, Note_on_c, 0, 66, 87
1, 238721, Control_c, 0, 64, 64
1, 238736, Control_c, 0, 64, 46
1, 238742, Note_on_c, 0, 62, 62
1, 238747, Note_on_c, 0, 57, 59
1, 238751, Control_c, 0, 64, 35
1, 238766, Control_c, 0, 64, 38
1, 238781, Control_c, 0, 64, 50
1, 238795, Control_c, 0, 64, 60
1, 238809, Control_c, 0, 64, 63
1, 238824, Control_c, 0, 64, 65
1, 238839, Control_c, 0, 64, 66
1, 238851, Note_off_c, 0, 62, 55
1, 238853, Control_c, 0, 64, 67
1, 238868, Control_c, 0, 64, 67
1, 238868, Control_c, 0, 67, 122
1, 238912, Note_off_c, 0, 57, 58
1, 238913, Control_c, 0, 64, 67
1, 238913, Control_c, 0, 67, 122
1, 238917, Note_off_c, 0, 66, 57
1, 238927, Control_c, 0, 64, 66
1, 238957, Control_c, 0, 64, 66
1, 238966, Note_on_c, 0, 60, 64
1, 238966, Note_on_c, 0, 56, 64
1, 238969, Note_on_c, 0, 66, 58
1, 238979, Note_on_c, 0, 65, 74
1, 238998, Note_off_c, 0, 60, 65
1, 239001, Control_c, 0, 64, 65
1, 239002, Note_off_c, 0, 56, 63
1, 239016, Control_c, 0, 67, 121
1, 239033, Note_off_c, 0, 65, 60
1, 239041, Note_off_c, 0, 66, 60
1, 239091, Note_on_c, 0, 54, 68
1, 239095, Note_on_c, 0, 66, 66
1, 239098, Note_on_c, 0, 59, 61
1, 239105, Note_on_c, 0, 63, 66
1, 239128, Note_off_c, 0, 59, 65
1, 239130, Note_off_c, 0, 54, 62
1, 239139, Note_off_c, 0, 63, 64
1, 239152, Note_off_c, 0, 66, 62
1, 239218, Note_on_c, 0, 66, 77
1, 239235, Note_on_c, 0, 57, 59
1, 239242, Note_on_c, 0, 62, 58
1, 239247, Control_c, 0, 67, 121
1, 239262, Control_c, 0, 67, 120
1, 239264, Note_off_c, 0, 62, 62
1, 239269, Note_off_c, 0, 57, 63
1, 239274, Note_off_c, 0, 66, 62
1, 239276, Control_c, 0, 64, 66
1, 239276, Control_c, 0, 67, 120
1, 239291, Control_c, 0, 67, 118
1, 239306, Control_c, 0, 64, 66
1, 239306, Control_c, 0, 67, 117
1, 239321, Control_c, 0, 64, 67
1, 239321, Control_c, 0, 67, 116
1, 239336, Control_c, 0, 64, 68
1, 239336, Control_c, 0, 67, 115
1, 239340, Note_on_c, 0, 66, 74
1, 239344, Note_on_c, 0, 60, 70
1, 239344, Note_on_c, 0, 56, 70
1, 239345, Note_on_c, 0, 65, 75
1, 239350, Control_c, 0, 67, 115
1, 239365, Control_c, 0, 64, 68
1, 239365, Control_c, 0, 67, 114
1, 239375, Note_off_c, 0, 60, 66
1, 239376, Note_off_c, 0, 56, 66
1, 239380, Control_c, 0, 67, 113
1, 239395, Control_c, 0, 67, 112
1, 239396, Note_off_c, 0, 65, 56
1, 239396, Note_off_c, 0, 66, 62
1, 239410, Control_c, 0, 64, 68
1, 239410, Control_c, 0, 67, 111
1, 239425, Control_c, 0, 67, 110
1, 239440, Control_c, 0, 64, 68
1, 239455, Note_on_c, 0, 66, 74
1, 239455, Control_c, 0, 67, 109
1, 239464, Note_on_c, 0, 59, 67
1, 239464, Note_on_c, 0, 63, 69
1, 239469, Control_c, 0, 64, 69
1, 239473, Note_on_c, 0, 54, 61
1, 239484, Control_c, 0, 64, 70
1, 239484, Control_c, 0, 67, 109
1, 239491, Note_off_c, 0, 59, 64
1, 239496, Note_off_c, 0, 63, 63
1, 239499, Note_off_c, 0, 66, 61
1, 239499, Control_c, 0, 64, 69
1, 239505, Note_off_c, 0, 54, 63
1, 239514, Control_c, 0, 64, 67
1, 239514, Control_c, 0, 67, 108
1, 239529, Control_c, 0, 64, 65
1, 239529, Control_c, 0, 67, 107
1, 239543, Control_c, 0, 67, 106
1, 239557, Control_c, 0, 64, 67
1, 239557, Control_c, 0, 67, 106
1, 239572, Control_c, 0, 64, 69
1, 239572, Control_c, 0, 67, 105
1, 239578, Note_on_c, 0, 52, 77
1, 239580, Note_on_c, 0, 64, 84
1, 239580, Note_on_c, 0, 57, 70
1, 239584, Note_on_c, 0, 61, 80
1, 239587, Control_c, 0, 64, 71
1, 239602, Control_c, 0, 64, 72
1, 239602, Control_c, 0, 67, 105
1, 239607, Note_off_c, 0, 57, 66
1, 239610, Note_off_c, 0, 52, 65
1, 239617, Control_c, 0, 64, 73
1, 239631, Control_c, 0, 67, 104
1, 239638, Note_off_c, 0, 61, 60
1, 239642, Note_off_c, 0, 64, 64
1, 239646, Control_c, 0, 64, 72
1, 239646, Control_c, 0, 67, 103
1, 239661, Control_c, 0, 64, 71
1, 239661, Control_c, 0, 67, 102
1, 239675, Control_c, 0, 67, 101
1, 239690, Control_c, 0, 64, 71
1, 239690, Control_c, 0, 67, 100
1, 239694, Note_on_c, 0, 58, 76
1, 239699, Note_on_c, 0, 54, 71
1, 239705, Note_on_c, 0, 63, 83
1, 239705, Control_c, 0, 64, 70
1, 239705, Control_c, 0, 67, 100
1, 239713, Note_on_c, 0, 64, 77
1, 239720, Control_c, 0, 64, 70
1, 239720, Control_c, 0, 67, 99
1, 239735, Control_c, 0, 64, 69
1, 239735, Control_c, 0, 67, 98
1, 239750, Control_c, 0, 64, 68
1, 239750, Control_c, 0, 67, 96
1, 239753, Note_off_c, 0, 58, 61
1, 239757, Note_off_c, 0, 64, 60
1, 239765, Control_c, 0, 64, 67
1, 239765, Control_c, 0, 67, 94
1, 239771, Note_off_c, 0, 63, 63
1, 239779, Control_c, 0, 64, 65
1, 239779, Control_c, 0, 67, 92
1, 239794, Control_c, 0, 64, 64
1, 239794, Control_c, 0, 67, 90
1, 239809, Control_c, 0, 64, 64
1, 239809, Control_c, 0, 67, 87
1, 239822, Note_on_c, 0, 57, 72
1, 239824, Control_c, 0, 67, 85
1, 239824, Note_on_c, 0, 64, 91
1, 239827, Note_on_c, 0, 52, 75
1, 239828, Note_on_c, 0, 61, 87
1, 239839, Control_c, 0, 67, 82
1, 239854, Control_c, 0, 64, 64
1, 239854, Control_c, 0, 67, 76
1, 239866, Note_off_c, 0, 57, 59
1, 239868, Control_c, 0, 67, 70
1, 239881, Note_off_c, 0, 54, 46
1, 239883, Control_c, 0, 64, 65
1, 239883, Control_c, 0, 67, 62
1, 239890, Note_off_c, 0, 61, 63
1, 239893, Note_off_c, 0, 64, 65
1, 239898, Control_c, 0, 64, 65
1, 239898, Control_c, 0, 67, 53
1, 239902, Note_off_c, 0, 52, 57
1, 239914, Control_c, 0, 64, 66
1, 239914, Control_c, 0, 67, 44
1, 239929, Control_c, 0, 64, 67
1, 239929, Control_c, 0, 67, 35
1, 239951, Control_c, 0, 64, 68
1, 239951, Control_c, 0, 67, 28
1, 239952, Note_on_c, 0, 64, 88
1, 239961, Note_on_c, 0, 60, 75
1, 239961, Note_on_c, 0, 55, 72
1, 239966, Control_c, 0, 64, 69
1, 239966, Control_c, 0, 67, 23
1, 239980, Control_c, 0, 64, 70
1, 239980, Control_c, 0, 67, 16
1, 239995, Control_c, 0, 64, 71
1, 239995, Control_c, 0, 67, 8
1, 240005, Note_off_c, 0, 60, 59
1, 240010, Control_c, 0, 64, 73
1, 240010, Control_c, 0, 67, 0
1, 240025, Control_c, 0, 64, 75
1, 240026, Note_off_c, 0, 64, 65
1, 240033, Note_off_c, 0, 55, 59
1, 240040, Control_c, 0, 64, 78
1, 240054, Control_c, 0, 64, 83
1, 240069, Control_c, 0, 64, 88
1, 240084, Control_c, 0, 64, 93
1, 240089, Note_on_c, 0, 63, 81
1, 240090, Note_on_c, 0, 58, 80
1, 240093, Note_on_c, 0, 64, 88
1, 240095, Note_on_c, 0, 54, 76
1, 240099, Control_c, 0, 64, 99
1, 240113, Control_c, 0, 64, 107
1, 240128, Control_c, 0, 64, 127
1, 240151, Note_off_c, 0, 63, 58
1, 240161, Note_off_c, 0, 64, 63
1, 240169, Note_off_c, 0, 58, 60
1, 240209, Note_on_c, 0, 64, 84
1, 240211, Note_on_c, 0, 61, 85
1, 240212, Note_on_c, 0, 52, 90
1, 240215, Note_on_c, 0, 57, 87
1, 240233, Note_off_c, 0, 61, 69
1, 240236, Note_off_c, 0, 57, 71
1, 240242, Note_off_c, 0, 54, 63
1, 240245, Note_off_c, 0, 64, 68
1, 240255, Note_off_c, 0, 52, 65
1, 240543, Note_on_c, 0, 100, 95
1, 240546, Note_on_c, 0, 87, 102
1, 240546, Note_on_c, 0, 95, 100
1, 240548, Note_on_c, 0, 31, 106
1, 240549, Note_on_c, 0, 43, 105
1, 240558, Control_c, 0, 64, 98
1, 240572, Note_on_c, 0, 41, 57
1, 240573, Note_off_c, 0, 41, 127
1, 240573, Control_c, 0, 64, 70
1, 240588, Control_c, 0, 64, 0
1, 240598, Note_on_c, 0, 96, 31
1, 240599, Note_off_c, 0, 96, 127
1, 240633, Control_c, 0, 64, 65
1, 240648, Control_c, 0, 64, 86
1, 240663, Control_c, 0, 64, 127
1, 240702, Note_off_c, 0, 31, 64
1, 240723, Note_off_c, 0, 95, 63
1, 240740, Note_off_c, 0, 43, 64
1, 240771, Note_off_c, 0, 87, 56
1, 240778, Note_off_c, 0, 100, 53
1, 240884, Note_on_c, 0, 94, 97
1, 240885, Note_on_c, 0, 86, 94
1, 240886, Note_on_c, 0, 99, 95
1, 240888, Note_on_c, 0, 50, 90
1, 240890, Note_on_c, 0, 59, 90
1, 240983, Note_off_c, 0, 86, 61
1, 240983, Note_off_c, 0, 94, 65
1, 241007, Note_off_c, 0, 99, 63
1, 241056, Note_off_c, 0, 59, 59
1, 241060, Note_off_c, 0, 50, 53
1, 241085, Note_on_c, 0, 62, 87
1, 241087, Note_on_c, 0, 85, 95
1, 241088, Note_on_c, 0, 55, 80
1, 241088, Note_on_c, 0, 93, 93
1, 241092, Note_on_c, 0, 98, 91
1, 241128, Note_off_c, 0, 55, 65
1, 241155, Note_off_c, 0, 62, 65
1, 241158, Note_off_c, 0, 93, 64
1, 241161, Note_off_c, 0, 85, 61
1, 241168, Note_off_c, 0, 98, 67
1, 241242, Note_on_c, 0, 100, 92
1, 241243, Note_on_c, 0, 87, 92
1, 241244, Note_on_c, 0, 67, 85
1, 241244, Note_on_c, 0, 59, 87
1, 241246, Note_on_c, 0, 95, 88
1, 241320, Note_off_c, 0, 87, 62
1, 241320, Note_off_c, 0, 100, 63
1, 241327, Note_off_c, 0, 59, 59
1, 241328, Note_off_c, 0, 95, 64
1, 241352, Note_off_c, 0, 67, 61
1, 241375, Note_on_c, 0, 62, 72
1, 241381, Note_on_c, 0, 99, 101
1, 241384, Note_on_c, 0, 86, 94
1, 241385, Note_on_c, 0, 71, 88
1, 241387, Note_on_c, 0, 94, 88
1, 241446, Note_off_c, 0, 62, 61
1, 241455, Note_off_c, 0, 86, 63
1, 241465, Note_off_c, 0, 71, 66
1, 241479, Note_off_c, 0, 99, 62
1, 241482, Note_off_c, 0, 94, 59
1, 241524, Note_on_c, 0, 98, 96
1, 241524, Note_on_c, 0, 85, 103
1, 241524, Note_on_c, 0, 94, 71
1, 241533, Note_on_c, 0, 67, 87
1, 241539, Note_on_c, 0, 74, 74
1, 241559, Note_on_c, 0, 87, 50
1, 241560, Note_off_c, 0, 87, 127
1, 241567, Note_on_c, 0, 72, 43
1, 241568, Note_off_c, 0, 72, 127
1, 241581, Note_off_c, 0, 85, 61
1, 241583, Note_off_c, 0, 67, 58
1, 241584, Note_off_c, 0, 98, 67
1, 241593, Note_off_c, 0, 94, 65
1, 241604, Note_off_c, 0, 74, 64
1, 241649, Note_on_c, 0, 77, 78
1, 241652, Note_on_c, 0, 99, 92
1, 241652, Note_on_c, 0, 87, 105
1, 241666, Note_on_c, 0, 100, 76
1, 241670, Note_on_c, 0, 101, 85
1, 241679, Note_on_c, 0, 97, 52
1, 241685, Note_off_c, 0, 77, 66
1, 241688, Note_off_c, 0, 101, 67
1, 241700, Note_off_c, 0, 97, 62
1, 241709, Note_off_c, 0, 100, 43
1, 241715, Note_off_c, 0, 87, 62
1, 241734, Note_off_c, 0, 99, 64
1, 241772, Note_on_c, 0, 83, 80
1, 241773, Note_on_c, 0, 98, 105
1, 241775, Note_on_c, 0, 86, 96
1, 241783, Note_on_c, 0, 74, 79
1, 241793, Note_off_c, 0, 83, 70
1, 241802, Note_on_c, 0, 97, 47
1, 241803, Note_off_c, 0, 74, 73
1, 241806, Note_off_c, 0, 86, 68
1, 241818, Note_off_c, 0, 98, 72
1, 241828, Note_off_c, 0, 97, 37
1, 241877, Poly_aftertouch_c, 0, 76, 0
1, 241894, Control_c, 0, 67, 9
1, 241909, Control_c, 0, 67, 15
1, 241924, Control_c, 0, 67, 21
1, 241939, Control_c, 0, 67, 28
1, 241954, Control_c, 0, 64, 108
1, 241954, Control_c, 0, 67, 33
1, 241968, Control_c, 0, 64, 85
1, 241968, Control_c, 0, 67, 41
1, 241983, Control_c, 0, 64, 68
1, 241983, Control_c, 0, 67, 49
1, 241998, Control_c, 0, 64, 46
1, 241998, Control_c, 0, 67, 57
1, 242013, Control_c, 0, 64, 26
1, 242013, Control_c, 0, 67, 63
1, 242028, Control_c, 0, 64, 30
1, 242028, Control_c, 0, 67, 68
1, 242037, Note_on_c, 0, 57, 67
1, 242042, Note_on_c, 0, 66, 70
1, 242043, Control_c, 0, 64, 46
1, 242043, Control_c, 0, 67, 73
1, 242044, Note_on_c, 0, 102, 77
1, 242045, Note_on_c, 0, 107, 76
1, 242051, Note_on_c, 0, 99, 69
1, 242052, Note_on_c, 0, 62, 45
1, 242058, Control_c, 0, 64, 56
1, 242058, Control_c, 0, 67, 79
1, 242072, Control_c, 0, 64, 62
1, 242072, Control_c, 0, 67, 85
1, 242087, Control_c, 0, 64, 64
1, 242087, Control_c, 0, 67, 91
1, 242091, Note_off_c, 0, 57, 58
1, 242102, Control_c, 0, 64, 65
1, 242102, Control_c, 0, 67, 97
1, 242106, Note_off_c, 0, 66, 59
1, 242106, Note_off_c, 0, 99, 62
1, 242115, Note_off_c, 0, 62, 58
1, 242117, Control_c, 0, 64, 64
1, 242117, Control_c, 0, 67, 103
1, 242124, Note_off_c, 0, 102, 62
1, 242124, Note_off_c, 0, 107, 59
1, 242132, Control_c, 0, 67, 108
1, 242146, Control_c, 0, 67, 112
1, 242159, Note_on_c, 0, 59, 65
1, 242161, Control_c, 0, 67, 114
1, 242166, Note_on_c, 0, 68, 70
1, 242167, Note_on_c, 0, 106, 71
1, 242168, Note_on_c, 0, 63, 63
1, 242171, Note_on_c, 0, 98, 72
1, 242176, Control_c, 0, 67, 114
1, 242177, Note_on_c, 0, 101, 49
1, 242194, Note_off_c, 0, 59, 64
1, 242199, Note_off_c, 0, 106, 67
1, 242201, Note_off_c, 0, 68, 65
1, 242201, Note_off_c, 0, 98, 71
1, 242204, Note_off_c, 0, 63, 65
1, 242205, Note_off_c, 0, 101, 60
1, 242213, Control_c, 0, 64, 64
1, 242228, Control_c, 0, 64, 63
1, 242243, Control_c, 0, 64, 63
1, 242287, Control_c, 0, 64, 63
1, 242290, Note_on_c, 0, 60, 76
1, 242292, Note_on_c, 0, 69, 76
1, 242293, Note_on_c, 0, 99, 80
1, 242296, Note_on_c, 0, 97, 68
1, 242306, Note_on_c, 0, 105, 71
1, 242307, Note_on_c, 0, 104, 50
1, 242313, Note_on_c, 0, 65, 59
1, 242326, Note_off_c, 0, 60, 62
1, 242333, Note_off_c, 0, 104, 63
1, 242340, Note_off_c, 0, 65, 58
1, 242341, Note_off_c, 0, 97, 51
1, 242345, Note_off_c, 0, 69, 60
1, 242347, Control_c, 0, 64, 64
1, 242358, Note_off_c, 0, 105, 56
1, 242372, Note_off_c, 0, 99, 64
1, 242377, Control_c, 0, 67, 114
1, 242392, Control_c, 0, 64, 63
1, 242407, Control_c, 0, 67, 113
1, 242408, Note_on_c, 0, 62, 69
1, 242410, Note_on_c, 0, 95, 80
1, 242412, Note_on_c, 0, 98, 80
1, 242413, Note_on_c, 0, 71, 74
1, 242415, Note_on_c, 0, 103, 77
1, 242421, Note_on_c, 0, 66, 64
1, 242422, Control_c, 0, 64, 64
1, 242434, Note_off_c, 0, 62, 66
1, 242439, Note_off_c, 0, 103, 68
1, 242441, Note_off_c, 0, 98, 65
1, 242442, Note_off_c, 0, 71, 64
1, 242446, Note_off_c, 0, 66, 65
1, 242451, Control_c, 0, 64, 63
1, 242454, Note_off_c, 0, 95, 67
1, 242513, Note_on_c, 0, 63, 76
1, 242515, Note_on_c, 0, 68, 67
1, 242516, Note_on_c, 0, 72, 66
1, 242529, Note_on_c, 0, 102, 91
1, 242530, Note_on_c, 0, 94, 86
1, 242550, Note_on_c, 0, 97, 55
1, 242552, Note_on_c, 0, 96, 68
1, 242555, Control_c, 0, 64, 64
1, 242566, Note_off_c, 0, 72, 54
1, 242569, Control_c, 0, 67, 112
1, 242577, Note_off_c, 0, 63, 59
1, 242580, Note_off_c, 0, 97, 56
1, 242583, Note_off_c, 0, 96, 60
1, 242584, Control_c, 0, 64, 64
1, 242584, Control_c, 0, 67, 112
1, 242585, Note_off_c, 0, 68, 48
1, 242595, Note_off_c, 0, 94, 53
1, 242599, Control_c, 0, 67, 111
1, 242614, Control_c, 0, 64, 65
1, 242619, Note_off_c, 0, 102, 63
1, 242631, Note_on_c, 0, 65, 70
1, 242637, Note_on_c, 0, 74, 80
1, 242643, Control_c, 0, 64, 65
1, 242647, Note_on_c, 0, 95, 82
1, 242651, Note_on_c, 0, 100, 73
1, 242652, Note_on_c, 0, 69, 51
1, 242656, Note_on_c, 0, 92, 80
1, 242660, Note_off_c, 0, 65, 66
1, 242662, Note_off_c, 0, 74, 69
1, 242675, Note_off_c, 0, 69, 59
1, 242689, Note_off_c, 0, 100, 62
1, 242692, Note_off_c, 0, 95, 64
1, 242702, Note_off_c, 0, 92, 64
1, 242702, Control_c, 0, 64, 66
1, 242717, Control_c, 0, 64, 66
1, 242732, Control_c, 0, 64, 67
1, 242747, Control_c, 0, 67, 112
1, 242748, Note_on_c, 0, 75, 87
1, 242752, Note_on_c, 0, 66, 79
1, 242762, Control_c, 0, 64, 67
1, 242764, Note_on_c, 0, 91, 86
1, 242769, Note_on_c, 0, 94, 89
1, 242772, Note_on_c, 0, 99, 88
1, 242788, Note_on_c, 0, 71, 46
1, 242800, Note_off_c, 0, 66, 58
1, 242806, Control_c, 0, 64, 68
1, 242808, Note_off_c, 0, 75, 63
1, 242809, Note_off_c, 0, 91, 66
1, 242821, Note_off_c, 0, 71, 52
1, 242821, Control_c, 0, 67, 111
1, 242833, Note_off_c, 0, 94, 63
1, 242836, Control_c, 0, 67, 111
1, 242851, Control_c, 0, 67, 110
1, 242866, Control_c, 0, 67, 110
1, 242875, Note_on_c, 0, 93, 87
1, 242878, Note_on_c, 0, 73, 69
1, 242879, Note_on_c, 0, 77, 70
1, 242880, Note_on_c, 0, 76, 63
1, 242881, Note_on_c, 0, 90, 80
1, 242885, Note_on_c, 0, 68, 42
1, 242887, Note_on_c, 0, 98, 67
1, 242901, Note_off_c, 0, 77, 70
1, 242903, Note_off_c, 0, 73, 68
1, 242906, Note_off_c, 0, 76, 66
1, 242908, Note_off_c, 0, 98, 66
1, 242913, Note_off_c, 0, 68, 53
1, 242914, Note_off_c, 0, 93, 66
1, 242916, Note_off_c, 0, 90, 63
1, 242922, Note_off_c, 0, 99, 33
1, 242947, Control_c, 0, 64, 68
1, 242962, Control_c, 0, 64, 69
1, 242976, Control_c, 0, 64, 70
1, 242990, Note_on_c, 0, 70, 56
1, 242990, Note_on_c, 0, 78, 85
1, 242991, Control_c, 0, 64, 71
1, 242997, Note_on_c, 0, 92, 96
1, 243002, Note_on_c, 0, 88, 88
1, 243005, Note_on_c, 0, 96, 86
1, 243006, Control_c, 0, 64, 72
1, 243012, Note_on_c, 0, 74, 67
1, 243015, Note_on_c, 0, 69, 52
1, 243015, Note_off_c, 0, 70, 59
1, 243029, Note_on_c, 0, 91, 77
1, 243036, Control_c, 0, 67, 109
1, 243042, Note_off_c, 0, 69, 63
1, 243052, Note_off_c, 0, 88, 63
1, 243056, Note_off_c, 0, 78, 62
1, 243057, Note_off_c, 0, 92, 62
1, 243063, Note_off_c, 0, 96, 62
1, 243065, Control_c, 0, 64, 71
1, 243065, Control_c, 0, 67, 109
1, 243067, Note_off_c, 0, 74, 52
1, 243074, Note_off_c, 0, 91, 65
1, 243080, Control_c, 0, 67, 108
1, 243095, Control_c, 0, 67, 107
1, 243108, Note_on_c, 0, 90, 89
1, 243110, Control_c, 0, 67, 106
1, 243110, Note_on_c, 0, 87, 94
1, 243110, Note_on_c, 0, 94, 85
1, 243119, Note_on_c, 0, 79, 79
1, 243125, Note_on_c, 0, 75, 70
1, 243125, Control_c, 0, 67, 106
1, 243127, Note_on_c, 0, 71, 37
1, 243140, Note_on_c, 0, 72, 42
1, 243140, Control_c, 0, 64, 72
1, 243140, Control_c, 0, 67, 105
1, 243155, Note_off_c, 0, 71, 57
1, 243155, Control_c, 0, 67, 105
1, 243156, Note_off_c, 0, 75, 63
1, 243160, Note_off_c, 0, 79, 61
1, 243162, Note_off_c, 0, 90, 64
1, 243164, Note_off_c, 0, 87, 65
1, 243164, Note_off_c, 0, 72, 57
1, 243170, Control_c, 0, 67, 104
1, 243173, Note_off_c, 0, 94, 64
1, 243185, Control_c, 0, 67, 103
1, 243200, Control_c, 0, 64, 72
1, 243200, Control_c, 0, 67, 102
1, 243214, Control_c, 0, 64, 73
1, 243214, Control_c, 0, 67, 101
1, 243225, Note_on_c, 0, 86, 88
1, 243227, Note_on_c, 0, 94, 75
1, 243228, Note_on_c, 0, 89, 85
1, 243229, Control_c, 0, 67, 98
1, 243232, Note_on_c, 0, 72, 72
1, 243235, Note_on_c, 0, 88, 85
1, 243236, Note_on_c, 0, 73, 73
1, 243241, Note_on_c, 0, 83, 71
1, 243241, Note_on_c, 0, 78, 68
1, 243244, Control_c, 0, 64, 74
1, 243244, Control_c, 0, 67, 95
1, 243244, Note_on_c, 0, 95, 76
1, 243249, Note_on_c, 0, 81, 61
1, 243258, Note_off_c, 0, 95, 70
1, 243259, Control_c, 0, 64, 75
1, 243259, Control_c, 0, 67, 90
1, 243262, Note_off_c, 0, 73, 62
1, 243266, Note_off_c, 0, 81, 67
1, 243271, Note_off_c, 0, 72, 61
1, 243271, Note_off_c, 0, 83, 57
1, 243272, Note_off_c, 0, 86, 64
1, 243274, Control_c, 0, 64, 76
1, 243274, Control_c, 0, 67, 83
1, 243289, Control_c, 0, 64, 76
1, 243289, Control_c, 0, 67, 76
1, 243295, Note_off_c, 0, 88, 56
1, 243302, Note_off_c, 0, 89, 62
1, 243304, Control_c, 0, 64, 78
1, 243304, Control_c, 0, 67, 70
1, 243318, Control_c, 0, 64, 79
1, 243318, Control_c, 0, 67, 66
1, 243330, Note_on_c, 0, 92, 92
1, 243333, Control_c, 0, 64, 81
1, 243333, Control_c, 0, 67, 65
1, 243334, Note_on_c, 0, 84, 86
1, 243334, Note_on_c, 0, 87, 91
1, 243337, Note_off_c, 0, 78, 35
1, 243345, Note_on_c, 0, 82, 83
1, 243346, Note_on_c, 0, 83, 71
1, 243348, Control_c, 0, 64, 83
1, 243348, Control_c, 0, 67, 64
1, 243354, Note_off_c, 0, 94, 63
1, 243358, Note_on_c, 0, 77, 58
1, 243363, Control_c, 0, 64, 85
1, 243363, Control_c, 0, 67, 62
1, 243367, Note_off_c, 0, 83, 67
1, 243378, Control_c, 0, 67, 60
1, 243382, Note_off_c, 0, 84, 65
1, 243384, Note_off_c, 0, 87, 66
1, 243385, Note_off_c, 0, 77, 66
1, 243387, Note_off_c, 0, 82, 61
1, 243390, Note_off_c, 0, 92, 65
1, 243392, Control_c, 0, 64, 84
1, 243392, Control_c, 0, 67, 57
1, 243407, Control_c, 0, 67, 56
1, 243434, Poly_aftertouch_c, 0, 74, 0
1, 243437, Control_c, 0, 67, 57
1, 243448, Note_on_c, 0, 83, 84
1, 243450, Note_on_c, 0, 78, 69
1, 243450, Note_on_c, 0, 86, 97
1, 243451, Note_on_c, 0, 91, 98
1, 243451, Control_c, 0, 64, 86
1, 243451, Control_c, 0, 67, 58
1, 243459, Note_on_c, 0, 80, 60
1, 243462, Note_on_c, 0, 74, 62
1, 243466, Control_c, 0, 64, 88
1, 243466, Control_c, 0, 67, 59
1, 243467, Note_on_c, 0, 82, 57
1, 243481, Control_c, 0, 64, 92
1, 243481, Control_c, 0, 67, 60
1, 243487, Note_off_c, 0, 80, 53
1, 243489, Note_off_c, 0, 83, 65
1, 243496, Control_c, 0, 64, 96
1, 243496, Control_c, 0, 67, 60
1, 243498, Note_off_c, 0, 74, 62
1, 243500, Note_off_c, 0, 91, 64
1, 243510, Note_off_c, 0, 86, 68
1, 243511, Control_c, 0, 64, 99
1, 243511, Control_c, 0, 67, 61
1, 243525, Control_c, 0, 64, 100
1, 243525, Control_c, 0, 67, 62
1, 243533, Note_off_c, 0, 78, 0
1, 243540, Control_c, 0, 64, 103
1, 243540, Control_c, 0, 67, 64
1, 243551, Note_off_c, 0, 82, 0
1, 243554, Note_on_c, 0, 78, 25
1, 243555, Control_c, 0, 64, 108
1, 243555, Control_c, 0, 67, 65
1, 243564, Note_on_c, 0, 82, 48
1, 243564, Note_on_c, 0, 85, 89
1, 243565, Note_on_c, 0, 90, 93
1, 243570, Control_c, 0, 64, 118
1, 243570, Control_c, 0, 67, 68
1, 243584, Note_off_c, 0, 85, 66
1, 243585, Control_c, 0, 64, 127
1, 243585, Control_c, 0, 67, 71
1, 243587, Note_off_c, 0, 82, 62
1, 243593, Note_off_c, 0, 78, 54
1, 243599, Control_c, 0, 67, 75
1, 243611, Note_off_c, 0, 90, 67
1, 243614, Control_c, 0, 67, 81
1, 243629, Control_c, 0, 67, 88
1, 243644, Control_c, 0, 67, 97
1, 243659, Control_c, 0, 67, 105
1, 243674, Control_c, 0, 64, 104
1, 243674, Control_c, 0, 67, 112
1, 243696, Control_c, 0, 64, 89
1, 243696, Control_c, 0, 67, 118
1, 243711, Control_c, 0, 64, 76
1, 243711, Control_c, 0, 67, 125
1, 243725, Control_c, 0, 64, 67
1, 243725, Control_c, 0, 67, 127
1, 243730, Note_on_c, 0, 78, 40
1, 243737, Note_on_c, 0, 88, 79
1, 243740, Control_c, 0, 64, 60
1, 243751, Note_on_c, 0, 83, 69
1, 243755, Control_c, 0, 64, 58
1, 243780, Note_off_c, 0, 83, 62
1, 243781, Note_off_c, 0, 78, 62
1, 243784, Control_c, 0, 64, 59
1, 243785, Note_off_c, 0, 88, 61
1, 243799, Control_c, 0, 64, 60
1, 243808, Note_on_c, 0, 99, 75
1, 243814, Control_c, 0, 64, 61
1, 243829, Control_c, 0, 64, 61
1, 243840, Note_on_c, 0, 97, 71
1, 243844, Control_c, 0, 64, 62
1, 243867, Note_off_c, 0, 99, 64
1, 243873, Control_c, 0, 64, 62
1, 243888, Control_c, 0, 64, 63
1, 243889, Note_off_c, 0, 97, 65
1, 243903, Control_c, 0, 64, 63
1, 243906, Note_on_c, 0, 86, 74
1, 243939, Note_off_c, 0, 86, 67
1, 243960, Note_on_c, 0, 81, 69
1, 243963, Note_on_c, 0, 75, 66
1, 243972, Note_on_c, 0, 94, 76
1, 243983, Note_off_c, 0, 81, 69
1, 243991, Note_off_c, 0, 75, 63
1, 244022, Control_c, 0, 64, 64
1, 244030, Note_off_c, 0, 94, 63
1, 244043, Note_on_c, 0, 83, 70
1, 244052, Control_c, 0, 64, 64
1, 244073, Note_off_c, 0, 83, 64
1, 244076, Note_on_c, 0, 88, 70
1, 244131, Note_off_c, 0, 88, 64
1, 244152, Note_on_c, 0, 79, 75
1, 244158, Note_on_c, 0, 73, 68
1, 244159, Note_on_c, 0, 82, 75
1, 244176, Note_off_c, 0, 79, 65
1, 244184, Note_off_c, 0, 82, 62
1, 244186, Note_off_c, 0, 73, 64
1, 244229, Note_on_c, 0, 93, 75
1, 244267, Note_on_c, 0, 91, 61
1, 244297, Note_off_c, 0, 93, 63
1, 244309, Note_off_c, 0, 91, 64
1, 244329, Note_on_c, 0, 80, 69
1, 244350, Note_off_c, 0, 80, 70
1, 244384, Note_on_c, 0, 71, 56
1, 244392, Note_on_c, 0, 89, 80
1, 244404, Note_off_c, 0, 71, 65
1, 244407, Control_c, 0, 64, 64
1, 244414, Note_off_c, 0, 89, 64
1, 244466, Note_on_c, 0, 77, 26
1, 244507, Note_on_c, 0, 82, 70
1, 244508, Note_off_c, 0, 77, 62
1, 244529, Note_off_c, 0, 82, 69
1, 244578, Control_c, 0, 64, 64
1, 244586, Note_on_c, 0, 76, 76
1, 244589, Note_on_c, 0, 69, 73
1, 244589, Note_on_c, 0, 75, 75
1, 244592, Control_c, 0, 64, 65
1, 244607, Control_c, 0, 64, 67
1, 244622, Note_off_c, 0, 76, 63
1, 244622, Control_c, 0, 64, 69
1, 244634, Note_off_c, 0, 69, 63
1, 244637, Control_c, 0, 64, 71
1, 244642, Note_off_c, 0, 75, 61
1, 244643, Note_on_c, 0, 87, 87
1, 244652, Control_c, 0, 64, 73
1, 244666, Control_c, 0, 64, 74
1, 244681, Control_c, 0, 64, 75
1, 244699, Note_on_c, 0, 85, 68
1, 244727, Note_off_c, 0, 87, 65
1, 244727, Control_c, 0, 64, 74
1, 244742, Control_c, 0, 64, 74
1, 244747, Note_off_c, 0, 85, 60
1, 244750, Note_on_c, 0, 74, 75
1, 244757, Control_c, 0, 64, 73
1, 244771, Control_c, 0, 64, 71
1, 244782, Note_off_c, 0, 74, 65
1, 244786, Control_c, 0, 64, 69
1, 244801, Control_c, 0, 64, 67
1, 244815, Control_c, 0, 64, 66
1, 244826, Note_on_c, 0, 82, 73
1, 244827, Note_on_c, 0, 73, 59
1, 244830, Control_c, 0, 64, 65
1, 244836, Note_on_c, 0, 67, 53
1, 244845, Control_c, 0, 64, 63
1, 244848, Note_off_c, 0, 73, 65
1, 244860, Note_off_c, 0, 67, 59
1, 244860, Control_c, 0, 64, 61
1, 244875, Control_c, 0, 64, 58
1, 244885, Note_on_c, 0, 71, 63
1, 244890, Control_c, 0, 64, 55
1, 244893, Note_off_c, 0, 82, 61
1, 244905, Control_c, 0, 64, 51
1, 244920, Note_off_c, 0, 71, 63
1, 244920, Control_c, 0, 64, 46
1, 244934, Note_on_c, 0, 76, 69
1, 244934, Control_c, 0, 64, 44
1, 244979, Control_c, 0, 64, 46
1, 244988, Note_off_c, 0, 76, 61
1, 244994, Control_c, 0, 64, 51
1, 245006, Note_on_c, 0, 70, 79
1, 245009, Control_c, 0, 64, 56
1, 245016, Note_on_c, 0, 71, 75
1, 245021, Note_on_c, 0, 65, 74
1, 245023, Control_c, 0, 64, 61
1, 245038, Control_c, 0, 64, 64
1, 245050, Note_off_c, 0, 71, 59
1, 245053, Note_off_c, 0, 65, 65
1, 245053, Control_c, 0, 64, 69
1, 245057, Note_off_c, 0, 70, 64
1, 245068, Control_c, 0, 64, 74
1, 245083, Note_on_c, 0, 81, 73
1, 245083, Control_c, 0, 64, 78
1, 245097, Control_c, 0, 64, 81
1, 245110, Note_on_c, 0, 79, 71
1, 245112, Control_c, 0, 64, 83
1, 245142, Note_off_c, 0, 81, 64
1, 245142, Control_c, 0, 64, 83
1, 245161, Note_off_c, 0, 79, 62
1, 245171, Control_c, 0, 64, 84
1, 245178, Note_on_c, 0, 68, 77
1, 245209, Control_c, 0, 67, 127
1, 245209, Note_off_c, 0, 68, 67
1, 245223, Control_c, 0, 67, 118
1, 245225, Note_on_c, 0, 69, 61
1, 245233, Note_on_c, 0, 63, 67
1, 245238, Control_c, 0, 67, 102
1, 245250, Note_on_c, 0, 76, 82
1, 245253, Note_off_c, 0, 69, 67
1, 245253, Control_c, 0, 64, 84
1, 245253, Control_c, 0, 67, 81
1, 245261, Note_off_c, 0, 63, 66
1, 245268, Control_c, 0, 64, 83
1, 245268, Control_c, 0, 67, 53
1, 245283, Control_c, 0, 64, 83
1, 245283, Control_c, 0, 67, 21
1, 245286, Note_off_c, 0, 76, 61
1, 245297, Control_c, 0, 64, 82
1, 245297, Control_c, 0, 67, 0
1, 245310, Note_on_c, 0, 65, 84
1, 245327, Control_c, 0, 64, 81
1, 245358, Note_on_c, 0, 70, 80
1, 245364, Note_off_c, 0, 65, 66
1, 245384, Note_on_c, 0, 55, 87
1, 245386, Control_c, 0, 64, 80
1, 245401, Note_off_c, 0, 70, 63
1, 245401, Control_c, 0, 64, 75
1, 245415, Control_c, 0, 64, 62
1, 245430, Control_c, 0, 64, 0
1, 245437, Note_on_c, 0, 69, 72
1, 245439, Note_on_c, 0, 67, 70
1, 245462, Note_off_c, 0, 67, 67
1, 245479, Note_on_c, 0, 70, 108
1, 245489, Note_on_c, 0, 80, 98
1, 245489, Note_on_c, 0, 83, 92
1, 245490, Control_c, 0, 64, 47
1, 245505, Control_c, 0, 64, 71
1, 245509, Note_on_c, 0, 60, 45
1, 245521, Control_c, 0, 64, 91
1, 245529, Note_on_c, 0, 61, 26
1, 245536, Control_c, 0, 64, 127
1, 245540, Note_off_c, 0, 70, 70
1, 245543, Note_off_c, 0, 55, 65
1, 245578, Note_off_c, 0, 61, 48
1, 245581, Note_off_c, 0, 69, 61
1, 245611, Note_off_c, 0, 83, 62
1, 245633, Note_off_c, 0, 80, 63
1, 245642, Note_on_c, 0, 55, 70
1, 245659, Note_off_c, 0, 60, 33
1, 245684, Note_on_c, 0, 69, 64
1, 245707, Note_on_c, 0, 70, 100
1, 245720, Note_on_c, 0, 83, 93
1, 245721, Note_on_c, 0, 80, 93
1, 245731, Note_on_c, 0, 60, 30
1, 245735, Poly_aftertouch_c, 0, 58, 127
1, 245805, Note_off_c, 0, 69, 61
1, 245805, Note_off_c, 0, 83, 59
1, 245808, Note_off_c, 0, 80, 61
1, 245810, Note_off_c, 0, 70, 61
1, 245819, Note_off_c, 0, 60, 59
1, 245832, Note_off_c, 0, 55, 63
1, 245844, Poly_aftertouch_c, 0, 58, 0
1, 245893, Note_on_c, 0, 67, 75
1, 245906, Note_on_c, 0, 52, 73
1, 245920, Note_on_c, 0, 53, 64
1, 245944, Note_off_c, 0, 52, 65
1, 245950, Note_off_c, 0, 67, 45
1, 245954, Note_on_c, 0, 78, 75
1, 245960, Note_on_c, 0, 82, 81
1, 245965, Note_off_c, 0, 53, 67
1, 245966, Note_on_c, 0, 68, 64
1, 245990, Note_off_c, 0, 68, 65
1, 245996, Note_off_c, 0, 82, 62
1, 245997, Note_off_c, 0, 78, 58
1, 246005, Poly_aftertouch_c, 0, 54, 0
1, 246032, Control_c, 0, 64, 82
1, 246046, Control_c, 0, 64, 62
1, 246061, Control_c, 0, 64, 0
1, 246063, Note_on_c, 0, 64, 81
1, 246066, Note_on_c, 0, 48, 85
1, 246091, Control_c, 0, 64, 44
1, 246092, Note_off_c, 0, 48, 65
1, 246106, Note_on_c, 0, 72, 65
1, 246106, Control_c, 0, 64, 65
1, 246111, Note_on_c, 0, 62, 84
1, 246111, Note_on_c, 0, 77, 80
1, 246111, Note_off_c, 0, 64, 66
1, 246121, Control_c, 0, 64, 74
1, 246125, Note_on_c, 0, 71, 44
1, 246135, Note_off_c, 0, 72, 66
1, 246136, Control_c, 0, 64, 82
1, 246145, Note_off_c, 0, 77, 66
1, 246146, Note_off_c, 0, 62, 60
1, 246151, Control_c, 0, 64, 89
1, 246153, Note_off_c, 0, 71, 57
1, 246163, Poly_aftertouch_c, 0, 49, 0
1, 246165, Control_c, 0, 64, 92
1, 246180, Control_c, 0, 64, 93
1, 246195, Control_c, 0, 64, 93
1, 246210, Control_c, 0, 64, 95
1, 246225, Control_c, 0, 64, 97
1, 246239, Control_c, 0, 64, 98
1, 246269, Control_c, 0, 64, 93
1, 246280, Note_on_c, 0, 58, 93
1, 246284, Control_c, 0, 64, 80
1, 246291, Note_on_c, 0, 72, 95
1, 246299, Control_c, 0, 64, 62
1, 246315, Control_c, 0, 64, 0
1, 246362, Note_on_c, 0, 83, 102
1, 246362, Note_on_c, 0, 73, 101
1, 246366, Note_on_c, 0, 86, 90
1, 246374, Control_c, 0, 64, 41
1, 246389, Control_c, 0, 64, 67
1, 246392, Note_off_c, 0, 58, 60
1, 246404, Control_c, 0, 64, 84
1, 246405, Note_on_c, 0, 63, 24
1, 246418, Control_c, 0, 64, 113
1, 246433, Control_c, 0, 64, 127
1, 246441, Note_off_c, 0, 72, 57
1, 246448, Note_off_c, 0, 86, 63
1, 246454, Note_off_c, 0, 73, 64
1, 246459, Note_off_c, 0, 83, 64
1, 246472, Poly_aftertouch_c, 0, 62, 127
1, 246498, Note_on_c, 0, 58, 86
1, 246519, Poly_aftertouch_c, 0, 62, 0
1, 246520, Note_on_c, 0, 72, 74
1, 246556, Poly_aftertouch_c, 0, 62, 127
1, 246562, Note_on_c, 0, 86, 85
1, 246565, Note_off_c, 0, 63, 0
1, 246566, Note_on_c, 0, 83, 88
1, 246568, Note_on_c, 0, 73, 105
1, 246577, Note_on_c, 0, 82, 58
1, 246583, Note_on_c, 0, 63, 32
1, 246590, Poly_aftertouch_c, 0, 60, 127
1, 246595, Note_on_c, 0, 84, 38
1, 246598, Note_off_c, 0, 72, 66
1, 246604, Note_on_c, 0, 61, 24
1, 246604, Note_off_c, 0, 82, 54
1, 246619, Note_off_c, 0, 83, 66
1, 246624, Note_off_c, 0, 86, 66
1, 246626, Note_off_c, 0, 84, 54
1, 246631, Note_off_c, 0, 73, 69
1, 246635, Note_off_c, 0, 58, 63
1, 246643, Poly_aftertouch_c, 0, 60, 0
1, 246647, Note_off_c, 0, 61, 52
1, 246650, Poly_aftertouch_c, 0, 62, 0
1, 246660, Note_off_c, 0, 63, 40
1, 246735, Note_on_c, 0, 55, 84
1, 246738, Note_on_c, 0, 70, 83
1, 246785, Note_off_c, 0, 55, 64
1, 246801, Note_on_c, 0, 81, 82
1, 246801, Note_on_c, 0, 85, 84
1, 246813, Note_on_c, 0, 71, 70
1, 246819, Note_off_c, 0, 70, 61
1, 246824, Note_on_c, 0, 80, 17
1, 246829, Note_off_c, 0, 71, 69
1, 246833, Note_off_c, 0, 85, 62
1, 246839, Note_on_c, 0, 69, 47
1, 246842, Note_off_c, 0, 81, 62
1, 246865, Note_off_c, 0, 69, 57
1, 246873, Note_off_c, 0, 80, 51
1, 246884, Control_c, 0, 64, 105
1, 246899, Control_c, 0, 64, 75
1, 246908, Note_on_c, 0, 67, 85
1, 246911, Note_on_c, 0, 52, 90
1, 246914, Control_c, 0, 64, 33
1, 246929, Control_c, 0, 64, 0
1, 246944, Control_c, 0, 64, 61
1, 246947, Note_off_c, 0, 52, 59
1, 246959, Control_c, 0, 64, 73
1, 246973, Note_on_c, 0, 81, 92
1, 246973, Control_c, 0, 64, 88
1, 246974, Note_off_c, 0, 67, 62
1, 246975, Note_on_c, 0, 76, 78
1, 246977, Note_on_c, 0, 74, 76
1, 246979, Note_on_c, 0, 65, 75
1, 246988, Control_c, 0, 64, 106
1, 246997, Note_off_c, 0, 74, 72
1, 246997, Note_off_c, 0, 76, 68
1, 247000, Note_off_c, 0, 65, 70
1, 247003, Control_c, 0, 64, 127
1, 247018, Note_off_c, 0, 81, 65
1, 247092, Control_c, 0, 64, 109
1, 247107, Control_c, 0, 64, 93
1, 247118, Note_on_c, 0, 61, 71
1, 247120, Note_on_c, 0, 65, 82
1, 247122, Control_c, 0, 64, 81
1, 247137, Control_c, 0, 64, 76
1, 247138, Note_on_c, 0, 67, 61
1, 247152, Control_c, 0, 64, 78
1, 247158, Note_on_c, 0, 69, 73
1, 247167, Control_c, 0, 64, 87
1, 247182, Control_c, 0, 64, 104
1, 247184, Note_off_c, 0, 65, 62
1, 247191, Note_on_c, 0, 71, 82
1, 247194, Note_on_c, 0, 70, 81
1, 247194, Note_off_c, 0, 67, 64
1, 247197, Control_c, 0, 64, 127
1, 247202, Note_off_c, 0, 61, 63
1, 247216, Note_on_c, 0, 76, 75
1, 247222, Note_off_c, 0, 69, 65
1, 247228, Note_off_c, 0, 71, 62
1, 247237, Note_on_c, 0, 73, 87
1, 247245, Note_off_c, 0, 70, 64
1, 247248, Note_off_c, 0, 76, 62
1, 247283, Note_on_c, 0, 74, 81
1, 247283, Note_off_c, 0, 73, 65
1, 247316, Note_on_c, 0, 78, 98
1, 247320, Note_on_c, 0, 80, 97
1, 247331, Note_off_c, 0, 74, 64
1, 247337, Note_off_c, 0, 80, 72
1, 247349, Note_off_c, 0, 78, 60
1, 247351, Note_on_c, 0, 82, 39
1, 247352, Note_off_c, 0, 82, 127
1, 247359, Control_c, 0, 64, 84
1, 247359, Control_c, 0, 67, 11
1, 247374, Control_c, 0, 64, 53
1, 247374, Control_c, 0, 67, 15
1, 247389, Control_c, 0, 64, 0
1, 247389, Control_c, 0, 67, 17
1, 247404, Control_c, 0, 67, 18
1, 247418, Control_c, 0, 67, 18
1, 247441, Control_c, 0, 67, 17
1, 247456, Control_c, 0, 67, 16
1, 247471, Control_c, 0, 67, 14
1, 247486, Control_c, 0, 67, 12
1, 247500, Control_c, 0, 64, 21
1, 247500, Control_c, 0, 67, 8
1, 247515, Control_c, 0, 64, 70
1, 247515, Control_c, 0, 67, 0
1, 247518, Note_on_c, 0, 68, 79
1, 247521, Note_on_c, 0, 71, 95
1, 247530, Control_c, 0, 64, 90
1, 247543, Note_on_c, 0, 72, 65
1, 247545, Control_c, 0, 64, 127
1, 247552, Note_on_c, 0, 70, 39
1, 247576, Note_on_c, 0, 67, 12
1, 247576, Note_on_c, 0, 74, 78
1, 247582, Note_off_c, 0, 71, 63
1, 247588, Note_off_c, 0, 70, 50
1, 247602, Note_off_c, 0, 68, 57
1, 247608, Note_on_c, 0, 76, 86
1, 247617, Note_on_c, 0, 75, 87
1, 247620, Note_off_c, 0, 72, 63
1, 247628, Note_off_c, 0, 67, 37
1, 247634, Note_off_c, 0, 74, 67
1, 247644, Note_on_c, 0, 79, 75
1, 247650, Note_off_c, 0, 76, 64
1, 247659, Note_on_c, 0, 78, 80
1, 247662, Note_off_c, 0, 75, 64
1, 247668, Note_off_c, 0, 79, 63
1, 247695, Note_on_c, 0, 77, 84
1, 247729, Note_off_c, 0, 78, 0
1, 247742, Note_on_c, 0, 82, 99
1, 247748, Note_on_c, 0, 85, 116
1, 247749, Note_on_c, 0, 78, 41
1, 247766, Note_off_c, 0, 77, 58
1, 247769, Note_off_c, 0, 85, 72
1, 247772, Note_off_c, 0, 82, 69
1, 247778, Note_off_c, 0, 78, 55
1, 247781, Control_c, 0, 64, 124
1, 247796, Control_c, 0, 64, 79
1, 247811, Control_c, 0, 64, 0
1, 247960, Control_c, 0, 64, 46
1, 247966, Note_on_c, 0, 72, 99
1, 247969, Note_on_c, 0, 66, 93
1, 247975, Control_c, 0, 64, 70
1, 247990, Control_c, 0, 64, 87
1, 248005, Control_c, 0, 64, 127
1, 248079, Note_on_c, 0, 76, 80
1, 248081, Note_off_c, 0, 66, 61
1, 248084, Note_off_c, 0, 72, 61
1, 248093, Note_on_c, 0, 74, 81
1, 248141, Note_on_c, 0, 78, 86
1, 248153, Note_off_c, 0, 74, 67
1, 248155, Note_off_c, 0, 76, 63
1, 248181, Note_off_c, 0, 78, 68
1, 248182, Note_on_c, 0, 77, 48
1, 248191, Note_on_c, 0, 83, 73
1, 248213, Note_off_c, 0, 77, 60
1, 248234, Note_off_c, 0, 83, 68
1, 248259, Note_on_c, 0, 80, 73
1, 248263, Note_on_c, 0, 81, 60
1, 248283, Note_off_c, 0, 81, 63
1, 248290, Note_on_c, 0, 82, 89
1, 248297, Note_off_c, 0, 80, 67
1, 248297, Poly_aftertouch_c, 0, 79, 127
1, 248299, Note_on_c, 0, 88, 112
1, 248308, Note_off_c, 0, 82, 69
1, 248309, Note_on_c, 0, 85, 106
1, 248318, Note_off_c, 0, 88, 75
1, 248327, Note_off_c, 0, 85, 63
1, 248333, Poly_aftertouch_c, 0, 79, 0
1, 248345, Note_on_c, 0, 87, 42
1, 248346, Note_off_c, 0, 87, 127
1, 249250, Control_c, 0, 64, 111
1, 249254, Note_on_c, 0, 63, 115
1, 249254, Note_on_c, 0, 75, 100
1, 249254, Note_on_c, 0, 82, 97
1, 249257, Note_on_c, 0, 89, 103
1, 249259, Note_on_c, 0, 58, 82
1, 249260, Note_on_c, 0, 60, 89
1, 249263, Note_on_c, 0, 55, 79
1, 249264, Note_on_c, 0, 53, 83
1, 249264, Control_c, 0, 64, 67
1, 249279, Control_c, 0, 64, 0
1, 249338, Control_c, 0, 64, 55
1, 249353, Control_c, 0, 64, 75
1, 249368, Control_c, 0, 64, 86
1, 249382, Control_c, 0, 64, 107
1, 249397, Control_c, 0, 64, 127
1, 249451, Note_off_c, 0, 82, 57
1, 249452, Note_off_c, 0, 75, 56
1, 249471, Note_off_c, 0, 89, 59
1, 249511, Note_off_c, 0, 63, 55
1, 249707, Note_on_c, 0, 65, 113
1, 249708, Note_on_c, 0, 77, 90
1, 249710, Note_on_c, 0, 91, 98
1, 249712, Note_on_c, 0, 84, 86
1, 249764, Note_off_c, 0, 77, 61
1, 249774, Note_off_c, 0, 84, 62
1, 249790, Note_off_c, 0, 91, 66
1, 249871, Note_off_c, 0, 65, 60
1, 249987, Note_on_c, 0, 67, 112
1, 249993, Note_on_c, 0, 87, 94
1, 249995, Note_on_c, 0, 81, 93
1, 249998, Note_on_c, 0, 94, 96
1, 250015, Note_off_c, 0, 53, 65
1, 250055, Note_off_c, 0, 81, 57
1, 250061, Note_on_c, 0, 90, 3
1, 250070, Note_off_c, 0, 87, 65
1, 250080, Note_off_c, 0, 94, 64
1, 250094, Note_off_c, 0, 67, 62
1, 250095, Note_off_c, 0, 90, 52
1, 250251, Note_on_c, 0, 96, 98
1, 250252, Note_on_c, 0, 69, 114
1, 250254, Note_on_c, 0, 82, 108
1, 250256, Note_on_c, 0, 89, 99
1, 250287, Note_off_c, 0, 82, 68
1, 250287, Note_off_c, 0, 96, 70
1, 250292, Note_off_c, 0, 60, 56
1, 250301, Note_off_c, 0, 89, 64
1, 250353, Note_off_c, 0, 69, 53
1, 250386, Note_off_c, 0, 55, 0
1, 250400, Note_off_c, 0, 58, 50
1, 250424, Poly_aftertouch_c, 0, 55, 0
1, 250617, Note_on_c, 0, 65, 104
1, 250628, Note_on_c, 0, 62, 77
1, 250629, Control_c, 0, 64, 87
1, 250632, Note_on_c, 0, 53, 78
1, 250633, Note_on_c, 0, 58, 73
1, 250633, Note_on_c, 0, 84, 99
1, 250633, Note_on_c, 0, 98, 104
1, 250638, Note_on_c, 0, 92, 92
1, 250644, Control_c, 0, 64, 71
1, 250646, Note_on_c, 0, 55, 58
1, 250659, Control_c, 0, 64, 65
1, 250674, Control_c, 0, 64, 69
1, 250679, Note_on_c, 0, 97, 18
1, 250685, Note_off_c, 0, 84, 61
1, 250689, Control_c, 0, 64, 88
1, 250698, Note_off_c, 0, 65, 67
1, 250700, Note_off_c, 0, 98, 63
1, 250702, Note_off_c, 0, 92, 61
1, 250704, Control_c, 0, 64, 127
1, 250719, Note_off_c, 0, 97, 30
1, 250736, Note_off_c, 0, 62, 0
1, 250752, Note_on_c, 0, 62, 60
1, 250756, Note_on_c, 0, 67, 99
1, 250765, Note_off_c, 0, 58, 62
1, 250768, Note_on_c, 0, 86, 96
1, 250769, Note_on_c, 0, 100, 99
1, 250780, Note_off_c, 0, 53, 64
1, 250782, Note_on_c, 0, 94, 82
1, 250793, Note_off_c, 0, 67, 66
1, 250796, Note_off_c, 0, 55, 49
1, 250798, Note_off_c, 0, 94, 71
1, 250819, Note_on_c, 0, 59, 15
1, 250825, Note_off_c, 0, 86, 57
1, 250827, Note_off_c, 0, 100, 63
1, 250848, Note_off_c, 0, 59, 0
1, 250865, Poly_aftertouch_c, 0, 59, 0
1, 250866, Note_off_c, 0, 62, 0
1, 250869, Note_on_c, 0, 88, 47
1, 250875, Note_on_c, 0, 101, 92
1, 250880, Note_on_c, 0, 73, 120
1, 250880, Note_on_c, 0, 94, 77
1, 250884, Note_on_c, 0, 62, 46
1, 250887, Note_on_c, 0, 100, 82
1, 250896, Note_on_c, 0, 63, 64
1, 250911, Note_off_c, 0, 62, 64
1, 250919, Note_off_c, 0, 63, 54
1, 250926, Note_off_c, 0, 100, 0
1, 250926, Note_on_c, 0, 100, 41
1, 250926, Note_off_c, 0, 73, 72
1, 250989, Note_off_c, 0, 100, 43
1, 250991, Poly_aftertouch_c, 0, 61, 0
1, 251725, Note_off_c, 0, 88, 40
1, 251801, Note_off_c, 0, 94, 32
1, 251895, Note_off_c, 0, 101, 58
1, 252196, Note_on_c, 0, 63, 108
1, 252201, Note_on_c, 0, 53, 80
1, 252201, Control_c, 0, 64, 94
1, 252202, Note_on_c, 0, 93, 97
1, 252203, Note_on_c, 0, 99, 92
1, 252205, Note_on_c, 0, 106, 98
1, 252207, Note_on_c, 0, 55, 80
1, 252208, Note_on_c, 0, 58, 76
1, 252208, Note_on_c, 0, 60, 78
1, 252215, Control_c, 0, 64, 69
1, 252230, Control_c, 0, 64, 0
1, 252275, Control_c, 0, 64, 56
1, 252289, Control_c, 0, 64, 73
1, 252304, Control_c, 0, 64, 94
1, 252319, Control_c, 0, 64, 127
1, 252340, Note_off_c, 0, 106, 42
1, 252390, Note_off_c, 0, 99, 45
1, 252412, Note_off_c, 0, 93, 59
1, 252431, Note_off_c, 0, 63, 56
1, 252585, Note_on_c, 0, 65, 112
1, 252592, Note_on_c, 0, 91, 93
1, 252592, Note_on_c, 0, 105, 92
1, 252596, Note_on_c, 0, 98, 86
1, 252684, Note_off_c, 0, 105, 59
1, 252686, Note_off_c, 0, 98, 65
1, 252715, Note_off_c, 0, 91, 61
1, 252768, Note_off_c, 0, 65, 63
1, 252873, Note_on_c, 0, 67, 101
1, 252888, Note_on_c, 0, 89, 80
1, 252888, Note_on_c, 0, 103, 93
1, 252888, Note_on_c, 0, 96, 86
1, 252896, Note_off_c, 0, 53, 62
1, 252911, Note_off_c, 0, 89, 68
1, 252956, Note_off_c, 0, 96, 64
1, 252957, Note_off_c, 0, 103, 63
1, 252992, Note_off_c, 0, 67, 60
1, 253167, Note_on_c, 0, 69, 108
1, 253179, Note_on_c, 0, 99, 98
1, 253180, Note_on_c, 0, 106, 94
1, 253180, Note_on_c, 0, 93, 81
1, 253215, Note_off_c, 0, 93, 62
1, 253224, Note_off_c, 0, 60, 57
1, 253229, Note_off_c, 0, 106, 64
1, 253237, Note_on_c, 0, 102, 11
1, 253248, Note_off_c, 0, 99, 63
1, 253270, Note_off_c, 0, 102, 44
1, 253277, Note_off_c, 0, 69, 55
1, 253288, Note_off_c, 0, 58, 51
1, 253344, Note_off_c, 0, 55, 35
1, 253475, Control_c, 0, 64, 108
1, 253490, Control_c, 0, 64, 81
1, 253501, Note_on_c, 0, 101, 96
1, 253506, Note_on_c, 0, 87, 90
1, 253506, Control_c, 0, 64, 60
1, 253508, Note_on_c, 0, 96, 86
1, 253510, Note_on_c, 0, 65, 105
1, 253516, Note_on_c, 0, 62, 82
1, 253521, Control_c, 0, 64, 0
1, 253525, Note_on_c, 0, 58, 70
1, 253526, Note_on_c, 0, 53, 73
1, 253533, Note_on_c, 0, 55, 61
1, 253550, Control_c, 0, 64, 62
1, 253565, Control_c, 0, 64, 76
1, 253579, Control_c, 0, 64, 95
1, 253593, Note_off_c, 0, 101, 60
1, 253594, Control_c, 0, 64, 127
1, 253607, Note_off_c, 0, 87, 63
1, 253609, Note_off_c, 0, 65, 61
1, 253615, Note_off_c, 0, 96, 58
1, 253666, Note_on_c, 0, 67, 103
1, 253669, Note_on_c, 0, 99, 96
1, 253673, Note_on_c, 0, 86, 95
1, 253690, Note_off_c, 0, 53, 64
1, 253692, Note_on_c, 0, 97, 59
1, 253699, Note_on_c, 0, 94, 37
1, 253703, Note_off_c, 0, 55, 37
1, 253704, Note_off_c, 0, 58, 54
1, 253711, Note_off_c, 0, 67, 65
1, 253713, Note_off_c, 0, 97, 64
1, 253719, Note_off_c, 0, 86, 63
1, 253729, Note_off_c, 0, 94, 56
1, 253744, Note_off_c, 0, 62, 61
1, 253745, Note_off_c, 0, 99, 65
1, 253800, Note_on_c, 0, 73, 115
1, 253800, Note_on_c, 0, 94, 96
1, 253803, Note_on_c, 0, 88, 96
1, 253803, Note_on_c, 0, 101, 94
1, 253841, Note_off_c, 0, 73, 57
1, 253849, Note_on_c, 0, 63, 8
1, 253901, Note_off_c, 0, 63, 42
1, 254488, Note_off_c, 0, 101, 40
1, 254638, Note_off_c, 0, 94, 60
1, 254643, Note_off_c, 0, 88, 47
1, 255054, Note_on_c, 0, 63, 102
1, 255064, Note_on_c, 0, 91, 80
1, 255065, Note_on_c, 0, 82, 86
1, 255066, Note_on_c, 0, 58, 78
1, 255066, Note_on_c, 0, 96, 85
1, 255072, Note_on_c, 0, 55, 75
1, 255073, Note_on_c, 0, 53, 77
1, 255074, Note_on_c, 0, 60, 76
1, 255077, Control_c, 0, 64, 90
1, 255091, Control_c, 0, 64, 67
1, 255107, Control_c, 0, 64, 0
1, 255152, Control_c, 0, 64, 48
1, 255167, Control_c, 0, 64, 66
1, 255179, Note_off_c, 0, 82, 64
1, 255181, Control_c, 0, 64, 75
1, 255196, Control_c, 0, 64, 88
1, 255211, Control_c, 0, 64, 127
1, 255226, Note_off_c, 0, 91, 59
1, 255244, Note_off_c, 0, 96, 57
1, 255300, Note_off_c, 0, 63, 61
1, 255463, Note_on_c, 0, 65, 101
1, 255470, Note_on_c, 0, 94, 84
1, 255473, Note_on_c, 0, 99, 84
1, 255474, Note_on_c, 0, 86, 82
1, 255576, Note_off_c, 0, 94, 65
1, 255578, Note_off_c, 0, 99, 64
1, 255624, Note_off_c, 0, 86, 56
1, 255634, Note_off_c, 0, 65, 64
1, 255751, Note_on_c, 0, 67, 102
1, 255756, Note_on_c, 0, 93, 84
1, 255760, Note_on_c, 0, 84, 84
1, 255761, Note_on_c, 0, 98, 91
1, 255772, Note_off_c, 0, 53, 61
1, 255838, Note_off_c, 0, 93, 65
1, 255841, Note_off_c, 0, 98, 67
1, 255860, Note_off_c, 0, 84, 60
1, 255879, Note_off_c, 0, 67, 58
1, 256068, Note_on_c, 0, 82, 97
1, 256070, Note_on_c, 0, 96, 92
1, 256071, Note_on_c, 0, 69, 102
1, 256075, Note_on_c, 0, 91, 91
1, 256111, Note_off_c, 0, 96, 65
1, 256116, Note_off_c, 0, 82, 65
1, 256119, Note_off_c, 0, 60, 60
1, 256125, Note_off_c, 0, 91, 64
1, 256166, Note_off_c, 0, 69, 58
1, 256169, Note_off_c, 0, 58, 54
1, 256193, Note_off_c, 0, 55, 44
1, 256473, Note_on_c, 0, 94, 98
1, 256474, Note_on_c, 0, 81, 87
1, 256476, Note_on_c, 0, 65, 102
1, 256476, Note_on_c, 0, 90, 86
1, 256485, Control_c, 0, 64, 87
1, 256488, Note_on_c, 0, 62, 71
1, 256500, Note_on_c, 0, 58, 60
1, 256500, Control_c, 0, 64, 67
1, 256505, Note_on_c, 0, 53, 61
1, 256515, Control_c, 0, 64, 47
1, 256530, Control_c, 0, 64, 54
1, 256530, Note_off_c, 0, 90, 61
1, 256545, Control_c, 0, 64, 65
1, 256548, Note_off_c, 0, 81, 63
1, 256556, Note_on_c, 0, 55, 4
1, 256559, Note_off_c, 0, 94, 62
1, 256560, Control_c, 0, 64, 74
1, 256566, Note_off_c, 0, 65, 63
1, 256574, Control_c, 0, 64, 90
1, 256589, Control_c, 0, 64, 107
1, 256604, Control_c, 0, 64, 127
1, 256638, Note_on_c, 0, 67, 88
1, 256640, Note_on_c, 0, 78, 96
1, 256641, Note_on_c, 0, 91, 95
1, 256650, Note_off_c, 0, 53, 39
1, 256658, Note_off_c, 0, 58, 63
1, 256661, Note_off_c, 0, 55, 41
1, 256673, Note_off_c, 0, 67, 62
1, 256682, Note_off_c, 0, 91, 67
1, 256689, Note_off_c, 0, 78, 64
1, 256721, Note_off_c, 0, 62, 59
1, 256766, Note_on_c, 0, 73, 107
1, 256769, Note_on_c, 0, 76, 90
1, 256769, Note_on_c, 0, 89, 91
1, 256772, Note_on_c, 0, 82, 86
1, 256808, Note_on_c, 0, 63, 20
1, 256811, Note_off_c, 0, 73, 69
1, 256852, Note_off_c, 0, 63, 52
1, 257342, Note_off_c, 0, 89, 49
1, 257474, Note_off_c, 0, 82, 55
1, 257525, Note_off_c, 0, 76, 0
1, 257562, Poly_aftertouch_c, 0, 76, 127
1, 257618, Poly_aftertouch_c, 0, 76, 0
1, 257892, Note_on_c, 0, 63, 100
1, 257893, Note_on_c, 0, 84, 83
1, 257900, Note_on_c, 0, 75, 82
1, 257900, Note_on_c, 0, 79, 81
1, 257902, Control_c, 0, 64, 111
1, 257904, Note_on_c, 0, 58, 70
1, 257911, Note_on_c, 0, 53, 69
1, 257912, Note_on_c, 0, 60, 70
1, 257914, Note_on_c, 0, 55, 66
1, 257917, Control_c, 0, 64, 86
1, 257940, Control_c, 0, 64, 70
1, 257954, Control_c, 0, 64, 56
1, 257969, Control_c, 0, 64, 46
1, 257984, Control_c, 0, 64, 55
1, 257999, Control_c, 0, 64, 64
1, 258014, Control_c, 0, 64, 73
1, 258028, Control_c, 0, 64, 83
1, 258043, Control_c, 0, 64, 98
1, 258056, Note_off_c, 0, 75, 44
1, 258058, Control_c, 0, 64, 127
1, 258084, Note_off_c, 0, 79, 58
1, 258124, Note_off_c, 0, 84, 62
1, 258161, Note_off_c, 0, 63, 59
1, 258346, Note_on_c, 0, 65, 105
1, 258360, Note_on_c, 0, 82, 84
1, 258363, Note_on_c, 0, 87, 83
1, 258366, Note_on_c, 0, 78, 77
1, 258493, Note_off_c, 0, 87, 63
1, 258505, Note_off_c, 0, 82, 61
1, 258530, Note_off_c, 0, 65, 61
1, 258542, Note_off_c, 0, 78, 39
1, 258663, Note_on_c, 0, 67, 100
1, 258681, Note_on_c, 0, 80, 86
1, 258682, Note_on_c, 0, 85, 85
1, 258686, Note_on_c, 0, 77, 88
1, 258760, Note_off_c, 0, 85, 64
1, 258761, Note_off_c, 0, 77, 62
1, 258769, Note_off_c, 0, 80, 61
1, 258779, Note_off_c, 0, 67, 63
1, 258856, Note_off_c, 0, 53, 33
1, 258951, Note_on_c, 0, 68, 97
1, 258956, Note_on_c, 0, 83, 95
1, 258957, Note_on_c, 0, 78, 91
1, 258960, Note_on_c, 0, 75, 84
1, 258983, Note_off_c, 0, 60, 59
1, 258990, Note_off_c, 0, 55, 33
1, 259014, Note_off_c, 0, 58, 60
1, 259023, Note_off_c, 0, 68, 62
1, 259026, Note_off_c, 0, 75, 47
1, 259032, Note_off_c, 0, 78, 58
1, 259043, Note_off_c, 0, 83, 59
1, 259252, Control_c, 0, 64, 107
1, 259266, Control_c, 0, 64, 78
1, 259270, Note_on_c, 0, 82, 91
1, 259273, Note_on_c, 0, 69, 90
1, 259274, Note_on_c, 0, 74, 94
1, 259274, Note_on_c, 0, 77, 84
1, 259279, Note_on_c, 0, 62, 75
1, 259280, Note_on_c, 0, 56, 70
1, 259281, Control_c, 0, 64, 62
1, 259282, Note_on_c, 0, 58, 72
1, 259291, Note_on_c, 0, 53, 69
1, 259296, Control_c, 0, 64, 38
1, 259301, Note_on_c, 0, 67, 53
1, 259311, Control_c, 0, 64, 43
1, 259325, Control_c, 0, 64, 62
1, 259326, Note_off_c, 0, 67, 38
1, 259340, Control_c, 0, 64, 70
1, 259351, Note_off_c, 0, 53, 65
1, 259355, Control_c, 0, 64, 82
1, 259359, Note_off_c, 0, 74, 65
1, 259368, Note_off_c, 0, 62, 63
1, 259370, Control_c, 0, 64, 102
1, 259373, Note_off_c, 0, 58, 64
1, 259373, Note_off_c, 0, 77, 62
1, 259374, Note_off_c, 0, 56, 64
1, 259383, Note_off_c, 0, 82, 64
1, 259385, Control_c, 0, 64, 127
1, 259405, Note_off_c, 0, 69, 64
1, 259659, Control_c, 0, 64, 93
1, 259669, Note_on_c, 0, 85, 73
1, 259673, Control_c, 0, 64, 74
1, 259678, Note_on_c, 0, 80, 64
1, 259679, Note_on_c, 0, 74, 67
1, 259684, Note_on_c, 0, 77, 62
1, 259687, Note_on_c, 0, 66, 51
1, 259688, Control_c, 0, 64, 61
1, 259697, Note_on_c, 0, 68, 50
1, 259703, Control_c, 0, 64, 38
1, 259704, Note_on_c, 0, 71, 48
1, 259710, Note_on_c, 0, 64, 47
1, 259717, Control_c, 0, 64, 36
1, 259732, Control_c, 0, 64, 40
1, 259747, Control_c, 0, 64, 52
1, 259762, Control_c, 0, 64, 62
1, 259777, Control_c, 0, 64, 67
1, 259792, Control_c, 0, 64, 73
1, 259795, Note_off_c, 0, 74, 61
1, 259806, Control_c, 0, 64, 82
1, 259815, Note_off_c, 0, 80, 61
1, 259821, Note_off_c, 0, 77, 59
1, 259821, Control_c, 0, 64, 97
1, 259836, Control_c, 0, 64, 113
1, 259839, Note_off_c, 0, 85, 59
1, 259851, Control_c, 0, 64, 127
1, 259944, Note_on_c, 0, 75, 70
1, 259949, Note_on_c, 0, 88, 71
1, 259955, Note_on_c, 0, 83, 64
1, 259959, Note_on_c, 0, 79, 64
1, 259996, Note_off_c, 0, 83, 61
1, 260009, Note_off_c, 0, 88, 60
1, 260012, Note_off_c, 0, 79, 58
1, 260018, Note_off_c, 0, 75, 56
1, 260110, Note_on_c, 0, 76, 81
1, 260110, Note_on_c, 0, 86, 81
1, 260120, Note_on_c, 0, 78, 77
1, 260138, Note_on_c, 0, 81, 62
1, 260173, Note_off_c, 0, 81, 67
1, 260179, Note_off_c, 0, 76, 58
1, 260200, Note_off_c, 0, 86, 62
1, 260204, Note_off_c, 0, 78, 61
1, 260218, Note_off_c, 0, 71, 51
1, 260237, Note_off_c, 0, 66, 36
1, 260253, Note_on_c, 0, 77, 87
1, 260260, Note_on_c, 0, 85, 90
1, 260262, Note_on_c, 0, 80, 88
1, 260295, Note_off_c, 0, 68, 25
1, 260295, Note_off_c, 0, 77, 64
1, 260328, Note_off_c, 0, 80, 58
1, 260335, Note_off_c, 0, 85, 63
1, 260337, Note_off_c, 0, 64, 19
1, 260393, Control_c, 0, 64, 114
1, 260393, Note_on_c, 0, 78, 91
1, 260396, Note_on_c, 0, 79, 95
1, 260399, Note_on_c, 0, 84, 93
1, 260401, Note_on_c, 0, 64, 55
1, 260405, Note_on_c, 0, 76, 88
1, 260408, Control_c, 0, 64, 110
1, 260409, Note_on_c, 0, 72, 50
1, 260422, Control_c, 0, 64, 110
1, 260425, Note_on_c, 0, 67, 54
1, 260437, Control_c, 0, 64, 127
1, 260440, Note_off_c, 0, 72, 63
1, 260445, Note_off_c, 0, 79, 63
1, 260446, Note_off_c, 0, 76, 59
1, 260447, Note_off_c, 0, 78, 65
1, 260453, Note_off_c, 0, 67, 63
1, 260462, Note_off_c, 0, 84, 68
1, 260465, Note_off_c, 0, 64, 64
1, 260586, Control_c, 0, 64, 111
1, 260598, Note_on_c, 0, 81, 91
1, 260600, Note_on_c, 0, 73, 87
1, 260601, Control_c, 0, 64, 90
1, 260602, Note_on_c, 0, 86, 94
1, 260603, Note_on_c, 0, 78, 90
1, 260609, Note_on_c, 0, 69, 74
1, 260611, Note_on_c, 0, 63, 81
1, 260616, Note_on_c, 0, 66, 74
1, 260616, Control_c, 0, 64, 83
1, 260645, Control_c, 0, 64, 89
1, 260660, Control_c, 0, 64, 106
1, 260671, Note_off_c, 0, 78, 62
1, 260671, Note_off_c, 0, 81, 64
1, 260674, Control_c, 0, 64, 127
1, 260683, Note_off_c, 0, 86, 66
1, 260694, Note_off_c, 0, 73, 62
1, 260773, Note_on_c, 0, 74, 75
1, 260778, Note_on_c, 0, 89, 99
1, 260780, Note_on_c, 0, 81, 89
1, 260811, Note_on_c, 0, 72, 32
1, 260814, Note_off_c, 0, 74, 65
1, 260825, Note_off_c, 0, 89, 64
1, 260826, Note_off_c, 0, 81, 66
1, 260843, Note_off_c, 0, 72, 54
1, 260895, Note_on_c, 0, 88, 100
1, 260896, Note_on_c, 0, 80, 96
1, 260903, Note_on_c, 0, 75, 87
1, 260947, Note_off_c, 0, 80, 64
1, 260954, Note_off_c, 0, 88, 64
1, 260966, Note_off_c, 0, 75, 60
1, 260967, Note_off_c, 0, 69, 57
1, 261019, Note_on_c, 0, 79, 99
1, 261025, Note_on_c, 0, 87, 94
1, 261026, Note_on_c, 0, 76, 88
1, 261037, Note_on_c, 0, 88, 69
1, 261054, Note_off_c, 0, 88, 64
1, 261059, Note_on_c, 0, 82, 41
1, 261059, Note_off_c, 0, 79, 65
1, 261061, Note_off_c, 0, 63, 59
1, 261064, Note_off_c, 0, 76, 63
1, 261067, Note_off_c, 0, 66, 60
1, 261080, Note_off_c, 0, 87, 64
1, 261087, Note_off_c, 0, 82, 56
1, 261112, Control_c, 0, 64, 104
1, 261127, Control_c, 0, 64, 87
1, 261134, Note_on_c, 0, 78, 108
1, 261136, Note_on_c, 0, 86, 98
1, 261137, Note_on_c, 0, 81, 92
1, 261141, Note_on_c, 0, 85, 84
1, 261142, Control_c, 0, 64, 83
1, 261146, Note_on_c, 0, 77, 86
1, 261153, Note_on_c, 0, 76, 81
1, 261157, Note_on_c, 0, 71, 68
1, 261157, Control_c, 0, 64, 91
1, 261164, Note_on_c, 0, 66, 64
1, 261167, Note_on_c, 0, 62, 50
1, 261167, Note_off_c, 0, 76, 66
1, 261171, Control_c, 0, 64, 111
1, 261173, Note_off_c, 0, 77, 62
1, 261180, Note_off_c, 0, 71, 65
1, 261186, Control_c, 0, 64, 127
1, 261192, Note_off_c, 0, 66, 65
1, 261195, Note_off_c, 0, 81, 61
1, 261195, Note_off_c, 0, 62, 56
1, 261204, Note_off_c, 0, 85, 56
1, 261210, Note_off_c, 0, 78, 58
1, 261213, Note_off_c, 0, 86, 64
1, 261348, Note_on_c, 0, 87, 99
1, 261350, Note_on_c, 0, 79, 95
1, 261350, Note_on_c, 0, 82, 91
1, 261350, Control_c, 0, 64, 90
1, 261356, Note_on_c, 0, 62, 71
1, 261357, Note_on_c, 0, 72, 87
1, 261365, Control_c, 0, 64, 70
1, 261371, Note_on_c, 0, 66, 73
1, 261371, Note_on_c, 0, 69, 72
1, 261380, Control_c, 0, 64, 52
1, 261395, Control_c, 0, 64, 48
1, 261404, Note_off_c, 0, 79, 62
1, 261410, Control_c, 0, 64, 61
1, 261425, Control_c, 0, 64, 68
1, 261438, Note_off_c, 0, 82, 64
1, 261439, Control_c, 0, 64, 78
1, 261441, Note_off_c, 0, 87, 65
1, 261454, Control_c, 0, 64, 92
1, 261461, Note_off_c, 0, 72, 63
1, 261469, Control_c, 0, 64, 127
1, 261559, Control_c, 0, 64, 117
1, 261574, Control_c, 0, 64, 93
1, 261578, Note_on_c, 0, 73, 98
1, 261582, Note_on_c, 0, 90, 103
1, 261583, Note_on_c, 0, 85, 82
1, 261584, Note_on_c, 0, 82, 97
1, 261589, Control_c, 0, 64, 85
1, 261618, Control_c, 0, 64, 90
1, 261633, Control_c, 0, 64, 96
1, 261648, Control_c, 0, 64, 109
1, 261669, Control_c, 0, 64, 127
1, 261679, Note_off_c, 0, 85, 57
1, 261687, Note_off_c, 0, 82, 62
1, 261699, Note_off_c, 0, 73, 61
1, 261704, Note_off_c, 0, 90, 60
1, 261774, Control_c, 0, 64, 93
1, 261789, Control_c, 0, 64, 79
1, 261789, Note_on_c, 0, 74, 96
1, 261794, Note_on_c, 0, 84, 83
1, 261795, Note_on_c, 0, 89, 86
1, 261798, Note_on_c, 0, 81, 90
1, 261799, Note_on_c, 0, 88, 84
1, 261803, Control_c, 0, 64, 74
1, 261818, Control_c, 0, 64, 78
1, 261833, Control_c, 0, 64, 86
1, 261848, Control_c, 0, 64, 100
1, 261860, Note_off_c, 0, 81, 63
1, 261863, Note_off_c, 0, 84, 62
1, 261863, Control_c, 0, 64, 127
1, 261870, Note_off_c, 0, 88, 62
1, 261872, Note_off_c, 0, 74, 62
1, 261873, Note_off_c, 0, 89, 57
1, 262010, Control_c, 0, 64, 90
1, 262024, Note_on_c, 0, 80, 91
1, 262024, Note_on_c, 0, 83, 89
1, 262024, Note_on_c, 0, 88, 98
1, 262024, Note_on_c, 0, 75, 90
1, 262025, Control_c, 0, 64, 75
1, 262040, Control_c, 0, 64, 70
1, 262055, Control_c, 0, 64, 74
1, 262069, Control_c, 0, 64, 81
1, 262084, Control_c, 0, 64, 97
1, 262091, Note_off_c, 0, 83, 65
1, 262096, Note_off_c, 0, 69, 56
1, 262099, Control_c, 0, 64, 127
1, 262104, Note_off_c, 0, 75, 62
1, 262110, Note_off_c, 0, 88, 65
1, 262118, Note_off_c, 0, 66, 52
1, 262124, Note_off_c, 0, 80, 60
1, 262129, Note_off_c, 0, 62, 35
1, 262379, Note_on_c, 0, 87, 88
1, 262382, Note_on_c, 0, 79, 95
1, 262382, Note_on_c, 0, 82, 94
1, 262387, Note_on_c, 0, 76, 87
1, 262390, Note_on_c, 0, 60, 70
1, 262399, Note_on_c, 0, 69, 69
1, 262400, Note_on_c, 0, 66, 73
1, 262433, Control_c, 0, 64, 107
1, 262448, Control_c, 0, 64, 88
1, 262463, Control_c, 0, 64, 72
1, 262478, Control_c, 0, 64, 36
1, 262493, Control_c, 0, 64, 0
1, 262604, Note_off_c, 0, 76, 62
1, 262644, Note_off_c, 0, 69, 62
1, 262661, Note_off_c, 0, 82, 64
1, 262664, Note_off_c, 0, 60, 65
1, 262665, Note_off_c, 0, 87, 65
1, 262670, Note_off_c, 0, 79, 60
1, 262674, Note_off_c, 0, 66, 65
1, 262686, Control_c, 0, 67, 12
1, 262700, Control_c, 0, 67, 20
1, 262715, Control_c, 0, 67, 27
1, 262730, Control_c, 0, 67, 34
1, 262744, Control_c, 0, 67, 42
1, 262758, Control_c, 0, 67, 50
1, 262773, Control_c, 0, 67, 58
1, 262788, Control_c, 0, 67, 68
1, 262803, Control_c, 0, 64, 11
1, 262803, Control_c, 0, 67, 80
1, 262817, Control_c, 0, 64, 19
1, 262817, Control_c, 0, 67, 90
1, 262832, Control_c, 0, 67, 101
1, 262847, Control_c, 0, 64, 21
1, 262847, Control_c, 0, 67, 109
1, 262862, Control_c, 0, 64, 23
1, 262862, Control_c, 0, 67, 117
1, 262877, Control_c, 0, 64, 26
1, 262877, Control_c, 0, 67, 125
1, 262891, Control_c, 0, 64, 27
1, 262891, Control_c, 0, 67, 127
1, 262921, Control_c, 0, 64, 29
1, 262936, Control_c, 0, 64, 31
1, 262951, Control_c, 0, 64, 32
1, 263085, Control_c, 0, 64, 34
1, 263166, Control_c, 0, 64, 35
1, 263226, Control_c, 0, 64, 37
1, 263240, Control_c, 0, 64, 43
1, 263255, Control_c, 0, 64, 47
1, 263270, Control_c, 0, 64, 49
1, 263285, Control_c, 0, 64, 49
1, 263300, Control_c, 0, 64, 51
1, 263315, Control_c, 0, 64, 54
1, 263330, Control_c, 0, 64, 56
1, 263345, Control_c, 0, 64, 57
1, 263359, Control_c, 0, 64, 58
1, 263374, Control_c, 0, 64, 59
1, 263389, Control_c, 0, 64, 60
1, 263404, Control_c, 0, 64, 61
1, 263419, Control_c, 0, 64, 61
1, 263448, Control_c, 0, 64, 62
1, 263463, Control_c, 0, 64, 62
1, 263478, Control_c, 0, 64, 63
1, 263492, Control_c, 0, 64, 63
1, 263508, Control_c, 0, 64, 64
1, 263523, Control_c, 0, 64, 65
1, 263538, Control_c, 0, 64, 66
1, 263553, Control_c, 0, 64, 67
1, 263567, Control_c, 0, 64, 68
1, 263582, Control_c, 0, 64, 70
1, 263597, Control_c, 0, 64, 73
1, 263612, Control_c, 0, 64, 77
1, 263627, Control_c, 0, 64, 81
1, 263641, Control_c, 0, 64, 85
1, 263656, Control_c, 0, 64, 88
1, 263671, Control_c, 0, 64, 91
1, 263685, Control_c, 0, 64, 93
1, 263700, Control_c, 0, 64, 95
1, 263715, Control_c, 0, 64, 99
1, 263730, Control_c, 0, 64, 102
1, 263745, Control_c, 0, 64, 106
1, 263759, Control_c, 0, 64, 110
1, 263774, Control_c, 0, 64, 116
1, 263789, Control_c, 0, 64, 127
1, 264248, Note_on_c, 0, 25, 19
1, 265068, Note_on_c, 0, 27, 35
1, 265191, Note_off_c, 0, 25, 40
1, 265828, Note_on_c, 0, 30, 39
1, 265912, Note_off_c, 0, 27, 43
1, 266620, Note_on_c, 0, 32, 38
1, 266710, Note_off_c, 0, 30, 41
1, 267405, Note_on_c, 0, 37, 38
1, 267423, Note_on_c, 0, 25, 37
1, 267565, Note_off_c, 0, 32, 40
1, 268148, Note_on_c, 0, 39, 44
1, 268176, Note_on_c, 0, 27, 43
1, 268200, Note_off_c, 0, 37, 41
1, 268258, Note_off_c, 0, 25, 42
1, 268913, Note_on_c, 0, 42, 55
1, 268921, Note_on_c, 0, 30, 46
1, 268969, Note_off_c, 0, 39, 40
1, 269091, Note_off_c, 0, 27, 44
1, 269652, Note_on_c, 0, 44, 56
1, 269682, Note_on_c, 0, 32, 49
1, 269687, Note_off_c, 0, 42, 59
1, 269797, Note_off_c, 0, 30, 39
1, 270007, Note_off_c, 0, 44, 55
1, 270063, Note_off_c, 0, 32, 52
1, 270382, Note_on_c, 0, 49, 62
1, 270399, Note_on_c, 0, 25, 56
1, 270400, Note_on_c, 0, 37, 56
1, 270758, Note_off_c, 0, 25, 51
1, 270802, Note_off_c, 0, 37, 37
1, 270868, Note_off_c, 0, 49, 35
1, 271084, Note_on_c, 0, 51, 72
1, 271107, Note_on_c, 0, 39, 62
1, 271107, Note_on_c, 0, 27, 67
1, 271277, Control_c, 0, 67, 125
1, 271292, Control_c, 0, 67, 123
1, 271307, Control_c, 0, 67, 121
1, 271321, Control_c, 0, 67, 118
1, 271336, Control_c, 0, 67, 114
1, 271351, Control_c, 0, 67, 110
1, 271366, Control_c, 0, 67, 106
1, 271381, Control_c, 0, 67, 99
1, 271387, Note_off_c, 0, 27, 58
1, 271403, Control_c, 0, 67, 93
1, 271418, Control_c, 0, 67, 86
1, 271433, Control_c, 0, 67, 80
1, 271448, Control_c, 0, 67, 75
1, 271462, Control_c, 0, 67, 72
1, 271477, Control_c, 0, 67, 69
1, 271491, Note_off_c, 0, 39, 55
1, 271492, Control_c, 0, 67, 65
1, 271506, Note_off_c, 0, 51, 37
1, 271506, Control_c, 0, 67, 62
1, 271521, Control_c, 0, 67, 56
1, 271536, Control_c, 0, 67, 50
1, 271551, Control_c, 0, 67, 41
1, 271566, Control_c, 0, 67, 32
1, 271581, Control_c, 0, 67, 21
1, 271596, Control_c, 0, 67, 11
1, 271611, Control_c, 0, 67, 0
1, 271801, Note_on_c, 0, 54, 76
1, 271804, Note_on_c, 0, 42, 72
1, 271808, Note_on_c, 0, 30, 69
1, 272045, Note_off_c, 0, 30, 52
1, 272079, Note_off_c, 0, 42, 51
1, 272134, Note_off_c, 0, 54, 38
1, 272519, Note_on_c, 0, 44, 82
1, 272520, Note_on_c, 0, 56, 88
1, 272523, Note_on_c, 0, 32, 73
1, 272695, Note_off_c, 0, 56, 51
1, 272697, Note_off_c, 0, 32, 58
1, 272755, Note_off_c, 0, 44, 59
1, 273210, Note_on_c, 0, 61, 94
1, 273217, Note_on_c, 0, 49, 89
1, 273223, Note_on_c, 0, 37, 81
1, 273372, Note_off_c, 0, 61, 45
1, 273393, Note_off_c, 0, 37, 24
1, 273430, Note_off_c, 0, 49, 52
1, 273898, Note_on_c, 0, 51, 92
1, 273898, Note_on_c, 0, 63, 101
1, 273902, Note_on_c, 0, 39, 89
1, 274039, Note_off_c, 0, 39, 56
1, 274055, Note_off_c, 0, 51, 56
1, 274063, Note_off_c, 0, 63, 37
1, 274567, Note_on_c, 0, 54, 100
1, 274569, Note_on_c, 0, 42, 97
1, 274570, Note_on_c, 0, 66, 104
1, 274657, Note_off_c, 0, 66, 57
1, 274672, Note_off_c, 0, 42, 61
1, 274694, Note_off_c, 0, 54, 60
1, 275269, Note_on_c, 0, 68, 101
1, 275272, Note_on_c, 0, 56, 107
1, 275274, Note_on_c, 0, 44, 98
1, 275317, Note_off_c, 0, 44, 64
1, 275320, Note_off_c, 0, 68, 63
1, 275343, Note_off_c, 0, 56, 63
1, 275939, Note_on_c, 0, 73, 105
1, 275942, Note_on_c, 0, 65, 83
1, 275943, Note_on_c, 0, 49, 89
1, 275946, Note_on_c, 0, 60, 83
1, 275948, Note_on_c, 0, 63, 75
1, 275949, Note_on_c, 0, 51, 80
1, 275956, Control_c, 0, 64, 94
1, 275959, Note_on_c, 0, 54, 69
1, 275965, Note_on_c, 0, 57, 58
1, 275970, Control_c, 0, 64, 71
1, 275985, Control_c, 0, 64, 59
1, 275990, Note_on_c, 0, 68, 22
1, 276000, Control_c, 0, 64, 56
1, 276015, Control_c, 0, 64, 62
1, 276028, Note_off_c, 0, 68, 30
1, 276030, Control_c, 0, 64, 68
1, 276044, Control_c, 0, 64, 75
1, 276059, Control_c, 0, 64, 87
1, 276071, Note_off_c, 0, 65, 54
1, 276074, Control_c, 0, 64, 107
1, 276079, Note_off_c, 0, 63, 45
1, 276089, Control_c, 0, 64, 127
1, 276124, Note_off_c, 0, 60, 62
1, 276124, Note_off_c, 0, 57, 59
1, 276134, Note_off_c, 0, 49, 59
1, 276140, Note_off_c, 0, 54, 60
1, 276143, Note_off_c, 0, 51, 55
1, 276164, Note_off_c, 0, 73, 56
1, 276592, Note_on_c, 0, 75, 108
1, 276598, Note_on_c, 0, 63, 88
1, 276599, Note_on_c, 0, 67, 84
1, 276602, Note_on_c, 0, 51, 85
1, 276604, Note_on_c, 0, 65, 73
1, 276604, Note_on_c, 0, 54, 83
1, 276604, Note_on_c, 0, 56, 81
1, 276607, Note_on_c, 0, 58, 78
1, 276624, Note_off_c, 0, 67, 65
1, 276629, Note_off_c, 0, 65, 65
1, 276658, Note_off_c, 0, 75, 70
1, 276676, Note_off_c, 0, 58, 59
1, 276685, Note_off_c, 0, 56, 63
1, 276687, Note_off_c, 0, 51, 66
1, 276690, Note_off_c, 0, 63, 61
1, 276692, Note_off_c, 0, 54, 63
1, 277233, Note_on_c, 0, 78, 104
1, 277236, Note_on_c, 0, 68, 92
1, 277239, Note_on_c, 0, 65, 91
1, 277241, Note_on_c, 0, 54, 88
1, 277244, Note_on_c, 0, 66, 75
1, 277245, Note_on_c, 0, 56, 82
1, 277250, Note_on_c, 0, 72, 63
1, 277255, Note_on_c, 0, 62, 71
1, 277259, Note_on_c, 0, 59, 64
1, 277262, Note_on_c, 0, 75, 56
1, 277267, Note_off_c, 0, 66, 67
1, 277277, Note_off_c, 0, 72, 68
1, 277279, Note_off_c, 0, 68, 61
1, 277281, Note_off_c, 0, 62, 65
1, 277287, Note_off_c, 0, 59, 65
1, 277290, Note_off_c, 0, 75, 63
1, 277304, Note_off_c, 0, 65, 62
1, 277304, Note_off_c, 0, 78, 71
1, 277314, Note_off_c, 0, 56, 62
1, 277316, Note_off_c, 0, 54, 67
1, 277881, Note_on_c, 0, 80, 99
1, 277884, Note_on_c, 0, 66, 95
1, 277888, Note_on_c, 0, 56, 90
1, 277888, Note_on_c, 0, 68, 88
1, 277892, Note_on_c, 0, 75, 75
1, 277897, Note_on_c, 0, 64, 76
1, 277899, Note_on_c, 0, 59, 71
1, 277900, Note_on_c, 0, 77, 59
1, 277905, Note_off_c, 0, 68, 72
1, 277906, Note_on_c, 0, 62, 67
1, 277912, Note_off_c, 0, 75, 71
1, 277920, Note_off_c, 0, 77, 64
1, 277937, Note_off_c, 0, 80, 71
1, 277942, Note_off_c, 0, 62, 58
1, 277949, Note_off_c, 0, 64, 55
1, 277960, Note_off_c, 0, 59, 57
1, 277966, Note_off_c, 0, 56, 66
1, 277984, Note_off_c, 0, 66, 61
1, 278521, Note_on_c, 0, 85, 109
1, 278531, Note_on_c, 0, 61, 84
1, 278532, Note_on_c, 0, 72, 86
1, 278532, Note_on_c, 0, 77, 82
1, 278538, Note_on_c, 0, 75, 75
1, 278541, Note_on_c, 0, 63, 71
1, 278541, Note_on_c, 0, 66, 70
1, 278547, Note_on_c, 0, 69, 70
1, 278553, Note_off_c, 0, 77, 70
1, 278554, Note_off_c, 0, 75, 70
1, 278565, Note_off_c, 0, 85, 72
1, 278570, Note_off_c, 0, 69, 69
1, 278591, Note_off_c, 0, 72, 61
1, 278595, Note_off_c, 0, 61, 65
1, 278596, Note_off_c, 0, 66, 55
1, 278634, Note_off_c, 0, 63, 35
1, 279128, Note_on_c, 0, 87, 110
1, 279137, Note_on_c, 0, 75, 93
1, 279138, Note_on_c, 0, 77, 76
1, 279138, Note_on_c, 0, 79, 82
1, 279139, Note_on_c, 0, 63, 83
1, 279143, Note_on_c, 0, 70, 81
1, 279145, Note_on_c, 0, 66, 77
1, 279145, Note_on_c, 0, 68, 79
1, 279159, Note_off_c, 0, 77, 72
1, 279159, Note_off_c, 0, 79, 70
1, 279171, Note_off_c, 0, 87, 73
1, 279209, Note_off_c, 0, 68, 62
1, 279212, Note_off_c, 0, 70, 61
1, 279216, Note_off_c, 0, 66, 61
1, 279221, Note_off_c, 0, 63, 62
1, 279224, Note_off_c, 0, 75, 58
1, 279731, Note_on_c, 0, 90, 103
1, 279735, Note_on_c, 0, 78, 100
1, 279735, Note_on_c, 0, 80, 94
1, 279736, Note_on_c, 0, 77, 95
1, 279739, Note_on_c, 0, 87, 93
1, 279740, Note_on_c, 0, 66, 86
1, 279740, Note_on_c, 0, 84, 86
1, 279742, Note_on_c, 0, 68, 76
1, 279745, Note_on_c, 0, 74, 88
1, 279745, Note_on_c, 0, 71, 81
1, 279775, Note_off_c, 0, 78, 63
1, 279804, Note_off_c, 0, 84, 60
1, 279806, Note_off_c, 0, 80, 60
1, 279817, Note_off_c, 0, 90, 67
1, 279819, Note_off_c, 0, 74, 65
1, 279821, Note_off_c, 0, 71, 65
1, 279823, Note_off_c, 0, 87, 65
1, 279826, Note_off_c, 0, 77, 61
1, 279827, Note_off_c, 0, 66, 60
1, 279831, Note_off_c, 0, 68, 62
1, 280380, Note_on_c, 0, 92, 113
1, 280380, Note_on_c, 0, 80, 89
1, 280383, Note_on_c, 0, 87, 94
1, 280392, Note_on_c, 0, 89, 92
1, 280397, Note_on_c, 0, 78, 97
1, 280400, Note_on_c, 0, 68, 84
1, 280405, Note_on_c, 0, 70, 80
1, 280406, Note_on_c, 0, 76, 87
1, 280415, Note_on_c, 0, 74, 82
1, 280423, Note_off_c, 0, 80, 66
1, 280430, Note_on_c, 0, 90, 32
1, 280431, Note_off_c, 0, 90, 127
1, 280434, Note_off_c, 0, 87, 66
1, 280434, Note_off_c, 0, 89, 63
1, 280440, Note_off_c, 0, 92, 74
1, 280465, Note_off_c, 0, 74, 61
1, 280465, Note_off_c, 0, 76, 57
1, 280470, Note_off_c, 0, 68, 62
1, 280477, Note_off_c, 0, 70, 63
1, 280478, Note_off_c, 0, 78, 63
1, 281110, Note_on_c, 0, 94, 118
1, 281120, Note_on_c, 0, 88, 85
1, 281121, Note_on_c, 0, 85, 70
1, 281122, Note_on_c, 0, 70, 89
1, 281123, Note_on_c, 0, 81, 87
1, 281126, Note_on_c, 0, 73, 83
1, 281133, Note_on_c, 0, 79, 77
1, 281145, Note_on_c, 0, 76, 74
1, 281146, Note_off_c, 0, 85, 66
1, 281148, Note_off_c, 0, 88, 68
1, 281155, Note_on_c, 0, 82, 39
1, 281164, Note_off_c, 0, 94, 73
1, 281169, Note_off_c, 0, 79, 58
1, 281172, Note_off_c, 0, 76, 64
1, 281175, Note_off_c, 0, 81, 66
1, 281185, Note_off_c, 0, 82, 57
1, 281197, Note_off_c, 0, 70, 66
1, 281205, Note_off_c, 0, 73, 62
1, 282032, Note_on_c, 0, 95, 107
1, 282044, Note_on_c, 0, 88, 98
1, 282044, Note_on_c, 0, 85, 88
1, 282046, Note_on_c, 0, 81, 89
1, 282046, Note_on_c, 0, 83, 83
1, 282047, Note_on_c, 0, 71, 87
1, 282051, Note_on_c, 0, 79, 84
1, 282053, Note_on_c, 0, 74, 81
1, 282053, Note_on_c, 0, 76, 80
1, 282067, Note_off_c, 0, 83, 68
1, 282074, Note_on_c, 0, 92, 44
1, 282094, Note_off_c, 0, 88, 56
1, 282100, Note_off_c, 0, 92, 59
1, 282112, Note_off_c, 0, 81, 61
1, 282120, Note_off_c, 0, 79, 61
1, 282122, Note_off_c, 0, 74, 63
1, 282124, Note_off_c, 0, 95, 58
1, 282127, Note_off_c, 0, 76, 59
1, 282131, Note_off_c, 0, 85, 35
1, 282139, Note_off_c, 0, 71, 58
1, 286015, Control_c, 0, 64, 111
1, 286017, Note_on_c, 0, 31, 81
1, 286018, Note_on_c, 0, 33, 76
1, 286026, Note_on_c, 0, 87, 91
1, 286026, Note_on_c, 0, 92, 95
1, 286030, Control_c, 0, 64, 74
1, 286045, Control_c, 0, 64, 0
1, 286050, Note_on_c, 0, 86, 63
1, 286053, Note_off_c, 0, 87, 61
1, 286068, Note_off_c, 0, 86, 68
1, 286068, Note_off_c, 0, 92, 67
1, 286104, Note_off_c, 0, 31, 52
1, 286104, Control_c, 0, 67, 10
1, 286117, Note_off_c, 0, 33, 51
1, 286119, Control_c, 0, 67, 14
1, 286125, Note_on_c, 0, 86, 91
1, 286133, Note_on_c, 0, 39, 65
1, 286134, Control_c, 0, 67, 21
1, 286137, Note_on_c, 0, 91, 79
1, 286140, Note_on_c, 0, 45, 74
1, 286142, Note_on_c, 0, 43, 65
1, 286148, Control_c, 0, 67, 30
1, 286163, Control_c, 0, 67, 38
1, 286164, Note_off_c, 0, 91, 61
1, 286166, Note_off_c, 0, 39, 61
1, 286170, Note_off_c, 0, 86, 66
1, 286172, Note_off_c, 0, 45, 68
1, 286173, Note_off_c, 0, 43, 64
1, 286178, Control_c, 0, 67, 44
1, 286193, Control_c, 0, 67, 49
1, 286208, Control_c, 0, 67, 52
1, 286223, Control_c, 0, 67, 57
1, 286238, Control_c, 0, 67, 61
1, 286248, Note_on_c, 0, 88, 87
1, 286253, Note_on_c, 0, 40, 73
1, 286253, Control_c, 0, 67, 64
1, 286257, Note_on_c, 0, 93, 79
1, 286259, Note_on_c, 0, 45, 68
1, 286268, Control_c, 0, 67, 65
1, 286278, Note_off_c, 0, 93, 70
1, 286284, Note_off_c, 0, 88, 64
1, 286287, Note_off_c, 0, 40, 67
1, 286298, Note_off_c, 0, 45, 62
1, 286352, Note_on_c, 0, 87, 85
1, 286353, Note_on_c, 0, 92, 81
1, 286355, Note_on_c, 0, 42, 66
1, 286366, Note_on_c, 0, 46, 55
1, 286405, Note_off_c, 0, 42, 62
1, 286408, Note_off_c, 0, 46, 62
1, 286408, Note_off_c, 0, 92, 63
1, 286409, Note_off_c, 0, 87, 63
1, 286453, Control_c, 0, 67, 64
1, 286466, Note_on_c, 0, 91, 86
1, 286467, Note_on_c, 0, 86, 78
1, 286468, Control_c, 0, 67, 63
1, 286475, Note_on_c, 0, 50, 55
1, 286476, Note_on_c, 0, 45, 53
1, 286491, Note_off_c, 0, 86, 67
1, 286498, Control_c, 0, 67, 62
1, 286500, Note_off_c, 0, 91, 63
1, 286506, Note_off_c, 0, 45, 57
1, 286506, Note_off_c, 0, 50, 55
1, 286542, Control_c, 0, 67, 62
1, 286572, Note_on_c, 0, 42, 69
1, 286575, Note_on_c, 0, 46, 69
1, 286579, Note_on_c, 0, 88, 88
1, 286580, Note_on_c, 0, 93, 88
1, 286610, Note_off_c, 0, 93, 62
1, 286616, Note_off_c, 0, 42, 62
1, 286618, Note_off_c, 0, 88, 61
1, 286619, Note_off_c, 0, 46, 61
1, 286673, Note_on_c, 0, 40, 73
1, 286688, Note_on_c, 0, 90, 78
1, 286691, Note_on_c, 0, 85, 71
1, 286700, Note_off_c, 0, 40, 65
1, 286705, Control_c, 0, 64, 21
1, 286720, Note_off_c, 0, 85, 64
1, 286720, Control_c, 0, 64, 28
1, 286720, Control_c, 0, 67, 61
1, 286731, Note_off_c, 0, 90, 56
1, 286735, Control_c, 0, 64, 31
1, 286750, Control_c, 0, 64, 36
1, 286764, Control_c, 0, 64, 50
1, 286779, Control_c, 0, 64, 61
1, 286789, Note_on_c, 0, 39, 69
1, 286790, Note_on_c, 0, 88, 76
1, 286794, Control_c, 0, 64, 64
1, 286795, Note_on_c, 0, 93, 80
1, 286809, Control_c, 0, 64, 66
1, 286810, Note_on_c, 0, 43, 4
1, 286813, Note_off_c, 0, 88, 70
1, 286816, Note_off_c, 0, 93, 67
1, 286824, Control_c, 0, 64, 66
1, 286833, Note_off_c, 0, 39, 57
1, 286853, Control_c, 0, 64, 66
1, 286863, Note_off_c, 0, 43, 35
1, 286868, Control_c, 0, 64, 65
1, 286883, Control_c, 0, 64, 64
1, 286888, Note_on_c, 0, 31, 72
1, 286891, Note_on_c, 0, 33, 66
1, 286891, Note_on_c, 0, 96, 94
1, 286892, Note_on_c, 0, 91, 90
1, 286927, Control_c, 0, 67, 62
1, 286929, Note_off_c, 0, 91, 64
1, 286931, Note_off_c, 0, 96, 65
1, 286932, Note_off_c, 0, 31, 58
1, 286942, Control_c, 0, 64, 64
1, 286971, Control_c, 0, 67, 61
1, 286986, Control_c, 0, 64, 63
1, 286992, Note_off_c, 0, 33, 54
1, 286995, Note_on_c, 0, 91, 97
1, 286997, Note_on_c, 0, 96, 97
1, 287001, Note_on_c, 0, 39, 48
1, 287001, Note_on_c, 0, 45, 71
1, 287001, Control_c, 0, 67, 61
1, 287016, Control_c, 0, 67, 60
1, 287032, Note_on_c, 0, 43, 10
1, 287032, Note_off_c, 0, 39, 54
1, 287034, Note_off_c, 0, 91, 66
1, 287036, Note_off_c, 0, 45, 67
1, 287038, Note_off_c, 0, 96, 63
1, 287046, Control_c, 0, 67, 60
1, 287061, Control_c, 0, 67, 59
1, 287076, Control_c, 0, 67, 59
1, 287082, Note_off_c, 0, 43, 27
1, 287091, Control_c, 0, 67, 58
1, 287101, Note_on_c, 0, 40, 80
1, 287106, Note_on_c, 0, 91, 96
1, 287108, Note_on_c, 0, 96, 97
1, 287114, Note_on_c, 0, 45, 73
1, 287151, Note_off_c, 0, 45, 64
1, 287154, Note_off_c, 0, 91, 68
1, 287154, Note_off_c, 0, 96, 63
1, 287156, Note_off_c, 0, 40, 61
1, 287158, Control_c, 0, 64, 64
1, 287187, Control_c, 0, 64, 65
1, 287187, Control_c, 0, 67, 58
1, 287202, Control_c, 0, 64, 65
1, 287216, Note_on_c, 0, 42, 72
1, 287219, Note_on_c, 0, 46, 74
1, 287219, Note_on_c, 0, 91, 101
1, 287223, Note_on_c, 0, 96, 98
1, 287242, Note_off_c, 0, 96, 65
1, 287254, Note_off_c, 0, 91, 67
1, 287266, Note_off_c, 0, 42, 59
1, 287267, Note_off_c, 0, 46, 61
1, 287276, Control_c, 0, 64, 65
1, 287321, Note_on_c, 0, 50, 70
1, 287324, Note_on_c, 0, 45, 71
1, 287329, Note_on_c, 0, 92, 89
1, 287331, Note_on_c, 0, 87, 82
1, 287335, Control_c, 0, 64, 64
1, 287359, Note_off_c, 0, 50, 62
1, 287362, Note_off_c, 0, 87, 61
1, 287365, Control_c, 0, 67, 57
1, 287370, Note_off_c, 0, 45, 59
1, 287377, Note_off_c, 0, 92, 66
1, 287380, Control_c, 0, 64, 65
1, 287394, Control_c, 0, 67, 57
1, 287424, Control_c, 0, 64, 64
1, 287424, Control_c, 0, 67, 56
1, 287430, Note_on_c, 0, 46, 73
1, 287438, Note_on_c, 0, 42, 62
1, 287438, Note_on_c, 0, 91, 89
1, 287440, Note_on_c, 0, 86, 81
1, 287454, Control_c, 0, 67, 56
1, 287463, Note_off_c, 0, 86, 65
1, 287468, Control_c, 0, 64, 64
1, 287468, Control_c, 0, 67, 55
1, 287473, Note_off_c, 0, 91, 64
1, 287475, Note_off_c, 0, 42, 62
1, 287481, Note_off_c, 0, 46, 62
1, 287483, Control_c, 0, 67, 54
1, 287528, Note_on_c, 0, 40, 77
1, 287535, Note_on_c, 0, 45, 52
1, 287542, Control_c, 0, 64, 64
1, 287548, Note_on_c, 0, 88, 85
1, 287550, Note_on_c, 0, 93, 87
1, 287557, Control_c, 0, 67, 55
1, 287558, Note_off_c, 0, 40, 67
1, 287561, Note_off_c, 0, 45, 58
1, 287571, Note_off_c, 0, 93, 67
1, 287581, Note_off_c, 0, 88, 61
1, 287630, Note_on_c, 0, 45, 66
1, 287631, Control_c, 0, 64, 65
1, 287638, Note_on_c, 0, 43, 50
1, 287640, Note_on_c, 0, 85, 85
1, 287648, Note_on_c, 0, 90, 77
1, 287652, Note_on_c, 0, 39, 69
1, 287660, Control_c, 0, 64, 64
1, 287666, Note_off_c, 0, 45, 52
1, 287669, Note_off_c, 0, 43, 58
1, 287675, Control_c, 0, 64, 64
1, 287675, Control_c, 0, 67, 54
1, 287690, Control_c, 0, 64, 61
1, 287691, Note_off_c, 0, 85, 64
1, 287705, Control_c, 0, 64, 55
1, 287713, Note_off_c, 0, 90, 61
1, 287720, Control_c, 0, 64, 44
1, 287720, Control_c, 0, 67, 54
1, 287727, Note_off_c, 0, 39, 59
1, 287734, Control_c, 0, 64, 42
1, 287749, Control_c, 0, 64, 49
1, 287749, Control_c, 0, 67, 53
1, 287757, Note_on_c, 0, 31, 72
1, 287760, Note_on_c, 0, 88, 86
1, 287760, Note_on_c, 0, 93, 93
1, 287764, Control_c, 0, 64, 57
1, 287769, Note_on_c, 0, 33, 58
1, 287779, Control_c, 0, 64, 62
1, 287779, Control_c, 0, 67, 53
1, 287781, Note_on_c, 0, 35, 46
1, 287786, Note_off_c, 0, 93, 62
1, 287788, Note_off_c, 0, 31, 63
1, 287790, Note_off_c, 0, 88, 65
1, 287794, Control_c, 0, 64, 63
1, 287794, Control_c, 0, 67, 52
1, 287799, Note_off_c, 0, 33, 55
1, 287813, Note_off_c, 0, 35, 56
1, 287936, Control_c, 0, 64, 62
1, 287950, Control_c, 0, 64, 53
1, 287950, Control_c, 0, 67, 52
1, 287955, Note_on_c, 0, 79, 83
1, 287964, Note_on_c, 0, 81, 87
1, 287965, Control_c, 0, 64, 0
1, 287973, Note_on_c, 0, 74, 75
1, 287976, Note_on_c, 0, 84, 84
1, 287978, Note_on_c, 0, 66, 71
1, 287979, Note_on_c, 0, 70, 67
1, 287980, Control_c, 0, 67, 50
1, 287992, Note_off_c, 0, 79, 65
1, 287994, Note_off_c, 0, 74, 67
1, 287995, Note_off_c, 0, 84, 71
1, 287995, Control_c, 0, 67, 48
1, 288000, Note_on_c, 0, 85, 34
1, 288000, Note_on_c, 0, 61, 20
1, 288001, Note_off_c, 0, 61, 127
1, 288002, Note_off_c, 0, 66, 67
1, 288002, Note_off_c, 0, 81, 66
1, 288006, Note_off_c, 0, 70, 65
1, 288009, Control_c, 0, 64, 55
1, 288009, Control_c, 0, 67, 46
1, 288024, Control_c, 0, 64, 72
1, 288024, Control_c, 0, 67, 45
1, 288029, Note_off_c, 0, 85, 48
1, 288039, Control_c, 0, 64, 98
1, 288039, Control_c, 0, 67, 44
1, 288040, Note_on_c, 0, 78, 104
1, 288041, Note_on_c, 0, 75, 97
1, 288042, Note_on_c, 0, 87, 106
1, 288043, Note_on_c, 0, 90, 104
1, 288044, Note_on_c, 0, 82, 94
1, 288044, Note_on_c, 0, 70, 95
1, 288046, Note_on_c, 0, 66, 92
1, 288047, Poly_aftertouch_c, 0, 63, 0
1, 288048, Note_on_c, 0, 61, 55
1, 288054, Control_c, 0, 64, 127
1, 288055, Note_off_c, 0, 75, 77
1, 288064, Note_off_c, 0, 70, 64
1, 288073, Note_off_c, 0, 78, 63
1, 288074, Note_off_c, 0, 90, 65
1, 288080, Note_off_c, 0, 82, 66
1, 288083, Control_c, 0, 67, 45
1, 288086, Note_off_c, 0, 66, 65
1, 288095, Note_off_c, 0, 87, 65
1, 288098, Control_c, 0, 67, 45
1, 288101, Note_off_c, 0, 61, 63
1, 288113, Note_on_c, 0, 89, 15
1, 288128, Control_c, 0, 67, 46
1, 288158, Control_c, 0, 67, 47
1, 288165, Note_off_c, 0, 89, 36
1, 288172, Control_c, 0, 67, 48
1, 288187, Control_c, 0, 67, 48
1, 288202, Control_c, 0, 67, 49
1, 288217, Control_c, 0, 67, 50
1, 288232, Control_c, 0, 64, 104
1, 288247, Control_c, 0, 64, 80
1, 288262, Control_c, 0, 64, 62
1, 288262, Control_c, 0, 67, 50
1, 288268, Note_on_c, 0, 87, 78
1, 288273, Note_on_c, 0, 92, 85
1, 288276, Control_c, 0, 64, 0
1, 288286, Note_on_c, 0, 29, 66
1, 288287, Note_on_c, 0, 31, 61
1, 288288, Note_on_c, 0, 33, 66
1, 288319, Note_off_c, 0, 29, 63
1, 288324, Note_off_c, 0, 87, 66
1, 288328, Note_off_c, 0, 31, 60
1, 288334, Note_off_c, 0, 92, 65
1, 288344, Note_off_c, 0, 33, 56
1, 288380, Note_on_c, 0, 88, 75
1, 288380, Note_on_c, 0, 93, 84
1, 288380, Control_c, 0, 67, 50
1, 288381, Note_on_c, 0, 45, 78
1, 288404, Note_off_c, 0, 88, 67
1, 288407, Note_off_c, 0, 93, 61
1, 288409, Note_off_c, 0, 45, 68
1, 288409, Control_c, 0, 67, 49
1, 288420, Poly_aftertouch_c, 0, 39, 127
1, 288439, Control_c, 0, 67, 50
1, 288454, Control_c, 0, 64, 19
1, 288455, Poly_aftertouch_c, 0, 39, 0
1, 288469, Control_c, 0, 64, 23
1, 288475, Note_on_c, 0, 40, 77
1, 288483, Control_c, 0, 64, 24
1, 288486, Note_on_c, 0, 91, 86
1, 288488, Note_on_c, 0, 96, 90
1, 288500, Note_on_c, 0, 45, 45
1, 288513, Control_c, 0, 64, 27
1, 288518, Note_off_c, 0, 40, 62
1, 288527, Note_off_c, 0, 96, 65
1, 288527, Note_off_c, 0, 45, 60
1, 288527, Control_c, 0, 64, 31
1, 288528, Note_off_c, 0, 91, 65
1, 288542, Control_c, 0, 64, 34
1, 288557, Control_c, 0, 64, 36
1, 288572, Control_c, 0, 64, 38
1, 288587, Control_c, 0, 64, 38
1, 288588, Note_on_c, 0, 46, 69
1, 288597, Note_on_c, 0, 42, 64
1, 288598, Note_on_c, 0, 91, 84
1, 288598, Note_on_c, 0, 96, 88
1, 288602, Control_c, 0, 64, 39
1, 288617, Control_c, 0, 64, 40
1, 288638, Note_off_c, 0, 46, 59
1, 288638, Note_off_c, 0, 91, 66
1, 288639, Control_c, 0, 64, 40
1, 288643, Note_off_c, 0, 42, 60
1, 288645, Note_off_c, 0, 96, 62
1, 288670, Control_c, 0, 67, 49
1, 288697, Note_on_c, 0, 50, 69
1, 288706, Note_on_c, 0, 45, 65
1, 288711, Note_on_c, 0, 96, 84
1, 288714, Note_on_c, 0, 91, 76
1, 288739, Note_off_c, 0, 91, 65
1, 288744, Control_c, 0, 64, 42
1, 288745, Note_off_c, 0, 45, 60
1, 288753, Note_off_c, 0, 96, 64
1, 288754, Note_off_c, 0, 50, 60
1, 288759, Control_c, 0, 64, 43
1, 288803, Control_c, 0, 67, 49
1, 288810, Note_on_c, 0, 42, 69
1, 288812, Note_on_c, 0, 46, 62
1, 288816, Note_on_c, 0, 91, 85
1, 288816, Note_on_c, 0, 96, 81
1, 288832, Control_c, 0, 64, 43
1, 288847, Control_c, 0, 64, 44
1, 288856, Note_off_c, 0, 96, 64
1, 288858, Note_off_c, 0, 42, 61
1, 288859, Note_off_c, 0, 91, 64
1, 288861, Note_off_c, 0, 46, 62
1, 288862, Control_c, 0, 64, 45
1, 288877, Control_c, 0, 64, 46
1, 288892, Control_c, 0, 64, 47
1, 288911, Note_on_c, 0, 45, 67
1, 288918, Note_on_c, 0, 40, 68
1, 288920, Note_on_c, 0, 97, 88
1, 288921, Note_on_c, 0, 92, 83
1, 288934, Note_off_c, 0, 45, 63
1, 288946, Note_off_c, 0, 40, 66
1, 288966, Control_c, 0, 67, 48
1, 288967, Note_off_c, 0, 92, 63
1, 288973, Note_off_c, 0, 97, 64
1, 289018, Note_on_c, 0, 93, 90
1, 289022, Note_on_c, 0, 98, 89
1, 289022, Note_on_c, 0, 43, 71
1, 289040, Control_c, 0, 67, 48
1, 289058, Note_off_c, 0, 43, 51
1, 289061, Note_off_c, 0, 93, 66
1, 289069, Note_off_c, 0, 98, 66
1, 289070, Control_c, 0, 64, 46
1, 289070, Control_c, 0, 67, 47
1, 289085, Control_c, 0, 64, 45
1, 289091, Note_on_c, 0, 38, 3
1, 289123, Note_on_c, 0, 31, 79
1, 289126, Note_on_c, 0, 33, 76
1, 289129, Control_c, 0, 64, 46
1, 289131, Note_off_c, 0, 38, 51
1, 289133, Note_on_c, 0, 91, 98
1, 289135, Note_on_c, 0, 96, 88
1, 289141, Note_on_c, 0, 95, 91
1, 289144, Control_c, 0, 64, 48
1, 289159, Control_c, 0, 64, 54
1, 289174, Control_c, 0, 64, 60
1, 289189, Control_c, 0, 64, 64
1, 289189, Note_off_c, 0, 96, 63
1, 289204, Control_c, 0, 64, 67
1, 289218, Control_c, 0, 64, 69
1, 289219, Note_off_c, 0, 31, 53
1, 289225, Note_on_c, 0, 39, 69
1, 289233, Control_c, 0, 64, 70
1, 289235, Note_off_c, 0, 33, 59
1, 289247, Note_on_c, 0, 45, 74
1, 289248, Control_c, 0, 64, 71
1, 289258, Note_off_c, 0, 39, 63
1, 289263, Control_c, 0, 64, 72
1, 289287, Note_off_c, 0, 45, 61
1, 289287, Note_off_c, 0, 91, 40
1, 289299, Note_off_c, 0, 95, 55
1, 289307, Control_c, 0, 67, 47
1, 289322, Control_c, 0, 64, 72
1, 289343, Note_on_c, 0, 87, 93
1, 289344, Note_on_c, 0, 40, 77
1, 289347, Note_on_c, 0, 92, 88
1, 289366, Control_c, 0, 64, 70
1, 289366, Control_c, 0, 67, 47
1, 289379, Note_on_c, 0, 45, 66
1, 289389, Control_c, 0, 64, 67
1, 289404, Note_off_c, 0, 87, 66
1, 289404, Control_c, 0, 64, 65
1, 289411, Note_off_c, 0, 40, 60
1, 289418, Control_c, 0, 64, 65
1, 289427, Note_off_c, 0, 45, 56
1, 289433, Control_c, 0, 64, 67
1, 289446, Note_on_c, 0, 42, 74
1, 289448, Control_c, 0, 64, 70
1, 289454, Note_on_c, 0, 46, 80
1, 289462, Note_on_c, 0, 91, 88
1, 289463, Note_on_c, 0, 86, 86
1, 289463, Control_c, 0, 64, 71
1, 289463, Control_c, 0, 67, 48
1, 289476, Note_off_c, 0, 42, 65
1, 289483, Note_off_c, 0, 46, 65
1, 289483, Note_off_c, 0, 92, 60
1, 289485, Note_off_c, 0, 91, 68
1, 289493, Control_c, 0, 64, 71
1, 289493, Control_c, 0, 67, 48
1, 289504, Note_off_c, 0, 86, 66
1, 289508, Control_c, 0, 64, 70
1, 289523, Control_c, 0, 64, 68
1, 289538, Control_c, 0, 64, 67
1, 289538, Control_c, 0, 67, 48
1, 289568, Control_c, 0, 64, 67
1, 289568, Control_c, 0, 67, 47
1, 289597, Control_c, 0, 64, 67
1, 289612, Control_c, 0, 64, 66
1, 289627, Control_c, 0, 64, 65
1, 289632, Note_on_c, 0, 79, 89
1, 289639, Note_on_c, 0, 81, 95
1, 289642, Control_c, 0, 64, 57
1, 289646, Note_on_c, 0, 84, 88
1, 289647, Note_on_c, 0, 76, 81
1, 289656, Control_c, 0, 64, 0
1, 289657, Note_on_c, 0, 74, 54
1, 289665, Note_off_c, 0, 79, 64
1, 289666, Note_off_c, 0, 76, 71
1, 289667, Note_on_c, 0, 67, 56
1, 289670, Note_on_c, 0, 71, 45
1, 289671, Control_c, 0, 67, 47
1, 289676, Note_on_c, 0, 66, 10
1, 289677, Note_off_c, 0, 66, 127
1, 289677, Note_off_c, 0, 84, 66
1, 289681, Note_off_c, 0, 81, 64
1, 289681, Note_off_c, 0, 74, 60
1, 289686, Control_c, 0, 64, 52
1, 289686, Control_c, 0, 67, 46
1, 289690, Note_off_c, 0, 67, 60
1, 289696, Note_off_c, 0, 71, 58
1, 289701, Control_c, 0, 64, 67
1, 289714, Control_c, 0, 64, 79
1, 289714, Control_c, 0, 67, 47
1, 289720, Note_on_c, 0, 82, 84
1, 289720, Note_on_c, 0, 66, 59
1, 289720, Note_on_c, 0, 78, 115
1, 289722, Note_on_c, 0, 90, 102
1, 289723, Note_on_c, 0, 87, 98
1, 289723, Note_on_c, 0, 75, 96
1, 289728, Note_on_c, 0, 70, 85
1, 289729, Control_c, 0, 64, 97
1, 289729, Control_c, 0, 67, 48
1, 289737, Note_off_c, 0, 75, 71
1, 289741, Note_on_c, 0, 61, 77
1, 289743, Note_on_c, 0, 63, 67
1, 289743, Control_c, 0, 64, 127
1, 289743, Control_c, 0, 67, 48
1, 289749, Note_off_c, 0, 78, 61
1, 289752, Note_off_c, 0, 70, 68
1, 289759, Note_off_c, 0, 82, 65
1, 289770, Note_off_c, 0, 63, 67
1, 289772, Note_off_c, 0, 87, 66
1, 289773, Control_c, 0, 67, 49
1, 289774, Note_off_c, 0, 61, 64
1, 289775, Note_off_c, 0, 66, 61
1, 289779, Note_off_c, 0, 90, 67
1, 289788, Control_c, 0, 67, 48
1, 289818, Control_c, 0, 67, 48
1, 289877, Control_c, 0, 67, 48
1, 289921, Control_c, 0, 64, 98
1, 289936, Control_c, 0, 64, 77
1, 289951, Control_c, 0, 64, 53
1, 289958, Note_on_c, 0, 31, 75
1, 289958, Note_on_c, 0, 91, 95
1, 289963, Note_on_c, 0, 96, 90
1, 289965, Control_c, 0, 64, 0
1, 289967, Note_on_c, 0, 33, 67
1, 289995, Control_c, 0, 67, 49
1, 290003, Note_off_c, 0, 91, 66
1, 290003, Note_off_c, 0, 96, 64
1, 290008, Note_off_c, 0, 31, 57
1, 290010, Control_c, 0, 67, 49
1, 290022, Note_off_c, 0, 33, 57
1, 290025, Control_c, 0, 64, 23
1, 290039, Control_c, 0, 64, 24
1, 290039, Control_c, 0, 67, 50
1, 290054, Control_c, 0, 64, 26
1, 290062, Note_on_c, 0, 45, 70
1, 290069, Control_c, 0, 64, 27
1, 290072, Note_on_c, 0, 88, 69
1, 290073, Note_on_c, 0, 93, 78
1, 290084, Control_c, 0, 67, 49
1, 290089, Note_off_c, 0, 45, 66
1, 290099, Note_off_c, 0, 88, 68
1, 290101, Note_off_c, 0, 93, 63
1, 290136, Control_c, 0, 64, 30
1, 290136, Control_c, 0, 67, 50
1, 290151, Control_c, 0, 64, 33
1, 290166, Control_c, 0, 67, 50
1, 290170, Note_on_c, 0, 40, 72
1, 290173, Note_on_c, 0, 45, 60
1, 290185, Note_on_c, 0, 91, 78
1, 290188, Note_on_c, 0, 96, 77
1, 290205, Note_off_c, 0, 40, 64
1, 290209, Note_off_c, 0, 45, 64
1, 290213, Note_off_c, 0, 91, 66
1, 290220, Note_off_c, 0, 96, 63
1, 290240, Control_c, 0, 64, 34
1, 290256, Control_c, 0, 64, 35
1, 290256, Control_c, 0, 67, 51
1, 290270, Control_c, 0, 64, 36
1, 290270, Control_c, 0, 67, 51
1, 290280, Note_on_c, 0, 42, 62
1, 290283, Note_on_c, 0, 46, 62
1, 290285, Control_c, 0, 64, 36
1, 290285, Control_c, 0, 67, 52
1, 290298, Note_on_c, 0, 91, 71
1, 290299, Note_on_c, 0, 96, 79
1, 290315, Control_c, 0, 64, 37
1, 290319, Note_off_c, 0, 91, 67
1, 290320, Note_off_c, 0, 46, 62
1, 290322, Note_off_c, 0, 42, 60
1, 290326, Note_off_c, 0, 96, 60
1, 290330, Control_c, 0, 64, 38
1, 290345, Control_c, 0, 67, 51
1, 290381, Note_on_c, 0, 50, 67
1, 290389, Control_c, 0, 64, 38
1, 290391, Note_on_c, 0, 91, 79
1, 290393, Note_on_c, 0, 45, 60
1, 290400, Note_on_c, 0, 96, 81
1, 290403, Control_c, 0, 64, 40
1, 290418, Control_c, 0, 64, 42
1, 290426, Note_off_c, 0, 91, 64
1, 290426, Note_off_c, 0, 96, 65
1, 290429, Note_off_c, 0, 45, 64
1, 290432, Note_off_c, 0, 50, 58
1, 290433, Control_c, 0, 64, 43
1, 290448, Control_c, 0, 64, 44
1, 290463, Control_c, 0, 67, 51
1, 290492, Control_c, 0, 67, 50
1, 290496, Note_on_c, 0, 46, 65
1, 290501, Note_on_c, 0, 42, 62
1, 290502, Note_on_c, 0, 91, 95
1, 290507, Note_on_c, 0, 96, 93
1, 290541, Note_off_c, 0, 91, 66
1, 290543, Note_off_c, 0, 42, 60
1, 290545, Note_off_c, 0, 96, 64
1, 290548, Note_off_c, 0, 46, 57
1, 290566, Control_c, 0, 64, 44
1, 290596, Control_c, 0, 67, 50
1, 290600, Note_on_c, 0, 45, 77
1, 290608, Note_on_c, 0, 91, 111
1, 290609, Note_on_c, 0, 96, 101
1, 290612, Note_on_c, 0, 40, 68
1, 290624, Note_off_c, 0, 45, 67
1, 290640, Note_off_c, 0, 40, 66
1, 290685, Control_c, 0, 67, 50
1, 290715, Control_c, 0, 64, 45
1, 290722, Note_on_c, 0, 43, 60
1, 290723, Note_on_c, 0, 39, 76
1, 290743, Note_on_c, 0, 45, 12
1, 290744, Control_c, 0, 64, 45
1, 290754, Note_off_c, 0, 43, 54
1, 290770, Note_off_c, 0, 45, 49
1, 290778, Note_off_c, 0, 39, 57
1, 290820, Note_on_c, 0, 31, 70
1, 290820, Note_on_c, 0, 33, 69
1, 290833, Control_c, 0, 64, 46
1, 290837, Note_off_c, 0, 91, 61
1, 290840, Note_on_c, 0, 93, 74
1, 290842, Note_on_c, 0, 88, 69
1, 290846, Note_off_c, 0, 96, 60
1, 290868, Note_off_c, 0, 93, 69
1, 290874, Note_off_c, 0, 88, 67
1, 290887, Note_off_c, 0, 31, 50
1, 290919, Note_off_c, 0, 33, 58
1, 290929, Control_c, 0, 64, 47
1, 290933, Note_on_c, 0, 39, 47
1, 290935, Note_on_c, 0, 45, 69
1, 290947, Note_on_c, 0, 92, 81
1, 290948, Note_on_c, 0, 97, 83
1, 290965, Note_off_c, 0, 39, 54
1, 290973, Note_off_c, 0, 45, 66
1, 290974, Note_off_c, 0, 92, 62
1, 290997, Note_off_c, 0, 97, 63
1, 291003, Control_c, 0, 67, 50
1, 291034, Note_on_c, 0, 40, 73
1, 291045, Note_on_c, 0, 91, 84
1, 291049, Note_on_c, 0, 96, 86
1, 291055, Note_on_c, 0, 45, 67
1, 291082, Note_off_c, 0, 91, 64
1, 291085, Note_off_c, 0, 40, 61
1, 291088, Note_off_c, 0, 96, 61
1, 291089, Note_off_c, 0, 45, 64
1, 291156, Note_on_c, 0, 42, 72
1, 291156, Note_on_c, 0, 93, 98
1, 291157, Note_on_c, 0, 46, 74
1, 291157, Note_on_c, 0, 98, 108
1, 291197, Control_c, 0, 64, 47
1, 291197, Control_c, 0, 67, 50
1, 291198, Note_off_c, 0, 46, 58
1, 291212, Note_off_c, 0, 42, 60
1, 291261, Note_on_c, 0, 50, 76
1, 291268, Note_on_c, 0, 45, 75
1, 291271, Control_c, 0, 64, 48
1, 291292, Note_off_c, 0, 93, 63
1, 291300, Control_c, 0, 64, 48
1, 291300, Control_c, 0, 67, 50
1, 291312, Note_off_c, 0, 98, 61
1, 291313, Note_off_c, 0, 45, 62
1, 291325, Note_off_c, 0, 50, 61
1, 291365, Note_on_c, 0, 42, 74
1, 291365, Note_on_c, 0, 46, 77
1, 291383, Note_on_c, 0, 91, 85
1, 291389, Note_on_c, 0, 96, 83
1, 291413, Note_off_c, 0, 96, 65
1, 291419, Control_c, 0, 64, 49
1, 291420, Note_off_c, 0, 91, 64
1, 291422, Note_off_c, 0, 46, 62
1, 291424, Note_off_c, 0, 42, 62
1, 291448, Control_c, 0, 64, 50
1, 291475, Note_on_c, 0, 40, 73
1, 291478, Control_c, 0, 64, 51
1, 291478, Control_c, 0, 67, 50
1, 291480, Note_on_c, 0, 92, 89
1, 291481, Note_on_c, 0, 97, 92
1, 291487, Note_on_c, 0, 43, 53
1, 291488, Note_on_c, 0, 45, 46
1, 291508, Note_off_c, 0, 40, 67
1, 291508, Control_c, 0, 64, 51
1, 291516, Note_off_c, 0, 43, 54
1, 291518, Note_off_c, 0, 45, 54
1, 291523, Control_c, 0, 67, 50
1, 291524, Note_off_c, 0, 92, 67
1, 291529, Note_off_c, 0, 97, 65
1, 291575, Note_on_c, 0, 98, 102
1, 291581, Note_on_c, 0, 43, 72
1, 291581, Note_on_c, 0, 93, 92
1, 291590, Note_on_c, 0, 39, 77
1, 291592, Note_on_c, 0, 45, 63
1, 291597, Control_c, 0, 64, 49
1, 291612, Control_c, 0, 64, 42
1, 291633, Note_off_c, 0, 93, 66
1, 291633, Note_off_c, 0, 45, 63
1, 291633, Control_c, 0, 64, 31
1, 291633, Control_c, 0, 67, 49
1, 291638, Note_off_c, 0, 43, 62
1, 291639, Note_off_c, 0, 98, 66
1, 291648, Control_c, 0, 64, 17
1, 291648, Control_c, 0, 67, 49
1, 291659, Note_off_c, 0, 39, 59
1, 291663, Control_c, 0, 64, 0
1, 291663, Control_c, 0, 67, 48
1, 291678, Control_c, 0, 64, 11
1, 291678, Control_c, 0, 67, 47
1, 291685, Note_on_c, 0, 31, 76
1, 291691, Note_on_c, 0, 33, 72
1, 291693, Note_on_c, 0, 91, 96
1, 291693, Control_c, 0, 64, 41
1, 291693, Control_c, 0, 67, 44
1, 291693, Note_on_c, 0, 96, 96
1, 291708, Control_c, 0, 64, 57
1, 291708, Control_c, 0, 67, 40
1, 291710, Note_on_c, 0, 34, 52
1, 291710, Note_on_c, 0, 35, 59
1, 291723, Control_c, 0, 64, 64
1, 291723, Control_c, 0, 67, 33
1, 291724, Note_off_c, 0, 31, 64
1, 291729, Note_off_c, 0, 96, 67
1, 291731, Note_off_c, 0, 91, 68
1, 291738, Note_off_c, 0, 35, 59
1, 291738, Control_c, 0, 64, 68
1, 291738, Control_c, 0, 67, 14
1, 291743, Note_off_c, 0, 34, 47
1, 291744, Note_off_c, 0, 33, 60
1, 291752, Control_c, 0, 64, 72
1, 291752, Control_c, 0, 67, 0
1, 291767, Control_c, 0, 64, 72
1, 291782, Control_c, 0, 64, 72
1, 291797, Control_c, 0, 64, 71
1, 291812, Control_c, 0, 64, 70
1, 291826, Control_c, 0, 64, 70
1, 291902, Control_c, 0, 64, 69
1, 291905, Note_on_c, 0, 79, 83
1, 291911, Note_on_c, 0, 85, 88
1, 291916, Control_c, 0, 64, 67
1, 291920, Note_on_c, 0, 83, 65
1, 291921, Note_on_c, 0, 82, 73
1, 291927, Note_on_c, 0, 76, 70
1, 291927, Note_on_c, 0, 81, 63
1, 291927, Note_off_c, 0, 85, 72
1, 291931, Note_on_c, 0, 68, 66
1, 291931, Control_c, 0, 64, 63
1, 291931, Note_on_c, 0, 84, 73
1, 291932, Note_off_c, 0, 79, 63
1, 291944, Note_off_c, 0, 81, 65
1, 291944, Note_off_c, 0, 83, 67
1, 291946, Control_c, 0, 64, 51
1, 291946, Note_off_c, 0, 76, 68
1, 291952, Note_off_c, 0, 84, 72
1, 291955, Note_off_c, 0, 68, 66
1, 291961, Note_off_c, 0, 82, 61
1, 291961, Control_c, 0, 64, 45
1, 291965, Note_on_c, 0, 72, 9
1, 291976, Control_c, 0, 64, 59
1, 291980, Note_off_c, 0, 72, 36
1, 291991, Control_c, 0, 64, 70
1, 292000, Note_on_c, 0, 87, 97
1, 292000, Note_on_c, 0, 78, 103
1, 292003, Note_on_c, 0, 90, 99
1, 292005, Note_on_c, 0, 75, 103
1, 292005, Note_on_c, 0, 82, 84
1, 292006, Control_c, 0, 64, 86
1, 292014, Note_on_c, 0, 67, 77
1, 292015, Note_on_c, 0, 63, 55
1, 292017, Note_on_c, 0, 71, 75
1, 292021, Control_c, 0, 64, 127
1, 292022, Note_off_c, 0, 90, 68
1, 292037, Note_off_c, 0, 71, 72
1, 292039, Note_on_c, 0, 89, 70
1, 292045, Note_off_c, 0, 78, 58
1, 292045, Note_off_c, 0, 75, 67
1, 292050, Note_off_c, 0, 63, 53
1, 292050, Note_off_c, 0, 67, 58
1, 292056, Note_off_c, 0, 89, 66
1, 292063, Note_off_c, 0, 82, 66
1, 292072, Note_off_c, 0, 87, 67
1, 292223, Note_on_c, 0, 79, 87
1, 292229, Note_on_c, 0, 81, 92
1, 292232, Note_on_c, 0, 76, 78
1, 292233, Note_on_c, 0, 74, 66
1, 292238, Note_on_c, 0, 84, 78
1, 292239, Note_on_c, 0, 62, 54
1, 292241, Note_on_c, 0, 66, 70
1, 292242, Note_on_c, 0, 70, 64
1, 292244, Note_on_c, 0, 60, 49
1, 292244, Note_on_c, 0, 83, 78
1, 292251, Note_off_c, 0, 76, 69
1, 292251, Note_off_c, 0, 79, 61
1, 292254, Note_on_c, 0, 64, 35
1, 292259, Note_off_c, 0, 74, 67
1, 292262, Note_off_c, 0, 83, 66
1, 292264, Note_off_c, 0, 62, 58
1, 292267, Note_off_c, 0, 81, 68
1, 292268, Note_off_c, 0, 70, 67
1, 292268, Note_off_c, 0, 66, 65
1, 292269, Note_off_c, 0, 60, 59
1, 292271, Note_off_c, 0, 84, 65
1, 292272, Control_c, 0, 64, 88
1, 292284, Note_off_c, 0, 64, 55
1, 292287, Control_c, 0, 64, 68
1, 292302, Control_c, 0, 64, 53
1, 292312, Note_on_c, 0, 70, 92
1, 292313, Note_on_c, 0, 66, 79
1, 292314, Note_on_c, 0, 78, 106
1, 292316, Note_on_c, 0, 90, 101
1, 292316, Control_c, 0, 64, 63
1, 292318, Note_on_c, 0, 87, 96
1, 292320, Note_on_c, 0, 82, 97
1, 292328, Note_on_c, 0, 61, 80
1, 292331, Control_c, 0, 64, 73
1, 292337, Note_on_c, 0, 75, 45
1, 292338, Note_off_c, 0, 75, 127
1, 292338, Note_off_c, 0, 70, 64
1, 292339, Note_on_c, 0, 85, 55
1, 292346, Note_on_c, 0, 73, 41
1, 292346, Control_c, 0, 64, 89
1, 292351, Note_off_c, 0, 78, 59
1, 292361, Note_off_c, 0, 82, 65
1, 292361, Control_c, 0, 64, 119
1, 292371, Note_off_c, 0, 66, 62
1, 292375, Note_off_c, 0, 85, 65
1, 292376, Note_off_c, 0, 61, 63
1, 292382, Note_off_c, 0, 87, 66
1, 292383, Control_c, 0, 64, 127
1, 292386, Note_off_c, 0, 73, 58
1, 292387, Note_off_c, 0, 90, 67
1, 292414, Poly_aftertouch_c, 0, 74, 0
1, 292441, Poly_aftertouch_c, 0, 63, 0
1, 292517, Control_c, 0, 64, 100
1, 292531, Control_c, 0, 64, 81
1, 292531, Control_c, 0, 67, 12
1, 292546, Control_c, 0, 64, 65
1, 292546, Control_c, 0, 67, 17
1, 292560, Note_on_c, 0, 93, 88
1, 292560, Note_on_c, 0, 88, 83
1, 292561, Note_on_c, 0, 33, 43
1, 292561, Control_c, 0, 64, 0
1, 292561, Control_c, 0, 67, 26
1, 292567, Note_on_c, 0, 31, 54
1, 292571, Note_on_c, 0, 35, 50
1, 292575, Control_c, 0, 67, 34
1, 292590, Control_c, 0, 67, 41
1, 292592, Note_off_c, 0, 88, 65
1, 292602, Note_off_c, 0, 31, 57
1, 292605, Note_off_c, 0, 93, 64
1, 292605, Control_c, 0, 64, 30
1, 292605, Control_c, 0, 67, 46
1, 292613, Note_off_c, 0, 35, 61
1, 292618, Note_off_c, 0, 33, 57
1, 292620, Control_c, 0, 64, 42
1, 292620, Control_c, 0, 67, 50
1, 292635, Control_c, 0, 64, 43
1, 292635, Control_c, 0, 67, 53
1, 292651, Control_c, 0, 67, 56
1, 292654, Note_on_c, 0, 45, 74
1, 292665, Note_on_c, 0, 96, 89
1, 292665, Control_c, 0, 64, 43
1, 292665, Control_c, 0, 67, 57
1, 292668, Note_on_c, 0, 91, 85
1, 292680, Control_c, 0, 67, 57
1, 292686, Note_off_c, 0, 45, 67
1, 292695, Control_c, 0, 67, 58
1, 292698, Note_off_c, 0, 91, 66
1, 292709, Note_off_c, 0, 96, 64
1, 292710, Control_c, 0, 64, 44
1, 292725, Control_c, 0, 64, 45
1, 292739, Control_c, 0, 64, 47
1, 292760, Note_on_c, 0, 40, 67
1, 292770, Note_on_c, 0, 45, 62
1, 292773, Note_on_c, 0, 96, 91
1, 292775, Note_on_c, 0, 91, 94
1, 292796, Note_off_c, 0, 40, 66
1, 292799, Control_c, 0, 67, 57
1, 292814, Control_c, 0, 64, 48
1, 292815, Note_off_c, 0, 45, 61
1, 292820, Note_off_c, 0, 91, 65
1, 292826, Note_off_c, 0, 96, 62
1, 292829, Control_c, 0, 64, 49
1, 292844, Control_c, 0, 64, 49
1, 292844, Control_c, 0, 67, 57
1, 292858, Control_c, 0, 67, 56
1, 292868, Note_on_c, 0, 46, 70
1, 292876, Note_on_c, 0, 42, 64
1, 292879, Note_on_c, 0, 93, 92
1, 292880, Note_on_c, 0, 88, 80
1, 292888, Control_c, 0, 67, 56
1, 292917, Control_c, 0, 64, 50
1, 292917, Control_c, 0, 67, 55
1, 292920, Note_off_c, 0, 46, 60
1, 292921, Note_off_c, 0, 88, 57
1, 292927, Note_off_c, 0, 42, 59
1, 292936, Note_off_c, 0, 93, 60
1, 292947, Control_c, 0, 64, 50
1, 292962, Control_c, 0, 67, 55
1, 292977, Note_on_c, 0, 50, 70
1, 292977, Control_c, 0, 67, 54
1, 292984, Note_on_c, 0, 45, 67
1, 292984, Note_on_c, 0, 91, 93
1, 292987, Note_on_c, 0, 96, 88
1, 293006, Control_c, 0, 64, 51
1, 293018, Note_off_c, 0, 91, 64
1, 293021, Note_off_c, 0, 45, 63
1, 293021, Note_off_c, 0, 96, 64
1, 293021, Control_c, 0, 67, 54
1, 293036, Control_c, 0, 64, 52
1, 293041, Note_off_c, 0, 50, 64
1, 293051, Control_c, 0, 67, 53
1, 293080, Control_c, 0, 64, 52
1, 293090, Note_on_c, 0, 97, 93
1, 293091, Note_on_c, 0, 92, 88
1, 293095, Note_on_c, 0, 42, 69
1, 293095, Control_c, 0, 64, 53
1, 293096, Note_on_c, 0, 46, 73
1, 293110, Control_c, 0, 64, 53
1, 293132, Control_c, 0, 64, 54
1, 293132, Control_c, 0, 67, 53
1, 293138, Note_off_c, 0, 92, 59
1, 293144, Note_off_c, 0, 97, 66
1, 293147, Control_c, 0, 64, 55
1, 293147, Control_c, 0, 67, 52
1, 293148, Note_off_c, 0, 42, 63
1, 293160, Note_off_c, 0, 46, 61
1, 293162, Control_c, 0, 64, 55
1, 293162, Control_c, 0, 67, 52
1, 293192, Control_c, 0, 64, 56
1, 293192, Control_c, 0, 67, 51
1, 293200, Note_on_c, 0, 45, 79
1, 293204, Note_on_c, 0, 40, 72
1, 293206, Note_on_c, 0, 97, 87
1, 293206, Control_c, 0, 64, 57
1, 293207, Note_on_c, 0, 92, 97
1, 293221, Control_c, 0, 64, 59
1, 293221, Control_c, 0, 67, 50
1, 293222, Note_on_c, 0, 96, 87
1, 293229, Note_off_c, 0, 45, 68
1, 293236, Control_c, 0, 64, 61
1, 293236, Control_c, 0, 67, 49
1, 293244, Note_off_c, 0, 40, 64
1, 293251, Control_c, 0, 64, 63
1, 293251, Control_c, 0, 67, 48
1, 293261, Note_off_c, 0, 96, 60
1, 293266, Control_c, 0, 64, 64
1, 293266, Control_c, 0, 67, 48
1, 293280, Control_c, 0, 64, 65
1, 293280, Control_c, 0, 67, 47
1, 293285, Note_off_c, 0, 92, 0
1, 293285, Note_off_c, 0, 97, 33
1, 293295, Control_c, 0, 64, 65
1, 293295, Control_c, 0, 67, 46
1, 293300, Note_on_c, 0, 92, 55
1, 293304, Note_on_c, 0, 45, 59
1, 293306, Note_on_c, 0, 93, 89
1, 293308, Note_on_c, 0, 98, 91
1, 293310, Control_c, 0, 67, 45
1, 293316, Note_on_c, 0, 43, 64
1, 293324, Note_on_c, 0, 39, 76
1, 293324, Control_c, 0, 64, 66
1, 293324, Control_c, 0, 67, 43
1, 293330, Note_off_c, 0, 92, 68
1, 293339, Control_c, 0, 64, 66
1, 293339, Control_c, 0, 67, 38
1, 293347, Note_off_c, 0, 93, 66
1, 293351, Note_off_c, 0, 43, 55
1, 293354, Control_c, 0, 67, 27
1, 293357, Note_off_c, 0, 45, 63
1, 293369, Control_c, 0, 64, 67
1, 293369, Control_c, 0, 67, 10
1, 293384, Control_c, 0, 64, 68
1, 293384, Control_c, 0, 67, 0
1, 293398, Control_c, 0, 64, 72
1, 293402, Note_on_c, 0, 33, 80
1, 293406, Note_on_c, 0, 31, 79
1, 293413, Control_c, 0, 64, 76
1, 293428, Control_c, 0, 64, 83
1, 293431, Note_off_c, 0, 31, 65
1, 293433, Note_off_c, 0, 33, 66
1, 293434, Note_on_c, 0, 96, 60
1, 293440, Note_off_c, 0, 39, 61
1, 293444, Control_c, 0, 64, 90
1, 293447, Note_off_c, 0, 98, 65
1, 293459, Control_c, 0, 64, 97
1, 293465, Note_off_c, 0, 96, 67
1, 293474, Control_c, 0, 64, 101
1, 293476, Note_on_c, 0, 88, 68
1, 293488, Control_c, 0, 64, 104
1, 293503, Control_c, 0, 64, 109
1, 293518, Control_c, 0, 64, 118
1, 293525, Note_on_c, 0, 92, 61
1, 293527, Note_on_c, 0, 94, 102
1, 293533, Control_c, 0, 64, 127
1, 293539, Note_on_c, 0, 93, 91
1, 293539, Note_on_c, 0, 97, 95
1, 293546, Note_off_c, 0, 88, 64
1, 293547, Note_on_c, 0, 99, 100
1, 293553, Note_off_c, 0, 92, 68
1, 293557, Note_off_c, 0, 93, 70
1, 293564, Note_off_c, 0, 94, 68
1, 293573, Note_off_c, 0, 97, 66
1, 293578, Note_off_c, 0, 99, 71
1, 293711, Control_c, 0, 64, 98
1, 293726, Control_c, 0, 64, 76
1, 293729, Note_on_c, 0, 79, 104
1, 293730, Note_on_c, 0, 84, 104
1, 293734, Note_on_c, 0, 76, 100
1, 293735, Note_on_c, 0, 71, 99
1, 293739, Note_on_c, 0, 61, 86
1, 293740, Control_c, 0, 64, 51
1, 293741, Note_on_c, 0, 58, 83
1, 293747, Note_on_c, 0, 66, 67
1, 293750, Note_on_c, 0, 64, 73
1, 293755, Control_c, 0, 64, 36
1, 293766, Note_off_c, 0, 76, 59
1, 293768, Note_off_c, 0, 66, 63
1, 293770, Control_c, 0, 64, 58
1, 293771, Note_off_c, 0, 79, 62
1, 293782, Note_on_c, 0, 67, 37
1, 293785, Control_c, 0, 64, 68
1, 293787, Note_off_c, 0, 71, 65
1, 293800, Control_c, 0, 64, 76
1, 293801, Note_off_c, 0, 61, 58
1, 293801, Note_off_c, 0, 64, 62
1, 293809, Note_off_c, 0, 84, 54
1, 293812, Note_off_c, 0, 67, 34
1, 293814, Control_c, 0, 64, 86
1, 293829, Control_c, 0, 64, 95
1, 293844, Control_c, 0, 64, 99
1, 293852, Poly_aftertouch_c, 0, 65, 0
1, 293856, Note_off_c, 0, 58, 30
1, 293866, Control_c, 0, 64, 99
1, 293881, Control_c, 0, 64, 99
1, 293911, Control_c, 0, 64, 99
1, 293935, Note_on_c, 0, 70, 88
1, 293935, Note_on_c, 0, 78, 84
1, 293938, Note_on_c, 0, 68, 81
1, 293941, Note_on_c, 0, 75, 87
1, 293941, Note_on_c, 0, 81, 91
1, 293951, Note_on_c, 0, 62, 69
1, 293953, Note_off_c, 0, 70, 71
1, 293955, Control_c, 0, 64, 99
1, 293958, Note_off_c, 0, 75, 72
1, 293958, Note_on_c, 0, 65, 60
1, 293960, Note_on_c, 0, 59, 76
1, 293962, Note_off_c, 0, 68, 64
1, 293967, Note_on_c, 0, 60, 64
1, 293973, Note_off_c, 0, 78, 65
1, 293978, Note_off_c, 0, 81, 67
1, 293979, Note_off_c, 0, 62, 66
1, 293981, Note_off_c, 0, 65, 61
1, 293985, Note_off_c, 0, 59, 67
1, 293988, Note_off_c, 0, 60, 65
1, 294059, Control_c, 0, 64, 99
1, 294103, Control_c, 0, 64, 99
1, 294118, Control_c, 0, 64, 93
1, 294125, Note_on_c, 0, 31, 73
1, 294133, Control_c, 0, 64, 81
1, 294140, Note_on_c, 0, 35, 60
1, 294147, Control_c, 0, 64, 68
1, 294154, Note_on_c, 0, 98, 82
1, 294159, Note_on_c, 0, 33, 48
1, 294160, Note_on_c, 0, 93, 79
1, 294162, Control_c, 0, 64, 48
1, 294177, Control_c, 0, 64, 19
1, 294192, Control_c, 0, 64, 32
1, 294193, Note_off_c, 0, 33, 34
1, 294194, Note_off_c, 0, 31, 60
1, 294197, Note_off_c, 0, 98, 67
1, 294204, Note_off_c, 0, 93, 63
1, 294206, Control_c, 0, 64, 53
1, 294212, Note_off_c, 0, 35, 59
1, 294221, Control_c, 0, 64, 60
1, 294236, Control_c, 0, 64, 61
1, 294236, Note_on_c, 0, 45, 76
1, 294255, Note_on_c, 0, 92, 84
1, 294257, Note_on_c, 0, 97, 89
1, 294276, Note_off_c, 0, 45, 64
1, 294306, Note_off_c, 0, 92, 65
1, 294316, Note_off_c, 0, 97, 64
1, 294352, Note_on_c, 0, 38, 62
1, 294359, Note_on_c, 0, 98, 91
1, 294360, Note_on_c, 0, 93, 82
1, 294385, Control_c, 0, 64, 60
1, 294387, Note_off_c, 0, 38, 49
1, 294400, Control_c, 0, 64, 60
1, 294400, Note_off_c, 0, 93, 66
1, 294408, Note_off_c, 0, 98, 67
1, 294429, Control_c, 0, 64, 59
1, 294460, Note_on_c, 0, 42, 68
1, 294464, Note_on_c, 0, 46, 69
1, 294465, Note_on_c, 0, 96, 87
1, 294468, Note_on_c, 0, 91, 83
1, 294496, Note_off_c, 0, 46, 61
1, 294509, Note_off_c, 0, 91, 65
1, 294509, Note_off_c, 0, 42, 60
1, 294513, Note_off_c, 0, 96, 64
1, 294533, Control_c, 0, 64, 60
1, 294564, Note_on_c, 0, 50, 70
1, 294566, Note_on_c, 0, 93, 92
1, 294568, Note_on_c, 0, 45, 73
1, 294569, Note_on_c, 0, 88, 79
1, 294593, Note_off_c, 0, 93, 62
1, 294596, Note_off_c, 0, 88, 65
1, 294625, Note_off_c, 0, 45, 61
1, 294628, Note_off_c, 0, 50, 60
1, 294681, Note_on_c, 0, 42, 70
1, 294684, Note_on_c, 0, 46, 74
1, 294685, Note_on_c, 0, 92, 88
1, 294686, Note_on_c, 0, 87, 81
1, 294718, Control_c, 0, 64, 59
1, 294728, Note_off_c, 0, 87, 65
1, 294733, Note_off_c, 0, 92, 64
1, 294736, Note_off_c, 0, 42, 61
1, 294744, Note_off_c, 0, 46, 62
1, 294781, Note_on_c, 0, 45, 80
1, 294786, Note_on_c, 0, 40, 79
1, 294787, Note_on_c, 0, 91, 90
1, 294789, Note_on_c, 0, 96, 88
1, 294805, Note_off_c, 0, 45, 67
1, 294819, Note_off_c, 0, 40, 69
1, 294822, Control_c, 0, 64, 59
1, 294826, Note_off_c, 0, 96, 67
1, 294832, Note_off_c, 0, 91, 66
1, 294881, Control_c, 0, 64, 59
1, 294890, Note_on_c, 0, 43, 65
1, 294890, Note_on_c, 0, 87, 91
1, 294894, Note_on_c, 0, 39, 82
1, 294897, Note_on_c, 0, 92, 85
1, 294906, Note_on_c, 0, 45, 34
1, 294910, Control_c, 0, 64, 60
1, 294932, Note_off_c, 0, 43, 49
1, 294933, Note_off_c, 0, 45, 55
1, 294940, Control_c, 0, 64, 61
1, 294948, Note_off_c, 0, 92, 63
1, 294948, Note_off_c, 0, 87, 65
1, 294957, Note_off_c, 0, 39, 60
1, 294969, Control_c, 0, 64, 61
1, 294987, Note_on_c, 0, 33, 77
1, 294990, Note_on_c, 0, 31, 76
1, 294993, Note_on_c, 0, 91, 86
1, 294998, Note_on_c, 0, 86, 81
1, 295046, Note_off_c, 0, 86, 65
1, 295059, Note_off_c, 0, 91, 62
1, 295073, Note_on_c, 0, 39, 72
1, 295076, Note_off_c, 0, 31, 60
1, 295081, Note_on_c, 0, 45, 78
1, 295086, Note_on_c, 0, 93, 96
1, 295096, Note_off_c, 0, 33, 61
1, 295108, Note_off_c, 0, 39, 64
1, 295121, Note_off_c, 0, 45, 66
1, 295129, Note_off_c, 0, 93, 65
1, 295134, Control_c, 0, 64, 62
1, 295145, Note_on_c, 0, 86, 87
1, 295148, Control_c, 0, 64, 62
1, 295163, Control_c, 0, 64, 63
1, 295178, Control_c, 0, 64, 64
1, 295187, Note_on_c, 0, 92, 103
1, 295193, Note_off_c, 0, 86, 68
1, 295193, Control_c, 0, 64, 65
1, 295193, Note_on_c, 0, 94, 97
1, 295197, Note_on_c, 0, 99, 103
1, 295198, Note_on_c, 0, 97, 93
1, 295207, Control_c, 0, 64, 67
1, 295213, Note_off_c, 0, 94, 68
1, 295222, Note_off_c, 0, 92, 65
1, 295222, Control_c, 0, 64, 68
1, 295234, Note_off_c, 0, 99, 68
1, 295237, Control_c, 0, 64, 70
1, 295252, Control_c, 0, 64, 72
1, 295253, Note_off_c, 0, 97, 60
1, 295267, Control_c, 0, 64, 73
1, 295326, Control_c, 0, 64, 71
1, 295341, Control_c, 0, 64, 65
1, 295363, Control_c, 0, 64, 54
1, 295377, Note_on_c, 0, 71, 96
1, 295377, Note_on_c, 0, 79, 102
1, 295378, Control_c, 0, 64, 58
1, 295380, Note_on_c, 0, 76, 99
1, 295382, Note_on_c, 0, 84, 89
1, 295383, Note_on_c, 0, 61, 84
1, 295384, Note_on_c, 0, 66, 87
1, 295385, Note_on_c, 0, 86, 84
1, 295386, Note_on_c, 0, 63, 83
1, 295389, Note_on_c, 0, 58, 79
1, 295392, Control_c, 0, 64, 67
1, 295406, Note_off_c, 0, 86, 64
1, 295407, Control_c, 0, 64, 77
1, 295417, Note_off_c, 0, 79, 63
1, 295419, Note_off_c, 0, 76, 63
1, 295422, Note_off_c, 0, 58, 61
1, 295422, Note_off_c, 0, 71, 68
1, 295422, Control_c, 0, 64, 94
1, 295430, Note_off_c, 0, 66, 64
1, 295435, Note_off_c, 0, 84, 62
1, 295437, Control_c, 0, 64, 127
1, 295441, Note_off_c, 0, 61, 60
1, 295455, Note_off_c, 0, 63, 61
1, 295558, Note_on_c, 0, 63, 41
1, 295565, Note_on_c, 0, 70, 79
1, 295570, Note_on_c, 0, 75, 74
1, 295575, Note_on_c, 0, 68, 68
1, 295580, Note_on_c, 0, 81, 78
1, 295581, Note_on_c, 0, 78, 61
1, 295585, Note_off_c, 0, 70, 71
1, 295586, Note_on_c, 0, 59, 68
1, 295588, Note_off_c, 0, 75, 72
1, 295598, Note_off_c, 0, 68, 65
1, 295598, Note_off_c, 0, 81, 72
1, 295607, Note_off_c, 0, 78, 66
1, 295613, Note_off_c, 0, 59, 66
1, 295618, Note_off_c, 0, 63, 62
1, 295642, Poly_aftertouch_c, 0, 65, 127
1, 295659, Control_c, 0, 64, 99
1, 295669, Poly_aftertouch_c, 0, 65, 0
1, 295674, Control_c, 0, 64, 81
1, 295689, Control_c, 0, 64, 67
1, 295701, Note_on_c, 0, 96, 101
1, 295705, Control_c, 0, 64, 50
1, 295707, Note_on_c, 0, 91, 88
1, 295711, Note_on_c, 0, 89, 92
1, 295719, Note_on_c, 0, 33, 69
1, 295719, Control_c, 0, 64, 39
1, 295723, Note_on_c, 0, 31, 75
1, 295730, Note_off_c, 0, 89, 65
1, 295734, Control_c, 0, 64, 51
1, 295738, Note_off_c, 0, 91, 67
1, 295744, Note_off_c, 0, 96, 65
1, 295749, Control_c, 0, 64, 61
1, 295754, Note_off_c, 0, 31, 64
1, 295764, Control_c, 0, 64, 62
1, 295792, Note_on_c, 0, 35, 38
1, 295807, Note_on_c, 0, 91, 100
1, 295809, Note_on_c, 0, 96, 97
1, 295813, Note_on_c, 0, 39, 69
1, 295827, Note_off_c, 0, 33, 58
1, 295831, Note_off_c, 0, 35, 65
1, 295854, Note_off_c, 0, 39, 61
1, 295856, Note_off_c, 0, 96, 65
1, 295857, Note_off_c, 0, 91, 63
1, 295881, Note_on_c, 0, 45, 41
1, 295891, Note_on_c, 0, 47, 20
1, 295898, Control_c, 0, 64, 62
1, 295920, Note_on_c, 0, 88, 93
1, 295921, Note_on_c, 0, 93, 101
1, 295928, Control_c, 0, 64, 62
1, 295930, Note_off_c, 0, 45, 46
1, 295932, Note_on_c, 0, 38, 61
1, 295936, Note_off_c, 0, 47, 55
1, 295944, Note_on_c, 0, 40, 65
1, 295963, Note_off_c, 0, 88, 65
1, 295965, Note_off_c, 0, 93, 67
1, 295969, Note_on_c, 0, 44, 43
1, 295972, Control_c, 0, 64, 63
1, 295987, Control_c, 0, 64, 63
1, 295998, Note_off_c, 0, 38, 39
1, 296003, Note_off_c, 0, 44, 54
1, 296015, Note_on_c, 0, 42, 79
1, 296016, Note_on_c, 0, 92, 99
1, 296016, Control_c, 0, 64, 64
1, 296024, Note_on_c, 0, 45, 38
1, 296036, Note_on_c, 0, 46, 68
1, 296041, Note_on_c, 0, 88, 46
1, 296046, Control_c, 0, 64, 64
1, 296065, Note_off_c, 0, 88, 58
1, 296069, Note_off_c, 0, 40, 37
1, 296078, Note_off_c, 0, 92, 65
1, 296090, Control_c, 0, 64, 65
1, 296100, Note_on_c, 0, 50, 81
1, 296105, Note_off_c, 0, 45, 32
1, 296116, Note_on_c, 0, 92, 85
1, 296126, Note_off_c, 0, 42, 63
1, 296127, Note_on_c, 0, 96, 97
1, 296128, Control_c, 0, 64, 65
1, 296131, Note_off_c, 0, 46, 58
1, 296141, Note_off_c, 0, 50, 66
1, 296157, Control_c, 0, 64, 66
1, 296158, Note_off_c, 0, 92, 67
1, 296164, Note_off_c, 0, 96, 66
1, 296172, Control_c, 0, 64, 66
1, 296187, Control_c, 0, 64, 67
1, 296194, Note_on_c, 0, 86, 74
1, 296202, Control_c, 0, 64, 68
1, 296203, Note_on_c, 0, 84, 58
1, 296212, Note_on_c, 0, 92, 97
1, 296216, Control_c, 0, 64, 69
1, 296220, Note_on_c, 0, 94, 90
1, 296220, Note_on_c, 0, 97, 96
1, 296221, Note_off_c, 0, 84, 62
1, 296223, Note_on_c, 0, 99, 97
1, 296224, Note_on_c, 0, 93, 91
1, 296227, Note_off_c, 0, 86, 67
1, 296231, Control_c, 0, 64, 70
1, 296236, Note_off_c, 0, 94, 71
1, 296240, Note_off_c, 0, 93, 73
1, 296246, Control_c, 0, 64, 72
1, 296251, Note_off_c, 0, 92, 61
1, 296256, Note_off_c, 0, 99, 65
1, 296261, Control_c, 0, 64, 73
1, 296264, Note_off_c, 0, 97, 63
1, 296276, Control_c, 0, 64, 74
1, 296290, Control_c, 0, 64, 75
1, 296305, Control_c, 0, 64, 76
1, 296335, Control_c, 0, 64, 76
1, 296349, Control_c, 0, 64, 77
1, 296379, Control_c, 0, 64, 75
1, 296394, Control_c, 0, 64, 69
1, 296409, Control_c, 0, 64, 37
1, 296412, Note_on_c, 0, 78, 94
1, 296413, Note_on_c, 0, 75, 98
1, 296416, Note_on_c, 0, 81, 88
1, 296424, Note_on_c, 0, 70, 101
1, 296424, Control_c, 0, 64, 0
1, 296427, Note_on_c, 0, 68, 93
1, 296428, Note_on_c, 0, 62, 80
1, 296430, Note_on_c, 0, 59, 84
1, 296432, Note_on_c, 0, 65, 82
1, 296453, Control_c, 0, 64, 57
1, 296468, Control_c, 0, 64, 73
1, 296483, Control_c, 0, 64, 90
1, 296497, Note_off_c, 0, 59, 57
1, 296498, Control_c, 0, 64, 127
1, 296508, Note_off_c, 0, 65, 65
1, 296509, Note_off_c, 0, 62, 62
1, 296509, Note_off_c, 0, 75, 54
1, 296513, Note_off_c, 0, 68, 62
1, 296514, Note_off_c, 0, 81, 62
1, 296516, Note_off_c, 0, 78, 60
1, 296522, Note_off_c, 0, 70, 58
1, 296647, Control_c, 0, 64, 126
1, 296662, Control_c, 0, 64, 89
1, 296677, Control_c, 0, 64, 69
1, 296685, Note_on_c, 0, 78, 98
1, 296689, Note_on_c, 0, 73, 91
1, 296692, Control_c, 0, 64, 63
1, 296695, Note_on_c, 0, 70, 93
1, 296698, Note_on_c, 0, 66, 84
1, 296700, Note_on_c, 0, 61, 83
1, 296701, Note_on_c, 0, 63, 80
1, 296704, Note_on_c, 0, 58, 84
1, 296707, Control_c, 0, 64, 68
1, 296709, Note_off_c, 0, 73, 68
1, 296714, Note_off_c, 0, 70, 71
1, 296721, Control_c, 0, 64, 83
1, 296731, Note_off_c, 0, 78, 68
1, 296731, Note_off_c, 0, 66, 64
1, 296736, Control_c, 0, 64, 113
1, 296744, Note_off_c, 0, 63, 64
1, 296746, Note_off_c, 0, 61, 65
1, 296750, Note_off_c, 0, 58, 66
1, 296751, Control_c, 0, 64, 127
1, 296936, Control_c, 0, 64, 107
1, 296936, Control_c, 0, 67, 9
1, 296951, Control_c, 0, 64, 85
1, 296951, Control_c, 0, 67, 14
1, 296962, Note_on_c, 0, 90, 78
1, 296963, Note_on_c, 0, 85, 82
1, 296965, Control_c, 0, 64, 69
1, 296965, Control_c, 0, 67, 19
1, 296977, Note_on_c, 0, 31, 72
1, 296980, Control_c, 0, 64, 48
1, 296980, Control_c, 0, 67, 27
1, 296995, Control_c, 0, 64, 32
1, 296995, Control_c, 0, 67, 34
1, 296996, Note_on_c, 0, 33, 45
1, 297010, Control_c, 0, 64, 44
1, 297010, Control_c, 0, 67, 41
1, 297015, Note_on_c, 0, 39, 52
1, 297023, Note_off_c, 0, 85, 64
1, 297025, Control_c, 0, 64, 56
1, 297025, Control_c, 0, 67, 46
1, 297038, Note_off_c, 0, 90, 60
1, 297039, Control_c, 0, 64, 58
1, 297039, Control_c, 0, 67, 51
1, 297042, Note_off_c, 0, 31, 56
1, 297054, Control_c, 0, 67, 53
1, 297065, Note_on_c, 0, 86, 77
1, 297069, Control_c, 0, 67, 56
1, 297070, Note_on_c, 0, 91, 77
1, 297077, Note_on_c, 0, 45, 71
1, 297078, Note_off_c, 0, 39, 60
1, 297080, Note_off_c, 0, 33, 39
1, 297084, Control_c, 0, 67, 59
1, 297085, Note_on_c, 0, 43, 39
1, 297090, Note_off_c, 0, 86, 67
1, 297094, Note_off_c, 0, 91, 66
1, 297098, Control_c, 0, 67, 62
1, 297102, Note_off_c, 0, 45, 67
1, 297113, Control_c, 0, 67, 66
1, 297118, Note_off_c, 0, 43, 49
1, 297128, Control_c, 0, 67, 69
1, 297143, Control_c, 0, 67, 72
1, 297158, Control_c, 0, 67, 74
1, 297172, Control_c, 0, 67, 75
1, 297174, Note_on_c, 0, 40, 74
1, 297176, Note_on_c, 0, 45, 66
1, 297177, Note_on_c, 0, 87, 76
1, 297178, Note_on_c, 0, 92, 73
1, 297187, Control_c, 0, 67, 76
1, 297202, Note_off_c, 0, 87, 66
1, 297202, Control_c, 0, 67, 76
1, 297205, Note_off_c, 0, 92, 65
1, 297210, Note_off_c, 0, 40, 66
1, 297217, Control_c, 0, 67, 77
1, 297221, Note_off_c, 0, 45, 64
1, 297232, Control_c, 0, 64, 59
1, 297232, Control_c, 0, 67, 78
1, 297246, Control_c, 0, 67, 80
1, 297261, Control_c, 0, 64, 59
1, 297281, Note_on_c, 0, 46, 66
1, 297281, Note_on_c, 0, 87, 78
1, 297282, Note_on_c, 0, 42, 63
1, 297286, Note_on_c, 0, 92, 76
1, 297327, Note_off_c, 0, 46, 59
1, 297333, Note_off_c, 0, 42, 59
1, 297336, Control_c, 0, 64, 60
1, 297340, Note_off_c, 0, 92, 62
1, 297342, Note_off_c, 0, 87, 64
1, 297351, Control_c, 0, 64, 60
1, 297382, Note_on_c, 0, 50, 71
1, 297391, Note_on_c, 0, 91, 81
1, 297392, Note_on_c, 0, 45, 69
1, 297393, Note_on_c, 0, 86, 72
1, 297410, Control_c, 0, 67, 79
1, 297417, Note_off_c, 0, 86, 69
1, 297422, Note_off_c, 0, 91, 62
1, 297425, Control_c, 0, 67, 78
1, 297434, Note_off_c, 0, 45, 63
1, 297448, Note_off_c, 0, 50, 63
1, 297455, Control_c, 0, 67, 78
1, 297492, Note_on_c, 0, 46, 72
1, 297493, Note_on_c, 0, 88, 89
1, 297497, Note_on_c, 0, 42, 64
1, 297500, Note_on_c, 0, 93, 86
1, 297515, Control_c, 0, 67, 77
1, 297519, Note_off_c, 0, 88, 65
1, 297521, Note_off_c, 0, 93, 67
1, 297529, Control_c, 0, 64, 61
1, 297542, Note_off_c, 0, 42, 62
1, 297553, Note_off_c, 0, 46, 61
1, 297559, Control_c, 0, 64, 61
1, 297559, Control_c, 0, 67, 77
1, 297592, Note_on_c, 0, 45, 77
1, 297595, Note_on_c, 0, 40, 76
1, 297595, Note_on_c, 0, 91, 101
1, 297596, Note_on_c, 0, 96, 100
1, 297623, Note_off_c, 0, 45, 67
1, 297634, Note_off_c, 0, 40, 68
1, 297640, Control_c, 0, 64, 62
1, 297646, Note_off_c, 0, 96, 62
1, 297648, Note_off_c, 0, 91, 67
1, 297670, Control_c, 0, 67, 76
1, 297709, Note_on_c, 0, 93, 95
1, 297711, Note_on_c, 0, 88, 82
1, 297714, Note_on_c, 0, 43, 64
1, 297715, Note_on_c, 0, 39, 80
1, 297743, Note_off_c, 0, 88, 61
1, 297748, Note_off_c, 0, 43, 65
1, 297748, Note_off_c, 0, 93, 67
1, 297759, Control_c, 0, 67, 76
1, 297762, Note_off_c, 0, 39, 58
1, 297774, Control_c, 0, 67, 75
1, 297789, Control_c, 0, 64, 61
1, 297789, Control_c, 0, 67, 74
1, 297812, Note_on_c, 0, 31, 74
1, 297813, Note_on_c, 0, 33, 75
1, 297816, Note_on_c, 0, 96, 101
1, 297816, Note_on_c, 0, 91, 98
1, 297819, Control_c, 0, 67, 74
1, 297834, Control_c, 0, 67, 73
1, 297857, Note_off_c, 0, 96, 67
1, 297858, Note_off_c, 0, 91, 67
1, 297863, Control_c, 0, 67, 73
1, 297878, Control_c, 0, 67, 72
1, 297890, Note_off_c, 0, 31, 39
1, 297893, Control_c, 0, 67, 72
1, 297908, Control_c, 0, 67, 71
1, 297909, Note_off_c, 0, 33, 59
1, 297914, Note_on_c, 0, 39, 51
1, 297918, Note_on_c, 0, 45, 77
1, 297922, Note_on_c, 0, 96, 105
1, 297922, Control_c, 0, 67, 71
1, 297923, Note_on_c, 0, 91, 94
1, 297937, Control_c, 0, 67, 70
1, 297945, Note_off_c, 0, 39, 54
1, 297948, Note_off_c, 0, 45, 68
1, 297963, Note_off_c, 0, 96, 67
1, 297965, Note_off_c, 0, 91, 66
1, 297995, Control_c, 0, 67, 70
1, 298017, Note_on_c, 0, 40, 78
1, 298030, Note_on_c, 0, 45, 72
1, 298030, Note_on_c, 0, 91, 102
1, 298030, Note_on_c, 0, 96, 106
1, 298071, Note_off_c, 0, 96, 67
1, 298073, Note_off_c, 0, 91, 67
1, 298084, Control_c, 0, 67, 70
1, 298088, Note_off_c, 0, 40, 58
1, 298093, Note_off_c, 0, 45, 61
1, 298114, Control_c, 0, 64, 62
1, 298126, Note_on_c, 0, 46, 83
1, 298130, Note_on_c, 0, 42, 76
1, 298130, Note_on_c, 0, 91, 97
1, 298133, Note_on_c, 0, 96, 100
1, 298144, Control_c, 0, 64, 62
1, 298173, Control_c, 0, 67, 71
1, 298180, Note_off_c, 0, 96, 61
1, 298188, Note_off_c, 0, 91, 66
1, 298206, Note_off_c, 0, 46, 59
1, 298218, Control_c, 0, 67, 71
1, 298226, Note_on_c, 0, 45, 80
1, 298227, Note_off_c, 0, 42, 57
1, 298233, Control_c, 0, 67, 72
1, 298235, Note_on_c, 0, 50, 71
1, 298237, Note_on_c, 0, 97, 96
1, 298239, Note_on_c, 0, 92, 92
1, 298293, Control_c, 0, 64, 61
1, 298296, Note_off_c, 0, 92, 65
1, 298296, Note_off_c, 0, 97, 68
1, 298299, Note_off_c, 0, 45, 64
1, 298308, Control_c, 0, 64, 56
1, 298320, Note_off_c, 0, 50, 62
1, 298335, Note_on_c, 0, 42, 84
1, 298337, Control_c, 0, 64, 62
1, 298340, Note_on_c, 0, 91, 97
1, 298342, Note_on_c, 0, 46, 81
1, 298344, Note_on_c, 0, 96, 94
1, 298359, Control_c, 0, 64, 65
1, 298374, Control_c, 0, 64, 70
1, 298382, Note_off_c, 0, 46, 66
1, 298387, Note_off_c, 0, 42, 62
1, 298387, Note_off_c, 0, 91, 69
1, 298388, Note_off_c, 0, 96, 67
1, 298389, Control_c, 0, 64, 75
1, 298389, Control_c, 0, 67, 71
1, 298404, Control_c, 0, 64, 82
1, 298404, Control_c, 0, 67, 71
1, 298418, Control_c, 0, 64, 85
1, 298433, Control_c, 0, 67, 70
1, 298463, Control_c, 0, 64, 83
1, 298463, Control_c, 0, 67, 70
1, 298478, Control_c, 0, 64, 76
1, 298478, Control_c, 0, 67, 69
1, 298491, Note_on_c, 0, 79, 95
1, 298492, Control_c, 0, 64, 67
1, 298492, Control_c, 0, 67, 69
1, 298495, Note_on_c, 0, 81, 92
1, 298505, Note_on_c, 0, 74, 72
1, 298507, Note_on_c, 0, 83, 83
1, 298507, Control_c, 0, 64, 54
1, 298509, Note_on_c, 0, 84, 74
1, 298511, Note_on_c, 0, 66, 73
1, 298518, Note_on_c, 0, 70, 59
1, 298520, Note_on_c, 0, 63, 51
1, 298522, Control_c, 0, 64, 59
1, 298528, Note_off_c, 0, 79, 67
1, 298528, Note_off_c, 0, 74, 71
1, 298530, Note_off_c, 0, 84, 66
1, 298537, Control_c, 0, 64, 66
1, 298537, Note_off_c, 0, 81, 67
1, 298539, Note_off_c, 0, 66, 64
1, 298541, Note_off_c, 0, 83, 65
1, 298545, Note_off_c, 0, 70, 66
1, 298546, Note_off_c, 0, 63, 59
1, 298552, Control_c, 0, 64, 74
1, 298552, Control_c, 0, 67, 69
1, 298567, Control_c, 0, 64, 85
1, 298567, Control_c, 0, 67, 70
1, 298582, Control_c, 0, 64, 102
1, 298582, Control_c, 0, 67, 70
1, 298585, Note_on_c, 0, 66, 77
1, 298585, Note_on_c, 0, 75, 92
1, 298586, Note_on_c, 0, 82, 106
1, 298588, Note_on_c, 0, 70, 89
1, 298588, Note_on_c, 0, 78, 99
1, 298589, Note_on_c, 0, 87, 95
1, 298594, Note_on_c, 0, 90, 100
1, 298597, Control_c, 0, 64, 127
1, 298597, Control_c, 0, 67, 71
1, 298602, Note_off_c, 0, 75, 75
1, 298609, Note_off_c, 0, 70, 68
1, 298610, Note_on_c, 0, 61, 69
1, 298611, Control_c, 0, 67, 72
1, 298612, Note_off_c, 0, 90, 68
1, 298613, Note_off_c, 0, 78, 57
1, 298627, Note_on_c, 0, 63, 46
1, 298628, Note_off_c, 0, 82, 64
1, 298631, Note_off_c, 0, 66, 64
1, 298638, Note_off_c, 0, 61, 66
1, 298641, Control_c, 0, 67, 72
1, 298646, Note_off_c, 0, 87, 66
1, 298653, Note_on_c, 0, 89, 35
1, 298659, Note_off_c, 0, 63, 54
1, 298686, Note_off_c, 0, 89, 51
1, 298716, Control_c, 0, 67, 73
1, 298745, Control_c, 0, 64, 120
1, 298760, Control_c, 0, 64, 89
1, 298775, Control_c, 0, 64, 70
1, 298775, Control_c, 0, 67, 73
1, 298790, Control_c, 0, 64, 0
1, 298806, Note_on_c, 0, 86, 77
1, 298810, Note_on_c, 0, 91, 81
1, 298812, Note_on_c, 0, 31, 68
1, 298822, Note_on_c, 0, 33, 59
1, 298844, Note_off_c, 0, 86, 64
1, 298849, Control_c, 0, 64, 14
1, 298849, Control_c, 0, 67, 74
1, 298850, Note_off_c, 0, 91, 64
1, 298864, Control_c, 0, 64, 21
1, 298869, Note_off_c, 0, 31, 56
1, 298879, Control_c, 0, 67, 74
1, 298893, Note_on_c, 0, 39, 43
1, 298893, Control_c, 0, 64, 23
1, 298895, Note_off_c, 0, 33, 56
1, 298908, Control_c, 0, 64, 26
1, 298910, Note_on_c, 0, 45, 74
1, 298911, Note_on_c, 0, 87, 68
1, 298916, Note_on_c, 0, 92, 72
1, 298923, Control_c, 0, 64, 28
1, 298927, Note_off_c, 0, 39, 59
1, 298929, Note_off_c, 0, 87, 69
1, 298937, Note_off_c, 0, 92, 70
1, 298937, Control_c, 0, 64, 32
1, 298940, Note_off_c, 0, 45, 67
1, 298952, Control_c, 0, 64, 37
1, 298967, Control_c, 0, 64, 43
1, 298982, Control_c, 0, 64, 46
1, 298997, Control_c, 0, 64, 47
1, 299014, Note_on_c, 0, 96, 89
1, 299016, Note_on_c, 0, 40, 73
1, 299023, Note_on_c, 0, 91, 82
1, 299027, Note_on_c, 0, 45, 61
1, 299050, Note_off_c, 0, 91, 63
1, 299058, Note_off_c, 0, 40, 64
1, 299058, Note_off_c, 0, 96, 65
1, 299071, Note_off_c, 0, 45, 61
1, 299072, Control_c, 0, 64, 47
1, 299087, Control_c, 0, 64, 48
1, 299102, Control_c, 0, 64, 49
1, 299126, Note_on_c, 0, 46, 70
1, 299131, Note_on_c, 0, 88, 77
1, 299139, Note_on_c, 0, 42, 57
1, 299139, Control_c, 0, 64, 49
1, 299139, Note_on_c, 0, 93, 73
1, 299154, Control_c, 0, 64, 50
1, 299157, Note_off_c, 0, 88, 65
1, 299161, Note_off_c, 0, 93, 68
1, 299168, Control_c, 0, 64, 51
1, 299176, Note_off_c, 0, 46, 59
1, 299178, Note_off_c, 0, 42, 61
1, 299198, Control_c, 0, 64, 51
1, 299198, Control_c, 0, 67, 74
1, 299213, Control_c, 0, 64, 52
1, 299227, Note_on_c, 0, 50, 68
1, 299228, Control_c, 0, 64, 53
1, 299239, Note_on_c, 0, 45, 69
1, 299242, Control_c, 0, 64, 54
1, 299243, Note_on_c, 0, 91, 90
1, 299243, Note_on_c, 0, 96, 94
1, 299257, Control_c, 0, 64, 54
1, 299277, Note_off_c, 0, 91, 65
1, 299279, Note_off_c, 0, 96, 67
1, 299283, Note_off_c, 0, 45, 60
1, 299287, Control_c, 0, 64, 55
1, 299287, Control_c, 0, 67, 73
1, 299296, Note_off_c, 0, 50, 60
1, 299339, Note_on_c, 0, 97, 104
1, 299340, Note_on_c, 0, 92, 101
1, 299342, Note_on_c, 0, 46, 76
1, 299347, Note_on_c, 0, 42, 69
1, 299375, Control_c, 0, 67, 73
1, 299385, Note_off_c, 0, 92, 68
1, 299390, Control_c, 0, 64, 55
1, 299390, Control_c, 0, 67, 72
1, 299392, Note_off_c, 0, 97, 69
1, 299402, Note_off_c, 0, 42, 60
1, 299405, Control_c, 0, 64, 56
1, 299410, Note_off_c, 0, 46, 61
1, 299420, Control_c, 0, 64, 56
1, 299420, Control_c, 0, 67, 72
1, 299441, Note_on_c, 0, 98, 107
1, 299447, Note_on_c, 0, 45, 74
1, 299447, Note_on_c, 0, 93, 102
1, 299448, Note_on_c, 0, 40, 76
1, 299449, Control_c, 0, 67, 72
1, 299476, Note_off_c, 0, 45, 68
1, 299484, Note_off_c, 0, 40, 66
1, 299489, Note_off_c, 0, 93, 67
1, 299493, Note_off_c, 0, 98, 65
1, 299560, Note_on_c, 0, 91, 92
1, 299563, Note_on_c, 0, 96, 89
1, 299569, Note_on_c, 0, 39, 78
1, 299569, Note_on_c, 0, 43, 59
1, 299597, Note_off_c, 0, 91, 65
1, 299598, Note_off_c, 0, 43, 56
1, 299602, Note_off_c, 0, 96, 66
1, 299627, Note_off_c, 0, 39, 58
1, 299642, Control_c, 0, 67, 73
1, 299661, Note_on_c, 0, 92, 96
1, 299661, Note_on_c, 0, 97, 98
1, 299663, Note_on_c, 0, 33, 74
1, 299665, Note_on_c, 0, 31, 75
1, 299715, Note_off_c, 0, 92, 66
1, 299716, Control_c, 0, 64, 55
1, 299719, Note_off_c, 0, 97, 65
1, 299731, Control_c, 0, 64, 53
1, 299746, Control_c, 0, 64, 51
1, 299746, Control_c, 0, 67, 72
1, 299749, Note_off_c, 0, 31, 58
1, 299759, Note_on_c, 0, 93, 101
1, 299760, Control_c, 0, 64, 50
1, 299761, Note_on_c, 0, 98, 98
1, 299763, Note_on_c, 0, 39, 57
1, 299764, Note_off_c, 0, 33, 59
1, 299770, Note_on_c, 0, 45, 85
1, 299775, Control_c, 0, 64, 49
1, 299790, Control_c, 0, 64, 48
1, 299796, Note_off_c, 0, 39, 60
1, 299805, Control_c, 0, 67, 71
1, 299810, Note_off_c, 0, 93, 67
1, 299810, Note_off_c, 0, 98, 68
1, 299819, Note_off_c, 0, 45, 64
1, 299820, Control_c, 0, 64, 49
1, 299820, Control_c, 0, 67, 70
1, 299836, Control_c, 0, 64, 56
1, 299836, Control_c, 0, 67, 70
1, 299851, Control_c, 0, 64, 63
1, 299851, Control_c, 0, 67, 69
1, 299872, Note_on_c, 0, 41, 87
1, 299873, Control_c, 0, 64, 68
1, 299873, Control_c, 0, 67, 68
1, 299873, Note_on_c, 0, 91, 98
1, 299875, Note_on_c, 0, 96, 99
1, 299887, Control_c, 0, 64, 74
1, 299887, Control_c, 0, 67, 67
1, 299890, Note_on_c, 0, 45, 59
1, 299899, Note_off_c, 0, 41, 66
1, 299902, Control_c, 0, 64, 81
1, 299902, Control_c, 0, 67, 64
1, 299905, Note_off_c, 0, 91, 69
1, 299905, Note_off_c, 0, 96, 69
1, 299909, Note_on_c, 0, 47, 42
1, 299909, Note_off_c, 0, 45, 65
1, 299917, Control_c, 0, 64, 87
1, 299917, Control_c, 0, 67, 56
1, 299932, Control_c, 0, 64, 91
1, 299932, Control_c, 0, 67, 45
1, 299942, Note_off_c, 0, 47, 56
1, 299947, Control_c, 0, 64, 91
1, 299947, Control_c, 0, 67, 31
1, 299962, Control_c, 0, 67, 18
1, 299977, Control_c, 0, 64, 92
1, 299977, Control_c, 0, 67, 11
1, 299991, Control_c, 0, 67, 8
1, 300019, Note_on_c, 0, 79, 86
1, 300021, Control_c, 0, 64, 89
1, 300028, Note_on_c, 0, 74, 82
1, 300032, Note_on_c, 0, 82, 64
1, 300033, Note_on_c, 0, 81, 90
1, 300033, Note_on_c, 0, 84, 89
1, 300036, Control_c, 0, 64, 83
1, 300036, Note_on_c, 0, 66, 71
1, 300037, Note_on_c, 0, 70, 76
1, 300047, Note_off_c, 0, 74, 73
1, 300050, Note_on_c, 0, 63, 41
1, 300051, Control_c, 0, 64, 75
1, 300051, Control_c, 0, 67, 9
1, 300052, Note_off_c, 0, 82, 58
1, 300058, Note_off_c, 0, 79, 65
1, 300059, Note_off_c, 0, 70, 69
1, 300061, Note_off_c, 0, 66, 67
1, 300065, Control_c, 0, 64, 71
1, 300065, Control_c, 0, 67, 9
1, 300067, Note_off_c, 0, 81, 64
1, 300071, Note_off_c, 0, 84, 67
1, 300080, Note_off_c, 0, 63, 55
1, 300080, Control_c, 0, 64, 73
1, 300080, Control_c, 0, 67, 10
1, 300095, Control_c, 0, 64, 81
1, 300095, Control_c, 0, 67, 11
1, 300109, Control_c, 0, 64, 94
1, 300109, Control_c, 0, 67, 12
1, 300110, Note_on_c, 0, 78, 103
1, 300111, Note_on_c, 0, 70, 88
1, 300112, Note_on_c, 0, 82, 95
1, 300115, Note_on_c, 0, 75, 89
1, 300117, Note_on_c, 0, 87, 89
1, 300117, Note_on_c, 0, 66, 87
1, 300119, Note_on_c, 0, 90, 90
1, 300124, Control_c, 0, 64, 127
1, 300124, Control_c, 0, 67, 13
1, 300130, Note_off_c, 0, 78, 67
1, 300132, Note_off_c, 0, 75, 73
1, 300133, Note_on_c, 0, 63, 67
1, 300135, Note_on_c, 0, 61, 72
1, 300139, Control_c, 0, 67, 14
1, 300141, Note_off_c, 0, 70, 60
1, 300152, Note_on_c, 0, 89, 75
1, 300154, Control_c, 0, 67, 16
1, 300159, Note_off_c, 0, 82, 68
1, 300160, Note_off_c, 0, 66, 66
1, 300162, Note_off_c, 0, 63, 65
1, 300162, Note_off_c, 0, 90, 62
1, 300163, Note_off_c, 0, 61, 66
1, 300174, Note_off_c, 0, 89, 68
1, 300176, Note_off_c, 0, 87, 66
1, 300183, Control_c, 0, 67, 16
1, 300213, Control_c, 0, 67, 17
1, 300243, Control_c, 0, 67, 18
1, 300257, Control_c, 0, 67, 18
1, 300272, Control_c, 0, 64, 119
1, 300272, Control_c, 0, 67, 19
1, 300287, Control_c, 0, 64, 87
1, 300287, Control_c, 0, 67, 20
1, 300302, Control_c, 0, 64, 64
1, 300302, Control_c, 0, 67, 21
1, 300317, Control_c, 0, 64, 0
1, 300317, Control_c, 0, 67, 21
1, 300327, Note_on_c, 0, 92, 81
1, 300334, Note_on_c, 0, 97, 83
1, 300339, Note_on_c, 0, 31, 72
1, 300348, Note_on_c, 0, 33, 64
1, 300361, Control_c, 0, 64, 21
1, 300376, Control_c, 0, 64, 50
1, 300376, Note_off_c, 0, 92, 64
1, 300380, Note_off_c, 0, 31, 61
1, 300380, Note_off_c, 0, 97, 64
1, 300391, Control_c, 0, 64, 54
1, 300408, Note_off_c, 0, 33, 55
1, 300436, Control_c, 0, 64, 54
1, 300436, Note_on_c, 0, 39, 40
1, 300436, Note_on_c, 0, 45, 75
1, 300436, Note_on_c, 0, 91, 77
1, 300436, Note_on_c, 0, 96, 83
1, 300467, Note_off_c, 0, 45, 67
1, 300472, Note_off_c, 0, 39, 49
1, 300472, Note_off_c, 0, 91, 65
1, 300479, Note_off_c, 0, 96, 65
1, 300509, Control_c, 0, 64, 55
1, 300524, Control_c, 0, 64, 56
1, 300524, Control_c, 0, 67, 22
1, 300536, Note_on_c, 0, 40, 71
1, 300539, Control_c, 0, 64, 57
1, 300542, Note_on_c, 0, 92, 78
1, 300547, Note_on_c, 0, 97, 79
1, 300549, Note_on_c, 0, 45, 59
1, 300569, Control_c, 0, 64, 57
1, 300577, Note_off_c, 0, 40, 63
1, 300582, Note_off_c, 0, 45, 65
1, 300589, Note_off_c, 0, 92, 62
1, 300609, Note_off_c, 0, 97, 64
1, 300621, Control_c, 0, 64, 58
1, 300636, Control_c, 0, 64, 58
1, 300651, Control_c, 0, 64, 59
1, 300652, Note_on_c, 0, 42, 66
1, 300655, Note_on_c, 0, 46, 68
1, 300655, Note_on_c, 0, 93, 80
1, 300657, Note_on_c, 0, 98, 77
1, 300686, Note_off_c, 0, 98, 67
1, 300689, Note_off_c, 0, 93, 61
1, 300696, Note_off_c, 0, 46, 61
1, 300698, Note_off_c, 0, 42, 61
1, 300748, Note_on_c, 0, 97, 83
1, 300752, Note_on_c, 0, 92, 78
1, 300758, Note_on_c, 0, 50, 66
1, 300761, Note_on_c, 0, 45, 74
1, 300794, Note_off_c, 0, 92, 60
1, 300800, Control_c, 0, 64, 59
1, 300801, Note_off_c, 0, 97, 66
1, 300804, Note_off_c, 0, 45, 62
1, 300812, Note_off_c, 0, 50, 58
1, 300829, Control_c, 0, 67, 21
1, 300859, Note_on_c, 0, 93, 107
1, 300859, Control_c, 0, 67, 21
1, 300862, Note_on_c, 0, 46, 75
1, 300862, Note_on_c, 0, 42, 77
1, 300864, Note_on_c, 0, 88, 90
1, 300903, Control_c, 0, 64, 60
1, 300903, Control_c, 0, 67, 20
1, 300904, Note_off_c, 0, 93, 67
1, 300907, Note_off_c, 0, 88, 64
1, 300918, Control_c, 0, 64, 60
1, 300924, Note_off_c, 0, 42, 62
1, 300927, Note_off_c, 0, 46, 62
1, 300932, Control_c, 0, 64, 61
1, 300947, Control_c, 0, 64, 61
1, 300962, Control_c, 0, 64, 62
1, 300963, Note_on_c, 0, 45, 81
1, 300966, Note_on_c, 0, 40, 81
1, 300966, Note_on_c, 0, 96, 100
1, 300972, Note_on_c, 0, 91, 96
1, 300977, Control_c, 0, 64, 63
1, 300989, Note_off_c, 0, 45, 67
1, 300992, Control_c, 0, 64, 63
1, 300999, Note_off_c, 0, 91, 65
1, 301001, Note_off_c, 0, 96, 68
1, 301006, Control_c, 0, 64, 64
1, 301007, Note_off_c, 0, 40, 64
1, 301021, Control_c, 0, 64, 64
1, 301066, Control_c, 0, 67, 21
1, 301071, Note_on_c, 0, 92, 95
1, 301078, Note_on_c, 0, 87, 86
1, 301078, Note_on_c, 0, 39, 82
1, 301117, Note_on_c, 0, 43, 15
1, 301122, Note_off_c, 0, 92, 64
1, 301125, Control_c, 0, 64, 64
1, 301127, Note_off_c, 0, 87, 65
1, 301137, Note_off_c, 0, 39, 59
1, 301139, Control_c, 0, 67, 20
1, 301162, Note_off_c, 0, 43, 28
1, 301174, Note_on_c, 0, 91, 99
1, 301178, Note_on_c, 0, 31, 73
1, 301178, Note_on_c, 0, 33, 75
1, 301181, Note_on_c, 0, 86, 86
1, 301184, Control_c, 0, 64, 63
1, 301214, Control_c, 0, 64, 63
1, 301220, Note_off_c, 0, 86, 62
1, 301223, Note_off_c, 0, 91, 66
1, 301229, Control_c, 0, 67, 20
1, 301230, Note_off_c, 0, 31, 55
1, 301244, Control_c, 0, 64, 62
1, 301258, Control_c, 0, 67, 19
1, 301268, Note_off_c, 0, 33, 59
1, 301274, Note_on_c, 0, 39, 55
1, 301278, Note_on_c, 0, 45, 78
1, 301280, Note_on_c, 0, 88, 78
1, 301282, Note_on_c, 0, 93, 92
1, 301303, Note_off_c, 0, 39, 57
1, 301312, Note_off_c, 0, 45, 67
1, 301318, Control_c, 0, 64, 63
1, 301319, Note_off_c, 0, 88, 64
1, 301320, Note_off_c, 0, 93, 67
1, 301386, Note_on_c, 0, 40, 77
1, 301396, Note_on_c, 0, 91, 93
1, 301399, Note_on_c, 0, 98, 89
1, 301404, Note_on_c, 0, 96, 88
1, 301411, Note_on_c, 0, 45, 70
1, 301428, Note_off_c, 0, 96, 61
1, 301429, Control_c, 0, 64, 63
1, 301432, Note_off_c, 0, 98, 68
1, 301435, Note_off_c, 0, 91, 66
1, 301444, Note_off_c, 0, 45, 65
1, 301446, Note_off_c, 0, 40, 59
1, 301501, Note_on_c, 0, 42, 75
1, 301502, Note_on_c, 0, 46, 79
1, 301504, Note_on_c, 0, 93, 101
1, 301505, Note_on_c, 0, 98, 108
1, 301533, Control_c, 0, 67, 19
1, 301540, Note_off_c, 0, 93, 68
1, 301542, Note_off_c, 0, 98, 70
1, 301555, Note_off_c, 0, 46, 60
1, 301561, Note_off_c, 0, 42, 62
1, 301601, Note_on_c, 0, 50, 83
1, 301606, Note_on_c, 0, 45, 88
1, 301607, Note_on_c, 0, 97, 108
1, 301607, Control_c, 0, 64, 64
1, 301607, Control_c, 0, 67, 19
1, 301610, Note_on_c, 0, 92, 105
1, 301622, Control_c, 0, 67, 20
1, 301637, Control_c, 0, 64, 64
1, 301667, Control_c, 0, 67, 20
1, 301675, Note_off_c, 0, 45, 62
1, 301700, Note_off_c, 0, 50, 53
1, 301717, Note_on_c, 0, 46, 82
1, 301718, Note_on_c, 0, 42, 77
1, 301742, Control_c, 0, 67, 20
1, 301756, Control_c, 0, 64, 64
1, 301771, Control_c, 0, 67, 19
1, 301774, Note_off_c, 0, 42, 62
1, 301786, Control_c, 0, 64, 63
1, 301787, Note_off_c, 0, 46, 63
1, 301801, Control_c, 0, 64, 62
1, 301801, Control_c, 0, 67, 19
1, 301804, Note_off_c, 0, 97, 62
1, 301814, Note_on_c, 0, 40, 82
1, 301816, Note_off_c, 0, 92, 59
1, 301816, Control_c, 0, 64, 60
1, 301830, Control_c, 0, 64, 55
1, 301836, Note_on_c, 0, 96, 96
1, 301840, Note_on_c, 0, 91, 94
1, 301845, Control_c, 0, 64, 47
1, 301860, Control_c, 0, 64, 26
1, 301861, Note_off_c, 0, 40, 63
1, 301875, Control_c, 0, 64, 0
1, 301885, Note_off_c, 0, 96, 67
1, 301891, Note_off_c, 0, 91, 65
1, 301919, Control_c, 0, 64, 53
1, 301919, Control_c, 0, 67, 19
1, 301920, Note_on_c, 0, 45, 76
1, 301923, Note_on_c, 0, 43, 58
1, 301929, Note_on_c, 0, 39, 74
1, 301932, Note_on_c, 0, 92, 101
1, 301932, Note_on_c, 0, 97, 100
1, 301934, Control_c, 0, 64, 64
1, 301934, Control_c, 0, 67, 20
1, 301949, Control_c, 0, 64, 70
1, 301949, Control_c, 0, 67, 20
1, 301953, Note_off_c, 0, 97, 69
1, 301956, Note_off_c, 0, 43, 65
1, 301959, Note_off_c, 0, 39, 64
1, 301961, Note_on_c, 0, 38, 24
1, 301963, Note_off_c, 0, 45, 64
1, 301963, Control_c, 0, 64, 75
1, 301968, Note_off_c, 0, 92, 64
1, 301978, Control_c, 0, 64, 80
1, 301993, Control_c, 0, 64, 84
1, 302004, Note_off_c, 0, 38, 51
1, 302008, Control_c, 0, 64, 86
1, 302008, Control_c, 0, 67, 20
1, 302023, Control_c, 0, 64, 86
1, 302023, Control_c, 0, 67, 19
1, 302037, Control_c, 0, 67, 18
1, 302052, Control_c, 0, 64, 86
1, 302052, Control_c, 0, 67, 18
1, 302067, Control_c, 0, 64, 82
1, 302067, Control_c, 0, 67, 17
1, 302081, Control_c, 0, 64, 75
1, 302104, Note_on_c, 0, 79, 90
1, 302104, Control_c, 0, 64, 66
1, 302104, Control_c, 0, 67, 16
1, 302107, Note_on_c, 0, 74, 83
1, 302108, Note_on_c, 0, 81, 91
1, 302111, Note_on_c, 0, 66, 72
1, 302113, Note_on_c, 0, 61, 67
1, 302117, Note_on_c, 0, 84, 85
1, 302118, Note_on_c, 0, 70, 70
1, 302119, Control_c, 0, 64, 59
1, 302119, Control_c, 0, 67, 15
1, 302126, Note_off_c, 0, 74, 72
1, 302130, Note_off_c, 0, 79, 66
1, 302132, Note_on_c, 0, 77, 54
1, 302133, Note_off_c, 0, 77, 127
1, 302133, Note_off_c, 0, 61, 64
1, 302134, Control_c, 0, 64, 63
1, 302134, Control_c, 0, 67, 15
1, 302141, Note_off_c, 0, 66, 66
1, 302141, Note_off_c, 0, 70, 68
1, 302144, Note_on_c, 0, 83, 43
1, 302145, Note_off_c, 0, 83, 127
1, 302145, Note_off_c, 0, 81, 67
1, 302149, Note_off_c, 0, 84, 66
1, 302149, Control_c, 0, 64, 67
1, 302153, Note_on_c, 0, 85, 39
1, 302154, Note_off_c, 0, 85, 127
1, 302163, Control_c, 0, 64, 74
1, 302178, Control_c, 0, 64, 83
1, 302185, Note_on_c, 0, 70, 90
1, 302189, Note_on_c, 0, 66, 77
1, 302193, Control_c, 0, 64, 94
1, 302195, Note_on_c, 0, 82, 101
1, 302195, Note_on_c, 0, 90, 103
1, 302197, Note_on_c, 0, 61, 79
1, 302199, Note_on_c, 0, 87, 96
1, 302201, Note_on_c, 0, 80, 86
1, 302208, Control_c, 0, 64, 108
1, 302209, Note_on_c, 0, 74, 57
1, 302211, Note_off_c, 0, 82, 68
1, 302213, Note_on_c, 0, 73, 48
1, 302214, Note_off_c, 0, 80, 72
1, 302219, Poly_aftertouch_c, 0, 63, 127
1, 302223, Control_c, 0, 64, 118
1, 302223, Control_c, 0, 67, 15
1, 302227, Note_off_c, 0, 74, 68
1, 302227, Note_off_c, 0, 70, 61
1, 302234, Note_off_c, 0, 66, 65
1, 302239, Note_off_c, 0, 73, 58
1, 302239, Control_c, 0, 64, 127
1, 302239, Control_c, 0, 67, 16
1, 302243, Note_off_c, 0, 61, 65
1, 302243, Note_off_c, 0, 87, 64
1, 302251, Note_off_c, 0, 90, 67
1, 302253, Control_c, 0, 67, 16
1, 302268, Control_c, 0, 67, 17
1, 302277, Poly_aftertouch_c, 0, 63, 0
1, 302298, Control_c, 0, 67, 17
1, 302312, Control_c, 0, 67, 18
1, 302327, Control_c, 0, 64, 106
1, 302327, Control_c, 0, 67, 18
1, 302342, Control_c, 0, 64, 88
1, 302342, Control_c, 0, 67, 19
1, 302357, Control_c, 0, 64, 71
1, 302372, Control_c, 0, 64, 40
1, 302386, Control_c, 0, 64, 0
1, 302386, Control_c, 0, 67, 19
1, 302406, Note_on_c, 0, 29, 62
1, 302411, Note_on_c, 0, 31, 58
1, 302412, Note_on_c, 0, 92, 82
1, 302418, Note_on_c, 0, 97, 83
1, 302421, Note_on_c, 0, 33, 63
1, 302431, Control_c, 0, 64, 28
1, 302439, Note_off_c, 0, 29, 62
1, 302445, Control_c, 0, 64, 36
1, 302459, Control_c, 0, 64, 37
1, 302466, Note_off_c, 0, 92, 65
1, 302469, Note_off_c, 0, 31, 62
1, 302469, Note_off_c, 0, 33, 57
1, 302474, Note_off_c, 0, 97, 65
1, 302474, Control_c, 0, 64, 38
1, 302489, Control_c, 0, 64, 40
1, 302503, Control_c, 0, 64, 41
1, 302508, Note_on_c, 0, 45, 70
1, 302511, Note_on_c, 0, 96, 89
1, 302514, Note_on_c, 0, 91, 78
1, 302533, Control_c, 0, 64, 42
1, 302536, Note_off_c, 0, 45, 66
1, 302543, Note_off_c, 0, 91, 66
1, 302548, Control_c, 0, 64, 42
1, 302557, Note_off_c, 0, 96, 65
1, 302563, Control_c, 0, 64, 43
1, 302577, Control_c, 0, 64, 44
1, 302592, Control_c, 0, 64, 44
1, 302609, Note_on_c, 0, 40, 73
1, 302622, Control_c, 0, 64, 45
1, 302624, Note_on_c, 0, 98, 91
1, 302625, Note_on_c, 0, 93, 85
1, 302633, Note_on_c, 0, 45, 43
1, 302637, Control_c, 0, 64, 47
1, 302646, Note_off_c, 0, 40, 66
1, 302651, Control_c, 0, 64, 48
1, 302658, Note_off_c, 0, 98, 68
1, 302659, Note_off_c, 0, 93, 62
1, 302666, Note_off_c, 0, 45, 64
1, 302666, Control_c, 0, 64, 48
1, 302681, Control_c, 0, 64, 49
1, 302696, Control_c, 0, 64, 49
1, 302710, Control_c, 0, 64, 50
1, 302714, Note_on_c, 0, 42, 69
1, 302716, Note_on_c, 0, 46, 71
1, 302717, Note_on_c, 0, 92, 84
1, 302718, Note_on_c, 0, 97, 84
1, 302725, Control_c, 0, 64, 51
1, 302755, Control_c, 0, 64, 51
1, 302764, Note_off_c, 0, 46, 59
1, 302766, Note_off_c, 0, 92, 65
1, 302768, Note_off_c, 0, 42, 60
1, 302771, Note_off_c, 0, 97, 65
1, 302785, Control_c, 0, 64, 52
1, 302785, Control_c, 0, 67, 19
1, 302815, Control_c, 0, 64, 52
1, 302816, Note_on_c, 0, 50, 72
1, 302822, Note_on_c, 0, 96, 87
1, 302824, Note_on_c, 0, 45, 75
1, 302824, Note_on_c, 0, 91, 87
1, 302830, Control_c, 0, 64, 53
1, 302868, Note_off_c, 0, 96, 63
1, 302873, Note_off_c, 0, 91, 65
1, 302881, Note_off_c, 0, 45, 61
1, 302889, Note_off_c, 0, 50, 63
1, 302896, Control_c, 0, 64, 53
1, 302930, Note_on_c, 0, 92, 88
1, 302936, Note_on_c, 0, 87, 77
1, 302937, Note_on_c, 0, 46, 72
1, 302940, Note_on_c, 0, 42, 69
1, 302940, Control_c, 0, 64, 54
1, 302955, Control_c, 0, 64, 54
1, 302965, Note_off_c, 0, 87, 67
1, 302970, Control_c, 0, 64, 55
1, 302985, Control_c, 0, 64, 56
1, 302988, Note_off_c, 0, 92, 65
1, 302991, Note_off_c, 0, 42, 62
1, 302994, Note_off_c, 0, 46, 62
1, 302999, Control_c, 0, 64, 57
1, 303014, Control_c, 0, 67, 18
1, 303030, Control_c, 0, 67, 17
1, 303035, Note_on_c, 0, 40, 74
1, 303035, Note_on_c, 0, 91, 82
1, 303044, Note_on_c, 0, 86, 69
1, 303051, Note_on_c, 0, 45, 48
1, 303060, Control_c, 0, 67, 17
1, 303065, Note_on_c, 0, 43, 41
1, 303068, Note_off_c, 0, 40, 65
1, 303070, Note_off_c, 0, 86, 68
1, 303074, Control_c, 0, 64, 57
1, 303074, Control_c, 0, 67, 16
1, 303081, Note_off_c, 0, 45, 55
1, 303082, Note_off_c, 0, 91, 63
1, 303082, Poly_aftertouch_c, 0, 92, 127
1, 303089, Control_c, 0, 64, 56
1, 303102, Note_off_c, 0, 43, 34
1, 303104, Control_c, 0, 64, 56
1, 303119, Control_c, 0, 64, 55
1, 303125, Poly_aftertouch_c, 0, 92, 0
1, 303132, Note_on_c, 0, 88, 71
1, 303134, Control_c, 0, 64, 54
1, 303138, Note_on_c, 0, 93, 98
1, 303140, Note_on_c, 0, 45, 67
1, 303146, Note_on_c, 0, 43, 78
1, 303149, Control_c, 0, 64, 52
1, 303154, Note_on_c, 0, 39, 77
1, 303163, Control_c, 0, 64, 45
1, 303178, Control_c, 0, 64, 28
1, 303180, Note_off_c, 0, 88, 64
1, 303185, Note_off_c, 0, 93, 66
1, 303187, Note_off_c, 0, 43, 57
1, 303193, Note_off_c, 0, 45, 63
1, 303193, Control_c, 0, 64, 0
1, 303219, Note_off_c, 0, 39, 59
1, 303235, Note_on_c, 0, 31, 85
1, 303238, Control_c, 0, 64, 36
1, 303238, Control_c, 0, 67, 17
1, 303240, Note_on_c, 0, 33, 76
1, 303243, Note_on_c, 0, 87, 94
1, 303253, Control_c, 0, 64, 58
1, 303253, Control_c, 0, 67, 17
1, 303257, Note_on_c, 0, 92, 69
1, 303262, Note_off_c, 0, 31, 65
1, 303267, Note_on_c, 0, 93, 59
1, 303268, Control_c, 0, 64, 64
1, 303268, Control_c, 0, 67, 18
1, 303268, Note_on_c, 0, 34, 30
1, 303271, Note_off_c, 0, 33, 64
1, 303274, Note_off_c, 0, 92, 42
1, 303281, Note_off_c, 0, 87, 66
1, 303282, Control_c, 0, 64, 66
1, 303287, Note_off_c, 0, 93, 63
1, 303297, Control_c, 0, 64, 68
1, 303310, Note_off_c, 0, 34, 29
1, 303312, Control_c, 0, 64, 70
1, 303312, Control_c, 0, 67, 17
1, 303326, Control_c, 0, 64, 70
1, 303326, Control_c, 0, 67, 16
1, 303341, Control_c, 0, 64, 70
1, 303341, Control_c, 0, 67, 16
1, 303356, Control_c, 0, 64, 69
1, 303356, Control_c, 0, 67, 15
1, 303371, Control_c, 0, 64, 67
1, 303371, Control_c, 0, 67, 14
1, 303386, Control_c, 0, 64, 63
1, 303386, Control_c, 0, 67, 13
1, 303400, Control_c, 0, 64, 51
1, 303400, Control_c, 0, 67, 13
1, 303413, Note_on_c, 0, 79, 97
1, 303415, Control_c, 0, 64, 0
1, 303422, Note_on_c, 0, 81, 90
1, 303429, Note_on_c, 0, 74, 82
1, 303434, Note_on_c, 0, 66, 73
1, 303435, Note_on_c, 0, 84, 78
1, 303436, Note_on_c, 0, 83, 77
1, 303439, Note_on_c, 0, 63, 56
1, 303445, Control_c, 0, 64, 36
1, 303446, Note_off_c, 0, 79, 66
1, 303449, Note_off_c, 0, 74, 73
1, 303455, Note_off_c, 0, 84, 71
1, 303456, Note_off_c, 0, 83, 71
1, 303458, Note_off_c, 0, 81, 67
1, 303460, Control_c, 0, 64, 65
1, 303461, Note_off_c, 0, 66, 65
1, 303462, Note_on_c, 0, 61, 10
1, 303463, Note_off_c, 0, 61, 127
1, 303464, Note_off_c, 0, 63, 61
1, 303465, Note_on_c, 0, 69, 33
1, 303474, Control_c, 0, 64, 77
1, 303489, Control_c, 0, 64, 97
1, 303489, Control_c, 0, 67, 13
1, 303504, Note_on_c, 0, 82, 107
1, 303504, Note_off_c, 0, 69, 31
1, 303504, Control_c, 0, 64, 127
1, 303504, Control_c, 0, 67, 14
1, 303507, Note_on_c, 0, 87, 94
1, 303507, Note_on_c, 0, 89, 96
1, 303508, Note_on_c, 0, 78, 99
1, 303509, Note_on_c, 0, 61, 56
1, 303509, Note_on_c, 0, 66, 81
1, 303509, Note_on_c, 0, 70, 89
1, 303515, Note_on_c, 0, 73, 75
1, 303519, Control_c, 0, 67, 15
1, 303521, Note_on_c, 0, 63, 80
1, 303521, Note_on_c, 0, 85, 51
1, 303524, Note_off_c, 0, 78, 71
1, 303526, Note_on_c, 0, 74, 59
1, 303530, Note_off_c, 0, 73, 71
1, 303533, Note_off_c, 0, 70, 66
1, 303533, Control_c, 0, 67, 16
1, 303542, Note_off_c, 0, 82, 66
1, 303548, Note_off_c, 0, 74, 64
1, 303548, Note_off_c, 0, 85, 64
1, 303548, Note_off_c, 0, 89, 61
1, 303551, Note_off_c, 0, 63, 67
1, 303555, Note_off_c, 0, 66, 64
1, 303561, Note_off_c, 0, 61, 63
1, 303572, Note_off_c, 0, 87, 57
1, 303645, Control_c, 0, 67, 16
1, 303689, Control_c, 0, 64, 101
1, 303689, Control_c, 0, 67, 17
1, 303704, Control_c, 0, 64, 78
1, 303704, Control_c, 0, 67, 17
1, 303719, Control_c, 0, 64, 59
1, 303719, Control_c, 0, 67, 18
1, 303733, Note_on_c, 0, 88, 92
1, 303733, Note_on_c, 0, 93, 94
1, 303733, Control_c, 0, 64, 0
1, 303733, Control_c, 0, 67, 19
1, 303740, Note_on_c, 0, 31, 76
1, 303742, Note_on_c, 0, 33, 71
1, 303748, Control_c, 0, 67, 21
1, 303763, Control_c, 0, 67, 22
1, 303778, Control_c, 0, 64, 35
1, 303778, Control_c, 0, 67, 23
1, 303789, Note_off_c, 0, 88, 63
1, 303793, Control_c, 0, 64, 40
1, 303793, Control_c, 0, 67, 25
1, 303807, Control_c, 0, 67, 28
1, 303810, Note_off_c, 0, 93, 61
1, 303817, Note_off_c, 0, 31, 57
1, 303823, Control_c, 0, 67, 33
1, 303832, Note_on_c, 0, 91, 88
1, 303837, Note_off_c, 0, 33, 60
1, 303838, Control_c, 0, 67, 38
1, 303839, Note_on_c, 0, 39, 43
1, 303842, Note_on_c, 0, 96, 88
1, 303846, Note_on_c, 0, 45, 73
1, 303853, Control_c, 0, 67, 45
1, 303868, Control_c, 0, 67, 50
1, 303869, Note_off_c, 0, 91, 63
1, 303873, Note_off_c, 0, 45, 66
1, 303875, Note_off_c, 0, 39, 50
1, 303883, Control_c, 0, 67, 55
1, 303884, Note_off_c, 0, 96, 65
1, 303897, Control_c, 0, 64, 41
1, 303897, Control_c, 0, 67, 58
1, 303912, Control_c, 0, 64, 42
1, 303912, Control_c, 0, 67, 58
1, 303946, Note_on_c, 0, 91, 89
1, 303946, Note_on_c, 0, 96, 92
1, 303947, Note_on_c, 0, 40, 62
1, 303968, Note_on_c, 0, 45, 32
1, 303981, Note_off_c, 0, 91, 64
1, 303991, Note_off_c, 0, 40, 61
1, 303991, Note_off_c, 0, 96, 64
1, 303994, Note_on_c, 0, 41, 15
1, 303995, Note_off_c, 0, 41, 127
1, 304004, Note_off_c, 0, 45, 53
1, 304016, Control_c, 0, 64, 43
1, 304031, Control_c, 0, 64, 46
1, 304043, Note_on_c, 0, 97, 79
1, 304046, Note_on_c, 0, 42, 62
1, 304046, Control_c, 0, 64, 47
1, 304046, Note_on_c, 0, 46, 60
1, 304047, Note_on_c, 0, 92, 70
1, 304061, Control_c, 0, 64, 48
1, 304072, Note_off_c, 0, 92, 69
1, 304072, Note_off_c, 0, 97, 64
1, 304080, Note_off_c, 0, 46, 62
1, 304085, Note_off_c, 0, 42, 60
1, 304105, Control_c, 0, 67, 58
1, 304120, Control_c, 0, 67, 57
1, 304142, Note_on_c, 0, 50, 62
1, 304149, Note_on_c, 0, 97, 84
1, 304149, Control_c, 0, 64, 49
1, 304149, Control_c, 0, 67, 57
1, 304150, Note_on_c, 0, 92, 78
1, 304159, Note_on_c, 0, 45, 37
1, 304177, Note_off_c, 0, 92, 65
1, 304179, Control_c, 0, 67, 56
1, 304187, Note_off_c, 0, 50, 63
1, 304187, Note_off_c, 0, 97, 63
1, 304195, Note_off_c, 0, 45, 51
1, 304209, Control_c, 0, 64, 49
1, 304209, Control_c, 0, 67, 56
1, 304250, Note_on_c, 0, 46, 68
1, 304253, Note_on_c, 0, 97, 94
1, 304253, Control_c, 0, 67, 55
1, 304254, Note_on_c, 0, 92, 94
1, 304263, Note_on_c, 0, 42, 62
1, 304292, Note_off_c, 0, 92, 67
1, 304296, Note_off_c, 0, 97, 66
1, 304297, Control_c, 0, 67, 55
1, 304305, Note_off_c, 0, 42, 61
1, 304313, Note_off_c, 0, 46, 59
1, 304342, Control_c, 0, 64, 50
1, 304361, Note_on_c, 0, 45, 78
1, 304361, Note_on_c, 0, 92, 103
1, 304362, Note_on_c, 0, 97, 100
1, 304362, Note_on_c, 0, 40, 84
1, 304364, Control_c, 0, 67, 55
1, 304379, Control_c, 0, 64, 51
1, 304379, Control_c, 0, 67, 56
1, 304389, Note_off_c, 0, 45, 67
1, 304408, Note_off_c, 0, 40, 64
1, 304409, Control_c, 0, 67, 56
1, 304423, Note_off_c, 0, 92, 64
1, 304423, Note_off_c, 0, 97, 64
1, 304438, Control_c, 0, 67, 57
1, 304476, Note_on_c, 0, 91, 83
1, 304476, Note_on_c, 0, 96, 90
1, 304478, Note_on_c, 0, 39, 73
1, 304481, Note_on_c, 0, 43, 54
1, 304497, Control_c, 0, 67, 56
1, 304505, Note_off_c, 0, 91, 65
1, 304510, Note_off_c, 0, 43, 57
1, 304519, Note_off_c, 0, 96, 66
1, 304532, Note_off_c, 0, 39, 55
1, 304542, Control_c, 0, 67, 56
1, 304574, Note_on_c, 0, 31, 68
1, 304578, Note_on_c, 0, 33, 70
1, 304580, Note_on_c, 0, 93, 87
1, 304580, Note_on_c, 0, 98, 94
1, 304617, Note_off_c, 0, 31, 59
1, 304622, Note_off_c, 0, 98, 67
1, 304627, Note_off_c, 0, 93, 64
1, 304675, Note_on_c, 0, 39, 61
1, 304676, Control_c, 0, 64, 52
1, 304680, Note_on_c, 0, 93, 80
1, 304684, Note_off_c, 0, 33, 60
1, 304685, Note_on_c, 0, 98, 91
1, 304691, Control_c, 0, 64, 53
1, 304693, Note_on_c, 0, 45, 73
1, 304705, Control_c, 0, 64, 53
1, 304705, Control_c, 0, 67, 56
1, 304707, Note_off_c, 0, 39, 61
1, 304715, Note_off_c, 0, 98, 64
1, 304720, Control_c, 0, 64, 54
1, 304722, Note_off_c, 0, 45, 67
1, 304722, Note_off_c, 0, 93, 65
1, 304735, Control_c, 0, 67, 56
1, 304750, Control_c, 0, 64, 55
1, 304792, Note_on_c, 0, 40, 70
1, 304798, Note_on_c, 0, 89, 80
1, 304807, Note_on_c, 0, 96, 71
1, 304812, Note_on_c, 0, 88, 69
1, 304814, Note_on_c, 0, 95, 72
1, 304823, Note_on_c, 0, 45, 37
1, 304830, Note_off_c, 0, 88, 65
1, 304830, Note_off_c, 0, 40, 65
1, 304833, Note_off_c, 0, 89, 60
1, 304836, Note_off_c, 0, 96, 59
1, 304837, Note_off_c, 0, 95, 70
1, 304854, Control_c, 0, 64, 55
1, 304857, Note_off_c, 0, 45, 53
1, 304869, Control_c, 0, 64, 56
1, 304883, Control_c, 0, 64, 57
1, 304896, Note_on_c, 0, 42, 76
1, 304896, Note_on_c, 0, 46, 76
1, 304898, Control_c, 0, 64, 57
1, 304912, Note_on_c, 0, 95, 91
1, 304919, Note_on_c, 0, 91, 66
1, 304925, Note_on_c, 0, 97, 69
1, 304928, Control_c, 0, 64, 58
1, 304934, Note_off_c, 0, 95, 67
1, 304937, Note_off_c, 0, 91, 65
1, 304940, Note_on_c, 0, 96, 39
1, 304941, Note_off_c, 0, 96, 127
1, 304943, Control_c, 0, 64, 58
1, 304943, Note_off_c, 0, 97, 66
1, 304949, Note_off_c, 0, 46, 59
1, 304958, Control_c, 0, 64, 59
1, 304964, Note_off_c, 0, 42, 62
1, 304972, Control_c, 0, 64, 60
1, 304987, Control_c, 0, 64, 61
1, 304994, Note_on_c, 0, 50, 81
1, 304997, Note_on_c, 0, 45, 83
1, 305002, Control_c, 0, 64, 62
1, 305007, Note_on_c, 0, 97, 89
1, 305012, Note_on_c, 0, 92, 98
1, 305017, Control_c, 0, 64, 62
1, 305032, Control_c, 0, 64, 63
1, 305053, Note_off_c, 0, 45, 64
1, 305055, Note_off_c, 0, 97, 66
1, 305058, Note_off_c, 0, 92, 66
1, 305061, Control_c, 0, 64, 64
1, 305061, Control_c, 0, 67, 55
1, 305062, Note_off_c, 0, 50, 60
1, 305091, Control_c, 0, 67, 55
1, 305101, Note_on_c, 0, 42, 77
1, 305107, Note_on_c, 0, 46, 74
1, 305125, Note_on_c, 0, 92, 88
1, 305134, Note_on_c, 0, 97, 93
1, 305143, Control_c, 0, 67, 54
1, 305147, Note_on_c, 0, 91, 63
1, 305158, Control_c, 0, 64, 64
1, 305164, Note_off_c, 0, 91, 65
1, 305172, Note_off_c, 0, 42, 63
1, 305172, Control_c, 0, 64, 65
1, 305172, Control_c, 0, 67, 54
1, 305176, Note_off_c, 0, 46, 63
1, 305176, Note_off_c, 0, 92, 66
1, 305179, Note_off_c, 0, 97, 66
1, 305187, Control_c, 0, 64, 65
1, 305203, Note_on_c, 0, 40, 68
1, 305210, Note_on_c, 0, 45, 73
1, 305217, Control_c, 0, 64, 66
1, 305227, Note_on_c, 0, 91, 94
1, 305232, Control_c, 0, 64, 67
1, 305233, Note_off_c, 0, 45, 68
1, 305241, Note_on_c, 0, 98, 80
1, 305247, Control_c, 0, 64, 70
1, 305248, Note_on_c, 0, 96, 72
1, 305256, Note_off_c, 0, 40, 65
1, 305261, Control_c, 0, 64, 73
1, 305261, Control_c, 0, 67, 54
1, 305264, Note_off_c, 0, 91, 68
1, 305264, Note_off_c, 0, 98, 66
1, 305271, Note_off_c, 0, 96, 69
1, 305273, Note_on_c, 0, 97, 33
1, 305276, Control_c, 0, 64, 77
1, 305291, Control_c, 0, 64, 80
1, 305305, Control_c, 0, 64, 82
1, 305310, Note_off_c, 0, 97, 32
1, 305320, Control_c, 0, 64, 83
1, 305325, Note_on_c, 0, 92, 102
1, 305328, Note_on_c, 0, 43, 68
1, 305331, Note_on_c, 0, 97, 81
1, 305334, Note_on_c, 0, 39, 63
1, 305351, Note_on_c, 0, 40, 71
1, 305361, Note_off_c, 0, 43, 62
1, 305366, Poly_aftertouch_c, 0, 45, 127
1, 305372, Note_off_c, 0, 39, 49
1, 305374, Note_off_c, 0, 92, 66
1, 305379, Control_c, 0, 64, 82
1, 305379, Control_c, 0, 67, 54
1, 305384, Note_off_c, 0, 40, 63
1, 305387, Note_off_c, 0, 97, 66
1, 305394, Control_c, 0, 64, 81
1, 305414, Poly_aftertouch_c, 0, 45, 0
1, 305425, Control_c, 0, 64, 81
1, 305430, Note_on_c, 0, 31, 74
1, 305432, Note_on_c, 0, 33, 68
1, 305440, Note_on_c, 0, 93, 96
1, 305440, Control_c, 0, 67, 54
1, 305445, Note_on_c, 0, 98, 94
1, 305455, Control_c, 0, 64, 80
1, 305470, Control_c, 0, 67, 55
1, 305475, Note_off_c, 0, 98, 65
1, 305477, Note_off_c, 0, 93, 66
1, 305514, Control_c, 0, 67, 55
1, 305536, Note_on_c, 0, 39, 78
1, 305539, Note_on_c, 0, 93, 92
1, 305539, Note_on_c, 0, 98, 105
1, 305543, Control_c, 0, 64, 81
1, 305543, Control_c, 0, 67, 56
1, 305548, Note_on_c, 0, 94, 67
1, 305550, Note_off_c, 0, 31, 61
1, 305558, Control_c, 0, 64, 81
1, 305559, Note_on_c, 0, 45, 76
1, 305562, Note_on_c, 0, 91, 41
1, 305563, Note_off_c, 0, 91, 127
1, 305567, Note_off_c, 0, 33, 60
1, 305569, Note_off_c, 0, 94, 64
1, 305570, Note_off_c, 0, 98, 70
1, 305573, Control_c, 0, 67, 56
1, 305578, Note_off_c, 0, 93, 64
1, 305590, Note_off_c, 0, 39, 60
1, 305602, Note_off_c, 0, 45, 65
1, 305645, Note_on_c, 0, 102, 111
1, 305662, Note_on_c, 0, 94, 67
1, 305667, Note_on_c, 0, 40, 78
1, 305676, Control_c, 0, 64, 81
1, 305679, Note_off_c, 0, 102, 67
1, 305679, Note_off_c, 0, 94, 64
1, 305691, Control_c, 0, 64, 80
1, 305706, Control_c, 0, 64, 78
1, 305706, Control_c, 0, 67, 56
1, 305717, Note_off_c, 0, 40, 55
1, 305721, Control_c, 0, 64, 73
1, 305736, Control_c, 0, 64, 69
1, 305751, Control_c, 0, 64, 67
1, 305753, Note_on_c, 0, 93, 98
1, 305754, Note_on_c, 0, 98, 105
1, 305760, Note_on_c, 0, 46, 79
1, 305763, Note_on_c, 0, 42, 77
1, 305766, Control_c, 0, 64, 67
1, 305781, Control_c, 0, 64, 68
1, 305798, Note_off_c, 0, 93, 68
1, 305799, Note_off_c, 0, 98, 63
1, 305810, Control_c, 0, 64, 69
1, 305816, Note_off_c, 0, 46, 62
1, 305839, Note_off_c, 0, 42, 56
1, 305846, Control_c, 0, 67, 55
1, 305853, Note_on_c, 0, 92, 74
1, 305854, Note_on_c, 0, 97, 95
1, 305860, Note_on_c, 0, 45, 79
1, 305861, Control_c, 0, 67, 55
1, 305864, Note_on_c, 0, 50, 75
1, 305876, Control_c, 0, 67, 54
1, 305891, Control_c, 0, 64, 69
1, 305891, Control_c, 0, 67, 54
1, 305906, Control_c, 0, 64, 70
1, 305906, Control_c, 0, 67, 53
1, 305910, Note_off_c, 0, 92, 66
1, 305915, Note_off_c, 0, 97, 67
1, 305915, Note_off_c, 0, 45, 64
1, 305931, Note_off_c, 0, 50, 62
1, 305936, Control_c, 0, 67, 53
1, 305951, Control_c, 0, 67, 52
1, 305963, Note_on_c, 0, 46, 85
1, 305963, Note_on_c, 0, 93, 102
1, 305965, Control_c, 0, 67, 51
1, 305966, Note_on_c, 0, 98, 109
1, 305969, Note_on_c, 0, 42, 74
1, 305980, Control_c, 0, 67, 50
1, 305995, Control_c, 0, 67, 49
1, 306010, Control_c, 0, 67, 49
1, 306014, Note_off_c, 0, 93, 65
1, 306016, Note_off_c, 0, 98, 65
1, 306025, Control_c, 0, 67, 48
1, 306038, Note_off_c, 0, 42, 63
1, 306040, Control_c, 0, 64, 69
1, 306040, Control_c, 0, 67, 48
1, 306040, Note_off_c, 0, 46, 61
1, 306054, Control_c, 0, 67, 47
1, 306067, Note_on_c, 0, 45, 83
1, 306069, Control_c, 0, 64, 70
1, 306069, Control_c, 0, 67, 46
1, 306072, Note_on_c, 0, 92, 98
1, 306073, Note_on_c, 0, 97, 98
1, 306079, Note_on_c, 0, 40, 76
1, 306084, Control_c, 0, 64, 70
1, 306084, Control_c, 0, 67, 44
1, 306094, Note_off_c, 0, 45, 67
1, 306099, Control_c, 0, 67, 41
1, 306112, Note_off_c, 0, 40, 68
1, 306114, Control_c, 0, 67, 36
1, 306128, Control_c, 0, 67, 28
1, 306142, Note_off_c, 0, 92, 64
1, 306142, Note_off_c, 0, 97, 65
1, 306143, Control_c, 0, 67, 16
1, 306158, Control_c, 0, 67, 0
1, 306174, Note_on_c, 0, 43, 79
1, 306174, Note_on_c, 0, 93, 103
1, 306177, Note_on_c, 0, 98, 97
1, 306178, Note_on_c, 0, 45, 76
1, 306180, Note_on_c, 0, 39, 88
1, 306222, Note_off_c, 0, 43, 62
1, 306223, Note_off_c, 0, 45, 60
1, 306233, Control_c, 0, 64, 70
1, 306240, Note_off_c, 0, 98, 66
1, 306246, Note_off_c, 0, 39, 58
1, 306255, Note_off_c, 0, 93, 63
1, 306256, Poly_aftertouch_c, 0, 92, 0
1, 306273, Note_on_c, 0, 33, 81
1, 306279, Note_on_c, 0, 31, 75
1, 306280, Note_on_c, 0, 92, 75
1, 306284, Note_on_c, 0, 97, 97
1, 306302, Note_off_c, 0, 92, 71
1, 306326, Note_off_c, 0, 97, 67
1, 306340, Note_off_c, 0, 31, 57
1, 306371, Note_off_c, 0, 33, 58
1, 306374, Note_on_c, 0, 39, 76
1, 306382, Note_on_c, 0, 45, 86
1, 306383, Note_on_c, 0, 102, 106
1, 306384, Note_on_c, 0, 97, 99
1, 306407, Note_off_c, 0, 39, 63
1, 306414, Note_off_c, 0, 102, 68
1, 306424, Note_off_c, 0, 97, 66
1, 306431, Note_off_c, 0, 45, 63
1, 306469, Control_c, 0, 64, 69
1, 306491, Note_on_c, 0, 93, 100
1, 306492, Note_on_c, 0, 98, 106
1, 306496, Note_on_c, 0, 40, 78
1, 306508, Note_on_c, 0, 45, 77
1, 306514, Control_c, 0, 64, 69
1, 306524, Note_off_c, 0, 93, 69
1, 306527, Note_off_c, 0, 98, 67
1, 306529, Control_c, 0, 64, 68
1, 306547, Note_off_c, 0, 45, 61
1, 306550, Note_off_c, 0, 40, 59
1, 306588, Note_on_c, 0, 46, 82
1, 306600, Note_on_c, 0, 42, 75
1, 306600, Note_on_c, 0, 92, 100
1, 306601, Note_on_c, 0, 97, 99
1, 306648, Note_off_c, 0, 92, 67
1, 306653, Note_off_c, 0, 97, 66
1, 306655, Control_c, 0, 64, 68
1, 306661, Note_off_c, 0, 46, 62
1, 306669, Note_off_c, 0, 42, 63
1, 306669, Control_c, 0, 64, 65
1, 306684, Control_c, 0, 64, 37
1, 306699, Control_c, 0, 64, 0
1, 306702, Note_on_c, 0, 50, 82
1, 306704, Note_on_c, 0, 45, 87
1, 306709, Note_on_c, 0, 93, 108
1, 306709, Note_on_c, 0, 98, 108
1, 306768, Note_off_c, 0, 98, 61
1, 306773, Control_c, 0, 64, 63
1, 306779, Note_off_c, 0, 45, 64
1, 306785, Note_off_c, 0, 93, 64
1, 306788, Control_c, 0, 64, 71
1, 306800, Note_off_c, 0, 50, 62
1, 306803, Control_c, 0, 64, 79
1, 306809, Note_on_c, 0, 97, 104
1, 306812, Note_on_c, 0, 46, 83
1, 306813, Note_on_c, 0, 92, 102
1, 306815, Note_on_c, 0, 42, 85
1, 306818, Control_c, 0, 64, 87
1, 306833, Control_c, 0, 64, 90
1, 306843, Note_off_c, 0, 92, 68
1, 306843, Note_off_c, 0, 97, 69
1, 306845, Note_off_c, 0, 42, 67
1, 306852, Note_off_c, 0, 46, 64
1, 306892, Control_c, 0, 64, 91
1, 306981, Control_c, 0, 64, 90
1, 306992, Note_on_c, 0, 76, 82
1, 306992, Note_on_c, 0, 79, 82
1, 306996, Control_c, 0, 64, 86
1, 307000, Note_on_c, 0, 81, 85
1, 307008, Note_on_c, 0, 84, 76
1, 307009, Note_on_c, 0, 67, 61
1, 307011, Control_c, 0, 64, 79
1, 307014, Note_off_c, 0, 76, 70
1, 307018, Note_on_c, 0, 83, 67
1, 307021, Note_off_c, 0, 79, 64
1, 307027, Control_c, 0, 64, 67
1, 307035, Note_off_c, 0, 83, 67
1, 307036, Note_off_c, 0, 81, 64
1, 307037, Note_off_c, 0, 84, 65
1, 307040, Note_off_c, 0, 67, 65
1, 307042, Control_c, 0, 64, 59
1, 307056, Control_c, 0, 64, 63
1, 307071, Control_c, 0, 64, 70
1, 307079, Note_on_c, 0, 75, 92
1, 307081, Note_on_c, 0, 90, 97
1, 307082, Note_on_c, 0, 82, 100
1, 307083, Note_on_c, 0, 78, 93
1, 307085, Note_on_c, 0, 71, 37
1, 307086, Control_c, 0, 64, 80
1, 307086, Note_on_c, 0, 87, 96
1, 307095, Note_on_c, 0, 67, 75
1, 307095, Note_off_c, 0, 75, 74
1, 307098, Note_off_c, 0, 78, 76
1, 307100, Control_c, 0, 64, 90
1, 307106, Note_on_c, 0, 63, 39
1, 307112, Note_off_c, 0, 71, 61
1, 307115, Control_c, 0, 64, 97
1, 307116, Note_on_c, 0, 61, 67
1, 307117, Note_off_c, 0, 67, 69
1, 307121, Note_off_c, 0, 82, 67
1, 307134, Note_off_c, 0, 87, 68
1, 307137, Note_off_c, 0, 63, 55
1, 307142, Note_off_c, 0, 61, 65
1, 307143, Note_off_c, 0, 90, 66
1, 307248, Control_c, 0, 64, 95
1, 307263, Control_c, 0, 64, 89
1, 307278, Control_c, 0, 64, 81
1, 307292, Control_c, 0, 64, 72
1, 307307, Control_c, 0, 64, 65
1, 307322, Control_c, 0, 64, 58
1, 307331, Note_on_c, 0, 96, 91
1, 307337, Note_on_c, 0, 91, 86
1, 307337, Control_c, 0, 64, 54
1, 307338, Note_on_c, 0, 31, 65
1, 307360, Control_c, 0, 64, 57
1, 307362, Note_on_c, 0, 33, 55
1, 307374, Control_c, 0, 64, 62
1, 307378, Note_on_c, 0, 35, 51
1, 307389, Control_c, 0, 64, 64
1, 307404, Control_c, 0, 64, 66
1, 307419, Control_c, 0, 64, 67
1, 307434, Control_c, 0, 64, 68
1, 307438, Note_off_c, 0, 31, 59
1, 307441, Note_on_c, 0, 39, 46
1, 307448, Control_c, 0, 64, 68
1, 307455, Note_off_c, 0, 33, 58
1, 307465, Note_on_c, 0, 45, 74
1, 307473, Note_off_c, 0, 39, 57
1, 307487, Note_off_c, 0, 35, 38
1, 307493, Control_c, 0, 64, 69
1, 307495, Note_off_c, 0, 96, 61
1, 307496, Note_off_c, 0, 91, 57
1, 307504, Note_off_c, 0, 45, 65
1, 307507, Control_c, 0, 64, 69
1, 307522, Control_c, 0, 64, 70
1, 307537, Control_c, 0, 64, 71
1, 307552, Control_c, 0, 64, 73
1, 307567, Control_c, 0, 64, 75
1, 307571, Note_on_c, 0, 40, 76
1, 307581, Control_c, 0, 64, 78
1, 307584, Note_on_c, 0, 97, 92
1, 307587, Note_on_c, 0, 92, 82
1, 307596, Control_c, 0, 64, 81
1, 307599, Note_on_c, 0, 45, 54
1, 307611, Control_c, 0, 64, 84
1, 307626, Control_c, 0, 64, 88
1, 307632, Note_off_c, 0, 40, 61
1, 307637, Note_off_c, 0, 92, 66
1, 307638, Note_off_c, 0, 45, 62
1, 307641, Control_c, 0, 64, 91
1, 307651, Note_off_c, 0, 97, 65
1, 307656, Control_c, 0, 64, 93
1, 307671, Control_c, 0, 64, 95
1, 307681, Note_on_c, 0, 46, 76
1, 307682, Note_on_c, 0, 42, 73
1, 307685, Control_c, 0, 64, 96
1, 307688, Note_on_c, 0, 98, 97
1, 307688, Note_on_c, 0, 93, 91
1, 307730, Note_off_c, 0, 93, 66
1, 307730, Control_c, 0, 64, 96
1, 307732, Note_off_c, 0, 98, 67
1, 307742, Note_off_c, 0, 46, 61
1, 307760, Note_off_c, 0, 42, 61
1, 307778, Note_on_c, 0, 50, 84
1, 307790, Note_on_c, 0, 45, 83
1, 307792, Note_on_c, 0, 91, 104
1, 307795, Note_on_c, 0, 97, 101
1, 307804, Control_c, 0, 64, 97
1, 307820, Control_c, 0, 64, 98
1, 307825, Note_off_c, 0, 91, 67
1, 307835, Control_c, 0, 64, 99
1, 307842, Note_off_c, 0, 45, 64
1, 307842, Note_off_c, 0, 97, 69
1, 307849, Control_c, 0, 64, 102
1, 307855, Note_off_c, 0, 50, 60
1, 307864, Control_c, 0, 64, 107
1, 307879, Control_c, 0, 64, 113
1, 307885, Note_on_c, 0, 42, 77
1, 307891, Note_on_c, 0, 46, 83
1, 307894, Note_on_c, 0, 93, 97
1, 307894, Control_c, 0, 64, 119
1, 307894, Note_on_c, 0, 98, 101
1, 307909, Control_c, 0, 64, 127
1, 307926, Note_on_c, 0, 40, 43
1, 307935, Note_off_c, 0, 93, 68
1, 307939, Note_off_c, 0, 98, 66
1, 307956, Note_off_c, 0, 42, 61
1, 307975, Note_off_c, 0, 40, 0
1, 307975, Note_on_c, 0, 40, 58
1, 307992, Note_on_c, 0, 91, 97
1, 307993, Note_on_c, 0, 96, 83
1, 307993, Note_on_c, 0, 45, 81
1, 307998, Note_on_c, 0, 95, 91
1, 308011, Note_off_c, 0, 96, 71
1, 308014, Note_off_c, 0, 46, 55
1, 308016, Note_off_c, 0, 95, 72
1, 308016, Note_off_c, 0, 40, 63
1, 308017, Note_off_c, 0, 45, 71
1, 308020, Note_off_c, 0, 91, 68
1, 308138, Control_c, 0, 64, 116
1, 308142, Note_on_c, 0, 81, 90
1, 308143, Note_on_c, 0, 79, 91
1, 308153, Control_c, 0, 64, 94
1, 308156, Note_on_c, 0, 84, 83
1, 308160, Note_on_c, 0, 70, 79
1, 308164, Note_on_c, 0, 66, 75
1, 308168, Control_c, 0, 64, 75
1, 308170, Note_on_c, 0, 76, 67
1, 308177, Note_on_c, 0, 74, 47
1, 308183, Control_c, 0, 64, 61
1, 308183, Note_off_c, 0, 70, 70
1, 308183, Note_off_c, 0, 79, 64
1, 308185, Note_on_c, 0, 61, 39
1, 308188, Note_on_c, 0, 63, 21
1, 308189, Note_off_c, 0, 76, 64
1, 308190, Note_off_c, 0, 66, 65
1, 308195, Note_off_c, 0, 81, 66
1, 308197, Note_off_c, 0, 84, 67
1, 308197, Control_c, 0, 64, 50
1, 308204, Note_off_c, 0, 74, 57
1, 308212, Control_c, 0, 64, 62
1, 308216, Note_off_c, 0, 61, 33
1, 308227, Control_c, 0, 64, 70
1, 308229, Note_on_c, 0, 78, 97
1, 308231, Note_on_c, 0, 82, 102
1, 308234, Note_on_c, 0, 75, 99
1, 308234, Note_on_c, 0, 70, 86
1, 308234, Note_on_c, 0, 90, 98
1, 308238, Note_on_c, 0, 66, 78
1, 308242, Note_on_c, 0, 88, 86
1, 308242, Control_c, 0, 64, 79
1, 308244, Note_on_c, 0, 85, 74
1, 308249, Note_off_c, 0, 75, 72
1, 308251, Note_off_c, 0, 63, 0
1, 308251, Note_on_c, 0, 63, 44
1, 308252, Note_on_c, 0, 61, 68
1, 308254, Note_off_c, 0, 78, 61
1, 308256, Control_c, 0, 64, 90
1, 308258, Note_on_c, 0, 91, 67
1, 308266, Note_off_c, 0, 70, 63
1, 308266, Note_off_c, 0, 85, 67
1, 308271, Control_c, 0, 64, 97
1, 308272, Note_off_c, 0, 82, 68
1, 308276, Note_off_c, 0, 91, 60
1, 308280, Note_off_c, 0, 66, 65
1, 308285, Note_off_c, 0, 63, 64
1, 308286, Control_c, 0, 64, 98
1, 308289, Note_off_c, 0, 88, 65
1, 308290, Note_off_c, 0, 61, 63
1, 308290, Note_off_c, 0, 90, 65
1, 308390, Control_c, 0, 64, 91
1, 308404, Control_c, 0, 64, 79
1, 308419, Control_c, 0, 64, 64
1, 308434, Control_c, 0, 64, 0
1, 308453, Note_on_c, 0, 96, 97
1, 308457, Note_on_c, 0, 89, 86
1, 308463, Note_on_c, 0, 91, 77
1, 308464, Note_on_c, 0, 31, 83
1, 308469, Note_on_c, 0, 33, 76
1, 308478, Control_c, 0, 64, 58
1, 308481, Note_off_c, 0, 91, 59
1, 308493, Control_c, 0, 64, 65
1, 308508, Control_c, 0, 64, 69
1, 308523, Control_c, 0, 64, 73
1, 308538, Control_c, 0, 64, 77
1, 308542, Note_on_c, 0, 39, 58
1, 308553, Control_c, 0, 64, 79
1, 308559, Note_off_c, 0, 89, 60
1, 308564, Note_off_c, 0, 96, 62
1, 308568, Control_c, 0, 64, 80
1, 308571, Note_off_c, 0, 31, 58
1, 308582, Note_off_c, 0, 33, 60
1, 308588, Note_on_c, 0, 45, 76
1, 308612, Note_off_c, 0, 39, 60
1, 308616, Note_on_c, 0, 43, 43
1, 308628, Note_off_c, 0, 45, 65
1, 308654, Note_off_c, 0, 43, 33
1, 308705, Note_on_c, 0, 40, 75
1, 308705, Note_on_c, 0, 97, 102
1, 308707, Note_on_c, 0, 92, 105
1, 308717, Control_c, 0, 64, 81
1, 308726, Note_on_c, 0, 45, 70
1, 308732, Control_c, 0, 64, 83
1, 308746, Control_c, 0, 64, 85
1, 308756, Note_off_c, 0, 92, 66
1, 308761, Control_c, 0, 64, 89
1, 308776, Control_c, 0, 64, 93
1, 308780, Note_off_c, 0, 97, 62
1, 308791, Control_c, 0, 64, 97
1, 308798, Note_off_c, 0, 45, 63
1, 308806, Control_c, 0, 64, 99
1, 308820, Control_c, 0, 64, 101
1, 308828, Note_on_c, 0, 46, 82
1, 308833, Note_on_c, 0, 42, 71
1, 308835, Note_on_c, 0, 98, 107
1, 308835, Control_c, 0, 64, 103
1, 308845, Note_on_c, 0, 93, 101
1, 308857, Control_c, 0, 64, 106
1, 308872, Control_c, 0, 64, 109
1, 308887, Control_c, 0, 64, 110
1, 308887, Note_off_c, 0, 93, 68
1, 308890, Note_off_c, 0, 40, 32
1, 308892, Note_off_c, 0, 98, 67
1, 308902, Control_c, 0, 64, 111
1, 308917, Note_off_c, 0, 46, 60
1, 308937, Note_on_c, 0, 45, 88
1, 308940, Note_on_c, 0, 50, 88
1, 308949, Note_on_c, 0, 91, 104
1, 308949, Note_on_c, 0, 96, 105
1, 308961, Note_off_c, 0, 42, 63
1, 308962, Note_off_c, 0, 45, 68
1, 308978, Note_off_c, 0, 96, 68
1, 308982, Note_off_c, 0, 50, 68
1, 308983, Note_off_c, 0, 91, 68
1, 308991, Note_on_c, 0, 94, 31
1, 308992, Note_off_c, 0, 94, 127
1, 309020, Control_c, 0, 64, 110
1, 309065, Control_c, 0, 64, 110
1, 309079, Control_c, 0, 64, 105
1, 309086, Note_on_c, 0, 79, 91
1, 309094, Control_c, 0, 64, 95
1, 309099, Note_on_c, 0, 81, 87
1, 309103, Note_on_c, 0, 84, 81
1, 309109, Note_on_c, 0, 76, 76
1, 309109, Control_c, 0, 64, 82
1, 309124, Control_c, 0, 64, 68
1, 309126, Note_off_c, 0, 79, 65
1, 309129, Note_off_c, 0, 76, 66
1, 309132, Note_on_c, 0, 67, 47
1, 309139, Control_c, 0, 64, 51
1, 309140, Note_off_c, 0, 81, 64
1, 309145, Note_off_c, 0, 84, 64
1, 309159, Note_off_c, 0, 67, 53
1, 309168, Control_c, 0, 64, 63
1, 309181, Note_on_c, 0, 75, 92
1, 309181, Note_on_c, 0, 82, 102
1, 309182, Note_on_c, 0, 78, 94
1, 309183, Control_c, 0, 64, 70
1, 309185, Note_on_c, 0, 71, 46
1, 309185, Note_on_c, 0, 87, 93
1, 309185, Note_on_c, 0, 90, 99
1, 309195, Note_on_c, 0, 63, 48
1, 309197, Note_on_c, 0, 85, 75
1, 309197, Note_off_c, 0, 75, 73
1, 309198, Control_c, 0, 64, 79
1, 309200, Note_on_c, 0, 67, 68
1, 309206, Note_off_c, 0, 71, 67
1, 309211, Note_on_c, 0, 66, 24
1, 309212, Note_off_c, 0, 66, 127
1, 309212, Note_on_c, 0, 88, 64
1, 309213, Note_on_c, 0, 61, 68
1, 309213, Note_off_c, 0, 78, 62
1, 309213, Control_c, 0, 64, 89
1, 309218, Note_off_c, 0, 85, 70
1, 309222, Note_off_c, 0, 82, 70
1, 309223, Note_off_c, 0, 67, 67
1, 309227, Control_c, 0, 64, 96
1, 309236, Note_off_c, 0, 88, 56
1, 309236, Note_off_c, 0, 87, 66
1, 309240, Note_off_c, 0, 61, 66
1, 309241, Note_off_c, 0, 63, 62
1, 309242, Control_c, 0, 64, 98
1, 309258, Note_off_c, 0, 90, 63
1, 309316, Control_c, 0, 64, 94
1, 309331, Control_c, 0, 64, 83
1, 309346, Control_c, 0, 64, 69
1, 309361, Control_c, 0, 64, 45
1, 309376, Control_c, 0, 64, 0
1, 309399, Note_on_c, 0, 91, 100
1, 309402, Note_on_c, 0, 86, 92
1, 309404, Note_on_c, 0, 31, 78
1, 309405, Control_c, 0, 64, 57
1, 309414, Note_on_c, 0, 33, 73
1, 309421, Control_c, 0, 64, 66
1, 309435, Control_c, 0, 64, 71
1, 309450, Control_c, 0, 64, 74
1, 309465, Control_c, 0, 64, 75
1, 309486, Note_off_c, 0, 86, 54
1, 309492, Note_off_c, 0, 91, 65
1, 309495, Control_c, 0, 64, 74
1, 309499, Note_off_c, 0, 31, 59
1, 309504, Note_on_c, 0, 39, 47
1, 309513, Note_off_c, 0, 33, 58
1, 309519, Note_on_c, 0, 45, 77
1, 309539, Note_off_c, 0, 39, 61
1, 309556, Note_off_c, 0, 45, 65
1, 309632, Note_on_c, 0, 40, 71
1, 309633, Note_on_c, 0, 87, 91
1, 309638, Note_on_c, 0, 92, 85
1, 309650, Control_c, 0, 64, 74
1, 309665, Note_on_c, 0, 45, 62
1, 309665, Control_c, 0, 64, 73
1, 309686, Note_off_c, 0, 40, 59
1, 309686, Note_off_c, 0, 87, 65
1, 309686, Note_off_c, 0, 45, 66
1, 309696, Note_off_c, 0, 92, 65
1, 309735, Note_on_c, 0, 88, 90
1, 309735, Note_on_c, 0, 95, 95
1, 309738, Note_on_c, 0, 46, 76
1, 309748, Note_on_c, 0, 42, 66
1, 309773, Note_off_c, 0, 88, 63
1, 309778, Note_off_c, 0, 95, 66
1, 309784, Control_c, 0, 64, 73
1, 309793, Note_off_c, 0, 42, 61
1, 309793, Note_off_c, 0, 46, 60
1, 309814, Control_c, 0, 64, 72
1, 309836, Note_on_c, 0, 50, 75
1, 309841, Note_on_c, 0, 45, 67
1, 309842, Note_on_c, 0, 91, 96
1, 309843, Control_c, 0, 64, 71
1, 309844, Note_on_c, 0, 96, 96
1, 309858, Control_c, 0, 64, 70
1, 309873, Control_c, 0, 64, 70
1, 309878, Note_off_c, 0, 96, 67
1, 309880, Note_off_c, 0, 91, 67
1, 309892, Note_off_c, 0, 45, 64
1, 309902, Control_c, 0, 64, 69
1, 309903, Note_off_c, 0, 50, 62
1, 309932, Control_c, 0, 64, 69
1, 309944, Note_on_c, 0, 97, 112
1, 309945, Note_on_c, 0, 42, 83
1, 309945, Note_on_c, 0, 92, 104
1, 309949, Note_on_c, 0, 46, 78
1, 309962, Control_c, 0, 64, 69
1, 309966, Note_off_c, 0, 92, 66
1, 309972, Note_off_c, 0, 97, 69
1, 309998, Note_off_c, 0, 42, 64
1, 310000, Note_off_c, 0, 46, 62
1, 310053, Note_on_c, 0, 40, 81
1, 310054, Note_on_c, 0, 45, 75
1, 310065, Control_c, 0, 64, 70
1, 310076, Note_off_c, 0, 45, 68
1, 310089, Note_off_c, 0, 40, 65
1, 310124, Control_c, 0, 64, 70
1, 310165, Note_on_c, 0, 102, 110
1, 310166, Note_on_c, 0, 97, 108
1, 310169, Note_on_c, 0, 39, 86
1, 310178, Note_on_c, 0, 43, 62
1, 310186, Note_off_c, 0, 97, 65
1, 310196, Note_off_c, 0, 102, 63
1, 310198, Control_c, 0, 64, 70
1, 310204, Note_off_c, 0, 43, 60
1, 310235, Note_off_c, 0, 39, 59
1, 310277, Note_on_c, 0, 31, 72
1, 310277, Note_on_c, 0, 33, 73
1, 310318, Control_c, 0, 64, 70
1, 310333, Control_c, 0, 64, 71
1, 310359, Note_off_c, 0, 31, 54
1, 310377, Note_off_c, 0, 33, 59
1, 310392, Note_on_c, 0, 45, 83
1, 310393, Note_on_c, 0, 98, 108
1, 310396, Note_on_c, 0, 93, 101
1, 310399, Control_c, 0, 64, 70
1, 310407, Note_on_c, 0, 39, 20
1, 310423, Note_off_c, 0, 45, 68
1, 310429, Control_c, 0, 64, 70
1, 310434, Note_off_c, 0, 98, 67
1, 310437, Note_off_c, 0, 93, 68
1, 310446, Note_off_c, 0, 39, 51
1, 310488, Note_on_c, 0, 40, 77
1, 310499, Note_on_c, 0, 92, 101
1, 310502, Note_on_c, 0, 97, 98
1, 310503, Control_c, 0, 64, 70
1, 310516, Note_on_c, 0, 45, 64
1, 310517, Control_c, 0, 64, 71
1, 310532, Control_c, 0, 64, 71
1, 310539, Note_off_c, 0, 45, 61
1, 310547, Control_c, 0, 64, 72
1, 310556, Note_off_c, 0, 40, 62
1, 310557, Note_off_c, 0, 92, 66
1, 310557, Note_off_c, 0, 97, 66
1, 310577, Control_c, 0, 64, 72
1, 310596, Note_on_c, 0, 42, 78
1, 310598, Note_on_c, 0, 46, 64
1, 310604, Note_on_c, 0, 93, 103
1, 310607, Note_on_c, 0, 98, 101
1, 310653, Note_off_c, 0, 93, 67
1, 310653, Note_off_c, 0, 98, 68
1, 310661, Note_off_c, 0, 46, 54
1, 310678, Note_on_c, 0, 50, 65
1, 310681, Control_c, 0, 64, 73
1, 310684, Note_on_c, 0, 45, 51
1, 310693, Note_on_c, 0, 91, 98
1, 310693, Note_on_c, 0, 96, 90
1, 310696, Control_c, 0, 64, 73
1, 310703, Note_off_c, 0, 42, 63
1, 310705, Note_on_c, 0, 95, 85
1, 310710, Control_c, 0, 64, 74
1, 310711, Note_off_c, 0, 45, 66
1, 310720, Note_off_c, 0, 95, 62
1, 310723, Note_off_c, 0, 50, 66
1, 310725, Control_c, 0, 64, 74
1, 310726, Note_off_c, 0, 96, 68
1, 310727, Note_off_c, 0, 91, 67
1, 310740, Control_c, 0, 64, 75
1, 310755, Control_c, 0, 64, 76
1, 310770, Control_c, 0, 64, 77
1, 310784, Control_c, 0, 64, 77
1, 310842, Note_on_c, 0, 79, 90
1, 310843, Control_c, 0, 64, 74
1, 310850, Note_on_c, 0, 81, 94
1, 310857, Note_on_c, 0, 84, 92
1, 310858, Control_c, 0, 64, 68
1, 310860, Note_on_c, 0, 74, 71
1, 310863, Note_on_c, 0, 66, 65
1, 310872, Note_on_c, 0, 70, 54
1, 310873, Control_c, 0, 64, 58
1, 310876, Note_off_c, 0, 79, 62
1, 310885, Note_off_c, 0, 74, 70
1, 310887, Note_off_c, 0, 81, 66
1, 310888, Control_c, 0, 64, 48
1, 310890, Note_off_c, 0, 66, 64
1, 310893, Note_off_c, 0, 70, 61
1, 310897, Note_off_c, 0, 84, 66
1, 310903, Control_c, 0, 64, 58
1, 310917, Control_c, 0, 64, 66
1, 310931, Note_on_c, 0, 75, 92
1, 310931, Note_on_c, 0, 78, 102
1, 310932, Control_c, 0, 64, 75
1, 310936, Note_on_c, 0, 66, 84
1, 310936, Note_on_c, 0, 70, 85
1, 310937, Note_on_c, 0, 87, 96
1, 310937, Note_on_c, 0, 90, 93
1, 310938, Note_on_c, 0, 82, 84
1, 310942, Note_on_c, 0, 63, 72
1, 310947, Control_c, 0, 64, 89
1, 310950, Note_off_c, 0, 78, 65
1, 310953, Note_off_c, 0, 75, 67
1, 310959, Note_off_c, 0, 70, 66
1, 310962, Control_c, 0, 64, 98
1, 310976, Note_off_c, 0, 63, 59
1, 310976, Note_off_c, 0, 90, 68
1, 310977, Control_c, 0, 64, 100
1, 310979, Note_off_c, 0, 82, 58
1, 310982, Note_off_c, 0, 66, 60
1, 310984, Note_off_c, 0, 87, 68
1, 310990, Note_on_c, 0, 62, 35
1, 311025, Note_off_c, 0, 62, 52
1, 311046, Poly_aftertouch_c, 0, 81, 0
1, 311081, Control_c, 0, 64, 99
1, 311104, Control_c, 0, 64, 92
1, 311119, Control_c, 0, 64, 81
1, 311134, Control_c, 0, 64, 68
1, 311148, Control_c, 0, 64, 53
1, 311163, Control_c, 0, 64, 56
1, 311176, Note_on_c, 0, 92, 105
1, 311178, Note_on_c, 0, 97, 109
1, 311178, Control_c, 0, 64, 64
1, 311183, Note_on_c, 0, 31, 73
1, 311185, Note_on_c, 0, 29, 84
1, 311191, Note_on_c, 0, 33, 77
1, 311193, Control_c, 0, 64, 68
1, 311208, Control_c, 0, 64, 71
1, 311216, Note_on_c, 0, 96, 43
1, 311222, Control_c, 0, 64, 73
1, 311242, Note_off_c, 0, 96, 58
1, 311244, Note_off_c, 0, 29, 62
1, 311280, Note_off_c, 0, 31, 61
1, 311287, Note_off_c, 0, 33, 59
1, 311290, Poly_aftertouch_c, 0, 94, 0
1, 311290, Note_off_c, 0, 97, 55
1, 311301, Note_on_c, 0, 45, 76
1, 311316, Note_off_c, 0, 92, 57
1, 311326, Control_c, 0, 64, 72
1, 311334, Note_off_c, 0, 45, 67
1, 311340, Control_c, 0, 64, 70
1, 311355, Control_c, 0, 64, 67
1, 311370, Control_c, 0, 64, 65
1, 311385, Control_c, 0, 64, 63
1, 311394, Note_on_c, 0, 96, 93
1, 311398, Note_on_c, 0, 91, 81
1, 311406, Note_on_c, 0, 40, 72
1, 311415, Note_on_c, 0, 45, 62
1, 311415, Control_c, 0, 64, 64
1, 311430, Control_c, 0, 64, 64
1, 311435, Note_off_c, 0, 91, 63
1, 311435, Note_off_c, 0, 96, 65
1, 311444, Note_off_c, 0, 40, 65
1, 311450, Note_off_c, 0, 45, 65
1, 311489, Control_c, 0, 64, 65
1, 311503, Note_on_c, 0, 96, 83
1, 311505, Note_on_c, 0, 46, 72
1, 311505, Note_on_c, 0, 91, 65
1, 311513, Note_on_c, 0, 42, 65
1, 311534, Note_off_c, 0, 91, 67
1, 311536, Note_off_c, 0, 96, 62
1, 311544, Note_off_c, 0, 46, 58
1, 311549, Control_c, 0, 64, 65
1, 311550, Note_off_c, 0, 42, 60
1, 311608, Control_c, 0, 64, 66
1, 311610, Note_on_c, 0, 45, 72
1, 311610, Note_on_c, 0, 50, 64
1, 311623, Note_on_c, 0, 91, 78
1, 311626, Note_on_c, 0, 96, 75
1, 311648, Note_off_c, 0, 96, 70
1, 311650, Note_off_c, 0, 91, 63
1, 311656, Note_off_c, 0, 45, 63
1, 311665, Note_off_c, 0, 50, 57
1, 311712, Control_c, 0, 64, 66
1, 311721, Note_on_c, 0, 46, 73
1, 311727, Control_c, 0, 64, 67
1, 311728, Note_on_c, 0, 42, 72
1, 311728, Note_on_c, 0, 97, 93
1, 311732, Note_on_c, 0, 92, 83
1, 311754, Note_off_c, 0, 92, 57
1, 311775, Note_on_c, 0, 93, 38
1, 311784, Note_off_c, 0, 42, 60
1, 311792, Note_off_c, 0, 46, 62
1, 311799, Note_off_c, 0, 97, 64
1, 311808, Note_off_c, 0, 93, 53
1, 311841, Note_on_c, 0, 40, 73
1, 311841, Note_on_c, 0, 45, 69
1, 311843, Note_on_c, 0, 93, 71
1, 311847, Note_on_c, 0, 98, 82
1, 311868, Note_off_c, 0, 45, 66
1, 311868, Control_c, 0, 64, 67
1, 311875, Note_off_c, 0, 40, 67
1, 311891, Note_off_c, 0, 93, 64
1, 311897, Control_c, 0, 64, 67
1, 311898, Note_off_c, 0, 98, 66
1, 311958, Note_on_c, 0, 91, 83
1, 311960, Note_on_c, 0, 96, 80
1, 311972, Note_on_c, 0, 38, 64
1, 311988, Note_off_c, 0, 91, 65
1, 311992, Note_off_c, 0, 96, 63
1, 312007, Note_off_c, 0, 38, 64
1, 312040, Poly_aftertouch_c, 0, 43, 0
1, 312058, Note_on_c, 0, 33, 75
1, 312058, Note_on_c, 0, 97, 96
1, 312059, Note_on_c, 0, 31, 74
1, 312063, Note_on_c, 0, 92, 89
1, 312076, Control_c, 0, 64, 67
1, 312110, Note_off_c, 0, 31, 56
1, 312127, Note_off_c, 0, 97, 64
1, 312131, Note_off_c, 0, 92, 63
1, 312135, Control_c, 0, 64, 68
1, 312150, Note_off_c, 0, 33, 59
1, 312163, Note_on_c, 0, 45, 78
1, 312164, Note_on_c, 0, 93, 87
1, 312164, Note_on_c, 0, 98, 90
1, 312178, Note_on_c, 0, 39, 29
1, 312179, Control_c, 0, 64, 67
1, 312203, Note_off_c, 0, 45, 65
1, 312206, Note_off_c, 0, 93, 66
1, 312216, Note_off_c, 0, 98, 67
1, 312217, Note_off_c, 0, 39, 47
1, 312266, Note_on_c, 0, 91, 90
1, 312269, Note_on_c, 0, 40, 75
1, 312273, Note_on_c, 0, 96, 88
1, 312282, Control_c, 0, 64, 67
1, 312294, Note_on_c, 0, 45, 69
1, 312312, Note_off_c, 0, 91, 67
1, 312312, Note_off_c, 0, 96, 67
1, 312332, Note_off_c, 0, 40, 62
1, 312332, Note_off_c, 0, 45, 61
1, 312342, Control_c, 0, 64, 67
1, 312365, Note_on_c, 0, 46, 78
1, 312368, Note_on_c, 0, 97, 98
1, 312372, Note_on_c, 0, 92, 97
1, 312374, Note_on_c, 0, 42, 75
1, 312386, Control_c, 0, 64, 68
1, 312428, Note_off_c, 0, 92, 64
1, 312429, Note_off_c, 0, 97, 67
1, 312446, Note_off_c, 0, 46, 60
1, 312473, Note_on_c, 0, 93, 99
1, 312476, Note_on_c, 0, 45, 81
1, 312478, Note_on_c, 0, 88, 88
1, 312485, Note_on_c, 0, 50, 67
1, 312485, Note_on_c, 0, 52, 69
1, 312488, Note_on_c, 0, 92, 45
1, 312494, Note_off_c, 0, 42, 63
1, 312500, Note_off_c, 0, 45, 69
1, 312507, Note_off_c, 0, 93, 69
1, 312515, Note_off_c, 0, 92, 59
1, 312516, Note_off_c, 0, 50, 68
1, 312520, Note_off_c, 0, 52, 66
1, 312521, Note_off_c, 0, 88, 65
1, 312632, Control_c, 0, 64, 66
1, 312646, Note_on_c, 0, 79, 88
1, 312647, Control_c, 0, 64, 64
1, 312654, Note_on_c, 0, 81, 89
1, 312657, Note_on_c, 0, 66, 72
1, 312657, Note_on_c, 0, 77, 79
1, 312658, Note_on_c, 0, 83, 96
1, 312658, Note_on_c, 0, 70, 70
1, 312662, Control_c, 0, 64, 56
1, 312670, Note_on_c, 0, 74, 39
1, 312670, Note_off_c, 0, 77, 70
1, 312673, Note_on_c, 0, 76, 51
1, 312676, Control_c, 0, 64, 58
1, 312681, Note_off_c, 0, 70, 67
1, 312681, Note_off_c, 0, 79, 65
1, 312688, Note_off_c, 0, 66, 63
1, 312689, Note_off_c, 0, 81, 66
1, 312691, Control_c, 0, 64, 65
1, 312698, Note_off_c, 0, 76, 59
1, 312698, Note_off_c, 0, 83, 68
1, 312700, Note_off_c, 0, 74, 55
1, 312706, Control_c, 0, 64, 73
1, 312720, Control_c, 0, 64, 89
1, 312734, Note_on_c, 0, 78, 105
1, 312735, Note_on_c, 0, 73, 90
1, 312735, Control_c, 0, 64, 127
1, 312736, Note_on_c, 0, 61, 21
1, 312736, Note_on_c, 0, 90, 99
1, 312737, Note_on_c, 0, 82, 100
1, 312738, Note_on_c, 0, 70, 64
1, 312739, Note_on_c, 0, 87, 98
1, 312740, Note_on_c, 0, 63, 39
1, 312747, Note_on_c, 0, 69, 72
1, 312753, Note_on_c, 0, 65, 61
1, 312757, Note_off_c, 0, 70, 65
1, 312758, Note_off_c, 0, 73, 61
1, 312761, Note_on_c, 0, 66, 39
1, 312769, Note_off_c, 0, 69, 68
1, 312771, Note_off_c, 0, 78, 63
1, 312778, Note_off_c, 0, 82, 67
1, 312782, Note_on_c, 0, 60, 64
1, 312782, Note_off_c, 0, 65, 66
1, 312788, Note_off_c, 0, 66, 56
1, 312789, Note_off_c, 0, 63, 61
1, 312794, Note_off_c, 0, 87, 64
1, 312797, Note_off_c, 0, 61, 60
1, 312798, Note_off_c, 0, 90, 68
1, 312801, Note_off_c, 0, 60, 63
1, 312942, Control_c, 0, 64, 109
1, 312957, Control_c, 0, 64, 82
1, 312971, Note_on_c, 0, 91, 103
1, 312972, Control_c, 0, 64, 67
1, 312974, Note_on_c, 0, 31, 88
1, 312977, Note_on_c, 0, 98, 99
1, 312979, Note_on_c, 0, 96, 97
1, 312981, Note_on_c, 0, 33, 80
1, 312986, Control_c, 0, 64, 46
1, 313001, Control_c, 0, 64, 39
1, 313016, Control_c, 0, 64, 55
1, 313031, Control_c, 0, 64, 62
1, 313045, Control_c, 0, 64, 64
1, 313060, Control_c, 0, 64, 65
1, 313079, Note_off_c, 0, 98, 64
1, 313079, Note_off_c, 0, 31, 59
1, 313083, Note_on_c, 0, 39, 66
1, 313089, Note_off_c, 0, 96, 59
1, 313095, Note_on_c, 0, 45, 82
1, 313096, Note_off_c, 0, 33, 60
1, 313105, Control_c, 0, 64, 64
1, 313111, Note_off_c, 0, 39, 62
1, 313119, Note_off_c, 0, 91, 60
1, 313120, Control_c, 0, 64, 64
1, 313135, Control_c, 0, 64, 62
1, 313138, Note_off_c, 0, 45, 64
1, 313149, Control_c, 0, 64, 61
1, 313164, Control_c, 0, 64, 60
1, 313179, Control_c, 0, 64, 59
1, 313194, Control_c, 0, 64, 58
1, 313206, Note_on_c, 0, 40, 71
1, 313207, Note_on_c, 0, 92, 85
1, 313207, Note_on_c, 0, 97, 89
1, 313209, Control_c, 0, 64, 58
1, 313224, Note_on_c, 0, 45, 69
1, 313249, Note_off_c, 0, 40, 62
1, 313251, Note_off_c, 0, 92, 64
1, 313251, Note_off_c, 0, 45, 66
1, 313255, Note_off_c, 0, 97, 65
1, 313268, Control_c, 0, 64, 58
1, 313298, Control_c, 0, 64, 59
1, 313304, Note_on_c, 0, 46, 74
1, 313304, Note_on_c, 0, 96, 86
1, 313304, Note_on_c, 0, 91, 84
1, 313310, Note_on_c, 0, 42, 67
1, 313334, Control_c, 0, 64, 59
1, 313349, Note_off_c, 0, 46, 61
1, 313351, Note_off_c, 0, 91, 63
1, 313352, Note_off_c, 0, 96, 66
1, 313356, Note_off_c, 0, 42, 61
1, 313364, Control_c, 0, 64, 60
1, 313409, Control_c, 0, 64, 60
1, 313414, Note_on_c, 0, 50, 69
1, 313422, Note_on_c, 0, 45, 65
1, 313423, Note_on_c, 0, 96, 81
1, 313424, Control_c, 0, 64, 61
1, 313427, Note_on_c, 0, 91, 69
1, 313454, Control_c, 0, 64, 61
1, 313456, Note_off_c, 0, 91, 65
1, 313459, Note_off_c, 0, 45, 64
1, 313464, Note_off_c, 0, 96, 62
1, 313473, Note_off_c, 0, 50, 62
1, 313483, Control_c, 0, 64, 62
1, 313524, Note_on_c, 0, 46, 69
1, 313528, Note_on_c, 0, 42, 65
1, 313536, Note_on_c, 0, 91, 81
1, 313536, Note_on_c, 0, 96, 79
1, 313543, Control_c, 0, 64, 62
1, 313564, Note_off_c, 0, 91, 65
1, 313567, Note_off_c, 0, 42, 62
1, 313572, Note_off_c, 0, 96, 63
1, 313573, Note_off_c, 0, 46, 60
1, 313603, Control_c, 0, 64, 63
1, 313634, Note_on_c, 0, 97, 83
1, 313637, Note_on_c, 0, 92, 78
1, 313638, Note_on_c, 0, 43, 53
1, 313650, Note_on_c, 0, 40, 40
1, 313655, Note_on_c, 0, 45, 28
1, 313662, Note_on_c, 0, 38, 28
1, 313668, Note_off_c, 0, 43, 55
1, 313684, Note_off_c, 0, 40, 54
1, 313692, Note_off_c, 0, 92, 63
1, 313695, Note_off_c, 0, 45, 51
1, 313696, Note_off_c, 0, 97, 65
1, 313702, Note_off_c, 0, 38, 50
1, 313739, Note_on_c, 0, 39, 76
1, 313739, Note_on_c, 0, 91, 84
1, 313743, Note_on_c, 0, 96, 85
1, 313747, Note_on_c, 0, 43, 43
1, 313784, Note_off_c, 0, 43, 37
1, 313784, Note_off_c, 0, 91, 65
1, 313787, Note_off_c, 0, 96, 65
1, 313802, Note_off_c, 0, 39, 57
1, 313842, Note_on_c, 0, 31, 68
1, 313842, Note_on_c, 0, 33, 71
1, 313842, Note_on_c, 0, 92, 90
1, 313849, Note_on_c, 0, 97, 84
1, 313868, Control_c, 0, 64, 63
1, 313893, Note_off_c, 0, 92, 65
1, 313899, Note_off_c, 0, 97, 65
1, 313904, Note_off_c, 0, 31, 50
1, 313939, Note_off_c, 0, 33, 59
1, 313950, Note_on_c, 0, 45, 78
1, 313951, Note_on_c, 0, 93, 89
1, 313951, Note_on_c, 0, 98, 92
1, 313957, Note_on_c, 0, 39, 38
1, 313957, Control_c, 0, 64, 64
1, 313974, Note_off_c, 0, 98, 68
1, 313984, Note_off_c, 0, 45, 65
1, 313993, Note_off_c, 0, 93, 65
1, 313995, Note_off_c, 0, 39, 49
1, 314051, Note_on_c, 0, 102, 101
1, 314055, Note_on_c, 0, 40, 68
1, 314059, Note_on_c, 0, 97, 87
1, 314061, Control_c, 0, 64, 64
1, 314066, Note_on_c, 0, 45, 71
1, 314092, Note_off_c, 0, 102, 67
1, 314098, Control_c, 0, 64, 65
1, 314100, Note_off_c, 0, 97, 63
1, 314103, Note_off_c, 0, 40, 60
1, 314106, Note_off_c, 0, 45, 64
1, 314128, Control_c, 0, 64, 65
1, 314163, Note_on_c, 0, 46, 75
1, 314166, Note_on_c, 0, 42, 70
1, 314171, Note_on_c, 0, 98, 100
1, 314172, Note_on_c, 0, 93, 91
1, 314204, Note_off_c, 0, 98, 66
1, 314210, Note_off_c, 0, 93, 63
1, 314223, Note_off_c, 0, 42, 61
1, 314223, Note_off_c, 0, 46, 61
1, 314247, Control_c, 0, 64, 65
1, 314270, Note_on_c, 0, 50, 73
1, 314278, Note_on_c, 0, 97, 103
1, 314279, Note_on_c, 0, 92, 99
1, 314282, Note_on_c, 0, 45, 73
1, 314323, Note_off_c, 0, 92, 67
1, 314325, Note_off_c, 0, 97, 67
1, 314335, Note_off_c, 0, 45, 63
1, 314344, Note_off_c, 0, 50, 61
1, 314384, Note_on_c, 0, 46, 76
1, 314387, Note_on_c, 0, 98, 108
1, 314388, Note_on_c, 0, 42, 76
1, 314393, Note_on_c, 0, 93, 101
1, 314412, Note_on_c, 0, 92, 64
1, 314432, Note_off_c, 0, 92, 64
1, 314454, Note_off_c, 0, 42, 62
1, 314458, Note_off_c, 0, 46, 63
1, 314493, Note_on_c, 0, 40, 79
1, 314493, Note_on_c, 0, 45, 74
1, 314517, Note_off_c, 0, 45, 67
1, 314536, Note_off_c, 0, 40, 64
1, 314565, Note_off_c, 0, 93, 60
1, 314574, Control_c, 0, 64, 64
1, 314582, Note_off_c, 0, 98, 50
1, 314607, Note_on_c, 0, 39, 78
1, 314608, Note_on_c, 0, 96, 78
1, 314609, Note_on_c, 0, 91, 76
1, 314625, Note_on_c, 0, 43, 48
1, 314632, Note_off_c, 0, 91, 69
1, 314652, Note_off_c, 0, 96, 64
1, 314656, Note_off_c, 0, 43, 53
1, 314669, Note_off_c, 0, 39, 59
1, 314707, Note_on_c, 0, 31, 72
1, 314707, Note_on_c, 0, 33, 73
1, 314716, Note_on_c, 0, 97, 88
1, 314719, Note_on_c, 0, 92, 84
1, 314737, Control_c, 0, 64, 65
1, 314761, Note_off_c, 0, 92, 62
1, 314761, Note_off_c, 0, 97, 66
1, 314771, Note_off_c, 0, 31, 58
1, 314805, Note_off_c, 0, 33, 59
1, 314808, Note_on_c, 0, 39, 63
1, 314811, Note_on_c, 0, 45, 74
1, 314815, Note_on_c, 0, 96, 87
1, 314819, Note_on_c, 0, 89, 75
1, 314845, Note_on_c, 0, 91, 53
1, 314845, Note_off_c, 0, 39, 60
1, 314852, Note_off_c, 0, 89, 65
1, 314863, Control_c, 0, 64, 65
1, 314863, Note_off_c, 0, 45, 64
1, 314866, Note_off_c, 0, 96, 67
1, 314867, Note_off_c, 0, 91, 58
1, 314932, Note_on_c, 0, 98, 101
1, 314932, Note_on_c, 0, 40, 78
1, 314938, Note_on_c, 0, 93, 85
1, 314944, Note_on_c, 0, 45, 74
1, 314970, Note_off_c, 0, 98, 66
1, 314976, Note_off_c, 0, 45, 65
1, 314976, Note_off_c, 0, 93, 62
1, 314977, Note_off_c, 0, 40, 60
1, 315030, Note_on_c, 0, 97, 93
1, 315032, Note_on_c, 0, 92, 87
1, 315034, Note_on_c, 0, 46, 78
1, 315037, Note_on_c, 0, 42, 73
1, 315041, Control_c, 0, 64, 66
1, 315076, Note_off_c, 0, 97, 67
1, 315078, Note_off_c, 0, 92, 65
1, 315093, Note_off_c, 0, 46, 62
1, 315098, Note_off_c, 0, 42, 62
1, 315138, Note_on_c, 0, 45, 85
1, 315138, Note_on_c, 0, 50, 76
1, 315140, Note_on_c, 0, 91, 94
1, 315142, Note_on_c, 0, 96, 84
1, 315160, Control_c, 0, 64, 65
1, 315176, Note_off_c, 0, 96, 62
1, 315183, Note_off_c, 0, 91, 66
1, 315186, Note_off_c, 0, 45, 65
1, 315203, Note_off_c, 0, 50, 62
1, 315234, Note_on_c, 0, 92, 95
1, 315239, Note_on_c, 0, 87, 84
1, 315240, Note_on_c, 0, 46, 78
1, 315242, Note_on_c, 0, 42, 76
1, 315285, Note_off_c, 0, 87, 64
1, 315292, Control_c, 0, 64, 66
1, 315296, Note_off_c, 0, 46, 63
1, 315298, Note_off_c, 0, 42, 63
1, 315301, Note_off_c, 0, 92, 63
1, 315336, Note_on_c, 0, 40, 84
1, 315340, Note_on_c, 0, 91, 94
1, 315342, Note_on_c, 0, 86, 92
1, 315349, Note_on_c, 0, 45, 59
1, 315351, Note_on_c, 0, 43, 65
1, 315372, Note_off_c, 0, 45, 63
1, 315376, Note_off_c, 0, 43, 61
1, 315381, Note_off_c, 0, 40, 63
1, 315381, Control_c, 0, 64, 65
1, 315383, Note_off_c, 0, 86, 66
1, 315388, Note_off_c, 0, 91, 66
1, 315444, Note_on_c, 0, 43, 68
1, 315444, Note_on_c, 0, 88, 90
1, 315445, Note_on_c, 0, 93, 100
1, 315447, Note_on_c, 0, 39, 85
1, 315448, Note_on_c, 0, 45, 57
1, 315455, Control_c, 0, 64, 66
1, 315481, Note_off_c, 0, 45, 65
1, 315483, Note_off_c, 0, 43, 62
1, 315492, Note_off_c, 0, 88, 63
1, 315496, Note_off_c, 0, 93, 66
1, 315502, Note_off_c, 0, 39, 61
1, 315514, Control_c, 0, 64, 66
1, 315529, Control_c, 0, 64, 67
1, 315540, Note_on_c, 0, 31, 82
1, 315540, Note_on_c, 0, 33, 80
1, 315544, Control_c, 0, 64, 68
1, 315549, Note_on_c, 0, 91, 102
1, 315549, Note_on_c, 0, 96, 102
1, 315559, Control_c, 0, 64, 70
1, 315574, Control_c, 0, 64, 74
1, 315596, Control_c, 0, 64, 78
1, 315597, Note_off_c, 0, 91, 69
1, 315602, Note_off_c, 0, 96, 68
1, 315611, Control_c, 0, 64, 82
1, 315626, Control_c, 0, 64, 84
1, 315637, Note_off_c, 0, 31, 58
1, 315639, Note_on_c, 0, 39, 78
1, 315640, Control_c, 0, 64, 86
1, 315648, Note_on_c, 0, 45, 85
1, 315651, Note_on_c, 0, 87, 95
1, 315651, Note_on_c, 0, 92, 92
1, 315655, Control_c, 0, 64, 86
1, 315656, Note_off_c, 0, 33, 61
1, 315670, Control_c, 0, 64, 87
1, 315677, Note_off_c, 0, 39, 60
1, 315685, Control_c, 0, 64, 87
1, 315698, Note_off_c, 0, 45, 65
1, 315705, Note_off_c, 0, 87, 65
1, 315718, Note_off_c, 0, 92, 64
1, 315749, Note_on_c, 0, 91, 77
1, 315751, Poly_aftertouch_c, 0, 92, 0
1, 315754, Note_on_c, 0, 40, 84
1, 315765, Note_on_c, 0, 45, 76
1, 315768, Note_on_c, 0, 86, 74
1, 315785, Note_off_c, 0, 86, 71
1, 315803, Control_c, 0, 64, 90
1, 315811, Note_on_c, 0, 42, 58
1, 315819, Control_c, 0, 64, 94
1, 315821, Note_off_c, 0, 91, 60
1, 315833, Note_on_c, 0, 46, 85
1, 315834, Control_c, 0, 64, 101
1, 315842, Note_off_c, 0, 40, 62
1, 315849, Control_c, 0, 64, 111
1, 315850, Note_on_c, 0, 93, 97
1, 315853, Note_on_c, 0, 86, 82
1, 315853, Note_off_c, 0, 45, 64
1, 315863, Control_c, 0, 64, 127
1, 315871, Note_off_c, 0, 42, 64
1, 315871, Note_off_c, 0, 46, 62
1, 315886, Note_off_c, 0, 93, 68
1, 315929, Note_off_c, 0, 86, 67
1, 315930, Note_on_c, 0, 92, 88
1, 315934, Note_on_c, 0, 94, 98
1, 315940, Note_on_c, 0, 99, 98
1, 315941, Note_on_c, 0, 97, 90
1, 315944, Note_on_c, 0, 93, 88
1, 315948, Note_off_c, 0, 92, 69
1, 315956, Note_off_c, 0, 94, 63
1, 315958, Note_off_c, 0, 93, 71
1, 315960, Note_off_c, 0, 97, 65
1, 315971, Note_off_c, 0, 99, 67
1, 316086, Control_c, 0, 64, 102
1, 316101, Control_c, 0, 64, 76
1, 316110, Note_on_c, 0, 71, 102
1, 316112, Note_on_c, 0, 66, 80
1, 316112, Note_on_c, 0, 79, 104
1, 316112, Note_on_c, 0, 84, 109
1, 316114, Note_on_c, 0, 76, 100
1, 316115, Control_c, 0, 64, 50
1, 316118, Note_on_c, 0, 61, 88
1, 316120, Note_on_c, 0, 63, 82
1, 316124, Note_on_c, 0, 58, 84
1, 316130, Control_c, 0, 64, 14
1, 316145, Control_c, 0, 64, 55
1, 316156, Note_off_c, 0, 76, 60
1, 316160, Control_c, 0, 64, 68
1, 316168, Note_off_c, 0, 71, 66
1, 316169, Note_off_c, 0, 58, 58
1, 316169, Note_off_c, 0, 79, 63
1, 316174, Note_off_c, 0, 66, 63
1, 316175, Control_c, 0, 64, 80
1, 316190, Control_c, 0, 64, 95
1, 316194, Note_off_c, 0, 63, 59
1, 316202, Note_off_c, 0, 61, 48
1, 316204, Control_c, 0, 64, 113
1, 316213, Note_off_c, 0, 84, 41
1, 316219, Control_c, 0, 64, 127
1, 316314, Note_on_c, 0, 70, 83
1, 316316, Note_on_c, 0, 78, 83
1, 316318, Note_on_c, 0, 81, 86
1, 316321, Note_on_c, 0, 62, 77
1, 316322, Note_on_c, 0, 65, 62
1, 316324, Note_on_c, 0, 75, 70
1, 316332, Note_on_c, 0, 68, 69
1, 316339, Note_off_c, 0, 70, 72
1, 316345, Note_on_c, 0, 59, 72
1, 316349, Note_off_c, 0, 75, 67
1, 316351, Note_off_c, 0, 78, 62
1, 316356, Note_on_c, 0, 60, 53
1, 316357, Note_off_c, 0, 65, 66
1, 316357, Note_off_c, 0, 81, 64
1, 316359, Note_off_c, 0, 68, 66
1, 316361, Note_off_c, 0, 62, 62
1, 316368, Note_off_c, 0, 59, 68
1, 316375, Control_c, 0, 64, 121
1, 316380, Note_off_c, 0, 60, 59
1, 316389, Control_c, 0, 64, 100
1, 316404, Control_c, 0, 64, 82
1, 316419, Control_c, 0, 64, 65
1, 316434, Control_c, 0, 64, 0
1, 316451, Note_on_c, 0, 96, 104
1, 316452, Note_on_c, 0, 91, 107
1, 316463, Control_c, 0, 64, 47
1, 316466, Note_on_c, 0, 31, 86
1, 316475, Note_on_c, 0, 35, 79
1, 316478, Control_c, 0, 64, 63
1, 316483, Note_off_c, 0, 91, 69
1, 316492, Note_off_c, 0, 96, 64
1, 316493, Control_c, 0, 64, 66
1, 316508, Control_c, 0, 64, 68
1, 316523, Control_c, 0, 64, 68
1, 316551, Note_on_c, 0, 91, 102
1, 316552, Control_c, 0, 64, 68
1, 316553, Note_off_c, 0, 31, 32
1, 316556, Note_on_c, 0, 96, 96
1, 316563, Note_on_c, 0, 39, 75
1, 316569, Note_off_c, 0, 35, 65
1, 316571, Note_on_c, 0, 45, 79
1, 316581, Control_c, 0, 64, 67
1, 316587, Note_off_c, 0, 39, 63
1, 316599, Note_off_c, 0, 91, 65
1, 316604, Note_off_c, 0, 45, 67
1, 316607, Note_off_c, 0, 96, 64
1, 316642, Control_c, 0, 64, 68
1, 316657, Control_c, 0, 64, 69
1, 316668, Note_on_c, 0, 88, 93
1, 316672, Note_on_c, 0, 93, 99
1, 316672, Control_c, 0, 64, 72
1, 316676, Note_on_c, 0, 40, 69
1, 316686, Control_c, 0, 64, 76
1, 316701, Control_c, 0, 64, 83
1, 316712, Note_on_c, 0, 44, 33
1, 316716, Control_c, 0, 64, 92
1, 316717, Note_off_c, 0, 88, 65
1, 316724, Note_off_c, 0, 93, 64
1, 316731, Control_c, 0, 64, 104
1, 316746, Control_c, 0, 64, 127
1, 316750, Poly_aftertouch_c, 0, 38, 127
1, 316753, Note_on_c, 0, 42, 83
1, 316761, Note_on_c, 0, 46, 82
1, 316768, Note_on_c, 0, 92, 101
1, 316792, Poly_aftertouch_c, 0, 38, 0
1, 316801, Note_off_c, 0, 44, 58
1, 316823, Note_off_c, 0, 92, 67
1, 316826, Note_off_c, 0, 42, 62
1, 316834, Note_off_c, 0, 40, 42
1, 316834, Note_off_c, 0, 46, 58
1, 316840, Note_on_c, 0, 50, 72
1, 316861, Note_on_c, 0, 95, 85
1, 316864, Note_off_c, 0, 50, 68
1, 316902, Note_on_c, 0, 96, 21
1, 316903, Note_off_c, 0, 96, 127
1, 316905, Note_off_c, 0, 95, 66
1, 316918, Note_on_c, 0, 84, 98
1, 316926, Note_on_c, 0, 92, 97
1, 316948, Note_off_c, 0, 84, 70
1, 316962, Note_on_c, 0, 93, 102
1, 316974, Note_on_c, 0, 99, 106
1, 316976, Note_on_c, 0, 96, 85
1, 316978, Note_off_c, 0, 93, 70
1, 316983, Note_off_c, 0, 92, 70
1, 316992, Note_off_c, 0, 99, 69
1, 316992, Note_on_c, 0, 90, 6
1, 316993, Note_off_c, 0, 90, 127
1, 316994, Note_off_c, 0, 96, 73
1, 317198, Control_c, 0, 64, 107
1, 317201, Note_on_c, 0, 78, 102
1, 317201, Note_on_c, 0, 75, 96
1, 317205, Note_on_c, 0, 81, 97
1, 317206, Note_on_c, 0, 70, 101
1, 317209, Note_on_c, 0, 68, 93
1, 317210, Note_on_c, 0, 80, 54
1, 317212, Control_c, 0, 64, 77
1, 317214, Note_on_c, 0, 59, 86
1, 317214, Note_on_c, 0, 65, 85
1, 317216, Note_on_c, 0, 62, 79
1, 317227, Control_c, 0, 64, 0
1, 317272, Control_c, 0, 64, 67
1, 317278, Note_off_c, 0, 75, 63
1, 317287, Control_c, 0, 64, 84
1, 317296, Note_off_c, 0, 78, 62
1, 317297, Note_off_c, 0, 81, 68
1, 317302, Control_c, 0, 64, 118
1, 317304, Note_off_c, 0, 80, 47
1, 317317, Control_c, 0, 64, 127
1, 317341, Note_off_c, 0, 65, 63
1, 317349, Note_off_c, 0, 68, 57
1, 317353, Note_off_c, 0, 59, 55
1, 317355, Note_off_c, 0, 62, 59
1, 317366, Note_off_c, 0, 70, 55
1, 317387, Note_on_c, 0, 80, 84
1, 317404, Note_off_c, 0, 80, 73
1, 317406, Note_on_c, 0, 84, 91
1, 317417, Note_on_c, 0, 87, 95
1, 317436, Note_on_c, 0, 91, 110
1, 317442, Note_on_c, 0, 86, 72
1, 317455, Note_off_c, 0, 84, 69
1, 317457, Note_off_c, 0, 86, 69
1, 317459, Note_off_c, 0, 91, 74
1, 317472, Note_off_c, 0, 87, 66
1, 317666, Note_on_c, 0, 78, 104
1, 317669, Note_on_c, 0, 73, 97
1, 317672, Note_on_c, 0, 70, 97
1, 317674, Control_c, 0, 64, 103
1, 317675, Note_on_c, 0, 58, 87
1, 317675, Note_on_c, 0, 66, 93
1, 317677, Note_on_c, 0, 63, 89
1, 317679, Note_on_c, 0, 61, 89
1, 317689, Control_c, 0, 64, 72
1, 317703, Control_c, 0, 64, 0
1, 317733, Control_c, 0, 64, 52
1, 317748, Control_c, 0, 64, 74
1, 317763, Control_c, 0, 64, 97
1, 317767, Note_off_c, 0, 73, 60
1, 317769, Note_off_c, 0, 70, 66
1, 317777, Control_c, 0, 64, 127
1, 317791, Note_off_c, 0, 78, 59
1, 317794, Note_off_c, 0, 66, 63
1, 317806, Note_off_c, 0, 63, 60
1, 317810, Note_off_c, 0, 61, 61
1, 317819, Note_off_c, 0, 58, 65
1, 318036, Control_c, 0, 64, 111
1, 318051, Note_on_c, 0, 90, 92
1, 318051, Control_c, 0, 64, 83
1, 318054, Note_on_c, 0, 85, 86
1, 318066, Control_c, 0, 64, 64
1, 318068, Note_on_c, 0, 31, 60
1, 318071, Note_on_c, 0, 33, 54
1, 318081, Control_c, 0, 64, 0
1, 318082, Note_off_c, 0, 85, 63
1, 318096, Control_c, 0, 67, 8
1, 318098, Note_off_c, 0, 90, 66
1, 318110, Control_c, 0, 67, 10
1, 318125, Control_c, 0, 67, 15
1, 318137, Note_off_c, 0, 31, 56
1, 318140, Control_c, 0, 67, 21
1, 318154, Note_on_c, 0, 39, 67
1, 318154, Control_c, 0, 67, 27
1, 318155, Note_on_c, 0, 90, 84
1, 318167, Note_on_c, 0, 85, 76
1, 318167, Note_off_c, 0, 33, 60
1, 318169, Control_c, 0, 67, 35
1, 318174, Note_on_c, 0, 45, 73
1, 318181, Note_on_c, 0, 43, 42
1, 318184, Control_c, 0, 67, 40
1, 318185, Note_off_c, 0, 39, 61
1, 318199, Control_c, 0, 67, 45
1, 318206, Note_off_c, 0, 45, 66
1, 318215, Control_c, 0, 67, 50
1, 318216, Note_off_c, 0, 43, 51
1, 318230, Control_c, 0, 67, 53
1, 318245, Control_c, 0, 64, 11
1, 318245, Control_c, 0, 67, 56
1, 318259, Control_c, 0, 64, 17
1, 318259, Control_c, 0, 67, 57
1, 318274, Control_c, 0, 64, 21
1, 318274, Control_c, 0, 67, 60
1, 318289, Note_on_c, 0, 40, 47
1, 318289, Control_c, 0, 64, 23
1, 318289, Control_c, 0, 67, 61
1, 318302, Note_on_c, 0, 45, 39
1, 318304, Control_c, 0, 67, 63
1, 318319, Control_c, 0, 67, 65
1, 318321, Note_off_c, 0, 40, 61
1, 318333, Control_c, 0, 64, 24
1, 318333, Control_c, 0, 67, 68
1, 318334, Note_off_c, 0, 45, 55
1, 318348, Control_c, 0, 67, 72
1, 318355, Note_off_c, 0, 90, 63
1, 318363, Control_c, 0, 64, 26
1, 318363, Control_c, 0, 67, 76
1, 318376, Note_on_c, 0, 46, 69
1, 318378, Control_c, 0, 67, 80
1, 318379, Note_on_c, 0, 42, 62
1, 318379, Note_on_c, 0, 91, 76
1, 318379, Note_off_c, 0, 85, 53
1, 318384, Note_on_c, 0, 86, 72
1, 318393, Control_c, 0, 64, 27
1, 318393, Control_c, 0, 67, 85
1, 318408, Control_c, 0, 67, 88
1, 318409, Note_off_c, 0, 91, 62
1, 318411, Note_off_c, 0, 86, 67
1, 318413, Note_off_c, 0, 46, 62
1, 318419, Note_off_c, 0, 42, 62
1, 318423, Control_c, 0, 67, 90
1, 318438, Control_c, 0, 64, 28
1, 318438, Control_c, 0, 67, 94
1, 318452, Control_c, 0, 64, 30
1, 318452, Control_c, 0, 67, 98
1, 318467, Control_c, 0, 64, 32
1, 318467, Control_c, 0, 67, 104
1, 318474, Note_on_c, 0, 50, 64
1, 318478, Note_on_c, 0, 45, 60
1, 318482, Note_on_c, 0, 87, 75
1, 318482, Control_c, 0, 64, 34
1, 318482, Control_c, 0, 67, 107
1, 318487, Note_on_c, 0, 92, 71
1, 318497, Control_c, 0, 64, 35
1, 318497, Control_c, 0, 67, 112
1, 318509, Note_off_c, 0, 87, 65
1, 318512, Note_off_c, 0, 92, 67
1, 318512, Control_c, 0, 64, 36
1, 318512, Control_c, 0, 67, 114
1, 318514, Note_off_c, 0, 45, 64
1, 318518, Note_off_c, 0, 50, 62
1, 318526, Control_c, 0, 67, 116
1, 318541, Control_c, 0, 64, 36
1, 318541, Control_c, 0, 67, 118
1, 318556, Control_c, 0, 64, 37
1, 318556, Control_c, 0, 67, 119
1, 318571, Control_c, 0, 64, 38
1, 318571, Control_c, 0, 67, 121
1, 318590, Note_on_c, 0, 46, 66
1, 318593, Control_c, 0, 67, 121
1, 318599, Note_on_c, 0, 92, 73
1, 318601, Note_on_c, 0, 87, 71
1, 318603, Note_on_c, 0, 42, 57
1, 318608, Control_c, 0, 67, 122
1, 318627, Note_off_c, 0, 92, 65
1, 318628, Note_off_c, 0, 87, 69
1, 318640, Note_off_c, 0, 42, 62
1, 318650, Note_off_c, 0, 46, 57
1, 318682, Control_c, 0, 64, 38
1, 318697, Control_c, 0, 64, 39
1, 318699, Note_on_c, 0, 45, 62
1, 318702, Note_on_c, 0, 40, 63
1, 318702, Note_on_c, 0, 87, 70
1, 318704, Note_on_c, 0, 92, 73
1, 318712, Control_c, 0, 64, 40
1, 318724, Note_off_c, 0, 45, 63
1, 318729, Note_off_c, 0, 87, 69
1, 318730, Note_off_c, 0, 40, 65
1, 318730, Note_off_c, 0, 92, 66
1, 318756, Control_c, 0, 64, 40
1, 318771, Control_c, 0, 64, 41
1, 318799, Note_on_c, 0, 96, 95
1, 318802, Note_on_c, 0, 91, 84
1, 318811, Note_on_c, 0, 39, 74
1, 318815, Control_c, 0, 64, 42
1, 318822, Note_off_c, 0, 96, 60
1, 318823, Note_off_c, 0, 91, 69
1, 318830, Control_c, 0, 64, 42
1, 318845, Control_c, 0, 64, 44
1, 318859, Control_c, 0, 64, 45
1, 318861, Note_off_c, 0, 39, 54
1, 318874, Control_c, 0, 64, 46
1, 318889, Control_c, 0, 64, 46
1, 318902, Note_on_c, 0, 87, 84
1, 318904, Control_c, 0, 64, 47
1, 318906, Note_on_c, 0, 33, 70
1, 318908, Note_on_c, 0, 92, 79
1, 318921, Note_on_c, 0, 31, 46
1, 318932, Control_c, 0, 64, 47
1, 318932, Control_c, 0, 67, 121
1, 318940, Note_off_c, 0, 87, 60
1, 318947, Control_c, 0, 64, 48
1, 318955, Note_off_c, 0, 92, 63
1, 318962, Note_off_c, 0, 31, 48
1, 318962, Control_c, 0, 64, 49
1, 318962, Control_c, 0, 67, 121
1, 318977, Control_c, 0, 67, 120
1, 318992, Control_c, 0, 67, 120
1, 319004, Note_on_c, 0, 39, 54
1, 319005, Note_off_c, 0, 33, 60
1, 319008, Control_c, 0, 67, 119
1, 319009, Note_on_c, 0, 86, 81
1, 319011, Note_on_c, 0, 91, 79
1, 319014, Note_on_c, 0, 45, 74
1, 319022, Control_c, 0, 67, 119
1, 319034, Note_off_c, 0, 39, 57
1, 319035, Note_off_c, 0, 86, 64
1, 319036, Note_off_c, 0, 91, 60
1, 319037, Control_c, 0, 67, 118
1, 319045, Note_off_c, 0, 45, 67
1, 319067, Control_c, 0, 67, 118
1, 319114, Note_on_c, 0, 40, 72
1, 319114, Note_on_c, 0, 93, 97
1, 319115, Note_on_c, 0, 88, 88
1, 319126, Control_c, 0, 64, 49
1, 319127, Note_on_c, 0, 45, 68
1, 319141, Note_off_c, 0, 88, 63
1, 319143, Note_off_c, 0, 93, 61
1, 319151, Note_off_c, 0, 40, 64
1, 319156, Control_c, 0, 64, 50
1, 319165, Note_off_c, 0, 45, 61
1, 319186, Control_c, 0, 64, 51
1, 319200, Control_c, 0, 64, 52
1, 319215, Control_c, 0, 64, 53
1, 319218, Note_on_c, 0, 42, 69
1, 319222, Note_on_c, 0, 46, 68
1, 319223, Note_on_c, 0, 86, 79
1, 319230, Control_c, 0, 64, 53
1, 319248, Note_off_c, 0, 86, 64
1, 319267, Note_off_c, 0, 46, 58
1, 319274, Note_off_c, 0, 42, 60
1, 319274, Control_c, 0, 64, 54
1, 319289, Control_c, 0, 64, 54
1, 319311, Note_on_c, 0, 45, 76
1, 319317, Note_on_c, 0, 91, 52
1, 319317, Note_on_c, 0, 50, 65
1, 319329, Note_on_c, 0, 87, 85
1, 319341, Control_c, 0, 64, 55
1, 319356, Control_c, 0, 64, 56
1, 319356, Control_c, 0, 67, 117
1, 319359, Note_off_c, 0, 87, 65
1, 319362, Note_off_c, 0, 91, 66
1, 319364, Note_off_c, 0, 50, 62
1, 319371, Control_c, 0, 64, 58
1, 319371, Control_c, 0, 67, 117
1, 319373, Note_off_c, 0, 45, 64
1, 319386, Control_c, 0, 64, 60
1, 319400, Control_c, 0, 64, 61
1, 319415, Control_c, 0, 64, 61
1, 319421, Note_on_c, 0, 42, 75
1, 319428, Note_on_c, 0, 46, 75
1, 319430, Control_c, 0, 64, 62
1, 319433, Note_on_c, 0, 96, 95
1, 319436, Note_on_c, 0, 91, 89
1, 319445, Control_c, 0, 64, 62
1, 319456, Note_off_c, 0, 96, 62
1, 319457, Note_off_c, 0, 91, 68
1, 319460, Control_c, 0, 64, 63
1, 319475, Control_c, 0, 64, 63
1, 319477, Note_off_c, 0, 46, 61
1, 319478, Note_off_c, 0, 42, 63
1, 319519, Control_c, 0, 64, 64
1, 319529, Note_on_c, 0, 87, 91
1, 319530, Note_on_c, 0, 40, 79
1, 319531, Note_on_c, 0, 92, 87
1, 319532, Note_on_c, 0, 45, 70
1, 319553, Note_off_c, 0, 45, 66
1, 319567, Note_off_c, 0, 40, 65
1, 319576, Note_off_c, 0, 87, 65
1, 319582, Note_off_c, 0, 92, 65
1, 319593, Control_c, 0, 64, 64
1, 319593, Control_c, 0, 67, 116
1, 319607, Control_c, 0, 67, 116
1, 319622, Control_c, 0, 67, 115
1, 319633, Note_on_c, 0, 88, 91
1, 319634, Note_on_c, 0, 93, 93
1, 319637, Note_on_c, 0, 45, 52
1, 319637, Control_c, 0, 64, 64
1, 319651, Note_on_c, 0, 43, 53
1, 319652, Control_c, 0, 67, 115
1, 319659, Note_on_c, 0, 40, 58
1, 319667, Note_off_c, 0, 88, 64
1, 319667, Control_c, 0, 67, 114
1, 319672, Note_off_c, 0, 93, 67
1, 319674, Note_off_c, 0, 45, 64
1, 319679, Note_off_c, 0, 43, 57
1, 319681, Control_c, 0, 64, 63
1, 319681, Control_c, 0, 67, 113
1, 319686, Note_off_c, 0, 40, 59
1, 319696, Control_c, 0, 67, 112
1, 319711, Control_c, 0, 67, 111
1, 319726, Control_c, 0, 67, 110
1, 319734, Note_on_c, 0, 33, 57
1, 319736, Note_on_c, 0, 91, 98
1, 319736, Note_on_c, 0, 96, 102
1, 319740, Note_on_c, 0, 35, 61
1, 319741, Control_c, 0, 67, 109
1, 319746, Note_on_c, 0, 34, 56
1, 319753, Note_on_c, 0, 31, 41
1, 319755, Control_c, 0, 67, 107
1, 319770, Control_c, 0, 67, 105
1, 319775, Note_off_c, 0, 91, 68
1, 319776, Note_off_c, 0, 96, 66
1, 319785, Control_c, 0, 64, 64
1, 319785, Control_c, 0, 67, 102
1, 319795, Note_off_c, 0, 31, 49
1, 319801, Control_c, 0, 64, 64
1, 319801, Control_c, 0, 67, 100
1, 319816, Control_c, 0, 64, 65
1, 319816, Control_c, 0, 67, 98
1, 319821, Note_off_c, 0, 34, 48
1, 319821, Note_off_c, 0, 33, 58
1, 319822, Note_off_c, 0, 35, 61
1, 319824, Note_on_c, 0, 39, 70
1, 319830, Control_c, 0, 64, 67
1, 319830, Control_c, 0, 67, 98
1, 319839, Note_on_c, 0, 47, 78
1, 319843, Note_on_c, 0, 45, 63
1, 319843, Note_on_c, 0, 91, 105
1, 319845, Note_on_c, 0, 96, 105
1, 319845, Control_c, 0, 64, 71
1, 319845, Control_c, 0, 67, 98
1, 319852, Note_off_c, 0, 39, 63
1, 319860, Control_c, 0, 64, 79
1, 319860, Control_c, 0, 67, 100
1, 319867, Note_off_c, 0, 47, 69
1, 319874, Note_off_c, 0, 45, 66
1, 319875, Control_c, 0, 64, 95
1, 319875, Control_c, 0, 67, 101
1, 319883, Note_off_c, 0, 96, 68
1, 319884, Note_off_c, 0, 91, 69
1, 319890, Control_c, 0, 64, 127
1, 319890, Control_c, 0, 67, 102
1, 319904, Control_c, 0, 67, 104
1, 319919, Control_c, 0, 67, 106
1, 319929, Note_on_c, 0, 40, 82
1, 319934, Control_c, 0, 67, 109
1, 319940, Note_on_c, 0, 45, 81
1, 319941, Note_on_c, 0, 97, 107
1, 319946, Note_on_c, 0, 92, 102
1, 319949, Control_c, 0, 67, 110
1, 319964, Control_c, 0, 67, 113
1, 319975, Note_on_c, 0, 41, 21
1, 319976, Note_off_c, 0, 41, 127
1, 319979, Control_c, 0, 67, 114
1, 319984, Note_off_c, 0, 92, 66
1, 319985, Note_off_c, 0, 97, 70
1, 319994, Control_c, 0, 67, 115
1, 320009, Control_c, 0, 67, 115
1, 320021, Note_on_c, 0, 42, 82
1, 320026, Note_on_c, 0, 46, 86
1, 320046, Note_on_c, 0, 96, 102
1, 320047, Note_on_c, 0, 91, 105
1, 320047, Note_off_c, 0, 45, 56
1, 320053, Control_c, 0, 67, 114
1, 320059, Note_off_c, 0, 40, 58
1, 320075, Control_c, 0, 67, 111
1, 320090, Control_c, 0, 67, 107
1, 320094, Note_off_c, 0, 96, 68
1, 320095, Note_off_c, 0, 91, 69
1, 320104, Control_c, 0, 67, 100
1, 320106, Note_off_c, 0, 46, 59
1, 320119, Control_c, 0, 67, 84
1, 320122, Note_on_c, 0, 45, 72
1, 320128, Note_on_c, 0, 50, 89
1, 320134, Control_c, 0, 67, 54
1, 320147, Note_off_c, 0, 42, 63
1, 320149, Control_c, 0, 67, 14
1, 320151, Note_on_c, 0, 89, 95
1, 320155, Note_on_c, 0, 88, 91
1, 320157, Note_on_c, 0, 95, 83
1, 320159, Note_on_c, 0, 93, 87
1, 320161, Note_off_c, 0, 45, 67
1, 320164, Control_c, 0, 67, 0
1, 320172, Note_off_c, 0, 88, 72
1, 320173, Note_off_c, 0, 95, 74
1, 320174, Note_off_c, 0, 50, 68
1, 320175, Note_off_c, 0, 93, 73
1, 320180, Note_off_c, 0, 89, 63
1, 320310, Note_on_c, 0, 79, 87
1, 320319, Note_on_c, 0, 70, 59
1, 320321, Note_on_c, 0, 81, 80
1, 320326, Note_on_c, 0, 84, 82
1, 320327, Control_c, 0, 64, 119
1, 320334, Note_on_c, 0, 66, 47
1, 320336, Note_on_c, 0, 76, 46
1, 320342, Note_off_c, 0, 70, 64
1, 320342, Control_c, 0, 64, 82
1, 320346, Note_off_c, 0, 79, 61
1, 320348, Note_off_c, 0, 81, 64
1, 320348, Note_off_c, 0, 84, 68
1, 320356, Control_c, 0, 64, 24
1, 320358, Note_off_c, 0, 66, 56
1, 320363, Note_off_c, 0, 76, 57
1, 320371, Control_c, 0, 64, 0
1, 320385, Note_on_c, 0, 75, 99
1, 320386, Control_c, 0, 64, 33
1, 320387, Poly_aftertouch_c, 0, 74, 0
1, 320389, Note_on_c, 0, 70, 90
1, 320391, Note_on_c, 0, 66, 80
1, 320391, Note_on_c, 0, 87, 97
1, 320392, Note_on_c, 0, 90, 100
1, 320393, Note_on_c, 0, 82, 88
1, 320396, Note_on_c, 0, 78, 92
1, 320397, Note_on_c, 0, 61, 74
1, 320400, Note_on_c, 0, 77, 87
1, 320401, Note_on_c, 0, 63, 68
1, 320401, Control_c, 0, 64, 71
1, 320405, Note_on_c, 0, 81, 83
1, 320414, Note_off_c, 0, 77, 71
1, 320416, Control_c, 0, 64, 100
1, 320425, Note_off_c, 0, 90, 69
1, 320430, Control_c, 0, 64, 127
1, 320432, Note_off_c, 0, 78, 58
1, 320442, Note_off_c, 0, 61, 63
1, 320444, Note_off_c, 0, 81, 61
1, 320444, Note_off_c, 0, 87, 67
1, 320448, Note_off_c, 0, 82, 64
1, 320453, Note_off_c, 0, 75, 65
1, 320455, Note_off_c, 0, 63, 61
1, 320456, Note_off_c, 0, 70, 64
1, 320468, Note_off_c, 0, 66, 62
1, 320502, Poly_aftertouch_c, 0, 79, 0
1, 320656, Note_on_c, 0, 76, 90
1, 320661, Note_on_c, 0, 62, 83
1, 320670, Note_on_c, 0, 66, 80
1, 320670, Note_on_c, 0, 79, 86
1, 320672, Note_on_c, 0, 81, 96
1, 320674, Note_on_c, 0, 69, 72
1, 320675, Note_on_c, 0, 74, 67
1, 320678, Note_on_c, 0, 84, 93
1, 320683, Control_c, 0, 64, 90
1, 320692, Note_off_c, 0, 79, 67
1, 320693, Note_off_c, 0, 74, 67
1, 320698, Control_c, 0, 64, 68
1, 320700, Note_off_c, 0, 62, 59
1, 320700, Note_off_c, 0, 69, 67
1, 320700, Note_off_c, 0, 76, 65
1, 320709, Note_off_c, 0, 81, 67
1, 320710, Note_off_c, 0, 84, 65
1, 320713, Control_c, 0, 64, 51
1, 320715, Note_off_c, 0, 66, 62
1, 320719, Note_on_c, 0, 77, 16
1, 320720, Note_off_c, 0, 77, 127
1, 320727, Control_c, 0, 64, 60
1, 320742, Control_c, 0, 64, 75
1, 320751, Note_on_c, 0, 75, 99
1, 320751, Note_on_c, 0, 66, 79
1, 320752, Note_on_c, 0, 78, 104
1, 320754, Note_on_c, 0, 70, 90
1, 320754, Note_on_c, 0, 87, 102
1, 320754, Note_on_c, 0, 82, 97
1, 320757, Note_on_c, 0, 90, 97
1, 320757, Control_c, 0, 64, 102
1, 320758, Note_on_c, 0, 85, 33
1, 320760, Note_on_c, 0, 61, 76
1, 320768, Note_off_c, 0, 90, 74
1, 320772, Control_c, 0, 64, 127
1, 320778, Note_off_c, 0, 75, 60
1, 320787, Note_off_c, 0, 78, 63
1, 320793, Note_on_c, 0, 89, 51
1, 320795, Note_off_c, 0, 82, 68
1, 320796, Note_off_c, 0, 70, 59
1, 320804, Note_off_c, 0, 66, 64
1, 320807, Note_off_c, 0, 85, 48
1, 320808, Note_off_c, 0, 61, 65
1, 320812, Note_off_c, 0, 87, 67
1, 320814, Note_off_c, 0, 89, 58
1, 320841, Note_on_c, 0, 90, 27
1, 320842, Note_off_c, 0, 90, 127
1, 320870, Poly_aftertouch_c, 0, 73, 0
1, 320957, Control_c, 0, 64, 107
1, 320972, Control_c, 0, 64, 75
1, 320986, Control_c, 0, 64, 0
1, 321000, Note_on_c, 0, 91, 90
1, 321004, Note_on_c, 0, 86, 84
1, 321019, Note_on_c, 0, 31, 60
1, 321019, Note_on_c, 0, 33, 53
1, 321036, Note_on_c, 0, 35, 48
1, 321046, Control_c, 0, 64, 61
1, 321048, Note_on_c, 0, 34, 38
1, 321061, Control_c, 0, 64, 68
1, 321069, Note_off_c, 0, 31, 56
1, 321076, Control_c, 0, 64, 77
1, 321091, Control_c, 0, 64, 86
1, 321099, Note_off_c, 0, 34, 48
1, 321101, Note_off_c, 0, 33, 51
1, 321102, Note_off_c, 0, 86, 51
1, 321106, Control_c, 0, 64, 94
1, 321108, Note_off_c, 0, 35, 62
1, 321110, Note_on_c, 0, 45, 81
1, 321110, Note_off_c, 0, 91, 60
1, 321120, Control_c, 0, 64, 97
1, 321135, Control_c, 0, 64, 98
1, 321150, Control_c, 0, 64, 101
1, 321153, Note_off_c, 0, 45, 64
1, 321165, Control_c, 0, 64, 106
1, 321180, Control_c, 0, 64, 124
1, 321195, Control_c, 0, 64, 127
1, 321209, Note_on_c, 0, 87, 90
1, 321213, Note_on_c, 0, 92, 87
1, 321219, Note_on_c, 0, 40, 55
1, 321251, Note_on_c, 0, 45, 56
1, 321258, Note_off_c, 0, 87, 65
1, 321269, Note_off_c, 0, 40, 61
1, 321272, Note_off_c, 0, 92, 66
1, 321289, Note_off_c, 0, 45, 50
1, 321314, Note_on_c, 0, 88, 82
1, 321317, Note_on_c, 0, 46, 80
1, 321318, Note_on_c, 0, 42, 77
1, 321319, Note_on_c, 0, 93, 78
1, 321324, Note_on_c, 0, 95, 71
1, 321338, Note_off_c, 0, 88, 66
1, 321341, Note_off_c, 0, 93, 69
1, 321341, Note_off_c, 0, 95, 69
1, 321365, Note_off_c, 0, 46, 59
1, 321374, Note_off_c, 0, 42, 61
1, 321416, Note_on_c, 0, 97, 95
1, 321417, Note_on_c, 0, 50, 77
1, 321418, Note_on_c, 0, 92, 88
1, 321418, Note_on_c, 0, 45, 79
1, 321470, Note_off_c, 0, 92, 65
1, 321472, Note_off_c, 0, 45, 64
1, 321476, Note_off_c, 0, 97, 65
1, 321487, Note_off_c, 0, 50, 62
1, 321520, Note_on_c, 0, 98, 98
1, 321521, Note_on_c, 0, 93, 93
1, 321522, Note_on_c, 0, 46, 82
1, 321525, Note_on_c, 0, 42, 79
1, 321558, Note_off_c, 0, 93, 67
1, 321559, Note_off_c, 0, 98, 70
1, 321585, Note_off_c, 0, 42, 62
1, 321593, Note_off_c, 0, 46, 64
1, 321619, Note_on_c, 0, 97, 98
1, 321623, Note_on_c, 0, 45, 83
1, 321624, Note_on_c, 0, 92, 90
1, 321630, Note_on_c, 0, 40, 82
1, 321654, Note_off_c, 0, 45, 67
1, 321660, Note_off_c, 0, 97, 68
1, 321669, Note_off_c, 0, 92, 65
1, 321673, Note_off_c, 0, 40, 65
1, 321691, Note_on_c, 0, 96, 25
1, 321720, Note_off_c, 0, 96, 0
1, 321720, Note_on_c, 0, 96, 59
1, 321728, Note_on_c, 0, 91, 95
1, 321735, Note_on_c, 0, 43, 81
1, 321754, Note_on_c, 0, 41, 65
1, 321761, Note_off_c, 0, 91, 68
1, 321766, Note_on_c, 0, 38, 55
1, 321768, Note_off_c, 0, 96, 65
1, 321776, Note_on_c, 0, 39, 35
1, 321780, Note_off_c, 0, 41, 57
1, 321783, Note_off_c, 0, 43, 61
1, 321797, Note_off_c, 0, 38, 61
1, 321824, Note_off_c, 0, 39, 48
1, 321832, Note_on_c, 0, 31, 83
1, 321833, Note_on_c, 0, 33, 81
1, 321839, Note_on_c, 0, 87, 99
1, 321847, Note_on_c, 0, 91, 95
1, 321880, Note_off_c, 0, 87, 64
1, 321888, Note_on_c, 0, 92, 14
1, 321889, Note_off_c, 0, 92, 127
1, 321889, Note_off_c, 0, 91, 63
1, 321898, Note_off_c, 0, 31, 57
1, 321925, Note_on_c, 0, 39, 73
1, 321940, Note_off_c, 0, 33, 58
1, 321941, Note_on_c, 0, 96, 101
1, 321944, Note_on_c, 0, 45, 81
1, 321946, Note_on_c, 0, 92, 72
1, 321964, Note_on_c, 0, 93, 56
1, 321965, Note_off_c, 0, 39, 59
1, 321973, Note_off_c, 0, 96, 69
1, 321977, Note_off_c, 0, 92, 64
1, 321982, Note_off_c, 0, 45, 65
1, 321985, Note_off_c, 0, 93, 61
1, 322026, Note_on_c, 0, 90, 106
1, 322029, Note_on_c, 0, 85, 100
1, 322043, Note_on_c, 0, 40, 83
1, 322056, Note_on_c, 0, 45, 75
1, 322082, Note_off_c, 0, 85, 62
1, 322089, Note_off_c, 0, 45, 58
1, 322098, Note_off_c, 0, 90, 62
1, 322127, Note_off_c, 0, 40, 42
1, 322134, Note_on_c, 0, 91, 108
1, 322141, Note_on_c, 0, 42, 78
1, 322141, Note_on_c, 0, 96, 99
1, 322142, Note_on_c, 0, 46, 84
1, 322165, Note_off_c, 0, 91, 71
1, 322177, Note_off_c, 0, 96, 64
1, 322200, Note_off_c, 0, 46, 63
1, 322205, Note_off_c, 0, 42, 62
1, 322242, Note_on_c, 0, 50, 84
1, 322245, Note_on_c, 0, 45, 86
1, 322304, Note_off_c, 0, 45, 64
1, 322313, Note_off_c, 0, 50, 61
1, 322360, Note_on_c, 0, 42, 80
1, 322360, Note_on_c, 0, 46, 86
1, 322364, Note_on_c, 0, 90, 106
1, 322368, Note_on_c, 0, 85, 94
1, 322407, Note_off_c, 0, 85, 65
1, 322424, Note_off_c, 0, 42, 62
1, 322427, Note_off_c, 0, 46, 63
1, 322429, Note_off_c, 0, 90, 63
1, 322461, Note_on_c, 0, 45, 82
1, 322465, Note_on_c, 0, 91, 104
1, 322467, Note_on_c, 0, 40, 85
1, 322468, Note_on_c, 0, 96, 100
1, 322485, Note_on_c, 0, 43, 52
1, 322493, Note_off_c, 0, 45, 67
1, 322507, Note_off_c, 0, 40, 64
1, 322511, Note_off_c, 0, 91, 66
1, 322515, Note_off_c, 0, 96, 59
1, 322520, Note_off_c, 0, 43, 57
1, 322572, Note_on_c, 0, 43, 81
1, 322589, Note_on_c, 0, 45, 59
1, 322592, Note_on_c, 0, 38, 70
1, 322602, Note_on_c, 0, 39, 48
1, 322612, Note_off_c, 0, 45, 62
1, 322617, Note_on_c, 0, 41, 30
1, 322622, Note_off_c, 0, 38, 62
1, 322628, Note_off_c, 0, 43, 62
1, 322631, Note_off_c, 0, 39, 55
1, 322652, Note_off_c, 0, 41, 54
1, 322670, Note_on_c, 0, 32, 66
1, 322676, Note_on_c, 0, 31, 78
1, 322676, Note_on_c, 0, 33, 79
1, 322677, Note_on_c, 0, 29, 77
1, 322688, Note_on_c, 0, 90, 84
1, 322691, Note_on_c, 0, 85, 98
1, 322703, Note_off_c, 0, 29, 65
1, 322742, Note_off_c, 0, 85, 61
1, 322760, Note_off_c, 0, 90, 65
1, 322773, Note_on_c, 0, 38, 77
1, 322773, Note_on_c, 0, 45, 83
1, 322775, Note_on_c, 0, 43, 72
1, 322785, Note_off_c, 0, 31, 54
1, 322787, Note_off_c, 0, 32, 60
1, 322794, Note_on_c, 0, 91, 101
1, 322797, Note_on_c, 0, 96, 97
1, 322797, Note_off_c, 0, 33, 54
1, 322802, Note_off_c, 0, 38, 63
1, 322802, Note_off_c, 0, 43, 60
1, 322816, Note_off_c, 0, 45, 67
1, 322825, Note_off_c, 0, 91, 69
1, 322828, Note_off_c, 0, 96, 68
1, 322867, Note_on_c, 0, 38, 93
1, 322868, Note_on_c, 0, 43, 93
1, 322877, Note_on_c, 0, 41, 77
1, 322889, Note_off_c, 0, 38, 71
1, 322889, Note_off_c, 0, 43, 71
1, 322903, Note_on_c, 0, 40, 34
1, 322904, Note_off_c, 0, 40, 127
1, 322906, Note_off_c, 0, 41, 64
1, 322952, Poly_aftertouch_c, 0, 40, 0
1, 323129, Note_on_c, 0, 78, 104
1, 323130, Note_on_c, 0, 73, 101
1, 323141, Note_on_c, 0, 70, 100
1, 323144, Note_on_c, 0, 58, 88
1, 323144, Note_on_c, 0, 61, 90
1, 323144, Note_on_c, 0, 63, 93
1, 323145, Control_c, 0, 64, 111
1, 323150, Note_on_c, 0, 80, 70
1, 323160, Note_on_c, 0, 65, 81
1, 323160, Control_c, 0, 64, 72
1, 323162, Note_on_c, 0, 66, 59
1, 323172, Note_off_c, 0, 80, 54
1, 323174, Control_c, 0, 64, 0
1, 323180, Note_on_c, 0, 68, 41
1, 323204, Note_off_c, 0, 66, 0
1, 323204, Note_on_c, 0, 66, 7
1, 323223, Note_off_c, 0, 68, 31
1, 323260, Note_off_c, 0, 65, 52
1, 323264, Note_off_c, 0, 66, 47
1, 323279, Control_c, 0, 64, 63
1, 323293, Control_c, 0, 64, 78
1, 323308, Control_c, 0, 64, 103
1, 323317, Note_off_c, 0, 73, 57
1, 323323, Control_c, 0, 64, 127
1, 323333, Note_off_c, 0, 78, 57
1, 323386, Note_off_c, 0, 58, 58
1, 323410, Note_off_c, 0, 70, 57
1, 323432, Note_off_c, 0, 61, 58
1, 323433, Note_off_c, 0, 63, 58
1, 323693, Note_on_c, 0, 75, 94
1, 323693, Note_on_c, 0, 84, 96
1, 323693, Note_on_c, 0, 78, 97
1, 323694, Note_on_c, 0, 70, 101
1, 323696, Note_on_c, 0, 81, 93
1, 323696, Note_on_c, 0, 59, 90
1, 323696, Note_on_c, 0, 68, 93
1, 323699, Note_on_c, 0, 65, 87
1, 323703, Note_on_c, 0, 62, 82
1, 323708, Control_c, 0, 64, 99
1, 323722, Control_c, 0, 64, 67
1, 323737, Control_c, 0, 64, 0
1, 323864, Control_c, 0, 64, 40
1, 323878, Control_c, 0, 64, 65
1, 323893, Control_c, 0, 64, 73
1, 323908, Control_c, 0, 64, 80
1, 323923, Control_c, 0, 64, 89
1, 323938, Control_c, 0, 64, 100
1, 323952, Control_c, 0, 64, 114
1, 323967, Control_c, 0, 64, 127
1, 323976, Note_off_c, 0, 84, 39
1, 324119, Note_off_c, 0, 81, 45
1, 324132, Note_off_c, 0, 75, 40
1, 324170, Note_off_c, 0, 78, 26
1, 324311, Note_off_c, 0, 59, 32
1, 324340, Note_off_c, 0, 62, 52
1, 324363, Note_off_c, 0, 65, 52
1, 324429, Note_off_c, 0, 68, 49
1, 324431, Note_off_c, 0, 70, 60
1, 324736, Note_on_c, 0, 76, 63
1, 324743, Note_on_c, 0, 74, 70
1, 324760, Note_on_c, 0, 79, 83
1, 324762, Note_on_c, 0, 69, 69
1, 324766, Note_on_c, 0, 65, 67
1, 324771, Note_on_c, 0, 62, 63
1, 324789, Note_on_c, 0, 81, 87
1, 324820, Note_on_c, 0, 85, 93
1, 324822, Note_off_c, 0, 69, 63
1, 324832, Note_off_c, 0, 62, 61
1, 324832, Note_off_c, 0, 65, 64
1, 324833, Note_off_c, 0, 74, 57
1, 324838, Note_off_c, 0, 79, 62
1, 324839, Note_on_c, 0, 66, 50
1, 324841, Note_off_c, 0, 76, 61
1, 324856, Note_off_c, 0, 81, 65
1, 324864, Note_off_c, 0, 66, 60
1, 324870, Note_off_c, 0, 85, 66
1, 324921, Note_on_c, 0, 61, 91
1, 324922, Note_on_c, 0, 66, 86
1, 324922, Note_on_c, 0, 70, 86
1, 324922, Note_on_c, 0, 75, 92
1, 324929, Note_on_c, 0, 78, 108
1, 324929, Note_on_c, 0, 87, 105
1, 324930, Note_on_c, 0, 82, 108
1, 324932, Note_on_c, 0, 90, 98
1, 324994, Note_off_c, 0, 90, 69
1, 324996, Note_off_c, 0, 75, 67
1, 325000, Note_off_c, 0, 61, 67
1, 325007, Note_off_c, 0, 87, 69
1, 325008, Note_off_c, 0, 70, 66
1, 325008, Note_off_c, 0, 66, 65
1, 325010, Note_off_c, 0, 78, 63
1, 325010, Note_off_c, 0, 82, 69
1, 325013, Control_c, 0, 64, 99
1, 325028, Control_c, 0, 64, 67
1, 325043, Control_c, 0, 64, 0
1, 325925, Control_c, 0, 64, 53
1, 325940, Control_c, 0, 64, 85
1, 325949, Note_on_c, 0, 49, 106
1, 325954, Note_on_c, 0, 37, 103
1, 325955, Control_c, 0, 64, 127
1, 325981, Note_off_c, 0, 37, 68
1, 325998, Note_off_c, 0, 49, 66
1, 326276, Note_on_c, 0, 59, 94
1, 326281, Note_on_c, 0, 51, 89
1, 326283, Note_on_c, 0, 49, 82
1, 326283, Note_on_c, 0, 54, 86
1, 326289, Note_on_c, 0, 56, 80
1, 326310, Note_off_c, 0, 49, 68
1, 326315, Note_off_c, 0, 56, 69
1, 326325, Note_off_c, 0, 54, 61
1, 326325, Note_off_c, 0, 59, 66
1, 326327, Note_off_c, 0, 51, 66
1, 326565, Note_on_c, 0, 78, 98
1, 326565, Note_on_c, 0, 85, 107
1, 326569, Note_on_c, 0, 71, 104
1, 326574, Note_on_c, 0, 63, 88
1, 326575, Note_on_c, 0, 61, 91
1, 326575, Note_on_c, 0, 68, 94
1, 326578, Note_on_c, 0, 66, 92
1, 326599, Note_off_c, 0, 78, 67
1, 326606, Note_off_c, 0, 85, 71
1, 326616, Note_off_c, 0, 61, 63
1, 326619, Note_off_c, 0, 71, 66
1, 326625, Note_off_c, 0, 68, 62
1, 326629, Note_off_c, 0, 66, 56
1, 326635, Note_off_c, 0, 63, 64
1, 327625, Note_on_c, 0, 87, 116
1, 327634, Note_on_c, 0, 73, 103
1, 327636, Note_on_c, 0, 80, 81
1, 327641, Note_on_c, 0, 63, 73
1, 327643, Note_on_c, 0, 66, 83
1, 327643, Note_on_c, 0, 71, 83
1, 327644, Note_on_c, 0, 68, 86
1, 327655, Note_off_c, 0, 80, 72
1, 327659, Note_off_c, 0, 87, 72
1, 327661, Note_off_c, 0, 63, 66
1, 327676, Note_off_c, 0, 71, 61
1, 327688, Note_off_c, 0, 73, 59
1, 327691, Note_off_c, 0, 66, 61
1, 327691, Note_off_c, 0, 68, 64
1, 327724, Poly_aftertouch_c, 0, 64, 127
1, 327755, Poly_aftertouch_c, 0, 64, 0
1, 328628, Note_on_c, 0, 90, 113
1, 328633, Note_on_c, 0, 76, 98
1, 328635, Note_on_c, 0, 83, 92
1, 328638, Note_on_c, 0, 66, 79
1, 328640, Note_on_c, 0, 68, 77
1, 328641, Note_on_c, 0, 73, 86
1, 328641, Note_on_c, 0, 71, 83
1, 328650, Note_off_c, 0, 83, 74
1, 328665, Note_off_c, 0, 90, 73
1, 328669, Note_off_c, 0, 66, 58
1, 328674, Note_off_c, 0, 73, 58
1, 328677, Note_off_c, 0, 71, 58
1, 328689, Note_off_c, 0, 68, 52
1, 328689, Note_off_c, 0, 76, 60
1, 329667, Note_on_c, 0, 92, 109
1, 329676, Note_on_c, 0, 85, 91
1, 329685, Note_on_c, 0, 78, 90
1, 329688, Note_on_c, 0, 68, 78
1, 329693, Note_on_c, 0, 73, 80
1, 329693, Note_off_c, 0, 85, 71
1, 329696, Note_on_c, 0, 71, 72
1, 329698, Note_on_c, 0, 76, 73
1, 329715, Note_off_c, 0, 92, 71
1, 329721, Note_off_c, 0, 76, 66
1, 329726, Note_off_c, 0, 71, 58
1, 329739, Note_off_c, 0, 68, 61
1, 329743, Note_off_c, 0, 78, 62
1, 329755, Note_off_c, 0, 73, 61
1, 330540, Note_on_c, 0, 61, 88
1, 330724, Note_on_c, 0, 94, 94
1, 330727, Note_on_c, 0, 80, 90
1, 330727, Note_on_c, 0, 88, 97
1, 330728, Note_on_c, 0, 63, 58
1, 330729, Note_on_c, 0, 73, 96
1, 330734, Note_on_c, 0, 70, 82
1, 330736, Control_c, 0, 64, 123
1, 330738, Note_on_c, 0, 66, 81
1, 330751, Control_c, 0, 64, 97
1, 330765, Control_c, 0, 64, 90
1, 330795, Control_c, 0, 64, 94
1, 330810, Control_c, 0, 64, 104
1, 330825, Control_c, 0, 64, 127
1, 330909, Note_off_c, 0, 80, 60
1, 330919, Note_off_c, 0, 88, 60
1, 330931, Note_off_c, 0, 73, 58
1, 330934, Note_off_c, 0, 94, 61
1, 330967, Note_off_c, 0, 61, 53
1, 331169, Note_on_c, 0, 75, 91
1, 331172, Note_on_c, 0, 90, 93
1, 331172, Note_on_c, 0, 95, 90
1, 331175, Note_on_c, 0, 82, 89
1, 331206, Note_off_c, 0, 75, 68
1, 331208, Note_off_c, 0, 70, 62
1, 331231, Note_off_c, 0, 66, 59
1, 331234, Note_off_c, 0, 63, 60
1, 331396, Note_on_c, 0, 49, 86
1, 331398, Note_on_c, 0, 58, 88
1, 331408, Note_on_c, 0, 54, 84
1, 331436, Note_off_c, 0, 54, 67
1, 331437, Note_off_c, 0, 49, 63
1, 331450, Note_off_c, 0, 58, 66
1, 331545, Note_off_c, 0, 95, 62
1, 331548, Note_on_c, 0, 61, 71
1, 331563, Note_on_c, 0, 65, 56
1, 331565, Note_on_c, 0, 66, 53
1, 331568, Note_off_c, 0, 61, 64
1, 331569, Note_off_c, 0, 82, 49
1, 331583, Note_off_c, 0, 65, 62
1, 331587, Note_on_c, 0, 63, 19
1, 331590, Note_off_c, 0, 66, 58
1, 331628, Note_off_c, 0, 63, 52
1, 331669, Note_off_c, 0, 90, 33
1, 331694, Note_on_c, 0, 73, 77
1, 331697, Note_on_c, 0, 70, 55
1, 331719, Note_off_c, 0, 70, 62
1, 331767, Note_on_c, 0, 75, 49
1, 331795, Note_on_c, 0, 74, 17
1, 331801, Note_off_c, 0, 75, 34
1, 331843, Note_off_c, 0, 74, 51
1, 331852, Note_on_c, 0, 81, 93
1, 331855, Note_on_c, 0, 97, 103
1, 331856, Note_on_c, 0, 91, 101
1, 331857, Note_on_c, 0, 84, 98
1, 331863, Note_on_c, 0, 75, 56
1, 331928, Note_off_c, 0, 84, 62
1, 331929, Note_off_c, 0, 97, 70
1, 331968, Note_off_c, 0, 91, 57
1, 332439, Note_off_c, 0, 81, 45
1, 332603, Note_off_c, 0, 75, 37
1, 333338, Note_off_c, 0, 73, 33
1, 333774, Note_on_c, 0, 60, 95
1, 333850, Control_c, 0, 64, 97
1, 333865, Control_c, 0, 64, 70
1, 333880, Control_c, 0, 64, 0
1, 333891, Poly_aftertouch_c, 0, 82, 0
1, 333901, Note_on_c, 0, 82, 78
1, 333903, Note_on_c, 0, 74, 98
1, 333906, Note_on_c, 0, 66, 84
1, 333906, Note_on_c, 0, 95, 101
1, 333907, Note_on_c, 0, 90, 95
1, 333909, Note_on_c, 0, 69, 87
1, 333909, Control_c, 0, 64, 47
1, 333924, Control_c, 0, 64, 67
1, 333939, Control_c, 0, 64, 76
1, 333954, Control_c, 0, 64, 92
1, 333969, Control_c, 0, 64, 127
1, 333994, Note_off_c, 0, 82, 64
1, 334007, Note_off_c, 0, 95, 61
1, 334044, Note_off_c, 0, 60, 58
1, 334050, Note_off_c, 0, 90, 61
1, 334073, Note_off_c, 0, 74, 62
1, 334358, Note_on_c, 0, 77, 93
1, 334368, Note_on_c, 0, 84, 98
1, 334369, Note_on_c, 0, 92, 98
1, 334369, Note_on_c, 0, 98, 93
1, 334383, Note_on_c, 0, 96, 80
1, 334389, Note_off_c, 0, 77, 68
1, 334404, Note_off_c, 0, 69, 64
1, 334420, Note_off_c, 0, 66, 66
1, 334442, Note_off_c, 0, 96, 0
1, 334479, Poly_aftertouch_c, 0, 96, 127
1, 334516, Poly_aftertouch_c, 0, 96, 0
1, 334654, Note_on_c, 0, 57, 69
1, 334659, Note_on_c, 0, 54, 85
1, 334660, Note_on_c, 0, 48, 83
1, 334660, Note_on_c, 0, 62, 93
1, 334679, Poly_aftertouch_c, 0, 94, 127
1, 334686, Note_off_c, 0, 48, 67
1, 334700, Note_off_c, 0, 57, 63
1, 334704, Note_off_c, 0, 54, 65
1, 334717, Note_off_c, 0, 62, 64
1, 334836, Note_on_c, 0, 69, 91
1, 334851, Note_on_c, 0, 64, 72
1, 334858, Note_on_c, 0, 62, 54
1, 334863, Note_on_c, 0, 60, 49
1, 334874, Note_on_c, 0, 66, 33
1, 334875, Note_off_c, 0, 62, 66
1, 334875, Note_off_c, 0, 64, 69
1, 334883, Note_off_c, 0, 60, 63
1, 334886, Note_off_c, 0, 69, 63
1, 334898, Note_off_c, 0, 84, 54
1, 334909, Note_off_c, 0, 66, 51
1, 334920, Note_off_c, 0, 92, 61
1, 334927, Note_off_c, 0, 98, 64
1, 334935, Poly_aftertouch_c, 0, 94, 0
1, 334994, Note_on_c, 0, 74, 82
1, 334997, Note_on_c, 0, 72, 76
1, 335144, Note_on_c, 0, 101, 94
1, 335146, Note_on_c, 0, 84, 105
1, 335146, Note_on_c, 0, 88, 99
1, 335147, Note_on_c, 0, 94, 103
1, 335159, Note_off_c, 0, 72, 34
1, 335182, Note_off_c, 0, 74, 66
1, 335184, Note_off_c, 0, 84, 69
1, 335256, Poly_aftertouch_c, 0, 75, 0
1, 336211, Note_off_c, 0, 101, 32
1, 336389, Note_off_c, 0, 94, 36
1, 336451, Note_off_c, 0, 88, 56
1, 336995, Control_c, 0, 64, 105
1, 337009, Control_c, 0, 64, 76
1, 337024, Control_c, 0, 64, 40
1, 337029, Note_on_c, 0, 59, 80
1, 337031, Note_on_c, 0, 71, 98
1, 337037, Note_on_c, 0, 66, 83
1, 337037, Note_on_c, 0, 68, 84
1, 337039, Control_c, 0, 64, 0
1, 337050, Note_on_c, 0, 63, 64
1, 337054, Control_c, 0, 64, 60
1, 337069, Control_c, 0, 64, 80
1, 337078, Note_off_c, 0, 63, 65
1, 337081, Note_off_c, 0, 59, 62
1, 337083, Control_c, 0, 64, 127
1, 337092, Note_off_c, 0, 66, 63
1, 337097, Note_off_c, 0, 68, 62
1, 337121, Note_off_c, 0, 71, 67
1, 337184, Note_on_c, 0, 84, 100
1, 337185, Note_on_c, 0, 98, 104
1, 337187, Note_on_c, 0, 92, 102
1, 337193, Note_on_c, 0, 75, 101
1, 337214, Note_off_c, 0, 84, 70
1, 337222, Note_off_c, 0, 98, 70
1, 337223, Note_on_c, 0, 97, 43
1, 337229, Note_off_c, 0, 92, 69
1, 337253, Note_off_c, 0, 97, 36
1, 337657, Note_on_c, 0, 88, 99
1, 337657, Note_on_c, 0, 101, 103
1, 337659, Note_on_c, 0, 78, 101
1, 337660, Note_on_c, 0, 94, 100
1, 337668, Note_off_c, 0, 75, 62
1, 337697, Note_off_c, 0, 78, 70
1, 337805, Note_off_c, 0, 101, 62
1, 337825, Note_off_c, 0, 94, 61
1, 337842, Note_off_c, 0, 88, 61
1, 338082, Note_on_c, 0, 35, 89
1, 338082, Note_on_c, 0, 47, 96
1, 338151, Note_off_c, 0, 35, 63
1, 338177, Note_off_c, 0, 47, 68
1, 338360, Note_on_c, 0, 56, 99
1, 338365, Note_on_c, 0, 47, 85
1, 338383, Note_on_c, 0, 54, 61
1, 338402, Note_off_c, 0, 47, 63
1, 338419, Note_off_c, 0, 54, 63
1, 338426, Note_off_c, 0, 56, 64
1, 338489, Note_on_c, 0, 59, 98
1, 338491, Note_on_c, 0, 68, 91
1, 338493, Note_on_c, 0, 63, 86
1, 338496, Note_on_c, 0, 61, 89
1, 338520, Note_off_c, 0, 59, 68
1, 338543, Note_off_c, 0, 68, 67
1, 338544, Note_off_c, 0, 61, 66
1, 338556, Note_off_c, 0, 63, 65
1, 338577, Note_on_c, 0, 69, 47
1, 338598, Note_on_c, 0, 72, 109
1, 338605, Note_off_c, 0, 69, 56
1, 338622, Note_off_c, 0, 72, 73
1, 338775, Note_on_c, 0, 93, 104
1, 338776, Note_on_c, 0, 106, 115
1, 338781, Note_on_c, 0, 84, 110
1, 338809, Note_off_c, 0, 84, 72
1, 338809, Note_off_c, 0, 93, 65
1, 338812, Note_off_c, 0, 106, 69
1, 342145, Control_c, 0, 64, 92
1, 342161, Control_c, 0, 64, 73
1, 342176, Control_c, 0, 64, 43
1, 342191, Control_c, 0, 64, 0
1, 342279, Note_on_c, 0, 87, 104
1, 342280, Note_on_c, 0, 61, 80
1, 342280, Control_c, 0, 64, 56
1, 342294, Control_c, 0, 64, 72
1, 342309, Control_c, 0, 64, 85
1, 342324, Control_c, 0, 64, 108
1, 342338, Control_c, 0, 64, 127
1, 342371, Note_off_c, 0, 61, 61
1, 342389, Note_on_c, 0, 62, 69
1, 342419, Note_on_c, 0, 85, 87
1, 342429, Note_off_c, 0, 87, 62
1, 342450, Note_off_c, 0, 62, 59
1, 342467, Note_on_c, 0, 61, 70
1, 342495, Note_off_c, 0, 85, 64
1, 342505, Note_on_c, 0, 81, 87
1, 342524, Note_off_c, 0, 61, 63
1, 342554, Note_on_c, 0, 62, 66
1, 342560, Note_off_c, 0, 81, 65
1, 342579, Note_on_c, 0, 86, 70
1, 342588, Note_off_c, 0, 62, 61
1, 342589, Note_on_c, 0, 84, 66
1, 342605, Note_off_c, 0, 84, 66
1, 342608, Note_off_c, 0, 86, 66
1, 342610, Note_on_c, 0, 61, 72
1, 342638, Note_on_c, 0, 82, 94
1, 342667, Note_off_c, 0, 61, 63
1, 342688, Note_on_c, 0, 62, 67
1, 342705, Note_on_c, 0, 87, 65
1, 342705, Note_off_c, 0, 82, 63
1, 342719, Note_on_c, 0, 86, 71
1, 342726, Note_off_c, 0, 87, 65
1, 342728, Note_off_c, 0, 62, 58
1, 342742, Note_off_c, 0, 86, 69
1, 342747, Note_on_c, 0, 61, 76
1, 342760, Note_on_c, 0, 76, 78
1, 342806, Note_off_c, 0, 76, 62
1, 342813, Note_off_c, 0, 61, 62
1, 342815, Note_on_c, 0, 85, 88
1, 342830, Note_on_c, 0, 62, 71
1, 342858, Note_off_c, 0, 85, 64
1, 342866, Note_on_c, 0, 61, 63
1, 342886, Note_on_c, 0, 81, 87
1, 342899, Note_off_c, 0, 61, 61
1, 342923, Note_off_c, 0, 62, 60
1, 342938, Note_off_c, 0, 81, 65
1, 342945, Note_on_c, 0, 87, 87
1, 342951, Note_on_c, 0, 91, 84
1, 342953, Control_c, 0, 64, 106
1, 342969, Control_c, 0, 64, 78
1, 342984, Note_on_c, 0, 66, 83
1, 342984, Control_c, 0, 64, 47
1, 342992, Note_off_c, 0, 87, 66
1, 342999, Control_c, 0, 64, 0
1, 343000, Note_off_c, 0, 91, 66
1, 343000, Note_on_c, 0, 80, 90
1, 343014, Control_c, 0, 64, 55
1, 343029, Control_c, 0, 64, 67
1, 343032, Note_off_c, 0, 80, 66
1, 343036, Note_off_c, 0, 66, 61
1, 343043, Control_c, 0, 64, 75
1, 343052, Note_on_c, 0, 67, 67
1, 343058, Control_c, 0, 64, 82
1, 343073, Control_c, 0, 64, 90
1, 343082, Note_off_c, 0, 67, 62
1, 343087, Control_c, 0, 64, 93
1, 343108, Note_on_c, 0, 66, 74
1, 343161, Control_c, 0, 64, 93
1, 343170, Note_off_c, 0, 66, 61
1, 343182, Note_on_c, 0, 67, 73
1, 343203, Poly_aftertouch_c, 0, 66, 0
1, 343213, Note_on_c, 0, 66, 55
1, 343221, Control_c, 0, 64, 89
1, 343236, Control_c, 0, 64, 79
1, 343243, Note_off_c, 0, 66, 61
1, 343251, Control_c, 0, 64, 66
1, 343251, Note_off_c, 0, 67, 57
1, 343266, Control_c, 0, 64, 52
1, 343287, Control_c, 0, 64, 59
1, 343302, Control_c, 0, 64, 67
1, 343310, Note_on_c, 0, 86, 96
1, 343317, Control_c, 0, 64, 76
1, 343323, Note_on_c, 0, 70, 81
1, 343332, Control_c, 0, 64, 88
1, 343347, Control_c, 0, 64, 110
1, 343362, Control_c, 0, 64, 127
1, 343380, Note_off_c, 0, 70, 63
1, 343405, Note_on_c, 0, 71, 70
1, 343437, Note_on_c, 0, 87, 93
1, 343441, Note_off_c, 0, 71, 60
1, 343467, Note_on_c, 0, 70, 78
1, 343471, Note_off_c, 0, 86, 59
1, 343522, Note_on_c, 0, 81, 85
1, 343522, Note_off_c, 0, 70, 64
1, 343539, Note_on_c, 0, 71, 75
1, 343539, Note_off_c, 0, 87, 57
1, 343591, Note_off_c, 0, 71, 64
1, 343597, Note_off_c, 0, 81, 62
1, 343605, Note_on_c, 0, 86, 88
1, 343612, Note_on_c, 0, 70, 85
1, 343667, Note_on_c, 0, 91, 84
1, 343673, Note_off_c, 0, 70, 65
1, 343680, Note_off_c, 0, 86, 65
1, 343692, Note_on_c, 0, 71, 77
1, 343739, Note_off_c, 0, 91, 63
1, 343741, Note_off_c, 0, 71, 62
1, 343749, Note_on_c, 0, 77, 82
1, 343757, Note_on_c, 0, 70, 84
1, 343764, Note_on_c, 0, 87, 84
1, 343809, Note_off_c, 0, 77, 61
1, 343820, Note_off_c, 0, 70, 64
1, 343836, Note_off_c, 0, 87, 66
1, 343837, Note_on_c, 0, 83, 80
1, 343838, Note_on_c, 0, 71, 79
1, 343885, Note_off_c, 0, 71, 63
1, 343886, Note_on_c, 0, 93, 76
1, 343889, Note_on_c, 0, 91, 79
1, 343902, Note_on_c, 0, 70, 85
1, 343914, Note_off_c, 0, 93, 65
1, 343924, Note_on_c, 0, 86, 65
1, 343929, Note_off_c, 0, 83, 55
1, 343936, Note_off_c, 0, 91, 64
1, 343965, Note_off_c, 0, 86, 62
1, 343967, Note_on_c, 0, 77, 81
1, 343977, Note_off_c, 0, 70, 62
1, 343978, Note_on_c, 0, 71, 79
1, 343981, Note_on_c, 0, 79, 61
1, 344014, Note_off_c, 0, 77, 65
1, 344016, Note_on_c, 0, 85, 93
1, 344021, Note_off_c, 0, 79, 46
1, 344027, Note_off_c, 0, 71, 65
1, 344061, Note_off_c, 0, 85, 61
1, 344099, Note_on_c, 0, 73, 94
1, 344122, Note_on_c, 0, 95, 94
1, 344126, Control_c, 0, 64, 105
1, 344141, Note_on_c, 0, 97, 59
1, 344141, Control_c, 0, 64, 104
1, 344142, Note_on_c, 0, 100, 62
1, 344146, Note_on_c, 0, 101, 44
1, 344156, Control_c, 0, 64, 115
1, 344160, Note_off_c, 0, 100, 65
1, 344161, Note_off_c, 0, 73, 60
1, 344161, Note_off_c, 0, 97, 63
1, 344165, Note_off_c, 0, 95, 67
1, 344171, Control_c, 0, 64, 127
1, 344172, Note_off_c, 0, 101, 36
1, 344175, Note_on_c, 0, 74, 87
1, 344199, Note_on_c, 0, 86, 81
1, 344222, Note_off_c, 0, 74, 68
1, 344237, Note_on_c, 0, 92, 96
1, 344244, Note_on_c, 0, 73, 97
1, 344247, Note_off_c, 0, 86, 63
1, 344270, Note_off_c, 0, 92, 68
1, 344293, Note_off_c, 0, 73, 64
1, 344305, Note_on_c, 0, 74, 78
1, 344323, Note_off_c, 0, 74, 74
1, 344333, Control_c, 0, 64, 84
1, 344348, Control_c, 0, 64, 65
1, 344361, Note_on_c, 0, 78, 103
1, 344363, Control_c, 0, 64, 64
1, 344377, Control_c, 0, 64, 72
1, 344392, Control_c, 0, 64, 91
1, 344401, Note_off_c, 0, 78, 62
1, 344407, Control_c, 0, 64, 127
1, 344434, Note_on_c, 0, 79, 85
1, 344482, Note_on_c, 0, 78, 92
1, 344484, Note_off_c, 0, 79, 63
1, 344510, Control_c, 0, 64, 114
1, 344525, Control_c, 0, 64, 94
1, 344527, Note_on_c, 0, 79, 61
1, 344533, Note_off_c, 0, 78, 67
1, 344535, Note_on_c, 0, 82, 95
1, 344540, Control_c, 0, 64, 93
1, 344547, Note_off_c, 0, 79, 66
1, 344555, Control_c, 0, 64, 111
1, 344571, Control_c, 0, 64, 127
1, 344580, Note_on_c, 0, 83, 73
1, 344584, Note_off_c, 0, 82, 65
1, 344585, Note_on_c, 0, 84, 70
1, 344612, Note_off_c, 0, 84, 62
1, 344622, Note_off_c, 0, 83, 65
1, 344644, Note_on_c, 0, 82, 80
1, 344673, Note_on_c, 0, 83, 74
1, 344678, Note_on_c, 0, 84, 67
1, 344681, Note_off_c, 0, 82, 64
1, 344702, Note_off_c, 0, 84, 64
1, 344708, Note_off_c, 0, 83, 68
1, 344719, Note_on_c, 0, 82, 87
1, 344738, Note_off_c, 0, 82, 70
1, 344756, Note_on_c, 0, 83, 57
1, 344761, Note_on_c, 0, 87, 93
1, 344771, Note_on_c, 0, 89, 72
1, 344773, Note_on_c, 0, 88, 83
1, 344774, Note_off_c, 0, 83, 68
1, 344803, Note_off_c, 0, 89, 64
1, 344807, Note_off_c, 0, 88, 63
1, 344815, Note_off_c, 0, 87, 63
1, 344839, Note_on_c, 0, 89, 75
1, 344860, Note_on_c, 0, 88, 73
1, 344860, Note_on_c, 0, 87, 82
1, 344899, Note_off_c, 0, 89, 61
1, 344902, Note_off_c, 0, 88, 65
1, 344912, Note_off_c, 0, 87, 68
1, 344946, Note_on_c, 0, 94, 102
1, 344964, Note_on_c, 0, 105, 103
1, 344974, Note_off_c, 0, 94, 71
1, 344979, Note_off_c, 0, 105, 71
1, 345008, Control_c, 0, 67, 13
1, 345022, Control_c, 0, 67, 25
1, 345037, Control_c, 0, 67, 40
1, 345052, Control_c, 0, 64, 95
1, 345052, Control_c, 0, 67, 56
1, 345066, Control_c, 0, 64, 77
1, 345066, Control_c, 0, 67, 73
1, 345081, Control_c, 0, 64, 62
1, 345081, Control_c, 0, 67, 90
1, 345096, Control_c, 0, 64, 0
1, 345096, Control_c, 0, 67, 104
1, 345111, Control_c, 0, 67, 116
1, 345126, Control_c, 0, 67, 122
1, 345141, Control_c, 0, 67, 127
1, 345245, Control_c, 0, 64, 21
1, 345259, Control_c, 0, 64, 46
1, 345274, Control_c, 0, 64, 63
1, 345289, Control_c, 0, 64, 68
1, 345304, Control_c, 0, 64, 74
1, 345319, Control_c, 0, 64, 79
1, 345333, Control_c, 0, 64, 84
1, 345348, Control_c, 0, 64, 89
1, 345364, Control_c, 0, 64, 95
1, 345379, Control_c, 0, 64, 103
1, 345394, Control_c, 0, 64, 118
1, 345409, Control_c, 0, 64, 127
1, 345565, Note_on_c, 0, 97, 49
1, 345566, Note_on_c, 0, 102, 51
1, 345568, Note_on_c, 0, 85, 43
1, 345568, Note_on_c, 0, 99, 48
1, 345569, Note_on_c, 0, 104, 51
1, 345679, Note_off_c, 0, 85, 60
1, 345719, Note_on_c, 0, 86, 34
1, 345761, Note_off_c, 0, 86, 47
1, 345790, Note_off_c, 0, 102, 54
1, 345793, Note_off_c, 0, 104, 61
1, 345796, Note_on_c, 0, 91, 55
1, 345799, Note_on_c, 0, 93, 54
1, 345804, Note_on_c, 0, 85, 56
1, 345809, Note_off_c, 0, 99, 54
1, 345819, Note_off_c, 0, 97, 62
1, 345844, Note_off_c, 0, 85, 61
1, 345880, Note_off_c, 0, 93, 50
1, 345906, Note_on_c, 0, 86, 36
1, 345916, Note_off_c, 0, 91, 38
1, 345945, Note_off_c, 0, 86, 51
1, 345969, Note_on_c, 0, 85, 59
1, 345970, Note_on_c, 0, 88, 57
1, 345970, Note_on_c, 0, 89, 64
1, 346014, Note_off_c, 0, 89, 53
1, 346026, Note_off_c, 0, 88, 50
1, 346027, Note_off_c, 0, 85, 61
1, 346060, Note_on_c, 0, 86, 50
1, 346085, Note_on_c, 0, 91, 71
1, 346111, Note_off_c, 0, 86, 56
1, 346159, Note_on_c, 0, 85, 62
1, 346168, Note_off_c, 0, 91, 57
1, 346202, Note_on_c, 0, 99, 69
1, 346205, Note_on_c, 0, 97, 66
1, 346207, Note_on_c, 0, 102, 69
1, 346210, Note_on_c, 0, 94, 59
1, 346218, Note_off_c, 0, 85, 62
1, 346249, Note_on_c, 0, 86, 52
1, 346276, Note_off_c, 0, 102, 62
1, 346293, Note_off_c, 0, 97, 63
1, 346294, Note_off_c, 0, 99, 59
1, 346294, Note_off_c, 0, 94, 63
1, 346300, Note_off_c, 0, 86, 60
1, 346327, Note_on_c, 0, 89, 61
1, 346345, Note_on_c, 0, 85, 63
1, 346371, Note_off_c, 0, 89, 59
1, 346380, Note_off_c, 0, 85, 63
1, 346410, Note_on_c, 0, 86, 67
1, 346411, Note_on_c, 0, 88, 76
1, 346419, Poly_aftertouch_c, 0, 91, 0
1, 346429, Note_on_c, 0, 89, 58
1, 346450, Note_off_c, 0, 89, 58
1, 346455, Note_off_c, 0, 88, 64
1, 346459, Note_off_c, 0, 86, 59
1, 346488, Note_on_c, 0, 85, 67
1, 346512, Note_on_c, 0, 89, 76
1, 346526, Note_off_c, 0, 85, 63
1, 346564, Note_off_c, 0, 89, 58
1, 346569, Note_on_c, 0, 86, 59
1, 346579, Note_on_c, 0, 97, 74
1, 346581, Note_on_c, 0, 92, 71
1, 346582, Note_on_c, 0, 94, 74
1, 346583, Note_on_c, 0, 99, 69
1, 346591, Note_off_c, 0, 86, 62
1, 346617, Note_off_c, 0, 99, 62
1, 346624, Note_on_c, 0, 85, 70
1, 346631, Note_off_c, 0, 97, 64
1, 346632, Note_off_c, 0, 92, 65
1, 346635, Note_off_c, 0, 94, 62
1, 346651, Note_off_c, 0, 85, 66
1, 346681, Note_on_c, 0, 88, 64
1, 346681, Note_on_c, 0, 89, 47
1, 346687, Note_on_c, 0, 86, 60
1, 346703, Note_off_c, 0, 88, 66
1, 346706, Note_off_c, 0, 89, 56
1, 346743, Note_on_c, 0, 88, 71
1, 346750, Note_on_c, 0, 85, 72
1, 346759, Note_off_c, 0, 86, 66
1, 346766, Note_off_c, 0, 88, 69
1, 346798, Note_off_c, 0, 85, 64
1, 346816, Note_on_c, 0, 86, 58
1, 346819, Note_on_c, 0, 88, 65
1, 346831, Note_on_c, 0, 89, 49
1, 346847, Note_off_c, 0, 88, 65
1, 346849, Note_off_c, 0, 86, 62
1, 346856, Note_off_c, 0, 89, 54
1, 346866, Note_on_c, 0, 90, 84
1, 346867, Note_on_c, 0, 92, 82
1, 346870, Note_on_c, 0, 94, 79
1, 346872, Note_on_c, 0, 85, 73
1, 346875, Note_on_c, 0, 97, 71
1, 346902, Note_off_c, 0, 97, 66
1, 346914, Note_off_c, 0, 90, 63
1, 346917, Note_off_c, 0, 85, 66
1, 346918, Note_off_c, 0, 92, 65
1, 346923, Note_off_c, 0, 94, 61
1, 346940, Note_on_c, 0, 86, 74
1, 346940, Note_on_c, 0, 88, 72
1, 346973, Note_off_c, 0, 88, 63
1, 346995, Note_on_c, 0, 85, 79
1, 347007, Note_on_c, 0, 84, 72
1, 347037, Note_off_c, 0, 84, 71
1, 347054, Note_off_c, 0, 85, 66
1, 347090, Note_on_c, 0, 88, 75
1, 347108, Note_on_c, 0, 85, 74
1, 347117, Note_off_c, 0, 88, 62
1, 347135, Note_on_c, 0, 87, 87
1, 347138, Note_on_c, 0, 92, 79
1, 347141, Note_on_c, 0, 90, 82
1, 347141, Note_off_c, 0, 86, 65
1, 347149, Note_on_c, 0, 94, 67
1, 347164, Note_off_c, 0, 85, 65
1, 347170, Note_off_c, 0, 94, 59
1, 347187, Note_off_c, 0, 92, 65
1, 347188, Note_off_c, 0, 87, 62
1, 347189, Note_off_c, 0, 90, 65
1, 347215, Note_on_c, 0, 84, 69
1, 347238, Note_off_c, 0, 84, 68
1, 347266, Note_on_c, 0, 83, 86
1, 347274, Poly_aftertouch_c, 0, 86, 127
1, 347281, Note_on_c, 0, 84, 79
1, 347299, Note_off_c, 0, 84, 71
1, 347302, Note_off_c, 0, 83, 65
1, 347305, Poly_aftertouch_c, 0, 86, 0
1, 347345, Note_on_c, 0, 83, 63
1, 347367, Note_on_c, 0, 84, 45
1, 347370, Note_off_c, 0, 83, 67
1, 347388, Note_off_c, 0, 84, 62
1, 347391, Note_on_c, 0, 85, 90
1, 347393, Note_on_c, 0, 87, 84
1, 347394, Note_on_c, 0, 73, 86
1, 347395, Note_on_c, 0, 92, 80
1, 347401, Note_on_c, 0, 90, 76
1, 347403, Control_c, 0, 67, 126
1, 347418, Control_c, 0, 67, 119
1, 347427, Note_off_c, 0, 90, 63
1, 347433, Control_c, 0, 67, 110
1, 347437, Note_off_c, 0, 85, 63
1, 347438, Note_off_c, 0, 92, 64
1, 347439, Note_off_c, 0, 87, 64
1, 347442, Note_off_c, 0, 73, 62
1, 347448, Control_c, 0, 67, 101
1, 347462, Control_c, 0, 67, 92
1, 347464, Note_on_c, 0, 81, 82
1, 347465, Note_on_c, 0, 74, 69
1, 347477, Control_c, 0, 67, 84
1, 347492, Control_c, 0, 67, 77
1, 347495, Note_off_c, 0, 81, 61
1, 347501, Note_off_c, 0, 74, 62
1, 347507, Control_c, 0, 67, 70
1, 347522, Control_c, 0, 67, 68
1, 347524, Note_on_c, 0, 81, 70
1, 347525, Note_on_c, 0, 79, 82
1, 347528, Note_on_c, 0, 73, 84
1, 347536, Control_c, 0, 67, 66
1, 347551, Note_off_c, 0, 79, 62
1, 347551, Control_c, 0, 67, 64
1, 347555, Note_off_c, 0, 81, 66
1, 347566, Control_c, 0, 67, 61
1, 347572, Note_off_c, 0, 73, 63
1, 347581, Control_c, 0, 67, 57
1, 347592, Note_on_c, 0, 81, 72
1, 347596, Note_on_c, 0, 74, 82
1, 347596, Control_c, 0, 67, 49
1, 347610, Control_c, 0, 67, 40
1, 347619, Note_off_c, 0, 81, 65
1, 347625, Control_c, 0, 67, 27
1, 347638, Note_off_c, 0, 74, 59
1, 347640, Control_c, 0, 67, 9
1, 347646, Note_on_c, 0, 82, 85
1, 347646, Note_on_c, 0, 85, 85
1, 347646, Note_on_c, 0, 90, 81
1, 347648, Note_on_c, 0, 87, 80
1, 347650, Note_on_c, 0, 73, 95
1, 347654, Control_c, 0, 67, 0
1, 347683, Note_off_c, 0, 90, 63
1, 347688, Note_off_c, 0, 87, 54
1, 347692, Note_off_c, 0, 73, 64
1, 347692, Note_off_c, 0, 85, 63
1, 347693, Note_off_c, 0, 82, 62
1, 347715, Note_on_c, 0, 79, 85
1, 347726, Note_on_c, 0, 74, 86
1, 347751, Note_off_c, 0, 79, 59
1, 347756, Note_off_c, 0, 74, 63
1, 347774, Note_on_c, 0, 77, 90
1, 347785, Note_on_c, 0, 73, 91
1, 347790, Poly_aftertouch_c, 0, 79, 0
1, 347797, Note_on_c, 0, 79, 60
1, 347814, Note_off_c, 0, 79, 65
1, 347818, Note_off_c, 0, 77, 66
1, 347832, Note_off_c, 0, 73, 62
1, 347849, Note_on_c, 0, 74, 91
1, 347861, Note_on_c, 0, 79, 79
1, 347884, Note_off_c, 0, 79, 64
1, 347894, Note_off_c, 0, 74, 64
1, 347903, Note_on_c, 0, 82, 89
1, 347903, Note_on_c, 0, 87, 86
1, 347905, Note_on_c, 0, 80, 87
1, 347907, Note_on_c, 0, 73, 100
1, 347908, Note_on_c, 0, 85, 75
1, 347935, Note_off_c, 0, 85, 59
1, 347947, Note_off_c, 0, 82, 63
1, 347951, Note_off_c, 0, 87, 65
1, 347955, Note_off_c, 0, 73, 62
1, 347960, Note_off_c, 0, 80, 61
1, 347969, Note_on_c, 0, 77, 88
1, 347973, Note_on_c, 0, 74, 95
1, 348007, Note_off_c, 0, 77, 65
1, 348019, Note_off_c, 0, 74, 66
1, 348029, Note_on_c, 0, 73, 91
1, 348032, Note_on_c, 0, 76, 94
1, 348032, Note_on_c, 0, 77, 77
1, 348068, Note_off_c, 0, 76, 61
1, 348068, Note_off_c, 0, 77, 66
1, 348089, Note_off_c, 0, 73, 62
1, 348092, Note_on_c, 0, 74, 92
1, 348097, Note_on_c, 0, 77, 79
1, 348142, Note_off_c, 0, 74, 65
1, 348148, Note_on_c, 0, 73, 96
1, 348151, Note_off_c, 0, 77, 63
1, 348154, Note_on_c, 0, 80, 83
1, 348154, Note_on_c, 0, 78, 88
1, 348157, Note_on_c, 0, 85, 78
1, 348158, Note_on_c, 0, 82, 78
1, 348184, Note_off_c, 0, 82, 62
1, 348187, Note_off_c, 0, 85, 61
1, 348193, Note_off_c, 0, 80, 63
1, 348211, Note_on_c, 0, 77, 88
1, 348211, Note_off_c, 0, 73, 61
1, 348214, Note_on_c, 0, 74, 98
1, 348214, Note_off_c, 0, 78, 62
1, 348250, Note_off_c, 0, 77, 65
1, 348270, Note_on_c, 0, 73, 92
1, 348285, Note_on_c, 0, 76, 91
1, 348328, Note_off_c, 0, 76, 44
1, 348339, Note_on_c, 0, 77, 86
1, 348343, Note_off_c, 0, 73, 64
1, 348354, Note_on_c, 0, 76, 53
1, 348377, Note_off_c, 0, 77, 67
1, 348378, Note_off_c, 0, 76, 58
1, 348380, Note_off_c, 0, 74, 69
1, 348402, Control_c, 0, 67, 14
1, 348417, Control_c, 0, 67, 23
1, 348432, Control_c, 0, 67, 36
1, 348447, Control_c, 0, 67, 51
1, 348462, Control_c, 0, 67, 65
1, 348476, Control_c, 0, 64, 92
1, 348476, Control_c, 0, 67, 77
1, 348491, Control_c, 0, 64, 71
1, 348491, Control_c, 0, 67, 86
1, 348506, Control_c, 0, 64, 53
1, 348506, Control_c, 0, 67, 93
1, 348521, Control_c, 0, 64, 0
1, 348521, Control_c, 0, 67, 99
1, 348544, Control_c, 0, 67, 103
1, 348560, Control_c, 0, 67, 107
1, 348575, Control_c, 0, 67, 110
1, 348589, Control_c, 0, 67, 114
1, 348604, Control_c, 0, 67, 117
1, 348608, Note_on_c, 0, 81, 66
1, 348619, Control_c, 0, 64, 44
1, 348619, Control_c, 0, 67, 120
1, 348633, Note_on_c, 0, 62, 59
1, 348633, Control_c, 0, 64, 64
1, 348633, Control_c, 0, 67, 123
1, 348634, Note_off_c, 0, 81, 67
1, 348644, Note_on_c, 0, 64, 43
1, 348648, Control_c, 0, 64, 70
1, 348648, Control_c, 0, 67, 126
1, 348652, Note_on_c, 0, 73, 60
1, 348655, Note_off_c, 0, 62, 61
1, 348655, Note_on_c, 0, 79, 78
1, 348657, Note_on_c, 0, 70, 51
1, 348663, Control_c, 0, 64, 77
1, 348663, Control_c, 0, 67, 127
1, 348677, Note_off_c, 0, 64, 57
1, 348678, Control_c, 0, 64, 82
1, 348679, Note_on_c, 0, 65, 18
1, 348689, Note_off_c, 0, 70, 63
1, 348693, Control_c, 0, 64, 83
1, 348700, Note_off_c, 0, 79, 57
1, 348703, Note_on_c, 0, 77, 75
1, 348707, Control_c, 0, 64, 79
1, 348720, Note_off_c, 0, 73, 59
1, 348721, Note_off_c, 0, 65, 42
1, 348722, Note_off_c, 0, 77, 71
1, 348722, Control_c, 0, 64, 74
1, 348737, Control_c, 0, 64, 68
1, 348752, Control_c, 0, 64, 62
1, 348767, Control_c, 0, 64, 47
1, 348781, Control_c, 0, 64, 19
1, 348796, Control_c, 0, 64, 0
1, 348885, Control_c, 0, 67, 127
1, 348899, Control_c, 0, 67, 126
1, 348914, Control_c, 0, 64, 55
1, 348915, Note_on_c, 0, 80, 71
1, 348929, Note_on_c, 0, 87, 47
1, 348929, Control_c, 0, 64, 67
1, 348931, Note_on_c, 0, 82, 51
1, 348935, Note_on_c, 0, 66, 59
1, 348937, Note_on_c, 0, 63, 57
1, 348941, Note_on_c, 0, 70, 59
1, 348944, Control_c, 0, 64, 74
1, 348945, Note_on_c, 0, 61, 47
1, 348947, Note_off_c, 0, 80, 64
1, 348954, Note_off_c, 0, 82, 59
1, 348956, Note_off_c, 0, 87, 57
1, 348959, Control_c, 0, 64, 77
1, 348966, Note_on_c, 0, 78, 67
1, 348972, Note_off_c, 0, 63, 64
1, 348974, Note_off_c, 0, 70, 63
1, 348974, Control_c, 0, 64, 77
1, 348975, Note_off_c, 0, 61, 57
1, 348975, Note_off_c, 0, 66, 58
1, 348989, Control_c, 0, 64, 73
1, 348991, Note_off_c, 0, 78, 63
1, 349004, Control_c, 0, 64, 68
1, 349009, Note_on_c, 0, 73, 57
1, 349014, Note_on_c, 0, 75, 81
1, 349019, Control_c, 0, 64, 63
1, 349033, Control_c, 0, 64, 56
1, 349037, Note_off_c, 0, 75, 66
1, 349045, Note_off_c, 0, 73, 63
1, 349048, Control_c, 0, 64, 53
1, 349078, Control_c, 0, 64, 51
1, 349078, Control_c, 0, 67, 125
1, 349093, Control_c, 0, 64, 44
1, 349107, Control_c, 0, 64, 30
1, 349122, Control_c, 0, 64, 0
1, 349122, Control_c, 0, 67, 125
1, 349137, Control_c, 0, 67, 124
1, 349152, Control_c, 0, 67, 124
1, 349167, Control_c, 0, 67, 123
1, 349181, Control_c, 0, 64, 47
1, 349181, Control_c, 0, 67, 122
1, 349192, Note_on_c, 0, 81, 76
1, 349196, Control_c, 0, 64, 66
1, 349208, Note_on_c, 0, 62, 68
1, 349208, Note_on_c, 0, 64, 69
1, 349208, Note_on_c, 0, 70, 77
1, 349211, Control_c, 0, 64, 74
1, 349225, Control_c, 0, 64, 81
1, 349229, Note_on_c, 0, 79, 83
1, 349230, Note_off_c, 0, 81, 64
1, 349240, Control_c, 0, 64, 83
1, 349254, Note_off_c, 0, 62, 56
1, 349255, Control_c, 0, 64, 82
1, 349266, Note_off_c, 0, 64, 63
1, 349270, Control_c, 0, 64, 78
1, 349281, Note_on_c, 0, 73, 72
1, 349281, Note_off_c, 0, 70, 59
1, 349292, Note_off_c, 0, 79, 59
1, 349293, Control_c, 0, 64, 72
1, 349301, Note_on_c, 0, 77, 72
1, 349307, Control_c, 0, 64, 67
1, 349322, Note_off_c, 0, 77, 71
1, 349322, Control_c, 0, 67, 122
1, 349326, Note_off_c, 0, 73, 60
1, 349337, Control_c, 0, 64, 68
1, 349352, Control_c, 0, 64, 69
1, 349382, Control_c, 0, 64, 68
1, 349397, Control_c, 0, 64, 67
1, 349412, Control_c, 0, 64, 63
1, 349427, Control_c, 0, 64, 50
1, 349427, Control_c, 0, 67, 121
1, 349442, Control_c, 0, 64, 38
1, 349442, Control_c, 0, 67, 121
1, 349456, Note_on_c, 0, 87, 71
1, 349456, Control_c, 0, 64, 57
1, 349465, Note_on_c, 0, 80, 59
1, 349470, Note_on_c, 0, 82, 52
1, 349471, Control_c, 0, 64, 65
1, 349471, Control_c, 0, 67, 120
1, 349474, Note_on_c, 0, 70, 82
1, 349477, Note_on_c, 0, 66, 75
1, 349479, Note_on_c, 0, 61, 69
1, 349482, Note_on_c, 0, 63, 69
1, 349484, Note_off_c, 0, 80, 64
1, 349485, Note_off_c, 0, 87, 63
1, 349486, Control_c, 0, 64, 69
1, 349492, Note_off_c, 0, 82, 60
1, 349501, Control_c, 0, 64, 73
1, 349502, Note_on_c, 0, 78, 80
1, 349516, Control_c, 0, 64, 75
1, 349516, Note_off_c, 0, 61, 60
1, 349519, Note_off_c, 0, 63, 59
1, 349530, Control_c, 0, 64, 76
1, 349544, Note_off_c, 0, 66, 57
1, 349557, Note_off_c, 0, 70, 60
1, 349560, Control_c, 0, 64, 76
1, 349561, Note_on_c, 0, 75, 71
1, 349564, Note_on_c, 0, 73, 68
1, 349569, Note_off_c, 0, 78, 54
1, 349582, Note_off_c, 0, 75, 70
1, 349604, Control_c, 0, 64, 76
1, 349620, Control_c, 0, 64, 77
1, 349635, Note_off_c, 0, 73, 51
1, 349650, Control_c, 0, 64, 74
1, 349664, Control_c, 0, 64, 69
1, 349664, Control_c, 0, 67, 120
1, 349679, Control_c, 0, 64, 64
1, 349679, Control_c, 0, 67, 119
1, 349694, Control_c, 0, 64, 63
1, 349694, Control_c, 0, 67, 118
1, 349708, Note_on_c, 0, 81, 75
1, 349709, Control_c, 0, 64, 66
1, 349709, Control_c, 0, 67, 118
1, 349717, Note_on_c, 0, 62, 83
1, 349717, Note_on_c, 0, 64, 82
1, 349722, Note_on_c, 0, 70, 87
1, 349724, Control_c, 0, 64, 69
1, 349734, Note_off_c, 0, 81, 65
1, 349734, Note_on_c, 0, 79, 85
1, 349738, Control_c, 0, 64, 73
1, 349753, Control_c, 0, 64, 73
1, 349781, Note_off_c, 0, 62, 61
1, 349783, Control_c, 0, 64, 73
1, 349789, Note_off_c, 0, 79, 57
1, 349792, Note_off_c, 0, 64, 63
1, 349797, Note_on_c, 0, 73, 71
1, 349798, Control_c, 0, 64, 72
1, 349803, Note_on_c, 0, 77, 76
1, 349812, Control_c, 0, 64, 73
1, 349817, Note_off_c, 0, 70, 53
1, 349824, Note_off_c, 0, 77, 71
1, 349842, Control_c, 0, 64, 73
1, 349868, Note_off_c, 0, 73, 62
1, 349871, Control_c, 0, 64, 73
1, 349886, Control_c, 0, 64, 70
1, 349901, Control_c, 0, 64, 65
1, 349916, Control_c, 0, 64, 61
1, 349929, Note_on_c, 0, 80, 71
1, 349931, Control_c, 0, 64, 63
1, 349937, Note_on_c, 0, 87, 64
1, 349938, Note_on_c, 0, 63, 81
1, 349938, Note_on_c, 0, 82, 69
1, 349944, Note_on_c, 0, 61, 77
1, 349945, Note_on_c, 0, 66, 85
1, 349946, Control_c, 0, 64, 67
1, 349947, Note_on_c, 0, 70, 89
1, 349950, Note_off_c, 0, 80, 71
1, 349956, Note_off_c, 0, 82, 68
1, 349956, Note_off_c, 0, 87, 66
1, 349961, Control_c, 0, 64, 71
1, 349967, Note_on_c, 0, 78, 80
1, 349975, Control_c, 0, 64, 74
1, 349990, Control_c, 0, 64, 76
1, 350001, Note_off_c, 0, 61, 62
1, 350005, Control_c, 0, 64, 76
1, 350011, Note_off_c, 0, 63, 60
1, 350020, Note_on_c, 0, 75, 83
1, 350032, Note_off_c, 0, 66, 59
1, 350042, Control_c, 0, 64, 77
1, 350053, Note_off_c, 0, 70, 57
1, 350054, Note_on_c, 0, 73, 76
1, 350056, Control_c, 0, 64, 78
1, 350063, Note_off_c, 0, 78, 38
1, 350065, Note_off_c, 0, 75, 60
1, 350071, Control_c, 0, 64, 81
1, 350086, Control_c, 0, 64, 84
1, 350101, Control_c, 0, 67, 117
1, 350113, Note_off_c, 0, 73, 63
1, 350116, Control_c, 0, 64, 80
1, 350116, Control_c, 0, 67, 116
1, 350131, Control_c, 0, 64, 73
1, 350131, Control_c, 0, 67, 116
1, 350145, Control_c, 0, 64, 70
1, 350161, Control_c, 0, 64, 72
1, 350161, Control_c, 0, 67, 115
1, 350163, Note_on_c, 0, 81, 91
1, 350167, Note_on_c, 0, 64, 86
1, 350170, Note_on_c, 0, 62, 83
1, 350174, Note_on_c, 0, 70, 86
1, 350176, Control_c, 0, 64, 77
1, 350176, Control_c, 0, 67, 114
1, 350184, Note_on_c, 0, 87, 54
1, 350190, Note_on_c, 0, 84, 40
1, 350191, Control_c, 0, 64, 82
1, 350191, Control_c, 0, 67, 113
1, 350205, Note_on_c, 0, 79, 83
1, 350206, Note_off_c, 0, 87, 60
1, 350206, Control_c, 0, 64, 85
1, 350208, Note_off_c, 0, 81, 66
1, 350217, Note_off_c, 0, 84, 56
1, 350221, Control_c, 0, 67, 113
1, 350232, Note_off_c, 0, 62, 62
1, 350235, Control_c, 0, 64, 84
1, 350251, Note_off_c, 0, 64, 58
1, 350264, Note_on_c, 0, 73, 81
1, 350265, Control_c, 0, 64, 84
1, 350266, Note_on_c, 0, 77, 85
1, 350272, Note_off_c, 0, 70, 61
1, 350272, Note_off_c, 0, 79, 64
1, 350280, Control_c, 0, 64, 86
1, 350291, Note_off_c, 0, 77, 63
1, 350295, Control_c, 0, 64, 88
1, 350309, Control_c, 0, 64, 87
1, 350324, Note_off_c, 0, 73, 64
1, 350324, Control_c, 0, 64, 82
1, 350324, Control_c, 0, 67, 112
1, 350339, Control_c, 0, 64, 74
1, 350339, Control_c, 0, 67, 112
1, 350354, Control_c, 0, 64, 67
1, 350354, Control_c, 0, 67, 111
1, 350369, Control_c, 0, 64, 66
1, 350369, Control_c, 0, 67, 110
1, 350381, Note_on_c, 0, 63, 89
1, 350384, Control_c, 0, 64, 69
1, 350384, Control_c, 0, 67, 109
1, 350389, Note_on_c, 0, 87, 80
1, 350390, Note_on_c, 0, 61, 84
1, 350392, Note_on_c, 0, 70, 87
1, 350395, Note_on_c, 0, 82, 69
1, 350399, Control_c, 0, 64, 73
1, 350400, Note_on_c, 0, 66, 79
1, 350402, Note_on_c, 0, 81, 54
1, 350410, Note_off_c, 0, 82, 68
1, 350411, Note_off_c, 0, 87, 68
1, 350413, Control_c, 0, 64, 74
1, 350413, Control_c, 0, 67, 109
1, 350422, Note_off_c, 0, 81, 62
1, 350428, Note_on_c, 0, 78, 85
1, 350443, Control_c, 0, 67, 110
1, 350450, Note_off_c, 0, 61, 60
1, 350458, Note_off_c, 0, 63, 61
1, 350458, Control_c, 0, 67, 110
1, 350473, Note_off_c, 0, 66, 62
1, 350473, Control_c, 0, 64, 74
1, 350487, Control_c, 0, 64, 75
1, 350490, Note_on_c, 0, 73, 83
1, 350490, Note_on_c, 0, 75, 83
1, 350502, Control_c, 0, 64, 78
1, 350507, Note_off_c, 0, 70, 53
1, 350510, Note_off_c, 0, 75, 72
1, 350512, Note_off_c, 0, 78, 0
1, 350512, Note_on_c, 0, 78, 5
1, 350517, Control_c, 0, 64, 79
1, 350524, Note_off_c, 0, 78, 58
1, 350532, Control_c, 0, 64, 76
1, 350532, Control_c, 0, 67, 110
1, 350545, Note_off_c, 0, 73, 64
1, 350547, Control_c, 0, 64, 71
1, 350561, Control_c, 0, 64, 66
1, 350561, Control_c, 0, 67, 109
1, 350576, Control_c, 0, 64, 67
1, 350591, Control_c, 0, 64, 73
1, 350591, Control_c, 0, 67, 109
1, 350596, Note_on_c, 0, 64, 81
1, 350596, Note_on_c, 0, 62, 85
1, 350596, Note_on_c, 0, 81, 94
1, 350605, Note_on_c, 0, 70, 87
1, 350605, Control_c, 0, 64, 83
1, 350605, Control_c, 0, 67, 108
1, 350610, Note_on_c, 0, 87, 67
1, 350617, Note_on_c, 0, 84, 50
1, 350620, Control_c, 0, 64, 96
1, 350624, Note_on_c, 0, 83, 55
1, 350628, Note_off_c, 0, 87, 67
1, 350635, Control_c, 0, 64, 106
1, 350639, Note_off_c, 0, 84, 61
1, 350643, Note_on_c, 0, 79, 85
1, 350643, Note_off_c, 0, 81, 66
1, 350643, Note_off_c, 0, 83, 62
1, 350650, Control_c, 0, 64, 109
1, 350654, Note_off_c, 0, 62, 60
1, 350665, Control_c, 0, 67, 109
1, 350676, Note_off_c, 0, 64, 64
1, 350694, Note_on_c, 0, 73, 83
1, 350694, Control_c, 0, 64, 111
1, 350699, Note_on_c, 0, 77, 83
1, 350707, Note_off_c, 0, 70, 56
1, 350709, Control_c, 0, 64, 113
1, 350715, Note_off_c, 0, 79, 55
1, 350724, Control_c, 0, 64, 112
1, 350724, Control_c, 0, 67, 108
1, 350736, Note_off_c, 0, 77, 62
1, 350739, Control_c, 0, 64, 104
1, 350739, Control_c, 0, 67, 107
1, 350747, Note_off_c, 0, 73, 65
1, 350754, Control_c, 0, 64, 93
1, 350754, Control_c, 0, 67, 107
1, 350768, Control_c, 0, 64, 86
1, 350768, Control_c, 0, 67, 106
1, 350791, Control_c, 0, 67, 105
1, 350804, Note_on_c, 0, 63, 88
1, 350805, Control_c, 0, 64, 91
1, 350805, Control_c, 0, 67, 103
1, 350809, Note_on_c, 0, 61, 82
1, 350814, Note_on_c, 0, 81, 75
1, 350816, Note_on_c, 0, 70, 86
1, 350816, Note_on_c, 0, 82, 75
1, 350817, Note_on_c, 0, 87, 70
1, 350819, Note_on_c, 0, 66, 77
1, 350820, Control_c, 0, 64, 98
1, 350834, Note_off_c, 0, 87, 67
1, 350835, Control_c, 0, 64, 106
1, 350835, Control_c, 0, 67, 102
1, 350838, Note_off_c, 0, 82, 71
1, 350840, Note_off_c, 0, 81, 53
1, 350850, Control_c, 0, 64, 112
1, 350863, Note_on_c, 0, 78, 90
1, 350865, Control_c, 0, 64, 113
1, 350865, Control_c, 0, 67, 103
1, 350878, Note_off_c, 0, 61, 55
1, 350880, Control_c, 0, 64, 114
1, 350884, Note_off_c, 0, 63, 60
1, 350885, Note_off_c, 0, 66, 62
1, 350894, Control_c, 0, 64, 123
1, 350904, Note_on_c, 0, 73, 84
1, 350909, Control_c, 0, 64, 127
1, 350924, Control_c, 0, 67, 102
1, 350927, Note_off_c, 0, 70, 61
1, 350934, Note_on_c, 0, 76, 70
1, 350939, Control_c, 0, 67, 101
1, 350947, Note_off_c, 0, 78, 63
1, 350955, Control_c, 0, 64, 107
1, 350955, Control_c, 0, 67, 99
1, 350959, Note_off_c, 0, 73, 65
1, 350960, Note_off_c, 0, 76, 66
1, 350970, Control_c, 0, 64, 91
1, 350970, Control_c, 0, 67, 95
1, 350984, Control_c, 0, 64, 90
1, 350984, Control_c, 0, 67, 90
1, 350999, Control_c, 0, 64, 95
1, 350999, Control_c, 0, 67, 84
1, 351004, Note_on_c, 0, 64, 85
1, 351007, Note_on_c, 0, 62, 84
1, 351014, Control_c, 0, 64, 114
1, 351014, Control_c, 0, 67, 78
1, 351020, Note_on_c, 0, 81, 92
1, 351028, Control_c, 0, 64, 127
1, 351028, Control_c, 0, 67, 74
1, 351030, Note_on_c, 0, 87, 73
1, 351031, Note_on_c, 0, 70, 70
1, 351036, Note_on_c, 0, 84, 58
1, 351043, Control_c, 0, 67, 72
1, 351054, Note_off_c, 0, 84, 65
1, 351054, Note_off_c, 0, 87, 70
1, 351055, Note_off_c, 0, 62, 61
1, 351058, Control_c, 0, 67, 72
1, 351073, Note_on_c, 0, 83, 22
1, 351073, Control_c, 0, 67, 71
1, 351076, Note_off_c, 0, 81, 59
1, 351078, Note_on_c, 0, 79, 87
1, 351082, Note_off_c, 0, 64, 64
1, 351088, Control_c, 0, 67, 71
1, 351102, Control_c, 0, 67, 70
1, 351108, Note_on_c, 0, 73, 91
1, 351109, Note_off_c, 0, 83, 56
1, 351117, Control_c, 0, 67, 68
1, 351121, Note_off_c, 0, 70, 58
1, 351127, Poly_aftertouch_c, 0, 82, 0
1, 351132, Control_c, 0, 67, 64
1, 351139, Note_off_c, 0, 79, 0
1, 351147, Control_c, 0, 67, 58
1, 351152, Note_off_c, 0, 73, 66
1, 351162, Control_c, 0, 67, 47
1, 351177, Control_c, 0, 67, 32
1, 351192, Control_c, 0, 67, 0
1, 351199, Note_on_c, 0, 61, 97
1, 351206, Note_on_c, 0, 63, 82
1, 351216, Note_on_c, 0, 70, 90
1, 351224, Poly_aftertouch_c, 0, 79, 0
1, 351228, Note_on_c, 0, 87, 90
1, 351239, Note_on_c, 0, 82, 73
1, 351251, Note_on_c, 0, 80, 36
1, 351260, Note_off_c, 0, 82, 71
1, 351275, Note_off_c, 0, 87, 63
1, 351284, Note_off_c, 0, 80, 54
1, 351290, Note_on_c, 0, 73, 99
1, 351290, Note_on_c, 0, 78, 84
1, 351313, Note_off_c, 0, 61, 68
1, 351314, Note_off_c, 0, 78, 58
1, 351317, Note_on_c, 0, 77, 65
1, 351325, Note_off_c, 0, 73, 71
1, 351326, Note_off_c, 0, 70, 63
1, 351333, Note_off_c, 0, 63, 61
1, 351335, Note_off_c, 0, 77, 66
1, 351631, Note_on_c, 0, 61, 102
1, 351633, Note_on_c, 0, 58, 93
1, 351633, Note_on_c, 0, 66, 94
1, 351633, Note_on_c, 0, 69, 89
1, 351641, Note_on_c, 0, 28, 106
1, 351643, Control_c, 0, 64, 88
1, 351658, Control_c, 0, 64, 63
1, 351673, Control_c, 0, 64, 0
1, 351709, Note_off_c, 0, 28, 59
1, 351723, Note_off_c, 0, 66, 65
1, 351727, Note_off_c, 0, 69, 56
1, 351757, Note_off_c, 0, 58, 63
1, 351764, Note_off_c, 0, 61, 48
1, 351767, Note_on_c, 0, 34, 45
1, 351782, Note_on_c, 0, 43, 76
1, 351802, Note_off_c, 0, 34, 53
1, 351824, Note_off_c, 0, 43, 63
1, 351836, Note_on_c, 0, 35, 9
1, 351864, Note_on_c, 0, 60, 81
1, 351866, Note_on_c, 0, 63, 70
1, 351868, Note_on_c, 0, 31, 94
1, 351868, Note_on_c, 0, 55, 97
1, 351869, Note_on_c, 0, 66, 92
1, 351874, Note_on_c, 0, 64, 88
1, 351875, Note_off_c, 0, 35, 52
1, 351888, Note_off_c, 0, 63, 66
1, 351899, Note_on_c, 0, 33, 48
1, 351907, Note_off_c, 0, 55, 65
1, 351913, Note_off_c, 0, 60, 65
1, 351920, Note_off_c, 0, 31, 61
1, 351921, Note_off_c, 0, 66, 63
1, 351922, Note_off_c, 0, 64, 61
1, 351936, Note_off_c, 0, 33, 33
1, 351985, Note_on_c, 0, 54, 97
1, 351986, Note_on_c, 0, 58, 95
1, 351987, Note_on_c, 0, 61, 94
1, 351991, Note_on_c, 0, 47, 79
1, 351994, Note_on_c, 0, 40, 68
1, 352028, Note_off_c, 0, 54, 64
1, 352032, Note_off_c, 0, 40, 65
1, 352039, Note_off_c, 0, 58, 65
1, 352041, Note_off_c, 0, 47, 64
1, 352047, Note_off_c, 0, 61, 63
1, 352099, Note_on_c, 0, 35, 96
1, 352155, Note_off_c, 0, 35, 65
1, 352211, Note_on_c, 0, 66, 77
1, 352214, Note_on_c, 0, 70, 96
1, 352216, Note_on_c, 0, 61, 102
1, 352217, Note_on_c, 0, 48, 92
1, 352218, Note_on_c, 0, 75, 97
1, 352226, Note_on_c, 0, 42, 59
1, 352248, Note_on_c, 0, 41, 50
1, 352256, Note_off_c, 0, 42, 64
1, 352280, Note_off_c, 0, 48, 63
1, 352288, Note_off_c, 0, 41, 51
1, 352289, Control_c, 0, 64, 35
1, 352304, Control_c, 0, 64, 38
1, 352332, Note_off_c, 0, 61, 56
1, 352339, Note_on_c, 0, 38, 97
1, 352341, Note_off_c, 0, 75, 60
1, 352369, Note_on_c, 0, 36, 36
1, 352370, Note_off_c, 0, 36, 127
1, 352373, Note_off_c, 0, 70, 49
1, 352392, Control_c, 0, 64, 38
1, 352407, Control_c, 0, 64, 39
1, 352411, Note_off_c, 0, 38, 62
1, 352422, Control_c, 0, 64, 40
1, 352430, Note_off_c, 0, 66, 0
1, 352437, Control_c, 0, 64, 41
1, 352441, Note_on_c, 0, 74, 95
1, 352442, Note_on_c, 0, 60, 80
1, 352442, Note_on_c, 0, 66, 56
1, 352446, Note_on_c, 0, 45, 69
1, 352447, Note_on_c, 0, 52, 86
1, 352452, Control_c, 0, 64, 42
1, 352453, Note_on_c, 0, 70, 48
1, 352461, Note_on_c, 0, 62, 61
1, 352471, Note_on_c, 0, 73, 49
1, 352478, Note_off_c, 0, 74, 67
1, 352481, Control_c, 0, 64, 39
1, 352483, Note_off_c, 0, 62, 61
1, 352485, Note_off_c, 0, 66, 61
1, 352485, Note_off_c, 0, 70, 65
1, 352488, Note_off_c, 0, 60, 64
1, 352491, Note_off_c, 0, 45, 61
1, 352496, Control_c, 0, 64, 0
1, 352497, Note_off_c, 0, 73, 58
1, 352506, Note_off_c, 0, 52, 63
1, 352548, Note_on_c, 0, 40, 94
1, 352553, Note_on_c, 0, 58, 101
1, 352554, Note_on_c, 0, 72, 98
1, 352569, Note_on_c, 0, 68, 78
1, 352572, Note_on_c, 0, 66, 76
1, 352590, Note_off_c, 0, 66, 46
1, 352590, Note_on_c, 0, 61, 38
1, 352591, Note_off_c, 0, 61, 127
1, 352597, Note_off_c, 0, 68, 60
1, 352601, Note_on_c, 0, 73, 10
1, 352602, Note_off_c, 0, 73, 127
1, 352602, Note_off_c, 0, 58, 68
1, 352627, Note_off_c, 0, 40, 58
1, 352630, Control_c, 0, 64, 61
1, 352641, Note_off_c, 0, 72, 67
1, 352645, Control_c, 0, 64, 71
1, 352657, Note_on_c, 0, 46, 97
1, 352660, Control_c, 0, 64, 80
1, 352663, Note_on_c, 0, 55, 89
1, 352668, Note_on_c, 0, 53, 80
1, 352674, Control_c, 0, 64, 93
1, 352684, Note_off_c, 0, 55, 71
1, 352689, Control_c, 0, 64, 117
1, 352691, Note_off_c, 0, 46, 64
1, 352693, Note_off_c, 0, 53, 69
1, 352704, Control_c, 0, 64, 127
1, 352867, Note_on_c, 0, 91, 100
1, 352878, Note_on_c, 0, 89, 78
1, 352894, Note_off_c, 0, 89, 43
1, 352912, Control_c, 0, 64, 86
1, 352915, Note_on_c, 0, 99, 35
1, 352920, Note_off_c, 0, 91, 68
1, 352927, Control_c, 0, 64, 63
1, 352936, Note_off_c, 0, 99, 38
1, 352942, Control_c, 0, 64, 0
1, 352954, Note_on_c, 0, 94, 102
1, 353044, Note_on_c, 0, 97, 108
1, 353055, Note_off_c, 0, 94, 68
1, 353085, Note_off_c, 0, 97, 69
1, 353156, Control_c, 0, 64, 23
1, 353171, Control_c, 0, 64, 96
1, 353174, Note_on_c, 0, 102, 124
1, 353186, Control_c, 0, 64, 127
1, 353218, Note_off_c, 0, 102, 64
1, 353332, Note_on_c, 0, 99, 91
1, 353374, Note_on_c, 0, 97, 90
1, 353409, Note_on_c, 0, 94, 91
1, 353428, Note_off_c, 0, 99, 64
1, 353443, Note_on_c, 0, 91, 79
1, 353446, Note_off_c, 0, 97, 66
1, 353454, Note_on_c, 0, 85, 80
1, 353457, Note_off_c, 0, 94, 66
1, 353463, Note_off_c, 0, 91, 72
1, 353481, Note_on_c, 0, 81, 75
1, 353505, Note_off_c, 0, 85, 67
1, 353532, Note_on_c, 0, 76, 78
1, 353541, Note_off_c, 0, 81, 66
1, 353556, Note_off_c, 0, 76, 69
1, 353592, Note_on_c, 0, 73, 86
1, 353638, Note_on_c, 0, 70, 74
1, 353662, Note_on_c, 0, 68, 83
1, 353668, Note_off_c, 0, 73, 64
1, 353692, Note_off_c, 0, 70, 64
1, 353698, Note_on_c, 0, 62, 74
1, 353706, Note_on_c, 0, 65, 69
1, 353717, Note_off_c, 0, 68, 63
1, 353732, Note_off_c, 0, 65, 68
1, 353753, Note_on_c, 0, 60, 61
1, 353758, Note_off_c, 0, 62, 63
1, 353779, Note_on_c, 0, 59, 57
1, 353780, Note_on_c, 0, 57, 73
1, 353827, Note_off_c, 0, 60, 65
1, 353833, Note_on_c, 0, 52, 73
1, 353834, Note_off_c, 0, 59, 61
1, 353839, Note_off_c, 0, 57, 64
1, 353848, Note_on_c, 0, 53, 60
1, 353870, Note_off_c, 0, 52, 64
1, 353872, Note_off_c, 0, 53, 62
1, 353899, Note_on_c, 0, 48, 91
1, 353918, Note_on_c, 0, 46, 79
1, 353935, Note_on_c, 0, 45, 88
1, 353943, Note_off_c, 0, 48, 62
1, 353958, Note_on_c, 0, 44, 72
1, 353966, Note_on_c, 0, 43, 88
1, 353973, Note_off_c, 0, 46, 58
1, 353982, Note_off_c, 0, 45, 63
1, 353988, Note_off_c, 0, 44, 62
1, 353999, Note_on_c, 0, 40, 94
1, 354003, Note_on_c, 0, 41, 92
1, 354010, Note_off_c, 0, 43, 66
1, 354042, Note_off_c, 0, 40, 65
1, 354062, Note_on_c, 0, 39, 91
1, 354080, Note_on_c, 0, 37, 86
1, 354095, Note_off_c, 0, 41, 62
1, 354099, Note_on_c, 0, 35, 81
1, 354100, Note_on_c, 0, 36, 80
1, 354116, Note_off_c, 0, 39, 64
1, 354125, Note_off_c, 0, 37, 65
1, 354131, Note_off_c, 0, 36, 66
1, 354131, Note_off_c, 0, 35, 69
1, 354141, Control_c, 0, 64, 110
1, 354157, Control_c, 0, 64, 68
1, 354172, Control_c, 0, 64, 0
1, 354334, Note_on_c, 0, 21, 106
1, 354334, Note_on_c, 0, 23, 100
1, 354343, Note_on_c, 0, 35, 111
1, 354343, Note_on_c, 0, 36, 98
1, 354350, Note_on_c, 0, 34, 76
1, 354351, Note_off_c, 0, 34, 127
1, 354366, Note_off_c, 0, 36, 69
1, 354381, Note_off_c, 0, 35, 71
1, 354384, Note_off_c, 0, 21, 64
1, 354384, Note_off_c, 0, 23, 64
1, 355935, Control_c, 0, 64, 14
1, 355950, Control_c, 0, 64, 55
1, 355964, Control_c, 0, 64, 64
1, 355979, Control_c, 0, 64, 66
1, 356009, Control_c, 0, 64, 64
1, 356031, Control_c, 0, 64, 50
1, 356046, Control_c, 0, 64, 0
1, 356121, End_track
0, 0, End_of_file
