0, 0, Header, 0, 1, 384
1, 0, Start_track
1, 0, Title_t, "DebussyJardins--Zhou            "
1, 0, Text_t, "2011 ePiano Junior Competition"
1, 0, Text_t, "captured in spring and summer 2011"
1, 0, Text_t, "http://www.piano-e-competition.com/"
1, 0, Text_t, "standard-resolution version"
1, 0, Text_t, "File processed for distribution with software designed and coded by Dr. John Q. Walker, founder of Zenph Sound Innovations"
1, 0, Instrument_name_t, "Yamaha Disklavier Pro Mark IV concert grand piano, model DCFIIISM4PRO"
1, 0, Sequencer_specific, 39, 67, 113, 0, 1, 0, 1, 0, 68, 101, 98, 117, 115, 115, 121, 32, 74, 97, 114, 100, 105, 110, 115, 32, 65, 110, 110, 105, 101, 32, 90, 104, 111, 117, 32, 32, 32, 32, 32, 32
1, 0, Sequencer_specific, 6, 67, 113, 0, 0, 0, 69
1, 0, System_exclusive, 21, 67, 113, 126, 21, 0, 2, 2, 2, 5, 12, 8, 4, 14, 1, 4, 9, 13, 11, 5, 6, 247
1, 0, Sequencer_specific, 5, 67, 123, 12, 2, 1
1, 0, Tempo, 512820
1, 0, Time_signature, 4, 2, 24, 8
1, 0, System_exclusive, 5, 126, 127, 9, 1, 247
1, 1, System_exclusive, 8, 67, 16, 76, 0, 0, 126, 0, 247
1, 2, System_exclusive, 8, 67, 16, 76, 8, 9, 7, 1, 247
1, 3, Control_c, 0, 0, 108
1, 3, Control_c, 1, 0, 108
1, 3, Control_c, 2, 0, 0
1, 3, Control_c, 3, 0, 0
1, 3, Control_c, 4, 0, 0
1, 3, Control_c, 5, 0, 0
1, 3, Control_c, 6, 0, 0
1, 3, Control_c, 7, 0, 0
1, 3, Control_c, 8, 0, 0
1, 3, Control_c, 9, 0, 127
1, 3, Control_c, 10, 0, 0
1, 3, Control_c, 11, 0, 0
1, 3, Control_c, 12, 0, 0
1, 3, Control_c, 13, 0, 0
1, 3, Control_c, 14, 0, 0
1, 3, Control_c, 15, 0, 0
1, 4, Control_c, 0, 32, 0
1, 4, Control_c, 1, 32, 0
1, 4, Control_c, 2, 32, 0
1, 4, Control_c, 3, 32, 0
1, 4, Control_c, 4, 32, 0
1, 4, Control_c, 5, 32, 0
1, 4, Control_c, 6, 32, 0
1, 4, Control_c, 7, 32, 0
1, 4, Control_c, 8, 32, 0
1, 4, Control_c, 9, 32, 0
1, 4, Control_c, 10, 32, 0
1, 4, Control_c, 11, 32, 0
1, 4, Control_c, 12, 32, 0
1, 4, Control_c, 13, 32, 0
1, 4, Control_c, 14, 32, 0
1, 4, Control_c, 15, 32, 0
1, 5, Program_c, 0, 0
1, 5, Program_c, 1, 0
1, 5, Program_c, 2, 0
1, 5, Program_c, 3, 0
1, 5, Program_c, 4, 0
1, 5, Program_c, 5, 0
1, 5, Program_c, 6, 0
1, 5, Program_c, 7, 0
1, 5, Program_c, 8, 0
1, 5, Program_c, 9, 0
1, 5, Program_c, 10, 0
1, 5, Program_c, 11, 0
1, 5, Program_c, 12, 0
1, 5, Program_c, 13, 0
1, 5, Program_c, 14, 0
1, 5, Program_c, 15, 0
1, 6, Control_c, 0, 7, 100
1, 6, Control_c, 1, 7, 100
1, 6, Control_c, 2, 7, 100
1, 6, Control_c, 3, 7, 100
1, 6, Control_c, 4, 7, 100
1, 6, Control_c, 5, 7, 100
1, 6, Control_c, 6, 7, 100
1, 6, Control_c, 7, 7, 100
1, 6, Control_c, 8, 7, 100
1, 6, Control_c, 9, 7, 100
1, 6, Control_c, 10, 7, 100
1, 6, Control_c, 11, 7, 100
1, 6, Control_c, 12, 7, 100
1, 6, Control_c, 13, 7, 100
1, 6, Control_c, 14, 7, 100
1, 6, Control_c, 15, 7, 100
1, 42, Control_c, 0, 64, 6
1, 79, Control_c, 0, 64, 13
1, 116, Control_c, 0, 64, 19
1, 153, Control_c, 0, 64, 26
1, 190, Control_c, 0, 64, 32
1, 226, Control_c, 0, 64, 39
1, 263, Control_c, 0, 64, 45
1, 300, Control_c, 0, 64, 53
1, 379, Note_on_c, 0, 52, 66
1, 384, Control_c, 0, 64, 57
1, 399, Control_c, 0, 64, 62
1, 405, Note_off_c, 0, 52, 67
1, 414, Control_c, 0, 64, 65
1, 428, Note_on_c, 0, 64, 50
1, 429, Control_c, 0, 64, 69
1, 443, Control_c, 0, 64, 74
1, 458, Control_c, 0, 64, 80
1, 473, Control_c, 0, 64, 84
1, 476, Note_off_c, 0, 64, 56
1, 481, Note_on_c, 0, 55, 57
1, 488, Control_c, 0, 64, 86
1, 503, Control_c, 0, 64, 87
1, 521, Note_on_c, 0, 52, 52
1, 530, Note_off_c, 0, 55, 61
1, 533, Control_c, 0, 64, 86
1, 548, Control_c, 0, 64, 85
1, 551, Note_off_c, 0, 52, 67
1, 563, Control_c, 0, 64, 81
1, 584, Control_c, 0, 64, 75
1, 599, Control_c, 0, 64, 67
1, 601, Note_on_c, 0, 52, 63
1, 614, Control_c, 0, 64, 59
1, 622, Note_off_c, 0, 52, 64
1, 629, Control_c, 0, 64, 49
1, 643, Control_c, 0, 64, 42
1, 658, Control_c, 0, 64, 39
1, 670, Note_on_c, 0, 64, 40
1, 673, Control_c, 0, 64, 37
1, 688, Control_c, 0, 64, 35
1, 700, Note_off_c, 0, 64, 54
1, 703, Control_c, 0, 64, 33
1, 710, Note_on_c, 0, 55, 55
1, 718, Control_c, 0, 64, 32
1, 733, Control_c, 0, 64, 31
1, 745, Note_off_c, 0, 55, 64
1, 747, Note_on_c, 0, 52, 44
1, 762, Control_c, 0, 64, 30
1, 780, Note_off_c, 0, 52, 66
1, 792, Control_c, 0, 64, 30
1, 823, Note_on_c, 0, 54, 57
1, 848, Note_off_c, 0, 54, 60
1, 852, Control_c, 0, 64, 29
1, 867, Control_c, 0, 64, 29
1, 877, Note_on_c, 0, 64, 52
1, 882, Control_c, 0, 64, 28
1, 897, Control_c, 0, 64, 28
1, 917, Note_off_c, 0, 64, 61
1, 935, Note_on_c, 0, 57, 47
1, 974, Note_off_c, 0, 57, 63
1, 977, Note_on_c, 0, 54, 52
1, 1009, Note_off_c, 0, 54, 66
1, 1021, Note_on_c, 0, 55, 71
1, 1030, Control_c, 0, 64, 27
1, 1051, Note_off_c, 0, 55, 65
1, 1059, Control_c, 0, 64, 26
1, 1074, Control_c, 0, 64, 24
1, 1089, Control_c, 0, 64, 22
1, 1101, Note_on_c, 0, 64, 51
1, 1104, Control_c, 0, 64, 19
1, 1119, Control_c, 0, 64, 16
1, 1133, Control_c, 0, 64, 13
1, 1140, Note_off_c, 0, 64, 63
1, 1144, Note_on_c, 0, 59, 57
1, 1163, Control_c, 0, 64, 12
1, 1177, Control_c, 0, 64, 11
1, 1184, Note_off_c, 0, 59, 65
1, 1192, Note_on_c, 0, 55, 48
1, 1226, Note_off_c, 0, 55, 64
1, 1245, Note_on_c, 0, 57, 66
1, 1266, Control_c, 0, 64, 9
1, 1274, Note_off_c, 0, 57, 66
1, 1318, Note_on_c, 0, 64, 57
1, 1361, Note_on_c, 0, 60, 60
1, 1364, Note_off_c, 0, 64, 64
1, 1405, Note_off_c, 0, 60, 64
1, 1416, Note_on_c, 0, 57, 50
1, 1453, Note_off_c, 0, 57, 64
1, 1471, Note_on_c, 0, 55, 57
1, 1503, Note_off_c, 0, 55, 64
1, 1522, Note_on_c, 0, 64, 57
1, 1567, Note_off_c, 0, 64, 61
1, 1580, Note_on_c, 0, 59, 56
1, 1616, Note_off_c, 0, 59, 64
1, 1640, Note_on_c, 0, 55, 45
1, 1662, Note_on_c, 0, 54, 62
1, 1688, Note_off_c, 0, 55, 62
1, 1691, Note_off_c, 0, 54, 65
1, 1742, Note_on_c, 0, 64, 65
1, 1773, Note_off_c, 0, 64, 66
1, 1790, Note_on_c, 0, 57, 51
1, 1823, Note_off_c, 0, 57, 65
1, 1847, Note_on_c, 0, 54, 59
1, 1880, Note_off_c, 0, 54, 66
1, 1904, Note_on_c, 0, 59, 76
1, 1931, Note_off_c, 0, 59, 67
1, 1937, Note_on_c, 0, 66, 50
1, 2002, Note_on_c, 0, 63, 62
1, 2003, Note_off_c, 0, 66, 60
1, 2059, Note_on_c, 0, 59, 61
1, 2061, Note_off_c, 0, 63, 60
1, 2098, Note_off_c, 0, 59, 65
1, 2139, Note_on_c, 0, 52, 61
1, 2159, Note_off_c, 0, 52, 62
1, 2170, Control_c, 0, 64, 0
1, 2196, Note_on_c, 0, 59, 51
1, 2229, Note_off_c, 0, 59, 65
1, 2241, Note_on_c, 0, 55, 65
1, 2277, Note_off_c, 0, 55, 66
1, 2295, Note_on_c, 0, 52, 44
1, 2327, Note_off_c, 0, 52, 65
1, 2354, Note_on_c, 0, 52, 66
1, 2382, Note_off_c, 0, 52, 67
1, 2413, Note_on_c, 0, 59, 58
1, 2452, Note_off_c, 0, 59, 65
1, 2463, Note_on_c, 0, 55, 59
1, 2503, Note_off_c, 0, 55, 66
1, 2520, Note_on_c, 0, 52, 44
1, 2552, Note_off_c, 0, 52, 65
1, 2570, Note_on_c, 0, 50, 77
1, 2597, Note_off_c, 0, 50, 66
1, 2637, Note_on_c, 0, 59, 62
1, 2674, Note_off_c, 0, 59, 65
1, 2685, Note_on_c, 0, 55, 60
1, 2716, Note_off_c, 0, 55, 64
1, 2736, Note_on_c, 0, 50, 45
1, 2768, Note_off_c, 0, 50, 64
1, 2793, Note_on_c, 0, 50, 68
1, 2819, Note_off_c, 0, 50, 66
1, 2855, Note_on_c, 0, 59, 62
1, 2904, Note_off_c, 0, 59, 61
1, 2923, Note_on_c, 0, 55, 56
1, 2962, Note_off_c, 0, 55, 62
1, 2981, Note_on_c, 0, 50, 37
1, 3019, Note_off_c, 0, 50, 63
1, 3025, Note_on_c, 0, 40, 46
1, 3032, Note_on_c, 0, 48, 50
1, 3037, Control_c, 0, 67, 124
1, 3052, Control_c, 0, 67, 112
1, 3067, Control_c, 0, 67, 99
1, 3079, Note_off_c, 0, 48, 59
1, 3082, Control_c, 0, 67, 87
1, 3097, Control_c, 0, 67, 74
1, 3108, Note_on_c, 0, 59, 48
1, 3111, Control_c, 0, 67, 59
1, 3126, Control_c, 0, 67, 43
1, 3141, Control_c, 0, 67, 30
1, 3147, Note_off_c, 0, 59, 64
1, 3155, Note_on_c, 0, 55, 58
1, 3156, Control_c, 0, 67, 18
1, 3171, Control_c, 0, 67, 0
1, 3197, Note_off_c, 0, 55, 63
1, 3213, Note_on_c, 0, 48, 42
1, 3251, Note_off_c, 0, 48, 0
1, 3265, Note_on_c, 0, 48, 63
1, 3305, Note_off_c, 0, 48, 64
1, 3323, Note_on_c, 0, 59, 69
1, 3362, Note_off_c, 0, 59, 64
1, 3366, Note_on_c, 0, 55, 63
1, 3404, Note_off_c, 0, 55, 65
1, 3426, Note_on_c, 0, 48, 55
1, 3466, Note_off_c, 0, 48, 62
1, 3491, Note_on_c, 0, 50, 74
1, 3521, Note_off_c, 0, 50, 67
1, 3542, Note_on_c, 0, 58, 46
1, 3589, Note_off_c, 0, 58, 65
1, 3593, Note_on_c, 0, 55, 53
1, 3614, Note_off_c, 0, 40, 40
1, 3640, Note_off_c, 0, 55, 62
1, 3650, Note_on_c, 0, 50, 43
1, 3683, Note_off_c, 0, 50, 63
1, 3718, Note_on_c, 0, 50, 56
1, 3749, Note_off_c, 0, 50, 65
1, 3761, Note_on_c, 0, 58, 54
1, 3805, Note_off_c, 0, 58, 63
1, 3821, Note_on_c, 0, 55, 47
1, 3852, Note_off_c, 0, 55, 62
1, 3870, Note_on_c, 0, 50, 42
1, 3914, Note_off_c, 0, 50, 60
1, 3954, Note_on_c, 0, 48, 46
1, 3964, Note_on_c, 0, 40, 42
1, 3988, Note_on_c, 0, 59, 48
1, 4002, Note_off_c, 0, 48, 59
1, 4029, Note_on_c, 0, 55, 37
1, 4047, Note_off_c, 0, 59, 58
1, 4084, Note_off_c, 0, 55, 59
1, 4110, Note_on_c, 0, 48, 49
1, 4140, Note_off_c, 0, 48, 62
1, 4184, Note_on_c, 0, 48, 68
1, 4218, Note_off_c, 0, 48, 64
1, 4234, Note_on_c, 0, 59, 55
1, 4271, Note_off_c, 0, 59, 66
1, 4280, Note_on_c, 0, 55, 62
1, 4313, Note_off_c, 0, 55, 63
1, 4338, Note_on_c, 0, 48, 59
1, 4379, Note_off_c, 0, 48, 64
1, 4420, Note_on_c, 0, 50, 69
1, 4456, Note_off_c, 0, 50, 65
1, 4474, Note_on_c, 0, 58, 40
1, 4502, Note_off_c, 0, 58, 60
1, 4512, Note_on_c, 0, 55, 56
1, 4524, Note_off_c, 0, 40, 43
1, 4563, Note_on_c, 0, 50, 53
1, 4563, Note_off_c, 0, 55, 58
1, 4595, Note_off_c, 0, 50, 64
1, 4643, Note_on_c, 0, 50, 62
1, 4670, Note_off_c, 0, 50, 63
1, 4671, Note_on_c, 0, 58, 52
1, 4725, Note_off_c, 0, 58, 62
1, 4741, Note_on_c, 0, 55, 56
1, 4772, Note_off_c, 0, 55, 64
1, 4775, Note_on_c, 0, 50, 53
1, 4815, Note_off_c, 0, 50, 63
1, 4857, Note_on_c, 0, 47, 71
1, 4859, Note_on_c, 0, 41, 68
1, 4894, Note_off_c, 0, 47, 65
1, 4915, Note_on_c, 0, 59, 55
1, 4965, Note_on_c, 0, 57, 58
1, 4968, Note_off_c, 0, 59, 59
1, 4996, Note_off_c, 0, 57, 65
1, 5020, Note_on_c, 0, 47, 55
1, 5050, Note_off_c, 0, 47, 64
1, 5108, Note_on_c, 0, 47, 70
1, 5135, Note_off_c, 0, 47, 64
1, 5173, Note_on_c, 0, 59, 46
1, 5201, Note_on_c, 0, 57, 51
1, 5216, Note_off_c, 0, 59, 60
1, 5239, Note_off_c, 0, 57, 65
1, 5262, Note_on_c, 0, 47, 43
1, 5296, Note_off_c, 0, 47, 63
1, 5338, Note_on_c, 0, 47, 62
1, 5370, Note_off_c, 0, 47, 63
1, 5397, Note_on_c, 0, 59, 44
1, 5429, Note_on_c, 0, 57, 56
1, 5439, Note_off_c, 0, 59, 57
1, 5470, Note_off_c, 0, 57, 64
1, 5490, Note_on_c, 0, 47, 46
1, 5526, Note_off_c, 0, 47, 62
1, 5578, Note_on_c, 0, 47, 64
1, 5609, Note_off_c, 0, 47, 64
1, 5630, Note_on_c, 0, 59, 44
1, 5663, Note_on_c, 0, 57, 56
1, 5666, Note_off_c, 0, 59, 51
1, 5702, Note_off_c, 0, 57, 64
1, 5719, Note_on_c, 0, 47, 46
1, 5758, Note_off_c, 0, 47, 63
1, 5803, Note_on_c, 0, 47, 65
1, 5840, Note_off_c, 0, 47, 64
1, 5868, Note_on_c, 0, 59, 50
1, 5901, Note_on_c, 0, 57, 54
1, 5916, Note_off_c, 0, 59, 60
1, 5944, Note_off_c, 0, 57, 63
1, 5965, Note_on_c, 0, 47, 41
1, 6014, Note_off_c, 0, 47, 0
1, 6028, Note_on_c, 0, 47, 58
1, 6064, Note_off_c, 0, 47, 66
1, 6088, Note_on_c, 0, 59, 52
1, 6129, Note_off_c, 0, 59, 63
1, 6134, Note_on_c, 0, 57, 48
1, 6165, Note_off_c, 0, 57, 63
1, 6185, Note_on_c, 0, 47, 46
1, 6220, Note_off_c, 0, 47, 63
1, 6262, Note_on_c, 0, 48, 53
1, 6289, Note_off_c, 0, 48, 62
1, 6299, Note_on_c, 0, 59, 53
1, 6348, Note_off_c, 0, 59, 59
1, 6352, Note_on_c, 0, 57, 45
1, 6398, Note_off_c, 0, 57, 60
1, 6404, Note_on_c, 0, 48, 44
1, 6454, Note_off_c, 0, 48, 59
1, 6464, Note_off_c, 0, 41, 43
1, 6468, Note_on_c, 0, 50, 63
1, 6499, Note_off_c, 0, 50, 65
1, 6512, Note_on_c, 0, 59, 56
1, 6560, Note_off_c, 0, 59, 61
1, 6585, Note_on_c, 0, 57, 46
1, 6620, Note_off_c, 0, 57, 65
1, 6634, Note_on_c, 0, 50, 41
1, 6675, Note_off_c, 0, 50, 61
1, 6706, Note_on_c, 0, 45, 39
1, 6757, Poly_aftertouch_c, 0, 52, 0
1, 6767, Note_on_c, 0, 60, 42
1, 6809, Note_on_c, 0, 57, 49
1, 6809, Note_off_c, 0, 60, 60
1, 6847, Note_off_c, 0, 57, 64
1, 6903, Note_on_c, 0, 52, 11
1, 6927, Note_on_c, 0, 53, 53
1, 6937, Note_off_c, 0, 52, 45
1, 6957, Note_off_c, 0, 53, 63
1, 6990, Note_on_c, 0, 62, 46
1, 7034, Note_off_c, 0, 62, 62
1, 7043, Note_on_c, 0, 59, 50
1, 7073, Note_off_c, 0, 59, 64
1, 7079, Note_on_c, 0, 53, 42
1, 7125, Note_off_c, 0, 53, 62
1, 7150, Note_on_c, 0, 55, 58
1, 7189, Note_off_c, 0, 55, 64
1, 7195, Note_on_c, 0, 64, 57
1, 7240, Note_off_c, 0, 64, 62
1, 7254, Note_on_c, 0, 60, 55
1, 7290, Note_off_c, 0, 60, 65
1, 7303, Note_on_c, 0, 55, 49
1, 7353, Note_off_c, 0, 55, 62
1, 7371, Note_on_c, 0, 57, 64
1, 7404, Note_off_c, 0, 45, 37
1, 7410, Note_off_c, 0, 57, 66
1, 7411, Note_on_c, 0, 65, 61
1, 7463, Note_off_c, 0, 65, 60
1, 7472, Note_on_c, 0, 62, 60
1, 7506, Note_off_c, 0, 62, 66
1, 7532, Note_on_c, 0, 57, 52
1, 7568, Note_off_c, 0, 57, 65
1, 7582, Note_on_c, 0, 59, 74
1, 7615, Note_off_c, 0, 59, 66
1, 7626, Note_on_c, 0, 67, 66
1, 7678, Note_off_c, 0, 67, 61
1, 7685, Note_on_c, 0, 64, 62
1, 7722, Note_off_c, 0, 64, 66
1, 7740, Note_on_c, 0, 59, 59
1, 7778, Note_off_c, 0, 59, 63
1, 7809, Note_on_c, 0, 60, 78
1, 7836, Note_off_c, 0, 60, 66
1, 7842, Note_on_c, 0, 69, 76
1, 7901, Note_off_c, 0, 69, 62
1, 7902, Note_on_c, 0, 65, 69
1, 7950, Note_off_c, 0, 65, 62
1, 7966, Note_on_c, 0, 60, 64
1, 8013, Note_off_c, 0, 60, 60
1, 8027, Note_on_c, 0, 62, 84
1, 8051, Note_off_c, 0, 62, 68
1, 8076, Note_on_c, 0, 71, 78
1, 8137, Note_on_c, 0, 67, 68
1, 8137, Note_off_c, 0, 71, 63
1, 8181, Note_off_c, 0, 67, 63
1, 8197, Note_on_c, 0, 62, 61
1, 8236, Note_off_c, 0, 62, 63
1, 8239, Note_on_c, 0, 64, 88
1, 8259, Note_off_c, 0, 64, 68
1, 8299, Note_on_c, 0, 72, 76
1, 8352, Note_on_c, 0, 69, 68
1, 8360, Note_off_c, 0, 72, 63
1, 8387, Note_off_c, 0, 69, 65
1, 8417, Note_on_c, 0, 64, 52
1, 8453, Note_off_c, 0, 64, 65
1, 8472, Note_on_c, 0, 62, 57
1, 8504, Note_off_c, 0, 62, 65
1, 8508, Note_on_c, 0, 71, 57
1, 8557, Note_off_c, 0, 71, 57
1, 8566, Note_on_c, 0, 67, 52
1, 8602, Note_off_c, 0, 67, 64
1, 8616, Note_on_c, 0, 62, 41
1, 8662, Note_off_c, 0, 62, 61
1, 8694, Note_on_c, 0, 65, 54
1, 8728, Note_off_c, 0, 65, 65
1, 8733, Note_on_c, 0, 72, 54
1, 8778, Note_off_c, 0, 72, 60
1, 8795, Note_on_c, 0, 69, 52
1, 8838, Note_off_c, 0, 69, 66
1, 8861, Note_on_c, 0, 64, 46
1, 8894, Note_off_c, 0, 64, 63
1, 8921, Note_on_c, 0, 62, 53
1, 8952, Note_off_c, 0, 62, 65
1, 8958, Note_on_c, 0, 71, 57
1, 9005, Note_off_c, 0, 71, 60
1, 9017, Note_on_c, 0, 67, 54
1, 9053, Note_off_c, 0, 67, 64
1, 9067, Note_on_c, 0, 62, 44
1, 9107, Note_off_c, 0, 62, 63
1, 9129, Note_on_c, 0, 60, 69
1, 9160, Note_off_c, 0, 60, 66
1, 9178, Note_on_c, 0, 69, 62
1, 9221, Note_off_c, 0, 69, 61
1, 9240, Note_on_c, 0, 65, 55
1, 9274, Note_off_c, 0, 65, 66
1, 9288, Note_on_c, 0, 60, 51
1, 9330, Note_off_c, 0, 60, 62
1, 9349, Note_on_c, 0, 59, 57
1, 9380, Note_off_c, 0, 59, 65
1, 9404, Note_on_c, 0, 67, 54
1, 9443, Note_off_c, 0, 67, 63
1, 9458, Note_on_c, 0, 64, 55
1, 9495, Note_off_c, 0, 64, 64
1, 9515, Note_on_c, 0, 59, 41
1, 9565, Note_off_c, 0, 59, 62
1, 9579, Note_on_c, 0, 62, 61
1, 9610, Note_off_c, 0, 62, 65
1, 9631, Note_on_c, 0, 69, 58
1, 9678, Note_off_c, 0, 69, 59
1, 9690, Note_on_c, 0, 65, 49
1, 9726, Note_off_c, 0, 65, 64
1, 9750, Note_on_c, 0, 60, 39
1, 9777, Note_off_c, 0, 60, 59
1, 9804, Note_on_c, 0, 59, 60
1, 9839, Note_on_c, 0, 67, 59
1, 9840, Note_off_c, 0, 59, 64
1, 9887, Note_off_c, 0, 67, 58
1, 9899, Note_on_c, 0, 64, 51
1, 9936, Note_off_c, 0, 64, 65
1, 9947, Note_on_c, 0, 59, 45
1, 9988, Note_off_c, 0, 59, 61
1, 10006, Note_on_c, 0, 57, 57
1, 10040, Note_off_c, 0, 57, 65
1, 10054, Note_on_c, 0, 65, 54
1, 10100, Note_off_c, 0, 65, 59
1, 10113, Note_on_c, 0, 62, 50
1, 10148, Note_off_c, 0, 62, 63
1, 10155, Note_on_c, 0, 57, 46
1, 10204, Note_off_c, 0, 57, 59
1, 10223, Note_on_c, 0, 55, 52
1, 10260, Note_off_c, 0, 55, 64
1, 10272, Note_on_c, 0, 64, 50
1, 10325, Note_off_c, 0, 64, 61
1, 10334, Note_on_c, 0, 60, 51
1, 10371, Note_off_c, 0, 60, 65
1, 10381, Note_on_c, 0, 55, 47
1, 10441, Note_off_c, 0, 55, 60
1, 10459, Note_on_c, 0, 59, 55
1, 10494, Note_off_c, 0, 59, 65
1, 10504, Note_on_c, 0, 65, 52
1, 10555, Note_off_c, 0, 65, 58
1, 10569, Note_on_c, 0, 62, 44
1, 10605, Note_off_c, 0, 62, 66
1, 10620, Note_on_c, 0, 57, 44
1, 10657, Note_off_c, 0, 57, 63
1, 10672, Note_on_c, 0, 55, 54
1, 10710, Note_off_c, 0, 55, 64
1, 10720, Note_on_c, 0, 64, 52
1, 10766, Note_off_c, 0, 64, 60
1, 10778, Note_on_c, 0, 60, 49
1, 10814, Note_off_c, 0, 60, 66
1, 10823, Note_on_c, 0, 55, 45
1, 10868, Note_off_c, 0, 55, 60
1, 10895, Note_on_c, 0, 53, 57
1, 10931, Note_off_c, 0, 53, 66
1, 10936, Note_on_c, 0, 62, 48
1, 10981, Note_off_c, 0, 62, 61
1, 10988, Note_on_c, 0, 59, 46
1, 11034, Note_on_c, 0, 53, 50
1, 11035, Note_off_c, 0, 59, 58
1, 11086, Note_off_c, 0, 53, 60
1, 11106, Note_on_c, 0, 52, 55
1, 11142, Note_off_c, 0, 52, 65
1, 11168, Note_on_c, 0, 60, 49
1, 11216, Note_off_c, 0, 60, 63
1, 11219, Note_on_c, 0, 57, 51
1, 11255, Note_off_c, 0, 57, 65
1, 11268, Note_on_c, 0, 52, 40
1, 11318, Note_off_c, 0, 52, 61
1, 11333, Note_on_c, 0, 55, 54
1, 11365, Note_off_c, 0, 55, 65
1, 11379, Note_on_c, 0, 62, 51
1, 11426, Note_off_c, 0, 62, 61
1, 11433, Note_on_c, 0, 59, 44
1, 11469, Note_off_c, 0, 59, 63
1, 11494, Note_on_c, 0, 53, 40
1, 11529, Note_off_c, 0, 53, 56
1, 11550, Note_on_c, 0, 52, 53
1, 11583, Note_off_c, 0, 52, 65
1, 11586, Note_on_c, 0, 60, 53
1, 11640, Note_off_c, 0, 60, 58
1, 11650, Note_on_c, 0, 57, 47
1, 11689, Note_off_c, 0, 57, 64
1, 11695, Note_on_c, 0, 52, 42
1, 11741, Note_off_c, 0, 52, 61
1, 11767, Note_on_c, 0, 50, 50
1, 11795, Note_off_c, 0, 50, 62
1, 11824, Note_on_c, 0, 59, 49
1, 11867, Note_off_c, 0, 59, 62
1, 11877, Note_on_c, 0, 55, 46
1, 11916, Note_off_c, 0, 55, 62
1, 11921, Note_on_c, 0, 50, 39
1, 11968, Note_off_c, 0, 50, 60
1, 11995, Note_on_c, 0, 41, 44
1, 12002, Note_on_c, 0, 48, 35
1, 12037, Note_off_c, 0, 48, 55
1, 12061, Note_on_c, 0, 57, 44
1, 12102, Note_on_c, 0, 53, 46
1, 12106, Note_off_c, 0, 57, 62
1, 12134, Note_off_c, 0, 53, 61
1, 12149, Note_on_c, 0, 48, 45
1, 12201, Note_off_c, 0, 48, 60
1, 12209, Note_on_c, 0, 52, 53
1, 12240, Note_off_c, 0, 52, 66
1, 12273, Note_on_c, 0, 59, 46
1, 12316, Note_off_c, 0, 59, 63
1, 12321, Note_on_c, 0, 55, 41
1, 12355, Note_off_c, 0, 55, 62
1, 12380, Note_on_c, 0, 50, 32
1, 12415, Note_off_c, 0, 50, 52
1, 12438, Note_on_c, 0, 48, 48
1, 12468, Note_off_c, 0, 48, 62
1, 12477, Note_on_c, 0, 57, 51
1, 12521, Note_off_c, 0, 57, 63
1, 12532, Note_on_c, 0, 53, 52
1, 12576, Note_off_c, 0, 53, 63
1, 12582, Note_on_c, 0, 48, 45
1, 12633, Note_off_c, 0, 48, 59
1, 12641, Note_on_c, 0, 52, 54
1, 12673, Note_off_c, 0, 52, 66
1, 12702, Note_on_c, 0, 59, 53
1, 12746, Note_off_c, 0, 59, 62
1, 12764, Note_on_c, 0, 55, 38
1, 12794, Note_off_c, 0, 55, 56
1, 12817, Note_on_c, 0, 50, 38
1, 12848, Note_off_c, 0, 50, 54
1, 12871, Note_on_c, 0, 47, 50
1, 12892, Note_on_c, 0, 55, 50
1, 12902, Note_off_c, 0, 47, 64
1, 12947, Note_off_c, 0, 55, 61
1, 12963, Note_on_c, 0, 52, 47
1, 12995, Note_off_c, 0, 52, 65
1, 13008, Note_on_c, 0, 47, 42
1, 13053, Note_off_c, 0, 47, 61
1, 13077, Note_on_c, 0, 50, 53
1, 13106, Note_off_c, 0, 50, 64
1, 13121, Note_on_c, 0, 57, 46
1, 13169, Note_off_c, 0, 57, 61
1, 13186, Note_on_c, 0, 53, 42
1, 13218, Note_off_c, 0, 53, 60
1, 13246, Note_on_c, 0, 48, 35
1, 13277, Note_off_c, 0, 48, 55
1, 13317, Note_on_c, 0, 47, 46
1, 13344, Note_off_c, 0, 47, 61
1, 13357, Note_on_c, 0, 55, 40
1, 13404, Note_off_c, 0, 55, 61
1, 13405, Note_on_c, 0, 52, 44
1, 13440, Note_off_c, 0, 52, 65
1, 13448, Note_on_c, 0, 47, 43
1, 13491, Note_off_c, 0, 47, 61
1, 13516, Note_on_c, 0, 50, 53
1, 13533, Note_off_c, 0, 41, 40
1, 13544, Note_off_c, 0, 50, 62
1, 13564, Note_on_c, 0, 57, 53
1, 13613, Note_off_c, 0, 57, 62
1, 13647, Note_on_c, 0, 53, 28
1, 13676, Note_on_c, 0, 48, 42
1, 13689, Note_off_c, 0, 53, 51
1, 13714, Note_off_c, 0, 48, 61
1, 13714, Control_c, 0, 64, 35
1, 13729, Control_c, 0, 64, 47
1, 13743, Control_c, 0, 64, 55
1, 13753, Note_on_c, 0, 45, 44
1, 13758, Control_c, 0, 64, 62
1, 13773, Control_c, 0, 64, 67
1, 13788, Control_c, 0, 64, 74
1, 13796, Note_on_c, 0, 57, 50
1, 13802, Control_c, 0, 64, 88
1, 13816, Note_off_c, 0, 45, 58
1, 13817, Control_c, 0, 64, 119
1, 13832, Control_c, 0, 64, 127
1, 13837, Note_on_c, 0, 53, 46
1, 13844, Note_off_c, 0, 57, 60
1, 13876, Note_off_c, 0, 53, 63
1, 13913, Note_on_c, 0, 45, 51
1, 13939, Note_off_c, 0, 45, 63
1, 13977, Note_on_c, 0, 39, 49
1, 14020, Note_off_c, 0, 39, 60
1, 14029, Note_on_c, 0, 45, 46
1, 14039, Note_on_c, 0, 53, 53
1, 14068, Note_off_c, 0, 45, 53
1, 14102, Note_on_c, 0, 57, 64
1, 14106, Control_c, 0, 64, 125
1, 14116, Note_off_c, 0, 53, 63
1, 14121, Control_c, 0, 64, 104
1, 14130, Note_off_c, 0, 57, 66
1, 14135, Control_c, 0, 64, 92
1, 14150, Control_c, 0, 64, 82
1, 14165, Control_c, 0, 64, 74
1, 14180, Control_c, 0, 64, 66
1, 14184, Note_on_c, 0, 36, 48
1, 14195, Control_c, 0, 64, 56
1, 14209, Control_c, 0, 64, 36
1, 14224, Control_c, 0, 64, 30
1, 14243, Note_on_c, 0, 62, 65
1, 14254, Control_c, 0, 64, 32
1, 14269, Control_c, 0, 64, 42
1, 14284, Control_c, 0, 64, 53
1, 14299, Control_c, 0, 64, 60
1, 14302, Note_off_c, 0, 62, 55
1, 14313, Note_on_c, 0, 58, 49
1, 14314, Control_c, 0, 64, 63
1, 14318, Note_off_c, 0, 36, 55
1, 14329, Control_c, 0, 64, 65
1, 14343, Control_c, 0, 64, 67
1, 14352, Note_off_c, 0, 58, 64
1, 14358, Control_c, 0, 64, 70
1, 14373, Control_c, 0, 64, 73
1, 14382, Note_on_c, 0, 52, 47
1, 14388, Control_c, 0, 64, 77
1, 14403, Control_c, 0, 64, 78
1, 14417, Note_off_c, 0, 52, 51
1, 14448, Note_on_c, 0, 50, 51
1, 14487, Note_off_c, 0, 50, 64
1, 14510, Note_on_c, 0, 52, 52
1, 14519, Note_on_c, 0, 58, 50
1, 14522, Control_c, 0, 64, 78
1, 14544, Note_off_c, 0, 52, 56
1, 14589, Note_off_c, 0, 58, 63
1, 14590, Note_on_c, 0, 62, 56
1, 14596, Control_c, 0, 64, 77
1, 14611, Control_c, 0, 64, 75
1, 14613, Note_off_c, 0, 62, 61
1, 14626, Control_c, 0, 64, 71
1, 14640, Control_c, 0, 64, 64
1, 14650, Note_on_c, 0, 49, 55
1, 14655, Control_c, 0, 64, 56
1, 14670, Control_c, 0, 64, 45
1, 14684, Control_c, 0, 64, 43
1, 14714, Control_c, 0, 64, 46
1, 14729, Control_c, 0, 64, 51
1, 14735, Note_on_c, 0, 61, 30
1, 14744, Control_c, 0, 64, 56
1, 14758, Control_c, 0, 64, 61
1, 14761, Note_off_c, 0, 49, 57
1, 14761, Note_on_c, 0, 57, 54
1, 14767, Note_off_c, 0, 61, 49
1, 14773, Control_c, 0, 64, 63
1, 14788, Control_c, 0, 64, 65
1, 14810, Note_on_c, 0, 49, 35
1, 14810, Note_off_c, 0, 57, 64
1, 14811, Control_c, 0, 64, 68
1, 14826, Control_c, 0, 64, 71
1, 14840, Control_c, 0, 64, 74
1, 14855, Control_c, 0, 64, 78
1, 14859, Note_off_c, 0, 49, 64
1, 14870, Control_c, 0, 64, 79
1, 14884, Control_c, 0, 64, 80
1, 14895, Note_on_c, 0, 43, 55
1, 14925, Note_on_c, 0, 49, 59
1, 14958, Control_c, 0, 64, 81
1, 14959, Note_off_c, 0, 43, 55
1, 14960, Note_off_c, 0, 49, 64
1, 14976, Note_on_c, 0, 57, 67
1, 15019, Note_on_c, 0, 61, 70
1, 15035, Note_off_c, 0, 57, 64
1, 15047, Control_c, 0, 64, 80
1, 15048, Note_off_c, 0, 61, 66
1, 15062, Control_c, 0, 64, 80
1, 15077, Control_c, 0, 64, 78
1, 15090, Note_on_c, 0, 39, 69
1, 15092, Control_c, 0, 64, 75
1, 15107, Control_c, 0, 64, 70
1, 15121, Control_c, 0, 64, 63
1, 15136, Control_c, 0, 64, 52
1, 15151, Control_c, 0, 64, 46
1, 15157, Note_on_c, 0, 65, 76
1, 15166, Control_c, 0, 64, 46
1, 15181, Control_c, 0, 64, 47
1, 15196, Control_c, 0, 64, 51
1, 15212, Control_c, 0, 64, 56
1, 15227, Control_c, 0, 64, 61
1, 15229, Note_on_c, 0, 61, 58
1, 15242, Control_c, 0, 64, 64
1, 15256, Control_c, 0, 64, 66
1, 15259, Note_off_c, 0, 65, 59
1, 15265, Note_off_c, 0, 39, 55
1, 15271, Control_c, 0, 64, 68
1, 15281, Note_off_c, 0, 61, 60
1, 15286, Control_c, 0, 64, 71
1, 15300, Note_on_c, 0, 55, 57
1, 15301, Control_c, 0, 64, 74
1, 15315, Control_c, 0, 64, 77
1, 15330, Control_c, 0, 64, 78
1, 15339, Note_off_c, 0, 55, 64
1, 15345, Control_c, 0, 64, 79
1, 15363, Note_on_c, 0, 53, 58
1, 15375, Control_c, 0, 64, 79
1, 15415, Note_off_c, 0, 53, 59
1, 15417, Note_on_c, 0, 55, 62
1, 15453, Note_on_c, 0, 61, 55
1, 15466, Note_off_c, 0, 55, 59
1, 15503, Note_on_c, 0, 65, 70
1, 15508, Control_c, 0, 64, 79
1, 15515, Note_off_c, 0, 61, 62
1, 15523, Control_c, 0, 64, 78
1, 15532, Note_off_c, 0, 65, 66
1, 15538, Control_c, 0, 64, 75
1, 15560, Control_c, 0, 64, 71
1, 15575, Control_c, 0, 64, 65
1, 15581, Note_on_c, 0, 52, 64
1, 15589, Control_c, 0, 64, 59
1, 15604, Control_c, 0, 64, 53
1, 15619, Control_c, 0, 64, 52
1, 15634, Control_c, 0, 64, 53
1, 15637, Note_on_c, 0, 64, 60
1, 15649, Control_c, 0, 64, 55
1, 15664, Control_c, 0, 64, 58
1, 15679, Control_c, 0, 64, 62
1, 15680, Note_on_c, 0, 60, 57
1, 15680, Note_off_c, 0, 52, 62
1, 15684, Note_off_c, 0, 64, 57
1, 15694, Control_c, 0, 64, 64
1, 15708, Control_c, 0, 64, 67
1, 15723, Control_c, 0, 64, 70
1, 15728, Note_off_c, 0, 60, 63
1, 15738, Control_c, 0, 64, 73
1, 15740, Note_on_c, 0, 52, 57
1, 15753, Control_c, 0, 64, 77
1, 15768, Control_c, 0, 64, 81
1, 15783, Control_c, 0, 64, 84
1, 15784, Note_off_c, 0, 52, 64
1, 15797, Control_c, 0, 64, 85
1, 15804, Note_on_c, 0, 46, 73
1, 15854, Note_on_c, 0, 52, 62
1, 15857, Control_c, 0, 64, 85
1, 15879, Note_on_c, 0, 60, 68
1, 15879, Note_off_c, 0, 46, 57
1, 15901, Control_c, 0, 64, 86
1, 15903, Note_off_c, 0, 52, 61
1, 15929, Control_c, 0, 64, 86
1, 15942, Note_on_c, 0, 64, 78
1, 15956, Note_off_c, 0, 60, 65
1, 15968, Note_off_c, 0, 64, 67
1, 15974, Control_c, 0, 64, 85
1, 15988, Control_c, 0, 64, 84
1, 15999, Note_on_c, 0, 43, 79
1, 16004, Control_c, 0, 64, 82
1, 16019, Control_c, 0, 64, 75
1, 16034, Control_c, 0, 64, 66
1, 16048, Control_c, 0, 64, 57
1, 16063, Control_c, 0, 64, 46
1, 16068, Note_on_c, 0, 69, 86
1, 16078, Control_c, 0, 64, 44
1, 16093, Control_c, 0, 64, 47
1, 16108, Control_c, 0, 64, 52
1, 16123, Control_c, 0, 64, 57
1, 16137, Control_c, 0, 64, 61
1, 16139, Note_on_c, 0, 65, 65
1, 16144, Note_off_c, 0, 43, 56
1, 16152, Control_c, 0, 64, 65
1, 16162, Note_off_c, 0, 69, 61
1, 16167, Control_c, 0, 64, 67
1, 16182, Control_c, 0, 64, 70
1, 16197, Control_c, 0, 64, 72
1, 16201, Note_off_c, 0, 65, 61
1, 16211, Control_c, 0, 64, 74
1, 16212, Note_on_c, 0, 59, 59
1, 16226, Control_c, 0, 64, 76
1, 16241, Control_c, 0, 64, 78
1, 16248, Note_off_c, 0, 59, 65
1, 16256, Control_c, 0, 64, 79
1, 16260, Note_on_c, 0, 57, 58
1, 16271, Control_c, 0, 64, 79
1, 16285, Control_c, 0, 64, 80
1, 16307, Note_off_c, 0, 57, 65
1, 16335, Note_on_c, 0, 59, 65
1, 16370, Note_on_c, 0, 65, 59
1, 16370, Note_off_c, 0, 59, 61
1, 16424, Note_on_c, 0, 69, 68
1, 16428, Note_off_c, 0, 65, 62
1, 16441, Control_c, 0, 64, 78
1, 16451, Note_off_c, 0, 69, 66
1, 16456, Control_c, 0, 64, 76
1, 16471, Control_c, 0, 64, 69
1, 16475, Note_on_c, 0, 56, 64
1, 16485, Control_c, 0, 64, 62
1, 16500, Control_c, 0, 64, 53
1, 16515, Control_c, 0, 64, 48
1, 16530, Control_c, 0, 64, 49
1, 16544, Control_c, 0, 64, 53
1, 16553, Note_on_c, 0, 68, 54
1, 16559, Control_c, 0, 64, 58
1, 16574, Control_c, 0, 64, 62
1, 16576, Note_off_c, 0, 56, 63
1, 16589, Control_c, 0, 64, 64
1, 16597, Note_on_c, 0, 64, 55
1, 16600, Note_off_c, 0, 68, 59
1, 16603, Control_c, 0, 64, 67
1, 16618, Control_c, 0, 64, 70
1, 16633, Control_c, 0, 64, 74
1, 16635, Note_off_c, 0, 64, 63
1, 16648, Control_c, 0, 64, 77
1, 16651, Note_on_c, 0, 56, 58
1, 16663, Control_c, 0, 64, 80
1, 16677, Control_c, 0, 64, 82
1, 16687, Note_off_c, 0, 56, 65
1, 16692, Control_c, 0, 64, 83
1, 16707, Control_c, 0, 64, 84
1, 16713, Note_on_c, 0, 50, 66
1, 16757, Note_on_c, 0, 56, 71
1, 16780, Note_off_c, 0, 50, 51
1, 16785, Note_on_c, 0, 64, 59
1, 16788, Note_off_c, 0, 56, 66
1, 16826, Control_c, 0, 64, 84
1, 16835, Note_on_c, 0, 68, 79
1, 16844, Note_off_c, 0, 64, 64
1, 16863, Note_off_c, 0, 68, 65
1, 16871, Control_c, 0, 64, 83
1, 16886, Control_c, 0, 64, 81
1, 16894, Note_on_c, 0, 46, 72
1, 16901, Control_c, 0, 64, 74
1, 16916, Control_c, 0, 64, 65
1, 16931, Control_c, 0, 64, 53
1, 16946, Control_c, 0, 64, 41
1, 16960, Control_c, 0, 64, 40
1, 16975, Control_c, 0, 64, 42
1, 16979, Note_on_c, 0, 72, 74
1, 16990, Control_c, 0, 64, 51
1, 17005, Control_c, 0, 64, 57
1, 17020, Control_c, 0, 64, 61
1, 17034, Control_c, 0, 64, 64
1, 17042, Note_off_c, 0, 46, 57
1, 17056, Control_c, 0, 64, 66
1, 17062, Note_on_c, 0, 68, 59
1, 17071, Note_off_c, 0, 72, 56
1, 17071, Control_c, 0, 64, 68
1, 17086, Control_c, 0, 64, 71
1, 17101, Control_c, 0, 64, 74
1, 17107, Note_off_c, 0, 68, 60
1, 17116, Control_c, 0, 64, 76
1, 17131, Control_c, 0, 64, 78
1, 17139, Note_on_c, 0, 62, 48
1, 17145, Control_c, 0, 64, 80
1, 17160, Control_c, 0, 64, 80
1, 17165, Note_off_c, 0, 62, 58
1, 17180, Note_on_c, 0, 60, 52
1, 17228, Note_off_c, 0, 60, 62
1, 17258, Note_on_c, 0, 62, 48
1, 17279, Control_c, 0, 64, 80
1, 17298, Note_off_c, 0, 62, 61
1, 17301, Note_on_c, 0, 68, 58
1, 17368, Note_on_c, 0, 72, 61
1, 17379, Note_off_c, 0, 68, 59
1, 17435, Note_off_c, 0, 72, 51
1, 17492, Note_on_c, 0, 65, 71
1, 17500, Control_c, 0, 64, 79
1, 17530, Control_c, 0, 64, 78
1, 17545, Control_c, 0, 64, 75
1, 17560, Control_c, 0, 64, 66
1, 17575, Control_c, 0, 64, 57
1, 17590, Control_c, 0, 64, 47
1, 17605, Control_c, 0, 64, 48
1, 17620, Control_c, 0, 64, 52
1, 17625, Note_on_c, 0, 70, 49
1, 17635, Control_c, 0, 64, 56
1, 17649, Control_c, 0, 64, 60
1, 17664, Control_c, 0, 64, 63
1, 17670, Note_off_c, 0, 70, 63
1, 17679, Control_c, 0, 64, 65
1, 17694, Control_c, 0, 64, 68
1, 17704, Note_on_c, 0, 68, 37
1, 17709, Control_c, 0, 64, 71
1, 17724, Control_c, 0, 64, 73
1, 17733, Note_off_c, 0, 68, 55
1, 17739, Control_c, 0, 64, 76
1, 17752, Note_on_c, 0, 62, 48
1, 17754, Control_c, 0, 64, 77
1, 17768, Control_c, 0, 64, 79
1, 17782, Note_off_c, 0, 65, 29
1, 17783, Control_c, 0, 64, 80
1, 17805, Control_c, 0, 64, 80
1, 17820, Note_off_c, 0, 62, 0
1, 17827, Note_on_c, 0, 60, 53
1, 17850, Control_c, 0, 64, 81
1, 17857, Poly_aftertouch_c, 0, 62, 127
1, 17879, Control_c, 0, 64, 81
1, 17902, Note_on_c, 0, 68, 43
1, 17903, Poly_aftertouch_c, 0, 62, 0
1, 17909, Control_c, 0, 64, 82
1, 17923, Control_c, 0, 64, 83
1, 17938, Control_c, 0, 64, 84
1, 17945, Note_on_c, 0, 70, 61
1, 17953, Note_off_c, 0, 60, 32
1, 17953, Control_c, 0, 64, 85
1, 17967, Note_off_c, 0, 68, 58
1, 17968, Control_c, 0, 64, 85
1, 17977, Note_off_c, 0, 70, 66
1, 17998, Control_c, 0, 64, 85
1, 18013, Control_c, 0, 64, 82
1, 18018, Note_on_c, 0, 59, 63
1, 18028, Control_c, 0, 64, 72
1, 18043, Control_c, 0, 64, 63
1, 18057, Control_c, 0, 64, 55
1, 18072, Control_c, 0, 64, 56
1, 18087, Control_c, 0, 64, 58
1, 18090, Note_on_c, 0, 71, 54
1, 18101, Control_c, 0, 64, 61
1, 18116, Control_c, 0, 64, 64
1, 18125, Note_off_c, 0, 71, 65
1, 18131, Control_c, 0, 64, 66
1, 18145, Note_on_c, 0, 68, 51
1, 18146, Control_c, 0, 64, 69
1, 18161, Control_c, 0, 64, 73
1, 18174, Control_c, 0, 64, 76
1, 18186, Note_off_c, 0, 68, 61
1, 18189, Control_c, 0, 64, 77
1, 18198, Note_on_c, 0, 62, 53
1, 18204, Control_c, 0, 64, 79
1, 18215, Note_off_c, 0, 59, 33
1, 18219, Control_c, 0, 64, 80
1, 18223, Note_off_c, 0, 62, 61
1, 18234, Control_c, 0, 64, 80
1, 18248, Control_c, 0, 64, 81
1, 18254, Note_on_c, 0, 64, 65
1, 18263, Control_c, 0, 64, 81
1, 18278, Control_c, 0, 64, 82
1, 18284, Note_off_c, 0, 64, 66
1, 18302, Note_on_c, 0, 62, 60
1, 18308, Control_c, 0, 64, 82
1, 18323, Control_c, 0, 64, 83
1, 18338, Control_c, 0, 64, 84
1, 18350, Note_off_c, 0, 62, 55
1, 18353, Control_c, 0, 64, 84
1, 18354, Note_on_c, 0, 68, 65
1, 18368, Control_c, 0, 64, 85
1, 18382, Control_c, 0, 64, 87
1, 18397, Control_c, 0, 64, 90
1, 18405, Note_on_c, 0, 71, 69
1, 18412, Control_c, 0, 64, 91
1, 18415, Note_off_c, 0, 68, 62
1, 18436, Note_off_c, 0, 71, 66
1, 18442, Control_c, 0, 64, 89
1, 18457, Control_c, 0, 64, 82
1, 18467, Note_on_c, 0, 65, 76
1, 18472, Control_c, 0, 64, 67
1, 18487, Control_c, 0, 64, 55
1, 18502, Control_c, 0, 64, 49
1, 18517, Control_c, 0, 64, 54
1, 18519, Note_on_c, 0, 72, 74
1, 18531, Control_c, 0, 64, 57
1, 18553, Control_c, 0, 64, 60
1, 18568, Control_c, 0, 64, 64
1, 18582, Note_off_c, 0, 65, 52
1, 18583, Control_c, 0, 64, 66
1, 18590, Note_off_c, 0, 72, 63
1, 18598, Control_c, 0, 64, 69
1, 18605, Note_on_c, 0, 68, 63
1, 18612, Control_c, 0, 64, 71
1, 18627, Control_c, 0, 64, 72
1, 18639, Note_off_c, 0, 68, 64
1, 18642, Control_c, 0, 64, 74
1, 18657, Note_on_c, 0, 62, 62
1, 18657, Control_c, 0, 64, 75
1, 18672, Control_c, 0, 64, 76
1, 18687, Control_c, 0, 64, 76
1, 18692, Note_off_c, 0, 62, 65
1, 18701, Control_c, 0, 64, 77
1, 18716, Control_c, 0, 64, 77
1, 18722, Note_on_c, 0, 58, 65
1, 18761, Control_c, 0, 64, 78
1, 18775, Note_off_c, 0, 58, 62
1, 18776, Note_on_c, 0, 62, 60
1, 18791, Control_c, 0, 64, 78
1, 18798, Note_on_c, 0, 68, 63
1, 18805, Control_c, 0, 64, 79
1, 18809, Note_off_c, 0, 62, 62
1, 18820, Control_c, 0, 64, 81
1, 18835, Control_c, 0, 64, 83
1, 18850, Control_c, 0, 64, 85
1, 18857, Note_on_c, 0, 72, 71
1, 18865, Control_c, 0, 64, 87
1, 18878, Note_off_c, 0, 68, 62
1, 18879, Control_c, 0, 64, 89
1, 18886, Note_off_c, 0, 72, 66
1, 18894, Control_c, 0, 64, 89
1, 18924, Control_c, 0, 64, 85
1, 18931, Note_on_c, 0, 57, 84
1, 18939, Control_c, 0, 64, 73
1, 18954, Control_c, 0, 64, 57
1, 18969, Control_c, 0, 64, 38
1, 18984, Control_c, 0, 64, 40
1, 18997, Note_off_c, 0, 57, 58
1, 18998, Control_c, 0, 64, 46
1, 19002, Note_on_c, 0, 71, 70
1, 19005, Note_on_c, 0, 73, 68
1, 19013, Control_c, 0, 64, 53
1, 19028, Control_c, 0, 64, 60
1, 19043, Control_c, 0, 64, 63
1, 19058, Control_c, 0, 64, 65
1, 19063, Note_on_c, 0, 67, 54
1, 19065, Note_off_c, 0, 73, 64
1, 19072, Control_c, 0, 64, 67
1, 19073, Note_off_c, 0, 71, 62
1, 19087, Control_c, 0, 64, 69
1, 19101, Note_on_c, 0, 61, 70
1, 19101, Note_off_c, 0, 67, 65
1, 19102, Control_c, 0, 64, 71
1, 19117, Control_c, 0, 64, 72
1, 19131, Control_c, 0, 64, 75
1, 19146, Note_off_c, 0, 61, 59
1, 19146, Control_c, 0, 64, 77
1, 19161, Control_c, 0, 64, 79
1, 19165, Note_on_c, 0, 64, 68
1, 19176, Control_c, 0, 64, 80
1, 19191, Control_c, 0, 64, 82
1, 19193, Note_off_c, 0, 64, 68
1, 19207, Control_c, 0, 64, 83
1, 19221, Control_c, 0, 64, 84
1, 19235, Note_on_c, 0, 61, 55
1, 19251, Control_c, 0, 64, 85
1, 19266, Control_c, 0, 64, 86
1, 19269, Note_on_c, 0, 67, 67
1, 19278, Note_off_c, 0, 61, 61
1, 19281, Control_c, 0, 64, 88
1, 19303, Control_c, 0, 64, 92
1, 19318, Control_c, 0, 64, 98
1, 19331, Note_on_c, 0, 73, 74
1, 19333, Control_c, 0, 64, 106
1, 19346, Note_off_c, 0, 67, 63
1, 19348, Control_c, 0, 64, 109
1, 19360, Note_off_c, 0, 73, 64
1, 19362, Control_c, 0, 64, 104
1, 19367, Note_on_c, 0, 71, 32
1, 19377, Control_c, 0, 64, 87
1, 19392, Note_on_c, 0, 66, 89
1, 19392, Control_c, 0, 64, 67
1, 19398, Note_off_c, 0, 71, 51
1, 19407, Control_c, 0, 64, 44
1, 19422, Control_c, 0, 64, 30
1, 19436, Control_c, 0, 64, 40
1, 19451, Control_c, 0, 64, 50
1, 19456, Note_on_c, 0, 72, 71
1, 19459, Note_on_c, 0, 76, 76
1, 19462, Note_off_c, 0, 66, 56
1, 19466, Control_c, 0, 64, 59
1, 19481, Control_c, 0, 64, 64
1, 19495, Control_c, 0, 64, 67
1, 19510, Control_c, 0, 64, 71
1, 19514, Note_on_c, 0, 68, 74
1, 19525, Note_off_c, 0, 72, 63
1, 19525, Control_c, 0, 64, 75
1, 19540, Control_c, 0, 64, 77
1, 19541, Note_off_c, 0, 76, 63
1, 19554, Control_c, 0, 64, 79
1, 19569, Control_c, 0, 64, 79
1, 19575, Note_off_c, 0, 68, 62
1, 19581, Note_on_c, 0, 64, 71
1, 19584, Control_c, 0, 64, 80
1, 19599, Control_c, 0, 64, 81
1, 19614, Control_c, 0, 64, 82
1, 19617, Note_on_c, 0, 56, 69
1, 19623, Note_off_c, 0, 64, 61
1, 19629, Control_c, 0, 64, 82
1, 19646, Note_on_c, 0, 73, 24
1, 19655, Note_off_c, 0, 56, 65
1, 19658, Control_c, 0, 64, 83
1, 19673, Control_c, 0, 64, 83
1, 19688, Note_off_c, 0, 73, 38
1, 19690, Note_on_c, 0, 64, 60
1, 19703, Control_c, 0, 64, 84
1, 19709, Note_on_c, 0, 68, 66
1, 19718, Control_c, 0, 64, 86
1, 19729, Note_off_c, 0, 64, 56
1, 19733, Control_c, 0, 64, 89
1, 19747, Control_c, 0, 64, 93
1, 19762, Control_c, 0, 64, 98
1, 19763, Note_on_c, 0, 72, 77
1, 19769, Note_on_c, 0, 76, 82
1, 19777, Control_c, 0, 64, 104
1, 19781, Note_off_c, 0, 68, 63
1, 19787, Note_off_c, 0, 72, 70
1, 19792, Control_c, 0, 64, 105
1, 19795, Note_off_c, 0, 76, 67
1, 19807, Control_c, 0, 64, 99
1, 19821, Control_c, 0, 64, 82
1, 19829, Note_on_c, 0, 61, 89
1, 19836, Control_c, 0, 64, 64
1, 19851, Control_c, 0, 64, 41
1, 19866, Control_c, 0, 64, 36
1, 19880, Control_c, 0, 64, 46
1, 19882, Note_on_c, 0, 75, 79
1, 19882, Note_on_c, 0, 79, 78
1, 19895, Control_c, 0, 64, 55
1, 19910, Control_c, 0, 64, 61
1, 19925, Control_c, 0, 64, 65
1, 19930, Note_off_c, 0, 61, 59
1, 19940, Control_c, 0, 64, 69
1, 19946, Note_on_c, 0, 71, 79
1, 19954, Control_c, 0, 64, 73
1, 19963, Note_off_c, 0, 79, 66
1, 19969, Control_c, 0, 64, 76
1, 19972, Note_off_c, 0, 75, 62
1, 19984, Control_c, 0, 64, 78
1, 20000, Control_c, 0, 64, 79
1, 20015, Note_off_c, 0, 71, 62
1, 20015, Control_c, 0, 64, 79
1, 20022, Note_on_c, 0, 67, 73
1, 20030, Control_c, 0, 64, 80
1, 20052, Control_c, 0, 64, 82
1, 20057, Note_off_c, 0, 67, 66
1, 20067, Control_c, 0, 64, 84
1, 20067, Note_on_c, 0, 51, 71
1, 20082, Control_c, 0, 64, 86
1, 20097, Control_c, 0, 64, 87
1, 20111, Note_off_c, 0, 51, 57
1, 20126, Control_c, 0, 64, 87
1, 20141, Note_on_c, 0, 67, 66
1, 20141, Control_c, 0, 64, 88
1, 20152, Note_on_c, 0, 71, 68
1, 20156, Control_c, 0, 64, 89
1, 20171, Control_c, 0, 64, 91
1, 20174, Note_off_c, 0, 67, 65
1, 20185, Control_c, 0, 64, 95
1, 20200, Control_c, 0, 64, 102
1, 20213, Note_on_c, 0, 75, 83
1, 20215, Control_c, 0, 64, 115
1, 20225, Note_off_c, 0, 71, 65
1, 20229, Note_on_c, 0, 79, 63
1, 20230, Control_c, 0, 64, 127
1, 20239, Note_off_c, 0, 75, 62
1, 20249, Note_off_c, 0, 79, 65
1, 20274, Control_c, 0, 64, 98
1, 20278, Note_on_c, 0, 60, 95
1, 20289, Control_c, 0, 64, 71
1, 20304, Control_c, 0, 64, 51
1, 20319, Control_c, 0, 64, 36
1, 20330, Note_on_c, 0, 82, 85
1, 20333, Control_c, 0, 64, 44
1, 20338, Note_on_c, 0, 78, 81
1, 20348, Control_c, 0, 64, 54
1, 20350, Note_off_c, 0, 60, 58
1, 20363, Control_c, 0, 64, 61
1, 20377, Control_c, 0, 64, 65
1, 20392, Control_c, 0, 64, 70
1, 20401, Note_on_c, 0, 74, 83
1, 20407, Control_c, 0, 64, 76
1, 20419, Note_off_c, 0, 82, 64
1, 20422, Control_c, 0, 64, 80
1, 20428, Note_off_c, 0, 78, 63
1, 20437, Control_c, 0, 64, 83
1, 20451, Control_c, 0, 64, 84
1, 20466, Control_c, 0, 64, 85
1, 20470, Note_on_c, 0, 70, 79
1, 20473, Note_off_c, 0, 74, 63
1, 20481, Control_c, 0, 64, 87
1, 20486, Note_on_c, 0, 50, 73
1, 20496, Control_c, 0, 64, 89
1, 20511, Control_c, 0, 64, 92
1, 20514, Note_off_c, 0, 50, 66
1, 20516, Note_off_c, 0, 70, 62
1, 20526, Control_c, 0, 64, 94
1, 20541, Control_c, 0, 64, 95
1, 20547, Note_on_c, 0, 82, 40
1, 20556, Control_c, 0, 64, 96
1, 20562, Note_on_c, 0, 70, 68
1, 20570, Control_c, 0, 64, 96
1, 20574, Note_off_c, 0, 82, 52
1, 20580, Note_on_c, 0, 74, 74
1, 20585, Control_c, 0, 64, 97
1, 20600, Control_c, 0, 64, 99
1, 20615, Control_c, 0, 64, 103
1, 20630, Note_off_c, 0, 70, 61
1, 20630, Control_c, 0, 64, 109
1, 20634, Poly_aftertouch_c, 0, 78, 0
1, 20644, Control_c, 0, 64, 119
1, 20648, Note_on_c, 0, 78, 58
1, 20652, Note_on_c, 0, 82, 75
1, 20659, Control_c, 0, 64, 127
1, 20661, Note_off_c, 0, 74, 64
1, 20683, Note_off_c, 0, 78, 67
1, 20684, Note_off_c, 0, 82, 64
1, 20715, Note_on_c, 0, 55, 92
1, 20718, Control_c, 0, 64, 103
1, 20733, Control_c, 0, 64, 73
1, 20748, Control_c, 0, 64, 53
1, 20763, Note_on_c, 0, 85, 82
1, 20763, Control_c, 0, 64, 24
1, 20765, Note_on_c, 0, 81, 81
1, 20777, Control_c, 0, 64, 31
1, 20800, Control_c, 0, 64, 41
1, 20815, Control_c, 0, 64, 55
1, 20830, Control_c, 0, 64, 62
1, 20845, Control_c, 0, 64, 67
1, 20848, Note_off_c, 0, 55, 57
1, 20856, Note_on_c, 0, 77, 77
1, 20860, Control_c, 0, 64, 73
1, 20875, Control_c, 0, 64, 79
1, 20881, Note_off_c, 0, 81, 65
1, 20886, Note_on_c, 0, 76, 39
1, 20887, Note_off_c, 0, 76, 127
1, 20887, Note_off_c, 0, 85, 62
1, 20889, Control_c, 0, 64, 85
1, 20904, Control_c, 0, 64, 90
1, 20919, Control_c, 0, 64, 94
1, 20930, Note_on_c, 0, 73, 77
1, 20934, Control_c, 0, 64, 97
1, 20937, Note_off_c, 0, 77, 62
1, 20949, Control_c, 0, 64, 99
1, 20964, Note_off_c, 0, 73, 63
1, 20964, Control_c, 0, 64, 101
1, 20973, Note_on_c, 0, 45, 71
1, 20979, Control_c, 0, 64, 102
1, 20994, Control_c, 0, 64, 102
1, 20996, Note_on_c, 0, 85, 56
1, 21008, Control_c, 0, 64, 103
1, 21009, Note_off_c, 0, 45, 66
1, 21036, Note_on_c, 0, 73, 81
1, 21053, Control_c, 0, 64, 103
1, 21082, Control_c, 0, 64, 104
1, 21091, Note_off_c, 0, 85, 53
1, 21097, Control_c, 0, 64, 108
1, 21101, Note_on_c, 0, 77, 86
1, 21112, Control_c, 0, 64, 115
1, 21124, Note_off_c, 0, 73, 62
1, 21126, Control_c, 0, 64, 127
1, 21178, Note_on_c, 0, 81, 83
1, 21180, Note_on_c, 0, 85, 88
1, 21197, Note_off_c, 0, 77, 64
1, 21259, Note_off_c, 0, 85, 64
1, 21260, Note_off_c, 0, 81, 63
1, 21265, Note_on_c, 0, 33, 93
1, 21274, Control_c, 0, 64, 93
1, 21289, Control_c, 0, 64, 66
1, 21304, Control_c, 0, 64, 40
1, 21319, Control_c, 0, 64, 42
1, 21334, Control_c, 0, 64, 52
1, 21349, Control_c, 0, 64, 59
1, 21356, Note_on_c, 0, 85, 84
1, 21357, Note_on_c, 0, 81, 76
1, 21363, Control_c, 0, 64, 67
1, 21369, Note_off_c, 0, 33, 62
1, 21378, Control_c, 0, 64, 78
1, 21393, Control_c, 0, 64, 102
1, 21408, Control_c, 0, 64, 127
1, 21446, Note_on_c, 0, 77, 76
1, 21449, Note_off_c, 0, 85, 62
1, 21458, Note_off_c, 0, 81, 63
1, 21507, Note_off_c, 0, 77, 62
1, 21508, Note_on_c, 0, 73, 67
1, 21574, Note_off_c, 0, 73, 63
1, 21580, Note_on_c, 0, 45, 84
1, 21626, Note_on_c, 0, 81, 70
1, 21632, Note_on_c, 0, 85, 75
1, 21635, Note_off_c, 0, 45, 62
1, 21693, Note_on_c, 0, 77, 80
1, 21702, Note_off_c, 0, 81, 64
1, 21703, Note_off_c, 0, 85, 62
1, 21742, Note_on_c, 0, 73, 68
1, 21745, Note_off_c, 0, 77, 62
1, 21781, Note_on_c, 0, 57, 92
1, 21783, Note_on_c, 0, 55, 94
1, 21799, Note_off_c, 0, 73, 63
1, 21832, Note_on_c, 0, 81, 81
1, 21835, Note_on_c, 0, 85, 84
1, 21837, Note_off_c, 0, 57, 63
1, 21842, Note_off_c, 0, 55, 64
1, 21903, Note_on_c, 0, 77, 86
1, 21926, Note_off_c, 0, 85, 64
1, 21928, Note_off_c, 0, 81, 64
1, 21960, Note_on_c, 0, 73, 67
1, 21963, Note_off_c, 0, 77, 61
1, 22011, Note_on_c, 0, 69, 103
1, 22014, Note_on_c, 0, 67, 95
1, 22017, Note_off_c, 0, 73, 63
1, 22046, Note_on_c, 0, 81, 83
1, 22046, Note_off_c, 0, 69, 67
1, 22048, Note_on_c, 0, 85, 82
1, 22052, Note_off_c, 0, 67, 67
1, 22106, Note_on_c, 0, 77, 80
1, 22133, Note_off_c, 0, 81, 64
1, 22135, Note_off_c, 0, 85, 64
1, 22168, Note_off_c, 0, 77, 63
1, 22183, Note_on_c, 0, 73, 66
1, 22212, Note_off_c, 0, 73, 67
1, 22257, Note_on_c, 0, 69, 106
1, 22288, Note_off_c, 0, 69, 67
1, 22322, Note_on_c, 0, 73, 61
1, 22370, Note_off_c, 0, 73, 63
1, 22386, Note_on_c, 0, 69, 69
1, 22416, Note_off_c, 0, 69, 58
1, 22451, Note_on_c, 0, 73, 64
1, 22480, Note_off_c, 0, 73, 67
1, 22500, Note_on_c, 0, 69, 93
1, 22525, Note_off_c, 0, 69, 65
1, 22554, Note_on_c, 0, 73, 72
1, 22590, Note_off_c, 0, 73, 59
1, 22630, Note_on_c, 0, 69, 66
1, 22655, Note_off_c, 0, 69, 66
1, 22692, Note_on_c, 0, 73, 53
1, 22718, Note_off_c, 0, 73, 54
1, 22744, Note_on_c, 0, 69, 93
1, 22770, Note_off_c, 0, 69, 65
1, 22797, Note_on_c, 0, 73, 64
1, 22836, Note_off_c, 0, 73, 60
1, 22869, Note_on_c, 0, 69, 62
1, 22896, Note_off_c, 0, 69, 64
1, 22928, Note_on_c, 0, 73, 53
1, 22947, Note_off_c, 0, 73, 62
1, 22990, Note_on_c, 0, 69, 79
1, 23016, Note_off_c, 0, 69, 68
1, 23031, Note_on_c, 0, 73, 62
1, 23076, Note_off_c, 0, 73, 63
1, 23115, Note_on_c, 0, 69, 58
1, 23149, Note_off_c, 0, 69, 64
1, 23172, Note_on_c, 0, 73, 57
1, 23191, Note_off_c, 0, 73, 64
1, 23233, Note_on_c, 0, 69, 77
1, 23254, Note_off_c, 0, 69, 68
1, 23255, Control_c, 0, 64, 125
1, 23269, Control_c, 0, 64, 122
1, 23280, Note_on_c, 0, 73, 58
1, 23299, Control_c, 0, 64, 120
1, 23319, Note_off_c, 0, 73, 64
1, 23358, Note_on_c, 0, 69, 54
1, 23389, Note_off_c, 0, 69, 59
1, 23408, Note_on_c, 0, 73, 57
1, 23440, Note_off_c, 0, 73, 66
1, 23477, Control_c, 0, 64, 119
1, 23479, Note_on_c, 0, 69, 60
1, 23496, Note_off_c, 0, 69, 65
1, 23522, Control_c, 0, 64, 117
1, 23528, Note_on_c, 0, 73, 59
1, 23551, Control_c, 0, 64, 116
1, 23559, Note_off_c, 0, 73, 65
1, 23591, Note_on_c, 0, 69, 44
1, 23626, Note_off_c, 0, 69, 55
1, 23645, Note_on_c, 0, 73, 58
1, 23677, Note_off_c, 0, 73, 67
1, 23699, Control_c, 0, 64, 115
1, 23727, Note_on_c, 0, 69, 59
1, 23743, Control_c, 0, 64, 115
1, 23752, Note_off_c, 0, 69, 61
1, 23758, Control_c, 0, 64, 114
1, 23773, Control_c, 0, 64, 113
1, 23785, Note_on_c, 0, 73, 51
1, 23815, Note_off_c, 0, 73, 60
1, 23867, Note_on_c, 0, 69, 38
1, 23869, Control_c, 0, 64, 112
1, 23900, Note_off_c, 0, 69, 50
1, 23902, Note_on_c, 0, 73, 53
1, 23938, Note_off_c, 0, 73, 66
1, 23943, Control_c, 0, 64, 111
1, 23958, Control_c, 0, 64, 109
1, 23973, Control_c, 0, 64, 105
1, 23988, Control_c, 0, 64, 99
1, 24004, Control_c, 0, 64, 92
1, 24018, Control_c, 0, 64, 83
1, 24026, Note_on_c, 0, 73, 61
1, 24033, Control_c, 0, 64, 73
1, 24047, Note_off_c, 0, 73, 63
1, 24048, Control_c, 0, 64, 65
1, 24063, Control_c, 0, 64, 52
1, 24078, Control_c, 0, 64, 0
1, 24105, Note_on_c, 0, 69, 8
1, 24131, Note_on_c, 0, 73, 53
1, 24148, Note_off_c, 0, 69, 45
1, 24163, Note_off_c, 0, 73, 65
1, 24181, Control_c, 0, 64, 31
1, 24196, Control_c, 0, 64, 52
1, 24211, Control_c, 0, 64, 61
1, 24216, Note_on_c, 0, 78, 63
1, 24225, Control_c, 0, 64, 65
1, 24234, Note_off_c, 0, 78, 62
1, 24240, Control_c, 0, 64, 69
1, 24255, Control_c, 0, 64, 75
1, 24270, Control_c, 0, 64, 83
1, 24285, Control_c, 0, 64, 91
1, 24300, Note_on_c, 0, 73, 54
1, 24300, Control_c, 0, 64, 99
1, 24315, Control_c, 0, 64, 108
1, 24329, Control_c, 0, 64, 116
1, 24339, Note_off_c, 0, 73, 65
1, 24344, Control_c, 0, 64, 122
1, 24359, Control_c, 0, 64, 127
1, 24362, Note_on_c, 0, 70, 50
1, 24393, Note_off_c, 0, 70, 61
1, 24419, Note_on_c, 0, 66, 58
1, 24452, Note_off_c, 0, 66, 66
1, 24463, Control_c, 0, 64, 120
1, 24478, Control_c, 0, 64, 115
1, 24492, Control_c, 0, 64, 112
1, 24507, Control_c, 0, 64, 108
1, 24522, Control_c, 0, 64, 105
1, 24529, Note_on_c, 0, 66, 35
1, 24544, Control_c, 0, 64, 101
1, 24559, Control_c, 0, 64, 98
1, 24559, Note_off_c, 0, 66, 58
1, 24562, Note_on_c, 0, 70, 57
1, 24574, Control_c, 0, 64, 92
1, 24589, Control_c, 0, 64, 87
1, 24599, Note_off_c, 0, 70, 66
1, 24604, Control_c, 0, 64, 80
1, 24608, Note_on_c, 0, 73, 55
1, 24618, Control_c, 0, 64, 73
1, 24629, Note_off_c, 0, 73, 61
1, 24633, Control_c, 0, 64, 65
1, 24648, Control_c, 0, 64, 58
1, 24654, Note_on_c, 0, 80, 74
1, 24663, Control_c, 0, 64, 53
1, 24668, Note_off_c, 0, 80, 69
1, 24678, Control_c, 0, 64, 50
1, 24692, Control_c, 0, 64, 47
1, 24707, Control_c, 0, 64, 43
1, 24714, Note_on_c, 0, 73, 52
1, 24722, Control_c, 0, 64, 38
1, 24737, Control_c, 0, 64, 35
1, 24751, Control_c, 0, 64, 28
1, 24755, Note_off_c, 0, 73, 65
1, 24766, Control_c, 0, 64, 11
1, 24771, Note_on_c, 0, 71, 61
1, 24781, Control_c, 0, 64, 0
1, 24809, Note_off_c, 0, 71, 63
1, 24853, Note_on_c, 0, 68, 36
1, 24882, Note_off_c, 0, 68, 52
1, 24887, Note_on_c, 0, 80, 64
1, 24903, Note_off_c, 0, 80, 65
1, 24932, Note_on_c, 0, 73, 54
1, 24969, Note_off_c, 0, 73, 65
1, 24991, Note_on_c, 0, 71, 62
1, 25026, Note_off_c, 0, 71, 66
1, 25063, Note_on_c, 0, 68, 45
1, 25090, Note_off_c, 0, 68, 58
1, 25114, Note_on_c, 0, 78, 67
1, 25122, Control_c, 0, 64, 50
1, 25131, Note_off_c, 0, 78, 66
1, 25137, Control_c, 0, 64, 61
1, 25152, Control_c, 0, 64, 67
1, 25167, Control_c, 0, 64, 73
1, 25173, Note_on_c, 0, 73, 54
1, 25182, Control_c, 0, 64, 87
1, 25197, Control_c, 0, 64, 103
1, 25207, Note_off_c, 0, 73, 65
1, 25212, Control_c, 0, 64, 127
1, 25233, Note_on_c, 0, 70, 53
1, 25264, Note_off_c, 0, 70, 64
1, 25297, Note_on_c, 0, 66, 43
1, 25323, Note_off_c, 0, 66, 54
1, 25355, Note_on_c, 0, 66, 46
1, 25417, Note_off_c, 0, 66, 0
1, 25417, Note_on_c, 0, 66, 2
1, 25444, Note_on_c, 0, 70, 59
1, 25456, Note_off_c, 0, 66, 49
1, 25481, Note_off_c, 0, 70, 62
1, 25507, Note_on_c, 0, 73, 40
1, 25530, Control_c, 0, 64, 114
1, 25536, Note_off_c, 0, 73, 49
1, 25545, Control_c, 0, 64, 92
1, 25560, Control_c, 0, 64, 74
1, 25569, Note_on_c, 0, 80, 74
1, 25574, Control_c, 0, 64, 62
1, 25583, Note_off_c, 0, 80, 67
1, 25590, Control_c, 0, 64, 42
1, 25605, Control_c, 0, 64, 0
1, 25618, Note_on_c, 0, 73, 51
1, 25659, Note_off_c, 0, 73, 65
1, 25680, Note_on_c, 0, 71, 58
1, 25721, Note_off_c, 0, 71, 62
1, 25740, Note_on_c, 0, 68, 50
1, 25776, Note_off_c, 0, 68, 64
1, 25795, Note_on_c, 0, 80, 83
1, 25807, Note_off_c, 0, 80, 72
1, 25839, Note_on_c, 0, 73, 52
1, 25881, Note_off_c, 0, 73, 64
1, 25901, Note_on_c, 0, 71, 56
1, 25938, Note_off_c, 0, 71, 62
1, 25957, Note_on_c, 0, 68, 50
1, 25993, Note_off_c, 0, 68, 62
1, 26032, Note_on_c, 0, 78, 78
1, 26035, Control_c, 0, 64, 37
1, 26055, Note_off_c, 0, 78, 67
1, 26057, Control_c, 0, 64, 61
1, 26071, Control_c, 0, 64, 66
1, 26076, Note_on_c, 0, 73, 57
1, 26086, Control_c, 0, 64, 72
1, 26101, Control_c, 0, 64, 84
1, 26112, Note_off_c, 0, 73, 64
1, 26116, Control_c, 0, 64, 108
1, 26131, Control_c, 0, 64, 127
1, 26141, Note_on_c, 0, 70, 55
1, 26175, Note_off_c, 0, 70, 66
1, 26210, Note_on_c, 0, 66, 41
1, 26240, Note_off_c, 0, 66, 53
1, 26275, Note_on_c, 0, 66, 41
1, 26340, Note_on_c, 0, 70, 60
1, 26360, Note_off_c, 0, 66, 56
1, 26377, Note_off_c, 0, 70, 63
1, 26397, Note_on_c, 0, 73, 58
1, 26425, Note_off_c, 0, 73, 67
1, 26485, Note_on_c, 0, 80, 65
1, 26501, Control_c, 0, 64, 93
1, 26503, Note_off_c, 0, 80, 66
1, 26516, Control_c, 0, 64, 76
1, 26531, Control_c, 0, 64, 65
1, 26532, Note_on_c, 0, 71, 56
1, 26546, Control_c, 0, 64, 57
1, 26560, Control_c, 0, 64, 52
1, 26568, Note_off_c, 0, 71, 64
1, 26575, Control_c, 0, 64, 50
1, 26590, Control_c, 0, 64, 46
1, 26595, Note_on_c, 0, 70, 58
1, 26605, Control_c, 0, 64, 44
1, 26619, Control_c, 0, 64, 43
1, 26626, Note_off_c, 0, 70, 65
1, 26634, Control_c, 0, 64, 43
1, 26657, Note_on_c, 0, 68, 24
1, 26689, Note_off_c, 0, 68, 45
1, 26693, Control_c, 0, 64, 42
1, 26701, Note_on_c, 0, 82, 69
1, 26723, Control_c, 0, 64, 42
1, 26726, Note_off_c, 0, 82, 69
1, 26753, Control_c, 0, 64, 41
1, 26754, Note_on_c, 0, 73, 56
1, 26768, Control_c, 0, 64, 41
1, 26799, Note_off_c, 0, 73, 64
1, 26805, Control_c, 0, 64, 40
1, 26818, Note_on_c, 0, 71, 57
1, 26819, Control_c, 0, 64, 40
1, 26834, Control_c, 0, 64, 39
1, 26853, Note_off_c, 0, 71, 65
1, 26864, Control_c, 0, 64, 39
1, 26923, Control_c, 0, 64, 38
1, 26929, Poly_aftertouch_c, 0, 70, 0
1, 26932, Note_on_c, 0, 83, 63
1, 26953, Control_c, 0, 64, 38
1, 26959, Note_off_c, 0, 83, 67
1, 26981, Note_on_c, 0, 75, 56
1, 27018, Note_off_c, 0, 75, 63
1, 27049, Note_on_c, 0, 73, 39
1, 27057, Control_c, 0, 64, 37
1, 27075, Note_off_c, 0, 73, 59
1, 27087, Note_on_c, 0, 71, 57
1, 27115, Note_off_c, 0, 71, 65
1, 27152, Note_on_c, 0, 82, 59
1, 27181, Note_off_c, 0, 82, 66
1, 27187, Note_on_c, 0, 73, 41
1, 27238, Note_off_c, 0, 73, 60
1, 27246, Note_on_c, 0, 71, 58
1, 27282, Note_off_c, 0, 71, 65
1, 27306, Note_on_c, 0, 70, 50
1, 27342, Note_off_c, 0, 70, 61
1, 27365, Note_on_c, 0, 80, 65
1, 27369, Control_c, 0, 64, 38
1, 27394, Note_off_c, 0, 80, 67
1, 27417, Note_on_c, 0, 75, 58
1, 27458, Note_off_c, 0, 75, 58
1, 27478, Note_on_c, 0, 73, 50
1, 27510, Note_off_c, 0, 73, 66
1, 27516, Control_c, 0, 64, 38
1, 27522, Note_on_c, 0, 71, 57
1, 27539, Control_c, 0, 64, 39
1, 27554, Control_c, 0, 64, 39
1, 27568, Control_c, 0, 64, 40
1, 27570, Note_off_c, 0, 71, 60
1, 27583, Control_c, 0, 64, 41
1, 27591, Note_on_c, 0, 85, 78
1, 27598, Control_c, 0, 64, 41
1, 27612, Note_off_c, 0, 85, 71
1, 27613, Control_c, 0, 64, 42
1, 27628, Control_c, 0, 64, 43
1, 27630, Note_on_c, 0, 77, 67
1, 27642, Control_c, 0, 64, 44
1, 27657, Control_c, 0, 64, 46
1, 27672, Control_c, 0, 64, 46
1, 27684, Note_on_c, 0, 75, 68
1, 27687, Control_c, 0, 64, 47
1, 27704, Note_off_c, 0, 77, 58
1, 27731, Control_c, 0, 64, 45
1, 27745, Note_on_c, 0, 73, 69
1, 27746, Control_c, 0, 64, 44
1, 27760, Control_c, 0, 64, 43
1, 27770, Note_off_c, 0, 75, 62
1, 27775, Control_c, 0, 64, 45
1, 27789, Note_off_c, 0, 73, 63
1, 27790, Control_c, 0, 64, 56
1, 27805, Control_c, 0, 64, 65
1, 27807, Note_on_c, 0, 66, 98
1, 27820, Control_c, 0, 64, 76
1, 27835, Control_c, 0, 64, 122
1, 27841, Note_off_c, 0, 66, 67
1, 27850, Control_c, 0, 64, 127
1, 27864, Note_on_c, 0, 78, 68
1, 27939, Note_on_c, 0, 69, 66
1, 27954, Note_off_c, 0, 78, 62
1, 27975, Note_off_c, 0, 69, 61
1, 27996, Note_on_c, 0, 66, 65
1, 28028, Note_off_c, 0, 66, 60
1, 28073, Note_on_c, 0, 66, 68
1, 28107, Note_off_c, 0, 66, 64
1, 28120, Note_on_c, 0, 78, 57
1, 28161, Note_on_c, 0, 69, 72
1, 28198, Note_off_c, 0, 78, 62
1, 28201, Note_off_c, 0, 69, 58
1, 28227, Note_on_c, 0, 66, 75
1, 28251, Control_c, 0, 64, 77
1, 28265, Control_c, 0, 64, 60
1, 28267, Note_off_c, 0, 66, 59
1, 28288, Control_c, 0, 64, 52
1, 28289, Note_on_c, 0, 68, 93
1, 28303, Control_c, 0, 64, 60
1, 28318, Control_c, 0, 64, 64
1, 28330, Note_off_c, 0, 68, 61
1, 28333, Control_c, 0, 64, 68
1, 28347, Control_c, 0, 64, 75
1, 28351, Note_on_c, 0, 78, 70
1, 28362, Control_c, 0, 64, 91
1, 28377, Control_c, 0, 64, 110
1, 28391, Control_c, 0, 64, 120
1, 28404, Note_on_c, 0, 71, 66
1, 28406, Control_c, 0, 64, 122
1, 28421, Control_c, 0, 64, 127
1, 28429, Note_off_c, 0, 78, 62
1, 28457, Note_on_c, 0, 68, 71
1, 28463, Note_off_c, 0, 71, 63
1, 28479, Note_off_c, 0, 68, 67
1, 28495, Control_c, 0, 64, 93
1, 28510, Control_c, 0, 64, 68
1, 28519, Note_on_c, 0, 69, 98
1, 28525, Control_c, 0, 64, 54
1, 28539, Control_c, 0, 64, 60
1, 28553, Note_off_c, 0, 69, 67
1, 28554, Control_c, 0, 64, 65
1, 28569, Control_c, 0, 64, 70
1, 28571, Note_on_c, 0, 78, 76
1, 28583, Control_c, 0, 64, 79
1, 28598, Control_c, 0, 64, 90
1, 28613, Control_c, 0, 64, 103
1, 28625, Note_on_c, 0, 73, 76
1, 28628, Control_c, 0, 64, 120
1, 28643, Control_c, 0, 64, 127
1, 28648, Note_off_c, 0, 78, 62
1, 28679, Note_on_c, 0, 69, 77
1, 28683, Note_off_c, 0, 73, 63
1, 28717, Control_c, 0, 64, 110
1, 28731, Control_c, 0, 64, 81
1, 28736, Note_off_c, 0, 69, 59
1, 28746, Control_c, 0, 64, 63
1, 28751, Note_on_c, 0, 71, 99
1, 28761, Control_c, 0, 64, 54
1, 28776, Control_c, 0, 64, 60
1, 28789, Note_off_c, 0, 71, 62
1, 28792, Note_on_c, 0, 78, 80
1, 28792, Control_c, 0, 64, 64
1, 28806, Control_c, 0, 64, 68
1, 28821, Control_c, 0, 64, 76
1, 28836, Control_c, 0, 64, 86
1, 28851, Control_c, 0, 64, 95
1, 28857, Note_on_c, 0, 74, 71
1, 28866, Control_c, 0, 64, 102
1, 28879, Note_off_c, 0, 78, 61
1, 28881, Control_c, 0, 64, 105
1, 28895, Control_c, 0, 64, 107
1, 28910, Control_c, 0, 64, 108
1, 28918, Note_on_c, 0, 71, 62
1, 28924, Note_off_c, 0, 74, 60
1, 28925, Control_c, 0, 64, 106
1, 28940, Control_c, 0, 64, 94
1, 28954, Control_c, 0, 64, 74
1, 28959, Note_off_c, 0, 71, 63
1, 28969, Control_c, 0, 64, 60
1, 28984, Control_c, 0, 64, 53
1, 28986, Note_on_c, 0, 69, 97
1, 28999, Control_c, 0, 64, 62
1, 29013, Control_c, 0, 64, 66
1, 29020, Note_on_c, 0, 78, 67
1, 29020, Note_off_c, 0, 69, 66
1, 29036, Control_c, 0, 64, 70
1, 29051, Control_c, 0, 64, 77
1, 29066, Control_c, 0, 64, 84
1, 29081, Control_c, 0, 64, 91
1, 29084, Note_on_c, 0, 73, 74
1, 29095, Control_c, 0, 64, 95
1, 29108, Note_off_c, 0, 78, 63
1, 29110, Control_c, 0, 64, 96
1, 29125, Control_c, 0, 64, 97
1, 29140, Control_c, 0, 64, 93
1, 29142, Note_off_c, 0, 73, 63
1, 29144, Note_on_c, 0, 69, 63
1, 29155, Control_c, 0, 64, 81
1, 29169, Control_c, 0, 64, 65
1, 29184, Control_c, 0, 64, 54
1, 29199, Control_c, 0, 64, 59
1, 29204, Note_off_c, 0, 69, 62
1, 29213, Control_c, 0, 64, 63
1, 29215, Note_on_c, 0, 68, 97
1, 29228, Control_c, 0, 64, 66
1, 29243, Control_c, 0, 64, 72
1, 29250, Note_on_c, 0, 78, 79
1, 29255, Note_off_c, 0, 68, 62
1, 29258, Control_c, 0, 64, 81
1, 29273, Control_c, 0, 64, 91
1, 29287, Control_c, 0, 64, 94
1, 29311, Note_on_c, 0, 71, 70
1, 29333, Note_off_c, 0, 78, 63
1, 29352, Note_off_c, 0, 71, 60
1, 29361, Control_c, 0, 64, 94
1, 29371, Note_on_c, 0, 68, 74
1, 29376, Control_c, 0, 64, 95
1, 29391, Control_c, 0, 64, 95
1, 29405, Note_off_c, 0, 68, 51
1, 29406, Control_c, 0, 64, 96
1, 29421, Control_c, 0, 64, 96
1, 29443, Note_on_c, 0, 73, 94
1, 29459, Note_off_c, 0, 73, 75
1, 29466, Control_c, 0, 64, 97
1, 29472, Note_on_c, 0, 80, 65
1, 29495, Control_c, 0, 64, 97
1, 29510, Control_c, 0, 64, 100
1, 29525, Control_c, 0, 64, 107
1, 29540, Control_c, 0, 64, 127
1, 29550, Note_on_c, 0, 77, 78
1, 29555, Note_on_c, 0, 81, 4
1, 29565, Note_off_c, 0, 80, 62
1, 29608, Note_off_c, 0, 81, 35
1, 29611, Note_off_c, 0, 77, 63
1, 29626, Note_on_c, 0, 73, 71
1, 29644, Control_c, 0, 64, 114
1, 29659, Control_c, 0, 64, 71
1, 29673, Note_off_c, 0, 73, 63
1, 29674, Control_c, 0, 64, 53
1, 29682, Note_on_c, 0, 66, 93
1, 29689, Control_c, 0, 64, 52
1, 29703, Control_c, 0, 64, 61
1, 29718, Control_c, 0, 64, 65
1, 29729, Note_off_c, 0, 66, 64
1, 29733, Control_c, 0, 64, 72
1, 29748, Control_c, 0, 64, 93
1, 29752, Note_on_c, 0, 73, 70
1, 29763, Control_c, 0, 64, 127
1, 29813, Note_off_c, 0, 73, 64
1, 29821, Note_on_c, 0, 69, 67
1, 29859, Note_off_c, 0, 69, 62
1, 29876, Note_on_c, 0, 66, 55
1, 29895, Note_off_c, 0, 66, 64
1, 29957, Note_on_c, 0, 65, 58
1, 29970, Note_on_c, 0, 66, 59
1, 29979, Note_off_c, 0, 65, 62
1, 30023, Note_off_c, 0, 66, 56
1, 30036, Note_on_c, 0, 69, 68
1, 30092, Note_off_c, 0, 69, 63
1, 30093, Note_on_c, 0, 73, 77
1, 30110, Control_c, 0, 64, 109
1, 30120, Note_off_c, 0, 73, 65
1, 30125, Control_c, 0, 64, 70
1, 30140, Control_c, 0, 64, 50
1, 30154, Note_on_c, 0, 64, 93
1, 30155, Control_c, 0, 64, 40
1, 30170, Control_c, 0, 64, 51
1, 30185, Control_c, 0, 64, 58
1, 30200, Control_c, 0, 64, 64
1, 30214, Note_on_c, 0, 73, 75
1, 30215, Control_c, 0, 64, 71
1, 30219, Note_off_c, 0, 64, 62
1, 30229, Control_c, 0, 64, 80
1, 30244, Control_c, 0, 64, 89
1, 30257, Note_off_c, 0, 73, 61
1, 30259, Control_c, 0, 64, 92
1, 30260, Note_on_c, 0, 69, 75
1, 30316, Note_off_c, 0, 69, 62
1, 30327, Note_on_c, 0, 66, 65
1, 30357, Note_off_c, 0, 66, 67
1, 30405, Note_on_c, 0, 66, 78
1, 30467, Control_c, 0, 64, 93
1, 30482, Control_c, 0, 64, 93
1, 30493, Note_off_c, 0, 66, 53
1, 30497, Control_c, 0, 64, 95
1, 30512, Control_c, 0, 64, 97
1, 30515, Note_on_c, 0, 69, 72
1, 30534, Control_c, 0, 64, 99
1, 30549, Control_c, 0, 64, 102
1, 30564, Control_c, 0, 64, 103
1, 30568, Note_off_c, 0, 69, 60
1, 30574, Note_on_c, 0, 73, 60
1, 30594, Control_c, 0, 64, 97
1, 30604, Note_off_c, 0, 73, 68
1, 30609, Control_c, 0, 64, 81
1, 30623, Control_c, 0, 64, 64
1, 30638, Note_on_c, 0, 63, 88
1, 30638, Control_c, 0, 64, 48
1, 30653, Control_c, 0, 64, 50
1, 30667, Control_c, 0, 64, 56
1, 30682, Control_c, 0, 64, 62
1, 30694, Note_on_c, 0, 73, 68
1, 30697, Control_c, 0, 64, 67
1, 30712, Control_c, 0, 64, 75
1, 30727, Control_c, 0, 64, 86
1, 30732, Note_off_c, 0, 63, 61
1, 30741, Control_c, 0, 64, 92
1, 30745, Note_off_c, 0, 73, 61
1, 30756, Note_on_c, 0, 69, 65
1, 30756, Control_c, 0, 64, 93
1, 30786, Control_c, 0, 64, 92
1, 30795, Note_off_c, 0, 69, 59
1, 30817, Note_on_c, 0, 66, 60
1, 30848, Note_off_c, 0, 66, 63
1, 30897, Note_on_c, 0, 66, 72
1, 30964, Control_c, 0, 64, 93
1, 30978, Control_c, 0, 64, 94
1, 30990, Note_off_c, 0, 66, 61
1, 30993, Control_c, 0, 64, 96
1, 31004, Note_on_c, 0, 69, 67
1, 31008, Control_c, 0, 64, 98
1, 31023, Control_c, 0, 64, 100
1, 31049, Note_off_c, 0, 69, 63
1, 31052, Note_on_c, 0, 73, 68
1, 31052, Control_c, 0, 64, 98
1, 31067, Control_c, 0, 64, 86
1, 31082, Control_c, 0, 64, 69
1, 31083, Note_off_c, 0, 73, 65
1, 31097, Control_c, 0, 64, 52
1, 31102, Note_on_c, 0, 62, 86
1, 31112, Control_c, 0, 64, 44
1, 31126, Control_c, 0, 64, 51
1, 31141, Control_c, 0, 64, 59
1, 31156, Control_c, 0, 64, 64
1, 31171, Control_c, 0, 64, 70
1, 31181, Note_on_c, 0, 73, 68
1, 31187, Control_c, 0, 64, 79
1, 31202, Control_c, 0, 64, 89
1, 31216, Note_off_c, 0, 62, 58
1, 31217, Control_c, 0, 64, 92
1, 31224, Note_off_c, 0, 73, 60
1, 31245, Note_on_c, 0, 69, 61
1, 31286, Note_off_c, 0, 69, 65
1, 31317, Note_on_c, 0, 66, 51
1, 31341, Note_off_c, 0, 66, 57
1, 31376, Note_on_c, 0, 66, 53
1, 31387, Control_c, 0, 64, 92
1, 31468, Note_off_c, 0, 66, 46
1, 31472, Note_on_c, 0, 69, 53
1, 31490, Control_c, 0, 64, 92
1, 31510, Note_off_c, 0, 69, 65
1, 31536, Note_on_c, 0, 73, 43
1, 31564, Note_off_c, 0, 73, 51
1, 31594, Control_c, 0, 64, 91
1, 31609, Control_c, 0, 64, 88
1, 31621, Note_on_c, 0, 54, 54
1, 31624, Control_c, 0, 64, 82
1, 31629, Note_on_c, 0, 61, 55
1, 31639, Control_c, 0, 64, 75
1, 31654, Control_c, 0, 64, 68
1, 31668, Control_c, 0, 64, 64
1, 31672, Note_on_c, 0, 70, 56
1, 31674, Note_off_c, 0, 61, 60
1, 31683, Control_c, 0, 64, 60
1, 31698, Control_c, 0, 64, 59
1, 31713, Control_c, 0, 64, 57
1, 31728, Control_c, 0, 64, 56
1, 31737, Note_off_c, 0, 70, 55
1, 31743, Control_c, 0, 64, 55
1, 31757, Control_c, 0, 64, 53
1, 31760, Note_on_c, 0, 66, 47
1, 31772, Control_c, 0, 64, 53
1, 31787, Control_c, 0, 64, 52
1, 31788, Note_off_c, 0, 66, 61
1, 31799, Note_on_c, 0, 61, 53
1, 31801, Control_c, 0, 64, 51
1, 31816, Control_c, 0, 64, 51
1, 31831, Control_c, 0, 64, 50
1, 31837, Note_off_c, 0, 61, 64
1, 31846, Control_c, 0, 64, 50
1, 31857, Note_on_c, 0, 64, 56
1, 31861, Control_c, 0, 64, 49
1, 31876, Control_c, 0, 64, 49
1, 31889, Note_off_c, 0, 64, 64
1, 31890, Control_c, 0, 64, 48
1, 31905, Control_c, 0, 64, 48
1, 31913, Note_on_c, 0, 69, 56
1, 31935, Control_c, 0, 64, 47
1, 31951, Note_off_c, 0, 69, 65
1, 31980, Control_c, 0, 64, 47
1, 31981, Note_on_c, 0, 66, 39
1, 31995, Control_c, 0, 64, 45
1, 32008, Note_off_c, 0, 66, 57
1, 32010, Control_c, 0, 64, 40
1, 32012, Note_on_c, 0, 63, 47
1, 32032, Control_c, 0, 64, 28
1, 32043, Note_off_c, 0, 63, 60
1, 32047, Control_c, 0, 64, 0
1, 32082, Note_on_c, 0, 61, 61
1, 32113, Note_off_c, 0, 61, 65
1, 32133, Note_on_c, 0, 69, 56
1, 32173, Note_off_c, 0, 69, 62
1, 32190, Note_on_c, 0, 66, 43
1, 32230, Note_off_c, 0, 66, 62
1, 32248, Note_on_c, 0, 61, 43
1, 32296, Note_off_c, 0, 61, 62
1, 32304, Note_on_c, 0, 64, 54
1, 32338, Note_off_c, 0, 64, 65
1, 32351, Note_on_c, 0, 69, 59
1, 32396, Note_off_c, 0, 69, 58
1, 32419, Note_on_c, 0, 66, 49
1, 32456, Note_off_c, 0, 66, 64
1, 32464, Note_on_c, 0, 63, 47
1, 32493, Note_off_c, 0, 63, 59
1, 32522, Note_on_c, 0, 60, 56
1, 32553, Note_off_c, 0, 60, 65
1, 32576, Note_on_c, 0, 69, 58
1, 32615, Note_off_c, 0, 69, 63
1, 32637, Note_on_c, 0, 66, 43
1, 32675, Note_off_c, 0, 66, 61
1, 32676, Note_on_c, 0, 60, 48
1, 32716, Note_off_c, 0, 60, 64
1, 32742, Note_on_c, 0, 64, 53
1, 32783, Note_off_c, 0, 64, 65
1, 32798, Note_on_c, 0, 69, 58
1, 32840, Note_off_c, 0, 69, 59
1, 32858, Note_on_c, 0, 66, 45
1, 32899, Note_off_c, 0, 66, 62
1, 32906, Note_on_c, 0, 62, 48
1, 32938, Note_off_c, 0, 62, 61
1, 32972, Note_on_c, 0, 60, 55
1, 33004, Note_off_c, 0, 60, 65
1, 33032, Note_on_c, 0, 69, 47
1, 33060, Note_off_c, 0, 69, 57
1, 33087, Note_on_c, 0, 66, 39
1, 33124, Note_off_c, 0, 66, 54
1, 33137, Note_on_c, 0, 60, 44
1, 33149, Note_off_c, 0, 54, 45
1, 33173, Note_off_c, 0, 60, 61
1, 33180, Note_on_c, 0, 64, 49
1, 33207, Note_off_c, 0, 64, 57
1, 33237, Note_on_c, 0, 69, 55
1, 33277, Note_off_c, 0, 69, 63
1, 33299, Note_on_c, 0, 66, 41
1, 33331, Note_off_c, 0, 66, 62
1, 33354, Note_on_c, 0, 62, 35
1, 33358, Control_c, 0, 64, 11
1, 33373, Control_c, 0, 64, 38
1, 33379, Note_on_c, 0, 51, 44
1, 33383, Note_off_c, 0, 62, 57
1, 33387, Control_c, 0, 64, 49
1, 33402, Control_c, 0, 64, 56
1, 33417, Control_c, 0, 64, 60
1, 33432, Control_c, 0, 64, 63
1, 33446, Control_c, 0, 64, 67
1, 33458, Note_on_c, 0, 72, 43
1, 33461, Control_c, 0, 64, 73
1, 33476, Control_c, 0, 64, 82
1, 33491, Control_c, 0, 64, 92
1, 33492, Note_off_c, 0, 51, 58
1, 33505, Note_off_c, 0, 72, 47
1, 33506, Control_c, 0, 64, 101
1, 33508, Note_on_c, 0, 69, 47
1, 33528, Control_c, 0, 64, 108
1, 33543, Control_c, 0, 64, 111
1, 33546, Note_off_c, 0, 69, 61
1, 33558, Control_c, 0, 64, 110
1, 33573, Control_c, 0, 64, 108
1, 33588, Control_c, 0, 64, 107
1, 33600, Note_on_c, 0, 60, 21
1, 33603, Control_c, 0, 64, 106
1, 33616, Note_on_c, 0, 66, 52
1, 33618, Control_c, 0, 64, 105
1, 33619, Note_on_c, 0, 57, 46
1, 33633, Control_c, 0, 64, 104
1, 33643, Note_off_c, 0, 60, 41
1, 33648, Control_c, 0, 64, 102
1, 33659, Note_off_c, 0, 66, 63
1, 33663, Control_c, 0, 64, 100
1, 33677, Control_c, 0, 64, 98
1, 33681, Note_on_c, 0, 72, 54
1, 33692, Control_c, 0, 64, 98
1, 33701, Note_off_c, 0, 57, 45
1, 33707, Control_c, 0, 64, 97
1, 33719, Note_on_c, 0, 69, 53
1, 33719, Note_off_c, 0, 72, 61
1, 33722, Control_c, 0, 64, 96
1, 33737, Control_c, 0, 64, 94
1, 33748, Note_off_c, 0, 69, 64
1, 33751, Control_c, 0, 64, 92
1, 33766, Control_c, 0, 64, 89
1, 33773, Note_on_c, 0, 60, 47
1, 33781, Control_c, 0, 64, 85
1, 33796, Control_c, 0, 64, 78
1, 33811, Control_c, 0, 64, 70
1, 33812, Note_off_c, 0, 60, 64
1, 33825, Control_c, 0, 64, 62
1, 33830, Note_on_c, 0, 68, 53
1, 33834, Note_on_c, 0, 59, 48
1, 33840, Control_c, 0, 64, 53
1, 33855, Control_c, 0, 64, 51
1, 33870, Control_c, 0, 64, 53
1, 33884, Control_c, 0, 64, 54
1, 33893, Note_on_c, 0, 74, 54
1, 33900, Control_c, 0, 64, 57
1, 33915, Control_c, 0, 64, 61
1, 33920, Note_off_c, 0, 68, 55
1, 33930, Control_c, 0, 64, 63
1, 33945, Control_c, 0, 64, 65
1, 33959, Control_c, 0, 64, 66
1, 33965, Note_on_c, 0, 71, 40
1, 33965, Note_off_c, 0, 74, 57
1, 33974, Control_c, 0, 64, 68
1, 33989, Control_c, 0, 64, 70
1, 34003, Note_off_c, 0, 71, 50
1, 34003, Control_c, 0, 64, 72
1, 34005, Note_off_c, 0, 59, 29
1, 34018, Control_c, 0, 64, 74
1, 34033, Note_on_c, 0, 62, 43
1, 34033, Control_c, 0, 64, 76
1, 34048, Control_c, 0, 64, 77
1, 34071, Note_off_c, 0, 62, 60
1, 34075, Note_on_c, 0, 53, 53
1, 34117, Note_off_c, 0, 53, 62
1, 34132, Note_on_c, 0, 74, 43
1, 34170, Note_off_c, 0, 74, 45
1, 34172, Note_on_c, 0, 71, 43
1, 34201, Note_off_c, 0, 71, 56
1, 34226, Control_c, 0, 64, 76
1, 34241, Control_c, 0, 64, 76
1, 34256, Control_c, 0, 64, 75
1, 34258, Note_on_c, 0, 62, 33
1, 34277, Control_c, 0, 64, 73
1, 34292, Note_on_c, 0, 51, 52
1, 34292, Control_c, 0, 64, 68
1, 34299, Note_off_c, 0, 62, 50
1, 34307, Control_c, 0, 64, 63
1, 34322, Control_c, 0, 64, 55
1, 34351, Control_c, 0, 64, 57
1, 34357, Note_on_c, 0, 72, 44
1, 34366, Control_c, 0, 64, 59
1, 34382, Control_c, 0, 64, 61
1, 34397, Control_c, 0, 64, 64
1, 34411, Note_on_c, 0, 69, 47
1, 34412, Control_c, 0, 64, 66
1, 34414, Note_off_c, 0, 72, 56
1, 34427, Control_c, 0, 64, 68
1, 34441, Control_c, 0, 64, 70
1, 34447, Note_off_c, 0, 69, 63
1, 34454, Note_off_c, 0, 51, 59
1, 34456, Control_c, 0, 64, 72
1, 34471, Control_c, 0, 64, 75
1, 34477, Note_on_c, 0, 60, 49
1, 34486, Control_c, 0, 64, 76
1, 34501, Control_c, 0, 64, 77
1, 34512, Note_off_c, 0, 60, 61
1, 34530, Control_c, 0, 64, 77
1, 34545, Note_on_c, 0, 57, 53
1, 34557, Note_on_c, 0, 66, 60
1, 34594, Note_on_c, 0, 72, 51
1, 34605, Note_off_c, 0, 66, 57
1, 34605, Control_c, 0, 64, 77
1, 34625, Note_on_c, 0, 69, 60
1, 34630, Note_off_c, 0, 72, 51
1, 34641, Note_off_c, 0, 57, 52
1, 34661, Note_off_c, 0, 69, 66
1, 34692, Note_on_c, 0, 60, 61
1, 34708, Control_c, 0, 64, 76
1, 34723, Control_c, 0, 64, 76
1, 34727, Note_off_c, 0, 60, 62
1, 34738, Control_c, 0, 64, 74
1, 34753, Control_c, 0, 64, 70
1, 34763, Note_on_c, 0, 68, 52
1, 34766, Note_on_c, 0, 59, 53
1, 34767, Control_c, 0, 64, 64
1, 34782, Control_c, 0, 64, 56
1, 34797, Control_c, 0, 64, 52
1, 34812, Control_c, 0, 64, 53
1, 34813, Note_on_c, 0, 74, 51
1, 34826, Control_c, 0, 64, 54
1, 34841, Control_c, 0, 64, 57
1, 34852, Note_off_c, 0, 68, 56
1, 34856, Control_c, 0, 64, 60
1, 34871, Control_c, 0, 64, 63
1, 34886, Control_c, 0, 64, 65
1, 34894, Note_on_c, 0, 71, 42
1, 34900, Control_c, 0, 64, 66
1, 34905, Note_off_c, 0, 74, 61
1, 34915, Control_c, 0, 64, 68
1, 34921, Note_off_c, 0, 71, 57
1, 34930, Control_c, 0, 64, 71
1, 34941, Note_off_c, 0, 59, 42
1, 34945, Control_c, 0, 64, 73
1, 34960, Control_c, 0, 64, 77
1, 34972, Note_on_c, 0, 62, 39
1, 34974, Control_c, 0, 64, 79
1, 34989, Control_c, 0, 64, 80
1, 35007, Note_off_c, 0, 62, 52
1, 35012, Note_on_c, 0, 53, 49
1, 35052, Note_off_c, 0, 53, 54
1, 35057, Note_on_c, 0, 74, 54
1, 35099, Note_off_c, 0, 74, 63
1, 35114, Note_on_c, 0, 71, 47
1, 35152, Note_off_c, 0, 71, 64
1, 35177, Note_on_c, 0, 62, 50
1, 35205, Control_c, 0, 64, 79
1, 35210, Note_off_c, 0, 62, 62
1, 35220, Control_c, 0, 64, 78
1, 35225, Note_on_c, 0, 54, 56
1, 35235, Control_c, 0, 64, 76
1, 35249, Control_c, 0, 64, 69
1, 35264, Control_c, 0, 64, 62
1, 35279, Control_c, 0, 64, 54
1, 35287, Note_on_c, 0, 75, 53
1, 35309, Control_c, 0, 64, 57
1, 35323, Control_c, 0, 64, 60
1, 35338, Control_c, 0, 64, 63
1, 35353, Control_c, 0, 64, 66
1, 35361, Note_on_c, 0, 72, 52
1, 35368, Note_off_c, 0, 75, 60
1, 35368, Control_c, 0, 64, 68
1, 35383, Control_c, 0, 64, 71
1, 35389, Note_off_c, 0, 54, 62
1, 35398, Note_off_c, 0, 72, 64
1, 35398, Control_c, 0, 64, 74
1, 35412, Control_c, 0, 64, 76
1, 35418, Note_on_c, 0, 63, 57
1, 35427, Control_c, 0, 64, 78
1, 35442, Control_c, 0, 64, 79
1, 35462, Note_off_c, 0, 63, 59
1, 35478, Note_on_c, 0, 69, 66
1, 35490, Note_on_c, 0, 60, 45
1, 35517, Note_on_c, 0, 75, 67
1, 35527, Note_off_c, 0, 69, 60
1, 35529, Note_off_c, 0, 60, 62
1, 35531, Control_c, 0, 64, 79
1, 35535, Note_on_c, 0, 72, 63
1, 35572, Note_off_c, 0, 75, 62
1, 35573, Note_off_c, 0, 72, 64
1, 35591, Control_c, 0, 64, 80
1, 35592, Note_on_c, 0, 63, 67
1, 35625, Note_off_c, 0, 63, 63
1, 35664, Control_c, 0, 64, 79
1, 35672, Note_on_c, 0, 71, 68
1, 35679, Note_on_c, 0, 62, 57
1, 35679, Control_c, 0, 64, 77
1, 35694, Control_c, 0, 64, 72
1, 35709, Control_c, 0, 64, 65
1, 35723, Control_c, 0, 64, 57
1, 35738, Control_c, 0, 64, 49
1, 35752, Note_on_c, 0, 77, 73
1, 35762, Note_off_c, 0, 71, 60
1, 35776, Control_c, 0, 64, 52
1, 35791, Control_c, 0, 64, 56
1, 35805, Control_c, 0, 64, 61
1, 35820, Control_c, 0, 64, 63
1, 35831, Note_on_c, 0, 74, 51
1, 35835, Control_c, 0, 64, 65
1, 35836, Note_off_c, 0, 77, 61
1, 35849, Control_c, 0, 64, 67
1, 35855, Note_off_c, 0, 62, 58
1, 35864, Control_c, 0, 64, 69
1, 35879, Control_c, 0, 64, 71
1, 35880, Note_off_c, 0, 74, 58
1, 35894, Control_c, 0, 64, 74
1, 35895, Note_on_c, 0, 65, 47
1, 35909, Control_c, 0, 64, 76
1, 35923, Control_c, 0, 64, 77
1, 35928, Note_off_c, 0, 65, 52
1, 35941, Note_on_c, 0, 56, 46
1, 35991, Note_on_c, 0, 77, 59
1, 35991, Note_off_c, 0, 56, 64
1, 36036, Note_on_c, 0, 74, 42
1, 36044, Note_off_c, 0, 77, 59
1, 36059, Note_off_c, 0, 74, 59
1, 36072, Control_c, 0, 64, 77
1, 36110, Note_on_c, 0, 65, 37
1, 36117, Control_c, 0, 64, 76
1, 36132, Control_c, 0, 64, 74
1, 36139, Note_off_c, 0, 65, 50
1, 36147, Control_c, 0, 64, 68
1, 36151, Note_on_c, 0, 54, 55
1, 36161, Control_c, 0, 64, 61
1, 36176, Control_c, 0, 64, 58
1, 36191, Control_c, 0, 64, 60
1, 36193, Note_on_c, 0, 75, 53
1, 36206, Control_c, 0, 64, 63
1, 36220, Control_c, 0, 64, 65
1, 36235, Control_c, 0, 64, 67
1, 36250, Control_c, 0, 64, 71
1, 36252, Note_off_c, 0, 75, 58
1, 36265, Control_c, 0, 64, 75
1, 36268, Note_on_c, 0, 72, 51
1, 36280, Control_c, 0, 64, 78
1, 36286, Note_off_c, 0, 54, 56
1, 36295, Control_c, 0, 64, 79
1, 36309, Note_off_c, 0, 72, 62
1, 36310, Control_c, 0, 64, 80
1, 36323, Note_on_c, 0, 63, 47
1, 36339, Control_c, 0, 64, 80
1, 36354, Control_c, 0, 64, 81
1, 36359, Note_on_c, 0, 69, 77
1, 36368, Note_off_c, 0, 63, 61
1, 36369, Note_on_c, 0, 60, 58
1, 36369, Control_c, 0, 64, 81
1, 36414, Note_on_c, 0, 75, 69
1, 36432, Note_off_c, 0, 60, 52
1, 36439, Note_on_c, 0, 72, 63
1, 36439, Note_off_c, 0, 69, 60
1, 36469, Note_off_c, 0, 75, 63
1, 36472, Control_c, 0, 64, 82
1, 36485, Note_off_c, 0, 72, 59
1, 36497, Note_on_c, 0, 63, 68
1, 36502, Control_c, 0, 64, 82
1, 36524, Control_c, 0, 64, 83
1, 36548, Note_off_c, 0, 63, 61
1, 36554, Control_c, 0, 64, 82
1, 36569, Control_c, 0, 64, 81
1, 36577, Note_on_c, 0, 71, 71
1, 36584, Control_c, 0, 64, 77
1, 36587, Note_on_c, 0, 62, 62
1, 36598, Control_c, 0, 64, 70
1, 36613, Control_c, 0, 64, 62
1, 36628, Control_c, 0, 64, 54
1, 36643, Control_c, 0, 64, 55
1, 36651, Note_on_c, 0, 77, 73
1, 36658, Control_c, 0, 64, 57
1, 36661, Note_off_c, 0, 71, 58
1, 36672, Control_c, 0, 64, 60
1, 36687, Control_c, 0, 64, 63
1, 36702, Control_c, 0, 64, 65
1, 36709, Note_on_c, 0, 74, 50
1, 36717, Control_c, 0, 64, 68
1, 36732, Note_off_c, 0, 77, 55
1, 36732, Control_c, 0, 64, 71
1, 36733, Note_off_c, 0, 62, 58
1, 36746, Control_c, 0, 64, 73
1, 36760, Note_off_c, 0, 74, 57
1, 36761, Control_c, 0, 64, 76
1, 36777, Control_c, 0, 64, 78
1, 36790, Note_on_c, 0, 65, 47
1, 36792, Control_c, 0, 64, 80
1, 36807, Control_c, 0, 64, 81
1, 36819, Note_off_c, 0, 65, 53
1, 36822, Note_on_c, 0, 56, 45
1, 36868, Note_off_c, 0, 56, 45
1, 36881, Control_c, 0, 64, 81
1, 36882, Note_on_c, 0, 77, 59
1, 36894, Control_c, 0, 64, 82
1, 36909, Control_c, 0, 64, 83
1, 36914, Note_on_c, 0, 74, 56
1, 36924, Control_c, 0, 64, 84
1, 36926, Note_off_c, 0, 77, 58
1, 36939, Control_c, 0, 64, 86
1, 36954, Control_c, 0, 64, 87
1, 36961, Note_off_c, 0, 74, 60
1, 36980, Note_on_c, 0, 65, 53
1, 36998, Control_c, 0, 64, 84
1, 37013, Control_c, 0, 64, 76
1, 37022, Note_off_c, 0, 65, 61
1, 37027, Note_on_c, 0, 57, 64
1, 37028, Control_c, 0, 64, 66
1, 37042, Control_c, 0, 64, 58
1, 37057, Control_c, 0, 64, 56
1, 37072, Control_c, 0, 64, 60
1, 37087, Control_c, 0, 64, 63
1, 37090, Note_on_c, 0, 78, 70
1, 37101, Control_c, 0, 64, 67
1, 37116, Control_c, 0, 64, 74
1, 37119, Note_off_c, 0, 57, 65
1, 37131, Control_c, 0, 64, 87
1, 37146, Control_c, 0, 64, 127
1, 37147, Note_on_c, 0, 75, 68
1, 37155, Note_off_c, 0, 78, 62
1, 37196, Note_on_c, 0, 66, 66
1, 37201, Note_off_c, 0, 75, 60
1, 37240, Note_on_c, 0, 72, 77
1, 37244, Note_on_c, 0, 63, 71
1, 37273, Note_off_c, 0, 66, 57
1, 37296, Note_on_c, 0, 78, 83
1, 37314, Note_off_c, 0, 72, 57
1, 37314, Note_off_c, 0, 63, 60
1, 37358, Note_on_c, 0, 75, 63
1, 37363, Note_off_c, 0, 78, 62
1, 37401, Note_off_c, 0, 75, 59
1, 37402, Note_on_c, 0, 66, 61
1, 37436, Note_off_c, 0, 66, 54
1, 37449, Control_c, 0, 64, 87
1, 37464, Control_c, 0, 64, 67
1, 37465, Note_on_c, 0, 74, 82
1, 37466, Note_on_c, 0, 65, 73
1, 37479, Control_c, 0, 64, 45
1, 37493, Control_c, 0, 64, 44
1, 37508, Control_c, 0, 64, 54
1, 37514, Note_on_c, 0, 80, 76
1, 37523, Control_c, 0, 64, 60
1, 37538, Control_c, 0, 64, 64
1, 37543, Poly_aftertouch_c, 0, 66, 0
1, 37552, Note_off_c, 0, 74, 63
1, 37553, Control_c, 0, 64, 67
1, 37569, Control_c, 0, 64, 72
1, 37582, Note_off_c, 0, 65, 56
1, 37584, Control_c, 0, 64, 76
1, 37598, Control_c, 0, 64, 79
1, 37608, Note_on_c, 0, 77, 59
1, 37613, Control_c, 0, 64, 80
1, 37633, Note_off_c, 0, 80, 64
1, 37659, Control_c, 0, 64, 80
1, 37668, Note_on_c, 0, 68, 65
1, 37687, Note_off_c, 0, 77, 56
1, 37708, Note_off_c, 0, 68, 56
1, 37718, Note_on_c, 0, 59, 65
1, 37732, Control_c, 0, 64, 80
1, 37749, Note_off_c, 0, 59, 66
1, 37779, Note_on_c, 0, 80, 68
1, 37806, Control_c, 0, 64, 80
1, 37808, Note_on_c, 0, 77, 62
1, 37821, Control_c, 0, 64, 81
1, 37834, Note_off_c, 0, 80, 62
1, 37836, Control_c, 0, 64, 81
1, 37849, Note_off_c, 0, 77, 61
1, 37851, Control_c, 0, 64, 82
1, 37866, Control_c, 0, 64, 82
1, 37875, Note_on_c, 0, 68, 71
1, 37881, Control_c, 0, 64, 82
1, 37896, Control_c, 0, 64, 79
1, 37910, Control_c, 0, 64, 71
1, 37914, Note_off_c, 0, 68, 61
1, 37920, Note_on_c, 0, 57, 76
1, 37925, Control_c, 0, 64, 61
1, 37940, Control_c, 0, 64, 46
1, 37955, Control_c, 0, 64, 48
1, 37970, Control_c, 0, 64, 55
1, 37985, Note_on_c, 0, 78, 82
1, 37985, Control_c, 0, 64, 60
1, 37988, Note_off_c, 0, 57, 66
1, 37999, Control_c, 0, 64, 64
1, 38021, Control_c, 0, 64, 67
1, 38036, Control_c, 0, 64, 72
1, 38051, Control_c, 0, 64, 77
1, 38057, Note_off_c, 0, 78, 63
1, 38060, Note_on_c, 0, 75, 74
1, 38065, Control_c, 0, 64, 81
1, 38080, Control_c, 0, 64, 85
1, 38095, Control_c, 0, 64, 86
1, 38106, Note_on_c, 0, 66, 54
1, 38110, Control_c, 0, 64, 87
1, 38116, Note_off_c, 0, 75, 62
1, 38140, Control_c, 0, 64, 87
1, 38155, Control_c, 0, 64, 88
1, 38155, Note_on_c, 0, 63, 72
1, 38158, Note_on_c, 0, 72, 75
1, 38175, Note_off_c, 0, 66, 62
1, 38185, Control_c, 0, 64, 88
1, 38199, Note_on_c, 0, 78, 80
1, 38214, Control_c, 0, 64, 89
1, 38217, Note_off_c, 0, 63, 62
1, 38228, Note_off_c, 0, 72, 57
1, 38244, Control_c, 0, 64, 90
1, 38257, Note_on_c, 0, 75, 72
1, 38258, Control_c, 0, 64, 92
1, 38266, Note_off_c, 0, 78, 63
1, 38273, Control_c, 0, 64, 95
1, 38288, Control_c, 0, 64, 101
1, 38300, Note_on_c, 0, 66, 65
1, 38303, Control_c, 0, 64, 107
1, 38311, Note_off_c, 0, 75, 62
1, 38318, Control_c, 0, 64, 108
1, 38332, Control_c, 0, 64, 99
1, 38334, Note_off_c, 0, 66, 58
1, 38347, Control_c, 0, 64, 81
1, 38362, Control_c, 0, 64, 65
1, 38368, Note_on_c, 0, 74, 84
1, 38369, Note_on_c, 0, 65, 81
1, 38378, Control_c, 0, 64, 47
1, 38393, Control_c, 0, 64, 46
1, 38405, Note_on_c, 0, 80, 83
1, 38408, Control_c, 0, 64, 56
1, 38422, Control_c, 0, 64, 61
1, 38431, Note_off_c, 0, 74, 62
1, 38437, Control_c, 0, 64, 64
1, 38449, Note_off_c, 0, 65, 60
1, 38452, Control_c, 0, 64, 68
1, 38466, Control_c, 0, 64, 73
1, 38481, Control_c, 0, 64, 79
1, 38490, Note_on_c, 0, 77, 76
1, 38496, Control_c, 0, 64, 83
1, 38511, Control_c, 0, 64, 84
1, 38526, Control_c, 0, 64, 85
1, 38527, Note_off_c, 0, 80, 63
1, 38540, Control_c, 0, 64, 85
1, 38553, Note_on_c, 0, 68, 76
1, 38555, Control_c, 0, 64, 86
1, 38570, Control_c, 0, 64, 86
1, 38571, Note_off_c, 0, 77, 60
1, 38591, Note_on_c, 0, 59, 73
1, 38625, Note_off_c, 0, 68, 61
1, 38650, Note_off_c, 0, 59, 61
1, 38654, Note_on_c, 0, 80, 82
1, 38688, Control_c, 0, 64, 87
1, 38703, Control_c, 0, 64, 90
1, 38704, Note_on_c, 0, 79, 21
1, 38710, Note_on_c, 0, 77, 70
1, 38718, Control_c, 0, 64, 94
1, 38733, Control_c, 0, 64, 101
1, 38738, Note_off_c, 0, 80, 64
1, 38742, Note_off_c, 0, 79, 52
1, 38748, Control_c, 0, 64, 116
1, 38770, Control_c, 0, 64, 127
1, 38780, Note_on_c, 0, 68, 81
1, 38793, Note_off_c, 0, 77, 61
1, 38806, Note_off_c, 0, 68, 68
1, 38843, Note_on_c, 0, 72, 98
1, 38844, Note_on_c, 0, 63, 90
1, 38844, Control_c, 0, 64, 104
1, 38849, Note_on_c, 0, 60, 91
1, 38859, Control_c, 0, 64, 66
1, 38873, Control_c, 0, 64, 0
1, 38915, Note_on_c, 0, 84, 90
1, 38918, Note_off_c, 0, 72, 63
1, 38918, Control_c, 0, 64, 34
1, 38932, Note_off_c, 0, 60, 62
1, 38933, Control_c, 0, 64, 59
1, 38945, Note_off_c, 0, 63, 60
1, 38948, Control_c, 0, 64, 67
1, 38963, Control_c, 0, 64, 77
1, 38976, Note_on_c, 0, 75, 80
1, 38978, Control_c, 0, 64, 90
1, 38992, Control_c, 0, 64, 108
1, 38994, Poly_aftertouch_c, 0, 78, 127
1, 39007, Control_c, 0, 64, 127
1, 39013, Note_off_c, 0, 84, 62
1, 39025, Poly_aftertouch_c, 0, 78, 0
1, 39040, Note_on_c, 0, 72, 73
1, 39041, Note_off_c, 0, 75, 61
1, 39053, Poly_aftertouch_c, 0, 81, 0
1, 39067, Note_off_c, 0, 72, 67
1, 39096, Control_c, 0, 64, 125
1, 39111, Control_c, 0, 64, 119
1, 39112, Note_on_c, 0, 72, 76
1, 39126, Control_c, 0, 64, 115
1, 39136, Note_off_c, 0, 72, 69
1, 39140, Control_c, 0, 64, 113
1, 39154, Control_c, 0, 64, 112
1, 39156, Note_on_c, 0, 84, 75
1, 39185, Control_c, 0, 64, 112
1, 39197, Note_on_c, 0, 75, 78
1, 39200, Control_c, 0, 64, 115
1, 39215, Control_c, 0, 64, 115
1, 39237, Note_off_c, 0, 84, 64
1, 39244, Control_c, 0, 64, 104
1, 39247, Note_off_c, 0, 75, 63
1, 39259, Control_c, 0, 64, 83
1, 39260, Note_on_c, 0, 72, 68
1, 39274, Control_c, 0, 64, 64
1, 39288, Control_c, 0, 64, 47
1, 39303, Control_c, 0, 64, 52
1, 39309, Note_on_c, 0, 65, 82
1, 39310, Note_on_c, 0, 62, 80
1, 39318, Control_c, 0, 64, 60
1, 39333, Control_c, 0, 64, 65
1, 39348, Control_c, 0, 64, 69
1, 39349, Note_off_c, 0, 72, 56
1, 39353, Note_off_c, 0, 65, 61
1, 39361, Note_on_c, 0, 84, 82
1, 39362, Note_off_c, 0, 62, 61
1, 39362, Control_c, 0, 64, 76
1, 39377, Control_c, 0, 64, 85
1, 39392, Control_c, 0, 64, 92
1, 39407, Control_c, 0, 64, 95
1, 39422, Control_c, 0, 64, 96
1, 39428, Note_on_c, 0, 77, 65
1, 39437, Control_c, 0, 64, 97
1, 39452, Control_c, 0, 64, 100
1, 39458, Note_off_c, 0, 84, 65
1, 39466, Control_c, 0, 64, 101
1, 39481, Note_off_c, 0, 77, 60
1, 39481, Control_c, 0, 64, 94
1, 39487, Note_on_c, 0, 74, 71
1, 39496, Control_c, 0, 64, 77
1, 39518, Control_c, 0, 64, 62
1, 39526, Note_on_c, 0, 63, 79
1, 39529, Note_on_c, 0, 67, 78
1, 39529, Note_on_c, 0, 72, 85
1, 39533, Control_c, 0, 64, 47
1, 39543, Note_off_c, 0, 74, 58
1, 39548, Control_c, 0, 64, 55
1, 39563, Note_off_c, 0, 67, 64
1, 39563, Control_c, 0, 64, 61
1, 39577, Note_off_c, 0, 72, 63
1, 39577, Control_c, 0, 64, 65
1, 39580, Note_on_c, 0, 84, 89
1, 39588, Note_off_c, 0, 63, 63
1, 39592, Control_c, 0, 64, 69
1, 39607, Control_c, 0, 64, 75
1, 39622, Control_c, 0, 64, 83
1, 39633, Note_on_c, 0, 79, 69
1, 39637, Control_c, 0, 64, 87
1, 39651, Control_c, 0, 64, 89
1, 39666, Note_off_c, 0, 84, 62
1, 39666, Control_c, 0, 64, 90
1, 39681, Control_c, 0, 64, 92
1, 39687, Note_off_c, 0, 79, 65
1, 39696, Control_c, 0, 64, 92
1, 39696, Note_on_c, 0, 75, 70
1, 39711, Control_c, 0, 64, 91
1, 39726, Control_c, 0, 64, 82
1, 39741, Control_c, 0, 64, 68
1, 39753, Note_off_c, 0, 75, 60
1, 39754, Note_on_c, 0, 68, 81
1, 39756, Note_on_c, 0, 72, 85
1, 39756, Control_c, 0, 64, 55
1, 39759, Note_on_c, 0, 65, 80
1, 39785, Control_c, 0, 64, 61
1, 39791, Note_off_c, 0, 72, 62
1, 39799, Note_on_c, 0, 84, 82
1, 39800, Control_c, 0, 64, 65
1, 39800, Note_off_c, 0, 68, 61
1, 39803, Note_off_c, 0, 65, 62
1, 39814, Control_c, 0, 64, 70
1, 39829, Control_c, 0, 64, 76
1, 39844, Control_c, 0, 64, 82
1, 39859, Control_c, 0, 64, 87
1, 39861, Note_on_c, 0, 80, 69
1, 39874, Control_c, 0, 64, 89
1, 39888, Control_c, 0, 64, 90
1, 39899, Note_off_c, 0, 84, 63
1, 39903, Control_c, 0, 64, 91
1, 39918, Control_c, 0, 64, 92
1, 39920, Note_on_c, 0, 77, 75
1, 39923, Note_off_c, 0, 80, 57
1, 39933, Control_c, 0, 64, 93
1, 39948, Control_c, 0, 64, 89
1, 39953, Note_off_c, 0, 77, 62
1, 39964, Control_c, 0, 64, 76
1, 39979, Control_c, 0, 64, 62
1, 39981, Note_on_c, 0, 63, 74
1, 39981, Note_on_c, 0, 72, 82
1, 39982, Note_on_c, 0, 67, 77
1, 39993, Control_c, 0, 64, 51
1, 40008, Control_c, 0, 64, 58
1, 40017, Note_off_c, 0, 67, 63
1, 40023, Control_c, 0, 64, 63
1, 40024, Note_on_c, 0, 84, 74
1, 40025, Note_off_c, 0, 72, 61
1, 40038, Control_c, 0, 64, 67
1, 40039, Note_off_c, 0, 63, 61
1, 40053, Control_c, 0, 64, 72
1, 40067, Control_c, 0, 64, 78
1, 40082, Control_c, 0, 64, 84
1, 40095, Note_off_c, 0, 84, 62
1, 40097, Note_on_c, 0, 79, 69
1, 40097, Control_c, 0, 64, 88
1, 40112, Control_c, 0, 64, 92
1, 40126, Control_c, 0, 64, 96
1, 40132, Note_off_c, 0, 79, 66
1, 40141, Control_c, 0, 64, 99
1, 40154, Note_on_c, 0, 75, 70
1, 40156, Control_c, 0, 64, 94
1, 40171, Control_c, 0, 64, 76
1, 40180, Note_off_c, 0, 75, 68
1, 40185, Control_c, 0, 64, 60
1, 40200, Control_c, 0, 64, 45
1, 40206, Note_on_c, 0, 72, 83
1, 40209, Note_on_c, 0, 62, 75
1, 40210, Note_on_c, 0, 65, 77
1, 40215, Control_c, 0, 64, 53
1, 40230, Control_c, 0, 64, 60
1, 40236, Note_off_c, 0, 62, 68
1, 40243, Note_off_c, 0, 65, 65
1, 40243, Note_off_c, 0, 72, 63
1, 40244, Note_on_c, 0, 84, 82
1, 40245, Control_c, 0, 64, 64
1, 40267, Control_c, 0, 64, 69
1, 40282, Control_c, 0, 64, 76
1, 40297, Control_c, 0, 64, 83
1, 40312, Control_c, 0, 64, 86
1, 40322, Note_on_c, 0, 77, 79
1, 40326, Control_c, 0, 64, 87
1, 40331, Note_off_c, 0, 84, 63
1, 40370, Note_off_c, 0, 77, 64
1, 40376, Note_on_c, 0, 74, 77
1, 40386, Control_c, 0, 64, 87
1, 40400, Control_c, 0, 64, 88
1, 40415, Control_c, 0, 64, 89
1, 40430, Control_c, 0, 64, 91
1, 40435, Note_on_c, 0, 71, 74
1, 40442, Note_on_c, 0, 67, 67
1, 40444, Control_c, 0, 64, 93
1, 40446, Note_off_c, 0, 74, 64
1, 40459, Control_c, 0, 64, 93
1, 40460, Note_off_c, 0, 71, 70
1, 40468, Note_off_c, 0, 67, 67
1, 40474, Control_c, 0, 64, 94
1, 40477, Note_on_c, 0, 86, 89
1, 40489, Control_c, 0, 64, 94
1, 40504, Control_c, 0, 64, 96
1, 40519, Control_c, 0, 64, 98
1, 40534, Control_c, 0, 64, 102
1, 40542, Note_on_c, 0, 83, 74
1, 40549, Control_c, 0, 64, 108
1, 40560, Note_off_c, 0, 86, 64
1, 40563, Control_c, 0, 64, 122
1, 40578, Control_c, 0, 64, 127
1, 40598, Note_off_c, 0, 83, 65
1, 40608, Note_on_c, 0, 77, 79
1, 40632, Note_off_c, 0, 77, 69
1, 40637, Control_c, 0, 64, 91
1, 40646, Note_on_c, 0, 67, 67
1, 40652, Control_c, 0, 64, 65
1, 40655, Note_on_c, 0, 60, 78
1, 40655, Note_on_c, 0, 63, 85
1, 40667, Control_c, 0, 64, 43
1, 40671, Note_off_c, 0, 67, 66
1, 40679, Note_off_c, 0, 60, 71
1, 40682, Control_c, 0, 64, 53
1, 40686, Note_off_c, 0, 63, 64
1, 40697, Control_c, 0, 64, 62
1, 40711, Control_c, 0, 64, 67
1, 40726, Control_c, 0, 64, 77
1, 40727, Note_on_c, 0, 67, 83
1, 40741, Control_c, 0, 64, 106
1, 40756, Control_c, 0, 64, 127
1, 40789, Note_on_c, 0, 63, 79
1, 40796, Note_off_c, 0, 67, 62
1, 40819, Note_off_c, 0, 63, 61
1, 40855, Note_on_c, 0, 60, 64
1, 40893, Note_on_c, 0, 72, 80
1, 40911, Note_off_c, 0, 60, 56
1, 40916, Note_off_c, 0, 72, 68
1, 40934, Note_on_c, 0, 68, 34
1, 40966, Note_on_c, 0, 67, 62
1, 40967, Note_off_c, 0, 68, 32
1, 41008, Note_on_c, 0, 63, 58
1, 41029, Note_off_c, 0, 67, 58
1, 41073, Note_on_c, 0, 60, 56
1, 41088, Note_off_c, 0, 63, 53
1, 41090, Control_c, 0, 64, 90
1, 41105, Control_c, 0, 64, 61
1, 41120, Control_c, 0, 64, 31
1, 41121, Note_on_c, 0, 58, 95
1, 41124, Note_off_c, 0, 60, 65
1, 41135, Control_c, 0, 64, 48
1, 41149, Control_c, 0, 64, 60
1, 41160, Note_off_c, 0, 58, 68
1, 41164, Control_c, 0, 64, 65
1, 41168, Note_on_c, 0, 67, 70
1, 41179, Control_c, 0, 64, 73
1, 41194, Control_c, 0, 64, 87
1, 41209, Control_c, 0, 64, 120
1, 41223, Control_c, 0, 64, 127
1, 41240, Note_on_c, 0, 63, 67
1, 41243, Note_off_c, 0, 67, 60
1, 41253, Control_c, 0, 64, 125
1, 41282, Control_c, 0, 64, 127
1, 41290, Note_off_c, 0, 63, 50
1, 41291, Note_on_c, 0, 60, 56
1, 41345, Note_on_c, 0, 70, 83
1, 41365, Note_off_c, 0, 70, 73
1, 41380, Note_off_c, 0, 60, 57
1, 41407, Note_on_c, 0, 67, 73
1, 41476, Note_on_c, 0, 63, 67
1, 41495, Note_off_c, 0, 67, 57
1, 41523, Note_on_c, 0, 60, 59
1, 41541, Note_off_c, 0, 63, 52
1, 41550, Control_c, 0, 64, 102
1, 41565, Control_c, 0, 64, 70
1, 41580, Note_off_c, 0, 60, 59
1, 41580, Control_c, 0, 64, 44
1, 41583, Note_on_c, 0, 57, 97
1, 41595, Control_c, 0, 64, 47
1, 41610, Control_c, 0, 64, 57
1, 41625, Control_c, 0, 64, 62
1, 41628, Note_off_c, 0, 57, 65
1, 41633, Note_on_c, 0, 67, 76
1, 41640, Control_c, 0, 64, 68
1, 41654, Control_c, 0, 64, 78
1, 41669, Control_c, 0, 64, 98
1, 41684, Control_c, 0, 64, 117
1, 41699, Control_c, 0, 64, 119
1, 41701, Note_on_c, 0, 63, 67
1, 41714, Control_c, 0, 64, 113
1, 41721, Note_off_c, 0, 67, 58
1, 41729, Control_c, 0, 64, 112
1, 41758, Note_on_c, 0, 60, 63
1, 41780, Note_off_c, 0, 63, 56
1, 41810, Control_c, 0, 64, 113
1, 41821, Note_on_c, 0, 69, 82
1, 41840, Note_off_c, 0, 60, 60
1, 41841, Note_off_c, 0, 69, 71
1, 41875, Note_on_c, 0, 67, 75
1, 41914, Control_c, 0, 64, 116
1, 41929, Control_c, 0, 64, 122
1, 41933, Note_on_c, 0, 63, 57
1, 41944, Control_c, 0, 64, 127
1, 41990, Note_on_c, 0, 60, 63
1, 42004, Note_off_c, 0, 63, 61
1, 42033, Control_c, 0, 64, 80
1, 42041, Note_on_c, 0, 56, 95
1, 42044, Note_off_c, 0, 60, 64
1, 42047, Control_c, 0, 64, 55
1, 42062, Control_c, 0, 64, 38
1, 42077, Control_c, 0, 64, 53
1, 42087, Note_off_c, 0, 56, 67
1, 42091, Control_c, 0, 64, 61
1, 42106, Control_c, 0, 64, 66
1, 42115, Note_on_c, 0, 63, 75
1, 42121, Control_c, 0, 64, 74
1, 42136, Control_c, 0, 64, 97
1, 42151, Control_c, 0, 64, 127
1, 42172, Note_off_c, 0, 63, 62
1, 42191, Note_on_c, 0, 60, 70
1, 42262, Note_off_c, 0, 60, 58
1, 42303, Note_on_c, 0, 68, 86
1, 42322, Note_off_c, 0, 68, 71
1, 42358, Note_on_c, 0, 63, 78
1, 42425, Note_off_c, 0, 63, 61
1, 42450, Note_on_c, 0, 60, 70
1, 42525, Note_on_c, 0, 63, 72
1, 42551, Note_off_c, 0, 60, 52
1, 42567, Note_off_c, 0, 67, 58
1, 42592, Note_off_c, 0, 63, 62
1, 42637, Note_on_c, 0, 44, 96
1, 42638, Note_on_c, 0, 37, 92
1, 42648, Control_c, 0, 64, 106
1, 42662, Control_c, 0, 64, 63
1, 42677, Control_c, 0, 64, 0
1, 42737, Control_c, 0, 64, 53
1, 42751, Control_c, 0, 64, 67
1, 42766, Control_c, 0, 64, 79
1, 42781, Control_c, 0, 64, 127
1, 42790, Note_off_c, 0, 37, 59
1, 42793, Note_on_c, 0, 65, 56
1, 42793, Note_off_c, 0, 44, 59
1, 42895, Note_on_c, 0, 61, 63
1, 42927, Note_off_c, 0, 65, 38
1, 42981, Note_on_c, 0, 53, 57
1, 42991, Note_off_c, 0, 61, 53
1, 43060, Note_on_c, 0, 56, 95
1, 43079, Note_off_c, 0, 53, 56
1, 43124, Note_on_c, 0, 65, 69
1, 43145, Note_off_c, 0, 56, 62
1, 43209, Note_on_c, 0, 61, 61
1, 43236, Note_off_c, 0, 65, 61
1, 43279, Note_on_c, 0, 53, 67
1, 43297, Note_off_c, 0, 61, 58
1, 43349, Note_on_c, 0, 56, 92
1, 43355, Note_off_c, 0, 53, 59
1, 43402, Note_on_c, 0, 65, 71
1, 43421, Note_off_c, 0, 56, 61
1, 43470, Note_on_c, 0, 61, 66
1, 43506, Note_off_c, 0, 65, 62
1, 43539, Note_on_c, 0, 53, 65
1, 43549, Note_off_c, 0, 61, 58
1, 43580, Note_on_c, 0, 56, 95
1, 43603, Note_off_c, 0, 53, 53
1, 43653, Note_on_c, 0, 65, 70
1, 43658, Note_off_c, 0, 56, 63
1, 43707, Note_on_c, 0, 61, 61
1, 43747, Note_off_c, 0, 65, 61
1, 43782, Note_on_c, 0, 53, 65
1, 43785, Note_off_c, 0, 61, 61
1, 43807, Note_on_c, 0, 56, 92
1, 43841, Note_off_c, 0, 53, 60
1, 43884, Note_on_c, 0, 65, 69
1, 43884, Note_off_c, 0, 56, 62
1, 43947, Note_on_c, 0, 61, 59
1, 43983, Note_off_c, 0, 65, 61
1, 44019, Note_off_c, 0, 61, 60
1, 44036, Note_on_c, 0, 53, 54
1, 44050, Note_on_c, 0, 56, 83
1, 44073, Note_off_c, 0, 53, 63
1, 44099, Note_off_c, 0, 56, 61
1, 44130, Note_on_c, 0, 65, 63
1, 44191, Note_on_c, 0, 61, 54
1, 44209, Note_off_c, 0, 65, 57
1, 44241, Note_off_c, 0, 61, 58
1, 44264, Note_on_c, 0, 53, 50
1, 44279, Note_on_c, 0, 56, 72
1, 44307, Note_off_c, 0, 53, 60
1, 44330, Note_off_c, 0, 56, 62
1, 44360, Note_on_c, 0, 65, 55
1, 44433, Note_on_c, 0, 61, 49
1, 44439, Note_off_c, 0, 65, 56
1, 44469, Note_off_c, 0, 61, 60
1, 44507, Note_on_c, 0, 53, 46
1, 44522, Note_on_c, 0, 56, 60
1, 44546, Note_off_c, 0, 53, 60
1, 44561, Note_off_c, 0, 56, 62
1, 44614, Note_on_c, 0, 65, 48
1, 44682, Note_off_c, 0, 65, 53
1, 44683, Note_on_c, 0, 61, 39
1, 44725, Note_off_c, 0, 61, 58
1, 44768, Note_on_c, 0, 53, 39
1, 44777, Note_on_c, 0, 56, 52
1, 44799, Note_off_c, 0, 53, 56
1, 44822, Note_off_c, 0, 56, 60
1, 44867, Note_on_c, 0, 65, 39
1, 44945, Note_on_c, 0, 61, 24
1, 44947, Note_off_c, 0, 65, 50
1, 45000, Note_off_c, 0, 61, 47
1, 45011, Note_on_c, 0, 56, 55
1, 45018, Note_on_c, 0, 53, 27
1, 45067, Note_off_c, 0, 53, 47
1, 45068, Note_off_c, 0, 56, 58
1, 45107, Note_on_c, 0, 65, 47
1, 45175, Note_off_c, 0, 65, 50
1, 45178, Note_on_c, 0, 61, 33
1, 45223, Note_off_c, 0, 61, 49
1, 45251, Note_on_c, 0, 53, 30
1, 45281, Note_on_c, 0, 56, 55
1, 45291, Note_off_c, 0, 53, 49
1, 45330, Note_off_c, 0, 56, 59
1, 45362, Note_on_c, 0, 65, 36
1, 45413, Note_on_c, 0, 61, 29
1, 45439, Note_off_c, 0, 65, 53
1, 45470, Note_off_c, 0, 61, 45
1, 45515, Note_on_c, 0, 53, 15
1, 45563, Note_off_c, 0, 53, 51
1, 45577, Note_on_c, 0, 56, 46
1, 45610, Note_off_c, 0, 56, 60
1, 45653, Note_on_c, 0, 65, 38
1, 45721, Note_on_c, 0, 61, 38
1, 45721, Note_off_c, 0, 65, 51
1, 45782, Note_off_c, 0, 61, 52
1, 45829, Note_on_c, 0, 53, 32
1, 45896, Note_off_c, 0, 53, 43
1, 46017, Note_on_c, 0, 49, 50
1, 46021, Note_on_c, 0, 37, 49
1, 46028, Control_c, 0, 64, 98
1, 46043, Control_c, 0, 64, 76
1, 46058, Control_c, 0, 64, 64
1, 46073, Control_c, 0, 64, 54
1, 46087, Control_c, 0, 64, 53
1, 46102, Control_c, 0, 64, 56
1, 46117, Control_c, 0, 64, 60
1, 46132, Control_c, 0, 64, 64
1, 46147, Control_c, 0, 64, 68
1, 46151, Note_off_c, 0, 37, 55
1, 46153, Note_on_c, 0, 65, 43
1, 46162, Control_c, 0, 64, 74
1, 46176, Control_c, 0, 64, 82
1, 46191, Control_c, 0, 64, 90
1, 46197, Note_off_c, 0, 49, 59
1, 46206, Control_c, 0, 64, 95
1, 46221, Control_c, 0, 64, 98
1, 46233, Note_off_c, 0, 65, 50
1, 46266, Note_on_c, 0, 61, 31
1, 46302, Control_c, 0, 64, 98
1, 46308, Note_off_c, 0, 61, 47
1, 46331, Note_on_c, 0, 53, 36
1, 46371, Note_off_c, 0, 53, 49
1, 46377, Control_c, 0, 64, 97
1, 46382, Note_on_c, 0, 56, 54
1, 46407, Control_c, 0, 64, 97
1, 46415, Note_off_c, 0, 56, 64
1, 46441, Note_on_c, 0, 65, 48
1, 46506, Note_off_c, 0, 65, 55
1, 46521, Note_on_c, 0, 61, 38
1, 46569, Note_off_c, 0, 61, 44
1, 46570, Control_c, 0, 64, 96
1, 46585, Control_c, 0, 64, 94
1, 46586, Note_on_c, 0, 53, 28
1, 46600, Control_c, 0, 64, 86
1, 46615, Control_c, 0, 64, 75
1, 46626, Note_off_c, 0, 53, 52
1, 46629, Note_on_c, 0, 51, 53
1, 46630, Control_c, 0, 64, 66
1, 46633, Note_on_c, 0, 39, 42
1, 46644, Control_c, 0, 64, 61
1, 46659, Control_c, 0, 64, 63
1, 46674, Control_c, 0, 64, 66
1, 46674, Note_on_c, 0, 65, 50
1, 46689, Control_c, 0, 64, 68
1, 46702, Note_off_c, 0, 51, 56
1, 46703, Control_c, 0, 64, 72
1, 46711, Note_off_c, 0, 39, 54
1, 46718, Control_c, 0, 64, 76
1, 46733, Control_c, 0, 64, 78
1, 46745, Note_on_c, 0, 61, 41
1, 46748, Control_c, 0, 64, 80
1, 46752, Note_off_c, 0, 65, 55
1, 46762, Control_c, 0, 64, 81
1, 46807, Control_c, 0, 64, 80
1, 46808, Note_off_c, 0, 61, 52
1, 46817, Note_on_c, 0, 54, 46
1, 46822, Control_c, 0, 64, 79
1, 46836, Control_c, 0, 64, 75
1, 46851, Note_on_c, 0, 53, 66
1, 46851, Control_c, 0, 64, 67
1, 46856, Note_on_c, 0, 41, 58
1, 46863, Note_off_c, 0, 54, 61
1, 46866, Control_c, 0, 64, 63
1, 46880, Control_c, 0, 64, 64
1, 46895, Control_c, 0, 64, 66
1, 46903, Note_on_c, 0, 65, 56
1, 46910, Control_c, 0, 64, 68
1, 46925, Control_c, 0, 64, 72
1, 46940, Control_c, 0, 64, 76
1, 46948, Note_off_c, 0, 53, 61
1, 46954, Control_c, 0, 64, 80
1, 46962, Note_on_c, 0, 61, 48
1, 46969, Control_c, 0, 64, 83
1, 46984, Note_off_c, 0, 41, 52
1, 46984, Control_c, 0, 64, 84
1, 46991, Note_off_c, 0, 65, 60
1, 47029, Note_on_c, 0, 56, 53
1, 47034, Note_off_c, 0, 61, 50
1, 47036, Control_c, 0, 64, 84
1, 47051, Control_c, 0, 64, 82
1, 47066, Control_c, 0, 64, 77
1, 47079, Note_off_c, 0, 56, 62
1, 47080, Control_c, 0, 64, 67
1, 47094, Note_on_c, 0, 42, 62
1, 47095, Control_c, 0, 64, 63
1, 47098, Note_on_c, 0, 54, 62
1, 47110, Control_c, 0, 64, 66
1, 47125, Control_c, 0, 64, 69
1, 47140, Control_c, 0, 64, 74
1, 47141, Note_on_c, 0, 65, 52
1, 47156, Control_c, 0, 64, 79
1, 47166, Note_off_c, 0, 54, 55
1, 47167, Note_off_c, 0, 42, 56
1, 47171, Control_c, 0, 64, 85
1, 47184, Note_on_c, 0, 61, 36
1, 47185, Control_c, 0, 64, 89
1, 47200, Control_c, 0, 64, 90
1, 47215, Control_c, 0, 64, 90
1, 47216, Note_off_c, 0, 65, 57
1, 47237, Note_off_c, 0, 61, 55
1, 47243, Note_on_c, 0, 58, 51
1, 47273, Note_off_c, 0, 58, 59
1, 47274, Control_c, 0, 64, 87
1, 47289, Control_c, 0, 64, 80
1, 47303, Control_c, 0, 64, 69
1, 47318, Control_c, 0, 64, 61
1, 47322, Note_on_c, 0, 53, 62
1, 47326, Note_on_c, 0, 41, 55
1, 47333, Control_c, 0, 64, 57
1, 47347, Note_on_c, 0, 65, 54
1, 47348, Control_c, 0, 64, 61
1, 47363, Control_c, 0, 64, 64
1, 47366, Note_off_c, 0, 53, 62
1, 47378, Control_c, 0, 64, 66
1, 47383, Note_off_c, 0, 41, 60
1, 47392, Control_c, 0, 64, 70
1, 47400, Note_on_c, 0, 61, 35
1, 47407, Control_c, 0, 64, 73
1, 47422, Control_c, 0, 64, 77
1, 47425, Note_off_c, 0, 65, 53
1, 47437, Control_c, 0, 64, 78
1, 47452, Note_off_c, 0, 61, 57
1, 47468, Note_on_c, 0, 56, 46
1, 47496, Control_c, 0, 64, 76
1, 47510, Control_c, 0, 64, 72
1, 47514, Note_off_c, 0, 56, 60
1, 47525, Control_c, 0, 64, 64
1, 47537, Note_on_c, 0, 51, 58
1, 47540, Control_c, 0, 64, 59
1, 47545, Note_on_c, 0, 39, 50
1, 47555, Control_c, 0, 64, 62
1, 47570, Control_c, 0, 64, 64
1, 47572, Note_on_c, 0, 65, 50
1, 47574, Note_off_c, 0, 51, 66
1, 47584, Control_c, 0, 64, 67
1, 47586, Note_off_c, 0, 39, 65
1, 47599, Control_c, 0, 64, 70
1, 47614, Control_c, 0, 64, 75
1, 47616, Note_on_c, 0, 61, 44
1, 47629, Control_c, 0, 64, 79
1, 47644, Control_c, 0, 64, 80
1, 47646, Note_off_c, 0, 65, 51
1, 47658, Control_c, 0, 64, 81
1, 47665, Note_off_c, 0, 61, 59
1, 47673, Control_c, 0, 64, 82
1, 47688, Control_c, 0, 64, 84
1, 47700, Note_on_c, 0, 54, 51
1, 47703, Control_c, 0, 64, 85
1, 47718, Control_c, 0, 64, 85
1, 47733, Control_c, 0, 64, 80
1, 47744, Note_off_c, 0, 54, 62
1, 47747, Control_c, 0, 64, 71
1, 47770, Control_c, 0, 64, 61
1, 47784, Note_on_c, 0, 44, 51
1, 47784, Control_c, 0, 64, 58
1, 47789, Note_on_c, 0, 56, 43
1, 47799, Control_c, 0, 64, 62
1, 47814, Control_c, 0, 64, 66
1, 47816, Note_off_c, 0, 56, 58
1, 47819, Note_off_c, 0, 44, 61
1, 47829, Control_c, 0, 64, 70
1, 47831, Note_on_c, 0, 63, 47
1, 47844, Control_c, 0, 64, 75
1, 47858, Control_c, 0, 64, 81
1, 47873, Control_c, 0, 64, 84
1, 47882, Note_off_c, 0, 63, 58
1, 47900, Note_on_c, 0, 60, 36
1, 47940, Note_on_c, 0, 56, 36
1, 47944, Note_off_c, 0, 60, 48
1, 47993, Control_c, 0, 64, 82
1, 47995, Note_off_c, 0, 56, 59
1, 48007, Control_c, 0, 64, 73
1, 48022, Control_c, 0, 64, 63
1, 48037, Control_c, 0, 64, 54
1, 48042, Note_on_c, 0, 37, 41
1, 48046, Note_on_c, 0, 49, 41
1, 48052, Control_c, 0, 64, 58
1, 48067, Control_c, 0, 64, 62
1, 48074, Note_on_c, 0, 65, 56
1, 48081, Note_off_c, 0, 37, 56
1, 48081, Control_c, 0, 64, 64
1, 48090, Note_off_c, 0, 49, 63
1, 48096, Control_c, 0, 64, 68
1, 48111, Control_c, 0, 64, 72
1, 48125, Control_c, 0, 64, 77
1, 48127, Note_off_c, 0, 65, 53
1, 48140, Control_c, 0, 64, 80
1, 48155, Note_on_c, 0, 61, 36
1, 48192, Note_off_c, 0, 61, 54
1, 48207, Note_on_c, 0, 53, 47
1, 48244, Control_c, 0, 64, 80
1, 48254, Note_off_c, 0, 53, 56
1, 48275, Note_on_c, 0, 56, 52
1, 48299, Note_off_c, 0, 56, 62
1, 48335, Note_on_c, 0, 65, 46
1, 48363, Note_on_c, 0, 61, 38
1, 48376, Note_off_c, 0, 65, 52
1, 48377, Control_c, 0, 64, 81
1, 48392, Control_c, 0, 64, 82
1, 48402, Note_off_c, 0, 61, 62
1, 48406, Control_c, 0, 64, 84
1, 48421, Control_c, 0, 64, 84
1, 48432, Note_on_c, 0, 53, 48
1, 48451, Control_c, 0, 64, 84
1, 48457, Note_off_c, 0, 53, 59
1, 48466, Control_c, 0, 64, 81
1, 48481, Control_c, 0, 64, 74
1, 48496, Control_c, 0, 64, 64
1, 48506, Note_on_c, 0, 47, 58
1, 48509, Note_on_c, 0, 35, 48
1, 48518, Control_c, 0, 64, 55
1, 48532, Control_c, 0, 64, 56
1, 48547, Control_c, 0, 64, 59
1, 48554, Note_on_c, 0, 66, 44
1, 48554, Note_off_c, 0, 35, 60
1, 48562, Control_c, 0, 64, 62
1, 48564, Note_on_c, 0, 63, 38
1, 48577, Control_c, 0, 64, 64
1, 48589, Note_off_c, 0, 47, 61
1, 48592, Control_c, 0, 64, 68
1, 48606, Control_c, 0, 64, 71
1, 48607, Note_off_c, 0, 66, 61
1, 48612, Note_off_c, 0, 63, 61
1, 48621, Control_c, 0, 64, 74
1, 48629, Note_on_c, 0, 59, 44
1, 48636, Control_c, 0, 64, 75
1, 48651, Control_c, 0, 64, 76
1, 48668, Note_on_c, 0, 54, 52
1, 48679, Note_off_c, 0, 59, 44
1, 48712, Note_off_c, 0, 54, 62
1, 48734, Note_on_c, 0, 51, 65
1, 48740, Control_c, 0, 64, 76
1, 48757, Note_off_c, 0, 51, 63
1, 48777, Note_on_c, 0, 63, 56
1, 48782, Note_on_c, 0, 66, 57
1, 48829, Control_c, 0, 64, 77
1, 48835, Note_off_c, 0, 66, 58
1, 48838, Note_on_c, 0, 59, 62
1, 48839, Note_off_c, 0, 63, 62
1, 48844, Control_c, 0, 64, 77
1, 48859, Control_c, 0, 64, 79
1, 48875, Control_c, 0, 64, 81
1, 48884, Note_on_c, 0, 54, 63
1, 48890, Control_c, 0, 64, 82
1, 48891, Note_off_c, 0, 59, 52
1, 48913, Note_off_c, 0, 54, 68
1, 48919, Control_c, 0, 64, 82
1, 48934, Control_c, 0, 64, 76
1, 48949, Control_c, 0, 64, 65
1, 48952, Note_on_c, 0, 31, 52
1, 48952, Note_on_c, 0, 43, 65
1, 48964, Control_c, 0, 64, 53
1, 48979, Control_c, 0, 64, 50
1, 48990, Note_off_c, 0, 31, 64
1, 48993, Control_c, 0, 64, 53
1, 49003, Note_on_c, 0, 67, 79
1, 49005, Note_on_c, 0, 62, 62
1, 49008, Control_c, 0, 64, 57
1, 49011, Note_off_c, 0, 43, 62
1, 49023, Control_c, 0, 64, 62
1, 49038, Control_c, 0, 64, 65
1, 49053, Control_c, 0, 64, 69
1, 49068, Control_c, 0, 64, 71
1, 49073, Note_off_c, 0, 62, 61
1, 49076, Note_off_c, 0, 67, 60
1, 49077, Note_on_c, 0, 59, 68
1, 49083, Control_c, 0, 64, 73
1, 49097, Control_c, 0, 64, 74
1, 49116, Note_off_c, 0, 59, 60
1, 49122, Note_on_c, 0, 55, 63
1, 49142, Control_c, 0, 64, 74
1, 49156, Control_c, 0, 64, 75
1, 49164, Note_on_c, 0, 50, 59
1, 49171, Control_c, 0, 64, 75
1, 49182, Note_off_c, 0, 55, 58
1, 49186, Control_c, 0, 64, 76
1, 49189, Note_off_c, 0, 50, 59
1, 49201, Control_c, 0, 64, 76
1, 49223, Note_on_c, 0, 62, 61
1, 49267, Note_off_c, 0, 62, 62
1, 49277, Note_on_c, 0, 59, 52
1, 49282, Note_on_c, 0, 67, 11
1, 49283, Control_c, 0, 64, 77
1, 49297, Control_c, 0, 64, 77
1, 49312, Control_c, 0, 64, 78
1, 49316, Note_off_c, 0, 59, 64
1, 49322, Note_off_c, 0, 67, 35
1, 49327, Control_c, 0, 64, 79
1, 49329, Note_on_c, 0, 55, 61
1, 49342, Control_c, 0, 64, 79
1, 49358, Note_off_c, 0, 55, 66
1, 49371, Control_c, 0, 64, 78
1, 49386, Control_c, 0, 64, 76
1, 49401, Control_c, 0, 64, 69
1, 49402, Note_on_c, 0, 28, 53
1, 49416, Note_on_c, 0, 40, 44
1, 49416, Control_c, 0, 64, 60
1, 49430, Control_c, 0, 64, 48
1, 49445, Control_c, 0, 64, 46
1, 49460, Control_c, 0, 64, 48
1, 49468, Note_off_c, 0, 28, 62
1, 49475, Control_c, 0, 64, 53
1, 49485, Note_on_c, 0, 71, 56
1, 49490, Control_c, 0, 64, 59
1, 49492, Note_on_c, 0, 68, 44
1, 49504, Control_c, 0, 64, 64
1, 49506, Note_off_c, 0, 40, 62
1, 49519, Control_c, 0, 64, 66
1, 49534, Control_c, 0, 64, 70
1, 49550, Control_c, 0, 64, 73
1, 49565, Control_c, 0, 64, 76
1, 49572, Note_off_c, 0, 71, 60
1, 49576, Note_off_c, 0, 68, 60
1, 49580, Control_c, 0, 64, 78
1, 49589, Note_on_c, 0, 64, 50
1, 49595, Control_c, 0, 64, 78
1, 49610, Control_c, 0, 64, 79
1, 49629, Note_off_c, 0, 64, 51
1, 49639, Control_c, 0, 64, 80
1, 49646, Note_on_c, 0, 59, 35
1, 49653, Control_c, 0, 64, 81
1, 49668, Control_c, 0, 64, 82
1, 49683, Control_c, 0, 64, 82
1, 49685, Note_off_c, 0, 59, 49
1, 49687, Note_on_c, 0, 47, 49
1, 49716, Note_off_c, 0, 47, 56
1, 49749, Note_on_c, 0, 68, 45
1, 49766, Note_on_c, 0, 71, 43
1, 49790, Note_off_c, 0, 71, 56
1, 49800, Note_off_c, 0, 68, 62
1, 49804, Note_on_c, 0, 64, 53
1, 49837, Note_off_c, 0, 64, 64
1, 49861, Control_c, 0, 64, 83
1, 49870, Note_on_c, 0, 59, 41
1, 49897, Note_off_c, 0, 59, 54
1, 49920, Control_c, 0, 64, 82
1, 49930, Note_on_c, 0, 50, 47
1, 49933, Note_on_c, 0, 38, 40
1, 49935, Control_c, 0, 64, 79
1, 49950, Control_c, 0, 64, 70
1, 49965, Control_c, 0, 64, 61
1, 49979, Control_c, 0, 64, 57
1, 49988, Note_on_c, 0, 66, 51
1, 50001, Control_c, 0, 64, 59
1, 50016, Note_off_c, 0, 38, 60
1, 50016, Control_c, 0, 64, 62
1, 50031, Control_c, 0, 64, 64
1, 50046, Control_c, 0, 64, 68
1, 50056, Note_off_c, 0, 50, 61
1, 50061, Control_c, 0, 64, 73
1, 50066, Note_off_c, 0, 66, 59
1, 50068, Note_on_c, 0, 62, 45
1, 50075, Control_c, 0, 64, 78
1, 50090, Control_c, 0, 64, 81
1, 50105, Control_c, 0, 64, 83
1, 50111, Note_off_c, 0, 62, 63
1, 50129, Note_on_c, 0, 54, 45
1, 50168, Note_off_c, 0, 54, 58
1, 50192, Note_on_c, 0, 57, 63
1, 50216, Note_off_c, 0, 57, 64
1, 50229, Note_on_c, 0, 66, 47
1, 50283, Note_on_c, 0, 62, 44
1, 50283, Control_c, 0, 64, 83
1, 50292, Note_off_c, 0, 66, 62
1, 50298, Control_c, 0, 64, 84
1, 50311, Note_off_c, 0, 62, 57
1, 50312, Control_c, 0, 64, 86
1, 50327, Control_c, 0, 64, 88
1, 50332, Note_on_c, 0, 54, 60
1, 50342, Control_c, 0, 64, 90
1, 50358, Control_c, 0, 64, 89
1, 50365, Note_off_c, 0, 54, 66
1, 50373, Control_c, 0, 64, 86
1, 50388, Control_c, 0, 64, 78
1, 50398, Note_on_c, 0, 48, 68
1, 50402, Control_c, 0, 64, 66
1, 50406, Note_on_c, 0, 36, 60
1, 50417, Control_c, 0, 64, 56
1, 50432, Control_c, 0, 64, 58
1, 50447, Control_c, 0, 64, 60
1, 50461, Note_off_c, 0, 36, 62
1, 50462, Control_c, 0, 64, 62
1, 50464, Note_on_c, 0, 64, 60
1, 50467, Note_on_c, 0, 67, 66
1, 50476, Control_c, 0, 64, 65
1, 50491, Control_c, 0, 64, 68
1, 50506, Note_off_c, 0, 48, 60
1, 50506, Control_c, 0, 64, 73
1, 50521, Control_c, 0, 64, 77
1, 50529, Note_off_c, 0, 67, 63
1, 50532, Note_off_c, 0, 64, 61
1, 50536, Control_c, 0, 64, 78
1, 50540, Note_on_c, 0, 60, 65
1, 50570, Note_on_c, 0, 55, 57
1, 50575, Note_off_c, 0, 60, 61
1, 50580, Control_c, 0, 64, 79
1, 50609, Control_c, 0, 64, 79
1, 50612, Note_off_c, 0, 55, 61
1, 50619, Note_on_c, 0, 52, 69
1, 50648, Note_off_c, 0, 52, 66
1, 50673, Note_on_c, 0, 64, 70
1, 50675, Note_on_c, 0, 67, 70
1, 50684, Control_c, 0, 64, 80
1, 50699, Control_c, 0, 64, 80
1, 50713, Control_c, 0, 64, 81
1, 50727, Note_off_c, 0, 67, 65
1, 50728, Control_c, 0, 64, 82
1, 50732, Note_on_c, 0, 60, 70
1, 50750, Note_off_c, 0, 64, 63
1, 50750, Control_c, 0, 64, 84
1, 50765, Control_c, 0, 64, 86
1, 50780, Note_on_c, 0, 55, 68
1, 50780, Control_c, 0, 64, 87
1, 50808, Note_off_c, 0, 60, 52
1, 50809, Control_c, 0, 64, 84
1, 50824, Control_c, 0, 64, 73
1, 50825, Note_off_c, 0, 55, 59
1, 50833, Note_on_c, 0, 32, 67
1, 50833, Note_on_c, 0, 44, 77
1, 50839, Control_c, 0, 64, 62
1, 50854, Control_c, 0, 64, 48
1, 50869, Control_c, 0, 64, 51
1, 50880, Note_off_c, 0, 32, 64
1, 50883, Control_c, 0, 64, 55
1, 50885, Note_on_c, 0, 68, 81
1, 50898, Control_c, 0, 64, 60
1, 50899, Note_on_c, 0, 63, 70
1, 50908, Note_off_c, 0, 44, 63
1, 50913, Control_c, 0, 64, 64
1, 50928, Control_c, 0, 64, 67
1, 50943, Control_c, 0, 64, 70
1, 50958, Control_c, 0, 64, 73
1, 50967, Note_on_c, 0, 60, 72
1, 50973, Control_c, 0, 64, 75
1, 50978, Note_off_c, 0, 68, 60
1, 50982, Note_off_c, 0, 63, 63
1, 50988, Control_c, 0, 64, 76
1, 51002, Control_c, 0, 64, 76
1, 51016, Note_on_c, 0, 56, 60
1, 51017, Control_c, 0, 64, 77
1, 51026, Note_off_c, 0, 60, 64
1, 51032, Control_c, 0, 64, 77
1, 51046, Note_on_c, 0, 51, 72
1, 51047, Control_c, 0, 64, 78
1, 51062, Control_c, 0, 64, 78
1, 51062, Note_off_c, 0, 56, 61
1, 51070, Note_off_c, 0, 51, 68
1, 51116, Note_on_c, 0, 63, 67
1, 51116, Note_on_c, 0, 68, 71
1, 51135, Control_c, 0, 64, 79
1, 51165, Note_on_c, 0, 60, 65
1, 51172, Note_off_c, 0, 63, 62
1, 51173, Note_off_c, 0, 68, 62
1, 51181, Control_c, 0, 64, 79
1, 51196, Control_c, 0, 64, 80
1, 51201, Note_off_c, 0, 60, 67
1, 51224, Note_on_c, 0, 56, 60
1, 51247, Note_off_c, 0, 56, 62
1, 51255, Control_c, 0, 64, 77
1, 51270, Control_c, 0, 64, 69
1, 51274, Note_on_c, 0, 41, 60
1, 51276, Note_on_c, 0, 29, 50
1, 51285, Control_c, 0, 64, 60
1, 51299, Control_c, 0, 64, 43
1, 51314, Control_c, 0, 64, 34
1, 51329, Control_c, 0, 64, 33
1, 51344, Control_c, 0, 64, 37
1, 51350, Note_off_c, 0, 29, 61
1, 51358, Control_c, 0, 64, 47
1, 51372, Note_on_c, 0, 69, 53
1, 51373, Control_c, 0, 64, 57
1, 51374, Note_on_c, 0, 72, 59
1, 51388, Control_c, 0, 64, 62
1, 51394, Note_off_c, 0, 41, 62
1, 51403, Control_c, 0, 64, 64
1, 51418, Control_c, 0, 64, 66
1, 51431, Note_off_c, 0, 69, 55
1, 51432, Control_c, 0, 64, 68
1, 51439, Note_off_c, 0, 72, 60
1, 51447, Control_c, 0, 64, 71
1, 51462, Control_c, 0, 64, 73
1, 51464, Note_on_c, 0, 65, 50
1, 51477, Control_c, 0, 64, 76
1, 51492, Control_c, 0, 64, 78
1, 51497, Note_off_c, 0, 65, 54
1, 51514, Control_c, 0, 64, 79
1, 51515, Note_on_c, 0, 60, 44
1, 51529, Control_c, 0, 64, 81
1, 51544, Control_c, 0, 64, 82
1, 51558, Control_c, 0, 64, 83
1, 51566, Note_on_c, 0, 48, 49
1, 51566, Note_off_c, 0, 60, 55
1, 51573, Control_c, 0, 64, 84
1, 51601, Note_off_c, 0, 48, 62
1, 51655, Note_on_c, 0, 72, 44
1, 51658, Note_on_c, 0, 69, 38
1, 51695, Note_off_c, 0, 69, 50
1, 51704, Note_on_c, 0, 65, 48
1, 51707, Note_off_c, 0, 72, 62
1, 51742, Note_off_c, 0, 65, 63
1, 51772, Note_on_c, 0, 60, 45
1, 51810, Note_off_c, 0, 60, 51
1, 51840, Control_c, 0, 64, 83
1, 51849, Note_on_c, 0, 40, 41
1, 51855, Control_c, 0, 64, 81
1, 51855, Note_on_c, 0, 52, 46
1, 51870, Control_c, 0, 64, 77
1, 51885, Control_c, 0, 64, 69
1, 51899, Control_c, 0, 64, 62
1, 51914, Control_c, 0, 64, 57
1, 51929, Control_c, 0, 64, 60
1, 51942, Note_on_c, 0, 74, 44
1, 51944, Control_c, 0, 64, 61
1, 51949, Note_on_c, 0, 70, 41
1, 51950, Note_off_c, 0, 40, 58
1, 51959, Control_c, 0, 64, 64
1, 51974, Control_c, 0, 64, 66
1, 51989, Control_c, 0, 64, 71
1, 52003, Note_off_c, 0, 52, 62
1, 52004, Control_c, 0, 64, 78
1, 52019, Control_c, 0, 64, 84
1, 52019, Note_off_c, 0, 74, 54
1, 52020, Note_off_c, 0, 70, 55
1, 52025, Note_on_c, 0, 66, 45
1, 52034, Control_c, 0, 64, 87
1, 52048, Control_c, 0, 64, 90
1, 52063, Control_c, 0, 64, 92
1, 52072, Note_off_c, 0, 66, 61
1, 52078, Control_c, 0, 64, 93
1, 52093, Control_c, 0, 64, 94
1, 52094, Note_on_c, 0, 62, 35
1, 52108, Control_c, 0, 64, 94
1, 52129, Note_off_c, 0, 62, 50
1, 52137, Control_c, 0, 64, 95
1, 52151, Note_on_c, 0, 58, 55
1, 52174, Note_off_c, 0, 58, 61
1, 52181, Control_c, 0, 64, 95
1, 52193, Note_on_c, 0, 74, 56
1, 52195, Note_on_c, 0, 70, 55
1, 52211, Control_c, 0, 64, 96
1, 52226, Control_c, 0, 64, 97
1, 52241, Control_c, 0, 64, 98
1, 52243, Note_off_c, 0, 74, 63
1, 52243, Note_off_c, 0, 70, 62
1, 52258, Note_on_c, 0, 66, 59
1, 52263, Control_c, 0, 64, 99
1, 52278, Control_c, 0, 64, 99
1, 52293, Control_c, 0, 64, 100
1, 52294, Note_off_c, 0, 66, 60
1, 52310, Note_on_c, 0, 62, 48
1, 52337, Control_c, 0, 64, 98
1, 52346, Note_off_c, 0, 62, 61
1, 52347, Note_on_c, 0, 54, 67
1, 52352, Control_c, 0, 64, 92
1, 52353, Note_on_c, 0, 42, 59
1, 52367, Control_c, 0, 64, 80
1, 52381, Control_c, 0, 64, 66
1, 52396, Control_c, 0, 64, 58
1, 52411, Control_c, 0, 64, 59
1, 52412, Note_off_c, 0, 42, 60
1, 52421, Note_on_c, 0, 72, 66
1, 52426, Control_c, 0, 64, 61
1, 52427, Note_on_c, 0, 68, 57
1, 52441, Control_c, 0, 64, 63
1, 52455, Note_off_c, 0, 54, 60
1, 52455, Control_c, 0, 64, 66
1, 52457, Note_on_c, 0, 64, 56
1, 52465, Note_off_c, 0, 68, 63
1, 52470, Control_c, 0, 64, 72
1, 52472, Note_off_c, 0, 72, 65
1, 52485, Control_c, 0, 64, 80
1, 52499, Note_off_c, 0, 64, 64
1, 52500, Control_c, 0, 64, 87
1, 52515, Control_c, 0, 64, 90
1, 52529, Control_c, 0, 64, 91
1, 52531, Note_on_c, 0, 60, 54
1, 52544, Control_c, 0, 64, 92
1, 52556, Note_off_c, 0, 60, 60
1, 52573, Control_c, 0, 64, 92
1, 52582, Note_on_c, 0, 56, 61
1, 52603, Control_c, 0, 64, 93
1, 52619, Note_off_c, 0, 56, 65
1, 52652, Note_on_c, 0, 76, 62
1, 52655, Note_on_c, 0, 72, 51
1, 52706, Note_on_c, 0, 68, 51
1, 52710, Note_off_c, 0, 76, 62
1, 52715, Note_off_c, 0, 72, 56
1, 52747, Note_off_c, 0, 68, 62
1, 52753, Control_c, 0, 64, 92
1, 52777, Note_on_c, 0, 64, 49
1, 52783, Control_c, 0, 64, 90
1, 52797, Control_c, 0, 64, 86
1, 52812, Control_c, 0, 64, 76
1, 52823, Note_on_c, 0, 52, 52
1, 52824, Note_on_c, 0, 40, 46
1, 52827, Control_c, 0, 64, 66
1, 52835, Note_off_c, 0, 64, 52
1, 52842, Control_c, 0, 64, 57
1, 52872, Control_c, 0, 64, 59
1, 52886, Control_c, 0, 64, 62
1, 52891, Note_off_c, 0, 40, 62
1, 52901, Control_c, 0, 64, 64
1, 52910, Note_on_c, 0, 70, 39
1, 52910, Note_on_c, 0, 74, 39
1, 52916, Control_c, 0, 64, 68
1, 52931, Control_c, 0, 64, 75
1, 52939, Note_off_c, 0, 52, 61
1, 52946, Control_c, 0, 64, 81
1, 52951, Note_off_c, 0, 74, 44
1, 52959, Note_off_c, 0, 70, 59
1, 52961, Control_c, 0, 64, 84
1, 52976, Control_c, 0, 64, 86
1, 52981, Note_on_c, 0, 66, 38
1, 52991, Control_c, 0, 64, 89
1, 53012, Control_c, 0, 64, 92
1, 53021, Note_off_c, 0, 66, 51
1, 53027, Control_c, 0, 64, 95
1, 53032, Note_on_c, 0, 62, 42
1, 53042, Control_c, 0, 64, 96
1, 53080, Note_off_c, 0, 62, 55
1, 53089, Note_on_c, 0, 58, 61
1, 53119, Note_off_c, 0, 58, 66
1, 53143, Note_on_c, 0, 74, 59
1, 53144, Note_on_c, 0, 70, 60
1, 53161, Control_c, 0, 64, 96
1, 53176, Control_c, 0, 64, 97
1, 53191, Control_c, 0, 64, 99
1, 53195, Note_off_c, 0, 74, 63
1, 53199, Note_on_c, 0, 66, 60
1, 53199, Note_off_c, 0, 70, 61
1, 53205, Control_c, 0, 64, 101
1, 53220, Control_c, 0, 64, 103
1, 53233, Note_on_c, 0, 62, 59
1, 53234, Note_off_c, 0, 66, 64
1, 53235, Control_c, 0, 64, 104
1, 53265, Control_c, 0, 64, 103
1, 53279, Control_c, 0, 64, 96
1, 53288, Note_on_c, 0, 42, 73
1, 53289, Note_on_c, 0, 54, 77
1, 53292, Note_off_c, 0, 62, 55
1, 53294, Control_c, 0, 64, 84
1, 53309, Control_c, 0, 64, 68
1, 53324, Control_c, 0, 64, 59
1, 53339, Control_c, 0, 64, 58
1, 53353, Control_c, 0, 64, 61
1, 53360, Note_off_c, 0, 42, 62
1, 53366, Note_on_c, 0, 68, 56
1, 53368, Control_c, 0, 64, 63
1, 53369, Note_on_c, 0, 72, 58
1, 53383, Control_c, 0, 64, 65
1, 53397, Control_c, 0, 64, 71
1, 53400, Note_on_c, 0, 64, 59
1, 53405, Note_off_c, 0, 54, 64
1, 53412, Control_c, 0, 64, 78
1, 53415, Note_off_c, 0, 68, 60
1, 53420, Note_off_c, 0, 72, 64
1, 53427, Control_c, 0, 64, 84
1, 53442, Control_c, 0, 64, 89
1, 53445, Note_off_c, 0, 64, 61
1, 53457, Control_c, 0, 64, 91
1, 53470, Note_on_c, 0, 60, 58
1, 53471, Control_c, 0, 64, 94
1, 53486, Control_c, 0, 64, 96
1, 53492, Note_off_c, 0, 60, 62
1, 53501, Control_c, 0, 64, 96
1, 53519, Note_on_c, 0, 56, 65
1, 53554, Note_off_c, 0, 56, 66
1, 53576, Control_c, 0, 64, 97
1, 53581, Note_on_c, 0, 76, 66
1, 53592, Note_on_c, 0, 72, 51
1, 53641, Note_on_c, 0, 68, 48
1, 53644, Note_off_c, 0, 76, 62
1, 53649, Note_off_c, 0, 72, 56
1, 53688, Note_off_c, 0, 68, 61
1, 53708, Note_on_c, 0, 64, 44
1, 53709, Control_c, 0, 64, 96
1, 53724, Control_c, 0, 64, 92
1, 53747, Control_c, 0, 64, 84
1, 53760, Note_on_c, 0, 52, 49
1, 53761, Note_off_c, 0, 64, 58
1, 53762, Control_c, 0, 64, 72
1, 53765, Note_on_c, 0, 40, 45
1, 53776, Control_c, 0, 64, 61
1, 53791, Control_c, 0, 64, 57
1, 53806, Control_c, 0, 64, 60
1, 53811, Note_off_c, 0, 40, 61
1, 53821, Control_c, 0, 64, 63
1, 53835, Control_c, 0, 64, 65
1, 53839, Note_on_c, 0, 74, 51
1, 53843, Note_on_c, 0, 70, 54
1, 53850, Control_c, 0, 64, 69
1, 53864, Note_off_c, 0, 52, 63
1, 53865, Control_c, 0, 64, 77
1, 53880, Control_c, 0, 64, 84
1, 53891, Note_off_c, 0, 74, 55
1, 53895, Control_c, 0, 64, 87
1, 53897, Note_off_c, 0, 70, 55
1, 53909, Control_c, 0, 64, 88
1, 53910, Note_on_c, 0, 66, 43
1, 53924, Control_c, 0, 64, 88
1, 53939, Note_off_c, 0, 66, 56
1, 53954, Control_c, 0, 64, 89
1, 53962, Note_on_c, 0, 62, 43
1, 53983, Control_c, 0, 64, 89
1, 54005, Note_off_c, 0, 62, 59
1, 54010, Note_on_c, 0, 58, 58
1, 54037, Note_off_c, 0, 58, 63
1, 54043, Control_c, 0, 64, 90
1, 54058, Control_c, 0, 64, 91
1, 54065, Note_on_c, 0, 74, 69
1, 54069, Note_on_c, 0, 70, 60
1, 54073, Control_c, 0, 64, 93
1, 54088, Control_c, 0, 64, 96
1, 54102, Control_c, 0, 64, 101
1, 54116, Control_c, 0, 64, 107
1, 54118, Note_on_c, 0, 66, 63
1, 54121, Note_off_c, 0, 74, 65
1, 54126, Note_off_c, 0, 70, 62
1, 54131, Control_c, 0, 64, 110
1, 54160, Control_c, 0, 64, 105
1, 54161, Note_off_c, 0, 66, 59
1, 54162, Note_on_c, 0, 62, 61
1, 54175, Control_c, 0, 64, 91
1, 54190, Control_c, 0, 64, 73
1, 54198, Note_off_c, 0, 62, 59
1, 54205, Control_c, 0, 64, 60
1, 54219, Control_c, 0, 64, 53
1, 54220, Note_on_c, 0, 54, 77
1, 54225, Note_on_c, 0, 42, 62
1, 54234, Control_c, 0, 64, 59
1, 54249, Control_c, 0, 64, 62
1, 54260, Note_off_c, 0, 42, 64
1, 54264, Control_c, 0, 64, 65
1, 54279, Note_on_c, 0, 68, 62
1, 54279, Note_off_c, 0, 54, 65
1, 54279, Control_c, 0, 64, 70
1, 54281, Note_on_c, 0, 72, 68
1, 54293, Control_c, 0, 64, 79
1, 54308, Control_c, 0, 64, 89
1, 54311, Note_off_c, 0, 72, 67
1, 54314, Note_on_c, 0, 64, 66
1, 54320, Note_off_c, 0, 68, 62
1, 54323, Control_c, 0, 64, 96
1, 54339, Control_c, 0, 64, 98
1, 54354, Control_c, 0, 64, 98
1, 54355, Note_off_c, 0, 64, 62
1, 54369, Control_c, 0, 64, 100
1, 54376, Note_on_c, 0, 60, 49
1, 54384, Control_c, 0, 64, 102
1, 54398, Control_c, 0, 64, 104
1, 54402, Note_off_c, 0, 60, 57
1, 54413, Control_c, 0, 64, 106
1, 54428, Control_c, 0, 64, 107
1, 54443, Control_c, 0, 64, 107
1, 54450, Note_on_c, 0, 66, 91
1, 54457, Control_c, 0, 64, 108
1, 54472, Control_c, 0, 64, 109
1, 54482, Note_off_c, 0, 66, 59
1, 54495, Control_c, 0, 64, 110
1, 54497, Note_on_c, 0, 80, 75
1, 54509, Note_on_c, 0, 75, 56
1, 54510, Control_c, 0, 64, 113
1, 54524, Control_c, 0, 64, 120
1, 54539, Control_c, 0, 64, 127
1, 54545, Note_on_c, 0, 76, 57
1, 54573, Note_off_c, 0, 75, 45
1, 54579, Note_off_c, 0, 76, 65
1, 54579, Note_off_c, 0, 80, 63
1, 54581, Note_on_c, 0, 72, 66
1, 54609, Note_off_c, 0, 72, 66
1, 54633, Note_on_c, 0, 68, 57
1, 54656, Note_off_c, 0, 68, 61
1, 54672, Note_on_c, 0, 64, 85
1, 54714, Note_on_c, 0, 72, 54
1, 54726, Note_off_c, 0, 64, 63
1, 54732, Note_on_c, 0, 76, 77
1, 54776, Note_on_c, 0, 68, 66
1, 54783, Note_off_c, 0, 76, 64
1, 54788, Note_off_c, 0, 72, 64
1, 54817, Note_off_c, 0, 68, 59
1, 54837, Note_on_c, 0, 64, 63
1, 54865, Control_c, 0, 64, 125
1, 54868, Note_off_c, 0, 64, 65
1, 54880, Control_c, 0, 64, 95
1, 54895, Control_c, 0, 64, 71
1, 54899, Note_on_c, 0, 62, 64
1, 54910, Control_c, 0, 64, 59
1, 54924, Control_c, 0, 64, 60
1, 54939, Control_c, 0, 64, 63
1, 54944, Note_on_c, 0, 78, 61
1, 54946, Note_on_c, 0, 74, 55
1, 54954, Note_off_c, 0, 62, 61
1, 54954, Control_c, 0, 64, 67
1, 54968, Control_c, 0, 64, 72
1, 54983, Control_c, 0, 64, 85
1, 54996, Note_off_c, 0, 74, 57
1, 54997, Note_on_c, 0, 70, 58
1, 54998, Control_c, 0, 64, 99
1, 55006, Note_off_c, 0, 78, 59
1, 55013, Control_c, 0, 64, 110
1, 55028, Control_c, 0, 64, 112
1, 55036, Note_off_c, 0, 70, 63
1, 55042, Control_c, 0, 64, 111
1, 55046, Note_on_c, 0, 66, 61
1, 55057, Control_c, 0, 64, 107
1, 55072, Control_c, 0, 64, 95
1, 55077, Note_off_c, 0, 66, 65
1, 55087, Control_c, 0, 64, 80
1, 55102, Control_c, 0, 64, 67
1, 55116, Control_c, 0, 64, 62
1, 55121, Note_on_c, 0, 60, 56
1, 55131, Control_c, 0, 64, 64
1, 55147, Control_c, 0, 64, 66
1, 55158, Note_off_c, 0, 60, 65
1, 55161, Note_on_c, 0, 74, 57
1, 55162, Control_c, 0, 64, 69
1, 55165, Note_on_c, 0, 70, 52
1, 55177, Control_c, 0, 64, 72
1, 55191, Control_c, 0, 64, 77
1, 55206, Control_c, 0, 64, 81
1, 55221, Control_c, 0, 64, 83
1, 55226, Note_off_c, 0, 70, 56
1, 55229, Note_off_c, 0, 74, 61
1, 55232, Note_on_c, 0, 66, 49
1, 55244, Control_c, 0, 64, 83
1, 55273, Control_c, 0, 64, 83
1, 55277, Note_off_c, 0, 66, 64
1, 55288, Control_c, 0, 64, 80
1, 55295, Note_on_c, 0, 62, 48
1, 55303, Control_c, 0, 64, 74
1, 55318, Control_c, 0, 64, 67
1, 55331, Note_off_c, 0, 62, 62
1, 55333, Control_c, 0, 64, 64
1, 55347, Control_c, 0, 64, 66
1, 55352, Note_on_c, 0, 58, 53
1, 55362, Control_c, 0, 64, 68
1, 55377, Control_c, 0, 64, 72
1, 55391, Control_c, 0, 64, 77
1, 55395, Note_off_c, 0, 58, 64
1, 55406, Control_c, 0, 64, 82
1, 55414, Note_on_c, 0, 72, 50
1, 55414, Note_on_c, 0, 76, 54
1, 55421, Control_c, 0, 64, 87
1, 55436, Control_c, 0, 64, 89
1, 55451, Control_c, 0, 64, 90
1, 55465, Note_on_c, 0, 68, 48
1, 55474, Note_off_c, 0, 76, 54
1, 55483, Note_off_c, 0, 72, 61
1, 55508, Note_off_c, 0, 68, 62
1, 55534, Note_on_c, 0, 64, 46
1, 55539, Control_c, 0, 64, 89
1, 55554, Control_c, 0, 64, 86
1, 55569, Control_c, 0, 64, 81
1, 55571, Note_off_c, 0, 64, 56
1, 55584, Control_c, 0, 64, 72
1, 55599, Control_c, 0, 64, 64
1, 55614, Note_on_c, 0, 43, 42
1, 55614, Control_c, 0, 64, 57
1, 55617, Note_on_c, 0, 55, 36
1, 55629, Control_c, 0, 64, 57
1, 55644, Control_c, 0, 64, 59
1, 55659, Control_c, 0, 64, 62
1, 55673, Control_c, 0, 64, 65
1, 55678, Note_on_c, 0, 77, 52
1, 55680, Note_off_c, 0, 43, 63
1, 55688, Note_on_c, 0, 73, 47
1, 55688, Control_c, 0, 64, 70
1, 55703, Control_c, 0, 64, 76
1, 55718, Control_c, 0, 64, 81
1, 55724, Note_off_c, 0, 55, 60
1, 55733, Control_c, 0, 64, 83
1, 55740, Note_off_c, 0, 73, 57
1, 55740, Note_off_c, 0, 77, 60
1, 55742, Note_on_c, 0, 69, 45
1, 55747, Control_c, 0, 64, 84
1, 55762, Control_c, 0, 64, 84
1, 55777, Control_c, 0, 64, 85
1, 55791, Control_c, 0, 64, 87
1, 55796, Note_off_c, 0, 69, 61
1, 55806, Control_c, 0, 64, 88
1, 55815, Note_on_c, 0, 65, 41
1, 55821, Control_c, 0, 64, 89
1, 55836, Control_c, 0, 64, 90
1, 55850, Note_off_c, 0, 65, 52
1, 55861, Note_on_c, 0, 61, 60
1, 55894, Note_off_c, 0, 61, 65
1, 55902, Note_on_c, 0, 77, 58
1, 55911, Note_on_c, 0, 73, 55
1, 55924, Control_c, 0, 64, 90
1, 55941, Control_c, 0, 64, 91
1, 55943, Note_off_c, 0, 77, 64
1, 55947, Note_on_c, 0, 69, 62
1, 55956, Control_c, 0, 64, 91
1, 55957, Note_off_c, 0, 73, 64
1, 55970, Control_c, 0, 64, 92
1, 55982, Note_off_c, 0, 69, 62
1, 55985, Control_c, 0, 64, 93
1, 56005, Note_on_c, 0, 65, 58
1, 56007, Control_c, 0, 64, 95
1, 56022, Control_c, 0, 64, 95
1, 56037, Control_c, 0, 64, 94
1, 56040, Note_off_c, 0, 65, 64
1, 56052, Control_c, 0, 64, 89
1, 56061, Note_on_c, 0, 57, 73
1, 56067, Control_c, 0, 64, 76
1, 56068, Note_on_c, 0, 45, 63
1, 56082, Control_c, 0, 64, 64
1, 56096, Control_c, 0, 64, 54
1, 56111, Control_c, 0, 64, 57
1, 56115, Note_on_c, 0, 75, 63
1, 56115, Note_on_c, 0, 71, 60
1, 56126, Control_c, 0, 64, 60
1, 56133, Note_off_c, 0, 45, 63
1, 56141, Control_c, 0, 64, 63
1, 56156, Control_c, 0, 64, 67
1, 56157, Note_off_c, 0, 71, 63
1, 56165, Note_on_c, 0, 67, 50
1, 56168, Note_off_c, 0, 75, 63
1, 56170, Control_c, 0, 64, 74
1, 56185, Control_c, 0, 64, 83
1, 56194, Note_off_c, 0, 57, 61
1, 56199, Note_off_c, 0, 67, 65
1, 56200, Control_c, 0, 64, 87
1, 56204, Note_on_c, 0, 63, 68
1, 56214, Control_c, 0, 64, 87
1, 56232, Note_off_c, 0, 63, 67
1, 56283, Note_on_c, 0, 59, 67
1, 56303, Control_c, 0, 64, 87
1, 56312, Note_off_c, 0, 59, 66
1, 56320, Note_on_c, 0, 75, 51
1, 56325, Note_on_c, 0, 79, 69
1, 56394, Note_on_c, 0, 71, 60
1, 56394, Note_off_c, 0, 79, 63
1, 56401, Note_off_c, 0, 75, 62
1, 56431, Note_off_c, 0, 71, 65
1, 56464, Note_on_c, 0, 67, 49
1, 56467, Control_c, 0, 64, 83
1, 56482, Control_c, 0, 64, 75
1, 56496, Control_c, 0, 64, 64
1, 56501, Note_on_c, 0, 43, 46
1, 56503, Note_on_c, 0, 55, 50
1, 56506, Note_off_c, 0, 67, 59
1, 56511, Control_c, 0, 64, 52
1, 56526, Control_c, 0, 64, 48
1, 56541, Control_c, 0, 64, 51
1, 56556, Control_c, 0, 64, 55
1, 56565, Note_off_c, 0, 43, 63
1, 56571, Control_c, 0, 64, 61
1, 56574, Note_on_c, 0, 73, 49
1, 56576, Note_on_c, 0, 77, 52
1, 56586, Control_c, 0, 64, 65
1, 56601, Control_c, 0, 64, 69
1, 56615, Note_off_c, 0, 55, 61
1, 56615, Control_c, 0, 64, 73
1, 56625, Note_on_c, 0, 69, 57
1, 56630, Control_c, 0, 64, 77
1, 56631, Note_off_c, 0, 77, 57
1, 56637, Note_off_c, 0, 73, 54
1, 56645, Control_c, 0, 64, 80
1, 56660, Control_c, 0, 64, 82
1, 56672, Note_off_c, 0, 69, 60
1, 56675, Control_c, 0, 64, 84
1, 56689, Control_c, 0, 64, 86
1, 56704, Control_c, 0, 64, 88
1, 56705, Note_on_c, 0, 65, 44
1, 56719, Control_c, 0, 64, 90
1, 56734, Control_c, 0, 64, 91
1, 56753, Note_off_c, 0, 65, 55
1, 56757, Control_c, 0, 64, 91
1, 56768, Note_on_c, 0, 61, 52
1, 56790, Note_off_c, 0, 61, 58
1, 56796, Note_on_c, 0, 73, 59
1, 56802, Note_on_c, 0, 77, 63
1, 56831, Control_c, 0, 64, 92
1, 56845, Control_c, 0, 64, 92
1, 56854, Note_on_c, 0, 69, 72
1, 56858, Note_off_c, 0, 77, 64
1, 56860, Control_c, 0, 64, 94
1, 56875, Control_c, 0, 64, 97
1, 56877, Note_off_c, 0, 73, 64
1, 56890, Control_c, 0, 64, 101
1, 56905, Control_c, 0, 64, 104
1, 56909, Note_off_c, 0, 69, 62
1, 56911, Note_on_c, 0, 65, 64
1, 56920, Control_c, 0, 64, 105
1, 56935, Control_c, 0, 64, 102
1, 56945, Note_off_c, 0, 65, 65
1, 56949, Control_c, 0, 64, 91
1, 56960, Note_on_c, 0, 57, 74
1, 56964, Note_on_c, 0, 45, 66
1, 56964, Control_c, 0, 64, 75
1, 56979, Control_c, 0, 64, 62
1, 56994, Control_c, 0, 64, 54
1, 57009, Control_c, 0, 64, 58
1, 57012, Note_on_c, 0, 71, 68
1, 57012, Note_on_c, 0, 75, 63
1, 57024, Control_c, 0, 64, 61
1, 57029, Note_off_c, 0, 45, 64
1, 57038, Control_c, 0, 64, 64
1, 57053, Control_c, 0, 64, 68
1, 57066, Note_on_c, 0, 67, 59
1, 57067, Note_off_c, 0, 75, 63
1, 57068, Note_off_c, 0, 71, 60
1, 57068, Control_c, 0, 64, 74
1, 57083, Control_c, 0, 64, 82
1, 57098, Control_c, 0, 64, 86
1, 57099, Note_off_c, 0, 57, 61
1, 57101, Note_off_c, 0, 67, 66
1, 57106, Note_on_c, 0, 63, 68
1, 57112, Control_c, 0, 64, 87
1, 57134, Note_off_c, 0, 63, 67
1, 57157, Control_c, 0, 64, 87
1, 57185, Note_on_c, 0, 59, 74
1, 57212, Note_off_c, 0, 59, 68
1, 57218, Note_on_c, 0, 79, 72
1, 57224, Note_on_c, 0, 75, 59
1, 57283, Note_on_c, 0, 71, 68
1, 57294, Note_off_c, 0, 79, 65
1, 57304, Note_off_c, 0, 75, 62
1, 57305, Control_c, 0, 64, 88
1, 57319, Control_c, 0, 64, 89
1, 57334, Control_c, 0, 64, 92
1, 57338, Note_off_c, 0, 71, 63
1, 57349, Note_on_c, 0, 67, 64
1, 57349, Control_c, 0, 64, 94
1, 57364, Control_c, 0, 64, 94
1, 57379, Control_c, 0, 64, 87
1, 57394, Control_c, 0, 64, 70
1, 57399, Note_on_c, 0, 55, 69
1, 57400, Note_on_c, 0, 43, 59
1, 57402, Note_off_c, 0, 67, 55
1, 57409, Control_c, 0, 64, 58
1, 57423, Control_c, 0, 64, 50
1, 57438, Control_c, 0, 64, 55
1, 57453, Control_c, 0, 64, 59
1, 57453, Note_off_c, 0, 43, 62
1, 57460, Note_on_c, 0, 77, 60
1, 57464, Note_on_c, 0, 73, 59
1, 57468, Control_c, 0, 64, 63
1, 57490, Control_c, 0, 64, 67
1, 57505, Control_c, 0, 64, 73
1, 57506, Note_off_c, 0, 55, 62
1, 57519, Control_c, 0, 64, 79
1, 57522, Note_on_c, 0, 69, 62
1, 57531, Note_off_c, 0, 77, 63
1, 57534, Control_c, 0, 64, 83
1, 57545, Note_off_c, 0, 73, 62
1, 57578, Note_off_c, 0, 69, 62
1, 57581, Note_on_c, 0, 65, 60
1, 57595, Control_c, 0, 64, 83
1, 57610, Control_c, 0, 64, 84
1, 57627, Note_off_c, 0, 65, 58
1, 57628, Note_on_c, 0, 61, 71
1, 57639, Control_c, 0, 64, 84
1, 57654, Note_off_c, 0, 61, 67
1, 57666, Note_on_c, 0, 73, 73
1, 57667, Note_on_c, 0, 77, 73
1, 57668, Control_c, 0, 64, 85
1, 57683, Control_c, 0, 64, 86
1, 57698, Control_c, 0, 64, 88
1, 57701, Note_on_c, 0, 68, 68
1, 57713, Control_c, 0, 64, 92
1, 57722, Note_off_c, 0, 77, 65
1, 57728, Control_c, 0, 64, 98
1, 57735, Note_off_c, 0, 73, 64
1, 57737, Note_on_c, 0, 69, 62
1, 57741, Note_off_c, 0, 68, 55
1, 57742, Control_c, 0, 64, 106
1, 57757, Control_c, 0, 64, 122
1, 57766, Note_on_c, 0, 65, 71
1, 57772, Control_c, 0, 64, 119
1, 57773, Note_off_c, 0, 69, 64
1, 57787, Control_c, 0, 64, 92
1, 57802, Control_c, 0, 64, 70
1, 57811, Note_off_c, 0, 65, 57
1, 57817, Control_c, 0, 64, 53
1, 57828, Note_on_c, 0, 57, 92
1, 57832, Note_on_c, 0, 45, 76
1, 57832, Control_c, 0, 64, 52
1, 57847, Control_c, 0, 64, 58
1, 57858, Note_on_c, 0, 71, 57
1, 57861, Note_on_c, 0, 75, 63
1, 57861, Note_off_c, 0, 45, 65
1, 57861, Control_c, 0, 64, 63
1, 57875, Control_c, 0, 64, 68
1, 57886, Note_off_c, 0, 57, 66
1, 57890, Control_c, 0, 64, 77
1, 57905, Control_c, 0, 64, 94
1, 57913, Note_off_c, 0, 75, 63
1, 57914, Note_on_c, 0, 67, 73
1, 57916, Note_off_c, 0, 71, 63
1, 57920, Control_c, 0, 64, 127
1, 57942, Note_on_c, 0, 63, 73
1, 57944, Note_off_c, 0, 67, 66
1, 57967, Note_off_c, 0, 63, 67
1, 58056, Note_on_c, 0, 69, 100
1, 58086, Note_off_c, 0, 69, 66
1, 58100, Note_on_c, 0, 83, 83
1, 58106, Note_on_c, 0, 79, 70
1, 58154, Note_on_c, 0, 75, 78
1, 58175, Note_off_c, 0, 83, 64
1, 58181, Note_off_c, 0, 79, 64
1, 58209, Note_on_c, 0, 71, 73
1, 58215, Note_off_c, 0, 75, 62
1, 58257, Note_off_c, 0, 71, 56
1, 58273, Note_on_c, 0, 67, 89
1, 58324, Note_on_c, 0, 79, 71
1, 58331, Note_off_c, 0, 67, 64
1, 58332, Note_on_c, 0, 75, 70
1, 58367, Note_on_c, 0, 71, 75
1, 58397, Note_off_c, 0, 79, 63
1, 58404, Note_off_c, 0, 75, 62
1, 58434, Note_off_c, 0, 71, 62
1, 58437, Note_on_c, 0, 67, 71
1, 58476, Control_c, 0, 64, 116
1, 58487, Note_off_c, 0, 67, 57
1, 58491, Note_on_c, 0, 65, 88
1, 58491, Control_c, 0, 64, 79
1, 58505, Control_c, 0, 64, 63
1, 58520, Control_c, 0, 64, 58
1, 58535, Control_c, 0, 64, 63
1, 58538, Note_on_c, 0, 77, 74
1, 58541, Note_on_c, 0, 81, 77
1, 58550, Control_c, 0, 64, 65
1, 58565, Control_c, 0, 64, 70
1, 58580, Control_c, 0, 64, 78
1, 58580, Note_off_c, 0, 65, 59
1, 58585, Note_on_c, 0, 73, 73
1, 58595, Control_c, 0, 64, 92
1, 58608, Note_off_c, 0, 81, 64
1, 58609, Control_c, 0, 64, 107
1, 58616, Note_off_c, 0, 77, 63
1, 58623, Control_c, 0, 64, 109
1, 58648, Note_on_c, 0, 69, 68
1, 58649, Note_off_c, 0, 73, 64
1, 58668, Control_c, 0, 64, 107
1, 58683, Control_c, 0, 64, 96
1, 58690, Note_off_c, 0, 69, 53
1, 58697, Control_c, 0, 64, 78
1, 58709, Note_on_c, 0, 63, 73
1, 58712, Control_c, 0, 64, 66
1, 58727, Control_c, 0, 64, 62
1, 58742, Control_c, 0, 64, 65
1, 58756, Note_on_c, 0, 77, 55
1, 58757, Control_c, 0, 64, 68
1, 58759, Note_on_c, 0, 73, 62
1, 58771, Control_c, 0, 64, 73
1, 58786, Control_c, 0, 64, 80
1, 58791, Note_off_c, 0, 63, 57
1, 58801, Control_c, 0, 64, 88
1, 58813, Note_on_c, 0, 69, 56
1, 58816, Control_c, 0, 64, 93
1, 58826, Note_off_c, 0, 77, 58
1, 58830, Control_c, 0, 64, 96
1, 58833, Note_off_c, 0, 73, 62
1, 58845, Control_c, 0, 64, 98
1, 58857, Note_off_c, 0, 69, 62
1, 58860, Control_c, 0, 64, 99
1, 58875, Control_c, 0, 64, 100
1, 58879, Note_on_c, 0, 65, 59
1, 58890, Control_c, 0, 64, 101
1, 58905, Control_c, 0, 64, 96
1, 58920, Control_c, 0, 64, 83
1, 58920, Note_off_c, 0, 65, 61
1, 58935, Control_c, 0, 64, 68
1, 58941, Note_on_c, 0, 61, 51
1, 58950, Control_c, 0, 64, 56
1, 58964, Control_c, 0, 64, 54
1, 58979, Control_c, 0, 64, 58
1, 59001, Control_c, 0, 64, 62
1, 59015, Note_on_c, 0, 79, 56
1, 59015, Control_c, 0, 64, 66
1, 59030, Note_on_c, 0, 75, 47
1, 59030, Control_c, 0, 64, 71
1, 59045, Control_c, 0, 64, 79
1, 59054, Note_off_c, 0, 61, 61
1, 59060, Control_c, 0, 64, 85
1, 59075, Control_c, 0, 64, 87
1, 59088, Note_on_c, 0, 71, 47
1, 59104, Note_off_c, 0, 75, 44
1, 59107, Note_off_c, 0, 79, 51
1, 59120, Control_c, 0, 64, 87
1, 59135, Control_c, 0, 64, 88
1, 59150, Control_c, 0, 64, 88
1, 59170, Note_off_c, 0, 71, 64
1, 59180, Control_c, 0, 64, 89
1, 59185, Note_on_c, 0, 67, 37
1, 59194, Control_c, 0, 64, 89
1, 59209, Control_c, 0, 64, 90
1, 59215, Note_off_c, 0, 67, 50
1, 59278, Note_on_c, 0, 68, 52
1, 59278, Note_on_c, 0, 66, 52
1, 59298, Control_c, 0, 64, 88
1, 59313, Control_c, 0, 64, 83
1, 59328, Control_c, 0, 64, 73
1, 59343, Control_c, 0, 64, 63
1, 59358, Control_c, 0, 64, 52
1, 59387, Control_c, 0, 64, 54
1, 59402, Control_c, 0, 64, 57
1, 59417, Control_c, 0, 64, 61
1, 59429, Note_on_c, 0, 82, 46
1, 59431, Note_on_c, 0, 78, 44
1, 59432, Control_c, 0, 64, 65
1, 59446, Control_c, 0, 64, 69
1, 59461, Control_c, 0, 64, 74
1, 59476, Control_c, 0, 64, 78
1, 59477, Note_off_c, 0, 82, 60
1, 59487, Note_off_c, 0, 78, 59
1, 59491, Control_c, 0, 64, 81
1, 59506, Control_c, 0, 64, 83
1, 59510, Note_off_c, 0, 66, 31
1, 59520, Note_on_c, 0, 74, 42
1, 59520, Control_c, 0, 64, 86
1, 59535, Control_c, 0, 64, 90
1, 59540, Note_off_c, 0, 68, 31
1, 59550, Control_c, 0, 64, 93
1, 59557, Note_off_c, 0, 74, 54
1, 59565, Control_c, 0, 64, 95
1, 59580, Control_c, 0, 64, 96
1, 59581, Note_on_c, 0, 65, 44
1, 59582, Note_on_c, 0, 69, 52
1, 59594, Control_c, 0, 64, 99
1, 59609, Control_c, 0, 64, 101
1, 59624, Control_c, 0, 64, 102
1, 59638, Control_c, 0, 64, 103
1, 59653, Control_c, 0, 64, 104
1, 59656, Note_on_c, 0, 79, 40
1, 59656, Note_on_c, 0, 83, 46
1, 59668, Control_c, 0, 64, 106
1, 59683, Control_c, 0, 64, 110
1, 59685, Note_off_c, 0, 69, 57
1, 59690, Note_off_c, 0, 65, 37
1, 59698, Control_c, 0, 64, 114
1, 59701, Note_off_c, 0, 79, 61
1, 59713, Control_c, 0, 64, 117
1, 59716, Note_off_c, 0, 83, 55
1, 59728, Control_c, 0, 64, 122
1, 59744, Note_on_c, 0, 75, 51
1, 59750, Control_c, 0, 64, 127
1, 59783, Note_off_c, 0, 75, 58
1, 59817, Note_on_c, 0, 70, 53
1, 59823, Note_on_c, 0, 64, 48
1, 59854, Note_off_c, 0, 70, 66
1, 59864, Note_on_c, 0, 84, 60
1, 59877, Note_on_c, 0, 80, 53
1, 59910, Note_off_c, 0, 84, 60
1, 59913, Note_off_c, 0, 80, 65
1, 59949, Note_on_c, 0, 76, 50
1, 59978, Note_off_c, 0, 64, 29
1, 59985, Note_off_c, 0, 76, 60
1, 59994, Note_on_c, 0, 71, 61
1, 59996, Note_on_c, 0, 63, 60
1, 60042, Note_off_c, 0, 71, 58
1, 60051, Note_on_c, 0, 81, 55
1, 60054, Note_on_c, 0, 85, 63
1, 60065, Note_off_c, 0, 63, 48
1, 60106, Note_off_c, 0, 85, 57
1, 60122, Note_off_c, 0, 81, 60
1, 60136, Note_on_c, 0, 77, 59
1, 60136, Control_c, 0, 64, 122
1, 60151, Control_c, 0, 64, 111
1, 60166, Control_c, 0, 64, 96
1, 60169, Note_on_c, 0, 72, 59
1, 60178, Note_off_c, 0, 77, 63
1, 60179, Note_on_c, 0, 62, 49
1, 60181, Control_c, 0, 64, 78
1, 60196, Control_c, 0, 64, 64
1, 60210, Control_c, 0, 64, 59
1, 60225, Control_c, 0, 64, 62
1, 60238, Note_off_c, 0, 72, 57
1, 60240, Control_c, 0, 64, 63
1, 60246, Note_on_c, 0, 84, 40
1, 60248, Note_on_c, 0, 88, 59
1, 60255, Control_c, 0, 64, 65
1, 60269, Control_c, 0, 64, 70
1, 60284, Control_c, 0, 64, 78
1, 60299, Note_off_c, 0, 88, 66
1, 60299, Control_c, 0, 64, 87
1, 60301, Note_off_c, 0, 84, 61
1, 60314, Control_c, 0, 64, 93
1, 60329, Control_c, 0, 64, 95
1, 60342, Note_on_c, 0, 80, 54
1, 60343, Control_c, 0, 64, 96
1, 60354, Note_off_c, 0, 62, 33
1, 60358, Control_c, 0, 64, 96
1, 60373, Control_c, 0, 64, 97
1, 60387, Control_c, 0, 64, 98
1, 60395, Note_on_c, 0, 63, 49
1, 60397, Note_off_c, 0, 80, 44
1, 60402, Control_c, 0, 64, 99
1, 60405, Note_on_c, 0, 71, 54
1, 60417, Control_c, 0, 64, 101
1, 60432, Control_c, 0, 64, 104
1, 60446, Note_off_c, 0, 63, 57
1, 60447, Control_c, 0, 64, 105
1, 60451, Note_on_c, 0, 87, 49
1, 60467, Note_off_c, 0, 71, 53
1, 60514, Note_off_c, 0, 87, 53
1, 60531, Note_on_c, 0, 79, 45
1, 60584, Note_off_c, 0, 79, 50
1, 60604, Note_on_c, 0, 70, 54
1, 60609, Note_on_c, 0, 64, 45
1, 60613, Note_on_c, 0, 84, 58
1, 60618, Note_on_c, 0, 80, 54
1, 60647, Control_c, 0, 64, 105
1, 60649, Note_off_c, 0, 70, 58
1, 60659, Note_off_c, 0, 84, 59
1, 60676, Note_off_c, 0, 64, 47
1, 60676, Control_c, 0, 64, 106
1, 60677, Note_off_c, 0, 80, 54
1, 60691, Control_c, 0, 64, 107
1, 60706, Control_c, 0, 64, 107
1, 60721, Control_c, 0, 64, 108
1, 60729, Note_on_c, 0, 76, 45
1, 60737, Control_c, 0, 64, 108
1, 60752, Control_c, 0, 64, 109
1, 60760, Note_off_c, 0, 76, 53
1, 60766, Control_c, 0, 64, 110
1, 60771, Note_on_c, 0, 69, 61
1, 60779, Note_on_c, 0, 65, 50
1, 60781, Control_c, 0, 64, 111
1, 60796, Control_c, 0, 64, 113
1, 60811, Control_c, 0, 64, 117
1, 60821, Note_off_c, 0, 65, 62
1, 60826, Control_c, 0, 64, 127
1, 60829, Note_on_c, 0, 85, 55
1, 60830, Note_on_c, 0, 81, 46
1, 60862, Note_off_c, 0, 81, 64
1, 60863, Note_off_c, 0, 85, 67
1, 60903, Note_on_c, 0, 77, 52
1, 60905, Note_off_c, 0, 69, 34
1, 60927, Note_off_c, 0, 77, 63
1, 60954, Note_on_c, 0, 68, 53
1, 60958, Note_on_c, 0, 70, 54
1, 60974, Control_c, 0, 64, 89
1, 60989, Control_c, 0, 64, 68
1, 61003, Control_c, 0, 64, 57
1, 61018, Note_on_c, 0, 78, 46
1, 61022, Note_on_c, 0, 82, 49
1, 61033, Control_c, 0, 64, 61
1, 61046, Note_off_c, 0, 82, 61
1, 61048, Note_off_c, 0, 78, 59
1, 61048, Control_c, 0, 64, 64
1, 61058, Note_off_c, 0, 70, 53
1, 61063, Control_c, 0, 64, 67
1, 61068, Note_off_c, 0, 68, 53
1, 61078, Control_c, 0, 64, 72
1, 61081, Note_on_c, 0, 74, 58
1, 61093, Control_c, 0, 64, 80
1, 61108, Control_c, 0, 64, 87
1, 61114, Note_off_c, 0, 74, 66
1, 61123, Control_c, 0, 64, 90
1, 61144, Note_on_c, 0, 67, 55
1, 61149, Note_on_c, 0, 71, 63
1, 61153, Control_c, 0, 64, 90
1, 61167, Control_c, 0, 64, 91
1, 61170, Note_on_c, 0, 83, 65
1, 61181, Note_on_c, 0, 79, 51
1, 61182, Control_c, 0, 64, 92
1, 61191, Note_off_c, 0, 71, 58
1, 61197, Control_c, 0, 64, 93
1, 61203, Note_off_c, 0, 83, 64
1, 61212, Control_c, 0, 64, 96
1, 61221, Note_off_c, 0, 79, 65
1, 61224, Note_off_c, 0, 67, 48
1, 61227, Control_c, 0, 64, 98
1, 61249, Note_on_c, 0, 75, 67
1, 61249, Control_c, 0, 64, 100
1, 61264, Control_c, 0, 64, 101
1, 61282, Note_off_c, 0, 75, 63
1, 61299, Note_on_c, 0, 66, 61
1, 61308, Note_on_c, 0, 72, 70
1, 61343, Note_on_c, 0, 84, 70
1, 61349, Note_on_c, 0, 80, 66
1, 61352, Note_off_c, 0, 72, 62
1, 61374, Note_off_c, 0, 84, 65
1, 61379, Note_off_c, 0, 80, 68
1, 61400, Note_off_c, 0, 66, 53
1, 61414, Note_on_c, 0, 76, 68
1, 61427, Control_c, 0, 64, 101
1, 61442, Control_c, 0, 64, 102
1, 61447, Note_off_c, 0, 76, 62
1, 61457, Note_on_c, 0, 65, 75
1, 61457, Note_on_c, 0, 73, 87
1, 61457, Control_c, 0, 64, 103
1, 61471, Control_c, 0, 64, 106
1, 61486, Control_c, 0, 64, 109
1, 61501, Control_c, 0, 64, 112
1, 61501, Note_on_c, 0, 81, 66
1, 61503, Note_on_c, 0, 85, 78
1, 61516, Control_c, 0, 64, 115
1, 61520, Note_off_c, 0, 73, 58
1, 61531, Control_c, 0, 64, 120
1, 61531, Note_off_c, 0, 65, 56
1, 61546, Control_c, 0, 64, 127
1, 61555, Note_off_c, 0, 85, 64
1, 61570, Note_off_c, 0, 81, 61
1, 61570, Note_on_c, 0, 77, 77
1, 61606, Control_c, 0, 64, 106
1, 61618, Note_on_c, 0, 74, 85
1, 61621, Control_c, 0, 64, 82
1, 61623, Note_on_c, 0, 64, 80
1, 61632, Note_off_c, 0, 77, 62
1, 61635, Control_c, 0, 64, 65
1, 61650, Control_c, 0, 64, 56
1, 61657, Note_on_c, 0, 84, 64
1, 61665, Control_c, 0, 64, 59
1, 61665, Note_on_c, 0, 88, 83
1, 61680, Control_c, 0, 64, 62
1, 61695, Control_c, 0, 64, 66
1, 61696, Note_off_c, 0, 74, 63
1, 61709, Control_c, 0, 64, 72
1, 61724, Control_c, 0, 64, 83
1, 61729, Note_off_c, 0, 88, 66
1, 61734, Note_off_c, 0, 84, 64
1, 61739, Control_c, 0, 64, 101
1, 61740, Note_off_c, 0, 64, 62
1, 61750, Note_on_c, 0, 80, 75
1, 61754, Control_c, 0, 64, 127
1, 61802, Note_on_c, 0, 73, 80
1, 61810, Note_on_c, 0, 65, 69
1, 61811, Note_off_c, 0, 80, 52
1, 61843, Note_on_c, 0, 87, 69
1, 61865, Note_off_c, 0, 73, 59
1, 61866, Note_on_c, 0, 83, 48
1, 61868, Note_off_c, 0, 65, 56
1, 61901, Note_off_c, 0, 83, 58
1, 61915, Note_off_c, 0, 87, 57
1, 61919, Note_on_c, 0, 79, 62
1, 61956, Note_off_c, 0, 79, 63
1, 61974, Note_on_c, 0, 66, 58
1, 61984, Note_on_c, 0, 72, 68
1, 62005, Note_on_c, 0, 80, 65
1, 62013, Note_on_c, 0, 84, 65
1, 62033, Note_off_c, 0, 72, 60
1, 62046, Note_off_c, 0, 66, 54
1, 62050, Note_off_c, 0, 84, 63
1, 62054, Note_off_c, 0, 80, 61
1, 62095, Note_on_c, 0, 76, 65
1, 62132, Note_off_c, 0, 76, 61
1, 62135, Note_on_c, 0, 67, 64
1, 62149, Note_on_c, 0, 71, 63
1, 62165, Note_off_c, 0, 67, 67
1, 62188, Note_off_c, 0, 71, 63
1, 62194, Note_on_c, 0, 81, 50
1, 62196, Note_on_c, 0, 85, 60
1, 62229, Note_off_c, 0, 85, 67
1, 62239, Note_off_c, 0, 81, 60
1, 62267, Note_on_c, 0, 77, 59
1, 62294, Control_c, 0, 64, 112
1, 62307, Note_on_c, 0, 68, 63
1, 62307, Note_off_c, 0, 77, 61
1, 62309, Control_c, 0, 64, 86
1, 62313, Note_on_c, 0, 72, 58
1, 62324, Control_c, 0, 64, 69
1, 62339, Control_c, 0, 64, 59
1, 62354, Control_c, 0, 64, 61
1, 62369, Control_c, 0, 64, 63
1, 62384, Control_c, 0, 64, 66
1, 62388, Note_on_c, 0, 88, 61
1, 62399, Control_c, 0, 64, 71
1, 62400, Note_on_c, 0, 84, 43
1, 62404, Note_off_c, 0, 68, 60
1, 62413, Control_c, 0, 64, 81
1, 62428, Control_c, 0, 64, 97
1, 62441, Note_off_c, 0, 84, 64
1, 62443, Note_off_c, 0, 88, 64
1, 62443, Control_c, 0, 64, 108
1, 62453, Note_off_c, 0, 72, 53
1, 62458, Control_c, 0, 64, 109
1, 62473, Control_c, 0, 64, 110
1, 62479, Note_on_c, 0, 78, 54
1, 62488, Control_c, 0, 64, 112
1, 62503, Control_c, 0, 64, 116
1, 62517, Note_off_c, 0, 78, 56
1, 62518, Control_c, 0, 64, 122
1, 62521, Note_on_c, 0, 73, 60
1, 62530, Note_on_c, 0, 69, 62
1, 62532, Control_c, 0, 64, 125
1, 62547, Control_c, 0, 64, 127
1, 62574, Note_on_c, 0, 87, 65
1, 62580, Note_off_c, 0, 73, 63
1, 62589, Note_on_c, 0, 83, 48
1, 62615, Note_off_c, 0, 83, 63
1, 62619, Note_off_c, 0, 87, 58
1, 62628, Note_off_c, 0, 69, 50
1, 62628, Note_on_c, 0, 79, 65
1, 62667, Note_off_c, 0, 79, 59
1, 62690, Note_on_c, 0, 74, 68
1, 62694, Note_on_c, 0, 70, 63
1, 62724, Note_on_c, 0, 80, 57
1, 62724, Note_on_c, 0, 84, 62
1, 62744, Note_off_c, 0, 70, 61
1, 62771, Note_off_c, 0, 84, 64
1, 62779, Note_off_c, 0, 74, 54
1, 62783, Note_off_c, 0, 80, 57
1, 62807, Note_on_c, 0, 77, 66
1, 62842, Note_off_c, 0, 77, 64
1, 62852, Note_on_c, 0, 71, 69
1, 62853, Note_on_c, 0, 75, 68
1, 62893, Note_on_c, 0, 81, 63
1, 62897, Note_on_c, 0, 85, 67
1, 62910, Note_off_c, 0, 75, 61
1, 62931, Note_off_c, 0, 85, 61
1, 62953, Note_off_c, 0, 81, 53
1, 62956, Note_off_c, 0, 71, 57
1, 62965, Note_on_c, 0, 78, 77
1, 62998, Control_c, 0, 64, 82
1, 63000, Note_on_c, 0, 72, 75
1, 63000, Note_on_c, 0, 76, 81
1, 63010, Note_off_c, 0, 78, 54
1, 63013, Control_c, 0, 64, 67
1, 63028, Control_c, 0, 64, 64
1, 63043, Control_c, 0, 64, 68
1, 63051, Note_on_c, 0, 84, 70
1, 63051, Note_on_c, 0, 88, 84
1, 63057, Control_c, 0, 64, 73
1, 63067, Note_off_c, 0, 76, 63
1, 63072, Control_c, 0, 64, 82
1, 63087, Control_c, 0, 64, 107
1, 63102, Control_c, 0, 64, 127
1, 63105, Note_off_c, 0, 88, 64
1, 63107, Note_off_c, 0, 84, 61
1, 63115, Note_on_c, 0, 78, 78
1, 63138, Note_off_c, 0, 72, 61
1, 63171, Note_on_c, 0, 73, 77
1, 63174, Note_off_c, 0, 78, 63
1, 63177, Note_on_c, 0, 77, 79
1, 63200, Note_on_c, 0, 87, 80
1, 63203, Note_on_c, 0, 83, 69
1, 63219, Note_off_c, 0, 73, 65
1, 63254, Note_off_c, 0, 77, 62
1, 63260, Note_off_c, 0, 87, 63
1, 63271, Note_on_c, 0, 79, 79
1, 63288, Note_off_c, 0, 83, 62
1, 63317, Note_off_c, 0, 79, 62
1, 63329, Note_on_c, 0, 74, 78
1, 63330, Note_on_c, 0, 78, 84
1, 63367, Note_on_c, 0, 84, 88
1, 63385, Note_off_c, 0, 78, 63
1, 63413, Note_off_c, 0, 84, 66
1, 63440, Note_on_c, 0, 80, 88
1, 63501, Note_on_c, 0, 79, 81
1, 63505, Note_on_c, 0, 75, 88
1, 63507, Note_off_c, 0, 74, 63
1, 63512, Note_off_c, 0, 80, 61
1, 63543, Note_on_c, 0, 85, 86
1, 63546, Note_off_c, 0, 79, 67
1, 63605, Note_on_c, 0, 81, 78
1, 63609, Note_off_c, 0, 85, 65
1, 63624, Note_off_c, 0, 75, 60
1, 63644, Control_c, 0, 64, 93
1, 63650, Note_on_c, 0, 76, 102
1, 63659, Note_off_c, 0, 81, 64
1, 63659, Control_c, 0, 64, 69
1, 63674, Control_c, 0, 64, 59
1, 63685, Note_on_c, 0, 84, 76
1, 63686, Note_on_c, 0, 88, 81
1, 63688, Control_c, 0, 64, 62
1, 63703, Control_c, 0, 64, 65
1, 63718, Control_c, 0, 64, 71
1, 63733, Control_c, 0, 64, 86
1, 63740, Note_off_c, 0, 88, 64
1, 63748, Control_c, 0, 64, 127
1, 63752, Note_off_c, 0, 84, 60
1, 63763, Note_on_c, 0, 80, 86
1, 63796, Note_off_c, 0, 76, 61
1, 63819, Note_on_c, 0, 77, 95
1, 63820, Note_off_c, 0, 80, 61
1, 63859, Note_on_c, 0, 87, 86
1, 63861, Note_on_c, 0, 83, 82
1, 63935, Note_on_c, 0, 79, 85
1, 63936, Note_off_c, 0, 77, 61
1, 63940, Note_off_c, 0, 87, 65
1, 63954, Note_off_c, 0, 83, 62
1, 63984, Note_off_c, 0, 79, 62
1, 63996, Note_on_c, 0, 78, 98
1, 64050, Note_on_c, 0, 84, 82
1, 64102, Note_off_c, 0, 84, 67
1, 64130, Note_on_c, 0, 80, 91
1, 64148, Note_off_c, 0, 78, 61
1, 64175, Note_on_c, 0, 79, 90
1, 64190, Note_off_c, 0, 80, 62
1, 64251, Note_on_c, 0, 85, 97
1, 64326, Note_on_c, 0, 84, 62
1, 64330, Note_on_c, 0, 81, 92
1, 64336, Note_off_c, 0, 79, 62
1, 64340, Note_off_c, 0, 85, 58
1, 64352, Note_off_c, 0, 84, 66
1, 64393, Note_off_c, 0, 81, 66
1, 64408, Control_c, 0, 64, 86
1, 64423, Control_c, 0, 64, 62
1, 64428, Note_on_c, 0, 80, 107
1, 64437, Control_c, 0, 64, 51
1, 64452, Control_c, 0, 64, 62
1, 64467, Control_c, 0, 64, 68
1, 64482, Control_c, 0, 64, 91
1, 64497, Control_c, 0, 64, 127
1, 64518, Note_off_c, 0, 80, 67
1, 64540, Note_on_c, 0, 92, 94
1, 64611, Note_on_c, 0, 80, 86
1, 64615, Note_off_c, 0, 92, 59
1, 64663, Note_off_c, 0, 80, 64
1, 64682, Note_on_c, 0, 92, 92
1, 64741, Note_on_c, 0, 80, 82
1, 64750, Note_off_c, 0, 92, 64
1, 64789, Note_off_c, 0, 80, 64
1, 64804, Note_on_c, 0, 92, 85
1, 64866, Note_on_c, 0, 80, 81
1, 64870, Note_off_c, 0, 92, 63
1, 64912, Note_off_c, 0, 80, 64
1, 64924, Note_on_c, 0, 92, 84
1, 64992, Note_off_c, 0, 92, 63
1, 64995, Note_on_c, 0, 80, 79
1, 65032, Note_off_c, 0, 80, 62
1, 65050, Note_on_c, 0, 92, 84
1, 65059, Note_on_c, 0, 88, 35
1, 65093, Note_off_c, 0, 92, 61
1, 65097, Note_off_c, 0, 88, 47
1, 65103, Note_on_c, 0, 80, 78
1, 65132, Note_off_c, 0, 80, 65
1, 65143, Note_on_c, 0, 92, 88
1, 65156, Note_on_c, 0, 88, 21
1, 65180, Note_off_c, 0, 92, 63
1, 65194, Note_on_c, 0, 68, 102
1, 65194, Note_off_c, 0, 88, 39
1, 65227, Note_off_c, 0, 68, 69
1, 65285, Note_on_c, 0, 80, 83
1, 65313, Note_on_c, 0, 78, 54
1, 65333, Note_off_c, 0, 78, 60
1, 65336, Note_off_c, 0, 80, 63
1, 65359, Note_on_c, 0, 68, 70
1, 65390, Note_off_c, 0, 68, 63
1, 65421, Note_on_c, 0, 80, 80
1, 65471, Note_off_c, 0, 80, 53
1, 65481, Note_on_c, 0, 68, 73
1, 65529, Note_off_c, 0, 68, 60
1, 65548, Note_on_c, 0, 80, 81
1, 65612, Note_on_c, 0, 68, 74
1, 65614, Note_off_c, 0, 80, 61
1, 65666, Note_off_c, 0, 68, 62
1, 65672, Note_on_c, 0, 80, 80
1, 65752, Note_on_c, 0, 68, 75
1, 65756, Note_off_c, 0, 80, 62
1, 65812, Note_on_c, 0, 80, 77
1, 65821, Note_off_c, 0, 68, 55
1, 65841, Poly_aftertouch_c, 0, 76, 127
1, 65879, Note_off_c, 0, 80, 63
1, 65896, Note_on_c, 0, 68, 81
1, 65949, Poly_aftertouch_c, 0, 76, 0
1, 65973, Note_on_c, 0, 80, 90
1, 65987, Poly_aftertouch_c, 0, 76, 127
1, 65996, Note_off_c, 0, 68, 61
1, 66021, Poly_aftertouch_c, 0, 76, 0
1, 66056, Note_off_c, 0, 80, 60
1, 66080, Note_on_c, 0, 66, 89
1, 66143, Control_c, 0, 64, 85
1, 66157, Control_c, 0, 64, 53
1, 66172, Control_c, 0, 64, 0
1, 66260, Note_off_c, 0, 66, 61
1, 66268, Note_on_c, 0, 68, 61
1, 66305, Control_c, 0, 64, 33
1, 66320, Control_c, 0, 64, 54
1, 66336, Control_c, 0, 64, 65
1, 66340, Note_off_c, 0, 68, 60
1, 66351, Control_c, 0, 64, 72
1, 66366, Control_c, 0, 64, 84
1, 66380, Control_c, 0, 64, 106
1, 66382, Note_on_c, 0, 66, 55
1, 66395, Control_c, 0, 64, 127
1, 66419, Note_off_c, 0, 66, 64
1, 66484, Note_on_c, 0, 68, 34
1, 66509, Note_off_c, 0, 68, 55
1, 66527, Note_on_c, 0, 66, 52
1, 66565, Note_off_c, 0, 66, 64
1, 66595, Note_on_c, 0, 68, 54
1, 66631, Note_off_c, 0, 68, 63
1, 66672, Note_on_c, 0, 66, 43
1, 66702, Note_off_c, 0, 66, 56
1, 66724, Note_on_c, 0, 68, 58
1, 66759, Note_off_c, 0, 68, 62
1, 66796, Note_on_c, 0, 66, 52
1, 66828, Note_off_c, 0, 66, 65
1, 66869, Note_on_c, 0, 68, 53
1, 66905, Note_off_c, 0, 68, 63
1, 66938, Note_on_c, 0, 66, 51
1, 66972, Note_off_c, 0, 66, 64
1, 67007, Note_on_c, 0, 68, 54
1, 67047, Note_off_c, 0, 68, 62
1, 67074, Note_on_c, 0, 66, 53
1, 67116, Note_off_c, 0, 66, 59
1, 67171, Note_on_c, 0, 68, 45
1, 67212, Note_off_c, 0, 68, 62
1, 67261, Note_on_c, 0, 66, 44
1, 67300, Note_off_c, 0, 66, 61
1, 67346, Note_on_c, 0, 68, 40
1, 67384, Note_off_c, 0, 68, 59
1, 67423, Note_on_c, 0, 66, 41
1, 67461, Note_off_c, 0, 66, 63
1, 67508, Note_on_c, 0, 68, 41
1, 67521, Control_c, 0, 67, 22
1, 67536, Control_c, 0, 67, 35
1, 67551, Control_c, 0, 67, 52
1, 67554, Note_off_c, 0, 68, 61
1, 67566, Control_c, 0, 67, 69
1, 67581, Control_c, 0, 67, 84
1, 67591, Note_on_c, 0, 66, 36
1, 67596, Control_c, 0, 67, 99
1, 67610, Control_c, 0, 67, 114
1, 67625, Control_c, 0, 67, 127
1, 67645, Note_off_c, 0, 66, 58
1, 67687, Note_on_c, 0, 68, 42
1, 67732, Note_off_c, 0, 68, 58
1, 67785, Note_on_c, 0, 66, 35
1, 67825, Note_off_c, 0, 66, 58
1, 67872, Note_on_c, 0, 68, 40
1, 67944, Note_off_c, 0, 68, 57
1, 67988, Note_on_c, 0, 66, 31
1, 68079, Note_off_c, 0, 66, 54
1, 68109, Note_on_c, 0, 68, 42
1, 68269, Note_off_c, 0, 68, 35
1, 68283, Note_on_c, 0, 66, 37
1, 68374, Control_c, 0, 64, 90
1, 68389, Control_c, 0, 64, 71
1, 68404, Control_c, 0, 64, 64
1, 68418, Control_c, 0, 64, 65
1, 68433, Control_c, 0, 64, 68
1, 68448, Note_off_c, 0, 66, 51
1, 68448, Control_c, 0, 64, 72
1, 68463, Control_c, 0, 64, 77
1, 68474, Note_on_c, 0, 68, 34
1, 68477, Control_c, 0, 64, 89
1, 68492, Control_c, 0, 64, 104
1, 68507, Control_c, 0, 64, 127
1, 68581, Note_off_c, 0, 68, 45
1, 68617, Note_on_c, 0, 66, 26
1, 68747, Note_off_c, 0, 66, 34
1, 68776, Note_on_c, 0, 68, 27
1, 68779, Note_on_c, 0, 73, 57
1, 68855, Note_off_c, 0, 73, 58
1, 68882, Note_off_c, 0, 68, 37
1, 68903, Note_on_c, 0, 66, 35
1, 68953, Note_off_c, 0, 66, 59
1, 69019, Note_on_c, 0, 68, 40
1, 69064, Note_off_c, 0, 68, 57
1, 69096, Note_on_c, 0, 66, 37
1, 69096, Note_on_c, 0, 77, 64
1, 69128, Note_off_c, 0, 66, 61
1, 69131, Note_off_c, 0, 77, 63
1, 69193, Note_on_c, 0, 68, 33
1, 69224, Note_off_c, 0, 68, 53
1, 69251, Note_on_c, 0, 66, 30
1, 69286, Note_off_c, 0, 66, 53
1, 69344, Note_on_c, 0, 68, 31
1, 69347, Note_on_c, 0, 78, 66
1, 69396, Note_off_c, 0, 78, 59
1, 69408, Note_off_c, 0, 68, 58
1, 69536, Note_on_c, 0, 68, 19
1, 69579, Note_off_c, 0, 68, 41
1, 69588, Note_on_c, 0, 65, 59
1, 69590, Control_c, 0, 64, 104
1, 69604, Control_c, 0, 64, 76
1, 69611, Note_on_c, 0, 66, 34
1, 69619, Control_c, 0, 64, 68
1, 69634, Control_c, 0, 64, 68
1, 69649, Control_c, 0, 64, 72
1, 69664, Control_c, 0, 64, 77
1, 69674, Note_off_c, 0, 66, 39
1, 69678, Control_c, 0, 64, 85
1, 69693, Control_c, 0, 64, 100
1, 69708, Control_c, 0, 64, 127
1, 69752, Note_on_c, 0, 68, 42
1, 69785, Note_off_c, 0, 68, 59
1, 69825, Note_on_c, 0, 66, 36
1, 69857, Note_off_c, 0, 66, 55
1, 69863, Note_on_c, 0, 80, 72
1, 69890, Note_off_c, 0, 80, 66
1, 69909, Note_on_c, 0, 68, 39
1, 69944, Note_off_c, 0, 68, 54
1, 69981, Note_on_c, 0, 66, 40
1, 70018, Note_off_c, 0, 66, 59
1, 70067, Note_off_c, 0, 65, 39
1, 70101, Note_on_c, 0, 64, 59
1, 70122, Control_c, 0, 64, 84
1, 70128, Note_on_c, 0, 66, 47
1, 70131, Poly_aftertouch_c, 0, 68, 0
1, 70137, Control_c, 0, 64, 67
1, 70152, Control_c, 0, 64, 60
1, 70165, Note_off_c, 0, 66, 47
1, 70167, Control_c, 0, 64, 63
1, 70182, Control_c, 0, 64, 65
1, 70197, Control_c, 0, 64, 69
1, 70212, Control_c, 0, 64, 74
1, 70234, Control_c, 0, 64, 82
1, 70248, Control_c, 0, 64, 91
1, 70256, Note_on_c, 0, 68, 47
1, 70263, Control_c, 0, 64, 97
1, 70278, Control_c, 0, 64, 100
1, 70289, Note_off_c, 0, 68, 55
1, 70293, Control_c, 0, 64, 101
1, 70308, Control_c, 0, 64, 102
1, 70324, Control_c, 0, 64, 106
1, 70335, Note_on_c, 0, 66, 38
1, 70339, Control_c, 0, 64, 113
1, 70353, Control_c, 0, 64, 122
1, 70368, Note_off_c, 0, 66, 53
1, 70368, Control_c, 0, 64, 127
1, 70378, Note_on_c, 0, 85, 70
1, 70410, Note_off_c, 0, 85, 64
1, 70423, Note_on_c, 0, 68, 43
1, 70461, Note_off_c, 0, 68, 59
1, 70517, Note_on_c, 0, 66, 26
1, 70551, Note_off_c, 0, 66, 48
1, 70563, Note_on_c, 0, 68, 48
1, 70601, Note_off_c, 0, 68, 54
1, 70614, Note_off_c, 0, 64, 50
1, 70618, Note_on_c, 0, 63, 54
1, 70619, Control_c, 0, 64, 95
1, 70634, Control_c, 0, 64, 77
1, 70649, Control_c, 0, 64, 68
1, 70657, Note_on_c, 0, 66, 43
1, 70664, Control_c, 0, 64, 67
1, 70678, Control_c, 0, 64, 70
1, 70691, Note_off_c, 0, 66, 54
1, 70693, Control_c, 0, 64, 73
1, 70708, Control_c, 0, 64, 79
1, 70723, Control_c, 0, 64, 90
1, 70738, Control_c, 0, 64, 102
1, 70752, Control_c, 0, 64, 120
1, 70767, Control_c, 0, 64, 127
1, 70772, Note_on_c, 0, 68, 40
1, 70807, Note_off_c, 0, 68, 53
1, 70858, Note_on_c, 0, 66, 20
1, 70868, Note_on_c, 0, 80, 71
1, 70893, Note_off_c, 0, 66, 49
1, 70897, Note_off_c, 0, 80, 66
1, 70934, Note_on_c, 0, 68, 31
1, 70972, Note_off_c, 0, 68, 52
1, 71008, Note_on_c, 0, 66, 39
1, 71037, Note_off_c, 0, 66, 55
1, 71063, Note_on_c, 0, 68, 51
1, 71098, Note_off_c, 0, 68, 56
1, 71116, Control_c, 0, 64, 109
1, 71118, Note_on_c, 0, 62, 57
1, 71122, Note_off_c, 0, 63, 37
1, 71131, Control_c, 0, 64, 83
1, 71144, Note_on_c, 0, 66, 43
1, 71146, Control_c, 0, 64, 72
1, 71161, Control_c, 0, 64, 70
1, 71175, Control_c, 0, 64, 73
1, 71181, Note_off_c, 0, 66, 51
1, 71190, Control_c, 0, 64, 80
1, 71205, Control_c, 0, 64, 88
1, 71220, Control_c, 0, 64, 100
1, 71235, Control_c, 0, 64, 127
1, 71267, Note_on_c, 0, 68, 33
1, 71303, Note_off_c, 0, 68, 52
1, 71383, Note_on_c, 0, 82, 66
1, 71407, Poly_aftertouch_c, 0, 66, 127
1, 71412, Note_off_c, 0, 82, 67
1, 71431, Note_on_c, 0, 68, 47
1, 71440, Poly_aftertouch_c, 0, 66, 0
1, 71471, Note_off_c, 0, 68, 58
1, 71579, Note_on_c, 0, 68, 42
1, 71607, Note_off_c, 0, 68, 56
1, 71620, Control_c, 0, 64, 100
1, 71633, Note_on_c, 0, 66, 42
1, 71635, Note_on_c, 0, 61, 48
1, 71635, Control_c, 0, 64, 79
1, 71636, Note_on_c, 0, 63, 54
1, 71647, Note_off_c, 0, 62, 39
1, 71649, Control_c, 0, 64, 73
1, 71664, Control_c, 0, 64, 75
1, 71679, Control_c, 0, 64, 78
1, 71693, Note_off_c, 0, 63, 52
1, 71693, Control_c, 0, 64, 83
1, 71708, Control_c, 0, 64, 91
1, 71731, Control_c, 0, 64, 104
1, 71742, Note_off_c, 0, 66, 32
1, 71746, Control_c, 0, 64, 127
1, 71787, Note_on_c, 0, 68, 38
1, 71845, Note_off_c, 0, 68, 57
1, 71896, Note_on_c, 0, 80, 63
1, 71928, Note_off_c, 0, 80, 66
1, 71952, Poly_aftertouch_c, 0, 66, 127
1, 71982, Note_on_c, 0, 68, 46
1, 72014, Note_off_c, 0, 68, 59
1, 72016, Poly_aftertouch_c, 0, 66, 0
1, 72049, Note_off_c, 0, 61, 41
1, 72054, Poly_aftertouch_c, 0, 66, 127
1, 72134, Poly_aftertouch_c, 0, 63, 127
1, 72146, Note_on_c, 0, 60, 51
1, 72177, Control_c, 0, 64, 94
1, 72191, Control_c, 0, 64, 76
1, 72206, Control_c, 0, 64, 65
1, 72221, Control_c, 0, 64, 64
1, 72236, Control_c, 0, 64, 67
1, 72251, Control_c, 0, 64, 70
1, 72255, Poly_aftertouch_c, 0, 66, 0
1, 72265, Control_c, 0, 64, 74
1, 72280, Control_c, 0, 64, 80
1, 72295, Control_c, 0, 64, 89
1, 72300, Note_on_c, 0, 68, 40
1, 72310, Control_c, 0, 64, 98
1, 72325, Control_c, 0, 64, 108
1, 72340, Control_c, 0, 64, 122
1, 72355, Control_c, 0, 64, 127
1, 72360, Note_off_c, 0, 68, 53
1, 72401, Note_on_c, 0, 66, 36
1, 72475, Note_on_c, 0, 78, 56
1, 72481, Note_off_c, 0, 66, 57
1, 72527, Note_off_c, 0, 78, 59
1, 72538, Note_on_c, 0, 68, 38
1, 72575, Note_off_c, 0, 68, 56
1, 72588, Note_off_c, 0, 60, 39
1, 72632, Note_on_c, 0, 66, 31
1, 72668, Poly_aftertouch_c, 0, 63, 0
1, 72671, Note_off_c, 0, 66, 53
1, 72721, Note_on_c, 0, 68, 31
1, 72779, Note_off_c, 0, 68, 45
1, 72827, Note_on_c, 0, 66, 34
1, 72844, Note_on_c, 0, 59, 44
1, 72853, Note_on_c, 0, 62, 38
1, 72867, Control_c, 0, 64, 120
1, 72882, Control_c, 0, 64, 87
1, 72896, Control_c, 0, 64, 72
1, 72911, Control_c, 0, 64, 65
1, 72926, Control_c, 0, 64, 64
1, 72940, Control_c, 0, 64, 66
1, 72955, Control_c, 0, 64, 68
1, 72970, Note_off_c, 0, 66, 51
1, 72970, Control_c, 0, 64, 72
1, 72985, Control_c, 0, 64, 78
1, 73000, Control_c, 0, 64, 87
1, 73014, Control_c, 0, 64, 100
1, 73024, Note_on_c, 0, 68, 36
1, 73029, Control_c, 0, 64, 115
1, 73044, Control_c, 0, 64, 127
1, 73077, Note_off_c, 0, 68, 54
1, 73112, Note_on_c, 0, 66, 37
1, 73186, Note_off_c, 0, 66, 53
1, 73243, Note_on_c, 0, 77, 56
1, 73249, Note_on_c, 0, 68, 42
1, 73290, Note_off_c, 0, 77, 56
1, 73318, Note_off_c, 0, 68, 57
1, 73348, Note_on_c, 0, 66, 39
1, 73408, Note_off_c, 0, 66, 59
1, 73471, Note_on_c, 0, 68, 42
1, 73522, Note_off_c, 0, 68, 60
1, 73557, Note_on_c, 0, 66, 40
1, 73587, Note_off_c, 0, 66, 59
1, 73667, Note_on_c, 0, 68, 35
1, 73705, Note_on_c, 0, 77, 64
1, 73706, Note_off_c, 0, 68, 52
1, 73741, Note_on_c, 0, 66, 20
1, 73742, Note_off_c, 0, 77, 60
1, 73783, Note_off_c, 0, 66, 42
1, 73832, Note_on_c, 0, 68, 32
1, 73866, Note_off_c, 0, 68, 52
1, 73875, Note_on_c, 0, 80, 68
1, 73890, Note_on_c, 0, 66, 41
1, 73892, Note_off_c, 0, 59, 38
1, 73917, Note_off_c, 0, 62, 51
1, 73919, Note_off_c, 0, 66, 58
1, 73919, Note_off_c, 0, 80, 59
1, 73962, Note_on_c, 0, 68, 41
1, 74014, Note_off_c, 0, 68, 58
1, 74041, Note_on_c, 0, 66, 39
1, 74046, Note_on_c, 0, 63, 47
1, 74049, Note_on_c, 0, 60, 50
1, 74067, Control_c, 0, 64, 115
1, 74082, Control_c, 0, 64, 89
1, 74096, Control_c, 0, 64, 80
1, 74111, Control_c, 0, 64, 81
1, 74126, Control_c, 0, 64, 85
1, 74136, Note_off_c, 0, 66, 58
1, 74141, Control_c, 0, 64, 91
1, 74156, Control_c, 0, 64, 102
1, 74170, Control_c, 0, 64, 127
1, 74188, Note_on_c, 0, 68, 36
1, 74245, Note_off_c, 0, 68, 56
1, 74287, Note_on_c, 0, 66, 38
1, 74340, Note_off_c, 0, 66, 57
1, 74352, Note_on_c, 0, 77, 64
1, 74390, Note_on_c, 0, 68, 44
1, 74394, Note_off_c, 0, 77, 57
1, 74441, Note_off_c, 0, 68, 59
1, 74480, Note_on_c, 0, 66, 41
1, 74537, Note_off_c, 0, 66, 60
1, 74587, Note_on_c, 0, 68, 41
1, 74641, Note_off_c, 0, 68, 59
1, 74683, Note_on_c, 0, 66, 37
1, 74735, Note_off_c, 0, 66, 56
1, 74809, Note_on_c, 0, 68, 33
1, 74844, Note_on_c, 0, 77, 64
1, 74848, Note_off_c, 0, 68, 56
1, 74880, Note_off_c, 0, 77, 60
1, 74894, Note_on_c, 0, 66, 26
1, 74940, Note_off_c, 0, 66, 49
1, 74981, Note_on_c, 0, 68, 46
1, 75003, Note_off_c, 0, 60, 39
1, 75023, Note_on_c, 0, 80, 67
1, 75047, Note_off_c, 0, 68, 56
1, 75061, Note_on_c, 0, 66, 45
1, 75078, Note_off_c, 0, 80, 61
1, 75128, Note_off_c, 0, 63, 37
1, 75141, Note_off_c, 0, 66, 53
1, 75176, Note_on_c, 0, 68, 38
1, 75207, Note_off_c, 0, 68, 56
1, 75230, Note_on_c, 0, 59, 43
1, 75244, Note_on_c, 0, 62, 43
1, 75255, Note_on_c, 0, 66, 39
1, 75276, Control_c, 0, 64, 98
1, 75279, Note_on_c, 0, 77, 61
1, 75290, Control_c, 0, 64, 78
1, 75305, Control_c, 0, 64, 68
1, 75320, Control_c, 0, 64, 66
1, 75330, Note_off_c, 0, 66, 57
1, 75334, Control_c, 0, 64, 67
1, 75349, Control_c, 0, 64, 70
1, 75364, Control_c, 0, 64, 74
1, 75379, Control_c, 0, 64, 82
1, 75394, Control_c, 0, 64, 92
1, 75400, Note_on_c, 0, 68, 45
1, 75408, Control_c, 0, 64, 103
1, 75410, Note_off_c, 0, 77, 58
1, 75423, Control_c, 0, 64, 113
1, 75438, Control_c, 0, 64, 122
1, 75446, Note_off_c, 0, 68, 59
1, 75453, Control_c, 0, 64, 127
1, 75477, Note_on_c, 0, 74, 76
1, 75479, Note_on_c, 0, 66, 51
1, 75516, Note_off_c, 0, 66, 64
1, 75574, Note_on_c, 0, 68, 46
1, 75582, Note_off_c, 0, 74, 60
1, 75601, Note_off_c, 0, 68, 57
1, 75617, Note_on_c, 0, 66, 54
1, 75626, Note_on_c, 0, 77, 77
1, 75628, Note_off_c, 0, 59, 40
1, 75650, Note_off_c, 0, 62, 53
1, 75658, Note_off_c, 0, 66, 63
1, 75688, Note_on_c, 0, 68, 58
1, 75736, Note_off_c, 0, 68, 57
1, 75765, Note_on_c, 0, 60, 51
1, 75771, Note_on_c, 0, 63, 49
1, 75786, Note_on_c, 0, 66, 43
1, 75816, Control_c, 0, 64, 109
1, 75831, Control_c, 0, 64, 84
1, 75846, Control_c, 0, 64, 68
1, 75861, Control_c, 0, 64, 57
1, 75876, Control_c, 0, 64, 43
1, 75883, Note_off_c, 0, 66, 56
1, 75890, Control_c, 0, 64, 41
1, 75906, Control_c, 0, 64, 44
1, 75921, Control_c, 0, 64, 49
1, 75929, Note_on_c, 0, 68, 46
1, 75936, Control_c, 0, 64, 56
1, 75951, Control_c, 0, 64, 61
1, 75965, Control_c, 0, 64, 64
1, 75980, Control_c, 0, 64, 66
1, 75993, Note_off_c, 0, 68, 57
1, 75995, Control_c, 0, 64, 69
1, 76006, Note_on_c, 0, 80, 63
1, 76010, Control_c, 0, 64, 74
1, 76025, Control_c, 0, 64, 81
1, 76032, Note_on_c, 0, 66, 46
1, 76039, Control_c, 0, 64, 89
1, 76046, Note_off_c, 0, 77, 53
1, 76054, Control_c, 0, 64, 98
1, 76069, Control_c, 0, 64, 107
1, 76084, Control_c, 0, 64, 116
1, 76099, Note_off_c, 0, 66, 55
1, 76099, Control_c, 0, 64, 127
1, 76152, Note_off_c, 0, 80, 52
1, 76161, Note_on_c, 0, 68, 38
1, 76249, Note_off_c, 0, 68, 55
1, 76293, Note_on_c, 0, 84, 60
1, 76295, Note_on_c, 0, 66, 34
1, 76341, Note_off_c, 0, 66, 58
1, 76367, Note_off_c, 0, 84, 63
1, 76407, Note_on_c, 0, 68, 33
1, 76459, Note_off_c, 0, 68, 50
1, 76491, Note_on_c, 0, 66, 40
1, 76540, Note_off_c, 0, 66, 61
1, 76584, Note_on_c, 0, 68, 51
1, 76632, Note_off_c, 0, 68, 60
1, 76662, Note_on_c, 0, 66, 54
1, 76698, Note_off_c, 0, 66, 64
1, 76760, Note_on_c, 0, 68, 40
1, 76790, Note_off_c, 0, 68, 55
1, 76814, Note_on_c, 0, 66, 51
1, 76850, Note_off_c, 0, 66, 63
1, 76880, Note_on_c, 0, 68, 56
1, 76903, Note_off_c, 0, 60, 35
1, 76912, Note_off_c, 0, 68, 63
1, 76937, Note_off_c, 0, 63, 37
1, 76965, Note_on_c, 0, 66, 53
1, 77013, Note_off_c, 0, 66, 58
1, 77047, Note_on_c, 0, 68, 49
1, 77101, Note_off_c, 0, 68, 53
1, 77143, Note_on_c, 0, 66, 45
1, 77185, Note_off_c, 0, 66, 61
1, 77236, Note_on_c, 0, 68, 39
1, 77269, Note_off_c, 0, 68, 55
1, 77316, Note_on_c, 0, 66, 43
1, 77394, Note_off_c, 0, 66, 49
1, 77459, Note_on_c, 0, 68, 9
1, 77492, Control_c, 0, 67, 125
1, 77508, Control_c, 0, 67, 115
1, 77523, Control_c, 0, 67, 107
1, 77533, Note_off_c, 0, 68, 41
1, 77538, Control_c, 0, 67, 99
1, 77553, Control_c, 0, 67, 94
1, 77567, Control_c, 0, 67, 92
1, 77613, Note_on_c, 0, 52, 48
1, 77641, Control_c, 0, 67, 91
1, 77656, Control_c, 0, 67, 90
1, 77671, Control_c, 0, 67, 89
1, 77685, Control_c, 0, 67, 84
1, 77698, Note_on_c, 0, 68, 28
1, 77700, Control_c, 0, 64, 91
1, 77700, Control_c, 0, 67, 73
1, 77723, Control_c, 0, 64, 74
1, 77723, Control_c, 0, 67, 64
1, 77737, Control_c, 0, 64, 64
1, 77737, Control_c, 0, 67, 55
1, 77752, Control_c, 0, 64, 59
1, 77752, Control_c, 0, 67, 42
1, 77767, Control_c, 0, 64, 59
1, 77767, Control_c, 0, 67, 27
1, 77780, Note_off_c, 0, 68, 40
1, 77782, Control_c, 0, 64, 59
1, 77782, Control_c, 0, 67, 9
1, 77797, Control_c, 0, 64, 61
1, 77797, Control_c, 0, 67, 0
1, 77811, Control_c, 0, 64, 63
1, 77819, Note_on_c, 0, 66, 34
1, 77826, Control_c, 0, 64, 65
1, 77841, Control_c, 0, 64, 68
1, 77856, Control_c, 0, 64, 72
1, 77868, Note_off_c, 0, 66, 53
1, 77871, Control_c, 0, 64, 77
1, 77885, Control_c, 0, 64, 83
1, 77900, Control_c, 0, 64, 88
1, 77915, Control_c, 0, 64, 93
1, 77930, Control_c, 0, 64, 101
1, 77932, Note_on_c, 0, 68, 18
1, 77944, Control_c, 0, 64, 115
1, 77959, Control_c, 0, 64, 127
1, 77974, Note_off_c, 0, 68, 43
1, 77993, Note_on_c, 0, 66, 41
1, 78028, Note_off_c, 0, 66, 57
1, 78141, Note_on_c, 0, 66, 44
1, 78165, Note_off_c, 0, 52, 42
1, 78169, Note_on_c, 0, 54, 50
1, 78181, Note_off_c, 0, 66, 59
1, 78192, Poly_aftertouch_c, 0, 68, 0
1, 78209, Note_on_c, 0, 68, 19
1, 78285, Control_c, 0, 67, 10
1, 78294, Note_off_c, 0, 68, 37
1, 78298, Note_on_c, 0, 66, 42
1, 78300, Control_c, 0, 67, 17
1, 78316, Control_c, 0, 67, 24
1, 78331, Control_c, 0, 67, 31
1, 78346, Control_c, 0, 67, 39
1, 78354, Note_off_c, 0, 66, 58
1, 78360, Control_c, 0, 67, 49
1, 78372, Note_on_c, 0, 68, 31
1, 78375, Control_c, 0, 67, 57
1, 78379, Note_off_c, 0, 54, 27
1, 78390, Control_c, 0, 67, 64
1, 78398, Note_on_c, 0, 56, 57
1, 78405, Control_c, 0, 67, 71
1, 78420, Control_c, 0, 67, 77
1, 78430, Note_off_c, 0, 56, 66
1, 78434, Control_c, 0, 67, 84
1, 78440, Note_off_c, 0, 68, 51
1, 78449, Control_c, 0, 67, 91
1, 78472, Control_c, 0, 67, 97
1, 78474, Note_on_c, 0, 66, 42
1, 78486, Control_c, 0, 67, 101
1, 78501, Control_c, 0, 67, 105
1, 78516, Control_c, 0, 67, 110
1, 78523, Note_off_c, 0, 66, 55
1, 78531, Control_c, 0, 67, 115
1, 78541, Note_on_c, 0, 68, 16
1, 78546, Control_c, 0, 67, 121
1, 78560, Control_c, 0, 67, 125
1, 78575, Control_c, 0, 67, 127
1, 78625, Note_on_c, 0, 58, 49
1, 78630, Note_on_c, 0, 51, 47
1, 78634, Control_c, 0, 64, 102
1, 78635, Note_on_c, 0, 44, 48
1, 78636, Note_on_c, 0, 66, 34
1, 78649, Control_c, 0, 64, 79
1, 78653, Note_off_c, 0, 68, 0
1, 78664, Control_c, 0, 64, 68
1, 78672, Note_off_c, 0, 66, 50
1, 78676, Note_on_c, 0, 68, 10
1, 78679, Control_c, 0, 64, 64
1, 78694, Control_c, 0, 64, 66
1, 78708, Control_c, 0, 64, 68
1, 78723, Control_c, 0, 64, 71
1, 78738, Control_c, 0, 64, 76
1, 78745, Note_off_c, 0, 58, 58
1, 78752, Control_c, 0, 64, 82
1, 78767, Control_c, 0, 64, 88
1, 78779, Note_on_c, 0, 66, 46
1, 78782, Control_c, 0, 64, 95
1, 78785, Note_off_c, 0, 68, 35
1, 78797, Control_c, 0, 64, 103
1, 78812, Control_c, 0, 64, 120
1, 78826, Note_off_c, 0, 66, 59
1, 78826, Control_c, 0, 64, 127
1, 78843, Note_on_c, 0, 68, 31
1, 78876, Note_off_c, 0, 51, 51
1, 78887, Note_off_c, 0, 44, 30
1, 78898, Note_on_c, 0, 56, 64
1, 78913, Note_off_c, 0, 68, 51
1, 78944, Note_on_c, 0, 66, 43
1, 78994, Note_off_c, 0, 66, 57
1, 79015, Note_on_c, 0, 68, 40
1, 79034, Note_off_c, 0, 56, 52
1, 79111, Note_off_c, 0, 68, 54
1, 79133, Note_on_c, 0, 66, 41
1, 79159, Note_on_c, 0, 54, 66
1, 79210, Note_off_c, 0, 66, 59
1, 79238, Note_on_c, 0, 68, 43
1, 79290, Note_off_c, 0, 68, 58
1, 79353, Note_on_c, 0, 66, 25
1, 79384, Note_off_c, 0, 54, 37
1, 79392, Note_off_c, 0, 66, 49
1, 79423, Note_on_c, 0, 60, 68
1, 79425, Note_on_c, 0, 68, 47
1, 79476, Note_off_c, 0, 68, 58
1, 79503, Note_on_c, 0, 66, 40
1, 79546, Note_off_c, 0, 66, 57
1, 79569, Note_off_c, 0, 60, 54
1, 79580, Note_on_c, 0, 68, 42
1, 79613, Note_off_c, 0, 68, 57
1, 79714, Note_on_c, 0, 52, 51
1, 79721, Note_on_c, 0, 68, 51
1, 79753, Control_c, 0, 64, 91
1, 79768, Control_c, 0, 64, 74
1, 79783, Control_c, 0, 64, 65
1, 79792, Note_off_c, 0, 68, 54
1, 79798, Control_c, 0, 64, 62
1, 79813, Control_c, 0, 64, 62
1, 79828, Control_c, 0, 64, 63
1, 79831, Note_on_c, 0, 66, 19
1, 79843, Control_c, 0, 64, 65
1, 79857, Control_c, 0, 64, 67
1, 79872, Control_c, 0, 64, 71
1, 79887, Control_c, 0, 64, 75
1, 79893, Note_off_c, 0, 66, 56
1, 79902, Control_c, 0, 64, 79
1, 79917, Control_c, 0, 64, 83
1, 79922, Note_on_c, 0, 68, 38
1, 79932, Control_c, 0, 64, 88
1, 79947, Control_c, 0, 64, 93
1, 79969, Control_c, 0, 64, 98
1, 79977, Note_off_c, 0, 68, 58
1, 79984, Control_c, 0, 64, 102
1, 79999, Control_c, 0, 64, 106
1, 80013, Control_c, 0, 64, 109
1, 80014, Note_on_c, 0, 66, 33
1, 80028, Control_c, 0, 64, 115
1, 80043, Control_c, 0, 64, 127
1, 80057, Note_off_c, 0, 66, 49
1, 80074, Note_off_c, 0, 52, 35
1, 80108, Note_on_c, 0, 68, 28
1, 80144, Note_off_c, 0, 68, 50
1, 80165, Note_on_c, 0, 66, 42
1, 80217, Note_off_c, 0, 66, 57
1, 80243, Note_on_c, 0, 54, 64
1, 80261, Note_on_c, 0, 68, 38
1, 80301, Note_off_c, 0, 68, 55
1, 80335, Note_on_c, 0, 66, 43
1, 80381, Note_off_c, 0, 66, 61
1, 80385, Note_off_c, 0, 54, 52
1, 80424, Note_on_c, 0, 68, 42
1, 80473, Note_off_c, 0, 68, 52
1, 80488, Note_on_c, 0, 56, 66
1, 80502, Note_on_c, 0, 66, 43
1, 80523, Note_off_c, 0, 56, 66
1, 80551, Note_off_c, 0, 66, 58
1, 80581, Note_on_c, 0, 68, 33
1, 80683, Note_off_c, 0, 68, 37
1, 80713, Note_on_c, 0, 66, 31
1, 80747, Control_c, 0, 64, 120
1, 80762, Control_c, 0, 64, 89
1, 80763, Note_on_c, 0, 58, 61
1, 80770, Note_on_c, 0, 44, 51
1, 80777, Control_c, 0, 64, 71
1, 80791, Control_c, 0, 64, 65
1, 80794, Note_off_c, 0, 66, 54
1, 80806, Control_c, 0, 64, 65
1, 80807, Note_on_c, 0, 68, 16
1, 80821, Control_c, 0, 64, 67
1, 80835, Control_c, 0, 64, 70
1, 80850, Control_c, 0, 64, 74
1, 80862, Note_off_c, 0, 44, 59
1, 80865, Control_c, 0, 64, 83
1, 80880, Control_c, 0, 64, 91
1, 80895, Control_c, 0, 64, 99
1, 80905, Note_off_c, 0, 58, 56
1, 80910, Control_c, 0, 64, 105
1, 80919, Note_off_c, 0, 68, 44
1, 80925, Control_c, 0, 64, 113
1, 80940, Control_c, 0, 64, 127
1, 80945, Note_on_c, 0, 66, 43
1, 80999, Note_off_c, 0, 66, 58
1, 81035, Note_on_c, 0, 56, 68
1, 81041, Note_on_c, 0, 68, 46
1, 81047, Note_on_c, 0, 51, 57
1, 81089, Note_off_c, 0, 68, 59
1, 81123, Note_on_c, 0, 66, 44
1, 81161, Note_off_c, 0, 66, 62
1, 81175, Note_off_c, 0, 56, 54
1, 81184, Note_off_c, 0, 51, 52
1, 81187, Note_on_c, 0, 68, 61
1, 81245, Note_off_c, 0, 68, 53
1, 81259, Note_on_c, 0, 60, 72
1, 81264, Note_on_c, 0, 54, 66
1, 81268, Note_on_c, 0, 66, 57
1, 81331, Note_off_c, 0, 66, 60
1, 81340, Note_off_c, 0, 60, 61
1, 81346, Note_on_c, 0, 68, 63
1, 81346, Note_off_c, 0, 54, 62
1, 81417, Note_off_c, 0, 68, 58
1, 81420, Note_on_c, 0, 66, 61
1, 81509, Note_on_c, 0, 65, 79
1, 81509, Note_off_c, 0, 66, 61
1, 81512, Note_on_c, 0, 56, 74
1, 81524, Note_on_c, 0, 68, 63
1, 81534, Note_off_c, 0, 65, 67
1, 81553, Note_off_c, 0, 56, 62
1, 81593, Note_off_c, 0, 68, 59
1, 81605, Note_on_c, 0, 66, 60
1, 81682, Note_off_c, 0, 66, 58
1, 81713, Note_on_c, 0, 68, 50
1, 81732, Control_c, 0, 64, 93
1, 81747, Control_c, 0, 64, 72
1, 81762, Control_c, 0, 64, 59
1, 81765, Note_on_c, 0, 58, 57
1, 81771, Note_on_c, 0, 44, 52
1, 81774, Note_off_c, 0, 68, 57
1, 81776, Control_c, 0, 64, 49
1, 81791, Control_c, 0, 64, 55
1, 81806, Control_c, 0, 64, 58
1, 81816, Note_on_c, 0, 66, 43
1, 81821, Control_c, 0, 64, 62
1, 81836, Control_c, 0, 64, 66
1, 81851, Control_c, 0, 64, 71
1, 81852, Note_off_c, 0, 44, 61
1, 81865, Control_c, 0, 64, 79
1, 81875, Note_off_c, 0, 66, 59
1, 81880, Control_c, 0, 64, 87
1, 81888, Note_off_c, 0, 58, 61
1, 81895, Control_c, 0, 64, 92
1, 81904, Note_on_c, 0, 68, 59
1, 81910, Control_c, 0, 64, 95
1, 81924, Control_c, 0, 64, 98
1, 81939, Control_c, 0, 64, 103
1, 81954, Control_c, 0, 64, 110
1, 81969, Control_c, 0, 64, 120
1, 81973, Note_off_c, 0, 68, 56
1, 81983, Control_c, 0, 64, 127
1, 81995, Note_on_c, 0, 66, 57
1, 82004, Note_on_c, 0, 56, 74
1, 82005, Note_on_c, 0, 51, 71
1, 82066, Note_off_c, 0, 66, 62
1, 82079, Note_on_c, 0, 68, 68
1, 82144, Note_off_c, 0, 56, 57
1, 82149, Note_off_c, 0, 68, 56
1, 82150, Note_on_c, 0, 66, 64
1, 82156, Note_off_c, 0, 51, 59
1, 82248, Note_on_c, 0, 54, 77
1, 82248, Note_off_c, 0, 66, 62
1, 82249, Note_on_c, 0, 60, 81
1, 82255, Note_on_c, 0, 68, 70
1, 82326, Note_off_c, 0, 54, 62
1, 82329, Note_off_c, 0, 60, 63
1, 82335, Note_off_c, 0, 68, 57
1, 82352, Note_on_c, 0, 66, 56
1, 82470, Note_off_c, 0, 66, 61
1, 82476, Note_on_c, 0, 68, 65
1, 82607, Note_off_c, 0, 68, 61
1, 82618, Note_on_c, 0, 65, 83
1, 82620, Note_on_c, 0, 56, 78
1, 82645, Note_on_c, 0, 66, 49
1, 82688, Control_c, 0, 64, 90
1, 82703, Control_c, 0, 64, 73
1, 82718, Control_c, 0, 64, 64
1, 82733, Control_c, 0, 64, 60
1, 82747, Control_c, 0, 64, 61
1, 82762, Control_c, 0, 64, 63
1, 82768, Note_off_c, 0, 66, 61
1, 82777, Control_c, 0, 64, 64
1, 82789, Note_on_c, 0, 68, 54
1, 82792, Control_c, 0, 64, 67
1, 82806, Control_c, 0, 64, 70
1, 82821, Control_c, 0, 64, 76
1, 82836, Control_c, 0, 64, 81
1, 82849, Note_off_c, 0, 68, 60
1, 82851, Control_c, 0, 64, 87
1, 82866, Control_c, 0, 64, 92
1, 82876, Note_on_c, 0, 66, 60
1, 82880, Control_c, 0, 64, 99
1, 82895, Control_c, 0, 64, 111
1, 82910, Control_c, 0, 64, 127
1, 82973, Note_off_c, 0, 66, 61
1, 82976, Note_on_c, 0, 68, 79
1, 83006, Note_off_c, 0, 65, 55
1, 83044, Note_off_c, 0, 68, 60
1, 83071, Note_on_c, 0, 66, 59
1, 83123, Note_off_c, 0, 66, 56
1, 83155, Note_on_c, 0, 68, 60
1, 83198, Note_off_c, 0, 68, 56
1, 83249, Note_on_c, 0, 66, 46
1, 83281, Note_off_c, 0, 66, 60
1, 83319, Note_on_c, 0, 68, 53
1, 83357, Note_off_c, 0, 68, 64
1, 83377, Note_on_c, 0, 66, 56
1, 83452, Note_on_c, 0, 65, 84
1, 83467, Note_off_c, 0, 66, 59
1, 83483, Note_on_c, 0, 68, 58
1, 83532, Note_off_c, 0, 68, 58
1, 83564, Note_on_c, 0, 66, 52
1, 83587, Note_off_c, 0, 56, 30
1, 83604, Note_off_c, 0, 66, 61
1, 83649, Note_on_c, 0, 68, 51
1, 83652, Note_off_c, 0, 65, 52
1, 83686, Note_off_c, 0, 68, 64
1, 83727, Note_on_c, 0, 66, 50
1, 83771, Note_off_c, 0, 66, 61
1, 83792, Note_on_c, 0, 68, 56
1, 83836, Note_off_c, 0, 68, 59
1, 83889, Note_on_c, 0, 66, 44
1, 83926, Note_off_c, 0, 66, 60
1, 83966, Note_on_c, 0, 68, 46
1, 84005, Note_off_c, 0, 68, 58
1, 84042, Note_on_c, 0, 66, 38
1, 84096, Note_off_c, 0, 66, 57
1, 84121, Note_on_c, 0, 68, 44
1, 84180, Note_off_c, 0, 68, 54
1, 84243, Note_on_c, 0, 66, 31
1, 84279, Note_off_c, 0, 66, 50
1, 84320, Note_on_c, 0, 68, 37
1, 84364, Note_off_c, 0, 68, 52
1, 84409, Note_on_c, 0, 66, 38
1, 84478, Note_off_c, 0, 66, 51
1, 84550, Note_on_c, 0, 68, 19
1, 84573, Note_on_c, 0, 65, 53
1, 84632, Note_off_c, 0, 68, 38
1, 84651, Note_on_c, 0, 66, 34
1, 84720, Note_off_c, 0, 66, 55
1, 84773, Note_on_c, 0, 68, 34
1, 84824, Note_off_c, 0, 68, 52
1, 84871, Note_on_c, 0, 66, 35
1, 84935, Note_off_c, 0, 66, 54
1, 84983, Note_on_c, 0, 68, 39
1, 85050, Note_off_c, 0, 68, 52
1, 85110, Note_on_c, 0, 66, 33
1, 85193, Note_off_c, 0, 66, 48
1, 85429, Note_on_c, 0, 66, 34
1, 85476, Control_c, 0, 64, 120
1, 85491, Control_c, 0, 64, 87
1, 85507, Control_c, 0, 64, 72
1, 85521, Control_c, 0, 64, 62
1, 85536, Control_c, 0, 64, 60
1, 85551, Control_c, 0, 64, 62
1, 85566, Control_c, 0, 64, 63
1, 85580, Control_c, 0, 64, 65
1, 85595, Control_c, 0, 64, 68
1, 85610, Control_c, 0, 64, 73
1, 85624, Control_c, 0, 64, 78
1, 85639, Control_c, 0, 64, 84
1, 85654, Control_c, 0, 64, 88
1, 85669, Control_c, 0, 64, 92
1, 85676, Note_off_c, 0, 66, 40
1, 85684, Control_c, 0, 64, 98
1, 85696, Note_on_c, 0, 68, 33
1, 85698, Control_c, 0, 64, 108
1, 85713, Control_c, 0, 64, 127
1, 85789, Note_off_c, 0, 68, 34
1, 85833, Note_on_c, 0, 66, 29
1, 85980, Note_off_c, 0, 66, 39
1, 85983, Note_on_c, 0, 73, 52
1, 86021, Note_on_c, 0, 68, 23
1, 86070, Note_off_c, 0, 68, 48
1, 86072, Note_off_c, 0, 73, 55
1, 86115, Note_on_c, 0, 66, 34
1, 86160, Note_off_c, 0, 66, 53
1, 86216, Note_on_c, 0, 68, 31
1, 86259, Note_off_c, 0, 68, 52
1, 86290, Note_on_c, 0, 77, 63
1, 86303, Note_on_c, 0, 66, 30
1, 86326, Note_off_c, 0, 77, 63
1, 86341, Note_off_c, 0, 66, 52
1, 86392, Note_on_c, 0, 68, 40
1, 86429, Note_off_c, 0, 68, 58
1, 86481, Note_on_c, 0, 66, 22
1, 86523, Note_off_c, 0, 66, 49
1, 86562, Note_on_c, 0, 68, 35
1, 86587, Note_on_c, 0, 78, 65
1, 86606, Note_off_c, 0, 68, 54
1, 86622, Note_off_c, 0, 78, 63
1, 86651, Note_on_c, 0, 66, 29
1, 86686, Note_off_c, 0, 66, 53
1, 86745, Note_on_c, 0, 68, 40
1, 86776, Note_off_c, 0, 68, 55
1, 86811, Note_on_c, 0, 66, 35
1, 86846, Note_off_c, 0, 66, 57
1, 86900, Note_on_c, 0, 68, 38
1, 86937, Note_off_c, 0, 68, 58
1, 86968, Note_on_c, 0, 66, 41
1, 87007, Note_off_c, 0, 66, 61
1, 87063, Note_on_c, 0, 68, 40
1, 87099, Note_off_c, 0, 68, 59
1, 87146, Note_on_c, 0, 66, 34
1, 87165, Note_on_c, 0, 80, 65
1, 87175, Note_off_c, 0, 66, 56
1, 87205, Note_off_c, 0, 80, 57
1, 87239, Note_on_c, 0, 68, 34
1, 87271, Note_off_c, 0, 68, 51
1, 87299, Note_on_c, 0, 66, 38
1, 87336, Note_off_c, 0, 66, 62
1, 87363, Note_on_c, 0, 68, 50
1, 87393, Note_off_c, 0, 68, 61
1, 87419, Note_on_c, 0, 64, 59
1, 87419, Control_c, 0, 64, 86
1, 87434, Control_c, 0, 64, 71
1, 87451, Note_on_c, 0, 66, 46
1, 87456, Control_c, 0, 64, 67
1, 87464, Note_off_c, 0, 65, 24
1, 87471, Control_c, 0, 64, 69
1, 87486, Control_c, 0, 64, 72
1, 87501, Control_c, 0, 64, 77
1, 87506, Note_off_c, 0, 66, 50
1, 87516, Control_c, 0, 64, 87
1, 87531, Control_c, 0, 64, 101
1, 87545, Control_c, 0, 64, 127
1, 87614, Note_on_c, 0, 68, 14
1, 87658, Note_off_c, 0, 68, 38
1, 87665, Note_on_c, 0, 66, 33
1, 87695, Note_on_c, 0, 85, 67
1, 87696, Note_off_c, 0, 66, 53
1, 87723, Note_off_c, 0, 85, 68
1, 87781, Note_on_c, 0, 68, 22
1, 87819, Note_off_c, 0, 68, 43
1, 87838, Note_on_c, 0, 66, 25
1, 87872, Note_off_c, 0, 66, 50
1, 87930, Note_on_c, 0, 63, 55
1, 87931, Note_off_c, 0, 64, 40
1, 87931, Control_c, 0, 64, 97
1, 87946, Control_c, 0, 64, 75
1, 87961, Control_c, 0, 64, 66
1, 87966, Note_on_c, 0, 66, 49
1, 87990, Control_c, 0, 64, 68
1, 88005, Control_c, 0, 64, 71
1, 88019, Control_c, 0, 64, 78
1, 88034, Control_c, 0, 64, 89
1, 88037, Note_off_c, 0, 66, 57
1, 88049, Control_c, 0, 64, 102
1, 88064, Control_c, 0, 64, 113
1, 88079, Control_c, 0, 64, 116
1, 88103, Note_on_c, 0, 68, 39
1, 88138, Note_off_c, 0, 68, 52
1, 88139, Control_c, 0, 64, 117
1, 88154, Control_c, 0, 64, 119
1, 88168, Control_c, 0, 64, 120
1, 88183, Control_c, 0, 64, 122
1, 88198, Note_on_c, 0, 66, 31
1, 88207, Note_on_c, 0, 80, 65
1, 88234, Note_off_c, 0, 66, 49
1, 88237, Note_off_c, 0, 80, 67
1, 88279, Control_c, 0, 64, 125
1, 88288, Note_on_c, 0, 68, 34
1, 88294, Control_c, 0, 64, 127
1, 88318, Note_off_c, 0, 68, 53
1, 88344, Note_on_c, 0, 66, 45
1, 88380, Note_off_c, 0, 66, 62
1, 88418, Note_on_c, 0, 68, 47
1, 88456, Note_off_c, 0, 68, 59
1, 88457, Control_c, 0, 64, 102
1, 88464, Note_on_c, 0, 62, 56
1, 88472, Control_c, 0, 64, 78
1, 88487, Control_c, 0, 64, 65
1, 88487, Note_off_c, 0, 63, 34
1, 88489, Note_on_c, 0, 66, 51
1, 88501, Control_c, 0, 64, 61
1, 88516, Control_c, 0, 64, 63
1, 88531, Control_c, 0, 64, 65
1, 88532, Note_off_c, 0, 66, 57
1, 88546, Control_c, 0, 64, 68
1, 88561, Control_c, 0, 64, 73
1, 88575, Control_c, 0, 64, 79
1, 88590, Control_c, 0, 64, 87
1, 88605, Control_c, 0, 64, 91
1, 88611, Note_on_c, 0, 68, 42
1, 88619, Control_c, 0, 64, 91
1, 88648, Note_off_c, 0, 68, 59
1, 88649, Control_c, 0, 64, 92
1, 88664, Control_c, 0, 64, 92
1, 88679, Control_c, 0, 64, 93
1, 88695, Control_c, 0, 64, 93
1, 88708, Note_on_c, 0, 82, 64
1, 88710, Control_c, 0, 64, 95
1, 88724, Control_c, 0, 64, 97
1, 88736, Note_off_c, 0, 82, 68
1, 88738, Poly_aftertouch_c, 0, 66, 127
1, 88739, Control_c, 0, 64, 98
1, 88754, Control_c, 0, 64, 99
1, 88768, Note_on_c, 0, 68, 52
1, 88780, Poly_aftertouch_c, 0, 66, 0
1, 88784, Control_c, 0, 64, 100
1, 88798, Control_c, 0, 64, 101
1, 88813, Control_c, 0, 64, 105
1, 88815, Note_off_c, 0, 68, 58
1, 88828, Control_c, 0, 64, 109
1, 88842, Control_c, 0, 64, 115
1, 88857, Control_c, 0, 64, 125
1, 88872, Control_c, 0, 64, 127
1, 88932, Control_c, 0, 64, 105
1, 88941, Note_on_c, 0, 68, 42
1, 88954, Control_c, 0, 64, 85
1, 88969, Control_c, 0, 64, 69
1, 88971, Note_off_c, 0, 68, 52
1, 88976, Note_on_c, 0, 61, 45
1, 88976, Note_on_c, 0, 63, 49
1, 88984, Note_on_c, 0, 66, 34
1, 88984, Control_c, 0, 64, 65
1, 88986, Note_off_c, 0, 62, 43
1, 88998, Control_c, 0, 64, 67
1, 89013, Control_c, 0, 64, 69
1, 89028, Control_c, 0, 64, 71
1, 89042, Control_c, 0, 64, 77
1, 89048, Note_off_c, 0, 66, 51
1, 89057, Control_c, 0, 64, 85
1, 89072, Control_c, 0, 64, 93
1, 89087, Control_c, 0, 64, 99
1, 89100, Note_off_c, 0, 63, 34
1, 89102, Control_c, 0, 64, 101
1, 89109, Note_on_c, 0, 68, 37
1, 89116, Control_c, 0, 64, 101
1, 89146, Control_c, 0, 64, 102
1, 89161, Control_c, 0, 64, 103
1, 89176, Control_c, 0, 64, 105
1, 89184, Note_off_c, 0, 68, 54
1, 89191, Control_c, 0, 64, 107
1, 89206, Control_c, 0, 64, 109
1, 89218, Note_on_c, 0, 80, 57
1, 89221, Control_c, 0, 64, 109
1, 89236, Control_c, 0, 64, 110
1, 89255, Note_off_c, 0, 80, 63
1, 89265, Control_c, 0, 64, 110
1, 89280, Control_c, 0, 64, 111
1, 89295, Control_c, 0, 64, 112
1, 89309, Control_c, 0, 64, 112
1, 89313, Poly_aftertouch_c, 0, 63, 0
1, 89315, Note_on_c, 0, 68, 52
1, 89323, Control_c, 0, 64, 113
1, 89338, Control_c, 0, 64, 115
1, 89341, Note_off_c, 0, 61, 43
1, 89349, Note_off_c, 0, 68, 58
1, 89353, Control_c, 0, 64, 119
1, 89368, Control_c, 0, 64, 122
1, 89383, Control_c, 0, 64, 125
1, 89397, Control_c, 0, 64, 127
1, 89437, Note_on_c, 0, 63, 39
1, 89448, Note_on_c, 0, 66, 11
1, 89450, Note_on_c, 0, 60, 52
1, 89456, Control_c, 0, 64, 116
1, 89471, Control_c, 0, 64, 103
1, 89487, Control_c, 0, 64, 87
1, 89502, Control_c, 0, 64, 73
1, 89517, Control_c, 0, 64, 66
1, 89532, Control_c, 0, 64, 66
1, 89546, Control_c, 0, 64, 68
1, 89556, Note_off_c, 0, 66, 53
1, 89561, Control_c, 0, 64, 70
1, 89576, Control_c, 0, 64, 73
1, 89591, Control_c, 0, 64, 79
1, 89594, Note_on_c, 0, 68, 39
1, 89606, Control_c, 0, 64, 85
1, 89620, Control_c, 0, 64, 93
1, 89635, Control_c, 0, 64, 98
1, 89650, Control_c, 0, 64, 99
1, 89652, Note_off_c, 0, 68, 57
1, 89665, Control_c, 0, 64, 100
1, 89680, Control_c, 0, 64, 100
1, 89708, Note_on_c, 0, 66, 34
1, 89717, Control_c, 0, 64, 101
1, 89732, Control_c, 0, 64, 101
1, 89746, Control_c, 0, 64, 102
1, 89754, Note_off_c, 0, 66, 47
1, 89761, Control_c, 0, 64, 102
1, 89773, Note_on_c, 0, 78, 57
1, 89776, Control_c, 0, 64, 103
1, 89791, Control_c, 0, 64, 103
1, 89806, Control_c, 0, 64, 104
1, 89820, Note_on_c, 0, 68, 29
1, 89820, Control_c, 0, 64, 105
1, 89825, Note_off_c, 0, 78, 57
1, 89835, Control_c, 0, 64, 107
1, 89850, Control_c, 0, 64, 108
1, 89860, Note_off_c, 0, 68, 50
1, 89865, Control_c, 0, 64, 109
1, 89880, Control_c, 0, 64, 109
1, 89881, Note_off_c, 0, 60, 40
1, 89914, Note_on_c, 0, 66, 22
1, 89960, Note_off_c, 0, 66, 47
1, 89964, Note_off_c, 0, 63, 40
1, 90023, Note_on_c, 0, 68, 12
1, 90075, Note_off_c, 0, 68, 44
1, 90152, Note_on_c, 0, 59, 45
1, 90155, Note_on_c, 0, 66, 41
1, 90161, Note_on_c, 0, 62, 36
1, 90176, Control_c, 0, 64, 104
1, 90190, Control_c, 0, 64, 94
1, 90205, Control_c, 0, 64, 81
1, 90220, Control_c, 0, 64, 71
1, 90235, Control_c, 0, 64, 65
1, 90250, Control_c, 0, 64, 64
1, 90264, Control_c, 0, 64, 65
1, 90270, Note_off_c, 0, 66, 52
1, 90279, Control_c, 0, 64, 66
1, 90295, Control_c, 0, 64, 69
1, 90310, Control_c, 0, 64, 74
1, 90325, Control_c, 0, 64, 82
1, 90340, Control_c, 0, 64, 90
1, 90351, Note_on_c, 0, 68, 39
1, 90355, Control_c, 0, 64, 98
1, 90369, Control_c, 0, 64, 103
1, 90384, Control_c, 0, 64, 109
1, 90399, Control_c, 0, 64, 125
1, 90407, Note_off_c, 0, 68, 54
1, 90414, Control_c, 0, 64, 127
1, 90450, Note_on_c, 0, 66, 35
1, 90510, Note_off_c, 0, 66, 53
1, 90556, Note_on_c, 0, 77, 62
1, 90577, Note_on_c, 0, 68, 40
1, 90625, Note_off_c, 0, 77, 63
1, 90634, Note_off_c, 0, 68, 57
1, 90672, Note_on_c, 0, 66, 38
1, 90711, Note_off_c, 0, 66, 58
1, 90788, Note_on_c, 0, 68, 34
1, 90822, Note_off_c, 0, 68, 55
1, 90845, Note_on_c, 0, 66, 49
1, 90893, Note_off_c, 0, 66, 59
1, 90950, Note_on_c, 0, 68, 41
1, 91005, Note_off_c, 0, 68, 57
1, 91033, Note_on_c, 0, 66, 45
1, 91041, Note_on_c, 0, 77, 72
1, 91066, Note_off_c, 0, 66, 63
1, 91083, Note_off_c, 0, 77, 57
1, 91146, Note_on_c, 0, 68, 38
1, 91179, Note_off_c, 0, 68, 54
1, 91214, Note_on_c, 0, 66, 42
1, 91217, Note_off_c, 0, 59, 5
1, 91229, Note_on_c, 0, 80, 72
1, 91251, Note_off_c, 0, 66, 61
1, 91260, Note_off_c, 0, 62, 49
1, 91284, Note_off_c, 0, 80, 60
1, 91299, Note_on_c, 0, 68, 39
1, 91350, Note_off_c, 0, 68, 57
1, 91382, Note_on_c, 0, 66, 44
1, 91385, Note_on_c, 0, 60, 55
1, 91391, Note_on_c, 0, 63, 43
1, 91422, Control_c, 0, 64, 96
1, 91436, Control_c, 0, 64, 80
1, 91451, Control_c, 0, 64, 76
1, 91466, Control_c, 0, 64, 79
1, 91477, Note_off_c, 0, 66, 54
1, 91481, Control_c, 0, 64, 83
1, 91496, Control_c, 0, 64, 91
1, 91510, Control_c, 0, 64, 105
1, 91525, Control_c, 0, 64, 127
1, 91536, Note_on_c, 0, 68, 42
1, 91582, Note_off_c, 0, 68, 59
1, 91624, Note_on_c, 0, 66, 43
1, 91680, Note_off_c, 0, 66, 58
1, 91709, Note_on_c, 0, 77, 68
1, 91741, Note_on_c, 0, 68, 36
1, 91753, Note_off_c, 0, 77, 57
1, 91787, Note_off_c, 0, 68, 57
1, 91842, Note_on_c, 0, 66, 31
1, 91879, Note_off_c, 0, 66, 54
1, 91926, Note_on_c, 0, 68, 44
1, 91999, Note_off_c, 0, 68, 56
1, 92038, Note_on_c, 0, 66, 40
1, 92084, Note_off_c, 0, 66, 61
1, 92147, Note_on_c, 0, 68, 39
1, 92199, Note_off_c, 0, 68, 53
1, 92251, Note_on_c, 0, 77, 57
1, 92281, Note_on_c, 0, 66, 17
1, 92291, Note_off_c, 0, 77, 61
1, 92320, Note_off_c, 0, 66, 47
1, 92431, Note_off_c, 0, 60, 40
1, 92458, Note_on_c, 0, 80, 52
1, 92489, Poly_aftertouch_c, 0, 66, 127
1, 92491, Note_off_c, 0, 63, 50
1, 92526, Note_off_c, 0, 80, 51
1, 92530, Poly_aftertouch_c, 0, 66, 0
1, 92559, Note_on_c, 0, 68, 23
1, 92602, Note_off_c, 0, 68, 49
1, 92655, Note_on_c, 0, 66, 44
1, 92659, Note_on_c, 0, 62, 32
1, 92663, Note_on_c, 0, 59, 37
1, 92726, Note_on_c, 0, 77, 52
1, 92741, Control_c, 0, 64, 107
1, 92756, Note_off_c, 0, 66, 58
1, 92756, Control_c, 0, 64, 91
1, 92771, Control_c, 0, 64, 81
1, 92786, Control_c, 0, 64, 76
1, 92816, Control_c, 0, 64, 77
1, 92831, Control_c, 0, 64, 79
1, 92831, Note_on_c, 0, 68, 38
1, 92845, Control_c, 0, 64, 81
1, 92854, Note_off_c, 0, 77, 58
1, 92860, Control_c, 0, 64, 85
1, 92875, Control_c, 0, 64, 91
1, 92887, Note_off_c, 0, 68, 58
1, 92889, Control_c, 0, 64, 94
1, 92904, Control_c, 0, 64, 98
1, 92910, Note_on_c, 0, 66, 44
1, 92917, Note_on_c, 0, 74, 63
1, 92919, Control_c, 0, 64, 101
1, 92934, Control_c, 0, 64, 105
1, 92940, Note_off_c, 0, 66, 59
1, 92949, Control_c, 0, 64, 107
1, 92963, Control_c, 0, 64, 109
1, 92978, Control_c, 0, 64, 110
1, 92993, Control_c, 0, 64, 112
1, 93008, Control_c, 0, 64, 115
1, 93014, Note_on_c, 0, 68, 47
1, 93018, Note_off_c, 0, 74, 58
1, 93023, Control_c, 0, 64, 115
1, 93037, Control_c, 0, 64, 116
1, 93050, Note_off_c, 0, 68, 51
1, 93052, Note_off_c, 0, 59, 39
1, 93053, Note_on_c, 0, 66, 41
1, 93064, Note_on_c, 0, 77, 76
1, 93067, Control_c, 0, 64, 117
1, 93081, Note_off_c, 0, 62, 53
1, 93081, Control_c, 0, 64, 120
1, 93090, Note_off_c, 0, 66, 59
1, 93096, Control_c, 0, 64, 122
1, 93123, Note_on_c, 0, 68, 33
1, 93181, Note_off_c, 0, 68, 53
1, 93185, Control_c, 0, 64, 119
1, 93193, Note_on_c, 0, 60, 46
1, 93200, Control_c, 0, 64, 115
1, 93206, Note_on_c, 0, 63, 46
1, 93215, Control_c, 0, 64, 109
1, 93216, Note_on_c, 0, 66, 43
1, 93230, Control_c, 0, 64, 97
1, 93245, Control_c, 0, 64, 80
1, 93260, Control_c, 0, 64, 70
1, 93268, Note_on_c, 0, 80, 63
1, 93275, Control_c, 0, 64, 66
1, 93281, Note_off_c, 0, 77, 59
1, 93289, Control_c, 0, 64, 65
1, 93311, Note_off_c, 0, 66, 59
1, 93319, Control_c, 0, 64, 66
1, 93334, Control_c, 0, 64, 68
1, 93349, Control_c, 0, 64, 72
1, 93363, Control_c, 0, 64, 79
1, 93378, Control_c, 0, 64, 86
1, 93382, Note_on_c, 0, 68, 37
1, 93393, Control_c, 0, 64, 92
1, 93407, Control_c, 0, 64, 94
1, 93435, Note_off_c, 0, 68, 56
1, 93442, Note_off_c, 0, 80, 58
1, 93471, Note_on_c, 0, 84, 47
1, 93474, Control_c, 0, 64, 95
1, 93476, Note_on_c, 0, 66, 35
1, 93505, Control_c, 0, 64, 96
1, 93513, Note_off_c, 0, 66, 52
1, 93519, Control_c, 0, 64, 96
1, 93591, Note_on_c, 0, 68, 15
1, 93633, Note_off_c, 0, 60, 40
1, 93633, Note_off_c, 0, 68, 40
1, 93641, Note_on_c, 0, 66, 29
1, 93650, Note_on_c, 0, 80, 54
1, 93657, Note_off_c, 0, 63, 54
1, 93680, Note_off_c, 0, 66, 50
1, 93716, Note_on_c, 0, 68, 32
1, 93716, Note_off_c, 0, 84, 34
1, 93727, Control_c, 0, 64, 96
1, 93742, Control_c, 0, 64, 94
1, 93752, Note_off_c, 0, 68, 52
1, 93757, Control_c, 0, 64, 91
1, 93772, Control_c, 0, 64, 83
1, 93786, Control_c, 0, 64, 72
1, 93798, Note_on_c, 0, 62, 35
1, 93801, Note_on_c, 0, 66, 32
1, 93801, Control_c, 0, 64, 63
1, 93809, Note_on_c, 0, 59, 46
1, 93814, Note_on_c, 0, 77, 60
1, 93816, Note_off_c, 0, 80, 45
1, 93816, Control_c, 0, 64, 61
1, 93830, Control_c, 0, 64, 63
1, 93845, Control_c, 0, 64, 64
1, 93860, Control_c, 0, 64, 65
1, 93873, Note_off_c, 0, 66, 59
1, 93875, Control_c, 0, 64, 68
1, 93890, Control_c, 0, 64, 72
1, 93904, Control_c, 0, 64, 78
1, 93912, Note_on_c, 0, 68, 50
1, 93919, Control_c, 0, 64, 82
1, 93934, Control_c, 0, 64, 84
1, 93939, Note_off_c, 0, 77, 56
1, 93964, Control_c, 0, 64, 84
1, 93974, Note_off_c, 0, 68, 56
1, 93978, Control_c, 0, 64, 85
1, 93982, Note_on_c, 0, 74, 68
1, 93993, Control_c, 0, 64, 87
1, 94008, Note_on_c, 0, 66, 47
1, 94008, Control_c, 0, 64, 90
1, 94023, Control_c, 0, 64, 91
1, 94038, Note_off_c, 0, 66, 60
1, 94038, Control_c, 0, 64, 92
1, 94053, Control_c, 0, 64, 92
1, 94081, Note_off_c, 0, 74, 60
1, 94083, Control_c, 0, 64, 93
1, 94097, Control_c, 0, 64, 94
1, 94101, Note_on_c, 0, 68, 53
1, 94112, Control_c, 0, 64, 94
1, 94127, Control_c, 0, 64, 95
1, 94139, Note_on_c, 0, 66, 47
1, 94142, Control_c, 0, 64, 96
1, 94148, Note_on_c, 0, 77, 78
1, 94150, Note_off_c, 0, 59, 40
1, 94150, Note_off_c, 0, 68, 43
1, 94157, Control_c, 0, 64, 98
1, 94172, Control_c, 0, 64, 98
1, 94187, Note_off_c, 0, 66, 60
1, 94191, Note_off_c, 0, 62, 40
1, 94208, Note_on_c, 0, 68, 36
1, 94272, Note_off_c, 0, 68, 55
1, 94283, Control_c, 0, 64, 98
1, 94298, Control_c, 0, 64, 97
1, 94300, Note_on_c, 0, 60, 48
1, 94311, Note_on_c, 0, 63, 43
1, 94313, Control_c, 0, 64, 95
1, 94328, Control_c, 0, 64, 92
1, 94330, Note_on_c, 0, 66, 40
1, 94342, Control_c, 0, 64, 86
1, 94357, Control_c, 0, 64, 76
1, 94372, Control_c, 0, 64, 63
1, 94387, Control_c, 0, 64, 31
1, 94389, Note_on_c, 0, 80, 53
1, 94402, Control_c, 0, 64, 0
1, 94438, Note_off_c, 0, 77, 56
1, 94485, Note_off_c, 0, 66, 42
1, 94511, Note_on_c, 0, 68, 36
1, 94535, Control_c, 0, 64, 18
1, 94551, Control_c, 0, 64, 47
1, 94565, Control_c, 0, 64, 57
1, 94580, Control_c, 0, 64, 62
1, 94595, Control_c, 0, 64, 64
1, 94610, Control_c, 0, 64, 66
1, 94613, Note_off_c, 0, 68, 56
1, 94625, Control_c, 0, 64, 71
1, 94634, Note_on_c, 0, 84, 46
1, 94640, Control_c, 0, 64, 84
1, 94642, Note_on_c, 0, 66, 38
1, 94655, Control_c, 0, 64, 107
1, 94655, Note_off_c, 0, 80, 54
1, 94669, Control_c, 0, 64, 127
1, 94706, Note_off_c, 0, 66, 57
1, 94844, Note_on_c, 0, 80, 46
1, 94850, Note_on_c, 0, 66, 39
1, 94947, Note_off_c, 0, 66, 47
1, 94958, Note_off_c, 0, 84, 36
1, 94961, Note_off_c, 0, 63, 40
1, 94979, Note_off_c, 0, 60, 39
1, 94988, Note_on_c, 0, 68, 42
1, 95057, Note_off_c, 0, 68, 47
1, 95212, Note_on_c, 0, 59, 42
1, 95226, Control_c, 0, 64, 95
1, 95240, Control_c, 0, 64, 77
1, 95255, Control_c, 0, 64, 65
1, 95270, Control_c, 0, 64, 54
1, 95284, Control_c, 0, 64, 50
1, 95299, Control_c, 0, 64, 55
1, 95314, Control_c, 0, 64, 60
1, 95329, Control_c, 0, 64, 63
1, 95344, Control_c, 0, 64, 66
1, 95358, Control_c, 0, 64, 71
1, 95369, Note_off_c, 0, 59, 35
1, 95373, Note_on_c, 0, 62, 34
1, 95373, Control_c, 0, 64, 79
1, 95388, Control_c, 0, 64, 93
1, 95403, Control_c, 0, 64, 116
1, 95418, Control_c, 0, 64, 127
1, 95426, Note_off_c, 0, 62, 61
1, 95432, Note_off_c, 0, 80, 38
1, 95496, Note_on_c, 0, 59, 38
1, 95532, Note_off_c, 0, 59, 59
1, 95569, Note_on_c, 0, 62, 39
1, 95613, Note_off_c, 0, 62, 62
1, 95648, Note_on_c, 0, 59, 40
1, 95702, Note_off_c, 0, 59, 61
1, 95738, Note_on_c, 0, 62, 45
1, 95785, Note_off_c, 0, 62, 61
1, 95835, Note_on_c, 0, 59, 34
1, 95870, Note_off_c, 0, 59, 57
1, 95898, Note_on_c, 0, 62, 48
1, 95938, Note_off_c, 0, 62, 60
1, 95974, Note_on_c, 0, 59, 46
1, 96020, Note_off_c, 0, 59, 61
1, 96077, Note_on_c, 0, 62, 36
1, 96110, Note_off_c, 0, 62, 53
1, 96148, Note_on_c, 0, 59, 43
1, 96190, Note_off_c, 0, 59, 62
1, 96212, Note_on_c, 0, 62, 43
1, 96268, Note_off_c, 0, 62, 55
1, 96285, Note_on_c, 0, 50, 49
1, 96336, Note_off_c, 0, 50, 61
1, 96359, Control_c, 0, 64, 125
1, 96374, Control_c, 0, 64, 122
1, 96375, Note_on_c, 0, 53, 49
1, 96388, Control_c, 0, 64, 120
1, 96403, Control_c, 0, 64, 119
1, 96418, Control_c, 0, 64, 117
1, 96436, Note_off_c, 0, 53, 59
1, 96455, Control_c, 0, 64, 116
1, 96462, Note_on_c, 0, 50, 47
1, 96485, Control_c, 0, 64, 115
1, 96500, Control_c, 0, 64, 114
1, 96508, Note_off_c, 0, 50, 62
1, 96514, Control_c, 0, 64, 113
1, 96529, Control_c, 0, 64, 112
1, 96544, Control_c, 0, 64, 110
1, 96553, Note_on_c, 0, 53, 48
1, 96559, Control_c, 0, 64, 108
1, 96574, Control_c, 0, 64, 107
1, 96588, Control_c, 0, 64, 106
1, 96599, Note_off_c, 0, 53, 60
1, 96603, Control_c, 0, 64, 105
1, 96618, Control_c, 0, 64, 104
1, 96629, Note_on_c, 0, 50, 44
1, 96632, Control_c, 0, 64, 103
1, 96647, Control_c, 0, 64, 102
1, 96662, Control_c, 0, 64, 101
1, 96678, Control_c, 0, 64, 100
1, 96682, Note_off_c, 0, 50, 59
1, 96693, Control_c, 0, 64, 99
1, 96708, Control_c, 0, 64, 99
1, 96722, Note_on_c, 0, 53, 45
1, 96723, Control_c, 0, 64, 98
1, 96737, Control_c, 0, 64, 98
1, 96752, Control_c, 0, 64, 97
1, 96767, Control_c, 0, 64, 96
1, 96771, Note_off_c, 0, 53, 57
1, 96782, Control_c, 0, 64, 95
1, 96797, Control_c, 0, 64, 95
1, 96811, Control_c, 0, 64, 94
1, 96813, Note_on_c, 0, 50, 38
1, 96826, Control_c, 0, 64, 94
1, 96856, Control_c, 0, 64, 93
1, 96874, Note_off_c, 0, 50, 57
1, 96885, Control_c, 0, 64, 93
1, 96911, Note_on_c, 0, 53, 41
1, 96915, Control_c, 0, 64, 92
1, 96959, Control_c, 0, 64, 92
1, 96972, Note_off_c, 0, 53, 56
1, 97004, Control_c, 0, 64, 91
1, 97018, Note_on_c, 0, 50, 36
1, 97063, Control_c, 0, 64, 91
1, 97084, Note_off_c, 0, 50, 54
1, 97123, Note_on_c, 0, 53, 42
1, 97231, Note_off_c, 0, 53, 52
1, 97264, Note_on_c, 0, 50, 40
1, 97341, Note_off_c, 0, 50, 53
1, 97367, Control_c, 0, 64, 90
1, 97395, Note_on_c, 0, 53, 48
1, 97454, Note_off_c, 0, 53, 60
1, 97575, Control_c, 0, 64, 90
1, 97605, Control_c, 0, 64, 88
1, 97620, Control_c, 0, 64, 82
1, 97634, Control_c, 0, 64, 73
1, 97642, Note_on_c, 0, 31, 31
1, 97645, Note_on_c, 0, 43, 31
1, 97648, Note_on_c, 0, 47, 40
1, 97649, Control_c, 0, 64, 64
1, 97664, Control_c, 0, 64, 52
1, 97678, Control_c, 0, 64, 43
1, 97693, Control_c, 0, 64, 47
1, 97708, Control_c, 0, 64, 55
1, 97723, Control_c, 0, 64, 59
1, 97725, Note_off_c, 0, 47, 52
1, 97738, Control_c, 0, 64, 62
1, 97752, Control_c, 0, 64, 65
1, 97767, Control_c, 0, 64, 68
1, 97770, Note_on_c, 0, 55, 44
1, 97782, Control_c, 0, 64, 73
1, 97797, Control_c, 0, 64, 79
1, 97812, Control_c, 0, 64, 85
1, 97827, Control_c, 0, 64, 89
1, 97840, Note_off_c, 0, 55, 60
1, 97841, Control_c, 0, 64, 92
1, 97852, Note_on_c, 0, 59, 56
1, 97856, Control_c, 0, 64, 94
1, 97871, Control_c, 0, 64, 94
1, 97883, Note_off_c, 0, 59, 63
1, 97916, Control_c, 0, 64, 94
1, 97952, Control_c, 0, 64, 93
1, 97977, Note_on_c, 0, 59, 51
1, 97982, Control_c, 0, 64, 93
1, 98012, Control_c, 0, 64, 92
1, 98014, Note_off_c, 0, 59, 59
1, 98036, Note_on_c, 0, 67, 52
1, 98041, Control_c, 0, 64, 92
1, 98056, Control_c, 0, 64, 91
1, 98071, Control_c, 0, 64, 91
1, 98097, Note_off_c, 0, 67, 59
1, 98101, Control_c, 0, 64, 90
1, 98113, Note_on_c, 0, 71, 59
1, 98155, Note_off_c, 0, 71, 56
1, 98175, Control_c, 0, 64, 90
1, 98202, Note_on_c, 0, 67, 50
1, 98220, Control_c, 0, 64, 89
1, 98223, Note_off_c, 0, 67, 62
1, 98277, Note_on_c, 0, 59, 49
1, 98337, Note_off_c, 0, 59, 0
1, 98339, Control_c, 0, 64, 89
1, 98351, Note_on_c, 0, 59, 38
1, 98420, Note_off_c, 0, 59, 61
1, 98446, Note_on_c, 0, 55, 52
1, 98494, Note_off_c, 0, 55, 61
1, 98553, Note_on_c, 0, 47, 41
1, 98601, Note_off_c, 0, 47, 55
1, 98631, Note_on_c, 0, 55, 49
1, 98687, Note_off_c, 0, 55, 63
1, 98700, Note_on_c, 0, 59, 52
1, 98727, Note_off_c, 0, 59, 59
1, 98818, Note_on_c, 0, 59, 50
1, 98849, Note_off_c, 0, 59, 56
1, 98881, Note_on_c, 0, 67, 58
1, 98935, Note_off_c, 0, 67, 57
1, 98950, Note_on_c, 0, 71, 66
1, 99002, Note_off_c, 0, 71, 55
1, 99025, Note_on_c, 0, 67, 56
1, 99053, Note_off_c, 0, 67, 62
1, 99063, Note_off_c, 0, 31, 35
1, 99078, Note_off_c, 0, 43, 36
1, 99098, Note_on_c, 0, 59, 50
1, 99124, Note_off_c, 0, 59, 56
1, 99200, Note_on_c, 0, 59, 33
1, 99242, Note_off_c, 0, 59, 50
1, 99260, Note_on_c, 0, 55, 60
1, 99281, Control_c, 0, 64, 88
1, 99296, Control_c, 0, 64, 88
1, 99311, Note_off_c, 0, 55, 56
1, 99311, Control_c, 0, 64, 87
1, 99325, Control_c, 0, 64, 84
1, 99340, Control_c, 0, 64, 77
1, 99348, Note_on_c, 0, 43, 57
1, 99352, Note_on_c, 0, 31, 52
1, 99355, Control_c, 0, 64, 66
1, 99370, Control_c, 0, 64, 54
1, 99373, Note_on_c, 0, 47, 48
1, 99385, Control_c, 0, 64, 40
1, 99399, Control_c, 0, 64, 45
1, 99414, Control_c, 0, 64, 51
1, 99415, Note_off_c, 0, 47, 58
1, 99436, Control_c, 0, 64, 58
1, 99451, Control_c, 0, 64, 62
1, 99455, Note_on_c, 0, 55, 46
1, 99466, Control_c, 0, 64, 66
1, 99481, Control_c, 0, 64, 70
1, 99496, Control_c, 0, 64, 78
1, 99508, Note_off_c, 0, 55, 65
1, 99511, Control_c, 0, 64, 84
1, 99511, Note_on_c, 0, 59, 57
1, 99526, Control_c, 0, 64, 87
1, 99540, Note_off_c, 0, 59, 63
1, 99540, Control_c, 0, 64, 87
1, 99570, Control_c, 0, 64, 87
1, 99599, Control_c, 0, 64, 86
1, 99629, Note_on_c, 0, 59, 50
1, 99629, Control_c, 0, 64, 86
1, 99644, Control_c, 0, 64, 85
1, 99666, Note_off_c, 0, 59, 61
1, 99682, Note_on_c, 0, 67, 58
1, 99688, Control_c, 0, 64, 85
1, 99732, Control_c, 0, 64, 84
1, 99746, Note_off_c, 0, 67, 60
1, 99756, Note_on_c, 0, 71, 67
1, 99791, Control_c, 0, 64, 84
1, 99806, Note_off_c, 0, 71, 55
1, 99819, Note_on_c, 0, 67, 56
1, 99855, Note_off_c, 0, 67, 64
1, 99906, Note_on_c, 0, 59, 48
1, 99927, Note_off_c, 0, 59, 61
1, 99997, Note_on_c, 0, 59, 49
1, 100030, Note_off_c, 0, 59, 63
1, 100047, Note_on_c, 0, 55, 66
1, 100059, Control_c, 0, 64, 83
1, 100074, Control_c, 0, 64, 82
1, 100085, Note_off_c, 0, 55, 65
1, 100089, Control_c, 0, 64, 74
1, 100103, Control_c, 0, 64, 64
1, 100118, Control_c, 0, 64, 52
1, 100133, Control_c, 0, 64, 54
1, 100140, Note_on_c, 0, 49, 68
1, 100147, Control_c, 0, 64, 58
1, 100162, Control_c, 0, 64, 62
1, 100178, Note_off_c, 0, 49, 65
1, 100184, Control_c, 0, 64, 66
1, 100199, Control_c, 0, 64, 73
1, 100214, Control_c, 0, 64, 87
1, 100229, Control_c, 0, 64, 106
1, 100238, Note_on_c, 0, 49, 71
1, 100244, Control_c, 0, 64, 112
1, 100274, Control_c, 0, 64, 109
1, 100288, Control_c, 0, 64, 108
1, 100296, Note_off_c, 0, 49, 53
1, 100303, Control_c, 0, 64, 106
1, 100318, Control_c, 0, 64, 105
1, 100322, Note_on_c, 0, 57, 62
1, 100333, Control_c, 0, 64, 104
1, 100383, Note_on_c, 0, 61, 63
1, 100384, Note_off_c, 0, 57, 64
1, 100392, Control_c, 0, 64, 104
1, 100407, Control_c, 0, 64, 103
1, 100414, Note_off_c, 0, 61, 64
1, 100421, Control_c, 0, 64, 102
1, 100436, Control_c, 0, 64, 101
1, 100451, Control_c, 0, 64, 101
1, 100480, Note_on_c, 0, 61, 62
1, 100480, Control_c, 0, 64, 100
1, 100495, Control_c, 0, 64, 99
1, 100510, Control_c, 0, 64, 98
1, 100525, Note_off_c, 0, 61, 53
1, 100540, Control_c, 0, 64, 98
1, 100549, Note_on_c, 0, 69, 64
1, 100599, Control_c, 0, 64, 97
1, 100605, Note_off_c, 0, 69, 63
1, 100611, Note_on_c, 0, 73, 73
1, 100629, Control_c, 0, 64, 97
1, 100672, Note_off_c, 0, 31, 33
1, 100674, Note_on_c, 0, 70, 70
1, 100675, Note_off_c, 0, 73, 59
1, 100679, Note_off_c, 0, 43, 35
1, 100700, Note_off_c, 0, 70, 69
1, 100822, Note_on_c, 0, 61, 21
1, 100932, Note_on_c, 0, 57, 54
1, 100942, Note_off_c, 0, 61, 53
1, 100948, Control_c, 0, 64, 96
1, 100963, Control_c, 0, 64, 95
1, 100971, Note_off_c, 0, 57, 64
1, 100977, Control_c, 0, 64, 88
1, 100992, Control_c, 0, 64, 76
1, 100998, Note_on_c, 0, 31, 60
1, 100999, Note_on_c, 0, 43, 66
1, 101007, Control_c, 0, 64, 63
1, 101016, Note_on_c, 0, 50, 66
1, 101022, Control_c, 0, 64, 41
1, 101037, Control_c, 0, 64, 16
1, 101052, Control_c, 0, 64, 28
1, 101067, Control_c, 0, 64, 47
1, 101082, Control_c, 0, 64, 57
1, 101083, Note_off_c, 0, 50, 61
1, 101096, Control_c, 0, 64, 62
1, 101111, Control_c, 0, 64, 65
1, 101115, Note_on_c, 0, 59, 57
1, 101126, Control_c, 0, 64, 69
1, 101141, Control_c, 0, 64, 75
1, 101156, Control_c, 0, 64, 82
1, 101165, Note_off_c, 0, 59, 62
1, 101171, Control_c, 0, 64, 85
1, 101179, Note_on_c, 0, 62, 58
1, 101185, Control_c, 0, 64, 86
1, 101205, Note_off_c, 0, 62, 63
1, 101283, Note_on_c, 0, 62, 47
1, 101320, Note_off_c, 0, 62, 63
1, 101334, Note_on_c, 0, 71, 62
1, 101377, Control_c, 0, 64, 86
1, 101393, Note_off_c, 0, 71, 62
1, 101403, Note_on_c, 0, 74, 69
1, 101454, Note_off_c, 0, 74, 58
1, 101463, Note_on_c, 0, 71, 63
1, 101494, Note_off_c, 0, 71, 65
1, 101555, Note_on_c, 0, 62, 33
1, 101571, Control_c, 0, 64, 86
1, 101595, Note_off_c, 0, 62, 0
1, 101610, Note_on_c, 0, 62, 46
1, 101645, Control_c, 0, 64, 87
1, 101672, Note_off_c, 0, 62, 61
1, 101691, Note_on_c, 0, 59, 65
1, 101726, Control_c, 0, 64, 86
1, 101730, Note_off_c, 0, 59, 64
1, 101741, Control_c, 0, 64, 84
1, 101755, Control_c, 0, 64, 78
1, 101770, Control_c, 0, 64, 68
1, 101785, Control_c, 0, 64, 59
1, 101788, Note_on_c, 0, 52, 73
1, 101800, Control_c, 0, 64, 59
1, 101815, Control_c, 0, 64, 61
1, 101818, Note_off_c, 0, 52, 68
1, 101830, Control_c, 0, 64, 63
1, 101845, Control_c, 0, 64, 66
1, 101860, Control_c, 0, 64, 72
1, 101874, Control_c, 0, 64, 82
1, 101887, Note_on_c, 0, 52, 64
1, 101889, Control_c, 0, 64, 95
1, 101904, Control_c, 0, 64, 107
1, 101918, Control_c, 0, 64, 109
1, 101924, Note_off_c, 0, 52, 61
1, 101940, Note_on_c, 0, 61, 62
1, 101948, Control_c, 0, 64, 108
1, 101963, Control_c, 0, 64, 108
1, 101992, Control_c, 0, 64, 107
1, 102004, Note_on_c, 0, 64, 59
1, 102007, Note_off_c, 0, 61, 62
1, 102007, Control_c, 0, 64, 107
1, 102033, Note_off_c, 0, 64, 64
1, 102037, Control_c, 0, 64, 106
1, 102052, Control_c, 0, 64, 106
1, 102066, Control_c, 0, 64, 105
1, 102081, Control_c, 0, 64, 105
1, 102096, Note_on_c, 0, 64, 60
1, 102096, Control_c, 0, 64, 104
1, 102131, Note_off_c, 0, 64, 61
1, 102152, Note_on_c, 0, 73, 69
1, 102216, Note_off_c, 0, 73, 63
1, 102222, Note_on_c, 0, 76, 75
1, 102280, Note_on_c, 0, 73, 63
1, 102283, Note_off_c, 0, 76, 63
1, 102319, Note_off_c, 0, 73, 63
1, 102319, Control_c, 0, 64, 104
1, 102337, Note_off_c, 0, 31, 37
1, 102348, Note_off_c, 0, 43, 36
1, 102357, Note_on_c, 0, 64, 54
1, 102378, Control_c, 0, 64, 105
1, 102383, Note_off_c, 0, 64, 64
1, 102393, Control_c, 0, 64, 105
1, 102430, Control_c, 0, 64, 106
1, 102455, Note_on_c, 0, 64, 58
1, 102475, Control_c, 0, 64, 106
1, 102490, Control_c, 0, 64, 107
1, 102491, Note_off_c, 0, 64, 65
1, 102504, Control_c, 0, 64, 107
1, 102518, Note_on_c, 0, 61, 35
1, 102519, Control_c, 0, 64, 108
1, 102551, Note_off_c, 0, 61, 49
1, 102557, Note_on_c, 0, 62, 27
1, 102563, Control_c, 0, 64, 106
1, 102578, Control_c, 0, 64, 102
1, 102590, Note_on_c, 0, 43, 76
1, 102593, Control_c, 0, 64, 93
1, 102596, Note_off_c, 0, 62, 44
1, 102596, Note_on_c, 0, 31, 66
1, 102602, Note_on_c, 0, 54, 77
1, 102608, Control_c, 0, 64, 78
1, 102623, Control_c, 0, 64, 66
1, 102638, Control_c, 0, 64, 56
1, 102653, Control_c, 0, 64, 57
1, 102668, Control_c, 0, 64, 61
1, 102682, Control_c, 0, 64, 64
1, 102697, Control_c, 0, 64, 67
1, 102698, Note_on_c, 0, 62, 65
1, 102702, Note_off_c, 0, 54, 62
1, 102712, Control_c, 0, 64, 72
1, 102727, Control_c, 0, 64, 79
1, 102741, Control_c, 0, 64, 87
1, 102756, Control_c, 0, 64, 93
1, 102769, Note_on_c, 0, 66, 59
1, 102769, Note_off_c, 0, 62, 62
1, 102771, Control_c, 0, 64, 95
1, 102786, Control_c, 0, 64, 95
1, 102800, Note_off_c, 0, 66, 64
1, 102860, Control_c, 0, 64, 95
1, 102873, Note_on_c, 0, 66, 59
1, 102923, Note_off_c, 0, 66, 51
1, 102936, Note_on_c, 0, 74, 67
1, 102964, Control_c, 0, 64, 94
1, 102974, Poly_aftertouch_c, 0, 73, 0
1, 103000, Note_on_c, 0, 78, 82
1, 103001, Note_off_c, 0, 74, 62
1, 103064, Note_on_c, 0, 74, 66
1, 103078, Note_off_c, 0, 78, 61
1, 103111, Note_off_c, 0, 74, 60
1, 103114, Control_c, 0, 64, 95
1, 103128, Control_c, 0, 64, 95
1, 103143, Control_c, 0, 64, 96
1, 103147, Note_on_c, 0, 66, 54
1, 103158, Control_c, 0, 64, 97
1, 103177, Note_off_c, 0, 66, 59
1, 103180, Control_c, 0, 64, 99
1, 103195, Control_c, 0, 64, 101
1, 103210, Control_c, 0, 64, 105
1, 103225, Control_c, 0, 64, 108
1, 103240, Control_c, 0, 64, 110
1, 103246, Note_on_c, 0, 66, 65
1, 103254, Control_c, 0, 64, 112
1, 103269, Control_c, 0, 64, 115
1, 103284, Control_c, 0, 64, 115
1, 103307, Note_on_c, 0, 62, 69
1, 103309, Note_off_c, 0, 66, 58
1, 103314, Control_c, 0, 64, 112
1, 103328, Control_c, 0, 64, 101
1, 103343, Control_c, 0, 64, 82
1, 103351, Note_off_c, 0, 62, 60
1, 103358, Control_c, 0, 64, 66
1, 103372, Control_c, 0, 64, 51
1, 103381, Note_on_c, 0, 55, 85
1, 103387, Control_c, 0, 64, 50
1, 103402, Control_c, 0, 64, 57
1, 103417, Control_c, 0, 64, 62
1, 103431, Note_off_c, 0, 55, 64
1, 103432, Control_c, 0, 64, 66
1, 103446, Control_c, 0, 64, 71
1, 103461, Control_c, 0, 64, 79
1, 103476, Control_c, 0, 64, 88
1, 103486, Note_on_c, 0, 55, 68
1, 103490, Control_c, 0, 64, 96
1, 103505, Control_c, 0, 64, 98
1, 103541, Note_off_c, 0, 55, 62
1, 103550, Note_on_c, 0, 64, 67
1, 103595, Control_c, 0, 64, 97
1, 103615, Note_off_c, 0, 64, 64
1, 103621, Note_on_c, 0, 67, 68
1, 103624, Control_c, 0, 64, 97
1, 103647, Note_off_c, 0, 67, 68
1, 103694, Note_on_c, 0, 67, 70
1, 103758, Note_off_c, 0, 67, 57
1, 103762, Note_on_c, 0, 76, 81
1, 103802, Control_c, 0, 64, 97
1, 103837, Note_on_c, 0, 79, 89
1, 103837, Note_off_c, 0, 76, 64
1, 103861, Control_c, 0, 64, 98
1, 103897, Note_on_c, 0, 76, 79
1, 103908, Note_off_c, 0, 79, 63
1, 103958, Note_off_c, 0, 76, 63
1, 103958, Control_c, 0, 64, 98
1, 103973, Control_c, 0, 64, 99
1, 103982, Note_on_c, 0, 67, 69
1, 103988, Control_c, 0, 64, 100
1, 103993, Note_off_c, 0, 31, 35
1, 103997, Note_off_c, 0, 43, 32
1, 104003, Control_c, 0, 64, 100
1, 104005, Note_off_c, 0, 67, 68
1, 104018, Control_c, 0, 64, 101
1, 104033, Control_c, 0, 64, 102
1, 104048, Control_c, 0, 64, 103
1, 104063, Control_c, 0, 64, 104
1, 104066, Note_on_c, 0, 67, 62
1, 104077, Control_c, 0, 64, 106
1, 104092, Control_c, 0, 64, 109
1, 104107, Control_c, 0, 64, 112
1, 104121, Control_c, 0, 64, 116
1, 104126, Note_off_c, 0, 67, 62
1, 104127, Note_on_c, 0, 64, 66
1, 104136, Control_c, 0, 64, 127
1, 104190, Note_off_c, 0, 64, 62
1, 104215, Note_on_c, 0, 43, 90
1, 104221, Note_on_c, 0, 31, 78
1, 104225, Control_c, 0, 64, 101
1, 104229, Note_on_c, 0, 57, 73
1, 104240, Control_c, 0, 64, 73
1, 104255, Control_c, 0, 64, 60
1, 104269, Control_c, 0, 64, 47
1, 104284, Control_c, 0, 64, 51
1, 104299, Control_c, 0, 64, 56
1, 104301, Note_off_c, 0, 57, 60
1, 104313, Control_c, 0, 64, 61
1, 104318, Note_on_c, 0, 66, 65
1, 104328, Control_c, 0, 64, 65
1, 104343, Control_c, 0, 64, 69
1, 104358, Control_c, 0, 64, 75
1, 104373, Control_c, 0, 64, 82
1, 104388, Control_c, 0, 64, 87
1, 104391, Note_on_c, 0, 69, 71
1, 104396, Note_off_c, 0, 66, 63
1, 104402, Control_c, 0, 64, 91
1, 104416, Note_off_c, 0, 69, 69
1, 104417, Control_c, 0, 64, 94
1, 104432, Control_c, 0, 64, 96
1, 104447, Control_c, 0, 64, 100
1, 104462, Control_c, 0, 64, 102
1, 104465, Note_on_c, 0, 69, 78
1, 104477, Control_c, 0, 64, 104
1, 104492, Control_c, 0, 64, 105
1, 104507, Control_c, 0, 64, 106
1, 104521, Control_c, 0, 64, 107
1, 104537, Note_on_c, 0, 78, 85
1, 104540, Note_off_c, 0, 69, 58
1, 104551, Control_c, 0, 64, 107
1, 104566, Control_c, 0, 64, 109
1, 104581, Control_c, 0, 64, 114
1, 104595, Control_c, 0, 64, 127
1, 104608, Note_on_c, 0, 81, 90
1, 104610, Note_off_c, 0, 78, 64
1, 104683, Note_on_c, 0, 78, 83
1, 104699, Note_off_c, 0, 81, 64
1, 104742, Note_off_c, 0, 78, 64
1, 104751, Control_c, 0, 67, 122
1, 104754, Note_on_c, 0, 69, 69
1, 104766, Control_c, 0, 67, 110
1, 104778, Note_off_c, 0, 69, 69
1, 104781, Control_c, 0, 67, 95
1, 104796, Control_c, 0, 67, 80
1, 104811, Control_c, 0, 67, 64
1, 104826, Control_c, 0, 67, 49
1, 104841, Control_c, 0, 67, 36
1, 104842, Note_on_c, 0, 69, 65
1, 104856, Control_c, 0, 67, 24
1, 104870, Control_c, 0, 67, 16
1, 104885, Control_c, 0, 67, 10
1, 104893, Note_on_c, 0, 66, 66
1, 104900, Control_c, 0, 67, 0
1, 104911, Note_off_c, 0, 69, 60
1, 104944, Control_c, 0, 64, 94
1, 104959, Control_c, 0, 64, 70
1, 104964, Note_off_c, 0, 66, 58
1, 104974, Control_c, 0, 64, 51
1, 104981, Note_on_c, 0, 59, 87
1, 104989, Control_c, 0, 64, 48
1, 105004, Control_c, 0, 64, 55
1, 105018, Control_c, 0, 64, 61
1, 105028, Note_off_c, 0, 59, 65
1, 105033, Control_c, 0, 64, 66
1, 105048, Control_c, 0, 64, 73
1, 105063, Control_c, 0, 64, 85
1, 105078, Control_c, 0, 64, 112
1, 105082, Note_on_c, 0, 59, 77
1, 105092, Control_c, 0, 64, 127
1, 105142, Note_off_c, 0, 59, 61
1, 105154, Note_on_c, 0, 67, 68
1, 105203, Note_on_c, 0, 71, 76
1, 105208, Note_off_c, 0, 67, 65
1, 105225, Note_off_c, 0, 71, 70
1, 105283, Note_on_c, 0, 71, 76
1, 105346, Note_on_c, 0, 79, 80
1, 105351, Note_off_c, 0, 71, 59
1, 105424, Note_on_c, 0, 83, 90
1, 105429, Note_off_c, 0, 79, 65
1, 105490, Note_on_c, 0, 79, 73
1, 105496, Note_off_c, 0, 83, 63
1, 105510, Note_off_c, 0, 43, 30
1, 105523, Note_off_c, 0, 31, 28
1, 105541, Note_off_c, 0, 79, 64
1, 105557, Note_on_c, 0, 71, 65
1, 105586, Note_off_c, 0, 71, 66
1, 105638, Note_on_c, 0, 71, 73
1, 105681, Note_off_c, 0, 71, 60
1, 105689, Note_on_c, 0, 67, 71
1, 105740, Note_off_c, 0, 67, 61
1, 105752, Note_on_c, 0, 43, 93
1, 105753, Control_c, 0, 64, 77
1, 105758, Note_on_c, 0, 31, 81
1, 105767, Control_c, 0, 64, 56
1, 105780, Note_on_c, 0, 61, 82
1, 105783, Control_c, 0, 64, 22
1, 105798, Control_c, 0, 64, 39
1, 105812, Control_c, 0, 64, 55
1, 105827, Control_c, 0, 64, 63
1, 105842, Control_c, 0, 64, 68
1, 105857, Control_c, 0, 64, 78
1, 105872, Control_c, 0, 64, 95
1, 105874, Note_on_c, 0, 69, 76
1, 105875, Note_off_c, 0, 61, 61
1, 105887, Control_c, 0, 64, 127
1, 105944, Note_on_c, 0, 73, 76
1, 105947, Note_off_c, 0, 69, 65
1, 105967, Note_off_c, 0, 73, 68
1, 106018, Note_on_c, 0, 73, 82
1, 106081, Note_on_c, 0, 80, 74
1, 106102, Note_off_c, 0, 73, 62
1, 106104, Note_on_c, 0, 81, 80
1, 106107, Note_off_c, 0, 80, 65
1, 106171, Note_on_c, 0, 85, 86
1, 106183, Note_off_c, 0, 81, 65
1, 106242, Note_on_c, 0, 81, 76
1, 106260, Note_off_c, 0, 85, 59
1, 106305, Note_off_c, 0, 81, 65
1, 106325, Note_on_c, 0, 73, 71
1, 106349, Note_off_c, 0, 73, 67
1, 106402, Note_on_c, 0, 73, 81
1, 106428, Control_c, 0, 64, 90
1, 106443, Control_c, 0, 64, 66
1, 106458, Control_c, 0, 64, 49
1, 106467, Note_on_c, 0, 69, 82
1, 106472, Control_c, 0, 64, 51
1, 106487, Control_c, 0, 64, 57
1, 106489, Note_off_c, 0, 73, 60
1, 106502, Control_c, 0, 64, 61
1, 106517, Control_c, 0, 64, 65
1, 106531, Control_c, 0, 64, 71
1, 106535, Note_off_c, 0, 69, 59
1, 106546, Note_on_c, 0, 62, 87
1, 106546, Control_c, 0, 64, 79
1, 106561, Control_c, 0, 64, 89
1, 106576, Control_c, 0, 64, 95
1, 106590, Control_c, 0, 64, 97
1, 106593, Note_off_c, 0, 62, 64
1, 106620, Control_c, 0, 64, 97
1, 106635, Control_c, 0, 64, 98
1, 106645, Note_on_c, 0, 62, 73
1, 106650, Control_c, 0, 64, 99
1, 106664, Control_c, 0, 64, 100
1, 106679, Control_c, 0, 64, 101
1, 106694, Control_c, 0, 64, 101
1, 106713, Note_off_c, 0, 62, 58
1, 106728, Note_on_c, 0, 71, 75
1, 106738, Control_c, 0, 64, 102
1, 106753, Control_c, 0, 64, 102
1, 106757, Note_off_c, 0, 31, 56
1, 106768, Control_c, 0, 64, 103
1, 106776, Note_on_c, 0, 74, 75
1, 106780, Note_off_c, 0, 71, 66
1, 106783, Control_c, 0, 64, 104
1, 106797, Control_c, 0, 64, 106
1, 106799, Note_off_c, 0, 74, 69
1, 106812, Control_c, 0, 64, 107
1, 106813, Note_off_c, 0, 43, 59
1, 106856, Note_on_c, 0, 74, 77
1, 106857, Control_c, 0, 64, 107
1, 106871, Control_c, 0, 64, 108
1, 106886, Control_c, 0, 64, 110
1, 106901, Control_c, 0, 64, 113
1, 106923, Control_c, 0, 64, 116
1, 106926, Note_on_c, 0, 83, 83
1, 106928, Note_off_c, 0, 74, 59
1, 106938, Control_c, 0, 64, 125
1, 106953, Control_c, 0, 64, 127
1, 106996, Note_on_c, 0, 86, 92
1, 107003, Note_off_c, 0, 83, 65
1, 107059, Note_on_c, 0, 83, 82
1, 107079, Note_off_c, 0, 86, 64
1, 107125, Note_off_c, 0, 83, 65
1, 107131, Note_on_c, 0, 74, 80
1, 107175, Note_off_c, 0, 74, 59
1, 107210, Note_on_c, 0, 74, 74
1, 107270, Note_on_c, 0, 71, 77
1, 107293, Note_off_c, 0, 74, 62
1, 107336, Note_off_c, 0, 71, 62
1, 107357, Note_on_c, 0, 59, 96
1, 107362, Note_on_c, 0, 47, 84
1, 107368, Control_c, 0, 64, 90
1, 107371, Note_on_c, 0, 64, 80
1, 107383, Control_c, 0, 64, 68
1, 107398, Control_c, 0, 64, 57
1, 107413, Control_c, 0, 64, 61
1, 107428, Control_c, 0, 64, 64
1, 107442, Note_off_c, 0, 47, 60
1, 107443, Control_c, 0, 64, 69
1, 107453, Note_off_c, 0, 64, 60
1, 107458, Control_c, 0, 64, 77
1, 107466, Note_on_c, 0, 73, 76
1, 107471, Note_off_c, 0, 59, 58
1, 107473, Control_c, 0, 64, 91
1, 107487, Control_c, 0, 64, 127
1, 107540, Note_on_c, 0, 76, 78
1, 107547, Note_off_c, 0, 73, 65
1, 107563, Note_off_c, 0, 76, 71
1, 107615, Note_on_c, 0, 76, 86
1, 107696, Note_on_c, 0, 85, 83
1, 107704, Note_off_c, 0, 76, 61
1, 107756, Note_on_c, 0, 61, 88
1, 107757, Note_on_c, 0, 49, 77
1, 107767, Note_on_c, 0, 88, 93
1, 107780, Note_off_c, 0, 85, 65
1, 107813, Note_off_c, 0, 61, 62
1, 107815, Note_off_c, 0, 49, 63
1, 107838, Note_on_c, 0, 85, 78
1, 107866, Note_off_c, 0, 88, 63
1, 107908, Note_off_c, 0, 85, 65
1, 107920, Note_on_c, 0, 76, 80
1, 107944, Note_on_c, 0, 62, 91
1, 107949, Note_on_c, 0, 50, 84
1, 107949, Note_off_c, 0, 76, 62
1, 107976, Note_off_c, 0, 50, 67
1, 107991, Note_off_c, 0, 62, 62
1, 108013, Note_on_c, 0, 76, 82
1, 108065, Note_off_c, 0, 76, 65
1, 108076, Note_on_c, 0, 73, 80
1, 108103, Control_c, 0, 64, 96
1, 108117, Control_c, 0, 64, 71
1, 108130, Note_off_c, 0, 73, 60
1, 108132, Note_on_c, 0, 64, 94
1, 108132, Control_c, 0, 64, 57
1, 108136, Note_on_c, 0, 52, 87
1, 108147, Control_c, 0, 64, 56
1, 108155, Note_on_c, 0, 66, 77
1, 108161, Control_c, 0, 64, 62
1, 108176, Control_c, 0, 64, 67
1, 108177, Note_off_c, 0, 52, 61
1, 108178, Note_off_c, 0, 64, 64
1, 108191, Control_c, 0, 64, 74
1, 108206, Control_c, 0, 64, 87
1, 108221, Control_c, 0, 64, 115
1, 108229, Note_off_c, 0, 66, 61
1, 108236, Control_c, 0, 64, 127
1, 108237, Note_on_c, 0, 74, 71
1, 108300, Note_on_c, 0, 78, 78
1, 108301, Note_off_c, 0, 74, 65
1, 108323, Note_off_c, 0, 78, 70
1, 108342, Note_on_c, 0, 62, 87
1, 108345, Note_on_c, 0, 50, 82
1, 108383, Note_off_c, 0, 50, 62
1, 108387, Note_off_c, 0, 62, 63
1, 108391, Note_on_c, 0, 78, 78
1, 108457, Note_on_c, 0, 86, 77
1, 108478, Note_off_c, 0, 78, 61
1, 108521, Note_on_c, 0, 90, 94
1, 108522, Note_on_c, 0, 49, 79
1, 108525, Note_on_c, 0, 61, 93
1, 108534, Note_off_c, 0, 86, 64
1, 108557, Note_off_c, 0, 49, 64
1, 108568, Note_off_c, 0, 61, 61
1, 108588, Note_on_c, 0, 86, 83
1, 108620, Note_off_c, 0, 90, 64
1, 108648, Note_off_c, 0, 86, 64
1, 108665, Note_on_c, 0, 78, 73
1, 108694, Note_off_c, 0, 78, 68
1, 108717, Note_on_c, 0, 66, 88
1, 108726, Note_on_c, 0, 54, 80
1, 108738, Note_off_c, 0, 66, 69
1, 108752, Note_off_c, 0, 54, 70
1, 108779, Note_on_c, 0, 78, 70
1, 108838, Note_on_c, 0, 74, 78
1, 108873, Note_off_c, 0, 78, 61
1, 108899, Note_off_c, 0, 74, 63
1, 108911, Control_c, 0, 64, 102
1, 108926, Control_c, 0, 64, 71
1, 108930, Note_on_c, 0, 59, 94
1, 108930, Note_on_c, 0, 67, 78
1, 108933, Note_on_c, 0, 47, 87
1, 108940, Control_c, 0, 64, 53
1, 108955, Control_c, 0, 64, 42
1, 108970, Control_c, 0, 64, 52
1, 108984, Control_c, 0, 64, 60
1, 108996, Note_off_c, 0, 67, 60
1, 108999, Control_c, 0, 64, 65
1, 109014, Note_on_c, 0, 76, 74
1, 109014, Control_c, 0, 64, 71
1, 109029, Control_c, 0, 64, 81
1, 109044, Control_c, 0, 64, 93
1, 109045, Note_off_c, 0, 47, 59
1, 109053, Note_off_c, 0, 59, 57
1, 109059, Control_c, 0, 64, 102
1, 109074, Control_c, 0, 64, 106
1, 109079, Note_on_c, 0, 79, 72
1, 109082, Note_off_c, 0, 76, 66
1, 109088, Control_c, 0, 64, 108
1, 109103, Control_c, 0, 64, 110
1, 109105, Note_off_c, 0, 79, 70
1, 109118, Control_c, 0, 64, 112
1, 109133, Control_c, 0, 64, 116
1, 109148, Control_c, 0, 64, 122
1, 109166, Note_on_c, 0, 79, 80
1, 109170, Control_c, 0, 64, 127
1, 109226, Note_on_c, 0, 88, 81
1, 109241, Note_off_c, 0, 79, 61
1, 109295, Note_on_c, 0, 91, 96
1, 109309, Note_off_c, 0, 88, 66
1, 109315, Note_on_c, 0, 61, 92
1, 109319, Note_on_c, 0, 49, 80
1, 109360, Note_on_c, 0, 88, 82
1, 109365, Note_off_c, 0, 61, 63
1, 109372, Note_off_c, 0, 49, 62
1, 109387, Note_off_c, 0, 91, 64
1, 109428, Note_off_c, 0, 88, 66
1, 109435, Note_on_c, 0, 79, 79
1, 109473, Note_off_c, 0, 79, 58
1, 109485, Note_on_c, 0, 62, 93
1, 109491, Note_on_c, 0, 50, 87
1, 109515, Note_off_c, 0, 50, 70
1, 109533, Note_off_c, 0, 62, 62
1, 109552, Note_on_c, 0, 77, 63
1, 109553, Note_on_c, 0, 79, 71
1, 109592, Note_on_c, 0, 76, 79
1, 109601, Note_off_c, 0, 79, 62
1, 109601, Note_off_c, 0, 77, 61
1, 109646, Control_c, 0, 64, 93
1, 109655, Note_off_c, 0, 76, 63
1, 109661, Control_c, 0, 64, 67
1, 109675, Note_on_c, 0, 64, 94
1, 109676, Control_c, 0, 64, 46
1, 109679, Note_on_c, 0, 52, 93
1, 109679, Note_on_c, 0, 69, 80
1, 109690, Control_c, 0, 64, 49
1, 109705, Control_c, 0, 64, 58
1, 109710, Note_off_c, 0, 52, 64
1, 109716, Note_off_c, 0, 64, 66
1, 109720, Control_c, 0, 64, 65
1, 109735, Control_c, 0, 64, 73
1, 109750, Control_c, 0, 64, 89
1, 109750, Note_off_c, 0, 69, 61
1, 109753, Note_on_c, 0, 78, 85
1, 109764, Control_c, 0, 64, 127
1, 109819, Note_on_c, 0, 81, 80
1, 109831, Note_off_c, 0, 78, 65
1, 109840, Note_off_c, 0, 81, 72
1, 109875, Note_on_c, 0, 50, 86
1, 109875, Note_on_c, 0, 62, 92
1, 109902, Note_on_c, 0, 81, 86
1, 109918, Note_off_c, 0, 62, 65
1, 109924, Note_off_c, 0, 50, 63
1, 109972, Note_on_c, 0, 90, 93
1, 109983, Note_off_c, 0, 81, 64
1, 110039, Note_on_c, 0, 93, 95
1, 110045, Note_on_c, 0, 61, 101
1, 110046, Note_on_c, 0, 49, 83
1, 110059, Note_off_c, 0, 90, 63
1, 110084, Note_off_c, 0, 61, 65
1, 110086, Note_off_c, 0, 49, 63
1, 110110, Note_on_c, 0, 90, 88
1, 110138, Note_off_c, 0, 93, 67
1, 110177, Note_off_c, 0, 90, 65
1, 110188, Note_on_c, 0, 81, 78
1, 110223, Note_off_c, 0, 81, 61
1, 110236, Note_on_c, 0, 66, 80
1, 110247, Note_on_c, 0, 54, 49
1, 110272, Note_off_c, 0, 54, 58
1, 110272, Note_off_c, 0, 66, 61
1, 110290, Note_on_c, 0, 81, 77
1, 110312, Note_on_c, 0, 78, 76
1, 110314, Note_off_c, 0, 81, 65
1, 110337, Note_off_c, 0, 78, 70
1, 110411, Note_on_c, 0, 67, 74
1, 110415, Note_on_c, 0, 73, 78
1, 110444, Note_off_c, 0, 73, 64
1, 110469, Note_off_c, 0, 67, 58
1, 110498, Control_c, 0, 64, 119
1, 110499, Note_on_c, 0, 95, 109
1, 110502, Note_on_c, 0, 68, 96
1, 110502, Note_on_c, 0, 71, 111
1, 110508, Note_on_c, 0, 67, 52
1, 110512, Note_on_c, 0, 65, 85
1, 110512, Control_c, 0, 64, 64
1, 110527, Control_c, 0, 64, 0
1, 110528, Note_on_c, 0, 93, 58
1, 110535, Note_off_c, 0, 67, 64
1, 110548, Note_off_c, 0, 93, 42
1, 110586, Control_c, 0, 64, 56
1, 110600, Note_on_c, 0, 92, 92
1, 110601, Control_c, 0, 64, 69
1, 110616, Control_c, 0, 64, 90
1, 110621, Note_off_c, 0, 95, 63
1, 110630, Note_off_c, 0, 68, 57
1, 110630, Control_c, 0, 64, 127
1, 110644, Note_off_c, 0, 65, 58
1, 110674, Note_on_c, 0, 89, 83
1, 110675, Note_off_c, 0, 71, 33
1, 110690, Note_off_c, 0, 92, 65
1, 110725, Note_on_c, 0, 86, 75
1, 110731, Note_off_c, 0, 89, 61
1, 110773, Note_on_c, 0, 95, 108
1, 110781, Note_off_c, 0, 86, 62
1, 110824, Note_on_c, 0, 92, 88
1, 110871, Note_on_c, 0, 89, 78
1, 110873, Note_off_c, 0, 95, 64
1, 110902, Note_off_c, 0, 92, 66
1, 110916, Note_on_c, 0, 86, 66
1, 110925, Note_off_c, 0, 89, 64
1, 110962, Note_on_c, 0, 95, 108
1, 110969, Note_off_c, 0, 86, 59
1, 111014, Note_on_c, 0, 92, 84
1, 111043, Note_off_c, 0, 95, 64
1, 111046, Note_on_c, 0, 89, 76
1, 111083, Note_on_c, 0, 86, 69
1, 111092, Note_off_c, 0, 92, 65
1, 111109, Note_off_c, 0, 89, 56
1, 111136, Note_off_c, 0, 86, 64
1, 111139, Note_on_c, 0, 95, 103
1, 111177, Note_on_c, 0, 92, 60
1, 111209, Note_on_c, 0, 89, 79
1, 111220, Note_off_c, 0, 95, 64
1, 111247, Note_off_c, 0, 92, 66
1, 111250, Note_on_c, 0, 86, 58
1, 111291, Note_off_c, 0, 89, 0
1, 111305, Note_on_c, 0, 95, 97
1, 111309, Note_off_c, 0, 86, 62
1, 111321, Poly_aftertouch_c, 0, 89, 0
1, 111331, Note_on_c, 0, 92, 66
1, 111361, Note_on_c, 0, 89, 61
1, 111373, Note_off_c, 0, 95, 65
1, 111417, Note_off_c, 0, 92, 66
1, 111442, Note_on_c, 0, 86, 59
1, 111476, Note_off_c, 0, 86, 64
1, 111477, Note_on_c, 0, 95, 91
1, 111491, Note_off_c, 0, 89, 60
1, 111525, Note_on_c, 0, 92, 61
1, 111544, Note_off_c, 0, 95, 64
1, 111548, Note_on_c, 0, 89, 54
1, 111581, Note_off_c, 0, 92, 65
1, 111594, Note_on_c, 0, 86, 29
1, 111629, Note_off_c, 0, 86, 53
1, 111648, Note_off_c, 0, 89, 63
1, 111649, Note_on_c, 0, 95, 68
1, 111673, Note_on_c, 0, 92, 51
1, 111688, Note_off_c, 0, 95, 57
1, 111722, Note_on_c, 0, 89, 57
1, 111730, Note_off_c, 0, 92, 63
1, 111761, Note_on_c, 0, 86, 27
1, 111798, Note_off_c, 0, 86, 51
1, 111807, Note_off_c, 0, 89, 41
1, 111825, Note_on_c, 0, 95, 54
1, 111843, Note_on_c, 0, 92, 59
1, 111870, Note_off_c, 0, 95, 60
1, 111890, Note_on_c, 0, 89, 64
1, 111904, Note_off_c, 0, 92, 63
1, 111922, Note_on_c, 0, 86, 55
1, 111957, Note_off_c, 0, 86, 66
1, 111965, Note_on_c, 0, 95, 103
1, 111987, Note_off_c, 0, 89, 58
1, 111998, Note_on_c, 0, 92, 31
1, 112000, Note_on_c, 0, 91, 78
1, 112002, Note_on_c, 0, 93, 50
1, 112010, Note_on_c, 0, 89, 70
1, 112021, Note_off_c, 0, 93, 64
1, 112040, Note_off_c, 0, 92, 48
1, 112045, Note_on_c, 0, 86, 62
1, 112046, Note_off_c, 0, 95, 65
1, 112049, Note_off_c, 0, 91, 64
1, 112063, Note_off_c, 0, 86, 64
1, 112065, Note_off_c, 0, 89, 65
1, 112091, Note_on_c, 0, 84, 84
1, 112128, Note_off_c, 0, 84, 68
1, 112141, Note_on_c, 0, 80, 81
1, 112179, Note_on_c, 0, 77, 68
1, 112191, Note_off_c, 0, 80, 66
1, 112210, Note_on_c, 0, 82, 40
1, 112230, Note_on_c, 0, 74, 64
1, 112237, Note_off_c, 0, 82, 56
1, 112240, Note_off_c, 0, 77, 65
1, 112260, Note_off_c, 0, 74, 66
1, 112269, Note_on_c, 0, 87, 93
1, 112284, Note_on_c, 0, 83, 80
1, 112290, Note_on_c, 0, 80, 73
1, 112346, Note_on_c, 0, 77, 86
1, 112346, Note_off_c, 0, 87, 62
1, 112353, Note_off_c, 0, 80, 63
1, 112356, Note_off_c, 0, 83, 64
1, 112364, Note_off_c, 0, 77, 71
1, 112380, Note_on_c, 0, 79, 52
1, 112428, Note_on_c, 0, 77, 77
1, 112441, Note_off_c, 0, 79, 66
1, 112472, Note_on_c, 0, 74, 80
1, 112480, Note_off_c, 0, 77, 65
1, 112484, Note_on_c, 0, 71, 79
1, 112497, Note_off_c, 0, 74, 68
1, 112506, Note_off_c, 0, 71, 71
1, 112540, Note_on_c, 0, 83, 92
1, 112544, Note_on_c, 0, 80, 89
1, 112552, Note_on_c, 0, 77, 72
1, 112607, Note_off_c, 0, 83, 63
1, 112616, Note_on_c, 0, 74, 89
1, 112630, Note_off_c, 0, 80, 63
1, 112633, Note_off_c, 0, 77, 63
1, 112640, Note_off_c, 0, 74, 66
1, 112652, Note_on_c, 0, 72, 64
1, 112666, Note_on_c, 0, 68, 72
1, 112704, Note_off_c, 0, 72, 63
1, 112710, Note_on_c, 0, 65, 71
1, 112719, Note_off_c, 0, 68, 64
1, 112749, Note_on_c, 0, 62, 69
1, 112756, Note_off_c, 0, 65, 64
1, 112776, Note_off_c, 0, 62, 64
1, 112787, Note_on_c, 0, 75, 87
1, 112797, Note_on_c, 0, 71, 90
1, 112822, Note_on_c, 0, 68, 83
1, 112856, Note_off_c, 0, 71, 58
1, 112872, Note_on_c, 0, 65, 86
1, 112874, Note_off_c, 0, 75, 61
1, 112886, Note_off_c, 0, 68, 63
1, 112893, Note_off_c, 0, 65, 71
1, 112920, Note_on_c, 0, 67, 66
1, 112952, Note_on_c, 0, 65, 76
1, 112959, Note_off_c, 0, 67, 63
1, 112995, Note_off_c, 0, 65, 67
1, 112996, Note_on_c, 0, 62, 73
1, 113017, Note_on_c, 0, 59, 82
1, 113032, Note_off_c, 0, 62, 65
1, 113056, Note_off_c, 0, 59, 64
1, 113067, Note_on_c, 0, 71, 92
1, 113076, Note_on_c, 0, 68, 82
1, 113081, Note_on_c, 0, 65, 76
1, 113125, Note_off_c, 0, 71, 62
1, 113145, Note_off_c, 0, 68, 65
1, 113148, Note_on_c, 0, 62, 80
1, 113163, Note_off_c, 0, 65, 60
1, 113171, Note_off_c, 0, 62, 70
1, 113184, Note_on_c, 0, 60, 61
1, 113213, Note_on_c, 0, 56, 66
1, 113227, Note_off_c, 0, 60, 61
1, 113270, Note_on_c, 0, 53, 75
1, 113274, Note_off_c, 0, 56, 65
1, 113314, Note_on_c, 0, 50, 50
1, 113316, Note_off_c, 0, 53, 63
1, 113326, Note_on_c, 0, 63, 73
1, 113342, Note_on_c, 0, 59, 58
1, 113346, Note_off_c, 0, 50, 64
1, 113355, Note_on_c, 0, 56, 69
1, 113390, Note_off_c, 0, 59, 56
1, 113405, Note_off_c, 0, 63, 62
1, 113419, Note_off_c, 0, 56, 62
1, 113431, Note_on_c, 0, 53, 58
1, 113556, Note_off_c, 0, 53, 63
1, 113570, Note_on_c, 0, 50, 58
1, 113609, Note_off_c, 0, 50, 65
1, 113611, Note_on_c, 0, 47, 58
1, 113625, Note_on_c, 0, 59, 64
1, 113640, Note_on_c, 0, 56, 65
1, 113640, Note_off_c, 0, 47, 63
1, 113690, Note_on_c, 0, 53, 64
1, 113714, Note_off_c, 0, 59, 62
1, 113737, Note_off_c, 0, 56, 62
1, 113744, Note_on_c, 0, 50, 62
1, 113759, Note_off_c, 0, 53, 60
1, 113776, Note_off_c, 0, 50, 64
1, 113818, Note_on_c, 0, 48, 51
1, 113852, Note_off_c, 0, 48, 63
1, 113855, Note_on_c, 0, 44, 56
1, 113897, Note_off_c, 0, 44, 62
1, 113902, Note_on_c, 0, 41, 56
1, 113938, Note_on_c, 0, 51, 74
1, 113942, Note_off_c, 0, 41, 63
1, 113951, Note_on_c, 0, 38, 41
1, 113958, Note_on_c, 0, 47, 56
1, 113982, Note_on_c, 0, 44, 61
1, 113986, Note_off_c, 0, 38, 55
1, 114032, Note_off_c, 0, 51, 64
1, 114056, Note_on_c, 0, 41, 60
1, 114083, Note_off_c, 0, 44, 56
1, 114087, Note_off_c, 0, 41, 65
1, 114092, Note_off_c, 0, 47, 31
1, 114157, Note_on_c, 0, 43, 48
1, 114200, Note_off_c, 0, 43, 62
1, 114202, Note_on_c, 0, 41, 50
1, 114276, Note_off_c, 0, 41, 63
1, 114319, Note_on_c, 0, 38, 47
1, 114376, Note_off_c, 0, 38, 60
1, 114401, Note_on_c, 0, 35, 46
1, 114451, Note_off_c, 0, 35, 57
1, 114628, Note_on_c, 0, 35, 64
1, 114663, Control_c, 0, 64, 114
1, 114678, Control_c, 0, 64, 77
1, 114693, Control_c, 0, 64, 62
1, 114707, Control_c, 0, 64, 45
1, 114722, Control_c, 0, 64, 48
1, 114737, Control_c, 0, 64, 55
1, 114752, Control_c, 0, 64, 62
1, 114767, Control_c, 0, 64, 66
1, 114782, Control_c, 0, 64, 72
1, 114796, Control_c, 0, 64, 81
1, 114811, Control_c, 0, 64, 90
1, 114826, Control_c, 0, 64, 99
1, 114841, Control_c, 0, 64, 105
1, 114856, Control_c, 0, 64, 106
1, 114871, Control_c, 0, 64, 106
1, 114880, Note_off_c, 0, 35, 35
1, 114885, Control_c, 0, 64, 107
1, 114900, Control_c, 0, 64, 109
1, 114911, Note_on_c, 0, 37, 40
1, 114915, Control_c, 0, 64, 115
1, 114930, Control_c, 0, 64, 127
1, 114955, Note_off_c, 0, 37, 59
1, 115059, Poly_aftertouch_c, 0, 35, 127
1, 115065, Note_on_c, 0, 37, 38
1, 115098, Note_on_c, 0, 35, 19
1, 115109, Note_off_c, 0, 37, 48
1, 115171, Note_off_c, 0, 35, 50
1, 115192, Note_on_c, 0, 37, 26
1, 115221, Note_on_c, 0, 35, 39
1, 115246, Note_off_c, 0, 37, 0
1, 115265, Note_on_c, 0, 37, 36
1, 115291, Note_off_c, 0, 35, 0
1, 115311, Note_off_c, 0, 37, 55
1, 115327, Poly_aftertouch_c, 0, 35, 127
1, 115350, Poly_aftertouch_c, 0, 35, 0
1, 115358, Note_on_c, 0, 37, 53
1, 115412, Note_off_c, 0, 37, 59
1, 115429, Note_on_c, 0, 35, 54
1, 115467, Note_off_c, 0, 35, 58
1, 115468, Note_on_c, 0, 37, 48
1, 115506, Note_off_c, 0, 37, 60
1, 115524, Note_on_c, 0, 35, 44
1, 115569, Note_off_c, 0, 35, 51
1, 115590, Note_on_c, 0, 37, 35
1, 115632, Note_on_c, 0, 35, 36
1, 115661, Note_off_c, 0, 37, 0
1, 115673, Note_off_c, 0, 35, 0
1, 115676, Note_on_c, 0, 37, 39
1, 115709, Note_on_c, 0, 35, 33
1, 115725, Note_off_c, 0, 37, 56
1, 115754, Note_off_c, 0, 35, 58
1, 115855, Note_on_c, 0, 35, 56
1, 116022, Note_on_c, 0, 37, 8
1, 116043, Note_off_c, 0, 35, 0
1, 116079, Poly_aftertouch_c, 0, 35, 127
1, 116145, Poly_aftertouch_c, 0, 35, 0
1, 116194, Note_on_c, 0, 35, 26
1, 116195, Note_off_c, 0, 37, 0
1, 116222, Note_on_c, 0, 37, 18
1, 116290, Note_off_c, 0, 37, 0
1, 116309, Note_on_c, 0, 37, 34
1, 116352, Note_off_c, 0, 35, 0
1, 116355, Note_off_c, 0, 37, 55
1, 116366, Note_on_c, 0, 35, 35
1, 116434, Note_on_c, 0, 37, 38
1, 116462, Note_off_c, 0, 35, 0
1, 116480, Note_on_c, 0, 35, 27
1, 116505, Note_off_c, 0, 37, 0
1, 116522, Note_on_c, 0, 37, 31
1, 116566, Note_off_c, 0, 35, 0
1, 116581, Note_on_c, 0, 35, 30
1, 116605, Note_off_c, 0, 37, 0
1, 116621, Note_on_c, 0, 37, 35
1, 116687, Note_off_c, 0, 35, 0
1, 116693, Note_off_c, 0, 37, 41
1, 116708, Note_on_c, 0, 35, 13
1, 116738, Note_on_c, 0, 37, 38
1, 116776, Note_off_c, 0, 35, 0
1, 116776, Note_on_c, 0, 35, 27
1, 116793, Note_off_c, 0, 37, 53
1, 116842, Note_off_c, 0, 35, 56
1, 116943, Note_on_c, 0, 33, 51
1, 116984, Control_c, 0, 64, 112
1, 116998, Control_c, 0, 64, 85
1, 117013, Control_c, 0, 64, 70
1, 117028, Control_c, 0, 64, 62
1, 117043, Control_c, 0, 64, 57
1, 117058, Control_c, 0, 64, 58
1, 117072, Control_c, 0, 64, 60
1, 117087, Control_c, 0, 64, 62
1, 117102, Control_c, 0, 64, 65
1, 117117, Control_c, 0, 64, 69
1, 117132, Control_c, 0, 64, 75
1, 117146, Control_c, 0, 64, 81
1, 117161, Control_c, 0, 64, 87
1, 117176, Control_c, 0, 64, 95
1, 117191, Control_c, 0, 64, 104
1, 117197, Note_off_c, 0, 33, 59
1, 117205, Control_c, 0, 64, 120
1, 117220, Control_c, 0, 64, 127
1, 117223, Note_on_c, 0, 35, 28
1, 117310, Note_off_c, 0, 35, 39
1, 117355, Note_on_c, 0, 33, 31
1, 117411, Note_off_c, 0, 33, 49
1, 117482, Note_on_c, 0, 35, 22
1, 117545, Note_off_c, 0, 35, 43
1, 117601, Note_on_c, 0, 49, 53
1, 117602, Note_on_c, 0, 47, 46
1, 117616, Note_on_c, 0, 33, 12
1, 117626, Note_off_c, 0, 49, 61
1, 117630, Note_off_c, 0, 47, 52
1, 117657, Note_off_c, 0, 33, 53
1, 117694, Note_on_c, 0, 35, 36
1, 117755, Note_off_c, 0, 35, 54
1, 117791, Note_on_c, 0, 33, 32
1, 117852, Note_off_c, 0, 33, 45
1, 117919, Note_on_c, 0, 35, 21
1, 117947, Note_on_c, 0, 61, 61
1, 117974, Note_off_c, 0, 61, 63
1, 117980, Note_off_c, 0, 35, 45
1, 118030, Note_on_c, 0, 33, 21
1, 118075, Note_off_c, 0, 33, 52
1, 118109, Note_on_c, 0, 35, 36
1, 118160, Note_off_c, 0, 35, 51
1, 118200, Note_on_c, 0, 33, 38
1, 118252, Note_off_c, 0, 33, 50
1, 118290, Note_on_c, 0, 35, 28
1, 118335, Note_off_c, 0, 35, 48
1, 118393, Note_on_c, 0, 31, 48
1, 118437, Control_c, 0, 64, 102
1, 118451, Control_c, 0, 64, 81
1, 118466, Control_c, 0, 64, 67
1, 118481, Control_c, 0, 64, 55
1, 118496, Control_c, 0, 64, 52
1, 118511, Control_c, 0, 64, 55
1, 118526, Control_c, 0, 64, 58
1, 118541, Control_c, 0, 64, 61
1, 118556, Control_c, 0, 64, 63
1, 118571, Control_c, 0, 64, 67
1, 118586, Control_c, 0, 64, 70
1, 118595, Note_on_c, 0, 33, 32
1, 118600, Control_c, 0, 64, 76
1, 118608, Note_off_c, 0, 31, 39
1, 118615, Control_c, 0, 64, 82
1, 118630, Control_c, 0, 64, 92
1, 118644, Control_c, 0, 64, 108
1, 118659, Control_c, 0, 64, 127
1, 118676, Note_off_c, 0, 33, 56
1, 118708, Note_on_c, 0, 31, 38
1, 118752, Note_off_c, 0, 31, 59
1, 118815, Note_on_c, 0, 33, 34
1, 118851, Note_on_c, 0, 31, 49
1, 118857, Note_off_c, 0, 33, 48
1, 118908, Note_off_c, 0, 31, 59
1, 118961, Note_on_c, 0, 33, 45
1, 118995, Note_off_c, 0, 33, 51
1, 119007, Note_on_c, 0, 31, 48
1, 119039, Note_off_c, 0, 31, 62
1, 119101, Note_on_c, 0, 33, 27
1, 119123, Note_on_c, 0, 31, 48
1, 119143, Note_off_c, 0, 33, 51
1, 119158, Note_off_c, 0, 31, 55
1, 119218, Note_on_c, 0, 33, 21
1, 119256, Note_on_c, 0, 31, 40
1, 119259, Note_off_c, 0, 33, 53
1, 119286, Note_off_c, 0, 31, 55
1, 119347, Note_on_c, 0, 33, 32
1, 119375, Note_on_c, 0, 31, 46
1, 119390, Note_off_c, 0, 33, 50
1, 119417, Note_off_c, 0, 31, 62
1, 119492, Note_on_c, 0, 33, 37
1, 119537, Note_off_c, 0, 33, 53
1, 119544, Note_on_c, 0, 31, 35
1, 119584, Note_off_c, 0, 31, 60
1, 119671, Note_on_c, 0, 33, 24
1, 119706, Note_off_c, 0, 33, 53
1, 119713, Note_on_c, 0, 31, 41
1, 119774, Note_off_c, 0, 31, 53
1, 119800, Control_c, 0, 64, 125
1, 119815, Control_c, 0, 64, 85
1, 119830, Control_c, 0, 64, 69
1, 119846, Control_c, 0, 64, 63
1, 119861, Control_c, 0, 64, 63
1, 119876, Control_c, 0, 64, 66
1, 119891, Control_c, 0, 64, 71
1, 119895, Note_on_c, 0, 30, 42
1, 119905, Control_c, 0, 64, 78
1, 119920, Control_c, 0, 64, 89
1, 119935, Control_c, 0, 64, 101
1, 119942, Note_off_c, 0, 30, 56
1, 119950, Control_c, 0, 64, 127
1, 119956, Note_on_c, 0, 42, 65
1, 119987, Note_off_c, 0, 42, 64
1, 120073, Note_on_c, 0, 51, 57
1, 120094, Note_on_c, 0, 59, 59
1, 120096, Note_on_c, 0, 54, 52
1, 120108, Note_off_c, 0, 51, 66
1, 120119, Note_on_c, 0, 56, 41
1, 120129, Note_off_c, 0, 54, 66
1, 120130, Note_off_c, 0, 59, 64
1, 120150, Note_off_c, 0, 56, 52
1, 120183, Note_on_c, 0, 63, 69
1, 120221, Note_on_c, 0, 66, 75
1, 120225, Note_off_c, 0, 63, 62
1, 120246, Note_off_c, 0, 66, 67
1, 120284, Note_on_c, 0, 68, 98
1, 120376, Note_off_c, 0, 68, 59
1, 120381, Poly_aftertouch_c, 0, 71, 0
1, 120429, Note_on_c, 0, 66, 59
1, 120464, Note_off_c, 0, 66, 59
1, 120502, Note_on_c, 0, 68, 58
1, 120537, Note_off_c, 0, 68, 64
1, 120591, Note_on_c, 0, 66, 26
1, 120613, Note_on_c, 0, 68, 66
1, 120638, Note_off_c, 0, 68, 68
1, 120639, Note_off_c, 0, 66, 0
1, 120656, Note_on_c, 0, 66, 43
1, 120690, Note_off_c, 0, 66, 64
1, 120738, Note_on_c, 0, 68, 45
1, 120762, Note_off_c, 0, 68, 61
1, 120791, Note_on_c, 0, 66, 53
1, 120826, Note_off_c, 0, 66, 64
1, 120864, Note_on_c, 0, 68, 45
1, 120896, Note_off_c, 0, 68, 62
1, 120917, Note_on_c, 0, 66, 55
1, 120952, Note_off_c, 0, 66, 65
1, 120991, Note_on_c, 0, 68, 57
1, 121023, Note_off_c, 0, 68, 66
1, 121057, Note_on_c, 0, 66, 48
1, 121089, Note_off_c, 0, 66, 63
1, 121119, Note_on_c, 0, 68, 56
1, 121161, Note_off_c, 0, 68, 64
1, 121187, Note_on_c, 0, 66, 50
1, 121221, Note_off_c, 0, 66, 63
1, 121253, Note_on_c, 0, 68, 56
1, 121283, Note_off_c, 0, 68, 66
1, 121337, Note_on_c, 0, 66, 35
1, 121374, Note_off_c, 0, 66, 47
1, 121403, Note_on_c, 0, 68, 47
1, 121435, Note_off_c, 0, 68, 62
1, 121477, Note_on_c, 0, 66, 46
1, 121509, Note_off_c, 0, 66, 61
1, 121543, Note_on_c, 0, 68, 54
1, 121577, Note_off_c, 0, 68, 64
1, 121611, Note_on_c, 0, 66, 46
1, 121647, Note_off_c, 0, 66, 62
1, 121683, Note_on_c, 0, 68, 53
1, 121718, Note_off_c, 0, 68, 63
1, 121753, Note_on_c, 0, 66, 49
1, 121793, Note_off_c, 0, 66, 63
1, 121817, Note_on_c, 0, 68, 57
1, 121853, Note_off_c, 0, 68, 64
1, 121916, Note_on_c, 0, 66, 40
1, 121950, Note_off_c, 0, 66, 50
1, 121963, Note_on_c, 0, 68, 58
1, 121993, Note_off_c, 0, 68, 65
1, 122057, Note_on_c, 0, 66, 33
1, 122083, Note_off_c, 0, 66, 56
1, 122105, Note_on_c, 0, 68, 59
1, 122135, Note_off_c, 0, 68, 63
1, 122186, Note_on_c, 0, 66, 35
1, 122216, Note_off_c, 0, 66, 51
1, 122228, Note_on_c, 0, 68, 57
1, 122264, Note_off_c, 0, 68, 64
1, 122316, Note_on_c, 0, 66, 45
1, 122343, Note_off_c, 0, 66, 58
1, 122383, Note_on_c, 0, 68, 47
1, 122421, Note_off_c, 0, 68, 62
1, 122446, Note_on_c, 0, 66, 43
1, 122495, Note_off_c, 0, 66, 60
1, 122505, Note_on_c, 0, 71, 63
1, 122548, Note_off_c, 0, 71, 58
1, 122549, Note_on_c, 0, 68, 43
1, 122598, Note_on_c, 0, 75, 63
1, 122607, Note_off_c, 0, 68, 57
1, 122652, Note_on_c, 0, 66, 44
1, 122675, Note_on_c, 0, 76, 52
1, 122678, Note_off_c, 0, 75, 61
1, 122690, Note_off_c, 0, 66, 63
1, 122697, Note_off_c, 0, 76, 56
1, 122739, Note_on_c, 0, 68, 54
1, 122759, Note_on_c, 0, 78, 73
1, 122759, Note_on_c, 0, 90, 80
1, 122778, Note_off_c, 0, 68, 64
1, 122781, Note_off_c, 0, 90, 68
1, 122786, Note_off_c, 0, 78, 68
1, 122801, Note_on_c, 0, 66, 51
1, 122838, Note_off_c, 0, 66, 64
1, 122882, Note_on_c, 0, 68, 54
1, 122921, Note_off_c, 0, 68, 62
1, 122958, Note_on_c, 0, 66, 45
1, 123006, Note_off_c, 0, 66, 60
1, 123057, Note_on_c, 0, 95, 79
1, 123063, Note_on_c, 0, 83, 60
1, 123066, Note_on_c, 0, 68, 42
1, 123081, Note_off_c, 0, 83, 65
1, 123090, Note_off_c, 0, 95, 64
1, 123106, Note_off_c, 0, 68, 59
1, 123149, Note_on_c, 0, 66, 35
1, 123183, Note_off_c, 0, 66, 61
1, 123227, Note_on_c, 0, 68, 45
1, 123274, Note_off_c, 0, 68, 60
1, 123316, Note_on_c, 0, 66, 39
1, 123358, Note_off_c, 0, 66, 62
1, 123412, Note_on_c, 0, 68, 50
1, 123452, Note_off_c, 0, 68, 59
1, 123507, Note_on_c, 0, 66, 40
1, 123557, Note_off_c, 0, 66, 57
1, 123598, Note_on_c, 0, 71, 55
1, 123602, Note_on_c, 0, 68, 48
1, 123646, Note_off_c, 0, 71, 58
1, 123677, Note_off_c, 0, 68, 58
1, 123684, Note_on_c, 0, 75, 60
1, 123717, Note_on_c, 0, 66, 43
1, 123743, Note_on_c, 0, 76, 70
1, 123743, Note_off_c, 0, 75, 62
1, 123761, Note_off_c, 0, 66, 62
1, 123773, Note_off_c, 0, 76, 66
1, 123811, Note_on_c, 0, 68, 54
1, 123838, Note_on_c, 0, 90, 84
1, 123841, Note_on_c, 0, 78, 75
1, 123850, Note_off_c, 0, 68, 64
1, 123859, Note_off_c, 0, 90, 67
1, 123866, Note_off_c, 0, 78, 67
1, 123872, Note_on_c, 0, 66, 56
1, 123907, Note_off_c, 0, 66, 64
1, 123942, Note_on_c, 0, 68, 63
1, 123975, Note_off_c, 0, 68, 62
1, 124006, Note_on_c, 0, 66, 45
1, 124034, Note_off_c, 0, 66, 61
1, 124076, Note_on_c, 0, 68, 60
1, 124077, Note_on_c, 0, 95, 95
1, 124091, Note_on_c, 0, 83, 77
1, 124103, Note_off_c, 0, 95, 64
1, 124105, Note_off_c, 0, 68, 60
1, 124112, Note_on_c, 0, 66, 74
1, 124114, Note_off_c, 0, 83, 69
1, 124153, Note_off_c, 0, 66, 56
1, 124178, Note_on_c, 0, 68, 83
1, 124202, Note_off_c, 0, 68, 68
1, 124410, Control_c, 0, 64, 92
1, 124425, Control_c, 0, 64, 69
1, 124426, Note_on_c, 0, 30, 58
1, 124440, Control_c, 0, 64, 57
1, 124455, Control_c, 0, 64, 59
1, 124470, Control_c, 0, 64, 64
1, 124485, Control_c, 0, 64, 69
1, 124495, Note_off_c, 0, 30, 62
1, 124500, Control_c, 0, 64, 81
1, 124507, Note_on_c, 0, 42, 52
1, 124515, Control_c, 0, 64, 127
1, 124535, Note_on_c, 0, 47, 49
1, 124538, Note_off_c, 0, 42, 54
1, 124565, Note_off_c, 0, 47, 62
1, 124568, Note_on_c, 0, 51, 56
1, 124586, Note_on_c, 0, 56, 48
1, 124592, Note_on_c, 0, 54, 46
1, 124596, Note_on_c, 0, 59, 50
1, 124596, Note_off_c, 0, 51, 66
1, 124622, Note_off_c, 0, 54, 63
1, 124625, Note_off_c, 0, 56, 65
1, 124628, Note_off_c, 0, 59, 65
1, 124685, Note_on_c, 0, 63, 69
1, 124696, Note_on_c, 0, 66, 77
1, 124714, Note_off_c, 0, 63, 67
1, 124722, Note_off_c, 0, 66, 69
1, 124766, Note_on_c, 0, 68, 96
1, 124854, Note_off_c, 0, 68, 61
1, 124908, Note_on_c, 0, 66, 70
1, 124954, Note_off_c, 0, 66, 60
1, 124979, Note_on_c, 0, 68, 60
1, 125008, Note_off_c, 0, 68, 65
1, 125048, Note_on_c, 0, 66, 50
1, 125068, Note_off_c, 0, 66, 64
1, 125092, Note_on_c, 0, 68, 67
1, 125123, Note_off_c, 0, 68, 64
1, 125128, Note_on_c, 0, 66, 72
1, 125151, Note_off_c, 0, 66, 69
1, 125212, Note_on_c, 0, 68, 54
1, 125239, Note_on_c, 0, 66, 57
1, 125242, Note_off_c, 0, 68, 56
1, 125286, Note_off_c, 0, 66, 59
1, 125321, Note_on_c, 0, 68, 67
1, 125349, Note_off_c, 0, 68, 63
1, 125391, Note_on_c, 0, 66, 51
1, 125410, Note_off_c, 0, 66, 63
1, 125456, Note_on_c, 0, 68, 58
1, 125476, Note_off_c, 0, 68, 64
1, 125489, Note_on_c, 0, 66, 58
1, 125522, Note_off_c, 0, 66, 64
1, 125561, Note_on_c, 0, 68, 60
1, 125590, Note_off_c, 0, 68, 67
1, 125608, Note_on_c, 0, 66, 57
1, 125646, Note_off_c, 0, 66, 65
1, 125698, Note_on_c, 0, 68, 58
1, 125725, Note_off_c, 0, 68, 62
1, 125765, Note_on_c, 0, 66, 40
1, 125794, Note_off_c, 0, 66, 56
1, 125821, Note_on_c, 0, 68, 58
1, 125865, Note_off_c, 0, 68, 59
1, 125892, Note_on_c, 0, 66, 52
1, 125934, Note_off_c, 0, 66, 61
1, 125987, Note_on_c, 0, 68, 46
1, 126023, Note_off_c, 0, 68, 62
1, 126061, Note_on_c, 0, 66, 44
1, 126100, Note_off_c, 0, 66, 63
1, 126151, Note_on_c, 0, 68, 45
1, 126204, Note_on_c, 0, 71, 60
1, 126217, Note_off_c, 0, 68, 60
1, 126241, Note_off_c, 0, 71, 62
1, 126251, Note_on_c, 0, 66, 42
1, 126284, Note_on_c, 0, 75, 69
1, 126288, Note_off_c, 0, 66, 63
1, 126343, Note_off_c, 0, 75, 59
1, 126344, Note_on_c, 0, 76, 76
1, 126345, Note_on_c, 0, 68, 51
1, 126369, Note_off_c, 0, 76, 69
1, 126393, Note_off_c, 0, 68, 63
1, 126413, Note_on_c, 0, 66, 59
1, 126435, Note_on_c, 0, 78, 83
1, 126436, Note_on_c, 0, 90, 90
1, 126455, Note_off_c, 0, 66, 61
1, 126457, Note_off_c, 0, 78, 72
1, 126476, Note_off_c, 0, 90, 61
1, 126495, Note_on_c, 0, 68, 64
1, 126529, Note_off_c, 0, 68, 64
1, 126548, Note_on_c, 0, 66, 59
1, 126579, Note_off_c, 0, 66, 66
1, 126618, Note_on_c, 0, 68, 61
1, 126655, Note_off_c, 0, 68, 64
1, 126678, Note_on_c, 0, 66, 55
1, 126712, Note_on_c, 0, 95, 99
1, 126712, Note_off_c, 0, 66, 64
1, 126719, Note_on_c, 0, 83, 82
1, 126738, Note_off_c, 0, 83, 72
1, 126756, Note_off_c, 0, 95, 67
1, 126760, Note_on_c, 0, 68, 56
1, 126797, Note_off_c, 0, 68, 60
1, 126824, Note_on_c, 0, 66, 59
1, 126864, Note_off_c, 0, 66, 62
1, 126908, Note_on_c, 0, 68, 61
1, 126944, Note_off_c, 0, 68, 63
1, 126965, Note_on_c, 0, 66, 61
1, 127005, Note_off_c, 0, 66, 59
1, 127043, Note_on_c, 0, 68, 65
1, 127087, Note_off_c, 0, 68, 60
1, 127120, Note_on_c, 0, 66, 58
1, 127159, Note_off_c, 0, 66, 64
1, 127197, Note_on_c, 0, 68, 67
1, 127205, Note_on_c, 0, 71, 80
1, 127239, Note_off_c, 0, 68, 57
1, 127242, Note_off_c, 0, 71, 60
1, 127262, Note_on_c, 0, 66, 61
1, 127279, Note_on_c, 0, 75, 86
1, 127309, Note_off_c, 0, 66, 62
1, 127337, Note_on_c, 0, 76, 82
1, 127343, Note_off_c, 0, 75, 63
1, 127349, Note_on_c, 0, 68, 64
1, 127358, Note_off_c, 0, 76, 71
1, 127384, Note_off_c, 0, 68, 55
1, 127406, Note_on_c, 0, 66, 77
1, 127420, Note_on_c, 0, 78, 96
1, 127421, Note_on_c, 0, 90, 95
1, 127438, Note_off_c, 0, 78, 70
1, 127444, Note_on_c, 0, 87, 45
1, 127455, Note_off_c, 0, 66, 61
1, 127466, Note_off_c, 0, 90, 62
1, 127469, Note_off_c, 0, 87, 54
1, 127478, Note_on_c, 0, 68, 81
1, 127521, Note_on_c, 0, 66, 71
1, 127528, Note_off_c, 0, 68, 62
1, 127566, Note_off_c, 0, 66, 58
1, 127589, Note_on_c, 0, 68, 82
1, 127626, Note_on_c, 0, 66, 58
1, 127639, Note_off_c, 0, 68, 61
1, 127654, Note_on_c, 0, 95, 107
1, 127654, Note_off_c, 0, 66, 67
1, 127657, Note_on_c, 0, 83, 94
1, 127673, Note_on_c, 0, 68, 72
1, 127678, Note_off_c, 0, 83, 68
1, 127694, Note_off_c, 0, 95, 68
1, 127702, Note_on_c, 0, 66, 83
1, 127719, Note_off_c, 0, 68, 63
1, 127728, Note_off_c, 0, 66, 68
1, 127814, Poly_aftertouch_c, 0, 65, 0
1, 127891, Poly_aftertouch_c, 0, 85, 0
1, 127933, Control_c, 0, 64, 87
1, 127940, Note_on_c, 0, 28, 88
1, 127941, Note_on_c, 0, 97, 97
1, 127948, Control_c, 0, 64, 60
1, 127963, Control_c, 0, 64, 36
1, 127978, Control_c, 0, 64, 54
1, 127987, Note_on_c, 0, 94, 40
1, 127992, Control_c, 0, 64, 63
1, 128007, Control_c, 0, 64, 72
1, 128022, Note_off_c, 0, 94, 46
1, 128022, Control_c, 0, 64, 105
1, 128025, Note_off_c, 0, 28, 63
1, 128036, Note_on_c, 0, 92, 66
1, 128037, Control_c, 0, 64, 127
1, 128044, Note_on_c, 0, 40, 79
1, 128075, Note_off_c, 0, 40, 65
1, 128089, Note_off_c, 0, 97, 63
1, 128090, Note_on_c, 0, 88, 64
1, 128116, Note_off_c, 0, 92, 65
1, 128118, Note_off_c, 0, 88, 68
1, 128154, Note_on_c, 0, 85, 27
1, 128184, Note_off_c, 0, 85, 45
1, 128202, Note_on_c, 0, 47, 46
1, 128227, Note_on_c, 0, 52, 67
1, 128232, Note_off_c, 0, 47, 52
1, 128243, Note_on_c, 0, 85, 51
1, 128286, Note_on_c, 0, 80, 53
1, 128293, Note_off_c, 0, 52, 63
1, 128295, Note_on_c, 0, 56, 81
1, 128333, Note_off_c, 0, 85, 48
1, 128340, Note_on_c, 0, 76, 56
1, 128350, Note_off_c, 0, 56, 59
1, 128366, Note_off_c, 0, 80, 60
1, 128373, Note_on_c, 0, 59, 77
1, 128386, Note_on_c, 0, 73, 61
1, 128390, Note_off_c, 0, 76, 56
1, 128414, Note_off_c, 0, 59, 60
1, 128432, Note_off_c, 0, 73, 54
1, 128440, Note_on_c, 0, 61, 83
1, 128473, Note_on_c, 0, 85, 69
1, 128485, Note_off_c, 0, 61, 64
1, 128488, Note_on_c, 0, 80, 66
1, 128509, Note_on_c, 0, 64, 99
1, 128538, Note_on_c, 0, 76, 73
1, 128544, Note_off_c, 0, 64, 69
1, 128564, Note_off_c, 0, 85, 62
1, 128568, Note_off_c, 0, 80, 62
1, 128605, Note_off_c, 0, 76, 64
1, 128611, Note_on_c, 0, 73, 66
1, 128668, Note_on_c, 0, 68, 98
1, 128676, Note_off_c, 0, 73, 63
1, 128696, Note_on_c, 0, 85, 83
1, 128714, Note_off_c, 0, 68, 65
1, 128734, Note_on_c, 0, 80, 69
1, 128798, Note_off_c, 0, 85, 63
1, 128801, Note_on_c, 0, 76, 72
1, 128816, Note_on_c, 0, 69, 103
1, 128826, Note_off_c, 0, 80, 62
1, 128860, Note_on_c, 0, 73, 66
1, 128865, Note_off_c, 0, 69, 66
1, 128866, Note_off_c, 0, 76, 63
1, 128932, Note_off_c, 0, 73, 63
1, 128956, Note_on_c, 0, 71, 109
1, 128963, Note_on_c, 0, 85, 84
1, 128995, Note_on_c, 0, 80, 64
1, 129061, Note_on_c, 0, 76, 73
1, 129071, Note_off_c, 0, 71, 63
1, 129071, Note_off_c, 0, 85, 60
1, 129094, Note_off_c, 0, 80, 63
1, 129127, Note_off_c, 0, 76, 63
1, 129131, Note_on_c, 0, 73, 67
1, 129193, Note_off_c, 0, 73, 64
1, 129227, Note_on_c, 0, 85, 66
1, 129256, Note_on_c, 0, 80, 64
1, 129326, Note_off_c, 0, 80, 65
1, 129329, Note_on_c, 0, 76, 60
1, 129341, Note_off_c, 0, 85, 48
1, 129389, Note_off_c, 0, 76, 62
1, 129404, Note_on_c, 0, 73, 62
1, 129441, Note_off_c, 0, 73, 61
1, 129472, Note_on_c, 0, 76, 105
1, 129478, Note_on_c, 0, 85, 80
1, 129508, Note_off_c, 0, 76, 69
1, 129523, Note_on_c, 0, 80, 62
1, 129594, Note_on_c, 0, 76, 66
1, 129605, Note_off_c, 0, 85, 59
1, 129626, Note_off_c, 0, 80, 63
1, 129658, Note_off_c, 0, 76, 63
1, 129661, Note_on_c, 0, 73, 67
1, 129716, Note_off_c, 0, 73, 62
1, 129742, Note_on_c, 0, 85, 69
1, 129758, Note_on_c, 0, 80, 65
1, 129832, Note_on_c, 0, 76, 60
1, 129848, Note_off_c, 0, 85, 60
1, 129856, Note_off_c, 0, 80, 62
1, 129883, Note_off_c, 0, 76, 62
1, 129890, Note_on_c, 0, 73, 66
1, 129934, Note_off_c, 0, 73, 60
1, 129975, Note_on_c, 0, 71, 106
1, 129976, Note_on_c, 0, 85, 80
1, 129993, Note_on_c, 0, 80, 67
1, 130004, Note_off_c, 0, 71, 64
1, 130069, Note_on_c, 0, 76, 68
1, 130080, Note_off_c, 0, 85, 61
1, 130095, Note_off_c, 0, 80, 62
1, 130135, Note_off_c, 0, 76, 63
1, 130140, Note_on_c, 0, 73, 69
1, 130197, Note_off_c, 0, 73, 62
1, 130241, Note_on_c, 0, 85, 77
1, 130245, Note_on_c, 0, 73, 95
1, 130258, Note_on_c, 0, 80, 69
1, 130273, Note_off_c, 0, 73, 68
1, 130339, Note_on_c, 0, 76, 67
1, 130354, Note_off_c, 0, 85, 59
1, 130368, Note_off_c, 0, 80, 63
1, 130398, Note_on_c, 0, 73, 67
1, 130398, Note_off_c, 0, 76, 63
1, 130462, Note_off_c, 0, 73, 62
1, 130494, Note_on_c, 0, 71, 96
1, 130494, Note_on_c, 0, 85, 71
1, 130498, Note_on_c, 0, 80, 71
1, 130532, Note_off_c, 0, 71, 69
1, 130582, Note_on_c, 0, 76, 63
1, 130591, Note_off_c, 0, 85, 63
1, 130597, Note_off_c, 0, 80, 63
1, 130636, Note_on_c, 0, 73, 67
1, 130646, Note_off_c, 0, 76, 61
1, 130709, Note_off_c, 0, 73, 63
1, 130730, Note_on_c, 0, 85, 67
1, 130738, Note_on_c, 0, 69, 84
1, 130742, Note_on_c, 0, 80, 66
1, 130760, Note_off_c, 0, 69, 69
1, 130830, Note_off_c, 0, 85, 62
1, 130832, Note_on_c, 0, 76, 61
1, 130843, Note_off_c, 0, 80, 63
1, 130886, Note_off_c, 0, 76, 61
1, 130897, Note_on_c, 0, 73, 60
1, 130935, Note_off_c, 0, 73, 58
1, 130958, Control_c, 0, 64, 97
1, 130973, Control_c, 0, 64, 71
1, 130983, Note_on_c, 0, 68, 51
1, 130986, Note_on_c, 0, 56, 53
1, 130987, Control_c, 0, 64, 55
1, 130988, Note_on_c, 0, 59, 51
1, 130988, Note_on_c, 0, 63, 40
1, 131002, Control_c, 0, 64, 37
1, 131017, Control_c, 0, 64, 42
1, 131033, Control_c, 0, 64, 49
1, 131034, Note_off_c, 0, 63, 59
1, 131048, Control_c, 0, 64, 57
1, 131061, Note_on_c, 0, 80, 48
1, 131063, Control_c, 0, 64, 62
1, 131077, Control_c, 0, 64, 67
1, 131085, Note_off_c, 0, 68, 56
1, 131092, Control_c, 0, 64, 72
1, 131105, Note_off_c, 0, 80, 61
1, 131107, Control_c, 0, 64, 80
1, 131117, Note_on_c, 0, 75, 47
1, 131122, Control_c, 0, 64, 90
1, 131136, Control_c, 0, 64, 106
1, 131147, Note_off_c, 0, 75, 56
1, 131151, Control_c, 0, 64, 127
1, 131158, Note_off_c, 0, 56, 43
1, 131168, Note_off_c, 0, 59, 43
1, 131174, Note_on_c, 0, 71, 43
1, 131213, Note_off_c, 0, 71, 59
1, 131229, Note_on_c, 0, 63, 56
1, 131260, Note_on_c, 0, 80, 48
1, 131260, Note_off_c, 0, 63, 64
1, 131300, Note_on_c, 0, 75, 35
1, 131302, Note_off_c, 0, 80, 64
1, 131336, Note_off_c, 0, 75, 57
1, 131357, Note_on_c, 0, 71, 46
1, 131390, Note_off_c, 0, 71, 63
1, 131402, Control_c, 0, 64, 89
1, 131417, Control_c, 0, 64, 67
1, 131432, Control_c, 0, 64, 60
1, 131447, Control_c, 0, 64, 62
1, 131453, Note_on_c, 0, 58, 50
1, 131453, Note_on_c, 0, 70, 49
1, 131457, Note_on_c, 0, 65, 46
1, 131462, Control_c, 0, 64, 63
1, 131464, Note_on_c, 0, 62, 39
1, 131472, Note_on_c, 0, 82, 45
1, 131476, Control_c, 0, 64, 64
1, 131491, Control_c, 0, 64, 68
1, 131499, Note_off_c, 0, 62, 60
1, 131499, Note_off_c, 0, 65, 63
1, 131506, Control_c, 0, 64, 78
1, 131520, Control_c, 0, 64, 89
1, 131526, Note_off_c, 0, 82, 60
1, 131530, Note_off_c, 0, 70, 47
1, 131535, Control_c, 0, 64, 96
1, 131546, Note_on_c, 0, 77, 55
1, 131550, Control_c, 0, 64, 100
1, 131552, Note_off_c, 0, 58, 56
1, 131565, Control_c, 0, 64, 105
1, 131580, Control_c, 0, 64, 113
1, 131582, Note_off_c, 0, 77, 65
1, 131594, Control_c, 0, 64, 127
1, 131597, Note_on_c, 0, 74, 48
1, 131632, Control_c, 0, 64, 115
1, 131642, Note_off_c, 0, 74, 59
1, 131647, Control_c, 0, 64, 96
1, 131662, Control_c, 0, 64, 78
1, 131676, Control_c, 0, 64, 66
1, 131687, Note_on_c, 0, 71, 60
1, 131689, Note_on_c, 0, 59, 50
1, 131691, Control_c, 0, 64, 63
1, 131696, Note_on_c, 0, 66, 51
1, 131702, Note_on_c, 0, 63, 42
1, 131706, Control_c, 0, 64, 66
1, 131708, Note_on_c, 0, 83, 62
1, 131721, Control_c, 0, 64, 70
1, 131728, Note_off_c, 0, 71, 62
1, 131728, Note_off_c, 0, 59, 62
1, 131735, Control_c, 0, 64, 75
1, 131738, Note_off_c, 0, 66, 62
1, 131740, Note_off_c, 0, 63, 63
1, 131750, Control_c, 0, 64, 84
1, 131765, Control_c, 0, 64, 93
1, 131770, Note_off_c, 0, 83, 62
1, 131773, Note_on_c, 0, 78, 57
1, 131780, Control_c, 0, 64, 100
1, 131795, Control_c, 0, 64, 104
1, 131809, Control_c, 0, 64, 105
1, 131811, Note_off_c, 0, 78, 64
1, 131825, Control_c, 0, 64, 106
1, 131840, Note_on_c, 0, 75, 51
1, 131855, Control_c, 0, 64, 102
1, 131870, Control_c, 0, 64, 92
1, 131883, Note_off_c, 0, 75, 53
1, 131885, Control_c, 0, 64, 76
1, 131899, Control_c, 0, 64, 66
1, 131905, Note_on_c, 0, 73, 63
1, 131913, Note_on_c, 0, 68, 56
1, 131914, Control_c, 0, 64, 64
1, 131916, Note_on_c, 0, 61, 49
1, 131918, Note_on_c, 0, 64, 53
1, 131929, Control_c, 0, 64, 68
1, 131944, Control_c, 0, 64, 72
1, 131948, Note_on_c, 0, 85, 62
1, 131949, Note_off_c, 0, 68, 64
1, 131952, Note_off_c, 0, 73, 58
1, 131954, Note_off_c, 0, 64, 63
1, 131958, Control_c, 0, 64, 79
1, 131962, Note_off_c, 0, 61, 62
1, 131973, Control_c, 0, 64, 89
1, 131989, Control_c, 0, 64, 100
1, 132004, Control_c, 0, 64, 108
1, 132017, Note_off_c, 0, 85, 62
1, 132019, Control_c, 0, 64, 110
1, 132029, Note_on_c, 0, 80, 52
1, 132033, Control_c, 0, 64, 111
1, 132056, Note_off_c, 0, 80, 62
1, 132063, Control_c, 0, 64, 110
1, 132072, Note_on_c, 0, 76, 52
1, 132078, Control_c, 0, 64, 101
1, 132093, Control_c, 0, 64, 87
1, 132107, Control_c, 0, 64, 72
1, 132113, Note_off_c, 0, 76, 65
1, 132122, Control_c, 0, 64, 63
1, 132134, Note_on_c, 0, 59, 52
1, 132136, Note_on_c, 0, 71, 65
1, 132137, Note_on_c, 0, 63, 59
1, 132137, Control_c, 0, 64, 64
1, 132138, Note_on_c, 0, 66, 60
1, 132152, Control_c, 0, 64, 67
1, 132167, Control_c, 0, 64, 71
1, 132168, Note_off_c, 0, 59, 64
1, 132175, Note_off_c, 0, 71, 62
1, 132179, Note_off_c, 0, 63, 61
1, 132179, Note_off_c, 0, 66, 60
1, 132182, Control_c, 0, 64, 77
1, 132186, Note_on_c, 0, 83, 69
1, 132196, Control_c, 0, 64, 85
1, 132211, Control_c, 0, 64, 94
1, 132226, Control_c, 0, 64, 99
1, 132233, Note_on_c, 0, 78, 63
1, 132241, Control_c, 0, 64, 102
1, 132247, Note_off_c, 0, 83, 62
1, 132256, Control_c, 0, 64, 108
1, 132270, Note_off_c, 0, 78, 64
1, 132271, Control_c, 0, 64, 114
1, 132286, Control_c, 0, 64, 115
1, 132286, Note_on_c, 0, 75, 58
1, 132300, Control_c, 0, 64, 102
1, 132315, Control_c, 0, 64, 85
1, 132325, Note_off_c, 0, 75, 59
1, 132330, Control_c, 0, 64, 69
1, 132344, Control_c, 0, 64, 60
1, 132345, Note_on_c, 0, 70, 67
1, 132348, Note_on_c, 0, 58, 50
1, 132358, Note_on_c, 0, 65, 56
1, 132359, Control_c, 0, 64, 63
1, 132361, Note_on_c, 0, 62, 55
1, 132381, Control_c, 0, 64, 66
1, 132392, Note_off_c, 0, 58, 65
1, 132392, Note_off_c, 0, 70, 62
1, 132396, Control_c, 0, 64, 69
1, 132399, Note_off_c, 0, 65, 65
1, 132402, Note_off_c, 0, 62, 65
1, 132411, Control_c, 0, 64, 76
1, 132420, Note_on_c, 0, 82, 65
1, 132426, Control_c, 0, 64, 88
1, 132441, Control_c, 0, 64, 112
1, 132456, Control_c, 0, 64, 127
1, 132465, Note_on_c, 0, 77, 69
1, 132475, Note_off_c, 0, 82, 61
1, 132503, Note_off_c, 0, 77, 63
1, 132527, Note_on_c, 0, 74, 62
1, 132551, Note_off_c, 0, 74, 63
1, 132592, Note_on_c, 0, 75, 66
1, 132598, Note_on_c, 0, 70, 63
1, 132602, Note_on_c, 0, 63, 63
1, 132603, Note_on_c, 0, 67, 59
1, 132620, Note_off_c, 0, 75, 64
1, 132629, Note_off_c, 0, 70, 67
1, 132635, Note_off_c, 0, 63, 65
1, 132635, Note_off_c, 0, 67, 64
1, 132638, Note_on_c, 0, 87, 66
1, 132702, Note_on_c, 0, 82, 63
1, 132719, Note_off_c, 0, 87, 61
1, 132741, Note_off_c, 0, 82, 60
1, 132775, Note_on_c, 0, 79, 46
1, 132798, Note_off_c, 0, 79, 58
1, 132812, Control_c, 0, 64, 96
1, 132827, Control_c, 0, 64, 76
1, 132842, Control_c, 0, 64, 63
1, 132845, Note_on_c, 0, 63, 43
1, 132849, Note_on_c, 0, 59, 45
1, 132852, Note_on_c, 0, 68, 39
1, 132856, Control_c, 0, 64, 54
1, 132858, Note_on_c, 0, 56, 50
1, 132871, Control_c, 0, 64, 55
1, 132886, Control_c, 0, 64, 56
1, 132891, Note_off_c, 0, 63, 59
1, 132901, Control_c, 0, 64, 59
1, 132906, Note_on_c, 0, 80, 55
1, 132916, Control_c, 0, 64, 64
1, 132930, Control_c, 0, 64, 68
1, 132945, Note_off_c, 0, 68, 53
1, 132945, Control_c, 0, 64, 73
1, 132960, Control_c, 0, 64, 79
1, 132974, Control_c, 0, 64, 84
1, 132977, Note_on_c, 0, 75, 40
1, 132977, Note_off_c, 0, 80, 59
1, 132989, Control_c, 0, 64, 88
1, 133004, Control_c, 0, 64, 93
1, 133011, Note_off_c, 0, 75, 49
1, 133017, Note_off_c, 0, 59, 30
1, 133019, Control_c, 0, 64, 97
1, 133034, Note_off_c, 0, 56, 27
1, 133034, Control_c, 0, 64, 101
1, 133042, Note_on_c, 0, 71, 43
1, 133049, Control_c, 0, 64, 102
1, 133064, Control_c, 0, 64, 103
1, 133078, Note_off_c, 0, 71, 53
1, 133079, Control_c, 0, 64, 104
1, 133091, Note_on_c, 0, 63, 55
1, 133093, Control_c, 0, 64, 105
1, 133130, Control_c, 0, 64, 105
1, 133138, Note_off_c, 0, 63, 63
1, 133149, Note_on_c, 0, 80, 48
1, 133174, Control_c, 0, 64, 106
1, 133189, Control_c, 0, 64, 107
1, 133192, Note_off_c, 0, 80, 60
1, 133204, Note_on_c, 0, 75, 49
1, 133204, Control_c, 0, 64, 109
1, 133219, Control_c, 0, 64, 112
1, 133232, Note_off_c, 0, 75, 58
1, 133234, Control_c, 0, 64, 115
1, 133263, Note_on_c, 0, 71, 43
1, 133278, Control_c, 0, 64, 114
1, 133289, Note_off_c, 0, 71, 57
1, 133293, Control_c, 0, 64, 109
1, 133308, Control_c, 0, 64, 99
1, 133323, Control_c, 0, 64, 83
1, 133336, Note_on_c, 0, 58, 52
1, 133338, Control_c, 0, 64, 69
1, 133339, Note_on_c, 0, 70, 49
1, 133340, Note_on_c, 0, 65, 50
1, 133341, Note_on_c, 0, 62, 47
1, 133353, Control_c, 0, 64, 62
1, 133362, Note_on_c, 0, 82, 49
1, 133368, Control_c, 0, 64, 64
1, 133382, Control_c, 0, 64, 68
1, 133383, Note_off_c, 0, 62, 62
1, 133383, Note_off_c, 0, 65, 64
1, 133396, Note_off_c, 0, 70, 58
1, 133397, Control_c, 0, 64, 72
1, 133412, Control_c, 0, 64, 80
1, 133422, Note_off_c, 0, 58, 54
1, 133422, Note_off_c, 0, 82, 56
1, 133428, Control_c, 0, 64, 91
1, 133442, Control_c, 0, 64, 103
1, 133445, Note_on_c, 0, 77, 44
1, 133457, Control_c, 0, 64, 110
1, 133481, Note_on_c, 0, 74, 52
1, 133487, Note_off_c, 0, 77, 58
1, 133515, Control_c, 0, 64, 108
1, 133523, Note_off_c, 0, 74, 59
1, 133530, Control_c, 0, 64, 103
1, 133544, Control_c, 0, 64, 92
1, 133559, Control_c, 0, 64, 76
1, 133562, Note_on_c, 0, 71, 64
1, 133565, Note_on_c, 0, 66, 59
1, 133566, Note_on_c, 0, 59, 55
1, 133569, Note_on_c, 0, 63, 58
1, 133574, Control_c, 0, 64, 68
1, 133589, Control_c, 0, 64, 68
1, 133600, Note_on_c, 0, 83, 60
1, 133603, Control_c, 0, 64, 73
1, 133609, Note_off_c, 0, 59, 63
1, 133610, Note_off_c, 0, 63, 61
1, 133616, Note_off_c, 0, 66, 57
1, 133618, Control_c, 0, 64, 81
1, 133619, Note_off_c, 0, 71, 62
1, 133633, Control_c, 0, 64, 92
1, 133648, Control_c, 0, 64, 114
1, 133663, Control_c, 0, 64, 127
1, 133669, Note_off_c, 0, 83, 64
1, 133670, Note_on_c, 0, 78, 67
1, 133700, Note_off_c, 0, 78, 67
1, 133722, Note_on_c, 0, 75, 66
1, 133767, Control_c, 0, 64, 96
1, 133771, Note_off_c, 0, 75, 51
1, 133782, Control_c, 0, 64, 74
1, 133790, Note_on_c, 0, 73, 69
1, 133793, Note_on_c, 0, 68, 62
1, 133796, Control_c, 0, 64, 63
1, 133800, Note_on_c, 0, 64, 53
1, 133805, Note_on_c, 0, 61, 45
1, 133811, Control_c, 0, 64, 63
1, 133818, Note_off_c, 0, 73, 68
1, 133826, Control_c, 0, 64, 67
1, 133827, Note_off_c, 0, 68, 66
1, 133833, Note_off_c, 0, 64, 65
1, 133836, Note_on_c, 0, 85, 67
1, 133839, Note_off_c, 0, 61, 62
1, 133841, Control_c, 0, 64, 72
1, 133856, Control_c, 0, 64, 80
1, 133878, Control_c, 0, 64, 90
1, 133893, Control_c, 0, 64, 101
1, 133899, Note_on_c, 0, 80, 66
1, 133907, Control_c, 0, 64, 105
1, 133913, Note_off_c, 0, 85, 63
1, 133937, Control_c, 0, 64, 105
1, 133937, Note_off_c, 0, 80, 58
1, 133952, Control_c, 0, 64, 102
1, 133967, Note_on_c, 0, 76, 57
1, 133967, Control_c, 0, 64, 95
1, 133982, Control_c, 0, 64, 83
1, 133996, Control_c, 0, 64, 72
1, 134002, Note_off_c, 0, 76, 66
1, 134011, Control_c, 0, 64, 67
1, 134026, Control_c, 0, 64, 70
1, 134029, Note_on_c, 0, 68, 53
1, 134031, Note_on_c, 0, 56, 44
1, 134031, Note_on_c, 0, 59, 51
1, 134033, Note_on_c, 0, 63, 55
1, 134041, Control_c, 0, 64, 75
1, 134056, Control_c, 0, 64, 84
1, 134056, Note_off_c, 0, 59, 61
1, 134067, Note_off_c, 0, 63, 64
1, 134068, Note_off_c, 0, 68, 63
1, 134070, Control_c, 0, 64, 95
1, 134072, Note_off_c, 0, 56, 64
1, 134085, Control_c, 0, 64, 104
1, 134089, Note_on_c, 0, 80, 48
1, 134100, Control_c, 0, 64, 110
1, 134115, Control_c, 0, 64, 112
1, 134125, Note_off_c, 0, 80, 52
1, 134129, Control_c, 0, 64, 112
1, 134130, Note_on_c, 0, 75, 53
1, 134144, Control_c, 0, 64, 115
1, 134153, Note_off_c, 0, 75, 62
1, 134159, Control_c, 0, 64, 119
1, 134174, Control_c, 0, 64, 122
1, 134182, Note_on_c, 0, 71, 60
1, 134189, Control_c, 0, 64, 115
1, 134200, Note_off_c, 0, 71, 64
1, 134203, Control_c, 0, 64, 96
1, 134219, Control_c, 0, 64, 75
1, 134234, Control_c, 0, 64, 64
1, 134247, Note_on_c, 0, 73, 68
1, 134249, Control_c, 0, 64, 63
1, 134258, Note_on_c, 0, 68, 63
1, 134264, Control_c, 0, 64, 66
1, 134265, Note_on_c, 0, 64, 53
1, 134271, Note_on_c, 0, 61, 48
1, 134279, Control_c, 0, 64, 71
1, 134293, Control_c, 0, 64, 79
1, 134301, Note_on_c, 0, 85, 73
1, 134303, Note_off_c, 0, 64, 64
1, 134303, Note_off_c, 0, 68, 59
1, 134304, Note_off_c, 0, 73, 61
1, 134308, Control_c, 0, 64, 98
1, 134313, Note_off_c, 0, 61, 63
1, 134323, Control_c, 0, 64, 127
1, 134361, Note_on_c, 0, 80, 76
1, 134386, Note_off_c, 0, 85, 66
1, 134414, Note_on_c, 0, 76, 79
1, 134434, Note_off_c, 0, 80, 57
1, 134472, Note_off_c, 0, 76, 63
1, 134477, Note_on_c, 0, 71, 79
1, 134482, Note_on_c, 0, 66, 73
1, 134483, Note_on_c, 0, 63, 74
1, 134487, Note_on_c, 0, 59, 70
1, 134498, Note_off_c, 0, 71, 70
1, 134509, Note_off_c, 0, 66, 67
1, 134519, Note_off_c, 0, 59, 67
1, 134524, Note_off_c, 0, 63, 63
1, 134527, Note_on_c, 0, 83, 88
1, 134573, Note_on_c, 0, 79, 30
1, 134600, Note_on_c, 0, 78, 80
1, 134605, Note_off_c, 0, 79, 53
1, 134623, Note_off_c, 0, 83, 61
1, 134659, Note_on_c, 0, 75, 80
1, 134667, Note_off_c, 0, 78, 63
1, 134686, Note_off_c, 0, 75, 64
1, 134819, Control_c, 0, 64, 89
1, 134825, Note_on_c, 0, 28, 72
1, 134826, Note_on_c, 0, 97, 102
1, 134826, Note_on_c, 0, 26, 86
1, 134834, Control_c, 0, 64, 70
1, 134849, Control_c, 0, 64, 67
1, 134855, Note_off_c, 0, 26, 66
1, 134864, Control_c, 0, 64, 77
1, 134879, Control_c, 0, 64, 101
1, 134893, Control_c, 0, 64, 127
1, 134908, Note_off_c, 0, 28, 62
1, 134926, Poly_aftertouch_c, 0, 33, 127
1, 134936, Note_on_c, 0, 40, 75
1, 134940, Note_on_c, 0, 92, 79
1, 134972, Poly_aftertouch_c, 0, 33, 0
1, 134972, Note_off_c, 0, 40, 67
1, 134980, Note_off_c, 0, 97, 62
1, 134994, Note_on_c, 0, 88, 65
1, 135017, Note_off_c, 0, 92, 64
1, 135031, Note_off_c, 0, 88, 65
1, 135047, Note_on_c, 0, 85, 61
1, 135065, Note_off_c, 0, 85, 66
1, 135095, Note_on_c, 0, 52, 65
1, 135122, Note_on_c, 0, 47, 3
1, 135138, Note_on_c, 0, 85, 61
1, 135159, Note_off_c, 0, 47, 35
1, 135178, Note_off_c, 0, 52, 65
1, 135180, Note_on_c, 0, 56, 80
1, 135231, Note_off_c, 0, 56, 61
1, 135236, Note_off_c, 0, 85, 53
1, 135245, Note_on_c, 0, 76, 38
1, 135253, Note_on_c, 0, 59, 82
1, 135256, Note_on_c, 0, 77, 44
1, 135266, Poly_aftertouch_c, 0, 81, 0
1, 135273, Note_on_c, 0, 73, 70
1, 135281, Note_off_c, 0, 76, 64
1, 135282, Note_off_c, 0, 77, 52
1, 135291, Note_off_c, 0, 59, 62
1, 135330, Note_on_c, 0, 61, 90
1, 135333, Note_off_c, 0, 73, 62
1, 135358, Note_on_c, 0, 85, 77
1, 135378, Note_on_c, 0, 80, 67
1, 135386, Note_off_c, 0, 61, 64
1, 135412, Note_on_c, 0, 64, 98
1, 135433, Note_on_c, 0, 76, 74
1, 135450, Note_off_c, 0, 64, 68
1, 135460, Note_off_c, 0, 85, 61
1, 135468, Note_off_c, 0, 80, 63
1, 135501, Note_on_c, 0, 73, 74
1, 135502, Note_off_c, 0, 76, 66
1, 135562, Note_on_c, 0, 68, 96
1, 135562, Note_off_c, 0, 73, 64
1, 135587, Note_on_c, 0, 85, 85
1, 135604, Note_off_c, 0, 68, 65
1, 135609, Note_on_c, 0, 80, 70
1, 135678, Note_on_c, 0, 76, 78
1, 135688, Note_off_c, 0, 85, 64
1, 135703, Note_on_c, 0, 69, 110
1, 135708, Note_off_c, 0, 80, 63
1, 135734, Note_on_c, 0, 73, 75
1, 135740, Note_off_c, 0, 76, 64
1, 135751, Note_off_c, 0, 69, 66
1, 135800, Note_off_c, 0, 73, 62
1, 135835, Note_on_c, 0, 71, 104
1, 135836, Note_on_c, 0, 85, 86
1, 135861, Note_on_c, 0, 80, 67
1, 135917, Note_off_c, 0, 71, 69
1, 135931, Note_on_c, 0, 76, 70
1, 135937, Note_off_c, 0, 85, 61
1, 135970, Note_off_c, 0, 80, 62
1, 136002, Note_on_c, 0, 73, 68
1, 136002, Note_off_c, 0, 76, 63
1, 136057, Note_off_c, 0, 73, 62
1, 136092, Note_on_c, 0, 85, 70
1, 136131, Note_on_c, 0, 80, 64
1, 136197, Note_on_c, 0, 76, 66
1, 136210, Note_off_c, 0, 85, 53
1, 136215, Note_off_c, 0, 80, 63
1, 136262, Note_off_c, 0, 76, 63
1, 136263, Note_on_c, 0, 73, 69
1, 136310, Note_off_c, 0, 73, 58
1, 136340, Note_on_c, 0, 76, 106
1, 136347, Note_on_c, 0, 85, 85
1, 136369, Note_on_c, 0, 80, 69
1, 136373, Note_off_c, 0, 76, 67
1, 136458, Note_on_c, 0, 76, 68
1, 136473, Note_off_c, 0, 85, 59
1, 136497, Note_off_c, 0, 80, 62
1, 136521, Note_on_c, 0, 73, 68
1, 136526, Note_off_c, 0, 76, 62
1, 136587, Note_off_c, 0, 73, 63
1, 136612, Note_on_c, 0, 85, 73
1, 136623, Note_on_c, 0, 80, 67
1, 136703, Note_on_c, 0, 76, 69
1, 136711, Note_off_c, 0, 85, 62
1, 136720, Note_off_c, 0, 80, 62
1, 136758, Note_off_c, 0, 76, 61
1, 136760, Note_on_c, 0, 73, 72
1, 136808, Note_off_c, 0, 73, 60
1, 136821, Note_on_c, 0, 71, 94
1, 136841, Note_on_c, 0, 85, 82
1, 136848, Note_on_c, 0, 69, 45
1, 136849, Note_off_c, 0, 69, 127
1, 136853, Note_off_c, 0, 71, 66
1, 136856, Note_on_c, 0, 80, 68
1, 136937, Note_on_c, 0, 76, 69
1, 136949, Note_off_c, 0, 85, 62
1, 136962, Note_off_c, 0, 80, 62
1, 136996, Note_on_c, 0, 73, 72
1, 136997, Note_off_c, 0, 76, 64
1, 137049, Note_off_c, 0, 73, 63
1, 137082, Note_on_c, 0, 73, 97
1, 137087, Note_on_c, 0, 85, 81
1, 137097, Note_on_c, 0, 80, 73
1, 137109, Note_off_c, 0, 73, 67
1, 137172, Note_on_c, 0, 76, 74
1, 137189, Note_off_c, 0, 85, 61
1, 137194, Note_off_c, 0, 80, 62
1, 137228, Note_on_c, 0, 73, 76
1, 137228, Note_off_c, 0, 76, 64
1, 137294, Note_off_c, 0, 73, 63
1, 137312, Note_on_c, 0, 71, 98
1, 137331, Note_on_c, 0, 85, 77
1, 137347, Note_off_c, 0, 71, 68
1, 137359, Note_on_c, 0, 80, 74
1, 137434, Note_on_c, 0, 76, 69
1, 137437, Note_off_c, 0, 85, 64
1, 137456, Note_off_c, 0, 80, 62
1, 137489, Note_on_c, 0, 73, 68
1, 137501, Note_off_c, 0, 76, 61
1, 137536, Note_on_c, 0, 69, 79
1, 137553, Note_off_c, 0, 73, 63
1, 137556, Note_off_c, 0, 69, 71
1, 137582, Note_on_c, 0, 85, 65
1, 137597, Note_on_c, 0, 80, 64
1, 137673, Note_on_c, 0, 76, 52
1, 137673, Note_off_c, 0, 85, 61
1, 137686, Note_off_c, 0, 80, 62
1, 137724, Note_off_c, 0, 76, 62
1, 137726, Control_c, 0, 64, 113
1, 137734, Note_on_c, 0, 73, 54
1, 137741, Control_c, 0, 64, 81
1, 137756, Control_c, 0, 64, 63
1, 137771, Control_c, 0, 64, 48
1, 137774, Note_on_c, 0, 68, 49
1, 137775, Note_off_c, 0, 73, 61
1, 137782, Note_on_c, 0, 59, 52
1, 137786, Control_c, 0, 64, 43
1, 137788, Note_on_c, 0, 63, 38
1, 137792, Note_on_c, 0, 56, 45
1, 137801, Control_c, 0, 64, 48
1, 137815, Control_c, 0, 64, 53
1, 137830, Control_c, 0, 64, 59
1, 137842, Note_off_c, 0, 63, 55
1, 137845, Control_c, 0, 64, 64
1, 137860, Control_c, 0, 64, 68
1, 137872, Note_off_c, 0, 68, 56
1, 137874, Note_on_c, 0, 80, 55
1, 137875, Control_c, 0, 64, 74
1, 137890, Control_c, 0, 64, 81
1, 137905, Control_c, 0, 64, 88
1, 137910, Note_off_c, 0, 56, 51
1, 137914, Note_off_c, 0, 59, 49
1, 137919, Control_c, 0, 64, 95
1, 137922, Note_off_c, 0, 80, 59
1, 137934, Control_c, 0, 64, 103
1, 137943, Note_on_c, 0, 75, 49
1, 137949, Control_c, 0, 64, 110
1, 137963, Control_c, 0, 64, 127
1, 137976, Note_off_c, 0, 75, 60
1, 138006, Note_on_c, 0, 71, 39
1, 138018, Note_on_c, 0, 63, 54
1, 138042, Note_off_c, 0, 71, 52
1, 138054, Note_off_c, 0, 63, 64
1, 138089, Note_on_c, 0, 80, 56
1, 138136, Note_on_c, 0, 75, 51
1, 138146, Note_off_c, 0, 80, 60
1, 138177, Note_off_c, 0, 75, 61
1, 138185, Control_c, 0, 64, 100
1, 138199, Note_on_c, 0, 71, 48
1, 138200, Control_c, 0, 64, 79
1, 138215, Control_c, 0, 64, 65
1, 138229, Note_off_c, 0, 71, 59
1, 138230, Control_c, 0, 64, 62
1, 138245, Control_c, 0, 64, 65
1, 138254, Note_on_c, 0, 58, 43
1, 138255, Note_on_c, 0, 70, 44
1, 138259, Note_on_c, 0, 65, 43
1, 138260, Control_c, 0, 64, 68
1, 138262, Note_on_c, 0, 62, 42
1, 138274, Control_c, 0, 64, 73
1, 138289, Control_c, 0, 64, 82
1, 138291, Note_on_c, 0, 82, 58
1, 138292, Note_off_c, 0, 65, 61
1, 138299, Note_off_c, 0, 62, 61
1, 138304, Control_c, 0, 64, 97
1, 138307, Note_off_c, 0, 70, 58
1, 138319, Control_c, 0, 64, 109
1, 138332, Note_off_c, 0, 58, 59
1, 138334, Control_c, 0, 64, 112
1, 138337, Note_off_c, 0, 82, 58
1, 138376, Note_on_c, 0, 77, 53
1, 138386, Control_c, 0, 64, 113
1, 138400, Control_c, 0, 64, 111
1, 138415, Note_off_c, 0, 77, 62
1, 138415, Control_c, 0, 64, 104
1, 138424, Note_on_c, 0, 74, 47
1, 138430, Control_c, 0, 64, 91
1, 138445, Control_c, 0, 64, 76
1, 138460, Control_c, 0, 64, 68
1, 138461, Note_off_c, 0, 74, 58
1, 138470, Note_on_c, 0, 59, 53
1, 138471, Note_on_c, 0, 71, 58
1, 138481, Note_on_c, 0, 66, 50
1, 138484, Note_on_c, 0, 63, 48
1, 138489, Control_c, 0, 64, 73
1, 138504, Control_c, 0, 64, 80
1, 138514, Note_off_c, 0, 71, 62
1, 138515, Note_off_c, 0, 59, 61
1, 138519, Control_c, 0, 64, 87
1, 138522, Note_off_c, 0, 66, 62
1, 138522, Note_off_c, 0, 63, 61
1, 138530, Note_on_c, 0, 83, 61
1, 138534, Control_c, 0, 64, 94
1, 138549, Control_c, 0, 64, 103
1, 138564, Control_c, 0, 64, 111
1, 138576, Note_off_c, 0, 83, 58
1, 138579, Control_c, 0, 64, 115
1, 138584, Note_on_c, 0, 78, 64
1, 138619, Note_off_c, 0, 78, 65
1, 138623, Control_c, 0, 64, 108
1, 138638, Control_c, 0, 64, 95
1, 138644, Note_on_c, 0, 75, 59
1, 138653, Control_c, 0, 64, 78
1, 138667, Control_c, 0, 64, 67
1, 138682, Control_c, 0, 64, 63
1, 138693, Note_off_c, 0, 75, 53
1, 138697, Control_c, 0, 64, 66
1, 138701, Note_on_c, 0, 68, 53
1, 138701, Note_on_c, 0, 73, 59
1, 138705, Note_on_c, 0, 64, 47
1, 138710, Note_on_c, 0, 61, 55
1, 138712, Control_c, 0, 64, 69
1, 138727, Control_c, 0, 64, 74
1, 138741, Note_off_c, 0, 68, 64
1, 138741, Control_c, 0, 64, 82
1, 138743, Note_off_c, 0, 64, 62
1, 138747, Note_off_c, 0, 73, 58
1, 138748, Note_on_c, 0, 85, 64
1, 138756, Control_c, 0, 64, 89
1, 138759, Note_off_c, 0, 61, 58
1, 138771, Control_c, 0, 64, 94
1, 138785, Control_c, 0, 64, 95
1, 138800, Control_c, 0, 64, 96
1, 138815, Control_c, 0, 64, 98
1, 138820, Note_off_c, 0, 85, 63
1, 138823, Note_on_c, 0, 80, 54
1, 138830, Control_c, 0, 64, 99
1, 138845, Control_c, 0, 64, 99
1, 138859, Control_c, 0, 64, 93
1, 138860, Note_off_c, 0, 80, 62
1, 138874, Note_on_c, 0, 76, 52
1, 138874, Control_c, 0, 64, 82
1, 138889, Control_c, 0, 64, 70
1, 138903, Control_c, 0, 64, 64
1, 138913, Note_off_c, 0, 76, 61
1, 138918, Control_c, 0, 64, 65
1, 138924, Note_on_c, 0, 71, 57
1, 138928, Note_on_c, 0, 63, 54
1, 138928, Note_on_c, 0, 66, 57
1, 138931, Note_on_c, 0, 59, 45
1, 138933, Control_c, 0, 64, 69
1, 138948, Control_c, 0, 64, 74
1, 138959, Note_off_c, 0, 71, 65
1, 138963, Note_off_c, 0, 59, 51
1, 138963, Control_c, 0, 64, 82
1, 138967, Note_on_c, 0, 83, 72
1, 138969, Note_off_c, 0, 63, 62
1, 138969, Note_off_c, 0, 66, 61
1, 138978, Control_c, 0, 64, 89
1, 138993, Control_c, 0, 64, 96
1, 139008, Control_c, 0, 64, 102
1, 139023, Control_c, 0, 64, 110
1, 139034, Note_on_c, 0, 78, 63
1, 139037, Note_off_c, 0, 83, 63
1, 139038, Control_c, 0, 64, 127
1, 139070, Note_off_c, 0, 78, 63
1, 139082, Note_on_c, 0, 75, 57
1, 139082, Control_c, 0, 64, 117
1, 139097, Control_c, 0, 64, 92
1, 139120, Control_c, 0, 64, 74
1, 139127, Note_off_c, 0, 75, 61
1, 139135, Control_c, 0, 64, 66
1, 139138, Note_on_c, 0, 58, 55
1, 139139, Note_on_c, 0, 70, 66
1, 139145, Note_on_c, 0, 62, 54
1, 139145, Note_on_c, 0, 65, 59
1, 139150, Control_c, 0, 64, 69
1, 139164, Control_c, 0, 64, 75
1, 139172, Note_off_c, 0, 70, 64
1, 139172, Note_off_c, 0, 58, 58
1, 139177, Note_off_c, 0, 62, 65
1, 139177, Note_off_c, 0, 65, 66
1, 139179, Control_c, 0, 64, 84
1, 139187, Note_on_c, 0, 82, 72
1, 139194, Control_c, 0, 64, 93
1, 139209, Control_c, 0, 64, 109
1, 139223, Control_c, 0, 64, 127
1, 139254, Note_on_c, 0, 77, 69
1, 139264, Note_off_c, 0, 82, 63
1, 139292, Note_off_c, 0, 77, 61
1, 139310, Note_on_c, 0, 74, 65
1, 139338, Note_off_c, 0, 74, 67
1, 139359, Note_on_c, 0, 75, 73
1, 139368, Note_on_c, 0, 70, 66
1, 139375, Note_on_c, 0, 63, 53
1, 139378, Note_on_c, 0, 67, 52
1, 139383, Note_off_c, 0, 75, 69
1, 139399, Note_off_c, 0, 70, 67
1, 139401, Note_off_c, 0, 67, 62
1, 139404, Note_off_c, 0, 63, 63
1, 139421, Note_on_c, 0, 87, 78
1, 139484, Note_on_c, 0, 82, 67
1, 139505, Note_off_c, 0, 87, 61
1, 139545, Note_off_c, 0, 82, 63
1, 139550, Control_c, 0, 64, 90
1, 139551, Note_on_c, 0, 79, 59
1, 139565, Control_c, 0, 64, 72
1, 139577, Note_off_c, 0, 79, 65
1, 139580, Control_c, 0, 64, 63
1, 139595, Control_c, 0, 64, 61
1, 139604, Note_on_c, 0, 63, 49
1, 139606, Note_on_c, 0, 56, 54
1, 139609, Control_c, 0, 64, 64
1, 139610, Note_on_c, 0, 68, 44
1, 139624, Control_c, 0, 64, 67
1, 139639, Control_c, 0, 64, 71
1, 139641, Note_off_c, 0, 63, 64
1, 139648, Note_off_c, 0, 68, 62
1, 139654, Control_c, 0, 64, 80
1, 139656, Note_off_c, 0, 56, 63
1, 139669, Control_c, 0, 64, 94
1, 139678, Note_on_c, 0, 80, 60
1, 139683, Control_c, 0, 64, 110
1, 139698, Control_c, 0, 64, 127
1, 139738, Note_on_c, 0, 75, 50
1, 139746, Note_off_c, 0, 80, 57
1, 139774, Note_off_c, 0, 75, 60
1, 139798, Note_on_c, 0, 71, 51
1, 139837, Note_off_c, 0, 71, 62
1, 139838, Note_on_c, 0, 54, 54
1, 139838, Note_on_c, 0, 61, 49
1, 139863, Note_on_c, 0, 66, 23
1, 139869, Note_off_c, 0, 61, 60
1, 139878, Note_off_c, 0, 54, 65
1, 139900, Note_on_c, 0, 78, 59
1, 139903, Note_off_c, 0, 66, 50
1, 139953, Note_on_c, 0, 73, 61
1, 139955, Note_off_c, 0, 78, 56
1, 139974, Control_c, 0, 64, 125
1, 139988, Control_c, 0, 64, 100
1, 139992, Note_off_c, 0, 73, 61
1, 140003, Control_c, 0, 64, 81
1, 140012, Note_on_c, 0, 69, 56
1, 140018, Control_c, 0, 64, 68
1, 140033, Control_c, 0, 64, 63
1, 140047, Control_c, 0, 64, 64
1, 140048, Note_off_c, 0, 69, 61
1, 140052, Note_on_c, 0, 56, 55
1, 140054, Note_on_c, 0, 49, 50
1, 140057, Note_on_c, 0, 61, 47
1, 140062, Control_c, 0, 64, 67
1, 140077, Control_c, 0, 64, 71
1, 140092, Control_c, 0, 64, 77
1, 140093, Note_off_c, 0, 56, 64
1, 140097, Note_off_c, 0, 49, 59
1, 140102, Note_off_c, 0, 61, 62
1, 140107, Control_c, 0, 64, 85
1, 140112, Note_on_c, 0, 73, 62
1, 140121, Control_c, 0, 64, 92
1, 140136, Control_c, 0, 64, 97
1, 140151, Control_c, 0, 64, 98
1, 140165, Control_c, 0, 64, 99
1, 140170, Note_on_c, 0, 68, 62
1, 140180, Control_c, 0, 64, 100
1, 140187, Note_off_c, 0, 73, 62
1, 140195, Control_c, 0, 64, 101
1, 140210, Control_c, 0, 64, 102
1, 140211, Note_off_c, 0, 68, 60
1, 140225, Control_c, 0, 64, 104
1, 140239, Control_c, 0, 64, 104
1, 140242, Note_on_c, 0, 64, 50
1, 140254, Control_c, 0, 64, 105
1, 140256, Note_on_c, 0, 58, 59
1, 140266, Note_on_c, 0, 51, 55
1, 140267, Note_off_c, 0, 64, 61
1, 140269, Control_c, 0, 64, 107
1, 140278, Note_on_c, 0, 63, 19
1, 140284, Control_c, 0, 64, 108
1, 140288, Note_off_c, 0, 58, 65
1, 140296, Note_off_c, 0, 51, 65
1, 140299, Control_c, 0, 64, 108
1, 140317, Note_off_c, 0, 63, 41
1, 140319, Note_on_c, 0, 75, 67
1, 140328, Control_c, 0, 64, 109
1, 140343, Control_c, 0, 64, 110
1, 140358, Control_c, 0, 64, 112
1, 140373, Control_c, 0, 64, 114
1, 140379, Note_on_c, 0, 70, 59
1, 140384, Note_off_c, 0, 75, 62
1, 140403, Control_c, 0, 64, 111
1, 140415, Note_off_c, 0, 70, 62
1, 140418, Control_c, 0, 64, 102
1, 140432, Control_c, 0, 64, 88
1, 140445, Note_on_c, 0, 67, 41
1, 140447, Control_c, 0, 64, 71
1, 140462, Control_c, 0, 64, 63
1, 140464, Note_on_c, 0, 51, 53
1, 140468, Note_on_c, 0, 56, 48
1, 140472, Note_on_c, 0, 44, 40
1, 140472, Note_off_c, 0, 67, 51
1, 140477, Control_c, 0, 64, 63
1, 140492, Control_c, 0, 64, 66
1, 140504, Note_off_c, 0, 51, 65
1, 140506, Control_c, 0, 64, 69
1, 140507, Note_off_c, 0, 56, 65
1, 140519, Note_off_c, 0, 44, 58
1, 140521, Control_c, 0, 64, 73
1, 140536, Control_c, 0, 64, 81
1, 140537, Note_on_c, 0, 68, 66
1, 140551, Control_c, 0, 64, 90
1, 140565, Control_c, 0, 64, 96
1, 140580, Control_c, 0, 64, 98
1, 140595, Control_c, 0, 64, 98
1, 140618, Control_c, 0, 64, 99
1, 140620, Note_on_c, 0, 63, 56
1, 140620, Note_off_c, 0, 68, 59
1, 140633, Control_c, 0, 64, 99
1, 140648, Control_c, 0, 64, 100
1, 140658, Note_off_c, 0, 63, 63
1, 140662, Control_c, 0, 64, 102
1, 140677, Note_on_c, 0, 59, 54
1, 140677, Control_c, 0, 64, 104
1, 140692, Control_c, 0, 64, 106
1, 140702, Note_on_c, 0, 49, 54
1, 140707, Control_c, 0, 64, 107
1, 140715, Note_off_c, 0, 59, 64
1, 140722, Control_c, 0, 64, 108
1, 140725, Note_on_c, 0, 42, 31
1, 140725, Note_on_c, 0, 54, 23
1, 140732, Note_off_c, 0, 49, 63
1, 140766, Note_off_c, 0, 42, 47
1, 140767, Control_c, 0, 64, 108
1, 140767, Note_off_c, 0, 54, 53
1, 140776, Note_on_c, 0, 66, 53
1, 140796, Control_c, 0, 64, 109
1, 140826, Control_c, 0, 64, 109
1, 140828, Note_off_c, 0, 66, 56
1, 140841, Note_on_c, 0, 61, 50
1, 140841, Control_c, 0, 64, 110
1, 140876, Note_off_c, 0, 61, 63
1, 140885, Control_c, 0, 64, 106
1, 140900, Note_on_c, 0, 57, 46
1, 140900, Control_c, 0, 64, 96
1, 140915, Control_c, 0, 64, 78
1, 140927, Note_on_c, 0, 44, 47
1, 140930, Control_c, 0, 64, 66
1, 140933, Note_off_c, 0, 57, 65
1, 140936, Note_on_c, 0, 49, 41
1, 140936, Note_on_c, 0, 37, 39
1, 140944, Control_c, 0, 64, 59
1, 140959, Control_c, 0, 64, 61
1, 140974, Control_c, 0, 64, 64
1, 140981, Note_off_c, 0, 44, 60
1, 140984, Note_off_c, 0, 49, 61
1, 140988, Control_c, 0, 64, 66
1, 140994, Note_off_c, 0, 37, 54
1, 141003, Control_c, 0, 64, 71
1, 141011, Note_on_c, 0, 61, 46
1, 141018, Control_c, 0, 64, 79
1, 141033, Control_c, 0, 64, 86
1, 141048, Control_c, 0, 64, 91
1, 141067, Note_on_c, 0, 56, 51
1, 141067, Note_off_c, 0, 61, 55
1, 141092, Control_c, 0, 64, 91
1, 141107, Control_c, 0, 64, 92
1, 141111, Note_off_c, 0, 56, 62
1, 141122, Control_c, 0, 64, 93
1, 141136, Control_c, 0, 64, 94
1, 141150, Note_on_c, 0, 52, 45
1, 141166, Control_c, 0, 64, 93
1, 141181, Control_c, 0, 64, 88
1, 141181, Note_off_c, 0, 52, 52
1, 141196, Control_c, 0, 64, 76
1, 141202, Note_on_c, 0, 51, 53
1, 141211, Control_c, 0, 64, 65
1, 141211, Note_on_c, 0, 46, 41
1, 141213, Note_on_c, 0, 39, 43
1, 141226, Control_c, 0, 64, 60
1, 141240, Control_c, 0, 64, 62
1, 141255, Control_c, 0, 64, 65
1, 141264, Note_off_c, 0, 51, 56
1, 141267, Note_off_c, 0, 46, 56
1, 141270, Control_c, 0, 64, 68
1, 141275, Note_on_c, 0, 63, 47
1, 141285, Control_c, 0, 64, 74
1, 141300, Control_c, 0, 64, 82
1, 141315, Control_c, 0, 64, 89
1, 141327, Note_off_c, 0, 39, 37
1, 141329, Control_c, 0, 64, 92
1, 141345, Note_off_c, 0, 63, 54
1, 141354, Note_on_c, 0, 58, 50
1, 141381, Control_c, 0, 64, 92
1, 141411, Control_c, 0, 64, 93
1, 141413, Note_off_c, 0, 58, 61
1, 141426, Control_c, 0, 64, 94
1, 141441, Control_c, 0, 64, 95
1, 141472, Note_on_c, 0, 55, 33
1, 141507, Note_off_c, 0, 55, 52
1, 141615, Note_on_c, 0, 42, 37
1, 141619, Control_c, 0, 64, 95
1, 141619, Note_on_c, 0, 30, 35
1, 141649, Control_c, 0, 64, 94
1, 141664, Control_c, 0, 64, 93
1, 141678, Control_c, 0, 64, 92
1, 141693, Control_c, 0, 64, 86
1, 141694, Note_on_c, 0, 71, 65
1, 141708, Control_c, 0, 64, 77
1, 141722, Control_c, 0, 64, 68
1, 141737, Control_c, 0, 64, 64
1, 141752, Control_c, 0, 64, 65
1, 141766, Control_c, 0, 64, 67
1, 141781, Control_c, 0, 64, 69
1, 141796, Control_c, 0, 64, 74
1, 141807, Note_off_c, 0, 71, 53
1, 141810, Control_c, 0, 64, 81
1, 141825, Control_c, 0, 64, 90
1, 141840, Note_on_c, 0, 69, 55
1, 141840, Control_c, 0, 64, 98
1, 141855, Control_c, 0, 64, 101
1, 141869, Note_off_c, 0, 30, 39
1, 141870, Control_c, 0, 64, 103
1, 141884, Control_c, 0, 64, 104
1, 141899, Note_off_c, 0, 42, 35
1, 141899, Control_c, 0, 64, 107
1, 141914, Control_c, 0, 64, 114
1, 141929, Control_c, 0, 64, 127
1, 141948, Note_on_c, 0, 66, 47
1, 141973, Note_off_c, 0, 69, 50
1, 141984, Note_on_c, 0, 63, 52
1, 141998, Note_off_c, 0, 66, 57
1, 142019, Note_off_c, 0, 63, 64
1, 142032, Note_on_c, 0, 59, 48
1, 142081, Note_off_c, 0, 59, 61
1, 142099, Note_on_c, 0, 63, 64
1, 142162, Note_off_c, 0, 63, 60
1, 142183, Note_on_c, 0, 69, 58
1, 142224, Note_off_c, 0, 69, 64
1, 142234, Poly_aftertouch_c, 0, 66, 0
1, 142248, Control_c, 0, 64, 103
1, 142252, Note_on_c, 0, 35, 37
1, 142254, Note_on_c, 0, 73, 64
1, 142263, Control_c, 0, 64, 81
1, 142265, Note_on_c, 0, 47, 38
1, 142278, Control_c, 0, 64, 69
1, 142293, Control_c, 0, 64, 66
1, 142308, Control_c, 0, 64, 69
1, 142323, Control_c, 0, 64, 72
1, 142331, Note_off_c, 0, 73, 61
1, 142337, Note_on_c, 0, 71, 60
1, 142337, Control_c, 0, 64, 76
1, 142352, Control_c, 0, 64, 83
1, 142367, Control_c, 0, 64, 91
1, 142382, Control_c, 0, 64, 100
1, 142397, Control_c, 0, 64, 102
1, 142407, Note_off_c, 0, 71, 60
1, 142412, Control_c, 0, 64, 103
1, 142423, Note_on_c, 0, 69, 49
1, 142441, Control_c, 0, 64, 103
1, 142445, Note_off_c, 0, 47, 25
1, 142451, Note_on_c, 0, 61, 54
1, 142456, Control_c, 0, 64, 104
1, 142471, Control_c, 0, 64, 105
1, 142484, Note_off_c, 0, 61, 63
1, 142486, Control_c, 0, 64, 106
1, 142492, Note_off_c, 0, 35, 35
1, 142498, Note_off_c, 0, 69, 52
1, 142500, Control_c, 0, 64, 106
1, 142501, Note_on_c, 0, 75, 78
1, 142561, Note_on_c, 0, 71, 61
1, 142574, Control_c, 0, 64, 107
1, 142583, Note_off_c, 0, 75, 60
1, 142589, Control_c, 0, 64, 110
1, 142604, Control_c, 0, 64, 116
1, 142615, Note_on_c, 0, 69, 62
1, 142619, Control_c, 0, 64, 127
1, 142623, Note_off_c, 0, 71, 61
1, 142645, Note_on_c, 0, 63, 53
1, 142689, Note_off_c, 0, 63, 62
1, 142693, Control_c, 0, 64, 111
1, 142707, Control_c, 0, 64, 89
1, 142715, Note_on_c, 0, 45, 49
1, 142718, Note_on_c, 0, 33, 49
1, 142722, Control_c, 0, 64, 74
1, 142727, Note_on_c, 0, 76, 84
1, 142737, Control_c, 0, 64, 65
1, 142746, Note_off_c, 0, 69, 61
1, 142752, Control_c, 0, 64, 65
1, 142761, Note_on_c, 0, 71, 51
1, 142767, Control_c, 0, 64, 67
1, 142782, Control_c, 0, 64, 71
1, 142797, Control_c, 0, 64, 77
1, 142811, Control_c, 0, 64, 87
1, 142818, Note_off_c, 0, 76, 64
1, 142826, Control_c, 0, 64, 98
1, 142841, Control_c, 0, 64, 107
1, 142841, Note_on_c, 0, 69, 53
1, 142863, Control_c, 0, 64, 109
1, 142868, Note_off_c, 0, 71, 48
1, 142871, Note_on_c, 0, 64, 57
1, 142878, Control_c, 0, 64, 110
1, 142893, Control_c, 0, 64, 110
1, 142907, Control_c, 0, 64, 112
1, 142916, Note_off_c, 0, 64, 57
1, 142922, Control_c, 0, 64, 115
1, 142932, Note_off_c, 0, 33, 35
1, 142937, Note_off_c, 0, 45, 37
1, 142937, Control_c, 0, 64, 116
1, 142949, Note_off_c, 0, 69, 61
1, 142952, Note_on_c, 0, 75, 69
1, 142952, Control_c, 0, 64, 117
1, 142966, Control_c, 0, 64, 119
1, 142981, Control_c, 0, 64, 120
1, 142995, Note_on_c, 0, 71, 58
1, 142996, Control_c, 0, 64, 122
1, 143015, Note_off_c, 0, 75, 61
1, 143027, Control_c, 0, 64, 127
1, 143032, Note_off_c, 0, 71, 65
1, 143040, Note_on_c, 0, 69, 46
1, 143077, Note_off_c, 0, 69, 56
1, 143088, Note_on_c, 0, 63, 41
1, 143115, Note_off_c, 0, 63, 54
1, 143119, Note_on_c, 0, 73, 68
1, 143135, Note_on_c, 0, 71, 50
1, 143145, Control_c, 0, 64, 84
1, 143151, Note_on_c, 0, 69, 55
1, 143160, Control_c, 0, 64, 69
1, 143174, Note_on_c, 0, 32, 43
1, 143175, Control_c, 0, 64, 62
1, 143176, Note_on_c, 0, 44, 43
1, 143181, Note_on_c, 0, 61, 77
1, 143190, Control_c, 0, 64, 64
1, 143193, Note_off_c, 0, 73, 52
1, 143205, Control_c, 0, 64, 66
1, 143208, Note_off_c, 0, 71, 0
1, 143220, Control_c, 0, 64, 71
1, 143235, Control_c, 0, 64, 80
1, 143243, Note_off_c, 0, 61, 39
1, 143247, Poly_aftertouch_c, 0, 71, 127
1, 143250, Control_c, 0, 64, 97
1, 143265, Control_c, 0, 64, 120
1, 143279, Control_c, 0, 64, 127
1, 143308, Note_off_c, 0, 69, 51
1, 143314, Poly_aftertouch_c, 0, 71, 0
1, 143351, Note_off_c, 0, 44, 41
1, 143366, Note_off_c, 0, 32, 43
1, 143374, Note_on_c, 0, 78, 61
1, 143383, Note_on_c, 0, 71, 35
1, 143397, Note_on_c, 0, 69, 47
1, 143427, Note_off_c, 0, 78, 58
1, 143444, Note_off_c, 0, 71, 59
1, 143468, Note_on_c, 0, 66, 73
1, 143472, Note_off_c, 0, 69, 63
1, 143546, Note_off_c, 0, 66, 61
1, 143724, Note_on_c, 0, 42, 50
1, 143738, Note_on_c, 0, 30, 48
1, 143761, Control_c, 0, 64, 122
1, 143776, Control_c, 0, 64, 98
1, 143790, Control_c, 0, 64, 79
1, 143796, Note_on_c, 0, 71, 75
1, 143807, Control_c, 0, 64, 67
1, 143822, Control_c, 0, 64, 66
1, 143836, Control_c, 0, 64, 68
1, 143851, Control_c, 0, 64, 71
1, 143866, Control_c, 0, 64, 77
1, 143880, Control_c, 0, 64, 89
1, 143895, Control_c, 0, 64, 115
1, 143910, Control_c, 0, 64, 127
1, 143920, Note_off_c, 0, 71, 58
1, 143935, Note_on_c, 0, 69, 52
1, 143947, Note_off_c, 0, 42, 55
1, 143964, Note_off_c, 0, 30, 35
1, 144028, Note_on_c, 0, 66, 52
1, 144047, Note_off_c, 0, 69, 55
1, 144066, Note_on_c, 0, 63, 52
1, 144091, Note_off_c, 0, 66, 47
1, 144100, Note_off_c, 0, 63, 65
1, 144138, Note_on_c, 0, 59, 37
1, 144141, Note_on_c, 0, 57, 18
1, 144168, Note_off_c, 0, 59, 56
1, 144174, Note_on_c, 0, 63, 69
1, 144183, Note_off_c, 0, 57, 44
1, 144223, Note_off_c, 0, 63, 58
1, 144239, Note_on_c, 0, 69, 42
1, 144267, Note_off_c, 0, 69, 61
1, 144284, Note_on_c, 0, 73, 76
1, 144290, Note_on_c, 0, 35, 52
1, 144292, Note_on_c, 0, 47, 57
1, 144293, Control_c, 0, 64, 95
1, 144308, Control_c, 0, 64, 75
1, 144323, Control_c, 0, 64, 66
1, 144338, Control_c, 0, 64, 64
1, 144360, Control_c, 0, 64, 67
1, 144372, Note_on_c, 0, 71, 72
1, 144375, Control_c, 0, 64, 70
1, 144384, Note_off_c, 0, 73, 58
1, 144390, Control_c, 0, 64, 76
1, 144404, Control_c, 0, 64, 85
1, 144419, Control_c, 0, 64, 97
1, 144434, Control_c, 0, 64, 107
1, 144446, Note_off_c, 0, 71, 60
1, 144448, Note_on_c, 0, 69, 65
1, 144449, Control_c, 0, 64, 109
1, 144464, Control_c, 0, 64, 110
1, 144478, Control_c, 0, 64, 110
1, 144481, Note_on_c, 0, 61, 60
1, 144487, Note_off_c, 0, 47, 49
1, 144493, Control_c, 0, 64, 111
1, 144508, Control_c, 0, 64, 112
1, 144517, Note_off_c, 0, 61, 63
1, 144523, Control_c, 0, 64, 113
1, 144534, Note_on_c, 0, 75, 86
1, 144538, Control_c, 0, 64, 115
1, 144544, Note_off_c, 0, 69, 59
1, 144552, Control_c, 0, 64, 115
1, 144553, Note_off_c, 0, 35, 36
1, 144567, Control_c, 0, 64, 116
1, 144583, Note_on_c, 0, 71, 57
1, 144631, Note_on_c, 0, 69, 60
1, 144631, Note_off_c, 0, 75, 59
1, 144642, Control_c, 0, 64, 125
1, 144657, Control_c, 0, 64, 127
1, 144671, Note_on_c, 0, 63, 69
1, 144692, Note_off_c, 0, 71, 55
1, 144736, Note_off_c, 0, 63, 61
1, 144761, Control_c, 0, 64, 93
1, 144764, Note_on_c, 0, 45, 68
1, 144767, Note_on_c, 0, 33, 66
1, 144770, Note_on_c, 0, 76, 94
1, 144776, Control_c, 0, 64, 72
1, 144791, Control_c, 0, 64, 63
1, 144793, Note_off_c, 0, 69, 63
1, 144797, Note_on_c, 0, 71, 73
1, 144806, Control_c, 0, 64, 62
1, 144821, Control_c, 0, 64, 64
1, 144835, Control_c, 0, 64, 67
1, 144850, Control_c, 0, 64, 71
1, 144865, Control_c, 0, 64, 79
1, 144866, Note_off_c, 0, 76, 65
1, 144879, Note_on_c, 0, 69, 66
1, 144880, Control_c, 0, 64, 90
1, 144895, Control_c, 0, 64, 102
1, 144903, Note_on_c, 0, 64, 65
1, 144909, Control_c, 0, 64, 109
1, 144917, Note_off_c, 0, 71, 59
1, 144924, Control_c, 0, 64, 111
1, 144936, Note_off_c, 0, 45, 56
1, 144939, Control_c, 0, 64, 112
1, 144954, Control_c, 0, 64, 112
1, 144956, Note_off_c, 0, 64, 54
1, 144982, Note_off_c, 0, 69, 58
1, 144996, Note_on_c, 0, 75, 81
1, 145041, Note_on_c, 0, 71, 58
1, 145065, Note_off_c, 0, 75, 62
1, 145074, Note_off_c, 0, 71, 64
1, 145087, Control_c, 0, 64, 113
1, 145101, Note_on_c, 0, 69, 51
1, 145109, Control_c, 0, 64, 116
1, 145124, Control_c, 0, 64, 127
1, 145125, Note_off_c, 0, 69, 56
1, 145134, Note_on_c, 0, 63, 46
1, 145160, Note_off_c, 0, 63, 58
1, 145178, Note_on_c, 0, 73, 79
1, 145198, Control_c, 0, 64, 93
1, 145199, Note_on_c, 0, 71, 64
1, 145213, Control_c, 0, 64, 74
1, 145219, Note_on_c, 0, 69, 57
1, 145222, Note_on_c, 0, 32, 59
1, 145222, Note_on_c, 0, 44, 65
1, 145227, Control_c, 0, 64, 64
1, 145238, Note_on_c, 0, 61, 89
1, 145241, Note_off_c, 0, 33, 41
1, 145242, Control_c, 0, 64, 60
1, 145255, Note_off_c, 0, 73, 63
1, 145257, Control_c, 0, 64, 62
1, 145272, Control_c, 0, 64, 64
1, 145287, Control_c, 0, 64, 69
1, 145294, Note_off_c, 0, 71, 0
1, 145301, Control_c, 0, 64, 77
1, 145316, Control_c, 0, 64, 88
1, 145324, Note_off_c, 0, 61, 60
1, 145330, Poly_aftertouch_c, 0, 71, 127
1, 145331, Control_c, 0, 64, 99
1, 145346, Control_c, 0, 64, 102
1, 145380, Note_off_c, 0, 44, 53
1, 145406, Control_c, 0, 64, 103
1, 145408, Note_off_c, 0, 69, 52
1, 145421, Control_c, 0, 64, 103
1, 145434, Note_on_c, 0, 78, 81
1, 145447, Note_on_c, 0, 71, 7
1, 145483, Note_off_c, 0, 32, 53
1, 145491, Note_on_c, 0, 69, 60
1, 145495, Control_c, 0, 64, 104
1, 145510, Control_c, 0, 64, 105
1, 145515, Note_on_c, 0, 66, 84
1, 145518, Note_off_c, 0, 78, 63
1, 145524, Control_c, 0, 64, 107
1, 145539, Control_c, 0, 64, 111
1, 145554, Control_c, 0, 64, 115
1, 145569, Control_c, 0, 64, 125
1, 145584, Control_c, 0, 64, 127
1, 145599, Note_off_c, 0, 71, 27
1, 145703, Note_off_c, 0, 66, 58
1, 145782, Note_on_c, 0, 42, 69
1, 145786, Note_on_c, 0, 30, 65
1, 145822, Note_on_c, 0, 76, 89
1, 145836, Control_c, 0, 64, 105
1, 145858, Control_c, 0, 64, 79
1, 145872, Note_off_c, 0, 69, 9
1, 145873, Control_c, 0, 64, 66
1, 145888, Control_c, 0, 64, 61
1, 145903, Control_c, 0, 64, 62
1, 145918, Control_c, 0, 64, 64
1, 145932, Control_c, 0, 64, 66
1, 145947, Control_c, 0, 64, 73
1, 145962, Control_c, 0, 64, 82
1, 145976, Control_c, 0, 64, 95
1, 145991, Control_c, 0, 64, 107
1, 145994, Note_on_c, 0, 71, 60
1, 146000, Note_off_c, 0, 30, 55
1, 146006, Control_c, 0, 64, 119
1, 146021, Control_c, 0, 64, 127
1, 146023, Note_off_c, 0, 76, 66
1, 146049, Note_off_c, 0, 42, 58
1, 146075, Note_on_c, 0, 69, 60
1, 146075, Note_off_c, 0, 71, 58
1, 146135, Note_on_c, 0, 64, 47
1, 146180, Note_off_c, 0, 64, 64
1, 146201, Note_on_c, 0, 75, 74
1, 146236, Note_off_c, 0, 69, 36
1, 146279, Note_on_c, 0, 71, 60
1, 146300, Note_off_c, 0, 75, 58
1, 146332, Note_off_c, 0, 71, 54
1, 146337, Note_on_c, 0, 69, 50
1, 146383, Note_on_c, 0, 63, 44
1, 146419, Note_off_c, 0, 63, 58
1, 146425, Note_on_c, 0, 49, 72
1, 146432, Note_off_c, 0, 69, 44
1, 146436, Note_on_c, 0, 73, 76
1, 146508, Note_off_c, 0, 73, 58
1, 146514, Note_on_c, 0, 71, 49
1, 146567, Note_off_c, 0, 49, 58
1, 146573, Note_on_c, 0, 61, 59
1, 146578, Note_on_c, 0, 69, 50
1, 146614, Note_off_c, 0, 61, 65
1, 146679, Note_off_c, 0, 69, 59
1, 146681, Note_on_c, 0, 78, 88
1, 146769, Note_off_c, 0, 78, 64
1, 146780, Note_on_c, 0, 69, 58
1, 146815, Note_on_c, 0, 66, 60
1, 146855, Note_off_c, 0, 66, 56
1, 146861, Note_off_c, 0, 71, 37
1, 146862, Note_off_c, 0, 69, 57
1, 146903, Note_on_c, 0, 52, 90
1, 146913, Note_on_c, 0, 76, 86
1, 146965, Note_off_c, 0, 52, 62
1, 146993, Note_on_c, 0, 71, 51
1, 147001, Note_off_c, 0, 76, 62
1, 147023, Note_on_c, 0, 69, 67
1, 147060, Note_on_c, 0, 64, 54
1, 147079, Note_off_c, 0, 71, 52
1, 147110, Note_off_c, 0, 64, 51
1, 147145, Note_on_c, 0, 75, 90
1, 147161, Note_off_c, 0, 69, 60
1, 147205, Note_on_c, 0, 71, 67
1, 147243, Note_off_c, 0, 75, 61
1, 147257, Note_on_c, 0, 69, 56
1, 147298, Note_off_c, 0, 71, 59
1, 147304, Note_on_c, 0, 63, 55
1, 147354, Note_off_c, 0, 63, 60
1, 147373, Note_off_c, 0, 69, 38
1, 147377, Note_on_c, 0, 54, 89
1, 147379, Note_on_c, 0, 73, 86
1, 147430, Note_off_c, 0, 54, 64
1, 147440, Note_on_c, 0, 71, 60
1, 147475, Note_off_c, 0, 73, 62
1, 147512, Note_on_c, 0, 69, 41
1, 147522, Note_on_c, 0, 61, 67
1, 147548, Note_off_c, 0, 61, 68
1, 147614, Note_off_c, 0, 69, 61
1, 147617, Note_on_c, 0, 78, 93
1, 147692, Note_off_c, 0, 78, 65
1, 147704, Note_on_c, 0, 69, 37
1, 147760, Note_on_c, 0, 66, 67
1, 147781, Note_off_c, 0, 71, 47
1, 147819, Note_off_c, 0, 66, 60
1, 147846, Note_on_c, 0, 57, 94
1, 147855, Note_on_c, 0, 76, 93
1, 147888, Note_off_c, 0, 69, 60
1, 147894, Note_on_c, 0, 71, 54
1, 147929, Note_off_c, 0, 57, 64
1, 147936, Note_on_c, 0, 69, 45
1, 147941, Note_off_c, 0, 76, 61
1, 147998, Note_on_c, 0, 64, 62
1, 148000, Note_off_c, 0, 71, 57
1, 148064, Note_off_c, 0, 64, 61
1, 148079, Note_on_c, 0, 75, 94
1, 148085, Note_off_c, 0, 69, 39
1, 148141, Note_on_c, 0, 71, 59
1, 148189, Note_off_c, 0, 75, 60
1, 148204, Note_on_c, 0, 69, 65
1, 148228, Note_on_c, 0, 63, 70
1, 148246, Note_off_c, 0, 71, 57
1, 148299, Note_off_c, 0, 63, 61
1, 148317, Note_on_c, 0, 61, 96
1, 148318, Note_on_c, 0, 73, 92
1, 148329, Note_off_c, 0, 69, 53
1, 148357, Note_off_c, 0, 61, 67
1, 148371, Note_on_c, 0, 71, 60
1, 148411, Note_off_c, 0, 73, 63
1, 148433, Note_on_c, 0, 69, 55
1, 148448, Note_on_c, 0, 61, 73
1, 148481, Note_off_c, 0, 61, 65
1, 148555, Note_off_c, 0, 69, 58
1, 148559, Note_on_c, 0, 78, 89
1, 148608, Note_off_c, 0, 71, 0
1, 148608, Note_on_c, 0, 71, 11
1, 148650, Note_off_c, 0, 78, 64
1, 148654, Note_on_c, 0, 69, 63
1, 148695, Note_on_c, 0, 66, 62
1, 148734, Note_off_c, 0, 66, 60
1, 148791, Note_off_c, 0, 71, 31
1, 148796, Note_on_c, 0, 64, 103
1, 148798, Note_on_c, 0, 76, 92
1, 148830, Note_off_c, 0, 69, 62
1, 148831, Note_off_c, 0, 64, 67
1, 148878, Note_on_c, 0, 71, 45
1, 148898, Note_on_c, 0, 69, 56
1, 148907, Note_off_c, 0, 76, 62
1, 148940, Note_on_c, 0, 64, 73
1, 148984, Note_off_c, 0, 71, 62
1, 149023, Note_off_c, 0, 64, 60
1, 149047, Note_on_c, 0, 75, 98
1, 149107, Note_off_c, 0, 69, 24
1, 149120, Note_on_c, 0, 71, 77
1, 149142, Note_on_c, 0, 69, 59
1, 149160, Note_off_c, 0, 75, 60
1, 149211, Note_on_c, 0, 63, 71
1, 149242, Note_off_c, 0, 71, 48
1, 149286, Note_off_c, 0, 63, 61
1, 149295, Note_on_c, 0, 66, 100
1, 149301, Note_on_c, 0, 73, 96
1, 149327, Note_off_c, 0, 66, 69
1, 149340, Note_off_c, 0, 69, 34
1, 149382, Note_on_c, 0, 71, 62
1, 149417, Note_off_c, 0, 73, 60
1, 149460, Note_on_c, 0, 69, 40
1, 149477, Note_on_c, 0, 61, 69
1, 149506, Note_off_c, 0, 61, 66
1, 149564, Note_off_c, 0, 71, 52
1, 149605, Note_on_c, 0, 78, 101
1, 149617, Note_on_c, 0, 71, 29
1, 149635, Note_off_c, 0, 69, 45
1, 149644, Note_on_c, 0, 79, 43
1, 149644, Note_off_c, 0, 71, 53
1, 149666, Note_off_c, 0, 79, 60
1, 149704, Note_on_c, 0, 71, 71
1, 149757, Note_on_c, 0, 69, 63
1, 149769, Note_off_c, 0, 78, 58
1, 149828, Note_off_c, 0, 71, 62
1, 149852, Note_on_c, 0, 66, 74
1, 149873, Note_off_c, 0, 69, 57
1, 149904, Note_off_c, 0, 66, 60
1, 149986, Note_on_c, 0, 28, 95
1, 150002, Control_c, 0, 64, 80
1, 150016, Control_c, 0, 64, 44
1, 150031, Control_c, 0, 64, 0
1, 150076, Control_c, 0, 64, 41
1, 150091, Control_c, 0, 64, 65
1, 150106, Control_c, 0, 64, 80
1, 150121, Control_c, 0, 64, 110
1, 150135, Control_c, 0, 64, 127
1, 150153, Note_off_c, 0, 28, 57
1, 150185, Note_on_c, 0, 40, 64
1, 150219, Note_off_c, 0, 40, 63
1, 150262, Note_on_c, 0, 47, 60
1, 150308, Note_on_c, 0, 52, 53
1, 150327, Note_off_c, 0, 47, 57
1, 150374, Note_on_c, 0, 56, 65
1, 150407, Note_off_c, 0, 52, 61
1, 150410, Note_on_c, 0, 59, 56
1, 150451, Note_on_c, 0, 63, 65
1, 150463, Note_off_c, 0, 56, 64
1, 150492, Note_off_c, 0, 59, 62
1, 150524, Note_off_c, 0, 63, 62
1, 150622, Note_on_c, 0, 76, 80
1, 150623, Note_on_c, 0, 71, 63
1, 150690, Note_on_c, 0, 80, 79
1, 150733, Poly_aftertouch_c, 0, 64, 127
1, 150744, Note_on_c, 0, 87, 101
1, 150761, Note_on_c, 0, 68, 37
1, 150821, Note_off_c, 0, 87, 63
1, 150978, Note_on_c, 0, 85, 105
1, 151053, Note_off_c, 0, 85, 63
1, 151349, Note_on_c, 0, 83, 102
1, 152147, Poly_aftertouch_c, 0, 64, 0
1, 152210, Note_off_c, 0, 76, 36
1, 152246, Note_off_c, 0, 83, 43
1, 152309, Note_off_c, 0, 80, 50
1, 152358, Note_off_c, 0, 68, 33
1, 152410, Note_off_c, 0, 71, 27
1, 152556, Note_on_c, 0, 64, 65
1, 152610, Note_on_c, 0, 68, 79
1, 152616, Note_off_c, 0, 64, 63
1, 152646, Note_on_c, 0, 71, 82
1, 152656, Note_off_c, 0, 68, 64
1, 152668, Note_off_c, 0, 71, 71
1, 152678, Note_on_c, 0, 76, 75
1, 152723, Note_on_c, 0, 80, 74
1, 152755, Note_on_c, 0, 83, 73
1, 152786, Note_on_c, 0, 88, 81
1, 152914, Note_on_c, 0, 100, 111
1, 152941, Note_off_c, 0, 100, 70
1, 154744, Note_off_c, 0, 88, 54
1, 154791, Note_off_c, 0, 76, 54
1, 154806, Note_off_c, 0, 83, 25
1, 154828, Note_off_c, 0, 80, 35
1, 155844, Control_c, 0, 64, 116
1, 155859, Control_c, 0, 64, 99
1, 155874, Control_c, 0, 64, 91
1, 155889, Control_c, 0, 64, 84
1, 155904, Control_c, 0, 64, 78
1, 155918, Control_c, 0, 64, 73
1, 155933, Control_c, 0, 64, 68
1, 155948, Control_c, 0, 64, 63
1, 155963, Control_c, 0, 64, 59
1, 155978, Control_c, 0, 64, 57
1, 155993, Control_c, 0, 64, 53
1, 156007, Control_c, 0, 64, 47
1, 156022, Control_c, 0, 64, 35
1, 156037, Control_c, 0, 64, 9
1, 156052, Control_c, 0, 64, 0
1, 156127, End_track
0, 0, End_of_file
