0, 0, Header, 0, 1, 384
1, 0, Start_track
1, 0, Title_t, "SchubertOp142No3--Zhou          "
1, 0, Text_t, "2011 ePiano Junior Competition"
1, 0, Text_t, "captured in spring and summer 2011"
1, 0, Text_t, "http://www.piano-e-competition.com/"
1, 0, Text_t, "standard-resolution version"
1, 0, Text_t, "File processed for distribution with software designed and coded by Dr. John Q. Walker, founder of Zenph Sound Innovations"
1, 0, Instrument_name_t, "Yamaha Disklavier Pro Mark IV concert grand piano, model DCFIIISM4PRO"
1, 0, Sequencer_specific, 39, 67, 113, 0, 1, 0, 1, 0, 83, 99, 104, 117, 98, 101, 114, 116, 79, 112, 49, 52, 50, 78, 111, 51, 65, 110, 110, 105, 101, 32, 90, 104, 111, 117, 32, 32, 32, 32, 32, 32
1, 0, Sequencer_specific, 6, 67, 113, 0, 0, 0, 69
1, 0, System_exclusive, 21, 67, 113, 126, 21, 0, 2, 2, 2, 5, 12, 8, 4, 14, 1, 3, 5, 3, 4, 4, 0, 247
1, 0, Sequencer_specific, 5, 67, 123, 12, 2, 1
1, 0, Tempo, 512820
1, 0, Time_signature, 4, 2, 24, 8
1, 0, System_exclusive, 5, 126, 127, 9, 1, 247
1, 1, System_exclusive, 8, 67, 16, 76, 0, 0, 126, 0, 247
1, 2, System_exclusive, 8, 67, 16, 76, 8, 9, 7, 1, 247
1, 3, Control_c, 0, 0, 108
1, 3, Control_c, 1, 0, 108
1, 3, Control_c, 2, 0, 0
1, 3, Control_c, 3, 0, 0
1, 3, Control_c, 4, 0, 0
1, 3, Control_c, 5, 0, 0
1, 3, Control_c, 6, 0, 0
1, 3, Control_c, 7, 0, 0
1, 3, Control_c, 8, 0, 0
1, 3, Control_c, 9, 0, 127
1, 3, Control_c, 10, 0, 0
1, 3, Control_c, 11, 0, 0
1, 3, Control_c, 12, 0, 0
1, 3, Control_c, 13, 0, 0
1, 3, Control_c, 14, 0, 0
1, 3, Control_c, 15, 0, 0
1, 4, Control_c, 0, 32, 0
1, 4, Control_c, 1, 32, 0
1, 4, Control_c, 2, 32, 0
1, 4, Control_c, 3, 32, 0
1, 4, Control_c, 4, 32, 0
1, 4, Control_c, 5, 32, 0
1, 4, Control_c, 6, 32, 0
1, 4, Control_c, 7, 32, 0
1, 4, Control_c, 8, 32, 0
1, 4, Control_c, 9, 32, 0
1, 4, Control_c, 10, 32, 0
1, 4, Control_c, 11, 32, 0
1, 4, Control_c, 12, 32, 0
1, 4, Control_c, 13, 32, 0
1, 4, Control_c, 14, 32, 0
1, 4, Control_c, 15, 32, 0
1, 5, Program_c, 0, 0
1, 5, Program_c, 1, 0
1, 5, Program_c, 2, 0
1, 5, Program_c, 3, 0
1, 5, Program_c, 4, 0
1, 5, Program_c, 5, 0
1, 5, Program_c, 6, 0
1, 5, Program_c, 7, 0
1, 5, Program_c, 8, 0
1, 5, Program_c, 9, 0
1, 5, Program_c, 10, 0
1, 5, Program_c, 11, 0
1, 5, Program_c, 12, 0
1, 5, Program_c, 13, 0
1, 5, Program_c, 14, 0
1, 5, Program_c, 15, 0
1, 6, Control_c, 0, 7, 100
1, 6, Control_c, 1, 7, 100
1, 6, Control_c, 2, 7, 100
1, 6, Control_c, 3, 7, 100
1, 6, Control_c, 4, 7, 100
1, 6, Control_c, 5, 7, 100
1, 6, Control_c, 6, 7, 100
1, 6, Control_c, 7, 7, 100
1, 6, Control_c, 8, 7, 100
1, 6, Control_c, 9, 7, 100
1, 6, Control_c, 10, 7, 100
1, 6, Control_c, 11, 7, 100
1, 6, Control_c, 12, 7, 100
1, 6, Control_c, 13, 7, 100
1, 6, Control_c, 14, 7, 100
1, 6, Control_c, 15, 7, 100
1, 42, Control_c, 0, 64, 15
1, 79, Control_c, 0, 64, 31
1, 116, Control_c, 0, 64, 46
1, 153, Control_c, 0, 64, 63
1, 190, Control_c, 0, 64, 77
1, 226, Control_c, 0, 64, 94
1, 263, Control_c, 0, 64, 108
1, 300, Control_c, 0, 64, 127
1, 379, Note_on_c, 0, 79, 81
1, 384, Note_on_c, 0, 67, 73
1, 384, Note_on_c, 0, 31, 67
1, 384, Note_on_c, 0, 43, 72
1, 3060, Note_off_c, 0, 31, 23
1, 3164, Note_off_c, 0, 43, 24
1, 3453, Note_off_c, 0, 67, 25
1, 3456, Note_off_c, 0, 79, 28
1, 3498, Control_c, 0, 67, 11
1, 3513, Control_c, 0, 67, 18
1, 3528, Control_c, 0, 67, 24
1, 3543, Control_c, 0, 67, 28
1, 3557, Control_c, 0, 67, 32
1, 3572, Control_c, 0, 67, 37
1, 3587, Control_c, 0, 67, 42
1, 3602, Control_c, 0, 67, 46
1, 3616, Control_c, 0, 67, 50
1, 3631, Control_c, 0, 67, 55
1, 3646, Control_c, 0, 67, 59
1, 3661, Control_c, 0, 67, 65
1, 3676, Control_c, 0, 67, 71
1, 3690, Control_c, 0, 67, 77
1, 3705, Control_c, 0, 67, 83
1, 3720, Control_c, 0, 67, 88
1, 3734, Control_c, 0, 67, 92
1, 3749, Control_c, 0, 67, 95
1, 3764, Control_c, 0, 67, 97
1, 3779, Control_c, 0, 67, 99
1, 3794, Control_c, 0, 67, 101
1, 3809, Control_c, 0, 67, 105
1, 3824, Control_c, 0, 67, 108
1, 3839, Control_c, 0, 67, 111
1, 3853, Control_c, 0, 67, 114
1, 3868, Control_c, 0, 67, 117
1, 3890, Control_c, 0, 67, 119
1, 3905, Control_c, 0, 67, 120
1, 3920, Control_c, 0, 67, 122
1, 3935, Control_c, 0, 67, 123
1, 3949, Control_c, 0, 67, 124
1, 3979, Control_c, 0, 67, 124
1, 4053, Control_c, 0, 67, 125
1, 5447, Control_c, 0, 67, 124
1, 6040, Control_c, 0, 67, 124
1, 6344, Control_c, 0, 67, 123
1, 6477, Control_c, 0, 67, 122
1, 6625, Control_c, 0, 67, 122
1, 6804, Control_c, 0, 67, 121
1, 6974, Control_c, 0, 67, 120
1, 7136, Control_c, 0, 67, 120
1, 7244, Note_on_c, 0, 71, 46
1, 7270, Control_c, 0, 64, 114
1, 7285, Control_c, 0, 64, 107
1, 7299, Control_c, 0, 64, 102
1, 7314, Control_c, 0, 64, 97
1, 7329, Control_c, 0, 64, 94
1, 7344, Control_c, 0, 64, 90
1, 7358, Control_c, 0, 64, 86
1, 7373, Control_c, 0, 64, 81
1, 7388, Control_c, 0, 64, 76
1, 7403, Control_c, 0, 64, 71
1, 7418, Control_c, 0, 64, 67
1, 7434, Control_c, 0, 64, 64
1, 7448, Control_c, 0, 64, 62
1, 7463, Control_c, 0, 64, 59
1, 7478, Control_c, 0, 64, 56
1, 7493, Control_c, 0, 64, 51
1, 7508, Control_c, 0, 64, 47
1, 7522, Control_c, 0, 64, 42
1, 7537, Control_c, 0, 64, 36
1, 7552, Control_c, 0, 64, 30
1, 7567, Control_c, 0, 64, 25
1, 7582, Control_c, 0, 64, 21
1, 7597, Control_c, 0, 64, 17
1, 7611, Control_c, 0, 64, 13
1, 7633, Control_c, 0, 64, 9
1, 7648, Control_c, 0, 64, 0
1, 7750, Note_on_c, 0, 72, 48
1, 7826, Note_off_c, 0, 71, 48
1, 7904, Note_on_c, 0, 74, 52
1, 7940, Note_off_c, 0, 72, 51
1, 8063, Control_c, 0, 64, 15
1, 8077, Control_c, 0, 64, 23
1, 8092, Control_c, 0, 64, 29
1, 8107, Control_c, 0, 64, 35
1, 8122, Control_c, 0, 64, 41
1, 8137, Control_c, 0, 64, 46
1, 8152, Control_c, 0, 64, 50
1, 8167, Control_c, 0, 64, 54
1, 8181, Control_c, 0, 64, 57
1, 8196, Control_c, 0, 64, 60
1, 8211, Control_c, 0, 64, 63
1, 8226, Control_c, 0, 64, 64
1, 8241, Control_c, 0, 64, 67
1, 8256, Control_c, 0, 64, 71
1, 8256, Control_c, 0, 67, 119
1, 8271, Control_c, 0, 64, 77
1, 8286, Control_c, 0, 64, 82
1, 8301, Control_c, 0, 64, 87
1, 8316, Control_c, 0, 64, 92
1, 8323, Note_off_c, 0, 74, 31
1, 8331, Control_c, 0, 64, 97
1, 8345, Control_c, 0, 64, 101
1, 8360, Control_c, 0, 64, 101
1, 8397, Control_c, 0, 64, 101
1, 8411, Control_c, 0, 64, 100
1, 8441, Control_c, 0, 64, 99
1, 8456, Control_c, 0, 64, 99
1, 8471, Control_c, 0, 64, 98
1, 8486, Control_c, 0, 64, 96
1, 8501, Control_c, 0, 64, 95
1, 8516, Control_c, 0, 64, 94
1, 8531, Control_c, 0, 64, 93
1, 8539, Note_on_c, 0, 74, 55
1, 8545, Control_c, 0, 64, 91
1, 8560, Control_c, 0, 64, 89
1, 8575, Control_c, 0, 64, 86
1, 8590, Control_c, 0, 64, 82
1, 8604, Control_c, 0, 64, 76
1, 8619, Control_c, 0, 64, 70
1, 8634, Control_c, 0, 64, 66
1, 8649, Control_c, 0, 64, 63
1, 8664, Control_c, 0, 64, 61
1, 8708, Control_c, 0, 64, 61
1, 8723, Control_c, 0, 64, 62
1, 8738, Control_c, 0, 64, 64
1, 8752, Control_c, 0, 64, 65
1, 8767, Control_c, 0, 64, 67
1, 8782, Control_c, 0, 64, 71
1, 8796, Control_c, 0, 64, 76
1, 8811, Control_c, 0, 64, 81
1, 8826, Control_c, 0, 64, 87
1, 8841, Control_c, 0, 64, 94
1, 8847, Note_off_c, 0, 74, 52
1, 8856, Control_c, 0, 64, 101
1, 8870, Control_c, 0, 64, 109
1, 8885, Control_c, 0, 64, 118
1, 8900, Control_c, 0, 64, 119
1, 8960, Control_c, 0, 64, 118
1, 8975, Control_c, 0, 64, 116
1, 8990, Control_c, 0, 64, 113
1, 9004, Control_c, 0, 64, 112
1, 9019, Control_c, 0, 64, 110
1, 9034, Control_c, 0, 64, 107
1, 9049, Control_c, 0, 64, 105
1, 9064, Note_on_c, 0, 74, 61
1, 9064, Control_c, 0, 64, 103
1, 9079, Control_c, 0, 64, 100
1, 9094, Control_c, 0, 64, 96
1, 9109, Control_c, 0, 64, 90
1, 9131, Control_c, 0, 64, 81
1, 9131, Control_c, 0, 67, 120
1, 9146, Control_c, 0, 64, 73
1, 9161, Control_c, 0, 64, 67
1, 9175, Control_c, 0, 64, 62
1, 9190, Control_c, 0, 64, 59
1, 9205, Control_c, 0, 64, 60
1, 9220, Control_c, 0, 64, 61
1, 9220, Control_c, 0, 67, 120
1, 9234, Control_c, 0, 64, 63
1, 9249, Control_c, 0, 64, 65
1, 9264, Control_c, 0, 64, 68
1, 9279, Control_c, 0, 64, 71
1, 9294, Control_c, 0, 64, 76
1, 9309, Control_c, 0, 64, 81
1, 9323, Control_c, 0, 64, 88
1, 9338, Control_c, 0, 64, 95
1, 9348, Note_off_c, 0, 74, 58
1, 9353, Control_c, 0, 64, 105
1, 9368, Control_c, 0, 64, 115
1, 9383, Control_c, 0, 64, 127
1, 9472, Control_c, 0, 64, 123
1, 9487, Control_c, 0, 64, 118
1, 9501, Control_c, 0, 64, 115
1, 9516, Control_c, 0, 64, 112
1, 9531, Control_c, 0, 64, 110
1, 9546, Control_c, 0, 64, 107
1, 9560, Control_c, 0, 64, 106
1, 9575, Control_c, 0, 64, 105
1, 9590, Control_c, 0, 64, 104
1, 9605, Control_c, 0, 64, 103
1, 9619, Control_c, 0, 64, 102
1, 9632, Note_on_c, 0, 72, 54
1, 9634, Control_c, 0, 64, 101
1, 9649, Control_c, 0, 64, 99
1, 9664, Control_c, 0, 64, 96
1, 9664, Control_c, 0, 67, 121
1, 9679, Control_c, 0, 64, 92
1, 9693, Control_c, 0, 64, 87
1, 9708, Control_c, 0, 64, 82
1, 9723, Control_c, 0, 64, 74
1, 9723, Control_c, 0, 67, 122
1, 9738, Control_c, 0, 64, 67
1, 9753, Control_c, 0, 64, 61
1, 9768, Control_c, 0, 64, 53
1, 9783, Control_c, 0, 64, 50
1, 9812, Control_c, 0, 64, 51
1, 9828, Control_c, 0, 64, 53
1, 9842, Control_c, 0, 64, 56
1, 9842, Control_c, 0, 67, 122
1, 9857, Control_c, 0, 64, 59
1, 9880, Control_c, 0, 64, 61
1, 9895, Control_c, 0, 64, 62
1, 9910, Control_c, 0, 64, 64
1, 9924, Control_c, 0, 64, 66
1, 9939, Control_c, 0, 64, 67
1, 9954, Control_c, 0, 64, 70
1, 9969, Control_c, 0, 64, 72
1, 9984, Control_c, 0, 64, 75
1, 9998, Control_c, 0, 64, 77
1, 10009, Note_off_c, 0, 72, 38
1, 10013, Control_c, 0, 64, 80
1, 10028, Control_c, 0, 64, 81
1, 10043, Control_c, 0, 64, 81
1, 10083, Note_on_c, 0, 74, 60
1, 10117, Control_c, 0, 64, 81
1, 10131, Control_c, 0, 64, 80
1, 10146, Control_c, 0, 64, 80
1, 10161, Control_c, 0, 64, 79
1, 10176, Control_c, 0, 64, 78
1, 10191, Control_c, 0, 64, 77
1, 10206, Control_c, 0, 64, 75
1, 10221, Control_c, 0, 64, 74
1, 10236, Control_c, 0, 64, 72
1, 10236, Control_c, 0, 67, 123
1, 10250, Control_c, 0, 64, 71
1, 10252, Note_on_c, 0, 75, 62
1, 10265, Note_off_c, 0, 74, 52
1, 10265, Control_c, 0, 64, 70
1, 10280, Control_c, 0, 64, 68
1, 10295, Control_c, 0, 64, 66
1, 10310, Control_c, 0, 64, 65
1, 10324, Control_c, 0, 64, 64
1, 10324, Control_c, 0, 67, 124
1, 10339, Control_c, 0, 64, 62
1, 10354, Control_c, 0, 64, 59
1, 10369, Control_c, 0, 64, 55
1, 10384, Control_c, 0, 64, 51
1, 10398, Control_c, 0, 64, 50
1, 10413, Control_c, 0, 64, 48
1, 10428, Control_c, 0, 64, 45
1, 10443, Control_c, 0, 64, 41
1, 10457, Control_c, 0, 64, 36
1, 10472, Control_c, 0, 64, 34
1, 10487, Control_c, 0, 64, 33
1, 10502, Control_c, 0, 64, 32
1, 10517, Control_c, 0, 64, 30
1, 10531, Control_c, 0, 64, 30
1, 10629, Control_c, 0, 67, 124
1, 10673, Control_c, 0, 64, 30
1, 10688, Control_c, 0, 64, 31
1, 10703, Control_c, 0, 64, 32
1, 10718, Control_c, 0, 64, 34
1, 10733, Control_c, 0, 64, 35
1, 10747, Control_c, 0, 64, 37
1, 10762, Control_c, 0, 64, 40
1, 10777, Control_c, 0, 64, 41
1, 10792, Control_c, 0, 64, 42
1, 10806, Control_c, 0, 64, 43
1, 10821, Control_c, 0, 64, 44
1, 10836, Control_c, 0, 64, 44
1, 10851, Control_c, 0, 64, 45
1, 10880, Control_c, 0, 64, 46
1, 10925, Control_c, 0, 64, 46
1, 11225, Note_on_c, 0, 74, 44
1, 11296, Note_off_c, 0, 75, 50
1, 11596, Note_on_c, 0, 72, 47
1, 11644, Control_c, 0, 64, 47
1, 11659, Control_c, 0, 64, 48
1, 11673, Note_off_c, 0, 74, 31
1, 11674, Control_c, 0, 64, 49
1, 11689, Control_c, 0, 64, 50
1, 11703, Control_c, 0, 64, 51
1, 11718, Control_c, 0, 64, 53
1, 11733, Control_c, 0, 64, 54
1, 11748, Control_c, 0, 64, 56
1, 11763, Control_c, 0, 64, 58
1, 11777, Control_c, 0, 64, 60
1, 11792, Control_c, 0, 64, 62
1, 11807, Control_c, 0, 64, 63
1, 11821, Control_c, 0, 64, 65
1, 11836, Control_c, 0, 64, 66
1, 11851, Control_c, 0, 64, 69
1, 11866, Control_c, 0, 64, 73
1, 11881, Control_c, 0, 64, 78
1, 11896, Control_c, 0, 64, 83
1, 11911, Control_c, 0, 64, 90
1, 11926, Control_c, 0, 64, 98
1, 11941, Control_c, 0, 64, 111
1, 11956, Control_c, 0, 64, 127
1, 11973, Note_off_c, 0, 72, 35
1, 12236, Note_on_c, 0, 74, 56
1, 12245, Control_c, 0, 64, 123
1, 12260, Control_c, 0, 64, 114
1, 12275, Control_c, 0, 64, 107
1, 12289, Control_c, 0, 64, 102
1, 12304, Control_c, 0, 64, 99
1, 12319, Control_c, 0, 64, 96
1, 12334, Control_c, 0, 64, 93
1, 12349, Control_c, 0, 64, 90
1, 12364, Control_c, 0, 64, 86
1, 12379, Control_c, 0, 64, 83
1, 12393, Control_c, 0, 64, 80
1, 12408, Control_c, 0, 64, 77
1, 12423, Control_c, 0, 64, 75
1, 12438, Control_c, 0, 64, 73
1, 12452, Control_c, 0, 64, 71
1, 12467, Control_c, 0, 64, 69
1, 12482, Control_c, 0, 64, 66
1, 12497, Control_c, 0, 64, 65
1, 12497, Control_c, 0, 67, 125
1, 12512, Control_c, 0, 64, 64
1, 12526, Control_c, 0, 64, 63
1, 12541, Control_c, 0, 64, 61
1, 12556, Control_c, 0, 64, 56
1, 12571, Control_c, 0, 64, 54
1, 12586, Control_c, 0, 64, 53
1, 12600, Control_c, 0, 64, 52
1, 12615, Control_c, 0, 64, 50
1, 12630, Control_c, 0, 64, 48
1, 12644, Control_c, 0, 64, 45
1, 12659, Control_c, 0, 64, 44
1, 12674, Control_c, 0, 64, 44
1, 12704, Control_c, 0, 64, 43
1, 12713, Note_on_c, 0, 72, 58
1, 12719, Control_c, 0, 64, 43
1, 12780, Note_off_c, 0, 74, 46
1, 12837, Control_c, 0, 67, 125
1, 12854, Note_on_c, 0, 71, 61
1, 12896, Note_off_c, 0, 72, 49
1, 13446, Note_on_c, 0, 69, 50
1, 13485, Note_off_c, 0, 71, 56
1, 13911, Note_on_c, 0, 71, 51
1, 13947, Note_off_c, 0, 69, 37
1, 14054, Note_on_c, 0, 72, 53
1, 14078, Note_off_c, 0, 71, 47
1, 14691, Note_on_c, 0, 74, 46
1, 14778, Note_off_c, 0, 72, 38
1, 15244, Note_on_c, 0, 75, 45
1, 15277, Note_off_c, 0, 74, 56
1, 15449, Note_on_c, 0, 74, 46
1, 15460, Note_off_c, 0, 75, 53
1, 15670, Control_c, 0, 67, 125
1, 15685, Control_c, 0, 64, 43
1, 15700, Control_c, 0, 64, 44
1, 15714, Control_c, 0, 64, 45
1, 15729, Control_c, 0, 64, 46
1, 15744, Control_c, 0, 64, 47
1, 15759, Control_c, 0, 64, 48
1, 15759, Control_c, 0, 67, 124
1, 15774, Control_c, 0, 64, 49
1, 15789, Control_c, 0, 64, 50
1, 15804, Control_c, 0, 64, 51
1, 15818, Control_c, 0, 64, 52
1, 15833, Control_c, 0, 64, 53
1, 15848, Control_c, 0, 64, 54
1, 15870, Control_c, 0, 64, 55
1, 15884, Control_c, 0, 64, 57
1, 15884, Control_c, 0, 67, 124
1, 15899, Control_c, 0, 64, 58
1, 15914, Control_c, 0, 64, 59
1, 15929, Control_c, 0, 64, 60
1, 15944, Control_c, 0, 64, 61
1, 15959, Control_c, 0, 64, 62
1, 15974, Control_c, 0, 64, 63
1, 15989, Control_c, 0, 64, 63
1, 15989, Control_c, 0, 67, 123
1, 16004, Control_c, 0, 64, 64
1, 16018, Control_c, 0, 64, 65
1, 16033, Control_c, 0, 64, 66
1, 16033, Control_c, 0, 67, 122
1, 16048, Control_c, 0, 64, 67
1, 16063, Control_c, 0, 64, 69
1, 16077, Control_c, 0, 64, 71
1, 16092, Control_c, 0, 64, 73
1, 16107, Control_c, 0, 64, 75
1, 16122, Control_c, 0, 64, 77
1, 16137, Control_c, 0, 64, 81
1, 16151, Control_c, 0, 64, 86
1, 16166, Control_c, 0, 64, 91
1, 16166, Control_c, 0, 67, 122
1, 16181, Control_c, 0, 64, 98
1, 16195, Control_c, 0, 64, 105
1, 16212, Control_c, 0, 64, 121
1, 16227, Control_c, 0, 64, 127
1, 16296, Note_off_c, 0, 74, 29
1, 16448, Control_c, 0, 67, 121
1, 16974, Control_c, 0, 67, 120
1, 17168, Control_c, 0, 64, 121
1, 17182, Control_c, 0, 64, 118
1, 17197, Control_c, 0, 64, 115
1, 17212, Control_c, 0, 64, 113
1, 17227, Control_c, 0, 64, 111
1, 17241, Control_c, 0, 64, 110
1, 17256, Control_c, 0, 64, 108
1, 17271, Control_c, 0, 64, 107
1, 17301, Control_c, 0, 64, 106
1, 17315, Control_c, 0, 64, 105
1, 17330, Control_c, 0, 64, 105
1, 17345, Control_c, 0, 64, 104
1, 17368, Control_c, 0, 64, 104
1, 17383, Control_c, 0, 64, 103
1, 17397, Control_c, 0, 64, 102
1, 17412, Control_c, 0, 64, 101
1, 17427, Control_c, 0, 64, 101
1, 17441, Control_c, 0, 64, 100
1, 17455, Control_c, 0, 64, 99
1, 17470, Control_c, 0, 64, 98
1, 17485, Control_c, 0, 64, 96
1, 17500, Control_c, 0, 64, 94
1, 17514, Control_c, 0, 64, 93
1, 17520, Note_on_c, 0, 71, 46
1, 17529, Control_c, 0, 64, 91
1, 17530, Note_on_c, 0, 55, 35
1, 17532, Note_on_c, 0, 67, 31
1, 17538, Note_on_c, 0, 62, 37
1, 17544, Control_c, 0, 64, 89
1, 17559, Control_c, 0, 64, 87
1, 17574, Control_c, 0, 64, 85
1, 17588, Control_c, 0, 64, 83
1, 17603, Control_c, 0, 64, 80
1, 17618, Control_c, 0, 64, 78
1, 17620, Note_off_c, 0, 67, 49
1, 17623, Note_off_c, 0, 62, 58
1, 17625, Note_off_c, 0, 55, 56
1, 17628, Note_off_c, 0, 71, 62
1, 17633, Control_c, 0, 64, 77
1, 17647, Control_c, 0, 64, 75
1, 17662, Control_c, 0, 64, 73
1, 17677, Control_c, 0, 64, 71
1, 17692, Control_c, 0, 64, 69
1, 17707, Control_c, 0, 64, 67
1, 17721, Control_c, 0, 64, 66
1, 17736, Control_c, 0, 64, 64
1, 17751, Control_c, 0, 64, 63
1, 17766, Control_c, 0, 64, 61
1, 17781, Control_c, 0, 64, 57
1, 17795, Control_c, 0, 64, 53
1, 17811, Control_c, 0, 64, 50
1, 17826, Control_c, 0, 64, 49
1, 17841, Control_c, 0, 64, 47
1, 17856, Control_c, 0, 64, 45
1, 17870, Control_c, 0, 64, 43
1, 17885, Control_c, 0, 64, 43
1, 17900, Control_c, 0, 64, 42
1, 17938, Note_on_c, 0, 72, 53
1, 17940, Note_on_c, 0, 63, 40
1, 17950, Note_on_c, 0, 67, 36
1, 17959, Control_c, 0, 64, 43
1, 17965, Note_on_c, 0, 55, 41
1, 17974, Control_c, 0, 64, 44
1, 17978, Note_off_c, 0, 63, 62
1, 17983, Note_off_c, 0, 67, 54
1, 17986, Note_off_c, 0, 72, 58
1, 17989, Control_c, 0, 64, 45
1, 18004, Control_c, 0, 64, 45
1, 18013, Note_off_c, 0, 55, 57
1, 18019, Control_c, 0, 64, 46
1, 18083, Note_on_c, 0, 74, 58
1, 18094, Note_on_c, 0, 65, 47
1, 18099, Note_on_c, 0, 67, 40
1, 18113, Note_on_c, 0, 55, 30
1, 18130, Control_c, 0, 64, 46
1, 18144, Control_c, 0, 64, 48
1, 18159, Control_c, 0, 64, 51
1, 18174, Control_c, 0, 64, 54
1, 18189, Control_c, 0, 64, 56
1, 18205, Control_c, 0, 64, 59
1, 18219, Control_c, 0, 64, 61
1, 18234, Control_c, 0, 64, 62
1, 18237, Note_off_c, 0, 67, 25
1, 18239, Note_off_c, 0, 74, 59
1, 18249, Control_c, 0, 64, 63
1, 18263, Control_c, 0, 64, 64
1, 18263, Control_c, 0, 67, 120
1, 18268, Note_off_c, 0, 55, 37
1, 18268, Note_off_c, 0, 65, 35
1, 18293, Control_c, 0, 67, 119
1, 18338, Control_c, 0, 64, 63
1, 18368, Control_c, 0, 64, 63
1, 18382, Control_c, 0, 64, 62
1, 18397, Control_c, 0, 64, 62
1, 18412, Control_c, 0, 64, 61
1, 18427, Control_c, 0, 64, 60
1, 18442, Control_c, 0, 64, 60
1, 18456, Control_c, 0, 64, 59
1, 18471, Control_c, 0, 64, 59
1, 18486, Control_c, 0, 64, 57
1, 18501, Control_c, 0, 64, 56
1, 18516, Control_c, 0, 64, 55
1, 18530, Control_c, 0, 64, 54
1, 18545, Control_c, 0, 64, 53
1, 18560, Control_c, 0, 64, 52
1, 18575, Control_c, 0, 64, 50
1, 18590, Control_c, 0, 64, 48
1, 18608, Note_on_c, 0, 74, 50
1, 18621, Note_on_c, 0, 67, 37
1, 18624, Note_on_c, 0, 65, 38
1, 18638, Note_on_c, 0, 55, 35
1, 18665, Control_c, 0, 64, 50
1, 18680, Control_c, 0, 64, 52
1, 18694, Control_c, 0, 64, 55
1, 18709, Control_c, 0, 64, 57
1, 18724, Control_c, 0, 64, 59
1, 18739, Control_c, 0, 64, 61
1, 18748, Note_off_c, 0, 67, 29
1, 18754, Control_c, 0, 64, 62
1, 18761, Note_off_c, 0, 74, 56
1, 18763, Note_off_c, 0, 55, 49
1, 18768, Control_c, 0, 64, 63
1, 18780, Note_off_c, 0, 65, 36
1, 18783, Control_c, 0, 64, 63
1, 18798, Control_c, 0, 64, 64
1, 18924, Control_c, 0, 64, 63
1, 18968, Control_c, 0, 64, 63
1, 18998, Control_c, 0, 64, 62
1, 19042, Control_c, 0, 64, 62
1, 19072, Control_c, 0, 64, 61
1, 19086, Control_c, 0, 64, 61
1, 19101, Control_c, 0, 64, 60
1, 19116, Control_c, 0, 64, 59
1, 19125, Note_on_c, 0, 74, 51
1, 19125, Note_on_c, 0, 55, 32
1, 19131, Control_c, 0, 64, 56
1, 19142, Note_on_c, 0, 67, 40
1, 19146, Control_c, 0, 64, 55
1, 19147, Note_on_c, 0, 65, 39
1, 19205, Control_c, 0, 64, 55
1, 19209, Note_off_c, 0, 67, 47
1, 19220, Control_c, 0, 64, 56
1, 19235, Control_c, 0, 64, 59
1, 19250, Control_c, 0, 64, 61
1, 19250, Control_c, 0, 67, 118
1, 19265, Control_c, 0, 64, 62
1, 19279, Control_c, 0, 64, 63
1, 19294, Control_c, 0, 64, 64
1, 19309, Control_c, 0, 64, 66
1, 19309, Control_c, 0, 67, 117
1, 19315, Note_off_c, 0, 65, 52
1, 19324, Note_off_c, 0, 74, 58
1, 19324, Control_c, 0, 64, 67
1, 19325, Note_off_c, 0, 55, 44
1, 19339, Control_c, 0, 64, 69
1, 19354, Control_c, 0, 64, 70
1, 19368, Control_c, 0, 64, 72
1, 19444, Control_c, 0, 64, 71
1, 19458, Control_c, 0, 64, 71
1, 19473, Control_c, 0, 64, 70
1, 19488, Control_c, 0, 64, 70
1, 19502, Control_c, 0, 64, 69
1, 19517, Control_c, 0, 64, 68
1, 19532, Control_c, 0, 64, 67
1, 19547, Control_c, 0, 64, 66
1, 19562, Control_c, 0, 64, 65
1, 19577, Control_c, 0, 64, 64
1, 19577, Control_c, 0, 67, 118
1, 19591, Control_c, 0, 64, 62
1, 19614, Control_c, 0, 64, 59
1, 19628, Control_c, 0, 64, 55
1, 19643, Control_c, 0, 64, 52
1, 19658, Control_c, 0, 64, 50
1, 19676, Note_on_c, 0, 72, 59
1, 19682, Note_on_c, 0, 63, 43
1, 19685, Note_on_c, 0, 67, 43
1, 19697, Note_on_c, 0, 55, 38
1, 19703, Control_c, 0, 64, 50
1, 19717, Control_c, 0, 64, 52
1, 19732, Control_c, 0, 64, 54
1, 19747, Control_c, 0, 64, 57
1, 19762, Control_c, 0, 64, 60
1, 19777, Control_c, 0, 64, 61
1, 19791, Control_c, 0, 64, 63
1, 19806, Control_c, 0, 64, 64
1, 19811, Note_off_c, 0, 55, 52
1, 19821, Control_c, 0, 64, 65
1, 19836, Control_c, 0, 64, 66
1, 19840, Note_off_c, 0, 72, 63
1, 19842, Note_off_c, 0, 67, 41
1, 19843, Note_off_c, 0, 63, 55
1, 19851, Control_c, 0, 64, 67
1, 19865, Control_c, 0, 64, 68
1, 19880, Control_c, 0, 64, 69
1, 19983, Control_c, 0, 64, 68
1, 20043, Control_c, 0, 64, 68
1, 20075, Note_on_c, 0, 74, 64
1, 20082, Note_on_c, 0, 55, 49
1, 20082, Note_on_c, 0, 65, 54
1, 20082, Note_on_c, 0, 67, 52
1, 20102, Control_c, 0, 67, 119
1, 20112, Note_off_c, 0, 67, 64
1, 20117, Control_c, 0, 64, 67
1, 20119, Note_off_c, 0, 65, 64
1, 20119, Note_off_c, 0, 74, 63
1, 20124, Note_off_c, 0, 55, 61
1, 20132, Control_c, 0, 64, 67
1, 20147, Control_c, 0, 64, 66
1, 20162, Control_c, 0, 64, 66
1, 20176, Control_c, 0, 64, 64
1, 20191, Control_c, 0, 64, 62
1, 20207, Control_c, 0, 64, 59
1, 20210, Note_on_c, 0, 75, 70
1, 20213, Note_on_c, 0, 67, 56
1, 20222, Control_c, 0, 64, 55
1, 20222, Note_on_c, 0, 55, 49
1, 20237, Control_c, 0, 64, 51
1, 20251, Control_c, 0, 64, 45
1, 20266, Control_c, 0, 64, 41
1, 20281, Control_c, 0, 64, 40
1, 20306, Note_off_c, 0, 67, 0
1, 20325, Control_c, 0, 64, 41
1, 20340, Control_c, 0, 64, 45
1, 20343, Poly_aftertouch_c, 0, 67, 127
1, 20362, Control_c, 0, 64, 49
1, 20377, Control_c, 0, 64, 53
1, 20392, Control_c, 0, 64, 56
1, 20406, Control_c, 0, 64, 59
1, 20406, Control_c, 0, 67, 120
1, 20421, Note_off_c, 0, 55, 55
1, 20421, Control_c, 0, 64, 61
1, 20436, Control_c, 0, 64, 62
1, 20451, Control_c, 0, 64, 64
1, 20466, Control_c, 0, 64, 65
1, 20481, Control_c, 0, 64, 66
1, 20481, Control_c, 0, 67, 120
1, 20496, Control_c, 0, 64, 67
1, 20511, Control_c, 0, 64, 68
1, 20526, Control_c, 0, 64, 69
1, 20540, Control_c, 0, 64, 70
1, 20555, Control_c, 0, 64, 71
1, 20600, Control_c, 0, 67, 121
1, 20614, Control_c, 0, 64, 70
1, 20644, Control_c, 0, 64, 70
1, 20674, Control_c, 0, 64, 69
1, 20688, Control_c, 0, 67, 122
1, 20703, Control_c, 0, 64, 68
1, 20718, Control_c, 0, 64, 67
1, 20732, Control_c, 0, 64, 67
1, 20747, Control_c, 0, 64, 65
1, 20762, Control_c, 0, 64, 64
1, 20770, Note_on_c, 0, 57, 61
1, 20777, Control_c, 0, 64, 60
1, 20777, Control_c, 0, 67, 122
1, 20792, Control_c, 0, 64, 56
1, 20806, Control_c, 0, 64, 52
1, 20821, Control_c, 0, 64, 52
1, 20851, Control_c, 0, 64, 54
1, 20866, Control_c, 0, 64, 57
1, 20880, Control_c, 0, 64, 60
1, 20895, Control_c, 0, 64, 62
1, 20904, Note_off_c, 0, 57, 61
1, 20910, Control_c, 0, 64, 64
1, 20915, Poly_aftertouch_c, 0, 67, 0
1, 20925, Control_c, 0, 64, 65
1, 20940, Control_c, 0, 64, 67
1, 20955, Control_c, 0, 64, 69
1, 20970, Control_c, 0, 64, 70
1, 20985, Control_c, 0, 64, 71
1, 21000, Note_off_c, 0, 75, 51
1, 21000, Control_c, 0, 64, 72
1, 21089, Control_c, 0, 64, 72
1, 21141, Control_c, 0, 64, 71
1, 21149, Note_on_c, 0, 74, 64
1, 21161, Note_on_c, 0, 67, 48
1, 21166, Note_on_c, 0, 59, 55
1, 21170, Control_c, 0, 64, 71
1, 21172, Note_on_c, 0, 65, 40
1, 21185, Control_c, 0, 64, 70
1, 21196, Note_off_c, 0, 67, 63
1, 21199, Note_off_c, 0, 59, 64
1, 21199, Control_c, 0, 64, 69
1, 21201, Note_off_c, 0, 65, 49
1, 21210, Note_off_c, 0, 74, 64
1, 21214, Control_c, 0, 64, 67
1, 21229, Control_c, 0, 64, 64
1, 21244, Control_c, 0, 64, 61
1, 21259, Control_c, 0, 64, 56
1, 21274, Control_c, 0, 64, 50
1, 21288, Control_c, 0, 64, 41
1, 21289, Note_on_c, 0, 60, 53
1, 21292, Note_on_c, 0, 67, 45
1, 21292, Note_on_c, 0, 72, 62
1, 21303, Control_c, 0, 64, 35
1, 21306, Note_on_c, 0, 63, 49
1, 21318, Control_c, 0, 64, 33
1, 21348, Control_c, 0, 64, 34
1, 21348, Control_c, 0, 67, 123
1, 21362, Control_c, 0, 64, 39
1, 21377, Control_c, 0, 64, 48
1, 21392, Control_c, 0, 64, 54
1, 21407, Control_c, 0, 64, 58
1, 21422, Control_c, 0, 64, 61
1, 21436, Control_c, 0, 64, 63
1, 21451, Control_c, 0, 64, 65
1, 21466, Control_c, 0, 64, 68
1, 21471, Note_off_c, 0, 72, 62
1, 21471, Note_off_c, 0, 63, 52
1, 21474, Note_off_c, 0, 67, 55
1, 21480, Control_c, 0, 64, 71
1, 21495, Control_c, 0, 64, 75
1, 21510, Control_c, 0, 64, 78
1, 21525, Control_c, 0, 64, 81
1, 21540, Control_c, 0, 64, 83
1, 21584, Note_off_c, 0, 60, 36
1, 21629, Control_c, 0, 64, 82
1, 21644, Control_c, 0, 64, 82
1, 21658, Control_c, 0, 64, 81
1, 21673, Control_c, 0, 64, 81
1, 21688, Control_c, 0, 64, 80
1, 21703, Control_c, 0, 64, 80
1, 21733, Control_c, 0, 64, 79
1, 21762, Control_c, 0, 64, 79
1, 21777, Control_c, 0, 64, 78
1, 21807, Control_c, 0, 64, 77
1, 21822, Control_c, 0, 64, 76
1, 21837, Control_c, 0, 64, 74
1, 21859, Control_c, 0, 64, 70
1, 21874, Control_c, 0, 64, 65
1, 21889, Control_c, 0, 64, 60
1, 21889, Control_c, 0, 67, 124
1, 21903, Control_c, 0, 64, 53
1, 21910, Note_on_c, 0, 74, 53
1, 21918, Control_c, 0, 64, 50
1, 21921, Note_on_c, 0, 65, 41
1, 21924, Note_on_c, 0, 53, 37
1, 21925, Note_on_c, 0, 68, 40
1, 21949, Control_c, 0, 64, 52
1, 21964, Control_c, 0, 64, 56
1, 21978, Control_c, 0, 64, 60
1, 21993, Control_c, 0, 64, 62
1, 22008, Control_c, 0, 64, 64
1, 22023, Control_c, 0, 64, 66
1, 22038, Control_c, 0, 64, 68
1, 22040, Note_off_c, 0, 74, 64
1, 22044, Note_off_c, 0, 53, 37
1, 22052, Control_c, 0, 64, 71
1, 22054, Note_off_c, 0, 65, 52
1, 22067, Control_c, 0, 64, 73
1, 22076, Note_off_c, 0, 68, 53
1, 22082, Control_c, 0, 64, 76
1, 22097, Control_c, 0, 64, 78
1, 22112, Control_c, 0, 64, 80
1, 22126, Control_c, 0, 64, 81
1, 22231, Control_c, 0, 64, 80
1, 22275, Control_c, 0, 64, 80
1, 22304, Control_c, 0, 64, 79
1, 22308, Note_on_c, 0, 72, 58
1, 22313, Note_on_c, 0, 68, 53
1, 22324, Note_on_c, 0, 53, 40
1, 22326, Note_on_c, 0, 63, 40
1, 22334, Control_c, 0, 64, 79
1, 22349, Control_c, 0, 64, 78
1, 22350, Note_off_c, 0, 68, 64
1, 22362, Note_off_c, 0, 63, 55
1, 22364, Control_c, 0, 64, 77
1, 22368, Note_off_c, 0, 72, 55
1, 22378, Control_c, 0, 64, 76
1, 22379, Note_off_c, 0, 53, 45
1, 22393, Control_c, 0, 64, 73
1, 22408, Control_c, 0, 64, 69
1, 22423, Control_c, 0, 64, 64
1, 22438, Control_c, 0, 64, 58
1, 22445, Note_on_c, 0, 67, 42
1, 22452, Control_c, 0, 64, 51
1, 22456, Note_on_c, 0, 62, 41
1, 22463, Note_on_c, 0, 55, 36
1, 22467, Control_c, 0, 64, 45
1, 22478, Note_on_c, 0, 72, 30
1, 22478, Note_on_c, 0, 71, 32
1, 22482, Control_c, 0, 64, 44
1, 22497, Control_c, 0, 67, 124
1, 22511, Note_off_c, 0, 72, 56
1, 22526, Control_c, 0, 64, 44
1, 22541, Control_c, 0, 64, 47
1, 22541, Control_c, 0, 67, 125
1, 22556, Control_c, 0, 64, 49
1, 22571, Control_c, 0, 64, 52
1, 22585, Control_c, 0, 64, 56
1, 22609, Control_c, 0, 64, 60
1, 22624, Control_c, 0, 64, 62
1, 22639, Control_c, 0, 64, 64
1, 22654, Control_c, 0, 64, 66
1, 22669, Control_c, 0, 64, 69
1, 22683, Control_c, 0, 64, 72
1, 22698, Control_c, 0, 64, 75
1, 22713, Control_c, 0, 64, 78
1, 22728, Control_c, 0, 64, 82
1, 22742, Control_c, 0, 64, 85
1, 22757, Control_c, 0, 64, 86
1, 22816, Control_c, 0, 64, 85
1, 22819, Note_off_c, 0, 62, 31
1, 22844, Note_off_c, 0, 67, 24
1, 22861, Control_c, 0, 64, 85
1, 22905, Control_c, 0, 64, 84
1, 22909, Note_off_c, 0, 71, 37
1, 22920, Control_c, 0, 64, 84
1, 22934, Control_c, 0, 64, 83
1, 22949, Control_c, 0, 64, 82
1, 22964, Control_c, 0, 64, 80
1, 22979, Control_c, 0, 64, 77
1, 22994, Control_c, 0, 64, 73
1, 23009, Control_c, 0, 64, 68
1, 23024, Control_c, 0, 64, 63
1, 23039, Control_c, 0, 64, 59
1, 23045, Note_on_c, 0, 69, 53
1, 23048, Note_on_c, 0, 67, 45
1, 23052, Note_on_c, 0, 60, 43
1, 23053, Control_c, 0, 64, 56
1, 23068, Control_c, 0, 64, 57
1, 23083, Control_c, 0, 64, 58
1, 23098, Control_c, 0, 64, 60
1, 23113, Control_c, 0, 64, 62
1, 23127, Control_c, 0, 64, 64
1, 23142, Control_c, 0, 64, 66
1, 23157, Control_c, 0, 64, 67
1, 23172, Control_c, 0, 64, 70
1, 23187, Control_c, 0, 64, 72
1, 23201, Control_c, 0, 64, 74
1, 23216, Control_c, 0, 64, 76
1, 23230, Note_off_c, 0, 60, 38
1, 23231, Control_c, 0, 64, 77
1, 23237, Note_off_c, 0, 67, 55
1, 23245, Control_c, 0, 64, 78
1, 23252, Note_off_c, 0, 69, 48
1, 23291, Note_off_c, 0, 55, 35
1, 23432, Control_c, 0, 64, 77
1, 23465, Note_on_c, 0, 71, 64
1, 23469, Note_on_c, 0, 67, 51
1, 23472, Note_on_c, 0, 62, 49
1, 23474, Note_on_c, 0, 53, 48
1, 23477, Control_c, 0, 64, 77
1, 23486, Note_on_c, 0, 55, 38
1, 23492, Control_c, 0, 64, 76
1, 23498, Note_off_c, 0, 62, 57
1, 23506, Control_c, 0, 64, 75
1, 23509, Note_off_c, 0, 67, 63
1, 23513, Note_off_c, 0, 53, 64
1, 23521, Control_c, 0, 64, 72
1, 23526, Note_off_c, 0, 55, 56
1, 23534, Note_off_c, 0, 71, 62
1, 23536, Control_c, 0, 64, 69
1, 23550, Control_c, 0, 64, 66
1, 23565, Control_c, 0, 64, 61
1, 23580, Control_c, 0, 64, 54
1, 23595, Control_c, 0, 64, 45
1, 23599, Note_on_c, 0, 67, 54
1, 23603, Note_on_c, 0, 72, 65
1, 23609, Note_on_c, 0, 63, 49
1, 23610, Control_c, 0, 64, 40
1, 23611, Note_on_c, 0, 55, 43
1, 23613, Note_on_c, 0, 51, 49
1, 23639, Control_c, 0, 64, 41
1, 23647, Note_off_c, 0, 67, 55
1, 23654, Control_c, 0, 64, 46
1, 23666, Note_off_c, 0, 51, 56
1, 23669, Control_c, 0, 64, 53
1, 23669, Control_c, 0, 67, 125
1, 23684, Control_c, 0, 64, 58
1, 23699, Control_c, 0, 64, 62
1, 23713, Control_c, 0, 64, 64
1, 23728, Control_c, 0, 64, 66
1, 23743, Control_c, 0, 64, 69
1, 23746, Note_off_c, 0, 72, 63
1, 23757, Control_c, 0, 64, 72
1, 23760, Note_off_c, 0, 63, 35
1, 23771, Note_off_c, 0, 55, 36
1, 23772, Control_c, 0, 64, 76
1, 23787, Control_c, 0, 64, 80
1, 23802, Control_c, 0, 64, 83
1, 23817, Control_c, 0, 64, 86
1, 23831, Control_c, 0, 64, 88
1, 23861, Control_c, 0, 64, 89
1, 23965, Control_c, 0, 64, 88
1, 23995, Control_c, 0, 64, 88
1, 24039, Control_c, 0, 64, 87
1, 24083, Control_c, 0, 64, 87
1, 24121, Control_c, 0, 64, 86
1, 24136, Control_c, 0, 64, 86
1, 24150, Control_c, 0, 64, 85
1, 24165, Control_c, 0, 64, 83
1, 24180, Control_c, 0, 64, 81
1, 24195, Control_c, 0, 64, 77
1, 24210, Control_c, 0, 64, 71
1, 24220, Note_on_c, 0, 75, 56
1, 24225, Control_c, 0, 64, 65
1, 24228, Note_on_c, 0, 67, 44
1, 24234, Note_on_c, 0, 55, 33
1, 24238, Note_on_c, 0, 43, 33
1, 24240, Control_c, 0, 64, 59
1, 24255, Control_c, 0, 64, 53
1, 24285, Control_c, 0, 64, 54
1, 24300, Control_c, 0, 64, 57
1, 24314, Control_c, 0, 64, 60
1, 24329, Control_c, 0, 64, 62
1, 24344, Control_c, 0, 64, 64
1, 24359, Control_c, 0, 64, 67
1, 24374, Control_c, 0, 64, 69
1, 24388, Control_c, 0, 64, 73
1, 24403, Control_c, 0, 64, 77
1, 24418, Control_c, 0, 64, 80
1, 24428, Note_off_c, 0, 43, 37
1, 24433, Control_c, 0, 64, 85
1, 24436, Note_off_c, 0, 55, 31
1, 24448, Control_c, 0, 64, 89
1, 24458, Note_off_c, 0, 67, 42
1, 24462, Control_c, 0, 64, 91
1, 24465, Note_off_c, 0, 75, 59
1, 24477, Control_c, 0, 64, 92
1, 24492, Control_c, 0, 64, 93
1, 24610, Control_c, 0, 64, 92
1, 24684, Control_c, 0, 64, 92
1, 24716, Note_on_c, 0, 74, 56
1, 24722, Note_on_c, 0, 67, 46
1, 24725, Note_on_c, 0, 65, 45
1, 24726, Note_on_c, 0, 43, 44
1, 24735, Note_on_c, 0, 55, 42
1, 24753, Note_off_c, 0, 65, 57
1, 24759, Control_c, 0, 64, 91
1, 24768, Note_off_c, 0, 67, 60
1, 24773, Control_c, 0, 64, 91
1, 24773, Control_c, 0, 67, 125
1, 24777, Note_off_c, 0, 43, 55
1, 24788, Control_c, 0, 64, 90
1, 24789, Note_off_c, 0, 74, 58
1, 24798, Note_off_c, 0, 55, 39
1, 24803, Control_c, 0, 64, 88
1, 24818, Control_c, 0, 64, 87
1, 24818, Control_c, 0, 67, 124
1, 24833, Control_c, 0, 64, 86
1, 24854, Control_c, 0, 64, 84
1, 24869, Control_c, 0, 64, 81
1, 24884, Control_c, 0, 64, 78
1, 24892, Note_on_c, 0, 55, 30
1, 24896, Note_on_c, 0, 72, 55
1, 24898, Note_on_c, 0, 63, 51
1, 24899, Control_c, 0, 64, 75
1, 24900, Note_on_c, 0, 67, 38
1, 24902, Note_on_c, 0, 48, 44
1, 24914, Control_c, 0, 64, 72
1, 24928, Control_c, 0, 64, 68
1, 24943, Control_c, 0, 64, 65
1, 24958, Control_c, 0, 64, 60
1, 24972, Control_c, 0, 64, 53
1, 24987, Control_c, 0, 64, 45
1, 25003, Control_c, 0, 64, 36
1, 25018, Control_c, 0, 64, 30
1, 25033, Control_c, 0, 64, 24
1, 25048, Control_c, 0, 64, 17
1, 25063, Control_c, 0, 64, 11
1, 25077, Control_c, 0, 64, 0
1, 25270, Control_c, 0, 64, 17
1, 25284, Control_c, 0, 64, 24
1, 25299, Control_c, 0, 64, 28
1, 25299, Control_c, 0, 67, 124
1, 25314, Control_c, 0, 64, 33
1, 25328, Control_c, 0, 64, 37
1, 25343, Control_c, 0, 64, 40
1, 25358, Control_c, 0, 64, 44
1, 25373, Control_c, 0, 64, 47
1, 25388, Control_c, 0, 64, 49
1, 25402, Control_c, 0, 64, 51
1, 25417, Control_c, 0, 64, 52
1, 25432, Control_c, 0, 64, 54
1, 25447, Control_c, 0, 64, 56
1, 25462, Control_c, 0, 64, 57
1, 25477, Control_c, 0, 64, 59
1, 25492, Control_c, 0, 64, 60
1, 25507, Control_c, 0, 64, 61
1, 25521, Control_c, 0, 64, 62
1, 25536, Control_c, 0, 64, 63
1, 25551, Control_c, 0, 64, 64
1, 25566, Control_c, 0, 64, 66
1, 25581, Control_c, 0, 64, 67
1, 25602, Control_c, 0, 64, 70
1, 25617, Control_c, 0, 64, 73
1, 25632, Control_c, 0, 64, 76
1, 25647, Control_c, 0, 64, 80
1, 25662, Control_c, 0, 64, 85
1, 25677, Control_c, 0, 64, 90
1, 25692, Control_c, 0, 64, 94
1, 25707, Control_c, 0, 64, 100
1, 25721, Control_c, 0, 64, 106
1, 25736, Control_c, 0, 64, 112
1, 25742, Note_off_c, 0, 63, 32
1, 25751, Control_c, 0, 64, 119
1, 25759, Note_off_c, 0, 72, 30
1, 25766, Control_c, 0, 64, 127
1, 25792, Note_off_c, 0, 67, 37
1, 26025, Note_off_c, 0, 48, 27
1, 26058, Note_off_c, 0, 55, 30
1, 26946, Control_c, 0, 64, 123
1, 26961, Control_c, 0, 64, 121
1, 27005, Control_c, 0, 64, 119
1, 27064, Control_c, 0, 64, 118
1, 27079, Control_c, 0, 64, 117
1, 27101, Control_c, 0, 64, 115
1, 27116, Control_c, 0, 64, 113
1, 27131, Control_c, 0, 64, 112
1, 27146, Control_c, 0, 64, 111
1, 27161, Control_c, 0, 64, 109
1, 27175, Control_c, 0, 64, 107
1, 27181, Note_on_c, 0, 74, 42
1, 27190, Control_c, 0, 64, 105
1, 27205, Control_c, 0, 64, 103
1, 27220, Control_c, 0, 64, 101
1, 27235, Control_c, 0, 64, 99
1, 27249, Control_c, 0, 64, 96
1, 27264, Control_c, 0, 64, 93
1, 27279, Control_c, 0, 64, 90
1, 27294, Control_c, 0, 64, 86
1, 27308, Control_c, 0, 64, 82
1, 27323, Control_c, 0, 64, 79
1, 27338, Control_c, 0, 64, 77
1, 27353, Control_c, 0, 64, 75
1, 27353, Control_c, 0, 67, 124
1, 27368, Control_c, 0, 64, 72
1, 27382, Control_c, 0, 64, 69
1, 27398, Control_c, 0, 64, 66
1, 27413, Control_c, 0, 64, 64
1, 27428, Control_c, 0, 64, 62
1, 27443, Control_c, 0, 64, 62
1, 27458, Control_c, 0, 64, 61
1, 27472, Control_c, 0, 64, 58
1, 27487, Control_c, 0, 64, 55
1, 27502, Control_c, 0, 64, 53
1, 27517, Control_c, 0, 64, 52
1, 27532, Control_c, 0, 64, 51
1, 27546, Control_c, 0, 64, 50
1, 27561, Control_c, 0, 64, 48
1, 27576, Control_c, 0, 64, 45
1, 27590, Control_c, 0, 64, 41
1, 27605, Control_c, 0, 64, 39
1, 27620, Control_c, 0, 64, 38
1, 27635, Control_c, 0, 64, 37
1, 27650, Control_c, 0, 64, 35
1, 27665, Control_c, 0, 64, 32
1, 27665, Note_on_c, 0, 75, 46
1, 27680, Control_c, 0, 64, 30
1, 27695, Control_c, 0, 64, 30
1, 27710, Control_c, 0, 64, 29
1, 27724, Control_c, 0, 64, 28
1, 27754, Control_c, 0, 64, 28
1, 27769, Control_c, 0, 64, 27
1, 27775, Note_off_c, 0, 74, 36
1, 27784, Control_c, 0, 64, 27
1, 27813, Control_c, 0, 64, 26
1, 27832, Note_on_c, 0, 77, 53
1, 27880, Note_off_c, 0, 75, 38
1, 27982, Control_c, 0, 64, 29
1, 27996, Control_c, 0, 64, 32
1, 28011, Control_c, 0, 64, 36
1, 28026, Control_c, 0, 64, 41
1, 28041, Control_c, 0, 64, 46
1, 28056, Control_c, 0, 64, 51
1, 28070, Control_c, 0, 64, 54
1, 28085, Control_c, 0, 64, 57
1, 28100, Control_c, 0, 64, 59
1, 28115, Control_c, 0, 64, 61
1, 28130, Control_c, 0, 64, 63
1, 28145, Control_c, 0, 64, 64
1, 28160, Control_c, 0, 64, 66
1, 28175, Control_c, 0, 64, 69
1, 28190, Control_c, 0, 64, 72
1, 28205, Control_c, 0, 64, 76
1, 28219, Control_c, 0, 64, 80
1, 28234, Control_c, 0, 64, 83
1, 28246, Note_off_c, 0, 77, 56
1, 28249, Control_c, 0, 64, 86
1, 28264, Control_c, 0, 64, 89
1, 28279, Control_c, 0, 64, 89
1, 28367, Note_on_c, 0, 77, 65
1, 28368, Control_c, 0, 64, 89
1, 28383, Control_c, 0, 64, 88
1, 28398, Control_c, 0, 64, 88
1, 28412, Control_c, 0, 64, 87
1, 28427, Control_c, 0, 64, 85
1, 28442, Control_c, 0, 64, 83
1, 28457, Control_c, 0, 64, 78
1, 28472, Control_c, 0, 64, 72
1, 28486, Control_c, 0, 64, 66
1, 28501, Control_c, 0, 64, 62
1, 28531, Control_c, 0, 64, 63
1, 28545, Control_c, 0, 64, 63
1, 28560, Control_c, 0, 64, 65
1, 28575, Control_c, 0, 64, 67
1, 28598, Control_c, 0, 64, 70
1, 28613, Control_c, 0, 64, 73
1, 28627, Control_c, 0, 64, 77
1, 28642, Control_c, 0, 64, 80
1, 28642, Control_c, 0, 67, 124
1, 28657, Control_c, 0, 64, 82
1, 28657, Control_c, 0, 67, 123
1, 28672, Control_c, 0, 64, 84
1, 28687, Control_c, 0, 64, 86
1, 28701, Control_c, 0, 64, 86
1, 28702, Note_off_c, 0, 77, 57
1, 28731, Control_c, 0, 67, 122
1, 28805, Control_c, 0, 64, 86
1, 28834, Control_c, 0, 64, 85
1, 28876, Note_on_c, 0, 77, 69
1, 28879, Control_c, 0, 64, 85
1, 28908, Control_c, 0, 64, 84
1, 28923, Control_c, 0, 64, 82
1, 28938, Control_c, 0, 64, 78
1, 28953, Control_c, 0, 64, 72
1, 28968, Control_c, 0, 64, 66
1, 28983, Control_c, 0, 64, 62
1, 28998, Control_c, 0, 64, 60
1, 29013, Control_c, 0, 64, 61
1, 29028, Control_c, 0, 64, 62
1, 29042, Control_c, 0, 64, 63
1, 29057, Control_c, 0, 64, 65
1, 29072, Control_c, 0, 64, 68
1, 29087, Control_c, 0, 64, 71
1, 29102, Control_c, 0, 64, 76
1, 29117, Control_c, 0, 64, 79
1, 29132, Control_c, 0, 64, 83
1, 29146, Control_c, 0, 64, 86
1, 29147, Note_off_c, 0, 77, 56
1, 29161, Control_c, 0, 64, 90
1, 29176, Control_c, 0, 64, 92
1, 29280, Control_c, 0, 64, 91
1, 29295, Control_c, 0, 64, 91
1, 29310, Control_c, 0, 64, 90
1, 29324, Control_c, 0, 64, 90
1, 29346, Control_c, 0, 64, 89
1, 29361, Control_c, 0, 64, 89
1, 29376, Control_c, 0, 64, 88
1, 29391, Control_c, 0, 64, 87
1, 29406, Control_c, 0, 64, 87
1, 29421, Control_c, 0, 64, 86
1, 29430, Note_on_c, 0, 75, 64
1, 29436, Control_c, 0, 64, 85
1, 29451, Control_c, 0, 64, 84
1, 29465, Control_c, 0, 64, 83
1, 29480, Control_c, 0, 64, 81
1, 29495, Control_c, 0, 64, 78
1, 29510, Control_c, 0, 64, 76
1, 29525, Control_c, 0, 64, 71
1, 29540, Control_c, 0, 64, 66
1, 29555, Control_c, 0, 64, 62
1, 29569, Control_c, 0, 64, 58
1, 29614, Control_c, 0, 64, 58
1, 29629, Control_c, 0, 64, 59
1, 29643, Control_c, 0, 64, 61
1, 29658, Control_c, 0, 64, 63
1, 29673, Control_c, 0, 64, 65
1, 29688, Control_c, 0, 64, 66
1, 29703, Control_c, 0, 64, 68
1, 29717, Control_c, 0, 64, 71
1, 29732, Control_c, 0, 64, 74
1, 29747, Control_c, 0, 64, 76
1, 29762, Control_c, 0, 64, 79
1, 29776, Control_c, 0, 64, 80
1, 29792, Control_c, 0, 64, 80
1, 29816, Note_off_c, 0, 75, 54
1, 29822, Control_c, 0, 67, 122
1, 29881, Control_c, 0, 64, 80
1, 29886, Note_on_c, 0, 74, 59
1, 29911, Control_c, 0, 64, 79
1, 29926, Control_c, 0, 64, 79
1, 29940, Control_c, 0, 64, 78
1, 29955, Control_c, 0, 64, 78
1, 29970, Control_c, 0, 64, 77
1, 29984, Note_off_c, 0, 74, 53
1, 29985, Control_c, 0, 64, 77
1, 29999, Control_c, 0, 64, 76
1, 30014, Control_c, 0, 64, 75
1, 30029, Control_c, 0, 64, 75
1, 30044, Control_c, 0, 64, 74
1, 30059, Control_c, 0, 64, 72
1, 30074, Control_c, 0, 64, 71
1, 30096, Control_c, 0, 64, 70
1, 30101, Note_on_c, 0, 79, 62
1, 30111, Control_c, 0, 64, 69
1, 30126, Control_c, 0, 64, 69
1, 30140, Control_c, 0, 64, 68
1, 30155, Control_c, 0, 64, 67
1, 30170, Control_c, 0, 64, 65
1, 30185, Control_c, 0, 64, 64
1, 30199, Control_c, 0, 64, 63
1, 30214, Control_c, 0, 64, 61
1, 30229, Control_c, 0, 64, 59
1, 30244, Control_c, 0, 64, 57
1, 30259, Control_c, 0, 64, 55
1, 30273, Control_c, 0, 64, 52
1, 30288, Control_c, 0, 64, 49
1, 30303, Control_c, 0, 64, 47
1, 30318, Control_c, 0, 64, 46
1, 30333, Control_c, 0, 64, 45
1, 30348, Control_c, 0, 64, 44
1, 30378, Control_c, 0, 64, 44
1, 30407, Control_c, 0, 64, 43
1, 30452, Control_c, 0, 64, 43
1, 30601, Control_c, 0, 64, 42
1, 30778, Control_c, 0, 64, 42
1, 30822, Control_c, 0, 64, 41
1, 31016, Note_on_c, 0, 77, 50
1, 31163, Note_off_c, 0, 79, 23
1, 31424, Note_on_c, 0, 75, 47
1, 31453, Control_c, 0, 64, 42
1, 31498, Control_c, 0, 64, 42
1, 31511, Note_off_c, 0, 77, 31
1, 31512, Control_c, 0, 64, 43
1, 31527, Control_c, 0, 64, 43
1, 31542, Control_c, 0, 64, 44
1, 31557, Control_c, 0, 64, 45
1, 31571, Control_c, 0, 64, 45
1, 31594, Control_c, 0, 64, 47
1, 31609, Control_c, 0, 64, 48
1, 31624, Control_c, 0, 64, 50
1, 31638, Control_c, 0, 64, 52
1, 31653, Control_c, 0, 64, 54
1, 31668, Control_c, 0, 64, 56
1, 31682, Control_c, 0, 64, 58
1, 31697, Control_c, 0, 64, 60
1, 31712, Control_c, 0, 64, 62
1, 31726, Control_c, 0, 64, 63
1, 31741, Control_c, 0, 64, 64
1, 31756, Control_c, 0, 64, 65
1, 31770, Control_c, 0, 64, 67
1, 31785, Control_c, 0, 64, 69
1, 31800, Control_c, 0, 64, 72
1, 31815, Control_c, 0, 64, 74
1, 31821, Note_off_c, 0, 75, 55
1, 31830, Control_c, 0, 64, 76
1, 31844, Control_c, 0, 64, 78
1, 31859, Control_c, 0, 64, 80
1, 31874, Control_c, 0, 64, 82
1, 31889, Control_c, 0, 64, 83
1, 31978, Control_c, 0, 64, 82
1, 31993, Control_c, 0, 64, 82
1, 32008, Control_c, 0, 64, 81
1, 32023, Control_c, 0, 64, 81
1, 32037, Control_c, 0, 64, 80
1, 32052, Control_c, 0, 64, 79
1, 32059, Note_on_c, 0, 74, 53
1, 32067, Control_c, 0, 64, 78
1, 32082, Control_c, 0, 64, 76
1, 32097, Control_c, 0, 64, 74
1, 32112, Control_c, 0, 64, 71
1, 32126, Control_c, 0, 64, 70
1, 32141, Control_c, 0, 64, 69
1, 32156, Control_c, 0, 64, 69
1, 32170, Control_c, 0, 64, 68
1, 32186, Control_c, 0, 64, 67
1, 32201, Control_c, 0, 64, 66
1, 32216, Control_c, 0, 64, 65
1, 32231, Control_c, 0, 64, 65
1, 32246, Control_c, 0, 64, 64
1, 32260, Control_c, 0, 64, 64
1, 32275, Control_c, 0, 64, 63
1, 32290, Control_c, 0, 64, 63
1, 32305, Control_c, 0, 64, 62
1, 32320, Control_c, 0, 64, 61
1, 32342, Control_c, 0, 64, 61
1, 32357, Control_c, 0, 64, 60
1, 32372, Control_c, 0, 64, 60
1, 32386, Control_c, 0, 64, 59
1, 32401, Control_c, 0, 64, 58
1, 32416, Control_c, 0, 64, 58
1, 32431, Control_c, 0, 64, 57
1, 32446, Control_c, 0, 64, 56
1, 32460, Control_c, 0, 64, 56
1, 32475, Control_c, 0, 64, 55
1, 32481, Note_on_c, 0, 72, 56
1, 32485, Note_off_c, 0, 74, 54
1, 32490, Control_c, 0, 64, 54
1, 32505, Control_c, 0, 64, 54
1, 32520, Control_c, 0, 64, 53
1, 32535, Control_c, 0, 64, 53
1, 32549, Control_c, 0, 64, 52
1, 32579, Control_c, 0, 64, 51
1, 32608, Control_c, 0, 64, 51
1, 32639, Note_on_c, 0, 71, 54
1, 32667, Note_off_c, 0, 72, 38
1, 32697, Control_c, 0, 64, 50
1, 33236, Note_on_c, 0, 69, 48
1, 33300, Note_off_c, 0, 71, 34
1, 33648, Note_on_c, 0, 71, 59
1, 33650, Note_off_c, 0, 69, 57
1, 33799, Note_on_c, 0, 72, 60
1, 33801, Note_off_c, 0, 71, 58
1, 34107, Control_c, 0, 67, 122
1, 34255, Control_c, 0, 67, 123
1, 34414, Note_on_c, 0, 77, 46
1, 34504, Note_off_c, 0, 72, 36
1, 34986, Note_on_c, 0, 75, 43
1, 35107, Note_off_c, 0, 77, 26
1, 35167, Note_on_c, 0, 74, 45
1, 35174, Note_off_c, 0, 75, 47
1, 35367, Control_c, 0, 64, 51
1, 35397, Control_c, 0, 64, 51
1, 35412, Control_c, 0, 64, 52
1, 35426, Control_c, 0, 64, 52
1, 35441, Control_c, 0, 64, 53
1, 35456, Control_c, 0, 64, 54
1, 35471, Control_c, 0, 64, 55
1, 35485, Control_c, 0, 64, 56
1, 35500, Control_c, 0, 64, 56
1, 35515, Control_c, 0, 64, 57
1, 35530, Control_c, 0, 64, 58
1, 35545, Control_c, 0, 64, 59
1, 35559, Control_c, 0, 64, 60
1, 35574, Control_c, 0, 64, 60
1, 35589, Control_c, 0, 64, 61
1, 35604, Control_c, 0, 64, 62
1, 35618, Control_c, 0, 64, 63
1, 35633, Control_c, 0, 64, 64
1, 35648, Control_c, 0, 64, 64
1, 35663, Control_c, 0, 64, 65
1, 35678, Control_c, 0, 64, 66
1, 35693, Control_c, 0, 64, 67
1, 35707, Control_c, 0, 64, 69
1, 35722, Control_c, 0, 64, 72
1, 35737, Control_c, 0, 64, 74
1, 35752, Control_c, 0, 64, 77
1, 35767, Control_c, 0, 64, 81
1, 35782, Control_c, 0, 64, 86
1, 35797, Control_c, 0, 64, 91
1, 35797, Control_c, 0, 67, 124
1, 35811, Control_c, 0, 64, 99
1, 35826, Control_c, 0, 64, 107
1, 35841, Control_c, 0, 64, 119
1, 35856, Control_c, 0, 64, 127
1, 35871, Control_c, 0, 67, 124
1, 35880, Note_off_c, 0, 74, 35
1, 35930, Control_c, 0, 67, 125
1, 36115, Control_c, 0, 67, 125
1, 36220, Control_c, 0, 67, 126
1, 36368, Control_c, 0, 64, 119
1, 36382, Control_c, 0, 64, 116
1, 36397, Control_c, 0, 64, 114
1, 36412, Control_c, 0, 64, 112
1, 36427, Control_c, 0, 64, 111
1, 36441, Control_c, 0, 64, 110
1, 36456, Control_c, 0, 64, 109
1, 36471, Control_c, 0, 64, 108
1, 36486, Control_c, 0, 64, 107
1, 36501, Control_c, 0, 64, 106
1, 36515, Control_c, 0, 64, 106
1, 36530, Control_c, 0, 64, 105
1, 36545, Control_c, 0, 64, 104
1, 36560, Control_c, 0, 64, 104
1, 36575, Control_c, 0, 64, 103
1, 36590, Control_c, 0, 64, 103
1, 36605, Control_c, 0, 64, 102
1, 36620, Control_c, 0, 64, 101
1, 36634, Control_c, 0, 64, 100
1, 36649, Control_c, 0, 64, 100
1, 36664, Control_c, 0, 64, 99
1, 36694, Control_c, 0, 64, 99
1, 36723, Control_c, 0, 64, 98
1, 36738, Control_c, 0, 64, 97
1, 36752, Control_c, 0, 64, 97
1, 36767, Control_c, 0, 64, 96
1, 36782, Control_c, 0, 64, 96
1, 36797, Control_c, 0, 64, 95
1, 36864, Control_c, 0, 64, 95
1, 36879, Control_c, 0, 64, 94
1, 36908, Control_c, 0, 64, 93
1, 36924, Control_c, 0, 64, 92
1, 36939, Control_c, 0, 64, 92
1, 36953, Control_c, 0, 64, 90
1, 36968, Control_c, 0, 64, 87
1, 36984, Note_on_c, 0, 58, 44
1, 36984, Control_c, 0, 64, 84
1, 36990, Note_on_c, 0, 74, 49
1, 36995, Note_on_c, 0, 65, 40
1, 36996, Note_on_c, 0, 70, 41
1, 36999, Control_c, 0, 64, 82
1, 37013, Control_c, 0, 64, 80
1, 37028, Control_c, 0, 64, 79
1, 37028, Control_c, 0, 67, 127
1, 37043, Control_c, 0, 64, 77
1, 37054, Note_off_c, 0, 58, 45
1, 37058, Control_c, 0, 64, 76
1, 37073, Control_c, 0, 64, 75
1, 37084, Note_off_c, 0, 65, 53
1, 37087, Note_off_c, 0, 70, 56
1, 37088, Control_c, 0, 64, 73
1, 37092, Note_off_c, 0, 74, 62
1, 37102, Control_c, 0, 64, 72
1, 37117, Control_c, 0, 64, 71
1, 37132, Control_c, 0, 64, 70
1, 37147, Control_c, 0, 64, 69
1, 37162, Control_c, 0, 64, 69
1, 37177, Control_c, 0, 64, 68
1, 37192, Control_c, 0, 64, 67
1, 37206, Control_c, 0, 64, 66
1, 37221, Control_c, 0, 64, 65
1, 37236, Control_c, 0, 64, 65
1, 37251, Control_c, 0, 64, 64
1, 37265, Control_c, 0, 64, 63
1, 37280, Control_c, 0, 64, 62
1, 37295, Control_c, 0, 64, 60
1, 37310, Control_c, 0, 64, 60
1, 37325, Control_c, 0, 64, 59
1, 37339, Control_c, 0, 64, 58
1, 37354, Control_c, 0, 64, 57
1, 37369, Control_c, 0, 64, 55
1, 37383, Control_c, 0, 64, 54
1, 37395, Note_on_c, 0, 75, 59
1, 37398, Control_c, 0, 64, 54
1, 37403, Note_on_c, 0, 70, 50
1, 37413, Control_c, 0, 64, 53
1, 37415, Note_on_c, 0, 67, 36
1, 37421, Note_on_c, 0, 58, 43
1, 37428, Control_c, 0, 64, 52
1, 37439, Note_off_c, 0, 70, 65
1, 37442, Note_off_c, 0, 67, 54
1, 37443, Control_c, 0, 64, 50
1, 37457, Note_off_c, 0, 58, 61
1, 37457, Control_c, 0, 64, 48
1, 37472, Control_c, 0, 64, 47
1, 37474, Note_off_c, 0, 75, 59
1, 37487, Control_c, 0, 64, 47
1, 37502, Control_c, 0, 64, 46
1, 37517, Control_c, 0, 64, 45
1, 37535, Note_on_c, 0, 77, 65
1, 37547, Note_on_c, 0, 70, 42
1, 37562, Note_on_c, 0, 68, 44
1, 37564, Note_on_c, 0, 58, 37
1, 37598, Control_c, 0, 64, 46
1, 37613, Control_c, 0, 64, 49
1, 37615, Note_off_c, 0, 70, 47
1, 37628, Control_c, 0, 64, 52
1, 37643, Control_c, 0, 64, 55
1, 37657, Control_c, 0, 64, 57
1, 37672, Control_c, 0, 64, 61
1, 37687, Control_c, 0, 64, 63
1, 37688, Note_off_c, 0, 77, 57
1, 37689, Note_off_c, 0, 58, 42
1, 37693, Note_off_c, 0, 68, 36
1, 37702, Control_c, 0, 64, 65
1, 37717, Control_c, 0, 64, 66
1, 37731, Control_c, 0, 64, 68
1, 37746, Control_c, 0, 64, 69
1, 37761, Control_c, 0, 64, 70
1, 37807, Control_c, 0, 64, 70
1, 37836, Control_c, 0, 64, 69
1, 37851, Control_c, 0, 64, 69
1, 37866, Control_c, 0, 64, 68
1, 37880, Control_c, 0, 64, 67
1, 37895, Control_c, 0, 64, 66
1, 37910, Control_c, 0, 64, 65
1, 37925, Control_c, 0, 64, 64
1, 37940, Control_c, 0, 64, 64
1, 37955, Control_c, 0, 64, 62
1, 37970, Control_c, 0, 64, 61
1, 37985, Control_c, 0, 64, 60
1, 37999, Control_c, 0, 64, 58
1, 38014, Control_c, 0, 64, 55
1, 38029, Control_c, 0, 64, 52
1, 38036, Note_on_c, 0, 77, 56
1, 38044, Control_c, 0, 64, 48
1, 38047, Note_on_c, 0, 70, 46
1, 38054, Note_on_c, 0, 68, 37
1, 38059, Control_c, 0, 64, 47
1, 38065, Note_on_c, 0, 58, 38
1, 38118, Control_c, 0, 64, 48
1, 38133, Control_c, 0, 64, 52
1, 38148, Control_c, 0, 64, 56
1, 38162, Control_c, 0, 64, 59
1, 38177, Control_c, 0, 64, 62
1, 38185, Note_off_c, 0, 77, 60
1, 38191, Note_off_c, 0, 68, 48
1, 38192, Note_off_c, 0, 70, 36
1, 38192, Control_c, 0, 64, 63
1, 38206, Control_c, 0, 64, 65
1, 38208, Note_off_c, 0, 58, 47
1, 38221, Control_c, 0, 64, 67
1, 38236, Control_c, 0, 64, 68
1, 38251, Control_c, 0, 64, 70
1, 38266, Control_c, 0, 64, 71
1, 38280, Control_c, 0, 64, 72
1, 38406, Control_c, 0, 64, 71
1, 38421, Control_c, 0, 64, 71
1, 38436, Control_c, 0, 64, 70
1, 38466, Control_c, 0, 64, 69
1, 38480, Control_c, 0, 64, 68
1, 38495, Control_c, 0, 64, 67
1, 38510, Control_c, 0, 64, 65
1, 38525, Control_c, 0, 64, 64
1, 38540, Control_c, 0, 64, 62
1, 38554, Control_c, 0, 64, 58
1, 38567, Note_on_c, 0, 77, 60
1, 38569, Control_c, 0, 64, 54
1, 38576, Note_on_c, 0, 70, 42
1, 38578, Note_on_c, 0, 68, 41
1, 38584, Note_on_c, 0, 58, 32
1, 38585, Control_c, 0, 64, 50
1, 38600, Control_c, 0, 64, 48
1, 38644, Control_c, 0, 64, 49
1, 38659, Control_c, 0, 64, 52
1, 38674, Control_c, 0, 64, 56
1, 38689, Control_c, 0, 64, 59
1, 38703, Control_c, 0, 64, 62
1, 38718, Control_c, 0, 64, 64
1, 38731, Note_off_c, 0, 68, 54
1, 38733, Control_c, 0, 64, 66
1, 38735, Note_off_c, 0, 58, 50
1, 38737, Note_off_c, 0, 77, 63
1, 38748, Control_c, 0, 64, 68
1, 38753, Note_off_c, 0, 70, 47
1, 38763, Control_c, 0, 64, 70
1, 38778, Control_c, 0, 64, 72
1, 38793, Control_c, 0, 64, 74
1, 38808, Control_c, 0, 64, 74
1, 38926, Control_c, 0, 64, 74
1, 38956, Control_c, 0, 64, 73
1, 38985, Control_c, 0, 64, 73
1, 39015, Control_c, 0, 64, 72
1, 39029, Control_c, 0, 64, 71
1, 39044, Control_c, 0, 64, 70
1, 39059, Control_c, 0, 64, 69
1, 39082, Control_c, 0, 64, 66
1, 39097, Control_c, 0, 64, 63
1, 39111, Control_c, 0, 64, 59
1, 39112, Note_on_c, 0, 75, 58
1, 39116, Note_on_c, 0, 70, 52
1, 39123, Note_on_c, 0, 67, 45
1, 39126, Control_c, 0, 64, 54
1, 39129, Note_on_c, 0, 58, 34
1, 39141, Control_c, 0, 64, 50
1, 39156, Control_c, 0, 64, 50
1, 39169, Control_c, 0, 64, 51
1, 39183, Control_c, 0, 64, 54
1, 39198, Control_c, 0, 64, 58
1, 39213, Control_c, 0, 64, 61
1, 39228, Control_c, 0, 64, 63
1, 39243, Control_c, 0, 64, 65
1, 39245, Note_off_c, 0, 70, 64
1, 39248, Note_off_c, 0, 67, 54
1, 39252, Note_off_c, 0, 58, 62
1, 39258, Control_c, 0, 64, 67
1, 39260, Note_off_c, 0, 75, 63
1, 39273, Control_c, 0, 64, 69
1, 39287, Control_c, 0, 64, 71
1, 39302, Control_c, 0, 64, 72
1, 39317, Control_c, 0, 64, 73
1, 39377, Control_c, 0, 64, 72
1, 39377, Control_c, 0, 67, 126
1, 39422, Control_c, 0, 67, 125
1, 39437, Control_c, 0, 64, 72
1, 39466, Control_c, 0, 64, 71
1, 39508, Note_on_c, 0, 74, 63
1, 39518, Note_on_c, 0, 58, 47
1, 39518, Note_on_c, 0, 70, 53
1, 39519, Note_on_c, 0, 65, 43
1, 39544, Note_off_c, 0, 58, 60
1, 39553, Note_off_c, 0, 65, 48
1, 39553, Note_off_c, 0, 70, 63
1, 39559, Note_off_c, 0, 74, 60
1, 39585, Control_c, 0, 64, 71
1, 39599, Control_c, 0, 64, 70
1, 39614, Control_c, 0, 64, 68
1, 39629, Control_c, 0, 64, 65
1, 39634, Note_on_c, 0, 58, 51
1, 39634, Note_on_c, 0, 79, 76
1, 39640, Note_on_c, 0, 70, 65
1, 39644, Control_c, 0, 64, 61
1, 39658, Control_c, 0, 64, 55
1, 39673, Control_c, 0, 64, 51
1, 39688, Control_c, 0, 64, 47
1, 39703, Control_c, 0, 64, 45
1, 39747, Control_c, 0, 64, 46
1, 39762, Control_c, 0, 64, 50
1, 39777, Control_c, 0, 64, 54
1, 39791, Control_c, 0, 64, 57
1, 39806, Control_c, 0, 64, 60
1, 39829, Control_c, 0, 64, 62
1, 39844, Control_c, 0, 64, 64
1, 39844, Control_c, 0, 67, 125
1, 39858, Control_c, 0, 64, 65
1, 39873, Control_c, 0, 64, 67
1, 39888, Control_c, 0, 64, 70
1, 39888, Control_c, 0, 67, 124
1, 39903, Control_c, 0, 64, 73
1, 39918, Control_c, 0, 64, 76
1, 39932, Control_c, 0, 64, 78
1, 39934, Note_off_c, 0, 58, 34
1, 39947, Control_c, 0, 64, 80
1, 40066, Control_c, 0, 64, 80
1, 40110, Control_c, 0, 64, 79
1, 40125, Control_c, 0, 64, 79
1, 40140, Control_c, 0, 64, 78
1, 40155, Control_c, 0, 64, 77
1, 40170, Control_c, 0, 64, 75
1, 40185, Control_c, 0, 64, 71
1, 40200, Control_c, 0, 64, 66
1, 40215, Control_c, 0, 64, 60
1, 40224, Note_on_c, 0, 60, 69
1, 40229, Control_c, 0, 64, 55
1, 40244, Control_c, 0, 64, 54
1, 40259, Control_c, 0, 64, 55
1, 40274, Control_c, 0, 64, 57
1, 40289, Control_c, 0, 64, 60
1, 40304, Control_c, 0, 64, 63
1, 40319, Control_c, 0, 64, 65
1, 40334, Control_c, 0, 64, 67
1, 40334, Control_c, 0, 67, 124
1, 40336, Note_off_c, 0, 79, 58
1, 40348, Control_c, 0, 64, 69
1, 40353, Note_off_c, 0, 60, 60
1, 40363, Control_c, 0, 64, 72
1, 40378, Control_c, 0, 64, 74
1, 40378, Control_c, 0, 67, 123
1, 40393, Control_c, 0, 64, 76
1, 40408, Control_c, 0, 64, 78
1, 40422, Control_c, 0, 64, 79
1, 40422, Control_c, 0, 67, 122
1, 40437, Control_c, 0, 64, 79
1, 40489, Note_off_c, 0, 70, 32
1, 40593, Control_c, 0, 64, 79
1, 40626, Note_on_c, 0, 77, 73
1, 40633, Note_on_c, 0, 62, 56
1, 40635, Note_on_c, 0, 68, 62
1, 40636, Note_on_c, 0, 70, 52
1, 40668, Control_c, 0, 64, 78
1, 40674, Note_off_c, 0, 70, 65
1, 40676, Note_off_c, 0, 68, 61
1, 40682, Control_c, 0, 64, 77
1, 40683, Note_off_c, 0, 62, 57
1, 40691, Note_off_c, 0, 77, 61
1, 40697, Control_c, 0, 64, 75
1, 40712, Control_c, 0, 64, 71
1, 40727, Control_c, 0, 64, 66
1, 40742, Control_c, 0, 64, 59
1, 40750, Note_on_c, 0, 75, 73
1, 40756, Note_on_c, 0, 70, 62
1, 40756, Control_c, 0, 64, 52
1, 40758, Note_on_c, 0, 63, 54
1, 40765, Note_on_c, 0, 67, 56
1, 40771, Control_c, 0, 64, 46
1, 40786, Control_c, 0, 64, 44
1, 40800, Control_c, 0, 64, 43
1, 40815, Control_c, 0, 64, 45
1, 40830, Control_c, 0, 64, 51
1, 40845, Control_c, 0, 64, 58
1, 40860, Control_c, 0, 64, 62
1, 40874, Control_c, 0, 64, 64
1, 40881, Note_off_c, 0, 67, 52
1, 40889, Control_c, 0, 64, 66
1, 40897, Note_off_c, 0, 63, 58
1, 40904, Control_c, 0, 64, 69
1, 40919, Control_c, 0, 64, 72
1, 40920, Note_off_c, 0, 70, 60
1, 40923, Note_off_c, 0, 75, 59
1, 40934, Control_c, 0, 64, 76
1, 40948, Control_c, 0, 64, 80
1, 40963, Control_c, 0, 64, 82
1, 40979, Control_c, 0, 64, 84
1, 41097, Control_c, 0, 64, 83
1, 41112, Control_c, 0, 64, 83
1, 41127, Control_c, 0, 64, 82
1, 41142, Control_c, 0, 64, 82
1, 41157, Control_c, 0, 64, 81
1, 41186, Control_c, 0, 64, 81
1, 41216, Control_c, 0, 64, 80
1, 41246, Control_c, 0, 64, 80
1, 41261, Control_c, 0, 64, 79
1, 41276, Control_c, 0, 64, 77
1, 41291, Control_c, 0, 64, 73
1, 41305, Control_c, 0, 64, 68
1, 41327, Control_c, 0, 64, 62
1, 41342, Control_c, 0, 64, 56
1, 41357, Control_c, 0, 64, 52
1, 41368, Note_on_c, 0, 74, 64
1, 41371, Control_c, 0, 64, 51
1, 41373, Note_on_c, 0, 68, 51
1, 41379, Note_on_c, 0, 53, 43
1, 41380, Note_on_c, 0, 65, 46
1, 41401, Control_c, 0, 64, 53
1, 41416, Control_c, 0, 64, 57
1, 41431, Control_c, 0, 64, 60
1, 41446, Control_c, 0, 64, 63
1, 41461, Control_c, 0, 64, 65
1, 41475, Control_c, 0, 64, 67
1, 41489, Note_off_c, 0, 74, 62
1, 41490, Control_c, 0, 64, 71
1, 41505, Control_c, 0, 64, 74
1, 41513, Note_off_c, 0, 53, 52
1, 41520, Control_c, 0, 64, 78
1, 41522, Note_off_c, 0, 65, 49
1, 41523, Note_off_c, 0, 68, 61
1, 41535, Control_c, 0, 64, 80
1, 41550, Control_c, 0, 64, 83
1, 41565, Control_c, 0, 64, 86
1, 41579, Control_c, 0, 64, 88
1, 41594, Control_c, 0, 64, 89
1, 41653, Control_c, 0, 64, 88
1, 41697, Control_c, 0, 64, 88
1, 41712, Control_c, 0, 64, 87
1, 41727, Control_c, 0, 64, 87
1, 41742, Control_c, 0, 64, 86
1, 41757, Control_c, 0, 64, 85
1, 41768, Note_on_c, 0, 68, 60
1, 41768, Note_on_c, 0, 72, 62
1, 41773, Control_c, 0, 64, 85
1, 41780, Note_on_c, 0, 53, 46
1, 41782, Note_on_c, 0, 63, 47
1, 41788, Control_c, 0, 64, 84
1, 41801, Note_off_c, 0, 68, 64
1, 41802, Control_c, 0, 64, 84
1, 41817, Control_c, 0, 64, 82
1, 41820, Note_off_c, 0, 63, 62
1, 41826, Note_off_c, 0, 53, 60
1, 41832, Control_c, 0, 64, 80
1, 41837, Note_off_c, 0, 72, 57
1, 41846, Control_c, 0, 64, 76
1, 41861, Control_c, 0, 64, 71
1, 41876, Control_c, 0, 64, 68
1, 41891, Note_on_c, 0, 67, 47
1, 41891, Control_c, 0, 64, 64
1, 41893, Note_on_c, 0, 71, 59
1, 41906, Control_c, 0, 64, 58
1, 41911, Note_on_c, 0, 62, 42
1, 41917, Note_on_c, 0, 55, 41
1, 41920, Control_c, 0, 64, 52
1, 41935, Control_c, 0, 64, 47
1, 41950, Control_c, 0, 64, 41
1, 41965, Control_c, 0, 64, 39
1, 41980, Control_c, 0, 64, 38
1, 42039, Control_c, 0, 64, 42
1, 42054, Control_c, 0, 64, 46
1, 42076, Control_c, 0, 64, 51
1, 42091, Control_c, 0, 64, 54
1, 42106, Control_c, 0, 64, 57
1, 42106, Control_c, 0, 67, 123
1, 42121, Control_c, 0, 64, 60
1, 42135, Control_c, 0, 64, 62
1, 42150, Control_c, 0, 64, 65
1, 42164, Control_c, 0, 64, 67
1, 42179, Control_c, 0, 64, 69
1, 42194, Control_c, 0, 64, 72
1, 42209, Control_c, 0, 64, 75
1, 42221, Note_off_c, 0, 62, 41
1, 42224, Note_off_c, 0, 67, 37
1, 42224, Control_c, 0, 64, 76
1, 42239, Control_c, 0, 64, 77
1, 42315, Note_off_c, 0, 71, 28
1, 42387, Control_c, 0, 64, 77
1, 42416, Control_c, 0, 64, 76
1, 42431, Control_c, 0, 64, 74
1, 42445, Control_c, 0, 64, 71
1, 42460, Control_c, 0, 64, 66
1, 42460, Control_c, 0, 67, 124
1, 42475, Control_c, 0, 64, 61
1, 42490, Control_c, 0, 64, 58
1, 42494, Note_on_c, 0, 67, 40
1, 42495, Note_on_c, 0, 69, 47
1, 42501, Note_on_c, 0, 60, 33
1, 42505, Control_c, 0, 64, 57
1, 42549, Control_c, 0, 64, 58
1, 42565, Control_c, 0, 64, 60
1, 42580, Control_c, 0, 64, 61
1, 42595, Control_c, 0, 64, 63
1, 42610, Control_c, 0, 64, 66
1, 42624, Control_c, 0, 64, 68
1, 42639, Control_c, 0, 64, 71
1, 42654, Control_c, 0, 64, 74
1, 42668, Note_off_c, 0, 60, 44
1, 42668, Control_c, 0, 64, 77
1, 42683, Control_c, 0, 64, 80
1, 42698, Control_c, 0, 64, 82
1, 42701, Note_off_c, 0, 69, 37
1, 42703, Note_off_c, 0, 67, 31
1, 42707, Note_off_c, 0, 55, 33
1, 42713, Control_c, 0, 64, 83
1, 42802, Control_c, 0, 64, 82
1, 42883, Control_c, 0, 64, 82
1, 42908, Note_on_c, 0, 71, 56
1, 42910, Note_on_c, 0, 67, 45
1, 42913, Control_c, 0, 64, 81
1, 42915, Note_on_c, 0, 62, 43
1, 42917, Note_on_c, 0, 53, 44
1, 42938, Note_on_c, 0, 55, 34
1, 42943, Control_c, 0, 64, 80
1, 42944, Note_off_c, 0, 62, 55
1, 42957, Control_c, 0, 64, 79
1, 42958, Note_off_c, 0, 67, 62
1, 42965, Note_off_c, 0, 53, 62
1, 42972, Control_c, 0, 64, 76
1, 42973, Note_off_c, 0, 71, 59
1, 42987, Control_c, 0, 64, 73
1, 43002, Control_c, 0, 64, 68
1, 43017, Control_c, 0, 64, 63
1, 43031, Control_c, 0, 64, 56
1, 43034, Note_off_c, 0, 55, 0
1, 43041, Note_on_c, 0, 72, 60
1, 43046, Control_c, 0, 64, 51
1, 43049, Note_on_c, 0, 51, 51
1, 43050, Note_on_c, 0, 63, 40
1, 43055, Note_on_c, 0, 55, 24
1, 43060, Note_on_c, 0, 67, 46
1, 43061, Control_c, 0, 64, 50
1, 43106, Control_c, 0, 64, 51
1, 43121, Control_c, 0, 64, 54
1, 43121, Control_c, 0, 67, 122
1, 43136, Control_c, 0, 64, 58
1, 43150, Control_c, 0, 64, 61
1, 43165, Control_c, 0, 64, 64
1, 43180, Control_c, 0, 64, 67
1, 43193, Note_off_c, 0, 72, 61
1, 43194, Control_c, 0, 64, 70
1, 43199, Note_off_c, 0, 63, 37
1, 43203, Note_off_c, 0, 67, 23
1, 43209, Control_c, 0, 64, 74
1, 43224, Control_c, 0, 64, 78
1, 43237, Note_off_c, 0, 55, 41
1, 43239, Control_c, 0, 64, 81
1, 43248, Note_off_c, 0, 51, 43
1, 43254, Control_c, 0, 64, 85
1, 43268, Control_c, 0, 64, 86
1, 43283, Control_c, 0, 64, 87
1, 43403, Control_c, 0, 64, 86
1, 43506, Control_c, 0, 64, 86
1, 43536, Control_c, 0, 64, 85
1, 43588, Control_c, 0, 64, 85
1, 43618, Control_c, 0, 64, 84
1, 43633, Control_c, 0, 64, 81
1, 43647, Control_c, 0, 64, 77
1, 43662, Control_c, 0, 64, 71
1, 43677, Control_c, 0, 64, 65
1, 43678, Note_on_c, 0, 75, 54
1, 43688, Note_on_c, 0, 67, 43
1, 43692, Control_c, 0, 64, 59
1, 43696, Note_on_c, 0, 43, 32
1, 43705, Note_on_c, 0, 55, 33
1, 43706, Control_c, 0, 64, 54
1, 43721, Control_c, 0, 64, 50
1, 43736, Control_c, 0, 64, 49
1, 43766, Control_c, 0, 64, 50
1, 43780, Control_c, 0, 64, 53
1, 43795, Control_c, 0, 64, 57
1, 43810, Control_c, 0, 64, 61
1, 43824, Control_c, 0, 64, 63
1, 43839, Control_c, 0, 64, 65
1, 43854, Control_c, 0, 64, 68
1, 43854, Control_c, 0, 67, 122
1, 43869, Control_c, 0, 64, 71
1, 43869, Control_c, 0, 67, 121
1, 43875, Note_off_c, 0, 43, 39
1, 43883, Note_off_c, 0, 55, 45
1, 43883, Note_off_c, 0, 67, 62
1, 43884, Control_c, 0, 64, 75
1, 43884, Control_c, 0, 67, 120
1, 43887, Note_off_c, 0, 75, 62
1, 43899, Control_c, 0, 64, 77
1, 43914, Control_c, 0, 64, 79
1, 43929, Control_c, 0, 64, 81
1, 43944, Control_c, 0, 64, 81
1, 43973, Control_c, 0, 64, 82
1, 44047, Control_c, 0, 67, 120
1, 44136, Control_c, 0, 64, 81
1, 44216, Note_on_c, 0, 74, 52
1, 44222, Note_on_c, 0, 43, 38
1, 44230, Note_on_c, 0, 55, 39
1, 44231, Note_on_c, 0, 67, 39
1, 44269, Note_off_c, 0, 67, 50
1, 44270, Control_c, 0, 64, 81
1, 44283, Note_off_c, 0, 43, 45
1, 44285, Control_c, 0, 67, 119
1, 44294, Poly_aftertouch_c, 0, 65, 127
1, 44298, Note_off_c, 0, 74, 56
1, 44300, Control_c, 0, 64, 80
1, 44322, Control_c, 0, 67, 119
1, 44327, Poly_aftertouch_c, 0, 65, 0
1, 44337, Control_c, 0, 64, 80
1, 44352, Control_c, 0, 64, 79
1, 44353, Note_off_c, 0, 55, 0
1, 44367, Control_c, 0, 64, 79
1, 44367, Control_c, 0, 67, 118
1, 44382, Control_c, 0, 64, 78
1, 44391, Poly_aftertouch_c, 0, 55, 127
1, 44395, Note_on_c, 0, 67, 37
1, 44396, Control_c, 0, 64, 77
1, 44405, Note_on_c, 0, 48, 45
1, 44411, Note_on_c, 0, 72, 50
1, 44412, Control_c, 0, 64, 75
1, 44413, Note_on_c, 0, 55, 10
1, 44414, Note_on_c, 0, 63, 42
1, 44427, Control_c, 0, 64, 72
1, 44441, Control_c, 0, 64, 69
1, 44456, Control_c, 0, 64, 66
1, 44456, Control_c, 0, 67, 117
1, 44471, Control_c, 0, 64, 63
1, 44486, Control_c, 0, 64, 59
1, 44501, Control_c, 0, 64, 55
1, 44501, Control_c, 0, 67, 117
1, 44516, Control_c, 0, 64, 51
1, 44530, Control_c, 0, 64, 47
1, 44545, Control_c, 0, 64, 43
1, 44545, Control_c, 0, 67, 116
1, 44560, Control_c, 0, 64, 39
1, 44575, Control_c, 0, 64, 37
1, 44575, Control_c, 0, 67, 115
1, 44590, Control_c, 0, 64, 35
1, 44590, Control_c, 0, 67, 115
1, 44604, Control_c, 0, 64, 34
1, 44604, Control_c, 0, 67, 114
1, 44619, Control_c, 0, 64, 33
1, 44619, Control_c, 0, 67, 114
1, 44648, Control_c, 0, 64, 33
1, 44648, Control_c, 0, 67, 113
1, 44663, Control_c, 0, 64, 32
1, 44663, Control_c, 0, 67, 112
1, 44693, Control_c, 0, 67, 111
1, 44708, Control_c, 0, 67, 110
1, 44722, Control_c, 0, 67, 110
1, 44737, Control_c, 0, 67, 109
1, 44752, Control_c, 0, 67, 108
1, 44767, Control_c, 0, 67, 107
1, 44782, Control_c, 0, 67, 105
1, 44796, Control_c, 0, 67, 103
1, 44811, Control_c, 0, 67, 100
1, 44826, Control_c, 0, 67, 98
1, 44841, Control_c, 0, 67, 97
1, 44856, Control_c, 0, 67, 95
1, 44871, Control_c, 0, 67, 92
1, 44886, Control_c, 0, 67, 82
1, 44901, Control_c, 0, 64, 33
1, 44901, Control_c, 0, 67, 66
1, 44915, Control_c, 0, 64, 34
1, 44915, Control_c, 0, 67, 55
1, 44930, Control_c, 0, 64, 35
1, 44930, Control_c, 0, 67, 44
1, 44945, Control_c, 0, 64, 36
1, 44945, Control_c, 0, 67, 33
1, 44960, Control_c, 0, 64, 37
1, 44960, Control_c, 0, 67, 23
1, 44975, Control_c, 0, 64, 38
1, 44975, Control_c, 0, 67, 14
1, 44990, Control_c, 0, 64, 39
1, 44990, Control_c, 0, 67, 0
1, 45005, Control_c, 0, 64, 40
1, 45020, Control_c, 0, 64, 42
1, 45035, Control_c, 0, 64, 43
1, 45050, Control_c, 0, 64, 44
1, 45071, Control_c, 0, 64, 45
1, 45086, Control_c, 0, 64, 47
1, 45101, Control_c, 0, 64, 49
1, 45116, Control_c, 0, 64, 51
1, 45131, Control_c, 0, 64, 53
1, 45145, Control_c, 0, 64, 55
1, 45160, Control_c, 0, 64, 56
1, 45175, Control_c, 0, 64, 57
1, 45190, Control_c, 0, 64, 59
1, 45205, Control_c, 0, 64, 60
1, 45219, Control_c, 0, 64, 62
1, 45234, Control_c, 0, 64, 62
1, 45249, Control_c, 0, 64, 63
1, 45264, Control_c, 0, 64, 64
1, 45279, Control_c, 0, 64, 65
1, 45294, Control_c, 0, 64, 67
1, 45309, Control_c, 0, 64, 69
1, 45324, Control_c, 0, 64, 71
1, 45338, Control_c, 0, 64, 73
1, 45353, Control_c, 0, 64, 75
1, 45368, Control_c, 0, 64, 77
1, 45383, Control_c, 0, 64, 79
1, 45398, Control_c, 0, 64, 82
1, 45412, Control_c, 0, 64, 84
1, 45427, Note_off_c, 0, 63, 33
1, 45427, Control_c, 0, 64, 87
1, 45442, Control_c, 0, 64, 90
1, 45445, Note_off_c, 0, 67, 31
1, 45456, Note_off_c, 0, 72, 38
1, 45457, Control_c, 0, 64, 93
1, 45471, Control_c, 0, 64, 96
1, 45486, Control_c, 0, 64, 99
1, 45501, Control_c, 0, 64, 104
1, 45516, Control_c, 0, 64, 107
1, 45531, Control_c, 0, 64, 111
1, 45545, Control_c, 0, 64, 117
1, 45560, Control_c, 0, 64, 127
1, 45688, Note_off_c, 0, 55, 39
1, 45728, Note_off_c, 0, 48, 36
1, 46412, Control_c, 0, 64, 121
1, 46427, Control_c, 0, 64, 118
1, 46442, Control_c, 0, 64, 117
1, 46457, Control_c, 0, 64, 115
1, 46471, Control_c, 0, 64, 113
1, 46486, Control_c, 0, 64, 111
1, 46501, Control_c, 0, 64, 109
1, 46515, Note_on_c, 0, 71, 51
1, 46516, Control_c, 0, 64, 107
1, 46531, Control_c, 0, 64, 104
1, 46546, Control_c, 0, 64, 102
1, 46569, Control_c, 0, 64, 100
1, 46584, Control_c, 0, 64, 98
1, 46598, Control_c, 0, 64, 95
1, 46613, Control_c, 0, 64, 92
1, 46628, Control_c, 0, 64, 90
1, 46643, Control_c, 0, 64, 87
1, 46658, Control_c, 0, 64, 84
1, 46672, Control_c, 0, 64, 81
1, 46687, Control_c, 0, 64, 78
1, 46702, Control_c, 0, 64, 75
1, 46716, Control_c, 0, 64, 72
1, 46731, Control_c, 0, 64, 69
1, 46746, Control_c, 0, 64, 66
1, 46761, Control_c, 0, 64, 62
1, 46776, Control_c, 0, 64, 59
1, 46790, Control_c, 0, 64, 57
1, 46805, Control_c, 0, 64, 54
1, 46820, Control_c, 0, 64, 52
1, 46835, Control_c, 0, 64, 49
1, 46850, Control_c, 0, 64, 46
1, 46865, Control_c, 0, 64, 44
1, 46880, Control_c, 0, 64, 43
1, 46895, Control_c, 0, 64, 42
1, 46910, Control_c, 0, 64, 41
1, 46924, Control_c, 0, 64, 40
1, 46939, Control_c, 0, 64, 39
1, 46954, Control_c, 0, 64, 38
1, 46969, Control_c, 0, 64, 37
1, 46972, Note_on_c, 0, 72, 56
1, 46983, Control_c, 0, 64, 36
1, 46998, Control_c, 0, 64, 36
1, 47013, Control_c, 0, 64, 35
1, 47028, Control_c, 0, 64, 34
1, 47052, Note_off_c, 0, 71, 48
1, 47058, Control_c, 0, 64, 34
1, 47072, Control_c, 0, 64, 33
1, 47118, Note_on_c, 0, 74, 61
1, 47137, Note_off_c, 0, 72, 55
1, 47249, Control_c, 0, 64, 34
1, 47264, Control_c, 0, 64, 37
1, 47279, Control_c, 0, 64, 39
1, 47294, Control_c, 0, 64, 42
1, 47316, Control_c, 0, 64, 46
1, 47331, Control_c, 0, 64, 49
1, 47346, Control_c, 0, 64, 52
1, 47361, Control_c, 0, 64, 55
1, 47377, Control_c, 0, 64, 57
1, 47392, Control_c, 0, 64, 59
1, 47407, Control_c, 0, 64, 61
1, 47421, Control_c, 0, 64, 63
1, 47436, Control_c, 0, 64, 65
1, 47451, Control_c, 0, 64, 67
1, 47466, Control_c, 0, 64, 70
1, 47476, Note_off_c, 0, 74, 55
1, 47481, Control_c, 0, 64, 74
1, 47495, Control_c, 0, 64, 78
1, 47510, Control_c, 0, 64, 83
1, 47525, Control_c, 0, 64, 87
1, 47539, Control_c, 0, 64, 93
1, 47554, Control_c, 0, 64, 97
1, 47569, Control_c, 0, 64, 99
1, 47584, Control_c, 0, 64, 99
1, 47688, Control_c, 0, 64, 99
1, 47703, Control_c, 0, 64, 97
1, 47717, Control_c, 0, 64, 97
1, 47732, Control_c, 0, 64, 95
1, 47743, Note_on_c, 0, 74, 55
1, 47747, Control_c, 0, 64, 92
1, 47756, Note_on_c, 0, 71, 41
1, 47760, Note_on_c, 0, 65, 34
1, 47760, Note_on_c, 0, 68, 42
1, 47762, Control_c, 0, 64, 88
1, 47777, Control_c, 0, 64, 83
1, 47792, Control_c, 0, 64, 75
1, 47807, Control_c, 0, 64, 67
1, 47821, Control_c, 0, 64, 60
1, 47836, Control_c, 0, 64, 56
1, 47851, Control_c, 0, 64, 57
1, 47865, Control_c, 0, 64, 58
1, 47880, Control_c, 0, 64, 59
1, 47895, Control_c, 0, 64, 60
1, 47910, Control_c, 0, 64, 63
1, 47925, Control_c, 0, 64, 65
1, 47939, Control_c, 0, 64, 67
1, 47954, Control_c, 0, 64, 70
1, 47969, Control_c, 0, 64, 75
1, 47984, Control_c, 0, 64, 78
1, 47999, Control_c, 0, 64, 82
1, 48013, Control_c, 0, 64, 87
1, 48028, Control_c, 0, 64, 92
1, 48043, Control_c, 0, 64, 96
1, 48065, Control_c, 0, 64, 100
1, 48078, Note_off_c, 0, 74, 37
1, 48080, Control_c, 0, 64, 101
1, 48089, Note_off_c, 0, 65, 38
1, 48095, Control_c, 0, 64, 102
1, 48110, Control_c, 0, 64, 102
1, 48125, Control_c, 0, 64, 103
1, 48128, Note_off_c, 0, 68, 29
1, 48147, Note_off_c, 0, 71, 38
1, 48260, Control_c, 0, 64, 102
1, 48275, Control_c, 0, 64, 102
1, 48289, Control_c, 0, 64, 101
1, 48304, Control_c, 0, 64, 99
1, 48306, Note_on_c, 0, 74, 66
1, 48315, Note_on_c, 0, 72, 54
1, 48319, Control_c, 0, 64, 97
1, 48320, Note_on_c, 0, 69, 48
1, 48331, Note_on_c, 0, 66, 45
1, 48334, Control_c, 0, 64, 93
1, 48349, Control_c, 0, 64, 88
1, 48363, Control_c, 0, 64, 79
1, 48378, Control_c, 0, 64, 69
1, 48393, Control_c, 0, 64, 63
1, 48408, Control_c, 0, 64, 58
1, 48437, Control_c, 0, 64, 59
1, 48452, Control_c, 0, 64, 60
1, 48467, Control_c, 0, 64, 63
1, 48482, Control_c, 0, 64, 65
1, 48496, Control_c, 0, 64, 69
1, 48511, Control_c, 0, 64, 74
1, 48526, Control_c, 0, 64, 80
1, 48541, Control_c, 0, 64, 86
1, 48556, Control_c, 0, 64, 91
1, 48570, Control_c, 0, 64, 97
1, 48584, Note_off_c, 0, 72, 62
1, 48585, Control_c, 0, 64, 104
1, 48600, Note_off_c, 0, 69, 43
1, 48600, Control_c, 0, 64, 110
1, 48615, Control_c, 0, 64, 113
1, 48621, Note_off_c, 0, 74, 61
1, 48630, Control_c, 0, 64, 114
1, 48632, Note_off_c, 0, 66, 33
1, 48793, Control_c, 0, 64, 113
1, 48815, Control_c, 0, 64, 113
1, 48844, Control_c, 0, 64, 112
1, 48859, Control_c, 0, 64, 110
1, 48874, Note_on_c, 0, 62, 46
1, 48874, Control_c, 0, 64, 107
1, 48876, Note_on_c, 0, 72, 66
1, 48877, Note_on_c, 0, 69, 59
1, 48887, Note_on_c, 0, 66, 43
1, 48889, Control_c, 0, 64, 103
1, 48904, Control_c, 0, 64, 96
1, 48919, Control_c, 0, 64, 86
1, 48934, Control_c, 0, 64, 74
1, 48949, Control_c, 0, 64, 64
1, 48964, Control_c, 0, 64, 58
1, 48979, Control_c, 0, 64, 57
1, 48993, Control_c, 0, 64, 58
1, 49008, Control_c, 0, 64, 60
1, 49023, Control_c, 0, 64, 62
1, 49038, Control_c, 0, 64, 66
1, 49053, Control_c, 0, 64, 70
1, 49068, Control_c, 0, 64, 76
1, 49083, Control_c, 0, 64, 83
1, 49098, Control_c, 0, 64, 90
1, 49104, Note_off_c, 0, 72, 56
1, 49112, Control_c, 0, 64, 97
1, 49121, Note_off_c, 0, 66, 36
1, 49127, Control_c, 0, 64, 104
1, 49129, Note_off_c, 0, 69, 31
1, 49142, Control_c, 0, 64, 113
1, 49157, Control_c, 0, 64, 127
1, 49179, Note_off_c, 0, 62, 35
1, 49286, Note_on_c, 0, 74, 67
1, 49351, Note_off_c, 0, 74, 55
1, 49408, Control_c, 0, 64, 119
1, 49423, Control_c, 0, 64, 113
1, 49438, Control_c, 0, 64, 110
1, 49453, Control_c, 0, 64, 107
1, 49467, Note_on_c, 0, 60, 47
1, 49467, Control_c, 0, 64, 105
1, 49476, Note_on_c, 0, 72, 65
1, 49477, Note_on_c, 0, 66, 44
1, 49482, Control_c, 0, 64, 102
1, 49491, Note_on_c, 0, 69, 55
1, 49497, Control_c, 0, 64, 99
1, 49512, Control_c, 0, 64, 94
1, 49527, Control_c, 0, 64, 89
1, 49542, Control_c, 0, 64, 83
1, 49545, Note_on_c, 0, 74, 72
1, 49560, Note_off_c, 0, 72, 61
1, 49564, Control_c, 0, 64, 77
1, 49579, Control_c, 0, 64, 73
1, 49593, Control_c, 0, 64, 67
1, 49608, Control_c, 0, 64, 62
1, 49623, Control_c, 0, 64, 56
1, 49628, Note_on_c, 0, 75, 80
1, 49635, Note_off_c, 0, 74, 64
1, 49637, Control_c, 0, 64, 51
1, 49651, Control_c, 0, 64, 48
1, 49666, Control_c, 0, 64, 46
1, 49681, Control_c, 0, 64, 43
1, 49696, Control_c, 0, 64, 40
1, 49710, Control_c, 0, 64, 38
1, 49725, Control_c, 0, 64, 36
1, 49740, Control_c, 0, 64, 35
1, 49845, Control_c, 0, 64, 37
1, 49860, Control_c, 0, 64, 39
1, 49875, Control_c, 0, 64, 43
1, 49889, Control_c, 0, 64, 47
1, 49904, Control_c, 0, 64, 50
1, 49919, Control_c, 0, 64, 53
1, 49933, Control_c, 0, 64, 55
1, 49948, Control_c, 0, 64, 57
1, 49963, Control_c, 0, 64, 59
1, 49978, Control_c, 0, 64, 61
1, 49993, Control_c, 0, 64, 62
1, 50007, Control_c, 0, 64, 63
1, 50022, Control_c, 0, 64, 64
1, 50037, Control_c, 0, 64, 65
1, 50052, Control_c, 0, 64, 67
1, 50067, Control_c, 0, 64, 69
1, 50081, Control_c, 0, 64, 71
1, 50096, Control_c, 0, 64, 74
1, 50111, Control_c, 0, 64, 77
1, 50126, Control_c, 0, 64, 80
1, 50141, Control_c, 0, 64, 83
1, 50156, Control_c, 0, 64, 85
1, 50159, Note_off_c, 0, 75, 52
1, 50171, Control_c, 0, 64, 87
1, 50186, Control_c, 0, 64, 88
1, 50201, Control_c, 0, 64, 89
1, 50215, Control_c, 0, 64, 89
1, 50367, Note_off_c, 0, 60, 32
1, 50519, Control_c, 0, 64, 89
1, 50571, Note_on_c, 0, 74, 54
1, 50579, Control_c, 0, 64, 88
1, 50588, Note_on_c, 0, 62, 37
1, 50609, Control_c, 0, 64, 88
1, 50624, Control_c, 0, 64, 87
1, 50638, Control_c, 0, 64, 86
1, 50653, Control_c, 0, 64, 86
1, 50668, Control_c, 0, 64, 85
1, 50683, Control_c, 0, 64, 85
1, 50698, Control_c, 0, 64, 84
1, 50712, Control_c, 0, 64, 83
1, 50727, Control_c, 0, 64, 83
1, 50742, Control_c, 0, 64, 82
1, 50756, Control_c, 0, 64, 81
1, 50771, Control_c, 0, 64, 81
1, 50786, Control_c, 0, 64, 80
1, 50801, Control_c, 0, 64, 79
1, 50816, Control_c, 0, 64, 79
1, 50830, Control_c, 0, 64, 78
1, 50845, Control_c, 0, 64, 77
1, 50860, Control_c, 0, 64, 76
1, 50874, Note_off_c, 0, 62, 35
1, 50875, Control_c, 0, 64, 73
1, 50889, Control_c, 0, 64, 69
1, 50897, Note_off_c, 0, 74, 55
1, 50898, Note_off_c, 0, 69, 32
1, 50904, Control_c, 0, 64, 65
1, 50905, Note_on_c, 0, 72, 49
1, 50908, Note_on_c, 0, 63, 33
1, 50919, Control_c, 0, 64, 59
1, 50934, Control_c, 0, 64, 53
1, 50949, Control_c, 0, 64, 49
1, 50964, Control_c, 0, 64, 48
1, 50993, Control_c, 0, 64, 50
1, 51008, Control_c, 0, 64, 55
1, 51023, Control_c, 0, 64, 60
1, 51038, Control_c, 0, 64, 63
1, 51060, Control_c, 0, 64, 66
1, 51062, Note_off_c, 0, 66, 39
1, 51075, Control_c, 0, 64, 70
1, 51080, Note_off_c, 0, 63, 59
1, 51089, Control_c, 0, 64, 76
1, 51097, Note_off_c, 0, 72, 60
1, 51104, Control_c, 0, 64, 82
1, 51119, Control_c, 0, 64, 87
1, 51134, Control_c, 0, 64, 92
1, 51149, Control_c, 0, 64, 95
1, 51163, Control_c, 0, 64, 95
1, 51238, Control_c, 0, 64, 95
1, 51253, Control_c, 0, 64, 94
1, 51268, Control_c, 0, 64, 94
1, 51282, Control_c, 0, 64, 93
1, 51297, Control_c, 0, 64, 92
1, 51312, Control_c, 0, 64, 92
1, 51327, Control_c, 0, 64, 91
1, 51342, Control_c, 0, 64, 91
1, 51357, Control_c, 0, 64, 90
1, 51372, Control_c, 0, 64, 90
1, 51387, Control_c, 0, 64, 89
1, 51402, Control_c, 0, 64, 89
1, 51432, Control_c, 0, 64, 88
1, 51461, Control_c, 0, 64, 88
1, 51476, Control_c, 0, 64, 86
1, 51491, Control_c, 0, 64, 84
1, 51505, Control_c, 0, 64, 80
1, 51519, Note_on_c, 0, 74, 52
1, 51520, Control_c, 0, 64, 74
1, 51527, Note_on_c, 0, 54, 41
1, 51528, Note_on_c, 0, 69, 43
1, 51531, Note_on_c, 0, 62, 35
1, 51535, Control_c, 0, 64, 68
1, 51550, Control_c, 0, 64, 62
1, 51565, Control_c, 0, 64, 58
1, 51579, Control_c, 0, 64, 56
1, 51624, Control_c, 0, 64, 56
1, 51639, Control_c, 0, 64, 58
1, 51653, Control_c, 0, 64, 60
1, 51668, Control_c, 0, 64, 63
1, 51683, Control_c, 0, 64, 64
1, 51698, Control_c, 0, 64, 67
1, 51712, Control_c, 0, 64, 70
1, 51727, Control_c, 0, 64, 74
1, 51742, Control_c, 0, 64, 77
1, 51757, Control_c, 0, 64, 81
1, 51772, Control_c, 0, 64, 84
1, 51786, Control_c, 0, 64, 86
1, 51792, Note_off_c, 0, 74, 37
1, 51809, Control_c, 0, 64, 88
1, 51824, Control_c, 0, 64, 88
1, 51843, Note_off_c, 0, 62, 30
1, 51913, Control_c, 0, 64, 88
1, 51927, Note_on_c, 0, 72, 53
1, 51938, Note_off_c, 0, 54, 41
1, 51956, Note_off_c, 0, 69, 40
1, 51958, Control_c, 0, 64, 87
1, 51980, Note_off_c, 0, 72, 56
1, 51987, Control_c, 0, 64, 87
1, 52002, Control_c, 0, 64, 85
1, 52017, Control_c, 0, 64, 80
1, 52032, Control_c, 0, 64, 73
1, 52047, Control_c, 0, 64, 66
1, 52052, Note_on_c, 0, 71, 57
1, 52061, Control_c, 0, 64, 59
1, 52068, Note_on_c, 0, 55, 37
1, 52073, Note_on_c, 0, 62, 40
1, 52076, Control_c, 0, 64, 54
1, 52083, Note_on_c, 0, 67, 34
1, 52106, Control_c, 0, 64, 55
1, 52120, Control_c, 0, 64, 57
1, 52135, Control_c, 0, 64, 60
1, 52150, Control_c, 0, 64, 63
1, 52166, Control_c, 0, 64, 65
1, 52181, Control_c, 0, 64, 68
1, 52196, Control_c, 0, 64, 72
1, 52210, Note_off_c, 0, 71, 50
1, 52210, Control_c, 0, 64, 76
1, 52225, Control_c, 0, 64, 79
1, 52228, Note_off_c, 0, 67, 26
1, 52237, Note_off_c, 0, 55, 25
1, 52239, Note_off_c, 0, 62, 33
1, 52240, Control_c, 0, 64, 83
1, 52255, Control_c, 0, 64, 86
1, 52270, Control_c, 0, 64, 89
1, 52284, Control_c, 0, 64, 92
1, 52463, Control_c, 0, 64, 91
1, 52477, Control_c, 0, 64, 91
1, 52507, Control_c, 0, 64, 90
1, 52536, Control_c, 0, 64, 90
1, 52558, Control_c, 0, 64, 89
1, 52573, Control_c, 0, 64, 88
1, 52588, Control_c, 0, 64, 86
1, 52603, Control_c, 0, 64, 82
1, 52618, Control_c, 0, 64, 76
1, 52633, Control_c, 0, 64, 68
1, 52647, Control_c, 0, 64, 62
1, 52662, Note_on_c, 0, 69, 52
1, 52662, Control_c, 0, 64, 55
1, 52667, Note_on_c, 0, 55, 35
1, 52670, Note_on_c, 0, 62, 35
1, 52673, Note_on_c, 0, 67, 43
1, 52677, Control_c, 0, 64, 54
1, 52679, Note_on_c, 0, 53, 34
1, 52691, Control_c, 0, 64, 54
1, 52706, Control_c, 0, 64, 55
1, 52721, Control_c, 0, 64, 58
1, 52735, Control_c, 0, 64, 62
1, 52743, Note_off_c, 0, 55, 55
1, 52750, Control_c, 0, 64, 64
1, 52752, Note_off_c, 0, 69, 60
1, 52755, Note_off_c, 0, 62, 59
1, 52757, Note_off_c, 0, 53, 57
1, 52761, Note_off_c, 0, 67, 56
1, 52765, Control_c, 0, 64, 67
1, 52780, Control_c, 0, 64, 70
1, 52795, Control_c, 0, 64, 74
1, 52809, Control_c, 0, 64, 78
1, 52824, Control_c, 0, 64, 82
1, 52839, Control_c, 0, 64, 86
1, 52854, Control_c, 0, 64, 89
1, 52869, Control_c, 0, 64, 91
1, 53067, Note_on_c, 0, 71, 54
1, 53075, Note_on_c, 0, 67, 49
1, 53076, Note_on_c, 0, 62, 26
1, 53077, Note_on_c, 0, 55, 28
1, 53086, Note_on_c, 0, 53, 25
1, 53113, Note_off_c, 0, 55, 52
1, 53118, Note_off_c, 0, 62, 42
1, 53118, Note_off_c, 0, 71, 57
1, 53121, Note_off_c, 0, 67, 60
1, 53122, Control_c, 0, 64, 90
1, 53122, Note_off_c, 0, 53, 49
1, 53137, Control_c, 0, 64, 87
1, 53151, Control_c, 0, 64, 80
1, 53166, Control_c, 0, 64, 71
1, 53181, Control_c, 0, 64, 62
1, 53190, Note_on_c, 0, 72, 65
1, 53196, Control_c, 0, 64, 55
1, 53205, Note_on_c, 0, 55, 51
1, 53207, Note_on_c, 0, 67, 48
1, 53208, Note_on_c, 0, 51, 50
1, 53209, Note_on_c, 0, 60, 48
1, 53211, Control_c, 0, 64, 52
1, 53240, Control_c, 0, 64, 52
1, 53255, Control_c, 0, 64, 55
1, 53270, Control_c, 0, 64, 59
1, 53285, Control_c, 0, 64, 63
1, 53307, Control_c, 0, 64, 65
1, 53322, Control_c, 0, 64, 69
1, 53336, Control_c, 0, 64, 73
1, 53351, Control_c, 0, 64, 77
1, 53355, Note_off_c, 0, 72, 62
1, 53361, Note_off_c, 0, 67, 36
1, 53366, Control_c, 0, 64, 81
1, 53377, Note_off_c, 0, 55, 38
1, 53378, Note_off_c, 0, 51, 31
1, 53381, Control_c, 0, 64, 84
1, 53387, Note_off_c, 0, 60, 33
1, 53396, Control_c, 0, 64, 88
1, 53411, Control_c, 0, 64, 92
1, 53426, Control_c, 0, 64, 94
1, 53588, Control_c, 0, 64, 94
1, 53662, Control_c, 0, 64, 93
1, 53691, Control_c, 0, 64, 92
1, 53706, Control_c, 0, 64, 92
1, 53721, Control_c, 0, 64, 90
1, 53736, Control_c, 0, 64, 87
1, 53752, Control_c, 0, 64, 81
1, 53767, Control_c, 0, 64, 72
1, 53781, Control_c, 0, 64, 63
1, 53782, Note_on_c, 0, 74, 61
1, 53793, Note_on_c, 0, 67, 49
1, 53795, Note_on_c, 0, 55, 41
1, 53796, Control_c, 0, 64, 54
1, 53799, Note_on_c, 0, 59, 40
1, 53802, Note_on_c, 0, 50, 37
1, 53811, Control_c, 0, 64, 49
1, 53826, Control_c, 0, 64, 48
1, 53855, Control_c, 0, 64, 48
1, 53870, Control_c, 0, 64, 52
1, 53885, Control_c, 0, 64, 58
1, 53900, Control_c, 0, 64, 62
1, 53915, Control_c, 0, 64, 65
1, 53930, Control_c, 0, 64, 68
1, 53936, Note_off_c, 0, 67, 55
1, 53945, Control_c, 0, 64, 72
1, 53948, Note_off_c, 0, 59, 51
1, 53949, Note_off_c, 0, 74, 63
1, 53959, Control_c, 0, 64, 76
1, 53964, Note_off_c, 0, 50, 42
1, 53974, Control_c, 0, 64, 80
1, 53980, Note_off_c, 0, 55, 41
1, 53989, Control_c, 0, 64, 83
1, 54004, Control_c, 0, 64, 86
1, 54019, Control_c, 0, 64, 88
1, 54034, Control_c, 0, 64, 88
1, 54234, Control_c, 0, 64, 88
1, 54263, Note_on_c, 0, 75, 56
1, 54272, Note_on_c, 0, 60, 43
1, 54284, Note_on_c, 0, 48, 39
1, 54286, Note_on_c, 0, 55, 40
1, 54286, Note_on_c, 0, 67, 44
1, 54307, Control_c, 0, 64, 87
1, 54315, Note_off_c, 0, 60, 58
1, 54320, Note_off_c, 0, 67, 55
1, 54333, Note_off_c, 0, 55, 54
1, 54337, Control_c, 0, 64, 87
1, 54344, Note_off_c, 0, 75, 58
1, 54346, Note_off_c, 0, 48, 48
1, 54367, Control_c, 0, 64, 86
1, 54381, Control_c, 0, 64, 86
1, 54396, Control_c, 0, 64, 85
1, 54411, Control_c, 0, 64, 84
1, 54426, Control_c, 0, 64, 82
1, 54435, Note_on_c, 0, 74, 57
1, 54437, Note_on_c, 0, 67, 50
1, 54441, Control_c, 0, 64, 77
1, 54447, Note_on_c, 0, 55, 39
1, 54455, Note_on_c, 0, 59, 44
1, 54455, Control_c, 0, 64, 72
1, 54470, Control_c, 0, 64, 66
1, 54485, Control_c, 0, 64, 61
1, 54499, Control_c, 0, 64, 54
1, 54514, Control_c, 0, 64, 50
1, 54529, Control_c, 0, 64, 46
1, 54545, Control_c, 0, 64, 43
1, 54560, Control_c, 0, 64, 40
1, 54575, Control_c, 0, 64, 38
1, 54590, Control_c, 0, 64, 38
1, 54604, Control_c, 0, 64, 37
1, 54619, Control_c, 0, 64, 37
1, 54708, Control_c, 0, 64, 37
1, 54723, Control_c, 0, 64, 38
1, 54738, Control_c, 0, 64, 40
1, 54752, Control_c, 0, 64, 42
1, 54767, Control_c, 0, 64, 44
1, 54782, Control_c, 0, 64, 46
1, 54804, Control_c, 0, 64, 49
1, 54819, Control_c, 0, 64, 51
1, 54834, Control_c, 0, 64, 53
1, 54849, Control_c, 0, 64, 55
1, 54864, Control_c, 0, 64, 56
1, 54878, Control_c, 0, 64, 58
1, 54893, Control_c, 0, 64, 59
1, 54908, Control_c, 0, 64, 60
1, 54923, Control_c, 0, 64, 62
1, 54937, Control_c, 0, 64, 63
1, 54952, Control_c, 0, 64, 64
1, 54967, Control_c, 0, 64, 65
1, 54982, Control_c, 0, 64, 67
1, 54997, Control_c, 0, 64, 69
1, 55012, Control_c, 0, 64, 71
1, 55027, Control_c, 0, 64, 74
1, 55042, Control_c, 0, 64, 77
1, 55056, Control_c, 0, 64, 80
1, 55071, Control_c, 0, 64, 83
1, 55086, Control_c, 0, 64, 87
1, 55101, Control_c, 0, 64, 92
1, 55116, Control_c, 0, 64, 97
1, 55130, Control_c, 0, 64, 102
1, 55145, Control_c, 0, 64, 107
1, 55160, Control_c, 0, 64, 111
1, 55161, Note_off_c, 0, 59, 36
1, 55175, Control_c, 0, 64, 117
1, 55190, Control_c, 0, 64, 127
1, 55203, Note_off_c, 0, 55, 40
1, 55214, Note_off_c, 0, 74, 36
1, 55218, Note_off_c, 0, 67, 37
1, 56216, Note_on_c, 0, 55, 72
1, 56219, Note_on_c, 0, 43, 68
1, 56219, Note_on_c, 0, 71, 83
1, 56222, Note_on_c, 0, 67, 70
1, 56224, Note_on_c, 0, 62, 75
1, 56265, Control_c, 0, 64, 102
1, 56280, Control_c, 0, 64, 82
1, 56302, Control_c, 0, 64, 68
1, 56317, Control_c, 0, 64, 61
1, 56332, Control_c, 0, 64, 60
1, 56347, Control_c, 0, 64, 62
1, 56362, Control_c, 0, 64, 64
1, 56376, Control_c, 0, 64, 68
1, 56391, Control_c, 0, 64, 78
1, 56406, Control_c, 0, 64, 93
1, 56421, Control_c, 0, 64, 127
1, 56431, Note_off_c, 0, 62, 60
1, 56452, Note_off_c, 0, 43, 59
1, 56456, Note_off_c, 0, 71, 60
1, 56458, Note_off_c, 0, 55, 61
1, 56458, Note_off_c, 0, 67, 59
1, 56629, Note_on_c, 0, 63, 72
1, 56629, Note_on_c, 0, 72, 78
1, 56635, Note_on_c, 0, 67, 70
1, 56639, Note_on_c, 0, 55, 78
1, 56639, Note_on_c, 0, 43, 78
1, 56664, Note_off_c, 0, 63, 61
1, 56665, Note_off_c, 0, 67, 59
1, 56668, Note_off_c, 0, 55, 65
1, 56669, Note_off_c, 0, 43, 65
1, 56693, Note_off_c, 0, 72, 61
1, 56732, Control_c, 0, 64, 85
1, 56742, Note_on_c, 0, 74, 87
1, 56745, Note_on_c, 0, 43, 71
1, 56747, Note_on_c, 0, 55, 84
1, 56747, Control_c, 0, 64, 67
1, 56747, Note_on_c, 0, 65, 78
1, 56750, Note_on_c, 0, 67, 69
1, 56762, Control_c, 0, 64, 53
1, 56776, Control_c, 0, 64, 46
1, 56791, Control_c, 0, 64, 47
1, 56806, Control_c, 0, 64, 50
1, 56821, Control_c, 0, 64, 55
1, 56836, Control_c, 0, 64, 61
1, 56850, Control_c, 0, 64, 65
1, 56865, Control_c, 0, 64, 69
1, 56880, Control_c, 0, 64, 76
1, 56895, Control_c, 0, 64, 85
1, 56909, Control_c, 0, 64, 96
1, 56924, Control_c, 0, 64, 113
1, 56939, Control_c, 0, 64, 127
1, 56943, Note_off_c, 0, 65, 36
1, 56948, Note_off_c, 0, 43, 55
1, 56956, Note_off_c, 0, 55, 57
1, 56970, Note_off_c, 0, 67, 48
1, 56976, Note_off_c, 0, 74, 60
1, 57298, Note_on_c, 0, 74, 84
1, 57299, Note_on_c, 0, 67, 74
1, 57303, Note_on_c, 0, 43, 69
1, 57303, Note_on_c, 0, 65, 74
1, 57304, Note_on_c, 0, 55, 71
1, 57318, Control_c, 0, 64, 117
1, 57332, Control_c, 0, 64, 86
1, 57347, Control_c, 0, 64, 69
1, 57362, Control_c, 0, 64, 58
1, 57377, Control_c, 0, 64, 50
1, 57392, Control_c, 0, 64, 52
1, 57406, Control_c, 0, 64, 55
1, 57421, Control_c, 0, 64, 59
1, 57436, Control_c, 0, 64, 63
1, 57451, Control_c, 0, 64, 67
1, 57466, Control_c, 0, 64, 73
1, 57480, Control_c, 0, 64, 81
1, 57495, Control_c, 0, 64, 91
1, 57510, Control_c, 0, 64, 107
1, 57517, Note_off_c, 0, 43, 50
1, 57525, Control_c, 0, 64, 127
1, 57535, Note_off_c, 0, 55, 58
1, 57540, Note_off_c, 0, 65, 44
1, 57566, Note_off_c, 0, 67, 56
1, 57573, Note_off_c, 0, 74, 61
1, 57863, Note_on_c, 0, 43, 73
1, 57866, Note_on_c, 0, 55, 76
1, 57868, Note_on_c, 0, 74, 87
1, 57871, Note_on_c, 0, 67, 74
1, 57874, Note_on_c, 0, 65, 74
1, 57903, Control_c, 0, 64, 107
1, 57918, Control_c, 0, 64, 83
1, 57933, Control_c, 0, 64, 69
1, 57948, Control_c, 0, 64, 61
1, 57963, Control_c, 0, 64, 57
1, 57978, Control_c, 0, 64, 59
1, 57993, Control_c, 0, 64, 61
1, 58008, Control_c, 0, 64, 64
1, 58022, Control_c, 0, 64, 68
1, 58037, Control_c, 0, 64, 73
1, 58052, Control_c, 0, 64, 81
1, 58067, Control_c, 0, 64, 93
1, 58078, Note_off_c, 0, 65, 55
1, 58082, Control_c, 0, 64, 117
1, 58096, Control_c, 0, 64, 127
1, 58100, Note_off_c, 0, 74, 60
1, 58128, Note_off_c, 0, 43, 59
1, 58133, Note_off_c, 0, 67, 60
1, 58133, Note_off_c, 0, 55, 58
1, 58419, Note_on_c, 0, 72, 86
1, 58420, Note_on_c, 0, 67, 72
1, 58422, Note_on_c, 0, 63, 74
1, 58431, Note_on_c, 0, 55, 80
1, 58434, Note_on_c, 0, 43, 72
1, 58452, Control_c, 0, 64, 95
1, 58467, Control_c, 0, 64, 74
1, 58482, Control_c, 0, 64, 62
1, 58496, Control_c, 0, 64, 55
1, 58511, Control_c, 0, 64, 57
1, 58526, Control_c, 0, 64, 61
1, 58549, Control_c, 0, 64, 64
1, 58564, Control_c, 0, 64, 70
1, 58578, Control_c, 0, 64, 79
1, 58593, Control_c, 0, 64, 94
1, 58607, Note_off_c, 0, 55, 59
1, 58608, Control_c, 0, 64, 116
1, 58612, Note_off_c, 0, 63, 61
1, 58616, Note_off_c, 0, 43, 53
1, 58622, Note_off_c, 0, 67, 62
1, 58623, Control_c, 0, 64, 127
1, 58636, Note_off_c, 0, 72, 61
1, 58853, Note_on_c, 0, 55, 75
1, 58855, Note_on_c, 0, 74, 79
1, 58857, Note_on_c, 0, 65, 73
1, 58858, Note_on_c, 0, 43, 63
1, 58860, Note_on_c, 0, 67, 70
1, 58889, Note_off_c, 0, 67, 66
1, 58892, Note_off_c, 0, 65, 62
1, 58895, Note_off_c, 0, 55, 56
1, 58901, Note_off_c, 0, 43, 62
1, 58905, Note_off_c, 0, 74, 64
1, 58967, Note_on_c, 0, 55, 80
1, 58968, Note_on_c, 0, 43, 75
1, 58973, Note_on_c, 0, 75, 94
1, 58978, Control_c, 0, 64, 97
1, 58979, Note_on_c, 0, 67, 82
1, 58993, Control_c, 0, 64, 70
1, 59008, Control_c, 0, 64, 55
1, 59023, Control_c, 0, 64, 35
1, 59038, Control_c, 0, 64, 31
1, 59052, Control_c, 0, 64, 30
1, 59097, Control_c, 0, 64, 36
1, 59112, Control_c, 0, 64, 47
1, 59126, Control_c, 0, 64, 53
1, 59141, Control_c, 0, 64, 57
1, 59156, Control_c, 0, 64, 61
1, 59170, Control_c, 0, 64, 64
1, 59185, Control_c, 0, 64, 68
1, 59200, Control_c, 0, 64, 72
1, 59206, Note_off_c, 0, 43, 56
1, 59215, Note_off_c, 0, 55, 53
1, 59215, Control_c, 0, 64, 79
1, 59230, Control_c, 0, 64, 86
1, 59245, Control_c, 0, 64, 95
1, 59260, Control_c, 0, 64, 107
1, 59274, Control_c, 0, 64, 127
1, 59564, Note_on_c, 0, 57, 82
1, 59564, Note_on_c, 0, 45, 78
1, 59564, Control_c, 0, 64, 99
1, 59579, Control_c, 0, 64, 76
1, 59593, Control_c, 0, 64, 64
1, 59608, Control_c, 0, 64, 57
1, 59623, Control_c, 0, 64, 59
1, 59638, Control_c, 0, 64, 62
1, 59653, Control_c, 0, 64, 65
1, 59668, Control_c, 0, 64, 69
1, 59683, Control_c, 0, 64, 77
1, 59698, Control_c, 0, 64, 87
1, 59706, Note_off_c, 0, 45, 55
1, 59713, Control_c, 0, 64, 96
1, 59728, Control_c, 0, 64, 103
1, 59732, Note_off_c, 0, 57, 57
1, 59742, Control_c, 0, 64, 113
1, 59757, Control_c, 0, 64, 127
1, 59788, Note_off_c, 0, 67, 56
1, 59813, Note_off_c, 0, 75, 55
1, 59954, Note_on_c, 0, 47, 71
1, 59956, Note_on_c, 0, 59, 77
1, 59960, Note_on_c, 0, 74, 80
1, 59964, Note_on_c, 0, 67, 64
1, 59966, Note_on_c, 0, 65, 69
1, 59987, Note_off_c, 0, 47, 62
1, 59993, Note_off_c, 0, 59, 60
1, 59994, Note_off_c, 0, 65, 66
1, 60012, Note_off_c, 0, 67, 59
1, 60020, Note_off_c, 0, 74, 63
1, 60046, Control_c, 0, 64, 110
1, 60061, Control_c, 0, 64, 81
1, 60075, Control_c, 0, 64, 63
1, 60086, Note_on_c, 0, 60, 83
1, 60087, Note_on_c, 0, 72, 81
1, 60089, Note_on_c, 0, 48, 78
1, 60090, Note_on_c, 0, 63, 76
1, 60090, Control_c, 0, 64, 28
1, 60094, Note_on_c, 0, 67, 73
1, 60105, Control_c, 0, 64, 0
1, 60150, Control_c, 0, 64, 11
1, 60164, Control_c, 0, 64, 49
1, 60179, Control_c, 0, 64, 61
1, 60194, Control_c, 0, 64, 67
1, 60205, Note_off_c, 0, 48, 58
1, 60206, Note_off_c, 0, 60, 62
1, 60209, Control_c, 0, 64, 74
1, 60223, Control_c, 0, 64, 86
1, 60238, Control_c, 0, 64, 106
1, 60253, Control_c, 0, 64, 127
1, 60266, Note_off_c, 0, 63, 35
1, 60275, Note_off_c, 0, 67, 49
1, 60294, Note_off_c, 0, 72, 60
1, 60739, Note_on_c, 0, 41, 67
1, 60739, Note_on_c, 0, 74, 86
1, 60740, Note_on_c, 0, 53, 73
1, 60741, Note_on_c, 0, 68, 82
1, 60741, Control_c, 0, 64, 98
1, 60742, Note_on_c, 0, 65, 82
1, 60756, Control_c, 0, 64, 74
1, 60771, Control_c, 0, 64, 59
1, 60794, Control_c, 0, 64, 55
1, 60809, Control_c, 0, 64, 59
1, 60823, Control_c, 0, 64, 63
1, 60838, Control_c, 0, 64, 68
1, 60853, Control_c, 0, 64, 78
1, 60868, Control_c, 0, 64, 104
1, 60883, Control_c, 0, 64, 127
1, 60898, Note_off_c, 0, 74, 61
1, 60915, Note_off_c, 0, 65, 59
1, 60924, Note_off_c, 0, 41, 55
1, 60942, Note_off_c, 0, 53, 56
1, 60950, Note_off_c, 0, 68, 59
1, 61166, Note_on_c, 0, 41, 67
1, 61168, Note_on_c, 0, 53, 72
1, 61173, Note_on_c, 0, 72, 78
1, 61176, Note_on_c, 0, 68, 72
1, 61179, Note_on_c, 0, 63, 70
1, 61209, Note_off_c, 0, 41, 64
1, 61218, Note_off_c, 0, 68, 60
1, 61219, Note_off_c, 0, 53, 61
1, 61221, Note_off_c, 0, 63, 55
1, 61237, Note_off_c, 0, 72, 61
1, 61285, Note_on_c, 0, 71, 85
1, 61286, Note_on_c, 0, 67, 76
1, 61290, Note_on_c, 0, 62, 75
1, 61290, Note_on_c, 0, 43, 78
1, 61290, Note_on_c, 0, 55, 80
1, 61298, Control_c, 0, 64, 108
1, 61313, Control_c, 0, 64, 78
1, 61328, Control_c, 0, 64, 59
1, 61343, Control_c, 0, 64, 28
1, 61358, Control_c, 0, 64, 0
1, 61432, Control_c, 0, 64, 31
1, 61446, Control_c, 0, 64, 47
1, 61461, Control_c, 0, 64, 54
1, 61476, Control_c, 0, 64, 58
1, 61491, Control_c, 0, 64, 62
1, 61506, Control_c, 0, 64, 65
1, 61520, Control_c, 0, 64, 68
1, 61521, Note_off_c, 0, 55, 52
1, 61543, Control_c, 0, 64, 72
1, 61558, Control_c, 0, 64, 77
1, 61572, Control_c, 0, 64, 83
1, 61587, Control_c, 0, 64, 89
1, 61602, Control_c, 0, 64, 93
1, 61617, Control_c, 0, 64, 100
1, 61632, Control_c, 0, 64, 108
1, 61634, Note_off_c, 0, 67, 52
1, 61644, Note_off_c, 0, 62, 56
1, 61646, Control_c, 0, 64, 118
1, 61661, Control_c, 0, 64, 127
1, 61674, Note_off_c, 0, 71, 51
1, 61763, Note_off_c, 0, 43, 32
1, 61876, Note_on_c, 0, 69, 76
1, 61878, Note_on_c, 0, 67, 72
1, 61880, Note_on_c, 0, 55, 73
1, 61881, Note_on_c, 0, 60, 70
1, 61899, Control_c, 0, 64, 100
1, 61914, Control_c, 0, 64, 80
1, 61929, Control_c, 0, 64, 66
1, 61943, Control_c, 0, 64, 58
1, 61958, Control_c, 0, 64, 56
1, 61973, Control_c, 0, 64, 58
1, 61987, Control_c, 0, 64, 61
1, 62002, Control_c, 0, 64, 64
1, 62017, Control_c, 0, 64, 68
1, 62032, Control_c, 0, 64, 75
1, 62047, Control_c, 0, 64, 85
1, 62055, Note_off_c, 0, 60, 56
1, 62062, Control_c, 0, 64, 98
1, 62076, Control_c, 0, 64, 109
1, 62091, Control_c, 0, 64, 127
1, 62097, Note_off_c, 0, 67, 55
1, 62104, Note_off_c, 0, 55, 56
1, 62109, Note_off_c, 0, 69, 55
1, 62282, Note_on_c, 0, 62, 71
1, 62284, Note_on_c, 0, 71, 79
1, 62285, Note_on_c, 0, 67, 71
1, 62302, Note_on_c, 0, 53, 66
1, 62311, Note_on_c, 0, 55, 60
1, 62327, Note_off_c, 0, 62, 64
1, 62338, Note_off_c, 0, 53, 64
1, 62353, Note_off_c, 0, 55, 59
1, 62354, Note_off_c, 0, 67, 61
1, 62377, Note_off_c, 0, 71, 60
1, 62410, Control_c, 0, 64, 85
1, 62412, Note_on_c, 0, 67, 74
1, 62412, Note_on_c, 0, 72, 87
1, 62415, Note_on_c, 0, 63, 82
1, 62420, Note_on_c, 0, 51, 73
1, 62421, Note_on_c, 0, 55, 67
1, 62425, Control_c, 0, 64, 64
1, 62440, Control_c, 0, 64, 21
1, 62455, Control_c, 0, 64, 0
1, 62499, Control_c, 0, 64, 36
1, 62511, Note_off_c, 0, 55, 62
1, 62514, Control_c, 0, 64, 57
1, 62529, Control_c, 0, 64, 64
1, 62544, Control_c, 0, 64, 71
1, 62556, Note_off_c, 0, 63, 56
1, 62559, Control_c, 0, 64, 81
1, 62560, Note_off_c, 0, 51, 63
1, 62563, Note_off_c, 0, 72, 58
1, 62574, Control_c, 0, 64, 96
1, 62589, Control_c, 0, 64, 127
1, 62589, Note_off_c, 0, 67, 60
1, 63060, Note_on_c, 0, 67, 84
1, 63061, Note_on_c, 0, 75, 94
1, 63065, Note_on_c, 0, 43, 82
1, 63067, Note_on_c, 0, 31, 76
1, 63085, Control_c, 0, 64, 111
1, 63099, Control_c, 0, 64, 75
1, 63114, Control_c, 0, 64, 60
1, 63129, Control_c, 0, 64, 43
1, 63144, Control_c, 0, 64, 42
1, 63159, Control_c, 0, 64, 47
1, 63173, Control_c, 0, 64, 54
1, 63188, Control_c, 0, 64, 63
1, 63203, Control_c, 0, 64, 68
1, 63218, Control_c, 0, 64, 77
1, 63233, Control_c, 0, 64, 95
1, 63248, Control_c, 0, 64, 127
1, 63265, Note_off_c, 0, 75, 61
1, 63276, Note_off_c, 0, 43, 57
1, 63288, Note_off_c, 0, 67, 61
1, 63293, Note_off_c, 0, 31, 37
1, 63651, Note_on_c, 0, 74, 79
1, 63656, Note_on_c, 0, 67, 72
1, 63657, Note_on_c, 0, 65, 70
1, 63660, Note_on_c, 0, 31, 61
1, 63662, Note_on_c, 0, 43, 64
1, 63708, Note_off_c, 0, 65, 58
1, 63731, Note_off_c, 0, 67, 61
1, 63735, Note_off_c, 0, 31, 57
1, 63739, Note_off_c, 0, 43, 60
1, 63745, Note_off_c, 0, 74, 63
1, 63823, Note_on_c, 0, 72, 81
1, 63825, Note_on_c, 0, 63, 75
1, 63829, Note_on_c, 0, 43, 66
1, 63829, Note_on_c, 0, 36, 68
1, 63833, Note_on_c, 0, 67, 72
1, 63848, Control_c, 0, 64, 105
1, 63863, Control_c, 0, 64, 78
1, 63878, Control_c, 0, 64, 63
1, 63893, Control_c, 0, 64, 45
1, 63908, Control_c, 0, 64, 31
1, 63922, Control_c, 0, 64, 25
1, 63937, Control_c, 0, 64, 0
1, 64205, Control_c, 0, 64, 9
1, 64220, Control_c, 0, 64, 19
1, 64235, Control_c, 0, 64, 24
1, 64250, Control_c, 0, 64, 27
1, 64264, Control_c, 0, 64, 29
1, 64279, Control_c, 0, 64, 30
1, 64294, Control_c, 0, 64, 32
1, 64309, Control_c, 0, 64, 35
1, 64324, Control_c, 0, 64, 38
1, 64338, Control_c, 0, 64, 40
1, 64353, Control_c, 0, 64, 42
1, 64368, Control_c, 0, 64, 44
1, 64382, Control_c, 0, 64, 47
1, 64397, Control_c, 0, 64, 50
1, 64412, Control_c, 0, 64, 52
1, 64427, Control_c, 0, 64, 54
1, 64442, Control_c, 0, 64, 56
1, 64456, Control_c, 0, 64, 58
1, 64471, Control_c, 0, 64, 60
1, 64486, Control_c, 0, 64, 62
1, 64501, Control_c, 0, 64, 64
1, 64516, Control_c, 0, 64, 66
1, 64538, Control_c, 0, 64, 68
1, 64553, Control_c, 0, 64, 71
1, 64568, Control_c, 0, 64, 74
1, 64583, Control_c, 0, 64, 77
1, 64597, Control_c, 0, 64, 81
1, 64612, Control_c, 0, 64, 86
1, 64627, Control_c, 0, 64, 91
1, 64642, Control_c, 0, 64, 97
1, 64657, Control_c, 0, 64, 103
1, 64671, Control_c, 0, 64, 108
1, 64686, Control_c, 0, 64, 112
1, 64701, Control_c, 0, 64, 116
1, 64716, Control_c, 0, 64, 127
1, 64736, Note_off_c, 0, 43, 31
1, 64759, Note_off_c, 0, 63, 36
1, 64775, Note_off_c, 0, 72, 48
1, 64783, Note_off_c, 0, 67, 37
1, 64797, Note_off_c, 0, 36, 31
1, 65480, Control_c, 0, 64, 121
1, 65494, Control_c, 0, 64, 119
1, 65509, Control_c, 0, 64, 118
1, 65524, Control_c, 0, 64, 116
1, 65539, Control_c, 0, 64, 115
1, 65554, Control_c, 0, 64, 113
1, 65568, Control_c, 0, 64, 113
1, 65583, Control_c, 0, 64, 111
1, 65598, Control_c, 0, 64, 110
1, 65612, Control_c, 0, 64, 108
1, 65627, Control_c, 0, 64, 107
1, 65642, Control_c, 0, 64, 107
1, 65657, Control_c, 0, 64, 106
1, 65672, Control_c, 0, 64, 106
1, 65686, Control_c, 0, 64, 104
1, 65701, Control_c, 0, 64, 102
1, 65716, Control_c, 0, 64, 101
1, 65732, Control_c, 0, 64, 100
1, 65747, Control_c, 0, 64, 99
1, 65762, Control_c, 0, 64, 98
1, 65776, Control_c, 0, 64, 97
1, 65791, Control_c, 0, 64, 96
1, 65806, Control_c, 0, 64, 95
1, 65821, Control_c, 0, 64, 94
1, 65835, Control_c, 0, 64, 93
1, 65850, Control_c, 0, 64, 92
1, 65895, Control_c, 0, 64, 92
1, 65925, Control_c, 0, 64, 91
1, 65940, Control_c, 0, 64, 90
1, 65955, Control_c, 0, 64, 88
1, 65970, Control_c, 0, 64, 88
1, 65984, Control_c, 0, 64, 87
1, 66014, Control_c, 0, 64, 86
1, 66035, Control_c, 0, 64, 85
1, 66050, Control_c, 0, 64, 84
1, 66065, Control_c, 0, 64, 83
1, 66080, Control_c, 0, 64, 82
1, 66095, Control_c, 0, 64, 82
1, 66110, Control_c, 0, 64, 81
1, 66125, Control_c, 0, 64, 80
1, 66139, Control_c, 0, 64, 78
1, 66154, Control_c, 0, 64, 77
1, 66169, Control_c, 0, 64, 75
1, 66183, Note_on_c, 0, 74, 53
1, 66184, Control_c, 0, 64, 74
1, 66199, Control_c, 0, 64, 73
1, 66214, Control_c, 0, 64, 71
1, 66229, Control_c, 0, 64, 69
1, 66243, Control_c, 0, 64, 67
1, 66258, Control_c, 0, 64, 66
1, 66273, Control_c, 0, 64, 65
1, 66288, Control_c, 0, 64, 63
1, 66303, Control_c, 0, 64, 61
1, 66317, Control_c, 0, 64, 57
1, 66332, Control_c, 0, 64, 51
1, 66347, Control_c, 0, 64, 45
1, 66362, Control_c, 0, 64, 38
1, 66377, Control_c, 0, 64, 33
1, 66391, Control_c, 0, 64, 28
1, 66406, Control_c, 0, 64, 26
1, 66421, Control_c, 0, 64, 26
1, 66435, Control_c, 0, 64, 25
1, 66465, Control_c, 0, 64, 25
1, 66622, Note_on_c, 0, 75, 52
1, 66646, Note_off_c, 0, 74, 57
1, 66771, Note_on_c, 0, 77, 52
1, 66807, Note_off_c, 0, 75, 48
1, 66858, Control_c, 0, 64, 25
1, 66873, Control_c, 0, 64, 27
1, 66888, Control_c, 0, 64, 31
1, 66903, Control_c, 0, 64, 35
1, 66918, Control_c, 0, 64, 42
1, 66932, Control_c, 0, 64, 47
1, 66947, Control_c, 0, 64, 51
1, 66962, Control_c, 0, 64, 54
1, 66977, Control_c, 0, 64, 57
1, 66992, Control_c, 0, 64, 59
1, 67007, Control_c, 0, 64, 62
1, 67022, Control_c, 0, 64, 64
1, 67037, Control_c, 0, 64, 66
1, 67052, Control_c, 0, 64, 68
1, 67066, Control_c, 0, 64, 72
1, 67081, Control_c, 0, 64, 77
1, 67092, Note_off_c, 0, 77, 50
1, 67096, Control_c, 0, 64, 84
1, 67111, Control_c, 0, 64, 91
1, 67126, Control_c, 0, 64, 98
1, 67140, Control_c, 0, 64, 108
1, 67155, Control_c, 0, 64, 127
1, 67303, Control_c, 0, 64, 117
1, 67307, Note_on_c, 0, 71, 48
1, 67310, Note_on_c, 0, 74, 48
1, 67311, Note_on_c, 0, 77, 59
1, 67314, Note_on_c, 0, 65, 39
1, 67318, Note_on_c, 0, 68, 41
1, 67318, Control_c, 0, 64, 110
1, 67334, Control_c, 0, 64, 104
1, 67349, Control_c, 0, 64, 97
1, 67363, Control_c, 0, 64, 87
1, 67378, Control_c, 0, 64, 76
1, 67393, Control_c, 0, 64, 67
1, 67408, Control_c, 0, 64, 62
1, 67423, Control_c, 0, 64, 61
1, 67437, Control_c, 0, 64, 62
1, 67452, Control_c, 0, 64, 63
1, 67467, Control_c, 0, 64, 65
1, 67481, Control_c, 0, 64, 68
1, 67496, Control_c, 0, 64, 73
1, 67511, Control_c, 0, 64, 78
1, 67534, Control_c, 0, 64, 84
1, 67549, Control_c, 0, 64, 90
1, 67558, Note_off_c, 0, 71, 42
1, 67561, Note_off_c, 0, 77, 50
1, 67563, Control_c, 0, 64, 95
1, 67569, Note_off_c, 0, 65, 31
1, 67578, Control_c, 0, 64, 102
1, 67586, Note_off_c, 0, 68, 39
1, 67586, Note_off_c, 0, 74, 57
1, 67593, Control_c, 0, 64, 108
1, 67607, Control_c, 0, 64, 113
1, 67622, Control_c, 0, 64, 114
1, 67756, Control_c, 0, 64, 113
1, 67770, Control_c, 0, 64, 112
1, 67785, Control_c, 0, 64, 111
1, 67800, Control_c, 0, 64, 110
1, 67815, Control_c, 0, 64, 108
1, 67818, Note_on_c, 0, 70, 58
1, 67819, Note_on_c, 0, 77, 66
1, 67827, Note_on_c, 0, 62, 44
1, 67827, Note_on_c, 0, 68, 48
1, 67830, Control_c, 0, 64, 104
1, 67832, Note_on_c, 0, 65, 41
1, 67845, Control_c, 0, 64, 96
1, 67859, Control_c, 0, 64, 84
1, 67874, Control_c, 0, 64, 72
1, 67889, Control_c, 0, 64, 64
1, 67904, Control_c, 0, 64, 59
1, 67934, Control_c, 0, 64, 61
1, 67937, Note_off_c, 0, 70, 60
1, 67949, Control_c, 0, 64, 64
1, 67963, Control_c, 0, 64, 68
1, 67978, Control_c, 0, 64, 74
1, 67989, Note_off_c, 0, 68, 49
1, 67993, Control_c, 0, 64, 82
1, 68007, Control_c, 0, 64, 90
1, 68014, Note_off_c, 0, 65, 45
1, 68022, Control_c, 0, 64, 97
1, 68035, Note_off_c, 0, 62, 52
1, 68037, Control_c, 0, 64, 102
1, 68052, Control_c, 0, 64, 107
1, 68067, Control_c, 0, 64, 110
1, 68106, Note_off_c, 0, 77, 55
1, 68142, Control_c, 0, 64, 109
1, 68151, Note_on_c, 0, 75, 58
1, 68157, Control_c, 0, 64, 108
1, 68159, Note_on_c, 0, 68, 37
1, 68172, Control_c, 0, 64, 107
1, 68173, Note_on_c, 0, 70, 50
1, 68201, Control_c, 0, 64, 106
1, 68202, Note_off_c, 0, 75, 57
1, 68226, Note_on_c, 0, 77, 70
1, 68230, Control_c, 0, 64, 105
1, 68245, Control_c, 0, 64, 104
1, 68260, Control_c, 0, 64, 102
1, 68283, Control_c, 0, 64, 97
1, 68297, Note_on_c, 0, 58, 46
1, 68298, Control_c, 0, 64, 89
1, 68304, Note_on_c, 0, 65, 42
1, 68307, Note_on_c, 0, 75, 72
1, 68312, Control_c, 0, 64, 75
1, 68313, Note_off_c, 0, 77, 55
1, 68327, Control_c, 0, 64, 66
1, 68342, Control_c, 0, 64, 58
1, 68357, Control_c, 0, 64, 52
1, 68372, Control_c, 0, 64, 50
1, 68386, Control_c, 0, 64, 48
1, 68416, Control_c, 0, 64, 52
1, 68430, Control_c, 0, 64, 57
1, 68445, Control_c, 0, 64, 62
1, 68460, Control_c, 0, 64, 65
1, 68475, Control_c, 0, 64, 69
1, 68490, Control_c, 0, 64, 74
1, 68504, Control_c, 0, 64, 81
1, 68519, Control_c, 0, 64, 85
1, 68534, Control_c, 0, 64, 89
1, 68549, Control_c, 0, 64, 93
1, 68550, Note_off_c, 0, 70, 34
1, 68550, Note_off_c, 0, 75, 57
1, 68564, Control_c, 0, 64, 96
1, 68578, Control_c, 0, 64, 97
1, 68639, Note_off_c, 0, 68, 39
1, 68667, Control_c, 0, 64, 96
1, 68682, Control_c, 0, 64, 96
1, 68697, Control_c, 0, 64, 95
1, 68706, Note_on_c, 0, 74, 61
1, 68711, Note_off_c, 0, 58, 27
1, 68712, Control_c, 0, 64, 95
1, 68742, Control_c, 0, 64, 94
1, 68772, Control_c, 0, 64, 93
1, 68786, Control_c, 0, 64, 93
1, 68792, Note_off_c, 0, 74, 60
1, 68801, Control_c, 0, 64, 92
1, 68830, Control_c, 0, 64, 91
1, 68845, Control_c, 0, 64, 91
1, 68860, Control_c, 0, 64, 89
1, 68875, Control_c, 0, 64, 88
1, 68890, Control_c, 0, 64, 87
1, 68905, Control_c, 0, 64, 85
1, 68919, Control_c, 0, 64, 84
1, 68920, Note_on_c, 0, 70, 55
1, 68927, Note_on_c, 0, 79, 66
1, 68935, Note_on_c, 0, 63, 36
1, 68935, Control_c, 0, 64, 81
1, 68938, Note_on_c, 0, 67, 47
1, 68950, Control_c, 0, 64, 78
1, 68965, Control_c, 0, 64, 74
1, 68980, Control_c, 0, 64, 69
1, 68995, Control_c, 0, 64, 65
1, 69003, Note_off_c, 0, 65, 38
1, 69009, Control_c, 0, 64, 60
1, 69031, Control_c, 0, 64, 55
1, 69046, Control_c, 0, 64, 53
1, 69061, Control_c, 0, 64, 52
1, 69105, Control_c, 0, 64, 53
1, 69120, Control_c, 0, 64, 56
1, 69135, Control_c, 0, 64, 59
1, 69150, Control_c, 0, 64, 62
1, 69165, Control_c, 0, 64, 64
1, 69180, Control_c, 0, 64, 67
1, 69195, Control_c, 0, 64, 70
1, 69209, Control_c, 0, 64, 75
1, 69224, Control_c, 0, 64, 81
1, 69239, Control_c, 0, 64, 86
1, 69243, Note_off_c, 0, 70, 59
1, 69253, Control_c, 0, 64, 91
1, 69255, Note_off_c, 0, 67, 34
1, 69268, Control_c, 0, 64, 98
1, 69283, Control_c, 0, 64, 107
1, 69298, Control_c, 0, 64, 117
1, 69313, Control_c, 0, 64, 121
1, 69392, Note_off_c, 0, 63, 38
1, 69416, Control_c, 0, 64, 119
1, 69423, Note_off_c, 0, 79, 33
1, 69431, Control_c, 0, 64, 117
1, 69446, Control_c, 0, 64, 116
1, 69460, Control_c, 0, 64, 115
1, 69475, Control_c, 0, 64, 113
1, 69490, Control_c, 0, 64, 113
1, 69505, Control_c, 0, 64, 112
1, 69520, Control_c, 0, 64, 111
1, 69535, Control_c, 0, 64, 110
1, 69550, Control_c, 0, 64, 107
1, 69565, Note_on_c, 0, 74, 49
1, 69565, Control_c, 0, 64, 105
1, 69570, Note_on_c, 0, 62, 37
1, 69573, Note_on_c, 0, 68, 41
1, 69579, Note_on_c, 0, 65, 32
1, 69579, Control_c, 0, 64, 101
1, 69585, Note_on_c, 0, 59, 30
1, 69594, Control_c, 0, 64, 98
1, 69609, Control_c, 0, 64, 92
1, 69624, Control_c, 0, 64, 85
1, 69639, Control_c, 0, 64, 76
1, 69653, Control_c, 0, 64, 68
1, 69668, Control_c, 0, 64, 63
1, 69683, Control_c, 0, 64, 59
1, 69698, Control_c, 0, 64, 58
1, 69743, Control_c, 0, 64, 60
1, 69758, Control_c, 0, 64, 61
1, 69780, Control_c, 0, 64, 63
1, 69795, Control_c, 0, 64, 66
1, 69810, Control_c, 0, 64, 69
1, 69825, Control_c, 0, 64, 73
1, 69839, Control_c, 0, 64, 77
1, 69854, Control_c, 0, 64, 81
1, 69869, Control_c, 0, 64, 85
1, 69883, Control_c, 0, 64, 88
1, 69886, Note_off_c, 0, 62, 27
1, 69898, Control_c, 0, 64, 92
1, 69913, Control_c, 0, 64, 94
1, 69957, Note_off_c, 0, 68, 34
1, 69960, Note_on_c, 0, 77, 55
1, 70003, Control_c, 0, 64, 95
1, 70007, Note_off_c, 0, 74, 13
1, 70047, Note_off_c, 0, 59, 35
1, 70062, Control_c, 0, 64, 94
1, 70076, Control_c, 0, 64, 91
1, 70091, Control_c, 0, 64, 81
1, 70106, Control_c, 0, 64, 71
1, 70110, Note_off_c, 0, 77, 52
1, 70117, Note_on_c, 0, 67, 41
1, 70117, Note_on_c, 0, 75, 54
1, 70119, Note_on_c, 0, 60, 27
1, 70121, Control_c, 0, 64, 63
1, 70127, Note_on_c, 0, 63, 23
1, 70135, Note_off_c, 0, 65, 39
1, 70136, Control_c, 0, 64, 61
1, 70150, Control_c, 0, 64, 63
1, 70165, Control_c, 0, 64, 65
1, 70180, Control_c, 0, 64, 68
1, 70195, Control_c, 0, 64, 72
1, 70209, Control_c, 0, 64, 80
1, 70224, Control_c, 0, 64, 89
1, 70239, Control_c, 0, 64, 97
1, 70254, Control_c, 0, 64, 104
1, 70269, Control_c, 0, 64, 116
1, 70283, Control_c, 0, 64, 127
1, 70302, Note_off_c, 0, 60, 48
1, 70308, Note_off_c, 0, 63, 40
1, 70323, Note_off_c, 0, 75, 60
1, 70336, Note_off_c, 0, 67, 58
1, 70676, Control_c, 0, 64, 113
1, 70690, Note_on_c, 0, 74, 52
1, 70691, Control_c, 0, 64, 96
1, 70695, Note_on_c, 0, 53, 43
1, 70705, Note_on_c, 0, 68, 42
1, 70705, Control_c, 0, 64, 81
1, 70706, Note_on_c, 0, 65, 41
1, 70720, Control_c, 0, 64, 69
1, 70735, Control_c, 0, 64, 61
1, 70750, Control_c, 0, 64, 58
1, 70765, Control_c, 0, 64, 59
1, 70779, Control_c, 0, 64, 60
1, 70794, Control_c, 0, 64, 62
1, 70809, Control_c, 0, 64, 65
1, 70823, Control_c, 0, 64, 69
1, 70838, Control_c, 0, 64, 74
1, 70839, Note_off_c, 0, 74, 62
1, 70853, Control_c, 0, 64, 80
1, 70854, Note_off_c, 0, 65, 58
1, 70868, Control_c, 0, 64, 85
1, 70883, Control_c, 0, 64, 90
1, 70897, Control_c, 0, 64, 95
1, 70912, Control_c, 0, 64, 101
1, 70927, Control_c, 0, 64, 102
1, 70942, Control_c, 0, 64, 103
1, 70957, Control_c, 0, 64, 105
1, 70972, Control_c, 0, 64, 108
1, 70986, Control_c, 0, 64, 109
1, 71019, Note_off_c, 0, 68, 40
1, 71057, Note_off_c, 0, 53, 39
1, 71109, Note_on_c, 0, 72, 63
1, 71120, Note_on_c, 0, 63, 48
1, 71162, Note_off_c, 0, 72, 53
1, 71165, Control_c, 0, 64, 108
1, 71178, Note_off_c, 0, 63, 51
1, 71179, Control_c, 0, 64, 103
1, 71194, Control_c, 0, 64, 91
1, 71209, Control_c, 0, 64, 77
1, 71223, Control_c, 0, 64, 65
1, 71235, Note_on_c, 0, 55, 43
1, 71238, Note_on_c, 0, 71, 59
1, 71238, Control_c, 0, 64, 57
1, 71249, Note_on_c, 0, 67, 41
1, 71253, Control_c, 0, 64, 54
1, 71264, Note_on_c, 0, 62, 36
1, 71290, Control_c, 0, 64, 56
1, 71305, Control_c, 0, 64, 60
1, 71320, Control_c, 0, 64, 64
1, 71335, Control_c, 0, 64, 68
1, 71350, Control_c, 0, 64, 72
1, 71366, Control_c, 0, 64, 78
1, 71381, Control_c, 0, 64, 83
1, 71383, Note_off_c, 0, 62, 32
1, 71396, Control_c, 0, 64, 88
1, 71403, Note_off_c, 0, 55, 37
1, 71410, Control_c, 0, 64, 92
1, 71422, Note_off_c, 0, 67, 31
1, 71422, Note_off_c, 0, 71, 60
1, 71425, Control_c, 0, 64, 94
1, 71440, Control_c, 0, 64, 97
1, 71454, Control_c, 0, 64, 98
1, 71469, Control_c, 0, 64, 99
1, 71484, Control_c, 0, 64, 99
1, 71559, Control_c, 0, 64, 99
1, 71574, Control_c, 0, 64, 98
1, 71589, Control_c, 0, 64, 98
1, 71618, Control_c, 0, 64, 97
1, 71633, Control_c, 0, 64, 97
1, 71647, Control_c, 0, 64, 96
1, 71662, Control_c, 0, 64, 96
1, 71677, Control_c, 0, 64, 95
1, 71707, Control_c, 0, 64, 95
1, 71721, Control_c, 0, 64, 94
1, 71736, Control_c, 0, 64, 94
1, 71751, Control_c, 0, 64, 92
1, 71766, Control_c, 0, 64, 88
1, 71781, Control_c, 0, 64, 81
1, 71795, Control_c, 0, 64, 72
1, 71810, Control_c, 0, 64, 64
1, 71813, Note_on_c, 0, 69, 51
1, 71821, Note_on_c, 0, 60, 39
1, 71823, Note_on_c, 0, 67, 42
1, 71825, Control_c, 0, 64, 60
1, 71830, Note_on_c, 0, 55, 33
1, 71840, Control_c, 0, 64, 59
1, 71854, Control_c, 0, 64, 61
1, 71869, Control_c, 0, 64, 63
1, 71884, Control_c, 0, 64, 65
1, 71899, Control_c, 0, 64, 69
1, 71914, Control_c, 0, 64, 75
1, 71928, Control_c, 0, 64, 81
1, 71943, Control_c, 0, 64, 88
1, 71958, Control_c, 0, 64, 92
1, 71964, Note_off_c, 0, 60, 37
1, 71965, Note_off_c, 0, 69, 52
1, 71973, Control_c, 0, 64, 94
1, 71987, Note_off_c, 0, 67, 54
1, 71988, Control_c, 0, 64, 96
1, 72003, Note_off_c, 0, 55, 46
1, 72003, Control_c, 0, 64, 97
1, 72025, Control_c, 0, 64, 98
1, 72040, Control_c, 0, 64, 99
1, 72054, Control_c, 0, 64, 100
1, 72219, Note_on_c, 0, 71, 55
1, 72221, Note_on_c, 0, 62, 47
1, 72231, Note_on_c, 0, 67, 42
1, 72235, Note_on_c, 0, 53, 34
1, 72250, Note_off_c, 0, 62, 62
1, 72259, Note_on_c, 0, 55, 30
1, 72261, Note_off_c, 0, 67, 56
1, 72268, Note_off_c, 0, 53, 52
1, 72276, Note_off_c, 0, 71, 54
1, 72292, Control_c, 0, 64, 99
1, 72307, Control_c, 0, 64, 95
1, 72322, Control_c, 0, 64, 84
1, 72337, Control_c, 0, 64, 71
1, 72340, Note_off_c, 0, 55, 0
1, 72350, Note_on_c, 0, 67, 53
1, 72351, Note_on_c, 0, 51, 45
1, 72351, Note_on_c, 0, 72, 57
1, 72352, Control_c, 0, 64, 60
1, 72358, Note_on_c, 0, 55, 28
1, 72364, Note_on_c, 0, 63, 39
1, 72367, Control_c, 0, 64, 50
1, 72381, Control_c, 0, 64, 49
1, 72396, Control_c, 0, 64, 52
1, 72405, Note_off_c, 0, 67, 53
1, 72411, Control_c, 0, 64, 59
1, 72426, Control_c, 0, 64, 64
1, 72441, Control_c, 0, 64, 68
1, 72448, Note_off_c, 0, 51, 55
1, 72456, Control_c, 0, 64, 74
1, 72471, Note_off_c, 0, 63, 36
1, 72471, Control_c, 0, 64, 81
1, 72474, Note_off_c, 0, 72, 63
1, 72485, Control_c, 0, 64, 85
1, 72500, Control_c, 0, 64, 88
1, 72515, Control_c, 0, 64, 89
1, 72523, Note_off_c, 0, 55, 36
1, 72530, Control_c, 0, 64, 89
1, 72559, Control_c, 0, 64, 90
1, 72677, Control_c, 0, 64, 89
1, 72751, Control_c, 0, 64, 89
1, 72892, Control_c, 0, 64, 88
1, 72907, Control_c, 0, 64, 88
1, 72923, Control_c, 0, 64, 87
1, 72938, Control_c, 0, 64, 85
1, 72953, Note_on_c, 0, 77, 56
1, 72953, Control_c, 0, 64, 81
1, 72966, Note_on_c, 0, 67, 44
1, 72968, Control_c, 0, 64, 72
1, 72974, Note_on_c, 0, 59, 38
1, 72975, Note_on_c, 0, 55, 38
1, 72977, Note_on_c, 0, 50, 37
1, 72982, Control_c, 0, 64, 64
1, 72997, Control_c, 0, 64, 57
1, 73012, Control_c, 0, 64, 52
1, 73042, Control_c, 0, 64, 55
1, 73056, Control_c, 0, 64, 60
1, 73071, Control_c, 0, 64, 64
1, 73086, Control_c, 0, 64, 67
1, 73100, Control_c, 0, 64, 71
1, 73115, Control_c, 0, 64, 76
1, 73121, Note_off_c, 0, 67, 55
1, 73126, Note_off_c, 0, 59, 54
1, 73127, Note_off_c, 0, 77, 63
1, 73130, Control_c, 0, 64, 80
1, 73145, Note_off_c, 0, 50, 43
1, 73145, Control_c, 0, 64, 83
1, 73160, Control_c, 0, 64, 86
1, 73173, Note_off_c, 0, 55, 40
1, 73174, Control_c, 0, 64, 88
1, 73189, Control_c, 0, 64, 90
1, 73204, Control_c, 0, 64, 91
1, 73219, Control_c, 0, 64, 92
1, 73234, Control_c, 0, 64, 93
1, 73471, Note_on_c, 0, 75, 49
1, 73481, Note_on_c, 0, 48, 35
1, 73490, Note_on_c, 0, 55, 33
1, 73523, Note_on_c, 0, 67, 22
1, 73531, Note_off_c, 0, 75, 56
1, 73543, Note_off_c, 0, 48, 52
1, 73544, Note_off_c, 0, 55, 46
1, 73547, Poly_aftertouch_c, 0, 60, 0
1, 73565, Note_off_c, 0, 67, 47
1, 73568, Control_c, 0, 64, 92
1, 73597, Control_c, 0, 64, 92
1, 73625, Control_c, 0, 64, 91
1, 73640, Control_c, 0, 64, 90
1, 73645, Note_on_c, 0, 67, 45
1, 73655, Note_on_c, 0, 74, 47
1, 73655, Control_c, 0, 64, 89
1, 73663, Note_on_c, 0, 55, 43
1, 73670, Control_c, 0, 64, 87
1, 73672, Note_on_c, 0, 59, 46
1, 73685, Control_c, 0, 64, 84
1, 73699, Control_c, 0, 64, 80
1, 73714, Control_c, 0, 64, 75
1, 73730, Control_c, 0, 64, 71
1, 73745, Control_c, 0, 64, 68
1, 73760, Control_c, 0, 64, 65
1, 73775, Control_c, 0, 64, 62
1, 73790, Control_c, 0, 64, 58
1, 73804, Control_c, 0, 64, 53
1, 73819, Control_c, 0, 64, 50
1, 73834, Control_c, 0, 64, 46
1, 73848, Control_c, 0, 64, 43
1, 73863, Control_c, 0, 64, 42
1, 73878, Control_c, 0, 64, 41
1, 73908, Control_c, 0, 64, 41
1, 73967, Control_c, 0, 64, 41
1, 73982, Control_c, 0, 64, 43
1, 73997, Control_c, 0, 64, 45
1, 74012, Control_c, 0, 64, 48
1, 74027, Control_c, 0, 64, 50
1, 74042, Control_c, 0, 64, 53
1, 74057, Control_c, 0, 64, 55
1, 74071, Control_c, 0, 64, 57
1, 74086, Control_c, 0, 64, 59
1, 74101, Control_c, 0, 64, 61
1, 74115, Control_c, 0, 64, 63
1, 74130, Control_c, 0, 64, 64
1, 74145, Control_c, 0, 64, 66
1, 74160, Control_c, 0, 64, 68
1, 74175, Control_c, 0, 64, 70
1, 74189, Control_c, 0, 64, 73
1, 74204, Control_c, 0, 64, 77
1, 74219, Control_c, 0, 64, 81
1, 74234, Control_c, 0, 64, 87
1, 74248, Control_c, 0, 64, 93
1, 74263, Control_c, 0, 64, 101
1, 74286, Control_c, 0, 64, 113
1, 74301, Control_c, 0, 64, 127
1, 74327, Note_off_c, 0, 59, 30
1, 74357, Note_off_c, 0, 67, 33
1, 74366, Note_off_c, 0, 55, 40
1, 74369, Note_off_c, 0, 74, 35
1, 75325, Note_on_c, 0, 74, 89
1, 75326, Note_on_c, 0, 46, 82
1, 75327, Note_on_c, 0, 70, 82
1, 75329, Note_on_c, 0, 34, 78
1, 75330, Note_on_c, 0, 65, 84
1, 75347, Control_c, 0, 64, 96
1, 75362, Control_c, 0, 64, 71
1, 75377, Control_c, 0, 64, 58
1, 75392, Control_c, 0, 64, 52
1, 75407, Control_c, 0, 64, 55
1, 75422, Control_c, 0, 64, 61
1, 75437, Control_c, 0, 64, 67
1, 75451, Control_c, 0, 64, 76
1, 75466, Control_c, 0, 64, 97
1, 75480, Note_off_c, 0, 34, 59
1, 75481, Control_c, 0, 64, 127
1, 75486, Note_off_c, 0, 46, 60
1, 75488, Note_off_c, 0, 65, 56
1, 75520, Note_off_c, 0, 74, 61
1, 75522, Note_off_c, 0, 70, 62
1, 75718, Note_on_c, 0, 75, 86
1, 75722, Note_on_c, 0, 67, 79
1, 75723, Note_on_c, 0, 70, 79
1, 75726, Note_on_c, 0, 46, 78
1, 75729, Note_on_c, 0, 34, 72
1, 75753, Note_off_c, 0, 67, 64
1, 75778, Note_off_c, 0, 46, 64
1, 75783, Note_off_c, 0, 70, 62
1, 75796, Note_off_c, 0, 34, 57
1, 75801, Note_off_c, 0, 75, 63
1, 75842, Note_on_c, 0, 34, 67
1, 75842, Note_on_c, 0, 46, 86
1, 75843, Note_on_c, 0, 77, 93
1, 75843, Control_c, 0, 64, 107
1, 75846, Note_on_c, 0, 68, 85
1, 75846, Note_on_c, 0, 70, 81
1, 75858, Control_c, 0, 64, 69
1, 75873, Control_c, 0, 64, 50
1, 75888, Control_c, 0, 64, 11
1, 75902, Control_c, 0, 64, 0
1, 75932, Control_c, 0, 64, 29
1, 75947, Control_c, 0, 64, 54
1, 75962, Control_c, 0, 64, 63
1, 75976, Control_c, 0, 64, 68
1, 75991, Control_c, 0, 64, 75
1, 76006, Control_c, 0, 64, 86
1, 76014, Note_off_c, 0, 68, 36
1, 76015, Note_off_c, 0, 77, 61
1, 76021, Control_c, 0, 64, 101
1, 76022, Note_off_c, 0, 46, 55
1, 76024, Note_off_c, 0, 34, 36
1, 76036, Control_c, 0, 64, 127
1, 76073, Note_off_c, 0, 70, 33
1, 76396, Note_on_c, 0, 77, 92
1, 76399, Note_on_c, 0, 70, 83
1, 76400, Note_on_c, 0, 46, 83
1, 76400, Note_on_c, 0, 68, 82
1, 76403, Note_on_c, 0, 34, 76
1, 76437, Control_c, 0, 64, 96
1, 76452, Control_c, 0, 64, 71
1, 76466, Control_c, 0, 64, 58
1, 76481, Control_c, 0, 64, 48
1, 76496, Control_c, 0, 64, 49
1, 76518, Control_c, 0, 64, 53
1, 76533, Control_c, 0, 64, 59
1, 76548, Control_c, 0, 64, 64
1, 76563, Control_c, 0, 64, 70
1, 76578, Control_c, 0, 64, 80
1, 76584, Note_off_c, 0, 68, 57
1, 76592, Control_c, 0, 64, 97
1, 76601, Note_off_c, 0, 77, 62
1, 76607, Control_c, 0, 64, 127
1, 76620, Note_off_c, 0, 34, 55
1, 76631, Note_off_c, 0, 46, 58
1, 76631, Note_off_c, 0, 70, 61
1, 76936, Note_on_c, 0, 46, 87
1, 76938, Note_on_c, 0, 70, 83
1, 76939, Note_on_c, 0, 77, 92
1, 76939, Note_on_c, 0, 68, 89
1, 76940, Note_on_c, 0, 34, 78
1, 76963, Control_c, 0, 64, 102
1, 76978, Control_c, 0, 64, 70
1, 76993, Control_c, 0, 64, 55
1, 77008, Control_c, 0, 64, 43
1, 77023, Control_c, 0, 64, 44
1, 77038, Control_c, 0, 64, 48
1, 77053, Control_c, 0, 64, 56
1, 77067, Control_c, 0, 64, 64
1, 77082, Control_c, 0, 64, 71
1, 77097, Control_c, 0, 64, 82
1, 77108, Note_off_c, 0, 77, 61
1, 77112, Control_c, 0, 64, 100
1, 77112, Note_off_c, 0, 68, 58
1, 77127, Control_c, 0, 64, 127
1, 77132, Note_off_c, 0, 34, 55
1, 77138, Note_off_c, 0, 46, 59
1, 77145, Note_off_c, 0, 70, 61
1, 77479, Note_on_c, 0, 75, 93
1, 77480, Note_on_c, 0, 46, 84
1, 77482, Note_on_c, 0, 70, 86
1, 77483, Note_on_c, 0, 67, 85
1, 77486, Note_on_c, 0, 34, 76
1, 77503, Control_c, 0, 64, 98
1, 77518, Control_c, 0, 64, 72
1, 77533, Control_c, 0, 64, 54
1, 77547, Control_c, 0, 64, 45
1, 77562, Control_c, 0, 64, 51
1, 77577, Control_c, 0, 64, 57
1, 77592, Control_c, 0, 64, 63
1, 77607, Control_c, 0, 64, 70
1, 77622, Control_c, 0, 64, 87
1, 77627, Note_off_c, 0, 67, 55
1, 77637, Control_c, 0, 64, 127
1, 77648, Note_off_c, 0, 34, 55
1, 77657, Note_off_c, 0, 46, 57
1, 77668, Note_off_c, 0, 75, 60
1, 77674, Note_off_c, 0, 70, 62
1, 77943, Note_on_c, 0, 74, 82
1, 77944, Note_on_c, 0, 65, 78
1, 77948, Note_on_c, 0, 70, 76
1, 77953, Note_on_c, 0, 46, 74
1, 77956, Note_on_c, 0, 34, 68
1, 77992, Note_off_c, 0, 34, 58
1, 77997, Note_off_c, 0, 65, 61
1, 77999, Note_off_c, 0, 46, 61
1, 78000, Note_off_c, 0, 70, 62
1, 78036, Note_off_c, 0, 74, 63
1, 78075, Note_on_c, 0, 79, 92
1, 78076, Note_on_c, 0, 46, 83
1, 78082, Note_on_c, 0, 70, 86
1, 78085, Note_on_c, 0, 34, 74
1, 78090, Control_c, 0, 64, 91
1, 78104, Control_c, 0, 64, 67
1, 78119, Control_c, 0, 64, 47
1, 78134, Control_c, 0, 64, 27
1, 78149, Control_c, 0, 64, 23
1, 78164, Control_c, 0, 64, 17
1, 78178, Control_c, 0, 64, 17
1, 78193, Control_c, 0, 64, 23
1, 78208, Control_c, 0, 64, 42
1, 78223, Control_c, 0, 64, 54
1, 78237, Control_c, 0, 64, 60
1, 78252, Control_c, 0, 64, 63
1, 78267, Control_c, 0, 64, 66
1, 78282, Control_c, 0, 64, 71
1, 78296, Control_c, 0, 64, 78
1, 78311, Control_c, 0, 64, 86
1, 78326, Control_c, 0, 64, 96
1, 78341, Control_c, 0, 64, 108
1, 78356, Control_c, 0, 64, 127
1, 78373, Note_off_c, 0, 34, 52
1, 78385, Note_off_c, 0, 46, 47
1, 78653, Control_c, 0, 64, 82
1, 78668, Control_c, 0, 64, 66
1, 78683, Control_c, 0, 64, 55
1, 78689, Note_on_c, 0, 48, 82
1, 78690, Note_on_c, 0, 36, 76
1, 78698, Control_c, 0, 64, 52
1, 78712, Control_c, 0, 64, 56
1, 78727, Control_c, 0, 64, 60
1, 78742, Control_c, 0, 64, 66
1, 78764, Control_c, 0, 64, 72
1, 78773, Note_off_c, 0, 79, 59
1, 78779, Control_c, 0, 64, 84
1, 78793, Control_c, 0, 64, 104
1, 78808, Control_c, 0, 64, 127
1, 78823, Note_off_c, 0, 36, 59
1, 78862, Note_off_c, 0, 48, 58
1, 78876, Note_off_c, 0, 70, 55
1, 79077, Note_on_c, 0, 38, 63
1, 79078, Note_on_c, 0, 50, 62
1, 79089, Note_on_c, 0, 77, 80
1, 79090, Note_on_c, 0, 70, 76
1, 79091, Note_on_c, 0, 68, 72
1, 79116, Note_off_c, 0, 50, 64
1, 79141, Note_off_c, 0, 68, 59
1, 79145, Note_off_c, 0, 38, 57
1, 79145, Note_off_c, 0, 70, 62
1, 79160, Note_off_c, 0, 77, 61
1, 79194, Control_c, 0, 64, 85
1, 79202, Note_on_c, 0, 51, 87
1, 79202, Note_on_c, 0, 75, 87
1, 79203, Note_on_c, 0, 39, 73
1, 79205, Note_on_c, 0, 67, 86
1, 79206, Note_on_c, 0, 70, 74
1, 79209, Control_c, 0, 64, 62
1, 79224, Control_c, 0, 64, 19
1, 79238, Control_c, 0, 64, 0
1, 79298, Control_c, 0, 64, 40
1, 79314, Control_c, 0, 64, 60
1, 79329, Control_c, 0, 64, 67
1, 79343, Control_c, 0, 64, 75
1, 79354, Note_off_c, 0, 67, 58
1, 79358, Control_c, 0, 64, 89
1, 79373, Control_c, 0, 64, 119
1, 79375, Note_off_c, 0, 39, 59
1, 79387, Note_off_c, 0, 51, 49
1, 79388, Control_c, 0, 64, 127
1, 79393, Note_off_c, 0, 70, 63
1, 79393, Note_off_c, 0, 75, 60
1, 79748, Note_on_c, 0, 53, 79
1, 79748, Note_on_c, 0, 68, 84
1, 79748, Note_on_c, 0, 74, 89
1, 79750, Note_on_c, 0, 41, 73
1, 79750, Note_on_c, 0, 65, 81
1, 79765, Control_c, 0, 64, 98
1, 79780, Control_c, 0, 64, 69
1, 79795, Control_c, 0, 64, 51
1, 79810, Control_c, 0, 64, 38
1, 79825, Control_c, 0, 64, 45
1, 79840, Control_c, 0, 64, 54
1, 79855, Control_c, 0, 64, 63
1, 79869, Control_c, 0, 64, 71
1, 79883, Note_off_c, 0, 74, 62
1, 79884, Control_c, 0, 64, 86
1, 79898, Note_off_c, 0, 65, 60
1, 79899, Control_c, 0, 64, 114
1, 79905, Note_off_c, 0, 41, 58
1, 79914, Control_c, 0, 64, 127
1, 79916, Note_off_c, 0, 53, 60
1, 79923, Note_off_c, 0, 68, 61
1, 80151, Note_on_c, 0, 41, 70
1, 80153, Note_on_c, 0, 72, 80
1, 80156, Note_on_c, 0, 53, 74
1, 80160, Note_on_c, 0, 68, 74
1, 80161, Note_on_c, 0, 63, 74
1, 80194, Note_off_c, 0, 41, 64
1, 80201, Note_off_c, 0, 53, 60
1, 80206, Note_off_c, 0, 63, 58
1, 80224, Note_off_c, 0, 68, 58
1, 80227, Note_off_c, 0, 72, 60
1, 80275, Note_on_c, 0, 71, 81
1, 80278, Note_on_c, 0, 67, 73
1, 80281, Note_on_c, 0, 62, 77
1, 80284, Note_on_c, 0, 55, 84
1, 80286, Note_on_c, 0, 43, 78
1, 80293, Control_c, 0, 64, 82
1, 80308, Control_c, 0, 64, 61
1, 80322, Control_c, 0, 64, 0
1, 80426, Control_c, 0, 64, 44
1, 80440, Control_c, 0, 64, 56
1, 80455, Control_c, 0, 64, 60
1, 80470, Control_c, 0, 64, 64
1, 80484, Control_c, 0, 64, 67
1, 80499, Control_c, 0, 64, 72
1, 80504, Note_off_c, 0, 55, 56
1, 80514, Control_c, 0, 64, 81
1, 80529, Control_c, 0, 64, 92
1, 80544, Control_c, 0, 64, 103
1, 80558, Note_off_c, 0, 62, 53
1, 80558, Control_c, 0, 64, 127
1, 80590, Note_off_c, 0, 67, 60
1, 80611, Note_off_c, 0, 71, 61
1, 80737, Note_off_c, 0, 43, 33
1, 80838, Note_on_c, 0, 55, 72
1, 80839, Note_on_c, 0, 67, 71
1, 80841, Note_on_c, 0, 69, 81
1, 80843, Note_on_c, 0, 60, 72
1, 80870, Control_c, 0, 64, 97
1, 80884, Control_c, 0, 64, 73
1, 80899, Control_c, 0, 64, 63
1, 80916, Control_c, 0, 64, 60
1, 80930, Control_c, 0, 64, 64
1, 80945, Control_c, 0, 64, 67
1, 80960, Control_c, 0, 64, 72
1, 80975, Control_c, 0, 64, 82
1, 80989, Control_c, 0, 64, 98
1, 81011, Control_c, 0, 64, 127
1, 81038, Note_off_c, 0, 60, 55
1, 81070, Note_off_c, 0, 67, 61
1, 81078, Note_off_c, 0, 55, 57
1, 81092, Note_off_c, 0, 69, 59
1, 81235, Note_on_c, 0, 53, 69
1, 81241, Note_on_c, 0, 67, 70
1, 81242, Note_on_c, 0, 71, 85
1, 81244, Note_on_c, 0, 62, 77
1, 81252, Note_on_c, 0, 55, 62
1, 81274, Note_off_c, 0, 53, 63
1, 81277, Note_off_c, 0, 62, 64
1, 81299, Note_off_c, 0, 67, 63
1, 81303, Note_off_c, 0, 55, 53
1, 81321, Note_off_c, 0, 71, 62
1, 81351, Note_on_c, 0, 55, 57
1, 81352, Control_c, 0, 64, 84
1, 81359, Note_on_c, 0, 72, 87
1, 81361, Note_on_c, 0, 51, 77
1, 81363, Note_on_c, 0, 63, 85
1, 81363, Note_on_c, 0, 67, 77
1, 81367, Control_c, 0, 64, 61
1, 81381, Control_c, 0, 64, 0
1, 81441, Control_c, 0, 64, 38
1, 81455, Control_c, 0, 64, 61
1, 81464, Note_off_c, 0, 55, 63
1, 81470, Control_c, 0, 64, 70
1, 81485, Control_c, 0, 64, 81
1, 81500, Control_c, 0, 64, 106
1, 81510, Note_off_c, 0, 51, 63
1, 81515, Control_c, 0, 64, 127
1, 81524, Note_off_c, 0, 63, 47
1, 81533, Note_off_c, 0, 72, 57
1, 81608, Note_off_c, 0, 67, 59
1, 81980, Note_on_c, 0, 75, 93
1, 81980, Note_on_c, 0, 67, 83
1, 81981, Note_on_c, 0, 31, 71
1, 81982, Note_on_c, 0, 43, 77
1, 82025, Control_c, 0, 64, 91
1, 82040, Control_c, 0, 64, 68
1, 82055, Control_c, 0, 64, 52
1, 82070, Control_c, 0, 64, 44
1, 82084, Control_c, 0, 64, 48
1, 82099, Control_c, 0, 64, 55
1, 82114, Control_c, 0, 64, 63
1, 82129, Control_c, 0, 64, 68
1, 82144, Control_c, 0, 64, 78
1, 82156, Note_off_c, 0, 75, 61
1, 82159, Control_c, 0, 64, 95
1, 82174, Control_c, 0, 64, 127
1, 82183, Note_off_c, 0, 67, 58
1, 82241, Note_off_c, 0, 43, 57
1, 82250, Note_off_c, 0, 31, 32
1, 82582, Note_on_c, 0, 74, 81
1, 82585, Note_on_c, 0, 31, 69
1, 82586, Note_on_c, 0, 67, 75
1, 82588, Note_on_c, 0, 43, 70
1, 82588, Note_on_c, 0, 65, 76
1, 82642, Note_off_c, 0, 65, 58
1, 82669, Note_off_c, 0, 31, 57
1, 82675, Note_off_c, 0, 67, 62
1, 82677, Note_off_c, 0, 74, 61
1, 82678, Poly_aftertouch_c, 0, 38, 127
1, 82689, Note_off_c, 0, 43, 58
1, 82715, Poly_aftertouch_c, 0, 38, 0
1, 82750, Note_on_c, 0, 43, 71
1, 82751, Note_on_c, 0, 72, 86
1, 82752, Note_on_c, 0, 36, 78
1, 82752, Note_on_c, 0, 63, 81
1, 82754, Note_on_c, 0, 67, 82
1, 82790, Control_c, 0, 64, 92
1, 82805, Control_c, 0, 64, 72
1, 82820, Control_c, 0, 64, 60
1, 82834, Control_c, 0, 64, 39
1, 82849, Control_c, 0, 64, 24
1, 82864, Control_c, 0, 64, 13
1, 82879, Control_c, 0, 64, 0
1, 83026, Control_c, 0, 64, 17
1, 83041, Control_c, 0, 64, 27
1, 83056, Control_c, 0, 64, 33
1, 83071, Control_c, 0, 64, 38
1, 83086, Control_c, 0, 64, 40
1, 83101, Control_c, 0, 64, 43
1, 83116, Control_c, 0, 64, 46
1, 83131, Control_c, 0, 64, 49
1, 83146, Control_c, 0, 64, 51
1, 83160, Control_c, 0, 64, 53
1, 83175, Control_c, 0, 64, 54
1, 83190, Control_c, 0, 64, 56
1, 83205, Control_c, 0, 64, 59
1, 83220, Control_c, 0, 64, 60
1, 83234, Control_c, 0, 64, 62
1, 83256, Control_c, 0, 64, 63
1, 83271, Control_c, 0, 64, 64
1, 83286, Control_c, 0, 64, 65
1, 83301, Control_c, 0, 64, 67
1, 83317, Control_c, 0, 64, 69
1, 83331, Control_c, 0, 64, 71
1, 83346, Control_c, 0, 64, 74
1, 83361, Control_c, 0, 64, 76
1, 83376, Control_c, 0, 64, 79
1, 83390, Control_c, 0, 64, 83
1, 83405, Control_c, 0, 64, 88
1, 83420, Control_c, 0, 64, 93
1, 83435, Control_c, 0, 64, 99
1, 83450, Control_c, 0, 64, 107
1, 83464, Control_c, 0, 64, 127
1, 83676, Note_off_c, 0, 63, 32
1, 83705, Note_off_c, 0, 72, 50
1, 83716, Note_off_c, 0, 67, 32
1, 84029, Note_off_c, 0, 43, 38
1, 84108, Note_off_c, 0, 36, 35
1, 84412, Note_on_c, 0, 75, 85
1, 84509, Control_c, 0, 64, 92
1, 84524, Control_c, 0, 64, 77
1, 84538, Control_c, 0, 64, 67
1, 84553, Control_c, 0, 64, 61
1, 84568, Control_c, 0, 64, 57
1, 84583, Control_c, 0, 64, 56
1, 84598, Control_c, 0, 64, 57
1, 84612, Control_c, 0, 64, 59
1, 84627, Control_c, 0, 64, 62
1, 84642, Control_c, 0, 64, 64
1, 84657, Control_c, 0, 64, 66
1, 84672, Control_c, 0, 64, 70
1, 84687, Control_c, 0, 64, 75
1, 84702, Control_c, 0, 64, 84
1, 84716, Control_c, 0, 64, 93
1, 84731, Control_c, 0, 64, 102
1, 84753, Control_c, 0, 64, 111
1, 84768, Control_c, 0, 64, 127
1, 84834, Note_off_c, 0, 75, 56
1, 84945, Note_on_c, 0, 74, 81
1, 85065, Note_off_c, 0, 74, 60
1, 85109, Note_on_c, 0, 63, 77
1, 85110, Note_on_c, 0, 68, 79
1, 85112, Note_on_c, 0, 56, 76
1, 85112, Note_on_c, 0, 72, 77
1, 85113, Note_on_c, 0, 51, 75
1, 85114, Note_on_c, 0, 44, 72
1, 85154, Control_c, 0, 64, 106
1, 85169, Control_c, 0, 64, 78
1, 85184, Control_c, 0, 64, 65
1, 85199, Control_c, 0, 64, 57
1, 85214, Control_c, 0, 64, 50
1, 85228, Control_c, 0, 64, 45
1, 85243, Control_c, 0, 64, 38
1, 85258, Control_c, 0, 64, 28
1, 85273, Control_c, 0, 64, 22
1, 85288, Control_c, 0, 64, 18
1, 85361, Control_c, 0, 64, 20
1, 85376, Control_c, 0, 64, 24
1, 85391, Control_c, 0, 64, 30
1, 85406, Control_c, 0, 64, 35
1, 85421, Control_c, 0, 64, 39
1, 85435, Control_c, 0, 64, 41
1, 85450, Control_c, 0, 64, 44
1, 85465, Control_c, 0, 64, 46
1, 85480, Control_c, 0, 64, 49
1, 85495, Control_c, 0, 64, 51
1, 85517, Control_c, 0, 64, 53
1, 85532, Control_c, 0, 64, 54
1, 85547, Control_c, 0, 64, 56
1, 85561, Control_c, 0, 64, 58
1, 85576, Control_c, 0, 64, 59
1, 85591, Control_c, 0, 64, 61
1, 85606, Control_c, 0, 64, 62
1, 85621, Control_c, 0, 64, 63
1, 85635, Control_c, 0, 64, 64
1, 85650, Control_c, 0, 64, 66
1, 85665, Control_c, 0, 64, 67
1, 85680, Control_c, 0, 64, 69
1, 85695, Control_c, 0, 64, 72
1, 85711, Control_c, 0, 64, 75
1, 85725, Control_c, 0, 64, 78
1, 85740, Control_c, 0, 64, 82
1, 85755, Control_c, 0, 64, 87
1, 85770, Control_c, 0, 64, 92
1, 85784, Control_c, 0, 64, 97
1, 85799, Control_c, 0, 64, 101
1, 85814, Control_c, 0, 64, 105
1, 85828, Note_off_c, 0, 63, 27
1, 85829, Control_c, 0, 64, 110
1, 85837, Note_off_c, 0, 72, 33
1, 85844, Control_c, 0, 64, 119
1, 85858, Control_c, 0, 64, 127
1, 85898, Note_off_c, 0, 68, 36
1, 86219, Note_off_c, 0, 56, 40
1, 86251, Note_off_c, 0, 51, 58
1, 86281, Note_off_c, 0, 44, 32
1, 86799, Note_on_c, 0, 72, 77
1, 86899, Note_on_c, 0, 75, 89
1, 86904, Control_c, 0, 64, 121
1, 86913, Note_off_c, 0, 72, 64
1, 86919, Control_c, 0, 64, 106
1, 86934, Control_c, 0, 64, 91
1, 86949, Control_c, 0, 64, 78
1, 86964, Control_c, 0, 64, 67
1, 86979, Control_c, 0, 64, 59
1, 87000, Control_c, 0, 64, 50
1, 87015, Control_c, 0, 64, 45
1, 87030, Control_c, 0, 64, 41
1, 87045, Control_c, 0, 64, 36
1, 87060, Control_c, 0, 64, 35
1, 87074, Control_c, 0, 64, 36
1, 87089, Control_c, 0, 64, 42
1, 87104, Control_c, 0, 64, 49
1, 87119, Control_c, 0, 64, 54
1, 87134, Control_c, 0, 64, 57
1, 87149, Control_c, 0, 64, 59
1, 87164, Control_c, 0, 64, 61
1, 87179, Control_c, 0, 64, 63
1, 87194, Control_c, 0, 64, 64
1, 87208, Control_c, 0, 64, 65
1, 87223, Control_c, 0, 64, 67
1, 87238, Control_c, 0, 64, 69
1, 87253, Control_c, 0, 64, 71
1, 87268, Control_c, 0, 64, 74
1, 87282, Control_c, 0, 64, 77
1, 87297, Control_c, 0, 64, 80
1, 87313, Control_c, 0, 64, 85
1, 87328, Control_c, 0, 64, 90
1, 87343, Control_c, 0, 64, 97
1, 87358, Control_c, 0, 64, 106
1, 87372, Control_c, 0, 64, 117
1, 87387, Control_c, 0, 64, 127
1, 87508, Note_off_c, 0, 75, 43
1, 87575, Note_on_c, 0, 74, 77
1, 87713, Note_off_c, 0, 74, 56
1, 87731, Note_on_c, 0, 48, 73
1, 87731, Note_on_c, 0, 51, 75
1, 87734, Note_on_c, 0, 72, 86
1, 87735, Note_on_c, 0, 39, 68
1, 87737, Note_on_c, 0, 67, 78
1, 87779, Control_c, 0, 64, 108
1, 87794, Control_c, 0, 64, 85
1, 87809, Control_c, 0, 64, 71
1, 87823, Control_c, 0, 64, 62
1, 87837, Control_c, 0, 64, 55
1, 87852, Control_c, 0, 64, 51
1, 87867, Control_c, 0, 64, 47
1, 87882, Control_c, 0, 64, 43
1, 87897, Control_c, 0, 64, 39
1, 87912, Control_c, 0, 64, 38
1, 88001, Control_c, 0, 64, 39
1, 88016, Control_c, 0, 64, 40
1, 88030, Control_c, 0, 64, 42
1, 88045, Control_c, 0, 64, 43
1, 88060, Control_c, 0, 64, 45
1, 88075, Control_c, 0, 64, 46
1, 88090, Control_c, 0, 64, 49
1, 88106, Control_c, 0, 64, 51
1, 88121, Control_c, 0, 64, 53
1, 88135, Control_c, 0, 64, 55
1, 88150, Control_c, 0, 64, 57
1, 88165, Control_c, 0, 64, 58
1, 88179, Control_c, 0, 64, 60
1, 88194, Control_c, 0, 64, 61
1, 88209, Control_c, 0, 64, 63
1, 88224, Control_c, 0, 64, 64
1, 88239, Control_c, 0, 64, 65
1, 88253, Control_c, 0, 64, 67
1, 88268, Control_c, 0, 64, 69
1, 88283, Control_c, 0, 64, 72
1, 88298, Control_c, 0, 64, 75
1, 88313, Control_c, 0, 64, 78
1, 88327, Control_c, 0, 64, 82
1, 88342, Control_c, 0, 64, 87
1, 88357, Control_c, 0, 64, 93
1, 88371, Control_c, 0, 64, 100
1, 88386, Control_c, 0, 64, 109
1, 88401, Control_c, 0, 64, 127
1, 88464, Note_off_c, 0, 67, 36
1, 88486, Note_off_c, 0, 39, 39
1, 88507, Note_off_c, 0, 51, 43
1, 88535, Note_off_c, 0, 72, 54
1, 88633, Note_off_c, 0, 48, 40
1, 89307, Note_on_c, 0, 74, 88
1, 89315, Note_on_c, 0, 60, 81
1, 89318, Note_on_c, 0, 48, 80
1, 89361, Note_off_c, 0, 60, 65
1, 89367, Note_off_c, 0, 48, 62
1, 89641, Note_off_c, 0, 74, 53
1, 89720, Note_on_c, 0, 75, 80
1, 89781, Control_c, 0, 64, 106
1, 89796, Control_c, 0, 64, 71
1, 89805, Note_off_c, 0, 75, 62
1, 89811, Control_c, 0, 64, 43
1, 89825, Control_c, 0, 64, 0
1, 89827, Note_on_c, 0, 77, 93
1, 89829, Note_on_c, 0, 72, 86
1, 89830, Note_on_c, 0, 41, 77
1, 89831, Note_on_c, 0, 68, 90
1, 89832, Note_on_c, 0, 53, 81
1, 89885, Control_c, 0, 64, 54
1, 89899, Control_c, 0, 64, 66
1, 89914, Control_c, 0, 64, 78
1, 89929, Control_c, 0, 64, 96
1, 89938, Note_off_c, 0, 41, 56
1, 89939, Note_off_c, 0, 68, 55
1, 89942, Note_off_c, 0, 77, 59
1, 89943, Note_off_c, 0, 72, 57
1, 89943, Control_c, 0, 64, 127
1, 89960, Note_off_c, 0, 53, 53
1, 90366, Control_c, 0, 64, 83
1, 90381, Control_c, 0, 64, 54
1, 90389, Note_on_c, 0, 75, 92
1, 90395, Note_on_c, 0, 72, 82
1, 90396, Note_on_c, 0, 67, 83
1, 90396, Control_c, 0, 64, 0
1, 90398, Note_on_c, 0, 43, 74
1, 90398, Note_on_c, 0, 55, 80
1, 90455, Control_c, 0, 64, 48
1, 90470, Control_c, 0, 64, 64
1, 90476, Note_off_c, 0, 55, 63
1, 90478, Note_off_c, 0, 43, 64
1, 90485, Control_c, 0, 64, 71
1, 90501, Control_c, 0, 64, 79
1, 90508, Note_off_c, 0, 67, 59
1, 90510, Note_off_c, 0, 72, 61
1, 90515, Control_c, 0, 64, 87
1, 90526, Note_off_c, 0, 75, 57
1, 90530, Control_c, 0, 64, 92
1, 90545, Control_c, 0, 64, 96
1, 90560, Control_c, 0, 64, 97
1, 90619, Control_c, 0, 64, 98
1, 90634, Control_c, 0, 64, 98
1, 90745, Control_c, 0, 64, 99
1, 90757, Note_on_c, 0, 74, 83
1, 90760, Control_c, 0, 64, 100
1, 90761, Note_on_c, 0, 65, 73
1, 90763, Note_on_c, 0, 56, 69
1, 90767, Note_on_c, 0, 44, 64
1, 90774, Control_c, 0, 64, 104
1, 90789, Control_c, 0, 64, 108
1, 90791, Note_off_c, 0, 65, 64
1, 90804, Control_c, 0, 64, 111
1, 90806, Note_on_c, 0, 69, 23
1, 90809, Note_off_c, 0, 56, 59
1, 90814, Note_off_c, 0, 74, 63
1, 90821, Note_off_c, 0, 44, 61
1, 90834, Control_c, 0, 64, 107
1, 90846, Note_off_c, 0, 69, 45
1, 90848, Control_c, 0, 64, 82
1, 90863, Control_c, 0, 64, 60
1, 90875, Note_on_c, 0, 72, 91
1, 90878, Note_on_c, 0, 63, 88
1, 90878, Control_c, 0, 64, 0
1, 90881, Note_on_c, 0, 55, 83
1, 90884, Note_on_c, 0, 43, 80
1, 90938, Control_c, 0, 64, 37
1, 90953, Control_c, 0, 64, 64
1, 90967, Control_c, 0, 64, 73
1, 90974, Note_off_c, 0, 55, 61
1, 90982, Control_c, 0, 64, 86
1, 90987, Note_off_c, 0, 43, 62
1, 90997, Control_c, 0, 64, 109
1, 91009, Note_off_c, 0, 63, 57
1, 91012, Control_c, 0, 64, 127
1, 91024, Note_off_c, 0, 72, 59
1, 91397, Control_c, 0, 64, 85
1, 91412, Control_c, 0, 64, 51
1, 91425, Note_on_c, 0, 71, 97
1, 91426, Note_on_c, 0, 43, 87
1, 91426, Note_on_c, 0, 62, 89
1, 91427, Control_c, 0, 64, 0
1, 91428, Note_on_c, 0, 67, 85
1, 91430, Note_on_c, 0, 31, 79
1, 91509, Control_c, 0, 64, 48
1, 91524, Control_c, 0, 64, 63
1, 91539, Control_c, 0, 64, 71
1, 91541, Note_off_c, 0, 62, 57
1, 91553, Control_c, 0, 64, 85
1, 91558, Note_off_c, 0, 31, 58
1, 91568, Control_c, 0, 64, 127
1, 91579, Note_off_c, 0, 71, 58
1, 91584, Note_off_c, 0, 67, 60
1, 91595, Note_off_c, 0, 43, 59
1, 92129, Note_on_c, 0, 72, 88
1, 92130, Note_on_c, 0, 67, 86
1, 92131, Note_on_c, 0, 63, 87
1, 92132, Note_on_c, 0, 48, 85
1, 92132, Control_c, 0, 64, 99
1, 92133, Note_on_c, 0, 43, 85
1, 92135, Note_on_c, 0, 36, 82
1, 92147, Control_c, 0, 64, 65
1, 92161, Control_c, 0, 64, 0
1, 92419, Control_c, 0, 64, 17
1, 92434, Control_c, 0, 64, 29
1, 92449, Control_c, 0, 64, 32
1, 92464, Control_c, 0, 64, 36
1, 92479, Control_c, 0, 64, 43
1, 92493, Control_c, 0, 64, 50
1, 92508, Control_c, 0, 64, 53
1, 92523, Control_c, 0, 64, 54
1, 92538, Control_c, 0, 64, 55
1, 92553, Control_c, 0, 64, 57
1, 92567, Control_c, 0, 64, 59
1, 92582, Control_c, 0, 64, 61
1, 92597, Control_c, 0, 64, 62
1, 92611, Control_c, 0, 64, 63
1, 92626, Control_c, 0, 64, 64
1, 92641, Control_c, 0, 64, 65
1, 92656, Control_c, 0, 64, 67
1, 92671, Control_c, 0, 64, 69
1, 92685, Control_c, 0, 64, 72
1, 92700, Control_c, 0, 64, 76
1, 92715, Control_c, 0, 64, 80
1, 92730, Control_c, 0, 64, 84
1, 92744, Control_c, 0, 64, 91
1, 92759, Control_c, 0, 64, 102
1, 92774, Control_c, 0, 64, 127
1, 92863, Note_off_c, 0, 36, 35
1, 92863, Note_off_c, 0, 72, 42
1, 92879, Note_off_c, 0, 48, 30
1, 92939, Note_off_c, 0, 63, 38
1, 92947, Note_off_c, 0, 67, 51
1, 92967, Note_off_c, 0, 43, 47
1, 94273, Control_c, 0, 64, 123
1, 94288, Control_c, 0, 64, 116
1, 94303, Control_c, 0, 64, 113
1, 94318, Control_c, 0, 64, 110
1, 94332, Control_c, 0, 64, 106
1, 94339, Note_on_c, 0, 75, 64
1, 94347, Control_c, 0, 64, 101
1, 94362, Control_c, 0, 64, 97
1, 94377, Control_c, 0, 64, 92
1, 94391, Control_c, 0, 64, 86
1, 94406, Control_c, 0, 64, 80
1, 94421, Control_c, 0, 64, 73
1, 94436, Control_c, 0, 64, 65
1, 94451, Control_c, 0, 64, 57
1, 94465, Control_c, 0, 64, 49
1, 94488, Control_c, 0, 64, 44
1, 94503, Control_c, 0, 64, 40
1, 94518, Control_c, 0, 64, 37
1, 94533, Control_c, 0, 64, 36
1, 94562, Control_c, 0, 64, 37
1, 94577, Control_c, 0, 64, 42
1, 94592, Control_c, 0, 64, 47
1, 94607, Control_c, 0, 64, 52
1, 94621, Control_c, 0, 64, 57
1, 94636, Control_c, 0, 64, 60
1, 94651, Control_c, 0, 64, 63
1, 94666, Control_c, 0, 64, 65
1, 94681, Control_c, 0, 64, 68
1, 94695, Control_c, 0, 64, 73
1, 94707, Note_off_c, 0, 75, 55
1, 94710, Control_c, 0, 64, 80
1, 94725, Control_c, 0, 64, 89
1, 94740, Control_c, 0, 64, 98
1, 94755, Control_c, 0, 64, 113
1, 94769, Control_c, 0, 64, 127
1, 94868, Note_on_c, 0, 74, 57
1, 94954, Note_off_c, 0, 74, 63
1, 95053, Note_on_c, 0, 72, 54
1, 95055, Note_on_c, 0, 63, 50
1, 95057, Note_on_c, 0, 56, 45
1, 95060, Note_on_c, 0, 68, 52
1, 95066, Note_on_c, 0, 44, 39
1, 95069, Note_on_c, 0, 51, 45
1, 95110, Control_c, 0, 64, 104
1, 95125, Control_c, 0, 64, 91
1, 95140, Control_c, 0, 64, 83
1, 95155, Control_c, 0, 64, 77
1, 95169, Control_c, 0, 64, 71
1, 95184, Control_c, 0, 64, 66
1, 95199, Control_c, 0, 64, 61
1, 95213, Control_c, 0, 64, 55
1, 95236, Control_c, 0, 64, 51
1, 95251, Control_c, 0, 64, 48
1, 95266, Control_c, 0, 64, 45
1, 95281, Control_c, 0, 64, 43
1, 95296, Control_c, 0, 64, 42
1, 95311, Control_c, 0, 64, 41
1, 95325, Control_c, 0, 64, 41
1, 95340, Control_c, 0, 64, 40
1, 95444, Control_c, 0, 64, 41
1, 95459, Control_c, 0, 64, 42
1, 95474, Control_c, 0, 64, 43
1, 95489, Control_c, 0, 64, 45
1, 95504, Control_c, 0, 64, 47
1, 95518, Control_c, 0, 64, 49
1, 95533, Control_c, 0, 64, 52
1, 95548, Control_c, 0, 64, 53
1, 95563, Control_c, 0, 64, 55
1, 95578, Control_c, 0, 64, 56
1, 95592, Control_c, 0, 64, 58
1, 95607, Control_c, 0, 64, 60
1, 95622, Control_c, 0, 64, 61
1, 95636, Control_c, 0, 64, 62
1, 95651, Control_c, 0, 64, 63
1, 95666, Control_c, 0, 64, 64
1, 95681, Control_c, 0, 64, 65
1, 95696, Control_c, 0, 64, 66
1, 95710, Control_c, 0, 64, 68
1, 95725, Control_c, 0, 64, 70
1, 95740, Control_c, 0, 64, 72
1, 95755, Control_c, 0, 64, 75
1, 95770, Control_c, 0, 64, 78
1, 95785, Control_c, 0, 64, 81
1, 95799, Control_c, 0, 64, 85
1, 95814, Control_c, 0, 64, 89
1, 95829, Control_c, 0, 64, 93
1, 95844, Control_c, 0, 64, 97
1, 95859, Control_c, 0, 64, 102
1, 95874, Control_c, 0, 64, 110
1, 95889, Control_c, 0, 64, 127
1, 95933, Note_off_c, 0, 44, 26
1, 95934, Note_off_c, 0, 56, 39
1, 96034, Note_off_c, 0, 51, 36
1, 96096, Note_off_c, 0, 63, 35
1, 96206, Note_off_c, 0, 68, 33
1, 96210, Note_off_c, 0, 72, 41
1, 97253, Control_c, 0, 64, 123
1, 97268, Control_c, 0, 64, 116
1, 97272, Note_on_c, 0, 75, 54
1, 97282, Control_c, 0, 64, 113
1, 97297, Control_c, 0, 64, 111
1, 97312, Control_c, 0, 64, 108
1, 97327, Control_c, 0, 64, 104
1, 97342, Control_c, 0, 64, 97
1, 97356, Control_c, 0, 64, 90
1, 97371, Control_c, 0, 64, 84
1, 97386, Control_c, 0, 64, 81
1, 97401, Control_c, 0, 64, 77
1, 97415, Control_c, 0, 64, 72
1, 97430, Control_c, 0, 64, 66
1, 97445, Control_c, 0, 64, 61
1, 97460, Control_c, 0, 64, 56
1, 97475, Control_c, 0, 64, 54
1, 97497, Control_c, 0, 64, 53
1, 97512, Control_c, 0, 64, 52
1, 97572, Control_c, 0, 64, 52
1, 97587, Control_c, 0, 64, 54
1, 97602, Control_c, 0, 64, 56
1, 97616, Control_c, 0, 64, 58
1, 97631, Control_c, 0, 64, 60
1, 97646, Control_c, 0, 64, 62
1, 97661, Control_c, 0, 64, 63
1, 97676, Control_c, 0, 64, 64
1, 97692, Control_c, 0, 64, 66
1, 97706, Control_c, 0, 64, 68
1, 97721, Control_c, 0, 64, 70
1, 97736, Control_c, 0, 64, 72
1, 97751, Control_c, 0, 64, 75
1, 97766, Control_c, 0, 64, 78
1, 97781, Control_c, 0, 64, 81
1, 97795, Control_c, 0, 64, 83
1, 97810, Control_c, 0, 64, 86
1, 97825, Control_c, 0, 64, 89
1, 97839, Control_c, 0, 64, 93
1, 97854, Control_c, 0, 64, 96
1, 97869, Control_c, 0, 64, 99
1, 97884, Control_c, 0, 64, 103
1, 97899, Control_c, 0, 64, 107
1, 97913, Control_c, 0, 64, 111
1, 97928, Control_c, 0, 64, 116
1, 97943, Control_c, 0, 64, 121
1, 97958, Control_c, 0, 64, 127
1, 97961, Note_off_c, 0, 75, 24
1, 98032, Note_on_c, 0, 74, 43
1, 98176, Note_off_c, 0, 74, 34
1, 98252, Note_on_c, 0, 72, 43
1, 98256, Note_on_c, 0, 67, 38
1, 98282, Note_on_c, 0, 39, 38
1, 98286, Note_on_c, 0, 48, 30
1, 98287, Note_on_c, 0, 51, 33
1, 98335, Control_c, 0, 64, 123
1, 98350, Control_c, 0, 64, 114
1, 98365, Control_c, 0, 64, 107
1, 98380, Control_c, 0, 64, 101
1, 98394, Control_c, 0, 64, 94
1, 98409, Control_c, 0, 64, 88
1, 98424, Control_c, 0, 64, 83
1, 98438, Control_c, 0, 64, 76
1, 98453, Control_c, 0, 64, 69
1, 98468, Control_c, 0, 64, 64
1, 98484, Control_c, 0, 64, 58
1, 98499, Control_c, 0, 64, 56
1, 98514, Control_c, 0, 64, 56
1, 98529, Control_c, 0, 64, 55
1, 98543, Control_c, 0, 64, 54
1, 98558, Control_c, 0, 64, 54
1, 98588, Control_c, 0, 64, 53
1, 98617, Control_c, 0, 64, 53
1, 98736, Control_c, 0, 64, 53
1, 98780, Control_c, 0, 64, 54
1, 98810, Control_c, 0, 64, 54
1, 98840, Control_c, 0, 64, 55
1, 98854, Control_c, 0, 64, 55
1, 98899, Control_c, 0, 64, 56
1, 98914, Control_c, 0, 64, 56
1, 98928, Control_c, 0, 64, 57
1, 98943, Control_c, 0, 64, 57
1, 98958, Control_c, 0, 64, 58
1, 98995, Control_c, 0, 64, 59
1, 99010, Control_c, 0, 64, 59
1, 99040, Control_c, 0, 64, 60
1, 99054, Control_c, 0, 64, 60
1, 99069, Control_c, 0, 64, 61
1, 99084, Control_c, 0, 64, 61
1, 99114, Control_c, 0, 64, 62
1, 99129, Control_c, 0, 64, 62
1, 99143, Control_c, 0, 64, 63
1, 99158, Control_c, 0, 64, 63
1, 99188, Control_c, 0, 64, 64
1, 99202, Control_c, 0, 64, 64
1, 99217, Control_c, 0, 64, 65
1, 99232, Control_c, 0, 64, 66
1, 99247, Control_c, 0, 64, 66
1, 99261, Control_c, 0, 64, 67
1, 99276, Control_c, 0, 64, 69
1, 99292, Control_c, 0, 64, 70
1, 99307, Control_c, 0, 64, 73
1, 99322, Control_c, 0, 64, 78
1, 99337, Control_c, 0, 64, 83
1, 99352, Control_c, 0, 64, 89
1, 99366, Control_c, 0, 64, 95
1, 99381, Control_c, 0, 64, 100
1, 99396, Control_c, 0, 64, 106
1, 99411, Control_c, 0, 64, 113
1, 99426, Control_c, 0, 64, 117
1, 99466, Note_off_c, 0, 39, 38
1, 99470, Control_c, 0, 64, 118
1, 99484, Control_c, 0, 64, 123
1, 99499, Control_c, 0, 64, 127
1, 99504, Note_off_c, 0, 67, 37
1, 99560, Note_off_c, 0, 72, 36
1, 99561, Note_off_c, 0, 51, 32
1, 99570, Note_off_c, 0, 48, 39
1, 99833, Control_c, 0, 64, 119
1, 99848, Control_c, 0, 64, 116
1, 99862, Control_c, 0, 64, 113
1, 99877, Control_c, 0, 64, 110
1, 99892, Control_c, 0, 64, 107
1, 99907, Control_c, 0, 64, 105
1, 99922, Control_c, 0, 64, 103
1, 99937, Control_c, 0, 64, 100
1, 99951, Control_c, 0, 64, 98
1, 99966, Control_c, 0, 64, 97
1, 99981, Control_c, 0, 64, 96
1, 99996, Control_c, 0, 64, 95
1, 100010, Control_c, 0, 64, 92
1, 100025, Control_c, 0, 64, 88
1, 100040, Control_c, 0, 64, 85
1, 100055, Control_c, 0, 64, 83
1, 100070, Control_c, 0, 64, 80
1, 100086, Control_c, 0, 64, 78
1, 100101, Control_c, 0, 64, 76
1, 100115, Control_c, 0, 64, 74
1, 100130, Control_c, 0, 64, 73
1, 100145, Control_c, 0, 64, 72
1, 100160, Control_c, 0, 64, 71
1, 100174, Control_c, 0, 64, 70
1, 100189, Control_c, 0, 64, 69
1, 100204, Control_c, 0, 64, 67
1, 100219, Control_c, 0, 64, 66
1, 100234, Control_c, 0, 64, 65
1, 100249, Control_c, 0, 64, 65
1, 100263, Control_c, 0, 64, 64
1, 100278, Control_c, 0, 64, 63
1, 100293, Control_c, 0, 64, 61
1, 100307, Control_c, 0, 64, 59
1, 100322, Control_c, 0, 64, 57
1, 100337, Control_c, 0, 64, 56
1, 100352, Control_c, 0, 64, 54
1, 100367, Control_c, 0, 64, 53
1, 100381, Control_c, 0, 64, 52
1, 100396, Control_c, 0, 64, 51
1, 100411, Control_c, 0, 64, 49
1, 100426, Control_c, 0, 64, 48
1, 100441, Control_c, 0, 64, 47
1, 100456, Control_c, 0, 64, 46
1, 100464, Note_on_c, 0, 73, 43
1, 100471, Control_c, 0, 64, 45
1, 100493, Control_c, 0, 64, 44
1, 100507, Control_c, 0, 64, 44
1, 100522, Control_c, 0, 64, 43
1, 100581, Control_c, 0, 64, 44
1, 100596, Control_c, 0, 64, 45
1, 100611, Control_c, 0, 64, 48
1, 100626, Control_c, 0, 64, 50
1, 100640, Control_c, 0, 64, 52
1, 100655, Control_c, 0, 64, 54
1, 100670, Control_c, 0, 64, 57
1, 100685, Control_c, 0, 64, 60
1, 100700, Control_c, 0, 64, 62
1, 100715, Control_c, 0, 64, 63
1, 100730, Control_c, 0, 64, 64
1, 100745, Control_c, 0, 64, 65
1, 100760, Control_c, 0, 64, 68
1, 100775, Control_c, 0, 64, 70
1, 100789, Control_c, 0, 64, 74
1, 100804, Control_c, 0, 64, 77
1, 100819, Control_c, 0, 64, 80
1, 100833, Control_c, 0, 64, 83
1, 100848, Control_c, 0, 64, 86
1, 100863, Control_c, 0, 64, 88
1, 100879, Control_c, 0, 64, 91
1, 100890, Note_off_c, 0, 73, 26
1, 100894, Control_c, 0, 64, 92
1, 100906, Note_on_c, 0, 75, 50
1, 100909, Control_c, 0, 64, 93
1, 101011, Note_off_c, 0, 75, 45
1, 101027, Control_c, 0, 64, 92
1, 101042, Control_c, 0, 64, 91
1, 101051, Note_on_c, 0, 73, 46
1, 101056, Control_c, 0, 64, 88
1, 101058, Note_on_c, 0, 49, 37
1, 101071, Control_c, 0, 64, 84
1, 101086, Control_c, 0, 64, 74
1, 101099, Note_off_c, 0, 73, 62
1, 101101, Control_c, 0, 64, 66
1, 101116, Control_c, 0, 64, 59
1, 101122, Note_on_c, 0, 75, 50
1, 101130, Control_c, 0, 64, 55
1, 101162, Note_off_c, 0, 75, 64
1, 101175, Control_c, 0, 64, 55
1, 101183, Note_on_c, 0, 77, 54
1, 101190, Control_c, 0, 64, 57
1, 101202, Note_on_c, 0, 68, 39
1, 101204, Control_c, 0, 64, 60
1, 101219, Control_c, 0, 64, 62
1, 101242, Control_c, 0, 64, 65
1, 101256, Control_c, 0, 64, 67
1, 101271, Control_c, 0, 64, 71
1, 101286, Control_c, 0, 64, 78
1, 101301, Control_c, 0, 64, 83
1, 101317, Control_c, 0, 64, 87
1, 101331, Control_c, 0, 64, 91
1, 101346, Control_c, 0, 64, 95
1, 101361, Control_c, 0, 64, 98
1, 101365, Note_off_c, 0, 77, 35
1, 101376, Control_c, 0, 64, 101
1, 101383, Note_off_c, 0, 68, 38
1, 101391, Control_c, 0, 64, 101
1, 101398, Note_off_c, 0, 49, 31
1, 101479, Control_c, 0, 64, 101
1, 101494, Control_c, 0, 64, 100
1, 101509, Control_c, 0, 64, 99
1, 101524, Control_c, 0, 64, 99
1, 101538, Control_c, 0, 64, 97
1, 101553, Control_c, 0, 64, 93
1, 101568, Control_c, 0, 64, 85
1, 101571, Note_on_c, 0, 75, 56
1, 101583, Control_c, 0, 64, 75
1, 101585, Note_on_c, 0, 51, 44
1, 101586, Note_on_c, 0, 68, 43
1, 101597, Control_c, 0, 64, 67
1, 101612, Control_c, 0, 64, 62
1, 101627, Control_c, 0, 64, 60
1, 101642, Control_c, 0, 64, 62
1, 101657, Control_c, 0, 64, 64
1, 101672, Control_c, 0, 64, 66
1, 101683, Note_off_c, 0, 68, 61
1, 101684, Note_off_c, 0, 75, 62
1, 101687, Control_c, 0, 64, 71
1, 101693, Note_off_c, 0, 51, 61
1, 101702, Control_c, 0, 64, 77
1, 101717, Control_c, 0, 64, 83
1, 101732, Control_c, 0, 64, 87
1, 101746, Control_c, 0, 64, 89
1, 101761, Control_c, 0, 64, 90
1, 101776, Control_c, 0, 64, 90
1, 101910, Control_c, 0, 64, 90
1, 101914, Note_on_c, 0, 73, 53
1, 101922, Note_on_c, 0, 53, 45
1, 101925, Note_on_c, 0, 68, 43
1, 101925, Control_c, 0, 64, 89
1, 101940, Control_c, 0, 64, 88
1, 101954, Note_off_c, 0, 73, 58
1, 101954, Control_c, 0, 64, 86
1, 101960, Note_off_c, 0, 68, 48
1, 101976, Control_c, 0, 64, 81
1, 101985, Note_off_c, 0, 53, 54
1, 101991, Control_c, 0, 64, 74
1, 102006, Control_c, 0, 64, 66
1, 102021, Control_c, 0, 64, 59
1, 102036, Control_c, 0, 64, 51
1, 102050, Control_c, 0, 64, 48
1, 102053, Note_on_c, 0, 72, 50
1, 102060, Note_on_c, 0, 68, 37
1, 102063, Note_on_c, 0, 51, 43
1, 102080, Control_c, 0, 64, 51
1, 102095, Control_c, 0, 64, 59
1, 102110, Control_c, 0, 64, 64
1, 102123, Note_off_c, 0, 72, 65
1, 102125, Control_c, 0, 64, 69
1, 102127, Note_off_c, 0, 51, 61
1, 102131, Note_off_c, 0, 68, 57
1, 102140, Control_c, 0, 64, 75
1, 102154, Control_c, 0, 64, 81
1, 102169, Control_c, 0, 64, 87
1, 102184, Control_c, 0, 64, 90
1, 102199, Control_c, 0, 64, 92
1, 102214, Control_c, 0, 64, 93
1, 102273, Control_c, 0, 64, 93
1, 102287, Control_c, 0, 64, 92
1, 102302, Control_c, 0, 64, 91
1, 102317, Control_c, 0, 64, 89
1, 102332, Control_c, 0, 64, 88
1, 102347, Control_c, 0, 64, 87
1, 102361, Control_c, 0, 64, 86
1, 102376, Control_c, 0, 64, 86
1, 102391, Control_c, 0, 64, 85
1, 102405, Control_c, 0, 64, 82
1, 102420, Control_c, 0, 64, 78
1, 102435, Control_c, 0, 64, 75
1, 102450, Control_c, 0, 64, 72
1, 102465, Control_c, 0, 64, 69
1, 102481, Control_c, 0, 64, 66
1, 102496, Control_c, 0, 64, 62
1, 102510, Control_c, 0, 64, 58
1, 102525, Control_c, 0, 64, 55
1, 102539, Note_on_c, 0, 70, 48
1, 102540, Control_c, 0, 64, 53
1, 102544, Note_on_c, 0, 67, 37
1, 102545, Note_on_c, 0, 51, 32
1, 102549, Note_on_c, 0, 61, 37
1, 102555, Control_c, 0, 64, 52
1, 102558, Note_on_c, 0, 63, 30
1, 102566, Note_on_c, 0, 39, 29
1, 102569, Control_c, 0, 64, 51
1, 102584, Control_c, 0, 64, 52
1, 102599, Control_c, 0, 64, 57
1, 102614, Control_c, 0, 64, 61
1, 102629, Control_c, 0, 64, 64
1, 102644, Control_c, 0, 64, 67
1, 102656, Note_off_c, 0, 67, 55
1, 102659, Control_c, 0, 64, 71
1, 102673, Control_c, 0, 64, 76
1, 102675, Note_off_c, 0, 70, 62
1, 102684, Note_off_c, 0, 61, 58
1, 102688, Control_c, 0, 64, 79
1, 102699, Note_off_c, 0, 63, 38
1, 102703, Control_c, 0, 64, 81
1, 102725, Control_c, 0, 64, 83
1, 102730, Note_off_c, 0, 39, 31
1, 102731, Note_off_c, 0, 51, 41
1, 102740, Control_c, 0, 64, 86
1, 102755, Control_c, 0, 64, 89
1, 102770, Control_c, 0, 64, 91
1, 102784, Control_c, 0, 64, 91
1, 102857, Control_c, 0, 64, 91
1, 102872, Control_c, 0, 64, 90
1, 102887, Control_c, 0, 64, 90
1, 102901, Control_c, 0, 64, 89
1, 102916, Control_c, 0, 64, 88
1, 102931, Control_c, 0, 64, 87
1, 102946, Control_c, 0, 64, 87
1, 102961, Control_c, 0, 64, 86
1, 102975, Control_c, 0, 64, 86
1, 102990, Control_c, 0, 64, 85
1, 103005, Control_c, 0, 64, 85
1, 103020, Control_c, 0, 64, 84
1, 103064, Control_c, 0, 64, 84
1, 103094, Control_c, 0, 64, 83
1, 103109, Control_c, 0, 64, 83
1, 103138, Control_c, 0, 64, 82
1, 103152, Note_on_c, 0, 44, 34
1, 103153, Control_c, 0, 64, 81
1, 103166, Note_on_c, 0, 63, 42
1, 103168, Control_c, 0, 64, 80
1, 103169, Note_on_c, 0, 68, 47
1, 103175, Note_on_c, 0, 60, 39
1, 103183, Control_c, 0, 64, 79
1, 103198, Control_c, 0, 64, 76
1, 103213, Control_c, 0, 64, 72
1, 103227, Control_c, 0, 64, 66
1, 103242, Control_c, 0, 64, 62
1, 103257, Control_c, 0, 64, 60
1, 103302, Control_c, 0, 64, 60
1, 103317, Control_c, 0, 64, 62
1, 103332, Control_c, 0, 64, 64
1, 103347, Control_c, 0, 64, 67
1, 103362, Control_c, 0, 64, 70
1, 103375, Note_on_c, 0, 48, 38
1, 103377, Control_c, 0, 64, 74
1, 103392, Control_c, 0, 64, 79
1, 103406, Control_c, 0, 64, 84
1, 103421, Control_c, 0, 64, 89
1, 103436, Control_c, 0, 64, 94
1, 103451, Control_c, 0, 64, 101
1, 103466, Control_c, 0, 64, 111
1, 103468, Note_off_c, 0, 44, 28
1, 103487, Control_c, 0, 64, 127
1, 103526, Note_on_c, 0, 51, 49
1, 103546, Note_off_c, 0, 48, 34
1, 103587, Note_off_c, 0, 60, 37
1, 103677, Note_on_c, 0, 48, 48
1, 103678, Note_off_c, 0, 51, 33
1, 103680, Note_off_c, 0, 68, 33
1, 103779, Note_off_c, 0, 63, 32
1, 103806, Note_on_c, 0, 51, 46
1, 103903, Note_off_c, 0, 48, 38
1, 103966, Note_on_c, 0, 56, 44
1, 103979, Note_off_c, 0, 51, 43
1, 104065, Control_c, 0, 64, 116
1, 104080, Control_c, 0, 64, 106
1, 104095, Control_c, 0, 64, 95
1, 104110, Control_c, 0, 64, 81
1, 104116, Note_on_c, 0, 47, 44
1, 104125, Control_c, 0, 64, 71
1, 104131, Note_off_c, 0, 56, 34
1, 104140, Control_c, 0, 64, 64
1, 104155, Control_c, 0, 64, 63
1, 104170, Control_c, 0, 64, 64
1, 104185, Control_c, 0, 64, 64
1, 104200, Control_c, 0, 64, 66
1, 104215, Control_c, 0, 64, 69
1, 104236, Control_c, 0, 64, 73
1, 104251, Control_c, 0, 64, 79
1, 104266, Control_c, 0, 64, 85
1, 104271, Note_on_c, 0, 50, 43
1, 104280, Control_c, 0, 64, 89
1, 104295, Control_c, 0, 64, 92
1, 104310, Control_c, 0, 64, 95
1, 104325, Control_c, 0, 64, 96
1, 104350, Note_off_c, 0, 47, 24
1, 104406, Note_on_c, 0, 56, 50
1, 104413, Note_off_c, 0, 50, 32
1, 104459, Control_c, 0, 64, 95
1, 104488, Control_c, 0, 64, 95
1, 104503, Control_c, 0, 64, 94
1, 104507, Note_off_c, 0, 56, 47
1, 104518, Control_c, 0, 64, 92
1, 104533, Control_c, 0, 64, 89
1, 104542, Note_on_c, 0, 68, 71
1, 104545, Note_on_c, 0, 48, 38
1, 104547, Control_c, 0, 64, 82
1, 104562, Control_c, 0, 64, 73
1, 104577, Control_c, 0, 64, 66
1, 104592, Control_c, 0, 64, 62
1, 104607, Control_c, 0, 64, 62
1, 104621, Control_c, 0, 64, 63
1, 104636, Control_c, 0, 64, 64
1, 104651, Control_c, 0, 64, 66
1, 104665, Control_c, 0, 64, 69
1, 104680, Control_c, 0, 64, 73
1, 104686, Note_on_c, 0, 51, 51
1, 104695, Control_c, 0, 64, 78
1, 104708, Note_off_c, 0, 48, 35
1, 104710, Control_c, 0, 64, 82
1, 104725, Control_c, 0, 64, 84
1, 104730, Note_off_c, 0, 68, 58
1, 104740, Control_c, 0, 64, 85
1, 104754, Control_c, 0, 64, 86
1, 104757, Note_off_c, 0, 51, 54
1, 104769, Control_c, 0, 64, 86
1, 104784, Control_c, 0, 64, 87
1, 104790, Note_on_c, 0, 56, 49
1, 104829, Control_c, 0, 64, 87
1, 104858, Control_c, 0, 64, 87
1, 104882, Note_on_c, 0, 72, 66
1, 104889, Control_c, 0, 64, 86
1, 104903, Note_off_c, 0, 56, 48
1, 104933, Control_c, 0, 64, 86
1, 104981, Note_on_c, 0, 44, 37
1, 105000, Control_c, 0, 64, 85
1, 105013, Note_off_c, 0, 72, 55
1, 105015, Control_c, 0, 64, 84
1, 105030, Control_c, 0, 64, 82
1, 105045, Note_on_c, 0, 75, 67
1, 105045, Control_c, 0, 64, 80
1, 105059, Control_c, 0, 64, 75
1, 105074, Control_c, 0, 64, 68
1, 105089, Control_c, 0, 64, 62
1, 105103, Control_c, 0, 64, 54
1, 105118, Control_c, 0, 64, 52
1, 105148, Control_c, 0, 64, 53
1, 105163, Control_c, 0, 64, 56
1, 105177, Control_c, 0, 64, 60
1, 105192, Control_c, 0, 64, 64
1, 105207, Control_c, 0, 64, 66
1, 105222, Control_c, 0, 64, 69
1, 105230, Note_on_c, 0, 48, 35
1, 105237, Note_off_c, 0, 44, 39
1, 105237, Control_c, 0, 64, 73
1, 105252, Control_c, 0, 64, 77
1, 105267, Control_c, 0, 64, 81
1, 105268, Note_off_c, 0, 75, 54
1, 105282, Control_c, 0, 64, 84
1, 105296, Control_c, 0, 64, 87
1, 105311, Control_c, 0, 64, 89
1, 105326, Control_c, 0, 64, 90
1, 105343, Note_off_c, 0, 48, 38
1, 105382, Note_on_c, 0, 56, 45
1, 105488, Control_c, 0, 64, 89
1, 105501, Note_off_c, 0, 56, 45
1, 105503, Control_c, 0, 64, 89
1, 105518, Control_c, 0, 64, 88
1, 105530, Note_on_c, 0, 75, 64
1, 105533, Control_c, 0, 64, 87
1, 105537, Note_on_c, 0, 48, 33
1, 105548, Control_c, 0, 64, 85
1, 105562, Control_c, 0, 64, 80
1, 105577, Control_c, 0, 64, 73
1, 105592, Control_c, 0, 64, 66
1, 105607, Control_c, 0, 64, 62
1, 105622, Control_c, 0, 64, 63
1, 105636, Control_c, 0, 64, 64
1, 105651, Control_c, 0, 64, 66
1, 105667, Control_c, 0, 64, 68
1, 105682, Control_c, 0, 64, 71
1, 105697, Control_c, 0, 64, 75
1, 105700, Note_on_c, 0, 51, 35
1, 105712, Control_c, 0, 64, 79
1, 105734, Control_c, 0, 64, 82
1, 105749, Control_c, 0, 64, 83
1, 105764, Control_c, 0, 64, 85
1, 105779, Control_c, 0, 64, 86
1, 105789, Note_off_c, 0, 75, 53
1, 105794, Control_c, 0, 64, 87
1, 105824, Note_on_c, 0, 56, 47
1, 105831, Note_off_c, 0, 48, 35
1, 105851, Note_off_c, 0, 51, 31
1, 105967, Note_off_c, 0, 56, 36
1, 105970, Note_on_c, 0, 47, 42
1, 105971, Control_c, 0, 64, 87
1, 105982, Note_on_c, 0, 75, 72
1, 105986, Control_c, 0, 64, 85
1, 106000, Control_c, 0, 64, 80
1, 106015, Control_c, 0, 64, 73
1, 106030, Control_c, 0, 64, 65
1, 106045, Control_c, 0, 64, 62
1, 106060, Control_c, 0, 64, 64
1, 106075, Control_c, 0, 64, 65
1, 106090, Control_c, 0, 64, 67
1, 106104, Control_c, 0, 64, 69
1, 106119, Control_c, 0, 64, 74
1, 106131, Note_on_c, 0, 50, 47
1, 106134, Control_c, 0, 64, 79
1, 106149, Control_c, 0, 64, 83
1, 106164, Control_c, 0, 64, 85
1, 106179, Control_c, 0, 64, 87
1, 106193, Control_c, 0, 64, 90
1, 106200, Note_off_c, 0, 75, 54
1, 106208, Control_c, 0, 64, 91
1, 106209, Note_off_c, 0, 47, 24
1, 106223, Control_c, 0, 64, 91
1, 106238, Control_c, 0, 64, 92
1, 106280, Note_on_c, 0, 56, 51
1, 106297, Control_c, 0, 64, 92
1, 106312, Control_c, 0, 64, 93
1, 106336, Note_off_c, 0, 50, 28
1, 106341, Control_c, 0, 64, 94
1, 106350, Poly_aftertouch_c, 0, 77, 127
1, 106397, Note_on_c, 0, 75, 77
1, 106400, Control_c, 0, 64, 93
1, 106413, Note_off_c, 0, 56, 36
1, 106415, Control_c, 0, 64, 90
1, 106416, Note_on_c, 0, 48, 48
1, 106430, Control_c, 0, 64, 83
1, 106444, Control_c, 0, 64, 74
1, 106449, Poly_aftertouch_c, 0, 77, 0
1, 106468, Control_c, 0, 64, 66
1, 106483, Control_c, 0, 64, 61
1, 106498, Control_c, 0, 64, 60
1, 106513, Control_c, 0, 64, 61
1, 106528, Control_c, 0, 64, 63
1, 106542, Control_c, 0, 64, 66
1, 106557, Control_c, 0, 64, 70
1, 106572, Control_c, 0, 64, 77
1, 106573, Note_on_c, 0, 51, 59
1, 106587, Control_c, 0, 64, 87
1, 106602, Control_c, 0, 64, 97
1, 106617, Control_c, 0, 64, 107
1, 106629, Note_off_c, 0, 48, 35
1, 106631, Control_c, 0, 64, 119
1, 106646, Control_c, 0, 64, 127
1, 106700, Note_off_c, 0, 51, 57
1, 106736, Note_on_c, 0, 56, 48
1, 106771, Note_off_c, 0, 75, 37
1, 106889, Note_on_c, 0, 49, 45
1, 106893, Note_off_c, 0, 56, 55
1, 106943, Note_on_c, 0, 77, 77
1, 106987, Control_c, 0, 64, 107
1, 107002, Control_c, 0, 64, 91
1, 107016, Control_c, 0, 64, 76
1, 107031, Control_c, 0, 64, 65
1, 107046, Control_c, 0, 64, 57
1, 107061, Control_c, 0, 64, 56
1, 107075, Control_c, 0, 64, 56
1, 107090, Control_c, 0, 64, 58
1, 107105, Control_c, 0, 64, 61
1, 107120, Control_c, 0, 64, 64
1, 107134, Note_on_c, 0, 53, 41
1, 107135, Control_c, 0, 64, 67
1, 107149, Control_c, 0, 64, 71
1, 107164, Control_c, 0, 64, 75
1, 107179, Control_c, 0, 64, 79
1, 107194, Control_c, 0, 64, 83
1, 107209, Control_c, 0, 64, 86
1, 107225, Note_off_c, 0, 49, 30
1, 107231, Control_c, 0, 64, 87
1, 107246, Control_c, 0, 64, 88
1, 107261, Control_c, 0, 64, 89
1, 107276, Control_c, 0, 64, 89
1, 107291, Control_c, 0, 64, 90
1, 107294, Note_off_c, 0, 53, 35
1, 107303, Note_on_c, 0, 56, 45
1, 107306, Control_c, 0, 64, 90
1, 107321, Control_c, 0, 64, 91
1, 107365, Control_c, 0, 64, 91
1, 107376, Note_off_c, 0, 56, 50
1, 107407, Note_on_c, 0, 49, 35
1, 107580, Note_on_c, 0, 55, 43
1, 107598, Note_off_c, 0, 49, 35
1, 107699, Note_off_c, 0, 77, 32
1, 107720, Control_c, 0, 64, 91
1, 107722, Note_off_c, 0, 55, 36
1, 107729, Note_on_c, 0, 58, 36
1, 107795, Control_c, 0, 64, 90
1, 107807, Note_off_c, 0, 58, 50
1, 107824, Control_c, 0, 64, 90
1, 107842, Note_on_c, 0, 48, 39
1, 107869, Control_c, 0, 64, 89
1, 107875, Note_on_c, 0, 75, 59
1, 107884, Control_c, 0, 64, 89
1, 107898, Control_c, 0, 64, 88
1, 107913, Control_c, 0, 64, 87
1, 107928, Control_c, 0, 64, 84
1, 107943, Control_c, 0, 64, 80
1, 107958, Control_c, 0, 64, 74
1, 107979, Control_c, 0, 64, 67
1, 107994, Control_c, 0, 64, 60
1, 108009, Control_c, 0, 64, 56
1, 108024, Control_c, 0, 64, 55
1, 108039, Control_c, 0, 64, 56
1, 108054, Control_c, 0, 64, 58
1, 108069, Control_c, 0, 64, 61
1, 108072, Note_on_c, 0, 56, 27
1, 108084, Control_c, 0, 64, 65
1, 108099, Control_c, 0, 64, 68
1, 108108, Note_off_c, 0, 48, 33
1, 108114, Control_c, 0, 64, 71
1, 108128, Control_c, 0, 64, 76
1, 108143, Control_c, 0, 64, 81
1, 108158, Control_c, 0, 64, 86
1, 108173, Control_c, 0, 64, 92
1, 108188, Control_c, 0, 64, 95
1, 108197, Note_on_c, 0, 60, 41
1, 108203, Control_c, 0, 64, 98
1, 108218, Control_c, 0, 64, 99
1, 108267, Note_off_c, 0, 56, 38
1, 108313, Note_off_c, 0, 60, 47
1, 108347, Note_on_c, 0, 48, 38
1, 108504, Note_on_c, 0, 51, 44
1, 108507, Note_off_c, 0, 48, 37
1, 108644, Note_off_c, 0, 51, 36
1, 108644, Note_on_c, 0, 56, 46
1, 108734, Note_off_c, 0, 56, 46
1, 108834, Note_on_c, 0, 46, 39
1, 108874, Note_on_c, 0, 73, 65
1, 108892, Control_c, 0, 64, 97
1, 108907, Control_c, 0, 64, 94
1, 108922, Control_c, 0, 64, 87
1, 108933, Note_off_c, 0, 75, 36
1, 108937, Control_c, 0, 64, 78
1, 108951, Control_c, 0, 64, 69
1, 108966, Control_c, 0, 64, 62
1, 108981, Control_c, 0, 64, 58
1, 108996, Control_c, 0, 64, 57
1, 109011, Control_c, 0, 64, 57
1, 109026, Control_c, 0, 64, 59
1, 109041, Control_c, 0, 64, 61
1, 109047, Note_on_c, 0, 51, 43
1, 109056, Control_c, 0, 64, 63
1, 109070, Control_c, 0, 64, 66
1, 109085, Control_c, 0, 64, 68
1, 109090, Note_off_c, 0, 46, 43
1, 109100, Control_c, 0, 64, 72
1, 109115, Control_c, 0, 64, 76
1, 109130, Control_c, 0, 64, 80
1, 109144, Control_c, 0, 64, 83
1, 109159, Control_c, 0, 64, 85
1, 109174, Control_c, 0, 64, 87
1, 109189, Control_c, 0, 64, 88
1, 109196, Note_on_c, 0, 56, 47
1, 109204, Control_c, 0, 64, 91
1, 109211, Note_off_c, 0, 51, 36
1, 109218, Control_c, 0, 64, 92
1, 109233, Control_c, 0, 64, 93
1, 109294, Note_off_c, 0, 56, 46
1, 109330, Note_on_c, 0, 46, 42
1, 109497, Note_on_c, 0, 51, 47
1, 109509, Note_off_c, 0, 46, 37
1, 109584, Note_off_c, 0, 51, 54
1, 109625, Note_on_c, 0, 55, 47
1, 109655, Control_c, 0, 64, 94
1, 109699, Note_off_c, 0, 55, 51
1, 109745, Control_c, 0, 64, 93
1, 109755, Note_on_c, 0, 44, 45
1, 109760, Control_c, 0, 64, 92
1, 109771, Note_on_c, 0, 72, 61
1, 109774, Control_c, 0, 64, 90
1, 109789, Control_c, 0, 64, 86
1, 109804, Control_c, 0, 64, 77
1, 109805, Note_off_c, 0, 73, 40
1, 109819, Control_c, 0, 64, 67
1, 109834, Control_c, 0, 64, 60
1, 109848, Control_c, 0, 64, 55
1, 109863, Control_c, 0, 64, 55
1, 109878, Control_c, 0, 64, 55
1, 109893, Control_c, 0, 64, 57
1, 109908, Control_c, 0, 64, 60
1, 109923, Control_c, 0, 64, 63
1, 109938, Control_c, 0, 64, 66
1, 109941, Note_on_c, 0, 51, 43
1, 109953, Control_c, 0, 64, 69
1, 109959, Note_off_c, 0, 44, 36
1, 109967, Control_c, 0, 64, 72
1, 109982, Control_c, 0, 64, 76
1, 109997, Control_c, 0, 64, 80
1, 110012, Control_c, 0, 64, 84
1, 110017, Note_off_c, 0, 51, 50
1, 110027, Control_c, 0, 64, 87
1, 110041, Control_c, 0, 64, 91
1, 110056, Control_c, 0, 64, 94
1, 110071, Control_c, 0, 64, 95
1, 110077, Note_on_c, 0, 58, 47
1, 110169, Note_off_c, 0, 58, 46
1, 110238, Note_on_c, 0, 44, 43
1, 110355, Note_off_c, 0, 72, 37
1, 110360, Control_c, 0, 64, 95
1, 110372, Note_on_c, 0, 51, 49
1, 110373, Note_off_c, 0, 44, 37
1, 110434, Control_c, 0, 64, 94
1, 110467, Note_off_c, 0, 51, 57
1, 110479, Control_c, 0, 64, 94
1, 110509, Control_c, 0, 64, 93
1, 110516, Note_on_c, 0, 56, 48
1, 110523, Control_c, 0, 64, 93
1, 110553, Control_c, 0, 64, 92
1, 110597, Control_c, 0, 64, 92
1, 110621, Note_off_c, 0, 56, 54
1, 110627, Control_c, 0, 64, 91
1, 110657, Control_c, 0, 64, 91
1, 110677, Note_on_c, 0, 49, 40
1, 110701, Control_c, 0, 64, 90
1, 110716, Control_c, 0, 64, 90
1, 110731, Control_c, 0, 64, 89
1, 110738, Note_on_c, 0, 70, 59
1, 110746, Control_c, 0, 64, 88
1, 110761, Control_c, 0, 64, 85
1, 110776, Control_c, 0, 64, 80
1, 110790, Control_c, 0, 64, 74
1, 110805, Control_c, 0, 64, 67
1, 110820, Control_c, 0, 64, 62
1, 110835, Control_c, 0, 64, 58
1, 110850, Control_c, 0, 64, 57
1, 110894, Control_c, 0, 64, 58
1, 110908, Control_c, 0, 64, 60
1, 110923, Control_c, 0, 64, 63
1, 110938, Control_c, 0, 64, 65
1, 110945, Note_on_c, 0, 56, 32
1, 110960, Control_c, 0, 64, 67
1, 110975, Control_c, 0, 64, 71
1, 110990, Control_c, 0, 64, 75
1, 111005, Control_c, 0, 64, 79
1, 111020, Control_c, 0, 64, 83
1, 111035, Control_c, 0, 64, 85
1, 111050, Control_c, 0, 64, 88
1, 111064, Control_c, 0, 64, 90
1, 111079, Control_c, 0, 64, 91
1, 111108, Control_c, 0, 64, 91
1, 111115, Note_on_c, 0, 58, 35
1, 111123, Control_c, 0, 64, 92
1, 111128, Note_off_c, 0, 56, 39
1, 111199, Note_off_c, 0, 49, 33
1, 111282, Note_on_c, 0, 73, 59
1, 111289, Note_on_c, 0, 53, 33
1, 111298, Note_off_c, 0, 58, 32
1, 111325, Note_off_c, 0, 70, 56
1, 111332, Control_c, 0, 64, 91
1, 111346, Control_c, 0, 64, 91
1, 111361, Control_c, 0, 64, 90
1, 111376, Control_c, 0, 64, 89
1, 111391, Control_c, 0, 64, 87
1, 111406, Control_c, 0, 64, 84
1, 111420, Control_c, 0, 64, 77
1, 111435, Control_c, 0, 64, 69
1, 111450, Control_c, 0, 64, 64
1, 111465, Control_c, 0, 64, 61
1, 111480, Control_c, 0, 64, 62
1, 111488, Note_on_c, 0, 56, 36
1, 111494, Control_c, 0, 64, 63
1, 111509, Control_c, 0, 64, 64
1, 111524, Control_c, 0, 64, 67
1, 111536, Note_off_c, 0, 53, 43
1, 111539, Control_c, 0, 64, 69
1, 111554, Control_c, 0, 64, 73
1, 111568, Control_c, 0, 64, 76
1, 111583, Control_c, 0, 64, 79
1, 111598, Control_c, 0, 64, 81
1, 111612, Note_on_c, 0, 61, 40
1, 111613, Control_c, 0, 64, 83
1, 111628, Control_c, 0, 64, 85
1, 111634, Note_off_c, 0, 56, 34
1, 111658, Control_c, 0, 64, 85
1, 111771, Note_on_c, 0, 51, 45
1, 111777, Note_on_c, 0, 72, 69
1, 111783, Note_off_c, 0, 61, 32
1, 111813, Note_off_c, 0, 73, 38
1, 111843, Control_c, 0, 64, 84
1, 111858, Control_c, 0, 64, 83
1, 111872, Control_c, 0, 64, 80
1, 111887, Control_c, 0, 64, 74
1, 111902, Control_c, 0, 64, 66
1, 111917, Control_c, 0, 64, 62
1, 111932, Control_c, 0, 64, 59
1, 111935, Note_on_c, 0, 56, 52
1, 111946, Control_c, 0, 64, 60
1, 111961, Control_c, 0, 64, 61
1, 111976, Control_c, 0, 64, 63
1, 111991, Control_c, 0, 64, 65
1, 112006, Control_c, 0, 64, 69
1, 112016, Note_off_c, 0, 51, 32
1, 112020, Control_c, 0, 64, 73
1, 112035, Control_c, 0, 64, 78
1, 112050, Control_c, 0, 64, 82
1, 112066, Control_c, 0, 64, 86
1, 112081, Control_c, 0, 64, 90
1, 112093, Note_on_c, 0, 60, 49
1, 112096, Control_c, 0, 64, 92
1, 112110, Control_c, 0, 64, 92
1, 112123, Note_off_c, 0, 56, 36
1, 112125, Control_c, 0, 64, 93
1, 112183, Note_off_c, 0, 60, 50
1, 112215, Note_on_c, 0, 51, 48
1, 112229, Control_c, 0, 64, 92
1, 112234, Note_on_c, 0, 70, 67
1, 112243, Control_c, 0, 64, 91
1, 112258, Control_c, 0, 64, 90
1, 112273, Control_c, 0, 64, 88
1, 112288, Control_c, 0, 64, 84
1, 112303, Control_c, 0, 64, 78
1, 112317, Control_c, 0, 64, 70
1, 112328, Note_off_c, 0, 72, 31
1, 112332, Control_c, 0, 64, 64
1, 112347, Control_c, 0, 64, 59
1, 112361, Control_c, 0, 64, 59
1, 112376, Control_c, 0, 64, 60
1, 112391, Control_c, 0, 64, 61
1, 112404, Note_on_c, 0, 55, 44
1, 112406, Control_c, 0, 64, 63
1, 112421, Control_c, 0, 64, 66
1, 112436, Control_c, 0, 64, 69
1, 112436, Note_off_c, 0, 51, 41
1, 112451, Control_c, 0, 64, 75
1, 112473, Control_c, 0, 64, 79
1, 112488, Control_c, 0, 64, 83
1, 112503, Control_c, 0, 64, 86
1, 112516, Note_off_c, 0, 55, 60
1, 112517, Control_c, 0, 64, 89
1, 112532, Control_c, 0, 64, 90
1, 112548, Control_c, 0, 64, 91
1, 112562, Control_c, 0, 64, 91
1, 112565, Note_on_c, 0, 58, 54
1, 112596, Note_off_c, 0, 70, 39
1, 112616, Note_off_c, 0, 58, 56
1, 112666, Control_c, 0, 64, 91
1, 112740, Control_c, 0, 64, 90
1, 112748, Note_on_c, 0, 44, 41
1, 112755, Control_c, 0, 64, 90
1, 112770, Control_c, 0, 64, 89
1, 112782, Note_on_c, 0, 68, 56
1, 112785, Control_c, 0, 64, 87
1, 112800, Control_c, 0, 64, 84
1, 112814, Control_c, 0, 64, 79
1, 112829, Control_c, 0, 64, 73
1, 112844, Control_c, 0, 64, 67
1, 112859, Control_c, 0, 64, 62
1, 112874, Control_c, 0, 64, 55
1, 112889, Control_c, 0, 64, 50
1, 112904, Control_c, 0, 64, 48
1, 112934, Control_c, 0, 64, 50
1, 112949, Control_c, 0, 64, 54
1, 112963, Control_c, 0, 64, 59
1, 112978, Control_c, 0, 64, 62
1, 112993, Control_c, 0, 64, 64
1, 112997, Note_on_c, 0, 48, 33
1, 113008, Control_c, 0, 64, 66
1, 113023, Control_c, 0, 64, 69
1, 113038, Control_c, 0, 64, 72
1, 113053, Control_c, 0, 64, 76
1, 113067, Control_c, 0, 64, 80
1, 113073, Note_off_c, 0, 44, 36
1, 113075, Note_off_c, 0, 48, 48
1, 113082, Control_c, 0, 64, 83
1, 113097, Control_c, 0, 64, 87
1, 113112, Control_c, 0, 64, 91
1, 113126, Control_c, 0, 64, 94
1, 113141, Control_c, 0, 64, 96
1, 113142, Note_on_c, 0, 56, 44
1, 113156, Control_c, 0, 64, 99
1, 113171, Control_c, 0, 64, 102
1, 113185, Control_c, 0, 64, 102
1, 113272, Note_off_c, 0, 56, 50
1, 113306, Note_on_c, 0, 48, 41
1, 113469, Note_on_c, 0, 51, 40
1, 113469, Note_off_c, 0, 68, 35
1, 113540, Note_off_c, 0, 48, 30
1, 113622, Note_on_c, 0, 56, 36
1, 113631, Note_off_c, 0, 51, 31
1, 113682, Control_c, 0, 64, 103
1, 113741, Control_c, 0, 64, 103
1, 113751, Note_on_c, 0, 47, 40
1, 113756, Control_c, 0, 64, 99
1, 113771, Control_c, 0, 64, 92
1, 113771, Note_off_c, 0, 56, 33
1, 113786, Control_c, 0, 64, 81
1, 113800, Control_c, 0, 64, 71
1, 113815, Control_c, 0, 64, 65
1, 113845, Control_c, 0, 64, 67
1, 113860, Control_c, 0, 64, 68
1, 113874, Control_c, 0, 64, 70
1, 113889, Control_c, 0, 64, 74
1, 113904, Control_c, 0, 64, 78
1, 113914, Note_on_c, 0, 50, 41
1, 113919, Control_c, 0, 64, 82
1, 113933, Control_c, 0, 64, 87
1, 113948, Control_c, 0, 64, 91
1, 113971, Control_c, 0, 64, 94
1, 113986, Control_c, 0, 64, 97
1, 114001, Control_c, 0, 64, 98
1, 114015, Control_c, 0, 64, 98
1, 114050, Note_off_c, 0, 47, 34
1, 114070, Note_on_c, 0, 56, 43
1, 114074, Control_c, 0, 64, 99
1, 114086, Note_off_c, 0, 50, 32
1, 114164, Note_off_c, 0, 56, 45
1, 114204, Note_on_c, 0, 68, 64
1, 114209, Note_on_c, 0, 48, 45
1, 114221, Control_c, 0, 64, 98
1, 114236, Control_c, 0, 64, 97
1, 114251, Control_c, 0, 64, 94
1, 114266, Control_c, 0, 64, 88
1, 114281, Control_c, 0, 64, 78
1, 114296, Control_c, 0, 64, 70
1, 114311, Control_c, 0, 64, 65
1, 114326, Control_c, 0, 64, 66
1, 114340, Control_c, 0, 64, 68
1, 114349, Note_off_c, 0, 48, 53
1, 114355, Control_c, 0, 64, 69
1, 114359, Note_on_c, 0, 51, 52
1, 114370, Control_c, 0, 64, 72
1, 114385, Control_c, 0, 64, 76
1, 114400, Control_c, 0, 64, 80
1, 114414, Control_c, 0, 64, 84
1, 114429, Control_c, 0, 64, 86
1, 114444, Control_c, 0, 64, 87
1, 114446, Note_off_c, 0, 51, 60
1, 114464, Note_off_c, 0, 68, 59
1, 114467, Note_on_c, 0, 56, 44
1, 114534, Note_on_c, 0, 72, 59
1, 114563, Control_c, 0, 64, 88
1, 114608, Control_c, 0, 64, 87
1, 114627, Note_off_c, 0, 56, 25
1, 114637, Control_c, 0, 64, 87
1, 114643, Note_on_c, 0, 44, 34
1, 114652, Control_c, 0, 64, 85
1, 114666, Note_off_c, 0, 72, 59
1, 114667, Control_c, 0, 64, 80
1, 114672, Note_on_c, 0, 75, 64
1, 114682, Control_c, 0, 64, 72
1, 114697, Control_c, 0, 64, 64
1, 114719, Control_c, 0, 64, 60
1, 114734, Control_c, 0, 64, 58
1, 114778, Control_c, 0, 64, 59
1, 114793, Control_c, 0, 64, 61
1, 114808, Control_c, 0, 64, 63
1, 114823, Control_c, 0, 64, 65
1, 114837, Control_c, 0, 64, 67
1, 114852, Control_c, 0, 64, 70
1, 114867, Control_c, 0, 64, 74
1, 114870, Note_on_c, 0, 48, 37
1, 114881, Control_c, 0, 64, 78
1, 114896, Control_c, 0, 64, 82
1, 114911, Control_c, 0, 64, 87
1, 114916, Note_off_c, 0, 44, 34
1, 114919, Note_off_c, 0, 75, 49
1, 114926, Control_c, 0, 64, 92
1, 114941, Control_c, 0, 64, 99
1, 114945, Note_off_c, 0, 48, 48
1, 114955, Control_c, 0, 64, 106
1, 114970, Control_c, 0, 64, 112
1, 114985, Control_c, 0, 64, 113
1, 114999, Note_on_c, 0, 56, 45
1, 115104, Control_c, 0, 64, 112
1, 115134, Control_c, 0, 64, 111
1, 115142, Note_on_c, 0, 75, 72
1, 115146, Note_on_c, 0, 63, 60
1, 115148, Note_on_c, 0, 48, 40
1, 115149, Control_c, 0, 64, 108
1, 115163, Control_c, 0, 64, 104
1, 115178, Control_c, 0, 64, 97
1, 115178, Note_off_c, 0, 56, 34
1, 115193, Control_c, 0, 64, 87
1, 115208, Control_c, 0, 64, 77
1, 115223, Control_c, 0, 64, 69
1, 115237, Control_c, 0, 64, 65
1, 115268, Control_c, 0, 64, 67
1, 115283, Control_c, 0, 64, 69
1, 115298, Control_c, 0, 64, 72
1, 115312, Control_c, 0, 64, 78
1, 115318, Note_on_c, 0, 51, 50
1, 115327, Control_c, 0, 64, 85
1, 115342, Control_c, 0, 64, 94
1, 115357, Control_c, 0, 64, 98
1, 115372, Control_c, 0, 64, 100
1, 115375, Note_off_c, 0, 63, 55
1, 115378, Note_off_c, 0, 75, 56
1, 115386, Control_c, 0, 64, 103
1, 115401, Control_c, 0, 64, 106
1, 115416, Control_c, 0, 64, 110
1, 115431, Control_c, 0, 64, 115
1, 115441, Note_on_c, 0, 56, 56
1, 115441, Note_off_c, 0, 51, 56
1, 115446, Control_c, 0, 64, 117
1, 115467, Note_off_c, 0, 48, 34
1, 115467, Control_c, 0, 64, 119
1, 115482, Control_c, 0, 64, 127
1, 115563, Note_off_c, 0, 56, 57
1, 115587, Note_on_c, 0, 75, 85
1, 115589, Note_on_c, 0, 47, 53
1, 115590, Note_on_c, 0, 63, 71
1, 115615, Control_c, 0, 64, 118
1, 115630, Control_c, 0, 64, 91
1, 115645, Control_c, 0, 64, 76
1, 115659, Control_c, 0, 64, 67
1, 115674, Control_c, 0, 64, 64
1, 115689, Control_c, 0, 64, 66
1, 115704, Control_c, 0, 64, 69
1, 115719, Control_c, 0, 64, 73
1, 115733, Note_on_c, 0, 50, 67
1, 115733, Control_c, 0, 64, 78
1, 115739, Note_off_c, 0, 47, 50
1, 115748, Control_c, 0, 64, 85
1, 115763, Note_off_c, 0, 63, 60
1, 115763, Control_c, 0, 64, 91
1, 115771, Note_off_c, 0, 75, 58
1, 115777, Control_c, 0, 64, 95
1, 115792, Control_c, 0, 64, 100
1, 115807, Control_c, 0, 64, 107
1, 115822, Control_c, 0, 64, 117
1, 115837, Control_c, 0, 64, 127
1, 115857, Poly_aftertouch_c, 0, 71, 0
1, 115875, Poly_aftertouch_c, 0, 69, 0
1, 115891, Note_on_c, 0, 56, 70
1, 116019, Note_off_c, 0, 56, 58
1, 116022, Note_off_c, 0, 50, 28
1, 116038, Note_on_c, 0, 48, 57
1, 116040, Note_on_c, 0, 75, 94
1, 116045, Note_on_c, 0, 63, 83
1, 116061, Control_c, 0, 64, 86
1, 116075, Control_c, 0, 64, 69
1, 116090, Control_c, 0, 64, 59
1, 116105, Control_c, 0, 64, 61
1, 116120, Control_c, 0, 64, 64
1, 116135, Control_c, 0, 64, 67
1, 116149, Control_c, 0, 64, 73
1, 116164, Control_c, 0, 64, 82
1, 116179, Control_c, 0, 64, 95
1, 116189, Note_off_c, 0, 63, 61
1, 116194, Control_c, 0, 64, 103
1, 116198, Note_off_c, 0, 75, 61
1, 116216, Control_c, 0, 64, 107
1, 116217, Note_on_c, 0, 51, 73
1, 116231, Control_c, 0, 64, 111
1, 116245, Control_c, 0, 64, 116
1, 116250, Note_off_c, 0, 48, 56
1, 116260, Control_c, 0, 64, 127
1, 116278, Poly_aftertouch_c, 0, 69, 0
1, 116346, Note_off_c, 0, 51, 59
1, 116375, Note_on_c, 0, 56, 67
1, 116572, Note_on_c, 0, 49, 49
1, 116585, Note_off_c, 0, 56, 49
1, 116657, Note_on_c, 0, 76, 88
1, 116660, Note_on_c, 0, 64, 74
1, 116705, Control_c, 0, 64, 113
1, 116720, Control_c, 0, 64, 99
1, 116734, Control_c, 0, 64, 80
1, 116749, Control_c, 0, 64, 67
1, 116764, Control_c, 0, 64, 59
1, 116779, Control_c, 0, 64, 54
1, 116794, Control_c, 0, 64, 55
1, 116809, Control_c, 0, 64, 58
1, 116824, Control_c, 0, 64, 61
1, 116839, Control_c, 0, 64, 65
1, 116854, Control_c, 0, 64, 68
1, 116869, Control_c, 0, 64, 73
1, 116884, Control_c, 0, 64, 78
1, 116898, Control_c, 0, 64, 83
1, 116908, Note_on_c, 0, 52, 46
1, 116913, Control_c, 0, 64, 89
1, 116928, Control_c, 0, 64, 95
1, 116943, Control_c, 0, 64, 99
1, 116946, Note_off_c, 0, 49, 51
1, 116965, Control_c, 0, 64, 102
1, 116980, Control_c, 0, 64, 104
1, 117043, Note_off_c, 0, 52, 56
1, 117077, Note_on_c, 0, 56, 44
1, 117128, Control_c, 0, 64, 103
1, 117143, Control_c, 0, 64, 102
1, 117173, Control_c, 0, 64, 100
1, 117187, Control_c, 0, 64, 97
1, 117202, Control_c, 0, 64, 87
1, 117213, Note_on_c, 0, 49, 42
1, 117217, Control_c, 0, 64, 76
1, 117225, Note_off_c, 0, 56, 35
1, 117232, Control_c, 0, 64, 67
1, 117247, Control_c, 0, 64, 62
1, 117277, Control_c, 0, 64, 64
1, 117292, Control_c, 0, 64, 65
1, 117306, Control_c, 0, 64, 67
1, 117321, Control_c, 0, 64, 71
1, 117336, Control_c, 0, 64, 76
1, 117345, Note_off_c, 0, 49, 58
1, 117350, Control_c, 0, 64, 81
1, 117365, Note_on_c, 0, 52, 48
1, 117365, Control_c, 0, 64, 85
1, 117373, Note_off_c, 0, 64, 57
1, 117380, Control_c, 0, 64, 87
1, 117395, Control_c, 0, 64, 89
1, 117397, Note_off_c, 0, 76, 62
1, 117410, Control_c, 0, 64, 91
1, 117424, Control_c, 0, 64, 91
1, 117454, Control_c, 0, 64, 92
1, 117510, Note_off_c, 0, 52, 35
1, 117521, Note_on_c, 0, 58, 47
1, 117632, Control_c, 0, 64, 91
1, 117655, Note_on_c, 0, 47, 38
1, 117662, Control_c, 0, 64, 91
1, 117674, Note_off_c, 0, 58, 33
1, 117677, Control_c, 0, 64, 90
1, 117680, Note_on_c, 0, 63, 49
1, 117685, Note_on_c, 0, 75, 56
1, 117692, Control_c, 0, 64, 88
1, 117715, Control_c, 0, 64, 85
1, 117729, Control_c, 0, 64, 79
1, 117744, Control_c, 0, 64, 71
1, 117759, Control_c, 0, 64, 64
1, 117774, Control_c, 0, 64, 59
1, 117788, Control_c, 0, 64, 58
1, 117803, Control_c, 0, 64, 58
1, 117818, Control_c, 0, 64, 60
1, 117833, Control_c, 0, 64, 61
1, 117848, Control_c, 0, 64, 63
1, 117862, Control_c, 0, 64, 66
1, 117877, Control_c, 0, 64, 68
1, 117883, Note_on_c, 0, 54, 41
1, 117892, Control_c, 0, 64, 71
1, 117907, Control_c, 0, 64, 74
1, 117912, Note_off_c, 0, 47, 40
1, 117922, Control_c, 0, 64, 78
1, 117936, Control_c, 0, 64, 81
1, 117943, Note_off_c, 0, 63, 35
1, 117951, Control_c, 0, 64, 86
1, 117966, Control_c, 0, 64, 89
1, 117980, Control_c, 0, 64, 93
1, 117995, Control_c, 0, 64, 96
1, 118010, Control_c, 0, 64, 97
1, 118018, Note_off_c, 0, 54, 37
1, 118040, Control_c, 0, 64, 97
1, 118046, Note_on_c, 0, 59, 37
1, 118126, Note_off_c, 0, 59, 46
1, 118169, Note_on_c, 0, 47, 36
1, 118218, Control_c, 0, 64, 97
1, 118307, Control_c, 0, 64, 96
1, 118316, Note_on_c, 0, 54, 42
1, 118326, Note_off_c, 0, 47, 35
1, 118413, Note_off_c, 0, 54, 51
1, 118479, Note_on_c, 0, 59, 43
1, 118513, Note_off_c, 0, 75, 35
1, 118552, Control_c, 0, 64, 96
1, 118567, Control_c, 0, 64, 95
1, 118611, Control_c, 0, 64, 95
1, 118627, Note_off_c, 0, 59, 36
1, 118641, Control_c, 0, 64, 94
1, 118646, Note_on_c, 0, 52, 44
1, 118671, Control_c, 0, 64, 94
1, 118681, Note_on_c, 0, 73, 65
1, 118685, Control_c, 0, 64, 93
1, 118700, Control_c, 0, 64, 92
1, 118715, Control_c, 0, 64, 91
1, 118730, Control_c, 0, 64, 89
1, 118745, Control_c, 0, 64, 85
1, 118759, Control_c, 0, 64, 79
1, 118774, Control_c, 0, 64, 72
1, 118789, Control_c, 0, 64, 64
1, 118803, Control_c, 0, 64, 59
1, 118818, Control_c, 0, 64, 58
1, 118848, Control_c, 0, 64, 59
1, 118863, Control_c, 0, 64, 60
1, 118869, Note_on_c, 0, 56, 39
1, 118878, Control_c, 0, 64, 63
1, 118893, Control_c, 0, 64, 65
1, 118907, Control_c, 0, 64, 67
1, 118922, Control_c, 0, 64, 70
1, 118923, Note_off_c, 0, 52, 36
1, 118937, Control_c, 0, 64, 73
1, 118952, Control_c, 0, 64, 76
1, 118967, Control_c, 0, 64, 79
1, 118982, Control_c, 0, 64, 81
1, 118996, Control_c, 0, 64, 82
1, 119003, Note_on_c, 0, 61, 41
1, 119011, Control_c, 0, 64, 82
1, 119026, Control_c, 0, 64, 83
1, 119039, Note_off_c, 0, 56, 42
1, 119041, Control_c, 0, 64, 84
1, 119056, Control_c, 0, 64, 85
1, 119098, Note_off_c, 0, 61, 46
1, 119135, Note_on_c, 0, 52, 35
1, 119292, Note_off_c, 0, 52, 37
1, 119295, Note_on_c, 0, 54, 41
1, 119387, Note_off_c, 0, 54, 44
1, 119429, Note_on_c, 0, 58, 42
1, 119444, Note_off_c, 0, 73, 32
1, 119492, Control_c, 0, 64, 84
1, 119536, Note_off_c, 0, 58, 38
1, 119552, Control_c, 0, 64, 84
1, 119567, Control_c, 0, 64, 83
1, 119590, Note_on_c, 0, 51, 33
1, 119596, Control_c, 0, 64, 82
1, 119605, Note_on_c, 0, 71, 55
1, 119611, Control_c, 0, 64, 81
1, 119626, Control_c, 0, 64, 79
1, 119641, Control_c, 0, 64, 75
1, 119656, Control_c, 0, 64, 70
1, 119671, Control_c, 0, 64, 64
1, 119685, Control_c, 0, 64, 60
1, 119700, Control_c, 0, 64, 57
1, 119730, Control_c, 0, 64, 58
1, 119744, Control_c, 0, 64, 60
1, 119759, Control_c, 0, 64, 62
1, 119760, Note_on_c, 0, 54, 39
1, 119774, Control_c, 0, 64, 64
1, 119789, Control_c, 0, 64, 67
1, 119804, Control_c, 0, 64, 69
1, 119811, Note_off_c, 0, 51, 40
1, 119818, Control_c, 0, 64, 73
1, 119833, Control_c, 0, 64, 75
1, 119848, Control_c, 0, 64, 77
1, 119863, Control_c, 0, 64, 79
1, 119878, Control_c, 0, 64, 81
1, 119887, Note_off_c, 0, 54, 35
1, 119892, Control_c, 0, 64, 84
1, 119900, Note_on_c, 0, 59, 37
1, 119907, Control_c, 0, 64, 86
1, 119922, Control_c, 0, 64, 88
1, 119937, Control_c, 0, 64, 89
1, 119959, Control_c, 0, 64, 89
1, 119974, Control_c, 0, 64, 90
1, 119989, Control_c, 0, 64, 90
1, 120003, Note_off_c, 0, 59, 49
1, 120004, Control_c, 0, 64, 91
1, 120048, Note_on_c, 0, 51, 34
1, 120127, Note_off_c, 0, 71, 31
1, 120199, Note_on_c, 0, 55, 33
1, 120230, Note_off_c, 0, 51, 39
1, 120285, Note_on_c, 0, 70, 49
1, 120288, Note_off_c, 0, 55, 40
1, 120356, Note_on_c, 0, 61, 35
1, 120375, Control_c, 0, 64, 90
1, 120389, Note_off_c, 0, 70, 54
1, 120546, Note_off_c, 0, 61, 28
1, 120571, Note_on_c, 0, 52, 37
1, 120605, Note_on_c, 0, 68, 56
1, 120612, Control_c, 0, 64, 90
1, 120627, Control_c, 0, 64, 89
1, 120642, Control_c, 0, 64, 86
1, 120657, Control_c, 0, 64, 80
1, 120672, Control_c, 0, 64, 71
1, 120687, Control_c, 0, 64, 64
1, 120709, Control_c, 0, 64, 61
1, 120723, Control_c, 0, 64, 62
1, 120738, Control_c, 0, 64, 63
1, 120753, Control_c, 0, 64, 65
1, 120768, Control_c, 0, 64, 69
1, 120782, Control_c, 0, 64, 74
1, 120791, Note_off_c, 0, 68, 55
1, 120797, Control_c, 0, 64, 80
1, 120803, Note_on_c, 0, 56, 35
1, 120812, Control_c, 0, 64, 85
1, 120821, Note_off_c, 0, 52, 41
1, 120827, Control_c, 0, 64, 89
1, 120842, Control_c, 0, 64, 94
1, 120858, Control_c, 0, 64, 98
1, 120870, Note_off_c, 0, 56, 57
1, 120872, Control_c, 0, 64, 100
1, 120902, Control_c, 0, 64, 101
1, 120917, Control_c, 0, 64, 101
1, 120932, Note_on_c, 0, 59, 36
1, 120998, Note_on_c, 0, 68, 53
1, 121022, Note_off_c, 0, 59, 52
1, 121080, Control_c, 0, 64, 101
1, 121082, Note_off_c, 0, 68, 53
1, 121088, Note_on_c, 0, 56, 43
1, 121095, Control_c, 0, 64, 100
1, 121101, Note_on_c, 0, 76, 69
1, 121110, Control_c, 0, 64, 99
1, 121125, Control_c, 0, 64, 96
1, 121140, Control_c, 0, 64, 92
1, 121154, Control_c, 0, 64, 83
1, 121169, Control_c, 0, 64, 73
1, 121184, Control_c, 0, 64, 65
1, 121198, Control_c, 0, 64, 60
1, 121213, Control_c, 0, 64, 60
1, 121228, Control_c, 0, 64, 61
1, 121243, Control_c, 0, 64, 63
1, 121258, Control_c, 0, 64, 65
1, 121272, Control_c, 0, 64, 68
1, 121287, Control_c, 0, 64, 72
1, 121302, Control_c, 0, 64, 77
1, 121306, Note_on_c, 0, 59, 44
1, 121317, Control_c, 0, 64, 81
1, 121332, Control_c, 0, 64, 84
1, 121346, Control_c, 0, 64, 86
1, 121361, Control_c, 0, 64, 87
1, 121362, Note_off_c, 0, 56, 33
1, 121400, Note_off_c, 0, 59, 57
1, 121405, Control_c, 0, 64, 87
1, 121426, Note_on_c, 0, 64, 49
1, 121502, Control_c, 0, 64, 87
1, 121506, Note_off_c, 0, 64, 44
1, 121523, Note_off_c, 0, 76, 56
1, 121574, Note_on_c, 0, 54, 45
1, 121576, Note_on_c, 0, 75, 63
1, 121591, Control_c, 0, 64, 86
1, 121605, Control_c, 0, 64, 86
1, 121620, Control_c, 0, 64, 84
1, 121635, Control_c, 0, 64, 81
1, 121651, Control_c, 0, 64, 75
1, 121666, Control_c, 0, 64, 68
1, 121681, Control_c, 0, 64, 62
1, 121695, Control_c, 0, 64, 59
1, 121725, Control_c, 0, 64, 61
1, 121740, Control_c, 0, 64, 62
1, 121755, Control_c, 0, 64, 64
1, 121769, Note_on_c, 0, 59, 32
1, 121769, Control_c, 0, 64, 67
1, 121784, Control_c, 0, 64, 70
1, 121794, Note_off_c, 0, 54, 35
1, 121799, Control_c, 0, 64, 74
1, 121814, Control_c, 0, 64, 78
1, 121829, Control_c, 0, 64, 82
1, 121844, Control_c, 0, 64, 85
1, 121859, Control_c, 0, 64, 88
1, 121873, Control_c, 0, 64, 90
1, 121888, Control_c, 0, 64, 90
1, 121903, Note_on_c, 0, 63, 34
1, 121918, Control_c, 0, 64, 91
1, 121931, Note_off_c, 0, 59, 29
1, 122038, Note_off_c, 0, 63, 24
1, 122039, Note_on_c, 0, 54, 39
1, 122051, Control_c, 0, 64, 90
1, 122056, Note_on_c, 0, 73, 54
1, 122066, Control_c, 0, 64, 90
1, 122081, Control_c, 0, 64, 89
1, 122095, Control_c, 0, 64, 86
1, 122110, Control_c, 0, 64, 80
1, 122125, Control_c, 0, 64, 71
1, 122140, Control_c, 0, 64, 63
1, 122145, Note_off_c, 0, 75, 22
1, 122155, Control_c, 0, 64, 60
1, 122169, Control_c, 0, 64, 60
1, 122184, Control_c, 0, 64, 62
1, 122207, Control_c, 0, 64, 63
1, 122221, Control_c, 0, 64, 65
1, 122236, Note_off_c, 0, 54, 42
1, 122236, Control_c, 0, 64, 68
1, 122249, Note_on_c, 0, 58, 35
1, 122251, Control_c, 0, 64, 71
1, 122266, Control_c, 0, 64, 75
1, 122281, Control_c, 0, 64, 79
1, 122295, Control_c, 0, 64, 82
1, 122310, Control_c, 0, 64, 85
1, 122325, Control_c, 0, 64, 88
1, 122340, Control_c, 0, 64, 90
1, 122355, Control_c, 0, 64, 93
1, 122357, Note_off_c, 0, 58, 49
1, 122369, Control_c, 0, 64, 94
1, 122384, Control_c, 0, 64, 96
1, 122399, Control_c, 0, 64, 97
1, 122408, Note_on_c, 0, 61, 37
1, 122414, Control_c, 0, 64, 98
1, 122428, Control_c, 0, 64, 99
1, 122474, Control_c, 0, 64, 99
1, 122499, Note_off_c, 0, 61, 47
1, 122622, Control_c, 0, 64, 99
1, 122640, Note_on_c, 0, 47, 32
1, 122666, Control_c, 0, 64, 98
1, 122668, Note_on_c, 0, 71, 51
1, 122681, Control_c, 0, 64, 98
1, 122696, Control_c, 0, 64, 97
1, 122711, Control_c, 0, 64, 95
1, 122726, Control_c, 0, 64, 92
1, 122741, Control_c, 0, 64, 88
1, 122756, Control_c, 0, 64, 82
1, 122771, Control_c, 0, 64, 74
1, 122786, Control_c, 0, 64, 67
1, 122789, Note_off_c, 0, 73, 31
1, 122800, Control_c, 0, 64, 62
1, 122815, Control_c, 0, 64, 60
1, 122844, Control_c, 0, 64, 61
1, 122859, Control_c, 0, 64, 62
1, 122874, Control_c, 0, 64, 63
1, 122887, Note_on_c, 0, 51, 38
1, 122889, Control_c, 0, 64, 65
1, 122904, Control_c, 0, 64, 68
1, 122918, Control_c, 0, 64, 71
1, 122926, Note_off_c, 0, 47, 35
1, 122933, Control_c, 0, 64, 74
1, 122955, Control_c, 0, 64, 77
1, 122970, Control_c, 0, 64, 80
1, 122985, Control_c, 0, 64, 83
1, 123000, Note_off_c, 0, 51, 37
1, 123000, Control_c, 0, 64, 86
1, 123015, Control_c, 0, 64, 88
1, 123030, Control_c, 0, 64, 92
1, 123039, Note_on_c, 0, 59, 40
1, 123044, Control_c, 0, 64, 95
1, 123059, Control_c, 0, 64, 98
1, 123074, Control_c, 0, 64, 99
1, 123159, Note_off_c, 0, 59, 49
1, 123173, Note_on_c, 0, 51, 40
1, 123335, Note_on_c, 0, 54, 44
1, 123357, Note_off_c, 0, 51, 41
1, 123402, Note_off_c, 0, 71, 39
1, 123478, Note_on_c, 0, 59, 36
1, 123494, Note_off_c, 0, 54, 32
1, 123605, Note_on_c, 0, 50, 43
1, 123608, Control_c, 0, 64, 97
1, 123623, Control_c, 0, 64, 92
1, 123634, Note_off_c, 0, 59, 32
1, 123638, Control_c, 0, 64, 81
1, 123653, Control_c, 0, 64, 72
1, 123667, Control_c, 0, 64, 66
1, 123682, Control_c, 0, 64, 67
1, 123704, Control_c, 0, 64, 69
1, 123719, Control_c, 0, 64, 72
1, 123734, Control_c, 0, 64, 76
1, 123748, Control_c, 0, 64, 82
1, 123763, Control_c, 0, 64, 88
1, 123768, Note_on_c, 0, 53, 50
1, 123778, Control_c, 0, 64, 92
1, 123793, Control_c, 0, 64, 95
1, 123808, Control_c, 0, 64, 96
1, 123823, Control_c, 0, 64, 97
1, 123845, Note_off_c, 0, 53, 57
1, 123901, Note_on_c, 0, 59, 45
1, 124030, Control_c, 0, 64, 97
1, 124038, Note_on_c, 0, 71, 70
1, 124040, Note_on_c, 0, 51, 50
1, 124044, Note_off_c, 0, 50, 39
1, 124046, Control_c, 0, 64, 94
1, 124052, Note_off_c, 0, 59, 35
1, 124061, Control_c, 0, 64, 90
1, 124076, Control_c, 0, 64, 81
1, 124090, Control_c, 0, 64, 71
1, 124105, Control_c, 0, 64, 64
1, 124120, Control_c, 0, 64, 63
1, 124135, Control_c, 0, 64, 64
1, 124150, Control_c, 0, 64, 66
1, 124164, Control_c, 0, 64, 69
1, 124179, Control_c, 0, 64, 74
1, 124183, Note_off_c, 0, 51, 56
1, 124189, Note_on_c, 0, 54, 51
1, 124194, Control_c, 0, 64, 81
1, 124209, Control_c, 0, 64, 87
1, 124223, Control_c, 0, 64, 91
1, 124238, Control_c, 0, 64, 94
1, 124253, Control_c, 0, 64, 96
1, 124263, Note_off_c, 0, 54, 61
1, 124268, Control_c, 0, 64, 97
1, 124286, Note_on_c, 0, 59, 53
1, 124319, Note_off_c, 0, 71, 49
1, 124357, Note_on_c, 0, 75, 69
1, 124417, Note_off_c, 0, 59, 37
1, 124448, Note_on_c, 0, 47, 38
1, 124479, Note_off_c, 0, 75, 55
1, 124483, Control_c, 0, 64, 95
1, 124490, Note_on_c, 0, 78, 69
1, 124497, Note_on_c, 0, 66, 53
1, 124497, Control_c, 0, 64, 93
1, 124512, Control_c, 0, 64, 87
1, 124526, Control_c, 0, 64, 78
1, 124541, Control_c, 0, 64, 68
1, 124556, Control_c, 0, 64, 62
1, 124571, Control_c, 0, 64, 59
1, 124586, Control_c, 0, 64, 60
1, 124601, Control_c, 0, 64, 61
1, 124615, Control_c, 0, 64, 63
1, 124630, Control_c, 0, 64, 66
1, 124645, Control_c, 0, 64, 70
1, 124660, Control_c, 0, 64, 75
1, 124669, Note_on_c, 0, 51, 47
1, 124675, Control_c, 0, 64, 80
1, 124678, Note_off_c, 0, 47, 41
1, 124689, Control_c, 0, 64, 82
1, 124690, Note_off_c, 0, 66, 49
1, 124704, Control_c, 0, 64, 84
1, 124717, Note_off_c, 0, 78, 53
1, 124719, Control_c, 0, 64, 87
1, 124734, Control_c, 0, 64, 89
1, 124749, Control_c, 0, 64, 91
1, 124763, Control_c, 0, 64, 92
1, 124773, Note_off_c, 0, 51, 56
1, 124778, Control_c, 0, 64, 93
1, 124804, Note_on_c, 0, 54, 46
1, 124942, Control_c, 0, 64, 92
1, 124944, Note_on_c, 0, 78, 81
1, 124947, Note_on_c, 0, 66, 63
1, 124948, Note_on_c, 0, 47, 43
1, 124957, Note_off_c, 0, 54, 35
1, 124957, Control_c, 0, 64, 90
1, 124972, Control_c, 0, 64, 86
1, 124986, Control_c, 0, 64, 78
1, 125001, Control_c, 0, 64, 71
1, 125016, Control_c, 0, 64, 66
1, 125045, Control_c, 0, 64, 68
1, 125060, Control_c, 0, 64, 71
1, 125075, Control_c, 0, 64, 76
1, 125090, Control_c, 0, 64, 83
1, 125091, Note_on_c, 0, 51, 61
1, 125105, Control_c, 0, 64, 91
1, 125107, Note_off_c, 0, 47, 34
1, 125120, Control_c, 0, 64, 100
1, 125135, Note_off_c, 0, 78, 53
1, 125135, Control_c, 0, 64, 105
1, 125149, Control_c, 0, 64, 107
1, 125157, Note_off_c, 0, 66, 55
1, 125164, Control_c, 0, 64, 108
1, 125179, Control_c, 0, 64, 108
1, 125201, Control_c, 0, 64, 109
1, 125216, Control_c, 0, 64, 111
1, 125218, Note_off_c, 0, 51, 58
1, 125221, Note_on_c, 0, 54, 67
1, 125231, Control_c, 0, 64, 114
1, 125245, Control_c, 0, 64, 121
1, 125260, Control_c, 0, 64, 127
1, 125355, Note_off_c, 0, 54, 55
1, 125355, Note_on_c, 0, 46, 58
1, 125380, Note_on_c, 0, 79, 86
1, 125382, Note_on_c, 0, 67, 75
1, 125409, Control_c, 0, 64, 95
1, 125424, Control_c, 0, 64, 76
1, 125438, Control_c, 0, 64, 65
1, 125453, Control_c, 0, 64, 59
1, 125468, Control_c, 0, 64, 61
1, 125483, Control_c, 0, 64, 64
1, 125498, Control_c, 0, 64, 67
1, 125512, Control_c, 0, 64, 73
1, 125527, Control_c, 0, 64, 81
1, 125529, Note_on_c, 0, 49, 65
1, 125539, Note_off_c, 0, 46, 59
1, 125542, Control_c, 0, 64, 92
1, 125547, Note_off_c, 0, 67, 59
1, 125557, Control_c, 0, 64, 101
1, 125558, Note_off_c, 0, 79, 64
1, 125571, Control_c, 0, 64, 111
1, 125586, Control_c, 0, 64, 127
1, 125662, Note_off_c, 0, 49, 60
1, 125664, Note_on_c, 0, 51, 73
1, 125782, Note_off_c, 0, 51, 63
1, 125790, Note_on_c, 0, 44, 64
1, 125819, Note_on_c, 0, 80, 94
1, 125823, Note_on_c, 0, 68, 85
1, 125839, Control_c, 0, 64, 106
1, 125854, Control_c, 0, 64, 80
1, 125868, Control_c, 0, 64, 65
1, 125883, Control_c, 0, 64, 63
1, 125898, Control_c, 0, 64, 66
1, 125913, Control_c, 0, 64, 69
1, 125928, Control_c, 0, 64, 75
1, 125950, Control_c, 0, 64, 87
1, 125960, Note_off_c, 0, 68, 61
1, 125965, Control_c, 0, 64, 114
1, 125980, Control_c, 0, 64, 127
1, 125985, Note_off_c, 0, 80, 63
1, 125987, Note_on_c, 0, 49, 69
1, 125995, Note_off_c, 0, 44, 55
1, 126119, Note_off_c, 0, 49, 59
1, 126121, Note_on_c, 0, 51, 69
1, 126220, Note_on_c, 0, 43, 55
1, 126226, Note_off_c, 0, 51, 61
1, 126292, Note_on_c, 0, 82, 93
1, 126293, Note_on_c, 0, 70, 86
1, 126320, Control_c, 0, 64, 105
1, 126334, Control_c, 0, 64, 78
1, 126349, Control_c, 0, 64, 66
1, 126364, Control_c, 0, 64, 58
1, 126393, Control_c, 0, 64, 62
1, 126408, Control_c, 0, 64, 65
1, 126423, Control_c, 0, 64, 70
1, 126439, Control_c, 0, 64, 78
1, 126446, Note_off_c, 0, 70, 59
1, 126454, Control_c, 0, 64, 89
1, 126467, Note_off_c, 0, 43, 57
1, 126469, Control_c, 0, 64, 98
1, 126473, Note_off_c, 0, 82, 60
1, 126473, Note_on_c, 0, 49, 52
1, 126483, Control_c, 0, 64, 101
1, 126498, Control_c, 0, 64, 104
1, 126513, Control_c, 0, 64, 105
1, 126528, Control_c, 0, 64, 106
1, 126543, Control_c, 0, 64, 106
1, 126587, Control_c, 0, 64, 107
1, 126641, Note_on_c, 0, 51, 55
1, 126651, Note_off_c, 0, 49, 51
1, 126713, Control_c, 0, 64, 106
1, 126728, Control_c, 0, 64, 106
1, 126787, Control_c, 0, 64, 105
1, 126792, Note_on_c, 0, 43, 40
1, 126793, Note_off_c, 0, 51, 36
1, 126816, Control_c, 0, 64, 105
1, 126861, Control_c, 0, 64, 104
1, 126875, Note_on_c, 0, 85, 77
1, 126875, Note_on_c, 0, 73, 65
1, 126876, Control_c, 0, 64, 102
1, 126890, Control_c, 0, 64, 95
1, 126905, Control_c, 0, 64, 86
1, 126920, Control_c, 0, 64, 74
1, 126935, Control_c, 0, 64, 65
1, 126950, Control_c, 0, 64, 59
1, 126965, Control_c, 0, 64, 57
1, 126980, Control_c, 0, 64, 59
1, 126995, Control_c, 0, 64, 61
1, 127009, Control_c, 0, 64, 64
1, 127024, Control_c, 0, 64, 66
1, 127039, Control_c, 0, 64, 70
1, 127054, Control_c, 0, 64, 74
1, 127063, Note_on_c, 0, 46, 42
1, 127069, Control_c, 0, 64, 78
1, 127083, Control_c, 0, 64, 82
1, 127093, Note_off_c, 0, 43, 33
1, 127098, Control_c, 0, 64, 86
1, 127112, Note_off_c, 0, 85, 54
1, 127113, Control_c, 0, 64, 91
1, 127128, Control_c, 0, 64, 94
1, 127134, Note_off_c, 0, 73, 54
1, 127143, Control_c, 0, 64, 97
1, 127157, Control_c, 0, 64, 99
1, 127172, Control_c, 0, 64, 99
1, 127199, Note_off_c, 0, 46, 49
1, 127226, Note_on_c, 0, 51, 49
1, 127351, Control_c, 0, 64, 97
1, 127366, Control_c, 0, 64, 94
1, 127377, Note_on_c, 0, 83, 62
1, 127378, Note_off_c, 0, 51, 34
1, 127379, Note_on_c, 0, 44, 36
1, 127380, Control_c, 0, 64, 86
1, 127381, Note_on_c, 0, 71, 52
1, 127395, Control_c, 0, 64, 75
1, 127410, Control_c, 0, 64, 66
1, 127425, Control_c, 0, 64, 60
1, 127447, Control_c, 0, 64, 58
1, 127462, Control_c, 0, 64, 60
1, 127477, Control_c, 0, 64, 61
1, 127492, Control_c, 0, 64, 63
1, 127507, Control_c, 0, 64, 66
1, 127522, Control_c, 0, 64, 69
1, 127537, Control_c, 0, 64, 74
1, 127541, Note_off_c, 0, 83, 60
1, 127552, Control_c, 0, 64, 80
1, 127561, Note_off_c, 0, 71, 40
1, 127567, Note_on_c, 0, 47, 41
1, 127567, Control_c, 0, 64, 85
1, 127582, Control_c, 0, 64, 88
1, 127583, Note_off_c, 0, 44, 38
1, 127596, Control_c, 0, 64, 92
1, 127611, Control_c, 0, 64, 95
1, 127626, Control_c, 0, 64, 96
1, 127628, Note_off_c, 0, 47, 59
1, 127640, Control_c, 0, 64, 97
1, 127655, Control_c, 0, 64, 99
1, 127696, Note_on_c, 0, 51, 43
1, 127818, Control_c, 0, 64, 97
1, 127832, Control_c, 0, 64, 93
1, 127834, Note_on_c, 0, 82, 61
1, 127834, Note_off_c, 0, 51, 42
1, 127841, Note_on_c, 0, 49, 42
1, 127845, Note_on_c, 0, 70, 42
1, 127847, Control_c, 0, 64, 85
1, 127862, Control_c, 0, 64, 74
1, 127877, Control_c, 0, 64, 65
1, 127892, Control_c, 0, 64, 60
1, 127907, Control_c, 0, 64, 61
1, 127922, Control_c, 0, 64, 63
1, 127937, Control_c, 0, 64, 64
1, 127951, Control_c, 0, 64, 67
1, 127966, Control_c, 0, 64, 71
1, 127967, Note_off_c, 0, 70, 62
1, 127981, Note_off_c, 0, 82, 61
1, 127981, Control_c, 0, 64, 75
1, 127996, Control_c, 0, 64, 79
1, 128011, Control_c, 0, 64, 81
1, 128014, Note_on_c, 0, 52, 47
1, 128026, Control_c, 0, 64, 83
1, 128041, Control_c, 0, 64, 85
1, 128056, Control_c, 0, 64, 86
1, 128071, Control_c, 0, 64, 86
1, 128087, Note_off_c, 0, 52, 46
1, 128096, Note_off_c, 0, 49, 31
1, 128101, Control_c, 0, 64, 87
1, 128115, Control_c, 0, 64, 87
1, 128168, Note_on_c, 0, 58, 46
1, 128199, Note_on_c, 0, 80, 57
1, 128215, Note_on_c, 0, 68, 40
1, 128243, Note_off_c, 0, 58, 47
1, 128282, Note_off_c, 0, 80, 58
1, 128305, Note_off_c, 0, 68, 34
1, 128311, Note_on_c, 0, 51, 48
1, 128315, Control_c, 0, 64, 86
1, 128330, Control_c, 0, 64, 83
1, 128345, Control_c, 0, 64, 78
1, 128354, Note_on_c, 0, 79, 59
1, 128360, Note_on_c, 0, 67, 51
1, 128360, Control_c, 0, 64, 69
1, 128375, Control_c, 0, 64, 62
1, 128390, Control_c, 0, 64, 57
1, 128405, Control_c, 0, 64, 58
1, 128419, Control_c, 0, 64, 60
1, 128434, Control_c, 0, 64, 62
1, 128449, Control_c, 0, 64, 64
1, 128463, Control_c, 0, 64, 67
1, 128478, Control_c, 0, 64, 73
1, 128493, Control_c, 0, 64, 77
1, 128500, Note_off_c, 0, 79, 55
1, 128503, Note_on_c, 0, 58, 41
1, 128508, Control_c, 0, 64, 81
1, 128517, Note_off_c, 0, 51, 36
1, 128518, Note_off_c, 0, 67, 50
1, 128523, Control_c, 0, 64, 83
1, 128537, Control_c, 0, 64, 86
1, 128552, Control_c, 0, 64, 87
1, 128567, Control_c, 0, 64, 88
1, 128597, Control_c, 0, 64, 89
1, 128611, Control_c, 0, 64, 89
1, 128626, Control_c, 0, 64, 90
1, 128627, Note_on_c, 0, 61, 43
1, 128635, Note_off_c, 0, 58, 37
1, 128729, Note_off_c, 0, 61, 36
1, 128757, Note_on_c, 0, 51, 43
1, 128789, Control_c, 0, 64, 89
1, 128792, Note_on_c, 0, 79, 63
1, 128804, Note_on_c, 0, 67, 49
1, 128804, Control_c, 0, 64, 88
1, 128819, Control_c, 0, 64, 86
1, 128834, Control_c, 0, 64, 81
1, 128849, Control_c, 0, 64, 72
1, 128864, Control_c, 0, 64, 64
1, 128879, Control_c, 0, 64, 60
1, 128908, Control_c, 0, 64, 61
1, 128923, Control_c, 0, 64, 63
1, 128942, Note_off_c, 0, 51, 51
1, 128946, Control_c, 0, 64, 65
1, 128960, Note_on_c, 0, 58, 36
1, 128960, Note_off_c, 0, 79, 61
1, 128960, Control_c, 0, 64, 68
1, 128975, Note_off_c, 0, 67, 36
1, 128975, Control_c, 0, 64, 72
1, 128990, Control_c, 0, 64, 77
1, 129005, Control_c, 0, 64, 80
1, 129020, Control_c, 0, 64, 82
1, 129034, Control_c, 0, 64, 82
1, 129064, Control_c, 0, 64, 81
1, 129079, Control_c, 0, 64, 81
1, 129102, Note_off_c, 0, 58, 36
1, 129105, Note_on_c, 0, 61, 39
1, 129181, Note_off_c, 0, 61, 47
1, 129218, Note_on_c, 0, 51, 40
1, 129254, Note_on_c, 0, 80, 60
1, 129257, Control_c, 0, 64, 79
1, 129262, Note_on_c, 0, 68, 44
1, 129272, Control_c, 0, 64, 75
1, 129286, Control_c, 0, 64, 68
1, 129301, Control_c, 0, 64, 63
1, 129331, Control_c, 0, 64, 65
1, 129346, Control_c, 0, 64, 68
1, 129360, Control_c, 0, 64, 70
1, 129373, Note_off_c, 0, 80, 53
1, 129375, Control_c, 0, 64, 74
1, 129390, Control_c, 0, 64, 77
1, 129404, Note_on_c, 0, 58, 42
1, 129404, Control_c, 0, 64, 80
1, 129412, Note_off_c, 0, 51, 39
1, 129419, Control_c, 0, 64, 81
1, 129427, Note_off_c, 0, 68, 37
1, 129434, Control_c, 0, 64, 82
1, 129449, Control_c, 0, 64, 82
1, 129493, Note_on_c, 0, 79, 70
1, 129496, Note_off_c, 0, 58, 54
1, 129501, Note_on_c, 0, 67, 51
1, 129523, Control_c, 0, 64, 83
1, 129538, Control_c, 0, 64, 83
1, 129543, Note_off_c, 0, 67, 62
1, 129549, Note_on_c, 0, 61, 38
1, 129564, Note_off_c, 0, 79, 59
1, 129628, Control_c, 0, 64, 84
1, 129663, Note_off_c, 0, 61, 36
1, 129672, Control_c, 0, 64, 83
1, 129684, Note_on_c, 0, 51, 49
1, 129695, Control_c, 0, 64, 81
1, 129710, Control_c, 0, 64, 77
1, 129712, Note_on_c, 0, 77, 70
1, 129723, Note_on_c, 0, 65, 59
1, 129724, Control_c, 0, 64, 70
1, 129739, Control_c, 0, 64, 64
1, 129754, Control_c, 0, 64, 61
1, 129768, Control_c, 0, 64, 62
1, 129782, Control_c, 0, 64, 64
1, 129783, Note_off_c, 0, 65, 55
1, 129797, Control_c, 0, 64, 65
1, 129812, Control_c, 0, 64, 67
1, 129827, Control_c, 0, 64, 71
1, 129842, Control_c, 0, 64, 76
1, 129847, Note_on_c, 0, 58, 50
1, 129856, Control_c, 0, 64, 81
1, 129871, Control_c, 0, 64, 85
1, 129886, Control_c, 0, 64, 85
1, 129889, Note_off_c, 0, 51, 34
1, 129901, Control_c, 0, 64, 86
1, 129916, Note_off_c, 0, 77, 51
1, 129920, Note_on_c, 0, 79, 78
1, 129930, Note_on_c, 0, 67, 61
1, 129946, Control_c, 0, 64, 86
1, 129961, Control_c, 0, 64, 87
1, 129980, Note_off_c, 0, 58, 38
1, 129999, Note_off_c, 0, 67, 63
1, 130019, Note_off_c, 0, 79, 65
1, 130038, Note_on_c, 0, 61, 50
1, 130094, Control_c, 0, 64, 86
1, 130166, Note_off_c, 0, 61, 36
1, 130168, Control_c, 0, 64, 86
1, 130187, Note_on_c, 0, 56, 44
1, 130197, Control_c, 0, 64, 85
1, 130212, Control_c, 0, 64, 84
1, 130226, Control_c, 0, 64, 82
1, 130241, Control_c, 0, 64, 78
1, 130254, Note_on_c, 0, 80, 58
1, 130256, Control_c, 0, 64, 72
1, 130262, Note_on_c, 0, 68, 48
1, 130271, Control_c, 0, 64, 66
1, 130286, Control_c, 0, 64, 61
1, 130300, Control_c, 0, 64, 56
1, 130315, Control_c, 0, 64, 54
1, 130330, Control_c, 0, 64, 54
1, 130345, Control_c, 0, 64, 54
1, 130360, Control_c, 0, 64, 56
1, 130375, Control_c, 0, 64, 59
1, 130390, Control_c, 0, 64, 62
1, 130405, Control_c, 0, 64, 64
1, 130420, Control_c, 0, 64, 67
1, 130443, Control_c, 0, 64, 70
1, 130457, Control_c, 0, 64, 74
1, 130461, Note_on_c, 0, 60, 41
1, 130472, Control_c, 0, 64, 78
1, 130487, Control_c, 0, 64, 82
1, 130500, Note_off_c, 0, 68, 35
1, 130500, Note_off_c, 0, 80, 53
1, 130502, Control_c, 0, 64, 85
1, 130512, Note_off_c, 0, 56, 30
1, 130517, Control_c, 0, 64, 87
1, 130531, Control_c, 0, 64, 90
1, 130534, Note_off_c, 0, 60, 53
1, 130546, Control_c, 0, 64, 91
1, 130561, Control_c, 0, 64, 92
1, 130614, Note_on_c, 0, 63, 33
1, 130724, Note_off_c, 0, 63, 31
1, 130773, Note_on_c, 0, 60, 34
1, 130798, Control_c, 0, 64, 91
1, 130891, Note_on_c, 0, 63, 24
1, 130931, Control_c, 0, 64, 91
1, 130965, Note_off_c, 0, 60, 37
1, 131035, Control_c, 0, 64, 90
1, 131038, Note_on_c, 0, 68, 40
1, 131049, Note_off_c, 0, 63, 35
1, 131064, Control_c, 0, 64, 90
1, 131123, Control_c, 0, 64, 89
1, 131138, Control_c, 0, 64, 88
1, 131153, Control_c, 0, 64, 86
1, 131168, Control_c, 0, 64, 83
1, 131183, Note_on_c, 0, 59, 40
1, 131191, Control_c, 0, 64, 79
1, 131192, Note_off_c, 0, 68, 32
1, 131205, Control_c, 0, 64, 73
1, 131220, Control_c, 0, 64, 66
1, 131236, Control_c, 0, 64, 62
1, 131251, Control_c, 0, 64, 60
1, 131266, Control_c, 0, 64, 60
1, 131281, Control_c, 0, 64, 61
1, 131296, Control_c, 0, 64, 63
1, 131311, Control_c, 0, 64, 64
1, 131326, Control_c, 0, 64, 66
1, 131341, Control_c, 0, 64, 69
1, 131349, Note_on_c, 0, 62, 32
1, 131355, Control_c, 0, 64, 72
1, 131370, Control_c, 0, 64, 76
1, 131385, Control_c, 0, 64, 79
1, 131400, Control_c, 0, 64, 81
1, 131409, Note_off_c, 0, 59, 27
1, 131415, Control_c, 0, 64, 83
1, 131429, Control_c, 0, 64, 85
1, 131434, Note_off_c, 0, 62, 46
1, 131444, Control_c, 0, 64, 85
1, 131459, Control_c, 0, 64, 86
1, 131474, Control_c, 0, 64, 87
1, 131487, Note_on_c, 0, 68, 36
1, 131592, Control_c, 0, 64, 86
1, 131606, Note_on_c, 0, 80, 56
1, 131607, Control_c, 0, 64, 85
1, 131613, Note_on_c, 0, 60, 34
1, 131622, Control_c, 0, 64, 84
1, 131623, Note_off_c, 0, 68, 31
1, 131636, Control_c, 0, 64, 80
1, 131651, Control_c, 0, 64, 74
1, 131666, Control_c, 0, 64, 68
1, 131681, Control_c, 0, 64, 65
1, 131695, Control_c, 0, 64, 66
1, 131710, Control_c, 0, 64, 67
1, 131725, Control_c, 0, 64, 67
1, 131740, Control_c, 0, 64, 69
1, 131755, Control_c, 0, 64, 72
1, 131764, Note_on_c, 0, 63, 39
1, 131769, Note_off_c, 0, 60, 37
1, 131770, Control_c, 0, 64, 76
1, 131785, Control_c, 0, 64, 79
1, 131800, Control_c, 0, 64, 81
1, 131810, Note_off_c, 0, 80, 52
1, 131815, Control_c, 0, 64, 82
1, 131825, Note_off_c, 0, 63, 55
1, 131829, Control_c, 0, 64, 85
1, 131844, Control_c, 0, 64, 86
1, 131859, Control_c, 0, 64, 86
1, 131859, Note_on_c, 0, 68, 40
1, 131888, Control_c, 0, 64, 87
1, 131903, Control_c, 0, 64, 87
1, 131918, Control_c, 0, 64, 88
1, 131943, Note_on_c, 0, 84, 53
1, 132024, Note_off_c, 0, 84, 51
1, 132038, Note_on_c, 0, 56, 38
1, 132045, Control_c, 0, 64, 87
1, 132058, Note_off_c, 0, 68, 25
1, 132059, Control_c, 0, 64, 85
1, 132074, Control_c, 0, 64, 81
1, 132075, Note_on_c, 0, 87, 50
1, 132081, Note_on_c, 0, 75, 39
1, 132089, Control_c, 0, 64, 75
1, 132104, Control_c, 0, 64, 68
1, 132119, Control_c, 0, 64, 62
1, 132134, Control_c, 0, 64, 61
1, 132149, Control_c, 0, 64, 62
1, 132163, Control_c, 0, 64, 63
1, 132178, Control_c, 0, 64, 65
1, 132193, Control_c, 0, 64, 67
1, 132202, Note_off_c, 0, 87, 61
1, 132206, Note_off_c, 0, 75, 38
1, 132208, Control_c, 0, 64, 71
1, 132223, Control_c, 0, 64, 75
1, 132238, Control_c, 0, 64, 78
1, 132247, Note_on_c, 0, 60, 33
1, 132252, Control_c, 0, 64, 80
1, 132266, Note_off_c, 0, 56, 40
1, 132267, Control_c, 0, 64, 83
1, 132282, Control_c, 0, 64, 85
1, 132297, Control_c, 0, 64, 86
1, 132306, Note_off_c, 0, 60, 55
1, 132311, Control_c, 0, 64, 87
1, 132326, Control_c, 0, 64, 87
1, 132341, Control_c, 0, 64, 88
1, 132356, Control_c, 0, 64, 89
1, 132377, Note_on_c, 0, 68, 39
1, 132474, Control_c, 0, 64, 88
1, 132489, Control_c, 0, 64, 86
1, 132503, Control_c, 0, 64, 81
1, 132510, Note_off_c, 0, 68, 29
1, 132514, Note_on_c, 0, 87, 58
1, 132518, Control_c, 0, 64, 74
1, 132523, Note_on_c, 0, 75, 47
1, 132527, Note_on_c, 0, 60, 32
1, 132533, Control_c, 0, 64, 67
1, 132548, Control_c, 0, 64, 65
1, 132563, Control_c, 0, 64, 66
1, 132578, Control_c, 0, 64, 68
1, 132593, Control_c, 0, 64, 69
1, 132608, Control_c, 0, 64, 72
1, 132623, Control_c, 0, 64, 76
1, 132625, Note_off_c, 0, 75, 49
1, 132635, Note_off_c, 0, 87, 58
1, 132637, Control_c, 0, 64, 80
1, 132652, Control_c, 0, 64, 83
1, 132667, Control_c, 0, 64, 86
1, 132689, Control_c, 0, 64, 88
1, 132697, Note_on_c, 0, 63, 39
1, 132704, Control_c, 0, 64, 89
1, 132763, Control_c, 0, 64, 90
1, 132778, Control_c, 0, 64, 90
1, 132803, Note_off_c, 0, 60, 32
1, 132826, Note_on_c, 0, 68, 44
1, 132835, Note_off_c, 0, 63, 34
1, 132838, Control_c, 0, 64, 91
1, 132868, Control_c, 0, 64, 91
1, 132912, Control_c, 0, 64, 91
1, 132927, Control_c, 0, 64, 88
1, 132940, Note_on_c, 0, 87, 77
1, 132942, Control_c, 0, 64, 83
1, 132950, Note_on_c, 0, 75, 63
1, 132953, Note_on_c, 0, 59, 43
1, 132953, Note_off_c, 0, 68, 34
1, 132956, Control_c, 0, 64, 75
1, 132971, Control_c, 0, 64, 67
1, 132986, Control_c, 0, 64, 65
1, 133001, Control_c, 0, 64, 66
1, 133016, Control_c, 0, 64, 68
1, 133031, Control_c, 0, 64, 70
1, 133046, Control_c, 0, 64, 75
1, 133061, Control_c, 0, 64, 80
1, 133071, Note_off_c, 0, 75, 55
1, 133075, Control_c, 0, 64, 84
1, 133088, Note_off_c, 0, 87, 63
1, 133090, Control_c, 0, 64, 88
1, 133103, Note_on_c, 0, 62, 48
1, 133105, Control_c, 0, 64, 90
1, 133120, Control_c, 0, 64, 93
1, 133128, Note_off_c, 0, 59, 32
1, 133134, Control_c, 0, 64, 96
1, 133149, Control_c, 0, 64, 99
1, 133164, Control_c, 0, 64, 99
1, 133194, Control_c, 0, 64, 100
1, 133208, Control_c, 0, 64, 100
1, 133223, Control_c, 0, 64, 101
1, 133243, Note_off_c, 0, 62, 0
1, 133246, Note_on_c, 0, 68, 49
1, 133272, Poly_aftertouch_c, 0, 62, 0
1, 133341, Control_c, 0, 64, 100
1, 133356, Control_c, 0, 64, 97
1, 133371, Control_c, 0, 64, 90
1, 133379, Note_on_c, 0, 87, 81
1, 133383, Note_on_c, 0, 75, 68
1, 133386, Note_on_c, 0, 60, 40
1, 133386, Control_c, 0, 64, 80
1, 133395, Note_off_c, 0, 68, 29
1, 133401, Control_c, 0, 64, 70
1, 133415, Control_c, 0, 64, 64
1, 133452, Control_c, 0, 64, 66
1, 133467, Control_c, 0, 64, 68
1, 133482, Control_c, 0, 64, 71
1, 133497, Control_c, 0, 64, 75
1, 133502, Note_off_c, 0, 75, 57
1, 133512, Control_c, 0, 64, 81
1, 133526, Control_c, 0, 64, 86
1, 133527, Note_off_c, 0, 87, 63
1, 133541, Control_c, 0, 64, 88
1, 133556, Control_c, 0, 64, 89
1, 133557, Note_on_c, 0, 63, 46
1, 133571, Control_c, 0, 64, 91
1, 133581, Note_off_c, 0, 60, 42
1, 133586, Control_c, 0, 64, 92
1, 133600, Control_c, 0, 64, 93
1, 133661, Control_c, 0, 64, 93
1, 133676, Control_c, 0, 64, 92
1, 133691, Control_c, 0, 64, 92
1, 133696, Note_off_c, 0, 63, 34
1, 133699, Note_on_c, 0, 68, 41
1, 133735, Control_c, 0, 64, 91
1, 133764, Control_c, 0, 64, 91
1, 133779, Control_c, 0, 64, 89
1, 133794, Control_c, 0, 64, 87
1, 133809, Control_c, 0, 64, 83
1, 133824, Control_c, 0, 64, 77
1, 133830, Note_on_c, 0, 61, 39
1, 133836, Note_on_c, 0, 89, 69
1, 133839, Control_c, 0, 64, 70
1, 133841, Note_on_c, 0, 77, 54
1, 133854, Control_c, 0, 64, 64
1, 133869, Control_c, 0, 64, 61
1, 133869, Note_off_c, 0, 68, 35
1, 133883, Control_c, 0, 64, 61
1, 133898, Control_c, 0, 64, 62
1, 133913, Control_c, 0, 64, 63
1, 133928, Control_c, 0, 64, 65
1, 133943, Control_c, 0, 64, 67
1, 133957, Control_c, 0, 64, 69
1, 133972, Control_c, 0, 64, 73
1, 133987, Control_c, 0, 64, 77
1, 134002, Control_c, 0, 64, 80
1, 134009, Note_off_c, 0, 77, 37
1, 134011, Note_on_c, 0, 65, 37
1, 134012, Note_off_c, 0, 89, 60
1, 134017, Control_c, 0, 64, 83
1, 134031, Control_c, 0, 64, 86
1, 134044, Note_off_c, 0, 61, 32
1, 134046, Control_c, 0, 64, 89
1, 134061, Control_c, 0, 64, 94
1, 134075, Control_c, 0, 64, 98
1, 134090, Control_c, 0, 64, 99
1, 134139, Note_off_c, 0, 65, 35
1, 134148, Note_on_c, 0, 68, 36
1, 134149, Control_c, 0, 64, 100
1, 134231, Control_c, 0, 64, 99
1, 134246, Control_c, 0, 64, 96
1, 134260, Control_c, 0, 64, 91
1, 134274, Note_on_c, 0, 91, 69
1, 134274, Control_c, 0, 64, 82
1, 134280, Note_on_c, 0, 61, 41
1, 134286, Note_off_c, 0, 68, 32
1, 134287, Note_on_c, 0, 79, 47
1, 134289, Control_c, 0, 64, 73
1, 134304, Control_c, 0, 64, 65
1, 134319, Control_c, 0, 64, 62
1, 134334, Control_c, 0, 64, 63
1, 134349, Control_c, 0, 64, 64
1, 134363, Control_c, 0, 64, 65
1, 134378, Control_c, 0, 64, 67
1, 134393, Control_c, 0, 64, 69
1, 134408, Control_c, 0, 64, 72
1, 134411, Note_off_c, 0, 79, 47
1, 134420, Note_off_c, 0, 91, 60
1, 134423, Control_c, 0, 64, 75
1, 134439, Control_c, 0, 64, 77
1, 134453, Note_on_c, 0, 63, 32
1, 134453, Control_c, 0, 64, 80
1, 134468, Control_c, 0, 64, 82
1, 134483, Note_off_c, 0, 61, 32
1, 134483, Control_c, 0, 64, 83
1, 134498, Control_c, 0, 64, 83
1, 134512, Control_c, 0, 64, 85
1, 134527, Note_off_c, 0, 63, 54
1, 134527, Control_c, 0, 64, 87
1, 134542, Control_c, 0, 64, 89
1, 134557, Control_c, 0, 64, 89
1, 134576, Note_on_c, 0, 70, 38
1, 134676, Control_c, 0, 64, 89
1, 134691, Control_c, 0, 64, 87
1, 134691, Note_off_c, 0, 70, 0
1, 134705, Control_c, 0, 64, 85
1, 134720, Control_c, 0, 64, 80
1, 134721, Note_on_c, 0, 60, 40
1, 134728, Note_on_c, 0, 92, 68
1, 134730, Note_on_c, 0, 80, 55
1, 134735, Control_c, 0, 64, 73
1, 134742, Poly_aftertouch_c, 0, 70, 0
1, 134750, Control_c, 0, 64, 67
1, 134765, Control_c, 0, 64, 63
1, 134779, Control_c, 0, 64, 64
1, 134794, Control_c, 0, 64, 65
1, 134809, Control_c, 0, 64, 67
1, 134824, Control_c, 0, 64, 70
1, 134839, Control_c, 0, 64, 74
1, 134853, Control_c, 0, 64, 79
1, 134868, Control_c, 0, 64, 82
1, 134873, Note_off_c, 0, 80, 62
1, 134883, Control_c, 0, 64, 84
1, 134885, Note_off_c, 0, 92, 62
1, 134893, Note_on_c, 0, 63, 41
1, 134897, Control_c, 0, 64, 85
1, 134904, Note_off_c, 0, 60, 34
1, 134912, Control_c, 0, 64, 86
1, 134950, Control_c, 0, 64, 86
1, 135035, Note_on_c, 0, 68, 37
1, 135047, Note_off_c, 0, 63, 29
1, 135097, Control_c, 0, 64, 86
1, 135127, Control_c, 0, 64, 85
1, 135142, Control_c, 0, 64, 84
1, 135157, Control_c, 0, 64, 81
1, 135171, Note_on_c, 0, 60, 37
1, 135171, Control_c, 0, 64, 75
1, 135173, Note_on_c, 0, 87, 60
1, 135176, Note_off_c, 0, 68, 28
1, 135179, Note_on_c, 0, 75, 47
1, 135186, Control_c, 0, 64, 67
1, 135201, Control_c, 0, 64, 63
1, 135232, Control_c, 0, 64, 63
1, 135247, Control_c, 0, 64, 64
1, 135262, Control_c, 0, 64, 66
1, 135276, Control_c, 0, 64, 70
1, 135285, Note_off_c, 0, 75, 56
1, 135291, Control_c, 0, 64, 74
1, 135305, Note_off_c, 0, 60, 53
1, 135305, Note_off_c, 0, 87, 60
1, 135306, Control_c, 0, 64, 77
1, 135320, Control_c, 0, 64, 78
1, 135335, Control_c, 0, 64, 80
1, 135338, Note_on_c, 0, 63, 39
1, 135350, Control_c, 0, 64, 81
1, 135365, Control_c, 0, 64, 82
1, 135380, Control_c, 0, 64, 83
1, 135430, Note_off_c, 0, 63, 50
1, 135475, Note_on_c, 0, 68, 38
1, 135484, Control_c, 0, 64, 83
1, 135499, Control_c, 0, 64, 82
1, 135543, Control_c, 0, 64, 82
1, 135558, Control_c, 0, 64, 81
1, 135588, Control_c, 0, 64, 80
1, 135602, Control_c, 0, 64, 78
1, 135606, Note_on_c, 0, 58, 41
1, 135611, Note_on_c, 0, 87, 70
1, 135617, Control_c, 0, 64, 74
1, 135618, Note_on_c, 0, 75, 55
1, 135632, Control_c, 0, 64, 68
1, 135638, Note_off_c, 0, 68, 29
1, 135647, Control_c, 0, 64, 62
1, 135662, Control_c, 0, 64, 60
1, 135684, Control_c, 0, 64, 60
1, 135699, Control_c, 0, 64, 62
1, 135714, Control_c, 0, 64, 63
1, 135729, Control_c, 0, 64, 65
1, 135743, Control_c, 0, 64, 67
1, 135758, Control_c, 0, 64, 69
1, 135761, Note_off_c, 0, 58, 54
1, 135773, Control_c, 0, 64, 71
1, 135781, Note_on_c, 0, 63, 38
1, 135788, Control_c, 0, 64, 74
1, 135802, Control_c, 0, 64, 77
1, 135817, Control_c, 0, 64, 79
1, 135832, Control_c, 0, 64, 80
1, 135843, Note_off_c, 0, 87, 54
1, 135845, Note_off_c, 0, 75, 36
1, 135846, Control_c, 0, 64, 81
1, 135861, Control_c, 0, 64, 82
1, 135876, Control_c, 0, 64, 83
1, 135927, Note_on_c, 0, 67, 36
1, 135954, Note_off_c, 0, 63, 29
1, 136006, Note_off_c, 0, 67, 48
1, 136009, Control_c, 0, 64, 82
1, 136025, Control_c, 0, 64, 82
1, 136040, Control_c, 0, 64, 80
1, 136047, Note_on_c, 0, 58, 37
1, 136055, Control_c, 0, 64, 77
1, 136061, Note_on_c, 0, 73, 46
1, 136064, Note_on_c, 0, 85, 53
1, 136070, Control_c, 0, 64, 71
1, 136085, Control_c, 0, 64, 66
1, 136099, Control_c, 0, 64, 63
1, 136114, Control_c, 0, 64, 64
1, 136129, Control_c, 0, 64, 65
1, 136143, Control_c, 0, 64, 66
1, 136158, Control_c, 0, 64, 68
1, 136159, Note_off_c, 0, 85, 62
1, 136161, Note_off_c, 0, 73, 61
1, 136173, Control_c, 0, 64, 71
1, 136188, Control_c, 0, 64, 75
1, 136191, Note_off_c, 0, 58, 50
1, 136203, Control_c, 0, 64, 77
1, 136213, Note_on_c, 0, 63, 37
1, 136218, Control_c, 0, 64, 78
1, 136292, Control_c, 0, 64, 77
1, 136298, Note_off_c, 0, 63, 55
1, 136322, Control_c, 0, 64, 77
1, 136340, Note_on_c, 0, 67, 40
1, 136351, Control_c, 0, 64, 76
1, 136381, Control_c, 0, 64, 76
1, 136396, Control_c, 0, 64, 75
1, 136411, Control_c, 0, 64, 75
1, 136432, Control_c, 0, 64, 74
1, 136435, Note_off_c, 0, 67, 44
1, 136447, Control_c, 0, 64, 73
1, 136462, Control_c, 0, 64, 73
1, 136477, Control_c, 0, 64, 72
1, 136483, Note_on_c, 0, 56, 38
1, 136492, Control_c, 0, 64, 70
1, 136507, Control_c, 0, 64, 67
1, 136507, Note_on_c, 0, 85, 65
1, 136508, Note_on_c, 0, 73, 52
1, 136521, Control_c, 0, 64, 64
1, 136536, Control_c, 0, 64, 60
1, 136550, Control_c, 0, 64, 57
1, 136565, Control_c, 0, 64, 56
1, 136595, Control_c, 0, 64, 58
1, 136610, Control_c, 0, 64, 60
1, 136624, Control_c, 0, 64, 62
1, 136639, Control_c, 0, 64, 64
1, 136654, Control_c, 0, 64, 66
1, 136668, Control_c, 0, 64, 69
1, 136683, Control_c, 0, 64, 71
1, 136685, Note_off_c, 0, 56, 40
1, 136686, Note_on_c, 0, 63, 33
1, 136698, Control_c, 0, 64, 74
1, 136713, Control_c, 0, 64, 77
1, 136721, Note_off_c, 0, 73, 35
1, 136728, Control_c, 0, 64, 78
1, 136742, Control_c, 0, 64, 80
1, 136757, Control_c, 0, 64, 82
1, 136763, Note_off_c, 0, 85, 32
1, 136769, Note_off_c, 0, 63, 50
1, 136772, Control_c, 0, 64, 83
1, 136787, Control_c, 0, 64, 84
1, 136802, Control_c, 0, 64, 85
1, 136810, Note_on_c, 0, 68, 40
1, 136818, Control_c, 0, 64, 85
1, 136907, Control_c, 0, 64, 85
1, 136921, Control_c, 0, 64, 84
1, 136936, Control_c, 0, 64, 83
1, 136946, Note_on_c, 0, 56, 38
1, 136947, Note_on_c, 0, 84, 53
1, 136949, Note_off_c, 0, 68, 31
1, 136951, Control_c, 0, 64, 81
1, 136956, Note_on_c, 0, 72, 44
1, 136966, Control_c, 0, 64, 77
1, 136981, Control_c, 0, 64, 70
1, 136996, Control_c, 0, 64, 64
1, 137010, Control_c, 0, 64, 60
1, 137025, Control_c, 0, 64, 59
1, 137040, Control_c, 0, 64, 60
1, 137055, Control_c, 0, 64, 62
1, 137070, Control_c, 0, 64, 63
1, 137085, Control_c, 0, 64, 65
1, 137099, Control_c, 0, 64, 68
1, 137114, Control_c, 0, 64, 71
1, 137118, Note_off_c, 0, 56, 40
1, 137125, Note_on_c, 0, 63, 34
1, 137129, Control_c, 0, 64, 74
1, 137132, Note_off_c, 0, 72, 43
1, 137144, Control_c, 0, 64, 76
1, 137159, Control_c, 0, 64, 78
1, 137180, Control_c, 0, 64, 79
1, 137189, Note_off_c, 0, 63, 57
1, 137195, Control_c, 0, 64, 79
1, 137225, Control_c, 0, 64, 80
1, 137230, Note_off_c, 0, 84, 31
1, 137240, Control_c, 0, 64, 81
1, 137255, Control_c, 0, 64, 82
1, 137264, Note_on_c, 0, 68, 42
1, 137270, Control_c, 0, 64, 82
1, 137285, Control_c, 0, 64, 83
1, 137393, Note_off_c, 0, 68, 34
1, 137403, Control_c, 0, 64, 82
1, 137428, Note_on_c, 0, 61, 37
1, 137464, Note_on_c, 0, 82, 55
1, 137477, Control_c, 0, 64, 82
1, 137491, Control_c, 0, 64, 81
1, 137506, Control_c, 0, 64, 80
1, 137521, Control_c, 0, 64, 78
1, 137536, Control_c, 0, 64, 75
1, 137551, Control_c, 0, 64, 70
1, 137565, Control_c, 0, 64, 65
1, 137580, Control_c, 0, 64, 60
1, 137595, Control_c, 0, 64, 59
1, 137626, Control_c, 0, 64, 60
1, 137641, Control_c, 0, 64, 61
1, 137654, Note_on_c, 0, 68, 24
1, 137656, Control_c, 0, 64, 63
1, 137670, Control_c, 0, 64, 65
1, 137685, Control_c, 0, 64, 67
1, 137700, Control_c, 0, 64, 69
1, 137714, Control_c, 0, 64, 72
1, 137729, Control_c, 0, 64, 74
1, 137744, Control_c, 0, 64, 77
1, 137759, Control_c, 0, 64, 78
1, 137774, Control_c, 0, 64, 80
1, 137781, Note_on_c, 0, 70, 29
1, 137788, Note_off_c, 0, 68, 32
1, 137788, Control_c, 0, 64, 81
1, 137803, Control_c, 0, 64, 82
1, 137911, Note_on_c, 0, 85, 56
1, 137911, Note_off_c, 0, 82, 61
1, 137912, Note_off_c, 0, 70, 27
1, 137926, Note_on_c, 0, 65, 36
1, 137929, Note_off_c, 0, 61, 30
1, 137944, Control_c, 0, 64, 81
1, 137959, Control_c, 0, 64, 81
1, 137974, Control_c, 0, 64, 78
1, 137989, Control_c, 0, 64, 74
1, 138003, Control_c, 0, 64, 68
1, 138018, Control_c, 0, 64, 64
1, 138048, Control_c, 0, 64, 65
1, 138063, Control_c, 0, 64, 65
1, 138078, Control_c, 0, 64, 67
1, 138093, Control_c, 0, 64, 68
1, 138103, Note_off_c, 0, 65, 42
1, 138107, Control_c, 0, 64, 71
1, 138113, Note_on_c, 0, 68, 28
1, 138122, Control_c, 0, 64, 74
1, 138137, Control_c, 0, 64, 76
1, 138152, Control_c, 0, 64, 77
1, 138167, Control_c, 0, 64, 79
1, 138182, Control_c, 0, 64, 80
1, 138188, Note_off_c, 0, 85, 50
1, 138196, Control_c, 0, 64, 80
1, 138211, Control_c, 0, 64, 81
1, 138219, Note_off_c, 0, 68, 32
1, 138226, Control_c, 0, 64, 81
1, 138233, Note_on_c, 0, 73, 31
1, 138256, Control_c, 0, 64, 82
1, 138333, Note_off_c, 0, 73, 30
1, 138344, Note_on_c, 0, 84, 60
1, 138376, Note_on_c, 0, 63, 29
1, 138389, Control_c, 0, 64, 81
1, 138403, Control_c, 0, 64, 80
1, 138419, Control_c, 0, 64, 78
1, 138434, Control_c, 0, 64, 73
1, 138449, Control_c, 0, 64, 66
1, 138464, Control_c, 0, 64, 63
1, 138479, Control_c, 0, 64, 64
1, 138493, Control_c, 0, 64, 65
1, 138508, Control_c, 0, 64, 66
1, 138523, Control_c, 0, 64, 67
1, 138537, Control_c, 0, 64, 71
1, 138539, Note_on_c, 0, 68, 36
1, 138552, Control_c, 0, 64, 75
1, 138567, Control_c, 0, 64, 78
1, 138582, Control_c, 0, 64, 80
1, 138597, Control_c, 0, 64, 82
1, 138611, Control_c, 0, 64, 83
1, 138613, Note_off_c, 0, 63, 33
1, 138626, Control_c, 0, 64, 85
1, 138641, Control_c, 0, 64, 87
1, 138656, Control_c, 0, 64, 88
1, 138679, Control_c, 0, 64, 89
1, 138689, Note_on_c, 0, 72, 34
1, 138708, Control_c, 0, 64, 89
1, 138723, Control_c, 0, 64, 90
1, 138724, Note_off_c, 0, 68, 39
1, 138738, Control_c, 0, 64, 90
1, 138765, Note_off_c, 0, 72, 38
1, 138768, Control_c, 0, 64, 91
1, 138790, Note_on_c, 0, 63, 34
1, 138813, Note_on_c, 0, 82, 65
1, 138827, Control_c, 0, 64, 90
1, 138842, Control_c, 0, 64, 87
1, 138857, Control_c, 0, 64, 82
1, 138871, Control_c, 0, 64, 74
1, 138886, Control_c, 0, 64, 67
1, 138901, Control_c, 0, 64, 65
1, 138916, Control_c, 0, 64, 67
1, 138931, Control_c, 0, 64, 69
1, 138941, Note_off_c, 0, 63, 56
1, 138945, Control_c, 0, 64, 71
1, 138960, Control_c, 0, 64, 76
1, 138961, Note_off_c, 0, 84, 19
1, 138972, Note_on_c, 0, 67, 41
1, 138975, Control_c, 0, 64, 81
1, 138990, Control_c, 0, 64, 86
1, 139005, Control_c, 0, 64, 91
1, 139008, Note_off_c, 0, 82, 54
1, 139020, Control_c, 0, 64, 95
1, 139034, Control_c, 0, 64, 102
1, 139037, Note_off_c, 0, 67, 60
1, 139049, Control_c, 0, 64, 110
1, 139064, Control_c, 0, 64, 119
1, 139079, Control_c, 0, 64, 127
1, 139170, Poly_aftertouch_c, 0, 70, 0
1, 139288, Control_c, 0, 64, 93
1, 139302, Note_on_c, 0, 80, 55
1, 139303, Control_c, 0, 64, 75
1, 139303, Note_on_c, 0, 68, 37
1, 139314, Note_on_c, 0, 56, 34
1, 139317, Control_c, 0, 64, 66
1, 139323, Note_on_c, 0, 60, 32
1, 139341, Note_off_c, 0, 80, 64
1, 139347, Control_c, 0, 64, 70
1, 139361, Control_c, 0, 64, 77
1, 139376, Control_c, 0, 64, 89
1, 139391, Control_c, 0, 64, 104
1, 139406, Control_c, 0, 64, 127
1, 139443, Note_off_c, 0, 68, 40
1, 139494, Note_off_c, 0, 56, 40
1, 139536, Note_off_c, 0, 60, 40
1, 139554, Note_on_c, 0, 63, 27
1, 139614, Note_off_c, 0, 63, 0
1, 139614, Note_on_c, 0, 63, 13
1, 139660, Note_off_c, 0, 63, 57
1, 139686, Note_on_c, 0, 68, 51
1, 139812, Note_on_c, 0, 72, 52
1, 139818, Note_off_c, 0, 68, 35
1, 139950, Note_on_c, 0, 68, 61
1, 139959, Note_off_c, 0, 72, 53
1, 140072, Note_on_c, 0, 63, 58
1, 140102, Note_off_c, 0, 68, 31
1, 140206, Note_on_c, 0, 75, 65
1, 140220, Note_off_c, 0, 63, 47
1, 140343, Note_off_c, 0, 75, 53
1, 140361, Note_on_c, 0, 72, 53
1, 140481, Note_on_c, 0, 68, 59
1, 140510, Note_off_c, 0, 72, 59
1, 140536, Note_off_c, 0, 68, 58
1, 140596, Note_on_c, 0, 56, 68
1, 140638, Note_on_c, 0, 68, 60
1, 140650, Control_c, 0, 64, 108
1, 140665, Control_c, 0, 64, 91
1, 140680, Control_c, 0, 64, 75
1, 140695, Control_c, 0, 64, 67
1, 140709, Control_c, 0, 64, 63
1, 140724, Control_c, 0, 64, 64
1, 140739, Control_c, 0, 64, 65
1, 140754, Control_c, 0, 64, 67
1, 140764, Note_off_c, 0, 68, 55
1, 140769, Control_c, 0, 64, 72
1, 140769, Note_on_c, 0, 72, 55
1, 140775, Note_off_c, 0, 56, 56
1, 140783, Control_c, 0, 64, 81
1, 140798, Control_c, 0, 64, 92
1, 140814, Control_c, 0, 64, 102
1, 140829, Control_c, 0, 64, 113
1, 140844, Control_c, 0, 64, 127
1, 140887, Note_on_c, 0, 75, 63
1, 140895, Note_off_c, 0, 72, 56
1, 140926, Note_on_c, 0, 60, 64
1, 140978, Note_off_c, 0, 75, 57
1, 141053, Note_off_c, 0, 60, 64
1, 141059, Note_on_c, 0, 63, 75
1, 141073, Control_c, 0, 64, 115
1, 141088, Control_c, 0, 64, 97
1, 141095, Note_on_c, 0, 75, 63
1, 141103, Control_c, 0, 64, 81
1, 141118, Control_c, 0, 64, 70
1, 141133, Control_c, 0, 64, 63
1, 141147, Control_c, 0, 64, 59
1, 141162, Control_c, 0, 64, 59
1, 141177, Control_c, 0, 64, 60
1, 141192, Control_c, 0, 64, 62
1, 141207, Control_c, 0, 64, 64
1, 141221, Control_c, 0, 64, 67
1, 141236, Control_c, 0, 64, 72
1, 141251, Control_c, 0, 64, 77
1, 141256, Note_on_c, 0, 70, 56
1, 141266, Control_c, 0, 64, 82
1, 141281, Control_c, 0, 64, 87
1, 141284, Note_off_c, 0, 75, 55
1, 141295, Control_c, 0, 64, 92
1, 141303, Note_off_c, 0, 63, 55
1, 141310, Control_c, 0, 64, 97
1, 141325, Control_c, 0, 64, 102
1, 141339, Control_c, 0, 64, 105
1, 141354, Control_c, 0, 64, 106
1, 141369, Control_c, 0, 64, 106
1, 141378, Note_on_c, 0, 67, 60
1, 141392, Note_off_c, 0, 70, 39
1, 141413, Control_c, 0, 64, 107
1, 141497, Note_off_c, 0, 67, 46
1, 141504, Note_on_c, 0, 63, 74
1, 141529, Note_on_c, 0, 75, 64
1, 141532, Control_c, 0, 64, 102
1, 141547, Control_c, 0, 64, 93
1, 141562, Control_c, 0, 64, 80
1, 141577, Control_c, 0, 64, 69
1, 141592, Control_c, 0, 64, 63
1, 141607, Control_c, 0, 64, 62
1, 141622, Control_c, 0, 64, 63
1, 141637, Control_c, 0, 64, 65
1, 141652, Control_c, 0, 64, 68
1, 141673, Note_on_c, 0, 70, 61
1, 141674, Control_c, 0, 64, 72
1, 141689, Control_c, 0, 64, 79
1, 141704, Control_c, 0, 64, 86
1, 141711, Note_off_c, 0, 75, 56
1, 141718, Control_c, 0, 64, 91
1, 141733, Control_c, 0, 64, 96
1, 141739, Note_off_c, 0, 63, 59
1, 141748, Control_c, 0, 64, 101
1, 141762, Control_c, 0, 64, 107
1, 141777, Control_c, 0, 64, 110
1, 141792, Note_on_c, 0, 67, 66
1, 141792, Control_c, 0, 64, 113
1, 141807, Control_c, 0, 64, 118
1, 141819, Note_off_c, 0, 70, 39
1, 141822, Control_c, 0, 64, 127
1, 141875, Note_off_c, 0, 67, 58
1, 141936, Note_on_c, 0, 63, 78
1, 141940, Note_on_c, 0, 75, 55
1, 141941, Control_c, 0, 64, 115
1, 141956, Control_c, 0, 64, 98
1, 141970, Control_c, 0, 64, 80
1, 141985, Control_c, 0, 64, 66
1, 142000, Control_c, 0, 64, 62
1, 142015, Control_c, 0, 64, 65
1, 142030, Control_c, 0, 64, 67
1, 142044, Control_c, 0, 64, 71
1, 142059, Control_c, 0, 64, 75
1, 142074, Control_c, 0, 64, 83
1, 142077, Note_on_c, 0, 72, 68
1, 142089, Control_c, 0, 64, 91
1, 142101, Note_off_c, 0, 75, 50
1, 142104, Control_c, 0, 64, 95
1, 142118, Control_c, 0, 64, 97
1, 142120, Note_off_c, 0, 63, 60
1, 142133, Control_c, 0, 64, 99
1, 142148, Control_c, 0, 64, 100
1, 142158, Note_off_c, 0, 72, 64
1, 142162, Control_c, 0, 64, 102
1, 142177, Control_c, 0, 64, 106
1, 142192, Control_c, 0, 64, 110
1, 142207, Control_c, 0, 64, 113
1, 142212, Note_on_c, 0, 68, 76
1, 142222, Control_c, 0, 64, 118
1, 142236, Control_c, 0, 64, 127
1, 142275, Note_off_c, 0, 68, 60
1, 142335, Note_on_c, 0, 63, 79
1, 142349, Note_on_c, 0, 70, 76
1, 142385, Control_c, 0, 64, 87
1, 142400, Control_c, 0, 64, 68
1, 142423, Control_c, 0, 64, 57
1, 142438, Control_c, 0, 64, 52
1, 142453, Control_c, 0, 64, 55
1, 142467, Control_c, 0, 64, 58
1, 142482, Control_c, 0, 64, 62
1, 142492, Note_on_c, 0, 75, 82
1, 142498, Control_c, 0, 64, 66
1, 142513, Control_c, 0, 64, 70
1, 142519, Note_off_c, 0, 70, 61
1, 142528, Control_c, 0, 64, 76
1, 142542, Control_c, 0, 64, 83
1, 142557, Control_c, 0, 64, 87
1, 142572, Control_c, 0, 64, 91
1, 142586, Control_c, 0, 64, 95
1, 142587, Note_off_c, 0, 63, 57
1, 142601, Control_c, 0, 64, 99
1, 142616, Control_c, 0, 64, 100
1, 142631, Control_c, 0, 64, 102
1, 142632, Note_on_c, 0, 79, 87
1, 142646, Control_c, 0, 64, 104
1, 142647, Note_off_c, 0, 75, 61
1, 142660, Control_c, 0, 64, 105
1, 142675, Control_c, 0, 64, 106
1, 142690, Control_c, 0, 64, 107
1, 142705, Control_c, 0, 64, 109
1, 142720, Control_c, 0, 64, 113
1, 142735, Control_c, 0, 64, 119
1, 142749, Control_c, 0, 64, 127
1, 142802, Note_on_c, 0, 65, 78
1, 142819, Note_on_c, 0, 80, 79
1, 142833, Note_off_c, 0, 79, 56
1, 142838, Control_c, 0, 64, 119
1, 142853, Control_c, 0, 64, 110
1, 142868, Control_c, 0, 64, 97
1, 142883, Control_c, 0, 64, 80
1, 142898, Control_c, 0, 64, 66
1, 142912, Control_c, 0, 64, 51
1, 142927, Control_c, 0, 64, 41
1, 142942, Control_c, 0, 64, 40
1, 142972, Control_c, 0, 64, 41
1, 142986, Control_c, 0, 64, 48
1, 143001, Control_c, 0, 64, 57
1, 143014, Note_on_c, 0, 75, 74
1, 143016, Control_c, 0, 64, 61
1, 143031, Control_c, 0, 64, 63
1, 143046, Control_c, 0, 64, 64
1, 143058, Note_off_c, 0, 80, 57
1, 143060, Control_c, 0, 64, 66
1, 143075, Control_c, 0, 64, 69
1, 143090, Control_c, 0, 64, 73
1, 143104, Control_c, 0, 64, 78
1, 143119, Control_c, 0, 64, 82
1, 143134, Control_c, 0, 64, 85
1, 143149, Control_c, 0, 64, 87
1, 143163, Note_on_c, 0, 68, 69
1, 143172, Control_c, 0, 64, 89
1, 143174, Note_off_c, 0, 75, 56
1, 143186, Control_c, 0, 64, 91
1, 143201, Control_c, 0, 64, 92
1, 143217, Control_c, 0, 64, 92
1, 143301, Note_on_c, 0, 80, 73
1, 143306, Note_off_c, 0, 68, 58
1, 143321, Control_c, 0, 64, 92
1, 143446, Note_on_c, 0, 74, 68
1, 143455, Note_off_c, 0, 80, 55
1, 143483, Control_c, 0, 64, 91
1, 143528, Control_c, 0, 64, 92
1, 143574, Note_on_c, 0, 68, 66
1, 143580, Note_off_c, 0, 74, 51
1, 143688, Note_off_c, 0, 68, 55
1, 143712, Note_on_c, 0, 63, 68
1, 143717, Note_on_c, 0, 80, 62
1, 143753, Note_off_c, 0, 65, 39
1, 143780, Control_c, 0, 64, 91
1, 143795, Control_c, 0, 64, 89
1, 143809, Control_c, 0, 64, 83
1, 143824, Control_c, 0, 64, 74
1, 143839, Control_c, 0, 64, 64
1, 143854, Control_c, 0, 64, 57
1, 143866, Note_on_c, 0, 75, 54
1, 143869, Control_c, 0, 64, 55
1, 143874, Note_off_c, 0, 80, 58
1, 143883, Control_c, 0, 64, 55
1, 143898, Control_c, 0, 64, 57
1, 143920, Control_c, 0, 64, 59
1, 143935, Control_c, 0, 64, 63
1, 143950, Control_c, 0, 64, 66
1, 143965, Control_c, 0, 64, 70
1, 143980, Control_c, 0, 64, 74
1, 143988, Note_off_c, 0, 75, 51
1, 143995, Control_c, 0, 64, 78
1, 144001, Note_on_c, 0, 70, 58
1, 144010, Control_c, 0, 64, 82
1, 144025, Control_c, 0, 64, 85
1, 144036, Note_off_c, 0, 70, 64
1, 144039, Control_c, 0, 64, 89
1, 144054, Control_c, 0, 64, 91
1, 144069, Control_c, 0, 64, 93
1, 144084, Control_c, 0, 64, 96
1, 144099, Control_c, 0, 64, 101
1, 144114, Control_c, 0, 64, 107
1, 144129, Control_c, 0, 64, 114
1, 144141, Note_on_c, 0, 70, 51
1, 144144, Control_c, 0, 64, 127
1, 144235, Note_off_c, 0, 70, 49
1, 144263, Note_on_c, 0, 75, 54
1, 144402, Note_on_c, 0, 79, 54
1, 144418, Note_off_c, 0, 75, 34
1, 144516, Note_off_c, 0, 79, 47
1, 144561, Note_on_c, 0, 61, 60
1, 144562, Note_off_c, 0, 63, 28
1, 144570, Note_on_c, 0, 77, 55
1, 144647, Control_c, 0, 64, 108
1, 144669, Control_c, 0, 64, 94
1, 144684, Control_c, 0, 64, 80
1, 144699, Control_c, 0, 64, 71
1, 144713, Control_c, 0, 64, 64
1, 144728, Control_c, 0, 64, 59
1, 144755, Note_on_c, 0, 70, 54
1, 144758, Control_c, 0, 64, 61
1, 144772, Control_c, 0, 64, 63
1, 144787, Control_c, 0, 64, 66
1, 144802, Control_c, 0, 64, 69
1, 144817, Control_c, 0, 64, 74
1, 144832, Control_c, 0, 64, 79
1, 144847, Control_c, 0, 64, 85
1, 144861, Note_off_c, 0, 77, 24
1, 144862, Control_c, 0, 64, 90
1, 144877, Control_c, 0, 64, 96
1, 144892, Control_c, 0, 64, 102
1, 144898, Note_off_c, 0, 70, 51
1, 144907, Control_c, 0, 64, 111
1, 144913, Note_on_c, 0, 67, 53
1, 144922, Control_c, 0, 64, 127
1, 145027, Note_on_c, 0, 77, 53
1, 145032, Note_off_c, 0, 67, 44
1, 145174, Note_on_c, 0, 71, 50
1, 145205, Note_off_c, 0, 77, 53
1, 145223, Note_off_c, 0, 71, 55
1, 145283, Note_on_c, 0, 67, 38
1, 145317, Note_off_c, 0, 67, 47
1, 145436, Note_off_c, 0, 61, 36
1, 145443, Note_on_c, 0, 60, 51
1, 145473, Note_on_c, 0, 77, 60
1, 145506, Control_c, 0, 64, 109
1, 145521, Control_c, 0, 64, 84
1, 145536, Control_c, 0, 64, 71
1, 145551, Control_c, 0, 64, 63
1, 145566, Control_c, 0, 64, 59
1, 145580, Control_c, 0, 64, 59
1, 145595, Control_c, 0, 64, 61
1, 145610, Control_c, 0, 64, 63
1, 145625, Control_c, 0, 64, 66
1, 145632, Note_on_c, 0, 72, 50
1, 145640, Control_c, 0, 64, 69
1, 145655, Control_c, 0, 64, 73
1, 145670, Control_c, 0, 64, 77
1, 145685, Control_c, 0, 64, 81
1, 145700, Control_c, 0, 64, 84
1, 145704, Note_off_c, 0, 72, 45
1, 145715, Control_c, 0, 64, 90
1, 145717, Note_off_c, 0, 77, 30
1, 145730, Control_c, 0, 64, 95
1, 145744, Control_c, 0, 64, 99
1, 145749, Note_on_c, 0, 68, 57
1, 145759, Control_c, 0, 64, 101
1, 145774, Control_c, 0, 64, 101
1, 145778, Note_off_c, 0, 68, 62
1, 145804, Control_c, 0, 64, 102
1, 145878, Note_on_c, 0, 68, 51
1, 145907, Control_c, 0, 64, 102
1, 145936, Note_off_c, 0, 68, 50
1, 145937, Control_c, 0, 64, 103
1, 146016, Note_on_c, 0, 72, 52
1, 146087, Note_off_c, 0, 60, 41
1, 146096, Note_off_c, 0, 72, 45
1, 146139, Note_on_c, 0, 75, 57
1, 146196, Control_c, 0, 64, 103
1, 146226, Note_off_c, 0, 75, 50
1, 146240, Control_c, 0, 64, 104
1, 146269, Control_c, 0, 64, 104
1, 146284, Control_c, 0, 64, 105
1, 146293, Note_on_c, 0, 58, 64
1, 146316, Note_on_c, 0, 61, 56
1, 146343, Control_c, 0, 64, 102
1, 146358, Control_c, 0, 64, 97
1, 146373, Control_c, 0, 64, 87
1, 146388, Control_c, 0, 64, 76
1, 146403, Control_c, 0, 64, 68
1, 146418, Control_c, 0, 64, 64
1, 146448, Control_c, 0, 64, 65
1, 146463, Control_c, 0, 64, 67
1, 146463, Note_on_c, 0, 68, 57
1, 146464, Note_off_c, 0, 61, 55
1, 146478, Control_c, 0, 64, 70
1, 146493, Control_c, 0, 64, 74
1, 146507, Control_c, 0, 64, 79
1, 146522, Control_c, 0, 64, 85
1, 146537, Control_c, 0, 64, 93
1, 146552, Control_c, 0, 64, 99
1, 146567, Control_c, 0, 64, 105
1, 146581, Control_c, 0, 64, 109
1, 146595, Note_on_c, 0, 73, 62
1, 146596, Control_c, 0, 64, 111
1, 146611, Control_c, 0, 64, 113
1, 146626, Control_c, 0, 64, 115
1, 146640, Control_c, 0, 64, 118
1, 146655, Control_c, 0, 64, 121
1, 146657, Note_off_c, 0, 68, 35
1, 146670, Control_c, 0, 64, 127
1, 146734, Note_on_c, 0, 61, 71
1, 146743, Note_on_c, 0, 65, 60
1, 146773, Control_c, 0, 64, 123
1, 146788, Control_c, 0, 64, 108
1, 146797, Note_off_c, 0, 58, 33
1, 146803, Control_c, 0, 64, 93
1, 146818, Control_c, 0, 64, 76
1, 146833, Control_c, 0, 64, 67
1, 146847, Control_c, 0, 64, 64
1, 146862, Control_c, 0, 64, 65
1, 146868, Note_off_c, 0, 65, 57
1, 146874, Note_on_c, 0, 68, 62
1, 146877, Control_c, 0, 64, 67
1, 146879, Note_off_c, 0, 73, 37
1, 146892, Control_c, 0, 64, 70
1, 146914, Control_c, 0, 64, 75
1, 146929, Control_c, 0, 64, 82
1, 146944, Control_c, 0, 64, 87
1, 146958, Control_c, 0, 64, 92
1, 146973, Control_c, 0, 64, 96
1, 146988, Control_c, 0, 64, 101
1, 147003, Control_c, 0, 64, 105
1, 147005, Note_on_c, 0, 70, 65
1, 147018, Control_c, 0, 64, 108
1, 147032, Control_c, 0, 64, 110
1, 147035, Note_off_c, 0, 68, 56
1, 147047, Control_c, 0, 64, 113
1, 147062, Control_c, 0, 64, 119
1, 147077, Control_c, 0, 64, 127
1, 147127, Note_off_c, 0, 61, 35
1, 147143, Note_on_c, 0, 60, 72
1, 147154, Note_on_c, 0, 63, 64
1, 147166, Note_off_c, 0, 70, 38
1, 147181, Control_c, 0, 64, 111
1, 147196, Control_c, 0, 64, 91
1, 147211, Control_c, 0, 64, 75
1, 147226, Control_c, 0, 64, 65
1, 147241, Control_c, 0, 64, 60
1, 147256, Control_c, 0, 64, 60
1, 147271, Control_c, 0, 64, 62
1, 147286, Control_c, 0, 64, 65
1, 147301, Control_c, 0, 64, 68
1, 147304, Note_on_c, 0, 68, 64
1, 147306, Note_off_c, 0, 63, 57
1, 147315, Control_c, 0, 64, 73
1, 147330, Control_c, 0, 64, 79
1, 147345, Control_c, 0, 64, 84
1, 147360, Control_c, 0, 64, 88
1, 147374, Control_c, 0, 64, 91
1, 147389, Control_c, 0, 64, 94
1, 147404, Control_c, 0, 64, 97
1, 147419, Control_c, 0, 64, 99
1, 147423, Note_off_c, 0, 68, 58
1, 147431, Note_on_c, 0, 72, 67
1, 147434, Control_c, 0, 64, 99
1, 147449, Control_c, 0, 64, 101
1, 147463, Control_c, 0, 64, 102
1, 147478, Control_c, 0, 64, 105
1, 147493, Control_c, 0, 64, 107
1, 147508, Control_c, 0, 64, 109
1, 147523, Control_c, 0, 64, 110
1, 147542, Note_off_c, 0, 72, 56
1, 147551, Note_off_c, 0, 60, 55
1, 147552, Control_c, 0, 64, 108
1, 147558, Note_on_c, 0, 51, 65
1, 147558, Note_on_c, 0, 58, 65
1, 147567, Control_c, 0, 64, 96
1, 147569, Note_on_c, 0, 67, 65
1, 147572, Note_on_c, 0, 63, 59
1, 147581, Control_c, 0, 64, 80
1, 147596, Control_c, 0, 64, 67
1, 147611, Control_c, 0, 64, 58
1, 147626, Control_c, 0, 64, 56
1, 147641, Control_c, 0, 64, 58
1, 147663, Control_c, 0, 64, 61
1, 147678, Control_c, 0, 64, 64
1, 147693, Control_c, 0, 64, 69
1, 147708, Control_c, 0, 64, 75
1, 147718, Note_off_c, 0, 51, 57
1, 147723, Control_c, 0, 64, 84
1, 147724, Note_off_c, 0, 58, 61
1, 147737, Control_c, 0, 64, 91
1, 147738, Note_on_c, 0, 75, 73
1, 147752, Control_c, 0, 64, 98
1, 147764, Note_off_c, 0, 67, 61
1, 147767, Control_c, 0, 64, 103
1, 147781, Control_c, 0, 64, 108
1, 147796, Control_c, 0, 64, 119
1, 147799, Note_off_c, 0, 63, 33
1, 147811, Control_c, 0, 64, 127
1, 147879, Note_on_c, 0, 73, 76
1, 147881, Note_off_c, 0, 75, 60
1, 148039, Note_off_c, 0, 73, 56
1, 148056, Note_on_c, 0, 44, 55
1, 148058, Note_on_c, 0, 51, 55
1, 148059, Note_on_c, 0, 56, 53
1, 148064, Control_c, 0, 64, 101
1, 148067, Note_on_c, 0, 72, 62
1, 148069, Note_on_c, 0, 68, 58
1, 148071, Note_on_c, 0, 63, 54
1, 148079, Control_c, 0, 64, 81
1, 148093, Control_c, 0, 64, 67
1, 148108, Control_c, 0, 64, 50
1, 148123, Control_c, 0, 64, 0
1, 148201, Note_off_c, 0, 63, 62
1, 148242, Control_c, 0, 64, 32
1, 148257, Control_c, 0, 64, 61
1, 148272, Control_c, 0, 64, 72
1, 148277, Note_on_c, 0, 63, 55
1, 148286, Control_c, 0, 64, 86
1, 148299, Note_off_c, 0, 68, 50
1, 148301, Control_c, 0, 64, 127
1, 148323, Note_off_c, 0, 72, 56
1, 148439, Note_on_c, 0, 68, 63
1, 148451, Note_off_c, 0, 63, 55
1, 148497, Note_off_c, 0, 56, 32
1, 148505, Note_off_c, 0, 44, 32
1, 148547, Note_off_c, 0, 51, 34
1, 148573, Note_on_c, 0, 72, 69
1, 148578, Note_off_c, 0, 68, 56
1, 148699, Note_on_c, 0, 68, 73
1, 148776, Note_off_c, 0, 72, 35
1, 148836, Note_on_c, 0, 63, 73
1, 148855, Note_off_c, 0, 68, 55
1, 148967, Note_on_c, 0, 75, 76
1, 148984, Note_off_c, 0, 63, 58
1, 149113, Note_on_c, 0, 72, 72
1, 149176, Note_off_c, 0, 75, 53
1, 149238, Note_on_c, 0, 68, 78
1, 149277, Note_off_c, 0, 72, 62
1, 149301, Note_off_c, 0, 68, 62
1, 149351, Note_on_c, 0, 56, 83
1, 149353, Note_on_c, 0, 44, 77
1, 149353, Control_c, 0, 64, 86
1, 149368, Control_c, 0, 64, 66
1, 149376, Note_on_c, 0, 68, 71
1, 149383, Control_c, 0, 64, 48
1, 149398, Control_c, 0, 64, 37
1, 149413, Control_c, 0, 64, 48
1, 149427, Control_c, 0, 64, 59
1, 149442, Control_c, 0, 64, 64
1, 149456, Note_off_c, 0, 44, 64
1, 149457, Control_c, 0, 64, 68
1, 149460, Note_off_c, 0, 56, 62
1, 149472, Control_c, 0, 64, 75
1, 149487, Control_c, 0, 64, 86
1, 149501, Control_c, 0, 64, 99
1, 149511, Note_on_c, 0, 72, 71
1, 149516, Control_c, 0, 64, 127
1, 149543, Note_off_c, 0, 68, 51
1, 149629, Note_on_c, 0, 75, 78
1, 149642, Note_off_c, 0, 72, 58
1, 149691, Note_on_c, 0, 48, 77
1, 149692, Note_on_c, 0, 60, 78
1, 149716, Note_off_c, 0, 75, 58
1, 149725, Note_off_c, 0, 48, 61
1, 149734, Note_off_c, 0, 60, 63
1, 149825, Note_on_c, 0, 75, 82
1, 149830, Note_on_c, 0, 63, 87
1, 149832, Note_on_c, 0, 51, 85
1, 149843, Control_c, 0, 64, 83
1, 149858, Control_c, 0, 64, 64
1, 149873, Control_c, 0, 64, 37
1, 149888, Control_c, 0, 64, 12
1, 149910, Control_c, 0, 64, 31
1, 149924, Control_c, 0, 64, 46
1, 149939, Control_c, 0, 64, 57
1, 149954, Control_c, 0, 64, 63
1, 149969, Control_c, 0, 64, 66
1, 149983, Control_c, 0, 64, 71
1, 149998, Control_c, 0, 64, 80
1, 150008, Note_off_c, 0, 51, 56
1, 150010, Note_on_c, 0, 70, 73
1, 150013, Control_c, 0, 64, 90
1, 150019, Note_off_c, 0, 63, 61
1, 150028, Control_c, 0, 64, 102
1, 150043, Control_c, 0, 64, 127
1, 150048, Note_off_c, 0, 75, 53
1, 150141, Note_on_c, 0, 67, 73
1, 150166, Note_off_c, 0, 70, 55
1, 150280, Note_on_c, 0, 63, 80
1, 150280, Note_on_c, 0, 75, 75
1, 150281, Note_on_c, 0, 51, 78
1, 150284, Note_off_c, 0, 67, 60
1, 150310, Control_c, 0, 64, 104
1, 150324, Control_c, 0, 64, 79
1, 150339, Control_c, 0, 64, 65
1, 150354, Control_c, 0, 64, 56
1, 150369, Control_c, 0, 64, 60
1, 150383, Control_c, 0, 64, 63
1, 150400, Control_c, 0, 64, 65
1, 150415, Control_c, 0, 64, 68
1, 150425, Note_on_c, 0, 70, 75
1, 150429, Control_c, 0, 64, 73
1, 150444, Control_c, 0, 64, 80
1, 150459, Control_c, 0, 64, 88
1, 150464, Note_off_c, 0, 51, 56
1, 150464, Note_off_c, 0, 75, 56
1, 150472, Note_off_c, 0, 63, 58
1, 150473, Control_c, 0, 64, 93
1, 150488, Control_c, 0, 64, 100
1, 150503, Control_c, 0, 64, 108
1, 150518, Control_c, 0, 64, 127
1, 150565, Note_on_c, 0, 67, 73
1, 150624, Note_off_c, 0, 70, 50
1, 150698, Note_on_c, 0, 75, 74
1, 150704, Note_on_c, 0, 63, 77
1, 150705, Note_on_c, 0, 51, 76
1, 150710, Note_off_c, 0, 67, 61
1, 150733, Control_c, 0, 64, 117
1, 150747, Control_c, 0, 64, 79
1, 150762, Control_c, 0, 64, 64
1, 150777, Control_c, 0, 64, 56
1, 150792, Control_c, 0, 64, 61
1, 150806, Control_c, 0, 64, 64
1, 150821, Control_c, 0, 64, 66
1, 150836, Control_c, 0, 64, 71
1, 150846, Note_on_c, 0, 71, 79
1, 150851, Control_c, 0, 64, 79
1, 150866, Control_c, 0, 64, 87
1, 150881, Control_c, 0, 64, 93
1, 150883, Note_off_c, 0, 51, 51
1, 150887, Note_off_c, 0, 63, 57
1, 150895, Control_c, 0, 64, 97
1, 150910, Control_c, 0, 64, 102
1, 150925, Control_c, 0, 64, 108
1, 150938, Note_off_c, 0, 71, 60
1, 150940, Control_c, 0, 64, 116
1, 150943, Note_off_c, 0, 75, 29
1, 150955, Control_c, 0, 64, 127
1, 150979, Note_on_c, 0, 68, 84
1, 151031, Note_off_c, 0, 68, 61
1, 151104, Note_on_c, 0, 63, 82
1, 151104, Note_on_c, 0, 51, 78
1, 151108, Note_on_c, 0, 70, 84
1, 151118, Control_c, 0, 64, 87
1, 151133, Control_c, 0, 64, 68
1, 151147, Control_c, 0, 64, 56
1, 151162, Control_c, 0, 64, 53
1, 151177, Control_c, 0, 64, 59
1, 151192, Control_c, 0, 64, 63
1, 151208, Control_c, 0, 64, 68
1, 151222, Control_c, 0, 64, 76
1, 151237, Control_c, 0, 64, 88
1, 151248, Note_on_c, 0, 75, 90
1, 151252, Control_c, 0, 64, 100
1, 151267, Control_c, 0, 64, 110
1, 151277, Note_off_c, 0, 70, 62
1, 151282, Control_c, 0, 64, 113
1, 151296, Control_c, 0, 64, 113
1, 151311, Control_c, 0, 64, 115
1, 151326, Control_c, 0, 64, 116
1, 151334, Note_off_c, 0, 63, 53
1, 151377, Note_on_c, 0, 79, 89
1, 151381, Note_off_c, 0, 51, 36
1, 151408, Control_c, 0, 64, 113
1, 151415, Note_off_c, 0, 75, 61
1, 151422, Control_c, 0, 64, 113
1, 151496, Control_c, 0, 64, 116
1, 151511, Control_c, 0, 64, 127
1, 151560, Note_on_c, 0, 64, 90
1, 151562, Note_on_c, 0, 52, 84
1, 151576, Note_on_c, 0, 80, 82
1, 151585, Control_c, 0, 64, 109
1, 151600, Control_c, 0, 64, 87
1, 151615, Control_c, 0, 64, 69
1, 151620, Note_off_c, 0, 79, 56
1, 151629, Control_c, 0, 64, 54
1, 151644, Control_c, 0, 64, 33
1, 151659, Control_c, 0, 64, 30
1, 151674, Control_c, 0, 64, 32
1, 151689, Control_c, 0, 64, 42
1, 151703, Control_c, 0, 64, 54
1, 151718, Control_c, 0, 64, 61
1, 151733, Control_c, 0, 64, 65
1, 151748, Control_c, 0, 64, 70
1, 151757, Note_on_c, 0, 75, 85
1, 151763, Control_c, 0, 64, 80
1, 151778, Control_c, 0, 64, 91
1, 151793, Control_c, 0, 64, 106
1, 151802, Note_off_c, 0, 80, 57
1, 151808, Control_c, 0, 64, 127
1, 151840, Note_off_c, 0, 52, 61
1, 151841, Note_off_c, 0, 64, 54
1, 151911, Note_on_c, 0, 68, 84
1, 151948, Note_off_c, 0, 75, 60
1, 152052, Note_on_c, 0, 80, 84
1, 152065, Note_off_c, 0, 68, 59
1, 152190, Note_on_c, 0, 73, 86
1, 152264, Note_off_c, 0, 80, 54
1, 152320, Note_on_c, 0, 70, 85
1, 152327, Note_off_c, 0, 73, 60
1, 152449, Note_off_c, 0, 70, 59
1, 152465, Note_on_c, 0, 63, 87
1, 152467, Note_on_c, 0, 51, 83
1, 152488, Note_on_c, 0, 80, 74
1, 152497, Control_c, 0, 64, 87
1, 152512, Control_c, 0, 64, 68
1, 152526, Control_c, 0, 64, 53
1, 152541, Control_c, 0, 64, 33
1, 152571, Control_c, 0, 64, 38
1, 152586, Control_c, 0, 64, 46
1, 152601, Control_c, 0, 64, 56
1, 152615, Control_c, 0, 64, 62
1, 152630, Note_on_c, 0, 75, 68
1, 152630, Control_c, 0, 64, 65
1, 152645, Control_c, 0, 64, 68
1, 152660, Control_c, 0, 64, 73
1, 152675, Control_c, 0, 64, 80
1, 152678, Note_off_c, 0, 80, 60
1, 152690, Control_c, 0, 64, 92
1, 152705, Control_c, 0, 64, 105
1, 152719, Control_c, 0, 64, 127
1, 152730, Note_off_c, 0, 51, 53
1, 152753, Note_on_c, 0, 71, 74
1, 152754, Note_off_c, 0, 63, 59
1, 152754, Note_off_c, 0, 75, 50
1, 152810, Note_off_c, 0, 71, 61
1, 152879, Note_on_c, 0, 71, 73
1, 152973, Note_off_c, 0, 71, 60
1, 153009, Note_on_c, 0, 75, 78
1, 153131, Note_on_c, 0, 78, 84
1, 153160, Note_off_c, 0, 75, 56
1, 153288, Note_on_c, 0, 76, 81
1, 153292, Note_on_c, 0, 61, 87
1, 153296, Note_on_c, 0, 49, 79
1, 153310, Note_off_c, 0, 78, 59
1, 153320, Control_c, 0, 64, 104
1, 153335, Control_c, 0, 64, 78
1, 153349, Control_c, 0, 64, 60
1, 153364, Control_c, 0, 64, 26
1, 153379, Control_c, 0, 64, 0
1, 153408, Control_c, 0, 64, 28
1, 153423, Control_c, 0, 64, 46
1, 153438, Control_c, 0, 64, 57
1, 153453, Control_c, 0, 64, 61
1, 153459, Note_on_c, 0, 71, 69
1, 153468, Control_c, 0, 64, 64
1, 153483, Control_c, 0, 64, 66
1, 153486, Note_off_c, 0, 76, 58
1, 153498, Control_c, 0, 64, 69
1, 153513, Control_c, 0, 64, 74
1, 153528, Control_c, 0, 64, 82
1, 153542, Control_c, 0, 64, 88
1, 153557, Control_c, 0, 64, 93
1, 153572, Control_c, 0, 64, 97
1, 153587, Control_c, 0, 64, 99
1, 153602, Control_c, 0, 64, 100
1, 153604, Note_on_c, 0, 67, 70
1, 153605, Note_off_c, 0, 49, 39
1, 153615, Note_off_c, 0, 61, 45
1, 153617, Control_c, 0, 64, 101
1, 153632, Control_c, 0, 64, 102
1, 153632, Note_off_c, 0, 71, 54
1, 153751, Note_on_c, 0, 76, 75
1, 153758, Control_c, 0, 64, 101
1, 153763, Note_off_c, 0, 67, 60
1, 153887, Note_on_c, 0, 70, 74
1, 153891, Control_c, 0, 64, 101
1, 153906, Control_c, 0, 64, 100
1, 153934, Note_off_c, 0, 76, 57
1, 154008, Note_on_c, 0, 67, 71
1, 154015, Note_off_c, 0, 70, 55
1, 154039, Control_c, 0, 64, 100
1, 154144, Note_off_c, 0, 67, 55
1, 154150, Note_on_c, 0, 59, 71
1, 154152, Note_on_c, 0, 47, 65
1, 154158, Control_c, 0, 64, 99
1, 154166, Note_on_c, 0, 76, 74
1, 154172, Control_c, 0, 64, 96
1, 154187, Control_c, 0, 64, 86
1, 154202, Control_c, 0, 64, 73
1, 154216, Control_c, 0, 64, 63
1, 154231, Control_c, 0, 64, 50
1, 154246, Control_c, 0, 64, 45
1, 154261, Control_c, 0, 64, 46
1, 154276, Control_c, 0, 64, 52
1, 154291, Control_c, 0, 64, 59
1, 154306, Control_c, 0, 64, 63
1, 154321, Control_c, 0, 64, 66
1, 154324, Note_on_c, 0, 71, 63
1, 154335, Control_c, 0, 64, 70
1, 154350, Control_c, 0, 64, 76
1, 154365, Control_c, 0, 64, 83
1, 154380, Control_c, 0, 64, 90
1, 154403, Control_c, 0, 64, 97
1, 154418, Control_c, 0, 64, 103
1, 154428, Note_off_c, 0, 71, 57
1, 154433, Control_c, 0, 64, 110
1, 154437, Note_off_c, 0, 47, 49
1, 154447, Control_c, 0, 64, 121
1, 154462, Note_off_c, 0, 59, 57
1, 154462, Control_c, 0, 64, 127
1, 154487, Note_on_c, 0, 68, 66
1, 154517, Note_off_c, 0, 68, 65
1, 154611, Note_on_c, 0, 68, 66
1, 154689, Note_off_c, 0, 68, 49
1, 154747, Note_on_c, 0, 71, 63
1, 154760, Note_on_c, 0, 58, 65
1, 154833, Note_off_c, 0, 58, 61
1, 154833, Note_off_c, 0, 71, 60
1, 154870, Note_on_c, 0, 75, 64
1, 154907, Note_off_c, 0, 76, 53
1, 154942, Note_off_c, 0, 75, 59
1, 155016, Note_on_c, 0, 56, 69
1, 155025, Note_on_c, 0, 52, 63
1, 155039, Note_on_c, 0, 68, 72
1, 155040, Control_c, 0, 64, 114
1, 155055, Control_c, 0, 64, 82
1, 155070, Control_c, 0, 64, 65
1, 155085, Control_c, 0, 64, 52
1, 155100, Control_c, 0, 64, 53
1, 155114, Control_c, 0, 64, 60
1, 155129, Control_c, 0, 64, 64
1, 155152, Control_c, 0, 64, 69
1, 155167, Control_c, 0, 64, 77
1, 155181, Control_c, 0, 64, 89
1, 155183, Note_off_c, 0, 52, 59
1, 155186, Note_on_c, 0, 71, 74
1, 155197, Note_off_c, 0, 68, 59
1, 155197, Control_c, 0, 64, 103
1, 155212, Control_c, 0, 64, 127
1, 155230, Note_off_c, 0, 56, 61
1, 155271, Note_on_c, 0, 49, 71
1, 155303, Note_on_c, 0, 73, 73
1, 155319, Note_off_c, 0, 71, 61
1, 155345, Note_on_c, 0, 56, 77
1, 155388, Note_off_c, 0, 49, 61
1, 155433, Control_c, 0, 64, 97
1, 155448, Control_c, 0, 64, 72
1, 155455, Note_on_c, 0, 64, 80
1, 155460, Note_on_c, 0, 68, 74
1, 155462, Control_c, 0, 64, 59
1, 155474, Note_off_c, 0, 73, 58
1, 155477, Control_c, 0, 64, 52
1, 155492, Control_c, 0, 64, 58
1, 155507, Control_c, 0, 64, 63
1, 155522, Control_c, 0, 64, 66
1, 155537, Control_c, 0, 64, 70
1, 155552, Control_c, 0, 64, 77
1, 155567, Control_c, 0, 64, 86
1, 155581, Control_c, 0, 64, 94
1, 155590, Note_off_c, 0, 64, 60
1, 155596, Control_c, 0, 64, 99
1, 155611, Control_c, 0, 64, 104
1, 155626, Control_c, 0, 64, 112
1, 155641, Control_c, 0, 64, 127
1, 155647, Note_on_c, 0, 71, 72
1, 155652, Note_off_c, 0, 68, 50
1, 155659, Note_off_c, 0, 56, 62
1, 155769, Note_on_c, 0, 76, 74
1, 155792, Note_off_c, 0, 71, 57
1, 155882, Note_on_c, 0, 54, 69
1, 155883, Note_on_c, 0, 63, 69
1, 155906, Note_on_c, 0, 66, 72
1, 155915, Control_c, 0, 64, 91
1, 155930, Control_c, 0, 64, 71
1, 155944, Control_c, 0, 64, 60
1, 155959, Control_c, 0, 64, 49
1, 155974, Control_c, 0, 64, 52
1, 155982, Note_off_c, 0, 76, 51
1, 155989, Control_c, 0, 64, 57
1, 156005, Control_c, 0, 64, 61
1, 156020, Control_c, 0, 64, 64
1, 156035, Control_c, 0, 64, 67
1, 156045, Note_on_c, 0, 71, 73
1, 156049, Control_c, 0, 64, 72
1, 156060, Note_off_c, 0, 66, 57
1, 156064, Control_c, 0, 64, 77
1, 156071, Note_off_c, 0, 63, 60
1, 156079, Control_c, 0, 64, 83
1, 156081, Note_off_c, 0, 54, 54
1, 156093, Control_c, 0, 64, 87
1, 156108, Control_c, 0, 64, 93
1, 156123, Control_c, 0, 64, 99
1, 156138, Control_c, 0, 64, 107
1, 156153, Control_c, 0, 64, 117
1, 156167, Control_c, 0, 64, 127
1, 156185, Note_on_c, 0, 75, 71
1, 156213, Note_off_c, 0, 71, 60
1, 156303, Note_on_c, 0, 54, 65
1, 156309, Note_on_c, 0, 61, 59
1, 156324, Note_on_c, 0, 66, 62
1, 156326, Note_on_c, 0, 70, 72
1, 156329, Note_off_c, 0, 75, 58
1, 156330, Control_c, 0, 64, 87
1, 156345, Control_c, 0, 64, 69
1, 156359, Control_c, 0, 64, 59
1, 156374, Control_c, 0, 64, 59
1, 156389, Control_c, 0, 64, 63
1, 156404, Control_c, 0, 64, 65
1, 156419, Control_c, 0, 64, 69
1, 156434, Control_c, 0, 64, 76
1, 156449, Control_c, 0, 64, 85
1, 156464, Control_c, 0, 64, 92
1, 156479, Control_c, 0, 64, 96
1, 156485, Note_on_c, 0, 78, 78
1, 156493, Control_c, 0, 64, 97
1, 156497, Note_off_c, 0, 70, 55
1, 156500, Note_off_c, 0, 61, 60
1, 156508, Control_c, 0, 64, 97
1, 156523, Control_c, 0, 64, 99
1, 156532, Note_off_c, 0, 54, 53
1, 156538, Control_c, 0, 64, 100
1, 156544, Note_off_c, 0, 66, 41
1, 156553, Control_c, 0, 64, 101
1, 156567, Control_c, 0, 64, 102
1, 156591, Note_off_c, 0, 78, 63
1, 156643, Note_on_c, 0, 76, 75
1, 156693, Control_c, 0, 64, 106
1, 156708, Control_c, 0, 64, 113
1, 156723, Control_c, 0, 64, 127
1, 156783, Note_off_c, 0, 76, 59
1, 156812, Control_c, 0, 64, 93
1, 156827, Control_c, 0, 64, 70
1, 156836, Note_on_c, 0, 59, 62
1, 156836, Note_on_c, 0, 54, 59
1, 156840, Note_on_c, 0, 47, 55
1, 156841, Control_c, 0, 64, 52
1, 156846, Note_on_c, 0, 75, 67
1, 156850, Note_on_c, 0, 66, 61
1, 156853, Note_on_c, 0, 71, 65
1, 156856, Control_c, 0, 64, 42
1, 156871, Control_c, 0, 64, 52
1, 156886, Control_c, 0, 64, 61
1, 156901, Control_c, 0, 64, 66
1, 156915, Control_c, 0, 64, 73
1, 156924, Note_off_c, 0, 66, 62
1, 156930, Control_c, 0, 64, 85
1, 156945, Control_c, 0, 64, 98
1, 156949, Note_off_c, 0, 71, 62
1, 156960, Note_off_c, 0, 75, 61
1, 156960, Control_c, 0, 64, 106
1, 156975, Control_c, 0, 64, 111
1, 156989, Control_c, 0, 64, 116
1, 157004, Control_c, 0, 64, 117
1, 157034, Control_c, 0, 64, 118
1, 157041, Note_on_c, 0, 63, 60
1, 157048, Control_c, 0, 64, 119
1, 157063, Control_c, 0, 64, 121
1, 157138, Control_c, 0, 64, 118
1, 157152, Control_c, 0, 64, 117
1, 157167, Control_c, 0, 64, 116
1, 157181, Note_on_c, 0, 66, 66
1, 157185, Note_off_c, 0, 63, 38
1, 157195, Note_off_c, 0, 47, 31
1, 157203, Note_off_c, 0, 59, 33
1, 157308, Note_on_c, 0, 71, 71
1, 157315, Note_off_c, 0, 66, 55
1, 157330, Control_c, 0, 64, 117
1, 157409, Note_off_c, 0, 54, 42
1, 157451, Note_on_c, 0, 66, 66
1, 157452, Note_off_c, 0, 71, 58
1, 157572, Note_on_c, 0, 63, 64
1, 157577, Note_off_c, 0, 66, 55
1, 157663, Control_c, 0, 64, 116
1, 157687, Note_off_c, 0, 63, 59
1, 157698, Note_on_c, 0, 75, 65
1, 157737, Control_c, 0, 64, 115
1, 157811, Control_c, 0, 64, 114
1, 157841, Control_c, 0, 64, 113
1, 157844, Note_on_c, 0, 71, 65
1, 157856, Control_c, 0, 64, 113
1, 157859, Note_off_c, 0, 75, 49
1, 157901, Control_c, 0, 64, 112
1, 157930, Control_c, 0, 64, 111
1, 157942, Note_off_c, 0, 71, 60
1, 157975, Control_c, 0, 64, 111
1, 157975, Note_on_c, 0, 66, 61
1, 157990, Control_c, 0, 64, 110
1, 158005, Control_c, 0, 64, 110
1, 158034, Control_c, 0, 64, 109
1, 158063, Control_c, 0, 64, 108
1, 158106, Note_on_c, 0, 71, 66
1, 158142, Note_off_c, 0, 66, 37
1, 158145, Control_c, 0, 64, 108
1, 158219, Control_c, 0, 64, 107
1, 158234, Control_c, 0, 64, 107
1, 158263, Note_on_c, 0, 75, 67
1, 158264, Control_c, 0, 64, 106
1, 158279, Control_c, 0, 64, 105
1, 158288, Note_off_c, 0, 71, 56
1, 158294, Control_c, 0, 64, 104
1, 158309, Control_c, 0, 64, 104
1, 158406, Note_on_c, 0, 78, 73
1, 158431, Note_off_c, 0, 75, 57
1, 158504, Note_off_c, 0, 78, 57
1, 158517, Control_c, 0, 64, 103
1, 158532, Control_c, 0, 64, 103
1, 158547, Control_c, 0, 64, 102
1, 158576, Control_c, 0, 64, 102
1, 158591, Control_c, 0, 64, 101
1, 158602, Note_on_c, 0, 47, 38
1, 158606, Control_c, 0, 64, 100
1, 158621, Control_c, 0, 64, 98
1, 158635, Control_c, 0, 64, 94
1, 158650, Control_c, 0, 64, 86
1, 158653, Note_on_c, 0, 66, 45
1, 158654, Note_on_c, 0, 78, 59
1, 158665, Control_c, 0, 64, 77
1, 158680, Control_c, 0, 64, 69
1, 158694, Control_c, 0, 64, 62
1, 158709, Control_c, 0, 64, 57
1, 158724, Control_c, 0, 64, 56
1, 158754, Control_c, 0, 64, 58
1, 158768, Control_c, 0, 64, 60
1, 158783, Control_c, 0, 64, 63
1, 158798, Control_c, 0, 64, 66
1, 158813, Control_c, 0, 64, 69
1, 158828, Control_c, 0, 64, 76
1, 158843, Control_c, 0, 64, 82
1, 158844, Note_on_c, 0, 51, 47
1, 158845, Note_off_c, 0, 47, 39
1, 158857, Control_c, 0, 64, 90
1, 158869, Note_off_c, 0, 78, 43
1, 158872, Control_c, 0, 64, 99
1, 158894, Control_c, 0, 64, 110
1, 158909, Note_off_c, 0, 66, 31
1, 158909, Control_c, 0, 64, 127
1, 159002, Note_on_c, 0, 54, 47
1, 159032, Note_off_c, 0, 51, 43
1, 159117, Note_off_c, 0, 54, 53
1, 159135, Note_on_c, 0, 47, 36
1, 159138, Note_on_c, 0, 78, 68
1, 159145, Note_on_c, 0, 66, 50
1, 159161, Control_c, 0, 64, 118
1, 159176, Control_c, 0, 64, 91
1, 159191, Control_c, 0, 64, 75
1, 159206, Control_c, 0, 64, 64
1, 159221, Control_c, 0, 64, 60
1, 159236, Control_c, 0, 64, 61
1, 159251, Control_c, 0, 64, 63
1, 159266, Control_c, 0, 64, 64
1, 159281, Control_c, 0, 64, 67
1, 159296, Note_on_c, 0, 51, 52
1, 159296, Control_c, 0, 64, 71
1, 159307, Note_off_c, 0, 47, 38
1, 159310, Control_c, 0, 64, 78
1, 159325, Control_c, 0, 64, 84
1, 159340, Control_c, 0, 64, 89
1, 159355, Control_c, 0, 64, 92
1, 159370, Control_c, 0, 64, 94
1, 159384, Control_c, 0, 64, 95
1, 159399, Control_c, 0, 64, 96
1, 159415, Note_off_c, 0, 51, 58
1, 159419, Note_on_c, 0, 54, 56
1, 159426, Note_off_c, 0, 78, 33
1, 159444, Control_c, 0, 64, 97
1, 159454, Note_off_c, 0, 66, 23
1, 159458, Control_c, 0, 64, 98
1, 159473, Control_c, 0, 64, 99
1, 159488, Control_c, 0, 64, 100
1, 159540, Note_off_c, 0, 54, 58
1, 159547, Control_c, 0, 64, 99
1, 159556, Note_on_c, 0, 46, 53
1, 159562, Control_c, 0, 64, 94
1, 159566, Note_on_c, 0, 79, 79
1, 159571, Note_on_c, 0, 67, 69
1, 159577, Control_c, 0, 64, 83
1, 159591, Control_c, 0, 64, 71
1, 159606, Control_c, 0, 64, 63
1, 159621, Control_c, 0, 64, 57
1, 159643, Control_c, 0, 64, 58
1, 159658, Control_c, 0, 64, 61
1, 159673, Control_c, 0, 64, 63
1, 159688, Control_c, 0, 64, 65
1, 159703, Control_c, 0, 64, 67
1, 159717, Control_c, 0, 64, 72
1, 159732, Note_on_c, 0, 49, 62
1, 159732, Control_c, 0, 64, 76
1, 159733, Note_off_c, 0, 67, 60
1, 159736, Note_off_c, 0, 46, 55
1, 159742, Note_off_c, 0, 79, 63
1, 159747, Control_c, 0, 64, 80
1, 159762, Control_c, 0, 64, 83
1, 159777, Control_c, 0, 64, 87
1, 159791, Control_c, 0, 64, 90
1, 159806, Control_c, 0, 64, 94
1, 159821, Control_c, 0, 64, 97
1, 159835, Control_c, 0, 64, 100
1, 159850, Control_c, 0, 64, 104
1, 159851, Note_on_c, 0, 51, 71
1, 159863, Note_off_c, 0, 49, 56
1, 159865, Control_c, 0, 64, 111
1, 159880, Control_c, 0, 64, 127
1, 159977, Note_off_c, 0, 51, 61
1, 159981, Note_on_c, 0, 44, 65
1, 159999, Note_on_c, 0, 80, 91
1, 160001, Note_on_c, 0, 68, 86
1, 160014, Control_c, 0, 64, 100
1, 160029, Control_c, 0, 64, 79
1, 160044, Control_c, 0, 64, 64
1, 160059, Control_c, 0, 64, 57
1, 160074, Control_c, 0, 64, 59
1, 160089, Control_c, 0, 64, 62
1, 160104, Control_c, 0, 64, 65
1, 160118, Control_c, 0, 64, 69
1, 160133, Control_c, 0, 64, 77
1, 160138, Note_off_c, 0, 68, 61
1, 160148, Control_c, 0, 64, 86
1, 160158, Note_on_c, 0, 49, 74
1, 160163, Control_c, 0, 64, 94
1, 160165, Note_off_c, 0, 80, 61
1, 160178, Control_c, 0, 64, 99
1, 160179, Note_off_c, 0, 44, 57
1, 160193, Control_c, 0, 64, 100
1, 160207, Control_c, 0, 64, 101
1, 160222, Control_c, 0, 64, 102
1, 160237, Control_c, 0, 64, 102
1, 160282, Note_on_c, 0, 51, 78
1, 160300, Note_off_c, 0, 49, 59
1, 160426, Note_off_c, 0, 51, 60
1, 160429, Note_on_c, 0, 43, 58
1, 160437, Control_c, 0, 64, 101
1, 160452, Control_c, 0, 64, 97
1, 160466, Control_c, 0, 64, 86
1, 160469, Note_on_c, 0, 82, 91
1, 160470, Note_on_c, 0, 70, 82
1, 160481, Control_c, 0, 64, 73
1, 160496, Control_c, 0, 64, 63
1, 160511, Control_c, 0, 64, 53
1, 160540, Control_c, 0, 64, 56
1, 160555, Control_c, 0, 64, 61
1, 160570, Control_c, 0, 64, 65
1, 160585, Control_c, 0, 64, 69
1, 160600, Control_c, 0, 64, 76
1, 160614, Control_c, 0, 64, 85
1, 160621, Note_off_c, 0, 70, 62
1, 160629, Control_c, 0, 64, 91
1, 160637, Note_on_c, 0, 49, 59
1, 160644, Control_c, 0, 64, 93
1, 160654, Note_off_c, 0, 82, 59
1, 160658, Note_off_c, 0, 43, 55
1, 160658, Control_c, 0, 64, 95
1, 160673, Control_c, 0, 64, 96
1, 160688, Control_c, 0, 64, 97
1, 160703, Control_c, 0, 64, 97
1, 160718, Control_c, 0, 64, 98
1, 160732, Control_c, 0, 64, 98
1, 160784, Note_on_c, 0, 51, 60
1, 160787, Note_off_c, 0, 49, 54
1, 160793, Control_c, 0, 64, 98
1, 160882, Control_c, 0, 64, 97
1, 160896, Control_c, 0, 64, 97
1, 160911, Control_c, 0, 64, 96
1, 160926, Control_c, 0, 64, 96
1, 160932, Note_on_c, 0, 43, 43
1, 160941, Control_c, 0, 64, 95
1, 160958, Note_off_c, 0, 51, 34
1, 160986, Control_c, 0, 64, 95
1, 160988, Note_on_c, 0, 73, 66
1, 160992, Note_on_c, 0, 85, 75
1, 161001, Control_c, 0, 64, 92
1, 161016, Control_c, 0, 64, 86
1, 161030, Control_c, 0, 64, 76
1, 161045, Control_c, 0, 64, 66
1, 161060, Control_c, 0, 64, 60
1, 161074, Control_c, 0, 64, 56
1, 161089, Control_c, 0, 64, 57
1, 161104, Control_c, 0, 64, 59
1, 161119, Control_c, 0, 64, 62
1, 161141, Control_c, 0, 64, 65
1, 161156, Control_c, 0, 64, 68
1, 161171, Control_c, 0, 64, 73
1, 161186, Control_c, 0, 64, 78
1, 161199, Note_on_c, 0, 46, 45
1, 161200, Control_c, 0, 64, 82
1, 161215, Control_c, 0, 64, 87
1, 161223, Note_off_c, 0, 43, 33
1, 161226, Note_off_c, 0, 85, 59
1, 161230, Control_c, 0, 64, 92
1, 161230, Note_off_c, 0, 73, 55
1, 161244, Control_c, 0, 64, 95
1, 161259, Control_c, 0, 64, 98
1, 161274, Control_c, 0, 64, 99
1, 161288, Control_c, 0, 64, 100
1, 161303, Control_c, 0, 64, 100
1, 161329, Note_off_c, 0, 46, 55
1, 161353, Note_on_c, 0, 51, 53
1, 161392, Control_c, 0, 64, 100
1, 161451, Control_c, 0, 64, 99
1, 161466, Control_c, 0, 64, 99
1, 161481, Control_c, 0, 64, 96
1, 161496, Control_c, 0, 64, 91
1, 161503, Note_on_c, 0, 83, 62
1, 161505, Note_on_c, 0, 44, 41
1, 161505, Note_off_c, 0, 51, 32
1, 161506, Note_on_c, 0, 71, 48
1, 161510, Control_c, 0, 64, 82
1, 161525, Control_c, 0, 64, 71
1, 161540, Control_c, 0, 64, 63
1, 161555, Control_c, 0, 64, 59
1, 161570, Control_c, 0, 64, 59
1, 161585, Control_c, 0, 64, 60
1, 161600, Control_c, 0, 64, 62
1, 161615, Control_c, 0, 64, 64
1, 161630, Control_c, 0, 64, 68
1, 161645, Control_c, 0, 64, 72
1, 161660, Control_c, 0, 64, 78
1, 161669, Note_off_c, 0, 71, 46
1, 161674, Control_c, 0, 64, 84
1, 161678, Note_off_c, 0, 83, 59
1, 161687, Note_on_c, 0, 47, 39
1, 161689, Control_c, 0, 64, 90
1, 161704, Control_c, 0, 64, 95
1, 161710, Note_off_c, 0, 44, 35
1, 161719, Control_c, 0, 64, 102
1, 161734, Control_c, 0, 64, 108
1, 161749, Control_c, 0, 64, 111
1, 161761, Note_off_c, 0, 47, 56
1, 161764, Control_c, 0, 64, 113
1, 161778, Control_c, 0, 64, 117
1, 161793, Control_c, 0, 64, 121
1, 161829, Note_on_c, 0, 51, 45
1, 161934, Control_c, 0, 64, 118
1, 161937, Note_off_c, 0, 51, 50
1, 161949, Control_c, 0, 64, 107
1, 161955, Note_on_c, 0, 82, 64
1, 161960, Note_on_c, 0, 70, 50
1, 161964, Control_c, 0, 64, 93
1, 161970, Note_on_c, 0, 49, 40
1, 161978, Control_c, 0, 64, 78
1, 161993, Control_c, 0, 64, 67
1, 162008, Control_c, 0, 64, 62
1, 162023, Control_c, 0, 64, 63
1, 162038, Control_c, 0, 64, 65
1, 162053, Control_c, 0, 64, 67
1, 162068, Control_c, 0, 64, 70
1, 162083, Control_c, 0, 64, 74
1, 162098, Control_c, 0, 64, 79
1, 162104, Note_off_c, 0, 70, 56
1, 162112, Control_c, 0, 64, 82
1, 162113, Note_on_c, 0, 52, 43
1, 162123, Note_off_c, 0, 82, 56
1, 162127, Control_c, 0, 64, 85
1, 162142, Control_c, 0, 64, 86
1, 162157, Control_c, 0, 64, 88
1, 162172, Control_c, 0, 64, 88
1, 162196, Note_off_c, 0, 49, 28
1, 162205, Note_off_c, 0, 52, 57
1, 162248, Note_on_c, 0, 58, 50
1, 162292, Note_on_c, 0, 80, 56
1, 162304, Note_off_c, 0, 58, 53
1, 162306, Note_on_c, 0, 68, 44
1, 162367, Note_off_c, 0, 80, 61
1, 162369, Note_off_c, 0, 68, 59
1, 162413, Note_on_c, 0, 51, 43
1, 162439, Control_c, 0, 64, 86
1, 162444, Note_on_c, 0, 79, 61
1, 162449, Note_on_c, 0, 67, 48
1, 162454, Control_c, 0, 64, 82
1, 162469, Control_c, 0, 64, 74
1, 162483, Control_c, 0, 64, 66
1, 162498, Control_c, 0, 64, 59
1, 162513, Control_c, 0, 64, 56
1, 162527, Control_c, 0, 64, 56
1, 162542, Control_c, 0, 64, 59
1, 162557, Control_c, 0, 64, 62
1, 162572, Control_c, 0, 64, 65
1, 162587, Control_c, 0, 64, 67
1, 162598, Note_on_c, 0, 58, 38
1, 162602, Control_c, 0, 64, 71
1, 162616, Note_off_c, 0, 51, 41
1, 162616, Control_c, 0, 64, 75
1, 162639, Control_c, 0, 64, 78
1, 162654, Control_c, 0, 64, 81
1, 162655, Note_off_c, 0, 67, 40
1, 162660, Note_off_c, 0, 79, 34
1, 162669, Control_c, 0, 64, 84
1, 162683, Control_c, 0, 64, 85
1, 162698, Control_c, 0, 64, 86
1, 162713, Control_c, 0, 64, 86
1, 162730, Note_on_c, 0, 61, 45
1, 162742, Control_c, 0, 64, 87
1, 162771, Note_off_c, 0, 58, 30
1, 162846, Note_off_c, 0, 61, 32
1, 162870, Note_on_c, 0, 51, 45
1, 162876, Control_c, 0, 64, 86
1, 162891, Control_c, 0, 64, 86
1, 162892, Note_on_c, 0, 79, 57
1, 162899, Note_on_c, 0, 67, 46
1, 162906, Control_c, 0, 64, 84
1, 162920, Control_c, 0, 64, 80
1, 162935, Control_c, 0, 64, 72
1, 162950, Control_c, 0, 64, 65
1, 162965, Control_c, 0, 64, 62
1, 162980, Control_c, 0, 64, 63
1, 162995, Control_c, 0, 64, 65
1, 163009, Control_c, 0, 64, 67
1, 163024, Control_c, 0, 64, 69
1, 163039, Control_c, 0, 64, 73
1, 163053, Control_c, 0, 64, 77
1, 163056, Note_off_c, 0, 79, 58
1, 163067, Note_off_c, 0, 51, 36
1, 163068, Control_c, 0, 64, 80
1, 163070, Note_on_c, 0, 58, 38
1, 163078, Note_off_c, 0, 67, 35
1, 163083, Control_c, 0, 64, 83
1, 163098, Control_c, 0, 64, 85
1, 163113, Control_c, 0, 64, 87
1, 163127, Control_c, 0, 64, 89
1, 163142, Control_c, 0, 64, 89
1, 163203, Control_c, 0, 64, 90
1, 163214, Note_on_c, 0, 61, 39
1, 163228, Note_off_c, 0, 58, 32
1, 163290, Note_off_c, 0, 61, 45
1, 163321, Control_c, 0, 64, 88
1, 163336, Control_c, 0, 64, 86
1, 163341, Note_on_c, 0, 51, 41
1, 163350, Control_c, 0, 64, 81
1, 163355, Note_on_c, 0, 80, 56
1, 163365, Control_c, 0, 64, 74
1, 163368, Note_on_c, 0, 68, 39
1, 163388, Control_c, 0, 64, 67
1, 163403, Control_c, 0, 64, 65
1, 163418, Control_c, 0, 64, 67
1, 163432, Control_c, 0, 64, 69
1, 163447, Control_c, 0, 64, 71
1, 163462, Control_c, 0, 64, 75
1, 163477, Control_c, 0, 64, 79
1, 163480, Note_off_c, 0, 68, 37
1, 163485, Note_off_c, 0, 80, 39
1, 163491, Control_c, 0, 64, 83
1, 163506, Note_off_c, 0, 51, 47
1, 163506, Control_c, 0, 64, 85
1, 163521, Control_c, 0, 64, 87
1, 163530, Note_on_c, 0, 58, 39
1, 163536, Control_c, 0, 64, 88
1, 163551, Control_c, 0, 64, 90
1, 163565, Control_c, 0, 64, 90
1, 163606, Note_on_c, 0, 79, 61
1, 163618, Note_on_c, 0, 67, 41
1, 163646, Note_off_c, 0, 58, 50
1, 163664, Note_off_c, 0, 67, 61
1, 163678, Note_off_c, 0, 79, 58
1, 163704, Note_on_c, 0, 61, 26
1, 163788, Control_c, 0, 64, 90
1, 163803, Control_c, 0, 64, 89
1, 163811, Note_on_c, 0, 51, 44
1, 163818, Control_c, 0, 64, 88
1, 163832, Control_c, 0, 64, 86
1, 163833, Note_off_c, 0, 61, 34
1, 163847, Control_c, 0, 64, 82
1, 163858, Note_on_c, 0, 77, 50
1, 163862, Control_c, 0, 64, 76
1, 163862, Note_on_c, 0, 65, 38
1, 163876, Control_c, 0, 64, 68
1, 163891, Control_c, 0, 64, 64
1, 163906, Control_c, 0, 64, 61
1, 163921, Control_c, 0, 64, 62
1, 163936, Control_c, 0, 64, 62
1, 163950, Control_c, 0, 64, 64
1, 163965, Control_c, 0, 64, 66
1, 163981, Control_c, 0, 64, 70
1, 163991, Note_off_c, 0, 65, 35
1, 163996, Control_c, 0, 64, 75
1, 164008, Note_on_c, 0, 58, 38
1, 164011, Control_c, 0, 64, 82
1, 164017, Note_off_c, 0, 51, 36
1, 164026, Control_c, 0, 64, 88
1, 164041, Control_c, 0, 64, 93
1, 164055, Control_c, 0, 64, 99
1, 164070, Control_c, 0, 64, 104
1, 164085, Control_c, 0, 64, 108
1, 164090, Note_off_c, 0, 77, 31
1, 164099, Control_c, 0, 64, 109
1, 164107, Note_on_c, 0, 79, 60
1, 164114, Control_c, 0, 64, 110
1, 164131, Note_on_c, 0, 67, 43
1, 164137, Control_c, 0, 64, 110
1, 164152, Control_c, 0, 64, 111
1, 164166, Control_c, 0, 64, 112
1, 164196, Note_off_c, 0, 67, 49
1, 164226, Note_off_c, 0, 58, 27
1, 164228, Note_off_c, 0, 79, 60
1, 164274, Note_on_c, 0, 61, 39
1, 164300, Control_c, 0, 64, 111
1, 164334, Note_off_c, 0, 61, 45
1, 164418, Control_c, 0, 64, 111
1, 164506, Control_c, 0, 64, 110
1, 164521, Control_c, 0, 64, 110
1, 164536, Control_c, 0, 64, 109
1, 164566, Control_c, 0, 64, 108
1, 164596, Control_c, 0, 64, 108
1, 164611, Control_c, 0, 64, 107
1, 164624, Note_on_c, 0, 44, 32
1, 164626, Control_c, 0, 64, 107
1, 164655, Control_c, 0, 64, 106
1, 164670, Control_c, 0, 64, 104
1, 164685, Note_on_c, 0, 80, 52
1, 164685, Control_c, 0, 64, 101
1, 164693, Note_on_c, 0, 68, 37
1, 164699, Control_c, 0, 64, 96
1, 164714, Control_c, 0, 64, 87
1, 164729, Control_c, 0, 64, 76
1, 164744, Control_c, 0, 64, 66
1, 164759, Control_c, 0, 64, 59
1, 164775, Control_c, 0, 64, 56
1, 164804, Control_c, 0, 64, 57
1, 164819, Control_c, 0, 64, 59
1, 164834, Control_c, 0, 64, 62
1, 164849, Control_c, 0, 64, 65
1, 164864, Control_c, 0, 64, 69
1, 164885, Control_c, 0, 64, 74
1, 164900, Control_c, 0, 64, 83
1, 164915, Control_c, 0, 64, 93
1, 164916, Note_off_c, 0, 44, 40
1, 164930, Control_c, 0, 64, 107
1, 164944, Control_c, 0, 64, 127
1, 165027, Note_off_c, 0, 80, 34
1, 165028, Note_off_c, 0, 68, 34
1, 165155, Note_on_c, 0, 51, 28
1, 165157, Note_on_c, 0, 60, 32
1, 165164, Note_on_c, 0, 56, 26
1, 165221, Note_off_c, 0, 56, 44
1, 165233, Note_off_c, 0, 60, 49
1, 165257, Note_off_c, 0, 51, 31
1, 165348, Note_on_c, 0, 51, 22
1, 165355, Note_on_c, 0, 60, 20
1, 165368, Note_on_c, 0, 56, 39
1, 165419, Note_off_c, 0, 56, 52
1, 165441, Note_off_c, 0, 60, 37
1, 165479, Note_off_c, 0, 51, 0
1, 165517, Poly_aftertouch_c, 0, 51, 127
1, 165517, Note_on_c, 0, 60, 15
1, 165518, Note_on_c, 0, 56, 35
1, 165575, Note_off_c, 0, 60, 51
1, 165641, Note_off_c, 0, 56, 0
1, 165651, Poly_aftertouch_c, 0, 51, 0
1, 165664, Note_on_c, 0, 56, 11
1, 165677, Note_on_c, 0, 51, 10
1, 165691, Note_on_c, 0, 60, 19
1, 165748, Note_off_c, 0, 60, 44
1, 165789, Note_off_c, 0, 51, 33
1, 165874, Note_off_c, 0, 56, 0
1, 165910, Poly_aftertouch_c, 0, 56, 127
1, 165921, Poly_aftertouch_c, 0, 51, 127
1, 165924, Note_on_c, 0, 73, 56
1, 165931, Note_on_c, 0, 60, 20
1, 166080, Note_off_c, 0, 73, 36
1, 166094, Poly_aftertouch_c, 0, 56, 0
1, 166098, Note_off_c, 0, 60, 0
1, 166098, Poly_aftertouch_c, 0, 51, 0
1, 166111, Note_on_c, 0, 56, 26
1, 166119, Note_on_c, 0, 51, 19
1, 166135, Poly_aftertouch_c, 0, 60, 127
1, 166205, Poly_aftertouch_c, 0, 60, 0
1, 166207, Note_on_c, 0, 72, 64
1, 166211, Note_off_c, 0, 51, 36
1, 166262, Note_off_c, 0, 56, 0
1, 166278, Note_on_c, 0, 56, 25
1, 166286, Note_on_c, 0, 51, 28
1, 166309, Note_off_c, 0, 72, 57
1, 166318, Note_on_c, 0, 60, 3
1, 166355, Note_off_c, 0, 51, 43
1, 166363, Note_off_c, 0, 56, 38
1, 166363, Note_off_c, 0, 60, 45
1, 166446, Note_on_c, 0, 56, 28
1, 166451, Note_on_c, 0, 71, 66
1, 166455, Note_on_c, 0, 51, 33
1, 166470, Note_on_c, 0, 60, 11
1, 166506, Note_off_c, 0, 51, 53
1, 166506, Note_off_c, 0, 56, 54
1, 166519, Note_off_c, 0, 60, 49
1, 166536, Note_off_c, 0, 71, 61
1, 166586, Note_on_c, 0, 77, 15
1, 166635, Note_off_c, 0, 77, 44
1, 166647, Note_on_c, 0, 51, 27
1, 166651, Note_on_c, 0, 56, 7
1, 166681, Poly_aftertouch_c, 0, 60, 127
1, 166687, Note_off_c, 0, 51, 50
1, 166698, Note_on_c, 0, 72, 64
1, 166706, Note_off_c, 0, 56, 47
1, 166727, Poly_aftertouch_c, 0, 60, 0
1, 166752, Note_off_c, 0, 72, 61
1, 166813, Note_on_c, 0, 60, 32
1, 166826, Note_on_c, 0, 51, 30
1, 166842, Note_on_c, 0, 56, 35
1, 166856, Note_off_c, 0, 60, 61
1, 166877, Note_off_c, 0, 56, 52
1, 166883, Note_off_c, 0, 51, 63
1, 166939, Note_on_c, 0, 72, 61
1, 167114, Note_off_c, 0, 72, 52
1, 167173, Note_on_c, 0, 37, 38
1, 167220, Control_c, 0, 64, 112
1, 167233, Note_on_c, 0, 77, 61
1, 167235, Control_c, 0, 64, 96
1, 167250, Control_c, 0, 64, 83
1, 167265, Control_c, 0, 64, 72
1, 167279, Control_c, 0, 64, 64
1, 167294, Control_c, 0, 64, 57
1, 167309, Control_c, 0, 64, 56
1, 167323, Control_c, 0, 64, 58
1, 167338, Control_c, 0, 64, 62
1, 167353, Control_c, 0, 64, 66
1, 167368, Control_c, 0, 64, 72
1, 167383, Control_c, 0, 64, 84
1, 167398, Control_c, 0, 64, 103
1, 167413, Control_c, 0, 64, 127
1, 167435, Note_off_c, 0, 37, 40
1, 167648, Note_on_c, 0, 53, 34
1, 167654, Note_on_c, 0, 60, 23
1, 167699, Note_off_c, 0, 53, 57
1, 167699, Poly_aftertouch_c, 0, 49, 127
1, 167716, Note_off_c, 0, 60, 45
1, 167789, Poly_aftertouch_c, 0, 49, 0
1, 167824, Note_on_c, 0, 60, 35
1, 167826, Poly_aftertouch_c, 0, 49, 127
1, 167852, Note_on_c, 0, 53, 28
1, 167881, Note_off_c, 0, 60, 59
1, 167953, Note_off_c, 0, 77, 34
1, 167986, Note_on_c, 0, 57, 43
1, 168031, Note_off_c, 0, 57, 59
1, 168109, Note_off_c, 0, 53, 0
1, 168142, Note_on_c, 0, 57, 49
1, 168146, Poly_aftertouch_c, 0, 53, 127
1, 168152, Note_on_c, 0, 53, 3
1, 168184, Note_off_c, 0, 57, 59
1, 168207, Note_off_c, 0, 53, 43
1, 168289, Note_on_c, 0, 57, 56
1, 168322, Note_on_c, 0, 53, 6
1, 168347, Note_off_c, 0, 57, 47
1, 168406, Note_off_c, 0, 53, 0
1, 168442, Control_c, 0, 64, 123
1, 168443, Poly_aftertouch_c, 0, 53, 127
1, 168453, Note_on_c, 0, 53, 3
1, 168457, Control_c, 0, 64, 100
1, 168459, Note_on_c, 0, 58, 54
1, 168461, Note_on_c, 0, 72, 56
1, 168472, Control_c, 0, 64, 85
1, 168486, Control_c, 0, 64, 73
1, 168501, Control_c, 0, 64, 66
1, 168516, Control_c, 0, 64, 64
1, 168531, Control_c, 0, 64, 65
1, 168545, Control_c, 0, 64, 67
1, 168560, Control_c, 0, 64, 70
1, 168562, Note_off_c, 0, 58, 59
1, 168575, Control_c, 0, 64, 77
1, 168590, Control_c, 0, 64, 88
1, 168605, Control_c, 0, 64, 104
1, 168627, Control_c, 0, 64, 127
1, 168636, Note_off_c, 0, 53, 0
1, 168642, Note_on_c, 0, 58, 50
1, 168652, Note_on_c, 0, 53, 36
1, 168684, Note_off_c, 0, 58, 60
1, 168717, Note_off_c, 0, 53, 55
1, 168723, Note_on_c, 0, 70, 75
1, 168739, Note_off_c, 0, 72, 54
1, 168775, Poly_aftertouch_c, 0, 49, 0
1, 168799, Note_on_c, 0, 58, 56
1, 168800, Note_on_c, 0, 53, 47
1, 168801, Note_on_c, 0, 49, 10
1, 168814, Note_off_c, 0, 70, 62
1, 168841, Note_off_c, 0, 58, 61
1, 168855, Note_off_c, 0, 53, 58
1, 168858, Note_off_c, 0, 49, 55
1, 168942, Note_on_c, 0, 69, 76
1, 168957, Note_on_c, 0, 58, 39
1, 168969, Note_on_c, 0, 53, 40
1, 168980, Note_on_c, 0, 49, 8
1, 168983, Note_off_c, 0, 58, 56
1, 169011, Note_off_c, 0, 53, 56
1, 169016, Note_off_c, 0, 69, 62
1, 169027, Note_off_c, 0, 49, 46
1, 169091, Note_on_c, 0, 58, 43
1, 169111, Note_on_c, 0, 53, 38
1, 169129, Note_off_c, 0, 58, 57
1, 169144, Note_off_c, 0, 53, 58
1, 169165, Note_on_c, 0, 70, 67
1, 169182, Poly_aftertouch_c, 0, 49, 0
1, 169233, Note_off_c, 0, 70, 63
1, 169291, Note_on_c, 0, 58, 40
1, 169295, Note_on_c, 0, 53, 34
1, 169314, Note_on_c, 0, 49, 40
1, 169338, Note_off_c, 0, 58, 59
1, 169344, Note_off_c, 0, 53, 60
1, 169356, Note_off_c, 0, 49, 61
1, 169410, Note_on_c, 0, 70, 58
1, 169505, Note_off_c, 0, 70, 57
1, 169634, Note_on_c, 0, 36, 46
1, 169683, Note_on_c, 0, 75, 60
1, 169689, Control_c, 0, 64, 98
1, 169704, Control_c, 0, 64, 79
1, 169719, Control_c, 0, 64, 67
1, 169734, Control_c, 0, 64, 57
1, 169748, Control_c, 0, 64, 56
1, 169763, Control_c, 0, 64, 58
1, 169778, Control_c, 0, 64, 61
1, 169792, Control_c, 0, 64, 64
1, 169807, Control_c, 0, 64, 69
1, 169822, Control_c, 0, 64, 78
1, 169824, Note_off_c, 0, 36, 62
1, 169837, Control_c, 0, 64, 91
1, 169852, Control_c, 0, 64, 110
1, 169866, Control_c, 0, 64, 127
1, 170016, Note_on_c, 0, 58, 49
1, 170039, Note_on_c, 0, 48, 27
1, 170063, Note_off_c, 0, 58, 57
1, 170083, Note_off_c, 0, 48, 48
1, 170125, Poly_aftertouch_c, 0, 51, 0
1, 170177, Note_on_c, 0, 58, 55
1, 170218, Note_off_c, 0, 58, 59
1, 170325, Note_on_c, 0, 51, 47
1, 170328, Poly_aftertouch_c, 0, 48, 127
1, 170340, Note_on_c, 0, 55, 43
1, 170376, Note_off_c, 0, 51, 57
1, 170378, Note_off_c, 0, 55, 60
1, 170485, Note_on_c, 0, 55, 53
1, 170495, Note_on_c, 0, 51, 50
1, 170498, Poly_aftertouch_c, 0, 48, 0
1, 170527, Note_off_c, 0, 55, 60
1, 170531, Note_off_c, 0, 51, 62
1, 170535, Poly_aftertouch_c, 0, 48, 127
1, 170614, Note_off_c, 0, 75, 0
1, 170617, Poly_aftertouch_c, 0, 48, 0
1, 170641, Note_on_c, 0, 48, 9
1, 170644, Note_on_c, 0, 51, 41
1, 170647, Note_on_c, 0, 55, 52
1, 170677, Poly_aftertouch_c, 0, 75, 0
1, 170683, Note_off_c, 0, 55, 63
1, 170692, Note_off_c, 0, 51, 52
1, 170770, Note_off_c, 0, 48, 0
1, 170802, Note_on_c, 0, 51, 25
1, 170808, Note_on_c, 0, 56, 46
1, 170808, Poly_aftertouch_c, 0, 48, 127
1, 170808, Control_c, 0, 64, 95
1, 170814, Note_on_c, 0, 73, 57
1, 170823, Control_c, 0, 64, 78
1, 170838, Control_c, 0, 64, 67
1, 170853, Control_c, 0, 64, 61
1, 170875, Control_c, 0, 64, 62
1, 170890, Control_c, 0, 64, 64
1, 170904, Control_c, 0, 64, 66
1, 170905, Note_off_c, 0, 56, 60
1, 170919, Control_c, 0, 64, 71
1, 170923, Note_off_c, 0, 51, 36
1, 170934, Control_c, 0, 64, 80
1, 170948, Control_c, 0, 64, 94
1, 170963, Control_c, 0, 64, 112
1, 170973, Poly_aftertouch_c, 0, 48, 0
1, 170978, Control_c, 0, 64, 127
1, 170988, Note_on_c, 0, 48, 32
1, 170990, Note_on_c, 0, 56, 53
1, 170994, Note_on_c, 0, 51, 30
1, 171038, Note_off_c, 0, 56, 58
1, 171047, Note_off_c, 0, 51, 56
1, 171050, Note_off_c, 0, 48, 55
1, 171067, Note_on_c, 0, 72, 72
1, 171082, Note_off_c, 0, 73, 34
1, 171144, Note_on_c, 0, 56, 48
1, 171148, Note_on_c, 0, 51, 49
1, 171154, Note_on_c, 0, 48, 22
1, 171174, Note_off_c, 0, 56, 60
1, 171190, Note_off_c, 0, 51, 61
1, 171195, Note_off_c, 0, 48, 50
1, 171198, Note_off_c, 0, 72, 44
1, 171265, Note_on_c, 0, 56, 46
1, 171293, Note_on_c, 0, 70, 81
1, 171294, Note_on_c, 0, 51, 45
1, 171300, Note_on_c, 0, 48, 19
1, 171305, Note_off_c, 0, 56, 55
1, 171323, Note_off_c, 0, 51, 57
1, 171341, Note_off_c, 0, 48, 41
1, 171372, Note_off_c, 0, 70, 63
1, 171403, Note_on_c, 0, 51, 63
1, 171408, Note_on_c, 0, 56, 60
1, 171436, Note_on_c, 0, 48, 41
1, 171448, Note_off_c, 0, 56, 63
1, 171455, Note_off_c, 0, 51, 54
1, 171466, Note_off_c, 0, 48, 54
1, 171508, Note_on_c, 0, 68, 88
1, 171568, Note_on_c, 0, 48, 43
1, 171568, Note_on_c, 0, 56, 54
1, 171582, Note_on_c, 0, 51, 63
1, 171603, Note_off_c, 0, 56, 64
1, 171619, Note_off_c, 0, 68, 54
1, 171625, Note_off_c, 0, 51, 66
1, 171627, Note_off_c, 0, 48, 62
1, 171782, Note_on_c, 0, 37, 57
1, 171851, Note_on_c, 0, 67, 64
1, 171854, Note_on_c, 0, 75, 88
1, 171860, Control_c, 0, 64, 121
1, 171875, Control_c, 0, 64, 82
1, 171890, Control_c, 0, 64, 66
1, 171905, Control_c, 0, 64, 53
1, 171919, Control_c, 0, 64, 49
1, 171934, Control_c, 0, 64, 54
1, 171949, Control_c, 0, 64, 60
1, 171965, Control_c, 0, 64, 65
1, 171979, Note_off_c, 0, 37, 60
1, 171979, Control_c, 0, 64, 73
1, 171994, Control_c, 0, 64, 87
1, 172009, Control_c, 0, 64, 111
1, 172013, Note_off_c, 0, 75, 63
1, 172024, Control_c, 0, 64, 127
1, 172173, Note_on_c, 0, 49, 47
1, 172185, Note_on_c, 0, 53, 45
1, 172223, Note_off_c, 0, 49, 56
1, 172243, Note_off_c, 0, 53, 55
1, 172251, Note_on_c, 0, 73, 72
1, 172257, Note_on_c, 0, 65, 60
1, 172292, Note_off_c, 0, 65, 65
1, 172298, Note_off_c, 0, 67, 37
1, 172336, Note_off_c, 0, 73, 54
1, 172387, Note_on_c, 0, 53, 45
1, 172397, Note_on_c, 0, 49, 42
1, 172433, Note_off_c, 0, 49, 60
1, 172441, Note_off_c, 0, 53, 55
1, 172509, Note_on_c, 0, 72, 69
1, 172519, Note_on_c, 0, 63, 52
1, 172567, Note_on_c, 0, 53, 41
1, 172567, Note_off_c, 0, 63, 59
1, 172571, Note_on_c, 0, 49, 30
1, 172603, Note_off_c, 0, 53, 58
1, 172611, Note_off_c, 0, 49, 58
1, 172620, Note_off_c, 0, 72, 57
1, 172719, Note_on_c, 0, 49, 36
1, 172731, Note_on_c, 0, 53, 22
1, 172743, Note_on_c, 0, 70, 66
1, 172748, Note_off_c, 0, 49, 52
1, 172751, Note_on_c, 0, 61, 51
1, 172780, Note_off_c, 0, 53, 45
1, 172800, Note_off_c, 0, 61, 55
1, 172830, Note_on_c, 0, 49, 53
1, 172859, Note_off_c, 0, 49, 64
1, 172871, Poly_aftertouch_c, 0, 53, 127
1, 172912, Poly_aftertouch_c, 0, 53, 0
1, 172923, Note_off_c, 0, 70, 30
1, 172936, Control_c, 0, 64, 117
1, 172951, Control_c, 0, 64, 90
1, 172965, Control_c, 0, 64, 72
1, 172980, Control_c, 0, 64, 62
1, 172981, Note_on_c, 0, 39, 40
1, 172981, Note_on_c, 0, 68, 58
1, 172986, Note_on_c, 0, 60, 46
1, 172995, Control_c, 0, 64, 56
1, 173009, Control_c, 0, 64, 60
1, 173024, Control_c, 0, 64, 63
1, 173039, Control_c, 0, 64, 68
1, 173043, Note_off_c, 0, 39, 55
1, 173054, Control_c, 0, 64, 76
1, 173069, Control_c, 0, 64, 90
1, 173083, Control_c, 0, 64, 116
1, 173098, Control_c, 0, 64, 127
1, 173121, Note_off_c, 0, 68, 59
1, 173148, Note_off_c, 0, 60, 62
1, 173207, Note_on_c, 0, 56, 37
1, 173211, Note_on_c, 0, 51, 46
1, 173255, Note_off_c, 0, 51, 55
1, 173259, Note_off_c, 0, 56, 55
1, 173360, Note_on_c, 0, 51, 44
1, 173386, Poly_aftertouch_c, 0, 56, 127
1, 173391, Note_off_c, 0, 51, 51
1, 173420, Poly_aftertouch_c, 0, 56, 0
1, 173491, Control_c, 0, 64, 119
1, 173506, Control_c, 0, 64, 96
1, 173509, Note_on_c, 0, 72, 60
1, 173519, Note_on_c, 0, 63, 45
1, 173521, Control_c, 0, 64, 77
1, 173522, Note_on_c, 0, 39, 43
1, 173535, Control_c, 0, 64, 65
1, 173550, Control_c, 0, 64, 59
1, 173567, Control_c, 0, 64, 62
1, 173582, Control_c, 0, 64, 65
1, 173596, Control_c, 0, 64, 68
1, 173597, Note_off_c, 0, 63, 55
1, 173611, Control_c, 0, 64, 74
1, 173620, Note_off_c, 0, 39, 50
1, 173626, Control_c, 0, 64, 82
1, 173640, Control_c, 0, 64, 91
1, 173655, Control_c, 0, 64, 96
1, 173670, Control_c, 0, 64, 97
1, 173685, Control_c, 0, 64, 98
1, 173700, Control_c, 0, 64, 99
1, 173768, Note_on_c, 0, 55, 40
1, 173770, Note_on_c, 0, 51, 42
1, 173807, Note_off_c, 0, 51, 53
1, 173816, Note_off_c, 0, 72, 55
1, 173828, Note_off_c, 0, 55, 51
1, 173995, Note_on_c, 0, 55, 28
1, 173997, Note_on_c, 0, 51, 34
1, 174042, Note_off_c, 0, 55, 47
1, 174044, Note_off_c, 0, 51, 48
1, 174093, Control_c, 0, 64, 98
1, 174112, Note_on_c, 0, 70, 42
1, 174119, Note_on_c, 0, 61, 30
1, 174152, Control_c, 0, 64, 98
1, 174211, Control_c, 0, 64, 97
1, 174240, Note_on_c, 0, 44, 33
1, 174240, Control_c, 0, 64, 97
1, 174260, Note_off_c, 0, 61, 40
1, 174285, Control_c, 0, 64, 96
1, 174299, Note_off_c, 0, 70, 32
1, 174300, Control_c, 0, 64, 95
1, 174314, Control_c, 0, 64, 94
1, 174329, Control_c, 0, 64, 92
1, 174344, Control_c, 0, 64, 88
1, 174360, Control_c, 0, 64, 80
1, 174367, Note_on_c, 0, 68, 45
1, 174375, Control_c, 0, 64, 71
1, 174378, Note_on_c, 0, 60, 33
1, 174389, Control_c, 0, 64, 61
1, 174404, Control_c, 0, 64, 52
1, 174419, Control_c, 0, 64, 50
1, 174449, Control_c, 0, 64, 54
1, 174463, Control_c, 0, 64, 59
1, 174478, Control_c, 0, 64, 65
1, 174493, Control_c, 0, 64, 70
1, 174508, Control_c, 0, 64, 79
1, 174523, Note_off_c, 0, 44, 49
1, 174523, Control_c, 0, 64, 90
1, 174537, Control_c, 0, 64, 104
1, 174552, Control_c, 0, 64, 127
1, 174611, Note_off_c, 0, 60, 35
1, 174701, Note_off_c, 0, 68, 32
1, 174749, Note_on_c, 0, 60, 32
1, 174754, Note_on_c, 0, 51, 33
1, 174762, Note_on_c, 0, 56, 16
1, 174795, Note_off_c, 0, 60, 51
1, 174805, Note_off_c, 0, 51, 46
1, 174816, Note_off_c, 0, 56, 45
1, 174910, Note_on_c, 0, 56, 35
1, 174913, Note_on_c, 0, 60, 19
1, 174917, Note_on_c, 0, 51, 35
1, 174958, Note_off_c, 0, 60, 48
1, 174966, Note_off_c, 0, 51, 53
1, 174968, Note_off_c, 0, 56, 54
1, 175062, Note_on_c, 0, 56, 31
1, 175077, Note_on_c, 0, 51, 32
1, 175110, Note_off_c, 0, 56, 48
1, 175117, Note_off_c, 0, 51, 49
1, 175131, Poly_aftertouch_c, 0, 60, 127
1, 175171, Poly_aftertouch_c, 0, 60, 0
1, 175208, Poly_aftertouch_c, 0, 60, 127
1, 175210, Note_on_c, 0, 56, 36
1, 175227, Note_on_c, 0, 51, 36
1, 175260, Note_off_c, 0, 56, 55
1, 175278, Note_off_c, 0, 51, 45
1, 175345, Poly_aftertouch_c, 0, 60, 0
1, 175376, Note_on_c, 0, 60, 4
1, 175379, Note_on_c, 0, 56, 42
1, 175385, Note_on_c, 0, 51, 33
1, 175427, Note_off_c, 0, 56, 56
1, 175452, Note_off_c, 0, 51, 43
1, 175510, Note_off_c, 0, 60, 0
1, 175521, Note_on_c, 0, 73, 58
1, 175546, Note_on_c, 0, 51, 23
1, 175547, Poly_aftertouch_c, 0, 60, 127
1, 175563, Note_on_c, 0, 56, 38
1, 175605, Note_off_c, 0, 56, 51
1, 175630, Note_off_c, 0, 51, 40
1, 175637, Poly_aftertouch_c, 0, 60, 0
1, 175714, Note_on_c, 0, 51, 24
1, 175714, Note_on_c, 0, 60, 6
1, 175719, Note_on_c, 0, 56, 45
1, 175738, Note_off_c, 0, 73, 38
1, 175754, Note_off_c, 0, 56, 58
1, 175761, Note_on_c, 0, 72, 69
1, 175774, Note_off_c, 0, 51, 44
1, 175777, Note_off_c, 0, 60, 43
1, 175864, Note_off_c, 0, 72, 56
1, 175870, Note_on_c, 0, 51, 37
1, 175870, Note_on_c, 0, 56, 45
1, 175875, Note_on_c, 0, 60, 11
1, 175905, Note_off_c, 0, 56, 58
1, 175910, Note_off_c, 0, 51, 52
1, 175929, Note_off_c, 0, 60, 45
1, 176004, Note_on_c, 0, 71, 69
1, 176022, Note_on_c, 0, 51, 44
1, 176023, Note_on_c, 0, 56, 45
1, 176052, Poly_aftertouch_c, 0, 60, 127
1, 176066, Note_off_c, 0, 56, 59
1, 176072, Note_off_c, 0, 51, 55
1, 176088, Note_off_c, 0, 71, 62
1, 176095, Poly_aftertouch_c, 0, 60, 0
1, 176197, Note_on_c, 0, 51, 41
1, 176200, Note_on_c, 0, 60, 25
1, 176202, Note_on_c, 0, 56, 43
1, 176242, Note_off_c, 0, 51, 58
1, 176243, Note_off_c, 0, 56, 59
1, 176250, Note_off_c, 0, 60, 46
1, 176270, Note_on_c, 0, 72, 63
1, 176362, Note_off_c, 0, 72, 57
1, 176379, Note_on_c, 0, 51, 45
1, 176385, Note_on_c, 0, 56, 34
1, 176401, Note_on_c, 0, 60, 5
1, 176419, Note_off_c, 0, 56, 52
1, 176420, Note_off_c, 0, 51, 64
1, 176451, Note_off_c, 0, 60, 36
1, 176624, Note_on_c, 0, 37, 37
1, 176634, Control_c, 0, 64, 113
1, 176640, Note_on_c, 0, 84, 65
1, 176648, Note_on_c, 0, 77, 52
1, 176649, Control_c, 0, 64, 90
1, 176664, Control_c, 0, 64, 72
1, 176679, Control_c, 0, 64, 59
1, 176694, Control_c, 0, 64, 49
1, 176708, Control_c, 0, 64, 53
1, 176723, Control_c, 0, 64, 58
1, 176738, Control_c, 0, 64, 63
1, 176754, Control_c, 0, 64, 68
1, 176769, Control_c, 0, 64, 75
1, 176783, Control_c, 0, 64, 87
1, 176798, Control_c, 0, 64, 101
1, 176805, Note_off_c, 0, 37, 37
1, 176813, Control_c, 0, 64, 119
1, 176828, Control_c, 0, 64, 127
1, 176846, Note_off_c, 0, 84, 57
1, 176961, Note_on_c, 0, 60, 34
1, 176966, Note_on_c, 0, 53, 41
1, 176977, Note_on_c, 0, 49, 22
1, 177000, Note_off_c, 0, 60, 48
1, 177016, Note_on_c, 0, 82, 59
1, 177017, Note_off_c, 0, 53, 56
1, 177029, Note_off_c, 0, 49, 44
1, 177121, Note_on_c, 0, 60, 43
1, 177127, Note_on_c, 0, 49, 24
1, 177145, Note_on_c, 0, 53, 28
1, 177150, Note_off_c, 0, 60, 56
1, 177184, Note_off_c, 0, 49, 44
1, 177187, Note_off_c, 0, 53, 48
1, 177226, Note_off_c, 0, 82, 38
1, 177241, Note_on_c, 0, 81, 56
1, 177265, Note_on_c, 0, 60, 42
1, 177287, Note_on_c, 0, 49, 12
1, 177288, Note_on_c, 0, 53, 32
1, 177303, Note_off_c, 0, 60, 59
1, 177329, Note_off_c, 0, 53, 51
1, 177333, Note_off_c, 0, 49, 49
1, 177406, Note_on_c, 0, 60, 48
1, 177442, Note_off_c, 0, 60, 62
1, 177478, Note_on_c, 0, 82, 64
1, 177524, Note_off_c, 0, 81, 37
1, 177544, Note_on_c, 0, 60, 52
1, 177573, Note_off_c, 0, 77, 37
1, 177577, Note_off_c, 0, 60, 66
1, 177586, Note_on_c, 0, 53, 8
1, 177644, Poly_aftertouch_c, 0, 49, 127
1, 177674, Control_c, 0, 64, 117
1, 177688, Control_c, 0, 64, 99
1, 177697, Note_off_c, 0, 82, 52
1, 177700, Note_on_c, 0, 58, 58
1, 177703, Control_c, 0, 64, 80
1, 177718, Control_c, 0, 64, 66
1, 177722, Note_on_c, 0, 72, 56
1, 177733, Control_c, 0, 64, 59
1, 177747, Control_c, 0, 64, 61
1, 177762, Control_c, 0, 64, 64
1, 177777, Control_c, 0, 64, 66
1, 177777, Note_off_c, 0, 58, 51
1, 177792, Control_c, 0, 64, 71
1, 177806, Control_c, 0, 64, 80
1, 177820, Note_off_c, 0, 53, 0
1, 177821, Control_c, 0, 64, 90
1, 177834, Poly_aftertouch_c, 0, 49, 0
1, 177836, Control_c, 0, 64, 100
1, 177842, Poly_aftertouch_c, 0, 53, 0
1, 177851, Control_c, 0, 64, 104
1, 177862, Note_on_c, 0, 53, 32
1, 177866, Control_c, 0, 64, 106
1, 177872, Poly_aftertouch_c, 0, 49, 127
1, 177878, Note_on_c, 0, 58, 41
1, 177880, Control_c, 0, 64, 107
1, 177895, Control_c, 0, 64, 107
1, 177910, Control_c, 0, 64, 108
1, 177913, Note_off_c, 0, 58, 57
1, 177925, Control_c, 0, 64, 109
1, 177940, Note_off_c, 0, 53, 54
1, 177941, Note_off_c, 0, 72, 55
1, 177942, Poly_aftertouch_c, 0, 49, 0
1, 177954, Control_c, 0, 64, 110
1, 177956, Note_on_c, 0, 70, 70
1, 177984, Control_c, 0, 64, 111
1, 177999, Control_c, 0, 64, 114
1, 178008, Note_on_c, 0, 53, 38
1, 178013, Control_c, 0, 64, 118
1, 178020, Note_on_c, 0, 58, 56
1, 178028, Control_c, 0, 64, 127
1, 178034, Note_on_c, 0, 49, 21
1, 178060, Note_off_c, 0, 58, 62
1, 178064, Note_off_c, 0, 70, 55
1, 178077, Note_off_c, 0, 49, 50
1, 178086, Note_off_c, 0, 53, 58
1, 178153, Note_on_c, 0, 53, 42
1, 178159, Note_on_c, 0, 69, 79
1, 178171, Note_on_c, 0, 58, 35
1, 178187, Note_on_c, 0, 49, 21
1, 178207, Note_off_c, 0, 58, 49
1, 178213, Note_off_c, 0, 69, 65
1, 178218, Note_off_c, 0, 53, 60
1, 178227, Note_off_c, 0, 49, 41
1, 178284, Note_on_c, 0, 58, 67
1, 178300, Note_on_c, 0, 53, 46
1, 178312, Note_on_c, 0, 49, 29
1, 178327, Note_off_c, 0, 58, 59
1, 178341, Note_off_c, 0, 53, 62
1, 178361, Note_off_c, 0, 49, 43
1, 178390, Note_on_c, 0, 70, 80
1, 178447, Note_on_c, 0, 58, 53
1, 178448, Note_on_c, 0, 53, 56
1, 178454, Note_on_c, 0, 49, 44
1, 178478, Note_off_c, 0, 58, 64
1, 178480, Note_off_c, 0, 53, 65
1, 178490, Note_off_c, 0, 49, 63
1, 178571, Note_off_c, 0, 70, 55
1, 178626, Note_on_c, 0, 36, 54
1, 178643, Control_c, 0, 64, 115
1, 178653, Note_on_c, 0, 75, 60
1, 178655, Note_on_c, 0, 82, 73
1, 178658, Control_c, 0, 64, 77
1, 178673, Control_c, 0, 64, 55
1, 178688, Control_c, 0, 64, 38
1, 178702, Control_c, 0, 64, 47
1, 178714, Note_off_c, 0, 36, 63
1, 178717, Control_c, 0, 64, 56
1, 178732, Control_c, 0, 64, 63
1, 178747, Control_c, 0, 64, 69
1, 178762, Control_c, 0, 64, 80
1, 178776, Control_c, 0, 64, 101
1, 178791, Control_c, 0, 64, 121
1, 178806, Control_c, 0, 64, 127
1, 178836, Control_c, 0, 64, 123
1, 178850, Control_c, 0, 64, 121
1, 178865, Control_c, 0, 64, 119
1, 178871, Note_on_c, 0, 58, 47
1, 178877, Note_on_c, 0, 48, 41
1, 178878, Note_off_c, 0, 82, 55
1, 178880, Control_c, 0, 64, 118
1, 178886, Note_on_c, 0, 51, 34
1, 178908, Note_off_c, 0, 58, 58
1, 178921, Note_off_c, 0, 51, 48
1, 178922, Note_off_c, 0, 48, 57
1, 178925, Control_c, 0, 64, 117
1, 178940, Note_on_c, 0, 80, 70
1, 179008, Note_on_c, 0, 58, 52
1, 179013, Note_on_c, 0, 51, 50
1, 179045, Note_on_c, 0, 48, 21
1, 179048, Note_off_c, 0, 51, 61
1, 179049, Note_off_c, 0, 58, 61
1, 179087, Note_off_c, 0, 48, 42
1, 179140, Control_c, 0, 64, 118
1, 179149, Note_on_c, 0, 79, 72
1, 179155, Control_c, 0, 64, 119
1, 179160, Note_on_c, 0, 51, 54
1, 179165, Note_on_c, 0, 58, 51
1, 179170, Control_c, 0, 64, 123
1, 179171, Note_off_c, 0, 80, 32
1, 179185, Control_c, 0, 64, 127
1, 179202, Note_off_c, 0, 51, 60
1, 179204, Note_off_c, 0, 58, 61
1, 179231, Note_off_c, 0, 75, 42
1, 179300, Note_on_c, 0, 58, 60
1, 179301, Note_on_c, 0, 51, 55
1, 179338, Note_off_c, 0, 51, 63
1, 179340, Note_off_c, 0, 58, 62
1, 179368, Note_on_c, 0, 80, 77
1, 179375, Note_off_c, 0, 79, 62
1, 179427, Note_on_c, 0, 58, 63
1, 179453, Note_on_c, 0, 51, 50
1, 179459, Note_off_c, 0, 58, 65
1, 179483, Note_off_c, 0, 51, 58
1, 179519, Poly_aftertouch_c, 0, 48, 127
1, 179570, Control_c, 0, 64, 104
1, 179575, Note_on_c, 0, 56, 58
1, 179584, Control_c, 0, 64, 80
1, 179591, Note_on_c, 0, 51, 50
1, 179599, Control_c, 0, 64, 63
1, 179614, Control_c, 0, 64, 51
1, 179617, Note_on_c, 0, 74, 51
1, 179629, Control_c, 0, 64, 55
1, 179643, Control_c, 0, 64, 59
1, 179658, Control_c, 0, 64, 63
1, 179673, Note_off_c, 0, 56, 62
1, 179673, Control_c, 0, 64, 69
1, 179688, Control_c, 0, 64, 78
1, 179689, Note_off_c, 0, 51, 52
1, 179697, Poly_aftertouch_c, 0, 48, 0
1, 179703, Control_c, 0, 64, 95
1, 179718, Control_c, 0, 64, 113
1, 179728, Note_off_c, 0, 74, 27
1, 179733, Control_c, 0, 64, 127
1, 179753, Note_on_c, 0, 51, 47
1, 179756, Note_on_c, 0, 56, 56
1, 179769, Note_off_c, 0, 80, 22
1, 179796, Note_on_c, 0, 72, 72
1, 179799, Note_off_c, 0, 56, 59
1, 179814, Note_off_c, 0, 51, 58
1, 179816, Poly_aftertouch_c, 0, 48, 0
1, 179843, Poly_aftertouch_c, 0, 48, 0
1, 179860, Note_off_c, 0, 72, 62
1, 179927, Note_on_c, 0, 56, 53
1, 179929, Note_on_c, 0, 51, 57
1, 179932, Note_on_c, 0, 48, 35
1, 179961, Note_off_c, 0, 56, 65
1, 179968, Note_off_c, 0, 51, 64
1, 179971, Note_off_c, 0, 48, 58
1, 180001, Note_on_c, 0, 70, 80
1, 180046, Note_on_c, 0, 56, 57
1, 180054, Note_on_c, 0, 51, 58
1, 180074, Note_off_c, 0, 70, 62
1, 180081, Note_off_c, 0, 56, 65
1, 180085, Note_on_c, 0, 48, 6
1, 180086, Note_off_c, 0, 51, 65
1, 180117, Note_off_c, 0, 48, 0
1, 180161, Note_on_c, 0, 51, 65
1, 180171, Note_on_c, 0, 56, 58
1, 180175, Poly_aftertouch_c, 0, 48, 0
1, 180196, Note_on_c, 0, 48, 4
1, 180198, Note_off_c, 0, 51, 63
1, 180204, Note_off_c, 0, 56, 65
1, 180219, Note_on_c, 0, 68, 92
1, 180228, Note_off_c, 0, 48, 0
1, 180248, Poly_aftertouch_c, 0, 48, 0
1, 180270, Note_off_c, 0, 68, 63
1, 180295, Note_on_c, 0, 56, 65
1, 180297, Note_on_c, 0, 51, 68
1, 180319, Note_on_c, 0, 48, 37
1, 180326, Note_off_c, 0, 56, 66
1, 180335, Note_off_c, 0, 51, 63
1, 180353, Note_off_c, 0, 48, 49
1, 180468, Note_on_c, 0, 37, 70
1, 180481, Control_c, 0, 64, 119
1, 180496, Control_c, 0, 64, 78
1, 180511, Control_c, 0, 64, 62
1, 180526, Control_c, 0, 64, 43
1, 180527, Note_on_c, 0, 75, 72
1, 180529, Note_on_c, 0, 67, 78
1, 180529, Note_on_c, 0, 79, 89
1, 180555, Control_c, 0, 64, 53
1, 180570, Control_c, 0, 64, 62
1, 180585, Control_c, 0, 64, 69
1, 180589, Note_off_c, 0, 37, 61
1, 180607, Control_c, 0, 64, 80
1, 180616, Note_off_c, 0, 75, 63
1, 180622, Control_c, 0, 64, 100
1, 180624, Note_off_c, 0, 67, 64
1, 180631, Note_off_c, 0, 79, 67
1, 180637, Control_c, 0, 64, 127
1, 180728, Note_on_c, 0, 56, 64
1, 180731, Note_on_c, 0, 53, 59
1, 180756, Note_on_c, 0, 49, 28
1, 180773, Note_off_c, 0, 56, 61
1, 180794, Note_off_c, 0, 49, 50
1, 180795, Note_off_c, 0, 53, 61
1, 180813, Note_on_c, 0, 73, 81
1, 180815, Note_on_c, 0, 77, 85
1, 180821, Note_on_c, 0, 65, 72
1, 180847, Note_off_c, 0, 65, 67
1, 180848, Note_off_c, 0, 73, 64
1, 180857, Note_off_c, 0, 77, 61
1, 180884, Note_on_c, 0, 56, 71
1, 180890, Note_on_c, 0, 49, 49
1, 180907, Note_on_c, 0, 53, 49
1, 180940, Note_off_c, 0, 49, 58
1, 180940, Note_off_c, 0, 53, 61
1, 180983, Note_off_c, 0, 56, 30
1, 180994, Control_c, 0, 64, 87
1, 181009, Control_c, 0, 64, 67
1, 181023, Note_on_c, 0, 75, 77
1, 181023, Control_c, 0, 64, 60
1, 181024, Note_on_c, 0, 72, 66
1, 181026, Note_on_c, 0, 63, 63
1, 181028, Note_on_c, 0, 57, 59
1, 181029, Note_on_c, 0, 53, 52
1, 181038, Control_c, 0, 64, 61
1, 181051, Note_on_c, 0, 49, 43
1, 181053, Control_c, 0, 64, 64
1, 181068, Control_c, 0, 64, 68
1, 181080, Note_off_c, 0, 49, 57
1, 181081, Note_off_c, 0, 63, 62
1, 181083, Control_c, 0, 64, 76
1, 181087, Note_off_c, 0, 72, 65
1, 181090, Note_off_c, 0, 53, 52
1, 181098, Control_c, 0, 64, 93
1, 181104, Note_off_c, 0, 75, 61
1, 181113, Control_c, 0, 64, 119
1, 181128, Control_c, 0, 64, 127
1, 181162, Note_on_c, 0, 49, 51
1, 181176, Note_on_c, 0, 53, 39
1, 181211, Note_off_c, 0, 49, 57
1, 181211, Note_off_c, 0, 57, 51
1, 181230, Note_off_c, 0, 53, 57
1, 181247, Note_on_c, 0, 73, 71
1, 181250, Note_on_c, 0, 70, 63
1, 181250, Note_on_c, 0, 61, 64
1, 181298, Note_off_c, 0, 61, 54
1, 181301, Note_off_c, 0, 70, 58
1, 181334, Note_on_c, 0, 49, 50
1, 181337, Note_off_c, 0, 73, 56
1, 181355, Note_on_c, 0, 58, 51
1, 181356, Note_on_c, 0, 53, 47
1, 181378, Note_off_c, 0, 58, 60
1, 181378, Note_off_c, 0, 53, 61
1, 181386, Note_off_c, 0, 49, 64
1, 181446, Control_c, 0, 64, 121
1, 181461, Control_c, 0, 64, 108
1, 181476, Control_c, 0, 64, 89
1, 181491, Control_c, 0, 64, 72
1, 181505, Control_c, 0, 64, 60
1, 181516, Note_on_c, 0, 60, 51
1, 181518, Note_on_c, 0, 39, 41
1, 181520, Control_c, 0, 64, 48
1, 181521, Note_on_c, 0, 68, 46
1, 181523, Note_on_c, 0, 72, 54
1, 181535, Control_c, 0, 64, 49
1, 181551, Control_c, 0, 64, 55
1, 181566, Control_c, 0, 64, 63
1, 181581, Control_c, 0, 64, 70
1, 181585, Note_off_c, 0, 39, 57
1, 181595, Control_c, 0, 64, 81
1, 181610, Control_c, 0, 64, 104
1, 181625, Control_c, 0, 64, 127
1, 181626, Note_off_c, 0, 60, 61
1, 181632, Note_off_c, 0, 72, 63
1, 181662, Note_off_c, 0, 68, 60
1, 181757, Note_on_c, 0, 56, 42
1, 181760, Note_on_c, 0, 51, 49
1, 181804, Note_off_c, 0, 56, 57
1, 181811, Note_off_c, 0, 51, 59
1, 181911, Note_on_c, 0, 51, 57
1, 181927, Note_on_c, 0, 56, 28
1, 181945, Note_off_c, 0, 51, 65
1, 181960, Note_off_c, 0, 56, 51
1, 182084, Control_c, 0, 64, 104
1, 182093, Note_on_c, 0, 73, 65
1, 182106, Note_on_c, 0, 61, 50
1, 182106, Control_c, 0, 64, 77
1, 182108, Note_on_c, 0, 39, 39
1, 182109, Note_on_c, 0, 67, 48
1, 182121, Control_c, 0, 64, 61
1, 182135, Control_c, 0, 64, 48
1, 182150, Control_c, 0, 64, 48
1, 182165, Control_c, 0, 64, 51
1, 182180, Control_c, 0, 64, 58
1, 182195, Control_c, 0, 64, 64
1, 182209, Note_off_c, 0, 39, 59
1, 182209, Control_c, 0, 64, 69
1, 182224, Control_c, 0, 64, 77
1, 182237, Note_off_c, 0, 73, 61
1, 182239, Control_c, 0, 64, 86
1, 182253, Control_c, 0, 64, 96
1, 182268, Control_c, 0, 64, 109
1, 182283, Control_c, 0, 64, 127
1, 182398, Note_on_c, 0, 55, 40
1, 182402, Note_on_c, 0, 58, 38
1, 182419, Note_on_c, 0, 51, 24
1, 182446, Note_off_c, 0, 61, 38
1, 182464, Note_off_c, 0, 67, 38
1, 182465, Note_off_c, 0, 51, 50
1, 182466, Note_off_c, 0, 58, 52
1, 182470, Note_off_c, 0, 55, 54
1, 182637, Note_on_c, 0, 51, 37
1, 182648, Note_on_c, 0, 58, 20
1, 182652, Note_on_c, 0, 55, 22
1, 182689, Note_off_c, 0, 55, 52
1, 182690, Note_off_c, 0, 58, 46
1, 182700, Note_off_c, 0, 51, 61
1, 182764, Note_on_c, 0, 70, 50
1, 182800, Note_off_c, 0, 70, 62
1, 183052, Note_on_c, 0, 32, 36
1, 183066, Note_on_c, 0, 68, 54
1, 183072, Note_on_c, 0, 44, 29
1, 183072, Note_on_c, 0, 63, 37
1, 183074, Note_on_c, 0, 56, 36
1, 183081, Note_on_c, 0, 60, 37
1, 183106, Control_c, 0, 64, 97
1, 183121, Control_c, 0, 64, 77
1, 183136, Control_c, 0, 64, 65
1, 183152, Control_c, 0, 64, 56
1, 183167, Control_c, 0, 64, 56
1, 183181, Control_c, 0, 64, 58
1, 183196, Control_c, 0, 64, 61
1, 183211, Control_c, 0, 64, 64
1, 183225, Control_c, 0, 64, 69
1, 183240, Control_c, 0, 64, 76
1, 183255, Note_off_c, 0, 44, 51
1, 183255, Control_c, 0, 64, 84
1, 183268, Note_off_c, 0, 32, 38
1, 183270, Control_c, 0, 64, 91
1, 183285, Control_c, 0, 64, 98
1, 183299, Control_c, 0, 64, 106
1, 183314, Control_c, 0, 64, 121
1, 183329, Control_c, 0, 64, 127
1, 183468, Note_on_c, 0, 48, 21
1, 183491, Note_on_c, 0, 51, 16
1, 183530, Note_off_c, 0, 48, 43
1, 183530, Note_off_c, 0, 56, 38
1, 183532, Poly_aftertouch_c, 0, 44, 127
1, 183536, Note_off_c, 0, 68, 36
1, 183547, Note_off_c, 0, 51, 45
1, 183551, Note_off_c, 0, 60, 41
1, 183577, Note_off_c, 0, 63, 24
1, 183587, Poly_aftertouch_c, 0, 44, 0
1, 183632, Poly_aftertouch_c, 0, 44, 127
1, 183641, Note_on_c, 0, 48, 28
1, 183647, Note_on_c, 0, 51, 20
1, 183703, Note_off_c, 0, 48, 42
1, 183711, Note_off_c, 0, 51, 43
1, 183811, Note_on_c, 0, 48, 33
1, 183811, Note_on_c, 0, 51, 34
1, 183856, Note_off_c, 0, 48, 57
1, 183859, Note_off_c, 0, 51, 47
1, 183915, Poly_aftertouch_c, 0, 44, 0
1, 183953, Poly_aftertouch_c, 0, 44, 127
1, 183978, Note_on_c, 0, 48, 37
1, 183978, Note_on_c, 0, 51, 29
1, 184019, Note_off_c, 0, 48, 48
1, 184022, Note_off_c, 0, 51, 49
1, 184060, Poly_aftertouch_c, 0, 44, 0
1, 184097, Poly_aftertouch_c, 0, 44, 127
1, 184128, Note_on_c, 0, 48, 36
1, 184138, Note_on_c, 0, 51, 31
1, 184183, Note_off_c, 0, 48, 51
1, 184185, Note_off_c, 0, 51, 46
1, 184280, Note_on_c, 0, 48, 33
1, 184294, Note_on_c, 0, 51, 33
1, 184351, Note_off_c, 0, 51, 46
1, 184370, Note_off_c, 0, 48, 38
1, 184434, Note_on_c, 0, 48, 28
1, 184470, Note_on_c, 0, 51, 8
1, 184499, Note_off_c, 0, 48, 51
1, 184529, Note_off_c, 0, 51, 45
1, 184532, Poly_aftertouch_c, 0, 44, 0
1, 184569, Poly_aftertouch_c, 0, 44, 127
1, 184571, Note_on_c, 0, 48, 30
1, 184602, Note_on_c, 0, 51, 23
1, 184652, Note_off_c, 0, 51, 46
1, 184702, Note_off_c, 0, 48, 0
1, 184719, Note_on_c, 0, 48, 27
1, 184747, Note_on_c, 0, 60, 55
1, 184751, Note_on_c, 0, 51, 28
1, 184793, Note_off_c, 0, 48, 55
1, 184798, Note_off_c, 0, 51, 49
1, 184835, Poly_aftertouch_c, 0, 44, 0
1, 184890, Note_on_c, 0, 44, 24
1, 184899, Note_on_c, 0, 48, 26
1, 184914, Note_off_c, 0, 60, 51
1, 184941, Note_off_c, 0, 44, 52
1, 184941, Note_off_c, 0, 48, 49
1, 185039, Poly_aftertouch_c, 0, 51, 127
1, 185080, Poly_aftertouch_c, 0, 51, 0
1, 185101, Poly_aftertouch_c, 0, 44, 127
1, 185136, Note_on_c, 0, 63, 51
1, 185138, Poly_aftertouch_c, 0, 44, 0
1, 185294, Control_c, 0, 64, 109
1, 185301, Note_on_c, 0, 68, 57
1, 185304, Note_on_c, 0, 44, 19
1, 185304, Note_on_c, 0, 32, 39
1, 185305, Note_on_c, 0, 56, 44
1, 185305, Note_off_c, 0, 63, 42
1, 185309, Control_c, 0, 64, 80
1, 185324, Control_c, 0, 64, 66
1, 185338, Control_c, 0, 64, 58
1, 185353, Control_c, 0, 64, 60
1, 185368, Control_c, 0, 64, 62
1, 185383, Control_c, 0, 64, 66
1, 185391, Note_off_c, 0, 32, 57
1, 185398, Control_c, 0, 64, 72
1, 185404, Note_off_c, 0, 44, 36
1, 185413, Control_c, 0, 64, 82
1, 185427, Control_c, 0, 64, 98
1, 185442, Control_c, 0, 64, 116
1, 185457, Control_c, 0, 64, 127
1, 185501, Note_off_c, 0, 56, 54
1, 185520, Note_off_c, 0, 68, 37
1, 185579, Note_on_c, 0, 48, 29
1, 185596, Note_on_c, 0, 44, 12
1, 185611, Note_on_c, 0, 51, 11
1, 185623, Note_off_c, 0, 48, 48
1, 185650, Note_off_c, 0, 44, 45
1, 185712, Note_off_c, 0, 51, 0
1, 185748, Note_on_c, 0, 48, 13
1, 185750, Poly_aftertouch_c, 0, 51, 127
1, 185758, Poly_aftertouch_c, 0, 44, 127
1, 185762, Note_on_c, 0, 44, 3
1, 185796, Poly_aftertouch_c, 0, 51, 0
1, 185798, Note_off_c, 0, 48, 47
1, 185817, Note_off_c, 0, 44, 41
1, 185889, Note_on_c, 0, 68, 63
1, 185893, Note_on_c, 0, 44, 16
1, 185893, Note_on_c, 0, 56, 55
1, 185904, Note_on_c, 0, 48, 30
1, 185915, Note_on_c, 0, 51, 15
1, 185950, Note_off_c, 0, 48, 47
1, 185961, Note_off_c, 0, 56, 52
1, 185964, Note_off_c, 0, 51, 51
1, 185967, Note_off_c, 0, 44, 40
1, 186059, Note_off_c, 0, 68, 36
1, 186081, Note_on_c, 0, 48, 36
1, 186093, Note_on_c, 0, 51, 19
1, 186096, Poly_aftertouch_c, 0, 44, 127
1, 186127, Note_off_c, 0, 48, 45
1, 186145, Note_off_c, 0, 51, 46
1, 186157, Poly_aftertouch_c, 0, 44, 0
1, 186248, Note_on_c, 0, 44, 19
1, 186253, Note_on_c, 0, 48, 37
1, 186255, Note_on_c, 0, 51, 24
1, 186294, Note_off_c, 0, 48, 51
1, 186311, Note_off_c, 0, 51, 44
1, 186318, Note_off_c, 0, 44, 41
1, 186395, Note_on_c, 0, 68, 75
1, 186400, Note_on_c, 0, 56, 60
1, 186404, Note_on_c, 0, 51, 29
1, 186404, Note_on_c, 0, 44, 18
1, 186432, Note_on_c, 0, 48, 35
1, 186461, Note_off_c, 0, 48, 55
1, 186464, Note_off_c, 0, 51, 44
1, 186485, Note_off_c, 0, 56, 46
1, 186489, Note_off_c, 0, 44, 38
1, 186567, Note_on_c, 0, 48, 49
1, 186577, Note_off_c, 0, 68, 57
1, 186578, Note_on_c, 0, 44, 31
1, 186582, Note_on_c, 0, 51, 39
1, 186628, Note_off_c, 0, 48, 59
1, 186636, Note_off_c, 0, 51, 49
1, 186638, Note_off_c, 0, 44, 56
1, 186752, Note_on_c, 0, 48, 47
1, 186754, Note_on_c, 0, 44, 37
1, 186759, Note_on_c, 0, 51, 41
1, 186797, Note_off_c, 0, 48, 60
1, 186802, Note_off_c, 0, 44, 59
1, 186802, Note_off_c, 0, 51, 55
1, 186893, Note_on_c, 0, 68, 79
1, 186896, Note_on_c, 0, 56, 64
1, 186922, Note_on_c, 0, 44, 33
1, 186922, Note_on_c, 0, 48, 39
1, 186939, Note_on_c, 0, 51, 11
1, 186955, Note_off_c, 0, 48, 55
1, 186962, Note_off_c, 0, 44, 54
1, 186976, Note_off_c, 0, 56, 54
1, 186982, Note_off_c, 0, 51, 41
1, 187055, Note_on_c, 0, 48, 51
1, 187063, Note_on_c, 0, 44, 54
1, 187066, Note_off_c, 0, 68, 57
1, 187105, Note_off_c, 0, 44, 60
1, 187108, Note_off_c, 0, 48, 60
1, 187127, Poly_aftertouch_c, 0, 51, 127
1, 187170, Poly_aftertouch_c, 0, 51, 0
1, 187232, Note_on_c, 0, 44, 42
1, 187235, Note_on_c, 0, 48, 50
1, 187266, Note_off_c, 0, 48, 63
1, 187274, Note_off_c, 0, 44, 61
1, 187514, Note_on_c, 0, 67, 77
1, 187519, Note_on_c, 0, 55, 69
1, 187522, Note_on_c, 0, 31, 49
1, 187524, Note_on_c, 0, 43, 54
1, 187526, Control_c, 0, 64, 105
1, 187540, Control_c, 0, 64, 79
1, 187555, Control_c, 0, 64, 65
1, 187570, Control_c, 0, 64, 57
1, 187585, Control_c, 0, 64, 54
1, 187600, Control_c, 0, 64, 56
1, 187614, Control_c, 0, 64, 62
1, 187621, Note_off_c, 0, 31, 62
1, 187629, Control_c, 0, 64, 68
1, 187644, Control_c, 0, 64, 78
1, 187659, Note_off_c, 0, 43, 62
1, 187659, Control_c, 0, 64, 96
1, 187674, Control_c, 0, 64, 127
1, 187835, Note_on_c, 0, 49, 45
1, 187865, Note_off_c, 0, 49, 63
1, 187915, Note_on_c, 0, 43, 6
1, 187935, Poly_aftertouch_c, 0, 51, 127
1, 187988, Poly_aftertouch_c, 0, 51, 0
1, 188031, Note_off_c, 0, 43, 0
1, 188040, Note_on_c, 0, 48, 30
1, 188048, Note_on_c, 0, 43, 24
1, 188049, Note_on_c, 0, 51, 37
1, 188100, Note_off_c, 0, 48, 59
1, 188121, Note_off_c, 0, 51, 49
1, 188190, Note_off_c, 0, 43, 0
1, 188212, Note_on_c, 0, 51, 39
1, 188213, Note_on_c, 0, 43, 13
1, 188228, Note_on_c, 0, 48, 48
1, 188262, Note_off_c, 0, 48, 62
1, 188266, Note_off_c, 0, 51, 52
1, 188348, Note_off_c, 0, 43, 0
1, 188371, Note_on_c, 0, 43, 6
1, 188371, Note_on_c, 0, 48, 50
1, 188380, Note_off_c, 0, 55, 30
1, 188385, Note_on_c, 0, 51, 45
1, 188428, Note_off_c, 0, 48, 56
1, 188431, Note_off_c, 0, 51, 54
1, 188521, Note_off_c, 0, 67, 47
1, 188555, Note_on_c, 0, 51, 36
1, 188556, Note_on_c, 0, 48, 50
1, 188598, Note_off_c, 0, 51, 49
1, 188598, Note_off_c, 0, 48, 60
1, 188705, Note_on_c, 0, 51, 44
1, 188706, Note_on_c, 0, 48, 51
1, 188743, Note_off_c, 0, 48, 63
1, 188744, Note_off_c, 0, 51, 53
1, 188812, Note_off_c, 0, 43, 0
1, 188857, Poly_aftertouch_c, 0, 43, 127
1, 188866, Note_on_c, 0, 51, 42
1, 188867, Note_on_c, 0, 48, 48
1, 188893, Note_off_c, 0, 51, 56
1, 188902, Note_off_c, 0, 48, 62
1, 188913, Poly_aftertouch_c, 0, 43, 0
1, 188983, Note_on_c, 0, 51, 49
1, 189004, Note_on_c, 0, 48, 58
1, 189006, Note_on_c, 0, 43, 36
1, 189033, Note_off_c, 0, 51, 58
1, 189044, Note_off_c, 0, 48, 60
1, 189051, Note_off_c, 0, 43, 58
1, 189150, Note_on_c, 0, 48, 52
1, 189159, Note_on_c, 0, 60, 76
1, 189164, Note_on_c, 0, 51, 41
1, 189179, Note_on_c, 0, 43, 39
1, 189200, Note_off_c, 0, 48, 56
1, 189202, Note_off_c, 0, 51, 53
1, 189206, Note_off_c, 0, 43, 57
1, 189299, Note_on_c, 0, 51, 50
1, 189304, Note_on_c, 0, 43, 44
1, 189310, Note_on_c, 0, 48, 60
1, 189334, Note_off_c, 0, 51, 59
1, 189339, Note_off_c, 0, 60, 58
1, 189343, Note_off_c, 0, 43, 59
1, 189345, Note_off_c, 0, 48, 63
1, 189436, Note_on_c, 0, 48, 64
1, 189436, Note_on_c, 0, 51, 60
1, 189440, Note_on_c, 0, 43, 55
1, 189468, Note_off_c, 0, 51, 66
1, 189469, Note_off_c, 0, 48, 66
1, 189481, Note_off_c, 0, 43, 62
1, 189535, Note_on_c, 0, 63, 77
1, 189624, Note_off_c, 0, 63, 61
1, 189638, Control_c, 0, 64, 101
1, 189653, Control_c, 0, 64, 71
1, 189656, Note_on_c, 0, 67, 89
1, 189661, Note_on_c, 0, 55, 79
1, 189668, Control_c, 0, 64, 48
1, 189672, Note_on_c, 0, 31, 64
1, 189672, Note_on_c, 0, 43, 65
1, 189683, Control_c, 0, 64, 26
1, 189698, Control_c, 0, 64, 32
1, 189713, Control_c, 0, 64, 47
1, 189718, Note_off_c, 0, 31, 63
1, 189728, Control_c, 0, 64, 62
1, 189741, Note_off_c, 0, 43, 62
1, 189742, Control_c, 0, 64, 70
1, 189757, Control_c, 0, 64, 88
1, 189772, Control_c, 0, 64, 127
1, 189903, Note_on_c, 0, 48, 52
1, 189905, Note_on_c, 0, 43, 40
1, 189919, Note_on_c, 0, 51, 50
1, 189936, Note_off_c, 0, 67, 55
1, 189950, Note_off_c, 0, 55, 55
1, 189954, Note_off_c, 0, 48, 60
1, 189956, Note_off_c, 0, 51, 59
1, 189965, Note_off_c, 0, 43, 53
1, 190044, Note_on_c, 0, 51, 62
1, 190047, Note_on_c, 0, 48, 53
1, 190050, Note_on_c, 0, 43, 41
1, 190085, Note_off_c, 0, 51, 61
1, 190088, Note_off_c, 0, 48, 59
1, 190098, Note_off_c, 0, 43, 57
1, 190188, Note_on_c, 0, 51, 58
1, 190191, Note_on_c, 0, 48, 60
1, 190196, Note_on_c, 0, 67, 85
1, 190196, Note_on_c, 0, 43, 51
1, 190202, Note_on_c, 0, 55, 73
1, 190259, Note_off_c, 0, 51, 60
1, 190264, Note_off_c, 0, 43, 58
1, 190283, Note_off_c, 0, 48, 61
1, 190307, Note_off_c, 0, 55, 50
1, 190389, Note_on_c, 0, 51, 70
1, 190398, Note_on_c, 0, 43, 52
1, 190399, Note_on_c, 0, 48, 62
1, 190422, Note_off_c, 0, 67, 57
1, 190440, Note_off_c, 0, 43, 60
1, 190443, Note_off_c, 0, 48, 61
1, 190445, Note_off_c, 0, 51, 61
1, 190542, Note_on_c, 0, 43, 57
1, 190545, Note_on_c, 0, 51, 68
1, 190546, Note_on_c, 0, 48, 67
1, 190584, Note_off_c, 0, 51, 61
1, 190591, Note_off_c, 0, 48, 62
1, 190595, Note_off_c, 0, 43, 56
1, 190694, Note_on_c, 0, 67, 91
1, 190698, Note_on_c, 0, 48, 60
1, 190699, Note_on_c, 0, 55, 86
1, 190700, Note_on_c, 0, 51, 57
1, 190711, Note_on_c, 0, 43, 59
1, 190762, Note_off_c, 0, 43, 58
1, 190773, Note_off_c, 0, 51, 59
1, 190787, Note_off_c, 0, 55, 61
1, 190803, Note_off_c, 0, 48, 61
1, 190818, Note_off_c, 0, 67, 61
1, 190873, Note_on_c, 0, 51, 72
1, 190875, Note_on_c, 0, 43, 60
1, 190877, Note_on_c, 0, 48, 50
1, 190917, Note_off_c, 0, 51, 60
1, 190919, Note_off_c, 0, 48, 56
1, 190931, Note_off_c, 0, 43, 54
1, 191030, Note_on_c, 0, 51, 69
1, 191036, Note_on_c, 0, 48, 61
1, 191048, Note_on_c, 0, 43, 56
1, 191096, Note_off_c, 0, 51, 61
1, 191097, Note_off_c, 0, 43, 58
1, 191117, Note_off_c, 0, 48, 60
1, 191193, Note_on_c, 0, 67, 97
1, 191194, Note_on_c, 0, 55, 96
1, 191202, Note_on_c, 0, 43, 59
1, 191202, Note_on_c, 0, 51, 72
1, 191209, Note_on_c, 0, 48, 53
1, 191245, Note_off_c, 0, 51, 59
1, 191255, Note_off_c, 0, 43, 59
1, 191257, Note_off_c, 0, 48, 60
1, 191270, Note_off_c, 0, 55, 58
1, 191286, Note_off_c, 0, 67, 64
1, 191349, Note_on_c, 0, 51, 71
1, 191350, Note_on_c, 0, 48, 67
1, 191355, Note_on_c, 0, 43, 59
1, 191386, Note_off_c, 0, 51, 62
1, 191388, Note_off_c, 0, 43, 64
1, 191392, Note_off_c, 0, 48, 59
1, 191501, Note_on_c, 0, 48, 62
1, 191501, Note_on_c, 0, 51, 49
1, 191505, Note_on_c, 0, 43, 50
1, 191527, Note_off_c, 0, 48, 68
1, 191531, Note_off_c, 0, 51, 54
1, 191540, Note_off_c, 0, 43, 63
1, 191655, Control_c, 0, 64, 108
1, 191670, Control_c, 0, 64, 69
1, 191685, Control_c, 0, 64, 0
1, 191686, Note_on_c, 0, 65, 88
1, 191686, Note_on_c, 0, 53, 93
1, 191695, Note_on_c, 0, 29, 70
1, 191695, Note_on_c, 0, 41, 74
1, 191744, Control_c, 0, 64, 54
1, 191745, Note_off_c, 0, 29, 63
1, 191759, Control_c, 0, 64, 68
1, 191762, Note_off_c, 0, 41, 65
1, 191774, Control_c, 0, 64, 85
1, 191788, Control_c, 0, 64, 127
1, 191923, Note_on_c, 0, 48, 41
1, 191939, Note_on_c, 0, 51, 46
1, 191953, Note_off_c, 0, 53, 29
1, 191968, Note_off_c, 0, 48, 62
1, 191973, Note_off_c, 0, 51, 62
1, 191989, Note_off_c, 0, 65, 56
1, 192000, Poly_aftertouch_c, 0, 41, 127
1, 192065, Note_on_c, 0, 48, 52
1, 192073, Note_on_c, 0, 51, 47
1, 192095, Note_off_c, 0, 48, 64
1, 192109, Note_off_c, 0, 51, 49
1, 192120, Poly_aftertouch_c, 0, 41, 0
1, 192190, Note_on_c, 0, 48, 56
1, 192198, Note_on_c, 0, 51, 56
1, 192213, Note_on_c, 0, 41, 38
1, 192238, Note_off_c, 0, 51, 61
1, 192242, Note_off_c, 0, 48, 60
1, 192254, Note_off_c, 0, 41, 55
1, 192351, Note_on_c, 0, 51, 50
1, 192363, Note_on_c, 0, 41, 41
1, 192368, Note_on_c, 0, 48, 50
1, 192382, Note_off_c, 0, 51, 60
1, 192397, Note_off_c, 0, 41, 53
1, 192398, Note_off_c, 0, 48, 63
1, 192482, Note_on_c, 0, 48, 58
1, 192482, Note_on_c, 0, 51, 51
1, 192485, Note_on_c, 0, 41, 54
1, 192510, Note_off_c, 0, 51, 61
1, 192515, Note_off_c, 0, 48, 64
1, 192527, Note_off_c, 0, 41, 63
1, 192605, Control_c, 0, 64, 102
1, 192619, Control_c, 0, 64, 66
1, 192634, Control_c, 0, 64, 0
1, 192662, Note_on_c, 0, 30, 78
1, 192665, Note_on_c, 0, 42, 79
1, 192666, Note_on_c, 0, 54, 93
1, 192666, Note_on_c, 0, 66, 94
1, 192678, Control_c, 0, 64, 38
1, 192693, Control_c, 0, 64, 62
1, 192702, Note_off_c, 0, 30, 65
1, 192705, Note_off_c, 0, 42, 63
1, 192708, Control_c, 0, 64, 72
1, 192723, Control_c, 0, 64, 91
1, 192738, Control_c, 0, 64, 127
1, 192810, Note_off_c, 0, 54, 61
1, 192826, Note_off_c, 0, 66, 56
1, 192849, Note_on_c, 0, 48, 52
1, 192852, Note_on_c, 0, 51, 58
1, 192855, Note_on_c, 0, 42, 43
1, 192898, Note_off_c, 0, 42, 56
1, 192902, Note_off_c, 0, 48, 59
1, 192903, Note_off_c, 0, 51, 60
1, 193013, Note_on_c, 0, 48, 54
1, 193016, Note_on_c, 0, 42, 52
1, 193022, Note_on_c, 0, 51, 37
1, 193051, Note_off_c, 0, 51, 53
1, 193053, Note_off_c, 0, 48, 62
1, 193059, Note_off_c, 0, 42, 60
1, 193155, Note_on_c, 0, 51, 47
1, 193162, Note_on_c, 0, 48, 52
1, 193170, Note_on_c, 0, 42, 41
1, 193201, Note_off_c, 0, 51, 61
1, 193209, Note_off_c, 0, 48, 63
1, 193212, Note_off_c, 0, 42, 60
1, 193335, Note_on_c, 0, 48, 49
1, 193335, Note_on_c, 0, 42, 36
1, 193338, Note_on_c, 0, 51, 41
1, 193379, Note_off_c, 0, 48, 58
1, 193381, Note_off_c, 0, 42, 58
1, 193382, Note_off_c, 0, 51, 55
1, 193525, Note_on_c, 0, 42, 30
1, 193528, Note_on_c, 0, 51, 26
1, 193534, Note_on_c, 0, 48, 38
1, 193605, Note_off_c, 0, 48, 52
1, 193615, Note_off_c, 0, 51, 37
1, 193624, Note_off_c, 0, 42, 49
1, 193843, Control_c, 0, 64, 109
1, 193857, Control_c, 0, 64, 87
1, 193872, Control_c, 0, 64, 76
1, 193887, Control_c, 0, 64, 70
1, 193900, Note_on_c, 0, 47, 20
1, 193901, Control_c, 0, 64, 66
1, 193902, Note_on_c, 0, 43, 27
1, 193904, Note_on_c, 0, 50, 34
1, 193907, Note_on_c, 0, 67, 39
1, 193908, Note_on_c, 0, 55, 34
1, 193916, Control_c, 0, 64, 62
1, 193931, Control_c, 0, 64, 56
1, 193946, Control_c, 0, 64, 51
1, 193961, Control_c, 0, 64, 50
1, 193990, Control_c, 0, 64, 51
1, 194005, Control_c, 0, 64, 53
1, 194020, Control_c, 0, 64, 56
1, 194035, Control_c, 0, 64, 59
1, 194050, Control_c, 0, 64, 61
1, 194062, Note_off_c, 0, 67, 54
1, 194065, Control_c, 0, 64, 63
1, 194085, Note_off_c, 0, 55, 38
1, 194087, Control_c, 0, 64, 65
1, 194102, Control_c, 0, 64, 68
1, 194116, Control_c, 0, 64, 71
1, 194131, Control_c, 0, 64, 76
1, 194146, Control_c, 0, 64, 83
1, 194157, Note_on_c, 0, 67, 40
1, 194161, Control_c, 0, 64, 88
1, 194163, Note_on_c, 0, 55, 38
1, 194176, Control_c, 0, 64, 94
1, 194190, Control_c, 0, 64, 101
1, 194205, Control_c, 0, 64, 111
1, 194220, Note_off_c, 0, 55, 52
1, 194220, Control_c, 0, 64, 127
1, 194239, Note_off_c, 0, 67, 50
1, 194321, Note_on_c, 0, 67, 29
1, 194331, Note_on_c, 0, 55, 36
1, 194378, Note_off_c, 0, 55, 48
1, 194402, Note_off_c, 0, 67, 40
1, 194408, Note_off_c, 0, 50, 37
1, 194421, Note_off_c, 0, 47, 35
1, 194438, Note_off_c, 0, 43, 39
1, 194470, Note_on_c, 0, 67, 35
1, 194479, Note_on_c, 0, 55, 38
1, 194530, Note_off_c, 0, 55, 46
1, 194539, Note_off_c, 0, 67, 53
1, 194631, Note_on_c, 0, 67, 31
1, 194639, Note_on_c, 0, 55, 28
1, 194685, Note_off_c, 0, 55, 46
1, 194685, Note_off_c, 0, 67, 43
1, 194802, Note_on_c, 0, 67, 29
1, 194810, Note_on_c, 0, 55, 17
1, 194862, Note_off_c, 0, 67, 44
1, 194865, Note_off_c, 0, 55, 46
1, 194969, Note_on_c, 0, 55, 28
1, 194974, Note_on_c, 0, 67, 28
1, 195025, Note_off_c, 0, 67, 45
1, 195027, Note_off_c, 0, 55, 41
1, 195126, Note_on_c, 0, 55, 28
1, 195143, Note_on_c, 0, 67, 22
1, 195186, Note_off_c, 0, 67, 47
1, 195186, Note_off_c, 0, 55, 40
1, 195283, Note_on_c, 0, 55, 22
1, 195306, Note_on_c, 0, 67, 15
1, 195348, Note_off_c, 0, 55, 38
1, 195356, Note_off_c, 0, 67, 45
1, 195445, Note_on_c, 0, 47, 44
1, 195466, Note_on_c, 0, 55, 28
1, 195473, Note_on_c, 0, 67, 30
1, 195522, Note_off_c, 0, 67, 45
1, 195525, Note_off_c, 0, 55, 42
1, 195633, Note_on_c, 0, 55, 19
1, 195642, Note_on_c, 0, 67, 27
1, 195680, Note_off_c, 0, 55, 46
1, 195684, Note_off_c, 0, 67, 47
1, 195720, Note_off_c, 0, 47, 37
1, 195793, Note_on_c, 0, 67, 31
1, 195798, Note_on_c, 0, 55, 19
1, 195834, Note_on_c, 0, 48, 45
1, 195842, Note_off_c, 0, 67, 44
1, 195849, Note_off_c, 0, 55, 45
1, 195952, Note_off_c, 0, 48, 56
1, 195967, Note_on_c, 0, 50, 51
1, 196001, Control_c, 0, 64, 99
1, 196005, Note_on_c, 0, 67, 42
1, 196006, Note_on_c, 0, 55, 36
1, 196016, Control_c, 0, 64, 79
1, 196031, Control_c, 0, 64, 67
1, 196046, Control_c, 0, 64, 60
1, 196060, Control_c, 0, 64, 57
1, 196065, Note_off_c, 0, 55, 43
1, 196072, Note_off_c, 0, 67, 39
1, 196075, Control_c, 0, 64, 58
1, 196090, Control_c, 0, 64, 61
1, 196105, Control_c, 0, 64, 64
1, 196120, Control_c, 0, 64, 68
1, 196134, Control_c, 0, 64, 73
1, 196149, Control_c, 0, 64, 80
1, 196163, Note_on_c, 0, 67, 39
1, 196164, Control_c, 0, 64, 89
1, 196170, Note_on_c, 0, 55, 39
1, 196178, Control_c, 0, 64, 101
1, 196193, Control_c, 0, 64, 111
1, 196208, Control_c, 0, 64, 127
1, 196214, Note_off_c, 0, 55, 48
1, 196224, Note_off_c, 0, 67, 52
1, 196243, Note_off_c, 0, 50, 35
1, 196334, Note_on_c, 0, 67, 38
1, 196351, Note_on_c, 0, 55, 27
1, 196390, Note_off_c, 0, 55, 51
1, 196391, Note_off_c, 0, 67, 47
1, 196466, Note_on_c, 0, 50, 61
1, 196468, Control_c, 0, 64, 123
1, 196482, Control_c, 0, 64, 105
1, 196495, Note_on_c, 0, 55, 46
1, 196495, Note_on_c, 0, 67, 43
1, 196497, Control_c, 0, 64, 90
1, 196512, Control_c, 0, 64, 78
1, 196527, Control_c, 0, 64, 70
1, 196542, Control_c, 0, 64, 67
1, 196548, Note_off_c, 0, 55, 53
1, 196557, Control_c, 0, 64, 69
1, 196566, Note_off_c, 0, 67, 39
1, 196572, Control_c, 0, 64, 71
1, 196586, Control_c, 0, 64, 74
1, 196601, Control_c, 0, 64, 78
1, 196616, Control_c, 0, 64, 84
1, 196631, Control_c, 0, 64, 90
1, 196646, Control_c, 0, 64, 95
1, 196660, Control_c, 0, 64, 101
1, 196666, Note_on_c, 0, 67, 39
1, 196673, Note_on_c, 0, 55, 38
1, 196675, Control_c, 0, 64, 105
1, 196690, Control_c, 0, 64, 110
1, 196698, Note_off_c, 0, 50, 54
1, 196704, Control_c, 0, 64, 112
1, 196711, Note_off_c, 0, 55, 51
1, 196715, Note_off_c, 0, 67, 42
1, 196719, Control_c, 0, 64, 113
1, 196735, Control_c, 0, 64, 113
1, 196750, Control_c, 0, 64, 114
1, 196818, Note_on_c, 0, 67, 37
1, 196833, Note_on_c, 0, 55, 37
1, 196874, Note_off_c, 0, 55, 49
1, 196898, Note_off_c, 0, 67, 37
1, 196942, Control_c, 0, 64, 110
1, 196957, Control_c, 0, 64, 104
1, 196959, Note_on_c, 0, 50, 61
1, 196972, Control_c, 0, 64, 95
1, 196974, Note_on_c, 0, 67, 36
1, 196987, Note_on_c, 0, 55, 47
1, 196987, Control_c, 0, 64, 85
1, 197001, Control_c, 0, 64, 75
1, 197016, Control_c, 0, 64, 68
1, 197022, Note_off_c, 0, 55, 54
1, 197031, Control_c, 0, 64, 66
1, 197046, Control_c, 0, 64, 68
1, 197061, Control_c, 0, 64, 70
1, 197064, Note_off_c, 0, 67, 37
1, 197083, Control_c, 0, 64, 73
1, 197098, Control_c, 0, 64, 77
1, 197113, Control_c, 0, 64, 84
1, 197127, Control_c, 0, 64, 90
1, 197138, Note_on_c, 0, 67, 29
1, 197142, Control_c, 0, 64, 94
1, 197146, Note_on_c, 0, 55, 40
1, 197157, Control_c, 0, 64, 97
1, 197171, Control_c, 0, 64, 100
1, 197186, Note_off_c, 0, 55, 48
1, 197186, Control_c, 0, 64, 102
1, 197198, Note_off_c, 0, 67, 40
1, 197201, Control_c, 0, 64, 104
1, 197216, Control_c, 0, 64, 105
1, 197217, Note_off_c, 0, 50, 50
1, 197246, Control_c, 0, 64, 105
1, 197260, Control_c, 0, 64, 106
1, 197275, Control_c, 0, 64, 106
1, 197290, Control_c, 0, 64, 107
1, 197302, Note_on_c, 0, 67, 38
1, 197308, Note_on_c, 0, 55, 36
1, 197353, Note_off_c, 0, 55, 47
1, 197356, Note_off_c, 0, 67, 39
1, 197448, Note_on_c, 0, 48, 57
1, 197466, Note_on_c, 0, 67, 35
1, 197468, Control_c, 0, 64, 105
1, 197478, Note_on_c, 0, 55, 37
1, 197482, Control_c, 0, 64, 101
1, 197497, Control_c, 0, 64, 93
1, 197512, Control_c, 0, 64, 82
1, 197528, Control_c, 0, 64, 72
1, 197532, Note_off_c, 0, 55, 45
1, 197543, Control_c, 0, 64, 67
1, 197557, Control_c, 0, 64, 66
1, 197565, Note_off_c, 0, 67, 33
1, 197572, Control_c, 0, 64, 69
1, 197587, Control_c, 0, 64, 73
1, 197602, Control_c, 0, 64, 78
1, 197617, Control_c, 0, 64, 84
1, 197624, Note_on_c, 0, 67, 28
1, 197631, Control_c, 0, 64, 90
1, 197641, Note_on_c, 0, 55, 39
1, 197646, Control_c, 0, 64, 95
1, 197661, Control_c, 0, 64, 99
1, 197676, Control_c, 0, 64, 101
1, 197686, Note_off_c, 0, 55, 47
1, 197691, Control_c, 0, 64, 103
1, 197705, Control_c, 0, 64, 105
1, 197720, Control_c, 0, 64, 107
1, 197734, Note_off_c, 0, 48, 36
1, 197749, Control_c, 0, 64, 107
1, 197759, Note_off_c, 0, 67, 0
1, 197764, Control_c, 0, 64, 109
1, 197775, Note_on_c, 0, 67, 28
1, 197779, Control_c, 0, 64, 110
1, 197793, Note_on_c, 0, 55, 39
1, 197794, Control_c, 0, 64, 111
1, 197831, Control_c, 0, 64, 111
1, 197847, Note_off_c, 0, 55, 46
1, 197848, Note_on_c, 0, 50, 59
1, 197894, Note_off_c, 0, 67, 35
1, 197964, Control_c, 0, 64, 110
1, 197979, Control_c, 0, 64, 109
1, 197994, Control_c, 0, 64, 107
1, 198002, Note_on_c, 0, 51, 66
1, 198006, Note_off_c, 0, 50, 56
1, 198009, Control_c, 0, 64, 106
1, 198024, Control_c, 0, 64, 103
1, 198029, Note_on_c, 0, 67, 45
1, 198038, Control_c, 0, 64, 97
1, 198041, Note_on_c, 0, 55, 33
1, 198053, Control_c, 0, 64, 84
1, 198068, Control_c, 0, 64, 71
1, 198083, Control_c, 0, 64, 62
1, 198090, Note_off_c, 0, 55, 47
1, 198098, Control_c, 0, 64, 55
1, 198101, Note_off_c, 0, 67, 50
1, 198113, Control_c, 0, 64, 53
1, 198143, Control_c, 0, 64, 55
1, 198157, Control_c, 0, 64, 59
1, 198172, Control_c, 0, 64, 62
1, 198179, Note_on_c, 0, 67, 26
1, 198187, Control_c, 0, 64, 65
1, 198196, Note_on_c, 0, 55, 28
1, 198202, Control_c, 0, 64, 67
1, 198217, Control_c, 0, 64, 71
1, 198231, Control_c, 0, 64, 76
1, 198235, Note_off_c, 0, 55, 49
1, 198243, Note_off_c, 0, 67, 41
1, 198246, Control_c, 0, 64, 80
1, 198261, Control_c, 0, 64, 86
1, 198276, Control_c, 0, 64, 92
1, 198291, Control_c, 0, 64, 98
1, 198305, Control_c, 0, 64, 104
1, 198321, Control_c, 0, 64, 111
1, 198336, Control_c, 0, 64, 115
1, 198340, Note_on_c, 0, 67, 35
1, 198351, Control_c, 0, 64, 118
1, 198357, Note_on_c, 0, 55, 28
1, 198366, Control_c, 0, 64, 123
1, 198380, Control_c, 0, 64, 127
1, 198395, Note_off_c, 0, 55, 50
1, 198395, Note_off_c, 0, 67, 43
1, 198399, Note_off_c, 0, 51, 49
1, 198513, Note_on_c, 0, 67, 34
1, 198516, Note_on_c, 0, 55, 30
1, 198559, Note_off_c, 0, 67, 48
1, 198562, Note_off_c, 0, 55, 47
1, 198693, Note_on_c, 0, 67, 29
1, 198694, Note_on_c, 0, 55, 20
1, 198728, Note_off_c, 0, 67, 50
1, 198734, Note_off_c, 0, 55, 49
1, 198794, Note_on_c, 0, 50, 51
1, 198859, Note_on_c, 0, 67, 37
1, 198863, Note_on_c, 0, 55, 37
1, 198914, Note_off_c, 0, 55, 51
1, 198929, Note_off_c, 0, 67, 40
1, 199037, Note_on_c, 0, 48, 62
1, 199040, Control_c, 0, 64, 119
1, 199054, Control_c, 0, 64, 107
1, 199059, Note_off_c, 0, 50, 41
1, 199067, Note_on_c, 0, 67, 45
1, 199068, Note_on_c, 0, 55, 35
1, 199069, Control_c, 0, 64, 90
1, 199084, Control_c, 0, 64, 76
1, 199098, Control_c, 0, 64, 67
1, 199115, Control_c, 0, 64, 63
1, 199117, Note_off_c, 0, 55, 50
1, 199118, Note_off_c, 0, 67, 46
1, 199144, Control_c, 0, 64, 65
1, 199159, Control_c, 0, 64, 67
1, 199174, Control_c, 0, 64, 73
1, 199189, Control_c, 0, 64, 80
1, 199203, Control_c, 0, 64, 89
1, 199218, Control_c, 0, 64, 95
1, 199233, Control_c, 0, 64, 99
1, 199234, Note_on_c, 0, 67, 35
1, 199236, Note_on_c, 0, 55, 35
1, 199248, Control_c, 0, 64, 99
1, 199272, Note_off_c, 0, 67, 49
1, 199275, Note_off_c, 0, 55, 49
1, 199292, Control_c, 0, 64, 100
1, 199307, Control_c, 0, 64, 101
1, 199329, Control_c, 0, 64, 102
1, 199338, Note_off_c, 0, 48, 37
1, 199344, Control_c, 0, 64, 103
1, 199359, Control_c, 0, 64, 104
1, 199374, Control_c, 0, 64, 104
1, 199387, Note_on_c, 0, 55, 45
1, 199389, Note_on_c, 0, 67, 44
1, 199403, Control_c, 0, 64, 105
1, 199417, Control_c, 0, 64, 107
1, 199427, Note_off_c, 0, 67, 48
1, 199431, Note_off_c, 0, 55, 51
1, 199432, Control_c, 0, 64, 110
1, 199447, Control_c, 0, 64, 111
1, 199476, Control_c, 0, 64, 110
1, 199491, Control_c, 0, 64, 105
1, 199506, Control_c, 0, 64, 96
1, 199511, Note_on_c, 0, 46, 67
1, 199520, Control_c, 0, 64, 83
1, 199535, Control_c, 0, 64, 72
1, 199547, Note_on_c, 0, 67, 47
1, 199547, Note_on_c, 0, 55, 45
1, 199550, Control_c, 0, 64, 67
1, 199565, Control_c, 0, 64, 69
1, 199580, Note_off_c, 0, 55, 51
1, 199580, Control_c, 0, 64, 72
1, 199583, Note_off_c, 0, 67, 48
1, 199595, Control_c, 0, 64, 76
1, 199609, Control_c, 0, 64, 82
1, 199624, Control_c, 0, 64, 88
1, 199639, Control_c, 0, 64, 95
1, 199654, Control_c, 0, 64, 98
1, 199669, Control_c, 0, 64, 99
1, 199683, Note_on_c, 0, 67, 60
1, 199684, Control_c, 0, 64, 100
1, 199689, Note_on_c, 0, 55, 47
1, 199699, Control_c, 0, 64, 101
1, 199714, Control_c, 0, 64, 102
1, 199724, Note_off_c, 0, 67, 62
1, 199728, Note_off_c, 0, 55, 60
1, 199728, Control_c, 0, 64, 103
1, 199743, Control_c, 0, 64, 103
1, 199746, Note_off_c, 0, 46, 33
1, 199788, Control_c, 0, 64, 104
1, 199816, Note_on_c, 0, 65, 58
1, 199817, Note_on_c, 0, 53, 52
1, 199844, Note_off_c, 0, 53, 58
1, 199854, Note_off_c, 0, 65, 62
1, 199876, Note_on_c, 0, 44, 60
1, 199926, Note_off_c, 0, 44, 62
1, 199951, Control_c, 0, 64, 103
1, 199966, Control_c, 0, 64, 98
1, 199979, Note_on_c, 0, 43, 59
1, 199981, Control_c, 0, 64, 87
1, 199991, Note_on_c, 0, 67, 60
1, 199996, Control_c, 0, 64, 71
1, 199997, Note_on_c, 0, 63, 55
1, 199999, Note_on_c, 0, 55, 51
1, 200007, Note_on_c, 0, 60, 47
1, 200011, Control_c, 0, 64, 61
1, 200025, Control_c, 0, 64, 53
1, 200033, Note_off_c, 0, 55, 51
1, 200040, Control_c, 0, 64, 54
1, 200044, Note_off_c, 0, 60, 61
1, 200045, Note_off_c, 0, 63, 55
1, 200055, Control_c, 0, 64, 57
1, 200071, Note_off_c, 0, 67, 51
1, 200077, Control_c, 0, 64, 62
1, 200092, Control_c, 0, 64, 65
1, 200107, Control_c, 0, 64, 70
1, 200122, Control_c, 0, 64, 76
1, 200137, Control_c, 0, 64, 81
1, 200151, Control_c, 0, 64, 85
1, 200158, Note_off_c, 0, 43, 36
1, 200164, Note_on_c, 0, 60, 48
1, 200166, Control_c, 0, 64, 87
1, 200173, Note_on_c, 0, 55, 37
1, 200173, Note_on_c, 0, 67, 22
1, 200181, Control_c, 0, 64, 90
1, 200185, Note_on_c, 0, 63, 40
1, 200196, Control_c, 0, 64, 92
1, 200211, Control_c, 0, 64, 94
1, 200212, Note_off_c, 0, 60, 59
1, 200215, Note_off_c, 0, 55, 48
1, 200215, Note_off_c, 0, 63, 54
1, 200217, Note_off_c, 0, 67, 48
1, 200225, Control_c, 0, 64, 95
1, 200240, Control_c, 0, 64, 95
1, 200319, Note_on_c, 0, 63, 43
1, 200328, Note_on_c, 0, 60, 42
1, 200336, Note_on_c, 0, 55, 28
1, 200343, Note_on_c, 0, 67, 19
1, 200343, Control_c, 0, 64, 96
1, 200358, Control_c, 0, 64, 96
1, 200363, Note_off_c, 0, 60, 54
1, 200372, Note_off_c, 0, 63, 43
1, 200376, Note_off_c, 0, 55, 48
1, 200381, Note_off_c, 0, 67, 43
1, 200403, Control_c, 0, 64, 96
1, 200417, Control_c, 0, 64, 94
1, 200432, Control_c, 0, 64, 90
1, 200447, Control_c, 0, 64, 83
1, 200462, Control_c, 0, 64, 74
1, 200465, Note_on_c, 0, 43, 50
1, 200476, Note_on_c, 0, 55, 40
1, 200477, Control_c, 0, 64, 66
1, 200486, Note_on_c, 0, 60, 40
1, 200489, Note_on_c, 0, 63, 34
1, 200492, Control_c, 0, 64, 65
1, 200507, Control_c, 0, 64, 67
1, 200522, Poly_aftertouch_c, 0, 67, 127
1, 200522, Control_c, 0, 64, 70
1, 200529, Note_off_c, 0, 60, 57
1, 200530, Note_off_c, 0, 55, 41
1, 200536, Note_off_c, 0, 63, 52
1, 200536, Control_c, 0, 64, 73
1, 200551, Control_c, 0, 64, 77
1, 200560, Poly_aftertouch_c, 0, 67, 0
1, 200566, Control_c, 0, 64, 83
1, 200581, Control_c, 0, 64, 88
1, 200596, Control_c, 0, 64, 91
1, 200611, Control_c, 0, 64, 93
1, 200622, Note_off_c, 0, 43, 49
1, 200625, Control_c, 0, 64, 95
1, 200640, Control_c, 0, 64, 96
1, 200655, Control_c, 0, 64, 98
1, 200659, Note_on_c, 0, 60, 42
1, 200659, Note_on_c, 0, 63, 39
1, 200666, Note_on_c, 0, 55, 11
1, 200670, Control_c, 0, 64, 98
1, 200672, Note_on_c, 0, 67, 16
1, 200685, Control_c, 0, 64, 99
1, 200710, Note_off_c, 0, 60, 51
1, 200756, Note_off_c, 0, 67, 0
1, 200760, Control_c, 0, 64, 99
1, 200770, Note_off_c, 0, 63, 0
1, 200772, Note_on_c, 0, 67, 24
1, 200772, Note_off_c, 0, 55, 0
1, 200787, Note_on_c, 0, 55, 31
1, 200788, Note_on_c, 0, 63, 30
1, 200798, Note_on_c, 0, 60, 42
1, 200804, Control_c, 0, 64, 100
1, 200826, Control_c, 0, 64, 100
1, 200843, Note_off_c, 0, 60, 65
1, 200847, Note_off_c, 0, 55, 47
1, 200850, Note_off_c, 0, 63, 58
1, 200852, Note_off_c, 0, 67, 57
1, 200855, Control_c, 0, 64, 101
1, 200885, Control_c, 0, 64, 100
1, 200900, Control_c, 0, 64, 98
1, 200915, Control_c, 0, 64, 92
1, 200930, Control_c, 0, 64, 83
1, 200944, Note_on_c, 0, 43, 52
1, 200945, Control_c, 0, 64, 71
1, 200960, Note_on_c, 0, 55, 43
1, 200960, Control_c, 0, 64, 66
1, 200965, Note_on_c, 0, 62, 45
1, 200966, Note_on_c, 0, 67, 22
1, 200974, Note_on_c, 0, 59, 36
1, 200974, Control_c, 0, 64, 67
1, 200989, Control_c, 0, 64, 70
1, 201004, Control_c, 0, 64, 73
1, 201013, Note_off_c, 0, 59, 53
1, 201019, Note_off_c, 0, 55, 49
1, 201019, Control_c, 0, 64, 77
1, 201026, Note_off_c, 0, 62, 55
1, 201034, Control_c, 0, 64, 81
1, 201048, Control_c, 0, 64, 86
1, 201063, Control_c, 0, 64, 90
1, 201078, Control_c, 0, 64, 92
1, 201106, Note_off_c, 0, 67, 0
1, 201109, Note_on_c, 0, 55, 33
1, 201121, Note_on_c, 0, 59, 49
1, 201126, Note_on_c, 0, 62, 27
1, 201133, Note_off_c, 0, 43, 39
1, 201142, Poly_aftertouch_c, 0, 67, 127
1, 201153, Note_off_c, 0, 55, 45
1, 201158, Note_off_c, 0, 59, 53
1, 201166, Control_c, 0, 64, 92
1, 201168, Note_off_c, 0, 62, 48
1, 201181, Poly_aftertouch_c, 0, 67, 0
1, 201285, Control_c, 0, 64, 93
1, 201287, Note_on_c, 0, 59, 35
1, 201303, Note_on_c, 0, 62, 42
1, 201304, Note_on_c, 0, 55, 6
1, 201314, Control_c, 0, 64, 93
1, 201332, Note_off_c, 0, 59, 45
1, 201344, Poly_aftertouch_c, 0, 67, 127
1, 201346, Note_off_c, 0, 62, 54
1, 201361, Note_off_c, 0, 55, 43
1, 201374, Control_c, 0, 64, 92
1, 201389, Control_c, 0, 64, 90
1, 201404, Control_c, 0, 64, 83
1, 201419, Control_c, 0, 64, 75
1, 201426, Note_on_c, 0, 43, 44
1, 201434, Control_c, 0, 64, 67
1, 201437, Poly_aftertouch_c, 0, 67, 0
1, 201437, Note_on_c, 0, 55, 22
1, 201448, Note_on_c, 0, 59, 28
1, 201448, Control_c, 0, 64, 62
1, 201455, Note_on_c, 0, 62, 32
1, 201473, Poly_aftertouch_c, 0, 67, 127
1, 201478, Control_c, 0, 64, 64
1, 201492, Control_c, 0, 64, 66
1, 201496, Note_off_c, 0, 59, 48
1, 201499, Note_off_c, 0, 55, 42
1, 201502, Note_off_c, 0, 62, 51
1, 201507, Control_c, 0, 64, 69
1, 201514, Poly_aftertouch_c, 0, 67, 0
1, 201523, Control_c, 0, 64, 74
1, 201538, Control_c, 0, 64, 81
1, 201553, Control_c, 0, 64, 86
1, 201575, Control_c, 0, 64, 89
1, 201590, Control_c, 0, 64, 91
1, 201604, Control_c, 0, 64, 92
1, 201619, Note_on_c, 0, 55, 25
1, 201619, Control_c, 0, 64, 93
1, 201620, Note_on_c, 0, 59, 44
1, 201623, Note_on_c, 0, 62, 36
1, 201634, Control_c, 0, 64, 94
1, 201657, Poly_aftertouch_c, 0, 67, 127
1, 201661, Note_off_c, 0, 59, 55
1, 201668, Note_off_c, 0, 55, 45
1, 201675, Note_off_c, 0, 62, 51
1, 201678, Control_c, 0, 64, 95
1, 201687, Poly_aftertouch_c, 0, 67, 0
1, 201693, Control_c, 0, 64, 95
1, 201724, Note_off_c, 0, 43, 34
1, 201777, Note_on_c, 0, 62, 48
1, 201786, Note_on_c, 0, 55, 19
1, 201788, Note_on_c, 0, 59, 39
1, 201811, Note_off_c, 0, 59, 57
1, 201812, Note_off_c, 0, 62, 64
1, 201823, Poly_aftertouch_c, 0, 67, 127
1, 201824, Note_off_c, 0, 55, 52
1, 201861, Poly_aftertouch_c, 0, 67, 0
1, 201960, Control_c, 0, 64, 94
1, 201975, Control_c, 0, 64, 91
1, 201977, Note_on_c, 0, 48, 43
1, 201990, Control_c, 0, 64, 85
1, 201997, Note_on_c, 0, 63, 39
1, 201999, Note_on_c, 0, 60, 41
1, 202000, Note_on_c, 0, 55, 23
1, 202004, Control_c, 0, 64, 74
1, 202019, Control_c, 0, 64, 65
1, 202034, Control_c, 0, 64, 59
1, 202049, Control_c, 0, 64, 55
1, 202078, Note_off_c, 0, 60, 48
1, 202083, Note_off_c, 0, 55, 39
1, 202093, Control_c, 0, 64, 57
1, 202108, Control_c, 0, 64, 61
1, 202122, Control_c, 0, 64, 63
1, 202137, Control_c, 0, 64, 66
1, 202152, Control_c, 0, 64, 70
1, 202163, Note_on_c, 0, 55, 41
1, 202165, Note_on_c, 0, 67, 54
1, 202167, Control_c, 0, 64, 75
1, 202179, Note_off_c, 0, 63, 21
1, 202182, Control_c, 0, 64, 82
1, 202197, Control_c, 0, 64, 88
1, 202212, Control_c, 0, 64, 94
1, 202226, Note_off_c, 0, 55, 41
1, 202227, Control_c, 0, 64, 102
1, 202236, Note_off_c, 0, 67, 45
1, 202242, Control_c, 0, 64, 123
1, 202256, Control_c, 0, 64, 127
1, 202322, Note_on_c, 0, 67, 50
1, 202337, Note_on_c, 0, 55, 49
1, 202361, Note_off_c, 0, 48, 37
1, 202385, Note_off_c, 0, 55, 54
1, 202404, Note_off_c, 0, 67, 54
1, 202474, Note_on_c, 0, 67, 55
1, 202487, Note_on_c, 0, 55, 55
1, 202533, Note_off_c, 0, 55, 55
1, 202550, Note_off_c, 0, 67, 56
1, 202617, Note_on_c, 0, 67, 60
1, 202629, Note_on_c, 0, 55, 62
1, 202681, Note_off_c, 0, 55, 50
1, 202701, Note_off_c, 0, 67, 58
1, 202781, Note_on_c, 0, 67, 74
1, 202787, Note_on_c, 0, 55, 70
1, 202840, Note_off_c, 0, 55, 57
1, 202857, Note_off_c, 0, 67, 58
1, 202933, Note_on_c, 0, 67, 80
1, 202939, Note_on_c, 0, 55, 74
1, 202996, Note_off_c, 0, 55, 57
1, 203011, Note_off_c, 0, 67, 61
1, 203094, Note_on_c, 0, 67, 78
1, 203098, Note_on_c, 0, 55, 78
1, 203155, Note_off_c, 0, 55, 60
1, 203169, Note_off_c, 0, 67, 62
1, 203239, Note_on_c, 0, 67, 86
1, 203242, Note_on_c, 0, 55, 82
1, 203315, Note_off_c, 0, 55, 60
1, 203342, Note_off_c, 0, 67, 62
1, 203377, Note_on_c, 0, 47, 85
1, 203383, Note_on_c, 0, 35, 77
1, 203398, Note_on_c, 0, 67, 80
1, 203398, Control_c, 0, 64, 90
1, 203403, Note_on_c, 0, 55, 81
1, 203413, Control_c, 0, 64, 68
1, 203428, Control_c, 0, 64, 55
1, 203443, Control_c, 0, 64, 56
1, 203458, Control_c, 0, 64, 61
1, 203473, Control_c, 0, 64, 66
1, 203479, Note_off_c, 0, 55, 60
1, 203488, Control_c, 0, 64, 75
1, 203494, Note_off_c, 0, 67, 61
1, 203502, Control_c, 0, 64, 94
1, 203512, Note_off_c, 0, 47, 63
1, 203514, Note_off_c, 0, 35, 61
1, 203517, Control_c, 0, 64, 127
1, 203570, Note_on_c, 0, 67, 82
1, 203571, Note_on_c, 0, 55, 83
1, 203624, Note_off_c, 0, 55, 57
1, 203637, Note_off_c, 0, 67, 61
1, 203708, Note_on_c, 0, 67, 82
1, 203714, Note_on_c, 0, 55, 80
1, 203721, Note_on_c, 0, 48, 86
1, 203727, Note_on_c, 0, 36, 83
1, 203761, Note_off_c, 0, 36, 61
1, 203768, Note_off_c, 0, 55, 58
1, 203770, Note_off_c, 0, 48, 63
1, 203785, Note_off_c, 0, 67, 61
1, 203850, Control_c, 0, 64, 116
1, 203855, Note_on_c, 0, 50, 94
1, 203860, Note_on_c, 0, 38, 88
1, 203865, Control_c, 0, 64, 74
1, 203869, Note_on_c, 0, 67, 83
1, 203873, Note_on_c, 0, 55, 78
1, 203880, Control_c, 0, 64, 54
1, 203895, Control_c, 0, 64, 0
1, 203910, Control_c, 0, 64, 23
1, 203926, Control_c, 0, 64, 46
1, 203941, Control_c, 0, 64, 60
1, 203947, Note_off_c, 0, 55, 59
1, 203955, Control_c, 0, 64, 66
1, 203962, Note_off_c, 0, 67, 59
1, 203970, Control_c, 0, 64, 73
1, 203985, Control_c, 0, 64, 82
1, 203999, Control_c, 0, 64, 92
1, 204003, Note_off_c, 0, 38, 58
1, 204006, Note_off_c, 0, 50, 57
1, 204014, Control_c, 0, 64, 100
1, 204029, Control_c, 0, 64, 107
1, 204035, Note_on_c, 0, 67, 72
1, 204038, Note_on_c, 0, 55, 72
1, 204044, Control_c, 0, 64, 116
1, 204059, Control_c, 0, 64, 127
1, 204089, Note_off_c, 0, 55, 58
1, 204098, Note_off_c, 0, 67, 60
1, 204182, Note_on_c, 0, 67, 80
1, 204187, Note_on_c, 0, 55, 77
1, 204246, Note_off_c, 0, 55, 59
1, 204258, Note_off_c, 0, 67, 61
1, 204328, Note_on_c, 0, 50, 89
1, 204333, Note_on_c, 0, 38, 78
1, 204352, Note_on_c, 0, 67, 70
1, 204355, Note_on_c, 0, 55, 68
1, 204355, Control_c, 0, 64, 81
1, 204370, Control_c, 0, 64, 63
1, 204384, Control_c, 0, 64, 42
1, 204399, Control_c, 0, 64, 46
1, 204414, Control_c, 0, 64, 53
1, 204415, Note_off_c, 0, 55, 56
1, 204418, Note_off_c, 0, 67, 53
1, 204429, Control_c, 0, 64, 61
1, 204444, Control_c, 0, 64, 66
1, 204458, Control_c, 0, 64, 74
1, 204473, Control_c, 0, 64, 86
1, 204488, Control_c, 0, 64, 95
1, 204492, Note_on_c, 0, 55, 63
1, 204496, Note_off_c, 0, 38, 57
1, 204498, Note_off_c, 0, 50, 52
1, 204501, Note_on_c, 0, 67, 60
1, 204503, Control_c, 0, 64, 100
1, 204518, Control_c, 0, 64, 103
1, 204532, Control_c, 0, 64, 109
1, 204547, Control_c, 0, 64, 121
1, 204561, Note_off_c, 0, 55, 59
1, 204570, Control_c, 0, 64, 127
1, 204571, Note_off_c, 0, 67, 58
1, 204662, Note_on_c, 0, 55, 72
1, 204663, Note_on_c, 0, 67, 71
1, 204735, Note_off_c, 0, 55, 56
1, 204754, Note_off_c, 0, 67, 59
1, 204793, Control_c, 0, 64, 97
1, 204806, Note_on_c, 0, 50, 88
1, 204808, Control_c, 0, 64, 71
1, 204811, Note_on_c, 0, 38, 75
1, 204822, Control_c, 0, 64, 60
1, 204832, Note_on_c, 0, 67, 68
1, 204834, Note_on_c, 0, 55, 71
1, 204837, Control_c, 0, 64, 60
1, 204852, Control_c, 0, 64, 63
1, 204867, Control_c, 0, 64, 65
1, 204882, Control_c, 0, 64, 70
1, 204889, Note_off_c, 0, 55, 58
1, 204896, Control_c, 0, 64, 78
1, 204898, Note_off_c, 0, 67, 61
1, 204911, Control_c, 0, 64, 92
1, 204926, Control_c, 0, 64, 108
1, 204941, Control_c, 0, 64, 127
1, 204954, Note_off_c, 0, 50, 61
1, 204964, Note_off_c, 0, 38, 58
1, 204992, Note_on_c, 0, 55, 68
1, 204996, Note_on_c, 0, 67, 71
1, 205029, Note_off_c, 0, 55, 55
1, 205051, Note_off_c, 0, 67, 57
1, 205125, Note_on_c, 0, 67, 75
1, 205131, Note_on_c, 0, 55, 74
1, 205175, Note_off_c, 0, 55, 61
1, 205179, Note_off_c, 0, 67, 62
1, 205267, Control_c, 0, 64, 117
1, 205276, Note_on_c, 0, 48, 96
1, 205280, Note_on_c, 0, 36, 87
1, 205281, Control_c, 0, 64, 77
1, 205287, Note_on_c, 0, 68, 82
1, 205291, Note_on_c, 0, 56, 73
1, 205296, Control_c, 0, 64, 60
1, 205318, Control_c, 0, 64, 47
1, 205333, Control_c, 0, 64, 54
1, 205348, Control_c, 0, 64, 61
1, 205363, Control_c, 0, 64, 67
1, 205365, Note_off_c, 0, 56, 63
1, 205377, Control_c, 0, 64, 80
1, 205380, Note_off_c, 0, 68, 61
1, 205392, Control_c, 0, 64, 113
1, 205401, Note_off_c, 0, 48, 61
1, 205405, Note_off_c, 0, 36, 62
1, 205407, Control_c, 0, 64, 127
1, 205465, Note_on_c, 0, 68, 84
1, 205470, Note_on_c, 0, 56, 73
1, 205509, Poly_aftertouch_c, 0, 62, 127
1, 205511, Note_on_c, 0, 62, 2
1, 205523, Note_off_c, 0, 56, 59
1, 205543, Note_off_c, 0, 68, 59
1, 205589, Note_off_c, 0, 62, 0
1, 205604, Note_on_c, 0, 68, 87
1, 205610, Note_on_c, 0, 56, 80
1, 205626, Poly_aftertouch_c, 0, 62, 127
1, 205684, Note_off_c, 0, 56, 59
1, 205701, Note_on_c, 0, 50, 95
1, 205704, Note_on_c, 0, 38, 89
1, 205717, Note_off_c, 0, 68, 50
1, 205759, Note_off_c, 0, 50, 61
1, 205787, Note_off_c, 0, 38, 60
1, 205841, Poly_aftertouch_c, 0, 62, 0
1, 205858, Note_on_c, 0, 51, 100
1, 205860, Note_on_c, 0, 39, 92
1, 205867, Control_c, 0, 64, 74
1, 205879, Note_on_c, 0, 67, 75
1, 205882, Control_c, 0, 64, 32
1, 205889, Note_on_c, 0, 55, 63
1, 205897, Control_c, 0, 64, 0
1, 205944, Poly_aftertouch_c, 0, 62, 0
1, 205962, Note_off_c, 0, 55, 58
1, 205986, Control_c, 0, 64, 35
1, 206000, Control_c, 0, 64, 52
1, 206008, Note_off_c, 0, 67, 60
1, 206015, Control_c, 0, 64, 62
1, 206030, Control_c, 0, 64, 67
1, 206045, Control_c, 0, 64, 75
1, 206067, Control_c, 0, 64, 94
1, 206082, Control_c, 0, 64, 127
1, 206086, Note_on_c, 0, 55, 68
1, 206093, Note_on_c, 0, 67, 67
1, 206158, Note_off_c, 0, 51, 60
1, 206164, Note_off_c, 0, 55, 59
1, 206177, Note_off_c, 0, 67, 60
1, 206188, Note_off_c, 0, 39, 57
1, 206283, Note_on_c, 0, 55, 68
1, 206284, Note_on_c, 0, 67, 75
1, 206343, Note_off_c, 0, 55, 57
1, 206352, Note_off_c, 0, 67, 61
1, 206452, Note_on_c, 0, 55, 67
1, 206453, Note_on_c, 0, 67, 72
1, 206505, Note_off_c, 0, 55, 56
1, 206515, Note_off_c, 0, 67, 62
1, 206590, Note_on_c, 0, 67, 77
1, 206599, Note_on_c, 0, 55, 72
1, 206674, Note_off_c, 0, 55, 61
1, 206685, Note_on_c, 0, 50, 89
1, 206686, Note_on_c, 0, 38, 86
1, 206709, Note_off_c, 0, 67, 58
1, 206733, Note_off_c, 0, 50, 63
1, 206738, Note_off_c, 0, 38, 57
1, 206782, Note_on_c, 0, 67, 70
1, 206788, Note_on_c, 0, 55, 68
1, 206841, Note_off_c, 0, 55, 56
1, 206877, Note_off_c, 0, 67, 54
1, 206900, Note_on_c, 0, 48, 93
1, 206904, Note_on_c, 0, 36, 89
1, 206921, Control_c, 0, 64, 98
1, 206935, Control_c, 0, 64, 68
1, 206950, Control_c, 0, 64, 47
1, 206965, Control_c, 0, 64, 36
1, 206980, Control_c, 0, 64, 46
1, 206994, Control_c, 0, 64, 59
1, 207009, Control_c, 0, 64, 67
1, 207024, Control_c, 0, 64, 78
1, 207039, Control_c, 0, 64, 110
1, 207054, Control_c, 0, 64, 127
1, 207062, Note_off_c, 0, 48, 61
1, 207066, Note_on_c, 0, 67, 54
1, 207068, Note_on_c, 0, 55, 62
1, 207082, Note_off_c, 0, 36, 60
1, 207122, Note_off_c, 0, 55, 61
1, 207150, Note_off_c, 0, 67, 56
1, 207207, Note_on_c, 0, 67, 56
1, 207225, Note_on_c, 0, 55, 55
1, 207257, Note_off_c, 0, 55, 63
1, 207284, Note_off_c, 0, 67, 59
1, 207351, Control_c, 0, 64, 104
1, 207360, Note_on_c, 0, 46, 93
1, 207366, Note_on_c, 0, 34, 80
1, 207366, Control_c, 0, 64, 68
1, 207381, Control_c, 0, 64, 52
1, 207383, Note_on_c, 0, 55, 59
1, 207389, Note_on_c, 0, 67, 70
1, 207396, Control_c, 0, 64, 55
1, 207410, Control_c, 0, 64, 62
1, 207425, Control_c, 0, 64, 67
1, 207428, Note_off_c, 0, 55, 58
1, 207440, Control_c, 0, 64, 76
1, 207446, Note_off_c, 0, 67, 59
1, 207455, Control_c, 0, 64, 103
1, 207462, Note_off_c, 0, 46, 62
1, 207470, Control_c, 0, 64, 127
1, 207470, Note_off_c, 0, 34, 59
1, 207528, Note_on_c, 0, 55, 66
1, 207535, Note_on_c, 0, 67, 70
1, 207571, Note_off_c, 0, 55, 54
1, 207604, Note_off_c, 0, 67, 62
1, 207667, Note_on_c, 0, 65, 74
1, 207668, Note_on_c, 0, 53, 72
1, 207696, Note_off_c, 0, 53, 65
1, 207730, Note_off_c, 0, 65, 60
1, 207740, Note_on_c, 0, 32, 63
1, 207743, Note_on_c, 0, 44, 61
1, 207780, Note_off_c, 0, 44, 63
1, 207782, Note_off_c, 0, 32, 61
1, 207816, Control_c, 0, 64, 84
1, 207831, Control_c, 0, 64, 57
1, 207846, Control_c, 0, 64, 0
1, 207849, Note_on_c, 0, 43, 75
1, 207854, Note_on_c, 0, 31, 68
1, 207855, Note_on_c, 0, 67, 72
1, 207856, Note_on_c, 0, 55, 67
1, 207861, Note_on_c, 0, 63, 60
1, 207869, Note_on_c, 0, 60, 52
1, 207890, Control_c, 0, 64, 34
1, 207906, Control_c, 0, 64, 59
1, 207921, Control_c, 0, 64, 68
1, 207936, Control_c, 0, 64, 75
1, 207945, Note_off_c, 0, 55, 57
1, 207951, Control_c, 0, 64, 83
1, 207953, Note_off_c, 0, 60, 57
1, 207956, Note_off_c, 0, 63, 58
1, 207963, Note_off_c, 0, 67, 53
1, 207966, Control_c, 0, 64, 88
1, 207973, Note_off_c, 0, 43, 55
1, 207978, Note_off_c, 0, 31, 54
1, 207980, Control_c, 0, 64, 92
1, 207995, Control_c, 0, 64, 94
1, 208032, Note_on_c, 0, 67, 32
1, 208042, Note_on_c, 0, 60, 37
1, 208044, Note_on_c, 0, 63, 39
1, 208053, Note_on_c, 0, 55, 44
1, 208054, Control_c, 0, 64, 94
1, 208069, Control_c, 0, 64, 95
1, 208084, Control_c, 0, 64, 97
1, 208088, Note_off_c, 0, 55, 56
1, 208090, Note_off_c, 0, 67, 47
1, 208095, Note_off_c, 0, 60, 59
1, 208095, Note_off_c, 0, 63, 58
1, 208099, Control_c, 0, 64, 99
1, 208114, Control_c, 0, 64, 102
1, 208129, Control_c, 0, 64, 103
1, 208159, Control_c, 0, 64, 103
1, 208174, Control_c, 0, 64, 104
1, 208188, Control_c, 0, 64, 105
1, 208191, Note_on_c, 0, 55, 50
1, 208203, Control_c, 0, 64, 107
1, 208203, Note_on_c, 0, 60, 45
1, 208212, Note_on_c, 0, 63, 36
1, 208218, Control_c, 0, 64, 110
1, 208227, Note_off_c, 0, 55, 54
1, 208232, Control_c, 0, 64, 113
1, 208238, Note_off_c, 0, 60, 57
1, 208246, Note_off_c, 0, 63, 51
1, 208247, Control_c, 0, 64, 118
1, 208262, Control_c, 0, 64, 127
1, 208329, Control_c, 0, 64, 123
1, 208343, Control_c, 0, 64, 106
1, 208348, Note_on_c, 0, 60, 58
1, 208353, Note_on_c, 0, 63, 56
1, 208354, Note_on_c, 0, 55, 48
1, 208358, Control_c, 0, 64, 88
1, 208360, Note_on_c, 0, 31, 46
1, 208361, Note_on_c, 0, 43, 49
1, 208373, Control_c, 0, 64, 72
1, 208388, Control_c, 0, 64, 60
1, 208391, Note_on_c, 0, 67, 23
1, 208403, Control_c, 0, 64, 55
1, 208418, Control_c, 0, 64, 58
1, 208418, Note_off_c, 0, 60, 52
1, 208420, Note_off_c, 0, 55, 47
1, 208427, Note_off_c, 0, 63, 50
1, 208433, Control_c, 0, 64, 62
1, 208433, Note_off_c, 0, 67, 51
1, 208447, Control_c, 0, 64, 64
1, 208462, Control_c, 0, 64, 68
1, 208477, Control_c, 0, 64, 74
1, 208492, Control_c, 0, 64, 84
1, 208507, Control_c, 0, 64, 92
1, 208512, Note_on_c, 0, 55, 47
1, 208512, Note_on_c, 0, 63, 47
1, 208514, Note_on_c, 0, 60, 52
1, 208520, Note_on_c, 0, 67, 47
1, 208521, Control_c, 0, 64, 96
1, 208536, Control_c, 0, 64, 98
1, 208551, Control_c, 0, 64, 99
1, 208562, Note_off_c, 0, 43, 38
1, 208564, Note_off_c, 0, 67, 56
1, 208571, Note_off_c, 0, 31, 35
1, 208573, Note_off_c, 0, 55, 48
1, 208579, Note_off_c, 0, 63, 51
1, 208582, Note_off_c, 0, 60, 54
1, 208662, Note_on_c, 0, 60, 47
1, 208662, Note_on_c, 0, 63, 42
1, 208668, Note_on_c, 0, 55, 40
1, 208671, Note_on_c, 0, 67, 48
1, 208699, Control_c, 0, 64, 100
1, 208700, Note_off_c, 0, 60, 65
1, 208710, Note_off_c, 0, 67, 50
1, 208711, Note_off_c, 0, 55, 48
1, 208711, Note_off_c, 0, 63, 58
1, 208715, Control_c, 0, 64, 100
1, 208729, Control_c, 0, 64, 101
1, 208774, Control_c, 0, 64, 99
1, 208789, Control_c, 0, 64, 95
1, 208803, Control_c, 0, 64, 86
1, 208818, Control_c, 0, 64, 74
1, 208822, Note_on_c, 0, 59, 53
1, 208822, Note_on_c, 0, 67, 49
1, 208826, Note_on_c, 0, 62, 54
1, 208829, Note_on_c, 0, 31, 41
1, 208833, Note_on_c, 0, 55, 45
1, 208833, Control_c, 0, 64, 65
1, 208835, Note_on_c, 0, 43, 44
1, 208848, Control_c, 0, 64, 57
1, 208862, Control_c, 0, 64, 58
1, 208877, Control_c, 0, 64, 61
1, 208880, Note_off_c, 0, 55, 54
1, 208887, Note_off_c, 0, 59, 53
1, 208892, Control_c, 0, 64, 64
1, 208907, Note_off_c, 0, 62, 56
1, 208907, Control_c, 0, 64, 67
1, 208920, Note_off_c, 0, 67, 51
1, 208922, Control_c, 0, 64, 72
1, 208937, Control_c, 0, 64, 78
1, 208952, Control_c, 0, 64, 84
1, 208966, Control_c, 0, 64, 86
1, 208974, Note_on_c, 0, 67, 24
1, 208981, Control_c, 0, 64, 87
1, 208982, Note_on_c, 0, 55, 42
1, 208987, Note_on_c, 0, 59, 48
1, 208990, Note_on_c, 0, 62, 40
1, 208992, Note_off_c, 0, 43, 50
1, 208996, Control_c, 0, 64, 88
1, 209011, Control_c, 0, 64, 88
1, 209017, Note_off_c, 0, 31, 41
1, 209026, Control_c, 0, 64, 89
1, 209038, Note_off_c, 0, 59, 57
1, 209046, Note_off_c, 0, 62, 57
1, 209057, Note_off_c, 0, 55, 49
1, 209116, Note_off_c, 0, 67, 0
1, 209137, Control_c, 0, 64, 89
1, 209152, Control_c, 0, 64, 90
1, 209153, Poly_aftertouch_c, 0, 67, 127
1, 209154, Note_on_c, 0, 55, 30
1, 209159, Note_on_c, 0, 59, 50
1, 209164, Note_on_c, 0, 62, 41
1, 209167, Control_c, 0, 64, 91
1, 209181, Control_c, 0, 64, 93
1, 209196, Control_c, 0, 64, 94
1, 209197, Note_off_c, 0, 59, 57
1, 209214, Note_off_c, 0, 62, 46
1, 209219, Note_off_c, 0, 55, 39
1, 209241, Control_c, 0, 64, 93
1, 209256, Control_c, 0, 64, 92
1, 209271, Control_c, 0, 64, 88
1, 209285, Control_c, 0, 64, 78
1, 209297, Note_on_c, 0, 31, 28
1, 209300, Note_on_c, 0, 43, 33
1, 209300, Control_c, 0, 64, 68
1, 209308, Note_on_c, 0, 55, 21
1, 209308, Note_on_c, 0, 59, 43
1, 209315, Note_on_c, 0, 62, 37
1, 209315, Control_c, 0, 64, 58
1, 209330, Control_c, 0, 64, 56
1, 209345, Control_c, 0, 64, 60
1, 209360, Control_c, 0, 64, 63
1, 209361, Note_off_c, 0, 59, 56
1, 209375, Control_c, 0, 64, 67
1, 209379, Note_off_c, 0, 62, 59
1, 209389, Control_c, 0, 64, 72
1, 209390, Note_off_c, 0, 55, 38
1, 209404, Control_c, 0, 64, 79
1, 209419, Control_c, 0, 64, 88
1, 209434, Control_c, 0, 64, 95
1, 209449, Control_c, 0, 64, 98
1, 209464, Note_off_c, 0, 31, 33
1, 209472, Note_off_c, 0, 43, 42
1, 209491, Poly_aftertouch_c, 0, 67, 0
1, 209497, Note_on_c, 0, 62, 41
1, 209508, Note_on_c, 0, 59, 36
1, 209509, Control_c, 0, 64, 98
1, 209524, Control_c, 0, 64, 99
1, 209526, Poly_aftertouch_c, 0, 55, 127
1, 209529, Poly_aftertouch_c, 0, 67, 127
1, 209539, Control_c, 0, 64, 99
1, 209560, Note_off_c, 0, 59, 51
1, 209572, Note_off_c, 0, 62, 52
1, 209578, Poly_aftertouch_c, 0, 55, 0
1, 209586, Poly_aftertouch_c, 0, 67, 0
1, 209598, Control_c, 0, 64, 100
1, 209612, Control_c, 0, 64, 100
1, 209657, Control_c, 0, 64, 101
1, 209667, Note_on_c, 0, 62, 25
1, 209674, Note_on_c, 0, 59, 34
1, 209700, Poly_aftertouch_c, 0, 67, 127
1, 209705, Note_off_c, 0, 62, 55
1, 209706, Note_off_c, 0, 59, 54
1, 209715, Poly_aftertouch_c, 0, 55, 127
1, 209764, Poly_aftertouch_c, 0, 55, 0
1, 209827, Control_c, 0, 64, 100
1, 209837, Poly_aftertouch_c, 0, 67, 0
1, 209857, Control_c, 0, 64, 100
1, 209872, Control_c, 0, 64, 99
1, 209900, Control_c, 0, 64, 99
1, 209914, Control_c, 0, 64, 97
1, 209916, Note_on_c, 0, 36, 35
1, 209923, Note_on_c, 0, 48, 34
1, 209929, Control_c, 0, 64, 93
1, 209931, Note_on_c, 0, 55, 25
1, 209944, Control_c, 0, 64, 84
1, 209949, Note_on_c, 0, 63, 35
1, 209951, Note_on_c, 0, 67, 35
1, 209959, Control_c, 0, 64, 71
1, 209962, Note_on_c, 0, 60, 28
1, 209974, Control_c, 0, 64, 58
1, 209989, Control_c, 0, 64, 43
1, 210003, Control_c, 0, 64, 37
1, 210033, Control_c, 0, 64, 38
1, 210048, Control_c, 0, 64, 48
1, 210063, Control_c, 0, 64, 61
1, 210070, Note_off_c, 0, 36, 48
1, 210077, Control_c, 0, 64, 67
1, 210092, Control_c, 0, 64, 75
1, 210107, Note_off_c, 0, 48, 55
1, 210107, Control_c, 0, 64, 89
1, 210122, Control_c, 0, 64, 116
1, 210137, Control_c, 0, 64, 127
1, 210197, Note_off_c, 0, 55, 44
1, 210272, Note_off_c, 0, 60, 38
1, 210274, Note_off_c, 0, 63, 38
1, 210290, Note_off_c, 0, 67, 35
1, 210355, Note_on_c, 0, 55, 17
1, 210422, Note_off_c, 0, 55, 40
1, 210495, Note_on_c, 0, 55, 37
1, 210562, Note_off_c, 0, 55, 54
1, 210669, Note_on_c, 0, 55, 42
1, 210728, Note_off_c, 0, 55, 52
1, 210829, Note_on_c, 0, 55, 38
1, 210877, Note_off_c, 0, 55, 52
1, 210998, Note_on_c, 0, 55, 46
1, 211070, Note_off_c, 0, 55, 43
1, 211156, Poly_aftertouch_c, 0, 55, 127
1, 211188, Poly_aftertouch_c, 0, 55, 0
1, 211304, Note_on_c, 0, 55, 30
1, 211363, Note_off_c, 0, 55, 49
1, 211461, Note_on_c, 0, 55, 34
1, 211506, Note_off_c, 0, 55, 50
1, 211616, Note_on_c, 0, 71, 58
1, 211648, Note_on_c, 0, 55, 26
1, 211688, Note_off_c, 0, 55, 49
1, 211726, Note_off_c, 0, 71, 59
1, 211802, Note_on_c, 0, 55, 36
1, 211839, Note_off_c, 0, 55, 49
1, 211945, Note_on_c, 0, 55, 40
1, 211954, Note_on_c, 0, 72, 58
1, 211990, Note_off_c, 0, 55, 54
1, 212010, Note_off_c, 0, 72, 50
1, 212087, Control_c, 0, 64, 119
1, 212102, Control_c, 0, 64, 88
1, 212117, Control_c, 0, 64, 68
1, 212118, Note_on_c, 0, 55, 44
1, 212132, Control_c, 0, 64, 56
1, 212136, Note_on_c, 0, 74, 58
1, 212147, Control_c, 0, 64, 44
1, 212162, Control_c, 0, 64, 43
1, 212177, Control_c, 0, 64, 43
1, 212192, Note_off_c, 0, 55, 49
1, 212192, Control_c, 0, 64, 49
1, 212207, Control_c, 0, 64, 59
1, 212222, Control_c, 0, 64, 64
1, 212236, Control_c, 0, 64, 68
1, 212251, Control_c, 0, 64, 74
1, 212266, Control_c, 0, 64, 81
1, 212280, Control_c, 0, 64, 87
1, 212281, Note_on_c, 0, 55, 42
1, 212292, Note_off_c, 0, 74, 62
1, 212295, Control_c, 0, 64, 92
1, 212310, Control_c, 0, 64, 94
1, 212325, Control_c, 0, 64, 95
1, 212340, Control_c, 0, 64, 95
1, 212341, Note_off_c, 0, 55, 52
1, 212354, Control_c, 0, 64, 97
1, 212369, Control_c, 0, 64, 100
1, 212384, Control_c, 0, 64, 104
1, 212399, Control_c, 0, 64, 106
1, 212433, Note_on_c, 0, 55, 36
1, 212483, Note_off_c, 0, 55, 52
1, 212594, Note_on_c, 0, 74, 68
1, 212603, Note_on_c, 0, 55, 40
1, 212606, Control_c, 0, 64, 106
1, 212609, Note_on_c, 0, 65, 44
1, 212621, Control_c, 0, 64, 107
1, 212636, Control_c, 0, 64, 109
1, 212657, Note_off_c, 0, 65, 55
1, 212662, Note_off_c, 0, 55, 48
1, 212666, Control_c, 0, 64, 110
1, 212710, Control_c, 0, 64, 110
1, 212723, Note_off_c, 0, 74, 62
1, 212725, Control_c, 0, 64, 111
1, 212740, Control_c, 0, 64, 111
1, 212767, Note_on_c, 0, 55, 39
1, 212785, Control_c, 0, 64, 113
1, 212807, Control_c, 0, 64, 114
1, 212822, Control_c, 0, 64, 116
1, 212824, Note_off_c, 0, 55, 55
1, 212837, Control_c, 0, 64, 117
1, 212930, Note_on_c, 0, 55, 28
1, 212971, Note_off_c, 0, 55, 47
1, 213029, Control_c, 0, 64, 116
1, 213044, Control_c, 0, 64, 115
1, 213059, Control_c, 0, 64, 113
1, 213062, Note_on_c, 0, 74, 64
1, 213074, Note_on_c, 0, 68, 50
1, 213074, Control_c, 0, 64, 108
1, 213086, Note_on_c, 0, 55, 40
1, 213089, Control_c, 0, 64, 101
1, 213103, Control_c, 0, 64, 91
1, 213118, Control_c, 0, 64, 80
1, 213133, Control_c, 0, 64, 70
1, 213143, Note_off_c, 0, 55, 53
1, 213148, Control_c, 0, 64, 67
1, 213163, Control_c, 0, 64, 68
1, 213177, Control_c, 0, 64, 71
1, 213192, Control_c, 0, 64, 75
1, 213207, Control_c, 0, 64, 81
1, 213222, Control_c, 0, 64, 88
1, 213236, Control_c, 0, 64, 94
1, 213237, Note_off_c, 0, 68, 34
1, 213239, Note_on_c, 0, 55, 37
1, 213251, Control_c, 0, 64, 97
1, 213266, Control_c, 0, 64, 99
1, 213270, Note_off_c, 0, 74, 51
1, 213281, Control_c, 0, 64, 99
1, 213298, Note_off_c, 0, 55, 46
1, 213378, Note_on_c, 0, 55, 29
1, 213432, Note_off_c, 0, 55, 48
1, 213533, Note_on_c, 0, 55, 32
1, 213540, Note_on_c, 0, 72, 60
1, 213586, Control_c, 0, 64, 100
1, 213596, Note_off_c, 0, 55, 52
1, 213644, Control_c, 0, 64, 100
1, 213700, Note_on_c, 0, 55, 38
1, 213711, Note_off_c, 0, 72, 47
1, 213718, Control_c, 0, 64, 100
1, 213746, Note_off_c, 0, 55, 52
1, 213778, Control_c, 0, 64, 99
1, 213837, Control_c, 0, 64, 99
1, 213846, Note_on_c, 0, 55, 40
1, 213881, Control_c, 0, 64, 98
1, 213886, Note_on_c, 0, 74, 53
1, 213896, Control_c, 0, 64, 98
1, 213900, Note_off_c, 0, 55, 51
1, 213925, Control_c, 0, 64, 97
1, 213955, Control_c, 0, 64, 96
1, 213970, Control_c, 0, 64, 95
1, 213980, Note_off_c, 0, 74, 57
1, 213985, Control_c, 0, 64, 94
1, 213999, Control_c, 0, 64, 92
1, 214014, Control_c, 0, 64, 89
1, 214029, Control_c, 0, 64, 83
1, 214044, Control_c, 0, 64, 75
1, 214049, Note_on_c, 0, 75, 56
1, 214053, Note_on_c, 0, 55, 37
1, 214058, Control_c, 0, 64, 68
1, 214073, Control_c, 0, 64, 62
1, 214088, Control_c, 0, 64, 60
1, 214103, Control_c, 0, 64, 61
1, 214117, Control_c, 0, 64, 62
1, 214132, Control_c, 0, 64, 64
1, 214136, Note_off_c, 0, 55, 47
1, 214147, Control_c, 0, 64, 66
1, 214162, Control_c, 0, 64, 70
1, 214177, Control_c, 0, 64, 74
1, 214192, Control_c, 0, 64, 79
1, 214207, Control_c, 0, 64, 84
1, 214222, Control_c, 0, 64, 88
1, 214237, Note_on_c, 0, 55, 30
1, 214237, Control_c, 0, 64, 90
1, 214251, Control_c, 0, 64, 92
1, 214266, Control_c, 0, 64, 93
1, 214278, Note_off_c, 0, 75, 48
1, 214281, Control_c, 0, 64, 93
1, 214311, Note_off_c, 0, 55, 53
1, 214378, Control_c, 0, 64, 94
1, 214394, Control_c, 0, 64, 94
1, 214396, Note_on_c, 0, 55, 40
1, 214409, Control_c, 0, 64, 96
1, 214423, Control_c, 0, 64, 97
1, 214438, Control_c, 0, 64, 98
1, 214472, Note_off_c, 0, 55, 43
1, 214526, Note_on_c, 0, 63, 53
1, 214553, Note_on_c, 0, 55, 20
1, 214623, Note_off_c, 0, 63, 57
1, 214667, Note_off_c, 0, 55, 0
1, 214684, Note_on_c, 0, 55, 29
1, 214738, Note_off_c, 0, 55, 58
1, 214749, Control_c, 0, 64, 97
1, 214754, Note_on_c, 0, 74, 60
1, 214853, Control_c, 0, 64, 97
1, 214869, Note_on_c, 0, 55, 32
1, 214882, Control_c, 0, 64, 96
1, 214905, Note_off_c, 0, 55, 50
1, 214912, Control_c, 0, 64, 95
1, 214927, Control_c, 0, 64, 94
1, 214937, Note_off_c, 0, 74, 53
1, 214941, Control_c, 0, 64, 93
1, 214956, Control_c, 0, 64, 90
1, 214971, Control_c, 0, 64, 86
1, 214986, Control_c, 0, 64, 80
1, 215001, Control_c, 0, 64, 72
1, 215006, Note_on_c, 0, 72, 53
1, 215009, Note_on_c, 0, 67, 47
1, 215015, Control_c, 0, 64, 67
1, 215027, Note_on_c, 0, 55, 35
1, 215053, Control_c, 0, 64, 69
1, 215068, Control_c, 0, 64, 71
1, 215079, Note_off_c, 0, 55, 51
1, 215082, Control_c, 0, 64, 74
1, 215097, Control_c, 0, 64, 80
1, 215113, Control_c, 0, 64, 85
1, 215128, Control_c, 0, 64, 89
1, 215143, Note_off_c, 0, 67, 35
1, 215143, Control_c, 0, 64, 92
1, 215154, Note_off_c, 0, 72, 64
1, 215158, Control_c, 0, 64, 93
1, 215173, Control_c, 0, 64, 94
1, 215181, Note_on_c, 0, 55, 45
1, 215187, Control_c, 0, 64, 94
1, 215229, Note_off_c, 0, 55, 56
1, 215346, Note_on_c, 0, 55, 42
1, 215390, Note_off_c, 0, 55, 52
1, 215477, Note_on_c, 0, 74, 69
1, 215522, Poly_aftertouch_c, 0, 55, 0
1, 215647, Note_on_c, 0, 55, 36
1, 215682, Note_off_c, 0, 55, 51
1, 215690, Control_c, 0, 64, 94
1, 215705, Control_c, 0, 64, 93
1, 215750, Control_c, 0, 64, 93
1, 215757, Note_off_c, 0, 74, 60
1, 215764, Control_c, 0, 64, 92
1, 215792, Note_on_c, 0, 55, 40
1, 215817, Control_c, 0, 64, 92
1, 215843, Note_on_c, 0, 72, 65
1, 215844, Note_off_c, 0, 55, 57
1, 215861, Control_c, 0, 64, 91
1, 215936, Control_c, 0, 64, 91
1, 215945, Note_off_c, 0, 72, 52
1, 215951, Control_c, 0, 64, 90
1, 215960, Note_on_c, 0, 55, 44
1, 215964, Note_on_c, 0, 71, 72
1, 215966, Control_c, 0, 64, 88
1, 215981, Control_c, 0, 64, 83
1, 215995, Control_c, 0, 64, 76
1, 216010, Note_off_c, 0, 55, 51
1, 216010, Control_c, 0, 64, 69
1, 216025, Control_c, 0, 64, 64
1, 216040, Control_c, 0, 64, 64
1, 216055, Control_c, 0, 64, 64
1, 216070, Control_c, 0, 64, 65
1, 216084, Control_c, 0, 64, 68
1, 216099, Control_c, 0, 64, 72
1, 216111, Note_on_c, 0, 55, 45
1, 216114, Control_c, 0, 64, 78
1, 216128, Control_c, 0, 64, 83
1, 216143, Control_c, 0, 64, 85
1, 216146, Note_off_c, 0, 71, 50
1, 216155, Note_off_c, 0, 55, 58
1, 216158, Control_c, 0, 64, 87
1, 216173, Control_c, 0, 64, 87
1, 216202, Control_c, 0, 64, 88
1, 216271, Note_on_c, 0, 55, 40
1, 216308, Note_off_c, 0, 55, 54
1, 216391, Note_on_c, 0, 69, 62
1, 216406, Note_on_c, 0, 65, 48
1, 216419, Note_on_c, 0, 55, 47
1, 216439, Control_c, 0, 64, 87
1, 216454, Control_c, 0, 64, 84
1, 216461, Note_off_c, 0, 55, 57
1, 216469, Control_c, 0, 64, 78
1, 216484, Control_c, 0, 64, 72
1, 216499, Control_c, 0, 64, 70
1, 216513, Control_c, 0, 64, 71
1, 216528, Control_c, 0, 64, 73
1, 216550, Control_c, 0, 64, 74
1, 216565, Control_c, 0, 64, 77
1, 216578, Note_on_c, 0, 55, 45
1, 216580, Note_off_c, 0, 65, 60
1, 216580, Control_c, 0, 64, 81
1, 216595, Control_c, 0, 64, 83
1, 216610, Control_c, 0, 64, 85
1, 216624, Control_c, 0, 64, 87
1, 216632, Note_off_c, 0, 55, 57
1, 216639, Control_c, 0, 64, 89
1, 216654, Control_c, 0, 64, 91
1, 216699, Control_c, 0, 64, 91
1, 216711, Note_off_c, 0, 69, 36
1, 216714, Control_c, 0, 64, 92
1, 216754, Note_on_c, 0, 55, 29
1, 216776, Note_on_c, 0, 71, 55
1, 216784, Note_off_c, 0, 55, 54
1, 216833, Control_c, 0, 64, 91
1, 216842, Note_off_c, 0, 71, 57
1, 216848, Control_c, 0, 64, 91
1, 216863, Control_c, 0, 64, 89
1, 216877, Control_c, 0, 64, 85
1, 216892, Control_c, 0, 64, 78
1, 216896, Note_on_c, 0, 72, 58
1, 216898, Note_on_c, 0, 55, 35
1, 216907, Control_c, 0, 64, 70
1, 216909, Note_on_c, 0, 63, 47
1, 216922, Control_c, 0, 64, 64
1, 216937, Control_c, 0, 64, 60
1, 216951, Control_c, 0, 64, 59
1, 216966, Control_c, 0, 64, 61
1, 216967, Note_off_c, 0, 55, 55
1, 216981, Control_c, 0, 64, 63
1, 216996, Control_c, 0, 64, 66
1, 217011, Control_c, 0, 64, 70
1, 217025, Control_c, 0, 64, 75
1, 217040, Control_c, 0, 64, 81
1, 217055, Control_c, 0, 64, 87
1, 217069, Control_c, 0, 64, 90
1, 217071, Note_off_c, 0, 63, 30
1, 217076, Note_on_c, 0, 55, 39
1, 217078, Note_off_c, 0, 72, 54
1, 217084, Control_c, 0, 64, 93
1, 217099, Control_c, 0, 64, 95
1, 217111, Note_off_c, 0, 55, 52
1, 217114, Control_c, 0, 64, 97
1, 217129, Control_c, 0, 64, 99
1, 217143, Control_c, 0, 64, 100
1, 217158, Control_c, 0, 64, 102
1, 217173, Control_c, 0, 64, 102
1, 217224, Note_on_c, 0, 55, 42
1, 217275, Note_off_c, 0, 55, 51
1, 217344, Control_c, 0, 64, 101
1, 217373, Control_c, 0, 64, 100
1, 217387, Note_on_c, 0, 74, 60
1, 217388, Control_c, 0, 64, 99
1, 217403, Control_c, 0, 64, 96
1, 217405, Note_on_c, 0, 60, 47
1, 217417, Control_c, 0, 64, 88
1, 217432, Control_c, 0, 64, 78
1, 217433, Note_on_c, 0, 55, 29
1, 217447, Control_c, 0, 64, 69
1, 217462, Control_c, 0, 64, 64
1, 217464, Note_off_c, 0, 55, 54
1, 217492, Control_c, 0, 64, 66
1, 217507, Control_c, 0, 64, 68
1, 217522, Control_c, 0, 64, 74
1, 217537, Control_c, 0, 64, 80
1, 217552, Control_c, 0, 64, 87
1, 217566, Control_c, 0, 64, 91
1, 217570, Note_on_c, 0, 55, 44
1, 217581, Note_off_c, 0, 74, 56
1, 217581, Control_c, 0, 64, 93
1, 217596, Control_c, 0, 64, 95
1, 217611, Control_c, 0, 64, 97
1, 217629, Note_off_c, 0, 55, 59
1, 217768, Note_on_c, 0, 55, 38
1, 217788, Note_off_c, 0, 60, 19
1, 217829, Note_on_c, 0, 75, 49
1, 217832, Note_off_c, 0, 55, 56
1, 217932, Note_off_c, 0, 75, 48
1, 217955, Note_on_c, 0, 68, 49
1, 218078, Control_c, 0, 64, 96
1, 218093, Control_c, 0, 64, 95
1, 218107, Control_c, 0, 64, 94
1, 218122, Control_c, 0, 64, 94
1, 218137, Control_c, 0, 64, 92
1, 218147, Note_off_c, 0, 68, 36
1, 218152, Control_c, 0, 64, 88
1, 218154, Note_on_c, 0, 74, 46
1, 218156, Note_on_c, 0, 67, 38
1, 218166, Control_c, 0, 64, 80
1, 218181, Control_c, 0, 64, 72
1, 218186, Note_on_c, 0, 55, 28
1, 218196, Control_c, 0, 64, 65
1, 218211, Control_c, 0, 64, 62
1, 218241, Control_c, 0, 64, 63
1, 218255, Control_c, 0, 64, 65
1, 218270, Control_c, 0, 64, 69
1, 218276, Note_off_c, 0, 55, 49
1, 218285, Control_c, 0, 64, 75
1, 218301, Control_c, 0, 64, 83
1, 218315, Control_c, 0, 64, 92
1, 218330, Control_c, 0, 64, 100
1, 218345, Control_c, 0, 64, 108
1, 218360, Control_c, 0, 64, 127
1, 218402, Note_on_c, 0, 55, 18
1, 218460, Note_off_c, 0, 55, 43
1, 218552, Note_on_c, 0, 55, 27
1, 218604, Note_off_c, 0, 55, 55
1, 218737, Note_on_c, 0, 55, 7
1, 218800, Note_off_c, 0, 55, 43
1, 218881, Note_on_c, 0, 55, 20
1, 218922, Note_off_c, 0, 55, 49
1, 219050, Note_on_c, 0, 55, 27
1, 219070, Note_off_c, 0, 67, 34
1, 219092, Note_off_c, 0, 74, 45
1, 219095, Note_off_c, 0, 55, 47
1, 219199, Note_on_c, 0, 55, 29
1, 219249, Note_off_c, 0, 55, 54
1, 219364, Note_on_c, 0, 55, 42
1, 219394, Note_off_c, 0, 55, 59
1, 219478, Note_on_c, 0, 55, 61
1, 219551, Note_off_c, 0, 55, 61
1, 219656, Note_on_c, 0, 55, 61
1, 219657, Note_on_c, 0, 71, 81
1, 219661, Note_on_c, 0, 67, 68
1, 219665, Note_on_c, 0, 59, 65
1, 219698, Note_off_c, 0, 55, 60
1, 219719, Note_off_c, 0, 59, 60
1, 219722, Note_off_c, 0, 67, 61
1, 219744, Note_off_c, 0, 71, 62
1, 219804, Note_on_c, 0, 55, 73
1, 219849, Note_off_c, 0, 55, 61
1, 219932, Note_on_c, 0, 55, 75
1, 219971, Note_on_c, 0, 69, 75
1, 219972, Note_on_c, 0, 72, 78
1, 219972, Note_on_c, 0, 60, 75
1, 219972, Note_off_c, 0, 55, 52
1, 220009, Note_off_c, 0, 60, 62
1, 220009, Note_off_c, 0, 69, 63
1, 220029, Note_off_c, 0, 72, 63
1, 220090, Note_on_c, 0, 74, 84
1, 220091, Note_on_c, 0, 55, 69
1, 220094, Control_c, 0, 64, 96
1, 220097, Note_on_c, 0, 71, 80
1, 220098, Note_on_c, 0, 62, 76
1, 220109, Control_c, 0, 64, 77
1, 220124, Control_c, 0, 64, 65
1, 220139, Control_c, 0, 64, 61
1, 220154, Control_c, 0, 64, 63
1, 220169, Control_c, 0, 64, 65
1, 220171, Note_off_c, 0, 55, 62
1, 220184, Control_c, 0, 64, 70
1, 220199, Control_c, 0, 64, 77
1, 220213, Control_c, 0, 64, 90
1, 220228, Control_c, 0, 64, 102
1, 220243, Control_c, 0, 64, 110
1, 220258, Control_c, 0, 64, 116
1, 220272, Note_on_c, 0, 55, 60
1, 220273, Control_c, 0, 64, 119
1, 220315, Note_off_c, 0, 55, 64
1, 220348, Note_off_c, 0, 71, 54
1, 220354, Control_c, 0, 64, 121
1, 220368, Control_c, 0, 64, 123
1, 220375, Note_off_c, 0, 62, 57
1, 220383, Control_c, 0, 64, 127
1, 220401, Note_off_c, 0, 74, 56
1, 220416, Note_on_c, 0, 55, 55
1, 220462, Note_off_c, 0, 55, 60
1, 220589, Note_on_c, 0, 74, 84
1, 220591, Note_on_c, 0, 62, 79
1, 220591, Note_on_c, 0, 71, 80
1, 220591, Control_c, 0, 64, 107
1, 220593, Note_on_c, 0, 54, 69
1, 220594, Note_on_c, 0, 55, 54
1, 220606, Control_c, 0, 64, 87
1, 220621, Control_c, 0, 64, 73
1, 220636, Control_c, 0, 64, 64
1, 220650, Control_c, 0, 64, 62
1, 220665, Control_c, 0, 64, 64
1, 220675, Note_off_c, 0, 54, 62
1, 220680, Control_c, 0, 64, 67
1, 220692, Note_off_c, 0, 55, 60
1, 220696, Control_c, 0, 64, 72
1, 220711, Control_c, 0, 64, 80
1, 220725, Control_c, 0, 64, 93
1, 220740, Control_c, 0, 64, 109
1, 220755, Control_c, 0, 64, 127
1, 220768, Note_on_c, 0, 54, 64
1, 220768, Note_on_c, 0, 55, 37
1, 220799, Note_off_c, 0, 62, 38
1, 220819, Note_off_c, 0, 54, 57
1, 220825, Note_off_c, 0, 55, 58
1, 220846, Note_off_c, 0, 74, 57
1, 220851, Note_off_c, 0, 71, 58
1, 220918, Note_on_c, 0, 54, 58
1, 220935, Note_on_c, 0, 55, 44
1, 220956, Note_off_c, 0, 54, 60
1, 220970, Note_off_c, 0, 55, 61
1, 221070, Note_on_c, 0, 74, 87
1, 221072, Note_on_c, 0, 71, 77
1, 221072, Note_on_c, 0, 62, 83
1, 221073, Control_c, 0, 64, 95
1, 221078, Note_on_c, 0, 53, 71
1, 221079, Note_on_c, 0, 55, 53
1, 221088, Control_c, 0, 64, 74
1, 221103, Control_c, 0, 64, 63
1, 221117, Control_c, 0, 64, 60
1, 221131, Control_c, 0, 64, 63
1, 221146, Control_c, 0, 64, 65
1, 221159, Note_off_c, 0, 53, 58
1, 221161, Control_c, 0, 64, 69
1, 221176, Control_c, 0, 64, 76
1, 221187, Note_off_c, 0, 55, 52
1, 221190, Control_c, 0, 64, 87
1, 221205, Control_c, 0, 64, 97
1, 221220, Control_c, 0, 64, 107
1, 221235, Control_c, 0, 64, 121
1, 221247, Note_on_c, 0, 53, 72
1, 221247, Note_on_c, 0, 55, 32
1, 221250, Control_c, 0, 64, 127
1, 221295, Note_off_c, 0, 62, 57
1, 221301, Note_off_c, 0, 74, 57
1, 221310, Note_off_c, 0, 53, 62
1, 221324, Note_off_c, 0, 55, 56
1, 221348, Note_off_c, 0, 71, 49
1, 221378, Note_on_c, 0, 53, 71
1, 221379, Note_on_c, 0, 55, 47
1, 221451, Note_off_c, 0, 53, 61
1, 221528, Note_on_c, 0, 51, 70
1, 221532, Control_c, 0, 64, 102
1, 221534, Note_on_c, 0, 72, 91
1, 221537, Note_on_c, 0, 60, 84
1, 221539, Note_on_c, 0, 67, 76
1, 221541, Note_off_c, 0, 55, 0
1, 221541, Note_on_c, 0, 55, 3
1, 221546, Control_c, 0, 64, 77
1, 221561, Control_c, 0, 64, 65
1, 221576, Control_c, 0, 64, 62
1, 221591, Control_c, 0, 64, 65
1, 221606, Control_c, 0, 64, 69
1, 221612, Note_off_c, 0, 51, 63
1, 221620, Control_c, 0, 64, 74
1, 221635, Control_c, 0, 64, 83
1, 221650, Note_off_c, 0, 60, 60
1, 221650, Control_c, 0, 64, 94
1, 221665, Control_c, 0, 64, 106
1, 221669, Note_off_c, 0, 55, 0
1, 221680, Control_c, 0, 64, 113
1, 221686, Note_on_c, 0, 51, 75
1, 221686, Note_off_c, 0, 72, 64
1, 221687, Note_on_c, 0, 55, 36
1, 221691, Note_off_c, 0, 67, 54
1, 221695, Control_c, 0, 64, 121
1, 221710, Control_c, 0, 64, 127
1, 221753, Note_off_c, 0, 55, 56
1, 221760, Note_off_c, 0, 51, 62
1, 221833, Note_on_c, 0, 50, 77
1, 221846, Note_on_c, 0, 55, 48
1, 221889, Note_off_c, 0, 55, 57
1, 221898, Note_on_c, 0, 74, 92
1, 221898, Note_off_c, 0, 50, 62
1, 221900, Note_on_c, 0, 67, 75
1, 221902, Note_on_c, 0, 62, 82
1, 221945, Note_off_c, 0, 62, 61
1, 221967, Note_off_c, 0, 74, 61
1, 221998, Note_off_c, 0, 67, 62
1, 222097, Note_on_c, 0, 48, 80
1, 222103, Control_c, 0, 64, 90
1, 222103, Note_on_c, 0, 55, 72
1, 222103, Note_on_c, 0, 63, 87
1, 222103, Note_on_c, 0, 67, 84
1, 222103, Note_on_c, 0, 75, 97
1, 222118, Control_c, 0, 64, 68
1, 222132, Control_c, 0, 64, 53
1, 222147, Control_c, 0, 64, 41
1, 222177, Control_c, 0, 64, 44
1, 222192, Control_c, 0, 64, 55
1, 222206, Control_c, 0, 64, 63
1, 222219, Note_off_c, 0, 48, 60
1, 222221, Control_c, 0, 64, 69
1, 222236, Control_c, 0, 64, 76
1, 222240, Note_off_c, 0, 55, 54
1, 222251, Control_c, 0, 64, 84
1, 222265, Control_c, 0, 64, 94
1, 222282, Control_c, 0, 64, 100
1, 222297, Control_c, 0, 64, 106
1, 222311, Control_c, 0, 64, 112
1, 222326, Control_c, 0, 64, 116
1, 222338, Note_on_c, 0, 48, 68
1, 222341, Control_c, 0, 64, 121
1, 222355, Control_c, 0, 64, 127
1, 222384, Note_off_c, 0, 48, 58
1, 222473, Note_on_c, 0, 48, 52
1, 222498, Note_off_c, 0, 48, 63
1, 222520, Poly_aftertouch_c, 0, 55, 0
1, 222585, Control_c, 0, 64, 89
1, 222600, Control_c, 0, 64, 69
1, 222607, Note_on_c, 0, 46, 70
1, 222615, Control_c, 0, 64, 61
1, 222625, Note_on_c, 0, 55, 57
1, 222630, Control_c, 0, 64, 64
1, 222644, Control_c, 0, 64, 69
1, 222659, Control_c, 0, 64, 77
1, 222664, Note_off_c, 0, 55, 62
1, 222667, Note_off_c, 0, 46, 61
1, 222674, Control_c, 0, 64, 90
1, 222688, Control_c, 0, 64, 127
1, 222736, Note_on_c, 0, 46, 68
1, 222743, Note_on_c, 0, 55, 67
1, 222743, Note_off_c, 0, 63, 58
1, 222758, Note_off_c, 0, 75, 59
1, 222789, Note_off_c, 0, 55, 61
1, 222799, Note_off_c, 0, 46, 61
1, 222835, Note_on_c, 0, 74, 87
1, 222840, Note_on_c, 0, 62, 76
1, 222872, Note_off_c, 0, 67, 62
1, 222888, Note_off_c, 0, 62, 60
1, 222911, Note_on_c, 0, 46, 73
1, 222916, Note_on_c, 0, 55, 62
1, 222922, Note_off_c, 0, 74, 59
1, 222957, Note_off_c, 0, 55, 62
1, 222973, Note_off_c, 0, 46, 59
1, 223059, Control_c, 0, 64, 86
1, 223061, Note_on_c, 0, 55, 66
1, 223066, Note_on_c, 0, 45, 72
1, 223074, Note_on_c, 0, 60, 85
1, 223074, Note_on_c, 0, 67, 72
1, 223074, Note_on_c, 0, 72, 90
1, 223074, Control_c, 0, 64, 66
1, 223090, Control_c, 0, 64, 52
1, 223105, Control_c, 0, 64, 48
1, 223120, Control_c, 0, 64, 52
1, 223134, Control_c, 0, 64, 58
1, 223141, Note_off_c, 0, 55, 55
1, 223142, Note_off_c, 0, 45, 60
1, 223149, Control_c, 0, 64, 65
1, 223164, Control_c, 0, 64, 70
1, 223178, Control_c, 0, 64, 79
1, 223179, Note_off_c, 0, 60, 57
1, 223193, Control_c, 0, 64, 89
1, 223208, Control_c, 0, 64, 95
1, 223214, Note_off_c, 0, 72, 64
1, 223223, Control_c, 0, 64, 99
1, 223231, Note_off_c, 0, 67, 64
1, 223238, Control_c, 0, 64, 104
1, 223251, Note_on_c, 0, 45, 71
1, 223253, Note_on_c, 0, 55, 69
1, 223253, Control_c, 0, 64, 111
1, 223268, Control_c, 0, 64, 123
1, 223290, Control_c, 0, 64, 127
1, 223302, Note_off_c, 0, 45, 56
1, 223302, Note_off_c, 0, 55, 61
1, 223399, Note_on_c, 0, 45, 77
1, 223402, Note_on_c, 0, 55, 67
1, 223436, Note_off_c, 0, 55, 65
1, 223441, Note_off_c, 0, 45, 63
1, 223527, Control_c, 0, 64, 102
1, 223530, Note_on_c, 0, 66, 77
1, 223531, Note_on_c, 0, 74, 94
1, 223534, Note_on_c, 0, 62, 86
1, 223540, Note_on_c, 0, 44, 75
1, 223542, Control_c, 0, 64, 73
1, 223544, Note_on_c, 0, 54, 76
1, 223557, Control_c, 0, 64, 60
1, 223572, Control_c, 0, 64, 50
1, 223583, Note_off_c, 0, 54, 58
1, 223586, Control_c, 0, 64, 53
1, 223601, Control_c, 0, 64, 59
1, 223606, Note_off_c, 0, 44, 62
1, 223616, Control_c, 0, 64, 65
1, 223631, Control_c, 0, 64, 72
1, 223646, Control_c, 0, 64, 84
1, 223656, Note_off_c, 0, 62, 52
1, 223660, Control_c, 0, 64, 107
1, 223664, Note_off_c, 0, 66, 58
1, 223675, Control_c, 0, 64, 127
1, 223698, Note_on_c, 0, 54, 78
1, 223705, Note_off_c, 0, 74, 59
1, 223706, Note_on_c, 0, 44, 66
1, 223756, Note_off_c, 0, 44, 58
1, 223756, Note_off_c, 0, 54, 62
1, 223838, Note_on_c, 0, 54, 62
1, 223840, Note_on_c, 0, 44, 61
1, 223904, Note_off_c, 0, 44, 58
1, 223906, Note_on_c, 0, 72, 84
1, 223922, Note_off_c, 0, 54, 47
1, 223970, Note_off_c, 0, 72, 61
1, 224002, Control_c, 0, 64, 94
1, 224006, Note_on_c, 0, 71, 79
1, 224012, Note_on_c, 0, 62, 71
1, 224012, Note_on_c, 0, 65, 72
1, 224013, Note_on_c, 0, 43, 67
1, 224014, Note_on_c, 0, 53, 69
1, 224017, Control_c, 0, 64, 71
1, 224039, Control_c, 0, 64, 57
1, 224054, Control_c, 0, 64, 55
1, 224069, Control_c, 0, 64, 59
1, 224081, Note_off_c, 0, 43, 58
1, 224083, Control_c, 0, 64, 63
1, 224098, Control_c, 0, 64, 68
1, 224101, Note_off_c, 0, 53, 56
1, 224113, Control_c, 0, 64, 76
1, 224127, Control_c, 0, 64, 92
1, 224142, Control_c, 0, 64, 108
1, 224157, Control_c, 0, 64, 127
1, 224167, Note_off_c, 0, 65, 55
1, 224196, Note_on_c, 0, 43, 64
1, 224198, Note_on_c, 0, 53, 61
1, 224199, Note_off_c, 0, 71, 56
1, 224214, Note_off_c, 0, 62, 58
1, 224244, Note_off_c, 0, 43, 58
1, 224244, Note_off_c, 0, 53, 55
1, 224315, Poly_aftertouch_c, 0, 53, 0
1, 224324, Note_on_c, 0, 43, 59
1, 224358, Note_off_c, 0, 43, 62
1, 224458, Note_on_c, 0, 71, 87
1, 224462, Note_on_c, 0, 62, 79
1, 224464, Note_on_c, 0, 67, 73
1, 224467, Note_on_c, 0, 41, 68
1, 224468, Control_c, 0, 64, 103
1, 224470, Note_on_c, 0, 43, 60
1, 224482, Control_c, 0, 64, 78
1, 224497, Control_c, 0, 64, 64
1, 224512, Control_c, 0, 64, 62
1, 224526, Note_off_c, 0, 41, 60
1, 224527, Control_c, 0, 64, 64
1, 224542, Control_c, 0, 64, 67
1, 224548, Note_off_c, 0, 43, 59
1, 224557, Control_c, 0, 64, 72
1, 224572, Control_c, 0, 64, 82
1, 224586, Control_c, 0, 64, 99
1, 224601, Control_c, 0, 64, 116
1, 224616, Control_c, 0, 64, 127
1, 224622, Note_on_c, 0, 41, 76
1, 224629, Note_on_c, 0, 43, 48
1, 224670, Note_off_c, 0, 43, 61
1, 224672, Note_off_c, 0, 41, 62
1, 224724, Note_off_c, 0, 67, 36
1, 224743, Note_off_c, 0, 71, 47
1, 224748, Note_on_c, 0, 41, 75
1, 224753, Note_on_c, 0, 43, 54
1, 224755, Note_off_c, 0, 62, 50
1, 224803, Note_off_c, 0, 43, 56
1, 224810, Note_off_c, 0, 41, 62
1, 224822, Note_on_c, 0, 68, 84
1, 224891, Control_c, 0, 64, 105
1, 224893, Note_off_c, 0, 68, 64
1, 224905, Control_c, 0, 64, 75
1, 224912, Note_on_c, 0, 39, 73
1, 224917, Note_on_c, 0, 43, 58
1, 224920, Note_on_c, 0, 72, 94
1, 224920, Control_c, 0, 64, 61
1, 224924, Note_on_c, 0, 60, 87
1, 224926, Note_on_c, 0, 67, 77
1, 224935, Control_c, 0, 64, 53
1, 224950, Control_c, 0, 64, 58
1, 224965, Control_c, 0, 64, 63
1, 224980, Control_c, 0, 64, 67
1, 224988, Note_off_c, 0, 39, 61
1, 224995, Control_c, 0, 64, 75
1, 225010, Note_off_c, 0, 43, 50
1, 225010, Control_c, 0, 64, 86
1, 225022, Note_off_c, 0, 60, 60
1, 225025, Control_c, 0, 64, 98
1, 225039, Control_c, 0, 64, 106
1, 225051, Note_off_c, 0, 72, 64
1, 225054, Control_c, 0, 64, 110
1, 225054, Note_off_c, 0, 67, 62
1, 225069, Control_c, 0, 64, 117
1, 225084, Control_c, 0, 64, 127
1, 225089, Note_on_c, 0, 39, 80
1, 225096, Note_on_c, 0, 43, 59
1, 225150, Note_off_c, 0, 43, 56
1, 225159, Note_off_c, 0, 39, 62
1, 225228, Note_on_c, 0, 39, 74
1, 225239, Note_on_c, 0, 43, 62
1, 225281, Note_off_c, 0, 43, 59
1, 225288, Note_off_c, 0, 39, 64
1, 225398, Note_on_c, 0, 75, 98
1, 225400, Note_on_c, 0, 65, 89
1, 225402, Note_on_c, 0, 31, 81
1, 225403, Note_on_c, 0, 71, 87
1, 225406, Note_on_c, 0, 43, 73
1, 225424, Control_c, 0, 64, 85
1, 225439, Control_c, 0, 64, 66
1, 225454, Control_c, 0, 64, 52
1, 225469, Control_c, 0, 64, 48
1, 225484, Control_c, 0, 64, 52
1, 225499, Control_c, 0, 64, 60
1, 225513, Note_off_c, 0, 31, 60
1, 225514, Control_c, 0, 64, 66
1, 225521, Note_off_c, 0, 43, 61
1, 225536, Control_c, 0, 64, 76
1, 225537, Note_off_c, 0, 75, 61
1, 225551, Control_c, 0, 64, 92
1, 225566, Control_c, 0, 64, 127
1, 225640, Note_on_c, 0, 43, 78
1, 225642, Note_on_c, 0, 31, 73
1, 225709, Note_off_c, 0, 43, 59
1, 225713, Note_off_c, 0, 31, 61
1, 225818, Note_on_c, 0, 31, 81
1, 225819, Note_on_c, 0, 43, 81
1, 225890, Note_off_c, 0, 71, 0
1, 225901, Note_off_c, 0, 43, 46
1, 225902, Note_on_c, 0, 74, 91
1, 225902, Note_off_c, 0, 65, 58
1, 225903, Note_off_c, 0, 31, 43
1, 225927, Poly_aftertouch_c, 0, 71, 127
1, 225964, Poly_aftertouch_c, 0, 71, 0
1, 225987, Note_off_c, 0, 74, 58
1, 226041, Control_c, 0, 64, 104
1, 226055, Control_c, 0, 64, 74
1, 226070, Control_c, 0, 64, 56
1, 226083, Note_on_c, 0, 43, 67
1, 226084, Note_on_c, 0, 36, 65
1, 226085, Control_c, 0, 64, 0
1, 226089, Note_on_c, 0, 72, 86
1, 226092, Note_on_c, 0, 63, 74
1, 226159, Control_c, 0, 64, 47
1, 226174, Control_c, 0, 64, 64
1, 226180, Note_off_c, 0, 36, 62
1, 226188, Control_c, 0, 64, 69
1, 226203, Control_c, 0, 64, 75
1, 226205, Note_off_c, 0, 43, 61
1, 226218, Control_c, 0, 64, 82
1, 226233, Control_c, 0, 64, 88
1, 226248, Control_c, 0, 64, 93
1, 226262, Control_c, 0, 64, 99
1, 226286, Control_c, 0, 64, 108
1, 226300, Control_c, 0, 64, 127
1, 226436, Note_on_c, 0, 55, 48
1, 226482, Note_off_c, 0, 55, 56
1, 226593, Note_on_c, 0, 55, 52
1, 226637, Note_off_c, 0, 55, 59
1, 226750, Note_on_c, 0, 55, 44
1, 226803, Note_off_c, 0, 55, 52
1, 226804, Control_c, 0, 64, 108
1, 226819, Control_c, 0, 64, 91
1, 226834, Control_c, 0, 64, 75
1, 226849, Control_c, 0, 64, 67
1, 226864, Control_c, 0, 64, 62
1, 226893, Control_c, 0, 64, 64
1, 226898, Note_on_c, 0, 55, 34
1, 226908, Control_c, 0, 64, 67
1, 226922, Control_c, 0, 64, 72
1, 226937, Control_c, 0, 64, 79
1, 226952, Control_c, 0, 64, 86
1, 226956, Note_off_c, 0, 55, 52
1, 226967, Control_c, 0, 64, 93
1, 226982, Control_c, 0, 64, 99
1, 226996, Control_c, 0, 64, 105
1, 227011, Control_c, 0, 64, 113
1, 227034, Control_c, 0, 64, 121
1, 227049, Control_c, 0, 64, 127
1, 227061, Note_on_c, 0, 55, 38
1, 227086, Note_off_c, 0, 72, 55
1, 227087, Note_off_c, 0, 63, 36
1, 227121, Note_off_c, 0, 55, 52
1, 227238, Note_on_c, 0, 55, 37
1, 227272, Control_c, 0, 64, 123
1, 227301, Note_off_c, 0, 55, 51
1, 227302, Control_c, 0, 64, 121
1, 227394, Note_on_c, 0, 55, 41
1, 227405, Control_c, 0, 64, 119
1, 227451, Note_off_c, 0, 55, 53
1, 227560, Note_on_c, 0, 55, 38
1, 227611, Note_off_c, 0, 55, 53
1, 227730, Note_on_c, 0, 55, 37
1, 227735, Note_on_c, 0, 74, 59
1, 227794, Note_off_c, 0, 55, 51
1, 227848, Note_off_c, 0, 74, 58
1, 227928, Note_on_c, 0, 55, 33
1, 227971, Note_off_c, 0, 55, 48
1, 228101, Note_on_c, 0, 55, 36
1, 228140, Note_off_c, 0, 55, 49
1, 228185, Note_on_c, 0, 75, 52
1, 228272, Control_c, 0, 64, 116
1, 228287, Control_c, 0, 64, 115
1, 228302, Control_c, 0, 64, 113
1, 228317, Control_c, 0, 64, 113
1, 228331, Control_c, 0, 64, 111
1, 228346, Control_c, 0, 64, 110
1, 228354, Note_off_c, 0, 75, 28
1, 228361, Control_c, 0, 64, 108
1, 228375, Control_c, 0, 64, 106
1, 228390, Control_c, 0, 64, 103
1, 228404, Note_on_c, 0, 77, 58
1, 228405, Control_c, 0, 64, 95
1, 228414, Note_on_c, 0, 56, 32
1, 228420, Control_c, 0, 64, 84
1, 228435, Control_c, 0, 64, 72
1, 228450, Control_c, 0, 64, 64
1, 228465, Control_c, 0, 64, 61
1, 228479, Control_c, 0, 64, 63
1, 228494, Control_c, 0, 64, 65
1, 228509, Control_c, 0, 64, 68
1, 228531, Control_c, 0, 64, 73
1, 228546, Control_c, 0, 64, 81
1, 228561, Control_c, 0, 64, 88
1, 228576, Control_c, 0, 64, 94
1, 228590, Note_off_c, 0, 56, 0
1, 228590, Control_c, 0, 64, 97
1, 228605, Control_c, 0, 64, 101
1, 228611, Note_on_c, 0, 56, 18
1, 228620, Control_c, 0, 64, 103
1, 228634, Control_c, 0, 64, 104
1, 228637, Note_off_c, 0, 77, 53
1, 228682, Note_off_c, 0, 56, 55
1, 228694, Control_c, 0, 64, 104
1, 228769, Control_c, 0, 64, 105
1, 228775, Note_on_c, 0, 56, 43
1, 228784, Control_c, 0, 64, 105
1, 228798, Control_c, 0, 64, 107
1, 228813, Control_c, 0, 64, 108
1, 228828, Control_c, 0, 64, 110
1, 228843, Control_c, 0, 64, 110
1, 228849, Note_off_c, 0, 56, 46
1, 228873, Control_c, 0, 64, 111
1, 228887, Control_c, 0, 64, 110
1, 228902, Control_c, 0, 64, 106
1, 228917, Note_on_c, 0, 77, 66
1, 228917, Control_c, 0, 64, 99
1, 228931, Control_c, 0, 64, 88
1, 228932, Note_on_c, 0, 65, 45
1, 228946, Control_c, 0, 64, 78
1, 228951, Note_on_c, 0, 57, 47
1, 228961, Control_c, 0, 64, 76
1, 228976, Control_c, 0, 64, 78
1, 228991, Control_c, 0, 64, 82
1, 229005, Note_off_c, 0, 57, 59
1, 229005, Control_c, 0, 64, 88
1, 229020, Control_c, 0, 64, 96
1, 229035, Control_c, 0, 64, 105
1, 229048, Note_off_c, 0, 65, 50
1, 229050, Control_c, 0, 64, 111
1, 229065, Control_c, 0, 64, 113
1, 229067, Note_off_c, 0, 77, 56
1, 229106, Note_on_c, 0, 57, 54
1, 229141, Note_off_c, 0, 57, 64
1, 229228, Note_on_c, 0, 57, 64
1, 229278, Note_off_c, 0, 57, 60
1, 229324, Control_c, 0, 64, 113
1, 229353, Control_c, 0, 64, 110
1, 229369, Control_c, 0, 64, 102
1, 229378, Note_on_c, 0, 77, 74
1, 229383, Note_on_c, 0, 58, 54
1, 229384, Control_c, 0, 64, 90
1, 229387, Note_on_c, 0, 68, 61
1, 229398, Control_c, 0, 64, 75
1, 229413, Control_c, 0, 64, 65
1, 229428, Control_c, 0, 64, 60
1, 229443, Control_c, 0, 64, 61
1, 229458, Control_c, 0, 64, 64
1, 229474, Control_c, 0, 64, 67
1, 229489, Control_c, 0, 64, 72
1, 229490, Note_off_c, 0, 58, 60
1, 229503, Control_c, 0, 64, 80
1, 229518, Control_c, 0, 64, 90
1, 229533, Control_c, 0, 64, 100
1, 229540, Note_off_c, 0, 68, 61
1, 229548, Control_c, 0, 64, 108
1, 229562, Control_c, 0, 64, 127
1, 229566, Note_on_c, 0, 58, 52
1, 229610, Note_off_c, 0, 58, 62
1, 229706, Note_on_c, 0, 58, 59
1, 229755, Note_off_c, 0, 58, 59
1, 229813, Note_off_c, 0, 77, 55
1, 229825, Note_on_c, 0, 75, 72
1, 229855, Note_on_c, 0, 58, 60
1, 229894, Note_off_c, 0, 58, 63
1, 229905, Note_off_c, 0, 75, 59
1, 229985, Note_on_c, 0, 58, 60
1, 230034, Note_off_c, 0, 58, 62
1, 230044, Control_c, 0, 64, 123
1, 230059, Control_c, 0, 64, 121
1, 230099, Note_on_c, 0, 74, 72
1, 230132, Note_on_c, 0, 58, 56
1, 230175, Note_off_c, 0, 58, 61
1, 230204, Note_off_c, 0, 74, 56
1, 230282, Control_c, 0, 64, 111
1, 230297, Control_c, 0, 64, 95
1, 230305, Note_on_c, 0, 58, 46
1, 230312, Control_c, 0, 64, 78
1, 230320, Note_on_c, 0, 79, 76
1, 230326, Control_c, 0, 64, 66
1, 230341, Control_c, 0, 64, 59
1, 230356, Control_c, 0, 64, 60
1, 230370, Control_c, 0, 64, 63
1, 230385, Control_c, 0, 64, 66
1, 230392, Note_off_c, 0, 58, 58
1, 230400, Control_c, 0, 64, 71
1, 230415, Control_c, 0, 64, 80
1, 230430, Control_c, 0, 64, 91
1, 230444, Control_c, 0, 64, 99
1, 230459, Control_c, 0, 64, 102
1, 230474, Control_c, 0, 64, 103
1, 230493, Note_on_c, 0, 58, 49
1, 230518, Note_off_c, 0, 58, 62
1, 230583, Note_off_c, 0, 79, 49
1, 230604, Note_on_c, 0, 58, 52
1, 230675, Note_off_c, 0, 58, 55
1, 230726, Control_c, 0, 64, 102
1, 230741, Control_c, 0, 64, 100
1, 230756, Control_c, 0, 64, 98
1, 230778, Control_c, 0, 64, 92
1, 230781, Note_on_c, 0, 59, 51
1, 230782, Note_on_c, 0, 67, 57
1, 230793, Control_c, 0, 64, 82
1, 230808, Control_c, 0, 64, 71
1, 230822, Control_c, 0, 64, 63
1, 230835, Note_off_c, 0, 59, 58
1, 230837, Control_c, 0, 64, 61
1, 230852, Control_c, 0, 64, 63
1, 230867, Control_c, 0, 64, 64
1, 230882, Control_c, 0, 64, 67
1, 230897, Control_c, 0, 64, 71
1, 230912, Control_c, 0, 64, 76
1, 230926, Control_c, 0, 64, 83
1, 230941, Control_c, 0, 64, 86
1, 230956, Control_c, 0, 64, 87
1, 230958, Note_on_c, 0, 59, 40
1, 230971, Control_c, 0, 64, 88
1, 230974, Note_off_c, 0, 67, 35
1, 230985, Control_c, 0, 64, 89
1, 230997, Note_off_c, 0, 59, 50
1, 231000, Note_on_c, 0, 77, 59
1, 231015, Control_c, 0, 64, 90
1, 231030, Control_c, 0, 64, 90
1, 231045, Control_c, 0, 64, 91
1, 231059, Control_c, 0, 64, 91
1, 231075, Control_c, 0, 64, 92
1, 231096, Note_on_c, 0, 59, 55
1, 231130, Note_off_c, 0, 59, 66
1, 231136, Note_on_c, 0, 68, 62
1, 231216, Note_off_c, 0, 77, 35
1, 231218, Note_off_c, 0, 68, 50
1, 231282, Control_c, 0, 64, 91
1, 231297, Control_c, 0, 64, 91
1, 231312, Control_c, 0, 64, 89
1, 231327, Control_c, 0, 64, 85
1, 231337, Note_on_c, 0, 60, 41
1, 231341, Control_c, 0, 64, 76
1, 231342, Note_on_c, 0, 75, 55
1, 231356, Control_c, 0, 64, 67
1, 231365, Note_on_c, 0, 67, 28
1, 231371, Control_c, 0, 64, 61
1, 231386, Control_c, 0, 64, 58
1, 231401, Control_c, 0, 64, 60
1, 231416, Control_c, 0, 64, 62
1, 231431, Control_c, 0, 64, 65
1, 231445, Control_c, 0, 64, 68
1, 231460, Control_c, 0, 64, 73
1, 231475, Control_c, 0, 64, 78
1, 231490, Control_c, 0, 64, 83
1, 231505, Note_off_c, 0, 75, 61
1, 231505, Control_c, 0, 64, 86
1, 231506, Note_off_c, 0, 60, 26
1, 231526, Control_c, 0, 64, 88
1, 231541, Control_c, 0, 64, 91
1, 231556, Control_c, 0, 64, 94
1, 231571, Control_c, 0, 64, 95
1, 231576, Note_on_c, 0, 55, 33
1, 231586, Control_c, 0, 64, 95
1, 231600, Control_c, 0, 64, 96
1, 231614, Control_c, 0, 64, 96
1, 231619, Note_off_c, 0, 55, 48
1, 231713, Note_on_c, 0, 55, 44
1, 231760, Note_off_c, 0, 55, 60
1, 231791, Note_off_c, 0, 67, 33
1, 231842, Note_on_c, 0, 74, 59
1, 231872, Note_on_c, 0, 55, 42
1, 231912, Note_off_c, 0, 55, 58
1, 232010, Note_off_c, 0, 74, 54
1, 232012, Note_on_c, 0, 55, 46
1, 232047, Note_off_c, 0, 55, 56
1, 232158, Note_on_c, 0, 72, 62
1, 232164, Note_on_c, 0, 55, 41
1, 232208, Control_c, 0, 64, 94
1, 232209, Note_off_c, 0, 55, 56
1, 232222, Control_c, 0, 64, 91
1, 232237, Control_c, 0, 64, 81
1, 232252, Control_c, 0, 64, 71
1, 232274, Note_off_c, 0, 72, 54
1, 232274, Control_c, 0, 64, 64
1, 232289, Control_c, 0, 64, 62
1, 232298, Note_on_c, 0, 71, 66
1, 232304, Control_c, 0, 64, 64
1, 232311, Note_on_c, 0, 55, 42
1, 232319, Control_c, 0, 64, 67
1, 232334, Control_c, 0, 64, 73
1, 232348, Control_c, 0, 64, 80
1, 232354, Note_off_c, 0, 55, 47
1, 232363, Control_c, 0, 64, 89
1, 232378, Control_c, 0, 64, 95
1, 232393, Control_c, 0, 64, 99
1, 232405, Note_off_c, 0, 71, 62
1, 232408, Control_c, 0, 64, 100
1, 232422, Control_c, 0, 64, 102
1, 232437, Control_c, 0, 64, 102
1, 232452, Control_c, 0, 64, 103
1, 232467, Control_c, 0, 64, 104
1, 232473, Note_on_c, 0, 55, 51
1, 232482, Control_c, 0, 64, 104
1, 232496, Control_c, 0, 64, 105
1, 232513, Note_off_c, 0, 55, 62
1, 232609, Note_on_c, 0, 55, 47
1, 232644, Control_c, 0, 64, 105
1, 232665, Note_off_c, 0, 55, 59
1, 232734, Control_c, 0, 64, 105
1, 232744, Note_on_c, 0, 71, 63
1, 232745, Note_on_c, 0, 68, 55
1, 232749, Control_c, 0, 64, 102
1, 232764, Note_on_c, 0, 55, 47
1, 232764, Control_c, 0, 64, 97
1, 232779, Control_c, 0, 64, 87
1, 232793, Control_c, 0, 64, 75
1, 232808, Control_c, 0, 64, 71
1, 232814, Note_off_c, 0, 55, 59
1, 232823, Control_c, 0, 64, 73
1, 232838, Control_c, 0, 64, 77
1, 232852, Control_c, 0, 64, 82
1, 232867, Control_c, 0, 64, 87
1, 232882, Control_c, 0, 64, 93
1, 232885, Note_off_c, 0, 71, 56
1, 232897, Control_c, 0, 64, 97
1, 232906, Note_on_c, 0, 55, 54
1, 232912, Control_c, 0, 64, 97
1, 232919, Note_off_c, 0, 68, 48
1, 232951, Note_off_c, 0, 55, 59
1, 232975, Note_on_c, 0, 67, 66
1, 233034, Note_off_c, 0, 67, 60
1, 233057, Note_on_c, 0, 55, 62
1, 233124, Note_off_c, 0, 55, 58
1, 233157, Control_c, 0, 64, 94
1, 233171, Control_c, 0, 64, 85
1, 233186, Control_c, 0, 64, 73
1, 233187, Note_on_c, 0, 72, 68
1, 233195, Note_on_c, 0, 65, 59
1, 233201, Control_c, 0, 64, 66
1, 233216, Note_on_c, 0, 55, 54
1, 233216, Control_c, 0, 64, 65
1, 233231, Control_c, 0, 64, 68
1, 233246, Control_c, 0, 64, 72
1, 233256, Note_off_c, 0, 55, 63
1, 233261, Control_c, 0, 64, 78
1, 233276, Control_c, 0, 64, 84
1, 233291, Control_c, 0, 64, 90
1, 233306, Control_c, 0, 64, 93
1, 233311, Note_off_c, 0, 65, 56
1, 233320, Control_c, 0, 64, 93
1, 233331, Note_off_c, 0, 72, 56
1, 233351, Note_on_c, 0, 55, 56
1, 233387, Note_off_c, 0, 55, 63
1, 233410, Note_on_c, 0, 63, 65
1, 233424, Control_c, 0, 64, 94
1, 233482, Note_on_c, 0, 55, 53
1, 233487, Note_off_c, 0, 63, 62
1, 233514, Control_c, 0, 64, 93
1, 233514, Note_off_c, 0, 55, 64
1, 233617, Control_c, 0, 64, 93
1, 233624, Note_on_c, 0, 55, 50
1, 233632, Control_c, 0, 64, 91
1, 233637, Note_on_c, 0, 77, 67
1, 233639, Note_on_c, 0, 62, 54
1, 233647, Control_c, 0, 64, 86
1, 233662, Control_c, 0, 64, 76
1, 233676, Control_c, 0, 64, 66
1, 233690, Note_off_c, 0, 55, 58
1, 233691, Control_c, 0, 64, 60
1, 233706, Control_c, 0, 64, 59
1, 233721, Control_c, 0, 64, 63
1, 233736, Control_c, 0, 64, 66
1, 233750, Control_c, 0, 64, 71
1, 233773, Control_c, 0, 64, 80
1, 233788, Control_c, 0, 64, 90
1, 233802, Control_c, 0, 64, 97
1, 233817, Control_c, 0, 64, 100
1, 233823, Note_on_c, 0, 55, 51
1, 233832, Control_c, 0, 64, 101
1, 233847, Control_c, 0, 64, 102
1, 233857, Note_off_c, 0, 62, 31
1, 233876, Control_c, 0, 64, 102
1, 233881, Note_off_c, 0, 55, 53
1, 233891, Control_c, 0, 64, 103
1, 233906, Control_c, 0, 64, 104
1, 233921, Control_c, 0, 64, 105
1, 233929, Note_on_c, 0, 60, 51
1, 233936, Control_c, 0, 64, 107
1, 233950, Control_c, 0, 64, 108
1, 233962, Note_off_c, 0, 77, 44
1, 233965, Control_c, 0, 64, 109
1, 233969, Note_off_c, 0, 60, 64
1, 234017, Note_on_c, 0, 75, 56
1, 234024, Control_c, 0, 64, 110
1, 234039, Control_c, 0, 64, 111
1, 234054, Control_c, 0, 64, 112
1, 234069, Control_c, 0, 64, 113
1, 234087, Note_off_c, 0, 75, 46
1, 234108, Note_on_c, 0, 68, 59
1, 234217, Control_c, 0, 64, 111
1, 234228, Note_off_c, 0, 68, 47
1, 234232, Control_c, 0, 64, 105
1, 234247, Control_c, 0, 64, 94
1, 234259, Note_on_c, 0, 55, 39
1, 234262, Control_c, 0, 64, 81
1, 234265, Note_on_c, 0, 74, 50
1, 234275, Note_on_c, 0, 67, 44
1, 234277, Control_c, 0, 64, 67
1, 234292, Control_c, 0, 64, 61
1, 234307, Control_c, 0, 64, 58
1, 234322, Control_c, 0, 64, 60
1, 234337, Control_c, 0, 64, 63
1, 234352, Control_c, 0, 64, 66
1, 234363, Note_off_c, 0, 55, 52
1, 234366, Control_c, 0, 64, 73
1, 234381, Control_c, 0, 64, 81
1, 234396, Control_c, 0, 64, 91
1, 234410, Control_c, 0, 64, 100
1, 234425, Control_c, 0, 64, 107
1, 234440, Control_c, 0, 64, 114
1, 234452, Note_on_c, 0, 55, 44
1, 234455, Control_c, 0, 64, 127
1, 234521, Note_off_c, 0, 55, 56
1, 234612, Note_on_c, 0, 55, 45
1, 234649, Note_off_c, 0, 55, 59
1, 234743, Note_on_c, 0, 55, 49
1, 234790, Note_off_c, 0, 55, 58
1, 234891, Note_on_c, 0, 55, 54
1, 234933, Note_off_c, 0, 55, 62
1, 235036, Note_on_c, 0, 55, 57
1, 235070, Note_off_c, 0, 55, 65
1, 235174, Control_c, 0, 64, 118
1, 235185, Note_on_c, 0, 55, 50
1, 235188, Control_c, 0, 64, 103
1, 235203, Control_c, 0, 64, 82
1, 235218, Control_c, 0, 64, 69
1, 235232, Control_c, 0, 64, 63
1, 235247, Control_c, 0, 64, 65
1, 235270, Control_c, 0, 64, 67
1, 235285, Control_c, 0, 64, 70
1, 235300, Control_c, 0, 64, 75
1, 235314, Control_c, 0, 64, 83
1, 235324, Note_on_c, 0, 56, 55
1, 235329, Control_c, 0, 64, 88
1, 235342, Note_off_c, 0, 55, 43
1, 235344, Control_c, 0, 64, 90
1, 235364, Note_off_c, 0, 74, 56
1, 235389, Note_off_c, 0, 56, 49
1, 235398, Note_off_c, 0, 67, 36
1, 235481, Note_on_c, 0, 57, 56
1, 235523, Note_on_c, 0, 74, 54
1, 235546, Note_off_c, 0, 74, 62
1, 235553, Note_off_c, 0, 57, 55
1, 235595, Control_c, 0, 64, 91
1, 235610, Control_c, 0, 64, 91
1, 235625, Note_on_c, 0, 58, 69
1, 235625, Control_c, 0, 64, 92
1, 235640, Control_c, 0, 64, 93
1, 235655, Control_c, 0, 64, 93
1, 235669, Control_c, 0, 64, 94
1, 235672, Note_on_c, 0, 74, 67
1, 235681, Note_off_c, 0, 58, 58
1, 235684, Control_c, 0, 64, 95
1, 235699, Control_c, 0, 64, 97
1, 235714, Control_c, 0, 64, 98
1, 235722, Note_off_c, 0, 74, 59
1, 235729, Control_c, 0, 64, 99
1, 235744, Control_c, 0, 64, 100
1, 235759, Control_c, 0, 64, 101
1, 235773, Control_c, 0, 64, 102
1, 235788, Control_c, 0, 64, 102
1, 235801, Note_on_c, 0, 58, 63
1, 235831, Note_off_c, 0, 58, 64
1, 235847, Control_c, 0, 64, 103
1, 235920, Note_on_c, 0, 58, 72
1, 235937, Control_c, 0, 64, 103
1, 235947, Note_off_c, 0, 58, 68
1, 235952, Control_c, 0, 64, 104
1, 235981, Control_c, 0, 64, 104
1, 235996, Note_on_c, 0, 75, 67
1, 235996, Control_c, 0, 64, 105
1, 236047, Note_off_c, 0, 75, 57
1, 236048, Control_c, 0, 64, 103
1, 236063, Control_c, 0, 64, 93
1, 236078, Control_c, 0, 64, 78
1, 236093, Control_c, 0, 64, 65
1, 236099, Note_on_c, 0, 77, 90
1, 236108, Control_c, 0, 64, 57
1, 236109, Note_on_c, 0, 65, 78
1, 236112, Note_on_c, 0, 58, 68
1, 236114, Note_on_c, 0, 74, 56
1, 236123, Control_c, 0, 64, 58
1, 236137, Control_c, 0, 64, 61
1, 236152, Control_c, 0, 64, 65
1, 236162, Note_off_c, 0, 58, 57
1, 236167, Control_c, 0, 64, 70
1, 236182, Control_c, 0, 64, 79
1, 236196, Control_c, 0, 64, 91
1, 236211, Note_off_c, 0, 74, 60
1, 236211, Control_c, 0, 64, 99
1, 236226, Control_c, 0, 64, 102
1, 236234, Note_off_c, 0, 65, 51
1, 236241, Control_c, 0, 64, 104
1, 236251, Note_off_c, 0, 77, 57
1, 236279, Note_on_c, 0, 58, 59
1, 236318, Note_off_c, 0, 58, 63
1, 236424, Note_on_c, 0, 58, 56
1, 236456, Note_off_c, 0, 58, 62
1, 236552, Control_c, 0, 64, 102
1, 236567, Control_c, 0, 64, 98
1, 236576, Note_on_c, 0, 77, 82
1, 236581, Note_on_c, 0, 65, 73
1, 236581, Note_on_c, 0, 74, 72
1, 236582, Control_c, 0, 64, 88
1, 236585, Note_on_c, 0, 57, 65
1, 236585, Note_on_c, 0, 58, 57
1, 236596, Control_c, 0, 64, 76
1, 236611, Control_c, 0, 64, 65
1, 236626, Control_c, 0, 64, 61
1, 236641, Control_c, 0, 64, 62
1, 236656, Control_c, 0, 64, 64
1, 236671, Note_off_c, 0, 58, 58
1, 236671, Control_c, 0, 64, 67
1, 236674, Note_off_c, 0, 57, 62
1, 236686, Control_c, 0, 64, 72
1, 236701, Control_c, 0, 64, 82
1, 236716, Control_c, 0, 64, 92
1, 236731, Control_c, 0, 64, 100
1, 236746, Control_c, 0, 64, 107
1, 236751, Note_off_c, 0, 74, 55
1, 236752, Note_off_c, 0, 65, 51
1, 236766, Note_on_c, 0, 57, 69
1, 236767, Control_c, 0, 64, 115
1, 236776, Note_on_c, 0, 58, 53
1, 236782, Control_c, 0, 64, 127
1, 236799, Note_off_c, 0, 77, 57
1, 236813, Note_off_c, 0, 58, 63
1, 236832, Note_off_c, 0, 57, 64
1, 236901, Note_on_c, 0, 58, 75
1, 236902, Note_on_c, 0, 57, 75
1, 236963, Note_off_c, 0, 57, 64
1, 236963, Note_off_c, 0, 58, 61
1, 237050, Control_c, 0, 64, 90
1, 237050, Note_on_c, 0, 77, 92
1, 237054, Note_on_c, 0, 65, 83
1, 237055, Note_on_c, 0, 74, 82
1, 237061, Note_on_c, 0, 56, 76
1, 237064, Control_c, 0, 64, 70
1, 237067, Note_on_c, 0, 58, 66
1, 237079, Control_c, 0, 64, 60
1, 237094, Control_c, 0, 64, 62
1, 237109, Control_c, 0, 64, 65
1, 237124, Control_c, 0, 64, 69
1, 237135, Note_off_c, 0, 56, 62
1, 237139, Control_c, 0, 64, 77
1, 237142, Note_off_c, 0, 58, 55
1, 237154, Control_c, 0, 64, 90
1, 237168, Control_c, 0, 64, 117
1, 237170, Note_off_c, 0, 65, 60
1, 237183, Control_c, 0, 64, 127
1, 237199, Note_off_c, 0, 77, 64
1, 237204, Note_off_c, 0, 74, 63
1, 237220, Note_on_c, 0, 56, 76
1, 237225, Note_on_c, 0, 58, 63
1, 237273, Note_off_c, 0, 58, 61
1, 237280, Note_off_c, 0, 56, 63
1, 237351, Note_on_c, 0, 56, 76
1, 237361, Note_on_c, 0, 58, 72
1, 237414, Note_off_c, 0, 58, 60
1, 237428, Note_off_c, 0, 56, 60
1, 237480, Control_c, 0, 64, 92
1, 237495, Control_c, 0, 64, 73
1, 237501, Note_on_c, 0, 55, 73
1, 237501, Note_on_c, 0, 67, 87
1, 237501, Note_on_c, 0, 79, 88
1, 237503, Note_on_c, 0, 75, 82
1, 237505, Note_on_c, 0, 58, 65
1, 237517, Control_c, 0, 64, 67
1, 237532, Control_c, 0, 64, 73
1, 237547, Control_c, 0, 64, 87
1, 237562, Control_c, 0, 64, 119
1, 237569, Note_off_c, 0, 58, 54
1, 237569, Note_off_c, 0, 67, 63
1, 237577, Control_c, 0, 64, 127
1, 237580, Note_off_c, 0, 55, 62
1, 237586, Note_off_c, 0, 75, 64
1, 237593, Note_off_c, 0, 79, 66
1, 237647, Note_on_c, 0, 55, 79
1, 237664, Note_on_c, 0, 58, 63
1, 237702, Note_off_c, 0, 58, 54
1, 237729, Note_off_c, 0, 55, 59
1, 237798, Note_on_c, 0, 58, 66
1, 237801, Note_on_c, 0, 53, 68
1, 237803, Note_on_c, 0, 56, 70
1, 237805, Note_on_c, 0, 68, 79
1, 237808, Note_on_c, 0, 80, 96
1, 237810, Note_on_c, 0, 77, 85
1, 237836, Note_off_c, 0, 58, 54
1, 237846, Note_off_c, 0, 53, 63
1, 237850, Note_off_c, 0, 56, 57
1, 237857, Note_off_c, 0, 68, 64
1, 237858, Note_off_c, 0, 77, 63
1, 237890, Note_off_c, 0, 80, 64
1, 238006, Control_c, 0, 64, 103
1, 238012, Note_on_c, 0, 79, 82
1, 238013, Note_on_c, 0, 55, 76
1, 238014, Note_on_c, 0, 58, 74
1, 238015, Note_on_c, 0, 51, 77
1, 238015, Note_on_c, 0, 70, 90
1, 238015, Note_on_c, 0, 82, 92
1, 238021, Control_c, 0, 64, 72
1, 238035, Control_c, 0, 64, 50
1, 238050, Control_c, 0, 64, 0
1, 238109, Control_c, 0, 64, 40
1, 238124, Control_c, 0, 64, 62
1, 238139, Control_c, 0, 64, 69
1, 238144, Note_off_c, 0, 51, 63
1, 238150, Note_off_c, 0, 58, 60
1, 238154, Note_off_c, 0, 55, 61
1, 238154, Control_c, 0, 64, 78
1, 238169, Control_c, 0, 64, 90
1, 238183, Control_c, 0, 64, 111
1, 238187, Note_off_c, 0, 70, 58
1, 238198, Control_c, 0, 64, 127
1, 238229, Note_off_c, 0, 79, 63
1, 238233, Note_on_c, 0, 58, 62
1, 238245, Note_on_c, 0, 55, 56
1, 238247, Note_on_c, 0, 51, 62
1, 238299, Note_off_c, 0, 55, 61
1, 238299, Note_off_c, 0, 58, 59
1, 238302, Note_off_c, 0, 51, 60
1, 238398, Note_on_c, 0, 58, 48
1, 238401, Note_on_c, 0, 55, 52
1, 238402, Note_on_c, 0, 51, 52
1, 238417, Note_off_c, 0, 58, 65
1, 238423, Note_off_c, 0, 51, 61
1, 238424, Note_off_c, 0, 55, 60
1, 238518, Control_c, 0, 64, 113
1, 238528, Note_on_c, 0, 80, 79
1, 238532, Note_on_c, 0, 74, 71
1, 238533, Control_c, 0, 64, 82
1, 238534, Note_on_c, 0, 77, 71
1, 238537, Note_off_c, 0, 82, 61
1, 238545, Note_on_c, 0, 53, 57
1, 238545, Note_on_c, 0, 56, 54
1, 238547, Note_on_c, 0, 47, 46
1, 238547, Control_c, 0, 64, 64
1, 238562, Control_c, 0, 64, 43
1, 238577, Control_c, 0, 64, 44
1, 238591, Note_off_c, 0, 56, 61
1, 238591, Control_c, 0, 64, 50
1, 238606, Control_c, 0, 64, 58
1, 238613, Note_off_c, 0, 47, 40
1, 238621, Note_off_c, 0, 53, 58
1, 238621, Control_c, 0, 64, 64
1, 238636, Control_c, 0, 64, 69
1, 238651, Control_c, 0, 64, 78
1, 238665, Control_c, 0, 64, 87
1, 238680, Control_c, 0, 64, 93
1, 238695, Control_c, 0, 64, 96
1, 238697, Note_on_c, 0, 56, 53
1, 238699, Note_on_c, 0, 53, 53
1, 238710, Control_c, 0, 64, 99
1, 238713, Note_on_c, 0, 47, 47
1, 238725, Control_c, 0, 64, 104
1, 238735, Note_off_c, 0, 56, 59
1, 238740, Control_c, 0, 64, 105
1, 238745, Note_off_c, 0, 47, 59
1, 238748, Note_off_c, 0, 53, 61
1, 238759, Note_off_c, 0, 77, 56
1, 238799, Control_c, 0, 64, 106
1, 238811, Note_off_c, 0, 80, 56
1, 238814, Control_c, 0, 64, 106
1, 238829, Control_c, 0, 64, 107
1, 238830, Note_on_c, 0, 47, 60
1, 238833, Note_on_c, 0, 56, 54
1, 238843, Note_on_c, 0, 53, 64
1, 238844, Control_c, 0, 64, 109
1, 238858, Control_c, 0, 64, 115
1, 238873, Control_c, 0, 64, 127
1, 238874, Note_off_c, 0, 47, 59
1, 238880, Note_off_c, 0, 53, 60
1, 238884, Note_off_c, 0, 56, 57
1, 238907, Note_off_c, 0, 74, 59
1, 238976, Control_c, 0, 64, 93
1, 238988, Note_on_c, 0, 48, 57
1, 238989, Note_on_c, 0, 51, 63
1, 238991, Control_c, 0, 64, 70
1, 238994, Note_on_c, 0, 55, 59
1, 238996, Note_on_c, 0, 75, 77
1, 238998, Note_on_c, 0, 79, 80
1, 239014, Control_c, 0, 64, 57
1, 239029, Control_c, 0, 64, 56
1, 239044, Control_c, 0, 64, 62
1, 239059, Control_c, 0, 64, 65
1, 239062, Note_off_c, 0, 48, 51
1, 239074, Note_off_c, 0, 51, 61
1, 239074, Control_c, 0, 64, 71
1, 239086, Note_off_c, 0, 55, 58
1, 239089, Control_c, 0, 64, 82
1, 239103, Control_c, 0, 64, 98
1, 239104, Note_off_c, 0, 75, 63
1, 239105, Note_off_c, 0, 79, 66
1, 239118, Control_c, 0, 64, 113
1, 239133, Control_c, 0, 64, 116
1, 239162, Control_c, 0, 64, 117
1, 239167, Note_on_c, 0, 55, 60
1, 239169, Note_on_c, 0, 48, 57
1, 239173, Note_on_c, 0, 51, 69
1, 239177, Control_c, 0, 64, 127
1, 239205, Note_off_c, 0, 48, 62
1, 239213, Note_off_c, 0, 51, 63
1, 239226, Note_off_c, 0, 55, 58
1, 239308, Note_on_c, 0, 48, 67
1, 239308, Note_on_c, 0, 55, 65
1, 239317, Note_on_c, 0, 51, 73
1, 239345, Note_off_c, 0, 55, 65
1, 239345, Note_off_c, 0, 51, 67
1, 239347, Note_off_c, 0, 48, 64
1, 239501, Note_on_c, 0, 44, 70
1, 239504, Note_on_c, 0, 53, 70
1, 239505, Note_on_c, 0, 77, 99
1, 239509, Note_on_c, 0, 65, 85
1, 239518, Control_c, 0, 64, 90
1, 239533, Control_c, 0, 64, 68
1, 239548, Control_c, 0, 64, 57
1, 239562, Control_c, 0, 64, 60
1, 239577, Control_c, 0, 64, 65
1, 239592, Control_c, 0, 64, 71
1, 239606, Control_c, 0, 64, 85
1, 239607, Note_off_c, 0, 53, 59
1, 239615, Note_off_c, 0, 44, 57
1, 239621, Control_c, 0, 64, 127
1, 239666, Note_off_c, 0, 77, 60
1, 239685, Note_off_c, 0, 65, 58
1, 239693, Note_on_c, 0, 46, 74
1, 239709, Note_on_c, 0, 53, 65
1, 239749, Note_off_c, 0, 53, 59
1, 239772, Note_off_c, 0, 46, 59
1, 239829, Note_on_c, 0, 44, 74
1, 239833, Note_on_c, 0, 53, 72
1, 239870, Note_off_c, 0, 53, 56
1, 239891, Note_on_c, 0, 74, 83
1, 239898, Note_off_c, 0, 44, 61
1, 239953, Note_off_c, 0, 74, 61
1, 239985, Control_c, 0, 64, 98
1, 239986, Note_on_c, 0, 43, 73
1, 239990, Note_on_c, 0, 67, 80
1, 239991, Note_on_c, 0, 71, 88
1, 239992, Note_on_c, 0, 53, 71
1, 239993, Note_on_c, 0, 62, 80
1, 240000, Control_c, 0, 64, 71
1, 240015, Control_c, 0, 64, 56
1, 240030, Control_c, 0, 64, 48
1, 240044, Control_c, 0, 64, 53
1, 240059, Control_c, 0, 64, 59
1, 240070, Note_off_c, 0, 53, 57
1, 240074, Control_c, 0, 64, 65
1, 240078, Note_off_c, 0, 43, 56
1, 240089, Control_c, 0, 64, 70
1, 240104, Control_c, 0, 64, 79
1, 240118, Control_c, 0, 64, 87
1, 240133, Control_c, 0, 64, 91
1, 240148, Control_c, 0, 64, 92
1, 240162, Note_on_c, 0, 44, 67
1, 240178, Control_c, 0, 64, 93
1, 240186, Note_on_c, 0, 53, 54
1, 240192, Control_c, 0, 64, 94
1, 240203, Note_off_c, 0, 62, 54
1, 240207, Note_off_c, 0, 44, 59
1, 240218, Note_off_c, 0, 53, 60
1, 240229, Note_off_c, 0, 71, 48
1, 240256, Note_off_c, 0, 67, 51
1, 240266, Control_c, 0, 64, 95
1, 240281, Control_c, 0, 64, 96
1, 240293, Note_on_c, 0, 43, 75
1, 240296, Control_c, 0, 64, 97
1, 240311, Control_c, 0, 64, 99
1, 240326, Control_c, 0, 64, 102
1, 240340, Control_c, 0, 64, 107
1, 240343, Note_off_c, 0, 43, 61
1, 240355, Control_c, 0, 64, 119
1, 240370, Control_c, 0, 64, 127
1, 240429, Control_c, 0, 64, 85
1, 240437, Note_on_c, 0, 71, 88
1, 240444, Note_on_c, 0, 43, 80
1, 240444, Note_on_c, 0, 62, 77
1, 240444, Control_c, 0, 64, 66
1, 240446, Note_on_c, 0, 67, 71
1, 240455, Note_on_c, 0, 41, 71
1, 240459, Control_c, 0, 64, 58
1, 240474, Control_c, 0, 64, 62
1, 240489, Control_c, 0, 64, 66
1, 240510, Control_c, 0, 64, 73
1, 240523, Note_off_c, 0, 43, 58
1, 240525, Control_c, 0, 64, 92
1, 240531, Note_off_c, 0, 41, 62
1, 240540, Control_c, 0, 64, 127
1, 240612, Note_on_c, 0, 43, 65
1, 240629, Note_off_c, 0, 67, 53
1, 240650, Note_off_c, 0, 43, 59
1, 240742, Note_on_c, 0, 43, 62
1, 240748, Note_on_c, 0, 41, 63
1, 240758, Note_off_c, 0, 71, 54
1, 240779, Note_off_c, 0, 43, 63
1, 240780, Note_off_c, 0, 62, 60
1, 240782, Note_off_c, 0, 41, 64
1, 240804, Note_on_c, 0, 68, 81
1, 240855, Note_off_c, 0, 68, 63
1, 240882, Control_c, 0, 64, 89
1, 240894, Note_on_c, 0, 43, 66
1, 240894, Note_on_c, 0, 72, 93
1, 240897, Note_on_c, 0, 67, 85
1, 240897, Control_c, 0, 64, 65
1, 240898, Note_on_c, 0, 60, 85
1, 240900, Note_on_c, 0, 39, 76
1, 240912, Control_c, 0, 64, 46
1, 240926, Control_c, 0, 64, 49
1, 240941, Control_c, 0, 64, 58
1, 240956, Control_c, 0, 64, 64
1, 240971, Control_c, 0, 64, 71
1, 240986, Control_c, 0, 64, 90
1, 240993, Note_off_c, 0, 39, 59
1, 240993, Note_off_c, 0, 43, 58
1, 241001, Control_c, 0, 64, 127
1, 241003, Note_off_c, 0, 60, 61
1, 241031, Note_off_c, 0, 72, 64
1, 241035, Note_off_c, 0, 67, 63
1, 241053, Note_on_c, 0, 41, 79
1, 241076, Note_on_c, 0, 43, 40
1, 241108, Note_off_c, 0, 43, 63
1, 241119, Note_off_c, 0, 41, 63
1, 241187, Note_on_c, 0, 43, 63
1, 241191, Note_on_c, 0, 39, 78
1, 241238, Note_off_c, 0, 43, 57
1, 241243, Note_off_c, 0, 39, 60
1, 241333, Control_c, 0, 64, 111
1, 241344, Note_on_c, 0, 31, 82
1, 241344, Note_on_c, 0, 75, 98
1, 241345, Note_on_c, 0, 43, 84
1, 241348, Note_on_c, 0, 65, 88
1, 241349, Note_on_c, 0, 71, 88
1, 241349, Control_c, 0, 64, 72
1, 241364, Control_c, 0, 64, 42
1, 241379, Control_c, 0, 64, 25
1, 241394, Control_c, 0, 64, 44
1, 241408, Control_c, 0, 64, 57
1, 241423, Control_c, 0, 64, 65
1, 241437, Note_off_c, 0, 43, 60
1, 241438, Control_c, 0, 64, 75
1, 241446, Note_off_c, 0, 31, 53
1, 241453, Control_c, 0, 64, 99
1, 241469, Control_c, 0, 64, 127
1, 241482, Note_off_c, 0, 75, 61
1, 241539, Note_on_c, 0, 32, 75
1, 241542, Note_on_c, 0, 43, 80
1, 241607, Note_off_c, 0, 43, 61
1, 241612, Note_off_c, 0, 32, 61
1, 241702, Note_on_c, 0, 31, 82
1, 241703, Note_on_c, 0, 43, 86
1, 241743, Note_off_c, 0, 31, 63
1, 241749, Note_off_c, 0, 71, 0
1, 241751, Note_off_c, 0, 65, 59
1, 241759, Note_on_c, 0, 74, 90
1, 241761, Note_off_c, 0, 43, 63
1, 241770, Note_on_c, 0, 71, 27
1, 241800, Note_off_c, 0, 71, 51
1, 241849, Note_off_c, 0, 74, 66
1, 241898, Control_c, 0, 64, 91
1, 241913, Control_c, 0, 64, 56
1, 241928, Note_on_c, 0, 43, 85
1, 241928, Note_on_c, 0, 48, 91
1, 241928, Note_on_c, 0, 72, 96
1, 241928, Control_c, 0, 64, 0
1, 241930, Note_on_c, 0, 63, 86
1, 241936, Note_on_c, 0, 36, 76
1, 241972, Control_c, 0, 64, 13
1, 241987, Control_c, 0, 64, 60
1, 242009, Control_c, 0, 64, 75
1, 242013, Note_off_c, 0, 36, 62
1, 242024, Control_c, 0, 64, 106
1, 242033, Note_off_c, 0, 43, 61
1, 242039, Control_c, 0, 64, 127
1, 242053, Note_off_c, 0, 48, 60
1, 242184, Note_on_c, 0, 50, 83
1, 242258, Note_off_c, 0, 50, 61
1, 242327, Note_on_c, 0, 48, 89
1, 242387, Note_off_c, 0, 48, 63
1, 242453, Control_c, 0, 64, 119
1, 242468, Control_c, 0, 64, 72
1, 242469, Note_on_c, 0, 46, 95
1, 242483, Control_c, 0, 64, 58
1, 242498, Control_c, 0, 64, 60
1, 242512, Control_c, 0, 64, 65
1, 242527, Control_c, 0, 64, 71
1, 242542, Control_c, 0, 64, 82
1, 242557, Control_c, 0, 64, 114
1, 242571, Control_c, 0, 64, 127
1, 242574, Note_off_c, 0, 46, 56
1, 242625, Note_on_c, 0, 48, 81
1, 242695, Note_off_c, 0, 63, 49
1, 242701, Note_off_c, 0, 48, 60
1, 242718, Note_off_c, 0, 72, 33
1, 242768, Note_on_c, 0, 46, 83
1, 242842, Note_off_c, 0, 46, 63
1, 242917, Note_on_c, 0, 44, 86
1, 242919, Control_c, 0, 64, 91
1, 242921, Note_on_c, 0, 48, 89
1, 242934, Control_c, 0, 64, 62
1, 242949, Control_c, 0, 64, 27
1, 242964, Control_c, 0, 64, 39
1, 242979, Control_c, 0, 64, 52
1, 242993, Control_c, 0, 64, 61
1, 243008, Note_off_c, 0, 44, 63
1, 243008, Note_off_c, 0, 48, 61
1, 243008, Control_c, 0, 64, 68
1, 243023, Control_c, 0, 64, 79
1, 243038, Control_c, 0, 64, 101
1, 243053, Control_c, 0, 64, 127
1, 243074, Note_on_c, 0, 46, 77
1, 243089, Note_on_c, 0, 48, 62
1, 243132, Note_off_c, 0, 46, 63
1, 243154, Note_off_c, 0, 48, 59
1, 243211, Note_on_c, 0, 48, 63
1, 243214, Note_on_c, 0, 44, 77
1, 243274, Note_off_c, 0, 48, 61
1, 243277, Note_off_c, 0, 44, 60
1, 243335, Control_c, 0, 64, 93
1, 243350, Control_c, 0, 64, 69
1, 243354, Note_on_c, 0, 43, 79
1, 243364, Note_on_c, 0, 72, 90
1, 243365, Control_c, 0, 64, 60
1, 243367, Note_on_c, 0, 48, 63
1, 243369, Note_on_c, 0, 60, 84
1, 243380, Control_c, 0, 64, 64
1, 243395, Control_c, 0, 64, 68
1, 243403, Note_off_c, 0, 60, 61
1, 243409, Control_c, 0, 64, 77
1, 243415, Note_off_c, 0, 48, 46
1, 243419, Note_off_c, 0, 72, 62
1, 243424, Control_c, 0, 64, 95
1, 243428, Note_off_c, 0, 43, 62
1, 243439, Control_c, 0, 64, 127
1, 243518, Note_on_c, 0, 44, 81
1, 243522, Note_on_c, 0, 72, 95
1, 243524, Note_on_c, 0, 48, 63
1, 243525, Note_on_c, 0, 60, 90
1, 243569, Note_off_c, 0, 60, 60
1, 243574, Note_off_c, 0, 48, 57
1, 243586, Note_off_c, 0, 72, 60
1, 243587, Note_off_c, 0, 44, 61
1, 243663, Note_on_c, 0, 43, 85
1, 243667, Note_on_c, 0, 72, 94
1, 243673, Note_on_c, 0, 60, 69
1, 243681, Note_on_c, 0, 48, 68
1, 243688, Note_off_c, 0, 60, 70
1, 243703, Note_off_c, 0, 72, 65
1, 243720, Note_off_c, 0, 48, 58
1, 243747, Note_off_c, 0, 43, 58
1, 243847, Note_on_c, 0, 72, 89
1, 243852, Note_on_c, 0, 80, 95
1, 243854, Note_on_c, 0, 84, 90
1, 243858, Note_on_c, 0, 41, 85
1, 243861, Note_on_c, 0, 48, 81
1, 243862, Control_c, 0, 64, 75
1, 243864, Note_on_c, 0, 83, 83
1, 243864, Note_on_c, 0, 74, 80
1, 243876, Control_c, 0, 64, 49
1, 243882, Note_off_c, 0, 74, 54
1, 243891, Control_c, 0, 64, 32
1, 243906, Control_c, 0, 64, 49
1, 243921, Control_c, 0, 64, 60
1, 243936, Control_c, 0, 64, 68
1, 243950, Control_c, 0, 64, 80
1, 243964, Poly_aftertouch_c, 0, 74, 127
1, 243965, Note_off_c, 0, 41, 62
1, 243965, Control_c, 0, 64, 127
1, 243977, Note_off_c, 0, 48, 56
1, 243980, Note_off_c, 0, 83, 22
1, 244020, Note_on_c, 0, 43, 71
1, 244042, Note_on_c, 0, 48, 30
1, 244072, Note_off_c, 0, 48, 56
1, 244087, Note_off_c, 0, 43, 61
1, 244157, Note_on_c, 0, 41, 72
1, 244221, Note_off_c, 0, 41, 57
1, 244284, Control_c, 0, 64, 113
1, 244299, Note_on_c, 0, 44, 90
1, 244299, Control_c, 0, 64, 77
1, 244305, Note_on_c, 0, 48, 70
1, 244314, Control_c, 0, 64, 62
1, 244329, Control_c, 0, 64, 59
1, 244344, Control_c, 0, 64, 66
1, 244358, Control_c, 0, 64, 71
1, 244373, Control_c, 0, 64, 81
1, 244379, Note_off_c, 0, 44, 63
1, 244387, Note_off_c, 0, 48, 58
1, 244388, Control_c, 0, 64, 107
1, 244403, Control_c, 0, 64, 127
1, 244451, Note_on_c, 0, 46, 83
1, 244468, Note_on_c, 0, 48, 41
1, 244500, Note_off_c, 0, 48, 52
1, 244508, Note_off_c, 0, 46, 63
1, 244585, Note_on_c, 0, 44, 85
1, 244591, Note_on_c, 0, 48, 65
1, 244624, Note_off_c, 0, 48, 60
1, 244642, Note_off_c, 0, 44, 62
1, 244685, Control_c, 0, 64, 100
1, 244699, Control_c, 0, 64, 72
1, 244714, Control_c, 0, 64, 60
1, 244719, Note_on_c, 0, 43, 91
1, 244729, Control_c, 0, 64, 64
1, 244734, Note_on_c, 0, 48, 67
1, 244744, Control_c, 0, 64, 69
1, 244758, Note_off_c, 0, 84, 62
1, 244759, Control_c, 0, 64, 80
1, 244763, Note_off_c, 0, 48, 66
1, 244769, Poly_aftertouch_c, 0, 74, 0
1, 244773, Control_c, 0, 64, 105
1, 244784, Note_off_c, 0, 80, 61
1, 244788, Control_c, 0, 64, 127
1, 244797, Note_off_c, 0, 72, 64
1, 244804, Note_off_c, 0, 43, 60
1, 244871, Note_on_c, 0, 44, 81
1, 244884, Note_on_c, 0, 48, 54
1, 244920, Note_off_c, 0, 48, 60
1, 244946, Note_off_c, 0, 44, 62
1, 245018, Note_on_c, 0, 43, 86
1, 245032, Note_on_c, 0, 48, 59
1, 245061, Note_off_c, 0, 48, 65
1, 245086, Note_off_c, 0, 43, 61
1, 245152, Control_c, 0, 64, 88
1, 245161, Note_on_c, 0, 41, 89
1, 245167, Control_c, 0, 64, 64
1, 245176, Note_on_c, 0, 48, 51
1, 245177, Note_on_c, 0, 72, 97
1, 245178, Note_on_c, 0, 60, 93
1, 245181, Control_c, 0, 64, 46
1, 245196, Control_c, 0, 64, 56
1, 245205, Note_off_c, 0, 48, 63
1, 245211, Control_c, 0, 64, 62
1, 245225, Note_off_c, 0, 60, 64
1, 245226, Control_c, 0, 64, 68
1, 245229, Note_off_c, 0, 41, 61
1, 245241, Control_c, 0, 64, 79
1, 245247, Note_off_c, 0, 72, 62
1, 245255, Control_c, 0, 64, 110
1, 245270, Control_c, 0, 64, 127
1, 245313, Note_on_c, 0, 43, 83
1, 245319, Note_on_c, 0, 60, 98
1, 245320, Note_on_c, 0, 72, 101
1, 245324, Note_on_c, 0, 48, 52
1, 245367, Note_off_c, 0, 48, 55
1, 245378, Note_off_c, 0, 60, 57
1, 245388, Note_off_c, 0, 43, 61
1, 245390, Note_off_c, 0, 72, 61
1, 245460, Note_on_c, 0, 41, 82
1, 245462, Note_on_c, 0, 60, 95
1, 245465, Note_on_c, 0, 72, 94
1, 245482, Note_off_c, 0, 60, 69
1, 245484, Note_on_c, 0, 48, 50
1, 245495, Note_off_c, 0, 41, 66
1, 245506, Note_off_c, 0, 72, 69
1, 245507, Note_off_c, 0, 48, 59
1, 245557, Poly_aftertouch_c, 0, 71, 0
1, 245652, Note_on_c, 0, 48, 70
1, 245653, Note_on_c, 0, 72, 92
1, 245654, Note_on_c, 0, 75, 97
1, 245655, Note_on_c, 0, 39, 86
1, 245656, Control_c, 0, 64, 81
1, 245657, Note_on_c, 0, 84, 89
1, 245663, Note_on_c, 0, 79, 82
1, 245669, Note_on_c, 0, 83, 76
1, 245670, Control_c, 0, 64, 58
1, 245685, Note_off_c, 0, 83, 42
1, 245685, Control_c, 0, 64, 0
1, 245712, Note_on_c, 0, 81, 12
1, 245715, Control_c, 0, 64, 38
1, 245730, Control_c, 0, 64, 61
1, 245752, Control_c, 0, 64, 71
1, 245767, Control_c, 0, 64, 90
1, 245768, Note_off_c, 0, 81, 47
1, 245774, Note_off_c, 0, 39, 59
1, 245778, Note_off_c, 0, 48, 62
1, 245782, Control_c, 0, 64, 127
1, 245842, Note_on_c, 0, 41, 72
1, 245885, Note_off_c, 0, 41, 64
1, 245977, Poly_aftertouch_c, 0, 48, 0
1, 245980, Note_on_c, 0, 39, 73
1, 245994, Note_on_c, 0, 48, 30
1, 246004, Note_off_c, 0, 39, 60
1, 246030, Note_off_c, 0, 48, 54
1, 246068, Poly_aftertouch_c, 0, 40, 127
1, 246119, Poly_aftertouch_c, 0, 40, 0
1, 246126, Note_on_c, 0, 43, 79
1, 246135, Note_on_c, 0, 48, 65
1, 246137, Control_c, 0, 64, 81
1, 246152, Control_c, 0, 64, 64
1, 246167, Control_c, 0, 64, 56
1, 246182, Control_c, 0, 64, 62
1, 246196, Control_c, 0, 64, 67
1, 246199, Note_off_c, 0, 43, 64
1, 246207, Note_off_c, 0, 48, 55
1, 246211, Control_c, 0, 64, 73
1, 246226, Control_c, 0, 64, 84
1, 246242, Control_c, 0, 64, 104
1, 246257, Control_c, 0, 64, 127
1, 246273, Note_on_c, 0, 44, 77
1, 246278, Note_on_c, 0, 48, 41
1, 246309, Note_off_c, 0, 48, 59
1, 246339, Note_off_c, 0, 44, 62
1, 246398, Note_on_c, 0, 43, 83
1, 246420, Note_on_c, 0, 48, 42
1, 246447, Note_off_c, 0, 48, 56
1, 246454, Note_off_c, 0, 43, 62
1, 246501, Control_c, 0, 64, 100
1, 246516, Control_c, 0, 64, 72
1, 246531, Control_c, 0, 64, 60
1, 246538, Note_on_c, 0, 41, 93
1, 246546, Control_c, 0, 64, 61
1, 246558, Note_on_c, 0, 48, 51
1, 246560, Control_c, 0, 64, 67
1, 246575, Control_c, 0, 64, 76
1, 246577, Note_off_c, 0, 84, 65
1, 246585, Note_off_c, 0, 48, 55
1, 246590, Control_c, 0, 64, 94
1, 246599, Note_off_c, 0, 72, 62
1, 246599, Note_off_c, 0, 79, 53
1, 246600, Note_off_c, 0, 75, 61
1, 246605, Control_c, 0, 64, 127
1, 246606, Note_off_c, 0, 41, 64
1, 246682, Note_on_c, 0, 43, 75
1, 246702, Note_on_c, 0, 48, 32
1, 246737, Note_off_c, 0, 48, 50
1, 246744, Note_off_c, 0, 43, 61
1, 246827, Note_on_c, 0, 41, 74
1, 246873, Note_off_c, 0, 41, 64
1, 246931, Control_c, 0, 64, 116
1, 246945, Control_c, 0, 64, 76
1, 246960, Control_c, 0, 64, 63
1, 246975, Control_c, 0, 64, 58
1, 246977, Note_on_c, 0, 72, 68
1, 246986, Note_on_c, 0, 60, 58
1, 246988, Note_on_c, 0, 39, 55
1, 246990, Control_c, 0, 64, 62
1, 247005, Control_c, 0, 64, 66
1, 247016, Note_on_c, 0, 48, 5
1, 247019, Control_c, 0, 64, 72
1, 247027, Note_off_c, 0, 60, 62
1, 247034, Control_c, 0, 64, 84
1, 247043, Note_off_c, 0, 39, 62
1, 247048, Note_off_c, 0, 72, 61
1, 247050, Control_c, 0, 64, 98
1, 247063, Note_off_c, 0, 48, 39
1, 247065, Control_c, 0, 64, 111
1, 247080, Control_c, 0, 64, 113
1, 247121, Note_on_c, 0, 41, 69
1, 247122, Note_on_c, 0, 72, 89
1, 247124, Control_c, 0, 64, 114
1, 247125, Note_on_c, 0, 60, 84
1, 247139, Control_c, 0, 64, 123
1, 247154, Control_c, 0, 64, 127
1, 247179, Note_off_c, 0, 41, 60
1, 247179, Note_off_c, 0, 60, 63
1, 247191, Note_off_c, 0, 72, 64
1, 247195, Poly_aftertouch_c, 0, 48, 0
1, 247226, Poly_aftertouch_c, 0, 48, 0
1, 247252, Note_on_c, 0, 48, 54
1, 247259, Note_on_c, 0, 39, 81
1, 247260, Note_on_c, 0, 72, 94
1, 247261, Note_on_c, 0, 60, 101
1, 247298, Note_off_c, 0, 48, 65
1, 247313, Note_off_c, 0, 60, 66
1, 247314, Note_on_c, 0, 65, 8
1, 247324, Note_on_c, 0, 67, 23
1, 247328, Note_off_c, 0, 39, 59
1, 247331, Note_off_c, 0, 72, 65
1, 247350, Note_off_c, 0, 65, 57
1, 247365, Note_off_c, 0, 67, 52
1, 247398, Control_c, 0, 64, 92
1, 247403, Note_on_c, 0, 61, 99
1, 247404, Note_on_c, 0, 65, 89
1, 247405, Note_on_c, 0, 73, 103
1, 247405, Note_on_c, 0, 37, 81
1, 247405, Note_on_c, 0, 44, 93
1, 247413, Control_c, 0, 64, 59
1, 247428, Control_c, 0, 64, 0
1, 247443, Control_c, 0, 64, 32
1, 247457, Control_c, 0, 64, 54
1, 247469, Note_off_c, 0, 44, 57
1, 247472, Control_c, 0, 64, 65
1, 247487, Control_c, 0, 64, 79
1, 247497, Note_off_c, 0, 37, 57
1, 247501, Control_c, 0, 64, 127
1, 247508, Note_off_c, 0, 61, 61
1, 247519, Note_off_c, 0, 73, 65
1, 247522, Note_off_c, 0, 65, 63
1, 247558, Note_on_c, 0, 39, 78
1, 247560, Note_on_c, 0, 44, 77
1, 247617, Note_off_c, 0, 44, 60
1, 247628, Note_off_c, 0, 39, 63
1, 247690, Note_on_c, 0, 44, 77
1, 247691, Note_on_c, 0, 36, 83
1, 247755, Note_off_c, 0, 36, 61
1, 247757, Note_off_c, 0, 44, 57
1, 247798, Control_c, 0, 64, 98
1, 247813, Control_c, 0, 64, 66
1, 247822, Note_on_c, 0, 77, 104
1, 247823, Note_on_c, 0, 65, 100
1, 247825, Note_on_c, 0, 44, 81
1, 247827, Control_c, 0, 64, 42
1, 247828, Note_on_c, 0, 37, 86
1, 247843, Control_c, 0, 64, 53
1, 247858, Control_c, 0, 64, 63
1, 247870, Note_off_c, 0, 65, 64
1, 247873, Control_c, 0, 64, 73
1, 247888, Control_c, 0, 64, 101
1, 247891, Note_off_c, 0, 77, 67
1, 247895, Note_off_c, 0, 44, 61
1, 247903, Control_c, 0, 64, 127
1, 247903, Note_off_c, 0, 37, 60
1, 247960, Note_on_c, 0, 39, 86
1, 247964, Note_on_c, 0, 44, 75
1, 248023, Note_off_c, 0, 44, 59
1, 248034, Note_off_c, 0, 39, 63
1, 248088, Note_on_c, 0, 41, 80
1, 248090, Note_on_c, 0, 44, 59
1, 248124, Note_off_c, 0, 44, 60
1, 248126, Note_on_c, 0, 80, 83
1, 248133, Note_on_c, 0, 68, 74
1, 248141, Note_off_c, 0, 41, 62
1, 248165, Note_on_c, 0, 72, 31
1, 248171, Note_off_c, 0, 68, 60
1, 248176, Note_off_c, 0, 80, 65
1, 248191, Control_c, 0, 64, 70
1, 248198, Note_off_c, 0, 72, 52
1, 248206, Control_c, 0, 64, 0
1, 248217, Note_on_c, 0, 75, 72
1, 248220, Note_on_c, 0, 67, 98
1, 248221, Note_on_c, 0, 73, 76
1, 248222, Note_off_c, 0, 73, 127
1, 248222, Note_on_c, 0, 31, 89
1, 248222, Note_on_c, 0, 43, 92
1, 248222, Note_on_c, 0, 79, 97
1, 248225, Note_on_c, 0, 72, 88
1, 248251, Control_c, 0, 64, 42
1, 248265, Control_c, 0, 64, 65
1, 248280, Control_c, 0, 64, 80
1, 248295, Control_c, 0, 64, 127
1, 248302, Note_off_c, 0, 67, 64
1, 248311, Note_off_c, 0, 79, 65
1, 248315, Note_off_c, 0, 43, 60
1, 248320, Note_off_c, 0, 31, 62
1, 248320, Note_off_c, 0, 72, 64
1, 248326, Note_off_c, 0, 75, 63
1, 248404, Note_on_c, 0, 43, 82
1, 248460, Note_off_c, 0, 43, 63
1, 248539, Note_on_c, 0, 43, 73
1, 248583, Note_off_c, 0, 43, 58
1, 248636, Control_c, 0, 64, 119
1, 248651, Control_c, 0, 64, 70
1, 248660, Note_on_c, 0, 67, 96
1, 248660, Note_on_c, 0, 79, 97
1, 248663, Note_on_c, 0, 71, 93
1, 248664, Note_on_c, 0, 74, 86
1, 248666, Control_c, 0, 64, 30
1, 248667, Note_on_c, 0, 31, 80
1, 248669, Note_on_c, 0, 43, 85
1, 248681, Control_c, 0, 64, 0
1, 248696, Control_c, 0, 64, 34
1, 248711, Control_c, 0, 64, 59
1, 248726, Control_c, 0, 64, 69
1, 248732, Note_off_c, 0, 43, 57
1, 248747, Note_off_c, 0, 67, 64
1, 248747, Control_c, 0, 64, 85
1, 248750, Note_off_c, 0, 79, 68
1, 248756, Note_off_c, 0, 74, 64
1, 248756, Note_off_c, 0, 71, 65
1, 248762, Control_c, 0, 64, 127
1, 248794, Note_off_c, 0, 31, 45
1, 248826, Note_on_c, 0, 43, 68
1, 248864, Note_off_c, 0, 43, 63
1, 248999, Note_on_c, 0, 43, 61
1, 249033, Note_off_c, 0, 43, 60
1, 249178, Control_c, 0, 64, 68
1, 249192, Note_on_c, 0, 60, 93
1, 249192, Note_on_c, 0, 72, 93
1, 249193, Note_on_c, 0, 63, 87
1, 249193, Control_c, 0, 64, 0
1, 249194, Note_on_c, 0, 43, 73
1, 249194, Note_on_c, 0, 48, 77
1, 249199, Note_on_c, 0, 36, 71
1, 249200, Note_on_c, 0, 67, 84
1, 249248, Note_on_c, 0, 69, 21
1, 249252, Control_c, 0, 64, 56
1, 249266, Note_off_c, 0, 36, 63
1, 249267, Control_c, 0, 64, 71
1, 249280, Note_off_c, 0, 43, 61
1, 249281, Control_c, 0, 64, 108
1, 249292, Note_off_c, 0, 48, 62
1, 249296, Control_c, 0, 64, 127
1, 249304, Note_off_c, 0, 69, 34
1, 249468, Note_on_c, 0, 51, 86
1, 249562, Note_off_c, 0, 51, 59
1, 249626, Note_on_c, 0, 50, 86
1, 249687, Note_off_c, 0, 50, 63
1, 249773, Note_on_c, 0, 48, 94
1, 249793, Control_c, 0, 64, 80
1, 249808, Control_c, 0, 64, 60
1, 249823, Control_c, 0, 64, 52
1, 249838, Control_c, 0, 64, 62
1, 249852, Control_c, 0, 64, 66
1, 249867, Control_c, 0, 64, 72
1, 249867, Note_off_c, 0, 48, 63
1, 249882, Control_c, 0, 64, 85
1, 249896, Control_c, 0, 64, 123
1, 249911, Control_c, 0, 64, 127
1, 249924, Note_on_c, 0, 50, 86
1, 249987, Note_off_c, 0, 50, 61
1, 250055, Note_on_c, 0, 48, 85
1, 250118, Note_off_c, 0, 48, 63
1, 250177, Control_c, 0, 64, 111
1, 250192, Control_c, 0, 64, 76
1, 250198, Note_on_c, 0, 47, 95
1, 250207, Control_c, 0, 64, 59
1, 250246, Control_c, 0, 64, 64
1, 250261, Control_c, 0, 64, 68
1, 250273, Note_off_c, 0, 47, 60
1, 250275, Control_c, 0, 64, 75
1, 250290, Control_c, 0, 64, 86
1, 250305, Control_c, 0, 64, 102
1, 250319, Control_c, 0, 64, 107
1, 250320, Note_off_c, 0, 63, 52
1, 250349, Control_c, 0, 64, 106
1, 250359, Note_on_c, 0, 48, 85
1, 250364, Note_off_c, 0, 67, 35
1, 250366, Note_off_c, 0, 60, 56
1, 250411, Note_off_c, 0, 48, 64
1, 250438, Control_c, 0, 64, 107
1, 250453, Control_c, 0, 64, 107
1, 250462, Note_off_c, 0, 72, 46
1, 250467, Control_c, 0, 64, 108
1, 250482, Control_c, 0, 64, 113
1, 250488, Note_on_c, 0, 47, 85
1, 250497, Control_c, 0, 64, 127
1, 250564, Note_off_c, 0, 47, 61
1, 250601, Control_c, 0, 64, 80
1, 250616, Control_c, 0, 64, 63
1, 250626, Note_on_c, 0, 46, 79
1, 250631, Control_c, 0, 64, 60
1, 250637, Note_on_c, 0, 72, 99
1, 250639, Note_on_c, 0, 60, 91
1, 250645, Control_c, 0, 64, 67
1, 250660, Control_c, 0, 64, 73
1, 250668, Note_off_c, 0, 60, 65
1, 250675, Control_c, 0, 64, 90
1, 250680, Note_off_c, 0, 72, 65
1, 250690, Control_c, 0, 64, 127
1, 250704, Note_off_c, 0, 46, 62
1, 250775, Note_on_c, 0, 48, 73
1, 250780, Note_on_c, 0, 72, 100
1, 250783, Note_on_c, 0, 60, 90
1, 250821, Note_off_c, 0, 60, 60
1, 250829, Note_off_c, 0, 72, 59
1, 250836, Note_off_c, 0, 48, 60
1, 250917, Note_on_c, 0, 72, 101
1, 250917, Note_on_c, 0, 60, 91
1, 250920, Note_on_c, 0, 46, 75
1, 250941, Note_off_c, 0, 60, 67
1, 250954, Note_off_c, 0, 72, 65
1, 250985, Note_off_c, 0, 46, 62
1, 251101, Note_on_c, 0, 84, 102
1, 251104, Note_on_c, 0, 72, 88
1, 251106, Note_on_c, 0, 45, 82
1, 251106, Note_on_c, 0, 74, 99
1, 251108, Note_on_c, 0, 48, 86
1, 251113, Control_c, 0, 64, 76
1, 251128, Control_c, 0, 64, 57
1, 251139, Note_on_c, 0, 82, 48
1, 251142, Control_c, 0, 64, 39
1, 251157, Control_c, 0, 64, 52
1, 251162, Note_off_c, 0, 82, 37
1, 251172, Control_c, 0, 64, 61
1, 251186, Note_off_c, 0, 48, 49
1, 251187, Control_c, 0, 64, 68
1, 251193, Note_off_c, 0, 45, 57
1, 251202, Control_c, 0, 64, 81
1, 251216, Control_c, 0, 64, 113
1, 251231, Control_c, 0, 64, 127
1, 251260, Note_on_c, 0, 46, 70
1, 251314, Note_off_c, 0, 46, 60
1, 251404, Note_on_c, 0, 45, 68
1, 251405, Note_on_c, 0, 48, 53
1, 251443, Note_off_c, 0, 45, 63
1, 251456, Note_off_c, 0, 48, 60
1, 251543, Note_on_c, 0, 44, 86
1, 251554, Note_on_c, 0, 48, 72
1, 251557, Control_c, 0, 64, 85
1, 251572, Control_c, 0, 64, 66
1, 251587, Control_c, 0, 64, 55
1, 251602, Control_c, 0, 64, 60
1, 251616, Control_c, 0, 64, 65
1, 251617, Note_off_c, 0, 48, 54
1, 251631, Note_off_c, 0, 44, 63
1, 251631, Control_c, 0, 64, 70
1, 251646, Control_c, 0, 64, 80
1, 251660, Control_c, 0, 64, 96
1, 251675, Control_c, 0, 64, 116
1, 251690, Control_c, 0, 64, 121
1, 251705, Control_c, 0, 64, 119
1, 251707, Note_on_c, 0, 46, 74
1, 251720, Control_c, 0, 64, 117
1, 251757, Control_c, 0, 64, 118
1, 251774, Note_off_c, 0, 46, 62
1, 251847, Control_c, 0, 64, 119
1, 251862, Note_on_c, 0, 44, 76
1, 251862, Control_c, 0, 64, 127
1, 251869, Poly_aftertouch_c, 0, 48, 0
1, 251884, Note_on_c, 0, 48, 31
1, 251922, Note_off_c, 0, 48, 54
1, 251924, Note_off_c, 0, 44, 63
1, 251980, Control_c, 0, 64, 81
1, 251995, Control_c, 0, 64, 65
1, 251996, Note_on_c, 0, 43, 88
1, 252008, Note_on_c, 0, 48, 71
1, 252008, Note_off_c, 0, 74, 8
1, 252008, Note_off_c, 0, 84, 60
1, 252010, Control_c, 0, 64, 61
1, 252021, Note_off_c, 0, 72, 58
1, 252025, Control_c, 0, 64, 66
1, 252039, Control_c, 0, 64, 70
1, 252040, Note_off_c, 0, 48, 63
1, 252054, Control_c, 0, 64, 79
1, 252069, Control_c, 0, 64, 97
1, 252081, Note_off_c, 0, 43, 59
1, 252084, Control_c, 0, 64, 127
1, 252148, Note_on_c, 0, 44, 71
1, 252175, Note_on_c, 0, 48, 30
1, 252199, Note_off_c, 0, 48, 57
1, 252210, Note_off_c, 0, 44, 62
1, 252291, Note_on_c, 0, 43, 75
1, 252298, Note_on_c, 0, 48, 45
1, 252334, Note_off_c, 0, 48, 60
1, 252354, Note_off_c, 0, 43, 59
1, 252425, Control_c, 0, 64, 86
1, 252439, Control_c, 0, 64, 67
1, 252443, Note_on_c, 0, 72, 89
1, 252448, Note_on_c, 0, 60, 80
1, 252454, Control_c, 0, 64, 63
1, 252459, Note_on_c, 0, 41, 46
1, 252461, Note_on_c, 0, 48, 31
1, 252466, Note_on_c, 0, 43, 52
1, 252469, Control_c, 0, 64, 66
1, 252479, Note_off_c, 0, 60, 64
1, 252491, Control_c, 0, 64, 71
1, 252506, Control_c, 0, 64, 77
1, 252506, Note_off_c, 0, 48, 43
1, 252506, Note_off_c, 0, 72, 62
1, 252509, Note_off_c, 0, 43, 57
1, 252514, Note_off_c, 0, 41, 57
1, 252520, Control_c, 0, 64, 87
1, 252535, Control_c, 0, 64, 106
1, 252550, Control_c, 0, 64, 127
1, 252604, Note_on_c, 0, 43, 66
1, 252616, Note_on_c, 0, 72, 93
1, 252619, Note_on_c, 0, 48, 48
1, 252625, Note_on_c, 0, 60, 79
1, 252654, Note_off_c, 0, 60, 62
1, 252655, Note_off_c, 0, 48, 60
1, 252673, Note_off_c, 0, 43, 60
1, 252677, Note_off_c, 0, 72, 60
1, 252774, Note_on_c, 0, 60, 74
1, 252774, Note_on_c, 0, 72, 86
1, 252780, Note_on_c, 0, 41, 62
1, 252792, Note_off_c, 0, 60, 72
1, 252814, Note_off_c, 0, 41, 62
1, 252816, Note_off_c, 0, 72, 64
1, 252980, Note_on_c, 0, 78, 64
1, 252988, Note_on_c, 0, 84, 82
1, 252994, Note_on_c, 0, 40, 63
1, 252994, Note_on_c, 0, 72, 78
1, 252996, Control_c, 0, 64, 97
1, 253011, Control_c, 0, 64, 75
1, 253018, Note_on_c, 0, 79, 67
1, 253024, Note_on_c, 0, 48, 54
1, 253026, Control_c, 0, 64, 62
1, 253041, Control_c, 0, 64, 52
1, 253056, Note_off_c, 0, 78, 58
1, 253056, Control_c, 0, 64, 53
1, 253070, Control_c, 0, 64, 57
1, 253085, Control_c, 0, 64, 62
1, 253100, Control_c, 0, 64, 67
1, 253114, Control_c, 0, 64, 74
1, 253115, Note_off_c, 0, 40, 59
1, 253129, Control_c, 0, 64, 83
1, 253144, Control_c, 0, 64, 88
1, 253159, Control_c, 0, 64, 91
1, 253174, Control_c, 0, 64, 91
1, 253188, Control_c, 0, 64, 92
1, 253218, Note_on_c, 0, 41, 53
1, 253254, Note_off_c, 0, 48, 18
1, 253263, Note_off_c, 0, 41, 63
1, 253314, Control_c, 0, 64, 92
1, 253343, Control_c, 0, 64, 93
1, 253353, Note_on_c, 0, 40, 58
1, 253358, Control_c, 0, 64, 93
1, 253373, Control_c, 0, 64, 94
1, 253387, Control_c, 0, 64, 95
1, 253395, Note_off_c, 0, 40, 63
1, 253402, Control_c, 0, 64, 97
1, 253417, Control_c, 0, 64, 98
1, 253432, Control_c, 0, 64, 100
1, 253448, Control_c, 0, 64, 100
1, 253477, Control_c, 0, 64, 94
1, 253492, Control_c, 0, 64, 82
1, 253495, Note_on_c, 0, 39, 65
1, 253507, Control_c, 0, 64, 70
1, 253522, Control_c, 0, 64, 64
1, 253536, Control_c, 0, 64, 65
1, 253551, Control_c, 0, 64, 68
1, 253566, Control_c, 0, 64, 73
1, 253569, Note_off_c, 0, 39, 60
1, 253581, Control_c, 0, 64, 80
1, 253596, Control_c, 0, 64, 91
1, 253610, Control_c, 0, 64, 102
1, 253625, Control_c, 0, 64, 106
1, 253633, Note_on_c, 0, 41, 68
1, 253683, Note_on_c, 0, 48, 3
1, 253689, Note_off_c, 0, 41, 59
1, 253728, Note_off_c, 0, 48, 45
1, 253758, Control_c, 0, 64, 107
1, 253773, Control_c, 0, 64, 109
1, 253781, Note_on_c, 0, 39, 73
1, 253788, Control_c, 0, 64, 114
1, 253802, Control_c, 0, 64, 127
1, 253843, Note_off_c, 0, 39, 60
1, 253892, Control_c, 0, 64, 97
1, 253904, Note_on_c, 0, 38, 80
1, 253907, Control_c, 0, 64, 76
1, 253918, Note_on_c, 0, 48, 10
1, 253921, Control_c, 0, 64, 66
1, 253936, Control_c, 0, 64, 67
1, 253951, Control_c, 0, 64, 72
1, 253960, Note_off_c, 0, 48, 44
1, 253966, Control_c, 0, 64, 78
1, 253983, Note_off_c, 0, 84, 64
1, 253988, Control_c, 0, 64, 85
1, 253992, Note_off_c, 0, 38, 60
1, 254003, Control_c, 0, 64, 95
1, 254009, Note_off_c, 0, 72, 61
1, 254010, Note_off_c, 0, 79, 56
1, 254017, Control_c, 0, 64, 108
1, 254032, Control_c, 0, 64, 114
1, 254047, Control_c, 0, 64, 113
1, 254064, Note_on_c, 0, 39, 79
1, 254075, Note_on_c, 0, 48, 54
1, 254103, Note_off_c, 0, 48, 60
1, 254106, Control_c, 0, 64, 114
1, 254121, Control_c, 0, 64, 115
1, 254131, Note_off_c, 0, 39, 60
1, 254136, Control_c, 0, 64, 116
1, 254151, Control_c, 0, 64, 117
1, 254166, Control_c, 0, 64, 118
1, 254196, Control_c, 0, 64, 119
1, 254199, Note_on_c, 0, 38, 73
1, 254202, Note_on_c, 0, 48, 53
1, 254235, Note_off_c, 0, 48, 63
1, 254249, Note_off_c, 0, 38, 54
1, 254255, Control_c, 0, 64, 121
1, 254285, Control_c, 0, 64, 123
1, 254315, Control_c, 0, 64, 114
1, 254330, Control_c, 0, 64, 99
1, 254345, Control_c, 0, 64, 80
1, 254353, Note_on_c, 0, 36, 54
1, 254354, Note_on_c, 0, 72, 68
1, 254359, Control_c, 0, 64, 68
1, 254363, Note_on_c, 0, 60, 57
1, 254370, Note_on_c, 0, 48, 25
1, 254374, Control_c, 0, 64, 62
1, 254389, Control_c, 0, 64, 63
1, 254404, Control_c, 0, 64, 67
1, 254418, Note_off_c, 0, 60, 60
1, 254419, Control_c, 0, 64, 73
1, 254422, Note_off_c, 0, 48, 45
1, 254433, Control_c, 0, 64, 82
1, 254439, Note_off_c, 0, 36, 56
1, 254439, Note_off_c, 0, 72, 62
1, 254448, Control_c, 0, 64, 97
1, 254463, Control_c, 0, 64, 115
1, 254478, Control_c, 0, 64, 127
1, 254496, Note_on_c, 0, 38, 66
1, 254505, Note_on_c, 0, 72, 84
1, 254509, Note_on_c, 0, 60, 79
1, 254511, Note_on_c, 0, 48, 52
1, 254548, Note_off_c, 0, 48, 61
1, 254551, Note_off_c, 0, 38, 58
1, 254561, Note_off_c, 0, 60, 62
1, 254583, Note_off_c, 0, 72, 62
1, 254631, Note_on_c, 0, 39, 76
1, 254634, Note_on_c, 0, 48, 67
1, 254637, Note_on_c, 0, 72, 92
1, 254640, Note_on_c, 0, 60, 90
1, 254661, Note_off_c, 0, 48, 66
1, 254683, Note_off_c, 0, 60, 66
1, 254698, Note_off_c, 0, 39, 60
1, 254713, Note_off_c, 0, 72, 64
1, 254790, Note_on_c, 0, 41, 71
1, 254798, Note_on_c, 0, 73, 102
1, 254798, Note_on_c, 0, 61, 96
1, 254804, Note_on_c, 0, 44, 72
1, 254811, Control_c, 0, 64, 77
1, 254826, Control_c, 0, 64, 60
1, 254840, Control_c, 0, 64, 40
1, 254855, Control_c, 0, 64, 48
1, 254869, Note_off_c, 0, 44, 56
1, 254870, Control_c, 0, 64, 57
1, 254884, Control_c, 0, 64, 64
1, 254887, Note_off_c, 0, 41, 63
1, 254899, Control_c, 0, 64, 71
1, 254908, Note_off_c, 0, 61, 58
1, 254914, Control_c, 0, 64, 85
1, 254929, Control_c, 0, 64, 108
1, 254932, Note_off_c, 0, 73, 60
1, 254944, Control_c, 0, 64, 127
1, 254946, Note_on_c, 0, 39, 75
1, 254948, Note_on_c, 0, 44, 67
1, 255003, Note_off_c, 0, 44, 60
1, 255015, Note_off_c, 0, 39, 62
1, 255083, Note_on_c, 0, 44, 69
1, 255084, Note_on_c, 0, 37, 78
1, 255130, Note_off_c, 0, 44, 57
1, 255140, Note_off_c, 0, 37, 61
1, 255212, Control_c, 0, 64, 96
1, 255227, Note_on_c, 0, 77, 100
1, 255227, Control_c, 0, 64, 71
1, 255227, Note_on_c, 0, 65, 92
1, 255238, Note_on_c, 0, 37, 73
1, 255242, Control_c, 0, 64, 62
1, 255244, Note_on_c, 0, 44, 61
1, 255256, Control_c, 0, 64, 63
1, 255271, Control_c, 0, 64, 67
1, 255286, Control_c, 0, 64, 73
1, 255288, Note_off_c, 0, 44, 59
1, 255293, Note_off_c, 0, 65, 55
1, 255301, Control_c, 0, 64, 83
1, 255302, Note_off_c, 0, 37, 61
1, 255315, Control_c, 0, 64, 101
1, 255320, Note_off_c, 0, 77, 64
1, 255330, Control_c, 0, 64, 127
1, 255379, Note_on_c, 0, 37, 58
1, 255383, Note_on_c, 0, 44, 55
1, 255419, Note_off_c, 0, 44, 55
1, 255439, Note_off_c, 0, 37, 56
1, 255518, Note_on_c, 0, 39, 63
1, 255526, Note_on_c, 0, 44, 49
1, 255564, Note_off_c, 0, 39, 63
1, 255567, Note_on_c, 0, 80, 80
1, 255570, Note_off_c, 0, 44, 57
1, 255578, Note_on_c, 0, 68, 73
1, 255616, Note_off_c, 0, 68, 59
1, 255640, Note_off_c, 0, 80, 62
1, 255707, Control_c, 0, 64, 94
1, 255709, Note_on_c, 0, 75, 75
1, 255709, Note_on_c, 0, 79, 84
1, 255710, Note_on_c, 0, 67, 81
1, 255716, Note_on_c, 0, 72, 75
1, 255722, Control_c, 0, 64, 71
1, 255724, Note_on_c, 0, 31, 56
1, 255737, Control_c, 0, 64, 59
1, 255752, Control_c, 0, 64, 52
1, 255759, Note_on_c, 0, 43, 41
1, 255767, Control_c, 0, 64, 56
1, 255781, Control_c, 0, 64, 61
1, 255796, Control_c, 0, 64, 67
1, 255805, Note_off_c, 0, 43, 57
1, 255811, Control_c, 0, 64, 75
1, 255826, Control_c, 0, 64, 87
1, 255838, Note_off_c, 0, 31, 59
1, 255841, Control_c, 0, 64, 100
1, 255852, Note_off_c, 0, 67, 57
1, 255856, Control_c, 0, 64, 107
1, 255871, Note_off_c, 0, 79, 61
1, 255871, Control_c, 0, 64, 108
1, 255886, Note_off_c, 0, 72, 61
1, 255890, Note_off_c, 0, 75, 58
1, 255917, Note_on_c, 0, 43, 58
1, 255930, Control_c, 0, 64, 109
1, 255945, Control_c, 0, 64, 110
1, 255955, Note_off_c, 0, 43, 62
1, 255960, Control_c, 0, 64, 111
1, 255975, Control_c, 0, 64, 112
1, 255990, Control_c, 0, 64, 113
1, 256004, Control_c, 0, 64, 114
1, 256019, Control_c, 0, 64, 116
1, 256038, Note_on_c, 0, 43, 57
1, 256064, Control_c, 0, 64, 117
1, 256078, Control_c, 0, 64, 127
1, 256087, Note_off_c, 0, 43, 59
1, 256123, Control_c, 0, 64, 123
1, 256137, Control_c, 0, 64, 98
1, 256152, Control_c, 0, 64, 78
1, 256167, Control_c, 0, 64, 64
1, 256172, Note_on_c, 0, 79, 84
1, 256174, Note_on_c, 0, 67, 80
1, 256177, Note_on_c, 0, 71, 76
1, 256180, Note_on_c, 0, 74, 71
1, 256181, Note_on_c, 0, 31, 54
1, 256182, Control_c, 0, 64, 61
1, 256190, Note_on_c, 0, 43, 52
1, 256197, Control_c, 0, 64, 64
1, 256211, Control_c, 0, 64, 67
1, 256234, Control_c, 0, 64, 74
1, 256247, Note_off_c, 0, 43, 59
1, 256249, Control_c, 0, 64, 88
1, 256264, Control_c, 0, 64, 127
1, 256272, Note_off_c, 0, 31, 52
1, 256279, Note_off_c, 0, 67, 61
1, 256287, Note_off_c, 0, 74, 63
1, 256288, Note_off_c, 0, 79, 66
1, 256292, Note_off_c, 0, 71, 62
1, 256342, Note_on_c, 0, 43, 64
1, 256384, Note_off_c, 0, 43, 62
1, 256520, Note_on_c, 0, 43, 59
1, 256552, Note_off_c, 0, 43, 66
1, 256780, Note_on_c, 0, 63, 73
1, 256784, Note_on_c, 0, 60, 70
1, 256784, Note_on_c, 0, 72, 79
1, 256786, Note_on_c, 0, 36, 46
1, 256788, Note_on_c, 0, 67, 66
1, 256792, Note_on_c, 0, 48, 50
1, 256828, Control_c, 0, 64, 94
1, 256843, Control_c, 0, 64, 76
1, 256858, Control_c, 0, 64, 65
1, 256873, Control_c, 0, 64, 59
1, 256887, Control_c, 0, 64, 60
1, 256902, Control_c, 0, 64, 63
1, 256917, Control_c, 0, 64, 67
1, 256932, Control_c, 0, 64, 74
1, 256947, Control_c, 0, 64, 85
1, 256954, Note_off_c, 0, 48, 60
1, 256961, Control_c, 0, 64, 101
1, 256983, Control_c, 0, 64, 123
1, 256991, Note_off_c, 0, 36, 38
1, 256998, Control_c, 0, 64, 127
1, 257095, Note_on_c, 0, 36, 46
1, 257096, Note_on_c, 0, 48, 44
1, 257123, Note_off_c, 0, 48, 57
1, 257130, Note_off_c, 0, 36, 54
1, 257225, Note_on_c, 0, 36, 55
1, 257230, Note_on_c, 0, 48, 39
1, 257268, Note_off_c, 0, 48, 49
1, 257272, Note_off_c, 0, 36, 60
1, 257368, Control_c, 0, 64, 118
1, 257383, Control_c, 0, 64, 84
1, 257388, Note_on_c, 0, 38, 68
1, 257391, Note_on_c, 0, 48, 58
1, 257398, Control_c, 0, 64, 70
1, 257413, Control_c, 0, 64, 66
1, 257429, Control_c, 0, 64, 68
1, 257444, Note_off_c, 0, 38, 60
1, 257444, Control_c, 0, 64, 73
1, 257446, Note_off_c, 0, 48, 60
1, 257458, Control_c, 0, 64, 79
1, 257473, Control_c, 0, 64, 90
1, 257488, Control_c, 0, 64, 103
1, 257503, Control_c, 0, 64, 118
1, 257518, Control_c, 0, 64, 127
1, 257548, Note_on_c, 0, 38, 66
1, 257555, Note_on_c, 0, 48, 53
1, 257580, Note_off_c, 0, 38, 61
1, 257588, Note_off_c, 0, 48, 59
1, 257674, Note_on_c, 0, 38, 67
1, 257688, Note_on_c, 0, 48, 49
1, 257723, Note_off_c, 0, 48, 61
1, 257739, Note_off_c, 0, 38, 53
1, 257777, Control_c, 0, 64, 119
1, 257785, Note_off_c, 0, 63, 33
1, 257791, Control_c, 0, 64, 101
1, 257806, Control_c, 0, 64, 83
1, 257821, Control_c, 0, 64, 68
1, 257823, Note_off_c, 0, 67, 30
1, 257830, Note_on_c, 0, 39, 56
1, 257834, Note_on_c, 0, 48, 46
1, 257836, Control_c, 0, 64, 61
1, 257851, Control_c, 0, 64, 60
1, 257859, Note_off_c, 0, 60, 41
1, 257865, Control_c, 0, 64, 63
1, 257880, Control_c, 0, 64, 65
1, 257886, Note_off_c, 0, 48, 56
1, 257886, Note_off_c, 0, 39, 61
1, 257895, Control_c, 0, 64, 69
1, 257910, Control_c, 0, 64, 75
1, 257925, Control_c, 0, 64, 83
1, 257927, Note_off_c, 0, 72, 50
1, 257940, Control_c, 0, 64, 91
1, 257955, Control_c, 0, 64, 94
1, 257970, Control_c, 0, 64, 95
1, 257984, Control_c, 0, 64, 96
1, 257985, Note_on_c, 0, 39, 55
1, 257999, Control_c, 0, 64, 97
1, 258014, Control_c, 0, 64, 99
1, 258026, Note_off_c, 0, 39, 60
1, 258029, Control_c, 0, 64, 101
1, 258044, Control_c, 0, 64, 104
1, 258125, Note_on_c, 0, 39, 49
1, 258173, Note_off_c, 0, 39, 58
1, 258252, Control_c, 0, 64, 103
1, 258267, Control_c, 0, 64, 101
1, 258281, Control_c, 0, 64, 97
1, 258296, Control_c, 0, 64, 88
1, 258301, Note_on_c, 0, 60, 43
1, 258303, Note_on_c, 0, 40, 45
1, 258304, Note_on_c, 0, 72, 50
1, 258311, Control_c, 0, 64, 74
1, 258326, Control_c, 0, 64, 66
1, 258341, Control_c, 0, 64, 63
1, 258347, Poly_aftertouch_c, 0, 48, 127
1, 258355, Control_c, 0, 64, 64
1, 258369, Note_off_c, 0, 40, 48
1, 258370, Control_c, 0, 64, 66
1, 258385, Control_c, 0, 64, 70
1, 258399, Control_c, 0, 64, 76
1, 258408, Poly_aftertouch_c, 0, 48, 0
1, 258412, Note_off_c, 0, 60, 38
1, 258413, Note_off_c, 0, 72, 51
1, 258414, Control_c, 0, 64, 83
1, 258429, Control_c, 0, 64, 90
1, 258444, Control_c, 0, 64, 93
1, 258459, Control_c, 0, 64, 94
1, 258481, Control_c, 0, 64, 95
1, 258497, Note_on_c, 0, 40, 49
1, 258499, Note_on_c, 0, 60, 54
1, 258500, Note_on_c, 0, 72, 45
1, 258526, Control_c, 0, 64, 95
1, 258541, Control_c, 0, 64, 96
1, 258544, Note_off_c, 0, 40, 60
1, 258545, Note_off_c, 0, 60, 61
1, 258563, Note_off_c, 0, 72, 56
1, 258645, Note_on_c, 0, 60, 62
1, 258661, Note_on_c, 0, 40, 44
1, 258680, Note_off_c, 0, 60, 64
1, 258682, Note_on_c, 0, 72, 31
1, 258697, Note_off_c, 0, 40, 51
1, 258722, Note_off_c, 0, 72, 48
1, 258732, Poly_aftertouch_c, 0, 48, 0
1, 258748, Control_c, 0, 64, 95
1, 258762, Control_c, 0, 64, 94
1, 258777, Control_c, 0, 64, 89
1, 258792, Control_c, 0, 64, 80
1, 258805, Note_on_c, 0, 41, 50
1, 258807, Control_c, 0, 64, 70
1, 258816, Note_on_c, 0, 61, 53
1, 258822, Control_c, 0, 64, 64
1, 258825, Note_on_c, 0, 72, 43
1, 258852, Control_c, 0, 64, 66
1, 258854, Note_off_c, 0, 41, 58
1, 258867, Control_c, 0, 64, 68
1, 258872, Note_off_c, 0, 61, 55
1, 258875, Note_off_c, 0, 72, 54
1, 258881, Control_c, 0, 64, 72
1, 258896, Control_c, 0, 64, 78
1, 258911, Control_c, 0, 64, 84
1, 258925, Control_c, 0, 64, 89
1, 258940, Control_c, 0, 64, 91
1, 258955, Control_c, 0, 64, 94
1, 258966, Note_on_c, 0, 61, 58
1, 258969, Note_on_c, 0, 41, 55
1, 258970, Control_c, 0, 64, 99
1, 258985, Control_c, 0, 64, 101
1, 258986, Note_on_c, 0, 72, 40
1, 258999, Control_c, 0, 64, 102
1, 259006, Poly_aftertouch_c, 0, 48, 127
1, 259009, Note_off_c, 0, 41, 61
1, 259028, Note_off_c, 0, 72, 48
1, 259034, Note_off_c, 0, 61, 51
1, 259049, Poly_aftertouch_c, 0, 48, 0
1, 259075, Control_c, 0, 64, 101
1, 259106, Note_on_c, 0, 41, 52
1, 259110, Note_on_c, 0, 61, 55
1, 259136, Note_on_c, 0, 72, 52
1, 259151, Note_off_c, 0, 41, 60
1, 259178, Note_off_c, 0, 61, 58
1, 259183, Note_off_c, 0, 72, 54
1, 259245, Control_c, 0, 64, 96
1, 259260, Control_c, 0, 64, 85
1, 259267, Note_on_c, 0, 42, 49
1, 259275, Control_c, 0, 64, 73
1, 259275, Note_on_c, 0, 62, 57
1, 259290, Control_c, 0, 64, 65
1, 259300, Poly_aftertouch_c, 0, 48, 127
1, 259302, Note_on_c, 0, 72, 32
1, 259304, Control_c, 0, 64, 64
1, 259318, Note_off_c, 0, 42, 56
1, 259319, Note_off_c, 0, 62, 59
1, 259319, Control_c, 0, 64, 65
1, 259334, Control_c, 0, 64, 67
1, 259337, Note_off_c, 0, 72, 50
1, 259344, Poly_aftertouch_c, 0, 48, 0
1, 259349, Control_c, 0, 64, 71
1, 259363, Control_c, 0, 64, 76
1, 259378, Control_c, 0, 64, 83
1, 259393, Control_c, 0, 64, 88
1, 259408, Control_c, 0, 64, 90
1, 259423, Control_c, 0, 64, 92
1, 259428, Note_on_c, 0, 62, 58
1, 259430, Note_on_c, 0, 42, 52
1, 259437, Control_c, 0, 64, 94
1, 259442, Note_on_c, 0, 72, 40
1, 259452, Control_c, 0, 64, 97
1, 259466, Note_off_c, 0, 62, 59
1, 259467, Control_c, 0, 64, 97
1, 259469, Note_off_c, 0, 42, 55
1, 259479, Poly_aftertouch_c, 0, 48, 127
1, 259482, Note_off_c, 0, 72, 47
1, 259517, Poly_aftertouch_c, 0, 48, 0
1, 259573, Note_on_c, 0, 62, 56
1, 259583, Note_on_c, 0, 42, 46
1, 259588, Note_on_c, 0, 48, 6
1, 259612, Note_off_c, 0, 62, 62
1, 259618, Note_off_c, 0, 42, 58
1, 259639, Note_off_c, 0, 48, 47
1, 259650, Poly_aftertouch_c, 0, 72, 127
1, 259681, Poly_aftertouch_c, 0, 72, 0
1, 259704, Control_c, 0, 64, 95
1, 259719, Control_c, 0, 64, 92
1, 259734, Control_c, 0, 64, 83
1, 259741, Note_on_c, 0, 43, 39
1, 259743, Note_on_c, 0, 63, 54
1, 259748, Control_c, 0, 64, 73
1, 259749, Note_on_c, 0, 72, 40
1, 259763, Control_c, 0, 64, 66
1, 259778, Control_c, 0, 64, 65
1, 259788, Note_off_c, 0, 63, 58
1, 259793, Control_c, 0, 64, 67
1, 259800, Poly_aftertouch_c, 0, 48, 127
1, 259808, Control_c, 0, 64, 69
1, 259818, Note_off_c, 0, 43, 53
1, 259821, Note_off_c, 0, 72, 52
1, 259824, Control_c, 0, 64, 73
1, 259839, Control_c, 0, 64, 79
1, 259846, Poly_aftertouch_c, 0, 48, 0
1, 259853, Control_c, 0, 64, 86
1, 259868, Control_c, 0, 64, 90
1, 259883, Control_c, 0, 64, 92
1, 259891, Note_on_c, 0, 43, 37
1, 259898, Control_c, 0, 64, 92
1, 259907, Note_on_c, 0, 63, 57
1, 259913, Control_c, 0, 64, 93
1, 259917, Note_on_c, 0, 72, 37
1, 259942, Control_c, 0, 64, 93
1, 259950, Poly_aftertouch_c, 0, 48, 127
1, 259957, Note_off_c, 0, 63, 54
1, 259979, Note_off_c, 0, 43, 47
1, 259980, Note_off_c, 0, 72, 44
1, 260005, Poly_aftertouch_c, 0, 48, 0
1, 260068, Note_on_c, 0, 43, 30
1, 260085, Note_on_c, 0, 63, 49
1, 260093, Note_on_c, 0, 72, 46
1, 260119, Poly_aftertouch_c, 0, 48, 127
1, 260138, Note_off_c, 0, 63, 52
1, 260146, Note_off_c, 0, 43, 46
1, 260153, Note_off_c, 0, 72, 41
1, 260197, Poly_aftertouch_c, 0, 48, 0
1, 260305, Control_c, 0, 64, 92
1, 260316, Note_on_c, 0, 44, 34
1, 260320, Control_c, 0, 64, 90
1, 260331, Note_on_c, 0, 64, 51
1, 260334, Control_c, 0, 64, 86
1, 260335, Poly_aftertouch_c, 0, 48, 127
1, 260343, Note_on_c, 0, 72, 45
1, 260349, Control_c, 0, 64, 80
1, 260364, Control_c, 0, 64, 71
1, 260378, Control_c, 0, 64, 66
1, 260393, Control_c, 0, 64, 63
1, 260423, Control_c, 0, 64, 64
1, 260438, Control_c, 0, 64, 66
1, 260453, Control_c, 0, 64, 71
1, 260468, Control_c, 0, 64, 77
1, 260482, Control_c, 0, 64, 84
1, 260483, Note_off_c, 0, 44, 34
1, 260497, Note_off_c, 0, 64, 49
1, 260497, Control_c, 0, 64, 91
1, 260505, Note_off_c, 0, 72, 48
1, 260512, Control_c, 0, 64, 97
1, 260527, Control_c, 0, 64, 103
1, 260542, Control_c, 0, 64, 113
1, 260557, Poly_aftertouch_c, 0, 48, 0
1, 260557, Control_c, 0, 64, 127
1, 260587, Note_on_c, 0, 44, 21
1, 260593, Poly_aftertouch_c, 0, 48, 127
1, 260596, Note_on_c, 0, 64, 50
1, 260605, Note_on_c, 0, 72, 37
1, 260700, Note_off_c, 0, 64, 39
1, 260701, Note_off_c, 0, 72, 43
1, 260703, Note_off_c, 0, 44, 34
1, 260740, Poly_aftertouch_c, 0, 48, 0
1, 260777, Poly_aftertouch_c, 0, 48, 127
1, 260794, Note_on_c, 0, 64, 48
1, 260800, Note_on_c, 0, 72, 32
1, 260817, Poly_aftertouch_c, 0, 44, 127
1, 260866, Note_off_c, 0, 64, 50
1, 260869, Poly_aftertouch_c, 0, 44, 0
1, 260895, Note_off_c, 0, 72, 39
1, 260941, Poly_aftertouch_c, 0, 48, 0
1, 260966, Note_on_c, 0, 64, 49
1, 260973, Note_on_c, 0, 72, 35
1, 260977, Poly_aftertouch_c, 0, 48, 127
1, 260995, Note_on_c, 0, 44, 32
1, 261033, Note_off_c, 0, 44, 50
1, 261042, Note_off_c, 0, 64, 48
1, 261057, Note_off_c, 0, 72, 41
1, 261126, Note_on_c, 0, 72, 33
1, 261127, Note_on_c, 0, 64, 48
1, 261154, Note_on_c, 0, 44, 29
1, 261197, Note_off_c, 0, 64, 52
1, 261202, Note_off_c, 0, 44, 48
1, 261228, Note_off_c, 0, 72, 38
1, 261285, Note_on_c, 0, 64, 47
1, 261290, Note_on_c, 0, 72, 33
1, 261316, Note_on_c, 0, 44, 26
1, 261345, Note_off_c, 0, 64, 54
1, 261358, Note_off_c, 0, 44, 50
1, 261427, Note_off_c, 0, 72, 0
1, 261445, Note_on_c, 0, 72, 24
1, 261455, Note_on_c, 0, 64, 48
1, 261500, Note_off_c, 0, 64, 58
1, 261523, Poly_aftertouch_c, 0, 44, 127
1, 261595, Poly_aftertouch_c, 0, 44, 0
1, 261617, Note_on_c, 0, 44, 15
1, 261618, Note_on_c, 0, 64, 45
1, 261672, Note_off_c, 0, 64, 52
1, 261684, Note_off_c, 0, 44, 44
1, 261746, Poly_aftertouch_c, 0, 48, 0
1, 261764, Note_on_c, 0, 44, 24
1, 261782, Poly_aftertouch_c, 0, 48, 127
1, 261815, Note_off_c, 0, 44, 51
1, 261821, Note_off_c, 0, 72, 45
1, 261895, Note_on_c, 0, 64, 37
1, 261917, Poly_aftertouch_c, 0, 48, 0
1, 261925, Note_off_c, 0, 64, 55
1, 261953, Note_on_c, 0, 72, 16
1, 261954, Poly_aftertouch_c, 0, 48, 127
1, 261982, Poly_aftertouch_c, 0, 44, 127
1, 262019, Note_on_c, 0, 65, 30
1, 262065, Note_off_c, 0, 65, 54
1, 262096, Note_off_c, 0, 72, 44
1, 262113, Poly_aftertouch_c, 0, 44, 0
1, 262169, Note_on_c, 0, 72, 44
1, 262181, Note_on_c, 0, 44, 21
1, 262183, Note_on_c, 0, 65, 39
1, 262216, Note_off_c, 0, 65, 50
1, 262229, Note_off_c, 0, 72, 46
1, 262243, Note_off_c, 0, 44, 45
1, 262328, Poly_aftertouch_c, 0, 48, 0
1, 262331, Note_on_c, 0, 65, 53
1, 262346, Note_on_c, 0, 44, 44
1, 262355, Note_on_c, 0, 72, 39
1, 262366, Poly_aftertouch_c, 0, 48, 127
1, 262372, Note_off_c, 0, 65, 62
1, 262385, Note_off_c, 0, 44, 56
1, 262385, Note_off_c, 0, 72, 52
1, 262421, Poly_aftertouch_c, 0, 48, 0
1, 262477, Control_c, 0, 64, 112
1, 262492, Control_c, 0, 64, 87
1, 262497, Note_on_c, 0, 72, 47
1, 262506, Note_on_c, 0, 48, 19
1, 262507, Control_c, 0, 64, 71
1, 262511, Note_on_c, 0, 45, 40
1, 262515, Note_on_c, 0, 66, 45
1, 262518, Note_on_c, 0, 63, 34
1, 262521, Control_c, 0, 64, 65
1, 262536, Control_c, 0, 64, 66
1, 262551, Control_c, 0, 64, 69
1, 262566, Control_c, 0, 64, 73
1, 262567, Note_off_c, 0, 66, 55
1, 262570, Note_off_c, 0, 63, 41
1, 262576, Note_off_c, 0, 45, 54
1, 262581, Control_c, 0, 64, 81
1, 262596, Control_c, 0, 64, 94
1, 262611, Control_c, 0, 64, 106
1, 262626, Control_c, 0, 64, 117
1, 262641, Control_c, 0, 64, 127
1, 262642, Note_off_c, 0, 48, 0
1, 262654, Note_off_c, 0, 72, 0
1, 262657, Note_on_c, 0, 45, 43
1, 262663, Note_on_c, 0, 48, 13
1, 262669, Note_on_c, 0, 72, 39
1, 262685, Note_on_c, 0, 63, 44
1, 262696, Note_on_c, 0, 66, 47
1, 262705, Note_off_c, 0, 45, 59
1, 262727, Note_off_c, 0, 63, 52
1, 262733, Note_off_c, 0, 66, 58
1, 262744, Note_off_c, 0, 72, 59
1, 262756, Note_off_c, 0, 48, 38
1, 262817, Note_on_c, 0, 45, 48
1, 262822, Note_on_c, 0, 72, 50
1, 262824, Note_on_c, 0, 48, 20
1, 262834, Note_on_c, 0, 66, 51
1, 262853, Note_off_c, 0, 45, 59
1, 262854, Note_on_c, 0, 63, 20
1, 262868, Note_off_c, 0, 66, 61
1, 262871, Note_off_c, 0, 72, 58
1, 262885, Note_off_c, 0, 48, 42
1, 262893, Note_off_c, 0, 63, 48
1, 262978, Note_on_c, 0, 45, 40
1, 262980, Note_on_c, 0, 72, 59
1, 262983, Note_on_c, 0, 66, 46
1, 262997, Note_on_c, 0, 63, 38
1, 263015, Note_off_c, 0, 45, 55
1, 263031, Note_off_c, 0, 66, 60
1, 263034, Note_off_c, 0, 63, 52
1, 263035, Poly_aftertouch_c, 0, 48, 0
1, 263060, Poly_aftertouch_c, 0, 48, 0
1, 263101, Note_off_c, 0, 72, 0
1, 263116, Note_on_c, 0, 72, 44
1, 263134, Note_on_c, 0, 45, 45
1, 263149, Note_on_c, 0, 66, 44
1, 263150, Note_on_c, 0, 62, 41
1, 263166, Note_on_c, 0, 50, 32
1, 263191, Note_off_c, 0, 62, 48
1, 263192, Note_off_c, 0, 66, 49
1, 263198, Note_off_c, 0, 45, 49
1, 263215, Note_off_c, 0, 72, 58
1, 263216, Note_off_c, 0, 50, 47
1, 263281, Note_on_c, 0, 72, 57
1, 263287, Note_on_c, 0, 45, 38
1, 263302, Note_on_c, 0, 62, 43
1, 263307, Note_on_c, 0, 66, 46
1, 263329, Poly_aftertouch_c, 0, 50, 127
1, 263335, Note_off_c, 0, 45, 55
1, 263347, Note_off_c, 0, 62, 50
1, 263347, Note_off_c, 0, 66, 51
1, 263365, Note_off_c, 0, 72, 57
1, 263377, Poly_aftertouch_c, 0, 50, 0
1, 263438, Note_on_c, 0, 72, 57
1, 263445, Note_on_c, 0, 45, 43
1, 263467, Note_on_c, 0, 66, 39
1, 263485, Note_off_c, 0, 45, 52
1, 263502, Poly_aftertouch_c, 0, 50, 127
1, 263507, Note_off_c, 0, 66, 47
1, 263527, Note_off_c, 0, 72, 51
1, 263535, Poly_aftertouch_c, 0, 62, 0
1, 263536, Poly_aftertouch_c, 0, 50, 0
1, 263602, Note_on_c, 0, 72, 53
1, 263612, Note_on_c, 0, 45, 41
1, 263621, Note_on_c, 0, 62, 25
1, 263627, Note_on_c, 0, 66, 45
1, 263659, Poly_aftertouch_c, 0, 50, 127
1, 263660, Note_off_c, 0, 45, 51
1, 263669, Note_off_c, 0, 62, 46
1, 263675, Note_off_c, 0, 66, 49
1, 263687, Note_off_c, 0, 72, 54
1, 263708, Poly_aftertouch_c, 0, 50, 0
1, 263792, Note_on_c, 0, 45, 39
1, 263798, Note_on_c, 0, 72, 61
1, 263813, Poly_aftertouch_c, 0, 50, 127
1, 263820, Note_on_c, 0, 66, 40
1, 263838, Note_off_c, 0, 45, 50
1, 263857, Note_off_c, 0, 66, 49
1, 263865, Poly_aftertouch_c, 0, 62, 127
1, 263916, Poly_aftertouch_c, 0, 62, 0
1, 263933, Note_off_c, 0, 72, 39
1, 263975, Poly_aftertouch_c, 0, 50, 0
1, 264012, Poly_aftertouch_c, 0, 50, 127
1, 264017, Note_on_c, 0, 46, 35
1, 264048, Control_c, 0, 64, 109
1, 264062, Note_on_c, 0, 62, 22
1, 264063, Control_c, 0, 64, 94
1, 264066, Note_on_c, 0, 72, 58
1, 264078, Control_c, 0, 64, 79
1, 264083, Note_on_c, 0, 67, 41
1, 264092, Control_c, 0, 64, 70
1, 264107, Control_c, 0, 64, 65
1, 264122, Control_c, 0, 64, 66
1, 264137, Control_c, 0, 64, 70
1, 264152, Control_c, 0, 64, 77
1, 264167, Control_c, 0, 64, 88
1, 264182, Control_c, 0, 64, 110
1, 264197, Control_c, 0, 64, 127
1, 264197, Note_off_c, 0, 46, 41
1, 264213, Note_off_c, 0, 72, 54
1, 264240, Note_off_c, 0, 67, 34
1, 264250, Poly_aftertouch_c, 0, 50, 0
1, 264284, Note_on_c, 0, 46, 38
1, 264288, Poly_aftertouch_c, 0, 50, 127
1, 264289, Note_off_c, 0, 62, 0
1, 264299, Note_on_c, 0, 72, 58
1, 264309, Note_on_c, 0, 62, 17
1, 264329, Note_on_c, 0, 67, 18
1, 264356, Note_off_c, 0, 46, 50
1, 264378, Note_off_c, 0, 67, 46
1, 264412, Note_off_c, 0, 62, 35
1, 264421, Poly_aftertouch_c, 0, 50, 0
1, 264429, Note_off_c, 0, 72, 0
1, 264447, Note_on_c, 0, 72, 39
1, 264453, Note_on_c, 0, 46, 35
1, 264459, Poly_aftertouch_c, 0, 50, 127
1, 264515, Poly_aftertouch_c, 0, 62, 127
1, 264525, Note_off_c, 0, 46, 52
1, 264568, Poly_aftertouch_c, 0, 62, 0
1, 264585, Poly_aftertouch_c, 0, 67, 0
1, 264591, Poly_aftertouch_c, 0, 50, 0
1, 264613, Note_on_c, 0, 46, 44
1, 264614, Note_off_c, 0, 72, 28
1, 264617, Note_on_c, 0, 50, 6
1, 264638, Note_on_c, 0, 70, 60
1, 264668, Note_off_c, 0, 46, 57
1, 264690, Note_off_c, 0, 50, 46
1, 264702, Note_off_c, 0, 70, 57
1, 264713, Poly_aftertouch_c, 0, 62, 0
1, 264784, Note_on_c, 0, 70, 53
1, 264796, Note_on_c, 0, 46, 35
1, 264814, Note_on_c, 0, 67, 32
1, 264822, Poly_aftertouch_c, 0, 50, 127
1, 264834, Note_off_c, 0, 46, 51
1, 264848, Note_off_c, 0, 67, 46
1, 264852, Note_off_c, 0, 70, 54
1, 264903, Poly_aftertouch_c, 0, 50, 0
1, 264918, Note_on_c, 0, 70, 49
1, 264938, Note_on_c, 0, 67, 52
1, 264941, Poly_aftertouch_c, 0, 50, 127
1, 264961, Note_off_c, 0, 67, 62
1, 264967, Note_on_c, 0, 46, 22
1, 264975, Note_off_c, 0, 70, 63
1, 264981, Poly_aftertouch_c, 0, 50, 0
1, 265016, Note_off_c, 0, 46, 43
1, 265064, Control_c, 0, 64, 100
1, 265074, Note_on_c, 0, 48, 44
1, 265079, Control_c, 0, 64, 79
1, 265081, Note_on_c, 0, 70, 66
1, 265093, Note_on_c, 0, 51, 53
1, 265094, Control_c, 0, 64, 67
1, 265103, Note_on_c, 0, 60, 31
1, 265109, Control_c, 0, 64, 62
1, 265121, Note_on_c, 0, 63, 8
1, 265123, Control_c, 0, 64, 64
1, 265130, Note_off_c, 0, 70, 55
1, 265138, Control_c, 0, 64, 66
1, 265142, Note_off_c, 0, 51, 59
1, 265142, Note_off_c, 0, 60, 48
1, 265153, Control_c, 0, 64, 70
1, 265168, Control_c, 0, 64, 78
1, 265169, Note_off_c, 0, 63, 36
1, 265181, Note_off_c, 0, 48, 0
1, 265183, Control_c, 0, 64, 90
1, 265197, Control_c, 0, 64, 111
1, 265219, Control_c, 0, 64, 127
1, 265222, Note_on_c, 0, 48, 16
1, 265238, Note_on_c, 0, 70, 66
1, 265251, Note_on_c, 0, 63, 30
1, 265252, Note_on_c, 0, 51, 38
1, 265292, Note_off_c, 0, 51, 45
1, 265292, Note_off_c, 0, 63, 47
1, 265301, Note_off_c, 0, 70, 58
1, 265357, Note_off_c, 0, 48, 0
1, 265370, Note_on_c, 0, 70, 62
1, 265375, Note_on_c, 0, 48, 24
1, 265391, Note_on_c, 0, 51, 47
1, 265397, Note_on_c, 0, 63, 44
1, 265425, Poly_aftertouch_c, 0, 60, 127
1, 265425, Note_off_c, 0, 51, 56
1, 265431, Note_off_c, 0, 63, 50
1, 265439, Note_off_c, 0, 70, 57
1, 265478, Poly_aftertouch_c, 0, 60, 0
1, 265493, Note_off_c, 0, 48, 0
1, 265513, Note_on_c, 0, 48, 16
1, 265523, Note_on_c, 0, 69, 65
1, 265533, Note_on_c, 0, 60, 28
1, 265537, Note_on_c, 0, 63, 35
1, 265550, Note_on_c, 0, 51, 38
1, 265571, Note_off_c, 0, 69, 58
1, 265574, Note_off_c, 0, 63, 50
1, 265580, Note_off_c, 0, 51, 55
1, 265588, Note_off_c, 0, 60, 49
1, 265596, Note_off_c, 0, 48, 49
1, 265672, Note_on_c, 0, 51, 48
1, 265674, Note_on_c, 0, 48, 30
1, 265677, Note_on_c, 0, 69, 62
1, 265694, Note_on_c, 0, 63, 36
1, 265710, Note_on_c, 0, 60, 15
1, 265716, Note_off_c, 0, 48, 58
1, 265716, Note_off_c, 0, 51, 53
1, 265728, Note_off_c, 0, 69, 55
1, 265729, Note_off_c, 0, 63, 51
1, 265757, Note_off_c, 0, 60, 41
1, 265810, Note_on_c, 0, 69, 60
1, 265836, Note_on_c, 0, 51, 23
1, 265879, Note_off_c, 0, 69, 63
1, 265887, Poly_aftertouch_c, 0, 48, 127
1, 265887, Note_off_c, 0, 51, 44
1, 265930, Poly_aftertouch_c, 0, 48, 0
1, 265980, Note_on_c, 0, 67, 61
1, 265983, Control_c, 0, 64, 97
1, 265993, Note_on_c, 0, 58, 48
1, 265996, Note_on_c, 0, 62, 41
1, 265997, Control_c, 0, 64, 76
1, 265999, Note_on_c, 0, 50, 36
1, 266012, Control_c, 0, 64, 65
1, 266027, Control_c, 0, 64, 60
1, 266038, Note_off_c, 0, 62, 49
1, 266042, Control_c, 0, 64, 62
1, 266045, Note_off_c, 0, 58, 56
1, 266054, Note_off_c, 0, 50, 43
1, 266057, Control_c, 0, 64, 64
1, 266071, Control_c, 0, 64, 67
1, 266072, Note_off_c, 0, 67, 58
1, 266086, Control_c, 0, 64, 72
1, 266101, Control_c, 0, 64, 81
1, 266116, Control_c, 0, 64, 92
1, 266126, Note_on_c, 0, 67, 39
1, 266131, Control_c, 0, 64, 104
1, 266134, Note_on_c, 0, 50, 34
1, 266138, Note_on_c, 0, 58, 45
1, 266145, Control_c, 0, 64, 113
1, 266151, Note_on_c, 0, 62, 43
1, 266160, Control_c, 0, 64, 127
1, 266180, Note_off_c, 0, 50, 55
1, 266193, Note_off_c, 0, 62, 56
1, 266202, Note_off_c, 0, 58, 51
1, 266207, Note_off_c, 0, 67, 56
1, 266257, Note_on_c, 0, 67, 47
1, 266281, Note_on_c, 0, 58, 26
1, 266304, Note_on_c, 0, 50, 28
1, 266324, Note_off_c, 0, 67, 56
1, 266333, Note_off_c, 0, 58, 48
1, 266346, Note_off_c, 0, 50, 48
1, 266437, Note_on_c, 0, 66, 54
1, 266438, Note_on_c, 0, 50, 28
1, 266455, Note_on_c, 0, 62, 27
1, 266486, Note_off_c, 0, 66, 57
1, 266486, Poly_aftertouch_c, 0, 57, 127
1, 266495, Note_off_c, 0, 62, 51
1, 266500, Note_off_c, 0, 50, 42
1, 266526, Poly_aftertouch_c, 0, 57, 0
1, 266611, Note_on_c, 0, 50, 37
1, 266619, Note_on_c, 0, 62, 35
1, 266620, Note_on_c, 0, 66, 49
1, 266630, Note_on_c, 0, 57, 28
1, 266668, Note_off_c, 0, 50, 54
1, 266670, Note_off_c, 0, 62, 56
1, 266674, Note_off_c, 0, 57, 49
1, 266681, Note_off_c, 0, 66, 50
1, 266820, Note_on_c, 0, 66, 42
1, 266836, Note_on_c, 0, 50, 29
1, 266842, Note_on_c, 0, 57, 16
1, 266846, Note_on_c, 0, 62, 26
1, 266889, Note_off_c, 0, 57, 49
1, 266900, Note_off_c, 0, 62, 46
1, 266939, Note_off_c, 0, 66, 50
1, 266945, Note_off_c, 0, 50, 37
1, 267147, Control_c, 0, 64, 121
1, 267158, Note_on_c, 0, 43, 28
1, 267162, Control_c, 0, 64, 116
1, 267167, Note_on_c, 0, 67, 44
1, 267177, Note_on_c, 0, 58, 32
1, 267177, Control_c, 0, 64, 113
1, 267184, Note_on_c, 0, 62, 35
1, 267191, Control_c, 0, 64, 108
1, 267200, Note_on_c, 0, 50, 16
1, 267206, Control_c, 0, 64, 103
1, 267221, Control_c, 0, 64, 94
1, 267235, Control_c, 0, 64, 81
1, 267250, Control_c, 0, 64, 68
1, 267265, Control_c, 0, 64, 60
1, 267280, Control_c, 0, 64, 53
1, 267288, Note_off_c, 0, 50, 37
1, 267295, Control_c, 0, 64, 52
1, 267309, Control_c, 0, 64, 54
1, 267324, Control_c, 0, 64, 58
1, 267339, Control_c, 0, 64, 64
1, 267354, Control_c, 0, 64, 67
1, 267369, Control_c, 0, 64, 73
1, 267383, Control_c, 0, 64, 80
1, 267398, Control_c, 0, 64, 88
1, 267413, Control_c, 0, 64, 95
1, 267419, Note_on_c, 0, 50, 32
1, 267428, Control_c, 0, 64, 102
1, 267443, Control_c, 0, 64, 111
1, 267465, Control_c, 0, 64, 127
1, 267526, Note_off_c, 0, 58, 34
1, 267542, Note_off_c, 0, 67, 39
1, 267558, Note_off_c, 0, 50, 0
1, 267574, Note_off_c, 0, 62, 38
1, 267576, Note_on_c, 0, 50, 30
1, 267708, Note_off_c, 0, 50, 0
1, 267728, Note_on_c, 0, 50, 18
1, 267851, Note_off_c, 0, 50, 0
1, 267874, Note_on_c, 0, 50, 16
1, 268003, Note_off_c, 0, 50, 0
1, 268024, Note_on_c, 0, 50, 19
1, 268117, Note_off_c, 0, 50, 37
1, 268185, Note_on_c, 0, 50, 28
1, 268262, Note_off_c, 0, 50, 47
1, 268351, Note_on_c, 0, 50, 34
1, 268415, Note_off_c, 0, 50, 44
1, 268504, Note_on_c, 0, 50, 31
1, 268570, Note_off_c, 0, 50, 45
1, 268585, Control_c, 0, 64, 123
1, 268616, Control_c, 0, 64, 121
1, 268631, Control_c, 0, 64, 119
1, 268645, Control_c, 0, 64, 117
1, 268694, Note_on_c, 0, 50, 12
1, 268701, Note_on_c, 0, 67, 49
1, 268799, Note_off_c, 0, 50, 36
1, 268811, Note_off_c, 0, 67, 54
1, 268890, Note_on_c, 0, 50, 32
1, 268947, Note_off_c, 0, 50, 56
1, 269088, Note_off_c, 0, 43, 24
1, 269148, Note_on_c, 0, 50, 8
1, 269222, Note_off_c, 0, 50, 41
1, 269344, Note_on_c, 0, 70, 37
1, 269595, Note_on_c, 0, 74, 48
1, 269616, Control_c, 0, 64, 115
1, 269631, Control_c, 0, 64, 114
1, 269634, Note_off_c, 0, 70, 39
1, 269646, Control_c, 0, 64, 112
1, 269661, Control_c, 0, 64, 107
1, 269676, Control_c, 0, 64, 97
1, 269690, Control_c, 0, 64, 85
1, 269712, Control_c, 0, 64, 73
1, 269727, Control_c, 0, 64, 65
1, 269742, Control_c, 0, 64, 61
1, 269757, Control_c, 0, 64, 61
1, 269772, Control_c, 0, 64, 63
1, 269787, Control_c, 0, 64, 64
1, 269801, Control_c, 0, 64, 67
1, 269816, Control_c, 0, 64, 70
1, 269820, Note_on_c, 0, 62, 20
1, 269831, Control_c, 0, 64, 74
1, 269845, Control_c, 0, 64, 79
1, 269860, Control_c, 0, 64, 85
1, 269875, Control_c, 0, 64, 90
1, 269890, Control_c, 0, 64, 95
1, 269905, Control_c, 0, 64, 99
1, 269920, Control_c, 0, 64, 100
1, 269962, Note_on_c, 0, 43, 38
1, 269963, Note_on_c, 0, 67, 37
1, 269965, Note_off_c, 0, 62, 33
1, 270009, Note_off_c, 0, 43, 60
1, 270053, Control_c, 0, 64, 99
1, 270058, Note_off_c, 0, 67, 52
1, 270063, Note_off_c, 0, 74, 35
1, 270083, Note_on_c, 0, 70, 49
1, 270112, Control_c, 0, 64, 98
1, 270127, Control_c, 0, 64, 97
1, 270142, Control_c, 0, 64, 93
1, 270157, Control_c, 0, 64, 85
1, 270172, Control_c, 0, 64, 75
1, 270186, Control_c, 0, 64, 66
1, 270201, Control_c, 0, 64, 59
1, 270207, Note_on_c, 0, 74, 52
1, 270217, Control_c, 0, 64, 55
1, 270232, Control_c, 0, 64, 56
1, 270241, Note_off_c, 0, 70, 36
1, 270247, Control_c, 0, 64, 57
1, 270261, Control_c, 0, 64, 60
1, 270276, Control_c, 0, 64, 63
1, 270291, Control_c, 0, 64, 66
1, 270306, Control_c, 0, 64, 69
1, 270321, Control_c, 0, 64, 72
1, 270326, Note_on_c, 0, 62, 38
1, 270335, Control_c, 0, 64, 76
1, 270350, Control_c, 0, 64, 80
1, 270365, Control_c, 0, 64, 83
1, 270380, Control_c, 0, 64, 86
1, 270395, Control_c, 0, 64, 89
1, 270400, Note_off_c, 0, 62, 51
1, 270406, Note_on_c, 0, 43, 36
1, 270409, Control_c, 0, 64, 91
1, 270424, Control_c, 0, 64, 92
1, 270450, Note_on_c, 0, 67, 39
1, 270461, Control_c, 0, 64, 92
1, 270480, Note_off_c, 0, 43, 52
1, 270506, Note_off_c, 0, 74, 29
1, 270506, Control_c, 0, 64, 92
1, 270535, Control_c, 0, 64, 91
1, 270543, Note_off_c, 0, 67, 55
1, 270549, Control_c, 0, 64, 91
1, 270556, Note_on_c, 0, 70, 50
1, 270564, Control_c, 0, 64, 89
1, 270579, Control_c, 0, 64, 87
1, 270594, Control_c, 0, 64, 82
1, 270609, Control_c, 0, 64, 74
1, 270623, Control_c, 0, 64, 66
1, 270638, Control_c, 0, 64, 61
1, 270653, Control_c, 0, 64, 58
1, 270664, Note_off_c, 0, 70, 59
1, 270665, Note_on_c, 0, 74, 62
1, 270668, Control_c, 0, 64, 56
1, 270698, Control_c, 0, 64, 58
1, 270713, Control_c, 0, 64, 60
1, 270728, Control_c, 0, 64, 63
1, 270742, Control_c, 0, 64, 65
1, 270757, Control_c, 0, 64, 68
1, 270772, Control_c, 0, 64, 71
1, 270785, Note_on_c, 0, 62, 37
1, 270787, Control_c, 0, 64, 76
1, 270802, Control_c, 0, 64, 80
1, 270816, Control_c, 0, 64, 83
1, 270831, Control_c, 0, 64, 86
1, 270846, Control_c, 0, 64, 88
1, 270855, Note_off_c, 0, 62, 51
1, 270860, Control_c, 0, 64, 90
1, 270873, Note_on_c, 0, 38, 40
1, 270875, Control_c, 0, 64, 92
1, 270890, Control_c, 0, 64, 94
1, 270897, Note_on_c, 0, 66, 47
1, 270905, Control_c, 0, 64, 96
1, 270920, Control_c, 0, 64, 97
1, 270934, Note_off_c, 0, 38, 49
1, 270934, Control_c, 0, 64, 98
1, 270952, Note_off_c, 0, 66, 57
1, 270970, Note_off_c, 0, 74, 36
1, 270987, Note_on_c, 0, 69, 56
1, 271010, Control_c, 0, 64, 97
1, 271025, Control_c, 0, 64, 95
1, 271039, Control_c, 0, 64, 92
1, 271054, Control_c, 0, 64, 87
1, 271069, Control_c, 0, 64, 77
1, 271083, Control_c, 0, 64, 68
1, 271098, Control_c, 0, 64, 62
1, 271103, Note_on_c, 0, 74, 66
1, 271103, Note_off_c, 0, 69, 62
1, 271113, Control_c, 0, 64, 59
1, 271128, Control_c, 0, 64, 58
1, 271143, Control_c, 0, 64, 59
1, 271157, Control_c, 0, 64, 60
1, 271172, Control_c, 0, 64, 63
1, 271187, Control_c, 0, 64, 65
1, 271210, Control_c, 0, 64, 68
1, 271225, Control_c, 0, 64, 72
1, 271235, Note_on_c, 0, 62, 45
1, 271239, Control_c, 0, 64, 77
1, 271254, Control_c, 0, 64, 81
1, 271269, Control_c, 0, 64, 85
1, 271283, Control_c, 0, 64, 87
1, 271299, Control_c, 0, 64, 89
1, 271306, Note_off_c, 0, 62, 57
1, 271314, Control_c, 0, 64, 91
1, 271324, Note_on_c, 0, 43, 44
1, 271329, Control_c, 0, 64, 92
1, 271336, Note_on_c, 0, 67, 53
1, 271344, Control_c, 0, 64, 93
1, 271363, Note_off_c, 0, 74, 60
1, 271376, Note_off_c, 0, 43, 59
1, 271403, Control_c, 0, 64, 92
1, 271418, Control_c, 0, 64, 92
1, 271432, Control_c, 0, 64, 91
1, 271434, Note_off_c, 0, 67, 59
1, 271442, Note_on_c, 0, 70, 63
1, 271447, Control_c, 0, 64, 91
1, 271462, Control_c, 0, 64, 90
1, 271491, Control_c, 0, 64, 89
1, 271506, Control_c, 0, 64, 88
1, 271521, Control_c, 0, 64, 87
1, 271536, Control_c, 0, 64, 85
1, 271551, Control_c, 0, 64, 84
1, 271565, Control_c, 0, 64, 83
1, 271580, Control_c, 0, 64, 82
1, 271592, Note_on_c, 0, 75, 68
1, 271594, Note_off_c, 0, 70, 58
1, 271595, Control_c, 0, 64, 80
1, 271610, Control_c, 0, 64, 77
1, 271625, Control_c, 0, 64, 72
1, 271640, Control_c, 0, 64, 67
1, 271655, Control_c, 0, 64, 63
1, 271670, Control_c, 0, 64, 60
1, 271684, Control_c, 0, 64, 59
1, 271699, Control_c, 0, 64, 58
1, 271729, Control_c, 0, 64, 59
1, 271732, Note_on_c, 0, 63, 40
1, 271744, Control_c, 0, 64, 60
1, 271758, Control_c, 0, 64, 62
1, 271773, Control_c, 0, 64, 64
1, 271788, Control_c, 0, 64, 65
1, 271804, Control_c, 0, 64, 67
1, 271807, Note_off_c, 0, 63, 56
1, 271819, Control_c, 0, 64, 70
1, 271834, Control_c, 0, 64, 73
1, 271840, Note_on_c, 0, 67, 46
1, 271849, Control_c, 0, 64, 76
1, 271852, Note_on_c, 0, 36, 36
1, 271863, Control_c, 0, 64, 79
1, 271878, Control_c, 0, 64, 80
1, 271894, Note_off_c, 0, 67, 59
1, 271902, Note_off_c, 0, 36, 59
1, 271947, Note_on_c, 0, 72, 51
1, 271974, Control_c, 0, 64, 79
1, 271989, Control_c, 0, 64, 79
1, 272004, Control_c, 0, 64, 78
1, 272019, Control_c, 0, 64, 76
1, 272027, Note_off_c, 0, 72, 50
1, 272033, Control_c, 0, 64, 73
1, 272048, Control_c, 0, 64, 69
1, 272063, Control_c, 0, 64, 65
1, 272066, Note_on_c, 0, 66, 48
1, 272078, Control_c, 0, 64, 61
1, 272093, Control_c, 0, 64, 58
1, 272105, Note_off_c, 0, 66, 63
1, 272107, Control_c, 0, 64, 57
1, 272122, Control_c, 0, 64, 56
1, 272137, Control_c, 0, 64, 55
1, 272152, Control_c, 0, 64, 55
1, 272153, Note_on_c, 0, 72, 54
1, 272181, Control_c, 0, 64, 55
1, 272196, Control_c, 0, 64, 58
1, 272211, Control_c, 0, 64, 61
1, 272226, Control_c, 0, 64, 64
1, 272240, Control_c, 0, 64, 66
1, 272255, Control_c, 0, 64, 68
1, 272260, Note_on_c, 0, 36, 47
1, 272265, Note_on_c, 0, 69, 53
1, 272270, Control_c, 0, 64, 71
1, 272281, Note_off_c, 0, 72, 56
1, 272285, Control_c, 0, 64, 73
1, 272296, Note_off_c, 0, 36, 63
1, 272299, Note_off_c, 0, 75, 54
1, 272300, Control_c, 0, 64, 74
1, 272314, Control_c, 0, 64, 75
1, 272329, Control_c, 0, 64, 75
1, 272359, Note_on_c, 0, 66, 52
1, 272359, Control_c, 0, 64, 76
1, 272411, Note_off_c, 0, 66, 55
1, 272418, Control_c, 0, 64, 75
1, 272433, Control_c, 0, 64, 74
1, 272448, Control_c, 0, 64, 73
1, 272460, Note_on_c, 0, 74, 67
1, 272463, Control_c, 0, 64, 70
1, 272475, Note_off_c, 0, 69, 40
1, 272478, Control_c, 0, 64, 67
1, 272493, Control_c, 0, 64, 63
1, 272507, Control_c, 0, 64, 59
1, 272522, Control_c, 0, 64, 58
1, 272537, Control_c, 0, 64, 57
1, 272552, Control_c, 0, 64, 56
1, 272566, Note_on_c, 0, 62, 55
1, 272581, Control_c, 0, 64, 57
1, 272596, Control_c, 0, 64, 59
1, 272612, Control_c, 0, 64, 62
1, 272627, Control_c, 0, 64, 65
1, 272642, Control_c, 0, 64, 68
1, 272649, Note_off_c, 0, 62, 60
1, 272656, Control_c, 0, 64, 72
1, 272671, Control_c, 0, 64, 76
1, 272685, Note_on_c, 0, 67, 52
1, 272686, Note_on_c, 0, 43, 53
1, 272686, Control_c, 0, 64, 78
1, 272708, Control_c, 0, 64, 80
1, 272728, Note_off_c, 0, 43, 63
1, 272737, Control_c, 0, 64, 79
1, 272767, Control_c, 0, 64, 79
1, 272770, Note_off_c, 0, 67, 62
1, 272782, Control_c, 0, 64, 78
1, 272797, Note_on_c, 0, 70, 50
1, 272797, Control_c, 0, 64, 77
1, 272811, Control_c, 0, 64, 75
1, 272826, Control_c, 0, 64, 71
1, 272841, Control_c, 0, 64, 67
1, 272842, Note_off_c, 0, 70, 60
1, 272856, Control_c, 0, 64, 63
1, 272871, Control_c, 0, 64, 60
1, 272886, Control_c, 0, 64, 58
1, 272899, Note_on_c, 0, 62, 54
1, 272901, Control_c, 0, 64, 56
1, 272916, Control_c, 0, 64, 55
1, 272930, Control_c, 0, 64, 54
1, 272945, Control_c, 0, 64, 52
1, 272946, Note_off_c, 0, 62, 60
1, 272960, Control_c, 0, 64, 51
1, 272975, Control_c, 0, 64, 50
1, 272990, Note_on_c, 0, 70, 49
1, 273019, Control_c, 0, 64, 51
1, 273034, Control_c, 0, 64, 54
1, 273049, Control_c, 0, 64, 58
1, 273063, Control_c, 0, 64, 62
1, 273078, Control_c, 0, 64, 64
1, 273092, Note_on_c, 0, 43, 42
1, 273093, Control_c, 0, 64, 66
1, 273095, Note_off_c, 0, 70, 56
1, 273104, Note_on_c, 0, 67, 49
1, 273108, Control_c, 0, 64, 68
1, 273121, Note_off_c, 0, 74, 57
1, 273123, Control_c, 0, 64, 70
1, 273133, Note_off_c, 0, 43, 62
1, 273137, Control_c, 0, 64, 72
1, 273152, Control_c, 0, 64, 74
1, 273165, Note_off_c, 0, 67, 60
1, 273167, Control_c, 0, 64, 74
1, 273182, Control_c, 0, 64, 75
1, 273201, Note_on_c, 0, 62, 54
1, 273226, Control_c, 0, 64, 74
1, 273241, Control_c, 0, 64, 74
1, 273256, Control_c, 0, 64, 73
1, 273271, Control_c, 0, 64, 73
1, 273276, Note_off_c, 0, 62, 56
1, 273285, Control_c, 0, 64, 72
1, 273300, Control_c, 0, 64, 71
1, 273313, Note_on_c, 0, 72, 65
1, 273315, Control_c, 0, 64, 69
1, 273330, Control_c, 0, 64, 68
1, 273345, Control_c, 0, 64, 65
1, 273360, Control_c, 0, 64, 63
1, 273375, Control_c, 0, 64, 60
1, 273390, Control_c, 0, 64, 58
1, 273400, Note_on_c, 0, 60, 53
1, 273405, Control_c, 0, 64, 56
1, 273420, Control_c, 0, 64, 56
1, 273449, Control_c, 0, 64, 56
1, 273472, Control_c, 0, 64, 59
1, 273481, Note_off_c, 0, 60, 54
1, 273486, Control_c, 0, 64, 62
1, 273501, Control_c, 0, 64, 65
1, 273516, Control_c, 0, 64, 67
1, 273530, Note_on_c, 0, 44, 50
1, 273531, Control_c, 0, 64, 69
1, 273544, Note_on_c, 0, 63, 46
1, 273546, Control_c, 0, 64, 72
1, 273560, Control_c, 0, 64, 73
1, 273564, Note_off_c, 0, 44, 64
1, 273601, Note_off_c, 0, 63, 60
1, 273633, Note_on_c, 0, 66, 52
1, 273634, Control_c, 0, 64, 73
1, 273649, Control_c, 0, 64, 72
1, 273664, Control_c, 0, 64, 70
1, 273679, Control_c, 0, 64, 65
1, 273685, Note_off_c, 0, 66, 59
1, 273694, Control_c, 0, 64, 61
1, 273709, Control_c, 0, 64, 57
1, 273724, Control_c, 0, 64, 55
1, 273736, Note_on_c, 0, 60, 54
1, 273739, Control_c, 0, 64, 54
1, 273753, Control_c, 0, 64, 52
1, 273768, Control_c, 0, 64, 50
1, 273783, Control_c, 0, 64, 50
1, 273791, Note_off_c, 0, 60, 58
1, 273813, Control_c, 0, 64, 50
1, 273827, Control_c, 0, 64, 53
1, 273828, Note_on_c, 0, 66, 51
1, 273842, Control_c, 0, 64, 57
1, 273857, Control_c, 0, 64, 61
1, 273872, Control_c, 0, 64, 63
1, 273886, Control_c, 0, 64, 65
1, 273901, Control_c, 0, 64, 68
1, 273905, Note_off_c, 0, 72, 41
1, 273916, Control_c, 0, 64, 71
1, 273929, Note_on_c, 0, 45, 53
1, 273931, Control_c, 0, 64, 74
1, 273938, Note_on_c, 0, 63, 59
1, 273946, Control_c, 0, 64, 76
1, 273956, Note_off_c, 0, 66, 55
1, 273960, Control_c, 0, 64, 76
1, 273974, Note_off_c, 0, 45, 64
1, 274019, Note_off_c, 0, 63, 57
1, 274020, Note_on_c, 0, 60, 63
1, 274034, Control_c, 0, 64, 76
1, 274064, Control_c, 0, 64, 75
1, 274078, Control_c, 0, 64, 74
1, 274090, Note_off_c, 0, 60, 63
1, 274093, Control_c, 0, 64, 72
1, 274108, Control_c, 0, 64, 69
1, 274120, Note_on_c, 0, 70, 72
1, 274123, Control_c, 0, 64, 65
1, 274138, Control_c, 0, 64, 61
1, 274153, Control_c, 0, 64, 58
1, 274168, Control_c, 0, 64, 55
1, 274183, Control_c, 0, 64, 52
1, 274206, Control_c, 0, 64, 49
1, 274221, Control_c, 0, 64, 47
1, 274236, Note_on_c, 0, 58, 59
1, 274236, Control_c, 0, 64, 46
1, 274265, Control_c, 0, 64, 48
1, 274280, Control_c, 0, 64, 53
1, 274293, Control_c, 0, 64, 59
1, 274308, Control_c, 0, 64, 62
1, 274311, Note_off_c, 0, 58, 61
1, 274323, Control_c, 0, 64, 64
1, 274338, Control_c, 0, 64, 67
1, 274351, Note_on_c, 0, 62, 52
1, 274353, Control_c, 0, 64, 69
1, 274368, Note_on_c, 0, 46, 57
1, 274368, Control_c, 0, 64, 72
1, 274382, Control_c, 0, 64, 73
1, 274394, Note_off_c, 0, 46, 62
1, 274397, Control_c, 0, 64, 74
1, 274399, Note_off_c, 0, 62, 62
1, 274433, Note_on_c, 0, 67, 55
1, 274471, Control_c, 0, 64, 73
1, 274486, Control_c, 0, 64, 73
1, 274500, Control_c, 0, 64, 71
1, 274515, Control_c, 0, 64, 69
1, 274526, Note_off_c, 0, 67, 61
1, 274530, Control_c, 0, 64, 65
1, 274545, Control_c, 0, 64, 61
1, 274549, Note_on_c, 0, 58, 59
1, 274560, Control_c, 0, 64, 56
1, 274574, Control_c, 0, 64, 53
1, 274589, Control_c, 0, 64, 50
1, 274604, Control_c, 0, 64, 45
1, 274619, Control_c, 0, 64, 41
1, 274623, Note_off_c, 0, 58, 56
1, 274633, Control_c, 0, 64, 39
1, 274648, Control_c, 0, 64, 38
1, 274657, Note_on_c, 0, 67, 58
1, 274693, Control_c, 0, 64, 39
1, 274707, Control_c, 0, 64, 45
1, 274722, Control_c, 0, 64, 53
1, 274737, Control_c, 0, 64, 59
1, 274752, Control_c, 0, 64, 62
1, 274755, Note_on_c, 0, 50, 44
1, 274763, Note_on_c, 0, 62, 55
1, 274767, Control_c, 0, 64, 64
1, 274779, Note_off_c, 0, 70, 52
1, 274782, Control_c, 0, 64, 66
1, 274782, Note_off_c, 0, 67, 54
1, 274797, Control_c, 0, 64, 68
1, 274803, Note_off_c, 0, 50, 60
1, 274812, Control_c, 0, 64, 71
1, 274826, Control_c, 0, 64, 72
1, 274854, Note_on_c, 0, 58, 57
1, 274886, Control_c, 0, 64, 71
1, 274900, Control_c, 0, 64, 71
1, 274915, Control_c, 0, 64, 70
1, 274923, Note_off_c, 0, 58, 57
1, 274930, Control_c, 0, 64, 69
1, 274952, Control_c, 0, 64, 67
1, 274967, Control_c, 0, 64, 64
1, 274973, Note_off_c, 0, 62, 24
1, 274973, Note_on_c, 0, 69, 65
1, 274982, Control_c, 0, 64, 59
1, 274996, Control_c, 0, 64, 54
1, 275012, Control_c, 0, 64, 52
1, 275027, Control_c, 0, 64, 50
1, 275058, Control_c, 0, 64, 51
1, 275070, Note_on_c, 0, 57, 55
1, 275073, Control_c, 0, 64, 56
1, 275087, Control_c, 0, 64, 60
1, 275102, Control_c, 0, 64, 63
1, 275117, Control_c, 0, 64, 65
1, 275131, Control_c, 0, 64, 68
1, 275146, Note_off_c, 0, 57, 60
1, 275146, Control_c, 0, 64, 70
1, 275161, Control_c, 0, 64, 72
1, 275176, Control_c, 0, 64, 74
1, 275181, Note_on_c, 0, 51, 49
1, 275182, Note_off_c, 0, 69, 50
1, 275187, Note_on_c, 0, 60, 52
1, 275191, Control_c, 0, 64, 74
1, 275205, Control_c, 0, 64, 75
1, 275220, Control_c, 0, 64, 75
1, 275221, Note_off_c, 0, 51, 61
1, 275235, Control_c, 0, 64, 76
1, 275239, Note_off_c, 0, 60, 56
1, 275259, Note_on_c, 0, 67, 64
1, 275309, Control_c, 0, 64, 75
1, 275324, Control_c, 0, 64, 75
1, 275339, Control_c, 0, 64, 74
1, 275352, Note_off_c, 0, 67, 61
1, 275354, Control_c, 0, 64, 73
1, 275369, Control_c, 0, 64, 72
1, 275371, Note_on_c, 0, 72, 76
1, 275384, Control_c, 0, 64, 69
1, 275399, Control_c, 0, 64, 65
1, 275413, Control_c, 0, 64, 59
1, 275428, Control_c, 0, 64, 55
1, 275443, Control_c, 0, 64, 54
1, 275457, Control_c, 0, 64, 53
1, 275472, Control_c, 0, 64, 54
1, 275483, Note_on_c, 0, 63, 62
1, 275487, Control_c, 0, 64, 56
1, 275502, Control_c, 0, 64, 60
1, 275517, Control_c, 0, 64, 63
1, 275531, Control_c, 0, 64, 66
1, 275546, Control_c, 0, 64, 68
1, 275555, Note_off_c, 0, 63, 61
1, 275561, Control_c, 0, 64, 71
1, 275569, Note_on_c, 0, 67, 62
1, 275576, Note_on_c, 0, 48, 52
1, 275576, Control_c, 0, 64, 73
1, 275587, Note_off_c, 0, 72, 63
1, 275591, Control_c, 0, 64, 74
1, 275615, Note_off_c, 0, 48, 63
1, 275646, Note_off_c, 0, 67, 64
1, 275664, Control_c, 0, 64, 74
1, 275668, Note_on_c, 0, 69, 62
1, 275679, Control_c, 0, 64, 73
1, 275702, Control_c, 0, 64, 72
1, 275717, Control_c, 0, 64, 70
1, 275731, Control_c, 0, 64, 66
1, 275746, Control_c, 0, 64, 62
1, 275761, Control_c, 0, 64, 59
1, 275774, Note_off_c, 0, 69, 62
1, 275776, Control_c, 0, 64, 56
1, 275781, Note_on_c, 0, 70, 71
1, 275791, Control_c, 0, 64, 54
1, 275807, Control_c, 0, 64, 51
1, 275822, Control_c, 0, 64, 49
1, 275836, Control_c, 0, 64, 49
1, 275866, Control_c, 0, 64, 50
1, 275880, Control_c, 0, 64, 53
1, 275895, Control_c, 0, 64, 57
1, 275906, Note_on_c, 0, 58, 44
1, 275910, Control_c, 0, 64, 60
1, 275925, Control_c, 0, 64, 62
1, 275940, Control_c, 0, 64, 64
1, 275954, Control_c, 0, 64, 66
1, 275969, Control_c, 0, 64, 69
1, 275972, Note_off_c, 0, 58, 59
1, 275984, Control_c, 0, 64, 71
1, 275999, Control_c, 0, 64, 74
1, 276003, Note_on_c, 0, 62, 46
1, 276014, Control_c, 0, 64, 75
1, 276028, Control_c, 0, 64, 75
1, 276037, Note_on_c, 0, 50, 43
1, 276057, Note_off_c, 0, 70, 55
1, 276075, Note_off_c, 0, 62, 54
1, 276081, Note_off_c, 0, 50, 62
1, 276099, Note_on_c, 0, 67, 53
1, 276102, Control_c, 0, 64, 75
1, 276117, Control_c, 0, 64, 74
1, 276132, Control_c, 0, 64, 74
1, 276147, Control_c, 0, 64, 73
1, 276162, Control_c, 0, 64, 72
1, 276177, Control_c, 0, 64, 71
1, 276192, Control_c, 0, 64, 69
1, 276207, Control_c, 0, 64, 68
1, 276210, Note_off_c, 0, 67, 59
1, 276213, Note_on_c, 0, 69, 57
1, 276222, Control_c, 0, 64, 66
1, 276236, Control_c, 0, 64, 65
1, 276251, Control_c, 0, 64, 63
1, 276266, Control_c, 0, 64, 59
1, 276280, Control_c, 0, 64, 56
1, 276295, Control_c, 0, 64, 54
1, 276310, Control_c, 0, 64, 53
1, 276325, Control_c, 0, 64, 52
1, 276351, Note_on_c, 0, 60, 40
1, 276369, Control_c, 0, 64, 53
1, 276384, Control_c, 0, 64, 54
1, 276399, Control_c, 0, 64, 57
1, 276414, Control_c, 0, 64, 59
1, 276425, Note_off_c, 0, 60, 53
1, 276428, Control_c, 0, 64, 61
1, 276451, Control_c, 0, 64, 63
1, 276466, Control_c, 0, 64, 65
1, 276466, Note_on_c, 0, 38, 25
1, 276480, Control_c, 0, 64, 68
1, 276495, Control_c, 0, 64, 71
1, 276500, Note_on_c, 0, 62, 33
1, 276510, Control_c, 0, 64, 74
1, 276525, Control_c, 0, 64, 77
1, 276532, Note_off_c, 0, 38, 51
1, 276539, Control_c, 0, 64, 78
1, 276578, Note_off_c, 0, 69, 34
1, 276583, Note_off_c, 0, 62, 55
1, 276585, Note_on_c, 0, 66, 49
1, 276614, Control_c, 0, 64, 77
1, 276644, Control_c, 0, 64, 77
1, 276673, Control_c, 0, 64, 76
1, 276688, Control_c, 0, 64, 75
1, 276702, Control_c, 0, 64, 75
1, 276717, Control_c, 0, 64, 74
1, 276722, Note_off_c, 0, 66, 55
1, 276732, Control_c, 0, 64, 73
1, 276743, Note_on_c, 0, 67, 45
1, 276747, Control_c, 0, 64, 73
1, 276762, Control_c, 0, 64, 72
1, 276776, Control_c, 0, 64, 72
1, 276791, Control_c, 0, 64, 71
1, 276806, Control_c, 0, 64, 70
1, 276821, Control_c, 0, 64, 69
1, 276836, Control_c, 0, 64, 68
1, 276851, Control_c, 0, 64, 67
1, 276866, Control_c, 0, 64, 67
1, 276880, Control_c, 0, 64, 66
1, 276893, Note_on_c, 0, 55, 37
1, 276895, Control_c, 0, 64, 65
1, 276910, Control_c, 0, 64, 64
1, 276925, Control_c, 0, 64, 63
1, 276940, Control_c, 0, 64, 63
1, 276955, Control_c, 0, 64, 62
1, 276969, Control_c, 0, 64, 60
1, 276971, Note_off_c, 0, 55, 55
1, 276979, Note_on_c, 0, 43, 44
1, 276982, Note_on_c, 0, 58, 45
1, 276984, Control_c, 0, 64, 58
1, 276999, Control_c, 0, 64, 57
1, 277014, Control_c, 0, 64, 55
1, 277026, Note_off_c, 0, 43, 59
1, 277029, Control_c, 0, 64, 54
1, 277043, Control_c, 0, 64, 54
1, 277058, Control_c, 0, 64, 53
1, 277065, Note_off_c, 0, 58, 60
1, 277073, Control_c, 0, 64, 53
1, 277088, Control_c, 0, 64, 52
1, 277095, Note_on_c, 0, 62, 41
1, 277117, Control_c, 0, 64, 52
1, 277174, Note_on_c, 0, 45, 63
1, 277176, Note_off_c, 0, 62, 54
1, 277176, Control_c, 0, 64, 51
1, 277190, Note_on_c, 0, 63, 53
1, 277231, Note_off_c, 0, 45, 61
1, 277273, Control_c, 0, 64, 51
1, 277285, Note_on_c, 0, 60, 61
1, 277293, Note_off_c, 0, 63, 58
1, 277357, Note_off_c, 0, 60, 63
1, 277366, Note_on_c, 0, 48, 70
1, 277380, Note_on_c, 0, 57, 62
1, 277391, Control_c, 0, 64, 50
1, 277420, Note_off_c, 0, 48, 62
1, 277445, Note_off_c, 0, 57, 62
1, 277480, Note_on_c, 0, 63, 56
1, 277553, Note_on_c, 0, 46, 72
1, 277606, Note_on_c, 0, 62, 47
1, 277619, Note_off_c, 0, 46, 63
1, 277643, Note_off_c, 0, 63, 47
1, 277659, Note_off_c, 0, 62, 61
1, 277659, Control_c, 0, 64, 51
1, 277680, Note_on_c, 0, 58, 60
1, 277688, Control_c, 0, 64, 51
1, 277752, Note_off_c, 0, 58, 58
1, 277756, Note_on_c, 0, 55, 70
1, 277786, Note_on_c, 0, 62, 57
1, 277813, Note_off_c, 0, 55, 62
1, 277838, Note_off_c, 0, 67, 40
1, 277858, Note_off_c, 0, 62, 58
1, 277878, Note_on_c, 0, 66, 62
1, 277960, Note_on_c, 0, 50, 51
1, 277974, Note_on_c, 0, 67, 61
1, 277978, Note_off_c, 0, 66, 61
1, 278002, Note_off_c, 0, 50, 64
1, 278028, Note_off_c, 0, 67, 56
1, 278037, Control_c, 0, 64, 51
1, 278066, Note_on_c, 0, 62, 60
1, 278111, Control_c, 0, 64, 50
1, 278155, Control_c, 0, 64, 50
1, 278159, Note_on_c, 0, 67, 53
1, 278167, Note_off_c, 0, 62, 52
1, 278175, Note_on_c, 0, 46, 41
1, 278217, Note_off_c, 0, 46, 64
1, 278230, Control_c, 0, 64, 50
1, 278245, Control_c, 0, 64, 51
1, 278260, Control_c, 0, 64, 52
1, 278265, Note_off_c, 0, 67, 60
1, 278275, Control_c, 0, 64, 53
1, 278279, Note_on_c, 0, 70, 50
1, 278304, Control_c, 0, 64, 54
1, 278319, Control_c, 0, 64, 55
1, 278334, Control_c, 0, 64, 55
1, 278363, Control_c, 0, 64, 56
1, 278372, Note_off_c, 0, 70, 56
1, 278383, Note_on_c, 0, 74, 51
1, 278452, Control_c, 0, 64, 56
1, 278467, Control_c, 0, 64, 57
1, 278482, Control_c, 0, 64, 58
1, 278496, Note_on_c, 0, 62, 35
1, 278496, Control_c, 0, 64, 59
1, 278511, Control_c, 0, 64, 60
1, 278526, Control_c, 0, 64, 62
1, 278541, Control_c, 0, 64, 63
1, 278556, Control_c, 0, 64, 65
1, 278571, Control_c, 0, 64, 66
1, 278575, Note_off_c, 0, 62, 53
1, 278585, Control_c, 0, 64, 67
1, 278593, Note_on_c, 0, 67, 37
1, 278600, Control_c, 0, 64, 69
1, 278609, Note_on_c, 0, 43, 49
1, 278615, Control_c, 0, 64, 70
1, 278642, Note_off_c, 0, 43, 63
1, 278675, Control_c, 0, 64, 70
1, 278687, Note_off_c, 0, 67, 59
1, 278687, Note_off_c, 0, 74, 37
1, 278696, Control_c, 0, 64, 69
1, 278698, Note_on_c, 0, 70, 55
1, 278711, Control_c, 0, 64, 68
1, 278726, Control_c, 0, 64, 67
1, 278741, Control_c, 0, 64, 65
1, 278755, Control_c, 0, 64, 62
1, 278770, Control_c, 0, 64, 57
1, 278786, Control_c, 0, 64, 55
1, 278801, Control_c, 0, 64, 53
1, 278805, Note_on_c, 0, 74, 69
1, 278807, Note_off_c, 0, 70, 60
1, 278816, Control_c, 0, 64, 51
1, 278830, Control_c, 0, 64, 48
1, 278845, Control_c, 0, 64, 46
1, 278860, Control_c, 0, 64, 45
1, 278875, Control_c, 0, 64, 44
1, 278890, Control_c, 0, 64, 44
1, 278916, Note_on_c, 0, 62, 49
1, 278934, Control_c, 0, 64, 47
1, 278949, Control_c, 0, 64, 52
1, 278964, Control_c, 0, 64, 57
1, 278979, Control_c, 0, 64, 60
1, 278987, Note_off_c, 0, 62, 54
1, 278994, Control_c, 0, 64, 63
1, 279007, Note_on_c, 0, 67, 56
1, 279008, Note_on_c, 0, 43, 57
1, 279009, Control_c, 0, 64, 64
1, 279024, Control_c, 0, 64, 66
1, 279038, Note_off_c, 0, 43, 64
1, 279039, Control_c, 0, 64, 68
1, 279053, Control_c, 0, 64, 70
1, 279068, Control_c, 0, 64, 70
1, 279097, Note_off_c, 0, 67, 61
1, 279099, Note_on_c, 0, 70, 64
1, 279100, Note_off_c, 0, 74, 56
1, 279113, Control_c, 0, 64, 69
1, 279128, Control_c, 0, 64, 69
1, 279143, Control_c, 0, 64, 67
1, 279158, Control_c, 0, 64, 65
1, 279172, Control_c, 0, 64, 61
1, 279187, Control_c, 0, 64, 55
1, 279202, Control_c, 0, 64, 51
1, 279204, Note_on_c, 0, 74, 80
1, 279204, Note_off_c, 0, 70, 62
1, 279217, Control_c, 0, 64, 48
1, 279232, Control_c, 0, 64, 44
1, 279246, Control_c, 0, 64, 40
1, 279261, Control_c, 0, 64, 38
1, 279276, Control_c, 0, 64, 36
1, 279305, Control_c, 0, 64, 37
1, 279307, Note_on_c, 0, 62, 58
1, 279320, Control_c, 0, 64, 44
1, 279335, Control_c, 0, 64, 53
1, 279350, Control_c, 0, 64, 60
1, 279364, Control_c, 0, 64, 62
1, 279379, Control_c, 0, 64, 64
1, 279391, Note_off_c, 0, 62, 58
1, 279394, Control_c, 0, 64, 66
1, 279396, Note_on_c, 0, 38, 57
1, 279408, Note_on_c, 0, 66, 59
1, 279409, Control_c, 0, 64, 68
1, 279424, Control_c, 0, 64, 70
1, 279430, Note_off_c, 0, 38, 62
1, 279446, Control_c, 0, 64, 72
1, 279461, Control_c, 0, 64, 73
1, 279491, Control_c, 0, 64, 72
1, 279496, Note_on_c, 0, 69, 67
1, 279500, Note_off_c, 0, 74, 55
1, 279501, Note_off_c, 0, 66, 59
1, 279505, Control_c, 0, 64, 70
1, 279520, Control_c, 0, 64, 67
1, 279535, Control_c, 0, 64, 62
1, 279550, Control_c, 0, 64, 54
1, 279565, Control_c, 0, 64, 49
1, 279579, Control_c, 0, 64, 43
1, 279594, Control_c, 0, 64, 35
1, 279605, Note_off_c, 0, 69, 64
1, 279609, Note_on_c, 0, 74, 82
1, 279609, Control_c, 0, 64, 29
1, 279624, Control_c, 0, 64, 25
1, 279639, Control_c, 0, 64, 24
1, 279683, Control_c, 0, 64, 28
1, 279697, Control_c, 0, 64, 41
1, 279712, Note_on_c, 0, 62, 66
1, 279712, Control_c, 0, 64, 54
1, 279727, Control_c, 0, 64, 60
1, 279742, Control_c, 0, 64, 62
1, 279757, Control_c, 0, 64, 64
1, 279772, Control_c, 0, 64, 67
1, 279787, Control_c, 0, 64, 70
1, 279802, Control_c, 0, 64, 73
1, 279811, Note_on_c, 0, 43, 64
1, 279817, Note_off_c, 0, 62, 62
1, 279817, Control_c, 0, 64, 74
1, 279819, Note_on_c, 0, 67, 69
1, 279840, Note_off_c, 0, 43, 65
1, 279862, Control_c, 0, 64, 74
1, 279874, Note_off_c, 0, 74, 58
1, 279876, Control_c, 0, 64, 73
1, 279891, Control_c, 0, 64, 72
1, 279906, Control_c, 0, 64, 71
1, 279915, Note_on_c, 0, 70, 72
1, 279921, Control_c, 0, 64, 69
1, 279936, Control_c, 0, 64, 67
1, 279936, Note_off_c, 0, 67, 61
1, 279951, Control_c, 0, 64, 64
1, 279966, Control_c, 0, 64, 60
1, 279981, Control_c, 0, 64, 59
1, 279995, Control_c, 0, 64, 57
1, 280010, Control_c, 0, 64, 55
1, 280025, Control_c, 0, 64, 52
1, 280040, Control_c, 0, 64, 50
1, 280055, Control_c, 0, 64, 49
1, 280062, Note_on_c, 0, 75, 78
1, 280069, Control_c, 0, 64, 49
1, 280085, Note_off_c, 0, 70, 56
1, 280143, Control_c, 0, 64, 50
1, 280158, Control_c, 0, 64, 51
1, 280173, Control_c, 0, 64, 52
1, 280195, Control_c, 0, 64, 55
1, 280197, Note_on_c, 0, 63, 55
1, 280210, Control_c, 0, 64, 58
1, 280225, Control_c, 0, 64, 60
1, 280240, Control_c, 0, 64, 62
1, 280255, Control_c, 0, 64, 63
1, 280270, Control_c, 0, 64, 65
1, 280280, Note_off_c, 0, 63, 58
1, 280284, Control_c, 0, 64, 66
1, 280288, Note_on_c, 0, 36, 47
1, 280299, Control_c, 0, 64, 67
1, 280314, Control_c, 0, 64, 68
1, 280317, Note_on_c, 0, 67, 49
1, 280332, Note_off_c, 0, 36, 61
1, 280358, Control_c, 0, 64, 68
1, 280385, Note_off_c, 0, 67, 62
1, 280388, Control_c, 0, 64, 67
1, 280413, Note_on_c, 0, 72, 55
1, 280417, Control_c, 0, 64, 67
1, 280432, Control_c, 0, 64, 66
1, 280447, Control_c, 0, 64, 64
1, 280462, Control_c, 0, 64, 62
1, 280476, Control_c, 0, 64, 58
1, 280491, Control_c, 0, 64, 55
1, 280499, Note_off_c, 0, 72, 60
1, 280506, Control_c, 0, 64, 52
1, 280520, Note_on_c, 0, 69, 58
1, 280520, Control_c, 0, 64, 49
1, 280535, Control_c, 0, 64, 46
1, 280550, Control_c, 0, 64, 44
1, 280565, Control_c, 0, 64, 43
1, 280595, Note_off_c, 0, 69, 63
1, 280596, Control_c, 0, 64, 44
1, 280611, Control_c, 0, 64, 50
1, 280623, Note_on_c, 0, 72, 60
1, 280625, Control_c, 0, 64, 56
1, 280640, Control_c, 0, 64, 60
1, 280655, Control_c, 0, 64, 63
1, 280670, Control_c, 0, 64, 64
1, 280685, Control_c, 0, 64, 65
1, 280693, Note_on_c, 0, 41, 65
1, 280699, Control_c, 0, 64, 66
1, 280711, Note_on_c, 0, 69, 63
1, 280714, Control_c, 0, 64, 68
1, 280717, Note_off_c, 0, 72, 56
1, 280723, Note_off_c, 0, 41, 64
1, 280744, Control_c, 0, 64, 68
1, 280745, Note_off_c, 0, 75, 57
1, 280803, Note_on_c, 0, 65, 62
1, 280805, Note_off_c, 0, 69, 56
1, 280818, Control_c, 0, 64, 68
1, 280833, Control_c, 0, 64, 67
1, 280848, Control_c, 0, 64, 66
1, 280863, Control_c, 0, 64, 65
1, 280878, Control_c, 0, 64, 62
1, 280881, Note_off_c, 0, 65, 59
1, 280892, Control_c, 0, 64, 59
1, 280895, Note_on_c, 0, 74, 73
1, 280907, Control_c, 0, 64, 55
1, 280922, Control_c, 0, 64, 51
1, 280937, Control_c, 0, 64, 47
1, 280958, Control_c, 0, 64, 44
1, 280973, Control_c, 0, 64, 41
1, 280988, Control_c, 0, 64, 39
1, 281003, Note_on_c, 0, 62, 58
1, 281018, Control_c, 0, 64, 40
1, 281032, Control_c, 0, 64, 46
1, 281047, Control_c, 0, 64, 54
1, 281062, Control_c, 0, 64, 59
1, 281077, Control_c, 0, 64, 62
1, 281078, Note_off_c, 0, 62, 60
1, 281091, Control_c, 0, 64, 64
1, 281096, Note_on_c, 0, 34, 45
1, 281099, Note_on_c, 0, 65, 52
1, 281106, Control_c, 0, 64, 66
1, 281121, Control_c, 0, 64, 68
1, 281132, Note_off_c, 0, 34, 59
1, 281136, Control_c, 0, 64, 69
1, 281150, Control_c, 0, 64, 70
1, 281175, Note_off_c, 0, 65, 62
1, 281202, Note_on_c, 0, 70, 49
1, 281210, Control_c, 0, 64, 69
1, 281239, Control_c, 0, 64, 68
1, 281254, Control_c, 0, 64, 65
1, 281256, Note_off_c, 0, 70, 54
1, 281268, Control_c, 0, 64, 61
1, 281283, Control_c, 0, 64, 56
1, 281298, Control_c, 0, 64, 52
1, 281307, Note_on_c, 0, 65, 52
1, 281313, Control_c, 0, 64, 49
1, 281328, Control_c, 0, 64, 47
1, 281343, Control_c, 0, 64, 45
1, 281358, Control_c, 0, 64, 44
1, 281367, Note_off_c, 0, 65, 57
1, 281399, Note_on_c, 0, 70, 45
1, 281418, Control_c, 0, 64, 46
1, 281433, Control_c, 0, 64, 52
1, 281447, Control_c, 0, 64, 57
1, 281462, Control_c, 0, 64, 60
1, 281477, Control_c, 0, 64, 63
1, 281492, Control_c, 0, 64, 65
1, 281496, Note_on_c, 0, 46, 39
1, 281501, Note_off_c, 0, 70, 58
1, 281503, Note_on_c, 0, 65, 48
1, 281507, Control_c, 0, 64, 67
1, 281510, Note_off_c, 0, 74, 58
1, 281522, Control_c, 0, 64, 69
1, 281531, Note_off_c, 0, 46, 62
1, 281537, Control_c, 0, 64, 70
1, 281551, Control_c, 0, 64, 71
1, 281566, Control_c, 0, 64, 71
1, 281608, Note_on_c, 0, 62, 43
1, 281655, Control_c, 0, 64, 71
1, 281670, Control_c, 0, 64, 70
1, 281676, Note_off_c, 0, 65, 24
1, 281692, Control_c, 0, 64, 70
1, 281695, Note_off_c, 0, 62, 58
1, 281702, Note_on_c, 0, 72, 58
1, 281706, Control_c, 0, 64, 69
1, 281721, Control_c, 0, 64, 68
1, 281736, Control_c, 0, 64, 66
1, 281751, Control_c, 0, 64, 64
1, 281766, Control_c, 0, 64, 61
1, 281781, Control_c, 0, 64, 57
1, 281796, Control_c, 0, 64, 54
1, 281811, Control_c, 0, 64, 51
1, 281821, Note_on_c, 0, 60, 46
1, 281826, Control_c, 0, 64, 48
1, 281841, Control_c, 0, 64, 47
1, 281855, Control_c, 0, 64, 46
1, 281880, Note_off_c, 0, 60, 56
1, 281902, Note_on_c, 0, 63, 44
1, 281912, Note_on_c, 0, 45, 43
1, 281944, Control_c, 0, 64, 45
1, 281945, Note_off_c, 0, 45, 63
1, 281956, Note_off_c, 0, 63, 62
1, 281988, Control_c, 0, 64, 45
1, 282007, Note_on_c, 0, 69, 43
1, 282033, Control_c, 0, 64, 44
1, 282079, Note_off_c, 0, 69, 58
1, 282112, Note_on_c, 0, 66, 42
1, 282166, Control_c, 0, 64, 45
1, 282170, Note_off_c, 0, 66, 60
1, 282180, Control_c, 0, 64, 46
1, 282196, Control_c, 0, 64, 48
1, 282207, Note_on_c, 0, 69, 52
1, 282211, Control_c, 0, 64, 50
1, 282226, Control_c, 0, 64, 53
1, 282241, Control_c, 0, 64, 56
1, 282256, Control_c, 0, 64, 58
1, 282270, Control_c, 0, 64, 61
1, 282284, Note_on_c, 0, 38, 27
1, 282285, Control_c, 0, 64, 63
1, 282300, Control_c, 0, 64, 64
1, 282307, Note_on_c, 0, 66, 49
1, 282315, Control_c, 0, 64, 66
1, 282315, Note_off_c, 0, 72, 57
1, 282329, Control_c, 0, 64, 69
1, 282335, Note_off_c, 0, 69, 53
1, 282344, Note_off_c, 0, 38, 59
1, 282344, Control_c, 0, 64, 71
1, 282357, Note_off_c, 0, 66, 61
1, 282359, Control_c, 0, 64, 73
1, 282374, Control_c, 0, 64, 74
1, 282389, Control_c, 0, 64, 74
1, 282398, Note_on_c, 0, 62, 52
1, 282445, Note_off_c, 0, 62, 64
1, 282470, Control_c, 0, 64, 74
1, 282485, Control_c, 0, 64, 73
1, 282500, Control_c, 0, 64, 73
1, 282514, Control_c, 0, 64, 72
1, 282515, Note_on_c, 0, 70, 49
1, 282530, Control_c, 0, 64, 71
1, 282545, Control_c, 0, 64, 70
1, 282560, Control_c, 0, 64, 68
1, 282575, Control_c, 0, 64, 66
1, 282589, Control_c, 0, 64, 63
1, 282604, Control_c, 0, 64, 60
1, 282619, Control_c, 0, 64, 58
1, 282634, Control_c, 0, 64, 57
1, 282636, Note_on_c, 0, 58, 46
1, 282649, Control_c, 0, 64, 55
1, 282663, Control_c, 0, 64, 54
1, 282678, Control_c, 0, 64, 53
1, 282689, Note_off_c, 0, 58, 58
1, 282693, Control_c, 0, 64, 52
1, 282708, Control_c, 0, 64, 51
1, 282723, Control_c, 0, 64, 51
1, 282738, Control_c, 0, 64, 50
1, 282742, Note_on_c, 0, 43, 40
1, 282754, Note_on_c, 0, 62, 37
1, 282768, Control_c, 0, 64, 50
1, 282789, Note_off_c, 0, 43, 61
1, 282798, Note_off_c, 0, 62, 63
1, 282812, Control_c, 0, 64, 49
1, 282836, Note_on_c, 0, 67, 40
1, 282901, Control_c, 0, 64, 49
1, 282927, Note_off_c, 0, 67, 58
1, 282953, Note_on_c, 0, 62, 35
1, 283027, Note_off_c, 0, 62, 59
1, 283070, Note_on_c, 0, 67, 47
1, 283134, Note_on_c, 0, 31, 27
1, 283174, Note_on_c, 0, 62, 44
1, 283206, Control_c, 0, 64, 50
1, 283220, Control_c, 0, 64, 52
1, 283222, Note_off_c, 0, 67, 51
1, 283228, Note_off_c, 0, 70, 37
1, 283235, Control_c, 0, 64, 55
1, 283250, Control_c, 0, 64, 58
1, 283263, Note_off_c, 0, 31, 43
1, 283265, Control_c, 0, 64, 61
1, 283280, Control_c, 0, 64, 63
1, 283294, Control_c, 0, 64, 65
1, 283309, Control_c, 0, 64, 67
1, 283317, Note_on_c, 0, 58, 46
1, 283324, Control_c, 0, 64, 70
1, 283338, Control_c, 0, 64, 72
1, 283353, Control_c, 0, 64, 74
1, 283368, Control_c, 0, 64, 76
1, 283369, Note_off_c, 0, 62, 32
1, 283383, Control_c, 0, 64, 77
1, 283394, Note_off_c, 0, 58, 52
1, 283442, Control_c, 0, 64, 76
1, 283457, Control_c, 0, 64, 75
1, 283468, Note_on_c, 0, 67, 56
1, 283472, Control_c, 0, 64, 73
1, 283486, Control_c, 0, 64, 68
1, 283501, Control_c, 0, 64, 63
1, 283516, Control_c, 0, 64, 57
1, 283546, Control_c, 0, 64, 60
1, 283561, Control_c, 0, 64, 63
1, 283576, Control_c, 0, 64, 65
1, 283587, Note_on_c, 0, 63, 52
1, 283590, Control_c, 0, 64, 69
1, 283605, Control_c, 0, 64, 73
1, 283620, Control_c, 0, 64, 79
1, 283635, Control_c, 0, 64, 85
1, 283642, Note_off_c, 0, 67, 37
1, 283650, Control_c, 0, 64, 89
1, 283665, Control_c, 0, 64, 93
1, 283680, Control_c, 0, 64, 97
1, 283690, Note_on_c, 0, 62, 57
1, 283690, Note_off_c, 0, 63, 56
1, 283694, Control_c, 0, 64, 99
1, 283709, Control_c, 0, 64, 99
1, 283742, Note_on_c, 0, 39, 41
1, 283748, Note_off_c, 0, 62, 62
1, 283781, Note_on_c, 0, 60, 57
1, 283802, Note_off_c, 0, 39, 58
1, 283804, Note_off_c, 0, 60, 63
1, 283814, Control_c, 0, 64, 98
1, 283829, Control_c, 0, 64, 97
1, 283843, Control_c, 0, 64, 96
1, 283858, Control_c, 0, 64, 94
1, 283873, Control_c, 0, 64, 91
1, 283882, Note_on_c, 0, 75, 65
1, 283888, Control_c, 0, 64, 87
1, 283903, Control_c, 0, 64, 80
1, 283917, Control_c, 0, 64, 71
1, 283939, Control_c, 0, 64, 65
1, 283954, Control_c, 0, 64, 60
1, 283969, Control_c, 0, 64, 58
1, 283984, Control_c, 0, 64, 57
1, 283994, Note_on_c, 0, 63, 49
1, 283999, Control_c, 0, 64, 56
1, 284014, Control_c, 0, 64, 55
1, 284029, Control_c, 0, 64, 55
1, 284043, Control_c, 0, 64, 54
1, 284058, Control_c, 0, 64, 54
1, 284072, Note_off_c, 0, 63, 59
1, 284073, Control_c, 0, 64, 53
1, 284093, Note_on_c, 0, 36, 47
1, 284121, Note_on_c, 0, 67, 40
1, 284126, Note_off_c, 0, 36, 53
1, 284161, Control_c, 0, 64, 53
1, 284175, Note_off_c, 0, 67, 61
1, 284184, Note_off_c, 0, 75, 56
1, 284197, Note_on_c, 0, 72, 51
1, 284305, Note_off_c, 0, 72, 57
1, 284306, Note_on_c, 0, 74, 61
1, 284383, Control_c, 0, 64, 53
1, 284398, Control_c, 0, 64, 54
1, 284422, Note_on_c, 0, 62, 46
1, 284428, Control_c, 0, 64, 54
1, 284443, Control_c, 0, 64, 55
1, 284458, Control_c, 0, 64, 55
1, 284473, Control_c, 0, 64, 56
1, 284485, Note_off_c, 0, 62, 53
1, 284487, Control_c, 0, 64, 58
1, 284502, Control_c, 0, 64, 60
1, 284514, Note_on_c, 0, 41, 42
1, 284516, Note_on_c, 0, 65, 48
1, 284517, Control_c, 0, 64, 63
1, 284532, Control_c, 0, 64, 65
1, 284537, Note_off_c, 0, 74, 49
1, 284547, Control_c, 0, 64, 68
1, 284558, Note_off_c, 0, 41, 61
1, 284561, Control_c, 0, 64, 72
1, 284576, Control_c, 0, 64, 76
1, 284592, Control_c, 0, 64, 77
1, 284616, Note_on_c, 0, 70, 44
1, 284652, Control_c, 0, 64, 77
1, 284665, Note_off_c, 0, 65, 29
1, 284681, Control_c, 0, 64, 76
1, 284703, Control_c, 0, 64, 75
1, 284718, Note_on_c, 0, 72, 60
1, 284718, Control_c, 0, 64, 75
1, 284733, Control_c, 0, 64, 73
1, 284747, Control_c, 0, 64, 71
1, 284753, Note_off_c, 0, 70, 38
1, 284762, Control_c, 0, 64, 68
1, 284777, Control_c, 0, 64, 65
1, 284791, Control_c, 0, 64, 63
1, 284806, Control_c, 0, 64, 61
1, 284821, Control_c, 0, 64, 60
1, 284836, Control_c, 0, 64, 58
1, 284839, Note_on_c, 0, 63, 44
1, 284851, Control_c, 0, 64, 56
1, 284865, Control_c, 0, 64, 55
1, 284910, Control_c, 0, 64, 55
1, 284914, Note_off_c, 0, 63, 55
1, 284925, Control_c, 0, 64, 57
1, 284929, Note_on_c, 0, 29, 38
1, 284939, Control_c, 0, 64, 60
1, 284954, Control_c, 0, 64, 63
1, 284960, Note_on_c, 0, 65, 38
1, 284969, Control_c, 0, 64, 65
1, 284981, Note_off_c, 0, 29, 60
1, 284983, Control_c, 0, 64, 68
1, 284991, Note_off_c, 0, 72, 61
1, 284998, Control_c, 0, 64, 71
1, 285013, Control_c, 0, 64, 74
1, 285027, Note_off_c, 0, 65, 54
1, 285028, Control_c, 0, 64, 75
1, 285033, Note_on_c, 0, 69, 50
1, 285072, Control_c, 0, 64, 75
1, 285087, Control_c, 0, 64, 74
1, 285102, Control_c, 0, 64, 73
1, 285117, Control_c, 0, 64, 72
1, 285132, Control_c, 0, 64, 71
1, 285146, Control_c, 0, 64, 69
1, 285161, Control_c, 0, 64, 67
1, 285174, Note_on_c, 0, 70, 55
1, 285176, Control_c, 0, 64, 65
1, 285178, Note_off_c, 0, 69, 49
1, 285191, Control_c, 0, 64, 64
1, 285206, Control_c, 0, 64, 63
1, 285221, Control_c, 0, 64, 62
1, 285236, Control_c, 0, 64, 62
1, 285251, Control_c, 0, 64, 60
1, 285265, Control_c, 0, 64, 59
1, 285280, Control_c, 0, 64, 57
1, 285295, Control_c, 0, 64, 56
1, 285301, Note_on_c, 0, 58, 46
1, 285309, Control_c, 0, 64, 55
1, 285324, Control_c, 0, 64, 55
1, 285339, Control_c, 0, 64, 54
1, 285354, Control_c, 0, 64, 54
1, 285377, Note_off_c, 0, 58, 58
1, 285385, Control_c, 0, 64, 53
1, 285385, Note_on_c, 0, 46, 46
1, 285404, Note_on_c, 0, 62, 36
1, 285414, Control_c, 0, 64, 53
1, 285442, Note_off_c, 0, 46, 59
1, 285451, Control_c, 0, 64, 52
1, 285455, Note_off_c, 0, 62, 61
1, 285479, Note_on_c, 0, 65, 52
1, 285481, Control_c, 0, 64, 52
1, 285555, Control_c, 0, 64, 51
1, 285576, Note_off_c, 0, 65, 63
1, 285579, Note_on_c, 0, 48, 59
1, 285597, Note_on_c, 0, 66, 58
1, 285639, Note_off_c, 0, 48, 55
1, 285658, Control_c, 0, 64, 51
1, 285679, Note_off_c, 0, 66, 58
1, 285680, Note_on_c, 0, 63, 62
1, 285760, Note_off_c, 0, 63, 62
1, 285765, Note_on_c, 0, 51, 74
1, 285778, Note_on_c, 0, 60, 60
1, 285825, Note_off_c, 0, 51, 64
1, 285839, Note_off_c, 0, 60, 61
1, 285854, Note_on_c, 0, 66, 63
1, 285957, Note_off_c, 0, 66, 61
1, 285957, Note_on_c, 0, 50, 74
1, 285960, Note_on_c, 0, 65, 69
1, 286021, Note_off_c, 0, 50, 63
1, 286028, Control_c, 0, 64, 51
1, 286043, Control_c, 0, 64, 52
1, 286044, Note_off_c, 0, 65, 61
1, 286057, Note_on_c, 0, 62, 70
1, 286073, Control_c, 0, 64, 52
1, 286102, Control_c, 0, 64, 53
1, 286132, Note_off_c, 0, 62, 58
1, 286146, Control_c, 0, 64, 53
1, 286151, Note_on_c, 0, 58, 68
1, 286153, Note_on_c, 0, 65, 70
1, 286172, Note_off_c, 0, 70, 43
1, 286217, Note_off_c, 0, 58, 62
1, 286242, Note_off_c, 0, 65, 59
1, 286248, Note_on_c, 0, 69, 72
1, 286274, Control_c, 0, 64, 54
1, 286333, Note_on_c, 0, 53, 56
1, 286353, Note_on_c, 0, 70, 67
1, 286356, Note_off_c, 0, 69, 62
1, 286398, Note_off_c, 0, 53, 61
1, 286402, Note_off_c, 0, 70, 61
1, 286445, Note_on_c, 0, 65, 61
1, 286529, Note_off_c, 0, 65, 53
1, 286539, Note_on_c, 0, 50, 42
1, 286545, Note_on_c, 0, 70, 59
1, 286615, Control_c, 0, 64, 53
1, 286640, Note_off_c, 0, 70, 60
1, 286640, Note_off_c, 0, 50, 41
1, 286643, Note_on_c, 0, 74, 52
1, 286721, Note_on_c, 0, 46, 36
1, 286771, Note_on_c, 0, 65, 38
1, 286775, Note_off_c, 0, 74, 50
1, 286777, Note_on_c, 0, 77, 49
1, 286807, Control_c, 0, 64, 55
1, 286822, Control_c, 0, 64, 57
1, 286837, Control_c, 0, 64, 60
1, 286852, Control_c, 0, 64, 62
1, 286866, Control_c, 0, 64, 65
1, 286881, Control_c, 0, 64, 68
1, 286896, Note_off_c, 0, 65, 55
1, 286896, Control_c, 0, 64, 75
1, 286911, Control_c, 0, 64, 85
1, 286915, Note_off_c, 0, 46, 39
1, 286919, Note_off_c, 0, 77, 58
1, 286920, Note_on_c, 0, 50, 38
1, 286933, Control_c, 0, 64, 98
1, 286948, Control_c, 0, 64, 127
1, 286979, Note_off_c, 0, 50, 60
1, 287039, Note_on_c, 0, 53, 42
1, 287084, Note_off_c, 0, 53, 60
1, 287105, Note_on_c, 0, 50, 47
1, 287156, Control_c, 0, 64, 112
1, 287170, Control_c, 0, 64, 90
1, 287173, Note_off_c, 0, 50, 59
1, 287185, Control_c, 0, 64, 75
1, 287197, Note_on_c, 0, 77, 76
1, 287200, Control_c, 0, 64, 67
1, 287202, Note_on_c, 0, 65, 64
1, 287207, Note_on_c, 0, 46, 50
1, 287215, Control_c, 0, 64, 63
1, 287230, Control_c, 0, 64, 63
1, 287245, Control_c, 0, 64, 64
1, 287259, Control_c, 0, 64, 66
1, 287274, Control_c, 0, 64, 71
1, 287289, Control_c, 0, 64, 78
1, 287304, Control_c, 0, 64, 88
1, 287305, Note_off_c, 0, 65, 56
1, 287316, Note_on_c, 0, 50, 53
1, 287319, Control_c, 0, 64, 97
1, 287327, Note_off_c, 0, 77, 60
1, 287333, Control_c, 0, 64, 102
1, 287348, Control_c, 0, 64, 106
1, 287363, Control_c, 0, 64, 109
1, 287369, Note_off_c, 0, 46, 34
1, 287377, Note_off_c, 0, 50, 60
1, 287407, Control_c, 0, 64, 111
1, 287411, Note_on_c, 0, 53, 58
1, 287422, Control_c, 0, 64, 113
1, 287437, Control_c, 0, 64, 118
1, 287452, Control_c, 0, 64, 127
1, 287472, Note_off_c, 0, 53, 58
1, 287495, Note_on_c, 0, 50, 64
1, 287555, Control_c, 0, 64, 119
1, 287560, Note_off_c, 0, 50, 60
1, 287570, Control_c, 0, 64, 112
1, 287585, Control_c, 0, 64, 101
1, 287596, Note_on_c, 0, 45, 57
1, 287600, Control_c, 0, 64, 87
1, 287606, Note_on_c, 0, 78, 88
1, 287612, Note_on_c, 0, 66, 67
1, 287615, Control_c, 0, 64, 72
1, 287630, Control_c, 0, 64, 63
1, 287644, Control_c, 0, 64, 58
1, 287659, Control_c, 0, 64, 61
1, 287681, Control_c, 0, 64, 63
1, 287696, Control_c, 0, 64, 66
1, 287710, Control_c, 0, 64, 70
1, 287716, Note_off_c, 0, 45, 54
1, 287721, Note_on_c, 0, 48, 58
1, 287725, Control_c, 0, 64, 78
1, 287740, Control_c, 0, 64, 87
1, 287755, Control_c, 0, 64, 93
1, 287762, Note_off_c, 0, 66, 60
1, 287770, Control_c, 0, 64, 94
1, 287786, Control_c, 0, 64, 96
1, 287801, Control_c, 0, 64, 99
1, 287808, Note_off_c, 0, 78, 58
1, 287812, Note_off_c, 0, 48, 64
1, 287815, Control_c, 0, 64, 101
1, 287828, Note_on_c, 0, 50, 66
1, 287830, Control_c, 0, 64, 103
1, 287845, Control_c, 0, 64, 105
1, 287860, Control_c, 0, 64, 107
1, 287875, Control_c, 0, 64, 110
1, 287889, Control_c, 0, 64, 117
1, 287904, Note_off_c, 0, 50, 62
1, 287904, Control_c, 0, 64, 127
1, 287919, Note_on_c, 0, 48, 66
1, 287993, Control_c, 0, 64, 118
1, 288008, Note_off_c, 0, 48, 62
1, 288008, Control_c, 0, 64, 98
1, 288020, Note_on_c, 0, 43, 66
1, 288022, Note_on_c, 0, 79, 89
1, 288023, Control_c, 0, 64, 77
1, 288026, Note_on_c, 0, 67, 82
1, 288038, Control_c, 0, 64, 65
1, 288053, Control_c, 0, 64, 59
1, 288068, Control_c, 0, 64, 60
1, 288082, Control_c, 0, 64, 63
1, 288097, Control_c, 0, 64, 67
1, 288112, Control_c, 0, 64, 74
1, 288127, Control_c, 0, 64, 84
1, 288135, Note_off_c, 0, 67, 61
1, 288136, Note_off_c, 0, 43, 61
1, 288137, Note_on_c, 0, 76, 22
1, 288140, Note_on_c, 0, 48, 72
1, 288142, Control_c, 0, 64, 94
1, 288151, Note_off_c, 0, 79, 65
1, 288156, Control_c, 0, 64, 98
1, 288169, Note_off_c, 0, 76, 53
1, 288171, Control_c, 0, 64, 98
1, 288217, Note_off_c, 0, 48, 63
1, 288241, Note_on_c, 0, 50, 70
1, 288316, Note_off_c, 0, 50, 63
1, 288331, Note_on_c, 0, 48, 68
1, 288378, Control_c, 0, 64, 98
1, 288393, Control_c, 0, 64, 94
1, 288408, Control_c, 0, 64, 85
1, 288422, Control_c, 0, 64, 73
1, 288435, Note_on_c, 0, 42, 65
1, 288436, Note_off_c, 0, 48, 59
1, 288442, Note_on_c, 0, 69, 87
1, 288442, Note_on_c, 0, 81, 95
1, 288445, Control_c, 0, 64, 63
1, 288460, Control_c, 0, 64, 57
1, 288475, Control_c, 0, 64, 57
1, 288489, Control_c, 0, 64, 58
1, 288504, Control_c, 0, 64, 61
1, 288519, Control_c, 0, 64, 65
1, 288533, Control_c, 0, 64, 70
1, 288548, Note_off_c, 0, 69, 59
1, 288548, Control_c, 0, 64, 79
1, 288563, Note_on_c, 0, 48, 62
1, 288563, Control_c, 0, 64, 91
1, 288578, Note_off_c, 0, 42, 53
1, 288579, Control_c, 0, 64, 103
1, 288592, Note_off_c, 0, 81, 64
1, 288594, Control_c, 0, 64, 110
1, 288609, Control_c, 0, 64, 116
1, 288624, Control_c, 0, 64, 119
1, 288638, Control_c, 0, 64, 121
1, 288661, Note_off_c, 0, 48, 62
1, 288686, Note_on_c, 0, 50, 60
1, 288712, Control_c, 0, 64, 119
1, 288727, Control_c, 0, 64, 118
1, 288742, Control_c, 0, 64, 115
1, 288748, Note_off_c, 0, 50, 60
1, 288756, Control_c, 0, 64, 114
1, 288771, Control_c, 0, 64, 113
1, 288786, Control_c, 0, 64, 113
1, 288791, Note_on_c, 0, 48, 45
1, 288801, Control_c, 0, 64, 112
1, 288816, Control_c, 0, 64, 110
1, 288831, Control_c, 0, 64, 109
1, 288846, Control_c, 0, 64, 107
1, 288846, Note_off_c, 0, 48, 57
1, 288861, Control_c, 0, 64, 106
1, 288876, Control_c, 0, 64, 104
1, 288879, Note_on_c, 0, 42, 52
1, 288890, Control_c, 0, 64, 101
1, 288905, Control_c, 0, 64, 97
1, 288920, Control_c, 0, 64, 88
1, 288935, Control_c, 0, 64, 78
1, 288941, Note_on_c, 0, 84, 78
1, 288949, Note_on_c, 0, 72, 63
1, 288949, Control_c, 0, 64, 68
1, 288964, Control_c, 0, 64, 62
1, 288979, Control_c, 0, 64, 61
1, 288994, Control_c, 0, 64, 61
1, 289009, Control_c, 0, 64, 63
1, 289023, Control_c, 0, 64, 65
1, 289038, Control_c, 0, 64, 69
1, 289053, Control_c, 0, 64, 75
1, 289068, Control_c, 0, 64, 83
1, 289076, Note_off_c, 0, 72, 55
1, 289077, Note_on_c, 0, 45, 46
1, 289083, Control_c, 0, 64, 91
1, 289097, Control_c, 0, 64, 98
1, 289099, Note_off_c, 0, 84, 59
1, 289100, Note_off_c, 0, 42, 38
1, 289112, Control_c, 0, 64, 103
1, 289127, Control_c, 0, 64, 109
1, 289142, Control_c, 0, 64, 111
1, 289159, Note_off_c, 0, 45, 61
1, 289204, Note_on_c, 0, 50, 45
1, 289238, Control_c, 0, 64, 110
1, 289253, Control_c, 0, 64, 110
1, 289259, Note_off_c, 0, 50, 60
1, 289268, Control_c, 0, 64, 109
1, 289283, Control_c, 0, 64, 108
1, 289300, Note_on_c, 0, 45, 49
1, 289342, Control_c, 0, 64, 108
1, 289350, Note_off_c, 0, 45, 60
1, 289356, Control_c, 0, 64, 107
1, 289371, Control_c, 0, 64, 103
1, 289387, Control_c, 0, 64, 95
1, 289397, Note_on_c, 0, 43, 49
1, 289402, Control_c, 0, 64, 84
1, 289406, Note_on_c, 0, 82, 78
1, 289412, Note_on_c, 0, 70, 66
1, 289417, Control_c, 0, 64, 70
1, 289432, Control_c, 0, 64, 63
1, 289447, Control_c, 0, 64, 61
1, 289461, Control_c, 0, 64, 62
1, 289476, Control_c, 0, 64, 64
1, 289491, Control_c, 0, 64, 67
1, 289506, Control_c, 0, 64, 73
1, 289517, Note_on_c, 0, 46, 40
1, 289521, Control_c, 0, 64, 81
1, 289535, Control_c, 0, 64, 88
1, 289550, Control_c, 0, 64, 94
1, 289564, Note_off_c, 0, 46, 59
1, 289565, Control_c, 0, 64, 98
1, 289579, Control_c, 0, 64, 100
1, 289584, Note_off_c, 0, 82, 53
1, 289594, Control_c, 0, 64, 101
1, 289609, Control_c, 0, 64, 102
1, 289614, Note_off_c, 0, 70, 38
1, 289621, Note_on_c, 0, 50, 43
1, 289624, Control_c, 0, 64, 102
1, 289639, Control_c, 0, 64, 103
1, 289650, Note_off_c, 0, 43, 16
1, 289684, Note_on_c, 0, 46, 51
1, 289694, Note_off_c, 0, 50, 55
1, 289713, Control_c, 0, 64, 103
1, 289725, Note_off_c, 0, 46, 63
1, 289728, Control_c, 0, 64, 104
1, 289743, Control_c, 0, 64, 105
1, 289758, Control_c, 0, 64, 107
1, 289772, Control_c, 0, 64, 107
1, 289787, Control_c, 0, 64, 104
1, 289802, Control_c, 0, 64, 94
1, 289814, Note_on_c, 0, 81, 79
1, 289817, Control_c, 0, 64, 80
1, 289821, Note_on_c, 0, 69, 67
1, 289826, Note_on_c, 0, 48, 52
1, 289832, Control_c, 0, 64, 67
1, 289846, Control_c, 0, 64, 60
1, 289861, Control_c, 0, 64, 61
1, 289876, Control_c, 0, 64, 64
1, 289891, Control_c, 0, 64, 66
1, 289906, Control_c, 0, 64, 70
1, 289928, Control_c, 0, 64, 78
1, 289943, Control_c, 0, 64, 86
1, 289948, Note_on_c, 0, 51, 56
1, 289958, Control_c, 0, 64, 92
1, 289973, Control_c, 0, 64, 94
1, 289978, Note_off_c, 0, 69, 63
1, 289981, Note_off_c, 0, 81, 61
1, 289987, Control_c, 0, 64, 94
1, 289988, Note_off_c, 0, 51, 64
1, 290002, Control_c, 0, 64, 95
1, 290035, Note_on_c, 0, 57, 54
1, 290093, Note_on_c, 0, 51, 63
1, 290098, Note_off_c, 0, 48, 49
1, 290110, Note_off_c, 0, 57, 61
1, 290132, Note_on_c, 0, 67, 77
1, 290132, Note_on_c, 0, 79, 84
1, 290142, Note_off_c, 0, 51, 62
1, 290161, Note_off_c, 0, 67, 65
1, 290181, Note_off_c, 0, 79, 65
1, 290183, Note_on_c, 0, 74, 4
1, 290211, Control_c, 0, 64, 93
1, 290226, Control_c, 0, 64, 85
1, 290235, Note_on_c, 0, 50, 56
1, 290238, Note_off_c, 0, 74, 26
1, 290241, Control_c, 0, 64, 72
1, 290241, Note_on_c, 0, 78, 87
1, 290249, Note_on_c, 0, 66, 77
1, 290256, Control_c, 0, 64, 61
1, 290271, Control_c, 0, 64, 55
1, 290285, Control_c, 0, 64, 55
1, 290300, Control_c, 0, 64, 57
1, 290315, Control_c, 0, 64, 60
1, 290330, Control_c, 0, 64, 64
1, 290345, Control_c, 0, 64, 69
1, 290355, Note_off_c, 0, 50, 60
1, 290359, Control_c, 0, 64, 75
1, 290362, Note_on_c, 0, 57, 55
1, 290374, Control_c, 0, 64, 81
1, 290382, Note_off_c, 0, 66, 52
1, 290389, Control_c, 0, 64, 85
1, 290403, Control_c, 0, 64, 87
1, 290407, Note_off_c, 0, 78, 58
1, 290418, Control_c, 0, 64, 89
1, 290424, Note_off_c, 0, 57, 62
1, 290433, Control_c, 0, 64, 92
1, 290448, Control_c, 0, 64, 92
1, 290467, Note_on_c, 0, 60, 56
1, 290519, Note_off_c, 0, 60, 55
1, 290551, Control_c, 0, 64, 92
1, 290555, Note_on_c, 0, 57, 56
1, 290610, Note_off_c, 0, 57, 58
1, 290625, Control_c, 0, 64, 91
1, 290655, Control_c, 0, 64, 90
1, 290662, Note_on_c, 0, 50, 48
1, 290677, Control_c, 0, 64, 87
1, 290687, Note_on_c, 0, 78, 75
1, 290688, Note_on_c, 0, 66, 63
1, 290692, Control_c, 0, 64, 79
1, 290707, Control_c, 0, 64, 69
1, 290722, Control_c, 0, 64, 60
1, 290737, Control_c, 0, 64, 58
1, 290751, Control_c, 0, 64, 61
1, 290766, Control_c, 0, 64, 64
1, 290781, Control_c, 0, 64, 68
1, 290796, Control_c, 0, 64, 73
1, 290807, Note_on_c, 0, 57, 47
1, 290810, Control_c, 0, 64, 81
1, 290825, Control_c, 0, 64, 86
1, 290834, Note_off_c, 0, 66, 58
1, 290837, Note_off_c, 0, 50, 33
1, 290840, Control_c, 0, 64, 87
1, 290847, Note_off_c, 0, 78, 59
1, 290867, Note_off_c, 0, 57, 62
1, 290921, Note_on_c, 0, 60, 47
1, 290959, Control_c, 0, 64, 87
1, 290969, Note_off_c, 0, 60, 62
1, 290989, Control_c, 0, 64, 86
1, 291009, Note_on_c, 0, 57, 41
1, 291082, Note_off_c, 0, 57, 51
1, 291093, Control_c, 0, 64, 85
1, 291108, Control_c, 0, 64, 83
1, 291116, Note_on_c, 0, 79, 66
1, 291120, Note_on_c, 0, 50, 43
1, 291123, Note_on_c, 0, 67, 50
1, 291123, Control_c, 0, 64, 77
1, 291138, Control_c, 0, 64, 69
1, 291153, Control_c, 0, 64, 62
1, 291168, Control_c, 0, 64, 61
1, 291182, Control_c, 0, 64, 63
1, 291197, Control_c, 0, 64, 65
1, 291212, Control_c, 0, 64, 67
1, 291214, Note_off_c, 0, 67, 58
1, 291226, Control_c, 0, 64, 71
1, 291228, Note_off_c, 0, 79, 64
1, 291241, Control_c, 0, 64, 76
1, 291250, Note_on_c, 0, 57, 40
1, 291256, Control_c, 0, 64, 79
1, 291269, Note_off_c, 0, 50, 35
1, 291271, Control_c, 0, 64, 81
1, 291286, Control_c, 0, 64, 82
1, 291304, Note_off_c, 0, 57, 63
1, 291315, Control_c, 0, 64, 82
1, 291355, Note_on_c, 0, 78, 66
1, 291360, Control_c, 0, 64, 83
1, 291361, Note_on_c, 0, 60, 41
1, 291367, Note_on_c, 0, 66, 50
1, 291400, Note_off_c, 0, 60, 52
1, 291403, Note_off_c, 0, 66, 59
1, 291410, Note_off_c, 0, 78, 57
1, 291442, Note_on_c, 0, 57, 42
1, 291503, Note_off_c, 0, 57, 56
1, 291514, Control_c, 0, 64, 82
1, 291529, Control_c, 0, 64, 81
1, 291544, Control_c, 0, 64, 76
1, 291559, Control_c, 0, 64, 67
1, 291564, Note_on_c, 0, 50, 36
1, 291571, Note_on_c, 0, 76, 60
1, 291573, Control_c, 0, 64, 62
1, 291579, Note_on_c, 0, 64, 49
1, 291603, Control_c, 0, 64, 64
1, 291618, Control_c, 0, 64, 66
1, 291621, Note_off_c, 0, 64, 61
1, 291633, Control_c, 0, 64, 69
1, 291648, Control_c, 0, 64, 74
1, 291652, Note_off_c, 0, 76, 63
1, 291663, Control_c, 0, 64, 79
1, 291678, Control_c, 0, 64, 81
1, 291688, Note_on_c, 0, 57, 38
1, 291693, Control_c, 0, 64, 82
1, 291707, Control_c, 0, 64, 83
1, 291722, Control_c, 0, 64, 83
1, 291742, Note_off_c, 0, 57, 63
1, 291766, Control_c, 0, 64, 84
1, 291790, Note_on_c, 0, 60, 46
1, 291796, Note_off_c, 0, 50, 24
1, 291804, Note_on_c, 0, 78, 61
1, 291816, Note_on_c, 0, 66, 47
1, 291847, Note_off_c, 0, 60, 57
1, 291876, Note_off_c, 0, 66, 55
1, 291879, Note_on_c, 0, 57, 44
1, 291880, Note_off_c, 0, 78, 52
1, 291943, Note_off_c, 0, 57, 50
1, 292048, Control_c, 0, 64, 82
1, 292063, Control_c, 0, 64, 78
1, 292072, Note_on_c, 0, 55, 39
1, 292077, Note_on_c, 0, 79, 58
1, 292078, Note_on_c, 0, 67, 49
1, 292078, Control_c, 0, 64, 70
1, 292093, Control_c, 0, 64, 63
1, 292108, Control_c, 0, 64, 62
1, 292122, Control_c, 0, 64, 64
1, 292137, Control_c, 0, 64, 65
1, 292152, Control_c, 0, 64, 69
1, 292167, Control_c, 0, 64, 73
1, 292189, Control_c, 0, 64, 79
1, 292204, Control_c, 0, 64, 85
1, 292211, Note_off_c, 0, 55, 54
1, 292219, Control_c, 0, 64, 91
1, 292234, Control_c, 0, 64, 94
1, 292238, Note_on_c, 0, 58, 49
1, 292249, Control_c, 0, 64, 97
1, 292263, Control_c, 0, 64, 98
1, 292271, Note_off_c, 0, 58, 63
1, 292278, Control_c, 0, 64, 98
1, 292308, Control_c, 0, 64, 99
1, 292322, Control_c, 0, 64, 99
1, 292345, Note_on_c, 0, 55, 45
1, 292401, Note_off_c, 0, 55, 56
1, 292431, Note_on_c, 0, 50, 60
1, 292471, Control_c, 0, 64, 100
1, 292485, Control_c, 0, 64, 101
1, 292500, Control_c, 0, 64, 103
1, 292515, Control_c, 0, 64, 104
1, 292524, Note_off_c, 0, 50, 62
1, 292542, Note_on_c, 0, 46, 65
1, 292545, Control_c, 0, 64, 102
1, 292560, Control_c, 0, 64, 93
1, 292575, Control_c, 0, 64, 79
1, 292590, Control_c, 0, 64, 66
1, 292605, Control_c, 0, 64, 62
1, 292620, Control_c, 0, 64, 65
1, 292629, Note_on_c, 0, 55, 65
1, 292634, Control_c, 0, 64, 67
1, 292638, Note_off_c, 0, 46, 58
1, 292649, Control_c, 0, 64, 71
1, 292664, Control_c, 0, 64, 78
1, 292679, Control_c, 0, 64, 89
1, 292694, Control_c, 0, 64, 96
1, 292702, Note_off_c, 0, 67, 53
1, 292709, Control_c, 0, 64, 100
1, 292724, Control_c, 0, 64, 105
1, 292734, Note_on_c, 0, 50, 73
1, 292735, Note_off_c, 0, 55, 62
1, 292739, Control_c, 0, 64, 109
1, 292746, Note_off_c, 0, 79, 56
1, 292753, Control_c, 0, 64, 111
1, 292768, Control_c, 0, 64, 114
1, 292783, Control_c, 0, 64, 119
1, 292797, Control_c, 0, 64, 127
1, 292828, Note_on_c, 0, 46, 78
1, 292828, Note_off_c, 0, 50, 63
1, 292906, Note_off_c, 0, 46, 59
1, 292939, Control_c, 0, 64, 100
1, 292945, Note_on_c, 0, 43, 87
1, 292953, Control_c, 0, 64, 71
1, 292968, Control_c, 0, 64, 61
1, 292983, Control_c, 0, 64, 62
1, 292998, Control_c, 0, 64, 65
1, 293012, Control_c, 0, 64, 69
1, 293027, Control_c, 0, 64, 78
1, 293042, Control_c, 0, 64, 94
1, 293057, Control_c, 0, 64, 127
1, 293061, Note_on_c, 0, 67, 86
1, 293076, Note_off_c, 0, 43, 60
1, 293123, Note_off_c, 0, 67, 60
1, 293154, Note_on_c, 0, 70, 89
1, 293247, Note_off_c, 0, 70, 62
1, 293252, Note_on_c, 0, 74, 89
1, 293349, Note_on_c, 0, 43, 79
1, 293350, Note_on_c, 0, 55, 87
1, 293353, Control_c, 0, 64, 82
1, 293357, Note_off_c, 0, 74, 59
1, 293361, Note_on_c, 0, 79, 91
1, 293368, Control_c, 0, 64, 64
1, 293383, Control_c, 0, 64, 52
1, 293398, Control_c, 0, 64, 56
1, 293413, Control_c, 0, 64, 62
1, 293427, Control_c, 0, 64, 68
1, 293432, Note_off_c, 0, 43, 62
1, 293442, Control_c, 0, 64, 79
1, 293445, Note_off_c, 0, 55, 60
1, 293457, Control_c, 0, 64, 101
1, 293459, Note_on_c, 0, 70, 87
1, 293469, Note_off_c, 0, 79, 62
1, 293472, Control_c, 0, 64, 127
1, 293554, Note_off_c, 0, 70, 61
1, 293570, Note_on_c, 0, 74, 83
1, 293656, Note_on_c, 0, 58, 83
1, 293660, Note_on_c, 0, 46, 73
1, 293663, Note_on_c, 0, 79, 98
1, 293694, Note_off_c, 0, 74, 61
1, 293702, Note_off_c, 0, 46, 65
1, 293711, Note_off_c, 0, 58, 60
1, 293781, Note_off_c, 0, 79, 65
1, 293806, Note_on_c, 0, 62, 90
1, 293806, Control_c, 0, 64, 82
1, 293809, Note_on_c, 0, 50, 92
1, 293821, Control_c, 0, 64, 61
1, 293836, Control_c, 0, 64, 18
1, 293851, Control_c, 0, 64, 0
1, 293895, Control_c, 0, 64, 51
1, 293910, Control_c, 0, 64, 63
1, 293925, Control_c, 0, 64, 68
1, 293940, Control_c, 0, 64, 73
1, 293955, Control_c, 0, 64, 81
1, 293970, Control_c, 0, 64, 89
1, 293984, Control_c, 0, 64, 97
1, 293999, Control_c, 0, 64, 102
1, 294014, Control_c, 0, 64, 106
1, 294058, Control_c, 0, 64, 107
1, 294062, Note_off_c, 0, 50, 54
1, 294072, Note_on_c, 0, 78, 91
1, 294073, Control_c, 0, 64, 110
1, 294075, Note_on_c, 0, 69, 88
1, 294077, Note_on_c, 0, 74, 83
1, 294086, Note_off_c, 0, 62, 57
1, 294088, Control_c, 0, 64, 114
1, 294102, Control_c, 0, 64, 119
1, 294117, Control_c, 0, 64, 123
1, 294122, Note_off_c, 0, 69, 64
1, 294134, Note_off_c, 0, 74, 63
1, 294145, Note_off_c, 0, 78, 64
1, 294146, Control_c, 0, 64, 127
1, 294292, Note_on_c, 0, 62, 92
1, 294295, Note_on_c, 0, 50, 85
1, 294370, Control_c, 0, 64, 87
1, 294385, Control_c, 0, 64, 68
1, 294399, Control_c, 0, 64, 57
1, 294422, Control_c, 0, 64, 54
1, 294451, Control_c, 0, 64, 56
1, 294466, Control_c, 0, 64, 61
1, 294481, Control_c, 0, 64, 65
1, 294496, Control_c, 0, 64, 70
1, 294511, Control_c, 0, 64, 78
1, 294525, Control_c, 0, 64, 87
1, 294532, Note_on_c, 0, 74, 84
1, 294532, Note_on_c, 0, 81, 100
1, 294535, Note_on_c, 0, 72, 89
1, 294540, Control_c, 0, 64, 98
1, 294555, Control_c, 0, 64, 107
1, 294561, Note_off_c, 0, 62, 56
1, 294569, Control_c, 0, 64, 121
1, 294577, Note_off_c, 0, 50, 51
1, 294584, Control_c, 0, 64, 127
1, 294608, Note_off_c, 0, 72, 65
1, 294622, Note_off_c, 0, 74, 62
1, 294630, Note_off_c, 0, 81, 66
1, 294760, Note_on_c, 0, 62, 91
1, 294763, Note_on_c, 0, 50, 86
1, 294866, Control_c, 0, 64, 97
1, 294881, Control_c, 0, 64, 74
1, 294896, Control_c, 0, 64, 62
1, 294911, Control_c, 0, 64, 58
1, 294925, Control_c, 0, 64, 59
1, 294940, Control_c, 0, 64, 61
1, 294955, Control_c, 0, 64, 64
1, 294971, Control_c, 0, 64, 70
1, 294983, Note_on_c, 0, 70, 86
1, 294985, Note_on_c, 0, 74, 82
1, 294986, Control_c, 0, 64, 80
1, 294988, Note_on_c, 0, 79, 94
1, 295001, Control_c, 0, 64, 98
1, 295015, Control_c, 0, 64, 119
1, 295030, Control_c, 0, 64, 127
1, 295046, Note_off_c, 0, 62, 61
1, 295061, Note_off_c, 0, 50, 59
1, 295097, Note_off_c, 0, 70, 59
1, 295114, Note_off_c, 0, 79, 65
1, 295122, Note_off_c, 0, 74, 62
1, 295243, Note_on_c, 0, 62, 95
1, 295245, Note_on_c, 0, 50, 93
1, 295333, Control_c, 0, 64, 93
1, 295347, Control_c, 0, 64, 72
1, 295362, Control_c, 0, 64, 61
1, 295377, Control_c, 0, 64, 55
1, 295422, Control_c, 0, 64, 58
1, 295437, Control_c, 0, 64, 63
1, 295451, Control_c, 0, 64, 67
1, 295466, Control_c, 0, 64, 75
1, 295472, Note_on_c, 0, 78, 96
1, 295475, Note_on_c, 0, 69, 89
1, 295475, Note_on_c, 0, 74, 83
1, 295481, Control_c, 0, 64, 85
1, 295484, Note_off_c, 0, 50, 53
1, 295496, Control_c, 0, 64, 95
1, 295507, Note_off_c, 0, 62, 57
1, 295511, Control_c, 0, 64, 104
1, 295526, Control_c, 0, 64, 111
1, 295540, Control_c, 0, 64, 127
1, 295588, Note_off_c, 0, 69, 57
1, 295629, Note_off_c, 0, 78, 59
1, 295630, Note_off_c, 0, 74, 62
1, 295805, Note_on_c, 0, 63, 89
1, 295808, Note_on_c, 0, 51, 83
1, 295911, Control_c, 0, 64, 87
1, 295934, Control_c, 0, 64, 70
1, 295949, Control_c, 0, 64, 62
1, 295964, Control_c, 0, 64, 59
1, 295978, Control_c, 0, 64, 57
1, 295993, Control_c, 0, 64, 56
1, 296007, Control_c, 0, 64, 55
1, 296021, Control_c, 0, 64, 56
1, 296036, Control_c, 0, 64, 60
1, 296051, Control_c, 0, 64, 64
1, 296066, Control_c, 0, 64, 67
1, 296081, Control_c, 0, 64, 72
1, 296095, Control_c, 0, 64, 79
1, 296102, Note_on_c, 0, 79, 89
1, 296104, Note_on_c, 0, 74, 85
1, 296104, Note_on_c, 0, 67, 87
1, 296110, Control_c, 0, 64, 89
1, 296125, Control_c, 0, 64, 103
1, 296140, Control_c, 0, 64, 127
1, 296149, Note_off_c, 0, 74, 63
1, 296155, Note_off_c, 0, 67, 63
1, 296170, Note_off_c, 0, 79, 65
1, 296327, Note_on_c, 0, 72, 88
1, 296328, Note_on_c, 0, 79, 91
1, 296332, Note_on_c, 0, 67, 82
1, 296351, Note_off_c, 0, 67, 73
1, 296361, Note_off_c, 0, 72, 64
1, 296374, Note_off_c, 0, 63, 53
1, 296379, Note_off_c, 0, 79, 66
1, 296385, Note_off_c, 0, 51, 55
1, 296539, Note_on_c, 0, 80, 85
1, 296547, Note_on_c, 0, 73, 89
1, 296547, Note_on_c, 0, 85, 97
1, 296562, Note_off_c, 0, 80, 68
1, 296563, Note_on_c, 0, 79, 87
1, 296608, Note_off_c, 0, 73, 63
1, 296616, Note_off_c, 0, 79, 63
1, 296626, Note_off_c, 0, 85, 65
1, 296752, Note_on_c, 0, 62, 96
1, 296757, Note_on_c, 0, 50, 90
1, 296800, Control_c, 0, 64, 105
1, 296815, Control_c, 0, 64, 79
1, 296830, Control_c, 0, 64, 64
1, 296844, Control_c, 0, 64, 48
1, 296859, Control_c, 0, 64, 34
1, 296874, Control_c, 0, 64, 32
1, 296889, Control_c, 0, 64, 35
1, 296904, Control_c, 0, 64, 50
1, 296918, Control_c, 0, 64, 62
1, 296933, Control_c, 0, 64, 70
1, 296948, Control_c, 0, 64, 84
1, 296959, Note_on_c, 0, 81, 88
1, 296960, Note_on_c, 0, 79, 86
1, 296960, Note_on_c, 0, 86, 97
1, 296961, Note_on_c, 0, 74, 91
1, 296963, Control_c, 0, 64, 127
1, 296990, Note_off_c, 0, 79, 63
1, 297002, Note_off_c, 0, 74, 64
1, 297028, Note_off_c, 0, 81, 58
1, 297033, Note_off_c, 0, 50, 60
1, 297034, Note_off_c, 0, 62, 55
1, 297043, Note_off_c, 0, 86, 65
1, 297183, Note_on_c, 0, 78, 93
1, 297187, Note_on_c, 0, 86, 84
1, 297189, Note_on_c, 0, 74, 85
1, 297192, Note_on_c, 0, 81, 58
1, 297210, Note_off_c, 0, 81, 66
1, 297210, Note_off_c, 0, 86, 69
1, 297214, Note_off_c, 0, 74, 67
1, 297218, Note_off_c, 0, 78, 64
1, 297398, Note_on_c, 0, 69, 85
1, 297401, Note_on_c, 0, 66, 83
1, 297402, Note_on_c, 0, 74, 87
1, 297535, Note_off_c, 0, 74, 63
1, 297541, Note_off_c, 0, 66, 60
1, 297558, Note_off_c, 0, 69, 61
1, 297645, Note_on_c, 0, 60, 93
1, 297649, Note_on_c, 0, 48, 86
1, 297712, Control_c, 0, 64, 85
1, 297727, Control_c, 0, 64, 64
1, 297741, Control_c, 0, 64, 52
1, 297756, Control_c, 0, 64, 56
1, 297771, Control_c, 0, 64, 60
1, 297786, Control_c, 0, 64, 65
1, 297800, Control_c, 0, 64, 76
1, 297815, Control_c, 0, 64, 103
1, 297830, Control_c, 0, 64, 127
1, 297872, Note_on_c, 0, 70, 83
1, 297875, Note_on_c, 0, 63, 84
1, 297875, Note_on_c, 0, 75, 89
1, 297908, Note_off_c, 0, 60, 60
1, 297917, Note_off_c, 0, 70, 65
1, 297921, Note_off_c, 0, 63, 65
1, 297940, Note_off_c, 0, 48, 61
1, 297951, Note_off_c, 0, 75, 61
1, 298087, Note_on_c, 0, 69, 80
1, 298089, Note_on_c, 0, 63, 80
1, 298090, Note_on_c, 0, 75, 90
1, 298112, Note_off_c, 0, 69, 69
1, 298115, Note_off_c, 0, 63, 69
1, 298140, Note_off_c, 0, 75, 63
1, 298301, Note_on_c, 0, 81, 94
1, 298306, Note_on_c, 0, 75, 91
1, 298307, Note_on_c, 0, 69, 85
1, 298369, Note_off_c, 0, 69, 60
1, 298391, Note_off_c, 0, 81, 66
1, 298392, Note_off_c, 0, 75, 63
1, 298565, Note_on_c, 0, 58, 93
1, 298569, Note_on_c, 0, 46, 82
1, 298683, Control_c, 0, 64, 94
1, 298698, Control_c, 0, 64, 71
1, 298713, Control_c, 0, 64, 60
1, 298727, Control_c, 0, 64, 52
1, 298742, Control_c, 0, 64, 53
1, 298757, Control_c, 0, 64, 56
1, 298772, Control_c, 0, 64, 62
1, 298787, Control_c, 0, 64, 68
1, 298790, Note_on_c, 0, 75, 81
1, 298791, Note_on_c, 0, 82, 88
1, 298792, Note_on_c, 0, 70, 83
1, 298793, Note_on_c, 0, 77, 80
1, 298802, Control_c, 0, 64, 76
1, 298816, Control_c, 0, 64, 94
1, 298831, Control_c, 0, 64, 127
1, 298854, Note_off_c, 0, 75, 59
1, 298867, Note_off_c, 0, 70, 60
1, 298874, Note_off_c, 0, 77, 61
1, 298892, Note_off_c, 0, 82, 64
1, 299008, Note_on_c, 0, 82, 83
1, 299011, Note_on_c, 0, 74, 82
1, 299026, Note_on_c, 0, 70, 69
1, 299026, Note_on_c, 0, 77, 60
1, 299047, Note_off_c, 0, 74, 62
1, 299055, Note_off_c, 0, 82, 64
1, 299055, Note_off_c, 0, 77, 65
1, 299058, Note_off_c, 0, 70, 59
1, 299255, Note_on_c, 0, 70, 78
1, 299258, Note_on_c, 0, 65, 72
1, 299260, Note_on_c, 0, 62, 69
1, 299344, Note_off_c, 0, 58, 54
1, 299364, Note_off_c, 0, 46, 58
1, 299404, Note_off_c, 0, 62, 59
1, 299410, Note_off_c, 0, 65, 59
1, 299490, Note_off_c, 0, 70, 51
1, 299532, Note_on_c, 0, 57, 88
1, 299534, Note_on_c, 0, 45, 79
1, 299595, Control_c, 0, 64, 92
1, 299610, Control_c, 0, 64, 71
1, 299625, Control_c, 0, 64, 61
1, 299639, Control_c, 0, 64, 57
1, 299654, Control_c, 0, 64, 58
1, 299676, Control_c, 0, 64, 61
1, 299691, Control_c, 0, 64, 65
1, 299706, Control_c, 0, 64, 70
1, 299720, Control_c, 0, 64, 80
1, 299735, Control_c, 0, 64, 92
1, 299750, Control_c, 0, 64, 109
1, 299766, Control_c, 0, 64, 127
1, 299807, Note_off_c, 0, 45, 55
1, 299825, Note_off_c, 0, 57, 62
1, 299844, Note_on_c, 0, 72, 85
1, 299848, Note_on_c, 0, 63, 80
1, 299848, Note_on_c, 0, 67, 70
1, 299932, Note_off_c, 0, 63, 59
1, 299942, Note_off_c, 0, 72, 64
1, 299943, Note_off_c, 0, 67, 62
1, 300097, Note_on_c, 0, 60, 86
1, 300099, Note_on_c, 0, 48, 79
1, 300151, Control_c, 0, 64, 93
1, 300166, Control_c, 0, 64, 72
1, 300181, Control_c, 0, 64, 62
1, 300196, Control_c, 0, 64, 59
1, 300210, Control_c, 0, 64, 63
1, 300225, Control_c, 0, 64, 66
1, 300240, Control_c, 0, 64, 72
1, 300254, Control_c, 0, 64, 84
1, 300269, Control_c, 0, 64, 102
1, 300284, Control_c, 0, 64, 127
1, 300290, Note_off_c, 0, 60, 62
1, 300304, Note_off_c, 0, 48, 60
1, 300323, Note_on_c, 0, 75, 87
1, 300324, Note_on_c, 0, 69, 80
1, 300328, Note_on_c, 0, 66, 79
1, 300436, Note_off_c, 0, 66, 59
1, 300446, Note_off_c, 0, 69, 56
1, 300457, Note_off_c, 0, 75, 55
1, 300541, Note_on_c, 0, 58, 94
1, 300545, Note_on_c, 0, 46, 87
1, 300574, Control_c, 0, 64, 85
1, 300589, Control_c, 0, 64, 64
1, 300604, Control_c, 0, 64, 55
1, 300619, Control_c, 0, 64, 58
1, 300633, Control_c, 0, 64, 63
1, 300648, Control_c, 0, 64, 67
1, 300663, Control_c, 0, 64, 76
1, 300678, Control_c, 0, 64, 93
1, 300692, Control_c, 0, 64, 127
1, 300743, Note_off_c, 0, 46, 56
1, 300762, Note_on_c, 0, 67, 87
1, 300763, Note_on_c, 0, 70, 89
1, 300763, Note_on_c, 0, 74, 85
1, 300765, Note_off_c, 0, 58, 58
1, 300817, Note_off_c, 0, 67, 62
1, 300840, Note_off_c, 0, 70, 65
1, 300846, Note_off_c, 0, 74, 63
1, 300967, Note_on_c, 0, 57, 98
1, 300971, Note_on_c, 0, 45, 90
1, 301004, Control_c, 0, 64, 119
1, 301019, Control_c, 0, 64, 78
1, 301033, Control_c, 0, 64, 61
1, 301048, Control_c, 0, 64, 36
1, 301063, Control_c, 0, 64, 28
1, 301077, Control_c, 0, 64, 28
1, 301092, Control_c, 0, 64, 31
1, 301107, Control_c, 0, 64, 49
1, 301122, Control_c, 0, 64, 62
1, 301137, Control_c, 0, 64, 68
1, 301159, Control_c, 0, 64, 77
1, 301174, Control_c, 0, 64, 90
1, 301189, Control_c, 0, 64, 112
1, 301193, Note_on_c, 0, 74, 90
1, 301193, Note_on_c, 0, 78, 96
1, 301195, Note_on_c, 0, 72, 93
1, 301204, Control_c, 0, 64, 127
1, 301209, Note_off_c, 0, 57, 61
1, 301222, Note_off_c, 0, 45, 62
1, 301283, Note_off_c, 0, 72, 63
1, 301297, Note_off_c, 0, 74, 64
1, 301303, Note_off_c, 0, 78, 65
1, 301512, Note_on_c, 0, 55, 102
1, 301515, Note_on_c, 0, 43, 90
1, 301576, Control_c, 0, 64, 81
1, 301590, Control_c, 0, 64, 60
1, 301605, Control_c, 0, 64, 0
1, 301679, Control_c, 0, 64, 34
1, 301694, Control_c, 0, 64, 57
1, 301708, Control_c, 0, 64, 64
1, 301723, Control_c, 0, 64, 66
1, 301738, Control_c, 0, 64, 71
1, 301753, Control_c, 0, 64, 78
1, 301768, Control_c, 0, 64, 91
1, 301783, Control_c, 0, 64, 107
1, 301798, Control_c, 0, 64, 127
1, 301842, Note_on_c, 0, 70, 91
1, 301844, Note_on_c, 0, 79, 92
1, 301847, Note_on_c, 0, 74, 80
1, 301875, Note_off_c, 0, 74, 65
1, 301885, Note_off_c, 0, 79, 67
1, 301893, Note_off_c, 0, 70, 63
1, 302086, Note_on_c, 0, 62, 82
1, 302086, Note_on_c, 0, 74, 80
1, 302090, Note_on_c, 0, 70, 79
1, 302141, Note_off_c, 0, 62, 62
1, 302154, Note_off_c, 0, 70, 61
1, 302178, Note_off_c, 0, 74, 55
1, 302275, Note_off_c, 0, 43, 52
1, 302288, Note_on_c, 0, 72, 88
1, 302290, Note_on_c, 0, 69, 78
1, 302293, Note_on_c, 0, 62, 79
1, 302335, Note_off_c, 0, 69, 62
1, 302344, Note_off_c, 0, 62, 60
1, 302356, Note_off_c, 0, 72, 61
1, 302495, Note_on_c, 0, 70, 83
1, 302498, Note_on_c, 0, 67, 80
1, 302499, Note_on_c, 0, 62, 73
1, 302523, Note_off_c, 0, 62, 68
1, 302525, Note_off_c, 0, 67, 66
1, 302531, Note_off_c, 0, 55, 10
1, 302543, Note_off_c, 0, 70, 66
1, 302706, Note_on_c, 0, 67, 81
1, 302708, Note_on_c, 0, 74, 89
1, 302709, Note_on_c, 0, 70, 86
1, 302773, Note_off_c, 0, 67, 57
1, 302784, Note_off_c, 0, 70, 59
1, 302809, Note_off_c, 0, 74, 59
1, 302909, Control_c, 0, 64, 95
1, 302916, Note_on_c, 0, 55, 90
1, 302918, Note_on_c, 0, 43, 82
1, 302921, Note_on_c, 0, 79, 94
1, 302924, Control_c, 0, 64, 63
1, 302925, Note_on_c, 0, 70, 85
1, 302931, Note_on_c, 0, 74, 78
1, 302938, Control_c, 0, 64, 31
1, 302954, Control_c, 0, 64, 44
1, 302969, Control_c, 0, 64, 59
1, 302984, Control_c, 0, 64, 66
1, 302999, Control_c, 0, 64, 79
1, 303004, Note_off_c, 0, 43, 63
1, 303007, Note_off_c, 0, 55, 62
1, 303014, Control_c, 0, 64, 127
1, 303014, Note_off_c, 0, 70, 64
1, 303025, Note_off_c, 0, 74, 56
1, 303076, Note_off_c, 0, 79, 62
1, 303121, Note_on_c, 0, 67, 91
1, 303123, Note_on_c, 0, 70, 91
1, 303124, Note_on_c, 0, 74, 90
1, 303200, Note_off_c, 0, 67, 62
1, 303214, Note_off_c, 0, 70, 63
1, 303217, Note_off_c, 0, 74, 63
1, 303226, Note_on_c, 0, 58, 94
1, 303228, Note_on_c, 0, 46, 83
1, 303287, Note_off_c, 0, 46, 63
1, 303287, Note_off_c, 0, 58, 63
1, 303423, Note_on_c, 0, 62, 97
1, 303425, Note_on_c, 0, 50, 91
1, 303450, Control_c, 0, 64, 89
1, 303465, Control_c, 0, 64, 65
1, 303480, Control_c, 0, 64, 40
1, 303494, Control_c, 0, 64, 32
1, 303509, Control_c, 0, 64, 32
1, 303524, Control_c, 0, 64, 38
1, 303539, Control_c, 0, 64, 54
1, 303554, Control_c, 0, 64, 63
1, 303568, Control_c, 0, 64, 70
1, 303583, Control_c, 0, 64, 78
1, 303598, Control_c, 0, 64, 87
1, 303613, Control_c, 0, 64, 95
1, 303628, Control_c, 0, 64, 101
1, 303643, Control_c, 0, 64, 106
1, 303658, Control_c, 0, 64, 111
1, 303661, Note_off_c, 0, 50, 54
1, 303664, Note_off_c, 0, 62, 52
1, 303673, Control_c, 0, 64, 127
1, 303698, Note_on_c, 0, 69, 90
1, 303698, Note_on_c, 0, 74, 93
1, 303700, Note_on_c, 0, 66, 86
1, 303750, Note_off_c, 0, 66, 60
1, 303750, Note_off_c, 0, 69, 62
1, 303763, Note_off_c, 0, 74, 65
1, 303908, Note_on_c, 0, 62, 94
1, 303909, Note_on_c, 0, 50, 88
1, 303999, Control_c, 0, 64, 99
1, 304014, Control_c, 0, 64, 75
1, 304029, Control_c, 0, 64, 60
1, 304044, Control_c, 0, 64, 51
1, 304073, Control_c, 0, 64, 53
1, 304088, Control_c, 0, 64, 60
1, 304102, Control_c, 0, 64, 66
1, 304115, Note_on_c, 0, 81, 98
1, 304117, Note_on_c, 0, 74, 84
1, 304117, Control_c, 0, 64, 75
1, 304118, Note_on_c, 0, 72, 88
1, 304132, Control_c, 0, 64, 97
1, 304146, Note_off_c, 0, 62, 59
1, 304147, Control_c, 0, 64, 127
1, 304166, Note_off_c, 0, 50, 61
1, 304200, Note_off_c, 0, 72, 64
1, 304221, Note_off_c, 0, 74, 64
1, 304222, Note_off_c, 0, 81, 67
1, 304352, Note_on_c, 0, 62, 92
1, 304353, Note_on_c, 0, 50, 85
1, 304451, Control_c, 0, 64, 85
1, 304466, Control_c, 0, 64, 66
1, 304481, Control_c, 0, 64, 55
1, 304495, Control_c, 0, 64, 56
1, 304510, Control_c, 0, 64, 61
1, 304525, Control_c, 0, 64, 65
1, 304540, Control_c, 0, 64, 71
1, 304555, Control_c, 0, 64, 82
1, 304564, Note_on_c, 0, 74, 86
1, 304564, Note_on_c, 0, 70, 89
1, 304565, Note_on_c, 0, 79, 93
1, 304570, Control_c, 0, 64, 104
1, 304585, Control_c, 0, 64, 127
1, 304602, Note_off_c, 0, 62, 57
1, 304623, Note_off_c, 0, 50, 50
1, 304653, Note_off_c, 0, 70, 61
1, 304665, Note_off_c, 0, 74, 62
1, 304665, Note_off_c, 0, 79, 66
1, 304781, Note_on_c, 0, 62, 93
1, 304782, Note_on_c, 0, 50, 87
1, 304851, Control_c, 0, 64, 123
1, 304866, Control_c, 0, 64, 77
1, 304881, Control_c, 0, 64, 62
1, 304904, Control_c, 0, 64, 53
1, 304919, Control_c, 0, 64, 55
1, 304933, Control_c, 0, 64, 58
1, 304948, Control_c, 0, 64, 63
1, 304963, Control_c, 0, 64, 67
1, 304978, Control_c, 0, 64, 77
1, 304983, Note_off_c, 0, 50, 57
1, 304993, Control_c, 0, 64, 94
1, 305002, Note_off_c, 0, 62, 55
1, 305002, Note_on_c, 0, 78, 95
1, 305004, Note_on_c, 0, 74, 84
1, 305005, Note_on_c, 0, 69, 90
1, 305008, Control_c, 0, 64, 127
1, 305129, Note_off_c, 0, 69, 59
1, 305169, Note_off_c, 0, 78, 59
1, 305173, Note_off_c, 0, 74, 62
1, 305297, Note_on_c, 0, 63, 89
1, 305300, Note_on_c, 0, 51, 85
1, 305409, Control_c, 0, 64, 113
1, 305424, Control_c, 0, 64, 78
1, 305438, Control_c, 0, 64, 61
1, 305453, Control_c, 0, 64, 55
1, 305468, Control_c, 0, 64, 55
1, 305483, Control_c, 0, 64, 57
1, 305497, Control_c, 0, 64, 61
1, 305512, Control_c, 0, 64, 64
1, 305527, Control_c, 0, 64, 68
1, 305542, Control_c, 0, 64, 74
1, 305557, Control_c, 0, 64, 81
1, 305571, Note_on_c, 0, 74, 86
1, 305571, Note_on_c, 0, 79, 96
1, 305572, Control_c, 0, 64, 92
1, 305574, Note_on_c, 0, 67, 91
1, 305587, Control_c, 0, 64, 105
1, 305601, Control_c, 0, 64, 127
1, 305622, Note_off_c, 0, 74, 64
1, 305628, Note_off_c, 0, 67, 64
1, 305666, Note_off_c, 0, 79, 65
1, 305817, Note_on_c, 0, 72, 88
1, 305818, Note_on_c, 0, 79, 92
1, 305819, Note_on_c, 0, 67, 85
1, 305837, Note_off_c, 0, 67, 71
1, 305846, Note_off_c, 0, 72, 65
1, 305853, Note_off_c, 0, 51, 47
1, 305861, Note_off_c, 0, 63, 50
1, 305868, Note_off_c, 0, 79, 67
1, 306033, Note_on_c, 0, 73, 93
1, 306033, Note_on_c, 0, 85, 95
1, 306034, Note_on_c, 0, 79, 90
1, 306101, Note_off_c, 0, 73, 61
1, 306109, Note_off_c, 0, 79, 64
1, 306114, Note_off_c, 0, 85, 65
1, 306236, Note_on_c, 0, 62, 92
1, 306242, Note_on_c, 0, 50, 85
1, 306290, Control_c, 0, 64, 96
1, 306305, Control_c, 0, 64, 70
1, 306320, Control_c, 0, 64, 54
1, 306335, Control_c, 0, 64, 45
1, 306350, Control_c, 0, 64, 48
1, 306365, Control_c, 0, 64, 55
1, 306379, Control_c, 0, 64, 62
1, 306401, Control_c, 0, 64, 68
1, 306416, Control_c, 0, 64, 77
1, 306431, Note_on_c, 0, 81, 87
1, 306431, Control_c, 0, 64, 92
1, 306433, Note_on_c, 0, 86, 92
1, 306434, Note_on_c, 0, 79, 81
1, 306436, Note_on_c, 0, 74, 85
1, 306446, Control_c, 0, 64, 108
1, 306460, Control_c, 0, 64, 127
1, 306472, Note_off_c, 0, 79, 61
1, 306493, Note_off_c, 0, 81, 63
1, 306493, Note_off_c, 0, 74, 61
1, 306517, Note_off_c, 0, 86, 63
1, 306592, Note_off_c, 0, 50, 51
1, 306596, Note_off_c, 0, 62, 60
1, 306695, Note_on_c, 0, 86, 92
1, 306701, Note_on_c, 0, 77, 80
1, 306704, Note_on_c, 0, 81, 69
1, 306704, Note_on_c, 0, 74, 80
1, 306732, Note_off_c, 0, 81, 68
1, 306737, Note_off_c, 0, 86, 65
1, 306746, Note_off_c, 0, 77, 63
1, 306758, Note_off_c, 0, 74, 63
1, 306918, Note_on_c, 0, 69, 74
1, 306919, Note_on_c, 0, 74, 77
1, 306923, Note_on_c, 0, 65, 68
1, 307016, Note_off_c, 0, 65, 58
1, 307016, Note_off_c, 0, 69, 60
1, 307026, Note_off_c, 0, 74, 61
1, 307140, Note_on_c, 0, 60, 82
1, 307146, Note_on_c, 0, 48, 74
1, 307208, Control_c, 0, 64, 90
1, 307223, Control_c, 0, 64, 69
1, 307238, Control_c, 0, 64, 58
1, 307253, Control_c, 0, 64, 56
1, 307268, Control_c, 0, 64, 58
1, 307283, Control_c, 0, 64, 61
1, 307298, Control_c, 0, 64, 65
1, 307312, Control_c, 0, 64, 70
1, 307327, Control_c, 0, 64, 77
1, 307342, Control_c, 0, 64, 85
1, 307356, Note_on_c, 0, 70, 72
1, 307357, Control_c, 0, 64, 92
1, 307357, Note_on_c, 0, 75, 79
1, 307360, Note_on_c, 0, 63, 73
1, 307372, Control_c, 0, 64, 98
1, 307387, Control_c, 0, 64, 107
1, 307401, Control_c, 0, 64, 116
1, 307405, Note_off_c, 0, 63, 59
1, 307411, Note_off_c, 0, 70, 63
1, 307416, Control_c, 0, 64, 123
1, 307420, Note_off_c, 0, 60, 56
1, 307424, Note_off_c, 0, 75, 58
1, 307431, Control_c, 0, 64, 127
1, 307464, Note_off_c, 0, 48, 56
1, 307564, Note_on_c, 0, 75, 76
1, 307565, Note_on_c, 0, 63, 68
1, 307566, Note_on_c, 0, 69, 71
1, 307593, Note_off_c, 0, 63, 66
1, 307593, Note_off_c, 0, 69, 69
1, 307614, Note_off_c, 0, 75, 63
1, 307781, Note_on_c, 0, 81, 74
1, 307786, Note_on_c, 0, 69, 70
1, 307789, Note_on_c, 0, 75, 73
1, 307875, Note_off_c, 0, 69, 62
1, 307878, Note_off_c, 0, 75, 60
1, 307891, Note_off_c, 0, 81, 64
1, 308007, Note_on_c, 0, 58, 63
1, 308013, Note_on_c, 0, 46, 57
1, 308061, Control_c, 0, 64, 110
1, 308075, Control_c, 0, 64, 85
1, 308090, Control_c, 0, 64, 70
1, 308105, Control_c, 0, 64, 60
1, 308120, Control_c, 0, 64, 55
1, 308135, Control_c, 0, 64, 56
1, 308149, Control_c, 0, 64, 58
1, 308164, Control_c, 0, 64, 62
1, 308179, Control_c, 0, 64, 65
1, 308194, Control_c, 0, 64, 70
1, 308209, Control_c, 0, 64, 76
1, 308219, Note_on_c, 0, 82, 64
1, 308220, Note_on_c, 0, 75, 59
1, 308221, Note_on_c, 0, 77, 65
1, 308223, Control_c, 0, 64, 85
1, 308225, Note_on_c, 0, 70, 53
1, 308238, Control_c, 0, 64, 94
1, 308253, Control_c, 0, 64, 101
1, 308262, Note_off_c, 0, 75, 59
1, 308268, Control_c, 0, 64, 106
1, 308282, Control_c, 0, 64, 111
1, 308293, Note_off_c, 0, 77, 54
1, 308297, Control_c, 0, 64, 119
1, 308298, Note_off_c, 0, 70, 54
1, 308312, Control_c, 0, 64, 127
1, 308338, Note_off_c, 0, 82, 51
1, 308349, Note_off_c, 0, 58, 37
1, 308409, Note_off_c, 0, 46, 39
1, 308461, Note_on_c, 0, 82, 65
1, 308465, Note_on_c, 0, 74, 57
1, 308469, Note_on_c, 0, 77, 45
1, 308491, Note_on_c, 0, 70, 51
1, 308496, Note_off_c, 0, 77, 61
1, 308501, Note_off_c, 0, 74, 63
1, 308510, Note_off_c, 0, 82, 58
1, 308529, Note_off_c, 0, 70, 63
1, 308705, Note_on_c, 0, 45, 54
1, 308708, Note_on_c, 0, 57, 54
1, 308708, Note_on_c, 0, 72, 62
1, 308720, Note_on_c, 0, 65, 53
1, 308790, Note_off_c, 0, 45, 56
1, 308790, Note_off_c, 0, 57, 57
1, 308859, Note_off_c, 0, 72, 49
1, 308866, Note_off_c, 0, 65, 31
1, 309006, Note_on_c, 0, 55, 76
1, 309008, Note_on_c, 0, 43, 68
1, 309047, Control_c, 0, 64, 117
1, 309062, Control_c, 0, 64, 82
1, 309077, Control_c, 0, 64, 68
1, 309092, Control_c, 0, 64, 61
1, 309106, Control_c, 0, 64, 59
1, 309121, Control_c, 0, 64, 61
1, 309136, Control_c, 0, 64, 64
1, 309151, Control_c, 0, 64, 67
1, 309166, Control_c, 0, 64, 74
1, 309180, Control_c, 0, 64, 82
1, 309195, Control_c, 0, 64, 91
1, 309202, Note_off_c, 0, 43, 58
1, 309210, Control_c, 0, 64, 100
1, 309225, Control_c, 0, 64, 111
1, 309238, Note_off_c, 0, 55, 57
1, 309240, Control_c, 0, 64, 127
1, 309278, Note_on_c, 0, 70, 69
1, 309278, Note_on_c, 0, 75, 82
1, 309285, Note_on_c, 0, 63, 71
1, 309378, Note_off_c, 0, 63, 60
1, 309407, Note_off_c, 0, 70, 62
1, 309410, Note_off_c, 0, 75, 61
1, 309504, Note_on_c, 0, 63, 85
1, 309509, Note_on_c, 0, 51, 80
1, 309589, Control_c, 0, 64, 97
1, 309603, Control_c, 0, 64, 76
1, 309618, Control_c, 0, 64, 65
1, 309633, Control_c, 0, 64, 62
1, 309648, Control_c, 0, 64, 64
1, 309663, Control_c, 0, 64, 67
1, 309677, Control_c, 0, 64, 71
1, 309692, Control_c, 0, 64, 79
1, 309707, Control_c, 0, 64, 92
1, 309718, Note_on_c, 0, 72, 88
1, 309721, Note_on_c, 0, 67, 78
1, 309721, Control_c, 0, 64, 110
1, 309722, Note_on_c, 0, 70, 80
1, 309734, Note_off_c, 0, 51, 53
1, 309736, Control_c, 0, 64, 127
1, 309739, Note_off_c, 0, 63, 56
1, 309814, Note_off_c, 0, 67, 61
1, 309822, Note_off_c, 0, 70, 63
1, 309839, Note_off_c, 0, 72, 64
1, 309938, Note_on_c, 0, 62, 89
1, 309940, Note_on_c, 0, 50, 82
1, 310018, Control_c, 0, 64, 99
1, 310033, Control_c, 0, 64, 76
1, 310048, Control_c, 0, 64, 63
1, 310063, Control_c, 0, 64, 55
1, 310077, Control_c, 0, 64, 55
1, 310092, Control_c, 0, 64, 59
1, 310107, Control_c, 0, 64, 62
1, 310121, Control_c, 0, 64, 66
1, 310144, Control_c, 0, 64, 71
1, 310159, Control_c, 0, 64, 78
1, 310168, Note_off_c, 0, 62, 61
1, 310174, Control_c, 0, 64, 85
1, 310177, Note_on_c, 0, 77, 94
1, 310179, Note_on_c, 0, 70, 80
1, 310180, Note_on_c, 0, 65, 82
1, 310185, Note_off_c, 0, 50, 61
1, 310189, Control_c, 0, 64, 92
1, 310204, Control_c, 0, 64, 97
1, 310219, Control_c, 0, 64, 103
1, 310234, Control_c, 0, 64, 109
1, 310249, Control_c, 0, 64, 111
1, 310264, Control_c, 0, 64, 113
1, 310266, Note_off_c, 0, 65, 58
1, 310293, Control_c, 0, 64, 114
1, 310319, Note_off_c, 0, 77, 63
1, 310320, Note_off_c, 0, 70, 62
1, 310382, Control_c, 0, 64, 116
1, 310397, Control_c, 0, 64, 117
1, 310412, Control_c, 0, 64, 121
1, 310426, Control_c, 0, 64, 123
1, 310441, Control_c, 0, 64, 127
1, 310445, Note_on_c, 0, 60, 83
1, 310447, Note_on_c, 0, 48, 77
1, 310515, Control_c, 0, 64, 107
1, 310530, Control_c, 0, 64, 85
1, 310544, Control_c, 0, 64, 68
1, 310559, Control_c, 0, 64, 57
1, 310574, Control_c, 0, 64, 55
1, 310589, Control_c, 0, 64, 56
1, 310604, Control_c, 0, 64, 58
1, 310618, Control_c, 0, 64, 62
1, 310633, Control_c, 0, 64, 65
1, 310648, Control_c, 0, 64, 70
1, 310663, Control_c, 0, 64, 76
1, 310678, Control_c, 0, 64, 83
1, 310680, Note_off_c, 0, 60, 54
1, 310693, Control_c, 0, 64, 89
1, 310704, Note_off_c, 0, 48, 55
1, 310708, Control_c, 0, 64, 93
1, 310723, Control_c, 0, 64, 97
1, 310738, Note_on_c, 0, 81, 72
1, 310738, Control_c, 0, 64, 104
1, 310738, Note_on_c, 0, 69, 61
1, 310740, Note_on_c, 0, 75, 61
1, 310740, Note_on_c, 0, 77, 57
1, 310752, Control_c, 0, 64, 110
1, 310767, Control_c, 0, 64, 119
1, 310782, Control_c, 0, 64, 127
1, 310898, Note_off_c, 0, 69, 35
1, 310928, Note_off_c, 0, 81, 56
1, 311022, Note_off_c, 0, 77, 36
1, 311025, Note_off_c, 0, 75, 36
1, 311222, Note_on_c, 0, 58, 50
1, 311236, Note_on_c, 0, 46, 41
1, 311353, Control_c, 0, 64, 115
1, 311367, Control_c, 0, 64, 106
1, 311382, Control_c, 0, 64, 97
1, 311397, Control_c, 0, 64, 86
1, 311412, Control_c, 0, 64, 77
1, 311427, Control_c, 0, 64, 69
1, 311441, Control_c, 0, 64, 63
1, 311456, Control_c, 0, 64, 60
1, 311471, Control_c, 0, 64, 59
1, 311486, Control_c, 0, 64, 57
1, 311501, Control_c, 0, 64, 55
1, 311530, Control_c, 0, 64, 56
1, 311545, Control_c, 0, 64, 58
1, 311560, Control_c, 0, 64, 61
1, 311575, Control_c, 0, 64, 63
1, 311590, Control_c, 0, 64, 64
1, 311605, Control_c, 0, 64, 66
1, 311620, Control_c, 0, 64, 68
1, 311635, Control_c, 0, 64, 71
1, 311656, Control_c, 0, 64, 75
1, 311671, Control_c, 0, 64, 79
1, 311686, Control_c, 0, 64, 84
1, 311696, Note_on_c, 0, 77, 52
1, 311699, Note_on_c, 0, 82, 62
1, 311700, Control_c, 0, 64, 89
1, 311706, Note_on_c, 0, 75, 44
1, 311706, Note_on_c, 0, 70, 52
1, 311715, Control_c, 0, 64, 98
1, 311730, Control_c, 0, 64, 115
1, 311746, Control_c, 0, 64, 127
1, 311800, Note_off_c, 0, 75, 56
1, 311824, Note_off_c, 0, 77, 58
1, 311852, Note_off_c, 0, 70, 32
1, 311861, Note_off_c, 0, 82, 54
1, 312097, Note_on_c, 0, 82, 65
1, 312109, Note_on_c, 0, 74, 43
1, 312109, Note_on_c, 0, 70, 41
1, 312121, Note_on_c, 0, 77, 44
1, 312166, Note_off_c, 0, 74, 56
1, 312177, Note_off_c, 0, 77, 53
1, 312190, Note_off_c, 0, 70, 50
1, 312365, Note_off_c, 0, 46, 35
1, 312400, Note_on_c, 0, 74, 56
1, 312401, Note_on_c, 0, 77, 56
1, 312416, Note_off_c, 0, 82, 51
1, 312425, Note_on_c, 0, 70, 33
1, 312436, Note_off_c, 0, 77, 65
1, 312437, Note_off_c, 0, 74, 64
1, 312464, Note_off_c, 0, 70, 50
1, 312604, Note_off_c, 0, 58, 11
1, 312619, Note_on_c, 0, 74, 58
1, 312632, Note_on_c, 0, 65, 46
1, 312639, Note_on_c, 0, 70, 30
1, 312675, Note_off_c, 0, 70, 52
1, 312681, Note_off_c, 0, 65, 60
1, 312727, Note_off_c, 0, 74, 56
1, 312875, Note_on_c, 0, 70, 56
1, 312899, Note_on_c, 0, 62, 27
1, 312937, Note_off_c, 0, 62, 50
1, 312947, Note_off_c, 0, 70, 59
1, 313272, Note_on_c, 0, 70, 60
1, 313289, Note_on_c, 0, 58, 43
1, 313348, Control_c, 0, 64, 97
1, 313363, Control_c, 0, 64, 80
1, 313377, Control_c, 0, 64, 69
1, 313392, Control_c, 0, 64, 63
1, 313407, Control_c, 0, 64, 60
1, 313422, Control_c, 0, 64, 62
1, 313437, Control_c, 0, 64, 65
1, 313451, Control_c, 0, 64, 69
1, 313466, Control_c, 0, 64, 77
1, 313481, Control_c, 0, 64, 89
1, 313486, Note_off_c, 0, 58, 60
1, 313496, Control_c, 0, 64, 106
1, 313511, Control_c, 0, 64, 127
1, 313538, Note_off_c, 0, 70, 61
1, 313805, Note_on_c, 0, 74, 56
1, 313822, Note_on_c, 0, 62, 35
1, 313857, Note_off_c, 0, 62, 52
1, 313895, Note_off_c, 0, 74, 63
1, 314050, Note_on_c, 0, 46, 41
1, 314073, Note_on_c, 0, 77, 58
1, 314091, Note_on_c, 0, 65, 43
1, 314110, Control_c, 0, 64, 95
1, 314125, Control_c, 0, 64, 78
1, 314141, Control_c, 0, 64, 67
1, 314156, Control_c, 0, 64, 63
1, 314171, Control_c, 0, 64, 63
1, 314186, Control_c, 0, 64, 65
1, 314200, Control_c, 0, 64, 68
1, 314215, Control_c, 0, 64, 73
1, 314230, Control_c, 0, 64, 80
1, 314245, Control_c, 0, 64, 87
1, 314260, Control_c, 0, 64, 93
1, 314270, Note_off_c, 0, 65, 41
1, 314274, Control_c, 0, 64, 97
1, 314275, Note_off_c, 0, 77, 54
1, 314281, Note_on_c, 0, 50, 14
1, 314289, Control_c, 0, 64, 99
1, 314290, Note_off_c, 0, 46, 38
1, 314304, Control_c, 0, 64, 101
1, 314319, Control_c, 0, 64, 102
1, 314328, Note_off_c, 0, 50, 51
1, 314334, Control_c, 0, 64, 102
1, 314367, Note_on_c, 0, 53, 44
1, 314422, Control_c, 0, 64, 103
1, 314425, Note_off_c, 0, 53, 55
1, 314437, Control_c, 0, 64, 104
1, 314452, Control_c, 0, 64, 105
1, 314464, Note_on_c, 0, 50, 23
1, 314467, Control_c, 0, 64, 109
1, 314482, Control_c, 0, 64, 113
1, 314511, Control_c, 0, 64, 111
1, 314526, Control_c, 0, 64, 103
1, 314531, Note_off_c, 0, 50, 56
1, 314541, Control_c, 0, 64, 90
1, 314546, Note_on_c, 0, 77, 66
1, 314556, Control_c, 0, 64, 74
1, 314556, Note_on_c, 0, 65, 49
1, 314568, Note_on_c, 0, 46, 44
1, 314571, Control_c, 0, 64, 68
1, 314585, Control_c, 0, 64, 69
1, 314600, Control_c, 0, 64, 73
1, 314615, Control_c, 0, 64, 78
1, 314630, Control_c, 0, 64, 84
1, 314652, Control_c, 0, 64, 92
1, 314666, Control_c, 0, 64, 101
1, 314675, Note_off_c, 0, 65, 36
1, 314681, Control_c, 0, 64, 104
1, 314683, Note_off_c, 0, 77, 59
1, 314689, Note_on_c, 0, 50, 41
1, 314696, Control_c, 0, 64, 105
1, 314726, Control_c, 0, 64, 106
1, 314731, Note_off_c, 0, 46, 30
1, 314731, Note_off_c, 0, 50, 62
1, 314741, Control_c, 0, 64, 108
1, 314756, Control_c, 0, 64, 111
1, 314771, Control_c, 0, 64, 113
1, 314773, Note_on_c, 0, 53, 49
1, 314786, Control_c, 0, 64, 113
1, 314815, Control_c, 0, 64, 114
1, 314828, Note_off_c, 0, 53, 56
1, 314859, Note_on_c, 0, 50, 38
1, 314932, Note_off_c, 0, 50, 54
1, 314950, Control_c, 0, 64, 113
1, 314964, Control_c, 0, 64, 106
1, 314979, Control_c, 0, 64, 94
1, 314981, Note_on_c, 0, 45, 53
1, 314988, Note_on_c, 0, 78, 76
1, 314990, Note_on_c, 0, 66, 61
1, 314994, Control_c, 0, 64, 80
1, 315009, Control_c, 0, 64, 69
1, 315023, Control_c, 0, 64, 62
1, 315053, Control_c, 0, 64, 64
1, 315068, Control_c, 0, 64, 65
1, 315083, Control_c, 0, 64, 69
1, 315097, Control_c, 0, 64, 75
1, 315098, Note_off_c, 0, 45, 55
1, 315102, Note_on_c, 0, 48, 51
1, 315112, Control_c, 0, 64, 83
1, 315127, Control_c, 0, 64, 92
1, 315141, Control_c, 0, 64, 100
1, 315150, Note_off_c, 0, 66, 52
1, 315156, Control_c, 0, 64, 107
1, 315171, Control_c, 0, 64, 119
1, 315185, Note_off_c, 0, 48, 63
1, 315186, Control_c, 0, 64, 127
1, 315203, Note_on_c, 0, 50, 59
1, 315204, Note_off_c, 0, 78, 51
1, 315271, Note_off_c, 0, 50, 61
1, 315283, Note_on_c, 0, 48, 57
1, 315365, Note_off_c, 0, 48, 61
1, 315391, Note_on_c, 0, 43, 55
1, 315411, Note_on_c, 0, 79, 90
1, 315415, Note_on_c, 0, 67, 82
1, 315415, Control_c, 0, 64, 123
1, 315430, Control_c, 0, 64, 90
1, 315445, Control_c, 0, 64, 72
1, 315460, Control_c, 0, 64, 63
1, 315475, Control_c, 0, 64, 62
1, 315489, Control_c, 0, 64, 65
1, 315504, Control_c, 0, 64, 69
1, 315519, Note_on_c, 0, 48, 59
1, 315519, Control_c, 0, 64, 76
1, 315522, Note_off_c, 0, 43, 57
1, 315528, Note_off_c, 0, 67, 60
1, 315534, Control_c, 0, 64, 86
1, 315548, Note_on_c, 0, 76, 42
1, 315549, Control_c, 0, 64, 100
1, 315562, Note_off_c, 0, 79, 63
1, 315564, Control_c, 0, 64, 113
1, 315567, Note_on_c, 0, 74, 22
1, 315577, Note_off_c, 0, 76, 60
1, 315578, Control_c, 0, 64, 123
1, 315593, Note_off_c, 0, 74, 46
1, 315593, Control_c, 0, 64, 127
1, 315609, Note_off_c, 0, 48, 64
1, 315630, Note_on_c, 0, 50, 65
1, 315702, Note_off_c, 0, 50, 62
1, 315727, Note_on_c, 0, 48, 57
1, 315800, Note_off_c, 0, 48, 60
1, 315828, Note_on_c, 0, 42, 54
1, 315846, Control_c, 0, 64, 102
1, 315852, Note_on_c, 0, 81, 80
1, 315853, Note_on_c, 0, 69, 75
1, 315861, Control_c, 0, 64, 78
1, 315876, Control_c, 0, 64, 67
1, 315891, Control_c, 0, 64, 61
1, 315905, Control_c, 0, 64, 60
1, 315935, Control_c, 0, 64, 61
1, 315950, Control_c, 0, 64, 64
1, 315964, Control_c, 0, 64, 69
1, 315971, Note_off_c, 0, 69, 54
1, 315978, Note_off_c, 0, 42, 50
1, 315979, Control_c, 0, 64, 74
1, 315988, Note_on_c, 0, 48, 44
1, 315994, Control_c, 0, 64, 79
1, 316009, Control_c, 0, 64, 82
1, 316017, Note_off_c, 0, 81, 62
1, 316024, Control_c, 0, 64, 85
1, 316038, Control_c, 0, 64, 87
1, 316053, Control_c, 0, 64, 90
1, 316063, Note_off_c, 0, 48, 62
1, 316068, Control_c, 0, 64, 91
1, 316106, Note_on_c, 0, 50, 43
1, 316163, Note_off_c, 0, 50, 61
1, 316194, Control_c, 0, 64, 91
1, 316219, Note_on_c, 0, 48, 38
1, 316270, Note_off_c, 0, 48, 48
1, 316312, Note_on_c, 0, 42, 44
1, 316386, Control_c, 0, 64, 91
1, 316395, Note_on_c, 0, 84, 63
1, 316401, Control_c, 0, 64, 90
1, 316413, Note_on_c, 0, 72, 42
1, 316416, Control_c, 0, 64, 87
1, 316431, Control_c, 0, 64, 78
1, 316446, Control_c, 0, 64, 69
1, 316461, Control_c, 0, 64, 63
1, 316476, Control_c, 0, 64, 62
1, 316491, Control_c, 0, 64, 63
1, 316506, Control_c, 0, 64, 64
1, 316520, Control_c, 0, 64, 67
1, 316522, Note_off_c, 0, 42, 51
1, 316532, Note_off_c, 0, 72, 38
1, 316535, Control_c, 0, 64, 70
1, 316547, Note_on_c, 0, 45, 31
1, 316550, Control_c, 0, 64, 74
1, 316560, Note_off_c, 0, 84, 54
1, 316565, Control_c, 0, 64, 79
1, 316580, Control_c, 0, 64, 85
1, 316595, Control_c, 0, 64, 94
1, 316610, Control_c, 0, 64, 106
1, 316625, Control_c, 0, 64, 119
1, 316628, Note_off_c, 0, 45, 58
1, 316640, Control_c, 0, 64, 127
1, 316675, Note_on_c, 0, 50, 40
1, 316729, Note_off_c, 0, 50, 60
1, 316765, Note_on_c, 0, 45, 44
1, 316825, Note_off_c, 0, 45, 57
1, 316884, Note_on_c, 0, 43, 40
1, 316904, Note_on_c, 0, 82, 68
1, 316914, Control_c, 0, 64, 113
1, 316916, Note_on_c, 0, 70, 52
1, 316929, Control_c, 0, 64, 97
1, 316943, Control_c, 0, 64, 82
1, 316958, Control_c, 0, 64, 71
1, 316973, Control_c, 0, 64, 65
1, 317001, Control_c, 0, 64, 67
1, 317016, Control_c, 0, 64, 70
1, 317031, Control_c, 0, 64, 75
1, 317036, Note_on_c, 0, 46, 38
1, 317046, Control_c, 0, 64, 82
1, 317060, Control_c, 0, 64, 90
1, 317075, Control_c, 0, 64, 98
1, 317081, Note_off_c, 0, 46, 63
1, 317090, Control_c, 0, 64, 102
1, 317105, Control_c, 0, 64, 106
1, 317111, Note_off_c, 0, 70, 38
1, 317120, Control_c, 0, 64, 109
1, 317130, Note_on_c, 0, 50, 43
1, 317135, Control_c, 0, 64, 112
1, 317149, Control_c, 0, 64, 115
1, 317164, Control_c, 0, 64, 123
1, 317169, Note_off_c, 0, 43, 19
1, 317179, Note_off_c, 0, 82, 31
1, 317179, Control_c, 0, 64, 127
1, 317204, Note_on_c, 0, 46, 53
1, 317213, Note_off_c, 0, 50, 57
1, 317242, Note_off_c, 0, 46, 64
1, 317313, Control_c, 0, 64, 114
1, 317328, Control_c, 0, 64, 97
1, 317328, Note_on_c, 0, 81, 80
1, 317334, Note_on_c, 0, 69, 67
1, 317343, Control_c, 0, 64, 79
1, 317346, Note_on_c, 0, 48, 54
1, 317358, Control_c, 0, 64, 66
1, 317373, Control_c, 0, 64, 60
1, 317388, Control_c, 0, 64, 61
1, 317403, Control_c, 0, 64, 63
1, 317417, Control_c, 0, 64, 66
1, 317432, Control_c, 0, 64, 69
1, 317447, Control_c, 0, 64, 76
1, 317460, Note_on_c, 0, 51, 53
1, 317462, Control_c, 0, 64, 83
1, 317477, Control_c, 0, 64, 89
1, 317477, Note_off_c, 0, 69, 57
1, 317489, Note_off_c, 0, 81, 60
1, 317491, Control_c, 0, 64, 93
1, 317506, Control_c, 0, 64, 96
1, 317517, Note_off_c, 0, 51, 62
1, 317521, Control_c, 0, 64, 98
1, 317536, Control_c, 0, 64, 101
1, 317551, Control_c, 0, 64, 106
1, 317561, Note_on_c, 0, 57, 52
1, 317565, Control_c, 0, 64, 111
1, 317580, Control_c, 0, 64, 115
1, 317595, Control_c, 0, 64, 121
1, 317608, Note_off_c, 0, 48, 42
1, 317609, Control_c, 0, 64, 127
1, 317626, Note_off_c, 0, 57, 58
1, 317643, Note_on_c, 0, 51, 56
1, 317655, Note_on_c, 0, 79, 86
1, 317661, Note_on_c, 0, 67, 75
1, 317677, Note_off_c, 0, 51, 65
1, 317695, Note_off_c, 0, 67, 65
1, 317704, Note_off_c, 0, 79, 65
1, 317742, Poly_aftertouch_c, 0, 74, 0
1, 317751, Note_on_c, 0, 50, 59
1, 317778, Note_on_c, 0, 78, 83
1, 317780, Control_c, 0, 64, 107
1, 317793, Note_on_c, 0, 66, 70
1, 317795, Control_c, 0, 64, 87
1, 317809, Control_c, 0, 64, 69
1, 317824, Control_c, 0, 64, 56
1, 317839, Control_c, 0, 64, 51
1, 317854, Control_c, 0, 64, 52
1, 317869, Control_c, 0, 64, 55
1, 317883, Control_c, 0, 64, 61
1, 317898, Control_c, 0, 64, 65
1, 317903, Note_on_c, 0, 57, 43
1, 317913, Control_c, 0, 64, 72
1, 317918, Note_off_c, 0, 66, 55
1, 317923, Note_off_c, 0, 50, 44
1, 317928, Control_c, 0, 64, 78
1, 317942, Note_off_c, 0, 78, 58
1, 317942, Control_c, 0, 64, 85
1, 317957, Control_c, 0, 64, 91
1, 317963, Note_off_c, 0, 57, 62
1, 317972, Control_c, 0, 64, 97
1, 317987, Control_c, 0, 64, 104
1, 318002, Control_c, 0, 64, 117
1, 318003, Note_on_c, 0, 60, 48
1, 318017, Control_c, 0, 64, 127
1, 318049, Note_off_c, 0, 60, 60
1, 318100, Note_on_c, 0, 57, 42
1, 318165, Note_off_c, 0, 57, 55
1, 318220, Note_on_c, 0, 50, 40
1, 318226, Control_c, 0, 64, 106
1, 318235, Note_on_c, 0, 78, 68
1, 318240, Control_c, 0, 64, 81
1, 318248, Note_on_c, 0, 66, 47
1, 318255, Control_c, 0, 64, 67
1, 318270, Control_c, 0, 64, 60
1, 318285, Control_c, 0, 64, 62
1, 318300, Control_c, 0, 64, 64
1, 318314, Control_c, 0, 64, 67
1, 318329, Control_c, 0, 64, 72
1, 318344, Control_c, 0, 64, 79
1, 318358, Control_c, 0, 64, 85
1, 318367, Note_on_c, 0, 57, 41
1, 318373, Control_c, 0, 64, 88
1, 318395, Control_c, 0, 64, 90
1, 318402, Note_off_c, 0, 50, 41
1, 318410, Control_c, 0, 64, 93
1, 318416, Note_off_c, 0, 78, 52
1, 318425, Control_c, 0, 64, 98
1, 318440, Control_c, 0, 64, 104
1, 318442, Note_off_c, 0, 57, 60
1, 318447, Note_off_c, 0, 66, 38
1, 318455, Control_c, 0, 64, 107
1, 318470, Control_c, 0, 64, 108
1, 318479, Note_on_c, 0, 60, 47
1, 318499, Control_c, 0, 64, 108
1, 318528, Control_c, 0, 64, 109
1, 318530, Note_off_c, 0, 60, 58
1, 318543, Control_c, 0, 64, 110
1, 318557, Control_c, 0, 64, 112
1, 318572, Control_c, 0, 64, 114
1, 318583, Note_on_c, 0, 57, 39
1, 318587, Control_c, 0, 64, 118
1, 318602, Control_c, 0, 64, 127
1, 318646, Control_c, 0, 64, 118
1, 318661, Control_c, 0, 64, 99
1, 318669, Note_off_c, 0, 57, 49
1, 318676, Control_c, 0, 64, 82
1, 318687, Note_on_c, 0, 79, 60
1, 318691, Control_c, 0, 64, 71
1, 318694, Note_on_c, 0, 67, 45
1, 318705, Control_c, 0, 64, 67
1, 318718, Note_on_c, 0, 50, 28
1, 318720, Control_c, 0, 64, 68
1, 318735, Control_c, 0, 64, 69
1, 318750, Control_c, 0, 64, 74
1, 318765, Control_c, 0, 64, 83
1, 318779, Note_off_c, 0, 67, 43
1, 318780, Control_c, 0, 64, 98
1, 318795, Control_c, 0, 64, 127
1, 318797, Note_off_c, 0, 79, 65
1, 318852, Note_on_c, 0, 57, 41
1, 318866, Note_off_c, 0, 50, 34
1, 318903, Note_off_c, 0, 57, 60
1, 318969, Note_on_c, 0, 78, 54
1, 318973, Note_on_c, 0, 60, 32
1, 318975, Note_on_c, 0, 66, 43
1, 319021, Note_off_c, 0, 78, 60
1, 319026, Note_off_c, 0, 66, 58
1, 319035, Note_off_c, 0, 60, 54
1, 319091, Note_on_c, 0, 57, 35
1, 319191, Note_off_c, 0, 57, 49
1, 319219, Note_on_c, 0, 76, 55
1, 319233, Control_c, 0, 64, 115
1, 319239, Note_on_c, 0, 64, 41
1, 319248, Control_c, 0, 64, 86
1, 319262, Note_on_c, 0, 50, 31
1, 319262, Control_c, 0, 64, 72
1, 319277, Control_c, 0, 64, 67
1, 319292, Control_c, 0, 64, 69
1, 319307, Control_c, 0, 64, 74
1, 319322, Control_c, 0, 64, 82
1, 319336, Control_c, 0, 64, 96
1, 319349, Note_off_c, 0, 64, 54
1, 319351, Control_c, 0, 64, 127
1, 319368, Note_off_c, 0, 76, 63
1, 319378, Note_on_c, 0, 57, 36
1, 319432, Note_off_c, 0, 57, 61
1, 319481, Note_off_c, 0, 50, 30
1, 319526, Note_on_c, 0, 60, 17
1, 319541, Note_on_c, 0, 78, 54
1, 319548, Note_on_c, 0, 66, 44
1, 319599, Note_off_c, 0, 60, 39
1, 319603, Note_off_c, 0, 66, 55
1, 319665, Note_off_c, 0, 78, 35
1, 319668, Note_on_c, 0, 57, 41
1, 319728, Note_off_c, 0, 57, 58
1, 320012, Note_on_c, 0, 43, 35
1, 320062, Note_on_c, 0, 67, 44
1, 320062, Note_on_c, 0, 79, 55
1, 320071, Control_c, 0, 64, 94
1, 320086, Control_c, 0, 64, 76
1, 320101, Control_c, 0, 64, 66
1, 320115, Control_c, 0, 64, 63
1, 320130, Control_c, 0, 64, 64
1, 320145, Control_c, 0, 64, 66
1, 320160, Control_c, 0, 64, 71
1, 320175, Control_c, 0, 64, 83
1, 320190, Control_c, 0, 64, 110
1, 320204, Control_c, 0, 64, 127
1, 320217, Note_off_c, 0, 43, 40
1, 320344, Note_off_c, 0, 67, 35
1, 320389, Note_off_c, 0, 79, 29
1, 320440, Note_on_c, 0, 55, 32
1, 320450, Note_on_c, 0, 50, 19
1, 320459, Note_on_c, 0, 59, 23
1, 320497, Note_off_c, 0, 55, 56
1, 320509, Note_off_c, 0, 59, 47
1, 320528, Note_off_c, 0, 50, 40
1, 320616, Note_on_c, 0, 50, 11
1, 320643, Note_on_c, 0, 59, 20
1, 320643, Note_on_c, 0, 55, 30
1, 320688, Note_off_c, 0, 55, 47
1, 320697, Note_off_c, 0, 59, 43
1, 320744, Note_off_c, 0, 50, 0
1, 320780, Poly_aftertouch_c, 0, 50, 127
1, 320783, Note_on_c, 0, 59, 36
1, 320799, Note_on_c, 0, 55, 34
1, 320831, Note_off_c, 0, 55, 52
1, 320832, Note_off_c, 0, 59, 53
1, 320899, Poly_aftertouch_c, 0, 50, 0
1, 320936, Poly_aftertouch_c, 0, 50, 127
1, 320944, Note_on_c, 0, 55, 40
1, 320952, Note_on_c, 0, 59, 14
1, 320985, Note_off_c, 0, 55, 51
1, 321007, Note_off_c, 0, 59, 44
1, 321105, Poly_aftertouch_c, 0, 50, 0
1, 321142, Poly_aftertouch_c, 0, 50, 127
1, 321155, Note_on_c, 0, 55, 27
1, 321168, Note_on_c, 0, 72, 57
1, 321177, Note_on_c, 0, 59, 23
1, 321235, Note_off_c, 0, 55, 53
1, 321244, Note_off_c, 0, 59, 49
1, 321298, Note_off_c, 0, 72, 55
1, 321320, Poly_aftertouch_c, 0, 50, 0
1, 321345, Note_on_c, 0, 50, 7
1, 321351, Note_on_c, 0, 55, 42
1, 321363, Note_on_c, 0, 59, 17
1, 321407, Note_off_c, 0, 55, 56
1, 321411, Note_off_c, 0, 59, 48
1, 321429, Note_on_c, 0, 71, 65
1, 321434, Note_off_c, 0, 50, 40
1, 321528, Note_on_c, 0, 55, 41
1, 321551, Note_off_c, 0, 71, 55
1, 321553, Poly_aftertouch_c, 0, 50, 127
1, 321562, Note_off_c, 0, 55, 56
1, 321585, Poly_aftertouch_c, 0, 59, 127
1, 321612, Poly_aftertouch_c, 0, 50, 0
1, 321665, Poly_aftertouch_c, 0, 59, 0
1, 321669, Note_on_c, 0, 70, 66
1, 321683, Note_on_c, 0, 50, 12
1, 321683, Note_on_c, 0, 55, 41
1, 321702, Poly_aftertouch_c, 0, 59, 127
1, 321729, Note_off_c, 0, 55, 58
1, 321739, Note_off_c, 0, 70, 62
1, 321746, Note_off_c, 0, 50, 47
1, 321752, Poly_aftertouch_c, 0, 59, 0
1, 321841, Note_on_c, 0, 55, 47
1, 321841, Note_on_c, 0, 59, 38
1, 321850, Note_on_c, 0, 50, 25
1, 321878, Note_off_c, 0, 55, 61
1, 321882, Note_off_c, 0, 59, 54
1, 321894, Note_off_c, 0, 50, 49
1, 321928, Note_on_c, 0, 71, 65
1, 321989, Note_off_c, 0, 71, 62
1, 322029, Note_on_c, 0, 50, 31
1, 322080, Poly_aftertouch_c, 0, 55, 127
1, 322091, Poly_aftertouch_c, 0, 59, 0
1, 322100, Note_off_c, 0, 50, 60
1, 322118, Poly_aftertouch_c, 0, 55, 0
1, 322175, Note_on_c, 0, 71, 54
1, 322360, Note_on_c, 0, 36, 41
1, 322406, Control_c, 0, 64, 117
1, 322420, Note_off_c, 0, 71, 23
1, 322421, Control_c, 0, 64, 83
1, 322436, Control_c, 0, 64, 67
1, 322440, Note_on_c, 0, 76, 57
1, 322451, Control_c, 0, 64, 58
1, 322466, Control_c, 0, 64, 56
1, 322480, Control_c, 0, 64, 57
1, 322495, Control_c, 0, 64, 60
1, 322510, Control_c, 0, 64, 64
1, 322525, Control_c, 0, 64, 69
1, 322538, Note_off_c, 0, 36, 62
1, 322540, Control_c, 0, 64, 78
1, 322554, Control_c, 0, 64, 91
1, 322569, Control_c, 0, 64, 127
1, 322765, Note_on_c, 0, 52, 37
1, 322771, Note_on_c, 0, 59, 23
1, 322816, Note_off_c, 0, 52, 56
1, 322819, Note_off_c, 0, 59, 47
1, 322830, Poly_aftertouch_c, 0, 48, 127
1, 322886, Poly_aftertouch_c, 0, 48, 0
1, 322931, Note_on_c, 0, 59, 56
1, 322975, Note_off_c, 0, 59, 56
1, 322978, Poly_aftertouch_c, 0, 48, 127
1, 323033, Note_off_c, 0, 76, 59
1, 323064, Poly_aftertouch_c, 0, 48, 0
1, 323075, Note_on_c, 0, 56, 53
1, 323096, Note_on_c, 0, 52, 24
1, 323101, Poly_aftertouch_c, 0, 48, 127
1, 323119, Note_off_c, 0, 56, 61
1, 323136, Note_off_c, 0, 52, 51
1, 323171, Poly_aftertouch_c, 0, 48, 0
1, 323219, Note_on_c, 0, 56, 54
1, 323253, Note_on_c, 0, 52, 27
1, 323255, Note_off_c, 0, 56, 64
1, 323290, Note_off_c, 0, 52, 53
1, 323358, Note_on_c, 0, 56, 50
1, 323358, Poly_aftertouch_c, 0, 48, 0
1, 323394, Poly_aftertouch_c, 0, 48, 127
1, 323411, Note_off_c, 0, 56, 59
1, 323413, Note_on_c, 0, 52, 17
1, 323495, Note_off_c, 0, 52, 0
1, 323496, Poly_aftertouch_c, 0, 48, 0
1, 323514, Note_on_c, 0, 48, 17
1, 323517, Note_on_c, 0, 52, 17
1, 323517, Note_on_c, 0, 71, 57
1, 323523, Note_on_c, 0, 57, 45
1, 323525, Control_c, 0, 64, 92
1, 323540, Control_c, 0, 64, 73
1, 323555, Control_c, 0, 64, 64
1, 323569, Control_c, 0, 64, 63
1, 323584, Control_c, 0, 64, 64
1, 323599, Control_c, 0, 64, 67
1, 323614, Control_c, 0, 64, 71
1, 323636, Control_c, 0, 64, 79
1, 323651, Control_c, 0, 64, 90
1, 323661, Note_off_c, 0, 57, 0
1, 323663, Note_off_c, 0, 52, 0
1, 323666, Control_c, 0, 64, 103
1, 323673, Note_off_c, 0, 48, 0
1, 323673, Note_on_c, 0, 48, 11
1, 323677, Note_on_c, 0, 57, 38
1, 323679, Note_on_c, 0, 52, 36
1, 323681, Control_c, 0, 64, 123
1, 323695, Control_c, 0, 64, 127
1, 323734, Note_off_c, 0, 52, 60
1, 323738, Note_off_c, 0, 57, 60
1, 323762, Note_off_c, 0, 48, 40
1, 323769, Note_on_c, 0, 69, 71
1, 323800, Note_off_c, 0, 71, 35
1, 323846, Note_on_c, 0, 48, 31
1, 323861, Note_on_c, 0, 57, 38
1, 323863, Note_on_c, 0, 52, 36
1, 323879, Note_off_c, 0, 69, 57
1, 323889, Note_off_c, 0, 48, 47
1, 323890, Note_off_c, 0, 52, 57
1, 323892, Note_off_c, 0, 57, 54
1, 323976, Note_on_c, 0, 52, 56
1, 323976, Note_on_c, 0, 68, 70
1, 323991, Note_on_c, 0, 57, 48
1, 324005, Note_on_c, 0, 48, 18
1, 324023, Note_off_c, 0, 52, 61
1, 324023, Note_off_c, 0, 57, 61
1, 324038, Note_off_c, 0, 68, 58
1, 324047, Note_off_c, 0, 48, 42
1, 324118, Note_on_c, 0, 52, 54
1, 324119, Note_on_c, 0, 57, 49
1, 324151, Note_off_c, 0, 57, 62
1, 324155, Note_off_c, 0, 52, 63
1, 324164, Note_on_c, 0, 69, 73
1, 324218, Note_off_c, 0, 69, 63
1, 324241, Note_on_c, 0, 52, 59
1, 324247, Note_on_c, 0, 57, 48
1, 324271, Note_on_c, 0, 48, 40
1, 324271, Note_off_c, 0, 57, 62
1, 324271, Note_off_c, 0, 52, 66
1, 324305, Note_off_c, 0, 48, 49
1, 324329, Note_on_c, 0, 69, 73
1, 324464, Note_on_c, 0, 35, 49
1, 324474, Control_c, 0, 64, 90
1, 324489, Control_c, 0, 64, 70
1, 324499, Note_off_c, 0, 69, 38
1, 324504, Control_c, 0, 64, 58
1, 324519, Control_c, 0, 64, 51
1, 324529, Note_on_c, 0, 74, 60
1, 324535, Control_c, 0, 64, 54
1, 324549, Control_c, 0, 64, 58
1, 324564, Control_c, 0, 64, 63
1, 324566, Note_off_c, 0, 35, 61
1, 324579, Control_c, 0, 64, 68
1, 324594, Control_c, 0, 64, 75
1, 324609, Control_c, 0, 64, 85
1, 324623, Control_c, 0, 64, 95
1, 324638, Control_c, 0, 64, 100
1, 324653, Control_c, 0, 64, 104
1, 324668, Control_c, 0, 64, 109
1, 324682, Control_c, 0, 64, 113
1, 324697, Control_c, 0, 64, 118
1, 324712, Control_c, 0, 64, 127
1, 324729, Note_on_c, 0, 57, 58
1, 324755, Note_on_c, 0, 47, 33
1, 324772, Note_off_c, 0, 57, 62
1, 324792, Note_off_c, 0, 47, 53
1, 324882, Note_on_c, 0, 57, 54
1, 324897, Note_on_c, 0, 47, 34
1, 324918, Note_off_c, 0, 57, 64
1, 324937, Note_off_c, 0, 47, 49
1, 325037, Note_on_c, 0, 54, 36
1, 325070, Note_off_c, 0, 54, 53
1, 325086, Poly_aftertouch_c, 0, 50, 127
1, 325116, Poly_aftertouch_c, 0, 50, 0
1, 325174, Note_on_c, 0, 54, 52
1, 325215, Note_off_c, 0, 54, 62
1, 325236, Poly_aftertouch_c, 0, 50, 127
1, 325266, Poly_aftertouch_c, 0, 50, 0
1, 325340, Note_on_c, 0, 54, 41
1, 325354, Note_on_c, 0, 50, 16
1, 325371, Poly_aftertouch_c, 0, 47, 127
1, 325375, Note_off_c, 0, 54, 58
1, 325409, Note_off_c, 0, 50, 44
1, 325415, Poly_aftertouch_c, 0, 47, 0
1, 325509, Note_off_c, 0, 74, 33
1, 325514, Note_on_c, 0, 50, 25
1, 325522, Note_on_c, 0, 55, 46
1, 325523, Note_on_c, 0, 47, 6
1, 325531, Note_on_c, 0, 72, 60
1, 325535, Control_c, 0, 64, 103
1, 325550, Control_c, 0, 64, 81
1, 325565, Control_c, 0, 64, 68
1, 325579, Control_c, 0, 64, 62
1, 325594, Control_c, 0, 64, 63
1, 325609, Control_c, 0, 64, 65
1, 325615, Note_off_c, 0, 50, 35
1, 325624, Control_c, 0, 64, 68
1, 325639, Control_c, 0, 64, 75
1, 325650, Note_off_c, 0, 47, 0
1, 325654, Control_c, 0, 64, 84
1, 325661, Note_off_c, 0, 55, 0
1, 325669, Control_c, 0, 64, 96
1, 325676, Note_on_c, 0, 55, 36
1, 325677, Note_on_c, 0, 47, 12
1, 325684, Control_c, 0, 64, 105
1, 325688, Note_on_c, 0, 50, 28
1, 325698, Control_c, 0, 64, 110
1, 325713, Control_c, 0, 64, 113
1, 325728, Control_c, 0, 64, 117
1, 325740, Note_off_c, 0, 50, 55
1, 325740, Note_off_c, 0, 55, 54
1, 325743, Control_c, 0, 64, 127
1, 325779, Note_on_c, 0, 71, 78
1, 325783, Note_off_c, 0, 72, 54
1, 325810, Note_off_c, 0, 47, 0
1, 325827, Note_on_c, 0, 55, 52
1, 325827, Note_on_c, 0, 47, 25
1, 325839, Note_on_c, 0, 50, 42
1, 325878, Note_off_c, 0, 55, 60
1, 325880, Note_off_c, 0, 50, 61
1, 325883, Note_off_c, 0, 47, 57
1, 325925, Note_off_c, 0, 71, 54
1, 325977, Note_on_c, 0, 55, 53
1, 325982, Note_on_c, 0, 50, 51
1, 325990, Note_on_c, 0, 47, 39
1, 325994, Note_on_c, 0, 69, 80
1, 326015, Note_off_c, 0, 55, 62
1, 326016, Note_off_c, 0, 50, 63
1, 326021, Note_off_c, 0, 47, 54
1, 326105, Note_off_c, 0, 69, 53
1, 326108, Note_on_c, 0, 50, 59
1, 326109, Note_on_c, 0, 47, 54
1, 326111, Note_on_c, 0, 55, 56
1, 326150, Note_off_c, 0, 47, 59
1, 326153, Note_off_c, 0, 55, 60
1, 326155, Note_off_c, 0, 50, 63
1, 326216, Note_on_c, 0, 67, 83
1, 326289, Note_on_c, 0, 50, 62
1, 326292, Note_on_c, 0, 47, 55
1, 326292, Note_on_c, 0, 55, 50
1, 326304, Note_off_c, 0, 67, 60
1, 326317, Note_off_c, 0, 50, 67
1, 326319, Note_off_c, 0, 55, 62
1, 326322, Note_off_c, 0, 47, 64
1, 326466, Note_on_c, 0, 36, 57
1, 326477, Control_c, 0, 64, 101
1, 326486, Note_on_c, 0, 74, 83
1, 326489, Note_on_c, 0, 66, 67
1, 326492, Control_c, 0, 64, 74
1, 326506, Control_c, 0, 64, 61
1, 326521, Control_c, 0, 64, 54
1, 326536, Control_c, 0, 64, 57
1, 326551, Control_c, 0, 64, 61
1, 326560, Note_off_c, 0, 36, 64
1, 326566, Control_c, 0, 64, 66
1, 326581, Control_c, 0, 64, 75
1, 326595, Control_c, 0, 64, 90
1, 326610, Control_c, 0, 64, 108
1, 326628, Note_off_c, 0, 74, 60
1, 326632, Control_c, 0, 64, 117
1, 326688, Note_on_c, 0, 48, 54
1, 326734, Note_off_c, 0, 48, 59
1, 326759, Poly_aftertouch_c, 0, 52, 127
1, 326770, Note_on_c, 0, 72, 80
1, 326775, Note_on_c, 0, 64, 65
1, 326808, Note_off_c, 0, 66, 36
1, 326811, Note_off_c, 0, 64, 65
1, 326844, Poly_aftertouch_c, 0, 52, 0
1, 326849, Note_on_c, 0, 48, 52
1, 326864, Note_on_c, 0, 52, 16
1, 326868, Control_c, 0, 64, 119
1, 326883, Control_c, 0, 64, 121
1, 326886, Note_off_c, 0, 48, 65
1, 326906, Note_off_c, 0, 72, 57
1, 326907, Note_off_c, 0, 52, 51
1, 326914, Control_c, 0, 64, 123
1, 326973, Control_c, 0, 64, 127
1, 326981, Note_on_c, 0, 71, 71
1, 326986, Note_on_c, 0, 48, 53
1, 326993, Note_on_c, 0, 62, 56
1, 327026, Note_off_c, 0, 48, 63
1, 327030, Note_off_c, 0, 62, 63
1, 327069, Poly_aftertouch_c, 0, 52, 127
1, 327100, Poly_aftertouch_c, 0, 52, 0
1, 327141, Note_on_c, 0, 48, 42
1, 327174, Note_off_c, 0, 71, 59
1, 327174, Note_off_c, 0, 48, 60
1, 327190, Note_on_c, 0, 69, 70
1, 327218, Note_on_c, 0, 60, 47
1, 327263, Note_off_c, 0, 60, 57
1, 327264, Note_on_c, 0, 48, 59
1, 327294, Note_off_c, 0, 48, 64
1, 327410, Control_c, 0, 64, 97
1, 327425, Control_c, 0, 64, 75
1, 327440, Control_c, 0, 64, 61
1, 327451, Note_off_c, 0, 69, 34
1, 327454, Note_on_c, 0, 67, 55
1, 327454, Control_c, 0, 64, 53
1, 327456, Note_on_c, 0, 59, 51
1, 327457, Note_on_c, 0, 38, 45
1, 327469, Control_c, 0, 64, 55
1, 327484, Control_c, 0, 64, 58
1, 327496, Note_off_c, 0, 38, 61
1, 327499, Control_c, 0, 64, 62
1, 327514, Control_c, 0, 64, 68
1, 327529, Control_c, 0, 64, 77
1, 327544, Control_c, 0, 64, 92
1, 327559, Control_c, 0, 64, 108
1, 327574, Control_c, 0, 64, 127
1, 327577, Note_off_c, 0, 59, 52
1, 327596, Note_off_c, 0, 67, 62
1, 327645, Note_on_c, 0, 50, 46
1, 327659, Note_on_c, 0, 55, 39
1, 327676, Note_off_c, 0, 50, 63
1, 327693, Note_off_c, 0, 55, 52
1, 327776, Note_on_c, 0, 50, 52
1, 327809, Note_off_c, 0, 50, 65
1, 327944, Note_on_c, 0, 71, 64
1, 327945, Control_c, 0, 64, 112
1, 327952, Note_on_c, 0, 38, 45
1, 327958, Note_on_c, 0, 62, 48
1, 327960, Control_c, 0, 64, 87
1, 327974, Control_c, 0, 64, 71
1, 327989, Control_c, 0, 64, 64
1, 328004, Control_c, 0, 64, 61
1, 328018, Control_c, 0, 64, 60
1, 328033, Control_c, 0, 64, 61
1, 328040, Note_off_c, 0, 38, 61
1, 328048, Control_c, 0, 64, 63
1, 328063, Control_c, 0, 64, 69
1, 328078, Note_off_c, 0, 71, 59
1, 328078, Control_c, 0, 64, 77
1, 328092, Control_c, 0, 64, 91
1, 328107, Control_c, 0, 64, 105
1, 328130, Control_c, 0, 64, 110
1, 328145, Control_c, 0, 64, 111
1, 328160, Control_c, 0, 64, 111
1, 328189, Control_c, 0, 64, 112
1, 328218, Control_c, 0, 64, 113
1, 328219, Note_on_c, 0, 50, 41
1, 328232, Control_c, 0, 64, 113
1, 328247, Control_c, 0, 64, 114
1, 328250, Note_on_c, 0, 54, 26
1, 328265, Note_off_c, 0, 50, 62
1, 328290, Note_off_c, 0, 54, 52
1, 328351, Note_off_c, 0, 62, 38
1, 328405, Note_on_c, 0, 50, 38
1, 328422, Note_on_c, 0, 54, 31
1, 328475, Note_off_c, 0, 50, 56
1, 328478, Note_off_c, 0, 54, 46
1, 328535, Note_on_c, 0, 69, 53
1, 328544, Note_on_c, 0, 60, 38
1, 328594, Note_off_c, 0, 60, 59
1, 328663, Control_c, 0, 64, 113
1, 328678, Control_c, 0, 64, 113
1, 328685, Note_on_c, 0, 43, 36
1, 328722, Control_c, 0, 64, 111
1, 328726, Note_off_c, 0, 69, 33
1, 328737, Control_c, 0, 64, 109
1, 328752, Control_c, 0, 64, 104
1, 328767, Control_c, 0, 64, 93
1, 328777, Note_on_c, 0, 67, 48
1, 328781, Note_on_c, 0, 59, 42
1, 328782, Control_c, 0, 64, 78
1, 328796, Control_c, 0, 64, 66
1, 328811, Control_c, 0, 64, 57
1, 328826, Control_c, 0, 64, 55
1, 328841, Control_c, 0, 64, 55
1, 328863, Control_c, 0, 64, 57
1, 328878, Control_c, 0, 64, 61
1, 328893, Control_c, 0, 64, 66
1, 328908, Control_c, 0, 64, 72
1, 328920, Note_off_c, 0, 43, 40
1, 328922, Control_c, 0, 64, 79
1, 328937, Control_c, 0, 64, 87
1, 328952, Control_c, 0, 64, 94
1, 328966, Control_c, 0, 64, 102
1, 328980, Note_off_c, 0, 59, 37
1, 328981, Control_c, 0, 64, 113
1, 328996, Control_c, 0, 64, 127
1, 329041, Note_off_c, 0, 67, 55
1, 329122, Note_on_c, 0, 59, 38
1, 329131, Note_on_c, 0, 55, 35
1, 329136, Note_on_c, 0, 50, 35
1, 329176, Note_off_c, 0, 59, 57
1, 329181, Note_off_c, 0, 55, 59
1, 329189, Note_off_c, 0, 50, 56
1, 329305, Note_on_c, 0, 55, 38
1, 329333, Poly_aftertouch_c, 0, 50, 127
1, 329339, Note_off_c, 0, 55, 51
1, 329351, Poly_aftertouch_c, 0, 59, 127
1, 329426, Poly_aftertouch_c, 0, 50, 0
1, 329431, Poly_aftertouch_c, 0, 59, 0
1, 329449, Note_on_c, 0, 50, 11
1, 329459, Note_on_c, 0, 55, 39
1, 329468, Poly_aftertouch_c, 0, 59, 127
1, 329490, Note_off_c, 0, 55, 54
1, 329514, Note_off_c, 0, 50, 42
1, 329521, Poly_aftertouch_c, 0, 59, 0
1, 329606, Note_on_c, 0, 55, 38
1, 329633, Poly_aftertouch_c, 0, 50, 127
1, 329641, Poly_aftertouch_c, 0, 59, 127
1, 329642, Note_on_c, 0, 59, 3
1, 329647, Note_off_c, 0, 55, 50
1, 329715, Note_off_c, 0, 59, 0
1, 329717, Poly_aftertouch_c, 0, 50, 0
1, 329739, Note_on_c, 0, 59, 12
1, 329754, Poly_aftertouch_c, 0, 50, 127
1, 329771, Note_on_c, 0, 55, 30
1, 329796, Note_off_c, 0, 59, 49
1, 329803, Note_off_c, 0, 55, 52
1, 329833, Poly_aftertouch_c, 0, 50, 0
1, 329906, Note_on_c, 0, 72, 58
1, 329908, Note_on_c, 0, 50, 17
1, 329917, Note_on_c, 0, 59, 18
1, 329918, Note_on_c, 0, 55, 43
1, 329961, Note_off_c, 0, 55, 57
1, 329988, Note_off_c, 0, 59, 40
1, 330027, Note_off_c, 0, 50, 0
1, 330063, Poly_aftertouch_c, 0, 50, 127
1, 330065, Note_on_c, 0, 59, 6
1, 330074, Note_on_c, 0, 55, 38
1, 330107, Note_off_c, 0, 55, 52
1, 330121, Note_off_c, 0, 59, 44
1, 330138, Note_off_c, 0, 72, 57
1, 330154, Note_on_c, 0, 71, 68
1, 330172, Poly_aftertouch_c, 0, 50, 0
1, 330197, Note_on_c, 0, 50, 11
1, 330215, Note_on_c, 0, 55, 43
1, 330218, Note_on_c, 0, 59, 9
1, 330248, Note_off_c, 0, 55, 56
1, 330274, Note_off_c, 0, 59, 45
1, 330320, Note_off_c, 0, 50, 0
1, 330340, Note_on_c, 0, 50, 18
1, 330369, Note_off_c, 0, 71, 27
1, 330377, Note_on_c, 0, 55, 37
1, 330393, Poly_aftertouch_c, 0, 59, 127
1, 330396, Note_on_c, 0, 70, 64
1, 330413, Note_off_c, 0, 50, 47
1, 330413, Note_off_c, 0, 55, 51
1, 330431, Poly_aftertouch_c, 0, 59, 0
1, 330490, Note_off_c, 0, 70, 58
1, 330519, Note_on_c, 0, 55, 39
1, 330543, Note_on_c, 0, 50, 24
1, 330563, Note_off_c, 0, 55, 60
1, 330584, Note_off_c, 0, 50, 52
1, 330584, Poly_aftertouch_c, 0, 59, 127
1, 330610, Poly_aftertouch_c, 0, 59, 0
1, 330632, Note_on_c, 0, 71, 64
1, 330721, Note_off_c, 0, 71, 57
1, 330731, Note_on_c, 0, 50, 37
1, 330739, Note_on_c, 0, 55, 28
1, 330776, Note_off_c, 0, 50, 62
1, 330779, Note_off_c, 0, 55, 46
1, 330779, Poly_aftertouch_c, 0, 59, 0
1, 330804, Poly_aftertouch_c, 0, 59, 0
1, 330991, Note_on_c, 0, 36, 45
1, 331013, Control_c, 0, 64, 115
1, 331021, Note_on_c, 0, 83, 62
1, 331028, Control_c, 0, 64, 85
1, 331035, Note_on_c, 0, 76, 44
1, 331043, Control_c, 0, 64, 67
1, 331057, Control_c, 0, 64, 60
1, 331072, Control_c, 0, 64, 59
1, 331087, Control_c, 0, 64, 61
1, 331102, Control_c, 0, 64, 63
1, 331120, Note_off_c, 0, 36, 61
1, 331124, Control_c, 0, 64, 67
1, 331139, Control_c, 0, 64, 76
1, 331154, Control_c, 0, 64, 90
1, 331169, Control_c, 0, 64, 110
1, 331184, Control_c, 0, 64, 127
1, 331300, Note_off_c, 0, 83, 50
1, 331336, Note_on_c, 0, 52, 38
1, 331337, Note_on_c, 0, 59, 44
1, 331352, Note_on_c, 0, 48, 26
1, 331372, Note_off_c, 0, 52, 54
1, 331374, Note_off_c, 0, 59, 57
1, 331389, Note_off_c, 0, 48, 50
1, 331407, Note_on_c, 0, 81, 57
1, 331497, Note_on_c, 0, 52, 39
1, 331512, Note_on_c, 0, 48, 27
1, 331540, Note_off_c, 0, 52, 60
1, 331553, Note_off_c, 0, 48, 49
1, 331571, Poly_aftertouch_c, 0, 59, 0
1, 331598, Poly_aftertouch_c, 0, 59, 0
1, 331608, Note_off_c, 0, 81, 59
1, 331621, Note_on_c, 0, 80, 58
1, 331654, Note_on_c, 0, 52, 44
1, 331666, Note_on_c, 0, 59, 10
1, 331688, Note_off_c, 0, 52, 61
1, 331708, Note_off_c, 0, 59, 42
1, 331795, Note_on_c, 0, 52, 40
1, 331833, Poly_aftertouch_c, 0, 48, 127
1, 331834, Note_off_c, 0, 52, 58
1, 331877, Note_on_c, 0, 81, 57
1, 331881, Poly_aftertouch_c, 0, 48, 0
1, 331881, Poly_aftertouch_c, 0, 59, 0
1, 331905, Note_off_c, 0, 76, 40
1, 331918, Poly_aftertouch_c, 0, 59, 127
1, 331920, Note_off_c, 0, 80, 55
1, 331927, Note_on_c, 0, 59, 14
1, 331972, Note_on_c, 0, 52, 27
1, 331979, Note_off_c, 0, 59, 60
1, 332009, Note_off_c, 0, 52, 52
1, 332028, Note_off_c, 0, 81, 50
1, 332084, Poly_aftertouch_c, 0, 48, 0
1, 332096, Control_c, 0, 64, 103
1, 332099, Note_on_c, 0, 71, 54
1, 332111, Control_c, 0, 64, 81
1, 332112, Note_on_c, 0, 52, 36
1, 332114, Note_on_c, 0, 57, 40
1, 332121, Poly_aftertouch_c, 0, 48, 127
1, 332125, Control_c, 0, 64, 69
1, 332140, Control_c, 0, 64, 66
1, 332152, Note_off_c, 0, 52, 50
1, 332155, Control_c, 0, 64, 68
1, 332162, Note_off_c, 0, 57, 47
1, 332170, Control_c, 0, 64, 71
1, 332185, Control_c, 0, 64, 75
1, 332191, Poly_aftertouch_c, 0, 48, 0
1, 332200, Control_c, 0, 64, 84
1, 332214, Control_c, 0, 64, 98
1, 332229, Control_c, 0, 64, 118
1, 332244, Control_c, 0, 64, 127
1, 332250, Note_on_c, 0, 57, 41
1, 332258, Note_on_c, 0, 48, 11
1, 332263, Note_on_c, 0, 52, 47
1, 332295, Note_off_c, 0, 52, 61
1, 332298, Note_off_c, 0, 57, 58
1, 332322, Note_off_c, 0, 71, 58
1, 332325, Note_on_c, 0, 69, 68
1, 332325, Note_off_c, 0, 48, 44
1, 332390, Note_on_c, 0, 52, 44
1, 332406, Note_on_c, 0, 48, 28
1, 332413, Note_on_c, 0, 57, 37
1, 332429, Note_off_c, 0, 52, 61
1, 332444, Note_off_c, 0, 57, 54
1, 332450, Note_off_c, 0, 48, 48
1, 332528, Note_on_c, 0, 52, 47
1, 332536, Note_on_c, 0, 68, 74
1, 332536, Note_off_c, 0, 69, 29
1, 332557, Note_on_c, 0, 57, 29
1, 332564, Note_off_c, 0, 52, 61
1, 332590, Note_off_c, 0, 57, 52
1, 332621, Note_off_c, 0, 68, 62
1, 332626, Poly_aftertouch_c, 0, 48, 0
1, 332664, Note_on_c, 0, 52, 55
1, 332707, Note_off_c, 0, 52, 61
1, 332719, Note_on_c, 0, 57, 8
1, 332740, Note_on_c, 0, 69, 78
1, 332754, Poly_aftertouch_c, 0, 48, 0
1, 332797, Note_on_c, 0, 52, 59
1, 332803, Note_off_c, 0, 57, 0
1, 332803, Note_on_c, 0, 57, 15
1, 332818, Note_on_c, 0, 48, 34
1, 332829, Note_off_c, 0, 52, 66
1, 332849, Note_off_c, 0, 57, 41
1, 332850, Note_off_c, 0, 48, 52
1, 332993, Control_c, 0, 64, 87
1, 332998, Note_on_c, 0, 35, 48
1, 333002, Note_off_c, 0, 69, 37
1, 333008, Control_c, 0, 64, 66
1, 333023, Control_c, 0, 64, 58
1, 333025, Note_on_c, 0, 81, 66
1, 333035, Note_on_c, 0, 74, 49
1, 333052, Control_c, 0, 64, 60
1, 333067, Control_c, 0, 64, 63
1, 333081, Control_c, 0, 64, 67
1, 333087, Note_off_c, 0, 35, 59
1, 333096, Control_c, 0, 64, 76
1, 333111, Control_c, 0, 64, 86
1, 333126, Control_c, 0, 64, 95
1, 333141, Control_c, 0, 64, 101
1, 333155, Control_c, 0, 64, 103
1, 333170, Control_c, 0, 64, 104
1, 333185, Control_c, 0, 64, 106
1, 333200, Control_c, 0, 64, 107
1, 333215, Control_c, 0, 64, 109
1, 333235, Note_off_c, 0, 81, 55
1, 333244, Control_c, 0, 64, 110
1, 333260, Note_on_c, 0, 57, 50
1, 333274, Note_on_c, 0, 50, 31
1, 333304, Note_on_c, 0, 47, 7
1, 333306, Note_off_c, 0, 57, 59
1, 333315, Note_off_c, 0, 50, 52
1, 333319, Note_on_c, 0, 79, 66
1, 333353, Note_off_c, 0, 47, 36
1, 333386, Control_c, 0, 64, 110
1, 333429, Note_on_c, 0, 50, 45
1, 333434, Note_on_c, 0, 57, 37
1, 333461, Note_off_c, 0, 50, 57
1, 333464, Note_off_c, 0, 57, 54
1, 333474, Control_c, 0, 64, 111
1, 333504, Control_c, 0, 64, 111
1, 333546, Note_on_c, 0, 78, 77
1, 333567, Note_on_c, 0, 50, 50
1, 333571, Note_on_c, 0, 57, 42
1, 333577, Note_off_c, 0, 79, 56
1, 333592, Control_c, 0, 64, 112
1, 333606, Note_off_c, 0, 57, 58
1, 333607, Control_c, 0, 64, 113
1, 333609, Note_off_c, 0, 50, 61
1, 333622, Control_c, 0, 64, 115
1, 333637, Control_c, 0, 64, 121
1, 333652, Control_c, 0, 64, 127
1, 333711, Note_on_c, 0, 57, 47
1, 333717, Note_on_c, 0, 50, 48
1, 333750, Note_off_c, 0, 57, 59
1, 333753, Note_off_c, 0, 50, 62
1, 333768, Note_on_c, 0, 79, 77
1, 333792, Note_off_c, 0, 74, 58
1, 333807, Note_off_c, 0, 78, 57
1, 333843, Note_on_c, 0, 57, 61
1, 333851, Note_on_c, 0, 50, 51
1, 333877, Note_on_c, 0, 47, 15
1, 333878, Note_off_c, 0, 57, 64
1, 333893, Note_off_c, 0, 50, 61
1, 333921, Note_off_c, 0, 47, 39
1, 333983, Note_off_c, 0, 79, 56
1, 334003, Note_on_c, 0, 55, 52
1, 334005, Note_on_c, 0, 72, 75
1, 334007, Control_c, 0, 64, 123
1, 334014, Note_on_c, 0, 50, 34
1, 334021, Note_on_c, 0, 47, 38
1, 334022, Control_c, 0, 64, 81
1, 334036, Control_c, 0, 64, 67
1, 334051, Control_c, 0, 64, 64
1, 334066, Control_c, 0, 64, 66
1, 334081, Control_c, 0, 64, 70
1, 334086, Note_off_c, 0, 55, 61
1, 334089, Note_off_c, 0, 47, 51
1, 334096, Control_c, 0, 64, 77
1, 334101, Note_off_c, 0, 50, 52
1, 334120, Control_c, 0, 64, 96
1, 334134, Control_c, 0, 64, 127
1, 334154, Note_off_c, 0, 72, 61
1, 334161, Note_on_c, 0, 50, 52
1, 334170, Note_on_c, 0, 47, 45
1, 334170, Note_on_c, 0, 55, 53
1, 334214, Note_off_c, 0, 47, 51
1, 334217, Note_off_c, 0, 55, 55
1, 334220, Note_off_c, 0, 50, 63
1, 334225, Note_on_c, 0, 71, 85
1, 334313, Note_on_c, 0, 55, 63
1, 334313, Note_off_c, 0, 71, 55
1, 334322, Note_on_c, 0, 50, 55
1, 334328, Note_on_c, 0, 47, 42
1, 334355, Note_off_c, 0, 50, 64
1, 334364, Note_off_c, 0, 47, 61
1, 334368, Note_off_c, 0, 55, 57
1, 334439, Note_on_c, 0, 69, 88
1, 334446, Note_on_c, 0, 50, 51
1, 334463, Note_on_c, 0, 71, 17
1, 334473, Note_on_c, 0, 47, 32
1, 334489, Note_off_c, 0, 50, 61
1, 334498, Note_off_c, 0, 71, 42
1, 334509, Note_off_c, 0, 47, 44
1, 334566, Poly_aftertouch_c, 0, 55, 0
1, 334571, Note_off_c, 0, 69, 56
1, 334583, Note_on_c, 0, 55, 35
1, 334594, Note_on_c, 0, 50, 53
1, 334597, Note_on_c, 0, 47, 49
1, 334623, Note_off_c, 0, 47, 58
1, 334624, Note_off_c, 0, 55, 60
1, 334628, Note_off_c, 0, 50, 63
1, 334666, Note_on_c, 0, 67, 95
1, 334711, Note_off_c, 0, 67, 68
1, 334717, Note_on_c, 0, 47, 49
1, 334720, Note_on_c, 0, 50, 61
1, 334722, Note_on_c, 0, 55, 57
1, 334761, Note_off_c, 0, 55, 62
1, 334797, Note_off_c, 0, 50, 63
1, 334802, Note_off_c, 0, 47, 58
1, 335024, Note_on_c, 0, 36, 60
1, 335069, Note_on_c, 0, 74, 68
1, 335079, Note_on_c, 0, 66, 78
1, 335080, Note_on_c, 0, 78, 91
1, 335090, Control_c, 0, 64, 94
1, 335105, Control_c, 0, 64, 70
1, 335120, Control_c, 0, 64, 57
1, 335135, Control_c, 0, 64, 50
1, 335150, Control_c, 0, 64, 53
1, 335164, Control_c, 0, 64, 59
1, 335179, Control_c, 0, 64, 66
1, 335194, Control_c, 0, 64, 79
1, 335205, Note_off_c, 0, 36, 61
1, 335209, Control_c, 0, 64, 127
1, 335220, Note_off_c, 0, 74, 63
1, 335225, Note_off_c, 0, 66, 60
1, 335229, Note_off_c, 0, 78, 62
1, 335474, Note_on_c, 0, 72, 63
1, 335476, Note_on_c, 0, 76, 77
1, 335484, Note_on_c, 0, 64, 62
1, 335497, Note_on_c, 0, 55, 51
1, 335500, Note_on_c, 0, 52, 49
1, 335502, Note_on_c, 0, 48, 44
1, 335520, Note_off_c, 0, 72, 62
1, 335532, Note_off_c, 0, 64, 62
1, 335537, Note_off_c, 0, 76, 65
1, 335540, Note_off_c, 0, 48, 62
1, 335541, Note_off_c, 0, 52, 61
1, 335543, Note_off_c, 0, 55, 58
1, 335631, Note_on_c, 0, 55, 57
1, 335647, Note_on_c, 0, 52, 51
1, 335655, Note_on_c, 0, 48, 42
1, 335661, Note_off_c, 0, 55, 63
1, 335683, Note_off_c, 0, 48, 53
1, 335684, Note_off_c, 0, 52, 62
1, 335748, Note_on_c, 0, 74, 74
1, 335754, Note_on_c, 0, 71, 65
1, 335756, Note_on_c, 0, 62, 66
1, 335777, Note_on_c, 0, 48, 54
1, 335780, Note_on_c, 0, 52, 48
1, 335781, Note_on_c, 0, 56, 56
1, 335783, Note_off_c, 0, 71, 66
1, 335798, Note_off_c, 0, 62, 61
1, 335804, Note_off_c, 0, 74, 63
1, 335815, Note_off_c, 0, 52, 63
1, 335816, Note_off_c, 0, 56, 56
1, 335817, Note_off_c, 0, 48, 63
1, 335900, Note_on_c, 0, 56, 61
1, 335911, Note_on_c, 0, 52, 40
1, 335936, Note_off_c, 0, 52, 61
1, 335937, Note_off_c, 0, 56, 64
1, 335965, Note_on_c, 0, 69, 71
1, 335968, Note_on_c, 0, 72, 82
1, 335972, Note_on_c, 0, 60, 78
1, 336007, Note_off_c, 0, 69, 62
1, 336019, Note_off_c, 0, 60, 65
1, 336027, Note_off_c, 0, 72, 64
1, 336044, Note_on_c, 0, 52, 48
1, 336060, Note_on_c, 0, 57, 67
1, 336081, Note_on_c, 0, 48, 39
1, 336089, Note_off_c, 0, 57, 66
1, 336091, Note_off_c, 0, 52, 65
1, 336105, Note_off_c, 0, 48, 60
1, 336166, Control_c, 0, 64, 85
1, 336180, Control_c, 0, 64, 58
1, 336195, Note_on_c, 0, 71, 81
1, 336195, Control_c, 0, 64, 0
1, 336200, Note_on_c, 0, 59, 69
1, 336201, Note_on_c, 0, 67, 65
1, 336209, Note_on_c, 0, 38, 66
1, 336248, Note_off_c, 0, 38, 63
1, 336254, Control_c, 0, 64, 52
1, 336269, Control_c, 0, 64, 67
1, 336284, Control_c, 0, 64, 80
1, 336287, Note_off_c, 0, 59, 61
1, 336299, Control_c, 0, 64, 121
1, 336302, Note_off_c, 0, 71, 60
1, 336314, Control_c, 0, 64, 127
1, 336316, Note_off_c, 0, 67, 62
1, 336392, Note_on_c, 0, 50, 49
1, 336396, Note_on_c, 0, 55, 47
1, 336427, Note_off_c, 0, 50, 64
1, 336433, Note_off_c, 0, 55, 63
1, 336524, Note_on_c, 0, 50, 53
1, 336544, Note_on_c, 0, 55, 22
1, 336548, Note_off_c, 0, 50, 63
1, 336579, Note_off_c, 0, 55, 53
1, 336648, Control_c, 0, 64, 111
1, 336663, Control_c, 0, 64, 78
1, 336677, Control_c, 0, 64, 61
1, 336692, Note_on_c, 0, 72, 67
1, 336692, Control_c, 0, 64, 45
1, 336696, Note_on_c, 0, 38, 40
1, 336700, Note_on_c, 0, 60, 50
1, 336702, Note_on_c, 0, 66, 49
1, 336707, Control_c, 0, 64, 46
1, 336722, Control_c, 0, 64, 53
1, 336737, Control_c, 0, 64, 60
1, 336745, Note_off_c, 0, 38, 55
1, 336752, Control_c, 0, 64, 66
1, 336767, Control_c, 0, 64, 72
1, 336782, Control_c, 0, 64, 81
1, 336797, Control_c, 0, 64, 89
1, 336811, Control_c, 0, 64, 94
1, 336813, Note_off_c, 0, 72, 63
1, 336826, Control_c, 0, 64, 95
1, 336841, Control_c, 0, 64, 96
1, 336846, Note_off_c, 0, 60, 37
1, 336856, Control_c, 0, 64, 98
1, 336871, Control_c, 0, 64, 101
1, 336885, Control_c, 0, 64, 106
1, 336900, Control_c, 0, 64, 114
1, 336915, Control_c, 0, 64, 123
1, 336929, Control_c, 0, 64, 127
1, 336995, Note_on_c, 0, 54, 28
1, 337008, Note_on_c, 0, 57, 17
1, 337018, Control_c, 0, 64, 123
1, 337033, Control_c, 0, 64, 121
1, 337038, Note_off_c, 0, 54, 49
1, 337048, Control_c, 0, 64, 118
1, 337053, Poly_aftertouch_c, 0, 50, 127
1, 337059, Note_off_c, 0, 57, 48
1, 337077, Control_c, 0, 64, 117
1, 337086, Poly_aftertouch_c, 0, 50, 0
1, 337092, Control_c, 0, 64, 116
1, 337114, Note_off_c, 0, 66, 33
1, 337115, Control_c, 0, 64, 115
1, 337202, Control_c, 0, 64, 114
1, 337212, Note_on_c, 0, 54, 42
1, 337239, Note_on_c, 0, 57, 11
1, 337256, Note_off_c, 0, 54, 62
1, 337289, Note_off_c, 0, 57, 51
1, 337315, Note_on_c, 0, 69, 55
1, 337411, Control_c, 0, 64, 113
1, 337455, Control_c, 0, 64, 112
1, 337470, Control_c, 0, 64, 108
1, 337485, Control_c, 0, 64, 102
1, 337488, Note_off_c, 0, 69, 35
1, 337500, Control_c, 0, 64, 93
1, 337515, Control_c, 0, 64, 79
1, 337530, Control_c, 0, 64, 67
1, 337545, Control_c, 0, 64, 58
1, 337555, Note_on_c, 0, 43, 27
1, 337559, Control_c, 0, 64, 52
1, 337560, Note_on_c, 0, 55, 31
1, 337569, Note_on_c, 0, 50, 23
1, 337569, Note_on_c, 0, 67, 40
1, 337578, Note_on_c, 0, 59, 34
1, 337589, Control_c, 0, 64, 53
1, 337604, Control_c, 0, 64, 56
1, 337619, Control_c, 0, 64, 61
1, 337633, Control_c, 0, 64, 66
1, 337648, Control_c, 0, 64, 73
1, 337663, Control_c, 0, 64, 83
1, 337674, Note_off_c, 0, 67, 58
1, 337676, Note_off_c, 0, 59, 59
1, 337677, Control_c, 0, 64, 94
1, 337692, Control_c, 0, 64, 105
1, 337707, Control_c, 0, 64, 111
1, 337722, Control_c, 0, 64, 112
1, 337737, Control_c, 0, 64, 113
1, 337756, Note_off_c, 0, 55, 43
1, 337841, Note_off_c, 0, 50, 37
1, 337855, Note_off_c, 0, 43, 39
1, 337873, Note_on_c, 0, 67, 44
1, 337877, Control_c, 0, 64, 113
1, 337888, Note_on_c, 0, 55, 38
1, 337892, Control_c, 0, 64, 116
1, 337907, Control_c, 0, 64, 123
1, 337922, Control_c, 0, 64, 127
1, 337938, Note_off_c, 0, 55, 51
1, 337944, Note_off_c, 0, 67, 57
1, 338057, Note_on_c, 0, 67, 31
1, 338063, Note_on_c, 0, 55, 35
1, 338098, Note_off_c, 0, 67, 48
1, 338101, Note_off_c, 0, 55, 49
1, 338204, Note_on_c, 0, 67, 39
1, 338213, Note_on_c, 0, 55, 34
1, 338245, Note_off_c, 0, 67, 46
1, 338250, Note_off_c, 0, 55, 48
1, 338364, Note_on_c, 0, 55, 34
1, 338367, Note_on_c, 0, 67, 32
1, 338404, Note_off_c, 0, 55, 46
1, 338407, Note_off_c, 0, 67, 46
1, 338506, Note_on_c, 0, 67, 34
1, 338514, Note_on_c, 0, 55, 28
1, 338530, Control_c, 0, 64, 102
1, 338545, Control_c, 0, 64, 86
1, 338560, Control_c, 0, 64, 74
1, 338562, Note_off_c, 0, 67, 42
1, 338567, Note_off_c, 0, 55, 44
1, 338574, Control_c, 0, 64, 68
1, 338589, Control_c, 0, 64, 69
1, 338612, Control_c, 0, 64, 71
1, 338627, Control_c, 0, 64, 74
1, 338642, Control_c, 0, 64, 76
1, 338651, Note_on_c, 0, 67, 31
1, 338653, Note_on_c, 0, 55, 37
1, 338656, Control_c, 0, 64, 80
1, 338671, Control_c, 0, 64, 85
1, 338686, Control_c, 0, 64, 91
1, 338699, Control_c, 0, 64, 96
1, 338714, Control_c, 0, 64, 101
1, 338721, Note_off_c, 0, 55, 43
1, 338729, Control_c, 0, 64, 104
1, 338744, Control_c, 0, 64, 107
1, 338759, Control_c, 0, 64, 110
1, 338767, Note_off_c, 0, 67, 0
1, 338773, Control_c, 0, 64, 111
1, 338788, Note_on_c, 0, 67, 23
1, 338799, Note_on_c, 0, 55, 34
1, 338850, Note_off_c, 0, 55, 48
1, 338925, Note_off_c, 0, 67, 0
1, 338942, Note_on_c, 0, 67, 20
1, 338965, Note_on_c, 0, 55, 28
1, 339011, Note_off_c, 0, 55, 46
1, 339071, Control_c, 0, 64, 110
1, 339086, Control_c, 0, 64, 108
1, 339086, Note_off_c, 0, 67, 0
1, 339101, Control_c, 0, 64, 103
1, 339110, Note_on_c, 0, 47, 47
1, 339116, Control_c, 0, 64, 92
1, 339123, Poly_aftertouch_c, 0, 67, 127
1, 339130, Control_c, 0, 64, 79
1, 339145, Control_c, 0, 64, 67
1, 339149, Note_on_c, 0, 55, 28
1, 339160, Control_c, 0, 64, 62
1, 339175, Control_c, 0, 64, 62
1, 339190, Control_c, 0, 64, 64
1, 339202, Note_off_c, 0, 55, 43
1, 339204, Control_c, 0, 64, 66
1, 339219, Control_c, 0, 64, 69
1, 339234, Control_c, 0, 64, 75
1, 339249, Control_c, 0, 64, 83
1, 339264, Control_c, 0, 64, 91
1, 339277, Poly_aftertouch_c, 0, 67, 0
1, 339278, Control_c, 0, 64, 96
1, 339293, Control_c, 0, 64, 99
1, 339295, Note_on_c, 0, 67, 24
1, 339308, Control_c, 0, 64, 102
1, 339310, Note_on_c, 0, 55, 27
1, 339322, Control_c, 0, 64, 106
1, 339337, Control_c, 0, 64, 109
1, 339357, Note_off_c, 0, 55, 49
1, 339360, Control_c, 0, 64, 113
1, 339375, Control_c, 0, 64, 115
1, 339426, Note_off_c, 0, 47, 38
1, 339429, Note_off_c, 0, 67, 0
1, 339450, Note_on_c, 0, 67, 10
1, 339494, Note_on_c, 0, 55, 5
1, 339504, Note_on_c, 0, 48, 51
1, 339547, Note_off_c, 0, 55, 46
1, 339580, Note_off_c, 0, 67, 32
1, 339612, Note_off_c, 0, 48, 56
1, 339626, Control_c, 0, 64, 113
1, 339641, Control_c, 0, 64, 110
1, 339643, Note_on_c, 0, 50, 53
1, 339655, Control_c, 0, 64, 103
1, 339670, Control_c, 0, 64, 91
1, 339675, Note_on_c, 0, 67, 40
1, 339680, Note_on_c, 0, 55, 33
1, 339685, Control_c, 0, 64, 77
1, 339701, Control_c, 0, 64, 66
1, 339716, Control_c, 0, 64, 61
1, 339731, Control_c, 0, 64, 63
1, 339745, Control_c, 0, 64, 65
1, 339746, Note_off_c, 0, 67, 48
1, 339748, Note_off_c, 0, 55, 40
1, 339760, Control_c, 0, 64, 67
1, 339775, Control_c, 0, 64, 71
1, 339790, Control_c, 0, 64, 76
1, 339805, Control_c, 0, 64, 83
1, 339819, Note_on_c, 0, 67, 35
1, 339819, Control_c, 0, 64, 88
1, 339834, Control_c, 0, 64, 90
1, 339836, Note_on_c, 0, 55, 35
1, 339836, Note_off_c, 0, 50, 36
1, 339849, Control_c, 0, 64, 92
1, 339864, Control_c, 0, 64, 93
1, 339879, Control_c, 0, 64, 95
1, 339885, Note_off_c, 0, 55, 46
1, 339894, Control_c, 0, 64, 95
1, 339899, Note_off_c, 0, 67, 49
1, 339909, Control_c, 0, 64, 96
1, 339924, Control_c, 0, 64, 97
1, 339938, Control_c, 0, 64, 98
1, 339990, Note_on_c, 0, 67, 27
1, 340012, Control_c, 0, 64, 98
1, 340019, Note_on_c, 0, 55, 6
1, 340070, Note_off_c, 0, 67, 36
1, 340070, Note_off_c, 0, 55, 49
1, 340153, Note_on_c, 0, 50, 54
1, 340153, Control_c, 0, 64, 97
1, 340164, Note_on_c, 0, 67, 38
1, 340168, Control_c, 0, 64, 94
1, 340183, Control_c, 0, 64, 85
1, 340183, Note_on_c, 0, 55, 38
1, 340198, Control_c, 0, 64, 74
1, 340213, Control_c, 0, 64, 65
1, 340226, Note_off_c, 0, 55, 47
1, 340227, Control_c, 0, 64, 63
1, 340236, Note_off_c, 0, 67, 55
1, 340242, Control_c, 0, 64, 65
1, 340257, Control_c, 0, 64, 67
1, 340272, Control_c, 0, 64, 70
1, 340286, Control_c, 0, 64, 75
1, 340301, Control_c, 0, 64, 81
1, 340316, Control_c, 0, 64, 86
1, 340329, Note_on_c, 0, 67, 34
1, 340331, Control_c, 0, 64, 90
1, 340344, Note_on_c, 0, 55, 36
1, 340345, Control_c, 0, 64, 93
1, 340360, Control_c, 0, 64, 95
1, 340375, Control_c, 0, 64, 97
1, 340377, Note_off_c, 0, 50, 37
1, 340389, Note_off_c, 0, 55, 47
1, 340390, Control_c, 0, 64, 99
1, 340405, Control_c, 0, 64, 99
1, 340454, Note_off_c, 0, 67, 0
1, 340472, Note_on_c, 0, 67, 27
1, 340504, Note_on_c, 0, 55, 33
1, 340544, Note_off_c, 0, 55, 48
1, 340561, Note_off_c, 0, 67, 48
1, 340568, Control_c, 0, 64, 100
1, 340628, Control_c, 0, 64, 98
1, 340630, Note_on_c, 0, 50, 63
1, 340642, Control_c, 0, 64, 93
1, 340648, Note_on_c, 0, 67, 32
1, 340657, Control_c, 0, 64, 85
1, 340666, Note_on_c, 0, 55, 38
1, 340672, Control_c, 0, 64, 75
1, 340687, Control_c, 0, 64, 69
1, 340702, Control_c, 0, 64, 69
1, 340709, Note_off_c, 0, 55, 48
1, 340716, Control_c, 0, 64, 71
1, 340731, Control_c, 0, 64, 74
1, 340743, Note_off_c, 0, 67, 33
1, 340746, Control_c, 0, 64, 77
1, 340761, Control_c, 0, 64, 81
1, 340776, Control_c, 0, 64, 86
1, 340791, Control_c, 0, 64, 89
1, 340800, Note_on_c, 0, 67, 36
1, 340806, Control_c, 0, 64, 91
1, 340818, Note_on_c, 0, 55, 41
1, 340821, Control_c, 0, 64, 93
1, 340836, Control_c, 0, 64, 94
1, 340862, Note_off_c, 0, 55, 50
1, 340868, Note_off_c, 0, 67, 50
1, 340879, Note_off_c, 0, 50, 37
1, 340971, Note_on_c, 0, 67, 32
1, 340992, Note_on_c, 0, 55, 20
1, 341033, Note_off_c, 0, 55, 49
1, 341043, Note_off_c, 0, 67, 35
1, 341110, Note_on_c, 0, 48, 61
1, 341124, Control_c, 0, 64, 93
1, 341139, Control_c, 0, 64, 91
1, 341152, Note_on_c, 0, 67, 41
1, 341154, Control_c, 0, 64, 85
1, 341157, Note_on_c, 0, 55, 43
1, 341169, Control_c, 0, 64, 76
1, 341183, Control_c, 0, 64, 67
1, 341198, Control_c, 0, 64, 62
1, 341207, Note_off_c, 0, 55, 46
1, 341213, Control_c, 0, 64, 62
1, 341219, Note_off_c, 0, 67, 54
1, 341228, Control_c, 0, 64, 64
1, 341243, Control_c, 0, 64, 65
1, 341257, Control_c, 0, 64, 68
1, 341272, Control_c, 0, 64, 72
1, 341287, Control_c, 0, 64, 78
1, 341303, Control_c, 0, 64, 82
1, 341316, Note_on_c, 0, 67, 30
1, 341318, Control_c, 0, 64, 85
1, 341330, Note_on_c, 0, 55, 25
1, 341331, Note_off_c, 0, 48, 55
1, 341333, Control_c, 0, 64, 87
1, 341347, Control_c, 0, 64, 89
1, 341362, Control_c, 0, 64, 90
1, 341371, Note_off_c, 0, 55, 48
1, 341371, Note_off_c, 0, 67, 41
1, 341377, Control_c, 0, 64, 91
1, 341456, Note_on_c, 0, 67, 34
1, 341469, Note_on_c, 0, 55, 32
1, 341529, Note_off_c, 0, 55, 42
1, 341534, Note_on_c, 0, 50, 55
1, 341570, Note_off_c, 0, 67, 31
1, 341703, Note_on_c, 0, 51, 61
1, 341710, Control_c, 0, 64, 90
1, 341724, Control_c, 0, 64, 88
1, 341725, Note_on_c, 0, 67, 47
1, 341739, Note_off_c, 0, 50, 31
1, 341739, Control_c, 0, 64, 84
1, 341751, Note_on_c, 0, 55, 36
1, 341754, Control_c, 0, 64, 75
1, 341769, Control_c, 0, 64, 66
1, 341784, Control_c, 0, 64, 58
1, 341798, Note_off_c, 0, 55, 45
1, 341799, Control_c, 0, 64, 53
1, 341813, Control_c, 0, 64, 52
1, 341843, Control_c, 0, 64, 53
1, 341858, Control_c, 0, 64, 58
1, 341873, Control_c, 0, 64, 62
1, 341874, Note_off_c, 0, 67, 0
1, 341888, Control_c, 0, 64, 65
1, 341891, Note_on_c, 0, 67, 20
1, 341903, Control_c, 0, 64, 67
1, 341917, Control_c, 0, 64, 70
1, 341924, Note_on_c, 0, 55, 15
1, 341932, Control_c, 0, 64, 73
1, 341947, Control_c, 0, 64, 77
1, 341962, Control_c, 0, 64, 79
1, 341965, Note_off_c, 0, 67, 40
1, 341967, Note_off_c, 0, 55, 52
1, 341977, Control_c, 0, 64, 81
1, 341992, Control_c, 0, 64, 83
1, 342006, Control_c, 0, 64, 85
1, 342021, Control_c, 0, 64, 88
1, 342036, Control_c, 0, 64, 91
1, 342045, Note_on_c, 0, 67, 28
1, 342051, Control_c, 0, 64, 92
1, 342061, Note_on_c, 0, 55, 26
1, 342065, Control_c, 0, 64, 94
1, 342080, Control_c, 0, 64, 97
1, 342096, Control_c, 0, 64, 99
1, 342111, Control_c, 0, 64, 100
1, 342126, Control_c, 0, 64, 101
1, 342129, Note_off_c, 0, 55, 40
1, 342147, Note_off_c, 0, 51, 36
1, 342180, Note_off_c, 0, 67, 0
1, 342196, Note_on_c, 0, 67, 30
1, 342200, Control_c, 0, 64, 101
1, 342205, Note_on_c, 0, 55, 35
1, 342278, Note_off_c, 0, 67, 45
1, 342281, Note_off_c, 0, 55, 42
1, 342358, Note_on_c, 0, 67, 30
1, 342362, Note_on_c, 0, 55, 34
1, 342423, Note_off_c, 0, 55, 48
1, 342453, Note_off_c, 0, 67, 34
1, 342478, Note_on_c, 0, 50, 50
1, 342560, Note_on_c, 0, 67, 43
1, 342569, Note_on_c, 0, 55, 34
1, 342610, Note_off_c, 0, 55, 48
1, 342618, Note_off_c, 0, 50, 33
1, 342620, Note_off_c, 0, 67, 48
1, 342726, Control_c, 0, 64, 100
1, 342727, Note_on_c, 0, 48, 64
1, 342739, Note_on_c, 0, 55, 35
1, 342739, Note_on_c, 0, 67, 45
1, 342740, Control_c, 0, 64, 98
1, 342755, Control_c, 0, 64, 93
1, 342770, Control_c, 0, 64, 83
1, 342780, Note_off_c, 0, 67, 46
1, 342782, Note_off_c, 0, 55, 47
1, 342785, Control_c, 0, 64, 71
1, 342800, Control_c, 0, 64, 64
1, 342814, Control_c, 0, 64, 64
1, 342829, Control_c, 0, 64, 65
1, 342844, Control_c, 0, 64, 67
1, 342859, Control_c, 0, 64, 70
1, 342874, Control_c, 0, 64, 77
1, 342890, Control_c, 0, 64, 83
1, 342891, Note_on_c, 0, 67, 44
1, 342893, Note_on_c, 0, 55, 43
1, 342904, Control_c, 0, 64, 89
1, 342919, Control_c, 0, 64, 93
1, 342933, Note_off_c, 0, 55, 50
1, 342934, Control_c, 0, 64, 95
1, 342934, Note_off_c, 0, 67, 48
1, 342949, Control_c, 0, 64, 98
1, 342964, Control_c, 0, 64, 100
1, 342978, Control_c, 0, 64, 101
1, 343003, Note_off_c, 0, 48, 47
1, 343040, Note_on_c, 0, 55, 47
1, 343047, Note_on_c, 0, 67, 47
1, 343082, Note_off_c, 0, 55, 53
1, 343093, Note_off_c, 0, 67, 48
1, 343104, Control_c, 0, 64, 102
1, 343119, Control_c, 0, 64, 102
1, 343134, Control_c, 0, 64, 103
1, 343149, Control_c, 0, 64, 105
1, 343164, Control_c, 0, 64, 107
1, 343182, Note_on_c, 0, 46, 69
1, 343194, Control_c, 0, 64, 102
1, 343197, Note_on_c, 0, 55, 53
1, 343201, Note_on_c, 0, 67, 53
1, 343208, Control_c, 0, 64, 93
1, 343223, Control_c, 0, 64, 79
1, 343238, Control_c, 0, 64, 69
1, 343241, Note_off_c, 0, 67, 55
1, 343244, Note_off_c, 0, 55, 58
1, 343253, Control_c, 0, 64, 65
1, 343268, Control_c, 0, 64, 67
1, 343283, Control_c, 0, 64, 69
1, 343298, Control_c, 0, 64, 73
1, 343313, Control_c, 0, 64, 79
1, 343327, Control_c, 0, 64, 86
1, 343331, Note_on_c, 0, 67, 65
1, 343340, Note_on_c, 0, 55, 55
1, 343342, Control_c, 0, 64, 91
1, 343357, Control_c, 0, 64, 92
1, 343382, Note_off_c, 0, 55, 64
1, 343386, Note_off_c, 0, 67, 63
1, 343401, Note_off_c, 0, 46, 38
1, 343467, Note_on_c, 0, 53, 61
1, 343474, Note_on_c, 0, 65, 64
1, 343496, Note_off_c, 0, 53, 63
1, 343520, Note_off_c, 0, 65, 55
1, 343524, Note_on_c, 0, 44, 67
1, 343563, Control_c, 0, 64, 93
1, 343580, Note_off_c, 0, 44, 60
1, 343608, Control_c, 0, 64, 92
1, 343623, Control_c, 0, 64, 89
1, 343638, Control_c, 0, 64, 82
1, 343649, Note_on_c, 0, 43, 67
1, 343653, Control_c, 0, 64, 71
1, 343656, Note_on_c, 0, 67, 71
1, 343661, Note_on_c, 0, 55, 60
1, 343661, Note_on_c, 0, 63, 54
1, 343668, Control_c, 0, 64, 62
1, 343673, Note_on_c, 0, 60, 50
1, 343682, Control_c, 0, 64, 57
1, 343698, Control_c, 0, 64, 58
1, 343713, Control_c, 0, 64, 61
1, 343716, Note_off_c, 0, 55, 52
1, 343725, Note_off_c, 0, 60, 56
1, 343725, Note_off_c, 0, 63, 52
1, 343728, Control_c, 0, 64, 64
1, 343742, Control_c, 0, 64, 68
1, 343757, Control_c, 0, 64, 74
1, 343767, Note_off_c, 0, 43, 56
1, 343772, Control_c, 0, 64, 79
1, 343787, Control_c, 0, 64, 83
1, 343796, Note_off_c, 0, 67, 0
1, 343802, Control_c, 0, 64, 85
1, 343814, Note_on_c, 0, 67, 24
1, 343817, Control_c, 0, 64, 87
1, 343831, Control_c, 0, 64, 89
1, 343849, Note_on_c, 0, 60, 41
1, 343854, Control_c, 0, 64, 90
1, 343855, Note_on_c, 0, 55, 23
1, 343855, Note_on_c, 0, 63, 38
1, 343868, Control_c, 0, 64, 91
1, 343883, Control_c, 0, 64, 92
1, 343885, Note_off_c, 0, 60, 50
1, 343894, Note_off_c, 0, 55, 50
1, 343895, Note_off_c, 0, 63, 48
1, 343896, Note_off_c, 0, 67, 47
1, 343898, Control_c, 0, 64, 92
1, 343913, Control_c, 0, 64, 93
1, 343942, Control_c, 0, 64, 93
1, 343957, Control_c, 0, 64, 94
1, 343987, Control_c, 0, 64, 94
1, 343995, Note_on_c, 0, 67, 10
1, 343998, Note_on_c, 0, 60, 41
1, 344001, Control_c, 0, 64, 95
1, 344007, Note_on_c, 0, 63, 43
1, 344009, Note_on_c, 0, 55, 25
1, 344016, Control_c, 0, 64, 95
1, 344031, Control_c, 0, 64, 96
1, 344036, Note_off_c, 0, 63, 53
1, 344039, Note_off_c, 0, 60, 50
1, 344046, Note_off_c, 0, 55, 51
1, 344048, Note_off_c, 0, 67, 46
1, 344120, Control_c, 0, 64, 95
1, 344135, Control_c, 0, 64, 90
1, 344141, Note_on_c, 0, 43, 48
1, 344147, Note_on_c, 0, 67, 42
1, 344149, Control_c, 0, 64, 80
1, 344150, Note_on_c, 0, 63, 41
1, 344156, Note_on_c, 0, 60, 44
1, 344164, Control_c, 0, 64, 69
1, 344170, Note_on_c, 0, 55, 23
1, 344179, Control_c, 0, 64, 61
1, 344187, Note_off_c, 0, 60, 55
1, 344191, Note_off_c, 0, 63, 55
1, 344193, Note_off_c, 0, 67, 51
1, 344193, Control_c, 0, 64, 62
1, 344202, Note_off_c, 0, 55, 53
1, 344208, Control_c, 0, 64, 65
1, 344223, Control_c, 0, 64, 67
1, 344238, Control_c, 0, 64, 72
1, 344253, Control_c, 0, 64, 79
1, 344267, Control_c, 0, 64, 87
1, 344282, Control_c, 0, 64, 92
1, 344297, Control_c, 0, 64, 93
1, 344310, Note_off_c, 0, 43, 52
1, 344315, Note_on_c, 0, 60, 38
1, 344318, Note_on_c, 0, 63, 44
1, 344340, Poly_aftertouch_c, 0, 67, 127
1, 344341, Control_c, 0, 64, 93
1, 344361, Note_off_c, 0, 63, 49
1, 344362, Note_off_c, 0, 60, 49
1, 344371, Poly_aftertouch_c, 0, 67, 0
1, 344371, Poly_aftertouch_c, 0, 55, 127
1, 344386, Control_c, 0, 64, 94
1, 344401, Control_c, 0, 64, 94
1, 344428, Poly_aftertouch_c, 0, 55, 0
1, 344446, Note_on_c, 0, 55, 26
1, 344458, Note_on_c, 0, 63, 36
1, 344460, Control_c, 0, 64, 95
1, 344460, Note_on_c, 0, 67, 28
1, 344465, Note_on_c, 0, 60, 36
1, 344493, Note_off_c, 0, 60, 58
1, 344499, Note_off_c, 0, 63, 49
1, 344501, Note_off_c, 0, 55, 51
1, 344502, Note_off_c, 0, 67, 49
1, 344580, Control_c, 0, 64, 92
1, 344602, Control_c, 0, 64, 84
1, 344612, Note_on_c, 0, 43, 51
1, 344617, Control_c, 0, 64, 73
1, 344621, Note_on_c, 0, 67, 50
1, 344631, Note_on_c, 0, 62, 45
1, 344631, Control_c, 0, 64, 64
1, 344632, Note_on_c, 0, 59, 42
1, 344634, Note_on_c, 0, 55, 37
1, 344646, Control_c, 0, 64, 60
1, 344661, Control_c, 0, 64, 63
1, 344676, Control_c, 0, 64, 65
1, 344681, Note_off_c, 0, 59, 55
1, 344687, Note_off_c, 0, 62, 56
1, 344690, Note_off_c, 0, 55, 41
1, 344691, Control_c, 0, 64, 69
1, 344705, Control_c, 0, 64, 74
1, 344720, Control_c, 0, 64, 79
1, 344735, Control_c, 0, 64, 84
1, 344750, Control_c, 0, 64, 85
1, 344756, Note_off_c, 0, 67, 0
1, 344766, Note_off_c, 0, 43, 51
1, 344776, Note_on_c, 0, 55, 17
1, 344781, Note_on_c, 0, 59, 43
1, 344784, Note_on_c, 0, 62, 38
1, 344794, Poly_aftertouch_c, 0, 67, 127
1, 344821, Note_off_c, 0, 59, 49
1, 344830, Note_off_c, 0, 62, 52
1, 344839, Control_c, 0, 64, 86
1, 344840, Note_off_c, 0, 55, 40
1, 344856, Poly_aftertouch_c, 0, 67, 0
1, 344884, Control_c, 0, 64, 86
1, 344898, Control_c, 0, 64, 87
1, 344928, Control_c, 0, 64, 87
1, 344942, Control_c, 0, 64, 88
1, 344943, Note_on_c, 0, 55, 13
1, 344946, Note_on_c, 0, 59, 42
1, 344946, Note_on_c, 0, 62, 38
1, 344957, Control_c, 0, 64, 90
1, 344972, Control_c, 0, 64, 92
1, 344976, Poly_aftertouch_c, 0, 67, 127
1, 344987, Control_c, 0, 64, 94
1, 344997, Note_off_c, 0, 62, 52
1, 345004, Note_off_c, 0, 59, 43
1, 345006, Note_off_c, 0, 55, 41
1, 345016, Control_c, 0, 64, 93
1, 345020, Poly_aftertouch_c, 0, 67, 0
1, 345031, Control_c, 0, 64, 89
1, 345046, Control_c, 0, 64, 82
1, 345061, Control_c, 0, 64, 73
1, 345076, Control_c, 0, 64, 66
1, 345082, Note_on_c, 0, 43, 38
1, 345091, Control_c, 0, 64, 62
1, 345092, Note_on_c, 0, 59, 28
1, 345101, Note_on_c, 0, 62, 31
1, 345106, Control_c, 0, 64, 63
1, 345109, Poly_aftertouch_c, 0, 55, 127
1, 345121, Control_c, 0, 64, 65
1, 345135, Control_c, 0, 64, 68
1, 345138, Note_off_c, 0, 59, 50
1, 345150, Control_c, 0, 64, 75
1, 345155, Note_off_c, 0, 62, 47
1, 345158, Poly_aftertouch_c, 0, 55, 0
1, 345161, Poly_aftertouch_c, 0, 67, 0
1, 345165, Control_c, 0, 64, 86
1, 345180, Control_c, 0, 64, 98
1, 345195, Control_c, 0, 64, 108
1, 345209, Control_c, 0, 64, 113
1, 345224, Control_c, 0, 64, 117
1, 345239, Control_c, 0, 64, 118
1, 345254, Control_c, 0, 64, 119
1, 345269, Control_c, 0, 64, 121
1, 345277, Note_on_c, 0, 62, 38
1, 345280, Note_on_c, 0, 59, 28
1, 345285, Control_c, 0, 64, 127
1, 345311, Poly_aftertouch_c, 0, 55, 127
1, 345315, Note_off_c, 0, 62, 52
1, 345319, Note_off_c, 0, 59, 50
1, 345331, Note_off_c, 0, 43, 32
1, 345349, Poly_aftertouch_c, 0, 55, 0
1, 345435, Note_on_c, 0, 59, 44
1, 345437, Note_on_c, 0, 55, 21
1, 345444, Note_on_c, 0, 62, 39
1, 345467, Note_off_c, 0, 59, 56
1, 345475, Note_off_c, 0, 62, 55
1, 345479, Note_off_c, 0, 55, 49
1, 345486, Poly_aftertouch_c, 0, 67, 127
1, 345518, Poly_aftertouch_c, 0, 67, 0
1, 345618, Control_c, 0, 64, 112
1, 345633, Control_c, 0, 64, 94
1, 345641, Note_on_c, 0, 48, 43
1, 345641, Note_on_c, 0, 63, 43
1, 345647, Control_c, 0, 64, 77
1, 345655, Note_on_c, 0, 55, 18
1, 345656, Note_on_c, 0, 60, 40
1, 345662, Control_c, 0, 64, 64
1, 345677, Control_c, 0, 64, 57
1, 345692, Control_c, 0, 64, 56
1, 345695, Poly_aftertouch_c, 0, 67, 127
1, 345721, Control_c, 0, 64, 57
1, 345733, Note_off_c, 0, 60, 50
1, 345736, Control_c, 0, 64, 60
1, 345742, Poly_aftertouch_c, 0, 67, 0
1, 345751, Control_c, 0, 64, 63
1, 345766, Control_c, 0, 64, 66
1, 345780, Note_off_c, 0, 63, 32
1, 345781, Control_c, 0, 64, 70
1, 345796, Control_c, 0, 64, 76
1, 345798, Note_off_c, 0, 55, 0
1, 345808, Note_on_c, 0, 67, 49
1, 345811, Note_on_c, 0, 55, 38
1, 345811, Control_c, 0, 64, 83
1, 345826, Control_c, 0, 64, 90
1, 345840, Control_c, 0, 64, 97
1, 345855, Control_c, 0, 64, 104
1, 345863, Note_off_c, 0, 55, 51
1, 345870, Control_c, 0, 64, 114
1, 345876, Note_off_c, 0, 67, 48
1, 345885, Control_c, 0, 64, 127
1, 345955, Note_on_c, 0, 67, 38
1, 345975, Note_on_c, 0, 55, 37
1, 346014, Note_off_c, 0, 55, 48
1, 346029, Note_off_c, 0, 67, 53
1, 346104, Note_off_c, 0, 48, 32
1, 346114, Note_on_c, 0, 67, 47
1, 346133, Note_on_c, 0, 55, 50
1, 346172, Note_off_c, 0, 55, 50
1, 346179, Note_off_c, 0, 67, 51
1, 346262, Note_on_c, 0, 67, 47
1, 346281, Note_on_c, 0, 55, 50
1, 346318, Note_off_c, 0, 55, 59
1, 346340, Note_off_c, 0, 67, 53
1, 346410, Note_on_c, 0, 67, 47
1, 346418, Note_on_c, 0, 55, 45
1, 346464, Note_off_c, 0, 55, 57
1, 346487, Note_off_c, 0, 67, 54
1, 346562, Note_on_c, 0, 67, 52
1, 346569, Note_on_c, 0, 55, 49
1, 346622, Note_off_c, 0, 55, 56
1, 346644, Note_off_c, 0, 67, 55
1, 346731, Note_on_c, 0, 67, 60
1, 346738, Note_on_c, 0, 55, 48
1, 346781, Note_off_c, 0, 55, 60
1, 346802, Note_off_c, 0, 67, 58
1, 346890, Note_on_c, 0, 67, 63
1, 346891, Note_on_c, 0, 55, 55
1, 346978, Note_off_c, 0, 55, 54
1, 347001, Note_off_c, 0, 67, 56
1, 347039, Note_on_c, 0, 47, 72
1, 347047, Note_on_c, 0, 35, 65
1, 347060, Note_on_c, 0, 67, 51
1, 347081, Note_on_c, 0, 55, 54
1, 347102, Control_c, 0, 64, 92
1, 347116, Control_c, 0, 64, 74
1, 347128, Note_off_c, 0, 55, 58
1, 347131, Control_c, 0, 64, 66
1, 347146, Control_c, 0, 64, 66
1, 347148, Note_off_c, 0, 67, 58
1, 347161, Control_c, 0, 64, 70
1, 347176, Control_c, 0, 64, 77
1, 347191, Control_c, 0, 64, 89
1, 347206, Control_c, 0, 64, 113
1, 347217, Note_on_c, 0, 67, 52
1, 347220, Control_c, 0, 64, 127
1, 347228, Note_off_c, 0, 35, 53
1, 347233, Note_on_c, 0, 55, 54
1, 347238, Note_off_c, 0, 47, 54
1, 347263, Note_off_c, 0, 55, 60
1, 347278, Note_off_c, 0, 67, 57
1, 347357, Note_on_c, 0, 55, 56
1, 347358, Note_on_c, 0, 67, 64
1, 347418, Note_off_c, 0, 55, 58
1, 347421, Note_on_c, 0, 48, 79
1, 347426, Note_on_c, 0, 36, 74
1, 347429, Note_off_c, 0, 67, 60
1, 347474, Note_off_c, 0, 36, 60
1, 347475, Note_off_c, 0, 48, 63
1, 347538, Note_on_c, 0, 67, 74
1, 347543, Note_on_c, 0, 55, 64
1, 347546, Control_c, 0, 64, 99
1, 347548, Note_on_c, 0, 50, 88
1, 347552, Note_on_c, 0, 38, 79
1, 347561, Control_c, 0, 64, 75
1, 347576, Control_c, 0, 64, 63
1, 347598, Control_c, 0, 64, 56
1, 347613, Control_c, 0, 64, 58
1, 347623, Note_off_c, 0, 55, 54
1, 347627, Control_c, 0, 64, 61
1, 347642, Control_c, 0, 64, 64
1, 347644, Note_off_c, 0, 67, 58
1, 347657, Control_c, 0, 64, 68
1, 347672, Control_c, 0, 64, 74
1, 347687, Control_c, 0, 64, 82
1, 347702, Control_c, 0, 64, 90
1, 347716, Control_c, 0, 64, 99
1, 347719, Note_on_c, 0, 67, 66
1, 347726, Note_off_c, 0, 50, 55
1, 347731, Control_c, 0, 64, 114
1, 347735, Note_off_c, 0, 38, 56
1, 347736, Note_on_c, 0, 55, 61
1, 347746, Control_c, 0, 64, 127
1, 347776, Note_off_c, 0, 55, 58
1, 347795, Note_off_c, 0, 67, 61
1, 347878, Note_on_c, 0, 67, 71
1, 347882, Note_on_c, 0, 55, 62
1, 347936, Note_off_c, 0, 55, 55
1, 347960, Note_off_c, 0, 67, 55
1, 347999, Note_on_c, 0, 50, 80
1, 348008, Note_on_c, 0, 38, 70
1, 348029, Note_on_c, 0, 67, 62
1, 348039, Note_on_c, 0, 55, 70
1, 348042, Control_c, 0, 64, 100
1, 348057, Control_c, 0, 64, 77
1, 348072, Control_c, 0, 64, 64
1, 348087, Control_c, 0, 64, 61
1, 348099, Note_off_c, 0, 55, 57
1, 348102, Control_c, 0, 64, 64
1, 348115, Note_off_c, 0, 67, 58
1, 348116, Control_c, 0, 64, 66
1, 348131, Control_c, 0, 64, 71
1, 348146, Control_c, 0, 64, 79
1, 348160, Control_c, 0, 64, 89
1, 348175, Control_c, 0, 64, 98
1, 348188, Note_on_c, 0, 67, 61
1, 348190, Control_c, 0, 64, 100
1, 348192, Note_off_c, 0, 50, 56
1, 348193, Note_off_c, 0, 38, 52
1, 348196, Note_on_c, 0, 55, 64
1, 348205, Control_c, 0, 64, 101
1, 348220, Control_c, 0, 64, 103
1, 348229, Note_off_c, 0, 55, 59
1, 348234, Control_c, 0, 64, 108
1, 348249, Control_c, 0, 64, 115
1, 348255, Note_off_c, 0, 67, 59
1, 348264, Control_c, 0, 64, 123
1, 348279, Control_c, 0, 64, 127
1, 348344, Note_on_c, 0, 55, 68
1, 348348, Note_on_c, 0, 67, 68
1, 348424, Note_off_c, 0, 55, 58
1, 348443, Note_off_c, 0, 67, 58
1, 348475, Note_on_c, 0, 50, 88
1, 348480, Note_on_c, 0, 38, 77
1, 348495, Control_c, 0, 64, 113
1, 348510, Control_c, 0, 64, 84
1, 348511, Note_on_c, 0, 67, 63
1, 348517, Note_on_c, 0, 55, 67
1, 348525, Control_c, 0, 64, 69
1, 348539, Control_c, 0, 64, 63
1, 348554, Control_c, 0, 64, 65
1, 348562, Note_off_c, 0, 55, 54
1, 348569, Control_c, 0, 64, 68
1, 348584, Control_c, 0, 64, 72
1, 348586, Note_off_c, 0, 67, 58
1, 348598, Control_c, 0, 64, 80
1, 348613, Control_c, 0, 64, 90
1, 348628, Control_c, 0, 64, 100
1, 348643, Control_c, 0, 64, 108
1, 348658, Control_c, 0, 64, 113
1, 348672, Control_c, 0, 64, 117
1, 348673, Note_on_c, 0, 55, 73
1, 348683, Note_on_c, 0, 67, 74
1, 348685, Note_off_c, 0, 50, 56
1, 348687, Control_c, 0, 64, 127
1, 348696, Note_off_c, 0, 38, 51
1, 348732, Note_off_c, 0, 55, 60
1, 348756, Note_off_c, 0, 67, 59
1, 348807, Note_on_c, 0, 67, 67
1, 348825, Note_on_c, 0, 55, 66
1, 348863, Note_off_c, 0, 55, 62
1, 348884, Note_off_c, 0, 67, 63
1, 348953, Note_on_c, 0, 48, 86
1, 348957, Note_on_c, 0, 36, 77
1, 348980, Note_on_c, 0, 68, 76
1, 348986, Note_on_c, 0, 56, 62
1, 348998, Control_c, 0, 64, 91
1, 349013, Control_c, 0, 64, 72
1, 349028, Control_c, 0, 64, 60
1, 349043, Control_c, 0, 64, 59
1, 349054, Note_off_c, 0, 56, 59
1, 349057, Control_c, 0, 64, 61
1, 349072, Note_off_c, 0, 68, 61
1, 349072, Control_c, 0, 64, 63
1, 349095, Control_c, 0, 64, 67
1, 349110, Control_c, 0, 64, 73
1, 349125, Control_c, 0, 64, 82
1, 349137, Note_off_c, 0, 36, 57
1, 349139, Control_c, 0, 64, 91
1, 349154, Control_c, 0, 64, 97
1, 349158, Note_off_c, 0, 48, 59
1, 349164, Note_on_c, 0, 68, 77
1, 349168, Note_on_c, 0, 56, 64
1, 349169, Control_c, 0, 64, 103
1, 349182, Control_c, 0, 64, 111
1, 349194, Poly_aftertouch_c, 0, 62, 127
1, 349197, Control_c, 0, 64, 127
1, 349224, Note_off_c, 0, 56, 61
1, 349239, Note_off_c, 0, 68, 59
1, 349304, Note_on_c, 0, 68, 79
1, 349306, Poly_aftertouch_c, 0, 62, 0
1, 349310, Note_on_c, 0, 56, 73
1, 349343, Poly_aftertouch_c, 0, 62, 127
1, 349370, Note_on_c, 0, 50, 90
1, 349374, Note_on_c, 0, 38, 81
1, 349409, Note_off_c, 0, 68, 54
1, 349409, Note_off_c, 0, 56, 54
1, 349449, Note_off_c, 0, 50, 61
1, 349484, Note_off_c, 0, 38, 52
1, 349543, Note_on_c, 0, 51, 100
1, 349545, Note_on_c, 0, 39, 84
1, 349570, Note_on_c, 0, 67, 73
1, 349582, Note_on_c, 0, 55, 60
1, 349584, Control_c, 0, 64, 98
1, 349599, Control_c, 0, 64, 73
1, 349613, Control_c, 0, 64, 59
1, 349628, Control_c, 0, 64, 47
1, 349643, Control_c, 0, 64, 43
1, 349658, Control_c, 0, 64, 36
1, 349673, Control_c, 0, 64, 33
1, 349680, Note_off_c, 0, 55, 60
1, 349682, Poly_aftertouch_c, 0, 62, 0
1, 349687, Control_c, 0, 64, 37
1, 349702, Control_c, 0, 64, 52
1, 349704, Note_off_c, 0, 67, 59
1, 349717, Control_c, 0, 64, 63
1, 349732, Control_c, 0, 64, 68
1, 349747, Control_c, 0, 64, 75
1, 349761, Control_c, 0, 64, 87
1, 349776, Control_c, 0, 64, 103
1, 349779, Note_on_c, 0, 67, 65
1, 349786, Note_on_c, 0, 55, 67
1, 349791, Control_c, 0, 64, 127
1, 349832, Note_off_c, 0, 55, 61
1, 349848, Note_off_c, 0, 51, 60
1, 349865, Note_off_c, 0, 67, 60
1, 349885, Note_off_c, 0, 39, 58
1, 349969, Note_on_c, 0, 67, 60
1, 349974, Note_on_c, 0, 55, 49
1, 350010, Note_off_c, 0, 55, 60
1, 350027, Note_off_c, 0, 67, 60
1, 350117, Note_on_c, 0, 55, 62
1, 350126, Note_on_c, 0, 67, 66
1, 350173, Note_off_c, 0, 55, 57
1, 350180, Note_off_c, 0, 67, 59
1, 350267, Note_on_c, 0, 67, 73
1, 350274, Note_on_c, 0, 55, 70
1, 350331, Note_off_c, 0, 55, 56
1, 350343, Note_off_c, 0, 67, 61
1, 350364, Note_on_c, 0, 50, 85
1, 350370, Note_on_c, 0, 38, 77
1, 350422, Note_off_c, 0, 50, 62
1, 350430, Note_off_c, 0, 38, 61
1, 350440, Note_on_c, 0, 55, 64
1, 350443, Note_on_c, 0, 67, 70
1, 350491, Note_off_c, 0, 55, 60
1, 350509, Note_off_c, 0, 67, 57
1, 350582, Note_on_c, 0, 48, 84
1, 350587, Note_on_c, 0, 36, 77
1, 350606, Control_c, 0, 64, 87
1, 350620, Note_on_c, 0, 67, 68
1, 350621, Control_c, 0, 64, 67
1, 350625, Note_on_c, 0, 55, 52
1, 350635, Control_c, 0, 64, 55
1, 350650, Control_c, 0, 64, 53
1, 350665, Control_c, 0, 64, 55
1, 350672, Note_off_c, 0, 55, 58
1, 350681, Control_c, 0, 64, 59
1, 350690, Note_off_c, 0, 67, 58
1, 350696, Control_c, 0, 64, 65
1, 350710, Control_c, 0, 64, 72
1, 350725, Control_c, 0, 64, 82
1, 350740, Control_c, 0, 64, 92
1, 350749, Note_off_c, 0, 48, 56
1, 350755, Control_c, 0, 64, 97
1, 350759, Note_off_c, 0, 36, 55
1, 350766, Note_on_c, 0, 67, 48
1, 350769, Control_c, 0, 64, 97
1, 350779, Note_on_c, 0, 55, 50
1, 350784, Control_c, 0, 64, 99
1, 350799, Control_c, 0, 64, 100
1, 350814, Control_c, 0, 64, 102
1, 350820, Note_off_c, 0, 55, 58
1, 350828, Note_off_c, 0, 67, 57
1, 350919, Control_c, 0, 64, 102
1, 350920, Note_on_c, 0, 55, 54
1, 350921, Note_on_c, 0, 67, 49
1, 350933, Control_c, 0, 64, 104
1, 350948, Control_c, 0, 64, 107
1, 350959, Note_off_c, 0, 55, 57
1, 350963, Control_c, 0, 64, 111
1, 350972, Note_off_c, 0, 67, 58
1, 350978, Control_c, 0, 64, 121
1, 350993, Control_c, 0, 64, 127
1, 351037, Control_c, 0, 64, 110
1, 351051, Control_c, 0, 64, 88
1, 351063, Note_on_c, 0, 46, 66
1, 351066, Control_c, 0, 64, 67
1, 351072, Note_on_c, 0, 34, 57
1, 351078, Note_on_c, 0, 55, 51
1, 351078, Note_on_c, 0, 67, 54
1, 351081, Control_c, 0, 64, 57
1, 351096, Control_c, 0, 64, 58
1, 351111, Control_c, 0, 64, 62
1, 351120, Note_off_c, 0, 67, 59
1, 351122, Note_off_c, 0, 55, 60
1, 351126, Control_c, 0, 64, 64
1, 351141, Control_c, 0, 64, 69
1, 351156, Control_c, 0, 64, 79
1, 351170, Control_c, 0, 64, 91
1, 351185, Control_c, 0, 64, 98
1, 351189, Note_off_c, 0, 46, 58
1, 351200, Control_c, 0, 64, 99
1, 351204, Note_off_c, 0, 34, 0
1, 351221, Note_on_c, 0, 55, 46
1, 351230, Note_on_c, 0, 67, 59
1, 351242, Poly_aftertouch_c, 0, 34, 0
1, 351245, Control_c, 0, 64, 99
1, 351274, Control_c, 0, 64, 100
1, 351281, Note_off_c, 0, 55, 56
1, 351290, Note_off_c, 0, 67, 54
1, 351388, Note_on_c, 0, 53, 51
1, 351389, Note_on_c, 0, 65, 59
1, 351400, Control_c, 0, 64, 100
1, 351415, Control_c, 0, 64, 101
1, 351417, Note_off_c, 0, 53, 55
1, 351427, Note_off_c, 0, 65, 60
1, 351430, Control_c, 0, 64, 101
1, 351469, Note_on_c, 0, 32, 50
1, 351476, Note_on_c, 0, 44, 44
1, 351522, Note_off_c, 0, 32, 56
1, 351523, Note_off_c, 0, 44, 56
1, 351592, Control_c, 0, 64, 101
1, 351622, Control_c, 0, 64, 99
1, 351637, Control_c, 0, 64, 97
1, 351651, Control_c, 0, 64, 91
1, 351666, Control_c, 0, 64, 81
1, 351682, Control_c, 0, 64, 69
1, 351687, Note_on_c, 0, 31, 37
1, 351687, Note_on_c, 0, 67, 50
1, 351692, Note_on_c, 0, 55, 39
1, 351692, Note_on_c, 0, 64, 42
1, 351697, Control_c, 0, 64, 60
1, 351698, Note_on_c, 0, 43, 36
1, 351707, Note_on_c, 0, 60, 31
1, 351712, Control_c, 0, 64, 54
1, 351742, Control_c, 0, 64, 55
1, 351756, Control_c, 0, 64, 57
1, 351771, Control_c, 0, 64, 62
1, 351786, Control_c, 0, 64, 65
1, 351801, Control_c, 0, 64, 69
1, 351816, Control_c, 0, 64, 76
1, 351820, Note_off_c, 0, 64, 49
1, 351824, Note_off_c, 0, 67, 53
1, 351830, Control_c, 0, 64, 81
1, 351838, Note_off_c, 0, 60, 34
1, 351845, Control_c, 0, 64, 85
1, 351853, Note_off_c, 0, 55, 35
1, 351860, Control_c, 0, 64, 90
1, 351866, Note_off_c, 0, 43, 36
1, 351868, Note_off_c, 0, 31, 42
1, 351874, Control_c, 0, 64, 94
1, 351889, Control_c, 0, 64, 98
1, 351904, Control_c, 0, 64, 99
1, 351938, Note_on_c, 0, 55, 40
1, 351949, Note_on_c, 0, 60, 43
1, 351957, Note_on_c, 0, 64, 44
1, 351965, Note_on_c, 0, 67, 35
1, 351984, Note_off_c, 0, 55, 51
1, 351987, Note_off_c, 0, 60, 59
1, 351993, Note_off_c, 0, 64, 60
1, 351999, Note_off_c, 0, 67, 50
1, 352023, Control_c, 0, 64, 99
1, 352102, Note_on_c, 0, 67, 45
1, 352105, Note_on_c, 0, 60, 41
1, 352105, Note_on_c, 0, 64, 47
1, 352117, Note_on_c, 0, 55, 30
1, 352133, Note_off_c, 0, 67, 53
1, 352141, Note_off_c, 0, 60, 55
1, 352145, Note_off_c, 0, 64, 61
1, 352158, Note_off_c, 0, 55, 47
1, 352193, Control_c, 0, 64, 97
1, 352208, Control_c, 0, 64, 92
1, 352223, Control_c, 0, 64, 81
1, 352233, Note_on_c, 0, 31, 38
1, 352235, Note_on_c, 0, 43, 42
1, 352238, Control_c, 0, 64, 68
1, 352246, Note_on_c, 0, 55, 39
1, 352246, Note_on_c, 0, 64, 50
1, 352248, Note_on_c, 0, 60, 50
1, 352250, Note_on_c, 0, 67, 37
1, 352253, Control_c, 0, 64, 61
1, 352267, Control_c, 0, 64, 62
1, 352282, Control_c, 0, 64, 65
1, 352290, Note_off_c, 0, 60, 62
1, 352291, Note_off_c, 0, 67, 59
1, 352293, Note_off_c, 0, 64, 59
1, 352297, Control_c, 0, 64, 68
1, 352302, Note_off_c, 0, 55, 52
1, 352312, Control_c, 0, 64, 72
1, 352327, Control_c, 0, 64, 77
1, 352342, Control_c, 0, 64, 83
1, 352356, Control_c, 0, 64, 85
1, 352365, Note_off_c, 0, 31, 36
1, 352369, Note_off_c, 0, 43, 35
1, 352371, Control_c, 0, 64, 86
1, 352397, Note_on_c, 0, 60, 45
1, 352403, Note_on_c, 0, 55, 38
1, 352404, Note_on_c, 0, 67, 39
1, 352407, Note_on_c, 0, 64, 48
1, 352434, Note_off_c, 0, 60, 53
1, 352441, Note_off_c, 0, 67, 48
1, 352446, Note_off_c, 0, 64, 59
1, 352450, Note_off_c, 0, 55, 45
1, 352548, Note_on_c, 0, 64, 54
1, 352549, Note_on_c, 0, 60, 48
1, 352554, Note_on_c, 0, 67, 49
1, 352555, Note_on_c, 0, 55, 38
1, 352574, Note_off_c, 0, 60, 60
1, 352579, Control_c, 0, 64, 86
1, 352582, Note_off_c, 0, 64, 64
1, 352590, Note_off_c, 0, 67, 55
1, 352594, Note_off_c, 0, 55, 47
1, 352623, Control_c, 0, 64, 87
1, 352653, Control_c, 0, 64, 86
1, 352668, Control_c, 0, 64, 85
1, 352679, Note_on_c, 0, 31, 38
1, 352683, Control_c, 0, 64, 79
1, 352691, Note_on_c, 0, 43, 42
1, 352695, Note_on_c, 0, 67, 52
1, 352697, Control_c, 0, 64, 70
1, 352699, Note_on_c, 0, 59, 49
1, 352711, Note_on_c, 0, 62, 37
1, 352712, Control_c, 0, 64, 63
1, 352724, Note_on_c, 0, 55, 20
1, 352727, Control_c, 0, 64, 60
1, 352742, Control_c, 0, 64, 62
1, 352757, Control_c, 0, 64, 64
1, 352762, Note_off_c, 0, 59, 53
1, 352771, Control_c, 0, 64, 66
1, 352772, Note_off_c, 0, 62, 57
1, 352784, Note_off_c, 0, 55, 43
1, 352786, Control_c, 0, 64, 70
1, 352801, Control_c, 0, 64, 75
1, 352816, Control_c, 0, 64, 80
1, 352834, Note_off_c, 0, 43, 54
1, 352838, Control_c, 0, 64, 84
1, 352850, Note_off_c, 0, 67, 0
1, 352851, Note_off_c, 0, 31, 39
1, 352853, Control_c, 0, 64, 86
1, 352868, Control_c, 0, 64, 89
1, 352870, Note_on_c, 0, 67, 14
1, 352883, Control_c, 0, 64, 91
1, 352887, Note_on_c, 0, 62, 45
1, 352887, Note_on_c, 0, 55, 25
1, 352888, Note_on_c, 0, 59, 41
1, 352918, Note_off_c, 0, 59, 54
1, 352922, Note_off_c, 0, 62, 61
1, 352943, Note_off_c, 0, 55, 43
1, 352945, Note_off_c, 0, 67, 49
1, 352972, Control_c, 0, 64, 91
1, 353027, Note_on_c, 0, 62, 46
1, 353031, Note_on_c, 0, 59, 42
1, 353036, Note_on_c, 0, 67, 12
1, 353055, Note_on_c, 0, 55, 35
1, 353097, Note_off_c, 0, 59, 50
1, 353102, Note_off_c, 0, 62, 53
1, 353103, Note_off_c, 0, 55, 47
1, 353135, Control_c, 0, 64, 91
1, 353150, Control_c, 0, 64, 87
1, 353152, Note_off_c, 0, 67, 0
1, 353165, Control_c, 0, 64, 79
1, 353179, Control_c, 0, 64, 69
1, 353184, Note_on_c, 0, 31, 24
1, 353189, Poly_aftertouch_c, 0, 67, 127
1, 353192, Note_on_c, 0, 43, 29
1, 353194, Control_c, 0, 64, 61
1, 353199, Note_on_c, 0, 62, 32
1, 353206, Note_on_c, 0, 59, 33
1, 353209, Control_c, 0, 64, 59
1, 353224, Control_c, 0, 64, 61
1, 353237, Poly_aftertouch_c, 0, 55, 127
1, 353238, Control_c, 0, 64, 63
1, 353253, Control_c, 0, 64, 65
1, 353254, Note_off_c, 0, 59, 50
1, 353260, Note_off_c, 0, 43, 55
1, 353266, Note_off_c, 0, 31, 54
1, 353268, Control_c, 0, 64, 69
1, 353270, Note_off_c, 0, 62, 49
1, 353284, Control_c, 0, 64, 74
1, 353293, Poly_aftertouch_c, 0, 55, 0
1, 353299, Control_c, 0, 64, 81
1, 353314, Control_c, 0, 64, 87
1, 353328, Control_c, 0, 64, 91
1, 353343, Control_c, 0, 64, 94
1, 353353, Poly_aftertouch_c, 0, 67, 0
1, 353358, Control_c, 0, 64, 95
1, 353391, Note_on_c, 0, 62, 29
1, 353391, Poly_aftertouch_c, 0, 67, 127
1, 353397, Note_on_c, 0, 59, 45
1, 353402, Control_c, 0, 64, 96
1, 353412, Note_on_c, 0, 55, 23
1, 353417, Control_c, 0, 64, 97
1, 353432, Control_c, 0, 64, 98
1, 353446, Control_c, 0, 64, 99
1, 353457, Note_off_c, 0, 59, 53
1, 353462, Note_off_c, 0, 62, 55
1, 353469, Note_off_c, 0, 55, 43
1, 353593, Poly_aftertouch_c, 0, 67, 0
1, 353606, Note_on_c, 0, 59, 43
1, 353618, Note_on_c, 0, 62, 40
1, 353630, Poly_aftertouch_c, 0, 67, 127
1, 353645, Note_off_c, 0, 59, 56
1, 353653, Note_off_c, 0, 62, 54
1, 353735, Control_c, 0, 64, 99
1, 353791, Poly_aftertouch_c, 0, 67, 0
1, 353883, Control_c, 0, 64, 97
1, 353898, Note_on_c, 0, 36, 33
1, 353898, Control_c, 0, 64, 92
1, 353906, Note_on_c, 0, 48, 34
1, 353913, Note_on_c, 0, 55, 16
1, 353913, Control_c, 0, 64, 81
1, 353917, Note_on_c, 0, 67, 19
1, 353923, Note_on_c, 0, 64, 39
1, 353928, Control_c, 0, 64, 69
1, 353943, Control_c, 0, 64, 59
1, 353958, Control_c, 0, 64, 50
1, 353969, Note_on_c, 0, 60, 3
1, 353987, Control_c, 0, 64, 50
1, 354002, Control_c, 0, 64, 54
1, 354017, Control_c, 0, 64, 61
1, 354032, Control_c, 0, 64, 65
1, 354035, Note_off_c, 0, 36, 45
1, 354046, Control_c, 0, 64, 72
1, 354061, Control_c, 0, 64, 78
1, 354068, Note_off_c, 0, 48, 56
1, 354077, Control_c, 0, 64, 86
1, 354092, Control_c, 0, 64, 93
1, 354107, Control_c, 0, 64, 103
1, 354122, Control_c, 0, 64, 121
1, 354136, Control_c, 0, 64, 127
1, 354151, Note_off_c, 0, 55, 40
1, 354211, Note_off_c, 0, 67, 39
1, 354229, Note_off_c, 0, 60, 38
1, 354283, Note_off_c, 0, 64, 39
1, 354288, Note_on_c, 0, 55, 34
1, 354348, Note_off_c, 0, 55, 47
1, 354442, Note_on_c, 0, 55, 33
1, 354516, Note_off_c, 0, 55, 44
1, 354597, Note_on_c, 0, 55, 39
1, 354658, Note_off_c, 0, 55, 51
1, 354768, Note_on_c, 0, 55, 33
1, 354829, Note_off_c, 0, 55, 41
1, 354928, Note_on_c, 0, 55, 35
1, 354983, Note_off_c, 0, 55, 55
1, 355096, Note_on_c, 0, 55, 31
1, 355184, Note_off_c, 0, 55, 0
1, 355222, Poly_aftertouch_c, 0, 55, 127
1, 355263, Note_on_c, 0, 55, 3
1, 355317, Note_off_c, 0, 55, 40
1, 355391, Note_on_c, 0, 55, 16
1, 355454, Note_off_c, 0, 55, 42
1, 355576, Note_on_c, 0, 71, 48
1, 355587, Note_on_c, 0, 67, 27
1, 355603, Poly_aftertouch_c, 0, 55, 127
1, 355624, Note_off_c, 0, 67, 50
1, 355633, Note_off_c, 0, 71, 53
1, 355651, Poly_aftertouch_c, 0, 55, 0
1, 355651, Poly_aftertouch_c, 0, 62, 0
1, 355728, Note_on_c, 0, 55, 28
1, 355784, Note_off_c, 0, 55, 42
1, 355880, Note_on_c, 0, 55, 27
1, 355897, Note_on_c, 0, 72, 54
1, 355903, Note_on_c, 0, 67, 42
1, 355905, Note_on_c, 0, 64, 39
1, 355932, Note_off_c, 0, 67, 56
1, 355938, Note_off_c, 0, 64, 51
1, 355942, Note_off_c, 0, 55, 43
1, 355965, Note_off_c, 0, 72, 54
1, 355997, Control_c, 0, 64, 113
1, 356011, Control_c, 0, 64, 86
1, 356026, Control_c, 0, 64, 72
1, 356032, Note_on_c, 0, 74, 61
1, 356041, Note_on_c, 0, 55, 26
1, 356041, Note_on_c, 0, 67, 39
1, 356041, Control_c, 0, 64, 64
1, 356056, Control_c, 0, 64, 63
1, 356060, Note_on_c, 0, 65, 48
1, 356071, Control_c, 0, 64, 65
1, 356086, Control_c, 0, 64, 67
1, 356092, Note_off_c, 0, 67, 55
1, 356098, Note_off_c, 0, 55, 54
1, 356101, Control_c, 0, 64, 73
1, 356108, Note_off_c, 0, 65, 55
1, 356116, Control_c, 0, 64, 83
1, 356130, Control_c, 0, 64, 95
1, 356145, Control_c, 0, 64, 110
1, 356160, Control_c, 0, 64, 127
1, 356166, Note_off_c, 0, 74, 61
1, 356184, Note_on_c, 0, 55, 36
1, 356238, Note_off_c, 0, 55, 50
1, 356343, Note_on_c, 0, 55, 38
1, 356402, Note_off_c, 0, 55, 52
1, 356501, Control_c, 0, 64, 111
1, 356503, Note_on_c, 0, 74, 65
1, 356508, Note_on_c, 0, 55, 35
1, 356514, Note_on_c, 0, 67, 50
1, 356516, Control_c, 0, 64, 92
1, 356523, Note_on_c, 0, 65, 43
1, 356531, Control_c, 0, 64, 78
1, 356545, Control_c, 0, 64, 68
1, 356560, Control_c, 0, 64, 65
1, 356578, Note_off_c, 0, 55, 52
1, 356583, Control_c, 0, 64, 67
1, 356598, Control_c, 0, 64, 70
1, 356613, Control_c, 0, 64, 75
1, 356627, Control_c, 0, 64, 83
1, 356642, Control_c, 0, 64, 93
1, 356656, Note_off_c, 0, 67, 47
1, 356657, Note_off_c, 0, 65, 44
1, 356657, Control_c, 0, 64, 101
1, 356662, Note_off_c, 0, 74, 62
1, 356671, Control_c, 0, 64, 106
1, 356673, Note_on_c, 0, 55, 34
1, 356686, Control_c, 0, 64, 110
1, 356701, Control_c, 0, 64, 113
1, 356716, Control_c, 0, 64, 114
1, 356726, Note_off_c, 0, 55, 53
1, 356841, Note_on_c, 0, 55, 28
1, 356891, Note_off_c, 0, 55, 45
1, 356953, Control_c, 0, 64, 111
1, 356968, Control_c, 0, 64, 106
1, 356983, Control_c, 0, 64, 98
1, 356983, Note_on_c, 0, 74, 58
1, 356986, Note_on_c, 0, 55, 35
1, 356998, Control_c, 0, 64, 85
1, 356999, Note_on_c, 0, 67, 40
1, 357004, Note_on_c, 0, 65, 40
1, 357013, Control_c, 0, 64, 74
1, 357027, Control_c, 0, 64, 67
1, 357042, Control_c, 0, 64, 68
1, 357052, Note_off_c, 0, 55, 51
1, 357057, Control_c, 0, 64, 70
1, 357071, Control_c, 0, 64, 74
1, 357086, Control_c, 0, 64, 78
1, 357101, Note_off_c, 0, 65, 51
1, 357101, Control_c, 0, 64, 85
1, 357102, Note_off_c, 0, 67, 48
1, 357116, Control_c, 0, 64, 94
1, 357123, Note_off_c, 0, 74, 62
1, 357131, Control_c, 0, 64, 99
1, 357138, Note_on_c, 0, 55, 38
1, 357145, Control_c, 0, 64, 103
1, 357160, Control_c, 0, 64, 105
1, 357175, Control_c, 0, 64, 106
1, 357189, Note_off_c, 0, 55, 57
1, 357314, Note_on_c, 0, 55, 36
1, 357373, Note_off_c, 0, 55, 50
1, 357421, Control_c, 0, 64, 106
1, 357456, Note_on_c, 0, 67, 48
1, 357456, Note_on_c, 0, 72, 57
1, 357468, Note_on_c, 0, 55, 38
1, 357470, Note_on_c, 0, 64, 36
1, 357494, Control_c, 0, 64, 107
1, 357502, Note_off_c, 0, 67, 59
1, 357510, Note_off_c, 0, 64, 51
1, 357529, Note_off_c, 0, 55, 48
1, 357541, Note_off_c, 0, 72, 60
1, 357607, Note_on_c, 0, 55, 30
1, 357664, Note_off_c, 0, 55, 51
1, 357740, Note_on_c, 0, 55, 40
1, 357779, Note_on_c, 0, 74, 63
1, 357786, Note_on_c, 0, 65, 49
1, 357791, Note_on_c, 0, 67, 47
1, 357795, Note_off_c, 0, 55, 55
1, 357814, Note_off_c, 0, 67, 61
1, 357815, Note_off_c, 0, 65, 62
1, 357825, Note_off_c, 0, 74, 62
1, 357894, Control_c, 0, 64, 106
1, 357909, Control_c, 0, 64, 104
1, 357924, Control_c, 0, 64, 97
1, 357931, Note_on_c, 0, 55, 43
1, 357939, Control_c, 0, 64, 86
1, 357941, Note_on_c, 0, 76, 60
1, 357951, Note_on_c, 0, 67, 21
1, 357954, Control_c, 0, 64, 71
1, 357968, Control_c, 0, 64, 63
1, 357983, Control_c, 0, 64, 60
1, 357989, Note_off_c, 0, 55, 54
1, 357998, Control_c, 0, 64, 62
1, 358013, Control_c, 0, 64, 63
1, 358027, Control_c, 0, 64, 66
1, 358042, Control_c, 0, 64, 74
1, 358057, Control_c, 0, 64, 84
1, 358080, Control_c, 0, 64, 95
1, 358095, Control_c, 0, 64, 102
1, 358103, Note_on_c, 0, 55, 42
1, 358110, Control_c, 0, 64, 105
1, 358125, Control_c, 0, 64, 108
1, 358140, Control_c, 0, 64, 111
1, 358143, Note_off_c, 0, 67, 37
1, 358148, Note_off_c, 0, 76, 57
1, 358155, Control_c, 0, 64, 113
1, 358155, Note_off_c, 0, 55, 56
1, 358170, Control_c, 0, 64, 116
1, 358185, Control_c, 0, 64, 121
1, 358199, Control_c, 0, 64, 127
1, 358272, Note_on_c, 0, 55, 26
1, 358314, Note_off_c, 0, 55, 48
1, 358411, Note_on_c, 0, 55, 9
1, 358465, Note_off_c, 0, 55, 45
1, 358566, Note_on_c, 0, 55, 42
1, 358578, Note_on_c, 0, 74, 59
1, 358592, Note_on_c, 0, 65, 41
1, 358599, Note_on_c, 0, 67, 34
1, 358602, Note_off_c, 0, 55, 58
1, 358638, Note_off_c, 0, 67, 53
1, 358660, Note_off_c, 0, 65, 55
1, 358679, Note_off_c, 0, 74, 57
1, 358736, Note_on_c, 0, 55, 30
1, 358781, Note_off_c, 0, 55, 48
1, 358843, Control_c, 0, 64, 113
1, 358858, Control_c, 0, 64, 98
1, 358867, Note_on_c, 0, 72, 63
1, 358873, Note_on_c, 0, 67, 45
1, 358874, Control_c, 0, 64, 82
1, 358880, Note_on_c, 0, 64, 43
1, 358889, Control_c, 0, 64, 72
1, 358903, Control_c, 0, 64, 69
1, 358918, Control_c, 0, 64, 71
1, 358920, Note_on_c, 0, 55, 25
1, 358933, Control_c, 0, 64, 75
1, 358948, Control_c, 0, 64, 80
1, 358963, Control_c, 0, 64, 88
1, 358963, Note_off_c, 0, 55, 48
1, 358972, Note_off_c, 0, 64, 50
1, 358977, Control_c, 0, 64, 99
1, 358992, Control_c, 0, 64, 108
1, 358993, Note_off_c, 0, 67, 51
1, 359006, Note_off_c, 0, 72, 63
1, 359007, Control_c, 0, 64, 112
1, 359022, Control_c, 0, 64, 113
1, 359037, Control_c, 0, 64, 114
1, 359052, Control_c, 0, 64, 115
1, 359067, Control_c, 0, 64, 117
1, 359079, Note_on_c, 0, 55, 24
1, 359081, Control_c, 0, 64, 119
1, 359096, Control_c, 0, 64, 121
1, 359111, Control_c, 0, 64, 123
1, 359121, Note_off_c, 0, 55, 50
1, 359185, Control_c, 0, 64, 127
1, 359210, Note_on_c, 0, 55, 36
1, 359249, Note_off_c, 0, 55, 49
1, 359259, Control_c, 0, 64, 123
1, 359273, Control_c, 0, 64, 107
1, 359288, Control_c, 0, 64, 92
1, 359292, Note_on_c, 0, 74, 71
1, 359303, Control_c, 0, 64, 78
1, 359304, Note_on_c, 0, 67, 49
1, 359311, Note_on_c, 0, 65, 48
1, 359318, Control_c, 0, 64, 69
1, 359333, Control_c, 0, 64, 67
1, 359347, Control_c, 0, 64, 70
1, 359362, Control_c, 0, 64, 74
1, 359368, Note_on_c, 0, 55, 37
1, 359377, Control_c, 0, 64, 80
1, 359392, Control_c, 0, 64, 86
1, 359398, Note_off_c, 0, 67, 54
1, 359401, Note_off_c, 0, 55, 52
1, 359402, Note_off_c, 0, 65, 55
1, 359407, Control_c, 0, 64, 92
1, 359415, Note_off_c, 0, 74, 62
1, 359422, Control_c, 0, 64, 96
1, 359437, Control_c, 0, 64, 98
1, 359451, Control_c, 0, 64, 99
1, 359466, Control_c, 0, 64, 99
1, 359481, Control_c, 0, 64, 100
1, 359505, Note_on_c, 0, 55, 31
1, 359540, Note_off_c, 0, 55, 50
1, 359644, Note_on_c, 0, 55, 41
1, 359645, Note_on_c, 0, 72, 64
1, 359657, Note_on_c, 0, 64, 49
1, 359659, Note_on_c, 0, 67, 44
1, 359666, Control_c, 0, 64, 101
1, 359682, Control_c, 0, 64, 101
1, 359688, Note_off_c, 0, 64, 63
1, 359690, Note_off_c, 0, 55, 57
1, 359691, Note_off_c, 0, 67, 54
1, 359706, Note_off_c, 0, 72, 62
1, 359711, Control_c, 0, 64, 100
1, 359726, Control_c, 0, 64, 94
1, 359741, Control_c, 0, 64, 82
1, 359756, Control_c, 0, 64, 70
1, 359770, Control_c, 0, 64, 64
1, 359783, Note_on_c, 0, 71, 56
1, 359785, Control_c, 0, 64, 63
1, 359790, Note_on_c, 0, 62, 41
1, 359795, Note_on_c, 0, 55, 39
1, 359800, Note_on_c, 0, 67, 43
1, 359800, Control_c, 0, 64, 65
1, 359815, Control_c, 0, 64, 67
1, 359830, Control_c, 0, 64, 71
1, 359833, Note_off_c, 0, 55, 54
1, 359845, Control_c, 0, 64, 77
1, 359860, Control_c, 0, 64, 83
1, 359875, Control_c, 0, 64, 87
1, 359889, Control_c, 0, 64, 90
1, 359901, Note_off_c, 0, 62, 41
1, 359904, Control_c, 0, 64, 91
1, 359919, Control_c, 0, 64, 92
1, 359934, Control_c, 0, 64, 93
1, 359935, Note_off_c, 0, 67, 37
1, 359949, Control_c, 0, 64, 93
1, 359961, Note_on_c, 0, 55, 32
1, 360007, Note_off_c, 0, 55, 43
1, 360057, Note_off_c, 0, 71, 34
1, 360074, Note_on_c, 0, 55, 35
1, 360110, Note_off_c, 0, 55, 58
1, 360126, Control_c, 0, 64, 94
1, 360141, Control_c, 0, 64, 95
1, 360156, Control_c, 0, 64, 96
1, 360170, Control_c, 0, 64, 96
1, 360200, Control_c, 0, 64, 93
1, 360215, Control_c, 0, 64, 85
1, 360222, Note_on_c, 0, 55, 48
1, 360229, Control_c, 0, 64, 75
1, 360238, Note_on_c, 0, 69, 57
1, 360240, Note_on_c, 0, 60, 49
1, 360240, Note_on_c, 0, 67, 53
1, 360244, Control_c, 0, 64, 68
1, 360274, Control_c, 0, 64, 71
1, 360276, Note_off_c, 0, 55, 57
1, 360289, Control_c, 0, 64, 77
1, 360290, Note_off_c, 0, 60, 60
1, 360300, Note_off_c, 0, 67, 54
1, 360304, Control_c, 0, 64, 83
1, 360326, Control_c, 0, 64, 91
1, 360341, Control_c, 0, 64, 98
1, 360356, Control_c, 0, 64, 101
1, 360373, Note_off_c, 0, 69, 35
1, 360387, Note_on_c, 0, 55, 45
1, 360400, Control_c, 0, 64, 102
1, 360426, Note_off_c, 0, 55, 59
1, 360515, Note_on_c, 0, 53, 48
1, 360522, Note_on_c, 0, 67, 52
1, 360525, Note_on_c, 0, 71, 66
1, 360530, Note_on_c, 0, 62, 54
1, 360558, Note_off_c, 0, 67, 64
1, 360560, Note_off_c, 0, 62, 57
1, 360566, Note_off_c, 0, 53, 55
1, 360583, Poly_aftertouch_c, 0, 55, 127
1, 360592, Control_c, 0, 64, 102
1, 360593, Note_off_c, 0, 71, 54
1, 360607, Control_c, 0, 64, 103
1, 360652, Control_c, 0, 64, 100
1, 360666, Control_c, 0, 64, 89
1, 360677, Note_on_c, 0, 52, 53
1, 360680, Poly_aftertouch_c, 0, 55, 0
1, 360681, Control_c, 0, 64, 75
1, 360694, Note_on_c, 0, 67, 52
1, 360696, Control_c, 0, 64, 65
1, 360700, Note_on_c, 0, 72, 62
1, 360707, Note_on_c, 0, 64, 50
1, 360711, Control_c, 0, 64, 61
1, 360716, Poly_aftertouch_c, 0, 55, 127
1, 360725, Control_c, 0, 64, 62
1, 360740, Control_c, 0, 64, 64
1, 360753, Poly_aftertouch_c, 0, 55, 0
1, 360755, Control_c, 0, 64, 67
1, 360770, Control_c, 0, 64, 71
1, 360772, Note_off_c, 0, 64, 53
1, 360785, Control_c, 0, 64, 78
1, 360799, Control_c, 0, 64, 86
1, 360808, Note_off_c, 0, 67, 62
1, 360809, Note_off_c, 0, 52, 36
1, 360809, Note_off_c, 0, 72, 62
1, 360814, Control_c, 0, 64, 91
1, 360829, Control_c, 0, 64, 93
1, 360844, Control_c, 0, 64, 97
1, 360853, Note_on_c, 0, 55, 52
1, 360858, Control_c, 0, 64, 101
1, 360873, Control_c, 0, 64, 104
1, 360888, Control_c, 0, 64, 105
1, 360897, Note_off_c, 0, 55, 61
1, 360988, Note_on_c, 0, 55, 56
1, 361007, Control_c, 0, 64, 104
1, 361022, Control_c, 0, 64, 104
1, 361035, Note_off_c, 0, 55, 57
1, 361088, Control_c, 0, 64, 103
1, 361103, Control_c, 0, 64, 102
1, 361118, Control_c, 0, 64, 100
1, 361133, Control_c, 0, 64, 90
1, 361148, Control_c, 0, 64, 77
1, 361153, Note_on_c, 0, 74, 61
1, 361154, Note_on_c, 0, 71, 53
1, 361155, Note_on_c, 0, 67, 49
1, 361162, Note_on_c, 0, 48, 49
1, 361162, Control_c, 0, 64, 66
1, 361177, Control_c, 0, 64, 60
1, 361178, Note_on_c, 0, 55, 25
1, 361192, Control_c, 0, 64, 61
1, 361207, Control_c, 0, 64, 63
1, 361217, Note_off_c, 0, 55, 48
1, 361222, Control_c, 0, 64, 66
1, 361236, Control_c, 0, 64, 71
1, 361251, Control_c, 0, 64, 78
1, 361263, Note_off_c, 0, 48, 53
1, 361267, Control_c, 0, 64, 87
1, 361273, Note_off_c, 0, 71, 57
1, 361279, Note_off_c, 0, 67, 51
1, 361282, Control_c, 0, 64, 92
1, 361297, Control_c, 0, 64, 93
1, 361309, Note_off_c, 0, 74, 60
1, 361312, Control_c, 0, 64, 93
1, 361326, Control_c, 0, 64, 94
1, 361332, Note_on_c, 0, 55, 46
1, 361356, Control_c, 0, 64, 95
1, 361371, Note_off_c, 0, 55, 54
1, 361467, Note_on_c, 0, 55, 47
1, 361520, Note_off_c, 0, 55, 54
1, 361555, Note_on_c, 0, 72, 48
1, 361561, Note_on_c, 0, 67, 42
1, 361561, Note_on_c, 0, 76, 49
1, 361589, Note_off_c, 0, 72, 54
1, 361619, Note_off_c, 0, 67, 46
1, 361634, Note_off_c, 0, 76, 53
1, 361696, Control_c, 0, 64, 94
1, 361710, Note_on_c, 0, 55, 34
1, 361726, Control_c, 0, 64, 93
1, 361729, Note_on_c, 0, 43, 33
1, 361741, Control_c, 0, 64, 90
1, 361748, Note_on_c, 0, 74, 53
1, 361756, Control_c, 0, 64, 83
1, 361757, Note_on_c, 0, 67, 44
1, 361760, Note_on_c, 0, 71, 41
1, 361771, Control_c, 0, 64, 70
1, 361785, Control_c, 0, 64, 62
1, 361800, Control_c, 0, 64, 56
1, 361822, Control_c, 0, 64, 56
1, 361837, Control_c, 0, 64, 56
1, 361852, Control_c, 0, 64, 59
1, 361866, Control_c, 0, 64, 62
1, 361881, Control_c, 0, 64, 65
1, 361890, Note_off_c, 0, 55, 39
1, 361896, Control_c, 0, 64, 69
1, 361912, Control_c, 0, 64, 74
1, 361927, Control_c, 0, 64, 80
1, 361941, Control_c, 0, 64, 87
1, 361956, Control_c, 0, 64, 96
1, 361958, Note_on_c, 0, 55, 43
1, 361971, Control_c, 0, 64, 112
1, 361986, Control_c, 0, 64, 127
1, 362007, Note_off_c, 0, 55, 58
1, 362048, Note_off_c, 0, 67, 39
1, 362104, Note_off_c, 0, 71, 39
1, 362109, Note_off_c, 0, 74, 56
1, 362120, Note_on_c, 0, 55, 46
1, 362121, Note_off_c, 0, 43, 37
1, 362162, Note_off_c, 0, 55, 60
1, 362263, Note_on_c, 0, 55, 47
1, 362305, Note_off_c, 0, 55, 61
1, 362417, Note_on_c, 0, 55, 50
1, 362456, Note_off_c, 0, 55, 62
1, 362584, Note_on_c, 0, 55, 48
1, 362630, Note_off_c, 0, 55, 60
1, 362733, Note_on_c, 0, 55, 55
1, 362786, Note_off_c, 0, 55, 54
1, 362886, Note_on_c, 0, 55, 61
1, 362929, Note_off_c, 0, 55, 60
1, 363032, Note_on_c, 0, 55, 67
1, 363093, Note_off_c, 0, 55, 55
1, 363172, Note_on_c, 0, 71, 80
1, 363177, Note_on_c, 0, 59, 72
1, 363180, Note_on_c, 0, 67, 68
1, 363185, Note_on_c, 0, 55, 59
1, 363227, Note_off_c, 0, 55, 57
1, 363231, Note_off_c, 0, 59, 61
1, 363240, Note_off_c, 0, 67, 61
1, 363258, Note_off_c, 0, 71, 62
1, 363333, Note_on_c, 0, 55, 69
1, 363368, Note_off_c, 0, 55, 60
1, 363468, Note_on_c, 0, 55, 63
1, 363507, Note_on_c, 0, 69, 69
1, 363508, Note_on_c, 0, 72, 78
1, 363511, Note_on_c, 0, 60, 65
1, 363516, Note_off_c, 0, 55, 61
1, 363538, Note_off_c, 0, 69, 66
1, 363541, Note_off_c, 0, 60, 63
1, 363562, Note_off_c, 0, 72, 63
1, 363617, Control_c, 0, 64, 89
1, 363625, Note_on_c, 0, 55, 65
1, 363625, Note_on_c, 0, 74, 80
1, 363632, Note_on_c, 0, 62, 75
1, 363632, Control_c, 0, 64, 72
1, 363640, Note_on_c, 0, 70, 40
1, 363641, Note_off_c, 0, 70, 127
1, 363641, Note_on_c, 0, 71, 80
1, 363648, Control_c, 0, 64, 63
1, 363664, Control_c, 0, 64, 64
1, 363679, Control_c, 0, 64, 67
1, 363693, Control_c, 0, 64, 71
1, 363707, Note_off_c, 0, 55, 60
1, 363708, Control_c, 0, 64, 80
1, 363723, Control_c, 0, 64, 95
1, 363737, Control_c, 0, 64, 127
1, 363797, Note_on_c, 0, 55, 61
1, 363800, Note_off_c, 0, 71, 56
1, 363830, Note_off_c, 0, 74, 54
1, 363833, Note_off_c, 0, 55, 64
1, 363837, Note_off_c, 0, 62, 46
1, 363921, Note_on_c, 0, 55, 59
1, 364085, Control_c, 0, 64, 109
1, 364091, Note_on_c, 0, 74, 91
1, 364093, Note_on_c, 0, 62, 84
1, 364096, Note_on_c, 0, 54, 62
1, 364097, Note_on_c, 0, 71, 82
1, 364100, Control_c, 0, 64, 81
1, 364115, Control_c, 0, 64, 65
1, 364130, Control_c, 0, 64, 62
1, 364144, Control_c, 0, 64, 64
1, 364150, Note_off_c, 0, 54, 61
1, 364159, Control_c, 0, 64, 67
1, 364165, Note_off_c, 0, 55, 58
1, 364174, Control_c, 0, 64, 71
1, 364189, Control_c, 0, 64, 82
1, 364204, Control_c, 0, 64, 104
1, 364219, Control_c, 0, 64, 127
1, 364226, Note_off_c, 0, 62, 56
1, 364252, Note_on_c, 0, 54, 71
1, 364264, Note_off_c, 0, 71, 59
1, 364266, Note_off_c, 0, 74, 58
1, 364272, Note_on_c, 0, 55, 48
1, 364284, Note_off_c, 0, 54, 65
1, 364313, Note_off_c, 0, 55, 49
1, 364372, Note_on_c, 0, 54, 69
1, 364391, Note_on_c, 0, 55, 52
1, 364426, Note_off_c, 0, 54, 65
1, 364437, Note_off_c, 0, 55, 58
1, 364516, Control_c, 0, 64, 102
1, 364526, Note_on_c, 0, 74, 89
1, 364527, Note_on_c, 0, 62, 86
1, 364528, Note_on_c, 0, 71, 82
1, 364531, Control_c, 0, 64, 76
1, 364532, Note_on_c, 0, 53, 76
1, 364536, Note_on_c, 0, 55, 60
1, 364546, Control_c, 0, 64, 64
1, 364560, Control_c, 0, 64, 59
1, 364575, Control_c, 0, 64, 62
1, 364590, Control_c, 0, 64, 64
1, 364594, Note_off_c, 0, 53, 63
1, 364605, Control_c, 0, 64, 69
1, 364616, Note_off_c, 0, 55, 59
1, 364620, Control_c, 0, 64, 77
1, 364634, Control_c, 0, 64, 91
1, 364636, Note_off_c, 0, 62, 59
1, 364649, Control_c, 0, 64, 107
1, 364664, Control_c, 0, 64, 121
1, 364677, Note_off_c, 0, 71, 60
1, 364679, Note_off_c, 0, 74, 63
1, 364679, Control_c, 0, 64, 127
1, 364686, Note_on_c, 0, 53, 79
1, 364693, Note_on_c, 0, 55, 53
1, 364741, Note_off_c, 0, 53, 62
1, 364747, Note_off_c, 0, 55, 49
1, 364818, Note_on_c, 0, 53, 74
1, 364819, Note_on_c, 0, 55, 55
1, 364893, Note_off_c, 0, 53, 56
1, 364940, Note_off_c, 0, 55, 0
1, 364955, Note_on_c, 0, 55, 48
1, 364959, Note_on_c, 0, 72, 86
1, 364959, Note_on_c, 0, 76, 90
1, 364961, Note_on_c, 0, 64, 89
1, 364965, Note_on_c, 0, 52, 77
1, 365010, Note_off_c, 0, 64, 62
1, 365021, Note_off_c, 0, 72, 64
1, 365027, Note_off_c, 0, 52, 63
1, 365039, Note_off_c, 0, 76, 66
1, 365049, Note_off_c, 0, 55, 50
1, 365105, Note_on_c, 0, 52, 77
1, 365110, Note_on_c, 0, 55, 39
1, 365170, Note_off_c, 0, 52, 61
1, 365173, Note_off_c, 0, 55, 52
1, 365259, Note_on_c, 0, 74, 83
1, 365263, Note_on_c, 0, 65, 86
1, 365265, Note_on_c, 0, 77, 97
1, 365277, Note_on_c, 0, 50, 68
1, 365278, Note_on_c, 0, 53, 67
1, 365302, Note_off_c, 0, 65, 62
1, 365306, Note_on_c, 0, 55, 39
1, 365306, Note_off_c, 0, 74, 65
1, 365328, Note_off_c, 0, 77, 65
1, 365331, Note_off_c, 0, 53, 51
1, 365337, Note_off_c, 0, 55, 51
1, 365347, Note_off_c, 0, 50, 60
1, 365490, Note_on_c, 0, 52, 65
1, 365498, Note_on_c, 0, 55, 56
1, 365499, Note_on_c, 0, 48, 62
1, 365501, Control_c, 0, 64, 119
1, 365504, Note_on_c, 0, 76, 82
1, 365504, Note_on_c, 0, 79, 90
1, 365506, Note_on_c, 0, 67, 78
1, 365516, Control_c, 0, 64, 83
1, 365531, Control_c, 0, 64, 65
1, 365546, Control_c, 0, 64, 47
1, 365569, Control_c, 0, 64, 0
1, 365613, Control_c, 0, 64, 27
1, 365628, Control_c, 0, 64, 55
1, 365643, Control_c, 0, 64, 66
1, 365658, Control_c, 0, 64, 74
1, 365670, Note_off_c, 0, 52, 61
1, 365673, Control_c, 0, 64, 89
1, 365674, Note_off_c, 0, 48, 59
1, 365688, Control_c, 0, 64, 116
1, 365703, Control_c, 0, 64, 127
1, 365706, Note_off_c, 0, 67, 50
1, 365715, Note_off_c, 0, 76, 56
1, 365777, Note_off_c, 0, 55, 0
1, 365793, Note_on_c, 0, 55, 30
1, 365817, Note_on_c, 0, 52, 53
1, 365819, Note_on_c, 0, 48, 48
1, 365855, Note_off_c, 0, 52, 62
1, 365859, Note_off_c, 0, 48, 60
1, 365930, Note_off_c, 0, 55, 0
1, 365960, Note_on_c, 0, 48, 49
1, 365968, Poly_aftertouch_c, 0, 55, 127
1, 365969, Note_on_c, 0, 55, 3
1, 365975, Note_on_c, 0, 52, 27
1, 365995, Note_off_c, 0, 48, 59
1, 366007, Note_off_c, 0, 55, 41
1, 366009, Note_off_c, 0, 52, 52
1, 366040, Note_off_c, 0, 79, 58
1, 366113, Note_on_c, 0, 77, 69
1, 366118, Note_on_c, 0, 71, 60
1, 366118, Control_c, 0, 64, 102
1, 366121, Note_on_c, 0, 74, 58
1, 366122, Note_on_c, 0, 53, 53
1, 366130, Note_on_c, 0, 50, 47
1, 366133, Control_c, 0, 64, 76
1, 366135, Note_on_c, 0, 44, 46
1, 366148, Control_c, 0, 64, 64
1, 366162, Control_c, 0, 64, 61
1, 366174, Note_off_c, 0, 53, 58
1, 366174, Note_off_c, 0, 50, 56
1, 366175, Note_off_c, 0, 44, 56
1, 366177, Control_c, 0, 64, 64
1, 366192, Control_c, 0, 64, 66
1, 366207, Control_c, 0, 64, 70
1, 366222, Control_c, 0, 64, 78
1, 366237, Control_c, 0, 64, 90
1, 366252, Control_c, 0, 64, 106
1, 366267, Control_c, 0, 64, 113
1, 366280, Note_on_c, 0, 50, 43
1, 366281, Control_c, 0, 64, 115
1, 366288, Note_on_c, 0, 53, 40
1, 366296, Control_c, 0, 64, 127
1, 366316, Note_off_c, 0, 74, 60
1, 366320, Note_off_c, 0, 50, 57
1, 366329, Note_off_c, 0, 53, 53
1, 366341, Poly_aftertouch_c, 0, 44, 127
1, 366416, Note_on_c, 0, 50, 47
1, 366430, Note_on_c, 0, 53, 40
1, 366462, Note_off_c, 0, 50, 58
1, 366464, Note_off_c, 0, 53, 52
1, 366485, Note_off_c, 0, 71, 35
1, 366495, Poly_aftertouch_c, 0, 44, 0
1, 366518, Note_off_c, 0, 77, 56
1, 366540, Control_c, 0, 64, 92
1, 366555, Control_c, 0, 64, 73
1, 366570, Control_c, 0, 64, 62
1, 366579, Note_on_c, 0, 52, 47
1, 366583, Note_on_c, 0, 76, 52
1, 366585, Control_c, 0, 64, 56
1, 366587, Note_on_c, 0, 45, 35
1, 366588, Note_on_c, 0, 48, 35
1, 366592, Note_on_c, 0, 72, 48
1, 366600, Control_c, 0, 64, 57
1, 366614, Control_c, 0, 64, 59
1, 366629, Control_c, 0, 64, 63
1, 366636, Note_off_c, 0, 48, 53
1, 366644, Control_c, 0, 64, 67
1, 366647, Note_off_c, 0, 52, 59
1, 366648, Note_off_c, 0, 45, 55
1, 366658, Control_c, 0, 64, 74
1, 366673, Control_c, 0, 64, 86
1, 366688, Control_c, 0, 64, 104
1, 366703, Control_c, 0, 64, 127
1, 366707, Note_off_c, 0, 72, 62
1, 366720, Note_off_c, 0, 76, 64
1, 366771, Note_on_c, 0, 48, 41
1, 366779, Note_on_c, 0, 45, 18
1, 366803, Note_off_c, 0, 48, 54
1, 366817, Note_off_c, 0, 45, 52
1, 366819, Note_on_c, 0, 52, 2
1, 366864, Note_off_c, 0, 52, 45
1, 366936, Note_on_c, 0, 48, 41
1, 366947, Note_on_c, 0, 52, 33
1, 366976, Poly_aftertouch_c, 0, 45, 127
1, 366984, Note_off_c, 0, 48, 58
1, 366990, Note_off_c, 0, 52, 53
1, 366993, Poly_aftertouch_c, 0, 45, 0
1, 367017, Poly_aftertouch_c, 0, 45, 0
1, 367156, Note_on_c, 0, 41, 38
1, 367185, Control_c, 0, 64, 89
1, 367194, Note_on_c, 0, 77, 72
1, 367199, Note_on_c, 0, 69, 58
1, 367200, Control_c, 0, 64, 72
1, 367215, Control_c, 0, 64, 63
1, 367230, Control_c, 0, 64, 62
1, 367245, Control_c, 0, 64, 64
1, 367259, Control_c, 0, 64, 66
1, 367274, Control_c, 0, 64, 71
1, 367287, Note_off_c, 0, 41, 63
1, 367289, Control_c, 0, 64, 81
1, 367304, Control_c, 0, 64, 96
1, 367319, Control_c, 0, 64, 127
1, 367337, Note_off_c, 0, 77, 62
1, 367391, Note_off_c, 0, 69, 61
1, 367450, Note_on_c, 0, 53, 45
1, 367479, Note_on_c, 0, 57, 8
1, 367485, Note_off_c, 0, 53, 61
1, 367562, Note_off_c, 0, 57, 0
1, 367562, Note_on_c, 0, 57, 16
1, 367593, Note_on_c, 0, 53, 36
1, 367611, Note_off_c, 0, 57, 57
1, 367623, Note_on_c, 0, 74, 70
1, 367628, Note_off_c, 0, 53, 51
1, 367630, Note_on_c, 0, 65, 58
1, 367661, Note_off_c, 0, 65, 64
1, 367692, Note_off_c, 0, 74, 58
1, 367720, Control_c, 0, 64, 101
1, 367730, Note_on_c, 0, 43, 48
1, 367734, Control_c, 0, 64, 76
1, 367749, Control_c, 0, 64, 62
1, 367754, Note_on_c, 0, 71, 70
1, 367760, Note_on_c, 0, 62, 57
1, 367764, Control_c, 0, 64, 56
1, 367768, Note_on_c, 0, 67, 53
1, 367778, Control_c, 0, 64, 58
1, 367793, Control_c, 0, 64, 61
1, 367816, Control_c, 0, 64, 64
1, 367831, Control_c, 0, 64, 68
1, 367846, Control_c, 0, 64, 76
1, 367860, Control_c, 0, 64, 87
1, 367863, Note_off_c, 0, 43, 50
1, 367875, Control_c, 0, 64, 98
1, 367890, Control_c, 0, 64, 107
1, 367904, Control_c, 0, 64, 117
1, 367907, Note_off_c, 0, 67, 62
1, 367910, Note_off_c, 0, 62, 36
1, 367912, Note_off_c, 0, 71, 63
1, 367919, Note_on_c, 0, 55, 58
1, 367919, Control_c, 0, 64, 127
1, 367962, Note_off_c, 0, 55, 62
1, 368053, Note_on_c, 0, 55, 66
1, 368093, Note_off_c, 0, 55, 60
1, 368201, Control_c, 0, 64, 105
1, 368204, Note_on_c, 0, 43, 49
1, 368211, Note_on_c, 0, 71, 79
1, 368216, Control_c, 0, 64, 77
1, 368218, Note_on_c, 0, 67, 59
1, 368221, Note_on_c, 0, 62, 53
1, 368231, Control_c, 0, 64, 64
1, 368246, Control_c, 0, 64, 59
1, 368260, Control_c, 0, 64, 61
1, 368275, Control_c, 0, 64, 63
1, 368290, Control_c, 0, 64, 65
1, 368294, Note_off_c, 0, 62, 52
1, 368304, Control_c, 0, 64, 70
1, 368319, Control_c, 0, 64, 78
1, 368320, Note_off_c, 0, 43, 58
1, 368334, Control_c, 0, 64, 90
1, 368336, Note_off_c, 0, 67, 61
1, 368349, Control_c, 0, 64, 101
1, 368353, Note_off_c, 0, 71, 63
1, 368364, Control_c, 0, 64, 108
1, 368374, Note_on_c, 0, 55, 54
1, 368378, Control_c, 0, 64, 110
1, 368419, Note_off_c, 0, 55, 60
1, 368520, Note_on_c, 0, 55, 56
1, 368565, Control_c, 0, 64, 109
1, 368571, Note_off_c, 0, 55, 60
1, 368653, Control_c, 0, 64, 106
1, 368668, Control_c, 0, 64, 97
1, 368681, Note_on_c, 0, 71, 57
1, 368682, Control_c, 0, 64, 77
1, 368688, Note_on_c, 0, 67, 42
1, 368693, Note_on_c, 0, 43, 43
1, 368697, Control_c, 0, 64, 65
1, 368699, Note_on_c, 0, 62, 34
1, 368712, Control_c, 0, 64, 60
1, 368726, Control_c, 0, 64, 63
1, 368741, Control_c, 0, 64, 65
1, 368756, Control_c, 0, 64, 69
1, 368771, Note_off_c, 0, 62, 54
1, 368771, Control_c, 0, 64, 78
1, 368786, Control_c, 0, 64, 90
1, 368801, Control_c, 0, 64, 107
1, 368814, Note_off_c, 0, 43, 37
1, 368815, Control_c, 0, 64, 127
1, 368821, Note_off_c, 0, 71, 61
1, 368847, Note_off_c, 0, 67, 35
1, 368868, Note_on_c, 0, 55, 39
1, 368905, Note_off_c, 0, 55, 61
1, 369013, Note_on_c, 0, 55, 47
1, 369069, Note_off_c, 0, 55, 54
1, 369126, Control_c, 0, 64, 119
1, 369141, Control_c, 0, 64, 108
1, 369156, Control_c, 0, 64, 95
1, 369171, Control_c, 0, 64, 80
1, 369186, Control_c, 0, 64, 68
1, 369192, Note_on_c, 0, 55, 49
1, 369194, Note_on_c, 0, 76, 55
1, 369200, Control_c, 0, 64, 63
1, 369215, Control_c, 0, 64, 64
1, 369218, Note_on_c, 0, 67, 29
1, 369230, Control_c, 0, 64, 66
1, 369245, Control_c, 0, 64, 69
1, 369254, Note_off_c, 0, 55, 52
1, 369261, Control_c, 0, 64, 75
1, 369276, Control_c, 0, 64, 84
1, 369291, Control_c, 0, 64, 94
1, 369313, Control_c, 0, 64, 102
1, 369328, Control_c, 0, 64, 106
1, 369334, Note_off_c, 0, 76, 58
1, 369343, Control_c, 0, 64, 107
1, 369373, Note_off_c, 0, 67, 36
1, 369403, Control_c, 0, 64, 107
1, 369412, Note_on_c, 0, 57, 45
1, 369418, Control_c, 0, 64, 108
1, 369425, Note_on_c, 0, 55, 34
1, 369432, Control_c, 0, 64, 110
1, 369459, Note_off_c, 0, 55, 57
1, 369465, Note_off_c, 0, 57, 58
1, 369588, Note_on_c, 0, 55, 35
1, 369622, Note_on_c, 0, 59, 51
1, 369666, Note_off_c, 0, 55, 58
1, 369670, Note_off_c, 0, 59, 59
1, 369718, Note_on_c, 0, 74, 54
1, 369725, Note_on_c, 0, 65, 46
1, 369748, Note_on_c, 0, 67, 24
1, 369763, Note_off_c, 0, 65, 61
1, 369787, Note_off_c, 0, 67, 47
1, 369833, Note_off_c, 0, 74, 54
1, 369892, Control_c, 0, 64, 108
1, 369906, Control_c, 0, 64, 107
1, 369921, Control_c, 0, 64, 105
1, 369936, Control_c, 0, 64, 99
1, 369950, Note_on_c, 0, 48, 31
1, 369950, Control_c, 0, 64, 87
1, 369965, Control_c, 0, 64, 73
1, 369975, Note_on_c, 0, 67, 33
1, 369980, Note_on_c, 0, 72, 48
1, 369980, Control_c, 0, 64, 62
1, 369984, Note_on_c, 0, 64, 31
1, 369995, Control_c, 0, 64, 52
1, 370005, Poly_aftertouch_c, 0, 55, 127
1, 370010, Control_c, 0, 64, 48
1, 370024, Control_c, 0, 64, 47
1, 370062, Control_c, 0, 64, 51
1, 370077, Control_c, 0, 64, 59
1, 370092, Control_c, 0, 64, 64
1, 370107, Control_c, 0, 64, 68
1, 370122, Control_c, 0, 64, 73
1, 370131, Poly_aftertouch_c, 0, 55, 0
1, 370136, Control_c, 0, 64, 81
1, 370151, Control_c, 0, 64, 89
1, 370166, Control_c, 0, 64, 99
1, 370181, Control_c, 0, 64, 110
1, 370184, Note_off_c, 0, 64, 40
1, 370191, Note_off_c, 0, 48, 33
1, 370196, Control_c, 0, 64, 127
1, 370252, Note_on_c, 0, 55, 26
1, 370283, Note_off_c, 0, 67, 36
1, 370292, Note_off_c, 0, 55, 49
1, 370370, Note_off_c, 0, 72, 43
1, 370421, Note_on_c, 0, 55, 19
1, 370461, Note_off_c, 0, 55, 52
1, 370575, Note_on_c, 0, 55, 21
1, 370624, Note_off_c, 0, 55, 47
1, 370720, Note_on_c, 0, 55, 36
1, 370777, Note_off_c, 0, 55, 50
1, 370881, Note_on_c, 0, 55, 35
1, 370947, Note_off_c, 0, 55, 49
1, 371036, Note_on_c, 0, 55, 40
1, 371081, Note_off_c, 0, 55, 55
1, 371188, Note_on_c, 0, 55, 41
1, 371230, Note_off_c, 0, 55, 55
1, 371334, Note_on_c, 0, 55, 38
1, 371384, Note_off_c, 0, 55, 47
1, 371491, Note_on_c, 0, 55, 40
1, 371499, Note_on_c, 0, 83, 64
1, 371571, Note_off_c, 0, 55, 47
1, 371642, Note_off_c, 0, 83, 55
1, 371665, Note_on_c, 0, 55, 38
1, 371729, Note_off_c, 0, 55, 47
1, 371798, Note_on_c, 0, 55, 37
1, 371858, Note_off_c, 0, 55, 50
1, 371865, Note_on_c, 0, 84, 65
1, 371935, Note_off_c, 0, 84, 60
1, 371987, Note_on_c, 0, 86, 74
1, 371988, Control_c, 0, 64, 93
1, 371993, Note_on_c, 0, 55, 31
1, 372003, Control_c, 0, 64, 73
1, 372018, Control_c, 0, 64, 62
1, 372032, Control_c, 0, 64, 62
1, 372047, Control_c, 0, 64, 63
1, 372062, Control_c, 0, 64, 64
1, 372077, Control_c, 0, 64, 68
1, 372079, Note_off_c, 0, 55, 36
1, 372092, Control_c, 0, 64, 74
1, 372106, Control_c, 0, 64, 85
1, 372121, Control_c, 0, 64, 100
1, 372136, Control_c, 0, 64, 127
1, 372140, Note_on_c, 0, 55, 34
1, 372160, Note_off_c, 0, 86, 57
1, 372204, Note_off_c, 0, 55, 55
1, 372282, Note_on_c, 0, 55, 50
1, 372347, Note_off_c, 0, 55, 53
1, 372467, Note_on_c, 0, 86, 77
1, 372470, Note_on_c, 0, 80, 56
1, 372473, Note_on_c, 0, 83, 60
1, 372478, Note_on_c, 0, 77, 60
1, 372479, Note_on_c, 0, 55, 30
1, 372500, Control_c, 0, 64, 96
1, 372515, Control_c, 0, 64, 77
1, 372530, Control_c, 0, 64, 67
1, 372545, Control_c, 0, 64, 64
1, 372550, Note_off_c, 0, 55, 50
1, 372559, Control_c, 0, 64, 66
1, 372574, Control_c, 0, 64, 69
1, 372589, Control_c, 0, 64, 75
1, 372604, Control_c, 0, 64, 83
1, 372619, Control_c, 0, 64, 97
1, 372624, Note_off_c, 0, 77, 60
1, 372627, Note_on_c, 0, 55, 41
1, 372634, Control_c, 0, 64, 127
1, 372660, Note_off_c, 0, 80, 40
1, 372683, Note_off_c, 0, 83, 39
1, 372700, Note_off_c, 0, 86, 55
1, 372706, Note_off_c, 0, 55, 49
1, 372765, Note_on_c, 0, 55, 38
1, 372826, Note_off_c, 0, 55, 57
1, 372938, Note_on_c, 0, 86, 71
1, 372941, Note_on_c, 0, 55, 37
1, 372943, Note_on_c, 0, 78, 56
1, 372944, Note_on_c, 0, 81, 57
1, 372949, Note_on_c, 0, 84, 55
1, 372959, Control_c, 0, 64, 88
1, 372974, Control_c, 0, 64, 72
1, 372989, Control_c, 0, 64, 64
1, 372996, Note_off_c, 0, 55, 56
1, 373004, Control_c, 0, 64, 65
1, 373019, Control_c, 0, 64, 68
1, 373033, Control_c, 0, 64, 71
1, 373055, Control_c, 0, 64, 79
1, 373070, Control_c, 0, 64, 90
1, 373085, Control_c, 0, 64, 107
1, 373100, Control_c, 0, 64, 127
1, 373140, Note_on_c, 0, 55, 21
1, 373179, Note_off_c, 0, 55, 52
1, 373207, Note_off_c, 0, 84, 50
1, 373231, Note_off_c, 0, 81, 31
1, 373275, Note_off_c, 0, 78, 27
1, 373283, Note_on_c, 0, 55, 31
1, 373299, Note_off_c, 0, 86, 58
1, 373319, Note_off_c, 0, 55, 52
1, 373450, Note_on_c, 0, 55, 40
1, 373450, Note_on_c, 0, 62, 56
1, 373450, Note_on_c, 0, 84, 65
1, 373458, Note_on_c, 0, 81, 58
1, 373460, Note_on_c, 0, 78, 52
1, 373487, Control_c, 0, 64, 95
1, 373501, Control_c, 0, 64, 77
1, 373511, Note_off_c, 0, 55, 57
1, 373516, Control_c, 0, 64, 66
1, 373531, Control_c, 0, 64, 65
1, 373546, Control_c, 0, 64, 67
1, 373561, Control_c, 0, 64, 69
1, 373576, Control_c, 0, 64, 74
1, 373591, Control_c, 0, 64, 83
1, 373605, Control_c, 0, 64, 97
1, 373615, Note_on_c, 0, 55, 62
1, 373620, Control_c, 0, 64, 113
1, 373635, Control_c, 0, 64, 127
1, 373657, Note_off_c, 0, 55, 58
1, 373740, Note_off_c, 0, 81, 25
1, 373777, Note_off_c, 0, 84, 56
1, 373778, Note_on_c, 0, 55, 42
1, 373817, Note_off_c, 0, 55, 54
1, 373838, Note_on_c, 0, 86, 74
1, 373844, Note_off_c, 0, 78, 28
1, 373944, Note_off_c, 0, 86, 59
1, 374016, Note_on_c, 0, 87, 78
1, 374024, Note_on_c, 0, 55, 41
1, 374027, Control_c, 0, 64, 99
1, 374028, Note_on_c, 0, 60, 56
1, 374028, Note_on_c, 0, 78, 51
1, 374029, Note_on_c, 0, 81, 53
1, 374035, Note_off_c, 0, 62, 55
1, 374043, Control_c, 0, 64, 79
1, 374058, Control_c, 0, 64, 67
1, 374073, Control_c, 0, 64, 61
1, 374088, Control_c, 0, 64, 62
1, 374117, Control_c, 0, 64, 63
1, 374132, Control_c, 0, 64, 66
1, 374144, Note_off_c, 0, 55, 59
1, 374146, Control_c, 0, 64, 70
1, 374161, Control_c, 0, 64, 77
1, 374176, Control_c, 0, 64, 89
1, 374191, Control_c, 0, 64, 99
1, 374206, Control_c, 0, 64, 106
1, 374220, Control_c, 0, 64, 114
1, 374235, Control_c, 0, 64, 127
1, 374259, Note_on_c, 0, 55, 51
1, 374297, Note_off_c, 0, 55, 64
1, 374324, Note_off_c, 0, 87, 58
1, 374413, Note_on_c, 0, 55, 39
1, 374455, Note_off_c, 0, 55, 60
1, 374567, Note_on_c, 0, 55, 45
1, 374602, Note_off_c, 0, 55, 56
1, 374700, Note_on_c, 0, 55, 49
1, 374733, Note_off_c, 0, 55, 58
1, 374780, Note_off_c, 0, 60, 63
1, 374790, Note_on_c, 0, 86, 76
1, 374807, Note_on_c, 0, 62, 63
1, 374822, Note_on_c, 0, 55, 53
1, 374866, Note_off_c, 0, 55, 60
1, 374959, Note_off_c, 0, 86, 59
1, 374988, Note_on_c, 0, 55, 41
1, 375014, Control_c, 0, 64, 123
1, 375016, Note_on_c, 0, 63, 66
1, 375027, Note_on_c, 0, 84, 81
1, 375029, Control_c, 0, 64, 85
1, 375032, Note_off_c, 0, 62, 57
1, 375043, Control_c, 0, 64, 68
1, 375058, Control_c, 0, 64, 61
1, 375073, Control_c, 0, 64, 63
1, 375077, Note_off_c, 0, 55, 60
1, 375088, Control_c, 0, 64, 64
1, 375103, Control_c, 0, 64, 68
1, 375117, Control_c, 0, 64, 77
1, 375127, Note_off_c, 0, 78, 43
1, 375132, Note_off_c, 0, 81, 55
1, 375132, Control_c, 0, 64, 93
1, 375147, Control_c, 0, 64, 127
1, 375162, Note_off_c, 0, 84, 60
1, 375197, Note_on_c, 0, 55, 61
1, 375239, Note_off_c, 0, 55, 62
1, 375285, Note_off_c, 0, 63, 51
1, 375348, Note_on_c, 0, 55, 57
1, 375439, Note_off_c, 0, 55, 51
1, 375487, Note_on_c, 0, 55, 50
1, 375495, Control_c, 0, 64, 112
1, 375496, Note_on_c, 0, 66, 69
1, 375496, Note_on_c, 0, 86, 86
1, 375501, Note_on_c, 0, 81, 66
1, 375505, Note_on_c, 0, 74, 65
1, 375510, Control_c, 0, 64, 85
1, 375524, Control_c, 0, 64, 69
1, 375539, Control_c, 0, 64, 62
1, 375554, Control_c, 0, 64, 63
1, 375556, Note_off_c, 0, 55, 60
1, 375568, Control_c, 0, 64, 65
1, 375583, Control_c, 0, 64, 67
1, 375598, Control_c, 0, 64, 72
1, 375603, Note_off_c, 0, 81, 63
1, 375613, Control_c, 0, 64, 82
1, 375628, Control_c, 0, 64, 99
1, 375644, Control_c, 0, 64, 123
1, 375651, Note_off_c, 0, 74, 55
1, 375658, Note_on_c, 0, 55, 63
1, 375659, Control_c, 0, 64, 127
1, 375661, Note_off_c, 0, 86, 57
1, 375693, Note_off_c, 0, 55, 62
1, 375780, Note_on_c, 0, 55, 58
1, 375815, Note_off_c, 0, 55, 62
1, 375856, Note_off_c, 0, 66, 58
1, 375867, Note_on_c, 0, 84, 81
1, 375943, Note_off_c, 0, 84, 61
1, 375955, Control_c, 0, 64, 107
1, 375961, Note_on_c, 0, 83, 76
1, 375964, Note_on_c, 0, 67, 60
1, 375968, Note_on_c, 0, 55, 55
1, 375969, Note_on_c, 0, 74, 60
1, 375970, Note_on_c, 0, 79, 61
1, 375970, Control_c, 0, 64, 87
1, 375984, Control_c, 0, 64, 71
1, 375999, Control_c, 0, 64, 62
1, 376008, Note_off_c, 0, 55, 59
1, 376014, Control_c, 0, 64, 57
1, 376029, Control_c, 0, 64, 59
1, 376051, Control_c, 0, 64, 62
1, 376065, Control_c, 0, 64, 65
1, 376080, Control_c, 0, 64, 70
1, 376095, Control_c, 0, 64, 79
1, 376110, Control_c, 0, 64, 89
1, 376125, Control_c, 0, 64, 97
1, 376140, Note_on_c, 0, 55, 57
1, 376140, Control_c, 0, 64, 99
1, 376154, Control_c, 0, 64, 102
1, 376169, Control_c, 0, 64, 104
1, 376179, Note_off_c, 0, 55, 62
1, 376181, Note_off_c, 0, 74, 51
1, 376184, Control_c, 0, 64, 104
1, 376217, Note_off_c, 0, 79, 42
1, 376259, Control_c, 0, 64, 105
1, 376273, Control_c, 0, 64, 106
1, 376276, Note_on_c, 0, 55, 48
1, 376288, Control_c, 0, 64, 106
1, 376300, Note_off_c, 0, 67, 41
1, 376303, Control_c, 0, 64, 107
1, 376315, Note_off_c, 0, 55, 58
1, 376331, Note_off_c, 0, 83, 35
1, 376332, Control_c, 0, 64, 107
1, 376347, Control_c, 0, 64, 109
1, 376362, Control_c, 0, 64, 113
1, 376377, Control_c, 0, 64, 118
1, 376391, Control_c, 0, 64, 119
1, 376406, Control_c, 0, 64, 111
1, 376415, Note_on_c, 0, 81, 66
1, 376420, Note_on_c, 0, 79, 59
1, 376421, Note_on_c, 0, 74, 54
1, 376421, Control_c, 0, 64, 99
1, 376423, Note_on_c, 0, 55, 45
1, 376426, Note_on_c, 0, 65, 57
1, 376436, Control_c, 0, 64, 83
1, 376452, Control_c, 0, 64, 71
1, 376466, Note_off_c, 0, 55, 51
1, 376467, Control_c, 0, 64, 64
1, 376482, Control_c, 0, 64, 63
1, 376496, Control_c, 0, 64, 65
1, 376511, Control_c, 0, 64, 68
1, 376526, Control_c, 0, 64, 72
1, 376541, Control_c, 0, 64, 78
1, 376556, Control_c, 0, 64, 86
1, 376570, Control_c, 0, 64, 93
1, 376578, Note_on_c, 0, 55, 50
1, 376585, Control_c, 0, 64, 98
1, 376600, Control_c, 0, 64, 102
1, 376614, Control_c, 0, 64, 105
1, 376629, Control_c, 0, 64, 108
1, 376631, Note_off_c, 0, 55, 58
1, 376644, Control_c, 0, 64, 111
1, 376659, Control_c, 0, 64, 113
1, 376674, Control_c, 0, 64, 113
1, 376688, Note_off_c, 0, 79, 40
1, 376706, Note_off_c, 0, 74, 33
1, 376717, Note_off_c, 0, 81, 34
1, 376728, Note_on_c, 0, 55, 47
1, 376744, Note_off_c, 0, 65, 40
1, 376761, Note_off_c, 0, 55, 59
1, 376768, Note_on_c, 0, 83, 67
1, 376777, Control_c, 0, 64, 114
1, 376829, Control_c, 0, 64, 110
1, 376834, Note_off_c, 0, 83, 58
1, 376844, Control_c, 0, 64, 100
1, 376859, Control_c, 0, 64, 84
1, 376874, Control_c, 0, 64, 69
1, 376885, Note_on_c, 0, 55, 43
1, 376889, Control_c, 0, 64, 62
1, 376893, Note_on_c, 0, 63, 49
1, 376893, Note_on_c, 0, 84, 62
1, 376904, Control_c, 0, 64, 63
1, 376906, Note_on_c, 0, 72, 44
1, 376906, Note_on_c, 0, 79, 50
1, 376919, Control_c, 0, 64, 65
1, 376933, Note_off_c, 0, 55, 60
1, 376934, Control_c, 0, 64, 67
1, 376949, Control_c, 0, 64, 71
1, 376963, Control_c, 0, 64, 80
1, 376970, Note_off_c, 0, 72, 39
1, 376978, Control_c, 0, 64, 90
1, 376983, Note_off_c, 0, 79, 44
1, 376993, Control_c, 0, 64, 98
1, 377008, Control_c, 0, 64, 102
1, 377022, Control_c, 0, 64, 105
1, 377037, Control_c, 0, 64, 108
1, 377040, Note_off_c, 0, 84, 65
1, 377046, Note_on_c, 0, 55, 48
1, 377052, Control_c, 0, 64, 111
1, 377067, Control_c, 0, 64, 111
1, 377093, Note_off_c, 0, 55, 59
1, 377201, Note_on_c, 0, 55, 43
1, 377242, Note_off_c, 0, 55, 52
1, 377332, Note_off_c, 0, 63, 38
1, 377335, Control_c, 0, 64, 107
1, 377350, Control_c, 0, 64, 98
1, 377356, Note_on_c, 0, 86, 59
1, 377358, Note_on_c, 0, 79, 50
1, 377361, Note_on_c, 0, 83, 50
1, 377365, Note_on_c, 0, 60, 50
1, 377365, Control_c, 0, 64, 83
1, 377367, Note_on_c, 0, 55, 38
1, 377380, Control_c, 0, 64, 71
1, 377394, Control_c, 0, 64, 65
1, 377403, Note_off_c, 0, 55, 52
1, 377409, Control_c, 0, 64, 65
1, 377424, Control_c, 0, 64, 67
1, 377438, Control_c, 0, 64, 69
1, 377453, Control_c, 0, 64, 74
1, 377468, Control_c, 0, 64, 81
1, 377483, Control_c, 0, 64, 88
1, 377498, Control_c, 0, 64, 92
1, 377512, Control_c, 0, 64, 93
1, 377520, Note_on_c, 0, 55, 40
1, 377527, Control_c, 0, 64, 94
1, 377550, Control_c, 0, 64, 96
1, 377564, Control_c, 0, 64, 99
1, 377578, Note_off_c, 0, 55, 59
1, 377579, Control_c, 0, 64, 99
1, 377598, Note_off_c, 0, 83, 36
1, 377602, Note_off_c, 0, 86, 36
1, 377624, Control_c, 0, 64, 102
1, 377639, Control_c, 0, 64, 104
1, 377651, Note_off_c, 0, 79, 38
1, 377653, Control_c, 0, 64, 106
1, 377668, Control_c, 0, 64, 106
1, 377697, Note_on_c, 0, 55, 32
1, 377752, Note_off_c, 0, 55, 43
1, 377771, Control_c, 0, 64, 107
1, 377773, Note_off_c, 0, 60, 40
1, 377774, Note_on_c, 0, 87, 57
1, 377779, Note_on_c, 0, 84, 51
1, 377818, Note_off_c, 0, 84, 61
1, 377863, Note_off_c, 0, 87, 53
1, 377949, Control_c, 0, 64, 106
1, 377964, Control_c, 0, 64, 100
1, 377967, Note_on_c, 0, 55, 39
1, 377969, Note_on_c, 0, 86, 51
1, 377975, Note_on_c, 0, 83, 40
1, 377976, Note_on_c, 0, 79, 42
1, 377977, Note_on_c, 0, 67, 40
1, 377979, Control_c, 0, 64, 88
1, 377994, Control_c, 0, 64, 75
1, 378009, Control_c, 0, 64, 66
1, 378023, Control_c, 0, 64, 62
1, 378039, Control_c, 0, 64, 63
1, 378047, Note_off_c, 0, 55, 50
1, 378054, Control_c, 0, 64, 64
1, 378068, Control_c, 0, 64, 65
1, 378083, Control_c, 0, 64, 69
1, 378098, Control_c, 0, 64, 76
1, 378113, Control_c, 0, 64, 84
1, 378128, Control_c, 0, 64, 92
1, 378143, Control_c, 0, 64, 98
1, 378157, Note_on_c, 0, 55, 43
1, 378158, Control_c, 0, 64, 102
1, 378173, Control_c, 0, 64, 110
1, 378187, Control_c, 0, 64, 119
1, 378202, Control_c, 0, 64, 127
1, 378217, Note_off_c, 0, 55, 56
1, 378328, Note_on_c, 0, 55, 39
1, 378369, Note_off_c, 0, 55, 51
1, 378418, Note_off_c, 0, 67, 31
1, 378463, Note_on_c, 0, 55, 40
1, 378515, Note_off_c, 0, 55, 55
1, 378615, Note_on_c, 0, 55, 55
1, 378664, Note_off_c, 0, 55, 57
1, 378752, Note_off_c, 0, 86, 41
1, 378755, Note_off_c, 0, 83, 41
1, 378763, Note_off_c, 0, 79, 43
1, 378771, Note_on_c, 0, 55, 46
1, 378806, Note_off_c, 0, 55, 60
1, 378912, Note_on_c, 0, 55, 44
1, 379010, Control_c, 0, 64, 100
1, 379025, Control_c, 0, 64, 83
1, 379047, Control_c, 0, 64, 74
1, 379062, Control_c, 0, 64, 73
1, 379068, Note_on_c, 0, 56, 62
1, 379077, Control_c, 0, 64, 76
1, 379091, Control_c, 0, 64, 79
1, 379103, Note_off_c, 0, 55, 47
1, 379106, Control_c, 0, 64, 85
1, 379121, Control_c, 0, 64, 93
1, 379135, Control_c, 0, 64, 103
1, 379150, Control_c, 0, 64, 111
1, 379165, Control_c, 0, 64, 114
1, 379191, Note_off_c, 0, 56, 50
1, 379195, Control_c, 0, 64, 115
1, 379204, Note_on_c, 0, 57, 73
1, 379210, Control_c, 0, 64, 116
1, 379224, Control_c, 0, 64, 117
1, 379239, Control_c, 0, 64, 118
1, 379254, Control_c, 0, 64, 121
1, 379269, Control_c, 0, 64, 123
1, 379284, Control_c, 0, 64, 127
1, 379347, Note_off_c, 0, 57, 56
1, 379351, Note_on_c, 0, 58, 68
1, 379356, Note_on_c, 0, 74, 81
1, 379387, Control_c, 0, 64, 118
1, 379402, Control_c, 0, 64, 104
1, 379416, Control_c, 0, 64, 89
1, 379431, Control_c, 0, 64, 76
1, 379446, Control_c, 0, 64, 68
1, 379449, Note_off_c, 0, 58, 62
1, 379461, Control_c, 0, 64, 67
1, 379476, Control_c, 0, 64, 70
1, 379490, Control_c, 0, 64, 74
1, 379498, Note_on_c, 0, 58, 63
1, 379505, Control_c, 0, 64, 81
1, 379520, Note_off_c, 0, 74, 62
1, 379520, Control_c, 0, 64, 90
1, 379535, Control_c, 0, 64, 101
1, 379550, Control_c, 0, 64, 107
1, 379565, Control_c, 0, 64, 111
1, 379572, Note_off_c, 0, 58, 61
1, 379579, Control_c, 0, 64, 111
1, 379594, Control_c, 0, 64, 112
1, 379609, Control_c, 0, 64, 113
1, 379624, Control_c, 0, 64, 114
1, 379639, Control_c, 0, 64, 115
1, 379647, Note_on_c, 0, 58, 71
1, 379696, Note_off_c, 0, 58, 59
1, 379714, Note_on_c, 0, 75, 81
1, 379773, Control_c, 0, 64, 116
1, 379795, Control_c, 0, 64, 117
1, 379869, Control_c, 0, 64, 116
1, 379881, Note_off_c, 0, 75, 55
1, 379884, Control_c, 0, 64, 113
1, 379899, Control_c, 0, 64, 107
1, 379907, Note_on_c, 0, 58, 53
1, 379910, Note_on_c, 0, 77, 72
1, 379913, Control_c, 0, 64, 97
1, 379928, Control_c, 0, 64, 82
1, 379943, Control_c, 0, 64, 68
1, 379958, Control_c, 0, 64, 61
1, 379973, Control_c, 0, 64, 58
1, 379988, Control_c, 0, 64, 59
1, 380003, Control_c, 0, 64, 60
1, 380018, Control_c, 0, 64, 64
1, 380019, Note_off_c, 0, 58, 54
1, 380033, Control_c, 0, 64, 69
1, 380047, Control_c, 0, 64, 75
1, 380062, Control_c, 0, 64, 83
1, 380077, Control_c, 0, 64, 90
1, 380092, Control_c, 0, 64, 94
1, 380103, Note_off_c, 0, 77, 62
1, 380107, Control_c, 0, 64, 97
1, 380121, Control_c, 0, 64, 103
1, 380136, Control_c, 0, 64, 113
1, 380150, Note_on_c, 0, 58, 51
1, 380151, Control_c, 0, 64, 127
1, 380182, Note_off_c, 0, 58, 61
1, 380466, Note_on_c, 0, 58, 49
1, 380466, Note_on_c, 0, 77, 68
1, 380469, Note_on_c, 0, 68, 56
1, 380471, Note_on_c, 0, 65, 54
1, 380472, Note_on_c, 0, 74, 61
1, 380483, Note_on_c, 0, 71, 54
1, 380499, Note_off_c, 0, 58, 60
1, 380507, Control_c, 0, 64, 89
1, 380515, Note_off_c, 0, 65, 54
1, 380522, Control_c, 0, 64, 73
1, 380544, Control_c, 0, 64, 70
1, 380559, Control_c, 0, 64, 75
1, 380574, Control_c, 0, 64, 82
1, 380589, Control_c, 0, 64, 95
1, 380604, Control_c, 0, 64, 127
1, 380609, Note_on_c, 0, 58, 59
1, 380639, Note_on_c, 0, 65, 43
1, 380654, Note_off_c, 0, 58, 59
1, 380665, Note_off_c, 0, 71, 57
1, 380668, Note_off_c, 0, 65, 53
1, 380675, Note_off_c, 0, 74, 51
1, 380683, Note_off_c, 0, 68, 36
1, 380734, Note_off_c, 0, 77, 50
1, 380765, Note_on_c, 0, 65, 55
1, 380779, Note_on_c, 0, 58, 57
1, 380827, Note_off_c, 0, 65, 57
1, 380830, Note_off_c, 0, 58, 57
1, 380915, Control_c, 0, 64, 116
1, 380924, Note_on_c, 0, 77, 79
1, 380930, Control_c, 0, 64, 85
1, 380932, Note_on_c, 0, 70, 61
1, 380933, Note_on_c, 0, 68, 59
1, 380935, Note_on_c, 0, 58, 54
1, 380945, Control_c, 0, 64, 69
1, 380945, Note_on_c, 0, 62, 48
1, 380960, Control_c, 0, 64, 63
1, 380975, Control_c, 0, 64, 65
1, 380989, Control_c, 0, 64, 67
1, 380992, Note_off_c, 0, 58, 54
1, 381000, Note_off_c, 0, 62, 57
1, 381004, Control_c, 0, 64, 70
1, 381009, Note_off_c, 0, 70, 63
1, 381019, Control_c, 0, 64, 77
1, 381028, Note_off_c, 0, 68, 57
1, 381034, Control_c, 0, 64, 87
1, 381049, Control_c, 0, 64, 99
1, 381063, Control_c, 0, 64, 107
1, 381078, Control_c, 0, 64, 108
1, 381093, Control_c, 0, 64, 108
1, 381095, Note_on_c, 0, 62, 57
1, 381100, Note_on_c, 0, 58, 50
1, 381131, Note_off_c, 0, 62, 63
1, 381141, Note_off_c, 0, 58, 62
1, 381166, Note_off_c, 0, 77, 50
1, 381226, Control_c, 0, 64, 109
1, 381227, Note_on_c, 0, 75, 67
1, 381242, Control_c, 0, 64, 110
1, 381252, Note_on_c, 0, 58, 43
1, 381252, Note_on_c, 0, 68, 43
1, 381253, Note_on_c, 0, 70, 51
1, 381257, Control_c, 0, 64, 111
1, 381262, Note_on_c, 0, 62, 35
1, 381272, Control_c, 0, 64, 113
1, 381288, Note_off_c, 0, 75, 56
1, 381294, Control_c, 0, 64, 117
1, 381297, Note_off_c, 0, 58, 56
1, 381308, Note_on_c, 0, 77, 78
1, 381308, Control_c, 0, 64, 121
1, 381312, Note_off_c, 0, 62, 49
1, 381338, Control_c, 0, 64, 109
1, 381353, Control_c, 0, 64, 92
1, 381368, Control_c, 0, 64, 74
1, 381381, Control_c, 0, 64, 63
1, 381389, Note_on_c, 0, 75, 78
1, 381396, Control_c, 0, 64, 60
1, 381398, Note_on_c, 0, 58, 58
1, 381410, Note_off_c, 0, 77, 63
1, 381410, Control_c, 0, 64, 63
1, 381425, Control_c, 0, 64, 65
1, 381440, Control_c, 0, 64, 70
1, 381445, Note_off_c, 0, 58, 60
1, 381455, Control_c, 0, 64, 78
1, 381470, Control_c, 0, 64, 91
1, 381484, Control_c, 0, 64, 102
1, 381499, Control_c, 0, 64, 104
1, 381514, Control_c, 0, 64, 104
1, 381529, Control_c, 0, 64, 106
1, 381534, Note_off_c, 0, 70, 32
1, 381544, Control_c, 0, 64, 107
1, 381547, Note_on_c, 0, 58, 58
1, 381559, Control_c, 0, 64, 107
1, 381566, Note_off_c, 0, 75, 59
1, 381587, Note_off_c, 0, 58, 62
1, 381589, Control_c, 0, 64, 108
1, 381618, Control_c, 0, 64, 108
1, 381650, Note_off_c, 0, 68, 37
1, 381693, Note_on_c, 0, 58, 57
1, 381750, Note_off_c, 0, 58, 61
1, 381782, Note_on_c, 0, 74, 66
1, 381876, Note_off_c, 0, 74, 57
1, 381995, Note_on_c, 0, 79, 69
1, 382000, Note_on_c, 0, 63, 46
1, 382008, Note_on_c, 0, 70, 50
1, 382011, Note_on_c, 0, 67, 46
1, 382018, Control_c, 0, 64, 104
1, 382041, Control_c, 0, 64, 95
1, 382056, Control_c, 0, 64, 83
1, 382071, Control_c, 0, 64, 71
1, 382086, Control_c, 0, 64, 64
1, 382101, Control_c, 0, 64, 63
1, 382115, Control_c, 0, 64, 64
1, 382130, Control_c, 0, 64, 65
1, 382140, Note_off_c, 0, 63, 47
1, 382145, Control_c, 0, 64, 67
1, 382160, Control_c, 0, 64, 69
1, 382175, Control_c, 0, 64, 74
1, 382189, Control_c, 0, 64, 80
1, 382204, Control_c, 0, 64, 87
1, 382219, Control_c, 0, 64, 93
1, 382233, Control_c, 0, 64, 100
1, 382248, Control_c, 0, 64, 108
1, 382254, Note_off_c, 0, 67, 33
1, 382263, Control_c, 0, 64, 123
1, 382272, Note_off_c, 0, 70, 47
1, 382278, Control_c, 0, 64, 127
1, 382283, Note_on_c, 0, 63, 39
1, 382316, Note_off_c, 0, 63, 52
1, 382396, Note_off_c, 0, 79, 30
1, 382425, Note_on_c, 0, 63, 45
1, 382483, Note_off_c, 0, 63, 52
1, 382557, Note_on_c, 0, 74, 57
1, 382565, Note_on_c, 0, 68, 49
1, 382575, Note_on_c, 0, 59, 41
1, 382575, Control_c, 0, 64, 97
1, 382577, Note_on_c, 0, 65, 44
1, 382590, Control_c, 0, 64, 78
1, 382597, Note_on_c, 0, 62, 32
1, 382605, Control_c, 0, 64, 66
1, 382620, Control_c, 0, 64, 61
1, 382634, Control_c, 0, 64, 62
1, 382637, Note_off_c, 0, 65, 55
1, 382641, Note_off_c, 0, 59, 52
1, 382646, Note_off_c, 0, 62, 46
1, 382649, Control_c, 0, 64, 64
1, 382664, Control_c, 0, 64, 66
1, 382679, Control_c, 0, 64, 70
1, 382694, Control_c, 0, 64, 75
1, 382708, Control_c, 0, 64, 81
1, 382723, Control_c, 0, 64, 86
1, 382726, Note_on_c, 0, 65, 44
1, 382734, Note_on_c, 0, 62, 54
1, 382738, Control_c, 0, 64, 91
1, 382739, Note_on_c, 0, 59, 25
1, 382753, Control_c, 0, 64, 94
1, 382768, Control_c, 0, 64, 97
1, 382775, Note_off_c, 0, 68, 45
1, 382790, Control_c, 0, 64, 98
1, 382791, Note_off_c, 0, 62, 56
1, 382797, Note_off_c, 0, 65, 53
1, 382805, Control_c, 0, 64, 99
1, 382809, Note_off_c, 0, 59, 42
1, 382820, Control_c, 0, 64, 100
1, 382832, Note_on_c, 0, 77, 71
1, 382832, Note_off_c, 0, 74, 23
1, 382835, Control_c, 0, 64, 102
1, 382850, Control_c, 0, 64, 104
1, 382864, Control_c, 0, 64, 106
1, 382879, Control_c, 0, 64, 108
1, 382894, Control_c, 0, 64, 110
1, 382909, Control_c, 0, 64, 113
1, 382914, Note_on_c, 0, 59, 43
1, 382924, Control_c, 0, 64, 118
1, 382939, Control_c, 0, 64, 127
1, 382991, Poly_aftertouch_c, 0, 62, 0
1, 383013, Control_c, 0, 64, 107
1, 383023, Poly_aftertouch_c, 0, 62, 0
1, 383028, Control_c, 0, 64, 83
1, 383029, Note_off_c, 0, 77, 48
1, 383035, Note_off_c, 0, 59, 30
1, 383043, Control_c, 0, 64, 67
1, 383043, Note_on_c, 0, 75, 70
1, 383055, Note_on_c, 0, 67, 52
1, 383057, Control_c, 0, 64, 62
1, 383070, Note_on_c, 0, 63, 39
1, 383072, Control_c, 0, 64, 65
1, 383075, Note_on_c, 0, 60, 43
1, 383087, Control_c, 0, 64, 67
1, 383102, Control_c, 0, 64, 71
1, 383114, Note_off_c, 0, 63, 52
1, 383116, Note_off_c, 0, 60, 60
1, 383117, Control_c, 0, 64, 78
1, 383131, Control_c, 0, 64, 87
1, 383146, Control_c, 0, 64, 98
1, 383161, Control_c, 0, 64, 104
1, 383172, Note_off_c, 0, 75, 63
1, 383174, Note_off_c, 0, 67, 60
1, 383176, Control_c, 0, 64, 104
1, 383205, Control_c, 0, 64, 105
1, 383212, Note_on_c, 0, 63, 57
1, 383220, Control_c, 0, 64, 106
1, 383224, Note_on_c, 0, 60, 41
1, 383235, Control_c, 0, 64, 107
1, 383249, Note_off_c, 0, 60, 57
1, 383250, Note_off_c, 0, 63, 59
1, 383250, Control_c, 0, 64, 107
1, 383336, Note_on_c, 0, 63, 55
1, 383338, Note_on_c, 0, 60, 51
1, 383366, Note_off_c, 0, 63, 65
1, 383368, Control_c, 0, 64, 108
1, 383369, Note_off_c, 0, 60, 65
1, 383383, Control_c, 0, 64, 109
1, 383398, Control_c, 0, 64, 110
1, 383413, Control_c, 0, 64, 112
1, 383428, Control_c, 0, 64, 115
1, 383443, Control_c, 0, 64, 116
1, 383472, Control_c, 0, 64, 113
1, 383487, Control_c, 0, 64, 97
1, 383502, Control_c, 0, 64, 79
1, 383508, Note_on_c, 0, 74, 74
1, 383517, Control_c, 0, 64, 67
1, 383518, Note_on_c, 0, 65, 59
1, 383533, Note_on_c, 0, 68, 60
1, 383538, Control_c, 0, 64, 62
1, 383547, Note_on_c, 0, 56, 51
1, 383553, Control_c, 0, 64, 62
1, 383568, Control_c, 0, 64, 64
1, 383583, Control_c, 0, 64, 67
1, 383598, Control_c, 0, 64, 73
1, 383613, Control_c, 0, 64, 83
1, 383628, Control_c, 0, 64, 99
1, 383634, Note_off_c, 0, 74, 62
1, 383638, Note_off_c, 0, 56, 0
1, 383643, Control_c, 0, 64, 112
1, 383655, Note_off_c, 0, 65, 62
1, 383658, Control_c, 0, 64, 115
1, 383669, Note_on_c, 0, 53, 48
1, 383675, Poly_aftertouch_c, 0, 56, 127
1, 383712, Note_off_c, 0, 53, 64
1, 383714, Poly_aftertouch_c, 0, 56, 0
1, 383732, Control_c, 0, 64, 113
1, 383747, Control_c, 0, 64, 113
1, 383762, Control_c, 0, 64, 112
1, 383773, Note_off_c, 0, 68, 38
1, 383827, Note_on_c, 0, 53, 47
1, 383828, Note_on_c, 0, 56, 43
1, 383857, Note_off_c, 0, 56, 61
1, 383863, Note_off_c, 0, 53, 64
1, 383866, Control_c, 0, 64, 113
1, 383874, Note_on_c, 0, 72, 74
1, 383880, Control_c, 0, 64, 116
1, 383884, Note_on_c, 0, 63, 59
1, 383895, Control_c, 0, 64, 123
1, 383910, Control_c, 0, 64, 127
1, 383927, Note_off_c, 0, 63, 59
1, 383940, Note_off_c, 0, 72, 61
1, 383954, Control_c, 0, 64, 118
1, 383969, Control_c, 0, 64, 101
1, 383984, Control_c, 0, 64, 83
1, 383988, Note_on_c, 0, 71, 68
1, 383992, Note_on_c, 0, 67, 54
1, 383995, Note_on_c, 0, 55, 52
1, 383997, Note_on_c, 0, 62, 56
1, 383999, Control_c, 0, 64, 69
1, 384014, Control_c, 0, 64, 61
1, 384028, Control_c, 0, 64, 59
1, 384043, Control_c, 0, 64, 60
1, 384058, Control_c, 0, 64, 63
1, 384073, Control_c, 0, 64, 66
1, 384087, Control_c, 0, 64, 71
1, 384102, Control_c, 0, 64, 78
1, 384103, Note_off_c, 0, 55, 50
1, 384117, Control_c, 0, 64, 86
1, 384132, Control_c, 0, 64, 91
1, 384147, Control_c, 0, 64, 93
1, 384161, Control_c, 0, 64, 93
1, 384174, Note_off_c, 0, 67, 51
1, 384176, Control_c, 0, 64, 94
1, 384191, Control_c, 0, 64, 94
1, 384198, Note_on_c, 0, 55, 28
1, 384201, Note_off_c, 0, 62, 38
1, 384236, Control_c, 0, 64, 95
1, 384257, Note_off_c, 0, 55, 45
1, 384317, Control_c, 0, 64, 95
1, 384332, Control_c, 0, 64, 96
1, 384347, Control_c, 0, 64, 97
1, 384354, Note_on_c, 0, 55, 45
1, 384361, Control_c, 0, 64, 98
1, 384377, Control_c, 0, 64, 100
1, 384392, Control_c, 0, 64, 102
1, 384396, Note_off_c, 0, 55, 58
1, 384406, Control_c, 0, 64, 103
1, 384431, Note_off_c, 0, 71, 38
1, 384452, Control_c, 0, 64, 100
1, 384467, Control_c, 0, 64, 93
1, 384482, Control_c, 0, 64, 81
1, 384490, Note_on_c, 0, 69, 64
1, 384495, Note_on_c, 0, 53, 56
1, 384495, Note_on_c, 0, 67, 58
1, 384497, Control_c, 0, 64, 70
1, 384501, Note_on_c, 0, 62, 52
1, 384510, Note_on_c, 0, 55, 41
1, 384511, Control_c, 0, 64, 64
1, 384526, Control_c, 0, 64, 65
1, 384541, Control_c, 0, 64, 67
1, 384555, Note_off_c, 0, 53, 50
1, 384556, Control_c, 0, 64, 70
1, 384558, Note_off_c, 0, 55, 58
1, 384571, Control_c, 0, 64, 74
1, 384585, Control_c, 0, 64, 81
1, 384600, Control_c, 0, 64, 90
1, 384615, Control_c, 0, 64, 94
1, 384630, Control_c, 0, 64, 97
1, 384645, Control_c, 0, 64, 99
1, 384653, Note_on_c, 0, 55, 61
1, 384659, Control_c, 0, 64, 100
1, 384674, Control_c, 0, 64, 102
1, 384689, Control_c, 0, 64, 105
1, 384703, Note_off_c, 0, 55, 54
1, 384704, Control_c, 0, 64, 105
1, 384719, Control_c, 0, 64, 106
1, 384728, Note_off_c, 0, 67, 26
1, 384733, Control_c, 0, 64, 106
1, 384741, Note_off_c, 0, 62, 33
1, 384748, Control_c, 0, 64, 107
1, 384757, Note_off_c, 0, 69, 27
1, 384778, Control_c, 0, 64, 108
1, 384792, Note_on_c, 0, 55, 53
1, 384793, Control_c, 0, 64, 110
1, 384808, Control_c, 0, 64, 111
1, 384823, Control_c, 0, 64, 112
1, 384829, Note_off_c, 0, 55, 63
1, 384832, Note_on_c, 0, 71, 75
1, 384837, Control_c, 0, 64, 113
1, 384852, Control_c, 0, 64, 114
1, 384867, Control_c, 0, 64, 121
1, 384882, Control_c, 0, 64, 127
1, 384903, Note_off_c, 0, 71, 55
1, 384926, Control_c, 0, 64, 117
1, 384939, Note_on_c, 0, 72, 83
1, 384941, Control_c, 0, 64, 94
1, 384948, Note_on_c, 0, 60, 73
1, 384953, Note_on_c, 0, 51, 69
1, 384954, Note_on_c, 0, 67, 69
1, 384956, Note_on_c, 0, 55, 41
1, 384956, Control_c, 0, 64, 75
1, 384971, Control_c, 0, 64, 64
1, 384991, Note_off_c, 0, 55, 50
1, 385000, Control_c, 0, 64, 67
1, 385002, Note_off_c, 0, 51, 57
1, 385015, Control_c, 0, 64, 70
1, 385037, Control_c, 0, 64, 77
1, 385052, Control_c, 0, 64, 88
1, 385055, Note_off_c, 0, 60, 58
1, 385067, Control_c, 0, 64, 104
1, 385082, Control_c, 0, 64, 114
1, 385097, Note_off_c, 0, 67, 62
1, 385097, Control_c, 0, 64, 117
1, 385106, Note_off_c, 0, 72, 62
1, 385111, Control_c, 0, 64, 121
1, 385126, Control_c, 0, 64, 127
1, 385128, Note_on_c, 0, 55, 60
1, 385168, Note_off_c, 0, 55, 63
1, 385246, Note_on_c, 0, 55, 70
1, 385313, Note_off_c, 0, 55, 59
1, 385405, Note_on_c, 0, 77, 91
1, 385409, Note_on_c, 0, 67, 79
1, 385410, Note_on_c, 0, 74, 76
1, 385412, Note_on_c, 0, 55, 64
1, 385423, Control_c, 0, 64, 94
1, 385430, Note_on_c, 0, 48, 48
1, 385438, Control_c, 0, 64, 72
1, 385452, Control_c, 0, 64, 65
1, 385467, Control_c, 0, 64, 65
1, 385482, Control_c, 0, 64, 68
1, 385497, Control_c, 0, 64, 72
1, 385512, Control_c, 0, 64, 79
1, 385517, Note_off_c, 0, 55, 59
1, 385526, Control_c, 0, 64, 94
1, 385534, Note_off_c, 0, 74, 60
1, 385535, Note_off_c, 0, 48, 60
1, 385541, Control_c, 0, 64, 113
1, 385556, Control_c, 0, 64, 127
1, 385613, Note_on_c, 0, 55, 63
1, 385641, Note_off_c, 0, 67, 53
1, 385648, Note_off_c, 0, 55, 63
1, 385730, Note_off_c, 0, 77, 57
1, 385739, Note_on_c, 0, 55, 61
1, 385802, Note_on_c, 0, 75, 79
1, 385807, Note_on_c, 0, 72, 71
1, 385856, Note_off_c, 0, 72, 59
1, 385904, Note_off_c, 0, 75, 60
1, 385927, Note_off_c, 0, 55, 0
1, 385948, Note_on_c, 0, 55, 27
1, 385959, Note_on_c, 0, 43, 54
1, 385963, Control_c, 0, 64, 97
1, 385978, Control_c, 0, 64, 77
1, 385980, Note_on_c, 0, 74, 78
1, 385985, Note_on_c, 0, 71, 71
1, 385987, Note_on_c, 0, 67, 64
1, 385993, Control_c, 0, 64, 61
1, 386007, Control_c, 0, 64, 30
1, 386022, Control_c, 0, 64, 0
1, 386097, Control_c, 0, 64, 31
1, 386112, Control_c, 0, 64, 59
1, 386127, Control_c, 0, 64, 64
1, 386142, Control_c, 0, 64, 67
1, 386156, Control_c, 0, 64, 73
1, 386163, Note_off_c, 0, 55, 0
1, 386171, Control_c, 0, 64, 86
1, 386182, Note_on_c, 0, 55, 35
1, 386186, Control_c, 0, 64, 127
1, 386248, Note_off_c, 0, 55, 63
1, 386346, Note_off_c, 0, 74, 46
1, 386361, Note_on_c, 0, 55, 38
1, 386397, Note_off_c, 0, 55, 54
1, 386415, Note_off_c, 0, 43, 23
1, 386420, Note_off_c, 0, 67, 34
1, 386433, Note_off_c, 0, 71, 35
1, 386498, Note_on_c, 0, 55, 55
1, 386544, Note_off_c, 0, 55, 62
1, 386654, Note_on_c, 0, 55, 45
1, 386704, Note_off_c, 0, 55, 54
1, 386819, Note_on_c, 0, 55, 62
1, 386867, Note_off_c, 0, 55, 59
1, 386966, Note_on_c, 0, 55, 73
1, 387029, Note_off_c, 0, 55, 61
1, 387121, Note_on_c, 0, 55, 77
1, 387178, Note_off_c, 0, 55, 60
1, 387255, Note_on_c, 0, 55, 77
1, 387318, Note_off_c, 0, 55, 61
1, 387415, Note_on_c, 0, 55, 74
1, 387417, Note_on_c, 0, 71, 88
1, 387419, Note_on_c, 0, 59, 85
1, 387422, Note_on_c, 0, 67, 79
1, 387468, Note_off_c, 0, 55, 61
1, 387488, Note_off_c, 0, 59, 61
1, 387504, Note_off_c, 0, 67, 62
1, 387524, Note_off_c, 0, 71, 62
1, 387565, Note_on_c, 0, 55, 77
1, 387651, Note_off_c, 0, 55, 53
1, 387690, Note_on_c, 0, 55, 60
1, 387749, Note_off_c, 0, 55, 62
1, 387769, Note_on_c, 0, 69, 72
1, 387769, Note_on_c, 0, 72, 77
1, 387771, Note_on_c, 0, 60, 75
1, 387797, Note_off_c, 0, 69, 68
1, 387802, Note_off_c, 0, 60, 63
1, 387817, Note_off_c, 0, 72, 64
1, 387860, Note_on_c, 0, 55, 69
1, 387861, Control_c, 0, 64, 110
1, 387876, Note_on_c, 0, 74, 91
1, 387876, Control_c, 0, 64, 75
1, 387880, Note_on_c, 0, 71, 83
1, 387882, Note_on_c, 0, 62, 82
1, 387891, Control_c, 0, 64, 61
1, 387906, Control_c, 0, 64, 58
1, 387920, Control_c, 0, 64, 62
1, 387929, Note_off_c, 0, 55, 63
1, 387935, Control_c, 0, 64, 64
1, 387950, Control_c, 0, 64, 70
1, 387965, Control_c, 0, 64, 82
1, 387980, Control_c, 0, 64, 113
1, 387995, Control_c, 0, 64, 127
1, 388036, Note_on_c, 0, 55, 69
1, 388061, Note_off_c, 0, 55, 65
1, 388106, Note_off_c, 0, 62, 55
1, 388115, Note_off_c, 0, 71, 51
1, 388132, Note_off_c, 0, 74, 60
1, 388176, Note_on_c, 0, 55, 64
1, 388214, Note_off_c, 0, 55, 62
1, 388352, Note_on_c, 0, 55, 63
1, 388358, Note_on_c, 0, 74, 88
1, 388360, Note_on_c, 0, 71, 81
1, 388362, Note_on_c, 0, 62, 78
1, 388373, Control_c, 0, 64, 104
1, 388388, Control_c, 0, 64, 77
1, 388403, Control_c, 0, 64, 63
1, 388418, Control_c, 0, 64, 60
1, 388433, Control_c, 0, 64, 65
1, 388438, Note_off_c, 0, 55, 55
1, 388448, Control_c, 0, 64, 69
1, 388463, Control_c, 0, 64, 80
1, 388477, Control_c, 0, 64, 112
1, 388488, Note_off_c, 0, 62, 57
1, 388492, Control_c, 0, 64, 127
1, 388522, Note_off_c, 0, 74, 56
1, 388530, Note_on_c, 0, 55, 53
1, 388564, Note_off_c, 0, 71, 53
1, 388576, Note_off_c, 0, 55, 61
1, 388585, Note_on_c, 0, 54, 3
1, 388626, Note_off_c, 0, 54, 51
1, 388676, Note_on_c, 0, 54, 50
1, 388689, Note_on_c, 0, 55, 44
1, 388706, Note_off_c, 0, 54, 63
1, 388717, Note_off_c, 0, 55, 57
1, 388856, Control_c, 0, 64, 87
1, 388862, Note_on_c, 0, 74, 79
1, 388868, Note_on_c, 0, 71, 69
1, 388870, Note_on_c, 0, 62, 72
1, 388871, Control_c, 0, 64, 68
1, 388880, Note_on_c, 0, 54, 59
1, 388885, Control_c, 0, 64, 63
1, 388896, Note_on_c, 0, 55, 34
1, 388900, Control_c, 0, 64, 67
1, 388915, Control_c, 0, 64, 73
1, 388930, Control_c, 0, 64, 84
1, 388931, Note_off_c, 0, 54, 63
1, 388945, Control_c, 0, 64, 108
1, 388950, Note_off_c, 0, 55, 63
1, 388959, Control_c, 0, 64, 127
1, 389034, Note_on_c, 0, 53, 70
1, 389050, Note_off_c, 0, 62, 61
1, 389058, Note_off_c, 0, 71, 57
1, 389075, Note_off_c, 0, 74, 56
1, 389084, Note_off_c, 0, 53, 60
1, 389101, Poly_aftertouch_c, 0, 55, 127
1, 389146, Poly_aftertouch_c, 0, 55, 0
1, 389160, Note_on_c, 0, 52, 64
1, 389196, Note_off_c, 0, 52, 65
1, 389315, Control_c, 0, 64, 99
1, 389325, Note_on_c, 0, 76, 90
1, 389330, Note_on_c, 0, 64, 86
1, 389330, Control_c, 0, 64, 72
1, 389331, Note_on_c, 0, 72, 85
1, 389339, Note_on_c, 0, 48, 73
1, 389345, Control_c, 0, 64, 62
1, 389360, Control_c, 0, 64, 67
1, 389375, Control_c, 0, 64, 74
1, 389381, Note_off_c, 0, 48, 56
1, 389390, Control_c, 0, 64, 93
1, 389402, Note_off_c, 0, 64, 61
1, 389405, Control_c, 0, 64, 127
1, 389409, Note_off_c, 0, 72, 64
1, 389428, Note_off_c, 0, 76, 64
1, 389528, Note_on_c, 0, 47, 43
1, 389559, Note_off_c, 0, 47, 52
1, 389648, Note_on_c, 0, 46, 84
1, 389674, Note_on_c, 0, 55, 46
1, 389701, Note_off_c, 0, 55, 56
1, 389705, Note_off_c, 0, 46, 61
1, 389741, Note_on_c, 0, 74, 79
1, 389741, Note_on_c, 0, 77, 91
1, 389742, Note_on_c, 0, 65, 85
1, 389774, Note_off_c, 0, 65, 63
1, 389780, Note_off_c, 0, 74, 62
1, 389801, Note_off_c, 0, 77, 66
1, 389929, Control_c, 0, 64, 79
1, 389931, Note_on_c, 0, 45, 81
1, 389931, Note_on_c, 0, 55, 89
1, 389936, Note_on_c, 0, 79, 96
1, 389937, Note_on_c, 0, 67, 95
1, 389938, Note_on_c, 0, 76, 91
1, 389944, Control_c, 0, 64, 56
1, 389959, Control_c, 0, 64, 0
1, 390019, Control_c, 0, 64, 34
1, 390034, Control_c, 0, 64, 64
1, 390049, Control_c, 0, 64, 78
1, 390063, Control_c, 0, 64, 127
1, 390070, Note_off_c, 0, 45, 60
1, 390077, Note_off_c, 0, 55, 59
1, 390147, Note_off_c, 0, 67, 57
1, 390158, Note_off_c, 0, 79, 64
1, 390183, Note_off_c, 0, 76, 61
1, 390218, Note_on_c, 0, 55, 81
1, 390221, Note_on_c, 0, 45, 73
1, 390281, Note_off_c, 0, 55, 58
1, 390293, Note_off_c, 0, 45, 62
1, 390424, Note_on_c, 0, 55, 77
1, 390427, Note_on_c, 0, 45, 74
1, 390472, Note_off_c, 0, 45, 60
1, 390478, Note_off_c, 0, 55, 59
1, 390581, Note_on_c, 0, 55, 85
1, 390586, Note_on_c, 0, 45, 78
1, 390623, Note_off_c, 0, 45, 59
1, 390629, Note_off_c, 0, 55, 59
1, 390726, Note_on_c, 0, 55, 87
1, 390728, Note_on_c, 0, 45, 83
1, 390775, Note_off_c, 0, 55, 59
1, 390777, Note_off_c, 0, 45, 60
1, 390805, Note_on_c, 0, 74, 83
1, 390805, Note_on_c, 0, 77, 102
1, 390809, Note_on_c, 0, 65, 90
1, 390860, Note_off_c, 0, 65, 65
1, 390864, Note_off_c, 0, 74, 61
1, 390880, Note_off_c, 0, 77, 64
1, 390893, Note_on_c, 0, 55, 88
1, 390898, Note_on_c, 0, 45, 82
1, 390937, Note_off_c, 0, 45, 62
1, 390939, Note_off_c, 0, 55, 61
1, 391027, Control_c, 0, 64, 96
1, 391042, Control_c, 0, 64, 69
1, 391057, Control_c, 0, 64, 51
1, 391059, Note_on_c, 0, 73, 84
1, 391060, Note_on_c, 0, 76, 98
1, 391062, Note_on_c, 0, 64, 95
1, 391068, Note_on_c, 0, 55, 77
1, 391070, Note_on_c, 0, 45, 78
1, 391071, Control_c, 0, 64, 42
1, 391086, Control_c, 0, 64, 48
1, 391101, Control_c, 0, 64, 58
1, 391116, Control_c, 0, 64, 69
1, 391118, Note_off_c, 0, 55, 56
1, 391124, Note_off_c, 0, 45, 57
1, 391131, Control_c, 0, 64, 87
1, 391145, Control_c, 0, 64, 127
1, 391159, Note_off_c, 0, 76, 65
1, 391166, Note_off_c, 0, 64, 57
1, 391192, Note_off_c, 0, 73, 63
1, 391234, Note_on_c, 0, 55, 76
1, 391239, Note_on_c, 0, 45, 70
1, 391282, Note_off_c, 0, 55, 58
1, 391284, Note_off_c, 0, 45, 54
1, 391392, Note_on_c, 0, 55, 69
1, 391393, Note_on_c, 0, 45, 68
1, 391440, Note_off_c, 0, 55, 57
1, 391442, Note_off_c, 0, 45, 58
1, 391543, Note_on_c, 0, 55, 75
1, 391549, Note_on_c, 0, 45, 70
1, 391591, Note_off_c, 0, 45, 53
1, 391593, Note_off_c, 0, 55, 59
1, 391709, Note_on_c, 0, 55, 74
1, 391712, Note_on_c, 0, 45, 70
1, 391749, Note_off_c, 0, 55, 55
1, 391753, Note_off_c, 0, 45, 61
1, 391873, Note_on_c, 0, 55, 75
1, 391877, Note_on_c, 0, 45, 71
1, 391919, Note_off_c, 0, 55, 57
1, 391931, Note_off_c, 0, 45, 54
1, 392093, Note_on_c, 0, 64, 86
1, 392093, Note_on_c, 0, 46, 68
1, 392095, Note_on_c, 0, 61, 79
1, 392096, Note_on_c, 0, 55, 80
1, 392117, Control_c, 0, 64, 81
1, 392132, Control_c, 0, 64, 63
1, 392147, Control_c, 0, 64, 39
1, 392162, Control_c, 0, 64, 35
1, 392192, Control_c, 0, 64, 41
1, 392206, Note_off_c, 0, 46, 52
1, 392207, Control_c, 0, 64, 54
1, 392222, Control_c, 0, 64, 62
1, 392236, Control_c, 0, 64, 67
1, 392251, Control_c, 0, 64, 72
1, 392266, Control_c, 0, 64, 79
1, 392281, Control_c, 0, 64, 86
1, 392284, Note_on_c, 0, 45, 52
1, 392295, Control_c, 0, 64, 93
1, 392310, Control_c, 0, 64, 100
1, 392325, Control_c, 0, 64, 103
1, 392334, Note_off_c, 0, 45, 61
1, 392369, Control_c, 0, 64, 102
1, 392371, Note_off_c, 0, 64, 50
1, 392384, Control_c, 0, 64, 101
1, 392399, Control_c, 0, 64, 101
1, 392415, Control_c, 0, 64, 100
1, 392430, Control_c, 0, 64, 100
1, 392445, Control_c, 0, 64, 99
1, 392454, Note_on_c, 0, 45, 36
1, 392460, Control_c, 0, 64, 99
1, 392474, Control_c, 0, 64, 98
1, 392494, Note_off_c, 0, 45, 50
1, 392615, Note_on_c, 0, 45, 32
1, 392658, Note_off_c, 0, 45, 43
1, 392763, Note_on_c, 0, 45, 12
1, 392806, Note_off_c, 0, 45, 50
1, 392908, Note_on_c, 0, 45, 28
1, 392927, Note_on_c, 0, 65, 64
1, 392937, Note_off_c, 0, 45, 54
1, 393058, Control_c, 0, 64, 98
1, 393072, Control_c, 0, 64, 97
1, 393087, Control_c, 0, 64, 97
1, 393097, Note_on_c, 0, 45, 33
1, 393102, Control_c, 0, 64, 95
1, 393116, Control_c, 0, 64, 92
1, 393131, Control_c, 0, 64, 84
1, 393143, Note_off_c, 0, 65, 35
1, 393146, Control_c, 0, 64, 75
1, 393147, Note_on_c, 0, 64, 55
1, 393161, Control_c, 0, 64, 65
1, 393176, Control_c, 0, 64, 62
1, 393190, Control_c, 0, 64, 64
1, 393201, Note_off_c, 0, 45, 53
1, 393205, Control_c, 0, 64, 66
1, 393221, Control_c, 0, 64, 70
1, 393236, Control_c, 0, 64, 76
1, 393251, Control_c, 0, 64, 84
1, 393274, Control_c, 0, 64, 94
1, 393289, Control_c, 0, 64, 100
1, 393298, Note_on_c, 0, 45, 40
1, 393303, Control_c, 0, 64, 104
1, 393318, Control_c, 0, 64, 109
1, 393333, Control_c, 0, 64, 113
1, 393347, Control_c, 0, 64, 115
1, 393351, Note_off_c, 0, 45, 58
1, 393360, Note_off_c, 0, 55, 42
1, 393362, Control_c, 0, 64, 116
1, 393377, Control_c, 0, 64, 117
1, 393392, Note_off_c, 0, 64, 49
1, 393392, Control_c, 0, 64, 119
1, 393407, Control_c, 0, 64, 127
1, 393415, Note_off_c, 0, 61, 40
1, 393470, Note_on_c, 0, 45, 45
1, 393503, Note_off_c, 0, 45, 59
1, 393605, Note_on_c, 0, 45, 47
1, 393655, Note_off_c, 0, 45, 58
1, 393758, Note_on_c, 0, 45, 50
1, 393796, Note_off_c, 0, 45, 63
1, 393925, Note_on_c, 0, 45, 46
1, 393954, Note_off_c, 0, 45, 62
1, 394102, Note_on_c, 0, 77, 101
1, 394103, Note_on_c, 0, 65, 96
1, 394104, Note_on_c, 0, 74, 91
1, 394105, Note_on_c, 0, 44, 85
1, 394111, Control_c, 0, 64, 94
1, 394126, Control_c, 0, 64, 65
1, 394141, Control_c, 0, 64, 32
1, 394156, Control_c, 0, 64, 0
1, 394170, Control_c, 0, 64, 31
1, 394185, Control_c, 0, 64, 54
1, 394200, Control_c, 0, 64, 67
1, 394201, Note_off_c, 0, 44, 63
1, 394215, Control_c, 0, 64, 78
1, 394230, Control_c, 0, 64, 111
1, 394244, Control_c, 0, 64, 127
1, 394280, Note_off_c, 0, 65, 58
1, 394287, Note_off_c, 0, 77, 64
1, 394302, Note_on_c, 0, 44, 87
1, 394314, Note_off_c, 0, 74, 62
1, 394371, Note_off_c, 0, 44, 62
1, 394451, Note_on_c, 0, 44, 87
1, 394510, Note_off_c, 0, 44, 63
1, 394597, Note_on_c, 0, 44, 87
1, 394651, Note_off_c, 0, 44, 63
1, 394723, Note_on_c, 0, 44, 85
1, 394777, Note_off_c, 0, 44, 64
1, 394833, Note_on_c, 0, 75, 95
1, 394836, Note_on_c, 0, 63, 89
1, 394836, Note_on_c, 0, 72, 88
1, 394879, Note_on_c, 0, 44, 75
1, 394910, Note_off_c, 0, 72, 61
1, 394931, Note_off_c, 0, 44, 62
1, 394934, Note_off_c, 0, 75, 59
1, 394938, Note_off_c, 0, 63, 56
1, 395061, Note_on_c, 0, 44, 70
1, 395067, Control_c, 0, 64, 78
1, 395075, Note_on_c, 0, 74, 100
1, 395076, Note_on_c, 0, 71, 91
1, 395077, Note_on_c, 0, 62, 94
1, 395082, Control_c, 0, 64, 60
1, 395097, Control_c, 0, 64, 38
1, 395111, Control_c, 0, 64, 36
1, 395126, Control_c, 0, 64, 44
1, 395141, Control_c, 0, 64, 58
1, 395156, Control_c, 0, 64, 66
1, 395171, Control_c, 0, 64, 76
1, 395179, Note_off_c, 0, 44, 62
1, 395185, Control_c, 0, 64, 94
1, 395200, Control_c, 0, 64, 127
1, 395203, Note_off_c, 0, 74, 59
1, 395211, Note_off_c, 0, 62, 56
1, 395245, Note_off_c, 0, 71, 60
1, 395259, Note_on_c, 0, 44, 64
1, 395313, Note_off_c, 0, 44, 60
1, 395423, Note_on_c, 0, 44, 68
1, 395465, Note_off_c, 0, 44, 62
1, 395590, Note_on_c, 0, 44, 64
1, 395653, Note_off_c, 0, 44, 61
1, 395766, Note_on_c, 0, 44, 61
1, 395805, Note_off_c, 0, 44, 62
1, 395937, Note_on_c, 0, 44, 60
1, 396007, Note_off_c, 0, 44, 59
1, 396216, Control_c, 0, 64, 107
1, 396221, Note_on_c, 0, 62, 67
1, 396225, Note_on_c, 0, 59, 57
1, 396227, Note_on_c, 0, 53, 56
1, 396231, Control_c, 0, 64, 84
1, 396234, Note_on_c, 0, 43, 47
1, 396246, Control_c, 0, 64, 69
1, 396268, Control_c, 0, 64, 59
1, 396283, Control_c, 0, 64, 51
1, 396298, Control_c, 0, 64, 50
1, 396328, Control_c, 0, 64, 50
1, 396342, Control_c, 0, 64, 55
1, 396356, Control_c, 0, 64, 60
1, 396371, Control_c, 0, 64, 63
1, 396386, Control_c, 0, 64, 64
1, 396401, Control_c, 0, 64, 65
1, 396417, Control_c, 0, 64, 66
1, 396432, Control_c, 0, 64, 69
1, 396446, Control_c, 0, 64, 71
1, 396449, Note_off_c, 0, 43, 34
1, 396461, Control_c, 0, 64, 73
1, 396476, Control_c, 0, 64, 75
1, 396489, Note_on_c, 0, 44, 44
1, 396491, Control_c, 0, 64, 75
1, 396506, Control_c, 0, 64, 76
1, 396520, Control_c, 0, 64, 77
1, 396535, Control_c, 0, 64, 80
1, 396545, Note_off_c, 0, 44, 59
1, 396550, Control_c, 0, 64, 82
1, 396565, Control_c, 0, 64, 85
1, 396580, Control_c, 0, 64, 89
1, 396594, Control_c, 0, 64, 92
1, 396609, Control_c, 0, 64, 94
1, 396624, Control_c, 0, 64, 98
1, 396639, Control_c, 0, 64, 99
1, 396659, Note_on_c, 0, 44, 43
1, 396712, Note_off_c, 0, 44, 48
1, 396721, Note_off_c, 0, 62, 33
1, 396797, Note_on_c, 0, 44, 42
1, 396850, Note_off_c, 0, 44, 53
1, 396937, Note_on_c, 0, 44, 32
1, 397086, Note_on_c, 0, 63, 56
1, 397096, Note_off_c, 0, 44, 0
1, 397116, Note_on_c, 0, 44, 18
1, 397179, Note_off_c, 0, 44, 51
1, 397225, Control_c, 0, 64, 99
1, 397241, Note_off_c, 0, 63, 35
1, 397269, Control_c, 0, 64, 98
1, 397284, Control_c, 0, 64, 98
1, 397299, Control_c, 0, 64, 97
1, 397314, Control_c, 0, 64, 95
1, 397317, Note_on_c, 0, 44, 32
1, 397329, Control_c, 0, 64, 91
1, 397343, Note_on_c, 0, 62, 49
1, 397343, Control_c, 0, 64, 83
1, 397358, Control_c, 0, 64, 73
1, 397373, Control_c, 0, 64, 66
1, 397387, Control_c, 0, 64, 63
1, 397402, Control_c, 0, 64, 64
1, 397403, Note_off_c, 0, 44, 50
1, 397417, Control_c, 0, 64, 65
1, 397432, Control_c, 0, 64, 68
1, 397447, Control_c, 0, 64, 73
1, 397462, Control_c, 0, 64, 80
1, 397477, Control_c, 0, 64, 87
1, 397492, Control_c, 0, 64, 94
1, 397501, Note_on_c, 0, 44, 32
1, 397506, Control_c, 0, 64, 98
1, 397521, Control_c, 0, 64, 103
1, 397536, Control_c, 0, 64, 109
1, 397551, Control_c, 0, 64, 113
1, 397562, Note_off_c, 0, 53, 39
1, 397610, Control_c, 0, 64, 113
1, 397622, Note_off_c, 0, 59, 41
1, 397635, Note_off_c, 0, 62, 35
1, 397640, Note_off_c, 0, 44, 0
1, 397677, Poly_aftertouch_c, 0, 44, 127
1, 397748, Poly_aftertouch_c, 0, 44, 0
1, 397899, Control_c, 0, 64, 113
1, 397903, Note_on_c, 0, 43, 41
1, 397913, Control_c, 0, 64, 105
1, 397928, Control_c, 0, 64, 95
1, 397943, Control_c, 0, 64, 81
1, 397958, Control_c, 0, 64, 70
1, 397973, Control_c, 0, 64, 67
1, 397987, Control_c, 0, 64, 70
1, 398002, Control_c, 0, 64, 74
1, 398004, Note_off_c, 0, 43, 57
1, 398018, Control_c, 0, 64, 80
1, 398033, Control_c, 0, 64, 88
1, 398048, Control_c, 0, 64, 96
1, 398063, Control_c, 0, 64, 104
1, 398078, Control_c, 0, 64, 110
1, 398092, Control_c, 0, 64, 115
1, 398094, Note_on_c, 0, 43, 47
1, 398107, Control_c, 0, 64, 121
1, 398122, Control_c, 0, 64, 127
1, 398145, Note_off_c, 0, 43, 60
1, 398298, Note_on_c, 0, 43, 59
1, 398371, Note_off_c, 0, 43, 61
1, 398648, Control_c, 0, 64, 123
1, 398653, Note_on_c, 0, 75, 77
1, 398660, Note_on_c, 0, 69, 60
1, 398663, Control_c, 0, 64, 111
1, 398671, Note_on_c, 0, 48, 41
1, 398672, Note_on_c, 0, 42, 47
1, 398678, Control_c, 0, 64, 99
1, 398692, Control_c, 0, 64, 86
1, 398707, Control_c, 0, 64, 73
1, 398722, Control_c, 0, 64, 65
1, 398736, Control_c, 0, 64, 60
1, 398766, Control_c, 0, 64, 61
1, 398781, Control_c, 0, 64, 64
1, 398794, Note_off_c, 0, 42, 51
1, 398796, Control_c, 0, 64, 67
1, 398812, Control_c, 0, 64, 73
1, 398827, Control_c, 0, 64, 83
1, 398841, Control_c, 0, 64, 95
1, 398856, Control_c, 0, 64, 116
1, 398871, Control_c, 0, 64, 127
1, 398937, Note_on_c, 0, 42, 44
1, 398973, Note_off_c, 0, 42, 55
1, 398973, Note_off_c, 0, 75, 44
1, 399063, Note_on_c, 0, 42, 51
1, 399107, Note_off_c, 0, 42, 61
1, 399215, Note_on_c, 0, 42, 45
1, 399264, Note_off_c, 0, 42, 55
1, 399363, Note_on_c, 0, 42, 46
1, 399397, Note_off_c, 0, 42, 60
1, 399506, Note_on_c, 0, 42, 43
1, 399552, Note_off_c, 0, 42, 60
1, 399654, Note_on_c, 0, 42, 57
1, 399662, Note_on_c, 0, 74, 68
1, 399665, Control_c, 0, 64, 106
1, 399674, Note_on_c, 0, 50, 59
1, 399680, Control_c, 0, 64, 84
1, 399687, Note_off_c, 0, 48, 38
1, 399695, Control_c, 0, 64, 69
1, 399710, Control_c, 0, 64, 63
1, 399713, Note_off_c, 0, 42, 56
1, 399724, Control_c, 0, 64, 64
1, 399739, Control_c, 0, 64, 66
1, 399754, Control_c, 0, 64, 69
1, 399769, Control_c, 0, 64, 75
1, 399783, Control_c, 0, 64, 85
1, 399798, Control_c, 0, 64, 94
1, 399813, Control_c, 0, 64, 100
1, 399828, Control_c, 0, 64, 102
1, 399829, Note_on_c, 0, 42, 55
1, 399843, Control_c, 0, 64, 103
1, 399865, Note_off_c, 0, 42, 64
1, 399975, Note_on_c, 0, 42, 49
1, 400010, Note_off_c, 0, 74, 52
1, 400018, Note_off_c, 0, 42, 61
1, 400160, Control_c, 0, 64, 100
1, 400163, Note_on_c, 0, 42, 46
1, 400169, Note_on_c, 0, 72, 69
1, 400175, Control_c, 0, 64, 94
1, 400178, Note_on_c, 0, 51, 57
1, 400186, Note_off_c, 0, 50, 52
1, 400189, Control_c, 0, 64, 83
1, 400204, Control_c, 0, 64, 72
1, 400219, Control_c, 0, 64, 64
1, 400234, Control_c, 0, 64, 61
1, 400236, Note_off_c, 0, 42, 55
1, 400249, Control_c, 0, 64, 64
1, 400264, Control_c, 0, 64, 66
1, 400279, Control_c, 0, 64, 70
1, 400294, Control_c, 0, 64, 77
1, 400308, Control_c, 0, 64, 87
1, 400323, Control_c, 0, 64, 96
1, 400330, Note_off_c, 0, 69, 28
1, 400338, Control_c, 0, 64, 100
1, 400351, Note_on_c, 0, 42, 55
1, 400368, Control_c, 0, 64, 101
1, 400389, Note_off_c, 0, 42, 61
1, 400413, Control_c, 0, 64, 101
1, 400458, Control_c, 0, 64, 102
1, 400531, Note_on_c, 0, 42, 41
1, 400598, Note_off_c, 0, 42, 50
1, 400663, Note_off_c, 0, 51, 34
1, 400835, Control_c, 0, 64, 101
1, 400836, Note_on_c, 0, 52, 43
1, 400839, Note_on_c, 0, 67, 53
1, 400841, Note_on_c, 0, 43, 41
1, 400850, Control_c, 0, 64, 98
1, 400865, Control_c, 0, 64, 90
1, 400879, Control_c, 0, 64, 78
1, 400894, Control_c, 0, 64, 67
1, 400909, Control_c, 0, 64, 61
1, 400938, Control_c, 0, 64, 63
1, 400953, Control_c, 0, 64, 66
1, 400968, Control_c, 0, 64, 70
1, 400980, Note_off_c, 0, 43, 33
1, 400983, Control_c, 0, 64, 78
1, 400998, Control_c, 0, 64, 90
1, 401012, Control_c, 0, 64, 97
1, 401027, Control_c, 0, 64, 101
1, 401042, Control_c, 0, 64, 106
1, 401057, Control_c, 0, 64, 115
1, 401066, Note_on_c, 0, 43, 30
1, 401072, Control_c, 0, 64, 127
1, 401108, Note_off_c, 0, 72, 13
1, 401123, Note_off_c, 0, 43, 57
1, 401236, Note_on_c, 0, 43, 32
1, 401276, Note_off_c, 0, 43, 51
1, 401384, Note_on_c, 0, 43, 44
1, 401430, Note_off_c, 0, 43, 60
1, 401440, Note_off_c, 0, 67, 36
1, 401558, Note_on_c, 0, 43, 29
1, 401599, Note_off_c, 0, 43, 49
1, 401718, Note_on_c, 0, 43, 42
1, 401720, Note_off_c, 0, 52, 39
1, 401754, Note_off_c, 0, 43, 58
1, 401890, Note_on_c, 0, 43, 34
1, 401906, Note_on_c, 0, 72, 59
1, 401909, Control_c, 0, 64, 107
1, 401910, Note_on_c, 0, 65, 54
1, 401913, Note_on_c, 0, 50, 41
1, 401924, Control_c, 0, 64, 89
1, 401939, Control_c, 0, 64, 76
1, 401954, Control_c, 0, 64, 67
1, 401969, Control_c, 0, 64, 64
1, 401984, Note_off_c, 0, 43, 55
1, 401984, Control_c, 0, 64, 66
1, 401999, Control_c, 0, 64, 68
1, 402014, Control_c, 0, 64, 72
1, 402029, Control_c, 0, 64, 79
1, 402044, Control_c, 0, 64, 87
1, 402058, Control_c, 0, 64, 94
1, 402073, Control_c, 0, 64, 98
1, 402088, Control_c, 0, 64, 100
1, 402089, Note_on_c, 0, 43, 53
1, 402103, Control_c, 0, 64, 102
1, 402118, Control_c, 0, 64, 104
1, 402130, Note_off_c, 0, 43, 59
1, 402133, Control_c, 0, 64, 105
1, 402148, Control_c, 0, 64, 105
1, 402154, Note_off_c, 0, 72, 39
1, 402163, Control_c, 0, 64, 106
1, 402177, Control_c, 0, 64, 106
1, 402192, Note_on_c, 0, 71, 65
1, 402258, Control_c, 0, 64, 107
1, 402305, Note_on_c, 0, 43, 51
1, 402339, Note_off_c, 0, 65, 40
1, 402348, Note_off_c, 0, 43, 59
1, 402403, Note_off_c, 0, 71, 52
1, 402445, Note_on_c, 0, 69, 62
1, 402471, Note_on_c, 0, 43, 41
1, 402520, Note_off_c, 0, 43, 58
1, 402556, Note_off_c, 0, 69, 55
1, 402652, Note_on_c, 0, 43, 41
1, 402690, Note_off_c, 0, 43, 55
1, 402726, Note_on_c, 0, 71, 61
1, 402813, Note_off_c, 0, 71, 57
1, 402880, Note_on_c, 0, 43, 38
1, 402914, Note_off_c, 0, 50, 39
1, 403130, Note_off_c, 0, 43, 27
1, 403200, Control_c, 0, 64, 106
1, 403214, Control_c, 0, 64, 105
1, 403223, Note_on_c, 0, 36, 31
1, 403227, Note_on_c, 0, 48, 32
1, 403229, Control_c, 0, 64, 104
1, 403242, Note_on_c, 0, 64, 48
1, 403244, Control_c, 0, 64, 103
1, 403245, Note_on_c, 0, 72, 52
1, 403259, Control_c, 0, 64, 100
1, 403273, Control_c, 0, 64, 94
1, 403288, Control_c, 0, 64, 84
1, 403303, Control_c, 0, 64, 72
1, 403318, Control_c, 0, 64, 62
1, 403332, Control_c, 0, 64, 57
1, 403347, Control_c, 0, 64, 56
1, 403362, Control_c, 0, 64, 57
1, 403377, Control_c, 0, 64, 61
1, 403392, Control_c, 0, 64, 65
1, 403406, Control_c, 0, 64, 72
1, 403421, Control_c, 0, 64, 80
1, 403436, Control_c, 0, 64, 89
1, 403451, Control_c, 0, 64, 99
1, 403466, Control_c, 0, 64, 112
1, 403467, Note_off_c, 0, 36, 40
1, 403480, Control_c, 0, 64, 127
1, 403602, Note_on_c, 0, 36, 43
1, 403659, Note_off_c, 0, 36, 55
1, 403811, Note_on_c, 0, 36, 36
1, 403853, Note_off_c, 0, 36, 56
1, 403978, Note_on_c, 0, 36, 40
1, 404019, Note_off_c, 0, 36, 56
1, 404096, Control_c, 0, 64, 123
1, 404111, Control_c, 0, 64, 119
1, 404126, Control_c, 0, 64, 117
1, 404136, Note_on_c, 0, 36, 41
1, 404141, Control_c, 0, 64, 116
1, 404185, Control_c, 0, 64, 115
1, 404189, Note_off_c, 0, 36, 47
1, 404215, Control_c, 0, 64, 114
1, 404259, Control_c, 0, 64, 113
1, 404303, Note_on_c, 0, 36, 34
1, 404335, Note_off_c, 0, 36, 53
1, 404348, Control_c, 0, 64, 113
1, 404378, Control_c, 0, 64, 112
1, 404408, Control_c, 0, 64, 111
1, 404423, Control_c, 0, 64, 111
1, 404429, Note_on_c, 0, 36, 51
1, 404438, Control_c, 0, 64, 110
1, 404452, Control_c, 0, 64, 110
1, 404467, Control_c, 0, 64, 108
1, 404478, Note_off_c, 0, 36, 54
1, 404482, Control_c, 0, 64, 107
1, 404505, Control_c, 0, 64, 106
1, 404520, Control_c, 0, 64, 104
1, 404534, Control_c, 0, 64, 104
1, 404549, Control_c, 0, 64, 103
1, 404564, Control_c, 0, 64, 102
1, 404579, Control_c, 0, 64, 101
1, 404593, Control_c, 0, 64, 100
1, 404597, Note_on_c, 0, 36, 44
1, 404608, Control_c, 0, 64, 99
1, 404623, Control_c, 0, 64, 98
1, 404638, Control_c, 0, 64, 97
1, 404641, Note_off_c, 0, 36, 48
1, 404652, Control_c, 0, 64, 96
1, 404667, Control_c, 0, 64, 95
1, 404682, Control_c, 0, 64, 94
1, 404697, Control_c, 0, 64, 93
1, 404712, Control_c, 0, 64, 92
1, 404726, Control_c, 0, 64, 91
1, 404741, Control_c, 0, 64, 90
1, 404756, Control_c, 0, 64, 89
1, 404762, Note_on_c, 0, 36, 38
1, 404771, Control_c, 0, 64, 88
1, 404786, Control_c, 0, 64, 88
1, 404795, Note_off_c, 0, 36, 53
1, 404801, Control_c, 0, 64, 87
1, 404816, Control_c, 0, 64, 86
1, 404831, Control_c, 0, 64, 85
1, 404845, Control_c, 0, 64, 84
1, 404860, Control_c, 0, 64, 84
1, 404875, Control_c, 0, 64, 83
1, 404890, Control_c, 0, 64, 83
1, 404905, Control_c, 0, 64, 82
1, 404913, Note_on_c, 0, 36, 38
1, 404919, Control_c, 0, 64, 81
1, 404934, Control_c, 0, 64, 81
1, 404949, Control_c, 0, 64, 80
1, 404956, Note_off_c, 0, 36, 47
1, 404964, Control_c, 0, 64, 79
1, 404978, Control_c, 0, 64, 78
1, 404993, Control_c, 0, 64, 78
1, 405023, Control_c, 0, 64, 77
1, 405038, Control_c, 0, 64, 76
1, 405052, Control_c, 0, 64, 75
1, 405067, Control_c, 0, 64, 74
1, 405072, Note_on_c, 0, 36, 32
1, 405082, Control_c, 0, 64, 73
1, 405112, Control_c, 0, 64, 73
1, 405123, Note_off_c, 0, 36, 46
1, 405126, Control_c, 0, 64, 72
1, 405141, Control_c, 0, 64, 72
1, 405156, Control_c, 0, 64, 70
1, 405171, Control_c, 0, 64, 70
1, 405185, Control_c, 0, 64, 69
1, 405226, Note_on_c, 0, 36, 25
1, 405254, Control_c, 0, 64, 68
1, 405269, Control_c, 0, 64, 67
1, 405283, Control_c, 0, 64, 66
1, 405290, Note_off_c, 0, 36, 45
1, 405328, Control_c, 0, 64, 66
1, 405343, Control_c, 0, 64, 65
1, 405357, Control_c, 0, 64, 64
1, 405387, Control_c, 0, 64, 64
1, 405388, Note_on_c, 0, 36, 22
1, 405416, Control_c, 0, 64, 63
1, 405431, Control_c, 0, 64, 63
1, 405439, Note_off_c, 0, 36, 47
1, 405446, Control_c, 0, 64, 62
1, 405461, Control_c, 0, 64, 61
1, 405490, Control_c, 0, 64, 61
1, 405505, Control_c, 0, 64, 60
1, 405543, Note_on_c, 0, 36, 31
1, 405579, Control_c, 0, 64, 61
1, 405594, Control_c, 0, 64, 62
1, 405609, Control_c, 0, 64, 63
1, 405624, Note_off_c, 0, 36, 40
1, 405624, Control_c, 0, 64, 64
1, 405639, Control_c, 0, 64, 65
1, 405653, Control_c, 0, 64, 67
1, 405668, Control_c, 0, 64, 70
1, 405683, Control_c, 0, 64, 72
1, 405698, Control_c, 0, 64, 74
1, 405705, Note_on_c, 0, 36, 29
1, 405713, Control_c, 0, 64, 77
1, 405728, Control_c, 0, 64, 81
1, 405742, Control_c, 0, 64, 87
1, 405757, Control_c, 0, 64, 92
1, 405772, Control_c, 0, 64, 94
1, 405787, Control_c, 0, 64, 95
1, 405801, Control_c, 0, 64, 96
1, 405803, Note_off_c, 0, 36, 36
1, 405831, Control_c, 0, 64, 96
1, 405846, Control_c, 0, 64, 97
1, 405901, Note_on_c, 0, 36, 28
1, 406017, Note_off_c, 0, 36, 35
1, 406136, Control_c, 0, 64, 97
1, 406195, Control_c, 0, 64, 98
1, 406210, Control_c, 0, 64, 98
1, 406224, Control_c, 0, 64, 99
1, 406269, Control_c, 0, 64, 99
1, 406290, Note_off_c, 0, 64, 40
1, 406369, Note_off_c, 0, 72, 40
1, 406412, Note_off_c, 0, 48, 39
1, 406476, Control_c, 0, 64, 99
1, 406506, Control_c, 0, 64, 98
1, 406521, Control_c, 0, 64, 98
1, 406565, Control_c, 0, 64, 97
1, 406580, Control_c, 0, 64, 97
1, 406595, Control_c, 0, 64, 96
1, 406610, Control_c, 0, 64, 96
1, 406624, Control_c, 0, 64, 95
1, 406639, Control_c, 0, 64, 95
1, 406669, Control_c, 0, 64, 94
1, 406684, Control_c, 0, 64, 94
1, 406698, Control_c, 0, 64, 93
1, 406713, Control_c, 0, 64, 93
1, 406728, Control_c, 0, 64, 92
1, 406750, Control_c, 0, 64, 92
1, 406765, Control_c, 0, 64, 91
1, 406780, Control_c, 0, 64, 91
1, 406795, Control_c, 0, 64, 90
1, 406810, Control_c, 0, 64, 90
1, 406825, Control_c, 0, 64, 89
1, 406840, Control_c, 0, 64, 89
1, 406855, Control_c, 0, 64, 88
1, 406870, Control_c, 0, 64, 88
1, 406885, Control_c, 0, 64, 87
1, 406899, Control_c, 0, 64, 86
1, 406914, Control_c, 0, 64, 85
1, 406929, Control_c, 0, 64, 85
1, 406944, Control_c, 0, 64, 84
1, 406959, Control_c, 0, 64, 84
1, 406974, Control_c, 0, 64, 83
1, 406989, Control_c, 0, 64, 82
1, 407003, Control_c, 0, 64, 81
1, 407018, Control_c, 0, 64, 80
1, 407033, Control_c, 0, 64, 80
1, 407077, Control_c, 0, 64, 79
1, 407092, Control_c, 0, 64, 79
1, 407107, Control_c, 0, 64, 78
1, 407121, Control_c, 0, 64, 77
1, 407151, Control_c, 0, 64, 77
1, 407166, Control_c, 0, 64, 76
1, 407181, Control_c, 0, 64, 76
1, 407195, Control_c, 0, 64, 75
1, 407210, Control_c, 0, 64, 75
1, 407225, Control_c, 0, 64, 74
1, 407239, Control_c, 0, 64, 73
1, 407251, Note_on_c, 0, 71, 51
1, 407254, Control_c, 0, 64, 73
1, 407269, Control_c, 0, 64, 72
1, 407284, Control_c, 0, 64, 71
1, 407299, Control_c, 0, 64, 70
1, 407314, Control_c, 0, 64, 69
1, 407329, Control_c, 0, 64, 68
1, 407344, Control_c, 0, 64, 67
1, 407359, Control_c, 0, 64, 66
1, 407373, Control_c, 0, 64, 65
1, 407388, Control_c, 0, 64, 64
1, 407403, Control_c, 0, 64, 63
1, 407418, Control_c, 0, 64, 61
1, 407433, Control_c, 0, 64, 60
1, 407447, Control_c, 0, 64, 58
1, 407462, Control_c, 0, 64, 56
1, 407477, Control_c, 0, 64, 53
1, 407499, Control_c, 0, 64, 51
1, 407514, Control_c, 0, 64, 49
1, 407528, Control_c, 0, 64, 48
1, 407543, Control_c, 0, 64, 47
1, 407558, Control_c, 0, 64, 47
1, 407573, Control_c, 0, 64, 46
1, 407841, Control_c, 0, 64, 47
1, 407879, Note_on_c, 0, 72, 47
1, 407885, Control_c, 0, 64, 47
1, 407993, Note_off_c, 0, 71, 36
1, 408054, Note_on_c, 0, 74, 49
1, 408063, Control_c, 0, 64, 48
1, 408088, Note_off_c, 0, 72, 38
1, 408107, Control_c, 0, 64, 48
1, 408137, Control_c, 0, 64, 49
1, 408151, Control_c, 0, 64, 49
1, 408166, Control_c, 0, 64, 50
1, 408181, Control_c, 0, 64, 50
1, 408196, Control_c, 0, 64, 51
1, 408211, Control_c, 0, 64, 52
1, 408226, Control_c, 0, 64, 53
1, 408248, Control_c, 0, 64, 54
1, 408263, Control_c, 0, 64, 56
1, 408277, Control_c, 0, 64, 57
1, 408292, Control_c, 0, 64, 59
1, 408307, Control_c, 0, 64, 60
1, 408322, Control_c, 0, 64, 61
1, 408337, Control_c, 0, 64, 61
1, 408351, Control_c, 0, 64, 62
1, 408366, Control_c, 0, 64, 63
1, 408381, Control_c, 0, 64, 64
1, 408397, Control_c, 0, 64, 65
1, 408412, Control_c, 0, 64, 66
1, 408426, Control_c, 0, 64, 67
1, 408441, Control_c, 0, 64, 69
1, 408456, Control_c, 0, 64, 70
1, 408471, Control_c, 0, 64, 73
1, 408486, Control_c, 0, 64, 75
1, 408500, Control_c, 0, 64, 77
1, 408515, Control_c, 0, 64, 79
1, 408530, Control_c, 0, 64, 82
1, 408545, Control_c, 0, 64, 87
1, 408560, Control_c, 0, 64, 92
1, 408575, Control_c, 0, 64, 98
1, 408590, Control_c, 0, 64, 105
1, 408605, Control_c, 0, 64, 115
1, 408619, Control_c, 0, 64, 127
1, 408640, Note_off_c, 0, 74, 46
1, 408897, Note_on_c, 0, 74, 51
1, 408914, Note_on_c, 0, 67, 40
1, 408921, Note_on_c, 0, 55, 33
1, 409096, Note_off_c, 0, 74, 36
1, 409140, Note_off_c, 0, 67, 34
1, 409146, Note_off_c, 0, 55, 39
1, 409525, Note_on_c, 0, 74, 56
1, 409725, Note_off_c, 0, 74, 53
1, 410102, Note_on_c, 0, 72, 55
1, 410265, Control_c, 0, 64, 123
1, 410280, Control_c, 0, 64, 113
1, 410295, Control_c, 0, 64, 106
1, 410310, Control_c, 0, 64, 101
1, 410325, Control_c, 0, 64, 101
1, 410363, Note_on_c, 0, 71, 61
1, 410388, Note_off_c, 0, 72, 54
1, 410428, Control_c, 0, 64, 100
1, 410457, Control_c, 0, 64, 99
1, 410472, Control_c, 0, 64, 99
1, 410494, Control_c, 0, 64, 98
1, 410509, Control_c, 0, 64, 97
1, 410524, Control_c, 0, 64, 95
1, 410539, Control_c, 0, 64, 94
1, 410554, Control_c, 0, 64, 91
1, 410569, Control_c, 0, 64, 88
1, 410584, Control_c, 0, 64, 86
1, 410598, Control_c, 0, 64, 85
1, 410613, Control_c, 0, 64, 83
1, 410628, Control_c, 0, 64, 81
1, 410643, Control_c, 0, 64, 79
1, 410658, Control_c, 0, 64, 77
1, 410672, Control_c, 0, 64, 76
1, 410687, Control_c, 0, 64, 74
1, 410700, Note_on_c, 0, 75, 53
1, 410702, Control_c, 0, 64, 74
1, 410717, Control_c, 0, 64, 73
1, 410732, Control_c, 0, 64, 71
1, 410746, Control_c, 0, 64, 70
1, 410761, Control_c, 0, 64, 68
1, 410767, Note_off_c, 0, 71, 28
1, 410776, Control_c, 0, 64, 66
1, 410792, Control_c, 0, 64, 65
1, 410807, Control_c, 0, 64, 64
1, 410822, Control_c, 0, 64, 62
1, 410836, Control_c, 0, 64, 60
1, 410851, Control_c, 0, 64, 58
1, 410866, Control_c, 0, 64, 56
1, 410881, Control_c, 0, 64, 55
1, 410895, Control_c, 0, 64, 54
1, 410955, Control_c, 0, 64, 55
1, 410969, Control_c, 0, 64, 55
1, 410984, Control_c, 0, 64, 56
1, 410999, Control_c, 0, 64, 57
1, 411014, Control_c, 0, 64, 58
1, 411029, Control_c, 0, 64, 60
1, 411043, Control_c, 0, 64, 61
1, 411058, Control_c, 0, 64, 62
1, 411073, Control_c, 0, 64, 63
1, 411088, Control_c, 0, 64, 65
1, 411103, Control_c, 0, 64, 66
1, 411117, Control_c, 0, 64, 67
1, 411132, Control_c, 0, 64, 68
1, 411147, Control_c, 0, 64, 70
1, 411162, Control_c, 0, 64, 74
1, 411177, Control_c, 0, 64, 76
1, 411192, Control_c, 0, 64, 78
1, 411206, Control_c, 0, 64, 80
1, 411221, Control_c, 0, 64, 83
1, 411243, Control_c, 0, 64, 88
1, 411258, Control_c, 0, 64, 93
1, 411273, Control_c, 0, 64, 99
1, 411287, Control_c, 0, 64, 104
1, 411302, Control_c, 0, 64, 108
1, 411317, Control_c, 0, 64, 113
1, 411329, Note_on_c, 0, 67, 45
1, 411332, Control_c, 0, 64, 121
1, 411342, Note_on_c, 0, 55, 37
1, 411347, Control_c, 0, 64, 127
1, 411368, Note_off_c, 0, 75, 51
1, 411481, Note_off_c, 0, 67, 37
1, 411481, Note_off_c, 0, 55, 35
1, 411621, Note_on_c, 0, 74, 49
1, 411904, Note_on_c, 0, 72, 51
1, 411938, Note_off_c, 0, 74, 35
1, 412155, Note_off_c, 0, 72, 53
1, 412168, Note_on_c, 0, 67, 54
1, 412402, Note_off_c, 0, 67, 31
1, 412423, Note_on_c, 0, 72, 61
1, 412436, Note_on_c, 0, 60, 43
1, 412673, Note_on_c, 0, 74, 75
1, 412691, Note_on_c, 0, 62, 60
1, 412691, Note_off_c, 0, 60, 59
1, 412758, Note_off_c, 0, 72, 55
1, 412994, Note_on_c, 0, 75, 77
1, 413005, Note_on_c, 0, 63, 53
1, 413034, Note_off_c, 0, 62, 38
1, 413034, Note_off_c, 0, 74, 58
1, 413067, Control_c, 0, 64, 115
1, 413082, Control_c, 0, 64, 104
1, 413097, Control_c, 0, 64, 93
1, 413112, Control_c, 0, 64, 85
1, 413127, Control_c, 0, 64, 79
1, 413141, Control_c, 0, 64, 73
1, 413156, Control_c, 0, 64, 67
1, 413171, Control_c, 0, 64, 63
1, 413186, Control_c, 0, 64, 60
1, 413201, Control_c, 0, 64, 59
1, 413216, Control_c, 0, 64, 58
1, 413231, Control_c, 0, 64, 57
1, 413261, Control_c, 0, 64, 57
1, 413276, Control_c, 0, 64, 58
1, 413290, Control_c, 0, 64, 59
1, 413305, Control_c, 0, 64, 61
1, 413320, Control_c, 0, 64, 62
1, 413335, Control_c, 0, 64, 64
1, 413350, Control_c, 0, 64, 65
1, 413364, Control_c, 0, 64, 67
1, 413379, Control_c, 0, 64, 71
1, 413394, Control_c, 0, 64, 74
1, 413409, Control_c, 0, 64, 77
1, 413424, Control_c, 0, 64, 80
1, 413438, Control_c, 0, 64, 83
1, 413453, Note_off_c, 0, 75, 50
1, 413453, Control_c, 0, 64, 87
1, 413468, Control_c, 0, 64, 91
1, 413490, Control_c, 0, 64, 94
1, 413505, Control_c, 0, 64, 98
1, 413520, Control_c, 0, 64, 100
1, 413535, Control_c, 0, 64, 101
1, 413582, Note_off_c, 0, 63, 35
1, 413638, Note_on_c, 0, 74, 53
1, 413651, Note_on_c, 0, 62, 42
1, 413681, Control_c, 0, 64, 100
1, 413696, Control_c, 0, 64, 99
1, 413741, Control_c, 0, 64, 99
1, 413851, Note_off_c, 0, 74, 52
1, 413928, Note_on_c, 0, 60, 41
1, 413929, Note_on_c, 0, 72, 54
1, 413952, Note_off_c, 0, 62, 31
1, 414008, Control_c, 0, 64, 98
1, 414023, Control_c, 0, 64, 98
1, 414038, Control_c, 0, 64, 97
1, 414067, Control_c, 0, 64, 97
1, 414082, Control_c, 0, 64, 96
1, 414097, Control_c, 0, 64, 95
1, 414109, Note_off_c, 0, 72, 36
1, 414125, Note_off_c, 0, 60, 39
1, 414126, Control_c, 0, 64, 95
1, 414141, Control_c, 0, 64, 94
1, 414156, Control_c, 0, 64, 94
1, 414171, Control_c, 0, 64, 92
1, 414185, Control_c, 0, 64, 90
1, 414200, Control_c, 0, 64, 85
1, 414213, Note_on_c, 0, 67, 48
1, 414215, Control_c, 0, 64, 77
1, 414224, Note_on_c, 0, 64, 44
1, 414237, Control_c, 0, 64, 69
1, 414241, Note_on_c, 0, 55, 30
1, 414252, Control_c, 0, 64, 63
1, 414267, Control_c, 0, 64, 59
1, 414282, Control_c, 0, 64, 58
1, 414297, Control_c, 0, 64, 59
1, 414311, Control_c, 0, 64, 61
1, 414327, Control_c, 0, 64, 64
1, 414342, Control_c, 0, 64, 67
1, 414357, Control_c, 0, 64, 71
1, 414372, Control_c, 0, 64, 76
1, 414386, Control_c, 0, 64, 81
1, 414396, Note_off_c, 0, 67, 62
1, 414401, Control_c, 0, 64, 86
1, 414409, Note_off_c, 0, 64, 44
1, 414414, Note_off_c, 0, 55, 33
1, 414416, Control_c, 0, 64, 89
1, 414431, Control_c, 0, 64, 92
1, 414445, Control_c, 0, 64, 94
1, 414460, Control_c, 0, 64, 95
1, 414475, Control_c, 0, 64, 96
1, 414564, Control_c, 0, 64, 95
1, 414578, Control_c, 0, 64, 94
1, 414593, Control_c, 0, 64, 92
1, 414608, Control_c, 0, 64, 91
1, 414623, Control_c, 0, 64, 90
1, 414638, Control_c, 0, 64, 89
1, 414653, Control_c, 0, 64, 87
1, 414668, Control_c, 0, 64, 83
1, 414683, Control_c, 0, 64, 78
1, 414698, Control_c, 0, 64, 75
1, 414712, Control_c, 0, 64, 73
1, 414727, Control_c, 0, 64, 72
1, 414742, Control_c, 0, 64, 70
1, 414757, Control_c, 0, 64, 68
1, 414772, Control_c, 0, 64, 64
1, 414787, Control_c, 0, 64, 60
1, 414802, Control_c, 0, 64, 58
1, 414817, Control_c, 0, 64, 57
1, 414819, Note_on_c, 0, 71, 48
1, 414823, Note_on_c, 0, 65, 43
1, 414832, Control_c, 0, 64, 56
1, 414838, Note_on_c, 0, 55, 30
1, 414841, Note_on_c, 0, 62, 30
1, 414876, Control_c, 0, 64, 58
1, 414891, Control_c, 0, 64, 60
1, 414906, Control_c, 0, 64, 63
1, 414921, Control_c, 0, 64, 66
1, 414935, Control_c, 0, 64, 70
1, 414950, Control_c, 0, 64, 75
1, 414963, Note_off_c, 0, 65, 50
1, 414965, Control_c, 0, 64, 82
1, 414979, Note_off_c, 0, 71, 56
1, 414987, Control_c, 0, 64, 87
1, 415002, Control_c, 0, 64, 91
1, 415006, Note_off_c, 0, 62, 36
1, 415016, Control_c, 0, 64, 96
1, 415019, Note_off_c, 0, 55, 41
1, 415031, Control_c, 0, 64, 102
1, 415046, Control_c, 0, 64, 110
1, 415061, Control_c, 0, 64, 121
1, 415076, Control_c, 0, 64, 127
1, 415180, Control_c, 0, 64, 123
1, 415195, Control_c, 0, 64, 119
1, 415209, Control_c, 0, 64, 118
1, 415239, Control_c, 0, 64, 117
1, 415254, Control_c, 0, 64, 116
1, 415268, Control_c, 0, 64, 115
1, 415313, Control_c, 0, 64, 112
1, 415328, Control_c, 0, 64, 107
1, 415342, Control_c, 0, 64, 103
1, 415357, Control_c, 0, 64, 100
1, 415372, Control_c, 0, 64, 99
1, 415387, Control_c, 0, 64, 97
1, 415402, Control_c, 0, 64, 95
1, 415416, Control_c, 0, 64, 94
1, 415431, Control_c, 0, 64, 93
1, 415446, Control_c, 0, 64, 91
1, 415461, Control_c, 0, 64, 89
1, 415476, Control_c, 0, 64, 87
1, 415490, Control_c, 0, 64, 86
1, 415505, Control_c, 0, 64, 85
1, 415520, Control_c, 0, 64, 83
1, 415535, Control_c, 0, 64, 82
1, 415550, Control_c, 0, 64, 80
1, 415565, Control_c, 0, 64, 79
1, 415580, Control_c, 0, 64, 77
1, 415595, Control_c, 0, 64, 76
1, 415610, Control_c, 0, 64, 73
1, 415613, Note_on_c, 0, 72, 45
1, 415619, Note_on_c, 0, 60, 37
1, 415620, Note_on_c, 0, 64, 41
1, 415622, Note_on_c, 0, 55, 34
1, 415623, Note_on_c, 0, 48, 32
1, 415625, Control_c, 0, 64, 71
1, 415639, Control_c, 0, 64, 70
1, 415654, Control_c, 0, 64, 69
1, 415669, Control_c, 0, 64, 67
1, 415684, Control_c, 0, 64, 66
1, 415699, Control_c, 0, 64, 64
1, 415714, Control_c, 0, 64, 61
1, 415729, Control_c, 0, 64, 59
1, 415751, Control_c, 0, 64, 57
1, 415765, Control_c, 0, 64, 55
1, 415780, Control_c, 0, 64, 54
1, 415795, Control_c, 0, 64, 54
1, 415899, Control_c, 0, 64, 55
1, 415914, Control_c, 0, 64, 55
1, 415929, Control_c, 0, 64, 56
1, 415944, Control_c, 0, 64, 56
1, 415958, Control_c, 0, 64, 58
1, 415973, Control_c, 0, 64, 59
1, 415988, Control_c, 0, 64, 61
1, 416003, Control_c, 0, 64, 62
1, 416018, Control_c, 0, 64, 62
1, 416032, Control_c, 0, 64, 63
1, 416047, Control_c, 0, 64, 65
1, 416062, Control_c, 0, 64, 66
1, 416076, Control_c, 0, 64, 68
1, 416091, Control_c, 0, 64, 69
1, 416106, Control_c, 0, 64, 71
1, 416121, Control_c, 0, 64, 72
1, 416136, Control_c, 0, 64, 75
1, 416151, Control_c, 0, 64, 79
1, 416165, Control_c, 0, 64, 85
1, 416180, Control_c, 0, 64, 90
1, 416195, Control_c, 0, 64, 98
1, 416210, Control_c, 0, 64, 111
1, 416225, Control_c, 0, 64, 127
1, 416369, Note_off_c, 0, 48, 38
1, 416396, Note_off_c, 0, 55, 36
1, 416428, Note_off_c, 0, 64, 33
1, 416446, Note_off_c, 0, 60, 38
1, 416450, Note_off_c, 0, 72, 36
1, 417579, Note_on_c, 0, 59, 38
1, 417677, Control_c, 0, 64, 105
1, 417692, Control_c, 0, 64, 94
1, 417707, Control_c, 0, 64, 86
1, 417721, Control_c, 0, 64, 79
1, 417736, Control_c, 0, 64, 72
1, 417751, Control_c, 0, 64, 66
1, 417766, Control_c, 0, 64, 63
1, 417781, Control_c, 0, 64, 60
1, 417795, Control_c, 0, 64, 58
1, 417810, Control_c, 0, 64, 56
1, 417825, Control_c, 0, 64, 53
1, 417840, Control_c, 0, 64, 49
1, 417854, Control_c, 0, 64, 45
1, 417869, Control_c, 0, 64, 39
1, 417884, Control_c, 0, 64, 33
1, 417899, Control_c, 0, 64, 25
1, 417914, Control_c, 0, 64, 11
1, 417929, Control_c, 0, 64, 0
1, 418069, Note_on_c, 0, 60, 42
1, 418117, Note_off_c, 0, 59, 39
1, 418210, Note_off_c, 0, 60, 57
1, 418237, Note_on_c, 0, 62, 42
1, 418367, Control_c, 0, 64, 9
1, 418382, Control_c, 0, 64, 29
1, 418397, Control_c, 0, 64, 40
1, 418412, Control_c, 0, 64, 49
1, 418427, Control_c, 0, 64, 54
1, 418442, Control_c, 0, 64, 58
1, 418456, Control_c, 0, 64, 62
1, 418471, Control_c, 0, 64, 64
1, 418486, Control_c, 0, 64, 66
1, 418501, Control_c, 0, 64, 68
1, 418516, Control_c, 0, 64, 72
1, 418531, Control_c, 0, 64, 76
1, 418534, Note_off_c, 0, 62, 38
1, 418545, Control_c, 0, 64, 80
1, 418560, Control_c, 0, 64, 84
1, 418575, Control_c, 0, 64, 92
1, 418590, Control_c, 0, 64, 108
1, 418605, Control_c, 0, 64, 127
1, 418966, Note_on_c, 0, 79, 58
1, 418975, Note_on_c, 0, 67, 36
1, 418990, Note_on_c, 0, 62, 31
1, 419046, Note_off_c, 0, 67, 51
1, 419158, Note_off_c, 0, 79, 35
1, 419162, Note_off_c, 0, 62, 37
1, 419515, Note_on_c, 0, 62, 44
1, 420042, Note_off_c, 0, 62, 34
1, 420044, Note_on_c, 0, 60, 46
1, 420132, Control_c, 0, 64, 114
1, 420147, Control_c, 0, 64, 106
1, 420162, Control_c, 0, 64, 99
1, 420176, Control_c, 0, 64, 93
1, 420191, Control_c, 0, 64, 89
1, 420206, Control_c, 0, 64, 85
1, 420228, Control_c, 0, 64, 81
1, 420243, Control_c, 0, 64, 76
1, 420257, Control_c, 0, 64, 72
1, 420272, Control_c, 0, 64, 68
1, 420287, Control_c, 0, 64, 64
1, 420302, Control_c, 0, 64, 62
1, 420317, Control_c, 0, 64, 60
1, 420331, Control_c, 0, 64, 59
1, 420346, Control_c, 0, 64, 58
1, 420361, Control_c, 0, 64, 56
1, 420377, Control_c, 0, 64, 55
1, 420392, Control_c, 0, 64, 55
1, 420407, Control_c, 0, 64, 54
1, 420436, Control_c, 0, 64, 54
1, 420471, Note_on_c, 0, 62, 57
1, 420481, Control_c, 0, 64, 53
1, 420522, Note_off_c, 0, 60, 42
1, 420635, Note_on_c, 0, 63, 60
1, 420656, Note_off_c, 0, 62, 56
1, 420777, Control_c, 0, 64, 54
1, 420807, Control_c, 0, 64, 54
1, 420821, Control_c, 0, 64, 55
1, 420836, Control_c, 0, 64, 55
1, 420851, Control_c, 0, 64, 56
1, 420880, Control_c, 0, 64, 57
1, 420895, Control_c, 0, 64, 58
1, 420910, Control_c, 0, 64, 59
1, 420925, Control_c, 0, 64, 60
1, 420940, Control_c, 0, 64, 60
1, 420954, Control_c, 0, 64, 61
1, 420977, Control_c, 0, 64, 62
1, 420992, Control_c, 0, 64, 63
1, 421007, Control_c, 0, 64, 64
1, 421022, Control_c, 0, 64, 64
1, 421036, Control_c, 0, 64, 65
1, 421051, Control_c, 0, 64, 66
1, 421065, Control_c, 0, 64, 67
1, 421080, Control_c, 0, 64, 69
1, 421095, Control_c, 0, 64, 71
1, 421109, Control_c, 0, 64, 73
1, 421124, Control_c, 0, 64, 75
1, 421139, Control_c, 0, 64, 77
1, 421154, Control_c, 0, 64, 80
1, 421169, Control_c, 0, 64, 84
1, 421184, Control_c, 0, 64, 88
1, 421199, Control_c, 0, 64, 93
1, 421214, Control_c, 0, 64, 98
1, 421229, Control_c, 0, 64, 104
1, 421244, Control_c, 0, 64, 112
1, 421258, Control_c, 0, 64, 127
1, 421341, Note_off_c, 0, 63, 25
1, 421364, Note_on_c, 0, 79, 57
1, 421372, Note_on_c, 0, 67, 45
1, 421425, Note_off_c, 0, 67, 54
1, 421571, Note_off_c, 0, 79, 36
1, 421676, Note_on_c, 0, 62, 42
1, 421926, Note_off_c, 0, 62, 40
1, 421949, Note_on_c, 0, 60, 50
1, 422180, Note_on_c, 0, 55, 58
1, 422184, Note_off_c, 0, 60, 41
1, 422419, Note_on_c, 0, 75, 74
1, 422421, Note_on_c, 0, 60, 53
1, 422508, Note_off_c, 0, 55, 48
1, 422603, Note_off_c, 0, 75, 59
1, 422665, Note_on_c, 0, 77, 82
1, 422669, Note_on_c, 0, 62, 62
1, 422725, Note_off_c, 0, 60, 36
1, 422779, Note_off_c, 0, 77, 56
1, 422982, Note_on_c, 0, 63, 55
1, 422994, Note_on_c, 0, 79, 77
1, 423032, Note_off_c, 0, 62, 41
1, 423038, Control_c, 0, 64, 115
1, 423053, Control_c, 0, 64, 96
1, 423068, Control_c, 0, 64, 80
1, 423083, Control_c, 0, 64, 69
1, 423098, Control_c, 0, 64, 63
1, 423113, Control_c, 0, 64, 59
1, 423157, Control_c, 0, 64, 60
1, 423172, Control_c, 0, 64, 62
1, 423187, Control_c, 0, 64, 63
1, 423202, Control_c, 0, 64, 65
1, 423223, Control_c, 0, 64, 66
1, 423238, Control_c, 0, 64, 69
1, 423253, Control_c, 0, 64, 73
1, 423268, Control_c, 0, 64, 77
1, 423283, Control_c, 0, 64, 81
1, 423297, Control_c, 0, 64, 84
1, 423312, Control_c, 0, 64, 87
1, 423327, Control_c, 0, 64, 90
1, 423341, Note_on_c, 0, 75, 63
1, 423342, Control_c, 0, 64, 95
1, 423357, Control_c, 0, 64, 100
1, 423372, Control_c, 0, 64, 103
1, 423387, Control_c, 0, 64, 104
1, 423396, Note_off_c, 0, 79, 36
1, 423402, Control_c, 0, 64, 105
1, 423431, Control_c, 0, 64, 105
1, 423446, Control_c, 0, 64, 106
1, 423461, Control_c, 0, 64, 106
1, 423502, Note_off_c, 0, 75, 56
1, 423527, Note_off_c, 0, 63, 34
1, 423575, Note_on_c, 0, 71, 60
1, 423582, Note_on_c, 0, 62, 41
1, 423640, Control_c, 0, 64, 106
1, 423654, Control_c, 0, 64, 105
1, 423669, Control_c, 0, 64, 104
1, 423684, Control_c, 0, 64, 104
1, 423699, Control_c, 0, 64, 103
1, 423714, Control_c, 0, 64, 102
1, 423728, Control_c, 0, 64, 101
1, 423743, Control_c, 0, 64, 99
1, 423758, Control_c, 0, 64, 98
1, 423772, Control_c, 0, 64, 96
1, 423787, Control_c, 0, 64, 94
1, 423792, Note_off_c, 0, 71, 47
1, 423802, Control_c, 0, 64, 93
1, 423807, Note_on_c, 0, 72, 63
1, 423816, Note_on_c, 0, 60, 42
1, 423817, Control_c, 0, 64, 91
1, 423832, Control_c, 0, 64, 89
1, 423846, Control_c, 0, 64, 87
1, 423861, Note_off_c, 0, 62, 38
1, 423861, Control_c, 0, 64, 85
1, 423876, Control_c, 0, 64, 83
1, 423891, Control_c, 0, 64, 82
1, 423906, Control_c, 0, 64, 81
1, 423920, Control_c, 0, 64, 80
1, 423935, Control_c, 0, 64, 78
1, 423950, Control_c, 0, 64, 77
1, 423972, Control_c, 0, 64, 76
1, 423987, Control_c, 0, 64, 75
1, 424002, Control_c, 0, 64, 75
1, 424017, Control_c, 0, 64, 73
1, 424032, Control_c, 0, 64, 72
1, 424046, Control_c, 0, 64, 70
1, 424049, Note_off_c, 0, 60, 30
1, 424061, Control_c, 0, 64, 68
1, 424076, Control_c, 0, 64, 66
1, 424083, Note_off_c, 0, 72, 33
1, 424090, Control_c, 0, 64, 62
1, 424091, Note_on_c, 0, 67, 48
1, 424093, Note_on_c, 0, 64, 40
1, 424099, Note_on_c, 0, 55, 35
1, 424105, Control_c, 0, 64, 60
1, 424120, Control_c, 0, 64, 58
1, 424135, Control_c, 0, 64, 56
1, 424150, Control_c, 0, 64, 55
1, 424180, Control_c, 0, 64, 56
1, 424195, Control_c, 0, 64, 60
1, 424210, Control_c, 0, 64, 64
1, 424224, Control_c, 0, 64, 67
1, 424239, Control_c, 0, 64, 71
1, 424254, Control_c, 0, 64, 75
1, 424269, Control_c, 0, 64, 80
1, 424274, Note_off_c, 0, 67, 60
1, 424284, Control_c, 0, 64, 85
1, 424290, Note_off_c, 0, 64, 37
1, 424295, Note_off_c, 0, 55, 45
1, 424298, Control_c, 0, 64, 90
1, 424313, Control_c, 0, 64, 97
1, 424328, Control_c, 0, 64, 103
1, 424343, Control_c, 0, 64, 110
1, 424358, Control_c, 0, 64, 111
1, 424418, Control_c, 0, 64, 110
1, 424433, Control_c, 0, 64, 108
1, 424448, Control_c, 0, 64, 107
1, 424463, Control_c, 0, 64, 104
1, 424477, Control_c, 0, 64, 100
1, 424492, Control_c, 0, 64, 97
1, 424507, Control_c, 0, 64, 94
1, 424521, Control_c, 0, 64, 92
1, 424536, Control_c, 0, 64, 90
1, 424551, Control_c, 0, 64, 87
1, 424566, Control_c, 0, 64, 82
1, 424581, Control_c, 0, 64, 77
1, 424595, Control_c, 0, 64, 73
1, 424610, Control_c, 0, 64, 71
1, 424625, Control_c, 0, 64, 68
1, 424640, Control_c, 0, 64, 65
1, 424655, Control_c, 0, 64, 60
1, 424669, Control_c, 0, 64, 58
1, 424674, Note_on_c, 0, 71, 53
1, 424675, Note_on_c, 0, 65, 48
1, 424684, Control_c, 0, 64, 57
1, 424692, Note_on_c, 0, 55, 34
1, 424699, Note_on_c, 0, 62, 34
1, 424736, Control_c, 0, 64, 59
1, 424751, Control_c, 0, 64, 62
1, 424766, Control_c, 0, 64, 65
1, 424781, Control_c, 0, 64, 68
1, 424795, Control_c, 0, 64, 72
1, 424809, Control_c, 0, 64, 76
1, 424824, Control_c, 0, 64, 81
1, 424839, Control_c, 0, 64, 85
1, 424850, Note_off_c, 0, 62, 0
1, 424853, Control_c, 0, 64, 90
1, 424856, Note_off_c, 0, 71, 52
1, 424860, Note_off_c, 0, 65, 43
1, 424868, Control_c, 0, 64, 95
1, 424883, Control_c, 0, 64, 101
1, 424889, Poly_aftertouch_c, 0, 62, 0
1, 424891, Note_off_c, 0, 55, 26
1, 424898, Control_c, 0, 64, 107
1, 424913, Control_c, 0, 64, 114
1, 424927, Control_c, 0, 64, 117
1, 425134, Control_c, 0, 64, 115
1, 425149, Control_c, 0, 64, 114
1, 425165, Control_c, 0, 64, 113
1, 425209, Control_c, 0, 64, 111
1, 425224, Control_c, 0, 64, 109
1, 425239, Control_c, 0, 64, 107
1, 425254, Control_c, 0, 64, 107
1, 425269, Control_c, 0, 64, 105
1, 425283, Control_c, 0, 64, 103
1, 425298, Control_c, 0, 64, 100
1, 425313, Control_c, 0, 64, 97
1, 425328, Control_c, 0, 64, 93
1, 425342, Control_c, 0, 64, 90
1, 425357, Control_c, 0, 64, 86
1, 425369, Note_on_c, 0, 72, 54
1, 425372, Control_c, 0, 64, 83
1, 425378, Note_on_c, 0, 48, 37
1, 425378, Note_on_c, 0, 64, 47
1, 425381, Note_on_c, 0, 60, 37
1, 425387, Note_on_c, 0, 55, 37
1, 425387, Control_c, 0, 64, 78
1, 425402, Control_c, 0, 64, 74
1, 425417, Control_c, 0, 64, 69
1, 425432, Control_c, 0, 64, 64
1, 425447, Control_c, 0, 64, 60
1, 425469, Control_c, 0, 64, 59
1, 425484, Control_c, 0, 64, 58
1, 425498, Control_c, 0, 64, 57
1, 425513, Control_c, 0, 64, 56
1, 425572, Control_c, 0, 64, 57
1, 425587, Control_c, 0, 64, 58
1, 425602, Control_c, 0, 64, 59
1, 425617, Control_c, 0, 64, 61
1, 425631, Control_c, 0, 64, 62
1, 425646, Control_c, 0, 64, 64
1, 425661, Control_c, 0, 64, 65
1, 425676, Control_c, 0, 64, 67
1, 425691, Control_c, 0, 64, 70
1, 425706, Control_c, 0, 64, 73
1, 425721, Control_c, 0, 64, 76
1, 425736, Control_c, 0, 64, 79
1, 425750, Control_c, 0, 64, 82
1, 425765, Control_c, 0, 64, 87
1, 425780, Control_c, 0, 64, 91
1, 425795, Control_c, 0, 64, 95
1, 425810, Control_c, 0, 64, 100
1, 425824, Control_c, 0, 64, 107
1, 425831, Note_off_c, 0, 72, 35
1, 425839, Control_c, 0, 64, 113
1, 425845, Note_off_c, 0, 64, 36
1, 425854, Control_c, 0, 64, 118
1, 425862, Note_off_c, 0, 48, 37
1, 425884, Control_c, 0, 64, 119
1, 425898, Control_c, 0, 64, 121
1, 425913, Control_c, 0, 64, 123
1, 425921, Note_off_c, 0, 60, 37
1, 425941, Note_off_c, 0, 55, 41
1, 425942, Control_c, 0, 64, 127
1, 426151, Control_c, 0, 64, 123
1, 426165, Control_c, 0, 64, 121
1, 426180, Control_c, 0, 64, 119
1, 426195, Control_c, 0, 64, 118
1, 426218, Control_c, 0, 64, 116
1, 426233, Control_c, 0, 64, 114
1, 426247, Control_c, 0, 64, 113
1, 426262, Control_c, 0, 64, 111
1, 426277, Control_c, 0, 64, 108
1, 426292, Control_c, 0, 64, 107
1, 426308, Control_c, 0, 64, 106
1, 426322, Control_c, 0, 64, 105
1, 426337, Control_c, 0, 64, 104
1, 426352, Control_c, 0, 64, 102
1, 426366, Control_c, 0, 64, 101
1, 426381, Control_c, 0, 64, 100
1, 426396, Control_c, 0, 64, 99
1, 426411, Control_c, 0, 64, 98
1, 426426, Control_c, 0, 64, 97
1, 426440, Control_c, 0, 64, 96
1, 426455, Control_c, 0, 64, 95
1, 426470, Control_c, 0, 64, 94
1, 426485, Control_c, 0, 64, 93
1, 426499, Control_c, 0, 64, 92
1, 426514, Control_c, 0, 64, 92
1, 426529, Control_c, 0, 64, 91
1, 426544, Control_c, 0, 64, 90
1, 426559, Control_c, 0, 64, 89
1, 426573, Control_c, 0, 64, 87
1, 426588, Control_c, 0, 64, 86
1, 426603, Control_c, 0, 64, 85
1, 426618, Control_c, 0, 64, 85
1, 426648, Control_c, 0, 64, 84
1, 426663, Control_c, 0, 64, 83
1, 426678, Control_c, 0, 64, 82
1, 426692, Control_c, 0, 64, 81
1, 426707, Control_c, 0, 64, 80
1, 426737, Control_c, 0, 64, 79
1, 426752, Control_c, 0, 64, 78
1, 426767, Control_c, 0, 64, 77
1, 426782, Control_c, 0, 64, 75
1, 426797, Control_c, 0, 64, 71
1, 426812, Control_c, 0, 64, 67
1, 426827, Control_c, 0, 64, 63
1, 426840, Note_on_c, 0, 67, 46
1, 426842, Control_c, 0, 64, 60
1, 426854, Note_on_c, 0, 55, 31
1, 426854, Note_on_c, 0, 64, 33
1, 426856, Control_c, 0, 64, 59
1, 426871, Control_c, 0, 64, 57
1, 426886, Control_c, 0, 64, 56
1, 426916, Control_c, 0, 64, 57
1, 426930, Control_c, 0, 64, 60
1, 426945, Control_c, 0, 64, 63
1, 426967, Control_c, 0, 64, 66
1, 426982, Control_c, 0, 64, 71
1, 426997, Control_c, 0, 64, 77
1, 427012, Control_c, 0, 64, 83
1, 427027, Control_c, 0, 64, 89
1, 427035, Note_off_c, 0, 67, 46
1, 427041, Control_c, 0, 64, 94
1, 427054, Note_off_c, 0, 55, 41
1, 427054, Note_off_c, 0, 64, 32
1, 427056, Control_c, 0, 64, 100
1, 427071, Control_c, 0, 64, 108
1, 427086, Control_c, 0, 64, 119
1, 427101, Control_c, 0, 64, 127
1, 427234, Control_c, 0, 64, 121
1, 427249, Control_c, 0, 64, 118
1, 427263, Control_c, 0, 64, 116
1, 427278, Control_c, 0, 64, 114
1, 427293, Control_c, 0, 64, 112
1, 427308, Control_c, 0, 64, 110
1, 427322, Control_c, 0, 64, 107
1, 427337, Control_c, 0, 64, 105
1, 427352, Control_c, 0, 64, 104
1, 427367, Control_c, 0, 64, 103
1, 427382, Control_c, 0, 64, 101
1, 427396, Control_c, 0, 64, 96
1, 427411, Control_c, 0, 64, 90
1, 427426, Control_c, 0, 64, 81
1, 427441, Control_c, 0, 64, 71
1, 427453, Note_on_c, 0, 71, 45
1, 427456, Control_c, 0, 64, 64
1, 427460, Note_on_c, 0, 65, 33
1, 427466, Note_on_c, 0, 55, 31
1, 427471, Control_c, 0, 64, 61
1, 427480, Note_on_c, 0, 62, 28
1, 427486, Control_c, 0, 64, 60
1, 427515, Control_c, 0, 64, 61
1, 427530, Control_c, 0, 64, 62
1, 427545, Control_c, 0, 64, 64
1, 427560, Control_c, 0, 64, 66
1, 427575, Control_c, 0, 64, 69
1, 427590, Control_c, 0, 64, 73
1, 427605, Control_c, 0, 64, 78
1, 427620, Control_c, 0, 64, 85
1, 427635, Control_c, 0, 64, 90
1, 427643, Note_off_c, 0, 65, 40
1, 427643, Note_off_c, 0, 71, 39
1, 427650, Note_off_c, 0, 62, 29
1, 427650, Control_c, 0, 64, 97
1, 427664, Control_c, 0, 64, 104
1, 427672, Note_off_c, 0, 55, 36
1, 427679, Control_c, 0, 64, 114
1, 427694, Control_c, 0, 64, 127
1, 428228, Note_on_c, 0, 72, 44
1, 428246, Note_on_c, 0, 64, 36
1, 428250, Note_on_c, 0, 48, 34
1, 428251, Note_on_c, 0, 60, 29
1, 428262, Note_on_c, 0, 55, 27
1, 428264, Control_c, 0, 64, 119
1, 428279, Control_c, 0, 64, 117
1, 428293, Control_c, 0, 64, 114
1, 428308, Control_c, 0, 64, 110
1, 428323, Control_c, 0, 64, 104
1, 428337, Control_c, 0, 64, 98
1, 428352, Control_c, 0, 64, 91
1, 428368, Control_c, 0, 64, 81
1, 428383, Control_c, 0, 64, 73
1, 428398, Control_c, 0, 64, 66
1, 428413, Control_c, 0, 64, 61
1, 428427, Control_c, 0, 64, 59
1, 428442, Control_c, 0, 64, 59
1, 428464, Control_c, 0, 64, 58
1, 428479, Control_c, 0, 64, 57
1, 428523, Control_c, 0, 64, 59
1, 428538, Control_c, 0, 64, 60
1, 428553, Control_c, 0, 64, 62
1, 428568, Control_c, 0, 64, 64
1, 428583, Control_c, 0, 64, 66
1, 428597, Control_c, 0, 64, 68
1, 428612, Control_c, 0, 64, 70
1, 428627, Control_c, 0, 64, 74
1, 428642, Control_c, 0, 64, 78
1, 428657, Control_c, 0, 64, 82
1, 428672, Control_c, 0, 64, 86
1, 428687, Control_c, 0, 64, 90
1, 428702, Control_c, 0, 64, 95
1, 428716, Control_c, 0, 64, 102
1, 428731, Control_c, 0, 64, 109
1, 428737, Note_off_c, 0, 60, 40
1, 428746, Control_c, 0, 64, 119
1, 428747, Note_off_c, 0, 72, 31
1, 428760, Control_c, 0, 64, 127
1, 428796, Note_off_c, 0, 64, 40
1, 428815, Note_off_c, 0, 48, 32
1, 428835, Note_off_c, 0, 55, 32
1, 429885, Note_on_c, 0, 55, 44
1, 429898, Note_on_c, 0, 52, 35
1, 429902, Note_on_c, 0, 43, 30
1, 429924, Control_c, 0, 64, 123
1, 429939, Control_c, 0, 64, 118
1, 429962, Control_c, 0, 64, 112
1, 429977, Control_c, 0, 64, 104
1, 429992, Control_c, 0, 64, 92
1, 430007, Control_c, 0, 64, 81
1, 430021, Control_c, 0, 64, 72
1, 430036, Control_c, 0, 64, 67
1, 430052, Control_c, 0, 64, 67
1, 430096, Control_c, 0, 64, 67
1, 430111, Control_c, 0, 64, 68
1, 430126, Control_c, 0, 64, 70
1, 430141, Control_c, 0, 64, 74
1, 430156, Control_c, 0, 64, 78
1, 430170, Control_c, 0, 64, 84
1, 430185, Control_c, 0, 64, 90
1, 430200, Control_c, 0, 64, 98
1, 430214, Control_c, 0, 64, 105
1, 430216, Note_off_c, 0, 52, 43
1, 430229, Control_c, 0, 64, 113
1, 430244, Control_c, 0, 64, 127
1, 430267, Note_off_c, 0, 43, 35
1, 430275, Note_off_c, 0, 55, 49
1, 430592, Note_on_c, 0, 59, 45
1, 430601, Note_on_c, 0, 53, 43
1, 430612, Note_on_c, 0, 50, 27
1, 430613, Note_on_c, 0, 43, 29
1, 430644, Control_c, 0, 64, 103
1, 430659, Control_c, 0, 64, 83
1, 430673, Control_c, 0, 64, 70
1, 430688, Control_c, 0, 64, 62
1, 430711, Control_c, 0, 64, 59
1, 430756, Control_c, 0, 64, 60
1, 430771, Control_c, 0, 64, 63
1, 430785, Control_c, 0, 64, 65
1, 430800, Control_c, 0, 64, 69
1, 430815, Control_c, 0, 64, 74
1, 430830, Control_c, 0, 64, 79
1, 430845, Control_c, 0, 64, 84
1, 430860, Control_c, 0, 64, 90
1, 430875, Control_c, 0, 64, 95
1, 430890, Control_c, 0, 64, 104
1, 430905, Control_c, 0, 64, 118
1, 430919, Control_c, 0, 64, 127
1, 430967, Note_off_c, 0, 53, 41
1, 430985, Note_off_c, 0, 50, 37
1, 431019, Note_off_c, 0, 43, 37
1, 431020, Note_off_c, 0, 59, 43
1, 431618, Note_on_c, 0, 60, 48
1, 431648, Note_on_c, 0, 52, 37
1, 431651, Note_on_c, 0, 48, 33
1, 431656, Note_on_c, 0, 36, 32
1, 431659, Note_on_c, 0, 43, 31
1, 431756, Control_c, 0, 64, 108
1, 431771, Control_c, 0, 64, 97
1, 431785, Control_c, 0, 64, 88
1, 431800, Control_c, 0, 64, 80
1, 431815, Control_c, 0, 64, 71
1, 431830, Control_c, 0, 64, 65
1, 431845, Control_c, 0, 64, 62
1, 431859, Control_c, 0, 64, 61
1, 431874, Control_c, 0, 64, 60
1, 431889, Control_c, 0, 64, 59
1, 431904, Control_c, 0, 64, 58
1, 431919, Control_c, 0, 64, 58
1, 431963, Control_c, 0, 64, 57
1, 432082, Control_c, 0, 64, 58
1, 432097, Control_c, 0, 64, 59
1, 432112, Control_c, 0, 64, 59
1, 432126, Control_c, 0, 64, 60
1, 432141, Control_c, 0, 64, 61
1, 432156, Control_c, 0, 64, 62
1, 432171, Control_c, 0, 64, 63
1, 432185, Control_c, 0, 64, 64
1, 432207, Control_c, 0, 64, 66
1, 432222, Control_c, 0, 64, 67
1, 432237, Control_c, 0, 64, 69
1, 432252, Control_c, 0, 64, 71
1, 432267, Control_c, 0, 64, 74
1, 432282, Control_c, 0, 64, 77
1, 432297, Control_c, 0, 64, 80
1, 432312, Control_c, 0, 64, 84
1, 432327, Control_c, 0, 64, 87
1, 432341, Control_c, 0, 64, 92
1, 432356, Control_c, 0, 64, 95
1, 432371, Control_c, 0, 64, 99
1, 432386, Control_c, 0, 64, 106
1, 432401, Control_c, 0, 64, 121
1, 432416, Control_c, 0, 64, 127
1, 432535, Note_off_c, 0, 52, 40
1, 432597, Note_off_c, 0, 60, 34
1, 432619, Note_off_c, 0, 36, 36
1, 432711, Note_off_c, 0, 48, 32
1, 432750, Note_off_c, 0, 43, 29
1, 433808, Note_on_c, 0, 60, 49
1, 433812, Note_on_c, 0, 52, 40
1, 433813, Note_on_c, 0, 55, 40
1, 433824, Note_on_c, 0, 48, 38
1, 433825, Note_on_c, 0, 43, 35
1, 433832, Note_on_c, 0, 36, 34
1, 434033, Control_c, 0, 64, 121
1, 434047, Control_c, 0, 64, 102
1, 434062, Control_c, 0, 64, 89
1, 434077, Control_c, 0, 64, 80
1, 434092, Control_c, 0, 64, 74
1, 434107, Control_c, 0, 64, 70
1, 434122, Control_c, 0, 64, 67
1, 434136, Control_c, 0, 64, 65
1, 434151, Control_c, 0, 64, 64
1, 434166, Control_c, 0, 64, 63
1, 434181, Control_c, 0, 64, 62
1, 434211, Control_c, 0, 64, 62
1, 434240, Control_c, 0, 64, 61
1, 434344, Control_c, 0, 64, 62
1, 434359, Control_c, 0, 64, 62
1, 434373, Control_c, 0, 64, 63
1, 434388, Control_c, 0, 64, 63
1, 434403, Control_c, 0, 64, 64
1, 434418, Control_c, 0, 64, 64
1, 434433, Control_c, 0, 64, 65
1, 434455, Control_c, 0, 64, 67
1, 434470, Control_c, 0, 64, 69
1, 434485, Control_c, 0, 64, 72
1, 434500, Control_c, 0, 64, 74
1, 434515, Control_c, 0, 64, 76
1, 434529, Control_c, 0, 64, 79
1, 434544, Control_c, 0, 64, 82
1, 434559, Control_c, 0, 64, 86
1, 434573, Control_c, 0, 64, 91
1, 434588, Control_c, 0, 64, 95
1, 434603, Control_c, 0, 64, 100
1, 434618, Control_c, 0, 64, 109
1, 434633, Control_c, 0, 64, 127
1, 434941, Note_off_c, 0, 52, 42
1, 434973, Note_off_c, 0, 55, 30
1, 435035, Note_off_c, 0, 60, 34
1, 435049, Note_off_c, 0, 48, 28
1, 435069, Note_off_c, 0, 36, 30
1, 435122, Note_off_c, 0, 43, 28
1, 436723, Note_on_c, 0, 60, 37
1, 436724, Note_on_c, 0, 52, 32
1, 436730, Note_on_c, 0, 55, 35
1, 436749, Note_on_c, 0, 48, 29
1, 436751, Note_on_c, 0, 43, 30
1, 436756, Note_on_c, 0, 36, 28
1, 437160, Control_c, 0, 64, 119
1, 437175, Control_c, 0, 64, 114
1, 437190, Control_c, 0, 64, 108
1, 437205, Control_c, 0, 64, 102
1, 437219, Control_c, 0, 64, 96
1, 437234, Control_c, 0, 64, 91
1, 437249, Control_c, 0, 64, 88
1, 437263, Control_c, 0, 64, 85
1, 437278, Control_c, 0, 64, 84
1, 437293, Control_c, 0, 64, 82
1, 437308, Control_c, 0, 64, 80
1, 437323, Control_c, 0, 64, 77
1, 437338, Control_c, 0, 64, 74
1, 437352, Control_c, 0, 64, 73
1, 437367, Control_c, 0, 64, 73
1, 437397, Control_c, 0, 64, 72
1, 437412, Control_c, 0, 64, 71
1, 437427, Control_c, 0, 64, 69
1, 437449, Control_c, 0, 64, 69
1, 437464, Control_c, 0, 64, 68
1, 437493, Control_c, 0, 64, 68
1, 437508, Control_c, 0, 64, 67
1, 437523, Control_c, 0, 64, 66
1, 437539, Control_c, 0, 64, 65
1, 437583, Control_c, 0, 64, 64
1, 437612, Control_c, 0, 64, 64
1, 437642, Control_c, 0, 64, 63
1, 437701, Control_c, 0, 64, 63
1, 437761, Control_c, 0, 64, 62
1, 438747, Control_c, 0, 64, 63
1, 439184, Control_c, 0, 64, 63
1, 439257, Control_c, 0, 64, 64
1, 439302, Control_c, 0, 64, 64
1, 439362, Control_c, 0, 64, 65
1, 439421, Control_c, 0, 64, 65
1, 439450, Control_c, 0, 64, 66
1, 439480, Control_c, 0, 64, 66
1, 439495, Control_c, 0, 64, 67
1, 439524, Control_c, 0, 64, 67
1, 439540, Control_c, 0, 64, 68
1, 439555, Control_c, 0, 64, 69
1, 439570, Control_c, 0, 64, 70
1, 439585, Control_c, 0, 64, 71
1, 439600, Control_c, 0, 64, 73
1, 439614, Control_c, 0, 64, 76
1, 439629, Control_c, 0, 64, 79
1, 439644, Control_c, 0, 64, 82
1, 439659, Control_c, 0, 64, 85
1, 439673, Control_c, 0, 64, 88
1, 439695, Control_c, 0, 64, 91
1, 439710, Control_c, 0, 64, 95
1, 439725, Control_c, 0, 64, 100
1, 439740, Control_c, 0, 64, 110
1, 439755, Control_c, 0, 64, 127
1, 440008, Note_off_c, 0, 48, 33
1, 440041, Note_off_c, 0, 36, 38
1, 440089, Note_off_c, 0, 52, 43
1, 440156, Note_off_c, 0, 43, 33
1, 440159, Note_off_c, 0, 60, 32
1, 440199, Note_off_c, 0, 55, 43
1, 441111, Control_c, 0, 64, 117
1, 441126, Control_c, 0, 64, 113
1, 441141, Control_c, 0, 64, 111
1, 441156, Control_c, 0, 64, 110
1, 441171, Control_c, 0, 64, 108
1, 441193, Control_c, 0, 64, 107
1, 441208, Control_c, 0, 64, 106
1, 441223, Control_c, 0, 64, 105
1, 441238, Control_c, 0, 64, 104
1, 441252, Control_c, 0, 64, 102
1, 441267, Control_c, 0, 64, 101
1, 441283, Control_c, 0, 64, 101
1, 441313, Control_c, 0, 64, 100
1, 441387, Control_c, 0, 64, 100
1, 441401, Control_c, 0, 64, 99
1, 441416, Control_c, 0, 64, 97
1, 441431, Control_c, 0, 64, 97
1, 441460, Control_c, 0, 64, 96
1, 441475, Control_c, 0, 64, 95
1, 441490, Control_c, 0, 64, 94
1, 441505, Control_c, 0, 64, 92
1, 441520, Control_c, 0, 64, 91
1, 441535, Control_c, 0, 64, 91
1, 441564, Control_c, 0, 64, 90
1, 441579, Control_c, 0, 64, 89
1, 441594, Control_c, 0, 64, 87
1, 441609, Control_c, 0, 64, 86
1, 441624, Control_c, 0, 64, 84
1, 441638, Control_c, 0, 64, 83
1, 441653, Control_c, 0, 64, 82
1, 441668, Control_c, 0, 64, 81
1, 441683, Control_c, 0, 64, 79
1, 441698, Control_c, 0, 64, 77
1, 441712, Control_c, 0, 64, 75
1, 441727, Control_c, 0, 64, 73
1, 441742, Control_c, 0, 64, 71
1, 441757, Control_c, 0, 64, 70
1, 441772, Control_c, 0, 64, 69
1, 441786, Control_c, 0, 64, 67
1, 441801, Control_c, 0, 64, 66
1, 441816, Control_c, 0, 64, 64
1, 441830, Control_c, 0, 64, 62
1, 441845, Control_c, 0, 64, 60
1, 441860, Control_c, 0, 64, 59
1, 441875, Control_c, 0, 64, 57
1, 441890, Control_c, 0, 64, 56
1, 441904, Control_c, 0, 64, 55
1, 441919, Control_c, 0, 64, 54
1, 441943, Control_c, 0, 64, 53
1, 441958, Control_c, 0, 64, 52
1, 441973, Control_c, 0, 64, 51
1, 441988, Control_c, 0, 64, 50
1, 442003, Control_c, 0, 64, 50
1, 442017, Control_c, 0, 64, 49
1, 442031, Control_c, 0, 64, 48
1, 442046, Control_c, 0, 64, 48
1, 442061, Control_c, 0, 64, 47
1, 442075, Control_c, 0, 64, 47
1, 442090, Control_c, 0, 64, 46
1, 442105, Control_c, 0, 64, 46
1, 442120, Control_c, 0, 64, 45
1, 442135, Control_c, 0, 64, 45
1, 442149, Control_c, 0, 64, 44
1, 442179, Control_c, 0, 64, 43
1, 442194, Control_c, 0, 64, 41
1, 442209, Control_c, 0, 64, 37
1, 442223, Control_c, 0, 64, 30
1, 442238, Control_c, 0, 64, 12
1, 442253, Control_c, 0, 64, 0
1, 442328, End_track
0, 0, End_of_file
