0, 0, Header, 0, 1, 384
1, 0, Start_track
1, 0, Title_t, "MendelssohnOp54--Zhou           "
1, 0, Text_t, "2011 ePiano Junior Competition"
1, 0, Text_t, "captured in spring and summer 2011"
1, 0, Text_t, "http://www.piano-e-competition.com/"
1, 0, Text_t, "standard-resolution version"
1, 0, Text_t, "File processed for distribution with software designed and coded by Dr. John Q. Walker, founder of Zenph Sound Innovations"
1, 0, Instrument_name_t, "Yamaha Disklavier Pro Mark IV concert grand piano, model DCFIIISM4PRO"
1, 0, Sequencer_specific, 39, 67, 113, 0, 1, 0, 1, 0, 77, 101, 110, 100, 101, 108, 115, 115, 111, 104, 110, 32, 79, 112, 53, 52, 65, 110, 110, 105, 101, 32, 90, 104, 111, 117, 32, 32, 32, 32, 32, 32
1, 0, Sequencer_specific, 6, 67, 113, 0, 0, 0, 69
1, 0, System_exclusive, 21, 67, 113, 126, 21, 0, 2, 2, 2, 5, 12, 8, 4, 14, 1, 4, 9, 13, 11, 5, 6, 247
1, 0, Sequencer_specific, 5, 67, 123, 12, 2, 1
1, 0, Tempo, 512820
1, 0, Time_signature, 4, 2, 24, 8
1, 0, System_exclusive, 5, 126, 127, 9, 1, 247
1, 1, System_exclusive, 8, 67, 16, 76, 0, 0, 126, 0, 247
1, 2, System_exclusive, 8, 67, 16, 76, 8, 9, 7, 1, 247
1, 3, Control_c, 0, 0, 108
1, 3, Control_c, 1, 0, 108
1, 3, Control_c, 2, 0, 0
1, 3, Control_c, 3, 0, 0
1, 3, Control_c, 4, 0, 0
1, 3, Control_c, 5, 0, 0
1, 3, Control_c, 6, 0, 0
1, 3, Control_c, 7, 0, 0
1, 3, Control_c, 8, 0, 0
1, 3, Control_c, 9, 0, 127
1, 3, Control_c, 10, 0, 0
1, 3, Control_c, 11, 0, 0
1, 3, Control_c, 12, 0, 0
1, 3, Control_c, 13, 0, 0
1, 3, Control_c, 14, 0, 0
1, 3, Control_c, 15, 0, 0
1, 4, Control_c, 0, 32, 0
1, 4, Control_c, 1, 32, 0
1, 4, Control_c, 2, 32, 0
1, 4, Control_c, 3, 32, 0
1, 4, Control_c, 4, 32, 0
1, 4, Control_c, 5, 32, 0
1, 4, Control_c, 6, 32, 0
1, 4, Control_c, 7, 32, 0
1, 4, Control_c, 8, 32, 0
1, 4, Control_c, 9, 32, 0
1, 4, Control_c, 10, 32, 0
1, 4, Control_c, 11, 32, 0
1, 4, Control_c, 12, 32, 0
1, 4, Control_c, 13, 32, 0
1, 4, Control_c, 14, 32, 0
1, 4, Control_c, 15, 32, 0
1, 5, Program_c, 0, 0
1, 5, Program_c, 1, 0
1, 5, Program_c, 2, 0
1, 5, Program_c, 3, 0
1, 5, Program_c, 4, 0
1, 5, Program_c, 5, 0
1, 5, Program_c, 6, 0
1, 5, Program_c, 7, 0
1, 5, Program_c, 8, 0
1, 5, Program_c, 9, 0
1, 5, Program_c, 10, 0
1, 5, Program_c, 11, 0
1, 5, Program_c, 12, 0
1, 5, Program_c, 13, 0
1, 5, Program_c, 14, 0
1, 5, Program_c, 15, 0
1, 6, Control_c, 0, 7, 100
1, 6, Control_c, 1, 7, 100
1, 6, Control_c, 2, 7, 100
1, 6, Control_c, 3, 7, 100
1, 6, Control_c, 4, 7, 100
1, 6, Control_c, 5, 7, 100
1, 6, Control_c, 6, 7, 100
1, 6, Control_c, 7, 7, 100
1, 6, Control_c, 8, 7, 100
1, 6, Control_c, 9, 7, 100
1, 6, Control_c, 10, 7, 100
1, 6, Control_c, 11, 7, 100
1, 6, Control_c, 12, 7, 100
1, 6, Control_c, 13, 7, 100
1, 6, Control_c, 14, 7, 100
1, 6, Control_c, 15, 7, 100
1, 42, Control_c, 0, 64, 15
1, 79, Control_c, 0, 64, 31
1, 116, Control_c, 0, 64, 46
1, 153, Control_c, 0, 64, 63
1, 190, Control_c, 0, 64, 77
1, 226, Control_c, 0, 64, 94
1, 263, Control_c, 0, 64, 108
1, 300, Control_c, 0, 64, 127
1, 380, Note_on_c, 0, 69, 57
1, 392, Note_on_c, 0, 62, 36
1, 392, Note_on_c, 0, 65, 44
1, 417, Note_on_c, 0, 50, 21
1, 651, Note_off_c, 0, 50, 37
1, 705, Note_off_c, 0, 65, 52
1, 830, Note_off_c, 0, 62, 26
1, 1021, Note_on_c, 0, 60, 35
1, 1021, Note_on_c, 0, 64, 40
1, 1286, Note_off_c, 0, 60, 40
1, 1415, Note_off_c, 0, 64, 40
1, 1663, Note_on_c, 0, 62, 40
1, 1668, Note_on_c, 0, 59, 35
1, 1668, Note_on_c, 0, 52, 35
1, 1727, Control_c, 0, 64, 108
1, 1742, Control_c, 0, 64, 96
1, 1756, Control_c, 0, 64, 86
1, 1771, Control_c, 0, 64, 76
1, 1786, Control_c, 0, 64, 66
1, 1801, Control_c, 0, 64, 52
1, 1816, Control_c, 0, 64, 30
1, 1830, Control_c, 0, 64, 15
1, 1845, Control_c, 0, 64, 12
1, 1860, Control_c, 0, 64, 9
1, 1891, Control_c, 0, 64, 17
1, 1906, Control_c, 0, 64, 31
1, 1920, Control_c, 0, 64, 43
1, 1935, Control_c, 0, 64, 51
1, 1950, Control_c, 0, 64, 56
1, 1972, Control_c, 0, 64, 60
1, 1987, Control_c, 0, 64, 63
1, 2001, Control_c, 0, 64, 66
1, 2016, Control_c, 0, 64, 68
1, 2031, Control_c, 0, 64, 72
1, 2046, Control_c, 0, 64, 77
1, 2061, Control_c, 0, 64, 82
1, 2076, Control_c, 0, 64, 90
1, 2077, Note_off_c, 0, 52, 43
1, 2091, Control_c, 0, 64, 100
1, 2102, Note_off_c, 0, 59, 42
1, 2106, Control_c, 0, 64, 127
1, 2205, Note_off_c, 0, 69, 41
1, 2222, Note_off_c, 0, 62, 30
1, 2288, Note_on_c, 0, 68, 57
1, 2460, Note_off_c, 0, 68, 58
1, 2940, Note_on_c, 0, 74, 73
1, 2943, Note_on_c, 0, 70, 62
1, 2958, Note_on_c, 0, 55, 41
1, 2960, Note_on_c, 0, 67, 42
1, 3047, Control_c, 0, 64, 108
1, 3062, Control_c, 0, 64, 96
1, 3076, Control_c, 0, 64, 87
1, 3091, Control_c, 0, 64, 79
1, 3106, Control_c, 0, 64, 69
1, 3121, Control_c, 0, 64, 61
1, 3136, Control_c, 0, 64, 44
1, 3150, Control_c, 0, 64, 32
1, 3180, Control_c, 0, 64, 33
1, 3194, Control_c, 0, 64, 40
1, 3209, Control_c, 0, 64, 48
1, 3224, Control_c, 0, 64, 55
1, 3239, Control_c, 0, 64, 59
1, 3254, Control_c, 0, 64, 62
1, 3268, Control_c, 0, 64, 65
1, 3283, Control_c, 0, 64, 69
1, 3298, Control_c, 0, 64, 75
1, 3313, Control_c, 0, 64, 82
1, 3328, Control_c, 0, 64, 89
1, 3343, Control_c, 0, 64, 96
1, 3358, Control_c, 0, 64, 105
1, 3368, Note_off_c, 0, 55, 33
1, 3373, Control_c, 0, 64, 119
1, 3388, Control_c, 0, 64, 127
1, 3447, Note_off_c, 0, 70, 39
1, 3511, Note_off_c, 0, 67, 40
1, 3591, Note_on_c, 0, 69, 54
1, 3606, Note_on_c, 0, 65, 40
1, 3839, Control_c, 0, 64, 125
1, 3854, Control_c, 0, 64, 122
1, 3868, Note_off_c, 0, 65, 40
1, 3869, Control_c, 0, 64, 120
1, 3913, Control_c, 0, 64, 119
1, 3942, Control_c, 0, 64, 116
1, 3957, Control_c, 0, 64, 115
1, 3972, Control_c, 0, 64, 113
1, 3987, Control_c, 0, 64, 112
1, 4002, Control_c, 0, 64, 112
1, 4017, Control_c, 0, 64, 111
1, 4031, Control_c, 0, 64, 110
1, 4037, Note_off_c, 0, 69, 38
1, 4046, Control_c, 0, 64, 110
1, 4076, Control_c, 0, 64, 109
1, 4091, Control_c, 0, 64, 108
1, 4106, Control_c, 0, 64, 107
1, 4121, Control_c, 0, 64, 107
1, 4136, Control_c, 0, 64, 106
1, 4150, Control_c, 0, 64, 106
1, 4165, Control_c, 0, 64, 105
1, 4180, Control_c, 0, 64, 104
1, 4195, Control_c, 0, 64, 103
1, 4201, Note_on_c, 0, 67, 47
1, 4207, Note_on_c, 0, 57, 38
1, 4210, Control_c, 0, 64, 102
1, 4210, Note_on_c, 0, 64, 36
1, 4231, Control_c, 0, 64, 100
1, 4246, Control_c, 0, 64, 98
1, 4261, Control_c, 0, 64, 96
1, 4277, Control_c, 0, 64, 93
1, 4292, Control_c, 0, 64, 90
1, 4307, Control_c, 0, 64, 86
1, 4321, Control_c, 0, 64, 82
1, 4336, Control_c, 0, 64, 79
1, 4351, Control_c, 0, 64, 74
1, 4366, Control_c, 0, 64, 68
1, 4380, Control_c, 0, 64, 62
1, 4395, Control_c, 0, 64, 51
1, 4410, Control_c, 0, 64, 41
1, 4425, Control_c, 0, 64, 38
1, 4440, Control_c, 0, 64, 35
1, 4455, Control_c, 0, 64, 33
1, 4470, Control_c, 0, 64, 32
1, 4499, Control_c, 0, 64, 33
1, 4514, Control_c, 0, 64, 36
1, 4529, Control_c, 0, 64, 41
1, 4544, Control_c, 0, 64, 47
1, 4559, Control_c, 0, 64, 51
1, 4574, Control_c, 0, 64, 55
1, 4589, Control_c, 0, 64, 58
1, 4604, Control_c, 0, 64, 60
1, 4619, Control_c, 0, 64, 62
1, 4634, Control_c, 0, 64, 64
1, 4648, Control_c, 0, 64, 66
1, 4663, Control_c, 0, 64, 68
1, 4678, Control_c, 0, 64, 71
1, 4693, Control_c, 0, 64, 76
1, 4708, Control_c, 0, 64, 81
1, 4722, Control_c, 0, 64, 86
1, 4737, Control_c, 0, 64, 93
1, 4752, Control_c, 0, 64, 101
1, 4766, Control_c, 0, 64, 111
1, 4781, Control_c, 0, 64, 127
1, 4827, Note_off_c, 0, 64, 40
1, 4840, Note_on_c, 0, 73, 59
1, 4854, Note_off_c, 0, 57, 41
1, 4873, Note_off_c, 0, 74, 48
1, 5020, Note_off_c, 0, 67, 38
1, 5113, Note_off_c, 0, 73, 59
1, 5523, Note_on_c, 0, 77, 78
1, 5529, Note_on_c, 0, 65, 57
1, 5549, Note_on_c, 0, 62, 37
1, 5604, Control_c, 0, 64, 107
1, 5619, Control_c, 0, 64, 89
1, 5634, Control_c, 0, 64, 75
1, 5649, Control_c, 0, 64, 65
1, 5663, Control_c, 0, 64, 56
1, 5678, Control_c, 0, 64, 49
1, 5693, Control_c, 0, 64, 50
1, 5708, Control_c, 0, 64, 54
1, 5731, Control_c, 0, 64, 57
1, 5745, Control_c, 0, 64, 61
1, 5760, Control_c, 0, 64, 63
1, 5775, Control_c, 0, 64, 66
1, 5790, Control_c, 0, 64, 69
1, 5804, Control_c, 0, 64, 76
1, 5819, Control_c, 0, 64, 83
1, 5834, Control_c, 0, 64, 91
1, 5849, Control_c, 0, 64, 98
1, 5864, Control_c, 0, 64, 102
1, 5872, Note_off_c, 0, 65, 36
1, 5880, Control_c, 0, 64, 103
1, 6013, Control_c, 0, 64, 103
1, 6027, Control_c, 0, 64, 102
1, 6107, Note_off_c, 0, 62, 36
1, 6120, Note_off_c, 0, 77, 56
1, 6175, Control_c, 0, 64, 101
1, 6179, Note_on_c, 0, 76, 66
1, 6190, Note_on_c, 0, 57, 38
1, 6190, Control_c, 0, 64, 99
1, 6192, Note_on_c, 0, 61, 41
1, 6197, Note_on_c, 0, 67, 50
1, 6205, Control_c, 0, 64, 95
1, 6219, Control_c, 0, 64, 86
1, 6234, Control_c, 0, 64, 74
1, 6249, Control_c, 0, 64, 65
1, 6264, Control_c, 0, 64, 54
1, 6279, Control_c, 0, 64, 50
1, 6294, Control_c, 0, 64, 51
1, 6309, Control_c, 0, 64, 54
1, 6324, Control_c, 0, 64, 57
1, 6339, Control_c, 0, 64, 61
1, 6354, Control_c, 0, 64, 64
1, 6368, Control_c, 0, 64, 67
1, 6383, Control_c, 0, 64, 70
1, 6398, Control_c, 0, 64, 75
1, 6412, Control_c, 0, 64, 80
1, 6427, Control_c, 0, 64, 86
1, 6442, Control_c, 0, 64, 91
1, 6457, Control_c, 0, 64, 95
1, 6479, Control_c, 0, 64, 96
1, 6521, Note_off_c, 0, 67, 42
1, 6570, Note_off_c, 0, 61, 35
1, 6575, Note_off_c, 0, 76, 58
1, 6613, Note_off_c, 0, 57, 38
1, 6642, Control_c, 0, 64, 95
1, 6687, Control_c, 0, 64, 95
1, 6762, Control_c, 0, 64, 94
1, 6777, Control_c, 0, 64, 94
1, 6791, Control_c, 0, 64, 93
1, 6802, Note_on_c, 0, 74, 56
1, 6806, Control_c, 0, 64, 92
1, 6817, Note_on_c, 0, 65, 45
1, 6820, Note_on_c, 0, 58, 33
1, 6821, Control_c, 0, 64, 91
1, 6836, Control_c, 0, 64, 88
1, 6837, Note_on_c, 0, 62, 30
1, 6850, Control_c, 0, 64, 84
1, 6865, Control_c, 0, 64, 76
1, 6880, Control_c, 0, 64, 67
1, 6895, Control_c, 0, 64, 59
1, 6910, Control_c, 0, 64, 46
1, 6924, Control_c, 0, 64, 39
1, 6939, Control_c, 0, 64, 38
1, 6984, Control_c, 0, 64, 41
1, 6998, Control_c, 0, 64, 47
1, 7013, Control_c, 0, 64, 55
1, 7028, Control_c, 0, 64, 59
1, 7042, Control_c, 0, 64, 62
1, 7057, Control_c, 0, 64, 64
1, 7072, Control_c, 0, 64, 68
1, 7087, Control_c, 0, 64, 73
1, 7102, Control_c, 0, 64, 83
1, 7117, Control_c, 0, 64, 92
1, 7128, Note_off_c, 0, 62, 41
1, 7132, Control_c, 0, 64, 102
1, 7147, Control_c, 0, 64, 111
1, 7161, Control_c, 0, 64, 120
1, 7176, Control_c, 0, 64, 122
1, 7247, Note_off_c, 0, 65, 31
1, 7272, Control_c, 0, 64, 119
1, 7287, Control_c, 0, 64, 116
1, 7291, Note_off_c, 0, 74, 46
1, 7302, Control_c, 0, 64, 114
1, 7314, Note_off_c, 0, 58, 33
1, 7316, Control_c, 0, 64, 113
1, 7331, Control_c, 0, 64, 112
1, 7346, Control_c, 0, 64, 112
1, 7361, Control_c, 0, 64, 110
1, 7376, Control_c, 0, 64, 109
1, 7391, Control_c, 0, 64, 107
1, 7406, Control_c, 0, 64, 105
1, 7421, Control_c, 0, 64, 103
1, 7436, Control_c, 0, 64, 101
1, 7439, Note_on_c, 0, 72, 54
1, 7445, Note_on_c, 0, 69, 43
1, 7450, Control_c, 0, 64, 99
1, 7452, Note_on_c, 0, 65, 35
1, 7455, Note_on_c, 0, 53, 36
1, 7465, Control_c, 0, 64, 97
1, 7480, Control_c, 0, 64, 91
1, 7495, Control_c, 0, 64, 82
1, 7510, Control_c, 0, 64, 72
1, 7525, Control_c, 0, 64, 63
1, 7540, Control_c, 0, 64, 54
1, 7555, Control_c, 0, 64, 48
1, 7598, Control_c, 0, 64, 48
1, 7613, Control_c, 0, 64, 51
1, 7628, Control_c, 0, 64, 56
1, 7643, Control_c, 0, 64, 60
1, 7658, Control_c, 0, 64, 63
1, 7672, Control_c, 0, 64, 65
1, 7687, Control_c, 0, 64, 68
1, 7702, Control_c, 0, 64, 73
1, 7717, Control_c, 0, 64, 79
1, 7732, Control_c, 0, 64, 86
1, 7737, Note_off_c, 0, 72, 58
1, 7746, Control_c, 0, 64, 91
1, 7748, Note_off_c, 0, 53, 39
1, 7758, Note_off_c, 0, 65, 39
1, 7761, Control_c, 0, 64, 96
1, 7776, Control_c, 0, 64, 101
1, 7790, Control_c, 0, 64, 103
1, 7850, Control_c, 0, 64, 104
1, 7939, Control_c, 0, 64, 103
1, 7954, Control_c, 0, 64, 103
1, 7990, Control_c, 0, 64, 102
1, 8050, Control_c, 0, 64, 102
1, 8065, Control_c, 0, 64, 101
1, 8083, Note_off_c, 0, 69, 40
1, 8094, Control_c, 0, 64, 101
1, 8139, Control_c, 0, 64, 100
1, 8154, Control_c, 0, 64, 100
1, 8184, Control_c, 0, 64, 99
1, 8198, Control_c, 0, 64, 98
1, 8213, Control_c, 0, 64, 98
1, 8226, Note_on_c, 0, 72, 57
1, 8228, Control_c, 0, 64, 97
1, 8238, Note_on_c, 0, 55, 32
1, 8241, Note_on_c, 0, 64, 35
1, 8243, Control_c, 0, 64, 96
1, 8248, Note_on_c, 0, 67, 45
1, 8258, Control_c, 0, 64, 95
1, 8273, Control_c, 0, 64, 93
1, 8288, Control_c, 0, 64, 90
1, 8303, Control_c, 0, 64, 86
1, 8318, Control_c, 0, 64, 78
1, 8333, Control_c, 0, 64, 70
1, 8348, Control_c, 0, 64, 62
1, 8363, Control_c, 0, 64, 53
1, 8378, Control_c, 0, 64, 47
1, 8393, Control_c, 0, 64, 46
1, 8407, Control_c, 0, 64, 46
1, 8437, Control_c, 0, 64, 47
1, 8452, Control_c, 0, 64, 51
1, 8467, Control_c, 0, 64, 55
1, 8482, Control_c, 0, 64, 58
1, 8496, Control_c, 0, 64, 60
1, 8511, Control_c, 0, 64, 63
1, 8526, Control_c, 0, 64, 65
1, 8541, Control_c, 0, 64, 67
1, 8556, Control_c, 0, 64, 69
1, 8565, Note_off_c, 0, 64, 36
1, 8570, Control_c, 0, 64, 73
1, 8585, Control_c, 0, 64, 77
1, 8600, Control_c, 0, 64, 82
1, 8614, Control_c, 0, 64, 87
1, 8629, Control_c, 0, 64, 92
1, 8644, Control_c, 0, 64, 97
1, 8659, Control_c, 0, 64, 98
1, 8669, Note_off_c, 0, 67, 41
1, 8874, Control_c, 0, 64, 98
1, 8945, Note_on_c, 0, 65, 39
1, 8948, Control_c, 0, 64, 97
1, 8956, Note_on_c, 0, 62, 31
1, 8992, Control_c, 0, 64, 97
1, 9036, Control_c, 0, 64, 96
1, 9085, Note_off_c, 0, 65, 35
1, 9111, Note_off_c, 0, 55, 9
1, 9111, Control_c, 0, 64, 96
1, 9141, Control_c, 0, 64, 95
1, 9185, Control_c, 0, 64, 95
1, 9250, Note_off_c, 0, 72, 37
1, 9273, Note_on_c, 0, 70, 48
1, 9290, Control_c, 0, 64, 94
1, 9323, Note_off_c, 0, 62, 34
1, 9334, Control_c, 0, 64, 94
1, 9437, Control_c, 0, 64, 93
1, 9499, Note_off_c, 0, 70, 32
1, 9519, Control_c, 0, 64, 93
1, 9579, Control_c, 0, 64, 92
1, 9652, Control_c, 0, 64, 92
1, 9667, Control_c, 0, 64, 91
1, 9682, Control_c, 0, 64, 91
1, 9691, Note_on_c, 0, 69, 42
1, 9694, Note_on_c, 0, 57, 33
1, 9697, Control_c, 0, 64, 90
1, 9698, Note_on_c, 0, 64, 34
1, 9712, Control_c, 0, 64, 90
1, 9716, Note_on_c, 0, 61, 23
1, 9726, Control_c, 0, 64, 89
1, 9741, Control_c, 0, 64, 88
1, 9756, Control_c, 0, 64, 86
1, 9770, Control_c, 0, 64, 83
1, 9785, Control_c, 0, 64, 81
1, 9800, Control_c, 0, 64, 77
1, 9815, Control_c, 0, 64, 72
1, 9830, Control_c, 0, 64, 67
1, 9844, Control_c, 0, 64, 60
1, 9860, Control_c, 0, 64, 51
1, 9875, Control_c, 0, 64, 43
1, 9890, Control_c, 0, 64, 39
1, 9905, Control_c, 0, 64, 35
1, 9920, Control_c, 0, 64, 30
1, 9934, Control_c, 0, 64, 28
1, 9949, Control_c, 0, 64, 27
1, 10008, Control_c, 0, 64, 28
1, 10023, Control_c, 0, 64, 31
1, 10038, Control_c, 0, 64, 35
1, 10053, Control_c, 0, 64, 40
1, 10068, Control_c, 0, 64, 44
1, 10083, Control_c, 0, 64, 47
1, 10098, Control_c, 0, 64, 49
1, 10113, Control_c, 0, 64, 51
1, 10127, Control_c, 0, 64, 54
1, 10142, Control_c, 0, 64, 56
1, 10157, Control_c, 0, 64, 57
1, 10172, Control_c, 0, 64, 60
1, 10187, Control_c, 0, 64, 61
1, 10202, Control_c, 0, 64, 63
1, 10223, Control_c, 0, 64, 64
1, 10238, Control_c, 0, 64, 65
1, 10253, Control_c, 0, 64, 66
1, 10268, Control_c, 0, 64, 68
1, 10282, Control_c, 0, 64, 70
1, 10297, Control_c, 0, 64, 72
1, 10312, Control_c, 0, 64, 74
1, 10327, Note_off_c, 0, 57, 32
1, 10327, Control_c, 0, 64, 76
1, 10342, Control_c, 0, 64, 79
1, 10357, Control_c, 0, 64, 82
1, 10372, Control_c, 0, 64, 85
1, 10386, Control_c, 0, 64, 88
1, 10401, Control_c, 0, 64, 91
1, 10403, Note_off_c, 0, 64, 40
1, 10416, Control_c, 0, 64, 95
1, 10431, Control_c, 0, 64, 99
1, 10445, Note_off_c, 0, 61, 29
1, 10446, Note_off_c, 0, 69, 40
1, 10446, Control_c, 0, 64, 101
1, 10475, Control_c, 0, 64, 101
1, 10490, Control_c, 0, 64, 102
1, 10505, Control_c, 0, 64, 103
1, 10520, Control_c, 0, 64, 104
1, 10535, Control_c, 0, 64, 105
1, 10549, Control_c, 0, 64, 107
1, 10564, Control_c, 0, 64, 107
1, 10579, Control_c, 0, 64, 108
1, 10593, Control_c, 0, 64, 109
1, 10608, Control_c, 0, 64, 111
1, 10623, Control_c, 0, 64, 113
1, 10638, Control_c, 0, 64, 115
1, 10653, Control_c, 0, 64, 115
1, 11135, Control_c, 0, 64, 115
1, 11322, Note_on_c, 0, 69, 66
1, 11330, Note_on_c, 0, 65, 51
1, 11347, Note_on_c, 0, 50, 34
1, 11348, Note_on_c, 0, 62, 33
1, 11357, Control_c, 0, 64, 113
1, 11372, Control_c, 0, 64, 112
1, 11387, Control_c, 0, 64, 111
1, 11402, Control_c, 0, 64, 109
1, 11416, Control_c, 0, 64, 107
1, 11431, Control_c, 0, 64, 104
1, 11446, Control_c, 0, 64, 100
1, 11462, Control_c, 0, 64, 94
1, 11477, Control_c, 0, 64, 83
1, 11492, Control_c, 0, 64, 74
1, 11506, Control_c, 0, 64, 67
1, 11521, Control_c, 0, 64, 61
1, 11536, Control_c, 0, 64, 57
1, 11566, Control_c, 0, 64, 57
1, 11580, Control_c, 0, 64, 59
1, 11595, Control_c, 0, 64, 61
1, 11610, Control_c, 0, 64, 63
1, 11625, Control_c, 0, 64, 65
1, 11639, Control_c, 0, 64, 67
1, 11654, Control_c, 0, 64, 70
1, 11669, Control_c, 0, 64, 74
1, 11684, Control_c, 0, 64, 77
1, 11699, Control_c, 0, 64, 80
1, 11721, Control_c, 0, 64, 83
1, 11736, Control_c, 0, 64, 86
1, 11737, Note_off_c, 0, 50, 40
1, 11751, Control_c, 0, 64, 89
1, 11766, Control_c, 0, 64, 91
1, 11777, Note_off_c, 0, 65, 40
1, 11781, Control_c, 0, 64, 92
1, 11795, Control_c, 0, 64, 92
1, 11825, Control_c, 0, 64, 93
1, 11839, Control_c, 0, 64, 94
1, 11854, Control_c, 0, 64, 94
1, 11945, Note_off_c, 0, 62, 21
1, 11992, Note_on_c, 0, 60, 37
1, 11999, Note_on_c, 0, 64, 45
1, 12106, Control_c, 0, 64, 94
1, 12180, Control_c, 0, 64, 93
1, 12239, Control_c, 0, 64, 93
1, 12250, Note_off_c, 0, 60, 39
1, 12285, Control_c, 0, 64, 92
1, 12374, Note_off_c, 0, 64, 39
1, 12500, Control_c, 0, 64, 92
1, 12515, Control_c, 0, 64, 91
1, 12544, Control_c, 0, 64, 91
1, 12584, Note_on_c, 0, 62, 38
1, 12589, Control_c, 0, 64, 90
1, 12604, Control_c, 0, 64, 90
1, 12607, Note_on_c, 0, 52, 33
1, 12612, Note_on_c, 0, 59, 32
1, 12618, Control_c, 0, 64, 89
1, 12633, Control_c, 0, 64, 89
1, 12648, Control_c, 0, 64, 88
1, 12662, Control_c, 0, 64, 88
1, 12677, Control_c, 0, 64, 87
1, 12692, Control_c, 0, 64, 85
1, 12707, Control_c, 0, 64, 82
1, 12722, Control_c, 0, 64, 76
1, 12736, Control_c, 0, 64, 69
1, 12751, Control_c, 0, 64, 63
1, 12766, Control_c, 0, 64, 57
1, 12781, Control_c, 0, 64, 51
1, 12796, Control_c, 0, 64, 49
1, 12810, Control_c, 0, 64, 48
1, 12840, Control_c, 0, 64, 48
1, 12854, Control_c, 0, 64, 51
1, 12869, Control_c, 0, 64, 54
1, 12884, Control_c, 0, 64, 57
1, 12899, Control_c, 0, 64, 60
1, 12914, Control_c, 0, 64, 62
1, 12928, Control_c, 0, 64, 64
1, 12943, Control_c, 0, 64, 65
1, 12958, Control_c, 0, 64, 67
1, 12973, Control_c, 0, 64, 70
1, 12987, Control_c, 0, 64, 73
1, 13002, Control_c, 0, 64, 76
1, 13017, Control_c, 0, 64, 79
1, 13032, Control_c, 0, 64, 82
1, 13047, Control_c, 0, 64, 85
1, 13063, Control_c, 0, 64, 89
1, 13077, Control_c, 0, 64, 91
1, 13090, Note_off_c, 0, 52, 41
1, 13092, Control_c, 0, 64, 92
1, 13093, Note_off_c, 0, 59, 39
1, 13107, Control_c, 0, 64, 92
1, 13134, Note_off_c, 0, 69, 32
1, 13137, Control_c, 0, 64, 93
1, 13151, Control_c, 0, 64, 94
1, 13153, Note_on_c, 0, 68, 48
1, 13166, Control_c, 0, 64, 95
1, 13181, Control_c, 0, 64, 96
1, 13196, Control_c, 0, 64, 96
1, 13328, Note_off_c, 0, 68, 56
1, 13614, Note_off_c, 0, 62, 36
1, 13677, Control_c, 0, 64, 96
1, 13781, Control_c, 0, 64, 95
1, 13808, Note_on_c, 0, 67, 48
1, 13810, Control_c, 0, 64, 95
1, 13815, Note_on_c, 0, 63, 37
1, 13817, Note_on_c, 0, 60, 38
1, 13825, Control_c, 0, 64, 94
1, 13830, Note_on_c, 0, 48, 33
1, 13856, Control_c, 0, 64, 94
1, 13871, Control_c, 0, 64, 93
1, 13886, Control_c, 0, 64, 92
1, 13900, Control_c, 0, 64, 90
1, 13915, Control_c, 0, 64, 87
1, 13930, Control_c, 0, 64, 85
1, 13945, Control_c, 0, 64, 82
1, 13967, Control_c, 0, 64, 79
1, 13982, Control_c, 0, 64, 75
1, 13997, Control_c, 0, 64, 69
1, 14012, Control_c, 0, 64, 64
1, 14026, Control_c, 0, 64, 59
1, 14041, Control_c, 0, 64, 54
1, 14056, Control_c, 0, 64, 53
1, 14086, Control_c, 0, 64, 53
1, 14101, Control_c, 0, 64, 55
1, 14115, Control_c, 0, 64, 57
1, 14130, Control_c, 0, 64, 59
1, 14145, Control_c, 0, 64, 61
1, 14160, Control_c, 0, 64, 62
1, 14175, Control_c, 0, 64, 64
1, 14189, Control_c, 0, 64, 65
1, 14204, Control_c, 0, 64, 67
1, 14219, Control_c, 0, 64, 69
1, 14233, Control_c, 0, 64, 72
1, 14248, Control_c, 0, 64, 74
1, 14263, Control_c, 0, 64, 76
1, 14278, Control_c, 0, 64, 79
1, 14293, Control_c, 0, 64, 81
1, 14307, Control_c, 0, 64, 83
1, 14322, Control_c, 0, 64, 86
1, 14336, Control_c, 0, 64, 89
1, 14351, Control_c, 0, 64, 91
1, 14366, Control_c, 0, 64, 93
1, 14381, Control_c, 0, 64, 94
1, 14418, Note_off_c, 0, 48, 31
1, 14420, Note_on_c, 0, 62, 34
1, 14426, Control_c, 0, 64, 94
1, 14436, Note_on_c, 0, 58, 35
1, 14440, Control_c, 0, 64, 95
1, 14455, Control_c, 0, 64, 97
1, 14468, Note_off_c, 0, 60, 29
1, 14470, Control_c, 0, 64, 98
1, 14485, Control_c, 0, 64, 98
1, 14609, Note_off_c, 0, 63, 24
1, 14650, Note_off_c, 0, 58, 35
1, 14819, Control_c, 0, 64, 98
1, 14831, Note_off_c, 0, 62, 33
1, 14923, Control_c, 0, 64, 97
1, 14952, Control_c, 0, 64, 97
1, 14982, Control_c, 0, 64, 96
1, 15001, Note_on_c, 0, 60, 34
1, 15011, Control_c, 0, 64, 96
1, 15025, Note_on_c, 0, 57, 24
1, 15026, Control_c, 0, 64, 95
1, 15035, Note_on_c, 0, 50, 17
1, 15041, Control_c, 0, 64, 94
1, 15055, Control_c, 0, 64, 93
1, 15070, Control_c, 0, 64, 91
1, 15085, Control_c, 0, 64, 89
1, 15100, Control_c, 0, 64, 86
1, 15115, Control_c, 0, 64, 82
1, 15129, Control_c, 0, 64, 77
1, 15144, Control_c, 0, 64, 72
1, 15159, Control_c, 0, 64, 67
1, 15174, Control_c, 0, 64, 62
1, 15189, Control_c, 0, 64, 56
1, 15204, Control_c, 0, 64, 51
1, 15219, Control_c, 0, 64, 49
1, 15234, Control_c, 0, 64, 48
1, 15278, Control_c, 0, 64, 49
1, 15293, Control_c, 0, 64, 52
1, 15308, Control_c, 0, 64, 55
1, 15323, Control_c, 0, 64, 58
1, 15337, Control_c, 0, 64, 60
1, 15352, Control_c, 0, 64, 62
1, 15367, Control_c, 0, 64, 64
1, 15382, Control_c, 0, 64, 66
1, 15396, Control_c, 0, 64, 68
1, 15411, Control_c, 0, 64, 70
1, 15426, Control_c, 0, 64, 73
1, 15441, Control_c, 0, 64, 75
1, 15464, Control_c, 0, 64, 78
1, 15478, Control_c, 0, 64, 80
1, 15493, Control_c, 0, 64, 84
1, 15508, Control_c, 0, 64, 87
1, 15523, Control_c, 0, 64, 91
1, 15534, Note_off_c, 0, 67, 30
1, 15538, Control_c, 0, 64, 94
1, 15553, Control_c, 0, 64, 97
1, 15558, Note_off_c, 0, 57, 36
1, 15568, Control_c, 0, 64, 98
1, 15582, Control_c, 0, 64, 99
1, 15583, Note_on_c, 0, 66, 40
1, 15597, Control_c, 0, 64, 100
1, 15612, Control_c, 0, 64, 101
1, 15624, Note_off_c, 0, 50, 39
1, 15627, Control_c, 0, 64, 102
1, 15642, Control_c, 0, 64, 103
1, 15657, Control_c, 0, 64, 104
1, 15672, Control_c, 0, 64, 104
1, 15701, Control_c, 0, 64, 105
1, 15746, Control_c, 0, 64, 105
1, 15760, Control_c, 0, 64, 106
1, 15809, Note_off_c, 0, 60, 34
1, 15973, Note_off_c, 0, 66, 31
1, 16227, Control_c, 0, 64, 106
1, 16242, Control_c, 0, 64, 105
1, 16257, Note_on_c, 0, 58, 44
1, 16257, Note_on_c, 0, 70, 55
1, 16258, Control_c, 0, 64, 104
1, 16261, Note_on_c, 0, 43, 33
1, 16273, Control_c, 0, 64, 104
1, 16278, Note_on_c, 0, 55, 34
1, 16288, Control_c, 0, 64, 102
1, 16302, Control_c, 0, 64, 99
1, 16317, Control_c, 0, 64, 93
1, 16332, Control_c, 0, 64, 83
1, 16347, Control_c, 0, 64, 74
1, 16362, Control_c, 0, 64, 66
1, 16376, Control_c, 0, 64, 61
1, 16391, Control_c, 0, 64, 58
1, 16406, Control_c, 0, 64, 57
1, 16436, Control_c, 0, 64, 58
1, 16450, Control_c, 0, 64, 60
1, 16465, Control_c, 0, 64, 62
1, 16480, Control_c, 0, 64, 65
1, 16495, Control_c, 0, 64, 67
1, 16510, Control_c, 0, 64, 72
1, 16524, Control_c, 0, 64, 78
1, 16539, Control_c, 0, 64, 85
1, 16554, Control_c, 0, 64, 91
1, 16569, Control_c, 0, 64, 97
1, 16578, Note_off_c, 0, 43, 39
1, 16584, Control_c, 0, 64, 104
1, 16599, Control_c, 0, 64, 112
1, 16610, Note_off_c, 0, 58, 58
1, 16614, Control_c, 0, 64, 116
1, 16620, Note_off_c, 0, 70, 37
1, 16628, Control_c, 0, 64, 117
1, 16643, Control_c, 0, 64, 119
1, 16658, Control_c, 0, 64, 125
1, 16673, Control_c, 0, 64, 127
1, 16835, Control_c, 0, 64, 122
1, 16850, Control_c, 0, 64, 115
1, 16864, Note_on_c, 0, 69, 70
1, 16865, Control_c, 0, 64, 106
1, 16869, Note_on_c, 0, 45, 38
1, 16871, Note_on_c, 0, 60, 56
1, 16874, Note_on_c, 0, 66, 53
1, 16880, Control_c, 0, 64, 93
1, 16894, Control_c, 0, 64, 80
1, 16909, Control_c, 0, 64, 69
1, 16924, Control_c, 0, 64, 63
1, 16939, Control_c, 0, 64, 58
1, 16977, Control_c, 0, 64, 59
1, 16991, Control_c, 0, 64, 60
1, 17006, Control_c, 0, 64, 63
1, 17021, Control_c, 0, 64, 65
1, 17035, Control_c, 0, 64, 68
1, 17052, Control_c, 0, 64, 72
1, 17067, Control_c, 0, 64, 78
1, 17081, Control_c, 0, 64, 83
1, 17092, Note_off_c, 0, 69, 64
1, 17096, Control_c, 0, 64, 88
1, 17111, Control_c, 0, 64, 91
1, 17113, Note_off_c, 0, 60, 61
1, 17125, Control_c, 0, 64, 94
1, 17140, Control_c, 0, 64, 98
1, 17142, Note_off_c, 0, 55, 40
1, 17155, Control_c, 0, 64, 101
1, 17165, Note_off_c, 0, 66, 59
1, 17170, Control_c, 0, 64, 102
1, 17185, Control_c, 0, 64, 102
1, 17244, Control_c, 0, 64, 103
1, 17303, Control_c, 0, 64, 102
1, 17313, Note_off_c, 0, 45, 34
1, 17347, Control_c, 0, 64, 102
1, 17362, Control_c, 0, 64, 101
1, 17392, Control_c, 0, 64, 101
1, 17407, Control_c, 0, 64, 99
1, 17422, Control_c, 0, 64, 96
1, 17431, Note_on_c, 0, 58, 58
1, 17431, Note_on_c, 0, 67, 68
1, 17432, Note_on_c, 0, 62, 51
1, 17437, Control_c, 0, 64, 91
1, 17440, Note_on_c, 0, 46, 40
1, 17451, Control_c, 0, 64, 87
1, 17466, Control_c, 0, 64, 82
1, 17481, Control_c, 0, 64, 75
1, 17496, Control_c, 0, 64, 68
1, 17511, Control_c, 0, 64, 61
1, 17525, Control_c, 0, 64, 53
1, 17540, Control_c, 0, 64, 49
1, 17555, Control_c, 0, 64, 48
1, 17585, Control_c, 0, 64, 50
1, 17599, Control_c, 0, 64, 54
1, 17614, Control_c, 0, 64, 59
1, 17629, Control_c, 0, 64, 63
1, 17643, Control_c, 0, 64, 66
1, 17658, Control_c, 0, 64, 69
1, 17673, Note_off_c, 0, 62, 53
1, 17673, Control_c, 0, 64, 74
1, 17688, Control_c, 0, 64, 79
1, 17711, Control_c, 0, 64, 84
1, 17725, Control_c, 0, 64, 89
1, 17740, Control_c, 0, 64, 93
1, 17755, Control_c, 0, 64, 96
1, 17770, Control_c, 0, 64, 98
1, 17804, Note_off_c, 0, 58, 36
1, 17807, Note_off_c, 0, 46, 40
1, 17814, Note_off_c, 0, 67, 37
1, 17934, Control_c, 0, 64, 97
1, 17963, Control_c, 0, 64, 96
1, 17978, Control_c, 0, 64, 96
1, 17993, Control_c, 0, 64, 94
1, 18002, Note_on_c, 0, 65, 59
1, 18003, Note_on_c, 0, 47, 40
1, 18006, Note_on_c, 0, 56, 40
1, 18008, Control_c, 0, 64, 92
1, 18011, Note_on_c, 0, 62, 48
1, 18022, Control_c, 0, 64, 89
1, 18037, Control_c, 0, 64, 84
1, 18052, Control_c, 0, 64, 76
1, 18066, Control_c, 0, 64, 67
1, 18080, Control_c, 0, 64, 60
1, 18095, Control_c, 0, 64, 51
1, 18110, Control_c, 0, 64, 48
1, 18125, Control_c, 0, 64, 48
1, 18155, Control_c, 0, 64, 48
1, 18170, Control_c, 0, 64, 51
1, 18185, Control_c, 0, 64, 56
1, 18200, Control_c, 0, 64, 60
1, 18215, Control_c, 0, 64, 63
1, 18229, Control_c, 0, 64, 65
1, 18244, Control_c, 0, 64, 69
1, 18259, Control_c, 0, 64, 73
1, 18273, Control_c, 0, 64, 79
1, 18288, Control_c, 0, 64, 83
1, 18303, Control_c, 0, 64, 86
1, 18318, Control_c, 0, 64, 89
1, 18333, Control_c, 0, 64, 91
1, 18347, Control_c, 0, 64, 93
1, 18362, Control_c, 0, 64, 94
1, 18371, Note_off_c, 0, 56, 36
1, 18377, Control_c, 0, 64, 94
1, 18390, Note_off_c, 0, 62, 26
1, 18473, Note_off_c, 0, 47, 31
1, 18531, Note_off_c, 0, 65, 31
1, 18562, Control_c, 0, 64, 94
1, 18607, Control_c, 0, 64, 93
1, 18652, Control_c, 0, 64, 93
1, 18696, Control_c, 0, 64, 92
1, 18711, Control_c, 0, 64, 92
1, 18722, Note_on_c, 0, 55, 33
1, 18724, Note_on_c, 0, 48, 33
1, 18724, Note_on_c, 0, 60, 40
1, 18725, Note_on_c, 0, 64, 40
1, 18726, Control_c, 0, 64, 90
1, 18741, Control_c, 0, 64, 89
1, 18756, Control_c, 0, 64, 87
1, 18770, Control_c, 0, 64, 84
1, 18785, Control_c, 0, 64, 80
1, 18800, Control_c, 0, 64, 76
1, 18815, Control_c, 0, 64, 71
1, 18830, Control_c, 0, 64, 65
1, 18845, Control_c, 0, 64, 57
1, 18859, Control_c, 0, 64, 50
1, 18874, Control_c, 0, 64, 45
1, 18889, Control_c, 0, 64, 43
1, 18903, Control_c, 0, 64, 41
1, 18948, Control_c, 0, 64, 43
1, 18963, Control_c, 0, 64, 47
1, 18978, Control_c, 0, 64, 51
1, 18993, Control_c, 0, 64, 54
1, 19008, Control_c, 0, 64, 57
1, 19022, Control_c, 0, 64, 59
1, 19037, Control_c, 0, 64, 60
1, 19052, Control_c, 0, 64, 61
1, 19067, Control_c, 0, 64, 62
1, 19082, Control_c, 0, 64, 63
1, 19096, Control_c, 0, 64, 64
1, 19111, Control_c, 0, 64, 65
1, 19126, Control_c, 0, 64, 66
1, 19141, Control_c, 0, 64, 67
1, 19156, Control_c, 0, 64, 69
1, 19170, Control_c, 0, 64, 71
1, 19185, Note_off_c, 0, 60, 33
1, 19185, Control_c, 0, 64, 72
1, 19207, Control_c, 0, 64, 75
1, 19222, Control_c, 0, 64, 78
1, 19237, Control_c, 0, 64, 81
1, 19252, Control_c, 0, 64, 84
1, 19267, Control_c, 0, 64, 87
1, 19282, Control_c, 0, 64, 92
1, 19296, Control_c, 0, 64, 98
1, 19311, Control_c, 0, 64, 105
1, 19326, Control_c, 0, 64, 108
1, 19356, Control_c, 0, 64, 108
1, 19370, Control_c, 0, 64, 109
1, 19401, Note_on_c, 0, 58, 42
1, 19481, Note_off_c, 0, 55, 38
1, 19559, Note_off_c, 0, 58, 34
1, 19616, Note_off_c, 0, 64, 36
1, 19742, Control_c, 0, 64, 108
1, 19754, Note_off_c, 0, 48, 27
1, 19765, Note_on_c, 0, 65, 42
1, 19787, Control_c, 0, 64, 108
1, 19846, Control_c, 0, 64, 107
1, 19875, Control_c, 0, 64, 107
1, 19926, Note_off_c, 0, 65, 35
1, 20001, Control_c, 0, 64, 106
1, 20090, Control_c, 0, 64, 106
1, 20120, Control_c, 0, 64, 105
1, 20134, Control_c, 0, 64, 104
1, 20164, Control_c, 0, 64, 104
1, 20236, Note_on_c, 0, 60, 35
1, 20239, Control_c, 0, 64, 102
1, 20245, Note_on_c, 0, 65, 43
1, 20250, Note_on_c, 0, 57, 30
1, 20254, Control_c, 0, 64, 101
1, 20264, Note_on_c, 0, 41, 30
1, 20269, Control_c, 0, 64, 100
1, 20284, Control_c, 0, 64, 99
1, 20298, Control_c, 0, 64, 98
1, 20313, Control_c, 0, 64, 96
1, 20328, Control_c, 0, 64, 93
1, 20343, Control_c, 0, 64, 90
1, 20358, Control_c, 0, 64, 86
1, 20373, Control_c, 0, 64, 82
1, 20388, Control_c, 0, 64, 77
1, 20403, Control_c, 0, 64, 70
1, 20417, Control_c, 0, 64, 63
1, 20432, Control_c, 0, 64, 57
1, 20447, Control_c, 0, 64, 52
1, 20462, Control_c, 0, 64, 51
1, 20477, Control_c, 0, 64, 49
1, 20491, Control_c, 0, 64, 46
1, 20506, Control_c, 0, 64, 44
1, 20521, Control_c, 0, 64, 43
1, 20595, Control_c, 0, 64, 44
1, 20610, Control_c, 0, 64, 46
1, 20624, Control_c, 0, 64, 48
1, 20639, Control_c, 0, 64, 50
1, 20654, Control_c, 0, 64, 52
1, 20668, Control_c, 0, 64, 55
1, 20683, Control_c, 0, 64, 57
1, 20706, Control_c, 0, 64, 59
1, 20721, Control_c, 0, 64, 61
1, 20736, Control_c, 0, 64, 62
1, 20750, Control_c, 0, 64, 63
1, 20765, Control_c, 0, 64, 65
1, 20780, Control_c, 0, 64, 66
1, 20795, Control_c, 0, 64, 68
1, 20810, Control_c, 0, 64, 71
1, 20824, Control_c, 0, 64, 74
1, 20839, Control_c, 0, 64, 77
1, 20854, Control_c, 0, 64, 81
1, 20869, Control_c, 0, 64, 85
1, 20883, Control_c, 0, 64, 91
1, 20898, Control_c, 0, 64, 97
1, 20913, Control_c, 0, 64, 102
1, 20914, Note_off_c, 0, 41, 37
1, 20928, Control_c, 0, 64, 103
1, 20930, Note_off_c, 0, 57, 39
1, 20995, Note_off_c, 0, 60, 39
1, 20996, Note_off_c, 0, 65, 38
1, 21106, Control_c, 0, 64, 102
1, 21121, Control_c, 0, 64, 102
1, 21136, Control_c, 0, 64, 101
1, 21196, Control_c, 0, 64, 101
1, 21299, Control_c, 0, 64, 100
1, 21852, Note_on_c, 0, 72, 76
1, 21857, Note_on_c, 0, 53, 54
1, 21857, Note_on_c, 0, 65, 62
1, 21857, Note_on_c, 0, 69, 68
1, 21885, Control_c, 0, 64, 100
1, 21914, Control_c, 0, 64, 98
1, 21929, Control_c, 0, 64, 95
1, 21944, Control_c, 0, 64, 91
1, 21959, Control_c, 0, 64, 84
1, 21974, Control_c, 0, 64, 79
1, 21988, Control_c, 0, 64, 74
1, 22003, Control_c, 0, 64, 68
1, 22018, Control_c, 0, 64, 63
1, 22033, Control_c, 0, 64, 57
1, 22048, Control_c, 0, 64, 53
1, 22063, Control_c, 0, 64, 51
1, 22078, Control_c, 0, 64, 48
1, 22093, Control_c, 0, 64, 45
1, 22108, Control_c, 0, 64, 42
1, 22122, Control_c, 0, 64, 41
1, 22182, Control_c, 0, 64, 42
1, 22203, Control_c, 0, 64, 45
1, 22218, Control_c, 0, 64, 48
1, 22233, Control_c, 0, 64, 51
1, 22248, Control_c, 0, 64, 54
1, 22263, Control_c, 0, 64, 56
1, 22278, Control_c, 0, 64, 58
1, 22292, Control_c, 0, 64, 60
1, 22307, Control_c, 0, 64, 62
1, 22322, Control_c, 0, 64, 63
1, 22337, Control_c, 0, 64, 65
1, 22352, Control_c, 0, 64, 67
1, 22367, Control_c, 0, 64, 69
1, 22382, Control_c, 0, 64, 72
1, 22396, Control_c, 0, 64, 74
1, 22411, Control_c, 0, 64, 77
1, 22426, Control_c, 0, 64, 79
1, 22441, Control_c, 0, 64, 82
1, 22456, Control_c, 0, 64, 84
1, 22470, Control_c, 0, 64, 87
1, 22485, Control_c, 0, 64, 88
1, 22500, Control_c, 0, 64, 89
1, 22514, Control_c, 0, 64, 90
1, 22529, Control_c, 0, 64, 90
1, 22558, Control_c, 0, 64, 91
1, 22569, Note_on_c, 0, 63, 42
1, 22808, Note_off_c, 0, 63, 31
1, 22856, Control_c, 0, 64, 90
1, 22915, Control_c, 0, 64, 90
1, 22996, Control_c, 0, 64, 89
1, 23011, Control_c, 0, 64, 89
1, 23056, Control_c, 0, 64, 88
1, 23071, Control_c, 0, 64, 88
1, 23085, Control_c, 0, 64, 87
1, 23100, Control_c, 0, 64, 86
1, 23115, Control_c, 0, 64, 86
1, 23130, Control_c, 0, 64, 84
1, 23144, Control_c, 0, 64, 83
1, 23159, Control_c, 0, 64, 82
1, 23174, Control_c, 0, 64, 81
1, 23179, Note_on_c, 0, 62, 53
1, 23189, Control_c, 0, 64, 79
1, 23204, Control_c, 0, 64, 78
1, 23218, Control_c, 0, 64, 75
1, 23233, Control_c, 0, 64, 71
1, 23248, Control_c, 0, 64, 66
1, 23262, Control_c, 0, 64, 61
1, 23277, Control_c, 0, 64, 54
1, 23292, Control_c, 0, 64, 50
1, 23300, Note_off_c, 0, 65, 35
1, 23307, Control_c, 0, 64, 49
1, 23336, Control_c, 0, 64, 51
1, 23351, Control_c, 0, 64, 55
1, 23366, Control_c, 0, 64, 59
1, 23381, Control_c, 0, 64, 62
1, 23396, Control_c, 0, 64, 65
1, 23410, Control_c, 0, 64, 68
1, 23425, Control_c, 0, 64, 73
1, 23441, Control_c, 0, 64, 78
1, 23450, Note_off_c, 0, 69, 57
1, 23456, Control_c, 0, 64, 85
1, 23471, Control_c, 0, 64, 91
1, 23486, Control_c, 0, 64, 101
1, 23501, Control_c, 0, 64, 113
1, 23515, Control_c, 0, 64, 127
1, 23668, Note_off_c, 0, 72, 57
1, 23829, Note_off_c, 0, 53, 39
1, 23830, Note_on_c, 0, 71, 59
1, 23846, Note_on_c, 0, 68, 43
1, 23947, Note_off_c, 0, 68, 29
1, 23999, Note_off_c, 0, 71, 53
1, 24445, Note_on_c, 0, 68, 38
1, 24445, Note_on_c, 0, 71, 46
1, 24565, Note_off_c, 0, 62, 39
1, 24633, Note_off_c, 0, 68, 28
1, 24641, Note_off_c, 0, 71, 38
1, 24967, Control_c, 0, 64, 122
1, 24981, Control_c, 0, 64, 116
1, 24996, Control_c, 0, 64, 112
1, 25011, Control_c, 0, 64, 108
1, 25018, Note_on_c, 0, 71, 43
1, 25026, Note_on_c, 0, 67, 34
1, 25026, Control_c, 0, 64, 102
1, 25028, Note_on_c, 0, 62, 32
1, 25035, Note_on_c, 0, 55, 37
1, 25042, Control_c, 0, 64, 96
1, 25057, Control_c, 0, 64, 88
1, 25072, Control_c, 0, 64, 77
1, 25086, Control_c, 0, 64, 68
1, 25101, Control_c, 0, 64, 62
1, 25116, Control_c, 0, 64, 57
1, 25145, Control_c, 0, 64, 58
1, 25160, Control_c, 0, 64, 60
1, 25175, Control_c, 0, 64, 62
1, 25198, Control_c, 0, 64, 64
1, 25212, Control_c, 0, 64, 66
1, 25227, Control_c, 0, 64, 70
1, 25242, Control_c, 0, 64, 74
1, 25257, Control_c, 0, 64, 79
1, 25272, Control_c, 0, 64, 84
1, 25286, Control_c, 0, 64, 88
1, 25293, Note_off_c, 0, 67, 41
1, 25301, Control_c, 0, 64, 92
1, 25316, Control_c, 0, 64, 99
1, 25320, Note_off_c, 0, 71, 35
1, 25331, Control_c, 0, 64, 107
1, 25345, Control_c, 0, 64, 117
1, 25360, Control_c, 0, 64, 127
1, 25403, Note_off_c, 0, 55, 37
1, 25406, Note_off_c, 0, 62, 36
1, 25464, Control_c, 0, 64, 125
1, 25479, Control_c, 0, 64, 120
1, 25494, Control_c, 0, 64, 119
1, 25509, Control_c, 0, 64, 116
1, 25524, Control_c, 0, 64, 115
1, 25538, Control_c, 0, 64, 115
1, 25553, Control_c, 0, 64, 113
1, 25568, Control_c, 0, 64, 112
1, 25583, Control_c, 0, 64, 112
1, 25598, Control_c, 0, 64, 110
1, 25612, Control_c, 0, 64, 109
1, 25627, Control_c, 0, 64, 106
1, 25642, Control_c, 0, 64, 104
1, 25649, Note_on_c, 0, 71, 49
1, 25657, Control_c, 0, 64, 101
1, 25659, Note_on_c, 0, 65, 38
1, 25660, Note_on_c, 0, 67, 40
1, 25671, Note_on_c, 0, 48, 34
1, 25672, Control_c, 0, 64, 98
1, 25686, Control_c, 0, 64, 95
1, 25701, Control_c, 0, 64, 91
1, 25716, Control_c, 0, 64, 84
1, 25731, Control_c, 0, 64, 74
1, 25745, Control_c, 0, 64, 66
1, 25760, Control_c, 0, 64, 60
1, 25775, Control_c, 0, 64, 57
1, 25804, Control_c, 0, 64, 58
1, 25819, Control_c, 0, 64, 60
1, 25835, Control_c, 0, 64, 62
1, 25850, Control_c, 0, 64, 64
1, 25865, Control_c, 0, 64, 66
1, 25880, Control_c, 0, 64, 68
1, 25895, Control_c, 0, 64, 71
1, 25909, Control_c, 0, 64, 75
1, 25924, Control_c, 0, 64, 79
1, 25947, Control_c, 0, 64, 82
1, 25961, Control_c, 0, 64, 86
1, 25970, Note_off_c, 0, 67, 40
1, 25976, Control_c, 0, 64, 91
1, 25991, Control_c, 0, 64, 96
1, 26006, Control_c, 0, 64, 102
1, 26020, Note_off_c, 0, 71, 50
1, 26021, Control_c, 0, 64, 105
1, 26028, Note_off_c, 0, 65, 41
1, 26050, Control_c, 0, 64, 106
1, 26109, Control_c, 0, 64, 106
1, 26272, Note_on_c, 0, 72, 46
1, 26272, Control_c, 0, 64, 106
1, 26287, Note_on_c, 0, 64, 39
1, 26287, Control_c, 0, 64, 104
1, 26302, Control_c, 0, 64, 102
1, 26317, Control_c, 0, 64, 100
1, 26332, Control_c, 0, 64, 94
1, 26347, Control_c, 0, 64, 84
1, 26361, Control_c, 0, 64, 74
1, 26376, Control_c, 0, 64, 65
1, 26391, Control_c, 0, 64, 58
1, 26406, Control_c, 0, 64, 57
1, 26435, Control_c, 0, 64, 57
1, 26450, Control_c, 0, 64, 59
1, 26465, Control_c, 0, 64, 62
1, 26480, Control_c, 0, 64, 64
1, 26494, Control_c, 0, 64, 67
1, 26509, Control_c, 0, 64, 70
1, 26524, Control_c, 0, 64, 75
1, 26539, Control_c, 0, 64, 80
1, 26553, Control_c, 0, 64, 85
1, 26568, Control_c, 0, 64, 90
1, 26580, Note_off_c, 0, 72, 56
1, 26583, Control_c, 0, 64, 94
1, 26598, Control_c, 0, 64, 99
1, 26611, Note_off_c, 0, 64, 41
1, 26613, Control_c, 0, 64, 106
1, 26629, Control_c, 0, 64, 114
1, 26644, Control_c, 0, 64, 127
1, 26907, Note_off_c, 0, 48, 30
1, 27041, Note_on_c, 0, 74, 75
1, 27044, Note_on_c, 0, 67, 65
1, 27049, Note_on_c, 0, 71, 65
1, 27051, Note_on_c, 0, 55, 53
1, 27125, Control_c, 0, 64, 120
1, 27140, Control_c, 0, 64, 110
1, 27155, Control_c, 0, 64, 102
1, 27170, Control_c, 0, 64, 94
1, 27184, Control_c, 0, 64, 84
1, 27199, Control_c, 0, 64, 73
1, 27214, Control_c, 0, 64, 64
1, 27229, Control_c, 0, 64, 57
1, 27244, Control_c, 0, 64, 54
1, 27259, Control_c, 0, 64, 54
1, 27274, Control_c, 0, 64, 53
1, 27288, Control_c, 0, 64, 53
1, 27318, Control_c, 0, 64, 54
1, 27333, Control_c, 0, 64, 55
1, 27348, Control_c, 0, 64, 57
1, 27363, Control_c, 0, 64, 59
1, 27378, Control_c, 0, 64, 61
1, 27392, Control_c, 0, 64, 62
1, 27407, Control_c, 0, 64, 64
1, 27422, Control_c, 0, 64, 65
1, 27445, Control_c, 0, 64, 67
1, 27460, Control_c, 0, 64, 69
1, 27475, Control_c, 0, 64, 72
1, 27489, Control_c, 0, 64, 74
1, 27504, Control_c, 0, 64, 76
1, 27519, Control_c, 0, 64, 77
1, 27533, Control_c, 0, 64, 80
1, 27548, Control_c, 0, 64, 82
1, 27563, Control_c, 0, 64, 85
1, 27578, Control_c, 0, 64, 88
1, 27593, Control_c, 0, 64, 92
1, 27607, Control_c, 0, 64, 95
1, 27622, Control_c, 0, 64, 97
1, 27637, Control_c, 0, 64, 99
1, 27652, Control_c, 0, 64, 100
1, 27667, Control_c, 0, 64, 102
1, 27682, Control_c, 0, 64, 103
1, 27697, Control_c, 0, 64, 104
1, 27755, Note_on_c, 0, 65, 42
1, 27830, Control_c, 0, 64, 103
1, 27845, Control_c, 0, 64, 103
1, 27860, Control_c, 0, 64, 102
1, 27879, Note_off_c, 0, 65, 44
1, 28037, Control_c, 0, 64, 102
1, 28052, Control_c, 0, 64, 101
1, 28096, Control_c, 0, 64, 100
1, 28126, Control_c, 0, 64, 100
1, 28193, Control_c, 0, 64, 99
1, 28222, Control_c, 0, 64, 99
1, 28238, Control_c, 0, 64, 98
1, 28253, Control_c, 0, 64, 98
1, 28268, Control_c, 0, 64, 97
1, 28283, Control_c, 0, 64, 97
1, 28298, Control_c, 0, 64, 96
1, 28342, Control_c, 0, 64, 96
1, 28344, Note_on_c, 0, 64, 39
1, 28356, Control_c, 0, 64, 94
1, 28371, Control_c, 0, 64, 92
1, 28386, Control_c, 0, 64, 89
1, 28401, Control_c, 0, 64, 83
1, 28416, Control_c, 0, 64, 75
1, 28430, Control_c, 0, 64, 67
1, 28445, Control_c, 0, 64, 61
1, 28460, Control_c, 0, 64, 56
1, 28475, Control_c, 0, 64, 56
1, 28490, Control_c, 0, 64, 55
1, 28520, Control_c, 0, 64, 57
1, 28535, Control_c, 0, 64, 59
1, 28549, Control_c, 0, 64, 62
1, 28563, Control_c, 0, 64, 64
1, 28578, Control_c, 0, 64, 67
1, 28590, Note_off_c, 0, 71, 42
1, 28593, Control_c, 0, 64, 70
1, 28608, Control_c, 0, 64, 76
1, 28623, Control_c, 0, 64, 81
1, 28637, Control_c, 0, 64, 87
1, 28652, Control_c, 0, 64, 93
1, 28667, Control_c, 0, 64, 100
1, 28682, Control_c, 0, 64, 110
1, 28685, Note_off_c, 0, 67, 53
1, 28697, Control_c, 0, 64, 127
1, 28859, Note_off_c, 0, 74, 51
1, 29014, Note_on_c, 0, 73, 54
1, 29023, Note_on_c, 0, 70, 40
1, 29078, Note_off_c, 0, 70, 52
1, 29155, Note_off_c, 0, 73, 55
1, 29233, Note_off_c, 0, 55, 27
1, 29621, Note_on_c, 0, 73, 42
1, 29632, Note_on_c, 0, 70, 34
1, 29803, Note_off_c, 0, 64, 27
1, 29828, Note_off_c, 0, 70, 43
1, 29861, Note_off_c, 0, 73, 38
1, 30227, Note_on_c, 0, 73, 45
1, 30239, Control_c, 0, 64, 125
1, 30243, Note_on_c, 0, 69, 39
1, 30254, Control_c, 0, 64, 107
1, 30269, Note_on_c, 0, 64, 35
1, 30269, Control_c, 0, 64, 95
1, 30271, Note_on_c, 0, 57, 24
1, 30283, Control_c, 0, 64, 81
1, 30298, Control_c, 0, 64, 71
1, 30313, Control_c, 0, 64, 64
1, 30327, Control_c, 0, 64, 60
1, 30342, Control_c, 0, 64, 58
1, 30372, Control_c, 0, 64, 59
1, 30387, Control_c, 0, 64, 60
1, 30401, Control_c, 0, 64, 62
1, 30416, Control_c, 0, 64, 64
1, 30439, Control_c, 0, 64, 66
1, 30454, Control_c, 0, 64, 70
1, 30469, Control_c, 0, 64, 74
1, 30483, Control_c, 0, 64, 80
1, 30498, Control_c, 0, 64, 86
1, 30513, Control_c, 0, 64, 91
1, 30524, Note_off_c, 0, 73, 50
1, 30527, Control_c, 0, 64, 95
1, 30532, Note_off_c, 0, 69, 41
1, 30539, Note_off_c, 0, 64, 40
1, 30542, Control_c, 0, 64, 100
1, 30557, Control_c, 0, 64, 105
1, 30558, Note_off_c, 0, 57, 38
1, 30572, Control_c, 0, 64, 108
1, 30601, Control_c, 0, 64, 109
1, 30616, Control_c, 0, 64, 109
1, 30883, Note_on_c, 0, 73, 49
1, 30885, Control_c, 0, 64, 109
1, 30892, Note_on_c, 0, 67, 35
1, 30900, Note_on_c, 0, 58, 30
1, 30904, Note_on_c, 0, 64, 38
1, 30944, Control_c, 0, 64, 107
1, 30958, Control_c, 0, 64, 105
1, 30973, Control_c, 0, 64, 102
1, 30988, Control_c, 0, 64, 98
1, 31003, Control_c, 0, 64, 91
1, 31018, Control_c, 0, 64, 82
1, 31033, Control_c, 0, 64, 72
1, 31047, Control_c, 0, 64, 65
1, 31062, Control_c, 0, 64, 61
1, 31077, Control_c, 0, 64, 60
1, 31092, Control_c, 0, 64, 60
1, 31107, Control_c, 0, 64, 61
1, 31122, Control_c, 0, 64, 62
1, 31137, Control_c, 0, 64, 64
1, 31151, Control_c, 0, 64, 66
1, 31166, Control_c, 0, 64, 69
1, 31188, Control_c, 0, 64, 72
1, 31203, Control_c, 0, 64, 76
1, 31218, Control_c, 0, 64, 80
1, 31232, Control_c, 0, 64, 84
1, 31247, Control_c, 0, 64, 87
1, 31250, Note_off_c, 0, 67, 41
1, 31262, Control_c, 0, 64, 92
1, 31277, Control_c, 0, 64, 96
1, 31292, Control_c, 0, 64, 101
1, 31307, Control_c, 0, 64, 106
1, 31315, Note_off_c, 0, 73, 37
1, 31322, Control_c, 0, 64, 110
1, 31337, Control_c, 0, 64, 111
1, 31351, Control_c, 0, 64, 112
1, 31417, Note_off_c, 0, 64, 39
1, 31486, Control_c, 0, 64, 111
1, 31560, Control_c, 0, 64, 110
1, 31574, Control_c, 0, 64, 109
1, 31579, Note_on_c, 0, 74, 42
1, 31589, Control_c, 0, 64, 107
1, 31598, Note_on_c, 0, 65, 36
1, 31604, Control_c, 0, 64, 104
1, 31619, Control_c, 0, 64, 101
1, 31623, Note_on_c, 0, 62, 19
1, 31634, Control_c, 0, 64, 97
1, 31648, Control_c, 0, 64, 92
1, 31663, Control_c, 0, 64, 86
1, 31678, Control_c, 0, 64, 76
1, 31693, Control_c, 0, 64, 67
1, 31708, Control_c, 0, 64, 61
1, 31722, Control_c, 0, 64, 57
1, 31737, Control_c, 0, 64, 57
1, 31752, Control_c, 0, 64, 57
1, 31767, Control_c, 0, 64, 58
1, 31781, Control_c, 0, 64, 60
1, 31796, Control_c, 0, 64, 62
1, 31811, Control_c, 0, 64, 64
1, 31826, Control_c, 0, 64, 67
1, 31841, Control_c, 0, 64, 70
1, 31855, Control_c, 0, 64, 74
1, 31870, Control_c, 0, 64, 81
1, 31885, Control_c, 0, 64, 86
1, 31900, Control_c, 0, 64, 93
1, 31906, Note_off_c, 0, 74, 60
1, 31915, Note_off_c, 0, 65, 40
1, 31915, Control_c, 0, 64, 101
1, 31937, Control_c, 0, 64, 115
1, 31952, Control_c, 0, 64, 127
1, 32168, Note_off_c, 0, 62, 33
1, 32487, Note_on_c, 0, 77, 78
1, 32490, Note_on_c, 0, 74, 61
1, 32493, Note_on_c, 0, 70, 59
1, 32649, Control_c, 0, 64, 96
1, 32664, Control_c, 0, 64, 80
1, 32686, Control_c, 0, 64, 69
1, 32701, Control_c, 0, 64, 63
1, 32716, Control_c, 0, 64, 60
1, 32746, Control_c, 0, 64, 60
1, 32760, Control_c, 0, 64, 61
1, 32775, Control_c, 0, 64, 63
1, 32790, Control_c, 0, 64, 64
1, 32804, Control_c, 0, 64, 66
1, 32819, Control_c, 0, 64, 69
1, 32834, Control_c, 0, 64, 72
1, 32849, Control_c, 0, 64, 75
1, 32864, Control_c, 0, 64, 79
1, 32878, Control_c, 0, 64, 82
1, 32893, Control_c, 0, 64, 88
1, 32908, Control_c, 0, 64, 94
1, 32923, Control_c, 0, 64, 101
1, 32937, Control_c, 0, 64, 112
1, 32952, Control_c, 0, 64, 127
1, 32958, Note_off_c, 0, 70, 38
1, 33182, Note_on_c, 0, 69, 39
1, 33191, Note_on_c, 0, 72, 44
1, 33367, Note_off_c, 0, 69, 42
1, 33428, Note_off_c, 0, 72, 54
1, 33497, Note_off_c, 0, 74, 32
1, 33781, Note_on_c, 0, 70, 42
1, 33787, Note_on_c, 0, 67, 35
1, 33797, Note_on_c, 0, 46, 35
1, 33879, Control_c, 0, 64, 103
1, 33894, Control_c, 0, 64, 86
1, 33909, Control_c, 0, 64, 74
1, 33924, Control_c, 0, 64, 66
1, 33939, Control_c, 0, 64, 62
1, 33969, Control_c, 0, 64, 62
1, 33983, Control_c, 0, 64, 63
1, 33998, Control_c, 0, 64, 65
1, 34013, Control_c, 0, 64, 68
1, 34028, Control_c, 0, 64, 71
1, 34043, Control_c, 0, 64, 75
1, 34057, Control_c, 0, 64, 80
1, 34072, Control_c, 0, 64, 85
1, 34087, Control_c, 0, 64, 89
1, 34102, Control_c, 0, 64, 95
1, 34116, Control_c, 0, 64, 101
1, 34131, Control_c, 0, 64, 107
1, 34146, Control_c, 0, 64, 112
1, 34161, Control_c, 0, 64, 116
1, 34183, Control_c, 0, 64, 120
1, 34198, Control_c, 0, 64, 127
1, 34259, Note_off_c, 0, 77, 35
1, 34413, Note_on_c, 0, 75, 65
1, 34580, Note_off_c, 0, 67, 41
1, 34643, Note_off_c, 0, 75, 56
1, 34819, Note_off_c, 0, 70, 42
1, 35053, Note_on_c, 0, 74, 59
1, 35061, Note_on_c, 0, 65, 47
1, 35140, Control_c, 0, 64, 102
1, 35154, Control_c, 0, 64, 85
1, 35169, Control_c, 0, 64, 73
1, 35184, Control_c, 0, 64, 65
1, 35198, Control_c, 0, 64, 61
1, 35213, Control_c, 0, 64, 61
1, 35228, Control_c, 0, 64, 62
1, 35243, Control_c, 0, 64, 63
1, 35258, Control_c, 0, 64, 65
1, 35272, Control_c, 0, 64, 68
1, 35286, Control_c, 0, 64, 72
1, 35301, Control_c, 0, 64, 78
1, 35316, Control_c, 0, 64, 84
1, 35331, Control_c, 0, 64, 89
1, 35346, Control_c, 0, 64, 95
1, 35361, Control_c, 0, 64, 105
1, 35369, Note_off_c, 0, 65, 29
1, 35376, Control_c, 0, 64, 127
1, 35464, Note_off_c, 0, 74, 56
1, 35794, Note_on_c, 0, 73, 47
1, 35799, Note_on_c, 0, 63, 26
1, 35803, Note_on_c, 0, 69, 40
1, 35902, Control_c, 0, 64, 115
1, 35917, Control_c, 0, 64, 98
1, 35932, Control_c, 0, 64, 85
1, 35947, Control_c, 0, 64, 73
1, 35962, Control_c, 0, 64, 63
1, 35976, Control_c, 0, 64, 57
1, 35991, Control_c, 0, 64, 55
1, 36006, Control_c, 0, 64, 54
1, 36020, Control_c, 0, 64, 53
1, 36035, Control_c, 0, 64, 53
1, 36080, Control_c, 0, 64, 53
1, 36094, Control_c, 0, 64, 54
1, 36109, Control_c, 0, 64, 56
1, 36124, Control_c, 0, 64, 58
1, 36139, Control_c, 0, 64, 59
1, 36154, Control_c, 0, 64, 61
1, 36169, Control_c, 0, 64, 63
1, 36184, Control_c, 0, 64, 65
1, 36198, Control_c, 0, 64, 67
1, 36214, Control_c, 0, 64, 70
1, 36229, Control_c, 0, 64, 74
1, 36243, Control_c, 0, 64, 79
1, 36258, Control_c, 0, 64, 84
1, 36273, Control_c, 0, 64, 90
1, 36288, Control_c, 0, 64, 97
1, 36303, Control_c, 0, 64, 106
1, 36318, Control_c, 0, 64, 127
1, 36394, Note_off_c, 0, 58, 1
1, 36410, Note_off_c, 0, 46, 39
1, 36411, Note_off_c, 0, 73, 35
1, 36485, Note_off_c, 0, 63, 36
1, 36852, Note_off_c, 0, 69, 36
1, 37375, Note_on_c, 0, 74, 41
1, 37387, Note_on_c, 0, 67, 35
1, 37388, Note_on_c, 0, 58, 32
1, 37394, Note_on_c, 0, 62, 30
1, 37459, Control_c, 0, 64, 105
1, 37474, Control_c, 0, 64, 89
1, 37489, Control_c, 0, 64, 76
1, 37504, Control_c, 0, 64, 68
1, 37519, Control_c, 0, 64, 63
1, 37534, Control_c, 0, 64, 61
1, 37548, Control_c, 0, 64, 61
1, 37563, Control_c, 0, 64, 62
1, 37578, Control_c, 0, 64, 64
1, 37592, Control_c, 0, 64, 66
1, 37607, Control_c, 0, 64, 69
1, 37622, Control_c, 0, 64, 72
1, 37637, Note_off_c, 0, 62, 41
1, 37637, Control_c, 0, 64, 77
1, 37652, Control_c, 0, 64, 82
1, 37666, Control_c, 0, 64, 86
1, 37681, Control_c, 0, 64, 88
1, 37696, Control_c, 0, 64, 91
1, 37711, Control_c, 0, 64, 95
1, 37726, Control_c, 0, 64, 100
1, 37740, Control_c, 0, 64, 106
1, 37755, Control_c, 0, 64, 112
1, 37770, Control_c, 0, 64, 122
1, 37779, Note_off_c, 0, 74, 32
1, 37785, Control_c, 0, 64, 127
1, 37894, Note_off_c, 0, 58, 39
1, 37899, Note_off_c, 0, 67, 42
1, 38006, Note_on_c, 0, 57, 36
1, 38007, Note_on_c, 0, 65, 49
1, 38023, Note_on_c, 0, 60, 36
1, 38045, Control_c, 0, 64, 116
1, 38060, Control_c, 0, 64, 98
1, 38075, Control_c, 0, 64, 82
1, 38089, Control_c, 0, 64, 71
1, 38104, Control_c, 0, 64, 65
1, 38119, Control_c, 0, 64, 64
1, 38134, Control_c, 0, 64, 65
1, 38149, Control_c, 0, 64, 66
1, 38163, Control_c, 0, 64, 68
1, 38178, Control_c, 0, 64, 72
1, 38193, Control_c, 0, 64, 78
1, 38208, Control_c, 0, 64, 84
1, 38222, Control_c, 0, 64, 88
1, 38237, Control_c, 0, 64, 92
1, 38252, Control_c, 0, 64, 94
1, 38259, Note_off_c, 0, 65, 54
1, 38267, Control_c, 0, 64, 96
1, 38327, Control_c, 0, 64, 96
1, 38342, Control_c, 0, 64, 97
1, 38371, Control_c, 0, 64, 97
1, 38386, Control_c, 0, 64, 98
1, 38401, Control_c, 0, 64, 99
1, 38416, Control_c, 0, 64, 100
1, 38427, Note_off_c, 0, 57, 37
1, 38431, Control_c, 0, 64, 101
1, 38446, Control_c, 0, 64, 101
1, 38501, Note_off_c, 0, 60, 39
1, 38599, Note_on_c, 0, 74, 55
1, 38604, Note_on_c, 0, 58, 40
1, 38605, Note_on_c, 0, 55, 35
1, 38608, Note_on_c, 0, 64, 43
1, 38610, Control_c, 0, 64, 100
1, 38625, Control_c, 0, 64, 95
1, 38639, Control_c, 0, 64, 87
1, 38654, Control_c, 0, 64, 75
1, 38676, Control_c, 0, 64, 65
1, 38691, Control_c, 0, 64, 60
1, 38706, Control_c, 0, 64, 59
1, 38720, Control_c, 0, 64, 60
1, 38735, Control_c, 0, 64, 62
1, 38737, Note_off_c, 0, 64, 0
1, 38737, Note_on_c, 0, 64, 5
1, 38750, Control_c, 0, 64, 64
1, 38765, Control_c, 0, 64, 67
1, 38780, Control_c, 0, 64, 72
1, 38795, Control_c, 0, 64, 77
1, 38810, Control_c, 0, 64, 82
1, 38825, Control_c, 0, 64, 85
1, 38839, Control_c, 0, 64, 88
1, 38854, Control_c, 0, 64, 92
1, 38869, Control_c, 0, 64, 95
1, 38884, Control_c, 0, 64, 96
1, 38899, Control_c, 0, 64, 97
1, 38913, Note_off_c, 0, 64, 41
1, 38913, Control_c, 0, 64, 97
1, 38928, Control_c, 0, 64, 98
1, 38943, Control_c, 0, 64, 98
1, 39096, Note_off_c, 0, 74, 48
1, 39135, Control_c, 0, 64, 98
1, 39150, Control_c, 0, 64, 97
1, 39161, Note_off_c, 0, 58, 34
1, 39164, Control_c, 0, 64, 96
1, 39178, Note_on_c, 0, 73, 51
1, 39179, Note_on_c, 0, 57, 37
1, 39179, Control_c, 0, 64, 94
1, 39194, Control_c, 0, 64, 89
1, 39197, Note_on_c, 0, 64, 38
1, 39209, Control_c, 0, 64, 80
1, 39224, Control_c, 0, 64, 69
1, 39238, Control_c, 0, 64, 62
1, 39253, Control_c, 0, 64, 56
1, 39268, Control_c, 0, 64, 55
1, 39280, Note_off_c, 0, 64, 0
1, 39312, Control_c, 0, 64, 56
1, 39316, Poly_aftertouch_c, 0, 64, 127
1, 39327, Control_c, 0, 64, 59
1, 39342, Control_c, 0, 64, 62
1, 39357, Control_c, 0, 64, 64
1, 39371, Control_c, 0, 64, 67
1, 39386, Control_c, 0, 64, 70
1, 39401, Control_c, 0, 64, 73
1, 39424, Control_c, 0, 64, 77
1, 39439, Control_c, 0, 64, 80
1, 39442, Poly_aftertouch_c, 0, 64, 0
1, 39454, Control_c, 0, 64, 83
1, 39468, Control_c, 0, 64, 87
1, 39483, Control_c, 0, 64, 91
1, 39498, Control_c, 0, 64, 94
1, 39513, Control_c, 0, 64, 96
1, 39528, Control_c, 0, 64, 98
1, 39543, Control_c, 0, 64, 99
1, 39558, Note_off_c, 0, 57, 34
1, 39558, Control_c, 0, 64, 100
1, 39573, Control_c, 0, 64, 101
1, 39583, Note_off_c, 0, 73, 29
1, 39588, Control_c, 0, 64, 102
1, 39598, Note_off_c, 0, 55, 39
1, 39603, Control_c, 0, 64, 103
1, 39617, Control_c, 0, 64, 105
1, 39632, Control_c, 0, 64, 107
1, 39647, Control_c, 0, 64, 109
1, 39662, Control_c, 0, 64, 111
1, 39676, Control_c, 0, 64, 112
1, 39691, Control_c, 0, 64, 115
1, 39706, Control_c, 0, 64, 116
1, 39780, Control_c, 0, 64, 115
1, 39795, Control_c, 0, 64, 110
1, 39805, Note_on_c, 0, 74, 48
1, 39809, Control_c, 0, 64, 106
1, 39814, Note_on_c, 0, 65, 37
1, 39824, Control_c, 0, 64, 99
1, 39827, Note_on_c, 0, 53, 35
1, 39839, Control_c, 0, 64, 88
1, 39854, Control_c, 0, 64, 76
1, 39868, Control_c, 0, 64, 66
1, 39883, Control_c, 0, 64, 59
1, 39898, Control_c, 0, 64, 56
1, 39942, Control_c, 0, 64, 57
1, 39957, Control_c, 0, 64, 59
1, 39972, Control_c, 0, 64, 62
1, 39987, Control_c, 0, 64, 64
1, 40002, Control_c, 0, 64, 66
1, 40017, Control_c, 0, 64, 69
1, 40032, Control_c, 0, 64, 72
1, 40047, Control_c, 0, 64, 75
1, 40061, Control_c, 0, 64, 79
1, 40076, Control_c, 0, 64, 82
1, 40083, Note_off_c, 0, 74, 55
1, 40091, Control_c, 0, 64, 84
1, 40106, Control_c, 0, 64, 86
1, 40116, Note_off_c, 0, 65, 41
1, 40121, Control_c, 0, 64, 88
1, 40135, Control_c, 0, 64, 90
1, 40150, Control_c, 0, 64, 91
1, 40172, Control_c, 0, 64, 92
1, 40187, Control_c, 0, 64, 93
1, 40200, Note_off_c, 0, 53, 37
1, 40202, Control_c, 0, 64, 94
1, 40218, Control_c, 0, 64, 95
1, 40233, Control_c, 0, 64, 95
1, 40247, Control_c, 0, 64, 96
1, 40336, Control_c, 0, 64, 95
1, 40351, Control_c, 0, 64, 95
1, 40366, Control_c, 0, 64, 94
1, 40381, Control_c, 0, 64, 92
1, 40396, Control_c, 0, 64, 89
1, 40410, Control_c, 0, 64, 83
1, 40425, Control_c, 0, 64, 76
1, 40440, Control_c, 0, 64, 68
1, 40455, Control_c, 0, 64, 62
1, 40470, Control_c, 0, 64, 57
1, 40477, Note_on_c, 0, 76, 41
1, 40482, Note_on_c, 0, 70, 29
1, 40483, Note_on_c, 0, 64, 28
1, 40485, Note_on_c, 0, 55, 35
1, 40485, Control_c, 0, 64, 54
1, 40499, Control_c, 0, 64, 53
1, 40514, Control_c, 0, 64, 52
1, 40529, Control_c, 0, 64, 54
1, 40544, Control_c, 0, 64, 58
1, 40559, Control_c, 0, 64, 62
1, 40573, Control_c, 0, 64, 65
1, 40585, Note_off_c, 0, 55, 48
1, 40588, Control_c, 0, 64, 68
1, 40603, Control_c, 0, 64, 72
1, 40609, Note_off_c, 0, 70, 31
1, 40613, Note_off_c, 0, 76, 62
1, 40617, Control_c, 0, 64, 78
1, 40632, Control_c, 0, 64, 82
1, 40633, Note_off_c, 0, 64, 35
1, 40647, Control_c, 0, 64, 87
1, 40662, Control_c, 0, 64, 91
1, 40677, Control_c, 0, 64, 96
1, 40691, Control_c, 0, 64, 99
1, 40706, Control_c, 0, 64, 101
1, 40765, Control_c, 0, 64, 100
1, 40780, Control_c, 0, 64, 97
1, 40795, Control_c, 0, 64, 93
1, 40810, Control_c, 0, 64, 85
1, 40825, Control_c, 0, 64, 77
1, 40840, Control_c, 0, 64, 70
1, 40855, Control_c, 0, 64, 64
1, 40869, Control_c, 0, 64, 61
1, 40884, Control_c, 0, 64, 58
1, 40899, Control_c, 0, 64, 57
1, 40921, Control_c, 0, 64, 56
1, 40936, Control_c, 0, 64, 54
1, 40951, Control_c, 0, 64, 54
1, 40965, Control_c, 0, 64, 53
1, 41026, Control_c, 0, 64, 54
1, 41040, Control_c, 0, 64, 55
1, 41055, Control_c, 0, 64, 56
1, 41070, Control_c, 0, 64, 58
1, 41085, Control_c, 0, 64, 61
1, 41100, Control_c, 0, 64, 63
1, 41114, Control_c, 0, 64, 65
1, 41129, Control_c, 0, 64, 67
1, 41144, Control_c, 0, 64, 70
1, 41155, Note_on_c, 0, 73, 38
1, 41157, Note_on_c, 0, 69, 33
1, 41158, Note_on_c, 0, 67, 27
1, 41159, Control_c, 0, 64, 74
1, 41163, Note_on_c, 0, 57, 32
1, 41174, Control_c, 0, 64, 79
1, 41188, Control_c, 0, 64, 83
1, 41203, Control_c, 0, 64, 86
1, 41218, Control_c, 0, 64, 89
1, 41233, Control_c, 0, 64, 92
1, 41248, Control_c, 0, 64, 95
1, 41263, Note_off_c, 0, 73, 52
1, 41263, Control_c, 0, 64, 96
1, 41263, Note_off_c, 0, 69, 33
1, 41275, Note_off_c, 0, 67, 37
1, 41277, Note_off_c, 0, 57, 40
1, 41278, Control_c, 0, 64, 96
1, 41382, Control_c, 0, 64, 96
1, 41396, Control_c, 0, 64, 95
1, 41411, Control_c, 0, 64, 94
1, 41426, Control_c, 0, 64, 92
1, 41440, Control_c, 0, 64, 91
1, 41455, Control_c, 0, 64, 89
1, 41470, Control_c, 0, 64, 87
1, 41485, Control_c, 0, 64, 85
1, 41500, Control_c, 0, 64, 84
1, 41514, Control_c, 0, 64, 82
1, 41529, Control_c, 0, 64, 81
1, 41544, Control_c, 0, 64, 79
1, 41559, Control_c, 0, 64, 77
1, 41574, Control_c, 0, 64, 75
1, 41588, Control_c, 0, 64, 73
1, 41603, Control_c, 0, 64, 72
1, 41618, Control_c, 0, 64, 70
1, 41633, Control_c, 0, 64, 68
1, 41648, Control_c, 0, 64, 65
1, 41670, Control_c, 0, 64, 63
1, 41685, Control_c, 0, 64, 61
1, 41700, Control_c, 0, 64, 58
1, 41714, Control_c, 0, 64, 56
1, 41729, Control_c, 0, 64, 52
1, 41744, Control_c, 0, 64, 46
1, 41759, Control_c, 0, 64, 40
1, 41774, Control_c, 0, 64, 29
1, 41788, Control_c, 0, 64, 0
1, 42006, Note_on_c, 0, 74, 40
1, 42008, Note_on_c, 0, 69, 31
1, 42013, Note_on_c, 0, 65, 29
1, 42032, Note_on_c, 0, 50, 24
1, 42101, Control_c, 0, 64, 15
1, 42116, Control_c, 0, 64, 35
1, 42131, Control_c, 0, 64, 44
1, 42145, Control_c, 0, 64, 51
1, 42160, Control_c, 0, 64, 56
1, 42175, Control_c, 0, 64, 59
1, 42190, Control_c, 0, 64, 61
1, 42205, Control_c, 0, 64, 64
1, 42220, Control_c, 0, 64, 66
1, 42235, Control_c, 0, 64, 69
1, 42250, Control_c, 0, 64, 73
1, 42264, Control_c, 0, 64, 78
1, 42279, Control_c, 0, 64, 83
1, 42294, Control_c, 0, 64, 91
1, 42309, Control_c, 0, 64, 99
1, 42324, Control_c, 0, 64, 110
1, 42338, Control_c, 0, 64, 127
1, 42368, Note_off_c, 0, 74, 32
1, 42431, Note_off_c, 0, 69, 18
1, 42434, Note_off_c, 0, 65, 39
1, 42476, Note_off_c, 0, 50, 36
1, 42806, Control_c, 0, 64, 119
1, 42821, Control_c, 0, 64, 112
1, 42835, Control_c, 0, 64, 108
1, 42850, Control_c, 0, 64, 104
1, 42865, Control_c, 0, 64, 99
1, 42880, Control_c, 0, 64, 96
1, 42894, Control_c, 0, 64, 94
1, 42909, Control_c, 0, 64, 92
1, 42924, Control_c, 0, 64, 89
1, 42939, Control_c, 0, 64, 86
1, 42953, Control_c, 0, 64, 83
1, 42968, Control_c, 0, 64, 81
1, 42983, Control_c, 0, 64, 79
1, 42998, Control_c, 0, 64, 77
1, 43013, Control_c, 0, 64, 76
1, 43028, Control_c, 0, 64, 74
1, 43043, Control_c, 0, 64, 73
1, 43057, Control_c, 0, 64, 71
1, 43072, Control_c, 0, 64, 70
1, 43087, Control_c, 0, 64, 69
1, 43102, Control_c, 0, 64, 68
1, 43117, Control_c, 0, 64, 68
1, 43132, Control_c, 0, 64, 67
1, 43147, Control_c, 0, 64, 66
1, 43168, Control_c, 0, 64, 65
1, 43183, Control_c, 0, 64, 65
1, 43198, Control_c, 0, 64, 64
1, 43212, Control_c, 0, 64, 63
1, 43227, Control_c, 0, 64, 63
1, 43242, Control_c, 0, 64, 62
1, 43257, Control_c, 0, 64, 62
1, 43272, Control_c, 0, 64, 61
1, 43287, Control_c, 0, 64, 61
1, 43302, Control_c, 0, 64, 60
1, 43317, Control_c, 0, 64, 60
1, 43332, Control_c, 0, 64, 59
1, 43347, Control_c, 0, 64, 59
1, 43361, Control_c, 0, 64, 58
1, 43376, Control_c, 0, 64, 57
1, 43391, Control_c, 0, 64, 57
1, 43406, Control_c, 0, 64, 56
1, 43421, Control_c, 0, 64, 56
1, 43436, Control_c, 0, 64, 55
1, 43451, Control_c, 0, 64, 55
1, 43466, Control_c, 0, 64, 54
1, 43496, Control_c, 0, 64, 54
1, 43524, Control_c, 0, 64, 53
1, 43554, Control_c, 0, 64, 53
1, 43642, Control_c, 0, 64, 52
1, 43647, Note_on_c, 0, 65, 51
1, 43648, Note_on_c, 0, 69, 56
1, 43761, Control_c, 0, 64, 52
1, 43865, Control_c, 0, 64, 51
1, 43924, Note_on_c, 0, 64, 35
1, 43946, Control_c, 0, 64, 51
1, 43991, Note_off_c, 0, 65, 28
1, 44005, Control_c, 0, 64, 50
1, 44050, Control_c, 0, 64, 50
1, 44159, Note_on_c, 0, 50, 36
1, 44162, Note_on_c, 0, 38, 27
1, 44163, Note_on_c, 0, 62, 24
1, 44175, Note_off_c, 0, 64, 34
1, 44202, Note_off_c, 0, 38, 53
1, 44205, Note_off_c, 0, 50, 59
1, 44214, Control_c, 0, 64, 49
1, 44244, Control_c, 0, 64, 49
1, 44273, Control_c, 0, 64, 48
1, 44318, Control_c, 0, 64, 48
1, 44362, Control_c, 0, 64, 47
1, 44374, Note_off_c, 0, 62, 53
1, 44387, Note_on_c, 0, 60, 42
1, 44510, Control_c, 0, 64, 47
1, 44569, Control_c, 0, 64, 46
1, 44587, Note_off_c, 0, 60, 42
1, 44600, Note_on_c, 0, 52, 47
1, 44609, Note_on_c, 0, 40, 42
1, 44614, Control_c, 0, 64, 46
1, 44616, Note_on_c, 0, 59, 39
1, 44642, Note_off_c, 0, 52, 65
1, 44643, Control_c, 0, 64, 45
1, 44645, Note_off_c, 0, 40, 63
1, 44665, Control_c, 0, 64, 45
1, 44680, Control_c, 0, 64, 44
1, 44695, Control_c, 0, 64, 44
1, 44710, Control_c, 0, 64, 43
1, 44725, Control_c, 0, 64, 43
1, 44754, Control_c, 0, 64, 42
1, 44784, Control_c, 0, 64, 42
1, 44797, Note_off_c, 0, 59, 60
1, 44837, Note_on_c, 0, 60, 38
1, 44992, Control_c, 0, 64, 42
1, 45022, Control_c, 0, 64, 43
1, 45034, Note_off_c, 0, 60, 43
1, 45036, Control_c, 0, 64, 43
1, 45043, Note_on_c, 0, 68, 51
1, 45051, Control_c, 0, 64, 44
1, 45066, Control_c, 0, 64, 46
1, 45073, Note_on_c, 0, 62, 30
1, 45080, Control_c, 0, 64, 47
1, 45095, Control_c, 0, 64, 49
1, 45099, Note_off_c, 0, 69, 45
1, 45110, Control_c, 0, 64, 51
1, 45125, Control_c, 0, 64, 54
1, 45140, Control_c, 0, 64, 57
1, 45154, Control_c, 0, 64, 60
1, 45169, Control_c, 0, 64, 63
1, 45184, Control_c, 0, 64, 66
1, 45199, Control_c, 0, 64, 70
1, 45214, Control_c, 0, 64, 75
1, 45223, Note_off_c, 0, 62, 21
1, 45228, Control_c, 0, 64, 81
1, 45243, Control_c, 0, 64, 87
1, 45258, Control_c, 0, 64, 94
1, 45264, Note_off_c, 0, 68, 62
1, 45272, Control_c, 0, 64, 104
1, 45278, Note_on_c, 0, 64, 46
1, 45287, Control_c, 0, 64, 116
1, 45302, Control_c, 0, 64, 127
1, 45347, Note_off_c, 0, 64, 44
1, 45392, Control_c, 0, 64, 125
1, 45414, Control_c, 0, 64, 116
1, 45428, Control_c, 0, 64, 110
1, 45443, Control_c, 0, 64, 105
1, 45458, Control_c, 0, 64, 100
1, 45473, Control_c, 0, 64, 95
1, 45487, Control_c, 0, 64, 91
1, 45494, Note_on_c, 0, 74, 65
1, 45501, Note_on_c, 0, 70, 53
1, 45502, Control_c, 0, 64, 86
1, 45508, Note_on_c, 0, 65, 47
1, 45517, Control_c, 0, 64, 83
1, 45532, Control_c, 0, 64, 79
1, 45547, Control_c, 0, 64, 75
1, 45561, Control_c, 0, 64, 71
1, 45576, Control_c, 0, 64, 68
1, 45591, Control_c, 0, 64, 65
1, 45606, Control_c, 0, 64, 62
1, 45621, Control_c, 0, 64, 59
1, 45636, Control_c, 0, 64, 55
1, 45651, Control_c, 0, 64, 50
1, 45666, Control_c, 0, 64, 45
1, 45680, Control_c, 0, 64, 40
1, 45695, Control_c, 0, 64, 35
1, 45710, Control_c, 0, 64, 31
1, 45712, Note_on_c, 0, 64, 43
1, 45725, Control_c, 0, 64, 28
1, 45738, Note_off_c, 0, 65, 50
1, 45740, Control_c, 0, 64, 25
1, 45754, Control_c, 0, 64, 23
1, 45769, Control_c, 0, 64, 20
1, 45784, Control_c, 0, 64, 18
1, 45799, Control_c, 0, 64, 16
1, 45815, Control_c, 0, 64, 14
1, 45830, Control_c, 0, 64, 12
1, 45845, Control_c, 0, 64, 11
1, 45889, Control_c, 0, 64, 9
1, 45911, Note_on_c, 0, 43, 47
1, 45912, Note_on_c, 0, 67, 44
1, 45913, Note_off_c, 0, 64, 37
1, 45916, Note_on_c, 0, 55, 50
1, 45948, Control_c, 0, 64, 0
1, 45952, Note_off_c, 0, 43, 64
1, 45955, Note_off_c, 0, 55, 64
1, 46126, Note_on_c, 0, 65, 41
1, 46139, Note_off_c, 0, 67, 36
1, 46348, Note_on_c, 0, 57, 35
1, 46349, Note_on_c, 0, 45, 31
1, 46352, Note_off_c, 0, 65, 48
1, 46353, Note_on_c, 0, 64, 38
1, 46395, Note_off_c, 0, 45, 60
1, 46399, Note_off_c, 0, 57, 63
1, 46503, Note_off_c, 0, 64, 47
1, 46541, Note_on_c, 0, 65, 43
1, 46563, Note_off_c, 0, 70, 48
1, 46734, Note_off_c, 0, 65, 60
1, 46748, Note_on_c, 0, 73, 63
1, 46749, Note_on_c, 0, 67, 47
1, 46771, Control_c, 0, 64, 14
1, 46786, Control_c, 0, 64, 20
1, 46800, Control_c, 0, 64, 27
1, 46815, Control_c, 0, 64, 35
1, 46819, Note_off_c, 0, 74, 57
1, 46830, Control_c, 0, 64, 42
1, 46845, Control_c, 0, 64, 48
1, 46859, Control_c, 0, 64, 53
1, 46874, Control_c, 0, 64, 56
1, 46889, Control_c, 0, 64, 59
1, 46912, Control_c, 0, 64, 62
1, 46927, Control_c, 0, 64, 65
1, 46941, Control_c, 0, 64, 67
1, 46954, Note_on_c, 0, 70, 64
1, 46956, Control_c, 0, 64, 72
1, 46971, Control_c, 0, 64, 75
1, 46986, Control_c, 0, 64, 78
1, 46997, Note_off_c, 0, 67, 42
1, 47001, Control_c, 0, 64, 81
1, 47015, Control_c, 0, 64, 83
1, 47030, Control_c, 0, 64, 85
1, 47074, Control_c, 0, 64, 84
1, 47089, Control_c, 0, 64, 84
1, 47104, Control_c, 0, 64, 83
1, 47119, Control_c, 0, 64, 81
1, 47133, Control_c, 0, 64, 79
1, 47148, Control_c, 0, 64, 75
1, 47163, Control_c, 0, 64, 71
1, 47177, Note_on_c, 0, 77, 75
1, 47178, Control_c, 0, 64, 67
1, 47192, Note_off_c, 0, 70, 51
1, 47193, Control_c, 0, 64, 63
1, 47198, Note_on_c, 0, 69, 47
1, 47207, Control_c, 0, 64, 59
1, 47222, Control_c, 0, 64, 54
1, 47227, Note_off_c, 0, 73, 58
1, 47237, Control_c, 0, 64, 49
1, 47252, Control_c, 0, 64, 49
1, 47267, Control_c, 0, 64, 50
1, 47281, Control_c, 0, 64, 54
1, 47296, Control_c, 0, 64, 60
1, 47311, Control_c, 0, 64, 63
1, 47326, Control_c, 0, 64, 66
1, 47341, Control_c, 0, 64, 70
1, 47356, Control_c, 0, 64, 74
1, 47368, Note_off_c, 0, 69, 42
1, 47371, Control_c, 0, 64, 78
1, 47386, Note_on_c, 0, 68, 53
1, 47386, Control_c, 0, 64, 81
1, 47401, Control_c, 0, 64, 84
1, 47407, Note_off_c, 0, 77, 58
1, 47416, Control_c, 0, 64, 85
1, 47460, Control_c, 0, 64, 84
1, 47475, Control_c, 0, 64, 84
1, 47490, Control_c, 0, 64, 82
1, 47505, Control_c, 0, 64, 80
1, 47520, Control_c, 0, 64, 77
1, 47535, Control_c, 0, 64, 73
1, 47549, Control_c, 0, 64, 69
1, 47550, Note_off_c, 0, 68, 48
1, 47564, Control_c, 0, 64, 64
1, 47568, Note_on_c, 0, 76, 72
1, 47573, Note_on_c, 0, 73, 50
1, 47579, Note_on_c, 0, 69, 44
1, 47579, Control_c, 0, 64, 60
1, 47585, Note_on_c, 0, 45, 44
1, 47588, Note_on_c, 0, 57, 47
1, 47594, Control_c, 0, 64, 55
1, 47609, Control_c, 0, 64, 52
1, 47621, Note_off_c, 0, 45, 64
1, 47623, Control_c, 0, 64, 51
1, 47627, Note_off_c, 0, 57, 64
1, 47660, Control_c, 0, 64, 50
1, 47728, Note_off_c, 0, 69, 44
1, 47764, Control_c, 0, 64, 52
1, 47770, Note_on_c, 0, 67, 52
1, 47779, Control_c, 0, 64, 53
1, 47794, Control_c, 0, 64, 55
1, 47809, Control_c, 0, 64, 57
1, 47824, Note_off_c, 0, 76, 56
1, 47824, Control_c, 0, 64, 60
1, 47838, Control_c, 0, 64, 62
1, 47853, Control_c, 0, 64, 63
1, 47868, Control_c, 0, 64, 65
1, 47878, Note_off_c, 0, 73, 61
1, 47882, Control_c, 0, 64, 66
1, 47897, Control_c, 0, 64, 67
1, 47912, Control_c, 0, 64, 67
1, 47956, Control_c, 0, 64, 67
1, 47971, Control_c, 0, 64, 66
1, 47973, Note_on_c, 0, 74, 70
1, 47984, Note_off_c, 0, 67, 55
1, 47986, Control_c, 0, 64, 66
1, 47987, Note_on_c, 0, 46, 42
1, 47987, Note_on_c, 0, 58, 43
1, 47997, Note_on_c, 0, 65, 39
1, 48001, Control_c, 0, 64, 64
1, 48016, Control_c, 0, 64, 63
1, 48021, Note_off_c, 0, 58, 64
1, 48024, Note_off_c, 0, 46, 63
1, 48030, Control_c, 0, 64, 60
1, 48045, Control_c, 0, 64, 57
1, 48060, Control_c, 0, 64, 55
1, 48119, Control_c, 0, 64, 56
1, 48134, Control_c, 0, 64, 57
1, 48149, Control_c, 0, 64, 59
1, 48164, Control_c, 0, 64, 61
1, 48176, Note_on_c, 0, 64, 57
1, 48179, Control_c, 0, 64, 62
1, 48194, Control_c, 0, 64, 63
1, 48209, Control_c, 0, 64, 64
1, 48217, Note_off_c, 0, 74, 55
1, 48224, Control_c, 0, 64, 65
1, 48225, Note_off_c, 0, 65, 45
1, 48239, Control_c, 0, 64, 66
1, 48253, Control_c, 0, 64, 67
1, 48268, Control_c, 0, 64, 68
1, 48328, Control_c, 0, 64, 67
1, 48365, Note_off_c, 0, 64, 62
1, 48369, Note_on_c, 0, 41, 36
1, 48369, Note_on_c, 0, 53, 40
1, 48371, Note_on_c, 0, 72, 66
1, 48372, Control_c, 0, 64, 67
1, 48372, Note_on_c, 0, 69, 48
1, 48378, Note_on_c, 0, 65, 33
1, 48387, Control_c, 0, 64, 66
1, 48409, Control_c, 0, 64, 66
1, 48417, Note_off_c, 0, 41, 54
1, 48423, Note_off_c, 0, 53, 60
1, 48424, Control_c, 0, 64, 65
1, 48439, Control_c, 0, 64, 63
1, 48453, Control_c, 0, 64, 61
1, 48468, Control_c, 0, 64, 60
1, 48498, Control_c, 0, 64, 61
1, 48513, Control_c, 0, 64, 61
1, 48527, Control_c, 0, 64, 62
1, 48542, Control_c, 0, 64, 63
1, 48557, Control_c, 0, 64, 65
1, 48572, Control_c, 0, 64, 66
1, 48580, Note_off_c, 0, 69, 56
1, 48587, Control_c, 0, 64, 67
1, 48593, Note_on_c, 0, 63, 50
1, 48602, Control_c, 0, 64, 68
1, 48611, Note_off_c, 0, 65, 33
1, 48611, Note_off_c, 0, 72, 62
1, 48617, Control_c, 0, 64, 69
1, 48647, Control_c, 0, 64, 70
1, 48676, Control_c, 0, 64, 69
1, 48720, Control_c, 0, 64, 69
1, 48735, Control_c, 0, 64, 68
1, 48765, Control_c, 0, 64, 68
1, 48779, Control_c, 0, 64, 67
1, 48784, Note_on_c, 0, 43, 40
1, 48787, Note_on_c, 0, 72, 66
1, 48791, Note_off_c, 0, 63, 60
1, 48794, Control_c, 0, 64, 67
1, 48798, Note_on_c, 0, 69, 48
1, 48805, Note_on_c, 0, 55, 13
1, 48809, Control_c, 0, 64, 66
1, 48824, Control_c, 0, 64, 65
1, 48835, Note_off_c, 0, 43, 59
1, 48839, Control_c, 0, 64, 64
1, 48853, Control_c, 0, 64, 64
1, 48856, Note_off_c, 0, 55, 35
1, 48868, Control_c, 0, 64, 63
1, 48883, Control_c, 0, 64, 61
1, 48897, Control_c, 0, 64, 59
1, 48912, Control_c, 0, 64, 56
1, 48927, Control_c, 0, 64, 53
1, 48942, Control_c, 0, 64, 50
1, 48957, Control_c, 0, 64, 47
1, 48972, Control_c, 0, 64, 45
1, 48986, Control_c, 0, 64, 44
1, 48988, Note_on_c, 0, 62, 41
1, 49002, Control_c, 0, 64, 44
1, 49017, Control_c, 0, 64, 43
1, 49121, Control_c, 0, 64, 44
1, 49122, Note_off_c, 0, 62, 30
1, 49136, Control_c, 0, 64, 45
1, 49158, Control_c, 0, 64, 46
1, 49173, Control_c, 0, 64, 49
1, 49183, Note_on_c, 0, 67, 43
1, 49186, Note_on_c, 0, 31, 34
1, 49188, Control_c, 0, 64, 53
1, 49193, Note_off_c, 0, 72, 53
1, 49195, Note_on_c, 0, 64, 35
1, 49202, Note_on_c, 0, 43, 28
1, 49202, Control_c, 0, 64, 56
1, 49217, Control_c, 0, 64, 59
1, 49223, Note_off_c, 0, 69, 55
1, 49231, Note_off_c, 0, 31, 61
1, 49232, Control_c, 0, 64, 61
1, 49239, Note_off_c, 0, 43, 56
1, 49247, Control_c, 0, 64, 63
1, 49262, Control_c, 0, 64, 65
1, 49276, Control_c, 0, 64, 69
1, 49291, Control_c, 0, 64, 73
1, 49306, Control_c, 0, 64, 78
1, 49320, Control_c, 0, 64, 82
1, 49335, Control_c, 0, 64, 85
1, 49350, Control_c, 0, 64, 88
1, 49365, Control_c, 0, 64, 90
1, 49377, Note_off_c, 0, 67, 58
1, 49380, Control_c, 0, 64, 90
1, 49386, Note_off_c, 0, 64, 22
1, 49386, Note_on_c, 0, 70, 57
1, 49419, Note_on_c, 0, 62, 34
1, 49463, Note_off_c, 0, 70, 47
1, 49469, Control_c, 0, 64, 90
1, 49499, Control_c, 0, 64, 89
1, 49514, Control_c, 0, 64, 89
1, 49516, Note_off_c, 0, 62, 28
1, 49528, Control_c, 0, 64, 88
1, 49543, Control_c, 0, 64, 87
1, 49558, Control_c, 0, 64, 86
1, 49573, Control_c, 0, 64, 85
1, 49588, Control_c, 0, 64, 84
1, 49602, Control_c, 0, 64, 82
1, 49617, Control_c, 0, 64, 80
1, 49624, Note_on_c, 0, 69, 54
1, 49626, Note_on_c, 0, 33, 31
1, 49632, Control_c, 0, 64, 77
1, 49633, Note_on_c, 0, 45, 31
1, 49636, Note_on_c, 0, 67, 45
1, 49638, Note_on_c, 0, 61, 27
1, 49646, Control_c, 0, 64, 75
1, 49661, Control_c, 0, 64, 71
1, 49676, Control_c, 0, 64, 67
1, 49691, Control_c, 0, 64, 63
1, 49695, Note_off_c, 0, 45, 58
1, 49699, Note_off_c, 0, 33, 58
1, 49706, Control_c, 0, 64, 58
1, 49720, Control_c, 0, 64, 53
1, 49735, Control_c, 0, 64, 50
1, 49750, Control_c, 0, 64, 46
1, 49753, Note_off_c, 0, 61, 0
1, 49765, Control_c, 0, 64, 44
1, 49780, Control_c, 0, 64, 41
1, 49791, Poly_aftertouch_c, 0, 61, 127
1, 49796, Control_c, 0, 64, 40
1, 49811, Control_c, 0, 64, 38
1, 49825, Control_c, 0, 64, 37
1, 49834, Note_on_c, 0, 64, 41
1, 49840, Control_c, 0, 64, 36
1, 49845, Poly_aftertouch_c, 0, 61, 0
1, 49870, Control_c, 0, 64, 36
1, 49885, Control_c, 0, 64, 35
1, 49907, Control_c, 0, 64, 35
1, 49937, Control_c, 0, 64, 34
1, 49966, Control_c, 0, 64, 33
1, 49981, Control_c, 0, 64, 33
1, 50011, Control_c, 0, 64, 32
1, 50040, Note_on_c, 0, 65, 43
1, 50055, Control_c, 0, 64, 32
1, 50072, Note_off_c, 0, 69, 49
1, 50089, Note_off_c, 0, 67, 35
1, 50099, Control_c, 0, 64, 31
1, 50152, Note_off_c, 0, 64, 37
1, 50203, Control_c, 0, 64, 31
1, 50233, Control_c, 0, 64, 30
1, 50241, Note_on_c, 0, 67, 54
1, 50251, Note_off_c, 0, 65, 59
1, 50277, Control_c, 0, 64, 30
1, 50459, Note_on_c, 0, 69, 67
1, 50462, Note_on_c, 0, 65, 48
1, 50463, Note_off_c, 0, 67, 58
1, 50588, Control_c, 0, 64, 29
1, 50685, Note_on_c, 0, 64, 41
1, 50726, Note_off_c, 0, 65, 36
1, 50856, Note_off_c, 0, 64, 57
1, 50873, Note_on_c, 0, 50, 38
1, 50880, Note_on_c, 0, 38, 33
1, 50884, Note_on_c, 0, 62, 35
1, 50918, Note_off_c, 0, 50, 62
1, 50925, Note_off_c, 0, 38, 61
1, 51039, Note_off_c, 0, 62, 46
1, 51067, Note_on_c, 0, 61, 38
1, 51240, Note_off_c, 0, 61, 60
1, 51270, Note_on_c, 0, 62, 35
1, 51273, Note_on_c, 0, 47, 42
1, 51279, Note_on_c, 0, 35, 37
1, 51315, Note_off_c, 0, 47, 62
1, 51318, Note_off_c, 0, 35, 59
1, 51479, Note_on_c, 0, 65, 38
1, 51535, Note_off_c, 0, 62, 40
1, 51568, Control_c, 0, 64, 30
1, 51583, Control_c, 0, 64, 30
1, 51597, Control_c, 0, 64, 31
1, 51612, Control_c, 0, 64, 31
1, 51627, Control_c, 0, 64, 33
1, 51642, Control_c, 0, 64, 34
1, 51657, Control_c, 0, 64, 35
1, 51667, Note_on_c, 0, 68, 53
1, 51671, Control_c, 0, 64, 37
1, 51683, Note_off_c, 0, 65, 53
1, 51686, Control_c, 0, 64, 40
1, 51701, Control_c, 0, 64, 45
1, 51705, Note_off_c, 0, 69, 38
1, 51716, Control_c, 0, 64, 49
1, 51730, Control_c, 0, 64, 53
1, 51745, Control_c, 0, 64, 56
1, 51760, Control_c, 0, 64, 59
1, 51775, Control_c, 0, 64, 61
1, 51790, Control_c, 0, 64, 63
1, 51804, Control_c, 0, 64, 66
1, 51819, Control_c, 0, 64, 69
1, 51834, Control_c, 0, 64, 73
1, 51849, Control_c, 0, 64, 77
1, 51863, Note_on_c, 0, 62, 39
1, 51864, Control_c, 0, 64, 81
1, 51868, Note_off_c, 0, 68, 56
1, 51878, Control_c, 0, 64, 83
1, 51893, Control_c, 0, 64, 84
1, 51938, Control_c, 0, 64, 84
1, 51952, Control_c, 0, 64, 83
1, 51967, Control_c, 0, 64, 82
1, 51982, Control_c, 0, 64, 81
1, 51997, Control_c, 0, 64, 79
1, 52012, Control_c, 0, 64, 76
1, 52027, Control_c, 0, 64, 73
1, 52038, Note_off_c, 0, 62, 51
1, 52041, Control_c, 0, 64, 71
1, 52056, Control_c, 0, 64, 70
1, 52063, Note_on_c, 0, 67, 49
1, 52066, Note_on_c, 0, 63, 40
1, 52071, Control_c, 0, 64, 68
1, 52086, Control_c, 0, 64, 65
1, 52101, Control_c, 0, 64, 62
1, 52115, Control_c, 0, 64, 59
1, 52130, Control_c, 0, 64, 57
1, 52152, Control_c, 0, 64, 55
1, 52167, Control_c, 0, 64, 51
1, 52182, Control_c, 0, 64, 48
1, 52198, Control_c, 0, 64, 43
1, 52213, Control_c, 0, 64, 39
1, 52227, Control_c, 0, 64, 35
1, 52242, Control_c, 0, 64, 32
1, 52257, Control_c, 0, 64, 30
1, 52271, Note_on_c, 0, 62, 44
1, 52272, Control_c, 0, 64, 28
1, 52287, Control_c, 0, 64, 27
1, 52292, Note_off_c, 0, 63, 36
1, 52301, Control_c, 0, 64, 26
1, 52316, Control_c, 0, 64, 25
1, 52331, Control_c, 0, 64, 24
1, 52346, Control_c, 0, 64, 23
1, 52361, Control_c, 0, 64, 23
1, 52376, Control_c, 0, 64, 22
1, 52406, Control_c, 0, 64, 21
1, 52418, Note_off_c, 0, 62, 51
1, 52420, Control_c, 0, 64, 20
1, 52435, Control_c, 0, 64, 19
1, 52450, Control_c, 0, 64, 19
1, 52461, Note_on_c, 0, 36, 31
1, 52461, Note_on_c, 0, 48, 35
1, 52461, Note_on_c, 0, 60, 37
1, 52480, Control_c, 0, 64, 18
1, 52490, Note_off_c, 0, 48, 53
1, 52494, Control_c, 0, 64, 17
1, 52499, Note_off_c, 0, 36, 50
1, 52524, Control_c, 0, 64, 16
1, 52539, Control_c, 0, 64, 15
1, 52583, Control_c, 0, 64, 14
1, 52636, Note_off_c, 0, 60, 39
1, 52643, Note_on_c, 0, 59, 36
1, 52716, Control_c, 0, 64, 13
1, 52820, Note_off_c, 0, 59, 49
1, 52852, Note_on_c, 0, 45, 36
1, 52865, Note_on_c, 0, 33, 27
1, 52869, Note_on_c, 0, 60, 26
1, 52899, Note_off_c, 0, 45, 59
1, 52915, Note_off_c, 0, 33, 48
1, 52931, Control_c, 0, 64, 12
1, 53059, Note_on_c, 0, 63, 34
1, 53070, Note_off_c, 0, 60, 36
1, 53235, Note_on_c, 0, 66, 45
1, 53258, Note_off_c, 0, 63, 37
1, 53294, Note_off_c, 0, 67, 37
1, 53317, Control_c, 0, 64, 13
1, 53332, Control_c, 0, 64, 14
1, 53347, Control_c, 0, 64, 16
1, 53362, Control_c, 0, 64, 18
1, 53376, Control_c, 0, 64, 19
1, 53391, Control_c, 0, 64, 22
1, 53406, Control_c, 0, 64, 24
1, 53421, Control_c, 0, 64, 27
1, 53436, Control_c, 0, 64, 31
1, 53440, Note_on_c, 0, 60, 39
1, 53450, Control_c, 0, 64, 35
1, 53465, Control_c, 0, 64, 40
1, 53480, Control_c, 0, 64, 44
1, 53494, Control_c, 0, 64, 48
1, 53509, Control_c, 0, 64, 52
1, 53524, Control_c, 0, 64, 55
1, 53539, Control_c, 0, 64, 56
1, 53554, Control_c, 0, 64, 58
1, 53568, Control_c, 0, 64, 59
1, 53583, Control_c, 0, 64, 59
1, 53598, Control_c, 0, 64, 60
1, 53645, Note_off_c, 0, 60, 52
1, 53646, Note_on_c, 0, 70, 62
1, 53665, Control_c, 0, 64, 59
1, 53680, Control_c, 0, 64, 59
1, 53692, Note_off_c, 0, 66, 51
1, 53694, Control_c, 0, 64, 58
1, 53709, Control_c, 0, 64, 57
1, 53724, Control_c, 0, 64, 54
1, 53739, Control_c, 0, 64, 51
1, 53754, Control_c, 0, 64, 50
1, 53783, Control_c, 0, 64, 52
1, 53799, Control_c, 0, 64, 54
1, 53814, Control_c, 0, 64, 56
1, 53829, Control_c, 0, 64, 58
1, 53841, Note_on_c, 0, 62, 39
1, 53844, Control_c, 0, 64, 60
1, 53859, Control_c, 0, 64, 61
1, 53873, Control_c, 0, 64, 62
1, 53888, Control_c, 0, 64, 63
1, 53903, Control_c, 0, 64, 63
1, 53917, Control_c, 0, 64, 64
1, 53932, Control_c, 0, 64, 64
1, 53984, Note_off_c, 0, 70, 58
1, 54006, Note_off_c, 0, 62, 51
1, 54006, Control_c, 0, 64, 64
1, 54021, Control_c, 0, 64, 63
1, 54030, Note_on_c, 0, 45, 35
1, 54036, Control_c, 0, 64, 61
1, 54045, Note_on_c, 0, 33, 26
1, 54047, Note_on_c, 0, 69, 67
1, 54050, Note_on_c, 0, 66, 43
1, 54051, Control_c, 0, 64, 59
1, 54066, Control_c, 0, 64, 57
1, 54110, Note_off_c, 0, 45, 56
1, 54111, Note_off_c, 0, 33, 55
1, 54214, Control_c, 0, 64, 58
1, 54227, Note_on_c, 0, 60, 49
1, 54349, Note_off_c, 0, 66, 38
1, 54387, Note_off_c, 0, 60, 45
1, 54421, Note_on_c, 0, 67, 62
1, 54424, Note_on_c, 0, 46, 46
1, 54434, Note_on_c, 0, 34, 44
1, 54434, Note_on_c, 0, 62, 51
1, 54442, Note_off_c, 0, 69, 62
1, 54459, Control_c, 0, 64, 57
1, 54486, Note_off_c, 0, 46, 60
1, 54489, Note_off_c, 0, 34, 58
1, 54532, Control_c, 0, 64, 57
1, 54562, Control_c, 0, 64, 56
1, 54577, Control_c, 0, 64, 56
1, 54593, Control_c, 0, 64, 55
1, 54608, Control_c, 0, 64, 54
1, 54622, Control_c, 0, 64, 53
1, 54624, Note_on_c, 0, 58, 48
1, 54634, Note_off_c, 0, 62, 41
1, 54637, Control_c, 0, 64, 52
1, 54652, Control_c, 0, 64, 51
1, 54667, Control_c, 0, 64, 51
1, 54682, Control_c, 0, 64, 50
1, 54696, Control_c, 0, 64, 49
1, 54711, Control_c, 0, 64, 49
1, 54727, Note_off_c, 0, 58, 39
1, 54800, Control_c, 0, 64, 49
1, 54802, Note_on_c, 0, 35, 33
1, 54810, Note_on_c, 0, 47, 32
1, 54814, Note_on_c, 0, 62, 40
1, 54814, Note_on_c, 0, 65, 52
1, 54814, Control_c, 0, 64, 51
1, 54828, Note_off_c, 0, 67, 57
1, 54829, Control_c, 0, 64, 54
1, 54844, Control_c, 0, 64, 57
1, 54859, Control_c, 0, 64, 59
1, 54871, Note_off_c, 0, 47, 55
1, 54874, Control_c, 0, 64, 62
1, 54875, Note_off_c, 0, 35, 52
1, 54889, Control_c, 0, 64, 63
1, 54904, Control_c, 0, 64, 64
1, 54918, Control_c, 0, 64, 65
1, 54933, Control_c, 0, 64, 66
1, 54948, Control_c, 0, 64, 66
1, 54959, Note_off_c, 0, 65, 59
1, 54963, Control_c, 0, 64, 67
1, 55002, Note_off_c, 0, 62, 37
1, 55009, Note_on_c, 0, 56, 34
1, 55059, Note_off_c, 0, 56, 58
1, 55067, Control_c, 0, 64, 67
1, 55082, Control_c, 0, 64, 66
1, 55111, Control_c, 0, 64, 66
1, 55126, Control_c, 0, 64, 65
1, 55148, Control_c, 0, 64, 64
1, 55163, Control_c, 0, 64, 63
1, 55178, Control_c, 0, 64, 62
1, 55187, Note_on_c, 0, 65, 60
1, 55193, Control_c, 0, 64, 60
1, 55202, Note_on_c, 0, 36, 32
1, 55202, Note_on_c, 0, 48, 36
1, 55202, Note_on_c, 0, 55, 40
1, 55208, Control_c, 0, 64, 57
1, 55222, Control_c, 0, 64, 55
1, 55237, Control_c, 0, 64, 52
1, 55240, Note_off_c, 0, 48, 62
1, 55243, Note_off_c, 0, 36, 51
1, 55252, Control_c, 0, 64, 49
1, 55258, Note_off_c, 0, 55, 48
1, 55267, Control_c, 0, 64, 47
1, 55282, Control_c, 0, 64, 45
1, 55296, Control_c, 0, 64, 44
1, 55311, Control_c, 0, 64, 42
1, 55326, Control_c, 0, 64, 41
1, 55340, Control_c, 0, 64, 40
1, 55355, Control_c, 0, 64, 39
1, 55370, Control_c, 0, 64, 38
1, 55382, Note_on_c, 0, 62, 48
1, 55386, Control_c, 0, 64, 38
1, 55401, Control_c, 0, 64, 37
1, 55416, Control_c, 0, 64, 37
1, 55445, Control_c, 0, 64, 36
1, 55460, Control_c, 0, 64, 36
1, 55490, Control_c, 0, 64, 35
1, 55546, Note_off_c, 0, 62, 36
1, 55549, Note_off_c, 0, 65, 56
1, 55574, Note_on_c, 0, 64, 50
1, 55576, Note_on_c, 0, 60, 41
1, 55584, Note_on_c, 0, 36, 36
1, 55607, Control_c, 0, 64, 34
1, 55622, Note_off_c, 0, 36, 59
1, 55652, Control_c, 0, 64, 34
1, 55765, Note_on_c, 0, 58, 43
1, 55804, Note_off_c, 0, 60, 24
1, 55849, Note_off_c, 0, 58, 46
1, 55972, Note_on_c, 0, 41, 38
1, 55977, Note_off_c, 0, 64, 53
1, 55981, Note_on_c, 0, 29, 34
1, 55982, Note_on_c, 0, 65, 45
1, 55995, Note_on_c, 0, 57, 35
1, 56021, Note_off_c, 0, 41, 62
1, 56024, Note_off_c, 0, 29, 60
1, 56118, Control_c, 0, 64, 34
1, 56127, Note_off_c, 0, 57, 35
1, 56148, Control_c, 0, 64, 35
1, 56162, Control_c, 0, 64, 35
1, 56165, Note_on_c, 0, 60, 42
1, 56177, Control_c, 0, 64, 36
1, 56193, Control_c, 0, 64, 37
1, 56208, Control_c, 0, 64, 38
1, 56223, Control_c, 0, 64, 39
1, 56238, Control_c, 0, 64, 40
1, 56252, Control_c, 0, 64, 41
1, 56266, Control_c, 0, 64, 44
1, 56281, Control_c, 0, 64, 46
1, 56296, Control_c, 0, 64, 48
1, 56311, Control_c, 0, 64, 52
1, 56326, Control_c, 0, 64, 55
1, 56340, Control_c, 0, 64, 57
1, 56345, Note_off_c, 0, 60, 46
1, 56355, Control_c, 0, 64, 59
1, 56370, Control_c, 0, 64, 61
1, 56375, Note_on_c, 0, 62, 38
1, 56385, Control_c, 0, 64, 63
1, 56400, Control_c, 0, 64, 64
1, 56415, Control_c, 0, 64, 66
1, 56430, Control_c, 0, 64, 69
1, 56445, Control_c, 0, 64, 73
1, 56459, Control_c, 0, 64, 77
1, 56474, Control_c, 0, 64, 79
1, 56489, Control_c, 0, 64, 82
1, 56491, Note_off_c, 0, 62, 53
1, 56495, Note_off_c, 0, 65, 37
1, 56504, Control_c, 0, 64, 84
1, 56519, Control_c, 0, 64, 85
1, 56533, Control_c, 0, 64, 86
1, 56548, Control_c, 0, 64, 87
1, 56558, Note_on_c, 0, 64, 58
1, 56659, Note_off_c, 0, 64, 50
1, 56689, Control_c, 0, 64, 86
1, 56704, Control_c, 0, 64, 85
1, 56718, Control_c, 0, 64, 83
1, 56733, Control_c, 0, 64, 80
1, 56741, Note_on_c, 0, 72, 82
1, 56744, Note_on_c, 0, 65, 61
1, 56748, Control_c, 0, 64, 76
1, 56749, Note_on_c, 0, 69, 69
1, 56763, Control_c, 0, 64, 70
1, 56778, Control_c, 0, 64, 65
1, 56792, Control_c, 0, 64, 61
1, 56807, Control_c, 0, 64, 57
1, 56822, Control_c, 0, 64, 54
1, 56837, Control_c, 0, 64, 51
1, 56852, Control_c, 0, 64, 49
1, 56866, Control_c, 0, 64, 47
1, 56881, Control_c, 0, 64, 46
1, 56896, Control_c, 0, 64, 45
1, 56910, Control_c, 0, 64, 44
1, 56925, Control_c, 0, 64, 43
1, 56934, Note_off_c, 0, 65, 58
1, 56939, Note_on_c, 0, 64, 51
1, 56955, Control_c, 0, 64, 43
1, 57015, Control_c, 0, 64, 42
1, 57030, Note_off_c, 0, 64, 36
1, 57118, Note_on_c, 0, 65, 32
1, 57135, Note_on_c, 0, 41, 58
1, 57140, Note_on_c, 0, 53, 54
1, 57148, Control_c, 0, 64, 42
1, 57166, Note_off_c, 0, 41, 65
1, 57172, Note_off_c, 0, 53, 64
1, 57178, Control_c, 0, 64, 41
1, 57208, Control_c, 0, 64, 41
1, 57223, Control_c, 0, 64, 40
1, 57290, Note_off_c, 0, 65, 36
1, 57297, Control_c, 0, 64, 40
1, 57320, Note_on_c, 0, 67, 39
1, 57418, Note_off_c, 0, 67, 29
1, 57422, Control_c, 0, 64, 39
1, 57437, Control_c, 0, 64, 39
1, 57489, Note_off_c, 0, 69, 27
1, 57498, Note_on_c, 0, 50, 63
1, 57506, Note_on_c, 0, 38, 56
1, 57515, Note_on_c, 0, 68, 44
1, 57539, Note_off_c, 0, 50, 66
1, 57545, Note_off_c, 0, 38, 63
1, 57571, Control_c, 0, 64, 38
1, 57644, Note_off_c, 0, 68, 59
1, 57697, Note_on_c, 0, 64, 35
1, 57842, Note_off_c, 0, 64, 42
1, 57868, Note_off_c, 0, 72, 52
1, 57889, Note_on_c, 0, 71, 58
1, 57890, Note_on_c, 0, 65, 41
1, 57906, Note_on_c, 0, 68, 45
1, 57943, Control_c, 0, 64, 39
1, 57972, Control_c, 0, 64, 39
1, 57987, Control_c, 0, 64, 40
1, 58002, Control_c, 0, 64, 41
1, 58017, Control_c, 0, 64, 42
1, 58031, Control_c, 0, 64, 43
1, 58046, Control_c, 0, 64, 44
1, 58060, Note_off_c, 0, 65, 24
1, 58061, Control_c, 0, 64, 45
1, 58076, Control_c, 0, 64, 46
1, 58077, Note_on_c, 0, 67, 50
1, 58091, Control_c, 0, 64, 47
1, 58105, Control_c, 0, 64, 49
1, 58120, Control_c, 0, 64, 50
1, 58122, Note_off_c, 0, 71, 58
1, 58143, Control_c, 0, 64, 51
1, 58146, Note_off_c, 0, 68, 30
1, 58158, Control_c, 0, 64, 52
1, 58172, Control_c, 0, 64, 53
1, 58202, Control_c, 0, 64, 53
1, 58262, Note_off_c, 0, 67, 50
1, 58269, Note_on_c, 0, 71, 68
1, 58277, Note_on_c, 0, 68, 57
1, 58281, Note_on_c, 0, 65, 40
1, 58364, Control_c, 0, 64, 53
1, 58394, Control_c, 0, 64, 52
1, 58409, Control_c, 0, 64, 52
1, 58424, Control_c, 0, 64, 51
1, 58429, Note_on_c, 0, 64, 58
1, 58439, Control_c, 0, 64, 50
1, 58454, Control_c, 0, 64, 50
1, 58464, Note_off_c, 0, 71, 59
1, 58469, Control_c, 0, 64, 49
1, 58471, Note_off_c, 0, 65, 58
1, 58471, Note_off_c, 0, 68, 52
1, 58483, Control_c, 0, 64, 48
1, 58498, Control_c, 0, 64, 48
1, 58513, Control_c, 0, 64, 47
1, 58528, Control_c, 0, 64, 47
1, 58557, Control_c, 0, 64, 46
1, 58572, Control_c, 0, 64, 46
1, 58585, Note_off_c, 0, 64, 58
1, 58603, Control_c, 0, 64, 45
1, 58622, Note_on_c, 0, 43, 34
1, 58622, Note_on_c, 0, 55, 40
1, 58622, Note_on_c, 0, 71, 51
1, 58631, Note_on_c, 0, 67, 42
1, 58633, Note_on_c, 0, 65, 37
1, 58657, Note_off_c, 0, 55, 57
1, 58667, Note_off_c, 0, 43, 50
1, 58816, Note_off_c, 0, 71, 55
1, 58823, Note_on_c, 0, 62, 44
1, 58836, Note_off_c, 0, 65, 35
1, 58843, Note_off_c, 0, 67, 33
1, 58869, Control_c, 0, 64, 46
1, 58907, Control_c, 0, 64, 46
1, 58922, Control_c, 0, 64, 47
1, 58951, Control_c, 0, 64, 47
1, 58966, Control_c, 0, 64, 48
1, 58981, Control_c, 0, 64, 48
1, 58995, Control_c, 0, 64, 49
1, 59008, Note_off_c, 0, 62, 40
1, 59010, Control_c, 0, 64, 50
1, 59020, Note_on_c, 0, 67, 25
1, 59022, Note_on_c, 0, 65, 30
1, 59022, Note_on_c, 0, 71, 41
1, 59025, Control_c, 0, 64, 51
1, 59028, Note_on_c, 0, 36, 28
1, 59030, Note_on_c, 0, 48, 21
1, 59040, Control_c, 0, 64, 52
1, 59055, Control_c, 0, 64, 54
1, 59069, Control_c, 0, 64, 56
1, 59084, Control_c, 0, 64, 57
1, 59099, Control_c, 0, 64, 59
1, 59114, Control_c, 0, 64, 61
1, 59129, Control_c, 0, 64, 63
1, 59143, Control_c, 0, 64, 65
1, 59158, Control_c, 0, 64, 69
1, 59173, Control_c, 0, 64, 74
1, 59187, Control_c, 0, 64, 81
1, 59202, Control_c, 0, 64, 86
1, 59217, Control_c, 0, 64, 92
1, 59222, Note_off_c, 0, 67, 39
1, 59223, Note_off_c, 0, 65, 39
1, 59232, Control_c, 0, 64, 98
1, 59241, Note_on_c, 0, 62, 40
1, 59241, Note_off_c, 0, 36, 40
1, 59247, Control_c, 0, 64, 106
1, 59262, Control_c, 0, 64, 112
1, 59272, Note_off_c, 0, 48, 37
1, 59277, Control_c, 0, 64, 113
1, 59297, Note_off_c, 0, 62, 53
1, 59321, Control_c, 0, 64, 112
1, 59325, Note_off_c, 0, 71, 37
1, 59336, Control_c, 0, 64, 109
1, 59351, Control_c, 0, 64, 105
1, 59366, Control_c, 0, 64, 100
1, 59381, Note_on_c, 0, 72, 65
1, 59381, Control_c, 0, 64, 93
1, 59396, Note_on_c, 0, 64, 44
1, 59396, Control_c, 0, 64, 86
1, 59411, Control_c, 0, 64, 79
1, 59426, Control_c, 0, 64, 73
1, 59441, Control_c, 0, 64, 68
1, 59455, Control_c, 0, 64, 64
1, 59470, Control_c, 0, 64, 60
1, 59485, Control_c, 0, 64, 56
1, 59500, Control_c, 0, 64, 54
1, 59509, Note_off_c, 0, 64, 61
1, 59515, Control_c, 0, 64, 52
1, 59530, Control_c, 0, 64, 50
1, 59533, Note_off_c, 0, 72, 64
1, 59545, Control_c, 0, 64, 48
1, 59556, Note_on_c, 0, 60, 64
1, 59559, Control_c, 0, 64, 47
1, 59574, Control_c, 0, 64, 47
1, 59603, Control_c, 0, 64, 46
1, 59669, Note_off_c, 0, 60, 56
1, 59670, Control_c, 0, 64, 46
1, 59700, Control_c, 0, 64, 45
1, 59715, Control_c, 0, 64, 45
1, 59742, Note_on_c, 0, 74, 83
1, 59744, Control_c, 0, 64, 44
1, 59750, Note_on_c, 0, 67, 61
1, 59757, Note_on_c, 0, 71, 68
1, 59759, Control_c, 0, 64, 44
1, 59774, Control_c, 0, 64, 43
1, 59789, Control_c, 0, 64, 43
1, 59804, Control_c, 0, 64, 42
1, 59833, Control_c, 0, 64, 42
1, 59936, Note_off_c, 0, 67, 47
1, 59938, Note_on_c, 0, 66, 59
1, 59966, Control_c, 0, 64, 41
1, 60042, Note_off_c, 0, 66, 58
1, 60101, Note_on_c, 0, 67, 53
1, 60107, Note_on_c, 0, 55, 66
1, 60111, Note_on_c, 0, 43, 61
1, 60139, Note_off_c, 0, 55, 64
1, 60140, Note_off_c, 0, 43, 64
1, 60182, Note_off_c, 0, 71, 0
1, 60219, Poly_aftertouch_c, 0, 71, 127
1, 60284, Note_off_c, 0, 67, 57
1, 60304, Note_on_c, 0, 69, 58
1, 60423, Note_off_c, 0, 69, 61
1, 60475, Note_on_c, 0, 52, 79
1, 60477, Note_on_c, 0, 70, 59
1, 60484, Note_on_c, 0, 40, 68
1, 60511, Note_off_c, 0, 40, 64
1, 60530, Note_off_c, 0, 52, 62
1, 60537, Control_c, 0, 64, 41
1, 60574, Poly_aftertouch_c, 0, 71, 0
1, 60625, Note_off_c, 0, 70, 61
1, 60664, Note_on_c, 0, 66, 53
1, 60773, Control_c, 0, 64, 41
1, 60818, Control_c, 0, 64, 42
1, 60828, Note_off_c, 0, 74, 48
1, 60833, Control_c, 0, 64, 42
1, 60836, Note_off_c, 0, 66, 55
1, 60848, Control_c, 0, 64, 43
1, 60853, Note_on_c, 0, 73, 66
1, 60859, Note_on_c, 0, 67, 49
1, 60862, Control_c, 0, 64, 43
1, 60874, Note_on_c, 0, 70, 49
1, 60877, Control_c, 0, 64, 44
1, 60892, Control_c, 0, 64, 44
1, 60922, Control_c, 0, 64, 45
1, 60951, Control_c, 0, 64, 46
1, 60966, Control_c, 0, 64, 46
1, 60997, Control_c, 0, 64, 47
1, 61026, Control_c, 0, 64, 47
1, 61041, Note_on_c, 0, 69, 63
1, 61050, Note_off_c, 0, 67, 45
1, 61070, Note_off_c, 0, 73, 55
1, 61071, Control_c, 0, 64, 48
1, 61082, Note_off_c, 0, 70, 43
1, 61101, Control_c, 0, 64, 48
1, 61152, Control_c, 0, 64, 49
1, 61200, Note_off_c, 0, 69, 59
1, 61237, Note_on_c, 0, 73, 68
1, 61238, Note_on_c, 0, 70, 54
1, 61241, Note_on_c, 0, 67, 43
1, 61408, Note_off_c, 0, 70, 53
1, 61414, Note_on_c, 0, 66, 63
1, 61419, Note_off_c, 0, 73, 58
1, 61459, Note_off_c, 0, 67, 40
1, 61568, Control_c, 0, 64, 49
1, 61582, Control_c, 0, 64, 50
1, 61597, Control_c, 0, 64, 51
1, 61602, Note_off_c, 0, 66, 61
1, 61607, Note_on_c, 0, 73, 79
1, 61608, Note_on_c, 0, 67, 58
1, 61610, Note_on_c, 0, 45, 49
1, 61612, Control_c, 0, 64, 53
1, 61615, Note_on_c, 0, 57, 42
1, 61621, Note_on_c, 0, 69, 62
1, 61627, Control_c, 0, 64, 55
1, 61642, Control_c, 0, 64, 57
1, 61646, Note_off_c, 0, 57, 63
1, 61655, Note_off_c, 0, 45, 64
1, 61656, Control_c, 0, 64, 59
1, 61671, Control_c, 0, 64, 60
1, 61686, Control_c, 0, 64, 61
1, 61701, Control_c, 0, 64, 62
1, 61716, Control_c, 0, 64, 63
1, 61745, Control_c, 0, 64, 63
1, 61776, Control_c, 0, 64, 64
1, 61791, Control_c, 0, 64, 65
1, 61805, Control_c, 0, 64, 66
1, 61807, Note_on_c, 0, 64, 73
1, 61819, Note_off_c, 0, 73, 56
1, 61820, Control_c, 0, 64, 67
1, 61835, Control_c, 0, 64, 68
1, 61850, Control_c, 0, 64, 69
1, 61859, Note_off_c, 0, 67, 35
1, 61865, Control_c, 0, 64, 70
1, 61868, Note_off_c, 0, 69, 39
1, 61887, Control_c, 0, 64, 70
1, 61917, Control_c, 0, 64, 71
1, 62035, Control_c, 0, 64, 70
1, 62050, Control_c, 0, 64, 69
1, 62065, Control_c, 0, 64, 67
1, 62068, Note_on_c, 0, 34, 64
1, 62068, Note_on_c, 0, 67, 46
1, 62072, Note_on_c, 0, 46, 61
1, 62079, Note_on_c, 0, 73, 89
1, 62079, Control_c, 0, 64, 63
1, 62089, Note_off_c, 0, 64, 58
1, 62094, Control_c, 0, 64, 54
1, 62109, Control_c, 0, 64, 44
1, 62124, Control_c, 0, 64, 37
1, 62139, Control_c, 0, 64, 27
1, 62153, Control_c, 0, 64, 24
1, 62168, Control_c, 0, 64, 27
1, 62183, Control_c, 0, 64, 40
1, 62198, Control_c, 0, 64, 53
1, 62213, Control_c, 0, 64, 59
1, 62228, Control_c, 0, 64, 63
1, 62243, Control_c, 0, 64, 67
1, 62257, Control_c, 0, 64, 72
1, 62272, Control_c, 0, 64, 79
1, 62283, Note_on_c, 0, 64, 72
1, 62283, Note_off_c, 0, 67, 54
1, 62287, Control_c, 0, 64, 87
1, 62296, Note_off_c, 0, 73, 61
1, 62302, Control_c, 0, 64, 94
1, 62317, Control_c, 0, 64, 103
1, 62332, Control_c, 0, 64, 117
1, 62347, Control_c, 0, 64, 127
1, 62373, Note_off_c, 0, 64, 55
1, 62451, Note_on_c, 0, 74, 81
1, 62463, Note_on_c, 0, 65, 63
1, 62551, Note_off_c, 0, 65, 61
1, 62562, Note_off_c, 0, 74, 53
1, 62641, Note_on_c, 0, 62, 71
1, 62667, Note_off_c, 0, 62, 66
1, 62843, Control_c, 0, 64, 110
1, 62857, Note_on_c, 0, 77, 87
1, 62858, Control_c, 0, 64, 79
1, 62861, Note_on_c, 0, 74, 76
1, 62863, Note_on_c, 0, 70, 72
1, 62873, Control_c, 0, 64, 60
1, 62888, Control_c, 0, 64, 38
1, 62902, Control_c, 0, 64, 33
1, 62917, Control_c, 0, 64, 37
1, 62932, Control_c, 0, 64, 48
1, 62947, Control_c, 0, 64, 60
1, 62962, Control_c, 0, 64, 66
1, 62976, Control_c, 0, 64, 75
1, 62991, Control_c, 0, 64, 89
1, 63006, Control_c, 0, 64, 113
1, 63015, Note_off_c, 0, 70, 59
1, 63019, Note_off_c, 0, 74, 58
1, 63021, Control_c, 0, 64, 127
1, 63035, Note_off_c, 0, 34, 57
1, 63038, Note_off_c, 0, 46, 54
1, 63095, Note_on_c, 0, 73, 69
1, 63104, Note_on_c, 0, 69, 47
1, 63128, Note_off_c, 0, 69, 59
1, 63179, Note_off_c, 0, 73, 64
1, 63269, Note_on_c, 0, 70, 63
1, 63275, Note_on_c, 0, 74, 67
1, 63319, Note_off_c, 0, 70, 57
1, 63452, Note_on_c, 0, 72, 75
1, 63461, Note_on_c, 0, 68, 62
1, 63528, Note_off_c, 0, 68, 59
1, 63530, Note_off_c, 0, 74, 43
1, 63579, Control_c, 0, 64, 91
1, 63594, Control_c, 0, 64, 72
1, 63608, Control_c, 0, 64, 61
1, 63623, Control_c, 0, 64, 51
1, 63630, Note_on_c, 0, 58, 50
1, 63637, Note_on_c, 0, 70, 73
1, 63638, Control_c, 0, 64, 54
1, 63641, Note_on_c, 0, 46, 43
1, 63643, Note_on_c, 0, 67, 64
1, 63653, Control_c, 0, 64, 58
1, 63660, Note_off_c, 0, 77, 63
1, 63667, Control_c, 0, 64, 62
1, 63676, Note_off_c, 0, 72, 52
1, 63682, Control_c, 0, 64, 66
1, 63697, Control_c, 0, 64, 71
1, 63702, Note_off_c, 0, 67, 61
1, 63712, Control_c, 0, 64, 80
1, 63727, Control_c, 0, 64, 87
1, 63742, Control_c, 0, 64, 92
1, 63757, Control_c, 0, 64, 95
1, 63769, Note_off_c, 0, 70, 61
1, 63772, Control_c, 0, 64, 98
1, 63786, Control_c, 0, 64, 99
1, 63801, Control_c, 0, 64, 100
1, 63822, Note_on_c, 0, 66, 64
1, 63867, Note_off_c, 0, 66, 53
1, 63890, Control_c, 0, 64, 99
1, 63920, Control_c, 0, 64, 99
1, 63949, Control_c, 0, 64, 98
1, 63964, Control_c, 0, 64, 98
1, 63978, Control_c, 0, 64, 96
1, 63993, Control_c, 0, 64, 92
1, 64008, Control_c, 0, 64, 86
1, 64023, Control_c, 0, 64, 75
1, 64026, Note_on_c, 0, 75, 79
1, 64032, Note_on_c, 0, 67, 56
1, 64035, Note_on_c, 0, 70, 57
1, 64038, Control_c, 0, 64, 66
1, 64052, Control_c, 0, 64, 58
1, 64067, Control_c, 0, 64, 55
1, 64082, Control_c, 0, 64, 58
1, 64097, Control_c, 0, 64, 61
1, 64112, Control_c, 0, 64, 64
1, 64134, Control_c, 0, 64, 68
1, 64149, Control_c, 0, 64, 74
1, 64164, Control_c, 0, 64, 82
1, 64180, Control_c, 0, 64, 91
1, 64192, Note_off_c, 0, 67, 54
1, 64195, Control_c, 0, 64, 96
1, 64208, Note_off_c, 0, 75, 57
1, 64209, Control_c, 0, 64, 101
1, 64216, Note_on_c, 0, 66, 58
1, 64222, Note_off_c, 0, 70, 38
1, 64224, Control_c, 0, 64, 108
1, 64239, Control_c, 0, 64, 113
1, 64258, Note_off_c, 0, 66, 61
1, 64328, Control_c, 0, 64, 111
1, 64343, Control_c, 0, 64, 108
1, 64357, Control_c, 0, 64, 104
1, 64372, Control_c, 0, 64, 95
1, 64387, Control_c, 0, 64, 84
1, 64392, Note_on_c, 0, 74, 76
1, 64401, Control_c, 0, 64, 72
1, 64404, Note_on_c, 0, 65, 58
1, 64416, Control_c, 0, 64, 64
1, 64431, Control_c, 0, 64, 59
1, 64446, Control_c, 0, 64, 60
1, 64461, Control_c, 0, 64, 63
1, 64475, Control_c, 0, 64, 65
1, 64490, Control_c, 0, 64, 68
1, 64505, Control_c, 0, 64, 73
1, 64520, Control_c, 0, 64, 79
1, 64535, Control_c, 0, 64, 83
1, 64549, Control_c, 0, 64, 86
1, 64564, Control_c, 0, 64, 88
1, 64565, Note_off_c, 0, 74, 64
1, 64574, Note_on_c, 0, 64, 54
1, 64579, Control_c, 0, 64, 90
1, 64594, Control_c, 0, 64, 91
1, 64607, Note_off_c, 0, 65, 32
1, 64611, Note_off_c, 0, 64, 59
1, 64623, Control_c, 0, 64, 91
1, 64638, Control_c, 0, 64, 93
1, 64653, Control_c, 0, 64, 94
1, 64668, Control_c, 0, 64, 95
1, 64712, Control_c, 0, 64, 94
1, 64727, Control_c, 0, 64, 91
1, 64742, Control_c, 0, 64, 80
1, 64756, Control_c, 0, 64, 69
1, 64771, Control_c, 0, 64, 61
1, 64780, Note_on_c, 0, 73, 76
1, 64786, Control_c, 0, 64, 58
1, 64787, Note_on_c, 0, 65, 58
1, 64793, Note_on_c, 0, 69, 59
1, 64800, Control_c, 0, 64, 61
1, 64815, Control_c, 0, 64, 63
1, 64830, Control_c, 0, 64, 67
1, 64845, Control_c, 0, 64, 71
1, 64860, Control_c, 0, 64, 78
1, 64882, Control_c, 0, 64, 85
1, 64897, Control_c, 0, 64, 90
1, 64912, Control_c, 0, 64, 93
1, 64915, Note_off_c, 0, 69, 57
1, 64927, Control_c, 0, 64, 96
1, 64942, Control_c, 0, 64, 98
1, 64949, Note_off_c, 0, 65, 32
1, 64955, Note_off_c, 0, 73, 61
1, 64956, Control_c, 0, 64, 99
1, 64984, Note_on_c, 0, 63, 49
1, 64987, Control_c, 0, 64, 100
1, 65030, Note_off_c, 0, 63, 56
1, 65091, Control_c, 0, 64, 99
1, 65105, Control_c, 0, 64, 98
1, 65120, Control_c, 0, 64, 96
1, 65135, Control_c, 0, 64, 91
1, 65150, Control_c, 0, 64, 80
1, 65165, Control_c, 0, 64, 69
1, 65179, Control_c, 0, 64, 60
1, 65190, Note_on_c, 0, 73, 66
1, 65194, Control_c, 0, 64, 54
1, 65200, Note_on_c, 0, 65, 48
1, 65206, Note_on_c, 0, 69, 52
1, 65209, Control_c, 0, 64, 55
1, 65223, Control_c, 0, 64, 58
1, 65239, Control_c, 0, 64, 62
1, 65254, Control_c, 0, 64, 65
1, 65269, Control_c, 0, 64, 70
1, 65284, Control_c, 0, 64, 76
1, 65298, Control_c, 0, 64, 85
1, 65313, Control_c, 0, 64, 91
1, 65317, Note_off_c, 0, 65, 37
1, 65319, Note_off_c, 0, 69, 55
1, 65322, Note_off_c, 0, 46, 40
1, 65328, Control_c, 0, 64, 95
1, 65343, Control_c, 0, 64, 101
1, 65358, Control_c, 0, 64, 107
1, 65361, Note_off_c, 0, 73, 54
1, 65363, Note_off_c, 0, 58, 39
1, 65373, Control_c, 0, 64, 109
1, 65387, Control_c, 0, 64, 109
1, 65402, Note_on_c, 0, 63, 37
1, 65433, Note_off_c, 0, 63, 49
1, 65477, Control_c, 0, 64, 109
1, 65492, Control_c, 0, 64, 107
1, 65506, Control_c, 0, 64, 106
1, 65521, Control_c, 0, 64, 104
1, 65536, Control_c, 0, 64, 102
1, 65550, Control_c, 0, 64, 99
1, 65565, Note_on_c, 0, 74, 66
1, 65565, Control_c, 0, 64, 94
1, 65574, Note_on_c, 0, 70, 55
1, 65580, Control_c, 0, 64, 89
1, 65584, Note_on_c, 0, 62, 41
1, 65595, Control_c, 0, 64, 85
1, 65610, Control_c, 0, 64, 81
1, 65632, Control_c, 0, 64, 77
1, 65641, Note_off_c, 0, 62, 56
1, 65647, Control_c, 0, 64, 73
1, 65662, Control_c, 0, 64, 69
1, 65677, Control_c, 0, 64, 65
1, 65691, Control_c, 0, 64, 63
1, 65706, Control_c, 0, 64, 61
1, 65721, Control_c, 0, 64, 59
1, 65736, Control_c, 0, 64, 57
1, 65746, Note_on_c, 0, 57, 40
1, 65748, Note_on_c, 0, 66, 48
1, 65749, Note_on_c, 0, 60, 40
1, 65750, Control_c, 0, 64, 55
1, 65765, Control_c, 0, 64, 54
1, 65781, Control_c, 0, 64, 53
1, 65796, Control_c, 0, 64, 52
1, 65811, Control_c, 0, 64, 52
1, 65826, Control_c, 0, 64, 51
1, 65841, Control_c, 0, 64, 51
1, 65855, Control_c, 0, 64, 50
1, 65870, Control_c, 0, 64, 50
1, 65870, Note_off_c, 0, 60, 39
1, 65900, Control_c, 0, 64, 49
1, 65933, Note_off_c, 0, 57, 55
1, 65934, Note_on_c, 0, 58, 38
1, 65946, Note_on_c, 0, 67, 44
1, 65946, Note_off_c, 0, 70, 22
1, 65950, Note_on_c, 0, 55, 42
1, 65974, Control_c, 0, 64, 49
1, 65981, Note_off_c, 0, 66, 36
1, 66002, Control_c, 0, 64, 48
1, 66008, Note_off_c, 0, 58, 50
1, 66046, Control_c, 0, 64, 48
1, 66076, Control_c, 0, 64, 47
1, 66106, Control_c, 0, 64, 47
1, 66126, Note_on_c, 0, 57, 50
1, 66139, Note_off_c, 0, 74, 58
1, 66180, Control_c, 0, 64, 46
1, 66254, Control_c, 0, 64, 46
1, 66287, Note_off_c, 0, 55, 23
1, 66300, Note_off_c, 0, 57, 56
1, 66315, Note_on_c, 0, 74, 60
1, 66316, Note_off_c, 0, 67, 57
1, 66321, Note_on_c, 0, 53, 38
1, 66326, Note_on_c, 0, 58, 45
1, 66358, Control_c, 0, 64, 45
1, 66460, Note_off_c, 0, 58, 59
1, 66469, Control_c, 0, 64, 45
1, 66482, Note_off_c, 0, 53, 35
1, 66493, Note_on_c, 0, 69, 54
1, 66499, Note_on_c, 0, 57, 48
1, 66622, Note_off_c, 0, 69, 27
1, 66643, Note_off_c, 0, 57, 58
1, 66648, Control_c, 0, 64, 44
1, 66692, Note_on_c, 0, 55, 37
1, 66692, Note_on_c, 0, 73, 57
1, 66694, Note_on_c, 0, 52, 31
1, 66696, Note_on_c, 0, 70, 38
1, 66726, Note_off_c, 0, 74, 58
1, 66786, Note_off_c, 0, 55, 44
1, 66856, Note_on_c, 0, 53, 50
1, 66902, Note_off_c, 0, 70, 40
1, 66905, Note_off_c, 0, 52, 41
1, 67005, Note_off_c, 0, 53, 56
1, 67056, Note_on_c, 0, 74, 55
1, 67060, Note_on_c, 0, 55, 42
1, 67063, Note_off_c, 0, 73, 60
1, 67065, Note_on_c, 0, 50, 33
1, 67091, Control_c, 0, 64, 41
1, 67106, Control_c, 0, 64, 30
1, 67128, Control_c, 0, 64, 0
1, 67212, Note_off_c, 0, 50, 36
1, 67215, Note_off_c, 0, 55, 46
1, 67241, Note_on_c, 0, 69, 45
1, 67244, Note_on_c, 0, 53, 48
1, 67349, Note_off_c, 0, 74, 34
1, 67384, Note_off_c, 0, 53, 55
1, 67409, Note_off_c, 0, 69, 45
1, 67436, Note_on_c, 0, 70, 43
1, 67439, Note_on_c, 0, 76, 54
1, 67453, Note_on_c, 0, 43, 29
1, 67456, Note_on_c, 0, 52, 35
1, 67506, Note_off_c, 0, 43, 60
1, 67506, Note_off_c, 0, 76, 63
1, 67508, Note_off_c, 0, 70, 61
1, 67521, Note_off_c, 0, 52, 61
1, 67838, Note_on_c, 0, 73, 48
1, 67850, Note_on_c, 0, 69, 35
1, 67879, Note_on_c, 0, 67, 26
1, 67882, Note_on_c, 0, 64, 27
1, 67887, Note_on_c, 0, 45, 29
1, 67890, Note_on_c, 0, 57, 33
1, 67925, Note_off_c, 0, 64, 51
1, 67927, Note_off_c, 0, 57, 56
1, 67929, Note_off_c, 0, 67, 48
1, 67933, Note_off_c, 0, 69, 51
1, 67936, Note_off_c, 0, 45, 54
1, 67945, Note_off_c, 0, 73, 64
1, 68234, Control_c, 0, 64, 23
1, 68248, Control_c, 0, 64, 34
1, 68263, Control_c, 0, 64, 41
1, 68278, Control_c, 0, 64, 48
1, 68293, Control_c, 0, 64, 54
1, 68297, Note_on_c, 0, 74, 40
1, 68299, Note_on_c, 0, 38, 19
1, 68301, Note_on_c, 0, 69, 30
1, 68305, Note_on_c, 0, 50, 30
1, 68307, Note_on_c, 0, 65, 28
1, 68308, Control_c, 0, 64, 58
1, 68322, Control_c, 0, 64, 61
1, 68337, Control_c, 0, 64, 64
1, 68341, Note_off_c, 0, 38, 49
1, 68352, Control_c, 0, 64, 68
1, 68364, Note_off_c, 0, 50, 58
1, 68367, Control_c, 0, 64, 75
1, 68373, Note_off_c, 0, 65, 55
1, 68382, Control_c, 0, 64, 81
1, 68391, Note_off_c, 0, 74, 62
1, 68396, Control_c, 0, 64, 88
1, 68411, Control_c, 0, 64, 93
1, 68426, Control_c, 0, 64, 99
1, 68428, Note_off_c, 0, 69, 37
1, 68440, Control_c, 0, 64, 104
1, 68455, Control_c, 0, 64, 105
1, 68534, Note_on_c, 0, 57, 47
1, 68544, Control_c, 0, 64, 104
1, 68559, Control_c, 0, 64, 104
1, 68574, Control_c, 0, 64, 102
1, 68589, Control_c, 0, 64, 101
1, 68604, Control_c, 0, 64, 100
1, 68626, Control_c, 0, 64, 100
1, 68634, Note_off_c, 0, 57, 50
1, 68640, Control_c, 0, 64, 99
1, 68655, Control_c, 0, 64, 98
1, 68670, Control_c, 0, 64, 97
1, 68685, Control_c, 0, 64, 97
1, 68700, Control_c, 0, 64, 96
1, 68715, Control_c, 0, 64, 95
1, 68729, Control_c, 0, 64, 94
1, 68744, Control_c, 0, 64, 94
1, 68749, Note_on_c, 0, 62, 50
1, 68759, Control_c, 0, 64, 93
1, 68789, Control_c, 0, 64, 92
1, 68818, Control_c, 0, 64, 92
1, 68833, Control_c, 0, 64, 91
1, 68848, Control_c, 0, 64, 90
1, 68863, Control_c, 0, 64, 89
1, 68878, Control_c, 0, 64, 88
1, 68893, Control_c, 0, 64, 87
1, 68908, Control_c, 0, 64, 85
1, 68922, Control_c, 0, 64, 84
1, 68937, Control_c, 0, 64, 84
1, 68941, Note_on_c, 0, 64, 57
1, 68944, Note_off_c, 0, 62, 39
1, 68967, Control_c, 0, 64, 83
1, 68983, Control_c, 0, 64, 83
1, 68998, Control_c, 0, 64, 82
1, 69013, Control_c, 0, 64, 82
1, 69027, Control_c, 0, 64, 81
1, 69042, Control_c, 0, 64, 81
1, 69057, Control_c, 0, 64, 80
1, 69072, Control_c, 0, 64, 79
1, 69087, Control_c, 0, 64, 79
1, 69102, Control_c, 0, 64, 78
1, 69102, Note_off_c, 0, 64, 36
1, 69117, Control_c, 0, 64, 76
1, 69131, Control_c, 0, 64, 75
1, 69146, Control_c, 0, 64, 74
1, 69161, Control_c, 0, 64, 73
1, 69170, Note_on_c, 0, 65, 47
1, 69172, Note_on_c, 0, 69, 60
1, 69176, Control_c, 0, 64, 72
1, 69190, Note_on_c, 0, 62, 30
1, 69191, Control_c, 0, 64, 71
1, 69206, Control_c, 0, 64, 69
1, 69220, Control_c, 0, 64, 67
1, 69235, Control_c, 0, 64, 65
1, 69250, Control_c, 0, 64, 64
1, 69264, Control_c, 0, 64, 62
1, 69279, Control_c, 0, 64, 59
1, 69294, Control_c, 0, 64, 57
1, 69309, Control_c, 0, 64, 54
1, 69324, Control_c, 0, 64, 52
1, 69325, Note_off_c, 0, 62, 56
1, 69338, Control_c, 0, 64, 50
1, 69351, Note_off_c, 0, 65, 43
1, 69352, Note_on_c, 0, 67, 52
1, 69353, Control_c, 0, 64, 49
1, 69370, Note_on_c, 0, 64, 40
1, 69376, Control_c, 0, 64, 48
1, 69391, Control_c, 0, 64, 47
1, 69406, Control_c, 0, 64, 47
1, 69420, Control_c, 0, 64, 46
1, 69435, Control_c, 0, 64, 45
1, 69438, Note_off_c, 0, 64, 55
1, 69465, Control_c, 0, 64, 45
1, 69474, Note_on_c, 0, 65, 59
1, 69475, Note_on_c, 0, 62, 41
1, 69475, Note_off_c, 0, 67, 54
1, 69479, Control_c, 0, 64, 44
1, 69509, Control_c, 0, 64, 44
1, 69524, Control_c, 0, 64, 43
1, 69539, Note_off_c, 0, 62, 61
1, 69539, Control_c, 0, 64, 43
1, 69546, Note_off_c, 0, 65, 60
1, 69553, Control_c, 0, 64, 42
1, 69561, Note_on_c, 0, 64, 54
1, 69568, Control_c, 0, 64, 42
1, 69575, Note_on_c, 0, 60, 47
1, 69627, Control_c, 0, 64, 41
1, 69641, Note_off_c, 0, 60, 58
1, 69645, Note_off_c, 0, 64, 61
1, 69671, Control_c, 0, 64, 41
1, 69675, Note_on_c, 0, 62, 50
1, 69677, Note_on_c, 0, 65, 55
1, 69713, Note_off_c, 0, 62, 65
1, 69716, Control_c, 0, 64, 40
1, 69728, Note_off_c, 0, 65, 60
1, 69731, Control_c, 0, 64, 40
1, 69745, Control_c, 0, 64, 39
1, 69760, Note_on_c, 0, 64, 44
1, 69760, Control_c, 0, 64, 39
1, 69769, Note_on_c, 0, 60, 45
1, 69776, Control_c, 0, 64, 38
1, 69791, Control_c, 0, 64, 38
1, 69806, Control_c, 0, 64, 37
1, 69818, Note_off_c, 0, 64, 61
1, 69828, Note_off_c, 0, 60, 58
1, 69836, Control_c, 0, 64, 37
1, 69857, Note_on_c, 0, 59, 43
1, 69859, Note_on_c, 0, 52, 40
1, 69865, Note_on_c, 0, 62, 36
1, 69865, Control_c, 0, 64, 38
1, 69880, Control_c, 0, 64, 42
1, 69895, Control_c, 0, 64, 47
1, 69909, Control_c, 0, 64, 52
1, 69921, Note_off_c, 0, 62, 55
1, 69924, Control_c, 0, 64, 56
1, 69939, Control_c, 0, 64, 60
1, 69954, Control_c, 0, 64, 63
1, 69963, Note_on_c, 0, 68, 47
1, 69965, Note_off_c, 0, 52, 55
1, 69969, Control_c, 0, 64, 66
1, 69984, Control_c, 0, 64, 69
1, 69999, Control_c, 0, 64, 73
1, 70002, Note_off_c, 0, 69, 38
1, 70013, Note_off_c, 0, 59, 54
1, 70013, Control_c, 0, 64, 78
1, 70028, Control_c, 0, 64, 81
1, 70038, Note_off_c, 0, 68, 60
1, 70043, Control_c, 0, 64, 85
1, 70058, Control_c, 0, 64, 86
1, 70060, Note_on_c, 0, 66, 54
1, 70125, Note_off_c, 0, 66, 57
1, 70139, Control_c, 0, 64, 86
1, 70154, Control_c, 0, 64, 85
1, 70167, Note_on_c, 0, 64, 51
1, 70169, Control_c, 0, 64, 85
1, 70184, Control_c, 0, 64, 84
1, 70199, Control_c, 0, 64, 84
1, 70214, Note_off_c, 0, 64, 58
1, 70214, Control_c, 0, 64, 83
1, 70228, Control_c, 0, 64, 82
1, 70243, Control_c, 0, 64, 82
1, 70251, Note_on_c, 0, 68, 61
1, 70258, Control_c, 0, 64, 81
1, 70273, Control_c, 0, 64, 81
1, 70288, Control_c, 0, 64, 80
1, 70302, Control_c, 0, 64, 79
1, 70317, Control_c, 0, 64, 78
1, 70332, Control_c, 0, 64, 78
1, 70336, Note_off_c, 0, 68, 58
1, 70347, Control_c, 0, 64, 77
1, 70350, Note_on_c, 0, 71, 67
1, 70362, Control_c, 0, 64, 76
1, 70376, Control_c, 0, 64, 75
1, 70391, Control_c, 0, 64, 74
1, 70406, Control_c, 0, 64, 73
1, 70420, Control_c, 0, 64, 72
1, 70433, Note_off_c, 0, 71, 57
1, 70435, Control_c, 0, 64, 71
1, 70450, Control_c, 0, 64, 70
1, 70462, Note_on_c, 0, 67, 41
1, 70463, Note_on_c, 0, 74, 67
1, 70465, Control_c, 0, 64, 69
1, 70470, Note_on_c, 0, 70, 55
1, 70479, Control_c, 0, 64, 68
1, 70494, Control_c, 0, 64, 67
1, 70508, Note_off_c, 0, 70, 62
1, 70509, Control_c, 0, 64, 65
1, 70524, Control_c, 0, 64, 64
1, 70538, Control_c, 0, 64, 62
1, 70546, Note_off_c, 0, 67, 59
1, 70553, Control_c, 0, 64, 60
1, 70569, Control_c, 0, 64, 58
1, 70584, Control_c, 0, 64, 56
1, 70591, Note_on_c, 0, 69, 45
1, 70593, Note_on_c, 0, 72, 58
1, 70598, Control_c, 0, 64, 53
1, 70613, Control_c, 0, 64, 50
1, 70628, Control_c, 0, 64, 46
1, 70643, Control_c, 0, 64, 43
1, 70644, Note_off_c, 0, 69, 59
1, 70658, Control_c, 0, 64, 40
1, 70673, Control_c, 0, 64, 37
1, 70682, Note_on_c, 0, 67, 48
1, 70687, Note_on_c, 0, 70, 59
1, 70687, Control_c, 0, 64, 34
1, 70693, Note_off_c, 0, 72, 56
1, 70702, Control_c, 0, 64, 31
1, 70717, Control_c, 0, 64, 29
1, 70732, Control_c, 0, 64, 26
1, 70747, Control_c, 0, 64, 25
1, 70747, Note_off_c, 0, 67, 62
1, 70762, Control_c, 0, 64, 23
1, 70771, Note_off_c, 0, 70, 62
1, 70777, Control_c, 0, 64, 22
1, 70778, Note_on_c, 0, 65, 47
1, 70782, Note_on_c, 0, 69, 56
1, 70791, Control_c, 0, 64, 19
1, 70806, Control_c, 0, 64, 19
1, 70821, Control_c, 0, 64, 18
1, 70852, Note_off_c, 0, 69, 63
1, 70868, Note_off_c, 0, 65, 62
1, 70872, Control_c, 0, 64, 17
1, 70883, Note_on_c, 0, 70, 57
1, 70891, Note_on_c, 0, 67, 46
1, 70921, Note_off_c, 0, 67, 63
1, 70956, Note_off_c, 0, 70, 62
1, 70970, Note_on_c, 0, 69, 57
1, 70974, Note_on_c, 0, 65, 32
1, 71015, Note_off_c, 0, 69, 59
1, 71021, Control_c, 0, 64, 19
1, 71033, Note_off_c, 0, 65, 58
1, 71036, Control_c, 0, 64, 26
1, 71050, Control_c, 0, 64, 35
1, 71054, Note_on_c, 0, 64, 43
1, 71063, Note_on_c, 0, 57, 41
1, 71065, Control_c, 0, 64, 44
1, 71080, Note_on_c, 0, 67, 39
1, 71080, Control_c, 0, 64, 50
1, 71095, Control_c, 0, 64, 55
1, 71110, Control_c, 0, 64, 58
1, 71124, Control_c, 0, 64, 61
1, 71134, Note_off_c, 0, 67, 57
1, 71139, Control_c, 0, 64, 63
1, 71154, Control_c, 0, 64, 65
1, 71164, Note_on_c, 0, 73, 54
1, 71169, Control_c, 0, 64, 67
1, 71170, Note_off_c, 0, 57, 50
1, 71184, Control_c, 0, 64, 70
1, 71198, Control_c, 0, 64, 73
1, 71213, Control_c, 0, 64, 75
1, 71219, Note_off_c, 0, 74, 51
1, 71228, Control_c, 0, 64, 77
1, 71236, Note_off_c, 0, 64, 44
1, 71242, Control_c, 0, 64, 77
1, 71250, Note_off_c, 0, 73, 60
1, 71265, Note_on_c, 0, 71, 61
1, 71329, Note_off_c, 0, 71, 64
1, 71356, Note_on_c, 0, 69, 67
1, 71362, Control_c, 0, 64, 77
1, 71377, Control_c, 0, 64, 76
1, 71392, Control_c, 0, 64, 76
1, 71407, Control_c, 0, 64, 75
1, 71436, Control_c, 0, 64, 75
1, 71444, Note_on_c, 0, 73, 77
1, 71451, Control_c, 0, 64, 74
1, 71457, Note_off_c, 0, 69, 57
1, 71465, Control_c, 0, 64, 74
1, 71480, Control_c, 0, 64, 73
1, 71495, Control_c, 0, 64, 72
1, 71510, Control_c, 0, 64, 72
1, 71525, Control_c, 0, 64, 71
1, 71530, Note_on_c, 0, 76, 81
1, 71540, Control_c, 0, 64, 70
1, 71555, Note_off_c, 0, 73, 63
1, 71555, Control_c, 0, 64, 69
1, 71570, Control_c, 0, 64, 68
1, 71585, Control_c, 0, 64, 67
1, 71600, Control_c, 0, 64, 66
1, 71621, Control_c, 0, 64, 66
1, 71636, Control_c, 0, 64, 65
1, 71651, Control_c, 0, 64, 64
1, 71655, Note_on_c, 0, 81, 83
1, 71661, Note_off_c, 0, 76, 65
1, 71665, Control_c, 0, 64, 62
1, 71680, Control_c, 0, 64, 58
1, 71695, Control_c, 0, 64, 53
1, 71710, Control_c, 0, 64, 49
1, 71725, Control_c, 0, 64, 44
1, 71740, Control_c, 0, 64, 39
1, 71755, Control_c, 0, 64, 36
1, 71770, Control_c, 0, 64, 34
1, 71773, Note_on_c, 0, 69, 52
1, 71784, Control_c, 0, 64, 33
1, 71829, Control_c, 0, 64, 35
1, 71844, Control_c, 0, 64, 41
1, 71844, Note_off_c, 0, 69, 62
1, 71859, Control_c, 0, 64, 48
1, 71862, Note_on_c, 0, 68, 54
1, 71873, Control_c, 0, 64, 53
1, 71888, Control_c, 0, 64, 56
1, 71903, Control_c, 0, 64, 59
1, 71918, Control_c, 0, 64, 61
1, 71933, Control_c, 0, 64, 63
1, 71940, Note_off_c, 0, 68, 61
1, 71947, Control_c, 0, 64, 64
1, 71951, Note_off_c, 0, 81, 61
1, 71962, Control_c, 0, 64, 66
1, 71967, Note_on_c, 0, 79, 73
1, 71977, Control_c, 0, 64, 68
1, 71987, Note_on_c, 0, 69, 46
1, 71991, Control_c, 0, 64, 70
1, 72006, Control_c, 0, 64, 73
1, 72021, Control_c, 0, 64, 75
1, 72036, Control_c, 0, 64, 76
1, 72051, Control_c, 0, 64, 77
1, 72071, Note_on_c, 0, 71, 64
1, 72122, Note_off_c, 0, 71, 54
1, 72142, Note_off_c, 0, 69, 49
1, 72186, Note_on_c, 0, 73, 50
1, 72200, Control_c, 0, 64, 76
1, 72211, Note_off_c, 0, 73, 59
1, 72215, Control_c, 0, 64, 75
1, 72228, Note_on_c, 0, 62, 39
1, 72230, Control_c, 0, 64, 73
1, 72244, Control_c, 0, 64, 70
1, 72258, Note_on_c, 0, 77, 64
1, 72259, Control_c, 0, 64, 66
1, 72268, Note_off_c, 0, 79, 51
1, 72274, Control_c, 0, 64, 60
1, 72282, Note_on_c, 0, 74, 45
1, 72288, Control_c, 0, 64, 56
1, 72318, Note_off_c, 0, 74, 57
1, 72318, Control_c, 0, 64, 57
1, 72333, Control_c, 0, 64, 60
1, 72348, Control_c, 0, 64, 62
1, 72370, Control_c, 0, 64, 64
1, 72374, Note_off_c, 0, 77, 59
1, 72380, Note_on_c, 0, 76, 61
1, 72385, Control_c, 0, 64, 66
1, 72400, Control_c, 0, 64, 68
1, 72415, Control_c, 0, 64, 70
1, 72430, Control_c, 0, 64, 71
1, 72440, Note_off_c, 0, 76, 62
1, 72444, Control_c, 0, 64, 72
1, 72452, Note_on_c, 0, 74, 57
1, 72459, Control_c, 0, 64, 73
1, 72488, Control_c, 0, 64, 73
1, 72522, Note_off_c, 0, 62, 23
1, 72533, Control_c, 0, 64, 72
1, 72537, Note_off_c, 0, 74, 50
1, 72548, Control_c, 0, 64, 70
1, 72556, Note_on_c, 0, 76, 69
1, 72558, Note_on_c, 0, 57, 37
1, 72562, Note_on_c, 0, 67, 41
1, 72563, Control_c, 0, 64, 66
1, 72564, Note_on_c, 0, 73, 54
1, 72577, Control_c, 0, 64, 62
1, 72592, Control_c, 0, 64, 59
1, 72607, Control_c, 0, 64, 60
1, 72612, Note_off_c, 0, 73, 54
1, 72622, Control_c, 0, 64, 62
1, 72625, Note_off_c, 0, 67, 56
1, 72637, Control_c, 0, 64, 63
1, 72652, Control_c, 0, 64, 65
1, 72667, Control_c, 0, 64, 67
1, 72676, Note_on_c, 0, 71, 36
1, 72682, Control_c, 0, 64, 69
1, 72696, Control_c, 0, 64, 71
1, 72711, Control_c, 0, 64, 71
1, 72726, Control_c, 0, 64, 72
1, 72732, Note_off_c, 0, 71, 53
1, 72743, Note_on_c, 0, 73, 67
1, 72756, Control_c, 0, 64, 72
1, 72764, Note_off_c, 0, 76, 59
1, 72820, Note_off_c, 0, 73, 62
1, 72829, Note_off_c, 0, 57, 34
1, 72830, Control_c, 0, 64, 71
1, 72845, Control_c, 0, 64, 68
1, 72853, Note_on_c, 0, 74, 68
1, 72860, Control_c, 0, 64, 64
1, 72865, Note_on_c, 0, 58, 38
1, 72875, Control_c, 0, 64, 61
1, 72876, Note_on_c, 0, 65, 44
1, 72904, Control_c, 0, 64, 62
1, 72919, Control_c, 0, 64, 63
1, 72934, Control_c, 0, 64, 65
1, 72949, Control_c, 0, 64, 67
1, 72965, Control_c, 0, 64, 68
1, 72968, Note_off_c, 0, 65, 55
1, 72975, Note_off_c, 0, 74, 59
1, 72980, Note_on_c, 0, 70, 52
1, 72980, Control_c, 0, 64, 69
1, 72994, Control_c, 0, 64, 70
1, 73009, Control_c, 0, 64, 70
1, 73021, Note_off_c, 0, 70, 62
1, 73063, Note_on_c, 0, 69, 47
1, 73098, Control_c, 0, 64, 70
1, 73111, Note_off_c, 0, 58, 30
1, 73120, Control_c, 0, 64, 69
1, 73123, Note_off_c, 0, 69, 56
1, 73135, Control_c, 0, 64, 68
1, 73150, Control_c, 0, 64, 65
1, 73160, Note_on_c, 0, 76, 65
1, 73165, Control_c, 0, 64, 61
1, 73174, Note_on_c, 0, 55, 30
1, 73178, Note_on_c, 0, 70, 45
1, 73180, Control_c, 0, 64, 59
1, 73184, Note_on_c, 0, 64, 42
1, 73194, Control_c, 0, 64, 59
1, 73209, Control_c, 0, 64, 60
1, 73224, Control_c, 0, 64, 62
1, 73238, Control_c, 0, 64, 64
1, 73253, Control_c, 0, 64, 66
1, 73257, Note_off_c, 0, 55, 51
1, 73268, Control_c, 0, 64, 68
1, 73283, Control_c, 0, 64, 69
1, 73287, Note_off_c, 0, 76, 60
1, 73293, Note_on_c, 0, 67, 52
1, 73298, Control_c, 0, 64, 70
1, 73312, Control_c, 0, 64, 70
1, 73313, Note_off_c, 0, 70, 37
1, 73327, Control_c, 0, 64, 71
1, 73341, Note_off_c, 0, 67, 56
1, 73349, Note_off_c, 0, 64, 60
1, 73391, Note_on_c, 0, 65, 47
1, 73397, Note_on_c, 0, 62, 32
1, 73401, Control_c, 0, 64, 70
1, 73436, Note_off_c, 0, 62, 59
1, 73445, Control_c, 0, 64, 70
1, 73447, Note_off_c, 0, 65, 53
1, 73475, Control_c, 0, 64, 69
1, 73490, Control_c, 0, 64, 68
1, 73501, Note_on_c, 0, 61, 28
1, 73505, Control_c, 0, 64, 67
1, 73519, Control_c, 0, 64, 64
1, 73524, Note_on_c, 0, 57, 34
1, 73529, Note_on_c, 0, 69, 54
1, 73534, Control_c, 0, 64, 61
1, 73543, Note_on_c, 0, 64, 41
1, 73549, Control_c, 0, 64, 57
1, 73564, Control_c, 0, 64, 53
1, 73579, Control_c, 0, 64, 51
1, 73609, Control_c, 0, 64, 53
1, 73623, Note_off_c, 0, 64, 44
1, 73624, Control_c, 0, 64, 56
1, 73638, Control_c, 0, 64, 59
1, 73653, Control_c, 0, 64, 62
1, 73668, Control_c, 0, 64, 64
1, 73681, Note_on_c, 0, 67, 49
1, 73683, Control_c, 0, 64, 65
1, 73698, Control_c, 0, 64, 67
1, 73712, Control_c, 0, 64, 68
1, 73727, Control_c, 0, 64, 69
1, 73742, Control_c, 0, 64, 70
1, 73758, Control_c, 0, 64, 70
1, 73788, Note_on_c, 0, 65, 55
1, 73802, Note_off_c, 0, 67, 51
1, 73817, Control_c, 0, 64, 70
1, 73868, Control_c, 0, 64, 69
1, 73873, Note_off_c, 0, 65, 61
1, 73885, Note_on_c, 0, 64, 53
1, 73890, Note_off_c, 0, 61, 36
1, 73898, Control_c, 0, 64, 69
1, 73913, Control_c, 0, 64, 68
1, 73943, Control_c, 0, 64, 68
1, 73952, Note_off_c, 0, 69, 19
1, 73958, Control_c, 0, 64, 67
1, 73960, Note_off_c, 0, 64, 61
1, 73970, Note_on_c, 0, 59, 43
1, 73970, Note_on_c, 0, 62, 61
1, 73972, Control_c, 0, 64, 66
1, 73987, Control_c, 0, 64, 65
1, 74002, Control_c, 0, 64, 65
1, 74017, Control_c, 0, 64, 64
1, 74032, Control_c, 0, 64, 63
1, 74041, Note_off_c, 0, 62, 52
1, 74043, Note_off_c, 0, 59, 55
1, 74047, Control_c, 0, 64, 61
1, 74061, Control_c, 0, 64, 58
1, 74063, Note_on_c, 0, 61, 50
1, 74072, Note_on_c, 0, 64, 60
1, 74076, Control_c, 0, 64, 56
1, 74091, Control_c, 0, 64, 54
1, 74106, Control_c, 0, 64, 52
1, 74121, Control_c, 0, 64, 50
1, 74131, Note_off_c, 0, 61, 58
1, 74135, Control_c, 0, 64, 49
1, 74150, Control_c, 0, 64, 48
1, 74154, Note_off_c, 0, 64, 62
1, 74159, Note_on_c, 0, 69, 72
1, 74163, Note_on_c, 0, 65, 59
1, 74165, Control_c, 0, 64, 47
1, 74167, Note_on_c, 0, 62, 50
1, 74180, Control_c, 0, 64, 46
1, 74195, Control_c, 0, 64, 46
1, 74209, Control_c, 0, 64, 45
1, 74220, Note_off_c, 0, 65, 51
1, 74223, Note_off_c, 0, 62, 60
1, 74224, Control_c, 0, 64, 45
1, 74239, Control_c, 0, 64, 44
1, 74254, Control_c, 0, 64, 44
1, 74259, Note_on_c, 0, 64, 42
1, 74268, Control_c, 0, 64, 43
1, 74283, Note_off_c, 0, 57, 0
1, 74285, Note_on_c, 0, 67, 56
1, 74313, Control_c, 0, 64, 43
1, 74321, Poly_aftertouch_c, 0, 57, 127
1, 74330, Note_off_c, 0, 64, 60
1, 74342, Control_c, 0, 64, 42
1, 74352, Note_on_c, 0, 65, 55
1, 74355, Note_on_c, 0, 62, 48
1, 74372, Note_off_c, 0, 67, 56
1, 74387, Control_c, 0, 64, 42
1, 74415, Note_off_c, 0, 62, 61
1, 74417, Control_c, 0, 64, 41
1, 74426, Poly_aftertouch_c, 0, 57, 0
1, 74434, Note_off_c, 0, 65, 63
1, 74449, Note_on_c, 0, 60, 51
1, 74453, Note_on_c, 0, 64, 52
1, 74461, Control_c, 0, 64, 41
1, 74491, Control_c, 0, 64, 40
1, 74506, Control_c, 0, 64, 40
1, 74510, Note_off_c, 0, 64, 60
1, 74521, Control_c, 0, 64, 39
1, 74528, Note_off_c, 0, 60, 61
1, 74535, Control_c, 0, 64, 39
1, 74545, Note_on_c, 0, 65, 49
1, 74548, Note_on_c, 0, 62, 48
1, 74550, Control_c, 0, 64, 38
1, 74566, Control_c, 0, 64, 38
1, 74581, Control_c, 0, 64, 37
1, 74593, Note_off_c, 0, 62, 63
1, 74595, Control_c, 0, 64, 37
1, 74598, Note_off_c, 0, 65, 61
1, 74618, Control_c, 0, 64, 36
1, 74637, Note_on_c, 0, 64, 51
1, 74647, Control_c, 0, 64, 35
1, 74653, Note_on_c, 0, 60, 42
1, 74662, Control_c, 0, 64, 35
1, 74682, Note_off_c, 0, 64, 60
1, 74712, Note_off_c, 0, 60, 59
1, 74736, Control_c, 0, 64, 36
1, 74739, Note_on_c, 0, 62, 42
1, 74740, Note_on_c, 0, 59, 39
1, 74750, Note_on_c, 0, 52, 34
1, 74751, Control_c, 0, 64, 39
1, 74765, Control_c, 0, 64, 43
1, 74780, Control_c, 0, 64, 48
1, 74795, Control_c, 0, 64, 53
1, 74799, Note_off_c, 0, 62, 56
1, 74810, Control_c, 0, 64, 56
1, 74825, Control_c, 0, 64, 59
1, 74840, Control_c, 0, 64, 61
1, 74845, Note_on_c, 0, 68, 45
1, 74847, Note_off_c, 0, 69, 43
1, 74855, Control_c, 0, 64, 63
1, 74870, Control_c, 0, 64, 65
1, 74884, Control_c, 0, 64, 67
1, 74899, Control_c, 0, 64, 70
1, 74902, Note_off_c, 0, 68, 61
1, 74914, Control_c, 0, 64, 72
1, 74917, Note_off_c, 0, 52, 46
1, 74929, Control_c, 0, 64, 75
1, 74931, Note_on_c, 0, 66, 54
1, 74944, Control_c, 0, 64, 76
1, 74958, Control_c, 0, 64, 77
1, 74986, Note_off_c, 0, 59, 42
1, 75016, Note_off_c, 0, 66, 58
1, 75028, Note_on_c, 0, 68, 66
1, 75122, Note_on_c, 0, 76, 68
1, 75132, Note_off_c, 0, 68, 62
1, 75135, Control_c, 0, 64, 76
1, 75162, Note_off_c, 0, 76, 60
1, 75180, Control_c, 0, 64, 76
1, 75213, Note_on_c, 0, 64, 61
1, 75224, Control_c, 0, 64, 75
1, 75254, Control_c, 0, 64, 75
1, 75269, Control_c, 0, 64, 74
1, 75283, Control_c, 0, 64, 73
1, 75293, Note_off_c, 0, 64, 34
1, 75297, Note_on_c, 0, 60, 53
1, 75298, Control_c, 0, 64, 72
1, 75308, Note_on_c, 0, 63, 53
1, 75311, Note_on_c, 0, 67, 67
1, 75313, Control_c, 0, 64, 71
1, 75328, Control_c, 0, 64, 69
1, 75340, Note_off_c, 0, 63, 54
1, 75343, Control_c, 0, 64, 67
1, 75366, Control_c, 0, 64, 65
1, 75381, Control_c, 0, 64, 63
1, 75385, Note_off_c, 0, 60, 50
1, 75395, Control_c, 0, 64, 60
1, 75410, Control_c, 0, 64, 57
1, 75425, Control_c, 0, 64, 55
1, 75429, Note_on_c, 0, 65, 56
1, 75439, Note_on_c, 0, 62, 41
1, 75440, Control_c, 0, 64, 53
1, 75455, Control_c, 0, 64, 50
1, 75469, Control_c, 0, 64, 48
1, 75484, Control_c, 0, 64, 46
1, 75494, Note_off_c, 0, 62, 59
1, 75499, Control_c, 0, 64, 45
1, 75514, Control_c, 0, 64, 44
1, 75517, Note_on_c, 0, 60, 53
1, 75522, Note_on_c, 0, 63, 56
1, 75528, Control_c, 0, 64, 43
1, 75543, Control_c, 0, 64, 42
1, 75546, Note_off_c, 0, 65, 52
1, 75558, Control_c, 0, 64, 41
1, 75573, Control_c, 0, 64, 41
1, 75588, Control_c, 0, 64, 40
1, 75592, Note_off_c, 0, 60, 64
1, 75594, Note_off_c, 0, 63, 62
1, 75603, Control_c, 0, 64, 40
1, 75610, Note_on_c, 0, 62, 50
1, 75618, Control_c, 0, 64, 39
1, 75627, Note_on_c, 0, 58, 47
1, 75633, Control_c, 0, 64, 39
1, 75662, Control_c, 0, 64, 38
1, 75671, Note_off_c, 0, 58, 63
1, 75675, Note_off_c, 0, 62, 58
1, 75677, Control_c, 0, 64, 38
1, 75692, Control_c, 0, 64, 37
1, 75702, Note_on_c, 0, 63, 53
1, 75721, Control_c, 0, 64, 36
1, 75734, Note_on_c, 0, 60, 36
1, 75766, Note_off_c, 0, 60, 55
1, 75766, Control_c, 0, 64, 36
1, 75777, Note_off_c, 0, 63, 58
1, 75781, Note_on_c, 0, 58, 52
1, 75797, Note_on_c, 0, 62, 53
1, 75840, Control_c, 0, 64, 36
1, 75848, Note_off_c, 0, 62, 58
1, 75854, Control_c, 0, 64, 39
1, 75868, Note_off_c, 0, 58, 61
1, 75869, Control_c, 0, 64, 41
1, 75884, Control_c, 0, 64, 44
1, 75893, Note_on_c, 0, 60, 40
1, 75899, Control_c, 0, 64, 48
1, 75908, Note_on_c, 0, 50, 28
1, 75913, Control_c, 0, 64, 50
1, 75926, Note_on_c, 0, 57, 33
1, 75928, Control_c, 0, 64, 53
1, 75943, Control_c, 0, 64, 55
1, 75958, Control_c, 0, 64, 57
1, 75973, Control_c, 0, 64, 59
1, 75976, Note_off_c, 0, 60, 55
1, 75988, Control_c, 0, 64, 61
1, 76002, Control_c, 0, 64, 63
1, 76013, Note_on_c, 0, 66, 45
1, 76017, Control_c, 0, 64, 64
1, 76020, Note_off_c, 0, 57, 37
1, 76023, Note_off_c, 0, 67, 53
1, 76032, Control_c, 0, 64, 66
1, 76047, Control_c, 0, 64, 68
1, 76062, Control_c, 0, 64, 70
1, 76077, Control_c, 0, 64, 73
1, 76081, Note_off_c, 0, 50, 34
1, 76091, Note_off_c, 0, 66, 59
1, 76092, Control_c, 0, 64, 76
1, 76113, Control_c, 0, 64, 77
1, 76119, Note_on_c, 0, 64, 49
1, 76128, Control_c, 0, 64, 77
1, 76175, Note_off_c, 0, 64, 57
1, 76211, Note_on_c, 0, 66, 46
1, 76218, Control_c, 0, 64, 77
1, 76280, Note_off_c, 0, 66, 61
1, 76292, Control_c, 0, 64, 76
1, 76306, Note_on_c, 0, 69, 57
1, 76381, Control_c, 0, 64, 76
1, 76399, Note_off_c, 0, 69, 63
1, 76411, Control_c, 0, 64, 75
1, 76413, Note_on_c, 0, 72, 57
1, 76441, Control_c, 0, 64, 75
1, 76455, Control_c, 0, 64, 74
1, 76470, Control_c, 0, 64, 72
1, 76485, Control_c, 0, 64, 68
1, 76500, Control_c, 0, 64, 63
1, 76515, Control_c, 0, 64, 58
1, 76530, Control_c, 0, 64, 57
1, 76545, Note_on_c, 0, 70, 55
1, 76558, Note_off_c, 0, 72, 58
1, 76560, Control_c, 0, 64, 59
1, 76575, Control_c, 0, 64, 61
1, 76590, Control_c, 0, 64, 63
1, 76604, Control_c, 0, 64, 65
1, 76619, Control_c, 0, 64, 67
1, 76634, Control_c, 0, 64, 70
1, 76649, Control_c, 0, 64, 72
1, 76655, Note_on_c, 0, 69, 47
1, 76663, Control_c, 0, 64, 74
1, 76678, Control_c, 0, 64, 75
1, 76681, Note_off_c, 0, 70, 38
1, 76693, Control_c, 0, 64, 76
1, 76708, Control_c, 0, 64, 77
1, 76721, Note_off_c, 0, 69, 64
1, 76723, Control_c, 0, 64, 77
1, 76744, Note_on_c, 0, 67, 50
1, 76767, Control_c, 0, 64, 77
1, 76782, Control_c, 0, 64, 75
1, 76793, Note_off_c, 0, 67, 53
1, 76797, Control_c, 0, 64, 72
1, 76811, Control_c, 0, 64, 66
1, 76826, Control_c, 0, 64, 62
1, 76837, Note_on_c, 0, 60, 36
1, 76840, Note_on_c, 0, 69, 69
1, 76841, Control_c, 0, 64, 63
1, 76854, Note_on_c, 0, 66, 43
1, 76858, Note_on_c, 0, 45, 30
1, 76863, Control_c, 0, 64, 64
1, 76878, Control_c, 0, 64, 66
1, 76893, Control_c, 0, 64, 68
1, 76903, Note_off_c, 0, 60, 65
1, 76908, Control_c, 0, 64, 70
1, 76909, Note_off_c, 0, 66, 56
1, 76910, Note_off_c, 0, 45, 61
1, 76923, Control_c, 0, 64, 72
1, 76937, Control_c, 0, 64, 73
1, 76951, Note_on_c, 0, 64, 58
1, 76952, Control_c, 0, 64, 73
1, 77033, Note_on_c, 0, 66, 66
1, 77034, Note_off_c, 0, 64, 61
1, 77044, Note_off_c, 0, 69, 58
1, 77057, Control_c, 0, 64, 73
1, 77072, Control_c, 0, 64, 71
1, 77086, Control_c, 0, 64, 68
1, 77101, Control_c, 0, 64, 64
1, 77116, Control_c, 0, 64, 59
1, 77120, Note_off_c, 0, 66, 62
1, 77137, Note_on_c, 0, 67, 73
1, 77141, Note_on_c, 0, 58, 51
1, 77144, Note_on_c, 0, 46, 48
1, 77146, Control_c, 0, 64, 60
1, 77160, Control_c, 0, 64, 62
1, 77175, Control_c, 0, 64, 64
1, 77190, Control_c, 0, 64, 66
1, 77205, Control_c, 0, 64, 68
1, 77210, Note_off_c, 0, 67, 64
1, 77219, Control_c, 0, 64, 70
1, 77233, Control_c, 0, 64, 71
1, 77241, Note_on_c, 0, 60, 65
1, 77246, Note_off_c, 0, 46, 38
1, 77248, Control_c, 0, 64, 72
1, 77284, Note_off_c, 0, 58, 57
1, 77307, Control_c, 0, 64, 72
1, 77340, Note_on_c, 0, 61, 61
1, 77342, Note_off_c, 0, 60, 57
1, 77366, Control_c, 0, 64, 72
1, 77381, Control_c, 0, 64, 71
1, 77396, Control_c, 0, 64, 69
1, 77411, Control_c, 0, 64, 66
1, 77425, Control_c, 0, 64, 62
1, 77435, Note_on_c, 0, 65, 64
1, 77435, Note_off_c, 0, 61, 61
1, 77440, Control_c, 0, 64, 57
1, 77451, Note_on_c, 0, 47, 41
1, 77451, Note_on_c, 0, 62, 47
1, 77455, Control_c, 0, 64, 55
1, 77484, Control_c, 0, 64, 55
1, 77499, Control_c, 0, 64, 57
1, 77514, Control_c, 0, 64, 60
1, 77529, Control_c, 0, 64, 62
1, 77539, Note_on_c, 0, 59, 53
1, 77544, Control_c, 0, 64, 64
1, 77558, Control_c, 0, 64, 66
1, 77573, Control_c, 0, 64, 67
1, 77584, Note_off_c, 0, 47, 50
1, 77588, Control_c, 0, 64, 68
1, 77611, Control_c, 0, 64, 69
1, 77626, Control_c, 0, 64, 70
1, 77637, Note_on_c, 0, 56, 47
1, 77696, Note_off_c, 0, 56, 63
1, 77699, Control_c, 0, 64, 69
1, 77714, Control_c, 0, 64, 66
1, 77729, Control_c, 0, 64, 63
1, 77744, Note_off_c, 0, 59, 35
1, 77744, Control_c, 0, 64, 57
1, 77749, Note_on_c, 0, 55, 46
1, 77760, Control_c, 0, 64, 56
1, 77762, Note_on_c, 0, 48, 42
1, 77775, Control_c, 0, 64, 58
1, 77789, Control_c, 0, 64, 60
1, 77790, Note_off_c, 0, 62, 38
1, 77804, Control_c, 0, 64, 62
1, 77813, Note_off_c, 0, 55, 60
1, 77819, Control_c, 0, 64, 64
1, 77834, Control_c, 0, 64, 65
1, 77843, Note_on_c, 0, 57, 50
1, 77849, Control_c, 0, 64, 67
1, 77863, Control_c, 0, 64, 68
1, 77878, Control_c, 0, 64, 68
1, 77893, Note_off_c, 0, 57, 63
1, 77893, Control_c, 0, 64, 69
1, 77946, Note_on_c, 0, 58, 56
1, 77982, Control_c, 0, 64, 68
1, 77997, Control_c, 0, 64, 66
1, 78004, Note_off_c, 0, 58, 53
1, 78012, Control_c, 0, 64, 62
1, 78026, Control_c, 0, 64, 58
1, 78032, Note_off_c, 0, 65, 27
1, 78039, Note_on_c, 0, 62, 43
1, 78044, Note_on_c, 0, 64, 53
1, 78047, Note_on_c, 0, 55, 50
1, 78056, Control_c, 0, 64, 60
1, 78071, Control_c, 0, 64, 62
1, 78083, Note_off_c, 0, 62, 62
1, 78086, Control_c, 0, 64, 63
1, 78086, Note_off_c, 0, 48, 34
1, 78094, Note_off_c, 0, 55, 63
1, 78100, Control_c, 0, 64, 65
1, 78115, Control_c, 0, 64, 66
1, 78130, Control_c, 0, 64, 67
1, 78142, Note_on_c, 0, 60, 49
1, 78145, Control_c, 0, 64, 68
1, 78192, Note_off_c, 0, 60, 60
1, 78248, Note_on_c, 0, 58, 49
1, 78280, Note_off_c, 0, 64, 60
1, 78293, Control_c, 0, 64, 68
1, 78307, Control_c, 0, 64, 67
1, 78311, Note_off_c, 0, 58, 52
1, 78322, Control_c, 0, 64, 64
1, 78337, Control_c, 0, 64, 60
1, 78360, Control_c, 0, 64, 57
1, 78369, Note_on_c, 0, 41, 34
1, 78375, Control_c, 0, 64, 56
1, 78380, Note_on_c, 0, 65, 51
1, 78383, Note_on_c, 0, 53, 32
1, 78387, Note_on_c, 0, 57, 40
1, 78389, Control_c, 0, 64, 57
1, 78404, Control_c, 0, 64, 58
1, 78419, Control_c, 0, 64, 61
1, 78427, Note_off_c, 0, 57, 61
1, 78434, Control_c, 0, 64, 63
1, 78449, Control_c, 0, 64, 65
1, 78463, Control_c, 0, 64, 67
1, 78478, Control_c, 0, 64, 69
1, 78493, Control_c, 0, 64, 70
1, 78501, Note_on_c, 0, 58, 50
1, 78507, Control_c, 0, 64, 71
1, 78522, Control_c, 0, 64, 73
1, 78537, Control_c, 0, 64, 74
1, 78547, Note_off_c, 0, 41, 37
1, 78553, Control_c, 0, 64, 74
1, 78561, Note_off_c, 0, 53, 42
1, 78562, Note_off_c, 0, 58, 58
1, 78568, Control_c, 0, 64, 75
1, 78598, Control_c, 0, 64, 75
1, 78600, Note_on_c, 0, 59, 55
1, 78663, Note_off_c, 0, 59, 45
1, 78700, Note_on_c, 0, 60, 62
1, 78751, Note_off_c, 0, 65, 37
1, 78790, Note_on_c, 0, 62, 67
1, 78790, Note_off_c, 0, 60, 62
1, 78830, Note_off_c, 0, 62, 58
1, 78834, Control_c, 0, 64, 76
1, 78864, Control_c, 0, 64, 76
1, 78879, Control_c, 0, 64, 77
1, 78884, Note_on_c, 0, 64, 74
1, 78938, Control_c, 0, 64, 76
1, 78948, Note_off_c, 0, 64, 60
1, 78953, Control_c, 0, 64, 76
1, 78968, Control_c, 0, 64, 75
1, 78983, Control_c, 0, 64, 73
1, 78987, Note_on_c, 0, 65, 70
1, 78991, Note_on_c, 0, 72, 79
1, 78992, Note_on_c, 0, 69, 72
1, 78997, Control_c, 0, 64, 70
1, 79012, Control_c, 0, 64, 66
1, 79027, Control_c, 0, 64, 61
1, 79042, Control_c, 0, 64, 57
1, 79057, Control_c, 0, 64, 54
1, 79064, Note_off_c, 0, 65, 54
1, 79071, Control_c, 0, 64, 51
1, 79086, Control_c, 0, 64, 48
1, 79107, Note_on_c, 0, 67, 68
1, 79109, Control_c, 0, 64, 45
1, 79123, Control_c, 0, 64, 43
1, 79138, Control_c, 0, 64, 42
1, 79153, Control_c, 0, 64, 42
1, 79164, Note_off_c, 0, 69, 56
1, 79183, Control_c, 0, 64, 41
1, 79203, Note_off_c, 0, 67, 61
1, 79207, Note_on_c, 0, 65, 56
1, 79281, Note_off_c, 0, 65, 62
1, 79298, Note_on_c, 0, 63, 56
1, 79358, Note_off_c, 0, 63, 55
1, 79410, Note_on_c, 0, 65, 54
1, 79421, Control_c, 0, 64, 41
1, 79474, Note_off_c, 0, 65, 60
1, 79492, Note_on_c, 0, 63, 54
1, 79588, Note_on_c, 0, 62, 70
1, 79591, Note_on_c, 0, 53, 66
1, 79598, Control_c, 0, 64, 41
1, 79613, Control_c, 0, 64, 44
1, 79618, Note_off_c, 0, 63, 52
1, 79627, Control_c, 0, 64, 48
1, 79642, Control_c, 0, 64, 52
1, 79657, Control_c, 0, 64, 56
1, 79672, Control_c, 0, 64, 58
1, 79687, Control_c, 0, 64, 61
1, 79702, Control_c, 0, 64, 63
1, 79702, Note_off_c, 0, 72, 62
1, 79710, Note_on_c, 0, 71, 64
1, 79717, Control_c, 0, 64, 65
1, 79732, Control_c, 0, 64, 68
1, 79746, Control_c, 0, 64, 71
1, 79761, Control_c, 0, 64, 76
1, 79776, Control_c, 0, 64, 80
1, 79780, Note_off_c, 0, 71, 64
1, 79791, Control_c, 0, 64, 84
1, 79794, Note_on_c, 0, 70, 68
1, 79806, Control_c, 0, 64, 87
1, 79809, Note_off_c, 0, 53, 56
1, 79820, Control_c, 0, 64, 92
1, 79835, Control_c, 0, 64, 95
1, 79857, Control_c, 0, 64, 95
1, 79887, Note_off_c, 0, 70, 63
1, 79901, Note_on_c, 0, 71, 73
1, 79907, Note_on_c, 0, 68, 50
1, 79934, Note_off_c, 0, 68, 60
1, 79976, Control_c, 0, 64, 95
1, 79991, Control_c, 0, 64, 94
1, 79993, Note_on_c, 0, 77, 82
1, 79993, Note_off_c, 0, 71, 63
1, 80006, Control_c, 0, 64, 94
1, 80021, Control_c, 0, 64, 93
1, 80035, Control_c, 0, 64, 93
1, 80050, Control_c, 0, 64, 92
1, 80065, Control_c, 0, 64, 92
1, 80079, Control_c, 0, 64, 91
1, 80087, Note_on_c, 0, 74, 80
1, 80088, Note_off_c, 0, 77, 53
1, 80094, Control_c, 0, 64, 91
1, 80109, Control_c, 0, 64, 90
1, 80124, Control_c, 0, 64, 88
1, 80126, Note_on_c, 0, 55, 52
1, 80139, Control_c, 0, 64, 86
1, 80152, Note_off_c, 0, 62, 30
1, 80155, Control_c, 0, 64, 84
1, 80170, Control_c, 0, 64, 80
1, 80184, Control_c, 0, 64, 72
1, 80199, Note_on_c, 0, 71, 75
1, 80199, Control_c, 0, 64, 64
1, 80212, Note_off_c, 0, 74, 56
1, 80214, Control_c, 0, 64, 56
1, 80229, Control_c, 0, 64, 53
1, 80244, Control_c, 0, 64, 53
1, 80259, Control_c, 0, 64, 55
1, 80274, Control_c, 0, 64, 56
1, 80275, Note_on_c, 0, 62, 51
1, 80283, Note_off_c, 0, 71, 63
1, 80289, Control_c, 0, 64, 58
1, 80301, Note_on_c, 0, 65, 67
1, 80303, Control_c, 0, 64, 60
1, 80318, Control_c, 0, 64, 62
1, 80333, Control_c, 0, 64, 63
1, 80348, Control_c, 0, 64, 64
1, 80358, Note_off_c, 0, 62, 62
1, 80363, Control_c, 0, 64, 65
1, 80375, Note_off_c, 0, 65, 63
1, 80377, Control_c, 0, 64, 66
1, 80378, Note_on_c, 0, 64, 51
1, 80380, Note_on_c, 0, 67, 71
1, 80392, Control_c, 0, 64, 67
1, 80407, Control_c, 0, 64, 68
1, 80422, Note_off_c, 0, 64, 63
1, 80422, Control_c, 0, 64, 68
1, 80459, Note_off_c, 0, 55, 30
1, 80476, Note_on_c, 0, 65, 46
1, 80478, Note_off_c, 0, 67, 63
1, 80482, Note_on_c, 0, 68, 68
1, 80485, Note_on_c, 0, 71, 75
1, 80542, Note_off_c, 0, 65, 59
1, 80557, Note_on_c, 0, 64, 52
1, 80566, Note_off_c, 0, 68, 48
1, 80584, Note_off_c, 0, 71, 59
1, 80591, Note_off_c, 0, 64, 64
1, 80600, Note_on_c, 0, 67, 62
1, 80607, Control_c, 0, 64, 68
1, 80653, Note_off_c, 0, 67, 57
1, 80666, Control_c, 0, 64, 67
1, 80669, Note_on_c, 0, 62, 48
1, 80679, Note_on_c, 0, 65, 63
1, 80681, Control_c, 0, 64, 67
1, 80696, Control_c, 0, 64, 65
1, 80710, Control_c, 0, 64, 61
1, 80725, Control_c, 0, 64, 56
1, 80740, Control_c, 0, 64, 53
1, 80744, Note_off_c, 0, 62, 37
1, 80769, Control_c, 0, 64, 54
1, 80770, Note_on_c, 0, 48, 42
1, 80779, Note_off_c, 0, 65, 59
1, 80784, Control_c, 0, 64, 57
1, 80789, Note_on_c, 0, 71, 64
1, 80799, Control_c, 0, 64, 60
1, 80814, Control_c, 0, 64, 63
1, 80829, Control_c, 0, 64, 64
1, 80844, Control_c, 0, 64, 66
1, 80858, Control_c, 0, 64, 68
1, 80873, Control_c, 0, 64, 70
1, 80888, Control_c, 0, 64, 71
1, 80889, Note_off_c, 0, 71, 54
1, 80902, Note_on_c, 0, 67, 55
1, 80903, Control_c, 0, 64, 72
1, 80918, Control_c, 0, 64, 73
1, 80933, Control_c, 0, 64, 74
1, 80948, Control_c, 0, 64, 74
1, 80967, Note_off_c, 0, 67, 59
1, 80991, Note_on_c, 0, 65, 56
1, 81007, Control_c, 0, 64, 74
1, 81022, Control_c, 0, 64, 72
1, 81037, Control_c, 0, 64, 68
1, 81052, Control_c, 0, 64, 63
1, 81064, Note_off_c, 0, 65, 56
1, 81067, Control_c, 0, 64, 57
1, 81081, Control_c, 0, 64, 56
1, 81087, Note_on_c, 0, 60, 37
1, 81095, Note_on_c, 0, 72, 50
1, 81096, Control_c, 0, 64, 57
1, 81100, Note_on_c, 0, 64, 48
1, 81111, Control_c, 0, 64, 59
1, 81125, Control_c, 0, 64, 62
1, 81140, Control_c, 0, 64, 64
1, 81149, Note_off_c, 0, 64, 59
1, 81155, Control_c, 0, 64, 67
1, 81170, Control_c, 0, 64, 70
1, 81178, Note_off_c, 0, 48, 39
1, 81185, Control_c, 0, 64, 73
1, 81199, Control_c, 0, 64, 75
1, 81202, Note_on_c, 0, 65, 49
1, 81211, Note_off_c, 0, 72, 56
1, 81214, Control_c, 0, 64, 77
1, 81229, Control_c, 0, 64, 77
1, 81244, Control_c, 0, 64, 78
1, 81264, Note_off_c, 0, 60, 30
1, 81266, Note_off_c, 0, 65, 61
1, 81273, Control_c, 0, 64, 78
1, 81290, Note_on_c, 0, 64, 52
1, 81342, Note_off_c, 0, 64, 52
1, 81355, Control_c, 0, 64, 78
1, 81370, Control_c, 0, 64, 77
1, 81385, Control_c, 0, 64, 75
1, 81399, Control_c, 0, 64, 73
1, 81409, Note_on_c, 0, 74, 83
1, 81411, Note_on_c, 0, 67, 73
1, 81414, Control_c, 0, 64, 70
1, 81415, Note_on_c, 0, 71, 73
1, 81429, Control_c, 0, 64, 66
1, 81444, Control_c, 0, 64, 63
1, 81459, Control_c, 0, 64, 59
1, 81469, Note_off_c, 0, 67, 53
1, 81473, Control_c, 0, 64, 56
1, 81488, Control_c, 0, 64, 54
1, 81503, Control_c, 0, 64, 53
1, 81518, Control_c, 0, 64, 51
1, 81519, Note_on_c, 0, 69, 71
1, 81532, Control_c, 0, 64, 50
1, 81539, Note_off_c, 0, 71, 56
1, 81547, Control_c, 0, 64, 49
1, 81562, Control_c, 0, 64, 48
1, 81577, Control_c, 0, 64, 47
1, 81592, Control_c, 0, 64, 47
1, 81607, Control_c, 0, 64, 46
1, 81609, Note_off_c, 0, 69, 62
1, 81610, Note_on_c, 0, 67, 64
1, 81621, Control_c, 0, 64, 45
1, 81636, Control_c, 0, 64, 45
1, 81651, Control_c, 0, 64, 44
1, 81666, Control_c, 0, 64, 44
1, 81681, Control_c, 0, 64, 43
1, 81695, Note_off_c, 0, 67, 63
1, 81704, Note_on_c, 0, 65, 60
1, 81711, Control_c, 0, 64, 43
1, 81725, Control_c, 0, 64, 42
1, 81740, Control_c, 0, 64, 42
1, 81756, Control_c, 0, 64, 41
1, 81758, Note_off_c, 0, 65, 56
1, 81803, Note_on_c, 0, 67, 68
1, 81872, Note_off_c, 0, 67, 62
1, 81891, Note_on_c, 0, 65, 63
1, 81963, Control_c, 0, 64, 42
1, 81978, Note_off_c, 0, 65, 59
1, 81978, Control_c, 0, 64, 44
1, 81993, Control_c, 0, 64, 46
1, 81996, Note_on_c, 0, 64, 73
1, 81999, Note_on_c, 0, 55, 65
1, 82008, Control_c, 0, 64, 49
1, 82022, Control_c, 0, 64, 52
1, 82037, Control_c, 0, 64, 56
1, 82052, Control_c, 0, 64, 59
1, 82067, Control_c, 0, 64, 61
1, 82082, Control_c, 0, 64, 63
1, 82104, Control_c, 0, 64, 66
1, 82113, Note_on_c, 0, 73, 72
1, 82116, Note_off_c, 0, 74, 60
1, 82119, Control_c, 0, 64, 68
1, 82134, Control_c, 0, 64, 72
1, 82148, Control_c, 0, 64, 77
1, 82163, Control_c, 0, 64, 81
1, 82178, Control_c, 0, 64, 85
1, 82191, Note_off_c, 0, 73, 63
1, 82193, Control_c, 0, 64, 89
1, 82195, Note_off_c, 0, 55, 55
1, 82207, Note_on_c, 0, 72, 73
1, 82208, Control_c, 0, 64, 91
1, 82222, Control_c, 0, 64, 92
1, 82237, Control_c, 0, 64, 92
1, 82299, Note_off_c, 0, 72, 63
1, 82300, Note_on_c, 0, 73, 83
1, 82304, Note_on_c, 0, 70, 63
1, 82326, Control_c, 0, 64, 93
1, 82343, Note_off_c, 0, 70, 57
1, 82392, Note_on_c, 0, 79, 83
1, 82398, Note_off_c, 0, 73, 64
1, 82429, Control_c, 0, 64, 92
1, 82480, Note_off_c, 0, 79, 59
1, 82492, Note_on_c, 0, 76, 82
1, 82534, Control_c, 0, 64, 91
1, 82548, Note_on_c, 0, 57, 49
1, 82549, Control_c, 0, 64, 90
1, 82564, Control_c, 0, 64, 87
1, 82578, Control_c, 0, 64, 80
1, 82593, Control_c, 0, 64, 70
1, 82600, Note_off_c, 0, 64, 40
1, 82605, Note_on_c, 0, 73, 79
1, 82608, Control_c, 0, 64, 61
1, 82623, Control_c, 0, 64, 53
1, 82632, Note_off_c, 0, 76, 58
1, 82638, Control_c, 0, 64, 51
1, 82668, Control_c, 0, 64, 53
1, 82683, Control_c, 0, 64, 55
1, 82697, Note_off_c, 0, 73, 62
1, 82698, Control_c, 0, 64, 59
1, 82709, Note_on_c, 0, 64, 57
1, 82712, Control_c, 0, 64, 62
1, 82727, Control_c, 0, 64, 64
1, 82730, Note_on_c, 0, 67, 64
1, 82742, Control_c, 0, 64, 65
1, 82757, Control_c, 0, 64, 67
1, 82771, Control_c, 0, 64, 68
1, 82786, Control_c, 0, 64, 70
1, 82793, Note_off_c, 0, 64, 59
1, 82801, Control_c, 0, 64, 70
1, 82804, Note_off_c, 0, 67, 62
1, 82805, Note_on_c, 0, 69, 71
1, 82808, Note_on_c, 0, 65, 51
1, 82885, Note_off_c, 0, 65, 63
1, 82897, Control_c, 0, 64, 69
1, 82910, Note_off_c, 0, 69, 62
1, 82912, Control_c, 0, 64, 66
1, 82918, Note_on_c, 0, 67, 54
1, 82920, Note_on_c, 0, 73, 75
1, 82921, Note_on_c, 0, 70, 63
1, 82927, Control_c, 0, 64, 61
1, 82937, Note_off_c, 0, 57, 31
1, 82942, Control_c, 0, 64, 56
1, 82957, Control_c, 0, 64, 55
1, 82971, Control_c, 0, 64, 55
1, 82985, Note_off_c, 0, 67, 52
1, 82986, Control_c, 0, 64, 57
1, 82997, Note_off_c, 0, 70, 44
1, 83001, Control_c, 0, 64, 60
1, 83016, Control_c, 0, 64, 62
1, 83016, Note_on_c, 0, 69, 68
1, 83022, Note_on_c, 0, 65, 49
1, 83028, Note_off_c, 0, 73, 55
1, 83031, Control_c, 0, 64, 64
1, 83045, Control_c, 0, 64, 66
1, 83060, Control_c, 0, 64, 68
1, 83064, Note_off_c, 0, 65, 64
1, 83075, Control_c, 0, 64, 70
1, 83090, Control_c, 0, 64, 71
1, 83104, Control_c, 0, 64, 72
1, 83109, Note_off_c, 0, 69, 60
1, 83112, Note_on_c, 0, 67, 67
1, 83119, Control_c, 0, 64, 72
1, 83134, Control_c, 0, 64, 73
1, 83147, Note_on_c, 0, 65, 41
1, 83149, Control_c, 0, 64, 73
1, 83164, Control_c, 0, 64, 74
1, 83178, Control_c, 0, 64, 74
1, 83193, Control_c, 0, 64, 75
1, 83204, Note_off_c, 0, 65, 56
1, 83207, Note_off_c, 0, 67, 59
1, 83223, Control_c, 0, 64, 74
1, 83231, Note_on_c, 0, 73, 66
1, 83234, Note_on_c, 0, 58, 50
1, 83238, Control_c, 0, 64, 71
1, 83252, Control_c, 0, 64, 66
1, 83267, Control_c, 0, 64, 61
1, 83282, Control_c, 0, 64, 61
1, 83297, Control_c, 0, 64, 63
1, 83312, Control_c, 0, 64, 64
1, 83326, Control_c, 0, 64, 66
1, 83342, Control_c, 0, 64, 69
1, 83345, Note_on_c, 0, 69, 61
1, 83357, Control_c, 0, 64, 72
1, 83372, Control_c, 0, 64, 74
1, 83387, Control_c, 0, 64, 74
1, 83388, Note_off_c, 0, 69, 57
1, 83397, Note_off_c, 0, 73, 36
1, 83416, Control_c, 0, 64, 75
1, 83446, Control_c, 0, 64, 75
1, 83460, Note_on_c, 0, 67, 58
1, 83476, Control_c, 0, 64, 76
1, 83505, Control_c, 0, 64, 75
1, 83520, Control_c, 0, 64, 74
1, 83535, Control_c, 0, 64, 69
1, 83550, Control_c, 0, 64, 64
1, 83565, Control_c, 0, 64, 64
1, 83565, Note_off_c, 0, 67, 29
1, 83580, Control_c, 0, 64, 66
1, 83583, Note_on_c, 0, 74, 68
1, 83598, Note_on_c, 0, 62, 28
1, 83601, Control_c, 0, 64, 69
1, 83603, Note_on_c, 0, 65, 44
1, 83616, Control_c, 0, 64, 73
1, 83631, Control_c, 0, 64, 78
1, 83646, Note_off_c, 0, 65, 56
1, 83646, Control_c, 0, 64, 82
1, 83652, Note_off_c, 0, 62, 45
1, 83661, Control_c, 0, 64, 84
1, 83675, Control_c, 0, 64, 84
1, 83714, Note_off_c, 0, 58, 41
1, 83718, Note_on_c, 0, 69, 60
1, 83735, Control_c, 0, 64, 85
1, 83735, Note_off_c, 0, 74, 59
1, 83750, Control_c, 0, 64, 86
1, 83765, Control_c, 0, 64, 86
1, 83780, Control_c, 0, 64, 87
1, 83794, Control_c, 0, 64, 87
1, 83810, Note_off_c, 0, 69, 57
1, 83830, Note_on_c, 0, 70, 66
1, 83854, Control_c, 0, 64, 88
1, 83869, Control_c, 0, 64, 88
1, 83883, Control_c, 0, 64, 89
1, 83887, Note_off_c, 0, 70, 59
1, 83898, Control_c, 0, 64, 90
1, 83913, Control_c, 0, 64, 91
1, 83927, Control_c, 0, 64, 91
1, 83976, Note_on_c, 0, 46, 39
1, 84017, Control_c, 0, 64, 89
1, 84028, Note_on_c, 0, 77, 87
1, 84031, Note_on_c, 0, 70, 65
1, 84032, Control_c, 0, 64, 86
1, 84038, Note_on_c, 0, 74, 67
1, 84047, Control_c, 0, 64, 80
1, 84062, Control_c, 0, 64, 71
1, 84076, Control_c, 0, 64, 64
1, 84091, Control_c, 0, 64, 57
1, 84106, Control_c, 0, 64, 56
1, 84120, Control_c, 0, 64, 57
1, 84135, Control_c, 0, 64, 60
1, 84151, Control_c, 0, 64, 63
1, 84166, Control_c, 0, 64, 66
1, 84181, Control_c, 0, 64, 69
1, 84196, Control_c, 0, 64, 73
1, 84206, Note_off_c, 0, 70, 60
1, 84211, Control_c, 0, 64, 77
1, 84225, Control_c, 0, 64, 79
1, 84238, Note_on_c, 0, 72, 62
1, 84240, Control_c, 0, 64, 82
1, 84255, Control_c, 0, 64, 84
1, 84262, Note_off_c, 0, 74, 48
1, 84270, Control_c, 0, 64, 85
1, 84285, Control_c, 0, 64, 85
1, 84299, Control_c, 0, 64, 86
1, 84322, Note_off_c, 0, 72, 58
1, 84334, Note_on_c, 0, 70, 61
1, 84421, Note_off_c, 0, 70, 58
1, 84436, Note_on_c, 0, 68, 66
1, 84473, Note_off_c, 0, 68, 61
1, 84537, Note_on_c, 0, 70, 68
1, 84573, Control_c, 0, 64, 86
1, 84634, Note_off_c, 0, 70, 55
1, 84643, Note_on_c, 0, 68, 56
1, 84662, Control_c, 0, 64, 83
1, 84677, Control_c, 0, 64, 76
1, 84692, Control_c, 0, 64, 67
1, 84707, Control_c, 0, 64, 61
1, 84713, Note_off_c, 0, 68, 58
1, 84716, Note_off_c, 0, 77, 49
1, 84718, Note_on_c, 0, 48, 42
1, 84722, Control_c, 0, 64, 59
1, 84722, Note_off_c, 0, 46, 40
1, 84736, Control_c, 0, 64, 61
1, 84746, Note_on_c, 0, 67, 66
1, 84751, Control_c, 0, 64, 63
1, 84766, Control_c, 0, 64, 66
1, 84781, Control_c, 0, 64, 71
1, 84796, Control_c, 0, 64, 77
1, 84811, Control_c, 0, 64, 82
1, 84825, Control_c, 0, 64, 84
1, 84837, Note_off_c, 0, 67, 59
1, 84840, Control_c, 0, 64, 86
1, 84847, Note_on_c, 0, 75, 69
1, 84850, Note_off_c, 0, 48, 49
1, 84923, Note_off_c, 0, 75, 57
1, 84931, Note_on_c, 0, 74, 67
1, 85019, Control_c, 0, 64, 85
1, 85034, Note_off_c, 0, 74, 64
1, 85044, Note_on_c, 0, 75, 74
1, 85069, Note_on_c, 0, 72, 51
1, 85143, Note_off_c, 0, 75, 57
1, 85151, Note_on_c, 0, 79, 82
1, 85213, Note_off_c, 0, 72, 0
1, 85234, Control_c, 0, 64, 86
1, 85243, Note_on_c, 0, 75, 79
1, 85249, Poly_aftertouch_c, 0, 72, 127
1, 85254, Note_off_c, 0, 79, 62
1, 85283, Poly_aftertouch_c, 0, 72, 0
1, 85299, Note_off_c, 0, 75, 62
1, 85322, Control_c, 0, 64, 85
1, 85326, Note_on_c, 0, 53, 54
1, 85331, Note_on_c, 0, 65, 50
1, 85337, Control_c, 0, 64, 82
1, 85352, Control_c, 0, 64, 75
1, 85365, Note_on_c, 0, 69, 56
1, 85366, Control_c, 0, 64, 66
1, 85368, Note_on_c, 0, 74, 69
1, 85381, Control_c, 0, 64, 59
1, 85396, Control_c, 0, 64, 54
1, 85411, Control_c, 0, 64, 56
1, 85426, Control_c, 0, 64, 58
1, 85440, Control_c, 0, 64, 61
1, 85455, Control_c, 0, 64, 64
1, 85470, Control_c, 0, 64, 66
1, 85478, Note_on_c, 0, 73, 69
1, 85479, Note_off_c, 0, 74, 59
1, 85485, Control_c, 0, 64, 69
1, 85500, Control_c, 0, 64, 72
1, 85514, Control_c, 0, 64, 74
1, 85529, Control_c, 0, 64, 75
1, 85544, Control_c, 0, 64, 76
1, 85557, Note_off_c, 0, 73, 60
1, 85559, Control_c, 0, 64, 77
1, 85573, Note_on_c, 0, 72, 68
1, 85588, Control_c, 0, 64, 78
1, 85647, Control_c, 0, 64, 77
1, 85662, Control_c, 0, 64, 74
1, 85672, Note_on_c, 0, 73, 70
1, 85674, Note_off_c, 0, 65, 39
1, 85675, Note_off_c, 0, 72, 61
1, 85677, Control_c, 0, 64, 67
1, 85678, Note_on_c, 0, 63, 49
1, 85691, Control_c, 0, 64, 61
1, 85706, Control_c, 0, 64, 58
1, 85721, Control_c, 0, 64, 59
1, 85737, Control_c, 0, 64, 60
1, 85752, Control_c, 0, 64, 62
1, 85755, Note_off_c, 0, 73, 62
1, 85767, Control_c, 0, 64, 65
1, 85768, Note_on_c, 0, 77, 67
1, 85782, Control_c, 0, 64, 68
1, 85796, Control_c, 0, 64, 70
1, 85811, Control_c, 0, 64, 72
1, 85826, Control_c, 0, 64, 73
1, 85848, Control_c, 0, 64, 74
1, 85857, Note_off_c, 0, 77, 61
1, 85863, Control_c, 0, 64, 74
1, 85868, Note_on_c, 0, 73, 65
1, 85893, Control_c, 0, 64, 75
1, 85897, Note_off_c, 0, 73, 66
1, 85911, Note_off_c, 0, 63, 31
1, 85952, Control_c, 0, 64, 73
1, 85967, Control_c, 0, 64, 68
1, 85977, Note_on_c, 0, 58, 40
1, 85982, Control_c, 0, 64, 63
1, 85985, Note_on_c, 0, 73, 61
1, 85996, Control_c, 0, 64, 59
1, 86011, Control_c, 0, 64, 59
1, 86026, Control_c, 0, 64, 60
1, 86041, Control_c, 0, 64, 62
1, 86043, Note_off_c, 0, 53, 42
1, 86056, Control_c, 0, 64, 64
1, 86060, Note_off_c, 0, 69, 42
1, 86070, Control_c, 0, 64, 67
1, 86085, Control_c, 0, 64, 69
1, 86090, Note_off_c, 0, 73, 58
1, 86091, Note_on_c, 0, 70, 59
1, 86100, Control_c, 0, 64, 70
1, 86114, Control_c, 0, 64, 71
1, 86129, Control_c, 0, 64, 71
1, 86144, Control_c, 0, 64, 72
1, 86159, Control_c, 0, 64, 72
1, 86171, Note_off_c, 0, 70, 60
1, 86174, Control_c, 0, 64, 73
1, 86178, Note_on_c, 0, 69, 49
1, 86188, Control_c, 0, 64, 74
1, 86203, Control_c, 0, 64, 74
1, 86233, Control_c, 0, 64, 74
1, 86248, Control_c, 0, 64, 72
1, 86263, Control_c, 0, 64, 68
1, 86272, Note_off_c, 0, 69, 60
1, 86278, Control_c, 0, 64, 62
1, 86291, Note_on_c, 0, 74, 61
1, 86292, Control_c, 0, 64, 59
1, 86306, Note_on_c, 0, 62, 39
1, 86307, Control_c, 0, 64, 60
1, 86322, Control_c, 0, 64, 62
1, 86327, Note_on_c, 0, 67, 29
1, 86337, Control_c, 0, 64, 64
1, 86352, Control_c, 0, 64, 67
1, 86367, Control_c, 0, 64, 69
1, 86374, Note_off_c, 0, 58, 46
1, 86379, Note_off_c, 0, 67, 45
1, 86382, Control_c, 0, 64, 72
1, 86396, Control_c, 0, 64, 73
1, 86411, Control_c, 0, 64, 73
1, 86415, Note_on_c, 0, 70, 52
1, 86426, Control_c, 0, 64, 74
1, 86441, Control_c, 0, 64, 75
1, 86456, Control_c, 0, 64, 75
1, 86470, Control_c, 0, 64, 76
1, 86480, Note_off_c, 0, 70, 57
1, 86485, Control_c, 0, 64, 77
1, 86508, Note_on_c, 0, 69, 45
1, 86551, Note_off_c, 0, 74, 28
1, 86561, Note_off_c, 0, 62, 31
1, 86561, Control_c, 0, 64, 75
1, 86575, Control_c, 0, 64, 71
1, 86582, Note_off_c, 0, 69, 58
1, 86597, Control_c, 0, 64, 65
1, 86610, Note_on_c, 0, 57, 34
1, 86612, Control_c, 0, 64, 58
1, 86617, Note_on_c, 0, 65, 43
1, 86619, Note_on_c, 0, 60, 35
1, 86626, Control_c, 0, 64, 59
1, 86641, Control_c, 0, 64, 60
1, 86656, Control_c, 0, 64, 62
1, 86671, Control_c, 0, 64, 64
1, 86680, Note_off_c, 0, 65, 53
1, 86686, Control_c, 0, 64, 66
1, 86701, Control_c, 0, 64, 69
1, 86716, Control_c, 0, 64, 72
1, 86718, Note_on_c, 0, 69, 47
1, 86731, Control_c, 0, 64, 73
1, 86745, Control_c, 0, 64, 74
1, 86760, Control_c, 0, 64, 75
1, 86791, Note_off_c, 0, 60, 28
1, 86792, Note_off_c, 0, 69, 48
1, 86823, Note_on_c, 0, 67, 50
1, 86834, Control_c, 0, 64, 75
1, 86849, Note_off_c, 0, 57, 40
1, 86870, Note_off_c, 0, 67, 60
1, 86916, Note_on_c, 0, 74, 59
1, 86924, Note_on_c, 0, 64, 50
1, 86949, Note_off_c, 0, 64, 59
1, 86953, Note_on_c, 0, 58, 37
1, 86977, Note_on_c, 0, 55, 25
1, 86982, Control_c, 0, 64, 76
1, 86997, Control_c, 0, 64, 76
1, 87023, Note_on_c, 0, 67, 55
1, 87076, Note_off_c, 0, 67, 59
1, 87089, Note_off_c, 0, 58, 33
1, 87109, Note_on_c, 0, 65, 59
1, 87142, Note_off_c, 0, 65, 66
1, 87156, Note_off_c, 0, 74, 53
1, 87205, Control_c, 0, 64, 76
1, 87219, Control_c, 0, 64, 75
1, 87223, Note_off_c, 0, 55, 35
1, 87232, Note_on_c, 0, 73, 64
1, 87234, Control_c, 0, 64, 74
1, 87245, Note_on_c, 0, 64, 42
1, 87249, Control_c, 0, 64, 71
1, 87264, Control_c, 0, 64, 66
1, 87279, Control_c, 0, 64, 62
1, 87279, Note_off_c, 0, 64, 51
1, 87293, Control_c, 0, 64, 59
1, 87308, Control_c, 0, 64, 57
1, 87323, Control_c, 0, 64, 55
1, 87344, Note_on_c, 0, 57, 46
1, 87346, Control_c, 0, 64, 53
1, 87361, Control_c, 0, 64, 51
1, 87375, Control_c, 0, 64, 50
1, 87390, Control_c, 0, 64, 49
1, 87405, Control_c, 0, 64, 48
1, 87411, Note_off_c, 0, 57, 57
1, 87420, Control_c, 0, 64, 47
1, 87435, Control_c, 0, 64, 47
1, 87442, Note_on_c, 0, 56, 51
1, 87449, Control_c, 0, 64, 46
1, 87479, Control_c, 0, 64, 45
1, 87528, Note_off_c, 0, 73, 57
1, 87544, Note_on_c, 0, 74, 63
1, 87544, Note_off_c, 0, 56, 63
1, 87548, Note_on_c, 0, 65, 50
1, 87553, Note_on_c, 0, 57, 51
1, 87553, Control_c, 0, 64, 45
1, 87573, Note_on_c, 0, 53, 45
1, 87596, Note_off_c, 0, 65, 61
1, 87610, Note_off_c, 0, 74, 61
1, 87623, Note_off_c, 0, 57, 61
1, 87664, Note_on_c, 0, 62, 56
1, 87672, Control_c, 0, 64, 44
1, 87720, Note_off_c, 0, 53, 41
1, 87732, Note_off_c, 0, 62, 61
1, 87759, Note_on_c, 0, 57, 47
1, 87774, Control_c, 0, 64, 44
1, 87819, Control_c, 0, 64, 43
1, 87825, Note_off_c, 0, 57, 56
1, 87844, Note_on_c, 0, 76, 62
1, 87852, Note_on_c, 0, 70, 53
1, 87855, Note_on_c, 0, 55, 50
1, 87859, Note_on_c, 0, 64, 43
1, 87886, Note_off_c, 0, 64, 59
1, 87891, Note_off_c, 0, 70, 66
1, 87893, Note_off_c, 0, 55, 64
1, 87893, Note_off_c, 0, 76, 63
1, 87997, Control_c, 0, 64, 43
1, 88041, Control_c, 0, 64, 42
1, 88056, Control_c, 0, 64, 42
1, 88108, Control_c, 0, 64, 41
1, 88215, Note_on_c, 0, 73, 46
1, 88220, Note_on_c, 0, 57, 38
1, 88224, Note_on_c, 0, 69, 35
1, 88226, Note_on_c, 0, 67, 40
1, 88260, Note_off_c, 0, 69, 61
1, 88263, Note_off_c, 0, 73, 64
1, 88265, Note_off_c, 0, 67, 63
1, 88266, Note_off_c, 0, 57, 63
1, 88509, Control_c, 0, 64, 43
1, 88524, Control_c, 0, 64, 44
1, 88538, Control_c, 0, 64, 46
1, 88553, Control_c, 0, 64, 49
1, 88568, Control_c, 0, 64, 53
1, 88582, Control_c, 0, 64, 55
1, 88593, Note_on_c, 0, 50, 18
1, 88597, Control_c, 0, 64, 58
1, 88598, Note_on_c, 0, 69, 40
1, 88598, Note_on_c, 0, 74, 51
1, 88606, Note_on_c, 0, 65, 32
1, 88612, Control_c, 0, 64, 60
1, 88627, Control_c, 0, 64, 63
1, 88642, Control_c, 0, 64, 64
1, 88656, Control_c, 0, 64, 67
1, 88657, Note_off_c, 0, 69, 52
1, 88670, Note_off_c, 0, 65, 56
1, 88671, Control_c, 0, 64, 71
1, 88674, Note_off_c, 0, 74, 62
1, 88686, Control_c, 0, 64, 74
1, 88701, Control_c, 0, 64, 78
1, 88716, Control_c, 0, 64, 82
1, 88731, Control_c, 0, 64, 85
1, 88744, Note_on_c, 0, 57, 44
1, 88744, Note_off_c, 0, 50, 41
1, 88746, Control_c, 0, 64, 89
1, 88761, Control_c, 0, 64, 92
1, 88776, Control_c, 0, 64, 93
1, 88790, Control_c, 0, 64, 93
1, 88793, Note_off_c, 0, 57, 63
1, 88842, Control_c, 0, 64, 94
1, 88875, Note_on_c, 0, 59, 42
1, 88938, Note_off_c, 0, 59, 52
1, 88947, Control_c, 0, 64, 93
1, 88961, Control_c, 0, 64, 93
1, 88970, Note_on_c, 0, 61, 51
1, 88991, Control_c, 0, 64, 92
1, 89026, Note_off_c, 0, 61, 52
1, 89065, Control_c, 0, 64, 92
1, 89075, Note_on_c, 0, 62, 53
1, 89118, Note_off_c, 0, 62, 61
1, 89165, Note_on_c, 0, 64, 54
1, 89187, Note_off_c, 0, 64, 61
1, 89213, Control_c, 0, 64, 91
1, 89258, Control_c, 0, 64, 91
1, 89273, Control_c, 0, 64, 90
1, 89287, Control_c, 0, 64, 90
1, 89302, Control_c, 0, 64, 89
1, 89310, Note_on_c, 0, 65, 53
1, 89310, Note_on_c, 0, 69, 74
1, 89314, Note_on_c, 0, 57, 60
1, 89317, Note_on_c, 0, 62, 50
1, 89317, Control_c, 0, 64, 87
1, 89332, Control_c, 0, 64, 85
1, 89347, Control_c, 0, 64, 82
1, 89361, Control_c, 0, 64, 79
1, 89376, Control_c, 0, 64, 74
1, 89391, Control_c, 0, 64, 69
1, 89406, Control_c, 0, 64, 63
1, 89420, Control_c, 0, 64, 59
1, 89435, Control_c, 0, 64, 56
1, 89441, Note_on_c, 0, 38, 51
1, 89446, Note_on_c, 0, 50, 46
1, 89450, Control_c, 0, 64, 54
1, 89465, Control_c, 0, 64, 53
1, 89467, Note_off_c, 0, 57, 28
1, 89472, Note_off_c, 0, 38, 57
1, 89473, Note_off_c, 0, 50, 56
1, 89479, Control_c, 0, 64, 51
1, 89494, Note_off_c, 0, 62, 26
1, 89494, Control_c, 0, 64, 49
1, 89509, Control_c, 0, 64, 48
1, 89516, Note_off_c, 0, 65, 36
1, 89524, Control_c, 0, 64, 47
1, 89539, Control_c, 0, 64, 47
1, 89554, Control_c, 0, 64, 46
1, 89555, Note_on_c, 0, 40, 61
1, 89561, Note_on_c, 0, 52, 56
1, 89569, Control_c, 0, 64, 46
1, 89591, Control_c, 0, 64, 45
1, 89592, Note_off_c, 0, 52, 64
1, 89596, Note_off_c, 0, 40, 65
1, 89606, Control_c, 0, 64, 44
1, 89620, Control_c, 0, 64, 43
1, 89665, Control_c, 0, 64, 43
1, 89687, Note_on_c, 0, 41, 68
1, 89689, Note_on_c, 0, 53, 61
1, 89710, Control_c, 0, 64, 42
1, 89712, Note_off_c, 0, 53, 60
1, 89715, Note_off_c, 0, 41, 66
1, 89741, Control_c, 0, 64, 42
1, 89832, Note_on_c, 0, 35, 54
1, 89833, Note_on_c, 0, 47, 52
1, 89878, Note_off_c, 0, 69, 39
1, 89944, Note_on_c, 0, 68, 53
1, 89953, Note_on_c, 0, 65, 46
1, 89956, Note_off_c, 0, 35, 60
1, 89960, Note_on_c, 0, 62, 36
1, 89976, Note_off_c, 0, 47, 61
1, 89985, Note_off_c, 0, 65, 63
1, 89987, Note_off_c, 0, 68, 61
1, 89992, Note_off_c, 0, 62, 53
1, 90072, Note_on_c, 0, 65, 50
1, 90072, Note_on_c, 0, 69, 60
1, 90078, Note_on_c, 0, 62, 45
1, 90105, Note_off_c, 0, 65, 64
1, 90106, Note_off_c, 0, 62, 58
1, 90108, Note_off_c, 0, 69, 61
1, 90180, Note_on_c, 0, 71, 59
1, 90188, Note_on_c, 0, 65, 57
1, 90197, Note_on_c, 0, 62, 42
1, 90200, Note_off_c, 0, 71, 63
1, 90209, Note_off_c, 0, 65, 60
1, 90224, Note_off_c, 0, 62, 55
1, 90305, Note_on_c, 0, 62, 57
1, 90316, Note_on_c, 0, 64, 50
1, 90317, Note_on_c, 0, 58, 49
1, 90447, Note_on_c, 0, 55, 63
1, 90449, Note_on_c, 0, 43, 58
1, 90478, Note_off_c, 0, 55, 64
1, 90481, Note_off_c, 0, 43, 63
1, 90499, Note_off_c, 0, 58, 61
1, 90514, Note_off_c, 0, 64, 64
1, 90515, Note_off_c, 0, 62, 58
1, 90565, Note_on_c, 0, 45, 69
1, 90569, Note_on_c, 0, 57, 68
1, 90592, Note_off_c, 0, 45, 66
1, 90600, Note_off_c, 0, 57, 66
1, 90680, Note_on_c, 0, 58, 71
1, 90681, Note_on_c, 0, 46, 70
1, 90711, Note_off_c, 0, 58, 66
1, 90713, Note_off_c, 0, 46, 66
1, 90800, Note_on_c, 0, 52, 69
1, 90802, Note_on_c, 0, 40, 65
1, 90904, Control_c, 0, 64, 43
1, 90905, Note_on_c, 0, 73, 72
1, 90907, Note_on_c, 0, 70, 66
1, 90910, Note_on_c, 0, 67, 62
1, 90919, Control_c, 0, 64, 43
1, 90924, Note_off_c, 0, 40, 63
1, 90932, Note_off_c, 0, 52, 60
1, 90940, Note_off_c, 0, 70, 65
1, 90942, Note_off_c, 0, 67, 64
1, 90954, Note_off_c, 0, 73, 61
1, 91008, Control_c, 0, 64, 44
1, 91023, Control_c, 0, 64, 44
1, 91026, Note_on_c, 0, 67, 70
1, 91026, Note_on_c, 0, 74, 80
1, 91032, Note_on_c, 0, 70, 73
1, 91054, Note_off_c, 0, 67, 65
1, 91056, Note_off_c, 0, 70, 68
1, 91086, Note_off_c, 0, 74, 62
1, 91143, Note_on_c, 0, 76, 85
1, 91145, Note_on_c, 0, 70, 82
1, 91148, Note_on_c, 0, 67, 70
1, 91148, Control_c, 0, 64, 43
1, 91163, Control_c, 0, 64, 42
1, 91173, Note_off_c, 0, 70, 65
1, 91173, Note_off_c, 0, 76, 60
1, 91178, Note_off_c, 0, 67, 65
1, 91178, Control_c, 0, 64, 42
1, 91193, Control_c, 0, 64, 41
1, 91208, Control_c, 0, 64, 41
1, 91271, Note_on_c, 0, 64, 77
1, 91274, Note_on_c, 0, 67, 69
1, 91274, Note_on_c, 0, 69, 73
1, 91372, Note_off_c, 0, 64, 0
1, 91373, Note_on_c, 0, 61, 71
1, 91376, Note_on_c, 0, 49, 65
1, 91402, Poly_aftertouch_c, 0, 64, 0
1, 91405, Note_off_c, 0, 61, 65
1, 91411, Note_off_c, 0, 49, 66
1, 91423, Note_off_c, 0, 67, 62
1, 91426, Note_off_c, 0, 69, 64
1, 91501, Note_on_c, 0, 62, 70
1, 91503, Note_on_c, 0, 50, 63
1, 91525, Note_off_c, 0, 50, 61
1, 91528, Note_off_c, 0, 62, 67
1, 91616, Note_on_c, 0, 52, 74
1, 91617, Note_on_c, 0, 64, 65
1, 91636, Note_off_c, 0, 64, 66
1, 91639, Note_off_c, 0, 52, 68
1, 91735, Note_on_c, 0, 41, 78
1, 91735, Note_on_c, 0, 53, 80
1, 91852, Note_on_c, 0, 74, 79
1, 91858, Note_on_c, 0, 69, 68
1, 91860, Note_on_c, 0, 65, 64
1, 91889, Note_off_c, 0, 69, 64
1, 91893, Note_off_c, 0, 65, 65
1, 91909, Note_off_c, 0, 74, 62
1, 91972, Note_on_c, 0, 76, 89
1, 91978, Note_on_c, 0, 69, 77
1, 91979, Note_on_c, 0, 65, 67
1, 92010, Note_off_c, 0, 65, 62
1, 92012, Note_off_c, 0, 69, 62
1, 92022, Note_off_c, 0, 76, 65
1, 92030, Note_off_c, 0, 53, 57
1, 92047, Note_off_c, 0, 41, 39
1, 92087, Note_on_c, 0, 77, 96
1, 92093, Note_on_c, 0, 65, 73
1, 92099, Note_on_c, 0, 69, 74
1, 92120, Note_off_c, 0, 65, 69
1, 92122, Note_on_c, 0, 76, 48
1, 92123, Note_off_c, 0, 76, 127
1, 92123, Note_off_c, 0, 69, 69
1, 92142, Note_off_c, 0, 77, 66
1, 92206, Note_on_c, 0, 67, 79
1, 92209, Note_on_c, 0, 70, 79
1, 92210, Note_on_c, 0, 76, 82
1, 92242, Note_off_c, 0, 67, 60
1, 92242, Note_off_c, 0, 70, 62
1, 92253, Note_off_c, 0, 76, 63
1, 92320, Note_on_c, 0, 74, 79
1, 92327, Note_on_c, 0, 69, 73
1, 92330, Note_on_c, 0, 65, 68
1, 92354, Note_off_c, 0, 74, 62
1, 92354, Note_off_c, 0, 69, 64
1, 92363, Note_off_c, 0, 65, 66
1, 92433, Note_on_c, 0, 43, 50
1, 92436, Note_on_c, 0, 72, 74
1, 92436, Note_on_c, 0, 55, 53
1, 92438, Note_on_c, 0, 67, 71
1, 92447, Note_on_c, 0, 64, 54
1, 92467, Note_off_c, 0, 43, 63
1, 92469, Note_off_c, 0, 67, 64
1, 92471, Note_off_c, 0, 72, 63
1, 92473, Note_off_c, 0, 55, 64
1, 92482, Note_off_c, 0, 64, 65
1, 92520, Control_c, 0, 64, 41
1, 92540, Note_on_c, 0, 70, 73
1, 92550, Control_c, 0, 64, 42
1, 92560, Note_on_c, 0, 62, 50
1, 92565, Control_c, 0, 64, 42
1, 92571, Note_off_c, 0, 70, 63
1, 92587, Control_c, 0, 64, 43
1, 92591, Note_off_c, 0, 62, 58
1, 92602, Control_c, 0, 64, 43
1, 92617, Control_c, 0, 64, 44
1, 92646, Control_c, 0, 64, 44
1, 92670, Note_on_c, 0, 57, 28
1, 92671, Note_on_c, 0, 45, 27
1, 92684, Note_on_c, 0, 69, 44
1, 92704, Note_on_c, 0, 64, 21
1, 92706, Note_off_c, 0, 57, 53
1, 92707, Note_off_c, 0, 45, 52
1, 92709, Note_off_c, 0, 69, 56
1, 92735, Control_c, 0, 64, 45
1, 92743, Note_off_c, 0, 64, 32
1, 92786, Note_on_c, 0, 67, 41
1, 92788, Note_on_c, 0, 58, 45
1, 92814, Note_off_c, 0, 67, 58
1, 92815, Note_off_c, 0, 58, 55
1, 92821, Note_on_c, 0, 62, 13
1, 92866, Note_off_c, 0, 62, 29
1, 92888, Note_on_c, 0, 65, 62
1, 92907, Note_on_c, 0, 57, 49
1, 92916, Note_on_c, 0, 61, 49
1, 92929, Note_off_c, 0, 65, 62
1, 92933, Note_off_c, 0, 57, 60
1, 92942, Note_off_c, 0, 61, 59
1, 93006, Note_on_c, 0, 64, 67
1, 93014, Note_on_c, 0, 57, 54
1, 93038, Note_off_c, 0, 64, 64
1, 93044, Note_off_c, 0, 57, 65
1, 93124, Note_on_c, 0, 57, 61
1, 93131, Note_on_c, 0, 69, 65
1, 93136, Control_c, 0, 64, 44
1, 93140, Note_on_c, 0, 65, 55
1, 93157, Note_on_c, 0, 62, 47
1, 93180, Control_c, 0, 64, 44
1, 93244, Note_on_c, 0, 38, 52
1, 93257, Note_on_c, 0, 50, 40
1, 93269, Control_c, 0, 64, 43
1, 93278, Note_off_c, 0, 38, 63
1, 93286, Note_off_c, 0, 50, 55
1, 93375, Note_on_c, 0, 40, 53
1, 93377, Note_on_c, 0, 52, 53
1, 93400, Note_off_c, 0, 52, 59
1, 93405, Note_off_c, 0, 40, 56
1, 93422, Note_off_c, 0, 62, 49
1, 93429, Note_off_c, 0, 57, 44
1, 93431, Note_off_c, 0, 65, 58
1, 93483, Note_on_c, 0, 53, 54
1, 93484, Note_on_c, 0, 41, 63
1, 93508, Note_off_c, 0, 53, 59
1, 93514, Note_off_c, 0, 41, 63
1, 93617, Control_c, 0, 64, 43
1, 93619, Note_on_c, 0, 35, 53
1, 93626, Note_on_c, 0, 47, 41
1, 93629, Note_off_c, 0, 69, 49
1, 93632, Control_c, 0, 64, 42
1, 93661, Control_c, 0, 64, 42
1, 93691, Control_c, 0, 64, 41
1, 93733, Note_on_c, 0, 68, 59
1, 93735, Note_off_c, 0, 47, 37
1, 93739, Note_on_c, 0, 65, 51
1, 93739, Note_off_c, 0, 35, 60
1, 93751, Note_on_c, 0, 62, 36
1, 93751, Control_c, 0, 64, 41
1, 93766, Control_c, 0, 64, 40
1, 93771, Note_off_c, 0, 68, 62
1, 93775, Note_off_c, 0, 65, 65
1, 93781, Note_off_c, 0, 62, 57
1, 93781, Control_c, 0, 64, 40
1, 93796, Control_c, 0, 64, 39
1, 93810, Control_c, 0, 64, 39
1, 93840, Control_c, 0, 64, 38
1, 93855, Note_on_c, 0, 65, 64
1, 93858, Note_on_c, 0, 69, 64
1, 93867, Note_on_c, 0, 62, 53
1, 93885, Control_c, 0, 64, 38
1, 93888, Note_off_c, 0, 65, 65
1, 93892, Note_off_c, 0, 69, 64
1, 93896, Note_off_c, 0, 62, 62
1, 93915, Control_c, 0, 64, 37
1, 93930, Control_c, 0, 64, 37
1, 93958, Note_on_c, 0, 71, 73
1, 93970, Note_on_c, 0, 65, 60
1, 93977, Note_on_c, 0, 62, 52
1, 93992, Note_off_c, 0, 71, 58
1, 94002, Note_off_c, 0, 65, 66
1, 94007, Note_off_c, 0, 62, 61
1, 94098, Note_on_c, 0, 67, 56
1, 94104, Note_on_c, 0, 60, 49
1, 94104, Note_on_c, 0, 63, 47
1, 94206, Note_on_c, 0, 48, 52
1, 94210, Note_on_c, 0, 36, 53
1, 94237, Note_off_c, 0, 48, 63
1, 94240, Note_off_c, 0, 36, 57
1, 94320, Note_on_c, 0, 38, 63
1, 94333, Note_on_c, 0, 50, 45
1, 94352, Note_off_c, 0, 38, 63
1, 94362, Note_off_c, 0, 50, 50
1, 94430, Note_off_c, 0, 63, 42
1, 94433, Note_on_c, 0, 51, 67
1, 94436, Note_on_c, 0, 39, 61
1, 94455, Note_off_c, 0, 51, 63
1, 94470, Note_off_c, 0, 39, 64
1, 94511, Note_off_c, 0, 60, 42
1, 94566, Note_on_c, 0, 33, 65
1, 94572, Note_off_c, 0, 67, 52
1, 94573, Note_on_c, 0, 45, 53
1, 94667, Note_off_c, 0, 33, 50
1, 94675, Note_on_c, 0, 63, 54
1, 94681, Note_on_c, 0, 66, 51
1, 94684, Note_on_c, 0, 60, 47
1, 94700, Note_off_c, 0, 45, 55
1, 94716, Note_off_c, 0, 63, 64
1, 94718, Note_off_c, 0, 60, 63
1, 94722, Note_off_c, 0, 66, 62
1, 94798, Note_on_c, 0, 63, 60
1, 94803, Note_on_c, 0, 67, 56
1, 94812, Note_on_c, 0, 60, 45
1, 94842, Note_off_c, 0, 63, 63
1, 94848, Note_off_c, 0, 67, 61
1, 94848, Note_off_c, 0, 60, 58
1, 94917, Note_on_c, 0, 69, 63
1, 94928, Note_on_c, 0, 63, 57
1, 94937, Note_on_c, 0, 60, 47
1, 94947, Note_off_c, 0, 69, 67
1, 94950, Note_off_c, 0, 63, 62
1, 94961, Note_off_c, 0, 60, 59
1, 95044, Note_on_c, 0, 62, 61
1, 95046, Note_on_c, 0, 58, 58
1, 95130, Control_c, 0, 64, 37
1, 95134, Note_off_c, 0, 58, 0
1, 95143, Note_on_c, 0, 46, 64
1, 95144, Note_on_c, 0, 34, 63
1, 95171, Poly_aftertouch_c, 0, 58, 127
1, 95173, Note_off_c, 0, 46, 65
1, 95176, Note_off_c, 0, 34, 62
1, 95213, Poly_aftertouch_c, 0, 58, 0
1, 95223, Note_off_c, 0, 62, 63
1, 95271, Note_on_c, 0, 36, 76
1, 95274, Note_on_c, 0, 48, 71
1, 95295, Note_off_c, 0, 36, 66
1, 95302, Note_off_c, 0, 48, 66
1, 95384, Note_on_c, 0, 38, 84
1, 95385, Note_on_c, 0, 50, 86
1, 95407, Note_off_c, 0, 50, 68
1, 95411, Note_off_c, 0, 38, 67
1, 95472, Control_c, 0, 64, 37
1, 95510, Note_on_c, 0, 42, 72
1, 95521, Note_on_c, 0, 30, 56
1, 95521, Note_on_c, 0, 32, 52
1, 95533, Note_off_c, 0, 42, 61
1, 95534, Note_on_c, 0, 44, 43
1, 95535, Note_off_c, 0, 44, 127
1, 95554, Note_off_c, 0, 32, 55
1, 95560, Note_off_c, 0, 30, 34
1, 95617, Note_on_c, 0, 70, 83
1, 95624, Note_on_c, 0, 62, 73
1, 95628, Note_on_c, 0, 67, 67
1, 95634, Note_on_c, 0, 43, 80
1, 95635, Note_on_c, 0, 31, 78
1, 95658, Note_off_c, 0, 67, 65
1, 95658, Note_off_c, 0, 43, 66
1, 95661, Note_off_c, 0, 31, 65
1, 95664, Note_off_c, 0, 62, 61
1, 95680, Note_off_c, 0, 70, 61
1, 95732, Note_on_c, 0, 45, 82
1, 95735, Note_on_c, 0, 69, 74
1, 95736, Note_on_c, 0, 33, 79
1, 95740, Note_on_c, 0, 60, 73
1, 95743, Note_on_c, 0, 66, 64
1, 95759, Note_off_c, 0, 45, 67
1, 95760, Note_off_c, 0, 69, 67
1, 95761, Note_off_c, 0, 33, 65
1, 95761, Note_off_c, 0, 66, 64
1, 95767, Note_off_c, 0, 60, 69
1, 95850, Note_on_c, 0, 66, 45
1, 95855, Note_on_c, 0, 62, 69
1, 95855, Note_on_c, 0, 46, 59
1, 95858, Note_on_c, 0, 34, 58
1, 95863, Note_on_c, 0, 67, 65
1, 95871, Note_on_c, 0, 58, 40
1, 95879, Note_off_c, 0, 46, 61
1, 95886, Note_off_c, 0, 62, 65
1, 95889, Note_off_c, 0, 34, 56
1, 95893, Note_off_c, 0, 67, 66
1, 95894, Control_c, 0, 64, 37
1, 95896, Note_off_c, 0, 66, 46
1, 95903, Note_off_c, 0, 58, 34
1, 95964, Note_on_c, 0, 47, 70
1, 95965, Note_on_c, 0, 35, 65
1, 95967, Note_on_c, 0, 62, 60
1, 95968, Note_on_c, 0, 65, 66
1, 95983, Note_on_c, 0, 56, 48
1, 95990, Note_off_c, 0, 47, 65
1, 95994, Note_off_c, 0, 35, 63
1, 95998, Note_off_c, 0, 62, 65
1, 96004, Note_off_c, 0, 65, 62
1, 96011, Note_off_c, 0, 56, 55
1, 96082, Note_on_c, 0, 36, 68
1, 96083, Note_on_c, 0, 64, 63
1, 96086, Note_on_c, 0, 48, 64
1, 96092, Note_on_c, 0, 60, 66
1, 96111, Note_off_c, 0, 36, 64
1, 96115, Note_off_c, 0, 48, 63
1, 96120, Note_off_c, 0, 64, 61
1, 96124, Note_off_c, 0, 60, 65
1, 96132, Control_c, 0, 64, 37
1, 96137, Note_on_c, 0, 55, 3
1, 96138, Note_off_c, 0, 55, 127
1, 96194, Note_on_c, 0, 59, 61
1, 96198, Note_on_c, 0, 50, 69
1, 96201, Note_on_c, 0, 38, 62
1, 96206, Note_on_c, 0, 62, 64
1, 96211, Note_on_c, 0, 53, 49
1, 96225, Note_off_c, 0, 50, 66
1, 96225, Note_off_c, 0, 59, 65
1, 96233, Note_off_c, 0, 38, 63
1, 96238, Note_off_c, 0, 53, 56
1, 96238, Note_off_c, 0, 62, 66
1, 96313, Note_on_c, 0, 60, 68
1, 96315, Note_on_c, 0, 52, 61
1, 96326, Note_on_c, 0, 40, 61
1, 96329, Note_on_c, 0, 55, 48
1, 96350, Note_off_c, 0, 60, 67
1, 96353, Note_off_c, 0, 52, 66
1, 96354, Note_off_c, 0, 40, 59
1, 96357, Note_off_c, 0, 55, 55
1, 96435, Note_on_c, 0, 41, 69
1, 96437, Note_on_c, 0, 62, 71
1, 96437, Note_on_c, 0, 57, 64
1, 96438, Note_on_c, 0, 53, 70
1, 96464, Note_off_c, 0, 41, 66
1, 96468, Note_off_c, 0, 57, 66
1, 96469, Note_off_c, 0, 53, 66
1, 96475, Note_off_c, 0, 62, 60
1, 96547, Note_on_c, 0, 58, 65
1, 96548, Note_on_c, 0, 64, 67
1, 96553, Note_on_c, 0, 55, 68
1, 96555, Note_on_c, 0, 43, 59
1, 96574, Note_off_c, 0, 58, 66
1, 96579, Note_off_c, 0, 64, 66
1, 96586, Note_off_c, 0, 55, 64
1, 96589, Note_off_c, 0, 43, 65
1, 96657, Note_on_c, 0, 60, 71
1, 96657, Control_c, 0, 64, 37
1, 96660, Note_on_c, 0, 65, 70
1, 96670, Note_on_c, 0, 45, 48
1, 96671, Note_on_c, 0, 57, 52
1, 96677, Note_on_c, 0, 64, 51
1, 96693, Note_off_c, 0, 60, 64
1, 96696, Note_off_c, 0, 57, 58
1, 96698, Note_off_c, 0, 65, 61
1, 96701, Note_off_c, 0, 45, 35
1, 96702, Control_c, 0, 64, 38
1, 96702, Note_off_c, 0, 64, 57
1, 96761, Control_c, 0, 64, 38
1, 96769, Note_on_c, 0, 64, 77
1, 96770, Note_on_c, 0, 67, 80
1, 96774, Note_on_c, 0, 58, 67
1, 96788, Note_on_c, 0, 46, 44
1, 96789, Note_off_c, 0, 46, 127
1, 96794, Note_off_c, 0, 58, 66
1, 96794, Note_off_c, 0, 64, 68
1, 96818, Note_off_c, 0, 67, 62
1, 96889, Note_on_c, 0, 65, 91
1, 96890, Note_on_c, 0, 72, 89
1, 96892, Note_on_c, 0, 69, 83
1, 96984, Control_c, 0, 64, 39
1, 97013, Note_on_c, 0, 48, 76
1, 97015, Note_on_c, 0, 60, 76
1, 97028, Control_c, 0, 64, 39
1, 97036, Note_off_c, 0, 48, 66
1, 97039, Note_off_c, 0, 60, 69
1, 97126, Note_on_c, 0, 50, 84
1, 97128, Note_on_c, 0, 62, 81
1, 97151, Note_off_c, 0, 62, 72
1, 97152, Note_off_c, 0, 50, 69
1, 97170, Control_c, 0, 64, 40
1, 97176, Note_off_c, 0, 69, 53
1, 97214, Control_c, 0, 64, 40
1, 97228, Control_c, 0, 64, 41
1, 97243, Note_on_c, 0, 63, 86
1, 97243, Control_c, 0, 64, 41
1, 97245, Note_on_c, 0, 51, 89
1, 97263, Note_off_c, 0, 63, 74
1, 97268, Note_off_c, 0, 51, 71
1, 97273, Control_c, 0, 64, 42
1, 97288, Control_c, 0, 64, 42
1, 97294, Note_off_c, 0, 65, 52
1, 97325, Note_off_c, 0, 72, 51
1, 97366, Note_on_c, 0, 41, 88
1, 97373, Note_on_c, 0, 53, 77
1, 97391, Note_on_c, 0, 55, 43
1, 97392, Note_off_c, 0, 55, 127
1, 97480, Control_c, 0, 64, 42
1, 97482, Note_on_c, 0, 65, 62
1, 97485, Note_on_c, 0, 62, 65
1, 97487, Note_on_c, 0, 71, 68
1, 97514, Note_off_c, 0, 62, 64
1, 97516, Note_off_c, 0, 65, 64
1, 97525, Note_off_c, 0, 71, 63
1, 97553, Note_off_c, 0, 41, 58
1, 97556, Note_off_c, 0, 53, 58
1, 97602, Note_on_c, 0, 67, 61
1, 97605, Note_on_c, 0, 64, 56
1, 97623, Note_on_c, 0, 71, 35
1, 97632, Note_off_c, 0, 67, 67
1, 97638, Note_off_c, 0, 64, 65
1, 97643, Control_c, 0, 64, 41
1, 97651, Note_off_c, 0, 71, 50
1, 97726, Note_on_c, 0, 65, 56
1, 97742, Note_on_c, 0, 68, 37
1, 97763, Note_off_c, 0, 65, 65
1, 97772, Note_off_c, 0, 68, 53
1, 97854, Note_on_c, 0, 67, 50
1, 97855, Note_on_c, 0, 64, 54
1, 97870, Note_on_c, 0, 71, 26
1, 97873, Control_c, 0, 64, 41
1, 97877, Note_off_c, 0, 67, 59
1, 97891, Note_off_c, 0, 64, 65
1, 97894, Note_off_c, 0, 71, 49
1, 97982, Note_on_c, 0, 68, 43
1, 97984, Note_on_c, 0, 65, 41
1, 98009, Note_off_c, 0, 68, 55
1, 98012, Note_off_c, 0, 65, 57
1, 98074, Note_on_c, 0, 43, 45
1, 98074, Note_on_c, 0, 55, 42
1, 98090, Note_on_c, 0, 67, 55
1, 98100, Note_on_c, 0, 64, 46
1, 98105, Note_off_c, 0, 43, 56
1, 98105, Note_off_c, 0, 55, 53
1, 98110, Note_on_c, 0, 71, 36
1, 98117, Note_off_c, 0, 67, 63
1, 98125, Note_off_c, 0, 64, 59
1, 98139, Note_off_c, 0, 71, 47
1, 98212, Note_on_c, 0, 65, 36
1, 98240, Note_off_c, 0, 65, 53
1, 98307, Note_on_c, 0, 36, 39
1, 98329, Note_on_c, 0, 67, 44
1, 98332, Note_on_c, 0, 65, 38
1, 98336, Note_on_c, 0, 48, 19
1, 98357, Note_off_c, 0, 67, 57
1, 98362, Note_off_c, 0, 65, 53
1, 98425, Note_on_c, 0, 62, 52
1, 98452, Note_off_c, 0, 36, 53
1, 98459, Note_off_c, 0, 62, 64
1, 98464, Control_c, 0, 64, 41
1, 98490, Note_off_c, 0, 48, 43
1, 98539, Control_c, 0, 64, 42
1, 98551, Note_on_c, 0, 72, 57
1, 98552, Note_on_c, 0, 67, 45
1, 98553, Note_on_c, 0, 64, 48
1, 98586, Note_off_c, 0, 64, 63
1, 98594, Note_off_c, 0, 67, 64
1, 98595, Note_off_c, 0, 72, 58
1, 98667, Note_on_c, 0, 60, 50
1, 98693, Note_off_c, 0, 60, 62
1, 98794, Note_on_c, 0, 74, 78
1, 98799, Note_on_c, 0, 71, 72
1, 98800, Note_on_c, 0, 67, 60
1, 98902, Note_on_c, 0, 50, 69
1, 98906, Note_on_c, 0, 62, 66
1, 98932, Note_off_c, 0, 50, 65
1, 98937, Note_off_c, 0, 62, 65
1, 98947, Control_c, 0, 64, 42
1, 98977, Control_c, 0, 64, 43
1, 99006, Note_off_c, 0, 74, 62
1, 99007, Control_c, 0, 64, 43
1, 99016, Note_off_c, 0, 67, 60
1, 99027, Note_on_c, 0, 52, 79
1, 99030, Note_on_c, 0, 64, 74
1, 99030, Note_off_c, 0, 71, 62
1, 99036, Control_c, 0, 64, 44
1, 99052, Note_off_c, 0, 52, 70
1, 99054, Note_off_c, 0, 64, 69
1, 99066, Control_c, 0, 64, 44
1, 99095, Control_c, 0, 64, 45
1, 99110, Control_c, 0, 64, 45
1, 99125, Control_c, 0, 64, 46
1, 99134, Note_on_c, 0, 53, 89
1, 99137, Note_on_c, 0, 65, 83
1, 99140, Control_c, 0, 64, 46
1, 99156, Note_off_c, 0, 65, 71
1, 99161, Note_off_c, 0, 53, 69
1, 99258, Note_on_c, 0, 55, 95
1, 99259, Note_on_c, 0, 43, 91
1, 99326, Control_c, 0, 64, 46
1, 99371, Note_on_c, 0, 73, 71
1, 99375, Note_on_c, 0, 67, 65
1, 99385, Note_on_c, 0, 64, 59
1, 99385, Control_c, 0, 64, 45
1, 99410, Note_off_c, 0, 67, 65
1, 99414, Note_off_c, 0, 64, 64
1, 99428, Note_off_c, 0, 73, 63
1, 99445, Control_c, 0, 64, 45
1, 99469, Note_off_c, 0, 43, 61
1, 99477, Note_off_c, 0, 55, 56
1, 99489, Control_c, 0, 64, 44
1, 99499, Note_on_c, 0, 65, 63
1, 99503, Note_on_c, 0, 69, 63
1, 99506, Note_on_c, 0, 73, 47
1, 99531, Note_off_c, 0, 69, 66
1, 99532, Note_off_c, 0, 65, 65
1, 99536, Note_off_c, 0, 73, 62
1, 99549, Control_c, 0, 64, 44
1, 99617, Note_on_c, 0, 67, 61
1, 99625, Note_on_c, 0, 70, 58
1, 99625, Note_on_c, 0, 73, 49
1, 99648, Note_off_c, 0, 67, 64
1, 99648, Note_off_c, 0, 73, 59
1, 99659, Note_off_c, 0, 70, 65
1, 99729, Note_on_c, 0, 69, 66
1, 99745, Note_on_c, 0, 73, 42
1, 99759, Note_on_c, 0, 65, 30
1, 99760, Note_off_c, 0, 69, 65
1, 99770, Note_off_c, 0, 73, 58
1, 99792, Note_off_c, 0, 65, 46
1, 99842, Note_on_c, 0, 73, 66
1, 99851, Note_on_c, 0, 67, 65
1, 99872, Note_on_c, 0, 70, 54
1, 99878, Note_off_c, 0, 73, 61
1, 99882, Note_off_c, 0, 67, 64
1, 99894, Note_off_c, 0, 70, 64
1, 99955, Note_on_c, 0, 45, 56
1, 99961, Note_on_c, 0, 57, 56
1, 99963, Note_on_c, 0, 69, 64
1, 99973, Note_on_c, 0, 73, 60
1, 99985, Note_off_c, 0, 57, 63
1, 99987, Note_off_c, 0, 45, 64
1, 99993, Note_off_c, 0, 69, 66
1, 99995, Note_on_c, 0, 65, 21
1, 100005, Note_off_c, 0, 73, 66
1, 100036, Note_off_c, 0, 65, 30
1, 100085, Note_on_c, 0, 64, 47
1, 100088, Note_on_c, 0, 67, 41
1, 100108, Note_off_c, 0, 64, 59
1, 100113, Note_off_c, 0, 67, 55
1, 100190, Note_on_c, 0, 58, 46
1, 100198, Note_on_c, 0, 67, 45
1, 100204, Note_on_c, 0, 46, 39
1, 100208, Note_on_c, 0, 70, 53
1, 100216, Note_on_c, 0, 73, 31
1, 100236, Note_off_c, 0, 67, 65
1, 100254, Note_off_c, 0, 73, 51
1, 100268, Note_off_c, 0, 70, 53
1, 100321, Note_on_c, 0, 64, 58
1, 100353, Note_off_c, 0, 64, 65
1, 100395, Note_off_c, 0, 58, 37
1, 100413, Note_off_c, 0, 46, 40
1, 100436, Note_on_c, 0, 65, 58
1, 100440, Note_on_c, 0, 70, 51
1, 100440, Note_on_c, 0, 74, 54
1, 100464, Note_off_c, 0, 74, 57
1, 100467, Note_off_c, 0, 65, 64
1, 100476, Note_off_c, 0, 70, 66
1, 100541, Note_on_c, 0, 62, 61
1, 100574, Note_off_c, 0, 62, 65
1, 100673, Note_on_c, 0, 77, 71
1, 100686, Note_on_c, 0, 70, 53
1, 100686, Note_on_c, 0, 74, 56
1, 100789, Note_on_c, 0, 46, 57
1, 100790, Note_on_c, 0, 58, 56
1, 100831, Note_off_c, 0, 58, 64
1, 100836, Note_off_c, 0, 46, 64
1, 100859, Note_off_c, 0, 74, 50
1, 100928, Note_on_c, 0, 48, 54
1, 100931, Note_on_c, 0, 60, 55
1, 100953, Note_off_c, 0, 48, 61
1, 100953, Note_off_c, 0, 60, 60
1, 100972, Control_c, 0, 64, 44
1, 101000, Note_off_c, 0, 70, 39
1, 101026, Note_on_c, 0, 50, 68
1, 101031, Note_on_c, 0, 62, 52
1, 101055, Note_off_c, 0, 62, 59
1, 101057, Note_off_c, 0, 50, 65
1, 101167, Note_on_c, 0, 43, 55
1, 101174, Note_on_c, 0, 55, 49
1, 101184, Note_off_c, 0, 77, 53
1, 101272, Note_on_c, 0, 75, 52
1, 101274, Note_on_c, 0, 67, 42
1, 101275, Note_on_c, 0, 70, 31
1, 101287, Note_off_c, 0, 43, 62
1, 101301, Note_off_c, 0, 55, 61
1, 101328, Note_off_c, 0, 70, 62
1, 101331, Note_off_c, 0, 67, 59
1, 101338, Note_off_c, 0, 75, 61
1, 101357, Control_c, 0, 64, 45
1, 101402, Note_on_c, 0, 45, 55
1, 101402, Control_c, 0, 64, 45
1, 101403, Note_on_c, 0, 57, 56
1, 101407, Note_on_c, 0, 74, 69
1, 101421, Note_on_c, 0, 65, 54
1, 101443, Note_off_c, 0, 74, 60
1, 101452, Note_off_c, 0, 65, 63
1, 101490, Control_c, 0, 64, 46
1, 101510, Note_on_c, 0, 72, 79
1, 101538, Note_off_c, 0, 45, 61
1, 101541, Note_on_c, 0, 65, 38
1, 101541, Note_off_c, 0, 57, 62
1, 101549, Control_c, 0, 64, 46
1, 101570, Note_off_c, 0, 72, 64
1, 101580, Note_off_c, 0, 65, 50
1, 101639, Note_on_c, 0, 77, 87
1, 101642, Note_on_c, 0, 74, 80
1, 101646, Note_on_c, 0, 70, 73
1, 101646, Control_c, 0, 64, 47
1, 101649, Note_on_c, 0, 65, 71
1, 101690, Control_c, 0, 64, 47
1, 101721, Control_c, 0, 64, 48
1, 101758, Note_on_c, 0, 46, 70
1, 101760, Note_on_c, 0, 58, 72
1, 101780, Control_c, 0, 64, 48
1, 101788, Note_off_c, 0, 58, 66
1, 101791, Note_off_c, 0, 46, 64
1, 101868, Note_off_c, 0, 74, 59
1, 101869, Control_c, 0, 64, 49
1, 101874, Note_on_c, 0, 60, 80
1, 101874, Note_on_c, 0, 48, 79
1, 101892, Note_off_c, 0, 65, 57
1, 101896, Note_off_c, 0, 70, 60
1, 101898, Note_off_c, 0, 60, 69
1, 101901, Note_off_c, 0, 48, 65
1, 101975, Note_on_c, 0, 62, 86
1, 101978, Note_on_c, 0, 50, 86
1, 101998, Note_off_c, 0, 62, 72
1, 102005, Note_off_c, 0, 50, 68
1, 102101, Note_on_c, 0, 55, 90
1, 102104, Note_on_c, 0, 43, 86
1, 102166, Note_off_c, 0, 77, 57
1, 102210, Note_off_c, 0, 43, 62
1, 102214, Note_on_c, 0, 70, 65
1, 102216, Note_on_c, 0, 75, 75
1, 102219, Note_on_c, 0, 67, 72
1, 102219, Note_off_c, 0, 55, 59
1, 102263, Note_off_c, 0, 67, 58
1, 102267, Note_off_c, 0, 70, 63
1, 102273, Note_off_c, 0, 75, 62
1, 102345, Note_on_c, 0, 57, 90
1, 102349, Note_on_c, 0, 74, 85
1, 102351, Note_on_c, 0, 45, 79
1, 102357, Note_on_c, 0, 65, 76
1, 102391, Note_off_c, 0, 65, 64
1, 102398, Note_off_c, 0, 74, 64
1, 102453, Control_c, 0, 64, 49
1, 102462, Note_on_c, 0, 72, 89
1, 102478, Note_on_c, 0, 51, 32
1, 102497, Note_off_c, 0, 45, 59
1, 102497, Note_off_c, 0, 57, 60
1, 102497, Control_c, 0, 64, 50
1, 102498, Note_on_c, 0, 65, 39
1, 102523, Note_off_c, 0, 72, 63
1, 102528, Note_off_c, 0, 51, 57
1, 102528, Control_c, 0, 64, 50
1, 102529, Note_off_c, 0, 65, 50
1, 102586, Note_on_c, 0, 77, 90
1, 102592, Note_on_c, 0, 65, 82
1, 102592, Note_on_c, 0, 70, 82
1, 102592, Note_on_c, 0, 74, 84
1, 102602, Control_c, 0, 64, 51
1, 102704, Note_on_c, 0, 58, 80
1, 102706, Note_on_c, 0, 46, 77
1, 102707, Control_c, 0, 64, 51
1, 102735, Note_off_c, 0, 58, 66
1, 102740, Note_off_c, 0, 46, 65
1, 102787, Note_off_c, 0, 74, 60
1, 102828, Note_on_c, 0, 48, 83
1, 102828, Note_on_c, 0, 60, 86
1, 102838, Note_off_c, 0, 70, 58
1, 102851, Note_off_c, 0, 65, 54
1, 102856, Note_off_c, 0, 48, 66
1, 102856, Note_off_c, 0, 60, 65
1, 102938, Note_on_c, 0, 50, 88
1, 102939, Note_on_c, 0, 62, 85
1, 102962, Note_off_c, 0, 62, 71
1, 102971, Note_off_c, 0, 50, 67
1, 103078, Note_on_c, 0, 55, 93
1, 103081, Note_on_c, 0, 43, 88
1, 103139, Note_off_c, 0, 77, 58
1, 103189, Note_on_c, 0, 75, 73
1, 103196, Note_on_c, 0, 67, 63
1, 103199, Note_on_c, 0, 70, 64
1, 103230, Note_off_c, 0, 70, 65
1, 103236, Note_off_c, 0, 67, 60
1, 103252, Note_off_c, 0, 75, 62
1, 103308, Note_on_c, 0, 77, 89
1, 103315, Note_on_c, 0, 70, 76
1, 103324, Note_on_c, 0, 67, 60
1, 103347, Note_off_c, 0, 70, 62
1, 103355, Note_off_c, 0, 77, 63
1, 103358, Note_off_c, 0, 67, 64
1, 103373, Note_off_c, 0, 55, 45
1, 103422, Note_on_c, 0, 79, 93
1, 103423, Note_off_c, 0, 43, 52
1, 103433, Note_on_c, 0, 70, 78
1, 103439, Note_on_c, 0, 67, 59
1, 103458, Note_off_c, 0, 70, 64
1, 103460, Note_off_c, 0, 67, 62
1, 103468, Note_off_c, 0, 79, 65
1, 103555, Note_on_c, 0, 74, 80
1, 103557, Note_on_c, 0, 69, 86
1, 103558, Note_on_c, 0, 65, 79
1, 103583, Note_on_c, 0, 72, 52
1, 103584, Note_off_c, 0, 72, 127
1, 103595, Note_off_c, 0, 69, 61
1, 103618, Note_off_c, 0, 65, 61
1, 103622, Note_off_c, 0, 74, 64
1, 103668, Note_on_c, 0, 53, 83
1, 103670, Note_on_c, 0, 41, 80
1, 103698, Note_off_c, 0, 53, 65
1, 103701, Note_off_c, 0, 41, 65
1, 103782, Note_on_c, 0, 73, 92
1, 103783, Note_on_c, 0, 67, 80
1, 103787, Note_on_c, 0, 64, 78
1, 103787, Note_on_c, 0, 69, 72
1, 103797, Note_on_c, 0, 55, 85
1, 103799, Note_on_c, 0, 43, 82
1, 103822, Note_off_c, 0, 64, 63
1, 103830, Note_off_c, 0, 69, 63
1, 103831, Note_off_c, 0, 55, 67
1, 103831, Note_off_c, 0, 67, 61
1, 103835, Note_off_c, 0, 43, 65
1, 103859, Note_off_c, 0, 73, 64
1, 103911, Note_on_c, 0, 57, 81
1, 103913, Note_on_c, 0, 45, 84
1, 103935, Note_off_c, 0, 57, 70
1, 103937, Control_c, 0, 64, 51
1, 103939, Note_off_c, 0, 45, 68
1, 104010, Note_on_c, 0, 69, 70
1, 104011, Note_on_c, 0, 74, 89
1, 104012, Note_on_c, 0, 65, 80
1, 104033, Note_on_c, 0, 38, 77
1, 104033, Note_on_c, 0, 50, 73
1, 104058, Note_off_c, 0, 38, 65
1, 104063, Note_off_c, 0, 50, 66
1, 104158, Note_on_c, 0, 29, 76
1, 104169, Note_on_c, 0, 41, 54
1, 104184, Note_off_c, 0, 29, 63
1, 104191, Note_on_c, 0, 43, 7
1, 104201, Note_off_c, 0, 41, 54
1, 104234, Note_off_c, 0, 69, 64
1, 104234, Note_off_c, 0, 74, 60
1, 104241, Note_off_c, 0, 43, 29
1, 104254, Note_off_c, 0, 65, 59
1, 104264, Note_on_c, 0, 43, 74
1, 104270, Note_on_c, 0, 31, 79
1, 104293, Note_off_c, 0, 31, 65
1, 104297, Note_off_c, 0, 43, 66
1, 104372, Note_on_c, 0, 45, 83
1, 104378, Note_on_c, 0, 33, 79
1, 104383, Control_c, 0, 64, 51
1, 104397, Note_off_c, 0, 45, 66
1, 104411, Note_off_c, 0, 33, 66
1, 104428, Control_c, 0, 64, 47
1, 104442, Control_c, 0, 64, 0
1, 104490, Note_on_c, 0, 69, 100
1, 104494, Note_on_c, 0, 38, 90
1, 104494, Note_on_c, 0, 26, 91
1, 104516, Control_c, 0, 64, 58
1, 104518, Note_off_c, 0, 38, 69
1, 104521, Note_off_c, 0, 26, 68
1, 104531, Control_c, 0, 64, 70
1, 104546, Control_c, 0, 64, 91
1, 104551, Note_off_c, 0, 69, 61
1, 104568, Control_c, 0, 64, 127
1, 104611, Note_on_c, 0, 65, 85
1, 104654, Note_off_c, 0, 65, 61
1, 104701, Control_c, 0, 64, 107
1, 104716, Control_c, 0, 64, 85
1, 104721, Note_on_c, 0, 64, 72
1, 104731, Control_c, 0, 64, 72
1, 104741, Note_on_c, 0, 65, 50
1, 104746, Control_c, 0, 64, 64
1, 104757, Note_off_c, 0, 64, 62
1, 104760, Control_c, 0, 64, 56
1, 104770, Note_off_c, 0, 65, 51
1, 104775, Control_c, 0, 64, 51
1, 104790, Control_c, 0, 64, 49
1, 104805, Control_c, 0, 64, 45
1, 104819, Control_c, 0, 64, 41
1, 104834, Control_c, 0, 64, 38
1, 104843, Note_on_c, 0, 62, 54
1, 104849, Control_c, 0, 64, 37
1, 104864, Control_c, 0, 64, 36
1, 104879, Control_c, 0, 64, 35
1, 104884, Note_off_c, 0, 62, 61
1, 104893, Control_c, 0, 64, 35
1, 104924, Control_c, 0, 64, 34
1, 104953, Note_on_c, 0, 68, 64
1, 104959, Note_on_c, 0, 59, 68
1, 104986, Note_off_c, 0, 59, 66
1, 104994, Note_off_c, 0, 68, 60
1, 105013, Control_c, 0, 64, 34
1, 105043, Control_c, 0, 64, 33
1, 105062, Note_on_c, 0, 56, 69
1, 105067, Note_on_c, 0, 69, 61
1, 105093, Note_off_c, 0, 56, 65
1, 105099, Note_off_c, 0, 69, 66
1, 105165, Note_on_c, 0, 56, 61
1, 105166, Note_on_c, 0, 71, 77
1, 105171, Note_on_c, 0, 54, 55
1, 105200, Note_off_c, 0, 56, 63
1, 105200, Note_off_c, 0, 71, 61
1, 105204, Note_off_c, 0, 54, 65
1, 105273, Note_on_c, 0, 64, 68
1, 105275, Note_on_c, 0, 52, 57
1, 105299, Note_off_c, 0, 52, 64
1, 105313, Note_off_c, 0, 64, 62
1, 105396, Note_on_c, 0, 74, 68
1, 105400, Note_on_c, 0, 58, 63
1, 105430, Note_off_c, 0, 74, 62
1, 105432, Note_off_c, 0, 58, 64
1, 105504, Note_on_c, 0, 70, 68
1, 105523, Note_on_c, 0, 60, 52
1, 105530, Note_off_c, 0, 70, 67
1, 105547, Note_off_c, 0, 60, 59
1, 105607, Note_on_c, 0, 70, 69
1, 105610, Note_on_c, 0, 69, 63
1, 105622, Note_on_c, 0, 62, 67
1, 105638, Note_off_c, 0, 70, 63
1, 105640, Note_off_c, 0, 69, 66
1, 105650, Note_off_c, 0, 62, 66
1, 105711, Note_on_c, 0, 67, 67
1, 105713, Note_on_c, 0, 55, 62
1, 105741, Note_off_c, 0, 67, 65
1, 105743, Note_off_c, 0, 55, 66
1, 105818, Note_on_c, 0, 73, 81
1, 105831, Note_on_c, 0, 64, 69
1, 105860, Note_off_c, 0, 64, 67
1, 105867, Note_off_c, 0, 73, 62
1, 105924, Note_on_c, 0, 74, 84
1, 105946, Note_on_c, 0, 61, 64
1, 105966, Note_off_c, 0, 74, 61
1, 105978, Note_off_c, 0, 61, 65
1, 106027, Note_on_c, 0, 76, 91
1, 106031, Note_on_c, 0, 61, 71
1, 106049, Note_on_c, 0, 59, 42
1, 106068, Note_off_c, 0, 61, 65
1, 106076, Note_off_c, 0, 76, 66
1, 106083, Note_off_c, 0, 59, 56
1, 106133, Note_on_c, 0, 69, 90
1, 106139, Note_on_c, 0, 57, 80
1, 106170, Note_off_c, 0, 57, 68
1, 106174, Note_off_c, 0, 69, 66
1, 106256, Note_on_c, 0, 65, 77
1, 106256, Note_on_c, 0, 81, 91
1, 106285, Note_off_c, 0, 65, 64
1, 106301, Note_off_c, 0, 81, 67
1, 106355, Note_on_c, 0, 74, 77
1, 106366, Note_on_c, 0, 67, 68
1, 106390, Note_off_c, 0, 74, 64
1, 106398, Note_off_c, 0, 67, 66
1, 106477, Note_on_c, 0, 73, 69
1, 106479, Note_on_c, 0, 69, 60
1, 106512, Note_off_c, 0, 73, 64
1, 106517, Note_off_c, 0, 69, 60
1, 106526, Control_c, 0, 64, 33
1, 106555, Control_c, 0, 64, 32
1, 106579, Note_on_c, 0, 79, 69
1, 106593, Note_on_c, 0, 61, 46
1, 106600, Control_c, 0, 64, 32
1, 106610, Note_off_c, 0, 79, 63
1, 106628, Note_off_c, 0, 61, 61
1, 106689, Control_c, 0, 64, 31
1, 106691, Note_on_c, 0, 64, 53
1, 106692, Note_on_c, 0, 73, 66
1, 106722, Note_off_c, 0, 64, 64
1, 106737, Note_off_c, 0, 73, 58
1, 106797, Note_on_c, 0, 79, 70
1, 106799, Note_on_c, 0, 57, 58
1, 106815, Control_c, 0, 64, 31
1, 106836, Note_off_c, 0, 79, 64
1, 106843, Note_off_c, 0, 57, 64
1, 106844, Control_c, 0, 64, 30
1, 106888, Control_c, 0, 64, 30
1, 106912, Note_on_c, 0, 78, 71
1, 106923, Note_on_c, 0, 62, 51
1, 106957, Note_off_c, 0, 78, 58
1, 106959, Note_off_c, 0, 62, 65
1, 107007, Control_c, 0, 64, 29
1, 107018, Note_on_c, 0, 74, 65
1, 107037, Note_on_c, 0, 60, 40
1, 107037, Control_c, 0, 64, 29
1, 107046, Note_off_c, 0, 74, 66
1, 107052, Control_c, 0, 64, 28
1, 107066, Control_c, 0, 64, 27
1, 107079, Note_off_c, 0, 60, 65
1, 107081, Control_c, 0, 64, 27
1, 107111, Control_c, 0, 64, 26
1, 107134, Note_on_c, 0, 77, 62
1, 107135, Note_on_c, 0, 59, 50
1, 107141, Control_c, 0, 64, 26
1, 107162, Note_off_c, 0, 77, 64
1, 107165, Note_off_c, 0, 59, 64
1, 107170, Control_c, 0, 64, 25
1, 107200, Control_c, 0, 64, 25
1, 107245, Note_on_c, 0, 69, 53
1, 107260, Note_on_c, 0, 62, 38
1, 107272, Note_off_c, 0, 69, 64
1, 107288, Note_off_c, 0, 62, 58
1, 107362, Note_on_c, 0, 68, 56
1, 107371, Note_on_c, 0, 64, 32
1, 107397, Note_off_c, 0, 68, 64
1, 107399, Note_off_c, 0, 64, 51
1, 107465, Note_on_c, 0, 76, 60
1, 107471, Note_on_c, 0, 62, 50
1, 107502, Note_off_c, 0, 76, 65
1, 107513, Note_off_c, 0, 62, 61
1, 107585, Note_on_c, 0, 61, 44
1, 107586, Note_on_c, 0, 67, 59
1, 107621, Note_off_c, 0, 61, 61
1, 107622, Note_off_c, 0, 67, 62
1, 107695, Note_on_c, 0, 58, 32
1, 107695, Note_on_c, 0, 74, 54
1, 107722, Note_off_c, 0, 74, 60
1, 107743, Note_off_c, 0, 58, 49
1, 107799, Note_on_c, 0, 57, 51
1, 107801, Note_on_c, 0, 73, 65
1, 107823, Note_off_c, 0, 57, 60
1, 107830, Note_off_c, 0, 73, 65
1, 107914, Note_on_c, 0, 69, 58
1, 107947, Note_off_c, 0, 69, 65
1, 108032, Note_on_c, 0, 57, 62
1, 108064, Note_off_c, 0, 57, 65
1, 108145, Note_on_c, 0, 53, 49
1, 108172, Note_off_c, 0, 53, 60
1, 108241, Note_on_c, 0, 52, 41
1, 108244, Note_on_c, 0, 53, 57
1, 108268, Note_off_c, 0, 53, 60
1, 108270, Note_off_c, 0, 52, 55
1, 108346, Note_on_c, 0, 50, 62
1, 108389, Note_off_c, 0, 50, 62
1, 108462, Note_on_c, 0, 56, 62
1, 108477, Note_on_c, 0, 77, 52
1, 108499, Note_off_c, 0, 56, 64
1, 108501, Note_off_c, 0, 77, 57
1, 108573, Note_on_c, 0, 59, 63
1, 108579, Note_on_c, 0, 74, 62
1, 108605, Note_off_c, 0, 59, 65
1, 108610, Note_off_c, 0, 74, 66
1, 108678, Note_on_c, 0, 72, 62
1, 108680, Note_on_c, 0, 62, 63
1, 108685, Note_on_c, 0, 74, 57
1, 108704, Note_off_c, 0, 74, 62
1, 108714, Note_off_c, 0, 62, 65
1, 108714, Note_off_c, 0, 72, 62
1, 108777, Note_on_c, 0, 65, 69
1, 108785, Note_on_c, 0, 71, 63
1, 108804, Note_off_c, 0, 65, 66
1, 108820, Note_off_c, 0, 71, 60
1, 108888, Note_on_c, 0, 67, 64
1, 108888, Note_on_c, 0, 75, 66
1, 108924, Note_off_c, 0, 67, 62
1, 108924, Note_off_c, 0, 75, 60
1, 108992, Note_on_c, 0, 77, 74
1, 108997, Note_on_c, 0, 63, 61
1, 109021, Note_on_c, 0, 62, 41
1, 109024, Note_off_c, 0, 77, 63
1, 109033, Note_off_c, 0, 63, 62
1, 109057, Note_off_c, 0, 62, 50
1, 109104, Note_on_c, 0, 79, 80
1, 109114, Note_on_c, 0, 63, 55
1, 109117, Note_on_c, 0, 62, 58
1, 109137, Note_off_c, 0, 79, 65
1, 109147, Note_off_c, 0, 62, 64
1, 109148, Note_off_c, 0, 63, 65
1, 109204, Note_on_c, 0, 72, 77
1, 109210, Note_on_c, 0, 60, 72
1, 109243, Note_off_c, 0, 60, 65
1, 109251, Note_off_c, 0, 72, 62
1, 109308, Note_on_c, 0, 84, 85
1, 109312, Note_on_c, 0, 66, 70
1, 109328, Control_c, 0, 64, 25
1, 109348, Note_off_c, 0, 66, 61
1, 109357, Note_off_c, 0, 84, 64
1, 109412, Note_on_c, 0, 81, 89
1, 109415, Note_on_c, 0, 69, 83
1, 109445, Note_off_c, 0, 69, 66
1, 109452, Note_off_c, 0, 81, 65
1, 109504, Control_c, 0, 64, 26
1, 109516, Note_on_c, 0, 72, 76
1, 109517, Note_on_c, 0, 79, 91
1, 109518, Note_on_c, 0, 81, 82
1, 109553, Note_off_c, 0, 81, 65
1, 109560, Note_off_c, 0, 79, 67
1, 109563, Control_c, 0, 64, 26
1, 109573, Note_off_c, 0, 72, 63
1, 109578, Control_c, 0, 64, 27
1, 109593, Control_c, 0, 64, 28
1, 109608, Control_c, 0, 64, 28
1, 109623, Control_c, 0, 64, 29
1, 109624, Note_on_c, 0, 75, 88
1, 109624, Note_on_c, 0, 78, 98
1, 109637, Control_c, 0, 64, 30
1, 109647, Note_off_c, 0, 75, 67
1, 109672, Note_off_c, 0, 78, 64
1, 109730, Note_on_c, 0, 82, 100
1, 109784, Note_off_c, 0, 82, 66
1, 109843, Note_on_c, 0, 86, 96
1, 109857, Note_on_c, 0, 74, 72
1, 109888, Note_off_c, 0, 74, 64
1, 109897, Note_off_c, 0, 86, 64
1, 109950, Note_on_c, 0, 73, 69
1, 109960, Note_on_c, 0, 78, 82
1, 109984, Note_off_c, 0, 73, 64
1, 110006, Note_off_c, 0, 78, 60
1, 110054, Note_on_c, 0, 81, 73
1, 110059, Note_on_c, 0, 72, 63
1, 110089, Note_off_c, 0, 81, 64
1, 110096, Note_off_c, 0, 72, 65
1, 110170, Note_on_c, 0, 71, 55
1, 110170, Note_on_c, 0, 79, 69
1, 110211, Note_off_c, 0, 79, 60
1, 110214, Note_off_c, 0, 71, 63
1, 110268, Note_on_c, 0, 82, 68
1, 110274, Note_on_c, 0, 70, 54
1, 110299, Note_off_c, 0, 82, 61
1, 110304, Note_off_c, 0, 70, 65
1, 110374, Note_on_c, 0, 69, 53
1, 110375, Note_on_c, 0, 76, 69
1, 110408, Note_off_c, 0, 76, 64
1, 110417, Note_off_c, 0, 69, 60
1, 110477, Note_on_c, 0, 68, 56
1, 110478, Note_on_c, 0, 77, 67
1, 110513, Note_off_c, 0, 77, 63
1, 110518, Note_off_c, 0, 68, 64
1, 110596, Note_on_c, 0, 76, 60
1, 110602, Note_on_c, 0, 67, 45
1, 110631, Note_off_c, 0, 76, 65
1, 110645, Note_off_c, 0, 67, 63
1, 110697, Note_on_c, 0, 66, 50
1, 110709, Note_on_c, 0, 79, 62
1, 110736, Note_off_c, 0, 66, 64
1, 110739, Note_off_c, 0, 79, 67
1, 110825, Note_on_c, 0, 71, 58
1, 110837, Note_on_c, 0, 65, 25
1, 110860, Note_off_c, 0, 71, 64
1, 110876, Note_off_c, 0, 65, 53
1, 110923, Note_on_c, 0, 72, 65
1, 110933, Note_on_c, 0, 64, 44
1, 110954, Note_off_c, 0, 72, 66
1, 110971, Note_off_c, 0, 64, 65
1, 111029, Note_on_c, 0, 63, 43
1, 111034, Note_on_c, 0, 71, 71
1, 111055, Note_off_c, 0, 63, 58
1, 111076, Note_off_c, 0, 71, 57
1, 111133, Note_on_c, 0, 77, 66
1, 111140, Note_on_c, 0, 62, 55
1, 111168, Note_off_c, 0, 77, 60
1, 111180, Note_off_c, 0, 62, 65
1, 111251, Note_on_c, 0, 61, 50
1, 111252, Note_on_c, 0, 71, 54
1, 111284, Note_off_c, 0, 71, 65
1, 111286, Note_off_c, 0, 61, 65
1, 111353, Note_on_c, 0, 72, 59
1, 111359, Note_on_c, 0, 60, 51
1, 111374, Note_off_c, 0, 72, 65
1, 111384, Note_off_c, 0, 60, 61
1, 111467, Note_on_c, 0, 70, 66
1, 111496, Note_off_c, 0, 70, 68
1, 111574, Note_on_c, 0, 67, 59
1, 111606, Note_off_c, 0, 67, 65
1, 111670, Note_on_c, 0, 58, 47
1, 111670, Note_on_c, 0, 65, 58
1, 111677, Note_on_c, 0, 67, 56
1, 111702, Note_off_c, 0, 58, 63
1, 111707, Note_off_c, 0, 65, 63
1, 111707, Note_off_c, 0, 67, 64
1, 111747, Note_on_c, 0, 55, 56
1, 111780, Note_on_c, 0, 64, 56
1, 111794, Note_off_c, 0, 55, 63
1, 111815, Note_off_c, 0, 64, 65
1, 111877, Note_on_c, 0, 53, 47
1, 111878, Note_on_c, 0, 72, 69
1, 111907, Note_off_c, 0, 72, 65
1, 111919, Note_off_c, 0, 53, 63
1, 111958, Note_on_c, 0, 52, 51
1, 111984, Note_on_c, 0, 69, 64
1, 111984, Note_off_c, 0, 52, 58
1, 112013, Note_off_c, 0, 69, 66
1, 112081, Note_on_c, 0, 69, 68
1, 112092, Note_on_c, 0, 67, 59
1, 112103, Note_on_c, 0, 60, 53
1, 112115, Note_off_c, 0, 69, 63
1, 112129, Note_off_c, 0, 67, 62
1, 112133, Note_off_c, 0, 60, 65
1, 112190, Note_on_c, 0, 57, 63
1, 112192, Note_on_c, 0, 65, 69
1, 112223, Note_off_c, 0, 65, 66
1, 112229, Note_off_c, 0, 57, 65
1, 112298, Note_on_c, 0, 72, 65
1, 112304, Note_on_c, 0, 55, 58
1, 112329, Note_off_c, 0, 72, 64
1, 112345, Note_off_c, 0, 55, 65
1, 112402, Note_on_c, 0, 69, 63
1, 112432, Note_off_c, 0, 69, 66
1, 112495, Note_on_c, 0, 69, 69
1, 112512, Note_on_c, 0, 60, 55
1, 112513, Note_on_c, 0, 67, 60
1, 112523, Note_off_c, 0, 69, 66
1, 112544, Note_off_c, 0, 67, 67
1, 112547, Note_off_c, 0, 60, 65
1, 112596, Note_on_c, 0, 57, 61
1, 112603, Note_on_c, 0, 66, 69
1, 112636, Note_off_c, 0, 57, 66
1, 112637, Note_off_c, 0, 66, 62
1, 112700, Note_on_c, 0, 55, 61
1, 112703, Note_on_c, 0, 74, 64
1, 112739, Note_off_c, 0, 74, 63
1, 112748, Note_off_c, 0, 55, 62
1, 112811, Note_on_c, 0, 70, 74
1, 112821, Note_on_c, 0, 54, 56
1, 112839, Note_off_c, 0, 70, 64
1, 112851, Note_off_c, 0, 54, 64
1, 112908, Note_on_c, 0, 69, 62
1, 112912, Note_on_c, 0, 70, 78
1, 112917, Note_on_c, 0, 62, 64
1, 112947, Note_off_c, 0, 70, 61
1, 112953, Note_off_c, 0, 62, 64
1, 112959, Note_off_c, 0, 69, 63
1, 113005, Note_on_c, 0, 58, 72
1, 113007, Note_on_c, 0, 67, 80
1, 113049, Note_off_c, 0, 58, 60
1, 113054, Note_off_c, 0, 67, 61
1, 113112, Note_on_c, 0, 57, 74
1, 113112, Note_on_c, 0, 74, 95
1, 113159, Note_off_c, 0, 57, 63
1, 113162, Note_off_c, 0, 74, 63
1, 113216, Note_on_c, 0, 71, 91
1, 113225, Note_on_c, 0, 55, 66
1, 113251, Note_off_c, 0, 71, 62
1, 113256, Note_off_c, 0, 55, 65
1, 113317, Note_on_c, 0, 62, 66
1, 113327, Note_on_c, 0, 71, 74
1, 113332, Note_on_c, 0, 69, 85
1, 113350, Note_off_c, 0, 71, 70
1, 113366, Note_off_c, 0, 62, 63
1, 113371, Note_off_c, 0, 69, 64
1, 113422, Note_on_c, 0, 59, 62
1, 113430, Note_on_c, 0, 68, 83
1, 113457, Control_c, 0, 64, 30
1, 113461, Note_off_c, 0, 59, 62
1, 113479, Note_off_c, 0, 68, 61
1, 113486, Control_c, 0, 64, 31
1, 113534, Note_on_c, 0, 76, 86
1, 113538, Note_on_c, 0, 57, 65
1, 113595, Note_off_c, 0, 76, 63
1, 113597, Note_off_c, 0, 57, 63
1, 113644, Note_on_c, 0, 73, 83
1, 113650, Note_on_c, 0, 56, 59
1, 113680, Note_off_c, 0, 56, 66
1, 113692, Note_off_c, 0, 73, 63
1, 113744, Note_on_c, 0, 70, 77
1, 113745, Note_on_c, 0, 73, 66
1, 113750, Note_on_c, 0, 64, 65
1, 113781, Note_off_c, 0, 73, 65
1, 113797, Note_off_c, 0, 64, 61
1, 113797, Note_off_c, 0, 70, 62
1, 113843, Note_on_c, 0, 69, 86
1, 113845, Note_on_c, 0, 61, 73
1, 113895, Note_off_c, 0, 69, 62
1, 113900, Note_off_c, 0, 61, 62
1, 113946, Note_on_c, 0, 58, 78
1, 113947, Note_on_c, 0, 79, 94
1, 114003, Note_off_c, 0, 79, 65
1, 114007, Note_off_c, 0, 58, 62
1, 114051, Note_on_c, 0, 76, 92
1, 114062, Note_on_c, 0, 57, 73
1, 114092, Note_off_c, 0, 57, 68
1, 114093, Note_off_c, 0, 76, 65
1, 114161, Note_on_c, 0, 76, 83
1, 114167, Note_on_c, 0, 74, 81
1, 114176, Note_on_c, 0, 67, 77
1, 114188, Note_off_c, 0, 76, 66
1, 114208, Note_off_c, 0, 74, 64
1, 114218, Note_off_c, 0, 67, 60
1, 114265, Control_c, 0, 64, 31
1, 114268, Note_on_c, 0, 73, 89
1, 114274, Note_on_c, 0, 64, 77
1, 114332, Control_c, 0, 64, 32
1, 114333, Note_off_c, 0, 73, 61
1, 114334, Note_off_c, 0, 64, 61
1, 114381, Note_on_c, 0, 82, 88
1, 114387, Note_on_c, 0, 62, 81
1, 114431, Note_off_c, 0, 82, 64
1, 114439, Note_off_c, 0, 62, 63
1, 114484, Note_on_c, 0, 79, 84
1, 114496, Note_on_c, 0, 61, 75
1, 114525, Note_off_c, 0, 61, 68
1, 114534, Note_off_c, 0, 79, 65
1, 114592, Note_on_c, 0, 77, 86
1, 114594, Note_on_c, 0, 79, 74
1, 114600, Note_on_c, 0, 70, 80
1, 114620, Note_off_c, 0, 79, 69
1, 114634, Note_off_c, 0, 70, 63
1, 114643, Note_off_c, 0, 77, 64
1, 114692, Note_on_c, 0, 76, 87
1, 114692, Note_on_c, 0, 67, 74
1, 114733, Control_c, 0, 64, 20
1, 114743, Note_off_c, 0, 67, 64
1, 114743, Note_off_c, 0, 76, 61
1, 114748, Control_c, 0, 64, 0
1, 114794, Note_on_c, 0, 66, 70
1, 114794, Note_on_c, 0, 89, 103
1, 114798, Note_on_c, 0, 65, 91
1, 114807, Control_c, 0, 64, 43
1, 114813, Note_off_c, 0, 66, 65
1, 114822, Control_c, 0, 64, 63
1, 114823, Note_off_c, 0, 65, 67
1, 114837, Control_c, 0, 64, 71
1, 114851, Control_c, 0, 64, 85
1, 114855, Note_off_c, 0, 89, 63
1, 114866, Control_c, 0, 64, 115
1, 114881, Control_c, 0, 64, 127
1, 114920, Note_on_c, 0, 86, 89
1, 114962, Note_off_c, 0, 86, 64
1, 115014, Control_c, 0, 64, 98
1, 115022, Note_on_c, 0, 86, 78
1, 115029, Control_c, 0, 64, 78
1, 115034, Note_on_c, 0, 84, 81
1, 115051, Control_c, 0, 64, 65
1, 115066, Control_c, 0, 64, 53
1, 115069, Note_off_c, 0, 86, 61
1, 115072, Note_off_c, 0, 84, 62
1, 115081, Control_c, 0, 64, 43
1, 115096, Control_c, 0, 64, 37
1, 115111, Control_c, 0, 64, 26
1, 115125, Control_c, 0, 64, 11
1, 115130, Note_on_c, 0, 82, 86
1, 115140, Control_c, 0, 64, 0
1, 115178, Note_off_c, 0, 82, 64
1, 115234, Note_on_c, 0, 81, 78
1, 115243, Note_on_c, 0, 77, 82
1, 115276, Note_off_c, 0, 77, 62
1, 115290, Note_off_c, 0, 81, 65
1, 115337, Note_on_c, 0, 74, 82
1, 115340, Note_on_c, 0, 82, 80
1, 115368, Note_off_c, 0, 74, 62
1, 115399, Note_off_c, 0, 82, 62
1, 115444, Note_on_c, 0, 74, 78
1, 115450, Note_on_c, 0, 72, 81
1, 115455, Note_on_c, 0, 84, 84
1, 115470, Note_off_c, 0, 74, 65
1, 115511, Note_off_c, 0, 84, 63
1, 115512, Note_off_c, 0, 72, 59
1, 115550, Note_on_c, 0, 70, 79
1, 115555, Note_on_c, 0, 76, 77
1, 115601, Note_off_c, 0, 76, 62
1, 115605, Note_off_c, 0, 70, 63
1, 115657, Note_on_c, 0, 77, 81
1, 115665, Note_on_c, 0, 69, 78
1, 115691, Note_off_c, 0, 77, 60
1, 115705, Note_off_c, 0, 69, 62
1, 115765, Note_on_c, 0, 74, 75
1, 115774, Note_on_c, 0, 70, 70
1, 115800, Note_off_c, 0, 74, 65
1, 115806, Note_off_c, 0, 70, 69
1, 115875, Note_on_c, 0, 74, 65
1, 115889, Note_on_c, 0, 72, 58
1, 115905, Note_off_c, 0, 74, 66
1, 115923, Note_off_c, 0, 72, 66
1, 115986, Note_on_c, 0, 64, 72
1, 115988, Note_on_c, 0, 70, 67
1, 116013, Note_off_c, 0, 64, 68
1, 116022, Note_off_c, 0, 70, 63
1, 116100, Note_on_c, 0, 69, 55
1, 116108, Note_on_c, 0, 65, 57
1, 116122, Note_off_c, 0, 69, 63
1, 116143, Note_off_c, 0, 65, 64
1, 116186, Note_on_c, 0, 62, 63
1, 116186, Note_on_c, 0, 70, 61
1, 116213, Note_off_c, 0, 62, 66
1, 116223, Note_off_c, 0, 70, 63
1, 116284, Note_on_c, 0, 62, 63
1, 116299, Note_on_c, 0, 60, 67
1, 116300, Note_on_c, 0, 72, 67
1, 116318, Note_off_c, 0, 62, 65
1, 116343, Note_off_c, 0, 60, 56
1, 116352, Note_off_c, 0, 72, 59
1, 116403, Note_on_c, 0, 64, 60
1, 116409, Note_on_c, 0, 58, 58
1, 116437, Note_off_c, 0, 64, 65
1, 116441, Note_off_c, 0, 58, 65
1, 116505, Note_on_c, 0, 65, 62
1, 116511, Note_on_c, 0, 57, 54
1, 116549, Note_off_c, 0, 65, 63
1, 116550, Note_off_c, 0, 57, 66
1, 116627, Note_on_c, 0, 58, 54
1, 116629, Note_on_c, 0, 62, 53
1, 116650, Note_off_c, 0, 58, 62
1, 116653, Note_off_c, 0, 62, 63
1, 116733, Note_on_c, 0, 62, 50
1, 116757, Note_on_c, 0, 60, 33
1, 116757, Note_off_c, 0, 62, 59
1, 116784, Note_off_c, 0, 60, 49
1, 116829, Note_on_c, 0, 52, 64
1, 116841, Note_on_c, 0, 58, 68
1, 116856, Note_off_c, 0, 52, 67
1, 116875, Note_off_c, 0, 58, 62
1, 116948, Note_on_c, 0, 53, 51
1, 116962, Note_on_c, 0, 57, 40
1, 116980, Note_off_c, 0, 53, 66
1, 116991, Note_off_c, 0, 57, 50
1, 117024, Note_on_c, 0, 50, 60
1, 117033, Note_on_c, 0, 58, 61
1, 117051, Note_off_c, 0, 50, 66
1, 117070, Note_off_c, 0, 58, 64
1, 117137, Note_on_c, 0, 50, 50
1, 117145, Note_on_c, 0, 60, 69
1, 117151, Note_on_c, 0, 48, 60
1, 117167, Note_off_c, 0, 50, 63
1, 117181, Note_off_c, 0, 60, 60
1, 117190, Note_off_c, 0, 48, 63
1, 117254, Note_on_c, 0, 52, 58
1, 117255, Note_on_c, 0, 46, 58
1, 117295, Note_off_c, 0, 46, 64
1, 117298, Note_off_c, 0, 52, 64
1, 117365, Note_on_c, 0, 53, 65
1, 117374, Note_on_c, 0, 45, 52
1, 117405, Note_off_c, 0, 53, 63
1, 117411, Note_off_c, 0, 45, 64
1, 117465, Note_on_c, 0, 41, 55
1, 117482, Note_on_c, 0, 62, 58
1, 117510, Note_off_c, 0, 41, 59
1, 117517, Note_off_c, 0, 62, 65
1, 117599, Note_on_c, 0, 43, 46
1, 117604, Note_on_c, 0, 52, 45
1, 117637, Note_off_c, 0, 43, 64
1, 117652, Note_off_c, 0, 52, 58
1, 117716, Note_on_c, 0, 45, 33
1, 117725, Note_on_c, 0, 55, 41
1, 117731, Note_on_c, 0, 61, 41
1, 117757, Note_off_c, 0, 45, 51
1, 117774, Note_off_c, 0, 55, 59
1, 117787, Note_off_c, 0, 61, 55
1, 117861, Control_c, 0, 64, 9
1, 117876, Control_c, 0, 64, 14
1, 117887, Note_on_c, 0, 38, 31
1, 117891, Control_c, 0, 64, 22
1, 117899, Note_on_c, 0, 62, 42
1, 117906, Control_c, 0, 64, 27
1, 117909, Note_on_c, 0, 53, 40
1, 117921, Control_c, 0, 64, 33
1, 117936, Control_c, 0, 64, 39
1, 117950, Control_c, 0, 64, 45
1, 117965, Control_c, 0, 64, 52
1, 117980, Control_c, 0, 64, 57
1, 117994, Control_c, 0, 64, 63
1, 118009, Control_c, 0, 64, 68
1, 118024, Control_c, 0, 64, 76
1, 118047, Control_c, 0, 64, 92
1, 118062, Control_c, 0, 64, 127
1, 118076, Note_off_c, 0, 62, 49
1, 118089, Note_off_c, 0, 53, 35
1, 118150, Note_off_c, 0, 38, 38
1, 118373, Control_c, 0, 64, 120
1, 118388, Control_c, 0, 64, 112
1, 118402, Control_c, 0, 64, 108
1, 118417, Control_c, 0, 64, 105
1, 118432, Control_c, 0, 64, 102
1, 118447, Control_c, 0, 64, 99
1, 118462, Control_c, 0, 64, 96
1, 118476, Control_c, 0, 64, 94
1, 118492, Control_c, 0, 64, 92
1, 118507, Control_c, 0, 64, 90
1, 118522, Control_c, 0, 64, 89
1, 118537, Control_c, 0, 64, 87
1, 118552, Control_c, 0, 64, 86
1, 118566, Control_c, 0, 64, 85
1, 118581, Control_c, 0, 64, 83
1, 118596, Control_c, 0, 64, 81
1, 118610, Control_c, 0, 64, 79
1, 118625, Control_c, 0, 64, 77
1, 118640, Control_c, 0, 64, 73
1, 118655, Control_c, 0, 64, 71
1, 118670, Control_c, 0, 64, 68
1, 118685, Control_c, 0, 64, 65
1, 118699, Control_c, 0, 64, 62
1, 118714, Control_c, 0, 64, 59
1, 118729, Control_c, 0, 64, 59
1, 118753, Note_on_c, 0, 69, 47
1, 118756, Note_on_c, 0, 65, 39
1, 118762, Note_on_c, 0, 62, 28
1, 118773, Control_c, 0, 64, 60
1, 118796, Control_c, 0, 64, 62
1, 118811, Control_c, 0, 64, 64
1, 118825, Control_c, 0, 64, 66
1, 118840, Control_c, 0, 64, 70
1, 118855, Control_c, 0, 64, 75
1, 118870, Control_c, 0, 64, 80
1, 118885, Control_c, 0, 64, 87
1, 118899, Control_c, 0, 64, 92
1, 118902, Note_off_c, 0, 69, 62
1, 118904, Note_on_c, 0, 53, 37
1, 118913, Note_on_c, 0, 57, 35
1, 118914, Control_c, 0, 64, 95
1, 118918, Note_off_c, 0, 62, 35
1, 118921, Note_on_c, 0, 50, 30
1, 118929, Note_off_c, 0, 65, 34
1, 118929, Control_c, 0, 64, 99
1, 118944, Control_c, 0, 64, 101
1, 119003, Control_c, 0, 64, 100
1, 119017, Control_c, 0, 64, 100
1, 119044, Note_on_c, 0, 69, 65
1, 119046, Note_off_c, 0, 57, 37
1, 119047, Note_on_c, 0, 65, 56
1, 119056, Note_off_c, 0, 53, 35
1, 119058, Note_on_c, 0, 62, 46
1, 119063, Note_off_c, 0, 50, 34
1, 119077, Control_c, 0, 64, 99
1, 119095, Note_off_c, 0, 65, 54
1, 119106, Note_off_c, 0, 62, 55
1, 119121, Control_c, 0, 64, 99
1, 119136, Note_off_c, 0, 69, 58
1, 119181, Note_on_c, 0, 57, 44
1, 119184, Note_on_c, 0, 53, 49
1, 119184, Note_on_c, 0, 50, 34
1, 119211, Control_c, 0, 64, 98
1, 119225, Control_c, 0, 64, 98
1, 119236, Note_off_c, 0, 53, 56
1, 119240, Control_c, 0, 64, 97
1, 119240, Note_off_c, 0, 57, 56
1, 119255, Control_c, 0, 64, 95
1, 119266, Note_on_c, 0, 69, 67
1, 119270, Control_c, 0, 64, 92
1, 119276, Note_on_c, 0, 65, 58
1, 119285, Control_c, 0, 64, 86
1, 119289, Note_on_c, 0, 62, 45
1, 119300, Control_c, 0, 64, 76
1, 119311, Note_off_c, 0, 50, 27
1, 119315, Control_c, 0, 64, 68
1, 119330, Control_c, 0, 64, 62
1, 119345, Control_c, 0, 64, 60
1, 119349, Note_off_c, 0, 62, 48
1, 119363, Note_off_c, 0, 65, 43
1, 119375, Control_c, 0, 64, 61
1, 119389, Control_c, 0, 64, 62
1, 119404, Control_c, 0, 64, 65
1, 119407, Note_on_c, 0, 50, 23
1, 119407, Note_on_c, 0, 53, 47
1, 119409, Note_on_c, 0, 59, 52
1, 119419, Control_c, 0, 64, 68
1, 119434, Control_c, 0, 64, 73
1, 119448, Control_c, 0, 64, 79
1, 119463, Control_c, 0, 64, 84
1, 119464, Note_off_c, 0, 59, 55
1, 119469, Note_off_c, 0, 69, 58
1, 119469, Note_off_c, 0, 53, 54
1, 119478, Control_c, 0, 64, 87
1, 119482, Note_off_c, 0, 50, 42
1, 119493, Note_on_c, 0, 68, 63
1, 119493, Control_c, 0, 64, 91
1, 119506, Note_on_c, 0, 65, 56
1, 119507, Control_c, 0, 64, 95
1, 119516, Note_on_c, 0, 62, 47
1, 119522, Control_c, 0, 64, 98
1, 119544, Control_c, 0, 64, 101
1, 119548, Note_off_c, 0, 65, 66
1, 119551, Note_off_c, 0, 62, 57
1, 119565, Note_off_c, 0, 68, 62
1, 119608, Note_on_c, 0, 59, 51
1, 119619, Control_c, 0, 64, 100
1, 119625, Note_on_c, 0, 50, 38
1, 119634, Control_c, 0, 64, 100
1, 119634, Note_on_c, 0, 53, 37
1, 119646, Note_off_c, 0, 59, 61
1, 119648, Control_c, 0, 64, 99
1, 119663, Control_c, 0, 64, 98
1, 119678, Control_c, 0, 64, 96
1, 119693, Control_c, 0, 64, 92
1, 119704, Note_off_c, 0, 53, 40
1, 119705, Note_off_c, 0, 50, 39
1, 119708, Control_c, 0, 64, 84
1, 119722, Control_c, 0, 64, 74
1, 119723, Note_on_c, 0, 67, 59
1, 119729, Note_on_c, 0, 64, 53
1, 119737, Control_c, 0, 64, 66
1, 119752, Control_c, 0, 64, 62
1, 119781, Control_c, 0, 64, 63
1, 119796, Control_c, 0, 64, 64
1, 119811, Control_c, 0, 64, 67
1, 119826, Control_c, 0, 64, 72
1, 119833, Note_off_c, 0, 67, 59
1, 119834, Note_on_c, 0, 58, 52
1, 119836, Note_on_c, 0, 55, 51
1, 119840, Poly_aftertouch_c, 0, 50, 127
1, 119841, Control_c, 0, 64, 78
1, 119856, Control_c, 0, 64, 85
1, 119871, Control_c, 0, 64, 89
1, 119877, Note_off_c, 0, 64, 32
1, 119886, Control_c, 0, 64, 92
1, 119899, Note_off_c, 0, 55, 52
1, 119899, Note_off_c, 0, 58, 49
1, 119899, Control_c, 0, 64, 94
1, 119914, Control_c, 0, 64, 95
1, 119929, Control_c, 0, 64, 96
1, 119944, Note_on_c, 0, 67, 72
1, 119954, Note_on_c, 0, 64, 53
1, 119959, Poly_aftertouch_c, 0, 50, 0
1, 119975, Note_off_c, 0, 67, 65
1, 119986, Note_off_c, 0, 64, 63
1, 120035, Note_on_c, 0, 55, 58
1, 120036, Note_on_c, 0, 58, 56
1, 120049, Note_on_c, 0, 50, 38
1, 120099, Note_off_c, 0, 55, 53
1, 120100, Note_off_c, 0, 58, 44
1, 120103, Note_off_c, 0, 50, 54
1, 120108, Control_c, 0, 64, 95
1, 120123, Control_c, 0, 64, 92
1, 120137, Control_c, 0, 64, 86
1, 120152, Control_c, 0, 64, 76
1, 120159, Note_on_c, 0, 74, 82
1, 120167, Control_c, 0, 64, 68
1, 120167, Note_on_c, 0, 67, 53
1, 120173, Note_on_c, 0, 64, 53
1, 120182, Control_c, 0, 64, 63
1, 120196, Control_c, 0, 64, 62
1, 120207, Note_off_c, 0, 67, 56
1, 120211, Control_c, 0, 64, 63
1, 120226, Control_c, 0, 64, 65
1, 120230, Note_off_c, 0, 64, 52
1, 120241, Control_c, 0, 64, 68
1, 120256, Control_c, 0, 64, 72
1, 120267, Note_on_c, 0, 55, 57
1, 120269, Note_on_c, 0, 52, 59
1, 120270, Control_c, 0, 64, 78
1, 120271, Note_on_c, 0, 57, 58
1, 120293, Control_c, 0, 64, 84
1, 120299, Note_off_c, 0, 74, 63
1, 120302, Note_on_c, 0, 50, 24
1, 120308, Control_c, 0, 64, 90
1, 120322, Control_c, 0, 64, 94
1, 120335, Note_off_c, 0, 55, 56
1, 120337, Control_c, 0, 64, 98
1, 120343, Note_off_c, 0, 52, 57
1, 120343, Note_off_c, 0, 50, 49
1, 120346, Note_off_c, 0, 57, 53
1, 120352, Control_c, 0, 64, 101
1, 120367, Control_c, 0, 64, 102
1, 120388, Note_on_c, 0, 73, 85
1, 120397, Note_on_c, 0, 67, 59
1, 120398, Note_on_c, 0, 64, 46
1, 120418, Note_off_c, 0, 67, 63
1, 120425, Note_off_c, 0, 64, 56
1, 120441, Control_c, 0, 64, 103
1, 120447, Note_off_c, 0, 73, 66
1, 120474, Note_on_c, 0, 57, 59
1, 120475, Note_on_c, 0, 55, 48
1, 120479, Note_on_c, 0, 52, 56
1, 120498, Note_on_c, 0, 50, 36
1, 120503, Note_off_c, 0, 55, 61
1, 120513, Note_off_c, 0, 57, 64
1, 120526, Note_off_c, 0, 52, 61
1, 120544, Control_c, 0, 64, 102
1, 120552, Note_off_c, 0, 50, 45
1, 120559, Control_c, 0, 64, 101
1, 120574, Control_c, 0, 64, 96
1, 120588, Control_c, 0, 64, 87
1, 120597, Note_on_c, 0, 77, 84
1, 120603, Control_c, 0, 64, 74
1, 120609, Note_on_c, 0, 69, 59
1, 120618, Control_c, 0, 64, 65
1, 120633, Control_c, 0, 64, 61
1, 120648, Control_c, 0, 64, 62
1, 120662, Control_c, 0, 64, 63
1, 120677, Control_c, 0, 64, 65
1, 120683, Note_off_c, 0, 69, 59
1, 120692, Control_c, 0, 64, 70
1, 120707, Control_c, 0, 64, 75
1, 120722, Note_on_c, 0, 50, 17
1, 120722, Note_on_c, 0, 57, 43
1, 120722, Control_c, 0, 64, 81
1, 120729, Note_on_c, 0, 52, 46
1, 120731, Note_on_c, 0, 61, 55
1, 120734, Note_off_c, 0, 77, 55
1, 120737, Control_c, 0, 64, 86
1, 120752, Control_c, 0, 64, 88
1, 120767, Control_c, 0, 64, 90
1, 120782, Control_c, 0, 64, 91
1, 120790, Note_off_c, 0, 61, 49
1, 120799, Note_off_c, 0, 57, 53
1, 120822, Note_off_c, 0, 52, 53
1, 120831, Note_off_c, 0, 50, 34
1, 120836, Note_on_c, 0, 76, 62
1, 120838, Note_on_c, 0, 67, 57
1, 120874, Note_off_c, 0, 76, 63
1, 120877, Note_off_c, 0, 67, 61
1, 120925, Note_on_c, 0, 61, 56
1, 120940, Note_on_c, 0, 50, 26
1, 120948, Note_on_c, 0, 57, 36
1, 120975, Control_c, 0, 64, 90
1, 120976, Note_off_c, 0, 61, 56
1, 120981, Poly_aftertouch_c, 0, 52, 127
1, 120987, Note_off_c, 0, 57, 49
1, 120987, Note_off_c, 0, 50, 46
1, 120990, Control_c, 0, 64, 90
1, 121005, Control_c, 0, 64, 89
1, 121016, Poly_aftertouch_c, 0, 52, 0
1, 121019, Control_c, 0, 64, 87
1, 121023, Note_on_c, 0, 76, 60
1, 121041, Control_c, 0, 64, 82
1, 121053, Note_on_c, 0, 65, 50
1, 121056, Control_c, 0, 64, 74
1, 121059, Note_on_c, 0, 74, 63
1, 121071, Control_c, 0, 64, 65
1, 121086, Control_c, 0, 64, 59
1, 121094, Note_off_c, 0, 76, 57
1, 121101, Control_c, 0, 64, 56
1, 121106, Note_off_c, 0, 65, 58
1, 121115, Control_c, 0, 64, 55
1, 121130, Control_c, 0, 64, 56
1, 121145, Control_c, 0, 64, 58
1, 121160, Control_c, 0, 64, 61
1, 121175, Note_on_c, 0, 53, 40
1, 121175, Note_on_c, 0, 62, 42
1, 121175, Control_c, 0, 64, 64
1, 121179, Note_on_c, 0, 50, 27
1, 121183, Note_on_c, 0, 57, 34
1, 121190, Control_c, 0, 64, 67
1, 121205, Control_c, 0, 64, 71
1, 121219, Control_c, 0, 64, 76
1, 121234, Control_c, 0, 64, 80
1, 121247, Note_off_c, 0, 74, 63
1, 121249, Note_off_c, 0, 57, 54
1, 121249, Control_c, 0, 64, 83
1, 121254, Note_off_c, 0, 53, 51
1, 121259, Note_off_c, 0, 62, 52
1, 121264, Control_c, 0, 64, 85
1, 121267, Note_on_c, 0, 73, 69
1, 121278, Note_on_c, 0, 64, 63
1, 121279, Control_c, 0, 64, 87
1, 121293, Control_c, 0, 64, 89
1, 121295, Note_off_c, 0, 50, 33
1, 121308, Control_c, 0, 64, 91
1, 121327, Note_off_c, 0, 64, 58
1, 121364, Note_off_c, 0, 73, 57
1, 121378, Note_on_c, 0, 62, 41
1, 121381, Note_on_c, 0, 53, 46
1, 121394, Note_on_c, 0, 57, 46
1, 121399, Note_on_c, 0, 50, 22
1, 121427, Control_c, 0, 64, 90
1, 121442, Control_c, 0, 64, 90
1, 121445, Note_off_c, 0, 57, 57
1, 121449, Note_off_c, 0, 53, 56
1, 121454, Note_off_c, 0, 50, 46
1, 121464, Note_off_c, 0, 62, 47
1, 121493, Note_on_c, 0, 74, 74
1, 121500, Note_on_c, 0, 65, 60
1, 121543, Note_off_c, 0, 65, 62
1, 121545, Control_c, 0, 64, 89
1, 121577, Note_off_c, 0, 74, 62
1, 121605, Note_on_c, 0, 53, 52
1, 121614, Note_on_c, 0, 57, 51
1, 121614, Note_on_c, 0, 62, 51
1, 121638, Note_on_c, 0, 50, 22
1, 121649, Control_c, 0, 64, 89
1, 121661, Note_off_c, 0, 57, 58
1, 121667, Note_off_c, 0, 62, 54
1, 121667, Note_off_c, 0, 53, 53
1, 121681, Note_off_c, 0, 50, 53
1, 121695, Control_c, 0, 64, 88
1, 121710, Note_on_c, 0, 76, 80
1, 121718, Note_on_c, 0, 67, 59
1, 121724, Control_c, 0, 64, 88
1, 121750, Note_off_c, 0, 67, 66
1, 121791, Control_c, 0, 64, 87
1, 121829, Note_on_c, 0, 53, 53
1, 121832, Note_on_c, 0, 62, 43
1, 121832, Note_off_c, 0, 76, 57
1, 121845, Note_on_c, 0, 57, 34
1, 121851, Note_on_c, 0, 50, 35
1, 121858, Note_off_c, 0, 62, 59
1, 121865, Control_c, 0, 64, 87
1, 121875, Note_off_c, 0, 53, 60
1, 121878, Note_off_c, 0, 57, 50
1, 121893, Note_off_c, 0, 50, 57
1, 121924, Control_c, 0, 64, 86
1, 121939, Control_c, 0, 64, 86
1, 121954, Control_c, 0, 64, 85
1, 121969, Control_c, 0, 64, 84
1, 121984, Control_c, 0, 64, 82
1, 121988, Note_on_c, 0, 73, 60
1, 121997, Note_on_c, 0, 69, 45
1, 121998, Control_c, 0, 64, 77
1, 121999, Note_on_c, 0, 64, 43
1, 122013, Control_c, 0, 64, 71
1, 122028, Control_c, 0, 64, 64
1, 122042, Control_c, 0, 64, 58
1, 122057, Control_c, 0, 64, 54
1, 122072, Control_c, 0, 64, 54
1, 122102, Control_c, 0, 64, 55
1, 122117, Control_c, 0, 64, 58
1, 122132, Control_c, 0, 64, 62
1, 122147, Control_c, 0, 64, 64
1, 122159, Note_off_c, 0, 64, 46
1, 122161, Control_c, 0, 64, 67
1, 122176, Control_c, 0, 64, 70
1, 122178, Note_off_c, 0, 69, 43
1, 122182, Note_on_c, 0, 52, 33
1, 122183, Note_off_c, 0, 73, 61
1, 122191, Control_c, 0, 64, 75
1, 122192, Note_on_c, 0, 57, 35
1, 122194, Note_on_c, 0, 55, 35
1, 122197, Note_on_c, 0, 50, 29
1, 122206, Control_c, 0, 64, 80
1, 122221, Control_c, 0, 64, 84
1, 122235, Control_c, 0, 64, 88
1, 122250, Control_c, 0, 64, 91
1, 122262, Note_off_c, 0, 55, 47
1, 122265, Control_c, 0, 64, 92
1, 122275, Note_off_c, 0, 57, 48
1, 122301, Note_off_c, 0, 52, 38
1, 122304, Note_off_c, 0, 50, 34
1, 122354, Control_c, 0, 64, 91
1, 122392, Note_on_c, 0, 52, 33
1, 122400, Note_on_c, 0, 50, 23
1, 122404, Note_on_c, 0, 55, 42
1, 122410, Note_on_c, 0, 57, 33
1, 122427, Control_c, 0, 64, 91
1, 122465, Note_off_c, 0, 55, 49
1, 122469, Note_off_c, 0, 52, 51
1, 122472, Control_c, 0, 64, 90
1, 122488, Control_c, 0, 64, 89
1, 122503, Control_c, 0, 64, 85
1, 122518, Control_c, 0, 64, 78
1, 122540, Control_c, 0, 64, 69
1, 122555, Control_c, 0, 64, 62
1, 122559, Note_on_c, 0, 69, 57
1, 122570, Control_c, 0, 64, 62
1, 122571, Note_on_c, 0, 62, 39
1, 122574, Note_on_c, 0, 65, 39
1, 122575, Note_off_c, 0, 57, 24
1, 122585, Control_c, 0, 64, 63
1, 122600, Control_c, 0, 64, 64
1, 122614, Control_c, 0, 64, 66
1, 122629, Control_c, 0, 64, 69
1, 122631, Note_off_c, 0, 65, 51
1, 122642, Note_off_c, 0, 50, 0
1, 122644, Control_c, 0, 64, 73
1, 122654, Note_off_c, 0, 62, 46
1, 122659, Control_c, 0, 64, 76
1, 122668, Note_on_c, 0, 50, 5
1, 122674, Control_c, 0, 64, 78
1, 122674, Note_off_c, 0, 69, 59
1, 122676, Note_on_c, 0, 57, 34
1, 122687, Note_on_c, 0, 53, 50
1, 122689, Control_c, 0, 64, 78
1, 122704, Control_c, 0, 64, 79
1, 122765, Note_off_c, 0, 53, 47
1, 122777, Note_on_c, 0, 69, 82
1, 122779, Note_off_c, 0, 57, 45
1, 122785, Note_on_c, 0, 65, 58
1, 122802, Note_on_c, 0, 62, 49
1, 122815, Note_off_c, 0, 50, 36
1, 122820, Note_off_c, 0, 65, 64
1, 122826, Note_off_c, 0, 62, 59
1, 122837, Control_c, 0, 64, 80
1, 122845, Note_off_c, 0, 69, 64
1, 122893, Note_on_c, 0, 50, 36
1, 122895, Control_c, 0, 64, 80
1, 122898, Note_on_c, 0, 57, 57
1, 122899, Note_on_c, 0, 53, 55
1, 122925, Control_c, 0, 64, 81
1, 122949, Note_off_c, 0, 53, 56
1, 122950, Note_off_c, 0, 50, 54
1, 122955, Note_off_c, 0, 57, 56
1, 122970, Control_c, 0, 64, 80
1, 122984, Control_c, 0, 64, 79
1, 122993, Note_on_c, 0, 69, 77
1, 122999, Control_c, 0, 64, 76
1, 123014, Control_c, 0, 64, 69
1, 123014, Note_on_c, 0, 65, 51
1, 123023, Note_on_c, 0, 62, 50
1, 123029, Control_c, 0, 64, 63
1, 123044, Control_c, 0, 64, 59
1, 123073, Control_c, 0, 64, 59
1, 123088, Control_c, 0, 64, 60
1, 123103, Control_c, 0, 64, 63
1, 123110, Note_off_c, 0, 65, 34
1, 123116, Note_off_c, 0, 62, 46
1, 123118, Control_c, 0, 64, 65
1, 123120, Note_on_c, 0, 53, 53
1, 123122, Note_on_c, 0, 50, 44
1, 123122, Note_on_c, 0, 59, 51
1, 123132, Control_c, 0, 64, 68
1, 123147, Control_c, 0, 64, 71
1, 123162, Control_c, 0, 64, 73
1, 123168, Note_off_c, 0, 50, 57
1, 123171, Note_off_c, 0, 53, 57
1, 123172, Note_off_c, 0, 59, 56
1, 123177, Control_c, 0, 64, 75
1, 123190, Note_off_c, 0, 69, 52
1, 123191, Control_c, 0, 64, 76
1, 123206, Control_c, 0, 64, 77
1, 123221, Control_c, 0, 64, 78
1, 123228, Note_on_c, 0, 68, 69
1, 123236, Control_c, 0, 64, 79
1, 123237, Note_on_c, 0, 62, 50
1, 123238, Note_on_c, 0, 65, 21
1, 123265, Control_c, 0, 64, 79
1, 123275, Note_off_c, 0, 65, 47
1, 123295, Note_off_c, 0, 68, 62
1, 123298, Note_off_c, 0, 62, 55
1, 123323, Note_on_c, 0, 59, 44
1, 123325, Note_on_c, 0, 53, 42
1, 123336, Note_on_c, 0, 50, 35
1, 123348, Control_c, 0, 64, 79
1, 123377, Note_off_c, 0, 59, 56
1, 123378, Control_c, 0, 64, 78
1, 123381, Note_off_c, 0, 53, 58
1, 123393, Control_c, 0, 64, 78
1, 123397, Note_off_c, 0, 50, 43
1, 123407, Control_c, 0, 64, 75
1, 123422, Control_c, 0, 64, 71
1, 123437, Control_c, 0, 64, 66
1, 123438, Note_on_c, 0, 67, 56
1, 123452, Control_c, 0, 64, 60
1, 123463, Note_on_c, 0, 63, 31
1, 123467, Control_c, 0, 64, 57
1, 123496, Control_c, 0, 64, 58
1, 123511, Control_c, 0, 64, 60
1, 123519, Note_off_c, 0, 63, 41
1, 123526, Control_c, 0, 64, 62
1, 123541, Control_c, 0, 64, 65
1, 123556, Note_off_c, 0, 67, 58
1, 123556, Control_c, 0, 64, 68
1, 123559, Note_on_c, 0, 55, 45
1, 123560, Note_on_c, 0, 50, 41
1, 123564, Note_on_c, 0, 60, 45
1, 123570, Control_c, 0, 64, 71
1, 123585, Control_c, 0, 64, 74
1, 123600, Control_c, 0, 64, 76
1, 123614, Control_c, 0, 64, 77
1, 123616, Note_off_c, 0, 55, 55
1, 123619, Note_off_c, 0, 50, 52
1, 123628, Note_off_c, 0, 60, 51
1, 123644, Control_c, 0, 64, 77
1, 123667, Note_on_c, 0, 67, 67
1, 123673, Note_on_c, 0, 63, 37
1, 123703, Control_c, 0, 64, 78
1, 123706, Note_off_c, 0, 63, 54
1, 123751, Note_off_c, 0, 67, 44
1, 123751, Note_on_c, 0, 55, 48
1, 123756, Note_on_c, 0, 60, 43
1, 123762, Note_on_c, 0, 50, 35
1, 123792, Control_c, 0, 64, 77
1, 123794, Note_off_c, 0, 55, 62
1, 123819, Note_off_c, 0, 60, 48
1, 123822, Control_c, 0, 64, 77
1, 123849, Note_off_c, 0, 50, 38
1, 123852, Control_c, 0, 64, 76
1, 123867, Control_c, 0, 64, 74
1, 123879, Note_on_c, 0, 67, 69
1, 123881, Control_c, 0, 64, 72
1, 123895, Note_on_c, 0, 62, 49
1, 123896, Control_c, 0, 64, 68
1, 123911, Control_c, 0, 64, 64
1, 123926, Control_c, 0, 64, 60
1, 123941, Control_c, 0, 64, 58
1, 123953, Note_off_c, 0, 62, 54
1, 123970, Control_c, 0, 64, 59
1, 123985, Control_c, 0, 64, 61
1, 123996, Note_on_c, 0, 57, 50
1, 124000, Control_c, 0, 64, 63
1, 124004, Note_on_c, 0, 60, 39
1, 124009, Note_on_c, 0, 50, 36
1, 124014, Control_c, 0, 64, 66
1, 124037, Control_c, 0, 64, 68
1, 124052, Control_c, 0, 64, 71
1, 124067, Control_c, 0, 64, 74
1, 124071, Note_off_c, 0, 60, 55
1, 124079, Note_off_c, 0, 50, 50
1, 124081, Note_off_c, 0, 57, 49
1, 124082, Control_c, 0, 64, 75
1, 124097, Control_c, 0, 64, 76
1, 124103, Note_off_c, 0, 67, 57
1, 124111, Control_c, 0, 64, 76
1, 124119, Note_on_c, 0, 66, 57
1, 124126, Control_c, 0, 64, 77
1, 124136, Note_on_c, 0, 62, 36
1, 124141, Control_c, 0, 64, 77
1, 124181, Note_off_c, 0, 62, 54
1, 124197, Note_off_c, 0, 66, 60
1, 124233, Note_on_c, 0, 57, 48
1, 124242, Note_on_c, 0, 50, 13
1, 124251, Note_on_c, 0, 60, 37
1, 124317, Note_off_c, 0, 57, 54
1, 124334, Control_c, 0, 64, 77
1, 124349, Control_c, 0, 64, 75
1, 124364, Control_c, 0, 64, 73
1, 124376, Note_off_c, 0, 60, 26
1, 124379, Control_c, 0, 64, 69
1, 124393, Control_c, 0, 64, 64
1, 124403, Note_on_c, 0, 70, 50
1, 124408, Control_c, 0, 64, 61
1, 124418, Note_on_c, 0, 62, 24
1, 124423, Control_c, 0, 64, 60
1, 124452, Control_c, 0, 64, 60
1, 124467, Control_c, 0, 64, 62
1, 124482, Control_c, 0, 64, 64
1, 124497, Control_c, 0, 64, 66
1, 124505, Note_off_c, 0, 50, 0
1, 124511, Control_c, 0, 64, 69
1, 124526, Control_c, 0, 64, 72
1, 124541, Control_c, 0, 64, 74
1, 124543, Poly_aftertouch_c, 0, 50, 127
1, 124547, Note_on_c, 0, 60, 29
1, 124552, Note_off_c, 0, 70, 58
1, 124556, Control_c, 0, 64, 76
1, 124557, Note_on_c, 0, 54, 44
1, 124567, Note_off_c, 0, 62, 33
1, 124571, Control_c, 0, 64, 77
1, 124585, Control_c, 0, 64, 78
1, 124600, Control_c, 0, 64, 79
1, 124615, Control_c, 0, 64, 80
1, 124625, Note_off_c, 0, 54, 52
1, 124666, Note_on_c, 0, 69, 56
1, 124673, Poly_aftertouch_c, 0, 50, 0
1, 124676, Note_off_c, 0, 60, 32
1, 124694, Note_on_c, 0, 62, 31
1, 124709, Note_off_c, 0, 69, 61
1, 124725, Note_on_c, 0, 60, 34
1, 124731, Note_off_c, 0, 62, 50
1, 124743, Note_on_c, 0, 50, 24
1, 124753, Note_on_c, 0, 54, 35
1, 124790, Note_off_c, 0, 60, 61
1, 124830, Note_off_c, 0, 50, 46
1, 124833, Note_off_c, 0, 54, 42
1, 124839, Note_on_c, 0, 69, 63
1, 124859, Control_c, 0, 64, 79
1, 124874, Control_c, 0, 64, 77
1, 124876, Note_on_c, 0, 67, 60
1, 124882, Note_on_c, 0, 62, 9
1, 124890, Control_c, 0, 64, 71
1, 124900, Note_off_c, 0, 69, 52
1, 124905, Control_c, 0, 64, 66
1, 124920, Control_c, 0, 64, 62
1, 124949, Control_c, 0, 64, 62
1, 124964, Note_off_c, 0, 62, 37
1, 124964, Control_c, 0, 64, 63
1, 124979, Control_c, 0, 64, 66
1, 124980, Note_on_c, 0, 55, 49
1, 124981, Note_on_c, 0, 58, 50
1, 124982, Note_on_c, 0, 50, 42
1, 124994, Control_c, 0, 64, 68
1, 125008, Control_c, 0, 64, 71
1, 125023, Control_c, 0, 64, 74
1, 125027, Note_off_c, 0, 58, 60
1, 125028, Note_off_c, 0, 55, 61
1, 125031, Note_off_c, 0, 50, 58
1, 125038, Control_c, 0, 64, 75
1, 125053, Control_c, 0, 64, 76
1, 125068, Control_c, 0, 64, 77
1, 125083, Control_c, 0, 64, 78
1, 125084, Note_off_c, 0, 67, 57
1, 125086, Note_on_c, 0, 66, 69
1, 125101, Note_on_c, 0, 62, 52
1, 125138, Note_off_c, 0, 62, 65
1, 125164, Note_on_c, 0, 58, 58
1, 125172, Note_on_c, 0, 55, 52
1, 125181, Note_off_c, 0, 66, 51
1, 125182, Note_on_c, 0, 50, 38
1, 125187, Control_c, 0, 64, 78
1, 125220, Note_off_c, 0, 55, 59
1, 125229, Note_off_c, 0, 50, 52
1, 125229, Note_off_c, 0, 58, 53
1, 125276, Control_c, 0, 64, 78
1, 125291, Control_c, 0, 64, 75
1, 125292, Note_on_c, 0, 67, 70
1, 125299, Note_on_c, 0, 61, 57
1, 125306, Control_c, 0, 64, 71
1, 125321, Control_c, 0, 64, 65
1, 125335, Control_c, 0, 64, 60
1, 125350, Control_c, 0, 64, 59
1, 125365, Control_c, 0, 64, 60
1, 125373, Note_off_c, 0, 61, 55
1, 125380, Control_c, 0, 64, 62
1, 125392, Note_on_c, 0, 52, 54
1, 125395, Note_on_c, 0, 57, 50
1, 125395, Control_c, 0, 64, 64
1, 125397, Note_on_c, 0, 55, 48
1, 125404, Note_on_c, 0, 50, 34
1, 125409, Control_c, 0, 64, 67
1, 125411, Note_off_c, 0, 67, 57
1, 125424, Control_c, 0, 64, 70
1, 125439, Control_c, 0, 64, 73
1, 125447, Note_off_c, 0, 55, 55
1, 125447, Note_off_c, 0, 50, 50
1, 125453, Note_off_c, 0, 57, 54
1, 125453, Control_c, 0, 64, 74
1, 125459, Note_off_c, 0, 52, 51
1, 125468, Control_c, 0, 64, 75
1, 125483, Control_c, 0, 64, 76
1, 125498, Control_c, 0, 64, 76
1, 125505, Note_on_c, 0, 69, 81
1, 125510, Note_on_c, 0, 61, 59
1, 125513, Control_c, 0, 64, 77
1, 125535, Control_c, 0, 64, 77
1, 125550, Control_c, 0, 64, 78
1, 125556, Note_off_c, 0, 61, 62
1, 125594, Control_c, 0, 64, 78
1, 125612, Note_on_c, 0, 52, 51
1, 125612, Note_on_c, 0, 55, 54
1, 125618, Note_on_c, 0, 57, 52
1, 125626, Note_off_c, 0, 69, 46
1, 125637, Note_on_c, 0, 50, 40
1, 125655, Note_off_c, 0, 55, 61
1, 125660, Note_off_c, 0, 52, 58
1, 125665, Note_off_c, 0, 57, 57
1, 125668, Note_off_c, 0, 50, 53
1, 125699, Control_c, 0, 64, 78
1, 125714, Control_c, 0, 64, 77
1, 125729, Control_c, 0, 64, 74
1, 125744, Control_c, 0, 64, 69
1, 125751, Note_on_c, 0, 62, 64
1, 125758, Control_c, 0, 64, 63
1, 125773, Control_c, 0, 64, 58
1, 125788, Control_c, 0, 64, 55
1, 125803, Control_c, 0, 64, 54
1, 125818, Control_c, 0, 64, 53
1, 125832, Control_c, 0, 64, 54
1, 125847, Control_c, 0, 64, 58
1, 125862, Control_c, 0, 64, 62
1, 125877, Control_c, 0, 64, 65
1, 125891, Control_c, 0, 64, 67
1, 125892, Note_on_c, 0, 54, 41
1, 125896, Note_on_c, 0, 57, 42
1, 125904, Note_off_c, 0, 62, 61
1, 125906, Control_c, 0, 64, 71
1, 125913, Note_on_c, 0, 50, 18
1, 125921, Control_c, 0, 64, 75
1, 125936, Control_c, 0, 64, 79
1, 125950, Note_off_c, 0, 54, 58
1, 125951, Control_c, 0, 64, 82
1, 125956, Note_off_c, 0, 50, 50
1, 125965, Note_off_c, 0, 57, 58
1, 125966, Control_c, 0, 64, 85
1, 125981, Control_c, 0, 64, 89
1, 125996, Control_c, 0, 64, 96
1, 126010, Control_c, 0, 64, 102
1, 126025, Control_c, 0, 64, 105
1, 126055, Control_c, 0, 64, 106
1, 126096, Note_on_c, 0, 54, 39
1, 126102, Note_on_c, 0, 57, 43
1, 126103, Note_on_c, 0, 50, 18
1, 126158, Note_off_c, 0, 54, 44
1, 126159, Note_off_c, 0, 57, 56
1, 126165, Note_off_c, 0, 50, 44
1, 126205, Note_on_c, 0, 72, 75
1, 126216, Note_on_c, 0, 66, 53
1, 126261, Note_off_c, 0, 66, 60
1, 126302, Note_off_c, 0, 72, 59
1, 126337, Note_on_c, 0, 54, 55
1, 126341, Note_on_c, 0, 57, 52
1, 126344, Note_on_c, 0, 50, 42
1, 126389, Note_off_c, 0, 50, 58
1, 126389, Note_off_c, 0, 54, 57
1, 126392, Note_off_c, 0, 57, 57
1, 126427, Note_on_c, 0, 72, 87
1, 126430, Note_on_c, 0, 66, 74
1, 126433, Control_c, 0, 64, 105
1, 126484, Note_off_c, 0, 66, 63
1, 126501, Note_off_c, 0, 72, 66
1, 126538, Note_on_c, 0, 57, 65
1, 126545, Note_on_c, 0, 54, 64
1, 126550, Note_on_c, 0, 50, 56
1, 126553, Control_c, 0, 64, 106
1, 126567, Control_c, 0, 64, 107
1, 126577, Note_off_c, 0, 54, 63
1, 126582, Control_c, 0, 64, 108
1, 126588, Note_off_c, 0, 57, 63
1, 126597, Note_off_c, 0, 50, 58
1, 126597, Control_c, 0, 64, 109
1, 126612, Control_c, 0, 64, 109
1, 126656, Control_c, 0, 64, 103
1, 126671, Control_c, 0, 64, 92
1, 126675, Note_on_c, 0, 65, 69
1, 126677, Note_on_c, 0, 72, 81
1, 126686, Control_c, 0, 64, 78
1, 126701, Control_c, 0, 64, 67
1, 126715, Control_c, 0, 64, 61
1, 126730, Control_c, 0, 64, 61
1, 126745, Control_c, 0, 64, 62
1, 126760, Control_c, 0, 64, 64
1, 126772, Note_on_c, 0, 50, 42
1, 126775, Note_off_c, 0, 65, 53
1, 126775, Control_c, 0, 64, 67
1, 126783, Note_on_c, 0, 60, 60
1, 126789, Note_on_c, 0, 56, 54
1, 126789, Control_c, 0, 64, 71
1, 126792, Note_on_c, 0, 53, 52
1, 126804, Control_c, 0, 64, 77
1, 126819, Control_c, 0, 64, 83
1, 126826, Note_off_c, 0, 50, 62
1, 126827, Note_off_c, 0, 72, 61
1, 126833, Control_c, 0, 64, 87
1, 126840, Note_off_c, 0, 60, 60
1, 126848, Control_c, 0, 64, 89
1, 126858, Note_off_c, 0, 53, 55
1, 126860, Note_off_c, 0, 56, 56
1, 126863, Control_c, 0, 64, 90
1, 126878, Control_c, 0, 64, 92
1, 126893, Control_c, 0, 64, 94
1, 126896, Note_on_c, 0, 71, 79
1, 126899, Note_on_c, 0, 68, 72
1, 126922, Control_c, 0, 64, 94
1, 126937, Control_c, 0, 64, 95
1, 126942, Note_off_c, 0, 68, 53
1, 126952, Control_c, 0, 64, 95
1, 126970, Note_off_c, 0, 71, 59
1, 126982, Control_c, 0, 64, 96
1, 126991, Note_on_c, 0, 56, 63
1, 126995, Note_on_c, 0, 53, 61
1, 126998, Note_on_c, 0, 59, 63
1, 127009, Note_on_c, 0, 49, 49
1, 127048, Control_c, 0, 64, 96
1, 127071, Note_off_c, 0, 49, 55
1, 127082, Note_off_c, 0, 53, 57
1, 127086, Note_off_c, 0, 59, 49
1, 127098, Note_off_c, 0, 56, 42
1, 127107, Note_on_c, 0, 67, 71
1, 127107, Note_on_c, 0, 71, 81
1, 127157, Note_off_c, 0, 67, 59
1, 127182, Control_c, 0, 64, 97
1, 127193, Note_off_c, 0, 71, 57
1, 127211, Control_c, 0, 64, 98
1, 127220, Note_on_c, 0, 59, 62
1, 127221, Note_on_c, 0, 53, 58
1, 127224, Note_on_c, 0, 49, 53
1, 127241, Control_c, 0, 64, 98
1, 127259, Note_off_c, 0, 53, 60
1, 127275, Note_off_c, 0, 49, 59
1, 127277, Note_off_c, 0, 59, 48
1, 127334, Note_on_c, 0, 71, 82
1, 127336, Note_on_c, 0, 65, 69
1, 127366, Note_off_c, 0, 65, 67
1, 127382, Note_off_c, 0, 71, 64
1, 127419, Control_c, 0, 64, 99
1, 127423, Note_on_c, 0, 59, 64
1, 127428, Note_on_c, 0, 49, 57
1, 127434, Control_c, 0, 64, 99
1, 127442, Note_on_c, 0, 53, 55
1, 127449, Control_c, 0, 64, 100
1, 127463, Control_c, 0, 64, 101
1, 127479, Note_off_c, 0, 59, 60
1, 127480, Note_off_c, 0, 53, 63
1, 127492, Note_off_c, 0, 49, 58
1, 127523, Control_c, 0, 64, 100
1, 127537, Control_c, 0, 64, 97
1, 127552, Control_c, 0, 64, 89
1, 127565, Note_on_c, 0, 65, 59
1, 127565, Note_on_c, 0, 67, 61
1, 127566, Note_on_c, 0, 71, 70
1, 127567, Control_c, 0, 64, 76
1, 127582, Control_c, 0, 64, 64
1, 127597, Control_c, 0, 64, 55
1, 127611, Control_c, 0, 64, 53
1, 127626, Control_c, 0, 64, 55
1, 127641, Control_c, 0, 64, 60
1, 127656, Control_c, 0, 64, 65
1, 127668, Note_on_c, 0, 55, 54
1, 127670, Note_on_c, 0, 48, 47
1, 127670, Control_c, 0, 64, 72
1, 127671, Note_on_c, 0, 60, 54
1, 127685, Control_c, 0, 64, 82
1, 127694, Note_off_c, 0, 67, 56
1, 127700, Control_c, 0, 64, 96
1, 127707, Note_off_c, 0, 65, 54
1, 127715, Control_c, 0, 64, 113
1, 127730, Control_c, 0, 64, 127
1, 127734, Note_off_c, 0, 71, 59
1, 127755, Note_off_c, 0, 60, 57
1, 127764, Note_off_c, 0, 48, 44
1, 127767, Note_off_c, 0, 55, 55
1, 127794, Note_on_c, 0, 72, 91
1, 127796, Note_on_c, 0, 64, 74
1, 127822, Note_off_c, 0, 64, 68
1, 127839, Note_off_c, 0, 72, 66
1, 127883, Note_on_c, 0, 60, 67
1, 127888, Note_on_c, 0, 55, 62
1, 127900, Note_on_c, 0, 48, 55
1, 127929, Note_off_c, 0, 55, 62
1, 127957, Note_off_c, 0, 48, 54
1, 127960, Note_off_c, 0, 60, 56
1, 128010, Note_on_c, 0, 74, 93
1, 128015, Note_on_c, 0, 64, 78
1, 128016, Note_on_c, 0, 67, 75
1, 128045, Note_off_c, 0, 67, 66
1, 128049, Note_off_c, 0, 64, 60
1, 128070, Note_off_c, 0, 74, 66
1, 128115, Note_on_c, 0, 58, 66
1, 128116, Note_on_c, 0, 60, 60
1, 128122, Note_on_c, 0, 48, 54
1, 128164, Note_off_c, 0, 58, 59
1, 128193, Note_off_c, 0, 60, 57
1, 128196, Note_off_c, 0, 48, 53
1, 128254, Note_on_c, 0, 74, 98
1, 128258, Note_on_c, 0, 64, 82
1, 128259, Note_on_c, 0, 67, 79
1, 128303, Note_off_c, 0, 64, 62
1, 128310, Note_off_c, 0, 67, 62
1, 128324, Note_off_c, 0, 74, 67
1, 128365, Note_on_c, 0, 60, 61
1, 128367, Note_on_c, 0, 58, 69
1, 128368, Note_on_c, 0, 48, 55
1, 128434, Note_off_c, 0, 58, 60
1, 128468, Note_off_c, 0, 60, 55
1, 128476, Note_off_c, 0, 48, 53
1, 128546, Control_c, 0, 64, 105
1, 128553, Note_on_c, 0, 74, 90
1, 128556, Note_on_c, 0, 64, 77
1, 128558, Note_on_c, 0, 67, 74
1, 128560, Control_c, 0, 64, 81
1, 128575, Control_c, 0, 64, 67
1, 128590, Control_c, 0, 64, 58
1, 128619, Control_c, 0, 64, 60
1, 128634, Control_c, 0, 64, 63
1, 128649, Control_c, 0, 64, 66
1, 128659, Note_off_c, 0, 67, 58
1, 128663, Note_off_c, 0, 64, 60
1, 128664, Control_c, 0, 64, 70
1, 128678, Control_c, 0, 64, 76
1, 128686, Note_on_c, 0, 60, 64
1, 128690, Note_on_c, 0, 48, 64
1, 128693, Control_c, 0, 64, 81
1, 128695, Note_on_c, 0, 58, 64
1, 128705, Note_off_c, 0, 74, 63
1, 128708, Control_c, 0, 64, 84
1, 128723, Control_c, 0, 64, 85
1, 128738, Control_c, 0, 64, 87
1, 128752, Control_c, 0, 64, 88
1, 128758, Note_off_c, 0, 60, 60
1, 128764, Note_off_c, 0, 58, 59
1, 128767, Control_c, 0, 64, 89
1, 128773, Note_off_c, 0, 48, 59
1, 128782, Control_c, 0, 64, 90
1, 128797, Control_c, 0, 64, 91
1, 128800, Note_on_c, 0, 67, 63
1, 128802, Note_on_c, 0, 72, 82
1, 128809, Note_on_c, 0, 64, 64
1, 128812, Control_c, 0, 64, 93
1, 128827, Control_c, 0, 64, 95
1, 128837, Note_off_c, 0, 64, 64
1, 128840, Note_off_c, 0, 67, 61
1, 128842, Control_c, 0, 64, 98
1, 128857, Control_c, 0, 64, 99
1, 128872, Control_c, 0, 64, 101
1, 128878, Note_off_c, 0, 72, 64
1, 128888, Control_c, 0, 64, 102
1, 128893, Note_on_c, 0, 48, 57
1, 128896, Note_on_c, 0, 60, 61
1, 128896, Note_on_c, 0, 58, 60
1, 128902, Control_c, 0, 64, 103
1, 128917, Control_c, 0, 64, 104
1, 128932, Control_c, 0, 64, 105
1, 128940, Note_off_c, 0, 58, 53
1, 128942, Note_off_c, 0, 48, 57
1, 128947, Control_c, 0, 64, 106
1, 128963, Note_off_c, 0, 60, 56
1, 128991, Control_c, 0, 64, 104
1, 129006, Control_c, 0, 64, 98
1, 129016, Note_on_c, 0, 72, 75
1, 129018, Note_on_c, 0, 65, 63
1, 129021, Control_c, 0, 64, 85
1, 129036, Control_c, 0, 64, 70
1, 129051, Control_c, 0, 64, 61
1, 129063, Note_off_c, 0, 65, 61
1, 129065, Control_c, 0, 64, 59
1, 129080, Control_c, 0, 64, 61
1, 129095, Control_c, 0, 64, 63
1, 129110, Control_c, 0, 64, 66
1, 129115, Note_on_c, 0, 58, 47
1, 129115, Note_on_c, 0, 60, 51
1, 129119, Note_on_c, 0, 50, 57
1, 129123, Note_off_c, 0, 72, 56
1, 129125, Control_c, 0, 64, 71
1, 129140, Control_c, 0, 64, 78
1, 129155, Control_c, 0, 64, 84
1, 129170, Control_c, 0, 64, 87
1, 129184, Control_c, 0, 64, 89
1, 129197, Note_off_c, 0, 50, 57
1, 129199, Control_c, 0, 64, 90
1, 129203, Note_off_c, 0, 60, 56
1, 129214, Control_c, 0, 64, 92
1, 129226, Note_on_c, 0, 70, 74
1, 129228, Control_c, 0, 64, 93
1, 129231, Note_on_c, 0, 67, 66
1, 129243, Control_c, 0, 64, 95
1, 129258, Control_c, 0, 64, 98
1, 129262, Note_off_c, 0, 67, 66
1, 129280, Control_c, 0, 64, 99
1, 129289, Note_off_c, 0, 70, 63
1, 129295, Control_c, 0, 64, 101
1, 129306, Note_off_c, 0, 58, 0
1, 129310, Control_c, 0, 64, 101
1, 129325, Control_c, 0, 64, 102
1, 129325, Note_on_c, 0, 58, 20
1, 129329, Note_on_c, 0, 52, 55
1, 129337, Note_on_c, 0, 60, 60
1, 129339, Note_on_c, 0, 55, 53
1, 129355, Control_c, 0, 64, 103
1, 129378, Note_off_c, 0, 58, 62
1, 129378, Note_off_c, 0, 55, 62
1, 129381, Note_off_c, 0, 52, 56
1, 129384, Control_c, 0, 64, 103
1, 129399, Control_c, 0, 64, 103
1, 129413, Note_off_c, 0, 60, 56
1, 129414, Control_c, 0, 64, 101
1, 129428, Control_c, 0, 64, 96
1, 129443, Control_c, 0, 64, 84
1, 129458, Control_c, 0, 64, 72
1, 129463, Note_on_c, 0, 70, 60
1, 129469, Note_on_c, 0, 67, 54
1, 129473, Control_c, 0, 64, 62
1, 129488, Control_c, 0, 64, 53
1, 129502, Control_c, 0, 64, 51
1, 129517, Control_c, 0, 64, 52
1, 129532, Control_c, 0, 64, 54
1, 129547, Control_c, 0, 64, 58
1, 129562, Control_c, 0, 64, 62
1, 129565, Note_on_c, 0, 61, 54
1, 129574, Note_on_c, 0, 53, 43
1, 129576, Control_c, 0, 64, 64
1, 129591, Control_c, 0, 64, 67
1, 129606, Control_c, 0, 64, 71
1, 129621, Control_c, 0, 64, 75
1, 129622, Note_off_c, 0, 53, 57
1, 129635, Control_c, 0, 64, 80
1, 129636, Note_off_c, 0, 61, 57
1, 129647, Note_off_c, 0, 70, 40
1, 129650, Control_c, 0, 64, 83
1, 129665, Control_c, 0, 64, 86
1, 129670, Note_on_c, 0, 69, 74
1, 129681, Control_c, 0, 64, 90
1, 129683, Note_on_c, 0, 65, 63
1, 129696, Control_c, 0, 64, 96
1, 129697, Note_off_c, 0, 67, 36
1, 129708, Note_off_c, 0, 69, 61
1, 129711, Control_c, 0, 64, 101
1, 129716, Note_off_c, 0, 65, 67
1, 129725, Control_c, 0, 64, 104
1, 129740, Control_c, 0, 64, 105
1, 129755, Control_c, 0, 64, 105
1, 129770, Note_on_c, 0, 62, 65
1, 129770, Control_c, 0, 64, 106
1, 129775, Note_on_c, 0, 53, 58
1, 129785, Control_c, 0, 64, 107
1, 129799, Control_c, 0, 64, 109
1, 129808, Note_off_c, 0, 62, 59
1, 129809, Note_off_c, 0, 53, 62
1, 129814, Control_c, 0, 64, 111
1, 129829, Control_c, 0, 64, 115
1, 129843, Control_c, 0, 64, 117
1, 129858, Control_c, 0, 64, 119
1, 129880, Note_on_c, 0, 77, 96
1, 129885, Note_on_c, 0, 69, 79
1, 129888, Note_on_c, 0, 65, 74
1, 129888, Control_c, 0, 64, 120
1, 129903, Control_c, 0, 64, 125
1, 129914, Note_off_c, 0, 65, 67
1, 129914, Note_off_c, 0, 69, 63
1, 129918, Control_c, 0, 64, 127
1, 129943, Note_off_c, 0, 77, 67
1, 129989, Note_on_c, 0, 62, 62
1, 129990, Note_on_c, 0, 53, 64
1, 129995, Note_on_c, 0, 57, 58
1, 130009, Note_on_c, 0, 50, 41
1, 130052, Note_off_c, 0, 57, 54
1, 130053, Note_off_c, 0, 53, 56
1, 130064, Note_off_c, 0, 62, 49
1, 130066, Note_off_c, 0, 50, 49
1, 130126, Note_on_c, 0, 77, 102
1, 130127, Note_on_c, 0, 65, 83
1, 130130, Note_on_c, 0, 69, 85
1, 130153, Note_off_c, 0, 65, 64
1, 130174, Note_off_c, 0, 69, 63
1, 130192, Note_off_c, 0, 77, 68
1, 130241, Note_on_c, 0, 53, 63
1, 130247, Note_on_c, 0, 57, 63
1, 130248, Note_on_c, 0, 62, 62
1, 130254, Note_on_c, 0, 50, 55
1, 130288, Note_off_c, 0, 57, 62
1, 130292, Note_off_c, 0, 53, 61
1, 130323, Note_off_c, 0, 62, 53
1, 130324, Note_off_c, 0, 50, 61
1, 130408, Note_on_c, 0, 77, 89
1, 130412, Note_on_c, 0, 70, 77
1, 130414, Note_on_c, 0, 67, 76
1, 130443, Control_c, 0, 64, 86
1, 130457, Control_c, 0, 64, 68
1, 130472, Control_c, 0, 64, 56
1, 130487, Control_c, 0, 64, 55
1, 130502, Control_c, 0, 64, 56
1, 130507, Note_on_c, 0, 50, 36
1, 130517, Control_c, 0, 64, 59
1, 130524, Note_on_c, 0, 55, 52
1, 130528, Note_on_c, 0, 58, 51
1, 130528, Note_on_c, 0, 62, 42
1, 130532, Control_c, 0, 64, 63
1, 130547, Control_c, 0, 64, 68
1, 130562, Control_c, 0, 64, 77
1, 130577, Control_c, 0, 64, 86
1, 130582, Note_off_c, 0, 67, 49
1, 130590, Note_off_c, 0, 77, 58
1, 130592, Control_c, 0, 64, 95
1, 130596, Note_off_c, 0, 70, 35
1, 130607, Control_c, 0, 64, 102
1, 130607, Note_off_c, 0, 58, 52
1, 130621, Control_c, 0, 64, 110
1, 130623, Note_off_c, 0, 55, 55
1, 130636, Control_c, 0, 64, 127
1, 130653, Note_off_c, 0, 62, 38
1, 130671, Note_on_c, 0, 70, 51
1, 130676, Note_on_c, 0, 75, 73
1, 130684, Note_off_c, 0, 50, 44
1, 130687, Note_on_c, 0, 67, 53
1, 130732, Note_off_c, 0, 70, 57
1, 130742, Note_off_c, 0, 67, 52
1, 130762, Note_off_c, 0, 75, 58
1, 130803, Note_on_c, 0, 55, 50
1, 130806, Note_on_c, 0, 62, 49
1, 130813, Note_on_c, 0, 58, 48
1, 130818, Note_on_c, 0, 50, 41
1, 130859, Note_off_c, 0, 58, 58
1, 130868, Note_off_c, 0, 55, 60
1, 130873, Note_off_c, 0, 62, 46
1, 130879, Note_off_c, 0, 50, 52
1, 130895, Note_on_c, 0, 74, 69
1, 130902, Note_on_c, 0, 70, 56
1, 130910, Note_on_c, 0, 67, 49
1, 130961, Note_off_c, 0, 67, 54
1, 130966, Note_off_c, 0, 70, 55
1, 130991, Note_off_c, 0, 74, 54
1, 131021, Note_on_c, 0, 55, 45
1, 131030, Note_on_c, 0, 62, 43
1, 131039, Note_on_c, 0, 50, 38
1, 131048, Note_on_c, 0, 58, 30
1, 131083, Note_off_c, 0, 58, 52
1, 131085, Note_off_c, 0, 55, 57
1, 131091, Note_off_c, 0, 50, 53
1, 131104, Note_off_c, 0, 62, 54
1, 131120, Note_on_c, 0, 70, 58
1, 131123, Note_on_c, 0, 73, 68
1, 131126, Note_on_c, 0, 67, 55
1, 131174, Note_off_c, 0, 67, 61
1, 131179, Note_off_c, 0, 70, 59
1, 131195, Note_off_c, 0, 73, 61
1, 131248, Note_on_c, 0, 62, 48
1, 131253, Note_on_c, 0, 55, 39
1, 131256, Note_on_c, 0, 50, 38
1, 131266, Note_on_c, 0, 58, 25
1, 131296, Note_off_c, 0, 62, 55
1, 131302, Note_off_c, 0, 55, 59
1, 131308, Note_off_c, 0, 58, 44
1, 131311, Note_off_c, 0, 50, 55
1, 131382, Note_on_c, 0, 73, 56
1, 131385, Control_c, 0, 64, 101
1, 131387, Note_on_c, 0, 69, 52
1, 131389, Note_on_c, 0, 65, 43
1, 131400, Control_c, 0, 64, 78
1, 131414, Control_c, 0, 64, 66
1, 131429, Control_c, 0, 64, 58
1, 131444, Control_c, 0, 64, 55
1, 131459, Control_c, 0, 64, 56
1, 131468, Note_off_c, 0, 69, 50
1, 131469, Note_off_c, 0, 65, 47
1, 131474, Control_c, 0, 64, 57
1, 131489, Control_c, 0, 64, 61
1, 131503, Control_c, 0, 64, 64
1, 131513, Note_on_c, 0, 62, 39
1, 131525, Control_c, 0, 64, 68
1, 131529, Note_on_c, 0, 53, 35
1, 131534, Note_on_c, 0, 57, 31
1, 131540, Control_c, 0, 64, 74
1, 131555, Control_c, 0, 64, 82
1, 131565, Note_on_c, 0, 50, 31
1, 131570, Control_c, 0, 64, 90
1, 131575, Note_off_c, 0, 73, 37
1, 131584, Control_c, 0, 64, 100
1, 131599, Control_c, 0, 64, 107
1, 131614, Note_on_c, 0, 74, 57
1, 131614, Control_c, 0, 64, 116
1, 131617, Note_off_c, 0, 57, 50
1, 131618, Note_on_c, 0, 69, 55
1, 131619, Note_off_c, 0, 50, 45
1, 131629, Note_on_c, 0, 65, 46
1, 131629, Control_c, 0, 64, 127
1, 131635, Note_off_c, 0, 53, 37
1, 131643, Note_off_c, 0, 62, 37
1, 131662, Note_off_c, 0, 69, 61
1, 131677, Note_off_c, 0, 65, 55
1, 131690, Note_off_c, 0, 74, 58
1, 131767, Note_on_c, 0, 62, 32
1, 131781, Note_on_c, 0, 53, 36
1, 131785, Note_on_c, 0, 57, 36
1, 131796, Note_on_c, 0, 50, 8
1, 131846, Note_off_c, 0, 57, 52
1, 131850, Note_off_c, 0, 53, 46
1, 131861, Note_off_c, 0, 50, 44
1, 131866, Note_off_c, 0, 62, 50
1, 131871, Note_on_c, 0, 77, 61
1, 131880, Note_on_c, 0, 69, 48
1, 131885, Note_on_c, 0, 65, 43
1, 131951, Note_off_c, 0, 65, 54
1, 131960, Note_off_c, 0, 69, 58
1, 131968, Note_off_c, 0, 77, 56
1, 132026, Note_on_c, 0, 62, 35
1, 132034, Note_on_c, 0, 53, 35
1, 132037, Note_on_c, 0, 57, 28
1, 132040, Note_on_c, 0, 50, 15
1, 132100, Note_off_c, 0, 50, 44
1, 132102, Note_off_c, 0, 57, 47
1, 132106, Note_off_c, 0, 53, 48
1, 132131, Note_off_c, 0, 62, 36
1, 132139, Note_on_c, 0, 77, 59
1, 132144, Note_on_c, 0, 65, 42
1, 132154, Note_on_c, 0, 69, 41
1, 132195, Note_off_c, 0, 69, 55
1, 132207, Note_off_c, 0, 65, 36
1, 132229, Note_off_c, 0, 77, 55
1, 132294, Note_on_c, 0, 62, 38
1, 132297, Note_on_c, 0, 57, 29
1, 132302, Note_on_c, 0, 53, 34
1, 132347, Note_off_c, 0, 57, 48
1, 132358, Note_off_c, 0, 53, 45
1, 132364, Poly_aftertouch_c, 0, 50, 127
1, 132372, Note_off_c, 0, 62, 50
1, 132402, Poly_aftertouch_c, 0, 50, 0
1, 132407, Control_c, 0, 64, 112
1, 132419, Note_on_c, 0, 77, 56
1, 132422, Control_c, 0, 64, 89
1, 132435, Note_on_c, 0, 67, 43
1, 132436, Note_on_c, 0, 70, 44
1, 132437, Control_c, 0, 64, 73
1, 132452, Control_c, 0, 64, 63
1, 132467, Control_c, 0, 64, 59
1, 132482, Control_c, 0, 64, 60
1, 132497, Control_c, 0, 64, 60
1, 132508, Note_off_c, 0, 70, 48
1, 132511, Control_c, 0, 64, 62
1, 132526, Control_c, 0, 64, 66
1, 132541, Control_c, 0, 64, 69
1, 132556, Control_c, 0, 64, 75
1, 132559, Note_off_c, 0, 67, 35
1, 132559, Note_on_c, 0, 62, 32
1, 132571, Control_c, 0, 64, 82
1, 132576, Note_on_c, 0, 55, 42
1, 132581, Note_off_c, 0, 77, 54
1, 132586, Control_c, 0, 64, 89
1, 132590, Note_on_c, 0, 58, 41
1, 132592, Note_on_c, 0, 50, 19
1, 132600, Control_c, 0, 64, 96
1, 132615, Control_c, 0, 64, 106
1, 132631, Control_c, 0, 64, 117
1, 132645, Control_c, 0, 64, 127
1, 132651, Note_off_c, 0, 55, 52
1, 132658, Note_off_c, 0, 58, 46
1, 132701, Note_on_c, 0, 70, 48
1, 132702, Note_off_c, 0, 50, 30
1, 132708, Note_on_c, 0, 75, 53
1, 132711, Note_on_c, 0, 67, 39
1, 132720, Note_off_c, 0, 62, 34
1, 132765, Note_off_c, 0, 70, 51
1, 132780, Note_off_c, 0, 67, 50
1, 132794, Note_off_c, 0, 75, 52
1, 132879, Note_on_c, 0, 62, 35
1, 132885, Note_on_c, 0, 58, 28
1, 132893, Note_on_c, 0, 55, 17
1, 132895, Note_on_c, 0, 50, 15
1, 132937, Note_off_c, 0, 58, 51
1, 132947, Note_off_c, 0, 55, 46
1, 132964, Note_off_c, 0, 50, 40
1, 132988, Note_on_c, 0, 74, 50
1, 132989, Note_on_c, 0, 70, 45
1, 132990, Note_off_c, 0, 62, 35
1, 132997, Note_on_c, 0, 67, 41
1, 133057, Note_off_c, 0, 70, 50
1, 133085, Note_off_c, 0, 67, 45
1, 133114, Note_off_c, 0, 74, 51
1, 133167, Note_on_c, 0, 62, 30
1, 133179, Note_on_c, 0, 55, 37
1, 133182, Note_on_c, 0, 50, 20
1, 133189, Note_on_c, 0, 58, 34
1, 133259, Note_off_c, 0, 55, 49
1, 133260, Note_off_c, 0, 58, 44
1, 133328, Note_off_c, 0, 50, 30
1, 133334, Note_off_c, 0, 62, 32
1, 133354, Note_on_c, 0, 73, 45
1, 133358, Note_on_c, 0, 67, 32
1, 133358, Note_on_c, 0, 70, 40
1, 133495, Note_off_c, 0, 70, 36
1, 133527, Note_off_c, 0, 67, 32
1, 133553, Note_on_c, 0, 62, 33
1, 133563, Note_on_c, 0, 55, 34
1, 133589, Note_on_c, 0, 58, 9
1, 133594, Note_on_c, 0, 50, 5
1, 133647, Note_off_c, 0, 58, 45
1, 133656, Note_off_c, 0, 73, 33
1, 133751, Note_off_c, 0, 55, 41
1, 133968, Note_on_c, 0, 74, 42
1, 133970, Note_on_c, 0, 65, 35
1, 133979, Note_on_c, 0, 69, 35
1, 133984, Note_on_c, 0, 53, 38
1, 133984, Note_on_c, 0, 57, 36
1, 134024, Control_c, 0, 64, 122
1, 134039, Control_c, 0, 64, 101
1, 134053, Control_c, 0, 64, 88
1, 134068, Control_c, 0, 64, 77
1, 134083, Control_c, 0, 64, 67
1, 134097, Control_c, 0, 64, 56
1, 134112, Control_c, 0, 64, 34
1, 134127, Control_c, 0, 64, 0
1, 134788, Control_c, 0, 64, 16
1, 134802, Control_c, 0, 64, 29
1, 134817, Control_c, 0, 64, 38
1, 134832, Control_c, 0, 64, 45
1, 134847, Control_c, 0, 64, 51
1, 134862, Control_c, 0, 64, 54
1, 134876, Control_c, 0, 64, 57
1, 134891, Control_c, 0, 64, 59
1, 134906, Control_c, 0, 64, 62
1, 134920, Control_c, 0, 64, 64
1, 134928, Note_off_c, 0, 50, 38
1, 134935, Control_c, 0, 64, 66
1, 134950, Control_c, 0, 64, 70
1, 134965, Note_off_c, 0, 57, 36
1, 134965, Control_c, 0, 64, 74
1, 134970, Note_off_c, 0, 62, 37
1, 134980, Control_c, 0, 64, 78
1, 134985, Note_off_c, 0, 53, 41
1, 134994, Control_c, 0, 64, 82
1, 135009, Control_c, 0, 64, 86
1, 135012, Note_off_c, 0, 65, 38
1, 135024, Control_c, 0, 64, 89
1, 135026, Note_off_c, 0, 74, 24
1, 135039, Control_c, 0, 64, 91
1, 135051, Note_off_c, 0, 69, 36
1, 135099, Control_c, 0, 64, 90
1, 135113, Control_c, 0, 64, 88
1, 135128, Control_c, 0, 64, 84
1, 135143, Control_c, 0, 64, 80
1, 135158, Control_c, 0, 64, 75
1, 135173, Control_c, 0, 64, 70
1, 135187, Control_c, 0, 64, 67
1, 135202, Control_c, 0, 64, 64
1, 135217, Control_c, 0, 64, 60
1, 135232, Control_c, 0, 64, 57
1, 135246, Control_c, 0, 64, 54
1, 135270, Control_c, 0, 64, 52
1, 135285, Control_c, 0, 64, 49
1, 135299, Control_c, 0, 64, 47
1, 135314, Control_c, 0, 64, 44
1, 135329, Control_c, 0, 64, 42
1, 135343, Control_c, 0, 64, 40
1, 135358, Control_c, 0, 64, 39
1, 135373, Control_c, 0, 64, 38
1, 135388, Control_c, 0, 64, 38
1, 135403, Control_c, 0, 64, 37
1, 135418, Control_c, 0, 64, 37
1, 135448, Control_c, 0, 64, 36
1, 135646, Note_on_c, 0, 81, 64
1, 135654, Note_on_c, 0, 77, 55
1, 135658, Note_on_c, 0, 74, 54
1, 135662, Note_on_c, 0, 62, 38
1, 135674, Note_on_c, 0, 65, 28
1, 135674, Note_off_c, 0, 81, 68
1, 135676, Note_on_c, 0, 69, 9
1, 135686, Note_off_c, 0, 77, 64
1, 135689, Note_off_c, 0, 62, 58
1, 135690, Note_off_c, 0, 74, 65
1, 135700, Note_off_c, 0, 69, 45
1, 135707, Note_off_c, 0, 65, 45
1, 135966, Control_c, 0, 64, 37
1, 135975, Note_on_c, 0, 62, 45
1, 135975, Note_on_c, 0, 65, 43
1, 135976, Note_on_c, 0, 57, 44
1, 135983, Note_on_c, 0, 69, 47
1, 135992, Note_on_c, 0, 38, 36
1, 135992, Note_on_c, 0, 50, 39
1, 136016, Note_off_c, 0, 57, 58
1, 136017, Control_c, 0, 64, 37
1, 136023, Note_off_c, 0, 62, 64
1, 136023, Note_off_c, 0, 65, 64
1, 136029, Note_off_c, 0, 50, 56
1, 136035, Note_off_c, 0, 38, 59
1, 136047, Note_off_c, 0, 69, 62
1, 136047, Control_c, 0, 64, 38
1, 136241, Control_c, 0, 64, 38
1, 136255, Control_c, 0, 64, 39
1, 136265, Note_on_c, 0, 68, 56
1, 136270, Control_c, 0, 64, 39
1, 136271, Note_on_c, 0, 65, 39
1, 136273, Note_on_c, 0, 47, 43
1, 136275, Note_on_c, 0, 35, 27
1, 136276, Note_on_c, 0, 62, 26
1, 136285, Control_c, 0, 64, 40
1, 136297, Note_off_c, 0, 68, 64
1, 136300, Note_off_c, 0, 47, 60
1, 136300, Control_c, 0, 64, 40
1, 136300, Note_off_c, 0, 65, 51
1, 136312, Note_off_c, 0, 62, 41
1, 136319, Note_off_c, 0, 35, 42
1, 136330, Control_c, 0, 64, 41
1, 136529, Note_on_c, 0, 80, 58
1, 136533, Note_on_c, 0, 71, 54
1, 136537, Note_on_c, 0, 77, 56
1, 136539, Note_on_c, 0, 74, 50
1, 136558, Note_off_c, 0, 77, 63
1, 136559, Note_off_c, 0, 74, 61
1, 136562, Note_off_c, 0, 80, 66
1, 136563, Note_off_c, 0, 71, 66
1, 136799, Note_on_c, 0, 86, 67
1, 136802, Note_on_c, 0, 70, 50
1, 136804, Note_on_c, 0, 79, 56
1, 136812, Note_on_c, 0, 76, 60
1, 136823, Note_off_c, 0, 79, 65
1, 136826, Note_off_c, 0, 70, 59
1, 136826, Note_off_c, 0, 86, 66
1, 136826, Control_c, 0, 64, 41
1, 136843, Note_off_c, 0, 76, 67
1, 136886, Control_c, 0, 64, 42
1, 137061, Note_on_c, 0, 74, 50
1, 137067, Note_on_c, 0, 43, 45
1, 137071, Note_on_c, 0, 64, 47
1, 137072, Note_on_c, 0, 67, 50
1, 137074, Note_on_c, 0, 70, 45
1, 137083, Note_on_c, 0, 55, 42
1, 137103, Note_off_c, 0, 43, 64
1, 137109, Note_off_c, 0, 67, 64
1, 137111, Note_off_c, 0, 70, 62
1, 137112, Note_off_c, 0, 55, 57
1, 137117, Note_off_c, 0, 64, 61
1, 137125, Note_off_c, 0, 74, 56
1, 137138, Control_c, 0, 64, 42
1, 137153, Control_c, 0, 64, 43
1, 137168, Control_c, 0, 64, 44
1, 137183, Control_c, 0, 64, 45
1, 137212, Control_c, 0, 64, 46
1, 137314, Note_on_c, 0, 67, 47
1, 137319, Note_on_c, 0, 45, 49
1, 137327, Note_on_c, 0, 57, 51
1, 137332, Note_on_c, 0, 64, 20
1, 137338, Note_off_c, 0, 67, 60
1, 137347, Note_off_c, 0, 45, 56
1, 137361, Note_off_c, 0, 57, 65
1, 137371, Note_off_c, 0, 64, 40
1, 137390, Control_c, 0, 64, 45
1, 137435, Control_c, 0, 64, 45
1, 137479, Control_c, 0, 64, 44
1, 137566, Note_on_c, 0, 80, 69
1, 137575, Note_on_c, 0, 65, 53
1, 137577, Note_on_c, 0, 77, 57
1, 137585, Note_on_c, 0, 71, 47
1, 137595, Note_off_c, 0, 77, 63
1, 137596, Note_off_c, 0, 80, 66
1, 137600, Note_on_c, 0, 62, 20
1, 137608, Note_off_c, 0, 71, 59
1, 137614, Note_off_c, 0, 65, 64
1, 137633, Note_off_c, 0, 62, 42
1, 137811, Note_on_c, 0, 88, 77
1, 137823, Note_on_c, 0, 79, 40
1, 137824, Note_on_c, 0, 76, 71
1, 137825, Note_on_c, 0, 61, 61
1, 137832, Note_off_c, 0, 88, 72
1, 137843, Note_on_c, 0, 64, 34
1, 137849, Note_off_c, 0, 79, 54
1, 137850, Note_off_c, 0, 76, 67
1, 137858, Note_off_c, 0, 61, 65
1, 137875, Note_off_c, 0, 64, 47
1, 138065, Control_c, 0, 64, 44
1, 138072, Note_on_c, 0, 69, 58
1, 138081, Note_on_c, 0, 67, 50
1, 138088, Note_on_c, 0, 33, 47
1, 138092, Note_on_c, 0, 45, 46
1, 138107, Note_off_c, 0, 69, 62
1, 138118, Note_off_c, 0, 67, 65
1, 138121, Note_off_c, 0, 33, 53
1, 138122, Note_off_c, 0, 45, 61
1, 138327, Note_on_c, 0, 69, 51
1, 138331, Note_on_c, 0, 65, 43
1, 138332, Note_on_c, 0, 74, 49
1, 138333, Note_on_c, 0, 50, 55
1, 138333, Note_on_c, 0, 77, 57
1, 138334, Note_on_c, 0, 38, 41
1, 138351, Note_off_c, 0, 69, 63
1, 138357, Note_off_c, 0, 65, 57
1, 138365, Note_off_c, 0, 50, 65
1, 138366, Note_off_c, 0, 74, 64
1, 138369, Note_off_c, 0, 38, 48
1, 138371, Note_off_c, 0, 77, 64
1, 138563, Note_on_c, 0, 74, 71
1, 138571, Note_on_c, 0, 69, 62
1, 138578, Note_on_c, 0, 62, 44
1, 138582, Note_on_c, 0, 53, 38
1, 138589, Note_off_c, 0, 74, 68
1, 138597, Note_off_c, 0, 69, 64
1, 138613, Note_off_c, 0, 53, 55
1, 138613, Note_off_c, 0, 62, 65
1, 138807, Note_on_c, 0, 82, 68
1, 138814, Note_on_c, 0, 74, 57
1, 138825, Note_on_c, 0, 67, 28
1, 138826, Note_on_c, 0, 55, 27
1, 138828, Note_on_c, 0, 70, 47
1, 138834, Note_off_c, 0, 82, 68
1, 138840, Note_off_c, 0, 74, 63
1, 138850, Note_on_c, 0, 58, 13
1, 138852, Note_off_c, 0, 70, 58
1, 138859, Note_off_c, 0, 67, 41
1, 138867, Note_off_c, 0, 55, 42
1, 138882, Note_off_c, 0, 58, 39
1, 138932, Control_c, 0, 64, 43
1, 139014, Control_c, 0, 64, 43
1, 139063, Note_on_c, 0, 67, 60
1, 139077, Note_on_c, 0, 34, 47
1, 139080, Note_on_c, 0, 62, 29
1, 139089, Note_on_c, 0, 46, 25
1, 139096, Note_off_c, 0, 67, 65
1, 139108, Note_off_c, 0, 62, 48
1, 139111, Note_off_c, 0, 34, 57
1, 139129, Note_off_c, 0, 46, 42
1, 139304, Note_on_c, 0, 73, 58
1, 139310, Note_on_c, 0, 61, 41
1, 139314, Note_on_c, 0, 45, 38
1, 139332, Note_on_c, 0, 69, 24
1, 139338, Note_off_c, 0, 61, 60
1, 139344, Note_off_c, 0, 45, 53
1, 139350, Note_off_c, 0, 73, 62
1, 139358, Note_off_c, 0, 69, 48
1, 139365, Poly_aftertouch_c, 0, 64, 0
1, 139385, Poly_aftertouch_c, 0, 33, 0
1, 139518, Control_c, 0, 64, 42
1, 139533, Note_on_c, 0, 69, 76
1, 139552, Note_on_c, 0, 67, 44
1, 139555, Note_on_c, 0, 64, 35
1, 139558, Note_off_c, 0, 69, 68
1, 139579, Note_off_c, 0, 67, 60
1, 139583, Note_off_c, 0, 64, 55
1, 139600, Note_on_c, 0, 61, 2
1, 139641, Note_off_c, 0, 61, 34
1, 139666, Control_c, 0, 64, 42
1, 139681, Control_c, 0, 64, 41
1, 139773, Note_on_c, 0, 81, 65
1, 139775, Note_on_c, 0, 77, 61
1, 139776, Note_on_c, 0, 74, 62
1, 139778, Note_on_c, 0, 69, 65
1, 139779, Note_on_c, 0, 62, 30
1, 139794, Note_off_c, 0, 81, 66
1, 139806, Note_off_c, 0, 77, 65
1, 139807, Note_off_c, 0, 74, 66
1, 139809, Note_off_c, 0, 62, 46
1, 139810, Note_off_c, 0, 69, 64
1, 140018, Note_on_c, 0, 38, 43
1, 140020, Note_on_c, 0, 69, 46
1, 140026, Note_on_c, 0, 60, 45
1, 140026, Note_on_c, 0, 50, 46
1, 140032, Note_on_c, 0, 62, 35
1, 140042, Note_on_c, 0, 65, 39
1, 140052, Note_off_c, 0, 38, 59
1, 140056, Note_off_c, 0, 50, 61
1, 140065, Note_off_c, 0, 62, 57
1, 140073, Note_off_c, 0, 60, 61
1, 140077, Note_off_c, 0, 65, 57
1, 140077, Note_off_c, 0, 69, 56
1, 140089, Control_c, 0, 64, 42
1, 140104, Control_c, 0, 64, 43
1, 140119, Control_c, 0, 64, 43
1, 140134, Control_c, 0, 64, 44
1, 140223, Control_c, 0, 64, 43
1, 140238, Control_c, 0, 64, 43
1, 140253, Control_c, 0, 64, 42
1, 140257, Note_on_c, 0, 62, 31
1, 140258, Note_on_c, 0, 43, 49
1, 140261, Note_on_c, 0, 55, 56
1, 140269, Note_on_c, 0, 59, 27
1, 140270, Note_on_c, 0, 65, 34
1, 140270, Note_on_c, 0, 67, 52
1, 140282, Control_c, 0, 64, 42
1, 140286, Note_off_c, 0, 43, 58
1, 140287, Note_off_c, 0, 62, 55
1, 140295, Note_off_c, 0, 59, 48
1, 140297, Note_off_c, 0, 55, 64
1, 140299, Note_off_c, 0, 65, 52
1, 140301, Note_off_c, 0, 67, 65
1, 140485, Note_on_c, 0, 62, 45
1, 140485, Note_on_c, 0, 74, 63
1, 140485, Note_on_c, 0, 77, 70
1, 140486, Note_on_c, 0, 79, 72
1, 140490, Note_on_c, 0, 59, 49
1, 140512, Note_on_c, 0, 67, 48
1, 140522, Note_off_c, 0, 74, 67
1, 140522, Note_off_c, 0, 77, 67
1, 140524, Note_off_c, 0, 79, 67
1, 140530, Note_off_c, 0, 62, 64
1, 140531, Note_off_c, 0, 59, 64
1, 140545, Note_off_c, 0, 67, 59
1, 140720, Note_on_c, 0, 79, 73
1, 140727, Note_on_c, 0, 63, 52
1, 140729, Note_on_c, 0, 75, 54
1, 140730, Note_on_c, 0, 60, 61
1, 140736, Note_on_c, 0, 72, 64
1, 140744, Note_off_c, 0, 79, 70
1, 140751, Note_off_c, 0, 75, 62
1, 140752, Note_off_c, 0, 63, 62
1, 140758, Note_off_c, 0, 60, 65
1, 140764, Note_off_c, 0, 72, 67
1, 140955, Note_on_c, 0, 67, 61
1, 140965, Note_on_c, 0, 58, 64
1, 140967, Note_on_c, 0, 48, 58
1, 140970, Note_on_c, 0, 36, 52
1, 140970, Note_on_c, 0, 60, 48
1, 140971, Note_on_c, 0, 63, 49
1, 140972, Control_c, 0, 64, 42
1, 140987, Control_c, 0, 64, 43
1, 141000, Note_off_c, 0, 48, 65
1, 141001, Note_off_c, 0, 36, 61
1, 141002, Control_c, 0, 64, 44
1, 141003, Note_off_c, 0, 58, 65
1, 141007, Note_off_c, 0, 60, 63
1, 141007, Note_off_c, 0, 67, 62
1, 141018, Note_off_c, 0, 63, 58
1, 141076, Control_c, 0, 64, 43
1, 141091, Control_c, 0, 64, 42
1, 141105, Control_c, 0, 64, 41
1, 141120, Control_c, 0, 64, 40
1, 141135, Control_c, 0, 64, 39
1, 141150, Control_c, 0, 64, 38
1, 141165, Control_c, 0, 64, 38
1, 141188, Note_on_c, 0, 41, 62
1, 141192, Note_on_c, 0, 53, 64
1, 141197, Note_on_c, 0, 57, 46
1, 141199, Note_on_c, 0, 60, 42
1, 141200, Note_on_c, 0, 65, 67
1, 141201, Note_on_c, 0, 63, 56
1, 141219, Note_off_c, 0, 41, 65
1, 141224, Note_off_c, 0, 57, 57
1, 141225, Control_c, 0, 64, 37
1, 141225, Note_off_c, 0, 60, 54
1, 141227, Note_off_c, 0, 65, 67
1, 141229, Note_off_c, 0, 53, 65
1, 141231, Note_off_c, 0, 63, 65
1, 141239, Control_c, 0, 64, 38
1, 141415, Note_on_c, 0, 60, 53
1, 141424, Note_on_c, 0, 77, 82
1, 141427, Note_on_c, 0, 72, 67
1, 141428, Note_on_c, 0, 75, 68
1, 141436, Note_on_c, 0, 65, 61
1, 141441, Note_on_c, 0, 57, 56
1, 141452, Note_off_c, 0, 72, 67
1, 141457, Note_off_c, 0, 75, 66
1, 141458, Note_off_c, 0, 60, 66
1, 141466, Note_off_c, 0, 77, 65
1, 141470, Note_off_c, 0, 57, 64
1, 141475, Note_off_c, 0, 65, 57
1, 141663, Note_on_c, 0, 74, 71
1, 141663, Note_on_c, 0, 77, 82
1, 141665, Note_on_c, 0, 65, 54
1, 141665, Note_on_c, 0, 70, 79
1, 141666, Note_on_c, 0, 58, 66
1, 141669, Note_on_c, 0, 62, 56
1, 141688, Note_off_c, 0, 65, 59
1, 141688, Note_off_c, 0, 74, 68
1, 141692, Note_off_c, 0, 77, 64
1, 141696, Note_off_c, 0, 70, 65
1, 141698, Note_off_c, 0, 62, 64
1, 141699, Note_off_c, 0, 58, 67
1, 141911, Note_on_c, 0, 63, 57
1, 141912, Note_on_c, 0, 60, 54
1, 141914, Note_on_c, 0, 66, 57
1, 141918, Note_on_c, 0, 33, 51
1, 141921, Note_on_c, 0, 45, 38
1, 141946, Note_off_c, 0, 60, 66
1, 141948, Note_off_c, 0, 63, 60
1, 141954, Note_off_c, 0, 45, 52
1, 141965, Note_off_c, 0, 66, 54
1, 141968, Note_off_c, 0, 33, 58
1, 142128, Control_c, 0, 64, 38
1, 142138, Note_on_c, 0, 58, 58
1, 142145, Note_on_c, 0, 46, 62
1, 142145, Note_on_c, 0, 62, 48
1, 142146, Note_on_c, 0, 34, 49
1, 142148, Note_on_c, 0, 67, 58
1, 142157, Control_c, 0, 64, 39
1, 142169, Note_off_c, 0, 58, 64
1, 142171, Note_off_c, 0, 62, 57
1, 142175, Note_off_c, 0, 46, 65
1, 142179, Note_off_c, 0, 67, 65
1, 142181, Note_off_c, 0, 34, 62
1, 142186, Control_c, 0, 64, 39
1, 142367, Note_on_c, 0, 59, 87
1, 142367, Note_on_c, 0, 77, 85
1, 142370, Note_on_c, 0, 74, 75
1, 142374, Note_on_c, 0, 68, 73
1, 142396, Note_off_c, 0, 74, 68
1, 142399, Note_off_c, 0, 68, 69
1, 142400, Note_off_c, 0, 59, 66
1, 142415, Note_off_c, 0, 77, 63
1, 142598, Note_on_c, 0, 60, 68
1, 142599, Note_on_c, 0, 77, 77
1, 142601, Note_on_c, 0, 68, 75
1, 142602, Note_on_c, 0, 72, 69
1, 142603, Note_on_c, 0, 78, 69
1, 142617, Note_off_c, 0, 60, 65
1, 142626, Note_off_c, 0, 72, 68
1, 142626, Note_off_c, 0, 68, 69
1, 142626, Note_off_c, 0, 77, 65
1, 142632, Note_off_c, 0, 78, 66
1, 142857, Note_on_c, 0, 48, 58
1, 142858, Note_on_c, 0, 36, 40
1, 142858, Note_on_c, 0, 55, 65
1, 142858, Note_on_c, 0, 64, 68
1, 142866, Note_on_c, 0, 58, 57
1, 142885, Note_off_c, 0, 55, 66
1, 142888, Note_off_c, 0, 48, 64
1, 142894, Note_off_c, 0, 58, 64
1, 142896, Note_off_c, 0, 36, 49
1, 142906, Control_c, 0, 64, 39
1, 142909, Note_off_c, 0, 64, 63
1, 142935, Control_c, 0, 64, 38
1, 142950, Control_c, 0, 64, 38
1, 142959, Note_on_c, 0, 61, 51
1, 142965, Control_c, 0, 64, 37
1, 142980, Control_c, 0, 64, 37
1, 142984, Note_off_c, 0, 61, 61
1, 142995, Control_c, 0, 64, 36
1, 143064, Note_on_c, 0, 60, 47
1, 143069, Control_c, 0, 64, 38
1, 143072, Note_on_c, 0, 53, 71
1, 143073, Note_on_c, 0, 41, 57
1, 143076, Note_on_c, 0, 65, 78
1, 143078, Note_on_c, 0, 57, 58
1, 143083, Control_c, 0, 64, 40
1, 143098, Control_c, 0, 64, 42
1, 143103, Note_off_c, 0, 41, 55
1, 143103, Note_off_c, 0, 65, 68
1, 143103, Note_off_c, 0, 53, 67
1, 143103, Note_off_c, 0, 60, 67
1, 143106, Note_off_c, 0, 57, 64
1, 143113, Control_c, 0, 64, 43
1, 143128, Control_c, 0, 64, 44
1, 143172, Control_c, 0, 64, 43
1, 143187, Control_c, 0, 64, 42
1, 143201, Control_c, 0, 64, 41
1, 143231, Control_c, 0, 64, 41
1, 143298, Note_on_c, 0, 60, 67
1, 143298, Note_on_c, 0, 72, 95
1, 143299, Note_on_c, 0, 57, 66
1, 143311, Note_on_c, 0, 53, 49
1, 143321, Control_c, 0, 64, 40
1, 143326, Note_off_c, 0, 57, 67
1, 143326, Note_off_c, 0, 60, 67
1, 143337, Note_off_c, 0, 72, 66
1, 143338, Note_off_c, 0, 53, 57
1, 143410, Control_c, 0, 64, 40
1, 143454, Control_c, 0, 64, 39
1, 143526, Note_on_c, 0, 60, 53
1, 143528, Note_on_c, 0, 84, 83
1, 143529, Note_on_c, 0, 82, 76
1, 143532, Note_on_c, 0, 52, 66
1, 143532, Note_on_c, 0, 55, 68
1, 143537, Note_on_c, 0, 72, 82
1, 143541, Note_on_c, 0, 79, 61
1, 143546, Note_off_c, 0, 84, 72
1, 143550, Note_off_c, 0, 60, 56
1, 143554, Note_off_c, 0, 82, 69
1, 143559, Note_off_c, 0, 52, 67
1, 143562, Note_off_c, 0, 55, 64
1, 143563, Note_off_c, 0, 79, 65
1, 143564, Note_off_c, 0, 72, 68
1, 143595, Control_c, 0, 64, 39
1, 143625, Control_c, 0, 64, 38
1, 143639, Control_c, 0, 64, 38
1, 143654, Control_c, 0, 64, 37
1, 143669, Control_c, 0, 64, 35
1, 143684, Control_c, 0, 64, 33
1, 143699, Control_c, 0, 64, 31
1, 143743, Control_c, 0, 64, 38
1, 143758, Control_c, 0, 64, 48
1, 143764, Note_on_c, 0, 61, 31
1, 143773, Control_c, 0, 64, 57
1, 143773, Note_on_c, 0, 36, 57
1, 143781, Note_on_c, 0, 48, 61
1, 143788, Control_c, 0, 64, 65
1, 143789, Note_on_c, 0, 55, 59
1, 143803, Control_c, 0, 64, 74
1, 143806, Note_off_c, 0, 36, 63
1, 143812, Note_off_c, 0, 48, 65
1, 143818, Control_c, 0, 64, 95
1, 143824, Note_off_c, 0, 55, 64
1, 143832, Control_c, 0, 64, 127
1, 143833, Note_off_c, 0, 61, 63
1, 143921, Control_c, 0, 64, 125
1, 143936, Control_c, 0, 64, 90
1, 143950, Control_c, 0, 64, 72
1, 143965, Control_c, 0, 64, 55
1, 143980, Control_c, 0, 64, 24
1, 143995, Control_c, 0, 64, 18
1, 144004, Note_on_c, 0, 41, 64
1, 144010, Control_c, 0, 64, 31
1, 144017, Note_on_c, 0, 60, 74
1, 144019, Note_on_c, 0, 53, 66
1, 144025, Control_c, 0, 64, 49
1, 144027, Note_on_c, 0, 57, 65
1, 144033, Note_off_c, 0, 41, 65
1, 144039, Control_c, 0, 64, 60
1, 144047, Note_off_c, 0, 60, 69
1, 144053, Note_off_c, 0, 53, 66
1, 144055, Note_off_c, 0, 57, 67
1, 144055, Control_c, 0, 64, 65
1, 144070, Control_c, 0, 64, 71
1, 144085, Control_c, 0, 64, 81
1, 144100, Control_c, 0, 64, 104
1, 144115, Control_c, 0, 64, 127
1, 144233, Control_c, 0, 64, 96
1, 144241, Note_on_c, 0, 53, 66
1, 144252, Note_on_c, 0, 71, 98
1, 144255, Control_c, 0, 64, 73
1, 144260, Note_on_c, 0, 59, 64
1, 144270, Control_c, 0, 64, 63
1, 144283, Note_off_c, 0, 53, 67
1, 144285, Control_c, 0, 64, 56
1, 144290, Note_off_c, 0, 71, 66
1, 144291, Note_off_c, 0, 59, 66
1, 144300, Control_c, 0, 64, 52
1, 144315, Control_c, 0, 64, 50
1, 144329, Control_c, 0, 64, 47
1, 144344, Control_c, 0, 64, 43
1, 144359, Control_c, 0, 64, 42
1, 144374, Control_c, 0, 64, 41
1, 144388, Control_c, 0, 64, 41
1, 144403, Control_c, 0, 64, 40
1, 144478, Note_on_c, 0, 83, 80
1, 144481, Note_on_c, 0, 80, 74
1, 144483, Note_on_c, 0, 77, 66
1, 144483, Note_on_c, 0, 71, 84
1, 144486, Note_on_c, 0, 50, 68
1, 144486, Note_on_c, 0, 53, 68
1, 144486, Note_on_c, 0, 56, 62
1, 144494, Note_on_c, 0, 59, 38
1, 144500, Note_off_c, 0, 83, 71
1, 144506, Note_off_c, 0, 80, 70
1, 144510, Note_off_c, 0, 50, 67
1, 144510, Note_off_c, 0, 77, 66
1, 144511, Note_off_c, 0, 71, 65
1, 144516, Note_off_c, 0, 56, 65
1, 144518, Note_off_c, 0, 53, 65
1, 144522, Control_c, 0, 64, 38
1, 144526, Note_off_c, 0, 59, 33
1, 144536, Control_c, 0, 64, 36
1, 144551, Control_c, 0, 64, 35
1, 144566, Control_c, 0, 64, 35
1, 144581, Control_c, 0, 64, 34
1, 144611, Control_c, 0, 64, 33
1, 144626, Control_c, 0, 64, 32
1, 144670, Control_c, 0, 64, 38
1, 144685, Control_c, 0, 64, 48
1, 144700, Control_c, 0, 64, 57
1, 144715, Control_c, 0, 64, 63
1, 144722, Note_on_c, 0, 31, 53
1, 144722, Note_on_c, 0, 59, 65
1, 144723, Note_on_c, 0, 43, 60
1, 144726, Note_on_c, 0, 55, 60
1, 144729, Control_c, 0, 64, 69
1, 144744, Control_c, 0, 64, 84
1, 144754, Note_off_c, 0, 43, 65
1, 144756, Note_off_c, 0, 31, 59
1, 144759, Control_c, 0, 64, 127
1, 144768, Note_off_c, 0, 55, 62
1, 144788, Note_off_c, 0, 59, 61
1, 144893, Control_c, 0, 64, 90
1, 144908, Control_c, 0, 64, 66
1, 144923, Control_c, 0, 64, 47
1, 144938, Control_c, 0, 64, 37
1, 144952, Control_c, 0, 64, 50
1, 144958, Note_on_c, 0, 36, 51
1, 144961, Note_on_c, 0, 48, 59
1, 144962, Note_on_c, 0, 53, 43
1, 144965, Note_on_c, 0, 55, 44
1, 144967, Control_c, 0, 64, 60
1, 144976, Note_on_c, 0, 59, 50
1, 144982, Control_c, 0, 64, 65
1, 144991, Note_off_c, 0, 36, 53
1, 144992, Note_off_c, 0, 53, 53
1, 145001, Note_off_c, 0, 48, 64
1, 145001, Note_off_c, 0, 55, 54
1, 145004, Control_c, 0, 64, 72
1, 145006, Note_off_c, 0, 59, 58
1, 145019, Control_c, 0, 64, 82
1, 145034, Control_c, 0, 64, 93
1, 145049, Control_c, 0, 64, 101
1, 145064, Control_c, 0, 64, 103
1, 145078, Control_c, 0, 64, 104
1, 145093, Control_c, 0, 64, 103
1, 145108, Control_c, 0, 64, 101
1, 145123, Control_c, 0, 64, 97
1, 145138, Control_c, 0, 64, 92
1, 145152, Control_c, 0, 64, 85
1, 145167, Control_c, 0, 64, 76
1, 145182, Control_c, 0, 64, 66
1, 145197, Note_on_c, 0, 60, 63
1, 145197, Control_c, 0, 64, 58
1, 145201, Note_on_c, 0, 72, 74
1, 145207, Note_on_c, 0, 55, 48
1, 145211, Control_c, 0, 64, 52
1, 145224, Note_off_c, 0, 72, 69
1, 145225, Note_on_c, 0, 52, 31
1, 145225, Note_off_c, 0, 60, 66
1, 145226, Control_c, 0, 64, 49
1, 145235, Note_off_c, 0, 55, 56
1, 145241, Control_c, 0, 64, 47
1, 145255, Note_off_c, 0, 52, 47
1, 145256, Control_c, 0, 64, 42
1, 145271, Control_c, 0, 64, 37
1, 145285, Control_c, 0, 64, 35
1, 145300, Control_c, 0, 64, 33
1, 145315, Control_c, 0, 64, 32
1, 145330, Control_c, 0, 64, 31
1, 145345, Control_c, 0, 64, 30
1, 145359, Control_c, 0, 64, 29
1, 145374, Control_c, 0, 64, 28
1, 145413, Note_on_c, 0, 86, 68
1, 145419, Note_on_c, 0, 55, 44
1, 145421, Note_on_c, 0, 79, 63
1, 145422, Note_on_c, 0, 82, 60
1, 145425, Note_on_c, 0, 58, 49
1, 145437, Note_on_c, 0, 62, 21
1, 145440, Note_off_c, 0, 86, 65
1, 145447, Note_off_c, 0, 82, 65
1, 145448, Note_off_c, 0, 79, 68
1, 145450, Note_off_c, 0, 58, 56
1, 145451, Note_off_c, 0, 55, 63
1, 145475, Note_off_c, 0, 62, 42
1, 145611, Control_c, 0, 64, 33
1, 145626, Control_c, 0, 64, 43
1, 145641, Control_c, 0, 64, 54
1, 145654, Note_on_c, 0, 62, 49
1, 145657, Control_c, 0, 64, 60
1, 145663, Note_on_c, 0, 58, 57
1, 145664, Note_on_c, 0, 55, 58
1, 145667, Note_on_c, 0, 43, 52
1, 145672, Control_c, 0, 64, 64
1, 145687, Control_c, 0, 64, 69
1, 145696, Note_off_c, 0, 55, 64
1, 145696, Note_off_c, 0, 58, 65
1, 145701, Note_off_c, 0, 43, 64
1, 145701, Control_c, 0, 64, 77
1, 145716, Control_c, 0, 64, 87
1, 145720, Note_off_c, 0, 62, 54
1, 145731, Control_c, 0, 64, 98
1, 145753, Control_c, 0, 64, 103
1, 145767, Control_c, 0, 64, 108
1, 145782, Control_c, 0, 64, 109
1, 145797, Control_c, 0, 64, 109
1, 145812, Control_c, 0, 64, 102
1, 145827, Control_c, 0, 64, 91
1, 145842, Control_c, 0, 64, 72
1, 145857, Control_c, 0, 64, 61
1, 145872, Control_c, 0, 64, 50
1, 145887, Control_c, 0, 64, 54
1, 145891, Note_on_c, 0, 52, 68
1, 145895, Note_on_c, 0, 40, 54
1, 145896, Note_on_c, 0, 58, 64
1, 145900, Note_on_c, 0, 55, 64
1, 145901, Control_c, 0, 64, 59
1, 145906, Note_on_c, 0, 62, 73
1, 145916, Control_c, 0, 64, 64
1, 145922, Note_off_c, 0, 58, 66
1, 145925, Note_off_c, 0, 52, 67
1, 145927, Note_off_c, 0, 40, 64
1, 145927, Note_off_c, 0, 55, 62
1, 145931, Control_c, 0, 64, 69
1, 145931, Note_off_c, 0, 62, 69
1, 145946, Control_c, 0, 64, 75
1, 145960, Control_c, 0, 64, 85
1, 145975, Control_c, 0, 64, 93
1, 145990, Control_c, 0, 64, 96
1, 146005, Control_c, 0, 64, 96
1, 146034, Control_c, 0, 64, 95
1, 146049, Control_c, 0, 64, 91
1, 146064, Control_c, 0, 64, 85
1, 146079, Control_c, 0, 64, 76
1, 146094, Control_c, 0, 64, 67
1, 146108, Control_c, 0, 64, 60
1, 146116, Note_on_c, 0, 73, 90
1, 146122, Note_on_c, 0, 58, 67
1, 146123, Control_c, 0, 64, 56
1, 146126, Note_on_c, 0, 52, 56
1, 146130, Note_on_c, 0, 61, 59
1, 146138, Control_c, 0, 64, 54
1, 146141, Note_on_c, 0, 55, 48
1, 146146, Note_off_c, 0, 52, 65
1, 146152, Note_off_c, 0, 73, 63
1, 146152, Control_c, 0, 64, 52
1, 146154, Note_off_c, 0, 58, 63
1, 146159, Note_off_c, 0, 61, 63
1, 146167, Control_c, 0, 64, 50
1, 146171, Note_off_c, 0, 55, 55
1, 146182, Control_c, 0, 64, 48
1, 146197, Control_c, 0, 64, 47
1, 146212, Control_c, 0, 64, 46
1, 146227, Control_c, 0, 64, 46
1, 146241, Control_c, 0, 64, 45
1, 146256, Control_c, 0, 64, 45
1, 146350, Note_on_c, 0, 85, 82
1, 146353, Note_on_c, 0, 58, 70
1, 146354, Note_on_c, 0, 73, 89
1, 146356, Note_on_c, 0, 61, 64
1, 146357, Note_on_c, 0, 82, 76
1, 146359, Note_on_c, 0, 79, 71
1, 146361, Note_on_c, 0, 52, 66
1, 146362, Note_on_c, 0, 55, 65
1, 146371, Note_off_c, 0, 85, 70
1, 146377, Note_off_c, 0, 58, 67
1, 146381, Note_off_c, 0, 82, 66
1, 146382, Note_off_c, 0, 73, 67
1, 146385, Note_off_c, 0, 79, 68
1, 146387, Note_off_c, 0, 61, 64
1, 146388, Note_off_c, 0, 52, 67
1, 146392, Note_off_c, 0, 55, 65
1, 146434, Control_c, 0, 64, 46
1, 146450, Control_c, 0, 64, 47
1, 146531, Control_c, 0, 64, 47
1, 146546, Control_c, 0, 64, 46
1, 146561, Control_c, 0, 64, 46
1, 146590, Control_c, 0, 64, 46
1, 146605, Control_c, 0, 64, 50
1, 146607, Note_on_c, 0, 57, 62
1, 146609, Note_on_c, 0, 52, 65
1, 146609, Note_on_c, 0, 61, 68
1, 146612, Note_on_c, 0, 45, 64
1, 146619, Note_on_c, 0, 33, 52
1, 146620, Control_c, 0, 64, 57
1, 146635, Control_c, 0, 64, 63
1, 146644, Note_off_c, 0, 52, 65
1, 146647, Note_off_c, 0, 57, 64
1, 146650, Control_c, 0, 64, 68
1, 146655, Note_off_c, 0, 61, 54
1, 146656, Note_off_c, 0, 45, 63
1, 146661, Note_off_c, 0, 33, 58
1, 146665, Control_c, 0, 64, 75
1, 146680, Control_c, 0, 64, 91
1, 146695, Control_c, 0, 64, 127
1, 146798, Control_c, 0, 64, 96
1, 146813, Control_c, 0, 64, 71
1, 146828, Control_c, 0, 64, 56
1, 146832, Note_on_c, 0, 61, 81
1, 146834, Note_on_c, 0, 55, 61
1, 146835, Note_on_c, 0, 46, 81
1, 146840, Note_on_c, 0, 52, 52
1, 146843, Note_on_c, 0, 34, 63
1, 146843, Control_c, 0, 64, 55
1, 146857, Control_c, 0, 64, 64
1, 146860, Note_off_c, 0, 55, 66
1, 146861, Note_off_c, 0, 46, 68
1, 146861, Note_off_c, 0, 52, 60
1, 146863, Note_off_c, 0, 61, 62
1, 146872, Control_c, 0, 64, 71
1, 146874, Note_off_c, 0, 34, 63
1, 146887, Control_c, 0, 64, 86
1, 146902, Control_c, 0, 64, 127
1, 147035, Control_c, 0, 64, 115
1, 147044, Note_on_c, 0, 74, 83
1, 147049, Control_c, 0, 64, 83
1, 147052, Note_on_c, 0, 58, 85
1, 147055, Note_on_c, 0, 62, 81
1, 147055, Note_on_c, 0, 70, 81
1, 147056, Note_on_c, 0, 65, 79
1, 147064, Control_c, 0, 64, 68
1, 147065, Note_on_c, 0, 53, 66
1, 147076, Note_off_c, 0, 70, 71
1, 147079, Note_off_c, 0, 65, 70
1, 147079, Control_c, 0, 64, 59
1, 147081, Note_off_c, 0, 62, 68
1, 147094, Note_off_c, 0, 53, 66
1, 147094, Note_off_c, 0, 74, 65
1, 147094, Control_c, 0, 64, 52
1, 147099, Note_off_c, 0, 58, 63
1, 147109, Control_c, 0, 64, 51
1, 147124, Control_c, 0, 64, 48
1, 147139, Control_c, 0, 64, 43
1, 147154, Control_c, 0, 64, 40
1, 147168, Control_c, 0, 64, 39
1, 147183, Control_c, 0, 64, 38
1, 147251, Control_c, 0, 64, 38
1, 147283, Note_on_c, 0, 60, 79
1, 147284, Note_on_c, 0, 77, 90
1, 147286, Note_on_c, 0, 65, 90
1, 147287, Note_on_c, 0, 57, 83
1, 147287, Note_on_c, 0, 75, 84
1, 147290, Note_on_c, 0, 53, 79
1, 147291, Note_on_c, 0, 72, 77
1, 147295, Control_c, 0, 64, 37
1, 147306, Note_off_c, 0, 60, 70
1, 147310, Control_c, 0, 64, 36
1, 147311, Note_off_c, 0, 57, 71
1, 147314, Note_off_c, 0, 72, 71
1, 147314, Note_off_c, 0, 53, 67
1, 147315, Note_off_c, 0, 65, 63
1, 147318, Note_off_c, 0, 77, 63
1, 147321, Note_off_c, 0, 75, 62
1, 147325, Control_c, 0, 64, 32
1, 147340, Control_c, 0, 64, 29
1, 147354, Control_c, 0, 64, 28
1, 147369, Control_c, 0, 64, 28
1, 147458, Control_c, 0, 64, 29
1, 147473, Control_c, 0, 64, 37
1, 147487, Control_c, 0, 64, 49
1, 147502, Control_c, 0, 64, 58
1, 147517, Control_c, 0, 64, 63
1, 147528, Note_on_c, 0, 60, 50
1, 147532, Note_on_c, 0, 57, 56
1, 147532, Control_c, 0, 64, 68
1, 147535, Note_on_c, 0, 41, 68
1, 147541, Note_on_c, 0, 29, 62
1, 147544, Note_on_c, 0, 65, 54
1, 147545, Note_on_c, 0, 63, 40
1, 147547, Control_c, 0, 64, 79
1, 147562, Control_c, 0, 64, 122
1, 147563, Note_off_c, 0, 57, 65
1, 147566, Note_off_c, 0, 41, 65
1, 147572, Note_off_c, 0, 60, 61
1, 147577, Control_c, 0, 64, 127
1, 147580, Note_off_c, 0, 29, 60
1, 147583, Note_off_c, 0, 65, 63
1, 147593, Note_off_c, 0, 63, 53
1, 147710, Control_c, 0, 64, 107
1, 147725, Control_c, 0, 64, 74
1, 147740, Control_c, 0, 64, 57
1, 147754, Note_on_c, 0, 34, 66
1, 147754, Control_c, 0, 64, 36
1, 147758, Note_on_c, 0, 46, 73
1, 147765, Note_on_c, 0, 58, 78
1, 147769, Control_c, 0, 64, 48
1, 147770, Note_on_c, 0, 65, 76
1, 147777, Note_on_c, 0, 62, 59
1, 147784, Control_c, 0, 64, 61
1, 147786, Note_off_c, 0, 34, 64
1, 147791, Note_off_c, 0, 46, 67
1, 147792, Note_off_c, 0, 58, 67
1, 147797, Note_off_c, 0, 65, 67
1, 147798, Control_c, 0, 64, 67
1, 147808, Note_off_c, 0, 62, 65
1, 147813, Control_c, 0, 64, 77
1, 147828, Control_c, 0, 64, 97
1, 147843, Control_c, 0, 64, 127
1, 147961, Control_c, 0, 64, 95
1, 147976, Control_c, 0, 64, 72
1, 147979, Note_on_c, 0, 74, 92
1, 147982, Note_on_c, 0, 65, 84
1, 147985, Note_on_c, 0, 70, 81
1, 147998, Control_c, 0, 64, 60
1, 147999, Note_on_c, 0, 59, 75
1, 148001, Note_on_c, 0, 64, 70
1, 148013, Control_c, 0, 64, 50
1, 148014, Note_on_c, 0, 53, 54
1, 148015, Note_off_c, 0, 70, 68
1, 148020, Note_off_c, 0, 65, 64
1, 148028, Control_c, 0, 64, 49
1, 148029, Note_off_c, 0, 59, 67
1, 148029, Note_off_c, 0, 64, 68
1, 148032, Note_off_c, 0, 74, 68
1, 148033, Note_on_c, 0, 62, 39
1, 148034, Note_off_c, 0, 62, 127
1, 148042, Note_off_c, 0, 53, 60
1, 148043, Control_c, 0, 64, 48
1, 148059, Control_c, 0, 64, 46
1, 148074, Control_c, 0, 64, 43
1, 148089, Control_c, 0, 64, 43
1, 148207, Note_on_c, 0, 62, 72
1, 148212, Note_on_c, 0, 75, 76
1, 148213, Note_on_c, 0, 77, 93
1, 148215, Note_on_c, 0, 65, 96
1, 148217, Note_on_c, 0, 57, 79
1, 148219, Note_on_c, 0, 72, 80
1, 148224, Note_on_c, 0, 53, 69
1, 148230, Note_off_c, 0, 62, 63
1, 148236, Control_c, 0, 64, 42
1, 148239, Note_off_c, 0, 57, 67
1, 148243, Note_off_c, 0, 72, 70
1, 148245, Note_off_c, 0, 77, 63
1, 148251, Note_off_c, 0, 75, 65
1, 148251, Control_c, 0, 64, 42
1, 148252, Note_off_c, 0, 65, 62
1, 148254, Note_off_c, 0, 53, 65
1, 148266, Control_c, 0, 64, 41
1, 148281, Control_c, 0, 64, 40
1, 148295, Control_c, 0, 64, 40
1, 148325, Control_c, 0, 64, 39
1, 148340, Control_c, 0, 64, 37
1, 148355, Control_c, 0, 64, 35
1, 148370, Control_c, 0, 64, 33
1, 148385, Control_c, 0, 64, 32
1, 148415, Control_c, 0, 64, 37
1, 148429, Control_c, 0, 64, 51
1, 148444, Control_c, 0, 64, 62
1, 148447, Note_on_c, 0, 65, 79
1, 148450, Note_on_c, 0, 57, 70
1, 148452, Note_on_c, 0, 29, 64
1, 148456, Note_on_c, 0, 41, 67
1, 148459, Control_c, 0, 64, 68
1, 148463, Note_on_c, 0, 63, 61
1, 148474, Control_c, 0, 64, 77
1, 148480, Note_off_c, 0, 57, 66
1, 148480, Note_on_c, 0, 60, 21
1, 148489, Control_c, 0, 64, 95
1, 148489, Note_off_c, 0, 41, 64
1, 148491, Note_off_c, 0, 29, 64
1, 148494, Note_off_c, 0, 63, 64
1, 148499, Note_off_c, 0, 65, 62
1, 148503, Control_c, 0, 64, 127
1, 148529, Note_off_c, 0, 60, 38
1, 148636, Control_c, 0, 64, 81
1, 148638, Poly_aftertouch_c, 0, 61, 127
1, 148651, Control_c, 0, 64, 63
1, 148666, Control_c, 0, 64, 44
1, 148668, Poly_aftertouch_c, 0, 61, 0
1, 148676, Note_on_c, 0, 34, 69
1, 148681, Control_c, 0, 64, 52
1, 148682, Note_on_c, 0, 46, 71
1, 148688, Note_on_c, 0, 65, 74
1, 148689, Note_on_c, 0, 62, 69
1, 148692, Note_on_c, 0, 58, 61
1, 148695, Control_c, 0, 64, 62
1, 148705, Note_off_c, 0, 34, 64
1, 148710, Control_c, 0, 64, 70
1, 148712, Note_off_c, 0, 46, 65
1, 148713, Note_off_c, 0, 58, 63
1, 148713, Note_off_c, 0, 65, 68
1, 148715, Note_off_c, 0, 62, 68
1, 148725, Control_c, 0, 64, 82
1, 148740, Control_c, 0, 64, 127
1, 148897, Control_c, 0, 64, 93
1, 148904, Note_on_c, 0, 65, 76
1, 148907, Note_on_c, 0, 57, 69
1, 148908, Note_on_c, 0, 60, 73
1, 148908, Note_on_c, 0, 77, 92
1, 148910, Note_on_c, 0, 72, 87
1, 148911, Note_on_c, 0, 69, 86
1, 148912, Control_c, 0, 64, 71
1, 148926, Control_c, 0, 64, 61
1, 148927, Note_off_c, 0, 65, 70
1, 148933, Note_off_c, 0, 72, 70
1, 148934, Note_off_c, 0, 57, 67
1, 148934, Note_off_c, 0, 69, 65
1, 148939, Note_off_c, 0, 60, 67
1, 148941, Control_c, 0, 64, 55
1, 148953, Note_off_c, 0, 77, 64
1, 148956, Control_c, 0, 64, 54
1, 148971, Control_c, 0, 64, 53
1, 148986, Control_c, 0, 64, 52
1, 149000, Control_c, 0, 64, 51
1, 149126, Note_on_c, 0, 75, 93
1, 149130, Note_on_c, 0, 70, 78
1, 149132, Note_on_c, 0, 67, 86
1, 149139, Note_on_c, 0, 58, 83
1, 149141, Note_on_c, 0, 55, 73
1, 149144, Note_on_c, 0, 63, 68
1, 149155, Note_off_c, 0, 70, 69
1, 149160, Note_off_c, 0, 67, 67
1, 149161, Note_off_c, 0, 58, 70
1, 149163, Note_off_c, 0, 63, 64
1, 149166, Note_off_c, 0, 55, 65
1, 149166, Note_off_c, 0, 75, 62
1, 149178, Control_c, 0, 64, 52
1, 149297, Control_c, 0, 64, 50
1, 149312, Control_c, 0, 64, 47
1, 149326, Control_c, 0, 64, 44
1, 149341, Control_c, 0, 64, 43
1, 149356, Control_c, 0, 64, 43
1, 149370, Note_on_c, 0, 62, 87
1, 149370, Control_c, 0, 64, 53
1, 149373, Note_on_c, 0, 41, 90
1, 149375, Note_on_c, 0, 57, 74
1, 149376, Note_on_c, 0, 53, 79
1, 149378, Note_on_c, 0, 29, 78
1, 149385, Control_c, 0, 64, 63
1, 149400, Control_c, 0, 64, 70
1, 149406, Note_off_c, 0, 57, 69
1, 149410, Note_off_c, 0, 29, 67
1, 149413, Note_off_c, 0, 41, 64
1, 149415, Control_c, 0, 64, 82
1, 149422, Note_off_c, 0, 53, 61
1, 149429, Note_off_c, 0, 62, 65
1, 149430, Control_c, 0, 64, 111
1, 149444, Control_c, 0, 64, 127
1, 149556, Control_c, 0, 64, 77
1, 149571, Control_c, 0, 64, 57
1, 149585, Control_c, 0, 64, 0
1, 149600, Control_c, 0, 64, 20
1, 149610, Note_on_c, 0, 40, 91
1, 149610, Note_on_c, 0, 61, 86
1, 149612, Note_on_c, 0, 28, 76
1, 149613, Note_on_c, 0, 52, 78
1, 149615, Note_on_c, 0, 55, 76
1, 149615, Control_c, 0, 64, 47
1, 149630, Control_c, 0, 64, 61
1, 149638, Note_off_c, 0, 52, 68
1, 149640, Note_off_c, 0, 28, 64
1, 149643, Note_off_c, 0, 55, 67
1, 149646, Note_off_c, 0, 40, 66
1, 149646, Control_c, 0, 64, 71
1, 149661, Control_c, 0, 64, 88
1, 149661, Note_off_c, 0, 61, 65
1, 149675, Control_c, 0, 64, 127
1, 149706, Poly_aftertouch_c, 0, 57, 0
1, 149823, Control_c, 0, 64, 100
1, 149838, Control_c, 0, 64, 74
1, 149843, Note_on_c, 0, 74, 92
1, 149844, Note_on_c, 0, 57, 63
1, 149848, Note_on_c, 0, 65, 85
1, 149848, Note_on_c, 0, 69, 85
1, 149850, Note_on_c, 0, 62, 79
1, 149851, Note_on_c, 0, 53, 71
1, 149853, Control_c, 0, 64, 63
1, 149867, Control_c, 0, 64, 55
1, 149872, Note_off_c, 0, 69, 67
1, 149872, Note_off_c, 0, 65, 68
1, 149879, Note_off_c, 0, 62, 64
1, 149882, Control_c, 0, 64, 53
1, 149884, Note_off_c, 0, 53, 67
1, 149892, Note_off_c, 0, 74, 66
1, 149896, Note_off_c, 0, 57, 63
1, 149897, Control_c, 0, 64, 51
1, 149912, Control_c, 0, 64, 48
1, 149927, Control_c, 0, 64, 46
1, 149941, Control_c, 0, 64, 45
1, 150081, Note_on_c, 0, 76, 97
1, 150087, Note_on_c, 0, 58, 75
1, 150087, Note_on_c, 0, 67, 91
1, 150087, Note_on_c, 0, 70, 78
1, 150090, Note_on_c, 0, 64, 71
1, 150094, Note_on_c, 0, 55, 78
1, 150110, Note_off_c, 0, 70, 71
1, 150114, Note_off_c, 0, 58, 70
1, 150114, Note_off_c, 0, 64, 63
1, 150115, Note_off_c, 0, 76, 67
1, 150117, Note_off_c, 0, 67, 68
1, 150120, Note_off_c, 0, 55, 69
1, 150208, Control_c, 0, 64, 45
1, 150260, Control_c, 0, 64, 45
1, 150275, Control_c, 0, 64, 43
1, 150290, Control_c, 0, 64, 41
1, 150304, Control_c, 0, 64, 38
1, 150319, Control_c, 0, 64, 37
1, 150334, Control_c, 0, 64, 40
1, 150343, Note_on_c, 0, 45, 90
1, 150346, Note_on_c, 0, 61, 91
1, 150347, Note_on_c, 0, 33, 82
1, 150347, Note_on_c, 0, 52, 88
1, 150347, Note_on_c, 0, 55, 80
1, 150349, Control_c, 0, 64, 54
1, 150358, Note_on_c, 0, 57, 75
1, 150364, Control_c, 0, 64, 65
1, 150371, Note_off_c, 0, 45, 68
1, 150375, Note_off_c, 0, 33, 67
1, 150379, Control_c, 0, 64, 76
1, 150388, Note_off_c, 0, 52, 66
1, 150394, Control_c, 0, 64, 127
1, 150397, Note_off_c, 0, 57, 63
1, 150401, Note_off_c, 0, 55, 64
1, 150431, Note_off_c, 0, 61, 59
1, 150558, Control_c, 0, 64, 112
1, 150573, Control_c, 0, 64, 70
1, 150588, Control_c, 0, 64, 0
1, 150632, Control_c, 0, 64, 22
1, 150634, Note_on_c, 0, 50, 95
1, 150635, Note_on_c, 0, 38, 86
1, 150638, Note_on_c, 0, 53, 96
1, 150638, Note_on_c, 0, 62, 101
1, 150639, Note_on_c, 0, 57, 87
1, 150647, Control_c, 0, 64, 58
1, 150662, Control_c, 0, 64, 69
1, 150662, Note_off_c, 0, 53, 69
1, 150666, Note_off_c, 0, 38, 67
1, 150673, Note_off_c, 0, 57, 66
1, 150677, Control_c, 0, 64, 91
1, 150683, Note_off_c, 0, 50, 63
1, 150683, Note_off_c, 0, 62, 69
1, 150691, Control_c, 0, 64, 127
1, 150871, Note_on_c, 0, 50, 59
1, 150926, Note_on_c, 0, 53, 76
1, 150934, Note_off_c, 0, 50, 63
1, 150958, Control_c, 0, 64, 82
1, 150972, Control_c, 0, 64, 64
1, 150973, Note_off_c, 0, 53, 63
1, 150978, Note_on_c, 0, 57, 76
1, 150995, Control_c, 0, 64, 38
1, 151003, Note_on_c, 0, 62, 68
1, 151009, Note_off_c, 0, 57, 71
1, 151010, Control_c, 0, 64, 0
1, 151051, Note_on_c, 0, 65, 80
1, 151065, Note_off_c, 0, 62, 62
1, 151109, Note_on_c, 0, 69, 81
1, 151129, Note_off_c, 0, 65, 62
1, 151143, Control_c, 0, 64, 54
1, 151148, Note_on_c, 0, 74, 100
1, 151151, Note_off_c, 0, 69, 67
1, 151158, Control_c, 0, 64, 70
1, 151172, Control_c, 0, 64, 86
1, 151175, Note_off_c, 0, 74, 64
1, 151187, Control_c, 0, 64, 127
1, 151366, Control_c, 0, 64, 86
1, 151381, Control_c, 0, 64, 63
1, 151389, Note_on_c, 0, 53, 86
1, 151390, Note_on_c, 0, 69, 85
1, 151393, Note_on_c, 0, 57, 82
1, 151393, Note_on_c, 0, 62, 75
1, 151395, Note_on_c, 0, 41, 77
1, 151396, Control_c, 0, 64, 0
1, 151421, Note_off_c, 0, 57, 67
1, 151423, Note_off_c, 0, 53, 63
1, 151428, Note_off_c, 0, 62, 65
1, 151431, Note_off_c, 0, 41, 65
1, 151440, Note_off_c, 0, 69, 61
1, 151508, Note_on_c, 0, 57, 84
1, 151508, Note_on_c, 0, 69, 87
1, 151511, Note_on_c, 0, 41, 82
1, 151511, Note_on_c, 0, 62, 82
1, 151511, Note_on_c, 0, 53, 94
1, 151530, Note_off_c, 0, 57, 69
1, 151537, Note_off_c, 0, 53, 67
1, 151543, Note_off_c, 0, 62, 61
1, 151544, Note_off_c, 0, 41, 67
1, 151557, Note_off_c, 0, 69, 62
1, 151634, Note_on_c, 0, 68, 97
1, 151637, Note_on_c, 0, 59, 86
1, 151638, Note_on_c, 0, 52, 94
1, 151640, Note_on_c, 0, 62, 81
1, 151642, Note_on_c, 0, 64, 74
1, 151644, Note_on_c, 0, 40, 89
1, 151648, Control_c, 0, 64, 73
1, 151656, Note_off_c, 0, 52, 73
1, 151658, Note_off_c, 0, 59, 70
1, 151663, Note_off_c, 0, 62, 70
1, 151663, Control_c, 0, 64, 99
1, 151667, Note_off_c, 0, 64, 68
1, 151668, Note_off_c, 0, 40, 67
1, 151678, Control_c, 0, 64, 127
1, 151682, Note_off_c, 0, 68, 65
1, 151825, Note_on_c, 0, 52, 63
1, 151876, Note_on_c, 0, 56, 72
1, 151887, Note_off_c, 0, 52, 63
1, 151913, Note_on_c, 0, 59, 72
1, 151924, Note_off_c, 0, 56, 65
1, 151942, Note_off_c, 0, 59, 65
1, 151952, Control_c, 0, 64, 115
1, 151966, Control_c, 0, 64, 79
1, 151981, Control_c, 0, 64, 50
1, 151992, Note_on_c, 0, 64, 73
1, 151996, Control_c, 0, 64, 0
1, 152051, Note_on_c, 0, 68, 77
1, 152054, Note_off_c, 0, 64, 59
1, 152090, Note_on_c, 0, 71, 87
1, 152108, Note_off_c, 0, 68, 64
1, 152117, Note_on_c, 0, 76, 95
1, 152129, Note_off_c, 0, 71, 65
1, 152130, Control_c, 0, 64, 61
1, 152142, Note_off_c, 0, 76, 68
1, 152144, Control_c, 0, 64, 71
1, 152159, Control_c, 0, 64, 85
1, 152174, Control_c, 0, 64, 110
1, 152189, Control_c, 0, 64, 127
1, 152322, Control_c, 0, 64, 84
1, 152337, Control_c, 0, 64, 62
1, 152349, Note_on_c, 0, 55, 90
1, 152349, Note_on_c, 0, 74, 79
1, 152352, Control_c, 0, 64, 0
1, 152352, Note_on_c, 0, 43, 76
1, 152352, Note_on_c, 0, 67, 73
1, 152352, Note_on_c, 0, 70, 74
1, 152354, Note_on_c, 0, 64, 73
1, 152362, Poly_aftertouch_c, 0, 66, 0
1, 152381, Note_off_c, 0, 55, 65
1, 152384, Note_off_c, 0, 64, 63
1, 152384, Note_off_c, 0, 43, 68
1, 152386, Note_off_c, 0, 67, 64
1, 152388, Note_off_c, 0, 74, 61
1, 152391, Note_off_c, 0, 70, 61
1, 152466, Note_on_c, 0, 55, 94
1, 152467, Note_on_c, 0, 43, 80
1, 152469, Note_on_c, 0, 67, 77
1, 152469, Note_on_c, 0, 64, 79
1, 152472, Note_on_c, 0, 74, 80
1, 152474, Note_on_c, 0, 70, 76
1, 152504, Note_off_c, 0, 55, 63
1, 152505, Note_off_c, 0, 43, 70
1, 152512, Note_off_c, 0, 64, 57
1, 152513, Note_off_c, 0, 74, 66
1, 152525, Note_off_c, 0, 67, 61
1, 152529, Note_off_c, 0, 70, 59
1, 152598, Note_on_c, 0, 73, 92
1, 152602, Note_on_c, 0, 57, 99
1, 152603, Note_on_c, 0, 67, 80
1, 152605, Note_on_c, 0, 64, 86
1, 152606, Note_on_c, 0, 69, 77
1, 152608, Note_on_c, 0, 45, 94
1, 152611, Control_c, 0, 64, 66
1, 152626, Control_c, 0, 64, 84
1, 152627, Note_off_c, 0, 64, 70
1, 152628, Note_off_c, 0, 57, 68
1, 152628, Note_off_c, 0, 67, 67
1, 152630, Note_off_c, 0, 45, 71
1, 152630, Note_off_c, 0, 69, 69
1, 152641, Control_c, 0, 64, 127
1, 152647, Note_off_c, 0, 73, 64
1, 152785, Note_on_c, 0, 57, 64
1, 152835, Note_off_c, 0, 57, 59
1, 152837, Note_on_c, 0, 61, 79
1, 152864, Control_c, 0, 64, 125
1, 152879, Control_c, 0, 64, 97
1, 152880, Note_on_c, 0, 64, 63
1, 152880, Note_off_c, 0, 61, 66
1, 152893, Control_c, 0, 64, 75
1, 152901, Note_off_c, 0, 64, 61
1, 152908, Control_c, 0, 64, 52
1, 152923, Control_c, 0, 64, 0
1, 152946, Note_on_c, 0, 69, 74
1, 153004, Note_on_c, 0, 73, 82
1, 153008, Note_off_c, 0, 69, 64
1, 153050, Note_on_c, 0, 76, 80
1, 153071, Note_off_c, 0, 73, 65
1, 153080, Note_on_c, 0, 81, 99
1, 153086, Control_c, 0, 64, 47
1, 153092, Note_off_c, 0, 76, 67
1, 153101, Control_c, 0, 64, 73
1, 153109, Note_off_c, 0, 81, 69
1, 153115, Control_c, 0, 64, 88
1, 153130, Control_c, 0, 64, 127
1, 153315, Control_c, 0, 64, 91
1, 153321, Note_on_c, 0, 49, 85
1, 153324, Note_on_c, 0, 76, 89
1, 153328, Note_on_c, 0, 37, 75
1, 153330, Note_on_c, 0, 67, 78
1, 153330, Note_on_c, 0, 69, 77
1, 153330, Control_c, 0, 64, 66
1, 153345, Control_c, 0, 64, 0
1, 153355, Note_off_c, 0, 69, 68
1, 153356, Note_off_c, 0, 67, 67
1, 153362, Note_off_c, 0, 37, 65
1, 153363, Note_off_c, 0, 49, 59
1, 153371, Note_off_c, 0, 76, 65
1, 153437, Note_on_c, 0, 67, 87
1, 153438, Note_on_c, 0, 49, 88
1, 153438, Note_on_c, 0, 76, 97
1, 153440, Note_on_c, 0, 69, 87
1, 153443, Note_on_c, 0, 37, 77
1, 153470, Note_off_c, 0, 67, 64
1, 153470, Note_off_c, 0, 69, 61
1, 153473, Note_off_c, 0, 49, 63
1, 153476, Note_off_c, 0, 37, 67
1, 153494, Note_off_c, 0, 76, 65
1, 153561, Note_on_c, 0, 50, 100
1, 153563, Note_on_c, 0, 69, 94
1, 153563, Note_on_c, 0, 77, 98
1, 153564, Note_on_c, 0, 65, 94
1, 153567, Control_c, 0, 64, 50
1, 153569, Note_on_c, 0, 38, 89
1, 153582, Control_c, 0, 64, 75
1, 153583, Note_off_c, 0, 65, 69
1, 153587, Note_off_c, 0, 69, 63
1, 153590, Note_off_c, 0, 50, 67
1, 153595, Note_off_c, 0, 38, 67
1, 153597, Control_c, 0, 64, 92
1, 153598, Note_off_c, 0, 77, 70
1, 153611, Control_c, 0, 64, 127
1, 153743, Note_on_c, 0, 62, 72
1, 153806, Note_on_c, 0, 65, 75
1, 153807, Note_off_c, 0, 62, 60
1, 153834, Control_c, 0, 64, 105
1, 153849, Control_c, 0, 64, 82
1, 153855, Note_off_c, 0, 65, 64
1, 153855, Note_on_c, 0, 69, 78
1, 153864, Control_c, 0, 64, 65
1, 153875, Note_off_c, 0, 69, 72
1, 153879, Control_c, 0, 64, 19
1, 153894, Control_c, 0, 64, 0
1, 153924, Note_on_c, 0, 74, 82
1, 153977, Note_on_c, 0, 77, 83
1, 153983, Note_off_c, 0, 74, 63
1, 154028, Note_on_c, 0, 81, 85
1, 154049, Note_off_c, 0, 77, 64
1, 154049, Control_c, 0, 64, 31
1, 154060, Note_on_c, 0, 86, 101
1, 154064, Control_c, 0, 64, 69
1, 154072, Note_off_c, 0, 81, 69
1, 154079, Control_c, 0, 64, 80
1, 154088, Note_off_c, 0, 86, 68
1, 154094, Control_c, 0, 64, 110
1, 154109, Control_c, 0, 64, 127
1, 154272, Control_c, 0, 64, 98
1, 154287, Control_c, 0, 64, 67
1, 154292, Note_on_c, 0, 65, 69
1, 154295, Note_on_c, 0, 43, 86
1, 154295, Note_on_c, 0, 70, 76
1, 154295, Note_on_c, 0, 74, 80
1, 154300, Note_on_c, 0, 31, 80
1, 154302, Control_c, 0, 64, 0
1, 154329, Note_off_c, 0, 65, 65
1, 154333, Note_off_c, 0, 43, 63
1, 154333, Note_off_c, 0, 70, 61
1, 154334, Note_off_c, 0, 31, 66
1, 154341, Note_off_c, 0, 74, 61
1, 154407, Note_on_c, 0, 74, 89
1, 154410, Note_on_c, 0, 31, 80
1, 154412, Note_on_c, 0, 65, 81
1, 154413, Note_on_c, 0, 43, 92
1, 154414, Note_on_c, 0, 70, 79
1, 154442, Note_off_c, 0, 65, 62
1, 154445, Note_off_c, 0, 31, 67
1, 154448, Note_off_c, 0, 70, 63
1, 154456, Note_off_c, 0, 43, 61
1, 154457, Note_off_c, 0, 74, 62
1, 154535, Note_on_c, 0, 45, 98
1, 154540, Note_on_c, 0, 73, 95
1, 154542, Note_on_c, 0, 33, 92
1, 154542, Note_on_c, 0, 64, 86
1, 154543, Note_on_c, 0, 69, 92
1, 154553, Control_c, 0, 64, 60
1, 154561, Note_off_c, 0, 64, 73
1, 154564, Note_off_c, 0, 69, 69
1, 154568, Control_c, 0, 64, 74
1, 154569, Note_off_c, 0, 33, 68
1, 154576, Note_off_c, 0, 45, 63
1, 154583, Control_c, 0, 64, 93
1, 154592, Note_off_c, 0, 73, 65
1, 154598, Control_c, 0, 64, 127
1, 154723, Note_on_c, 0, 69, 70
1, 154783, Note_off_c, 0, 69, 59
1, 154784, Note_on_c, 0, 73, 83
1, 154818, Note_on_c, 0, 76, 73
1, 154823, Note_off_c, 0, 73, 65
1, 154827, Control_c, 0, 64, 100
1, 154842, Control_c, 0, 64, 82
1, 154844, Note_off_c, 0, 76, 68
1, 154857, Control_c, 0, 64, 68
1, 154871, Control_c, 0, 64, 42
1, 154886, Control_c, 0, 64, 0
1, 154895, Note_on_c, 0, 81, 71
1, 154950, Note_on_c, 0, 85, 75
1, 154956, Note_off_c, 0, 81, 65
1, 154995, Note_on_c, 0, 88, 78
1, 155010, Note_off_c, 0, 85, 67
1, 155020, Control_c, 0, 64, 23
1, 155023, Note_on_c, 0, 93, 99
1, 155035, Control_c, 0, 64, 66
1, 155038, Note_off_c, 0, 88, 68
1, 155050, Control_c, 0, 64, 78
1, 155056, Note_off_c, 0, 93, 67
1, 155064, Control_c, 0, 64, 105
1, 155079, Control_c, 0, 64, 127
1, 155197, Control_c, 0, 64, 116
1, 155212, Control_c, 0, 64, 91
1, 155227, Control_c, 0, 64, 73
1, 155243, Control_c, 0, 64, 56
1, 155258, Control_c, 0, 64, 0
1, 155266, Note_on_c, 0, 50, 61
1, 155266, Note_on_c, 0, 69, 65
1, 155268, Note_on_c, 0, 38, 56
1, 155277, Note_on_c, 0, 62, 46
1, 155280, Note_on_c, 0, 65, 48
1, 155300, Note_off_c, 0, 50, 61
1, 155303, Note_off_c, 0, 69, 62
1, 155304, Note_off_c, 0, 38, 62
1, 155308, Note_off_c, 0, 65, 61
1, 155309, Note_off_c, 0, 62, 61
1, 155381, Note_on_c, 0, 69, 57
1, 155381, Note_on_c, 0, 50, 63
1, 155388, Note_on_c, 0, 38, 59
1, 155399, Note_on_c, 0, 65, 41
1, 155409, Note_on_c, 0, 62, 37
1, 155410, Note_off_c, 0, 69, 65
1, 155417, Note_off_c, 0, 50, 63
1, 155422, Note_off_c, 0, 38, 63
1, 155429, Note_off_c, 0, 65, 52
1, 155439, Note_off_c, 0, 62, 54
1, 155502, Control_c, 0, 64, 54
1, 155517, Control_c, 0, 64, 62
1, 155518, Note_on_c, 0, 68, 63
1, 155527, Note_on_c, 0, 64, 54
1, 155529, Note_on_c, 0, 52, 56
1, 155532, Control_c, 0, 64, 66
1, 155533, Note_on_c, 0, 40, 55
1, 155547, Control_c, 0, 64, 74
1, 155548, Note_on_c, 0, 62, 31
1, 155552, Note_off_c, 0, 68, 65
1, 155554, Note_off_c, 0, 64, 63
1, 155558, Note_off_c, 0, 52, 65
1, 155561, Control_c, 0, 64, 89
1, 155566, Note_off_c, 0, 40, 64
1, 155576, Control_c, 0, 64, 116
1, 155584, Note_off_c, 0, 62, 50
1, 155591, Control_c, 0, 64, 127
1, 155714, Note_on_c, 0, 64, 52
1, 155739, Control_c, 0, 64, 112
1, 155754, Control_c, 0, 64, 100
1, 155759, Note_on_c, 0, 68, 73
1, 155762, Note_off_c, 0, 64, 62
1, 155768, Control_c, 0, 64, 88
1, 155783, Control_c, 0, 64, 75
1, 155797, Note_on_c, 0, 71, 64
1, 155798, Control_c, 0, 64, 63
1, 155807, Note_off_c, 0, 68, 63
1, 155813, Control_c, 0, 64, 46
1, 155816, Note_off_c, 0, 71, 65
1, 155828, Control_c, 0, 64, 0
1, 155873, Note_on_c, 0, 76, 72
1, 155927, Note_on_c, 0, 80, 77
1, 155928, Note_off_c, 0, 76, 62
1, 155969, Note_on_c, 0, 83, 67
1, 155989, Note_off_c, 0, 80, 64
1, 155992, Control_c, 0, 64, 58
1, 156001, Note_on_c, 0, 88, 81
1, 156007, Control_c, 0, 64, 65
1, 156015, Note_off_c, 0, 83, 65
1, 156021, Control_c, 0, 64, 71
1, 156024, Note_off_c, 0, 88, 69
1, 156037, Control_c, 0, 64, 82
1, 156052, Control_c, 0, 64, 98
1, 156067, Control_c, 0, 64, 127
1, 156200, Control_c, 0, 64, 106
1, 156215, Control_c, 0, 64, 94
1, 156236, Control_c, 0, 64, 82
1, 156237, Note_on_c, 0, 67, 57
1, 156245, Note_on_c, 0, 60, 59
1, 156248, Note_on_c, 0, 63, 57
1, 156251, Control_c, 0, 64, 72
1, 156262, Note_on_c, 0, 36, 50
1, 156263, Note_on_c, 0, 48, 52
1, 156266, Control_c, 0, 64, 60
1, 156281, Note_off_c, 0, 67, 60
1, 156281, Control_c, 0, 64, 36
1, 156283, Note_off_c, 0, 60, 64
1, 156287, Note_off_c, 0, 63, 64
1, 156290, Note_off_c, 0, 48, 58
1, 156293, Note_off_c, 0, 36, 57
1, 156296, Control_c, 0, 64, 0
1, 156362, Note_on_c, 0, 67, 66
1, 156365, Note_on_c, 0, 63, 65
1, 156369, Note_on_c, 0, 48, 61
1, 156376, Note_on_c, 0, 36, 53
1, 156389, Note_on_c, 0, 60, 32
1, 156391, Note_off_c, 0, 67, 66
1, 156394, Note_off_c, 0, 63, 65
1, 156402, Note_off_c, 0, 48, 64
1, 156403, Note_off_c, 0, 36, 57
1, 156418, Note_off_c, 0, 60, 48
1, 156459, Control_c, 0, 64, 26
1, 156474, Control_c, 0, 64, 58
1, 156489, Note_on_c, 0, 66, 62
1, 156489, Control_c, 0, 64, 63
1, 156497, Note_on_c, 0, 62, 52
1, 156500, Note_on_c, 0, 50, 53
1, 156504, Control_c, 0, 64, 66
1, 156509, Note_on_c, 0, 38, 42
1, 156516, Note_on_c, 0, 60, 37
1, 156518, Control_c, 0, 64, 72
1, 156520, Note_off_c, 0, 62, 61
1, 156523, Note_off_c, 0, 66, 66
1, 156524, Note_off_c, 0, 50, 56
1, 156533, Control_c, 0, 64, 80
1, 156546, Note_off_c, 0, 38, 49
1, 156547, Note_off_c, 0, 60, 52
1, 156548, Control_c, 0, 64, 90
1, 156563, Control_c, 0, 64, 94
1, 156578, Control_c, 0, 64, 95
1, 156636, Control_c, 0, 64, 94
1, 156651, Control_c, 0, 64, 94
1, 156666, Control_c, 0, 64, 93
1, 156670, Note_on_c, 0, 62, 45
1, 156696, Control_c, 0, 64, 93
1, 156710, Control_c, 0, 64, 92
1, 156725, Control_c, 0, 64, 90
1, 156728, Note_on_c, 0, 66, 66
1, 156729, Note_off_c, 0, 62, 57
1, 156740, Control_c, 0, 64, 88
1, 156755, Control_c, 0, 64, 86
1, 156758, Note_on_c, 0, 69, 71
1, 156770, Control_c, 0, 64, 83
1, 156776, Note_off_c, 0, 66, 62
1, 156781, Note_off_c, 0, 69, 68
1, 156785, Control_c, 0, 64, 79
1, 156800, Control_c, 0, 64, 71
1, 156815, Control_c, 0, 64, 60
1, 156830, Control_c, 0, 64, 27
1, 156839, Note_on_c, 0, 74, 69
1, 156845, Control_c, 0, 64, 0
1, 156895, Note_on_c, 0, 78, 76
1, 156901, Note_off_c, 0, 74, 62
1, 156929, Note_on_c, 0, 81, 69
1, 156955, Note_off_c, 0, 78, 64
1, 156976, Note_on_c, 0, 86, 82
1, 156979, Control_c, 0, 64, 49
1, 156979, Note_off_c, 0, 81, 68
1, 157001, Control_c, 0, 64, 62
1, 157006, Note_off_c, 0, 86, 70
1, 157015, Control_c, 0, 64, 66
1, 157030, Control_c, 0, 64, 71
1, 157045, Control_c, 0, 64, 78
1, 157060, Control_c, 0, 64, 85
1, 157074, Control_c, 0, 64, 91
1, 157089, Control_c, 0, 64, 92
1, 157149, Control_c, 0, 64, 91
1, 157163, Control_c, 0, 64, 89
1, 157178, Control_c, 0, 64, 86
1, 157193, Control_c, 0, 64, 80
1, 157208, Control_c, 0, 64, 74
1, 157223, Control_c, 0, 64, 66
1, 157224, Note_on_c, 0, 60, 56
1, 157226, Note_on_c, 0, 62, 57
1, 157234, Note_on_c, 0, 42, 45
1, 157238, Control_c, 0, 64, 56
1, 157247, Note_on_c, 0, 30, 32
1, 157253, Control_c, 0, 64, 35
1, 157259, Note_off_c, 0, 62, 64
1, 157261, Note_off_c, 0, 60, 65
1, 157265, Note_off_c, 0, 42, 54
1, 157267, Control_c, 0, 64, 0
1, 157301, Note_off_c, 0, 30, 39
1, 157332, Note_on_c, 0, 62, 62
1, 157339, Note_on_c, 0, 30, 49
1, 157340, Note_on_c, 0, 42, 60
1, 157351, Note_on_c, 0, 60, 45
1, 157376, Note_off_c, 0, 42, 63
1, 157378, Note_off_c, 0, 60, 54
1, 157378, Note_off_c, 0, 62, 59
1, 157378, Note_off_c, 0, 30, 65
1, 157446, Control_c, 0, 64, 53
1, 157460, Control_c, 0, 64, 63
1, 157467, Note_on_c, 0, 70, 71
1, 157472, Note_on_c, 0, 58, 64
1, 157475, Control_c, 0, 64, 66
1, 157476, Note_on_c, 0, 43, 64
1, 157477, Note_on_c, 0, 31, 66
1, 157485, Note_on_c, 0, 62, 59
1, 157490, Control_c, 0, 64, 72
1, 157505, Control_c, 0, 64, 81
1, 157507, Note_off_c, 0, 43, 65
1, 157512, Note_off_c, 0, 31, 64
1, 157514, Note_off_c, 0, 58, 59
1, 157517, Note_off_c, 0, 62, 66
1, 157520, Control_c, 0, 64, 89
1, 157534, Control_c, 0, 64, 94
1, 157535, Note_off_c, 0, 70, 63
1, 157549, Control_c, 0, 64, 95
1, 157578, Control_c, 0, 64, 94
1, 157593, Control_c, 0, 64, 94
1, 157608, Control_c, 0, 64, 93
1, 157623, Control_c, 0, 64, 92
1, 157639, Control_c, 0, 64, 90
1, 157654, Control_c, 0, 64, 88
1, 157669, Control_c, 0, 64, 86
1, 157683, Control_c, 0, 64, 83
1, 157698, Control_c, 0, 64, 76
1, 157713, Control_c, 0, 64, 67
1, 157716, Note_on_c, 0, 60, 61
1, 157717, Note_on_c, 0, 66, 57
1, 157719, Note_on_c, 0, 45, 66
1, 157723, Note_on_c, 0, 33, 63
1, 157724, Note_on_c, 0, 69, 58
1, 157728, Control_c, 0, 64, 57
1, 157751, Control_c, 0, 64, 0
1, 157758, Note_off_c, 0, 45, 65
1, 157760, Note_off_c, 0, 33, 63
1, 157761, Note_off_c, 0, 60, 63
1, 157763, Note_off_c, 0, 66, 62
1, 157767, Note_off_c, 0, 69, 64
1, 157831, Note_on_c, 0, 45, 68
1, 157833, Note_on_c, 0, 33, 72
1, 157835, Note_on_c, 0, 69, 76
1, 157846, Note_on_c, 0, 66, 61
1, 157849, Note_on_c, 0, 60, 63
1, 157867, Note_off_c, 0, 33, 65
1, 157869, Note_off_c, 0, 45, 65
1, 157875, Note_off_c, 0, 69, 65
1, 157880, Note_off_c, 0, 60, 66
1, 157883, Note_off_c, 0, 66, 63
1, 157913, Control_c, 0, 64, 52
1, 157928, Control_c, 0, 64, 60
1, 157943, Control_c, 0, 64, 66
1, 157958, Control_c, 0, 64, 73
1, 157965, Note_on_c, 0, 46, 80
1, 157968, Note_on_c, 0, 62, 68
1, 157968, Note_on_c, 0, 67, 81
1, 157971, Note_on_c, 0, 34, 74
1, 157972, Control_c, 0, 64, 88
1, 157975, Note_on_c, 0, 58, 75
1, 157987, Control_c, 0, 64, 127
1, 157994, Note_off_c, 0, 46, 67
1, 158003, Note_off_c, 0, 34, 64
1, 158022, Note_off_c, 0, 67, 66
1, 158028, Note_off_c, 0, 62, 61
1, 158036, Note_off_c, 0, 58, 60
1, 158165, Control_c, 0, 64, 100
1, 158180, Control_c, 0, 64, 83
1, 158195, Control_c, 0, 64, 72
1, 158209, Control_c, 0, 64, 63
1, 158214, Note_on_c, 0, 65, 69
1, 158216, Note_on_c, 0, 47, 74
1, 158216, Note_on_c, 0, 56, 63
1, 158216, Note_on_c, 0, 35, 72
1, 158224, Control_c, 0, 64, 50
1, 158226, Note_on_c, 0, 62, 58
1, 158239, Control_c, 0, 64, 0
1, 158243, Note_off_c, 0, 35, 63
1, 158243, Note_off_c, 0, 47, 65
1, 158256, Note_off_c, 0, 56, 63
1, 158262, Note_off_c, 0, 65, 59
1, 158263, Note_off_c, 0, 62, 65
1, 158329, Note_on_c, 0, 47, 81
1, 158330, Note_on_c, 0, 35, 75
1, 158330, Note_on_c, 0, 65, 77
1, 158332, Note_on_c, 0, 62, 74
1, 158335, Note_on_c, 0, 56, 69
1, 158363, Note_off_c, 0, 35, 66
1, 158365, Note_off_c, 0, 47, 63
1, 158375, Note_off_c, 0, 56, 61
1, 158380, Note_off_c, 0, 62, 60
1, 158392, Note_off_c, 0, 65, 59
1, 158448, Control_c, 0, 64, 46
1, 158462, Control_c, 0, 64, 60
1, 158471, Note_on_c, 0, 55, 85
1, 158472, Note_on_c, 0, 48, 96
1, 158475, Note_on_c, 0, 64, 83
1, 158484, Note_on_c, 0, 60, 75
1, 158484, Control_c, 0, 64, 64
1, 158487, Note_on_c, 0, 36, 86
1, 158499, Control_c, 0, 64, 73
1, 158511, Note_off_c, 0, 48, 64
1, 158513, Note_off_c, 0, 36, 67
1, 158514, Control_c, 0, 64, 92
1, 158526, Note_off_c, 0, 55, 59
1, 158526, Note_off_c, 0, 60, 58
1, 158529, Control_c, 0, 64, 127
1, 158547, Note_off_c, 0, 64, 62
1, 158692, Control_c, 0, 64, 110
1, 158707, Control_c, 0, 64, 98
1, 158721, Control_c, 0, 64, 84
1, 158736, Control_c, 0, 64, 69
1, 158741, Note_on_c, 0, 59, 73
1, 158743, Note_on_c, 0, 55, 71
1, 158743, Note_on_c, 0, 62, 78
1, 158746, Note_on_c, 0, 53, 83
1, 158748, Note_on_c, 0, 41, 83
1, 158751, Control_c, 0, 64, 53
1, 158766, Control_c, 0, 64, 0
1, 158776, Note_off_c, 0, 53, 67
1, 158779, Note_off_c, 0, 41, 66
1, 158779, Note_off_c, 0, 59, 64
1, 158785, Note_off_c, 0, 55, 62
1, 158800, Note_off_c, 0, 62, 63
1, 158856, Note_on_c, 0, 41, 84
1, 158857, Note_on_c, 0, 53, 91
1, 158858, Note_on_c, 0, 55, 74
1, 158858, Note_on_c, 0, 62, 66
1, 158863, Note_on_c, 0, 59, 74
1, 158889, Note_off_c, 0, 53, 64
1, 158893, Note_off_c, 0, 41, 66
1, 158907, Note_off_c, 0, 55, 58
1, 158916, Note_off_c, 0, 59, 57
1, 158937, Note_off_c, 0, 62, 61
1, 158973, Control_c, 0, 64, 35
1, 158981, Note_on_c, 0, 60, 85
1, 158987, Control_c, 0, 64, 61
1, 158991, Note_on_c, 0, 52, 93
1, 158996, Note_on_c, 0, 55, 67
1, 158997, Note_on_c, 0, 40, 86
1, 159002, Control_c, 0, 64, 64
1, 159017, Control_c, 0, 64, 68
1, 159018, Note_off_c, 0, 52, 67
1, 159026, Note_off_c, 0, 60, 67
1, 159027, Note_off_c, 0, 55, 64
1, 159028, Note_off_c, 0, 40, 68
1, 159031, Control_c, 0, 64, 77
1, 159046, Control_c, 0, 64, 92
1, 159061, Control_c, 0, 64, 127
1, 159256, Note_on_c, 0, 70, 76
1, 159259, Note_on_c, 0, 60, 75
1, 159262, Note_on_c, 0, 36, 70
1, 159264, Note_on_c, 0, 64, 61
1, 159265, Note_on_c, 0, 48, 68
1, 159267, Note_on_c, 0, 67, 62
1, 159277, Control_c, 0, 64, 81
1, 159290, Note_off_c, 0, 60, 61
1, 159291, Note_off_c, 0, 36, 64
1, 159292, Control_c, 0, 64, 60
1, 159294, Note_off_c, 0, 48, 64
1, 159295, Note_off_c, 0, 64, 66
1, 159298, Note_off_c, 0, 67, 66
1, 159306, Note_off_c, 0, 70, 63
1, 159307, Control_c, 0, 64, 0
1, 159363, Note_on_c, 0, 48, 82
1, 159366, Note_on_c, 0, 36, 76
1, 159369, Note_on_c, 0, 70, 82
1, 159371, Note_on_c, 0, 64, 72
1, 159375, Note_on_c, 0, 67, 66
1, 159378, Note_on_c, 0, 60, 76
1, 159398, Note_off_c, 0, 36, 67
1, 159405, Note_off_c, 0, 67, 65
1, 159408, Note_off_c, 0, 48, 62
1, 159408, Note_off_c, 0, 64, 60
1, 159411, Note_off_c, 0, 60, 58
1, 159430, Note_on_c, 0, 68, 3
1, 159438, Note_off_c, 0, 70, 63
1, 159449, Note_off_c, 0, 68, 40
1, 159513, Note_on_c, 0, 60, 85
1, 159514, Note_on_c, 0, 53, 88
1, 159515, Note_on_c, 0, 69, 92
1, 159518, Note_on_c, 0, 41, 92
1, 159519, Note_on_c, 0, 65, 82
1, 159528, Control_c, 0, 64, 63
1, 159536, Note_off_c, 0, 53, 69
1, 159543, Control_c, 0, 64, 67
1, 159545, Note_off_c, 0, 41, 68
1, 159558, Control_c, 0, 64, 72
1, 159573, Control_c, 0, 64, 80
1, 159589, Control_c, 0, 64, 91
1, 159603, Control_c, 0, 64, 99
1, 159618, Control_c, 0, 64, 104
1, 159633, Control_c, 0, 64, 105
1, 159662, Control_c, 0, 64, 104
1, 159677, Control_c, 0, 64, 104
1, 159692, Control_c, 0, 64, 103
1, 159707, Control_c, 0, 64, 102
1, 159720, Note_on_c, 0, 29, 68
1, 159722, Control_c, 0, 64, 101
1, 159736, Control_c, 0, 64, 99
1, 159742, Note_on_c, 0, 33, 58
1, 159766, Control_c, 0, 64, 99
1, 159781, Control_c, 0, 64, 98
1, 159782, Note_off_c, 0, 29, 61
1, 159793, Note_on_c, 0, 36, 66
1, 159796, Control_c, 0, 64, 96
1, 159801, Note_off_c, 0, 33, 62
1, 159811, Control_c, 0, 64, 94
1, 159825, Control_c, 0, 64, 92
1, 159828, Note_off_c, 0, 36, 63
1, 159834, Note_on_c, 0, 41, 67
1, 159840, Control_c, 0, 64, 90
1, 159855, Control_c, 0, 64, 87
1, 159858, Note_off_c, 0, 65, 58
1, 159864, Note_off_c, 0, 41, 65
1, 159870, Control_c, 0, 64, 80
1, 159872, Note_off_c, 0, 60, 56
1, 159885, Control_c, 0, 64, 65
1, 159888, Note_off_c, 0, 69, 59
1, 159900, Control_c, 0, 64, 0
1, 159907, Note_on_c, 0, 45, 76
1, 159965, Note_off_c, 0, 45, 64
1, 159966, Note_on_c, 0, 48, 64
1, 159969, Note_on_c, 0, 47, 61
1, 160004, Note_off_c, 0, 47, 63
1, 160007, Note_off_c, 0, 48, 64
1, 160011, Control_c, 0, 64, 58
1, 160018, Note_on_c, 0, 53, 92
1, 160026, Control_c, 0, 64, 65
1, 160042, Control_c, 0, 64, 72
1, 160051, Note_off_c, 0, 53, 66
1, 160057, Control_c, 0, 64, 85
1, 160072, Control_c, 0, 64, 115
1, 160086, Control_c, 0, 64, 127
1, 160220, Control_c, 0, 64, 112
1, 160234, Control_c, 0, 64, 77
1, 160249, Control_c, 0, 64, 57
1, 160257, Note_on_c, 0, 71, 78
1, 160258, Note_on_c, 0, 62, 77
1, 160258, Note_on_c, 0, 68, 75
1, 160259, Note_on_c, 0, 53, 85
1, 160264, Note_on_c, 0, 41, 79
1, 160264, Control_c, 0, 64, 0
1, 160282, Note_off_c, 0, 53, 66
1, 160289, Note_off_c, 0, 41, 67
1, 160295, Note_off_c, 0, 62, 62
1, 160302, Note_off_c, 0, 68, 58
1, 160306, Note_off_c, 0, 71, 61
1, 160367, Note_on_c, 0, 41, 82
1, 160369, Note_on_c, 0, 53, 92
1, 160370, Note_on_c, 0, 71, 88
1, 160377, Note_on_c, 0, 62, 79
1, 160381, Note_on_c, 0, 68, 79
1, 160396, Note_off_c, 0, 53, 68
1, 160403, Note_off_c, 0, 41, 67
1, 160406, Note_off_c, 0, 62, 64
1, 160431, Note_off_c, 0, 68, 55
1, 160440, Note_off_c, 0, 71, 62
1, 160499, Note_on_c, 0, 72, 96
1, 160501, Note_on_c, 0, 52, 95
1, 160501, Note_on_c, 0, 64, 90
1, 160504, Note_on_c, 0, 67, 86
1, 160507, Note_on_c, 0, 40, 88
1, 160516, Control_c, 0, 64, 54
1, 160524, Note_off_c, 0, 64, 68
1, 160526, Note_off_c, 0, 67, 70
1, 160531, Control_c, 0, 64, 68
1, 160535, Note_off_c, 0, 40, 68
1, 160536, Note_off_c, 0, 52, 64
1, 160541, Note_off_c, 0, 72, 66
1, 160546, Control_c, 0, 64, 76
1, 160560, Control_c, 0, 64, 91
1, 160575, Control_c, 0, 64, 127
1, 160710, Note_on_c, 0, 60, 55
1, 160758, Note_off_c, 0, 60, 61
1, 160771, Note_on_c, 0, 64, 70
1, 160775, Control_c, 0, 64, 117
1, 160790, Control_c, 0, 64, 111
1, 160805, Control_c, 0, 64, 110
1, 160820, Control_c, 0, 64, 109
1, 160821, Note_off_c, 0, 64, 64
1, 160825, Note_on_c, 0, 67, 70
1, 160836, Control_c, 0, 64, 108
1, 160851, Control_c, 0, 64, 107
1, 160854, Note_off_c, 0, 67, 64
1, 160865, Control_c, 0, 64, 104
1, 160880, Control_c, 0, 64, 94
1, 160895, Control_c, 0, 64, 77
1, 160900, Note_on_c, 0, 72, 80
1, 160909, Control_c, 0, 64, 58
1, 160924, Control_c, 0, 64, 0
1, 160946, Note_on_c, 0, 76, 80
1, 160951, Note_off_c, 0, 72, 64
1, 160994, Note_on_c, 0, 79, 83
1, 161014, Note_off_c, 0, 76, 64
1, 161035, Note_on_c, 0, 84, 100
1, 161042, Note_off_c, 0, 79, 68
1, 161043, Control_c, 0, 64, 41
1, 161057, Control_c, 0, 64, 64
1, 161066, Note_off_c, 0, 84, 68
1, 161072, Control_c, 0, 64, 69
1, 161087, Control_c, 0, 64, 79
1, 161101, Control_c, 0, 64, 98
1, 161116, Control_c, 0, 64, 127
1, 161280, Control_c, 0, 64, 115
1, 161292, Note_on_c, 0, 69, 60
1, 161295, Control_c, 0, 64, 94
1, 161295, Note_on_c, 0, 63, 72
1, 161295, Note_on_c, 0, 72, 73
1, 161298, Note_on_c, 0, 66, 64
1, 161298, Note_on_c, 0, 48, 76
1, 161304, Note_on_c, 0, 36, 67
1, 161309, Control_c, 0, 64, 75
1, 161324, Control_c, 0, 64, 61
1, 161328, Note_off_c, 0, 48, 67
1, 161328, Note_off_c, 0, 63, 62
1, 161330, Note_off_c, 0, 66, 65
1, 161339, Control_c, 0, 64, 0
1, 161340, Note_off_c, 0, 36, 64
1, 161345, Note_off_c, 0, 69, 60
1, 161347, Note_off_c, 0, 72, 61
1, 161405, Note_on_c, 0, 36, 79
1, 161408, Note_on_c, 0, 66, 73
1, 161408, Note_on_c, 0, 72, 69
1, 161412, Note_on_c, 0, 48, 62
1, 161419, Note_on_c, 0, 63, 67
1, 161431, Note_on_c, 0, 69, 45
1, 161435, Note_off_c, 0, 48, 60
1, 161437, Note_off_c, 0, 36, 67
1, 161446, Note_off_c, 0, 66, 54
1, 161452, Note_off_c, 0, 63, 62
1, 161461, Note_off_c, 0, 69, 56
1, 161468, Note_off_c, 0, 72, 63
1, 161540, Note_on_c, 0, 43, 89
1, 161545, Note_on_c, 0, 62, 85
1, 161545, Note_on_c, 0, 67, 85
1, 161545, Note_on_c, 0, 31, 81
1, 161547, Note_on_c, 0, 71, 88
1, 161554, Control_c, 0, 64, 23
1, 161569, Control_c, 0, 64, 64
1, 161575, Note_off_c, 0, 43, 65
1, 161576, Note_off_c, 0, 31, 67
1, 161583, Control_c, 0, 64, 66
1, 161598, Control_c, 0, 64, 70
1, 161612, Note_off_c, 0, 62, 55
1, 161613, Control_c, 0, 64, 74
1, 161628, Control_c, 0, 64, 78
1, 161637, Note_off_c, 0, 67, 57
1, 161644, Control_c, 0, 64, 80
1, 161658, Note_off_c, 0, 71, 54
1, 161659, Control_c, 0, 64, 81
1, 161674, Control_c, 0, 64, 81
1, 161739, Note_on_c, 0, 31, 58
1, 161762, Control_c, 0, 64, 81
1, 161777, Control_c, 0, 64, 80
1, 161787, Note_on_c, 0, 35, 57
1, 161803, Note_off_c, 0, 31, 62
1, 161806, Control_c, 0, 64, 80
1, 161821, Control_c, 0, 64, 79
1, 161825, Note_on_c, 0, 38, 67
1, 161833, Note_off_c, 0, 35, 62
1, 161836, Control_c, 0, 64, 77
1, 161851, Control_c, 0, 64, 72
1, 161863, Note_off_c, 0, 38, 62
1, 161866, Control_c, 0, 64, 61
1, 161876, Note_on_c, 0, 43, 59
1, 161880, Control_c, 0, 64, 0
1, 161905, Note_off_c, 0, 43, 65
1, 161947, Note_on_c, 0, 47, 71
1, 161992, Note_on_c, 0, 50, 73
1, 162005, Note_off_c, 0, 47, 62
1, 162040, Note_off_c, 0, 50, 65
1, 162043, Control_c, 0, 64, 63
1, 162054, Note_on_c, 0, 55, 89
1, 162058, Control_c, 0, 64, 68
1, 162073, Control_c, 0, 64, 76
1, 162078, Note_off_c, 0, 55, 69
1, 162088, Control_c, 0, 64, 93
1, 162103, Control_c, 0, 64, 127
1, 162288, Control_c, 0, 64, 86
1, 162299, Note_on_c, 0, 70, 81
1, 162300, Note_on_c, 0, 73, 86
1, 162302, Note_on_c, 0, 64, 78
1, 162303, Control_c, 0, 64, 61
1, 162303, Note_on_c, 0, 55, 84
1, 162308, Note_on_c, 0, 43, 78
1, 162317, Control_c, 0, 64, 0
1, 162332, Note_off_c, 0, 55, 67
1, 162334, Note_off_c, 0, 43, 65
1, 162336, Note_off_c, 0, 64, 61
1, 162353, Note_off_c, 0, 70, 63
1, 162357, Note_off_c, 0, 73, 64
1, 162414, Note_on_c, 0, 43, 81
1, 162416, Note_on_c, 0, 55, 93
1, 162416, Note_on_c, 0, 73, 89
1, 162419, Note_on_c, 0, 70, 84
1, 162424, Note_on_c, 0, 64, 86
1, 162452, Note_off_c, 0, 55, 62
1, 162452, Note_off_c, 0, 64, 61
1, 162458, Note_off_c, 0, 43, 62
1, 162479, Note_off_c, 0, 70, 62
1, 162491, Note_off_c, 0, 73, 59
1, 162548, Note_on_c, 0, 74, 97
1, 162550, Note_on_c, 0, 53, 97
1, 162550, Note_on_c, 0, 65, 90
1, 162551, Note_on_c, 0, 69, 89
1, 162553, Note_on_c, 0, 41, 93
1, 162570, Control_c, 0, 64, 63
1, 162573, Note_off_c, 0, 65, 67
1, 162583, Control_c, 0, 64, 68
1, 162589, Note_off_c, 0, 69, 63
1, 162591, Note_off_c, 0, 53, 66
1, 162593, Note_off_c, 0, 74, 68
1, 162595, Note_off_c, 0, 41, 64
1, 162598, Control_c, 0, 64, 75
1, 162613, Control_c, 0, 64, 85
1, 162627, Control_c, 0, 64, 104
1, 162642, Control_c, 0, 64, 127
1, 162765, Note_on_c, 0, 65, 72
1, 162806, Note_off_c, 0, 65, 56
1, 162824, Note_on_c, 0, 69, 78
1, 162836, Control_c, 0, 64, 125
1, 162851, Control_c, 0, 64, 104
1, 162866, Control_c, 0, 64, 86
1, 162869, Note_off_c, 0, 69, 64
1, 162872, Note_on_c, 0, 74, 75
1, 162880, Control_c, 0, 64, 70
1, 162895, Control_c, 0, 64, 54
1, 162897, Note_off_c, 0, 74, 67
1, 162910, Control_c, 0, 64, 0
1, 162943, Note_on_c, 0, 77, 82
1, 163001, Note_on_c, 0, 81, 81
1, 163009, Note_off_c, 0, 77, 61
1, 163057, Note_on_c, 0, 86, 76
1, 163066, Note_off_c, 0, 81, 66
1, 163080, Control_c, 0, 64, 60
1, 163095, Note_on_c, 0, 89, 102
1, 163095, Control_c, 0, 64, 66
1, 163107, Note_off_c, 0, 86, 66
1, 163110, Control_c, 0, 64, 74
1, 163125, Control_c, 0, 64, 98
1, 163130, Note_off_c, 0, 89, 65
1, 163140, Control_c, 0, 64, 127
1, 163358, Note_on_c, 0, 29, 65
1, 163395, Note_on_c, 0, 34, 65
1, 163399, Note_on_c, 0, 77, 79
1, 163401, Note_on_c, 0, 65, 70
1, 163402, Note_on_c, 0, 74, 67
1, 163421, Note_off_c, 0, 29, 59
1, 163432, Note_off_c, 0, 74, 65
1, 163433, Note_off_c, 0, 65, 64
1, 163446, Note_on_c, 0, 38, 66
1, 163449, Note_off_c, 0, 77, 63
1, 163461, Note_off_c, 0, 34, 61
1, 163478, Note_off_c, 0, 38, 64
1, 163523, Note_on_c, 0, 43, 21
1, 163531, Note_on_c, 0, 74, 77
1, 163537, Note_on_c, 0, 65, 71
1, 163538, Note_on_c, 0, 77, 83
1, 163556, Control_c, 0, 64, 106
1, 163563, Note_off_c, 0, 65, 64
1, 163566, Note_off_c, 0, 43, 43
1, 163567, Note_on_c, 0, 46, 71
1, 163571, Control_c, 0, 64, 73
1, 163579, Note_off_c, 0, 74, 62
1, 163579, Note_off_c, 0, 77, 57
1, 163585, Control_c, 0, 64, 39
1, 163590, Poly_aftertouch_c, 0, 75, 0
1, 163600, Note_on_c, 0, 50, 55
1, 163600, Control_c, 0, 64, 0
1, 163636, Note_off_c, 0, 46, 63
1, 163647, Note_on_c, 0, 53, 91
1, 163658, Note_on_c, 0, 73, 77
1, 163665, Note_on_c, 0, 76, 85
1, 163671, Note_on_c, 0, 65, 72
1, 163674, Note_off_c, 0, 50, 63
1, 163682, Note_off_c, 0, 53, 65
1, 163689, Control_c, 0, 64, 33
1, 163696, Note_off_c, 0, 65, 68
1, 163704, Control_c, 0, 64, 63
1, 163710, Note_off_c, 0, 73, 63
1, 163726, Note_off_c, 0, 76, 66
1, 163726, Control_c, 0, 64, 68
1, 163741, Control_c, 0, 64, 74
1, 163756, Control_c, 0, 64, 82
1, 163771, Control_c, 0, 64, 87
1, 163785, Control_c, 0, 64, 91
1, 163800, Control_c, 0, 64, 93
1, 163859, Control_c, 0, 64, 92
1, 163885, Note_on_c, 0, 65, 61
1, 163889, Control_c, 0, 64, 92
1, 163900, Note_on_c, 0, 61, 66
1, 163905, Note_on_c, 0, 64, 66
1, 163918, Note_on_c, 0, 53, 53
1, 163918, Note_on_c, 0, 70, 71
1, 163922, Note_off_c, 0, 65, 60
1, 163928, Note_off_c, 0, 61, 66
1, 163933, Control_c, 0, 64, 91
1, 163936, Note_on_c, 0, 73, 77
1, 163936, Note_off_c, 0, 64, 67
1, 163944, Note_off_c, 0, 53, 61
1, 163948, Control_c, 0, 64, 90
1, 163956, Note_off_c, 0, 70, 63
1, 163958, Note_off_c, 0, 73, 71
1, 163963, Control_c, 0, 64, 88
1, 163978, Control_c, 0, 64, 85
1, 163993, Control_c, 0, 64, 74
1, 164008, Control_c, 0, 64, 62
1, 164016, Note_on_c, 0, 61, 75
1, 164020, Note_on_c, 0, 64, 75
1, 164023, Note_on_c, 0, 77, 80
1, 164023, Control_c, 0, 64, 0
1, 164026, Note_on_c, 0, 53, 62
1, 164045, Note_off_c, 0, 64, 68
1, 164061, Note_off_c, 0, 53, 66
1, 164073, Note_off_c, 0, 61, 61
1, 164073, Note_on_c, 0, 82, 80
1, 164085, Note_off_c, 0, 77, 61
1, 164104, Note_on_c, 0, 85, 68
1, 164138, Note_off_c, 0, 82, 65
1, 164151, Note_on_c, 0, 89, 101
1, 164157, Control_c, 0, 64, 63
1, 164161, Note_on_c, 0, 53, 69
1, 164162, Note_on_c, 0, 60, 77
1, 164166, Note_on_c, 0, 63, 71
1, 164167, Note_off_c, 0, 85, 65
1, 164172, Control_c, 0, 64, 74
1, 164184, Note_off_c, 0, 89, 67
1, 164186, Note_off_c, 0, 60, 70
1, 164186, Control_c, 0, 64, 102
1, 164193, Note_off_c, 0, 63, 68
1, 164195, Note_off_c, 0, 53, 68
1, 164201, Control_c, 0, 64, 127
1, 164407, Note_on_c, 0, 65, 45
1, 164409, Note_on_c, 0, 29, 70
1, 164422, Note_on_c, 0, 72, 62
1, 164423, Note_on_c, 0, 33, 60
1, 164428, Note_on_c, 0, 75, 63
1, 164453, Control_c, 0, 64, 81
1, 164454, Note_off_c, 0, 72, 65
1, 164458, Note_off_c, 0, 75, 66
1, 164464, Note_off_c, 0, 65, 59
1, 164468, Control_c, 0, 64, 59
1, 164470, Note_off_c, 0, 29, 61
1, 164488, Note_on_c, 0, 36, 63
1, 164490, Control_c, 0, 64, 0
1, 164498, Note_off_c, 0, 33, 63
1, 164526, Note_off_c, 0, 36, 64
1, 164528, Note_on_c, 0, 41, 65
1, 164559, Note_off_c, 0, 41, 65
1, 164563, Note_on_c, 0, 75, 76
1, 164568, Note_on_c, 0, 72, 63
1, 164576, Note_on_c, 0, 65, 63
1, 164601, Note_off_c, 0, 72, 64
1, 164604, Note_on_c, 0, 45, 70
1, 164607, Note_off_c, 0, 65, 64
1, 164628, Note_off_c, 0, 75, 59
1, 164643, Note_on_c, 0, 48, 76
1, 164665, Note_off_c, 0, 45, 63
1, 164687, Note_on_c, 0, 74, 90
1, 164690, Note_on_c, 0, 53, 91
1, 164693, Note_on_c, 0, 65, 74
1, 164697, Control_c, 0, 64, 59
1, 164699, Note_on_c, 0, 71, 69
1, 164705, Note_off_c, 0, 48, 60
1, 164712, Control_c, 0, 64, 70
1, 164720, Note_off_c, 0, 53, 67
1, 164726, Control_c, 0, 64, 81
1, 164729, Note_off_c, 0, 65, 59
1, 164735, Note_off_c, 0, 71, 60
1, 164741, Control_c, 0, 64, 104
1, 164756, Control_c, 0, 64, 127
1, 164760, Note_off_c, 0, 74, 58
1, 164908, Note_on_c, 0, 65, 57
1, 164921, Note_on_c, 0, 62, 83
1, 164927, Note_on_c, 0, 59, 67
1, 164943, Note_on_c, 0, 53, 53
1, 164947, Note_on_c, 0, 71, 54
1, 164949, Note_off_c, 0, 65, 65
1, 164950, Note_off_c, 0, 62, 62
1, 164959, Note_off_c, 0, 59, 65
1, 164969, Note_off_c, 0, 53, 66
1, 164976, Note_on_c, 0, 74, 69
1, 164976, Note_on_c, 0, 72, 17
1, 164981, Note_off_c, 0, 71, 67
1, 165001, Note_off_c, 0, 74, 68
1, 165020, Note_off_c, 0, 72, 53
1, 165024, Control_c, 0, 64, 107
1, 165039, Note_on_c, 0, 59, 77
1, 165039, Control_c, 0, 64, 82
1, 165047, Note_on_c, 0, 62, 78
1, 165051, Note_on_c, 0, 53, 51
1, 165054, Control_c, 0, 64, 63
1, 165065, Note_on_c, 0, 77, 69
1, 165069, Control_c, 0, 64, 0
1, 165071, Note_off_c, 0, 62, 70
1, 165090, Note_off_c, 0, 59, 63
1, 165092, Note_off_c, 0, 53, 64
1, 165101, Note_on_c, 0, 83, 76
1, 165117, Note_off_c, 0, 77, 61
1, 165144, Note_on_c, 0, 86, 62
1, 165154, Note_off_c, 0, 83, 64
1, 165171, Note_on_c, 0, 84, 39
1, 165172, Note_off_c, 0, 84, 127
1, 165176, Note_on_c, 0, 53, 76
1, 165176, Note_on_c, 0, 89, 97
1, 165183, Note_on_c, 0, 61, 81
1, 165186, Note_on_c, 0, 58, 81
1, 165187, Control_c, 0, 64, 55
1, 165189, Note_off_c, 0, 86, 63
1, 165202, Control_c, 0, 64, 69
1, 165204, Note_off_c, 0, 61, 70
1, 165206, Note_off_c, 0, 89, 66
1, 165215, Note_off_c, 0, 58, 68
1, 165217, Control_c, 0, 64, 80
1, 165227, Note_off_c, 0, 53, 63
1, 165239, Control_c, 0, 64, 100
1, 165254, Control_c, 0, 64, 127
1, 165438, Note_on_c, 0, 29, 64
1, 165456, Note_on_c, 0, 70, 69
1, 165463, Note_on_c, 0, 73, 68
1, 165468, Note_on_c, 0, 65, 59
1, 165486, Note_on_c, 0, 34, 68
1, 165487, Note_off_c, 0, 70, 65
1, 165490, Control_c, 0, 64, 109
1, 165492, Note_off_c, 0, 73, 65
1, 165501, Note_off_c, 0, 65, 65
1, 165505, Control_c, 0, 64, 79
1, 165511, Note_off_c, 0, 29, 60
1, 165520, Note_on_c, 0, 37, 69
1, 165520, Control_c, 0, 64, 60
1, 165535, Control_c, 0, 64, 0
1, 165536, Note_off_c, 0, 34, 62
1, 165558, Note_on_c, 0, 41, 70
1, 165558, Note_off_c, 0, 37, 63
1, 165589, Note_off_c, 0, 41, 65
1, 165593, Note_on_c, 0, 65, 64
1, 165593, Note_on_c, 0, 73, 69
1, 165597, Note_on_c, 0, 70, 62
1, 165634, Note_off_c, 0, 70, 63
1, 165641, Note_off_c, 0, 73, 54
1, 165647, Note_off_c, 0, 65, 56
1, 165666, Note_on_c, 0, 47, 60
1, 165694, Note_on_c, 0, 49, 63
1, 165698, Note_off_c, 0, 47, 64
1, 165714, Control_c, 0, 64, 63
1, 165724, Note_on_c, 0, 50, 54
1, 165724, Note_on_c, 0, 72, 82
1, 165725, Note_on_c, 0, 69, 68
1, 165728, Control_c, 0, 64, 68
1, 165729, Note_off_c, 0, 49, 48
1, 165731, Note_on_c, 0, 65, 57
1, 165743, Control_c, 0, 64, 76
1, 165744, Note_on_c, 0, 53, 80
1, 165750, Note_off_c, 0, 69, 68
1, 165751, Note_off_c, 0, 50, 38
1, 165752, Note_off_c, 0, 65, 61
1, 165758, Control_c, 0, 64, 97
1, 165762, Note_off_c, 0, 72, 68
1, 165769, Note_off_c, 0, 53, 68
1, 165772, Control_c, 0, 64, 127
1, 165974, Note_on_c, 0, 69, 67
1, 165981, Note_on_c, 0, 59, 76
1, 166014, Note_off_c, 0, 59, 64
1, 166014, Note_on_c, 0, 45, 34
1, 166017, Control_c, 0, 64, 115
1, 166019, Note_on_c, 0, 74, 67
1, 166023, Note_on_c, 0, 47, 27
1, 166032, Control_c, 0, 64, 105
1, 166033, Note_off_c, 0, 69, 62
1, 166047, Control_c, 0, 64, 94
1, 166052, Note_off_c, 0, 45, 46
1, 166061, Note_off_c, 0, 47, 42
1, 166061, Control_c, 0, 64, 83
1, 166071, Note_on_c, 0, 77, 70
1, 166071, Note_off_c, 0, 74, 65
1, 166076, Control_c, 0, 64, 72
1, 166091, Control_c, 0, 64, 64
1, 166092, Poly_aftertouch_c, 0, 57, 0
1, 166097, Note_off_c, 0, 77, 64
1, 166106, Control_c, 0, 64, 48
1, 166118, Note_on_c, 0, 57, 61
1, 166121, Control_c, 0, 64, 0
1, 166130, Note_on_c, 0, 45, 64
1, 166133, Note_on_c, 0, 81, 80
1, 166159, Note_off_c, 0, 57, 64
1, 166165, Note_off_c, 0, 45, 64
1, 166184, Note_on_c, 0, 86, 80
1, 166194, Note_off_c, 0, 81, 65
1, 166231, Note_on_c, 0, 89, 80
1, 166252, Note_off_c, 0, 86, 64
1, 166254, Control_c, 0, 64, 39
1, 166269, Control_c, 0, 64, 66
1, 166270, Note_on_c, 0, 93, 102
1, 166276, Note_on_c, 0, 57, 94
1, 166281, Note_on_c, 0, 45, 81
1, 166282, Note_off_c, 0, 89, 64
1, 166284, Control_c, 0, 64, 79
1, 166297, Note_off_c, 0, 93, 71
1, 166298, Control_c, 0, 64, 127
1, 166309, Note_off_c, 0, 57, 63
1, 166310, Note_off_c, 0, 45, 68
1, 166551, Control_c, 0, 64, 103
1, 166566, Control_c, 0, 64, 72
1, 166581, Control_c, 0, 64, 49
1, 166583, Note_on_c, 0, 73, 90
1, 166585, Note_on_c, 0, 64, 83
1, 166585, Note_on_c, 0, 67, 79
1, 166586, Note_on_c, 0, 57, 88
1, 166588, Note_on_c, 0, 69, 78
1, 166592, Note_on_c, 0, 45, 76
1, 166595, Control_c, 0, 64, 0
1, 166617, Note_off_c, 0, 57, 65
1, 166622, Note_off_c, 0, 45, 67
1, 166640, Note_off_c, 0, 67, 57
1, 166644, Note_off_c, 0, 64, 53
1, 166646, Note_off_c, 0, 69, 58
1, 166664, Note_off_c, 0, 73, 61
1, 166763, Note_on_c, 0, 64, 83
1, 166764, Note_on_c, 0, 67, 76
1, 166765, Note_on_c, 0, 73, 96
1, 166769, Note_on_c, 0, 69, 67
1, 166771, Note_on_c, 0, 57, 89
1, 166772, Note_on_c, 0, 45, 82
1, 166792, Note_off_c, 0, 57, 71
1, 166799, Note_off_c, 0, 69, 65
1, 166799, Note_off_c, 0, 67, 63
1, 166801, Note_off_c, 0, 64, 59
1, 166805, Note_off_c, 0, 45, 67
1, 166837, Note_off_c, 0, 73, 62
1, 167005, Note_on_c, 0, 50, 87
1, 167005, Note_on_c, 0, 69, 89
1, 167005, Note_on_c, 0, 74, 98
1, 167007, Note_on_c, 0, 65, 86
1, 167009, Note_on_c, 0, 38, 80
1, 167018, Control_c, 0, 64, 64
1, 167033, Control_c, 0, 64, 73
1, 167048, Control_c, 0, 64, 98
1, 167050, Note_off_c, 0, 65, 62
1, 167052, Note_off_c, 0, 69, 65
1, 167061, Note_off_c, 0, 74, 67
1, 167063, Control_c, 0, 64, 127
1, 167065, Note_off_c, 0, 38, 57
1, 167081, Note_off_c, 0, 50, 50
1, 167545, Control_c, 0, 64, 122
1, 167560, Control_c, 0, 64, 110
1, 167575, Control_c, 0, 64, 106
1, 167590, Control_c, 0, 64, 103
1, 167605, Control_c, 0, 64, 101
1, 167619, Control_c, 0, 64, 98
1, 167634, Control_c, 0, 64, 95
1, 167649, Control_c, 0, 64, 92
1, 167664, Control_c, 0, 64, 89
1, 167679, Control_c, 0, 64, 86
1, 167693, Control_c, 0, 64, 84
1, 167708, Control_c, 0, 64, 83
1, 167723, Control_c, 0, 64, 82
1, 167738, Control_c, 0, 64, 79
1, 167752, Control_c, 0, 64, 76
1, 167767, Control_c, 0, 64, 71
1, 167782, Control_c, 0, 64, 67
1, 167797, Control_c, 0, 64, 64
1, 167804, Note_on_c, 0, 62, 38
1, 167812, Control_c, 0, 64, 63
1, 167826, Control_c, 0, 64, 62
1, 167841, Control_c, 0, 64, 61
1, 167856, Control_c, 0, 64, 59
1, 167857, Note_off_c, 0, 62, 62
1, 167871, Control_c, 0, 64, 55
1, 167886, Control_c, 0, 64, 52
1, 167887, Note_on_c, 0, 64, 47
1, 167901, Control_c, 0, 64, 50
1, 167916, Control_c, 0, 64, 48
1, 167925, Note_off_c, 0, 64, 65
1, 167931, Control_c, 0, 64, 46
1, 167936, Note_on_c, 0, 65, 55
1, 167945, Control_c, 0, 64, 44
1, 167960, Control_c, 0, 64, 42
1, 167963, Note_off_c, 0, 65, 63
1, 167975, Control_c, 0, 64, 41
1, 167990, Control_c, 0, 64, 40
1, 168005, Note_on_c, 0, 65, 75
1, 168005, Control_c, 0, 64, 38
1, 168020, Control_c, 0, 64, 37
1, 168035, Control_c, 0, 64, 35
1, 168042, Note_off_c, 0, 65, 63
1, 168050, Control_c, 0, 64, 34
1, 168065, Control_c, 0, 64, 33
1, 168071, Note_on_c, 0, 64, 56
1, 168112, Note_on_c, 0, 62, 61
1, 168112, Note_off_c, 0, 64, 63
1, 168172, Note_on_c, 0, 47, 57
1, 168174, Note_off_c, 0, 62, 63
1, 168176, Note_on_c, 0, 35, 52
1, 168180, Note_on_c, 0, 65, 57
1, 168190, Note_on_c, 0, 69, 49
1, 168204, Note_off_c, 0, 47, 64
1, 168209, Note_off_c, 0, 35, 59
1, 168225, Note_off_c, 0, 69, 64
1, 168240, Note_off_c, 0, 65, 63
1, 168258, Note_on_c, 0, 64, 56
1, 168305, Note_off_c, 0, 64, 54
1, 168319, Note_on_c, 0, 62, 44
1, 168356, Note_off_c, 0, 62, 64
1, 168366, Note_on_c, 0, 68, 49
1, 168367, Note_on_c, 0, 52, 59
1, 168376, Note_on_c, 0, 65, 55
1, 168377, Note_on_c, 0, 40, 41
1, 168404, Note_off_c, 0, 52, 65
1, 168411, Note_off_c, 0, 68, 61
1, 168414, Note_off_c, 0, 40, 54
1, 168421, Note_off_c, 0, 65, 63
1, 168451, Note_on_c, 0, 64, 56
1, 168484, Note_off_c, 0, 64, 65
1, 168489, Note_on_c, 0, 62, 49
1, 168520, Note_off_c, 0, 62, 64
1, 168574, Note_on_c, 0, 56, 49
1, 168584, Note_on_c, 0, 62, 51
1, 168585, Note_on_c, 0, 59, 40
1, 168604, Note_off_c, 0, 56, 64
1, 168612, Note_off_c, 0, 59, 57
1, 168622, Note_off_c, 0, 62, 64
1, 168643, Note_on_c, 0, 64, 55
1, 168685, Note_off_c, 0, 64, 65
1, 168701, Note_on_c, 0, 65, 58
1, 168726, Note_off_c, 0, 65, 63
1, 168770, Note_on_c, 0, 65, 77
1, 168817, Note_off_c, 0, 65, 62
1, 168826, Note_on_c, 0, 64, 66
1, 168890, Note_off_c, 0, 64, 61
1, 168899, Note_on_c, 0, 62, 59
1, 168955, Note_on_c, 0, 47, 47
1, 168956, Note_on_c, 0, 35, 41
1, 168958, Note_off_c, 0, 62, 63
1, 168959, Note_on_c, 0, 65, 54
1, 168971, Note_on_c, 0, 69, 67
1, 168992, Note_off_c, 0, 47, 61
1, 169002, Note_off_c, 0, 35, 47
1, 169004, Note_off_c, 0, 69, 64
1, 169011, Note_off_c, 0, 65, 61
1, 169037, Note_on_c, 0, 64, 60
1, 169107, Note_off_c, 0, 64, 46
1, 169112, Note_on_c, 0, 62, 46
1, 169152, Note_off_c, 0, 62, 64
1, 169157, Note_on_c, 0, 52, 55
1, 169159, Note_on_c, 0, 40, 43
1, 169160, Note_on_c, 0, 65, 56
1, 169165, Note_on_c, 0, 68, 47
1, 169193, Note_off_c, 0, 40, 54
1, 169193, Note_off_c, 0, 52, 65
1, 169204, Note_off_c, 0, 68, 62
1, 169205, Note_off_c, 0, 65, 63
1, 169228, Note_on_c, 0, 64, 61
1, 169263, Note_off_c, 0, 64, 65
1, 169281, Note_on_c, 0, 62, 43
1, 169309, Note_off_c, 0, 62, 60
1, 169360, Note_on_c, 0, 62, 47
1, 169363, Note_on_c, 0, 56, 44
1, 169366, Note_on_c, 0, 59, 37
1, 169390, Note_off_c, 0, 56, 55
1, 169392, Note_off_c, 0, 59, 50
1, 169396, Note_off_c, 0, 62, 64
1, 169417, Note_on_c, 0, 64, 62
1, 169461, Note_off_c, 0, 64, 62
1, 169477, Note_on_c, 0, 65, 61
1, 169505, Note_off_c, 0, 65, 64
1, 169543, Note_on_c, 0, 65, 81
1, 169594, Note_off_c, 0, 65, 63
1, 169601, Note_on_c, 0, 64, 69
1, 169662, Note_off_c, 0, 64, 62
1, 169665, Note_on_c, 0, 62, 64
1, 169732, Note_off_c, 0, 62, 63
1, 169734, Note_on_c, 0, 47, 57
1, 169740, Note_on_c, 0, 35, 43
1, 169741, Note_on_c, 0, 69, 67
1, 169742, Note_on_c, 0, 65, 52
1, 169767, Note_off_c, 0, 47, 64
1, 169776, Note_off_c, 0, 35, 49
1, 169779, Note_off_c, 0, 65, 65
1, 169779, Note_off_c, 0, 69, 64
1, 169805, Note_on_c, 0, 64, 61
1, 169862, Note_on_c, 0, 62, 42
1, 169862, Note_off_c, 0, 64, 45
1, 169905, Note_off_c, 0, 62, 64
1, 169917, Note_on_c, 0, 68, 64
1, 169919, Note_on_c, 0, 52, 63
1, 169921, Note_on_c, 0, 40, 51
1, 169929, Note_on_c, 0, 65, 46
1, 169951, Note_off_c, 0, 40, 57
1, 169957, Note_off_c, 0, 52, 65
1, 169960, Note_off_c, 0, 65, 63
1, 169985, Note_on_c, 0, 64, 66
1, 169987, Note_off_c, 0, 68, 61
1, 170022, Note_off_c, 0, 64, 65
1, 170047, Note_on_c, 0, 62, 51
1, 170089, Note_off_c, 0, 62, 63
1, 170107, Note_on_c, 0, 68, 77
1, 170107, Note_on_c, 0, 71, 79
1, 170113, Note_on_c, 0, 56, 58
1, 170127, Note_on_c, 0, 59, 50
1, 170145, Note_off_c, 0, 56, 66
1, 170157, Note_off_c, 0, 59, 63
1, 170168, Note_off_c, 0, 71, 63
1, 170178, Note_on_c, 0, 65, 75
1, 170179, Note_off_c, 0, 68, 61
1, 170221, Note_off_c, 0, 65, 61
1, 170238, Note_on_c, 0, 62, 67
1, 170285, Note_on_c, 0, 56, 58
1, 170291, Note_off_c, 0, 62, 58
1, 170296, Note_on_c, 0, 59, 41
1, 170302, Note_on_c, 0, 74, 85
1, 170309, Note_on_c, 0, 71, 80
1, 170317, Note_off_c, 0, 56, 66
1, 170324, Note_off_c, 0, 59, 49
1, 170332, Note_on_c, 0, 70, 5
1, 170351, Note_off_c, 0, 70, 45
1, 170357, Note_off_c, 0, 71, 57
1, 170363, Note_on_c, 0, 68, 70
1, 170370, Note_off_c, 0, 74, 66
1, 170418, Note_off_c, 0, 68, 60
1, 170420, Note_on_c, 0, 65, 66
1, 170467, Note_off_c, 0, 65, 60
1, 170501, Note_on_c, 0, 40, 44
1, 170503, Note_on_c, 0, 52, 53
1, 170503, Note_on_c, 0, 65, 52
1, 170506, Note_on_c, 0, 68, 65
1, 170528, Note_off_c, 0, 52, 63
1, 170533, Note_off_c, 0, 40, 55
1, 170548, Note_off_c, 0, 65, 62
1, 170575, Note_on_c, 0, 64, 66
1, 170583, Note_off_c, 0, 68, 62
1, 170607, Note_off_c, 0, 64, 66
1, 170629, Control_c, 0, 64, 31
1, 170643, Note_on_c, 0, 62, 44
1, 170643, Control_c, 0, 64, 30
1, 170658, Control_c, 0, 64, 29
1, 170673, Control_c, 0, 64, 29
1, 170683, Note_off_c, 0, 62, 60
1, 170688, Note_on_c, 0, 45, 50
1, 170688, Control_c, 0, 64, 40
1, 170689, Note_on_c, 0, 57, 50
1, 170703, Control_c, 0, 64, 53
1, 170715, Note_on_c, 0, 61, 56
1, 170717, Note_on_c, 0, 69, 52
1, 170718, Control_c, 0, 64, 61
1, 170721, Note_on_c, 0, 64, 48
1, 170733, Control_c, 0, 64, 66
1, 170739, Note_off_c, 0, 45, 62
1, 170739, Note_off_c, 0, 57, 62
1, 170747, Note_off_c, 0, 61, 64
1, 170747, Control_c, 0, 64, 72
1, 170753, Note_off_c, 0, 64, 64
1, 170760, Note_off_c, 0, 69, 64
1, 170762, Control_c, 0, 64, 82
1, 170777, Control_c, 0, 64, 97
1, 170792, Control_c, 0, 64, 127
1, 170923, Note_on_c, 0, 67, 56
1, 170926, Control_c, 0, 64, 103
1, 170941, Control_c, 0, 64, 85
1, 170956, Control_c, 0, 64, 71
1, 170957, Note_off_c, 0, 67, 63
1, 170970, Control_c, 0, 64, 61
1, 170973, Note_on_c, 0, 69, 68
1, 170985, Control_c, 0, 64, 52
1, 171000, Control_c, 0, 64, 48
1, 171006, Note_off_c, 0, 69, 64
1, 171015, Control_c, 0, 64, 46
1, 171022, Note_on_c, 0, 70, 70
1, 171030, Control_c, 0, 64, 41
1, 171044, Control_c, 0, 64, 37
1, 171046, Note_off_c, 0, 70, 68
1, 171059, Control_c, 0, 64, 34
1, 171074, Control_c, 0, 64, 31
1, 171087, Note_on_c, 0, 70, 87
1, 171089, Control_c, 0, 64, 30
1, 171104, Control_c, 0, 64, 28
1, 171118, Control_c, 0, 64, 27
1, 171133, Control_c, 0, 64, 26
1, 171142, Note_off_c, 0, 70, 66
1, 171147, Note_on_c, 0, 69, 71
1, 171219, Note_off_c, 0, 69, 64
1, 171220, Note_on_c, 0, 67, 68
1, 171245, Control_c, 0, 64, 25
1, 171265, Note_on_c, 0, 52, 59
1, 171274, Note_on_c, 0, 40, 43
1, 171278, Note_off_c, 0, 67, 61
1, 171292, Note_on_c, 0, 70, 61
1, 171292, Note_on_c, 0, 74, 61
1, 171300, Note_off_c, 0, 52, 65
1, 171309, Note_off_c, 0, 40, 53
1, 171327, Note_off_c, 0, 74, 63
1, 171353, Note_on_c, 0, 69, 70
1, 171353, Note_off_c, 0, 70, 62
1, 171364, Control_c, 0, 64, 25
1, 171411, Note_off_c, 0, 69, 62
1, 171421, Note_on_c, 0, 67, 51
1, 171460, Note_off_c, 0, 67, 65
1, 171475, Note_on_c, 0, 73, 55
1, 171484, Note_on_c, 0, 70, 54
1, 171487, Note_on_c, 0, 57, 44
1, 171515, Note_off_c, 0, 73, 64
1, 171520, Note_off_c, 0, 57, 63
1, 171522, Note_off_c, 0, 70, 64
1, 171533, Note_on_c, 0, 69, 65
1, 171576, Note_off_c, 0, 69, 64
1, 171595, Note_on_c, 0, 67, 45
1, 171621, Note_off_c, 0, 67, 57
1, 171672, Note_on_c, 0, 61, 51
1, 171675, Note_on_c, 0, 67, 55
1, 171690, Note_on_c, 0, 64, 25
1, 171697, Note_off_c, 0, 67, 62
1, 171698, Note_off_c, 0, 61, 62
1, 171726, Note_off_c, 0, 64, 43
1, 171731, Note_on_c, 0, 69, 61
1, 171774, Note_off_c, 0, 69, 61
1, 171782, Note_on_c, 0, 70, 75
1, 171806, Note_off_c, 0, 70, 69
1, 171859, Note_on_c, 0, 70, 86
1, 171911, Note_on_c, 0, 69, 75
1, 171914, Note_off_c, 0, 70, 65
1, 171976, Note_off_c, 0, 69, 62
1, 171993, Note_on_c, 0, 67, 63
1, 172042, Note_on_c, 0, 52, 61
1, 172043, Note_off_c, 0, 67, 61
1, 172047, Note_on_c, 0, 40, 51
1, 172053, Note_on_c, 0, 74, 71
1, 172058, Note_on_c, 0, 70, 65
1, 172074, Note_off_c, 0, 52, 66
1, 172077, Note_off_c, 0, 40, 55
1, 172105, Note_off_c, 0, 70, 56
1, 172105, Note_off_c, 0, 74, 59
1, 172123, Note_on_c, 0, 69, 68
1, 172172, Note_off_c, 0, 69, 57
1, 172184, Note_on_c, 0, 67, 50
1, 172223, Note_off_c, 0, 67, 65
1, 172228, Note_on_c, 0, 73, 71
1, 172239, Note_on_c, 0, 70, 55
1, 172246, Note_on_c, 0, 45, 60
1, 172246, Note_on_c, 0, 57, 60
1, 172270, Note_off_c, 0, 57, 62
1, 172277, Note_off_c, 0, 45, 64
1, 172280, Note_off_c, 0, 70, 59
1, 172293, Note_off_c, 0, 73, 62
1, 172300, Note_on_c, 0, 69, 73
1, 172332, Note_off_c, 0, 69, 64
1, 172349, Note_on_c, 0, 67, 45
1, 172390, Note_off_c, 0, 67, 63
1, 172411, Note_on_c, 0, 72, 70
1, 172421, Note_on_c, 0, 50, 59
1, 172422, Note_on_c, 0, 69, 65
1, 172429, Note_on_c, 0, 38, 51
1, 172452, Note_off_c, 0, 50, 66
1, 172461, Note_off_c, 0, 38, 53
1, 172462, Note_off_c, 0, 72, 58
1, 172469, Note_off_c, 0, 69, 61
1, 172476, Note_on_c, 0, 67, 70
1, 172482, Control_c, 0, 64, 24
1, 172533, Note_off_c, 0, 67, 57
1, 172549, Note_on_c, 0, 66, 51
1, 172588, Note_off_c, 0, 66, 64
1, 172595, Note_on_c, 0, 68, 72
1, 172595, Note_on_c, 0, 71, 72
1, 172599, Note_on_c, 0, 55, 68
1, 172602, Note_on_c, 0, 43, 66
1, 172629, Note_off_c, 0, 43, 65
1, 172629, Note_off_c, 0, 55, 64
1, 172660, Note_off_c, 0, 71, 58
1, 172670, Note_on_c, 0, 67, 65
1, 172670, Note_off_c, 0, 68, 61
1, 172700, Note_off_c, 0, 67, 65
1, 172729, Note_on_c, 0, 65, 64
1, 172764, Note_off_c, 0, 65, 60
1, 172788, Note_on_c, 0, 48, 66
1, 172794, Note_on_c, 0, 70, 66
1, 172801, Note_on_c, 0, 67, 64
1, 172804, Note_on_c, 0, 36, 41
1, 172819, Note_off_c, 0, 48, 65
1, 172843, Note_off_c, 0, 36, 54
1, 172862, Note_off_c, 0, 70, 59
1, 172864, Note_on_c, 0, 65, 72
1, 172870, Note_off_c, 0, 67, 62
1, 172894, Poly_aftertouch_c, 0, 69, 0
1, 172919, Note_off_c, 0, 65, 63
1, 172933, Note_on_c, 0, 64, 61
1, 172974, Note_off_c, 0, 64, 64
1, 172980, Note_on_c, 0, 53, 65
1, 172983, Note_on_c, 0, 69, 71
1, 172986, Note_on_c, 0, 41, 62
1, 172989, Note_on_c, 0, 67, 70
1, 173010, Note_off_c, 0, 53, 63
1, 173016, Note_off_c, 0, 41, 63
1, 173025, Note_off_c, 0, 67, 60
1, 173037, Note_off_c, 0, 69, 60
1, 173047, Note_on_c, 0, 65, 61
1, 173068, Control_c, 0, 64, 24
1, 173091, Note_off_c, 0, 65, 61
1, 173100, Note_on_c, 0, 64, 61
1, 173145, Note_off_c, 0, 64, 59
1, 173168, Note_on_c, 0, 71, 70
1, 173174, Note_on_c, 0, 65, 48
1, 173177, Note_on_c, 0, 35, 46
1, 173180, Note_on_c, 0, 47, 47
1, 173209, Note_off_c, 0, 47, 52
1, 173212, Note_off_c, 0, 35, 52
1, 173225, Note_off_c, 0, 65, 62
1, 173234, Note_off_c, 0, 71, 62
1, 173245, Note_on_c, 0, 64, 64
1, 173276, Note_off_c, 0, 64, 67
1, 173302, Note_on_c, 0, 62, 54
1, 173339, Note_off_c, 0, 62, 65
1, 173355, Note_on_c, 0, 64, 69
1, 173362, Note_on_c, 0, 52, 58
1, 173369, Note_on_c, 0, 40, 48
1, 173396, Note_off_c, 0, 52, 65
1, 173400, Note_off_c, 0, 40, 58
1, 173411, Note_off_c, 0, 64, 61
1, 173421, Note_on_c, 0, 62, 65
1, 173466, Note_off_c, 0, 62, 64
1, 173497, Note_on_c, 0, 60, 54
1, 173534, Note_off_c, 0, 60, 65
1, 173543, Note_on_c, 0, 68, 66
1, 173555, Note_on_c, 0, 52, 53
1, 173563, Note_on_c, 0, 40, 35
1, 173571, Note_on_c, 0, 62, 47
1, 173579, Note_off_c, 0, 52, 59
1, 173600, Note_off_c, 0, 40, 51
1, 173603, Note_off_c, 0, 68, 46
1, 173609, Control_c, 0, 64, 23
1, 173615, Note_off_c, 0, 62, 63
1, 173618, Note_on_c, 0, 60, 67
1, 173624, Control_c, 0, 64, 22
1, 173639, Control_c, 0, 64, 18
1, 173654, Control_c, 0, 64, 12
1, 173667, Note_off_c, 0, 60, 64
1, 173669, Control_c, 0, 64, 0
1, 173677, Note_on_c, 0, 59, 62
1, 173723, Note_off_c, 0, 59, 58
1, 173728, Control_c, 0, 64, 19
1, 173737, Note_on_c, 0, 69, 71
1, 173743, Control_c, 0, 64, 48
1, 173753, Note_on_c, 0, 60, 42
1, 173758, Control_c, 0, 64, 61
1, 173763, Note_off_c, 0, 69, 69
1, 173773, Control_c, 0, 64, 70
1, 173774, Note_on_c, 0, 45, 21
1, 173782, Note_off_c, 0, 60, 51
1, 173787, Control_c, 0, 64, 82
1, 173802, Control_c, 0, 64, 127
1, 173818, Note_off_c, 0, 45, 37
1, 173839, Poly_aftertouch_c, 0, 33, 0
1, 173950, Note_on_c, 0, 45, 50
1, 173964, Control_c, 0, 64, 104
1, 173967, Note_on_c, 0, 48, 41
1, 173968, Note_on_c, 0, 57, 50
1, 173979, Control_c, 0, 64, 84
1, 173984, Note_off_c, 0, 45, 64
1, 173991, Note_off_c, 0, 57, 60
1, 173994, Control_c, 0, 64, 70
1, 173998, Note_off_c, 0, 48, 51
1, 174009, Control_c, 0, 64, 59
1, 174023, Control_c, 0, 64, 42
1, 174028, Note_on_c, 0, 59, 61
1, 174038, Control_c, 0, 64, 31
1, 174053, Control_c, 0, 64, 30
1, 174060, Note_off_c, 0, 59, 65
1, 174064, Note_on_c, 0, 60, 68
1, 174068, Control_c, 0, 64, 28
1, 174083, Control_c, 0, 64, 24
1, 174090, Note_off_c, 0, 60, 67
1, 174098, Control_c, 0, 64, 21
1, 174113, Control_c, 0, 64, 18
1, 174127, Control_c, 0, 64, 14
1, 174138, Note_on_c, 0, 60, 88
1, 174142, Control_c, 0, 64, 13
1, 174157, Control_c, 0, 64, 12
1, 174180, Note_off_c, 0, 60, 63
1, 174187, Note_on_c, 0, 59, 71
1, 174244, Note_off_c, 0, 59, 60
1, 174272, Note_on_c, 0, 57, 66
1, 174328, Note_off_c, 0, 57, 60
1, 174337, Note_on_c, 0, 45, 54
1, 174339, Note_on_c, 0, 33, 50
1, 174345, Note_on_c, 0, 67, 60
1, 174348, Note_on_c, 0, 63, 59
1, 174370, Note_off_c, 0, 45, 63
1, 174372, Note_off_c, 0, 33, 55
1, 174380, Note_off_c, 0, 67, 64
1, 174396, Note_off_c, 0, 63, 59
1, 174411, Note_on_c, 0, 60, 67
1, 174457, Note_off_c, 0, 60, 60
1, 174468, Note_on_c, 0, 57, 47
1, 174515, Note_off_c, 0, 57, 64
1, 174534, Note_on_c, 0, 66, 58
1, 174539, Note_on_c, 0, 38, 48
1, 174541, Note_on_c, 0, 50, 54
1, 174550, Note_on_c, 0, 62, 45
1, 174570, Note_off_c, 0, 38, 53
1, 174575, Note_off_c, 0, 50, 65
1, 174578, Note_off_c, 0, 66, 61
1, 174587, Note_off_c, 0, 62, 64
1, 174588, Note_on_c, 0, 60, 64
1, 174637, Note_off_c, 0, 60, 63
1, 174670, Note_on_c, 0, 57, 29
1, 174700, Note_off_c, 0, 57, 50
1, 174712, Note_on_c, 0, 49, 52
1, 174725, Note_on_c, 0, 66, 68
1, 174729, Note_on_c, 0, 69, 71
1, 174752, Note_on_c, 0, 54, 12
1, 174766, Note_off_c, 0, 49, 63
1, 174789, Note_off_c, 0, 69, 63
1, 174790, Note_off_c, 0, 54, 42
1, 174793, Note_off_c, 0, 66, 61
1, 174804, Note_on_c, 0, 62, 68
1, 174835, Note_off_c, 0, 62, 66
1, 174858, Note_on_c, 0, 60, 60
1, 174903, Note_off_c, 0, 60, 57
1, 174916, Note_on_c, 0, 69, 73
1, 174921, Note_on_c, 0, 57, 65
1, 174924, Note_on_c, 0, 54, 59
1, 174924, Note_on_c, 0, 72, 78
1, 174965, Note_off_c, 0, 57, 67
1, 174977, Note_off_c, 0, 54, 62
1, 174995, Note_off_c, 0, 72, 65
1, 175000, Note_on_c, 0, 66, 72
1, 175001, Note_off_c, 0, 69, 64
1, 175032, Control_c, 0, 64, 13
1, 175047, Note_off_c, 0, 66, 60
1, 175049, Note_on_c, 0, 62, 69
1, 175062, Control_c, 0, 64, 14
1, 175077, Control_c, 0, 64, 16
1, 175079, Note_off_c, 0, 62, 65
1, 175091, Control_c, 0, 64, 17
1, 175106, Control_c, 0, 64, 19
1, 175114, Note_on_c, 0, 57, 56
1, 175120, Note_on_c, 0, 75, 83
1, 175121, Control_c, 0, 64, 20
1, 175123, Note_on_c, 0, 60, 66
1, 175126, Note_on_c, 0, 72, 60
1, 175135, Control_c, 0, 64, 21
1, 175144, Note_off_c, 0, 57, 66
1, 175150, Control_c, 0, 64, 22
1, 175156, Note_off_c, 0, 60, 66
1, 175195, Note_off_c, 0, 75, 63
1, 175197, Note_on_c, 0, 69, 73
1, 175210, Note_off_c, 0, 72, 64
1, 175211, Control_c, 0, 64, 17
1, 175226, Control_c, 0, 64, 0
1, 175251, Note_on_c, 0, 66, 63
1, 175308, Note_off_c, 0, 66, 60
1, 175323, Note_on_c, 0, 58, 48
1, 175334, Note_off_c, 0, 69, 50
1, 175344, Control_c, 0, 64, 23
1, 175348, Note_on_c, 0, 67, 61
1, 175352, Note_on_c, 0, 74, 59
1, 175353, Note_on_c, 0, 70, 60
1, 175359, Control_c, 0, 64, 50
1, 175371, Note_on_c, 0, 62, 19
1, 175374, Control_c, 0, 64, 61
1, 175388, Control_c, 0, 64, 67
1, 175396, Note_off_c, 0, 70, 61
1, 175396, Note_off_c, 0, 67, 55
1, 175398, Note_off_c, 0, 62, 49
1, 175399, Note_off_c, 0, 58, 45
1, 175399, Note_off_c, 0, 74, 58
1, 175403, Control_c, 0, 64, 74
1, 175418, Control_c, 0, 64, 86
1, 175432, Control_c, 0, 64, 108
1, 175447, Control_c, 0, 64, 127
1, 175575, Note_on_c, 0, 67, 61
1, 175610, Control_c, 0, 64, 109
1, 175613, Note_off_c, 0, 67, 64
1, 175625, Control_c, 0, 64, 90
1, 175637, Note_on_c, 0, 69, 63
1, 175639, Control_c, 0, 64, 78
1, 175654, Control_c, 0, 64, 69
1, 175669, Control_c, 0, 64, 61
1, 175671, Note_off_c, 0, 69, 64
1, 175680, Note_on_c, 0, 70, 74
1, 175684, Control_c, 0, 64, 53
1, 175699, Control_c, 0, 64, 47
1, 175716, Note_off_c, 0, 70, 65
1, 175721, Control_c, 0, 64, 43
1, 175736, Control_c, 0, 64, 37
1, 175746, Note_on_c, 0, 70, 79
1, 175751, Control_c, 0, 64, 30
1, 175765, Control_c, 0, 64, 26
1, 175780, Control_c, 0, 64, 24
1, 175795, Control_c, 0, 64, 23
1, 175811, Note_on_c, 0, 69, 79
1, 175821, Note_off_c, 0, 70, 65
1, 175854, Control_c, 0, 64, 23
1, 175863, Note_off_c, 0, 69, 64
1, 175868, Note_on_c, 0, 67, 73
1, 175924, Note_on_c, 0, 55, 87
1, 175928, Note_on_c, 0, 43, 72
1, 175928, Note_on_c, 0, 77, 87
1, 175929, Note_off_c, 0, 67, 62
1, 175937, Note_on_c, 0, 73, 76
1, 175949, Note_off_c, 0, 55, 69
1, 175953, Note_off_c, 0, 43, 66
1, 175991, Note_off_c, 0, 77, 62
1, 176001, Note_off_c, 0, 73, 63
1, 176003, Note_on_c, 0, 70, 75
1, 176040, Note_off_c, 0, 70, 59
1, 176044, Note_on_c, 0, 67, 63
1, 176116, Note_off_c, 0, 67, 63
1, 176119, Note_on_c, 0, 76, 72
1, 176119, Note_on_c, 0, 60, 70
1, 176123, Note_on_c, 0, 48, 73
1, 176134, Note_on_c, 0, 72, 49
1, 176146, Note_off_c, 0, 60, 69
1, 176151, Note_off_c, 0, 48, 65
1, 176166, Note_off_c, 0, 72, 60
1, 176183, Note_on_c, 0, 70, 65
1, 176185, Note_off_c, 0, 76, 63
1, 176211, Note_off_c, 0, 70, 68
1, 176233, Note_on_c, 0, 67, 63
1, 176287, Note_off_c, 0, 67, 52
1, 176301, Note_on_c, 0, 70, 61
1, 176309, Note_on_c, 0, 55, 69
1, 176312, Note_on_c, 0, 72, 62
1, 176313, Note_on_c, 0, 43, 64
1, 176337, Note_off_c, 0, 55, 66
1, 176343, Note_off_c, 0, 43, 64
1, 176357, Note_off_c, 0, 72, 64
1, 176372, Note_off_c, 0, 70, 63
1, 176378, Note_on_c, 0, 67, 59
1, 176411, Note_off_c, 0, 67, 66
1, 176435, Note_on_c, 0, 64, 56
1, 176482, Note_off_c, 0, 64, 65
1, 176499, Note_on_c, 0, 52, 62
1, 176507, Note_on_c, 0, 70, 63
1, 176508, Note_on_c, 0, 40, 53
1, 176515, Note_on_c, 0, 67, 55
1, 176529, Note_off_c, 0, 52, 65
1, 176537, Note_off_c, 0, 40, 58
1, 176554, Note_off_c, 0, 70, 55
1, 176578, Note_on_c, 0, 64, 67
1, 176583, Note_off_c, 0, 67, 62
1, 176623, Note_off_c, 0, 64, 59
1, 176641, Note_on_c, 0, 60, 55
1, 176694, Note_off_c, 0, 60, 63
1, 176700, Note_on_c, 0, 48, 58
1, 176707, Control_c, 0, 64, 22
1, 176708, Note_on_c, 0, 67, 60
1, 176720, Note_on_c, 0, 36, 34
1, 176727, Note_off_c, 0, 48, 63
1, 176736, Control_c, 0, 64, 22
1, 176751, Control_c, 0, 64, 21
1, 176760, Note_off_c, 0, 36, 50
1, 176764, Note_off_c, 0, 67, 61
1, 176765, Note_on_c, 0, 64, 60
1, 176766, Control_c, 0, 64, 20
1, 176796, Control_c, 0, 64, 19
1, 176811, Control_c, 0, 64, 19
1, 176817, Note_off_c, 0, 64, 58
1, 176826, Control_c, 0, 64, 18
1, 176828, Note_on_c, 0, 60, 55
1, 176871, Control_c, 0, 64, 20
1, 176885, Control_c, 0, 64, 32
1, 176895, Note_on_c, 0, 65, 59
1, 176900, Note_off_c, 0, 60, 54
1, 176900, Control_c, 0, 64, 46
1, 176906, Note_on_c, 0, 45, 49
1, 176909, Note_on_c, 0, 33, 50
1, 176915, Control_c, 0, 64, 56
1, 176930, Control_c, 0, 64, 63
1, 176933, Note_off_c, 0, 65, 63
1, 176945, Control_c, 0, 64, 67
1, 176959, Note_off_c, 0, 45, 60
1, 176960, Control_c, 0, 64, 75
1, 176962, Note_off_c, 0, 33, 59
1, 176975, Control_c, 0, 64, 86
1, 176989, Control_c, 0, 64, 101
1, 177004, Control_c, 0, 64, 115
1, 177019, Control_c, 0, 64, 127
1, 177108, Control_c, 0, 64, 120
1, 177111, Note_on_c, 0, 58, 52
1, 177123, Control_c, 0, 64, 113
1, 177138, Control_c, 0, 64, 106
1, 177152, Note_off_c, 0, 58, 64
1, 177152, Control_c, 0, 64, 98
1, 177163, Note_on_c, 0, 60, 64
1, 177167, Control_c, 0, 64, 90
1, 177182, Control_c, 0, 64, 81
1, 177204, Control_c, 0, 64, 72
1, 177210, Note_off_c, 0, 60, 66
1, 177219, Control_c, 0, 64, 64
1, 177222, Note_on_c, 0, 62, 63
1, 177234, Control_c, 0, 64, 57
1, 177249, Control_c, 0, 64, 49
1, 177253, Note_off_c, 0, 62, 66
1, 177264, Control_c, 0, 64, 43
1, 177279, Control_c, 0, 64, 31
1, 177293, Note_on_c, 0, 62, 80
1, 177293, Control_c, 0, 64, 0
1, 177341, Note_on_c, 0, 60, 75
1, 177348, Note_off_c, 0, 62, 63
1, 177411, Note_on_c, 0, 58, 70
1, 177426, Note_off_c, 0, 60, 60
1, 177459, Note_on_c, 0, 41, 64
1, 177467, Note_on_c, 0, 29, 47
1, 177474, Note_off_c, 0, 58, 64
1, 177475, Note_on_c, 0, 65, 70
1, 177493, Note_off_c, 0, 41, 65
1, 177505, Note_off_c, 0, 29, 48
1, 177519, Note_off_c, 0, 65, 60
1, 177544, Note_on_c, 0, 62, 63
1, 177583, Note_off_c, 0, 62, 61
1, 177589, Note_on_c, 0, 58, 57
1, 177642, Note_off_c, 0, 58, 59
1, 177675, Note_on_c, 0, 41, 47
1, 177677, Note_on_c, 0, 61, 40
1, 177678, Note_on_c, 0, 64, 59
1, 177679, Control_c, 0, 64, 39
1, 177687, Note_on_c, 0, 53, 47
1, 177694, Control_c, 0, 64, 54
1, 177708, Control_c, 0, 64, 60
1, 177723, Control_c, 0, 64, 64
1, 177725, Note_off_c, 0, 41, 59
1, 177728, Note_off_c, 0, 64, 61
1, 177730, Note_off_c, 0, 53, 63
1, 177738, Control_c, 0, 64, 69
1, 177742, Note_off_c, 0, 61, 62
1, 177753, Control_c, 0, 64, 76
1, 177768, Control_c, 0, 64, 89
1, 177782, Control_c, 0, 64, 104
1, 177797, Control_c, 0, 64, 127
1, 177914, Note_on_c, 0, 57, 58
1, 177916, Control_c, 0, 64, 115
1, 177931, Control_c, 0, 64, 104
1, 177953, Control_c, 0, 64, 95
1, 177964, Note_off_c, 0, 57, 64
1, 177968, Control_c, 0, 64, 86
1, 177982, Control_c, 0, 64, 78
1, 177985, Note_on_c, 0, 58, 61
1, 177997, Control_c, 0, 64, 70
1, 178012, Control_c, 0, 64, 63
1, 178020, Note_on_c, 0, 60, 63
1, 178024, Note_off_c, 0, 58, 66
1, 178027, Control_c, 0, 64, 54
1, 178042, Control_c, 0, 64, 44
1, 178049, Note_off_c, 0, 60, 67
1, 178057, Control_c, 0, 64, 40
1, 178072, Control_c, 0, 64, 37
1, 178086, Control_c, 0, 64, 33
1, 178100, Note_on_c, 0, 60, 72
1, 178101, Control_c, 0, 64, 28
1, 178113, Note_on_c, 0, 59, 60
1, 178116, Control_c, 0, 64, 25
1, 178131, Control_c, 0, 64, 23
1, 178138, Note_off_c, 0, 59, 56
1, 178146, Control_c, 0, 64, 21
1, 178151, Note_off_c, 0, 60, 64
1, 178155, Note_on_c, 0, 58, 73
1, 178160, Control_c, 0, 64, 18
1, 178175, Control_c, 0, 64, 14
1, 178190, Control_c, 0, 64, 13
1, 178205, Control_c, 0, 64, 12
1, 178225, Note_off_c, 0, 58, 60
1, 178226, Note_on_c, 0, 57, 65
1, 178268, Note_on_c, 0, 41, 52
1, 178269, Note_on_c, 0, 29, 47
1, 178279, Control_c, 0, 64, 11
1, 178285, Note_off_c, 0, 57, 62
1, 178286, Note_on_c, 0, 63, 65
1, 178305, Note_off_c, 0, 29, 49
1, 178305, Note_off_c, 0, 41, 65
1, 178324, Control_c, 0, 64, 0
1, 178332, Note_off_c, 0, 63, 56
1, 178346, Note_on_c, 0, 60, 59
1, 178408, Note_off_c, 0, 60, 57
1, 178419, Note_on_c, 0, 57, 45
1, 178473, Note_off_c, 0, 57, 54
1, 178473, Control_c, 0, 64, 13
1, 178480, Note_on_c, 0, 59, 50
1, 178486, Note_on_c, 0, 62, 47
1, 178488, Control_c, 0, 64, 41
1, 178495, Note_on_c, 0, 41, 41
1, 178495, Note_on_c, 0, 53, 40
1, 178503, Control_c, 0, 64, 54
1, 178518, Control_c, 0, 64, 61
1, 178528, Note_off_c, 0, 59, 62
1, 178532, Control_c, 0, 64, 64
1, 178534, Note_off_c, 0, 62, 61
1, 178544, Note_off_c, 0, 41, 63
1, 178547, Note_off_c, 0, 53, 62
1, 178547, Control_c, 0, 64, 68
1, 178562, Control_c, 0, 64, 73
1, 178577, Control_c, 0, 64, 82
1, 178592, Control_c, 0, 64, 93
1, 178606, Control_c, 0, 64, 106
1, 178621, Control_c, 0, 64, 115
1, 178636, Control_c, 0, 64, 125
1, 178680, Control_c, 0, 64, 120
1, 178695, Control_c, 0, 64, 117
1, 178709, Note_on_c, 0, 56, 51
1, 178718, Control_c, 0, 64, 114
1, 178732, Control_c, 0, 64, 109
1, 178747, Control_c, 0, 64, 102
1, 178750, Note_off_c, 0, 56, 64
1, 178762, Control_c, 0, 64, 95
1, 178763, Note_on_c, 0, 57, 59
1, 178776, Control_c, 0, 64, 88
1, 178791, Control_c, 0, 64, 82
1, 178802, Note_off_c, 0, 57, 66
1, 178806, Control_c, 0, 64, 75
1, 178816, Note_on_c, 0, 59, 64
1, 178821, Control_c, 0, 64, 69
1, 178836, Control_c, 0, 64, 63
1, 178845, Note_off_c, 0, 59, 66
1, 178850, Control_c, 0, 64, 56
1, 178865, Control_c, 0, 64, 50
1, 178880, Control_c, 0, 64, 46
1, 178888, Note_on_c, 0, 59, 80
1, 178895, Control_c, 0, 64, 43
1, 178910, Control_c, 0, 64, 39
1, 178924, Control_c, 0, 64, 36
1, 178926, Note_off_c, 0, 59, 60
1, 178939, Control_c, 0, 64, 34
1, 178947, Note_on_c, 0, 57, 60
1, 178954, Control_c, 0, 64, 33
1, 178984, Control_c, 0, 64, 32
1, 178999, Control_c, 0, 64, 32
1, 179014, Control_c, 0, 64, 31
1, 179016, Note_on_c, 0, 56, 60
1, 179019, Note_off_c, 0, 57, 61
1, 179058, Note_on_c, 0, 52, 52
1, 179065, Note_off_c, 0, 56, 63
1, 179067, Note_on_c, 0, 40, 50
1, 179070, Note_on_c, 0, 62, 63
1, 179073, Control_c, 0, 64, 31
1, 179082, Note_off_c, 0, 52, 59
1, 179088, Control_c, 0, 64, 30
1, 179097, Note_off_c, 0, 40, 60
1, 179103, Control_c, 0, 64, 29
1, 179118, Control_c, 0, 64, 26
1, 179118, Note_off_c, 0, 62, 57
1, 179132, Control_c, 0, 64, 24
1, 179141, Note_on_c, 0, 59, 62
1, 179147, Control_c, 0, 64, 21
1, 179162, Control_c, 0, 64, 17
1, 179176, Control_c, 0, 64, 15
1, 179197, Note_off_c, 0, 59, 61
1, 179199, Note_on_c, 0, 56, 42
1, 179207, Control_c, 0, 64, 24
1, 179222, Control_c, 0, 64, 45
1, 179225, Note_off_c, 0, 56, 55
1, 179237, Control_c, 0, 64, 59
1, 179252, Control_c, 0, 64, 66
1, 179264, Note_on_c, 0, 45, 54
1, 179265, Note_on_c, 0, 62, 44
1, 179267, Control_c, 0, 64, 74
1, 179270, Note_on_c, 0, 33, 45
1, 179272, Note_on_c, 0, 55, 63
1, 179281, Control_c, 0, 64, 91
1, 179283, Note_on_c, 0, 58, 63
1, 179296, Note_off_c, 0, 45, 65
1, 179296, Control_c, 0, 64, 127
1, 179300, Note_off_c, 0, 62, 63
1, 179303, Note_off_c, 0, 55, 64
1, 179306, Note_off_c, 0, 33, 55
1, 179315, Note_off_c, 0, 58, 65
1, 179514, Note_on_c, 0, 55, 59
1, 179541, Control_c, 0, 64, 105
1, 179551, Note_off_c, 0, 55, 60
1, 179555, Control_c, 0, 64, 89
1, 179570, Control_c, 0, 64, 76
1, 179578, Note_on_c, 0, 57, 56
1, 179585, Control_c, 0, 64, 65
1, 179600, Control_c, 0, 64, 55
1, 179606, Note_off_c, 0, 57, 64
1, 179614, Control_c, 0, 64, 44
1, 179619, Note_on_c, 0, 58, 62
1, 179629, Control_c, 0, 64, 41
1, 179644, Control_c, 0, 64, 40
1, 179650, Note_off_c, 0, 58, 66
1, 179659, Control_c, 0, 64, 38
1, 179674, Control_c, 0, 64, 33
1, 179688, Control_c, 0, 64, 30
1, 179703, Control_c, 0, 64, 28
1, 179714, Poly_aftertouch_c, 0, 58, 0
1, 179718, Control_c, 0, 64, 26
1, 179733, Control_c, 0, 64, 23
1, 179747, Note_on_c, 0, 57, 59
1, 179747, Control_c, 0, 64, 23
1, 179762, Control_c, 0, 64, 22
1, 179789, Note_off_c, 0, 57, 65
1, 179792, Control_c, 0, 64, 22
1, 179818, Note_on_c, 0, 55, 56
1, 179861, Note_on_c, 0, 45, 44
1, 179864, Note_on_c, 0, 33, 41
1, 179865, Note_off_c, 0, 55, 58
1, 179884, Note_on_c, 0, 61, 51
1, 179890, Note_off_c, 0, 45, 58
1, 179902, Note_off_c, 0, 33, 46
1, 179910, Control_c, 0, 64, 21
1, 179929, Note_off_c, 0, 61, 58
1, 179940, Control_c, 0, 64, 20
1, 179944, Note_on_c, 0, 57, 51
1, 179954, Control_c, 0, 64, 19
1, 179969, Control_c, 0, 64, 19
1, 179984, Control_c, 0, 64, 18
1, 179989, Note_off_c, 0, 57, 62
1, 180000, Control_c, 0, 64, 15
1, 180006, Note_on_c, 0, 55, 47
1, 180015, Control_c, 0, 64, 13
1, 180029, Control_c, 0, 64, 11
1, 180074, Control_c, 0, 64, 25
1, 180083, Note_off_c, 0, 55, 51
1, 180089, Control_c, 0, 64, 46
1, 180099, Note_on_c, 0, 53, 47
1, 180102, Note_on_c, 0, 38, 47
1, 180104, Control_c, 0, 64, 61
1, 180115, Note_on_c, 0, 62, 51
1, 180119, Control_c, 0, 64, 66
1, 180121, Note_on_c, 0, 57, 33
1, 180122, Note_on_c, 0, 50, 35
1, 180134, Control_c, 0, 64, 74
1, 180137, Note_off_c, 0, 38, 63
1, 180140, Note_off_c, 0, 53, 64
1, 180149, Control_c, 0, 64, 88
1, 180151, Note_off_c, 0, 62, 64
1, 180154, Note_off_c, 0, 57, 52
1, 180155, Note_off_c, 0, 50, 51
1, 180164, Control_c, 0, 64, 116
1, 180178, Control_c, 0, 64, 127
1, 180386, Note_on_c, 0, 62, 48
1, 180390, Note_on_c, 0, 53, 49
1, 180423, Control_c, 0, 64, 125
1, 180426, Note_off_c, 0, 62, 66
1, 180435, Note_off_c, 0, 53, 61
1, 180437, Control_c, 0, 64, 100
1, 180445, Note_on_c, 0, 64, 61
1, 180448, Note_on_c, 0, 55, 64
1, 180452, Control_c, 0, 64, 85
1, 180467, Control_c, 0, 64, 70
1, 180482, Control_c, 0, 64, 61
1, 180483, Note_off_c, 0, 64, 66
1, 180492, Note_off_c, 0, 55, 64
1, 180494, Note_on_c, 0, 65, 63
1, 180497, Control_c, 0, 64, 49
1, 180511, Control_c, 0, 64, 45
1, 180519, Note_on_c, 0, 57, 50
1, 180525, Note_off_c, 0, 65, 65
1, 180541, Control_c, 0, 64, 43
1, 180556, Control_c, 0, 64, 41
1, 180566, Note_off_c, 0, 57, 0
1, 180567, Note_on_c, 0, 65, 82
1, 180570, Control_c, 0, 64, 39
1, 180578, Note_on_c, 0, 57, 48
1, 180585, Control_c, 0, 64, 38
1, 180600, Control_c, 0, 64, 37
1, 180612, Note_off_c, 0, 57, 64
1, 180615, Control_c, 0, 64, 36
1, 180618, Note_off_c, 0, 65, 62
1, 180629, Control_c, 0, 64, 34
1, 180631, Note_on_c, 0, 64, 62
1, 180643, Note_on_c, 0, 55, 56
1, 180644, Control_c, 0, 64, 34
1, 180684, Note_off_c, 0, 55, 66
1, 180685, Note_off_c, 0, 64, 61
1, 180692, Note_on_c, 0, 62, 61
1, 180706, Note_on_c, 0, 53, 51
1, 180733, Control_c, 0, 64, 33
1, 180739, Note_off_c, 0, 53, 65
1, 180743, Note_off_c, 0, 62, 61
1, 180748, Control_c, 0, 64, 33
1, 180758, Note_on_c, 0, 69, 58
1, 180759, Note_on_c, 0, 65, 57
1, 180763, Control_c, 0, 64, 32
1, 180778, Control_c, 0, 64, 32
1, 180784, Note_on_c, 0, 57, 42
1, 180791, Note_off_c, 0, 69, 66
1, 180804, Note_off_c, 0, 65, 63
1, 180811, Note_off_c, 0, 57, 56
1, 180817, Note_on_c, 0, 64, 65
1, 180823, Control_c, 0, 64, 31
1, 180829, Note_on_c, 0, 53, 53
1, 180874, Note_off_c, 0, 53, 64
1, 180877, Note_off_c, 0, 64, 57
1, 180886, Note_on_c, 0, 62, 50
1, 180918, Note_on_c, 0, 50, 41
1, 180929, Note_off_c, 0, 62, 63
1, 180941, Note_on_c, 0, 68, 62
1, 180955, Note_on_c, 0, 65, 58
1, 180955, Note_off_c, 0, 50, 54
1, 180991, Note_on_c, 0, 59, 57
1, 180994, Control_c, 0, 64, 31
1, 180996, Note_off_c, 0, 65, 63
1, 181008, Control_c, 0, 64, 30
1, 181017, Note_on_c, 0, 64, 62
1, 181022, Note_off_c, 0, 59, 65
1, 181023, Control_c, 0, 64, 30
1, 181024, Note_off_c, 0, 68, 61
1, 181058, Note_on_c, 0, 53, 48
1, 181065, Note_off_c, 0, 64, 61
1, 181096, Note_on_c, 0, 62, 41
1, 181098, Note_off_c, 0, 53, 64
1, 181112, Control_c, 0, 64, 29
1, 181133, Note_off_c, 0, 62, 62
1, 181139, Note_on_c, 0, 71, 77
1, 181140, Note_on_c, 0, 50, 32
1, 181146, Note_on_c, 0, 68, 72
1, 181172, Note_off_c, 0, 50, 46
1, 181197, Note_on_c, 0, 59, 43
1, 181199, Note_off_c, 0, 71, 63
1, 181210, Note_on_c, 0, 65, 77
1, 181219, Note_off_c, 0, 68, 61
1, 181225, Note_off_c, 0, 59, 50
1, 181245, Note_on_c, 0, 53, 52
1, 181266, Note_off_c, 0, 65, 63
1, 181279, Note_on_c, 0, 62, 61
1, 181300, Note_off_c, 0, 53, 64
1, 181327, Note_off_c, 0, 62, 61
1, 181340, Note_on_c, 0, 74, 85
1, 181345, Note_on_c, 0, 71, 83
1, 181362, Note_on_c, 0, 59, 53
1, 181396, Note_off_c, 0, 59, 64
1, 181407, Note_on_c, 0, 68, 70
1, 181408, Control_c, 0, 64, 29
1, 181410, Note_off_c, 0, 71, 59
1, 181418, Note_off_c, 0, 74, 66
1, 181442, Note_on_c, 0, 53, 49
1, 181461, Note_off_c, 0, 68, 61
1, 181467, Note_on_c, 0, 65, 68
1, 181496, Note_off_c, 0, 53, 62
1, 181514, Note_on_c, 0, 50, 52
1, 181517, Note_off_c, 0, 65, 0
1, 181534, Note_on_c, 0, 68, 67
1, 181536, Note_on_c, 0, 59, 41
1, 181554, Poly_aftertouch_c, 0, 65, 127
1, 181570, Note_off_c, 0, 59, 61
1, 181589, Poly_aftertouch_c, 0, 65, 0
1, 181602, Control_c, 0, 64, 26
1, 181612, Note_on_c, 0, 64, 71
1, 181616, Control_c, 0, 64, 18
1, 181623, Note_off_c, 0, 50, 54
1, 181626, Note_off_c, 0, 68, 57
1, 181631, Control_c, 0, 64, 0
1, 181662, Note_off_c, 0, 64, 57
1, 181672, Note_on_c, 0, 62, 50
1, 181714, Note_on_c, 0, 49, 50
1, 181726, Note_off_c, 0, 62, 62
1, 181728, Control_c, 0, 64, 41
1, 181729, Note_on_c, 0, 69, 66
1, 181735, Note_on_c, 0, 57, 40
1, 181740, Note_on_c, 0, 64, 53
1, 181743, Control_c, 0, 64, 58
1, 181748, Note_off_c, 0, 49, 64
1, 181757, Control_c, 0, 64, 65
1, 181761, Note_off_c, 0, 69, 65
1, 181763, Note_off_c, 0, 57, 56
1, 181767, Note_off_c, 0, 64, 62
1, 181772, Control_c, 0, 64, 72
1, 181787, Control_c, 0, 64, 82
1, 181802, Control_c, 0, 64, 96
1, 181817, Control_c, 0, 64, 114
1, 181831, Control_c, 0, 64, 127
1, 181935, Control_c, 0, 64, 122
1, 181950, Control_c, 0, 64, 105
1, 181952, Note_on_c, 0, 58, 56
1, 181952, Note_on_c, 0, 67, 56
1, 181965, Control_c, 0, 64, 88
1, 181980, Control_c, 0, 64, 75
1, 181989, Note_off_c, 0, 67, 64
1, 181994, Control_c, 0, 64, 65
1, 181995, Note_off_c, 0, 58, 64
1, 182009, Control_c, 0, 64, 58
1, 182012, Note_on_c, 0, 69, 62
1, 182019, Note_on_c, 0, 60, 56
1, 182024, Control_c, 0, 64, 53
1, 182039, Control_c, 0, 64, 52
1, 182043, Note_off_c, 0, 69, 64
1, 182051, Note_off_c, 0, 60, 67
1, 182054, Control_c, 0, 64, 49
1, 182063, Note_on_c, 0, 70, 68
1, 182069, Control_c, 0, 64, 45
1, 182081, Note_on_c, 0, 62, 46
1, 182084, Control_c, 0, 64, 42
1, 182090, Note_off_c, 0, 70, 69
1, 182099, Control_c, 0, 64, 40
1, 182114, Control_c, 0, 64, 37
1, 182128, Note_off_c, 0, 62, 0
1, 182129, Control_c, 0, 64, 36
1, 182131, Note_on_c, 0, 70, 86
1, 182142, Note_on_c, 0, 62, 47
1, 182143, Control_c, 0, 64, 35
1, 182158, Control_c, 0, 64, 33
1, 182173, Control_c, 0, 64, 33
1, 182175, Note_off_c, 0, 62, 64
1, 182188, Control_c, 0, 64, 32
1, 182191, Note_off_c, 0, 70, 62
1, 182195, Note_on_c, 0, 69, 70
1, 182202, Control_c, 0, 64, 32
1, 182206, Note_on_c, 0, 60, 67
1, 182217, Control_c, 0, 64, 31
1, 182247, Note_off_c, 0, 60, 67
1, 182247, Control_c, 0, 64, 30
1, 182262, Control_c, 0, 64, 30
1, 182263, Note_on_c, 0, 67, 68
1, 182264, Note_off_c, 0, 69, 59
1, 182274, Note_on_c, 0, 58, 51
1, 182276, Control_c, 0, 64, 29
1, 182291, Control_c, 0, 64, 28
1, 182306, Control_c, 0, 64, 27
1, 182307, Note_off_c, 0, 58, 64
1, 182321, Control_c, 0, 64, 27
1, 182328, Note_off_c, 0, 67, 63
1, 182334, Note_on_c, 0, 74, 66
1, 182336, Control_c, 0, 64, 26
1, 182341, Note_on_c, 0, 62, 53
1, 182342, Note_on_c, 0, 70, 59
1, 182350, Control_c, 0, 64, 26
1, 182365, Control_c, 0, 64, 25
1, 182375, Note_off_c, 0, 62, 64
1, 182379, Note_off_c, 0, 74, 59
1, 182385, Note_on_c, 0, 58, 64
1, 182396, Note_on_c, 0, 69, 70
1, 182396, Control_c, 0, 64, 25
1, 182397, Note_off_c, 0, 70, 62
1, 182437, Note_off_c, 0, 58, 62
1, 182448, Control_c, 0, 64, 24
1, 182474, Note_on_c, 0, 55, 54
1, 182476, Note_off_c, 0, 69, 57
1, 182491, Note_on_c, 0, 67, 32
1, 182510, Note_off_c, 0, 55, 64
1, 182519, Note_off_c, 0, 67, 56
1, 182522, Control_c, 0, 64, 24
1, 182522, Note_on_c, 0, 73, 67
1, 182532, Note_on_c, 0, 70, 61
1, 182558, Note_on_c, 0, 64, 52
1, 182582, Note_off_c, 0, 64, 61
1, 182588, Note_off_c, 0, 70, 56
1, 182594, Note_on_c, 0, 69, 70
1, 182598, Note_off_c, 0, 73, 60
1, 182605, Note_on_c, 0, 58, 65
1, 182652, Note_off_c, 0, 58, 62
1, 182656, Note_off_c, 0, 69, 63
1, 182664, Note_on_c, 0, 67, 56
1, 182690, Note_on_c, 0, 55, 52
1, 182708, Note_off_c, 0, 67, 60
1, 182721, Note_off_c, 0, 55, 63
1, 182722, Note_on_c, 0, 76, 83
1, 182727, Note_on_c, 0, 73, 75
1, 182779, Note_on_c, 0, 64, 30
1, 182790, Note_on_c, 0, 70, 75
1, 182794, Note_off_c, 0, 76, 65
1, 182796, Note_off_c, 0, 73, 63
1, 182813, Note_on_c, 0, 58, 60
1, 182814, Note_off_c, 0, 64, 43
1, 182841, Note_off_c, 0, 70, 64
1, 182844, Note_on_c, 0, 67, 70
1, 182846, Note_off_c, 0, 58, 65
1, 182890, Note_off_c, 0, 67, 59
1, 182916, Note_on_c, 0, 76, 80
1, 182916, Note_on_c, 0, 79, 85
1, 182930, Note_on_c, 0, 64, 32
1, 182984, Note_on_c, 0, 73, 80
1, 182987, Note_off_c, 0, 79, 66
1, 182988, Note_off_c, 0, 64, 58
1, 182990, Note_on_c, 0, 58, 44
1, 182990, Note_off_c, 0, 76, 64
1, 182996, Control_c, 0, 64, 25
1, 183011, Control_c, 0, 64, 26
1, 183025, Control_c, 0, 64, 26
1, 183034, Note_off_c, 0, 73, 64
1, 183040, Control_c, 0, 64, 27
1, 183053, Note_on_c, 0, 70, 59
1, 183055, Control_c, 0, 64, 28
1, 183070, Control_c, 0, 64, 29
1, 183085, Control_c, 0, 64, 30
1, 183101, Note_off_c, 0, 70, 0
1, 183117, Note_on_c, 0, 73, 64
1, 183139, Poly_aftertouch_c, 0, 70, 127
1, 183157, Poly_aftertouch_c, 0, 55, 127
1, 183159, Control_c, 0, 64, 26
1, 183160, Note_off_c, 0, 58, 35
1, 183173, Control_c, 0, 64, 0
1, 183180, Poly_aftertouch_c, 0, 70, 0
1, 183200, Note_on_c, 0, 69, 63
1, 183205, Poly_aftertouch_c, 0, 55, 0
1, 183208, Note_off_c, 0, 73, 61
1, 183267, Note_on_c, 0, 67, 46
1, 183273, Note_off_c, 0, 69, 62
1, 183303, Note_on_c, 0, 62, 42
1, 183305, Note_on_c, 0, 57, 35
1, 183306, Note_on_c, 0, 74, 68
1, 183314, Note_on_c, 0, 53, 15
1, 183315, Control_c, 0, 64, 47
1, 183324, Note_off_c, 0, 67, 63
1, 183330, Note_on_c, 0, 69, 47
1, 183330, Control_c, 0, 64, 62
1, 183332, Note_off_c, 0, 74, 68
1, 183333, Note_off_c, 0, 62, 62
1, 183334, Note_off_c, 0, 57, 58
1, 183345, Control_c, 0, 64, 70
1, 183346, Note_off_c, 0, 53, 48
1, 183353, Note_off_c, 0, 69, 57
1, 183360, Control_c, 0, 64, 83
1, 183375, Control_c, 0, 64, 107
1, 183389, Control_c, 0, 64, 127
1, 183541, Note_on_c, 0, 62, 56
1, 183550, Note_on_c, 0, 53, 55
1, 183551, Control_c, 0, 64, 109
1, 183566, Control_c, 0, 64, 92
1, 183580, Note_off_c, 0, 62, 62
1, 183581, Control_c, 0, 64, 80
1, 183587, Note_off_c, 0, 53, 64
1, 183595, Control_c, 0, 64, 70
1, 183603, Note_on_c, 0, 55, 57
1, 183608, Note_on_c, 0, 64, 59
1, 183610, Control_c, 0, 64, 62
1, 183625, Control_c, 0, 64, 53
1, 183640, Note_off_c, 0, 64, 66
1, 183640, Control_c, 0, 64, 49
1, 183646, Note_on_c, 0, 65, 62
1, 183646, Note_off_c, 0, 55, 64
1, 183655, Control_c, 0, 64, 47
1, 183666, Note_on_c, 0, 57, 53
1, 183670, Control_c, 0, 64, 44
1, 183673, Note_off_c, 0, 65, 63
1, 183685, Control_c, 0, 64, 40
1, 183689, Note_off_c, 0, 57, 62
1, 183699, Control_c, 0, 64, 37
1, 183709, Note_on_c, 0, 65, 91
1, 183714, Control_c, 0, 64, 36
1, 183729, Note_on_c, 0, 57, 58
1, 183759, Control_c, 0, 64, 35
1, 183762, Note_on_c, 0, 64, 68
1, 183763, Note_off_c, 0, 57, 64
1, 183763, Note_off_c, 0, 65, 61
1, 183781, Note_on_c, 0, 55, 69
1, 183836, Note_on_c, 0, 62, 72
1, 183837, Note_off_c, 0, 55, 63
1, 183845, Note_on_c, 0, 53, 62
1, 183846, Note_off_c, 0, 64, 62
1, 183898, Note_off_c, 0, 53, 0
1, 183899, Note_on_c, 0, 69, 83
1, 183902, Note_on_c, 0, 65, 65
1, 183903, Note_off_c, 0, 62, 64
1, 183905, Note_on_c, 0, 57, 63
1, 183921, Control_c, 0, 64, 35
1, 183930, Note_off_c, 0, 57, 67
1, 183935, Poly_aftertouch_c, 0, 53, 127
1, 183936, Control_c, 0, 64, 28
1, 183959, Note_off_c, 0, 69, 65
1, 183959, Control_c, 0, 64, 0
1, 183973, Poly_aftertouch_c, 0, 53, 0
1, 183974, Note_on_c, 0, 64, 79
1, 183979, Note_off_c, 0, 65, 64
1, 184032, Note_on_c, 0, 62, 67
1, 184067, Note_off_c, 0, 64, 61
1, 184095, Note_off_c, 0, 62, 60
1, 184108, Control_c, 0, 64, 42
1, 184108, Note_on_c, 0, 65, 76
1, 184109, Note_on_c, 0, 70, 91
1, 184116, Note_on_c, 0, 58, 80
1, 184121, Note_on_c, 0, 50, 12
1, 184122, Note_on_c, 0, 53, 62
1, 184123, Control_c, 0, 64, 63
1, 184136, Note_off_c, 0, 65, 68
1, 184138, Control_c, 0, 64, 69
1, 184142, Note_off_c, 0, 58, 68
1, 184152, Note_off_c, 0, 53, 65
1, 184152, Note_off_c, 0, 70, 63
1, 184152, Control_c, 0, 64, 78
1, 184153, Note_off_c, 0, 50, 48
1, 184167, Control_c, 0, 64, 94
1, 184182, Control_c, 0, 64, 127
1, 184300, Control_c, 0, 64, 116
1, 184314, Control_c, 0, 64, 105
1, 184329, Control_c, 0, 64, 96
1, 184341, Note_on_c, 0, 53, 58
1, 184343, Control_c, 0, 64, 88
1, 184347, Note_on_c, 0, 62, 49
1, 184358, Control_c, 0, 64, 82
1, 184373, Control_c, 0, 64, 74
1, 184378, Note_off_c, 0, 53, 63
1, 184387, Note_off_c, 0, 62, 64
1, 184388, Control_c, 0, 64, 67
1, 184400, Note_on_c, 0, 55, 53
1, 184403, Control_c, 0, 64, 62
1, 184404, Note_on_c, 0, 64, 60
1, 184418, Control_c, 0, 64, 56
1, 184433, Control_c, 0, 64, 54
1, 184433, Note_off_c, 0, 55, 65
1, 184436, Note_off_c, 0, 64, 66
1, 184448, Control_c, 0, 64, 53
1, 184462, Control_c, 0, 64, 50
1, 184466, Note_on_c, 0, 57, 48
1, 184466, Note_on_c, 0, 65, 15
1, 184477, Control_c, 0, 64, 47
1, 184492, Control_c, 0, 64, 46
1, 184501, Note_off_c, 0, 65, 0
1, 184501, Note_on_c, 0, 65, 34
1, 184507, Control_c, 0, 64, 46
1, 184551, Control_c, 0, 64, 45
1, 184558, Note_off_c, 0, 65, 64
1, 184559, Note_on_c, 0, 64, 61
1, 184590, Note_off_c, 0, 57, 22
1, 184597, Note_on_c, 0, 53, 59
1, 184630, Note_on_c, 0, 62, 64
1, 184635, Note_off_c, 0, 64, 61
1, 184651, Note_off_c, 0, 53, 63
1, 184685, Note_off_c, 0, 62, 61
1, 184697, Note_on_c, 0, 59, 60
1, 184701, Note_on_c, 0, 65, 64
1, 184707, Note_on_c, 0, 71, 74
1, 184707, Control_c, 0, 64, 46
1, 184722, Control_c, 0, 64, 46
1, 184735, Note_off_c, 0, 59, 66
1, 184737, Control_c, 0, 64, 47
1, 184750, Note_off_c, 0, 65, 60
1, 184751, Control_c, 0, 64, 48
1, 184752, Note_off_c, 0, 71, 61
1, 184761, Note_on_c, 0, 53, 53
1, 184764, Note_on_c, 0, 64, 67
1, 184766, Control_c, 0, 64, 49
1, 184797, Note_off_c, 0, 53, 65
1, 184797, Note_off_c, 0, 64, 66
1, 184814, Note_on_c, 0, 62, 62
1, 184856, Note_on_c, 0, 60, 50
1, 184856, Note_off_c, 0, 62, 60
1, 184856, Control_c, 0, 64, 48
1, 184871, Control_c, 0, 64, 48
1, 184886, Note_on_c, 0, 72, 68
1, 184889, Note_off_c, 0, 60, 64
1, 184894, Note_on_c, 0, 69, 67
1, 184901, Control_c, 0, 64, 47
1, 184922, Note_on_c, 0, 57, 58
1, 184931, Control_c, 0, 64, 47
1, 184939, Note_off_c, 0, 72, 62
1, 184946, Note_off_c, 0, 69, 54
1, 184963, Note_off_c, 0, 57, 64
1, 184970, Note_on_c, 0, 67, 67
1, 185007, Note_off_c, 0, 67, 61
1, 185015, Note_on_c, 0, 48, 43
1, 185024, Note_on_c, 0, 65, 55
1, 185041, Note_off_c, 0, 48, 57
1, 185059, Note_on_c, 0, 59, 62
1, 185063, Note_off_c, 0, 65, 64
1, 185080, Note_on_c, 0, 71, 68
1, 185087, Note_on_c, 0, 69, 59
1, 185093, Control_c, 0, 64, 46
1, 185096, Note_off_c, 0, 59, 66
1, 185108, Control_c, 0, 64, 46
1, 185119, Note_on_c, 0, 58, 54
1, 185129, Note_off_c, 0, 69, 61
1, 185132, Note_off_c, 0, 71, 62
1, 185145, Note_off_c, 0, 58, 53
1, 185149, Note_on_c, 0, 67, 63
1, 185184, Note_on_c, 0, 57, 9
1, 185193, Note_off_c, 0, 67, 59
1, 185206, Note_on_c, 0, 65, 55
1, 185218, Note_off_c, 0, 57, 47
1, 185246, Note_on_c, 0, 60, 66
1, 185254, Note_off_c, 0, 65, 59
1, 185271, Note_on_c, 0, 72, 74
1, 185277, Note_on_c, 0, 69, 69
1, 185287, Poly_aftertouch_c, 0, 48, 0
1, 185289, Note_off_c, 0, 60, 62
1, 185300, Control_c, 0, 64, 45
1, 185310, Note_off_c, 0, 72, 62
1, 185314, Note_on_c, 0, 57, 68
1, 185315, Control_c, 0, 64, 45
1, 185339, Note_off_c, 0, 69, 63
1, 185346, Note_on_c, 0, 67, 69
1, 185360, Control_c, 0, 64, 44
1, 185369, Note_off_c, 0, 57, 60
1, 185378, Note_on_c, 0, 65, 63
1, 185422, Note_off_c, 0, 67, 57
1, 185434, Note_on_c, 0, 61, 70
1, 185448, Note_on_c, 0, 73, 87
1, 185448, Note_off_c, 0, 65, 61
1, 185457, Note_on_c, 0, 69, 76
1, 185477, Note_off_c, 0, 61, 63
1, 185502, Note_on_c, 0, 57, 63
1, 185524, Note_off_c, 0, 69, 61
1, 185527, Note_on_c, 0, 67, 77
1, 185534, Note_off_c, 0, 73, 62
1, 185560, Note_off_c, 0, 67, 63
1, 185566, Note_off_c, 0, 57, 62
1, 185567, Note_on_c, 0, 65, 71
1, 185571, Note_on_c, 0, 48, 52
1, 185589, Control_c, 0, 64, 44
1, 185599, Note_off_c, 0, 48, 62
1, 185605, Control_c, 0, 64, 43
1, 185616, Note_off_c, 0, 65, 53
1, 185634, Note_on_c, 0, 62, 68
1, 185643, Note_on_c, 0, 74, 85
1, 185649, Note_on_c, 0, 67, 77
1, 185664, Note_off_c, 0, 62, 69
1, 185679, Control_c, 0, 64, 43
1, 185703, Note_on_c, 0, 58, 57
1, 185709, Control_c, 0, 64, 42
1, 185715, Note_off_c, 0, 67, 54
1, 185715, Note_off_c, 0, 74, 63
1, 185724, Control_c, 0, 64, 42
1, 185727, Note_on_c, 0, 65, 68
1, 185759, Note_off_c, 0, 58, 58
1, 185767, Note_off_c, 0, 65, 59
1, 185777, Note_on_c, 0, 64, 59
1, 185813, Note_on_c, 0, 61, 62
1, 185831, Note_off_c, 0, 64, 63
1, 185834, Note_on_c, 0, 73, 71
1, 185840, Note_on_c, 0, 67, 54
1, 185845, Note_off_c, 0, 61, 64
1, 185888, Note_off_c, 0, 67, 55
1, 185896, Note_on_c, 0, 58, 59
1, 185899, Note_off_c, 0, 73, 60
1, 185917, Note_on_c, 0, 65, 54
1, 185950, Note_off_c, 0, 58, 56
1, 185960, Note_on_c, 0, 64, 60
1, 185963, Note_off_c, 0, 65, 59
1, 186002, Note_off_c, 0, 64, 61
1, 186012, Note_on_c, 0, 62, 56
1, 186027, Note_on_c, 0, 74, 72
1, 186036, Note_off_c, 0, 62, 61
1, 186074, Note_on_c, 0, 67, 21
1, 186081, Note_off_c, 0, 74, 63
1, 186092, Note_on_c, 0, 58, 49
1, 186111, Note_off_c, 0, 67, 61
1, 186117, Note_off_c, 0, 58, 56
1, 186126, Note_on_c, 0, 65, 56
1, 186144, Note_on_c, 0, 48, 48
1, 186162, Note_on_c, 0, 64, 54
1, 186176, Note_off_c, 0, 65, 56
1, 186213, Note_off_c, 0, 64, 63
1, 186218, Note_on_c, 0, 70, 74
1, 186221, Note_on_c, 0, 58, 48
1, 186222, Note_off_c, 0, 48, 55
1, 186236, Note_on_c, 0, 67, 43
1, 186261, Note_off_c, 0, 58, 65
1, 186264, Control_c, 0, 64, 40
1, 186275, Note_on_c, 0, 55, 52
1, 186279, Control_c, 0, 64, 27
1, 186291, Note_off_c, 0, 70, 61
1, 186294, Control_c, 0, 64, 0
1, 186309, Note_off_c, 0, 67, 62
1, 186311, Note_on_c, 0, 65, 58
1, 186333, Note_off_c, 0, 55, 58
1, 186341, Note_on_c, 0, 64, 66
1, 186353, Note_off_c, 0, 65, 59
1, 186377, Note_off_c, 0, 64, 59
1, 186409, Note_on_c, 0, 69, 68
1, 186428, Control_c, 0, 64, 49
1, 186431, Note_on_c, 0, 57, 21
1, 186432, Note_on_c, 0, 53, 38
1, 186435, Note_on_c, 0, 65, 38
1, 186437, Note_off_c, 0, 69, 66
1, 186443, Control_c, 0, 64, 63
1, 186458, Poly_aftertouch_c, 0, 48, 0
1, 186458, Control_c, 0, 64, 70
1, 186464, Note_off_c, 0, 53, 50
1, 186466, Note_off_c, 0, 65, 48
1, 186471, Note_off_c, 0, 57, 41
1, 186472, Control_c, 0, 64, 80
1, 186487, Control_c, 0, 64, 98
1, 186502, Control_c, 0, 64, 127
1, 186651, Control_c, 0, 64, 115
1, 186654, Note_on_c, 0, 60, 61
1, 186660, Note_on_c, 0, 48, 57
1, 186665, Control_c, 0, 64, 102
1, 186680, Control_c, 0, 64, 94
1, 186686, Note_off_c, 0, 60, 65
1, 186695, Control_c, 0, 64, 86
1, 186704, Note_off_c, 0, 48, 60
1, 186710, Note_on_c, 0, 62, 60
1, 186710, Control_c, 0, 64, 76
1, 186712, Note_on_c, 0, 50, 59
1, 186725, Control_c, 0, 64, 66
1, 186739, Control_c, 0, 64, 55
1, 186743, Note_off_c, 0, 62, 66
1, 186748, Note_off_c, 0, 50, 65
1, 186754, Control_c, 0, 64, 31
1, 186759, Note_on_c, 0, 51, 60
1, 186762, Note_on_c, 0, 63, 62
1, 186769, Control_c, 0, 64, 0
1, 186784, Note_off_c, 0, 63, 64
1, 186785, Note_off_c, 0, 51, 63
1, 186815, Note_on_c, 0, 63, 89
1, 186823, Note_on_c, 0, 51, 79
1, 186861, Note_off_c, 0, 51, 63
1, 186872, Note_on_c, 0, 50, 64
1, 186872, Note_on_c, 0, 62, 80
1, 186883, Note_off_c, 0, 63, 61
1, 186928, Note_on_c, 0, 48, 71
1, 186933, Note_off_c, 0, 50, 65
1, 186948, Note_on_c, 0, 60, 78
1, 186960, Note_off_c, 0, 62, 61
1, 186990, Note_on_c, 0, 46, 73
1, 187005, Note_on_c, 0, 66, 87
1, 187005, Note_off_c, 0, 48, 63
1, 187017, Note_off_c, 0, 60, 65
1, 187047, Note_on_c, 0, 48, 65
1, 187060, Note_off_c, 0, 46, 63
1, 187068, Note_on_c, 0, 63, 80
1, 187083, Note_on_c, 0, 54, 61
1, 187099, Note_off_c, 0, 66, 62
1, 187111, Note_off_c, 0, 48, 62
1, 187125, Note_on_c, 0, 60, 77
1, 187145, Note_off_c, 0, 63, 61
1, 187154, Note_off_c, 0, 54, 64
1, 187181, Note_off_c, 0, 60, 65
1, 187207, Control_c, 0, 64, 39
1, 187208, Note_on_c, 0, 63, 80
1, 187211, Note_on_c, 0, 65, 83
1, 187214, Note_on_c, 0, 53, 80
1, 187217, Note_on_c, 0, 48, 64
1, 187218, Note_on_c, 0, 45, 71
1, 187222, Control_c, 0, 64, 64
1, 187236, Control_c, 0, 64, 68
1, 187241, Note_off_c, 0, 53, 69
1, 187242, Note_off_c, 0, 63, 62
1, 187247, Note_off_c, 0, 48, 64
1, 187249, Note_off_c, 0, 65, 62
1, 187251, Control_c, 0, 64, 76
1, 187253, Note_off_c, 0, 45, 68
1, 187266, Control_c, 0, 64, 95
1, 187281, Control_c, 0, 64, 127
1, 187441, Note_on_c, 0, 48, 53
1, 187443, Control_c, 0, 64, 103
1, 187458, Control_c, 0, 64, 92
1, 187463, Note_on_c, 0, 60, 53
1, 187473, Control_c, 0, 64, 83
1, 187482, Note_off_c, 0, 48, 60
1, 187488, Control_c, 0, 64, 73
1, 187494, Note_off_c, 0, 60, 65
1, 187500, Note_on_c, 0, 50, 53
1, 187503, Control_c, 0, 64, 65
1, 187518, Control_c, 0, 64, 57
1, 187525, Note_on_c, 0, 62, 42
1, 187533, Note_off_c, 0, 50, 65
1, 187533, Control_c, 0, 64, 48
1, 187548, Control_c, 0, 64, 44
1, 187549, Note_on_c, 0, 51, 56
1, 187553, Note_off_c, 0, 62, 57
1, 187562, Control_c, 0, 64, 41
1, 187573, Note_on_c, 0, 63, 54
1, 187575, Note_off_c, 0, 51, 61
1, 187577, Control_c, 0, 64, 34
1, 187592, Control_c, 0, 64, 27
1, 187599, Note_off_c, 0, 63, 62
1, 187607, Control_c, 0, 64, 22
1, 187622, Control_c, 0, 64, 17
1, 187623, Note_on_c, 0, 51, 50
1, 187636, Control_c, 0, 64, 13
1, 187642, Note_on_c, 0, 63, 64
1, 187651, Control_c, 0, 64, 0
1, 187658, Note_off_c, 0, 51, 65
1, 187681, Note_off_c, 0, 63, 62
1, 187682, Note_on_c, 0, 50, 49
1, 187706, Note_on_c, 0, 62, 54
1, 187727, Note_off_c, 0, 50, 64
1, 187750, Note_off_c, 0, 62, 63
1, 187769, Note_on_c, 0, 44, 50
1, 187774, Note_on_c, 0, 60, 61
1, 187800, Note_off_c, 0, 44, 63
1, 187825, Note_off_c, 0, 60, 60
1, 187836, Note_on_c, 0, 66, 59
1, 187861, Poly_aftertouch_c, 0, 48, 127
1, 187877, Note_off_c, 0, 66, 60
1, 187887, Note_on_c, 0, 63, 52
1, 187894, Poly_aftertouch_c, 0, 48, 0
1, 187911, Note_on_c, 0, 55, 41
1, 187929, Note_off_c, 0, 63, 64
1, 187959, Note_on_c, 0, 60, 41
1, 187961, Note_on_c, 0, 50, 23
1, 187967, Note_off_c, 0, 55, 0
1, 187986, Note_off_c, 0, 60, 60
1, 188000, Control_c, 0, 64, 30
1, 188004, Note_on_c, 0, 46, 49
1, 188005, Poly_aftertouch_c, 0, 55, 127
1, 188015, Control_c, 0, 64, 61
1, 188017, Note_on_c, 0, 67, 54
1, 188022, Note_on_c, 0, 62, 35
1, 188025, Note_on_c, 0, 58, 22
1, 188030, Control_c, 0, 64, 70
1, 188032, Poly_aftertouch_c, 0, 55, 0
1, 188037, Note_off_c, 0, 50, 62
1, 188045, Control_c, 0, 64, 84
1, 188046, Note_off_c, 0, 46, 64
1, 188048, Note_off_c, 0, 67, 63
1, 188052, Note_off_c, 0, 62, 51
1, 188059, Control_c, 0, 64, 127
1, 188068, Note_off_c, 0, 58, 38
1, 188237, Control_c, 0, 64, 125
1, 188241, Note_on_c, 0, 50, 61
1, 188249, Note_on_c, 0, 62, 58
1, 188252, Control_c, 0, 64, 96
1, 188266, Control_c, 0, 64, 82
1, 188281, Control_c, 0, 64, 70
1, 188283, Note_off_c, 0, 50, 65
1, 188284, Note_on_c, 0, 52, 66
1, 188285, Note_off_c, 0, 62, 65
1, 188296, Control_c, 0, 64, 60
1, 188298, Note_on_c, 0, 64, 66
1, 188311, Control_c, 0, 64, 51
1, 188326, Control_c, 0, 64, 48
1, 188338, Note_off_c, 0, 52, 65
1, 188341, Control_c, 0, 64, 47
1, 188342, Note_off_c, 0, 64, 63
1, 188348, Note_on_c, 0, 65, 65
1, 188356, Control_c, 0, 64, 45
1, 188359, Note_on_c, 0, 53, 59
1, 188371, Control_c, 0, 64, 43
1, 188379, Note_off_c, 0, 65, 64
1, 188382, Note_off_c, 0, 53, 62
1, 188385, Control_c, 0, 64, 42
1, 188400, Control_c, 0, 64, 41
1, 188409, Note_on_c, 0, 65, 94
1, 188415, Control_c, 0, 64, 40
1, 188420, Note_on_c, 0, 53, 59
1, 188430, Control_c, 0, 64, 39
1, 188452, Control_c, 0, 64, 39
1, 188465, Note_off_c, 0, 53, 65
1, 188471, Note_on_c, 0, 52, 65
1, 188475, Note_on_c, 0, 64, 81
1, 188481, Control_c, 0, 64, 38
1, 188490, Note_off_c, 0, 65, 61
1, 188496, Control_c, 0, 64, 37
1, 188515, Note_on_c, 0, 50, 64
1, 188517, Note_off_c, 0, 52, 64
1, 188541, Note_on_c, 0, 62, 82
1, 188564, Note_off_c, 0, 64, 56
1, 188585, Note_on_c, 0, 48, 76
1, 188585, Control_c, 0, 64, 38
1, 188587, Note_off_c, 0, 50, 63
1, 188600, Control_c, 0, 64, 39
1, 188601, Note_on_c, 0, 68, 89
1, 188613, Note_off_c, 0, 62, 63
1, 188615, Control_c, 0, 64, 39
1, 188642, Note_off_c, 0, 48, 64
1, 188645, Note_on_c, 0, 50, 64
1, 188659, Control_c, 0, 64, 36
1, 188669, Note_on_c, 0, 65, 78
1, 188674, Control_c, 0, 64, 0
1, 188688, Note_on_c, 0, 56, 62
1, 188700, Note_off_c, 0, 68, 61
1, 188711, Note_off_c, 0, 50, 64
1, 188723, Note_on_c, 0, 62, 77
1, 188738, Note_off_c, 0, 65, 62
1, 188755, Note_off_c, 0, 56, 65
1, 188780, Note_off_c, 0, 62, 60
1, 188800, Note_on_c, 0, 65, 78
1, 188803, Note_on_c, 0, 67, 85
1, 188808, Note_on_c, 0, 50, 67
1, 188812, Note_on_c, 0, 55, 81
1, 188815, Note_on_c, 0, 47, 72
1, 188823, Control_c, 0, 64, 50
1, 188833, Note_off_c, 0, 65, 63
1, 188838, Control_c, 0, 64, 63
1, 188842, Note_off_c, 0, 55, 69
1, 188845, Note_off_c, 0, 67, 66
1, 188845, Note_off_c, 0, 50, 66
1, 188848, Note_off_c, 0, 47, 67
1, 188853, Control_c, 0, 64, 69
1, 188868, Control_c, 0, 64, 78
1, 188883, Control_c, 0, 64, 91
1, 188897, Control_c, 0, 64, 109
1, 188912, Control_c, 0, 64, 127
1, 189015, Control_c, 0, 64, 114
1, 189025, Note_on_c, 0, 50, 53
1, 189030, Control_c, 0, 64, 104
1, 189045, Control_c, 0, 64, 98
1, 189048, Note_on_c, 0, 62, 56
1, 189059, Control_c, 0, 64, 92
1, 189068, Note_off_c, 0, 50, 63
1, 189070, Note_off_c, 0, 62, 63
1, 189074, Control_c, 0, 64, 85
1, 189077, Note_on_c, 0, 52, 59
1, 189089, Control_c, 0, 64, 76
1, 189104, Control_c, 0, 64, 66
1, 189106, Note_on_c, 0, 64, 55
1, 189113, Note_off_c, 0, 52, 65
1, 189119, Control_c, 0, 64, 55
1, 189134, Control_c, 0, 64, 48
1, 189138, Note_on_c, 0, 53, 56
1, 189142, Note_off_c, 0, 64, 66
1, 189149, Control_c, 0, 64, 46
1, 189155, Note_on_c, 0, 65, 61
1, 189163, Control_c, 0, 64, 45
1, 189186, Control_c, 0, 64, 41
1, 189194, Note_off_c, 0, 65, 66
1, 189196, Note_off_c, 0, 53, 0
1, 189201, Control_c, 0, 64, 39
1, 189215, Control_c, 0, 64, 37
1, 189221, Note_on_c, 0, 53, 27
1, 189230, Control_c, 0, 64, 36
1, 189234, Note_on_c, 0, 65, 67
1, 189245, Control_c, 0, 64, 36
1, 189258, Note_off_c, 0, 53, 60
1, 189273, Note_off_c, 0, 65, 64
1, 189274, Control_c, 0, 64, 35
1, 189284, Note_on_c, 0, 64, 66
1, 189293, Note_on_c, 0, 47, 21
1, 189304, Control_c, 0, 64, 35
1, 189313, Note_on_c, 0, 50, 59
1, 189316, Note_off_c, 0, 47, 50
1, 189351, Note_off_c, 0, 64, 61
1, 189359, Note_on_c, 0, 62, 61
1, 189384, Note_off_c, 0, 50, 51
1, 189408, Note_on_c, 0, 68, 64
1, 189413, Note_off_c, 0, 62, 63
1, 189444, Note_on_c, 0, 56, 56
1, 189467, Control_c, 0, 64, 34
1, 189479, Note_off_c, 0, 68, 60
1, 189480, Note_on_c, 0, 65, 56
1, 189482, Control_c, 0, 64, 34
1, 189488, Note_off_c, 0, 56, 65
1, 189497, Control_c, 0, 64, 33
1, 189512, Control_c, 0, 64, 32
1, 189527, Control_c, 0, 64, 31
1, 189542, Note_off_c, 0, 65, 57
1, 189549, Note_on_c, 0, 62, 44
1, 189557, Control_c, 0, 64, 32
1, 189560, Note_on_c, 0, 57, 43
1, 189572, Control_c, 0, 64, 38
1, 189587, Control_c, 0, 64, 49
1, 189590, Note_on_c, 0, 52, 43
1, 189593, Note_off_c, 0, 62, 61
1, 189600, Note_on_c, 0, 48, 29
1, 189602, Note_on_c, 0, 64, 55
1, 189602, Control_c, 0, 64, 60
1, 189605, Note_on_c, 0, 69, 60
1, 189617, Control_c, 0, 64, 65
1, 189632, Control_c, 0, 64, 70
1, 189635, Note_off_c, 0, 64, 65
1, 189637, Note_off_c, 0, 69, 66
1, 189642, Note_off_c, 0, 52, 64
1, 189646, Control_c, 0, 64, 81
1, 189649, Note_off_c, 0, 57, 64
1, 189651, Note_off_c, 0, 48, 60
1, 189661, Control_c, 0, 64, 100
1, 189676, Control_c, 0, 64, 127
1, 189839, Note_on_c, 0, 55, 56
1, 189857, Note_on_c, 0, 64, 54
1, 189876, Note_off_c, 0, 55, 63
1, 189890, Note_on_c, 0, 53, 61
1, 189891, Note_off_c, 0, 64, 63
1, 189898, Control_c, 0, 64, 125
1, 189909, Note_on_c, 0, 65, 59
1, 189913, Control_c, 0, 64, 102
1, 189928, Control_c, 0, 64, 87
1, 189949, Note_off_c, 0, 65, 66
1, 189950, Note_off_c, 0, 53, 63
1, 189950, Control_c, 0, 64, 74
1, 189959, Note_on_c, 0, 67, 56
1, 189965, Control_c, 0, 64, 64
1, 189969, Note_on_c, 0, 52, 58
1, 189980, Note_off_c, 0, 67, 60
1, 189980, Control_c, 0, 64, 54
1, 189995, Note_off_c, 0, 52, 64
1, 189995, Control_c, 0, 64, 49
1, 190010, Control_c, 0, 64, 48
1, 190025, Control_c, 0, 64, 47
1, 190031, Note_on_c, 0, 67, 73
1, 190039, Control_c, 0, 64, 45
1, 190040, Note_on_c, 0, 52, 54
1, 190054, Control_c, 0, 64, 43
1, 190058, Note_off_c, 0, 67, 67
1, 190059, Note_off_c, 0, 52, 64
1, 190069, Note_on_c, 0, 65, 61
1, 190069, Control_c, 0, 64, 42
1, 190071, Note_on_c, 0, 53, 64
1, 190083, Control_c, 0, 64, 41
1, 190098, Control_c, 0, 64, 40
1, 190113, Control_c, 0, 64, 39
1, 190125, Note_off_c, 0, 53, 61
1, 190128, Control_c, 0, 64, 38
1, 190143, Note_on_c, 0, 55, 43
1, 190143, Control_c, 0, 64, 37
1, 190147, Note_on_c, 0, 64, 60
1, 190156, Note_off_c, 0, 65, 58
1, 190172, Control_c, 0, 64, 36
1, 190192, Note_off_c, 0, 55, 62
1, 190192, Note_on_c, 0, 50, 49
1, 190199, Note_on_c, 0, 70, 59
1, 190201, Note_off_c, 0, 64, 63
1, 190217, Control_c, 0, 64, 36
1, 190240, Note_on_c, 0, 52, 30
1, 190246, Note_off_c, 0, 50, 63
1, 190247, Note_off_c, 0, 70, 58
1, 190250, Note_on_c, 0, 67, 38
1, 190261, Control_c, 0, 64, 36
1, 190276, Control_c, 0, 64, 38
1, 190281, Note_off_c, 0, 67, 54
1, 190285, Note_off_c, 0, 52, 67
1, 190287, Note_on_c, 0, 65, 53
1, 190290, Control_c, 0, 64, 41
1, 190305, Control_c, 0, 64, 46
1, 190310, Note_on_c, 0, 53, 54
1, 190320, Control_c, 0, 64, 51
1, 190335, Control_c, 0, 64, 53
1, 190335, Note_on_c, 0, 64, 46
1, 190350, Control_c, 0, 64, 54
1, 190351, Note_off_c, 0, 53, 64
1, 190362, Note_off_c, 0, 65, 53
1, 190364, Control_c, 0, 64, 56
1, 190379, Control_c, 0, 64, 59
1, 190383, Note_on_c, 0, 49, 53
1, 190389, Note_off_c, 0, 64, 60
1, 190395, Control_c, 0, 64, 61
1, 190401, Note_on_c, 0, 67, 50
1, 190402, Note_on_c, 0, 69, 61
1, 190409, Control_c, 0, 64, 62
1, 190415, Note_on_c, 0, 52, 50
1, 190424, Control_c, 0, 64, 62
1, 190457, Note_off_c, 0, 67, 59
1, 190458, Note_off_c, 0, 49, 62
1, 190463, Note_off_c, 0, 69, 57
1, 190469, Control_c, 0, 64, 62
1, 190474, Note_on_c, 0, 65, 64
1, 190484, Note_off_c, 0, 52, 61
1, 190492, Note_on_c, 0, 53, 51
1, 190499, Control_c, 0, 64, 61
1, 190513, Control_c, 0, 64, 61
1, 190526, Note_on_c, 0, 64, 46
1, 190528, Control_c, 0, 64, 60
1, 190542, Note_off_c, 0, 53, 61
1, 190543, Control_c, 0, 64, 59
1, 190553, Note_on_c, 0, 55, 59
1, 190556, Note_off_c, 0, 65, 60
1, 190558, Control_c, 0, 64, 58
1, 190573, Control_c, 0, 64, 58
1, 190577, Note_on_c, 0, 70, 79
1, 190580, Note_off_c, 0, 64, 62
1, 190586, Note_on_c, 0, 67, 67
1, 190587, Control_c, 0, 64, 57
1, 190602, Note_on_c, 0, 48, 64
1, 190602, Control_c, 0, 64, 56
1, 190603, Note_on_c, 0, 52, 65
1, 190611, Note_off_c, 0, 55, 63
1, 190617, Control_c, 0, 64, 55
1, 190626, Note_on_c, 0, 69, 20
1, 190632, Control_c, 0, 64, 54
1, 190647, Control_c, 0, 64, 53
1, 190653, Note_off_c, 0, 48, 60
1, 190661, Control_c, 0, 64, 52
1, 190662, Note_on_c, 0, 65, 73
1, 190666, Note_off_c, 0, 70, 61
1, 190667, Note_off_c, 0, 69, 46
1, 190672, Note_on_c, 0, 53, 67
1, 190672, Note_off_c, 0, 67, 58
1, 190675, Note_off_c, 0, 52, 63
1, 190710, Note_on_c, 0, 64, 59
1, 190723, Note_on_c, 0, 55, 54
1, 190725, Note_off_c, 0, 53, 60
1, 190752, Note_off_c, 0, 64, 57
1, 190772, Note_on_c, 0, 71, 88
1, 190776, Note_on_c, 0, 47, 72
1, 190785, Note_off_c, 0, 55, 62
1, 190785, Note_on_c, 0, 67, 74
1, 190791, Note_off_c, 0, 65, 57
1, 190794, Note_on_c, 0, 52, 72
1, 190817, Control_c, 0, 64, 52
1, 190843, Poly_aftertouch_c, 0, 65, 0
1, 190847, Control_c, 0, 64, 51
1, 190850, Note_off_c, 0, 47, 62
1, 190851, Note_on_c, 0, 65, 62
1, 190859, Note_off_c, 0, 71, 62
1, 190861, Control_c, 0, 64, 51
1, 190862, Note_on_c, 0, 53, 73
1, 190869, Note_off_c, 0, 67, 60
1, 190876, Control_c, 0, 64, 50
1, 190886, Note_off_c, 0, 52, 62
1, 190891, Control_c, 0, 64, 50
1, 190902, Note_on_c, 0, 64, 50
1, 190913, Note_on_c, 0, 55, 61
1, 190920, Control_c, 0, 64, 49
1, 190925, Note_off_c, 0, 53, 63
1, 190935, Control_c, 0, 64, 49
1, 190949, Note_off_c, 0, 65, 54
1, 190950, Control_c, 0, 64, 48
1, 190951, Note_off_c, 0, 64, 57
1, 190961, Note_on_c, 0, 52, 57
1, 190964, Note_off_c, 0, 55, 61
1, 190965, Note_on_c, 0, 72, 91
1, 190968, Note_on_c, 0, 67, 84
1, 190970, Note_on_c, 0, 46, 76
1, 190979, Control_c, 0, 64, 48
1, 190994, Control_c, 0, 64, 47
1, 191009, Control_c, 0, 64, 46
1, 191024, Control_c, 0, 64, 45
1, 191039, Note_on_c, 0, 53, 79
1, 191039, Control_c, 0, 64, 44
1, 191040, Note_off_c, 0, 46, 63
1, 191041, Note_off_c, 0, 67, 65
1, 191042, Note_on_c, 0, 65, 73
1, 191050, Note_off_c, 0, 72, 64
1, 191054, Control_c, 0, 64, 44
1, 191065, Note_off_c, 0, 52, 65
1, 191068, Control_c, 0, 64, 43
1, 191083, Control_c, 0, 64, 42
1, 191086, Note_off_c, 0, 65, 61
1, 191098, Control_c, 0, 64, 38
1, 191102, Note_off_c, 0, 53, 63
1, 191104, Note_on_c, 0, 55, 65
1, 191108, Note_on_c, 0, 64, 59
1, 191113, Control_c, 0, 64, 29
1, 191128, Control_c, 0, 64, 0
1, 191147, Note_off_c, 0, 64, 65
1, 191164, Note_on_c, 0, 73, 98
1, 191170, Note_on_c, 0, 45, 82
1, 191173, Control_c, 0, 64, 26
1, 191181, Note_off_c, 0, 55, 63
1, 191188, Control_c, 0, 64, 53
1, 191203, Control_c, 0, 64, 64
1, 191217, Control_c, 0, 64, 69
1, 191232, Control_c, 0, 64, 77
1, 191236, Note_on_c, 0, 52, 75
1, 191242, Note_off_c, 0, 45, 63
1, 191244, Note_on_c, 0, 67, 63
1, 191247, Control_c, 0, 64, 87
1, 191262, Control_c, 0, 64, 95
1, 191263, Note_off_c, 0, 73, 62
1, 191277, Control_c, 0, 64, 95
1, 191292, Note_off_c, 0, 52, 65
1, 191292, Control_c, 0, 64, 91
1, 191294, Note_off_c, 0, 67, 60
1, 191307, Control_c, 0, 64, 86
1, 191308, Note_on_c, 0, 64, 57
1, 191309, Note_on_c, 0, 55, 63
1, 191322, Control_c, 0, 64, 80
1, 191336, Control_c, 0, 64, 76
1, 191351, Control_c, 0, 64, 73
1, 191359, Note_off_c, 0, 64, 51
1, 191366, Control_c, 0, 64, 70
1, 191369, Note_on_c, 0, 52, 72
1, 191369, Note_off_c, 0, 55, 62
1, 191378, Note_on_c, 0, 67, 69
1, 191381, Control_c, 0, 64, 66
1, 191396, Control_c, 0, 64, 62
1, 191405, Note_off_c, 0, 67, 62
1, 191410, Control_c, 0, 64, 57
1, 191425, Control_c, 0, 64, 55
1, 191444, Note_off_c, 0, 52, 64
1, 191446, Note_on_c, 0, 53, 64
1, 191447, Control_c, 0, 64, 54
1, 191449, Note_on_c, 0, 65, 67
1, 191462, Control_c, 0, 64, 52
1, 191477, Control_c, 0, 64, 48
1, 191492, Note_off_c, 0, 53, 63
1, 191492, Control_c, 0, 64, 44
1, 191501, Note_on_c, 0, 55, 66
1, 191502, Note_off_c, 0, 65, 58
1, 191503, Note_on_c, 0, 64, 56
1, 191506, Control_c, 0, 64, 41
1, 191521, Control_c, 0, 64, 37
1, 191536, Control_c, 0, 64, 30
1, 191551, Control_c, 0, 64, 17
1, 191558, Note_off_c, 0, 55, 59
1, 191559, Note_off_c, 0, 64, 61
1, 191566, Control_c, 0, 64, 0
1, 191576, Note_on_c, 0, 50, 73
1, 191576, Note_on_c, 0, 74, 88
1, 191581, Control_c, 0, 64, 12
1, 191596, Control_c, 0, 64, 39
1, 191610, Control_c, 0, 64, 56
1, 191625, Control_c, 0, 64, 63
1, 191632, Note_on_c, 0, 65, 61
1, 191636, Note_off_c, 0, 50, 63
1, 191640, Control_c, 0, 64, 68
1, 191641, Note_on_c, 0, 53, 66
1, 191648, Note_off_c, 0, 74, 59
1, 191655, Control_c, 0, 64, 74
1, 191669, Control_c, 0, 64, 81
1, 191684, Control_c, 0, 64, 86
1, 191697, Note_off_c, 0, 53, 63
1, 191699, Control_c, 0, 64, 89
1, 191703, Note_off_c, 0, 65, 62
1, 191705, Note_on_c, 0, 62, 63
1, 191714, Control_c, 0, 64, 90
1, 191715, Note_on_c, 0, 57, 64
1, 191770, Note_off_c, 0, 62, 56
1, 191773, Control_c, 0, 64, 89
1, 191774, Note_on_c, 0, 53, 73
1, 191777, Note_off_c, 0, 57, 64
1, 191787, Note_on_c, 0, 65, 66
1, 191788, Control_c, 0, 64, 88
1, 191803, Control_c, 0, 64, 85
1, 191817, Control_c, 0, 64, 82
1, 191831, Note_off_c, 0, 53, 63
1, 191832, Control_c, 0, 64, 75
1, 191833, Note_off_c, 0, 65, 64
1, 191840, Note_on_c, 0, 55, 61
1, 191846, Note_on_c, 0, 64, 68
1, 191847, Control_c, 0, 64, 69
1, 191861, Control_c, 0, 64, 65
1, 191876, Control_c, 0, 64, 63
1, 191879, Note_off_c, 0, 55, 66
1, 191891, Control_c, 0, 64, 60
1, 191892, Note_off_c, 0, 64, 62
1, 191893, Note_on_c, 0, 57, 65
1, 191906, Control_c, 0, 64, 54
1, 191909, Note_on_c, 0, 62, 58
1, 191921, Control_c, 0, 64, 23
1, 191934, Note_off_c, 0, 57, 63
1, 191936, Control_c, 0, 64, 0
1, 191959, Note_on_c, 0, 45, 74
1, 191966, Note_off_c, 0, 62, 60
1, 191973, Note_on_c, 0, 74, 90
1, 192025, Control_c, 0, 64, 12
1, 192028, Note_off_c, 0, 45, 63
1, 192035, Note_on_c, 0, 52, 74
1, 192040, Control_c, 0, 64, 57
1, 192049, Note_on_c, 0, 67, 74
1, 192055, Note_off_c, 0, 74, 57
1, 192055, Control_c, 0, 64, 66
1, 192070, Control_c, 0, 64, 72
1, 192085, Control_c, 0, 64, 78
1, 192097, Note_off_c, 0, 52, 65
1, 192100, Control_c, 0, 64, 83
1, 192103, Note_off_c, 0, 67, 63
1, 192109, Note_on_c, 0, 64, 65
1, 192115, Control_c, 0, 64, 87
1, 192119, Note_on_c, 0, 55, 62
1, 192172, Note_off_c, 0, 64, 62
1, 192174, Control_c, 0, 64, 86
1, 192183, Note_off_c, 0, 55, 61
1, 192188, Note_on_c, 0, 52, 75
1, 192196, Control_c, 0, 64, 85
1, 192197, Note_on_c, 0, 67, 71
1, 192211, Control_c, 0, 64, 80
1, 192226, Control_c, 0, 64, 73
1, 192240, Control_c, 0, 64, 64
1, 192247, Note_off_c, 0, 67, 62
1, 192250, Note_off_c, 0, 52, 65
1, 192253, Note_on_c, 0, 65, 77
1, 192255, Control_c, 0, 64, 54
1, 192257, Note_on_c, 0, 53, 67
1, 192270, Control_c, 0, 64, 29
1, 192285, Control_c, 0, 64, 0
1, 192295, Note_off_c, 0, 65, 61
1, 192314, Note_off_c, 0, 53, 64
1, 192319, Note_on_c, 0, 64, 71
1, 192321, Note_on_c, 0, 55, 71
1, 192370, Note_off_c, 0, 64, 60
1, 192374, Note_on_c, 0, 73, 96
1, 192382, Note_off_c, 0, 55, 62
1, 192385, Note_on_c, 0, 45, 80
1, 192404, Control_c, 0, 64, 36
1, 192419, Control_c, 0, 64, 55
1, 192433, Control_c, 0, 64, 60
1, 192446, Note_on_c, 0, 67, 71
1, 192448, Control_c, 0, 64, 63
1, 192448, Note_on_c, 0, 52, 75
1, 192454, Note_off_c, 0, 45, 61
1, 192463, Control_c, 0, 64, 66
1, 192478, Control_c, 0, 64, 70
1, 192481, Note_off_c, 0, 73, 63
1, 192492, Control_c, 0, 64, 73
1, 192506, Note_off_c, 0, 67, 62
1, 192507, Control_c, 0, 64, 74
1, 192513, Note_on_c, 0, 64, 70
1, 192515, Note_off_c, 0, 52, 65
1, 192522, Control_c, 0, 64, 75
1, 192531, Note_on_c, 0, 55, 70
1, 192566, Control_c, 0, 64, 74
1, 192581, Control_c, 0, 64, 74
1, 192583, Note_on_c, 0, 67, 79
1, 192584, Note_off_c, 0, 64, 62
1, 192591, Note_on_c, 0, 52, 74
1, 192596, Control_c, 0, 64, 72
1, 192599, Note_off_c, 0, 55, 62
1, 192611, Control_c, 0, 64, 70
1, 192626, Control_c, 0, 64, 65
1, 192640, Control_c, 0, 64, 54
1, 192649, Note_on_c, 0, 53, 68
1, 192650, Note_on_c, 0, 65, 78
1, 192651, Note_off_c, 0, 67, 63
1, 192654, Note_off_c, 0, 52, 63
1, 192655, Control_c, 0, 64, 0
1, 192697, Note_on_c, 0, 64, 79
1, 192707, Note_off_c, 0, 65, 62
1, 192710, Note_off_c, 0, 53, 64
1, 192713, Note_on_c, 0, 55, 73
1, 192749, Note_off_c, 0, 55, 64
1, 192767, Note_off_c, 0, 64, 64
1, 192772, Note_on_c, 0, 50, 75
1, 192773, Control_c, 0, 64, 53
1, 192776, Note_on_c, 0, 65, 83
1, 192781, Note_on_c, 0, 74, 94
1, 192787, Note_on_c, 0, 53, 75
1, 192789, Control_c, 0, 64, 66
1, 192798, Note_off_c, 0, 65, 71
1, 192804, Control_c, 0, 64, 77
1, 192811, Note_off_c, 0, 53, 67
1, 192815, Note_off_c, 0, 50, 64
1, 192816, Note_off_c, 0, 74, 69
1, 192819, Control_c, 0, 64, 127
1, 193033, Note_on_c, 0, 67, 82
1, 193036, Note_on_c, 0, 76, 64
1, 193059, Note_off_c, 0, 67, 64
1, 193074, Note_on_c, 0, 65, 51
1, 193095, Note_off_c, 0, 76, 62
1, 193099, Note_on_c, 0, 77, 76
1, 193152, Note_off_c, 0, 77, 63
1, 193156, Note_off_c, 0, 65, 62
1, 193161, Note_on_c, 0, 64, 72
1, 193161, Note_on_c, 0, 79, 66
1, 193167, Control_c, 0, 64, 96
1, 193178, Note_off_c, 0, 79, 66
1, 193182, Control_c, 0, 64, 76
1, 193186, Note_off_c, 0, 64, 67
1, 193197, Control_c, 0, 64, 64
1, 193212, Control_c, 0, 64, 54
1, 193216, Note_on_c, 0, 79, 89
1, 193226, Control_c, 0, 64, 48
1, 193230, Note_on_c, 0, 64, 78
1, 193241, Control_c, 0, 64, 47
1, 193256, Control_c, 0, 64, 45
1, 193261, Note_off_c, 0, 64, 60
1, 193265, Note_on_c, 0, 77, 77
1, 193271, Control_c, 0, 64, 42
1, 193274, Note_on_c, 0, 65, 61
1, 193274, Note_off_c, 0, 79, 62
1, 193286, Control_c, 0, 64, 40
1, 193301, Control_c, 0, 64, 40
1, 193316, Control_c, 0, 64, 39
1, 193334, Note_off_c, 0, 65, 63
1, 193340, Note_on_c, 0, 76, 70
1, 193345, Note_on_c, 0, 67, 58
1, 193346, Control_c, 0, 64, 39
1, 193354, Note_off_c, 0, 77, 56
1, 193382, Note_on_c, 0, 62, 59
1, 193389, Note_on_c, 0, 82, 90
1, 193397, Note_off_c, 0, 76, 65
1, 193398, Note_off_c, 0, 67, 61
1, 193402, Note_on_c, 0, 79, 71
1, 193404, Note_on_c, 0, 64, 70
1, 193424, Note_on_c, 0, 81, 44
1, 193446, Note_off_c, 0, 62, 63
1, 193453, Note_off_c, 0, 81, 51
1, 193470, Note_on_c, 0, 77, 81
1, 193472, Note_off_c, 0, 64, 62
1, 193477, Note_off_c, 0, 79, 59
1, 193479, Note_off_c, 0, 82, 63
1, 193481, Note_on_c, 0, 65, 60
1, 193525, Note_off_c, 0, 65, 62
1, 193533, Note_on_c, 0, 67, 50
1, 193533, Note_on_c, 0, 76, 46
1, 193542, Note_off_c, 0, 77, 55
1, 193560, Note_on_c, 0, 61, 65
1, 193568, Control_c, 0, 64, 39
1, 193572, Note_off_c, 0, 67, 64
1, 193575, Note_on_c, 0, 81, 77
1, 193580, Note_on_c, 0, 79, 83
1, 193580, Note_off_c, 0, 76, 62
1, 193584, Control_c, 0, 64, 40
1, 193584, Note_on_c, 0, 64, 66
1, 193599, Control_c, 0, 64, 40
1, 193613, Control_c, 0, 64, 41
1, 193633, Note_off_c, 0, 61, 63
1, 193643, Control_c, 0, 64, 41
1, 193644, Note_on_c, 0, 77, 85
1, 193650, Note_off_c, 0, 79, 61
1, 193650, Note_on_c, 0, 65, 72
1, 193656, Note_off_c, 0, 64, 62
1, 193670, Note_off_c, 0, 81, 63
1, 193694, Control_c, 0, 64, 42
1, 193709, Note_on_c, 0, 76, 57
1, 193721, Note_off_c, 0, 77, 55
1, 193727, Note_off_c, 0, 65, 62
1, 193728, Note_on_c, 0, 67, 50
1, 193757, Note_on_c, 0, 82, 92
1, 193768, Note_on_c, 0, 79, 80
1, 193769, Control_c, 0, 64, 42
1, 193772, Note_off_c, 0, 76, 65
1, 193775, Note_on_c, 0, 60, 78
1, 193776, Note_on_c, 0, 64, 76
1, 193786, Note_off_c, 0, 67, 63
1, 193799, Control_c, 0, 64, 43
1, 193811, Note_on_c, 0, 81, 24
1, 193813, Control_c, 0, 64, 43
1, 193842, Note_off_c, 0, 82, 65
1, 193843, Control_c, 0, 64, 44
1, 193843, Note_off_c, 0, 81, 53
1, 193844, Note_on_c, 0, 77, 78
1, 193844, Note_off_c, 0, 60, 64
1, 193847, Note_off_c, 0, 64, 62
1, 193849, Note_on_c, 0, 65, 80
1, 193858, Control_c, 0, 64, 44
1, 193866, Note_off_c, 0, 79, 61
1, 193891, Note_on_c, 0, 76, 65
1, 193902, Control_c, 0, 64, 45
1, 193905, Note_on_c, 0, 67, 58
1, 193910, Note_off_c, 0, 65, 62
1, 193930, Note_off_c, 0, 76, 62
1, 193946, Note_off_c, 0, 67, 64
1, 193950, Note_on_c, 0, 59, 82
1, 193957, Note_on_c, 0, 84, 87
1, 193960, Note_on_c, 0, 64, 74
1, 193960, Note_on_c, 0, 83, 82
1, 193962, Note_on_c, 0, 79, 80
1, 193967, Note_off_c, 0, 77, 57
1, 194016, Note_off_c, 0, 59, 64
1, 194031, Note_on_c, 0, 77, 69
1, 194035, Note_on_c, 0, 65, 74
1, 194036, Note_off_c, 0, 83, 62
1, 194036, Note_off_c, 0, 84, 63
1, 194046, Note_off_c, 0, 64, 61
1, 194046, Note_off_c, 0, 79, 61
1, 194067, Note_on_c, 0, 67, 60
1, 194079, Control_c, 0, 64, 45
1, 194082, Note_on_c, 0, 76, 55
1, 194099, Note_off_c, 0, 65, 60
1, 194112, Note_off_c, 0, 77, 60
1, 194124, Note_off_c, 0, 67, 63
1, 194130, Note_off_c, 0, 76, 59
1, 194135, Note_on_c, 0, 58, 79
1, 194136, Note_on_c, 0, 64, 55
1, 194147, Note_on_c, 0, 84, 94
1, 194148, Note_on_c, 0, 79, 79
1, 194168, Control_c, 0, 64, 46
1, 194183, Control_c, 0, 64, 46
1, 194189, Note_off_c, 0, 79, 59
1, 194198, Control_c, 0, 64, 47
1, 194209, Note_on_c, 0, 65, 73
1, 194209, Note_off_c, 0, 58, 61
1, 194212, Control_c, 0, 64, 49
1, 194214, Poly_aftertouch_c, 0, 77, 127
1, 194220, Note_off_c, 0, 64, 58
1, 194223, Note_off_c, 0, 84, 67
1, 194227, Control_c, 0, 64, 51
1, 194242, Control_c, 0, 64, 52
1, 194246, Poly_aftertouch_c, 0, 77, 0
1, 194257, Control_c, 0, 64, 53
1, 194264, Note_off_c, 0, 65, 62
1, 194272, Control_c, 0, 64, 54
1, 194277, Note_on_c, 0, 76, 64
1, 194282, Note_on_c, 0, 67, 66
1, 194302, Control_c, 0, 64, 50
1, 194317, Control_c, 0, 64, 11
1, 194331, Control_c, 0, 64, 0
1, 194344, Note_off_c, 0, 67, 60
1, 194346, Note_on_c, 0, 85, 96
1, 194347, Note_on_c, 0, 57, 81
1, 194371, Note_off_c, 0, 76, 60
1, 194377, Control_c, 0, 64, 20
1, 194392, Control_c, 0, 64, 59
1, 194407, Control_c, 0, 64, 70
1, 194414, Note_off_c, 0, 57, 62
1, 194422, Note_on_c, 0, 79, 73
1, 194422, Control_c, 0, 64, 85
1, 194426, Note_on_c, 0, 64, 59
1, 194443, Control_c, 0, 64, 127
1, 194447, Note_off_c, 0, 85, 63
1, 194472, Note_off_c, 0, 64, 65
1, 194475, Note_off_c, 0, 79, 62
1, 194496, Note_on_c, 0, 76, 69
1, 194499, Note_on_c, 0, 67, 59
1, 194548, Note_off_c, 0, 67, 58
1, 194558, Note_off_c, 0, 76, 58
1, 194560, Note_on_c, 0, 64, 73
1, 194577, Note_on_c, 0, 79, 62
1, 194604, Note_off_c, 0, 64, 61
1, 194607, Control_c, 0, 64, 109
1, 194610, Note_on_c, 0, 65, 57
1, 194622, Control_c, 0, 64, 91
1, 194624, Note_off_c, 0, 79, 61
1, 194630, Note_on_c, 0, 77, 64
1, 194636, Control_c, 0, 64, 79
1, 194638, Note_off_c, 0, 65, 63
1, 194651, Control_c, 0, 64, 67
1, 194658, Note_on_c, 0, 67, 59
1, 194666, Control_c, 0, 64, 44
1, 194673, Note_off_c, 0, 77, 60
1, 194675, Note_on_c, 0, 76, 75
1, 194675, Note_off_c, 0, 67, 64
1, 194681, Control_c, 0, 64, 0
1, 194733, Note_on_c, 0, 50, 75
1, 194733, Note_off_c, 0, 76, 64
1, 194740, Note_on_c, 0, 86, 92
1, 194754, Control_c, 0, 64, 50
1, 194769, Control_c, 0, 64, 63
1, 194784, Control_c, 0, 64, 70
1, 194785, Note_off_c, 0, 50, 64
1, 194798, Control_c, 0, 64, 78
1, 194801, Note_on_c, 0, 77, 78
1, 194804, Note_on_c, 0, 62, 65
1, 194813, Control_c, 0, 64, 91
1, 194815, Note_off_c, 0, 86, 61
1, 194827, Control_c, 0, 64, 103
1, 194836, Note_off_c, 0, 62, 64
1, 194842, Control_c, 0, 64, 113
1, 194857, Control_c, 0, 64, 114
1, 194860, Note_off_c, 0, 77, 63
1, 194862, Note_on_c, 0, 74, 73
1, 194885, Note_on_c, 0, 65, 71
1, 194928, Note_off_c, 0, 74, 62
1, 194932, Control_c, 0, 64, 112
1, 194934, Note_off_c, 0, 65, 61
1, 194946, Control_c, 0, 64, 109
1, 194947, Note_on_c, 0, 77, 66
1, 194952, Note_on_c, 0, 62, 59
1, 194961, Control_c, 0, 64, 107
1, 194976, Control_c, 0, 64, 107
1, 194997, Note_off_c, 0, 77, 65
1, 194997, Note_off_c, 0, 62, 64
1, 195006, Note_on_c, 0, 76, 72
1, 195018, Note_on_c, 0, 64, 65
1, 195035, Control_c, 0, 64, 106
1, 195046, Note_off_c, 0, 76, 60
1, 195049, Note_off_c, 0, 64, 66
1, 195050, Control_c, 0, 64, 103
1, 195064, Note_on_c, 0, 74, 73
1, 195065, Note_on_c, 0, 65, 64
1, 195065, Control_c, 0, 64, 96
1, 195079, Control_c, 0, 64, 74
1, 195094, Control_c, 0, 64, 53
1, 195109, Control_c, 0, 64, 0
1, 195116, Note_off_c, 0, 65, 60
1, 195120, Note_off_c, 0, 74, 62
1, 195126, Note_on_c, 0, 86, 101
1, 195137, Note_on_c, 0, 57, 76
1, 195153, Control_c, 0, 64, 22
1, 195168, Control_c, 0, 64, 55
1, 195186, Note_on_c, 0, 63, 54
1, 195191, Control_c, 0, 64, 65
1, 195206, Control_c, 0, 64, 70
1, 195209, Note_off_c, 0, 57, 63
1, 195209, Note_off_c, 0, 63, 56
1, 195211, Note_on_c, 0, 79, 81
1, 195221, Control_c, 0, 64, 76
1, 195224, Note_on_c, 0, 64, 57
1, 195226, Note_off_c, 0, 86, 59
1, 195236, Control_c, 0, 64, 82
1, 195251, Control_c, 0, 64, 88
1, 195259, Note_off_c, 0, 64, 64
1, 195265, Control_c, 0, 64, 91
1, 195277, Note_on_c, 0, 76, 69
1, 195277, Note_off_c, 0, 79, 60
1, 195283, Note_on_c, 0, 67, 60
1, 195323, Note_off_c, 0, 67, 57
1, 195341, Note_off_c, 0, 76, 62
1, 195348, Note_on_c, 0, 64, 66
1, 195355, Control_c, 0, 64, 90
1, 195364, Note_on_c, 0, 79, 57
1, 195370, Control_c, 0, 64, 90
1, 195398, Note_off_c, 0, 64, 61
1, 195401, Note_on_c, 0, 65, 68
1, 195401, Note_off_c, 0, 79, 66
1, 195408, Note_on_c, 0, 77, 63
1, 195441, Note_off_c, 0, 65, 62
1, 195452, Note_off_c, 0, 77, 63
1, 195458, Control_c, 0, 64, 90
1, 195463, Note_on_c, 0, 67, 64
1, 195476, Note_on_c, 0, 76, 75
1, 195488, Control_c, 0, 64, 90
1, 195502, Control_c, 0, 64, 81
1, 195517, Control_c, 0, 64, 64
1, 195523, Note_off_c, 0, 67, 63
1, 195529, Note_off_c, 0, 76, 63
1, 195532, Control_c, 0, 64, 0
1, 195534, Note_on_c, 0, 57, 80
1, 195542, Note_on_c, 0, 85, 97
1, 195591, Control_c, 0, 64, 49
1, 195606, Control_c, 0, 64, 62
1, 195611, Note_off_c, 0, 57, 62
1, 195617, Note_on_c, 0, 64, 75
1, 195621, Control_c, 0, 64, 67
1, 195622, Note_on_c, 0, 79, 70
1, 195636, Control_c, 0, 64, 72
1, 195650, Control_c, 0, 64, 80
1, 195651, Note_off_c, 0, 85, 64
1, 195665, Control_c, 0, 64, 86
1, 195680, Control_c, 0, 64, 91
1, 195686, Note_off_c, 0, 79, 62
1, 195686, Note_off_c, 0, 64, 62
1, 195695, Control_c, 0, 64, 92
1, 195707, Note_on_c, 0, 76, 68
1, 195709, Note_on_c, 0, 67, 71
1, 195783, Note_on_c, 0, 79, 79
1, 195787, Note_off_c, 0, 76, 62
1, 195787, Note_off_c, 0, 67, 61
1, 195790, Note_on_c, 0, 64, 75
1, 195799, Control_c, 0, 64, 92
1, 195856, Note_off_c, 0, 79, 61
1, 195858, Control_c, 0, 64, 92
1, 195866, Note_on_c, 0, 77, 86
1, 195873, Note_on_c, 0, 65, 75
1, 195873, Control_c, 0, 64, 93
1, 195888, Control_c, 0, 64, 96
1, 195892, Note_off_c, 0, 64, 57
1, 195902, Control_c, 0, 64, 99
1, 195917, Control_c, 0, 64, 104
1, 195937, Note_off_c, 0, 77, 63
1, 195939, Control_c, 0, 64, 109
1, 195943, Note_off_c, 0, 65, 62
1, 195954, Control_c, 0, 64, 112
1, 195957, Note_on_c, 0, 76, 90
1, 195965, Note_on_c, 0, 67, 66
1, 195969, Control_c, 0, 64, 115
1, 195985, Control_c, 0, 64, 115
1, 196000, Control_c, 0, 64, 112
1, 196014, Control_c, 0, 64, 95
1, 196029, Note_off_c, 0, 67, 60
1, 196029, Control_c, 0, 64, 68
1, 196044, Control_c, 0, 64, 30
1, 196059, Control_c, 0, 64, 0
1, 196061, Note_off_c, 0, 76, 62
1, 196078, Note_on_c, 0, 65, 82
1, 196078, Note_on_c, 0, 86, 94
1, 196079, Note_on_c, 0, 62, 76
1, 196103, Control_c, 0, 64, 43
1, 196118, Control_c, 0, 64, 62
1, 196133, Control_c, 0, 64, 68
1, 196148, Control_c, 0, 64, 75
1, 196163, Control_c, 0, 64, 86
1, 196178, Control_c, 0, 64, 103
1, 196192, Control_c, 0, 64, 127
1, 196203, Note_off_c, 0, 65, 52
1, 196222, Note_on_c, 0, 81, 77
1, 196228, Note_off_c, 0, 62, 45
1, 196228, Note_off_c, 0, 86, 58
1, 196301, Note_on_c, 0, 77, 76
1, 196303, Note_off_c, 0, 81, 64
1, 196338, Note_off_c, 0, 77, 61
1, 196364, Note_on_c, 0, 74, 67
1, 196398, Note_off_c, 0, 74, 63
1, 196443, Note_on_c, 0, 69, 73
1, 196509, Note_off_c, 0, 69, 61
1, 196510, Note_on_c, 0, 65, 71
1, 196556, Note_off_c, 0, 65, 48
1, 196588, Note_on_c, 0, 62, 76
1, 196661, Note_off_c, 0, 62, 61
1, 196735, Note_on_c, 0, 57, 81
1, 196836, Control_c, 0, 64, 102
1, 196851, Control_c, 0, 64, 87
1, 196866, Control_c, 0, 64, 75
1, 196881, Control_c, 0, 64, 68
1, 196896, Control_c, 0, 64, 64
1, 196911, Control_c, 0, 64, 60
1, 196926, Control_c, 0, 64, 56
1, 196941, Control_c, 0, 64, 52
1, 196955, Control_c, 0, 64, 49
1, 196970, Control_c, 0, 64, 46
1, 196985, Control_c, 0, 64, 44
1, 197000, Control_c, 0, 64, 43
1, 197015, Control_c, 0, 64, 42
1, 197045, Control_c, 0, 64, 41
1, 197060, Control_c, 0, 64, 41
1, 197075, Control_c, 0, 64, 40
1, 197090, Control_c, 0, 64, 40
1, 197134, Control_c, 0, 64, 39
1, 197252, Control_c, 0, 64, 39
1, 197355, Control_c, 0, 64, 38
1, 197415, Control_c, 0, 64, 38
1, 197793, Control_c, 0, 64, 37
1, 197841, Note_on_c, 0, 56, 40
1, 197883, Control_c, 0, 64, 37
1, 197906, Note_off_c, 0, 57, 49
1, 198199, Note_off_c, 0, 56, 43
1, 198216, Control_c, 0, 64, 36
1, 198290, Control_c, 0, 64, 36
1, 198303, Note_on_c, 0, 59, 53
1, 198380, Control_c, 0, 64, 35
1, 198424, Control_c, 0, 64, 35
1, 198452, Note_on_c, 0, 60, 66
1, 198472, Note_off_c, 0, 59, 54
1, 198636, Note_on_c, 0, 62, 64
1, 198663, Note_off_c, 0, 60, 61
1, 198968, Note_on_c, 0, 60, 67
1, 198974, Note_off_c, 0, 62, 59
1, 199115, Note_on_c, 0, 59, 69
1, 199145, Note_off_c, 0, 60, 64
1, 199307, Note_on_c, 0, 60, 61
1, 199328, Note_off_c, 0, 59, 58
1, 199638, Note_off_c, 0, 60, 37
1, 199676, Note_on_c, 0, 57, 56
1, 200011, Control_c, 0, 64, 34
1, 200038, Note_on_c, 0, 58, 43
1, 200050, Note_on_c, 0, 62, 66
1, 200090, Note_off_c, 0, 57, 34
1, 200115, Control_c, 0, 64, 34
1, 200203, Control_c, 0, 64, 33
1, 200218, Control_c, 0, 64, 33
1, 200307, Control_c, 0, 64, 32
1, 200401, Note_off_c, 0, 58, 55
1, 200407, Note_on_c, 0, 56, 48
1, 200507, Control_c, 0, 64, 32
1, 200655, Control_c, 0, 64, 31
1, 200765, Note_on_c, 0, 57, 36
1, 200777, Note_on_c, 0, 61, 54
1, 200846, Note_off_c, 0, 62, 54
1, 200857, Note_off_c, 0, 56, 36
1, 200967, Control_c, 0, 64, 31
1, 201066, Note_off_c, 0, 61, 59
1, 201111, Note_on_c, 0, 64, 63
1, 201124, Note_on_c, 0, 55, 43
1, 201229, Note_off_c, 0, 57, 25
1, 201259, Note_on_c, 0, 65, 77
1, 201283, Note_off_c, 0, 64, 62
1, 201430, Note_on_c, 0, 67, 77
1, 201433, Note_off_c, 0, 65, 59
1, 201445, Note_on_c, 0, 52, 46
1, 201490, Note_off_c, 0, 55, 53
1, 201764, Note_off_c, 0, 67, 57
1, 201780, Note_on_c, 0, 65, 62
1, 201785, Note_on_c, 0, 49, 36
1, 201842, Note_off_c, 0, 52, 45
1, 201931, Note_off_c, 0, 65, 61
1, 201937, Note_on_c, 0, 64, 66
1, 202111, Note_off_c, 0, 64, 57
1, 202120, Note_on_c, 0, 65, 52
1, 202138, Control_c, 0, 64, 31
1, 202139, Note_on_c, 0, 50, 33
1, 202182, Control_c, 0, 64, 32
1, 202197, Control_c, 0, 64, 32
1, 202206, Note_off_c, 0, 49, 36
1, 202212, Control_c, 0, 64, 33
1, 202226, Control_c, 0, 64, 34
1, 202241, Control_c, 0, 64, 34
1, 202256, Control_c, 0, 64, 35
1, 202271, Control_c, 0, 64, 35
1, 202286, Control_c, 0, 64, 36
1, 202300, Control_c, 0, 64, 37
1, 202315, Control_c, 0, 64, 38
1, 202330, Control_c, 0, 64, 39
1, 202345, Control_c, 0, 64, 40
1, 202360, Control_c, 0, 64, 41
1, 202376, Control_c, 0, 64, 41
1, 202390, Control_c, 0, 64, 42
1, 202405, Control_c, 0, 64, 43
1, 202420, Control_c, 0, 64, 45
1, 202435, Control_c, 0, 64, 46
1, 202449, Control_c, 0, 64, 48
1, 202464, Control_c, 0, 64, 50
1, 202467, Note_on_c, 0, 62, 51
1, 202479, Control_c, 0, 64, 52
1, 202494, Control_c, 0, 64, 53
1, 202509, Control_c, 0, 64, 54
1, 202524, Control_c, 0, 64, 55
1, 202539, Control_c, 0, 64, 57
1, 202554, Control_c, 0, 64, 59
1, 202568, Control_c, 0, 64, 60
1, 202581, Note_off_c, 0, 65, 53
1, 202583, Control_c, 0, 64, 62
1, 202598, Control_c, 0, 64, 63
1, 202613, Control_c, 0, 64, 64
1, 202628, Control_c, 0, 64, 66
1, 202642, Control_c, 0, 64, 68
1, 202657, Control_c, 0, 64, 70
1, 202679, Control_c, 0, 64, 73
1, 202694, Control_c, 0, 64, 77
1, 202709, Control_c, 0, 64, 80
1, 202724, Control_c, 0, 64, 84
1, 202739, Control_c, 0, 64, 87
1, 202753, Control_c, 0, 64, 91
1, 202768, Control_c, 0, 64, 93
1, 202856, Note_on_c, 0, 67, 76
1, 202863, Note_on_c, 0, 63, 61
1, 202887, Control_c, 0, 64, 93
1, 202889, Note_off_c, 0, 62, 54
1, 202902, Control_c, 0, 64, 92
1, 202931, Control_c, 0, 64, 92
1, 202946, Control_c, 0, 64, 91
1, 202961, Control_c, 0, 64, 90
1, 202975, Control_c, 0, 64, 90
1, 202990, Control_c, 0, 64, 89
1, 203005, Control_c, 0, 64, 88
1, 203020, Control_c, 0, 64, 87
1, 203035, Control_c, 0, 64, 86
1, 203049, Control_c, 0, 64, 85
1, 203064, Control_c, 0, 64, 84
1, 203079, Control_c, 0, 64, 82
1, 203094, Control_c, 0, 64, 80
1, 203109, Control_c, 0, 64, 79
1, 203123, Control_c, 0, 64, 78
1, 203138, Control_c, 0, 64, 77
1, 203153, Control_c, 0, 64, 77
1, 203169, Control_c, 0, 64, 75
1, 203179, Note_on_c, 0, 51, 52
1, 203184, Control_c, 0, 64, 74
1, 203186, Note_on_c, 0, 61, 68
1, 203198, Control_c, 0, 64, 72
1, 203213, Control_c, 0, 64, 72
1, 203216, Note_off_c, 0, 50, 40
1, 203228, Note_off_c, 0, 63, 34
1, 203228, Control_c, 0, 64, 71
1, 203243, Control_c, 0, 64, 70
1, 203258, Control_c, 0, 64, 69
1, 203272, Control_c, 0, 64, 68
1, 203287, Control_c, 0, 64, 67
1, 203302, Control_c, 0, 64, 66
1, 203317, Control_c, 0, 64, 65
1, 203332, Control_c, 0, 64, 64
1, 203347, Control_c, 0, 64, 62
1, 203362, Control_c, 0, 64, 59
1, 203376, Control_c, 0, 64, 56
1, 203391, Control_c, 0, 64, 54
1, 203406, Control_c, 0, 64, 52
1, 203428, Control_c, 0, 64, 50
1, 203443, Control_c, 0, 64, 48
1, 203458, Control_c, 0, 64, 48
1, 203502, Note_off_c, 0, 51, 53
1, 203502, Control_c, 0, 64, 49
1, 203509, Note_on_c, 0, 50, 46
1, 203517, Control_c, 0, 64, 52
1, 203520, Note_off_c, 0, 67, 35
1, 203529, Note_on_c, 0, 66, 69
1, 203532, Control_c, 0, 64, 55
1, 203534, Note_off_c, 0, 61, 60
1, 203537, Note_on_c, 0, 62, 57
1, 203547, Control_c, 0, 64, 59
1, 203561, Control_c, 0, 64, 61
1, 203576, Control_c, 0, 64, 63
1, 203591, Control_c, 0, 64, 65
1, 203606, Control_c, 0, 64, 67
1, 203618, Note_off_c, 0, 62, 61
1, 203621, Control_c, 0, 64, 70
1, 203636, Control_c, 0, 64, 73
1, 203651, Control_c, 0, 64, 76
1, 203656, Note_off_c, 0, 66, 62
1, 203665, Control_c, 0, 64, 77
1, 203680, Control_c, 0, 64, 79
1, 203695, Control_c, 0, 64, 80
1, 203710, Control_c, 0, 64, 81
1, 203839, Note_on_c, 0, 69, 83
1, 203846, Note_on_c, 0, 63, 66
1, 203847, Note_on_c, 0, 55, 53
1, 203858, Control_c, 0, 64, 81
1, 203917, Control_c, 0, 64, 82
1, 203946, Note_off_c, 0, 63, 56
1, 203990, Note_on_c, 0, 70, 87
1, 204006, Control_c, 0, 64, 82
1, 204050, Note_off_c, 0, 69, 48
1, 204066, Control_c, 0, 64, 83
1, 204080, Control_c, 0, 64, 83
1, 204125, Control_c, 0, 64, 84
1, 204128, Note_off_c, 0, 55, 35
1, 204190, Note_on_c, 0, 54, 55
1, 204192, Control_c, 0, 64, 83
1, 204196, Note_off_c, 0, 50, 6
1, 204208, Note_on_c, 0, 72, 87
1, 204220, Note_on_c, 0, 62, 66
1, 204221, Control_c, 0, 64, 82
1, 204236, Control_c, 0, 64, 80
1, 204250, Note_off_c, 0, 70, 35
1, 204251, Control_c, 0, 64, 74
1, 204266, Control_c, 0, 64, 64
1, 204281, Control_c, 0, 64, 53
1, 204295, Control_c, 0, 64, 44
1, 204310, Control_c, 0, 64, 43
1, 204340, Control_c, 0, 64, 48
1, 204355, Control_c, 0, 64, 57
1, 204369, Control_c, 0, 64, 63
1, 204384, Control_c, 0, 64, 68
1, 204399, Note_off_c, 0, 62, 53
1, 204399, Control_c, 0, 64, 75
1, 204414, Control_c, 0, 64, 84
1, 204420, Note_off_c, 0, 54, 63
1, 204429, Control_c, 0, 64, 91
1, 204444, Control_c, 0, 64, 96
1, 204458, Control_c, 0, 64, 99
1, 204473, Control_c, 0, 64, 100
1, 204488, Note_off_c, 0, 72, 56
1, 204562, Note_on_c, 0, 70, 80
1, 204564, Note_on_c, 0, 62, 64
1, 204565, Note_on_c, 0, 66, 66
1, 204607, Control_c, 0, 64, 100
1, 204670, Note_off_c, 0, 66, 58
1, 204670, Note_off_c, 0, 70, 61
1, 204706, Note_on_c, 0, 69, 87
1, 204780, Note_off_c, 0, 62, 42
1, 204844, Control_c, 0, 64, 100
1, 204874, Control_c, 0, 64, 99
1, 204875, Note_off_c, 0, 69, 56
1, 204889, Control_c, 0, 64, 98
1, 204911, Control_c, 0, 64, 95
1, 204926, Control_c, 0, 64, 89
1, 204941, Control_c, 0, 64, 78
1, 204956, Control_c, 0, 64, 66
1, 204960, Note_on_c, 0, 70, 68
1, 204962, Note_on_c, 0, 67, 58
1, 204970, Control_c, 0, 64, 52
1, 204985, Control_c, 0, 64, 44
1, 205000, Control_c, 0, 64, 43
1, 205030, Control_c, 0, 64, 46
1, 205044, Control_c, 0, 64, 55
1, 205059, Control_c, 0, 64, 62
1, 205074, Control_c, 0, 64, 66
1, 205077, Note_off_c, 0, 67, 62
1, 205089, Control_c, 0, 64, 70
1, 205099, Note_off_c, 0, 70, 64
1, 205104, Control_c, 0, 64, 75
1, 205118, Control_c, 0, 64, 81
1, 205133, Control_c, 0, 64, 85
1, 205148, Control_c, 0, 64, 89
1, 205163, Control_c, 0, 64, 91
1, 205178, Control_c, 0, 64, 92
1, 205266, Control_c, 0, 64, 91
1, 205281, Control_c, 0, 64, 91
1, 205296, Control_c, 0, 64, 90
1, 205310, Control_c, 0, 64, 89
1, 205325, Control_c, 0, 64, 87
1, 205340, Control_c, 0, 64, 85
1, 205355, Control_c, 0, 64, 82
1, 205369, Control_c, 0, 64, 76
1, 205382, Note_on_c, 0, 67, 44
1, 205384, Note_on_c, 0, 58, 42
1, 205384, Control_c, 0, 64, 70
1, 205387, Note_on_c, 0, 62, 36
1, 205399, Control_c, 0, 64, 63
1, 205414, Control_c, 0, 64, 57
1, 205429, Control_c, 0, 64, 54
1, 205443, Control_c, 0, 64, 54
1, 205473, Control_c, 0, 64, 56
1, 205488, Control_c, 0, 64, 58
1, 205503, Control_c, 0, 64, 62
1, 205517, Control_c, 0, 64, 65
1, 205532, Control_c, 0, 64, 68
1, 205547, Control_c, 0, 64, 72
1, 205563, Control_c, 0, 64, 76
1, 205578, Control_c, 0, 64, 80
1, 205593, Control_c, 0, 64, 84
1, 205607, Control_c, 0, 64, 87
1, 205613, Note_off_c, 0, 62, 41
1, 205622, Control_c, 0, 64, 92
1, 205637, Control_c, 0, 64, 98
1, 205643, Note_off_c, 0, 67, 32
1, 205659, Control_c, 0, 64, 102
1, 205674, Control_c, 0, 64, 104
1, 205680, Note_off_c, 0, 58, 25
1, 205763, Control_c, 0, 64, 102
1, 205778, Control_c, 0, 64, 100
1, 205792, Control_c, 0, 64, 93
1, 205796, Note_on_c, 0, 59, 44
1, 205806, Note_on_c, 0, 65, 40
1, 205807, Note_on_c, 0, 68, 48
1, 205807, Control_c, 0, 64, 83
1, 205815, Note_on_c, 0, 38, 30
1, 205822, Control_c, 0, 64, 72
1, 205824, Note_on_c, 0, 50, 31
1, 205837, Control_c, 0, 64, 64
1, 205852, Control_c, 0, 64, 61
1, 205866, Control_c, 0, 64, 62
1, 205881, Control_c, 0, 64, 64
1, 205896, Control_c, 0, 64, 65
1, 205911, Control_c, 0, 64, 68
1, 205916, Note_off_c, 0, 65, 57
1, 205926, Control_c, 0, 64, 72
1, 205937, Note_off_c, 0, 68, 57
1, 205940, Control_c, 0, 64, 78
1, 205948, Note_off_c, 0, 59, 33
1, 205955, Control_c, 0, 64, 82
1, 205970, Control_c, 0, 64, 86
1, 205985, Control_c, 0, 64, 88
1, 206000, Control_c, 0, 64, 90
1, 206015, Control_c, 0, 64, 92
1, 206029, Control_c, 0, 64, 93
1, 206044, Control_c, 0, 64, 93
1, 206059, Control_c, 0, 64, 94
1, 206141, Note_off_c, 0, 38, 33
1, 206152, Note_on_c, 0, 59, 46
1, 206155, Note_on_c, 0, 65, 47
1, 206167, Note_on_c, 0, 53, 47
1, 206225, Note_off_c, 0, 59, 51
1, 206229, Note_off_c, 0, 53, 52
1, 206302, Note_off_c, 0, 50, 39
1, 206313, Note_off_c, 0, 65, 38
1, 206386, Control_c, 0, 64, 93
1, 206423, Control_c, 0, 64, 93
1, 206468, Control_c, 0, 64, 92
1, 206483, Control_c, 0, 64, 91
1, 206497, Control_c, 0, 64, 88
1, 206500, Note_on_c, 0, 64, 48
1, 206502, Note_on_c, 0, 60, 40
1, 206509, Note_on_c, 0, 36, 36
1, 206509, Note_on_c, 0, 55, 38
1, 206512, Control_c, 0, 64, 82
1, 206527, Control_c, 0, 64, 73
1, 206542, Control_c, 0, 64, 63
1, 206557, Control_c, 0, 64, 58
1, 206571, Control_c, 0, 64, 56
1, 206601, Control_c, 0, 64, 58
1, 206615, Control_c, 0, 64, 60
1, 206630, Control_c, 0, 64, 63
1, 206645, Control_c, 0, 64, 66
1, 206660, Control_c, 0, 64, 69
1, 206675, Control_c, 0, 64, 73
1, 206689, Control_c, 0, 64, 77
1, 206696, Note_off_c, 0, 55, 36
1, 206704, Control_c, 0, 64, 80
1, 206719, Control_c, 0, 64, 82
1, 206727, Note_off_c, 0, 64, 36
1, 206734, Control_c, 0, 64, 83
1, 206740, Note_off_c, 0, 60, 37
1, 206749, Control_c, 0, 64, 84
1, 206763, Control_c, 0, 64, 84
1, 206767, Note_off_c, 0, 36, 28
1, 206831, Note_on_c, 0, 67, 57
1, 206839, Note_on_c, 0, 55, 41
1, 206857, Note_on_c, 0, 40, 37
1, 206876, Note_off_c, 0, 67, 56
1, 206954, Poly_aftertouch_c, 0, 48, 127
1, 206970, Control_c, 0, 64, 84
1, 206974, Note_off_c, 0, 40, 35
1, 206981, Note_on_c, 0, 57, 59
1, 206996, Note_on_c, 0, 41, 46
1, 207044, Control_c, 0, 64, 83
1, 207088, Control_c, 0, 64, 83
1, 207103, Control_c, 0, 64, 82
1, 207118, Control_c, 0, 64, 82
1, 207132, Control_c, 0, 64, 81
1, 207147, Control_c, 0, 64, 80
1, 207171, Control_c, 0, 64, 78
1, 207186, Control_c, 0, 64, 76
1, 207193, Note_on_c, 0, 60, 55
1, 207201, Control_c, 0, 64, 74
1, 207201, Note_on_c, 0, 43, 43
1, 207209, Note_on_c, 0, 58, 32
1, 207214, Note_off_c, 0, 41, 41
1, 207216, Control_c, 0, 64, 70
1, 207223, Note_off_c, 0, 57, 26
1, 207231, Control_c, 0, 64, 65
1, 207245, Control_c, 0, 64, 60
1, 207260, Control_c, 0, 64, 56
1, 207275, Control_c, 0, 64, 55
1, 207290, Control_c, 0, 64, 53
1, 207305, Control_c, 0, 64, 53
1, 207319, Control_c, 0, 64, 54
1, 207334, Control_c, 0, 64, 56
1, 207349, Control_c, 0, 64, 59
1, 207364, Control_c, 0, 64, 62
1, 207379, Control_c, 0, 64, 64
1, 207393, Control_c, 0, 64, 66
1, 207408, Control_c, 0, 64, 69
1, 207423, Control_c, 0, 64, 72
1, 207437, Control_c, 0, 64, 75
1, 207452, Control_c, 0, 64, 76
1, 207463, Note_off_c, 0, 55, 35
1, 207467, Control_c, 0, 64, 78
1, 207482, Control_c, 0, 64, 78
1, 207524, Note_off_c, 0, 43, 34
1, 207549, Note_on_c, 0, 41, 36
1, 207553, Note_on_c, 0, 57, 44
1, 207651, Note_off_c, 0, 58, 34
1, 207675, Control_c, 0, 64, 78
1, 207712, Note_off_c, 0, 57, 35
1, 207723, Note_off_c, 0, 41, 35
1, 207723, Note_on_c, 0, 55, 44
1, 207732, Note_on_c, 0, 40, 39
1, 207749, Control_c, 0, 64, 77
1, 207808, Control_c, 0, 64, 77
1, 207823, Control_c, 0, 64, 76
1, 207837, Control_c, 0, 64, 76
1, 207852, Control_c, 0, 64, 75
1, 207867, Control_c, 0, 64, 74
1, 207882, Control_c, 0, 64, 72
1, 207897, Control_c, 0, 64, 69
1, 207919, Control_c, 0, 64, 64
1, 207934, Control_c, 0, 64, 59
1, 207943, Poly_aftertouch_c, 0, 48, 0
1, 207949, Control_c, 0, 64, 57
1, 207964, Control_c, 0, 64, 57
1, 207983, Note_on_c, 0, 41, 33
1, 207986, Note_off_c, 0, 40, 43
1, 207993, Note_on_c, 0, 57, 36
1, 208009, Control_c, 0, 64, 58
1, 208024, Control_c, 0, 64, 60
1, 208039, Control_c, 0, 64, 63
1, 208044, Note_off_c, 0, 55, 27
1, 208053, Control_c, 0, 64, 65
1, 208065, Note_off_c, 0, 60, 44
1, 208068, Control_c, 0, 64, 68
1, 208083, Control_c, 0, 64, 72
1, 208098, Control_c, 0, 64, 76
1, 208113, Control_c, 0, 64, 80
1, 208125, Note_off_c, 0, 57, 64
1, 208128, Control_c, 0, 64, 83
1, 208142, Control_c, 0, 64, 85
1, 208157, Control_c, 0, 64, 86
1, 208172, Control_c, 0, 64, 87
1, 208291, Control_c, 0, 64, 87
1, 208335, Note_off_c, 0, 41, 40
1, 208335, Control_c, 0, 64, 86
1, 208364, Note_on_c, 0, 65, 63
1, 208375, Note_on_c, 0, 60, 49
1, 208387, Note_on_c, 0, 45, 36
1, 208395, Control_c, 0, 64, 86
1, 208402, Note_on_c, 0, 48, 36
1, 208409, Control_c, 0, 64, 84
1, 208424, Control_c, 0, 64, 83
1, 208439, Control_c, 0, 64, 79
1, 208453, Control_c, 0, 64, 74
1, 208468, Control_c, 0, 64, 67
1, 208483, Control_c, 0, 64, 62
1, 208498, Control_c, 0, 64, 58
1, 208513, Control_c, 0, 64, 59
1, 208527, Control_c, 0, 64, 60
1, 208542, Control_c, 0, 64, 62
1, 208557, Control_c, 0, 64, 64
1, 208572, Control_c, 0, 64, 66
1, 208584, Note_off_c, 0, 60, 59
1, 208587, Control_c, 0, 64, 70
1, 208602, Control_c, 0, 64, 72
1, 208617, Control_c, 0, 64, 74
1, 208632, Control_c, 0, 64, 75
1, 208647, Control_c, 0, 64, 75
1, 208668, Control_c, 0, 64, 76
1, 208683, Control_c, 0, 64, 77
1, 208691, Note_off_c, 0, 65, 60
1, 208710, Note_on_c, 0, 64, 65
1, 208721, Note_on_c, 0, 58, 59
1, 208728, Control_c, 0, 64, 76
1, 208732, Note_on_c, 0, 43, 44
1, 208742, Control_c, 0, 64, 74
1, 208758, Control_c, 0, 64, 69
1, 208766, Note_off_c, 0, 45, 37
1, 208773, Control_c, 0, 64, 63
1, 208788, Control_c, 0, 64, 61
1, 208803, Control_c, 0, 64, 63
1, 208818, Control_c, 0, 64, 64
1, 208832, Control_c, 0, 64, 66
1, 208847, Control_c, 0, 64, 69
1, 208862, Control_c, 0, 64, 74
1, 208877, Control_c, 0, 64, 78
1, 208885, Note_off_c, 0, 58, 58
1, 208891, Control_c, 0, 64, 80
1, 208906, Control_c, 0, 64, 80
1, 209010, Control_c, 0, 64, 80
1, 209025, Control_c, 0, 64, 78
1, 209029, Note_off_c, 0, 64, 30
1, 209040, Control_c, 0, 64, 74
1, 209044, Note_on_c, 0, 65, 56
1, 209053, Note_on_c, 0, 41, 44
1, 209055, Control_c, 0, 64, 66
1, 209057, Note_off_c, 0, 43, 35
1, 209067, Note_on_c, 0, 57, 36
1, 209070, Control_c, 0, 64, 61
1, 209084, Control_c, 0, 64, 60
1, 209099, Control_c, 0, 64, 62
1, 209114, Control_c, 0, 64, 63
1, 209129, Control_c, 0, 64, 65
1, 209144, Control_c, 0, 64, 68
1, 209158, Control_c, 0, 64, 71
1, 209173, Control_c, 0, 64, 74
1, 209188, Control_c, 0, 64, 76
1, 209202, Control_c, 0, 64, 78
1, 209217, Control_c, 0, 64, 79
1, 209232, Note_off_c, 0, 57, 36
1, 209232, Control_c, 0, 64, 79
1, 209330, Note_off_c, 0, 65, 25
1, 209365, Control_c, 0, 64, 79
1, 209373, Note_off_c, 0, 41, 38
1, 209380, Control_c, 0, 64, 78
1, 209395, Control_c, 0, 64, 78
1, 209417, Control_c, 0, 64, 76
1, 209420, Note_on_c, 0, 40, 21
1, 209431, Note_on_c, 0, 67, 46
1, 209432, Control_c, 0, 64, 73
1, 209437, Note_on_c, 0, 55, 44
1, 209447, Control_c, 0, 64, 67
1, 209462, Control_c, 0, 64, 61
1, 209477, Control_c, 0, 64, 57
1, 209491, Control_c, 0, 64, 56
1, 209506, Control_c, 0, 64, 57
1, 209521, Control_c, 0, 64, 58
1, 209536, Control_c, 0, 64, 61
1, 209551, Control_c, 0, 64, 64
1, 209567, Control_c, 0, 64, 66
1, 209581, Control_c, 0, 64, 70
1, 209596, Control_c, 0, 64, 73
1, 209611, Control_c, 0, 64, 76
1, 209613, Note_off_c, 0, 67, 38
1, 209625, Control_c, 0, 64, 78
1, 209640, Control_c, 0, 64, 79
1, 209642, Note_off_c, 0, 55, 35
1, 209655, Control_c, 0, 64, 80
1, 209670, Control_c, 0, 64, 81
1, 209685, Control_c, 0, 64, 82
1, 209774, Note_on_c, 0, 55, 41
1, 209784, Note_off_c, 0, 48, 31
1, 209833, Control_c, 0, 64, 82
1, 209953, Note_on_c, 0, 57, 45
1, 209963, Note_off_c, 0, 55, 44
1, 210139, Note_on_c, 0, 39, 52
1, 210166, Note_on_c, 0, 61, 53
1, 210173, Note_off_c, 0, 40, 32
1, 210179, Note_on_c, 0, 58, 42
1, 210202, Note_on_c, 0, 55, 30
1, 210211, Control_c, 0, 64, 82
1, 210216, Note_off_c, 0, 57, 38
1, 210226, Control_c, 0, 64, 81
1, 210240, Control_c, 0, 64, 79
1, 210255, Control_c, 0, 64, 75
1, 210270, Control_c, 0, 64, 68
1, 210285, Control_c, 0, 64, 63
1, 210300, Control_c, 0, 64, 60
1, 210314, Control_c, 0, 64, 60
1, 210360, Control_c, 0, 64, 61
1, 210375, Control_c, 0, 64, 62
1, 210390, Control_c, 0, 64, 63
1, 210397, Note_off_c, 0, 55, 36
1, 210404, Control_c, 0, 64, 65
1, 210419, Control_c, 0, 64, 67
1, 210434, Control_c, 0, 64, 69
1, 210449, Control_c, 0, 64, 72
1, 210463, Control_c, 0, 64, 74
1, 210478, Control_c, 0, 64, 76
1, 210493, Control_c, 0, 64, 78
1, 210508, Control_c, 0, 64, 80
1, 210523, Control_c, 0, 64, 82
1, 210531, Note_on_c, 0, 57, 39
1, 210537, Control_c, 0, 64, 84
1, 210552, Control_c, 0, 64, 86
1, 210567, Control_c, 0, 64, 87
1, 210605, Note_off_c, 0, 58, 19
1, 210687, Note_off_c, 0, 39, 38
1, 210704, Note_off_c, 0, 57, 37
1, 210711, Note_on_c, 0, 55, 45
1, 210711, Note_off_c, 0, 61, 55
1, 210878, Control_c, 0, 64, 87
1, 210893, Control_c, 0, 64, 86
1, 210915, Control_c, 0, 64, 83
1, 210929, Note_on_c, 0, 38, 33
1, 210930, Control_c, 0, 64, 78
1, 210945, Note_on_c, 0, 62, 42
1, 210945, Control_c, 0, 64, 69
1, 210948, Note_on_c, 0, 58, 34
1, 210960, Control_c, 0, 64, 62
1, 210966, Note_off_c, 0, 55, 32
1, 210975, Control_c, 0, 64, 59
1, 210990, Control_c, 0, 64, 61
1, 211004, Control_c, 0, 64, 63
1, 211019, Control_c, 0, 64, 65
1, 211034, Control_c, 0, 64, 68
1, 211049, Control_c, 0, 64, 72
1, 211060, Note_off_c, 0, 58, 62
1, 211063, Control_c, 0, 64, 76
1, 211077, Note_off_c, 0, 62, 63
1, 211078, Control_c, 0, 64, 79
1, 211093, Control_c, 0, 64, 79
1, 211103, Note_off_c, 0, 38, 40
1, 211108, Control_c, 0, 64, 80
1, 211123, Control_c, 0, 64, 81
1, 211137, Control_c, 0, 64, 82
1, 211315, Note_on_c, 0, 67, 58
1, 211326, Note_on_c, 0, 62, 53
1, 211342, Note_on_c, 0, 50, 38
1, 211368, Note_on_c, 0, 46, 34
1, 211374, Control_c, 0, 64, 81
1, 211426, Note_off_c, 0, 62, 51
1, 211509, Note_off_c, 0, 46, 34
1, 211626, Control_c, 0, 64, 81
1, 211641, Control_c, 0, 64, 79
1, 211661, Note_on_c, 0, 66, 65
1, 211663, Control_c, 0, 64, 74
1, 211664, Note_on_c, 0, 45, 53
1, 211669, Note_on_c, 0, 60, 52
1, 211678, Note_off_c, 0, 67, 46
1, 211678, Control_c, 0, 64, 67
1, 211693, Control_c, 0, 64, 62
1, 211708, Control_c, 0, 64, 61
1, 211723, Control_c, 0, 64, 63
1, 211738, Control_c, 0, 64, 64
1, 211752, Control_c, 0, 64, 66
1, 211767, Control_c, 0, 64, 69
1, 211768, Note_off_c, 0, 60, 62
1, 211782, Control_c, 0, 64, 73
1, 211797, Control_c, 0, 64, 77
1, 211811, Control_c, 0, 64, 80
1, 211826, Control_c, 0, 64, 82
1, 211841, Control_c, 0, 64, 83
1, 211856, Control_c, 0, 64, 84
1, 211903, Note_off_c, 0, 66, 61
1, 211990, Control_c, 0, 64, 83
1, 212005, Control_c, 0, 64, 80
1, 212012, Note_on_c, 0, 67, 79
1, 212012, Note_on_c, 0, 58, 68
1, 212014, Note_on_c, 0, 43, 52
1, 212021, Control_c, 0, 64, 74
1, 212025, Note_off_c, 0, 45, 35
1, 212036, Control_c, 0, 64, 66
1, 212050, Control_c, 0, 64, 61
1, 212065, Control_c, 0, 64, 60
1, 212080, Control_c, 0, 64, 62
1, 212095, Control_c, 0, 64, 63
1, 212109, Control_c, 0, 64, 65
1, 212124, Control_c, 0, 64, 69
1, 212139, Control_c, 0, 64, 74
1, 212154, Control_c, 0, 64, 79
1, 212169, Control_c, 0, 64, 82
1, 212183, Control_c, 0, 64, 83
1, 212198, Control_c, 0, 64, 85
1, 212211, Note_off_c, 0, 58, 60
1, 212213, Control_c, 0, 64, 85
1, 212221, Note_off_c, 0, 67, 50
1, 212257, Control_c, 0, 64, 86
1, 212361, Control_c, 0, 64, 85
1, 212366, Note_on_c, 0, 42, 58
1, 212373, Note_off_c, 0, 43, 51
1, 212376, Control_c, 0, 64, 84
1, 212381, Note_on_c, 0, 69, 81
1, 212391, Control_c, 0, 64, 81
1, 212391, Note_on_c, 0, 57, 70
1, 212413, Control_c, 0, 64, 73
1, 212427, Control_c, 0, 64, 65
1, 212442, Control_c, 0, 64, 59
1, 212457, Control_c, 0, 64, 56
1, 212487, Control_c, 0, 64, 56
1, 212501, Control_c, 0, 64, 58
1, 212516, Control_c, 0, 64, 62
1, 212531, Control_c, 0, 64, 65
1, 212546, Control_c, 0, 64, 68
1, 212553, Note_off_c, 0, 69, 61
1, 212561, Control_c, 0, 64, 72
1, 212576, Control_c, 0, 64, 75
1, 212581, Note_off_c, 0, 57, 62
1, 212590, Control_c, 0, 64, 79
1, 212605, Control_c, 0, 64, 81
1, 212620, Control_c, 0, 64, 82
1, 212635, Control_c, 0, 64, 84
1, 212650, Control_c, 0, 64, 84
1, 212665, Control_c, 0, 64, 85
1, 212709, Control_c, 0, 64, 85
1, 212756, Note_on_c, 0, 57, 64
1, 212895, Note_off_c, 0, 57, 52
1, 212903, Note_on_c, 0, 59, 66
1, 213060, Note_off_c, 0, 59, 50
1, 213095, Control_c, 0, 64, 85
1, 213104, Note_on_c, 0, 41, 61
1, 213113, Note_on_c, 0, 63, 66
1, 213121, Note_on_c, 0, 60, 56
1, 213121, Note_on_c, 0, 57, 54
1, 213124, Control_c, 0, 64, 84
1, 213127, Note_off_c, 0, 42, 37
1, 213135, Note_off_c, 0, 50, 33
1, 213139, Control_c, 0, 64, 83
1, 213162, Control_c, 0, 64, 80
1, 213177, Control_c, 0, 64, 74
1, 213192, Control_c, 0, 64, 67
1, 213206, Control_c, 0, 64, 61
1, 213221, Control_c, 0, 64, 57
1, 213236, Control_c, 0, 64, 57
1, 213265, Control_c, 0, 64, 57
1, 213280, Control_c, 0, 64, 59
1, 213295, Control_c, 0, 64, 61
1, 213310, Control_c, 0, 64, 63
1, 213324, Control_c, 0, 64, 65
1, 213339, Control_c, 0, 64, 67
1, 213354, Control_c, 0, 64, 69
1, 213369, Control_c, 0, 64, 71
1, 213375, Note_off_c, 0, 57, 33
1, 213384, Control_c, 0, 64, 73
1, 213398, Control_c, 0, 64, 75
1, 213413, Control_c, 0, 64, 77
1, 213428, Control_c, 0, 64, 79
1, 213443, Control_c, 0, 64, 81
1, 213458, Control_c, 0, 64, 82
1, 213461, Note_on_c, 0, 59, 41
1, 213473, Control_c, 0, 64, 83
1, 213482, Note_off_c, 0, 60, 25
1, 213615, Note_off_c, 0, 63, 33
1, 213617, Note_off_c, 0, 59, 36
1, 213619, Note_on_c, 0, 57, 41
1, 213771, Note_off_c, 0, 57, 26
1, 213785, Control_c, 0, 64, 82
1, 213813, Note_on_c, 0, 40, 37
1, 213815, Control_c, 0, 64, 82
1, 213816, Note_off_c, 0, 41, 34
1, 213829, Control_c, 0, 64, 80
1, 213833, Note_on_c, 0, 64, 51
1, 213834, Note_on_c, 0, 60, 43
1, 213844, Control_c, 0, 64, 76
1, 213859, Control_c, 0, 64, 70
1, 213873, Control_c, 0, 64, 63
1, 213888, Control_c, 0, 64, 57
1, 213941, Control_c, 0, 64, 58
1, 213955, Control_c, 0, 64, 60
1, 213970, Control_c, 0, 64, 63
1, 213985, Control_c, 0, 64, 66
1, 214000, Control_c, 0, 64, 69
1, 214014, Note_off_c, 0, 60, 55
1, 214015, Control_c, 0, 64, 72
1, 214029, Control_c, 0, 64, 74
1, 214044, Control_c, 0, 64, 76
1, 214059, Control_c, 0, 64, 78
1, 214073, Control_c, 0, 64, 80
1, 214080, Note_off_c, 0, 64, 50
1, 214088, Control_c, 0, 64, 82
1, 214103, Control_c, 0, 64, 82
1, 214147, Control_c, 0, 64, 83
1, 214177, Control_c, 0, 64, 83
1, 214260, Note_on_c, 0, 60, 41
1, 214337, Note_off_c, 0, 60, 54
1, 214421, Note_on_c, 0, 62, 44
1, 214491, Note_off_c, 0, 62, 48
1, 214608, Control_c, 0, 64, 83
1, 214610, Note_off_c, 0, 40, 39
1, 214617, Note_on_c, 0, 41, 37
1, 214623, Control_c, 0, 64, 82
1, 214638, Control_c, 0, 64, 81
1, 214653, Note_on_c, 0, 69, 54
1, 214659, Control_c, 0, 64, 77
1, 214673, Note_on_c, 0, 63, 32
1, 214674, Control_c, 0, 64, 71
1, 214675, Note_on_c, 0, 65, 41
1, 214689, Control_c, 0, 64, 64
1, 214704, Control_c, 0, 64, 59
1, 214719, Control_c, 0, 64, 57
1, 214763, Control_c, 0, 64, 57
1, 214778, Control_c, 0, 64, 59
1, 214793, Control_c, 0, 64, 62
1, 214808, Control_c, 0, 64, 64
1, 214822, Control_c, 0, 64, 67
1, 214837, Control_c, 0, 64, 70
1, 214852, Control_c, 0, 64, 74
1, 214867, Control_c, 0, 64, 78
1, 214882, Control_c, 0, 64, 81
1, 214896, Control_c, 0, 64, 85
1, 214911, Control_c, 0, 64, 88
1, 214916, Note_off_c, 0, 63, 50
1, 214926, Control_c, 0, 64, 91
1, 214930, Note_off_c, 0, 69, 37
1, 214941, Control_c, 0, 64, 94
1, 214956, Control_c, 0, 64, 97
1, 214970, Control_c, 0, 64, 99
1, 214985, Control_c, 0, 64, 100
1, 214993, Note_off_c, 0, 65, 35
1, 215088, Note_on_c, 0, 62, 40
1, 215208, Note_off_c, 0, 62, 50
1, 215260, Note_on_c, 0, 60, 45
1, 215282, Control_c, 0, 64, 99
1, 215298, Note_off_c, 0, 60, 59
1, 215309, Note_off_c, 0, 41, 38
1, 215326, Control_c, 0, 64, 99
1, 215341, Control_c, 0, 64, 98
1, 215371, Control_c, 0, 64, 98
1, 215407, Control_c, 0, 64, 96
1, 215422, Control_c, 0, 64, 94
1, 215437, Control_c, 0, 64, 90
1, 215452, Control_c, 0, 64, 81
1, 215463, Note_on_c, 0, 53, 44
1, 215467, Control_c, 0, 64, 70
1, 215482, Control_c, 0, 64, 60
1, 215485, Note_on_c, 0, 70, 45
1, 215497, Control_c, 0, 64, 56
1, 215498, Note_on_c, 0, 62, 36
1, 215503, Note_on_c, 0, 65, 46
1, 215512, Control_c, 0, 64, 57
1, 215526, Control_c, 0, 64, 59
1, 215541, Control_c, 0, 64, 61
1, 215556, Control_c, 0, 64, 64
1, 215571, Control_c, 0, 64, 68
1, 215586, Control_c, 0, 64, 73
1, 215600, Control_c, 0, 64, 77
1, 215615, Note_off_c, 0, 62, 57
1, 215615, Control_c, 0, 64, 81
1, 215630, Control_c, 0, 64, 84
1, 215644, Control_c, 0, 64, 86
1, 215659, Control_c, 0, 64, 89
1, 215674, Control_c, 0, 64, 90
1, 215738, Note_off_c, 0, 70, 60
1, 215808, Control_c, 0, 64, 89
1, 215823, Control_c, 0, 64, 89
1, 215852, Control_c, 0, 64, 88
1, 215867, Control_c, 0, 64, 88
1, 215882, Control_c, 0, 64, 87
1, 215912, Control_c, 0, 64, 87
1, 215916, Note_on_c, 0, 72, 58
1, 215942, Control_c, 0, 64, 86
1, 215957, Control_c, 0, 64, 86
1, 215977, Note_on_c, 0, 57, 11
1, 215987, Control_c, 0, 64, 85
1, 216002, Control_c, 0, 64, 85
1, 216016, Control_c, 0, 64, 84
1, 216031, Control_c, 0, 64, 82
1, 216046, Control_c, 0, 64, 81
1, 216061, Control_c, 0, 64, 80
1, 216069, Note_on_c, 0, 58, 56
1, 216072, Note_on_c, 0, 74, 66
1, 216075, Control_c, 0, 64, 79
1, 216085, Note_off_c, 0, 72, 60
1, 216090, Control_c, 0, 64, 79
1, 216094, Note_off_c, 0, 57, 37
1, 216120, Control_c, 0, 64, 78
1, 216135, Control_c, 0, 64, 77
1, 216157, Control_c, 0, 64, 76
1, 216172, Control_c, 0, 64, 76
1, 216187, Control_c, 0, 64, 75
1, 216202, Control_c, 0, 64, 74
1, 216217, Control_c, 0, 64, 74
1, 216231, Control_c, 0, 64, 73
1, 216246, Control_c, 0, 64, 71
1, 216260, Note_on_c, 0, 75, 65
1, 216261, Note_off_c, 0, 58, 59
1, 216261, Control_c, 0, 64, 68
1, 216270, Note_off_c, 0, 74, 57
1, 216275, Control_c, 0, 64, 66
1, 216276, Note_on_c, 0, 60, 47
1, 216290, Control_c, 0, 64, 65
1, 216305, Control_c, 0, 64, 64
1, 216320, Control_c, 0, 64, 62
1, 216335, Control_c, 0, 64, 60
1, 216349, Control_c, 0, 64, 57
1, 216364, Control_c, 0, 64, 56
1, 216379, Control_c, 0, 64, 54
1, 216394, Control_c, 0, 64, 54
1, 216439, Control_c, 0, 64, 54
1, 216454, Control_c, 0, 64, 55
1, 216468, Control_c, 0, 64, 56
1, 216483, Control_c, 0, 64, 57
1, 216498, Control_c, 0, 64, 59
1, 216512, Control_c, 0, 64, 60
1, 216527, Control_c, 0, 64, 61
1, 216541, Control_c, 0, 64, 62
1, 216556, Control_c, 0, 64, 62
1, 216571, Control_c, 0, 64, 63
1, 216579, Note_off_c, 0, 75, 48
1, 216601, Control_c, 0, 64, 64
1, 216603, Note_on_c, 0, 74, 49
1, 216614, Note_on_c, 0, 58, 40
1, 216615, Control_c, 0, 64, 64
1, 216630, Control_c, 0, 64, 65
1, 216644, Note_off_c, 0, 60, 30
1, 216645, Control_c, 0, 64, 66
1, 216660, Control_c, 0, 64, 66
1, 216704, Control_c, 0, 64, 67
1, 216734, Control_c, 0, 64, 67
1, 216768, Note_off_c, 0, 58, 55
1, 216773, Note_on_c, 0, 72, 52
1, 216776, Note_on_c, 0, 57, 41
1, 216785, Note_off_c, 0, 74, 52
1, 216950, Control_c, 0, 64, 67
1, 216954, Note_off_c, 0, 57, 47
1, 216965, Control_c, 0, 64, 66
1, 216979, Control_c, 0, 64, 65
1, 216993, Note_on_c, 0, 62, 35
1, 216993, Note_on_c, 0, 77, 50
1, 216994, Note_off_c, 0, 72, 60
1, 216994, Control_c, 0, 64, 64
1, 217009, Control_c, 0, 64, 61
1, 217024, Control_c, 0, 64, 59
1, 217039, Control_c, 0, 64, 57
1, 217053, Control_c, 0, 64, 56
1, 217068, Control_c, 0, 64, 55
1, 217112, Control_c, 0, 64, 56
1, 217127, Control_c, 0, 64, 57
1, 217142, Control_c, 0, 64, 58
1, 217157, Control_c, 0, 64, 60
1, 217172, Control_c, 0, 64, 62
1, 217187, Control_c, 0, 64, 63
1, 217202, Control_c, 0, 64, 65
1, 217217, Control_c, 0, 64, 66
1, 217232, Control_c, 0, 64, 68
1, 217246, Control_c, 0, 64, 71
1, 217260, Control_c, 0, 64, 73
1, 217275, Control_c, 0, 64, 76
1, 217289, Control_c, 0, 64, 79
1, 217301, Note_off_c, 0, 65, 37
1, 217304, Control_c, 0, 64, 82
1, 217319, Control_c, 0, 64, 86
1, 217334, Control_c, 0, 64, 92
1, 217349, Control_c, 0, 64, 97
1, 217363, Control_c, 0, 64, 102
1, 217367, Note_on_c, 0, 74, 52
1, 217369, Note_off_c, 0, 77, 58
1, 217378, Note_on_c, 0, 70, 43
1, 217378, Control_c, 0, 64, 104
1, 217389, Note_on_c, 0, 58, 40
1, 217408, Control_c, 0, 64, 104
1, 217430, Note_off_c, 0, 53, 40
1, 217438, Control_c, 0, 64, 105
1, 217476, Note_off_c, 0, 62, 37
1, 217668, Control_c, 0, 64, 104
1, 217690, Note_on_c, 0, 53, 28
1, 217698, Control_c, 0, 64, 104
1, 217718, Note_on_c, 0, 75, 65
1, 217719, Note_on_c, 0, 60, 43
1, 217726, Note_on_c, 0, 69, 43
1, 217727, Control_c, 0, 64, 103
1, 217734, Note_off_c, 0, 74, 56
1, 217742, Control_c, 0, 64, 101
1, 217744, Note_off_c, 0, 70, 42
1, 217757, Control_c, 0, 64, 99
1, 217772, Control_c, 0, 64, 94
1, 217787, Control_c, 0, 64, 86
1, 217800, Note_off_c, 0, 58, 32
1, 217801, Control_c, 0, 64, 76
1, 217816, Control_c, 0, 64, 65
1, 217831, Control_c, 0, 64, 59
1, 217846, Control_c, 0, 64, 56
1, 217876, Control_c, 0, 64, 56
1, 217890, Control_c, 0, 64, 57
1, 217905, Control_c, 0, 64, 60
1, 217920, Control_c, 0, 64, 63
1, 217935, Control_c, 0, 64, 65
1, 217950, Control_c, 0, 64, 68
1, 217965, Control_c, 0, 64, 72
1, 217980, Control_c, 0, 64, 75
1, 217994, Control_c, 0, 64, 79
1, 218009, Control_c, 0, 64, 81
1, 218024, Control_c, 0, 64, 84
1, 218038, Control_c, 0, 64, 86
1, 218053, Control_c, 0, 64, 87
1, 218068, Control_c, 0, 64, 88
1, 218072, Note_on_c, 0, 73, 72
1, 218083, Control_c, 0, 64, 88
1, 218089, Note_on_c, 0, 63, 52
1, 218098, Control_c, 0, 64, 89
1, 218099, Note_off_c, 0, 75, 61
1, 218113, Control_c, 0, 64, 90
1, 218127, Control_c, 0, 64, 91
1, 218157, Control_c, 0, 64, 91
1, 218216, Note_off_c, 0, 63, 50
1, 218231, Control_c, 0, 64, 92
1, 218424, Note_off_c, 0, 73, 32
1, 218442, Note_on_c, 0, 58, 41
1, 218451, Note_on_c, 0, 62, 38
1, 218468, Note_on_c, 0, 74, 68
1, 218488, Note_off_c, 0, 60, 35
1, 218491, Control_c, 0, 64, 91
1, 218506, Control_c, 0, 64, 91
1, 218512, Note_off_c, 0, 53, 31
1, 218521, Control_c, 0, 64, 90
1, 218536, Control_c, 0, 64, 88
1, 218550, Control_c, 0, 64, 83
1, 218558, Note_off_c, 0, 69, 38
1, 218565, Control_c, 0, 64, 75
1, 218580, Control_c, 0, 64, 66
1, 218595, Control_c, 0, 64, 60
1, 218610, Control_c, 0, 64, 56
1, 218639, Control_c, 0, 64, 57
1, 218654, Control_c, 0, 64, 59
1, 218668, Control_c, 0, 64, 63
1, 218683, Control_c, 0, 64, 66
1, 218698, Control_c, 0, 64, 69
1, 218713, Control_c, 0, 64, 74
1, 218728, Control_c, 0, 64, 79
1, 218743, Control_c, 0, 64, 82
1, 218758, Control_c, 0, 64, 85
1, 218773, Control_c, 0, 64, 87
1, 218788, Control_c, 0, 64, 89
1, 218803, Control_c, 0, 64, 91
1, 218817, Control_c, 0, 64, 91
1, 218832, Control_c, 0, 64, 92
1, 218844, Note_on_c, 0, 67, 66
1, 218847, Note_on_c, 0, 57, 46
1, 218881, Note_off_c, 0, 62, 31
1, 218916, Note_off_c, 0, 58, 24
1, 218935, Note_off_c, 0, 57, 51
1, 219004, Note_on_c, 0, 69, 72
1, 219007, Note_off_c, 0, 67, 62
1, 219068, Control_c, 0, 64, 92
1, 219181, Control_c, 0, 64, 92
1, 219196, Control_c, 0, 64, 90
1, 219211, Control_c, 0, 64, 85
1, 219219, Note_off_c, 0, 69, 48
1, 219223, Note_on_c, 0, 70, 63
1, 219223, Note_on_c, 0, 55, 43
1, 219224, Note_on_c, 0, 67, 44
1, 219226, Control_c, 0, 64, 74
1, 219240, Control_c, 0, 64, 65
1, 219255, Control_c, 0, 64, 60
1, 219270, Control_c, 0, 64, 62
1, 219285, Control_c, 0, 64, 63
1, 219299, Control_c, 0, 64, 65
1, 219314, Control_c, 0, 64, 68
1, 219329, Control_c, 0, 64, 73
1, 219344, Control_c, 0, 64, 78
1, 219359, Control_c, 0, 64, 81
1, 219367, Note_off_c, 0, 55, 54
1, 219373, Control_c, 0, 64, 84
1, 219378, Note_off_c, 0, 67, 55
1, 219378, Note_off_c, 0, 70, 62
1, 219388, Control_c, 0, 64, 86
1, 219403, Control_c, 0, 64, 89
1, 219418, Control_c, 0, 64, 91
1, 219462, Control_c, 0, 64, 91
1, 219524, Note_off_c, 0, 74, 52
1, 219593, Note_on_c, 0, 73, 68
1, 219599, Note_on_c, 0, 69, 59
1, 219606, Note_on_c, 0, 65, 48
1, 219614, Note_on_c, 0, 57, 42
1, 219685, Control_c, 0, 64, 92
1, 219715, Control_c, 0, 64, 92
1, 219760, Note_off_c, 0, 69, 44
1, 219765, Note_on_c, 0, 67, 73
1, 219768, Note_on_c, 0, 64, 57
1, 219776, Note_off_c, 0, 65, 43
1, 219780, Note_off_c, 0, 73, 59
1, 219789, Note_off_c, 0, 57, 36
1, 219848, Control_c, 0, 64, 93
1, 219900, Control_c, 0, 64, 93
1, 219930, Note_off_c, 0, 67, 57
1, 219934, Note_off_c, 0, 64, 49
1, 219998, Note_on_c, 0, 62, 45
1, 220004, Note_on_c, 0, 58, 40
1, 220005, Note_on_c, 0, 74, 79
1, 220013, Note_on_c, 0, 65, 57
1, 220019, Control_c, 0, 64, 93
1, 220034, Control_c, 0, 64, 91
1, 220049, Control_c, 0, 64, 84
1, 220064, Control_c, 0, 64, 75
1, 220078, Control_c, 0, 64, 66
1, 220093, Control_c, 0, 64, 60
1, 220108, Control_c, 0, 64, 58
1, 220123, Control_c, 0, 64, 59
1, 220138, Control_c, 0, 64, 61
1, 220153, Control_c, 0, 64, 64
1, 220162, Note_off_c, 0, 58, 60
1, 220168, Control_c, 0, 64, 68
1, 220183, Control_c, 0, 64, 75
1, 220197, Control_c, 0, 64, 83
1, 220212, Control_c, 0, 64, 90
1, 220219, Note_off_c, 0, 74, 54
1, 220227, Control_c, 0, 64, 96
1, 220242, Control_c, 0, 64, 101
1, 220257, Control_c, 0, 64, 106
1, 220271, Control_c, 0, 64, 109
1, 220314, Note_off_c, 0, 62, 36
1, 220375, Control_c, 0, 64, 109
1, 220388, Note_on_c, 0, 70, 70
1, 220389, Control_c, 0, 64, 108
1, 220395, Note_on_c, 0, 55, 48
1, 220404, Control_c, 0, 64, 107
1, 220434, Control_c, 0, 64, 107
1, 220463, Control_c, 0, 64, 106
1, 220478, Control_c, 0, 64, 106
1, 220493, Control_c, 0, 64, 105
1, 220508, Control_c, 0, 64, 105
1, 220523, Control_c, 0, 64, 104
1, 220552, Control_c, 0, 64, 103
1, 220558, Note_off_c, 0, 55, 53
1, 220572, Note_on_c, 0, 53, 49
1, 220582, Control_c, 0, 64, 102
1, 220585, Note_off_c, 0, 70, 51
1, 220665, Note_off_c, 0, 65, 38
1, 220678, Control_c, 0, 64, 102
1, 220753, Control_c, 0, 64, 101
1, 220768, Control_c, 0, 64, 100
1, 220778, Note_off_c, 0, 53, 50
1, 220783, Control_c, 0, 64, 98
1, 220798, Control_c, 0, 64, 96
1, 220801, Note_on_c, 0, 67, 49
1, 220804, Note_on_c, 0, 61, 42
1, 220812, Note_on_c, 0, 52, 44
1, 220812, Control_c, 0, 64, 92
1, 220827, Control_c, 0, 64, 86
1, 220842, Control_c, 0, 64, 76
1, 220857, Control_c, 0, 64, 66
1, 220872, Control_c, 0, 64, 60
1, 220887, Control_c, 0, 64, 55
1, 220931, Control_c, 0, 64, 56
1, 220946, Control_c, 0, 64, 57
1, 220961, Control_c, 0, 64, 60
1, 220976, Control_c, 0, 64, 63
1, 220991, Control_c, 0, 64, 65
1, 221005, Control_c, 0, 64, 67
1, 221020, Control_c, 0, 64, 70
1, 221035, Control_c, 0, 64, 73
1, 221050, Control_c, 0, 64, 76
1, 221065, Control_c, 0, 64, 80
1, 221080, Control_c, 0, 64, 82
1, 221094, Control_c, 0, 64, 85
1, 221109, Control_c, 0, 64, 87
1, 221124, Control_c, 0, 64, 89
1, 221138, Control_c, 0, 64, 89
1, 221168, Control_c, 0, 64, 90
1, 221198, Control_c, 0, 64, 91
1, 221212, Control_c, 0, 64, 91
1, 221243, Note_on_c, 0, 70, 49
1, 221260, Note_off_c, 0, 52, 39
1, 221262, Note_on_c, 0, 53, 38
1, 221286, Control_c, 0, 64, 92
1, 221295, Note_off_c, 0, 67, 37
1, 221316, Control_c, 0, 64, 92
1, 221345, Control_c, 0, 64, 93
1, 221360, Note_off_c, 0, 61, 35
1, 221398, Note_off_c, 0, 70, 34
1, 221436, Note_off_c, 0, 53, 30
1, 221472, Note_on_c, 0, 55, 41
1, 221677, Note_off_c, 0, 55, 31
1, 221680, Control_c, 0, 64, 92
1, 221710, Control_c, 0, 64, 91
1, 221716, Note_on_c, 0, 53, 42
1, 221724, Control_c, 0, 64, 90
1, 221736, Note_on_c, 0, 69, 51
1, 221739, Control_c, 0, 64, 87
1, 221745, Note_on_c, 0, 62, 38
1, 221754, Control_c, 0, 64, 80
1, 221768, Control_c, 0, 64, 71
1, 221783, Control_c, 0, 64, 64
1, 221798, Control_c, 0, 64, 61
1, 221813, Control_c, 0, 64, 62
1, 221828, Control_c, 0, 64, 63
1, 221842, Control_c, 0, 64, 65
1, 221857, Control_c, 0, 64, 68
1, 221872, Control_c, 0, 64, 73
1, 221880, Note_off_c, 0, 69, 59
1, 221886, Control_c, 0, 64, 78
1, 221901, Control_c, 0, 64, 82
1, 221916, Control_c, 0, 64, 85
1, 221931, Control_c, 0, 64, 87
1, 221946, Control_c, 0, 64, 90
1, 221960, Control_c, 0, 64, 93
1, 221975, Control_c, 0, 64, 94
1, 221997, Note_off_c, 0, 62, 41
1, 222147, Note_off_c, 0, 53, 39
1, 222175, Control_c, 0, 64, 93
1, 222205, Control_c, 0, 64, 92
1, 222220, Control_c, 0, 64, 92
1, 222230, Note_on_c, 0, 52, 37
1, 222232, Note_on_c, 0, 43, 37
1, 222233, Note_on_c, 0, 58, 43
1, 222234, Control_c, 0, 64, 90
1, 222235, Note_on_c, 0, 67, 54
1, 222249, Control_c, 0, 64, 86
1, 222264, Control_c, 0, 64, 79
1, 222279, Control_c, 0, 64, 68
1, 222293, Control_c, 0, 64, 62
1, 222308, Control_c, 0, 64, 58
1, 222323, Control_c, 0, 64, 59
1, 222339, Control_c, 0, 64, 60
1, 222354, Control_c, 0, 64, 61
1, 222369, Control_c, 0, 64, 64
1, 222383, Control_c, 0, 64, 68
1, 222398, Control_c, 0, 64, 72
1, 222413, Control_c, 0, 64, 77
1, 222428, Control_c, 0, 64, 81
1, 222429, Note_off_c, 0, 67, 47
1, 222443, Control_c, 0, 64, 83
1, 222457, Control_c, 0, 64, 87
1, 222472, Control_c, 0, 64, 90
1, 222473, Note_off_c, 0, 58, 56
1, 222476, Note_off_c, 0, 43, 39
1, 222482, Note_off_c, 0, 52, 35
1, 222487, Control_c, 0, 64, 92
1, 222502, Control_c, 0, 64, 95
1, 222511, Note_on_c, 0, 53, 45
1, 222517, Control_c, 0, 64, 96
1, 222532, Control_c, 0, 64, 96
1, 222782, Note_off_c, 0, 53, 31
1, 222813, Control_c, 0, 64, 96
1, 222857, Control_c, 0, 64, 95
1, 222895, Control_c, 0, 64, 95
1, 222910, Control_c, 0, 64, 94
1, 222924, Control_c, 0, 64, 93
1, 222928, Note_on_c, 0, 61, 46
1, 222928, Note_on_c, 0, 57, 38
1, 222934, Note_on_c, 0, 55, 34
1, 222939, Control_c, 0, 64, 92
1, 222943, Note_on_c, 0, 45, 33
1, 222954, Control_c, 0, 64, 90
1, 222969, Control_c, 0, 64, 88
1, 222983, Control_c, 0, 64, 86
1, 222998, Control_c, 0, 64, 83
1, 223013, Control_c, 0, 64, 79
1, 223028, Control_c, 0, 64, 72
1, 223043, Control_c, 0, 64, 66
1, 223058, Control_c, 0, 64, 61
1, 223072, Control_c, 0, 64, 58
1, 223087, Control_c, 0, 64, 57
1, 223102, Control_c, 0, 64, 56
1, 223116, Control_c, 0, 64, 56
1, 223177, Control_c, 0, 64, 57
1, 223192, Control_c, 0, 64, 58
1, 223206, Control_c, 0, 64, 60
1, 223221, Control_c, 0, 64, 61
1, 223236, Control_c, 0, 64, 62
1, 223252, Control_c, 0, 64, 63
1, 223267, Control_c, 0, 64, 64
1, 223281, Control_c, 0, 64, 65
1, 223296, Control_c, 0, 64, 66
1, 223311, Control_c, 0, 64, 68
1, 223326, Control_c, 0, 64, 69
1, 223340, Control_c, 0, 64, 71
1, 223355, Control_c, 0, 64, 73
1, 223370, Control_c, 0, 64, 75
1, 223385, Control_c, 0, 64, 77
1, 223400, Control_c, 0, 64, 80
1, 223414, Control_c, 0, 64, 82
1, 223429, Control_c, 0, 64, 85
1, 223444, Control_c, 0, 64, 88
1, 223459, Control_c, 0, 64, 92
1, 223474, Control_c, 0, 64, 96
1, 223489, Control_c, 0, 64, 101
1, 223503, Control_c, 0, 64, 104
1, 223518, Control_c, 0, 64, 105
1, 223525, Note_on_c, 0, 53, 39
1, 223533, Control_c, 0, 64, 106
1, 223548, Control_c, 0, 64, 107
1, 223563, Control_c, 0, 64, 108
1, 223578, Control_c, 0, 64, 109
1, 223591, Note_off_c, 0, 45, 30
1, 223734, Note_off_c, 0, 53, 38
1, 223736, Note_off_c, 0, 57, 35
1, 223757, Note_off_c, 0, 55, 38
1, 223768, Note_off_c, 0, 61, 35
1, 223905, Note_on_c, 0, 52, 36
1, 224012, Note_off_c, 0, 52, 49
1, 224482, Control_c, 0, 64, 108
1, 224497, Control_c, 0, 64, 108
1, 224541, Control_c, 0, 64, 107
1, 224556, Control_c, 0, 64, 107
1, 224571, Control_c, 0, 64, 106
1, 224586, Control_c, 0, 64, 105
1, 224600, Control_c, 0, 64, 104
1, 224603, Note_on_c, 0, 62, 41
1, 224606, Note_on_c, 0, 57, 33
1, 224609, Note_on_c, 0, 53, 27
1, 224615, Note_on_c, 0, 38, 31
1, 224615, Control_c, 0, 64, 102
1, 224630, Control_c, 0, 64, 101
1, 224645, Control_c, 0, 64, 99
1, 224660, Control_c, 0, 64, 97
1, 224675, Control_c, 0, 64, 95
1, 224689, Control_c, 0, 64, 93
1, 224704, Control_c, 0, 64, 88
1, 224719, Control_c, 0, 64, 83
1, 224735, Control_c, 0, 64, 77
1, 224750, Control_c, 0, 64, 72
1, 224764, Control_c, 0, 64, 67
1, 224779, Control_c, 0, 64, 64
1, 224794, Control_c, 0, 64, 62
1, 224809, Control_c, 0, 64, 61
1, 224824, Control_c, 0, 64, 60
1, 224839, Control_c, 0, 64, 60
1, 224853, Control_c, 0, 64, 59
1, 224883, Control_c, 0, 64, 58
1, 225060, Control_c, 0, 64, 59
1, 225090, Control_c, 0, 64, 59
1, 225104, Control_c, 0, 64, 60
1, 225142, Control_c, 0, 64, 60
1, 225157, Control_c, 0, 64, 61
1, 225172, Control_c, 0, 64, 61
1, 225186, Control_c, 0, 64, 62
1, 225201, Control_c, 0, 64, 63
1, 225216, Control_c, 0, 64, 65
1, 225231, Control_c, 0, 64, 67
1, 225246, Control_c, 0, 64, 69
1, 225260, Control_c, 0, 64, 72
1, 225275, Control_c, 0, 64, 75
1, 225290, Control_c, 0, 64, 78
1, 225304, Control_c, 0, 64, 82
1, 225319, Control_c, 0, 64, 85
1, 225334, Control_c, 0, 64, 88
1, 225349, Control_c, 0, 64, 93
1, 225364, Control_c, 0, 64, 97
1, 225378, Control_c, 0, 64, 101
1, 225393, Control_c, 0, 64, 104
1, 225408, Control_c, 0, 64, 107
1, 225423, Control_c, 0, 64, 110
1, 225438, Control_c, 0, 64, 113
1, 225453, Control_c, 0, 64, 115
1, 225497, Control_c, 0, 64, 116
1, 225511, Control_c, 0, 64, 120
1, 225526, Control_c, 0, 64, 127
1, 225715, Note_off_c, 0, 53, 38
1, 225742, Note_off_c, 0, 62, 32
1, 225773, Note_off_c, 0, 57, 38
1, 225850, Note_off_c, 0, 38, 34
1, 226774, Note_on_c, 0, 38, 27
1, 226789, Note_on_c, 0, 69, 59
1, 226817, Control_c, 0, 64, 125
1, 226831, Control_c, 0, 64, 112
1, 226846, Control_c, 0, 64, 100
1, 226861, Control_c, 0, 64, 88
1, 226876, Control_c, 0, 64, 77
1, 226891, Control_c, 0, 64, 69
1, 226905, Control_c, 0, 64, 65
1, 226920, Control_c, 0, 64, 63
1, 226935, Control_c, 0, 64, 64
1, 226949, Control_c, 0, 64, 65
1, 226964, Control_c, 0, 64, 67
1, 226979, Control_c, 0, 64, 70
1, 226994, Control_c, 0, 64, 75
1, 227009, Control_c, 0, 64, 80
1, 227023, Control_c, 0, 64, 85
1, 227038, Control_c, 0, 64, 91
1, 227053, Control_c, 0, 64, 98
1, 227068, Control_c, 0, 64, 108
1, 227083, Control_c, 0, 64, 127
1, 227127, Note_off_c, 0, 38, 35
1, 227256, Note_on_c, 0, 62, 30
1, 227257, Note_on_c, 0, 60, 31
1, 227483, Note_off_c, 0, 62, 36
1, 227522, Note_off_c, 0, 60, 36
1, 227588, Note_on_c, 0, 54, 39
1, 227685, Note_off_c, 0, 54, 51
1, 227857, Note_on_c, 0, 60, 33
1, 227866, Note_on_c, 0, 62, 29
1, 228032, Note_off_c, 0, 60, 44
1, 228067, Note_off_c, 0, 69, 40
1, 228085, Note_off_c, 0, 62, 38
1, 228086, Note_on_c, 0, 38, 25
1, 228131, Note_on_c, 0, 67, 53
1, 228151, Control_c, 0, 64, 101
1, 228166, Control_c, 0, 64, 81
1, 228181, Control_c, 0, 64, 69
1, 228195, Control_c, 0, 64, 63
1, 228210, Control_c, 0, 64, 62
1, 228225, Control_c, 0, 64, 64
1, 228240, Control_c, 0, 64, 66
1, 228255, Control_c, 0, 64, 71
1, 228270, Control_c, 0, 64, 77
1, 228275, Note_off_c, 0, 38, 41
1, 228284, Control_c, 0, 64, 87
1, 228299, Control_c, 0, 64, 99
1, 228309, Note_off_c, 0, 67, 51
1, 228314, Control_c, 0, 64, 116
1, 228328, Control_c, 0, 64, 127
1, 228341, Note_on_c, 0, 58, 33
1, 228342, Note_on_c, 0, 62, 32
1, 228396, Note_off_c, 0, 62, 56
1, 228400, Note_off_c, 0, 58, 53
1, 228520, Note_on_c, 0, 55, 47
1, 228578, Note_off_c, 0, 55, 61
1, 228714, Note_on_c, 0, 58, 36
1, 228715, Note_on_c, 0, 62, 29
1, 228752, Note_off_c, 0, 62, 45
1, 228759, Note_off_c, 0, 58, 63
1, 228896, Note_on_c, 0, 38, 33
1, 228982, Note_on_c, 0, 74, 68
1, 229003, Control_c, 0, 64, 91
1, 229018, Control_c, 0, 64, 73
1, 229033, Control_c, 0, 64, 64
1, 229048, Control_c, 0, 64, 59
1, 229063, Control_c, 0, 64, 61
1, 229078, Control_c, 0, 64, 63
1, 229093, Control_c, 0, 64, 65
1, 229107, Control_c, 0, 64, 70
1, 229122, Control_c, 0, 64, 78
1, 229137, Control_c, 0, 64, 88
1, 229142, Note_off_c, 0, 38, 39
1, 229151, Control_c, 0, 64, 99
1, 229166, Control_c, 0, 64, 110
1, 229181, Control_c, 0, 64, 127
1, 229198, Note_on_c, 0, 67, 40
1, 229205, Note_on_c, 0, 62, 37
1, 229248, Note_off_c, 0, 62, 53
1, 229252, Note_off_c, 0, 67, 58
1, 229375, Note_on_c, 0, 58, 48
1, 229418, Note_off_c, 0, 58, 62
1, 229546, Note_on_c, 0, 62, 45
1, 229549, Note_on_c, 0, 67, 47
1, 229594, Note_off_c, 0, 62, 56
1, 229658, Note_off_c, 0, 67, 39
1, 229692, Note_off_c, 0, 74, 15
1, 229708, Control_c, 0, 64, 119
1, 229718, Note_on_c, 0, 73, 69
1, 229722, Control_c, 0, 64, 95
1, 229730, Note_on_c, 0, 38, 39
1, 229737, Control_c, 0, 64, 79
1, 229752, Control_c, 0, 64, 68
1, 229767, Control_c, 0, 64, 61
1, 229781, Control_c, 0, 64, 58
1, 229796, Control_c, 0, 64, 59
1, 229811, Control_c, 0, 64, 61
1, 229826, Control_c, 0, 64, 64
1, 229841, Control_c, 0, 64, 68
1, 229856, Control_c, 0, 64, 73
1, 229871, Control_c, 0, 64, 82
1, 229886, Control_c, 0, 64, 91
1, 229887, Note_on_c, 0, 64, 53
1, 229889, Note_on_c, 0, 67, 44
1, 229893, Note_off_c, 0, 38, 36
1, 229901, Control_c, 0, 64, 102
1, 229915, Control_c, 0, 64, 127
1, 229963, Note_off_c, 0, 67, 54
1, 229973, Note_off_c, 0, 64, 52
1, 230071, Note_on_c, 0, 57, 52
1, 230158, Note_off_c, 0, 73, 30
1, 230178, Note_off_c, 0, 57, 56
1, 230214, Note_on_c, 0, 67, 53
1, 230219, Note_on_c, 0, 64, 50
1, 230245, Note_off_c, 0, 67, 63
1, 230258, Note_off_c, 0, 64, 63
1, 230412, Note_on_c, 0, 50, 43
1, 230501, Note_on_c, 0, 81, 76
1, 230545, Control_c, 0, 64, 111
1, 230560, Control_c, 0, 64, 84
1, 230575, Control_c, 0, 64, 70
1, 230590, Control_c, 0, 64, 62
1, 230604, Control_c, 0, 64, 59
1, 230619, Control_c, 0, 64, 60
1, 230634, Control_c, 0, 64, 62
1, 230649, Control_c, 0, 64, 64
1, 230664, Control_c, 0, 64, 68
1, 230679, Control_c, 0, 64, 74
1, 230693, Control_c, 0, 64, 81
1, 230708, Control_c, 0, 64, 88
1, 230723, Control_c, 0, 64, 92
1, 230738, Control_c, 0, 64, 96
1, 230753, Control_c, 0, 64, 103
1, 230768, Control_c, 0, 64, 110
1, 230783, Control_c, 0, 64, 115
1, 230797, Control_c, 0, 64, 116
1, 230803, Note_on_c, 0, 67, 45
1, 230807, Note_on_c, 0, 69, 43
1, 230827, Control_c, 0, 64, 119
1, 230842, Note_off_c, 0, 81, 36
1, 230842, Control_c, 0, 64, 122
1, 230857, Control_c, 0, 64, 125
1, 230863, Note_off_c, 0, 50, 39
1, 230871, Control_c, 0, 64, 127
1, 230904, Note_off_c, 0, 69, 48
1, 230907, Note_off_c, 0, 67, 46
1, 231015, Note_on_c, 0, 57, 35
1, 231027, Note_on_c, 0, 61, 45
1, 231179, Note_off_c, 0, 61, 32
1, 231226, Note_on_c, 0, 67, 24
1, 231226, Note_on_c, 0, 69, 23
1, 231248, Note_off_c, 0, 57, 38
1, 231281, Note_off_c, 0, 67, 42
1, 231325, Note_off_c, 0, 69, 32
1, 231437, Note_on_c, 0, 50, 31
1, 231519, Note_on_c, 0, 77, 61
1, 231532, Control_c, 0, 64, 125
1, 231546, Control_c, 0, 64, 115
1, 231561, Control_c, 0, 64, 108
1, 231576, Control_c, 0, 64, 100
1, 231591, Control_c, 0, 64, 87
1, 231606, Control_c, 0, 64, 76
1, 231620, Control_c, 0, 64, 68
1, 231635, Control_c, 0, 64, 63
1, 231650, Control_c, 0, 64, 61
1, 231680, Control_c, 0, 64, 62
1, 231695, Control_c, 0, 64, 63
1, 231710, Control_c, 0, 64, 64
1, 231725, Control_c, 0, 64, 66
1, 231739, Control_c, 0, 64, 68
1, 231754, Control_c, 0, 64, 71
1, 231762, Note_on_c, 0, 65, 32
1, 231765, Note_on_c, 0, 69, 36
1, 231769, Control_c, 0, 64, 75
1, 231784, Control_c, 0, 64, 78
1, 231799, Control_c, 0, 64, 81
1, 231813, Control_c, 0, 64, 84
1, 231828, Control_c, 0, 64, 87
1, 231843, Control_c, 0, 64, 92
1, 231858, Control_c, 0, 64, 98
1, 231880, Control_c, 0, 64, 103
1, 231892, Note_off_c, 0, 50, 22
1, 231895, Control_c, 0, 64, 107
1, 231910, Control_c, 0, 64, 110
1, 231913, Note_off_c, 0, 69, 33
1, 231940, Control_c, 0, 64, 110
1, 231942, Note_on_c, 0, 73, 60
1, 231956, Note_off_c, 0, 65, 40
1, 231965, Note_on_c, 0, 62, 38
1, 231966, Note_on_c, 0, 57, 40
1, 231970, Control_c, 0, 64, 111
1, 231985, Control_c, 0, 64, 112
1, 231999, Control_c, 0, 64, 112
1, 232060, Note_off_c, 0, 77, 30
1, 232129, Note_on_c, 0, 65, 32
1, 232144, Note_on_c, 0, 69, 42
1, 232229, Note_off_c, 0, 62, 18
1, 232271, Note_off_c, 0, 57, 36
1, 232290, Note_on_c, 0, 50, 37
1, 232295, Control_c, 0, 64, 111
1, 232306, Note_on_c, 0, 74, 67
1, 232310, Control_c, 0, 64, 109
1, 232324, Note_off_c, 0, 65, 40
1, 232324, Control_c, 0, 64, 105
1, 232339, Control_c, 0, 64, 97
1, 232346, Note_off_c, 0, 69, 42
1, 232349, Note_off_c, 0, 73, 51
1, 232354, Control_c, 0, 64, 86
1, 232369, Control_c, 0, 64, 75
1, 232384, Control_c, 0, 64, 68
1, 232399, Control_c, 0, 64, 65
1, 232413, Control_c, 0, 64, 66
1, 232428, Control_c, 0, 64, 68
1, 232443, Control_c, 0, 64, 69
1, 232458, Control_c, 0, 64, 73
1, 232462, Note_on_c, 0, 65, 40
1, 232463, Note_on_c, 0, 69, 49
1, 232473, Control_c, 0, 64, 79
1, 232488, Control_c, 0, 64, 84
1, 232503, Control_c, 0, 64, 89
1, 232517, Control_c, 0, 64, 95
1, 232532, Control_c, 0, 64, 100
1, 232547, Control_c, 0, 64, 105
1, 232561, Control_c, 0, 64, 110
1, 232576, Control_c, 0, 64, 113
1, 232591, Control_c, 0, 64, 115
1, 232606, Control_c, 0, 64, 116
1, 232628, Control_c, 0, 64, 119
1, 232631, Note_off_c, 0, 50, 38
1, 232636, Note_on_c, 0, 57, 45
1, 232641, Note_off_c, 0, 65, 23
1, 232643, Note_on_c, 0, 76, 74
1, 232643, Control_c, 0, 64, 120
1, 232670, Note_off_c, 0, 74, 58
1, 232690, Note_off_c, 0, 69, 38
1, 232719, Control_c, 0, 64, 122
1, 232808, Note_on_c, 0, 69, 53
1, 232823, Note_on_c, 0, 65, 41
1, 232881, Control_c, 0, 64, 125
1, 232976, Note_off_c, 0, 69, 35
1, 232983, Note_on_c, 0, 50, 37
1, 233000, Control_c, 0, 64, 122
1, 233015, Control_c, 0, 64, 117
1, 233027, Note_off_c, 0, 65, 38
1, 233029, Note_on_c, 0, 73, 68
1, 233030, Control_c, 0, 64, 115
1, 233045, Control_c, 0, 64, 110
1, 233053, Note_off_c, 0, 76, 32
1, 233059, Note_off_c, 0, 57, 33
1, 233060, Control_c, 0, 64, 102
1, 233074, Control_c, 0, 64, 90
1, 233089, Control_c, 0, 64, 78
1, 233104, Control_c, 0, 64, 69
1, 233119, Control_c, 0, 64, 64
1, 233134, Control_c, 0, 64, 63
1, 233148, Control_c, 0, 64, 64
1, 233163, Control_c, 0, 64, 65
1, 233178, Control_c, 0, 64, 66
1, 233192, Control_c, 0, 64, 68
1, 233207, Note_on_c, 0, 67, 45
1, 233207, Control_c, 0, 64, 72
1, 233217, Note_on_c, 0, 64, 37
1, 233222, Control_c, 0, 64, 75
1, 233237, Control_c, 0, 64, 80
1, 233252, Control_c, 0, 64, 84
1, 233266, Control_c, 0, 64, 89
1, 233281, Control_c, 0, 64, 95
1, 233293, Note_off_c, 0, 67, 52
1, 233296, Control_c, 0, 64, 100
1, 233304, Note_off_c, 0, 64, 48
1, 233311, Control_c, 0, 64, 104
1, 233326, Control_c, 0, 64, 107
1, 233340, Control_c, 0, 64, 108
1, 233389, Note_off_c, 0, 50, 39
1, 233412, Note_on_c, 0, 57, 45
1, 233522, Note_off_c, 0, 57, 43
1, 233531, Note_off_c, 0, 73, 48
1, 233540, Note_on_c, 0, 67, 37
1, 233545, Note_on_c, 0, 64, 33
1, 233599, Note_off_c, 0, 67, 57
1, 233635, Note_off_c, 0, 64, 50
1, 233675, Control_c, 0, 64, 107
1, 233689, Control_c, 0, 64, 106
1, 233704, Control_c, 0, 64, 105
1, 233715, Note_on_c, 0, 50, 33
1, 233719, Control_c, 0, 64, 103
1, 233731, Note_on_c, 0, 69, 57
1, 233734, Control_c, 0, 64, 100
1, 233749, Control_c, 0, 64, 95
1, 233764, Control_c, 0, 64, 86
1, 233779, Control_c, 0, 64, 76
1, 233794, Control_c, 0, 64, 67
1, 233808, Control_c, 0, 64, 62
1, 233823, Control_c, 0, 64, 61
1, 233853, Control_c, 0, 64, 61
1, 233868, Control_c, 0, 64, 62
1, 233877, Note_on_c, 0, 65, 41
1, 233883, Control_c, 0, 64, 63
1, 233895, Note_on_c, 0, 62, 31
1, 233897, Control_c, 0, 64, 65
1, 233912, Control_c, 0, 64, 67
1, 233927, Control_c, 0, 64, 69
1, 233942, Control_c, 0, 64, 72
1, 233957, Control_c, 0, 64, 74
1, 233960, Note_off_c, 0, 65, 54
1, 233971, Control_c, 0, 64, 77
1, 233972, Note_off_c, 0, 62, 51
1, 233986, Control_c, 0, 64, 80
1, 234001, Control_c, 0, 64, 83
1, 234015, Control_c, 0, 64, 86
1, 234030, Control_c, 0, 64, 90
1, 234035, Note_off_c, 0, 50, 39
1, 234045, Control_c, 0, 64, 93
1, 234057, Note_on_c, 0, 57, 35
1, 234060, Control_c, 0, 64, 96
1, 234075, Control_c, 0, 64, 98
1, 234089, Control_c, 0, 64, 100
1, 234104, Control_c, 0, 64, 100
1, 234127, Control_c, 0, 64, 101
1, 234142, Control_c, 0, 64, 102
1, 234156, Control_c, 0, 64, 103
1, 234171, Control_c, 0, 64, 104
1, 234179, Note_off_c, 0, 57, 37
1, 234215, Note_on_c, 0, 65, 32
1, 234234, Note_on_c, 0, 62, 9
1, 234304, Note_off_c, 0, 69, 39
1, 234350, Control_c, 0, 64, 103
1, 234365, Control_c, 0, 64, 103
1, 234375, Note_on_c, 0, 50, 31
1, 234380, Control_c, 0, 64, 102
1, 234386, Note_on_c, 0, 70, 61
1, 234393, Note_off_c, 0, 62, 34
1, 234394, Control_c, 0, 64, 101
1, 234409, Control_c, 0, 64, 100
1, 234421, Note_off_c, 0, 65, 31
1, 234424, Control_c, 0, 64, 97
1, 234438, Control_c, 0, 64, 92
1, 234453, Control_c, 0, 64, 84
1, 234468, Control_c, 0, 64, 73
1, 234483, Control_c, 0, 64, 67
1, 234498, Control_c, 0, 64, 63
1, 234512, Control_c, 0, 64, 63
1, 234527, Control_c, 0, 64, 63
1, 234542, Control_c, 0, 64, 64
1, 234543, Note_on_c, 0, 62, 34
1, 234557, Control_c, 0, 64, 65
1, 234563, Note_on_c, 0, 65, 36
1, 234572, Control_c, 0, 64, 67
1, 234586, Control_c, 0, 64, 70
1, 234601, Control_c, 0, 64, 73
1, 234616, Note_off_c, 0, 62, 51
1, 234616, Control_c, 0, 64, 76
1, 234624, Note_off_c, 0, 65, 52
1, 234631, Control_c, 0, 64, 78
1, 234646, Control_c, 0, 64, 81
1, 234661, Control_c, 0, 64, 85
1, 234676, Control_c, 0, 64, 89
1, 234691, Control_c, 0, 64, 93
1, 234706, Control_c, 0, 64, 97
1, 234708, Note_on_c, 0, 58, 44
1, 234715, Note_off_c, 0, 50, 37
1, 234720, Control_c, 0, 64, 103
1, 234735, Control_c, 0, 64, 110
1, 234750, Control_c, 0, 64, 127
1, 234834, Note_off_c, 0, 58, 36
1, 234876, Note_on_c, 0, 62, 35
1, 234897, Note_on_c, 0, 65, 26
1, 234952, Note_off_c, 0, 62, 48
1, 234975, Note_off_c, 0, 65, 44
1, 235042, Note_off_c, 0, 70, 40
1, 235048, Note_on_c, 0, 50, 31
1, 235053, Control_c, 0, 64, 125
1, 235060, Note_on_c, 0, 71, 59
1, 235068, Control_c, 0, 64, 111
1, 235083, Control_c, 0, 64, 100
1, 235098, Control_c, 0, 64, 87
1, 235114, Control_c, 0, 64, 75
1, 235129, Control_c, 0, 64, 66
1, 235143, Control_c, 0, 64, 63
1, 235173, Control_c, 0, 64, 63
1, 235188, Control_c, 0, 64, 64
1, 235203, Control_c, 0, 64, 65
1, 235217, Control_c, 0, 64, 67
1, 235224, Note_on_c, 0, 65, 31
1, 235233, Control_c, 0, 64, 70
1, 235246, Note_on_c, 0, 68, 18
1, 235248, Control_c, 0, 64, 73
1, 235262, Control_c, 0, 64, 77
1, 235277, Control_c, 0, 64, 80
1, 235292, Control_c, 0, 64, 83
1, 235307, Control_c, 0, 64, 89
1, 235322, Control_c, 0, 64, 94
1, 235336, Control_c, 0, 64, 101
1, 235350, Note_off_c, 0, 65, 34
1, 235351, Control_c, 0, 64, 108
1, 235352, Note_off_c, 0, 68, 35
1, 235366, Control_c, 0, 64, 117
1, 235375, Note_on_c, 0, 59, 39
1, 235381, Control_c, 0, 64, 127
1, 235464, Note_off_c, 0, 50, 36
1, 235496, Note_off_c, 0, 71, 57
1, 235534, Note_on_c, 0, 68, 34
1, 235552, Note_on_c, 0, 65, 18
1, 235569, Note_off_c, 0, 59, 39
1, 235641, Note_off_c, 0, 65, 34
1, 235684, Note_off_c, 0, 68, 31
1, 235708, Note_on_c, 0, 72, 62
1, 235716, Note_on_c, 0, 48, 37
1, 235803, Control_c, 0, 64, 108
1, 235818, Control_c, 0, 64, 92
1, 235833, Control_c, 0, 64, 78
1, 235847, Control_c, 0, 64, 69
1, 235862, Control_c, 0, 64, 65
1, 235876, Note_on_c, 0, 69, 46
1, 235888, Note_on_c, 0, 65, 36
1, 235907, Control_c, 0, 64, 66
1, 235922, Control_c, 0, 64, 67
1, 235937, Control_c, 0, 64, 69
1, 235942, Note_off_c, 0, 69, 50
1, 235952, Control_c, 0, 64, 73
1, 235967, Control_c, 0, 64, 78
1, 235981, Control_c, 0, 64, 83
1, 235996, Control_c, 0, 64, 87
1, 236011, Control_c, 0, 64, 91
1, 236018, Note_off_c, 0, 65, 35
1, 236021, Note_off_c, 0, 48, 41
1, 236025, Control_c, 0, 64, 96
1, 236040, Control_c, 0, 64, 101
1, 236042, Note_on_c, 0, 60, 50
1, 236055, Control_c, 0, 64, 106
1, 236070, Control_c, 0, 64, 109
1, 236084, Control_c, 0, 64, 110
1, 236099, Control_c, 0, 64, 111
1, 236114, Control_c, 0, 64, 113
1, 236125, Note_off_c, 0, 60, 49
1, 236129, Control_c, 0, 64, 114
1, 236144, Control_c, 0, 64, 115
1, 236170, Note_on_c, 0, 69, 60
1, 236180, Note_on_c, 0, 65, 36
1, 236311, Note_on_c, 0, 48, 44
1, 236371, Note_on_c, 0, 73, 81
1, 236381, Note_off_c, 0, 65, 40
1, 236396, Note_off_c, 0, 69, 58
1, 236399, Note_off_c, 0, 72, 53
1, 236403, Control_c, 0, 64, 113
1, 236417, Control_c, 0, 64, 111
1, 236432, Control_c, 0, 64, 107
1, 236447, Control_c, 0, 64, 103
1, 236462, Control_c, 0, 64, 98
1, 236477, Control_c, 0, 64, 89
1, 236491, Control_c, 0, 64, 78
1, 236506, Control_c, 0, 64, 69
1, 236521, Control_c, 0, 64, 63
1, 236536, Control_c, 0, 64, 62
1, 236539, Note_on_c, 0, 69, 52
1, 236548, Note_on_c, 0, 65, 46
1, 236551, Control_c, 0, 64, 63
1, 236566, Control_c, 0, 64, 64
1, 236581, Control_c, 0, 64, 66
1, 236596, Control_c, 0, 64, 70
1, 236611, Control_c, 0, 64, 76
1, 236625, Control_c, 0, 64, 81
1, 236631, Note_off_c, 0, 69, 62
1, 236640, Control_c, 0, 64, 84
1, 236646, Note_off_c, 0, 65, 53
1, 236655, Control_c, 0, 64, 87
1, 236670, Control_c, 0, 64, 91
1, 236685, Control_c, 0, 64, 94
1, 236699, Control_c, 0, 64, 97
1, 236705, Note_off_c, 0, 48, 36
1, 236715, Control_c, 0, 64, 99
1, 236718, Note_on_c, 0, 61, 47
1, 236730, Control_c, 0, 64, 99
1, 236745, Control_c, 0, 64, 100
1, 236760, Control_c, 0, 64, 101
1, 236774, Control_c, 0, 64, 102
1, 236789, Control_c, 0, 64, 103
1, 236804, Control_c, 0, 64, 103
1, 236860, Note_off_c, 0, 61, 31
1, 236877, Note_on_c, 0, 69, 47
1, 236883, Note_on_c, 0, 65, 39
1, 237055, Note_off_c, 0, 69, 37
1, 237068, Note_off_c, 0, 73, 37
1, 237070, Control_c, 0, 64, 103
1, 237071, Note_on_c, 0, 48, 37
1, 237122, Control_c, 0, 64, 102
1, 237125, Note_off_c, 0, 65, 32
1, 237130, Note_on_c, 0, 74, 61
1, 237152, Control_c, 0, 64, 101
1, 237167, Control_c, 0, 64, 99
1, 237182, Control_c, 0, 64, 96
1, 237196, Control_c, 0, 64, 90
1, 237211, Control_c, 0, 64, 81
1, 237226, Control_c, 0, 64, 72
1, 237240, Control_c, 0, 64, 66
1, 237255, Control_c, 0, 64, 63
1, 237270, Control_c, 0, 64, 62
1, 237285, Control_c, 0, 64, 63
1, 237300, Control_c, 0, 64, 64
1, 237314, Control_c, 0, 64, 66
1, 237329, Control_c, 0, 64, 68
1, 237344, Control_c, 0, 64, 72
1, 237359, Control_c, 0, 64, 77
1, 237363, Note_off_c, 0, 48, 35
1, 237374, Control_c, 0, 64, 80
1, 237379, Note_on_c, 0, 65, 31
1, 237389, Control_c, 0, 64, 84
1, 237390, Note_on_c, 0, 70, 34
1, 237403, Control_c, 0, 64, 89
1, 237418, Control_c, 0, 64, 94
1, 237433, Control_c, 0, 64, 102
1, 237448, Control_c, 0, 64, 114
1, 237463, Control_c, 0, 64, 127
1, 237511, Note_off_c, 0, 70, 37
1, 237558, Note_off_c, 0, 65, 40
1, 237586, Note_on_c, 0, 62, 36
1, 237676, Note_off_c, 0, 62, 45
1, 237748, Note_on_c, 0, 70, 38
1, 237755, Note_on_c, 0, 65, 25
1, 237897, Note_on_c, 0, 48, 39
1, 237911, Note_off_c, 0, 65, 38
1, 237915, Control_c, 0, 64, 103
1, 237930, Control_c, 0, 64, 86
1, 237944, Control_c, 0, 64, 74
1, 237947, Note_off_c, 0, 70, 38
1, 237959, Control_c, 0, 64, 68
1, 237989, Control_c, 0, 64, 70
1, 238004, Control_c, 0, 64, 72
1, 238018, Control_c, 0, 64, 76
1, 238033, Control_c, 0, 64, 81
1, 238048, Control_c, 0, 64, 87
1, 238056, Note_on_c, 0, 67, 38
1, 238062, Note_on_c, 0, 64, 35
1, 238062, Control_c, 0, 64, 93
1, 238077, Control_c, 0, 64, 98
1, 238092, Control_c, 0, 64, 102
1, 238107, Control_c, 0, 64, 106
1, 238116, Note_off_c, 0, 67, 48
1, 238122, Control_c, 0, 64, 109
1, 238125, Note_off_c, 0, 64, 42
1, 238137, Control_c, 0, 64, 112
1, 238152, Control_c, 0, 64, 114
1, 238167, Control_c, 0, 64, 116
1, 238181, Control_c, 0, 64, 119
1, 238196, Control_c, 0, 64, 120
1, 238207, Note_on_c, 0, 58, 42
1, 238232, Note_on_c, 0, 70, 51
1, 238268, Note_off_c, 0, 58, 48
1, 238270, Control_c, 0, 64, 122
1, 238285, Control_c, 0, 64, 127
1, 238291, Note_off_c, 0, 74, 36
1, 238333, Note_off_c, 0, 48, 34
1, 238384, Note_off_c, 0, 70, 49
1, 238393, Note_on_c, 0, 67, 33
1, 238405, Note_on_c, 0, 64, 33
1, 238422, Note_off_c, 0, 67, 55
1, 238552, Note_on_c, 0, 53, 41
1, 238582, Control_c, 0, 64, 125
1, 238619, Control_c, 0, 64, 122
1, 238634, Control_c, 0, 64, 119
1, 238639, Note_off_c, 0, 64, 41
1, 238649, Control_c, 0, 64, 115
1, 238662, Note_on_c, 0, 69, 62
1, 238664, Control_c, 0, 64, 110
1, 238679, Control_c, 0, 64, 102
1, 238693, Control_c, 0, 64, 90
1, 238708, Control_c, 0, 64, 78
1, 238723, Control_c, 0, 64, 69
1, 238738, Control_c, 0, 64, 64
1, 238753, Control_c, 0, 64, 63
1, 238767, Control_c, 0, 64, 64
1, 238782, Control_c, 0, 64, 65
1, 238797, Control_c, 0, 64, 67
1, 238811, Control_c, 0, 64, 70
1, 238826, Control_c, 0, 64, 75
1, 238841, Control_c, 0, 64, 81
1, 238856, Control_c, 0, 64, 85
1, 238861, Note_on_c, 0, 65, 42
1, 238871, Control_c, 0, 64, 89
1, 238885, Control_c, 0, 64, 94
1, 238900, Control_c, 0, 64, 100
1, 238915, Control_c, 0, 64, 105
1, 238930, Control_c, 0, 64, 109
1, 238936, Note_off_c, 0, 65, 46
1, 238945, Control_c, 0, 64, 111
1, 238959, Control_c, 0, 64, 113
1, 238974, Control_c, 0, 64, 115
1, 238989, Control_c, 0, 64, 120
1, 239004, Control_c, 0, 64, 122
1, 239016, Note_off_c, 0, 53, 28
1, 239019, Control_c, 0, 64, 125
1, 239028, Note_on_c, 0, 57, 36
1, 239034, Control_c, 0, 64, 127
1, 239077, Note_off_c, 0, 57, 61
1, 239161, Note_on_c, 0, 60, 42
1, 239297, Note_off_c, 0, 60, 37
1, 239308, Note_off_c, 0, 69, 32
1, 239323, Note_on_c, 0, 41, 38
1, 239368, Control_c, 0, 64, 125
1, 239383, Control_c, 0, 64, 122
1, 239398, Control_c, 0, 64, 119
1, 239399, Note_on_c, 0, 65, 55
1, 239413, Control_c, 0, 64, 115
1, 239427, Control_c, 0, 64, 111
1, 239442, Control_c, 0, 64, 104
1, 239457, Control_c, 0, 64, 95
1, 239472, Control_c, 0, 64, 83
1, 239487, Control_c, 0, 64, 73
1, 239502, Control_c, 0, 64, 66
1, 239516, Control_c, 0, 64, 63
1, 239531, Control_c, 0, 64, 64
1, 239546, Control_c, 0, 64, 65
1, 239561, Control_c, 0, 64, 67
1, 239576, Control_c, 0, 64, 70
1, 239579, Note_on_c, 0, 60, 37
1, 239587, Note_on_c, 0, 57, 38
1, 239590, Control_c, 0, 64, 76
1, 239605, Control_c, 0, 64, 81
1, 239620, Control_c, 0, 64, 85
1, 239634, Control_c, 0, 64, 89
1, 239637, Note_off_c, 0, 41, 41
1, 239639, Note_off_c, 0, 60, 58
1, 239649, Control_c, 0, 64, 92
1, 239664, Control_c, 0, 64, 97
1, 239679, Control_c, 0, 64, 102
1, 239694, Note_off_c, 0, 57, 49
1, 239694, Control_c, 0, 64, 104
1, 239708, Control_c, 0, 64, 105
1, 239723, Control_c, 0, 64, 106
1, 239738, Control_c, 0, 64, 107
1, 239744, Note_on_c, 0, 53, 48
1, 239753, Control_c, 0, 64, 107
1, 239782, Control_c, 0, 64, 108
1, 239851, Note_off_c, 0, 53, 47
1, 239872, Note_on_c, 0, 57, 48
1, 239872, Note_on_c, 0, 60, 51
1, 239902, Control_c, 0, 64, 108
1, 239917, Control_c, 0, 64, 109
1, 239931, Control_c, 0, 64, 109
1, 239957, Note_off_c, 0, 57, 54
1, 239999, Note_off_c, 0, 60, 48
1, 240006, Note_on_c, 0, 45, 46
1, 240049, Note_on_c, 0, 67, 69
1, 240050, Control_c, 0, 64, 109
1, 240065, Control_c, 0, 64, 107
1, 240080, Control_c, 0, 64, 104
1, 240095, Control_c, 0, 64, 98
1, 240117, Control_c, 0, 64, 88
1, 240125, Note_off_c, 0, 65, 40
1, 240131, Control_c, 0, 64, 76
1, 240146, Control_c, 0, 64, 67
1, 240161, Control_c, 0, 64, 63
1, 240176, Control_c, 0, 64, 63
1, 240191, Control_c, 0, 64, 64
1, 240205, Control_c, 0, 64, 66
1, 240220, Control_c, 0, 64, 68
1, 240224, Note_on_c, 0, 63, 39
1, 240231, Note_on_c, 0, 60, 46
1, 240235, Control_c, 0, 64, 73
1, 240250, Control_c, 0, 64, 78
1, 240265, Control_c, 0, 64, 83
1, 240277, Note_off_c, 0, 45, 37
1, 240279, Note_off_c, 0, 63, 54
1, 240280, Control_c, 0, 64, 86
1, 240289, Note_off_c, 0, 60, 53
1, 240295, Control_c, 0, 64, 89
1, 240310, Control_c, 0, 64, 94
1, 240325, Control_c, 0, 64, 98
1, 240339, Control_c, 0, 64, 102
1, 240354, Control_c, 0, 64, 103
1, 240369, Control_c, 0, 64, 103
1, 240379, Note_on_c, 0, 55, 40
1, 240459, Note_off_c, 0, 55, 51
1, 240502, Control_c, 0, 64, 103
1, 240516, Note_on_c, 0, 60, 39
1, 240517, Control_c, 0, 64, 102
1, 240523, Note_on_c, 0, 63, 33
1, 240561, Control_c, 0, 64, 102
1, 240591, Control_c, 0, 64, 101
1, 240610, Note_off_c, 0, 60, 33
1, 240620, Control_c, 0, 64, 101
1, 240635, Control_c, 0, 64, 100
1, 240641, Note_off_c, 0, 63, 25
1, 240650, Control_c, 0, 64, 100
1, 240665, Control_c, 0, 64, 99
1, 240679, Control_c, 0, 64, 98
1, 240686, Note_on_c, 0, 45, 33
1, 240694, Note_on_c, 0, 65, 48
1, 240694, Control_c, 0, 64, 98
1, 240710, Control_c, 0, 64, 97
1, 240725, Control_c, 0, 64, 95
1, 240740, Control_c, 0, 64, 93
1, 240754, Control_c, 0, 64, 91
1, 240769, Control_c, 0, 64, 88
1, 240778, Note_off_c, 0, 67, 35
1, 240784, Control_c, 0, 64, 84
1, 240799, Control_c, 0, 64, 77
1, 240814, Control_c, 0, 64, 70
1, 240828, Control_c, 0, 64, 65
1, 240843, Control_c, 0, 64, 62
1, 240866, Control_c, 0, 64, 62
1, 240872, Note_on_c, 0, 60, 31
1, 240879, Note_on_c, 0, 63, 39
1, 240895, Control_c, 0, 64, 63
1, 240910, Control_c, 0, 64, 65
1, 240925, Control_c, 0, 64, 67
1, 240940, Control_c, 0, 64, 70
1, 240951, Note_off_c, 0, 63, 54
1, 240954, Control_c, 0, 64, 73
1, 240969, Control_c, 0, 64, 77
1, 240984, Control_c, 0, 64, 81
1, 240996, Note_off_c, 0, 60, 31
1, 240999, Control_c, 0, 64, 85
1, 241014, Control_c, 0, 64, 88
1, 241024, Note_on_c, 0, 53, 43
1, 241028, Control_c, 0, 64, 91
1, 241043, Control_c, 0, 64, 93
1, 241058, Control_c, 0, 64, 95
1, 241073, Control_c, 0, 64, 97
1, 241088, Control_c, 0, 64, 99
1, 241103, Control_c, 0, 64, 101
1, 241119, Note_off_c, 0, 53, 56
1, 241145, Note_on_c, 0, 60, 34
1, 241164, Note_on_c, 0, 63, 31
1, 241274, Note_off_c, 0, 45, 38
1, 241295, Control_c, 0, 64, 100
1, 241308, Note_on_c, 0, 66, 62
1, 241310, Control_c, 0, 64, 98
1, 241311, Note_off_c, 0, 60, 39
1, 241318, Note_off_c, 0, 63, 40
1, 241320, Note_on_c, 0, 46, 40
1, 241325, Control_c, 0, 64, 96
1, 241340, Control_c, 0, 64, 90
1, 241354, Control_c, 0, 64, 81
1, 241362, Note_off_c, 0, 65, 32
1, 241369, Control_c, 0, 64, 70
1, 241384, Control_c, 0, 64, 64
1, 241399, Control_c, 0, 64, 63
1, 241413, Control_c, 0, 64, 64
1, 241428, Control_c, 0, 64, 65
1, 241443, Control_c, 0, 64, 67
1, 241458, Note_on_c, 0, 60, 38
1, 241458, Control_c, 0, 64, 70
1, 241462, Note_on_c, 0, 63, 36
1, 241473, Control_c, 0, 64, 75
1, 241487, Control_c, 0, 64, 80
1, 241503, Control_c, 0, 64, 83
1, 241518, Control_c, 0, 64, 86
1, 241533, Control_c, 0, 64, 89
1, 241548, Control_c, 0, 64, 91
1, 241549, Note_off_c, 0, 63, 59
1, 241563, Control_c, 0, 64, 93
1, 241577, Control_c, 0, 64, 95
1, 241581, Note_off_c, 0, 60, 47
1, 241592, Control_c, 0, 64, 96
1, 241615, Control_c, 0, 64, 96
1, 241630, Control_c, 0, 64, 97
1, 241630, Note_off_c, 0, 46, 35
1, 241645, Note_on_c, 0, 54, 50
1, 241645, Control_c, 0, 64, 98
1, 241674, Control_c, 0, 64, 99
1, 241689, Control_c, 0, 64, 100
1, 241733, Note_on_c, 0, 60, 53
1, 241747, Note_on_c, 0, 63, 56
1, 241753, Note_off_c, 0, 54, 37
1, 241777, Control_c, 0, 64, 100
1, 241811, Note_off_c, 0, 60, 60
1, 241836, Control_c, 0, 64, 101
1, 241896, Note_off_c, 0, 63, 50
1, 241904, Note_on_c, 0, 67, 79
1, 241911, Control_c, 0, 64, 100
1, 241914, Note_on_c, 0, 46, 40
1, 241925, Control_c, 0, 64, 96
1, 241940, Control_c, 0, 64, 89
1, 241955, Control_c, 0, 64, 77
1, 241958, Note_off_c, 0, 66, 56
1, 241970, Control_c, 0, 64, 67
1, 241985, Control_c, 0, 64, 62
1, 242000, Control_c, 0, 64, 60
1, 242015, Control_c, 0, 64, 61
1, 242029, Control_c, 0, 64, 63
1, 242044, Control_c, 0, 64, 65
1, 242059, Note_on_c, 0, 58, 53
1, 242059, Control_c, 0, 64, 68
1, 242063, Note_on_c, 0, 62, 55
1, 242074, Control_c, 0, 64, 72
1, 242089, Control_c, 0, 64, 77
1, 242103, Control_c, 0, 64, 81
1, 242118, Control_c, 0, 64, 84
1, 242133, Control_c, 0, 64, 88
1, 242146, Note_off_c, 0, 58, 49
1, 242148, Control_c, 0, 64, 92
1, 242149, Note_off_c, 0, 62, 59
1, 242163, Control_c, 0, 64, 95
1, 242177, Control_c, 0, 64, 98
1, 242191, Note_on_c, 0, 55, 57
1, 242192, Control_c, 0, 64, 99
1, 242207, Control_c, 0, 64, 101
1, 242222, Control_c, 0, 64, 104
1, 242234, Note_off_c, 0, 46, 29
1, 242236, Control_c, 0, 64, 107
1, 242251, Control_c, 0, 64, 109
1, 242289, Note_off_c, 0, 67, 61
1, 242326, Control_c, 0, 64, 110
1, 242343, Note_on_c, 0, 58, 48
1, 242343, Note_on_c, 0, 62, 44
1, 242352, Note_off_c, 0, 55, 31
1, 242391, Note_off_c, 0, 62, 62
1, 242399, Note_off_c, 0, 58, 61
1, 242467, Control_c, 0, 64, 109
1, 242482, Control_c, 0, 64, 108
1, 242497, Control_c, 0, 64, 107
1, 242501, Note_on_c, 0, 47, 36
1, 242512, Control_c, 0, 64, 105
1, 242527, Control_c, 0, 64, 104
1, 242541, Control_c, 0, 64, 102
1, 242556, Note_on_c, 0, 69, 64
1, 242556, Control_c, 0, 64, 100
1, 242571, Control_c, 0, 64, 96
1, 242586, Control_c, 0, 64, 92
1, 242601, Control_c, 0, 64, 85
1, 242615, Control_c, 0, 64, 77
1, 242630, Control_c, 0, 64, 69
1, 242645, Control_c, 0, 64, 64
1, 242659, Control_c, 0, 64, 61
1, 242674, Control_c, 0, 64, 60
1, 242689, Control_c, 0, 64, 60
1, 242704, Control_c, 0, 64, 61
1, 242719, Control_c, 0, 64, 63
1, 242733, Control_c, 0, 64, 65
1, 242748, Control_c, 0, 64, 67
1, 242763, Control_c, 0, 64, 70
1, 242775, Note_on_c, 0, 62, 29
1, 242778, Note_on_c, 0, 65, 36
1, 242778, Control_c, 0, 64, 74
1, 242793, Control_c, 0, 64, 78
1, 242808, Control_c, 0, 64, 81
1, 242823, Control_c, 0, 64, 85
1, 242838, Control_c, 0, 64, 89
1, 242852, Control_c, 0, 64, 94
1, 242855, Note_off_c, 0, 65, 49
1, 242867, Control_c, 0, 64, 97
1, 242882, Control_c, 0, 64, 100
1, 242890, Note_off_c, 0, 62, 37
1, 242897, Control_c, 0, 64, 102
1, 242912, Control_c, 0, 64, 103
1, 242918, Note_on_c, 0, 57, 40
1, 242922, Note_off_c, 0, 47, 34
1, 242926, Control_c, 0, 64, 104
1, 242941, Control_c, 0, 64, 105
1, 242956, Control_c, 0, 64, 106
1, 242990, Note_off_c, 0, 57, 52
1, 243058, Note_on_c, 0, 62, 26
1, 243065, Note_on_c, 0, 65, 30
1, 243154, Note_off_c, 0, 62, 35
1, 243158, Note_off_c, 0, 65, 36
1, 243171, Control_c, 0, 64, 106
1, 243186, Control_c, 0, 64, 105
1, 243201, Control_c, 0, 64, 103
1, 243216, Control_c, 0, 64, 101
1, 243219, Note_on_c, 0, 67, 53
1, 243223, Note_on_c, 0, 47, 29
1, 243231, Control_c, 0, 64, 96
1, 243246, Control_c, 0, 64, 88
1, 243261, Control_c, 0, 64, 77
1, 243276, Control_c, 0, 64, 68
1, 243290, Control_c, 0, 64, 63
1, 243305, Note_off_c, 0, 69, 35
1, 243320, Control_c, 0, 64, 64
1, 243335, Control_c, 0, 64, 65
1, 243350, Control_c, 0, 64, 67
1, 243364, Control_c, 0, 64, 71
1, 243379, Control_c, 0, 64, 75
1, 243380, Note_on_c, 0, 65, 33
1, 243394, Control_c, 0, 64, 80
1, 243397, Note_on_c, 0, 62, 22
1, 243409, Control_c, 0, 64, 84
1, 243424, Control_c, 0, 64, 87
1, 243438, Control_c, 0, 64, 91
1, 243451, Note_off_c, 0, 62, 45
1, 243453, Control_c, 0, 64, 94
1, 243468, Control_c, 0, 64, 99
1, 243474, Note_off_c, 0, 47, 32
1, 243477, Note_off_c, 0, 65, 39
1, 243482, Control_c, 0, 64, 105
1, 243497, Control_c, 0, 64, 115
1, 243512, Control_c, 0, 64, 127
1, 243516, Note_on_c, 0, 55, 44
1, 243613, Note_off_c, 0, 55, 53
1, 243662, Note_on_c, 0, 65, 35
1, 243675, Note_on_c, 0, 62, 34
1, 243793, Control_c, 0, 64, 104
1, 243794, Note_on_c, 0, 48, 38
1, 243803, Note_off_c, 0, 62, 37
1, 243808, Control_c, 0, 64, 84
1, 243811, Note_on_c, 0, 68, 67
1, 243823, Control_c, 0, 64, 70
1, 243838, Control_c, 0, 64, 60
1, 243842, Note_off_c, 0, 65, 37
1, 243860, Control_c, 0, 64, 43
1, 243875, Note_off_c, 0, 67, 50
1, 243875, Control_c, 0, 64, 0
1, 243974, Note_on_c, 0, 65, 39
1, 243984, Note_on_c, 0, 62, 33
1, 244054, Control_c, 0, 64, 28
1, 244069, Control_c, 0, 64, 48
1, 244077, Note_off_c, 0, 62, 50
1, 244084, Note_off_c, 0, 65, 53
1, 244084, Control_c, 0, 64, 56
1, 244099, Control_c, 0, 64, 60
1, 244103, Note_on_c, 0, 56, 50
1, 244113, Control_c, 0, 64, 62
1, 244128, Control_c, 0, 64, 64
1, 244143, Control_c, 0, 64, 66
1, 244158, Control_c, 0, 64, 70
1, 244165, Note_off_c, 0, 48, 40
1, 244173, Control_c, 0, 64, 73
1, 244188, Control_c, 0, 64, 76
1, 244203, Control_c, 0, 64, 79
1, 244218, Control_c, 0, 64, 82
1, 244224, Note_on_c, 0, 62, 50
1, 244230, Note_on_c, 0, 65, 54
1, 244233, Control_c, 0, 64, 86
1, 244248, Control_c, 0, 64, 90
1, 244262, Control_c, 0, 64, 92
1, 244277, Control_c, 0, 64, 93
1, 244292, Control_c, 0, 64, 94
1, 244318, Note_off_c, 0, 56, 33
1, 244336, Control_c, 0, 64, 92
1, 244351, Control_c, 0, 64, 88
1, 244365, Note_off_c, 0, 62, 34
1, 244366, Control_c, 0, 64, 80
1, 244373, Note_on_c, 0, 69, 84
1, 244374, Note_on_c, 0, 48, 51
1, 244380, Control_c, 0, 64, 71
1, 244388, Note_off_c, 0, 65, 32
1, 244395, Control_c, 0, 64, 63
1, 244410, Control_c, 0, 64, 55
1, 244425, Control_c, 0, 64, 52
1, 244436, Note_off_c, 0, 68, 53
1, 244454, Control_c, 0, 64, 54
1, 244469, Control_c, 0, 64, 58
1, 244484, Control_c, 0, 64, 62
1, 244498, Control_c, 0, 64, 64
1, 244513, Control_c, 0, 64, 67
1, 244518, Note_on_c, 0, 64, 59
1, 244528, Note_on_c, 0, 60, 51
1, 244528, Control_c, 0, 64, 70
1, 244543, Control_c, 0, 64, 73
1, 244558, Control_c, 0, 64, 77
1, 244573, Control_c, 0, 64, 82
1, 244578, Note_off_c, 0, 60, 56
1, 244587, Control_c, 0, 64, 87
1, 244605, Note_off_c, 0, 64, 56
1, 244610, Control_c, 0, 64, 93
1, 244614, Note_off_c, 0, 48, 54
1, 244624, Control_c, 0, 64, 104
1, 244639, Control_c, 0, 64, 125
1, 244646, Note_on_c, 0, 57, 63
1, 244654, Control_c, 0, 64, 127
1, 244733, Note_off_c, 0, 57, 61
1, 244761, Note_on_c, 0, 64, 61
1, 244763, Note_off_c, 0, 69, 56
1, 244777, Note_on_c, 0, 60, 54
1, 244796, Note_off_c, 0, 64, 65
1, 244817, Note_off_c, 0, 60, 55
1, 244921, Note_on_c, 0, 49, 45
1, 244947, Note_on_c, 0, 70, 75
1, 244951, Control_c, 0, 64, 104
1, 244966, Control_c, 0, 64, 87
1, 244981, Control_c, 0, 64, 72
1, 244996, Control_c, 0, 64, 61
1, 245011, Control_c, 0, 64, 51
1, 245026, Control_c, 0, 64, 47
1, 245055, Control_c, 0, 64, 49
1, 245070, Control_c, 0, 64, 53
1, 245085, Control_c, 0, 64, 58
1, 245100, Control_c, 0, 64, 61
1, 245115, Control_c, 0, 64, 63
1, 245129, Control_c, 0, 64, 65
1, 245135, Note_on_c, 0, 64, 48
1, 245144, Note_on_c, 0, 67, 31
1, 245144, Control_c, 0, 64, 67
1, 245159, Control_c, 0, 64, 70
1, 245174, Control_c, 0, 64, 74
1, 245187, Note_off_c, 0, 64, 57
1, 245189, Control_c, 0, 64, 77
1, 245199, Note_off_c, 0, 67, 45
1, 245203, Control_c, 0, 64, 80
1, 245218, Control_c, 0, 64, 83
1, 245233, Control_c, 0, 64, 86
1, 245238, Note_off_c, 0, 49, 51
1, 245247, Control_c, 0, 64, 89
1, 245262, Control_c, 0, 64, 91
1, 245277, Note_on_c, 0, 58, 46
1, 245277, Control_c, 0, 64, 93
1, 245292, Control_c, 0, 64, 95
1, 245307, Control_c, 0, 64, 96
1, 245321, Control_c, 0, 64, 97
1, 245359, Control_c, 0, 64, 98
1, 245365, Note_off_c, 0, 58, 44
1, 245374, Control_c, 0, 64, 98
1, 245389, Control_c, 0, 64, 99
1, 245403, Control_c, 0, 64, 99
1, 245407, Note_on_c, 0, 64, 40
1, 245413, Note_on_c, 0, 67, 40
1, 245433, Control_c, 0, 64, 100
1, 245476, Note_off_c, 0, 64, 49
1, 245512, Note_off_c, 0, 67, 51
1, 245552, Note_on_c, 0, 49, 40
1, 245552, Control_c, 0, 64, 98
1, 245560, Note_on_c, 0, 69, 67
1, 245567, Control_c, 0, 64, 96
1, 245582, Control_c, 0, 64, 91
1, 245597, Control_c, 0, 64, 81
1, 245610, Note_off_c, 0, 70, 50
1, 245612, Control_c, 0, 64, 70
1, 245626, Control_c, 0, 64, 61
1, 245641, Control_c, 0, 64, 52
1, 245656, Control_c, 0, 64, 51
1, 245670, Control_c, 0, 64, 51
1, 245685, Control_c, 0, 64, 53
1, 245700, Control_c, 0, 64, 56
1, 245715, Control_c, 0, 64, 60
1, 245723, Note_on_c, 0, 64, 40
1, 245728, Note_on_c, 0, 67, 44
1, 245730, Control_c, 0, 64, 63
1, 245744, Control_c, 0, 64, 65
1, 245759, Control_c, 0, 64, 66
1, 245774, Control_c, 0, 64, 68
1, 245789, Control_c, 0, 64, 71
1, 245798, Note_off_c, 0, 64, 52
1, 245804, Control_c, 0, 64, 73
1, 245806, Note_off_c, 0, 67, 59
1, 245819, Control_c, 0, 64, 76
1, 245833, Control_c, 0, 64, 80
1, 245848, Control_c, 0, 64, 84
1, 245857, Note_off_c, 0, 49, 28
1, 245863, Control_c, 0, 64, 89
1, 245869, Note_on_c, 0, 57, 40
1, 245878, Control_c, 0, 64, 94
1, 245893, Control_c, 0, 64, 99
1, 245908, Control_c, 0, 64, 105
1, 245923, Control_c, 0, 64, 112
1, 245938, Control_c, 0, 64, 120
1, 245942, Note_off_c, 0, 57, 55
1, 245952, Control_c, 0, 64, 127
1, 246030, Note_on_c, 0, 64, 42
1, 246031, Note_on_c, 0, 67, 44
1, 246144, Note_off_c, 0, 64, 40
1, 246172, Note_on_c, 0, 46, 36
1, 246260, Note_on_c, 0, 74, 77
1, 246285, Control_c, 0, 64, 112
1, 246301, Control_c, 0, 64, 95
1, 246308, Note_off_c, 0, 67, 42
1, 246316, Control_c, 0, 64, 81
1, 246331, Control_c, 0, 64, 69
1, 246346, Control_c, 0, 64, 62
1, 246351, Note_off_c, 0, 69, 40
1, 246361, Control_c, 0, 64, 57
1, 246375, Control_c, 0, 64, 59
1, 246390, Control_c, 0, 64, 61
1, 246405, Control_c, 0, 64, 63
1, 246420, Control_c, 0, 64, 65
1, 246435, Control_c, 0, 64, 68
1, 246449, Note_on_c, 0, 67, 42
1, 246449, Control_c, 0, 64, 71
1, 246462, Note_on_c, 0, 64, 49
1, 246464, Control_c, 0, 64, 75
1, 246474, Note_off_c, 0, 46, 41
1, 246479, Control_c, 0, 64, 78
1, 246493, Control_c, 0, 64, 81
1, 246508, Control_c, 0, 64, 85
1, 246523, Control_c, 0, 64, 89
1, 246538, Control_c, 0, 64, 93
1, 246544, Note_off_c, 0, 67, 54
1, 246553, Control_c, 0, 64, 96
1, 246555, Note_off_c, 0, 64, 45
1, 246567, Control_c, 0, 64, 97
1, 246582, Control_c, 0, 64, 98
1, 246597, Control_c, 0, 64, 98
1, 246612, Control_c, 0, 64, 99
1, 246627, Control_c, 0, 64, 100
1, 246642, Note_on_c, 0, 62, 48
1, 246656, Control_c, 0, 64, 101
1, 246686, Control_c, 0, 64, 102
1, 246701, Control_c, 0, 64, 102
1, 246709, Note_off_c, 0, 62, 52
1, 246716, Control_c, 0, 64, 103
1, 246765, Note_on_c, 0, 67, 43
1, 246770, Note_on_c, 0, 64, 40
1, 246875, Note_off_c, 0, 64, 40
1, 246916, Control_c, 0, 64, 102
1, 246926, Note_on_c, 0, 73, 70
1, 246930, Control_c, 0, 64, 101
1, 246945, Control_c, 0, 64, 96
1, 246952, Note_off_c, 0, 74, 36
1, 246953, Note_off_c, 0, 67, 37
1, 246958, Note_on_c, 0, 46, 43
1, 246960, Control_c, 0, 64, 87
1, 246975, Control_c, 0, 64, 75
1, 246990, Control_c, 0, 64, 65
1, 247005, Control_c, 0, 64, 57
1, 247020, Control_c, 0, 64, 54
1, 247035, Control_c, 0, 64, 57
1, 247049, Control_c, 0, 64, 59
1, 247064, Control_c, 0, 64, 62
1, 247079, Control_c, 0, 64, 65
1, 247092, Note_on_c, 0, 67, 48
1, 247094, Control_c, 0, 64, 68
1, 247103, Note_on_c, 0, 64, 49
1, 247109, Control_c, 0, 64, 72
1, 247112, Note_off_c, 0, 46, 48
1, 247124, Control_c, 0, 64, 76
1, 247139, Control_c, 0, 64, 81
1, 247154, Control_c, 0, 64, 86
1, 247169, Control_c, 0, 64, 92
1, 247184, Control_c, 0, 64, 100
1, 247198, Control_c, 0, 64, 109
1, 247205, Note_off_c, 0, 67, 37
1, 247213, Control_c, 0, 64, 127
1, 247237, Note_off_c, 0, 64, 35
1, 247285, Note_on_c, 0, 61, 59
1, 247378, Note_off_c, 0, 61, 58
1, 247472, Note_on_c, 0, 67, 59
1, 247482, Note_on_c, 0, 64, 49
1, 247499, Note_off_c, 0, 73, 35
1, 247506, Note_off_c, 0, 67, 65
1, 247564, Note_off_c, 0, 64, 57
1, 247712, Note_on_c, 0, 45, 40
1, 247813, Control_c, 0, 64, 102
1, 247828, Control_c, 0, 64, 84
1, 247831, Note_on_c, 0, 77, 82
1, 247843, Control_c, 0, 64, 71
1, 247857, Control_c, 0, 64, 62
1, 247872, Control_c, 0, 64, 54
1, 247887, Control_c, 0, 64, 53
1, 247902, Control_c, 0, 64, 54
1, 247917, Control_c, 0, 64, 57
1, 247932, Control_c, 0, 64, 61
1, 247947, Control_c, 0, 64, 64
1, 247962, Control_c, 0, 64, 66
1, 247977, Control_c, 0, 64, 71
1, 247992, Control_c, 0, 64, 77
1, 248007, Control_c, 0, 64, 83
1, 248016, Note_off_c, 0, 45, 57
1, 248021, Control_c, 0, 64, 91
1, 248036, Control_c, 0, 64, 100
1, 248051, Control_c, 0, 64, 119
1, 248066, Control_c, 0, 64, 127
1, 248160, Note_on_c, 0, 67, 40
1, 248167, Note_on_c, 0, 69, 39
1, 248242, Note_off_c, 0, 69, 47
1, 248288, Note_off_c, 0, 67, 34
1, 248380, Note_on_c, 0, 65, 54
1, 248382, Note_on_c, 0, 61, 53
1, 248585, Note_on_c, 0, 67, 37
1, 248585, Note_on_c, 0, 69, 38
1, 248645, Note_off_c, 0, 61, 32
1, 248667, Note_off_c, 0, 65, 24
1, 248680, Note_off_c, 0, 67, 47
1, 248692, Note_off_c, 0, 69, 39
1, 248750, Note_on_c, 0, 57, 58
1, 248768, Control_c, 0, 64, 95
1, 248783, Control_c, 0, 64, 76
1, 248798, Control_c, 0, 64, 65
1, 248813, Control_c, 0, 64, 60
1, 248828, Control_c, 0, 64, 62
1, 248842, Control_c, 0, 64, 64
1, 248857, Control_c, 0, 64, 66
1, 248872, Control_c, 0, 64, 71
1, 248887, Control_c, 0, 64, 77
1, 248901, Control_c, 0, 64, 85
1, 248916, Control_c, 0, 64, 91
1, 248931, Control_c, 0, 64, 96
1, 248935, Note_on_c, 0, 67, 38
1, 248936, Note_on_c, 0, 69, 44
1, 248946, Control_c, 0, 64, 104
1, 248950, Note_off_c, 0, 77, 57
1, 248961, Control_c, 0, 64, 125
1, 248975, Control_c, 0, 64, 127
1, 249008, Note_off_c, 0, 69, 48
1, 249062, Note_off_c, 0, 57, 33
1, 249178, Note_off_c, 0, 67, 34
1, 249199, Note_on_c, 0, 64, 43
1, 249201, Note_on_c, 0, 61, 42
1, 249205, Note_on_c, 0, 76, 71
1, 249339, Note_off_c, 0, 64, 57
1, 249366, Note_off_c, 0, 61, 56
1, 249470, Note_off_c, 0, 76, 57
1, 249494, Note_on_c, 0, 69, 46
1, 249510, Note_on_c, 0, 67, 41
1, 249551, Note_off_c, 0, 69, 58
1, 249688, Note_off_c, 0, 67, 41
1, 249786, Note_on_c, 0, 50, 39
1, 249813, Control_c, 0, 64, 114
1, 249828, Control_c, 0, 64, 82
1, 249851, Control_c, 0, 64, 67
1, 249865, Control_c, 0, 64, 57
1, 249867, Note_on_c, 0, 74, 72
1, 249880, Control_c, 0, 64, 52
1, 249895, Control_c, 0, 64, 53
1, 249910, Control_c, 0, 64, 55
1, 249924, Control_c, 0, 64, 60
1, 249939, Control_c, 0, 64, 63
1, 249954, Control_c, 0, 64, 67
1, 249969, Control_c, 0, 64, 72
1, 249984, Control_c, 0, 64, 81
1, 249998, Control_c, 0, 64, 98
1, 250013, Control_c, 0, 64, 127
1, 250053, Note_off_c, 0, 74, 54
1, 250215, Note_on_c, 0, 69, 79
1, 250221, Note_on_c, 0, 65, 67
1, 250254, Note_off_c, 0, 65, 62
1, 250262, Note_off_c, 0, 69, 62
1, 250631, Note_on_c, 0, 65, 80
1, 250635, Note_on_c, 0, 62, 69
1, 250672, Note_off_c, 0, 62, 60
1, 250700, Note_off_c, 0, 65, 61
1, 250809, Note_off_c, 0, 50, 28
1, 251098, Note_on_c, 0, 62, 87
1, 251101, Note_on_c, 0, 57, 73
1, 251199, Note_off_c, 0, 57, 63
1, 251208, Note_off_c, 0, 62, 61
1, 251542, Control_c, 0, 64, 75
1, 251557, Control_c, 0, 64, 53
1, 251571, Control_c, 0, 64, 43
1, 251586, Control_c, 0, 64, 57
1, 251590, Note_on_c, 0, 50, 90
1, 251595, Note_on_c, 0, 38, 85
1, 251601, Control_c, 0, 64, 66
1, 251616, Control_c, 0, 64, 77
1, 251616, Note_off_c, 0, 50, 67
1, 251625, Note_off_c, 0, 38, 65
1, 251631, Control_c, 0, 64, 110
1, 251645, Control_c, 0, 64, 127
1, 251682, Note_on_c, 0, 38, 78
1, 251685, Note_on_c, 0, 50, 84
1, 251708, Note_off_c, 0, 38, 69
1, 251731, Note_off_c, 0, 50, 62
1, 251795, Note_on_c, 0, 53, 80
1, 251799, Note_on_c, 0, 57, 79
1, 251824, Note_off_c, 0, 53, 67
1, 251835, Note_off_c, 0, 57, 63
1, 251872, Note_on_c, 0, 57, 73
1, 251881, Note_on_c, 0, 53, 75
1, 251911, Note_off_c, 0, 53, 65
1, 251911, Note_off_c, 0, 57, 60
1, 251942, Control_c, 0, 64, 93
1, 251957, Control_c, 0, 64, 67
1, 251962, Note_on_c, 0, 57, 80
1, 251972, Control_c, 0, 64, 0
1, 251973, Note_on_c, 0, 53, 72
1, 251984, Note_off_c, 0, 57, 67
1, 251993, Note_off_c, 0, 53, 71
1, 252034, Note_on_c, 0, 57, 79
1, 252042, Note_on_c, 0, 53, 69
1, 252059, Note_off_c, 0, 57, 64
1, 252072, Note_off_c, 0, 53, 65
1, 252132, Note_on_c, 0, 65, 76
1, 252137, Note_on_c, 0, 62, 61
1, 252176, Note_off_c, 0, 62, 59
1, 252188, Note_off_c, 0, 65, 60
1, 252195, Note_on_c, 0, 57, 62
1, 252203, Note_on_c, 0, 53, 74
1, 252230, Note_off_c, 0, 57, 69
1, 252236, Note_off_c, 0, 53, 66
1, 252275, Control_c, 0, 64, 57
1, 252283, Note_on_c, 0, 50, 78
1, 252290, Control_c, 0, 64, 63
1, 252293, Note_on_c, 0, 38, 66
1, 252305, Control_c, 0, 64, 65
1, 252310, Note_off_c, 0, 50, 66
1, 252320, Control_c, 0, 64, 70
1, 252322, Note_off_c, 0, 38, 64
1, 252335, Control_c, 0, 64, 78
1, 252350, Control_c, 0, 64, 90
1, 252364, Note_on_c, 0, 50, 77
1, 252365, Control_c, 0, 64, 97
1, 252380, Control_c, 0, 64, 103
1, 252394, Control_c, 0, 64, 107
1, 252397, Note_off_c, 0, 50, 65
1, 252409, Control_c, 0, 64, 107
1, 252434, Poly_aftertouch_c, 0, 38, 127
1, 252451, Note_on_c, 0, 57, 68
1, 252454, Note_on_c, 0, 52, 66
1, 252454, Control_c, 0, 64, 105
1, 252468, Control_c, 0, 64, 102
1, 252474, Poly_aftertouch_c, 0, 38, 0
1, 252480, Note_off_c, 0, 52, 65
1, 252481, Note_off_c, 0, 57, 65
1, 252483, Control_c, 0, 64, 96
1, 252498, Control_c, 0, 64, 87
1, 252512, Control_c, 0, 64, 75
1, 252527, Control_c, 0, 64, 62
1, 252533, Note_on_c, 0, 52, 71
1, 252533, Note_on_c, 0, 57, 74
1, 252542, Control_c, 0, 64, 42
1, 252557, Control_c, 0, 64, 0
1, 252559, Note_off_c, 0, 57, 68
1, 252563, Note_off_c, 0, 52, 67
1, 252613, Note_on_c, 0, 56, 74
1, 252615, Note_on_c, 0, 52, 74
1, 252642, Note_off_c, 0, 52, 68
1, 252642, Note_off_c, 0, 56, 68
1, 252690, Note_on_c, 0, 52, 70
1, 252695, Note_on_c, 0, 56, 64
1, 252713, Note_off_c, 0, 56, 65
1, 252719, Note_off_c, 0, 52, 67
1, 252774, Note_on_c, 0, 64, 66
1, 252776, Note_on_c, 0, 62, 63
1, 252816, Note_off_c, 0, 62, 63
1, 252821, Note_off_c, 0, 64, 61
1, 252851, Note_on_c, 0, 52, 60
1, 252853, Note_on_c, 0, 56, 57
1, 252883, Note_off_c, 0, 52, 66
1, 252886, Note_off_c, 0, 56, 65
1, 252948, Note_on_c, 0, 50, 69
1, 252950, Control_c, 0, 64, 56
1, 252954, Note_on_c, 0, 38, 65
1, 252965, Control_c, 0, 64, 65
1, 252976, Note_off_c, 0, 50, 66
1, 252980, Control_c, 0, 64, 67
1, 252988, Note_off_c, 0, 38, 63
1, 252995, Control_c, 0, 64, 74
1, 253009, Control_c, 0, 64, 93
1, 253023, Note_on_c, 0, 50, 86
1, 253024, Control_c, 0, 64, 127
1, 253027, Note_on_c, 0, 38, 67
1, 253054, Note_off_c, 0, 38, 61
1, 253056, Note_off_c, 0, 50, 67
1, 253107, Note_on_c, 0, 62, 77
1, 253108, Note_on_c, 0, 58, 77
1, 253135, Note_off_c, 0, 58, 67
1, 253137, Note_off_c, 0, 62, 65
1, 253181, Note_on_c, 0, 62, 72
1, 253182, Note_on_c, 0, 58, 83
1, 253203, Note_off_c, 0, 58, 71
1, 253216, Note_off_c, 0, 62, 65
1, 253216, Control_c, 0, 64, 108
1, 253231, Control_c, 0, 64, 79
1, 253246, Control_c, 0, 64, 64
1, 253261, Control_c, 0, 64, 47
1, 253262, Note_on_c, 0, 58, 84
1, 253270, Note_on_c, 0, 61, 55
1, 253274, Note_on_c, 0, 62, 86
1, 253276, Control_c, 0, 64, 0
1, 253292, Note_off_c, 0, 61, 62
1, 253298, Note_off_c, 0, 62, 67
1, 253324, Note_off_c, 0, 58, 0
1, 253339, Note_on_c, 0, 58, 59
1, 253349, Note_on_c, 0, 62, 64
1, 253365, Note_off_c, 0, 58, 66
1, 253370, Note_off_c, 0, 62, 43
1, 253417, Note_on_c, 0, 70, 79
1, 253420, Note_on_c, 0, 67, 69
1, 253455, Note_off_c, 0, 67, 59
1, 253486, Note_off_c, 0, 70, 62
1, 253490, Note_on_c, 0, 58, 71
1, 253490, Note_on_c, 0, 62, 62
1, 253518, Note_off_c, 0, 58, 67
1, 253519, Note_off_c, 0, 62, 65
1, 253573, Note_on_c, 0, 38, 66
1, 253588, Note_on_c, 0, 50, 52
1, 253595, Control_c, 0, 64, 48
1, 253608, Note_off_c, 0, 38, 61
1, 253610, Control_c, 0, 64, 63
1, 253614, Note_off_c, 0, 50, 56
1, 253625, Control_c, 0, 64, 64
1, 253639, Control_c, 0, 64, 67
1, 253654, Control_c, 0, 64, 73
1, 253667, Note_on_c, 0, 50, 68
1, 253667, Note_on_c, 0, 38, 62
1, 253669, Control_c, 0, 64, 80
1, 253684, Control_c, 0, 64, 86
1, 253692, Note_off_c, 0, 50, 64
1, 253696, Note_off_c, 0, 38, 56
1, 253699, Control_c, 0, 64, 88
1, 253713, Control_c, 0, 64, 90
1, 253728, Control_c, 0, 64, 91
1, 253736, Note_on_c, 0, 57, 67
1, 253736, Note_on_c, 0, 62, 68
1, 253743, Control_c, 0, 64, 92
1, 253765, Note_off_c, 0, 57, 67
1, 253765, Note_off_c, 0, 62, 67
1, 253787, Control_c, 0, 64, 91
1, 253802, Control_c, 0, 64, 89
1, 253815, Note_on_c, 0, 62, 75
1, 253817, Control_c, 0, 64, 85
1, 253822, Note_on_c, 0, 57, 62
1, 253831, Control_c, 0, 64, 77
1, 253838, Note_off_c, 0, 57, 67
1, 253842, Note_off_c, 0, 62, 66
1, 253846, Control_c, 0, 64, 67
1, 253861, Control_c, 0, 64, 56
1, 253876, Control_c, 0, 64, 30
1, 253891, Note_on_c, 0, 57, 78
1, 253891, Control_c, 0, 64, 0
1, 253895, Note_on_c, 0, 61, 75
1, 253918, Note_off_c, 0, 61, 68
1, 253923, Note_off_c, 0, 57, 65
1, 253963, Note_on_c, 0, 61, 83
1, 253968, Note_on_c, 0, 57, 68
1, 253983, Note_off_c, 0, 61, 70
1, 253999, Note_off_c, 0, 57, 66
1, 254041, Note_on_c, 0, 69, 79
1, 254054, Note_on_c, 0, 67, 58
1, 254085, Note_off_c, 0, 67, 65
1, 254085, Note_off_c, 0, 69, 61
1, 254117, Note_on_c, 0, 57, 57
1, 254123, Note_on_c, 0, 61, 46
1, 254148, Note_off_c, 0, 61, 56
1, 254150, Note_off_c, 0, 57, 66
1, 254198, Note_on_c, 0, 50, 57
1, 254203, Control_c, 0, 64, 60
1, 254208, Note_on_c, 0, 38, 48
1, 254218, Control_c, 0, 64, 63
1, 254222, Note_off_c, 0, 50, 58
1, 254232, Control_c, 0, 64, 66
1, 254247, Control_c, 0, 64, 72
1, 254254, Note_off_c, 0, 38, 0
1, 254262, Control_c, 0, 64, 85
1, 254270, Note_on_c, 0, 38, 38
1, 254277, Control_c, 0, 64, 106
1, 254285, Note_on_c, 0, 50, 56
1, 254293, Control_c, 0, 64, 127
1, 254308, Note_off_c, 0, 50, 62
1, 254309, Note_off_c, 0, 38, 52
1, 254343, Note_on_c, 0, 65, 80
1, 254348, Note_on_c, 0, 62, 76
1, 254368, Note_off_c, 0, 65, 67
1, 254373, Note_off_c, 0, 62, 69
1, 254389, Control_c, 0, 64, 113
1, 254404, Control_c, 0, 64, 93
1, 254418, Control_c, 0, 64, 80
1, 254423, Note_on_c, 0, 65, 83
1, 254433, Control_c, 0, 64, 68
1, 254434, Note_on_c, 0, 62, 61
1, 254442, Note_off_c, 0, 65, 71
1, 254448, Control_c, 0, 64, 56
1, 254453, Note_off_c, 0, 62, 66
1, 254463, Control_c, 0, 64, 0
1, 254495, Note_on_c, 0, 64, 93
1, 254496, Note_on_c, 0, 60, 85
1, 254517, Note_off_c, 0, 64, 69
1, 254527, Note_off_c, 0, 60, 67
1, 254573, Note_on_c, 0, 60, 85
1, 254591, Note_on_c, 0, 64, 57
1, 254597, Note_off_c, 0, 60, 69
1, 254615, Note_off_c, 0, 64, 42
1, 254638, Note_on_c, 0, 69, 92
1, 254690, Note_off_c, 0, 69, 61
1, 254710, Note_on_c, 0, 64, 75
1, 254716, Note_on_c, 0, 60, 73
1, 254742, Note_off_c, 0, 64, 66
1, 254758, Note_off_c, 0, 60, 66
1, 254788, Control_c, 0, 64, 59
1, 254797, Note_on_c, 0, 50, 68
1, 254799, Note_on_c, 0, 38, 69
1, 254803, Control_c, 0, 64, 61
1, 254818, Control_c, 0, 64, 64
1, 254824, Note_off_c, 0, 50, 64
1, 254825, Note_off_c, 0, 38, 65
1, 254833, Control_c, 0, 64, 69
1, 254848, Control_c, 0, 64, 78
1, 254863, Note_on_c, 0, 50, 77
1, 254863, Control_c, 0, 64, 92
1, 254869, Note_on_c, 0, 38, 65
1, 254877, Control_c, 0, 64, 105
1, 254892, Control_c, 0, 64, 120
1, 254898, Note_off_c, 0, 50, 66
1, 254901, Note_off_c, 0, 38, 62
1, 254907, Control_c, 0, 64, 122
1, 254922, Control_c, 0, 64, 111
1, 254937, Control_c, 0, 64, 100
1, 254939, Note_on_c, 0, 58, 79
1, 254943, Note_on_c, 0, 62, 77
1, 254952, Control_c, 0, 64, 87
1, 254966, Note_off_c, 0, 58, 69
1, 254967, Control_c, 0, 64, 75
1, 254971, Note_off_c, 0, 62, 67
1, 254981, Control_c, 0, 64, 65
1, 254996, Control_c, 0, 64, 56
1, 255011, Control_c, 0, 64, 50
1, 255019, Note_on_c, 0, 58, 80
1, 255019, Note_on_c, 0, 62, 72
1, 255026, Control_c, 0, 64, 45
1, 255041, Control_c, 0, 64, 23
1, 255046, Note_off_c, 0, 58, 66
1, 255046, Note_off_c, 0, 62, 66
1, 255055, Control_c, 0, 64, 0
1, 255107, Note_on_c, 0, 57, 74
1, 255108, Note_on_c, 0, 60, 80
1, 255131, Note_off_c, 0, 60, 70
1, 255137, Note_off_c, 0, 57, 67
1, 255180, Note_on_c, 0, 57, 80
1, 255186, Note_on_c, 0, 60, 56
1, 255203, Note_off_c, 0, 57, 71
1, 255214, Note_off_c, 0, 60, 56
1, 255262, Note_on_c, 0, 65, 75
1, 255301, Note_off_c, 0, 65, 61
1, 255329, Note_on_c, 0, 60, 63
1, 255330, Note_on_c, 0, 57, 63
1, 255358, Note_off_c, 0, 60, 67
1, 255363, Note_off_c, 0, 57, 65
1, 255390, Control_c, 0, 64, 36
1, 255405, Control_c, 0, 64, 59
1, 255412, Note_on_c, 0, 31, 61
1, 255414, Note_on_c, 0, 43, 62
1, 255419, Control_c, 0, 64, 61
1, 255434, Control_c, 0, 64, 65
1, 255446, Note_off_c, 0, 43, 63
1, 255449, Control_c, 0, 64, 70
1, 255464, Control_c, 0, 64, 78
1, 255479, Control_c, 0, 64, 89
1, 255486, Note_off_c, 0, 31, 64
1, 255488, Note_on_c, 0, 43, 64
1, 255493, Control_c, 0, 64, 98
1, 255508, Control_c, 0, 64, 106
1, 255518, Note_off_c, 0, 43, 65
1, 255523, Control_c, 0, 64, 111
1, 255537, Control_c, 0, 64, 112
1, 255561, Note_on_c, 0, 57, 62
1, 255563, Note_on_c, 0, 60, 66
1, 255567, Control_c, 0, 64, 110
1, 255582, Control_c, 0, 64, 104
1, 255592, Note_off_c, 0, 60, 65
1, 255593, Note_off_c, 0, 57, 66
1, 255597, Control_c, 0, 64, 97
1, 255611, Control_c, 0, 64, 87
1, 255626, Control_c, 0, 64, 77
1, 255641, Control_c, 0, 64, 68
1, 255646, Note_on_c, 0, 57, 57
1, 255648, Note_on_c, 0, 60, 66
1, 255656, Control_c, 0, 64, 60
1, 255668, Note_off_c, 0, 60, 64
1, 255669, Note_off_c, 0, 57, 60
1, 255671, Control_c, 0, 64, 44
1, 255685, Control_c, 0, 64, 0
1, 255709, Note_on_c, 0, 55, 67
1, 255709, Note_on_c, 0, 58, 71
1, 255738, Note_off_c, 0, 58, 66
1, 255739, Note_off_c, 0, 55, 64
1, 255790, Note_on_c, 0, 58, 59
1, 255799, Note_on_c, 0, 55, 63
1, 255811, Note_off_c, 0, 58, 58
1, 255822, Note_off_c, 0, 55, 38
1, 255867, Note_on_c, 0, 64, 69
1, 255921, Note_off_c, 0, 64, 61
1, 255939, Note_on_c, 0, 58, 40
1, 255945, Note_on_c, 0, 55, 51
1, 255979, Note_off_c, 0, 58, 65
1, 255982, Note_off_c, 0, 55, 64
1, 256005, Control_c, 0, 64, 34
1, 256020, Control_c, 0, 64, 55
1, 256022, Note_on_c, 0, 45, 53
1, 256028, Note_on_c, 0, 33, 54
1, 256034, Control_c, 0, 64, 62
1, 256049, Control_c, 0, 64, 66
1, 256053, Note_off_c, 0, 45, 64
1, 256064, Control_c, 0, 64, 71
1, 256079, Control_c, 0, 64, 82
1, 256091, Note_off_c, 0, 33, 0
1, 256091, Note_on_c, 0, 33, 34
1, 256094, Control_c, 0, 64, 97
1, 256095, Note_on_c, 0, 45, 51
1, 256109, Control_c, 0, 64, 127
1, 256122, Note_off_c, 0, 33, 55
1, 256132, Note_off_c, 0, 45, 60
1, 256168, Note_on_c, 0, 55, 64
1, 256171, Note_on_c, 0, 57, 55
1, 256200, Note_off_c, 0, 55, 65
1, 256200, Note_off_c, 0, 57, 64
1, 256256, Note_on_c, 0, 57, 58
1, 256257, Control_c, 0, 64, 102
1, 256260, Note_on_c, 0, 55, 50
1, 256272, Control_c, 0, 64, 81
1, 256283, Note_off_c, 0, 55, 60
1, 256287, Note_off_c, 0, 57, 54
1, 256287, Control_c, 0, 64, 65
1, 256302, Control_c, 0, 64, 49
1, 256316, Control_c, 0, 64, 0
1, 256329, Note_on_c, 0, 57, 65
1, 256332, Note_on_c, 0, 55, 66
1, 256363, Note_off_c, 0, 57, 59
1, 256402, Note_off_c, 0, 55, 62
1, 256469, Note_on_c, 0, 61, 69
1, 256508, Note_off_c, 0, 61, 62
1, 256548, Note_on_c, 0, 57, 69
1, 256556, Note_on_c, 0, 55, 52
1, 256583, Note_off_c, 0, 57, 66
1, 256589, Note_off_c, 0, 55, 56
1, 256627, Note_on_c, 0, 50, 71
1, 256633, Note_on_c, 0, 38, 68
1, 256649, Control_c, 0, 64, 62
1, 256652, Note_off_c, 0, 50, 67
1, 256664, Control_c, 0, 64, 67
1, 256665, Note_off_c, 0, 38, 63
1, 256680, Control_c, 0, 64, 72
1, 256695, Control_c, 0, 64, 82
1, 256702, Note_on_c, 0, 50, 85
1, 256710, Control_c, 0, 64, 115
1, 256711, Note_on_c, 0, 38, 55
1, 256725, Control_c, 0, 64, 127
1, 256729, Note_off_c, 0, 50, 69
1, 256737, Note_off_c, 0, 38, 57
1, 256775, Note_on_c, 0, 65, 83
1, 256777, Note_on_c, 0, 69, 86
1, 256796, Note_off_c, 0, 65, 70
1, 256801, Note_off_c, 0, 69, 65
1, 256856, Note_on_c, 0, 69, 91
1, 256857, Note_on_c, 0, 65, 82
1, 256882, Note_off_c, 0, 65, 69
1, 256884, Note_off_c, 0, 69, 66
1, 256902, Control_c, 0, 64, 125
1, 256917, Control_c, 0, 64, 78
1, 256930, Note_on_c, 0, 69, 91
1, 256931, Control_c, 0, 64, 60
1, 256932, Note_on_c, 0, 65, 82
1, 256946, Note_off_c, 0, 69, 69
1, 256946, Control_c, 0, 64, 0
1, 256955, Note_off_c, 0, 65, 65
1, 257002, Note_on_c, 0, 65, 75
1, 257007, Note_on_c, 0, 69, 78
1, 257023, Note_off_c, 0, 69, 69
1, 257027, Note_off_c, 0, 65, 67
1, 257068, Note_on_c, 0, 74, 80
1, 257071, Note_on_c, 0, 77, 87
1, 257125, Note_off_c, 0, 77, 56
1, 257133, Note_on_c, 0, 69, 44
1, 257142, Note_on_c, 0, 65, 71
1, 257161, Note_off_c, 0, 74, 59
1, 257172, Note_off_c, 0, 69, 65
1, 257175, Note_off_c, 0, 65, 65
1, 257219, Note_on_c, 0, 64, 79
1, 257226, Note_on_c, 0, 52, 73
1, 257242, Note_off_c, 0, 64, 70
1, 257242, Control_c, 0, 64, 60
1, 257253, Note_off_c, 0, 52, 65
1, 257256, Control_c, 0, 64, 66
1, 257271, Control_c, 0, 64, 70
1, 257286, Control_c, 0, 64, 77
1, 257294, Note_on_c, 0, 64, 77
1, 257301, Control_c, 0, 64, 91
1, 257302, Poly_aftertouch_c, 0, 52, 0
1, 257315, Note_off_c, 0, 64, 70
1, 257316, Control_c, 0, 64, 110
1, 257338, Control_c, 0, 64, 127
1, 257370, Note_on_c, 0, 69, 72
1, 257378, Note_on_c, 0, 64, 63
1, 257395, Note_off_c, 0, 69, 68
1, 257405, Note_off_c, 0, 64, 69
1, 257412, Control_c, 0, 64, 122
1, 257427, Control_c, 0, 64, 112
1, 257442, Control_c, 0, 64, 100
1, 257452, Note_on_c, 0, 64, 66
1, 257452, Note_on_c, 0, 69, 71
1, 257456, Control_c, 0, 64, 84
1, 257471, Control_c, 0, 64, 66
1, 257473, Note_off_c, 0, 69, 71
1, 257480, Note_off_c, 0, 64, 68
1, 257487, Control_c, 0, 64, 46
1, 257502, Control_c, 0, 64, 0
1, 257528, Note_on_c, 0, 68, 73
1, 257539, Note_on_c, 0, 64, 62
1, 257554, Note_off_c, 0, 68, 69
1, 257557, Note_off_c, 0, 64, 64
1, 257620, Note_on_c, 0, 64, 59
1, 257641, Note_off_c, 0, 64, 42
1, 257668, Note_on_c, 0, 74, 61
1, 257672, Note_on_c, 0, 76, 63
1, 257701, Note_off_c, 0, 76, 65
1, 257703, Note_off_c, 0, 74, 66
1, 257741, Note_on_c, 0, 64, 58
1, 257753, Note_on_c, 0, 68, 54
1, 257775, Note_off_c, 0, 68, 61
1, 257783, Note_off_c, 0, 64, 62
1, 257829, Control_c, 0, 64, 52
1, 257838, Note_on_c, 0, 48, 45
1, 257843, Control_c, 0, 64, 62
1, 257855, Note_on_c, 0, 60, 13
1, 257858, Control_c, 0, 64, 66
1, 257873, Control_c, 0, 64, 73
1, 257888, Control_c, 0, 64, 86
1, 257894, Note_off_c, 0, 48, 0
1, 257894, Note_on_c, 0, 48, 37
1, 257903, Control_c, 0, 64, 127
1, 257927, Note_off_c, 0, 48, 51
1, 257937, Note_off_c, 0, 60, 62
1, 257976, Note_on_c, 0, 63, 56
1, 257977, Note_on_c, 0, 67, 56
1, 258051, Note_off_c, 0, 67, 59
1, 258052, Note_off_c, 0, 63, 57
1, 258066, Control_c, 0, 64, 100
1, 258088, Control_c, 0, 64, 72
1, 258103, Control_c, 0, 64, 53
1, 258118, Control_c, 0, 64, 0
1, 258133, Note_on_c, 0, 63, 64
1, 258139, Note_on_c, 0, 67, 68
1, 258152, Note_off_c, 0, 63, 64
1, 258156, Note_off_c, 0, 67, 66
1, 258269, Note_on_c, 0, 75, 70
1, 258281, Note_on_c, 0, 72, 57
1, 258307, Note_off_c, 0, 75, 60
1, 258315, Note_off_c, 0, 72, 63
1, 258344, Note_on_c, 0, 67, 58
1, 258356, Note_on_c, 0, 63, 51
1, 258373, Note_off_c, 0, 67, 64
1, 258380, Note_off_c, 0, 63, 62
1, 258415, Control_c, 0, 64, 30
1, 258420, Note_on_c, 0, 62, 58
1, 258421, Note_on_c, 0, 50, 64
1, 258429, Control_c, 0, 64, 59
1, 258444, Control_c, 0, 64, 63
1, 258449, Note_off_c, 0, 50, 65
1, 258452, Note_off_c, 0, 62, 65
1, 258459, Control_c, 0, 64, 67
1, 258474, Control_c, 0, 64, 74
1, 258489, Control_c, 0, 64, 90
1, 258499, Note_on_c, 0, 50, 45
1, 258502, Note_on_c, 0, 62, 51
1, 258504, Control_c, 0, 64, 114
1, 258519, Control_c, 0, 64, 127
1, 258525, Note_off_c, 0, 50, 57
1, 258529, Note_off_c, 0, 62, 57
1, 258567, Note_on_c, 0, 67, 63
1, 258568, Note_on_c, 0, 62, 51
1, 258597, Note_off_c, 0, 67, 64
1, 258600, Note_off_c, 0, 62, 64
1, 258662, Note_on_c, 0, 67, 55
1, 258666, Note_on_c, 0, 62, 35
1, 258667, Control_c, 0, 64, 104
1, 258681, Note_off_c, 0, 67, 64
1, 258682, Control_c, 0, 64, 83
1, 258696, Note_off_c, 0, 62, 0
1, 258697, Control_c, 0, 64, 68
1, 258709, Poly_aftertouch_c, 0, 62, 0
1, 258711, Note_on_c, 0, 66, 78
1, 258711, Control_c, 0, 64, 56
1, 258724, Note_on_c, 0, 62, 45
1, 258726, Control_c, 0, 64, 31
1, 258735, Note_off_c, 0, 66, 69
1, 258741, Control_c, 0, 64, 0
1, 258753, Note_off_c, 0, 62, 55
1, 258792, Note_on_c, 0, 62, 65
1, 258796, Note_on_c, 0, 66, 67
1, 258812, Note_off_c, 0, 66, 66
1, 258821, Note_off_c, 0, 62, 67
1, 258860, Note_on_c, 0, 72, 67
1, 258864, Note_on_c, 0, 74, 67
1, 258892, Note_off_c, 0, 74, 68
1, 258897, Note_off_c, 0, 72, 66
1, 258929, Note_on_c, 0, 66, 60
1, 258934, Note_on_c, 0, 62, 61
1, 258958, Note_off_c, 0, 66, 65
1, 258966, Note_off_c, 0, 62, 65
1, 259000, Note_on_c, 0, 55, 66
1, 259000, Control_c, 0, 64, 16
1, 259006, Note_on_c, 0, 43, 66
1, 259015, Control_c, 0, 64, 53
1, 259030, Control_c, 0, 64, 63
1, 259031, Note_off_c, 0, 55, 61
1, 259045, Control_c, 0, 64, 67
1, 259051, Note_off_c, 0, 43, 0
1, 259060, Control_c, 0, 64, 76
1, 259075, Control_c, 0, 64, 93
1, 259080, Poly_aftertouch_c, 0, 43, 0
1, 259090, Control_c, 0, 64, 127
1, 259095, Poly_aftertouch_c, 0, 55, 0
1, 259132, Note_on_c, 0, 70, 71
1, 259141, Note_on_c, 0, 67, 60
1, 259160, Note_off_c, 0, 70, 67
1, 259170, Note_off_c, 0, 67, 64
1, 259206, Note_on_c, 0, 70, 72
1, 259220, Note_on_c, 0, 67, 44
1, 259222, Control_c, 0, 64, 116
1, 259235, Note_off_c, 0, 70, 67
1, 259237, Control_c, 0, 64, 93
1, 259241, Note_off_c, 0, 67, 62
1, 259251, Control_c, 0, 64, 77
1, 259266, Control_c, 0, 64, 64
1, 259281, Control_c, 0, 64, 32
1, 259283, Note_on_c, 0, 57, 50
1, 259287, Note_on_c, 0, 66, 70
1, 259290, Note_on_c, 0, 69, 72
1, 259296, Control_c, 0, 64, 0
1, 259297, Note_on_c, 0, 63, 55
1, 259313, Note_off_c, 0, 66, 66
1, 259317, Note_off_c, 0, 69, 65
1, 259322, Note_off_c, 0, 57, 62
1, 259324, Note_off_c, 0, 63, 63
1, 259363, Note_on_c, 0, 66, 69
1, 259369, Note_on_c, 0, 63, 64
1, 259370, Note_on_c, 0, 69, 46
1, 259377, Note_on_c, 0, 60, 37
1, 259391, Note_off_c, 0, 66, 67
1, 259396, Note_off_c, 0, 69, 35
1, 259399, Note_off_c, 0, 63, 64
1, 259403, Note_off_c, 0, 60, 52
1, 259431, Note_on_c, 0, 81, 73
1, 259480, Note_off_c, 0, 81, 61
1, 259501, Note_on_c, 0, 69, 65
1, 259510, Note_on_c, 0, 72, 47
1, 259534, Note_off_c, 0, 69, 65
1, 259535, Note_off_c, 0, 72, 57
1, 259579, Note_on_c, 0, 58, 74
1, 259584, Control_c, 0, 64, 38
1, 259591, Note_on_c, 0, 46, 60
1, 259599, Control_c, 0, 64, 53
1, 259608, Note_off_c, 0, 58, 66
1, 259614, Control_c, 0, 64, 59
1, 259615, Note_off_c, 0, 46, 60
1, 259629, Control_c, 0, 64, 64
1, 259644, Control_c, 0, 64, 67
1, 259656, Note_on_c, 0, 58, 76
1, 259658, Note_on_c, 0, 46, 53
1, 259659, Control_c, 0, 64, 70
1, 259674, Control_c, 0, 64, 73
1, 259684, Note_off_c, 0, 58, 65
1, 259685, Note_off_c, 0, 46, 59
1, 259689, Control_c, 0, 64, 75
1, 259718, Control_c, 0, 64, 74
1, 259721, Note_on_c, 0, 67, 75
1, 259728, Note_on_c, 0, 62, 59
1, 259733, Control_c, 0, 64, 71
1, 259745, Note_off_c, 0, 67, 69
1, 259748, Control_c, 0, 64, 66
1, 259763, Control_c, 0, 64, 62
1, 259766, Note_off_c, 0, 62, 56
1, 259777, Control_c, 0, 64, 55
1, 259792, Control_c, 0, 64, 50
1, 259799, Note_on_c, 0, 67, 81
1, 259807, Control_c, 0, 64, 48
1, 259808, Poly_aftertouch_c, 0, 62, 0
1, 259819, Note_off_c, 0, 67, 72
1, 259822, Control_c, 0, 64, 45
1, 259837, Control_c, 0, 64, 41
1, 259852, Control_c, 0, 64, 38
1, 259866, Control_c, 0, 64, 37
1, 259873, Note_on_c, 0, 65, 74
1, 259882, Note_on_c, 0, 62, 63
1, 259882, Control_c, 0, 64, 35
1, 259887, Note_on_c, 0, 59, 50
1, 259897, Control_c, 0, 64, 32
1, 259899, Note_off_c, 0, 65, 65
1, 259911, Note_off_c, 0, 59, 58
1, 259911, Note_off_c, 0, 62, 66
1, 259912, Control_c, 0, 64, 24
1, 259927, Control_c, 0, 64, 0
1, 259971, Note_on_c, 0, 62, 55
1, 259993, Note_off_c, 0, 62, 60
1, 260008, Note_on_c, 0, 74, 79
1, 260061, Note_off_c, 0, 74, 60
1, 260079, Note_on_c, 0, 65, 47
1, 260082, Note_on_c, 0, 62, 57
1, 260112, Note_off_c, 0, 65, 64
1, 260120, Note_off_c, 0, 62, 65
1, 260148, Control_c, 0, 64, 38
1, 260162, Note_on_c, 0, 60, 48
1, 260163, Control_c, 0, 64, 53
1, 260171, Note_on_c, 0, 48, 42
1, 260178, Control_c, 0, 64, 61
1, 260193, Control_c, 0, 64, 64
1, 260202, Note_off_c, 0, 60, 0
1, 260205, Note_off_c, 0, 48, 0
1, 260205, Note_on_c, 0, 48, 31
1, 260207, Control_c, 0, 64, 66
1, 260216, Note_on_c, 0, 60, 56
1, 260222, Control_c, 0, 64, 69
1, 260237, Control_c, 0, 64, 72
1, 260243, Note_off_c, 0, 48, 64
1, 260249, Note_off_c, 0, 60, 65
1, 260252, Control_c, 0, 64, 74
1, 260267, Control_c, 0, 64, 73
1, 260282, Control_c, 0, 64, 72
1, 260297, Control_c, 0, 64, 70
1, 260300, Note_on_c, 0, 65, 62
1, 260312, Control_c, 0, 64, 67
1, 260329, Note_off_c, 0, 65, 63
1, 260334, Control_c, 0, 64, 64
1, 260336, Note_on_c, 0, 60, 39
1, 260349, Control_c, 0, 64, 59
1, 260363, Control_c, 0, 64, 54
1, 260378, Control_c, 0, 64, 50
1, 260386, Note_on_c, 0, 65, 56
1, 260391, Note_off_c, 0, 60, 48
1, 260393, Control_c, 0, 64, 46
1, 260407, Note_off_c, 0, 65, 61
1, 260407, Control_c, 0, 64, 43
1, 260422, Control_c, 0, 64, 41
1, 260437, Control_c, 0, 64, 40
1, 260452, Control_c, 0, 64, 40
1, 260456, Note_on_c, 0, 64, 71
1, 260467, Note_on_c, 0, 60, 48
1, 260473, Note_off_c, 0, 64, 68
1, 260494, Note_off_c, 0, 60, 54
1, 260541, Control_c, 0, 64, 39
1, 260544, Note_on_c, 0, 60, 40
1, 260544, Note_on_c, 0, 64, 45
1, 260545, Note_off_c, 0, 64, 127
1, 260571, Control_c, 0, 64, 39
1, 260575, Note_off_c, 0, 60, 32
1, 260586, Control_c, 0, 64, 38
1, 260596, Note_on_c, 0, 72, 76
1, 260601, Control_c, 0, 64, 36
1, 260615, Control_c, 0, 64, 32
1, 260630, Control_c, 0, 64, 23
1, 260645, Control_c, 0, 64, 0
1, 260660, Note_off_c, 0, 72, 54
1, 260670, Note_on_c, 0, 64, 61
1, 260672, Note_on_c, 0, 67, 59
1, 260678, Note_on_c, 0, 60, 50
1, 260699, Note_off_c, 0, 64, 65
1, 260702, Note_off_c, 0, 60, 59
1, 260704, Note_off_c, 0, 67, 65
1, 260720, Control_c, 0, 64, 12
1, 260735, Control_c, 0, 64, 46
1, 260750, Control_c, 0, 64, 58
1, 260765, Control_c, 0, 64, 62
1, 260775, Note_on_c, 0, 53, 40
1, 260779, Control_c, 0, 64, 65
1, 260794, Control_c, 0, 64, 67
1, 260809, Control_c, 0, 64, 71
1, 260823, Control_c, 0, 64, 76
1, 260826, Note_on_c, 0, 41, 56
1, 260826, Note_off_c, 0, 53, 0
1, 260826, Note_on_c, 0, 53, 54
1, 260838, Control_c, 0, 64, 80
1, 260853, Control_c, 0, 64, 80
1, 260857, Note_off_c, 0, 41, 62
1, 260861, Note_off_c, 0, 53, 65
1, 260897, Control_c, 0, 64, 79
1, 260907, Note_on_c, 0, 65, 62
1, 260912, Control_c, 0, 64, 77
1, 260914, Note_on_c, 0, 69, 68
1, 260916, Note_on_c, 0, 60, 65
1, 260927, Control_c, 0, 64, 75
1, 260932, Note_off_c, 0, 69, 65
1, 260938, Note_off_c, 0, 65, 67
1, 260942, Control_c, 0, 64, 71
1, 260957, Control_c, 0, 64, 66
1, 260962, Note_off_c, 0, 60, 0
1, 260971, Control_c, 0, 64, 60
1, 260986, Control_c, 0, 64, 55
1, 260987, Poly_aftertouch_c, 0, 60, 0
1, 260990, Note_on_c, 0, 69, 62
1, 261001, Control_c, 0, 64, 53
1, 261011, Note_off_c, 0, 69, 61
1, 261016, Control_c, 0, 64, 52
1, 261030, Control_c, 0, 64, 51
1, 261045, Control_c, 0, 64, 49
1, 261051, Note_on_c, 0, 53, 79
1, 261055, Note_on_c, 0, 41, 80
1, 261060, Control_c, 0, 64, 48
1, 261083, Control_c, 0, 64, 47
1, 261084, Note_off_c, 0, 53, 68
1, 261091, Note_off_c, 0, 41, 66
1, 261098, Control_c, 0, 64, 47
1, 261112, Control_c, 0, 64, 46
1, 261133, Note_on_c, 0, 53, 86
1, 261138, Note_on_c, 0, 41, 83
1, 261142, Control_c, 0, 64, 45
1, 261156, Control_c, 0, 64, 43
1, 261159, Note_off_c, 0, 53, 69
1, 261164, Note_off_c, 0, 41, 66
1, 261171, Control_c, 0, 64, 40
1, 261186, Control_c, 0, 64, 36
1, 261201, Control_c, 0, 64, 22
1, 261212, Note_on_c, 0, 60, 78
1, 261215, Note_on_c, 0, 65, 77
1, 261216, Control_c, 0, 64, 0
1, 261218, Note_on_c, 0, 57, 68
1, 261239, Note_off_c, 0, 60, 69
1, 261242, Note_off_c, 0, 65, 67
1, 261245, Note_off_c, 0, 57, 66
1, 261295, Note_on_c, 0, 65, 71
1, 261308, Note_on_c, 0, 57, 54
1, 261323, Note_on_c, 0, 60, 47
1, 261325, Note_on_c, 0, 59, 34
1, 261332, Note_on_c, 0, 64, 29
1, 261333, Note_off_c, 0, 64, 127
1, 261333, Note_off_c, 0, 65, 62
1, 261334, Note_off_c, 0, 57, 41
1, 261352, Note_off_c, 0, 60, 36
1, 261363, Note_off_c, 0, 59, 31
1, 261365, Note_on_c, 0, 52, 90
1, 261374, Note_on_c, 0, 40, 83
1, 261388, Note_off_c, 0, 52, 71
1, 261394, Control_c, 0, 64, 54
1, 261399, Note_off_c, 0, 40, 66
1, 261409, Control_c, 0, 64, 65
1, 261423, Control_c, 0, 64, 70
1, 261438, Control_c, 0, 64, 79
1, 261443, Note_on_c, 0, 52, 89
1, 261445, Note_on_c, 0, 40, 82
1, 261453, Control_c, 0, 64, 92
1, 261468, Note_off_c, 0, 40, 72
1, 261468, Control_c, 0, 64, 127
1, 261481, Note_off_c, 0, 52, 62
1, 261523, Note_on_c, 0, 55, 69
1, 261527, Note_on_c, 0, 58, 64
1, 261529, Note_on_c, 0, 60, 65
1, 261552, Note_off_c, 0, 55, 66
1, 261558, Note_off_c, 0, 58, 65
1, 261560, Note_off_c, 0, 60, 66
1, 261599, Note_on_c, 0, 60, 76
1, 261610, Note_on_c, 0, 58, 60
1, 261616, Note_on_c, 0, 55, 49
1, 261623, Note_off_c, 0, 60, 71
1, 261634, Note_off_c, 0, 58, 61
1, 261639, Note_off_c, 0, 55, 61
1, 261647, Control_c, 0, 64, 104
1, 261662, Control_c, 0, 64, 74
1, 261676, Note_on_c, 0, 60, 85
1, 261677, Control_c, 0, 64, 56
1, 261688, Note_on_c, 0, 58, 69
1, 261692, Control_c, 0, 64, 0
1, 261694, Note_on_c, 0, 55, 49
1, 261706, Note_off_c, 0, 60, 62
1, 261710, Note_off_c, 0, 58, 70
1, 261716, Note_off_c, 0, 55, 61
1, 261750, Note_on_c, 0, 60, 52
1, 261760, Note_on_c, 0, 58, 68
1, 261769, Note_off_c, 0, 60, 62
1, 261791, Note_off_c, 0, 58, 66
1, 261817, Note_on_c, 0, 67, 72
1, 261873, Note_on_c, 0, 60, 46
1, 261875, Note_off_c, 0, 67, 52
1, 261879, Note_on_c, 0, 58, 66
1, 261909, Note_off_c, 0, 58, 66
1, 261911, Note_off_c, 0, 60, 65
1, 261977, Note_on_c, 0, 53, 65
1, 261980, Control_c, 0, 64, 23
1, 261984, Note_on_c, 0, 41, 60
1, 261995, Control_c, 0, 64, 59
1, 262006, Note_off_c, 0, 53, 63
1, 262010, Control_c, 0, 64, 62
1, 262025, Control_c, 0, 64, 66
1, 262038, Note_off_c, 0, 41, 0
1, 262040, Control_c, 0, 64, 72
1, 262050, Note_on_c, 0, 41, 35
1, 262054, Control_c, 0, 64, 83
1, 262061, Note_on_c, 0, 53, 46
1, 262069, Control_c, 0, 64, 96
1, 262084, Control_c, 0, 64, 113
1, 262086, Note_off_c, 0, 53, 57
1, 262098, Note_off_c, 0, 41, 52
1, 262099, Control_c, 0, 64, 127
1, 262122, Note_on_c, 0, 60, 69
1, 262125, Note_on_c, 0, 57, 66
1, 262143, Control_c, 0, 64, 125
1, 262146, Note_off_c, 0, 60, 64
1, 262156, Note_off_c, 0, 57, 66
1, 262158, Control_c, 0, 64, 112
1, 262172, Control_c, 0, 64, 104
1, 262187, Control_c, 0, 64, 95
1, 262196, Note_on_c, 0, 60, 86
1, 262202, Control_c, 0, 64, 83
1, 262216, Note_off_c, 0, 60, 72
1, 262217, Control_c, 0, 64, 69
1, 262232, Control_c, 0, 64, 57
1, 262233, Note_on_c, 0, 57, 22
1, 262246, Control_c, 0, 64, 18
1, 262261, Control_c, 0, 64, 0
1, 262265, Note_off_c, 0, 57, 50
1, 262273, Note_on_c, 0, 56, 77
1, 262274, Note_on_c, 0, 59, 77
1, 262299, Note_off_c, 0, 59, 65
1, 262303, Note_off_c, 0, 56, 63
1, 262337, Note_on_c, 0, 56, 75
1, 262339, Poly_aftertouch_c, 0, 59, 0
1, 262364, Note_off_c, 0, 56, 67
1, 262413, Note_on_c, 0, 65, 74
1, 262482, Note_on_c, 0, 59, 66
1, 262483, Note_on_c, 0, 56, 62
1, 262500, Note_off_c, 0, 65, 60
1, 262512, Note_off_c, 0, 59, 66
1, 262514, Note_off_c, 0, 56, 66
1, 262557, Note_on_c, 0, 55, 71
1, 262562, Note_on_c, 0, 43, 71
1, 262581, Control_c, 0, 64, 36
1, 262593, Note_off_c, 0, 55, 66
1, 262596, Control_c, 0, 64, 65
1, 262602, Note_off_c, 0, 43, 64
1, 262610, Control_c, 0, 64, 65
1, 262625, Control_c, 0, 64, 69
1, 262635, Note_on_c, 0, 55, 84
1, 262640, Control_c, 0, 64, 74
1, 262641, Note_on_c, 0, 43, 73
1, 262655, Control_c, 0, 64, 82
1, 262658, Note_off_c, 0, 55, 69
1, 262670, Control_c, 0, 64, 89
1, 262671, Note_off_c, 0, 43, 65
1, 262684, Control_c, 0, 64, 92
1, 262699, Control_c, 0, 64, 93
1, 262717, Note_on_c, 0, 59, 73
1, 262720, Note_on_c, 0, 55, 73
1, 262743, Note_off_c, 0, 55, 70
1, 262744, Control_c, 0, 64, 92
1, 262745, Note_off_c, 0, 59, 67
1, 262759, Control_c, 0, 64, 91
1, 262774, Control_c, 0, 64, 90
1, 262789, Note_on_c, 0, 59, 87
1, 262789, Control_c, 0, 64, 88
1, 262793, Note_on_c, 0, 55, 71
1, 262803, Control_c, 0, 64, 85
1, 262811, Note_off_c, 0, 59, 64
1, 262817, Note_off_c, 0, 55, 69
1, 262818, Control_c, 0, 64, 82
1, 262833, Control_c, 0, 64, 77
1, 262848, Control_c, 0, 64, 71
1, 262861, Note_on_c, 0, 53, 93
1, 262863, Control_c, 0, 64, 64
1, 262866, Note_on_c, 0, 55, 79
1, 262877, Control_c, 0, 64, 49
1, 262885, Note_off_c, 0, 53, 70
1, 262892, Control_c, 0, 64, 0
1, 262896, Note_off_c, 0, 55, 65
1, 262937, Note_on_c, 0, 53, 91
1, 262937, Note_on_c, 0, 55, 81
1, 262958, Note_off_c, 0, 53, 72
1, 262962, Note_off_c, 0, 55, 68
1, 263010, Note_on_c, 0, 65, 79
1, 263033, Note_on_c, 0, 55, 41
1, 263060, Note_off_c, 0, 65, 52
1, 263060, Note_on_c, 0, 64, 11
1, 263061, Note_off_c, 0, 64, 127
1, 263063, Note_off_c, 0, 55, 0
1, 263063, Note_on_c, 0, 55, 50
1, 263075, Note_on_c, 0, 59, 59
1, 263075, Note_on_c, 0, 53, 79
1, 263102, Poly_aftertouch_c, 0, 64, 0
1, 263105, Note_off_c, 0, 53, 66
1, 263105, Note_off_c, 0, 55, 64
1, 263114, Note_off_c, 0, 59, 66
1, 263157, Note_on_c, 0, 48, 90
1, 263164, Note_on_c, 0, 36, 85
1, 263174, Control_c, 0, 64, 52
1, 263182, Note_off_c, 0, 48, 67
1, 263188, Note_off_c, 0, 36, 65
1, 263189, Control_c, 0, 64, 65
1, 263204, Control_c, 0, 64, 66
1, 263218, Control_c, 0, 64, 69
1, 263233, Control_c, 0, 64, 74
1, 263235, Note_on_c, 0, 48, 89
1, 263236, Note_on_c, 0, 36, 86
1, 263248, Control_c, 0, 64, 78
1, 263263, Note_off_c, 0, 36, 68
1, 263263, Control_c, 0, 64, 79
1, 263277, Note_off_c, 0, 48, 62
1, 263293, Control_c, 0, 64, 79
1, 263307, Control_c, 0, 64, 76
1, 263315, Note_on_c, 0, 55, 79
1, 263323, Note_on_c, 0, 59, 75
1, 263327, Note_on_c, 0, 53, 77
1, 263330, Control_c, 0, 64, 71
1, 263345, Control_c, 0, 64, 59
1, 263348, Note_off_c, 0, 55, 69
1, 263355, Note_off_c, 0, 59, 67
1, 263355, Note_off_c, 0, 53, 67
1, 263360, Control_c, 0, 64, 0
1, 263398, Note_on_c, 0, 59, 71
1, 263399, Note_on_c, 0, 53, 81
1, 263403, Note_on_c, 0, 55, 72
1, 263421, Note_off_c, 0, 55, 65
1, 263424, Note_off_c, 0, 53, 67
1, 263434, Note_off_c, 0, 59, 65
1, 263468, Note_on_c, 0, 48, 92
1, 263478, Note_on_c, 0, 36, 83
1, 263492, Note_off_c, 0, 48, 69
1, 263501, Note_off_c, 0, 36, 66
1, 263522, Control_c, 0, 64, 60
1, 263537, Control_c, 0, 64, 61
1, 263552, Control_c, 0, 64, 63
1, 263556, Note_on_c, 0, 36, 81
1, 263556, Note_on_c, 0, 48, 87
1, 263567, Control_c, 0, 64, 65
1, 263579, Note_off_c, 0, 36, 65
1, 263582, Control_c, 0, 64, 68
1, 263583, Note_off_c, 0, 48, 65
1, 263597, Control_c, 0, 64, 71
1, 263612, Control_c, 0, 64, 75
1, 263626, Control_c, 0, 64, 79
1, 263641, Note_on_c, 0, 55, 71
1, 263641, Control_c, 0, 64, 80
1, 263642, Note_on_c, 0, 60, 83
1, 263643, Note_on_c, 0, 52, 79
1, 263656, Control_c, 0, 64, 79
1, 263670, Note_off_c, 0, 55, 68
1, 263671, Note_off_c, 0, 52, 68
1, 263671, Control_c, 0, 64, 76
1, 263676, Note_off_c, 0, 60, 64
1, 263685, Control_c, 0, 64, 65
1, 263699, Control_c, 0, 64, 0
1, 263722, Note_on_c, 0, 60, 67
1, 263725, Note_on_c, 0, 55, 68
1, 263743, Note_off_c, 0, 55, 64
1, 263747, Note_off_c, 0, 60, 70
1, 263788, Control_c, 0, 64, 50
1, 263791, Note_on_c, 0, 43, 84
1, 263791, Note_on_c, 0, 55, 92
1, 263803, Control_c, 0, 64, 64
1, 263815, Note_off_c, 0, 43, 67
1, 263817, Control_c, 0, 64, 70
1, 263818, Note_off_c, 0, 55, 63
1, 263832, Control_c, 0, 64, 78
1, 263847, Control_c, 0, 64, 91
1, 263862, Control_c, 0, 64, 109
1, 263870, Note_on_c, 0, 55, 25
1, 263878, Control_c, 0, 64, 127
1, 263896, Note_off_c, 0, 55, 59
1, 263910, Note_on_c, 0, 74, 64
1, 263925, Note_on_c, 0, 67, 66
1, 263931, Note_on_c, 0, 70, 66
1, 263953, Note_off_c, 0, 67, 68
1, 263959, Note_off_c, 0, 70, 66
1, 263963, Note_off_c, 0, 74, 62
1, 263993, Note_on_c, 0, 74, 66
1, 263996, Note_on_c, 0, 67, 67
1, 264012, Poly_aftertouch_c, 0, 70, 0
1, 264021, Note_off_c, 0, 67, 64
1, 264028, Note_off_c, 0, 74, 64
1, 264073, Note_on_c, 0, 74, 89
1, 264077, Note_on_c, 0, 70, 73
1, 264078, Control_c, 0, 64, 98
1, 264081, Note_on_c, 0, 67, 62
1, 264093, Control_c, 0, 64, 74
1, 264108, Control_c, 0, 64, 56
1, 264109, Note_off_c, 0, 74, 62
1, 264111, Note_off_c, 0, 67, 63
1, 264111, Note_off_c, 0, 70, 62
1, 264122, Control_c, 0, 64, 0
1, 264151, Note_on_c, 0, 70, 69
1, 264174, Note_off_c, 0, 70, 71
1, 264211, Note_on_c, 0, 74, 16
1, 264214, Note_on_c, 0, 79, 84
1, 264256, Note_off_c, 0, 74, 64
1, 264270, Note_off_c, 0, 79, 60
1, 264294, Note_on_c, 0, 70, 70
1, 264298, Note_on_c, 0, 67, 69
1, 264311, Note_on_c, 0, 74, 43
1, 264318, Note_off_c, 0, 70, 69
1, 264324, Note_off_c, 0, 67, 69
1, 264333, Note_off_c, 0, 74, 54
1, 264371, Note_on_c, 0, 64, 85
1, 264378, Note_on_c, 0, 52, 78
1, 264394, Note_off_c, 0, 64, 68
1, 264401, Note_off_c, 0, 52, 68
1, 264419, Control_c, 0, 64, 60
1, 264434, Control_c, 0, 64, 67
1, 264446, Note_on_c, 0, 52, 83
1, 264448, Control_c, 0, 64, 72
1, 264453, Note_on_c, 0, 64, 81
1, 264463, Control_c, 0, 64, 80
1, 264469, Note_off_c, 0, 52, 71
1, 264478, Control_c, 0, 64, 101
1, 264481, Note_off_c, 0, 64, 65
1, 264493, Control_c, 0, 64, 127
1, 264527, Note_on_c, 0, 73, 75
1, 264533, Note_on_c, 0, 70, 69
1, 264536, Note_on_c, 0, 67, 66
1, 264558, Note_off_c, 0, 73, 63
1, 264559, Note_off_c, 0, 70, 69
1, 264564, Note_off_c, 0, 67, 67
1, 264605, Note_on_c, 0, 73, 73
1, 264607, Note_on_c, 0, 67, 68
1, 264616, Note_on_c, 0, 70, 65
1, 264631, Note_off_c, 0, 70, 70
1, 264636, Note_off_c, 0, 67, 64
1, 264636, Note_off_c, 0, 73, 61
1, 264685, Note_on_c, 0, 70, 81
1, 264686, Control_c, 0, 64, 109
1, 264688, Note_on_c, 0, 67, 87
1, 264691, Note_on_c, 0, 73, 76
1, 264701, Control_c, 0, 64, 74
1, 264708, Note_off_c, 0, 67, 60
1, 264716, Control_c, 0, 64, 43
1, 264720, Note_off_c, 0, 70, 60
1, 264731, Control_c, 0, 64, 0
1, 264733, Note_off_c, 0, 73, 0
1, 264748, Note_on_c, 0, 70, 70
1, 264752, Note_on_c, 0, 67, 67
1, 264768, Note_off_c, 0, 67, 69
1, 264771, Poly_aftertouch_c, 0, 73, 0
1, 264774, Note_off_c, 0, 70, 67
1, 264843, Note_on_c, 0, 79, 78
1, 264904, Poly_aftertouch_c, 0, 67, 0
1, 264908, Note_on_c, 0, 70, 77
1, 264908, Note_on_c, 0, 73, 76
1, 264910, Note_off_c, 0, 79, 63
1, 264914, Note_on_c, 0, 67, 48
1, 264930, Note_off_c, 0, 70, 70
1, 264939, Note_off_c, 0, 73, 66
1, 264941, Note_off_c, 0, 67, 59
1, 264985, Note_on_c, 0, 57, 87
1, 264991, Note_on_c, 0, 45, 80
1, 265008, Note_off_c, 0, 57, 70
1, 265015, Note_off_c, 0, 45, 67
1, 265019, Control_c, 0, 64, 65
1, 265034, Control_c, 0, 64, 67
1, 265049, Control_c, 0, 64, 71
1, 265057, Note_on_c, 0, 45, 85
1, 265057, Note_on_c, 0, 57, 84
1, 265063, Control_c, 0, 64, 78
1, 265077, Note_off_c, 0, 45, 71
1, 265078, Control_c, 0, 64, 91
1, 265093, Note_off_c, 0, 57, 65
1, 265093, Control_c, 0, 64, 103
1, 265108, Control_c, 0, 64, 107
1, 265132, Note_on_c, 0, 73, 78
1, 265134, Note_on_c, 0, 69, 77
1, 265135, Note_on_c, 0, 67, 68
1, 265138, Control_c, 0, 64, 106
1, 265155, Note_off_c, 0, 69, 70
1, 265162, Note_off_c, 0, 67, 68
1, 265168, Note_off_c, 0, 73, 61
1, 265168, Control_c, 0, 64, 105
1, 265183, Control_c, 0, 64, 104
1, 265197, Control_c, 0, 64, 101
1, 265209, Note_on_c, 0, 73, 75
1, 265212, Control_c, 0, 64, 100
1, 265214, Note_on_c, 0, 69, 79
1, 265215, Note_on_c, 0, 67, 74
1, 265227, Control_c, 0, 64, 100
1, 265233, Note_off_c, 0, 69, 72
1, 265238, Note_off_c, 0, 67, 70
1, 265253, Note_off_c, 0, 73, 62
1, 265287, Control_c, 0, 64, 98
1, 265293, Note_on_c, 0, 73, 77
1, 265302, Note_on_c, 0, 69, 75
1, 265302, Control_c, 0, 64, 96
1, 265305, Note_on_c, 0, 67, 72
1, 265317, Control_c, 0, 64, 90
1, 265332, Control_c, 0, 64, 80
1, 265334, Note_off_c, 0, 67, 0
1, 265346, Control_c, 0, 64, 68
1, 265350, Note_on_c, 0, 67, 49
1, 265361, Control_c, 0, 64, 53
1, 265365, Note_off_c, 0, 67, 67
1, 265374, Note_off_c, 0, 73, 69
1, 265376, Control_c, 0, 64, 0
1, 265379, Note_off_c, 0, 69, 65
1, 265430, Note_on_c, 0, 79, 79
1, 265464, Note_on_c, 0, 73, 9
1, 265472, Note_off_c, 0, 73, 0
1, 265492, Note_on_c, 0, 70, 66
1, 265499, Note_off_c, 0, 79, 64
1, 265504, Note_on_c, 0, 67, 50
1, 265508, Poly_aftertouch_c, 0, 73, 127
1, 265510, Note_on_c, 0, 69, 65
1, 265511, Note_off_c, 0, 70, 65
1, 265528, Note_off_c, 0, 69, 64
1, 265529, Note_off_c, 0, 67, 64
1, 265529, Poly_aftertouch_c, 0, 73, 0
1, 265588, Note_on_c, 0, 58, 88
1, 265594, Note_on_c, 0, 46, 74
1, 265606, Control_c, 0, 64, 63
1, 265612, Note_off_c, 0, 58, 68
1, 265621, Control_c, 0, 64, 65
1, 265627, Note_off_c, 0, 46, 57
1, 265636, Control_c, 0, 64, 67
1, 265650, Control_c, 0, 64, 71
1, 265665, Note_on_c, 0, 58, 82
1, 265665, Control_c, 0, 64, 79
1, 265671, Poly_aftertouch_c, 0, 46, 0
1, 265680, Control_c, 0, 64, 83
1, 265686, Note_off_c, 0, 58, 71
1, 265695, Control_c, 0, 64, 83
1, 265717, Note_on_c, 0, 64, 71
1, 265718, Note_on_c, 0, 67, 72
1, 265721, Note_on_c, 0, 73, 76
1, 265725, Control_c, 0, 64, 84
1, 265742, Note_off_c, 0, 67, 69
1, 265745, Note_off_c, 0, 64, 68
1, 265746, Note_off_c, 0, 73, 66
1, 265755, Control_c, 0, 64, 82
1, 265769, Control_c, 0, 64, 79
1, 265784, Control_c, 0, 64, 77
1, 265791, Note_on_c, 0, 73, 84
1, 265799, Control_c, 0, 64, 76
1, 265800, Note_on_c, 0, 67, 72
1, 265807, Note_on_c, 0, 64, 63
1, 265817, Note_off_c, 0, 67, 64
1, 265829, Note_off_c, 0, 64, 60
1, 265832, Note_off_c, 0, 73, 60
1, 265866, Note_on_c, 0, 58, 95
1, 265878, Note_on_c, 0, 46, 72
1, 265889, Note_off_c, 0, 58, 66
1, 265902, Control_c, 0, 64, 75
1, 265906, Note_off_c, 0, 46, 65
1, 265917, Control_c, 0, 64, 75
1, 265943, Note_on_c, 0, 58, 92
1, 265946, Note_on_c, 0, 46, 77
1, 265962, Control_c, 0, 64, 74
1, 265970, Note_off_c, 0, 58, 59
1, 265975, Note_off_c, 0, 46, 66
1, 265976, Control_c, 0, 64, 73
1, 265991, Control_c, 0, 64, 71
1, 266006, Control_c, 0, 64, 68
1, 266020, Control_c, 0, 64, 65
1, 266026, Note_on_c, 0, 74, 90
1, 266031, Note_on_c, 0, 65, 67
1, 266035, Control_c, 0, 64, 64
1, 266039, Note_on_c, 0, 62, 65
1, 266050, Control_c, 0, 64, 62
1, 266059, Note_off_c, 0, 62, 64
1, 266059, Note_off_c, 0, 65, 68
1, 266065, Note_off_c, 0, 74, 48
1, 266065, Control_c, 0, 64, 50
1, 266080, Control_c, 0, 64, 0
1, 266104, Note_on_c, 0, 74, 75
1, 266116, Note_on_c, 0, 65, 68
1, 266117, Note_on_c, 0, 62, 69
1, 266129, Poly_aftertouch_c, 0, 64, 0
1, 266134, Note_off_c, 0, 65, 65
1, 266136, Note_off_c, 0, 62, 66
1, 266141, Note_off_c, 0, 74, 58
1, 266190, Note_on_c, 0, 53, 86
1, 266196, Note_on_c, 0, 41, 90
1, 266213, Control_c, 0, 64, 64
1, 266219, Note_off_c, 0, 41, 66
1, 266219, Note_off_c, 0, 53, 63
1, 266228, Control_c, 0, 64, 72
1, 266243, Control_c, 0, 64, 84
1, 266256, Note_on_c, 0, 53, 65
1, 266258, Control_c, 0, 64, 103
1, 266273, Control_c, 0, 64, 127
1, 266276, Note_on_c, 0, 41, 59
1, 266287, Note_off_c, 0, 53, 60
1, 266302, Note_off_c, 0, 41, 58
1, 266359, Note_on_c, 0, 65, 72
1, 266363, Note_on_c, 0, 62, 64
1, 266386, Note_off_c, 0, 65, 68
1, 266391, Note_off_c, 0, 62, 66
1, 266443, Note_on_c, 0, 65, 81
1, 266444, Note_on_c, 0, 62, 74
1, 266467, Note_off_c, 0, 62, 70
1, 266467, Note_off_c, 0, 65, 68
1, 266511, Note_on_c, 0, 65, 82
1, 266514, Note_on_c, 0, 62, 73
1, 266533, Control_c, 0, 64, 101
1, 266536, Note_off_c, 0, 65, 63
1, 266542, Note_off_c, 0, 62, 64
1, 266548, Control_c, 0, 64, 73
1, 266563, Control_c, 0, 64, 46
1, 266575, Note_on_c, 0, 65, 65
1, 266578, Note_on_c, 0, 62, 66
1, 266578, Control_c, 0, 64, 0
1, 266590, Note_off_c, 0, 65, 68
1, 266597, Note_off_c, 0, 62, 72
1, 266649, Note_on_c, 0, 74, 82
1, 266692, Note_on_c, 0, 65, 10
1, 266700, Note_off_c, 0, 65, 0
1, 266700, Note_on_c, 0, 65, 37
1, 266712, Note_off_c, 0, 74, 56
1, 266717, Note_on_c, 0, 62, 66
1, 266747, Note_off_c, 0, 65, 64
1, 266749, Note_off_c, 0, 62, 63
1, 266793, Note_on_c, 0, 53, 77
1, 266800, Note_on_c, 0, 41, 75
1, 266814, Control_c, 0, 64, 22
1, 266820, Note_off_c, 0, 53, 67
1, 266828, Note_off_c, 0, 41, 66
1, 266829, Control_c, 0, 64, 64
1, 266843, Control_c, 0, 64, 65
1, 266858, Control_c, 0, 64, 68
1, 266867, Note_on_c, 0, 53, 80
1, 266873, Control_c, 0, 64, 73
1, 266876, Note_on_c, 0, 41, 70
1, 266888, Control_c, 0, 64, 79
1, 266901, Note_off_c, 0, 41, 59
1, 266903, Control_c, 0, 64, 85
1, 266909, Note_off_c, 0, 53, 63
1, 266917, Control_c, 0, 64, 86
1, 266940, Note_on_c, 0, 65, 76
1, 266951, Note_on_c, 0, 62, 55
1, 266965, Note_off_c, 0, 65, 69
1, 266973, Note_off_c, 0, 62, 63
1, 266977, Control_c, 0, 64, 86
1, 266992, Control_c, 0, 64, 85
1, 267011, Note_on_c, 0, 65, 78
1, 267014, Note_on_c, 0, 62, 57
1, 267032, Note_off_c, 0, 65, 70
1, 267043, Note_off_c, 0, 62, 61
1, 267051, Control_c, 0, 64, 84
1, 267074, Control_c, 0, 64, 83
1, 267089, Control_c, 0, 64, 81
1, 267102, Note_on_c, 0, 61, 87
1, 267102, Note_on_c, 0, 64, 86
1, 267104, Control_c, 0, 64, 77
1, 267119, Control_c, 0, 64, 70
1, 267124, Note_off_c, 0, 64, 68
1, 267132, Note_off_c, 0, 61, 61
1, 267134, Control_c, 0, 64, 61
1, 267148, Control_c, 0, 64, 28
1, 267163, Control_c, 0, 64, 0
1, 267173, Note_on_c, 0, 61, 71
1, 267174, Note_on_c, 0, 64, 73
1, 267190, Note_off_c, 0, 64, 68
1, 267198, Note_off_c, 0, 61, 68
1, 267250, Note_on_c, 0, 73, 85
1, 267306, Note_on_c, 0, 64, 31
1, 267314, Note_on_c, 0, 61, 80
1, 267330, Note_off_c, 0, 73, 61
1, 267337, Note_off_c, 0, 61, 68
1, 267350, Note_off_c, 0, 64, 65
1, 267385, Control_c, 0, 64, 25
1, 267386, Note_on_c, 0, 53, 82
1, 267392, Note_on_c, 0, 41, 76
1, 267400, Control_c, 0, 64, 59
1, 267412, Note_off_c, 0, 53, 67
1, 267415, Control_c, 0, 64, 68
1, 267420, Note_off_c, 0, 41, 66
1, 267429, Control_c, 0, 64, 79
1, 267444, Control_c, 0, 64, 97
1, 267459, Control_c, 0, 64, 127
1, 267462, Note_on_c, 0, 53, 86
1, 267469, Note_on_c, 0, 41, 80
1, 267494, Note_off_c, 0, 41, 66
1, 267511, Note_off_c, 0, 53, 64
1, 267540, Note_on_c, 0, 63, 78
1, 267544, Note_on_c, 0, 60, 71
1, 267564, Note_off_c, 0, 63, 70
1, 267570, Note_off_c, 0, 60, 69
1, 267619, Note_on_c, 0, 60, 82
1, 267622, Note_on_c, 0, 63, 80
1, 267636, Control_c, 0, 64, 112
1, 267639, Note_off_c, 0, 60, 70
1, 267645, Note_off_c, 0, 63, 63
1, 267651, Control_c, 0, 64, 96
1, 267666, Control_c, 0, 64, 80
1, 267681, Control_c, 0, 64, 65
1, 267696, Control_c, 0, 64, 36
1, 267701, Note_on_c, 0, 59, 79
1, 267701, Note_on_c, 0, 62, 83
1, 267711, Poly_aftertouch_c, 0, 66, 0
1, 267711, Control_c, 0, 64, 0
1, 267724, Note_off_c, 0, 62, 71
1, 267733, Note_off_c, 0, 59, 64
1, 267776, Note_on_c, 0, 59, 71
1, 267778, Note_on_c, 0, 62, 78
1, 267801, Note_off_c, 0, 62, 67
1, 267803, Note_off_c, 0, 59, 66
1, 267854, Note_on_c, 0, 71, 81
1, 267892, Note_off_c, 0, 71, 59
1, 267927, Note_on_c, 0, 59, 63
1, 267927, Note_on_c, 0, 62, 73
1, 267952, Note_off_c, 0, 62, 67
1, 267955, Note_off_c, 0, 59, 66
1, 267988, Note_on_c, 0, 53, 83
1, 267995, Note_on_c, 0, 41, 76
1, 268001, Control_c, 0, 64, 64
1, 268015, Note_off_c, 0, 53, 68
1, 268015, Control_c, 0, 64, 65
1, 268022, Note_off_c, 0, 41, 66
1, 268030, Control_c, 0, 64, 69
1, 268045, Control_c, 0, 64, 76
1, 268060, Control_c, 0, 64, 89
1, 268067, Note_on_c, 0, 53, 81
1, 268071, Note_on_c, 0, 41, 75
1, 268075, Control_c, 0, 64, 109
1, 268089, Control_c, 0, 64, 127
1, 268101, Note_off_c, 0, 41, 65
1, 268113, Note_off_c, 0, 53, 58
1, 268133, Note_on_c, 0, 61, 76
1, 268137, Note_on_c, 0, 58, 72
1, 268161, Note_off_c, 0, 61, 64
1, 268165, Note_off_c, 0, 58, 66
1, 268205, Note_on_c, 0, 61, 80
1, 268209, Note_on_c, 0, 58, 84
1, 268209, Control_c, 0, 64, 111
1, 268223, Control_c, 0, 64, 100
1, 268230, Note_off_c, 0, 58, 70
1, 268238, Control_c, 0, 64, 92
1, 268248, Note_off_c, 0, 61, 61
1, 268253, Control_c, 0, 64, 82
1, 268268, Control_c, 0, 64, 71
1, 268283, Control_c, 0, 64, 62
1, 268298, Control_c, 0, 64, 41
1, 268298, Note_on_c, 0, 60, 89
1, 268303, Note_on_c, 0, 57, 81
1, 268312, Control_c, 0, 64, 0
1, 268325, Note_off_c, 0, 60, 67
1, 268334, Note_off_c, 0, 57, 65
1, 268373, Note_on_c, 0, 60, 75
1, 268375, Note_on_c, 0, 57, 74
1, 268399, Note_off_c, 0, 60, 65
1, 268402, Note_off_c, 0, 57, 68
1, 268445, Note_on_c, 0, 69, 86
1, 268501, Note_off_c, 0, 69, 57
1, 268503, Note_on_c, 0, 57, 72
1, 268509, Note_on_c, 0, 60, 65
1, 268537, Note_off_c, 0, 57, 67
1, 268538, Note_off_c, 0, 60, 67
1, 268587, Control_c, 0, 64, 36
1, 268591, Note_on_c, 0, 53, 80
1, 268597, Note_on_c, 0, 41, 79
1, 268602, Control_c, 0, 64, 63
1, 268616, Note_off_c, 0, 53, 69
1, 268616, Control_c, 0, 64, 64
1, 268621, Note_off_c, 0, 41, 67
1, 268631, Control_c, 0, 64, 67
1, 268646, Control_c, 0, 64, 74
1, 268661, Control_c, 0, 64, 84
1, 268673, Note_on_c, 0, 41, 81
1, 268676, Control_c, 0, 64, 92
1, 268678, Note_on_c, 0, 53, 85
1, 268691, Control_c, 0, 64, 95
1, 268700, Note_off_c, 0, 41, 65
1, 268715, Note_off_c, 0, 53, 60
1, 268721, Control_c, 0, 64, 94
1, 268736, Control_c, 0, 64, 94
1, 268745, Note_on_c, 0, 59, 81
1, 268748, Note_on_c, 0, 56, 78
1, 268751, Control_c, 0, 64, 93
1, 268766, Control_c, 0, 64, 92
1, 268771, Note_off_c, 0, 59, 68
1, 268774, Note_off_c, 0, 56, 68
1, 268780, Control_c, 0, 64, 90
1, 268795, Control_c, 0, 64, 89
1, 268810, Control_c, 0, 64, 87
1, 268820, Note_on_c, 0, 56, 89
1, 268825, Control_c, 0, 64, 85
1, 268834, Note_on_c, 0, 59, 73
1, 268839, Control_c, 0, 64, 83
1, 268848, Note_off_c, 0, 56, 66
1, 268854, Control_c, 0, 64, 79
1, 268863, Note_off_c, 0, 59, 65
1, 268865, Note_on_c, 0, 61, 17
1, 268869, Control_c, 0, 64, 73
1, 268884, Control_c, 0, 64, 66
1, 268899, Control_c, 0, 64, 61
1, 268904, Note_off_c, 0, 61, 41
1, 268905, Note_on_c, 0, 58, 85
1, 268907, Note_on_c, 0, 54, 60
1, 268913, Control_c, 0, 64, 57
1, 268922, Note_on_c, 0, 55, 66
1, 268929, Control_c, 0, 64, 53
1, 268931, Note_off_c, 0, 54, 61
1, 268932, Note_off_c, 0, 58, 65
1, 268943, Note_off_c, 0, 55, 62
1, 268944, Control_c, 0, 64, 49
1, 268959, Control_c, 0, 64, 43
1, 268974, Control_c, 0, 64, 40
1, 268982, Note_on_c, 0, 58, 84
1, 268988, Control_c, 0, 64, 39
1, 268989, Note_on_c, 0, 55, 80
1, 269003, Control_c, 0, 64, 38
1, 269013, Note_off_c, 0, 55, 70
1, 269014, Note_off_c, 0, 58, 64
1, 269018, Control_c, 0, 64, 38
1, 269033, Control_c, 0, 64, 37
1, 269047, Control_c, 0, 64, 36
1, 269062, Note_on_c, 0, 67, 83
1, 269092, Control_c, 0, 64, 36
1, 269107, Control_c, 0, 64, 35
1, 269121, Control_c, 0, 64, 34
1, 269124, Note_on_c, 0, 58, 78
1, 269131, Note_off_c, 0, 67, 55
1, 269136, Control_c, 0, 64, 34
1, 269138, Note_on_c, 0, 55, 66
1, 269155, Note_off_c, 0, 58, 67
1, 269167, Note_off_c, 0, 55, 63
1, 269211, Note_on_c, 0, 53, 81
1, 269218, Note_on_c, 0, 41, 81
1, 269236, Note_off_c, 0, 53, 69
1, 269242, Note_off_c, 0, 41, 67
1, 269290, Note_on_c, 0, 41, 86
1, 269296, Note_on_c, 0, 53, 82
1, 269328, Note_off_c, 0, 41, 67
1, 269332, Note_off_c, 0, 53, 62
1, 269371, Note_on_c, 0, 57, 77
1, 269399, Poly_aftertouch_c, 0, 53, 0
1, 269400, Note_off_c, 0, 57, 68
1, 269443, Note_on_c, 0, 53, 74
1, 269449, Note_on_c, 0, 57, 64
1, 269472, Note_off_c, 0, 53, 64
1, 269478, Note_off_c, 0, 57, 67
1, 269511, Note_on_c, 0, 51, 78
1, 269512, Note_on_c, 0, 55, 78
1, 269523, Note_on_c, 0, 43, 57
1, 269523, Note_on_c, 0, 46, 65
1, 269543, Note_off_c, 0, 51, 65
1, 269548, Note_off_c, 0, 55, 62
1, 269555, Note_off_c, 0, 43, 63
1, 269558, Note_off_c, 0, 46, 64
1, 269603, Note_on_c, 0, 46, 74
1, 269603, Note_on_c, 0, 55, 67
1, 269606, Note_on_c, 0, 51, 73
1, 269619, Note_on_c, 0, 43, 39
1, 269635, Note_off_c, 0, 55, 64
1, 269637, Note_off_c, 0, 51, 65
1, 269650, Note_off_c, 0, 46, 61
1, 269653, Note_off_c, 0, 43, 51
1, 269664, Note_on_c, 0, 58, 79
1, 269666, Note_on_c, 0, 70, 78
1, 269666, Note_on_c, 0, 67, 68
1, 269672, Note_on_c, 0, 63, 67
1, 269690, Note_off_c, 0, 58, 66
1, 269695, Note_off_c, 0, 67, 66
1, 269701, Note_off_c, 0, 63, 66
1, 269721, Control_c, 0, 64, 34
1, 269735, Control_c, 0, 64, 35
1, 269739, Note_on_c, 0, 58, 76
1, 269750, Note_on_c, 0, 63, 67
1, 269764, Note_on_c, 0, 67, 48
1, 269770, Note_off_c, 0, 58, 64
1, 269779, Note_off_c, 0, 63, 67
1, 269780, Control_c, 0, 64, 35
1, 269788, Note_off_c, 0, 67, 59
1, 269791, Note_off_c, 0, 70, 64
1, 269809, Control_c, 0, 64, 36
1, 269816, Note_on_c, 0, 45, 74
1, 269816, Note_on_c, 0, 53, 83
1, 269816, Note_on_c, 0, 57, 86
1, 269823, Note_on_c, 0, 50, 73
1, 269843, Note_off_c, 0, 57, 68
1, 269849, Note_off_c, 0, 53, 66
1, 269854, Note_off_c, 0, 50, 69
1, 269856, Note_off_c, 0, 45, 63
1, 269883, Control_c, 0, 64, 36
1, 269895, Note_on_c, 0, 45, 64
1, 269898, Note_on_c, 0, 57, 73
1, 269898, Note_on_c, 0, 53, 74
1, 269904, Note_on_c, 0, 50, 71
1, 269923, Note_off_c, 0, 57, 68
1, 269928, Note_off_c, 0, 53, 68
1, 269936, Note_off_c, 0, 50, 68
1, 269940, Note_off_c, 0, 45, 63
1, 269970, Note_on_c, 0, 69, 85
1, 269971, Note_on_c, 0, 65, 77
1, 269979, Note_on_c, 0, 62, 62
1, 269996, Note_off_c, 0, 65, 69
1, 270003, Note_off_c, 0, 62, 63
1, 270005, Note_off_c, 0, 69, 62
1, 270032, Control_c, 0, 64, 37
1, 270040, Note_on_c, 0, 69, 83
1, 270042, Note_on_c, 0, 65, 89
1, 270047, Control_c, 0, 64, 37
1, 270056, Note_on_c, 0, 62, 71
1, 270069, Control_c, 0, 64, 38
1, 270073, Note_off_c, 0, 65, 68
1, 270080, Note_off_c, 0, 62, 67
1, 270098, Note_off_c, 0, 69, 65
1, 270114, Control_c, 0, 64, 38
1, 270140, Note_on_c, 0, 45, 94
1, 270143, Note_on_c, 0, 33, 88
1, 270173, Control_c, 0, 64, 39
1, 270183, Note_off_c, 0, 33, 62
1, 270183, Note_off_c, 0, 45, 62
1, 270220, Poly_aftertouch_c, 0, 33, 0
1, 270224, Note_on_c, 0, 45, 87
1, 270229, Note_on_c, 0, 33, 77
1, 270259, Note_off_c, 0, 33, 66
1, 270276, Note_off_c, 0, 45, 65
1, 270278, Control_c, 0, 64, 39
1, 270303, Note_on_c, 0, 73, 83
1, 270307, Note_on_c, 0, 67, 74
1, 270310, Note_on_c, 0, 64, 72
1, 270311, Note_on_c, 0, 69, 68
1, 270331, Note_off_c, 0, 67, 69
1, 270336, Note_off_c, 0, 64, 69
1, 270338, Note_off_c, 0, 69, 67
1, 270342, Note_off_c, 0, 73, 56
1, 270377, Note_on_c, 0, 73, 82
1, 270381, Control_c, 0, 64, 40
1, 270384, Note_on_c, 0, 64, 83
1, 270385, Note_on_c, 0, 69, 84
1, 270386, Note_on_c, 0, 67, 83
1, 270405, Note_off_c, 0, 64, 67
1, 270408, Note_off_c, 0, 67, 71
1, 270411, Control_c, 0, 64, 39
1, 270423, Note_off_c, 0, 69, 62
1, 270426, Control_c, 0, 64, 24
1, 270432, Note_off_c, 0, 73, 65
1, 270441, Control_c, 0, 64, 0
1, 270488, Note_on_c, 0, 50, 102
1, 270494, Note_on_c, 0, 38, 88
1, 270515, Control_c, 0, 64, 53
1, 270524, Note_off_c, 0, 38, 66
1, 270530, Control_c, 0, 64, 67
1, 270539, Note_off_c, 0, 50, 66
1, 270545, Control_c, 0, 64, 84
1, 270559, Control_c, 0, 64, 127
1, 270796, Control_c, 0, 64, 76
1, 270818, Control_c, 0, 64, 28
1, 270833, Control_c, 0, 64, 0
1, 270865, Note_on_c, 0, 62, 91
1, 270865, Note_on_c, 0, 77, 95
1, 270867, Note_on_c, 0, 74, 96
1, 270867, Note_on_c, 0, 81, 95
1, 270867, Note_on_c, 0, 86, 96
1, 270869, Note_on_c, 0, 50, 84
1, 270869, Note_on_c, 0, 53, 84
1, 270870, Note_on_c, 0, 57, 87
1, 270892, Control_c, 0, 64, 40
1, 270907, Control_c, 0, 64, 64
1, 270908, Note_off_c, 0, 74, 65
1, 270915, Note_off_c, 0, 77, 63
1, 270916, Note_off_c, 0, 86, 66
1, 270922, Control_c, 0, 64, 76
1, 270923, Note_off_c, 0, 81, 66
1, 270936, Note_off_c, 0, 57, 60
1, 270936, Note_off_c, 0, 62, 61
1, 270937, Control_c, 0, 64, 104
1, 270952, Control_c, 0, 64, 127
1, 270962, Note_off_c, 0, 50, 57
1, 270971, Note_off_c, 0, 53, 61
1, 271204, Control_c, 0, 64, 122
1, 271219, Control_c, 0, 64, 116
1, 271234, Control_c, 0, 64, 114
1, 271249, Control_c, 0, 64, 108
1, 271264, Control_c, 0, 64, 100
1, 271278, Control_c, 0, 64, 93
1, 271293, Control_c, 0, 64, 89
1, 271308, Control_c, 0, 64, 87
1, 271323, Control_c, 0, 64, 86
1, 271338, Control_c, 0, 64, 85
1, 271353, Control_c, 0, 64, 82
1, 271368, Control_c, 0, 64, 79
1, 271382, Control_c, 0, 64, 76
1, 271397, Control_c, 0, 64, 73
1, 271412, Control_c, 0, 64, 71
1, 271427, Control_c, 0, 64, 70
1, 271441, Control_c, 0, 64, 69
1, 271456, Control_c, 0, 64, 68
1, 271471, Control_c, 0, 64, 66
1, 271486, Control_c, 0, 64, 65
1, 271501, Control_c, 0, 64, 64
1, 271515, Control_c, 0, 64, 63
1, 271530, Control_c, 0, 64, 62
1, 271545, Control_c, 0, 64, 61
1, 271568, Control_c, 0, 64, 60
1, 271582, Control_c, 0, 64, 59
1, 271597, Control_c, 0, 64, 57
1, 271612, Control_c, 0, 64, 54
1, 271627, Control_c, 0, 64, 52
1, 271641, Control_c, 0, 64, 51
1, 271656, Control_c, 0, 64, 50
1, 271671, Control_c, 0, 64, 48
1, 271686, Control_c, 0, 64, 46
1, 271701, Control_c, 0, 64, 43
1, 271715, Control_c, 0, 64, 41
1, 271730, Control_c, 0, 64, 39
1, 271745, Control_c, 0, 64, 38
1, 271760, Control_c, 0, 64, 37
1, 271775, Control_c, 0, 64, 36
1, 271789, Control_c, 0, 64, 35
1, 271800, Note_on_c, 0, 57, 73
1, 271804, Control_c, 0, 64, 34
1, 271805, Note_on_c, 0, 53, 56
1, 271819, Control_c, 0, 64, 33
1, 271834, Control_c, 0, 64, 32
1, 271842, Note_off_c, 0, 53, 63
1, 271848, Control_c, 0, 64, 31
1, 271864, Control_c, 0, 64, 30
1, 271879, Control_c, 0, 64, 29
1, 271894, Control_c, 0, 64, 29
1, 271901, Note_on_c, 0, 61, 40
1, 271909, Control_c, 0, 64, 28
1, 271924, Control_c, 0, 64, 27
1, 271937, Note_off_c, 0, 61, 63
1, 271953, Control_c, 0, 64, 27
1, 271969, Note_on_c, 0, 62, 59
1, 271983, Control_c, 0, 64, 26
1, 272007, Note_off_c, 0, 62, 63
1, 272042, Control_c, 0, 64, 26
1, 272062, Note_on_c, 0, 64, 54
1, 272071, Control_c, 0, 64, 25
1, 272086, Control_c, 0, 64, 25
1, 272104, Note_off_c, 0, 64, 62
1, 272124, Note_on_c, 0, 47, 52
1, 272131, Control_c, 0, 64, 24
1, 272147, Note_on_c, 0, 65, 49
1, 272158, Note_off_c, 0, 47, 63
1, 272189, Note_off_c, 0, 65, 64
1, 272219, Note_on_c, 0, 69, 55
1, 272254, Note_off_c, 0, 69, 61
1, 272298, Note_on_c, 0, 67, 42
1, 272343, Note_off_c, 0, 67, 59
1, 272375, Note_on_c, 0, 65, 53
1, 272405, Control_c, 0, 64, 24
1, 272409, Note_off_c, 0, 65, 65
1, 272446, Note_on_c, 0, 52, 54
1, 272480, Note_on_c, 0, 64, 17
1, 272484, Note_off_c, 0, 52, 64
1, 272513, Note_off_c, 0, 64, 45
1, 272540, Note_on_c, 0, 71, 57
1, 272574, Note_off_c, 0, 71, 65
1, 272621, Note_on_c, 0, 74, 51
1, 272664, Note_off_c, 0, 74, 65
1, 272694, Note_on_c, 0, 77, 58
1, 272737, Note_off_c, 0, 77, 54
1, 272768, Note_on_c, 0, 56, 56
1, 272772, Note_off_c, 0, 57, 58
1, 272781, Note_on_c, 0, 76, 40
1, 272817, Note_off_c, 0, 76, 49
1, 272856, Note_on_c, 0, 74, 52
1, 272864, Note_off_c, 0, 56, 63
1, 272900, Note_off_c, 0, 74, 62
1, 272938, Note_on_c, 0, 71, 47
1, 272963, Note_off_c, 0, 71, 61
1, 273003, Note_on_c, 0, 64, 61
1, 273036, Note_off_c, 0, 64, 64
1, 273088, Note_on_c, 0, 58, 66
1, 273089, Note_on_c, 0, 62, 76
1, 273110, Control_c, 0, 64, 24
1, 273136, Note_off_c, 0, 58, 58
1, 273169, Control_c, 0, 64, 25
1, 273179, Note_on_c, 0, 66, 50
1, 273215, Note_off_c, 0, 66, 64
1, 273247, Note_on_c, 0, 67, 63
1, 273258, Control_c, 0, 64, 25
1, 273279, Note_off_c, 0, 67, 64
1, 273330, Note_on_c, 0, 69, 60
1, 273368, Note_off_c, 0, 69, 62
1, 273392, Control_c, 0, 64, 26
1, 273401, Note_on_c, 0, 52, 52
1, 273408, Note_on_c, 0, 70, 58
1, 273422, Control_c, 0, 64, 26
1, 273436, Control_c, 0, 64, 27
1, 273452, Note_off_c, 0, 52, 59
1, 273454, Note_off_c, 0, 70, 60
1, 273466, Control_c, 0, 64, 27
1, 273487, Note_on_c, 0, 74, 62
1, 273511, Control_c, 0, 64, 28
1, 273530, Note_off_c, 0, 74, 58
1, 273574, Note_on_c, 0, 72, 45
1, 273600, Control_c, 0, 64, 28
1, 273621, Note_off_c, 0, 72, 64
1, 273635, Note_on_c, 0, 70, 65
1, 273645, Control_c, 0, 64, 29
1, 273669, Note_off_c, 0, 70, 66
1, 273716, Note_on_c, 0, 69, 60
1, 273721, Note_on_c, 0, 57, 45
1, 273748, Control_c, 0, 64, 29
1, 273751, Note_off_c, 0, 69, 64
1, 273756, Note_off_c, 0, 57, 65
1, 273791, Note_on_c, 0, 76, 60
1, 273838, Note_off_c, 0, 76, 63
1, 273872, Note_on_c, 0, 79, 60
1, 273904, Control_c, 0, 64, 30
1, 273905, Note_off_c, 0, 79, 66
1, 273933, Control_c, 0, 64, 30
1, 273941, Note_on_c, 0, 82, 70
1, 273948, Control_c, 0, 64, 31
1, 273969, Note_off_c, 0, 82, 65
1, 274026, Note_on_c, 0, 81, 67
1, 274030, Note_on_c, 0, 61, 56
1, 274037, Note_off_c, 0, 62, 57
1, 274074, Note_off_c, 0, 81, 63
1, 274095, Note_on_c, 0, 79, 67
1, 274106, Note_off_c, 0, 61, 62
1, 274152, Note_off_c, 0, 79, 56
1, 274171, Note_on_c, 0, 76, 72
1, 274199, Note_off_c, 0, 76, 67
1, 274243, Control_c, 0, 64, 32
1, 274251, Note_on_c, 0, 69, 65
1, 274259, Control_c, 0, 64, 32
1, 274274, Control_c, 0, 64, 33
1, 274286, Note_off_c, 0, 69, 65
1, 274304, Control_c, 0, 64, 33
1, 274333, Control_c, 0, 64, 34
1, 274335, Note_on_c, 0, 65, 79
1, 274337, Note_on_c, 0, 62, 69
1, 274393, Control_c, 0, 64, 34
1, 274395, Note_off_c, 0, 62, 64
1, 274410, Note_on_c, 0, 68, 57
1, 274422, Control_c, 0, 64, 35
1, 274450, Note_off_c, 0, 68, 63
1, 274477, Note_on_c, 0, 69, 64
1, 274527, Note_off_c, 0, 69, 56
1, 274570, Note_on_c, 0, 71, 57
1, 274590, Note_off_c, 0, 71, 61
1, 274649, Note_on_c, 0, 64, 66
1, 274653, Note_off_c, 0, 65, 56
1, 274661, Note_on_c, 0, 57, 55
1, 274667, Control_c, 0, 64, 35
1, 274684, Note_on_c, 0, 73, 53
1, 274718, Note_off_c, 0, 73, 65
1, 274739, Note_off_c, 0, 57, 63
1, 274752, Note_on_c, 0, 76, 57
1, 274798, Note_off_c, 0, 76, 63
1, 274817, Note_on_c, 0, 79, 67
1, 274881, Note_off_c, 0, 79, 65
1, 274882, Note_off_c, 0, 64, 62
1, 274884, Note_on_c, 0, 85, 66
1, 274910, Note_off_c, 0, 85, 68
1, 274978, Note_on_c, 0, 62, 79
1, 274981, Note_on_c, 0, 58, 69
1, 275051, Note_off_c, 0, 58, 62
1, 275062, Note_on_c, 0, 64, 61
1, 275123, Note_off_c, 0, 64, 60
1, 275139, Note_on_c, 0, 65, 58
1, 275180, Note_off_c, 0, 65, 64
1, 275199, Note_on_c, 0, 67, 62
1, 275228, Note_off_c, 0, 67, 66
1, 275278, Note_on_c, 0, 60, 81
1, 275284, Note_off_c, 0, 62, 61
1, 275287, Note_on_c, 0, 53, 67
1, 275310, Note_on_c, 0, 69, 73
1, 275312, Control_c, 0, 64, 35
1, 275380, Note_off_c, 0, 69, 61
1, 275381, Note_off_c, 0, 53, 62
1, 275395, Note_on_c, 0, 72, 65
1, 275439, Note_off_c, 0, 60, 62
1, 275460, Note_off_c, 0, 72, 63
1, 275461, Note_on_c, 0, 75, 71
1, 275530, Note_off_c, 0, 75, 65
1, 275535, Note_on_c, 0, 81, 72
1, 275577, Note_off_c, 0, 81, 63
1, 275593, Control_c, 0, 64, 35
1, 275608, Control_c, 0, 64, 36
1, 275623, Control_c, 0, 64, 36
1, 275637, Control_c, 0, 64, 37
1, 275640, Note_on_c, 0, 60, 80
1, 275646, Note_on_c, 0, 54, 72
1, 275652, Control_c, 0, 64, 38
1, 275667, Control_c, 0, 64, 39
1, 275681, Control_c, 0, 64, 39
1, 275696, Control_c, 0, 64, 40
1, 275704, Note_off_c, 0, 54, 64
1, 275726, Control_c, 0, 64, 40
1, 275743, Note_on_c, 0, 62, 52
1, 275771, Control_c, 0, 64, 41
1, 275789, Note_off_c, 0, 62, 61
1, 275815, Control_c, 0, 64, 41
1, 275820, Note_on_c, 0, 64, 55
1, 275888, Note_off_c, 0, 64, 61
1, 275899, Note_on_c, 0, 66, 59
1, 275930, Note_off_c, 0, 66, 64
1, 275952, Note_on_c, 0, 52, 51
1, 275961, Note_on_c, 0, 58, 61
1, 275976, Note_off_c, 0, 60, 62
1, 275985, Note_on_c, 0, 67, 60
1, 276027, Note_off_c, 0, 67, 60
1, 276034, Note_off_c, 0, 52, 56
1, 276071, Note_on_c, 0, 70, 63
1, 276140, Note_off_c, 0, 70, 63
1, 276148, Note_on_c, 0, 76, 61
1, 276202, Note_off_c, 0, 76, 60
1, 276226, Note_on_c, 0, 74, 46
1, 276251, Note_off_c, 0, 74, 57
1, 276311, Note_on_c, 0, 57, 55
1, 276313, Note_off_c, 0, 58, 61
1, 276325, Note_on_c, 0, 73, 50
1, 276367, Note_off_c, 0, 73, 60
1, 276414, Note_on_c, 0, 76, 51
1, 276457, Note_off_c, 0, 76, 64
1, 276489, Note_on_c, 0, 79, 54
1, 276533, Note_off_c, 0, 79, 62
1, 276561, Note_on_c, 0, 76, 58
1, 276614, Note_off_c, 0, 76, 58
1, 276635, Note_on_c, 0, 73, 62
1, 276641, Note_off_c, 0, 57, 56
1, 276674, Note_off_c, 0, 73, 63
1, 276722, Note_on_c, 0, 69, 54
1, 276768, Note_off_c, 0, 69, 56
1, 276796, Note_on_c, 0, 67, 58
1, 276844, Note_off_c, 0, 67, 63
1, 276880, Note_on_c, 0, 64, 68
1, 276911, Note_off_c, 0, 64, 65
1, 276960, Note_on_c, 0, 53, 76
1, 276963, Note_on_c, 0, 57, 77
1, 277022, Note_off_c, 0, 53, 63
1, 277047, Note_on_c, 0, 61, 58
1, 277084, Note_off_c, 0, 61, 64
1, 277124, Note_on_c, 0, 62, 61
1, 277160, Note_off_c, 0, 62, 61
1, 277205, Note_on_c, 0, 64, 58
1, 277225, Control_c, 0, 64, 41
1, 277243, Note_off_c, 0, 64, 61
1, 277270, Control_c, 0, 64, 40
1, 277276, Note_on_c, 0, 47, 56
1, 277288, Note_on_c, 0, 65, 56
1, 277327, Note_off_c, 0, 65, 65
1, 277330, Note_off_c, 0, 47, 58
1, 277357, Note_on_c, 0, 69, 61
1, 277397, Note_off_c, 0, 69, 61
1, 277443, Note_on_c, 0, 67, 48
1, 277484, Note_off_c, 0, 67, 65
1, 277493, Control_c, 0, 64, 40
1, 277500, Note_on_c, 0, 65, 56
1, 277533, Note_off_c, 0, 65, 64
1, 277591, Note_on_c, 0, 64, 61
1, 277600, Note_on_c, 0, 52, 52
1, 277628, Note_off_c, 0, 64, 62
1, 277643, Note_off_c, 0, 52, 65
1, 277672, Note_on_c, 0, 71, 54
1, 277707, Control_c, 0, 64, 39
1, 277708, Note_off_c, 0, 71, 65
1, 277743, Note_on_c, 0, 74, 54
1, 277783, Note_off_c, 0, 74, 63
1, 277821, Note_on_c, 0, 77, 53
1, 277860, Note_off_c, 0, 77, 56
1, 277912, Note_on_c, 0, 56, 57
1, 277913, Note_on_c, 0, 76, 35
1, 277948, Note_off_c, 0, 57, 56
1, 277961, Note_off_c, 0, 76, 46
1, 277996, Note_on_c, 0, 74, 53
1, 278030, Note_off_c, 0, 56, 64
1, 278047, Note_off_c, 0, 74, 59
1, 278069, Note_on_c, 0, 71, 58
1, 278106, Note_off_c, 0, 71, 65
1, 278135, Note_on_c, 0, 64, 59
1, 278170, Note_off_c, 0, 64, 64
1, 278229, Note_on_c, 0, 51, 63
1, 278230, Note_on_c, 0, 55, 68
1, 278274, Note_off_c, 0, 51, 61
1, 278322, Note_on_c, 0, 59, 57
1, 278360, Note_off_c, 0, 59, 65
1, 278409, Note_on_c, 0, 60, 56
1, 278449, Note_off_c, 0, 60, 62
1, 278487, Note_on_c, 0, 62, 52
1, 278514, Control_c, 0, 64, 39
1, 278530, Note_off_c, 0, 62, 62
1, 278561, Note_on_c, 0, 45, 49
1, 278575, Note_on_c, 0, 63, 55
1, 278619, Note_off_c, 0, 63, 61
1, 278628, Note_off_c, 0, 45, 58
1, 278659, Note_on_c, 0, 67, 45
1, 278687, Note_off_c, 0, 67, 57
1, 278725, Note_on_c, 0, 65, 54
1, 278787, Note_off_c, 0, 65, 58
1, 278816, Note_on_c, 0, 63, 54
1, 278849, Note_off_c, 0, 63, 64
1, 278878, Note_on_c, 0, 50, 44
1, 278891, Note_on_c, 0, 62, 48
1, 278913, Note_off_c, 0, 50, 65
1, 278925, Note_off_c, 0, 62, 61
1, 278965, Note_on_c, 0, 69, 60
1, 279000, Note_off_c, 0, 69, 64
1, 279018, Control_c, 0, 64, 38
1, 279056, Note_on_c, 0, 72, 48
1, 279095, Note_off_c, 0, 72, 65
1, 279124, Note_on_c, 0, 75, 56
1, 279176, Note_off_c, 0, 75, 61
1, 279189, Note_on_c, 0, 54, 53
1, 279214, Note_on_c, 0, 74, 51
1, 279220, Note_off_c, 0, 55, 53
1, 279264, Note_off_c, 0, 74, 58
1, 279288, Note_on_c, 0, 72, 57
1, 279324, Note_off_c, 0, 54, 64
1, 279354, Note_off_c, 0, 72, 59
1, 279363, Note_on_c, 0, 69, 67
1, 279401, Note_off_c, 0, 69, 63
1, 279453, Note_on_c, 0, 62, 59
1, 279490, Note_off_c, 0, 62, 65
1, 279525, Note_on_c, 0, 55, 49
1, 279534, Note_on_c, 0, 58, 72
1, 279590, Note_off_c, 0, 55, 61
1, 279619, Note_on_c, 0, 61, 49
1, 279659, Note_off_c, 0, 61, 64
1, 279680, Note_on_c, 0, 62, 56
1, 279738, Note_off_c, 0, 62, 61
1, 279765, Note_on_c, 0, 64, 51
1, 279788, Note_off_c, 0, 64, 60
1, 279855, Note_on_c, 0, 57, 73
1, 279855, Note_off_c, 0, 58, 63
1, 279867, Note_on_c, 0, 50, 56
1, 279873, Note_on_c, 0, 66, 52
1, 279905, Note_off_c, 0, 50, 64
1, 279907, Note_off_c, 0, 66, 63
1, 279941, Note_on_c, 0, 69, 66
1, 279998, Note_off_c, 0, 69, 61
1, 280012, Note_on_c, 0, 72, 65
1, 280074, Note_off_c, 0, 72, 65
1, 280075, Note_on_c, 0, 78, 60
1, 280081, Note_off_c, 0, 57, 56
1, 280107, Note_off_c, 0, 78, 66
1, 280173, Note_on_c, 0, 46, 69
1, 280174, Note_on_c, 0, 55, 77
1, 280259, Note_on_c, 0, 57, 55
1, 280265, Note_off_c, 0, 46, 58
1, 280323, Note_off_c, 0, 57, 60
1, 280327, Note_on_c, 0, 58, 61
1, 280386, Note_off_c, 0, 58, 63
1, 280400, Note_on_c, 0, 60, 64
1, 280439, Note_off_c, 0, 60, 67
1, 280479, Note_on_c, 0, 53, 73
1, 280490, Note_on_c, 0, 47, 64
1, 280492, Note_off_c, 0, 55, 59
1, 280506, Note_on_c, 0, 62, 64
1, 280574, Note_off_c, 0, 62, 55
1, 280591, Note_on_c, 0, 65, 61
1, 280604, Note_off_c, 0, 47, 56
1, 280613, Control_c, 0, 64, 38
1, 280645, Note_off_c, 0, 65, 59
1, 280656, Note_off_c, 0, 53, 58
1, 280658, Note_on_c, 0, 68, 68
1, 280733, Note_off_c, 0, 68, 63
1, 280734, Note_on_c, 0, 74, 63
1, 280764, Note_off_c, 0, 74, 66
1, 280826, Note_on_c, 0, 53, 59
1, 280831, Note_on_c, 0, 48, 51
1, 280879, Note_off_c, 0, 48, 60
1, 280904, Note_on_c, 0, 54, 51
1, 280951, Note_off_c, 0, 54, 64
1, 281000, Note_on_c, 0, 55, 43
1, 281054, Note_off_c, 0, 55, 61
1, 281073, Note_on_c, 0, 57, 55
1, 281119, Note_off_c, 0, 57, 60
1, 281142, Note_on_c, 0, 52, 48
1, 281142, Note_off_c, 0, 53, 58
1, 281167, Note_on_c, 0, 58, 48
1, 281226, Note_off_c, 0, 58, 61
1, 281255, Note_on_c, 0, 62, 38
1, 281303, Note_off_c, 0, 62, 56
1, 281345, Note_on_c, 0, 60, 46
1, 281398, Note_off_c, 0, 60, 63
1, 281418, Note_on_c, 0, 58, 59
1, 281422, Note_off_c, 0, 52, 34
1, 281453, Note_off_c, 0, 58, 65
1, 281473, Note_on_c, 0, 41, 44
1, 281474, Note_on_c, 0, 53, 49
1, 281500, Note_on_c, 0, 57, 53
1, 281549, Note_off_c, 0, 57, 58
1, 281569, Control_c, 0, 64, 38
1, 281582, Note_on_c, 0, 60, 55
1, 281583, Control_c, 0, 64, 40
1, 281598, Control_c, 0, 64, 44
1, 281613, Control_c, 0, 64, 48
1, 281628, Control_c, 0, 64, 53
1, 281643, Control_c, 0, 64, 57
1, 281647, Note_off_c, 0, 60, 55
1, 281658, Control_c, 0, 64, 61
1, 281672, Control_c, 0, 64, 65
1, 281677, Note_on_c, 0, 65, 44
1, 281687, Control_c, 0, 64, 68
1, 281702, Control_c, 0, 64, 74
1, 281707, Note_off_c, 0, 41, 41
1, 281710, Note_on_c, 0, 68, 65
1, 281716, Control_c, 0, 64, 81
1, 281717, Note_off_c, 0, 65, 64
1, 281724, Note_off_c, 0, 53, 58
1, 281731, Control_c, 0, 64, 87
1, 281741, Note_off_c, 0, 68, 66
1, 281746, Control_c, 0, 64, 91
1, 281761, Control_c, 0, 64, 93
1, 281776, Control_c, 0, 64, 92
1, 281790, Control_c, 0, 64, 90
1, 281805, Control_c, 0, 64, 87
1, 281810, Note_on_c, 0, 69, 65
1, 281820, Control_c, 0, 64, 85
1, 281835, Control_c, 0, 64, 83
1, 281850, Control_c, 0, 64, 82
1, 281864, Control_c, 0, 64, 78
1, 281873, Note_off_c, 0, 69, 61
1, 281879, Control_c, 0, 64, 74
1, 281883, Note_on_c, 0, 72, 64
1, 281894, Control_c, 0, 64, 70
1, 281909, Control_c, 0, 64, 67
1, 281923, Control_c, 0, 64, 66
1, 281935, Note_off_c, 0, 72, 58
1, 281938, Control_c, 0, 64, 66
1, 281953, Control_c, 0, 64, 65
1, 281956, Note_on_c, 0, 77, 67
1, 281968, Control_c, 0, 64, 64
1, 281983, Control_c, 0, 64, 62
1, 281998, Control_c, 0, 64, 60
1, 282013, Control_c, 0, 64, 58
1, 282013, Note_off_c, 0, 77, 62
1, 282026, Note_on_c, 0, 81, 61
1, 282028, Control_c, 0, 64, 57
1, 282050, Control_c, 0, 64, 57
1, 282065, Control_c, 0, 64, 55
1, 282071, Note_off_c, 0, 81, 60
1, 282079, Control_c, 0, 64, 52
1, 282094, Control_c, 0, 64, 50
1, 282102, Note_on_c, 0, 79, 71
1, 282109, Note_on_c, 0, 52, 53
1, 282109, Control_c, 0, 64, 48
1, 282111, Note_on_c, 0, 60, 63
1, 282123, Control_c, 0, 64, 46
1, 282138, Control_c, 0, 64, 45
1, 282153, Control_c, 0, 64, 44
1, 282161, Note_off_c, 0, 52, 60
1, 282168, Control_c, 0, 64, 42
1, 282171, Note_off_c, 0, 79, 62
1, 282183, Control_c, 0, 64, 41
1, 282197, Control_c, 0, 64, 40
1, 282206, Note_on_c, 0, 76, 20
1, 282229, Note_off_c, 0, 76, 35
1, 282243, Control_c, 0, 64, 40
1, 282249, Note_on_c, 0, 72, 59
1, 282284, Note_off_c, 0, 72, 62
1, 282328, Note_on_c, 0, 70, 61
1, 282347, Control_c, 0, 64, 39
1, 282396, Note_on_c, 0, 48, 43
1, 282397, Note_off_c, 0, 70, 63
1, 282402, Note_on_c, 0, 67, 61
1, 282439, Note_off_c, 0, 48, 60
1, 282442, Note_off_c, 0, 67, 62
1, 282478, Note_on_c, 0, 64, 58
1, 282495, Control_c, 0, 64, 39
1, 282523, Note_off_c, 0, 64, 58
1, 282539, Control_c, 0, 64, 38
1, 282541, Note_off_c, 0, 60, 34
1, 282551, Note_on_c, 0, 67, 67
1, 282569, Control_c, 0, 64, 38
1, 282599, Control_c, 0, 64, 37
1, 282608, Note_off_c, 0, 67, 56
1, 282637, Note_on_c, 0, 70, 48
1, 282643, Control_c, 0, 64, 37
1, 282662, Note_off_c, 0, 70, 62
1, 282705, Note_on_c, 0, 53, 49
1, 282762, Note_off_c, 0, 53, 63
1, 282770, Note_on_c, 0, 69, 58
1, 282825, Note_off_c, 0, 69, 58
1, 282864, Note_on_c, 0, 67, 56
1, 282929, Note_off_c, 0, 67, 59
1, 282946, Note_on_c, 0, 65, 57
1, 282989, Note_off_c, 0, 65, 62
1, 283022, Note_on_c, 0, 59, 68
1, 283026, Note_on_c, 0, 31, 50
1, 283029, Note_on_c, 0, 43, 51
1, 283098, Note_off_c, 0, 43, 57
1, 283098, Note_off_c, 0, 31, 60
1, 283111, Control_c, 0, 64, 37
1, 283138, Note_on_c, 0, 62, 53
1, 283140, Control_c, 0, 64, 38
1, 283172, Note_on_c, 0, 68, 63
1, 283199, Note_off_c, 0, 59, 53
1, 283199, Control_c, 0, 64, 38
1, 283214, Note_off_c, 0, 62, 60
1, 283260, Note_off_c, 0, 68, 61
1, 283261, Note_on_c, 0, 65, 67
1, 283288, Control_c, 0, 64, 39
1, 283325, Note_on_c, 0, 59, 75
1, 283327, Note_on_c, 0, 31, 63
1, 283328, Note_on_c, 0, 43, 64
1, 283335, Note_off_c, 0, 65, 57
1, 283348, Control_c, 0, 64, 39
1, 283399, Note_off_c, 0, 31, 55
1, 283407, Control_c, 0, 64, 40
1, 283417, Note_on_c, 0, 62, 68
1, 283419, Note_off_c, 0, 43, 57
1, 283436, Control_c, 0, 64, 40
1, 283481, Control_c, 0, 64, 41
1, 283492, Note_on_c, 0, 68, 69
1, 283498, Note_off_c, 0, 59, 58
1, 283509, Note_off_c, 0, 62, 63
1, 283548, Control_c, 0, 64, 41
1, 283568, Note_on_c, 0, 65, 67
1, 283569, Note_off_c, 0, 68, 61
1, 283615, Note_off_c, 0, 65, 58
1, 283636, Note_on_c, 0, 59, 81
1, 283640, Note_on_c, 0, 31, 64
1, 283643, Note_on_c, 0, 43, 65
1, 283673, Note_off_c, 0, 31, 65
1, 283681, Control_c, 0, 64, 42
1, 283693, Note_off_c, 0, 43, 61
1, 283722, Note_on_c, 0, 62, 66
1, 283784, Control_c, 0, 64, 42
1, 283794, Note_on_c, 0, 68, 62
1, 283807, Note_off_c, 0, 59, 52
1, 283817, Note_off_c, 0, 62, 61
1, 283829, Control_c, 0, 64, 43
1, 283845, Control_c, 0, 64, 44
1, 283860, Control_c, 0, 64, 44
1, 283864, Note_off_c, 0, 68, 60
1, 283874, Control_c, 0, 64, 45
1, 283888, Note_on_c, 0, 65, 48
1, 283889, Control_c, 0, 64, 45
1, 283920, Control_c, 0, 64, 46
1, 283940, Note_off_c, 0, 65, 60
1, 283952, Note_on_c, 0, 36, 35
1, 283967, Note_on_c, 0, 48, 32
1, 283971, Note_on_c, 0, 59, 53
1, 283979, Control_c, 0, 64, 46
1, 283993, Control_c, 0, 64, 47
1, 284008, Control_c, 0, 64, 49
1, 284023, Control_c, 0, 64, 51
1, 284038, Control_c, 0, 64, 53
1, 284053, Control_c, 0, 64, 56
1, 284067, Note_off_c, 0, 36, 54
1, 284067, Control_c, 0, 64, 58
1, 284079, Note_on_c, 0, 62, 42
1, 284082, Control_c, 0, 64, 61
1, 284097, Control_c, 0, 64, 63
1, 284112, Control_c, 0, 64, 65
1, 284123, Note_off_c, 0, 48, 36
1, 284127, Control_c, 0, 64, 68
1, 284132, Note_on_c, 0, 68, 55
1, 284141, Control_c, 0, 64, 71
1, 284156, Control_c, 0, 64, 74
1, 284157, Note_off_c, 0, 62, 51
1, 284159, Note_off_c, 0, 59, 36
1, 284171, Control_c, 0, 64, 76
1, 284186, Control_c, 0, 64, 78
1, 284201, Control_c, 0, 64, 79
1, 284208, Note_off_c, 0, 68, 61
1, 284213, Note_on_c, 0, 65, 52
1, 284216, Control_c, 0, 64, 78
1, 284230, Control_c, 0, 64, 78
1, 284237, Note_off_c, 0, 65, 60
1, 284245, Control_c, 0, 64, 77
1, 284260, Control_c, 0, 64, 76
1, 284272, Note_on_c, 0, 60, 74
1, 284275, Control_c, 0, 64, 75
1, 284297, Control_c, 0, 64, 74
1, 284312, Control_c, 0, 64, 72
1, 284326, Control_c, 0, 64, 70
1, 284341, Control_c, 0, 64, 67
1, 284356, Control_c, 0, 64, 65
1, 284358, Note_on_c, 0, 64, 67
1, 284371, Control_c, 0, 64, 64
1, 284386, Control_c, 0, 64, 63
1, 284400, Control_c, 0, 64, 61
1, 284415, Control_c, 0, 64, 59
1, 284429, Note_on_c, 0, 67, 67
1, 284430, Note_off_c, 0, 60, 57
1, 284430, Control_c, 0, 64, 56
1, 284445, Control_c, 0, 64, 54
1, 284458, Note_off_c, 0, 64, 60
1, 284460, Control_c, 0, 64, 53
1, 284475, Control_c, 0, 64, 52
1, 284490, Control_c, 0, 64, 51
1, 284491, Note_on_c, 0, 72, 78
1, 284500, Note_off_c, 0, 67, 64
1, 284505, Control_c, 0, 64, 51
1, 284514, Note_off_c, 0, 72, 70
1, 284519, Control_c, 0, 64, 50
1, 284534, Control_c, 0, 64, 49
1, 284564, Control_c, 0, 64, 49
1, 284570, Note_on_c, 0, 58, 77
1, 284573, Note_on_c, 0, 62, 78
1, 284631, Note_off_c, 0, 58, 63
1, 284653, Control_c, 0, 64, 48
1, 284663, Note_on_c, 0, 86, 69
1, 284663, Note_on_c, 0, 78, 28
1, 284685, Note_off_c, 0, 78, 47
1, 284726, Note_off_c, 0, 86, 63
1, 284736, Note_on_c, 0, 82, 61
1, 284742, Control_c, 0, 64, 48
1, 284792, Note_on_c, 0, 79, 70
1, 284800, Note_off_c, 0, 82, 60
1, 284801, Control_c, 0, 64, 47
1, 284826, Note_off_c, 0, 79, 67
1, 284845, Control_c, 0, 64, 47
1, 284868, Note_on_c, 0, 52, 55
1, 284877, Note_on_c, 0, 74, 49
1, 284889, Control_c, 0, 64, 46
1, 284902, Note_off_c, 0, 74, 63
1, 284918, Note_off_c, 0, 52, 60
1, 284925, Note_off_c, 0, 62, 60
1, 284934, Control_c, 0, 64, 46
1, 284956, Note_on_c, 0, 70, 59
1, 284979, Control_c, 0, 64, 45
1, 285021, Note_off_c, 0, 70, 63
1, 285022, Note_on_c, 0, 67, 62
1, 285060, Control_c, 0, 64, 45
1, 285061, Note_off_c, 0, 67, 66
1, 285089, Control_c, 0, 64, 44
1, 285105, Note_on_c, 0, 62, 54
1, 285119, Control_c, 0, 64, 44
1, 285140, Note_off_c, 0, 62, 64
1, 285180, Note_on_c, 0, 57, 55
1, 285218, Note_off_c, 0, 57, 66
1, 285244, Note_on_c, 0, 70, 53
1, 285283, Control_c, 0, 64, 43
1, 285324, Note_off_c, 0, 70, 63
1, 285355, Note_on_c, 0, 69, 42
1, 285402, Note_off_c, 0, 69, 59
1, 285403, Note_on_c, 0, 67, 56
1, 285479, Note_on_c, 0, 61, 74
1, 285479, Note_off_c, 0, 67, 58
1, 285487, Note_on_c, 0, 45, 50
1, 285493, Note_on_c, 0, 33, 45
1, 285544, Note_off_c, 0, 33, 58
1, 285555, Note_off_c, 0, 45, 56
1, 285564, Control_c, 0, 64, 44
1, 285574, Note_on_c, 0, 64, 62
1, 285609, Control_c, 0, 64, 44
1, 285640, Note_on_c, 0, 70, 64
1, 285653, Control_c, 0, 64, 45
1, 285669, Note_off_c, 0, 64, 56
1, 285683, Control_c, 0, 64, 45
1, 285688, Note_off_c, 0, 61, 59
1, 285696, Note_on_c, 0, 67, 71
1, 285706, Note_off_c, 0, 70, 62
1, 285727, Control_c, 0, 64, 46
1, 285748, Note_off_c, 0, 67, 57
1, 285774, Note_on_c, 0, 61, 85
1, 285792, Note_on_c, 0, 45, 67
1, 285796, Note_on_c, 0, 33, 60
1, 285809, Control_c, 0, 64, 46
1, 285849, Note_off_c, 0, 33, 60
1, 285867, Note_off_c, 0, 45, 57
1, 285873, Note_on_c, 0, 64, 72
1, 285883, Control_c, 0, 64, 47
1, 285927, Control_c, 0, 64, 47
1, 285946, Note_on_c, 0, 70, 70
1, 285970, Note_off_c, 0, 64, 63
1, 285986, Note_off_c, 0, 61, 59
1, 285986, Control_c, 0, 64, 48
1, 286016, Note_on_c, 0, 67, 73
1, 286026, Note_off_c, 0, 70, 60
1, 286076, Control_c, 0, 64, 48
1, 286080, Note_off_c, 0, 67, 61
1, 286094, Note_on_c, 0, 61, 83
1, 286105, Note_on_c, 0, 33, 59
1, 286108, Note_on_c, 0, 45, 60
1, 286150, Control_c, 0, 64, 49
1, 286161, Note_off_c, 0, 45, 58
1, 286189, Note_off_c, 0, 33, 60
1, 286200, Note_on_c, 0, 64, 68
1, 286275, Note_on_c, 0, 70, 57
1, 286307, Note_off_c, 0, 64, 59
1, 286311, Note_off_c, 0, 61, 52
1, 286365, Note_on_c, 0, 67, 51
1, 286374, Note_off_c, 0, 70, 61
1, 286411, Note_off_c, 0, 67, 59
1, 286442, Note_on_c, 0, 34, 36
1, 286446, Note_on_c, 0, 61, 66
1, 286448, Note_on_c, 0, 46, 43
1, 286491, Control_c, 0, 64, 48
1, 286506, Control_c, 0, 64, 48
1, 286562, Note_on_c, 0, 64, 58
1, 286573, Control_c, 0, 64, 50
1, 286587, Control_c, 0, 64, 54
1, 286602, Control_c, 0, 64, 59
1, 286615, Note_off_c, 0, 46, 54
1, 286617, Control_c, 0, 64, 63
1, 286632, Control_c, 0, 64, 65
1, 286635, Note_off_c, 0, 34, 42
1, 286647, Control_c, 0, 64, 68
1, 286648, Note_on_c, 0, 70, 56
1, 286662, Control_c, 0, 64, 72
1, 286676, Control_c, 0, 64, 76
1, 286684, Note_off_c, 0, 64, 55
1, 286691, Control_c, 0, 64, 79
1, 286706, Control_c, 0, 64, 82
1, 286720, Note_on_c, 0, 67, 60
1, 286720, Note_off_c, 0, 61, 59
1, 286721, Control_c, 0, 64, 84
1, 286734, Note_off_c, 0, 70, 60
1, 286765, Control_c, 0, 64, 83
1, 286769, Note_off_c, 0, 67, 57
1, 286780, Control_c, 0, 64, 82
1, 286793, Note_on_c, 0, 62, 77
1, 286794, Control_c, 0, 64, 81
1, 286809, Control_c, 0, 64, 80
1, 286824, Control_c, 0, 64, 77
1, 286839, Control_c, 0, 64, 72
1, 286854, Control_c, 0, 64, 68
1, 286869, Control_c, 0, 64, 65
1, 286879, Note_on_c, 0, 65, 63
1, 286883, Control_c, 0, 64, 63
1, 286898, Control_c, 0, 64, 63
1, 286913, Control_c, 0, 64, 62
1, 286928, Control_c, 0, 64, 61
1, 286943, Control_c, 0, 64, 59
1, 286957, Note_on_c, 0, 70, 67
1, 286958, Control_c, 0, 64, 57
1, 286985, Note_off_c, 0, 62, 54
1, 287013, Note_off_c, 0, 65, 60
1, 287033, Control_c, 0, 64, 57
1, 287038, Note_on_c, 0, 74, 76
1, 287062, Control_c, 0, 64, 56
1, 287071, Note_off_c, 0, 70, 63
1, 287077, Control_c, 0, 64, 56
1, 287092, Control_c, 0, 64, 55
1, 287098, Note_off_c, 0, 74, 63
1, 287122, Control_c, 0, 64, 54
1, 287137, Control_c, 0, 64, 54
1, 287146, Note_on_c, 0, 65, 85
1, 287147, Note_on_c, 0, 53, 76
1, 287152, Control_c, 0, 64, 53
1, 287166, Control_c, 0, 64, 53
1, 287181, Control_c, 0, 64, 52
1, 287196, Control_c, 0, 64, 52
1, 287225, Control_c, 0, 64, 51
1, 287226, Note_off_c, 0, 53, 56
1, 287240, Control_c, 0, 64, 51
1, 287255, Control_c, 0, 64, 50
1, 287265, Note_on_c, 0, 66, 64
1, 287292, Control_c, 0, 64, 50
1, 287310, Note_off_c, 0, 66, 62
1, 287322, Control_c, 0, 64, 49
1, 287337, Control_c, 0, 64, 49
1, 287351, Note_on_c, 0, 67, 66
1, 287381, Control_c, 0, 64, 48
1, 287393, Note_off_c, 0, 67, 57
1, 287396, Control_c, 0, 64, 48
1, 287425, Control_c, 0, 64, 47
1, 287438, Note_on_c, 0, 69, 58
1, 287440, Control_c, 0, 64, 47
1, 287470, Control_c, 0, 64, 46
1, 287478, Note_off_c, 0, 69, 61
1, 287484, Control_c, 0, 64, 46
1, 287514, Control_c, 0, 64, 45
1, 287523, Note_on_c, 0, 70, 56
1, 287558, Control_c, 0, 64, 45
1, 287566, Note_off_c, 0, 70, 63
1, 287590, Note_on_c, 0, 74, 58
1, 287611, Note_off_c, 0, 65, 47
1, 287648, Control_c, 0, 64, 44
1, 287652, Note_off_c, 0, 74, 61
1, 287679, Note_on_c, 0, 72, 55
1, 287746, Note_off_c, 0, 72, 63
1, 287752, Note_on_c, 0, 70, 64
1, 287784, Note_off_c, 0, 70, 67
1, 287831, Note_on_c, 0, 64, 65
1, 287841, Note_on_c, 0, 53, 53
1, 287894, Note_off_c, 0, 53, 61
1, 287920, Note_on_c, 0, 67, 52
1, 287955, Note_off_c, 0, 67, 63
1, 287960, Control_c, 0, 64, 44
1, 287989, Control_c, 0, 64, 43
1, 288014, Note_on_c, 0, 72, 14
1, 288041, Control_c, 0, 64, 43
1, 288061, Note_off_c, 0, 72, 53
1, 288071, Control_c, 0, 64, 42
1, 288076, Note_on_c, 0, 70, 50
1, 288108, Note_off_c, 0, 70, 65
1, 288143, Note_on_c, 0, 63, 57
1, 288153, Note_on_c, 0, 69, 55
1, 288162, Note_off_c, 0, 64, 57
1, 288190, Note_off_c, 0, 69, 63
1, 288204, Control_c, 0, 64, 42
1, 288223, Note_on_c, 0, 72, 59
1, 288270, Note_off_c, 0, 72, 60
1, 288297, Note_on_c, 0, 75, 61
1, 288323, Control_c, 0, 64, 41
1, 288360, Note_off_c, 0, 75, 63
1, 288366, Note_on_c, 0, 79, 65
1, 288395, Note_off_c, 0, 79, 67
1, 288431, Note_off_c, 0, 63, 61
1, 288451, Note_on_c, 0, 62, 56
1, 288453, Note_on_c, 0, 53, 48
1, 288502, Note_off_c, 0, 53, 60
1, 288523, Note_on_c, 0, 77, 61
1, 288561, Note_off_c, 0, 77, 64
1, 288597, Note_on_c, 0, 74, 55
1, 288639, Note_off_c, 0, 74, 64
1, 288676, Note_on_c, 0, 70, 52
1, 288726, Note_on_c, 0, 60, 56
1, 288726, Note_off_c, 0, 70, 58
1, 288737, Note_off_c, 0, 62, 54
1, 288755, Note_on_c, 0, 75, 55
1, 288808, Note_off_c, 0, 75, 60
1, 288850, Note_on_c, 0, 72, 47
1, 288886, Note_off_c, 0, 72, 66
1, 288906, Note_on_c, 0, 69, 52
1, 288958, Note_off_c, 0, 69, 58
1, 288985, Note_on_c, 0, 63, 48
1, 289031, Note_off_c, 0, 63, 62
1, 289073, Note_on_c, 0, 54, 39
1, 289079, Note_on_c, 0, 61, 49
1, 289079, Note_off_c, 0, 60, 56
1, 289154, Note_on_c, 0, 69, 36
1, 289169, Note_off_c, 0, 54, 54
1, 289192, Note_off_c, 0, 69, 65
1, 289214, Note_on_c, 0, 66, 45
1, 289257, Note_off_c, 0, 66, 61
1, 289296, Note_on_c, 0, 69, 53
1, 289337, Note_off_c, 0, 69, 62
1, 289378, Note_on_c, 0, 72, 54
1, 289383, Note_off_c, 0, 61, 59
1, 289389, Note_on_c, 0, 62, 49
1, 289426, Note_off_c, 0, 72, 62
1, 289459, Note_off_c, 0, 62, 55
1, 289465, Note_on_c, 0, 75, 48
1, 289509, Note_off_c, 0, 75, 64
1, 289522, Note_on_c, 0, 74, 55
1, 289571, Note_off_c, 0, 74, 60
1, 289626, Note_on_c, 0, 72, 52
1, 289663, Note_off_c, 0, 72, 66
1, 289682, Note_on_c, 0, 70, 59
1, 289695, Note_on_c, 0, 55, 54
1, 289712, Note_off_c, 0, 70, 67
1, 289761, Note_on_c, 0, 74, 66
1, 289808, Note_off_c, 0, 74, 49
1, 289811, Note_off_c, 0, 55, 58
1, 289841, Note_on_c, 0, 86, 77
1, 289900, Note_on_c, 0, 82, 72
1, 289908, Note_off_c, 0, 86, 60
1, 289969, Note_on_c, 0, 79, 69
1, 289977, Note_off_c, 0, 82, 61
1, 290000, Note_on_c, 0, 62, 86
1, 290009, Note_off_c, 0, 79, 64
1, 290053, Note_on_c, 0, 74, 58
1, 290085, Note_off_c, 0, 74, 66
1, 290086, Control_c, 0, 64, 42
1, 290145, Note_on_c, 0, 70, 59
1, 290207, Note_on_c, 0, 67, 72
1, 290220, Note_off_c, 0, 70, 61
1, 290266, Note_off_c, 0, 67, 62
1, 290322, Note_off_c, 0, 62, 61
1, 290323, Note_on_c, 0, 61, 79
1, 290327, Note_on_c, 0, 57, 70
1, 290412, Note_on_c, 0, 69, 53
1, 290443, Note_off_c, 0, 57, 56
1, 290464, Note_off_c, 0, 69, 61
1, 290492, Note_on_c, 0, 65, 59
1, 290531, Note_off_c, 0, 65, 62
1, 290573, Note_on_c, 0, 69, 62
1, 290631, Note_off_c, 0, 69, 50
1, 290650, Note_on_c, 0, 62, 74
1, 290654, Note_on_c, 0, 77, 72
1, 290660, Note_off_c, 0, 61, 60
1, 290709, Note_off_c, 0, 77, 54
1, 290718, Note_on_c, 0, 74, 57
1, 290783, Note_on_c, 0, 69, 60
1, 290793, Note_off_c, 0, 74, 59
1, 290855, Note_off_c, 0, 69, 62
1, 290871, Note_on_c, 0, 65, 59
1, 290895, Control_c, 0, 64, 41
1, 290904, Note_off_c, 0, 65, 65
1, 290943, Note_off_c, 0, 62, 63
1, 290955, Note_on_c, 0, 64, 72
1, 290963, Note_on_c, 0, 57, 61
1, 291016, Note_off_c, 0, 57, 57
1, 291055, Note_on_c, 0, 69, 54
1, 291095, Note_off_c, 0, 69, 64
1, 291110, Control_c, 0, 64, 42
1, 291122, Note_on_c, 0, 67, 60
1, 291161, Note_off_c, 0, 67, 63
1, 291197, Note_on_c, 0, 69, 66
1, 291262, Note_off_c, 0, 69, 54
1, 291268, Note_on_c, 0, 61, 70
1, 291276, Note_on_c, 0, 79, 74
1, 291282, Note_off_c, 0, 64, 55
1, 291303, Control_c, 0, 64, 42
1, 291337, Note_off_c, 0, 61, 63
1, 291339, Note_off_c, 0, 79, 61
1, 291352, Note_on_c, 0, 76, 55
1, 291426, Note_on_c, 0, 69, 69
1, 291434, Note_off_c, 0, 76, 63
1, 291450, Control_c, 0, 64, 43
1, 291495, Note_off_c, 0, 69, 62
1, 291496, Note_on_c, 0, 67, 69
1, 291531, Note_off_c, 0, 67, 64
1, 291578, Note_on_c, 0, 62, 83
1, 291581, Note_on_c, 0, 50, 77
1, 291641, Note_off_c, 0, 50, 62
1, 291643, Control_c, 0, 64, 43
1, 291657, Control_c, 0, 64, 45
1, 291665, Note_on_c, 0, 69, 57
1, 291672, Control_c, 0, 64, 46
1, 291687, Control_c, 0, 64, 48
1, 291702, Control_c, 0, 64, 50
1, 291717, Control_c, 0, 64, 53
1, 291731, Control_c, 0, 64, 55
1, 291745, Note_off_c, 0, 69, 59
1, 291746, Note_on_c, 0, 65, 58
1, 291746, Control_c, 0, 64, 58
1, 291761, Control_c, 0, 64, 61
1, 291783, Control_c, 0, 64, 63
1, 291798, Control_c, 0, 64, 64
1, 291808, Note_off_c, 0, 65, 57
1, 291811, Note_off_c, 0, 62, 60
1, 291813, Control_c, 0, 64, 66
1, 291828, Note_on_c, 0, 77, 67
1, 291829, Control_c, 0, 64, 68
1, 291844, Control_c, 0, 64, 70
1, 291859, Control_c, 0, 64, 72
1, 291873, Control_c, 0, 64, 74
1, 291888, Control_c, 0, 64, 77
1, 291895, Note_off_c, 0, 77, 61
1, 291903, Control_c, 0, 64, 80
1, 291918, Control_c, 0, 64, 82
1, 291922, Note_on_c, 0, 74, 48
1, 291933, Control_c, 0, 64, 82
1, 291962, Control_c, 0, 64, 82
1, 291981, Note_on_c, 0, 70, 61
1, 291983, Note_off_c, 0, 74, 58
1, 292049, Note_off_c, 0, 70, 64
1, 292051, Control_c, 0, 64, 81
1, 292066, Control_c, 0, 64, 81
1, 292067, Note_on_c, 0, 69, 60
1, 292089, Note_off_c, 0, 69, 59
1, 292148, Note_on_c, 0, 67, 64
1, 292154, Control_c, 0, 64, 80
1, 292169, Control_c, 0, 64, 79
1, 292178, Note_off_c, 0, 67, 65
1, 292184, Control_c, 0, 64, 75
1, 292199, Control_c, 0, 64, 66
1, 292213, Control_c, 0, 64, 56
1, 292219, Note_on_c, 0, 53, 86
1, 292223, Note_on_c, 0, 41, 78
1, 292228, Control_c, 0, 64, 38
1, 292237, Note_on_c, 0, 65, 79
1, 292243, Control_c, 0, 64, 33
1, 292258, Control_c, 0, 64, 35
1, 292273, Control_c, 0, 64, 43
1, 292285, Note_off_c, 0, 41, 64
1, 292288, Control_c, 0, 64, 55
1, 292303, Control_c, 0, 64, 61
1, 292318, Control_c, 0, 64, 64
1, 292324, Note_on_c, 0, 66, 58
1, 292333, Control_c, 0, 64, 66
1, 292347, Control_c, 0, 64, 68
1, 292362, Control_c, 0, 64, 70
1, 292371, Note_off_c, 0, 66, 56
1, 292377, Control_c, 0, 64, 72
1, 292392, Note_on_c, 0, 67, 68
1, 292392, Control_c, 0, 64, 73
1, 292406, Control_c, 0, 64, 73
1, 292421, Control_c, 0, 64, 74
1, 292436, Control_c, 0, 64, 75
1, 292439, Note_off_c, 0, 67, 57
1, 292451, Control_c, 0, 64, 75
1, 292468, Note_on_c, 0, 69, 60
1, 292480, Control_c, 0, 64, 76
1, 292490, Note_off_c, 0, 69, 60
1, 292495, Control_c, 0, 64, 76
1, 292562, Control_c, 0, 64, 77
1, 292565, Note_on_c, 0, 70, 65
1, 292601, Note_off_c, 0, 53, 52
1, 292610, Note_off_c, 0, 70, 60
1, 292636, Note_on_c, 0, 74, 68
1, 292696, Note_off_c, 0, 74, 63
1, 292696, Control_c, 0, 64, 77
1, 292704, Note_on_c, 0, 72, 68
1, 292739, Note_off_c, 0, 65, 39
1, 292741, Control_c, 0, 64, 78
1, 292762, Note_on_c, 0, 70, 78
1, 292777, Note_off_c, 0, 72, 61
1, 292800, Control_c, 0, 64, 77
1, 292812, Note_off_c, 0, 70, 64
1, 292815, Control_c, 0, 64, 74
1, 292829, Control_c, 0, 64, 68
1, 292844, Control_c, 0, 64, 61
1, 292845, Note_on_c, 0, 52, 75
1, 292855, Note_on_c, 0, 41, 67
1, 292859, Control_c, 0, 64, 54
1, 292861, Note_on_c, 0, 64, 82
1, 292874, Control_c, 0, 64, 56
1, 292889, Control_c, 0, 64, 60
1, 292903, Control_c, 0, 64, 63
1, 292918, Control_c, 0, 64, 67
1, 292923, Note_off_c, 0, 41, 60
1, 292933, Control_c, 0, 64, 71
1, 292943, Note_on_c, 0, 70, 69
1, 292948, Control_c, 0, 64, 75
1, 292963, Control_c, 0, 64, 78
1, 292977, Control_c, 0, 64, 79
1, 292992, Control_c, 0, 64, 79
1, 293015, Note_on_c, 0, 67, 73
1, 293015, Note_off_c, 0, 70, 62
1, 293036, Control_c, 0, 64, 80
1, 293042, Note_off_c, 0, 64, 43
1, 293051, Control_c, 0, 64, 82
1, 293066, Control_c, 0, 64, 84
1, 293075, Note_on_c, 0, 76, 76
1, 293075, Note_off_c, 0, 67, 63
1, 293081, Control_c, 0, 64, 84
1, 293093, Note_off_c, 0, 52, 47
1, 293104, Note_off_c, 0, 76, 65
1, 293111, Control_c, 0, 64, 84
1, 293125, Control_c, 0, 64, 78
1, 293140, Control_c, 0, 64, 67
1, 293155, Note_on_c, 0, 51, 83
1, 293155, Control_c, 0, 64, 54
1, 293158, Note_on_c, 0, 41, 67
1, 293165, Note_on_c, 0, 63, 86
1, 293170, Control_c, 0, 64, 42
1, 293185, Control_c, 0, 64, 47
1, 293200, Control_c, 0, 64, 55
1, 293215, Control_c, 0, 64, 62
1, 293229, Control_c, 0, 64, 66
1, 293240, Note_off_c, 0, 41, 57
1, 293244, Control_c, 0, 64, 71
1, 293250, Note_on_c, 0, 69, 69
1, 293259, Control_c, 0, 64, 76
1, 293281, Control_c, 0, 64, 80
1, 293296, Control_c, 0, 64, 83
1, 293310, Control_c, 0, 64, 85
1, 293325, Control_c, 0, 64, 88
1, 293340, Control_c, 0, 64, 91
1, 293354, Note_on_c, 0, 65, 68
1, 293355, Control_c, 0, 64, 96
1, 293359, Note_off_c, 0, 63, 60
1, 293370, Control_c, 0, 64, 101
1, 293385, Control_c, 0, 64, 108
1, 293400, Control_c, 0, 64, 120
1, 293403, Note_off_c, 0, 69, 56
1, 293415, Control_c, 0, 64, 127
1, 293424, Note_on_c, 0, 75, 75
1, 293429, Note_off_c, 0, 65, 62
1, 293459, Control_c, 0, 64, 103
1, 293474, Control_c, 0, 64, 75
1, 293475, Note_off_c, 0, 75, 63
1, 293479, Note_off_c, 0, 51, 59
1, 293487, Note_on_c, 0, 50, 76
1, 293489, Control_c, 0, 64, 57
1, 293497, Note_on_c, 0, 41, 65
1, 293501, Note_on_c, 0, 62, 84
1, 293504, Control_c, 0, 64, 25
1, 293519, Control_c, 0, 64, 38
1, 293534, Control_c, 0, 64, 52
1, 293549, Control_c, 0, 64, 60
1, 293564, Control_c, 0, 64, 64
1, 293571, Note_off_c, 0, 41, 53
1, 293579, Control_c, 0, 64, 68
1, 293593, Control_c, 0, 64, 73
1, 293599, Note_on_c, 0, 69, 54
1, 293608, Control_c, 0, 64, 76
1, 293623, Control_c, 0, 64, 79
1, 293638, Control_c, 0, 64, 80
1, 293652, Control_c, 0, 64, 81
1, 293662, Note_on_c, 0, 65, 67
1, 293667, Control_c, 0, 64, 82
1, 293682, Control_c, 0, 64, 85
1, 293684, Note_off_c, 0, 69, 56
1, 293689, Note_off_c, 0, 62, 39
1, 293697, Control_c, 0, 64, 87
1, 293712, Control_c, 0, 64, 91
1, 293726, Control_c, 0, 64, 94
1, 293733, Note_on_c, 0, 74, 70
1, 293741, Control_c, 0, 64, 98
1, 293747, Note_off_c, 0, 65, 60
1, 293756, Control_c, 0, 64, 103
1, 293771, Control_c, 0, 64, 107
1, 293784, Note_off_c, 0, 74, 56
1, 293794, Note_off_c, 0, 50, 33
1, 293800, Control_c, 0, 64, 96
1, 293815, Control_c, 0, 64, 75
1, 293817, Note_on_c, 0, 48, 70
1, 293818, Note_on_c, 0, 41, 61
1, 293821, Note_on_c, 0, 60, 84
1, 293830, Control_c, 0, 64, 58
1, 293844, Control_c, 0, 64, 37
1, 293859, Control_c, 0, 64, 45
1, 293874, Control_c, 0, 64, 55
1, 293889, Control_c, 0, 64, 62
1, 293904, Control_c, 0, 64, 67
1, 293914, Note_off_c, 0, 41, 56
1, 293918, Control_c, 0, 64, 72
1, 293933, Control_c, 0, 64, 79
1, 293943, Note_on_c, 0, 69, 53
1, 293948, Control_c, 0, 64, 83
1, 293963, Control_c, 0, 64, 86
1, 293978, Control_c, 0, 64, 87
1, 293993, Control_c, 0, 64, 88
1, 294006, Note_off_c, 0, 60, 36
1, 294008, Control_c, 0, 64, 89
1, 294023, Note_off_c, 0, 69, 60
1, 294026, Note_on_c, 0, 72, 56
1, 294030, Control_c, 0, 64, 90
1, 294045, Control_c, 0, 64, 91
1, 294059, Control_c, 0, 64, 92
1, 294061, Note_off_c, 0, 72, 60
1, 294074, Control_c, 0, 64, 93
1, 294076, Note_on_c, 0, 65, 59
1, 294089, Control_c, 0, 64, 95
1, 294104, Control_c, 0, 64, 97
1, 294119, Control_c, 0, 64, 100
1, 294133, Control_c, 0, 64, 103
1, 294148, Control_c, 0, 64, 108
1, 294160, Note_off_c, 0, 65, 52
1, 294163, Control_c, 0, 64, 127
1, 294208, Control_c, 0, 64, 113
1, 294210, Note_on_c, 0, 72, 54
1, 294216, Note_on_c, 0, 42, 61
1, 294216, Note_on_c, 0, 49, 58
1, 294220, Note_off_c, 0, 48, 31
1, 294223, Control_c, 0, 64, 79
1, 294238, Control_c, 0, 64, 61
1, 294253, Control_c, 0, 64, 49
1, 294268, Control_c, 0, 64, 56
1, 294272, Note_off_c, 0, 72, 60
1, 294282, Control_c, 0, 64, 61
1, 294288, Note_on_c, 0, 61, 46
1, 294297, Control_c, 0, 64, 66
1, 294312, Control_c, 0, 64, 72
1, 294327, Control_c, 0, 64, 83
1, 294342, Control_c, 0, 64, 96
1, 294357, Control_c, 0, 64, 101
1, 294371, Control_c, 0, 64, 102
1, 294386, Control_c, 0, 64, 102
1, 294388, Note_off_c, 0, 61, 58
1, 294401, Control_c, 0, 64, 103
1, 294402, Note_on_c, 0, 69, 52
1, 294416, Control_c, 0, 64, 104
1, 294431, Control_c, 0, 64, 105
1, 294445, Note_off_c, 0, 42, 34
1, 294446, Control_c, 0, 64, 107
1, 294449, Note_off_c, 0, 69, 59
1, 294461, Control_c, 0, 64, 108
1, 294462, Note_on_c, 0, 66, 55
1, 294486, Note_off_c, 0, 49, 58
1, 294490, Control_c, 0, 64, 108
1, 294500, Note_off_c, 0, 66, 63
1, 294520, Control_c, 0, 64, 109
1, 294535, Control_c, 0, 64, 110
1, 294540, Note_on_c, 0, 50, 36
1, 294549, Control_c, 0, 64, 115
1, 294564, Control_c, 0, 64, 127
1, 294570, Note_off_c, 0, 50, 56
1, 294594, Note_on_c, 0, 75, 64
1, 294652, Note_off_c, 0, 75, 58
1, 294675, Note_on_c, 0, 74, 69
1, 294716, Note_off_c, 0, 74, 61
1, 294773, Note_on_c, 0, 72, 66
1, 294803, Note_on_c, 0, 43, 16
1, 294813, Note_off_c, 0, 72, 62
1, 294828, Note_on_c, 0, 70, 61
1, 294847, Note_off_c, 0, 43, 52
1, 294848, Note_off_c, 0, 70, 65
1, 294868, Control_c, 0, 64, 86
1, 294882, Control_c, 0, 64, 64
1, 294897, Control_c, 0, 64, 32
1, 294902, Note_on_c, 0, 74, 71
1, 294912, Control_c, 0, 64, 34
1, 294927, Control_c, 0, 64, 45
1, 294942, Control_c, 0, 64, 55
1, 294953, Note_off_c, 0, 74, 56
1, 294956, Control_c, 0, 64, 62
1, 294971, Control_c, 0, 64, 67
1, 294986, Control_c, 0, 64, 75
1, 294992, Note_on_c, 0, 86, 69
1, 295000, Control_c, 0, 64, 83
1, 295015, Control_c, 0, 64, 88
1, 295032, Control_c, 0, 64, 90
1, 295047, Control_c, 0, 64, 91
1, 295060, Note_off_c, 0, 86, 63
1, 295061, Note_on_c, 0, 82, 69
1, 295061, Control_c, 0, 64, 91
1, 295076, Control_c, 0, 64, 94
1, 295091, Control_c, 0, 64, 97
1, 295105, Control_c, 0, 64, 101
1, 295120, Control_c, 0, 64, 105
1, 295123, Note_on_c, 0, 62, 58
1, 295126, Note_off_c, 0, 82, 62
1, 295132, Note_on_c, 0, 50, 52
1, 295132, Note_on_c, 0, 79, 67
1, 295135, Control_c, 0, 64, 108
1, 295150, Note_off_c, 0, 62, 63
1, 295150, Control_c, 0, 64, 108
1, 295157, Note_off_c, 0, 50, 60
1, 295159, Note_off_c, 0, 79, 69
1, 295179, Control_c, 0, 64, 108
1, 295196, Note_on_c, 0, 74, 54
1, 295224, Note_off_c, 0, 74, 63
1, 295269, Control_c, 0, 64, 107
1, 295278, Note_on_c, 0, 70, 63
1, 295284, Control_c, 0, 64, 106
1, 295298, Control_c, 0, 64, 106
1, 295313, Control_c, 0, 64, 105
1, 295344, Note_off_c, 0, 70, 63
1, 295355, Note_on_c, 0, 67, 67
1, 295395, Note_off_c, 0, 67, 56
1, 295402, Control_c, 0, 64, 101
1, 295416, Control_c, 0, 64, 85
1, 295424, Note_on_c, 0, 49, 66
1, 295430, Note_on_c, 0, 45, 61
1, 295431, Control_c, 0, 64, 67
1, 295444, Note_on_c, 0, 61, 79
1, 295446, Control_c, 0, 64, 47
1, 295461, Control_c, 0, 64, 34
1, 295476, Control_c, 0, 64, 41
1, 295490, Control_c, 0, 64, 52
1, 295505, Control_c, 0, 64, 61
1, 295528, Control_c, 0, 64, 66
1, 295536, Note_on_c, 0, 69, 57
1, 295540, Note_off_c, 0, 45, 60
1, 295543, Control_c, 0, 64, 71
1, 295558, Control_c, 0, 64, 77
1, 295572, Control_c, 0, 64, 81
1, 295587, Control_c, 0, 64, 84
1, 295602, Control_c, 0, 64, 85
1, 295614, Note_on_c, 0, 65, 57
1, 295617, Control_c, 0, 64, 87
1, 295631, Control_c, 0, 64, 89
1, 295634, Note_off_c, 0, 61, 55
1, 295636, Note_off_c, 0, 69, 52
1, 295646, Control_c, 0, 64, 91
1, 295661, Control_c, 0, 64, 95
1, 295669, Note_on_c, 0, 73, 65
1, 295676, Control_c, 0, 64, 98
1, 295691, Control_c, 0, 64, 100
1, 295692, Note_off_c, 0, 65, 58
1, 295705, Control_c, 0, 64, 102
1, 295709, Note_off_c, 0, 49, 35
1, 295720, Control_c, 0, 64, 103
1, 295735, Control_c, 0, 64, 102
1, 295739, Note_off_c, 0, 73, 63
1, 295750, Control_c, 0, 64, 96
1, 295761, Note_on_c, 0, 50, 63
1, 295764, Note_on_c, 0, 45, 52
1, 295764, Note_on_c, 0, 62, 80
1, 295765, Control_c, 0, 64, 80
1, 295779, Control_c, 0, 64, 64
1, 295794, Control_c, 0, 64, 48
1, 295809, Control_c, 0, 64, 50
1, 295825, Control_c, 0, 64, 58
1, 295840, Control_c, 0, 64, 62
1, 295854, Control_c, 0, 64, 66
1, 295863, Note_on_c, 0, 69, 56
1, 295869, Control_c, 0, 64, 72
1, 295880, Note_off_c, 0, 45, 60
1, 295884, Control_c, 0, 64, 81
1, 295899, Control_c, 0, 64, 88
1, 295914, Control_c, 0, 64, 91
1, 295943, Control_c, 0, 64, 92
1, 295947, Note_on_c, 0, 65, 62
1, 295958, Note_off_c, 0, 62, 50
1, 295973, Control_c, 0, 64, 92
1, 295988, Control_c, 0, 64, 93
1, 295996, Note_off_c, 0, 69, 35
1, 296002, Control_c, 0, 64, 94
1, 296017, Control_c, 0, 64, 95
1, 296024, Note_on_c, 0, 74, 64
1, 296024, Note_off_c, 0, 65, 63
1, 296032, Control_c, 0, 64, 96
1, 296047, Control_c, 0, 64, 98
1, 296062, Control_c, 0, 64, 100
1, 296077, Note_off_c, 0, 74, 54
1, 296091, Control_c, 0, 64, 97
1, 296092, Note_off_c, 0, 50, 63
1, 296098, Note_on_c, 0, 52, 68
1, 296104, Note_on_c, 0, 45, 62
1, 296106, Note_on_c, 0, 64, 87
1, 296106, Control_c, 0, 64, 81
1, 296121, Control_c, 0, 64, 65
1, 296136, Control_c, 0, 64, 50
1, 296151, Control_c, 0, 64, 50
1, 296166, Control_c, 0, 64, 56
1, 296181, Control_c, 0, 64, 61
1, 296195, Control_c, 0, 64, 66
1, 296199, Note_off_c, 0, 45, 59
1, 296210, Control_c, 0, 64, 72
1, 296223, Note_on_c, 0, 69, 58
1, 296225, Control_c, 0, 64, 81
1, 296240, Control_c, 0, 64, 87
1, 296254, Control_c, 0, 64, 89
1, 296276, Control_c, 0, 64, 89
1, 296291, Control_c, 0, 64, 90
1, 296306, Control_c, 0, 64, 91
1, 296315, Note_off_c, 0, 69, 63
1, 296321, Control_c, 0, 64, 92
1, 296329, Note_on_c, 0, 67, 60
1, 296336, Control_c, 0, 64, 94
1, 296351, Control_c, 0, 64, 98
1, 296366, Note_off_c, 0, 64, 55
1, 296366, Control_c, 0, 64, 102
1, 296381, Control_c, 0, 64, 106
1, 296395, Control_c, 0, 64, 112
1, 296404, Note_on_c, 0, 76, 62
1, 296410, Control_c, 0, 64, 125
1, 296410, Note_off_c, 0, 67, 62
1, 296425, Control_c, 0, 64, 127
1, 296427, Note_off_c, 0, 76, 59
1, 296499, Control_c, 0, 64, 125
1, 296501, Note_on_c, 0, 49, 58
1, 296505, Note_on_c, 0, 45, 54
1, 296514, Control_c, 0, 64, 81
1, 296515, Note_on_c, 0, 61, 82
1, 296528, Control_c, 0, 64, 63
1, 296534, Note_off_c, 0, 52, 48
1, 296543, Control_c, 0, 64, 43
1, 296558, Control_c, 0, 64, 43
1, 296573, Control_c, 0, 64, 52
1, 296588, Control_c, 0, 64, 59
1, 296602, Control_c, 0, 64, 65
1, 296618, Control_c, 0, 64, 70
1, 296633, Control_c, 0, 64, 77
1, 296642, Note_on_c, 0, 69, 61
1, 296643, Note_off_c, 0, 45, 53
1, 296648, Control_c, 0, 64, 84
1, 296663, Control_c, 0, 64, 91
1, 296677, Control_c, 0, 64, 95
1, 296686, Note_off_c, 0, 49, 61
1, 296692, Control_c, 0, 64, 98
1, 296707, Control_c, 0, 64, 101
1, 296722, Control_c, 0, 64, 103
1, 296737, Control_c, 0, 64, 106
1, 296751, Control_c, 0, 64, 110
1, 296766, Control_c, 0, 64, 110
1, 296796, Control_c, 0, 64, 112
1, 296799, Note_on_c, 0, 67, 52
1, 296825, Control_c, 0, 64, 112
1, 296840, Control_c, 0, 64, 114
1, 296846, Note_off_c, 0, 69, 33
1, 296855, Control_c, 0, 64, 116
1, 296869, Control_c, 0, 64, 122
1, 296884, Control_c, 0, 64, 127
1, 296914, Note_off_c, 0, 61, 51
1, 296927, Note_off_c, 0, 67, 57
1, 296951, Note_on_c, 0, 73, 65
1, 297048, Note_off_c, 0, 73, 58
1, 297209, Note_on_c, 0, 74, 76
1, 297216, Note_on_c, 0, 69, 58
1, 297217, Note_on_c, 0, 38, 48
1, 297217, Note_on_c, 0, 50, 54
1, 297218, Note_on_c, 0, 65, 57
1, 297218, Control_c, 0, 64, 112
1, 297220, Note_on_c, 0, 62, 59
1, 297233, Control_c, 0, 64, 101
1, 297248, Control_c, 0, 64, 88
1, 297263, Control_c, 0, 64, 75
1, 297277, Control_c, 0, 64, 66
1, 297292, Control_c, 0, 64, 59
1, 297307, Control_c, 0, 64, 55
1, 297322, Control_c, 0, 64, 52
1, 297337, Control_c, 0, 64, 48
1, 297351, Control_c, 0, 64, 45
1, 297366, Control_c, 0, 64, 43
1, 297381, Control_c, 0, 64, 42
1, 297441, Control_c, 0, 64, 43
1, 297456, Control_c, 0, 64, 43
1, 297471, Control_c, 0, 64, 44
1, 297486, Control_c, 0, 64, 44
1, 297500, Control_c, 0, 64, 46
1, 297515, Control_c, 0, 64, 47
1, 297530, Control_c, 0, 64, 48
1, 297545, Control_c, 0, 64, 49
1, 297560, Control_c, 0, 64, 50
1, 297574, Control_c, 0, 64, 51
1, 297589, Control_c, 0, 64, 52
1, 297604, Control_c, 0, 64, 54
1, 297619, Control_c, 0, 64, 55
1, 297634, Control_c, 0, 64, 57
1, 297648, Control_c, 0, 64, 58
1, 297663, Control_c, 0, 64, 59
1, 297678, Control_c, 0, 64, 60
1, 297692, Control_c, 0, 64, 61
1, 297707, Control_c, 0, 64, 62
1, 297722, Control_c, 0, 64, 62
1, 297737, Control_c, 0, 64, 63
1, 297752, Control_c, 0, 64, 64
1, 297774, Control_c, 0, 64, 65
1, 297789, Control_c, 0, 64, 66
1, 297804, Control_c, 0, 64, 67
1, 297819, Control_c, 0, 64, 68
1, 297833, Control_c, 0, 64, 70
1, 297848, Control_c, 0, 64, 71
1, 297863, Control_c, 0, 64, 73
1, 297878, Control_c, 0, 64, 75
1, 297893, Control_c, 0, 64, 77
1, 297907, Control_c, 0, 64, 80
1, 297922, Control_c, 0, 64, 82
1, 297937, Control_c, 0, 64, 85
1, 297952, Control_c, 0, 64, 87
1, 297967, Control_c, 0, 64, 91
1, 297981, Control_c, 0, 64, 95
1, 297996, Control_c, 0, 64, 99
1, 298011, Control_c, 0, 64, 104
1, 298026, Control_c, 0, 64, 109
1, 298038, Note_off_c, 0, 74, 38
1, 298041, Control_c, 0, 64, 115
1, 298056, Control_c, 0, 64, 127
1, 298132, Note_off_c, 0, 69, 25
1, 298209, Note_off_c, 0, 65, 33
1, 298252, Note_off_c, 0, 62, 33
1, 298431, Note_off_c, 0, 38, 34
1, 298493, Note_off_c, 0, 50, 28
1, 298879, Control_c, 0, 64, 125
1, 298894, Control_c, 0, 64, 122
1, 298908, Control_c, 0, 64, 120
1, 298938, Control_c, 0, 64, 117
1, 298953, Control_c, 0, 64, 115
1, 298968, Control_c, 0, 64, 112
1, 298983, Control_c, 0, 64, 110
1, 298997, Control_c, 0, 64, 108
1, 299013, Control_c, 0, 64, 107
1, 299028, Control_c, 0, 64, 106
1, 299043, Control_c, 0, 64, 104
1, 299057, Control_c, 0, 64, 103
1, 299072, Control_c, 0, 64, 101
1, 299087, Control_c, 0, 64, 100
1, 299102, Control_c, 0, 64, 98
1, 299117, Control_c, 0, 64, 97
1, 299132, Control_c, 0, 64, 96
1, 299146, Control_c, 0, 64, 94
1, 299161, Control_c, 0, 64, 93
1, 299176, Control_c, 0, 64, 92
1, 299191, Control_c, 0, 64, 91
1, 299206, Control_c, 0, 64, 89
1, 299220, Control_c, 0, 64, 88
1, 299235, Control_c, 0, 64, 87
1, 299250, Control_c, 0, 64, 86
1, 299272, Control_c, 0, 64, 85
1, 299287, Control_c, 0, 64, 85
1, 299317, Control_c, 0, 64, 84
1, 299332, Control_c, 0, 64, 84
1, 299346, Control_c, 0, 64, 83
1, 299361, Control_c, 0, 64, 83
1, 299376, Control_c, 0, 64, 82
1, 299391, Control_c, 0, 64, 82
1, 299406, Control_c, 0, 64, 81
1, 299420, Control_c, 0, 64, 81
1, 299435, Control_c, 0, 64, 80
1, 299450, Control_c, 0, 64, 80
1, 299464, Control_c, 0, 64, 79
1, 299479, Control_c, 0, 64, 79
1, 299494, Control_c, 0, 64, 78
1, 299509, Control_c, 0, 64, 78
1, 299538, Control_c, 0, 64, 77
1, 299553, Control_c, 0, 64, 76
1, 299568, Control_c, 0, 64, 76
1, 299583, Control_c, 0, 64, 75
1, 299613, Control_c, 0, 64, 75
1, 299627, Control_c, 0, 64, 74
1, 299642, Control_c, 0, 64, 73
1, 299657, Control_c, 0, 64, 73
1, 299672, Control_c, 0, 64, 72
1, 299686, Control_c, 0, 64, 72
1, 299716, Control_c, 0, 64, 71
1, 299746, Control_c, 0, 64, 70
1, 299761, Control_c, 0, 64, 70
1, 299790, Control_c, 0, 64, 69
1, 299821, Control_c, 0, 64, 69
1, 299835, Control_c, 0, 64, 68
1, 299850, Control_c, 0, 64, 68
1, 299880, Control_c, 0, 64, 67
1, 299910, Control_c, 0, 64, 67
1, 299925, Control_c, 0, 64, 66
1, 299955, Control_c, 0, 64, 65
1, 299984, Control_c, 0, 64, 65
1, 300021, Control_c, 0, 64, 64
1, 300036, Control_c, 0, 64, 64
1, 300080, Control_c, 0, 64, 63
1, 300110, Control_c, 0, 64, 63
1, 300140, Control_c, 0, 64, 62
1, 300184, Control_c, 0, 64, 62
1, 300214, Control_c, 0, 64, 61
1, 300287, Control_c, 0, 64, 61
1, 300376, Control_c, 0, 64, 60
1, 300436, Control_c, 0, 64, 60
1, 300494, Control_c, 0, 64, 59
1, 300569, Control_c, 0, 64, 59
1, 300799, Control_c, 0, 64, 59
1, 300838, Note_on_c, 0, 66, 47
1, 300846, Note_on_c, 0, 57, 39
1, 300852, Note_on_c, 0, 62, 41
1, 300862, Note_on_c, 0, 50, 33
1, 300873, Control_c, 0, 64, 60
1, 300876, Note_on_c, 0, 38, 22
1, 300903, Control_c, 0, 64, 60
1, 300918, Control_c, 0, 64, 61
1, 300932, Control_c, 0, 64, 61
1, 300947, Control_c, 0, 64, 62
1, 300962, Control_c, 0, 64, 62
1, 300977, Control_c, 0, 64, 63
1, 300992, Control_c, 0, 64, 63
1, 301007, Control_c, 0, 64, 64
1, 301022, Control_c, 0, 64, 64
1, 301037, Control_c, 0, 64, 65
1, 301052, Control_c, 0, 64, 66
1, 301066, Control_c, 0, 64, 67
1, 301081, Control_c, 0, 64, 68
1, 301096, Control_c, 0, 64, 70
1, 301110, Control_c, 0, 64, 71
1, 301125, Control_c, 0, 64, 72
1, 301140, Control_c, 0, 64, 74
1, 301155, Control_c, 0, 64, 75
1, 301170, Control_c, 0, 64, 77
1, 301184, Control_c, 0, 64, 79
1, 301199, Control_c, 0, 64, 82
1, 301214, Control_c, 0, 64, 84
1, 301229, Control_c, 0, 64, 88
1, 301243, Control_c, 0, 64, 91
1, 301258, Control_c, 0, 64, 94
1, 301273, Control_c, 0, 64, 98
1, 301288, Control_c, 0, 64, 103
1, 301303, Control_c, 0, 64, 112
1, 301317, Control_c, 0, 64, 127
1, 302020, Note_off_c, 0, 50, 25
1, 302281, Note_off_c, 0, 38, 27
1, 302918, Note_on_c, 0, 40, 45
1, 302920, Note_on_c, 0, 52, 42
1, 303105, Control_c, 0, 64, 116
1, 303119, Control_c, 0, 64, 91
1, 303134, Control_c, 0, 64, 77
1, 303149, Control_c, 0, 64, 68
1, 303164, Control_c, 0, 64, 63
1, 303179, Control_c, 0, 64, 61
1, 303193, Control_c, 0, 64, 60
1, 303223, Control_c, 0, 64, 60
1, 303238, Control_c, 0, 64, 61
1, 303253, Control_c, 0, 64, 63
1, 303267, Control_c, 0, 64, 64
1, 303282, Control_c, 0, 64, 66
1, 303297, Control_c, 0, 64, 69
1, 303311, Control_c, 0, 64, 73
1, 303326, Control_c, 0, 64, 78
1, 303341, Control_c, 0, 64, 85
1, 303356, Control_c, 0, 64, 93
1, 303360, Note_off_c, 0, 57, 63
1, 303371, Control_c, 0, 64, 109
1, 303386, Control_c, 0, 64, 127
1, 303474, Note_off_c, 0, 62, 57
1, 303486, Note_off_c, 0, 66, 36
1, 303516, Note_off_c, 0, 52, 46
1, 303603, Note_off_c, 0, 40, 42
1, 303722, Note_on_c, 0, 64, 53
1, 303732, Note_on_c, 0, 56, 41
1, 303928, Note_off_c, 0, 56, 45
1, 303946, Note_off_c, 0, 64, 57
1, 304822, Note_on_c, 0, 71, 64
1, 304828, Note_on_c, 0, 62, 51
1, 304829, Note_on_c, 0, 67, 56
1, 304831, Note_on_c, 0, 64, 55
1, 304833, Note_on_c, 0, 43, 42
1, 304834, Note_on_c, 0, 31, 40
1, 305046, Control_c, 0, 64, 106
1, 305061, Control_c, 0, 64, 97
1, 305076, Control_c, 0, 64, 90
1, 305091, Control_c, 0, 64, 84
1, 305106, Control_c, 0, 64, 77
1, 305121, Control_c, 0, 64, 72
1, 305136, Control_c, 0, 64, 67
1, 305150, Control_c, 0, 64, 64
1, 305165, Control_c, 0, 64, 62
1, 305180, Control_c, 0, 64, 60
1, 305195, Control_c, 0, 64, 60
1, 305210, Control_c, 0, 64, 59
1, 305291, Control_c, 0, 64, 60
1, 305305, Control_c, 0, 64, 60
1, 305320, Control_c, 0, 64, 61
1, 305335, Control_c, 0, 64, 62
1, 305350, Control_c, 0, 64, 62
1, 305365, Control_c, 0, 64, 63
1, 305380, Control_c, 0, 64, 64
1, 305395, Control_c, 0, 64, 65
1, 305410, Control_c, 0, 64, 67
1, 305425, Control_c, 0, 64, 69
1, 305440, Control_c, 0, 64, 71
1, 305454, Control_c, 0, 64, 73
1, 305469, Control_c, 0, 64, 75
1, 305484, Control_c, 0, 64, 78
1, 305499, Control_c, 0, 64, 81
1, 305514, Control_c, 0, 64, 85
1, 305529, Control_c, 0, 64, 88
1, 305544, Control_c, 0, 64, 92
1, 305559, Control_c, 0, 64, 97
1, 305574, Control_c, 0, 64, 103
1, 305588, Control_c, 0, 64, 111
1, 305603, Control_c, 0, 64, 127
1, 306044, Note_off_c, 0, 43, 37
1, 306080, Note_off_c, 0, 31, 36
1, 307093, Note_on_c, 0, 45, 37
1, 307113, Note_on_c, 0, 33, 32
1, 307204, Control_c, 0, 64, 103
1, 307219, Control_c, 0, 64, 85
1, 307234, Control_c, 0, 64, 73
1, 307249, Control_c, 0, 64, 65
1, 307264, Control_c, 0, 64, 60
1, 307279, Control_c, 0, 64, 58
1, 307294, Control_c, 0, 64, 59
1, 307308, Control_c, 0, 64, 60
1, 307323, Control_c, 0, 64, 62
1, 307338, Control_c, 0, 64, 64
1, 307352, Control_c, 0, 64, 66
1, 307367, Control_c, 0, 64, 68
1, 307382, Control_c, 0, 64, 70
1, 307397, Control_c, 0, 64, 73
1, 307412, Control_c, 0, 64, 76
1, 307426, Control_c, 0, 64, 80
1, 307441, Control_c, 0, 64, 84
1, 307456, Control_c, 0, 64, 89
1, 307471, Control_c, 0, 64, 98
1, 307485, Control_c, 0, 64, 110
1, 307508, Control_c, 0, 64, 127
1, 307577, Note_off_c, 0, 67, 34
1, 307599, Note_off_c, 0, 62, 37
1, 307663, Note_off_c, 0, 64, 42
1, 307722, Note_off_c, 0, 71, 55
1, 308059, Note_on_c, 0, 69, 50
1, 308063, Note_on_c, 0, 61, 38
1, 308351, Note_off_c, 0, 69, 36
1, 308447, Note_off_c, 0, 61, 40
1, 308708, Note_on_c, 0, 71, 66
1, 308710, Note_on_c, 0, 69, 53
1, 308719, Note_on_c, 0, 66, 50
1, 308902, Note_off_c, 0, 66, 40
1, 308935, Note_off_c, 0, 33, 35
1, 308942, Note_off_c, 0, 71, 57
1, 308961, Note_off_c, 0, 45, 38
1, 309038, Note_off_c, 0, 69, 59
1, 309379, Note_on_c, 0, 73, 74
1, 309388, Note_on_c, 0, 67, 57
1, 309394, Note_on_c, 0, 64, 53
1, 309402, Note_on_c, 0, 33, 43
1, 309404, Note_on_c, 0, 45, 40
1, 309494, Control_c, 0, 64, 105
1, 309509, Control_c, 0, 64, 94
1, 309524, Control_c, 0, 64, 84
1, 309539, Control_c, 0, 64, 75
1, 309553, Control_c, 0, 64, 67
1, 309568, Control_c, 0, 64, 61
1, 309583, Control_c, 0, 64, 58
1, 309598, Control_c, 0, 64, 58
1, 309613, Control_c, 0, 64, 60
1, 309628, Control_c, 0, 64, 64
1, 309643, Control_c, 0, 64, 68
1, 309658, Control_c, 0, 64, 75
1, 309672, Control_c, 0, 64, 86
1, 309687, Control_c, 0, 64, 107
1, 309702, Control_c, 0, 64, 127
1, 309738, Note_off_c, 0, 67, 47
1, 309762, Note_off_c, 0, 33, 37
1, 309769, Note_off_c, 0, 64, 60
1, 309778, Note_off_c, 0, 45, 39
1, 309789, Note_off_c, 0, 73, 59
1, 310164, Note_on_c, 0, 74, 73
1, 310171, Note_on_c, 0, 66, 52
1, 310176, Note_on_c, 0, 62, 54
1, 310185, Note_on_c, 0, 35, 39
1, 310186, Note_on_c, 0, 47, 42
1, 310244, Control_c, 0, 64, 106
1, 310259, Control_c, 0, 64, 85
1, 310274, Control_c, 0, 64, 72
1, 310289, Control_c, 0, 64, 63
1, 310304, Control_c, 0, 64, 56
1, 310318, Control_c, 0, 64, 51
1, 310333, Control_c, 0, 64, 49
1, 310348, Control_c, 0, 64, 48
1, 310377, Control_c, 0, 64, 52
1, 310392, Control_c, 0, 64, 56
1, 310407, Control_c, 0, 64, 60
1, 310422, Control_c, 0, 64, 63
1, 310437, Control_c, 0, 64, 65
1, 310451, Control_c, 0, 64, 68
1, 310455, Note_off_c, 0, 74, 60
1, 310466, Control_c, 0, 64, 71
1, 310481, Control_c, 0, 64, 75
1, 310504, Control_c, 0, 64, 78
1, 310519, Control_c, 0, 64, 81
1, 310520, Note_off_c, 0, 62, 59
1, 310523, Note_off_c, 0, 47, 35
1, 310523, Note_off_c, 0, 66, 61
1, 310533, Note_off_c, 0, 35, 37
1, 310533, Control_c, 0, 64, 84
1, 310548, Control_c, 0, 64, 88
1, 310563, Control_c, 0, 64, 92
1, 310577, Control_c, 0, 64, 96
1, 310592, Control_c, 0, 64, 101
1, 310607, Control_c, 0, 64, 105
1, 310622, Control_c, 0, 64, 108
1, 310637, Control_c, 0, 64, 109
1, 310651, Control_c, 0, 64, 110
1, 310666, Control_c, 0, 64, 113
1, 310681, Control_c, 0, 64, 115
1, 310696, Control_c, 0, 64, 119
1, 310711, Control_c, 0, 64, 122
1, 310725, Control_c, 0, 64, 127
1, 310943, Note_on_c, 0, 69, 56
1, 310948, Control_c, 0, 64, 115
1, 310952, Note_on_c, 0, 62, 38
1, 310958, Note_on_c, 0, 61, 41
1, 310963, Control_c, 0, 64, 106
1, 310973, Note_on_c, 0, 42, 40
1, 310977, Control_c, 0, 64, 95
1, 310980, Note_on_c, 0, 30, 37
1, 310992, Control_c, 0, 64, 83
1, 311008, Control_c, 0, 64, 69
1, 311023, Control_c, 0, 64, 61
1, 311038, Control_c, 0, 64, 55
1, 311053, Control_c, 0, 64, 54
1, 311067, Control_c, 0, 64, 53
1, 311082, Control_c, 0, 64, 54
1, 311097, Control_c, 0, 64, 56
1, 311112, Control_c, 0, 64, 59
1, 311127, Control_c, 0, 64, 62
1, 311142, Control_c, 0, 64, 65
1, 311156, Control_c, 0, 64, 67
1, 311171, Control_c, 0, 64, 71
1, 311186, Control_c, 0, 64, 76
1, 311200, Control_c, 0, 64, 80
1, 311215, Control_c, 0, 64, 84
1, 311230, Control_c, 0, 64, 88
1, 311252, Control_c, 0, 64, 92
1, 311267, Control_c, 0, 64, 97
1, 311282, Control_c, 0, 64, 102
1, 311297, Control_c, 0, 64, 106
1, 311306, Note_off_c, 0, 69, 32
1, 311312, Control_c, 0, 64, 108
1, 311323, Note_off_c, 0, 61, 36
1, 311326, Note_off_c, 0, 62, 37
1, 311326, Control_c, 0, 64, 109
1, 311341, Control_c, 0, 64, 112
1, 311356, Control_c, 0, 64, 116
1, 311371, Control_c, 0, 64, 119
1, 311396, Note_off_c, 0, 30, 40
1, 311400, Control_c, 0, 64, 120
1, 311431, Note_off_c, 0, 42, 38
1, 311955, Note_on_c, 0, 69, 59
1, 311964, Control_c, 0, 64, 117
1, 311965, Note_on_c, 0, 31, 35
1, 311966, Note_on_c, 0, 62, 42
1, 311968, Note_on_c, 0, 61, 39
1, 311979, Control_c, 0, 64, 116
1, 311986, Note_on_c, 0, 43, 32
1, 312001, Control_c, 0, 64, 115
1, 312016, Control_c, 0, 64, 113
1, 312030, Control_c, 0, 64, 111
1, 312045, Control_c, 0, 64, 108
1, 312060, Control_c, 0, 64, 103
1, 312075, Control_c, 0, 64, 97
1, 312090, Control_c, 0, 64, 89
1, 312105, Control_c, 0, 64, 80
1, 312120, Control_c, 0, 64, 71
1, 312135, Control_c, 0, 64, 64
1, 312149, Control_c, 0, 64, 60
1, 312164, Control_c, 0, 64, 56
1, 312179, Control_c, 0, 64, 54
1, 312194, Control_c, 0, 64, 52
1, 312209, Control_c, 0, 64, 50
1, 312223, Control_c, 0, 64, 50
1, 312268, Control_c, 0, 64, 51
1, 312283, Control_c, 0, 64, 52
1, 312297, Control_c, 0, 64, 55
1, 312312, Control_c, 0, 64, 59
1, 312327, Control_c, 0, 64, 61
1, 312341, Control_c, 0, 64, 63
1, 312355, Control_c, 0, 64, 65
1, 312370, Control_c, 0, 64, 67
1, 312385, Control_c, 0, 64, 70
1, 312400, Control_c, 0, 64, 74
1, 312414, Control_c, 0, 64, 78
1, 312429, Control_c, 0, 64, 83
1, 312444, Control_c, 0, 64, 87
1, 312459, Control_c, 0, 64, 93
1, 312474, Control_c, 0, 64, 101
1, 312488, Control_c, 0, 64, 115
1, 312503, Control_c, 0, 64, 127
1, 312577, Note_off_c, 0, 61, 39
1, 312609, Note_off_c, 0, 69, 42
1, 312821, Note_off_c, 0, 31, 33
1, 312946, Note_on_c, 0, 59, 41
1, 313224, Note_off_c, 0, 43, 28
1, 313312, Note_off_c, 0, 59, 34
1, 313313, Note_on_c, 0, 67, 44
1, 313369, Note_off_c, 0, 62, 16
1, 313554, Note_off_c, 0, 67, 33
1, 313831, Note_on_c, 0, 38, 34
1, 313840, Note_on_c, 0, 57, 32
1, 313840, Note_on_c, 0, 62, 33
1, 313840, Note_on_c, 0, 66, 42
1, 313957, Control_c, 0, 64, 117
1, 313972, Control_c, 0, 64, 104
1, 313987, Control_c, 0, 64, 91
1, 314001, Control_c, 0, 64, 80
1, 314016, Control_c, 0, 64, 71
1, 314031, Control_c, 0, 64, 64
1, 314046, Control_c, 0, 64, 59
1, 314061, Control_c, 0, 64, 56
1, 314075, Control_c, 0, 64, 55
1, 314090, Control_c, 0, 64, 54
1, 314105, Control_c, 0, 64, 52
1, 314120, Control_c, 0, 64, 51
1, 314135, Control_c, 0, 64, 51
1, 314150, Control_c, 0, 64, 50
1, 314195, Control_c, 0, 64, 51
1, 314209, Control_c, 0, 64, 53
1, 314224, Control_c, 0, 64, 54
1, 314247, Control_c, 0, 64, 55
1, 314262, Control_c, 0, 64, 57
1, 314277, Control_c, 0, 64, 58
1, 314291, Control_c, 0, 64, 59
1, 314306, Control_c, 0, 64, 60
1, 314321, Control_c, 0, 64, 62
1, 314336, Control_c, 0, 64, 63
1, 314351, Control_c, 0, 64, 64
1, 314366, Control_c, 0, 64, 66
1, 314380, Control_c, 0, 64, 68
1, 314395, Control_c, 0, 64, 72
1, 314410, Control_c, 0, 64, 76
1, 314424, Control_c, 0, 64, 81
1, 314439, Control_c, 0, 64, 85
1, 314454, Control_c, 0, 64, 93
1, 314469, Control_c, 0, 64, 102
1, 314484, Control_c, 0, 64, 127
1, 314593, Note_off_c, 0, 38, 37
1, 314635, Note_off_c, 0, 57, 41
1, 314672, Note_off_c, 0, 66, 36
1, 314693, Note_off_c, 0, 62, 39
1, 315728, Note_on_c, 0, 66, 68
1, 315742, Note_on_c, 0, 62, 59
1, 315744, Note_on_c, 0, 57, 58
1, 315751, Note_on_c, 0, 50, 47
1, 315760, Note_on_c, 0, 38, 39
1, 315952, Control_c, 0, 64, 104
1, 315967, Control_c, 0, 64, 94
1, 315982, Control_c, 0, 64, 88
1, 315996, Control_c, 0, 64, 82
1, 316011, Control_c, 0, 64, 77
1, 316026, Control_c, 0, 64, 71
1, 316041, Control_c, 0, 64, 64
1, 316056, Control_c, 0, 64, 60
1, 316070, Control_c, 0, 64, 56
1, 316085, Control_c, 0, 64, 55
1, 316099, Control_c, 0, 64, 54
1, 316144, Control_c, 0, 64, 56
1, 316159, Control_c, 0, 64, 57
1, 316174, Control_c, 0, 64, 59
1, 316188, Control_c, 0, 64, 61
1, 316203, Control_c, 0, 64, 62
1, 316218, Control_c, 0, 64, 64
1, 316233, Control_c, 0, 64, 65
1, 316248, Control_c, 0, 64, 67
1, 316262, Control_c, 0, 64, 69
1, 316277, Control_c, 0, 64, 71
1, 316292, Control_c, 0, 64, 73
1, 316307, Control_c, 0, 64, 77
1, 316322, Control_c, 0, 64, 80
1, 316336, Control_c, 0, 64, 84
1, 316351, Control_c, 0, 64, 89
1, 316366, Control_c, 0, 64, 95
1, 316381, Control_c, 0, 64, 104
1, 316395, Control_c, 0, 64, 125
1, 316410, Control_c, 0, 64, 127
1, 316633, Note_off_c, 0, 50, 39
1, 316800, Note_off_c, 0, 38, 33
1, 317566, Note_on_c, 0, 40, 38
1, 317581, Note_on_c, 0, 52, 38
1, 317702, Control_c, 0, 64, 120
1, 317716, Control_c, 0, 64, 92
1, 317731, Control_c, 0, 64, 77
1, 317746, Control_c, 0, 64, 67
1, 317760, Control_c, 0, 64, 60
1, 317775, Control_c, 0, 64, 55
1, 317790, Control_c, 0, 64, 55
1, 317820, Control_c, 0, 64, 56
1, 317834, Control_c, 0, 64, 60
1, 317849, Control_c, 0, 64, 63
1, 317864, Control_c, 0, 64, 65
1, 317879, Control_c, 0, 64, 68
1, 317894, Control_c, 0, 64, 72
1, 317909, Control_c, 0, 64, 77
1, 317924, Control_c, 0, 64, 83
1, 317939, Control_c, 0, 64, 90
1, 317953, Control_c, 0, 64, 99
1, 317968, Control_c, 0, 64, 112
1, 317990, Control_c, 0, 64, 127
1, 318008, Note_off_c, 0, 57, 55
1, 318088, Note_off_c, 0, 66, 40
1, 318110, Note_off_c, 0, 52, 39
1, 318114, Note_off_c, 0, 62, 37
1, 318216, Note_off_c, 0, 40, 44
1, 318331, Note_on_c, 0, 64, 48
1, 318340, Note_on_c, 0, 56, 31
1, 318584, Note_off_c, 0, 64, 37
1, 318612, Note_off_c, 0, 56, 34
1, 319389, Note_on_c, 0, 60, 48
1, 319389, Note_on_c, 0, 64, 47
1, 319401, Note_on_c, 0, 55, 37
1, 319417, Note_on_c, 0, 48, 35
1, 319433, Note_on_c, 0, 36, 29
1, 319577, Control_c, 0, 64, 105
1, 319592, Control_c, 0, 64, 94
1, 319607, Control_c, 0, 64, 88
1, 319621, Control_c, 0, 64, 83
1, 319636, Control_c, 0, 64, 78
1, 319651, Control_c, 0, 64, 73
1, 319666, Control_c, 0, 64, 67
1, 319681, Control_c, 0, 64, 64
1, 319695, Control_c, 0, 64, 60
1, 319710, Control_c, 0, 64, 57
1, 319725, Control_c, 0, 64, 53
1, 319740, Control_c, 0, 64, 46
1, 319754, Control_c, 0, 64, 30
1, 319769, Control_c, 0, 64, 0
1, 320096, Control_c, 0, 64, 14
1, 320110, Control_c, 0, 64, 25
1, 320125, Control_c, 0, 64, 35
1, 320140, Control_c, 0, 64, 41
1, 320155, Control_c, 0, 64, 45
1, 320170, Control_c, 0, 64, 49
1, 320184, Control_c, 0, 64, 51
1, 320199, Control_c, 0, 64, 53
1, 320214, Control_c, 0, 64, 55
1, 320236, Control_c, 0, 64, 57
1, 320251, Control_c, 0, 64, 58
1, 320266, Control_c, 0, 64, 60
1, 320281, Control_c, 0, 64, 61
1, 320296, Control_c, 0, 64, 62
1, 320310, Control_c, 0, 64, 63
1, 320325, Control_c, 0, 64, 63
1, 320340, Control_c, 0, 64, 64
1, 320355, Control_c, 0, 64, 65
1, 320370, Control_c, 0, 64, 66
1, 320384, Control_c, 0, 64, 67
1, 320399, Control_c, 0, 64, 69
1, 320414, Control_c, 0, 64, 70
1, 320429, Control_c, 0, 64, 72
1, 320443, Control_c, 0, 64, 74
1, 320458, Control_c, 0, 64, 75
1, 320473, Control_c, 0, 64, 77
1, 320488, Control_c, 0, 64, 80
1, 320503, Control_c, 0, 64, 84
1, 320517, Control_c, 0, 64, 88
1, 320532, Control_c, 0, 64, 93
1, 320547, Control_c, 0, 64, 98
1, 320562, Control_c, 0, 64, 103
1, 320578, Control_c, 0, 64, 109
1, 320593, Control_c, 0, 64, 125
1, 320607, Control_c, 0, 64, 127
1, 321021, Note_off_c, 0, 48, 34
1, 321118, Note_off_c, 0, 60, 36
1, 321125, Note_off_c, 0, 36, 36
1, 321244, Note_off_c, 0, 55, 33
1, 321437, Note_off_c, 0, 64, 34
1, 321939, Note_on_c, 0, 55, 37
1, 321941, Note_on_c, 0, 62, 38
1, 321947, Note_on_c, 0, 47, 38
1, 321968, Note_on_c, 0, 35, 25
1, 322045, Control_c, 0, 64, 117
1, 322060, Control_c, 0, 64, 101
1, 322075, Control_c, 0, 64, 89
1, 322090, Control_c, 0, 64, 77
1, 322105, Control_c, 0, 64, 68
1, 322120, Control_c, 0, 64, 63
1, 322135, Control_c, 0, 64, 60
1, 322150, Control_c, 0, 64, 59
1, 322164, Control_c, 0, 64, 59
1, 322180, Control_c, 0, 64, 59
1, 322195, Control_c, 0, 64, 61
1, 322210, Control_c, 0, 64, 64
1, 322225, Control_c, 0, 64, 67
1, 322239, Control_c, 0, 64, 71
1, 322254, Control_c, 0, 64, 77
1, 322269, Control_c, 0, 64, 85
1, 322284, Control_c, 0, 64, 94
1, 322299, Control_c, 0, 64, 102
1, 322311, Note_off_c, 0, 62, 57
1, 322313, Control_c, 0, 64, 112
1, 322328, Control_c, 0, 64, 127
1, 322335, Note_off_c, 0, 55, 43
1, 322681, Note_on_c, 0, 64, 46
1, 322684, Note_on_c, 0, 62, 38
1, 322695, Note_on_c, 0, 55, 30
1, 322831, Note_off_c, 0, 47, 37
1, 322844, Note_off_c, 0, 35, 36
1, 322887, Note_off_c, 0, 55, 44
1, 323001, Note_off_c, 0, 64, 35
1, 323046, Note_off_c, 0, 62, 23
1, 323365, Note_on_c, 0, 66, 57
1, 323376, Note_on_c, 0, 45, 40
1, 323376, Note_on_c, 0, 60, 46
1, 323379, Note_on_c, 0, 62, 48
1, 323390, Note_on_c, 0, 33, 37
1, 323440, Control_c, 0, 64, 110
1, 323454, Control_c, 0, 64, 88
1, 323469, Control_c, 0, 64, 73
1, 323484, Control_c, 0, 64, 64
1, 323499, Control_c, 0, 64, 61
1, 323528, Control_c, 0, 64, 62
1, 323543, Control_c, 0, 64, 63
1, 323558, Control_c, 0, 64, 66
1, 323573, Control_c, 0, 64, 71
1, 323587, Control_c, 0, 64, 77
1, 323601, Control_c, 0, 64, 84
1, 323616, Control_c, 0, 64, 91
1, 323631, Control_c, 0, 64, 98
1, 323646, Control_c, 0, 64, 105
1, 323660, Control_c, 0, 64, 115
1, 323675, Control_c, 0, 64, 127
1, 323690, Note_off_c, 0, 45, 37
1, 323709, Note_off_c, 0, 62, 28
1, 323720, Note_off_c, 0, 33, 37
1, 323724, Note_off_c, 0, 60, 35
1, 323782, Note_off_c, 0, 66, 36
1, 324064, Note_on_c, 0, 31, 46
1, 324067, Note_on_c, 0, 67, 68
1, 324069, Note_on_c, 0, 43, 47
1, 324070, Note_on_c, 0, 59, 60
1, 324073, Note_on_c, 0, 62, 56
1, 324098, Control_c, 0, 64, 119
1, 324113, Control_c, 0, 64, 106
1, 324128, Control_c, 0, 64, 88
1, 324143, Control_c, 0, 64, 74
1, 324157, Control_c, 0, 64, 65
1, 324172, Control_c, 0, 64, 60
1, 324187, Control_c, 0, 64, 59
1, 324201, Control_c, 0, 64, 59
1, 324216, Control_c, 0, 64, 60
1, 324231, Control_c, 0, 64, 62
1, 324246, Control_c, 0, 64, 65
1, 324261, Control_c, 0, 64, 69
1, 324276, Control_c, 0, 64, 74
1, 324291, Control_c, 0, 64, 79
1, 324306, Control_c, 0, 64, 85
1, 324321, Control_c, 0, 64, 91
1, 324336, Control_c, 0, 64, 97
1, 324350, Control_c, 0, 64, 104
1, 324365, Control_c, 0, 64, 113
1, 324380, Control_c, 0, 64, 127
1, 324388, Note_off_c, 0, 43, 37
1, 324403, Note_off_c, 0, 31, 30
1, 324407, Note_off_c, 0, 59, 55
1, 324407, Note_off_c, 0, 67, 59
1, 324441, Note_off_c, 0, 62, 55
1, 324775, Note_on_c, 0, 62, 54
1, 324780, Note_on_c, 0, 69, 81
1, 324788, Note_on_c, 0, 57, 57
1, 324791, Note_on_c, 0, 30, 46
1, 324799, Note_on_c, 0, 42, 48
1, 324877, Control_c, 0, 64, 100
1, 324892, Control_c, 0, 64, 84
1, 324906, Control_c, 0, 64, 72
1, 324921, Control_c, 0, 64, 65
1, 324936, Control_c, 0, 64, 61
1, 324951, Control_c, 0, 64, 59
1, 324980, Control_c, 0, 64, 60
1, 324995, Control_c, 0, 64, 61
1, 325010, Control_c, 0, 64, 63
1, 325024, Control_c, 0, 64, 66
1, 325039, Control_c, 0, 64, 70
1, 325054, Control_c, 0, 64, 77
1, 325069, Note_off_c, 0, 57, 35
1, 325069, Control_c, 0, 64, 85
1, 325084, Control_c, 0, 64, 96
1, 325099, Control_c, 0, 64, 116
1, 325099, Note_off_c, 0, 69, 58
1, 325114, Control_c, 0, 64, 127
1, 325120, Note_off_c, 0, 62, 54
1, 325209, Note_off_c, 0, 30, 40
1, 325237, Note_off_c, 0, 42, 37
1, 325698, Note_on_c, 0, 71, 78
1, 325704, Note_on_c, 0, 59, 56
1, 325704, Note_on_c, 0, 64, 59
1, 325707, Note_on_c, 0, 62, 51
1, 325708, Note_on_c, 0, 31, 43
1, 325714, Note_on_c, 0, 43, 41
1, 325803, Control_c, 0, 64, 116
1, 325818, Control_c, 0, 64, 97
1, 325834, Control_c, 0, 64, 83
1, 325848, Control_c, 0, 64, 72
1, 325863, Control_c, 0, 64, 64
1, 325878, Control_c, 0, 64, 58
1, 325893, Control_c, 0, 64, 56
1, 325908, Control_c, 0, 64, 55
1, 325922, Control_c, 0, 64, 55
1, 325937, Control_c, 0, 64, 55
1, 325952, Control_c, 0, 64, 57
1, 325967, Control_c, 0, 64, 60
1, 325982, Control_c, 0, 64, 62
1, 325996, Control_c, 0, 64, 64
1, 326011, Control_c, 0, 64, 66
1, 326026, Control_c, 0, 64, 68
1, 326041, Control_c, 0, 64, 70
1, 326056, Control_c, 0, 64, 73
1, 326070, Control_c, 0, 64, 77
1, 326085, Control_c, 0, 64, 81
1, 326100, Note_off_c, 0, 64, 49
1, 326100, Control_c, 0, 64, 85
1, 326115, Control_c, 0, 64, 90
1, 326130, Control_c, 0, 64, 97
1, 326145, Control_c, 0, 64, 105
1, 326160, Control_c, 0, 64, 117
1, 326175, Control_c, 0, 64, 127
1, 326199, Note_off_c, 0, 43, 36
1, 326292, Note_off_c, 0, 31, 17
1, 326321, Note_off_c, 0, 62, 31
1, 326364, Note_off_c, 0, 59, 35
1, 326653, Note_off_c, 0, 71, 38
1, 326693, Note_on_c, 0, 32, 39
1, 326695, Note_on_c, 0, 44, 42
1, 326957, Note_off_c, 0, 32, 40
1, 326992, Note_off_c, 0, 44, 34
1, 327084, Note_on_c, 0, 64, 51
1, 327090, Note_on_c, 0, 59, 44
1, 327091, Note_on_c, 0, 62, 44
1, 327203, Note_off_c, 0, 59, 57
1, 327260, Note_off_c, 0, 62, 45
1, 327296, Note_off_c, 0, 64, 34
1, 327617, Note_on_c, 0, 64, 42
1, 327630, Note_on_c, 0, 61, 38
1, 327637, Note_on_c, 0, 33, 32
1, 327638, Note_on_c, 0, 45, 29
1, 327641, Control_c, 0, 64, 115
1, 327656, Control_c, 0, 64, 111
1, 327671, Control_c, 0, 64, 105
1, 327686, Control_c, 0, 64, 98
1, 327701, Control_c, 0, 64, 91
1, 327723, Control_c, 0, 64, 83
1, 327738, Control_c, 0, 64, 75
1, 327753, Control_c, 0, 64, 68
1, 327768, Control_c, 0, 64, 62
1, 327784, Control_c, 0, 64, 57
1, 327798, Control_c, 0, 64, 53
1, 327813, Control_c, 0, 64, 50
1, 327828, Control_c, 0, 64, 48
1, 327843, Control_c, 0, 64, 45
1, 327858, Control_c, 0, 64, 43
1, 327872, Control_c, 0, 64, 43
1, 327917, Control_c, 0, 64, 42
1, 327946, Control_c, 0, 64, 43
1, 327961, Control_c, 0, 64, 45
1, 327976, Control_c, 0, 64, 47
1, 327991, Control_c, 0, 64, 50
1, 328005, Control_c, 0, 64, 52
1, 328020, Control_c, 0, 64, 53
1, 328035, Control_c, 0, 64, 54
1, 328050, Control_c, 0, 64, 54
1, 328065, Control_c, 0, 64, 55
1, 328080, Control_c, 0, 64, 57
1, 328094, Control_c, 0, 64, 58
1, 328109, Control_c, 0, 64, 60
1, 328124, Control_c, 0, 64, 61
1, 328139, Control_c, 0, 64, 62
1, 328154, Control_c, 0, 64, 63
1, 328169, Control_c, 0, 64, 64
1, 328184, Control_c, 0, 64, 66
1, 328198, Control_c, 0, 64, 68
1, 328213, Control_c, 0, 64, 70
1, 328228, Control_c, 0, 64, 73
1, 328242, Control_c, 0, 64, 76
1, 328257, Control_c, 0, 64, 79
1, 328272, Control_c, 0, 64, 83
1, 328287, Control_c, 0, 64, 88
1, 328302, Control_c, 0, 64, 94
1, 328316, Control_c, 0, 64, 103
1, 328331, Control_c, 0, 64, 117
1, 328346, Control_c, 0, 64, 127
1, 328357, Note_off_c, 0, 33, 33
1, 328404, Note_off_c, 0, 61, 38
1, 328407, Note_off_c, 0, 64, 41
1, 328593, Note_off_c, 0, 45, 38
1, 329466, Note_on_c, 0, 64, 34
1, 329484, Note_on_c, 0, 45, 34
1, 329491, Note_on_c, 0, 60, 23
1, 329663, Note_off_c, 0, 45, 29
1, 329686, Note_off_c, 0, 64, 37
1, 329702, Note_off_c, 0, 60, 41
1, 330091, Note_on_c, 0, 66, 54
1, 330101, Note_on_c, 0, 64, 45
1, 330110, Note_on_c, 0, 45, 35
1, 330110, Note_on_c, 0, 60, 31
1, 330261, Note_off_c, 0, 45, 56
1, 330281, Note_off_c, 0, 60, 44
1, 330345, Note_off_c, 0, 64, 37
1, 330434, Note_off_c, 0, 66, 31
1, 330771, Note_on_c, 0, 59, 36
1, 330777, Note_on_c, 0, 67, 50
1, 330791, Note_on_c, 0, 47, 31
1, 330792, Note_on_c, 0, 64, 36
1, 330867, Control_c, 0, 64, 108
1, 330882, Control_c, 0, 64, 90
1, 330897, Control_c, 0, 64, 76
1, 330911, Control_c, 0, 64, 67
1, 330926, Control_c, 0, 64, 60
1, 330941, Control_c, 0, 64, 57
1, 330986, Control_c, 0, 64, 59
1, 331001, Control_c, 0, 64, 61
1, 331016, Control_c, 0, 64, 63
1, 331031, Control_c, 0, 64, 66
1, 331046, Control_c, 0, 64, 70
1, 331060, Control_c, 0, 64, 74
1, 331075, Control_c, 0, 64, 78
1, 331090, Control_c, 0, 64, 84
1, 331105, Control_c, 0, 64, 91
1, 331120, Control_c, 0, 64, 100
1, 331135, Control_c, 0, 64, 112
1, 331149, Control_c, 0, 64, 127
1, 331211, Note_off_c, 0, 59, 36
1, 331350, Note_off_c, 0, 64, 35
1, 331353, Note_off_c, 0, 47, 35
1, 331365, Note_off_c, 0, 67, 33
1, 331511, Note_on_c, 0, 66, 46
1, 331517, Note_on_c, 0, 57, 39
1, 331517, Note_on_c, 0, 63, 43
1, 331782, Note_on_c, 0, 64, 67
1, 331800, Note_on_c, 0, 55, 48
1, 331850, Note_off_c, 0, 57, 42
1, 331863, Note_off_c, 0, 63, 32
1, 331944, Note_off_c, 0, 64, 55
1, 331998, Note_off_c, 0, 55, 51
1, 332013, Note_off_c, 0, 66, 31
1, 332134, Note_on_c, 0, 54, 44
1, 332137, Note_on_c, 0, 47, 41
1, 332173, Note_on_c, 0, 71, 68
1, 332189, Note_on_c, 0, 64, 44
1, 332217, Control_c, 0, 64, 115
1, 332232, Control_c, 0, 64, 100
1, 332246, Control_c, 0, 64, 86
1, 332261, Control_c, 0, 64, 74
1, 332276, Control_c, 0, 64, 65
1, 332290, Control_c, 0, 64, 59
1, 332305, Control_c, 0, 64, 56
1, 332320, Control_c, 0, 64, 55
1, 332350, Control_c, 0, 64, 56
1, 332364, Control_c, 0, 64, 58
1, 332379, Control_c, 0, 64, 61
1, 332394, Control_c, 0, 64, 63
1, 332409, Control_c, 0, 64, 64
1, 332424, Control_c, 0, 64, 67
1, 332438, Control_c, 0, 64, 70
1, 332453, Control_c, 0, 64, 73
1, 332468, Control_c, 0, 64, 77
1, 332483, Control_c, 0, 64, 80
1, 332497, Control_c, 0, 64, 84
1, 332512, Control_c, 0, 64, 89
1, 332527, Control_c, 0, 64, 93
1, 332542, Control_c, 0, 64, 97
1, 332557, Control_c, 0, 64, 101
1, 332573, Control_c, 0, 64, 103
1, 332587, Control_c, 0, 64, 103
1, 332602, Control_c, 0, 64, 104
1, 332617, Control_c, 0, 64, 105
1, 332632, Control_c, 0, 64, 106
1, 332647, Control_c, 0, 64, 107
1, 332661, Control_c, 0, 64, 108
1, 332676, Control_c, 0, 64, 109
1, 332691, Control_c, 0, 64, 110
1, 332706, Control_c, 0, 64, 113
1, 332721, Control_c, 0, 64, 115
1, 332736, Control_c, 0, 64, 119
1, 332751, Control_c, 0, 64, 125
1, 332766, Control_c, 0, 64, 127
1, 332962, Note_on_c, 0, 63, 47
1, 332968, Note_on_c, 0, 59, 40
1, 333013, Note_off_c, 0, 71, 34
1, 333287, Note_on_c, 0, 69, 61
1, 333406, Note_off_c, 0, 47, 1
1, 333412, Note_off_c, 0, 69, 52
1, 333421, Note_off_c, 0, 64, 27
1, 333585, Note_on_c, 0, 69, 72
1, 333705, Note_off_c, 0, 63, 48
1, 333818, Control_c, 0, 64, 125
1, 333833, Control_c, 0, 64, 122
1, 333843, Note_off_c, 0, 59, 29
1, 333848, Control_c, 0, 64, 120
1, 333895, Note_off_c, 0, 54, 42
1, 333971, Note_off_c, 0, 69, 53
1, 334068, Control_c, 0, 64, 119
1, 334113, Control_c, 0, 64, 117
1, 334128, Control_c, 0, 64, 116
1, 334143, Control_c, 0, 64, 115
1, 334158, Control_c, 0, 64, 113
1, 334173, Control_c, 0, 64, 112
1, 334188, Control_c, 0, 64, 110
1, 334203, Control_c, 0, 64, 110
1, 334218, Control_c, 0, 64, 108
1, 334232, Control_c, 0, 64, 107
1, 334247, Control_c, 0, 64, 105
1, 334248, Note_on_c, 0, 52, 38
1, 334248, Note_on_c, 0, 67, 51
1, 334254, Note_on_c, 0, 64, 47
1, 334262, Control_c, 0, 64, 104
1, 334277, Control_c, 0, 64, 101
1, 334292, Control_c, 0, 64, 97
1, 334307, Control_c, 0, 64, 90
1, 334322, Control_c, 0, 64, 80
1, 334336, Control_c, 0, 64, 70
1, 334351, Control_c, 0, 64, 64
1, 334366, Control_c, 0, 64, 59
1, 334381, Control_c, 0, 64, 58
1, 334396, Control_c, 0, 64, 59
1, 334411, Control_c, 0, 64, 60
1, 334426, Control_c, 0, 64, 63
1, 334440, Control_c, 0, 64, 65
1, 334462, Control_c, 0, 64, 69
1, 334477, Control_c, 0, 64, 74
1, 334491, Control_c, 0, 64, 79
1, 334506, Control_c, 0, 64, 85
1, 334521, Control_c, 0, 64, 91
1, 334536, Control_c, 0, 64, 99
1, 334551, Control_c, 0, 64, 112
1, 334566, Control_c, 0, 64, 127
1, 334572, Note_off_c, 0, 64, 53
1, 334625, Note_off_c, 0, 67, 37
1, 334663, Note_off_c, 0, 52, 42
1, 334849, Note_on_c, 0, 67, 65
1, 334856, Note_on_c, 0, 60, 39
1, 334858, Note_on_c, 0, 63, 52
1, 334864, Note_on_c, 0, 48, 34
1, 334877, Control_c, 0, 64, 114
1, 334891, Control_c, 0, 64, 92
1, 334906, Control_c, 0, 64, 76
1, 334921, Control_c, 0, 64, 66
1, 334936, Control_c, 0, 64, 62
1, 334967, Control_c, 0, 64, 63
1, 334981, Control_c, 0, 64, 64
1, 334996, Control_c, 0, 64, 65
1, 335011, Control_c, 0, 64, 68
1, 335026, Control_c, 0, 64, 73
1, 335041, Control_c, 0, 64, 78
1, 335055, Control_c, 0, 64, 83
1, 335070, Control_c, 0, 64, 87
1, 335085, Control_c, 0, 64, 93
1, 335100, Control_c, 0, 64, 101
1, 335114, Control_c, 0, 64, 120
1, 335129, Control_c, 0, 64, 127
1, 335242, Note_off_c, 0, 63, 33
1, 335243, Note_off_c, 0, 48, 39
1, 335259, Note_off_c, 0, 60, 36
1, 335338, Note_off_c, 0, 67, 58
1, 335458, Note_on_c, 0, 69, 73
1, 335463, Note_on_c, 0, 63, 63
1, 335466, Note_on_c, 0, 60, 46
1, 335476, Note_on_c, 0, 48, 40
1, 335522, Control_c, 0, 64, 106
1, 335537, Control_c, 0, 64, 85
1, 335552, Control_c, 0, 64, 72
1, 335567, Control_c, 0, 64, 65
1, 335581, Control_c, 0, 64, 61
1, 335596, Control_c, 0, 64, 61
1, 335611, Control_c, 0, 64, 61
1, 335626, Control_c, 0, 64, 62
1, 335641, Control_c, 0, 64, 64
1, 335655, Control_c, 0, 64, 66
1, 335670, Control_c, 0, 64, 72
1, 335685, Control_c, 0, 64, 81
1, 335700, Control_c, 0, 64, 92
1, 335714, Control_c, 0, 64, 106
1, 335729, Control_c, 0, 64, 127
1, 335758, Note_off_c, 0, 63, 53
1, 335770, Note_off_c, 0, 48, 39
1, 335777, Note_off_c, 0, 69, 58
1, 335868, Note_off_c, 0, 60, 36
1, 336137, Note_on_c, 0, 50, 33
1, 336142, Note_on_c, 0, 71, 67
1, 336146, Note_on_c, 0, 55, 39
1, 336151, Note_on_c, 0, 62, 52
1, 336256, Control_c, 0, 64, 119
1, 336271, Control_c, 0, 64, 90
1, 336286, Control_c, 0, 64, 74
1, 336301, Control_c, 0, 64, 65
1, 336316, Control_c, 0, 64, 60
1, 336330, Control_c, 0, 64, 59
1, 336360, Control_c, 0, 64, 59
1, 336375, Control_c, 0, 64, 61
1, 336390, Control_c, 0, 64, 63
1, 336404, Control_c, 0, 64, 65
1, 336419, Control_c, 0, 64, 69
1, 336434, Control_c, 0, 64, 73
1, 336449, Control_c, 0, 64, 78
1, 336463, Control_c, 0, 64, 83
1, 336478, Control_c, 0, 64, 87
1, 336493, Control_c, 0, 64, 92
1, 336508, Control_c, 0, 64, 100
1, 336523, Control_c, 0, 64, 110
1, 336537, Control_c, 0, 64, 127
1, 336550, Note_off_c, 0, 71, 55
1, 336712, Note_off_c, 0, 55, 43
1, 336756, Note_on_c, 0, 57, 42
1, 336775, Note_on_c, 0, 69, 70
1, 336899, Note_off_c, 0, 62, 33
1, 336963, Note_off_c, 0, 50, 29
1, 336992, Note_off_c, 0, 57, 32
1, 337026, Note_off_c, 0, 69, 51
1, 337062, Note_on_c, 0, 67, 74
1, 337073, Note_on_c, 0, 59, 48
1, 337213, Note_off_c, 0, 67, 62
1, 337539, Note_on_c, 0, 74, 80
1, 337542, Note_on_c, 0, 66, 62
1, 337553, Note_on_c, 0, 60, 47
1, 337627, Note_off_c, 0, 59, 39
1, 337709, Control_c, 0, 64, 107
1, 337724, Control_c, 0, 64, 91
1, 337739, Control_c, 0, 64, 78
1, 337754, Control_c, 0, 64, 68
1, 337769, Control_c, 0, 64, 62
1, 337783, Control_c, 0, 64, 57
1, 337798, Control_c, 0, 64, 55
1, 337828, Control_c, 0, 64, 56
1, 337843, Control_c, 0, 64, 58
1, 337857, Control_c, 0, 64, 61
1, 337872, Control_c, 0, 64, 63
1, 337887, Control_c, 0, 64, 66
1, 337902, Control_c, 0, 64, 69
1, 337917, Control_c, 0, 64, 75
1, 337931, Control_c, 0, 64, 81
1, 337946, Control_c, 0, 64, 87
1, 337961, Control_c, 0, 64, 94
1, 337976, Control_c, 0, 64, 102
1, 337991, Control_c, 0, 64, 122
1, 338006, Control_c, 0, 64, 127
1, 338064, Note_off_c, 0, 74, 60
1, 338272, Note_on_c, 0, 57, 48
1, 338279, Note_on_c, 0, 50, 44
1, 338329, Note_off_c, 0, 60, 56
1, 338548, Note_off_c, 0, 57, 54
1, 338727, Note_on_c, 0, 72, 72
1, 338786, Note_off_c, 0, 66, 40
1, 338871, Note_off_c, 0, 72, 61
1, 339055, Note_off_c, 0, 50, 7
1, 339415, Note_on_c, 0, 72, 72
1, 339418, Note_on_c, 0, 66, 51
1, 339425, Note_on_c, 0, 69, 53
1, 339428, Note_on_c, 0, 51, 51
1, 339577, Control_c, 0, 64, 91
1, 339592, Control_c, 0, 64, 73
1, 339607, Control_c, 0, 64, 65
1, 339622, Control_c, 0, 64, 60
1, 339637, Control_c, 0, 64, 58
1, 339666, Control_c, 0, 64, 59
1, 339681, Control_c, 0, 64, 61
1, 339703, Control_c, 0, 64, 64
1, 339718, Control_c, 0, 64, 66
1, 339733, Control_c, 0, 64, 70
1, 339748, Control_c, 0, 64, 75
1, 339764, Control_c, 0, 64, 81
1, 339778, Control_c, 0, 64, 89
1, 339793, Control_c, 0, 64, 98
1, 339808, Control_c, 0, 64, 114
1, 339823, Control_c, 0, 64, 127
1, 339924, Note_off_c, 0, 72, 52
1, 340165, Note_off_c, 0, 51, 37
1, 340307, Note_off_c, 0, 69, 39
1, 340355, Note_on_c, 0, 71, 53
1, 340576, Note_off_c, 0, 66, 28
1, 340590, Note_off_c, 0, 71, 51
1, 341170, Note_on_c, 0, 71, 51
1, 341185, Note_on_c, 0, 64, 37
1, 341190, Note_on_c, 0, 67, 38
1, 341190, Note_on_c, 0, 52, 38
1, 341191, Note_on_c, 0, 40, 38
1, 341320, Control_c, 0, 64, 112
1, 341334, Control_c, 0, 64, 91
1, 341351, Control_c, 0, 64, 77
1, 341365, Control_c, 0, 64, 67
1, 341380, Control_c, 0, 64, 62
1, 341395, Control_c, 0, 64, 60
1, 341410, Control_c, 0, 64, 59
1, 341424, Control_c, 0, 64, 59
1, 341454, Control_c, 0, 64, 59
1, 341469, Control_c, 0, 64, 61
1, 341484, Control_c, 0, 64, 62
1, 341498, Control_c, 0, 64, 64
1, 341513, Control_c, 0, 64, 66
1, 341528, Control_c, 0, 64, 68
1, 341543, Control_c, 0, 64, 71
1, 341557, Control_c, 0, 64, 75
1, 341572, Control_c, 0, 64, 78
1, 341587, Control_c, 0, 64, 82
1, 341602, Control_c, 0, 64, 86
1, 341617, Control_c, 0, 64, 91
1, 341631, Control_c, 0, 64, 97
1, 341646, Control_c, 0, 64, 103
1, 341661, Control_c, 0, 64, 112
1, 341676, Control_c, 0, 64, 127
1, 341810, Note_off_c, 0, 52, 39
1, 341813, Note_off_c, 0, 64, 41
1, 341869, Note_off_c, 0, 40, 41
1, 341897, Note_on_c, 0, 62, 43
1, 342089, Note_off_c, 0, 67, 33
1, 342138, Note_off_c, 0, 71, 39
1, 342399, Note_off_c, 0, 62, 37
1, 342589, Note_on_c, 0, 61, 43
1, 342590, Note_on_c, 0, 45, 33
1, 342601, Note_on_c, 0, 33, 28
1, 342758, Control_c, 0, 64, 105
1, 342772, Control_c, 0, 64, 89
1, 342787, Control_c, 0, 64, 77
1, 342802, Control_c, 0, 64, 69
1, 342817, Control_c, 0, 64, 65
1, 342832, Control_c, 0, 64, 63
1, 342877, Control_c, 0, 64, 63
1, 342892, Control_c, 0, 64, 64
1, 342906, Control_c, 0, 64, 65
1, 342921, Control_c, 0, 64, 66
1, 342936, Control_c, 0, 64, 69
1, 342951, Control_c, 0, 64, 73
1, 342966, Control_c, 0, 64, 77
1, 342981, Control_c, 0, 64, 81
1, 342996, Control_c, 0, 64, 87
1, 343011, Control_c, 0, 64, 93
1, 343026, Control_c, 0, 64, 100
1, 343041, Control_c, 0, 64, 112
1, 343056, Control_c, 0, 64, 127
1, 343300, Note_on_c, 0, 69, 60
1, 343455, Note_off_c, 0, 61, 31
1, 343950, Note_off_c, 0, 69, 45
1, 343969, Note_on_c, 0, 67, 56
1, 344130, Control_c, 0, 64, 120
1, 344144, Control_c, 0, 64, 102
1, 344159, Control_c, 0, 64, 89
1, 344174, Control_c, 0, 64, 77
1, 344197, Control_c, 0, 64, 68
1, 344212, Control_c, 0, 64, 62
1, 344226, Control_c, 0, 64, 59
1, 344241, Control_c, 0, 64, 58
1, 344286, Control_c, 0, 64, 60
1, 344300, Control_c, 0, 64, 62
1, 344315, Control_c, 0, 64, 64
1, 344330, Control_c, 0, 64, 67
1, 344344, Control_c, 0, 64, 71
1, 344359, Control_c, 0, 64, 77
1, 344374, Control_c, 0, 64, 82
1, 344389, Control_c, 0, 64, 88
1, 344404, Control_c, 0, 64, 95
1, 344418, Control_c, 0, 64, 101
1, 344433, Control_c, 0, 64, 112
1, 344448, Control_c, 0, 64, 127
1, 344502, Note_off_c, 0, 67, 30
1, 344851, Note_on_c, 0, 66, 38
1, 344853, Note_on_c, 0, 62, 36
1, 344974, Control_c, 0, 64, 108
1, 344989, Control_c, 0, 64, 93
1, 345004, Control_c, 0, 64, 82
1, 345019, Control_c, 0, 64, 72
1, 345034, Control_c, 0, 64, 66
1, 345048, Control_c, 0, 64, 61
1, 345063, Control_c, 0, 64, 59
1, 345078, Control_c, 0, 64, 58
1, 345093, Control_c, 0, 64, 57
1, 345181, Control_c, 0, 64, 58
1, 345196, Control_c, 0, 64, 59
1, 345211, Control_c, 0, 64, 59
1, 345226, Control_c, 0, 64, 60
1, 345241, Control_c, 0, 64, 61
1, 345256, Control_c, 0, 64, 62
1, 345270, Control_c, 0, 64, 63
1, 345285, Control_c, 0, 64, 64
1, 345300, Control_c, 0, 64, 65
1, 345315, Control_c, 0, 64, 66
1, 345330, Control_c, 0, 64, 67
1, 345345, Control_c, 0, 64, 68
1, 345360, Control_c, 0, 64, 68
1, 345375, Control_c, 0, 64, 69
1, 345390, Control_c, 0, 64, 69
1, 345405, Control_c, 0, 64, 70
1, 345419, Control_c, 0, 64, 72
1, 345434, Control_c, 0, 64, 73
1, 345449, Control_c, 0, 64, 74
1, 345464, Control_c, 0, 64, 75
1, 345479, Control_c, 0, 64, 77
1, 345494, Control_c, 0, 64, 80
1, 345509, Control_c, 0, 64, 83
1, 345524, Control_c, 0, 64, 87
1, 345538, Control_c, 0, 64, 92
1, 345553, Control_c, 0, 64, 99
1, 345568, Control_c, 0, 64, 109
1, 345583, Control_c, 0, 64, 127
1, 345779, Note_off_c, 0, 45, 37
1, 345801, Note_off_c, 0, 33, 34
1, 345811, Note_off_c, 0, 66, 38
1, 346037, Note_off_c, 0, 62, 29
1, 346759, Note_on_c, 0, 67, 40
1, 346768, Note_on_c, 0, 64, 41
1, 346769, Note_on_c, 0, 46, 35
1, 346769, Note_on_c, 0, 61, 38
1, 346790, Note_on_c, 0, 34, 25
1, 346857, Control_c, 0, 64, 119
1, 346872, Control_c, 0, 64, 94
1, 346886, Control_c, 0, 64, 79
1, 346901, Control_c, 0, 64, 69
1, 346916, Control_c, 0, 64, 64
1, 346931, Control_c, 0, 64, 63
1, 346947, Control_c, 0, 64, 63
1, 346962, Control_c, 0, 64, 64
1, 346977, Control_c, 0, 64, 66
1, 346991, Control_c, 0, 64, 68
1, 347006, Control_c, 0, 64, 72
1, 347021, Control_c, 0, 64, 76
1, 347035, Control_c, 0, 64, 81
1, 347050, Control_c, 0, 64, 85
1, 347065, Control_c, 0, 64, 90
1, 347080, Control_c, 0, 64, 96
1, 347095, Control_c, 0, 64, 101
1, 347103, Note_off_c, 0, 34, 42
1, 347110, Control_c, 0, 64, 107
1, 347111, Note_off_c, 0, 46, 33
1, 347125, Control_c, 0, 64, 111
1, 347131, Note_off_c, 0, 61, 37
1, 347139, Control_c, 0, 64, 114
1, 347154, Control_c, 0, 64, 119
1, 347169, Control_c, 0, 64, 127
1, 347239, Note_off_c, 0, 64, 35
1, 347466, Note_on_c, 0, 59, 43
1, 347478, Note_on_c, 0, 35, 35
1, 347481, Note_on_c, 0, 47, 37
1, 347517, Control_c, 0, 64, 105
1, 347532, Control_c, 0, 64, 89
1, 347546, Control_c, 0, 64, 75
1, 347560, Control_c, 0, 64, 66
1, 347575, Control_c, 0, 64, 62
1, 347590, Control_c, 0, 64, 63
1, 347605, Control_c, 0, 64, 64
1, 347620, Control_c, 0, 64, 66
1, 347634, Control_c, 0, 64, 69
1, 347649, Control_c, 0, 64, 74
1, 347664, Control_c, 0, 64, 80
1, 347679, Control_c, 0, 64, 86
1, 347694, Control_c, 0, 64, 89
1, 347709, Control_c, 0, 64, 93
1, 347724, Control_c, 0, 64, 98
1, 347739, Control_c, 0, 64, 105
1, 347751, Note_off_c, 0, 67, 41
1, 347754, Control_c, 0, 64, 113
1, 347769, Control_c, 0, 64, 122
1, 347784, Control_c, 0, 64, 127
1, 347955, Note_off_c, 0, 47, 39
1, 347979, Note_off_c, 0, 59, 47
1, 348000, Note_off_c, 0, 35, 39
1, 348347, Note_on_c, 0, 62, 50
1, 348356, Note_on_c, 0, 58, 36
1, 348362, Note_on_c, 0, 55, 38
1, 348365, Note_on_c, 0, 40, 35
1, 348370, Note_on_c, 0, 28, 33
1, 348444, Control_c, 0, 64, 117
1, 348458, Control_c, 0, 64, 105
1, 348473, Control_c, 0, 64, 92
1, 348488, Control_c, 0, 64, 80
1, 348503, Control_c, 0, 64, 70
1, 348518, Control_c, 0, 64, 64
1, 348534, Control_c, 0, 64, 62
1, 348563, Control_c, 0, 64, 62
1, 348578, Control_c, 0, 64, 63
1, 348593, Control_c, 0, 64, 65
1, 348607, Control_c, 0, 64, 68
1, 348622, Control_c, 0, 64, 73
1, 348637, Control_c, 0, 64, 78
1, 348652, Control_c, 0, 64, 82
1, 348667, Control_c, 0, 64, 85
1, 348689, Control_c, 0, 64, 88
1, 348704, Control_c, 0, 64, 92
1, 348719, Control_c, 0, 64, 96
1, 348734, Control_c, 0, 64, 101
1, 348749, Control_c, 0, 64, 106
1, 348764, Control_c, 0, 64, 108
1, 348778, Control_c, 0, 64, 109
1, 348785, Note_off_c, 0, 58, 38
1, 348793, Control_c, 0, 64, 110
1, 348808, Control_c, 0, 64, 114
1, 348822, Control_c, 0, 64, 119
1, 348824, Note_off_c, 0, 55, 46
1, 348837, Control_c, 0, 64, 127
1, 349027, Note_on_c, 0, 61, 62
1, 349029, Note_on_c, 0, 55, 48
1, 349032, Note_on_c, 0, 58, 51
1, 349114, Note_off_c, 0, 62, 34
1, 349134, Control_c, 0, 64, 115
1, 349149, Control_c, 0, 64, 100
1, 349163, Control_c, 0, 64, 85
1, 349178, Control_c, 0, 64, 71
1, 349193, Control_c, 0, 64, 65
1, 349207, Control_c, 0, 64, 62
1, 349237, Control_c, 0, 64, 63
1, 349252, Control_c, 0, 64, 64
1, 349267, Control_c, 0, 64, 67
1, 349281, Control_c, 0, 64, 70
1, 349296, Control_c, 0, 64, 73
1, 349311, Control_c, 0, 64, 78
1, 349326, Control_c, 0, 64, 81
1, 349342, Control_c, 0, 64, 84
1, 349357, Control_c, 0, 64, 88
1, 349372, Control_c, 0, 64, 91
1, 349386, Control_c, 0, 64, 94
1, 349390, Note_off_c, 0, 55, 62
1, 349396, Note_off_c, 0, 58, 51
1, 349401, Control_c, 0, 64, 96
1, 349416, Control_c, 0, 64, 99
1, 349438, Control_c, 0, 64, 103
1, 349453, Control_c, 0, 64, 106
1, 349468, Control_c, 0, 64, 110
1, 349482, Control_c, 0, 64, 111
1, 349497, Control_c, 0, 64, 112
1, 349512, Control_c, 0, 64, 113
1, 349527, Control_c, 0, 64, 117
1, 349538, Note_off_c, 0, 61, 37
1, 349542, Control_c, 0, 64, 127
1, 349800, Note_on_c, 0, 59, 49
1, 349800, Note_on_c, 0, 62, 57
1, 349807, Note_on_c, 0, 56, 49
1, 349882, Control_c, 0, 64, 120
1, 349897, Control_c, 0, 64, 99
1, 349912, Control_c, 0, 64, 80
1, 349927, Control_c, 0, 64, 68
1, 349941, Control_c, 0, 64, 61
1, 349956, Control_c, 0, 64, 58
1, 350001, Control_c, 0, 64, 58
1, 350016, Control_c, 0, 64, 60
1, 350030, Control_c, 0, 64, 62
1, 350045, Control_c, 0, 64, 64
1, 350060, Control_c, 0, 64, 65
1, 350075, Control_c, 0, 64, 67
1, 350090, Control_c, 0, 64, 69
1, 350104, Control_c, 0, 64, 72
1, 350119, Control_c, 0, 64, 75
1, 350135, Control_c, 0, 64, 78
1, 350150, Control_c, 0, 64, 81
1, 350165, Control_c, 0, 64, 84
1, 350187, Control_c, 0, 64, 89
1, 350202, Control_c, 0, 64, 96
1, 350216, Control_c, 0, 64, 102
1, 350231, Control_c, 0, 64, 109
1, 350246, Control_c, 0, 64, 127
1, 350251, Note_off_c, 0, 28, 37
1, 350281, Note_off_c, 0, 40, 40
1, 350281, Note_off_c, 0, 62, 32
1, 350448, Note_off_c, 0, 56, 38
1, 350474, Note_off_c, 0, 59, 25
1, 350919, Note_on_c, 0, 62, 46
1, 350920, Note_on_c, 0, 66, 53
1, 350937, Note_on_c, 0, 57, 40
1, 350939, Note_on_c, 0, 33, 37
1, 350946, Note_on_c, 0, 45, 34
1, 351098, Control_c, 0, 64, 125
1, 351113, Control_c, 0, 64, 104
1, 351128, Control_c, 0, 64, 93
1, 351143, Control_c, 0, 64, 85
1, 351158, Control_c, 0, 64, 77
1, 351173, Control_c, 0, 64, 71
1, 351188, Control_c, 0, 64, 65
1, 351202, Control_c, 0, 64, 62
1, 351217, Control_c, 0, 64, 60
1, 351232, Control_c, 0, 64, 58
1, 351247, Control_c, 0, 64, 57
1, 351262, Control_c, 0, 64, 55
1, 351277, Control_c, 0, 64, 54
1, 351290, Control_c, 0, 64, 54
1, 351320, Control_c, 0, 64, 53
1, 351379, Control_c, 0, 64, 54
1, 351408, Control_c, 0, 64, 55
1, 351423, Control_c, 0, 64, 55
1, 351438, Control_c, 0, 64, 56
1, 351453, Control_c, 0, 64, 57
1, 351468, Control_c, 0, 64, 58
1, 351483, Control_c, 0, 64, 60
1, 351498, Control_c, 0, 64, 61
1, 351512, Control_c, 0, 64, 62
1, 351527, Control_c, 0, 64, 63
1, 351542, Control_c, 0, 64, 64
1, 351557, Control_c, 0, 64, 65
1, 351572, Control_c, 0, 64, 66
1, 351587, Control_c, 0, 64, 67
1, 351602, Control_c, 0, 64, 69
1, 351616, Control_c, 0, 64, 71
1, 351631, Control_c, 0, 64, 73
1, 351646, Control_c, 0, 64, 75
1, 351661, Control_c, 0, 64, 78
1, 351682, Control_c, 0, 64, 80
1, 351697, Control_c, 0, 64, 84
1, 351712, Control_c, 0, 64, 88
1, 351727, Control_c, 0, 64, 92
1, 351743, Control_c, 0, 64, 97
1, 351758, Control_c, 0, 64, 102
1, 351773, Control_c, 0, 64, 108
1, 351787, Control_c, 0, 64, 116
1, 351802, Control_c, 0, 64, 127
1, 351882, Note_off_c, 0, 62, 48
1, 352112, Note_off_c, 0, 57, 39
1, 352534, Note_off_c, 0, 66, 38
1, 352926, Note_on_c, 0, 61, 33
1, 352928, Note_on_c, 0, 57, 33
1, 352929, Note_on_c, 0, 55, 33
1, 353100, Control_c, 0, 64, 111
1, 353115, Control_c, 0, 64, 91
1, 353129, Control_c, 0, 64, 77
1, 353144, Control_c, 0, 64, 68
1, 353159, Control_c, 0, 64, 63
1, 353182, Control_c, 0, 64, 61
1, 353197, Control_c, 0, 64, 61
1, 353226, Control_c, 0, 64, 61
1, 353241, Control_c, 0, 64, 63
1, 353255, Control_c, 0, 64, 64
1, 353270, Control_c, 0, 64, 66
1, 353285, Control_c, 0, 64, 69
1, 353300, Control_c, 0, 64, 72
1, 353315, Control_c, 0, 64, 75
1, 353331, Control_c, 0, 64, 79
1, 353346, Control_c, 0, 64, 82
1, 353360, Control_c, 0, 64, 87
1, 353375, Control_c, 0, 64, 93
1, 353390, Control_c, 0, 64, 100
1, 353405, Control_c, 0, 64, 107
1, 353420, Control_c, 0, 64, 115
1, 353434, Control_c, 0, 64, 127
1, 353634, Note_on_c, 0, 64, 41
1, 353894, Note_off_c, 0, 57, 31
1, 353905, Note_off_c, 0, 64, 35
1, 353911, Note_off_c, 0, 55, 36
1, 353914, Note_off_c, 0, 61, 40
1, 354126, Note_off_c, 0, 45, 32
1, 354273, Note_on_c, 0, 62, 40
1, 354309, Note_off_c, 0, 33, 36
1, 354564, Note_off_c, 0, 62, 36
1, 355456, Note_on_c, 0, 62, 41
1, 355462, Note_on_c, 0, 57, 35
1, 355462, Note_on_c, 0, 38, 35
1, 355464, Note_on_c, 0, 26, 35
1, 355471, Note_on_c, 0, 54, 36
1, 355650, Control_c, 0, 64, 110
1, 355665, Control_c, 0, 64, 99
1, 355680, Control_c, 0, 64, 92
1, 355695, Control_c, 0, 64, 89
1, 355710, Control_c, 0, 64, 88
1, 355725, Control_c, 0, 64, 87
1, 355740, Control_c, 0, 64, 84
1, 355754, Control_c, 0, 64, 81
1, 355769, Control_c, 0, 64, 77
1, 355784, Control_c, 0, 64, 73
1, 355799, Control_c, 0, 64, 70
1, 355814, Control_c, 0, 64, 68
1, 355828, Control_c, 0, 64, 66
1, 355843, Control_c, 0, 64, 64
1, 355858, Control_c, 0, 64, 62
1, 355872, Control_c, 0, 64, 61
1, 355887, Control_c, 0, 64, 59
1, 355902, Control_c, 0, 64, 57
1, 355917, Control_c, 0, 64, 55
1, 355932, Control_c, 0, 64, 53
1, 355947, Control_c, 0, 64, 51
1, 355961, Control_c, 0, 64, 49
1, 355976, Control_c, 0, 64, 45
1, 355991, Control_c, 0, 64, 42
1, 356006, Control_c, 0, 64, 39
1, 356020, Control_c, 0, 64, 35
1, 356035, Control_c, 0, 64, 31
1, 356050, Control_c, 0, 64, 26
1, 356065, Control_c, 0, 64, 17
1, 356079, Control_c, 0, 64, 0
1, 356829, Control_c, 0, 64, 16
1, 356843, Control_c, 0, 64, 28
1, 356858, Control_c, 0, 64, 36
1, 356873, Control_c, 0, 64, 41
1, 356888, Control_c, 0, 64, 44
1, 356902, Control_c, 0, 64, 46
1, 356925, Control_c, 0, 64, 48
1, 356940, Control_c, 0, 64, 50
1, 356955, Control_c, 0, 64, 52
1, 356970, Control_c, 0, 64, 53
1, 356984, Control_c, 0, 64, 54
1, 356999, Control_c, 0, 64, 56
1, 357014, Control_c, 0, 64, 57
1, 357028, Control_c, 0, 64, 58
1, 357043, Control_c, 0, 64, 59
1, 357058, Control_c, 0, 64, 60
1, 357073, Control_c, 0, 64, 60
1, 357088, Control_c, 0, 64, 61
1, 357102, Control_c, 0, 64, 62
1, 357117, Control_c, 0, 64, 62
1, 357132, Control_c, 0, 64, 63
1, 357147, Control_c, 0, 64, 63
1, 357162, Control_c, 0, 64, 64
1, 357176, Control_c, 0, 64, 64
1, 357191, Control_c, 0, 64, 65
1, 357206, Control_c, 0, 64, 65
1, 357221, Control_c, 0, 64, 66
1, 357236, Control_c, 0, 64, 67
1, 357251, Control_c, 0, 64, 69
1, 357266, Control_c, 0, 64, 70
1, 357280, Control_c, 0, 64, 72
1, 357295, Control_c, 0, 64, 75
1, 357310, Control_c, 0, 64, 78
1, 357325, Control_c, 0, 64, 81
1, 357340, Control_c, 0, 64, 85
1, 357355, Control_c, 0, 64, 91
1, 357370, Control_c, 0, 64, 102
1, 357385, Control_c, 0, 64, 125
1, 357400, Control_c, 0, 64, 127
1, 357592, Note_off_c, 0, 26, 37
1, 357638, Note_off_c, 0, 38, 34
1, 358029, Note_off_c, 0, 62, 34
1, 358047, Note_off_c, 0, 57, 33
1, 358116, Note_off_c, 0, 54, 24
1, 359100, Note_on_c, 0, 50, 38
1, 359245, Control_c, 0, 64, 116
1, 359260, Control_c, 0, 64, 108
1, 359275, Control_c, 0, 64, 101
1, 359290, Control_c, 0, 64, 95
1, 359304, Control_c, 0, 64, 90
1, 359319, Control_c, 0, 64, 85
1, 359334, Control_c, 0, 64, 79
1, 359349, Control_c, 0, 64, 72
1, 359364, Control_c, 0, 64, 66
1, 359378, Control_c, 0, 64, 61
1, 359393, Control_c, 0, 64, 56
1, 359408, Control_c, 0, 64, 54
1, 359423, Control_c, 0, 64, 52
1, 359438, Control_c, 0, 64, 50
1, 359482, Control_c, 0, 64, 51
1, 359496, Control_c, 0, 64, 52
1, 359511, Control_c, 0, 64, 55
1, 359527, Control_c, 0, 64, 57
1, 359542, Control_c, 0, 64, 59
1, 359557, Control_c, 0, 64, 61
1, 359571, Control_c, 0, 64, 62
1, 359586, Control_c, 0, 64, 64
1, 359601, Control_c, 0, 64, 66
1, 359615, Control_c, 0, 64, 67
1, 359630, Control_c, 0, 64, 70
1, 359645, Control_c, 0, 64, 73
1, 359660, Control_c, 0, 64, 78
1, 359675, Control_c, 0, 64, 82
1, 359689, Control_c, 0, 64, 89
1, 359704, Control_c, 0, 64, 95
1, 359708, Note_on_c, 0, 53, 38
1, 359708, Note_on_c, 0, 57, 39
1, 359720, Control_c, 0, 64, 102
1, 359735, Control_c, 0, 64, 112
1, 359750, Control_c, 0, 64, 119
1, 359765, Control_c, 0, 64, 120
1, 359780, Control_c, 0, 64, 122
1, 359794, Control_c, 0, 64, 125
1, 359809, Control_c, 0, 64, 127
1, 359898, Control_c, 0, 64, 125
1, 359913, Control_c, 0, 64, 122
1, 359935, Control_c, 0, 64, 120
1, 359950, Control_c, 0, 64, 119
1, 359963, Note_off_c, 0, 57, 40
1, 359965, Control_c, 0, 64, 117
1, 359980, Control_c, 0, 64, 116
1, 359990, Note_off_c, 0, 53, 41
1, 359995, Control_c, 0, 64, 115
1, 360009, Control_c, 0, 64, 115
1, 360024, Control_c, 0, 64, 114
1, 360039, Control_c, 0, 64, 113
1, 360054, Control_c, 0, 64, 112
1, 360068, Control_c, 0, 64, 111
1, 360083, Control_c, 0, 64, 110
1, 360098, Control_c, 0, 64, 109
1, 360113, Control_c, 0, 64, 108
1, 360127, Control_c, 0, 64, 107
1, 360142, Control_c, 0, 64, 106
1, 360157, Control_c, 0, 64, 105
1, 360172, Note_off_c, 0, 50, 23
1, 360172, Control_c, 0, 64, 104
1, 360202, Control_c, 0, 64, 103
1, 360214, Note_on_c, 0, 44, 41
1, 360217, Control_c, 0, 64, 102
1, 360232, Control_c, 0, 64, 102
1, 360246, Control_c, 0, 64, 101
1, 360261, Control_c, 0, 64, 100
1, 360276, Control_c, 0, 64, 98
1, 360291, Control_c, 0, 64, 96
1, 360306, Control_c, 0, 64, 93
1, 360320, Control_c, 0, 64, 90
1, 360335, Control_c, 0, 64, 87
1, 360350, Control_c, 0, 64, 83
1, 360365, Control_c, 0, 64, 78
1, 360380, Control_c, 0, 64, 71
1, 360394, Control_c, 0, 64, 65
1, 360409, Control_c, 0, 64, 60
1, 360424, Control_c, 0, 64, 54
1, 360438, Control_c, 0, 64, 51
1, 360453, Control_c, 0, 64, 50
1, 360468, Control_c, 0, 64, 48
1, 360514, Control_c, 0, 64, 49
1, 360529, Control_c, 0, 64, 52
1, 360543, Control_c, 0, 64, 54
1, 360558, Control_c, 0, 64, 57
1, 360573, Control_c, 0, 64, 59
1, 360588, Control_c, 0, 64, 60
1, 360603, Control_c, 0, 64, 62
1, 360617, Control_c, 0, 64, 63
1, 360628, Note_on_c, 0, 65, 46
1, 360632, Control_c, 0, 64, 65
1, 360633, Note_on_c, 0, 59, 34
1, 360634, Note_on_c, 0, 62, 38
1, 360647, Control_c, 0, 64, 67
1, 360670, Control_c, 0, 64, 69
1, 360685, Control_c, 0, 64, 72
1, 360699, Control_c, 0, 64, 75
1, 360714, Control_c, 0, 64, 78
1, 360729, Control_c, 0, 64, 81
1, 360744, Control_c, 0, 64, 84
1, 360758, Control_c, 0, 64, 87
1, 360773, Control_c, 0, 64, 88
1, 360782, Note_off_c, 0, 62, 33
1, 360825, Note_off_c, 0, 65, 54
1, 360901, Note_off_c, 0, 59, 39
1, 360921, Control_c, 0, 64, 87
1, 360950, Control_c, 0, 64, 87
1, 360965, Control_c, 0, 64, 86
1, 360968, Note_off_c, 0, 44, 33
1, 360980, Control_c, 0, 64, 86
1, 360995, Control_c, 0, 64, 85
1, 361009, Note_on_c, 0, 55, 50
1, 361010, Control_c, 0, 64, 85
1, 361024, Control_c, 0, 64, 84
1, 361039, Control_c, 0, 64, 84
1, 361054, Control_c, 0, 64, 82
1, 361069, Control_c, 0, 64, 80
1, 361084, Control_c, 0, 64, 77
1, 361099, Control_c, 0, 64, 73
1, 361114, Control_c, 0, 64, 69
1, 361129, Control_c, 0, 64, 65
1, 361143, Control_c, 0, 64, 62
1, 361158, Control_c, 0, 64, 58
1, 361173, Control_c, 0, 64, 55
1, 361188, Control_c, 0, 64, 52
1, 361203, Control_c, 0, 64, 50
1, 361217, Control_c, 0, 64, 49
1, 361247, Control_c, 0, 64, 50
1, 361261, Control_c, 0, 64, 51
1, 361276, Control_c, 0, 64, 54
1, 361291, Control_c, 0, 64, 56
1, 361306, Control_c, 0, 64, 59
1, 361318, Note_on_c, 0, 58, 38
1, 361322, Control_c, 0, 64, 61
1, 361325, Note_on_c, 0, 64, 43
1, 361326, Note_on_c, 0, 62, 37
1, 361337, Control_c, 0, 64, 63
1, 361352, Control_c, 0, 64, 64
1, 361366, Control_c, 0, 64, 66
1, 361381, Control_c, 0, 64, 68
1, 361396, Control_c, 0, 64, 70
1, 361418, Control_c, 0, 64, 73
1, 361433, Control_c, 0, 64, 75
1, 361448, Control_c, 0, 64, 77
1, 361463, Control_c, 0, 64, 79
1, 361478, Control_c, 0, 64, 80
1, 361481, Note_off_c, 0, 62, 29
1, 361492, Control_c, 0, 64, 81
1, 361500, Note_off_c, 0, 64, 60
1, 361515, Note_off_c, 0, 58, 32
1, 361637, Note_on_c, 0, 49, 47
1, 361641, Control_c, 0, 64, 80
1, 361655, Control_c, 0, 64, 80
1, 361670, Control_c, 0, 64, 79
1, 361685, Control_c, 0, 64, 79
1, 361686, Note_off_c, 0, 55, 40
1, 361699, Control_c, 0, 64, 77
1, 361714, Control_c, 0, 64, 75
1, 361729, Control_c, 0, 64, 72
1, 361744, Control_c, 0, 64, 67
1, 361759, Control_c, 0, 64, 63
1, 361773, Control_c, 0, 64, 60
1, 361788, Control_c, 0, 64, 56
1, 361803, Control_c, 0, 64, 54
1, 361817, Control_c, 0, 64, 51
1, 361832, Control_c, 0, 64, 48
1, 361847, Control_c, 0, 64, 47
1, 361891, Control_c, 0, 64, 47
1, 361906, Control_c, 0, 64, 50
1, 361910, Note_on_c, 0, 70, 51
1, 361920, Note_on_c, 0, 67, 38
1, 361921, Control_c, 0, 64, 53
1, 361922, Note_on_c, 0, 64, 41
1, 361936, Control_c, 0, 64, 57
1, 361951, Control_c, 0, 64, 59
1, 361965, Control_c, 0, 64, 61
1, 361980, Control_c, 0, 64, 63
1, 361995, Control_c, 0, 64, 64
1, 362010, Control_c, 0, 64, 66
1, 362017, Note_off_c, 0, 67, 58
1, 362025, Control_c, 0, 64, 68
1, 362039, Note_off_c, 0, 70, 60
1, 362039, Control_c, 0, 64, 70
1, 362054, Control_c, 0, 64, 71
1, 362062, Note_off_c, 0, 64, 36
1, 362069, Control_c, 0, 64, 73
1, 362084, Control_c, 0, 64, 76
1, 362098, Control_c, 0, 64, 78
1, 362114, Control_c, 0, 64, 80
1, 362129, Control_c, 0, 64, 81
1, 362202, Note_on_c, 0, 57, 56
1, 362205, Note_off_c, 0, 49, 37
1, 362241, Control_c, 0, 64, 80
1, 362256, Control_c, 0, 64, 79
1, 362270, Control_c, 0, 64, 77
1, 362285, Control_c, 0, 64, 74
1, 362300, Control_c, 0, 64, 70
1, 362314, Control_c, 0, 64, 68
1, 362329, Control_c, 0, 64, 65
1, 362344, Control_c, 0, 64, 62
1, 362359, Control_c, 0, 64, 59
1, 362374, Control_c, 0, 64, 55
1, 362388, Control_c, 0, 64, 53
1, 362403, Control_c, 0, 64, 51
1, 362433, Control_c, 0, 64, 52
1, 362448, Control_c, 0, 64, 55
1, 362463, Control_c, 0, 64, 58
1, 362469, Note_on_c, 0, 69, 63
1, 362470, Note_on_c, 0, 61, 51
1, 362471, Note_on_c, 0, 67, 53
1, 362476, Note_on_c, 0, 64, 50
1, 362478, Control_c, 0, 64, 60
1, 362493, Control_c, 0, 64, 62
1, 362508, Control_c, 0, 64, 63
1, 362522, Control_c, 0, 64, 65
1, 362537, Control_c, 0, 64, 66
1, 362552, Control_c, 0, 64, 68
1, 362567, Control_c, 0, 64, 70
1, 362571, Note_off_c, 0, 61, 46
1, 362580, Note_off_c, 0, 64, 56
1, 362582, Control_c, 0, 64, 72
1, 362596, Control_c, 0, 64, 74
1, 362600, Note_off_c, 0, 69, 61
1, 362603, Note_off_c, 0, 67, 62
1, 362611, Control_c, 0, 64, 75
1, 362626, Control_c, 0, 64, 76
1, 362641, Control_c, 0, 64, 77
1, 362712, Note_off_c, 0, 57, 54
1, 362740, Note_on_c, 0, 50, 57
1, 362804, Control_c, 0, 64, 76
1, 362834, Control_c, 0, 64, 76
1, 362849, Control_c, 0, 64, 75
1, 362863, Control_c, 0, 64, 74
1, 362878, Control_c, 0, 64, 71
1, 362893, Control_c, 0, 64, 67
1, 362916, Control_c, 0, 64, 62
1, 362931, Control_c, 0, 64, 58
1, 362945, Control_c, 0, 64, 55
1, 362960, Control_c, 0, 64, 52
1, 362975, Control_c, 0, 64, 50
1, 362990, Control_c, 0, 64, 49
1, 363019, Control_c, 0, 64, 50
1, 363034, Control_c, 0, 64, 51
1, 363043, Note_on_c, 0, 74, 40
1, 363049, Note_on_c, 0, 77, 58
1, 363049, Control_c, 0, 64, 53
1, 363057, Note_on_c, 0, 65, 37
1, 363060, Note_on_c, 0, 69, 43
1, 363064, Control_c, 0, 64, 55
1, 363079, Control_c, 0, 64, 57
1, 363093, Control_c, 0, 64, 59
1, 363108, Control_c, 0, 64, 61
1, 363123, Control_c, 0, 64, 63
1, 363138, Control_c, 0, 64, 64
1, 363138, Note_off_c, 0, 69, 43
1, 363153, Control_c, 0, 64, 66
1, 363168, Control_c, 0, 64, 68
1, 363183, Control_c, 0, 64, 70
1, 363198, Control_c, 0, 64, 73
1, 363212, Control_c, 0, 64, 76
1, 363224, Note_off_c, 0, 50, 38
1, 363227, Control_c, 0, 64, 78
1, 363242, Control_c, 0, 64, 82
1, 363257, Control_c, 0, 64, 84
1, 363272, Control_c, 0, 64, 85
1, 363286, Note_off_c, 0, 77, 50
1, 363286, Note_off_c, 0, 74, 21
1, 363287, Control_c, 0, 64, 86
1, 363321, Note_off_c, 0, 65, 35
1, 363390, Note_on_c, 0, 64, 49
1, 363420, Control_c, 0, 64, 86
1, 363435, Control_c, 0, 64, 85
1, 363450, Control_c, 0, 64, 84
1, 363465, Control_c, 0, 64, 83
1, 363480, Control_c, 0, 64, 82
1, 363494, Control_c, 0, 64, 79
1, 363509, Control_c, 0, 64, 74
1, 363524, Control_c, 0, 64, 68
1, 363538, Control_c, 0, 64, 63
1, 363553, Control_c, 0, 64, 58
1, 363568, Control_c, 0, 64, 55
1, 363583, Control_c, 0, 64, 53
1, 363612, Control_c, 0, 64, 54
1, 363627, Control_c, 0, 64, 57
1, 363642, Control_c, 0, 64, 59
1, 363657, Control_c, 0, 64, 61
1, 363679, Control_c, 0, 64, 63
1, 363680, Note_on_c, 0, 74, 42
1, 363687, Note_on_c, 0, 68, 36
1, 363694, Control_c, 0, 64, 64
1, 363707, Note_on_c, 0, 71, 18
1, 363709, Control_c, 0, 64, 66
1, 363725, Control_c, 0, 64, 67
1, 363740, Control_c, 0, 64, 69
1, 363741, Note_off_c, 0, 64, 31
1, 363755, Control_c, 0, 64, 71
1, 363769, Control_c, 0, 64, 73
1, 363776, Note_off_c, 0, 71, 39
1, 363784, Control_c, 0, 64, 75
1, 363799, Control_c, 0, 64, 77
1, 363814, Control_c, 0, 64, 79
1, 363824, Note_off_c, 0, 68, 31
1, 363829, Control_c, 0, 64, 79
1, 363919, Note_off_c, 0, 74, 30
1, 363946, Note_on_c, 0, 57, 39
1, 363961, Control_c, 0, 64, 78
1, 363976, Control_c, 0, 64, 77
1, 363991, Control_c, 0, 64, 74
1, 364006, Control_c, 0, 64, 69
1, 364021, Control_c, 0, 64, 65
1, 364035, Control_c, 0, 64, 62
1, 364050, Control_c, 0, 64, 60
1, 364095, Control_c, 0, 64, 61
1, 364110, Control_c, 0, 64, 63
1, 364125, Control_c, 0, 64, 64
1, 364140, Control_c, 0, 64, 66
1, 364154, Control_c, 0, 64, 67
1, 364169, Control_c, 0, 64, 69
1, 364169, Note_off_c, 0, 57, 56
1, 364184, Control_c, 0, 64, 71
1, 364199, Control_c, 0, 64, 73
1, 364214, Control_c, 0, 64, 74
1, 364229, Control_c, 0, 64, 76
1, 364238, Note_on_c, 0, 73, 38
1, 364243, Note_on_c, 0, 69, 27
1, 364243, Control_c, 0, 64, 78
1, 364250, Note_on_c, 0, 64, 27
1, 364258, Control_c, 0, 64, 82
1, 364273, Control_c, 0, 64, 84
1, 364287, Control_c, 0, 64, 86
1, 364302, Control_c, 0, 64, 86
1, 364317, Control_c, 0, 64, 87
1, 364420, Note_off_c, 0, 73, 32
1, 364429, Note_off_c, 0, 69, 40
1, 364458, Control_c, 0, 64, 86
1, 364482, Note_off_c, 0, 64, 40
1, 364502, Control_c, 0, 64, 86
1, 364548, Control_c, 0, 64, 85
1, 364578, Control_c, 0, 64, 85
1, 364592, Control_c, 0, 64, 84
1, 364622, Control_c, 0, 64, 84
1, 364661, Note_on_c, 0, 50, 30
1, 364681, Control_c, 0, 64, 83
1, 364711, Control_c, 0, 64, 82
1, 364725, Control_c, 0, 64, 81
1, 364740, Control_c, 0, 64, 80
1, 364755, Control_c, 0, 64, 79
1, 364770, Control_c, 0, 64, 78
1, 364785, Control_c, 0, 64, 77
1, 364799, Control_c, 0, 64, 73
1, 364814, Control_c, 0, 64, 68
1, 364829, Control_c, 0, 64, 64
1, 364844, Control_c, 0, 64, 60
1, 364858, Control_c, 0, 64, 57
1, 364873, Control_c, 0, 64, 56
1, 364903, Control_c, 0, 64, 57
1, 364918, Control_c, 0, 64, 58
1, 364932, Control_c, 0, 64, 59
1, 364947, Control_c, 0, 64, 61
1, 364962, Control_c, 0, 64, 63
1, 364977, Control_c, 0, 64, 64
1, 364987, Note_on_c, 0, 69, 31
1, 364989, Note_on_c, 0, 60, 25
1, 364992, Control_c, 0, 64, 66
1, 364992, Note_on_c, 0, 62, 16
1, 365002, Note_on_c, 0, 66, 9
1, 365007, Control_c, 0, 64, 68
1, 365022, Control_c, 0, 64, 70
1, 365037, Control_c, 0, 64, 72
1, 365052, Control_c, 0, 64, 75
1, 365066, Control_c, 0, 64, 77
1, 365081, Control_c, 0, 64, 80
1, 365096, Control_c, 0, 64, 82
1, 365110, Control_c, 0, 64, 83
1, 365140, Control_c, 0, 64, 83
1, 365171, Note_off_c, 0, 69, 42
1, 365174, Note_off_c, 0, 60, 42
1, 365218, Note_off_c, 0, 62, 37
1, 365222, Control_c, 0, 64, 83
1, 365249, Note_off_c, 0, 66, 37
1, 365266, Control_c, 0, 64, 82
1, 365289, Note_on_c, 0, 43, 37
1, 365293, Note_off_c, 0, 50, 35
1, 365326, Control_c, 0, 64, 82
1, 365356, Control_c, 0, 64, 81
1, 365371, Control_c, 0, 64, 81
1, 365386, Control_c, 0, 64, 79
1, 365400, Control_c, 0, 64, 76
1, 365415, Control_c, 0, 64, 71
1, 365430, Control_c, 0, 64, 66
1, 365445, Control_c, 0, 64, 61
1, 365460, Control_c, 0, 64, 56
1, 365475, Control_c, 0, 64, 54
1, 365519, Control_c, 0, 64, 55
1, 365534, Control_c, 0, 64, 57
1, 365548, Control_c, 0, 64, 59
1, 365551, Note_on_c, 0, 58, 35
1, 365555, Note_on_c, 0, 62, 30
1, 365555, Note_on_c, 0, 70, 44
1, 365563, Control_c, 0, 64, 61
1, 365567, Note_on_c, 0, 67, 35
1, 365578, Control_c, 0, 64, 63
1, 365593, Control_c, 0, 64, 64
1, 365608, Control_c, 0, 64, 65
1, 365622, Control_c, 0, 64, 67
1, 365637, Control_c, 0, 64, 68
1, 365652, Control_c, 0, 64, 70
1, 365667, Control_c, 0, 64, 72
1, 365681, Control_c, 0, 64, 73
1, 365684, Note_off_c, 0, 58, 56
1, 365684, Note_off_c, 0, 62, 46
1, 365695, Note_off_c, 0, 43, 37
1, 365696, Control_c, 0, 64, 73
1, 365705, Note_off_c, 0, 67, 36
1, 365711, Control_c, 0, 64, 74
1, 365737, Note_off_c, 0, 70, 52
1, 365826, Note_on_c, 0, 55, 56
1, 365860, Control_c, 0, 64, 73
1, 365926, Control_c, 0, 64, 73
1, 365940, Control_c, 0, 64, 72
1, 365955, Control_c, 0, 64, 71
1, 365970, Control_c, 0, 64, 70
1, 365985, Control_c, 0, 64, 67
1, 366000, Control_c, 0, 64, 64
1, 366015, Control_c, 0, 64, 61
1, 366029, Control_c, 0, 64, 58
1, 366044, Control_c, 0, 64, 56
1, 366089, Note_on_c, 0, 71, 60
1, 366089, Control_c, 0, 64, 58
1, 366101, Note_on_c, 0, 62, 40
1, 366102, Note_on_c, 0, 65, 46
1, 366104, Control_c, 0, 64, 59
1, 366104, Note_on_c, 0, 67, 44
1, 366119, Control_c, 0, 64, 61
1, 366134, Control_c, 0, 64, 62
1, 366149, Control_c, 0, 64, 64
1, 366164, Control_c, 0, 64, 65
1, 366178, Control_c, 0, 64, 66
1, 366193, Control_c, 0, 64, 68
1, 366208, Control_c, 0, 64, 69
1, 366223, Control_c, 0, 64, 71
1, 366238, Control_c, 0, 64, 72
1, 366249, Note_off_c, 0, 71, 58
1, 366251, Note_off_c, 0, 62, 36
1, 366253, Control_c, 0, 64, 74
1, 366262, Note_off_c, 0, 67, 32
1, 366268, Control_c, 0, 64, 74
1, 366281, Control_c, 0, 64, 75
1, 366288, Note_off_c, 0, 65, 24
1, 366325, Control_c, 0, 64, 75
1, 366350, Note_on_c, 0, 48, 53
1, 366403, Note_off_c, 0, 55, 39
1, 366429, Control_c, 0, 64, 75
1, 366459, Control_c, 0, 64, 74
1, 366474, Control_c, 0, 64, 73
1, 366488, Control_c, 0, 64, 70
1, 366503, Control_c, 0, 64, 66
1, 366518, Control_c, 0, 64, 62
1, 366533, Control_c, 0, 64, 58
1, 366548, Control_c, 0, 64, 56
1, 366562, Control_c, 0, 64, 54
1, 366592, Control_c, 0, 64, 54
1, 366602, Note_on_c, 0, 72, 70
1, 366605, Note_on_c, 0, 60, 53
1, 366607, Control_c, 0, 64, 57
1, 366608, Note_on_c, 0, 67, 52
1, 366611, Note_on_c, 0, 65, 50
1, 366622, Control_c, 0, 64, 59
1, 366636, Control_c, 0, 64, 61
1, 366658, Control_c, 0, 64, 62
1, 366673, Control_c, 0, 64, 64
1, 366688, Control_c, 0, 64, 65
1, 366703, Control_c, 0, 64, 66
1, 366715, Note_off_c, 0, 67, 56
1, 366718, Control_c, 0, 64, 67
1, 366733, Control_c, 0, 64, 69
1, 366748, Control_c, 0, 64, 70
1, 366755, Note_off_c, 0, 65, 34
1, 366762, Control_c, 0, 64, 72
1, 366776, Note_off_c, 0, 72, 61
1, 366777, Control_c, 0, 64, 73
1, 366780, Note_off_c, 0, 60, 29
1, 366792, Control_c, 0, 64, 74
1, 366807, Control_c, 0, 64, 74
1, 366851, Control_c, 0, 64, 75
1, 366859, Note_on_c, 0, 58, 68
1, 366980, Note_off_c, 0, 48, 32
1, 367000, Control_c, 0, 64, 74
1, 367015, Control_c, 0, 64, 74
1, 367031, Control_c, 0, 64, 72
1, 367046, Control_c, 0, 64, 68
1, 367060, Control_c, 0, 64, 63
1, 367075, Control_c, 0, 64, 59
1, 367090, Control_c, 0, 64, 56
1, 367105, Control_c, 0, 64, 56
1, 367120, Control_c, 0, 64, 56
1, 367134, Control_c, 0, 64, 58
1, 367136, Note_on_c, 0, 74, 56
1, 367139, Note_on_c, 0, 64, 52
1, 367144, Note_on_c, 0, 67, 38
1, 367149, Control_c, 0, 64, 61
1, 367158, Note_on_c, 0, 60, 26
1, 367164, Control_c, 0, 64, 62
1, 367179, Control_c, 0, 64, 64
1, 367189, Note_on_c, 0, 72, 10
1, 367193, Control_c, 0, 64, 65
1, 367208, Control_c, 0, 64, 66
1, 367213, Note_off_c, 0, 64, 57
1, 367213, Note_off_c, 0, 67, 53
1, 367223, Control_c, 0, 64, 68
1, 367238, Control_c, 0, 64, 70
1, 367241, Note_off_c, 0, 72, 28
1, 367253, Control_c, 0, 64, 71
1, 367261, Note_off_c, 0, 74, 49
1, 367267, Control_c, 0, 64, 72
1, 367282, Control_c, 0, 64, 74
1, 367289, Note_off_c, 0, 60, 23
1, 367297, Control_c, 0, 64, 75
1, 367311, Control_c, 0, 64, 75
1, 367350, Note_off_c, 0, 58, 31
1, 367395, Note_on_c, 0, 57, 47
1, 367453, Control_c, 0, 64, 75
1, 367467, Control_c, 0, 64, 74
1, 367482, Control_c, 0, 64, 73
1, 367497, Control_c, 0, 64, 72
1, 367511, Control_c, 0, 64, 70
1, 367526, Control_c, 0, 64, 66
1, 367541, Control_c, 0, 64, 62
1, 367556, Control_c, 0, 64, 59
1, 367571, Control_c, 0, 64, 56
1, 367585, Control_c, 0, 64, 54
1, 367600, Control_c, 0, 64, 52
1, 367630, Control_c, 0, 64, 53
1, 367645, Control_c, 0, 64, 55
1, 367660, Control_c, 0, 64, 57
1, 367665, Note_on_c, 0, 72, 47
1, 367666, Note_on_c, 0, 60, 41
1, 367675, Control_c, 0, 64, 60
1, 367690, Control_c, 0, 64, 61
1, 367693, Note_on_c, 0, 65, 24
1, 367705, Control_c, 0, 64, 63
1, 367718, Poly_aftertouch_c, 0, 69, 127
1, 367720, Control_c, 0, 64, 64
1, 367735, Control_c, 0, 64, 66
1, 367749, Control_c, 0, 64, 67
1, 367761, Note_off_c, 0, 72, 55
1, 367764, Control_c, 0, 64, 68
1, 367776, Note_off_c, 0, 60, 52
1, 367779, Control_c, 0, 64, 70
1, 367794, Control_c, 0, 64, 71
1, 367809, Control_c, 0, 64, 72
1, 367809, Note_off_c, 0, 57, 24
1, 367821, Poly_aftertouch_c, 0, 69, 0
1, 367839, Control_c, 0, 64, 72
1, 367887, Note_off_c, 0, 65, 32
1, 367906, Note_on_c, 0, 52, 41
1, 367942, Control_c, 0, 64, 72
1, 367957, Control_c, 0, 64, 71
1, 367972, Control_c, 0, 64, 70
1, 367987, Control_c, 0, 64, 69
1, 368001, Control_c, 0, 64, 66
1, 368016, Control_c, 0, 64, 63
1, 368031, Control_c, 0, 64, 61
1, 368046, Control_c, 0, 64, 58
1, 368061, Control_c, 0, 64, 57
1, 368075, Control_c, 0, 64, 55
1, 368090, Control_c, 0, 64, 55
1, 368120, Control_c, 0, 64, 56
1, 368134, Control_c, 0, 64, 58
1, 368149, Control_c, 0, 64, 60
1, 368172, Control_c, 0, 64, 62
1, 368173, Note_on_c, 0, 61, 38
1, 368179, Note_on_c, 0, 67, 30
1, 368180, Note_on_c, 0, 70, 42
1, 368187, Control_c, 0, 64, 63
1, 368202, Control_c, 0, 64, 65
1, 368216, Control_c, 0, 64, 66
1, 368228, Note_off_c, 0, 52, 42
1, 368231, Control_c, 0, 64, 67
1, 368246, Control_c, 0, 64, 69
1, 368261, Control_c, 0, 64, 71
1, 368276, Control_c, 0, 64, 73
1, 368290, Control_c, 0, 64, 74
1, 368305, Control_c, 0, 64, 75
1, 368320, Note_off_c, 0, 70, 33
1, 368320, Control_c, 0, 64, 77
1, 368334, Control_c, 0, 64, 77
1, 368349, Control_c, 0, 64, 78
1, 368360, Note_off_c, 0, 67, 26
1, 368405, Note_off_c, 0, 61, 29
1, 368446, Note_on_c, 0, 53, 37
1, 368468, Control_c, 0, 64, 77
1, 368483, Control_c, 0, 64, 77
1, 368542, Control_c, 0, 64, 76
1, 368557, Control_c, 0, 64, 75
1, 368572, Control_c, 0, 64, 73
1, 368587, Control_c, 0, 64, 70
1, 368602, Control_c, 0, 64, 66
1, 368617, Control_c, 0, 64, 62
1, 368631, Control_c, 0, 64, 59
1, 368646, Control_c, 0, 64, 57
1, 368661, Control_c, 0, 64, 55
1, 368676, Control_c, 0, 64, 54
1, 368691, Control_c, 0, 64, 53
1, 368720, Control_c, 0, 64, 54
1, 368735, Control_c, 0, 64, 55
1, 368749, Control_c, 0, 64, 56
1, 368764, Control_c, 0, 64, 58
1, 368771, Note_on_c, 0, 60, 37
1, 368778, Note_on_c, 0, 69, 29
1, 368779, Control_c, 0, 64, 60
1, 368782, Note_on_c, 0, 65, 32
1, 368794, Control_c, 0, 64, 61
1, 368809, Control_c, 0, 64, 63
1, 368823, Control_c, 0, 64, 64
1, 368838, Control_c, 0, 64, 65
1, 368853, Control_c, 0, 64, 67
1, 368868, Control_c, 0, 64, 69
1, 368883, Control_c, 0, 64, 71
1, 368905, Control_c, 0, 64, 73
1, 368920, Control_c, 0, 64, 76
1, 368935, Control_c, 0, 64, 79
1, 368950, Control_c, 0, 64, 82
1, 368964, Control_c, 0, 64, 85
1, 368979, Control_c, 0, 64, 86
1, 369049, Note_off_c, 0, 65, 29
1, 369089, Note_off_c, 0, 69, 37
1, 369109, Note_on_c, 0, 46, 53
1, 369112, Note_off_c, 0, 60, 37
1, 369127, Control_c, 0, 64, 86
1, 369142, Control_c, 0, 64, 85
1, 369153, Note_off_c, 0, 53, 38
1, 369171, Control_c, 0, 64, 85
1, 369186, Control_c, 0, 64, 84
1, 369201, Control_c, 0, 64, 84
1, 369216, Control_c, 0, 64, 82
1, 369231, Control_c, 0, 64, 81
1, 369246, Control_c, 0, 64, 78
1, 369261, Control_c, 0, 64, 73
1, 369276, Control_c, 0, 64, 68
1, 369290, Control_c, 0, 64, 63
1, 369306, Control_c, 0, 64, 60
1, 369321, Control_c, 0, 64, 59
1, 369335, Control_c, 0, 64, 58
1, 369365, Control_c, 0, 64, 59
1, 369380, Control_c, 0, 64, 60
1, 369395, Control_c, 0, 64, 61
1, 369400, Note_on_c, 0, 63, 36
1, 369400, Note_on_c, 0, 66, 41
1, 369410, Control_c, 0, 64, 63
1, 369413, Note_on_c, 0, 60, 32
1, 369425, Control_c, 0, 64, 64
1, 369440, Control_c, 0, 64, 66
1, 369454, Control_c, 0, 64, 67
1, 369469, Control_c, 0, 64, 69
1, 369484, Control_c, 0, 64, 71
1, 369499, Control_c, 0, 64, 73
1, 369514, Control_c, 0, 64, 74
1, 369528, Control_c, 0, 64, 75
1, 369543, Control_c, 0, 64, 76
1, 369558, Control_c, 0, 64, 76
1, 369586, Note_off_c, 0, 63, 41
1, 369615, Note_off_c, 0, 66, 26
1, 369617, Control_c, 0, 64, 77
1, 369640, Note_on_c, 0, 45, 61
1, 369640, Note_off_c, 0, 60, 33
1, 369699, Control_c, 0, 64, 76
1, 369717, Note_off_c, 0, 46, 37
1, 369728, Control_c, 0, 64, 76
1, 369743, Control_c, 0, 64, 75
1, 369758, Control_c, 0, 64, 73
1, 369773, Control_c, 0, 64, 69
1, 369787, Control_c, 0, 64, 65
1, 369802, Control_c, 0, 64, 61
1, 369817, Control_c, 0, 64, 58
1, 369832, Control_c, 0, 64, 57
1, 369847, Control_c, 0, 64, 56
1, 369891, Control_c, 0, 64, 57
1, 369906, Control_c, 0, 64, 58
1, 369908, Note_on_c, 0, 65, 55
1, 369910, Note_on_c, 0, 63, 47
1, 369915, Note_on_c, 0, 60, 46
1, 369921, Control_c, 0, 64, 60
1, 369935, Control_c, 0, 64, 62
1, 369950, Control_c, 0, 64, 63
1, 369965, Control_c, 0, 64, 64
1, 369979, Control_c, 0, 64, 66
1, 369994, Control_c, 0, 64, 67
1, 370009, Control_c, 0, 64, 68
1, 370024, Control_c, 0, 64, 70
1, 370039, Control_c, 0, 64, 71
1, 370054, Control_c, 0, 64, 72
1, 370063, Note_off_c, 0, 65, 58
1, 370069, Control_c, 0, 64, 73
1, 370083, Control_c, 0, 64, 74
1, 370098, Control_c, 0, 64, 74
1, 370129, Control_c, 0, 64, 75
1, 370133, Note_off_c, 0, 60, 29
1, 370140, Note_off_c, 0, 63, 50
1, 370169, Note_on_c, 0, 42, 60
1, 370195, Note_off_c, 0, 45, 50
1, 370203, Control_c, 0, 64, 74
1, 370262, Control_c, 0, 64, 74
1, 370277, Control_c, 0, 64, 73
1, 370292, Control_c, 0, 64, 73
1, 370307, Control_c, 0, 64, 72
1, 370322, Control_c, 0, 64, 69
1, 370337, Control_c, 0, 64, 66
1, 370351, Control_c, 0, 64, 62
1, 370366, Control_c, 0, 64, 59
1, 370381, Control_c, 0, 64, 56
1, 370396, Control_c, 0, 64, 54
1, 370417, Control_c, 0, 64, 53
1, 370430, Note_on_c, 0, 70, 70
1, 370441, Note_on_c, 0, 63, 50
1, 370447, Control_c, 0, 64, 54
1, 370449, Note_on_c, 0, 60, 40
1, 370462, Control_c, 0, 64, 56
1, 370477, Control_c, 0, 64, 57
1, 370492, Control_c, 0, 64, 59
1, 370507, Control_c, 0, 64, 61
1, 370522, Control_c, 0, 64, 62
1, 370536, Control_c, 0, 64, 63
1, 370551, Control_c, 0, 64, 64
1, 370557, Note_off_c, 0, 63, 36
1, 370566, Control_c, 0, 64, 65
1, 370581, Control_c, 0, 64, 66
1, 370596, Control_c, 0, 64, 68
1, 370610, Control_c, 0, 64, 70
1, 370625, Control_c, 0, 64, 72
1, 370640, Control_c, 0, 64, 74
1, 370655, Control_c, 0, 64, 75
1, 370657, Note_off_c, 0, 70, 49
1, 370661, Note_off_c, 0, 60, 37
1, 370671, Note_on_c, 0, 41, 54
1, 370684, Control_c, 0, 64, 75
1, 370686, Note_off_c, 0, 42, 37
1, 370803, Control_c, 0, 64, 75
1, 370848, Control_c, 0, 64, 74
1, 370863, Control_c, 0, 64, 74
1, 370877, Control_c, 0, 64, 73
1, 370892, Control_c, 0, 64, 72
1, 370908, Control_c, 0, 64, 71
1, 370923, Control_c, 0, 64, 69
1, 370938, Control_c, 0, 64, 65
1, 370953, Control_c, 0, 64, 62
1, 370963, Note_on_c, 0, 69, 50
1, 370968, Control_c, 0, 64, 59
1, 370982, Note_on_c, 0, 63, 32
1, 370983, Control_c, 0, 64, 56
1, 370985, Note_on_c, 0, 60, 37
1, 370998, Control_c, 0, 64, 54
1, 371013, Control_c, 0, 64, 52
1, 371027, Control_c, 0, 64, 51
1, 371072, Control_c, 0, 64, 53
1, 371087, Control_c, 0, 64, 54
1, 371101, Control_c, 0, 64, 57
1, 371116, Control_c, 0, 64, 59
1, 371131, Control_c, 0, 64, 60
1, 371146, Control_c, 0, 64, 62
1, 371168, Control_c, 0, 64, 63
1, 371183, Control_c, 0, 64, 65
1, 371198, Control_c, 0, 64, 66
1, 371208, Note_off_c, 0, 63, 36
1, 371213, Control_c, 0, 64, 68
1, 371228, Control_c, 0, 64, 70
1, 371237, Note_off_c, 0, 69, 37
1, 371242, Control_c, 0, 64, 72
1, 371257, Control_c, 0, 64, 73
1, 371264, Note_off_c, 0, 60, 36
1, 371264, Note_off_c, 0, 41, 32
1, 371272, Control_c, 0, 64, 74
1, 371287, Control_c, 0, 64, 75
1, 371302, Control_c, 0, 64, 75
1, 371316, Note_on_c, 0, 51, 52
1, 371390, Control_c, 0, 64, 75
1, 371420, Control_c, 0, 64, 74
1, 371434, Control_c, 0, 64, 74
1, 371449, Control_c, 0, 64, 73
1, 371464, Control_c, 0, 64, 71
1, 371479, Control_c, 0, 64, 68
1, 371494, Control_c, 0, 64, 64
1, 371508, Control_c, 0, 64, 61
1, 371523, Control_c, 0, 64, 59
1, 371538, Control_c, 0, 64, 58
1, 371553, Control_c, 0, 64, 57
1, 371562, Note_on_c, 0, 71, 63
1, 371568, Control_c, 0, 64, 58
1, 371571, Note_on_c, 0, 59, 45
1, 371577, Note_on_c, 0, 65, 38
1, 371583, Control_c, 0, 64, 59
1, 371584, Note_on_c, 0, 68, 43
1, 371598, Control_c, 0, 64, 61
1, 371613, Control_c, 0, 64, 63
1, 371627, Control_c, 0, 64, 64
1, 371642, Control_c, 0, 64, 65
1, 371657, Control_c, 0, 64, 66
1, 371672, Control_c, 0, 64, 67
1, 371687, Control_c, 0, 64, 69
1, 371702, Control_c, 0, 64, 70
1, 371717, Note_off_c, 0, 59, 58
1, 371717, Control_c, 0, 64, 71
1, 371730, Note_off_c, 0, 71, 59
1, 371732, Control_c, 0, 64, 72
1, 371762, Control_c, 0, 64, 72
1, 371785, Note_off_c, 0, 68, 29
1, 371791, Control_c, 0, 64, 73
1, 371806, Control_c, 0, 64, 73
1, 371814, Note_on_c, 0, 50, 65
1, 371816, Note_off_c, 0, 51, 40
1, 371824, Note_off_c, 0, 65, 36
1, 371917, Control_c, 0, 64, 73
1, 371932, Control_c, 0, 64, 72
1, 371947, Control_c, 0, 64, 69
1, 371961, Control_c, 0, 64, 66
1, 371976, Control_c, 0, 64, 62
1, 371991, Control_c, 0, 64, 58
1, 372006, Control_c, 0, 64, 56
1, 372021, Control_c, 0, 64, 55
1, 372048, Note_on_c, 0, 70, 72
1, 372051, Control_c, 0, 64, 57
1, 372051, Note_on_c, 0, 58, 57
1, 372056, Note_on_c, 0, 65, 56
1, 372062, Note_on_c, 0, 68, 57
1, 372065, Control_c, 0, 64, 59
1, 372080, Control_c, 0, 64, 61
1, 372095, Control_c, 0, 64, 63
1, 372110, Control_c, 0, 64, 64
1, 372125, Control_c, 0, 64, 65
1, 372138, Note_off_c, 0, 58, 57
1, 372139, Control_c, 0, 64, 66
1, 372154, Control_c, 0, 64, 67
1, 372169, Control_c, 0, 64, 69
1, 372170, Note_off_c, 0, 65, 58
1, 372173, Note_off_c, 0, 68, 50
1, 372183, Control_c, 0, 64, 70
1, 372187, Note_off_c, 0, 70, 62
1, 372198, Control_c, 0, 64, 72
1, 372213, Control_c, 0, 64, 73
1, 372228, Control_c, 0, 64, 74
1, 372271, Control_c, 0, 64, 74
1, 372306, Note_on_c, 0, 47, 70
1, 372330, Note_off_c, 0, 50, 63
1, 372390, Control_c, 0, 64, 74
1, 372405, Control_c, 0, 64, 73
1, 372420, Control_c, 0, 64, 70
1, 372435, Control_c, 0, 64, 66
1, 372449, Control_c, 0, 64, 61
1, 372464, Control_c, 0, 64, 56
1, 372479, Control_c, 0, 64, 52
1, 372495, Control_c, 0, 64, 50
1, 372510, Control_c, 0, 64, 49
1, 372525, Control_c, 0, 64, 50
1, 372531, Note_on_c, 0, 75, 83
1, 372538, Note_on_c, 0, 68, 65
1, 372540, Control_c, 0, 64, 53
1, 372540, Note_on_c, 0, 65, 63
1, 372545, Note_on_c, 0, 63, 56
1, 372554, Control_c, 0, 64, 57
1, 372569, Control_c, 0, 64, 60
1, 372584, Control_c, 0, 64, 62
1, 372598, Control_c, 0, 64, 63
1, 372613, Control_c, 0, 64, 65
1, 372628, Control_c, 0, 64, 66
1, 372641, Note_off_c, 0, 68, 57
1, 372643, Control_c, 0, 64, 68
1, 372659, Note_off_c, 0, 65, 61
1, 372665, Control_c, 0, 64, 69
1, 372680, Control_c, 0, 64, 70
1, 372695, Control_c, 0, 64, 71
1, 372701, Note_off_c, 0, 63, 49
1, 372710, Control_c, 0, 64, 72
1, 372722, Note_off_c, 0, 75, 56
1, 372725, Control_c, 0, 64, 73
1, 372742, Poly_aftertouch_c, 0, 73, 127
1, 372754, Control_c, 0, 64, 74
1, 372769, Poly_aftertouch_c, 0, 73, 0
1, 372801, Note_on_c, 0, 46, 76
1, 372828, Control_c, 0, 64, 73
1, 372835, Note_off_c, 0, 47, 24
1, 372843, Control_c, 0, 64, 73
1, 372858, Control_c, 0, 64, 71
1, 372873, Control_c, 0, 64, 67
1, 372887, Control_c, 0, 64, 63
1, 372902, Control_c, 0, 64, 57
1, 372917, Control_c, 0, 64, 53
1, 372932, Control_c, 0, 64, 50
1, 372947, Control_c, 0, 64, 49
1, 372961, Control_c, 0, 64, 50
1, 372976, Control_c, 0, 64, 52
1, 372991, Control_c, 0, 64, 56
1, 373005, Control_c, 0, 64, 59
1, 373020, Control_c, 0, 64, 61
1, 373035, Control_c, 0, 64, 62
1, 373050, Control_c, 0, 64, 64
1, 373052, Note_off_c, 0, 46, 59
1, 373065, Control_c, 0, 64, 65
1, 373076, Note_on_c, 0, 74, 73
1, 373079, Control_c, 0, 64, 67
1, 373083, Note_on_c, 0, 68, 57
1, 373085, Note_on_c, 0, 62, 52
1, 373086, Note_on_c, 0, 65, 49
1, 373094, Control_c, 0, 64, 69
1, 373109, Control_c, 0, 64, 71
1, 373124, Control_c, 0, 64, 73
1, 373139, Control_c, 0, 64, 75
1, 373154, Control_c, 0, 64, 76
1, 373169, Control_c, 0, 64, 77
1, 373184, Control_c, 0, 64, 78
1, 373242, Note_off_c, 0, 62, 35
1, 373276, Note_off_c, 0, 65, 42
1, 373297, Note_off_c, 0, 74, 62
1, 373328, Note_off_c, 0, 68, 18
1, 373348, Control_c, 0, 64, 78
1, 373473, Control_c, 0, 64, 78
1, 373517, Note_on_c, 0, 46, 74
1, 373532, Control_c, 0, 64, 77
1, 373562, Control_c, 0, 64, 77
1, 373577, Control_c, 0, 64, 76
1, 373607, Control_c, 0, 64, 76
1, 373622, Control_c, 0, 64, 75
1, 373636, Control_c, 0, 64, 75
1, 373651, Control_c, 0, 64, 73
1, 373666, Control_c, 0, 64, 70
1, 373681, Control_c, 0, 64, 66
1, 373696, Control_c, 0, 64, 63
1, 373710, Control_c, 0, 64, 59
1, 373725, Control_c, 0, 64, 55
1, 373740, Control_c, 0, 64, 52
1, 373754, Control_c, 0, 64, 49
1, 373769, Control_c, 0, 64, 47
1, 373799, Control_c, 0, 64, 48
1, 373814, Control_c, 0, 64, 49
1, 373828, Control_c, 0, 64, 52
1, 373843, Control_c, 0, 64, 56
1, 373858, Control_c, 0, 64, 58
1, 373864, Note_on_c, 0, 70, 69
1, 373867, Note_on_c, 0, 79, 82
1, 373869, Note_on_c, 0, 75, 66
1, 373873, Control_c, 0, 64, 60
1, 373875, Note_on_c, 0, 67, 58
1, 373888, Control_c, 0, 64, 62
1, 373902, Control_c, 0, 64, 64
1, 373917, Control_c, 0, 64, 65
1, 373932, Control_c, 0, 64, 67
1, 373947, Control_c, 0, 64, 70
1, 373962, Control_c, 0, 64, 73
1, 373977, Control_c, 0, 64, 77
1, 373991, Control_c, 0, 64, 81
1, 374006, Control_c, 0, 64, 85
1, 374012, Note_off_c, 0, 67, 32
1, 374021, Control_c, 0, 64, 89
1, 374030, Note_off_c, 0, 70, 64
1, 374036, Control_c, 0, 64, 92
1, 374051, Control_c, 0, 64, 94
1, 374083, Note_off_c, 0, 46, 33
1, 374087, Note_off_c, 0, 79, 59
1, 374111, Control_c, 0, 64, 94
1, 374114, Note_off_c, 0, 75, 60
1, 374214, Note_on_c, 0, 58, 72
1, 374237, Control_c, 0, 64, 94
1, 374266, Control_c, 0, 64, 93
1, 374281, Control_c, 0, 64, 93
1, 374296, Control_c, 0, 64, 92
1, 374311, Control_c, 0, 64, 91
1, 374325, Control_c, 0, 64, 90
1, 374340, Control_c, 0, 64, 87
1, 374355, Control_c, 0, 64, 83
1, 374370, Control_c, 0, 64, 77
1, 374385, Control_c, 0, 64, 70
1, 374400, Control_c, 0, 64, 64
1, 374415, Control_c, 0, 64, 60
1, 374430, Control_c, 0, 64, 59
1, 374444, Control_c, 0, 64, 58
1, 374459, Control_c, 0, 64, 59
1, 374464, Note_on_c, 0, 79, 77
1, 374470, Note_on_c, 0, 72, 62
1, 374472, Note_on_c, 0, 75, 64
1, 374473, Note_on_c, 0, 69, 63
1, 374474, Control_c, 0, 64, 60
1, 374489, Control_c, 0, 64, 62
1, 374504, Control_c, 0, 64, 63
1, 374519, Control_c, 0, 64, 65
1, 374534, Control_c, 0, 64, 67
1, 374549, Control_c, 0, 64, 69
1, 374564, Control_c, 0, 64, 71
1, 374578, Control_c, 0, 64, 74
1, 374593, Control_c, 0, 64, 76
1, 374605, Note_off_c, 0, 69, 61
1, 374608, Control_c, 0, 64, 78
1, 374623, Control_c, 0, 64, 79
1, 374632, Note_off_c, 0, 75, 50
1, 374638, Control_c, 0, 64, 80
1, 374652, Control_c, 0, 64, 81
1, 374656, Note_off_c, 0, 79, 58
1, 374725, Note_on_c, 0, 46, 59
1, 374728, Note_off_c, 0, 58, 37
1, 374764, Note_off_c, 0, 72, 51
1, 374815, Control_c, 0, 64, 80
1, 374830, Control_c, 0, 64, 79
1, 374844, Control_c, 0, 64, 77
1, 374859, Control_c, 0, 64, 73
1, 374874, Control_c, 0, 64, 66
1, 374898, Control_c, 0, 64, 62
1, 374913, Control_c, 0, 64, 59
1, 374927, Control_c, 0, 64, 57
1, 374942, Control_c, 0, 64, 55
1, 374957, Control_c, 0, 64, 55
1, 374987, Control_c, 0, 64, 56
1, 375001, Control_c, 0, 64, 57
1, 375016, Control_c, 0, 64, 59
1, 375020, Note_on_c, 0, 77, 62
1, 375024, Note_on_c, 0, 68, 47
1, 375029, Note_on_c, 0, 74, 47
1, 375031, Control_c, 0, 64, 61
1, 375046, Control_c, 0, 64, 63
1, 375061, Control_c, 0, 64, 64
1, 375075, Control_c, 0, 64, 66
1, 375090, Control_c, 0, 64, 68
1, 375094, Note_off_c, 0, 46, 31
1, 375105, Control_c, 0, 64, 71
1, 375112, Note_off_c, 0, 74, 59
1, 375120, Control_c, 0, 64, 74
1, 375135, Control_c, 0, 64, 77
1, 375149, Control_c, 0, 64, 80
1, 375164, Control_c, 0, 64, 82
1, 375179, Control_c, 0, 64, 84
1, 375193, Control_c, 0, 64, 84
1, 375226, Note_off_c, 0, 77, 43
1, 375238, Note_off_c, 0, 68, 27
1, 375267, Control_c, 0, 64, 84
1, 375285, Note_on_c, 0, 58, 49
1, 375297, Control_c, 0, 64, 83
1, 375312, Control_c, 0, 64, 83
1, 375327, Control_c, 0, 64, 82
1, 375342, Control_c, 0, 64, 79
1, 375357, Control_c, 0, 64, 75
1, 375372, Control_c, 0, 64, 69
1, 375386, Control_c, 0, 64, 64
1, 375401, Control_c, 0, 64, 59
1, 375416, Control_c, 0, 64, 57
1, 375431, Control_c, 0, 64, 56
1, 375446, Control_c, 0, 64, 55
1, 375475, Control_c, 0, 64, 56
1, 375490, Control_c, 0, 64, 57
1, 375505, Control_c, 0, 64, 59
1, 375520, Control_c, 0, 64, 61
1, 375535, Control_c, 0, 64, 62
1, 375537, Note_on_c, 0, 75, 44
1, 375549, Control_c, 0, 64, 64
1, 375552, Note_on_c, 0, 70, 35
1, 375559, Note_on_c, 0, 67, 34
1, 375564, Control_c, 0, 64, 65
1, 375579, Control_c, 0, 64, 67
1, 375593, Control_c, 0, 64, 69
1, 375608, Control_c, 0, 64, 71
1, 375623, Control_c, 0, 64, 74
1, 375638, Control_c, 0, 64, 76
1, 375661, Control_c, 0, 64, 78
1, 375665, Note_off_c, 0, 75, 56
1, 375675, Control_c, 0, 64, 79
1, 375676, Note_off_c, 0, 70, 38
1, 375690, Control_c, 0, 64, 79
1, 375720, Note_off_c, 0, 67, 32
1, 375720, Control_c, 0, 64, 80
1, 375807, Note_on_c, 0, 46, 32
1, 375810, Control_c, 0, 64, 79
1, 375832, Note_off_c, 0, 58, 29
1, 375854, Control_c, 0, 64, 79
1, 375869, Control_c, 0, 64, 78
1, 375884, Control_c, 0, 64, 78
1, 375898, Control_c, 0, 64, 76
1, 375913, Control_c, 0, 64, 72
1, 375928, Control_c, 0, 64, 67
1, 375943, Control_c, 0, 64, 63
1, 375958, Control_c, 0, 64, 60
1, 375972, Control_c, 0, 64, 59
1, 375987, Control_c, 0, 64, 58
1, 376017, Control_c, 0, 64, 59
1, 376031, Control_c, 0, 64, 60
1, 376046, Control_c, 0, 64, 62
1, 376061, Control_c, 0, 64, 63
1, 376076, Control_c, 0, 64, 64
1, 376082, Note_on_c, 0, 68, 35
1, 376087, Note_on_c, 0, 74, 32
1, 376090, Note_on_c, 0, 65, 32
1, 376090, Control_c, 0, 64, 66
1, 376105, Control_c, 0, 64, 68
1, 376120, Control_c, 0, 64, 70
1, 376135, Control_c, 0, 64, 72
1, 376150, Control_c, 0, 64, 74
1, 376165, Control_c, 0, 64, 76
1, 376179, Control_c, 0, 64, 77
1, 376194, Control_c, 0, 64, 77
1, 376209, Control_c, 0, 64, 78
1, 376214, Note_off_c, 0, 74, 36
1, 376219, Note_off_c, 0, 68, 34
1, 376224, Control_c, 0, 64, 78
1, 376242, Note_off_c, 0, 65, 33
1, 376322, Note_off_c, 0, 46, 30
1, 376343, Control_c, 0, 64, 78
1, 376362, Note_on_c, 0, 58, 45
1, 376409, Control_c, 0, 64, 77
1, 376439, Control_c, 0, 64, 77
1, 376454, Control_c, 0, 64, 75
1, 376469, Control_c, 0, 64, 74
1, 376483, Control_c, 0, 64, 70
1, 376499, Control_c, 0, 64, 66
1, 376514, Control_c, 0, 64, 63
1, 376528, Control_c, 0, 64, 60
1, 376543, Control_c, 0, 64, 59
1, 376558, Control_c, 0, 64, 58
1, 376588, Control_c, 0, 64, 59
1, 376603, Control_c, 0, 64, 60
1, 376618, Control_c, 0, 64, 61
1, 376633, Control_c, 0, 64, 63
1, 376647, Control_c, 0, 64, 64
1, 376662, Control_c, 0, 64, 65
1, 376677, Control_c, 0, 64, 67
1, 376687, Note_on_c, 0, 67, 19
1, 376688, Note_on_c, 0, 73, 31
1, 376689, Note_on_c, 0, 76, 40
1, 376692, Control_c, 0, 64, 69
1, 376695, Note_on_c, 0, 64, 29
1, 376707, Control_c, 0, 64, 70
1, 376721, Control_c, 0, 64, 72
1, 376736, Control_c, 0, 64, 74
1, 376751, Control_c, 0, 64, 75
1, 376764, Control_c, 0, 64, 76
1, 376779, Control_c, 0, 64, 77
1, 376808, Control_c, 0, 64, 77
1, 376814, Note_off_c, 0, 76, 51
1, 376863, Note_off_c, 0, 67, 37
1, 376865, Note_off_c, 0, 73, 41
1, 376869, Note_off_c, 0, 64, 40
1, 376945, Note_off_c, 0, 58, 31
1, 376971, Note_on_c, 0, 57, 38
1, 376971, Control_c, 0, 64, 77
1, 377001, Control_c, 0, 64, 76
1, 377016, Control_c, 0, 64, 75
1, 377031, Control_c, 0, 64, 73
1, 377045, Control_c, 0, 64, 69
1, 377060, Control_c, 0, 64, 65
1, 377075, Control_c, 0, 64, 61
1, 377090, Control_c, 0, 64, 59
1, 377105, Control_c, 0, 64, 58
1, 377119, Control_c, 0, 64, 58
1, 377157, Control_c, 0, 64, 58
1, 377171, Control_c, 0, 64, 59
1, 377186, Control_c, 0, 64, 60
1, 377201, Control_c, 0, 64, 62
1, 377216, Control_c, 0, 64, 63
1, 377231, Control_c, 0, 64, 64
1, 377245, Control_c, 0, 64, 65
1, 377260, Control_c, 0, 64, 66
1, 377275, Control_c, 0, 64, 67
1, 377291, Control_c, 0, 64, 69
1, 377306, Control_c, 0, 64, 71
1, 377307, Note_on_c, 0, 73, 38
1, 377312, Note_on_c, 0, 67, 27
1, 377316, Note_on_c, 0, 69, 34
1, 377321, Control_c, 0, 64, 72
1, 377323, Note_on_c, 0, 64, 31
1, 377336, Control_c, 0, 64, 74
1, 377350, Control_c, 0, 64, 75
1, 377365, Control_c, 0, 64, 76
1, 377380, Control_c, 0, 64, 77
1, 377395, Control_c, 0, 64, 77
1, 377410, Control_c, 0, 64, 78
1, 377414, Note_off_c, 0, 57, 19
1, 377485, Note_off_c, 0, 64, 32
1, 377492, Note_off_c, 0, 67, 38
1, 377507, Note_off_c, 0, 69, 22
1, 377541, Note_off_c, 0, 73, 34
1, 377616, Control_c, 0, 64, 77
1, 377691, Control_c, 0, 64, 77
1, 377721, Control_c, 0, 64, 76
1, 377727, Note_on_c, 0, 50, 31
1, 377750, Control_c, 0, 64, 76
1, 377765, Control_c, 0, 64, 75
1, 377780, Control_c, 0, 64, 75
1, 377794, Control_c, 0, 64, 73
1, 377809, Control_c, 0, 64, 71
1, 377824, Control_c, 0, 64, 67
1, 377839, Control_c, 0, 64, 64
1, 377854, Control_c, 0, 64, 60
1, 377868, Control_c, 0, 64, 58
1, 377883, Control_c, 0, 64, 56
1, 377905, Control_c, 0, 64, 54
1, 377920, Control_c, 0, 64, 53
1, 377935, Control_c, 0, 64, 52
1, 377965, Control_c, 0, 64, 53
1, 377980, Control_c, 0, 64, 55
1, 377994, Control_c, 0, 64, 57
1, 378009, Control_c, 0, 64, 59
1, 378024, Control_c, 0, 64, 61
1, 378039, Control_c, 0, 64, 63
1, 378054, Control_c, 0, 64, 65
1, 378068, Control_c, 0, 64, 67
1, 378083, Control_c, 0, 64, 70
1, 378099, Control_c, 0, 64, 74
1, 378114, Control_c, 0, 64, 77
1, 378129, Control_c, 0, 64, 81
1, 378144, Control_c, 0, 64, 84
1, 378159, Control_c, 0, 64, 88
1, 378173, Control_c, 0, 64, 91
1, 378180, Note_on_c, 0, 74, 37
1, 378181, Note_on_c, 0, 69, 35
1, 378184, Note_on_c, 0, 65, 35
1, 378188, Control_c, 0, 64, 95
1, 378189, Note_off_c, 0, 50, 40
1, 378203, Control_c, 0, 64, 98
1, 378217, Control_c, 0, 64, 99
1, 378322, Note_off_c, 0, 74, 47
1, 378329, Note_off_c, 0, 69, 30
1, 378367, Note_off_c, 0, 65, 42
1, 378440, Control_c, 0, 64, 98
1, 378499, Control_c, 0, 64, 98
1, 378559, Control_c, 0, 64, 97
1, 378573, Control_c, 0, 64, 97
1, 378588, Control_c, 0, 64, 96
1, 378603, Control_c, 0, 64, 96
1, 378618, Control_c, 0, 64, 95
1, 378633, Control_c, 0, 64, 95
1, 378655, Control_c, 0, 64, 94
1, 378685, Control_c, 0, 64, 94
1, 378699, Control_c, 0, 64, 93
1, 378729, Control_c, 0, 64, 93
1, 378744, Control_c, 0, 64, 92
1, 378759, Control_c, 0, 64, 92
1, 378773, Control_c, 0, 64, 91
1, 378788, Control_c, 0, 64, 91
1, 378803, Control_c, 0, 64, 90
1, 378818, Control_c, 0, 64, 89
1, 378832, Control_c, 0, 64, 89
1, 378847, Control_c, 0, 64, 88
1, 378862, Control_c, 0, 64, 87
1, 378877, Control_c, 0, 64, 85
1, 378883, Note_on_c, 0, 50, 47
1, 378885, Note_on_c, 0, 38, 39
1, 378893, Control_c, 0, 64, 84
1, 378908, Control_c, 0, 64, 83
1, 378922, Control_c, 0, 64, 81
1, 378924, Note_off_c, 0, 38, 50
1, 378925, Note_off_c, 0, 50, 64
1, 378937, Control_c, 0, 64, 79
1, 378952, Control_c, 0, 64, 78
1, 378964, Note_on_c, 0, 53, 49
1, 378967, Control_c, 0, 64, 76
1, 378982, Control_c, 0, 64, 75
1, 378996, Control_c, 0, 64, 73
1, 379006, Note_off_c, 0, 53, 63
1, 379011, Control_c, 0, 64, 70
1, 379026, Control_c, 0, 64, 67
1, 379030, Note_on_c, 0, 65, 49
1, 379035, Note_on_c, 0, 57, 21
1, 379040, Control_c, 0, 64, 64
1, 379055, Control_c, 0, 64, 61
1, 379065, Note_off_c, 0, 65, 61
1, 379070, Control_c, 0, 64, 57
1, 379073, Note_off_c, 0, 57, 40
1, 379085, Control_c, 0, 64, 52
1, 379100, Control_c, 0, 64, 46
1, 379105, Note_on_c, 0, 53, 66
1, 379114, Control_c, 0, 64, 32
1, 379129, Control_c, 0, 64, 0
1, 379133, Note_off_c, 0, 53, 66
1, 379163, Note_on_c, 0, 57, 50
1, 379237, Note_off_c, 0, 57, 63
1, 379250, Note_on_c, 0, 65, 32
1, 379251, Note_on_c, 0, 62, 34
1, 379252, Note_on_c, 0, 69, 54
1, 379274, Note_off_c, 0, 69, 61
1, 379277, Control_c, 0, 64, 16
1, 379284, Note_off_c, 0, 65, 54
1, 379291, Note_off_c, 0, 62, 60
1, 379292, Control_c, 0, 64, 41
1, 379307, Control_c, 0, 64, 54
1, 379321, Control_c, 0, 64, 59
1, 379327, Note_on_c, 0, 52, 52
1, 379333, Note_on_c, 0, 40, 37
1, 379336, Control_c, 0, 64, 62
1, 379351, Control_c, 0, 64, 65
1, 379362, Note_off_c, 0, 52, 66
1, 379366, Control_c, 0, 64, 68
1, 379370, Note_off_c, 0, 40, 52
1, 379381, Note_on_c, 0, 56, 39
1, 379381, Control_c, 0, 64, 70
1, 379403, Control_c, 0, 64, 72
1, 379418, Control_c, 0, 64, 73
1, 379433, Control_c, 0, 64, 72
1, 379447, Control_c, 0, 64, 72
1, 379452, Note_off_c, 0, 56, 63
1, 379462, Control_c, 0, 64, 70
1, 379472, Note_on_c, 0, 68, 52
1, 379477, Control_c, 0, 64, 69
1, 379482, Note_on_c, 0, 62, 11
1, 379492, Control_c, 0, 64, 67
1, 379507, Control_c, 0, 64, 64
1, 379509, Note_off_c, 0, 68, 64
1, 379511, Note_off_c, 0, 62, 49
1, 379521, Control_c, 0, 64, 60
1, 379536, Control_c, 0, 64, 51
1, 379541, Note_on_c, 0, 56, 65
1, 379551, Control_c, 0, 64, 28
1, 379566, Control_c, 0, 64, 0
1, 379568, Note_off_c, 0, 56, 67
1, 379609, Note_on_c, 0, 59, 56
1, 379652, Note_off_c, 0, 59, 64
1, 379662, Note_on_c, 0, 62, 50
1, 379663, Note_on_c, 0, 64, 54
1, 379673, Note_on_c, 0, 71, 57
1, 379694, Note_off_c, 0, 71, 62
1, 379701, Note_off_c, 0, 64, 64
1, 379702, Note_off_c, 0, 62, 64
1, 379715, Control_c, 0, 64, 40
1, 379730, Control_c, 0, 64, 52
1, 379745, Control_c, 0, 64, 59
1, 379745, Note_on_c, 0, 55, 57
1, 379747, Note_on_c, 0, 43, 47
1, 379759, Control_c, 0, 64, 63
1, 379774, Control_c, 0, 64, 66
1, 379775, Note_off_c, 0, 43, 56
1, 379788, Note_off_c, 0, 55, 62
1, 379789, Control_c, 0, 64, 69
1, 379804, Control_c, 0, 64, 75
1, 379807, Note_on_c, 0, 58, 54
1, 379819, Control_c, 0, 64, 81
1, 379834, Control_c, 0, 64, 84
1, 379849, Control_c, 0, 64, 85
1, 379859, Note_off_c, 0, 58, 63
1, 379869, Note_on_c, 0, 70, 59
1, 379876, Note_on_c, 0, 62, 40
1, 379893, Control_c, 0, 64, 85
1, 379902, Note_off_c, 0, 70, 65
1, 379907, Note_off_c, 0, 62, 50
1, 379908, Control_c, 0, 64, 84
1, 379923, Control_c, 0, 64, 82
1, 379934, Note_on_c, 0, 58, 70
1, 379937, Control_c, 0, 64, 78
1, 379952, Control_c, 0, 64, 71
1, 379961, Note_off_c, 0, 58, 67
1, 379967, Control_c, 0, 64, 62
1, 379982, Control_c, 0, 64, 41
1, 379997, Control_c, 0, 64, 0
1, 380004, Note_on_c, 0, 62, 60
1, 380067, Note_on_c, 0, 67, 51
1, 380072, Note_off_c, 0, 62, 63
1, 380075, Note_on_c, 0, 70, 51
1, 380080, Note_on_c, 0, 74, 53
1, 380099, Note_off_c, 0, 67, 65
1, 380110, Note_off_c, 0, 70, 65
1, 380110, Note_off_c, 0, 74, 63
1, 380130, Control_c, 0, 64, 31
1, 380152, Control_c, 0, 64, 46
1, 380157, Note_on_c, 0, 45, 47
1, 380162, Note_on_c, 0, 57, 56
1, 380167, Control_c, 0, 64, 57
1, 380182, Control_c, 0, 64, 61
1, 380186, Note_off_c, 0, 45, 57
1, 380197, Control_c, 0, 64, 64
1, 380200, Note_off_c, 0, 57, 65
1, 380212, Control_c, 0, 64, 66
1, 380226, Note_on_c, 0, 61, 56
1, 380226, Control_c, 0, 64, 69
1, 380241, Control_c, 0, 64, 74
1, 380256, Control_c, 0, 64, 78
1, 380270, Control_c, 0, 64, 81
1, 380276, Note_off_c, 0, 61, 58
1, 380284, Note_on_c, 0, 64, 46
1, 380293, Note_on_c, 0, 73, 59
1, 380314, Note_off_c, 0, 64, 62
1, 380330, Control_c, 0, 64, 80
1, 380331, Note_off_c, 0, 73, 62
1, 380344, Control_c, 0, 64, 80
1, 380359, Control_c, 0, 64, 79
1, 380371, Note_on_c, 0, 61, 62
1, 380374, Control_c, 0, 64, 77
1, 380388, Control_c, 0, 64, 76
1, 380403, Note_off_c, 0, 61, 66
1, 380403, Control_c, 0, 64, 74
1, 380418, Control_c, 0, 64, 72
1, 380424, Note_on_c, 0, 64, 59
1, 380433, Control_c, 0, 64, 70
1, 380448, Control_c, 0, 64, 68
1, 380463, Control_c, 0, 64, 67
1, 380478, Control_c, 0, 64, 65
1, 380481, Note_off_c, 0, 64, 64
1, 380493, Control_c, 0, 64, 63
1, 380494, Note_on_c, 0, 67, 51
1, 380502, Note_on_c, 0, 70, 57
1, 380505, Note_on_c, 0, 76, 67
1, 380508, Control_c, 0, 64, 61
1, 380523, Control_c, 0, 64, 59
1, 380527, Note_off_c, 0, 67, 65
1, 380534, Note_off_c, 0, 70, 66
1, 380536, Note_off_c, 0, 76, 67
1, 380538, Control_c, 0, 64, 58
1, 380553, Control_c, 0, 64, 56
1, 380564, Note_on_c, 0, 64, 74
1, 380567, Control_c, 0, 64, 54
1, 380582, Control_c, 0, 64, 53
1, 380591, Note_off_c, 0, 64, 67
1, 380597, Control_c, 0, 64, 52
1, 380612, Control_c, 0, 64, 51
1, 380624, Note_on_c, 0, 67, 64
1, 380627, Control_c, 0, 64, 51
1, 380642, Control_c, 0, 64, 50
1, 380657, Control_c, 0, 64, 50
1, 380690, Note_off_c, 0, 67, 63
1, 380695, Note_on_c, 0, 73, 66
1, 380696, Note_on_c, 0, 70, 63
1, 380704, Note_on_c, 0, 79, 68
1, 380716, Control_c, 0, 64, 49
1, 380722, Note_off_c, 0, 70, 68
1, 380722, Note_off_c, 0, 73, 68
1, 380729, Note_off_c, 0, 79, 68
1, 380746, Control_c, 0, 64, 48
1, 380761, Note_on_c, 0, 67, 77
1, 380775, Control_c, 0, 64, 48
1, 380788, Note_off_c, 0, 67, 66
1, 380804, Control_c, 0, 64, 47
1, 380819, Note_on_c, 0, 70, 63
1, 380892, Note_off_c, 0, 70, 63
1, 380902, Note_on_c, 0, 73, 59
1, 380907, Note_on_c, 0, 82, 58
1, 380939, Note_off_c, 0, 73, 64
1, 380955, Poly_aftertouch_c, 0, 76, 0
1, 380963, Note_off_c, 0, 82, 55
1, 380979, Note_on_c, 0, 66, 57
1, 381016, Note_off_c, 0, 66, 63
1, 381042, Note_on_c, 0, 69, 52
1, 381084, Note_off_c, 0, 69, 59
1, 381127, Note_on_c, 0, 74, 52
1, 381152, Note_on_c, 0, 78, 35
1, 381154, Note_on_c, 0, 81, 28
1, 381160, Note_on_c, 0, 83, 44
1, 381161, Note_off_c, 0, 74, 66
1, 381173, Note_on_c, 0, 65, 52
1, 381178, Note_off_c, 0, 78, 54
1, 381181, Note_off_c, 0, 81, 57
1, 381184, Note_off_c, 0, 83, 56
1, 381184, Note_on_c, 0, 69, 48
1, 381212, Note_off_c, 0, 65, 64
1, 381215, Note_off_c, 0, 69, 61
1, 381257, Note_on_c, 0, 74, 57
1, 381308, Note_off_c, 0, 74, 58
1, 381322, Note_on_c, 0, 78, 62
1, 381341, Note_on_c, 0, 81, 44
1, 381366, Note_on_c, 0, 73, 62
1, 381372, Note_on_c, 0, 86, 34
1, 381381, Note_on_c, 0, 64, 41
1, 381381, Note_off_c, 0, 78, 58
1, 381390, Note_off_c, 0, 81, 66
1, 381390, Control_c, 0, 64, 48
1, 381391, Note_on_c, 0, 67, 33
1, 381399, Note_off_c, 0, 73, 66
1, 381400, Note_off_c, 0, 86, 51
1, 381404, Note_on_c, 0, 69, 31
1, 381408, Note_off_c, 0, 64, 56
1, 381420, Control_c, 0, 64, 48
1, 381421, Note_off_c, 0, 67, 47
1, 381432, Note_off_c, 0, 69, 45
1, 381450, Control_c, 0, 64, 49
1, 381475, Note_on_c, 0, 76, 57
1, 381479, Control_c, 0, 64, 49
1, 381529, Note_off_c, 0, 76, 62
1, 381538, Note_on_c, 0, 85, 66
1, 381558, Note_on_c, 0, 74, 60
1, 381569, Note_on_c, 0, 69, 36
1, 381576, Note_off_c, 0, 74, 64
1, 381578, Note_off_c, 0, 85, 63
1, 381588, Note_on_c, 0, 62, 19
1, 381595, Note_off_c, 0, 69, 51
1, 381598, Control_c, 0, 64, 46
1, 381613, Control_c, 0, 64, 36
1, 381614, Note_off_c, 0, 62, 46
1, 381628, Control_c, 0, 64, 0
1, 381646, Note_on_c, 0, 77, 57
1, 381685, Note_off_c, 0, 77, 63
1, 381728, Note_on_c, 0, 88, 87
1, 381739, Control_c, 0, 64, 29
1, 381751, Note_on_c, 0, 69, 59
1, 381754, Control_c, 0, 64, 63
1, 381754, Note_on_c, 0, 64, 60
1, 381760, Note_on_c, 0, 61, 46
1, 381769, Control_c, 0, 64, 79
1, 381771, Note_off_c, 0, 69, 63
1, 381783, Control_c, 0, 64, 127
1, 381784, Note_off_c, 0, 61, 56
1, 381785, Note_off_c, 0, 64, 65
1, 381810, Note_on_c, 0, 85, 79
1, 381830, Note_off_c, 0, 88, 64
1, 381871, Note_on_c, 0, 81, 66
1, 381899, Note_off_c, 0, 85, 63
1, 381901, Note_off_c, 0, 81, 67
1, 381952, Note_on_c, 0, 76, 63
1, 381983, Note_off_c, 0, 76, 66
1, 382031, Note_on_c, 0, 73, 65
1, 382091, Note_on_c, 0, 69, 62
1, 382091, Note_off_c, 0, 73, 64
1, 382112, Note_off_c, 0, 69, 64
1, 382170, Control_c, 0, 64, 100
1, 382179, Note_on_c, 0, 38, 55
1, 382179, Note_on_c, 0, 50, 62
1, 382185, Control_c, 0, 64, 83
1, 382200, Control_c, 0, 64, 71
1, 382208, Note_off_c, 0, 38, 57
1, 382210, Note_off_c, 0, 50, 65
1, 382214, Control_c, 0, 64, 63
1, 382229, Control_c, 0, 64, 53
1, 382244, Control_c, 0, 64, 49
1, 382249, Note_on_c, 0, 53, 59
1, 382258, Control_c, 0, 64, 46
1, 382273, Control_c, 0, 64, 39
1, 382288, Control_c, 0, 64, 28
1, 382290, Note_off_c, 0, 53, 65
1, 382303, Control_c, 0, 64, 0
1, 382305, Note_on_c, 0, 57, 43
1, 382315, Note_on_c, 0, 65, 51
1, 382322, Note_on_c, 0, 62, 34
1, 382333, Note_off_c, 0, 57, 54
1, 382341, Note_off_c, 0, 65, 61
1, 382350, Note_off_c, 0, 62, 48
1, 382380, Note_on_c, 0, 53, 61
1, 382410, Note_off_c, 0, 53, 62
1, 382435, Note_on_c, 0, 57, 55
1, 382499, Note_on_c, 0, 65, 32
1, 382502, Note_off_c, 0, 57, 64
1, 382511, Note_on_c, 0, 62, 34
1, 382519, Note_on_c, 0, 69, 55
1, 382547, Note_off_c, 0, 65, 62
1, 382549, Note_off_c, 0, 62, 62
1, 382561, Note_off_c, 0, 69, 61
1, 382562, Control_c, 0, 64, 26
1, 382577, Control_c, 0, 64, 49
1, 382585, Note_on_c, 0, 56, 62
1, 382592, Control_c, 0, 64, 60
1, 382602, Note_on_c, 0, 44, 40
1, 382606, Control_c, 0, 64, 64
1, 382617, Note_off_c, 0, 56, 66
1, 382621, Control_c, 0, 64, 67
1, 382635, Note_off_c, 0, 44, 47
1, 382636, Control_c, 0, 64, 71
1, 382651, Control_c, 0, 64, 78
1, 382662, Note_on_c, 0, 59, 56
1, 382666, Control_c, 0, 64, 85
1, 382681, Control_c, 0, 64, 89
1, 382696, Control_c, 0, 64, 89
1, 382714, Note_off_c, 0, 59, 59
1, 382722, Note_on_c, 0, 62, 42
1, 382725, Note_on_c, 0, 65, 55
1, 382725, Control_c, 0, 64, 89
1, 382739, Note_on_c, 0, 71, 61
1, 382740, Control_c, 0, 64, 88
1, 382754, Control_c, 0, 64, 86
1, 382759, Note_off_c, 0, 62, 64
1, 382760, Note_off_c, 0, 65, 65
1, 382769, Control_c, 0, 64, 83
1, 382774, Note_off_c, 0, 71, 63
1, 382783, Control_c, 0, 64, 77
1, 382798, Control_c, 0, 64, 68
1, 382800, Note_on_c, 0, 59, 72
1, 382813, Control_c, 0, 64, 59
1, 382827, Note_off_c, 0, 59, 67
1, 382828, Control_c, 0, 64, 33
1, 382843, Control_c, 0, 64, 0
1, 382857, Note_on_c, 0, 62, 62
1, 382916, Note_off_c, 0, 62, 62
1, 382925, Note_on_c, 0, 74, 63
1, 382928, Note_on_c, 0, 65, 42
1, 382931, Note_on_c, 0, 68, 40
1, 382955, Note_off_c, 0, 65, 59
1, 382955, Note_off_c, 0, 74, 65
1, 382957, Note_off_c, 0, 68, 56
1, 382992, Control_c, 0, 64, 47
1, 382997, Note_on_c, 0, 60, 59
1, 383001, Note_on_c, 0, 48, 44
1, 383007, Control_c, 0, 64, 59
1, 383022, Control_c, 0, 64, 64
1, 383029, Note_off_c, 0, 48, 59
1, 383036, Control_c, 0, 64, 68
1, 383044, Note_off_c, 0, 60, 62
1, 383051, Control_c, 0, 64, 73
1, 383062, Note_on_c, 0, 63, 55
1, 383066, Control_c, 0, 64, 83
1, 383080, Control_c, 0, 64, 94
1, 383095, Control_c, 0, 64, 110
1, 383110, Control_c, 0, 64, 127
1, 383125, Note_on_c, 0, 75, 61
1, 383137, Note_on_c, 0, 67, 48
1, 383138, Note_off_c, 0, 63, 60
1, 383163, Note_off_c, 0, 67, 62
1, 383185, Note_off_c, 0, 75, 55
1, 383207, Note_on_c, 0, 63, 63
1, 383222, Control_c, 0, 64, 109
1, 383235, Note_off_c, 0, 63, 66
1, 383236, Control_c, 0, 64, 91
1, 383251, Control_c, 0, 64, 72
1, 383266, Control_c, 0, 64, 58
1, 383271, Note_on_c, 0, 67, 58
1, 383281, Control_c, 0, 64, 12
1, 383295, Control_c, 0, 64, 0
1, 383331, Note_on_c, 0, 72, 60
1, 383338, Note_on_c, 0, 75, 59
1, 383342, Note_off_c, 0, 67, 64
1, 383345, Note_on_c, 0, 79, 70
1, 383368, Note_off_c, 0, 72, 67
1, 383372, Note_off_c, 0, 75, 65
1, 383385, Note_off_c, 0, 79, 59
1, 383405, Note_on_c, 0, 66, 82
1, 383413, Note_on_c, 0, 54, 69
1, 383443, Note_off_c, 0, 54, 66
1, 383444, Control_c, 0, 64, 59
1, 383450, Note_off_c, 0, 66, 59
1, 383459, Control_c, 0, 64, 65
1, 383472, Note_on_c, 0, 69, 73
1, 383474, Control_c, 0, 64, 71
1, 383488, Control_c, 0, 64, 80
1, 383503, Control_c, 0, 64, 94
1, 383515, Note_off_c, 0, 69, 67
1, 383518, Control_c, 0, 64, 114
1, 383525, Note_on_c, 0, 72, 71
1, 383533, Control_c, 0, 64, 127
1, 383534, Note_on_c, 0, 75, 68
1, 383540, Note_on_c, 0, 81, 78
1, 383554, Note_off_c, 0, 72, 67
1, 383563, Note_off_c, 0, 75, 66
1, 383578, Note_off_c, 0, 81, 63
1, 383610, Note_on_c, 0, 69, 92
1, 383635, Note_off_c, 0, 69, 68
1, 383651, Control_c, 0, 64, 108
1, 383661, Note_on_c, 0, 72, 83
1, 383666, Control_c, 0, 64, 89
1, 383682, Control_c, 0, 64, 71
1, 383697, Control_c, 0, 64, 54
1, 383711, Control_c, 0, 64, 0
1, 383725, Note_on_c, 0, 75, 74
1, 383732, Note_on_c, 0, 84, 85
1, 383736, Note_on_c, 0, 81, 66
1, 383736, Note_off_c, 0, 72, 64
1, 383757, Note_off_c, 0, 75, 63
1, 383775, Note_off_c, 0, 81, 66
1, 383798, Note_off_c, 0, 84, 63
1, 383808, Note_on_c, 0, 70, 86
1, 383819, Note_on_c, 0, 58, 66
1, 383830, Control_c, 0, 64, 27
1, 383845, Control_c, 0, 64, 58
1, 383848, Note_off_c, 0, 70, 63
1, 383849, Note_off_c, 0, 58, 66
1, 383859, Control_c, 0, 64, 62
1, 383864, Note_on_c, 0, 74, 64
1, 383874, Control_c, 0, 64, 65
1, 383897, Control_c, 0, 64, 70
1, 383911, Control_c, 0, 64, 77
1, 383926, Control_c, 0, 64, 83
1, 383940, Note_on_c, 0, 79, 67
1, 383941, Control_c, 0, 64, 87
1, 383945, Note_off_c, 0, 74, 62
1, 383952, Note_on_c, 0, 82, 56
1, 383956, Control_c, 0, 64, 90
1, 383960, Note_on_c, 0, 86, 52
1, 383971, Control_c, 0, 64, 93
1, 383977, Note_off_c, 0, 79, 64
1, 383982, Note_off_c, 0, 86, 58
1, 383985, Control_c, 0, 64, 95
1, 383986, Note_off_c, 0, 82, 66
1, 384000, Control_c, 0, 64, 97
1, 384015, Control_c, 0, 64, 97
1, 384031, Note_on_c, 0, 67, 62
1, 384061, Note_off_c, 0, 67, 67
1, 384089, Control_c, 0, 64, 96
1, 384097, Note_on_c, 0, 70, 55
1, 384104, Control_c, 0, 64, 96
1, 384118, Control_c, 0, 64, 95
1, 384133, Control_c, 0, 64, 94
1, 384141, Note_off_c, 0, 70, 62
1, 384148, Control_c, 0, 64, 93
1, 384153, Note_on_c, 0, 74, 54
1, 384156, Note_on_c, 0, 82, 61
1, 384163, Control_c, 0, 64, 92
1, 384178, Control_c, 0, 64, 90
1, 384188, Note_off_c, 0, 74, 64
1, 384192, Control_c, 0, 64, 88
1, 384205, Note_off_c, 0, 82, 57
1, 384207, Control_c, 0, 64, 85
1, 384222, Control_c, 0, 64, 83
1, 384228, Note_on_c, 0, 62, 50
1, 384237, Control_c, 0, 64, 81
1, 384252, Note_off_c, 0, 62, 58
1, 384252, Control_c, 0, 64, 78
1, 384267, Control_c, 0, 64, 76
1, 384282, Control_c, 0, 64, 72
1, 384289, Note_on_c, 0, 67, 60
1, 384296, Control_c, 0, 64, 67
1, 384311, Control_c, 0, 64, 62
1, 384326, Control_c, 0, 64, 57
1, 384341, Control_c, 0, 64, 54
1, 384347, Note_off_c, 0, 67, 60
1, 384353, Note_on_c, 0, 70, 59
1, 384356, Control_c, 0, 64, 53
1, 384364, Note_on_c, 0, 74, 48
1, 384371, Control_c, 0, 64, 51
1, 384376, Note_on_c, 0, 79, 39
1, 384385, Control_c, 0, 64, 49
1, 384395, Note_off_c, 0, 70, 63
1, 384399, Note_off_c, 0, 74, 64
1, 384400, Control_c, 0, 64, 48
1, 384401, Note_off_c, 0, 79, 54
1, 384415, Control_c, 0, 64, 47
1, 384429, Control_c, 0, 64, 47
1, 384431, Note_on_c, 0, 58, 61
1, 384444, Control_c, 0, 64, 46
1, 384459, Control_c, 0, 64, 45
1, 384461, Note_off_c, 0, 58, 65
1, 384474, Control_c, 0, 64, 44
1, 384489, Note_on_c, 0, 62, 54
1, 384520, Control_c, 0, 64, 43
1, 384550, Note_off_c, 0, 62, 61
1, 384558, Note_on_c, 0, 67, 54
1, 384558, Note_on_c, 0, 70, 47
1, 384564, Note_on_c, 0, 74, 56
1, 384564, Control_c, 0, 64, 43
1, 384579, Control_c, 0, 64, 42
1, 384592, Note_off_c, 0, 67, 64
1, 384594, Control_c, 0, 64, 42
1, 384595, Note_off_c, 0, 74, 64
1, 384596, Note_off_c, 0, 70, 65
1, 384608, Control_c, 0, 64, 41
1, 384623, Control_c, 0, 64, 40
1, 384624, Note_on_c, 0, 55, 58
1, 384665, Note_off_c, 0, 55, 64
1, 384696, Note_on_c, 0, 58, 55
1, 384747, Note_off_c, 0, 58, 59
1, 384762, Note_on_c, 0, 62, 50
1, 384762, Note_on_c, 0, 70, 65
1, 384789, Note_on_c, 0, 67, 30
1, 384799, Note_off_c, 0, 62, 64
1, 384811, Note_off_c, 0, 70, 59
1, 384816, Note_off_c, 0, 67, 52
1, 384827, Note_on_c, 0, 50, 47
1, 384853, Control_c, 0, 64, 41
1, 384857, Note_off_c, 0, 50, 64
1, 384867, Control_c, 0, 64, 43
1, 384882, Note_on_c, 0, 55, 56
1, 384882, Control_c, 0, 64, 44
1, 384897, Control_c, 0, 64, 45
1, 384927, Control_c, 0, 64, 46
1, 384929, Note_off_c, 0, 55, 62
1, 384941, Control_c, 0, 64, 51
1, 384951, Note_on_c, 0, 67, 49
1, 384952, Note_on_c, 0, 58, 54
1, 384956, Control_c, 0, 64, 54
1, 384969, Note_on_c, 0, 62, 30
1, 384971, Control_c, 0, 64, 57
1, 384985, Note_off_c, 0, 67, 63
1, 384986, Control_c, 0, 64, 60
1, 384993, Note_off_c, 0, 58, 64
1, 385001, Control_c, 0, 64, 63
1, 385003, Note_off_c, 0, 62, 53
1, 385015, Control_c, 0, 64, 67
1, 385028, Note_on_c, 0, 46, 59
1, 385030, Control_c, 0, 64, 73
1, 385045, Control_c, 0, 64, 81
1, 385054, Note_off_c, 0, 46, 61
1, 385060, Control_c, 0, 64, 90
1, 385074, Control_c, 0, 64, 98
1, 385089, Control_c, 0, 64, 105
1, 385098, Note_on_c, 0, 50, 45
1, 385104, Control_c, 0, 64, 110
1, 385119, Control_c, 0, 64, 111
1, 385131, Note_off_c, 0, 50, 62
1, 385155, Note_on_c, 0, 62, 55
1, 385155, Note_on_c, 0, 55, 53
1, 385164, Control_c, 0, 64, 110
1, 385164, Note_on_c, 0, 58, 42
1, 385179, Control_c, 0, 64, 110
1, 385189, Note_off_c, 0, 55, 65
1, 385194, Control_c, 0, 64, 108
1, 385197, Note_off_c, 0, 58, 56
1, 385201, Note_off_c, 0, 62, 64
1, 385208, Control_c, 0, 64, 105
1, 385223, Control_c, 0, 64, 101
1, 385227, Note_on_c, 0, 47, 79
1, 385238, Control_c, 0, 64, 96
1, 385251, Note_off_c, 0, 47, 66
1, 385252, Control_c, 0, 64, 87
1, 385267, Control_c, 0, 64, 73
1, 385283, Control_c, 0, 64, 60
1, 385294, Note_on_c, 0, 53, 60
1, 385298, Control_c, 0, 64, 0
1, 385336, Note_off_c, 0, 53, 61
1, 385367, Note_on_c, 0, 65, 51
1, 385393, Note_on_c, 0, 56, 33
1, 385414, Note_off_c, 0, 65, 58
1, 385423, Note_off_c, 0, 56, 51
1, 385438, Poly_aftertouch_c, 0, 62, 127
1, 385438, Control_c, 0, 64, 30
1, 385447, Note_on_c, 0, 48, 54
1, 385453, Control_c, 0, 64, 50
1, 385467, Poly_aftertouch_c, 0, 62, 0
1, 385468, Control_c, 0, 64, 58
1, 385483, Control_c, 0, 64, 62
1, 385490, Note_off_c, 0, 48, 62
1, 385493, Note_on_c, 0, 55, 49
1, 385498, Control_c, 0, 64, 66
1, 385513, Control_c, 0, 64, 69
1, 385528, Control_c, 0, 64, 72
1, 385542, Control_c, 0, 64, 72
1, 385552, Note_off_c, 0, 55, 61
1, 385575, Note_on_c, 0, 64, 49
1, 385584, Note_on_c, 0, 60, 37
1, 385587, Control_c, 0, 64, 72
1, 385602, Control_c, 0, 64, 71
1, 385617, Control_c, 0, 64, 70
1, 385617, Note_off_c, 0, 60, 54
1, 385623, Note_off_c, 0, 64, 64
1, 385631, Control_c, 0, 64, 69
1, 385644, Note_on_c, 0, 52, 63
1, 385646, Control_c, 0, 64, 66
1, 385661, Control_c, 0, 64, 61
1, 385672, Note_off_c, 0, 52, 67
1, 385676, Control_c, 0, 64, 46
1, 385690, Control_c, 0, 64, 0
1, 385701, Note_on_c, 0, 55, 50
1, 385756, Note_off_c, 0, 55, 63
1, 385776, Note_on_c, 0, 58, 49
1, 385778, Note_on_c, 0, 67, 63
1, 385782, Note_on_c, 0, 60, 24
1, 385803, Note_off_c, 0, 58, 60
1, 385808, Note_off_c, 0, 60, 45
1, 385810, Control_c, 0, 64, 23
1, 385813, Note_off_c, 0, 67, 63
1, 385825, Control_c, 0, 64, 46
1, 385839, Control_c, 0, 64, 57
1, 385853, Note_on_c, 0, 41, 36
1, 385854, Control_c, 0, 64, 63
1, 385855, Note_on_c, 0, 53, 55
1, 385869, Control_c, 0, 64, 66
1, 385883, Control_c, 0, 64, 70
1, 385890, Note_off_c, 0, 41, 48
1, 385894, Note_off_c, 0, 53, 63
1, 385898, Note_on_c, 0, 57, 58
1, 385898, Control_c, 0, 64, 76
1, 385913, Control_c, 0, 64, 82
1, 385928, Control_c, 0, 64, 87
1, 385943, Control_c, 0, 64, 87
1, 385952, Note_off_c, 0, 57, 60
1, 385960, Note_on_c, 0, 60, 53
1, 385977, Note_on_c, 0, 69, 67
1, 385996, Note_off_c, 0, 60, 66
1, 386001, Note_on_c, 0, 65, 34
1, 386007, Note_off_c, 0, 69, 65
1, 386016, Control_c, 0, 64, 85
1, 386031, Control_c, 0, 64, 81
1, 386036, Note_off_c, 0, 65, 46
1, 386037, Note_on_c, 0, 56, 78
1, 386046, Control_c, 0, 64, 71
1, 386061, Control_c, 0, 64, 60
1, 386066, Note_off_c, 0, 56, 69
1, 386077, Control_c, 0, 64, 0
1, 386100, Note_on_c, 0, 60, 66
1, 386174, Note_off_c, 0, 60, 65
1, 386179, Note_on_c, 0, 66, 58
1, 386186, Note_on_c, 0, 72, 61
1, 386217, Note_off_c, 0, 66, 62
1, 386218, Control_c, 0, 64, 31
1, 386233, Control_c, 0, 64, 55
1, 386237, Note_off_c, 0, 72, 58
1, 386248, Control_c, 0, 64, 60
1, 386255, Note_on_c, 0, 55, 63
1, 386258, Note_on_c, 0, 43, 45
1, 386262, Control_c, 0, 64, 64
1, 386277, Control_c, 0, 64, 68
1, 386290, Note_off_c, 0, 43, 52
1, 386292, Control_c, 0, 64, 72
1, 386294, Note_off_c, 0, 55, 63
1, 386306, Control_c, 0, 64, 77
1, 386309, Note_on_c, 0, 62, 53
1, 386321, Control_c, 0, 64, 83
1, 386336, Control_c, 0, 64, 90
1, 386351, Control_c, 0, 64, 91
1, 386374, Note_off_c, 0, 62, 62
1, 386391, Note_on_c, 0, 67, 45
1, 386401, Note_on_c, 0, 71, 48
1, 386410, Control_c, 0, 64, 91
1, 386420, Note_off_c, 0, 67, 57
1, 386425, Control_c, 0, 64, 90
1, 386431, Note_off_c, 0, 71, 59
1, 386440, Control_c, 0, 64, 88
1, 386452, Note_on_c, 0, 59, 69
1, 386455, Control_c, 0, 64, 85
1, 386469, Control_c, 0, 64, 79
1, 386481, Note_off_c, 0, 59, 67
1, 386484, Control_c, 0, 64, 71
1, 386499, Control_c, 0, 64, 61
1, 386505, Note_on_c, 0, 62, 67
1, 386514, Control_c, 0, 64, 11
1, 386529, Control_c, 0, 64, 0
1, 386547, Note_off_c, 0, 62, 59
1, 386562, Note_on_c, 0, 67, 44
1, 386573, Note_on_c, 0, 65, 42
1, 386578, Note_on_c, 0, 74, 57
1, 386592, Note_off_c, 0, 67, 63
1, 386600, Note_off_c, 0, 65, 54
1, 386605, Note_off_c, 0, 74, 63
1, 386640, Note_on_c, 0, 60, 78
1, 386645, Note_on_c, 0, 48, 63
1, 386662, Control_c, 0, 64, 60
1, 386672, Note_off_c, 0, 60, 67
1, 386677, Control_c, 0, 64, 66
1, 386680, Note_on_c, 0, 64, 70
1, 386684, Note_off_c, 0, 48, 62
1, 386692, Control_c, 0, 64, 75
1, 386706, Control_c, 0, 64, 91
1, 386721, Control_c, 0, 64, 127
1, 386747, Note_off_c, 0, 64, 61
1, 386755, Note_on_c, 0, 67, 58
1, 386756, Note_on_c, 0, 76, 73
1, 386782, Note_off_c, 0, 76, 69
1, 386785, Note_off_c, 0, 67, 64
1, 386827, Note_on_c, 0, 51, 93
1, 386866, Note_off_c, 0, 51, 66
1, 386869, Control_c, 0, 64, 103
1, 386893, Control_c, 0, 64, 67
1, 386902, Note_on_c, 0, 55, 67
1, 386908, Control_c, 0, 64, 0
1, 386967, Note_on_c, 0, 61, 61
1, 386968, Note_off_c, 0, 55, 63
1, 386976, Note_on_c, 0, 67, 65
1, 387011, Note_off_c, 0, 61, 61
1, 387020, Note_off_c, 0, 67, 60
1, 387040, Note_on_c, 0, 50, 75
1, 387041, Control_c, 0, 64, 21
1, 387048, Note_on_c, 0, 38, 58
1, 387056, Control_c, 0, 64, 55
1, 387071, Control_c, 0, 64, 60
1, 387081, Note_off_c, 0, 50, 63
1, 387082, Note_off_c, 0, 38, 63
1, 387085, Control_c, 0, 64, 65
1, 387099, Note_on_c, 0, 57, 62
1, 387100, Control_c, 0, 64, 70
1, 387115, Control_c, 0, 64, 81
1, 387129, Control_c, 0, 64, 98
1, 387144, Control_c, 0, 64, 127
1, 387164, Note_on_c, 0, 66, 63
1, 387167, Note_off_c, 0, 57, 62
1, 387174, Note_on_c, 0, 62, 49
1, 387206, Note_off_c, 0, 62, 63
1, 387220, Note_off_c, 0, 66, 51
1, 387248, Note_on_c, 0, 54, 77
1, 387277, Control_c, 0, 64, 114
1, 387285, Note_off_c, 0, 54, 63
1, 387292, Control_c, 0, 64, 104
1, 387298, Note_on_c, 0, 57, 63
1, 387307, Control_c, 0, 64, 95
1, 387321, Control_c, 0, 64, 81
1, 387336, Control_c, 0, 64, 65
1, 387349, Note_on_c, 0, 60, 71
1, 387351, Control_c, 0, 64, 0
1, 387353, Note_off_c, 0, 57, 63
1, 387360, Note_on_c, 0, 62, 55
1, 387365, Note_on_c, 0, 69, 73
1, 387383, Note_off_c, 0, 60, 67
1, 387390, Note_off_c, 0, 62, 66
1, 387397, Note_off_c, 0, 69, 65
1, 387441, Note_on_c, 0, 55, 90
1, 387444, Note_on_c, 0, 43, 76
1, 387469, Control_c, 0, 64, 49
1, 387476, Note_off_c, 0, 43, 68
1, 387484, Control_c, 0, 64, 63
1, 387499, Control_c, 0, 64, 66
1, 387500, Note_on_c, 0, 59, 55
1, 387508, Note_on_c, 0, 60, 57
1, 387508, Note_off_c, 0, 55, 57
1, 387514, Control_c, 0, 64, 72
1, 387528, Control_c, 0, 64, 83
1, 387542, Note_off_c, 0, 60, 65
1, 387543, Control_c, 0, 64, 96
1, 387547, Note_off_c, 0, 59, 61
1, 387558, Control_c, 0, 64, 116
1, 387573, Control_c, 0, 64, 127
1, 387578, Note_on_c, 0, 68, 68
1, 387612, Note_on_c, 0, 62, 40
1, 387615, Note_on_c, 0, 72, 51
1, 387630, Note_on_c, 0, 71, 22
1, 387646, Note_off_c, 0, 72, 58
1, 387648, Note_off_c, 0, 68, 61
1, 387652, Note_off_c, 0, 62, 53
1, 387654, Note_on_c, 0, 58, 86
1, 387670, Note_off_c, 0, 71, 41
1, 387689, Note_off_c, 0, 58, 62
1, 387719, Note_on_c, 0, 62, 80
1, 387773, Note_off_c, 0, 62, 62
1, 387774, Control_c, 0, 64, 76
1, 387787, Note_on_c, 0, 74, 62
1, 387789, Control_c, 0, 64, 40
1, 387793, Note_on_c, 0, 68, 45
1, 387795, Note_on_c, 0, 70, 28
1, 387804, Control_c, 0, 64, 0
1, 387820, Note_off_c, 0, 74, 65
1, 387826, Note_off_c, 0, 70, 47
1, 387826, Note_off_c, 0, 68, 34
1, 387857, Note_on_c, 0, 45, 78
1, 387860, Note_on_c, 0, 57, 83
1, 387888, Note_off_c, 0, 45, 65
1, 387891, Note_on_c, 0, 64, 73
1, 387892, Control_c, 0, 64, 47
1, 387907, Note_off_c, 0, 57, 65
1, 387907, Control_c, 0, 64, 65
1, 387922, Control_c, 0, 64, 73
1, 387937, Control_c, 0, 64, 88
1, 387951, Control_c, 0, 64, 120
1, 387955, Note_off_c, 0, 64, 62
1, 387963, Note_on_c, 0, 73, 69
1, 387966, Control_c, 0, 64, 127
1, 387982, Note_on_c, 0, 69, 53
1, 388014, Note_off_c, 0, 69, 64
1, 388040, Note_off_c, 0, 73, 59
1, 388045, Note_on_c, 0, 61, 84
1, 388086, Note_on_c, 0, 64, 63
1, 388087, Note_off_c, 0, 61, 60
1, 388155, Note_on_c, 0, 67, 63
1, 388155, Note_off_c, 0, 64, 62
1, 388156, Note_on_c, 0, 69, 55
1, 388166, Note_on_c, 0, 76, 77
1, 388173, Control_c, 0, 64, 77
1, 388186, Note_off_c, 0, 67, 66
1, 388188, Control_c, 0, 64, 0
1, 388189, Note_off_c, 0, 69, 64
1, 388197, Note_off_c, 0, 76, 65
1, 388231, Note_on_c, 0, 50, 77
1, 388234, Note_on_c, 0, 62, 85
1, 388262, Control_c, 0, 64, 53
1, 388263, Note_off_c, 0, 50, 68
1, 388273, Note_on_c, 0, 65, 76
1, 388276, Control_c, 0, 64, 66
1, 388288, Note_off_c, 0, 62, 65
1, 388291, Control_c, 0, 64, 72
1, 388306, Control_c, 0, 64, 80
1, 388321, Control_c, 0, 64, 91
1, 388329, Note_off_c, 0, 65, 66
1, 388336, Control_c, 0, 64, 102
1, 388338, Note_on_c, 0, 69, 76
1, 388344, Note_on_c, 0, 77, 84
1, 388344, Note_on_c, 0, 74, 75
1, 388350, Control_c, 0, 64, 111
1, 388373, Control_c, 0, 64, 120
1, 388380, Note_off_c, 0, 69, 64
1, 388388, Control_c, 0, 64, 127
1, 388404, Note_off_c, 0, 74, 63
1, 388423, Note_off_c, 0, 77, 54
1, 388428, Note_on_c, 0, 65, 90
1, 388444, Note_off_c, 0, 65, 74
1, 388469, Note_on_c, 0, 69, 92
1, 388546, Note_on_c, 0, 74, 95
1, 388553, Note_off_c, 0, 69, 61
1, 388596, Control_c, 0, 64, 95
1, 388605, Note_off_c, 0, 74, 61
1, 388611, Control_c, 0, 64, 60
1, 388626, Control_c, 0, 64, 0
1, 388637, Note_on_c, 0, 53, 92
1, 388640, Note_on_c, 0, 41, 85
1, 388670, Control_c, 0, 64, 38
1, 388672, Note_off_c, 0, 41, 68
1, 388685, Note_off_c, 0, 53, 66
1, 388685, Control_c, 0, 64, 64
1, 388693, Note_on_c, 0, 65, 91
1, 388699, Control_c, 0, 64, 82
1, 388714, Control_c, 0, 64, 127
1, 388764, Note_off_c, 0, 65, 62
1, 388776, Note_on_c, 0, 77, 93
1, 388809, Note_off_c, 0, 77, 69
1, 388860, Note_on_c, 0, 62, 74
1, 388863, Note_on_c, 0, 65, 81
1, 388869, Note_on_c, 0, 53, 65
1, 388889, Note_off_c, 0, 62, 67
1, 388909, Note_on_c, 0, 77, 94
1, 388909, Note_off_c, 0, 65, 55
1, 388923, Note_off_c, 0, 53, 58
1, 388972, Note_off_c, 0, 77, 63
1, 388983, Note_on_c, 0, 89, 99
1, 389019, Note_off_c, 0, 89, 66
1, 389043, Note_on_c, 0, 61, 78
1, 389048, Note_on_c, 0, 64, 69
1, 389052, Note_on_c, 0, 53, 69
1, 389066, Note_off_c, 0, 61, 70
1, 389066, Note_off_c, 0, 64, 66
1, 389083, Note_off_c, 0, 53, 64
1, 389107, Note_on_c, 0, 88, 102
1, 389168, Note_off_c, 0, 88, 64
1, 389188, Note_on_c, 0, 76, 89
1, 389219, Note_off_c, 0, 76, 62
1, 389253, Note_on_c, 0, 53, 79
1, 389258, Note_on_c, 0, 41, 67
1, 389293, Note_off_c, 0, 53, 55
1, 389301, Note_off_c, 0, 41, 64
1, 389322, Note_on_c, 0, 76, 92
1, 389345, Control_c, 0, 64, 86
1, 389360, Control_c, 0, 64, 58
1, 389373, Note_off_c, 0, 76, 61
1, 389375, Control_c, 0, 64, 0
1, 389388, Note_on_c, 0, 64, 87
1, 389425, Note_off_c, 0, 64, 63
1, 389442, Note_on_c, 0, 69, 16
1, 389443, Note_on_c, 0, 41, 85
1, 389443, Note_on_c, 0, 53, 91
1, 389449, Control_c, 0, 64, 30
1, 389464, Control_c, 0, 64, 63
1, 389474, Note_off_c, 0, 41, 68
1, 389478, Control_c, 0, 64, 79
1, 389488, Note_off_c, 0, 53, 66
1, 389493, Control_c, 0, 64, 127
1, 389514, Note_on_c, 0, 63, 86
1, 389558, Note_off_c, 0, 69, 0
1, 389558, Note_on_c, 0, 69, 3
1, 389561, Note_off_c, 0, 63, 64
1, 389588, Note_on_c, 0, 75, 81
1, 389597, Note_off_c, 0, 69, 61
1, 389622, Note_off_c, 0, 75, 63
1, 389662, Note_on_c, 0, 63, 75
1, 389667, Note_on_c, 0, 60, 66
1, 389696, Note_on_c, 0, 53, 41
1, 389700, Note_off_c, 0, 60, 64
1, 389717, Note_off_c, 0, 63, 54
1, 389718, Note_on_c, 0, 75, 90
1, 389722, Note_off_c, 0, 53, 58
1, 389784, Note_off_c, 0, 75, 61
1, 389791, Note_on_c, 0, 87, 84
1, 389826, Note_on_c, 0, 85, 26
1, 389836, Note_off_c, 0, 87, 64
1, 389844, Note_on_c, 0, 59, 76
1, 389845, Note_on_c, 0, 62, 71
1, 389847, Note_on_c, 0, 53, 65
1, 389861, Note_off_c, 0, 85, 43
1, 389875, Note_off_c, 0, 59, 69
1, 389880, Note_off_c, 0, 62, 68
1, 389885, Note_off_c, 0, 53, 66
1, 389912, Note_on_c, 0, 86, 97
1, 389963, Note_off_c, 0, 86, 63
1, 389987, Note_on_c, 0, 74, 80
1, 390012, Note_off_c, 0, 74, 63
1, 390074, Note_on_c, 0, 53, 73
1, 390076, Note_on_c, 0, 41, 67
1, 390113, Note_on_c, 0, 74, 77
1, 390118, Note_off_c, 0, 53, 56
1, 390122, Note_off_c, 0, 41, 60
1, 390153, Control_c, 0, 64, 92
1, 390162, Note_off_c, 0, 74, 63
1, 390168, Control_c, 0, 64, 66
1, 390183, Control_c, 0, 64, 0
1, 390194, Note_on_c, 0, 62, 63
1, 390222, Note_off_c, 0, 62, 67
1, 390287, Control_c, 0, 64, 29
1, 390290, Note_on_c, 0, 53, 68
1, 390291, Note_on_c, 0, 41, 63
1, 390301, Control_c, 0, 64, 54
1, 390316, Control_c, 0, 64, 61
1, 390320, Note_off_c, 0, 41, 63
1, 390324, Note_off_c, 0, 53, 66
1, 390331, Control_c, 0, 64, 67
1, 390345, Note_on_c, 0, 61, 66
1, 390345, Control_c, 0, 64, 76
1, 390360, Control_c, 0, 64, 97
1, 390375, Control_c, 0, 64, 127
1, 390398, Note_off_c, 0, 61, 61
1, 390413, Note_on_c, 0, 73, 66
1, 390443, Note_off_c, 0, 73, 66
1, 390509, Note_on_c, 0, 58, 59
1, 390517, Note_on_c, 0, 61, 60
1, 390549, Note_off_c, 0, 58, 60
1, 390555, Note_off_c, 0, 61, 57
1, 390564, Note_on_c, 0, 73, 62
1, 390589, Poly_aftertouch_c, 0, 53, 127
1, 390613, Poly_aftertouch_c, 0, 53, 0
1, 390631, Note_off_c, 0, 73, 60
1, 390641, Note_on_c, 0, 85, 66
1, 390703, Note_off_c, 0, 85, 59
1, 390708, Note_on_c, 0, 60, 65
1, 390716, Note_on_c, 0, 57, 54
1, 390733, Note_on_c, 0, 53, 45
1, 390741, Note_off_c, 0, 60, 66
1, 390746, Note_off_c, 0, 57, 65
1, 390771, Note_off_c, 0, 53, 49
1, 390790, Note_on_c, 0, 72, 61
1, 390810, Note_on_c, 0, 84, 63
1, 390838, Note_off_c, 0, 84, 67
1, 390845, Note_off_c, 0, 72, 61
1, 390892, Note_on_c, 0, 53, 60
1, 390905, Note_on_c, 0, 65, 66
1, 390935, Note_off_c, 0, 65, 64
1, 390936, Note_off_c, 0, 53, 60
1, 390947, Control_c, 0, 64, 116
1, 390950, Note_on_c, 0, 69, 60
1, 390962, Control_c, 0, 64, 109
1, 390976, Control_c, 0, 64, 99
1, 390986, Note_on_c, 0, 77, 34
1, 390987, Note_off_c, 0, 69, 51
1, 390991, Control_c, 0, 64, 91
1, 391006, Control_c, 0, 64, 82
1, 391016, Note_off_c, 0, 77, 44
1, 391021, Control_c, 0, 64, 76
1, 391036, Control_c, 0, 64, 71
1, 391038, Note_on_c, 0, 65, 53
1, 391050, Control_c, 0, 64, 67
1, 391065, Control_c, 0, 64, 63
1, 391073, Note_off_c, 0, 65, 59
1, 391080, Control_c, 0, 64, 56
1, 391094, Control_c, 0, 64, 37
1, 391102, Note_on_c, 0, 58, 51
1, 391105, Note_on_c, 0, 64, 47
1, 391107, Note_on_c, 0, 55, 34
1, 391108, Note_on_c, 0, 76, 66
1, 391109, Control_c, 0, 64, 0
1, 391132, Note_off_c, 0, 58, 64
1, 391144, Note_off_c, 0, 55, 49
1, 391145, Note_off_c, 0, 64, 59
1, 391182, Note_off_c, 0, 76, 58
1, 391227, Note_on_c, 0, 67, 56
1, 391274, Note_on_c, 0, 61, 44
1, 391276, Note_off_c, 0, 67, 59
1, 391277, Note_on_c, 0, 64, 22
1, 391281, Note_on_c, 0, 57, 42
1, 391298, Note_off_c, 0, 61, 56
1, 391309, Note_off_c, 0, 57, 54
1, 391312, Note_on_c, 0, 73, 58
1, 391313, Note_off_c, 0, 64, 42
1, 391337, Note_on_c, 0, 69, 37
1, 391382, Note_off_c, 0, 73, 60
1, 391396, Note_off_c, 0, 69, 64
1, 391412, Note_on_c, 0, 67, 59
1, 391449, Note_off_c, 0, 67, 58
1, 391517, Note_on_c, 0, 50, 39
1, 391517, Note_on_c, 0, 62, 42
1, 391531, Control_c, 0, 64, 39
1, 391546, Control_c, 0, 64, 53
1, 391547, Note_on_c, 0, 74, 59
1, 391561, Control_c, 0, 64, 59
1, 391563, Note_off_c, 0, 62, 61
1, 391576, Control_c, 0, 64, 63
1, 391583, Note_off_c, 0, 50, 63
1, 391591, Control_c, 0, 64, 67
1, 391606, Control_c, 0, 64, 72
1, 391620, Control_c, 0, 64, 80
1, 391630, Note_off_c, 0, 74, 58
1, 391635, Control_c, 0, 64, 88
1, 391650, Control_c, 0, 64, 94
1, 391653, Note_on_c, 0, 69, 59
1, 391665, Control_c, 0, 64, 97
1, 391680, Control_c, 0, 64, 99
1, 391711, Note_off_c, 0, 69, 60
1, 391725, Control_c, 0, 64, 99
1, 391726, Note_on_c, 0, 65, 54
1, 391740, Control_c, 0, 64, 98
1, 391750, Note_off_c, 0, 65, 62
1, 391755, Control_c, 0, 64, 98
1, 391770, Control_c, 0, 64, 97
1, 391784, Control_c, 0, 64, 95
1, 391793, Note_on_c, 0, 62, 48
1, 391799, Control_c, 0, 64, 94
1, 391816, Note_off_c, 0, 62, 59
1, 391829, Control_c, 0, 64, 94
1, 391844, Control_c, 0, 64, 93
1, 391855, Note_on_c, 0, 57, 59
1, 391859, Control_c, 0, 64, 91
1, 391873, Control_c, 0, 64, 87
1, 391881, Note_off_c, 0, 57, 63
1, 391888, Control_c, 0, 64, 78
1, 391903, Control_c, 0, 64, 66
1, 391917, Control_c, 0, 64, 36
1, 391932, Control_c, 0, 64, 0
1, 391948, Note_on_c, 0, 65, 58
1, 391950, Note_on_c, 0, 53, 51
1, 391977, Note_off_c, 0, 53, 56
1, 391977, Control_c, 0, 64, 36
1, 391980, Note_off_c, 0, 65, 64
1, 391991, Control_c, 0, 64, 56
1, 391994, Note_on_c, 0, 38, 51
1, 392006, Control_c, 0, 64, 64
1, 392021, Control_c, 0, 64, 67
1, 392026, Note_off_c, 0, 38, 60
1, 392036, Control_c, 0, 64, 70
1, 392051, Control_c, 0, 64, 74
1, 392065, Control_c, 0, 64, 76
1, 392078, Note_on_c, 0, 53, 52
1, 392080, Control_c, 0, 64, 76
1, 392095, Control_c, 0, 64, 72
1, 392109, Note_off_c, 0, 53, 63
1, 392110, Control_c, 0, 64, 66
1, 392132, Control_c, 0, 64, 56
1, 392147, Control_c, 0, 64, 15
1, 392162, Control_c, 0, 64, 0
1, 392172, Note_on_c, 0, 69, 64
1, 392175, Note_on_c, 0, 57, 52
1, 392179, Note_on_c, 0, 62, 40
1, 392197, Note_off_c, 0, 69, 64
1, 392202, Note_off_c, 0, 57, 62
1, 392206, Control_c, 0, 64, 39
1, 392207, Note_off_c, 0, 62, 59
1, 392221, Control_c, 0, 64, 54
1, 392236, Control_c, 0, 64, 60
1, 392241, Note_on_c, 0, 41, 45
1, 392251, Control_c, 0, 64, 63
1, 392266, Control_c, 0, 64, 64
1, 392273, Note_off_c, 0, 41, 53
1, 392280, Control_c, 0, 64, 66
1, 392295, Control_c, 0, 64, 67
1, 392310, Control_c, 0, 64, 66
1, 392317, Note_on_c, 0, 57, 53
1, 392324, Control_c, 0, 64, 62
1, 392339, Control_c, 0, 64, 50
1, 392347, Note_off_c, 0, 57, 66
1, 392354, Control_c, 0, 64, 33
1, 392369, Control_c, 0, 64, 34
1, 392383, Note_on_c, 0, 62, 47
1, 392384, Control_c, 0, 64, 49
1, 392386, Note_on_c, 0, 56, 57
1, 392387, Note_on_c, 0, 68, 62
1, 392399, Control_c, 0, 64, 58
1, 392413, Control_c, 0, 64, 62
1, 392417, Note_off_c, 0, 62, 64
1, 392419, Note_off_c, 0, 56, 66
1, 392419, Note_off_c, 0, 68, 66
1, 392428, Control_c, 0, 64, 65
1, 392443, Control_c, 0, 64, 67
1, 392458, Control_c, 0, 64, 69
1, 392466, Note_on_c, 0, 40, 47
1, 392474, Control_c, 0, 64, 71
1, 392501, Note_off_c, 0, 40, 53
1, 392503, Control_c, 0, 64, 69
1, 392518, Control_c, 0, 64, 65
1, 392533, Control_c, 0, 64, 56
1, 392548, Control_c, 0, 64, 42
1, 392548, Note_on_c, 0, 56, 54
1, 392562, Control_c, 0, 64, 42
1, 392573, Note_off_c, 0, 56, 59
1, 392577, Control_c, 0, 64, 50
1, 392592, Control_c, 0, 64, 57
1, 392601, Note_on_c, 0, 71, 64
1, 392605, Note_on_c, 0, 62, 55
1, 392607, Control_c, 0, 64, 62
1, 392609, Note_on_c, 0, 59, 52
1, 392622, Control_c, 0, 64, 64
1, 392630, Note_off_c, 0, 71, 65
1, 392633, Note_off_c, 0, 59, 57
1, 392636, Note_off_c, 0, 62, 64
1, 392637, Control_c, 0, 64, 66
1, 392652, Control_c, 0, 64, 69
1, 392667, Control_c, 0, 64, 72
1, 392694, Note_on_c, 0, 44, 46
1, 392696, Control_c, 0, 64, 70
1, 392711, Control_c, 0, 64, 64
1, 392723, Note_off_c, 0, 44, 53
1, 392726, Control_c, 0, 64, 54
1, 392740, Control_c, 0, 64, 36
1, 392755, Control_c, 0, 64, 37
1, 392758, Note_on_c, 0, 59, 42
1, 392770, Control_c, 0, 64, 46
1, 392785, Note_off_c, 0, 59, 59
1, 392785, Control_c, 0, 64, 55
1, 392800, Control_c, 0, 64, 60
1, 392814, Control_c, 0, 64, 63
1, 392815, Note_on_c, 0, 62, 48
1, 392820, Note_on_c, 0, 58, 55
1, 392821, Note_on_c, 0, 70, 66
1, 392829, Control_c, 0, 64, 65
1, 392844, Control_c, 0, 64, 67
1, 392845, Note_off_c, 0, 62, 63
1, 392847, Note_off_c, 0, 58, 62
1, 392850, Note_off_c, 0, 70, 68
1, 392867, Control_c, 0, 64, 68
1, 392881, Control_c, 0, 64, 67
1, 392896, Control_c, 0, 64, 65
1, 392896, Note_on_c, 0, 43, 57
1, 392911, Control_c, 0, 64, 59
1, 392926, Control_c, 0, 64, 48
1, 392929, Note_off_c, 0, 43, 63
1, 392940, Control_c, 0, 64, 41
1, 392955, Control_c, 0, 64, 45
1, 392970, Control_c, 0, 64, 52
1, 392984, Note_on_c, 0, 58, 38
1, 392985, Control_c, 0, 64, 58
1, 393000, Control_c, 0, 64, 62
1, 393014, Note_off_c, 0, 58, 44
1, 393014, Control_c, 0, 64, 64
1, 393029, Control_c, 0, 64, 66
1, 393042, Note_on_c, 0, 74, 65
1, 393043, Note_on_c, 0, 67, 60
1, 393044, Control_c, 0, 64, 69
1, 393045, Note_on_c, 0, 62, 57
1, 393059, Control_c, 0, 64, 72
1, 393072, Note_off_c, 0, 67, 66
1, 393072, Note_off_c, 0, 74, 67
1, 393073, Control_c, 0, 64, 75
1, 393077, Note_off_c, 0, 62, 64
1, 393088, Control_c, 0, 64, 77
1, 393103, Control_c, 0, 64, 79
1, 393112, Note_on_c, 0, 46, 58
1, 393118, Control_c, 0, 64, 80
1, 393133, Control_c, 0, 64, 78
1, 393143, Note_off_c, 0, 46, 65
1, 393147, Control_c, 0, 64, 74
1, 393162, Control_c, 0, 64, 65
1, 393177, Control_c, 0, 64, 54
1, 393192, Control_c, 0, 64, 44
1, 393197, Note_on_c, 0, 62, 56
1, 393207, Control_c, 0, 64, 49
1, 393221, Control_c, 0, 64, 55
1, 393230, Note_off_c, 0, 62, 65
1, 393236, Control_c, 0, 64, 60
1, 393245, Note_on_c, 0, 66, 56
1, 393247, Note_on_c, 0, 73, 71
1, 393251, Control_c, 0, 64, 64
1, 393253, Note_on_c, 0, 61, 52
1, 393267, Control_c, 0, 64, 67
1, 393269, Note_off_c, 0, 66, 38
1, 393278, Note_off_c, 0, 73, 65
1, 393280, Note_off_c, 0, 61, 62
1, 393282, Control_c, 0, 64, 70
1, 393297, Control_c, 0, 64, 73
1, 393312, Control_c, 0, 64, 77
1, 393323, Note_on_c, 0, 45, 69
1, 393326, Control_c, 0, 64, 79
1, 393341, Control_c, 0, 64, 80
1, 393352, Note_off_c, 0, 45, 63
1, 393356, Control_c, 0, 64, 78
1, 393370, Control_c, 0, 64, 72
1, 393385, Control_c, 0, 64, 64
1, 393394, Note_on_c, 0, 61, 59
1, 393400, Control_c, 0, 64, 53
1, 393415, Control_c, 0, 64, 54
1, 393424, Note_off_c, 0, 61, 67
1, 393430, Control_c, 0, 64, 58
1, 393445, Control_c, 0, 64, 62
1, 393456, Note_on_c, 0, 67, 69
1, 393459, Note_on_c, 0, 76, 80
1, 393460, Control_c, 0, 64, 66
1, 393467, Note_on_c, 0, 64, 55
1, 393475, Control_c, 0, 64, 71
1, 393482, Note_off_c, 0, 67, 67
1, 393490, Note_off_c, 0, 64, 61
1, 393490, Control_c, 0, 64, 78
1, 393504, Note_off_c, 0, 76, 62
1, 393504, Control_c, 0, 64, 84
1, 393519, Control_c, 0, 64, 87
1, 393529, Note_on_c, 0, 49, 68
1, 393534, Control_c, 0, 64, 89
1, 393561, Note_off_c, 0, 49, 68
1, 393563, Control_c, 0, 64, 85
1, 393578, Control_c, 0, 64, 73
1, 393593, Control_c, 0, 64, 63
1, 393594, Note_on_c, 0, 64, 57
1, 393608, Control_c, 0, 64, 52
1, 393630, Control_c, 0, 64, 49
1, 393637, Note_off_c, 0, 64, 67
1, 393645, Control_c, 0, 64, 54
1, 393659, Control_c, 0, 64, 60
1, 393671, Note_on_c, 0, 73, 78
1, 393674, Note_on_c, 0, 79, 79
1, 393674, Control_c, 0, 64, 64
1, 393677, Note_on_c, 0, 67, 52
1, 393689, Control_c, 0, 64, 68
1, 393695, Note_off_c, 0, 73, 70
1, 393699, Note_off_c, 0, 67, 60
1, 393704, Control_c, 0, 64, 72
1, 393705, Note_off_c, 0, 79, 66
1, 393719, Control_c, 0, 64, 77
1, 393734, Control_c, 0, 64, 82
1, 393747, Note_on_c, 0, 52, 75
1, 393749, Control_c, 0, 64, 85
1, 393764, Control_c, 0, 64, 85
1, 393774, Note_off_c, 0, 52, 69
1, 393778, Control_c, 0, 64, 76
1, 393793, Control_c, 0, 64, 64
1, 393808, Control_c, 0, 64, 47
1, 393819, Note_on_c, 0, 67, 64
1, 393823, Control_c, 0, 64, 40
1, 393838, Control_c, 0, 64, 48
1, 393852, Control_c, 0, 64, 57
1, 393854, Note_off_c, 0, 67, 65
1, 393867, Control_c, 0, 64, 63
1, 393882, Control_c, 0, 64, 67
1, 393883, Note_on_c, 0, 82, 90
1, 393889, Note_on_c, 0, 73, 88
1, 393892, Note_on_c, 0, 70, 84
1, 393897, Control_c, 0, 64, 72
1, 393912, Control_c, 0, 64, 78
1, 393913, Note_off_c, 0, 73, 68
1, 393919, Note_off_c, 0, 70, 66
1, 393927, Control_c, 0, 64, 84
1, 393929, Note_off_c, 0, 82, 67
1, 393942, Control_c, 0, 64, 89
1, 393954, Note_on_c, 0, 55, 67
1, 393957, Control_c, 0, 64, 90
1, 393971, Control_c, 0, 64, 89
1, 393980, Note_off_c, 0, 55, 63
1, 393986, Control_c, 0, 64, 83
1, 394001, Control_c, 0, 64, 71
1, 394006, Note_on_c, 0, 57, 7
1, 394016, Control_c, 0, 64, 60
1, 394026, Note_on_c, 0, 70, 80
1, 394031, Control_c, 0, 64, 41
1, 394032, Note_off_c, 0, 57, 45
1, 394045, Control_c, 0, 64, 28
1, 394055, Note_off_c, 0, 70, 64
1, 394060, Control_c, 0, 64, 33
1, 394076, Control_c, 0, 64, 48
1, 394091, Control_c, 0, 64, 59
1, 394106, Note_on_c, 0, 74, 62
1, 394106, Control_c, 0, 64, 64
1, 394110, Note_on_c, 0, 81, 73
1, 394118, Note_on_c, 0, 69, 67
1, 394121, Control_c, 0, 64, 66
1, 394133, Note_off_c, 0, 81, 71
1, 394135, Note_off_c, 0, 74, 66
1, 394136, Control_c, 0, 64, 70
1, 394145, Note_off_c, 0, 69, 67
1, 394150, Control_c, 0, 64, 74
1, 394165, Control_c, 0, 64, 78
1, 394180, Control_c, 0, 64, 80
1, 394187, Note_on_c, 0, 54, 58
1, 394194, Control_c, 0, 64, 81
1, 394209, Control_c, 0, 64, 79
1, 394223, Note_off_c, 0, 54, 66
1, 394224, Control_c, 0, 64, 73
1, 394239, Control_c, 0, 64, 64
1, 394254, Control_c, 0, 64, 53
1, 394268, Control_c, 0, 64, 49
1, 394277, Note_on_c, 0, 69, 54
1, 394283, Control_c, 0, 64, 54
1, 394298, Control_c, 0, 64, 59
1, 394308, Note_off_c, 0, 69, 65
1, 394312, Control_c, 0, 64, 62
1, 394326, Note_on_c, 0, 74, 68
1, 394327, Control_c, 0, 64, 65
1, 394334, Note_on_c, 0, 71, 52
1, 394339, Note_on_c, 0, 68, 46
1, 394342, Control_c, 0, 64, 67
1, 394355, Note_off_c, 0, 74, 66
1, 394356, Note_off_c, 0, 71, 59
1, 394357, Control_c, 0, 64, 70
1, 394372, Note_off_c, 0, 68, 57
1, 394380, Control_c, 0, 64, 72
1, 394394, Control_c, 0, 64, 74
1, 394405, Note_on_c, 0, 53, 65
1, 394409, Control_c, 0, 64, 76
1, 394436, Note_off_c, 0, 53, 65
1, 394439, Control_c, 0, 64, 74
1, 394454, Control_c, 0, 64, 69
1, 394468, Control_c, 0, 64, 62
1, 394483, Control_c, 0, 64, 52
1, 394485, Note_on_c, 0, 68, 56
1, 394498, Control_c, 0, 64, 51
1, 394512, Note_off_c, 0, 68, 63
1, 394513, Control_c, 0, 64, 57
1, 394527, Control_c, 0, 64, 61
1, 394542, Control_c, 0, 64, 64
1, 394545, Note_on_c, 0, 69, 66
1, 394546, Note_on_c, 0, 73, 68
1, 394551, Note_on_c, 0, 67, 63
1, 394557, Control_c, 0, 64, 68
1, 394572, Note_off_c, 0, 69, 66
1, 394572, Control_c, 0, 64, 72
1, 394581, Note_off_c, 0, 73, 63
1, 394584, Note_off_c, 0, 67, 65
1, 394587, Control_c, 0, 64, 76
1, 394601, Control_c, 0, 64, 79
1, 394613, Note_on_c, 0, 52, 75
1, 394616, Control_c, 0, 64, 80
1, 394643, Note_off_c, 0, 52, 67
1, 394646, Control_c, 0, 64, 75
1, 394661, Control_c, 0, 64, 66
1, 394676, Control_c, 0, 64, 56
1, 394691, Control_c, 0, 64, 53
1, 394703, Note_on_c, 0, 67, 60
1, 394706, Control_c, 0, 64, 58
1, 394720, Control_c, 0, 64, 61
1, 394732, Note_off_c, 0, 67, 67
1, 394735, Control_c, 0, 64, 65
1, 394741, Note_on_c, 0, 65, 73
1, 394741, Note_on_c, 0, 74, 85
1, 394744, Note_on_c, 0, 69, 64
1, 394750, Control_c, 0, 64, 69
1, 394765, Control_c, 0, 64, 75
1, 394769, Note_off_c, 0, 65, 67
1, 394771, Note_off_c, 0, 69, 67
1, 394780, Control_c, 0, 64, 81
1, 394786, Note_off_c, 0, 74, 63
1, 394794, Control_c, 0, 64, 86
1, 394809, Control_c, 0, 64, 88
1, 394818, Note_on_c, 0, 50, 76
1, 394824, Control_c, 0, 64, 91
1, 394839, Control_c, 0, 64, 97
1, 394843, Note_off_c, 0, 50, 64
1, 394854, Control_c, 0, 64, 108
1, 394870, Control_c, 0, 64, 117
1, 394884, Control_c, 0, 64, 104
1, 394899, Control_c, 0, 64, 81
1, 394914, Control_c, 0, 64, 64
1, 394921, Note_on_c, 0, 65, 25
1, 394929, Control_c, 0, 64, 38
1, 394943, Control_c, 0, 64, 19
1, 394952, Note_on_c, 0, 76, 72
1, 394954, Note_off_c, 0, 65, 50
1, 394958, Control_c, 0, 64, 38
1, 394961, Note_on_c, 0, 61, 65
1, 394973, Control_c, 0, 64, 53
1, 394983, Note_on_c, 0, 57, 51
1, 394988, Control_c, 0, 64, 62
1, 394995, Note_off_c, 0, 61, 64
1, 395003, Control_c, 0, 64, 66
1, 395016, Note_off_c, 0, 57, 65
1, 395017, Control_c, 0, 64, 71
1, 395027, Note_on_c, 0, 73, 70
1, 395032, Control_c, 0, 64, 78
1, 395046, Note_off_c, 0, 76, 57
1, 395047, Control_c, 0, 64, 85
1, 395062, Control_c, 0, 64, 88
1, 395077, Control_c, 0, 64, 89
1, 395103, Note_on_c, 0, 69, 69
1, 395108, Note_off_c, 0, 73, 62
1, 395139, Note_off_c, 0, 69, 67
1, 395180, Note_on_c, 0, 64, 57
1, 395203, Control_c, 0, 64, 88
1, 395207, Note_off_c, 0, 64, 63
1, 395251, Note_on_c, 0, 61, 69
1, 395262, Control_c, 0, 64, 89
1, 395306, Control_c, 0, 64, 85
1, 395314, Note_on_c, 0, 57, 72
1, 395321, Control_c, 0, 64, 75
1, 395336, Control_c, 0, 64, 62
1, 395338, Note_off_c, 0, 61, 60
1, 395350, Control_c, 0, 64, 33
1, 395365, Control_c, 0, 64, 0
1, 395367, Note_off_c, 0, 57, 61
1, 395380, Control_c, 0, 64, 30
1, 395395, Control_c, 0, 64, 48
1, 395399, Note_on_c, 0, 65, 41
1, 395402, Note_on_c, 0, 53, 53
1, 395410, Control_c, 0, 64, 58
1, 395424, Control_c, 0, 64, 62
1, 395426, Note_off_c, 0, 53, 60
1, 395427, Note_off_c, 0, 65, 54
1, 395439, Control_c, 0, 64, 65
1, 395454, Control_c, 0, 64, 67
1, 395458, Note_on_c, 0, 38, 39
1, 395469, Control_c, 0, 64, 69
1, 395484, Control_c, 0, 64, 71
1, 395496, Note_off_c, 0, 38, 50
1, 395514, Control_c, 0, 64, 69
1, 395528, Control_c, 0, 64, 65
1, 395533, Note_on_c, 0, 53, 47
1, 395543, Control_c, 0, 64, 54
1, 395558, Control_c, 0, 64, 45
1, 395571, Note_off_c, 0, 53, 63
1, 395573, Control_c, 0, 64, 48
1, 395588, Control_c, 0, 64, 54
1, 395597, Note_on_c, 0, 57, 63
1, 395600, Note_on_c, 0, 62, 59
1, 395603, Control_c, 0, 64, 60
1, 395604, Note_on_c, 0, 69, 57
1, 395617, Control_c, 0, 64, 63
1, 395625, Note_off_c, 0, 57, 66
1, 395630, Note_off_c, 0, 62, 65
1, 395632, Control_c, 0, 64, 66
1, 395638, Note_off_c, 0, 69, 64
1, 395647, Control_c, 0, 64, 69
1, 395663, Control_c, 0, 64, 72
1, 395677, Control_c, 0, 64, 75
1, 395679, Note_on_c, 0, 41, 65
1, 395692, Control_c, 0, 64, 76
1, 395704, Note_off_c, 0, 41, 61
1, 395707, Control_c, 0, 64, 76
1, 395722, Control_c, 0, 64, 72
1, 395737, Control_c, 0, 64, 64
1, 395743, Note_on_c, 0, 57, 59
1, 395752, Control_c, 0, 64, 51
1, 395766, Control_c, 0, 64, 44
1, 395771, Note_off_c, 0, 57, 66
1, 395781, Control_c, 0, 64, 51
1, 395796, Control_c, 0, 64, 58
1, 395811, Control_c, 0, 64, 63
1, 395812, Note_on_c, 0, 59, 63
1, 395812, Note_on_c, 0, 62, 64
1, 395813, Note_on_c, 0, 65, 67
1, 395815, Note_on_c, 0, 71, 77
1, 395826, Control_c, 0, 64, 66
1, 395838, Note_off_c, 0, 65, 67
1, 395840, Note_off_c, 0, 62, 66
1, 395840, Control_c, 0, 64, 70
1, 395841, Note_off_c, 0, 59, 66
1, 395862, Control_c, 0, 64, 72
1, 395865, Note_off_c, 0, 71, 63
1, 395877, Control_c, 0, 64, 74
1, 395892, Control_c, 0, 64, 75
1, 395901, Note_on_c, 0, 44, 66
1, 395907, Control_c, 0, 64, 76
1, 395922, Control_c, 0, 64, 75
1, 395935, Note_off_c, 0, 44, 64
1, 395937, Control_c, 0, 64, 72
1, 395952, Control_c, 0, 64, 65
1, 395966, Control_c, 0, 64, 53
1, 395967, Note_on_c, 0, 59, 57
1, 395981, Control_c, 0, 64, 47
1, 395996, Control_c, 0, 64, 51
1, 395997, Note_off_c, 0, 59, 66
1, 396011, Control_c, 0, 64, 58
1, 396026, Control_c, 0, 64, 62
1, 396032, Note_on_c, 0, 68, 76
1, 396033, Note_on_c, 0, 74, 82
1, 396038, Note_on_c, 0, 62, 63
1, 396039, Note_on_c, 0, 65, 68
1, 396040, Control_c, 0, 64, 65
1, 396055, Control_c, 0, 64, 69
1, 396056, Note_off_c, 0, 68, 69
1, 396057, Note_off_c, 0, 62, 65
1, 396059, Note_off_c, 0, 65, 65
1, 396065, Note_off_c, 0, 74, 62
1, 396070, Control_c, 0, 64, 73
1, 396085, Control_c, 0, 64, 76
1, 396100, Control_c, 0, 64, 78
1, 396104, Note_on_c, 0, 47, 72
1, 396129, Control_c, 0, 64, 78
1, 396134, Note_off_c, 0, 47, 64
1, 396144, Control_c, 0, 64, 74
1, 396159, Control_c, 0, 64, 66
1, 396173, Control_c, 0, 64, 55
1, 396175, Note_on_c, 0, 62, 63
1, 396188, Control_c, 0, 64, 41
1, 396203, Control_c, 0, 64, 47
1, 396210, Note_off_c, 0, 62, 66
1, 396218, Control_c, 0, 64, 55
1, 396233, Control_c, 0, 64, 60
1, 396242, Note_on_c, 0, 75, 88
1, 396244, Note_on_c, 0, 67, 76
1, 396247, Control_c, 0, 64, 64
1, 396248, Note_on_c, 0, 63, 71
1, 396262, Control_c, 0, 64, 67
1, 396267, Note_off_c, 0, 67, 69
1, 396275, Note_off_c, 0, 63, 68
1, 396277, Control_c, 0, 64, 70
1, 396292, Control_c, 0, 64, 72
1, 396300, Note_off_c, 0, 75, 61
1, 396306, Control_c, 0, 64, 73
1, 396309, Note_on_c, 0, 48, 59
1, 396321, Control_c, 0, 64, 75
1, 396333, Note_off_c, 0, 48, 57
1, 396336, Control_c, 0, 64, 76
1, 396341, Note_on_c, 0, 50, 31
1, 396351, Control_c, 0, 64, 77
1, 396379, Note_off_c, 0, 50, 43
1, 396381, Control_c, 0, 64, 74
1, 396383, Note_on_c, 0, 63, 65
1, 396396, Control_c, 0, 64, 66
1, 396411, Control_c, 0, 64, 54
1, 396412, Note_off_c, 0, 63, 65
1, 396426, Control_c, 0, 64, 41
1, 396440, Control_c, 0, 64, 47
1, 396449, Note_on_c, 0, 79, 85
1, 396453, Note_on_c, 0, 67, 78
1, 396456, Control_c, 0, 64, 56
1, 396456, Note_on_c, 0, 72, 71
1, 396470, Control_c, 0, 64, 62
1, 396477, Note_off_c, 0, 67, 69
1, 396479, Note_off_c, 0, 72, 68
1, 396485, Control_c, 0, 64, 66
1, 396500, Control_c, 0, 64, 71
1, 396509, Note_off_c, 0, 79, 64
1, 396511, Note_on_c, 0, 51, 80
1, 396515, Control_c, 0, 64, 76
1, 396530, Control_c, 0, 64, 80
1, 396545, Control_c, 0, 64, 83
1, 396545, Note_off_c, 0, 51, 65
1, 396560, Control_c, 0, 64, 84
1, 396575, Control_c, 0, 64, 84
1, 396589, Control_c, 0, 64, 82
1, 396596, Note_on_c, 0, 67, 69
1, 396611, Control_c, 0, 64, 74
1, 396626, Control_c, 0, 64, 63
1, 396632, Note_off_c, 0, 67, 64
1, 396641, Control_c, 0, 64, 50
1, 396656, Control_c, 0, 64, 54
1, 396668, Note_on_c, 0, 81, 91
1, 396670, Control_c, 0, 64, 62
1, 396672, Note_on_c, 0, 75, 74
1, 396673, Note_on_c, 0, 72, 75
1, 396681, Note_on_c, 0, 69, 59
1, 396685, Control_c, 0, 64, 66
1, 396695, Note_off_c, 0, 75, 67
1, 396697, Note_off_c, 0, 72, 69
1, 396700, Note_off_c, 0, 69, 63
1, 396700, Control_c, 0, 64, 72
1, 396714, Note_off_c, 0, 81, 68
1, 396715, Control_c, 0, 64, 81
1, 396730, Control_c, 0, 64, 91
1, 396745, Control_c, 0, 64, 100
1, 396745, Note_on_c, 0, 54, 78
1, 396760, Control_c, 0, 64, 113
1, 396772, Note_off_c, 0, 54, 69
1, 396774, Control_c, 0, 64, 127
1, 396789, Control_c, 0, 64, 125
1, 396804, Control_c, 0, 64, 90
1, 396817, Note_on_c, 0, 69, 66
1, 396819, Control_c, 0, 64, 67
1, 396834, Control_c, 0, 64, 51
1, 396837, Poly_aftertouch_c, 0, 56, 0
1, 396849, Control_c, 0, 64, 56
1, 396857, Note_off_c, 0, 69, 62
1, 396863, Control_c, 0, 64, 63
1, 396878, Control_c, 0, 64, 67
1, 396885, Note_on_c, 0, 75, 90
1, 396885, Note_on_c, 0, 84, 97
1, 396886, Note_on_c, 0, 72, 93
1, 396893, Control_c, 0, 64, 73
1, 396903, Note_off_c, 0, 72, 72
1, 396905, Note_off_c, 0, 75, 70
1, 396908, Control_c, 0, 64, 84
1, 396922, Control_c, 0, 64, 95
1, 396926, Note_off_c, 0, 84, 67
1, 396937, Control_c, 0, 64, 102
1, 396954, Note_on_c, 0, 57, 80
1, 396967, Control_c, 0, 64, 104
1, 396980, Note_off_c, 0, 57, 70
1, 396983, Control_c, 0, 64, 116
1, 396997, Control_c, 0, 64, 127
1, 397024, Note_on_c, 0, 72, 77
1, 397042, Control_c, 0, 64, 94
1, 397050, Note_off_c, 0, 72, 69
1, 397057, Control_c, 0, 64, 62
1, 397071, Control_c, 0, 64, 0
1, 397101, Control_c, 0, 64, 39
1, 397108, Note_on_c, 0, 86, 103
1, 397109, Note_on_c, 0, 74, 102
1, 397115, Control_c, 0, 64, 60
1, 397130, Control_c, 0, 64, 72
1, 397134, Note_off_c, 0, 74, 66
1, 397141, Note_off_c, 0, 86, 66
1, 397145, Control_c, 0, 64, 93
1, 397160, Control_c, 0, 64, 127
1, 397193, Note_on_c, 0, 58, 72
1, 397222, Note_off_c, 0, 58, 67
1, 397263, Note_on_c, 0, 74, 66
1, 397294, Control_c, 0, 64, 87
1, 397297, Note_off_c, 0, 74, 63
1, 397309, Control_c, 0, 64, 60
1, 397324, Control_c, 0, 64, 39
1, 397337, Note_on_c, 0, 72, 91
1, 397338, Note_on_c, 0, 84, 95
1, 397339, Control_c, 0, 64, 54
1, 397347, Note_on_c, 0, 79, 81
1, 397354, Control_c, 0, 64, 63
1, 397372, Note_off_c, 0, 72, 63
1, 397374, Note_on_c, 0, 74, 54
1, 397375, Note_off_c, 0, 74, 127
1, 397375, Note_off_c, 0, 79, 72
1, 397376, Control_c, 0, 64, 68
1, 397391, Control_c, 0, 64, 76
1, 397392, Note_off_c, 0, 84, 64
1, 397406, Control_c, 0, 64, 89
1, 397420, Control_c, 0, 64, 102
1, 397424, Note_on_c, 0, 57, 77
1, 397435, Control_c, 0, 64, 112
1, 397450, Control_c, 0, 64, 120
1, 397451, Note_off_c, 0, 57, 69
1, 397465, Control_c, 0, 64, 127
1, 397508, Note_on_c, 0, 72, 65
1, 397509, Control_c, 0, 64, 110
1, 397524, Control_c, 0, 64, 78
1, 397537, Note_off_c, 0, 72, 66
1, 397538, Control_c, 0, 64, 60
1, 397553, Control_c, 0, 64, 43
1, 397567, Note_on_c, 0, 70, 86
1, 397568, Note_on_c, 0, 82, 85
1, 397568, Control_c, 0, 64, 54
1, 397570, Note_on_c, 0, 79, 75
1, 397583, Control_c, 0, 64, 63
1, 397595, Note_off_c, 0, 79, 70
1, 397598, Control_c, 0, 64, 69
1, 397611, Note_off_c, 0, 70, 62
1, 397612, Control_c, 0, 64, 77
1, 397619, Note_off_c, 0, 82, 64
1, 397627, Control_c, 0, 64, 89
1, 397639, Note_on_c, 0, 55, 79
1, 397642, Control_c, 0, 64, 100
1, 397657, Control_c, 0, 64, 104
1, 397666, Note_off_c, 0, 55, 67
1, 397716, Control_c, 0, 64, 102
1, 397723, Note_on_c, 0, 70, 68
1, 397731, Control_c, 0, 64, 93
1, 397743, Note_off_c, 0, 70, 65
1, 397745, Control_c, 0, 64, 77
1, 397760, Control_c, 0, 64, 62
1, 397775, Control_c, 0, 64, 43
1, 397786, Note_on_c, 0, 74, 74
1, 397788, Note_on_c, 0, 81, 83
1, 397790, Control_c, 0, 64, 52
1, 397791, Note_on_c, 0, 69, 71
1, 397795, Note_on_c, 0, 71, 77
1, 397805, Control_c, 0, 64, 61
1, 397811, Note_off_c, 0, 74, 68
1, 397818, Note_off_c, 0, 71, 66
1, 397819, Control_c, 0, 64, 66
1, 397824, Note_off_c, 0, 69, 67
1, 397833, Note_off_c, 0, 81, 64
1, 397834, Control_c, 0, 64, 72
1, 397849, Control_c, 0, 64, 81
1, 397862, Note_on_c, 0, 53, 78
1, 397864, Control_c, 0, 64, 90
1, 397879, Control_c, 0, 64, 93
1, 397888, Note_off_c, 0, 53, 68
1, 397923, Control_c, 0, 64, 93
1, 397937, Note_on_c, 0, 69, 80
1, 397937, Control_c, 0, 64, 92
1, 397952, Control_c, 0, 64, 82
1, 397966, Note_off_c, 0, 69, 65
1, 397967, Control_c, 0, 64, 67
1, 397982, Control_c, 0, 64, 53
1, 397997, Control_c, 0, 64, 49
1, 398012, Note_on_c, 0, 79, 82
1, 398012, Control_c, 0, 64, 57
1, 398013, Note_on_c, 0, 67, 82
1, 398014, Note_on_c, 0, 72, 79
1, 398026, Control_c, 0, 64, 62
1, 398041, Control_c, 0, 64, 66
1, 398042, Note_off_c, 0, 72, 68
1, 398048, Note_off_c, 0, 67, 60
1, 398057, Control_c, 0, 64, 72
1, 398068, Note_off_c, 0, 79, 62
1, 398072, Control_c, 0, 64, 78
1, 398085, Note_on_c, 0, 52, 81
1, 398087, Control_c, 0, 64, 83
1, 398102, Control_c, 0, 64, 85
1, 398118, Note_off_c, 0, 52, 70
1, 398124, Control_c, 0, 64, 86
1, 398154, Control_c, 0, 64, 82
1, 398168, Control_c, 0, 64, 72
1, 398171, Note_on_c, 0, 67, 71
1, 398183, Control_c, 0, 64, 60
1, 398198, Control_c, 0, 64, 42
1, 398202, Note_off_c, 0, 67, 66
1, 398213, Control_c, 0, 64, 48
1, 398228, Control_c, 0, 64, 57
1, 398239, Note_on_c, 0, 65, 79
1, 398240, Note_on_c, 0, 77, 85
1, 398241, Note_on_c, 0, 71, 75
1, 398242, Control_c, 0, 64, 63
1, 398257, Control_c, 0, 64, 67
1, 398267, Note_off_c, 0, 71, 67
1, 398272, Control_c, 0, 64, 73
1, 398274, Note_off_c, 0, 65, 62
1, 398287, Control_c, 0, 64, 78
1, 398298, Note_off_c, 0, 77, 57
1, 398302, Control_c, 0, 64, 82
1, 398309, Note_on_c, 0, 50, 74
1, 398316, Control_c, 0, 64, 84
1, 398331, Control_c, 0, 64, 81
1, 398332, Note_off_c, 0, 50, 67
1, 398346, Control_c, 0, 64, 70
1, 398360, Control_c, 0, 64, 56
1, 398375, Control_c, 0, 64, 47
1, 398389, Note_on_c, 0, 65, 72
1, 398390, Control_c, 0, 64, 55
1, 398405, Control_c, 0, 64, 60
1, 398414, Note_off_c, 0, 65, 68
1, 398420, Control_c, 0, 64, 64
1, 398435, Control_c, 0, 64, 70
1, 398445, Note_on_c, 0, 64, 80
1, 398447, Note_on_c, 0, 72, 79
1, 398447, Note_on_c, 0, 76, 85
1, 398450, Control_c, 0, 64, 78
1, 398465, Control_c, 0, 64, 88
1, 398467, Note_off_c, 0, 64, 70
1, 398468, Note_off_c, 0, 72, 71
1, 398475, Note_off_c, 0, 76, 62
1, 398479, Control_c, 0, 64, 99
1, 398494, Control_c, 0, 64, 115
1, 398508, Control_c, 0, 64, 127
1, 398527, Note_on_c, 0, 48, 76
1, 398553, Control_c, 0, 64, 95
1, 398554, Note_off_c, 0, 48, 66
1, 398567, Control_c, 0, 64, 66
1, 398582, Control_c, 0, 64, 12
1, 398597, Control_c, 0, 64, 0
1, 398603, Note_on_c, 0, 62, 73
1, 398612, Control_c, 0, 64, 25
1, 398626, Control_c, 0, 64, 51
1, 398639, Note_off_c, 0, 62, 60
1, 398641, Control_c, 0, 64, 63
1, 398655, Note_on_c, 0, 61, 93
1, 398656, Control_c, 0, 64, 71
1, 398658, Note_on_c, 0, 73, 99
1, 398671, Control_c, 0, 64, 84
1, 398686, Control_c, 0, 64, 105
1, 398701, Control_c, 0, 64, 127
1, 398712, Note_off_c, 0, 61, 62
1, 398737, Note_off_c, 0, 73, 62
1, 398739, Note_on_c, 0, 52, 74
1, 398789, Note_off_c, 0, 52, 65
1, 398829, Note_on_c, 0, 61, 69
1, 398834, Control_c, 0, 64, 90
1, 398849, Control_c, 0, 64, 67
1, 398866, Note_off_c, 0, 61, 62
1, 398872, Control_c, 0, 64, 45
1, 398887, Control_c, 0, 64, 43
1, 398902, Control_c, 0, 64, 57
1, 398907, Note_on_c, 0, 72, 83
1, 398909, Note_on_c, 0, 60, 77
1, 398917, Control_c, 0, 64, 63
1, 398932, Control_c, 0, 64, 67
1, 398933, Note_off_c, 0, 60, 70
1, 398946, Control_c, 0, 64, 75
1, 398954, Note_off_c, 0, 72, 61
1, 398961, Control_c, 0, 64, 86
1, 398976, Control_c, 0, 64, 95
1, 398980, Note_on_c, 0, 52, 65
1, 398990, Control_c, 0, 64, 99
1, 399005, Control_c, 0, 64, 100
1, 399017, Note_off_c, 0, 52, 62
1, 399020, Control_c, 0, 64, 102
1, 399035, Control_c, 0, 64, 106
1, 399046, Note_on_c, 0, 60, 64
1, 399050, Control_c, 0, 64, 109
1, 399064, Control_c, 0, 64, 105
1, 399070, Note_off_c, 0, 60, 70
1, 399079, Control_c, 0, 64, 85
1, 399094, Control_c, 0, 64, 67
1, 399109, Control_c, 0, 64, 52
1, 399124, Control_c, 0, 64, 54
1, 399129, Note_on_c, 0, 70, 71
1, 399138, Note_on_c, 0, 58, 68
1, 399138, Control_c, 0, 64, 60
1, 399153, Control_c, 0, 64, 63
1, 399168, Control_c, 0, 64, 68
1, 399177, Note_off_c, 0, 58, 60
1, 399183, Control_c, 0, 64, 75
1, 399187, Note_on_c, 0, 52, 57
1, 399189, Note_off_c, 0, 70, 63
1, 399198, Control_c, 0, 64, 86
1, 399213, Control_c, 0, 64, 98
1, 399225, Note_off_c, 0, 52, 65
1, 399228, Control_c, 0, 64, 109
1, 399243, Control_c, 0, 64, 115
1, 399257, Control_c, 0, 64, 113
1, 399272, Control_c, 0, 64, 96
1, 399272, Note_on_c, 0, 58, 68
1, 399287, Control_c, 0, 64, 76
1, 399302, Control_c, 0, 64, 61
1, 399308, Note_off_c, 0, 58, 65
1, 399317, Control_c, 0, 64, 56
1, 399331, Control_c, 0, 64, 62
1, 399346, Control_c, 0, 64, 66
1, 399350, Note_on_c, 0, 57, 78
1, 399353, Note_on_c, 0, 69, 76
1, 399361, Control_c, 0, 64, 71
1, 399376, Control_c, 0, 64, 82
1, 399377, Note_off_c, 0, 57, 68
1, 399386, Note_off_c, 0, 69, 62
1, 399390, Control_c, 0, 64, 96
1, 399397, Note_on_c, 0, 53, 59
1, 399405, Control_c, 0, 64, 110
1, 399420, Control_c, 0, 64, 117
1, 399432, Note_off_c, 0, 53, 64
1, 399435, Control_c, 0, 64, 127
1, 399470, Note_on_c, 0, 57, 79
1, 399510, Note_off_c, 0, 57, 63
1, 399538, Control_c, 0, 64, 99
1, 399553, Control_c, 0, 64, 67
1, 399568, Control_c, 0, 64, 40
1, 399570, Note_on_c, 0, 56, 95
1, 399571, Note_on_c, 0, 59, 87
1, 399574, Note_on_c, 0, 68, 93
1, 399582, Control_c, 0, 64, 47
1, 399605, Control_c, 0, 64, 59
1, 399620, Control_c, 0, 64, 65
1, 399624, Note_on_c, 0, 43, 69
1, 399635, Control_c, 0, 64, 75
1, 399650, Control_c, 0, 64, 99
1, 399666, Control_c, 0, 64, 127
1, 399675, Note_off_c, 0, 59, 59
1, 399682, Note_off_c, 0, 56, 62
1, 399687, Note_off_c, 0, 43, 62
1, 399695, Note_off_c, 0, 68, 58
1, 399715, Note_on_c, 0, 56, 80
1, 399769, Control_c, 0, 64, 112
1, 399776, Note_off_c, 0, 56, 62
1, 399784, Control_c, 0, 64, 69
1, 399799, Note_on_c, 0, 55, 97
1, 399799, Control_c, 0, 64, 43
1, 399800, Note_on_c, 0, 67, 93
1, 399800, Note_on_c, 0, 59, 89
1, 399813, Control_c, 0, 64, 47
1, 399828, Control_c, 0, 64, 60
1, 399843, Control_c, 0, 64, 65
1, 399858, Control_c, 0, 64, 74
1, 399873, Note_on_c, 0, 43, 81
1, 399873, Control_c, 0, 64, 97
1, 399887, Control_c, 0, 64, 127
1, 399893, Note_off_c, 0, 55, 61
1, 399894, Note_off_c, 0, 59, 58
1, 399911, Note_off_c, 0, 67, 56
1, 399933, Note_off_c, 0, 43, 61
1, 399939, Note_on_c, 0, 55, 84
1, 399991, Note_off_c, 0, 55, 65
1, 400005, Control_c, 0, 64, 85
1, 400020, Control_c, 0, 64, 59
1, 400027, Note_on_c, 0, 59, 78
1, 400030, Note_on_c, 0, 53, 97
1, 400033, Note_on_c, 0, 65, 93
1, 400035, Control_c, 0, 64, 31
1, 400050, Control_c, 0, 64, 54
1, 400065, Control_c, 0, 64, 65
1, 400079, Control_c, 0, 64, 76
1, 400092, Note_on_c, 0, 43, 76
1, 400094, Control_c, 0, 64, 125
1, 400109, Control_c, 0, 64, 127
1, 400127, Note_off_c, 0, 53, 61
1, 400131, Note_off_c, 0, 65, 56
1, 400161, Note_off_c, 0, 59, 55
1, 400169, Note_off_c, 0, 43, 61
1, 400170, Note_on_c, 0, 53, 79
1, 400213, Note_off_c, 0, 53, 60
1, 400216, Poly_aftertouch_c, 0, 50, 127
1, 400227, Control_c, 0, 64, 90
1, 400242, Control_c, 0, 64, 57
1, 400250, Note_on_c, 0, 52, 58
1, 400256, Note_on_c, 0, 64, 89
1, 400257, Control_c, 0, 64, 0
1, 400258, Poly_aftertouch_c, 0, 50, 0
1, 400259, Note_on_c, 0, 60, 87
1, 400286, Note_on_c, 0, 58, 40
1, 400287, Note_off_c, 0, 58, 127
1, 400287, Control_c, 0, 64, 41
1, 400290, Note_off_c, 0, 52, 67
1, 400299, Note_off_c, 0, 60, 65
1, 400302, Control_c, 0, 64, 60
1, 400313, Note_off_c, 0, 64, 67
1, 400317, Control_c, 0, 64, 67
1, 400332, Control_c, 0, 64, 77
1, 400341, Note_on_c, 0, 48, 61
1, 400347, Control_c, 0, 64, 93
1, 400369, Control_c, 0, 64, 110
1, 400384, Control_c, 0, 64, 115
1, 400397, Note_off_c, 0, 48, 63
1, 400412, Note_on_c, 0, 52, 59
1, 400413, Control_c, 0, 64, 115
1, 400428, Control_c, 0, 64, 122
1, 400435, Note_off_c, 0, 52, 62
1, 400443, Control_c, 0, 64, 125
1, 400459, Control_c, 0, 64, 105
1, 400474, Control_c, 0, 64, 77
1, 400489, Control_c, 0, 64, 41
1, 400504, Control_c, 0, 64, 0
1, 400511, Note_on_c, 0, 75, 97
1, 400513, Note_on_c, 0, 63, 94
1, 400533, Control_c, 0, 64, 35
1, 400548, Control_c, 0, 64, 58
1, 400563, Control_c, 0, 64, 66
1, 400572, Note_off_c, 0, 63, 59
1, 400578, Control_c, 0, 64, 73
1, 400585, Note_on_c, 0, 54, 65
1, 400587, Note_off_c, 0, 75, 58
1, 400592, Control_c, 0, 64, 81
1, 400607, Control_c, 0, 64, 87
1, 400622, Control_c, 0, 64, 88
1, 400645, Note_off_c, 0, 54, 59
1, 400651, Control_c, 0, 64, 88
1, 400666, Control_c, 0, 64, 89
1, 400671, Note_on_c, 0, 63, 68
1, 400681, Control_c, 0, 64, 90
1, 400697, Note_off_c, 0, 63, 65
1, 400710, Control_c, 0, 64, 88
1, 400726, Control_c, 0, 64, 82
1, 400741, Control_c, 0, 64, 68
1, 400743, Note_on_c, 0, 74, 81
1, 400750, Note_on_c, 0, 62, 71
1, 400755, Control_c, 0, 64, 48
1, 400770, Control_c, 0, 64, 50
1, 400785, Control_c, 0, 64, 58
1, 400786, Note_off_c, 0, 62, 63
1, 400792, Note_off_c, 0, 74, 64
1, 400800, Control_c, 0, 64, 62
1, 400812, Note_on_c, 0, 54, 59
1, 400815, Control_c, 0, 64, 66
1, 400829, Control_c, 0, 64, 73
1, 400844, Control_c, 0, 64, 83
1, 400859, Control_c, 0, 64, 89
1, 400861, Note_off_c, 0, 54, 58
1, 400874, Control_c, 0, 64, 90
1, 400916, Note_on_c, 0, 62, 59
1, 400934, Control_c, 0, 64, 88
1, 400949, Control_c, 0, 64, 77
1, 400950, Note_off_c, 0, 62, 62
1, 400963, Control_c, 0, 64, 64
1, 400967, Note_on_c, 0, 72, 73
1, 400970, Note_on_c, 0, 60, 64
1, 400978, Control_c, 0, 64, 54
1, 400993, Control_c, 0, 64, 59
1, 401002, Note_off_c, 0, 60, 65
1, 401004, Note_off_c, 0, 72, 59
1, 401008, Control_c, 0, 64, 63
1, 401023, Control_c, 0, 64, 65
1, 401037, Control_c, 0, 64, 71
1, 401039, Note_on_c, 0, 54, 60
1, 401052, Control_c, 0, 64, 78
1, 401067, Control_c, 0, 64, 84
1, 401082, Control_c, 0, 64, 87
1, 401097, Control_c, 0, 64, 88
1, 401126, Note_off_c, 0, 54, 58
1, 401134, Control_c, 0, 64, 85
1, 401145, Note_on_c, 0, 60, 57
1, 401148, Control_c, 0, 64, 76
1, 401163, Control_c, 0, 64, 63
1, 401165, Note_off_c, 0, 60, 60
1, 401178, Control_c, 0, 64, 51
1, 401193, Control_c, 0, 64, 57
1, 401202, Note_on_c, 0, 71, 69
1, 401208, Control_c, 0, 64, 62
1, 401218, Note_on_c, 0, 59, 41
1, 401223, Control_c, 0, 64, 66
1, 401232, Note_off_c, 0, 71, 65
1, 401237, Control_c, 0, 64, 72
1, 401248, Note_off_c, 0, 59, 48
1, 401252, Control_c, 0, 64, 81
1, 401265, Note_on_c, 0, 55, 43
1, 401268, Control_c, 0, 64, 91
1, 401283, Control_c, 0, 64, 94
1, 401312, Control_c, 0, 64, 94
1, 401316, Note_off_c, 0, 55, 62
1, 401318, Note_on_c, 0, 59, 68
1, 401327, Control_c, 0, 64, 96
1, 401342, Control_c, 0, 64, 100
1, 401345, Note_off_c, 0, 59, 67
1, 401357, Control_c, 0, 64, 104
1, 401372, Control_c, 0, 64, 105
1, 401386, Control_c, 0, 64, 99
1, 401401, Control_c, 0, 64, 82
1, 401416, Control_c, 0, 64, 62
1, 401425, Note_on_c, 0, 70, 76
1, 401429, Note_on_c, 0, 61, 69
1, 401431, Control_c, 0, 64, 49
1, 401433, Note_on_c, 0, 58, 68
1, 401446, Control_c, 0, 64, 56
1, 401460, Control_c, 0, 64, 62
1, 401475, Control_c, 0, 64, 66
1, 401481, Note_off_c, 0, 61, 55
1, 401488, Note_on_c, 0, 45, 62
1, 401488, Note_off_c, 0, 58, 52
1, 401490, Control_c, 0, 64, 72
1, 401505, Control_c, 0, 64, 82
1, 401515, Note_off_c, 0, 70, 59
1, 401520, Control_c, 0, 64, 91
1, 401527, Note_off_c, 0, 45, 65
1, 401534, Control_c, 0, 64, 92
1, 401595, Note_on_c, 0, 58, 56
1, 401623, Control_c, 0, 64, 91
1, 401627, Note_off_c, 0, 58, 63
1, 401638, Control_c, 0, 64, 85
1, 401652, Control_c, 0, 64, 74
1, 401660, Note_on_c, 0, 57, 62
1, 401660, Note_on_c, 0, 69, 70
1, 401665, Note_on_c, 0, 61, 57
1, 401667, Control_c, 0, 64, 64
1, 401682, Control_c, 0, 64, 63
1, 401697, Control_c, 0, 64, 66
1, 401699, Note_off_c, 0, 57, 63
1, 401702, Note_off_c, 0, 61, 63
1, 401712, Control_c, 0, 64, 70
1, 401718, Note_on_c, 0, 45, 57
1, 401721, Note_off_c, 0, 69, 61
1, 401727, Control_c, 0, 64, 76
1, 401742, Control_c, 0, 64, 85
1, 401757, Control_c, 0, 64, 95
1, 401762, Note_off_c, 0, 45, 64
1, 401771, Control_c, 0, 64, 102
1, 401786, Control_c, 0, 64, 104
1, 401801, Control_c, 0, 64, 101
1, 401808, Note_on_c, 0, 57, 63
1, 401816, Control_c, 0, 64, 96
1, 401831, Control_c, 0, 64, 83
1, 401843, Note_off_c, 0, 57, 66
1, 401846, Control_c, 0, 64, 68
1, 401867, Control_c, 0, 64, 60
1, 401876, Note_on_c, 0, 55, 73
1, 401876, Note_on_c, 0, 61, 73
1, 401879, Note_on_c, 0, 67, 81
1, 401882, Control_c, 0, 64, 64
1, 401897, Control_c, 0, 64, 68
1, 401909, Note_off_c, 0, 55, 67
1, 401912, Control_c, 0, 64, 73
1, 401922, Note_off_c, 0, 61, 60
1, 401927, Control_c, 0, 64, 81
1, 401938, Note_off_c, 0, 67, 63
1, 401941, Control_c, 0, 64, 92
1, 401947, Note_on_c, 0, 45, 68
1, 401956, Control_c, 0, 64, 104
1, 401971, Control_c, 0, 64, 112
1, 401986, Control_c, 0, 64, 115
1, 401995, Note_off_c, 0, 45, 62
1, 402001, Control_c, 0, 64, 127
1, 402010, Note_on_c, 0, 55, 81
1, 402040, Note_off_c, 0, 55, 67
1, 402061, Control_c, 0, 64, 101
1, 402076, Control_c, 0, 64, 69
1, 402083, Note_on_c, 0, 62, 22
1, 402090, Control_c, 0, 64, 36
1, 402102, Note_on_c, 0, 54, 91
1, 402105, Control_c, 0, 64, 30
1, 402106, Note_on_c, 0, 66, 84
1, 402120, Control_c, 0, 64, 52
1, 402133, Note_off_c, 0, 54, 66
1, 402135, Control_c, 0, 64, 61
1, 402150, Control_c, 0, 64, 69
1, 402151, Note_off_c, 0, 62, 63
1, 402165, Control_c, 0, 64, 82
1, 402170, Note_off_c, 0, 66, 62
1, 402171, Note_on_c, 0, 45, 71
1, 402176, Note_on_c, 0, 44, 49
1, 402180, Control_c, 0, 64, 127
1, 402217, Note_off_c, 0, 44, 53
1, 402222, Note_off_c, 0, 45, 61
1, 402254, Note_on_c, 0, 54, 74
1, 402298, Control_c, 0, 64, 111
1, 402313, Control_c, 0, 64, 71
1, 402324, Note_off_c, 0, 54, 61
1, 402328, Control_c, 0, 64, 52
1, 402332, Note_on_c, 0, 69, 87
1, 402335, Note_on_c, 0, 57, 68
1, 402343, Control_c, 0, 64, 56
1, 402353, Note_off_c, 0, 57, 65
1, 402357, Control_c, 0, 64, 64
1, 402370, Note_off_c, 0, 69, 62
1, 402372, Control_c, 0, 64, 71
1, 402374, Note_on_c, 0, 45, 68
1, 402387, Control_c, 0, 64, 85
1, 402401, Control_c, 0, 64, 127
1, 402415, Note_off_c, 0, 45, 61
1, 402442, Note_on_c, 0, 57, 69
1, 402478, Note_off_c, 0, 57, 65
1, 402535, Control_c, 0, 64, 84
1, 402549, Control_c, 0, 64, 62
1, 402555, Note_on_c, 0, 65, 82
1, 402558, Note_on_c, 0, 62, 75
1, 402559, Note_on_c, 0, 74, 87
1, 402562, Note_on_c, 0, 69, 76
1, 402564, Control_c, 0, 64, 54
1, 402576, Note_off_c, 0, 65, 70
1, 402579, Control_c, 0, 64, 63
1, 402585, Note_off_c, 0, 62, 68
1, 402586, Note_off_c, 0, 69, 67
1, 402594, Control_c, 0, 64, 70
1, 402611, Note_off_c, 0, 74, 67
1, 402616, Control_c, 0, 64, 86
1, 402631, Control_c, 0, 64, 127
1, 402651, Note_on_c, 0, 57, 54
1, 402659, Note_on_c, 0, 55, 52
1, 402684, Note_off_c, 0, 55, 58
1, 402692, Note_off_c, 0, 57, 65
1, 402696, Note_on_c, 0, 61, 70
1, 402713, Note_off_c, 0, 61, 65
1, 402723, Note_on_c, 0, 62, 61
1, 402746, Note_off_c, 0, 62, 64
1, 402763, Note_on_c, 0, 74, 91
1, 402766, Note_on_c, 0, 81, 96
1, 402768, Note_on_c, 0, 69, 91
1, 402794, Note_off_c, 0, 69, 64
1, 402800, Note_off_c, 0, 74, 67
1, 402813, Note_off_c, 0, 81, 68
1, 402845, Note_on_c, 0, 57, 90
1, 402893, Note_off_c, 0, 57, 67
1, 402899, Control_c, 0, 64, 115
1, 402913, Control_c, 0, 64, 70
1, 402919, Note_on_c, 0, 69, 85
1, 402928, Control_c, 0, 64, 39
1, 402943, Control_c, 0, 64, 0
1, 402950, Note_off_c, 0, 69, 67
1, 402958, Control_c, 0, 64, 26
1, 402973, Control_c, 0, 64, 54
1, 402986, Note_on_c, 0, 74, 74
1, 402988, Control_c, 0, 64, 67
1, 402991, Note_on_c, 0, 68, 105
1, 402991, Note_on_c, 0, 80, 98
1, 403003, Control_c, 0, 64, 84
1, 403017, Control_c, 0, 64, 127
1, 403032, Note_on_c, 0, 78, 32
1, 403038, Note_off_c, 0, 74, 64
1, 403041, Note_off_c, 0, 68, 61
1, 403043, Note_off_c, 0, 80, 68
1, 403065, Note_off_c, 0, 78, 38
1, 403066, Note_on_c, 0, 57, 91
1, 403104, Note_off_c, 0, 57, 66
1, 403134, Note_on_c, 0, 68, 78
1, 403152, Note_off_c, 0, 68, 72
1, 403223, Note_on_c, 0, 62, 85
1, 403223, Note_on_c, 0, 74, 83
1, 403227, Note_on_c, 0, 68, 88
1, 403266, Note_off_c, 0, 62, 62
1, 403276, Note_off_c, 0, 68, 61
1, 403287, Note_off_c, 0, 74, 61
1, 403298, Note_on_c, 0, 45, 78
1, 403359, Note_off_c, 0, 45, 63
1, 403381, Note_on_c, 0, 57, 77
1, 403425, Control_c, 0, 64, 94
1, 403426, Note_off_c, 0, 57, 63
1, 403439, Control_c, 0, 64, 62
1, 403454, Control_c, 0, 64, 15
1, 403459, Note_on_c, 0, 61, 90
1, 403461, Note_on_c, 0, 67, 77
1, 403462, Note_on_c, 0, 73, 92
1, 403469, Control_c, 0, 64, 45
1, 403478, Note_off_c, 0, 61, 71
1, 403484, Control_c, 0, 64, 58
1, 403490, Note_off_c, 0, 67, 68
1, 403497, Note_on_c, 0, 45, 87
1, 403499, Control_c, 0, 64, 65
1, 403513, Note_off_c, 0, 73, 66
1, 403513, Control_c, 0, 64, 74
1, 403528, Control_c, 0, 64, 93
1, 403543, Control_c, 0, 64, 127
1, 403558, Note_off_c, 0, 45, 63
1, 403581, Note_on_c, 0, 57, 88
1, 403589, Note_on_c, 0, 50, 41
1, 403620, Note_off_c, 0, 50, 55
1, 403620, Note_off_c, 0, 57, 63
1, 403669, Poly_aftertouch_c, 0, 75, 0
1, 403681, Note_on_c, 0, 79, 88
1, 403682, Note_on_c, 0, 67, 87
1, 403683, Note_on_c, 0, 73, 86
1, 403714, Poly_aftertouch_c, 0, 75, 0
1, 403721, Note_off_c, 0, 67, 59
1, 403724, Note_off_c, 0, 79, 64
1, 403726, Note_off_c, 0, 73, 62
1, 403736, Note_on_c, 0, 57, 87
1, 403807, Note_off_c, 0, 57, 64
1, 403825, Note_on_c, 0, 67, 91
1, 403854, Control_c, 0, 64, 78
1, 403855, Note_off_c, 0, 67, 67
1, 403869, Control_c, 0, 64, 54
1, 403884, Control_c, 0, 64, 40
1, 403899, Control_c, 0, 64, 57
1, 403909, Note_on_c, 0, 78, 94
1, 403911, Note_on_c, 0, 66, 93
1, 403914, Control_c, 0, 64, 64
1, 403915, Note_on_c, 0, 72, 84
1, 403928, Control_c, 0, 64, 74
1, 403943, Control_c, 0, 64, 102
1, 403948, Note_off_c, 0, 72, 61
1, 403952, Note_off_c, 0, 66, 65
1, 403955, Note_off_c, 0, 78, 68
1, 403958, Control_c, 0, 64, 127
1, 403975, Note_on_c, 0, 57, 86
1, 404034, Note_off_c, 0, 57, 65
1, 404055, Note_on_c, 0, 66, 73
1, 404074, Note_off_c, 0, 66, 72
1, 404134, Note_on_c, 0, 72, 86
1, 404138, Note_on_c, 0, 60, 86
1, 404142, Note_on_c, 0, 66, 81
1, 404188, Note_off_c, 0, 60, 62
1, 404190, Note_off_c, 0, 66, 59
1, 404209, Note_off_c, 0, 72, 62
1, 404216, Note_on_c, 0, 45, 82
1, 404266, Note_off_c, 0, 45, 64
1, 404296, Note_on_c, 0, 57, 75
1, 404306, Control_c, 0, 64, 112
1, 404321, Control_c, 0, 64, 70
1, 404335, Control_c, 0, 64, 41
1, 404344, Note_off_c, 0, 57, 59
1, 404350, Control_c, 0, 64, 33
1, 404355, Note_on_c, 0, 65, 80
1, 404357, Note_on_c, 0, 59, 78
1, 404357, Note_on_c, 0, 71, 83
1, 404365, Control_c, 0, 64, 50
1, 404380, Control_c, 0, 64, 61
1, 404381, Note_off_c, 0, 59, 69
1, 404383, Note_off_c, 0, 65, 68
1, 404395, Control_c, 0, 64, 67
1, 404401, Note_off_c, 0, 71, 65
1, 404410, Control_c, 0, 64, 77
1, 404424, Control_c, 0, 64, 96
1, 404429, Note_on_c, 0, 45, 83
1, 404439, Control_c, 0, 64, 127
1, 404472, Note_off_c, 0, 45, 62
1, 404505, Note_on_c, 0, 57, 67
1, 404533, Note_off_c, 0, 57, 68
1, 404589, Note_on_c, 0, 77, 96
1, 404592, Note_on_c, 0, 65, 87
1, 404599, Note_on_c, 0, 71, 76
1, 404620, Note_off_c, 0, 71, 71
1, 404643, Note_off_c, 0, 65, 62
1, 404643, Note_off_c, 0, 77, 64
1, 404678, Note_on_c, 0, 57, 80
1, 404727, Note_off_c, 0, 57, 64
1, 404748, Note_on_c, 0, 65, 83
1, 404782, Control_c, 0, 64, 89
1, 404785, Note_off_c, 0, 65, 60
1, 404796, Control_c, 0, 64, 65
1, 404811, Control_c, 0, 64, 47
1, 404820, Note_on_c, 0, 76, 97
1, 404824, Note_on_c, 0, 64, 88
1, 404824, Note_on_c, 0, 70, 91
1, 404826, Control_c, 0, 64, 55
1, 404841, Control_c, 0, 64, 62
1, 404863, Control_c, 0, 64, 67
1, 404875, Note_off_c, 0, 64, 64
1, 404878, Control_c, 0, 64, 77
1, 404887, Note_off_c, 0, 70, 63
1, 404892, Control_c, 0, 64, 97
1, 404894, Note_off_c, 0, 76, 62
1, 404907, Control_c, 0, 64, 127
1, 404918, Note_on_c, 0, 57, 83
1, 404975, Note_off_c, 0, 57, 63
1, 404988, Note_on_c, 0, 64, 74
1, 405022, Note_off_c, 0, 64, 62
1, 405026, Control_c, 0, 64, 87
1, 405041, Control_c, 0, 64, 61
1, 405046, Note_on_c, 0, 62, 84
1, 405046, Note_on_c, 0, 74, 89
1, 405050, Note_on_c, 0, 70, 83
1, 405056, Control_c, 0, 64, 49
1, 405071, Control_c, 0, 64, 60
1, 405085, Control_c, 0, 64, 65
1, 405086, Note_off_c, 0, 62, 60
1, 405100, Control_c, 0, 64, 71
1, 405106, Note_off_c, 0, 70, 65
1, 405115, Control_c, 0, 64, 82
1, 405122, Note_off_c, 0, 74, 61
1, 405130, Control_c, 0, 64, 106
1, 405136, Note_on_c, 0, 57, 79
1, 405145, Control_c, 0, 64, 127
1, 405189, Note_off_c, 0, 57, 64
1, 405204, Note_on_c, 0, 62, 65
1, 405238, Note_off_c, 0, 62, 62
1, 405248, Control_c, 0, 64, 91
1, 405264, Control_c, 0, 64, 66
1, 405279, Control_c, 0, 64, 45
1, 405280, Note_on_c, 0, 76, 94
1, 405282, Note_on_c, 0, 64, 91
1, 405283, Note_on_c, 0, 67, 82
1, 405286, Note_on_c, 0, 69, 83
1, 405294, Control_c, 0, 64, 52
1, 405308, Control_c, 0, 64, 61
1, 405323, Control_c, 0, 64, 67
1, 405325, Note_off_c, 0, 67, 58
1, 405331, Note_off_c, 0, 64, 61
1, 405338, Note_off_c, 0, 69, 63
1, 405338, Control_c, 0, 64, 76
1, 405346, Note_on_c, 0, 57, 67
1, 405353, Control_c, 0, 64, 94
1, 405368, Control_c, 0, 64, 127
1, 405404, Note_off_c, 0, 57, 63
1, 405408, Note_off_c, 0, 76, 40
1, 405420, Note_on_c, 0, 64, 59
1, 405447, Note_off_c, 0, 64, 56
1, 405501, Note_on_c, 0, 67, 85
1, 405501, Note_on_c, 0, 69, 89
1, 405504, Note_on_c, 0, 64, 90
1, 405531, Note_off_c, 0, 64, 62
1, 405546, Note_off_c, 0, 67, 60
1, 405558, Note_off_c, 0, 69, 63
1, 405563, Note_on_c, 0, 45, 69
1, 405637, Note_off_c, 0, 45, 63
1, 405651, Note_on_c, 0, 57, 72
1, 405703, Note_off_c, 0, 57, 61
1, 405715, Control_c, 0, 64, 90
1, 405730, Control_c, 0, 64, 57
1, 405737, Note_on_c, 0, 50, 93
1, 405738, Note_on_c, 0, 74, 98
1, 405745, Control_c, 0, 64, 0
1, 405790, Control_c, 0, 64, 21
1, 405805, Control_c, 0, 64, 61
1, 405819, Note_on_c, 0, 69, 89
1, 405820, Control_c, 0, 64, 74
1, 405834, Control_c, 0, 64, 127
1, 405840, Note_off_c, 0, 74, 56
1, 405852, Note_off_c, 0, 50, 62
1, 405901, Note_on_c, 0, 65, 84
1, 405902, Note_off_c, 0, 69, 64
1, 405961, Note_off_c, 0, 65, 59
1, 405968, Note_on_c, 0, 69, 81
1, 406044, Note_off_c, 0, 69, 64
1, 406047, Note_on_c, 0, 65, 84
1, 406098, Note_off_c, 0, 65, 59
1, 406117, Note_on_c, 0, 62, 86
1, 406157, Note_off_c, 0, 62, 66
1, 406227, Note_on_c, 0, 41, 89
1, 406228, Note_on_c, 0, 53, 103
1, 406249, Control_c, 0, 64, 64
1, 406264, Control_c, 0, 64, 0
1, 406294, Control_c, 0, 64, 43
1, 406309, Control_c, 0, 64, 60
1, 406311, Note_off_c, 0, 41, 65
1, 406323, Control_c, 0, 64, 69
1, 406338, Control_c, 0, 64, 90
1, 406340, Note_off_c, 0, 53, 65
1, 406361, Control_c, 0, 64, 127
1, 406368, Note_on_c, 0, 65, 92
1, 406461, Note_off_c, 0, 65, 61
1, 406468, Note_on_c, 0, 77, 92
1, 406509, Note_off_c, 0, 77, 68
1, 406553, Note_on_c, 0, 62, 77
1, 406556, Note_on_c, 0, 65, 87
1, 406565, Note_on_c, 0, 53, 69
1, 406637, Note_on_c, 0, 77, 99
1, 406639, Note_off_c, 0, 62, 62
1, 406646, Note_off_c, 0, 65, 61
1, 406655, Note_off_c, 0, 53, 60
1, 406711, Note_on_c, 0, 89, 95
1, 406725, Note_off_c, 0, 77, 61
1, 406761, Note_off_c, 0, 89, 67
1, 406792, Note_on_c, 0, 61, 90
1, 406794, Note_on_c, 0, 64, 88
1, 406804, Note_on_c, 0, 53, 74
1, 406817, Note_off_c, 0, 64, 67
1, 406834, Note_off_c, 0, 61, 65
1, 406845, Note_off_c, 0, 53, 63
1, 406868, Note_on_c, 0, 88, 99
1, 406925, Note_off_c, 0, 88, 64
1, 406947, Note_on_c, 0, 76, 96
1, 406984, Note_off_c, 0, 76, 67
1, 407010, Note_on_c, 0, 53, 83
1, 407013, Note_on_c, 0, 41, 77
1, 407077, Note_off_c, 0, 53, 58
1, 407082, Note_off_c, 0, 41, 61
1, 407087, Note_on_c, 0, 76, 99
1, 407150, Note_off_c, 0, 76, 63
1, 407167, Note_on_c, 0, 64, 88
1, 407184, Control_c, 0, 64, 79
1, 407198, Control_c, 0, 64, 18
1, 407211, Note_off_c, 0, 64, 66
1, 407213, Control_c, 0, 64, 0
1, 407221, Note_on_c, 0, 41, 84
1, 407223, Note_on_c, 0, 53, 100
1, 407258, Control_c, 0, 64, 29
1, 407265, Note_off_c, 0, 41, 64
1, 407271, Note_on_c, 0, 69, 48
1, 407272, Control_c, 0, 64, 65
1, 407277, Note_on_c, 0, 71, 3
1, 407277, Note_off_c, 0, 53, 66
1, 407287, Control_c, 0, 64, 93
1, 407296, Note_on_c, 0, 63, 91
1, 407302, Control_c, 0, 64, 127
1, 407352, Note_off_c, 0, 63, 64
1, 407372, Note_on_c, 0, 75, 85
1, 407385, Note_off_c, 0, 69, 63
1, 407390, Note_off_c, 0, 71, 28
1, 407408, Note_off_c, 0, 75, 62
1, 407455, Note_on_c, 0, 63, 73
1, 407457, Note_on_c, 0, 53, 66
1, 407459, Note_on_c, 0, 60, 69
1, 407496, Note_on_c, 0, 75, 88
1, 407510, Note_off_c, 0, 60, 59
1, 407511, Note_off_c, 0, 53, 54
1, 407530, Note_off_c, 0, 63, 50
1, 407548, Note_off_c, 0, 75, 64
1, 407560, Note_on_c, 0, 87, 89
1, 407610, Note_off_c, 0, 87, 63
1, 407626, Note_on_c, 0, 62, 85
1, 407629, Note_on_c, 0, 58, 83
1, 407631, Note_on_c, 0, 86, 91
1, 407636, Note_on_c, 0, 53, 68
1, 407665, Note_off_c, 0, 62, 60
1, 407674, Note_on_c, 0, 84, 35
1, 407689, Note_off_c, 0, 58, 63
1, 407691, Note_off_c, 0, 53, 60
1, 407700, Note_off_c, 0, 84, 57
1, 407712, Note_on_c, 0, 82, 80
1, 407730, Note_off_c, 0, 86, 62
1, 407775, Note_on_c, 0, 77, 80
1, 407815, Note_off_c, 0, 82, 64
1, 407849, Note_off_c, 0, 77, 64
1, 407858, Note_on_c, 0, 74, 73
1, 407888, Note_off_c, 0, 74, 65
1, 407938, Note_on_c, 0, 70, 83
1, 407991, Note_on_c, 0, 65, 89
1, 407992, Control_c, 0, 64, 87
1, 408007, Control_c, 0, 64, 54
1, 408012, Note_off_c, 0, 70, 65
1, 408021, Control_c, 0, 64, 0
1, 408034, Note_off_c, 0, 65, 64
1, 408037, Note_on_c, 0, 53, 100
1, 408039, Note_on_c, 0, 41, 88
1, 408051, Control_c, 0, 64, 23
1, 408066, Control_c, 0, 64, 58
1, 408071, Note_off_c, 0, 41, 66
1, 408081, Control_c, 0, 64, 70
1, 408085, Note_off_c, 0, 53, 67
1, 408095, Control_c, 0, 64, 90
1, 408110, Control_c, 0, 64, 127
1, 408156, Note_on_c, 0, 65, 78
1, 408209, Note_off_c, 0, 65, 63
1, 408223, Note_on_c, 0, 77, 85
1, 408252, Note_off_c, 0, 77, 65
1, 408265, Note_on_c, 0, 62, 72
1, 408269, Note_on_c, 0, 65, 72
1, 408270, Note_on_c, 0, 53, 67
1, 408309, Note_off_c, 0, 62, 61
1, 408325, Note_off_c, 0, 65, 60
1, 408334, Note_on_c, 0, 77, 97
1, 408347, Note_off_c, 0, 53, 62
1, 408395, Note_off_c, 0, 77, 65
1, 408406, Note_on_c, 0, 89, 93
1, 408445, Note_off_c, 0, 89, 64
1, 408463, Note_on_c, 0, 61, 86
1, 408467, Note_on_c, 0, 64, 89
1, 408470, Note_on_c, 0, 53, 80
1, 408489, Note_off_c, 0, 64, 70
1, 408501, Note_off_c, 0, 61, 67
1, 408514, Note_off_c, 0, 53, 66
1, 408538, Note_on_c, 0, 89, 101
1, 408551, Note_on_c, 0, 88, 68
1, 408573, Note_off_c, 0, 88, 39
1, 408589, Note_off_c, 0, 89, 63
1, 408627, Note_on_c, 0, 76, 93
1, 408656, Note_off_c, 0, 76, 65
1, 408681, Note_on_c, 0, 53, 84
1, 408686, Note_on_c, 0, 41, 78
1, 408735, Note_off_c, 0, 53, 60
1, 408738, Note_off_c, 0, 41, 58
1, 408763, Note_on_c, 0, 76, 89
1, 408798, Note_on_c, 0, 74, 35
1, 408799, Note_off_c, 0, 74, 127
1, 408806, Note_off_c, 0, 76, 66
1, 408829, Note_on_c, 0, 64, 83
1, 408844, Control_c, 0, 64, 71
1, 408855, Note_off_c, 0, 64, 68
1, 408859, Control_c, 0, 64, 0
1, 408882, Note_on_c, 0, 53, 94
1, 408883, Note_on_c, 0, 41, 85
1, 408902, Note_on_c, 0, 69, 20
1, 408917, Note_off_c, 0, 41, 66
1, 408919, Control_c, 0, 64, 55
1, 408932, Note_off_c, 0, 53, 66
1, 408933, Control_c, 0, 64, 69
1, 408938, Note_on_c, 0, 63, 94
1, 408948, Control_c, 0, 64, 103
1, 408962, Control_c, 0, 64, 127
1, 408999, Note_off_c, 0, 63, 63
1, 409015, Note_on_c, 0, 75, 84
1, 409035, Note_off_c, 0, 69, 56
1, 409055, Note_off_c, 0, 75, 61
1, 409096, Note_on_c, 0, 60, 70
1, 409097, Note_on_c, 0, 63, 77
1, 409104, Note_on_c, 0, 53, 65
1, 409141, Note_on_c, 0, 75, 89
1, 409155, Note_off_c, 0, 60, 63
1, 409160, Note_off_c, 0, 53, 54
1, 409176, Note_off_c, 0, 63, 52
1, 409197, Note_off_c, 0, 75, 62
1, 409209, Note_on_c, 0, 87, 89
1, 409256, Note_off_c, 0, 87, 63
1, 409278, Note_on_c, 0, 58, 86
1, 409282, Note_on_c, 0, 62, 85
1, 409283, Note_on_c, 0, 86, 91
1, 409291, Note_on_c, 0, 53, 73
1, 409321, Note_off_c, 0, 62, 58
1, 409346, Note_off_c, 0, 58, 63
1, 409355, Note_off_c, 0, 53, 62
1, 409366, Note_on_c, 0, 82, 87
1, 409397, Note_off_c, 0, 86, 61
1, 409435, Note_on_c, 0, 77, 84
1, 409465, Note_off_c, 0, 82, 63
1, 409492, Note_off_c, 0, 77, 63
1, 409495, Note_on_c, 0, 74, 75
1, 409531, Note_off_c, 0, 74, 61
1, 409583, Note_on_c, 0, 70, 80
1, 409638, Note_on_c, 0, 65, 86
1, 409652, Control_c, 0, 64, 90
1, 409664, Note_off_c, 0, 70, 63
1, 409666, Control_c, 0, 64, 54
1, 409680, Note_off_c, 0, 65, 66
1, 409681, Control_c, 0, 64, 0
1, 409692, Note_on_c, 0, 50, 99
1, 409693, Note_on_c, 0, 38, 84
1, 409722, Note_off_c, 0, 38, 65
1, 409726, Control_c, 0, 64, 55
1, 409733, Note_off_c, 0, 50, 66
1, 409740, Control_c, 0, 64, 68
1, 409755, Control_c, 0, 64, 86
1, 409770, Control_c, 0, 64, 127
1, 409772, Note_on_c, 0, 62, 86
1, 409827, Note_off_c, 0, 62, 63
1, 409847, Note_on_c, 0, 74, 82
1, 409879, Note_off_c, 0, 74, 65
1, 409897, Note_on_c, 0, 62, 79
1, 409898, Note_on_c, 0, 50, 75
1, 409927, Note_off_c, 0, 50, 66
1, 409927, Note_off_c, 0, 62, 66
1, 409961, Note_on_c, 0, 74, 93
1, 410015, Note_off_c, 0, 74, 64
1, 410029, Note_on_c, 0, 86, 92
1, 410067, Note_off_c, 0, 86, 64
1, 410095, Note_on_c, 0, 61, 92
1, 410103, Note_on_c, 0, 49, 83
1, 410126, Note_off_c, 0, 61, 61
1, 410133, Note_off_c, 0, 49, 65
1, 410159, Note_on_c, 0, 85, 97
1, 410224, Note_off_c, 0, 85, 63
1, 410234, Note_on_c, 0, 73, 81
1, 410247, Note_off_c, 0, 73, 71
1, 410300, Note_on_c, 0, 38, 69
1, 410306, Note_on_c, 0, 49, 72
1, 410322, Note_on_c, 0, 37, 52
1, 410345, Poly_aftertouch_c, 0, 72, 0
1, 410356, Note_on_c, 0, 73, 87
1, 410359, Note_off_c, 0, 37, 54
1, 410359, Note_off_c, 0, 49, 52
1, 410375, Note_off_c, 0, 38, 55
1, 410423, Note_on_c, 0, 61, 86
1, 410432, Note_off_c, 0, 73, 63
1, 410445, Control_c, 0, 64, 81
1, 410459, Control_c, 0, 64, 36
1, 410467, Note_off_c, 0, 61, 60
1, 410473, Note_on_c, 0, 70, 37
1, 410474, Note_on_c, 0, 48, 99
1, 410474, Control_c, 0, 64, 0
1, 410475, Note_on_c, 0, 38, 78
1, 410484, Note_on_c, 0, 36, 83
1, 410512, Note_off_c, 0, 36, 69
1, 410517, Note_off_c, 0, 70, 46
1, 410518, Control_c, 0, 64, 54
1, 410526, Note_off_c, 0, 38, 61
1, 410529, Note_off_c, 0, 48, 60
1, 410533, Control_c, 0, 64, 69
1, 410547, Note_on_c, 0, 60, 81
1, 410548, Control_c, 0, 64, 85
1, 410562, Control_c, 0, 64, 127
1, 410598, Note_off_c, 0, 60, 64
1, 410601, Note_on_c, 0, 67, 45
1, 410617, Note_on_c, 0, 72, 80
1, 410633, Note_off_c, 0, 67, 65
1, 410655, Note_off_c, 0, 72, 66
1, 410695, Note_on_c, 0, 50, 85
1, 410705, Note_on_c, 0, 62, 71
1, 410708, Note_on_c, 0, 60, 61
1, 410720, Note_off_c, 0, 50, 68
1, 410732, Note_off_c, 0, 62, 63
1, 410737, Note_off_c, 0, 60, 65
1, 410743, Note_on_c, 0, 72, 76
1, 410809, Note_off_c, 0, 72, 63
1, 410812, Note_on_c, 0, 84, 81
1, 410848, Note_off_c, 0, 84, 63
1, 410881, Note_on_c, 0, 59, 90
1, 410883, Note_on_c, 0, 47, 93
1, 410911, Note_off_c, 0, 59, 63
1, 410920, Note_off_c, 0, 47, 62
1, 410947, Note_on_c, 0, 83, 102
1, 410992, Poly_aftertouch_c, 0, 57, 0
1, 410995, Note_on_c, 0, 82, 22
1, 410999, Note_off_c, 0, 83, 60
1, 411021, Note_on_c, 0, 71, 83
1, 411032, Note_off_c, 0, 82, 34
1, 411047, Note_off_c, 0, 71, 62
1, 411093, Note_on_c, 0, 38, 69
1, 411093, Note_on_c, 0, 47, 73
1, 411093, Note_on_c, 0, 35, 72
1, 411138, Note_on_c, 0, 71, 88
1, 411144, Note_off_c, 0, 35, 61
1, 411149, Note_on_c, 0, 72, 79
1, 411149, Note_off_c, 0, 47, 61
1, 411168, Note_off_c, 0, 72, 64
1, 411196, Note_on_c, 0, 59, 89
1, 411200, Note_off_c, 0, 71, 60
1, 411237, Control_c, 0, 64, 98
1, 411238, Note_off_c, 0, 59, 66
1, 411252, Control_c, 0, 64, 59
1, 411256, Note_on_c, 0, 64, 38
1, 411267, Control_c, 0, 64, 0
1, 411271, Note_on_c, 0, 46, 93
1, 411278, Note_on_c, 0, 34, 73
1, 411278, Poly_aftertouch_c, 0, 72, 0
1, 411300, Note_off_c, 0, 34, 65
1, 411311, Control_c, 0, 64, 24
1, 411317, Note_off_c, 0, 38, 58
1, 411319, Note_off_c, 0, 46, 63
1, 411326, Note_on_c, 0, 58, 90
1, 411326, Control_c, 0, 64, 63
1, 411341, Control_c, 0, 64, 79
1, 411356, Control_c, 0, 64, 127
1, 411383, Note_off_c, 0, 58, 65
1, 411403, Note_on_c, 0, 70, 78
1, 411419, Note_off_c, 0, 64, 62
1, 411444, Note_off_c, 0, 70, 67
1, 411477, Note_on_c, 0, 58, 90
1, 411479, Note_on_c, 0, 50, 75
1, 411484, Note_on_c, 0, 46, 69
1, 411531, Note_off_c, 0, 46, 54
1, 411533, Note_off_c, 0, 58, 61
1, 411543, Note_on_c, 0, 70, 77
1, 411555, Note_off_c, 0, 50, 53
1, 411558, Note_on_c, 0, 68, 56
1, 411579, Note_off_c, 0, 68, 59
1, 411606, Note_on_c, 0, 82, 89
1, 411615, Note_off_c, 0, 70, 63
1, 411646, Control_c, 0, 64, 85
1, 411651, Note_off_c, 0, 82, 65
1, 411659, Note_on_c, 0, 80, 4
1, 411661, Control_c, 0, 64, 14
1, 411662, Note_off_c, 0, 80, 41
1, 411665, Note_on_c, 0, 50, 87
1, 411665, Note_on_c, 0, 57, 96
1, 411671, Note_on_c, 0, 45, 88
1, 411675, Control_c, 0, 64, 0
1, 411719, Note_off_c, 0, 57, 64
1, 411720, Control_c, 0, 64, 34
1, 411726, Note_on_c, 0, 81, 100
1, 411735, Control_c, 0, 64, 64
1, 411737, Note_off_c, 0, 45, 62
1, 411749, Control_c, 0, 64, 83
1, 411764, Control_c, 0, 64, 127
1, 411769, Note_on_c, 0, 78, 35
1, 411787, Note_off_c, 0, 81, 64
1, 411801, Note_off_c, 0, 78, 43
1, 411807, Note_on_c, 0, 69, 87
1, 411817, Note_on_c, 0, 74, 58
1, 411848, Note_off_c, 0, 74, 46
1, 411855, Note_off_c, 0, 69, 61
1, 411874, Note_on_c, 0, 54, 92
1, 411878, Note_on_c, 0, 42, 83
1, 411884, Note_on_c, 0, 74, 45
1, 411918, Note_on_c, 0, 78, 79
1, 411935, Note_off_c, 0, 42, 64
1, 411939, Note_off_c, 0, 74, 53
1, 411958, Note_off_c, 0, 54, 63
1, 411994, Note_on_c, 0, 66, 83
1, 412009, Note_off_c, 0, 78, 61
1, 412047, Note_off_c, 0, 66, 62
1, 412059, Note_on_c, 0, 55, 96
1, 412066, Note_on_c, 0, 43, 83
1, 412070, Note_off_c, 0, 50, 40
1, 412088, Note_off_c, 0, 55, 63
1, 412098, Note_off_c, 0, 43, 67
1, 412119, Note_on_c, 0, 79, 86
1, 412164, Poly_aftertouch_c, 0, 74, 0
1, 412164, Control_c, 0, 64, 113
1, 412173, Note_off_c, 0, 79, 64
1, 412179, Control_c, 0, 64, 104
1, 412190, Note_on_c, 0, 67, 81
1, 412194, Control_c, 0, 64, 95
1, 412208, Control_c, 0, 64, 87
1, 412222, Note_off_c, 0, 67, 60
1, 412223, Control_c, 0, 64, 81
1, 412238, Control_c, 0, 64, 75
1, 412249, Note_on_c, 0, 50, 90
1, 412252, Note_on_c, 0, 38, 82
1, 412253, Control_c, 0, 64, 70
1, 412267, Control_c, 0, 64, 65
1, 412282, Control_c, 0, 64, 61
1, 412291, Note_off_c, 0, 50, 63
1, 412297, Control_c, 0, 64, 58
1, 412300, Note_off_c, 0, 38, 60
1, 412303, Note_on_c, 0, 74, 86
1, 412312, Control_c, 0, 64, 56
1, 412327, Control_c, 0, 64, 55
1, 412349, Control_c, 0, 64, 54
1, 412364, Control_c, 0, 64, 54
1, 412367, Note_off_c, 0, 74, 57
1, 412378, Note_on_c, 0, 62, 84
1, 412408, Control_c, 0, 64, 54
1, 412420, Note_off_c, 0, 62, 57
1, 412444, Note_on_c, 0, 38, 74
1, 412446, Note_on_c, 0, 48, 88
1, 412461, Note_on_c, 0, 36, 68
1, 412469, Control_c, 0, 64, 55
1, 412482, Note_on_c, 0, 47, 44
1, 412483, Note_off_c, 0, 47, 127
1, 412483, Note_off_c, 0, 48, 63
1, 412484, Control_c, 0, 64, 54
1, 412489, Note_off_c, 0, 36, 64
1, 412496, Note_on_c, 0, 72, 87
1, 412502, Note_off_c, 0, 38, 64
1, 412544, Note_on_c, 0, 67, 6
1, 412558, Note_off_c, 0, 72, 64
1, 412572, Control_c, 0, 64, 55
1, 412577, Note_on_c, 0, 60, 74
1, 412591, Note_off_c, 0, 67, 27
1, 412613, Note_off_c, 0, 60, 64
1, 412629, Note_on_c, 0, 33, 79
1, 412629, Note_on_c, 0, 45, 83
1, 412636, Note_on_c, 0, 38, 63
1, 412675, Note_off_c, 0, 33, 62
1, 412676, Note_off_c, 0, 45, 63
1, 412688, Note_on_c, 0, 69, 82
1, 412705, Note_off_c, 0, 38, 60
1, 412757, Note_on_c, 0, 57, 81
1, 412757, Note_off_c, 0, 69, 50
1, 412765, Control_c, 0, 64, 55
1, 412795, Note_off_c, 0, 57, 64
1, 412810, Note_on_c, 0, 46, 98
1, 412813, Note_on_c, 0, 64, 40
1, 412816, Note_on_c, 0, 38, 74
1, 412825, Control_c, 0, 64, 56
1, 412826, Note_on_c, 0, 34, 71
1, 412851, Note_off_c, 0, 46, 65
1, 412854, Note_off_c, 0, 34, 64
1, 412869, Control_c, 0, 64, 56
1, 412870, Note_on_c, 0, 70, 85
1, 412882, Note_off_c, 0, 38, 55
1, 412882, Note_off_c, 0, 64, 57
1, 412884, Control_c, 0, 64, 57
1, 412899, Control_c, 0, 64, 57
1, 412913, Note_on_c, 0, 71, 38
1, 412914, Control_c, 0, 64, 58
1, 412944, Note_off_c, 0, 71, 35
1, 412944, Control_c, 0, 64, 58
1, 412945, Note_on_c, 0, 58, 86
1, 412951, Note_off_c, 0, 70, 64
1, 412998, Note_on_c, 0, 38, 38
1, 413000, Note_on_c, 0, 42, 92
1, 413006, Note_on_c, 0, 30, 80
1, 413006, Note_off_c, 0, 58, 62
1, 413032, Control_c, 0, 64, 59
1, 413054, Note_off_c, 0, 30, 64
1, 413057, Note_on_c, 0, 66, 85
1, 413073, Note_off_c, 0, 42, 63
1, 413077, Control_c, 0, 64, 58
1, 413099, Control_c, 0, 64, 51
1, 413114, Control_c, 0, 64, 0
1, 413128, Note_on_c, 0, 54, 90
1, 413161, Note_on_c, 0, 63, 39
1, 413193, Note_off_c, 0, 38, 25
1, 413197, Note_off_c, 0, 54, 64
1, 413199, Note_off_c, 0, 63, 47
1, 413202, Note_on_c, 0, 43, 101
1, 413206, Note_on_c, 0, 31, 89
1, 413248, Control_c, 0, 64, 66
1, 413254, Note_off_c, 0, 31, 63
1, 413260, Note_off_c, 0, 43, 63
1, 413263, Control_c, 0, 64, 110
1, 413278, Control_c, 0, 64, 127
1, 413286, Note_on_c, 0, 55, 84
1, 413308, Note_off_c, 0, 66, 33
1, 413358, Note_on_c, 0, 58, 82
1, 413361, Note_off_c, 0, 55, 60
1, 413431, Note_off_c, 0, 58, 63
1, 413433, Note_on_c, 0, 67, 81
1, 413438, Note_on_c, 0, 62, 66
1, 413476, Note_off_c, 0, 62, 56
1, 413501, Note_on_c, 0, 58, 81
1, 413502, Note_off_c, 0, 67, 61
1, 413570, Note_on_c, 0, 62, 73
1, 413570, Note_off_c, 0, 58, 65
1, 413577, Note_on_c, 0, 67, 71
1, 413598, Note_off_c, 0, 62, 67
1, 413603, Note_off_c, 0, 67, 68
1, 413638, Note_on_c, 0, 55, 96
1, 413640, Note_on_c, 0, 50, 79
1, 413695, Note_on_c, 0, 58, 81
1, 413718, Note_off_c, 0, 50, 63
1, 413741, Note_off_c, 0, 55, 61
1, 413765, Note_on_c, 0, 63, 80
1, 413776, Note_off_c, 0, 58, 63
1, 413790, Note_off_c, 0, 63, 65
1, 413794, Note_on_c, 0, 62, 72
1, 413855, Note_on_c, 0, 70, 75
1, 413858, Note_off_c, 0, 62, 63
1, 413863, Note_on_c, 0, 67, 74
1, 413910, Note_off_c, 0, 70, 61
1, 413927, Note_off_c, 0, 67, 52
1, 413929, Note_on_c, 0, 62, 83
1, 413979, Note_on_c, 0, 70, 75
1, 413981, Note_on_c, 0, 67, 62
1, 413984, Note_off_c, 0, 62, 62
1, 414014, Note_off_c, 0, 67, 65
1, 414026, Note_off_c, 0, 70, 63
1, 414040, Note_on_c, 0, 58, 97
1, 414047, Note_on_c, 0, 55, 85
1, 414091, Note_off_c, 0, 55, 63
1, 414092, Note_off_c, 0, 58, 64
1, 414114, Note_on_c, 0, 62, 77
1, 414180, Note_on_c, 0, 67, 78
1, 414181, Note_off_c, 0, 62, 60
1, 414242, Note_on_c, 0, 74, 79
1, 414247, Note_on_c, 0, 70, 78
1, 414250, Note_off_c, 0, 67, 65
1, 414298, Note_off_c, 0, 74, 61
1, 414310, Note_off_c, 0, 70, 61
1, 414313, Note_on_c, 0, 67, 84
1, 414366, Note_on_c, 0, 70, 74
1, 414376, Note_on_c, 0, 74, 79
1, 414381, Note_off_c, 0, 67, 64
1, 414402, Note_off_c, 0, 74, 68
1, 414404, Note_off_c, 0, 70, 64
1, 414424, Note_on_c, 0, 62, 95
1, 414428, Note_on_c, 0, 58, 93
1, 414457, Note_off_c, 0, 62, 64
1, 414466, Note_off_c, 0, 58, 68
1, 414476, Note_on_c, 0, 67, 88
1, 414554, Note_on_c, 0, 70, 84
1, 414559, Note_off_c, 0, 67, 61
1, 414631, Note_on_c, 0, 74, 78
1, 414639, Note_on_c, 0, 79, 85
1, 414645, Note_off_c, 0, 70, 65
1, 414688, Note_off_c, 0, 74, 56
1, 414698, Note_off_c, 0, 79, 59
1, 414706, Note_on_c, 0, 70, 87
1, 414756, Note_on_c, 0, 74, 72
1, 414767, Note_off_c, 0, 70, 65
1, 414768, Note_on_c, 0, 79, 69
1, 414780, Note_off_c, 0, 74, 67
1, 414790, Note_off_c, 0, 79, 72
1, 414804, Control_c, 0, 64, 98
1, 414814, Note_on_c, 0, 50, 93
1, 414814, Note_on_c, 0, 57, 101
1, 414816, Note_on_c, 0, 45, 87
1, 414818, Control_c, 0, 64, 48
1, 414834, Control_c, 0, 64, 0
1, 414876, Note_off_c, 0, 57, 59
1, 414878, Control_c, 0, 64, 47
1, 414893, Note_on_c, 0, 81, 98
1, 414893, Control_c, 0, 64, 66
1, 414894, Note_off_c, 0, 45, 63
1, 414908, Control_c, 0, 64, 87
1, 414923, Control_c, 0, 64, 127
1, 414953, Note_off_c, 0, 81, 65
1, 414962, Note_on_c, 0, 69, 85
1, 414995, Note_on_c, 0, 74, 44
1, 415007, Note_off_c, 0, 69, 63
1, 415019, Note_off_c, 0, 50, 53
1, 415043, Note_off_c, 0, 74, 0
1, 415043, Note_on_c, 0, 74, 12
1, 415049, Note_on_c, 0, 54, 101
1, 415052, Note_on_c, 0, 42, 91
1, 415054, Note_on_c, 0, 50, 50
1, 415084, Note_off_c, 0, 50, 65
1, 415089, Note_on_c, 0, 78, 81
1, 415111, Note_off_c, 0, 42, 64
1, 415114, Note_off_c, 0, 54, 65
1, 415114, Note_off_c, 0, 74, 50
1, 415166, Note_on_c, 0, 66, 79
1, 415181, Note_off_c, 0, 78, 62
1, 415227, Note_off_c, 0, 66, 61
1, 415243, Note_on_c, 0, 55, 97
1, 415250, Note_on_c, 0, 43, 85
1, 415280, Note_off_c, 0, 43, 67
1, 415281, Note_off_c, 0, 55, 62
1, 415297, Note_on_c, 0, 79, 83
1, 415359, Control_c, 0, 64, 106
1, 415365, Note_off_c, 0, 79, 61
1, 415374, Control_c, 0, 64, 90
1, 415381, Note_on_c, 0, 67, 79
1, 415389, Control_c, 0, 64, 84
1, 415404, Control_c, 0, 64, 79
1, 415419, Control_c, 0, 64, 75
1, 415422, Note_off_c, 0, 67, 56
1, 415433, Control_c, 0, 64, 69
1, 415442, Note_on_c, 0, 50, 89
1, 415445, Note_on_c, 0, 38, 84
1, 415448, Control_c, 0, 64, 65
1, 415463, Control_c, 0, 64, 60
1, 415478, Control_c, 0, 64, 57
1, 415481, Note_off_c, 0, 50, 63
1, 415490, Note_off_c, 0, 38, 61
1, 415493, Control_c, 0, 64, 54
1, 415507, Note_on_c, 0, 74, 86
1, 415507, Control_c, 0, 64, 52
1, 415522, Control_c, 0, 64, 51
1, 415563, Note_off_c, 0, 74, 59
1, 415573, Note_on_c, 0, 62, 78
1, 415611, Control_c, 0, 64, 51
1, 415623, Note_off_c, 0, 62, 59
1, 415627, Note_on_c, 0, 38, 80
1, 415627, Note_on_c, 0, 48, 92
1, 415645, Note_on_c, 0, 36, 67
1, 415666, Note_off_c, 0, 48, 62
1, 415675, Note_off_c, 0, 36, 64
1, 415687, Note_off_c, 0, 38, 62
1, 415693, Note_on_c, 0, 72, 85
1, 415746, Note_off_c, 0, 72, 65
1, 415767, Note_on_c, 0, 60, 77
1, 415804, Note_on_c, 0, 45, 90
1, 415804, Note_off_c, 0, 60, 63
1, 415806, Note_on_c, 0, 38, 72
1, 415806, Note_on_c, 0, 33, 79
1, 415859, Note_off_c, 0, 33, 63
1, 415859, Note_off_c, 0, 45, 63
1, 415879, Note_on_c, 0, 69, 87
1, 415888, Note_off_c, 0, 38, 62
1, 415940, Note_off_c, 0, 69, 61
1, 415953, Note_on_c, 0, 57, 78
1, 415982, Control_c, 0, 64, 52
1, 415993, Note_off_c, 0, 57, 63
1, 415994, Note_on_c, 0, 46, 97
1, 415999, Note_on_c, 0, 38, 70
1, 416005, Note_on_c, 0, 34, 77
1, 416023, Poly_aftertouch_c, 0, 64, 127
1, 416027, Control_c, 0, 64, 52
1, 416039, Note_off_c, 0, 46, 65
1, 416042, Control_c, 0, 64, 53
1, 416046, Note_off_c, 0, 34, 61
1, 416056, Control_c, 0, 64, 54
1, 416063, Note_on_c, 0, 70, 81
1, 416071, Control_c, 0, 64, 54
1, 416072, Note_off_c, 0, 38, 56
1, 416113, Note_on_c, 0, 71, 35
1, 416136, Note_off_c, 0, 70, 58
1, 416138, Control_c, 0, 64, 55
1, 416139, Note_on_c, 0, 58, 82
1, 416145, Note_off_c, 0, 71, 35
1, 416160, Poly_aftertouch_c, 0, 64, 0
1, 416185, Note_on_c, 0, 38, 59
1, 416190, Note_on_c, 0, 43, 84
1, 416200, Note_on_c, 0, 31, 68
1, 416212, Control_c, 0, 64, 54
1, 416217, Note_off_c, 0, 58, 63
1, 416227, Control_c, 0, 64, 50
1, 416239, Note_off_c, 0, 31, 64
1, 416242, Note_off_c, 0, 43, 60
1, 416242, Control_c, 0, 64, 40
1, 416244, Note_off_c, 0, 38, 62
1, 416249, Note_on_c, 0, 67, 77
1, 416256, Control_c, 0, 64, 0
1, 416260, Note_on_c, 0, 69, 65
1, 416280, Note_off_c, 0, 69, 40
1, 416312, Note_on_c, 0, 55, 82
1, 416342, Note_on_c, 0, 63, 26
1, 416352, Note_off_c, 0, 55, 61
1, 416381, Note_off_c, 0, 63, 52
1, 416396, Note_on_c, 0, 41, 100
1, 416400, Note_on_c, 0, 29, 86
1, 416402, Note_off_c, 0, 67, 55
1, 416405, Control_c, 0, 64, 39
1, 416420, Control_c, 0, 64, 73
1, 416435, Control_c, 0, 64, 127
1, 416450, Note_off_c, 0, 29, 63
1, 416456, Note_on_c, 0, 32, 15
1, 416473, Note_off_c, 0, 41, 64
1, 416500, Note_on_c, 0, 62, 71
1, 416506, Note_off_c, 0, 32, 43
1, 416572, Note_on_c, 0, 65, 79
1, 416572, Note_off_c, 0, 62, 61
1, 416642, Note_off_c, 0, 65, 61
1, 416650, Note_on_c, 0, 69, 77
1, 416650, Note_on_c, 0, 74, 79
1, 416694, Note_off_c, 0, 69, 57
1, 416711, Note_off_c, 0, 74, 60
1, 416712, Note_on_c, 0, 65, 79
1, 416776, Note_on_c, 0, 69, 80
1, 416779, Note_off_c, 0, 65, 64
1, 416782, Note_on_c, 0, 74, 79
1, 416801, Note_off_c, 0, 69, 67
1, 416813, Note_off_c, 0, 74, 66
1, 416855, Note_on_c, 0, 62, 94
1, 416855, Note_on_c, 0, 57, 85
1, 416898, Note_on_c, 0, 65, 79
1, 416924, Note_off_c, 0, 57, 63
1, 416938, Note_off_c, 0, 62, 60
1, 416967, Note_on_c, 0, 69, 81
1, 416969, Note_off_c, 0, 65, 60
1, 417043, Note_on_c, 0, 77, 84
1, 417043, Note_on_c, 0, 74, 82
1, 417047, Note_off_c, 0, 69, 65
1, 417099, Note_off_c, 0, 77, 60
1, 417112, Note_on_c, 0, 69, 84
1, 417118, Note_off_c, 0, 74, 61
1, 417168, Note_on_c, 0, 74, 68
1, 417175, Note_off_c, 0, 69, 65
1, 417177, Note_on_c, 0, 77, 85
1, 417209, Note_off_c, 0, 77, 66
1, 417213, Note_off_c, 0, 74, 63
1, 417232, Note_on_c, 0, 65, 98
1, 417236, Note_on_c, 0, 62, 90
1, 417293, Note_off_c, 0, 65, 63
1, 417295, Note_on_c, 0, 69, 84
1, 417302, Note_off_c, 0, 62, 63
1, 417359, Note_on_c, 0, 74, 81
1, 417365, Note_off_c, 0, 69, 63
1, 417424, Note_on_c, 0, 77, 77
1, 417430, Note_on_c, 0, 81, 79
1, 417432, Note_off_c, 0, 74, 64
1, 417469, Note_off_c, 0, 77, 64
1, 417493, Note_on_c, 0, 74, 81
1, 417493, Note_off_c, 0, 81, 65
1, 417544, Note_on_c, 0, 77, 88
1, 417553, Note_off_c, 0, 74, 64
1, 417565, Note_on_c, 0, 81, 63
1, 417570, Note_off_c, 0, 77, 65
1, 417599, Note_off_c, 0, 81, 66
1, 417620, Note_on_c, 0, 69, 95
1, 417625, Note_on_c, 0, 65, 89
1, 417651, Note_off_c, 0, 69, 68
1, 417662, Note_on_c, 0, 74, 90
1, 417662, Note_off_c, 0, 65, 68
1, 417736, Note_on_c, 0, 77, 88
1, 417751, Note_off_c, 0, 74, 61
1, 417810, Note_on_c, 0, 81, 90
1, 417813, Note_on_c, 0, 86, 86
1, 417821, Note_off_c, 0, 77, 65
1, 417877, Note_off_c, 0, 81, 52
1, 417877, Note_off_c, 0, 86, 60
1, 417886, Note_on_c, 0, 77, 94
1, 417943, Note_on_c, 0, 81, 84
1, 417948, Note_on_c, 0, 86, 82
1, 417955, Note_off_c, 0, 77, 67
1, 417967, Note_off_c, 0, 86, 71
1, 417978, Note_off_c, 0, 81, 65
1, 418022, Control_c, 0, 64, 98
1, 418026, Note_on_c, 0, 55, 105
1, 418028, Note_on_c, 0, 50, 91
1, 418032, Note_on_c, 0, 43, 90
1, 418038, Control_c, 0, 64, 60
1, 418052, Control_c, 0, 64, 0
1, 418097, Control_c, 0, 64, 48
1, 418111, Control_c, 0, 64, 65
1, 418114, Note_on_c, 0, 79, 84
1, 418114, Note_off_c, 0, 55, 59
1, 418126, Control_c, 0, 64, 79
1, 418128, Note_off_c, 0, 43, 61
1, 418141, Control_c, 0, 64, 127
1, 418143, Note_on_c, 0, 77, 51
1, 418144, Note_off_c, 0, 77, 127
1, 418153, Note_off_c, 0, 50, 61
1, 418178, Note_off_c, 0, 79, 64
1, 418205, Note_on_c, 0, 67, 78
1, 418262, Note_off_c, 0, 67, 61
1, 418293, Note_on_c, 0, 52, 100
1, 418298, Note_on_c, 0, 40, 92
1, 418339, Note_off_c, 0, 40, 63
1, 418351, Note_off_c, 0, 52, 60
1, 418351, Note_on_c, 0, 76, 76
1, 418416, Note_off_c, 0, 76, 61
1, 418447, Note_on_c, 0, 64, 71
1, 418497, Note_on_c, 0, 53, 98
1, 418500, Note_on_c, 0, 41, 97
1, 418506, Note_off_c, 0, 64, 58
1, 418518, Control_c, 0, 64, 117
1, 418533, Control_c, 0, 64, 103
1, 418538, Note_off_c, 0, 53, 66
1, 418542, Note_off_c, 0, 41, 64
1, 418548, Control_c, 0, 64, 94
1, 418563, Control_c, 0, 64, 89
1, 418567, Note_on_c, 0, 77, 85
1, 418575, Note_on_c, 0, 71, 41
1, 418578, Control_c, 0, 64, 83
1, 418593, Control_c, 0, 64, 76
1, 418605, Note_off_c, 0, 71, 56
1, 418608, Control_c, 0, 64, 70
1, 418623, Control_c, 0, 64, 66
1, 418625, Note_off_c, 0, 77, 63
1, 418628, Note_on_c, 0, 65, 82
1, 418637, Control_c, 0, 64, 64
1, 418652, Control_c, 0, 64, 64
1, 418667, Control_c, 0, 64, 63
1, 418673, Note_on_c, 0, 50, 97
1, 418678, Note_on_c, 0, 38, 87
1, 418682, Control_c, 0, 64, 63
1, 418685, Note_off_c, 0, 65, 60
1, 418696, Control_c, 0, 64, 62
1, 418709, Note_off_c, 0, 50, 68
1, 418710, Control_c, 0, 64, 61
1, 418721, Note_off_c, 0, 38, 62
1, 418739, Note_on_c, 0, 74, 91
1, 418740, Control_c, 0, 64, 60
1, 418755, Control_c, 0, 64, 60
1, 418801, Note_off_c, 0, 74, 58
1, 418804, Note_on_c, 0, 62, 79
1, 418835, Note_off_c, 0, 62, 65
1, 418852, Note_on_c, 0, 46, 91
1, 418855, Note_on_c, 0, 38, 69
1, 418860, Note_on_c, 0, 34, 76
1, 418860, Control_c, 0, 64, 59
1, 418906, Note_off_c, 0, 34, 62
1, 418906, Note_off_c, 0, 46, 64
1, 418924, Note_on_c, 0, 70, 89
1, 418927, Note_off_c, 0, 38, 55
1, 418996, Note_on_c, 0, 58, 81
1, 419007, Note_off_c, 0, 70, 60
1, 419044, Note_off_c, 0, 58, 59
1, 419047, Poly_aftertouch_c, 0, 68, 0
1, 419051, Note_on_c, 0, 44, 85
1, 419052, Note_on_c, 0, 38, 74
1, 419055, Note_on_c, 0, 32, 75
1, 419115, Note_on_c, 0, 68, 80
1, 419120, Note_off_c, 0, 32, 62
1, 419129, Note_on_c, 0, 42, 2
1, 419131, Note_off_c, 0, 44, 61
1, 419137, Note_off_c, 0, 38, 56
1, 419148, Control_c, 0, 64, 59
1, 419165, Note_on_c, 0, 66, 24
1, 419169, Note_off_c, 0, 42, 27
1, 419185, Note_on_c, 0, 56, 79
1, 419204, Note_off_c, 0, 68, 59
1, 419207, Control_c, 0, 64, 59
1, 419225, Note_off_c, 0, 66, 41
1, 419237, Note_on_c, 0, 45, 97
1, 419237, Note_off_c, 0, 56, 61
1, 419237, Control_c, 0, 64, 60
1, 419241, Note_on_c, 0, 38, 75
1, 419244, Note_on_c, 0, 33, 82
1, 419275, Note_off_c, 0, 45, 63
1, 419291, Note_off_c, 0, 33, 62
1, 419298, Note_off_c, 0, 38, 62
1, 419311, Control_c, 0, 64, 60
1, 419317, Note_on_c, 0, 69, 91
1, 419323, Note_on_c, 0, 61, 22
1, 419356, Control_c, 0, 64, 60
1, 419369, Note_off_c, 0, 61, 45
1, 419376, Note_off_c, 0, 69, 63
1, 419377, Note_on_c, 0, 57, 83
1, 419421, Note_off_c, 0, 57, 60
1, 419430, Note_on_c, 0, 41, 92
1, 419430, Control_c, 0, 64, 60
1, 419436, Note_on_c, 0, 29, 87
1, 419460, Control_c, 0, 64, 61
1, 419474, Control_c, 0, 64, 61
1, 419475, Note_off_c, 0, 29, 63
1, 419475, Note_off_c, 0, 41, 64
1, 419490, Note_on_c, 0, 65, 76
1, 419504, Control_c, 0, 64, 62
1, 419520, Note_on_c, 0, 63, 28
1, 419533, Control_c, 0, 64, 61
1, 419546, Note_on_c, 0, 53, 83
1, 419548, Control_c, 0, 64, 59
1, 419553, Note_off_c, 0, 65, 62
1, 419563, Control_c, 0, 64, 37
1, 419570, Note_off_c, 0, 63, 47
1, 419578, Control_c, 0, 64, 0
1, 419594, Note_off_c, 0, 53, 64
1, 419625, Note_on_c, 0, 40, 104
1, 419627, Note_on_c, 0, 28, 90
1, 419668, Control_c, 0, 64, 47
1, 419682, Note_off_c, 0, 28, 62
1, 419683, Control_c, 0, 64, 73
1, 419697, Control_c, 0, 64, 127
1, 419699, Note_off_c, 0, 40, 63
1, 419711, Note_on_c, 0, 56, 85
1, 419744, Poly_aftertouch_c, 0, 30, 0
1, 419794, Note_off_c, 0, 56, 62
1, 419795, Poly_aftertouch_c, 0, 66, 127
1, 419797, Note_on_c, 0, 59, 79
1, 419836, Poly_aftertouch_c, 0, 66, 0
1, 419877, Note_off_c, 0, 59, 63
1, 419880, Note_on_c, 0, 68, 82
1, 419884, Note_on_c, 0, 62, 63
1, 419919, Note_off_c, 0, 62, 61
1, 419948, Note_on_c, 0, 59, 75
1, 419957, Note_off_c, 0, 68, 60
1, 419997, Note_on_c, 0, 62, 68
1, 420009, Note_off_c, 0, 59, 64
1, 420012, Note_on_c, 0, 68, 60
1, 420027, Note_off_c, 0, 62, 65
1, 420051, Note_off_c, 0, 68, 61
1, 420069, Note_on_c, 0, 52, 76
1, 420070, Note_on_c, 0, 56, 90
1, 420127, Note_on_c, 0, 59, 76
1, 420136, Note_off_c, 0, 52, 62
1, 420147, Note_off_c, 0, 56, 61
1, 420191, Note_on_c, 0, 62, 79
1, 420195, Note_off_c, 0, 59, 62
1, 420261, Note_on_c, 0, 68, 73
1, 420262, Note_off_c, 0, 62, 63
1, 420265, Note_on_c, 0, 71, 77
1, 420298, Note_off_c, 0, 71, 58
1, 420328, Note_on_c, 0, 62, 77
1, 420334, Note_off_c, 0, 68, 61
1, 420393, Note_on_c, 0, 71, 86
1, 420405, Note_off_c, 0, 62, 63
1, 420414, Note_on_c, 0, 67, 58
1, 420435, Note_off_c, 0, 67, 62
1, 420435, Note_off_c, 0, 71, 65
1, 420443, Note_on_c, 0, 59, 92
1, 420444, Note_on_c, 0, 56, 87
1, 420482, Note_off_c, 0, 59, 66
1, 420503, Note_off_c, 0, 56, 64
1, 420517, Note_on_c, 0, 62, 75
1, 420590, Note_on_c, 0, 68, 82
1, 420596, Note_off_c, 0, 62, 59
1, 420661, Note_on_c, 0, 74, 76
1, 420667, Note_on_c, 0, 70, 50
1, 420668, Note_off_c, 0, 70, 127
1, 420668, Note_on_c, 0, 71, 83
1, 420668, Note_off_c, 0, 68, 63
1, 420697, Note_on_c, 0, 72, 37
1, 420726, Note_off_c, 0, 74, 60
1, 420727, Note_off_c, 0, 71, 54
1, 420727, Note_off_c, 0, 72, 56
1, 420729, Note_on_c, 0, 68, 83
1, 420787, Note_on_c, 0, 71, 65
1, 420800, Note_off_c, 0, 68, 64
1, 420802, Note_on_c, 0, 74, 67
1, 420808, Note_off_c, 0, 71, 71
1, 420819, Note_off_c, 0, 74, 66
1, 420840, Note_on_c, 0, 59, 86
1, 420842, Note_on_c, 0, 62, 94
1, 420882, Note_off_c, 0, 59, 62
1, 420891, Note_off_c, 0, 62, 65
1, 420918, Note_on_c, 0, 68, 81
1, 420976, Note_on_c, 0, 71, 79
1, 421000, Note_off_c, 0, 68, 61
1, 421028, Note_on_c, 0, 80, 79
1, 421037, Note_off_c, 0, 71, 63
1, 421043, Note_on_c, 0, 74, 69
1, 421101, Note_off_c, 0, 80, 62
1, 421103, Note_on_c, 0, 71, 80
1, 421105, Note_off_c, 0, 74, 62
1, 421165, Note_on_c, 0, 74, 75
1, 421174, Note_on_c, 0, 80, 80
1, 421180, Note_off_c, 0, 71, 65
1, 421210, Note_off_c, 0, 74, 63
1, 421228, Note_off_c, 0, 80, 62
1, 421235, Note_on_c, 0, 62, 84
1, 421238, Note_on_c, 0, 68, 91
1, 421282, Note_off_c, 0, 62, 65
1, 421295, Note_off_c, 0, 68, 62
1, 421309, Note_on_c, 0, 71, 86
1, 421383, Note_on_c, 0, 74, 87
1, 421404, Note_off_c, 0, 71, 56
1, 421459, Note_on_c, 0, 80, 80
1, 421460, Note_on_c, 0, 83, 84
1, 421464, Note_off_c, 0, 74, 66
1, 421520, Note_off_c, 0, 83, 58
1, 421532, Note_on_c, 0, 74, 90
1, 421541, Note_off_c, 0, 80, 63
1, 421600, Note_on_c, 0, 80, 83
1, 421612, Note_on_c, 0, 83, 93
1, 421615, Note_off_c, 0, 74, 66
1, 421641, Note_off_c, 0, 83, 65
1, 421642, Note_off_c, 0, 80, 66
1, 421719, Note_on_c, 0, 71, 98
1, 421720, Note_on_c, 0, 68, 92
1, 421856, Note_on_c, 0, 95, 107
1, 421961, Note_on_c, 0, 92, 89
1, 421988, Note_off_c, 0, 95, 63
1, 422042, Note_off_c, 0, 92, 65
1, 422055, Note_on_c, 0, 86, 70
1, 422060, Note_off_c, 0, 71, 24
1, 422090, Note_off_c, 0, 86, 68
1, 422143, Note_on_c, 0, 83, 77
1, 422149, Note_off_c, 0, 68, 53
1, 422212, Note_on_c, 0, 80, 78
1, 422246, Note_off_c, 0, 83, 63
1, 422275, Note_off_c, 0, 80, 64
1, 422284, Note_on_c, 0, 74, 76
1, 422341, Note_off_c, 0, 74, 63
1, 422348, Note_on_c, 0, 83, 89
1, 422365, Note_on_c, 0, 81, 66
1, 422419, Note_on_c, 0, 80, 79
1, 422436, Note_off_c, 0, 81, 57
1, 422439, Note_off_c, 0, 83, 61
1, 422472, Note_off_c, 0, 80, 64
1, 422477, Note_on_c, 0, 74, 71
1, 422506, Note_off_c, 0, 74, 66
1, 422554, Note_on_c, 0, 71, 80
1, 422614, Note_on_c, 0, 68, 81
1, 422665, Note_off_c, 0, 71, 58
1, 422689, Note_off_c, 0, 68, 58
1, 422691, Note_on_c, 0, 62, 75
1, 422754, Note_off_c, 0, 62, 63
1, 422761, Note_on_c, 0, 71, 83
1, 422775, Note_on_c, 0, 69, 72
1, 422842, Note_on_c, 0, 68, 79
1, 422861, Note_off_c, 0, 69, 53
1, 422864, Note_off_c, 0, 71, 60
1, 422897, Note_off_c, 0, 68, 62
1, 422899, Note_on_c, 0, 62, 73
1, 422941, Note_off_c, 0, 62, 59
1, 422979, Note_on_c, 0, 59, 81
1, 423039, Note_on_c, 0, 56, 88
1, 423066, Note_off_c, 0, 59, 63
1, 423085, Note_off_c, 0, 56, 65
1, 423100, Control_c, 0, 64, 65
1, 423105, Note_on_c, 0, 44, 94
1, 423108, Note_on_c, 0, 32, 85
1, 423115, Control_c, 0, 64, 0
1, 423159, Control_c, 0, 64, 19
1, 423173, Control_c, 0, 64, 60
1, 423180, Note_off_c, 0, 32, 63
1, 423188, Control_c, 0, 64, 78
1, 423195, Note_on_c, 0, 57, 65
1, 423203, Control_c, 0, 64, 127
1, 423207, Note_off_c, 0, 44, 63
1, 423210, Note_on_c, 0, 59, 57
1, 423238, Note_off_c, 0, 57, 63
1, 423246, Note_off_c, 0, 59, 52
1, 423263, Note_on_c, 0, 61, 68
1, 423282, Note_off_c, 0, 61, 61
1, 423294, Note_on_c, 0, 62, 64
1, 423325, Note_off_c, 0, 62, 65
1, 423337, Note_on_c, 0, 71, 67
1, 423341, Note_on_c, 0, 65, 65
1, 423382, Note_off_c, 0, 71, 61
1, 423386, Note_off_c, 0, 65, 59
1, 423392, Note_on_c, 0, 62, 80
1, 423463, Note_on_c, 0, 65, 75
1, 423469, Note_off_c, 0, 62, 62
1, 423473, Note_on_c, 0, 71, 79
1, 423489, Note_off_c, 0, 65, 67
1, 423500, Note_off_c, 0, 71, 65
1, 423525, Note_on_c, 0, 59, 91
1, 423526, Note_on_c, 0, 56, 87
1, 423562, Note_off_c, 0, 59, 65
1, 423580, Note_off_c, 0, 56, 66
1, 423589, Note_on_c, 0, 62, 79
1, 423653, Note_on_c, 0, 65, 80
1, 423659, Note_off_c, 0, 62, 62
1, 423723, Note_on_c, 0, 74, 81
1, 423727, Note_off_c, 0, 65, 63
1, 423729, Note_on_c, 0, 71, 79
1, 423773, Note_off_c, 0, 74, 60
1, 423786, Note_on_c, 0, 65, 75
1, 423788, Note_off_c, 0, 71, 62
1, 423850, Note_on_c, 0, 71, 71
1, 423853, Note_on_c, 0, 74, 82
1, 423858, Note_off_c, 0, 65, 64
1, 423881, Note_off_c, 0, 71, 67
1, 423881, Note_off_c, 0, 74, 64
1, 423896, Note_on_c, 0, 62, 93
1, 423900, Note_on_c, 0, 59, 87
1, 423934, Note_off_c, 0, 62, 66
1, 423939, Note_off_c, 0, 59, 63
1, 423961, Note_on_c, 0, 65, 84
1, 424027, Note_on_c, 0, 71, 81
1, 424030, Note_off_c, 0, 65, 62
1, 424095, Note_on_c, 0, 74, 80
1, 424098, Note_on_c, 0, 77, 82
1, 424099, Note_off_c, 0, 71, 65
1, 424152, Note_off_c, 0, 74, 60
1, 424156, Note_off_c, 0, 77, 63
1, 424160, Note_on_c, 0, 71, 83
1, 424215, Note_on_c, 0, 74, 72
1, 424222, Note_on_c, 0, 77, 82
1, 424223, Note_off_c, 0, 71, 66
1, 424239, Note_off_c, 0, 74, 69
1, 424254, Note_off_c, 0, 77, 66
1, 424267, Note_on_c, 0, 68, 99
1, 424268, Note_on_c, 0, 62, 85
1, 424324, Note_off_c, 0, 62, 64
1, 424331, Note_off_c, 0, 68, 64
1, 424341, Note_on_c, 0, 71, 84
1, 424394, Note_off_c, 0, 71, 65
1, 424400, Note_on_c, 0, 74, 84
1, 424464, Note_on_c, 0, 77, 85
1, 424469, Note_on_c, 0, 83, 82
1, 424471, Note_off_c, 0, 74, 62
1, 424523, Note_off_c, 0, 83, 60
1, 424531, Note_on_c, 0, 74, 84
1, 424534, Note_off_c, 0, 77, 61
1, 424583, Note_on_c, 0, 77, 76
1, 424594, Note_on_c, 0, 83, 83
1, 424598, Note_off_c, 0, 74, 65
1, 424619, Note_off_c, 0, 77, 65
1, 424628, Note_off_c, 0, 83, 66
1, 424650, Note_on_c, 0, 68, 89
1, 424650, Note_on_c, 0, 71, 100
1, 424686, Note_off_c, 0, 71, 66
1, 424697, Note_off_c, 0, 68, 66
1, 424718, Note_on_c, 0, 74, 84
1, 424786, Note_on_c, 0, 77, 89
1, 424801, Note_off_c, 0, 74, 61
1, 424859, Note_on_c, 0, 86, 86
1, 424862, Note_on_c, 0, 83, 84
1, 424867, Note_off_c, 0, 77, 65
1, 424919, Note_off_c, 0, 86, 61
1, 424933, Note_on_c, 0, 77, 93
1, 424939, Note_off_c, 0, 83, 63
1, 425002, Note_off_c, 0, 77, 67
1, 425003, Note_on_c, 0, 83, 71
1, 425007, Note_on_c, 0, 86, 93
1, 425025, Note_off_c, 0, 83, 71
1, 425033, Note_off_c, 0, 86, 66
1, 425101, Note_on_c, 0, 74, 98
1, 425104, Note_on_c, 0, 71, 94
1, 425254, Note_on_c, 0, 101, 107
1, 425349, Note_off_c, 0, 101, 59
1, 425386, Note_on_c, 0, 98, 106
1, 425390, Note_on_c, 0, 101, 47
1, 425417, Note_off_c, 0, 101, 55
1, 425488, Note_on_c, 0, 95, 86
1, 425511, Note_off_c, 0, 98, 66
1, 425541, Note_off_c, 0, 74, 50
1, 425553, Note_off_c, 0, 95, 65
1, 425568, Note_on_c, 0, 89, 70
1, 425586, Note_off_c, 0, 71, 49
1, 425597, Note_off_c, 0, 89, 67
1, 425639, Note_on_c, 0, 86, 85
1, 425707, Note_on_c, 0, 83, 83
1, 425711, Note_off_c, 0, 86, 62
1, 425768, Note_on_c, 0, 89, 94
1, 425772, Note_off_c, 0, 83, 66
1, 425842, Note_on_c, 0, 86, 87
1, 425863, Note_off_c, 0, 89, 61
1, 425912, Note_on_c, 0, 83, 78
1, 425937, Note_off_c, 0, 86, 62
1, 425964, Note_off_c, 0, 83, 65
1, 425970, Note_on_c, 0, 77, 77
1, 426002, Note_off_c, 0, 77, 61
1, 426051, Note_on_c, 0, 74, 85
1, 426119, Note_on_c, 0, 71, 90
1, 426139, Note_off_c, 0, 74, 63
1, 426203, Note_on_c, 0, 77, 97
1, 426216, Note_off_c, 0, 71, 65
1, 426295, Note_on_c, 0, 74, 92
1, 426316, Note_off_c, 0, 77, 64
1, 426390, Note_on_c, 0, 71, 86
1, 426423, Note_off_c, 0, 74, 59
1, 426481, Note_off_c, 0, 71, 62
1, 426494, Note_on_c, 0, 65, 81
1, 426614, Note_on_c, 0, 62, 91
1, 426650, Note_off_c, 0, 65, 62
1, 426780, Note_on_c, 0, 33, 94
1, 426800, Note_off_c, 0, 62, 62
1, 426814, Control_c, 0, 64, 64
1, 426829, Control_c, 0, 64, 0
1, 426888, Control_c, 0, 64, 57
1, 426903, Control_c, 0, 64, 72
1, 426918, Control_c, 0, 64, 127
1, 427036, Note_off_c, 0, 33, 58
1, 427054, Note_on_c, 0, 45, 53
1, 427132, Note_off_c, 0, 45, 60
1, 427166, Note_on_c, 0, 33, 56
1, 427207, Note_off_c, 0, 33, 55
1, 427261, Note_on_c, 0, 45, 49
1, 427296, Note_off_c, 0, 45, 61
1, 427344, Note_on_c, 0, 33, 47
1, 427378, Note_off_c, 0, 33, 61
1, 427417, Note_on_c, 0, 45, 41
1, 427452, Note_off_c, 0, 45, 63
1, 427479, Note_on_c, 0, 33, 49
1, 427521, Note_off_c, 0, 33, 58
1, 427556, Note_on_c, 0, 45, 48
1, 427592, Note_off_c, 0, 45, 64
1, 427623, Note_on_c, 0, 33, 58
1, 427661, Note_off_c, 0, 33, 60
1, 427687, Note_on_c, 0, 45, 58
1, 427724, Note_off_c, 0, 45, 63
1, 427754, Note_on_c, 0, 33, 59
1, 427764, Note_on_c, 0, 69, 80
1, 427767, Note_on_c, 0, 62, 75
1, 427770, Note_on_c, 0, 65, 77
1, 427791, Note_off_c, 0, 33, 61
1, 427820, Note_on_c, 0, 45, 50
1, 427858, Note_off_c, 0, 45, 63
1, 427890, Note_on_c, 0, 33, 50
1, 427916, Note_off_c, 0, 62, 59
1, 427932, Note_off_c, 0, 33, 60
1, 427973, Note_on_c, 0, 45, 40
1, 428010, Note_off_c, 0, 45, 61
1, 428045, Note_on_c, 0, 33, 43
1, 428098, Note_off_c, 0, 33, 60
1, 428158, Note_on_c, 0, 45, 27
1, 428194, Note_off_c, 0, 45, 56
1, 428256, Note_on_c, 0, 33, 22
1, 428299, Note_off_c, 0, 33, 50
1, 428335, Note_on_c, 0, 45, 33
1, 428361, Note_on_c, 0, 64, 61
1, 428363, Note_on_c, 0, 60, 51
1, 428371, Note_off_c, 0, 65, 32
1, 428379, Note_off_c, 0, 45, 59
1, 428424, Note_on_c, 0, 33, 40
1, 428464, Note_off_c, 0, 33, 58
1, 428477, Note_off_c, 0, 60, 60
1, 428491, Note_on_c, 0, 45, 44
1, 428534, Note_off_c, 0, 45, 61
1, 428566, Note_on_c, 0, 33, 51
1, 428608, Note_off_c, 0, 33, 60
1, 428644, Note_on_c, 0, 45, 47
1, 428688, Note_off_c, 0, 45, 61
1, 428734, Note_on_c, 0, 33, 41
1, 428781, Note_off_c, 0, 33, 58
1, 428786, Note_on_c, 0, 59, 69
1, 428787, Note_on_c, 0, 62, 73
1, 428823, Note_off_c, 0, 64, 57
1, 428843, Note_on_c, 0, 45, 41
1, 428871, Note_off_c, 0, 45, 61
1, 428905, Note_on_c, 0, 33, 54
1, 428951, Note_off_c, 0, 33, 60
1, 428981, Note_on_c, 0, 45, 43
1, 429003, Note_off_c, 0, 59, 36
1, 429030, Note_off_c, 0, 45, 63
1, 429044, Note_off_c, 0, 69, 23
1, 429082, Note_on_c, 0, 33, 46
1, 429121, Note_off_c, 0, 33, 62
1, 429168, Note_off_c, 0, 62, 54
1, 429181, Note_on_c, 0, 45, 42
1, 429199, Note_on_c, 0, 68, 84
1, 429211, Note_off_c, 0, 45, 59
1, 429249, Note_on_c, 0, 33, 44
1, 429285, Note_off_c, 0, 33, 62
1, 429286, Note_off_c, 0, 68, 62
1, 429312, Note_on_c, 0, 45, 50
1, 429345, Note_off_c, 0, 45, 64
1, 429381, Note_on_c, 0, 33, 54
1, 429413, Note_off_c, 0, 33, 62
1, 429440, Note_on_c, 0, 45, 53
1, 429478, Note_off_c, 0, 45, 64
1, 429509, Note_on_c, 0, 33, 56
1, 429550, Note_off_c, 0, 33, 62
1, 429589, Note_on_c, 0, 45, 52
1, 429601, Note_on_c, 0, 74, 86
1, 429601, Note_on_c, 0, 67, 72
1, 429607, Note_on_c, 0, 70, 72
1, 429631, Control_c, 0, 64, 103
1, 429635, Note_off_c, 0, 45, 60
1, 429646, Control_c, 0, 64, 79
1, 429658, Note_on_c, 0, 33, 56
1, 429661, Control_c, 0, 64, 69
1, 429676, Control_c, 0, 64, 68
1, 429690, Control_c, 0, 64, 73
1, 429705, Control_c, 0, 64, 83
1, 429710, Note_off_c, 0, 33, 60
1, 429720, Control_c, 0, 64, 122
1, 429734, Control_c, 0, 64, 127
1, 429747, Note_on_c, 0, 45, 59
1, 429782, Note_off_c, 0, 45, 65
1, 429831, Note_on_c, 0, 33, 48
1, 429858, Note_off_c, 0, 33, 58
1, 429875, Note_on_c, 0, 45, 52
1, 429918, Note_off_c, 0, 45, 63
1, 429945, Note_on_c, 0, 33, 59
1, 429988, Note_off_c, 0, 33, 62
1, 429999, Note_on_c, 0, 65, 71
1, 430000, Note_on_c, 0, 69, 79
1, 430023, Note_on_c, 0, 45, 56
1, 430027, Note_off_c, 0, 67, 60
1, 430051, Note_off_c, 0, 70, 64
1, 430057, Note_off_c, 0, 45, 64
1, 430089, Note_on_c, 0, 33, 61
1, 430108, Note_off_c, 0, 65, 58
1, 430127, Note_off_c, 0, 33, 58
1, 430146, Note_on_c, 0, 45, 55
1, 430180, Note_off_c, 0, 45, 64
1, 430216, Note_on_c, 0, 33, 59
1, 430254, Note_off_c, 0, 33, 57
1, 430269, Note_on_c, 0, 45, 57
1, 430298, Note_off_c, 0, 45, 68
1, 430350, Note_on_c, 0, 33, 56
1, 430373, Note_on_c, 0, 67, 82
1, 430379, Note_on_c, 0, 64, 73
1, 430379, Note_off_c, 0, 33, 60
1, 430392, Note_off_c, 0, 69, 60
1, 430394, Note_on_c, 0, 45, 58
1, 430429, Note_off_c, 0, 45, 64
1, 430457, Note_on_c, 0, 33, 66
1, 430488, Note_off_c, 0, 33, 62
1, 430507, Note_off_c, 0, 64, 56
1, 430509, Note_on_c, 0, 45, 62
1, 430546, Note_off_c, 0, 45, 63
1, 430574, Note_on_c, 0, 33, 64
1, 430603, Note_off_c, 0, 74, 54
1, 430605, Note_off_c, 0, 33, 63
1, 430630, Note_on_c, 0, 45, 61
1, 430668, Note_off_c, 0, 45, 63
1, 430692, Note_on_c, 0, 33, 58
1, 430720, Note_off_c, 0, 33, 67
1, 430746, Note_on_c, 0, 73, 87
1, 430751, Note_on_c, 0, 45, 68
1, 430779, Note_off_c, 0, 67, 63
1, 430788, Note_off_c, 0, 45, 64
1, 430813, Note_on_c, 0, 33, 59
1, 430828, Note_off_c, 0, 73, 64
1, 430847, Note_off_c, 0, 33, 61
1, 430867, Note_on_c, 0, 45, 71
1, 430896, Note_off_c, 0, 45, 67
1, 430930, Note_on_c, 0, 33, 64
1, 430962, Note_off_c, 0, 33, 63
1, 430972, Note_on_c, 0, 45, 71
1, 431006, Note_off_c, 0, 45, 63
1, 431038, Note_on_c, 0, 33, 68
1, 431083, Note_off_c, 0, 33, 63
1, 431107, Note_on_c, 0, 45, 67
1, 431130, Note_on_c, 0, 73, 78
1, 431131, Note_on_c, 0, 69, 88
1, 431133, Note_on_c, 0, 77, 92
1, 431142, Note_off_c, 0, 45, 63
1, 431142, Control_c, 0, 64, 112
1, 431157, Control_c, 0, 64, 73
1, 431162, Note_on_c, 0, 33, 71
1, 431172, Control_c, 0, 64, 57
1, 431187, Control_c, 0, 64, 47
1, 431197, Note_off_c, 0, 33, 64
1, 431202, Control_c, 0, 64, 57
1, 431217, Control_c, 0, 64, 63
1, 431226, Note_on_c, 0, 45, 67
1, 431232, Control_c, 0, 64, 69
1, 431247, Control_c, 0, 64, 84
1, 431261, Control_c, 0, 64, 127
1, 431269, Note_off_c, 0, 45, 61
1, 431300, Note_on_c, 0, 33, 71
1, 431322, Note_off_c, 0, 73, 55
1, 431339, Note_off_c, 0, 33, 61
1, 431354, Note_off_c, 0, 69, 61
1, 431376, Note_on_c, 0, 45, 60
1, 431421, Note_off_c, 0, 45, 63
1, 431453, Note_on_c, 0, 33, 60
1, 431476, Note_off_c, 0, 77, 56
1, 431493, Note_off_c, 0, 33, 63
1, 431538, Note_on_c, 0, 45, 55
1, 431581, Note_off_c, 0, 45, 60
1, 431621, Note_on_c, 0, 76, 90
1, 431622, Note_on_c, 0, 33, 61
1, 431627, Note_on_c, 0, 67, 75
1, 431664, Note_off_c, 0, 33, 61
1, 431704, Note_on_c, 0, 45, 57
1, 431718, Note_off_c, 0, 76, 64
1, 431739, Note_off_c, 0, 67, 62
1, 431750, Note_off_c, 0, 45, 63
1, 431776, Note_on_c, 0, 33, 61
1, 431825, Note_off_c, 0, 33, 59
1, 431857, Note_on_c, 0, 45, 59
1, 431887, Note_off_c, 0, 45, 66
1, 431918, Note_on_c, 0, 33, 64
1, 431959, Note_off_c, 0, 33, 55
1, 431974, Note_on_c, 0, 45, 56
1, 432015, Note_on_c, 0, 74, 87
1, 432016, Note_on_c, 0, 69, 72
1, 432022, Note_on_c, 0, 65, 73
1, 432025, Note_off_c, 0, 45, 63
1, 432049, Note_on_c, 0, 33, 65
1, 432054, Control_c, 0, 64, 80
1, 432069, Control_c, 0, 64, 65
1, 432079, Note_off_c, 0, 33, 65
1, 432084, Control_c, 0, 64, 57
1, 432099, Control_c, 0, 64, 60
1, 432114, Control_c, 0, 64, 64
1, 432123, Note_on_c, 0, 45, 58
1, 432129, Control_c, 0, 64, 68
1, 432144, Control_c, 0, 64, 76
1, 432155, Note_off_c, 0, 45, 66
1, 432158, Control_c, 0, 64, 92
1, 432173, Control_c, 0, 64, 127
1, 432180, Note_off_c, 0, 69, 61
1, 432189, Note_on_c, 0, 33, 63
1, 432202, Note_off_c, 0, 65, 55
1, 432206, Note_off_c, 0, 74, 61
1, 432224, Note_off_c, 0, 33, 63
1, 432255, Note_on_c, 0, 45, 58
1, 432290, Note_off_c, 0, 45, 64
1, 432319, Note_on_c, 0, 33, 61
1, 432358, Note_off_c, 0, 33, 62
1, 432388, Note_on_c, 0, 45, 51
1, 432407, Note_on_c, 0, 72, 86
1, 432412, Note_on_c, 0, 67, 70
1, 432415, Note_on_c, 0, 64, 68
1, 432432, Note_off_c, 0, 45, 62
1, 432458, Note_on_c, 0, 33, 53
1, 432470, Note_off_c, 0, 64, 47
1, 432470, Note_off_c, 0, 67, 58
1, 432499, Note_off_c, 0, 33, 60
1, 432533, Note_on_c, 0, 45, 53
1, 432534, Note_off_c, 0, 72, 60
1, 432576, Note_off_c, 0, 45, 65
1, 432608, Note_on_c, 0, 33, 56
1, 432645, Note_off_c, 0, 33, 62
1, 432685, Note_on_c, 0, 45, 49
1, 432722, Note_off_c, 0, 45, 66
1, 432750, Note_on_c, 0, 33, 51
1, 432789, Note_off_c, 0, 33, 62
1, 432829, Note_on_c, 0, 45, 47
1, 432869, Note_off_c, 0, 45, 63
1, 432876, Note_on_c, 0, 72, 83
1, 432877, Control_c, 0, 64, 82
1, 432879, Note_on_c, 0, 67, 70
1, 432883, Note_on_c, 0, 64, 63
1, 432886, Note_on_c, 0, 33, 56
1, 432892, Control_c, 0, 64, 68
1, 432907, Control_c, 0, 64, 62
1, 432922, Control_c, 0, 64, 63
1, 432931, Note_off_c, 0, 33, 59
1, 432937, Control_c, 0, 64, 65
1, 432951, Control_c, 0, 64, 68
1, 432966, Control_c, 0, 64, 75
1, 432979, Note_on_c, 0, 45, 44
1, 432981, Control_c, 0, 64, 87
1, 432996, Control_c, 0, 64, 110
1, 433011, Control_c, 0, 64, 127
1, 433023, Note_off_c, 0, 45, 63
1, 433047, Note_on_c, 0, 33, 51
1, 433068, Note_off_c, 0, 67, 59
1, 433086, Note_off_c, 0, 64, 55
1, 433088, Note_off_c, 0, 33, 60
1, 433127, Note_on_c, 0, 45, 46
1, 433166, Note_off_c, 0, 45, 61
1, 433199, Note_on_c, 0, 33, 50
1, 433242, Note_off_c, 0, 33, 60
1, 433265, Note_off_c, 0, 72, 60
1, 433274, Note_on_c, 0, 45, 47
1, 433325, Note_on_c, 0, 67, 49
1, 433329, Note_off_c, 0, 45, 57
1, 433332, Note_on_c, 0, 64, 45
1, 433342, Note_on_c, 0, 62, 39
1, 433369, Note_on_c, 0, 33, 39
1, 433409, Note_off_c, 0, 33, 57
1, 433413, Note_off_c, 0, 62, 59
1, 433470, Note_on_c, 0, 45, 29
1, 433485, Note_off_c, 0, 67, 37
1, 433513, Note_off_c, 0, 45, 45
1, 433522, Note_on_c, 0, 33, 45
1, 433560, Note_off_c, 0, 33, 62
1, 433596, Note_on_c, 0, 70, 63
1, 433616, Note_on_c, 0, 45, 40
1, 433649, Note_off_c, 0, 64, 34
1, 433652, Note_off_c, 0, 45, 62
1, 433693, Note_off_c, 0, 70, 55
1, 433698, Note_on_c, 0, 33, 39
1, 433729, Note_off_c, 0, 33, 60
1, 433768, Note_on_c, 0, 45, 38
1, 433812, Note_off_c, 0, 45, 60
1, 433849, Note_on_c, 0, 33, 33
1, 433904, Note_on_c, 0, 69, 63
1, 433909, Note_on_c, 0, 61, 51
1, 433909, Note_off_c, 0, 33, 53
1, 433912, Note_on_c, 0, 64, 43
1, 433912, Note_on_c, 0, 67, 52
1, 433923, Control_c, 0, 64, 100
1, 433937, Control_c, 0, 64, 79
1, 433952, Control_c, 0, 64, 68
1, 433961, Note_on_c, 0, 45, 18
1, 433967, Control_c, 0, 64, 64
1, 433981, Control_c, 0, 64, 65
1, 433996, Control_c, 0, 64, 68
1, 434004, Note_off_c, 0, 45, 51
1, 434013, Control_c, 0, 64, 73
1, 434022, Note_on_c, 0, 33, 40
1, 434027, Control_c, 0, 64, 82
1, 434042, Control_c, 0, 64, 99
1, 434064, Control_c, 0, 64, 127
1, 434104, Note_off_c, 0, 33, 40
1, 434128, Note_on_c, 0, 45, 33
1, 434164, Note_off_c, 0, 45, 51
1, 434168, Note_on_c, 0, 33, 28
1, 434174, Note_off_c, 0, 69, 56
1, 434175, Note_off_c, 0, 67, 53
1, 434180, Note_off_c, 0, 64, 59
1, 434192, Note_off_c, 0, 61, 39
1, 434224, Note_off_c, 0, 33, 48
1, 434270, Note_on_c, 0, 45, 6
1, 434288, Note_on_c, 0, 33, 32
1, 434344, Note_off_c, 0, 33, 49
1, 434412, Note_off_c, 0, 45, 52
1, 434420, Note_on_c, 0, 33, 40
1, 434466, Note_off_c, 0, 33, 58
1, 434490, Note_on_c, 0, 45, 38
1, 434538, Note_off_c, 0, 45, 60
1, 434571, Note_on_c, 0, 33, 44
1, 434616, Note_off_c, 0, 33, 50
1, 434654, Note_on_c, 0, 45, 30
1, 434695, Note_off_c, 0, 45, 50
1, 434711, Note_on_c, 0, 33, 43
1, 434749, Note_off_c, 0, 33, 60
1, 434818, Note_on_c, 0, 45, 41
1, 434857, Note_off_c, 0, 45, 58
1, 434860, Note_on_c, 0, 33, 50
1, 434912, Note_off_c, 0, 33, 58
1, 434956, Note_on_c, 0, 45, 53
1, 435003, Note_off_c, 0, 45, 57
1, 435027, Note_on_c, 0, 33, 51
1, 435088, Note_off_c, 0, 33, 55
1, 435099, Note_on_c, 0, 65, 67
1, 435100, Note_on_c, 0, 69, 82
1, 435104, Note_on_c, 0, 62, 64
1, 435116, Note_on_c, 0, 45, 51
1, 435169, Control_c, 0, 64, 92
1, 435183, Control_c, 0, 64, 76
1, 435198, Control_c, 0, 64, 67
1, 435213, Control_c, 0, 64, 63
1, 435227, Control_c, 0, 64, 64
1, 435232, Note_on_c, 0, 33, 41
1, 435241, Note_off_c, 0, 45, 36
1, 435242, Control_c, 0, 64, 65
1, 435257, Control_c, 0, 64, 67
1, 435272, Control_c, 0, 64, 72
1, 435284, Note_off_c, 0, 33, 58
1, 435287, Control_c, 0, 64, 79
1, 435301, Control_c, 0, 64, 89
1, 435310, Note_on_c, 0, 45, 42
1, 435316, Control_c, 0, 64, 97
1, 435331, Control_c, 0, 64, 107
1, 435346, Control_c, 0, 64, 127
1, 435406, Note_off_c, 0, 45, 47
1, 435419, Note_on_c, 0, 33, 40
1, 435487, Note_off_c, 0, 33, 52
1, 435534, Note_on_c, 0, 45, 34
1, 435612, Note_off_c, 0, 45, 54
1, 435622, Note_off_c, 0, 62, 52
1, 435650, Note_on_c, 0, 33, 41
1, 435704, Note_on_c, 0, 64, 59
1, 435707, Note_on_c, 0, 60, 50
1, 435709, Note_off_c, 0, 33, 53
1, 435738, Note_off_c, 0, 65, 32
1, 435754, Note_on_c, 0, 45, 37
1, 435809, Note_off_c, 0, 45, 46
1, 435853, Note_on_c, 0, 33, 38
1, 435887, Note_off_c, 0, 33, 59
1, 435891, Note_off_c, 0, 60, 43
1, 435948, Note_on_c, 0, 45, 25
1, 435986, Note_on_c, 0, 33, 46
1, 435986, Note_off_c, 0, 45, 52
1, 436043, Note_off_c, 0, 33, 55
1, 436058, Note_off_c, 0, 64, 50
1, 436111, Note_on_c, 0, 45, 38
1, 436131, Note_on_c, 0, 62, 59
1, 436132, Note_on_c, 0, 59, 54
1, 436153, Note_off_c, 0, 45, 57
1, 436174, Note_on_c, 0, 33, 43
1, 436220, Note_off_c, 0, 33, 60
1, 436266, Note_on_c, 0, 45, 48
1, 436323, Note_off_c, 0, 45, 58
1, 436360, Note_on_c, 0, 33, 43
1, 436393, Note_off_c, 0, 69, 52
1, 436408, Note_off_c, 0, 33, 58
1, 436446, Note_on_c, 0, 45, 41
1, 436464, Note_off_c, 0, 59, 36
1, 436495, Note_off_c, 0, 45, 59
1, 436529, Note_on_c, 0, 33, 47
1, 436556, Note_on_c, 0, 68, 76
1, 436576, Note_off_c, 0, 33, 57
1, 436615, Note_on_c, 0, 45, 46
1, 436626, Note_off_c, 0, 62, 60
1, 436669, Note_off_c, 0, 45, 59
1, 436674, Note_off_c, 0, 68, 61
1, 436693, Poly_aftertouch_c, 0, 59, 0
1, 436703, Note_on_c, 0, 33, 50
1, 436748, Note_off_c, 0, 33, 56
1, 436782, Note_on_c, 0, 45, 47
1, 436837, Note_off_c, 0, 45, 57
1, 436870, Note_on_c, 0, 33, 49
1, 436924, Note_off_c, 0, 33, 58
1, 436966, Note_on_c, 0, 60, 64
1, 436967, Note_on_c, 0, 45, 44
1, 436967, Note_on_c, 0, 67, 75
1, 436971, Note_on_c, 0, 63, 65
1, 436992, Control_c, 0, 64, 104
1, 437006, Control_c, 0, 64, 84
1, 437021, Control_c, 0, 64, 74
1, 437027, Note_off_c, 0, 45, 57
1, 437036, Control_c, 0, 64, 69
1, 437053, Note_on_c, 0, 33, 46
1, 437059, Control_c, 0, 64, 69
1, 437074, Control_c, 0, 64, 71
1, 437088, Control_c, 0, 64, 75
1, 437103, Control_c, 0, 64, 80
1, 437109, Note_off_c, 0, 33, 52
1, 437118, Control_c, 0, 64, 87
1, 437133, Control_c, 0, 64, 97
1, 437148, Control_c, 0, 64, 108
1, 437155, Note_on_c, 0, 45, 50
1, 437162, Control_c, 0, 64, 127
1, 437194, Note_off_c, 0, 45, 63
1, 437227, Note_on_c, 0, 33, 51
1, 437272, Note_off_c, 0, 33, 59
1, 437307, Note_on_c, 0, 45, 46
1, 437361, Note_off_c, 0, 60, 55
1, 437384, Note_on_c, 0, 58, 60
1, 437389, Note_on_c, 0, 62, 69
1, 437396, Note_off_c, 0, 45, 53
1, 437429, Note_on_c, 0, 33, 29
1, 437478, Note_off_c, 0, 33, 48
1, 437521, Note_off_c, 0, 58, 34
1, 437533, Note_on_c, 0, 45, 34
1, 437563, Note_off_c, 0, 45, 59
1, 437589, Note_on_c, 0, 33, 44
1, 437638, Note_off_c, 0, 33, 57
1, 437665, Note_on_c, 0, 45, 43
1, 437763, Note_off_c, 0, 45, 59
1, 437777, Note_on_c, 0, 60, 72
1, 437779, Note_on_c, 0, 57, 63
1, 437781, Note_on_c, 0, 33, 47
1, 437846, Note_off_c, 0, 33, 55
1, 437878, Note_off_c, 0, 67, 52
1, 437890, Note_off_c, 0, 63, 40
1, 437903, Note_off_c, 0, 62, 55
1, 437910, Note_on_c, 0, 45, 43
1, 437961, Note_off_c, 0, 45, 59
1, 437975, Note_off_c, 0, 57, 53
1, 437986, Note_on_c, 0, 33, 47
1, 438049, Note_off_c, 0, 33, 56
1, 438088, Note_on_c, 0, 45, 45
1, 438144, Note_on_c, 0, 66, 75
1, 438180, Note_off_c, 0, 45, 61
1, 438192, Note_off_c, 0, 60, 57
1, 438203, Note_on_c, 0, 33, 41
1, 438252, Note_off_c, 0, 33, 58
1, 438314, Note_on_c, 0, 45, 46
1, 438376, Note_off_c, 0, 45, 58
1, 438400, Note_on_c, 0, 33, 43
1, 438469, Note_off_c, 0, 33, 52
1, 438495, Note_on_c, 0, 45, 53
1, 438496, Note_on_c, 0, 70, 83
1, 438505, Note_on_c, 0, 62, 64
1, 438505, Control_c, 0, 64, 105
1, 438519, Control_c, 0, 64, 80
1, 438534, Control_c, 0, 64, 67
1, 438537, Note_off_c, 0, 66, 61
1, 438556, Control_c, 0, 64, 63
1, 438571, Control_c, 0, 64, 64
1, 438586, Control_c, 0, 64, 66
1, 438601, Control_c, 0, 64, 70
1, 438606, Note_off_c, 0, 45, 61
1, 438615, Control_c, 0, 64, 76
1, 438616, Note_on_c, 0, 33, 47
1, 438630, Control_c, 0, 64, 87
1, 438645, Control_c, 0, 64, 101
1, 438660, Control_c, 0, 64, 127
1, 438668, Note_off_c, 0, 33, 55
1, 438672, Note_off_c, 0, 62, 60
1, 438709, Note_on_c, 0, 45, 44
1, 438757, Note_off_c, 0, 70, 58
1, 438788, Note_off_c, 0, 45, 58
1, 438811, Note_on_c, 0, 33, 47
1, 438842, Note_on_c, 0, 69, 83
1, 438848, Note_on_c, 0, 60, 72
1, 438850, Note_on_c, 0, 66, 68
1, 438883, Note_off_c, 0, 33, 53
1, 438911, Note_on_c, 0, 45, 56
1, 438919, Note_off_c, 0, 60, 60
1, 438997, Note_off_c, 0, 66, 57
1, 439012, Note_off_c, 0, 69, 56
1, 439013, Note_off_c, 0, 45, 61
1, 439023, Note_on_c, 0, 33, 54
1, 439098, Note_off_c, 0, 33, 53
1, 439140, Note_on_c, 0, 45, 51
1, 439156, Note_on_c, 0, 67, 78
1, 439158, Note_on_c, 0, 58, 70
1, 439221, Note_off_c, 0, 58, 63
1, 439222, Note_off_c, 0, 45, 62
1, 439242, Note_on_c, 0, 33, 54
1, 439262, Note_off_c, 0, 67, 62
1, 439315, Note_off_c, 0, 33, 56
1, 439343, Note_on_c, 0, 45, 52
1, 439410, Note_off_c, 0, 45, 58
1, 439441, Note_on_c, 0, 70, 80
1, 439442, Note_on_c, 0, 33, 56
1, 439444, Note_on_c, 0, 67, 76
1, 439446, Note_on_c, 0, 62, 69
1, 439479, Note_off_c, 0, 62, 61
1, 439485, Note_off_c, 0, 33, 59
1, 439528, Note_on_c, 0, 45, 47
1, 439551, Note_off_c, 0, 70, 60
1, 439556, Note_off_c, 0, 67, 59
1, 439559, Note_off_c, 0, 45, 61
1, 439571, Note_on_c, 0, 33, 63
1, 439619, Note_off_c, 0, 33, 58
1, 439645, Note_on_c, 0, 45, 57
1, 439702, Note_off_c, 0, 45, 56
1, 439730, Note_on_c, 0, 33, 56
1, 439734, Note_on_c, 0, 76, 91
1, 439736, Control_c, 0, 64, 93
1, 439736, Note_on_c, 0, 67, 83
1, 439737, Note_on_c, 0, 70, 78
1, 439751, Control_c, 0, 64, 72
1, 439766, Control_c, 0, 64, 62
1, 439780, Control_c, 0, 64, 61
1, 439785, Note_off_c, 0, 33, 52
1, 439795, Control_c, 0, 64, 63
1, 439810, Control_c, 0, 64, 65
1, 439825, Control_c, 0, 64, 71
1, 439827, Note_on_c, 0, 45, 59
1, 439832, Note_off_c, 0, 67, 62
1, 439839, Control_c, 0, 64, 83
1, 439854, Control_c, 0, 64, 113
1, 439866, Note_off_c, 0, 76, 59
1, 439869, Control_c, 0, 64, 127
1, 439891, Note_off_c, 0, 45, 57
1, 439915, Note_on_c, 0, 33, 59
1, 439948, Note_off_c, 0, 70, 25
1, 439956, Note_off_c, 0, 33, 60
1, 440004, Note_on_c, 0, 70, 62
1, 440005, Note_on_c, 0, 74, 87
1, 440006, Note_on_c, 0, 67, 69
1, 440009, Note_on_c, 0, 45, 60
1, 440010, Note_on_c, 0, 65, 79
1, 440085, Note_off_c, 0, 65, 61
1, 440091, Note_off_c, 0, 45, 61
1, 440094, Note_on_c, 0, 33, 54
1, 440094, Note_off_c, 0, 74, 55
1, 440104, Note_off_c, 0, 70, 64
1, 440157, Note_off_c, 0, 67, 48
1, 440163, Note_off_c, 0, 33, 56
1, 440199, Note_on_c, 0, 45, 54
1, 440258, Note_on_c, 0, 67, 68
1, 440261, Note_on_c, 0, 73, 91
1, 440263, Note_off_c, 0, 45, 58
1, 440265, Note_on_c, 0, 64, 71
1, 440270, Note_on_c, 0, 69, 70
1, 440288, Note_on_c, 0, 33, 66
1, 440291, Note_off_c, 0, 64, 69
1, 440297, Note_off_c, 0, 69, 67
1, 440306, Note_off_c, 0, 67, 63
1, 440327, Note_off_c, 0, 73, 65
1, 440338, Note_off_c, 0, 33, 59
1, 440377, Note_on_c, 0, 45, 60
1, 440438, Note_off_c, 0, 45, 55
1, 440464, Note_on_c, 0, 33, 57
1, 440485, Note_on_c, 0, 76, 94
1, 440486, Note_on_c, 0, 69, 85
1, 440486, Note_on_c, 0, 73, 87
1, 440525, Note_off_c, 0, 33, 58
1, 440544, Note_off_c, 0, 69, 61
1, 440553, Note_on_c, 0, 45, 65
1, 440586, Note_off_c, 0, 73, 52
1, 440598, Note_off_c, 0, 76, 55
1, 440599, Note_off_c, 0, 45, 63
1, 440631, Note_on_c, 0, 33, 67
1, 440666, Note_off_c, 0, 33, 64
1, 440692, Control_c, 0, 64, 96
1, 440693, Note_on_c, 0, 45, 67
1, 440707, Control_c, 0, 64, 71
1, 440708, Note_on_c, 0, 81, 96
1, 440711, Note_on_c, 0, 73, 94
1, 440712, Note_on_c, 0, 76, 88
1, 440721, Control_c, 0, 64, 64
1, 440736, Control_c, 0, 64, 68
1, 440747, Note_off_c, 0, 45, 62
1, 440751, Control_c, 0, 64, 76
1, 440755, Note_on_c, 0, 33, 64
1, 440766, Control_c, 0, 64, 99
1, 440781, Control_c, 0, 64, 127
1, 440801, Note_off_c, 0, 76, 62
1, 440817, Note_off_c, 0, 81, 64
1, 440818, Note_off_c, 0, 73, 61
1, 440822, Note_off_c, 0, 33, 60
1, 440851, Note_on_c, 0, 45, 64
1, 440917, Note_off_c, 0, 45, 59
1, 440944, Note_on_c, 0, 33, 70
1, 440944, Note_on_c, 0, 73, 82
1, 440947, Note_on_c, 0, 79, 92
1, 440948, Note_on_c, 0, 69, 88
1, 440949, Note_on_c, 0, 76, 82
1, 441000, Note_off_c, 0, 33, 59
1, 441003, Note_off_c, 0, 76, 64
1, 441010, Note_off_c, 0, 69, 65
1, 441010, Note_off_c, 0, 73, 63
1, 441018, Note_off_c, 0, 79, 61
1, 441024, Note_on_c, 0, 45, 70
1, 441099, Note_off_c, 0, 45, 60
1, 441122, Note_on_c, 0, 33, 68
1, 441138, Note_on_c, 0, 74, 80
1, 441143, Note_on_c, 0, 77, 88
1, 441143, Note_on_c, 0, 69, 79
1, 441182, Note_off_c, 0, 74, 65
1, 441182, Note_off_c, 0, 33, 59
1, 441195, Note_off_c, 0, 69, 63
1, 441206, Note_off_c, 0, 77, 63
1, 441212, Note_on_c, 0, 45, 65
1, 441276, Note_off_c, 0, 45, 61
1, 441307, Note_on_c, 0, 33, 66
1, 441326, Note_on_c, 0, 70, 82
1, 441328, Note_on_c, 0, 76, 92
1, 441330, Note_on_c, 0, 67, 82
1, 441370, Note_off_c, 0, 33, 57
1, 441374, Note_off_c, 0, 70, 64
1, 441384, Note_off_c, 0, 67, 61
1, 441386, Note_on_c, 0, 45, 69
1, 441395, Note_off_c, 0, 76, 63
1, 441468, Note_off_c, 0, 45, 59
1, 441494, Note_on_c, 0, 33, 70
1, 441502, Note_on_c, 0, 74, 93
1, 441504, Note_on_c, 0, 69, 88
1, 441507, Note_on_c, 0, 65, 82
1, 441542, Note_off_c, 0, 69, 64
1, 441552, Note_off_c, 0, 74, 67
1, 441553, Note_off_c, 0, 65, 61
1, 441569, Note_off_c, 0, 33, 54
1, 441587, Note_on_c, 0, 45, 67
1, 441680, Note_off_c, 0, 45, 61
1, 441684, Note_on_c, 0, 73, 91
1, 441686, Note_on_c, 0, 67, 81
1, 441690, Note_on_c, 0, 64, 77
1, 441692, Note_on_c, 0, 33, 75
1, 441692, Note_on_c, 0, 69, 76
1, 441715, Note_off_c, 0, 64, 67
1, 441719, Note_off_c, 0, 69, 65
1, 441725, Note_off_c, 0, 67, 60
1, 441749, Note_off_c, 0, 73, 61
1, 441754, Note_off_c, 0, 33, 60
1, 441785, Note_on_c, 0, 45, 67
1, 441865, Note_off_c, 0, 45, 60
1, 441866, Note_on_c, 0, 69, 85
1, 441872, Note_on_c, 0, 65, 79
1, 441873, Note_on_c, 0, 33, 77
1, 441874, Note_on_c, 0, 74, 86
1, 441903, Note_off_c, 0, 69, 64
1, 441911, Note_off_c, 0, 65, 61
1, 441915, Note_off_c, 0, 74, 62
1, 441930, Note_off_c, 0, 33, 57
1, 441958, Note_on_c, 0, 45, 66
1, 442028, Note_off_c, 0, 45, 61
1, 442040, Note_on_c, 0, 70, 86
1, 442042, Note_on_c, 0, 61, 84
1, 442043, Note_on_c, 0, 33, 82
1, 442048, Note_on_c, 0, 64, 79
1, 442055, Note_on_c, 0, 67, 71
1, 442081, Note_on_c, 0, 69, 49
1, 442096, Note_off_c, 0, 33, 61
1, 442097, Note_off_c, 0, 61, 59
1, 442097, Note_off_c, 0, 64, 60
1, 442105, Note_off_c, 0, 67, 57
1, 442109, Note_off_c, 0, 69, 62
1, 442136, Note_off_c, 0, 70, 61
1, 442139, Note_on_c, 0, 45, 63
1, 442210, Note_on_c, 0, 69, 83
1, 442216, Note_on_c, 0, 62, 79
1, 442216, Note_on_c, 0, 65, 79
1, 442221, Note_on_c, 0, 33, 72
1, 442225, Note_off_c, 0, 45, 56
1, 442256, Note_off_c, 0, 62, 53
1, 442273, Note_off_c, 0, 65, 62
1, 442277, Note_off_c, 0, 69, 63
1, 442279, Note_off_c, 0, 33, 60
1, 442327, Note_on_c, 0, 45, 54
1, 442384, Note_on_c, 0, 68, 84
1, 442389, Note_on_c, 0, 64, 68
1, 442396, Note_on_c, 0, 33, 75
1, 442404, Note_off_c, 0, 45, 60
1, 442409, Note_on_c, 0, 65, 52
1, 442427, Note_off_c, 0, 65, 64
1, 442432, Note_off_c, 0, 64, 61
1, 442442, Note_off_c, 0, 33, 60
1, 442470, Note_off_c, 0, 68, 58
1, 442494, Note_on_c, 0, 45, 61
1, 442544, Note_on_c, 0, 65, 64
1, 442561, Note_off_c, 0, 45, 60
1, 442562, Note_on_c, 0, 69, 81
1, 442567, Note_on_c, 0, 33, 74
1, 442592, Note_off_c, 0, 65, 65
1, 442601, Note_off_c, 0, 69, 63
1, 442616, Note_off_c, 0, 33, 60
1, 442668, Note_on_c, 0, 45, 58
1, 442728, Note_off_c, 0, 45, 57
1, 442738, Note_on_c, 0, 57, 88
1, 442746, Note_on_c, 0, 65, 88
1, 442747, Note_on_c, 0, 33, 75
1, 442754, Note_on_c, 0, 62, 79
1, 442763, Note_on_c, 0, 61, 44
1, 442792, Note_off_c, 0, 61, 54
1, 442801, Note_off_c, 0, 57, 59
1, 442808, Note_off_c, 0, 33, 58
1, 442813, Note_off_c, 0, 62, 61
1, 442816, Note_off_c, 0, 65, 61
1, 442842, Note_on_c, 0, 45, 58
1, 442920, Note_off_c, 0, 45, 61
1, 442935, Note_on_c, 0, 64, 86
1, 442935, Note_on_c, 0, 33, 79
1, 442937, Note_on_c, 0, 55, 84
1, 442937, Note_on_c, 0, 57, 83
1, 442941, Note_on_c, 0, 62, 78
1, 442989, Poly_aftertouch_c, 0, 56, 0
1, 442991, Note_off_c, 0, 55, 62
1, 442994, Note_off_c, 0, 57, 58
1, 442997, Note_off_c, 0, 33, 60
1, 443006, Note_off_c, 0, 62, 53
1, 443009, Poly_aftertouch_c, 0, 56, 0
1, 443009, Note_off_c, 0, 64, 65
1, 443018, Note_on_c, 0, 45, 64
1, 443105, Note_off_c, 0, 45, 57
1, 443143, Note_on_c, 0, 33, 78
1, 443146, Note_on_c, 0, 57, 79
1, 443146, Note_on_c, 0, 62, 90
1, 443149, Note_on_c, 0, 53, 87
1, 443168, Note_on_c, 0, 59, 59
1, 443194, Note_off_c, 0, 59, 54
1, 443200, Note_off_c, 0, 33, 59
1, 443204, Note_off_c, 0, 53, 64
1, 443219, Note_on_c, 0, 45, 47
1, 443223, Note_off_c, 0, 57, 63
1, 443229, Note_off_c, 0, 62, 64
1, 443262, Note_off_c, 0, 45, 56
1, 443360, Control_c, 0, 64, 106
1, 443363, Note_on_c, 0, 59, 36
1, 443369, Note_on_c, 0, 45, 97
1, 443372, Note_on_c, 0, 52, 95
1, 443372, Note_on_c, 0, 56, 91
1, 443374, Note_on_c, 0, 33, 89
1, 443374, Note_on_c, 0, 64, 91
1, 443375, Control_c, 0, 64, 62
1, 443389, Control_c, 0, 64, 0
1, 443463, Control_c, 0, 64, 53
1, 443478, Control_c, 0, 64, 65
1, 443493, Control_c, 0, 64, 75
1, 443508, Control_c, 0, 64, 99
1, 443522, Control_c, 0, 64, 127
1, 443697, Note_off_c, 0, 45, 52
1, 443707, Note_off_c, 0, 33, 36
1, 443733, Note_off_c, 0, 52, 51
1, 443746, Note_off_c, 0, 64, 48
1, 443750, Note_off_c, 0, 56, 28
1, 443846, Note_off_c, 0, 59, 25
1, 443949, Note_on_c, 0, 56, 90
1, 443950, Note_on_c, 0, 45, 91
1, 443950, Note_on_c, 0, 52, 95
1, 443953, Note_on_c, 0, 59, 97
1, 443954, Note_on_c, 0, 33, 82
1, 443960, Control_c, 0, 64, 80
1, 443975, Control_c, 0, 64, 53
1, 443990, Control_c, 0, 64, 0
1, 444035, Control_c, 0, 64, 23
1, 444050, Control_c, 0, 64, 60
1, 444064, Control_c, 0, 64, 67
1, 444079, Control_c, 0, 64, 76
1, 444094, Control_c, 0, 64, 94
1, 444109, Control_c, 0, 64, 127
1, 444219, Note_off_c, 0, 52, 50
1, 444231, Note_off_c, 0, 45, 49
1, 444245, Note_off_c, 0, 59, 61
1, 444270, Note_off_c, 0, 33, 53
1, 444270, Note_off_c, 0, 56, 60
1, 444570, Note_on_c, 0, 62, 89
1, 444571, Note_on_c, 0, 45, 94
1, 444571, Note_on_c, 0, 52, 97
1, 444571, Note_on_c, 0, 55, 87
1, 444574, Note_on_c, 0, 33, 87
1, 444574, Note_on_c, 0, 57, 81
1, 444592, Control_c, 0, 64, 86
1, 444607, Control_c, 0, 64, 40
1, 444622, Control_c, 0, 64, 0
1, 444695, Control_c, 0, 64, 57
1, 444710, Control_c, 0, 64, 66
1, 444725, Control_c, 0, 64, 74
1, 444740, Control_c, 0, 64, 88
1, 444755, Control_c, 0, 64, 127
1, 444846, Note_off_c, 0, 52, 53
1, 444855, Note_off_c, 0, 62, 55
1, 444916, Note_off_c, 0, 57, 54
1, 444924, Note_off_c, 0, 55, 58
1, 445066, Note_off_c, 0, 33, 42
1, 445101, Note_off_c, 0, 45, 55
1, 445375, Note_on_c, 0, 61, 93
1, 445379, Note_on_c, 0, 52, 92
1, 445379, Note_on_c, 0, 55, 88
1, 445381, Note_on_c, 0, 45, 87
1, 445381, Note_on_c, 0, 57, 81
1, 445384, Note_on_c, 0, 33, 80
1, 445385, Control_c, 0, 64, 97
1, 445400, Control_c, 0, 64, 65
1, 445415, Control_c, 0, 64, 0
1, 445474, Control_c, 0, 64, 22
1, 445489, Control_c, 0, 64, 48
1, 445504, Control_c, 0, 64, 57
1, 445518, Control_c, 0, 64, 61
1, 445533, Control_c, 0, 64, 65
1, 445548, Control_c, 0, 64, 70
1, 445563, Control_c, 0, 64, 78
1, 445578, Control_c, 0, 64, 91
1, 445592, Control_c, 0, 64, 127
1, 445621, Note_off_c, 0, 45, 47
1, 445652, Note_off_c, 0, 33, 56
1, 445838, Note_off_c, 0, 61, 30
1, 445845, Note_off_c, 0, 57, 38
1, 445901, Note_off_c, 0, 52, 40
1, 445963, Note_off_c, 0, 55, 25
1, 446489, Control_c, 0, 64, 109
1, 446504, Control_c, 0, 64, 68
1, 446519, Control_c, 0, 64, 0
1, 446539, Note_on_c, 0, 38, 96
1, 446543, Note_on_c, 0, 26, 92
1, 446563, Control_c, 0, 64, 41
1, 446578, Control_c, 0, 64, 63
1, 446593, Control_c, 0, 64, 72
1, 446598, Note_off_c, 0, 26, 63
1, 446602, Note_off_c, 0, 38, 61
1, 446607, Control_c, 0, 64, 92
1, 446622, Control_c, 0, 64, 127
1, 446957, Control_c, 0, 64, 115
1, 446971, Control_c, 0, 64, 108
1, 446986, Control_c, 0, 64, 102
1, 447001, Control_c, 0, 64, 95
1, 447016, Control_c, 0, 64, 87
1, 447031, Control_c, 0, 64, 79
1, 447045, Control_c, 0, 64, 72
1, 447060, Control_c, 0, 64, 66
1, 447075, Control_c, 0, 64, 60
1, 447077, Note_on_c, 0, 38, 42
1, 447090, Control_c, 0, 64, 53
1, 447092, Note_on_c, 0, 45, 37
1, 447105, Control_c, 0, 64, 46
1, 447113, Note_off_c, 0, 38, 60
1, 447120, Control_c, 0, 64, 39
1, 447125, Note_off_c, 0, 45, 53
1, 447135, Control_c, 0, 64, 28
1, 447140, Note_on_c, 0, 57, 55
1, 447150, Control_c, 0, 64, 9
1, 447159, Note_on_c, 0, 53, 21
1, 447164, Control_c, 0, 64, 0
1, 447180, Note_off_c, 0, 57, 64
1, 447202, Note_off_c, 0, 53, 41
1, 447215, Note_on_c, 0, 45, 54
1, 447217, Note_on_c, 0, 38, 45
1, 447239, Poly_aftertouch_c, 0, 50, 0
1, 447242, Note_off_c, 0, 45, 59
1, 447255, Note_off_c, 0, 38, 62
1, 447268, Control_c, 0, 64, 23
1, 447276, Note_on_c, 0, 57, 53
1, 447281, Note_on_c, 0, 53, 53
1, 447282, Control_c, 0, 64, 47
1, 447297, Control_c, 0, 64, 58
1, 447312, Control_c, 0, 64, 63
1, 447314, Note_off_c, 0, 57, 62
1, 447316, Note_off_c, 0, 53, 63
1, 447327, Control_c, 0, 64, 66
1, 447342, Control_c, 0, 64, 69
1, 447344, Note_on_c, 0, 46, 53
1, 447351, Note_on_c, 0, 38, 44
1, 447356, Control_c, 0, 64, 74
1, 447371, Control_c, 0, 64, 80
1, 447372, Note_off_c, 0, 46, 56
1, 447385, Note_off_c, 0, 38, 57
1, 447386, Control_c, 0, 64, 85
1, 447396, Note_on_c, 0, 57, 70
1, 447401, Control_c, 0, 64, 88
1, 447416, Control_c, 0, 64, 89
1, 447418, Note_on_c, 0, 53, 45
1, 447445, Control_c, 0, 64, 88
1, 447447, Note_off_c, 0, 53, 54
1, 447456, Note_off_c, 0, 57, 56
1, 447469, Note_on_c, 0, 46, 66
1, 447480, Note_on_c, 0, 38, 52
1, 447490, Control_c, 0, 64, 88
1, 447504, Control_c, 0, 64, 86
1, 447507, Note_off_c, 0, 46, 62
1, 447516, Note_on_c, 0, 55, 64
1, 447516, Note_off_c, 0, 38, 63
1, 447518, Note_on_c, 0, 52, 64
1, 447519, Control_c, 0, 64, 84
1, 447542, Control_c, 0, 64, 82
1, 447547, Poly_aftertouch_c, 0, 50, 127
1, 447556, Note_off_c, 0, 52, 66
1, 447556, Control_c, 0, 64, 79
1, 447560, Note_off_c, 0, 55, 65
1, 447571, Control_c, 0, 64, 76
1, 447584, Poly_aftertouch_c, 0, 50, 0
1, 447587, Control_c, 0, 64, 69
1, 447602, Control_c, 0, 64, 63
1, 447613, Note_on_c, 0, 38, 54
1, 447613, Note_on_c, 0, 46, 66
1, 447617, Control_c, 0, 64, 51
1, 447632, Control_c, 0, 64, 37
1, 447642, Note_off_c, 0, 46, 65
1, 447647, Note_off_c, 0, 38, 63
1, 447647, Control_c, 0, 64, 25
1, 447651, Note_on_c, 0, 52, 56
1, 447653, Note_on_c, 0, 55, 71
1, 447658, Note_on_c, 0, 62, 64
1, 447661, Control_c, 0, 64, 0
1, 447680, Note_off_c, 0, 52, 67
1, 447683, Note_off_c, 0, 55, 62
1, 447687, Note_on_c, 0, 60, 42
1, 447693, Note_off_c, 0, 62, 65
1, 447720, Note_off_c, 0, 60, 33
1, 447728, Note_on_c, 0, 46, 74
1, 447744, Note_on_c, 0, 38, 50
1, 447767, Note_on_c, 0, 55, 69
1, 447770, Note_off_c, 0, 46, 62
1, 447776, Note_on_c, 0, 52, 55
1, 447776, Note_on_c, 0, 62, 81
1, 447781, Note_off_c, 0, 38, 64
1, 447809, Note_off_c, 0, 52, 64
1, 447819, Note_off_c, 0, 62, 58
1, 447819, Note_off_c, 0, 55, 58
1, 447854, Control_c, 0, 64, 22
1, 447865, Note_on_c, 0, 45, 63
1, 447868, Control_c, 0, 64, 55
1, 447877, Note_on_c, 0, 40, 54
1, 447883, Control_c, 0, 64, 62
1, 447895, Note_off_c, 0, 45, 65
1, 447898, Control_c, 0, 64, 65
1, 447904, Note_on_c, 0, 52, 53
1, 447909, Note_on_c, 0, 62, 70
1, 447910, Note_off_c, 0, 40, 64
1, 447913, Control_c, 0, 64, 69
1, 447920, Note_on_c, 0, 55, 48
1, 447928, Control_c, 0, 64, 72
1, 447943, Control_c, 0, 64, 76
1, 447946, Note_off_c, 0, 52, 61
1, 447947, Note_off_c, 0, 62, 60
1, 447957, Note_off_c, 0, 55, 62
1, 447958, Control_c, 0, 64, 80
1, 447972, Control_c, 0, 64, 83
1, 447983, Note_on_c, 0, 45, 63
1, 447987, Control_c, 0, 64, 84
1, 447992, Note_on_c, 0, 40, 59
1, 448017, Poly_aftertouch_c, 0, 38, 0
1, 448019, Note_off_c, 0, 45, 64
1, 448028, Note_on_c, 0, 61, 70
1, 448028, Note_off_c, 0, 40, 63
1, 448031, Note_on_c, 0, 52, 58
1, 448047, Control_c, 0, 64, 84
1, 448052, Note_on_c, 0, 55, 41
1, 448052, Note_off_c, 0, 52, 62
1, 448056, Poly_aftertouch_c, 0, 38, 127
1, 448061, Control_c, 0, 64, 83
1, 448075, Note_off_c, 0, 61, 60
1, 448076, Control_c, 0, 64, 81
1, 448085, Poly_aftertouch_c, 0, 38, 0
1, 448091, Control_c, 0, 64, 79
1, 448094, Note_off_c, 0, 55, 49
1, 448105, Control_c, 0, 64, 75
1, 448114, Note_on_c, 0, 45, 71
1, 448119, Note_on_c, 0, 40, 60
1, 448120, Control_c, 0, 64, 70
1, 448135, Control_c, 0, 64, 63
1, 448147, Note_off_c, 0, 45, 63
1, 448150, Note_on_c, 0, 67, 83
1, 448150, Control_c, 0, 64, 50
1, 448154, Note_off_c, 0, 40, 64
1, 448163, Note_on_c, 0, 58, 73
1, 448165, Control_c, 0, 64, 26
1, 448179, Control_c, 0, 64, 0
1, 448187, Note_off_c, 0, 58, 67
1, 448206, Poly_aftertouch_c, 0, 38, 0
1, 448208, Note_off_c, 0, 67, 62
1, 448233, Note_on_c, 0, 45, 72
1, 448247, Note_on_c, 0, 40, 42
1, 448259, Note_off_c, 0, 45, 66
1, 448262, Note_on_c, 0, 38, 30
1, 448270, Note_on_c, 0, 65, 86
1, 448274, Note_on_c, 0, 57, 73
1, 448290, Note_off_c, 0, 40, 64
1, 448306, Note_off_c, 0, 38, 50
1, 448316, Note_off_c, 0, 57, 67
1, 448327, Note_off_c, 0, 65, 63
1, 448335, Control_c, 0, 64, 19
1, 448350, Control_c, 0, 64, 56
1, 448365, Control_c, 0, 64, 61
1, 448369, Note_on_c, 0, 45, 37
1, 448370, Note_on_c, 0, 49, 76
1, 448381, Control_c, 0, 64, 64
1, 448396, Control_c, 0, 64, 67
1, 448400, Note_on_c, 0, 40, 35
1, 448400, Note_off_c, 0, 49, 66
1, 448404, Note_on_c, 0, 65, 69
1, 448405, Note_off_c, 0, 45, 62
1, 448408, Note_on_c, 0, 55, 67
1, 448410, Control_c, 0, 64, 69
1, 448415, Note_on_c, 0, 64, 62
1, 448425, Control_c, 0, 64, 71
1, 448438, Note_off_c, 0, 40, 52
1, 448440, Control_c, 0, 64, 71
1, 448441, Note_off_c, 0, 65, 59
1, 448443, Note_off_c, 0, 55, 64
1, 448470, Note_off_c, 0, 64, 61
1, 448482, Note_on_c, 0, 49, 73
1, 448484, Control_c, 0, 64, 71
1, 448491, Note_on_c, 0, 45, 58
1, 448491, Poly_aftertouch_c, 0, 38, 0
1, 448499, Control_c, 0, 64, 70
1, 448514, Control_c, 0, 64, 69
1, 448515, Note_off_c, 0, 49, 66
1, 448518, Note_on_c, 0, 40, 31
1, 448526, Note_on_c, 0, 62, 72
1, 448529, Poly_aftertouch_c, 0, 38, 127
1, 448529, Control_c, 0, 64, 66
1, 448530, Note_off_c, 0, 45, 63
1, 448531, Note_on_c, 0, 53, 73
1, 448544, Control_c, 0, 64, 61
1, 448559, Note_off_c, 0, 40, 52
1, 448559, Control_c, 0, 64, 55
1, 448565, Note_off_c, 0, 53, 65
1, 448566, Note_off_c, 0, 62, 62
1, 448574, Control_c, 0, 64, 51
1, 448580, Poly_aftertouch_c, 0, 38, 0
1, 448589, Control_c, 0, 64, 49
1, 448604, Control_c, 0, 64, 46
1, 448607, Note_on_c, 0, 49, 78
1, 448613, Note_on_c, 0, 45, 58
1, 448618, Control_c, 0, 64, 40
1, 448633, Control_c, 0, 64, 30
1, 448637, Note_off_c, 0, 49, 67
1, 448648, Control_c, 0, 64, 0
1, 448653, Note_on_c, 0, 40, 10
1, 448653, Note_off_c, 0, 45, 63
1, 448654, Note_on_c, 0, 64, 70
1, 448655, Note_on_c, 0, 55, 71
1, 448685, Note_off_c, 0, 55, 65
1, 448689, Note_off_c, 0, 64, 63
1, 448713, Note_off_c, 0, 40, 42
1, 448728, Note_on_c, 0, 49, 78
1, 448730, Note_on_c, 0, 45, 66
1, 448742, Note_on_c, 0, 38, 46
1, 448756, Note_off_c, 0, 49, 67
1, 448762, Note_on_c, 0, 65, 77
1, 448770, Note_on_c, 0, 57, 64
1, 448771, Note_off_c, 0, 45, 58
1, 448778, Note_off_c, 0, 38, 60
1, 448799, Note_off_c, 0, 57, 66
1, 448815, Note_off_c, 0, 65, 62
1, 448825, Control_c, 0, 64, 24
1, 448840, Control_c, 0, 64, 50
1, 448855, Control_c, 0, 64, 60
1, 448861, Note_on_c, 0, 50, 57
1, 448864, Note_on_c, 0, 38, 52
1, 448864, Note_on_c, 0, 45, 55
1, 448870, Control_c, 0, 64, 64
1, 448885, Control_c, 0, 64, 67
1, 448893, Note_off_c, 0, 50, 64
1, 448900, Control_c, 0, 64, 70
1, 448906, Note_off_c, 0, 38, 59
1, 448907, Note_on_c, 0, 53, 64
1, 448910, Note_off_c, 0, 45, 59
1, 448911, Note_on_c, 0, 62, 57
1, 448914, Control_c, 0, 64, 75
1, 448929, Control_c, 0, 64, 82
1, 448940, Note_off_c, 0, 53, 64
1, 448944, Control_c, 0, 64, 87
1, 448951, Note_off_c, 0, 62, 61
1, 448959, Control_c, 0, 64, 91
1, 448974, Control_c, 0, 64, 93
1, 448974, Note_on_c, 0, 50, 66
1, 448989, Control_c, 0, 64, 95
1, 449003, Control_c, 0, 64, 96
1, 449008, Note_off_c, 0, 50, 66
1, 449050, Note_on_c, 0, 65, 69
1, 449055, Control_c, 0, 64, 96
1, 449065, Note_on_c, 0, 57, 54
1, 449078, Note_off_c, 0, 65, 67
1, 449089, Note_off_c, 0, 57, 59
1, 449119, Note_on_c, 0, 53, 72
1, 449126, Note_on_c, 0, 50, 59
1, 449129, Control_c, 0, 64, 95
1, 449144, Control_c, 0, 64, 94
1, 449149, Note_off_c, 0, 53, 67
1, 449159, Note_off_c, 0, 50, 66
1, 449159, Control_c, 0, 64, 91
1, 449174, Control_c, 0, 64, 84
1, 449178, Note_on_c, 0, 65, 67
1, 449180, Note_on_c, 0, 69, 69
1, 449185, Note_on_c, 0, 62, 64
1, 449189, Control_c, 0, 64, 72
1, 449204, Control_c, 0, 64, 59
1, 449212, Note_off_c, 0, 65, 61
1, 449216, Note_off_c, 0, 69, 58
1, 449219, Control_c, 0, 64, 0
1, 449220, Note_off_c, 0, 62, 65
1, 449236, Note_on_c, 0, 53, 71
1, 449238, Note_on_c, 0, 50, 55
1, 449265, Note_off_c, 0, 53, 67
1, 449271, Note_off_c, 0, 50, 65
1, 449293, Note_on_c, 0, 69, 81
1, 449297, Note_on_c, 0, 65, 74
1, 449305, Note_on_c, 0, 62, 66
1, 449326, Note_off_c, 0, 65, 64
1, 449334, Note_off_c, 0, 62, 66
1, 449339, Note_off_c, 0, 69, 60
1, 449352, Control_c, 0, 64, 22
1, 449367, Control_c, 0, 64, 54
1, 449371, Note_on_c, 0, 58, 77
1, 449374, Note_on_c, 0, 50, 62
1, 449382, Control_c, 0, 64, 59
1, 449397, Control_c, 0, 64, 63
1, 449402, Note_off_c, 0, 50, 64
1, 449409, Note_off_c, 0, 58, 59
1, 449412, Control_c, 0, 64, 66
1, 449416, Note_on_c, 0, 65, 71
1, 449422, Note_on_c, 0, 62, 53
1, 449423, Note_on_c, 0, 69, 79
1, 449426, Control_c, 0, 64, 69
1, 449441, Control_c, 0, 64, 72
1, 449456, Control_c, 0, 64, 74
1, 449460, Note_off_c, 0, 65, 61
1, 449469, Note_off_c, 0, 62, 59
1, 449471, Control_c, 0, 64, 74
1, 449481, Note_off_c, 0, 69, 61
1, 449486, Control_c, 0, 64, 74
1, 449501, Control_c, 0, 64, 73
1, 449504, Note_on_c, 0, 58, 78
1, 449505, Note_on_c, 0, 50, 65
1, 449534, Note_off_c, 0, 58, 65
1, 449538, Note_off_c, 0, 50, 65
1, 449546, Note_on_c, 0, 67, 76
1, 449548, Note_on_c, 0, 64, 80
1, 449557, Note_on_c, 0, 62, 59
1, 449559, Control_c, 0, 64, 72
1, 449574, Control_c, 0, 64, 71
1, 449575, Note_off_c, 0, 64, 66
1, 449578, Note_off_c, 0, 62, 65
1, 449589, Control_c, 0, 64, 68
1, 449595, Note_off_c, 0, 67, 63
1, 449604, Control_c, 0, 64, 64
1, 449618, Note_on_c, 0, 58, 78
1, 449619, Control_c, 0, 64, 56
1, 449628, Note_on_c, 0, 50, 68
1, 449633, Control_c, 0, 64, 31
1, 449648, Control_c, 0, 64, 0
1, 449660, Note_on_c, 0, 74, 90
1, 449661, Note_off_c, 0, 58, 60
1, 449663, Note_off_c, 0, 50, 64
1, 449663, Note_on_c, 0, 67, 76
1, 449666, Note_on_c, 0, 64, 72
1, 449690, Note_off_c, 0, 64, 67
1, 449693, Note_off_c, 0, 67, 60
1, 449710, Note_off_c, 0, 74, 63
1, 449742, Note_on_c, 0, 58, 82
1, 449746, Note_on_c, 0, 50, 63
1, 449787, Note_off_c, 0, 58, 59
1, 449789, Note_off_c, 0, 50, 63
1, 449790, Note_on_c, 0, 67, 86
1, 449791, Note_on_c, 0, 64, 76
1, 449791, Note_on_c, 0, 74, 91
1, 449818, Note_off_c, 0, 64, 65
1, 449832, Note_off_c, 0, 67, 57
1, 449839, Note_off_c, 0, 74, 63
1, 449872, Note_on_c, 0, 52, 70
1, 449872, Note_on_c, 0, 57, 79
1, 449877, Note_on_c, 0, 50, 55
1, 449907, Control_c, 0, 64, 25
1, 449909, Note_off_c, 0, 57, 63
1, 449910, Note_on_c, 0, 64, 73
1, 449911, Note_on_c, 0, 74, 89
1, 449912, Note_on_c, 0, 67, 72
1, 449916, Note_off_c, 0, 50, 65
1, 449919, Note_off_c, 0, 52, 61
1, 449922, Control_c, 0, 64, 57
1, 449937, Control_c, 0, 64, 67
1, 449949, Note_off_c, 0, 64, 58
1, 449952, Control_c, 0, 64, 74
1, 449957, Note_off_c, 0, 67, 55
1, 449964, Note_off_c, 0, 74, 64
1, 449967, Control_c, 0, 64, 82
1, 449982, Control_c, 0, 64, 86
1, 449997, Control_c, 0, 64, 86
1, 450003, Note_on_c, 0, 52, 71
1, 450005, Note_on_c, 0, 57, 78
1, 450012, Control_c, 0, 64, 85
1, 450020, Note_on_c, 0, 50, 48
1, 450027, Control_c, 0, 64, 84
1, 450030, Note_off_c, 0, 57, 67
1, 450038, Note_on_c, 0, 73, 84
1, 450040, Note_on_c, 0, 64, 71
1, 450041, Note_off_c, 0, 52, 65
1, 450042, Control_c, 0, 64, 84
1, 450044, Note_on_c, 0, 67, 65
1, 450045, Note_off_c, 0, 50, 59
1, 450063, Note_off_c, 0, 64, 70
1, 450066, Note_off_c, 0, 67, 64
1, 450098, Note_off_c, 0, 73, 64
1, 450101, Control_c, 0, 64, 83
1, 450116, Control_c, 0, 64, 82
1, 450121, Note_on_c, 0, 52, 74
1, 450122, Note_on_c, 0, 57, 83
1, 450131, Control_c, 0, 64, 80
1, 450131, Note_on_c, 0, 50, 55
1, 450146, Control_c, 0, 64, 78
1, 450150, Note_off_c, 0, 57, 65
1, 450158, Note_on_c, 0, 79, 95
1, 450160, Control_c, 0, 64, 74
1, 450163, Note_off_c, 0, 50, 63
1, 450163, Note_off_c, 0, 52, 65
1, 450164, Note_on_c, 0, 70, 84
1, 450175, Control_c, 0, 64, 69
1, 450190, Control_c, 0, 64, 60
1, 450205, Control_c, 0, 64, 30
1, 450208, Note_off_c, 0, 70, 58
1, 450213, Note_off_c, 0, 79, 66
1, 450220, Control_c, 0, 64, 0
1, 450238, Note_on_c, 0, 57, 78
1, 450246, Note_on_c, 0, 50, 62
1, 450248, Note_on_c, 0, 52, 52
1, 450259, Note_off_c, 0, 57, 72
1, 450275, Note_on_c, 0, 77, 92
1, 450280, Note_on_c, 0, 69, 79
1, 450280, Note_off_c, 0, 52, 65
1, 450286, Note_off_c, 0, 50, 65
1, 450310, Note_off_c, 0, 69, 63
1, 450325, Note_off_c, 0, 77, 64
1, 450353, Note_on_c, 0, 52, 56
1, 450353, Control_c, 0, 64, 45
1, 450365, Note_on_c, 0, 61, 77
1, 450368, Control_c, 0, 64, 60
1, 450376, Note_on_c, 0, 57, 56
1, 450382, Control_c, 0, 64, 63
1, 450389, Note_off_c, 0, 61, 66
1, 450390, Note_on_c, 0, 50, 24
1, 450397, Control_c, 0, 64, 66
1, 450402, Note_on_c, 0, 77, 79
1, 450403, Note_off_c, 0, 57, 63
1, 450405, Note_on_c, 0, 67, 71
1, 450408, Note_off_c, 0, 52, 62
1, 450412, Control_c, 0, 64, 70
1, 450418, Note_on_c, 0, 76, 70
1, 450427, Control_c, 0, 64, 74
1, 450432, Note_off_c, 0, 50, 40
1, 450436, Note_off_c, 0, 67, 64
1, 450441, Note_off_c, 0, 77, 56
1, 450442, Control_c, 0, 64, 77
1, 450456, Control_c, 0, 64, 78
1, 450471, Note_off_c, 0, 76, 61
1, 450486, Control_c, 0, 64, 77
1, 450487, Note_on_c, 0, 57, 63
1, 450488, Note_on_c, 0, 61, 74
1, 450500, Control_c, 0, 64, 77
1, 450515, Control_c, 0, 64, 76
1, 450516, Note_off_c, 0, 61, 62
1, 450521, Note_on_c, 0, 52, 41
1, 450536, Note_off_c, 0, 57, 63
1, 450538, Note_on_c, 0, 50, 26
1, 450538, Control_c, 0, 64, 74
1, 450543, Note_on_c, 0, 74, 70
1, 450551, Note_on_c, 0, 65, 65
1, 450552, Note_off_c, 0, 52, 59
1, 450553, Control_c, 0, 64, 72
1, 450568, Control_c, 0, 64, 70
1, 450578, Note_off_c, 0, 74, 62
1, 450581, Note_off_c, 0, 50, 39
1, 450581, Note_off_c, 0, 65, 66
1, 450582, Control_c, 0, 64, 70
1, 450597, Control_c, 0, 64, 69
1, 450612, Control_c, 0, 64, 69
1, 450620, Note_on_c, 0, 52, 65
1, 450625, Note_on_c, 0, 61, 72
1, 450627, Control_c, 0, 64, 67
1, 450642, Control_c, 0, 64, 65
1, 450645, Note_on_c, 0, 57, 53
1, 450650, Note_off_c, 0, 61, 66
1, 450656, Control_c, 0, 64, 63
1, 450666, Note_off_c, 0, 52, 60
1, 450668, Note_off_c, 0, 57, 62
1, 450670, Note_on_c, 0, 76, 72
1, 450671, Control_c, 0, 64, 61
1, 450676, Note_on_c, 0, 67, 63
1, 450686, Control_c, 0, 64, 58
1, 450701, Control_c, 0, 64, 52
1, 450706, Note_off_c, 0, 67, 63
1, 450710, Note_off_c, 0, 76, 59
1, 450715, Control_c, 0, 64, 23
1, 450730, Control_c, 0, 64, 0
1, 450746, Note_on_c, 0, 61, 73
1, 450748, Note_on_c, 0, 57, 59
1, 450769, Note_on_c, 0, 52, 47
1, 450778, Note_off_c, 0, 61, 65
1, 450785, Note_on_c, 0, 77, 81
1, 450788, Note_off_c, 0, 57, 64
1, 450793, Note_on_c, 0, 69, 75
1, 450800, Note_off_c, 0, 52, 63
1, 450823, Note_off_c, 0, 69, 63
1, 450846, Note_off_c, 0, 77, 62
1, 450858, Note_on_c, 0, 50, 48
1, 450865, Control_c, 0, 64, 44
1, 450866, Note_on_c, 0, 57, 70
1, 450867, Note_on_c, 0, 62, 78
1, 450872, Note_on_c, 0, 53, 66
1, 450879, Control_c, 0, 64, 62
1, 450894, Control_c, 0, 64, 64
1, 450899, Note_off_c, 0, 57, 67
1, 450909, Control_c, 0, 64, 69
1, 450910, Note_on_c, 0, 74, 75
1, 450913, Note_off_c, 0, 62, 58
1, 450924, Control_c, 0, 64, 76
1, 450931, Note_off_c, 0, 53, 61
1, 450934, Note_off_c, 0, 50, 62
1, 450938, Control_c, 0, 64, 90
1, 450944, Note_on_c, 0, 65, 45
1, 450948, Note_off_c, 0, 74, 62
1, 450953, Control_c, 0, 64, 103
1, 450968, Control_c, 0, 64, 115
1, 450973, Note_off_c, 0, 65, 56
1, 450983, Control_c, 0, 64, 125
1, 451001, Note_on_c, 0, 57, 70
1, 451006, Note_on_c, 0, 50, 40
1, 451013, Note_on_c, 0, 62, 65
1, 451034, Note_off_c, 0, 50, 57
1, 451037, Note_off_c, 0, 57, 64
1, 451040, Note_off_c, 0, 62, 66
1, 451043, Control_c, 0, 64, 114
1, 451052, Note_on_c, 0, 69, 73
1, 451058, Note_on_c, 0, 65, 54
1, 451058, Control_c, 0, 64, 108
1, 451073, Control_c, 0, 64, 102
1, 451087, Control_c, 0, 64, 97
1, 451088, Note_off_c, 0, 69, 58
1, 451090, Note_off_c, 0, 65, 63
1, 451102, Control_c, 0, 64, 92
1, 451117, Control_c, 0, 64, 86
1, 451131, Control_c, 0, 64, 78
1, 451135, Note_on_c, 0, 57, 70
1, 451135, Note_on_c, 0, 62, 66
1, 451146, Control_c, 0, 64, 70
1, 451161, Control_c, 0, 64, 61
1, 451162, Note_off_c, 0, 57, 69
1, 451166, Note_off_c, 0, 62, 66
1, 451176, Control_c, 0, 64, 36
1, 451189, Note_on_c, 0, 65, 50
1, 451190, Note_on_c, 0, 69, 68
1, 451191, Control_c, 0, 64, 0
1, 451220, Note_off_c, 0, 69, 65
1, 451229, Note_off_c, 0, 65, 63
1, 451249, Note_on_c, 0, 57, 70
1, 451260, Note_on_c, 0, 62, 55
1, 451291, Note_off_c, 0, 57, 67
1, 451299, Note_off_c, 0, 62, 65
1, 451313, Note_on_c, 0, 69, 65
1, 451344, Note_off_c, 0, 69, 65
1, 451351, Note_on_c, 0, 65, 26
1, 451361, Control_c, 0, 64, 46
1, 451376, Control_c, 0, 64, 61
1, 451390, Note_on_c, 0, 62, 71
1, 451390, Note_off_c, 0, 65, 42
1, 451391, Control_c, 0, 64, 64
1, 451392, Note_on_c, 0, 58, 82
1, 451405, Control_c, 0, 64, 70
1, 451420, Control_c, 0, 64, 81
1, 451424, Note_off_c, 0, 62, 63
1, 451435, Control_c, 0, 64, 96
1, 451437, Note_off_c, 0, 58, 60
1, 451442, Note_on_c, 0, 69, 65
1, 451450, Control_c, 0, 64, 115
1, 451465, Control_c, 0, 64, 127
1, 451472, Note_off_c, 0, 69, 62
1, 451523, Note_on_c, 0, 62, 74
1, 451534, Note_on_c, 0, 59, 56
1, 451538, Control_c, 0, 64, 120
1, 451549, Note_off_c, 0, 62, 65
1, 451551, Note_on_c, 0, 65, 31
1, 451551, Note_on_c, 0, 68, 66
1, 451553, Control_c, 0, 64, 110
1, 451556, Poly_aftertouch_c, 0, 72, 127
1, 451556, Note_off_c, 0, 59, 63
1, 451568, Control_c, 0, 64, 102
1, 451584, Control_c, 0, 64, 94
1, 451594, Note_off_c, 0, 68, 56
1, 451599, Control_c, 0, 64, 84
1, 451606, Note_off_c, 0, 65, 58
1, 451614, Control_c, 0, 64, 77
1, 451625, Poly_aftertouch_c, 0, 72, 0
1, 451628, Control_c, 0, 64, 70
1, 451638, Note_on_c, 0, 57, 75
1, 451642, Control_c, 0, 64, 61
1, 451651, Note_on_c, 0, 62, 61
1, 451657, Control_c, 0, 64, 34
1, 451672, Control_c, 0, 64, 0
1, 451673, Note_off_c, 0, 57, 67
1, 451677, Note_off_c, 0, 62, 65
1, 451690, Note_on_c, 0, 69, 62
1, 451719, Note_on_c, 0, 65, 31
1, 451722, Note_off_c, 0, 69, 65
1, 451752, Note_off_c, 0, 65, 47
1, 451760, Note_on_c, 0, 57, 72
1, 451785, Note_on_c, 0, 62, 40
1, 451794, Note_off_c, 0, 57, 68
1, 451807, Note_on_c, 0, 69, 64
1, 451815, Note_off_c, 0, 62, 51
1, 451833, Note_on_c, 0, 65, 28
1, 451840, Note_off_c, 0, 69, 63
1, 451866, Note_off_c, 0, 65, 50
1, 451880, Control_c, 0, 64, 55
1, 451883, Note_on_c, 0, 62, 81
1, 451884, Note_on_c, 0, 58, 88
1, 451895, Control_c, 0, 64, 64
1, 451909, Control_c, 0, 64, 70
1, 451924, Control_c, 0, 64, 81
1, 451930, Note_off_c, 0, 62, 62
1, 451935, Note_off_c, 0, 58, 63
1, 451939, Control_c, 0, 64, 107
1, 451940, Note_on_c, 0, 69, 72
1, 451953, Note_on_c, 0, 65, 51
1, 451953, Control_c, 0, 64, 127
1, 451989, Note_off_c, 0, 65, 65
1, 451994, Note_off_c, 0, 69, 63
1, 452011, Note_on_c, 0, 58, 84
1, 452018, Note_on_c, 0, 62, 74
1, 452055, Note_off_c, 0, 62, 62
1, 452062, Note_off_c, 0, 58, 65
1, 452069, Note_on_c, 0, 68, 76
1, 452071, Note_on_c, 0, 65, 70
1, 452109, Control_c, 0, 64, 93
1, 452118, Note_off_c, 0, 65, 59
1, 452124, Control_c, 0, 64, 77
1, 452127, Note_off_c, 0, 68, 61
1, 452134, Note_on_c, 0, 57, 85
1, 452139, Control_c, 0, 64, 64
1, 452144, Note_on_c, 0, 62, 77
1, 452153, Control_c, 0, 64, 25
1, 452168, Control_c, 0, 64, 0
1, 452176, Note_off_c, 0, 62, 59
1, 452183, Note_off_c, 0, 57, 66
1, 452188, Note_on_c, 0, 69, 85
1, 452188, Note_on_c, 0, 74, 88
1, 452195, Note_on_c, 0, 65, 71
1, 452223, Note_off_c, 0, 65, 64
1, 452231, Note_off_c, 0, 69, 62
1, 452241, Note_off_c, 0, 74, 62
1, 452258, Note_on_c, 0, 57, 86
1, 452265, Note_on_c, 0, 62, 76
1, 452290, Note_off_c, 0, 62, 70
1, 452300, Note_on_c, 0, 74, 87
1, 452301, Note_on_c, 0, 65, 81
1, 452301, Note_on_c, 0, 69, 88
1, 452301, Note_off_c, 0, 57, 65
1, 452343, Note_off_c, 0, 65, 57
1, 452345, Note_off_c, 0, 69, 64
1, 452357, Note_off_c, 0, 74, 64
1, 452361, Control_c, 0, 64, 44
1, 452374, Note_on_c, 0, 62, 87
1, 452377, Control_c, 0, 64, 61
1, 452378, Note_on_c, 0, 58, 92
1, 452391, Control_c, 0, 64, 63
1, 452406, Control_c, 0, 64, 67
1, 452419, Note_off_c, 0, 62, 65
1, 452421, Control_c, 0, 64, 77
1, 452429, Note_off_c, 0, 58, 64
1, 452432, Note_on_c, 0, 69, 79
1, 452436, Control_c, 0, 64, 91
1, 452437, Note_on_c, 0, 65, 74
1, 452437, Note_on_c, 0, 74, 80
1, 452450, Control_c, 0, 64, 106
1, 452465, Control_c, 0, 64, 115
1, 452477, Note_off_c, 0, 65, 57
1, 452480, Note_off_c, 0, 69, 62
1, 452480, Control_c, 0, 64, 109
1, 452495, Control_c, 0, 64, 102
1, 452506, Note_off_c, 0, 74, 56
1, 452509, Note_on_c, 0, 62, 75
1, 452510, Control_c, 0, 64, 99
1, 452512, Note_on_c, 0, 58, 78
1, 452524, Control_c, 0, 64, 98
1, 452539, Control_c, 0, 64, 96
1, 452541, Note_off_c, 0, 62, 59
1, 452548, Note_off_c, 0, 58, 63
1, 452554, Control_c, 0, 64, 93
1, 452555, Note_on_c, 0, 68, 73
1, 452565, Note_on_c, 0, 65, 65
1, 452569, Control_c, 0, 64, 87
1, 452584, Control_c, 0, 64, 81
1, 452599, Control_c, 0, 64, 76
1, 452599, Note_off_c, 0, 68, 58
1, 452605, Note_off_c, 0, 65, 61
1, 452614, Control_c, 0, 64, 72
1, 452629, Control_c, 0, 64, 67
1, 452632, Note_on_c, 0, 57, 72
1, 452638, Note_on_c, 0, 62, 69
1, 452644, Control_c, 0, 64, 61
1, 452658, Control_c, 0, 64, 43
1, 452667, Note_off_c, 0, 57, 67
1, 452670, Note_off_c, 0, 62, 61
1, 452673, Control_c, 0, 64, 0
1, 452685, Note_on_c, 0, 69, 71
1, 452697, Note_on_c, 0, 65, 61
1, 452698, Note_on_c, 0, 74, 60
1, 452724, Note_off_c, 0, 69, 62
1, 452731, Note_off_c, 0, 65, 63
1, 452732, Note_off_c, 0, 74, 64
1, 452762, Note_on_c, 0, 57, 68
1, 452780, Note_on_c, 0, 62, 59
1, 452802, Note_off_c, 0, 57, 66
1, 452813, Note_off_c, 0, 62, 64
1, 452826, Note_on_c, 0, 65, 56
1, 452826, Note_on_c, 0, 74, 68
1, 452829, Note_on_c, 0, 69, 63
1, 452859, Note_off_c, 0, 74, 61
1, 452864, Note_off_c, 0, 69, 62
1, 452888, Control_c, 0, 64, 29
1, 452891, Note_off_c, 0, 65, 50
1, 452901, Note_on_c, 0, 58, 67
1, 452903, Control_c, 0, 64, 47
1, 452906, Note_on_c, 0, 62, 48
1, 452918, Control_c, 0, 64, 57
1, 452932, Control_c, 0, 64, 61
1, 452939, Note_off_c, 0, 58, 65
1, 452945, Note_off_c, 0, 62, 63
1, 452947, Control_c, 0, 64, 63
1, 452962, Control_c, 0, 64, 65
1, 452971, Note_on_c, 0, 65, 26
1, 452971, Note_on_c, 0, 69, 56
1, 452974, Note_on_c, 0, 74, 54
1, 452976, Control_c, 0, 64, 67
1, 452991, Control_c, 0, 64, 72
1, 453006, Control_c, 0, 64, 76
1, 453008, Note_off_c, 0, 69, 63
1, 453021, Control_c, 0, 64, 80
1, 453022, Note_off_c, 0, 74, 56
1, 453023, Note_off_c, 0, 65, 59
1, 453036, Control_c, 0, 64, 83
1, 453046, Note_on_c, 0, 62, 49
1, 453048, Note_on_c, 0, 58, 57
1, 453050, Control_c, 0, 64, 87
1, 453065, Control_c, 0, 64, 89
1, 453073, Note_off_c, 0, 58, 62
1, 453079, Note_off_c, 0, 62, 59
1, 453080, Control_c, 0, 64, 90
1, 453106, Note_on_c, 0, 68, 57
1, 453109, Control_c, 0, 64, 90
1, 453124, Control_c, 0, 64, 91
1, 453130, Note_on_c, 0, 65, 35
1, 453139, Control_c, 0, 64, 91
1, 453144, Note_off_c, 0, 68, 63
1, 453154, Control_c, 0, 64, 92
1, 453168, Note_on_c, 0, 58, 56
1, 453174, Note_off_c, 0, 65, 46
1, 453177, Note_on_c, 0, 62, 50
1, 453207, Note_off_c, 0, 58, 64
1, 453219, Note_off_c, 0, 62, 55
1, 453260, Note_on_c, 0, 77, 65
1, 453282, Note_on_c, 0, 70, 39
1, 453292, Note_on_c, 0, 68, 16
1, 453315, Note_off_c, 0, 70, 52
1, 453325, Note_off_c, 0, 77, 62
1, 453329, Note_off_c, 0, 68, 41
1, 453333, Note_on_c, 0, 58, 44
1, 453354, Note_off_c, 0, 58, 61
1, 453370, Note_on_c, 0, 62, 13
1, 453411, Note_off_c, 0, 62, 41
1, 453414, Note_on_c, 0, 77, 61
1, 453460, Poly_aftertouch_c, 0, 70, 127
1, 453466, Control_c, 0, 64, 91
1, 453470, Note_off_c, 0, 77, 58
1, 453481, Control_c, 0, 64, 90
1, 453496, Control_c, 0, 64, 85
1, 453499, Poly_aftertouch_c, 0, 70, 0
1, 453511, Control_c, 0, 64, 74
1, 453517, Note_on_c, 0, 58, 38
1, 453532, Control_c, 0, 64, 63
1, 453534, Note_on_c, 0, 67, 53
1, 453544, Note_on_c, 0, 63, 43
1, 453547, Control_c, 0, 64, 50
1, 453562, Control_c, 0, 64, 55
1, 453577, Control_c, 0, 64, 60
1, 453592, Note_off_c, 0, 63, 58
1, 453592, Control_c, 0, 64, 63
1, 453597, Note_off_c, 0, 67, 52
1, 453606, Control_c, 0, 64, 66
1, 453614, Note_on_c, 0, 77, 54
1, 453615, Note_on_c, 0, 70, 46
1, 453618, Note_off_c, 0, 58, 54
1, 453621, Control_c, 0, 64, 70
1, 453636, Control_c, 0, 64, 77
1, 453651, Control_c, 0, 64, 82
1, 453661, Note_off_c, 0, 70, 60
1, 453666, Control_c, 0, 64, 86
1, 453675, Note_off_c, 0, 77, 55
1, 453681, Control_c, 0, 64, 87
1, 453696, Control_c, 0, 64, 89
1, 453711, Control_c, 0, 64, 89
1, 453721, Note_on_c, 0, 63, 42
1, 453729, Note_on_c, 0, 67, 35
1, 453740, Control_c, 0, 64, 90
1, 453750, Note_off_c, 0, 63, 54
1, 453756, Note_off_c, 0, 67, 53
1, 453773, Note_on_c, 0, 75, 58
1, 453790, Note_on_c, 0, 70, 36
1, 453822, Note_off_c, 0, 75, 54
1, 453830, Note_off_c, 0, 70, 49
1, 453836, Note_on_c, 0, 63, 57
1, 453837, Poly_aftertouch_c, 0, 58, 0
1, 453843, Note_on_c, 0, 66, 68
1, 453854, Note_on_c, 0, 58, 25
1, 453874, Note_off_c, 0, 66, 63
1, 453878, Note_off_c, 0, 63, 58
1, 453898, Note_off_c, 0, 58, 51
1, 453904, Control_c, 0, 64, 89
1, 453910, Note_on_c, 0, 74, 68
1, 453932, Note_on_c, 0, 69, 43
1, 453933, Control_c, 0, 64, 89
1, 453958, Note_off_c, 0, 74, 61
1, 453959, Note_off_c, 0, 69, 54
1, 453985, Note_on_c, 0, 66, 72
1, 453988, Note_on_c, 0, 63, 66
1, 453995, Note_on_c, 0, 58, 53
1, 454015, Note_off_c, 0, 66, 64
1, 454022, Note_on_c, 0, 73, 83
1, 454024, Note_off_c, 0, 63, 61
1, 454031, Note_on_c, 0, 69, 69
1, 454031, Note_off_c, 0, 58, 63
1, 454057, Note_off_c, 0, 69, 69
1, 454077, Note_off_c, 0, 73, 62
1, 454083, Control_c, 0, 64, 84
1, 454097, Control_c, 0, 64, 70
1, 454112, Control_c, 0, 64, 50
1, 454116, Note_on_c, 0, 65, 67
1, 454116, Note_on_c, 0, 58, 57
1, 454123, Note_on_c, 0, 62, 53
1, 454127, Control_c, 0, 64, 12
1, 454141, Control_c, 0, 64, 34
1, 454144, Note_off_c, 0, 65, 64
1, 454149, Note_off_c, 0, 58, 63
1, 454151, Note_on_c, 0, 73, 79
1, 454153, Note_off_c, 0, 62, 64
1, 454156, Control_c, 0, 64, 51
1, 454168, Note_on_c, 0, 70, 60
1, 454171, Control_c, 0, 64, 60
1, 454186, Control_c, 0, 64, 65
1, 454201, Control_c, 0, 64, 71
1, 454204, Note_off_c, 0, 70, 63
1, 454206, Note_off_c, 0, 73, 62
1, 454215, Control_c, 0, 64, 79
1, 454225, Note_on_c, 0, 65, 65
1, 454230, Control_c, 0, 64, 86
1, 454234, Note_on_c, 0, 62, 63
1, 454241, Note_on_c, 0, 58, 51
1, 454245, Control_c, 0, 64, 89
1, 454251, Note_off_c, 0, 65, 68
1, 454267, Note_off_c, 0, 62, 64
1, 454283, Control_c, 0, 64, 88
1, 454286, Note_off_c, 0, 58, 63
1, 454298, Control_c, 0, 64, 88
1, 454298, Note_on_c, 0, 74, 74
1, 454325, Note_on_c, 0, 70, 39
1, 454342, Control_c, 0, 64, 88
1, 454349, Note_off_c, 0, 74, 58
1, 454358, Note_off_c, 0, 70, 49
1, 454369, Note_on_c, 0, 62, 60
1, 454376, Note_on_c, 0, 68, 71
1, 454393, Note_on_c, 0, 58, 28
1, 454404, Note_off_c, 0, 68, 66
1, 454410, Note_off_c, 0, 62, 55
1, 454423, Note_off_c, 0, 58, 50
1, 454436, Note_on_c, 0, 77, 79
1, 454456, Note_on_c, 0, 70, 48
1, 454460, Control_c, 0, 64, 89
1, 454483, Note_off_c, 0, 77, 59
1, 454487, Note_off_c, 0, 70, 54
1, 454507, Note_on_c, 0, 68, 72
1, 454510, Note_on_c, 0, 58, 51
1, 454519, Control_c, 0, 64, 88
1, 454531, Note_on_c, 0, 62, 45
1, 454533, Note_off_c, 0, 68, 66
1, 454536, Note_off_c, 0, 58, 56
1, 454557, Note_off_c, 0, 62, 56
1, 454562, Note_on_c, 0, 70, 70
1, 454562, Note_on_c, 0, 77, 81
1, 454578, Control_c, 0, 64, 89
1, 454593, Control_c, 0, 64, 90
1, 454599, Note_off_c, 0, 70, 60
1, 454616, Note_off_c, 0, 77, 60
1, 454623, Control_c, 0, 64, 88
1, 454637, Note_on_c, 0, 58, 58
1, 454638, Control_c, 0, 64, 79
1, 454645, Note_on_c, 0, 67, 69
1, 454653, Control_c, 0, 64, 64
1, 454656, Note_on_c, 0, 63, 57
1, 454668, Control_c, 0, 64, 30
1, 454673, Note_off_c, 0, 67, 67
1, 454676, Note_off_c, 0, 58, 62
1, 454683, Control_c, 0, 64, 30
1, 454690, Note_off_c, 0, 63, 64
1, 454697, Control_c, 0, 64, 50
1, 454703, Note_on_c, 0, 77, 73
1, 454710, Note_on_c, 0, 70, 57
1, 454712, Control_c, 0, 64, 61
1, 454727, Control_c, 0, 64, 66
1, 454742, Control_c, 0, 64, 73
1, 454745, Note_off_c, 0, 70, 61
1, 454756, Note_off_c, 0, 77, 59
1, 454756, Control_c, 0, 64, 87
1, 454764, Note_on_c, 0, 67, 67
1, 454772, Control_c, 0, 64, 99
1, 454778, Note_on_c, 0, 63, 49
1, 454787, Control_c, 0, 64, 103
1, 454788, Note_on_c, 0, 58, 38
1, 454795, Note_off_c, 0, 67, 66
1, 454802, Control_c, 0, 64, 103
1, 454813, Note_off_c, 0, 63, 63
1, 454817, Control_c, 0, 64, 102
1, 454822, Note_off_c, 0, 58, 49
1, 454828, Note_on_c, 0, 75, 71
1, 454845, Note_on_c, 0, 70, 56
1, 454873, Note_off_c, 0, 75, 48
1, 454881, Note_off_c, 0, 70, 64
1, 454912, Note_on_c, 0, 63, 66
1, 454916, Note_on_c, 0, 66, 65
1, 454918, Note_on_c, 0, 58, 48
1, 454935, Control_c, 0, 64, 101
1, 454945, Note_off_c, 0, 66, 65
1, 454946, Note_off_c, 0, 58, 57
1, 454946, Note_off_c, 0, 63, 64
1, 454950, Control_c, 0, 64, 101
1, 454957, Note_on_c, 0, 74, 74
1, 454964, Control_c, 0, 64, 100
1, 454969, Note_on_c, 0, 69, 56
1, 454992, Note_off_c, 0, 69, 63
1, 455025, Note_off_c, 0, 74, 60
1, 455031, Control_c, 0, 64, 101
1, 455047, Note_on_c, 0, 66, 75
1, 455051, Note_on_c, 0, 63, 69
1, 455059, Note_on_c, 0, 58, 52
1, 455061, Control_c, 0, 64, 101
1, 455076, Control_c, 0, 64, 102
1, 455082, Note_off_c, 0, 66, 56
1, 455085, Note_on_c, 0, 69, 68
1, 455088, Note_on_c, 0, 73, 79
1, 455091, Control_c, 0, 64, 102
1, 455096, Note_off_c, 0, 58, 65
1, 455096, Note_off_c, 0, 63, 53
1, 455106, Control_c, 0, 64, 103
1, 455118, Note_off_c, 0, 69, 63
1, 455135, Control_c, 0, 64, 93
1, 455142, Note_off_c, 0, 73, 64
1, 455150, Control_c, 0, 64, 74
1, 455165, Control_c, 0, 64, 58
1, 455175, Note_on_c, 0, 65, 74
1, 455177, Note_on_c, 0, 58, 63
1, 455177, Note_on_c, 0, 62, 66
1, 455179, Control_c, 0, 64, 31
1, 455194, Control_c, 0, 64, 42
1, 455209, Control_c, 0, 64, 54
1, 455211, Note_off_c, 0, 62, 64
1, 455211, Note_off_c, 0, 65, 61
1, 455216, Note_off_c, 0, 58, 62
1, 455220, Note_on_c, 0, 73, 74
1, 455224, Control_c, 0, 64, 62
1, 455235, Note_on_c, 0, 70, 66
1, 455239, Control_c, 0, 64, 67
1, 455253, Control_c, 0, 64, 74
1, 455268, Control_c, 0, 64, 82
1, 455270, Note_off_c, 0, 70, 61
1, 455279, Note_off_c, 0, 73, 62
1, 455283, Control_c, 0, 64, 87
1, 455298, Control_c, 0, 64, 88
1, 455306, Note_on_c, 0, 62, 68
1, 455313, Control_c, 0, 64, 88
1, 455319, Note_on_c, 0, 65, 52
1, 455326, Note_on_c, 0, 58, 45
1, 455327, Control_c, 0, 64, 87
1, 455334, Note_off_c, 0, 62, 64
1, 455344, Note_off_c, 0, 65, 56
1, 455353, Note_on_c, 0, 74, 76
1, 455355, Note_off_c, 0, 58, 51
1, 455412, Note_off_c, 0, 74, 60
1, 455432, Poly_aftertouch_c, 0, 70, 127
1, 455441, Note_on_c, 0, 58, 66
1, 455442, Note_on_c, 0, 65, 70
1, 455446, Control_c, 0, 64, 87
1, 455457, Note_on_c, 0, 56, 59
1, 455457, Poly_aftertouch_c, 0, 70, 0
1, 455461, Control_c, 0, 64, 86
1, 455470, Note_off_c, 0, 65, 68
1, 455478, Note_off_c, 0, 58, 61
1, 455479, Note_off_c, 0, 56, 61
1, 455495, Note_on_c, 0, 77, 84
1, 455502, Note_on_c, 0, 70, 57
1, 455520, Control_c, 0, 64, 86
1, 455535, Control_c, 0, 64, 87
1, 455538, Note_off_c, 0, 70, 61
1, 455546, Note_off_c, 0, 77, 57
1, 455550, Control_c, 0, 64, 88
1, 455565, Control_c, 0, 64, 89
1, 455580, Control_c, 0, 64, 90
1, 455583, Note_on_c, 0, 56, 62
1, 455583, Note_on_c, 0, 65, 83
1, 455589, Note_on_c, 0, 58, 68
1, 455595, Control_c, 0, 64, 91
1, 455610, Control_c, 0, 64, 93
1, 455610, Note_off_c, 0, 65, 66
1, 455620, Note_off_c, 0, 56, 65
1, 455621, Note_off_c, 0, 58, 64
1, 455624, Control_c, 0, 64, 94
1, 455627, Note_on_c, 0, 77, 77
1, 455639, Note_on_c, 0, 70, 64
1, 455639, Control_c, 0, 64, 91
1, 455654, Control_c, 0, 64, 76
1, 455669, Note_off_c, 0, 70, 62
1, 455669, Control_c, 0, 64, 60
1, 455679, Note_off_c, 0, 77, 61
1, 455684, Control_c, 0, 64, 0
1, 455699, Control_c, 0, 64, 27
1, 455703, Note_on_c, 0, 65, 79
1, 455708, Note_on_c, 0, 56, 74
1, 455711, Note_on_c, 0, 58, 72
1, 455714, Control_c, 0, 64, 50
1, 455729, Control_c, 0, 64, 62
1, 455743, Control_c, 0, 64, 69
1, 455744, Note_off_c, 0, 56, 63
1, 455747, Note_off_c, 0, 65, 61
1, 455750, Note_on_c, 0, 77, 79
1, 455758, Control_c, 0, 64, 82
1, 455760, Note_on_c, 0, 70, 69
1, 455761, Note_off_c, 0, 58, 59
1, 455780, Control_c, 0, 64, 127
1, 455803, Note_off_c, 0, 70, 58
1, 455815, Note_off_c, 0, 77, 62
1, 455848, Note_on_c, 0, 63, 81
1, 455858, Note_on_c, 0, 55, 67
1, 455884, Note_off_c, 0, 63, 55
1, 455884, Note_on_c, 0, 75, 82
1, 455890, Note_off_c, 0, 55, 64
1, 455900, Note_on_c, 0, 70, 66
1, 455926, Note_off_c, 0, 70, 66
1, 455948, Note_off_c, 0, 75, 60
1, 455974, Note_on_c, 0, 55, 64
1, 455978, Note_on_c, 0, 62, 78
1, 455983, Note_on_c, 0, 58, 69
1, 456003, Note_off_c, 0, 62, 68
1, 456011, Note_on_c, 0, 74, 82
1, 456014, Note_off_c, 0, 58, 64
1, 456019, Note_on_c, 0, 70, 70
1, 456019, Note_off_c, 0, 55, 61
1, 456046, Note_off_c, 0, 70, 68
1, 456072, Note_off_c, 0, 74, 61
1, 456105, Note_on_c, 0, 58, 78
1, 456107, Note_on_c, 0, 61, 79
1, 456109, Note_on_c, 0, 55, 71
1, 456133, Note_on_c, 0, 73, 82
1, 456135, Note_off_c, 0, 61, 62
1, 456140, Note_on_c, 0, 70, 73
1, 456141, Note_off_c, 0, 55, 60
1, 456155, Note_off_c, 0, 58, 59
1, 456179, Control_c, 0, 64, 76
1, 456185, Note_off_c, 0, 70, 57
1, 456186, Note_off_c, 0, 73, 64
1, 456194, Control_c, 0, 64, 44
1, 456209, Control_c, 0, 64, 0
1, 456227, Note_on_c, 0, 61, 83
1, 456230, Note_on_c, 0, 57, 76
1, 456239, Control_c, 0, 64, 39
1, 456253, Control_c, 0, 64, 61
1, 456256, Note_on_c, 0, 53, 55
1, 456267, Note_off_c, 0, 57, 62
1, 456268, Control_c, 0, 64, 69
1, 456274, Note_on_c, 0, 69, 79
1, 456279, Note_on_c, 0, 73, 80
1, 456283, Control_c, 0, 64, 80
1, 456285, Note_off_c, 0, 53, 64
1, 456286, Note_off_c, 0, 61, 58
1, 456298, Control_c, 0, 64, 100
1, 456312, Note_off_c, 0, 69, 57
1, 456313, Control_c, 0, 64, 127
1, 456337, Note_off_c, 0, 73, 60
1, 456352, Note_on_c, 0, 53, 80
1, 456355, Note_on_c, 0, 62, 84
1, 456357, Control_c, 0, 64, 117
1, 456365, Note_on_c, 0, 57, 70
1, 456373, Control_c, 0, 64, 115
1, 456396, Note_off_c, 0, 57, 66
1, 456405, Note_off_c, 0, 62, 64
1, 456412, Note_on_c, 0, 74, 81
1, 456412, Note_off_c, 0, 53, 61
1, 456414, Note_on_c, 0, 69, 78
1, 456432, Control_c, 0, 64, 116
1, 456447, Control_c, 0, 64, 117
1, 456462, Control_c, 0, 64, 119
1, 456463, Note_off_c, 0, 74, 61
1, 456465, Note_off_c, 0, 69, 61
1, 456487, Note_on_c, 0, 57, 56
1, 456491, Control_c, 0, 64, 120
1, 456495, Note_on_c, 0, 58, 75
1, 456506, Control_c, 0, 64, 122
1, 456522, Note_off_c, 0, 57, 67
1, 456528, Note_on_c, 0, 55, 58
1, 456528, Control_c, 0, 64, 127
1, 456537, Note_off_c, 0, 58, 62
1, 456553, Note_off_c, 0, 55, 58
1, 456555, Poly_aftertouch_c, 0, 53, 127
1, 456558, Note_on_c, 0, 70, 80
1, 456559, Note_on_c, 0, 67, 76
1, 456585, Poly_aftertouch_c, 0, 53, 0
1, 456591, Note_off_c, 0, 67, 62
1, 456609, Note_off_c, 0, 70, 63
1, 456616, Note_on_c, 0, 55, 87
1, 456626, Note_on_c, 0, 58, 86
1, 456652, Note_off_c, 0, 58, 70
1, 456664, Note_off_c, 0, 55, 65
1, 456685, Note_on_c, 0, 67, 85
1, 456689, Note_on_c, 0, 63, 86
1, 456733, Note_off_c, 0, 67, 62
1, 456736, Control_c, 0, 64, 80
1, 456738, Note_off_c, 0, 63, 61
1, 456750, Control_c, 0, 64, 41
1, 456765, Control_c, 0, 64, 0
1, 456777, Note_on_c, 0, 57, 97
1, 456777, Note_on_c, 0, 65, 100
1, 456782, Note_on_c, 0, 62, 87
1, 456795, Control_c, 0, 64, 14
1, 456810, Control_c, 0, 64, 60
1, 456824, Control_c, 0, 64, 71
1, 456825, Note_off_c, 0, 57, 66
1, 456831, Note_off_c, 0, 62, 64
1, 456835, Note_off_c, 0, 65, 65
1, 456839, Control_c, 0, 64, 90
1, 456854, Control_c, 0, 64, 127
1, 456971, Note_on_c, 0, 63, 43
1, 457000, Note_off_c, 0, 63, 56
1, 457046, Control_c, 0, 64, 82
1, 457061, Control_c, 0, 64, 44
1, 457076, Control_c, 0, 64, 0
1, 457082, Note_on_c, 0, 45, 81
1, 457084, Note_on_c, 0, 61, 87
1, 457085, Note_on_c, 0, 55, 88
1, 457085, Note_on_c, 0, 64, 91
1, 457109, Note_off_c, 0, 45, 70
1, 457121, Control_c, 0, 64, 52
1, 457136, Control_c, 0, 64, 68
1, 457150, Control_c, 0, 64, 81
1, 457166, Control_c, 0, 64, 127
1, 457176, Note_off_c, 0, 55, 52
1, 457249, Note_off_c, 0, 64, 55
1, 457280, Note_off_c, 0, 61, 52
1, 457304, Note_on_c, 0, 58, 42
1, 457317, Note_on_c, 0, 57, 65
1, 457334, Note_off_c, 0, 58, 58
1, 457351, Control_c, 0, 64, 69
1, 457366, Control_c, 0, 64, 0
1, 457385, Note_on_c, 0, 50, 96
1, 457388, Note_on_c, 0, 38, 81
1, 457388, Note_on_c, 0, 53, 87
1, 457389, Note_on_c, 0, 62, 91
1, 457399, Note_off_c, 0, 57, 61
1, 457410, Control_c, 0, 64, 50
1, 457412, Note_off_c, 0, 38, 62
1, 457413, Note_off_c, 0, 53, 69
1, 457422, Note_off_c, 0, 62, 68
1, 457425, Note_off_c, 0, 50, 63
1, 457425, Control_c, 0, 64, 71
1, 457440, Control_c, 0, 64, 127
1, 457562, Note_on_c, 0, 87, 39
1, 457596, Note_off_c, 0, 87, 52
1, 457689, Note_on_c, 0, 89, 92
1, 457693, Note_on_c, 0, 77, 82
1, 457715, Note_off_c, 0, 77, 69
1, 457717, Note_off_c, 0, 89, 61
1, 457729, Note_on_c, 0, 65, 58
1, 457739, Note_on_c, 0, 63, 44
1, 457750, Note_on_c, 0, 53, 38
1, 457760, Note_off_c, 0, 65, 64
1, 457765, Note_off_c, 0, 63, 56
1, 457772, Note_off_c, 0, 53, 61
1, 457781, Control_c, 0, 64, 91
1, 457796, Control_c, 0, 64, 69
1, 457811, Control_c, 0, 64, 45
1, 457818, Note_on_c, 0, 89, 97
1, 457822, Note_on_c, 0, 77, 84
1, 457826, Control_c, 0, 64, 0
1, 457846, Note_off_c, 0, 77, 67
1, 457849, Note_on_c, 0, 53, 75
1, 457851, Note_on_c, 0, 63, 76
1, 457856, Note_on_c, 0, 65, 66
1, 457860, Note_off_c, 0, 89, 62
1, 457886, Note_off_c, 0, 65, 65
1, 457890, Note_off_c, 0, 63, 62
1, 457892, Note_off_c, 0, 53, 61
1, 457954, Note_on_c, 0, 77, 102
1, 457955, Note_on_c, 0, 89, 102
1, 457959, Control_c, 0, 64, 55
1, 457975, Control_c, 0, 64, 70
1, 457989, Control_c, 0, 64, 82
1, 457994, Note_off_c, 0, 77, 64
1, 458004, Control_c, 0, 64, 127
1, 458005, Note_off_c, 0, 89, 64
1, 458035, Note_on_c, 0, 63, 71
1, 458046, Note_on_c, 0, 65, 54
1, 458048, Note_on_c, 0, 53, 50
1, 458058, Note_on_c, 0, 55, 38
1, 458063, Note_off_c, 0, 63, 67
1, 458069, Note_off_c, 0, 65, 59
1, 458076, Note_off_c, 0, 53, 58
1, 458089, Note_off_c, 0, 55, 52
1, 458096, Note_on_c, 0, 87, 92
1, 458104, Note_on_c, 0, 75, 82
1, 458142, Note_off_c, 0, 75, 49
1, 458155, Note_off_c, 0, 87, 63
1, 458164, Note_on_c, 0, 55, 77
1, 458165, Note_on_c, 0, 63, 68
1, 458172, Note_on_c, 0, 65, 59
1, 458197, Note_off_c, 0, 63, 63
1, 458203, Note_off_c, 0, 65, 64
1, 458210, Note_off_c, 0, 55, 58
1, 458229, Note_on_c, 0, 74, 81
1, 458230, Note_on_c, 0, 86, 85
1, 458265, Note_off_c, 0, 86, 63
1, 458266, Note_off_c, 0, 74, 63
1, 458290, Note_on_c, 0, 57, 75
1, 458299, Note_on_c, 0, 65, 55
1, 458323, Control_c, 0, 64, 110
1, 458326, Note_off_c, 0, 57, 63
1, 458326, Note_off_c, 0, 65, 56
1, 458338, Control_c, 0, 64, 82
1, 458352, Control_c, 0, 64, 67
1, 458355, Note_on_c, 0, 73, 85
1, 458356, Note_on_c, 0, 85, 81
1, 458367, Control_c, 0, 64, 55
1, 458382, Control_c, 0, 64, 0
1, 458383, Note_off_c, 0, 73, 61
1, 458391, Note_off_c, 0, 85, 61
1, 458420, Note_on_c, 0, 65, 62
1, 458421, Note_on_c, 0, 58, 67
1, 458450, Note_off_c, 0, 65, 66
1, 458456, Note_off_c, 0, 58, 64
1, 458485, Note_on_c, 0, 73, 81
1, 458486, Note_on_c, 0, 85, 88
1, 458501, Control_c, 0, 64, 31
1, 458516, Note_on_c, 0, 82, 37
1, 458516, Control_c, 0, 64, 63
1, 458531, Control_c, 0, 64, 68
1, 458545, Control_c, 0, 64, 76
1, 458548, Note_off_c, 0, 82, 35
1, 458552, Note_off_c, 0, 73, 64
1, 458560, Control_c, 0, 64, 92
1, 458575, Control_c, 0, 64, 127
1, 458579, Note_on_c, 0, 58, 59
1, 458581, Note_on_c, 0, 62, 63
1, 458584, Note_off_c, 0, 85, 59
1, 458594, Note_on_c, 0, 65, 47
1, 458610, Note_off_c, 0, 62, 65
1, 458617, Note_off_c, 0, 58, 64
1, 458621, Note_off_c, 0, 65, 56
1, 458632, Note_on_c, 0, 74, 76
1, 458632, Note_on_c, 0, 86, 87
1, 458655, Note_off_c, 0, 74, 69
1, 458673, Note_off_c, 0, 86, 65
1, 458736, Note_on_c, 0, 65, 58
1, 458741, Note_on_c, 0, 53, 60
1, 458748, Note_on_c, 0, 63, 52
1, 458769, Note_off_c, 0, 65, 62
1, 458773, Note_off_c, 0, 53, 62
1, 458778, Note_on_c, 0, 89, 94
1, 458779, Note_off_c, 0, 63, 58
1, 458781, Note_on_c, 0, 77, 86
1, 458805, Note_off_c, 0, 77, 66
1, 458820, Control_c, 0, 64, 83
1, 458823, Note_off_c, 0, 89, 60
1, 458835, Control_c, 0, 64, 63
1, 458850, Control_c, 0, 64, 14
1, 458863, Note_on_c, 0, 53, 74
1, 458864, Note_on_c, 0, 63, 66
1, 458865, Control_c, 0, 64, 0
1, 458866, Note_on_c, 0, 65, 65
1, 458894, Note_off_c, 0, 53, 66
1, 458894, Note_off_c, 0, 63, 64
1, 458895, Note_off_c, 0, 65, 64
1, 458915, Note_on_c, 0, 89, 99
1, 458915, Note_on_c, 0, 77, 90
1, 458942, Note_off_c, 0, 77, 63
1, 458958, Note_off_c, 0, 89, 63
1, 459005, Note_on_c, 0, 63, 76
1, 459008, Note_on_c, 0, 55, 82
1, 459008, Note_on_c, 0, 65, 72
1, 459027, Control_c, 0, 64, 56
1, 459030, Note_off_c, 0, 63, 68
1, 459035, Note_off_c, 0, 65, 68
1, 459037, Note_off_c, 0, 55, 64
1, 459041, Note_on_c, 0, 77, 99
1, 459042, Note_on_c, 0, 89, 105
1, 459042, Control_c, 0, 64, 71
1, 459057, Control_c, 0, 64, 87
1, 459072, Control_c, 0, 64, 127
1, 459096, Note_off_c, 0, 77, 63
1, 459112, Note_off_c, 0, 89, 64
1, 459143, Note_on_c, 0, 63, 78
1, 459144, Note_on_c, 0, 55, 80
1, 459152, Note_on_c, 0, 65, 64
1, 459168, Note_off_c, 0, 63, 68
1, 459177, Note_off_c, 0, 55, 63
1, 459183, Note_off_c, 0, 65, 64
1, 459190, Note_on_c, 0, 75, 87
1, 459190, Note_on_c, 0, 87, 86
1, 459231, Note_off_c, 0, 75, 60
1, 459244, Note_off_c, 0, 87, 62
1, 459268, Note_on_c, 0, 63, 77
1, 459270, Note_on_c, 0, 57, 76
1, 459271, Note_on_c, 0, 65, 69
1, 459298, Note_off_c, 0, 63, 63
1, 459300, Note_off_c, 0, 65, 67
1, 459301, Note_off_c, 0, 57, 65
1, 459309, Control_c, 0, 64, 91
1, 459324, Control_c, 0, 64, 71
1, 459332, Note_on_c, 0, 74, 81
1, 459336, Note_on_c, 0, 86, 85
1, 459338, Control_c, 0, 64, 60
1, 459353, Control_c, 0, 64, 36
1, 459363, Note_off_c, 0, 86, 63
1, 459368, Control_c, 0, 64, 0
1, 459371, Note_off_c, 0, 74, 64
1, 459398, Note_on_c, 0, 63, 72
1, 459398, Note_on_c, 0, 57, 70
1, 459398, Note_on_c, 0, 65, 65
1, 459417, Note_off_c, 0, 65, 66
1, 459422, Note_off_c, 0, 63, 69
1, 459429, Note_off_c, 0, 57, 67
1, 459467, Note_on_c, 0, 73, 88
1, 459468, Note_on_c, 0, 85, 84
1, 459497, Note_off_c, 0, 73, 59
1, 459505, Note_off_c, 0, 85, 62
1, 459544, Note_on_c, 0, 65, 56
1, 459545, Note_on_c, 0, 62, 67
1, 459553, Control_c, 0, 64, 51
1, 459554, Note_on_c, 0, 58, 60
1, 459570, Control_c, 0, 64, 62
1, 459577, Note_off_c, 0, 62, 66
1, 459578, Note_off_c, 0, 65, 64
1, 459585, Control_c, 0, 64, 68
1, 459587, Note_off_c, 0, 58, 65
1, 459597, Note_on_c, 0, 73, 86
1, 459598, Note_on_c, 0, 85, 82
1, 459599, Control_c, 0, 64, 79
1, 459614, Control_c, 0, 64, 104
1, 459629, Note_on_c, 0, 82, 40
1, 459629, Control_c, 0, 64, 127
1, 459653, Note_off_c, 0, 82, 57
1, 459658, Note_off_c, 0, 73, 63
1, 459692, Note_on_c, 0, 58, 70
1, 459698, Note_on_c, 0, 62, 72
1, 459698, Note_on_c, 0, 65, 66
1, 459699, Note_off_c, 0, 85, 59
1, 459729, Note_off_c, 0, 65, 65
1, 459732, Note_off_c, 0, 58, 62
1, 459734, Note_on_c, 0, 74, 80
1, 459736, Note_off_c, 0, 62, 64
1, 459738, Note_on_c, 0, 86, 85
1, 459765, Note_off_c, 0, 74, 63
1, 459781, Note_off_c, 0, 86, 64
1, 459825, Note_on_c, 0, 65, 69
1, 459835, Note_on_c, 0, 62, 72
1, 459836, Control_c, 0, 64, 98
1, 459842, Note_on_c, 0, 58, 60
1, 459845, Note_on_c, 0, 56, 57
1, 459851, Control_c, 0, 64, 77
1, 459863, Note_off_c, 0, 65, 64
1, 459866, Control_c, 0, 64, 65
1, 459870, Note_off_c, 0, 62, 59
1, 459871, Note_off_c, 0, 58, 66
1, 459874, Note_on_c, 0, 89, 93
1, 459875, Note_on_c, 0, 77, 88
1, 459881, Control_c, 0, 64, 51
1, 459881, Note_off_c, 0, 56, 66
1, 459896, Control_c, 0, 64, 34
1, 459902, Note_off_c, 0, 77, 65
1, 459911, Control_c, 0, 64, 0
1, 459922, Note_off_c, 0, 89, 63
1, 459963, Note_on_c, 0, 56, 74
1, 459965, Note_on_c, 0, 65, 76
1, 459965, Note_on_c, 0, 58, 73
1, 459967, Note_on_c, 0, 62, 74
1, 459996, Note_off_c, 0, 65, 63
1, 460000, Note_off_c, 0, 62, 64
1, 460007, Note_off_c, 0, 56, 61
1, 460009, Note_on_c, 0, 77, 90
1, 460011, Note_on_c, 0, 89, 94
1, 460016, Note_off_c, 0, 58, 61
1, 460036, Note_off_c, 0, 77, 63
1, 460053, Note_off_c, 0, 89, 63
1, 460108, Note_on_c, 0, 65, 90
1, 460117, Note_on_c, 0, 58, 76
1, 460117, Control_c, 0, 64, 9
1, 460119, Note_on_c, 0, 55, 75
1, 460131, Note_on_c, 0, 77, 106
1, 460132, Note_on_c, 0, 89, 102
1, 460132, Control_c, 0, 64, 64
1, 460135, Note_off_c, 0, 65, 66
1, 460147, Note_off_c, 0, 58, 67
1, 460147, Control_c, 0, 64, 71
1, 460148, Note_off_c, 0, 55, 66
1, 460161, Control_c, 0, 64, 85
1, 460163, Note_on_c, 0, 87, 45
1, 460173, Note_off_c, 0, 77, 63
1, 460176, Control_c, 0, 64, 127
1, 460186, Note_off_c, 0, 89, 60
1, 460195, Note_off_c, 0, 87, 53
1, 460269, Note_on_c, 0, 55, 61
1, 460272, Note_on_c, 0, 63, 73
1, 460284, Note_on_c, 0, 87, 88
1, 460288, Note_on_c, 0, 75, 83
1, 460289, Note_off_c, 0, 63, 68
1, 460290, Note_on_c, 0, 58, 35
1, 460307, Note_off_c, 0, 55, 50
1, 460316, Note_off_c, 0, 58, 56
1, 460346, Note_off_c, 0, 75, 61
1, 460355, Note_off_c, 0, 87, 62
1, 460399, Note_on_c, 0, 63, 52
1, 460413, Note_on_c, 0, 58, 50
1, 460436, Note_off_c, 0, 63, 63
1, 460436, Note_on_c, 0, 74, 78
1, 460436, Note_on_c, 0, 86, 81
1, 460448, Note_off_c, 0, 58, 65
1, 460474, Note_off_c, 0, 74, 63
1, 460477, Note_off_c, 0, 86, 60
1, 460528, Note_on_c, 0, 58, 64
1, 460528, Note_on_c, 0, 62, 71
1, 460540, Control_c, 0, 64, 115
1, 460545, Note_on_c, 0, 55, 42
1, 460554, Note_off_c, 0, 62, 68
1, 460555, Control_c, 0, 64, 83
1, 460563, Note_off_c, 0, 58, 66
1, 460565, Note_off_c, 0, 55, 62
1, 460569, Note_on_c, 0, 85, 88
1, 460570, Note_on_c, 0, 73, 86
1, 460570, Control_c, 0, 64, 62
1, 460585, Control_c, 0, 64, 0
1, 460605, Note_off_c, 0, 73, 58
1, 460622, Note_off_c, 0, 85, 63
1, 460686, Note_on_c, 0, 85, 90
1, 460686, Note_on_c, 0, 73, 97
1, 460688, Control_c, 0, 64, 57
1, 460695, Note_on_c, 0, 57, 50
1, 460703, Control_c, 0, 64, 65
1, 460718, Control_c, 0, 64, 72
1, 460720, Note_off_c, 0, 57, 58
1, 460733, Control_c, 0, 64, 82
1, 460739, Note_off_c, 0, 73, 65
1, 460747, Control_c, 0, 64, 98
1, 460762, Control_c, 0, 64, 127
1, 460774, Note_off_c, 0, 85, 63
1, 460775, Poly_aftertouch_c, 0, 62, 0
1, 460786, Note_on_c, 0, 62, 65
1, 460791, Note_on_c, 0, 57, 72
1, 460802, Note_on_c, 0, 53, 74
1, 460834, Note_off_c, 0, 53, 66
1, 460835, Note_on_c, 0, 86, 85
1, 460835, Note_off_c, 0, 57, 60
1, 460840, Note_off_c, 0, 62, 64
1, 460847, Note_on_c, 0, 74, 64
1, 460865, Control_c, 0, 64, 119
1, 460876, Note_off_c, 0, 74, 64
1, 460880, Control_c, 0, 64, 109
1, 460895, Control_c, 0, 64, 95
1, 460898, Note_off_c, 0, 86, 63
1, 460910, Control_c, 0, 64, 83
1, 460925, Control_c, 0, 64, 74
1, 460939, Control_c, 0, 64, 67
1, 460954, Control_c, 0, 64, 62
1, 460957, Note_on_c, 0, 58, 63
1, 460968, Note_on_c, 0, 63, 63
1, 460969, Control_c, 0, 64, 59
1, 460978, Note_on_c, 0, 82, 71
1, 460984, Control_c, 0, 64, 57
1, 460985, Note_on_c, 0, 79, 54
1, 460989, Note_off_c, 0, 63, 62
1, 460991, Note_off_c, 0, 58, 64
1, 460995, Note_on_c, 0, 55, 29
1, 460999, Control_c, 0, 64, 52
1, 461021, Note_off_c, 0, 79, 66
1, 461021, Control_c, 0, 64, 47
1, 461024, Note_off_c, 0, 82, 61
1, 461036, Control_c, 0, 64, 44
1, 461045, Note_off_c, 0, 55, 29
1, 461051, Control_c, 0, 64, 44
1, 461084, Note_on_c, 0, 63, 70
1, 461093, Note_on_c, 0, 58, 58
1, 461112, Note_off_c, 0, 63, 66
1, 461115, Note_on_c, 0, 79, 66
1, 461127, Note_off_c, 0, 58, 64
1, 461134, Note_on_c, 0, 75, 63
1, 461146, Note_off_c, 0, 79, 66
1, 461154, Control_c, 0, 64, 43
1, 461164, Note_off_c, 0, 75, 67
1, 461223, Note_on_c, 0, 62, 67
1, 461228, Note_on_c, 0, 65, 61
1, 461229, Control_c, 0, 64, 43
1, 461240, Note_on_c, 0, 57, 46
1, 461244, Control_c, 0, 64, 41
1, 461252, Note_on_c, 0, 77, 81
1, 461252, Note_off_c, 0, 62, 67
1, 461256, Note_off_c, 0, 65, 63
1, 461259, Control_c, 0, 64, 41
1, 461263, Note_on_c, 0, 74, 56
1, 461269, Note_off_c, 0, 57, 56
1, 461274, Control_c, 0, 64, 40
1, 461288, Note_off_c, 0, 74, 63
1, 461297, Note_off_c, 0, 77, 59
1, 461342, Note_on_c, 0, 62, 72
1, 461343, Note_on_c, 0, 65, 65
1, 461345, Note_on_c, 0, 57, 67
1, 461369, Note_off_c, 0, 62, 67
1, 461370, Note_off_c, 0, 65, 66
1, 461376, Note_on_c, 0, 81, 81
1, 461377, Note_off_c, 0, 57, 67
1, 461378, Control_c, 0, 64, 40
1, 461390, Note_on_c, 0, 77, 66
1, 461417, Note_off_c, 0, 77, 64
1, 461434, Note_off_c, 0, 81, 65
1, 461474, Note_on_c, 0, 61, 70
1, 461481, Note_on_c, 0, 57, 59
1, 461482, Note_on_c, 0, 64, 70
1, 461497, Control_c, 0, 64, 39
1, 461503, Note_on_c, 0, 76, 81
1, 461504, Note_on_c, 0, 73, 81
1, 461509, Note_off_c, 0, 64, 67
1, 461511, Note_off_c, 0, 61, 61
1, 461512, Note_on_c, 0, 55, 21
1, 461512, Control_c, 0, 64, 36
1, 461518, Note_off_c, 0, 57, 68
1, 461527, Control_c, 0, 64, 24
1, 461542, Control_c, 0, 64, 0
1, 461553, Note_off_c, 0, 73, 64
1, 461556, Note_off_c, 0, 55, 29
1, 461563, Note_off_c, 0, 76, 64
1, 461598, Note_on_c, 0, 64, 75
1, 461605, Note_on_c, 0, 57, 71
1, 461606, Note_on_c, 0, 61, 76
1, 461631, Note_off_c, 0, 64, 63
1, 461634, Note_off_c, 0, 61, 66
1, 461635, Note_on_c, 0, 55, 53
1, 461640, Note_on_c, 0, 73, 84
1, 461645, Note_off_c, 0, 57, 66
1, 461646, Note_on_c, 0, 69, 78
1, 461663, Note_off_c, 0, 55, 36
1, 461698, Note_off_c, 0, 69, 60
1, 461700, Note_off_c, 0, 73, 64
1, 461735, Note_on_c, 0, 62, 87
1, 461741, Note_on_c, 0, 57, 79
1, 461742, Note_on_c, 0, 53, 76
1, 461749, Control_c, 0, 64, 51
1, 461768, Note_on_c, 0, 74, 87
1, 461769, Note_on_c, 0, 77, 90
1, 461771, Control_c, 0, 64, 66
1, 461779, Note_off_c, 0, 57, 66
1, 461780, Note_off_c, 0, 53, 68
1, 461780, Note_off_c, 0, 62, 60
1, 461786, Control_c, 0, 64, 73
1, 461801, Control_c, 0, 64, 85
1, 461814, Note_off_c, 0, 74, 64
1, 461815, Control_c, 0, 64, 127
1, 461824, Note_off_c, 0, 77, 63
1, 461878, Note_on_c, 0, 62, 83
1, 461881, Note_on_c, 0, 57, 72
1, 461882, Note_on_c, 0, 53, 75
1, 461885, Note_on_c, 0, 74, 83
1, 461893, Note_on_c, 0, 69, 76
1, 461911, Note_off_c, 0, 57, 65
1, 461913, Note_off_c, 0, 62, 64
1, 461914, Note_off_c, 0, 53, 65
1, 461924, Note_off_c, 0, 74, 61
1, 461926, Note_off_c, 0, 69, 64
1, 462024, Note_on_c, 0, 58, 56
1, 462026, Note_on_c, 0, 67, 67
1, 462026, Note_on_c, 0, 70, 71
1, 462048, Note_off_c, 0, 58, 59
1, 462061, Note_off_c, 0, 67, 63
1, 462066, Note_off_c, 0, 70, 61
1, 462120, Note_on_c, 0, 58, 79
1, 462129, Note_on_c, 0, 55, 67
1, 462151, Note_on_c, 0, 63, 63
1, 462153, Note_on_c, 0, 67, 72
1, 462158, Note_off_c, 0, 55, 65
1, 462167, Note_off_c, 0, 58, 60
1, 462177, Note_off_c, 0, 67, 68
1, 462204, Note_off_c, 0, 63, 50
1, 462245, Control_c, 0, 64, 101
1, 462260, Control_c, 0, 64, 83
1, 462275, Control_c, 0, 64, 70
1, 462277, Note_on_c, 0, 65, 71
1, 462278, Note_on_c, 0, 62, 64
1, 462290, Control_c, 0, 64, 59
1, 462305, Control_c, 0, 64, 51
1, 462307, Note_off_c, 0, 62, 64
1, 462320, Control_c, 0, 64, 47
1, 462330, Note_on_c, 0, 57, 74
1, 462332, Note_off_c, 0, 65, 62
1, 462334, Note_on_c, 0, 45, 66
1, 462334, Control_c, 0, 64, 42
1, 462349, Control_c, 0, 64, 36
1, 462364, Control_c, 0, 64, 33
1, 462373, Note_off_c, 0, 45, 66
1, 462373, Note_off_c, 0, 57, 63
1, 462379, Control_c, 0, 64, 32
1, 462406, Note_on_c, 0, 69, 82
1, 462420, Note_on_c, 0, 65, 65
1, 462438, Control_c, 0, 64, 32
1, 462451, Note_off_c, 0, 65, 65
1, 462453, Control_c, 0, 64, 31
1, 462460, Note_off_c, 0, 69, 63
1, 462460, Note_on_c, 0, 45, 75
1, 462465, Note_on_c, 0, 57, 79
1, 462489, Note_off_c, 0, 57, 67
1, 462494, Note_off_c, 0, 45, 68
1, 462540, Note_on_c, 0, 64, 81
1, 462549, Note_on_c, 0, 61, 73
1, 462578, Note_off_c, 0, 61, 66
1, 462593, Note_on_c, 0, 52, 74
1, 462598, Note_off_c, 0, 64, 64
1, 462606, Note_on_c, 0, 45, 60
1, 462622, Note_off_c, 0, 52, 69
1, 462637, Note_off_c, 0, 45, 65
1, 462668, Control_c, 0, 64, 30
1, 462673, Note_on_c, 0, 61, 81
1, 462674, Note_on_c, 0, 57, 81
1, 462683, Control_c, 0, 64, 0
1, 462716, Note_off_c, 0, 57, 60
1, 462729, Note_off_c, 0, 61, 60
1, 462731, Note_on_c, 0, 45, 77
1, 462731, Note_on_c, 0, 52, 85
1, 462747, Note_on_c, 0, 43, 63
1, 462757, Note_off_c, 0, 52, 68
1, 462776, Note_off_c, 0, 45, 63
1, 462778, Note_off_c, 0, 43, 63
1, 462802, Note_on_c, 0, 62, 89
1, 462803, Note_on_c, 0, 65, 88
1, 462817, Control_c, 0, 64, 21
1, 462832, Control_c, 0, 64, 61
1, 462847, Control_c, 0, 64, 66
1, 462854, Note_off_c, 0, 62, 64
1, 462861, Control_c, 0, 64, 73
1, 462869, Note_off_c, 0, 65, 64
1, 462875, Note_on_c, 0, 45, 81
1, 462875, Note_on_c, 0, 50, 86
1, 462875, Control_c, 0, 64, 82
1, 462883, Note_on_c, 0, 41, 72
1, 462890, Control_c, 0, 64, 90
1, 462905, Control_c, 0, 64, 94
1, 462906, Note_off_c, 0, 50, 64
1, 462909, Note_off_c, 0, 45, 66
1, 462915, Note_off_c, 0, 41, 64
1, 462934, Control_c, 0, 64, 92
1, 462939, Note_on_c, 0, 62, 85
1, 462945, Note_on_c, 0, 57, 72
1, 462949, Control_c, 0, 64, 89
1, 462964, Control_c, 0, 64, 86
1, 462979, Control_c, 0, 64, 83
1, 462985, Note_off_c, 0, 57, 63
1, 462985, Note_off_c, 0, 62, 62
1, 462994, Control_c, 0, 64, 76
1, 462999, Note_on_c, 0, 50, 85
1, 462999, Note_on_c, 0, 41, 65
1, 463005, Note_on_c, 0, 45, 66
1, 463008, Control_c, 0, 64, 69
1, 463023, Control_c, 0, 64, 63
1, 463027, Note_off_c, 0, 41, 53
1, 463030, Note_off_c, 0, 50, 66
1, 463038, Control_c, 0, 64, 57
1, 463041, Note_off_c, 0, 45, 65
1, 463053, Control_c, 0, 64, 56
1, 463065, Note_on_c, 0, 63, 87
1, 463068, Control_c, 0, 64, 53
1, 463078, Note_on_c, 0, 58, 75
1, 463083, Control_c, 0, 64, 50
1, 463098, Control_c, 0, 64, 48
1, 463112, Control_c, 0, 64, 48
1, 463115, Note_off_c, 0, 58, 61
1, 463135, Note_off_c, 0, 63, 61
1, 463144, Note_on_c, 0, 51, 83
1, 463148, Note_on_c, 0, 46, 67
1, 463172, Control_c, 0, 64, 47
1, 463172, Note_off_c, 0, 51, 64
1, 463180, Note_on_c, 0, 43, 16
1, 463184, Note_off_c, 0, 46, 64
1, 463203, Note_on_c, 0, 58, 87
1, 463205, Note_on_c, 0, 55, 76
1, 463224, Note_off_c, 0, 43, 39
1, 463263, Note_off_c, 0, 55, 58
1, 463268, Note_off_c, 0, 58, 62
1, 463280, Note_on_c, 0, 51, 85
1, 463284, Note_on_c, 0, 46, 59
1, 463306, Note_off_c, 0, 51, 69
1, 463308, Note_on_c, 0, 43, 47
1, 463320, Note_off_c, 0, 46, 64
1, 463337, Note_off_c, 0, 43, 53
1, 463338, Note_on_c, 0, 62, 87
1, 463342, Note_on_c, 0, 57, 86
1, 463357, Control_c, 0, 64, 48
1, 463372, Control_c, 0, 64, 49
1, 463386, Control_c, 0, 64, 53
1, 463394, Note_off_c, 0, 57, 65
1, 463401, Control_c, 0, 64, 59
1, 463410, Note_off_c, 0, 62, 62
1, 463416, Control_c, 0, 64, 64
1, 463428, Note_on_c, 0, 53, 81
1, 463431, Control_c, 0, 64, 69
1, 463431, Note_on_c, 0, 45, 82
1, 463446, Control_c, 0, 64, 80
1, 463458, Note_off_c, 0, 53, 64
1, 463460, Note_off_c, 0, 45, 66
1, 463460, Control_c, 0, 64, 101
1, 463474, Note_on_c, 0, 57, 92
1, 463475, Control_c, 0, 64, 127
1, 463518, Note_off_c, 0, 57, 66
1, 463556, Note_on_c, 0, 53, 88
1, 463557, Note_on_c, 0, 45, 75
1, 463604, Note_off_c, 0, 53, 60
1, 463605, Note_off_c, 0, 45, 60
1, 463615, Note_on_c, 0, 61, 89
1, 463618, Note_on_c, 0, 55, 85
1, 463673, Note_off_c, 0, 55, 61
1, 463679, Note_off_c, 0, 61, 63
1, 463722, Note_on_c, 0, 45, 83
1, 463722, Note_on_c, 0, 52, 81
1, 463765, Note_off_c, 0, 52, 57
1, 463771, Note_off_c, 0, 45, 60
1, 463783, Note_on_c, 0, 57, 95
1, 463795, Note_on_c, 0, 55, 85
1, 463885, Note_on_c, 0, 52, 78
1, 463889, Note_on_c, 0, 45, 82
1, 463909, Note_off_c, 0, 52, 70
1, 463916, Note_off_c, 0, 45, 66
1, 463993, Note_off_c, 0, 57, 60
1, 463995, Control_c, 0, 64, 76
1, 464013, Note_off_c, 0, 55, 58
1, 464016, Control_c, 0, 64, 0
1, 464041, Note_on_c, 0, 50, 91
1, 464045, Note_on_c, 0, 53, 93
1, 464049, Note_on_c, 0, 38, 78
1, 464051, Note_on_c, 0, 62, 89
1, 464057, Note_on_c, 0, 60, 82
1, 464076, Control_c, 0, 64, 25
1, 464090, Control_c, 0, 64, 61
1, 464091, Note_off_c, 0, 38, 60
1, 464095, Note_off_c, 0, 60, 48
1, 464105, Control_c, 0, 64, 73
1, 464108, Note_off_c, 0, 53, 63
1, 464112, Note_off_c, 0, 50, 61
1, 464120, Control_c, 0, 64, 98
1, 464132, Note_off_c, 0, 62, 64
1, 464135, Control_c, 0, 64, 127
1, 464245, Note_on_c, 0, 50, 58
1, 464251, Note_on_c, 0, 53, 55
1, 464294, Note_off_c, 0, 50, 62
1, 464296, Note_off_c, 0, 53, 55
1, 464307, Note_on_c, 0, 63, 42
1, 464327, Note_on_c, 0, 64, 69
1, 464328, Note_on_c, 0, 57, 55
1, 464338, Note_off_c, 0, 63, 53
1, 464371, Note_off_c, 0, 57, 63
1, 464387, Note_off_c, 0, 64, 60
1, 464409, Note_on_c, 0, 53, 70
1, 464421, Note_on_c, 0, 50, 59
1, 464448, Note_off_c, 0, 53, 63
1, 464452, Note_off_c, 0, 50, 65
1, 464464, Note_on_c, 0, 65, 70
1, 464467, Note_on_c, 0, 62, 59
1, 464494, Note_off_c, 0, 62, 66
1, 464499, Note_off_c, 0, 65, 63
1, 464537, Note_on_c, 0, 50, 59
1, 464541, Note_on_c, 0, 57, 67
1, 464549, Note_on_c, 0, 53, 60
1, 464579, Note_off_c, 0, 53, 65
1, 464580, Note_off_c, 0, 57, 63
1, 464581, Note_off_c, 0, 50, 61
1, 464590, Note_on_c, 0, 69, 82
1, 464598, Note_on_c, 0, 64, 67
1, 464626, Note_off_c, 0, 64, 65
1, 464639, Note_off_c, 0, 69, 61
1, 464663, Note_on_c, 0, 53, 72
1, 464668, Note_on_c, 0, 57, 72
1, 464680, Note_on_c, 0, 50, 63
1, 464709, Note_off_c, 0, 57, 60
1, 464713, Note_off_c, 0, 50, 64
1, 464714, Note_off_c, 0, 53, 65
1, 464728, Note_on_c, 0, 74, 88
1, 464735, Note_on_c, 0, 65, 76
1, 464778, Note_off_c, 0, 65, 62
1, 464796, Note_off_c, 0, 74, 61
1, 464809, Note_on_c, 0, 53, 88
1, 464813, Note_on_c, 0, 50, 63
1, 464815, Note_on_c, 0, 57, 79
1, 464840, Note_off_c, 0, 57, 64
1, 464854, Note_off_c, 0, 53, 61
1, 464856, Note_off_c, 0, 50, 62
1, 464871, Note_on_c, 0, 76, 93
1, 464872, Note_on_c, 0, 69, 89
1, 464922, Note_off_c, 0, 69, 63
1, 464935, Note_on_c, 0, 57, 86
1, 464938, Note_on_c, 0, 50, 78
1, 464940, Note_on_c, 0, 53, 83
1, 464940, Note_off_c, 0, 76, 61
1, 464959, Note_off_c, 0, 57, 65
1, 464974, Note_off_c, 0, 53, 51
1, 464987, Note_off_c, 0, 50, 63
1, 465000, Note_on_c, 0, 77, 102
1, 465001, Note_on_c, 0, 74, 96
1, 465029, Note_off_c, 0, 74, 62
1, 465043, Note_off_c, 0, 77, 64
1, 465150, Note_on_c, 0, 69, 96
1, 465152, Note_on_c, 0, 67, 94
1, 465214, Note_off_c, 0, 69, 54
1, 465240, Note_off_c, 0, 67, 60
1, 465268, Note_on_c, 0, 38, 74
1, 465268, Note_on_c, 0, 50, 80
1, 465286, Control_c, 0, 64, 63
1, 465300, Control_c, 0, 64, 0
1, 465328, Note_off_c, 0, 38, 62
1, 465339, Note_on_c, 0, 74, 98
1, 465341, Note_on_c, 0, 66, 91
1, 465344, Note_off_c, 0, 50, 65
1, 465345, Control_c, 0, 64, 39
1, 465360, Control_c, 0, 64, 63
1, 465375, Control_c, 0, 64, 82
1, 465390, Control_c, 0, 64, 127
1, 465397, Note_off_c, 0, 74, 64
1, 465400, Note_off_c, 0, 66, 63
1, 465468, Note_on_c, 0, 57, 65
1, 465480, Note_on_c, 0, 50, 63
1, 465483, Note_on_c, 0, 60, 60
1, 465521, Note_off_c, 0, 57, 59
1, 465530, Note_off_c, 0, 60, 63
1, 465533, Note_off_c, 0, 50, 61
1, 465542, Note_on_c, 0, 69, 67
1, 465553, Note_on_c, 0, 76, 78
1, 465590, Note_off_c, 0, 69, 60
1, 465602, Note_off_c, 0, 76, 62
1, 465625, Note_on_c, 0, 57, 69
1, 465625, Note_on_c, 0, 60, 69
1, 465626, Note_on_c, 0, 50, 68
1, 465665, Note_off_c, 0, 57, 63
1, 465668, Note_off_c, 0, 60, 59
1, 465676, Note_off_c, 0, 50, 60
1, 465691, Note_on_c, 0, 78, 85
1, 465709, Note_on_c, 0, 74, 48
1, 465727, Note_off_c, 0, 74, 60
1, 465741, Note_off_c, 0, 78, 64
1, 465771, Note_on_c, 0, 57, 74
1, 465773, Note_on_c, 0, 60, 71
1, 465779, Note_on_c, 0, 50, 66
1, 465811, Note_off_c, 0, 60, 63
1, 465811, Note_off_c, 0, 57, 62
1, 465814, Note_off_c, 0, 50, 64
1, 465822, Note_on_c, 0, 76, 66
1, 465822, Note_on_c, 0, 83, 72
1, 465852, Note_off_c, 0, 76, 67
1, 465868, Note_off_c, 0, 83, 64
1, 465910, Note_on_c, 0, 57, 78
1, 465912, Note_on_c, 0, 50, 71
1, 465912, Note_on_c, 0, 60, 77
1, 465942, Note_off_c, 0, 60, 62
1, 465950, Note_off_c, 0, 57, 62
1, 465961, Note_off_c, 0, 50, 61
1, 465962, Note_on_c, 0, 86, 76
1, 465972, Note_on_c, 0, 78, 66
1, 466012, Note_off_c, 0, 78, 58
1, 466026, Note_off_c, 0, 86, 61
1, 466053, Note_on_c, 0, 60, 78
1, 466054, Note_on_c, 0, 57, 75
1, 466062, Note_on_c, 0, 50, 68
1, 466078, Note_off_c, 0, 60, 62
1, 466089, Note_off_c, 0, 57, 65
1, 466090, Note_off_c, 0, 50, 64
1, 466106, Note_on_c, 0, 88, 58
1, 466111, Note_on_c, 0, 79, 44
1, 466119, Note_on_c, 0, 86, 61
1, 466123, Note_on_c, 0, 81, 48
1, 466136, Note_off_c, 0, 79, 57
1, 466138, Note_off_c, 0, 86, 63
1, 466139, Note_off_c, 0, 88, 67
1, 466145, Note_off_c, 0, 81, 59
1, 466172, Note_on_c, 0, 60, 78
1, 466182, Note_on_c, 0, 50, 73
1, 466182, Note_on_c, 0, 57, 72
1, 466198, Note_off_c, 0, 60, 67
1, 466207, Note_off_c, 0, 57, 70
1, 466218, Note_on_c, 0, 86, 80
1, 466219, Note_on_c, 0, 90, 92
1, 466228, Note_off_c, 0, 50, 63
1, 466241, Note_off_c, 0, 86, 69
1, 466262, Note_off_c, 0, 90, 62
1, 466416, Note_on_c, 0, 62, 88
1, 466418, Note_on_c, 0, 60, 92
1, 466466, Note_off_c, 0, 62, 60
1, 466493, Note_off_c, 0, 60, 60
1, 466561, Control_c, 0, 64, 70
1, 466563, Note_on_c, 0, 50, 80
1, 466564, Note_on_c, 0, 38, 75
1, 466575, Control_c, 0, 64, 0
1, 466603, Note_off_c, 0, 38, 65
1, 466606, Note_on_c, 0, 67, 86
1, 466613, Note_on_c, 0, 56, 74
1, 466616, Note_on_c, 0, 58, 79
1, 466618, Control_c, 0, 64, 39
1, 466626, Note_off_c, 0, 50, 64
1, 466633, Control_c, 0, 64, 64
1, 466640, Note_off_c, 0, 56, 67
1, 466648, Control_c, 0, 64, 83
1, 466651, Note_off_c, 0, 58, 59
1, 466663, Control_c, 0, 64, 127
1, 466681, Note_off_c, 0, 67, 63
1, 466743, Note_on_c, 0, 55, 60
1, 466755, Note_on_c, 0, 50, 56
1, 466797, Note_off_c, 0, 50, 62
1, 466811, Note_on_c, 0, 69, 76
1, 466818, Note_on_c, 0, 62, 68
1, 466839, Note_off_c, 0, 55, 56
1, 466850, Note_off_c, 0, 62, 64
1, 466865, Note_off_c, 0, 69, 62
1, 466894, Note_on_c, 0, 55, 48
1, 466899, Note_on_c, 0, 50, 63
1, 466916, Note_on_c, 0, 58, 67
1, 466940, Note_off_c, 0, 50, 59
1, 466948, Note_off_c, 0, 58, 63
1, 466961, Note_on_c, 0, 70, 78
1, 466963, Note_on_c, 0, 67, 65
1, 466969, Note_off_c, 0, 55, 58
1, 466988, Note_off_c, 0, 67, 69
1, 467016, Note_off_c, 0, 70, 62
1, 467042, Note_on_c, 0, 58, 76
1, 467053, Note_on_c, 0, 50, 61
1, 467055, Note_on_c, 0, 55, 58
1, 467086, Note_off_c, 0, 58, 56
1, 467089, Note_off_c, 0, 50, 64
1, 467090, Note_off_c, 0, 55, 61
1, 467096, Note_on_c, 0, 74, 83
1, 467100, Note_on_c, 0, 69, 71
1, 467128, Note_off_c, 0, 74, 62
1, 467131, Note_off_c, 0, 69, 66
1, 467182, Note_on_c, 0, 49, 70
1, 467190, Note_on_c, 0, 58, 79
1, 467190, Note_on_c, 0, 55, 74
1, 467214, Note_off_c, 0, 49, 67
1, 467235, Note_on_c, 0, 70, 73
1, 467236, Note_on_c, 0, 79, 71
1, 467236, Note_off_c, 0, 55, 61
1, 467239, Note_off_c, 0, 58, 58
1, 467268, Note_off_c, 0, 70, 66
1, 467293, Note_off_c, 0, 79, 66
1, 467327, Note_on_c, 0, 58, 75
1, 467332, Note_on_c, 0, 55, 69
1, 467336, Note_on_c, 0, 50, 63
1, 467360, Note_off_c, 0, 58, 62
1, 467363, Note_on_c, 0, 74, 80
1, 467363, Note_on_c, 0, 81, 89
1, 467368, Note_off_c, 0, 50, 65
1, 467372, Note_off_c, 0, 55, 63
1, 467408, Note_off_c, 0, 74, 60
1, 467416, Note_off_c, 0, 81, 65
1, 467452, Note_on_c, 0, 50, 68
1, 467454, Note_on_c, 0, 58, 83
1, 467458, Note_on_c, 0, 55, 75
1, 467494, Note_on_c, 0, 79, 100
1, 467494, Note_on_c, 0, 82, 101
1, 467494, Note_off_c, 0, 58, 56
1, 467496, Note_off_c, 0, 55, 52
1, 467506, Note_off_c, 0, 50, 62
1, 467529, Note_off_c, 0, 79, 67
1, 467555, Note_off_c, 0, 82, 65
1, 467593, Note_on_c, 0, 58, 88
1, 467593, Note_on_c, 0, 55, 79
1, 467601, Note_on_c, 0, 50, 77
1, 467636, Note_on_c, 0, 77, 104
1, 467638, Note_on_c, 0, 86, 104
1, 467640, Note_off_c, 0, 58, 61
1, 467650, Note_off_c, 0, 50, 59
1, 467650, Note_off_c, 0, 55, 61
1, 467670, Note_off_c, 0, 77, 66
1, 467691, Note_off_c, 0, 86, 63
1, 467739, Note_on_c, 0, 58, 87
1, 467745, Note_on_c, 0, 55, 75
1, 467753, Note_on_c, 0, 50, 74
1, 467778, Note_on_c, 0, 76, 103
1, 467779, Note_on_c, 0, 85, 107
1, 467793, Note_off_c, 0, 58, 62
1, 467807, Note_off_c, 0, 55, 60
1, 467808, Note_off_c, 0, 50, 60
1, 467813, Note_off_c, 0, 76, 67
1, 467834, Note_off_c, 0, 85, 66
1, 467889, Note_on_c, 0, 58, 88
1, 467896, Note_on_c, 0, 55, 76
1, 467903, Note_on_c, 0, 50, 63
1, 467916, Note_on_c, 0, 82, 86
1, 467921, Note_on_c, 0, 73, 88
1, 467940, Note_off_c, 0, 58, 63
1, 467953, Note_off_c, 0, 55, 61
1, 467957, Note_off_c, 0, 50, 56
1, 467967, Note_off_c, 0, 73, 65
1, 467977, Note_off_c, 0, 82, 61
1, 468032, Note_on_c, 0, 58, 79
1, 468037, Note_on_c, 0, 50, 64
1, 468042, Note_on_c, 0, 55, 64
1, 468067, Note_on_c, 0, 79, 80
1, 468079, Note_off_c, 0, 55, 53
1, 468082, Note_off_c, 0, 58, 61
1, 468091, Note_off_c, 0, 50, 61
1, 468091, Note_off_c, 0, 79, 70
1, 468175, Note_on_c, 0, 58, 73
1, 468177, Poly_aftertouch_c, 0, 71, 0
1, 468177, Note_on_c, 0, 55, 68
1, 468186, Note_on_c, 0, 50, 53
1, 468204, Note_off_c, 0, 58, 62
1, 468205, Note_on_c, 0, 67, 80
1, 468209, Note_on_c, 0, 76, 77
1, 468221, Note_off_c, 0, 50, 63
1, 468223, Note_off_c, 0, 55, 64
1, 468234, Note_off_c, 0, 67, 63
1, 468263, Note_off_c, 0, 76, 63
1, 468305, Note_on_c, 0, 58, 76
1, 468307, Note_on_c, 0, 50, 56
1, 468317, Note_on_c, 0, 55, 66
1, 468347, Note_on_c, 0, 73, 82
1, 468350, Note_on_c, 0, 64, 73
1, 468351, Note_off_c, 0, 58, 61
1, 468356, Note_off_c, 0, 55, 62
1, 468362, Note_off_c, 0, 50, 64
1, 468377, Note_off_c, 0, 64, 68
1, 468389, Note_off_c, 0, 73, 64
1, 468454, Note_on_c, 0, 58, 74
1, 468457, Note_on_c, 0, 55, 66
1, 468471, Note_on_c, 0, 50, 48
1, 468476, Note_off_c, 0, 58, 66
1, 468477, Note_on_c, 0, 70, 83
1, 468480, Note_on_c, 0, 61, 85
1, 468499, Note_off_c, 0, 55, 58
1, 468511, Note_off_c, 0, 50, 62
1, 468535, Note_off_c, 0, 61, 64
1, 468556, Note_off_c, 0, 70, 59
1, 468584, Note_on_c, 0, 58, 76
1, 468597, Note_on_c, 0, 50, 55
1, 468597, Note_on_c, 0, 55, 64
1, 468632, Note_off_c, 0, 50, 64
1, 468636, Note_off_c, 0, 55, 64
1, 468636, Note_on_c, 0, 67, 90
1, 468672, Note_off_c, 0, 67, 62
1, 468679, Note_off_c, 0, 58, 64
1, 468732, Note_on_c, 0, 52, 79
1, 468737, Note_on_c, 0, 50, 63
1, 468768, Note_off_c, 0, 50, 63
1, 468782, Note_off_c, 0, 52, 65
1, 468803, Note_on_c, 0, 55, 93
1, 468806, Note_on_c, 0, 57, 86
1, 468877, Note_off_c, 0, 55, 55
1, 468884, Note_off_c, 0, 57, 61
1, 468889, Note_on_c, 0, 52, 80
1, 468916, Note_on_c, 0, 50, 48
1, 468922, Note_off_c, 0, 52, 66
1, 468940, Note_off_c, 0, 50, 59
1, 469029, Control_c, 0, 64, 77
1, 469044, Control_c, 0, 64, 0
1, 469053, Note_on_c, 0, 54, 97
1, 469053, Note_on_c, 0, 62, 102
1, 469063, Note_on_c, 0, 50, 74
1, 469064, Note_on_c, 0, 38, 71
1, 469101, Note_off_c, 0, 38, 63
1, 469103, Control_c, 0, 64, 55
1, 469114, Note_off_c, 0, 54, 65
1, 469118, Note_off_c, 0, 62, 62
1, 469118, Control_c, 0, 64, 74
1, 469123, Note_off_c, 0, 50, 64
1, 469133, Control_c, 0, 64, 127
1, 469241, Note_on_c, 0, 45, 61
1, 469244, Note_on_c, 0, 50, 57
1, 469288, Note_on_c, 0, 64, 67
1, 469290, Note_on_c, 0, 57, 57
1, 469296, Note_off_c, 0, 50, 63
1, 469327, Note_off_c, 0, 57, 62
1, 469347, Note_off_c, 0, 64, 62
1, 469357, Note_off_c, 0, 45, 0
1, 469375, Note_on_c, 0, 54, 74
1, 469377, Note_on_c, 0, 45, 25
1, 469416, Note_on_c, 0, 50, 23
1, 469428, Note_on_c, 0, 62, 61
1, 469430, Note_on_c, 0, 66, 73
1, 469431, Note_off_c, 0, 54, 62
1, 469447, Note_off_c, 0, 50, 53
1, 469454, Note_off_c, 0, 45, 57
1, 469459, Note_off_c, 0, 62, 65
1, 469477, Note_off_c, 0, 66, 59
1, 469515, Note_on_c, 0, 45, 39
1, 469515, Note_on_c, 0, 57, 71
1, 469518, Note_on_c, 0, 54, 72
1, 469544, Note_on_c, 0, 50, 51
1, 469551, Note_on_c, 0, 69, 81
1, 469553, Note_off_c, 0, 54, 66
1, 469558, Note_on_c, 0, 64, 65
1, 469559, Note_off_c, 0, 57, 61
1, 469567, Note_off_c, 0, 45, 61
1, 469570, Note_off_c, 0, 50, 59
1, 469584, Note_off_c, 0, 69, 59
1, 469587, Note_off_c, 0, 64, 67
1, 469645, Note_on_c, 0, 54, 74
1, 469650, Note_on_c, 0, 50, 63
1, 469653, Note_on_c, 0, 57, 74
1, 469662, Note_on_c, 0, 45, 63
1, 469685, Note_on_c, 0, 66, 66
1, 469685, Note_on_c, 0, 74, 68
1, 469688, Note_off_c, 0, 57, 65
1, 469694, Note_off_c, 0, 50, 64
1, 469697, Note_off_c, 0, 54, 63
1, 469702, Note_off_c, 0, 45, 62
1, 469722, Note_off_c, 0, 66, 57
1, 469748, Note_off_c, 0, 74, 63
1, 469780, Note_on_c, 0, 57, 74
1, 469783, Note_on_c, 0, 54, 78
1, 469784, Note_on_c, 0, 45, 66
1, 469787, Note_on_c, 0, 50, 69
1, 469808, Note_off_c, 0, 57, 63
1, 469815, Note_on_c, 0, 76, 91
1, 469815, Note_off_c, 0, 54, 66
1, 469817, Note_on_c, 0, 69, 82
1, 469821, Note_off_c, 0, 45, 59
1, 469823, Note_off_c, 0, 50, 62
1, 469854, Note_off_c, 0, 69, 60
1, 469863, Note_off_c, 0, 76, 64
1, 469897, Note_on_c, 0, 57, 88
1, 469900, Note_on_c, 0, 50, 77
1, 469901, Note_on_c, 0, 54, 81
1, 469912, Note_on_c, 0, 45, 64
1, 469937, Note_off_c, 0, 57, 56
1, 469945, Note_on_c, 0, 78, 108
1, 469946, Note_off_c, 0, 54, 57
1, 469947, Note_on_c, 0, 74, 95
1, 469956, Note_off_c, 0, 45, 61
1, 469957, Note_off_c, 0, 50, 63
1, 469970, Note_off_c, 0, 74, 65
1, 469989, Note_off_c, 0, 78, 66
1, 470097, Note_on_c, 0, 69, 102
1, 470097, Note_on_c, 0, 67, 93
1, 470159, Note_off_c, 0, 69, 55
1, 470189, Note_off_c, 0, 67, 59
1, 470231, Note_on_c, 0, 38, 82
1, 470231, Note_on_c, 0, 50, 91
1, 470246, Control_c, 0, 64, 63
1, 470260, Control_c, 0, 64, 0
1, 470272, Note_off_c, 0, 38, 64
1, 470282, Note_on_c, 0, 74, 99
1, 470285, Note_off_c, 0, 50, 66
1, 470285, Note_on_c, 0, 66, 94
1, 470290, Control_c, 0, 64, 37
1, 470305, Control_c, 0, 64, 62
1, 470320, Control_c, 0, 64, 80
1, 470334, Control_c, 0, 64, 127
1, 470339, Note_off_c, 0, 74, 66
1, 470344, Note_off_c, 0, 66, 63
1, 470416, Note_on_c, 0, 57, 62
1, 470418, Note_on_c, 0, 50, 63
1, 470424, Note_on_c, 0, 60, 64
1, 470434, Note_on_c, 0, 54, 52
1, 470434, Note_on_c, 0, 62, 56
1, 470454, Note_off_c, 0, 60, 56
1, 470460, Note_off_c, 0, 62, 62
1, 470466, Note_on_c, 0, 69, 74
1, 470466, Note_off_c, 0, 50, 62
1, 470467, Note_off_c, 0, 57, 58
1, 470472, Note_off_c, 0, 54, 63
1, 470474, Note_on_c, 0, 76, 80
1, 470518, Note_off_c, 0, 69, 62
1, 470523, Note_off_c, 0, 76, 65
1, 470542, Note_on_c, 0, 60, 80
1, 470546, Note_on_c, 0, 62, 74
1, 470551, Note_on_c, 0, 54, 68
1, 470554, Note_on_c, 0, 57, 68
1, 470559, Note_on_c, 0, 50, 65
1, 470583, Note_off_c, 0, 62, 60
1, 470586, Note_off_c, 0, 60, 65
1, 470592, Note_off_c, 0, 50, 61
1, 470595, Note_off_c, 0, 54, 61
1, 470596, Note_off_c, 0, 57, 63
1, 470606, Note_on_c, 0, 74, 79
1, 470611, Note_on_c, 0, 78, 85
1, 470630, Note_off_c, 0, 74, 67
1, 470660, Note_off_c, 0, 78, 63
1, 470678, Note_on_c, 0, 60, 80
1, 470684, Note_on_c, 0, 62, 73
1, 470684, Note_on_c, 0, 57, 76
1, 470687, Note_on_c, 0, 54, 69
1, 470689, Note_on_c, 0, 50, 63
1, 470708, Note_off_c, 0, 62, 65
1, 470717, Note_off_c, 0, 60, 64
1, 470722, Note_off_c, 0, 54, 65
1, 470724, Note_off_c, 0, 50, 62
1, 470729, Note_off_c, 0, 57, 62
1, 470732, Note_on_c, 0, 81, 92
1, 470737, Note_on_c, 0, 76, 82
1, 470779, Note_off_c, 0, 81, 67
1, 470784, Note_off_c, 0, 76, 60
1, 470821, Note_on_c, 0, 60, 80
1, 470821, Note_on_c, 0, 57, 75
1, 470823, Note_on_c, 0, 62, 74
1, 470824, Note_on_c, 0, 54, 74
1, 470825, Note_on_c, 0, 50, 65
1, 470856, Note_off_c, 0, 62, 63
1, 470858, Note_off_c, 0, 60, 67
1, 470863, Note_off_c, 0, 50, 61
1, 470872, Note_off_c, 0, 54, 64
1, 470875, Note_on_c, 0, 78, 89
1, 470875, Note_on_c, 0, 86, 92
1, 470876, Note_off_c, 0, 57, 63
1, 470931, Note_off_c, 0, 78, 61
1, 470946, Note_off_c, 0, 86, 62
1, 470953, Note_on_c, 0, 62, 85
1, 470954, Note_on_c, 0, 60, 83
1, 470955, Note_on_c, 0, 57, 78
1, 470956, Note_on_c, 0, 50, 71
1, 470960, Note_on_c, 0, 54, 73
1, 470988, Note_off_c, 0, 62, 59
1, 470988, Note_off_c, 0, 60, 56
1, 471000, Note_off_c, 0, 50, 64
1, 471003, Note_off_c, 0, 57, 64
1, 471007, Note_on_c, 0, 88, 91
1, 471009, Note_off_c, 0, 54, 63
1, 471012, Note_on_c, 0, 81, 84
1, 471064, Note_off_c, 0, 81, 60
1, 471073, Note_off_c, 0, 88, 61
1, 471080, Note_on_c, 0, 60, 93
1, 471081, Note_on_c, 0, 62, 90
1, 471083, Note_on_c, 0, 57, 83
1, 471084, Note_on_c, 0, 50, 86
1, 471084, Note_on_c, 0, 54, 79
1, 471118, Note_off_c, 0, 62, 61
1, 471122, Note_off_c, 0, 60, 61
1, 471137, Note_off_c, 0, 57, 62
1, 471138, Note_off_c, 0, 50, 62
1, 471149, Note_on_c, 0, 90, 105
1, 471149, Note_off_c, 0, 54, 64
1, 471154, Note_on_c, 0, 86, 97
1, 471170, Note_off_c, 0, 86, 72
1, 471181, Note_off_c, 0, 90, 68
1, 471325, Note_on_c, 0, 60, 105
1, 471328, Note_on_c, 0, 62, 98
1, 471410, Note_off_c, 0, 62, 58
1, 471438, Note_off_c, 0, 60, 62
1, 471453, Control_c, 0, 64, 92
1, 471468, Control_c, 0, 64, 47
1, 471475, Note_on_c, 0, 38, 78
1, 471476, Note_on_c, 0, 50, 94
1, 471483, Control_c, 0, 64, 0
1, 471513, Note_on_c, 0, 67, 96
1, 471517, Note_on_c, 0, 57, 81
1, 471517, Note_off_c, 0, 38, 65
1, 471520, Note_on_c, 0, 59, 85
1, 471529, Note_off_c, 0, 50, 67
1, 471535, Control_c, 0, 64, 61
1, 471551, Control_c, 0, 64, 83
1, 471565, Note_off_c, 0, 57, 63
1, 471566, Control_c, 0, 64, 127
1, 471568, Note_off_c, 0, 59, 58
1, 471569, Note_on_c, 0, 65, 13
1, 471590, Note_off_c, 0, 67, 63
1, 471620, Note_off_c, 0, 65, 39
1, 471658, Note_on_c, 0, 55, 61
1, 471659, Note_on_c, 0, 50, 64
1, 471709, Note_on_c, 0, 69, 81
1, 471721, Note_on_c, 0, 62, 62
1, 471724, Note_off_c, 0, 55, 56
1, 471748, Note_off_c, 0, 62, 66
1, 471772, Note_off_c, 0, 69, 62
1, 471805, Note_on_c, 0, 59, 73
1, 471830, Note_on_c, 0, 55, 45
1, 471858, Note_on_c, 0, 71, 82
1, 471861, Note_off_c, 0, 55, 53
1, 471862, Note_on_c, 0, 67, 70
1, 471872, Note_off_c, 0, 59, 56
1, 471883, Note_off_c, 0, 50, 52
1, 471886, Note_off_c, 0, 67, 69
1, 471903, Note_off_c, 0, 71, 64
1, 471947, Note_on_c, 0, 59, 62
1, 471951, Note_on_c, 0, 55, 58
1, 471954, Note_on_c, 0, 50, 55
1, 471955, Note_on_c, 0, 62, 69
1, 471991, Note_on_c, 0, 74, 83
1, 471993, Note_on_c, 0, 69, 79
1, 471994, Note_off_c, 0, 59, 59
1, 472002, Note_off_c, 0, 55, 56
1, 472002, Note_off_c, 0, 62, 48
1, 472008, Note_off_c, 0, 50, 59
1, 472040, Note_off_c, 0, 69, 60
1, 472047, Note_off_c, 0, 74, 62
1, 472097, Note_on_c, 0, 59, 76
1, 472100, Note_on_c, 0, 62, 74
1, 472108, Note_on_c, 0, 50, 66
1, 472112, Note_on_c, 0, 55, 62
1, 472130, Note_on_c, 0, 79, 92
1, 472132, Note_on_c, 0, 71, 81
1, 472144, Note_off_c, 0, 62, 58
1, 472148, Note_off_c, 0, 50, 58
1, 472151, Note_off_c, 0, 59, 62
1, 472152, Note_off_c, 0, 55, 61
1, 472179, Note_off_c, 0, 71, 63
1, 472200, Note_off_c, 0, 79, 64
1, 472242, Note_on_c, 0, 62, 80
1, 472252, Note_on_c, 0, 59, 76
1, 472256, Note_on_c, 0, 55, 60
1, 472262, Note_on_c, 0, 50, 68
1, 472275, Note_on_c, 0, 81, 87
1, 472285, Note_on_c, 0, 74, 78
1, 472299, Note_on_c, 0, 79, 52
1, 472300, Note_off_c, 0, 79, 127
1, 472300, Note_off_c, 0, 62, 60
1, 472306, Note_off_c, 0, 59, 61
1, 472310, Note_off_c, 0, 50, 55
1, 472320, Note_off_c, 0, 55, 63
1, 472326, Note_off_c, 0, 74, 57
1, 472339, Note_off_c, 0, 81, 67
1, 472404, Note_on_c, 0, 62, 80
1, 472406, Note_on_c, 0, 59, 83
1, 472419, Note_on_c, 0, 79, 85
1, 472420, Note_on_c, 0, 50, 67
1, 472420, Note_on_c, 0, 83, 99
1, 472425, Note_on_c, 0, 55, 66
1, 472453, Note_off_c, 0, 62, 61
1, 472464, Note_off_c, 0, 79, 64
1, 472470, Note_off_c, 0, 59, 61
1, 472470, Note_off_c, 0, 50, 61
1, 472478, Note_off_c, 0, 55, 58
1, 472494, Note_off_c, 0, 83, 63
1, 472559, Note_on_c, 0, 62, 82
1, 472560, Note_on_c, 0, 59, 79
1, 472574, Note_on_c, 0, 50, 65
1, 472578, Note_on_c, 0, 55, 66
1, 472606, Note_on_c, 0, 86, 108
1, 472609, Note_on_c, 0, 77, 107
1, 472618, Note_off_c, 0, 62, 60
1, 472624, Note_off_c, 0, 50, 58
1, 472626, Note_off_c, 0, 59, 55
1, 472634, Note_off_c, 0, 55, 55
1, 472643, Note_off_c, 0, 77, 61
1, 472667, Note_off_c, 0, 86, 64
1, 472719, Note_on_c, 0, 62, 79
1, 472723, Note_on_c, 0, 59, 79
1, 472732, Note_on_c, 0, 55, 69
1, 472733, Note_off_c, 0, 62, 72
1, 472735, Note_on_c, 0, 50, 55
1, 472747, Note_off_c, 0, 59, 67
1, 472754, Note_off_c, 0, 55, 70
1, 472766, Note_off_c, 0, 50, 66
1, 472878, Control_c, 0, 64, 100
1, 472888, Note_on_c, 0, 50, 94
1, 472890, Note_on_c, 0, 85, 106
1, 472893, Note_on_c, 0, 76, 104
1, 472893, Control_c, 0, 64, 58
1, 472894, Note_on_c, 0, 38, 95
1, 472908, Control_c, 0, 64, 0
1, 472917, Note_on_c, 0, 86, 62
1, 472922, Control_c, 0, 64, 23
1, 472937, Note_off_c, 0, 86, 59
1, 472937, Control_c, 0, 64, 57
1, 472942, Note_off_c, 0, 38, 63
1, 472952, Control_c, 0, 64, 73
1, 472967, Control_c, 0, 64, 127
1, 472967, Note_off_c, 0, 76, 67
1, 472969, Note_off_c, 0, 50, 66
1, 473017, Note_off_c, 0, 85, 64
1, 473170, Note_on_c, 0, 55, 51
1, 473173, Note_on_c, 0, 52, 44
1, 473193, Note_on_c, 0, 50, 32
1, 473222, Note_on_c, 0, 73, 65
1, 473222, Note_on_c, 0, 82, 73
1, 473222, Note_off_c, 0, 55, 55
1, 473224, Note_on_c, 0, 58, 22
1, 473231, Note_off_c, 0, 52, 59
1, 473235, Note_off_c, 0, 50, 54
1, 473265, Note_off_c, 0, 58, 40
1, 473286, Note_off_c, 0, 73, 64
1, 473314, Note_off_c, 0, 82, 61
1, 473335, Note_on_c, 0, 55, 51
1, 473340, Note_on_c, 0, 50, 50
1, 473342, Note_on_c, 0, 58, 59
1, 473343, Note_on_c, 0, 52, 56
1, 473377, Note_off_c, 0, 50, 63
1, 473381, Note_off_c, 0, 58, 61
1, 473387, Note_off_c, 0, 52, 61
1, 473388, Note_off_c, 0, 55, 61
1, 473418, Note_on_c, 0, 70, 64
1, 473419, Note_on_c, 0, 79, 70
1, 473449, Note_off_c, 0, 70, 66
1, 473470, Note_off_c, 0, 79, 58
1, 473492, Note_on_c, 0, 58, 70
1, 473497, Note_on_c, 0, 52, 55
1, 473501, Note_on_c, 0, 55, 60
1, 473541, Note_off_c, 0, 58, 62
1, 473543, Note_off_c, 0, 55, 61
1, 473549, Note_off_c, 0, 52, 61
1, 473560, Note_on_c, 0, 76, 79
1, 473564, Note_on_c, 0, 67, 74
1, 473591, Note_off_c, 0, 67, 62
1, 473608, Note_on_c, 0, 69, 33
1, 473640, Note_off_c, 0, 69, 50
1, 473648, Note_off_c, 0, 76, 63
1, 473653, Note_on_c, 0, 58, 89
1, 473660, Note_on_c, 0, 55, 71
1, 473662, Note_on_c, 0, 52, 66
1, 473681, Note_on_c, 0, 82, 98
1, 473686, Note_on_c, 0, 73, 95
1, 473692, Note_on_c, 0, 50, 44
1, 473693, Note_off_c, 0, 55, 64
1, 473697, Note_off_c, 0, 58, 61
1, 473702, Note_off_c, 0, 52, 66
1, 473725, Note_off_c, 0, 50, 51
1, 473754, Note_off_c, 0, 73, 64
1, 473769, Note_off_c, 0, 82, 63
1, 473792, Note_on_c, 0, 58, 83
1, 473796, Note_on_c, 0, 55, 72
1, 473807, Note_on_c, 0, 52, 65
1, 473826, Note_on_c, 0, 70, 82
1, 473827, Note_on_c, 0, 79, 83
1, 473829, Note_off_c, 0, 58, 59
1, 473832, Note_off_c, 0, 52, 68
1, 473838, Note_off_c, 0, 55, 62
1, 473842, Note_on_c, 0, 50, 22
1, 473855, Note_off_c, 0, 79, 62
1, 473871, Note_off_c, 0, 70, 62
1, 473874, Note_off_c, 0, 50, 53
1, 473926, Note_on_c, 0, 58, 80
1, 473933, Note_on_c, 0, 52, 52
1, 473935, Note_on_c, 0, 55, 67
1, 473961, Note_off_c, 0, 58, 59
1, 473963, Note_off_c, 0, 55, 63
1, 473971, Note_on_c, 0, 76, 85
1, 473972, Note_off_c, 0, 52, 63
1, 473975, Note_on_c, 0, 67, 78
1, 474004, Note_off_c, 0, 67, 63
1, 474012, Poly_aftertouch_c, 0, 50, 127
1, 474038, Note_off_c, 0, 76, 63
1, 474053, Poly_aftertouch_c, 0, 50, 0
1, 474058, Note_on_c, 0, 52, 60
1, 474058, Note_on_c, 0, 58, 80
1, 474064, Note_on_c, 0, 55, 66
1, 474090, Poly_aftertouch_c, 0, 50, 127
1, 474098, Note_on_c, 0, 50, 3
1, 474105, Note_on_c, 0, 64, 64
1, 474106, Note_off_c, 0, 58, 59
1, 474111, Note_on_c, 0, 73, 76
1, 474111, Note_off_c, 0, 55, 62
1, 474118, Note_off_c, 0, 52, 61
1, 474138, Note_off_c, 0, 64, 66
1, 474138, Note_off_c, 0, 73, 65
1, 474140, Note_off_c, 0, 50, 35
1, 474154, Note_on_c, 0, 65, 11
1, 474193, Note_on_c, 0, 58, 84
1, 474204, Note_on_c, 0, 52, 60
1, 474205, Note_on_c, 0, 55, 69
1, 474207, Note_off_c, 0, 65, 36
1, 474213, Note_on_c, 0, 50, 52
1, 474231, Note_on_c, 0, 79, 101
1, 474235, Note_on_c, 0, 70, 94
1, 474236, Note_off_c, 0, 55, 64
1, 474240, Note_off_c, 0, 58, 62
1, 474245, Note_off_c, 0, 50, 65
1, 474245, Note_off_c, 0, 52, 65
1, 474288, Note_off_c, 0, 70, 59
1, 474300, Note_off_c, 0, 79, 62
1, 474324, Note_on_c, 0, 58, 84
1, 474327, Note_on_c, 0, 52, 70
1, 474328, Note_on_c, 0, 55, 72
1, 474330, Note_on_c, 0, 50, 61
1, 474362, Note_on_c, 0, 76, 88
1, 474365, Note_on_c, 0, 67, 80
1, 474366, Note_off_c, 0, 55, 61
1, 474369, Note_off_c, 0, 50, 60
1, 474370, Note_off_c, 0, 58, 61
1, 474377, Note_off_c, 0, 52, 61
1, 474398, Note_off_c, 0, 67, 64
1, 474402, Note_off_c, 0, 76, 67
1, 474459, Note_on_c, 0, 58, 81
1, 474473, Note_on_c, 0, 55, 60
1, 474506, Note_off_c, 0, 58, 60
1, 474507, Note_on_c, 0, 52, 36
1, 474511, Note_on_c, 0, 64, 80
1, 474514, Note_on_c, 0, 73, 84
1, 474514, Note_off_c, 0, 55, 65
1, 474528, Note_on_c, 0, 50, 1
1, 474548, Note_off_c, 0, 52, 47
1, 474569, Note_off_c, 0, 64, 62
1, 474571, Note_off_c, 0, 50, 50
1, 474592, Note_off_c, 0, 73, 61
1, 474601, Note_on_c, 0, 58, 92
1, 474602, Note_on_c, 0, 55, 71
1, 474624, Note_on_c, 0, 52, 62
1, 474628, Note_on_c, 0, 50, 26
1, 474640, Note_on_c, 0, 61, 80
1, 474641, Note_on_c, 0, 70, 85
1, 474643, Note_off_c, 0, 58, 61
1, 474649, Note_off_c, 0, 52, 68
1, 474651, Note_off_c, 0, 55, 61
1, 474664, Note_off_c, 0, 50, 46
1, 474664, Note_off_c, 0, 61, 68
1, 474696, Note_off_c, 0, 70, 64
1, 474714, Note_on_c, 0, 58, 91
1, 474715, Note_on_c, 0, 52, 64
1, 474721, Note_on_c, 0, 55, 75
1, 474728, Note_on_c, 0, 50, 76
1, 474738, Control_c, 0, 64, 72
1, 474753, Control_c, 0, 64, 25
1, 474759, Note_on_c, 0, 76, 104
1, 474763, Note_on_c, 0, 67, 97
1, 474768, Control_c, 0, 64, 0
1, 474783, Control_c, 0, 64, 46
1, 474798, Control_c, 0, 64, 62
1, 474805, Note_off_c, 0, 67, 63
1, 474813, Control_c, 0, 64, 74
1, 474827, Control_c, 0, 64, 127
1, 474840, Note_off_c, 0, 76, 65
1, 474860, Note_off_c, 0, 52, 57
1, 474864, Note_off_c, 0, 55, 55
1, 474872, Note_off_c, 0, 58, 55
1, 474928, Note_on_c, 0, 73, 103
1, 474929, Note_off_c, 0, 50, 36
1, 474931, Note_on_c, 0, 64, 91
1, 474972, Note_off_c, 0, 64, 64
1, 474995, Note_off_c, 0, 73, 61
1, 475085, Note_on_c, 0, 61, 92
1, 475085, Note_on_c, 0, 70, 91
1, 475147, Note_off_c, 0, 61, 62
1, 475164, Note_off_c, 0, 70, 58
1, 475275, Note_on_c, 0, 67, 85
1, 475281, Note_on_c, 0, 58, 72
1, 475311, Note_off_c, 0, 58, 65
1, 475313, Note_on_c, 0, 63, 25
1, 475313, Note_off_c, 0, 67, 60
1, 475349, Note_off_c, 0, 63, 45
1, 475471, Control_c, 0, 64, 77
1, 475486, Control_c, 0, 64, 47
1, 475488, Note_on_c, 0, 76, 102
1, 475499, Note_on_c, 0, 67, 83
1, 475501, Control_c, 0, 64, 0
1, 475516, Control_c, 0, 64, 48
1, 475523, Note_on_c, 0, 74, 47
1, 475524, Note_off_c, 0, 74, 127
1, 475531, Control_c, 0, 64, 63
1, 475540, Note_on_c, 0, 58, 25
1, 475546, Control_c, 0, 64, 73
1, 475561, Control_c, 0, 64, 106
1, 475576, Control_c, 0, 64, 127
1, 475581, Note_on_c, 0, 73, 87
1, 475584, Note_off_c, 0, 58, 38
1, 475594, Note_on_c, 0, 64, 76
1, 475594, Note_off_c, 0, 67, 62
1, 475604, Note_off_c, 0, 76, 60
1, 475653, Note_on_c, 0, 61, 80
1, 475662, Note_on_c, 0, 70, 84
1, 475662, Note_off_c, 0, 64, 62
1, 475663, Note_off_c, 0, 73, 62
1, 475708, Note_on_c, 0, 58, 69
1, 475710, Note_off_c, 0, 70, 62
1, 475719, Note_on_c, 0, 67, 79
1, 475730, Note_off_c, 0, 61, 63
1, 475769, Note_off_c, 0, 58, 63
1, 475775, Note_off_c, 0, 67, 50
1, 475787, Note_on_c, 0, 73, 96
1, 475791, Note_on_c, 0, 64, 72
1, 475850, Note_on_c, 0, 61, 77
1, 475852, Note_off_c, 0, 64, 64
1, 475860, Note_on_c, 0, 70, 77
1, 475890, Note_off_c, 0, 73, 63
1, 475895, Note_on_c, 0, 58, 69
1, 475904, Note_off_c, 0, 61, 62
1, 475926, Note_on_c, 0, 67, 72
1, 475953, Note_off_c, 0, 70, 61
1, 475988, Note_on_c, 0, 55, 65
1, 475988, Note_off_c, 0, 58, 63
1, 475996, Note_off_c, 0, 67, 64
1, 476002, Note_on_c, 0, 64, 74
1, 476028, Note_off_c, 0, 55, 63
1, 476050, Note_off_c, 0, 64, 56
1, 476062, Note_on_c, 0, 61, 68
1, 476067, Note_on_c, 0, 70, 88
1, 476122, Note_off_c, 0, 61, 61
1, 476133, Note_on_c, 0, 67, 75
1, 476138, Note_on_c, 0, 59, 59
1, 476159, Note_off_c, 0, 70, 64
1, 476169, Note_off_c, 0, 59, 65
1, 476174, Note_on_c, 0, 55, 62
1, 476200, Note_on_c, 0, 64, 78
1, 476211, Note_off_c, 0, 67, 63
1, 476248, Note_off_c, 0, 55, 62
1, 476253, Note_on_c, 0, 52, 65
1, 476258, Note_on_c, 0, 61, 74
1, 476260, Note_off_c, 0, 64, 64
1, 476304, Note_off_c, 0, 61, 63
1, 476307, Note_off_c, 0, 52, 63
1, 476326, Note_on_c, 0, 67, 92
1, 476334, Note_on_c, 0, 58, 74
1, 476382, Note_on_c, 0, 55, 70
1, 476391, Note_off_c, 0, 58, 62
1, 476402, Note_on_c, 0, 64, 83
1, 476430, Note_off_c, 0, 67, 63
1, 476437, Note_on_c, 0, 52, 70
1, 476451, Note_off_c, 0, 55, 62
1, 476467, Note_on_c, 0, 61, 84
1, 476485, Note_off_c, 0, 64, 59
1, 476505, Note_on_c, 0, 49, 79
1, 476518, Note_off_c, 0, 52, 66
1, 476518, Note_off_c, 0, 61, 62
1, 476520, Note_on_c, 0, 58, 85
1, 476565, Note_off_c, 0, 49, 63
1, 476570, Note_off_c, 0, 58, 62
1, 476596, Note_on_c, 0, 55, 80
1, 476601, Note_on_c, 0, 64, 95
1, 476607, Control_c, 0, 64, 94
1, 476622, Control_c, 0, 64, 71
1, 476637, Control_c, 0, 64, 67
1, 476652, Control_c, 0, 64, 73
1, 476660, Note_on_c, 0, 52, 74
1, 476667, Control_c, 0, 64, 82
1, 476670, Note_off_c, 0, 55, 62
1, 476676, Note_on_c, 0, 61, 89
1, 476682, Control_c, 0, 64, 101
1, 476696, Control_c, 0, 64, 127
1, 476700, Note_off_c, 0, 64, 59
1, 476726, Note_on_c, 0, 49, 77
1, 476751, Note_off_c, 0, 52, 64
1, 476756, Note_on_c, 0, 58, 85
1, 476787, Note_off_c, 0, 61, 60
1, 476822, Note_on_c, 0, 55, 83
1, 476824, Note_on_c, 0, 46, 76
1, 476825, Note_off_c, 0, 49, 64
1, 476832, Note_off_c, 0, 58, 59
1, 476896, Note_on_c, 0, 61, 95
1, 476899, Note_off_c, 0, 46, 60
1, 476911, Control_c, 0, 64, 88
1, 476915, Note_on_c, 0, 52, 79
1, 476920, Note_off_c, 0, 55, 63
1, 476926, Control_c, 0, 64, 64
1, 476941, Control_c, 0, 64, 62
1, 476956, Control_c, 0, 64, 68
1, 476970, Control_c, 0, 64, 76
1, 476980, Note_on_c, 0, 58, 80
1, 476983, Note_on_c, 0, 49, 75
1, 476985, Control_c, 0, 64, 94
1, 476987, Note_off_c, 0, 52, 61
1, 477000, Control_c, 0, 64, 127
1, 477020, Note_off_c, 0, 61, 60
1, 477063, Note_on_c, 0, 55, 76
1, 477067, Note_on_c, 0, 46, 69
1, 477078, Note_off_c, 0, 49, 63
1, 477105, Note_off_c, 0, 58, 57
1, 477138, Note_on_c, 0, 43, 63
1, 477141, Note_off_c, 0, 46, 64
1, 477160, Note_off_c, 0, 55, 60
1, 477161, Note_on_c, 0, 52, 79
1, 477170, Note_off_c, 0, 43, 64
1, 477251, Note_off_c, 0, 52, 57
1, 477296, Control_c, 0, 64, 119
1, 477302, Note_on_c, 0, 38, 92
1, 477302, Note_on_c, 0, 64, 93
1, 477311, Control_c, 0, 64, 64
1, 477325, Control_c, 0, 64, 0
1, 477383, Note_on_c, 0, 61, 2
1, 477385, Control_c, 0, 64, 59
1, 477400, Control_c, 0, 64, 71
1, 477415, Control_c, 0, 64, 90
1, 477426, Note_off_c, 0, 61, 25
1, 477430, Control_c, 0, 64, 127
1, 477454, Note_off_c, 0, 38, 57
1, 477474, Note_on_c, 0, 61, 73
1, 477495, Note_off_c, 0, 64, 61
1, 477573, Note_on_c, 0, 58, 76
1, 477581, Note_off_c, 0, 61, 59
1, 477635, Note_on_c, 0, 55, 65
1, 477659, Note_off_c, 0, 58, 60
1, 477677, Note_off_c, 0, 55, 62
1, 477708, Note_on_c, 0, 52, 69
1, 477777, Note_on_c, 0, 49, 75
1, 477778, Note_off_c, 0, 52, 65
1, 477835, Note_on_c, 0, 46, 77
1, 477839, Note_off_c, 0, 49, 63
1, 477897, Note_on_c, 0, 49, 82
1, 477910, Note_off_c, 0, 46, 64
1, 477969, Note_on_c, 0, 52, 81
1, 477980, Note_off_c, 0, 49, 64
1, 477987, Note_on_c, 0, 55, 76
1, 478054, Note_on_c, 0, 58, 78
1, 478056, Note_off_c, 0, 55, 63
1, 478115, Note_on_c, 0, 61, 79
1, 478127, Note_off_c, 0, 58, 65
1, 478151, Note_off_c, 0, 61, 64
1, 478197, Note_on_c, 0, 64, 79
1, 478266, Note_on_c, 0, 67, 77
1, 478266, Note_off_c, 0, 64, 63
1, 478324, Note_on_c, 0, 70, 79
1, 478344, Note_off_c, 0, 67, 60
1, 478379, Note_on_c, 0, 73, 84
1, 478393, Note_off_c, 0, 70, 67
1, 478408, Note_off_c, 0, 73, 64
1, 478458, Note_on_c, 0, 76, 83
1, 478509, Note_on_c, 0, 79, 83
1, 478515, Note_off_c, 0, 76, 64
1, 478567, Note_on_c, 0, 82, 84
1, 478591, Note_off_c, 0, 79, 64
1, 478620, Note_on_c, 0, 85, 87
1, 478633, Note_off_c, 0, 82, 67
1, 478652, Note_off_c, 0, 85, 64
1, 478695, Note_on_c, 0, 88, 88
1, 478748, Note_on_c, 0, 91, 86
1, 478753, Note_off_c, 0, 88, 64
1, 478813, Note_on_c, 0, 94, 84
1, 478824, Note_off_c, 0, 91, 62
1, 478872, Note_on_c, 0, 97, 85
1, 478890, Note_off_c, 0, 94, 64
1, 478916, Note_off_c, 0, 97, 65
1, 478956, Note_on_c, 0, 100, 112
1, 479001, Note_off_c, 0, 100, 70
1, 479040, Note_off_c, 0, 52, 43
1, 479703, Note_on_c, 0, 49, 87
1, 479704, Note_on_c, 0, 61, 90
1, 479758, Control_c, 0, 64, 92
1, 479773, Control_c, 0, 64, 65
1, 479787, Control_c, 0, 64, 16
1, 479802, Control_c, 0, 64, 0
1, 479861, Control_c, 0, 64, 30
1, 479876, Control_c, 0, 64, 56
1, 479891, Control_c, 0, 64, 64
1, 479906, Control_c, 0, 64, 73
1, 479920, Control_c, 0, 64, 88
1, 479935, Control_c, 0, 64, 127
1, 480199, Note_off_c, 0, 61, 35
1, 480266, Note_off_c, 0, 49, 30
1, 480415, Note_on_c, 0, 50, 91
1, 480415, Note_on_c, 0, 62, 88
1, 480507, Control_c, 0, 64, 92
1, 480522, Control_c, 0, 64, 71
1, 480536, Control_c, 0, 64, 60
1, 480551, Control_c, 0, 64, 42
1, 480566, Control_c, 0, 64, 31
1, 480581, Control_c, 0, 64, 18
1, 480596, Control_c, 0, 64, 0
1, 480640, Control_c, 0, 64, 14
1, 480655, Control_c, 0, 64, 36
1, 480670, Control_c, 0, 64, 51
1, 480685, Control_c, 0, 64, 58
1, 480700, Control_c, 0, 64, 62
1, 480715, Control_c, 0, 64, 64
1, 480730, Control_c, 0, 64, 67
1, 480744, Control_c, 0, 64, 72
1, 480759, Control_c, 0, 64, 78
1, 480774, Control_c, 0, 64, 86
1, 480789, Control_c, 0, 64, 95
1, 480804, Control_c, 0, 64, 106
1, 480818, Control_c, 0, 64, 127
1, 481171, Note_off_c, 0, 50, 29
1, 481193, Note_off_c, 0, 62, 32
1, 481306, Note_on_c, 0, 58, 77
1, 481308, Note_on_c, 0, 62, 80
1, 481309, Note_on_c, 0, 43, 72
1, 481310, Note_on_c, 0, 31, 68
1, 481311, Note_on_c, 0, 50, 77
1, 481419, Control_c, 0, 64, 110
1, 481433, Control_c, 0, 64, 82
1, 481448, Control_c, 0, 64, 67
1, 481463, Control_c, 0, 64, 58
1, 481478, Control_c, 0, 64, 51
1, 481493, Control_c, 0, 64, 51
1, 481523, Control_c, 0, 64, 52
1, 481537, Control_c, 0, 64, 54
1, 481552, Control_c, 0, 64, 57
1, 481567, Control_c, 0, 64, 60
1, 481582, Control_c, 0, 64, 63
1, 481596, Control_c, 0, 64, 66
1, 481611, Control_c, 0, 64, 70
1, 481626, Control_c, 0, 64, 75
1, 481640, Control_c, 0, 64, 81
1, 481655, Control_c, 0, 64, 90
1, 481670, Control_c, 0, 64, 107
1, 481685, Control_c, 0, 64, 127
1, 481768, Note_off_c, 0, 43, 34
1, 481795, Note_off_c, 0, 31, 35
1, 481892, Note_off_c, 0, 58, 28
1, 481988, Note_off_c, 0, 62, 31
1, 481996, Note_off_c, 0, 50, 28
1, 482283, Note_on_c, 0, 62, 72
1, 482283, Note_on_c, 0, 50, 67
1, 482289, Note_on_c, 0, 57, 64
1, 482290, Note_on_c, 0, 41, 62
1, 482295, Note_on_c, 0, 29, 57
1, 482375, Control_c, 0, 64, 117
1, 482389, Control_c, 0, 64, 82
1, 482404, Control_c, 0, 64, 65
1, 482419, Control_c, 0, 64, 56
1, 482434, Control_c, 0, 64, 52
1, 482449, Control_c, 0, 64, 52
1, 482463, Control_c, 0, 64, 51
1, 482478, Control_c, 0, 64, 52
1, 482493, Control_c, 0, 64, 53
1, 482507, Control_c, 0, 64, 56
1, 482522, Control_c, 0, 64, 59
1, 482537, Control_c, 0, 64, 62
1, 482552, Control_c, 0, 64, 64
1, 482567, Control_c, 0, 64, 66
1, 482581, Control_c, 0, 64, 68
1, 482596, Control_c, 0, 64, 73
1, 482611, Control_c, 0, 64, 78
1, 482626, Control_c, 0, 64, 85
1, 482641, Control_c, 0, 64, 92
1, 482655, Control_c, 0, 64, 100
1, 482670, Control_c, 0, 64, 112
1, 482685, Control_c, 0, 64, 127
1, 482819, Note_off_c, 0, 41, 39
1, 482829, Note_off_c, 0, 29, 39
1, 482914, Note_off_c, 0, 57, 37
1, 483002, Note_off_c, 0, 50, 30
1, 483088, Note_off_c, 0, 62, 35
1, 483418, Note_on_c, 0, 62, 58
1, 483421, Note_on_c, 0, 55, 56
1, 483424, Note_on_c, 0, 50, 53
1, 483434, Note_on_c, 0, 40, 50
1, 483436, Note_on_c, 0, 28, 48
1, 483547, Control_c, 0, 64, 109
1, 483561, Control_c, 0, 64, 86
1, 483576, Control_c, 0, 64, 74
1, 483591, Control_c, 0, 64, 67
1, 483606, Control_c, 0, 64, 63
1, 483621, Control_c, 0, 64, 60
1, 483635, Control_c, 0, 64, 57
1, 483650, Control_c, 0, 64, 54
1, 483665, Control_c, 0, 64, 52
1, 483680, Control_c, 0, 64, 50
1, 483695, Control_c, 0, 64, 49
1, 483739, Control_c, 0, 64, 50
1, 483753, Control_c, 0, 64, 52
1, 483768, Control_c, 0, 64, 54
1, 483783, Control_c, 0, 64, 57
1, 483798, Control_c, 0, 64, 60
1, 483813, Control_c, 0, 64, 62
1, 483827, Control_c, 0, 64, 63
1, 483842, Control_c, 0, 64, 64
1, 483857, Control_c, 0, 64, 66
1, 483872, Control_c, 0, 64, 67
1, 483886, Control_c, 0, 64, 70
1, 483901, Control_c, 0, 64, 73
1, 483916, Control_c, 0, 64, 77
1, 483931, Control_c, 0, 64, 82
1, 483946, Control_c, 0, 64, 87
1, 483960, Control_c, 0, 64, 94
1, 483975, Control_c, 0, 64, 103
1, 483990, Control_c, 0, 64, 127
1, 484128, Note_off_c, 0, 50, 39
1, 484176, Note_off_c, 0, 62, 32
1, 484199, Note_off_c, 0, 55, 27
1, 484242, Note_off_c, 0, 40, 36
1, 484347, Note_off_c, 0, 28, 32
1, 485042, Note_on_c, 0, 26, 35
1, 485056, Note_on_c, 0, 38, 34
1, 485102, Control_c, 0, 64, 89
1, 485108, Note_on_c, 0, 53, 51
1, 485116, Control_c, 0, 64, 71
1, 485132, Control_c, 0, 64, 64
1, 485147, Control_c, 0, 64, 62
1, 485177, Control_c, 0, 64, 63
1, 485192, Control_c, 0, 64, 65
1, 485206, Control_c, 0, 64, 69
1, 485221, Control_c, 0, 64, 76
1, 485236, Control_c, 0, 64, 87
1, 485238, Note_on_c, 0, 62, 58
1, 485251, Control_c, 0, 64, 102
1, 485266, Control_c, 0, 64, 127
1, 485302, Note_off_c, 0, 53, 52
1, 485370, Note_on_c, 0, 69, 67
1, 485425, Note_off_c, 0, 62, 57
1, 485890, Note_off_c, 0, 69, 28
1, 486680, Note_off_c, 0, 38, 18
1, 486909, Note_off_c, 0, 26, 29
1, 487995, Note_on_c, 0, 65, 54
1, 487997, Note_on_c, 0, 57, 44
1, 487998, Note_on_c, 0, 53, 44
1, 488014, Note_on_c, 0, 26, 35
1, 488017, Note_on_c, 0, 38, 36
1, 488027, Note_on_c, 0, 62, 36
1, 489340, Note_off_c, 0, 65, 39
1, 489401, Note_off_c, 0, 57, 29
1, 489417, Note_off_c, 0, 62, 27
1, 489438, Note_off_c, 0, 53, 38
1, 489699, Note_off_c, 0, 38, 17
1, 489755, Note_off_c, 0, 26, 25
1, 491552, Note_on_c, 0, 57, 39
1, 491559, Note_on_c, 0, 26, 36
1, 491559, Note_on_c, 0, 38, 30
1, 491564, Note_on_c, 0, 53, 40
1, 491565, Note_on_c, 0, 62, 43
1, 494548, Note_off_c, 0, 53, 35
1, 494630, Note_off_c, 0, 26, 38
1, 494662, Note_off_c, 0, 57, 31
1, 494754, Note_off_c, 0, 38, 39
1, 494800, Note_off_c, 0, 62, 36
1, 496571, Control_c, 0, 64, 122
1, 496585, Control_c, 0, 64, 109
1, 496600, Control_c, 0, 64, 102
1, 496615, Control_c, 0, 64, 97
1, 496630, Control_c, 0, 64, 93
1, 496645, Control_c, 0, 64, 91
1, 496660, Control_c, 0, 64, 87
1, 496674, Control_c, 0, 64, 83
1, 496689, Control_c, 0, 64, 79
1, 496704, Control_c, 0, 64, 75
1, 496719, Control_c, 0, 64, 72
1, 496734, Control_c, 0, 64, 70
1, 496749, Control_c, 0, 64, 68
1, 496764, Control_c, 0, 64, 66
1, 496778, Control_c, 0, 64, 64
1, 496793, Control_c, 0, 64, 61
1, 496808, Control_c, 0, 64, 60
1, 496823, Control_c, 0, 64, 59
1, 496837, Control_c, 0, 64, 58
1, 496852, Control_c, 0, 64, 56
1, 496867, Control_c, 0, 64, 54
1, 496882, Control_c, 0, 64, 52
1, 496897, Control_c, 0, 64, 49
1, 496911, Control_c, 0, 64, 46
1, 496926, Control_c, 0, 64, 41
1, 496941, Control_c, 0, 64, 35
1, 496964, Control_c, 0, 64, 24
1, 496979, Control_c, 0, 64, 0
1, 497054, End_track
0, 0, End_of_file
