0, 0, Header, 0, 1, 384
1, 0, Start_track
1, 0, Title_t, "ProkofievSonataNo3Op28--Zhou    "
1, 0, Text_t, "2011 ePiano Junior Competition"
1, 0, Text_t, "captured in spring and summer 2011"
1, 0, Text_t, "http://www.piano-e-competition.com/"
1, 0, Text_t, "standard-resolution version"
1, 0, Text_t, "File processed for distribution with software designed and coded by Dr. John Q. Walker, founder of Zenph Sound Innovations"
1, 0, Instrument_name_t, "Yamaha Disklavier Pro Mark IV concert grand piano, model DCFIIISM4PRO"
1, 0, Sequencer_specific, 39, 67, 113, 0, 1, 0, 1, 0, 80, 114, 111, 107, 111, 102, 105, 101, 118, 78, 111, 51, 79, 112, 50, 56, 65, 110, 110, 105, 101, 32, 90, 104, 111, 117, 32, 32, 32, 32, 32, 32
1, 0, Sequencer_specific, 6, 67, 113, 0, 0, 0, 69
1, 0, System_exclusive, 21, 67, 113, 126, 21, 0, 2, 2, 2, 5, 12, 8, 4, 14, 1, 3, 5, 3, 4, 4, 0, 247
1, 0, Sequencer_specific, 5, 67, 123, 12, 2, 1
1, 0, Tempo, 512820
1, 0, Time_signature, 4, 2, 24, 8
1, 0, System_exclusive, 5, 126, 127, 9, 1, 247
1, 1, System_exclusive, 8, 67, 16, 76, 0, 0, 126, 0, 247
1, 2, System_exclusive, 8, 67, 16, 76, 8, 9, 7, 1, 247
1, 3, Control_c, 0, 0, 108
1, 3, Control_c, 1, 0, 108
1, 3, Control_c, 2, 0, 0
1, 3, Control_c, 3, 0, 0
1, 3, Control_c, 4, 0, 0
1, 3, Control_c, 5, 0, 0
1, 3, Control_c, 6, 0, 0
1, 3, Control_c, 7, 0, 0
1, 3, Control_c, 8, 0, 0
1, 3, Control_c, 9, 0, 127
1, 3, Control_c, 10, 0, 0
1, 3, Control_c, 11, 0, 0
1, 3, Control_c, 12, 0, 0
1, 3, Control_c, 13, 0, 0
1, 3, Control_c, 14, 0, 0
1, 3, Control_c, 15, 0, 0
1, 4, Control_c, 0, 32, 0
1, 4, Control_c, 1, 32, 0
1, 4, Control_c, 2, 32, 0
1, 4, Control_c, 3, 32, 0
1, 4, Control_c, 4, 32, 0
1, 4, Control_c, 5, 32, 0
1, 4, Control_c, 6, 32, 0
1, 4, Control_c, 7, 32, 0
1, 4, Control_c, 8, 32, 0
1, 4, Control_c, 9, 32, 0
1, 4, Control_c, 10, 32, 0
1, 4, Control_c, 11, 32, 0
1, 4, Control_c, 12, 32, 0
1, 4, Control_c, 13, 32, 0
1, 4, Control_c, 14, 32, 0
1, 4, Control_c, 15, 32, 0
1, 5, Program_c, 0, 0
1, 5, Program_c, 1, 0
1, 5, Program_c, 2, 0
1, 5, Program_c, 3, 0
1, 5, Program_c, 4, 0
1, 5, Program_c, 5, 0
1, 5, Program_c, 6, 0
1, 5, Program_c, 7, 0
1, 5, Program_c, 8, 0
1, 5, Program_c, 9, 0
1, 5, Program_c, 10, 0
1, 5, Program_c, 11, 0
1, 5, Program_c, 12, 0
1, 5, Program_c, 13, 0
1, 5, Program_c, 14, 0
1, 5, Program_c, 15, 0
1, 6, Control_c, 0, 7, 100
1, 6, Control_c, 1, 7, 100
1, 6, Control_c, 2, 7, 100
1, 6, Control_c, 3, 7, 100
1, 6, Control_c, 4, 7, 100
1, 6, Control_c, 5, 7, 100
1, 6, Control_c, 6, 7, 100
1, 6, Control_c, 7, 7, 100
1, 6, Control_c, 8, 7, 100
1, 6, Control_c, 9, 7, 100
1, 6, Control_c, 10, 7, 100
1, 6, Control_c, 11, 7, 100
1, 6, Control_c, 12, 7, 100
1, 6, Control_c, 13, 7, 100
1, 6, Control_c, 14, 7, 100
1, 6, Control_c, 15, 7, 100
1, 384, Note_on_c, 0, 35, 51
1, 414, Note_on_c, 0, 37, 65
1, 438, Note_off_c, 0, 35, 58
1, 450, Note_on_c, 0, 39, 67
1, 458, Control_c, 0, 64, 45
1, 473, Control_c, 0, 64, 63
1, 479, Note_off_c, 0, 37, 63
1, 487, Note_on_c, 0, 52, 95
1, 488, Control_c, 0, 64, 74
1, 493, Note_on_c, 0, 40, 93
1, 503, Control_c, 0, 64, 100
1, 517, Control_c, 0, 64, 127
1, 520, Note_off_c, 0, 39, 62
1, 524, Note_on_c, 0, 59, 49
1, 525, Note_off_c, 0, 40, 66
1, 526, Note_off_c, 0, 52, 67
1, 568, Note_off_c, 0, 59, 47
1, 588, Note_on_c, 0, 40, 88
1, 633, Note_off_c, 0, 40, 59
1, 672, Note_on_c, 0, 59, 64
1, 685, Note_on_c, 0, 52, 50
1, 694, Note_on_c, 0, 56, 46
1, 695, Control_c, 0, 64, 115
1, 705, Note_off_c, 0, 59, 65
1, 706, Note_off_c, 0, 52, 64
1, 710, Control_c, 0, 64, 101
1, 725, Control_c, 0, 64, 97
1, 726, Note_off_c, 0, 56, 53
1, 740, Control_c, 0, 64, 95
1, 756, Control_c, 0, 64, 94
1, 762, Note_on_c, 0, 59, 68
1, 771, Control_c, 0, 64, 92
1, 776, Note_on_c, 0, 52, 58
1, 785, Control_c, 0, 64, 88
1, 793, Note_on_c, 0, 56, 37
1, 794, Note_off_c, 0, 52, 66
1, 797, Note_off_c, 0, 59, 60
1, 800, Control_c, 0, 64, 83
1, 815, Control_c, 0, 64, 79
1, 826, Note_off_c, 0, 56, 51
1, 830, Control_c, 0, 64, 77
1, 866, Note_on_c, 0, 52, 70
1, 874, Control_c, 0, 64, 76
1, 896, Note_off_c, 0, 52, 68
1, 911, Control_c, 0, 64, 76
1, 926, Control_c, 0, 64, 75
1, 941, Control_c, 0, 64, 75
1, 950, Note_on_c, 0, 58, 75
1, 955, Control_c, 0, 64, 74
1, 968, Note_on_c, 0, 64, 61
1, 973, Note_on_c, 0, 56, 42
1, 978, Note_off_c, 0, 58, 67
1, 985, Control_c, 0, 64, 74
1, 988, Note_off_c, 0, 64, 62
1, 1004, Note_off_c, 0, 56, 49
1, 1014, Control_c, 0, 64, 73
1, 1044, Note_on_c, 0, 64, 79
1, 1055, Note_on_c, 0, 56, 61
1, 1057, Note_on_c, 0, 59, 64
1, 1059, Control_c, 0, 64, 74
1, 1074, Note_off_c, 0, 56, 65
1, 1076, Note_off_c, 0, 64, 59
1, 1081, Note_off_c, 0, 59, 64
1, 1134, Note_on_c, 0, 56, 84
1, 1157, Note_off_c, 0, 56, 71
1, 1228, Note_on_c, 0, 60, 49
1, 1231, Note_on_c, 0, 52, 59
1, 1240, Note_on_c, 0, 59, 40
1, 1253, Note_off_c, 0, 60, 58
1, 1254, Note_off_c, 0, 52, 64
1, 1255, Note_on_c, 0, 56, 31
1, 1265, Control_c, 0, 64, 74
1, 1268, Note_off_c, 0, 59, 53
1, 1281, Note_off_c, 0, 56, 54
1, 1313, Note_on_c, 0, 59, 67
1, 1317, Note_on_c, 0, 52, 72
1, 1335, Note_on_c, 0, 56, 37
1, 1335, Note_off_c, 0, 52, 67
1, 1340, Control_c, 0, 64, 75
1, 1343, Note_off_c, 0, 59, 63
1, 1364, Note_off_c, 0, 56, 51
1, 1400, Note_on_c, 0, 52, 76
1, 1427, Note_off_c, 0, 52, 69
1, 1492, Note_on_c, 0, 64, 71
1, 1494, Note_on_c, 0, 56, 66
1, 1494, Note_on_c, 0, 59, 69
1, 1519, Note_off_c, 0, 59, 67
1, 1522, Note_off_c, 0, 56, 66
1, 1522, Note_off_c, 0, 64, 65
1, 1532, Control_c, 0, 64, 74
1, 1578, Note_on_c, 0, 59, 76
1, 1581, Note_on_c, 0, 56, 83
1, 1581, Note_on_c, 0, 64, 74
1, 1608, Note_off_c, 0, 56, 65
1, 1613, Note_off_c, 0, 59, 65
1, 1614, Note_off_c, 0, 64, 63
1, 1674, Control_c, 0, 64, 75
1, 1682, Note_on_c, 0, 56, 81
1, 1706, Note_off_c, 0, 56, 71
1, 1774, Note_on_c, 0, 59, 72
1, 1777, Note_on_c, 0, 56, 65
1, 1777, Control_c, 0, 64, 75
1, 1781, Note_on_c, 0, 52, 66
1, 1806, Note_off_c, 0, 59, 60
1, 1810, Note_off_c, 0, 52, 67
1, 1810, Note_off_c, 0, 56, 65
1, 1859, Note_on_c, 0, 59, 67
1, 1861, Note_on_c, 0, 52, 69
1, 1870, Note_on_c, 0, 56, 63
1, 1886, Note_off_c, 0, 52, 67
1, 1897, Note_off_c, 0, 59, 63
1, 1902, Note_off_c, 0, 56, 65
1, 1925, Control_c, 0, 64, 76
1, 1956, Note_on_c, 0, 52, 76
1, 1990, Note_off_c, 0, 52, 66
1, 2052, Note_on_c, 0, 64, 74
1, 2053, Note_on_c, 0, 56, 75
1, 2068, Note_on_c, 0, 59, 50
1, 2079, Note_off_c, 0, 56, 67
1, 2080, Note_on_c, 0, 60, 26
1, 2082, Note_off_c, 0, 64, 64
1, 2085, Note_off_c, 0, 59, 65
1, 2088, Control_c, 0, 64, 76
1, 2113, Note_off_c, 0, 60, 50
1, 2118, Control_c, 0, 64, 76
1, 2132, Note_on_c, 0, 56, 84
1, 2132, Control_c, 0, 64, 76
1, 2137, Note_on_c, 0, 64, 75
1, 2139, Note_on_c, 0, 59, 76
1, 2168, Note_off_c, 0, 59, 67
1, 2172, Note_off_c, 0, 64, 60
1, 2181, Note_off_c, 0, 56, 62
1, 2206, Control_c, 0, 64, 77
1, 2236, Note_on_c, 0, 56, 71
1, 2264, Note_off_c, 0, 56, 64
1, 2295, Control_c, 0, 64, 77
1, 2331, Note_on_c, 0, 59, 74
1, 2333, Note_on_c, 0, 52, 75
1, 2333, Note_on_c, 0, 56, 70
1, 2339, Control_c, 0, 64, 78
1, 2359, Note_off_c, 0, 56, 69
1, 2365, Note_off_c, 0, 52, 65
1, 2367, Note_off_c, 0, 59, 65
1, 2431, Note_on_c, 0, 59, 68
1, 2434, Note_on_c, 0, 52, 71
1, 2437, Note_on_c, 0, 56, 67
1, 2449, Note_off_c, 0, 52, 67
1, 2464, Note_off_c, 0, 56, 70
1, 2470, Note_off_c, 0, 59, 52
1, 2509, Note_on_c, 0, 52, 74
1, 2538, Note_off_c, 0, 52, 68
1, 2571, Control_c, 0, 64, 78
1, 2585, Control_c, 0, 64, 79
1, 2600, Control_c, 0, 64, 81
1, 2615, Note_on_c, 0, 56, 69
1, 2615, Control_c, 0, 64, 83
1, 2620, Note_on_c, 0, 64, 81
1, 2623, Note_on_c, 0, 59, 61
1, 2629, Control_c, 0, 64, 85
1, 2642, Note_off_c, 0, 64, 71
1, 2643, Note_off_c, 0, 59, 61
1, 2644, Control_c, 0, 64, 86
1, 2645, Note_off_c, 0, 56, 66
1, 2674, Control_c, 0, 64, 85
1, 2689, Control_c, 0, 64, 78
1, 2703, Control_c, 0, 64, 66
1, 2718, Control_c, 0, 64, 42
1, 2725, Note_on_c, 0, 65, 94
1, 2733, Control_c, 0, 64, 0
1, 2792, Control_c, 0, 64, 41
1, 2807, Control_c, 0, 64, 58
1, 2822, Control_c, 0, 64, 63
1, 2836, Control_c, 0, 64, 66
1, 2851, Control_c, 0, 64, 70
1, 2854, Note_on_c, 0, 52, 57
1, 2863, Note_on_c, 0, 50, 25
1, 2866, Control_c, 0, 64, 76
1, 2876, Note_off_c, 0, 65, 60
1, 2881, Control_c, 0, 64, 84
1, 2896, Control_c, 0, 64, 89
1, 2902, Note_off_c, 0, 50, 53
1, 2905, Note_off_c, 0, 52, 56
1, 2911, Control_c, 0, 64, 90
1, 2935, Note_on_c, 0, 64, 65
1, 2955, Control_c, 0, 64, 91
1, 2970, Control_c, 0, 64, 91
1, 2985, Control_c, 0, 64, 92
1, 3000, Control_c, 0, 64, 93
1, 3021, Note_off_c, 0, 64, 62
1, 3030, Note_on_c, 0, 63, 70
1, 3044, Control_c, 0, 64, 93
1, 3089, Control_c, 0, 64, 92
1, 3103, Control_c, 0, 64, 92
1, 3111, Note_off_c, 0, 63, 63
1, 3124, Note_on_c, 0, 62, 69
1, 3133, Control_c, 0, 64, 91
1, 3171, Control_c, 0, 64, 91
1, 3220, Note_off_c, 0, 62, 62
1, 3226, Note_on_c, 0, 61, 74
1, 3230, Control_c, 0, 64, 91
1, 3257, Note_off_c, 0, 61, 63
1, 3274, Control_c, 0, 64, 88
1, 3289, Control_c, 0, 64, 75
1, 3304, Control_c, 0, 64, 58
1, 3319, Control_c, 0, 64, 0
1, 3320, Note_on_c, 0, 69, 98
1, 3363, Control_c, 0, 64, 29
1, 3377, Control_c, 0, 64, 55
1, 3392, Control_c, 0, 64, 63
1, 3407, Control_c, 0, 64, 66
1, 3414, Note_on_c, 0, 52, 70
1, 3422, Control_c, 0, 64, 70
1, 3428, Note_off_c, 0, 69, 62
1, 3437, Control_c, 0, 64, 75
1, 3445, Note_off_c, 0, 52, 69
1, 3451, Control_c, 0, 64, 80
1, 3466, Control_c, 0, 64, 84
1, 3481, Control_c, 0, 64, 86
1, 3525, Control_c, 0, 64, 86
1, 3527, Note_on_c, 0, 68, 76
1, 3540, Control_c, 0, 64, 87
1, 3555, Control_c, 0, 64, 87
1, 3595, Note_off_c, 0, 68, 62
1, 3619, Note_on_c, 0, 67, 75
1, 3629, Control_c, 0, 64, 87
1, 3691, Note_off_c, 0, 67, 62
1, 3700, Note_on_c, 0, 66, 66
1, 3704, Control_c, 0, 64, 86
1, 3763, Control_c, 0, 64, 87
1, 3763, Note_on_c, 0, 65, 76
1, 3765, Note_off_c, 0, 66, 62
1, 3777, Control_c, 0, 64, 87
1, 3788, Note_off_c, 0, 65, 69
1, 3792, Control_c, 0, 64, 88
1, 3807, Control_c, 0, 64, 88
1, 3818, Note_on_c, 0, 74, 82
1, 3822, Control_c, 0, 64, 88
1, 3837, Control_c, 0, 64, 79
1, 3851, Control_c, 0, 64, 63
1, 3866, Control_c, 0, 64, 0
1, 3867, Note_off_c, 0, 74, 62
1, 3889, Note_on_c, 0, 77, 101
1, 3892, Note_on_c, 0, 65, 90
1, 3933, Control_c, 0, 64, 34
1, 3948, Control_c, 0, 64, 57
1, 3963, Control_c, 0, 64, 63
1, 3978, Control_c, 0, 64, 65
1, 3992, Note_on_c, 0, 50, 64
1, 3993, Control_c, 0, 64, 68
1, 4008, Control_c, 0, 64, 72
1, 4023, Control_c, 0, 64, 76
1, 4034, Note_off_c, 0, 65, 57
1, 4038, Note_off_c, 0, 77, 61
1, 4038, Control_c, 0, 64, 80
1, 4040, Note_off_c, 0, 50, 64
1, 4053, Control_c, 0, 64, 83
1, 4068, Control_c, 0, 64, 84
1, 4082, Control_c, 0, 64, 85
1, 4085, Note_on_c, 0, 64, 65
1, 4097, Control_c, 0, 64, 86
1, 4112, Control_c, 0, 64, 86
1, 4181, Note_on_c, 0, 63, 71
1, 4181, Note_off_c, 0, 64, 63
1, 4258, Note_off_c, 0, 63, 61
1, 4278, Note_on_c, 0, 62, 69
1, 4305, Control_c, 0, 64, 87
1, 4320, Control_c, 0, 64, 87
1, 4335, Control_c, 0, 64, 88
1, 4349, Control_c, 0, 64, 90
1, 4360, Note_off_c, 0, 62, 64
1, 4362, Note_on_c, 0, 61, 75
1, 4364, Control_c, 0, 64, 94
1, 4379, Control_c, 0, 64, 98
1, 4394, Control_c, 0, 64, 102
1, 4395, Note_off_c, 0, 61, 63
1, 4408, Control_c, 0, 64, 106
1, 4423, Control_c, 0, 64, 106
1, 4438, Control_c, 0, 64, 88
1, 4453, Control_c, 0, 64, 63
1, 4455, Note_on_c, 0, 76, 94
1, 4460, Note_on_c, 0, 65, 85
1, 4468, Control_c, 0, 64, 0
1, 4497, Control_c, 0, 64, 46
1, 4506, Note_off_c, 0, 65, 62
1, 4512, Control_c, 0, 64, 59
1, 4515, Note_off_c, 0, 76, 65
1, 4527, Control_c, 0, 64, 66
1, 4542, Control_c, 0, 64, 74
1, 4545, Note_on_c, 0, 50, 77
1, 4556, Control_c, 0, 64, 94
1, 4571, Control_c, 0, 64, 127
1, 4577, Note_off_c, 0, 50, 67
1, 4682, Note_on_c, 0, 68, 72
1, 4714, Note_on_c, 0, 65, 55
1, 4746, Note_off_c, 0, 65, 58
1, 4746, Note_off_c, 0, 68, 63
1, 4755, Note_on_c, 0, 67, 61
1, 4760, Note_on_c, 0, 81, 93
1, 4771, Note_on_c, 0, 74, 56
1, 4789, Note_off_c, 0, 74, 61
1, 4799, Note_off_c, 0, 81, 69
1, 4808, Note_off_c, 0, 67, 60
1, 4842, Note_on_c, 0, 66, 62
1, 4920, Note_on_c, 0, 65, 69
1, 4946, Note_off_c, 0, 66, 57
1, 4947, Note_off_c, 0, 65, 67
1, 5010, Control_c, 0, 64, 105
1, 5024, Control_c, 0, 64, 70
1, 5039, Note_on_c, 0, 72, 88
1, 5039, Control_c, 0, 64, 46
1, 5042, Note_on_c, 0, 65, 74
1, 5045, Note_on_c, 0, 60, 82
1, 5054, Control_c, 0, 64, 0
1, 5084, Control_c, 0, 64, 39
1, 5098, Control_c, 0, 64, 57
1, 5113, Control_c, 0, 64, 65
1, 5128, Control_c, 0, 64, 69
1, 5129, Note_off_c, 0, 60, 63
1, 5133, Note_on_c, 0, 50, 66
1, 5143, Control_c, 0, 64, 74
1, 5158, Control_c, 0, 64, 78
1, 5173, Control_c, 0, 64, 82
1, 5174, Note_off_c, 0, 50, 63
1, 5187, Control_c, 0, 64, 85
1, 5202, Control_c, 0, 64, 89
1, 5217, Control_c, 0, 64, 92
1, 5231, Control_c, 0, 64, 94
1, 5244, Note_on_c, 0, 64, 57
1, 5246, Control_c, 0, 64, 95
1, 5261, Control_c, 0, 64, 96
1, 5265, Note_off_c, 0, 64, 63
1, 5276, Control_c, 0, 64, 93
1, 5291, Control_c, 0, 64, 81
1, 5305, Control_c, 0, 64, 67
1, 5320, Control_c, 0, 64, 54
1, 5324, Note_on_c, 0, 62, 68
1, 5335, Control_c, 0, 64, 50
1, 5349, Control_c, 0, 64, 57
1, 5364, Control_c, 0, 64, 61
1, 5379, Control_c, 0, 64, 65
1, 5402, Note_off_c, 0, 62, 61
1, 5402, Control_c, 0, 64, 69
1, 5414, Note_off_c, 0, 65, 58
1, 5417, Control_c, 0, 64, 73
1, 5421, Note_on_c, 0, 50, 60
1, 5431, Control_c, 0, 64, 77
1, 5440, Note_off_c, 0, 72, 57
1, 5446, Control_c, 0, 64, 79
1, 5461, Control_c, 0, 64, 79
1, 5472, Note_off_c, 0, 50, 60
1, 5476, Control_c, 0, 64, 81
1, 5491, Control_c, 0, 64, 84
1, 5505, Control_c, 0, 64, 88
1, 5520, Control_c, 0, 64, 94
1, 5528, Note_on_c, 0, 60, 53
1, 5535, Control_c, 0, 64, 98
1, 5549, Note_off_c, 0, 60, 61
1, 5550, Control_c, 0, 64, 99
1, 5566, Control_c, 0, 64, 94
1, 5581, Control_c, 0, 64, 78
1, 5596, Control_c, 0, 64, 64
1, 5610, Control_c, 0, 64, 51
1, 5615, Note_on_c, 0, 71, 84
1, 5618, Note_on_c, 0, 65, 63
1, 5625, Note_on_c, 0, 59, 70
1, 5625, Control_c, 0, 64, 55
1, 5640, Control_c, 0, 64, 61
1, 5654, Control_c, 0, 64, 65
1, 5657, Note_off_c, 0, 65, 63
1, 5667, Note_off_c, 0, 59, 59
1, 5669, Control_c, 0, 64, 69
1, 5684, Control_c, 0, 64, 75
1, 5699, Control_c, 0, 64, 81
1, 5708, Note_on_c, 0, 50, 56
1, 5708, Note_off_c, 0, 71, 56
1, 5714, Control_c, 0, 64, 84
1, 5728, Control_c, 0, 64, 85
1, 5758, Control_c, 0, 64, 85
1, 5765, Note_off_c, 0, 50, 58
1, 5773, Control_c, 0, 64, 87
1, 5788, Control_c, 0, 64, 90
1, 5802, Control_c, 0, 64, 94
1, 5808, Note_on_c, 0, 57, 64
1, 5817, Control_c, 0, 64, 92
1, 5832, Control_c, 0, 64, 81
1, 5841, Note_off_c, 0, 57, 65
1, 5847, Control_c, 0, 64, 66
1, 5862, Control_c, 0, 64, 51
1, 5877, Control_c, 0, 64, 55
1, 5886, Note_on_c, 0, 55, 79
1, 5892, Control_c, 0, 64, 62
1, 5907, Control_c, 0, 64, 66
1, 5914, Note_off_c, 0, 55, 67
1, 5922, Control_c, 0, 64, 72
1, 5936, Control_c, 0, 64, 81
1, 5951, Control_c, 0, 64, 94
1, 5966, Control_c, 0, 64, 101
1, 5988, Note_on_c, 0, 50, 59
1, 5995, Control_c, 0, 64, 99
1, 6010, Control_c, 0, 64, 99
1, 6025, Control_c, 0, 64, 98
1, 6040, Control_c, 0, 64, 97
1, 6049, Note_off_c, 0, 50, 57
1, 6054, Control_c, 0, 64, 97
1, 6068, Note_on_c, 0, 72, 86
1, 6071, Note_on_c, 0, 53, 67
1, 6084, Control_c, 0, 64, 96
1, 6099, Control_c, 0, 64, 96
1, 6102, Note_off_c, 0, 53, 65
1, 6114, Control_c, 0, 64, 94
1, 6128, Control_c, 0, 64, 90
1, 6143, Control_c, 0, 64, 81
1, 6160, Note_off_c, 0, 72, 58
1, 6166, Control_c, 0, 64, 68
1, 6170, Note_on_c, 0, 71, 86
1, 6172, Note_on_c, 0, 67, 84
1, 6180, Control_c, 0, 64, 54
1, 6195, Control_c, 0, 64, 0
1, 6240, Control_c, 0, 64, 17
1, 6254, Control_c, 0, 64, 42
1, 6269, Control_c, 0, 64, 54
1, 6284, Control_c, 0, 64, 59
1, 6286, Note_on_c, 0, 51, 73
1, 6299, Control_c, 0, 64, 62
1, 6314, Control_c, 0, 64, 64
1, 6328, Control_c, 0, 64, 68
1, 6343, Control_c, 0, 64, 73
1, 6357, Note_off_c, 0, 51, 63
1, 6359, Control_c, 0, 64, 80
1, 6369, Note_on_c, 0, 57, 82
1, 6374, Control_c, 0, 64, 86
1, 6389, Control_c, 0, 64, 91
1, 6403, Control_c, 0, 64, 96
1, 6418, Control_c, 0, 64, 99
1, 6433, Control_c, 0, 64, 99
1, 6448, Control_c, 0, 64, 100
1, 6454, Note_on_c, 0, 74, 93
1, 6459, Note_off_c, 0, 57, 64
1, 6461, Note_off_c, 0, 71, 59
1, 6462, Note_on_c, 0, 59, 81
1, 6463, Control_c, 0, 64, 102
1, 6465, Note_on_c, 0, 66, 86
1, 6469, Note_off_c, 0, 67, 65
1, 6477, Control_c, 0, 64, 107
1, 6492, Control_c, 0, 64, 116
1, 6507, Control_c, 0, 64, 123
1, 6520, Note_off_c, 0, 74, 64
1, 6538, Note_off_c, 0, 59, 62
1, 6551, Control_c, 0, 64, 121
1, 6559, Note_on_c, 0, 60, 84
1, 6566, Control_c, 0, 64, 119
1, 6601, Note_off_c, 0, 66, 61
1, 6625, Control_c, 0, 64, 121
1, 6637, Note_on_c, 0, 62, 85
1, 6640, Control_c, 0, 64, 127
1, 6645, Note_off_c, 0, 60, 64
1, 6700, Control_c, 0, 64, 110
1, 6715, Control_c, 0, 64, 76
1, 6717, Note_off_c, 0, 62, 65
1, 6720, Note_on_c, 0, 63, 86
1, 6729, Control_c, 0, 64, 56
1, 6734, Note_on_c, 0, 65, 92
1, 6735, Note_on_c, 0, 69, 91
1, 6741, Note_off_c, 0, 63, 70
1, 6744, Control_c, 0, 64, 35
1, 6759, Control_c, 0, 64, 54
1, 6774, Control_c, 0, 64, 63
1, 6789, Control_c, 0, 64, 73
1, 6803, Control_c, 0, 64, 99
1, 6811, Note_off_c, 0, 65, 60
1, 6818, Note_off_c, 0, 69, 64
1, 6818, Control_c, 0, 64, 127
1, 6829, Note_on_c, 0, 59, 93
1, 6872, Note_off_c, 0, 59, 66
1, 6926, Note_on_c, 0, 57, 81
1, 6930, Note_on_c, 0, 53, 78
1, 6976, Note_off_c, 0, 57, 65
1, 7000, Note_off_c, 0, 53, 65
1, 7001, Note_on_c, 0, 47, 84
1, 7043, Note_off_c, 0, 47, 63
1, 7076, Control_c, 0, 64, 118
1, 7091, Control_c, 0, 64, 112
1, 7106, Control_c, 0, 64, 108
1, 7108, Note_on_c, 0, 57, 71
1, 7115, Note_on_c, 0, 53, 63
1, 7121, Control_c, 0, 64, 102
1, 7136, Control_c, 0, 64, 93
1, 7152, Control_c, 0, 64, 85
1, 7163, Note_off_c, 0, 53, 56
1, 7165, Note_off_c, 0, 57, 63
1, 7167, Control_c, 0, 64, 74
1, 7181, Control_c, 0, 64, 63
1, 7196, Control_c, 0, 64, 17
1, 7209, Note_on_c, 0, 47, 60
1, 7211, Control_c, 0, 64, 0
1, 7227, Note_on_c, 0, 37, 67
1, 7233, Note_on_c, 0, 39, 67
1, 7239, Note_off_c, 0, 47, 64
1, 7258, Note_off_c, 0, 37, 63
1, 7261, Note_off_c, 0, 39, 65
1, 7299, Control_c, 0, 64, 44
1, 7305, Note_on_c, 0, 40, 101
1, 7314, Control_c, 0, 64, 62
1, 7316, Note_on_c, 0, 41, 77
1, 7329, Control_c, 0, 64, 68
1, 7335, Note_off_c, 0, 40, 67
1, 7338, Note_off_c, 0, 41, 65
1, 7344, Control_c, 0, 64, 77
1, 7359, Control_c, 0, 64, 88
1, 7373, Control_c, 0, 64, 100
1, 7388, Control_c, 0, 64, 111
1, 7392, Note_on_c, 0, 40, 82
1, 7403, Control_c, 0, 64, 113
1, 7424, Note_off_c, 0, 40, 62
1, 7433, Control_c, 0, 64, 113
1, 7448, Control_c, 0, 64, 109
1, 7463, Control_c, 0, 64, 107
1, 7478, Control_c, 0, 64, 106
1, 7480, Note_on_c, 0, 52, 81
1, 7481, Note_on_c, 0, 58, 80
1, 7493, Control_c, 0, 64, 105
1, 7501, Note_on_c, 0, 56, 59
1, 7507, Control_c, 0, 64, 104
1, 7509, Note_off_c, 0, 52, 64
1, 7522, Control_c, 0, 64, 104
1, 7530, Note_off_c, 0, 56, 65
1, 7537, Control_c, 0, 64, 102
1, 7537, Note_off_c, 0, 58, 62
1, 7552, Control_c, 0, 64, 100
1, 7567, Note_on_c, 0, 59, 54
1, 7567, Control_c, 0, 64, 99
1, 7586, Note_on_c, 0, 52, 70
1, 7595, Note_on_c, 0, 56, 57
1, 7609, Note_off_c, 0, 52, 70
1, 7618, Note_off_c, 0, 59, 63
1, 7619, Note_off_c, 0, 56, 59
1, 7663, Control_c, 0, 64, 99
1, 7673, Note_on_c, 0, 52, 87
1, 7677, Control_c, 0, 64, 97
1, 7692, Control_c, 0, 64, 97
1, 7696, Note_off_c, 0, 52, 69
1, 7707, Control_c, 0, 64, 96
1, 7737, Control_c, 0, 64, 97
1, 7754, Note_on_c, 0, 56, 68
1, 7759, Note_on_c, 0, 59, 69
1, 7761, Note_on_c, 0, 64, 77
1, 7782, Control_c, 0, 64, 96
1, 7784, Note_off_c, 0, 56, 67
1, 7784, Note_off_c, 0, 59, 69
1, 7797, Control_c, 0, 64, 95
1, 7799, Note_off_c, 0, 64, 59
1, 7812, Control_c, 0, 64, 94
1, 7826, Control_c, 0, 64, 93
1, 7841, Control_c, 0, 64, 93
1, 7842, Note_on_c, 0, 64, 73
1, 7845, Note_on_c, 0, 56, 88
1, 7849, Note_on_c, 0, 59, 78
1, 7870, Note_off_c, 0, 56, 63
1, 7878, Note_off_c, 0, 59, 66
1, 7886, Control_c, 0, 64, 92
1, 7892, Note_off_c, 0, 64, 59
1, 7942, Note_on_c, 0, 56, 83
1, 7946, Control_c, 0, 64, 91
1, 7961, Control_c, 0, 64, 91
1, 7969, Note_off_c, 0, 56, 66
1, 7976, Control_c, 0, 64, 90
1, 7990, Control_c, 0, 64, 88
1, 8005, Control_c, 0, 64, 88
1, 8020, Control_c, 0, 64, 88
1, 8029, Note_on_c, 0, 52, 74
1, 8032, Note_on_c, 0, 56, 70
1, 8032, Note_on_c, 0, 59, 69
1, 8053, Note_off_c, 0, 52, 68
1, 8059, Note_off_c, 0, 56, 69
1, 8063, Note_off_c, 0, 59, 66
1, 8079, Control_c, 0, 64, 88
1, 8094, Control_c, 0, 64, 87
1, 8122, Note_on_c, 0, 52, 73
1, 8123, Note_on_c, 0, 59, 73
1, 8133, Note_on_c, 0, 56, 54
1, 8144, Note_off_c, 0, 52, 71
1, 8148, Note_off_c, 0, 59, 69
1, 8148, Note_off_c, 0, 56, 69
1, 8215, Note_on_c, 0, 52, 78
1, 8244, Note_off_c, 0, 52, 68
1, 8299, Note_on_c, 0, 56, 55
1, 8304, Note_on_c, 0, 64, 77
1, 8323, Note_on_c, 0, 59, 52
1, 8333, Note_off_c, 0, 56, 66
1, 8340, Note_off_c, 0, 64, 62
1, 8355, Note_off_c, 0, 59, 50
1, 8375, Control_c, 0, 64, 88
1, 8399, Note_on_c, 0, 56, 86
1, 8412, Note_on_c, 0, 59, 71
1, 8413, Note_on_c, 0, 64, 57
1, 8428, Note_off_c, 0, 56, 63
1, 8430, Note_off_c, 0, 64, 66
1, 8441, Note_off_c, 0, 59, 66
1, 8442, Control_c, 0, 64, 88
1, 8504, Note_on_c, 0, 56, 81
1, 8524, Note_off_c, 0, 56, 72
1, 8592, Note_on_c, 0, 52, 72
1, 8592, Note_on_c, 0, 56, 65
1, 8604, Note_on_c, 0, 59, 56
1, 8619, Note_off_c, 0, 56, 69
1, 8620, Note_off_c, 0, 52, 69
1, 8637, Note_off_c, 0, 59, 63
1, 8673, Note_on_c, 0, 52, 79
1, 8684, Note_on_c, 0, 59, 69
1, 8686, Note_on_c, 0, 56, 74
1, 8704, Note_off_c, 0, 52, 62
1, 8709, Note_off_c, 0, 56, 70
1, 8715, Note_off_c, 0, 59, 59
1, 8783, Control_c, 0, 64, 89
1, 8791, Note_on_c, 0, 52, 79
1, 8817, Note_off_c, 0, 52, 67
1, 8843, Control_c, 0, 64, 88
1, 8874, Note_on_c, 0, 56, 73
1, 8878, Note_on_c, 0, 64, 74
1, 8889, Note_on_c, 0, 59, 52
1, 8899, Note_off_c, 0, 56, 69
1, 8902, Control_c, 0, 64, 88
1, 8908, Note_on_c, 0, 60, 26
1, 8912, Note_off_c, 0, 59, 62
1, 8912, Note_off_c, 0, 64, 63
1, 8917, Control_c, 0, 64, 87
1, 8932, Control_c, 0, 64, 87
1, 8944, Note_off_c, 0, 60, 50
1, 8960, Note_on_c, 0, 56, 88
1, 8961, Control_c, 0, 64, 86
1, 8966, Note_on_c, 0, 64, 68
1, 8971, Note_on_c, 0, 59, 78
1, 8976, Control_c, 0, 64, 86
1, 8992, Note_off_c, 0, 59, 71
1, 9002, Note_off_c, 0, 64, 61
1, 9004, Note_off_c, 0, 56, 62
1, 9050, Control_c, 0, 64, 87
1, 9053, Note_on_c, 0, 56, 83
1, 9064, Control_c, 0, 64, 87
1, 9075, Note_off_c, 0, 56, 71
1, 9159, Note_on_c, 0, 52, 79
1, 9161, Control_c, 0, 64, 88
1, 9162, Note_on_c, 0, 59, 76
1, 9163, Note_on_c, 0, 56, 76
1, 9176, Control_c, 0, 64, 90
1, 9187, Note_off_c, 0, 52, 64
1, 9191, Control_c, 0, 64, 91
1, 9195, Note_off_c, 0, 56, 67
1, 9201, Note_off_c, 0, 59, 63
1, 9220, Control_c, 0, 64, 91
1, 9260, Note_on_c, 0, 59, 65
1, 9261, Note_on_c, 0, 52, 76
1, 9261, Note_on_c, 0, 56, 75
1, 9265, Control_c, 0, 64, 92
1, 9279, Control_c, 0, 64, 93
1, 9289, Note_off_c, 0, 52, 64
1, 9290, Note_off_c, 0, 56, 66
1, 9294, Control_c, 0, 64, 94
1, 9305, Note_off_c, 0, 59, 59
1, 9309, Control_c, 0, 64, 95
1, 9324, Control_c, 0, 64, 96
1, 9339, Control_c, 0, 64, 97
1, 9344, Note_on_c, 0, 52, 77
1, 9353, Control_c, 0, 64, 98
1, 9368, Control_c, 0, 64, 100
1, 9369, Note_off_c, 0, 52, 65
1, 9383, Control_c, 0, 64, 101
1, 9397, Control_c, 0, 64, 103
1, 9412, Control_c, 0, 64, 107
1, 9427, Control_c, 0, 64, 119
1, 9433, Note_on_c, 0, 56, 73
1, 9442, Note_on_c, 0, 64, 75
1, 9442, Control_c, 0, 64, 127
1, 9460, Note_off_c, 0, 56, 68
1, 9466, Note_off_c, 0, 64, 68
1, 9547, Control_c, 0, 64, 111
1, 9562, Control_c, 0, 64, 78
1, 9572, Note_on_c, 0, 65, 89
1, 9573, Note_on_c, 0, 69, 98
1, 9576, Control_c, 0, 64, 56
1, 9591, Control_c, 0, 64, 0
1, 9651, Control_c, 0, 64, 40
1, 9666, Control_c, 0, 64, 59
1, 9681, Control_c, 0, 64, 65
1, 9695, Control_c, 0, 64, 69
1, 9700, Note_on_c, 0, 52, 71
1, 9710, Control_c, 0, 64, 74
1, 9725, Control_c, 0, 64, 82
1, 9740, Control_c, 0, 64, 90
1, 9755, Control_c, 0, 64, 95
1, 9756, Note_off_c, 0, 52, 60
1, 9764, Note_off_c, 0, 65, 55
1, 9769, Control_c, 0, 64, 95
1, 9803, Note_on_c, 0, 64, 65
1, 9814, Note_off_c, 0, 69, 60
1, 9828, Control_c, 0, 64, 96
1, 9892, Note_on_c, 0, 63, 73
1, 9901, Note_off_c, 0, 64, 63
1, 9940, Control_c, 0, 64, 95
1, 9969, Control_c, 0, 64, 95
1, 9988, Note_off_c, 0, 63, 63
1, 9998, Note_on_c, 0, 62, 72
1, 10043, Control_c, 0, 64, 95
1, 10073, Control_c, 0, 64, 96
1, 10078, Note_off_c, 0, 62, 63
1, 10080, Note_on_c, 0, 61, 75
1, 10088, Control_c, 0, 64, 97
1, 10107, Note_off_c, 0, 61, 67
1, 10132, Control_c, 0, 64, 90
1, 10147, Control_c, 0, 64, 69
1, 10162, Control_c, 0, 64, 37
1, 10172, Note_on_c, 0, 69, 98
1, 10175, Note_on_c, 0, 72, 92
1, 10176, Control_c, 0, 64, 0
1, 10184, Note_on_c, 0, 71, 78
1, 10200, Note_off_c, 0, 71, 43
1, 10220, Control_c, 0, 64, 48
1, 10235, Control_c, 0, 64, 63
1, 10250, Control_c, 0, 64, 67
1, 10265, Control_c, 0, 64, 72
1, 10267, Note_on_c, 0, 52, 75
1, 10274, Note_off_c, 0, 69, 57
1, 10280, Control_c, 0, 64, 78
1, 10295, Control_c, 0, 64, 82
1, 10295, Note_off_c, 0, 52, 69
1, 10296, Note_off_c, 0, 72, 64
1, 10310, Control_c, 0, 64, 84
1, 10324, Control_c, 0, 64, 84
1, 10378, Note_on_c, 0, 68, 81
1, 10385, Control_c, 0, 64, 84
1, 10461, Note_off_c, 0, 68, 41
1, 10476, Note_on_c, 0, 67, 80
1, 10503, Control_c, 0, 64, 85
1, 10550, Note_off_c, 0, 67, 59
1, 10556, Note_on_c, 0, 66, 73
1, 10620, Note_on_c, 0, 65, 74
1, 10626, Note_off_c, 0, 66, 62
1, 10637, Control_c, 0, 64, 86
1, 10655, Note_off_c, 0, 65, 67
1, 10658, Control_c, 0, 64, 89
1, 10673, Control_c, 0, 64, 92
1, 10680, Note_on_c, 0, 74, 81
1, 10688, Note_on_c, 0, 77, 76
1, 10688, Control_c, 0, 64, 93
1, 10703, Control_c, 0, 64, 82
1, 10706, Note_off_c, 0, 74, 66
1, 10714, Note_off_c, 0, 77, 69
1, 10718, Control_c, 0, 64, 62
1, 10733, Control_c, 0, 64, 0
1, 10757, Note_on_c, 0, 69, 96
1, 10758, Note_on_c, 0, 77, 94
1, 10759, Note_on_c, 0, 81, 95
1, 10792, Control_c, 0, 64, 40
1, 10807, Control_c, 0, 64, 61
1, 10822, Control_c, 0, 64, 66
1, 10837, Control_c, 0, 64, 69
1, 10851, Control_c, 0, 64, 72
1, 10853, Note_on_c, 0, 50, 57
1, 10866, Control_c, 0, 64, 75
1, 10881, Control_c, 0, 64, 77
1, 10892, Note_off_c, 0, 50, 65
1, 10896, Control_c, 0, 64, 78
1, 10936, Note_off_c, 0, 69, 56
1, 10948, Note_off_c, 0, 81, 55
1, 10953, Note_on_c, 0, 64, 64
1, 10991, Note_off_c, 0, 77, 60
1, 11047, Note_on_c, 0, 63, 68
1, 11050, Note_off_c, 0, 64, 63
1, 11088, Control_c, 0, 64, 78
1, 11141, Note_off_c, 0, 63, 54
1, 11154, Note_on_c, 0, 62, 61
1, 11193, Control_c, 0, 64, 79
1, 11208, Control_c, 0, 64, 79
1, 11222, Control_c, 0, 64, 80
1, 11236, Note_on_c, 0, 61, 73
1, 11237, Control_c, 0, 64, 81
1, 11240, Note_off_c, 0, 62, 63
1, 11252, Control_c, 0, 64, 82
1, 11263, Note_off_c, 0, 61, 68
1, 11296, Control_c, 0, 64, 79
1, 11311, Control_c, 0, 64, 67
1, 11322, Note_on_c, 0, 79, 91
1, 11326, Control_c, 0, 64, 39
1, 11327, Note_on_c, 0, 76, 82
1, 11341, Control_c, 0, 64, 0
1, 11361, Note_on_c, 0, 67, 87
1, 11371, Control_c, 0, 64, 48
1, 11386, Control_c, 0, 64, 62
1, 11403, Note_off_c, 0, 76, 62
1, 11408, Control_c, 0, 64, 69
1, 11409, Note_off_c, 0, 67, 64
1, 11412, Note_off_c, 0, 79, 62
1, 11422, Control_c, 0, 64, 81
1, 11428, Note_on_c, 0, 50, 71
1, 11437, Control_c, 0, 64, 101
1, 11452, Control_c, 0, 64, 127
1, 11462, Note_off_c, 0, 50, 66
1, 11539, Note_on_c, 0, 82, 16
1, 11553, Note_on_c, 0, 68, 76
1, 11566, Note_off_c, 0, 82, 48
1, 11606, Note_on_c, 0, 81, 84
1, 11608, Note_on_c, 0, 84, 93
1, 11638, Note_off_c, 0, 68, 56
1, 11652, Note_on_c, 0, 67, 75
1, 11653, Note_on_c, 0, 72, 95
1, 11660, Note_off_c, 0, 84, 67
1, 11672, Note_off_c, 0, 81, 65
1, 11690, Note_off_c, 0, 72, 63
1, 11731, Note_off_c, 0, 67, 61
1, 11734, Note_on_c, 0, 66, 70
1, 11785, Note_off_c, 0, 66, 65
1, 11802, Note_on_c, 0, 65, 72
1, 11829, Note_off_c, 0, 65, 68
1, 11866, Control_c, 0, 64, 103
1, 11881, Control_c, 0, 64, 71
1, 11896, Control_c, 0, 64, 43
1, 11907, Note_on_c, 0, 76, 95
1, 11910, Note_on_c, 0, 65, 85
1, 11911, Note_on_c, 0, 72, 80
1, 11911, Control_c, 0, 64, 0
1, 11942, Control_c, 0, 64, 41
1, 11957, Control_c, 0, 64, 59
1, 11971, Control_c, 0, 64, 66
1, 11986, Control_c, 0, 64, 71
1, 11995, Note_off_c, 0, 65, 57
1, 12001, Control_c, 0, 64, 78
1, 12012, Note_on_c, 0, 64, 56
1, 12016, Control_c, 0, 64, 81
1, 12024, Note_on_c, 0, 69, 78
1, 12035, Note_on_c, 0, 50, 42
1, 12035, Note_off_c, 0, 72, 59
1, 12056, Note_off_c, 0, 76, 65
1, 12069, Note_off_c, 0, 64, 60
1, 12075, Control_c, 0, 64, 82
1, 12081, Note_off_c, 0, 69, 63
1, 12089, Control_c, 0, 64, 83
1, 12092, Note_off_c, 0, 50, 61
1, 12104, Control_c, 0, 64, 85
1, 12105, Note_on_c, 0, 57, 67
1, 12119, Control_c, 0, 64, 86
1, 12134, Control_c, 0, 64, 85
1, 12146, Note_off_c, 0, 57, 67
1, 12157, Control_c, 0, 64, 79
1, 12171, Control_c, 0, 64, 66
1, 12186, Control_c, 0, 64, 46
1, 12201, Control_c, 0, 64, 23
1, 12211, Note_on_c, 0, 65, 72
1, 12211, Note_on_c, 0, 74, 84
1, 12214, Note_on_c, 0, 71, 75
1, 12216, Control_c, 0, 64, 37
1, 12231, Control_c, 0, 64, 51
1, 12244, Control_c, 0, 64, 60
1, 12259, Control_c, 0, 64, 64
1, 12273, Note_off_c, 0, 65, 56
1, 12274, Control_c, 0, 64, 67
1, 12289, Control_c, 0, 64, 70
1, 12304, Control_c, 0, 64, 72
1, 12313, Note_on_c, 0, 50, 51
1, 12315, Note_on_c, 0, 62, 54
1, 12319, Control_c, 0, 64, 74
1, 12322, Note_on_c, 0, 69, 72
1, 12328, Note_off_c, 0, 71, 59
1, 12348, Control_c, 0, 64, 74
1, 12363, Note_off_c, 0, 62, 58
1, 12363, Control_c, 0, 64, 76
1, 12364, Note_off_c, 0, 69, 53
1, 12367, Note_off_c, 0, 50, 54
1, 12378, Control_c, 0, 64, 78
1, 12393, Control_c, 0, 64, 80
1, 12408, Control_c, 0, 64, 81
1, 12418, Note_on_c, 0, 57, 64
1, 12422, Control_c, 0, 64, 79
1, 12437, Control_c, 0, 64, 71
1, 12450, Note_off_c, 0, 57, 66
1, 12452, Control_c, 0, 64, 58
1, 12467, Control_c, 0, 64, 22
1, 12482, Control_c, 0, 64, 29
1, 12496, Control_c, 0, 64, 44
1, 12506, Note_on_c, 0, 65, 67
1, 12511, Control_c, 0, 64, 57
1, 12526, Control_c, 0, 64, 63
1, 12541, Control_c, 0, 64, 66
1, 12556, Control_c, 0, 64, 69
1, 12566, Note_off_c, 0, 65, 53
1, 12570, Control_c, 0, 64, 72
1, 12585, Control_c, 0, 64, 73
1, 12609, Note_on_c, 0, 69, 64
1, 12612, Note_on_c, 0, 60, 56
1, 12614, Control_c, 0, 64, 73
1, 12623, Note_on_c, 0, 50, 44
1, 12630, Note_off_c, 0, 74, 62
1, 12638, Note_off_c, 0, 69, 67
1, 12644, Control_c, 0, 64, 75
1, 12657, Note_off_c, 0, 60, 60
1, 12659, Control_c, 0, 64, 77
1, 12667, Note_off_c, 0, 50, 46
1, 12674, Control_c, 0, 64, 80
1, 12688, Control_c, 0, 64, 84
1, 12703, Control_c, 0, 64, 87
1, 12709, Note_on_c, 0, 57, 68
1, 12718, Control_c, 0, 64, 88
1, 12734, Control_c, 0, 64, 86
1, 12737, Note_off_c, 0, 57, 67
1, 12749, Control_c, 0, 64, 73
1, 12764, Control_c, 0, 64, 58
1, 12779, Control_c, 0, 64, 18
1, 12788, Note_on_c, 0, 65, 83
1, 12788, Note_on_c, 0, 77, 94
1, 12791, Note_on_c, 0, 74, 83
1, 12793, Control_c, 0, 64, 24
1, 12808, Control_c, 0, 64, 42
1, 12823, Control_c, 0, 64, 56
1, 12827, Note_off_c, 0, 65, 63
1, 12838, Control_c, 0, 64, 64
1, 12853, Control_c, 0, 64, 68
1, 12867, Control_c, 0, 64, 73
1, 12882, Control_c, 0, 64, 78
1, 12892, Note_on_c, 0, 59, 66
1, 12893, Note_on_c, 0, 50, 63
1, 12905, Control_c, 0, 64, 81
1, 12908, Note_on_c, 0, 69, 84
1, 12919, Control_c, 0, 64, 83
1, 12934, Control_c, 0, 64, 84
1, 12949, Control_c, 0, 64, 87
1, 12953, Note_off_c, 0, 59, 56
1, 12956, Note_off_c, 0, 69, 64
1, 12957, Note_off_c, 0, 50, 54
1, 12964, Control_c, 0, 64, 93
1, 12974, Note_on_c, 0, 55, 72
1, 12979, Control_c, 0, 64, 101
1, 12993, Control_c, 0, 64, 113
1, 13002, Note_off_c, 0, 55, 66
1, 13008, Control_c, 0, 64, 121
1, 13023, Control_c, 0, 64, 102
1, 13038, Control_c, 0, 64, 72
1, 13046, Note_off_c, 0, 74, 23
1, 13052, Control_c, 0, 64, 44
1, 13067, Control_c, 0, 64, 0
1, 13076, Note_off_c, 0, 77, 45
1, 13076, Note_on_c, 0, 71, 94
1, 13081, Note_on_c, 0, 67, 86
1, 13112, Control_c, 0, 64, 43
1, 13125, Note_off_c, 0, 67, 59
1, 13127, Control_c, 0, 64, 63
1, 13141, Control_c, 0, 64, 68
1, 13156, Control_c, 0, 64, 74
1, 13168, Note_on_c, 0, 51, 78
1, 13171, Control_c, 0, 64, 80
1, 13186, Control_c, 0, 64, 85
1, 13201, Control_c, 0, 64, 91
1, 13216, Control_c, 0, 64, 97
1, 13231, Control_c, 0, 64, 106
1, 13243, Note_off_c, 0, 51, 61
1, 13245, Control_c, 0, 64, 127
1, 13265, Note_on_c, 0, 57, 81
1, 13285, Note_on_c, 0, 75, 93
1, 13290, Control_c, 0, 64, 103
1, 13294, Note_off_c, 0, 71, 59
1, 13305, Control_c, 0, 64, 70
1, 13319, Control_c, 0, 64, 47
1, 13334, Control_c, 0, 64, 41
1, 13335, Note_off_c, 0, 57, 60
1, 13347, Note_off_c, 0, 75, 0
1, 13349, Control_c, 0, 64, 56
1, 13363, Note_on_c, 0, 66, 94
1, 13364, Control_c, 0, 64, 62
1, 13365, Note_on_c, 0, 74, 97
1, 13373, Poly_aftertouch_c, 0, 75, 0
1, 13375, Note_on_c, 0, 59, 94
1, 13379, Control_c, 0, 64, 68
1, 13393, Control_c, 0, 64, 77
1, 13407, Note_off_c, 0, 66, 63
1, 13408, Control_c, 0, 64, 94
1, 13413, Note_off_c, 0, 74, 63
1, 13423, Control_c, 0, 64, 103
1, 13427, Note_off_c, 0, 59, 63
1, 13452, Control_c, 0, 64, 102
1, 13472, Note_on_c, 0, 60, 89
1, 13482, Control_c, 0, 64, 105
1, 13497, Control_c, 0, 64, 113
1, 13511, Control_c, 0, 64, 127
1, 13559, Note_on_c, 0, 62, 84
1, 13564, Note_off_c, 0, 60, 64
1, 13616, Control_c, 0, 64, 83
1, 13639, Control_c, 0, 64, 59
1, 13649, Note_off_c, 0, 62, 57
1, 13654, Control_c, 0, 64, 19
1, 13657, Note_on_c, 0, 65, 98
1, 13657, Note_on_c, 0, 69, 99
1, 13658, Note_on_c, 0, 63, 84
1, 13668, Control_c, 0, 64, 49
1, 13678, Note_off_c, 0, 63, 69
1, 13683, Control_c, 0, 64, 62
1, 13698, Control_c, 0, 64, 68
1, 13707, Note_off_c, 0, 65, 64
1, 13713, Control_c, 0, 64, 82
1, 13728, Control_c, 0, 64, 127
1, 13740, Note_off_c, 0, 69, 63
1, 13758, Note_on_c, 0, 59, 89
1, 13797, Note_off_c, 0, 59, 67
1, 13849, Note_on_c, 0, 53, 84
1, 13855, Note_on_c, 0, 57, 82
1, 13900, Note_off_c, 0, 57, 65
1, 13925, Note_on_c, 0, 47, 87
1, 13936, Note_off_c, 0, 53, 66
1, 13948, Note_off_c, 0, 47, 69
1, 14018, Note_on_c, 0, 57, 74
1, 14029, Note_on_c, 0, 53, 72
1, 14053, Control_c, 0, 64, 116
1, 14060, Note_off_c, 0, 53, 60
1, 14067, Control_c, 0, 64, 114
1, 14077, Note_off_c, 0, 57, 64
1, 14082, Control_c, 0, 64, 112
1, 14097, Control_c, 0, 64, 103
1, 14111, Note_on_c, 0, 47, 72
1, 14112, Control_c, 0, 64, 82
1, 14127, Control_c, 0, 64, 60
1, 14139, Note_on_c, 0, 37, 59
1, 14141, Control_c, 0, 64, 0
1, 14144, Note_off_c, 0, 47, 62
1, 14152, Note_on_c, 0, 39, 64
1, 14173, Note_off_c, 0, 37, 64
1, 14183, Note_off_c, 0, 39, 64
1, 14210, Note_on_c, 0, 40, 102
1, 14215, Control_c, 0, 64, 57
1, 14230, Control_c, 0, 64, 66
1, 14245, Control_c, 0, 64, 74
1, 14246, Note_off_c, 0, 40, 65
1, 14259, Control_c, 0, 64, 83
1, 14274, Control_c, 0, 64, 92
1, 14289, Control_c, 0, 64, 99
1, 14304, Control_c, 0, 64, 101
1, 14310, Note_on_c, 0, 40, 85
1, 14319, Control_c, 0, 64, 100
1, 14335, Control_c, 0, 64, 98
1, 14350, Control_c, 0, 64, 97
1, 14353, Note_off_c, 0, 40, 60
1, 14391, Note_on_c, 0, 52, 79
1, 14396, Note_on_c, 0, 59, 74
1, 14402, Control_c, 0, 64, 96
1, 14417, Control_c, 0, 64, 96
1, 14421, Note_on_c, 0, 56, 57
1, 14432, Control_c, 0, 64, 95
1, 14435, Note_off_c, 0, 52, 60
1, 14443, Note_off_c, 0, 59, 62
1, 14444, Note_off_c, 0, 56, 59
1, 14446, Control_c, 0, 64, 94
1, 14461, Control_c, 0, 64, 93
1, 14476, Control_c, 0, 64, 92
1, 14486, Note_on_c, 0, 59, 65
1, 14490, Note_on_c, 0, 52, 66
1, 14490, Control_c, 0, 64, 91
1, 14495, Note_on_c, 0, 56, 69
1, 14516, Note_off_c, 0, 52, 70
1, 14522, Note_off_c, 0, 59, 64
1, 14525, Note_off_c, 0, 56, 66
1, 14564, Control_c, 0, 64, 90
1, 14579, Control_c, 0, 64, 88
1, 14594, Control_c, 0, 64, 87
1, 14600, Note_on_c, 0, 52, 69
1, 14624, Control_c, 0, 64, 88
1, 14626, Note_off_c, 0, 52, 69
1, 14638, Control_c, 0, 64, 88
1, 14673, Note_on_c, 0, 64, 76
1, 14680, Note_on_c, 0, 56, 70
1, 14680, Note_on_c, 0, 59, 67
1, 14708, Note_off_c, 0, 59, 66
1, 14711, Note_off_c, 0, 56, 65
1, 14721, Note_off_c, 0, 64, 60
1, 14727, Control_c, 0, 64, 89
1, 14757, Note_on_c, 0, 64, 67
1, 14760, Note_on_c, 0, 56, 87
1, 14766, Note_on_c, 0, 59, 78
1, 14784, Note_off_c, 0, 59, 72
1, 14788, Note_off_c, 0, 56, 62
1, 14795, Note_off_c, 0, 64, 63
1, 14817, Control_c, 0, 64, 89
1, 14869, Note_on_c, 0, 56, 77
1, 14896, Note_off_c, 0, 56, 67
1, 14905, Control_c, 0, 64, 89
1, 14960, Note_on_c, 0, 56, 68
1, 14962, Note_on_c, 0, 52, 65
1, 14964, Control_c, 0, 64, 88
1, 14969, Note_on_c, 0, 59, 63
1, 14986, Note_off_c, 0, 56, 68
1, 14994, Note_off_c, 0, 52, 66
1, 14995, Note_off_c, 0, 59, 63
1, 15025, Poly_aftertouch_c, 0, 58, 0
1, 15045, Note_on_c, 0, 59, 82
1, 15049, Poly_aftertouch_c, 0, 58, 0
1, 15054, Note_on_c, 0, 52, 71
1, 15060, Note_on_c, 0, 56, 58
1, 15079, Note_off_c, 0, 52, 66
1, 15080, Note_off_c, 0, 59, 59
1, 15081, Note_off_c, 0, 56, 64
1, 15127, Control_c, 0, 64, 89
1, 15145, Note_on_c, 0, 52, 76
1, 15177, Note_off_c, 0, 52, 67
1, 15180, Control_c, 0, 64, 89
1, 15225, Control_c, 0, 64, 89
1, 15248, Note_on_c, 0, 56, 73
1, 15252, Note_on_c, 0, 64, 74
1, 15254, Note_on_c, 0, 59, 68
1, 15255, Control_c, 0, 64, 88
1, 15270, Control_c, 0, 64, 86
1, 15277, Note_off_c, 0, 56, 66
1, 15278, Note_off_c, 0, 59, 69
1, 15283, Note_off_c, 0, 64, 64
1, 15285, Control_c, 0, 64, 83
1, 15300, Control_c, 0, 64, 77
1, 15314, Control_c, 0, 64, 72
1, 15328, Note_on_c, 0, 56, 89
1, 15329, Control_c, 0, 64, 66
1, 15332, Note_on_c, 0, 64, 72
1, 15335, Note_on_c, 0, 59, 86
1, 15344, Control_c, 0, 64, 62
1, 15359, Control_c, 0, 64, 57
1, 15360, Note_off_c, 0, 59, 69
1, 15361, Note_off_c, 0, 56, 63
1, 15363, Note_off_c, 0, 64, 66
1, 15374, Control_c, 0, 64, 54
1, 15388, Control_c, 0, 64, 51
1, 15403, Control_c, 0, 64, 50
1, 15418, Control_c, 0, 64, 48
1, 15425, Note_on_c, 0, 56, 69
1, 15433, Control_c, 0, 64, 48
1, 15448, Control_c, 0, 64, 47
1, 15462, Control_c, 0, 64, 46
1, 15463, Note_off_c, 0, 56, 66
1, 15477, Control_c, 0, 64, 45
1, 15492, Control_c, 0, 64, 43
1, 15507, Control_c, 0, 64, 43
1, 15521, Control_c, 0, 64, 42
1, 15526, Note_on_c, 0, 52, 61
1, 15529, Note_on_c, 0, 59, 76
1, 15536, Control_c, 0, 64, 41
1, 15557, Note_off_c, 0, 52, 66
1, 15610, Note_off_c, 0, 59, 63
1, 15610, Control_c, 0, 64, 41
1, 15612, Note_on_c, 0, 64, 73
1, 15635, Note_off_c, 0, 64, 69
1, 15705, Note_on_c, 0, 59, 60
1, 15726, Note_off_c, 0, 59, 62
1, 15784, Note_on_c, 0, 52, 51
1, 15791, Note_on_c, 0, 56, 65
1, 15808, Note_off_c, 0, 52, 62
1, 15818, Control_c, 0, 64, 40
1, 15847, Control_c, 0, 64, 40
1, 15874, Note_off_c, 0, 56, 63
1, 15876, Note_on_c, 0, 64, 68
1, 15899, Control_c, 0, 64, 39
1, 15911, Note_off_c, 0, 64, 67
1, 15914, Control_c, 0, 64, 39
1, 15959, Control_c, 0, 64, 38
1, 15982, Note_on_c, 0, 56, 52
1, 16008, Note_off_c, 0, 56, 59
1, 16050, Note_on_c, 0, 59, 64
1, 16078, Control_c, 0, 64, 38
1, 16088, Note_on_c, 0, 52, 49
1, 16113, Note_off_c, 0, 52, 58
1, 16140, Note_off_c, 0, 59, 63
1, 16143, Note_on_c, 0, 64, 75
1, 16167, Note_off_c, 0, 64, 70
1, 16242, Note_on_c, 0, 59, 58
1, 16262, Note_off_c, 0, 59, 62
1, 16311, Note_on_c, 0, 56, 68
1, 16328, Note_on_c, 0, 52, 64
1, 16355, Note_off_c, 0, 52, 67
1, 16359, Control_c, 0, 64, 37
1, 16374, Control_c, 0, 64, 37
1, 16388, Note_off_c, 0, 56, 63
1, 16389, Control_c, 0, 64, 36
1, 16403, Note_on_c, 0, 64, 66
1, 16404, Control_c, 0, 64, 35
1, 16418, Control_c, 0, 64, 35
1, 16433, Control_c, 0, 64, 34
1, 16448, Control_c, 0, 64, 33
1, 16516, Note_on_c, 0, 56, 55
1, 16567, Note_off_c, 0, 56, 60
1, 16602, Note_off_c, 0, 64, 59
1, 16616, Note_on_c, 0, 59, 48
1, 16632, Note_on_c, 0, 63, 58
1, 16671, Note_off_c, 0, 59, 60
1, 16696, Note_off_c, 0, 63, 63
1, 16707, Note_on_c, 0, 64, 65
1, 16714, Note_on_c, 0, 62, 48
1, 16768, Note_off_c, 0, 62, 59
1, 16811, Note_on_c, 0, 52, 51
1, 16871, Note_off_c, 0, 52, 60
1, 16888, Note_off_c, 0, 64, 63
1, 16903, Note_on_c, 0, 59, 42
1, 16909, Note_on_c, 0, 63, 56
1, 16962, Note_off_c, 0, 59, 60
1, 16975, Note_off_c, 0, 63, 62
1, 16988, Note_on_c, 0, 64, 61
1, 17002, Note_on_c, 0, 62, 46
1, 17046, Note_off_c, 0, 62, 63
1, 17088, Note_on_c, 0, 56, 36
1, 17154, Note_off_c, 0, 56, 62
1, 17178, Note_on_c, 0, 59, 45
1, 17186, Note_off_c, 0, 64, 57
1, 17198, Note_on_c, 0, 63, 54
1, 17234, Note_off_c, 0, 59, 59
1, 17276, Note_on_c, 0, 62, 37
1, 17281, Note_off_c, 0, 63, 61
1, 17294, Note_on_c, 0, 64, 59
1, 17348, Note_off_c, 0, 62, 56
1, 17367, Note_on_c, 0, 52, 41
1, 17467, Note_off_c, 0, 52, 54
1, 17485, Control_c, 0, 64, 34
1, 17507, Note_on_c, 0, 59, 41
1, 17514, Control_c, 0, 64, 34
1, 17517, Note_off_c, 0, 64, 60
1, 17530, Control_c, 0, 64, 35
1, 17540, Note_on_c, 0, 63, 49
1, 17545, Control_c, 0, 64, 37
1, 17560, Control_c, 0, 64, 39
1, 17575, Control_c, 0, 64, 43
1, 17589, Control_c, 0, 64, 48
1, 17598, Note_off_c, 0, 63, 59
1, 17604, Control_c, 0, 64, 53
1, 17619, Control_c, 0, 64, 57
1, 17634, Note_off_c, 0, 59, 51
1, 17634, Control_c, 0, 64, 60
1, 17649, Control_c, 0, 64, 63
1, 17651, Note_on_c, 0, 64, 51
1, 17663, Note_on_c, 0, 60, 40
1, 17663, Control_c, 0, 64, 65
1, 17678, Control_c, 0, 64, 68
1, 17693, Control_c, 0, 64, 73
1, 17708, Control_c, 0, 64, 81
1, 17711, Note_off_c, 0, 64, 48
1, 17721, Note_off_c, 0, 60, 59
1, 17723, Control_c, 0, 64, 89
1, 17738, Control_c, 0, 64, 97
1, 17753, Control_c, 0, 64, 105
1, 17756, Note_on_c, 0, 72, 58
1, 17768, Control_c, 0, 64, 112
1, 17779, Note_off_c, 0, 72, 65
1, 17780, Note_on_c, 0, 57, 47
1, 17782, Control_c, 0, 64, 114
1, 17823, Note_off_c, 0, 57, 63
1, 17842, Control_c, 0, 64, 113
1, 17845, Note_on_c, 0, 60, 58
1, 17851, Note_on_c, 0, 76, 69
1, 17856, Control_c, 0, 64, 111
1, 17871, Control_c, 0, 64, 107
1, 17886, Control_c, 0, 64, 102
1, 17896, Note_off_c, 0, 60, 59
1, 17901, Control_c, 0, 64, 97
1, 17915, Control_c, 0, 64, 91
1, 17922, Note_off_c, 0, 76, 61
1, 17930, Control_c, 0, 64, 82
1, 17933, Note_on_c, 0, 88, 82
1, 17945, Control_c, 0, 64, 72
1, 17950, Note_on_c, 0, 65, 58
1, 17954, Note_off_c, 0, 88, 71
1, 17960, Control_c, 0, 64, 63
1, 17975, Control_c, 0, 64, 56
1, 17989, Control_c, 0, 64, 52
1, 18004, Control_c, 0, 64, 47
1, 18019, Control_c, 0, 64, 37
1, 18033, Control_c, 0, 64, 18
1, 18036, Note_on_c, 0, 60, 54
1, 18048, Control_c, 0, 64, 0
1, 18100, Note_off_c, 0, 60, 64
1, 18142, Note_on_c, 0, 88, 73
1, 18145, Note_on_c, 0, 57, 46
1, 18197, Note_off_c, 0, 88, 64
1, 18203, Note_off_c, 0, 57, 62
1, 18221, Note_on_c, 0, 77, 77
1, 18227, Note_on_c, 0, 52, 54
1, 18248, Control_c, 0, 64, 44
1, 18263, Control_c, 0, 64, 56
1, 18278, Control_c, 0, 64, 60
1, 18283, Note_off_c, 0, 65, 35
1, 18293, Control_c, 0, 64, 63
1, 18307, Control_c, 0, 64, 65
1, 18314, Note_off_c, 0, 52, 62
1, 18322, Control_c, 0, 64, 69
1, 18335, Note_on_c, 0, 57, 49
1, 18338, Control_c, 0, 64, 74
1, 18353, Control_c, 0, 64, 79
1, 18368, Control_c, 0, 64, 85
1, 18379, Note_off_c, 0, 77, 57
1, 18383, Control_c, 0, 64, 89
1, 18398, Control_c, 0, 64, 93
1, 18401, Note_off_c, 0, 57, 62
1, 18412, Control_c, 0, 64, 94
1, 18423, Note_on_c, 0, 60, 53
1, 18465, Note_off_c, 0, 60, 61
1, 18516, Note_on_c, 0, 81, 72
1, 18526, Note_on_c, 0, 66, 57
1, 18540, Note_off_c, 0, 81, 70
1, 18546, Control_c, 0, 64, 94
1, 18561, Control_c, 0, 64, 93
1, 18576, Control_c, 0, 64, 93
1, 18579, Note_off_c, 0, 66, 60
1, 18591, Control_c, 0, 64, 92
1, 18614, Note_on_c, 0, 60, 58
1, 18650, Control_c, 0, 64, 92
1, 18662, Note_off_c, 0, 60, 57
1, 18665, Control_c, 0, 64, 91
1, 18679, Control_c, 0, 64, 89
1, 18694, Control_c, 0, 64, 87
1, 18705, Note_on_c, 0, 57, 48
1, 18709, Control_c, 0, 64, 85
1, 18724, Control_c, 0, 64, 84
1, 18738, Control_c, 0, 64, 82
1, 18749, Note_off_c, 0, 57, 61
1, 18753, Control_c, 0, 64, 80
1, 18768, Control_c, 0, 64, 77
1, 18779, Note_on_c, 0, 52, 55
1, 18783, Control_c, 0, 64, 73
1, 18793, Note_on_c, 0, 71, 71
1, 18798, Control_c, 0, 64, 69
1, 18812, Control_c, 0, 64, 65
1, 18820, Note_off_c, 0, 71, 68
1, 18827, Control_c, 0, 64, 60
1, 18838, Note_off_c, 0, 52, 55
1, 18842, Control_c, 0, 64, 54
1, 18856, Control_c, 0, 64, 46
1, 18871, Control_c, 0, 64, 33
1, 18891, Note_on_c, 0, 59, 55
1, 18894, Control_c, 0, 64, 0
1, 18959, Note_off_c, 0, 59, 56
1, 18972, Poly_aftertouch_c, 0, 76, 127
1, 18984, Note_on_c, 0, 62, 55
1, 18996, Poly_aftertouch_c, 0, 76, 0
1, 19001, Note_on_c, 0, 72, 65
1, 19041, Note_off_c, 0, 62, 58
1, 19051, Note_off_c, 0, 72, 62
1, 19080, Note_on_c, 0, 71, 64
1, 19080, Note_on_c, 0, 74, 66
1, 19091, Note_on_c, 0, 67, 58
1, 19148, Control_c, 0, 64, 43
1, 19156, Note_off_c, 0, 67, 53
1, 19162, Control_c, 0, 64, 54
1, 19177, Control_c, 0, 64, 59
1, 19192, Control_c, 0, 64, 62
1, 19194, Note_on_c, 0, 62, 49
1, 19207, Control_c, 0, 64, 65
1, 19222, Control_c, 0, 64, 68
1, 19236, Control_c, 0, 64, 72
1, 19250, Note_off_c, 0, 62, 61
1, 19251, Control_c, 0, 64, 76
1, 19266, Control_c, 0, 64, 81
1, 19281, Control_c, 0, 64, 86
1, 19282, Note_on_c, 0, 59, 54
1, 19296, Control_c, 0, 64, 90
1, 19310, Control_c, 0, 64, 89
1, 19325, Control_c, 0, 64, 82
1, 19340, Control_c, 0, 64, 70
1, 19343, Note_off_c, 0, 74, 60
1, 19353, Note_off_c, 0, 59, 61
1, 19354, Control_c, 0, 64, 57
1, 19357, Note_off_c, 0, 71, 61
1, 19366, Note_on_c, 0, 52, 62
1, 19368, Note_on_c, 0, 68, 82
1, 19369, Control_c, 0, 64, 56
1, 19384, Control_c, 0, 64, 61
1, 19399, Control_c, 0, 64, 64
1, 19414, Control_c, 0, 64, 67
1, 19422, Note_off_c, 0, 52, 55
1, 19428, Control_c, 0, 64, 71
1, 19443, Control_c, 0, 64, 76
1, 19458, Control_c, 0, 64, 81
1, 19464, Note_off_c, 0, 68, 57
1, 19467, Note_on_c, 0, 59, 67
1, 19473, Control_c, 0, 64, 83
1, 19488, Control_c, 0, 64, 84
1, 19503, Control_c, 0, 64, 84
1, 19518, Control_c, 0, 64, 85
1, 19532, Control_c, 0, 64, 87
1, 19538, Note_off_c, 0, 59, 59
1, 19547, Control_c, 0, 64, 88
1, 19547, Note_on_c, 0, 62, 66
1, 19562, Control_c, 0, 64, 90
1, 19577, Note_on_c, 0, 76, 69
1, 19578, Note_on_c, 0, 72, 61
1, 19592, Control_c, 0, 64, 89
1, 19601, Note_off_c, 0, 62, 58
1, 19607, Control_c, 0, 64, 84
1, 19610, Note_off_c, 0, 72, 66
1, 19622, Control_c, 0, 64, 73
1, 19633, Note_off_c, 0, 76, 52
1, 19643, Control_c, 0, 64, 61
1, 19658, Control_c, 0, 64, 56
1, 19662, Note_on_c, 0, 69, 68
1, 19671, Note_on_c, 0, 77, 78
1, 19673, Control_c, 0, 64, 61
1, 19676, Note_on_c, 0, 74, 69
1, 19687, Control_c, 0, 64, 65
1, 19702, Note_off_c, 0, 74, 68
1, 19702, Control_c, 0, 64, 68
1, 19703, Note_off_c, 0, 77, 61
1, 19714, Note_off_c, 0, 69, 58
1, 19717, Control_c, 0, 64, 74
1, 19732, Control_c, 0, 64, 82
1, 19747, Control_c, 0, 64, 86
1, 19762, Note_on_c, 0, 62, 51
1, 19777, Control_c, 0, 64, 85
1, 19799, Note_off_c, 0, 62, 68
1, 19822, Note_on_c, 0, 59, 62
1, 19851, Control_c, 0, 64, 85
1, 19884, Note_off_c, 0, 59, 56
1, 19895, Control_c, 0, 64, 83
1, 19910, Control_c, 0, 64, 77
1, 19925, Control_c, 0, 64, 66
1, 19936, Note_on_c, 0, 52, 54
1, 19941, Control_c, 0, 64, 56
1, 19956, Control_c, 0, 64, 52
1, 19962, Note_on_c, 0, 57, 61
1, 19971, Control_c, 0, 64, 56
1, 19985, Control_c, 0, 64, 60
1, 20000, Control_c, 0, 64, 64
1, 20005, Note_off_c, 0, 52, 57
1, 20015, Control_c, 0, 64, 67
1, 20020, Note_off_c, 0, 57, 62
1, 20030, Control_c, 0, 64, 71
1, 20045, Control_c, 0, 64, 75
1, 20058, Note_on_c, 0, 59, 43
1, 20059, Control_c, 0, 64, 77
1, 20060, Note_on_c, 0, 65, 40
1, 20074, Control_c, 0, 64, 78
1, 20090, Note_off_c, 0, 65, 49
1, 20124, Note_off_c, 0, 59, 61
1, 20136, Note_on_c, 0, 69, 74
1, 20140, Note_on_c, 0, 62, 64
1, 20163, Control_c, 0, 64, 78
1, 20177, Control_c, 0, 64, 76
1, 20179, Note_off_c, 0, 62, 60
1, 20192, Control_c, 0, 64, 71
1, 20207, Control_c, 0, 64, 64
1, 20211, Note_off_c, 0, 69, 62
1, 20222, Control_c, 0, 64, 58
1, 20226, Note_on_c, 0, 81, 86
1, 20227, Note_on_c, 0, 65, 57
1, 20237, Control_c, 0, 64, 54
1, 20251, Note_off_c, 0, 81, 67
1, 20251, Control_c, 0, 64, 48
1, 20266, Control_c, 0, 64, 27
1, 20281, Control_c, 0, 64, 0
1, 20321, Note_on_c, 0, 62, 54
1, 20356, Note_off_c, 0, 62, 65
1, 20388, Note_on_c, 0, 59, 57
1, 20433, Note_on_c, 0, 81, 75
1, 20464, Note_off_c, 0, 65, 0
1, 20472, Note_off_c, 0, 59, 63
1, 20480, Note_off_c, 0, 81, 63
1, 20483, Note_on_c, 0, 52, 55
1, 20501, Poly_aftertouch_c, 0, 65, 127
1, 20507, Note_on_c, 0, 71, 80
1, 20525, Control_c, 0, 64, 43
1, 20540, Control_c, 0, 64, 57
1, 20555, Poly_aftertouch_c, 0, 65, 0
1, 20555, Control_c, 0, 64, 63
1, 20567, Note_off_c, 0, 52, 61
1, 20570, Control_c, 0, 64, 66
1, 20585, Control_c, 0, 64, 69
1, 20597, Note_on_c, 0, 59, 66
1, 20600, Control_c, 0, 64, 73
1, 20615, Control_c, 0, 64, 77
1, 20629, Control_c, 0, 64, 81
1, 20644, Control_c, 0, 64, 83
1, 20646, Note_off_c, 0, 59, 56
1, 20659, Control_c, 0, 64, 84
1, 20670, Note_off_c, 0, 71, 50
1, 20674, Control_c, 0, 64, 86
1, 20679, Note_on_c, 0, 62, 61
1, 20689, Control_c, 0, 64, 88
1, 20703, Control_c, 0, 64, 90
1, 20717, Note_off_c, 0, 62, 62
1, 20718, Control_c, 0, 64, 90
1, 20734, Control_c, 0, 64, 90
1, 20749, Control_c, 0, 64, 85
1, 20764, Control_c, 0, 64, 71
1, 20778, Control_c, 0, 64, 60
1, 20787, Note_on_c, 0, 66, 58
1, 20793, Control_c, 0, 64, 50
1, 20795, Note_on_c, 0, 74, 69
1, 20808, Control_c, 0, 64, 56
1, 20823, Control_c, 0, 64, 62
1, 20833, Note_off_c, 0, 66, 60
1, 20838, Control_c, 0, 64, 65
1, 20839, Note_off_c, 0, 74, 64
1, 20853, Control_c, 0, 64, 69
1, 20868, Control_c, 0, 64, 75
1, 20882, Control_c, 0, 64, 80
1, 20895, Note_on_c, 0, 62, 51
1, 20897, Control_c, 0, 64, 81
1, 20933, Note_off_c, 0, 62, 64
1, 20947, Note_on_c, 0, 59, 55
1, 20978, Note_off_c, 0, 59, 65
1, 21030, Control_c, 0, 64, 81
1, 21045, Control_c, 0, 64, 79
1, 21060, Control_c, 0, 64, 74
1, 21062, Note_on_c, 0, 45, 62
1, 21073, Note_on_c, 0, 64, 61
1, 21074, Control_c, 0, 64, 66
1, 21089, Control_c, 0, 64, 56
1, 21104, Note_off_c, 0, 64, 66
1, 21104, Control_c, 0, 64, 47
1, 21108, Note_off_c, 0, 45, 60
1, 21126, Control_c, 0, 64, 44
1, 21141, Control_c, 0, 64, 37
1, 21144, Note_on_c, 0, 52, 62
1, 21156, Control_c, 0, 64, 27
1, 21171, Control_c, 0, 64, 17
1, 21186, Control_c, 0, 64, 9
1, 21200, Control_c, 0, 64, 0
1, 21231, Note_off_c, 0, 52, 63
1, 21252, Note_on_c, 0, 66, 65
1, 21268, Note_on_c, 0, 57, 51
1, 21314, Note_off_c, 0, 66, 58
1, 21330, Note_off_c, 0, 57, 60
1, 21333, Note_on_c, 0, 64, 62
1, 21336, Note_on_c, 0, 68, 67
1, 21348, Note_on_c, 0, 58, 71
1, 21407, Control_c, 0, 64, 36
1, 21415, Note_off_c, 0, 58, 63
1, 21422, Control_c, 0, 64, 49
1, 21437, Control_c, 0, 64, 57
1, 21450, Note_on_c, 0, 57, 57
1, 21452, Control_c, 0, 64, 60
1, 21467, Control_c, 0, 64, 62
1, 21482, Control_c, 0, 64, 64
1, 21491, Note_off_c, 0, 57, 67
1, 21497, Control_c, 0, 64, 66
1, 21512, Control_c, 0, 64, 68
1, 21527, Control_c, 0, 64, 71
1, 21528, Note_on_c, 0, 52, 55
1, 21542, Control_c, 0, 64, 73
1, 21557, Control_c, 0, 64, 75
1, 21571, Control_c, 0, 64, 75
1, 21586, Control_c, 0, 64, 73
1, 21595, Note_off_c, 0, 52, 57
1, 21601, Control_c, 0, 64, 66
1, 21616, Note_off_c, 0, 64, 59
1, 21616, Note_off_c, 0, 68, 60
1, 21616, Control_c, 0, 64, 55
1, 21623, Note_on_c, 0, 45, 59
1, 21629, Note_on_c, 0, 59, 77
1, 21631, Control_c, 0, 64, 48
1, 21646, Control_c, 0, 64, 54
1, 21661, Control_c, 0, 64, 60
1, 21667, Note_off_c, 0, 45, 60
1, 21670, Note_off_c, 0, 59, 62
1, 21676, Control_c, 0, 64, 64
1, 21691, Control_c, 0, 64, 69
1, 21705, Control_c, 0, 64, 74
1, 21710, Note_on_c, 0, 52, 58
1, 21720, Control_c, 0, 64, 77
1, 21735, Control_c, 0, 64, 78
1, 21795, Note_off_c, 0, 52, 63
1, 21813, Note_on_c, 0, 57, 51
1, 21823, Control_c, 0, 64, 79
1, 21832, Note_on_c, 0, 69, 60
1, 21833, Note_on_c, 0, 72, 61
1, 21838, Control_c, 0, 64, 78
1, 21853, Control_c, 0, 64, 76
1, 21858, Note_off_c, 0, 57, 58
1, 21863, Note_off_c, 0, 69, 65
1, 21864, Note_off_c, 0, 72, 66
1, 21868, Control_c, 0, 64, 68
1, 21890, Control_c, 0, 64, 56
1, 21905, Control_c, 0, 64, 39
1, 21914, Note_on_c, 0, 76, 73
1, 21920, Control_c, 0, 64, 43
1, 21921, Note_on_c, 0, 60, 55
1, 21933, Note_on_c, 0, 72, 63
1, 21935, Control_c, 0, 64, 51
1, 21950, Control_c, 0, 64, 58
1, 21950, Note_off_c, 0, 72, 65
1, 21956, Note_off_c, 0, 76, 61
1, 21963, Note_off_c, 0, 60, 66
1, 21964, Control_c, 0, 64, 64
1, 21978, Control_c, 0, 64, 67
1, 21993, Control_c, 0, 64, 71
1, 22008, Control_c, 0, 64, 74
1, 22021, Note_on_c, 0, 57, 47
1, 22022, Control_c, 0, 64, 76
1, 22037, Control_c, 0, 64, 76
1, 22063, Note_off_c, 0, 57, 65
1, 22101, Note_on_c, 0, 52, 49
1, 22126, Control_c, 0, 64, 76
1, 22133, Note_off_c, 0, 52, 54
1, 22141, Control_c, 0, 64, 75
1, 22156, Control_c, 0, 64, 72
1, 22171, Control_c, 0, 64, 67
1, 22185, Control_c, 0, 64, 61
1, 22193, Note_on_c, 0, 65, 66
1, 22200, Control_c, 0, 64, 54
1, 22215, Control_c, 0, 64, 52
1, 22221, Note_off_c, 0, 65, 66
1, 22230, Control_c, 0, 64, 51
1, 22245, Control_c, 0, 64, 48
1, 22260, Control_c, 0, 64, 47
1, 22274, Control_c, 0, 64, 47
1, 22293, Note_on_c, 0, 64, 57
1, 22303, Note_on_c, 0, 57, 46
1, 22304, Control_c, 0, 64, 46
1, 22319, Control_c, 0, 64, 46
1, 22327, Note_off_c, 0, 64, 65
1, 22332, Note_off_c, 0, 57, 62
1, 22335, Control_c, 0, 64, 45
1, 22379, Control_c, 0, 64, 45
1, 22386, Note_on_c, 0, 50, 59
1, 22424, Control_c, 0, 64, 44
1, 22427, Note_off_c, 0, 50, 60
1, 22439, Control_c, 0, 64, 43
1, 22453, Control_c, 0, 64, 42
1, 22468, Control_c, 0, 64, 42
1, 22478, Note_on_c, 0, 69, 68
1, 22483, Control_c, 0, 64, 41
1, 22484, Note_on_c, 0, 65, 56
1, 22504, Note_off_c, 0, 69, 68
1, 22509, Note_off_c, 0, 65, 63
1, 22542, Control_c, 0, 64, 41
1, 22571, Note_on_c, 0, 62, 48
1, 22571, Control_c, 0, 64, 40
1, 22578, Note_on_c, 0, 57, 48
1, 22597, Note_off_c, 0, 62, 58
1, 22601, Control_c, 0, 64, 40
1, 22606, Note_off_c, 0, 57, 56
1, 22639, Control_c, 0, 64, 39
1, 22659, Note_on_c, 0, 50, 53
1, 22683, Control_c, 0, 64, 38
1, 22689, Note_on_c, 0, 57, 27
1, 22691, Note_on_c, 0, 74, 73
1, 22692, Note_off_c, 0, 50, 64
1, 22698, Control_c, 0, 64, 38
1, 22707, Note_on_c, 0, 65, 53
1, 22712, Control_c, 0, 64, 37
1, 22719, Note_off_c, 0, 74, 65
1, 22728, Control_c, 0, 64, 36
1, 22728, Note_off_c, 0, 57, 30
1, 22729, Note_off_c, 0, 65, 60
1, 22762, Note_on_c, 0, 77, 85
1, 22795, Note_off_c, 0, 77, 64
1, 22841, Note_on_c, 0, 56, 65
1, 22859, Note_on_c, 0, 60, 43
1, 22873, Note_off_c, 0, 56, 65
1, 22885, Note_off_c, 0, 60, 56
1, 22941, Note_on_c, 0, 50, 57
1, 22948, Note_on_c, 0, 56, 55
1, 22977, Note_off_c, 0, 50, 64
1, 22978, Note_off_c, 0, 56, 65
1, 23016, Note_on_c, 0, 76, 72
1, 23034, Note_on_c, 0, 65, 30
1, 23044, Note_off_c, 0, 76, 68
1, 23068, Note_off_c, 0, 65, 43
1, 23096, Note_on_c, 0, 55, 56
1, 23125, Note_on_c, 0, 59, 39
1, 23130, Note_off_c, 0, 55, 64
1, 23143, Control_c, 0, 64, 36
1, 23151, Note_off_c, 0, 59, 52
1, 23198, Note_on_c, 0, 81, 65
1, 23199, Note_on_c, 0, 50, 60
1, 23223, Note_off_c, 0, 81, 65
1, 23230, Note_on_c, 0, 55, 21
1, 23235, Note_off_c, 0, 50, 63
1, 23271, Note_off_c, 0, 55, 30
1, 23296, Note_on_c, 0, 64, 64
1, 23298, Note_on_c, 0, 69, 67
1, 23324, Note_off_c, 0, 64, 66
1, 23327, Note_off_c, 0, 69, 67
1, 23364, Note_on_c, 0, 55, 55
1, 23366, Control_c, 0, 64, 35
1, 23388, Control_c, 0, 64, 29
1, 23390, Note_on_c, 0, 60, 52
1, 23402, Note_off_c, 0, 55, 65
1, 23402, Control_c, 0, 64, 0
1, 23411, Note_off_c, 0, 60, 61
1, 23461, Note_on_c, 0, 48, 60
1, 23479, Note_on_c, 0, 64, 63
1, 23482, Note_on_c, 0, 71, 72
1, 23495, Note_off_c, 0, 48, 65
1, 23506, Note_off_c, 0, 71, 69
1, 23509, Note_off_c, 0, 64, 65
1, 23535, Control_c, 0, 64, 44
1, 23545, Note_on_c, 0, 72, 99
1, 23550, Control_c, 0, 64, 68
1, 23554, Note_on_c, 0, 64, 85
1, 23565, Control_c, 0, 64, 79
1, 23572, Note_off_c, 0, 64, 74
1, 23580, Note_off_c, 0, 72, 66
1, 23580, Control_c, 0, 64, 105
1, 23595, Control_c, 0, 64, 127
1, 23638, Note_on_c, 0, 60, 65
1, 23643, Note_on_c, 0, 54, 70
1, 23667, Note_off_c, 0, 60, 67
1, 23676, Note_off_c, 0, 54, 65
1, 23747, Note_on_c, 0, 54, 61
1, 23752, Note_on_c, 0, 48, 50
1, 23780, Note_off_c, 0, 54, 61
1, 23785, Note_off_c, 0, 48, 61
1, 23801, Control_c, 0, 64, 90
1, 23816, Control_c, 0, 64, 72
1, 23831, Control_c, 0, 64, 59
1, 23843, Note_on_c, 0, 53, 62
1, 23846, Control_c, 0, 64, 47
1, 23861, Control_c, 0, 64, 44
1, 23876, Control_c, 0, 64, 42
1, 23887, Note_off_c, 0, 53, 0
1, 23891, Control_c, 0, 64, 35
1, 23899, Note_on_c, 0, 53, 49
1, 23905, Control_c, 0, 64, 30
1, 23910, Note_on_c, 0, 60, 44
1, 23921, Control_c, 0, 64, 28
1, 23930, Note_off_c, 0, 53, 65
1, 23935, Note_off_c, 0, 60, 59
1, 23936, Control_c, 0, 64, 28
1, 23965, Control_c, 0, 64, 27
1, 24002, Note_on_c, 0, 53, 67
1, 24025, Control_c, 0, 64, 27
1, 24031, Note_off_c, 0, 53, 65
1, 24111, Note_on_c, 0, 52, 70
1, 24147, Note_off_c, 0, 52, 66
1, 24204, Note_on_c, 0, 60, 39
1, 24228, Note_off_c, 0, 60, 57
1, 24284, Control_c, 0, 64, 26
1, 24291, Note_on_c, 0, 52, 60
1, 24298, Control_c, 0, 64, 24
1, 24312, Note_on_c, 0, 48, 51
1, 24313, Control_c, 0, 64, 23
1, 24320, Note_off_c, 0, 52, 67
1, 24328, Control_c, 0, 64, 22
1, 24339, Note_off_c, 0, 48, 57
1, 24383, Note_on_c, 0, 62, 73
1, 24387, Control_c, 0, 64, 21
1, 24409, Note_off_c, 0, 62, 67
1, 24464, Note_on_c, 0, 52, 57
1, 24482, Note_on_c, 0, 59, 52
1, 24495, Note_off_c, 0, 52, 65
1, 24505, Note_off_c, 0, 59, 59
1, 24568, Note_on_c, 0, 52, 62
1, 24571, Note_on_c, 0, 47, 58
1, 24598, Note_off_c, 0, 52, 67
1, 24606, Note_off_c, 0, 47, 63
1, 24660, Note_on_c, 0, 68, 64
1, 24668, Note_on_c, 0, 62, 51
1, 24691, Note_off_c, 0, 62, 60
1, 24692, Note_off_c, 0, 68, 64
1, 24736, Note_on_c, 0, 53, 61
1, 24745, Note_on_c, 0, 59, 46
1, 24766, Note_off_c, 0, 53, 65
1, 24770, Note_off_c, 0, 59, 59
1, 24773, Control_c, 0, 64, 21
1, 24817, Note_on_c, 0, 47, 59
1, 24843, Note_on_c, 0, 53, 54
1, 24847, Note_off_c, 0, 47, 63
1, 24875, Note_on_c, 0, 71, 71
1, 24877, Note_off_c, 0, 53, 57
1, 24886, Note_on_c, 0, 62, 55
1, 24901, Note_off_c, 0, 71, 68
1, 24909, Note_off_c, 0, 62, 62
1, 24948, Note_on_c, 0, 74, 81
1, 24974, Note_on_c, 0, 62, 46
1, 24976, Note_off_c, 0, 74, 64
1, 25002, Note_off_c, 0, 62, 57
1, 25038, Note_on_c, 0, 56, 59
1, 25045, Note_on_c, 0, 59, 48
1, 25065, Note_off_c, 0, 56, 64
1, 25068, Note_off_c, 0, 59, 60
1, 25140, Note_on_c, 0, 46, 52
1, 25147, Note_on_c, 0, 56, 45
1, 25174, Note_off_c, 0, 56, 58
1, 25176, Note_off_c, 0, 46, 60
1, 25210, Control_c, 0, 64, 18
1, 25212, Note_on_c, 0, 72, 80
1, 25217, Note_on_c, 0, 65, 65
1, 25225, Control_c, 0, 64, 0
1, 25239, Note_off_c, 0, 72, 65
1, 25247, Note_off_c, 0, 65, 64
1, 25288, Note_on_c, 0, 56, 55
1, 25292, Note_on_c, 0, 59, 61
1, 25318, Note_off_c, 0, 56, 66
1, 25322, Note_off_c, 0, 59, 65
1, 25379, Note_on_c, 0, 56, 53
1, 25380, Note_on_c, 0, 77, 72
1, 25383, Note_on_c, 0, 46, 62
1, 25385, Note_on_c, 0, 71, 73
1, 25395, Note_off_c, 0, 77, 68
1, 25404, Note_off_c, 0, 56, 58
1, 25407, Note_off_c, 0, 46, 59
1, 25410, Note_off_c, 0, 71, 69
1, 25417, Control_c, 0, 64, 61
1, 25432, Control_c, 0, 64, 66
1, 25447, Control_c, 0, 64, 73
1, 25461, Control_c, 0, 64, 85
1, 25476, Control_c, 0, 64, 109
1, 25477, Note_on_c, 0, 54, 81
1, 25481, Note_on_c, 0, 63, 65
1, 25491, Control_c, 0, 64, 127
1, 25501, Note_on_c, 0, 58, 49
1, 25501, Note_off_c, 0, 54, 70
1, 25518, Note_off_c, 0, 63, 61
1, 25531, Note_off_c, 0, 58, 53
1, 25575, Note_on_c, 0, 46, 57
1, 25582, Note_on_c, 0, 39, 51
1, 25600, Note_off_c, 0, 46, 57
1, 25633, Control_c, 0, 64, 92
1, 25643, Note_off_c, 0, 39, 0
1, 25646, Note_on_c, 0, 46, 65
1, 25648, Control_c, 0, 64, 71
1, 25663, Control_c, 0, 64, 50
1, 25665, Note_on_c, 0, 39, 21
1, 25677, Control_c, 0, 64, 0
1, 25678, Note_off_c, 0, 46, 56
1, 25712, Note_on_c, 0, 58, 47
1, 25712, Note_on_c, 0, 54, 43
1, 25717, Note_off_c, 0, 39, 30
1, 25736, Note_on_c, 0, 64, 7
1, 25741, Note_off_c, 0, 58, 46
1, 25743, Note_off_c, 0, 54, 0
1, 25743, Note_on_c, 0, 54, 59
1, 25749, Note_on_c, 0, 65, 94
1, 25751, Note_on_c, 0, 59, 89
1, 25781, Control_c, 0, 64, 49
1, 25795, Note_off_c, 0, 54, 63
1, 25795, Control_c, 0, 64, 68
1, 25801, Note_off_c, 0, 59, 61
1, 25810, Control_c, 0, 64, 78
1, 25814, Note_off_c, 0, 64, 38
1, 25817, Note_off_c, 0, 65, 62
1, 25825, Control_c, 0, 64, 96
1, 25840, Control_c, 0, 64, 127
1, 25854, Note_on_c, 0, 47, 76
1, 25858, Note_on_c, 0, 39, 64
1, 25878, Note_off_c, 0, 47, 65
1, 25888, Note_off_c, 0, 39, 65
1, 25944, Note_on_c, 0, 47, 73
1, 25956, Note_on_c, 0, 39, 68
1, 25982, Note_off_c, 0, 47, 62
1, 25990, Note_off_c, 0, 39, 66
1, 26040, Note_on_c, 0, 51, 84
1, 26048, Control_c, 0, 64, 108
1, 26063, Control_c, 0, 64, 82
1, 26077, Control_c, 0, 64, 66
1, 26085, Note_off_c, 0, 51, 62
1, 26092, Control_c, 0, 64, 42
1, 26107, Control_c, 0, 64, 0
1, 26144, Note_on_c, 0, 46, 72
1, 26166, Note_on_c, 0, 39, 33
1, 26174, Note_off_c, 0, 46, 66
1, 26207, Note_off_c, 0, 39, 45
1, 26235, Note_on_c, 0, 46, 78
1, 26255, Note_on_c, 0, 39, 50
1, 26263, Note_off_c, 0, 46, 66
1, 26287, Note_off_c, 0, 39, 56
1, 26314, Note_on_c, 0, 53, 95
1, 26344, Control_c, 0, 64, 64
1, 26345, Note_off_c, 0, 53, 67
1, 26359, Control_c, 0, 64, 70
1, 26382, Control_c, 0, 64, 80
1, 26397, Control_c, 0, 64, 97
1, 26398, Note_on_c, 0, 39, 63
1, 26412, Control_c, 0, 64, 127
1, 26415, Note_on_c, 0, 47, 59
1, 26434, Note_off_c, 0, 39, 66
1, 26445, Note_off_c, 0, 47, 64
1, 26505, Note_on_c, 0, 39, 68
1, 26514, Note_on_c, 0, 47, 68
1, 26538, Note_off_c, 0, 39, 63
1, 26541, Note_off_c, 0, 47, 65
1, 26560, Control_c, 0, 64, 94
1, 26575, Control_c, 0, 64, 76
1, 26590, Control_c, 0, 64, 65
1, 26605, Control_c, 0, 64, 57
1, 26617, Note_on_c, 0, 62, 69
1, 26619, Control_c, 0, 64, 53
1, 26634, Control_c, 0, 64, 52
1, 26646, Note_off_c, 0, 62, 67
1, 26649, Control_c, 0, 64, 51
1, 26664, Control_c, 0, 64, 49
1, 26679, Control_c, 0, 64, 48
1, 26693, Control_c, 0, 64, 48
1, 26708, Control_c, 0, 64, 47
1, 26713, Note_on_c, 0, 59, 49
1, 26714, Note_on_c, 0, 52, 48
1, 26723, Control_c, 0, 64, 46
1, 26737, Note_off_c, 0, 59, 58
1, 26738, Control_c, 0, 64, 45
1, 26740, Note_off_c, 0, 52, 57
1, 26800, Note_on_c, 0, 52, 56
1, 26803, Note_on_c, 0, 47, 46
1, 26812, Control_c, 0, 64, 45
1, 26824, Note_off_c, 0, 52, 59
1, 26831, Note_off_c, 0, 47, 56
1, 26842, Control_c, 0, 64, 44
1, 26857, Control_c, 0, 64, 43
1, 26883, Note_on_c, 0, 68, 64
1, 26886, Note_on_c, 0, 62, 64
1, 26912, Note_off_c, 0, 68, 64
1, 26917, Note_off_c, 0, 62, 65
1, 26952, Note_on_c, 0, 53, 61
1, 26975, Control_c, 0, 64, 42
1, 26982, Note_on_c, 0, 59, 24
1, 26982, Note_off_c, 0, 53, 66
1, 27005, Control_c, 0, 64, 42
1, 27012, Note_off_c, 0, 59, 44
1, 27049, Control_c, 0, 64, 41
1, 27053, Note_on_c, 0, 47, 45
1, 27053, Note_on_c, 0, 53, 61
1, 27079, Control_c, 0, 64, 40
1, 27081, Note_off_c, 0, 47, 56
1, 27084, Note_off_c, 0, 53, 64
1, 27093, Control_c, 0, 64, 40
1, 27104, Note_on_c, 0, 71, 62
1, 27105, Note_on_c, 0, 62, 56
1, 27108, Control_c, 0, 64, 39
1, 27138, Note_off_c, 0, 62, 63
1, 27142, Note_off_c, 0, 71, 66
1, 27161, Control_c, 0, 64, 38
1, 27173, Note_on_c, 0, 74, 83
1, 27195, Note_on_c, 0, 62, 54
1, 27204, Note_off_c, 0, 74, 65
1, 27218, Note_off_c, 0, 62, 60
1, 27248, Note_on_c, 0, 59, 55
1, 27258, Note_on_c, 0, 56, 56
1, 27280, Note_off_c, 0, 59, 65
1, 27286, Note_off_c, 0, 56, 64
1, 27360, Note_on_c, 0, 46, 55
1, 27368, Note_on_c, 0, 56, 51
1, 27393, Note_off_c, 0, 56, 59
1, 27396, Note_off_c, 0, 46, 63
1, 27441, Note_on_c, 0, 65, 67
1, 27442, Note_on_c, 0, 72, 68
1, 27469, Note_off_c, 0, 72, 68
1, 27471, Note_off_c, 0, 65, 67
1, 27472, Control_c, 0, 64, 38
1, 27487, Control_c, 0, 64, 33
1, 27502, Control_c, 0, 64, 23
1, 27503, Note_on_c, 0, 56, 57
1, 27510, Note_on_c, 0, 59, 59
1, 27516, Control_c, 0, 64, 0
1, 27539, Note_off_c, 0, 56, 65
1, 27540, Note_off_c, 0, 59, 65
1, 27596, Note_on_c, 0, 56, 63
1, 27606, Note_on_c, 0, 46, 55
1, 27612, Note_on_c, 0, 77, 73
1, 27617, Note_on_c, 0, 71, 67
1, 27618, Note_off_c, 0, 56, 63
1, 27634, Note_off_c, 0, 46, 56
1, 27640, Note_off_c, 0, 77, 64
1, 27644, Note_off_c, 0, 71, 68
1, 27664, Control_c, 0, 64, 57
1, 27679, Control_c, 0, 64, 69
1, 27694, Control_c, 0, 64, 82
1, 27708, Note_on_c, 0, 63, 73
1, 27709, Control_c, 0, 64, 121
1, 27710, Note_on_c, 0, 54, 81
1, 27724, Control_c, 0, 64, 127
1, 27736, Note_off_c, 0, 54, 69
1, 27772, Note_off_c, 0, 63, 60
1, 27813, Poly_aftertouch_c, 0, 61, 0
1, 27819, Note_on_c, 0, 39, 19
1, 27837, Note_on_c, 0, 46, 14
1, 27842, Control_c, 0, 64, 119
1, 27857, Control_c, 0, 64, 89
1, 27879, Control_c, 0, 64, 68
1, 27882, Note_off_c, 0, 46, 63
1, 27890, Note_off_c, 0, 39, 61
1, 27894, Control_c, 0, 64, 38
1, 27909, Control_c, 0, 64, 0
1, 27936, Note_on_c, 0, 64, 78
1, 27936, Note_on_c, 0, 54, 72
1, 27937, Note_on_c, 0, 58, 71
1, 27961, Note_off_c, 0, 64, 66
1, 27962, Note_off_c, 0, 54, 67
1, 27964, Note_off_c, 0, 58, 66
1, 27999, Note_on_c, 0, 65, 95
1, 28002, Note_on_c, 0, 54, 92
1, 28004, Note_on_c, 0, 59, 87
1, 28013, Control_c, 0, 64, 55
1, 28028, Control_c, 0, 64, 68
1, 28043, Control_c, 0, 64, 75
1, 28058, Control_c, 0, 64, 87
1, 28058, Note_off_c, 0, 59, 65
1, 28061, Note_off_c, 0, 54, 60
1, 28068, Note_off_c, 0, 65, 66
1, 28072, Control_c, 0, 64, 101
1, 28082, Note_on_c, 0, 47, 66
1, 28085, Note_on_c, 0, 39, 62
1, 28087, Control_c, 0, 64, 118
1, 28102, Control_c, 0, 64, 127
1, 28112, Note_off_c, 0, 47, 63
1, 28115, Note_off_c, 0, 39, 62
1, 28177, Note_on_c, 0, 47, 69
1, 28186, Note_on_c, 0, 39, 62
1, 28203, Note_off_c, 0, 47, 67
1, 28214, Note_off_c, 0, 39, 61
1, 28287, Note_on_c, 0, 51, 83
1, 28294, Control_c, 0, 64, 115
1, 28309, Control_c, 0, 64, 92
1, 28324, Control_c, 0, 64, 78
1, 28338, Control_c, 0, 64, 66
1, 28340, Note_off_c, 0, 51, 62
1, 28353, Control_c, 0, 64, 53
1, 28368, Control_c, 0, 64, 0
1, 28387, Note_on_c, 0, 46, 54
1, 28413, Note_off_c, 0, 46, 58
1, 28471, Note_on_c, 0, 39, 52
1, 28478, Note_on_c, 0, 46, 72
1, 28508, Note_off_c, 0, 39, 63
1, 28509, Note_off_c, 0, 46, 65
1, 28569, Note_on_c, 0, 53, 98
1, 28590, Control_c, 0, 64, 49
1, 28598, Note_off_c, 0, 53, 68
1, 28612, Control_c, 0, 64, 66
1, 28627, Control_c, 0, 64, 72
1, 28642, Control_c, 0, 64, 82
1, 28657, Control_c, 0, 64, 96
1, 28672, Control_c, 0, 64, 127
1, 28677, Note_on_c, 0, 39, 69
1, 28681, Note_on_c, 0, 47, 69
1, 28706, Note_off_c, 0, 39, 64
1, 28711, Note_off_c, 0, 47, 64
1, 28777, Note_on_c, 0, 47, 67
1, 28780, Note_on_c, 0, 39, 64
1, 28803, Note_off_c, 0, 47, 67
1, 28806, Control_c, 0, 64, 110
1, 28812, Note_off_c, 0, 39, 65
1, 28821, Control_c, 0, 64, 85
1, 28836, Control_c, 0, 64, 69
1, 28851, Control_c, 0, 64, 59
1, 28866, Control_c, 0, 64, 48
1, 28872, Note_on_c, 0, 50, 62
1, 28881, Control_c, 0, 64, 47
1, 28895, Control_c, 0, 64, 46
1, 28902, Note_off_c, 0, 50, 65
1, 28910, Control_c, 0, 64, 42
1, 28925, Control_c, 0, 64, 38
1, 28940, Control_c, 0, 64, 35
1, 28955, Control_c, 0, 64, 32
1, 28965, Note_on_c, 0, 45, 62
1, 28969, Control_c, 0, 64, 29
1, 28984, Control_c, 0, 64, 25
1, 28994, Note_off_c, 0, 45, 65
1, 28999, Control_c, 0, 64, 21
1, 29013, Control_c, 0, 64, 19
1, 29028, Control_c, 0, 64, 18
1, 29043, Control_c, 0, 64, 17
1, 29058, Control_c, 0, 64, 16
1, 29060, Note_on_c, 0, 44, 62
1, 29073, Control_c, 0, 64, 13
1, 29087, Control_c, 0, 64, 12
1, 29097, Note_off_c, 0, 44, 62
1, 29102, Control_c, 0, 64, 9
1, 29117, Control_c, 0, 64, 0
1, 29119, Note_on_c, 0, 56, 62
1, 29123, Note_on_c, 0, 50, 53
1, 29143, Note_on_c, 0, 42, 58
1, 29154, Note_off_c, 0, 56, 64
1, 29158, Note_off_c, 0, 50, 62
1, 29171, Note_off_c, 0, 42, 59
1, 29223, Note_on_c, 0, 41, 67
1, 29254, Note_off_c, 0, 41, 64
1, 29286, Note_on_c, 0, 59, 64
1, 29301, Note_on_c, 0, 50, 32
1, 29306, Note_on_c, 0, 40, 35
1, 29321, Note_off_c, 0, 59, 64
1, 29343, Note_off_c, 0, 40, 51
1, 29369, Note_on_c, 0, 62, 77
1, 29370, Note_off_c, 0, 50, 0
1, 29382, Note_on_c, 0, 38, 69
1, 29384, Note_on_c, 0, 50, 35
1, 29385, Note_on_c, 0, 43, 66
1, 29387, Note_on_c, 0, 53, 49
1, 29401, Note_off_c, 0, 62, 63
1, 29408, Note_off_c, 0, 38, 64
1, 29414, Note_off_c, 0, 43, 65
1, 29414, Note_off_c, 0, 53, 57
1, 29420, Note_off_c, 0, 50, 40
1, 29671, Note_on_c, 0, 60, 64
1, 29681, Note_on_c, 0, 54, 53
1, 29685, Note_on_c, 0, 50, 46
1, 29697, Note_on_c, 0, 44, 32
1, 29704, Note_off_c, 0, 60, 66
1, 29711, Note_off_c, 0, 54, 65
1, 29714, Note_off_c, 0, 50, 51
1, 29733, Note_off_c, 0, 44, 45
1, 29978, Note_on_c, 0, 59, 55
1, 29978, Note_on_c, 0, 53, 46
1, 29981, Note_on_c, 0, 38, 41
1, 29984, Note_on_c, 0, 50, 46
1, 29985, Note_on_c, 0, 45, 35
1, 30005, Note_off_c, 0, 53, 59
1, 30010, Note_off_c, 0, 59, 65
1, 30013, Note_off_c, 0, 50, 56
1, 30015, Note_off_c, 0, 38, 47
1, 30020, Note_off_c, 0, 45, 45
1, 30280, Note_on_c, 0, 46, 40
1, 30287, Note_on_c, 0, 56, 45
1, 30289, Note_on_c, 0, 38, 25
1, 30292, Note_on_c, 0, 52, 35
1, 30296, Note_on_c, 0, 50, 33
1, 30311, Note_off_c, 0, 46, 55
1, 30323, Note_off_c, 0, 52, 52
1, 30325, Note_off_c, 0, 56, 65
1, 30332, Note_off_c, 0, 50, 45
1, 30332, Note_off_c, 0, 38, 41
1, 30564, Note_on_c, 0, 52, 48
1, 30577, Note_on_c, 0, 57, 43
1, 30606, Note_off_c, 0, 52, 63
1, 30610, Note_off_c, 0, 57, 54
1, 30675, Note_on_c, 0, 48, 38
1, 30675, Note_on_c, 0, 45, 55
1, 30706, Note_off_c, 0, 48, 45
1, 30711, Note_off_c, 0, 45, 65
1, 30762, Note_on_c, 0, 52, 63
1, 30791, Note_off_c, 0, 52, 67
1, 30842, Note_on_c, 0, 60, 68
1, 30880, Note_off_c, 0, 60, 65
1, 30945, Note_on_c, 0, 54, 60
1, 30947, Note_on_c, 0, 57, 61
1, 30977, Note_off_c, 0, 54, 66
1, 30978, Note_off_c, 0, 57, 65
1, 31036, Note_on_c, 0, 56, 69
1, 31064, Note_off_c, 0, 56, 66
1, 31128, Note_on_c, 0, 57, 69
1, 31164, Note_off_c, 0, 57, 65
1, 31218, Note_on_c, 0, 45, 46
1, 31224, Note_on_c, 0, 60, 59
1, 31253, Note_off_c, 0, 60, 65
1, 31262, Note_off_c, 0, 45, 62
1, 31276, Control_c, 0, 64, 9
1, 31303, Note_on_c, 0, 52, 54
1, 31337, Note_off_c, 0, 52, 66
1, 31394, Note_on_c, 0, 60, 60
1, 31423, Control_c, 0, 64, 11
1, 31427, Note_off_c, 0, 60, 66
1, 31486, Note_on_c, 0, 54, 58
1, 31488, Note_on_c, 0, 57, 67
1, 31518, Note_off_c, 0, 57, 66
1, 31519, Note_off_c, 0, 54, 65
1, 31575, Note_on_c, 0, 56, 68
1, 31616, Note_off_c, 0, 56, 64
1, 31672, Note_on_c, 0, 57, 76
1, 31709, Note_off_c, 0, 57, 62
1, 31766, Note_on_c, 0, 60, 67
1, 31773, Note_on_c, 0, 45, 51
1, 31795, Note_off_c, 0, 60, 67
1, 31823, Note_off_c, 0, 45, 60
1, 31863, Note_on_c, 0, 52, 61
1, 31894, Note_off_c, 0, 52, 65
1, 31936, Note_on_c, 0, 60, 75
1, 31971, Note_off_c, 0, 60, 66
1, 32037, Note_on_c, 0, 54, 65
1, 32040, Note_on_c, 0, 57, 73
1, 32067, Note_off_c, 0, 54, 67
1, 32069, Note_off_c, 0, 57, 66
1, 32129, Note_on_c, 0, 56, 80
1, 32162, Note_off_c, 0, 56, 66
1, 32209, Note_on_c, 0, 57, 73
1, 32245, Note_off_c, 0, 57, 64
1, 32303, Note_on_c, 0, 45, 65
1, 32306, Note_on_c, 0, 60, 70
1, 32332, Note_off_c, 0, 60, 67
1, 32342, Note_off_c, 0, 45, 65
1, 32402, Note_on_c, 0, 52, 64
1, 32431, Note_off_c, 0, 52, 67
1, 32496, Note_on_c, 0, 60, 62
1, 32528, Note_off_c, 0, 60, 66
1, 32575, Note_on_c, 0, 54, 51
1, 32595, Note_on_c, 0, 57, 61
1, 32610, Note_off_c, 0, 54, 65
1, 32625, Note_off_c, 0, 57, 66
1, 32668, Note_on_c, 0, 56, 61
1, 32699, Note_off_c, 0, 56, 66
1, 32754, Note_on_c, 0, 57, 65
1, 32809, Note_off_c, 0, 57, 56
1, 32853, Note_on_c, 0, 60, 62
1, 32861, Note_on_c, 0, 45, 35
1, 32882, Note_off_c, 0, 60, 66
1, 32920, Note_off_c, 0, 45, 58
1, 32952, Note_on_c, 0, 52, 54
1, 32976, Note_off_c, 0, 52, 64
1, 33027, Note_on_c, 0, 60, 57
1, 33118, Note_off_c, 0, 60, 59
1, 33136, Note_on_c, 0, 63, 64
1, 33143, Note_on_c, 0, 59, 50
1, 33201, Note_off_c, 0, 59, 55
1, 33222, Note_on_c, 0, 64, 72
1, 33225, Note_off_c, 0, 63, 63
1, 33230, Note_on_c, 0, 58, 59
1, 33309, Note_off_c, 0, 58, 64
1, 33316, Note_on_c, 0, 66, 73
1, 33322, Note_on_c, 0, 57, 65
1, 33331, Note_off_c, 0, 64, 59
1, 33376, Note_off_c, 0, 66, 63
1, 33400, Note_off_c, 0, 57, 64
1, 33402, Note_on_c, 0, 64, 74
1, 33415, Note_on_c, 0, 58, 68
1, 33454, Note_off_c, 0, 58, 63
1, 33489, Note_on_c, 0, 57, 73
1, 33492, Note_on_c, 0, 66, 83
1, 33504, Note_off_c, 0, 64, 60
1, 33522, Control_c, 0, 64, 12
1, 33562, Note_off_c, 0, 57, 61
1, 33576, Note_on_c, 0, 53, 72
1, 33583, Note_on_c, 0, 68, 77
1, 33590, Note_off_c, 0, 66, 62
1, 33638, Note_off_c, 0, 53, 63
1, 33643, Note_off_c, 0, 68, 63
1, 33653, Note_on_c, 0, 52, 56
1, 33669, Note_on_c, 0, 69, 79
1, 33699, Control_c, 0, 64, 0
1, 33725, Note_off_c, 0, 52, 65
1, 33742, Note_off_c, 0, 69, 61
1, 33745, Note_on_c, 0, 48, 63
1, 33761, Note_on_c, 0, 72, 59
1, 33772, Note_off_c, 0, 48, 66
1, 33791, Note_off_c, 0, 72, 66
1, 33847, Note_on_c, 0, 76, 68
1, 33847, Control_c, 0, 64, 46
1, 33852, Note_on_c, 0, 72, 68
1, 33870, Control_c, 0, 64, 58
1, 33877, Note_off_c, 0, 72, 67
1, 33883, Note_off_c, 0, 76, 67
1, 33884, Control_c, 0, 64, 62
1, 33899, Control_c, 0, 64, 64
1, 33914, Control_c, 0, 64, 66
1, 33929, Control_c, 0, 64, 68
1, 33944, Control_c, 0, 64, 71
1, 33950, Note_on_c, 0, 45, 59
1, 33958, Control_c, 0, 64, 74
1, 33973, Control_c, 0, 64, 74
1, 33987, Note_off_c, 0, 45, 63
1, 33988, Control_c, 0, 64, 73
1, 34003, Control_c, 0, 64, 71
1, 34017, Control_c, 0, 64, 67
1, 34025, Note_on_c, 0, 52, 65
1, 34032, Control_c, 0, 64, 62
1, 34047, Control_c, 0, 64, 56
1, 34054, Note_off_c, 0, 52, 67
1, 34062, Control_c, 0, 64, 51
1, 34072, Note_on_c, 0, 69, 61
1, 34074, Note_on_c, 0, 72, 62
1, 34077, Control_c, 0, 64, 46
1, 34091, Control_c, 0, 64, 41
1, 34106, Note_off_c, 0, 72, 60
1, 34106, Control_c, 0, 64, 38
1, 34121, Note_off_c, 0, 69, 58
1, 34121, Control_c, 0, 64, 36
1, 34136, Control_c, 0, 64, 35
1, 34142, Note_on_c, 0, 60, 57
1, 34142, Note_on_c, 0, 64, 55
1, 34151, Control_c, 0, 64, 34
1, 34181, Control_c, 0, 64, 33
1, 34225, Control_c, 0, 64, 33
1, 34237, Note_on_c, 0, 54, 60
1, 34242, Note_off_c, 0, 64, 54
1, 34273, Note_off_c, 0, 54, 65
1, 34289, Note_off_c, 0, 60, 61
1, 34327, Note_on_c, 0, 56, 67
1, 34360, Note_off_c, 0, 56, 65
1, 34374, Control_c, 0, 64, 32
1, 34419, Note_on_c, 0, 57, 72
1, 34454, Note_off_c, 0, 57, 65
1, 34478, Control_c, 0, 64, 32
1, 34502, Note_on_c, 0, 45, 51
1, 34504, Note_on_c, 0, 60, 66
1, 34532, Note_off_c, 0, 60, 67
1, 34544, Note_off_c, 0, 45, 62
1, 34584, Note_on_c, 0, 52, 60
1, 34621, Note_off_c, 0, 52, 67
1, 34682, Note_on_c, 0, 60, 75
1, 34719, Note_off_c, 0, 60, 64
1, 34757, Note_on_c, 0, 54, 70
1, 34767, Note_on_c, 0, 57, 81
1, 34790, Note_off_c, 0, 54, 67
1, 34803, Note_off_c, 0, 57, 63
1, 34846, Note_on_c, 0, 56, 79
1, 34878, Note_off_c, 0, 56, 67
1, 34920, Note_on_c, 0, 57, 77
1, 34995, Note_off_c, 0, 57, 61
1, 35021, Note_on_c, 0, 60, 66
1, 35024, Note_on_c, 0, 45, 53
1, 35048, Note_off_c, 0, 60, 67
1, 35087, Note_off_c, 0, 45, 57
1, 35116, Note_on_c, 0, 52, 63
1, 35143, Note_off_c, 0, 52, 67
1, 35188, Note_on_c, 0, 64, 59
1, 35264, Note_off_c, 0, 64, 60
1, 35287, Note_on_c, 0, 68, 65
1, 35308, Note_on_c, 0, 62, 56
1, 35356, Note_off_c, 0, 62, 62
1, 35379, Note_on_c, 0, 69, 74
1, 35382, Control_c, 0, 64, 32
1, 35389, Note_on_c, 0, 60, 62
1, 35389, Note_off_c, 0, 68, 59
1, 35411, Control_c, 0, 64, 33
1, 35458, Note_off_c, 0, 60, 64
1, 35471, Note_on_c, 0, 71, 78
1, 35478, Note_on_c, 0, 59, 66
1, 35478, Note_off_c, 0, 69, 63
1, 35533, Note_off_c, 0, 59, 61
1, 35544, Control_c, 0, 64, 33
1, 35554, Note_on_c, 0, 69, 78
1, 35554, Note_off_c, 0, 71, 61
1, 35556, Note_on_c, 0, 60, 68
1, 35620, Note_off_c, 0, 60, 64
1, 35639, Note_on_c, 0, 59, 73
1, 35650, Note_on_c, 0, 71, 85
1, 35650, Note_off_c, 0, 69, 65
1, 35683, Note_off_c, 0, 59, 62
1, 35692, Note_off_c, 0, 71, 63
1, 35732, Note_on_c, 0, 57, 61
1, 35736, Note_on_c, 0, 72, 80
1, 35787, Note_off_c, 0, 57, 54
1, 35813, Note_on_c, 0, 53, 65
1, 35817, Note_on_c, 0, 75, 78
1, 35817, Note_off_c, 0, 72, 61
1, 35855, Control_c, 0, 64, 33
1, 35870, Control_c, 0, 64, 25
1, 35877, Note_off_c, 0, 53, 62
1, 35885, Control_c, 0, 64, 0
1, 35895, Note_on_c, 0, 52, 61
1, 35899, Note_off_c, 0, 75, 60
1, 35901, Note_on_c, 0, 76, 79
1, 35936, Note_off_c, 0, 52, 66
1, 35978, Note_off_c, 0, 76, 63
1, 35987, Note_on_c, 0, 81, 81
1, 35990, Control_c, 0, 64, 46
1, 35996, Note_on_c, 0, 77, 59
1, 36004, Control_c, 0, 64, 59
1, 36014, Note_off_c, 0, 77, 63
1, 36019, Note_off_c, 0, 81, 64
1, 36019, Control_c, 0, 64, 64
1, 36034, Control_c, 0, 64, 66
1, 36049, Control_c, 0, 64, 69
1, 36064, Control_c, 0, 64, 71
1, 36078, Control_c, 0, 64, 72
1, 36103, Note_on_c, 0, 48, 51
1, 36115, Control_c, 0, 64, 71
1, 36130, Control_c, 0, 64, 69
1, 36145, Control_c, 0, 64, 66
1, 36147, Note_off_c, 0, 48, 59
1, 36160, Control_c, 0, 64, 61
1, 36170, Note_on_c, 0, 56, 65
1, 36175, Control_c, 0, 64, 54
1, 36190, Control_c, 0, 64, 50
1, 36199, Note_off_c, 0, 56, 67
1, 36205, Control_c, 0, 64, 47
1, 36206, Note_on_c, 0, 76, 71
1, 36208, Note_on_c, 0, 72, 68
1, 36219, Control_c, 0, 64, 42
1, 36234, Control_c, 0, 64, 37
1, 36249, Control_c, 0, 64, 35
1, 36250, Note_off_c, 0, 76, 62
1, 36264, Control_c, 0, 64, 34
1, 36273, Note_off_c, 0, 72, 63
1, 36278, Control_c, 0, 64, 33
1, 36282, Note_on_c, 0, 69, 61
1, 36288, Note_on_c, 0, 64, 61
1, 36308, Control_c, 0, 64, 33
1, 36323, Control_c, 0, 64, 32
1, 36338, Control_c, 0, 64, 32
1, 36352, Control_c, 0, 64, 31
1, 36367, Control_c, 0, 64, 31
1, 36379, Note_on_c, 0, 57, 60
1, 36381, Note_off_c, 0, 69, 58
1, 36382, Control_c, 0, 64, 30
1, 36410, Note_off_c, 0, 57, 66
1, 36438, Note_off_c, 0, 64, 56
1, 36478, Note_on_c, 0, 59, 66
1, 36509, Note_off_c, 0, 59, 65
1, 36542, Note_on_c, 0, 60, 75
1, 36581, Note_off_c, 0, 60, 58
1, 36637, Note_on_c, 0, 64, 70
1, 36644, Note_on_c, 0, 48, 53
1, 36663, Note_off_c, 0, 64, 67
1, 36682, Note_off_c, 0, 48, 64
1, 36724, Note_on_c, 0, 56, 53
1, 36749, Note_off_c, 0, 56, 58
1, 36768, Control_c, 0, 64, 31
1, 36792, Note_on_c, 0, 69, 71
1, 36798, Control_c, 0, 64, 31
1, 36827, Control_c, 0, 64, 32
1, 36888, Note_off_c, 0, 69, 60
1, 36893, Note_on_c, 0, 71, 72
1, 36900, Note_on_c, 0, 68, 62
1, 36953, Control_c, 0, 64, 32
1, 36968, Control_c, 0, 64, 33
1, 36972, Note_off_c, 0, 68, 61
1, 36981, Note_off_c, 0, 71, 61
1, 36983, Note_on_c, 0, 72, 74
1, 36991, Note_on_c, 0, 65, 59
1, 37042, Control_c, 0, 64, 34
1, 37072, Control_c, 0, 64, 34
1, 37072, Note_on_c, 0, 76, 78
1, 37072, Note_off_c, 0, 72, 63
1, 37076, Note_off_c, 0, 65, 63
1, 37082, Note_on_c, 0, 64, 69
1, 37149, Note_off_c, 0, 76, 61
1, 37156, Note_off_c, 0, 64, 63
1, 37161, Control_c, 0, 64, 35
1, 37162, Note_on_c, 0, 75, 79
1, 37165, Note_on_c, 0, 65, 70
1, 37190, Control_c, 0, 64, 35
1, 37216, Note_off_c, 0, 65, 62
1, 37235, Note_off_c, 0, 75, 63
1, 37249, Control_c, 0, 64, 36
1, 37250, Note_on_c, 0, 76, 85
1, 37254, Note_on_c, 0, 64, 74
1, 37294, Control_c, 0, 64, 36
1, 37333, Note_on_c, 0, 62, 79
1, 37333, Note_off_c, 0, 64, 60
1, 37337, Note_on_c, 0, 77, 88
1, 37346, Note_off_c, 0, 76, 63
1, 37353, Control_c, 0, 64, 37
1, 37397, Control_c, 0, 64, 37
1, 37412, Control_c, 0, 64, 38
1, 37415, Note_off_c, 0, 62, 63
1, 37423, Note_on_c, 0, 59, 75
1, 37427, Control_c, 0, 64, 38
1, 37427, Note_on_c, 0, 80, 85
1, 37439, Note_off_c, 0, 77, 63
1, 37457, Control_c, 0, 64, 39
1, 37472, Control_c, 0, 64, 39
1, 37475, Note_off_c, 0, 59, 64
1, 37486, Control_c, 0, 64, 40
1, 37490, Note_off_c, 0, 80, 64
1, 37502, Control_c, 0, 64, 40
1, 37507, Note_on_c, 0, 57, 81
1, 37515, Note_on_c, 0, 81, 88
1, 37517, Control_c, 0, 64, 41
1, 37531, Control_c, 0, 64, 41
1, 37546, Control_c, 0, 64, 42
1, 37588, Note_off_c, 0, 57, 61
1, 37608, Note_on_c, 0, 84, 87
1, 37609, Note_on_c, 0, 52, 67
1, 37618, Note_off_c, 0, 81, 66
1, 37621, Note_on_c, 0, 50, 51
1, 37628, Control_c, 0, 64, 42
1, 37650, Note_off_c, 0, 50, 48
1, 37681, Note_off_c, 0, 52, 65
1, 37695, Note_on_c, 0, 83, 88
1, 37695, Note_off_c, 0, 84, 64
1, 37697, Note_on_c, 0, 53, 80
1, 37754, Note_off_c, 0, 53, 59
1, 37755, Note_off_c, 0, 83, 61
1, 37778, Note_on_c, 0, 52, 84
1, 37785, Note_on_c, 0, 84, 88
1, 37821, Control_c, 0, 64, 43
1, 37870, Note_off_c, 0, 52, 62
1, 37873, Note_on_c, 0, 88, 86
1, 37880, Note_on_c, 0, 48, 62
1, 37884, Note_off_c, 0, 84, 65
1, 37886, Note_on_c, 0, 47, 65
1, 37925, Note_off_c, 0, 47, 60
1, 37937, Note_off_c, 0, 48, 60
1, 37951, Note_off_c, 0, 88, 62
1, 37962, Note_on_c, 0, 89, 88
1, 37972, Note_on_c, 0, 45, 73
1, 38025, Note_on_c, 0, 44, 74
1, 38031, Note_off_c, 0, 45, 64
1, 38039, Note_on_c, 0, 90, 81
1, 38044, Control_c, 0, 64, 39
1, 38058, Control_c, 0, 64, 0
1, 38068, Note_off_c, 0, 89, 62
1, 38074, Note_off_c, 0, 44, 63
1, 38098, Note_off_c, 0, 90, 64
1, 38124, Note_on_c, 0, 91, 101
1, 38125, Note_on_c, 0, 79, 93
1, 38130, Note_on_c, 0, 84, 90
1, 38132, Control_c, 0, 64, 45
1, 38147, Control_c, 0, 64, 63
1, 38157, Note_off_c, 0, 84, 62
1, 38162, Control_c, 0, 64, 69
1, 38167, Note_off_c, 0, 91, 67
1, 38176, Control_c, 0, 64, 77
1, 38180, Note_off_c, 0, 79, 61
1, 38191, Control_c, 0, 64, 84
1, 38206, Control_c, 0, 64, 89
1, 38217, Note_on_c, 0, 43, 81
1, 38221, Control_c, 0, 64, 91
1, 38236, Control_c, 0, 64, 92
1, 38250, Control_c, 0, 64, 92
1, 38265, Control_c, 0, 64, 91
1, 38278, Note_off_c, 0, 43, 63
1, 38280, Control_c, 0, 64, 84
1, 38283, Note_on_c, 0, 52, 78
1, 38296, Control_c, 0, 64, 70
1, 38311, Control_c, 0, 64, 51
1, 38326, Control_c, 0, 64, 0
1, 38333, Note_on_c, 0, 84, 77
1, 38335, Note_on_c, 0, 88, 83
1, 38363, Control_c, 0, 64, 11
1, 38365, Note_off_c, 0, 52, 65
1, 38366, Note_on_c, 0, 86, 59
1, 38378, Control_c, 0, 64, 49
1, 38393, Control_c, 0, 64, 63
1, 38393, Note_on_c, 0, 60, 76
1, 38404, Note_on_c, 0, 79, 83
1, 38407, Note_on_c, 0, 76, 92
1, 38408, Control_c, 0, 64, 68
1, 38414, Note_off_c, 0, 86, 33
1, 38416, Note_off_c, 0, 88, 62
1, 38418, Note_off_c, 0, 84, 61
1, 38422, Control_c, 0, 64, 76
1, 38437, Note_off_c, 0, 60, 64
1, 38437, Control_c, 0, 64, 83
1, 38443, Note_off_c, 0, 79, 66
1, 38451, Control_c, 0, 64, 88
1, 38456, Note_off_c, 0, 76, 65
1, 38466, Control_c, 0, 64, 89
1, 38480, Control_c, 0, 64, 89
1, 38498, Note_on_c, 0, 64, 83
1, 38525, Control_c, 0, 64, 90
1, 38540, Control_c, 0, 64, 91
1, 38548, Note_off_c, 0, 64, 63
1, 38554, Control_c, 0, 64, 92
1, 38569, Control_c, 0, 64, 91
1, 38584, Control_c, 0, 64, 85
1, 38595, Note_on_c, 0, 72, 84
1, 38599, Control_c, 0, 64, 70
1, 38614, Control_c, 0, 64, 53
1, 38625, Note_off_c, 0, 72, 67
1, 38628, Control_c, 0, 64, 0
1, 38658, Control_c, 0, 64, 26
1, 38673, Control_c, 0, 64, 52
1, 38675, Note_on_c, 0, 88, 91
1, 38677, Note_on_c, 0, 80, 92
1, 38682, Note_on_c, 0, 76, 98
1, 38688, Control_c, 0, 64, 63
1, 38703, Control_c, 0, 64, 69
1, 38718, Note_off_c, 0, 80, 66
1, 38718, Control_c, 0, 64, 77
1, 38721, Note_off_c, 0, 88, 66
1, 38732, Note_off_c, 0, 76, 61
1, 38732, Control_c, 0, 64, 86
1, 38747, Control_c, 0, 64, 90
1, 38762, Control_c, 0, 64, 91
1, 38798, Note_on_c, 0, 76, 80
1, 38821, Control_c, 0, 64, 91
1, 38836, Control_c, 0, 64, 92
1, 38839, Note_off_c, 0, 76, 58
1, 38851, Control_c, 0, 64, 92
1, 38880, Control_c, 0, 64, 89
1, 38889, Note_on_c, 0, 76, 50
1, 38889, Note_on_c, 0, 80, 69
1, 38895, Control_c, 0, 64, 78
1, 38901, Note_on_c, 0, 84, 85
1, 38909, Note_off_c, 0, 76, 61
1, 38910, Control_c, 0, 64, 63
1, 38925, Control_c, 0, 64, 32
1, 38940, Control_c, 0, 64, 39
1, 38954, Control_c, 0, 64, 54
1, 38956, Note_on_c, 0, 72, 89
1, 38964, Note_on_c, 0, 76, 88
1, 38964, Note_off_c, 0, 84, 67
1, 38969, Control_c, 0, 64, 62
1, 38984, Control_c, 0, 64, 67
1, 38993, Note_off_c, 0, 80, 63
1, 38998, Control_c, 0, 64, 75
1, 39011, Note_off_c, 0, 72, 64
1, 39013, Control_c, 0, 64, 84
1, 39020, Note_off_c, 0, 76, 45
1, 39028, Control_c, 0, 64, 86
1, 39043, Control_c, 0, 64, 85
1, 39054, Note_on_c, 0, 68, 72
1, 39058, Control_c, 0, 64, 84
1, 39087, Control_c, 0, 64, 84
1, 39111, Control_c, 0, 64, 85
1, 39126, Control_c, 0, 64, 85
1, 39156, Note_off_c, 0, 68, 62
1, 39156, Control_c, 0, 64, 81
1, 39159, Note_on_c, 0, 60, 76
1, 39171, Control_c, 0, 64, 69
1, 39185, Control_c, 0, 64, 54
1, 39189, Note_off_c, 0, 60, 67
1, 39200, Control_c, 0, 64, 30
1, 39215, Control_c, 0, 64, 36
1, 39229, Control_c, 0, 64, 49
1, 39243, Note_on_c, 0, 84, 93
1, 39244, Control_c, 0, 64, 59
1, 39246, Note_on_c, 0, 77, 88
1, 39248, Note_on_c, 0, 72, 92
1, 39259, Control_c, 0, 64, 65
1, 39274, Control_c, 0, 64, 69
1, 39277, Note_off_c, 0, 77, 66
1, 39289, Control_c, 0, 64, 74
1, 39292, Note_off_c, 0, 84, 67
1, 39298, Note_off_c, 0, 72, 63
1, 39303, Control_c, 0, 64, 77
1, 39318, Control_c, 0, 64, 77
1, 39348, Control_c, 0, 64, 78
1, 39349, Note_on_c, 0, 72, 62
1, 39363, Control_c, 0, 64, 78
1, 39371, Note_on_c, 0, 71, 39
1, 39377, Control_c, 0, 64, 80
1, 39392, Control_c, 0, 64, 81
1, 39393, Note_off_c, 0, 72, 65
1, 39400, Note_off_c, 0, 71, 54
1, 39407, Control_c, 0, 64, 80
1, 39421, Control_c, 0, 64, 78
1, 39434, Note_on_c, 0, 72, 49
1, 39436, Control_c, 0, 64, 69
1, 39439, Note_on_c, 0, 77, 49
1, 39451, Control_c, 0, 64, 56
1, 39454, Note_on_c, 0, 81, 75
1, 39461, Note_off_c, 0, 72, 58
1, 39466, Control_c, 0, 64, 34
1, 39481, Control_c, 0, 64, 41
1, 39496, Control_c, 0, 64, 53
1, 39509, Note_on_c, 0, 69, 88
1, 39510, Control_c, 0, 64, 61
1, 39519, Note_on_c, 0, 72, 86
1, 39524, Note_off_c, 0, 81, 65
1, 39525, Control_c, 0, 64, 66
1, 39540, Control_c, 0, 64, 72
1, 39546, Note_off_c, 0, 77, 62
1, 39555, Control_c, 0, 64, 79
1, 39565, Note_off_c, 0, 69, 62
1, 39570, Control_c, 0, 64, 84
1, 39571, Note_off_c, 0, 72, 65
1, 39614, Note_on_c, 0, 65, 58
1, 39615, Control_c, 0, 64, 85
1, 39629, Control_c, 0, 64, 85
1, 39644, Control_c, 0, 64, 87
1, 39659, Control_c, 0, 64, 88
1, 39674, Control_c, 0, 64, 85
1, 39689, Control_c, 0, 64, 73
1, 39701, Note_off_c, 0, 65, 62
1, 39703, Control_c, 0, 64, 58
1, 39705, Note_on_c, 0, 57, 76
1, 39718, Control_c, 0, 64, 38
1, 39733, Control_c, 0, 64, 44
1, 39740, Note_off_c, 0, 57, 65
1, 39748, Control_c, 0, 64, 54
1, 39763, Control_c, 0, 64, 62
1, 39777, Control_c, 0, 64, 67
1, 39788, Note_on_c, 0, 83, 84
1, 39791, Note_on_c, 0, 75, 90
1, 39792, Control_c, 0, 64, 73
1, 39801, Note_on_c, 0, 71, 80
1, 39802, Note_on_c, 0, 69, 85
1, 39807, Control_c, 0, 64, 81
1, 39813, Note_off_c, 0, 83, 64
1, 39821, Control_c, 0, 64, 88
1, 39832, Note_off_c, 0, 71, 64
1, 39834, Note_off_c, 0, 69, 68
1, 39834, Note_off_c, 0, 75, 61
1, 39836, Control_c, 0, 64, 91
1, 39859, Control_c, 0, 64, 92
1, 39874, Control_c, 0, 64, 95
1, 39889, Control_c, 0, 64, 99
1, 39904, Control_c, 0, 64, 105
1, 39919, Control_c, 0, 64, 111
1, 39930, Note_on_c, 0, 44, 59
1, 39931, Note_on_c, 0, 56, 53
1, 39934, Control_c, 0, 64, 108
1, 39949, Control_c, 0, 64, 88
1, 39955, Note_off_c, 0, 44, 59
1, 39957, Note_off_c, 0, 56, 62
1, 39964, Control_c, 0, 64, 68
1, 39978, Control_c, 0, 64, 49
1, 39993, Control_c, 0, 64, 45
1, 40008, Control_c, 0, 64, 54
1, 40023, Control_c, 0, 64, 61
1, 40031, Note_on_c, 0, 43, 71
1, 40035, Note_on_c, 0, 55, 60
1, 40038, Control_c, 0, 64, 67
1, 40052, Control_c, 0, 64, 74
1, 40059, Note_off_c, 0, 43, 66
1, 40062, Note_off_c, 0, 55, 63
1, 40067, Control_c, 0, 64, 84
1, 40082, Control_c, 0, 64, 92
1, 40083, Note_on_c, 0, 71, 92
1, 40086, Note_on_c, 0, 63, 78
1, 40088, Note_on_c, 0, 59, 84
1, 40089, Note_on_c, 0, 57, 82
1, 40097, Control_c, 0, 64, 96
1, 40112, Control_c, 0, 64, 97
1, 40116, Note_off_c, 0, 63, 66
1, 40122, Note_off_c, 0, 71, 66
1, 40124, Note_off_c, 0, 57, 60
1, 40126, Control_c, 0, 64, 96
1, 40127, Note_off_c, 0, 59, 56
1, 40156, Control_c, 0, 64, 97
1, 40190, Note_on_c, 0, 42, 81
1, 40195, Note_on_c, 0, 54, 73
1, 40200, Control_c, 0, 64, 97
1, 40220, Note_off_c, 0, 42, 64
1, 40224, Note_off_c, 0, 54, 66
1, 40244, Control_c, 0, 64, 97
1, 40259, Control_c, 0, 64, 96
1, 40274, Control_c, 0, 64, 95
1, 40294, Note_on_c, 0, 53, 67
1, 40300, Note_on_c, 0, 41, 60
1, 40325, Note_off_c, 0, 53, 64
1, 40329, Note_off_c, 0, 41, 64
1, 40333, Control_c, 0, 64, 94
1, 40348, Control_c, 0, 64, 86
1, 40363, Control_c, 0, 64, 73
1, 40364, Poly_aftertouch_c, 0, 52, 127
1, 40378, Control_c, 0, 64, 62
1, 40393, Control_c, 0, 64, 45
1, 40408, Control_c, 0, 64, 36
1, 40415, Poly_aftertouch_c, 0, 52, 0
1, 40423, Control_c, 0, 64, 33
1, 40438, Control_c, 0, 64, 29
1, 40452, Control_c, 0, 64, 28
1, 40456, Note_on_c, 0, 40, 52
1, 40471, Note_on_c, 0, 55, 52
1, 40494, Note_off_c, 0, 40, 64
1, 40497, Note_off_c, 0, 55, 62
1, 40512, Control_c, 0, 64, 28
1, 40526, Control_c, 0, 64, 26
1, 40541, Control_c, 0, 64, 24
1, 40551, Note_on_c, 0, 47, 60
1, 40556, Control_c, 0, 64, 23
1, 40580, Note_off_c, 0, 47, 64
1, 40641, Note_on_c, 0, 55, 62
1, 40680, Note_off_c, 0, 55, 66
1, 40682, Control_c, 0, 64, 21
1, 40697, Control_c, 0, 64, 20
1, 40733, Note_on_c, 0, 49, 52
1, 40738, Note_on_c, 0, 52, 63
1, 40764, Note_off_c, 0, 49, 64
1, 40769, Note_off_c, 0, 52, 65
1, 40816, Control_c, 0, 64, 19
1, 40826, Note_on_c, 0, 51, 63
1, 40858, Note_off_c, 0, 51, 65
1, 40924, Note_on_c, 0, 52, 64
1, 40935, Control_c, 0, 64, 17
1, 40949, Control_c, 0, 64, 15
1, 40956, Note_off_c, 0, 52, 65
1, 40964, Control_c, 0, 64, 13
1, 40979, Control_c, 0, 64, 12
1, 40998, Note_on_c, 0, 40, 46
1, 41017, Note_on_c, 0, 55, 58
1, 41038, Control_c, 0, 64, 11
1, 41045, Note_off_c, 0, 40, 60
1, 41049, Note_off_c, 0, 55, 64
1, 41068, Control_c, 0, 64, 0
1, 41102, Note_on_c, 0, 47, 45
1, 41129, Note_off_c, 0, 47, 60
1, 41206, Note_on_c, 0, 55, 54
1, 41233, Note_off_c, 0, 55, 62
1, 41283, Note_on_c, 0, 49, 48
1, 41284, Note_on_c, 0, 52, 57
1, 41313, Note_off_c, 0, 49, 63
1, 41320, Note_off_c, 0, 52, 65
1, 41379, Note_on_c, 0, 51, 68
1, 41413, Note_off_c, 0, 51, 64
1, 41474, Note_on_c, 0, 52, 72
1, 41514, Note_off_c, 0, 52, 63
1, 41557, Note_on_c, 0, 40, 52
1, 41573, Note_on_c, 0, 55, 61
1, 41603, Note_off_c, 0, 40, 61
1, 41604, Note_off_c, 0, 55, 65
1, 41651, Note_on_c, 0, 47, 55
1, 41685, Note_off_c, 0, 47, 64
1, 41749, Note_on_c, 0, 55, 70
1, 41783, Note_off_c, 0, 55, 67
1, 41839, Note_on_c, 0, 49, 49
1, 41845, Note_on_c, 0, 52, 70
1, 41871, Note_off_c, 0, 49, 64
1, 41877, Note_off_c, 0, 52, 66
1, 41915, Note_on_c, 0, 51, 74
1, 41949, Note_off_c, 0, 51, 65
1, 42000, Note_on_c, 0, 52, 82
1, 42056, Note_off_c, 0, 52, 63
1, 42103, Note_on_c, 0, 55, 67
1, 42105, Note_on_c, 0, 40, 54
1, 42131, Note_off_c, 0, 55, 66
1, 42160, Note_off_c, 0, 40, 58
1, 42196, Note_on_c, 0, 47, 60
1, 42223, Note_off_c, 0, 47, 65
1, 42286, Note_on_c, 0, 55, 56
1, 42381, Note_off_c, 0, 55, 56
1, 42384, Note_on_c, 0, 58, 66
1, 42385, Note_on_c, 0, 54, 60
1, 42456, Note_off_c, 0, 54, 60
1, 42467, Note_off_c, 0, 58, 60
1, 42472, Note_on_c, 0, 59, 71
1, 42482, Note_on_c, 0, 52, 59
1, 42560, Note_off_c, 0, 52, 63
1, 42569, Note_on_c, 0, 51, 67
1, 42572, Note_on_c, 0, 60, 71
1, 42575, Note_off_c, 0, 59, 63
1, 42631, Note_off_c, 0, 51, 61
1, 42631, Note_off_c, 0, 60, 64
1, 42662, Note_on_c, 0, 52, 70
1, 42664, Note_on_c, 0, 59, 75
1, 42700, Control_c, 0, 64, 11
1, 42714, Control_c, 0, 64, 13
1, 42729, Control_c, 0, 64, 16
1, 42739, Note_off_c, 0, 52, 61
1, 42744, Control_c, 0, 64, 17
1, 42746, Note_on_c, 0, 48, 70
1, 42758, Note_on_c, 0, 63, 74
1, 42767, Note_off_c, 0, 59, 61
1, 42774, Control_c, 0, 64, 12
1, 42789, Control_c, 0, 64, 0
1, 42817, Note_off_c, 0, 48, 63
1, 42831, Note_on_c, 0, 47, 63
1, 42858, Note_on_c, 0, 64, 74
1, 42924, Note_off_c, 0, 47, 63
1, 42927, Note_off_c, 0, 63, 53
1, 42936, Note_on_c, 0, 45, 61
1, 42949, Note_on_c, 0, 66, 73
1, 42960, Note_off_c, 0, 64, 62
1, 42983, Note_off_c, 0, 45, 62
1, 43001, Note_off_c, 0, 66, 64
1, 43035, Note_on_c, 0, 43, 59
1, 43036, Note_on_c, 0, 67, 68
1, 43092, Note_off_c, 0, 43, 61
1, 43118, Note_on_c, 0, 42, 58
1, 43119, Note_off_c, 0, 67, 62
1, 43129, Note_on_c, 0, 69, 70
1, 43175, Note_off_c, 0, 42, 61
1, 43204, Note_off_c, 0, 69, 64
1, 43206, Note_on_c, 0, 43, 66
1, 43224, Note_on_c, 0, 67, 68
1, 43245, Note_off_c, 0, 43, 59
1, 43281, Note_off_c, 0, 67, 61
1, 43296, Note_on_c, 0, 40, 52
1, 43308, Note_on_c, 0, 70, 71
1, 43341, Note_off_c, 0, 40, 59
1, 43377, Note_off_c, 0, 70, 62
1, 43389, Note_on_c, 0, 71, 73
1, 43394, Note_on_c, 0, 47, 47
1, 43455, Note_off_c, 0, 47, 61
1, 43460, Note_off_c, 0, 71, 61
1, 43473, Note_on_c, 0, 52, 63
1, 43478, Note_on_c, 0, 72, 76
1, 43514, Note_off_c, 0, 52, 65
1, 43558, Note_on_c, 0, 55, 69
1, 43568, Note_on_c, 0, 73, 77
1, 43575, Note_off_c, 0, 72, 64
1, 43597, Note_off_c, 0, 55, 66
1, 43603, Note_off_c, 0, 73, 65
1, 43618, Control_c, 0, 64, 44
1, 43633, Control_c, 0, 64, 55
1, 43648, Control_c, 0, 64, 60
1, 43662, Note_on_c, 0, 71, 74
1, 43662, Note_on_c, 0, 74, 72
1, 43663, Control_c, 0, 64, 65
1, 43677, Control_c, 0, 64, 69
1, 43685, Note_off_c, 0, 71, 68
1, 43689, Note_off_c, 0, 74, 67
1, 43692, Control_c, 0, 64, 73
1, 43707, Control_c, 0, 64, 75
1, 43722, Control_c, 0, 64, 75
1, 43737, Control_c, 0, 64, 73
1, 43746, Note_on_c, 0, 47, 59
1, 43751, Control_c, 0, 64, 70
1, 43766, Control_c, 0, 64, 65
1, 43781, Control_c, 0, 64, 61
1, 43782, Note_off_c, 0, 47, 63
1, 43796, Control_c, 0, 64, 57
1, 43811, Control_c, 0, 64, 55
1, 43818, Note_on_c, 0, 54, 59
1, 43825, Control_c, 0, 64, 51
1, 43840, Control_c, 0, 64, 46
1, 43851, Note_off_c, 0, 54, 66
1, 43855, Control_c, 0, 64, 39
1, 43860, Note_on_c, 0, 71, 74
1, 43864, Note_on_c, 0, 67, 63
1, 43869, Control_c, 0, 64, 34
1, 43884, Control_c, 0, 64, 30
1, 43900, Control_c, 0, 64, 28
1, 43909, Note_off_c, 0, 71, 60
1, 43915, Control_c, 0, 64, 26
1, 43918, Note_off_c, 0, 67, 56
1, 43930, Control_c, 0, 64, 24
1, 43939, Note_on_c, 0, 59, 62
1, 43945, Control_c, 0, 64, 23
1, 43947, Note_on_c, 0, 62, 54
1, 43960, Control_c, 0, 64, 23
1, 43974, Control_c, 0, 64, 22
1, 43989, Control_c, 0, 64, 21
1, 44004, Control_c, 0, 64, 21
1, 44037, Note_on_c, 0, 56, 51
1, 44063, Control_c, 0, 64, 20
1, 44074, Note_off_c, 0, 56, 65
1, 44082, Note_off_c, 0, 62, 56
1, 44095, Note_off_c, 0, 59, 59
1, 44121, Note_on_c, 0, 58, 69
1, 44149, Note_off_c, 0, 58, 66
1, 44167, Control_c, 0, 64, 19
1, 44196, Control_c, 0, 64, 18
1, 44215, Note_on_c, 0, 59, 68
1, 44262, Note_off_c, 0, 59, 58
1, 44291, Note_on_c, 0, 47, 55
1, 44306, Note_on_c, 0, 62, 59
1, 44345, Note_off_c, 0, 62, 64
1, 44346, Note_off_c, 0, 47, 61
1, 44396, Note_on_c, 0, 54, 62
1, 44411, Control_c, 0, 64, 17
1, 44426, Note_off_c, 0, 54, 66
1, 44488, Note_on_c, 0, 62, 67
1, 44527, Note_off_c, 0, 62, 63
1, 44575, Note_on_c, 0, 59, 67
1, 44578, Note_on_c, 0, 56, 58
1, 44605, Note_off_c, 0, 59, 65
1, 44611, Note_off_c, 0, 56, 66
1, 44662, Note_on_c, 0, 58, 63
1, 44692, Note_off_c, 0, 58, 66
1, 44742, Note_on_c, 0, 57, 59
1, 44805, Note_off_c, 0, 57, 59
1, 44812, Note_on_c, 0, 42, 54
1, 44841, Note_on_c, 0, 61, 64
1, 44856, Control_c, 0, 64, 17
1, 44900, Note_off_c, 0, 42, 62
1, 44913, Note_on_c, 0, 49, 58
1, 44917, Note_off_c, 0, 61, 62
1, 44927, Note_on_c, 0, 60, 71
1, 44945, Control_c, 0, 64, 16
1, 44969, Note_off_c, 0, 49, 60
1, 45016, Note_on_c, 0, 59, 65
1, 45016, Note_off_c, 0, 60, 57
1, 45017, Note_on_c, 0, 61, 76
1, 45099, Note_off_c, 0, 59, 63
1, 45103, Note_on_c, 0, 57, 72
1, 45108, Note_on_c, 0, 66, 78
1, 45116, Note_off_c, 0, 61, 62
1, 45189, Note_off_c, 0, 57, 65
1, 45194, Note_on_c, 0, 56, 73
1, 45201, Note_on_c, 0, 68, 83
1, 45204, Note_off_c, 0, 66, 63
1, 45290, Note_off_c, 0, 68, 63
1, 45290, Note_off_c, 0, 56, 64
1, 45299, Note_on_c, 0, 54, 74
1, 45299, Note_on_c, 0, 69, 86
1, 45322, Control_c, 0, 64, 15
1, 45352, Control_c, 0, 64, 16
1, 45367, Control_c, 0, 64, 15
1, 45373, Note_off_c, 0, 54, 64
1, 45382, Control_c, 0, 64, 16
1, 45383, Note_on_c, 0, 56, 71
1, 45386, Note_off_c, 0, 69, 63
1, 45387, Note_on_c, 0, 68, 84
1, 45462, Note_off_c, 0, 68, 61
1, 45468, Note_off_c, 0, 56, 63
1, 45477, Note_on_c, 0, 69, 86
1, 45480, Note_on_c, 0, 54, 70
1, 45527, Note_off_c, 0, 54, 62
1, 45545, Control_c, 0, 64, 15
1, 45565, Note_on_c, 0, 71, 81
1, 45565, Note_off_c, 0, 69, 62
1, 45566, Note_on_c, 0, 53, 72
1, 45619, Control_c, 0, 64, 9
1, 45632, Note_off_c, 0, 53, 62
1, 45634, Control_c, 0, 64, 0
1, 45642, Note_on_c, 0, 52, 67
1, 45654, Note_on_c, 0, 73, 83
1, 45656, Note_off_c, 0, 71, 63
1, 45718, Note_off_c, 0, 52, 64
1, 45729, Note_on_c, 0, 51, 71
1, 45739, Note_on_c, 0, 75, 77
1, 45739, Note_off_c, 0, 73, 64
1, 45783, Note_off_c, 0, 51, 63
1, 45812, Control_c, 0, 64, 48
1, 45826, Note_off_c, 0, 75, 47
1, 45827, Control_c, 0, 64, 57
1, 45828, Note_on_c, 0, 73, 79
1, 45829, Note_on_c, 0, 76, 85
1, 45849, Control_c, 0, 64, 64
1, 45860, Note_off_c, 0, 76, 68
1, 45863, Note_off_c, 0, 73, 66
1, 45863, Control_c, 0, 64, 68
1, 45878, Control_c, 0, 64, 74
1, 45893, Control_c, 0, 64, 79
1, 45908, Control_c, 0, 64, 81
1, 45937, Control_c, 0, 64, 79
1, 45943, Note_on_c, 0, 49, 63
1, 45952, Control_c, 0, 64, 77
1, 45967, Control_c, 0, 64, 74
1, 45982, Control_c, 0, 64, 70
1, 45997, Note_off_c, 0, 49, 59
1, 45997, Control_c, 0, 64, 63
1, 46012, Control_c, 0, 64, 57
1, 46013, Note_on_c, 0, 56, 65
1, 46027, Control_c, 0, 64, 51
1, 46034, Note_on_c, 0, 73, 78
1, 46042, Note_off_c, 0, 56, 66
1, 46042, Control_c, 0, 64, 46
1, 46045, Note_on_c, 0, 69, 57
1, 46057, Control_c, 0, 64, 41
1, 46071, Control_c, 0, 64, 37
1, 46084, Note_off_c, 0, 69, 63
1, 46086, Control_c, 0, 64, 34
1, 46101, Control_c, 0, 64, 33
1, 46105, Note_on_c, 0, 68, 71
1, 46110, Note_on_c, 0, 64, 64
1, 46110, Note_off_c, 0, 73, 58
1, 46131, Control_c, 0, 64, 32
1, 46145, Control_c, 0, 64, 32
1, 46175, Control_c, 0, 64, 31
1, 46190, Control_c, 0, 64, 30
1, 46202, Note_off_c, 0, 68, 53
1, 46215, Note_on_c, 0, 58, 62
1, 46219, Control_c, 0, 64, 29
1, 46234, Control_c, 0, 64, 29
1, 46253, Note_off_c, 0, 58, 66
1, 46263, Control_c, 0, 64, 27
1, 46278, Control_c, 0, 64, 26
1, 46283, Note_off_c, 0, 64, 63
1, 46294, Control_c, 0, 64, 25
1, 46296, Note_on_c, 0, 60, 68
1, 46309, Control_c, 0, 64, 24
1, 46324, Control_c, 0, 64, 22
1, 46332, Note_off_c, 0, 60, 66
1, 46339, Control_c, 0, 64, 21
1, 46354, Control_c, 0, 64, 21
1, 46368, Control_c, 0, 64, 20
1, 46379, Note_on_c, 0, 61, 75
1, 46383, Control_c, 0, 64, 18
1, 46398, Control_c, 0, 64, 17
1, 46413, Control_c, 0, 64, 17
1, 46419, Note_off_c, 0, 61, 59
1, 46428, Control_c, 0, 64, 16
1, 46442, Control_c, 0, 64, 15
1, 46457, Control_c, 0, 64, 13
1, 46476, Note_on_c, 0, 49, 54
1, 46516, Control_c, 0, 64, 12
1, 46522, Note_off_c, 0, 49, 61
1, 46567, Note_on_c, 0, 56, 65
1, 46575, Control_c, 0, 64, 11
1, 46608, Note_off_c, 0, 56, 65
1, 46656, Note_on_c, 0, 64, 67
1, 46690, Note_off_c, 0, 64, 64
1, 46745, Note_on_c, 0, 58, 65
1, 46754, Note_on_c, 0, 61, 69
1, 46778, Note_off_c, 0, 58, 64
1, 46786, Note_off_c, 0, 61, 63
1, 46841, Note_on_c, 0, 60, 62
1, 46868, Note_off_c, 0, 60, 67
1, 46915, Note_on_c, 0, 61, 77
1, 46957, Note_off_c, 0, 61, 59
1, 47007, Note_on_c, 0, 47, 77
1, 47011, Note_on_c, 0, 64, 81
1, 47044, Note_off_c, 0, 47, 61
1, 47044, Note_off_c, 0, 64, 63
1, 47107, Note_on_c, 0, 56, 74
1, 47135, Note_off_c, 0, 56, 67
1, 47196, Note_on_c, 0, 64, 75
1, 47221, Control_c, 0, 64, 9
1, 47234, Note_off_c, 0, 64, 62
1, 47288, Note_on_c, 0, 58, 75
1, 47290, Note_on_c, 0, 61, 74
1, 47319, Note_off_c, 0, 58, 65
1, 47320, Note_off_c, 0, 61, 64
1, 47393, Note_on_c, 0, 60, 69
1, 47423, Note_off_c, 0, 60, 69
1, 47467, Note_on_c, 0, 61, 79
1, 47495, Control_c, 0, 64, 0
1, 47526, Note_off_c, 0, 61, 62
1, 47561, Note_on_c, 0, 64, 84
1, 47564, Note_on_c, 0, 45, 72
1, 47591, Note_off_c, 0, 64, 65
1, 47625, Note_off_c, 0, 45, 62
1, 47657, Note_on_c, 0, 55, 82
1, 47683, Note_off_c, 0, 55, 68
1, 47755, Note_on_c, 0, 64, 72
1, 47827, Note_off_c, 0, 64, 59
1, 47843, Note_on_c, 0, 67, 70
1, 47858, Note_on_c, 0, 61, 64
1, 47896, Note_off_c, 0, 61, 61
1, 47938, Note_off_c, 0, 67, 63
1, 47940, Note_on_c, 0, 68, 72
1, 47944, Note_on_c, 0, 64, 68
1, 47983, Note_off_c, 0, 64, 64
1, 48031, Note_on_c, 0, 73, 73
1, 48039, Note_off_c, 0, 68, 61
1, 48076, Note_off_c, 0, 73, 62
1, 48130, Note_on_c, 0, 64, 64
1, 48143, Note_on_c, 0, 72, 70
1, 48147, Note_on_c, 0, 67, 32
1, 48167, Note_off_c, 0, 64, 59
1, 48179, Note_off_c, 0, 67, 44
1, 48212, Note_off_c, 0, 72, 59
1, 48228, Note_on_c, 0, 73, 74
1, 48236, Note_on_c, 0, 61, 65
1, 48263, Note_off_c, 0, 61, 66
1, 48317, Note_off_c, 0, 73, 64
1, 48323, Note_on_c, 0, 76, 83
1, 48416, Note_off_c, 0, 76, 64
1, 48417, Note_on_c, 0, 75, 85
1, 48420, Note_on_c, 0, 61, 73
1, 48423, Note_on_c, 0, 64, 55
1, 48454, Note_off_c, 0, 64, 65
1, 48468, Note_off_c, 0, 61, 57
1, 48500, Note_off_c, 0, 75, 61
1, 48506, Note_on_c, 0, 76, 89
1, 48517, Note_on_c, 0, 57, 79
1, 48520, Note_on_c, 0, 61, 62
1, 48547, Note_off_c, 0, 57, 68
1, 48549, Note_off_c, 0, 61, 65
1, 48597, Note_on_c, 0, 79, 93
1, 48602, Note_off_c, 0, 76, 62
1, 48678, Note_on_c, 0, 57, 75
1, 48678, Note_on_c, 0, 61, 70
1, 48687, Note_on_c, 0, 78, 94
1, 48692, Note_off_c, 0, 79, 68
1, 48707, Note_off_c, 0, 61, 66
1, 48726, Note_off_c, 0, 57, 61
1, 48756, Note_off_c, 0, 78, 64
1, 48778, Note_on_c, 0, 79, 91
1, 48782, Note_on_c, 0, 57, 68
1, 48784, Note_on_c, 0, 53, 80
1, 48808, Note_off_c, 0, 57, 68
1, 48817, Note_off_c, 0, 53, 65
1, 48871, Note_on_c, 0, 84, 91
1, 48879, Note_off_c, 0, 79, 64
1, 48943, Note_on_c, 0, 57, 54
1, 48951, Note_on_c, 0, 53, 67
1, 48959, Note_on_c, 0, 85, 93
1, 48965, Note_off_c, 0, 84, 65
1, 48993, Note_off_c, 0, 53, 63
1, 48993, Note_off_c, 0, 57, 64
1, 49036, Note_off_c, 0, 85, 66
1, 49042, Note_on_c, 0, 87, 95
1, 49061, Note_on_c, 0, 45, 77
1, 49065, Note_on_c, 0, 53, 49
1, 49091, Note_off_c, 0, 53, 60
1, 49094, Note_off_c, 0, 45, 68
1, 49107, Note_off_c, 0, 87, 64
1, 49137, Note_on_c, 0, 88, 91
1, 49141, Note_on_c, 0, 76, 95
1, 49142, Note_on_c, 0, 80, 92
1, 49151, Note_on_c, 0, 89, 67
1, 49152, Note_off_c, 0, 89, 127
1, 49156, Control_c, 0, 64, 50
1, 49170, Note_off_c, 0, 80, 63
1, 49170, Control_c, 0, 64, 64
1, 49174, Note_off_c, 0, 76, 67
1, 49178, Note_off_c, 0, 88, 66
1, 49181, Note_on_c, 0, 77, 26
1, 49182, Note_off_c, 0, 77, 127
1, 49185, Control_c, 0, 64, 73
1, 49200, Control_c, 0, 64, 91
1, 49215, Control_c, 0, 64, 127
1, 49224, Note_on_c, 0, 44, 81
1, 49283, Note_on_c, 0, 52, 86
1, 49298, Note_off_c, 0, 44, 63
1, 49318, Control_c, 0, 64, 108
1, 49327, Note_off_c, 0, 52, 65
1, 49333, Control_c, 0, 64, 77
1, 49347, Note_on_c, 0, 81, 73
1, 49348, Control_c, 0, 64, 51
1, 49350, Note_on_c, 0, 85, 85
1, 49362, Control_c, 0, 64, 0
1, 49417, Note_on_c, 0, 76, 94
1, 49418, Note_on_c, 0, 73, 92
1, 49422, Control_c, 0, 64, 49
1, 49423, Note_on_c, 0, 69, 87
1, 49431, Note_off_c, 0, 81, 64
1, 49434, Note_off_c, 0, 85, 64
1, 49437, Control_c, 0, 64, 63
1, 49445, Note_on_c, 0, 67, 43
1, 49452, Control_c, 0, 64, 66
1, 49461, Note_off_c, 0, 76, 63
1, 49467, Control_c, 0, 64, 70
1, 49469, Note_off_c, 0, 73, 62
1, 49476, Note_off_c, 0, 67, 39
1, 49482, Control_c, 0, 64, 75
1, 49497, Control_c, 0, 64, 79
1, 49511, Note_off_c, 0, 69, 63
1, 49511, Control_c, 0, 64, 83
1, 49521, Note_on_c, 0, 68, 80
1, 49526, Control_c, 0, 64, 87
1, 49541, Control_c, 0, 64, 92
1, 49556, Control_c, 0, 64, 97
1, 49571, Control_c, 0, 64, 99
1, 49606, Note_on_c, 0, 67, 81
1, 49615, Note_off_c, 0, 68, 62
1, 49637, Note_off_c, 0, 67, 64
1, 49638, Control_c, 0, 64, 98
1, 49653, Control_c, 0, 64, 92
1, 49667, Control_c, 0, 64, 78
1, 49682, Control_c, 0, 64, 63
1, 49697, Control_c, 0, 64, 25
1, 49707, Note_on_c, 0, 85, 92
1, 49711, Control_c, 0, 64, 0
1, 49714, Note_on_c, 0, 76, 87
1, 49717, Note_on_c, 0, 73, 94
1, 49726, Control_c, 0, 64, 34
1, 49741, Control_c, 0, 64, 54
1, 49747, Note_off_c, 0, 76, 66
1, 49754, Note_off_c, 0, 85, 68
1, 49756, Control_c, 0, 64, 62
1, 49767, Note_off_c, 0, 73, 65
1, 49771, Control_c, 0, 64, 66
1, 49786, Control_c, 0, 64, 70
1, 49801, Control_c, 0, 64, 74
1, 49810, Note_on_c, 0, 44, 74
1, 49815, Control_c, 0, 64, 77
1, 49830, Control_c, 0, 64, 78
1, 49860, Control_c, 0, 64, 79
1, 49864, Note_on_c, 0, 52, 83
1, 49875, Control_c, 0, 64, 82
1, 49876, Note_off_c, 0, 44, 63
1, 49890, Control_c, 0, 64, 85
1, 49902, Note_off_c, 0, 52, 64
1, 49904, Control_c, 0, 64, 86
1, 49919, Control_c, 0, 64, 80
1, 49925, Note_on_c, 0, 81, 88
1, 49927, Note_on_c, 0, 78, 62
1, 49934, Control_c, 0, 64, 67
1, 49949, Control_c, 0, 64, 49
1, 49964, Control_c, 0, 64, 0
1, 49974, Note_on_c, 0, 79, 23
1, 49989, Note_on_c, 0, 73, 89
1, 49993, Note_on_c, 0, 69, 85
1, 49993, Control_c, 0, 64, 41
1, 49998, Note_on_c, 0, 66, 87
1, 50002, Note_off_c, 0, 81, 66
1, 50007, Note_off_c, 0, 79, 38
1, 50008, Control_c, 0, 64, 56
1, 50015, Note_off_c, 0, 78, 61
1, 50019, Note_off_c, 0, 73, 66
1, 50023, Control_c, 0, 64, 62
1, 50024, Note_off_c, 0, 69, 64
1, 50038, Control_c, 0, 64, 65
1, 50052, Control_c, 0, 64, 67
1, 50067, Control_c, 0, 64, 69
1, 50079, Note_on_c, 0, 65, 75
1, 50082, Note_off_c, 0, 66, 61
1, 50082, Control_c, 0, 64, 71
1, 50097, Control_c, 0, 64, 72
1, 50111, Control_c, 0, 64, 73
1, 50126, Control_c, 0, 64, 75
1, 50141, Control_c, 0, 64, 77
1, 50156, Control_c, 0, 64, 79
1, 50171, Control_c, 0, 64, 80
1, 50176, Note_on_c, 0, 64, 79
1, 50182, Note_off_c, 0, 65, 64
1, 50185, Control_c, 0, 64, 82
1, 50200, Control_c, 0, 64, 83
1, 50215, Note_off_c, 0, 64, 65
1, 50215, Control_c, 0, 64, 82
1, 50230, Control_c, 0, 64, 76
1, 50245, Control_c, 0, 64, 64
1, 50260, Control_c, 0, 64, 41
1, 50275, Control_c, 0, 64, 0
1, 50278, Note_on_c, 0, 80, 90
1, 50279, Note_on_c, 0, 68, 93
1, 50280, Note_on_c, 0, 72, 81
1, 50290, Control_c, 0, 64, 36
1, 50305, Control_c, 0, 64, 54
1, 50307, Note_off_c, 0, 72, 66
1, 50319, Note_off_c, 0, 80, 67
1, 50320, Control_c, 0, 64, 61
1, 50342, Control_c, 0, 64, 65
1, 50357, Control_c, 0, 64, 68
1, 50359, Note_off_c, 0, 68, 60
1, 50372, Control_c, 0, 64, 71
1, 50376, Note_on_c, 0, 44, 76
1, 50387, Control_c, 0, 64, 72
1, 50402, Control_c, 0, 64, 72
1, 50444, Note_on_c, 0, 52, 81
1, 50446, Control_c, 0, 64, 72
1, 50450, Note_off_c, 0, 44, 63
1, 50461, Control_c, 0, 64, 73
1, 50476, Control_c, 0, 64, 75
1, 50478, Note_off_c, 0, 52, 66
1, 50490, Control_c, 0, 64, 76
1, 50492, Note_on_c, 0, 73, 73
1, 50501, Note_on_c, 0, 76, 83
1, 50520, Control_c, 0, 64, 72
1, 50534, Control_c, 0, 64, 64
1, 50549, Control_c, 0, 64, 38
1, 50564, Control_c, 0, 64, 0
1, 50581, Note_on_c, 0, 63, 91
1, 50584, Note_on_c, 0, 68, 84
1, 50587, Note_on_c, 0, 64, 85
1, 50591, Note_off_c, 0, 76, 50
1, 50623, Control_c, 0, 64, 42
1, 50625, Note_off_c, 0, 73, 59
1, 50635, Note_off_c, 0, 64, 62
1, 50638, Control_c, 0, 64, 54
1, 50640, Note_off_c, 0, 68, 62
1, 50653, Control_c, 0, 64, 60
1, 50662, Note_off_c, 0, 63, 53
1, 50668, Control_c, 0, 64, 62
1, 50682, Note_on_c, 0, 62, 83
1, 50683, Control_c, 0, 64, 65
1, 50698, Control_c, 0, 64, 67
1, 50713, Control_c, 0, 64, 70
1, 50727, Control_c, 0, 64, 73
1, 50742, Control_c, 0, 64, 76
1, 50757, Control_c, 0, 64, 77
1, 50785, Note_on_c, 0, 61, 82
1, 50786, Note_off_c, 0, 62, 63
1, 50816, Control_c, 0, 64, 77
1, 50835, Note_off_c, 0, 61, 63
1, 50860, Control_c, 0, 64, 77
1, 50890, Note_on_c, 0, 64, 81
1, 50934, Control_c, 0, 64, 76
1, 50964, Control_c, 0, 64, 76
1, 50965, Note_off_c, 0, 64, 46
1, 50986, Note_on_c, 0, 68, 83
1, 51014, Note_on_c, 0, 60, 65
1, 51083, Note_on_c, 0, 73, 84
1, 51083, Note_off_c, 0, 60, 55
1, 51091, Control_c, 0, 64, 76
1, 51095, Note_off_c, 0, 68, 60
1, 51096, Note_on_c, 0, 64, 73
1, 51103, Note_on_c, 0, 59, 70
1, 51121, Control_c, 0, 64, 77
1, 51148, Note_off_c, 0, 64, 57
1, 51151, Control_c, 0, 64, 77
1, 51165, Control_c, 0, 64, 78
1, 51166, Note_on_c, 0, 76, 83
1, 51173, Note_off_c, 0, 73, 62
1, 51179, Note_off_c, 0, 59, 62
1, 51187, Note_on_c, 0, 58, 80
1, 51190, Note_off_c, 0, 76, 70
1, 51195, Control_c, 0, 64, 78
1, 51254, Control_c, 0, 64, 79
1, 51267, Note_off_c, 0, 58, 62
1, 51269, Control_c, 0, 64, 79
1, 51270, Note_on_c, 0, 80, 94
1, 51284, Control_c, 0, 64, 81
1, 51288, Note_on_c, 0, 57, 78
1, 51299, Control_c, 0, 64, 82
1, 51313, Control_c, 0, 64, 84
1, 51316, Note_off_c, 0, 80, 66
1, 51328, Control_c, 0, 64, 85
1, 51343, Poly_aftertouch_c, 0, 85, 0
1, 51343, Control_c, 0, 64, 87
1, 51353, Note_on_c, 0, 85, 49
1, 51356, Note_off_c, 0, 57, 61
1, 51357, Control_c, 0, 64, 90
1, 51366, Note_on_c, 0, 76, 88
1, 51367, Note_on_c, 0, 56, 83
1, 51372, Control_c, 0, 64, 94
1, 51387, Control_c, 0, 64, 100
1, 51389, Note_off_c, 0, 76, 70
1, 51391, Note_off_c, 0, 56, 71
1, 51402, Control_c, 0, 64, 102
1, 51413, Note_off_c, 0, 85, 65
1, 51417, Control_c, 0, 64, 96
1, 51431, Control_c, 0, 64, 75
1, 51446, Control_c, 0, 64, 54
1, 51449, Note_on_c, 0, 78, 97
1, 51452, Note_on_c, 0, 84, 102
1, 51461, Control_c, 0, 64, 0
1, 51473, Note_on_c, 0, 77, 76
1, 51486, Note_off_c, 0, 78, 62
1, 51497, Note_off_c, 0, 77, 69
1, 51506, Control_c, 0, 64, 52
1, 51521, Control_c, 0, 64, 64
1, 51535, Control_c, 0, 64, 74
1, 51549, Note_off_c, 0, 84, 48
1, 51550, Control_c, 0, 64, 92
1, 51553, Note_on_c, 0, 80, 82
1, 51554, Note_on_c, 0, 72, 82
1, 51556, Note_on_c, 0, 44, 80
1, 51565, Control_c, 0, 64, 127
1, 51595, Note_off_c, 0, 72, 61
1, 51611, Note_off_c, 0, 44, 63
1, 51613, Note_off_c, 0, 80, 63
1, 51643, Note_on_c, 0, 53, 51
1, 51646, Note_on_c, 0, 77, 85
1, 51669, Note_off_c, 0, 53, 56
1, 51690, Note_off_c, 0, 77, 64
1, 51735, Note_on_c, 0, 72, 87
1, 51746, Note_on_c, 0, 70, 95
1, 51781, Note_off_c, 0, 72, 58
1, 51807, Note_off_c, 0, 70, 52
1, 51835, Note_on_c, 0, 89, 98
1, 51837, Note_on_c, 0, 68, 82
1, 51856, Note_off_c, 0, 89, 67
1, 51863, Note_off_c, 0, 68, 65
1, 51872, Note_on_c, 0, 69, 76
1, 51872, Poly_aftertouch_c, 0, 66, 0
1, 51902, Note_off_c, 0, 69, 63
1, 51941, Note_on_c, 0, 68, 72
1, 51963, Note_off_c, 0, 68, 39
1, 52033, Control_c, 0, 64, 102
1, 52035, Note_on_c, 0, 80, 89
1, 52037, Note_on_c, 0, 72, 90
1, 52048, Control_c, 0, 64, 68
1, 52062, Control_c, 0, 64, 0
1, 52075, Note_on_c, 0, 78, 40
1, 52083, Note_off_c, 0, 72, 64
1, 52105, Note_off_c, 0, 78, 38
1, 52122, Control_c, 0, 64, 44
1, 52135, Note_on_c, 0, 77, 84
1, 52136, Note_off_c, 0, 80, 63
1, 52136, Control_c, 0, 64, 58
1, 52142, Note_on_c, 0, 68, 70
1, 52144, Note_on_c, 0, 44, 70
1, 52151, Control_c, 0, 64, 62
1, 52166, Control_c, 0, 64, 63
1, 52180, Note_off_c, 0, 68, 58
1, 52180, Control_c, 0, 64, 64
1, 52195, Control_c, 0, 64, 65
1, 52208, Note_on_c, 0, 53, 80
1, 52210, Control_c, 0, 64, 65
1, 52214, Note_off_c, 0, 44, 63
1, 52225, Note_on_c, 0, 72, 78
1, 52225, Control_c, 0, 64, 66
1, 52237, Note_off_c, 0, 53, 68
1, 52240, Control_c, 0, 64, 67
1, 52241, Note_off_c, 0, 77, 60
1, 52293, Note_off_c, 0, 72, 64
1, 52299, Control_c, 0, 64, 68
1, 52313, Control_c, 0, 64, 68
1, 52318, Note_on_c, 0, 68, 86
1, 52321, Note_on_c, 0, 63, 93
1, 52328, Control_c, 0, 64, 69
1, 52343, Control_c, 0, 64, 69
1, 52352, Note_off_c, 0, 68, 65
1, 52367, Note_off_c, 0, 63, 61
1, 52373, Control_c, 0, 64, 70
1, 52412, Note_on_c, 0, 62, 80
1, 52414, Note_on_c, 0, 83, 90
1, 52421, Note_on_c, 0, 84, 86
1, 52437, Note_off_c, 0, 84, 74
1, 52454, Note_off_c, 0, 83, 65
1, 52495, Note_on_c, 0, 61, 81
1, 52496, Note_off_c, 0, 62, 64
1, 52506, Control_c, 0, 64, 70
1, 52521, Control_c, 0, 64, 72
1, 52524, Note_off_c, 0, 61, 65
1, 52536, Control_c, 0, 64, 73
1, 52551, Control_c, 0, 64, 75
1, 52566, Control_c, 0, 64, 76
1, 52588, Control_c, 0, 64, 76
1, 52618, Control_c, 0, 64, 71
1, 52627, Note_on_c, 0, 68, 82
1, 52629, Note_on_c, 0, 77, 82
1, 52632, Control_c, 0, 64, 61
1, 52644, Note_on_c, 0, 73, 11
1, 52645, Note_on_c, 0, 76, 65
1, 52647, Control_c, 0, 64, 0
1, 52663, Note_off_c, 0, 76, 40
1, 52672, Note_on_c, 0, 44, 74
1, 52699, Note_off_c, 0, 77, 60
1, 52705, Note_off_c, 0, 68, 59
1, 52716, Note_off_c, 0, 73, 40
1, 52722, Control_c, 0, 64, 47
1, 52730, Note_on_c, 0, 72, 68
1, 52737, Control_c, 0, 64, 58
1, 52748, Note_on_c, 0, 65, 43
1, 52752, Control_c, 0, 64, 62
1, 52753, Note_on_c, 0, 53, 75
1, 52753, Note_on_c, 0, 64, 41
1, 52757, Note_off_c, 0, 44, 63
1, 52767, Control_c, 0, 64, 63
1, 52776, Note_off_c, 0, 65, 57
1, 52778, Note_off_c, 0, 64, 56
1, 52781, Control_c, 0, 64, 64
1, 52796, Control_c, 0, 64, 66
1, 52808, Note_off_c, 0, 53, 63
1, 52811, Control_c, 0, 64, 67
1, 52826, Control_c, 0, 64, 68
1, 52828, Note_on_c, 0, 68, 76
1, 52839, Note_off_c, 0, 72, 61
1, 52841, Control_c, 0, 64, 69
1, 52856, Control_c, 0, 64, 70
1, 52871, Control_c, 0, 64, 71
1, 52871, Note_on_c, 0, 58, 65
1, 52891, Note_off_c, 0, 68, 61
1, 52903, Note_on_c, 0, 65, 76
1, 52953, Note_off_c, 0, 58, 57
1, 52959, Control_c, 0, 64, 71
1, 52960, Note_off_c, 0, 65, 64
1, 52987, Note_on_c, 0, 57, 68
1, 52990, Note_on_c, 0, 78, 78
1, 53010, Note_on_c, 0, 79, 60
1, 53023, Note_off_c, 0, 78, 63
1, 53029, Note_off_c, 0, 79, 63
1, 53059, Note_off_c, 0, 57, 64
1, 53063, Control_c, 0, 64, 72
1, 53077, Note_on_c, 0, 56, 59
1, 53151, Control_c, 0, 64, 71
1, 53167, Note_on_c, 0, 55, 64
1, 53172, Note_off_c, 0, 56, 62
1, 53181, Control_c, 0, 64, 71
1, 53196, Control_c, 0, 64, 70
1, 53200, Note_off_c, 0, 55, 66
1, 53211, Control_c, 0, 64, 68
1, 53226, Control_c, 0, 64, 65
1, 53241, Control_c, 0, 64, 60
1, 53255, Control_c, 0, 64, 49
1, 53256, Note_on_c, 0, 60, 83
1, 53270, Control_c, 0, 64, 38
1, 53285, Control_c, 0, 64, 24
1, 53288, Note_off_c, 0, 60, 66
1, 53300, Control_c, 0, 64, 0
1, 53363, Note_on_c, 0, 65, 75
1, 53395, Note_on_c, 0, 53, 58
1, 53447, Note_off_c, 0, 53, 61
1, 53451, Note_on_c, 0, 68, 83
1, 53457, Note_off_c, 0, 65, 62
1, 53462, Note_on_c, 0, 52, 78
1, 53488, Note_off_c, 0, 52, 68
1, 53533, Note_on_c, 0, 72, 82
1, 53541, Note_off_c, 0, 68, 62
1, 53613, Note_off_c, 0, 72, 65
1, 53621, Note_on_c, 0, 77, 93
1, 53645, Note_on_c, 0, 53, 68
1, 53664, Note_off_c, 0, 77, 64
1, 53676, Note_off_c, 0, 53, 65
1, 53717, Note_on_c, 0, 76, 102
1, 53723, Note_on_c, 0, 64, 90
1, 53729, Note_on_c, 0, 68, 83
1, 53738, Control_c, 0, 64, 18
1, 53744, Note_off_c, 0, 64, 68
1, 53752, Control_c, 0, 64, 63
1, 53756, Note_off_c, 0, 68, 61
1, 53759, Note_off_c, 0, 76, 67
1, 53767, Control_c, 0, 64, 70
1, 53782, Control_c, 0, 64, 82
1, 53797, Control_c, 0, 64, 103
1, 53812, Control_c, 0, 64, 127
1, 53822, Note_on_c, 0, 32, 70
1, 53884, Note_on_c, 0, 44, 77
1, 53884, Note_off_c, 0, 32, 59
1, 53913, Note_off_c, 0, 44, 66
1, 53939, Note_on_c, 0, 73, 85
1, 53942, Note_on_c, 0, 69, 70
1, 53989, Control_c, 0, 64, 113
1, 54004, Control_c, 0, 64, 101
1, 54009, Note_on_c, 0, 64, 87
1, 54010, Note_on_c, 0, 61, 91
1, 54010, Note_on_c, 0, 57, 91
1, 54019, Control_c, 0, 64, 99
1, 54021, Note_off_c, 0, 73, 64
1, 54024, Note_off_c, 0, 69, 62
1, 54058, Note_off_c, 0, 64, 61
1, 54060, Note_off_c, 0, 61, 60
1, 54063, Control_c, 0, 64, 99
1, 54083, Note_off_c, 0, 57, 52
1, 54121, Note_on_c, 0, 56, 81
1, 54174, Control_c, 0, 64, 100
1, 54189, Control_c, 0, 64, 100
1, 54202, Note_off_c, 0, 56, 65
1, 54207, Note_on_c, 0, 55, 68
1, 54233, Control_c, 0, 64, 99
1, 54237, Note_off_c, 0, 55, 65
1, 54248, Control_c, 0, 64, 85
1, 54263, Control_c, 0, 64, 64
1, 54279, Control_c, 0, 64, 0
1, 54305, Note_on_c, 0, 73, 96
1, 54310, Note_on_c, 0, 61, 90
1, 54310, Note_on_c, 0, 64, 84
1, 54337, Note_off_c, 0, 64, 67
1, 54338, Control_c, 0, 64, 44
1, 54346, Note_off_c, 0, 73, 69
1, 54353, Control_c, 0, 64, 62
1, 54368, Control_c, 0, 64, 67
1, 54373, Note_off_c, 0, 61, 60
1, 54383, Control_c, 0, 64, 71
1, 54398, Control_c, 0, 64, 74
1, 54413, Control_c, 0, 64, 75
1, 54424, Note_on_c, 0, 32, 71
1, 54443, Control_c, 0, 64, 75
1, 54472, Note_off_c, 0, 32, 63
1, 54483, Note_on_c, 0, 44, 53
1, 54514, Note_off_c, 0, 44, 64
1, 54525, Note_on_c, 0, 69, 81
1, 54529, Note_on_c, 0, 66, 65
1, 54576, Control_c, 0, 64, 76
1, 54585, Note_off_c, 0, 69, 64
1, 54587, Note_on_c, 0, 61, 86
1, 54591, Note_on_c, 0, 57, 90
1, 54603, Note_on_c, 0, 54, 89
1, 54612, Note_off_c, 0, 66, 62
1, 54617, Note_off_c, 0, 57, 68
1, 54631, Note_off_c, 0, 61, 61
1, 54650, Control_c, 0, 64, 76
1, 54661, Note_off_c, 0, 54, 60
1, 54686, Note_on_c, 0, 53, 77
1, 54724, Control_c, 0, 64, 77
1, 54739, Control_c, 0, 64, 78
1, 54754, Control_c, 0, 64, 79
1, 54768, Control_c, 0, 64, 80
1, 54774, Note_on_c, 0, 52, 76
1, 54780, Note_off_c, 0, 53, 61
1, 54783, Control_c, 0, 64, 81
1, 54801, Note_off_c, 0, 52, 68
1, 54813, Control_c, 0, 64, 79
1, 54835, Control_c, 0, 64, 72
1, 54850, Control_c, 0, 64, 53
1, 54865, Control_c, 0, 64, 0
1, 54887, Note_on_c, 0, 68, 85
1, 54891, Note_on_c, 0, 56, 90
1, 54893, Note_on_c, 0, 60, 70
1, 54923, Note_off_c, 0, 60, 68
1, 54924, Control_c, 0, 64, 48
1, 54934, Note_off_c, 0, 68, 65
1, 54939, Control_c, 0, 64, 61
1, 54950, Note_off_c, 0, 56, 63
1, 54954, Control_c, 0, 64, 64
1, 54969, Control_c, 0, 64, 66
1, 54983, Control_c, 0, 64, 68
1, 54994, Note_on_c, 0, 32, 66
1, 54998, Control_c, 0, 64, 71
1, 55013, Control_c, 0, 64, 73
1, 55028, Control_c, 0, 64, 73
1, 55043, Control_c, 0, 64, 74
1, 55060, Note_off_c, 0, 32, 61
1, 55102, Note_on_c, 0, 61, 65
1, 55103, Note_on_c, 0, 64, 68
1, 55105, Note_on_c, 0, 46, 52
1, 55133, Note_off_c, 0, 46, 55
1, 55140, Note_on_c, 0, 62, 41
1, 55166, Note_off_c, 0, 64, 64
1, 55172, Note_on_c, 0, 52, 87
1, 55172, Note_off_c, 0, 62, 48
1, 55173, Note_on_c, 0, 56, 85
1, 55195, Note_on_c, 0, 51, 81
1, 55197, Note_off_c, 0, 52, 70
1, 55199, Note_off_c, 0, 61, 60
1, 55201, Note_off_c, 0, 56, 66
1, 55236, Control_c, 0, 64, 73
1, 55253, Note_off_c, 0, 51, 62
1, 55276, Note_on_c, 0, 50, 68
1, 55324, Control_c, 0, 64, 74
1, 55371, Note_off_c, 0, 50, 64
1, 55376, Note_on_c, 0, 49, 70
1, 55409, Note_off_c, 0, 49, 67
1, 55414, Control_c, 0, 64, 73
1, 55429, Control_c, 0, 64, 73
1, 55443, Control_c, 0, 64, 72
1, 55458, Control_c, 0, 64, 71
1, 55473, Control_c, 0, 64, 69
1, 55476, Note_on_c, 0, 60, 80
1, 55488, Control_c, 0, 64, 66
1, 55503, Control_c, 0, 64, 63
1, 55517, Control_c, 0, 64, 58
1, 55532, Control_c, 0, 64, 55
1, 55547, Control_c, 0, 64, 52
1, 55562, Control_c, 0, 64, 49
1, 55578, Note_off_c, 0, 60, 60
1, 55584, Note_on_c, 0, 61, 81
1, 55584, Control_c, 0, 64, 45
1, 55598, Control_c, 0, 64, 42
1, 55605, Note_on_c, 0, 52, 66
1, 55613, Control_c, 0, 64, 41
1, 55643, Control_c, 0, 64, 41
1, 55658, Control_c, 0, 64, 40
1, 55675, Note_on_c, 0, 63, 77
1, 55678, Note_off_c, 0, 61, 62
1, 55678, Note_off_c, 0, 52, 65
1, 55685, Note_on_c, 0, 56, 68
1, 55686, Control_c, 0, 64, 40
1, 55746, Note_off_c, 0, 63, 63
1, 55757, Note_on_c, 0, 64, 80
1, 55775, Note_on_c, 0, 61, 80
1, 55786, Note_off_c, 0, 56, 63
1, 55843, Note_on_c, 0, 66, 84
1, 55852, Note_off_c, 0, 61, 61
1, 55856, Note_off_c, 0, 64, 62
1, 55863, Note_on_c, 0, 60, 79
1, 55864, Control_c, 0, 64, 40
1, 55941, Note_on_c, 0, 68, 90
1, 55941, Note_off_c, 0, 66, 65
1, 55962, Note_off_c, 0, 60, 64
1, 55963, Note_on_c, 0, 59, 73
1, 56022, Note_off_c, 0, 68, 62
1, 56028, Note_off_c, 0, 59, 63
1, 56037, Note_on_c, 0, 69, 98
1, 56058, Note_on_c, 0, 60, 77
1, 56087, Control_c, 0, 64, 41
1, 56117, Control_c, 0, 64, 41
1, 56132, Control_c, 0, 64, 42
1, 56135, Note_on_c, 0, 66, 84
1, 56142, Note_on_c, 0, 57, 78
1, 56143, Note_off_c, 0, 60, 63
1, 56161, Note_off_c, 0, 69, 63
1, 56161, Control_c, 0, 64, 42
1, 56227, Note_on_c, 0, 64, 75
1, 56234, Note_off_c, 0, 57, 64
1, 56235, Control_c, 0, 64, 43
1, 56236, Note_on_c, 0, 54, 77
1, 56263, Note_off_c, 0, 66, 59
1, 56294, Control_c, 0, 64, 43
1, 56297, Note_off_c, 0, 54, 64
1, 56331, Note_on_c, 0, 60, 74
1, 56335, Note_on_c, 0, 52, 72
1, 56346, Note_off_c, 0, 64, 57
1, 56418, Note_on_c, 0, 48, 71
1, 56421, Note_off_c, 0, 52, 63
1, 56425, Note_on_c, 0, 57, 72
1, 56453, Note_off_c, 0, 60, 54
1, 56504, Note_off_c, 0, 48, 63
1, 56516, Note_on_c, 0, 45, 69
1, 56517, Note_off_c, 0, 57, 62
1, 56525, Note_on_c, 0, 69, 81
1, 56599, Note_off_c, 0, 45, 63
1, 56611, Note_on_c, 0, 44, 69
1, 56617, Note_on_c, 0, 66, 76
1, 56625, Note_off_c, 0, 69, 59
1, 56699, Note_off_c, 0, 44, 63
1, 56706, Note_on_c, 0, 45, 67
1, 56711, Note_on_c, 0, 64, 75
1, 56725, Note_off_c, 0, 66, 54
1, 56796, Note_off_c, 0, 45, 63
1, 56798, Note_on_c, 0, 44, 80
1, 56809, Note_off_c, 0, 64, 61
1, 56810, Note_on_c, 0, 60, 78
1, 56869, Note_off_c, 0, 60, 64
1, 56889, Note_on_c, 0, 57, 78
1, 56904, Note_on_c, 0, 45, 70
1, 56908, Note_off_c, 0, 44, 57
1, 56978, Note_on_c, 0, 54, 87
1, 56986, Note_off_c, 0, 45, 63
1, 56988, Note_on_c, 0, 46, 78
1, 56993, Note_off_c, 0, 57, 64
1, 57000, Control_c, 0, 64, 43
1, 57015, Control_c, 0, 64, 43
1, 57044, Control_c, 0, 64, 43
1, 57059, Control_c, 0, 64, 43
1, 57080, Note_off_c, 0, 54, 64
1, 57082, Note_on_c, 0, 56, 92
1, 57092, Note_on_c, 0, 47, 77
1, 57095, Note_off_c, 0, 46, 63
1, 57097, Control_c, 0, 64, 43
1, 57141, Control_c, 0, 64, 43
1, 57157, Note_off_c, 0, 47, 62
1, 57168, Note_off_c, 0, 56, 60
1, 57174, Note_on_c, 0, 57, 99
1, 57185, Note_on_c, 0, 48, 76
1, 57277, Note_on_c, 0, 54, 84
1, 57283, Note_on_c, 0, 45, 71
1, 57285, Note_off_c, 0, 48, 63
1, 57305, Note_off_c, 0, 57, 63
1, 57372, Note_on_c, 0, 52, 78
1, 57374, Note_on_c, 0, 42, 78
1, 57376, Note_off_c, 0, 45, 64
1, 57417, Note_off_c, 0, 54, 57
1, 57437, Note_off_c, 0, 42, 63
1, 57467, Note_on_c, 0, 48, 76
1, 57478, Note_on_c, 0, 40, 70
1, 57486, Note_off_c, 0, 52, 63
1, 57553, Note_on_c, 0, 45, 74
1, 57560, Note_off_c, 0, 40, 62
1, 57566, Note_off_c, 0, 48, 53
1, 57570, Note_on_c, 0, 36, 66
1, 57634, Note_off_c, 0, 45, 62
1, 57650, Note_on_c, 0, 57, 81
1, 57652, Note_off_c, 0, 36, 63
1, 57655, Note_on_c, 0, 33, 72
1, 57739, Note_off_c, 0, 33, 63
1, 57745, Note_on_c, 0, 32, 73
1, 57745, Note_on_c, 0, 54, 77
1, 57754, Note_off_c, 0, 57, 52
1, 57850, Note_on_c, 0, 52, 76
1, 57851, Note_on_c, 0, 33, 74
1, 57852, Note_off_c, 0, 32, 59
1, 57879, Note_off_c, 0, 54, 58
1, 57942, Note_on_c, 0, 48, 80
1, 57946, Note_off_c, 0, 52, 64
1, 57947, Note_off_c, 0, 33, 61
1, 57948, Note_on_c, 0, 32, 81
1, 57979, Control_c, 0, 64, 43
1, 58004, Note_off_c, 0, 48, 63
1, 58016, Note_off_c, 0, 32, 60
1, 58028, Note_on_c, 0, 45, 79
1, 58045, Note_on_c, 0, 33, 74
1, 58120, Note_on_c, 0, 42, 86
1, 58123, Note_on_c, 0, 34, 79
1, 58128, Note_off_c, 0, 33, 61
1, 58132, Note_off_c, 0, 45, 62
1, 58207, Note_off_c, 0, 42, 64
1, 58211, Note_on_c, 0, 44, 86
1, 58214, Note_on_c, 0, 35, 80
1, 58245, Control_c, 0, 64, 41
1, 58260, Control_c, 0, 64, 18
1, 58272, Note_off_c, 0, 34, 53
1, 58276, Control_c, 0, 64, 0
1, 58293, Note_off_c, 0, 44, 63
1, 58308, Note_on_c, 0, 36, 97
1, 58311, Note_on_c, 0, 45, 100
1, 58330, Note_off_c, 0, 35, 54
1, 58350, Control_c, 0, 64, 56
1, 58365, Control_c, 0, 64, 65
1, 58372, Note_off_c, 0, 45, 65
1, 58379, Note_off_c, 0, 36, 50
1, 58380, Control_c, 0, 64, 73
1, 58395, Control_c, 0, 64, 83
1, 58409, Control_c, 0, 64, 96
1, 58424, Control_c, 0, 64, 114
1, 58439, Control_c, 0, 64, 127
1, 58624, Control_c, 0, 64, 104
1, 58639, Control_c, 0, 64, 69
1, 58640, Note_on_c, 0, 44, 96
1, 58642, Note_on_c, 0, 56, 96
1, 58654, Control_c, 0, 64, 36
1, 58661, Note_on_c, 0, 50, 38
1, 58669, Control_c, 0, 64, 0
1, 58696, Note_on_c, 0, 46, 13
1, 58697, Note_off_c, 0, 46, 127
1, 58698, Control_c, 0, 64, 37
1, 58713, Control_c, 0, 64, 58
1, 58728, Control_c, 0, 64, 65
1, 58742, Control_c, 0, 64, 71
1, 58757, Control_c, 0, 64, 81
1, 58767, Note_off_c, 0, 56, 58
1, 58772, Note_off_c, 0, 50, 0
1, 58772, Control_c, 0, 64, 89
1, 58787, Control_c, 0, 64, 94
1, 58792, Note_off_c, 0, 44, 62
1, 58802, Control_c, 0, 64, 96
1, 58809, Poly_aftertouch_c, 0, 50, 127
1, 58816, Control_c, 0, 64, 97
1, 58831, Control_c, 0, 64, 99
1, 58846, Control_c, 0, 64, 104
1, 58861, Control_c, 0, 64, 127
1, 58898, Note_on_c, 0, 44, 96
1, 58898, Note_on_c, 0, 56, 91
1, 58920, Poly_aftertouch_c, 0, 50, 0
1, 58941, Note_off_c, 0, 44, 64
1, 58946, Note_off_c, 0, 56, 68
1, 58960, Note_on_c, 0, 45, 100
1, 58963, Note_on_c, 0, 33, 89
1, 58979, Control_c, 0, 64, 78
1, 58994, Control_c, 0, 64, 51
1, 59009, Control_c, 0, 64, 0
1, 59099, Control_c, 0, 64, 40
1, 59113, Control_c, 0, 64, 47
1, 59128, Control_c, 0, 64, 48
1, 59143, Control_c, 0, 64, 55
1, 59158, Control_c, 0, 64, 61
1, 59173, Control_c, 0, 64, 64
1, 59187, Control_c, 0, 64, 67
1, 59202, Control_c, 0, 64, 72
1, 59217, Control_c, 0, 64, 78
1, 59232, Control_c, 0, 64, 85
1, 59247, Control_c, 0, 64, 90
1, 59262, Control_c, 0, 64, 95
1, 59274, Note_off_c, 0, 45, 54
1, 59277, Control_c, 0, 64, 100
1, 59292, Control_c, 0, 64, 104
1, 59307, Control_c, 0, 64, 109
1, 59324, Note_off_c, 0, 33, 58
1, 59328, Control_c, 0, 64, 110
1, 59343, Control_c, 0, 64, 96
1, 59358, Control_c, 0, 64, 71
1, 59367, Note_on_c, 0, 49, 93
1, 59368, Note_on_c, 0, 37, 91
1, 59372, Control_c, 0, 64, 29
1, 59387, Control_c, 0, 64, 0
1, 59446, Control_c, 0, 64, 47
1, 59461, Control_c, 0, 64, 62
1, 59476, Control_c, 0, 64, 68
1, 59484, Note_off_c, 0, 37, 61
1, 59491, Control_c, 0, 64, 75
1, 59506, Control_c, 0, 64, 88
1, 59520, Control_c, 0, 64, 101
1, 59534, Note_off_c, 0, 49, 53
1, 59535, Control_c, 0, 64, 113
1, 59550, Control_c, 0, 64, 127
1, 59787, Control_c, 0, 64, 99
1, 59801, Control_c, 0, 64, 69
1, 59802, Note_on_c, 0, 39, 95
1, 59804, Note_on_c, 0, 27, 92
1, 59816, Control_c, 0, 64, 31
1, 59831, Control_c, 0, 64, 0
1, 59891, Control_c, 0, 64, 47
1, 59906, Control_c, 0, 64, 61
1, 59921, Control_c, 0, 64, 65
1, 59932, Note_off_c, 0, 39, 59
1, 59936, Control_c, 0, 64, 70
1, 59948, Note_off_c, 0, 27, 61
1, 59951, Control_c, 0, 64, 76
1, 59965, Control_c, 0, 64, 85
1, 59980, Control_c, 0, 64, 92
1, 59995, Control_c, 0, 64, 97
1, 60010, Control_c, 0, 64, 101
1, 60025, Control_c, 0, 64, 104
1, 60040, Control_c, 0, 64, 107
1, 60055, Control_c, 0, 64, 108
1, 60076, Control_c, 0, 64, 110
1, 60091, Control_c, 0, 64, 111
1, 60136, Control_c, 0, 64, 111
1, 60150, Control_c, 0, 64, 115
1, 60166, Control_c, 0, 64, 127
1, 60326, Note_on_c, 0, 40, 87
1, 60327, Note_on_c, 0, 28, 87
1, 60385, Note_off_c, 0, 28, 56
1, 60386, Note_off_c, 0, 40, 59
1, 60476, Note_on_c, 0, 42, 98
1, 60477, Note_on_c, 0, 30, 85
1, 60507, Control_c, 0, 64, 91
1, 60521, Control_c, 0, 64, 70
1, 60536, Control_c, 0, 64, 49
1, 60551, Control_c, 0, 64, 0
1, 60841, Control_c, 0, 64, 21
1, 60856, Control_c, 0, 64, 32
1, 60871, Control_c, 0, 64, 36
1, 60886, Control_c, 0, 64, 40
1, 60900, Control_c, 0, 64, 44
1, 60915, Control_c, 0, 64, 47
1, 60930, Control_c, 0, 64, 50
1, 60945, Control_c, 0, 64, 52
1, 60960, Control_c, 0, 64, 54
1, 60974, Control_c, 0, 64, 56
1, 60989, Control_c, 0, 64, 58
1, 61004, Control_c, 0, 64, 60
1, 61018, Control_c, 0, 64, 62
1, 61033, Control_c, 0, 64, 63
1, 61048, Control_c, 0, 64, 64
1, 61063, Control_c, 0, 64, 66
1, 61078, Control_c, 0, 64, 67
1, 61092, Control_c, 0, 64, 70
1, 61107, Control_c, 0, 64, 73
1, 61112, Note_off_c, 0, 42, 50
1, 61122, Control_c, 0, 64, 75
1, 61137, Control_c, 0, 64, 78
1, 61149, Note_off_c, 0, 30, 50
1, 61152, Control_c, 0, 64, 80
1, 61167, Control_c, 0, 64, 82
1, 61182, Control_c, 0, 64, 84
1, 61197, Control_c, 0, 64, 85
1, 61211, Control_c, 0, 64, 87
1, 61226, Control_c, 0, 64, 88
1, 61241, Control_c, 0, 64, 90
1, 61256, Control_c, 0, 64, 91
1, 61271, Control_c, 0, 64, 92
1, 61286, Control_c, 0, 64, 92
1, 61315, Control_c, 0, 64, 93
1, 61330, Control_c, 0, 64, 93
1, 61344, Control_c, 0, 64, 94
1, 61359, Control_c, 0, 64, 95
1, 61374, Control_c, 0, 64, 97
1, 61389, Control_c, 0, 64, 97
1, 61404, Control_c, 0, 64, 98
1, 61418, Control_c, 0, 64, 99
1, 61433, Control_c, 0, 64, 100
1, 61448, Control_c, 0, 64, 102
1, 61464, Control_c, 0, 64, 104
1, 61479, Control_c, 0, 64, 105
1, 61494, Control_c, 0, 64, 106
1, 61508, Control_c, 0, 64, 107
1, 61523, Control_c, 0, 64, 110
1, 61538, Control_c, 0, 64, 114
1, 61553, Control_c, 0, 64, 119
1, 61605, Control_c, 0, 64, 121
1, 61620, Control_c, 0, 64, 123
1, 61635, Control_c, 0, 64, 127
1, 62242, Note_on_c, 0, 43, 47
1, 62243, Note_on_c, 0, 31, 41
1, 62362, Note_off_c, 0, 43, 61
1, 62469, Note_off_c, 0, 31, 35
1, 62606, Note_on_c, 0, 32, 46
1, 62607, Note_on_c, 0, 44, 48
1, 62650, Control_c, 0, 64, 97
1, 62664, Control_c, 0, 64, 80
1, 62679, Control_c, 0, 64, 67
1, 62694, Control_c, 0, 64, 59
1, 62709, Control_c, 0, 64, 53
1, 62724, Control_c, 0, 64, 50
1, 62738, Control_c, 0, 64, 45
1, 62753, Control_c, 0, 64, 38
1, 62768, Control_c, 0, 64, 29
1, 62782, Control_c, 0, 64, 24
1, 62797, Control_c, 0, 64, 21
1, 62812, Control_c, 0, 64, 19
1, 62827, Control_c, 0, 64, 18
1, 62842, Control_c, 0, 64, 17
1, 62857, Control_c, 0, 64, 15
1, 63035, Control_c, 0, 64, 16
1, 63050, Control_c, 0, 64, 17
1, 63073, Control_c, 0, 64, 19
1, 63088, Control_c, 0, 64, 20
1, 63102, Control_c, 0, 64, 21
1, 63117, Control_c, 0, 64, 23
1, 63132, Control_c, 0, 64, 24
1, 63147, Control_c, 0, 64, 26
1, 63161, Control_c, 0, 64, 28
1, 63176, Control_c, 0, 64, 30
1, 63191, Control_c, 0, 64, 31
1, 63206, Control_c, 0, 64, 31
1, 63221, Control_c, 0, 64, 32
1, 63265, Control_c, 0, 64, 33
1, 63280, Control_c, 0, 64, 34
1, 63295, Control_c, 0, 64, 35
1, 63310, Control_c, 0, 64, 36
1, 63325, Control_c, 0, 64, 37
1, 63340, Control_c, 0, 64, 38
1, 63355, Control_c, 0, 64, 39
1, 63369, Control_c, 0, 64, 39
1, 63384, Control_c, 0, 64, 40
1, 63399, Control_c, 0, 64, 41
1, 63413, Control_c, 0, 64, 41
1, 63428, Control_c, 0, 64, 42
1, 63591, Control_c, 0, 64, 42
1, 63620, Control_c, 0, 64, 43
1, 63635, Control_c, 0, 64, 43
1, 63650, Control_c, 0, 64, 44
1, 63695, Control_c, 0, 64, 45
1, 63724, Control_c, 0, 64, 45
1, 63769, Control_c, 0, 64, 46
1, 63784, Control_c, 0, 64, 47
1, 63799, Control_c, 0, 64, 47
1, 63820, Control_c, 0, 64, 48
1, 63850, Control_c, 0, 64, 48
1, 63866, Control_c, 0, 64, 49
1, 63896, Control_c, 0, 64, 49
1, 63909, Control_c, 0, 64, 50
1, 63924, Control_c, 0, 64, 51
1, 63939, Control_c, 0, 64, 51
1, 63969, Control_c, 0, 64, 52
1, 63984, Control_c, 0, 64, 53
1, 63999, Control_c, 0, 64, 53
1, 64014, Control_c, 0, 64, 54
1, 64043, Control_c, 0, 64, 55
1, 64058, Control_c, 0, 64, 55
1, 64073, Control_c, 0, 64, 56
1, 64103, Control_c, 0, 64, 56
1, 64117, Control_c, 0, 64, 57
1, 64132, Control_c, 0, 64, 57
1, 64147, Control_c, 0, 64, 58
1, 64221, Control_c, 0, 64, 58
1, 64294, Note_on_c, 0, 45, 30
1, 64383, Control_c, 0, 64, 59
1, 64413, Control_c, 0, 64, 59
1, 64443, Control_c, 0, 64, 60
1, 64458, Control_c, 0, 64, 60
1, 64487, Control_c, 0, 64, 61
1, 64532, Control_c, 0, 64, 61
1, 64547, Control_c, 0, 64, 62
1, 64568, Control_c, 0, 64, 62
1, 64583, Control_c, 0, 64, 63
1, 64613, Control_c, 0, 64, 63
1, 64628, Control_c, 0, 64, 64
1, 64642, Control_c, 0, 64, 65
1, 64659, Control_c, 0, 64, 65
1, 64674, Control_c, 0, 64, 66
1, 64686, Note_on_c, 0, 46, 37
1, 64689, Control_c, 0, 64, 67
1, 64704, Control_c, 0, 64, 69
1, 64719, Control_c, 0, 64, 71
1, 64733, Control_c, 0, 64, 74
1, 64740, Note_off_c, 0, 45, 36
1, 64748, Control_c, 0, 64, 76
1, 64763, Control_c, 0, 64, 79
1, 64778, Control_c, 0, 64, 81
1, 64793, Control_c, 0, 64, 84
1, 64807, Control_c, 0, 64, 87
1, 64822, Control_c, 0, 64, 89
1, 64837, Control_c, 0, 64, 89
1, 64852, Control_c, 0, 64, 90
1, 64866, Control_c, 0, 64, 90
1, 64896, Control_c, 0, 64, 91
1, 64920, Note_off_c, 0, 46, 36
1, 64926, Control_c, 0, 64, 91
1, 64951, Note_on_c, 0, 47, 46
1, 65134, Note_off_c, 0, 47, 38
1, 65160, Note_on_c, 0, 48, 50
1, 65274, Note_off_c, 0, 44, 31
1, 65361, Note_on_c, 0, 49, 47
1, 65363, Control_c, 0, 64, 91
1, 65392, Note_off_c, 0, 48, 33
1, 65424, Note_off_c, 0, 32, 43
1, 65507, Note_off_c, 0, 49, 34
1, 65555, Note_on_c, 0, 50, 47
1, 65734, Note_on_c, 0, 51, 54
1, 65739, Note_off_c, 0, 50, 32
1, 65909, Note_off_c, 0, 51, 43
1, 65912, Control_c, 0, 64, 90
1, 65927, Control_c, 0, 64, 90
1, 65941, Note_on_c, 0, 52, 47
1, 65951, Note_on_c, 0, 26, 43
1, 65954, Note_on_c, 0, 38, 45
1, 65956, Control_c, 0, 64, 89
1, 65971, Control_c, 0, 64, 89
1, 65986, Control_c, 0, 64, 87
1, 66001, Control_c, 0, 64, 84
1, 66015, Control_c, 0, 64, 78
1, 66030, Control_c, 0, 64, 70
1, 66045, Control_c, 0, 64, 63
1, 66067, Control_c, 0, 64, 55
1, 66082, Control_c, 0, 64, 50
1, 66097, Control_c, 0, 64, 49
1, 66127, Control_c, 0, 64, 50
1, 66142, Control_c, 0, 64, 53
1, 66149, Note_on_c, 0, 53, 45
1, 66155, Control_c, 0, 64, 57
1, 66167, Note_off_c, 0, 52, 37
1, 66169, Control_c, 0, 64, 60
1, 66184, Control_c, 0, 64, 63
1, 66199, Control_c, 0, 64, 64
1, 66213, Control_c, 0, 64, 67
1, 66228, Control_c, 0, 64, 70
1, 66233, Note_off_c, 0, 26, 41
1, 66243, Control_c, 0, 64, 74
1, 66259, Control_c, 0, 64, 78
1, 66274, Control_c, 0, 64, 82
1, 66289, Control_c, 0, 64, 87
1, 66300, Note_off_c, 0, 38, 37
1, 66303, Control_c, 0, 64, 92
1, 66318, Control_c, 0, 64, 98
1, 66333, Control_c, 0, 64, 104
1, 66345, Note_on_c, 0, 54, 48
1, 66348, Control_c, 0, 64, 107
1, 66363, Control_c, 0, 64, 107
1, 66392, Control_c, 0, 64, 108
1, 66401, Note_off_c, 0, 53, 33
1, 66482, Note_off_c, 0, 54, 60
1, 66514, Note_on_c, 0, 55, 51
1, 66526, Control_c, 0, 64, 107
1, 66571, Control_c, 0, 64, 107
1, 66615, Control_c, 0, 64, 106
1, 66659, Control_c, 0, 64, 106
1, 66665, Note_off_c, 0, 55, 49
1, 66674, Control_c, 0, 64, 105
1, 66689, Control_c, 0, 64, 104
1, 66703, Control_c, 0, 64, 103
1, 66705, Note_on_c, 0, 56, 50
1, 66711, Note_on_c, 0, 31, 44
1, 66714, Note_on_c, 0, 43, 46
1, 66718, Control_c, 0, 64, 102
1, 66733, Control_c, 0, 64, 101
1, 66748, Control_c, 0, 64, 99
1, 66763, Control_c, 0, 64, 96
1, 66777, Control_c, 0, 64, 91
1, 66792, Control_c, 0, 64, 81
1, 66815, Control_c, 0, 64, 71
1, 66830, Control_c, 0, 64, 64
1, 66844, Control_c, 0, 64, 57
1, 66859, Control_c, 0, 64, 54
1, 66874, Control_c, 0, 64, 53
1, 66883, Note_off_c, 0, 56, 59
1, 66896, Note_on_c, 0, 57, 55
1, 66904, Control_c, 0, 64, 54
1, 66918, Control_c, 0, 64, 56
1, 66933, Control_c, 0, 64, 59
1, 66948, Control_c, 0, 64, 61
1, 66963, Control_c, 0, 64, 63
1, 66978, Control_c, 0, 64, 64
1, 66992, Control_c, 0, 64, 66
1, 67007, Control_c, 0, 64, 67
1, 67022, Control_c, 0, 64, 69
1, 67036, Control_c, 0, 64, 71
1, 67052, Control_c, 0, 64, 73
1, 67067, Control_c, 0, 64, 75
1, 67082, Control_c, 0, 64, 75
1, 67090, Note_off_c, 0, 57, 48
1, 67097, Control_c, 0, 64, 76
1, 67111, Note_on_c, 0, 58, 54
1, 67215, Control_c, 0, 64, 76
1, 67245, Control_c, 0, 64, 77
1, 67275, Control_c, 0, 64, 77
1, 67290, Control_c, 0, 64, 78
1, 67291, Note_off_c, 0, 58, 61
1, 67319, Control_c, 0, 64, 78
1, 67332, Note_on_c, 0, 59, 52
1, 67349, Control_c, 0, 64, 79
1, 67556, Note_off_c, 0, 59, 22
1, 67608, Control_c, 0, 64, 78
1, 67632, Note_on_c, 0, 64, 48
1, 67638, Control_c, 0, 64, 78
1, 67667, Control_c, 0, 64, 77
1, 67682, Control_c, 0, 64, 77
1, 67697, Control_c, 0, 64, 75
1, 67712, Control_c, 0, 64, 71
1, 67727, Control_c, 0, 64, 66
1, 67741, Control_c, 0, 64, 61
1, 67756, Control_c, 0, 64, 56
1, 67771, Control_c, 0, 64, 52
1, 67785, Control_c, 0, 64, 50
1, 67800, Control_c, 0, 64, 48
1, 67845, Control_c, 0, 64, 50
1, 67861, Control_c, 0, 64, 52
1, 67876, Control_c, 0, 64, 55
1, 67890, Control_c, 0, 64, 57
1, 67905, Control_c, 0, 64, 59
1, 67920, Control_c, 0, 64, 61
1, 67935, Control_c, 0, 64, 62
1, 67950, Control_c, 0, 64, 63
1, 67964, Control_c, 0, 64, 65
1, 67979, Control_c, 0, 64, 66
1, 67988, Note_on_c, 0, 69, 52
1, 67994, Control_c, 0, 64, 67
1, 68009, Control_c, 0, 64, 69
1, 68022, Note_off_c, 0, 64, 35
1, 68023, Control_c, 0, 64, 70
1, 68038, Control_c, 0, 64, 72
1, 68053, Control_c, 0, 64, 74
1, 68068, Control_c, 0, 64, 76
1, 68082, Control_c, 0, 64, 77
1, 68097, Control_c, 0, 64, 78
1, 68276, Note_on_c, 0, 68, 48
1, 68365, Note_off_c, 0, 69, 21
1, 68475, Note_off_c, 0, 68, 33
1, 68510, Note_off_c, 0, 31, 37
1, 68511, Note_on_c, 0, 67, 46
1, 68569, Note_off_c, 0, 43, 29
1, 68696, Note_off_c, 0, 67, 33
1, 68708, Note_on_c, 0, 66, 46
1, 68759, Control_c, 0, 64, 77
1, 68870, Note_off_c, 0, 66, 58
1, 68877, Control_c, 0, 64, 77
1, 68902, Note_on_c, 0, 65, 44
1, 68921, Control_c, 0, 64, 76
1, 68951, Control_c, 0, 64, 76
1, 68966, Control_c, 0, 64, 75
1, 68995, Control_c, 0, 64, 75
1, 69010, Control_c, 0, 64, 74
1, 69024, Control_c, 0, 64, 73
1, 69039, Control_c, 0, 64, 73
1, 69062, Control_c, 0, 64, 72
1, 69077, Control_c, 0, 64, 72
1, 69092, Control_c, 0, 64, 71
1, 69099, Note_off_c, 0, 65, 50
1, 69106, Control_c, 0, 64, 71
1, 69121, Note_on_c, 0, 64, 46
1, 69136, Control_c, 0, 64, 70
1, 69151, Control_c, 0, 64, 69
1, 69166, Control_c, 0, 64, 68
1, 69180, Control_c, 0, 64, 68
1, 69195, Control_c, 0, 64, 67
1, 69210, Control_c, 0, 64, 66
1, 69224, Control_c, 0, 64, 65
1, 69239, Control_c, 0, 64, 63
1, 69254, Control_c, 0, 64, 62
1, 69269, Control_c, 0, 64, 60
1, 69284, Control_c, 0, 64, 58
1, 69299, Control_c, 0, 64, 56
1, 69307, Note_off_c, 0, 64, 54
1, 69314, Control_c, 0, 64, 53
1, 69322, Note_on_c, 0, 63, 44
1, 69328, Control_c, 0, 64, 51
1, 69343, Control_c, 0, 64, 50
1, 69358, Control_c, 0, 64, 48
1, 69373, Control_c, 0, 64, 47
1, 69388, Control_c, 0, 64, 46
1, 69403, Control_c, 0, 64, 46
1, 69526, Note_on_c, 0, 62, 44
1, 69531, Note_off_c, 0, 63, 54
1, 69670, Control_c, 0, 64, 45
1, 69739, Note_on_c, 0, 67, 47
1, 69773, Note_off_c, 0, 62, 35
1, 69957, Note_on_c, 0, 66, 47
1, 69990, Note_off_c, 0, 67, 51
1, 70149, Note_on_c, 0, 65, 45
1, 70181, Control_c, 0, 64, 46
1, 70193, Note_off_c, 0, 66, 32
1, 70270, Control_c, 0, 64, 46
1, 70359, Note_on_c, 0, 64, 41
1, 70359, Control_c, 0, 64, 47
1, 70425, Note_off_c, 0, 65, 35
1, 70567, Note_on_c, 0, 63, 44
1, 70619, Control_c, 0, 64, 47
1, 70622, Note_off_c, 0, 64, 50
1, 70781, Control_c, 0, 64, 48
1, 70796, Note_on_c, 0, 62, 42
1, 70870, Control_c, 0, 64, 48
1, 70875, Note_off_c, 0, 63, 35
1, 70914, Control_c, 0, 64, 49
1, 70944, Control_c, 0, 64, 49
1, 70959, Control_c, 0, 64, 50
1, 70974, Control_c, 0, 64, 50
1, 70989, Control_c, 0, 64, 51
1, 71003, Control_c, 0, 64, 51
1, 71033, Control_c, 0, 64, 52
1, 71048, Note_on_c, 0, 61, 37
1, 71048, Control_c, 0, 64, 52
1, 71108, Control_c, 0, 64, 53
1, 71112, Note_off_c, 0, 62, 28
1, 71182, Control_c, 0, 64, 53
1, 71271, Control_c, 0, 64, 54
1, 71352, Control_c, 0, 64, 54
1, 71397, Control_c, 0, 64, 55
1, 71397, Note_on_c, 0, 64, 53
1, 71405, Note_on_c, 0, 60, 34
1, 71412, Control_c, 0, 64, 55
1, 71426, Control_c, 0, 64, 56
1, 71441, Control_c, 0, 64, 56
1, 71456, Control_c, 0, 64, 57
1, 71471, Control_c, 0, 64, 58
1, 71486, Control_c, 0, 64, 59
1, 71500, Note_off_c, 0, 61, 42
1, 71500, Control_c, 0, 64, 60
1, 71515, Control_c, 0, 64, 61
1, 71530, Control_c, 0, 64, 62
1, 71545, Control_c, 0, 64, 64
1, 71560, Control_c, 0, 64, 65
1, 71574, Control_c, 0, 64, 67
1, 71589, Control_c, 0, 64, 70
1, 71604, Control_c, 0, 64, 74
1, 71619, Control_c, 0, 64, 79
1, 71633, Control_c, 0, 64, 84
1, 71648, Control_c, 0, 64, 89
1, 71663, Control_c, 0, 64, 97
1, 71678, Control_c, 0, 64, 110
1, 71693, Control_c, 0, 64, 127
1, 71695, Note_on_c, 0, 59, 45
1, 71704, Note_off_c, 0, 60, 41
1, 71848, Note_off_c, 0, 59, 42
1, 71901, Note_on_c, 0, 72, 57
1, 71902, Note_on_c, 0, 57, 45
1, 72075, Note_off_c, 0, 72, 56
1, 72077, Note_off_c, 0, 57, 54
1, 72097, Note_on_c, 0, 71, 61
1, 72101, Note_on_c, 0, 56, 40
1, 72204, Note_off_c, 0, 56, 54
1, 72294, Control_c, 0, 64, 115
1, 72301, Note_on_c, 0, 48, 41
1, 72309, Control_c, 0, 64, 103
1, 72324, Control_c, 0, 64, 91
1, 72335, Note_off_c, 0, 71, 55
1, 72336, Note_on_c, 0, 76, 56
1, 72339, Control_c, 0, 64, 79
1, 72354, Control_c, 0, 64, 68
1, 72369, Control_c, 0, 64, 61
1, 72384, Control_c, 0, 64, 56
1, 72396, Poly_aftertouch_c, 0, 55, 127
1, 72398, Control_c, 0, 64, 55
1, 72413, Control_c, 0, 64, 56
1, 72428, Control_c, 0, 64, 57
1, 72443, Control_c, 0, 64, 59
1, 72457, Control_c, 0, 64, 61
1, 72472, Control_c, 0, 64, 63
1, 72487, Control_c, 0, 64, 65
1, 72502, Control_c, 0, 64, 66
1, 72504, Note_off_c, 0, 48, 39
1, 72517, Control_c, 0, 64, 68
1, 72531, Control_c, 0, 64, 71
1, 72546, Control_c, 0, 64, 75
1, 72557, Note_on_c, 0, 57, 42
1, 72561, Control_c, 0, 64, 78
1, 72565, Poly_aftertouch_c, 0, 55, 0
1, 72576, Control_c, 0, 64, 81
1, 72591, Control_c, 0, 64, 84
1, 72605, Control_c, 0, 64, 86
1, 72606, Note_off_c, 0, 76, 54
1, 72620, Control_c, 0, 64, 87
1, 72733, Note_off_c, 0, 57, 59
1, 72739, Note_on_c, 0, 72, 62
1, 72748, Note_on_c, 0, 58, 51
1, 72843, Note_off_c, 0, 64, 39
1, 72866, Control_c, 0, 64, 86
1, 72941, Note_on_c, 0, 71, 70
1, 72947, Note_on_c, 0, 59, 52
1, 72949, Note_off_c, 0, 58, 42
1, 72949, Note_off_c, 0, 72, 53
1, 72969, Control_c, 0, 64, 86
1, 73014, Control_c, 0, 64, 85
1, 73028, Control_c, 0, 64, 85
1, 73058, Control_c, 0, 64, 84
1, 73072, Control_c, 0, 64, 84
1, 73087, Control_c, 0, 64, 83
1, 73102, Control_c, 0, 64, 83
1, 73117, Control_c, 0, 64, 82
1, 73132, Control_c, 0, 64, 81
1, 73139, Note_off_c, 0, 59, 54
1, 73147, Control_c, 0, 64, 79
1, 73160, Note_off_c, 0, 71, 58
1, 73162, Control_c, 0, 64, 74
1, 73167, Note_on_c, 0, 76, 68
1, 73177, Control_c, 0, 64, 68
1, 73180, Note_on_c, 0, 60, 38
1, 73186, Note_on_c, 0, 64, 40
1, 73192, Control_c, 0, 64, 63
1, 73207, Control_c, 0, 64, 59
1, 73221, Control_c, 0, 64, 57
1, 73266, Control_c, 0, 64, 58
1, 73280, Control_c, 0, 64, 60
1, 73295, Control_c, 0, 64, 62
1, 73310, Control_c, 0, 64, 64
1, 73325, Control_c, 0, 64, 65
1, 73335, Note_off_c, 0, 64, 47
1, 73340, Control_c, 0, 64, 67
1, 73354, Control_c, 0, 64, 69
1, 73362, Note_off_c, 0, 60, 53
1, 73369, Control_c, 0, 64, 72
1, 73381, Note_on_c, 0, 59, 39
1, 73384, Control_c, 0, 64, 76
1, 73398, Control_c, 0, 64, 78
1, 73413, Control_c, 0, 64, 80
1, 73428, Control_c, 0, 64, 81
1, 73445, Note_off_c, 0, 76, 58
1, 73535, Note_off_c, 0, 59, 46
1, 73570, Control_c, 0, 64, 80
1, 73573, Note_on_c, 0, 74, 62
1, 73574, Note_on_c, 0, 52, 42
1, 73585, Control_c, 0, 64, 80
1, 73588, Note_on_c, 0, 65, 41
1, 73589, Note_on_c, 0, 57, 39
1, 73600, Control_c, 0, 64, 79
1, 73615, Control_c, 0, 64, 78
1, 73630, Control_c, 0, 64, 74
1, 73644, Control_c, 0, 64, 69
1, 73659, Control_c, 0, 64, 63
1, 73674, Control_c, 0, 64, 60
1, 73689, Control_c, 0, 64, 61
1, 73703, Control_c, 0, 64, 62
1, 73718, Control_c, 0, 64, 63
1, 73733, Control_c, 0, 64, 65
1, 73748, Control_c, 0, 64, 67
1, 73763, Control_c, 0, 64, 71
1, 73767, Note_off_c, 0, 65, 43
1, 73775, Note_off_c, 0, 57, 58
1, 73777, Control_c, 0, 64, 74
1, 73792, Control_c, 0, 64, 76
1, 73794, Note_on_c, 0, 56, 47
1, 73804, Note_off_c, 0, 52, 34
1, 73807, Control_c, 0, 64, 77
1, 73822, Control_c, 0, 64, 79
1, 73837, Control_c, 0, 64, 80
1, 73851, Control_c, 0, 64, 82
1, 73866, Control_c, 0, 64, 82
1, 73881, Control_c, 0, 64, 83
1, 73895, Note_off_c, 0, 74, 46
1, 73895, Control_c, 0, 64, 83
1, 73933, Note_off_c, 0, 56, 0
1, 73970, Control_c, 0, 64, 82
1, 73985, Control_c, 0, 64, 78
1, 73990, Poly_aftertouch_c, 0, 56, 0
1, 74000, Control_c, 0, 64, 72
1, 74001, Note_on_c, 0, 57, 39
1, 74014, Control_c, 0, 64, 66
1, 74025, Note_on_c, 0, 72, 53
1, 74029, Control_c, 0, 64, 66
1, 74032, Note_on_c, 0, 66, 37
1, 74040, Note_on_c, 0, 50, 36
1, 74044, Control_c, 0, 64, 67
1, 74059, Control_c, 0, 64, 68
1, 74074, Control_c, 0, 64, 69
1, 74074, Note_off_c, 0, 72, 63
1, 74088, Control_c, 0, 64, 71
1, 74103, Control_c, 0, 64, 74
1, 74118, Control_c, 0, 64, 77
1, 74133, Control_c, 0, 64, 78
1, 74148, Control_c, 0, 64, 79
1, 74162, Control_c, 0, 64, 79
1, 74195, Note_off_c, 0, 66, 34
1, 74207, Control_c, 0, 64, 80
1, 74223, Note_off_c, 0, 50, 36
1, 74235, Note_on_c, 0, 59, 46
1, 74236, Control_c, 0, 64, 80
1, 74240, Note_off_c, 0, 57, 38
1, 74286, Note_off_c, 0, 59, 60
1, 74307, Note_on_c, 0, 71, 60
1, 74378, Control_c, 0, 64, 80
1, 74393, Control_c, 0, 64, 78
1, 74397, Note_off_c, 0, 71, 57
1, 74407, Control_c, 0, 64, 73
1, 74422, Control_c, 0, 64, 66
1, 74437, Control_c, 0, 64, 59
1, 74447, Note_on_c, 0, 45, 39
1, 74447, Note_on_c, 0, 69, 54
1, 74452, Control_c, 0, 64, 54
1, 74460, Note_on_c, 0, 60, 42
1, 74468, Note_on_c, 0, 67, 33
1, 74481, Control_c, 0, 64, 55
1, 74496, Control_c, 0, 64, 60
1, 74508, Note_off_c, 0, 45, 63
1, 74511, Control_c, 0, 64, 64
1, 74515, Note_off_c, 0, 60, 58
1, 74525, Control_c, 0, 64, 67
1, 74540, Control_c, 0, 64, 70
1, 74555, Control_c, 0, 64, 75
1, 74570, Control_c, 0, 64, 79
1, 74585, Control_c, 0, 64, 82
1, 74590, Note_off_c, 0, 67, 35
1, 74600, Control_c, 0, 64, 83
1, 74615, Control_c, 0, 64, 84
1, 74673, Note_on_c, 0, 62, 51
1, 74682, Note_off_c, 0, 69, 37
1, 74718, Control_c, 0, 64, 84
1, 74763, Control_c, 0, 64, 83
1, 74807, Control_c, 0, 64, 83
1, 74837, Control_c, 0, 64, 82
1, 74852, Control_c, 0, 64, 82
1, 74867, Control_c, 0, 64, 81
1, 74876, Note_off_c, 0, 62, 39
1, 74882, Control_c, 0, 64, 80
1, 74894, Note_on_c, 0, 65, 52
1, 74897, Control_c, 0, 64, 79
1, 74911, Note_on_c, 0, 64, 39
1, 74911, Control_c, 0, 64, 76
1, 74926, Control_c, 0, 64, 71
1, 74941, Control_c, 0, 64, 64
1, 74956, Control_c, 0, 64, 58
1, 74971, Control_c, 0, 64, 54
1, 74985, Control_c, 0, 64, 52
1, 75000, Control_c, 0, 64, 52
1, 75030, Control_c, 0, 64, 52
1, 75053, Control_c, 0, 64, 55
1, 75068, Control_c, 0, 64, 59
1, 75083, Control_c, 0, 64, 61
1, 75097, Control_c, 0, 64, 63
1, 75106, Note_off_c, 0, 64, 42
1, 75112, Control_c, 0, 64, 65
1, 75118, Note_on_c, 0, 62, 39
1, 75127, Control_c, 0, 64, 66
1, 75142, Control_c, 0, 64, 68
1, 75156, Control_c, 0, 64, 71
1, 75171, Control_c, 0, 64, 74
1, 75186, Control_c, 0, 64, 76
1, 75201, Control_c, 0, 64, 79
1, 75216, Control_c, 0, 64, 81
1, 75231, Control_c, 0, 64, 83
1, 75231, Note_off_c, 0, 62, 38
1, 75246, Control_c, 0, 64, 85
1, 75260, Control_c, 0, 64, 86
1, 75290, Control_c, 0, 64, 86
1, 75302, Note_on_c, 0, 76, 66
1, 75320, Note_on_c, 0, 60, 40
1, 75320, Control_c, 0, 64, 87
1, 75401, Note_off_c, 0, 60, 53
1, 75497, Control_c, 0, 64, 86
1, 75502, Note_on_c, 0, 74, 82
1, 75515, Note_on_c, 0, 59, 42
1, 75516, Note_off_c, 0, 76, 61
1, 75630, Control_c, 0, 64, 86
1, 75660, Control_c, 0, 64, 85
1, 75675, Control_c, 0, 64, 85
1, 75690, Control_c, 0, 64, 84
1, 75699, Note_off_c, 0, 59, 35
1, 75703, Note_on_c, 0, 57, 46
1, 75705, Control_c, 0, 64, 83
1, 75713, Note_on_c, 0, 50, 40
1, 75720, Control_c, 0, 64, 83
1, 75734, Control_c, 0, 64, 81
1, 75746, Note_on_c, 0, 77, 76
1, 75749, Control_c, 0, 64, 78
1, 75764, Control_c, 0, 64, 73
1, 75776, Note_off_c, 0, 74, 61
1, 75779, Control_c, 0, 64, 66
1, 75801, Control_c, 0, 64, 57
1, 75815, Control_c, 0, 64, 49
1, 75830, Control_c, 0, 64, 46
1, 75846, Control_c, 0, 64, 45
1, 75876, Control_c, 0, 64, 47
1, 75891, Control_c, 0, 64, 52
1, 75906, Control_c, 0, 64, 58
1, 75921, Control_c, 0, 64, 61
1, 75931, Note_off_c, 0, 50, 41
1, 75936, Control_c, 0, 64, 64
1, 75940, Note_off_c, 0, 57, 58
1, 75951, Control_c, 0, 64, 65
1, 75965, Control_c, 0, 64, 67
1, 75980, Note_on_c, 0, 59, 39
1, 75980, Control_c, 0, 64, 69
1, 75995, Control_c, 0, 64, 72
1, 76010, Control_c, 0, 64, 74
1, 76025, Control_c, 0, 64, 75
1, 76037, Note_off_c, 0, 65, 33
1, 76054, Control_c, 0, 64, 75
1, 76074, Note_off_c, 0, 59, 0
1, 76077, Note_off_c, 0, 77, 53
1, 76142, Poly_aftertouch_c, 0, 59, 0
1, 76147, Note_on_c, 0, 76, 62
1, 76154, Note_on_c, 0, 60, 43
1, 76303, Note_off_c, 0, 76, 55
1, 76337, Note_off_c, 0, 60, 30
1, 76345, Note_on_c, 0, 74, 55
1, 76352, Note_on_c, 0, 62, 40
1, 76425, Control_c, 0, 64, 75
1, 76503, Note_off_c, 0, 74, 56
1, 76513, Control_c, 0, 64, 74
1, 76528, Control_c, 0, 64, 74
1, 76551, Control_c, 0, 64, 73
1, 76553, Note_off_c, 0, 62, 41
1, 76565, Control_c, 0, 64, 71
1, 76575, Note_on_c, 0, 77, 60
1, 76578, Note_on_c, 0, 64, 36
1, 76580, Control_c, 0, 64, 68
1, 76586, Note_on_c, 0, 69, 42
1, 76595, Control_c, 0, 64, 63
1, 76610, Control_c, 0, 64, 59
1, 76624, Control_c, 0, 64, 55
1, 76639, Control_c, 0, 64, 54
1, 76668, Control_c, 0, 64, 55
1, 76683, Control_c, 0, 64, 57
1, 76698, Control_c, 0, 64, 61
1, 76712, Control_c, 0, 64, 64
1, 76727, Control_c, 0, 64, 66
1, 76739, Note_off_c, 0, 69, 62
1, 76742, Control_c, 0, 64, 69
1, 76751, Note_off_c, 0, 77, 61
1, 76757, Control_c, 0, 64, 73
1, 76768, Note_off_c, 0, 64, 44
1, 76772, Control_c, 0, 64, 76
1, 76786, Note_on_c, 0, 62, 40
1, 76787, Control_c, 0, 64, 80
1, 76802, Control_c, 0, 64, 84
1, 76816, Control_c, 0, 64, 87
1, 76915, Note_off_c, 0, 62, 50
1, 76920, Control_c, 0, 64, 87
1, 76935, Control_c, 0, 64, 86
1, 76950, Control_c, 0, 64, 85
1, 76963, Note_on_c, 0, 79, 69
1, 76965, Control_c, 0, 64, 82
1, 76972, Note_on_c, 0, 65, 48
1, 76980, Control_c, 0, 64, 78
1, 76982, Note_on_c, 0, 55, 29
1, 76983, Note_on_c, 0, 60, 43
1, 76994, Control_c, 0, 64, 72
1, 77009, Control_c, 0, 64, 65
1, 77024, Control_c, 0, 64, 60
1, 77039, Control_c, 0, 64, 61
1, 77054, Control_c, 0, 64, 62
1, 77068, Control_c, 0, 64, 63
1, 77083, Control_c, 0, 64, 64
1, 77098, Control_c, 0, 64, 67
1, 77112, Control_c, 0, 64, 70
1, 77118, Note_off_c, 0, 79, 63
1, 77127, Control_c, 0, 64, 73
1, 77130, Note_off_c, 0, 65, 40
1, 77142, Control_c, 0, 64, 76
1, 77154, Note_off_c, 0, 60, 56
1, 77157, Control_c, 0, 64, 79
1, 77166, Note_off_c, 0, 55, 21
1, 77172, Control_c, 0, 64, 81
1, 77186, Note_on_c, 0, 59, 50
1, 77186, Control_c, 0, 64, 83
1, 77201, Control_c, 0, 64, 85
1, 77216, Control_c, 0, 64, 86
1, 77342, Note_off_c, 0, 59, 48
1, 77387, Control_c, 0, 64, 85
1, 77397, Note_on_c, 0, 60, 42
1, 77400, Note_on_c, 0, 76, 69
1, 77401, Control_c, 0, 64, 84
1, 77416, Note_on_c, 0, 66, 50
1, 77416, Control_c, 0, 64, 83
1, 77431, Control_c, 0, 64, 79
1, 77447, Control_c, 0, 64, 73
1, 77462, Control_c, 0, 64, 67
1, 77477, Control_c, 0, 64, 61
1, 77491, Control_c, 0, 64, 58
1, 77506, Control_c, 0, 64, 59
1, 77521, Control_c, 0, 64, 60
1, 77535, Control_c, 0, 64, 61
1, 77550, Control_c, 0, 64, 64
1, 77565, Control_c, 0, 64, 67
1, 77580, Control_c, 0, 64, 70
1, 77591, Note_off_c, 0, 60, 37
1, 77595, Control_c, 0, 64, 74
1, 77609, Control_c, 0, 64, 77
1, 77624, Control_c, 0, 64, 79
1, 77634, Note_on_c, 0, 55, 48
1, 77639, Control_c, 0, 64, 81
1, 77648, Note_off_c, 0, 66, 40
1, 77654, Control_c, 0, 64, 82
1, 77669, Control_c, 0, 64, 83
1, 77696, Note_on_c, 0, 74, 65
1, 77701, Note_off_c, 0, 76, 62
1, 77788, Control_c, 0, 64, 83
1, 77803, Control_c, 0, 64, 82
1, 77803, Note_off_c, 0, 55, 35
1, 77807, Note_off_c, 0, 74, 62
1, 77817, Control_c, 0, 64, 79
1, 77825, Note_on_c, 0, 72, 69
1, 77832, Control_c, 0, 64, 73
1, 77833, Note_on_c, 0, 52, 43
1, 77844, Note_on_c, 0, 67, 49
1, 77847, Control_c, 0, 64, 65
1, 77862, Control_c, 0, 64, 58
1, 77877, Control_c, 0, 64, 55
1, 77906, Control_c, 0, 64, 56
1, 77921, Control_c, 0, 64, 58
1, 77935, Control_c, 0, 64, 61
1, 77950, Control_c, 0, 64, 64
1, 77965, Control_c, 0, 64, 66
1, 77980, Control_c, 0, 64, 68
1, 77995, Control_c, 0, 64, 71
1, 78003, Note_off_c, 0, 67, 58
1, 78009, Control_c, 0, 64, 74
1, 78024, Control_c, 0, 64, 76
1, 78041, Note_off_c, 0, 52, 57
1, 78047, Control_c, 0, 64, 78
1, 78062, Control_c, 0, 64, 79
1, 78076, Control_c, 0, 64, 80
1, 78086, Note_on_c, 0, 45, 49
1, 78091, Control_c, 0, 64, 80
1, 78106, Control_c, 0, 64, 81
1, 78121, Control_c, 0, 64, 81
1, 78314, Control_c, 0, 64, 81
1, 78344, Control_c, 0, 64, 80
1, 78359, Control_c, 0, 64, 78
1, 78373, Control_c, 0, 64, 74
1, 78388, Control_c, 0, 64, 68
1, 78396, Note_on_c, 0, 64, 54
1, 78403, Control_c, 0, 64, 63
1, 78418, Control_c, 0, 64, 57
1, 78426, Note_on_c, 0, 60, 39
1, 78433, Control_c, 0, 64, 56
1, 78447, Control_c, 0, 64, 57
1, 78462, Control_c, 0, 64, 59
1, 78477, Control_c, 0, 64, 61
1, 78492, Control_c, 0, 64, 64
1, 78500, Note_off_c, 0, 60, 45
1, 78507, Control_c, 0, 64, 67
1, 78522, Control_c, 0, 64, 70
1, 78536, Control_c, 0, 64, 73
1, 78551, Control_c, 0, 64, 77
1, 78566, Control_c, 0, 64, 80
1, 78574, Note_off_c, 0, 45, 14
1, 78581, Control_c, 0, 64, 83
1, 78596, Control_c, 0, 64, 86
1, 78611, Control_c, 0, 64, 88
1, 78611, Note_off_c, 0, 72, 40
1, 78622, Note_on_c, 0, 59, 53
1, 78626, Control_c, 0, 64, 90
1, 78640, Control_c, 0, 64, 91
1, 78655, Control_c, 0, 64, 91
1, 78666, Note_off_c, 0, 59, 61
1, 78811, Control_c, 0, 64, 91
1, 78820, Note_on_c, 0, 72, 67
1, 78829, Note_on_c, 0, 57, 52
1, 78929, Control_c, 0, 64, 90
1, 78959, Control_c, 0, 64, 90
1, 78966, Note_off_c, 0, 57, 26
1, 79004, Note_on_c, 0, 71, 75
1, 79007, Note_on_c, 0, 56, 55
1, 79007, Note_off_c, 0, 72, 58
1, 79033, Control_c, 0, 64, 89
1, 79063, Control_c, 0, 64, 89
1, 79095, Note_off_c, 0, 56, 64
1, 79108, Control_c, 0, 64, 88
1, 79137, Control_c, 0, 64, 88
1, 79152, Control_c, 0, 64, 87
1, 79167, Control_c, 0, 64, 86
1, 79182, Control_c, 0, 64, 85
1, 79189, Note_on_c, 0, 45, 49
1, 79196, Control_c, 0, 64, 83
1, 79198, Note_on_c, 0, 55, 39
1, 79211, Control_c, 0, 64, 78
1, 79226, Control_c, 0, 64, 70
1, 79238, Note_on_c, 0, 76, 65
1, 79241, Control_c, 0, 64, 63
1, 79255, Note_off_c, 0, 71, 56
1, 79256, Control_c, 0, 64, 54
1, 79270, Control_c, 0, 64, 50
1, 79300, Control_c, 0, 64, 51
1, 79314, Control_c, 0, 64, 55
1, 79329, Control_c, 0, 64, 59
1, 79335, Note_off_c, 0, 45, 45
1, 79344, Control_c, 0, 64, 63
1, 79359, Control_c, 0, 64, 65
1, 79374, Control_c, 0, 64, 67
1, 79389, Control_c, 0, 64, 70
1, 79400, Note_off_c, 0, 55, 63
1, 79404, Control_c, 0, 64, 72
1, 79419, Control_c, 0, 64, 75
1, 79434, Control_c, 0, 64, 77
1, 79434, Note_on_c, 0, 57, 44
1, 79449, Control_c, 0, 64, 78
1, 79463, Control_c, 0, 64, 79
1, 79493, Control_c, 0, 64, 79
1, 79544, Note_off_c, 0, 76, 56
1, 79591, Note_off_c, 0, 57, 56
1, 79612, Note_on_c, 0, 58, 47
1, 79631, Note_on_c, 0, 72, 70
1, 79641, Note_off_c, 0, 64, 40
1, 79797, Note_off_c, 0, 58, 56
1, 79807, Note_on_c, 0, 71, 77
1, 79812, Note_on_c, 0, 59, 49
1, 79832, Note_off_c, 0, 72, 51
1, 79887, Control_c, 0, 64, 79
1, 79982, Note_off_c, 0, 71, 57
1, 79989, Note_off_c, 0, 59, 56
1, 79991, Control_c, 0, 64, 78
1, 80006, Control_c, 0, 64, 77
1, 80019, Note_on_c, 0, 60, 38
1, 80020, Control_c, 0, 64, 75
1, 80024, Note_on_c, 0, 76, 68
1, 80035, Control_c, 0, 64, 70
1, 80044, Note_on_c, 0, 64, 46
1, 80050, Control_c, 0, 64, 64
1, 80065, Control_c, 0, 64, 58
1, 80080, Control_c, 0, 64, 53
1, 80094, Control_c, 0, 64, 51
1, 80124, Control_c, 0, 64, 52
1, 80138, Control_c, 0, 64, 57
1, 80153, Control_c, 0, 64, 61
1, 80168, Control_c, 0, 64, 63
1, 80183, Control_c, 0, 64, 66
1, 80196, Note_off_c, 0, 60, 53
1, 80197, Note_off_c, 0, 64, 35
1, 80198, Control_c, 0, 64, 68
1, 80212, Control_c, 0, 64, 71
1, 80224, Note_on_c, 0, 59, 44
1, 80227, Control_c, 0, 64, 74
1, 80242, Control_c, 0, 64, 77
1, 80257, Control_c, 0, 64, 79
1, 80272, Control_c, 0, 64, 81
1, 80320, Note_off_c, 0, 76, 56
1, 80355, Note_off_c, 0, 59, 46
1, 80397, Control_c, 0, 64, 79
1, 80400, Note_on_c, 0, 57, 45
1, 80400, Note_on_c, 0, 74, 64
1, 80401, Note_on_c, 0, 52, 46
1, 80411, Control_c, 0, 64, 76
1, 80416, Note_on_c, 0, 65, 47
1, 80426, Control_c, 0, 64, 70
1, 80441, Control_c, 0, 64, 64
1, 80456, Control_c, 0, 64, 58
1, 80471, Control_c, 0, 64, 59
1, 80486, Control_c, 0, 64, 60
1, 80501, Control_c, 0, 64, 62
1, 80516, Control_c, 0, 64, 64
1, 80530, Control_c, 0, 64, 66
1, 80545, Control_c, 0, 64, 70
1, 80549, Note_off_c, 0, 52, 52
1, 80560, Control_c, 0, 64, 72
1, 80575, Control_c, 0, 64, 75
1, 80585, Note_off_c, 0, 65, 36
1, 80586, Note_off_c, 0, 57, 43
1, 80590, Control_c, 0, 64, 76
1, 80602, Note_on_c, 0, 56, 46
1, 80605, Control_c, 0, 64, 77
1, 80630, Note_off_c, 0, 74, 61
1, 80635, Control_c, 0, 64, 77
1, 80665, Control_c, 0, 64, 78
1, 80680, Control_c, 0, 64, 78
1, 80768, Control_c, 0, 64, 77
1, 80783, Control_c, 0, 64, 76
1, 80796, Note_off_c, 0, 56, 37
1, 80798, Control_c, 0, 64, 71
1, 80800, Note_on_c, 0, 57, 37
1, 80806, Note_on_c, 0, 50, 30
1, 80813, Control_c, 0, 64, 65
1, 80823, Note_on_c, 0, 72, 57
1, 80827, Note_on_c, 0, 66, 41
1, 80828, Control_c, 0, 64, 59
1, 80842, Control_c, 0, 64, 58
1, 80857, Control_c, 0, 64, 59
1, 80872, Control_c, 0, 64, 60
1, 80887, Control_c, 0, 64, 63
1, 80894, Note_off_c, 0, 72, 64
1, 80902, Control_c, 0, 64, 65
1, 80916, Control_c, 0, 64, 68
1, 80931, Control_c, 0, 64, 71
1, 80946, Control_c, 0, 64, 74
1, 80957, Note_off_c, 0, 50, 37
1, 80960, Control_c, 0, 64, 76
1, 80963, Note_off_c, 0, 66, 62
1, 80975, Control_c, 0, 64, 77
1, 80978, Note_off_c, 0, 57, 42
1, 80990, Control_c, 0, 64, 78
1, 81014, Note_on_c, 0, 59, 45
1, 81020, Control_c, 0, 64, 79
1, 81042, Control_c, 0, 64, 79
1, 81057, Control_c, 0, 64, 80
1, 81079, Note_off_c, 0, 59, 52
1, 81089, Note_on_c, 0, 71, 65
1, 81169, Note_off_c, 0, 71, 58
1, 81175, Control_c, 0, 64, 80
1, 81190, Control_c, 0, 64, 79
1, 81205, Control_c, 0, 64, 75
1, 81207, Note_on_c, 0, 45, 46
1, 81207, Note_on_c, 0, 69, 64
1, 81220, Control_c, 0, 64, 68
1, 81222, Note_on_c, 0, 60, 50
1, 81227, Note_on_c, 0, 67, 43
1, 81234, Control_c, 0, 64, 62
1, 81249, Control_c, 0, 64, 60
1, 81264, Note_off_c, 0, 67, 62
1, 81264, Control_c, 0, 64, 62
1, 81279, Control_c, 0, 64, 63
1, 81294, Control_c, 0, 64, 65
1, 81309, Control_c, 0, 64, 67
1, 81324, Control_c, 0, 64, 70
1, 81339, Control_c, 0, 64, 73
1, 81353, Control_c, 0, 64, 75
1, 81359, Note_off_c, 0, 45, 55
1, 81368, Control_c, 0, 64, 75
1, 81389, Note_off_c, 0, 60, 30
1, 81406, Note_on_c, 0, 62, 72
1, 81413, Control_c, 0, 64, 76
1, 81416, Note_on_c, 0, 47, 46
1, 81428, Control_c, 0, 64, 77
1, 81443, Control_c, 0, 64, 78
1, 81458, Control_c, 0, 64, 79
1, 81473, Control_c, 0, 64, 79
1, 81484, Note_off_c, 0, 62, 57
1, 81532, Control_c, 0, 64, 80
1, 81562, Control_c, 0, 64, 79
1, 81572, Note_off_c, 0, 47, 35
1, 81577, Control_c, 0, 64, 77
1, 81591, Control_c, 0, 64, 72
1, 81598, Note_on_c, 0, 45, 45
1, 81606, Control_c, 0, 64, 64
1, 81621, Control_c, 0, 64, 56
1, 81623, Note_off_c, 0, 69, 61
1, 81625, Note_on_c, 0, 65, 65
1, 81627, Note_on_c, 0, 64, 64
1, 81636, Control_c, 0, 64, 52
1, 81665, Control_c, 0, 64, 54
1, 81680, Control_c, 0, 64, 58
1, 81681, Note_off_c, 0, 45, 63
1, 81695, Control_c, 0, 64, 62
1, 81709, Control_c, 0, 64, 66
1, 81724, Control_c, 0, 64, 70
1, 81739, Control_c, 0, 64, 75
1, 81754, Control_c, 0, 64, 80
1, 81769, Control_c, 0, 64, 85
1, 81791, Control_c, 0, 64, 87
1, 81792, Note_off_c, 0, 64, 63
1, 81806, Control_c, 0, 64, 90
1, 81821, Control_c, 0, 64, 92
1, 81842, Note_on_c, 0, 62, 56
1, 81865, Control_c, 0, 64, 92
1, 82013, Control_c, 0, 64, 92
1, 82017, Note_off_c, 0, 62, 36
1, 82034, Note_on_c, 0, 60, 42
1, 82034, Note_on_c, 0, 76, 77
1, 82043, Control_c, 0, 64, 91
1, 82072, Control_c, 0, 64, 91
1, 82143, Note_off_c, 0, 60, 57
1, 82146, Control_c, 0, 64, 90
1, 82161, Control_c, 0, 64, 90
1, 82213, Note_on_c, 0, 59, 54
1, 82227, Note_on_c, 0, 74, 75
1, 82246, Note_off_c, 0, 59, 66
1, 82246, Note_off_c, 0, 76, 62
1, 82251, Control_c, 0, 64, 89
1, 82295, Control_c, 0, 64, 89
1, 82385, Control_c, 0, 64, 88
1, 82414, Control_c, 0, 64, 88
1, 82429, Control_c, 0, 64, 87
1, 82444, Control_c, 0, 64, 86
1, 82459, Control_c, 0, 64, 85
1, 82471, Note_on_c, 0, 57, 38
1, 82472, Note_on_c, 0, 45, 33
1, 82474, Control_c, 0, 64, 83
1, 82488, Control_c, 0, 64, 78
1, 82503, Note_on_c, 0, 77, 65
1, 82503, Control_c, 0, 64, 69
1, 82518, Control_c, 0, 64, 62
1, 82540, Control_c, 0, 64, 56
1, 82541, Note_off_c, 0, 74, 60
1, 82555, Control_c, 0, 64, 52
1, 82570, Control_c, 0, 64, 52
1, 82599, Control_c, 0, 64, 53
1, 82610, Note_off_c, 0, 57, 48
1, 82614, Control_c, 0, 64, 57
1, 82629, Control_c, 0, 64, 60
1, 82644, Control_c, 0, 64, 63
1, 82659, Control_c, 0, 64, 65
1, 82674, Control_c, 0, 64, 68
1, 82688, Control_c, 0, 64, 73
1, 82689, Note_off_c, 0, 45, 49
1, 82703, Control_c, 0, 64, 79
1, 82718, Control_c, 0, 64, 85
1, 82732, Control_c, 0, 64, 91
1, 82747, Control_c, 0, 64, 97
1, 82762, Control_c, 0, 64, 101
1, 82777, Control_c, 0, 64, 103
1, 82793, Note_on_c, 0, 59, 45
1, 82870, Note_off_c, 0, 77, 49
1, 82892, Note_off_c, 0, 65, 37
1, 82939, Control_c, 0, 64, 103
1, 82942, Note_off_c, 0, 59, 33
1, 82952, Note_on_c, 0, 76, 63
1, 82954, Control_c, 0, 64, 102
1, 82961, Note_on_c, 0, 60, 52
1, 82969, Control_c, 0, 64, 102
1, 82984, Control_c, 0, 64, 101
1, 83037, Note_off_c, 0, 60, 42
1, 83044, Control_c, 0, 64, 101
1, 83059, Control_c, 0, 64, 100
1, 83074, Control_c, 0, 64, 100
1, 83089, Control_c, 0, 64, 99
1, 83103, Control_c, 0, 64, 99
1, 83130, Note_off_c, 0, 76, 56
1, 83133, Control_c, 0, 64, 98
1, 83143, Note_on_c, 0, 62, 47
1, 83146, Note_on_c, 0, 74, 68
1, 83163, Control_c, 0, 64, 97
1, 83178, Control_c, 0, 64, 97
1, 83303, Control_c, 0, 64, 95
1, 83313, Note_off_c, 0, 74, 57
1, 83318, Control_c, 0, 64, 93
1, 83327, Note_off_c, 0, 62, 32
1, 83333, Control_c, 0, 64, 88
1, 83348, Control_c, 0, 64, 76
1, 83355, Note_on_c, 0, 77, 68
1, 83362, Note_on_c, 0, 69, 52
1, 83363, Note_on_c, 0, 64, 45
1, 83363, Control_c, 0, 64, 66
1, 83378, Control_c, 0, 64, 59
1, 83393, Control_c, 0, 64, 57
1, 83408, Control_c, 0, 64, 57
1, 83423, Control_c, 0, 64, 58
1, 83437, Control_c, 0, 64, 59
1, 83452, Control_c, 0, 64, 62
1, 83467, Control_c, 0, 64, 65
1, 83482, Control_c, 0, 64, 67
1, 83497, Control_c, 0, 64, 71
1, 83503, Note_off_c, 0, 69, 52
1, 83512, Control_c, 0, 64, 75
1, 83525, Note_off_c, 0, 77, 63
1, 83527, Control_c, 0, 64, 79
1, 83541, Control_c, 0, 64, 82
1, 83547, Note_off_c, 0, 64, 32
1, 83556, Note_on_c, 0, 62, 40
1, 83556, Control_c, 0, 64, 85
1, 83571, Control_c, 0, 64, 88
1, 83586, Control_c, 0, 64, 91
1, 83601, Control_c, 0, 64, 92
1, 83616, Control_c, 0, 64, 92
1, 83630, Control_c, 0, 64, 93
1, 83645, Control_c, 0, 64, 94
1, 83660, Control_c, 0, 64, 95
1, 83675, Control_c, 0, 64, 96
1, 83684, Note_off_c, 0, 62, 30
1, 83704, Control_c, 0, 64, 95
1, 83719, Control_c, 0, 64, 92
1, 83723, Note_on_c, 0, 79, 69
1, 83734, Control_c, 0, 64, 85
1, 83736, Note_on_c, 0, 65, 47
1, 83741, Note_on_c, 0, 55, 32
1, 83744, Note_on_c, 0, 60, 41
1, 83749, Control_c, 0, 64, 75
1, 83763, Control_c, 0, 64, 66
1, 83778, Control_c, 0, 64, 60
1, 83808, Control_c, 0, 64, 62
1, 83823, Control_c, 0, 64, 64
1, 83839, Control_c, 0, 64, 66
1, 83853, Control_c, 0, 64, 70
1, 83854, Note_off_c, 0, 55, 35
1, 83868, Control_c, 0, 64, 74
1, 83869, Note_off_c, 0, 79, 62
1, 83883, Control_c, 0, 64, 79
1, 83885, Note_off_c, 0, 65, 37
1, 83898, Control_c, 0, 64, 81
1, 83913, Control_c, 0, 64, 83
1, 83924, Note_off_c, 0, 60, 41
1, 83927, Control_c, 0, 64, 84
1, 83942, Control_c, 0, 64, 85
1, 83948, Note_on_c, 0, 59, 46
1, 83957, Control_c, 0, 64, 87
1, 83972, Control_c, 0, 64, 87
1, 83986, Control_c, 0, 64, 88
1, 84001, Control_c, 0, 64, 88
1, 84102, Note_off_c, 0, 59, 34
1, 84127, Control_c, 0, 64, 88
1, 84142, Control_c, 0, 64, 87
1, 84157, Control_c, 0, 64, 86
1, 84158, Note_on_c, 0, 60, 35
1, 84172, Control_c, 0, 64, 83
1, 84175, Note_on_c, 0, 76, 55
1, 84180, Note_on_c, 0, 66, 40
1, 84186, Control_c, 0, 64, 76
1, 84201, Control_c, 0, 64, 68
1, 84216, Control_c, 0, 64, 61
1, 84231, Control_c, 0, 64, 58
1, 84246, Control_c, 0, 64, 58
1, 84260, Control_c, 0, 64, 60
1, 84275, Control_c, 0, 64, 62
1, 84290, Control_c, 0, 64, 64
1, 84305, Control_c, 0, 64, 66
1, 84320, Control_c, 0, 64, 70
1, 84334, Control_c, 0, 64, 74
1, 84349, Control_c, 0, 64, 78
1, 84364, Control_c, 0, 64, 81
1, 84375, Note_off_c, 0, 66, 35
1, 84379, Control_c, 0, 64, 84
1, 84390, Note_on_c, 0, 55, 36
1, 84394, Control_c, 0, 64, 87
1, 84397, Note_off_c, 0, 60, 35
1, 84409, Control_c, 0, 64, 89
1, 84424, Control_c, 0, 64, 90
1, 84448, Note_off_c, 0, 76, 44
1, 84475, Note_off_c, 0, 55, 55
1, 84495, Note_on_c, 0, 74, 52
1, 84593, Note_off_c, 0, 74, 53
1, 84616, Control_c, 0, 64, 89
1, 84619, Note_on_c, 0, 52, 39
1, 84632, Control_c, 0, 64, 88
1, 84647, Control_c, 0, 64, 84
1, 84651, Note_on_c, 0, 72, 46
1, 84662, Control_c, 0, 64, 78
1, 84668, Note_on_c, 0, 67, 32
1, 84676, Control_c, 0, 64, 70
1, 84691, Control_c, 0, 64, 63
1, 84706, Control_c, 0, 64, 58
1, 84721, Control_c, 0, 64, 56
1, 84765, Control_c, 0, 64, 58
1, 84787, Control_c, 0, 64, 60
1, 84802, Control_c, 0, 64, 62
1, 84817, Control_c, 0, 64, 64
1, 84832, Control_c, 0, 64, 66
1, 84834, Note_off_c, 0, 52, 40
1, 84847, Control_c, 0, 64, 69
1, 84848, Note_off_c, 0, 67, 44
1, 84862, Note_off_c, 0, 72, 57
1, 84862, Control_c, 0, 64, 72
1, 84876, Control_c, 0, 64, 76
1, 84890, Control_c, 0, 64, 80
1, 84905, Control_c, 0, 64, 84
1, 84920, Control_c, 0, 64, 87
1, 84935, Control_c, 0, 64, 91
1, 84950, Control_c, 0, 64, 93
1, 84963, Note_on_c, 0, 48, 37
1, 84964, Control_c, 0, 64, 94
1, 84979, Control_c, 0, 64, 94
1, 84994, Control_c, 0, 64, 95
1, 85023, Control_c, 0, 64, 95
1, 85067, Note_off_c, 0, 48, 50
1, 85449, Note_on_c, 0, 44, 37
1, 85463, Note_on_c, 0, 59, 37
1, 85484, Control_c, 0, 64, 95
1, 85513, Control_c, 0, 64, 94
1, 85536, Control_c, 0, 64, 94
1, 85551, Control_c, 0, 64, 93
1, 85565, Control_c, 0, 64, 91
1, 85580, Control_c, 0, 64, 88
1, 85595, Control_c, 0, 64, 80
1, 85610, Control_c, 0, 64, 72
1, 85625, Control_c, 0, 64, 65
1, 85639, Control_c, 0, 64, 60
1, 85654, Control_c, 0, 64, 58
1, 85669, Control_c, 0, 64, 59
1, 85684, Control_c, 0, 64, 59
1, 85699, Control_c, 0, 64, 60
1, 85713, Control_c, 0, 64, 62
1, 85722, Note_on_c, 0, 65, 32
1, 85728, Control_c, 0, 64, 64
1, 85743, Control_c, 0, 64, 65
1, 85757, Control_c, 0, 64, 67
1, 85772, Control_c, 0, 64, 70
1, 85787, Control_c, 0, 64, 72
1, 85802, Control_c, 0, 64, 75
1, 85817, Control_c, 0, 64, 77
1, 85831, Control_c, 0, 64, 78
1, 85846, Control_c, 0, 64, 79
1, 85861, Control_c, 0, 64, 81
1, 85876, Control_c, 0, 64, 82
1, 85891, Control_c, 0, 64, 82
1, 85905, Control_c, 0, 64, 83
1, 85920, Note_off_c, 0, 59, 23
1, 85920, Control_c, 0, 64, 83
1, 85923, Note_on_c, 0, 52, 47
1, 85930, Note_on_c, 0, 64, 38
1, 85934, Note_off_c, 0, 65, 33
1, 85935, Control_c, 0, 64, 84
1, 85950, Control_c, 0, 64, 84
1, 85965, Control_c, 0, 64, 85
1, 85980, Control_c, 0, 64, 86
1, 86016, Note_off_c, 0, 44, 26
1, 86069, Control_c, 0, 64, 86
1, 86125, Note_on_c, 0, 71, 50
1, 86127, Note_off_c, 0, 52, 43
1, 86129, Note_on_c, 0, 51, 52
1, 86156, Note_off_c, 0, 64, 38
1, 86172, Control_c, 0, 64, 87
1, 86329, Control_c, 0, 64, 86
1, 86347, Note_on_c, 0, 56, 52
1, 86351, Note_off_c, 0, 51, 30
1, 86354, Note_on_c, 0, 59, 43
1, 86358, Control_c, 0, 64, 86
1, 86361, Note_on_c, 0, 44, 39
1, 86373, Note_off_c, 0, 71, 33
1, 86373, Control_c, 0, 64, 85
1, 86388, Control_c, 0, 64, 84
1, 86403, Control_c, 0, 64, 81
1, 86418, Control_c, 0, 64, 76
1, 86433, Control_c, 0, 64, 69
1, 86448, Control_c, 0, 64, 64
1, 86462, Control_c, 0, 64, 62
1, 86477, Control_c, 0, 64, 61
1, 86507, Control_c, 0, 64, 61
1, 86522, Control_c, 0, 64, 62
1, 86536, Control_c, 0, 64, 63
1, 86551, Control_c, 0, 64, 64
1, 86559, Note_on_c, 0, 65, 36
1, 86566, Control_c, 0, 64, 66
1, 86580, Control_c, 0, 64, 67
1, 86595, Control_c, 0, 64, 69
1, 86610, Control_c, 0, 64, 72
1, 86625, Control_c, 0, 64, 75
1, 86640, Control_c, 0, 64, 77
1, 86642, Note_off_c, 0, 59, 22
1, 86654, Control_c, 0, 64, 78
1, 86669, Control_c, 0, 64, 80
1, 86684, Control_c, 0, 64, 81
1, 86699, Control_c, 0, 64, 81
1, 86714, Control_c, 0, 64, 82
1, 86728, Control_c, 0, 64, 82
1, 86737, Note_off_c, 0, 56, 21
1, 86743, Note_on_c, 0, 52, 50
1, 86743, Control_c, 0, 64, 83
1, 86752, Note_on_c, 0, 64, 39
1, 86752, Note_off_c, 0, 65, 40
1, 86758, Control_c, 0, 64, 84
1, 86773, Control_c, 0, 64, 85
1, 86788, Control_c, 0, 64, 85
1, 86832, Note_off_c, 0, 44, 34
1, 86890, Note_off_c, 0, 52, 38
1, 86920, Note_on_c, 0, 71, 44
1, 86929, Note_on_c, 0, 51, 56
1, 86945, Note_off_c, 0, 64, 31
1, 87123, Control_c, 0, 64, 85
1, 87129, Note_off_c, 0, 51, 36
1, 87138, Control_c, 0, 64, 84
1, 87147, Note_off_c, 0, 71, 26
1, 87152, Control_c, 0, 64, 84
1, 87167, Control_c, 0, 64, 82
1, 87175, Note_on_c, 0, 56, 45
1, 87182, Control_c, 0, 64, 78
1, 87196, Note_on_c, 0, 59, 36
1, 87197, Control_c, 0, 64, 71
1, 87211, Control_c, 0, 64, 65
1, 87226, Control_c, 0, 64, 62
1, 87241, Control_c, 0, 64, 60
1, 87256, Control_c, 0, 64, 61
1, 87271, Control_c, 0, 64, 62
1, 87285, Control_c, 0, 64, 64
1, 87300, Control_c, 0, 64, 65
1, 87315, Control_c, 0, 64, 67
1, 87330, Control_c, 0, 64, 69
1, 87345, Control_c, 0, 64, 72
1, 87347, Note_off_c, 0, 56, 60
1, 87360, Control_c, 0, 64, 75
1, 87375, Control_c, 0, 64, 78
1, 87378, Note_on_c, 0, 64, 41
1, 87390, Control_c, 0, 64, 81
1, 87404, Control_c, 0, 64, 84
1, 87419, Control_c, 0, 64, 86
1, 87432, Note_off_c, 0, 59, 24
1, 87434, Control_c, 0, 64, 89
1, 87449, Control_c, 0, 64, 90
1, 87464, Control_c, 0, 64, 91
1, 87478, Control_c, 0, 64, 91
1, 87493, Control_c, 0, 64, 92
1, 87497, Note_off_c, 0, 64, 41
1, 87582, Control_c, 0, 64, 91
1, 87589, Note_on_c, 0, 39, 52
1, 87594, Note_on_c, 0, 63, 41
1, 87596, Control_c, 0, 64, 90
1, 87611, Control_c, 0, 64, 88
1, 87626, Control_c, 0, 64, 83
1, 87641, Control_c, 0, 64, 75
1, 87656, Control_c, 0, 64, 68
1, 87670, Control_c, 0, 64, 63
1, 87685, Control_c, 0, 64, 62
1, 87715, Control_c, 0, 64, 63
1, 87730, Control_c, 0, 64, 64
1, 87744, Control_c, 0, 64, 65
1, 87759, Control_c, 0, 64, 67
1, 87782, Control_c, 0, 64, 69
1, 87795, Note_on_c, 0, 71, 48
1, 87796, Control_c, 0, 64, 71
1, 87811, Control_c, 0, 64, 74
1, 87827, Control_c, 0, 64, 77
1, 87842, Control_c, 0, 64, 79
1, 87852, Note_off_c, 0, 63, 0
1, 87857, Control_c, 0, 64, 80
1, 87870, Control_c, 0, 64, 82
1, 87885, Control_c, 0, 64, 83
1, 87898, Note_off_c, 0, 39, 33
1, 87899, Control_c, 0, 64, 85
1, 87914, Control_c, 0, 64, 86
1, 87929, Control_c, 0, 64, 87
1, 87951, Poly_aftertouch_c, 0, 63, 0
1, 87984, Note_on_c, 0, 41, 62
1, 87990, Note_off_c, 0, 71, 30
1, 88004, Control_c, 0, 64, 85
1, 88004, Note_on_c, 0, 59, 50
1, 88018, Control_c, 0, 64, 83
1, 88033, Control_c, 0, 64, 78
1, 88048, Control_c, 0, 64, 71
1, 88063, Control_c, 0, 64, 65
1, 88078, Control_c, 0, 64, 64
1, 88092, Control_c, 0, 64, 65
1, 88107, Control_c, 0, 64, 66
1, 88122, Control_c, 0, 64, 67
1, 88137, Control_c, 0, 64, 69
1, 88151, Control_c, 0, 64, 72
1, 88166, Control_c, 0, 64, 75
1, 88177, Note_off_c, 0, 59, 54
1, 88181, Control_c, 0, 64, 77
1, 88183, Note_on_c, 0, 63, 52
1, 88196, Control_c, 0, 64, 79
1, 88211, Control_c, 0, 64, 80
1, 88225, Control_c, 0, 64, 81
1, 88240, Control_c, 0, 64, 82
1, 88255, Control_c, 0, 64, 83
1, 88260, Note_off_c, 0, 41, 31
1, 88276, Note_off_c, 0, 63, 52
1, 88285, Control_c, 0, 64, 83
1, 88359, Control_c, 0, 64, 83
1, 88361, Note_on_c, 0, 43, 54
1, 88373, Control_c, 0, 64, 81
1, 88374, Note_on_c, 0, 62, 55
1, 88388, Control_c, 0, 64, 78
1, 88403, Control_c, 0, 64, 71
1, 88418, Control_c, 0, 64, 65
1, 88433, Control_c, 0, 64, 60
1, 88448, Control_c, 0, 64, 60
1, 88463, Control_c, 0, 64, 61
1, 88478, Control_c, 0, 64, 62
1, 88492, Control_c, 0, 64, 64
1, 88507, Control_c, 0, 64, 66
1, 88529, Control_c, 0, 64, 69
1, 88543, Note_off_c, 0, 43, 62
1, 88544, Control_c, 0, 64, 72
1, 88550, Note_off_c, 0, 62, 57
1, 88558, Control_c, 0, 64, 75
1, 88573, Control_c, 0, 64, 78
1, 88587, Note_on_c, 0, 71, 47
1, 88588, Control_c, 0, 64, 81
1, 88603, Control_c, 0, 64, 83
1, 88618, Control_c, 0, 64, 84
1, 88634, Control_c, 0, 64, 85
1, 88663, Control_c, 0, 64, 85
1, 88678, Control_c, 0, 64, 86
1, 88841, Note_on_c, 0, 44, 39
1, 88841, Control_c, 0, 64, 85
1, 88845, Note_off_c, 0, 71, 52
1, 88847, Note_on_c, 0, 61, 44
1, 88856, Control_c, 0, 64, 85
1, 88871, Control_c, 0, 64, 84
1, 88886, Control_c, 0, 64, 83
1, 88901, Control_c, 0, 64, 82
1, 88915, Control_c, 0, 64, 79
1, 88930, Control_c, 0, 64, 74
1, 88945, Control_c, 0, 64, 68
1, 88960, Control_c, 0, 64, 63
1, 88974, Control_c, 0, 64, 58
1, 88989, Control_c, 0, 64, 55
1, 89004, Control_c, 0, 64, 54
1, 89019, Control_c, 0, 64, 53
1, 89048, Control_c, 0, 64, 55
1, 89063, Control_c, 0, 64, 57
1, 89078, Control_c, 0, 64, 60
1, 89080, Note_on_c, 0, 68, 42
1, 89093, Control_c, 0, 64, 61
1, 89108, Control_c, 0, 64, 63
1, 89122, Control_c, 0, 64, 64
1, 89137, Control_c, 0, 64, 66
1, 89152, Control_c, 0, 64, 68
1, 89166, Control_c, 0, 64, 70
1, 89181, Control_c, 0, 64, 72
1, 89196, Control_c, 0, 64, 74
1, 89211, Control_c, 0, 64, 76
1, 89226, Control_c, 0, 64, 78
1, 89241, Control_c, 0, 64, 79
1, 89255, Note_on_c, 0, 52, 48
1, 89256, Control_c, 0, 64, 81
1, 89264, Note_off_c, 0, 44, 34
1, 89276, Note_on_c, 0, 67, 40
1, 89278, Control_c, 0, 64, 82
1, 89293, Control_c, 0, 64, 83
1, 89308, Control_c, 0, 64, 84
1, 89414, Note_off_c, 0, 61, 34
1, 89456, Note_off_c, 0, 52, 44
1, 89456, Note_on_c, 0, 51, 56
1, 89461, Note_on_c, 0, 73, 45
1, 89488, Note_off_c, 0, 67, 29
1, 89515, Note_off_c, 0, 68, 9
1, 89616, Note_off_c, 0, 51, 38
1, 89682, Note_on_c, 0, 58, 54
1, 89688, Note_on_c, 0, 61, 41
1, 89694, Control_c, 0, 64, 83
1, 89700, Note_on_c, 0, 44, 42
1, 89709, Control_c, 0, 64, 83
1, 89724, Control_c, 0, 64, 82
1, 89738, Control_c, 0, 64, 80
1, 89753, Control_c, 0, 64, 77
1, 89768, Control_c, 0, 64, 70
1, 89783, Control_c, 0, 64, 64
1, 89797, Control_c, 0, 64, 58
1, 89812, Control_c, 0, 64, 56
1, 89820, Note_off_c, 0, 73, 34
1, 89842, Control_c, 0, 64, 57
1, 89857, Control_c, 0, 64, 59
1, 89871, Control_c, 0, 64, 62
1, 89886, Control_c, 0, 64, 64
1, 89901, Control_c, 0, 64, 65
1, 89907, Note_on_c, 0, 68, 34
1, 89916, Control_c, 0, 64, 68
1, 89931, Control_c, 0, 64, 70
1, 89945, Control_c, 0, 64, 72
1, 89960, Control_c, 0, 64, 75
1, 89975, Control_c, 0, 64, 76
1, 89989, Control_c, 0, 64, 77
1, 90012, Note_off_c, 0, 58, 31
1, 90027, Control_c, 0, 64, 77
1, 90057, Control_c, 0, 64, 78
1, 90058, Note_off_c, 0, 61, 29
1, 90102, Note_on_c, 0, 52, 43
1, 90108, Note_on_c, 0, 67, 38
1, 90177, Note_off_c, 0, 44, 36
1, 90296, Note_on_c, 0, 51, 57
1, 90296, Note_on_c, 0, 73, 49
1, 90296, Note_off_c, 0, 52, 34
1, 90299, Note_off_c, 0, 68, 13
1, 90329, Note_off_c, 0, 67, 34
1, 90427, Control_c, 0, 64, 77
1, 90457, Control_c, 0, 64, 77
1, 90481, Note_off_c, 0, 51, 36
1, 90487, Control_c, 0, 64, 76
1, 90502, Control_c, 0, 64, 74
1, 90507, Note_on_c, 0, 58, 65
1, 90517, Control_c, 0, 64, 69
1, 90523, Note_on_c, 0, 61, 49
1, 90532, Control_c, 0, 64, 65
1, 90547, Control_c, 0, 64, 62
1, 90575, Note_off_c, 0, 73, 30
1, 90576, Control_c, 0, 64, 63
1, 90591, Control_c, 0, 64, 64
1, 90606, Control_c, 0, 64, 66
1, 90620, Control_c, 0, 64, 68
1, 90635, Control_c, 0, 64, 71
1, 90650, Control_c, 0, 64, 73
1, 90665, Control_c, 0, 64, 75
1, 90676, Note_off_c, 0, 58, 60
1, 90680, Control_c, 0, 64, 77
1, 90694, Control_c, 0, 64, 78
1, 90709, Control_c, 0, 64, 79
1, 90711, Note_on_c, 0, 70, 57
1, 90724, Control_c, 0, 64, 80
1, 90739, Control_c, 0, 64, 80
1, 90776, Control_c, 0, 64, 81
1, 90877, Note_off_c, 0, 61, 30
1, 90880, Control_c, 0, 64, 81
1, 90923, Note_on_c, 0, 39, 60
1, 90924, Control_c, 0, 64, 81
1, 90937, Note_on_c, 0, 69, 50
1, 90953, Control_c, 0, 64, 80
1, 90968, Control_c, 0, 64, 78
1, 90983, Control_c, 0, 64, 73
1, 90998, Control_c, 0, 64, 68
1, 91013, Control_c, 0, 64, 63
1, 91023, Note_off_c, 0, 70, 22
1, 91029, Control_c, 0, 64, 61
1, 91043, Control_c, 0, 64, 61
1, 91058, Control_c, 0, 64, 62
1, 91073, Control_c, 0, 64, 64
1, 91088, Control_c, 0, 64, 66
1, 91103, Control_c, 0, 64, 69
1, 91117, Control_c, 0, 64, 72
1, 91132, Control_c, 0, 64, 75
1, 91136, Note_on_c, 0, 73, 56
1, 91147, Control_c, 0, 64, 78
1, 91162, Control_c, 0, 64, 80
1, 91177, Control_c, 0, 64, 82
1, 91191, Control_c, 0, 64, 83
1, 91214, Note_off_c, 0, 69, 35
1, 91221, Control_c, 0, 64, 84
1, 91235, Note_off_c, 0, 39, 35
1, 91280, Control_c, 0, 64, 84
1, 91322, Note_on_c, 0, 41, 65
1, 91338, Note_on_c, 0, 63, 61
1, 91339, Control_c, 0, 64, 84
1, 91354, Control_c, 0, 64, 83
1, 91369, Control_c, 0, 64, 82
1, 91384, Control_c, 0, 64, 79
1, 91385, Note_off_c, 0, 73, 34
1, 91399, Control_c, 0, 64, 74
1, 91414, Control_c, 0, 64, 68
1, 91429, Control_c, 0, 64, 63
1, 91443, Control_c, 0, 64, 60
1, 91473, Control_c, 0, 64, 61
1, 91488, Control_c, 0, 64, 62
1, 91503, Control_c, 0, 64, 64
1, 91524, Control_c, 0, 64, 67
1, 91539, Control_c, 0, 64, 69
1, 91548, Note_on_c, 0, 71, 67
1, 91554, Control_c, 0, 64, 74
1, 91569, Control_c, 0, 64, 77
1, 91584, Control_c, 0, 64, 79
1, 91599, Control_c, 0, 64, 80
1, 91614, Control_c, 0, 64, 81
1, 91640, Note_off_c, 0, 41, 37
1, 91643, Control_c, 0, 64, 82
1, 91658, Control_c, 0, 64, 83
1, 91716, Note_off_c, 0, 63, 37
1, 91751, Note_on_c, 0, 70, 74
1, 91757, Note_on_c, 0, 43, 60
1, 91762, Control_c, 0, 64, 82
1, 91776, Control_c, 0, 64, 81
1, 91791, Control_c, 0, 64, 80
1, 91798, Note_off_c, 0, 71, 54
1, 91806, Control_c, 0, 64, 77
1, 91822, Control_c, 0, 64, 73
1, 91837, Control_c, 0, 64, 68
1, 91852, Control_c, 0, 64, 64
1, 91866, Control_c, 0, 64, 60
1, 91881, Control_c, 0, 64, 56
1, 91896, Control_c, 0, 64, 55
1, 91911, Control_c, 0, 64, 55
1, 91926, Control_c, 0, 64, 57
1, 91940, Control_c, 0, 64, 61
1, 91955, Control_c, 0, 64, 64
1, 91970, Control_c, 0, 64, 67
1, 91985, Note_off_c, 0, 43, 60
1, 91985, Control_c, 0, 64, 71
1, 91995, Note_on_c, 0, 75, 76
1, 92000, Control_c, 0, 64, 75
1, 92014, Control_c, 0, 64, 78
1, 92029, Control_c, 0, 64, 81
1, 92043, Note_off_c, 0, 70, 59
1, 92044, Control_c, 0, 64, 82
1, 92059, Control_c, 0, 64, 83
1, 92073, Control_c, 0, 64, 83
1, 92088, Control_c, 0, 64, 84
1, 92224, Note_off_c, 0, 75, 36
1, 92237, Control_c, 0, 64, 83
1, 92269, Note_on_c, 0, 44, 42
1, 92273, Control_c, 0, 64, 82
1, 92288, Control_c, 0, 64, 80
1, 92303, Control_c, 0, 64, 77
1, 92313, Note_on_c, 0, 64, 55
1, 92318, Control_c, 0, 64, 70
1, 92333, Control_c, 0, 64, 64
1, 92347, Control_c, 0, 64, 57
1, 92362, Control_c, 0, 64, 53
1, 92377, Control_c, 0, 64, 53
1, 92392, Control_c, 0, 64, 53
1, 92407, Control_c, 0, 64, 55
1, 92422, Control_c, 0, 64, 58
1, 92436, Control_c, 0, 64, 61
1, 92451, Control_c, 0, 64, 64
1, 92466, Control_c, 0, 64, 66
1, 92481, Control_c, 0, 64, 69
1, 92496, Control_c, 0, 64, 72
1, 92501, Note_off_c, 0, 44, 52
1, 92511, Control_c, 0, 64, 75
1, 92514, Note_on_c, 0, 52, 40
1, 92526, Control_c, 0, 64, 78
1, 92540, Control_c, 0, 64, 81
1, 92555, Control_c, 0, 64, 84
1, 92570, Control_c, 0, 64, 87
1, 92585, Control_c, 0, 64, 87
1, 92590, Note_off_c, 0, 52, 45
1, 92597, Note_off_c, 0, 64, 29
1, 92599, Control_c, 0, 64, 88
1, 92630, Control_c, 0, 64, 89
1, 92660, Control_c, 0, 64, 89
1, 92727, Note_on_c, 0, 60, 41
1, 92729, Note_on_c, 0, 72, 64
1, 92862, Note_off_c, 0, 60, 37
1, 92877, Note_off_c, 0, 72, 55
1, 92907, Note_on_c, 0, 71, 67
1, 92917, Note_on_c, 0, 52, 42
1, 93022, Control_c, 0, 64, 89
1, 93055, Note_off_c, 0, 52, 47
1, 93063, Note_off_c, 0, 71, 54
1, 93067, Control_c, 0, 64, 88
1, 93096, Control_c, 0, 64, 87
1, 93111, Control_c, 0, 64, 86
1, 93113, Note_on_c, 0, 50, 40
1, 93126, Control_c, 0, 64, 82
1, 93138, Note_on_c, 0, 69, 46
1, 93138, Note_on_c, 0, 76, 62
1, 93141, Control_c, 0, 64, 76
1, 93154, Note_on_c, 0, 65, 45
1, 93156, Control_c, 0, 64, 67
1, 93170, Control_c, 0, 64, 60
1, 93185, Control_c, 0, 64, 53
1, 93200, Control_c, 0, 64, 51
1, 93244, Control_c, 0, 64, 54
1, 93259, Control_c, 0, 64, 58
1, 93274, Control_c, 0, 64, 62
1, 93289, Control_c, 0, 64, 64
1, 93301, Note_off_c, 0, 76, 63
1, 93304, Control_c, 0, 64, 66
1, 93319, Control_c, 0, 64, 69
1, 93334, Control_c, 0, 64, 72
1, 93348, Control_c, 0, 64, 75
1, 93352, Note_on_c, 0, 53, 29
1, 93363, Control_c, 0, 64, 77
1, 93378, Control_c, 0, 64, 79
1, 93393, Control_c, 0, 64, 80
1, 93408, Control_c, 0, 64, 81
1, 93423, Control_c, 0, 64, 82
1, 93438, Control_c, 0, 64, 83
1, 93453, Control_c, 0, 64, 85
1, 93468, Control_c, 0, 64, 86
1, 93483, Control_c, 0, 64, 86
1, 93489, Note_off_c, 0, 53, 24
1, 93530, Note_off_c, 0, 50, 25
1, 93547, Note_on_c, 0, 60, 37
1, 93555, Note_on_c, 0, 74, 58
1, 93629, Note_off_c, 0, 69, 42
1, 93641, Note_off_c, 0, 65, 38
1, 93654, Note_off_c, 0, 60, 37
1, 93725, Note_on_c, 0, 53, 45
1, 93754, Note_off_c, 0, 74, 53
1, 93802, Note_off_c, 0, 53, 57
1, 93948, Note_on_c, 0, 44, 38
1, 93963, Control_c, 0, 64, 86
1, 93978, Control_c, 0, 64, 85
1, 93985, Note_on_c, 0, 72, 49
1, 93991, Note_on_c, 0, 64, 40
1, 93993, Control_c, 0, 64, 82
1, 94008, Control_c, 0, 64, 76
1, 94023, Control_c, 0, 64, 68
1, 94037, Control_c, 0, 64, 62
1, 94052, Control_c, 0, 64, 58
1, 94067, Control_c, 0, 64, 58
1, 94082, Control_c, 0, 64, 59
1, 94097, Control_c, 0, 64, 61
1, 94112, Control_c, 0, 64, 63
1, 94127, Control_c, 0, 64, 65
1, 94142, Control_c, 0, 64, 67
1, 94156, Control_c, 0, 64, 69
1, 94166, Note_off_c, 0, 44, 40
1, 94171, Control_c, 0, 64, 72
1, 94186, Control_c, 0, 64, 74
1, 94201, Control_c, 0, 64, 76
1, 94204, Note_off_c, 0, 64, 35
1, 94216, Control_c, 0, 64, 78
1, 94218, Note_on_c, 0, 52, 37
1, 94231, Control_c, 0, 64, 80
1, 94246, Control_c, 0, 64, 81
1, 94261, Control_c, 0, 64, 82
1, 94276, Control_c, 0, 64, 82
1, 94285, Note_off_c, 0, 72, 58
1, 94316, Note_on_c, 0, 71, 58
1, 94359, Note_off_c, 0, 52, 41
1, 94407, Note_on_c, 0, 60, 43
1, 94409, Note_off_c, 0, 71, 57
1, 94415, Note_on_c, 0, 72, 66
1, 94425, Note_on_c, 0, 69, 56
1, 94562, Note_off_c, 0, 60, 28
1, 94589, Note_on_c, 0, 52, 50
1, 94592, Note_off_c, 0, 72, 58
1, 94593, Note_on_c, 0, 71, 79
1, 94618, Note_off_c, 0, 69, 44
1, 94714, Control_c, 0, 64, 82
1, 94744, Control_c, 0, 64, 81
1, 94746, Note_on_c, 0, 50, 44
1, 94747, Note_off_c, 0, 71, 55
1, 94759, Control_c, 0, 64, 81
1, 94773, Control_c, 0, 64, 80
1, 94788, Control_c, 0, 64, 79
1, 94803, Note_on_c, 0, 76, 69
1, 94803, Control_c, 0, 64, 76
1, 94813, Note_on_c, 0, 68, 50
1, 94815, Note_off_c, 0, 52, 35
1, 94818, Control_c, 0, 64, 70
1, 94827, Note_on_c, 0, 65, 48
1, 94833, Control_c, 0, 64, 64
1, 94848, Control_c, 0, 64, 57
1, 94862, Control_c, 0, 64, 51
1, 94877, Control_c, 0, 64, 49
1, 94907, Control_c, 0, 64, 50
1, 94922, Control_c, 0, 64, 54
1, 94936, Control_c, 0, 64, 59
1, 94951, Control_c, 0, 64, 62
1, 94966, Control_c, 0, 64, 64
1, 94981, Control_c, 0, 64, 66
1, 94982, Note_off_c, 0, 76, 62
1, 94995, Control_c, 0, 64, 68
1, 94997, Note_on_c, 0, 75, 73
1, 95005, Note_on_c, 0, 53, 44
1, 95011, Control_c, 0, 64, 70
1, 95026, Control_c, 0, 64, 72
1, 95041, Control_c, 0, 64, 74
1, 95056, Control_c, 0, 64, 75
1, 95071, Control_c, 0, 64, 75
1, 95085, Control_c, 0, 64, 76
1, 95092, Note_off_c, 0, 75, 60
1, 95100, Control_c, 0, 64, 76
1, 95115, Control_c, 0, 64, 77
1, 95130, Control_c, 0, 64, 77
1, 95174, Control_c, 0, 64, 78
1, 95182, Note_off_c, 0, 53, 34
1, 95206, Note_on_c, 0, 59, 40
1, 95215, Note_on_c, 0, 74, 69
1, 95248, Control_c, 0, 64, 78
1, 95314, Note_off_c, 0, 59, 41
1, 95315, Control_c, 0, 64, 79
1, 95326, Note_off_c, 0, 68, 55
1, 95339, Note_off_c, 0, 65, 30
1, 95397, Note_on_c, 0, 53, 45
1, 95402, Note_off_c, 0, 50, 4
1, 95438, Note_off_c, 0, 74, 55
1, 95461, Note_off_c, 0, 53, 57
1, 95492, Control_c, 0, 64, 78
1, 95596, Control_c, 0, 64, 78
1, 95598, Note_on_c, 0, 44, 37
1, 95610, Control_c, 0, 64, 77
1, 95625, Control_c, 0, 64, 76
1, 95640, Control_c, 0, 64, 74
1, 95655, Control_c, 0, 64, 70
1, 95667, Note_on_c, 0, 72, 51
1, 95670, Control_c, 0, 64, 65
1, 95671, Note_on_c, 0, 64, 43
1, 95684, Control_c, 0, 64, 60
1, 95699, Control_c, 0, 64, 57
1, 95729, Control_c, 0, 64, 58
1, 95744, Control_c, 0, 64, 60
1, 95758, Control_c, 0, 64, 63
1, 95773, Control_c, 0, 64, 65
1, 95788, Control_c, 0, 64, 68
1, 95803, Control_c, 0, 64, 71
1, 95819, Control_c, 0, 64, 74
1, 95833, Control_c, 0, 64, 77
1, 95835, Note_off_c, 0, 44, 40
1, 95848, Control_c, 0, 64, 80
1, 95863, Control_c, 0, 64, 82
1, 95866, Note_off_c, 0, 64, 28
1, 95876, Note_on_c, 0, 52, 43
1, 95878, Control_c, 0, 64, 84
1, 95893, Control_c, 0, 64, 85
1, 95907, Control_c, 0, 64, 86
1, 95947, Note_off_c, 0, 72, 59
1, 95966, Note_on_c, 0, 71, 60
1, 95975, Note_off_c, 0, 52, 44
1, 96040, Note_off_c, 0, 71, 48
1, 96048, Control_c, 0, 64, 87
1, 96070, Note_on_c, 0, 60, 42
1, 96079, Note_on_c, 0, 72, 63
1, 96086, Note_on_c, 0, 69, 51
1, 96210, Note_off_c, 0, 69, 35
1, 96231, Note_off_c, 0, 60, 32
1, 96246, Note_off_c, 0, 72, 57
1, 96255, Note_on_c, 0, 52, 42
1, 96270, Note_on_c, 0, 71, 63
1, 96344, Control_c, 0, 64, 86
1, 96380, Note_off_c, 0, 71, 56
1, 96433, Control_c, 0, 64, 86
1, 96452, Note_on_c, 0, 50, 37
1, 96463, Control_c, 0, 64, 85
1, 96476, Note_on_c, 0, 76, 57
1, 96478, Control_c, 0, 64, 83
1, 96487, Note_off_c, 0, 52, 32
1, 96491, Note_on_c, 0, 69, 39
1, 96493, Control_c, 0, 64, 79
1, 96505, Note_on_c, 0, 65, 36
1, 96507, Control_c, 0, 64, 73
1, 96522, Control_c, 0, 64, 65
1, 96537, Control_c, 0, 64, 59
1, 96552, Control_c, 0, 64, 54
1, 96581, Control_c, 0, 64, 55
1, 96596, Control_c, 0, 64, 58
1, 96612, Control_c, 0, 64, 61
1, 96627, Control_c, 0, 64, 64
1, 96642, Control_c, 0, 64, 66
1, 96656, Control_c, 0, 64, 68
1, 96671, Control_c, 0, 64, 72
1, 96685, Note_on_c, 0, 53, 34
1, 96686, Control_c, 0, 64, 75
1, 96701, Control_c, 0, 64, 77
1, 96716, Control_c, 0, 64, 80
1, 96717, Note_off_c, 0, 76, 56
1, 96725, Note_off_c, 0, 50, 27
1, 96730, Control_c, 0, 64, 81
1, 96745, Control_c, 0, 64, 83
1, 96768, Control_c, 0, 64, 85
1, 96783, Control_c, 0, 64, 85
1, 96797, Control_c, 0, 64, 86
1, 96812, Control_c, 0, 64, 87
1, 96820, Note_off_c, 0, 53, 35
1, 96875, Note_on_c, 0, 60, 40
1, 96881, Note_on_c, 0, 72, 49
1, 96901, Control_c, 0, 64, 87
1, 96909, Note_off_c, 0, 65, 27
1, 96936, Note_off_c, 0, 69, 38
1, 97028, Note_off_c, 0, 60, 33
1, 97081, Note_on_c, 0, 53, 40
1, 97086, Note_on_c, 0, 71, 54
1, 97093, Control_c, 0, 64, 87
1, 97095, Note_off_c, 0, 72, 36
1, 97139, Note_off_c, 0, 53, 57
1, 97156, Note_off_c, 0, 71, 62
1, 97197, Control_c, 0, 64, 86
1, 97271, Control_c, 0, 64, 86
1, 97286, Control_c, 0, 64, 85
1, 97292, Note_on_c, 0, 43, 34
1, 97301, Control_c, 0, 64, 83
1, 97316, Control_c, 0, 64, 80
1, 97325, Note_on_c, 0, 77, 57
1, 97331, Control_c, 0, 64, 74
1, 97332, Note_on_c, 0, 69, 40
1, 97341, Note_on_c, 0, 65, 38
1, 97345, Control_c, 0, 64, 67
1, 97360, Control_c, 0, 64, 62
1, 97375, Control_c, 0, 64, 59
1, 97389, Control_c, 0, 64, 60
1, 97406, Control_c, 0, 64, 61
1, 97420, Control_c, 0, 64, 63
1, 97435, Control_c, 0, 64, 66
1, 97450, Control_c, 0, 64, 68
1, 97465, Control_c, 0, 64, 72
1, 97468, Note_off_c, 0, 43, 41
1, 97479, Control_c, 0, 64, 74
1, 97480, Note_off_c, 0, 77, 59
1, 97494, Control_c, 0, 64, 76
1, 97516, Control_c, 0, 64, 78
1, 97531, Control_c, 0, 64, 80
1, 97546, Control_c, 0, 64, 81
1, 97550, Note_on_c, 0, 53, 44
1, 97561, Control_c, 0, 64, 81
1, 97576, Control_c, 0, 64, 82
1, 97611, Note_off_c, 0, 53, 55
1, 97618, Note_off_c, 0, 69, 30
1, 97620, Control_c, 0, 64, 82
1, 97738, Note_on_c, 0, 72, 55
1, 97739, Note_on_c, 0, 60, 46
1, 97742, Note_off_c, 0, 65, 21
1, 97876, Note_off_c, 0, 72, 0
1, 97918, Note_off_c, 0, 60, 37
1, 97920, Poly_aftertouch_c, 0, 72, 0
1, 97938, Note_on_c, 0, 71, 60
1, 97939, Note_on_c, 0, 62, 43
1, 98000, Note_off_c, 0, 71, 54
1, 98048, Note_off_c, 0, 62, 34
1, 98109, Control_c, 0, 64, 82
1, 98124, Control_c, 0, 64, 81
1, 98139, Control_c, 0, 64, 80
1, 98153, Control_c, 0, 64, 75
1, 98168, Control_c, 0, 64, 68
1, 98175, Note_on_c, 0, 69, 44
1, 98180, Note_on_c, 0, 76, 55
1, 98181, Note_on_c, 0, 64, 38
1, 98183, Control_c, 0, 64, 62
1, 98193, Note_on_c, 0, 65, 28
1, 98198, Control_c, 0, 64, 58
1, 98228, Control_c, 0, 64, 59
1, 98243, Control_c, 0, 64, 62
1, 98265, Control_c, 0, 64, 65
1, 98280, Control_c, 0, 64, 68
1, 98286, Note_off_c, 0, 65, 36
1, 98291, Note_off_c, 0, 69, 36
1, 98295, Control_c, 0, 64, 73
1, 98302, Note_off_c, 0, 64, 37
1, 98309, Control_c, 0, 64, 79
1, 98324, Control_c, 0, 64, 84
1, 98339, Control_c, 0, 64, 87
1, 98354, Control_c, 0, 64, 91
1, 98368, Control_c, 0, 64, 94
1, 98369, Note_off_c, 0, 76, 60
1, 98383, Control_c, 0, 64, 96
1, 98398, Control_c, 0, 64, 97
1, 98407, Note_on_c, 0, 67, 47
1, 98428, Control_c, 0, 64, 97
1, 98443, Control_c, 0, 64, 99
1, 98457, Control_c, 0, 64, 100
1, 98472, Control_c, 0, 64, 101
1, 98561, Control_c, 0, 64, 100
1, 98576, Control_c, 0, 64, 99
1, 98590, Control_c, 0, 64, 96
1, 98605, Control_c, 0, 64, 88
1, 98617, Note_off_c, 0, 67, 39
1, 98620, Control_c, 0, 64, 75
1, 98624, Note_on_c, 0, 70, 46
1, 98634, Control_c, 0, 64, 66
1, 98649, Control_c, 0, 64, 59
1, 98664, Control_c, 0, 64, 56
1, 98694, Control_c, 0, 64, 57
1, 98708, Control_c, 0, 64, 59
1, 98723, Control_c, 0, 64, 62
1, 98738, Control_c, 0, 64, 64
1, 98753, Control_c, 0, 64, 66
1, 98768, Control_c, 0, 64, 68
1, 98783, Control_c, 0, 64, 71
1, 98798, Control_c, 0, 64, 73
1, 98813, Control_c, 0, 64, 76
1, 98827, Control_c, 0, 64, 78
1, 98842, Control_c, 0, 64, 80
1, 98857, Control_c, 0, 64, 81
1, 98865, Note_off_c, 0, 70, 33
1, 98872, Control_c, 0, 64, 82
1, 98878, Note_on_c, 0, 71, 45
1, 98887, Control_c, 0, 64, 83
1, 98916, Control_c, 0, 64, 83
1, 98931, Control_c, 0, 64, 84
1, 99028, Control_c, 0, 64, 84
1, 99126, Note_off_c, 0, 71, 27
1, 99206, Control_c, 0, 64, 84
1, 99217, Note_on_c, 0, 76, 52
1, 99221, Control_c, 0, 64, 83
1, 99233, Note_on_c, 0, 72, 32
1, 99236, Control_c, 0, 64, 80
1, 99251, Control_c, 0, 64, 74
1, 99265, Control_c, 0, 64, 67
1, 99280, Control_c, 0, 64, 61
1, 99295, Control_c, 0, 64, 59
1, 99310, Control_c, 0, 64, 60
1, 99325, Control_c, 0, 64, 61
1, 99339, Control_c, 0, 64, 63
1, 99354, Control_c, 0, 64, 65
1, 99369, Control_c, 0, 64, 67
1, 99384, Control_c, 0, 64, 70
1, 99399, Control_c, 0, 64, 73
1, 99413, Control_c, 0, 64, 77
1, 99428, Control_c, 0, 64, 79
1, 99443, Control_c, 0, 64, 82
1, 99444, Note_off_c, 0, 72, 39
1, 99457, Control_c, 0, 64, 85
1, 99472, Control_c, 0, 64, 88
1, 99483, Note_on_c, 0, 71, 35
1, 99487, Control_c, 0, 64, 92
1, 99502, Control_c, 0, 64, 94
1, 99517, Control_c, 0, 64, 95
1, 99546, Control_c, 0, 64, 96
1, 99561, Control_c, 0, 64, 96
1, 99600, Note_off_c, 0, 71, 32
1, 99671, Note_on_c, 0, 84, 53
1, 99680, Note_on_c, 0, 69, 35
1, 99807, Control_c, 0, 64, 96
1, 99836, Control_c, 0, 64, 95
1, 99856, Note_off_c, 0, 84, 44
1, 99871, Note_off_c, 0, 69, 42
1, 99880, Note_on_c, 0, 83, 53
1, 99892, Note_on_c, 0, 68, 39
1, 99944, Note_off_c, 0, 68, 49
1, 100066, Note_off_c, 0, 83, 38
1, 100082, Note_on_c, 0, 88, 53
1, 100088, Control_c, 0, 64, 94
1, 100093, Note_on_c, 0, 67, 40
1, 100096, Note_on_c, 0, 60, 37
1, 100103, Control_c, 0, 64, 91
1, 100118, Control_c, 0, 64, 83
1, 100133, Control_c, 0, 64, 73
1, 100148, Control_c, 0, 64, 65
1, 100162, Control_c, 0, 64, 61
1, 100177, Control_c, 0, 64, 61
1, 100192, Control_c, 0, 64, 61
1, 100207, Control_c, 0, 64, 63
1, 100222, Control_c, 0, 64, 65
1, 100236, Control_c, 0, 64, 69
1, 100251, Control_c, 0, 64, 74
1, 100260, Note_off_c, 0, 60, 34
1, 100266, Control_c, 0, 64, 80
1, 100273, Note_off_c, 0, 67, 57
1, 100280, Control_c, 0, 64, 85
1, 100295, Control_c, 0, 64, 91
1, 100309, Note_on_c, 0, 69, 41
1, 100310, Control_c, 0, 64, 96
1, 100325, Control_c, 0, 64, 101
1, 100340, Control_c, 0, 64, 104
1, 100350, Note_off_c, 0, 88, 33
1, 100354, Control_c, 0, 64, 105
1, 100384, Control_c, 0, 64, 106
1, 100458, Control_c, 0, 64, 105
1, 100473, Control_c, 0, 64, 105
1, 100479, Note_off_c, 0, 76, 41
1, 100488, Note_on_c, 0, 84, 63
1, 100492, Note_off_c, 0, 69, 44
1, 100513, Note_on_c, 0, 70, 37
1, 100679, Note_off_c, 0, 84, 56
1, 100691, Note_on_c, 0, 83, 66
1, 100697, Note_off_c, 0, 70, 42
1, 100702, Note_on_c, 0, 71, 46
1, 100796, Note_off_c, 0, 83, 60
1, 100807, Control_c, 0, 64, 104
1, 100822, Control_c, 0, 64, 103
1, 100837, Control_c, 0, 64, 101
1, 100852, Control_c, 0, 64, 98
1, 100866, Control_c, 0, 64, 92
1, 100881, Control_c, 0, 64, 84
1, 100885, Note_off_c, 0, 71, 43
1, 100893, Note_on_c, 0, 88, 63
1, 100896, Control_c, 0, 64, 74
1, 100908, Note_on_c, 0, 72, 36
1, 100911, Note_on_c, 0, 76, 39
1, 100911, Control_c, 0, 64, 66
1, 100926, Control_c, 0, 64, 61
1, 100941, Control_c, 0, 64, 60
1, 100956, Control_c, 0, 64, 62
1, 100970, Control_c, 0, 64, 63
1, 100985, Control_c, 0, 64, 65
1, 101000, Control_c, 0, 64, 68
1, 101015, Control_c, 0, 64, 72
1, 101030, Control_c, 0, 64, 77
1, 101044, Control_c, 0, 64, 82
1, 101054, Note_off_c, 0, 76, 47
1, 101059, Control_c, 0, 64, 85
1, 101074, Control_c, 0, 64, 87
1, 101089, Control_c, 0, 64, 90
1, 101094, Note_off_c, 0, 72, 43
1, 101103, Control_c, 0, 64, 92
1, 101116, Note_on_c, 0, 71, 36
1, 101118, Control_c, 0, 64, 93
1, 101140, Note_off_c, 0, 88, 56
1, 101148, Control_c, 0, 64, 94
1, 101259, Note_off_c, 0, 71, 33
1, 101259, Control_c, 0, 64, 93
1, 101274, Control_c, 0, 64, 92
1, 101288, Note_on_c, 0, 86, 63
1, 101289, Note_on_c, 0, 64, 43
1, 101289, Control_c, 0, 64, 89
1, 101300, Note_on_c, 0, 77, 45
1, 101302, Note_on_c, 0, 69, 39
1, 101303, Control_c, 0, 64, 82
1, 101318, Control_c, 0, 64, 74
1, 101333, Control_c, 0, 64, 66
1, 101347, Control_c, 0, 64, 63
1, 101362, Control_c, 0, 64, 63
1, 101376, Control_c, 0, 64, 64
1, 101391, Control_c, 0, 64, 66
1, 101407, Control_c, 0, 64, 68
1, 101419, Note_off_c, 0, 77, 44
1, 101422, Control_c, 0, 64, 73
1, 101437, Control_c, 0, 64, 77
1, 101452, Control_c, 0, 64, 80
1, 101466, Note_off_c, 0, 64, 41
1, 101467, Control_c, 0, 64, 82
1, 101481, Control_c, 0, 64, 83
1, 101484, Note_off_c, 0, 69, 43
1, 101490, Note_off_c, 0, 86, 62
1, 101496, Control_c, 0, 64, 84
1, 101504, Note_on_c, 0, 68, 31
1, 101511, Control_c, 0, 64, 86
1, 101525, Control_c, 0, 64, 87
1, 101540, Control_c, 0, 64, 89
1, 101555, Control_c, 0, 64, 90
1, 101570, Control_c, 0, 64, 92
1, 101585, Control_c, 0, 64, 92
1, 101630, Control_c, 0, 64, 92
1, 101644, Control_c, 0, 64, 91
1, 101659, Control_c, 0, 64, 89
1, 101669, Note_off_c, 0, 68, 34
1, 101674, Control_c, 0, 64, 83
1, 101689, Control_c, 0, 64, 73
1, 101692, Note_on_c, 0, 69, 35
1, 101695, Note_on_c, 0, 62, 28
1, 101698, Note_on_c, 0, 84, 55
1, 101704, Control_c, 0, 64, 66
1, 101712, Note_on_c, 0, 78, 41
1, 101719, Control_c, 0, 64, 64
1, 101733, Control_c, 0, 64, 64
1, 101748, Control_c, 0, 64, 65
1, 101751, Note_off_c, 0, 84, 63
1, 101763, Control_c, 0, 64, 66
1, 101778, Control_c, 0, 64, 69
1, 101793, Control_c, 0, 64, 73
1, 101807, Control_c, 0, 64, 79
1, 101822, Control_c, 0, 64, 83
1, 101837, Control_c, 0, 64, 86
1, 101838, Note_off_c, 0, 62, 37
1, 101849, Note_off_c, 0, 78, 62
1, 101851, Control_c, 0, 64, 87
1, 101866, Control_c, 0, 64, 87
1, 101874, Note_off_c, 0, 69, 46
1, 101881, Control_c, 0, 64, 88
1, 101902, Note_on_c, 0, 71, 43
1, 101911, Control_c, 0, 64, 88
1, 101925, Control_c, 0, 64, 89
1, 101931, Note_off_c, 0, 71, 54
1, 101940, Control_c, 0, 64, 89
1, 101955, Control_c, 0, 64, 90
1, 101960, Note_on_c, 0, 83, 59
1, 102007, Control_c, 0, 64, 89
1, 102022, Control_c, 0, 64, 88
1, 102037, Control_c, 0, 64, 85
1, 102051, Control_c, 0, 64, 79
1, 102052, Note_off_c, 0, 83, 53
1, 102066, Control_c, 0, 64, 68
1, 102081, Control_c, 0, 64, 61
1, 102092, Note_on_c, 0, 57, 44
1, 102097, Control_c, 0, 64, 57
1, 102100, Note_on_c, 0, 81, 52
1, 102112, Control_c, 0, 64, 58
1, 102117, Note_on_c, 0, 79, 40
1, 102122, Note_on_c, 0, 72, 16
1, 102127, Control_c, 0, 64, 61
1, 102142, Control_c, 0, 64, 63
1, 102148, Note_off_c, 0, 57, 63
1, 102157, Control_c, 0, 64, 66
1, 102165, Note_off_c, 0, 72, 52
1, 102172, Control_c, 0, 64, 71
1, 102176, Note_off_c, 0, 79, 55
1, 102187, Control_c, 0, 64, 75
1, 102202, Control_c, 0, 64, 79
1, 102217, Control_c, 0, 64, 80
1, 102232, Control_c, 0, 64, 81
1, 102247, Control_c, 0, 64, 81
1, 102261, Control_c, 0, 64, 82
1, 102291, Control_c, 0, 64, 82
1, 102318, Note_on_c, 0, 74, 45
1, 102351, Note_off_c, 0, 81, 28
1, 102473, Note_off_c, 0, 74, 36
1, 102483, Control_c, 0, 64, 82
1, 102498, Control_c, 0, 64, 81
1, 102513, Control_c, 0, 64, 81
1, 102528, Note_on_c, 0, 77, 58
1, 102528, Control_c, 0, 64, 80
1, 102543, Control_c, 0, 64, 77
1, 102544, Note_on_c, 0, 76, 39
1, 102557, Control_c, 0, 64, 71
1, 102572, Control_c, 0, 64, 65
1, 102587, Control_c, 0, 64, 59
1, 102602, Control_c, 0, 64, 57
1, 102631, Control_c, 0, 64, 58
1, 102646, Control_c, 0, 64, 60
1, 102661, Control_c, 0, 64, 63
1, 102676, Control_c, 0, 64, 65
1, 102691, Control_c, 0, 64, 67
1, 102704, Note_off_c, 0, 76, 41
1, 102706, Control_c, 0, 64, 70
1, 102721, Control_c, 0, 64, 72
1, 102735, Note_on_c, 0, 74, 40
1, 102735, Control_c, 0, 64, 74
1, 102757, Control_c, 0, 64, 76
1, 102772, Control_c, 0, 64, 77
1, 102787, Control_c, 0, 64, 78
1, 102791, Note_off_c, 0, 77, 0
1, 102802, Control_c, 0, 64, 79
1, 102817, Control_c, 0, 64, 80
1, 102828, Poly_aftertouch_c, 0, 77, 127
1, 102831, Control_c, 0, 64, 81
1, 102836, Note_off_c, 0, 74, 55
1, 102846, Control_c, 0, 64, 82
1, 102926, Note_on_c, 0, 88, 61
1, 102945, Note_on_c, 0, 72, 34
1, 103045, Note_off_c, 0, 72, 39
1, 103117, Note_off_c, 0, 88, 59
1, 103127, Note_on_c, 0, 86, 65
1, 103137, Note_on_c, 0, 71, 43
1, 103242, Note_off_c, 0, 71, 41
1, 103262, Control_c, 0, 64, 81
1, 103292, Control_c, 0, 64, 81
1, 103306, Control_c, 0, 64, 80
1, 103321, Control_c, 0, 64, 78
1, 103325, Note_on_c, 0, 69, 39
1, 103326, Note_on_c, 0, 62, 29
1, 103326, Note_on_c, 0, 89, 58
1, 103336, Control_c, 0, 64, 73
1, 103349, Note_off_c, 0, 86, 57
1, 103351, Control_c, 0, 64, 66
1, 103366, Control_c, 0, 64, 59
1, 103380, Control_c, 0, 64, 55
1, 103395, Control_c, 0, 64, 54
1, 103425, Control_c, 0, 64, 56
1, 103440, Control_c, 0, 64, 59
1, 103454, Control_c, 0, 64, 62
1, 103469, Control_c, 0, 64, 64
1, 103481, Poly_aftertouch_c, 0, 77, 0
1, 103484, Control_c, 0, 64, 67
1, 103492, Note_off_c, 0, 69, 54
1, 103493, Note_off_c, 0, 62, 39
1, 103506, Control_c, 0, 64, 69
1, 103521, Control_c, 0, 64, 72
1, 103525, Poly_aftertouch_c, 0, 77, 127
1, 103536, Control_c, 0, 64, 74
1, 103551, Control_c, 0, 64, 77
1, 103561, Note_on_c, 0, 71, 38
1, 103566, Control_c, 0, 64, 79
1, 103580, Control_c, 0, 64, 80
1, 103595, Control_c, 0, 64, 80
1, 103625, Control_c, 0, 64, 81
1, 103641, Note_off_c, 0, 89, 28
1, 103704, Note_off_c, 0, 71, 26
1, 103709, Poly_aftertouch_c, 0, 77, 0
1, 103728, Note_on_c, 0, 88, 57
1, 103739, Note_on_c, 0, 72, 44
1, 103818, Control_c, 0, 64, 81
1, 103896, Note_off_c, 0, 72, 42
1, 103909, Note_off_c, 0, 88, 59
1, 103918, Note_on_c, 0, 86, 66
1, 103922, Note_on_c, 0, 74, 44
1, 103922, Control_c, 0, 64, 81
1, 104041, Control_c, 0, 64, 80
1, 104048, Note_off_c, 0, 74, 54
1, 104056, Control_c, 0, 64, 80
1, 104070, Control_c, 0, 64, 79
1, 104075, Note_off_c, 0, 86, 58
1, 104085, Control_c, 0, 64, 78
1, 104100, Control_c, 0, 64, 76
1, 104106, Note_on_c, 0, 76, 39
1, 104115, Control_c, 0, 64, 71
1, 104118, Note_on_c, 0, 89, 72
1, 104125, Note_on_c, 0, 81, 54
1, 104130, Control_c, 0, 64, 65
1, 104145, Control_c, 0, 64, 60
1, 104160, Control_c, 0, 64, 57
1, 104190, Control_c, 0, 64, 59
1, 104204, Control_c, 0, 64, 61
1, 104219, Control_c, 0, 64, 64
1, 104234, Control_c, 0, 64, 66
1, 104241, Note_off_c, 0, 81, 57
1, 104249, Control_c, 0, 64, 69
1, 104268, Note_off_c, 0, 76, 54
1, 104268, Note_off_c, 0, 89, 62
1, 104271, Control_c, 0, 64, 72
1, 104286, Control_c, 0, 64, 76
1, 104300, Control_c, 0, 64, 79
1, 104312, Note_on_c, 0, 74, 47
1, 104315, Control_c, 0, 64, 82
1, 104330, Control_c, 0, 64, 85
1, 104345, Control_c, 0, 64, 88
1, 104360, Control_c, 0, 64, 91
1, 104375, Control_c, 0, 64, 93
1, 104390, Control_c, 0, 64, 95
1, 104404, Control_c, 0, 64, 96
1, 104419, Control_c, 0, 64, 97
1, 104434, Control_c, 0, 64, 98
1, 104446, Note_off_c, 0, 74, 40
1, 104483, Note_on_c, 0, 67, 38
1, 104493, Control_c, 0, 64, 96
1, 104508, Control_c, 0, 64, 91
1, 104512, Note_on_c, 0, 91, 82
1, 104513, Note_on_c, 0, 72, 47
1, 104522, Control_c, 0, 64, 82
1, 104525, Note_on_c, 0, 77, 56
1, 104537, Control_c, 0, 64, 71
1, 104552, Control_c, 0, 64, 63
1, 104567, Control_c, 0, 64, 60
1, 104577, Note_off_c, 0, 77, 39
1, 104582, Control_c, 0, 64, 62
1, 104598, Control_c, 0, 64, 64
1, 104613, Control_c, 0, 64, 66
1, 104627, Control_c, 0, 64, 70
1, 104634, Note_off_c, 0, 91, 63
1, 104642, Control_c, 0, 64, 75
1, 104657, Control_c, 0, 64, 80
1, 104672, Control_c, 0, 64, 84
1, 104687, Note_off_c, 0, 67, 33
1, 104687, Control_c, 0, 64, 85
1, 104699, Note_off_c, 0, 72, 34
1, 104701, Control_c, 0, 64, 87
1, 104716, Control_c, 0, 64, 90
1, 104718, Note_on_c, 0, 71, 53
1, 104731, Control_c, 0, 64, 93
1, 104745, Control_c, 0, 64, 94
1, 104760, Control_c, 0, 64, 94
1, 104819, Note_off_c, 0, 71, 48
1, 104905, Note_on_c, 0, 72, 40
1, 104909, Control_c, 0, 64, 93
1, 104920, Note_on_c, 0, 88, 62
1, 104923, Control_c, 0, 64, 90
1, 104933, Note_on_c, 0, 78, 52
1, 104938, Control_c, 0, 64, 83
1, 104953, Control_c, 0, 64, 71
1, 104968, Control_c, 0, 64, 63
1, 104983, Control_c, 0, 64, 59
1, 105005, Control_c, 0, 64, 60
1, 105020, Control_c, 0, 64, 61
1, 105034, Control_c, 0, 64, 63
1, 105049, Control_c, 0, 64, 65
1, 105064, Control_c, 0, 64, 67
1, 105078, Control_c, 0, 64, 70
1, 105093, Control_c, 0, 64, 73
1, 105101, Note_off_c, 0, 78, 24
1, 105108, Control_c, 0, 64, 76
1, 105121, Note_off_c, 0, 72, 36
1, 105123, Control_c, 0, 64, 79
1, 105138, Control_c, 0, 64, 82
1, 105141, Note_on_c, 0, 67, 40
1, 105153, Control_c, 0, 64, 86
1, 105168, Control_c, 0, 64, 89
1, 105183, Note_off_c, 0, 88, 55
1, 105183, Control_c, 0, 64, 91
1, 105198, Control_c, 0, 64, 94
1, 105213, Control_c, 0, 64, 99
1, 105213, Note_on_c, 0, 86, 55
1, 105227, Control_c, 0, 64, 105
1, 105242, Control_c, 0, 64, 113
1, 105245, Note_off_c, 0, 67, 52
1, 105257, Control_c, 0, 64, 117
1, 105297, Note_off_c, 0, 86, 55
1, 105316, Control_c, 0, 64, 113
1, 105331, Control_c, 0, 64, 102
1, 105345, Control_c, 0, 64, 89
1, 105350, Note_on_c, 0, 64, 34
1, 105360, Control_c, 0, 64, 75
1, 105364, Note_on_c, 0, 84, 47
1, 105375, Control_c, 0, 64, 65
1, 105390, Note_on_c, 0, 79, 31
1, 105391, Control_c, 0, 64, 59
1, 105406, Control_c, 0, 64, 60
1, 105421, Control_c, 0, 64, 63
1, 105436, Control_c, 0, 64, 65
1, 105450, Control_c, 0, 64, 67
1, 105465, Control_c, 0, 64, 72
1, 105480, Control_c, 0, 64, 77
1, 105484, Note_off_c, 0, 64, 36
1, 105486, Note_off_c, 0, 79, 38
1, 105488, Note_off_c, 0, 84, 63
1, 105495, Control_c, 0, 64, 81
1, 105510, Control_c, 0, 64, 84
1, 105524, Control_c, 0, 64, 86
1, 105539, Control_c, 0, 64, 90
1, 105554, Control_c, 0, 64, 92
1, 105568, Control_c, 0, 64, 94
1, 105583, Control_c, 0, 64, 94
1, 105598, Control_c, 0, 64, 95
1, 105603, Note_on_c, 0, 60, 25
1, 105613, Control_c, 0, 64, 96
1, 105628, Control_c, 0, 64, 97
1, 105670, Note_off_c, 0, 60, 58
1, 105828, Control_c, 0, 64, 96
1, 105843, Control_c, 0, 64, 94
1, 105857, Control_c, 0, 64, 90
1, 105872, Control_c, 0, 64, 81
1, 105887, Control_c, 0, 64, 69
1, 105901, Control_c, 0, 64, 64
1, 105916, Control_c, 0, 64, 65
1, 105917, Note_on_c, 0, 74, 42
1, 105929, Note_on_c, 0, 65, 32
1, 105929, Note_on_c, 0, 72, 35
1, 105931, Note_on_c, 0, 69, 30
1, 105931, Control_c, 0, 64, 67
1, 105934, Note_on_c, 0, 53, 30
1, 105946, Control_c, 0, 64, 71
1, 105961, Control_c, 0, 64, 75
1, 105964, Note_off_c, 0, 65, 45
1, 105970, Note_off_c, 0, 53, 45
1, 105976, Control_c, 0, 64, 80
1, 105991, Control_c, 0, 64, 86
1, 106006, Control_c, 0, 64, 90
1, 106020, Control_c, 0, 64, 92
1, 106033, Note_off_c, 0, 69, 0
1, 106035, Control_c, 0, 64, 93
1, 106050, Control_c, 0, 64, 92
1, 106065, Control_c, 0, 64, 87
1, 106070, Poly_aftertouch_c, 0, 69, 127
1, 106080, Control_c, 0, 64, 77
1, 106094, Control_c, 0, 64, 68
1, 106109, Control_c, 0, 64, 65
1, 106124, Control_c, 0, 64, 67
1, 106139, Control_c, 0, 64, 70
1, 106149, Note_on_c, 0, 60, 53
1, 106149, Note_on_c, 0, 48, 52
1, 106154, Control_c, 0, 64, 74
1, 106161, Note_off_c, 0, 74, 55
1, 106168, Control_c, 0, 64, 80
1, 106172, Note_off_c, 0, 60, 62
1, 106174, Note_off_c, 0, 48, 57
1, 106178, Note_off_c, 0, 72, 42
1, 106179, Poly_aftertouch_c, 0, 69, 0
1, 106183, Control_c, 0, 64, 85
1, 106199, Control_c, 0, 64, 89
1, 106214, Control_c, 0, 64, 91
1, 106244, Control_c, 0, 64, 91
1, 106259, Control_c, 0, 64, 92
1, 106330, Note_on_c, 0, 74, 54
1, 106333, Note_on_c, 0, 72, 55
1, 106345, Note_on_c, 0, 69, 39
1, 106347, Control_c, 0, 64, 91
1, 106362, Control_c, 0, 64, 91
1, 106367, Note_off_c, 0, 74, 64
1, 106368, Note_off_c, 0, 72, 65
1, 106378, Note_off_c, 0, 69, 50
1, 106391, Control_c, 0, 64, 90
1, 106503, Note_on_c, 0, 72, 57
1, 106506, Note_on_c, 0, 48, 48
1, 106507, Note_on_c, 0, 75, 61
1, 106509, Note_on_c, 0, 60, 49
1, 106522, Note_on_c, 0, 69, 31
1, 106528, Note_off_c, 0, 48, 59
1, 106533, Note_off_c, 0, 60, 56
1, 106546, Note_off_c, 0, 72, 56
1, 106547, Control_c, 0, 64, 91
1, 106563, Note_off_c, 0, 75, 49
1, 106564, Note_off_c, 0, 69, 49
1, 106606, Control_c, 0, 64, 89
1, 106621, Control_c, 0, 64, 82
1, 106636, Control_c, 0, 64, 68
1, 106651, Control_c, 0, 64, 58
1, 106666, Control_c, 0, 64, 55
1, 106680, Control_c, 0, 64, 58
1, 106695, Control_c, 0, 64, 62
1, 106700, Note_on_c, 0, 69, 48
1, 106703, Note_on_c, 0, 72, 50
1, 106709, Note_on_c, 0, 52, 44
1, 106710, Control_c, 0, 64, 66
1, 106712, Note_on_c, 0, 76, 57
1, 106720, Note_on_c, 0, 64, 35
1, 106724, Control_c, 0, 64, 72
1, 106731, Note_off_c, 0, 69, 64
1, 106733, Note_off_c, 0, 72, 66
1, 106739, Control_c, 0, 64, 80
1, 106745, Note_off_c, 0, 76, 65
1, 106751, Note_off_c, 0, 64, 52
1, 106753, Note_off_c, 0, 52, 64
1, 106754, Control_c, 0, 64, 86
1, 106769, Control_c, 0, 64, 90
1, 106784, Control_c, 0, 64, 92
1, 106798, Control_c, 0, 64, 96
1, 106813, Control_c, 0, 64, 100
1, 106828, Control_c, 0, 64, 100
1, 106858, Control_c, 0, 64, 101
1, 106918, Control_c, 0, 64, 100
1, 106932, Control_c, 0, 64, 100
1, 106947, Control_c, 0, 64, 99
1, 106956, Note_on_c, 0, 48, 46
1, 106960, Note_on_c, 0, 60, 50
1, 106984, Note_off_c, 0, 48, 60
1, 106986, Note_off_c, 0, 60, 63
1, 106992, Control_c, 0, 64, 99
1, 107007, Control_c, 0, 64, 98
1, 107022, Control_c, 0, 64, 98
1, 107034, Note_on_c, 0, 89, 66
1, 107037, Control_c, 0, 64, 97
1, 107105, Note_on_c, 0, 88, 71
1, 107107, Note_off_c, 0, 89, 62
1, 107114, Note_on_c, 0, 84, 58
1, 107120, Note_on_c, 0, 81, 49
1, 107129, Note_off_c, 0, 88, 70
1, 107131, Note_off_c, 0, 84, 64
1, 107140, Note_off_c, 0, 81, 61
1, 107314, Note_on_c, 0, 48, 44
1, 107324, Note_on_c, 0, 60, 40
1, 107340, Note_off_c, 0, 48, 55
1, 107358, Note_off_c, 0, 60, 46
1, 107400, Control_c, 0, 64, 97
1, 107415, Control_c, 0, 64, 95
1, 107429, Control_c, 0, 64, 91
1, 107444, Control_c, 0, 64, 80
1, 107459, Control_c, 0, 64, 67
1, 107473, Control_c, 0, 64, 55
1, 107500, Note_on_c, 0, 81, 55
1, 107503, Control_c, 0, 64, 59
1, 107508, Note_on_c, 0, 50, 44
1, 107512, Note_on_c, 0, 72, 41
1, 107517, Note_on_c, 0, 77, 42
1, 107518, Control_c, 0, 64, 62
1, 107520, Note_on_c, 0, 62, 42
1, 107533, Control_c, 0, 64, 66
1, 107544, Note_off_c, 0, 50, 63
1, 107547, Note_off_c, 0, 62, 59
1, 107547, Control_c, 0, 64, 70
1, 107562, Control_c, 0, 64, 77
1, 107566, Note_off_c, 0, 77, 46
1, 107577, Control_c, 0, 64, 81
1, 107592, Control_c, 0, 64, 83
1, 107607, Control_c, 0, 64, 85
1, 107621, Control_c, 0, 64, 86
1, 107636, Control_c, 0, 64, 85
1, 107637, Note_off_c, 0, 72, 26
1, 107651, Control_c, 0, 64, 79
1, 107666, Control_c, 0, 64, 68
1, 107681, Control_c, 0, 64, 62
1, 107696, Control_c, 0, 64, 63
1, 107711, Note_on_c, 0, 60, 48
1, 107711, Control_c, 0, 64, 65
1, 107720, Note_on_c, 0, 48, 39
1, 107725, Control_c, 0, 64, 68
1, 107740, Control_c, 0, 64, 71
1, 107748, Note_off_c, 0, 60, 65
1, 107749, Note_off_c, 0, 48, 57
1, 107755, Control_c, 0, 64, 76
1, 107770, Control_c, 0, 64, 79
1, 107785, Control_c, 0, 64, 80
1, 107800, Control_c, 0, 64, 81
1, 107856, Note_off_c, 0, 81, 37
1, 107860, Control_c, 0, 64, 81
1, 107875, Control_c, 0, 64, 82
1, 107889, Control_c, 0, 64, 82
1, 107892, Note_on_c, 0, 76, 51
1, 107904, Note_on_c, 0, 71, 42
1, 107904, Control_c, 0, 64, 83
1, 107934, Control_c, 0, 64, 84
1, 107937, Note_off_c, 0, 76, 45
1, 107940, Note_off_c, 0, 71, 48
1, 108059, Control_c, 0, 64, 83
1, 108062, Note_on_c, 0, 77, 55
1, 108074, Note_on_c, 0, 48, 54
1, 108074, Note_on_c, 0, 74, 48
1, 108084, Note_on_c, 0, 60, 47
1, 108100, Note_on_c, 0, 69, 36
1, 108103, Note_off_c, 0, 48, 54
1, 108104, Note_off_c, 0, 74, 58
1, 108114, Note_off_c, 0, 60, 52
1, 108131, Note_off_c, 0, 69, 49
1, 108148, Note_off_c, 0, 77, 56
1, 108208, Control_c, 0, 64, 82
1, 108223, Control_c, 0, 64, 76
1, 108238, Control_c, 0, 64, 67
1, 108252, Control_c, 0, 64, 57
1, 108264, Note_on_c, 0, 79, 63
1, 108267, Control_c, 0, 64, 54
1, 108271, Note_on_c, 0, 52, 46
1, 108275, Note_on_c, 0, 64, 42
1, 108275, Note_on_c, 0, 72, 42
1, 108280, Note_on_c, 0, 67, 39
1, 108282, Control_c, 0, 64, 56
1, 108296, Control_c, 0, 64, 59
1, 108309, Note_off_c, 0, 64, 63
1, 108311, Control_c, 0, 64, 63
1, 108314, Note_off_c, 0, 52, 63
1, 108326, Control_c, 0, 64, 67
1, 108330, Note_off_c, 0, 72, 51
1, 108341, Control_c, 0, 64, 70
1, 108356, Control_c, 0, 64, 75
1, 108370, Control_c, 0, 64, 79
1, 108385, Control_c, 0, 64, 82
1, 108400, Control_c, 0, 64, 84
1, 108415, Control_c, 0, 64, 82
1, 108430, Control_c, 0, 64, 75
1, 108444, Control_c, 0, 64, 67
1, 108447, Poly_aftertouch_c, 0, 72, 127
1, 108459, Control_c, 0, 64, 64
1, 108474, Control_c, 0, 64, 66
1, 108489, Control_c, 0, 64, 69
1, 108499, Note_on_c, 0, 48, 37
1, 108503, Control_c, 0, 64, 74
1, 108506, Note_on_c, 0, 60, 34
1, 108518, Control_c, 0, 64, 80
1, 108533, Control_c, 0, 64, 86
1, 108537, Note_off_c, 0, 67, 38
1, 108548, Control_c, 0, 64, 89
1, 108563, Control_c, 0, 64, 90
1, 108563, Note_off_c, 0, 48, 44
1, 108563, Note_off_c, 0, 79, 61
1, 108564, Note_off_c, 0, 60, 56
1, 108589, Poly_aftertouch_c, 0, 72, 0
1, 108638, Control_c, 0, 64, 90
1, 108667, Control_c, 0, 64, 91
1, 108697, Control_c, 0, 64, 91
1, 108727, Control_c, 0, 64, 92
1, 108779, Control_c, 0, 64, 93
1, 108793, Control_c, 0, 64, 93
1, 108846, Note_on_c, 0, 48, 46
1, 108852, Note_on_c, 0, 60, 45
1, 108870, Note_off_c, 0, 48, 56
1, 108876, Note_off_c, 0, 60, 58
1, 108985, Control_c, 0, 64, 92
1, 108999, Control_c, 0, 64, 88
1, 109014, Control_c, 0, 64, 79
1, 109029, Control_c, 0, 64, 67
1, 109043, Note_on_c, 0, 55, 51
1, 109044, Control_c, 0, 64, 61
1, 109047, Note_on_c, 0, 67, 47
1, 109051, Note_on_c, 0, 76, 60
1, 109059, Note_on_c, 0, 74, 50
1, 109059, Control_c, 0, 64, 62
1, 109060, Note_on_c, 0, 70, 43
1, 109073, Control_c, 0, 64, 65
1, 109074, Note_off_c, 0, 67, 62
1, 109081, Note_off_c, 0, 55, 64
1, 109088, Control_c, 0, 64, 68
1, 109103, Control_c, 0, 64, 75
1, 109118, Control_c, 0, 64, 84
1, 109132, Control_c, 0, 64, 93
1, 109147, Control_c, 0, 64, 98
1, 109177, Control_c, 0, 64, 91
1, 109192, Control_c, 0, 64, 77
1, 109207, Control_c, 0, 64, 66
1, 109222, Control_c, 0, 64, 63
1, 109237, Control_c, 0, 64, 67
1, 109252, Control_c, 0, 64, 71
1, 109253, Note_on_c, 0, 48, 54
1, 109257, Note_on_c, 0, 60, 59
1, 109266, Control_c, 0, 64, 78
1, 109276, Note_off_c, 0, 76, 59
1, 109281, Control_c, 0, 64, 86
1, 109286, Note_off_c, 0, 74, 55
1, 109292, Note_off_c, 0, 48, 63
1, 109296, Note_off_c, 0, 60, 64
1, 109296, Control_c, 0, 64, 92
1, 109306, Note_off_c, 0, 70, 40
1, 109310, Control_c, 0, 64, 94
1, 109424, Note_on_c, 0, 76, 75
1, 109430, Note_on_c, 0, 74, 61
1, 109430, Control_c, 0, 64, 95
1, 109434, Note_on_c, 0, 70, 58
1, 109445, Control_c, 0, 64, 95
1, 109460, Control_c, 0, 64, 97
1, 109475, Control_c, 0, 64, 97
1, 109478, Note_off_c, 0, 70, 56
1, 109500, Note_off_c, 0, 74, 48
1, 109511, Control_c, 0, 64, 98
1, 109545, Note_off_c, 0, 76, 57
1, 109595, Note_on_c, 0, 48, 55
1, 109606, Note_on_c, 0, 74, 65
1, 109607, Note_on_c, 0, 77, 84
1, 109612, Note_on_c, 0, 60, 36
1, 109614, Note_off_c, 0, 48, 62
1, 109618, Note_on_c, 0, 70, 60
1, 109630, Control_c, 0, 64, 99
1, 109638, Note_off_c, 0, 74, 63
1, 109645, Control_c, 0, 64, 103
1, 109646, Note_off_c, 0, 60, 46
1, 109649, Note_off_c, 0, 70, 64
1, 109660, Control_c, 0, 64, 110
1, 109669, Note_off_c, 0, 77, 60
1, 109675, Control_c, 0, 64, 127
1, 109735, Control_c, 0, 64, 119
1, 109749, Control_c, 0, 64, 86
1, 109764, Control_c, 0, 64, 65
1, 109779, Control_c, 0, 64, 40
1, 109791, Note_on_c, 0, 78, 77
1, 109794, Control_c, 0, 64, 28
1, 109795, Note_on_c, 0, 66, 55
1, 109796, Note_on_c, 0, 74, 66
1, 109800, Note_on_c, 0, 71, 59
1, 109809, Control_c, 0, 64, 40
1, 109812, Note_on_c, 0, 54, 34
1, 109823, Control_c, 0, 64, 53
1, 109824, Note_off_c, 0, 66, 63
1, 109838, Control_c, 0, 64, 62
1, 109844, Note_off_c, 0, 54, 51
1, 109853, Control_c, 0, 64, 67
1, 109868, Control_c, 0, 64, 74
1, 109876, Note_off_c, 0, 74, 62
1, 109877, Note_off_c, 0, 71, 59
1, 109883, Control_c, 0, 64, 83
1, 109889, Note_off_c, 0, 78, 65
1, 109897, Control_c, 0, 64, 92
1, 109912, Control_c, 0, 64, 99
1, 109927, Control_c, 0, 64, 105
1, 109941, Control_c, 0, 64, 110
1, 109986, Control_c, 0, 64, 110
1, 110001, Control_c, 0, 64, 111
1, 110011, Note_on_c, 0, 48, 46
1, 110016, Note_on_c, 0, 60, 41
1, 110045, Control_c, 0, 64, 111
1, 110071, Note_off_c, 0, 60, 52
1, 110077, Note_off_c, 0, 48, 43
1, 110215, Note_on_c, 0, 86, 76
1, 110246, Control_c, 0, 64, 112
1, 110281, Note_off_c, 0, 86, 64
1, 110427, Note_on_c, 0, 48, 40
1, 110440, Note_on_c, 0, 60, 35
1, 110457, Note_off_c, 0, 48, 52
1, 110474, Note_off_c, 0, 60, 51
1, 110572, Control_c, 0, 64, 111
1, 110587, Control_c, 0, 64, 108
1, 110602, Control_c, 0, 64, 102
1, 110617, Control_c, 0, 64, 89
1, 110632, Control_c, 0, 64, 75
1, 110645, Note_on_c, 0, 52, 44
1, 110646, Control_c, 0, 64, 64
1, 110652, Note_on_c, 0, 82, 55
1, 110659, Note_on_c, 0, 64, 37
1, 110661, Control_c, 0, 64, 63
1, 110673, Note_on_c, 0, 74, 25
1, 110676, Control_c, 0, 64, 65
1, 110691, Control_c, 0, 64, 67
1, 110697, Note_on_c, 0, 70, 16
1, 110706, Note_off_c, 0, 64, 62
1, 110706, Control_c, 0, 64, 70
1, 110718, Note_off_c, 0, 52, 56
1, 110720, Control_c, 0, 64, 76
1, 110724, Note_off_c, 0, 74, 44
1, 110735, Control_c, 0, 64, 85
1, 110750, Control_c, 0, 64, 91
1, 110751, Note_off_c, 0, 82, 58
1, 110764, Control_c, 0, 64, 95
1, 110779, Control_c, 0, 64, 97
1, 110794, Control_c, 0, 64, 100
1, 110809, Control_c, 0, 64, 103
1, 110817, Note_off_c, 0, 70, 38
1, 110824, Control_c, 0, 64, 104
1, 110837, Note_on_c, 0, 81, 64
1, 110868, Control_c, 0, 64, 105
1, 110882, Control_c, 0, 64, 105
1, 110883, Note_on_c, 0, 48, 42
1, 110885, Note_on_c, 0, 60, 39
1, 110897, Control_c, 0, 64, 106
1, 110920, Note_off_c, 0, 48, 58
1, 110922, Note_off_c, 0, 60, 51
1, 110927, Control_c, 0, 64, 106
1, 110995, Control_c, 0, 64, 107
1, 111010, Control_c, 0, 64, 108
1, 111025, Control_c, 0, 64, 110
1, 111029, Note_on_c, 0, 74, 67
1, 111040, Control_c, 0, 64, 111
1, 111055, Control_c, 0, 64, 112
1, 111069, Control_c, 0, 64, 113
1, 111099, Control_c, 0, 64, 113
1, 111114, Control_c, 0, 64, 115
1, 111129, Control_c, 0, 64, 116
1, 111187, Control_c, 0, 64, 117
1, 111202, Control_c, 0, 64, 119
1, 111210, Note_on_c, 0, 48, 46
1, 111213, Note_on_c, 0, 76, 67
1, 111217, Control_c, 0, 64, 123
1, 111224, Note_off_c, 0, 74, 57
1, 111228, Note_off_c, 0, 81, 40
1, 111232, Control_c, 0, 64, 127
1, 111237, Note_on_c, 0, 60, 5
1, 111237, Note_off_c, 0, 48, 55
1, 111283, Note_off_c, 0, 60, 37
1, 111350, Note_off_c, 0, 76, 60
1, 111350, Control_c, 0, 64, 101
1, 111365, Control_c, 0, 64, 80
1, 111380, Control_c, 0, 64, 63
1, 111395, Control_c, 0, 64, 51
1, 111404, Note_on_c, 0, 74, 43
1, 111410, Control_c, 0, 64, 52
1, 111412, Note_on_c, 0, 78, 60
1, 111413, Note_on_c, 0, 66, 51
1, 111419, Note_on_c, 0, 54, 44
1, 111425, Control_c, 0, 64, 57
1, 111428, Note_on_c, 0, 71, 40
1, 111440, Control_c, 0, 64, 62
1, 111445, Note_off_c, 0, 66, 64
1, 111450, Note_off_c, 0, 54, 63
1, 111455, Control_c, 0, 64, 67
1, 111462, Note_off_c, 0, 71, 62
1, 111469, Control_c, 0, 64, 73
1, 111471, Note_off_c, 0, 74, 60
1, 111484, Control_c, 0, 64, 84
1, 111499, Control_c, 0, 64, 92
1, 111501, Note_off_c, 0, 78, 64
1, 111513, Control_c, 0, 64, 96
1, 111528, Control_c, 0, 64, 97
1, 111558, Control_c, 0, 64, 98
1, 111573, Control_c, 0, 64, 100
1, 111587, Control_c, 0, 64, 103
1, 111602, Control_c, 0, 64, 104
1, 111617, Control_c, 0, 64, 104
1, 111622, Note_on_c, 0, 48, 47
1, 111630, Note_on_c, 0, 60, 46
1, 111632, Control_c, 0, 64, 105
1, 111647, Control_c, 0, 64, 105
1, 111661, Control_c, 0, 64, 106
1, 111675, Note_off_c, 0, 60, 60
1, 111676, Control_c, 0, 64, 106
1, 111677, Note_off_c, 0, 48, 56
1, 111800, Note_on_c, 0, 74, 57
1, 111860, Note_off_c, 0, 74, 46
1, 111884, Note_on_c, 0, 76, 66
1, 111906, Control_c, 0, 64, 107
1, 111965, Control_c, 0, 64, 108
1, 111967, Note_on_c, 0, 78, 78
1, 111979, Note_on_c, 0, 48, 51
1, 111980, Control_c, 0, 64, 111
1, 111985, Note_off_c, 0, 76, 60
1, 111994, Note_on_c, 0, 60, 47
1, 111995, Control_c, 0, 64, 127
1, 112001, Note_off_c, 0, 48, 60
1, 112020, Note_off_c, 0, 60, 59
1, 112039, Note_off_c, 0, 78, 65
1, 112052, Note_on_c, 0, 79, 76
1, 112113, Control_c, 0, 64, 83
1, 112128, Control_c, 0, 64, 63
1, 112143, Control_c, 0, 64, 50
1, 112158, Control_c, 0, 64, 54
1, 112166, Note_off_c, 0, 79, 61
1, 112172, Note_on_c, 0, 81, 70
1, 112173, Note_on_c, 0, 77, 65
1, 112173, Control_c, 0, 64, 57
1, 112176, Note_on_c, 0, 71, 57
1, 112188, Control_c, 0, 64, 62
1, 112203, Control_c, 0, 64, 68
1, 112217, Control_c, 0, 64, 81
1, 112223, Note_off_c, 0, 71, 55
1, 112232, Control_c, 0, 64, 102
1, 112247, Control_c, 0, 64, 127
1, 112267, Note_off_c, 0, 77, 46
1, 112316, Note_off_c, 0, 81, 60
1, 112360, Note_on_c, 0, 74, 47
1, 112361, Note_on_c, 0, 60, 47
1, 112395, Note_off_c, 0, 60, 64
1, 112427, Note_off_c, 0, 74, 49
1, 112539, Note_on_c, 0, 77, 59
1, 112543, Note_on_c, 0, 81, 65
1, 112544, Note_on_c, 0, 59, 51
1, 112581, Note_off_c, 0, 77, 60
1, 112592, Note_off_c, 0, 59, 61
1, 112696, Note_off_c, 0, 81, 59
1, 112724, Note_on_c, 0, 48, 46
1, 112728, Note_on_c, 0, 74, 48
1, 112733, Note_on_c, 0, 83, 72
1, 112751, Note_off_c, 0, 48, 55
1, 112772, Note_off_c, 0, 74, 59
1, 112862, Control_c, 0, 64, 117
1, 112877, Control_c, 0, 64, 85
1, 112892, Control_c, 0, 64, 68
1, 112893, Note_off_c, 0, 83, 60
1, 112905, Note_on_c, 0, 84, 72
1, 112906, Control_c, 0, 64, 58
1, 112913, Note_on_c, 0, 77, 49
1, 112915, Note_on_c, 0, 69, 52
1, 112921, Control_c, 0, 64, 54
1, 112936, Control_c, 0, 64, 57
1, 112951, Control_c, 0, 64, 60
1, 112966, Control_c, 0, 64, 64
1, 112975, Note_off_c, 0, 69, 57
1, 112981, Control_c, 0, 64, 68
1, 112996, Control_c, 0, 64, 74
1, 112998, Note_off_c, 0, 77, 59
1, 113011, Control_c, 0, 64, 82
1, 113026, Control_c, 0, 64, 90
1, 113031, Note_off_c, 0, 84, 59
1, 113040, Control_c, 0, 64, 96
1, 113055, Control_c, 0, 64, 102
1, 113070, Control_c, 0, 64, 107
1, 113085, Note_on_c, 0, 74, 54
1, 113085, Control_c, 0, 64, 113
1, 113100, Control_c, 0, 64, 114
1, 113106, Note_on_c, 0, 60, 36
1, 113114, Control_c, 0, 64, 115
1, 113129, Control_c, 0, 64, 117
1, 113136, Note_off_c, 0, 60, 54
1, 113147, Note_off_c, 0, 74, 48
1, 113276, Note_on_c, 0, 84, 70
1, 113280, Note_on_c, 0, 77, 63
1, 113298, Note_on_c, 0, 57, 50
1, 113345, Note_off_c, 0, 57, 64
1, 113345, Note_off_c, 0, 77, 58
1, 113389, Control_c, 0, 64, 118
1, 113404, Control_c, 0, 64, 119
1, 113419, Control_c, 0, 64, 121
1, 113448, Note_off_c, 0, 84, 52
1, 113463, Note_on_c, 0, 74, 57
1, 113470, Note_on_c, 0, 48, 52
1, 113479, Control_c, 0, 64, 123
1, 113494, Control_c, 0, 64, 127
1, 113500, Note_off_c, 0, 48, 63
1, 113508, Note_off_c, 0, 74, 57
1, 113626, Note_on_c, 0, 88, 77
1, 113627, Control_c, 0, 64, 105
1, 113642, Control_c, 0, 64, 86
1, 113652, Note_on_c, 0, 67, 50
1, 113656, Control_c, 0, 64, 70
1, 113660, Note_on_c, 0, 77, 54
1, 113671, Control_c, 0, 64, 61
1, 113686, Control_c, 0, 64, 60
1, 113701, Control_c, 0, 64, 62
1, 113713, Note_off_c, 0, 88, 61
1, 113715, Note_off_c, 0, 67, 51
1, 113716, Control_c, 0, 64, 65
1, 113730, Control_c, 0, 64, 69
1, 113745, Control_c, 0, 64, 76
1, 113760, Control_c, 0, 64, 86
1, 113764, Note_off_c, 0, 77, 57
1, 113775, Control_c, 0, 64, 96
1, 113789, Control_c, 0, 64, 104
1, 113804, Control_c, 0, 64, 108
1, 113819, Control_c, 0, 64, 110
1, 113821, Note_on_c, 0, 60, 50
1, 113827, Note_on_c, 0, 74, 60
1, 113834, Control_c, 0, 64, 112
1, 113849, Control_c, 0, 64, 113
1, 113854, Note_off_c, 0, 60, 65
1, 113863, Control_c, 0, 64, 115
1, 113875, Note_off_c, 0, 74, 56
1, 113878, Control_c, 0, 64, 117
1, 113893, Control_c, 0, 64, 121
1, 113908, Control_c, 0, 64, 123
1, 114015, Note_on_c, 0, 83, 74
1, 114019, Note_on_c, 0, 55, 50
1, 114019, Note_on_c, 0, 77, 59
1, 114054, Note_off_c, 0, 55, 64
1, 114063, Note_off_c, 0, 77, 57
1, 114143, Note_off_c, 0, 83, 58
1, 114188, Note_on_c, 0, 48, 52
1, 114188, Note_on_c, 0, 84, 78
1, 114188, Note_on_c, 0, 74, 66
1, 114214, Note_off_c, 0, 48, 57
1, 114230, Note_off_c, 0, 74, 58
1, 114254, Note_off_c, 0, 84, 65
1, 114331, Control_c, 0, 64, 117
1, 114346, Control_c, 0, 64, 104
1, 114361, Control_c, 0, 64, 84
1, 114376, Control_c, 0, 64, 69
1, 114382, Note_on_c, 0, 86, 73
1, 114384, Note_on_c, 0, 77, 56
1, 114391, Note_on_c, 0, 69, 39
1, 114391, Control_c, 0, 64, 59
1, 114405, Control_c, 0, 64, 55
1, 114420, Control_c, 0, 64, 58
1, 114435, Control_c, 0, 64, 60
1, 114441, Note_off_c, 0, 69, 60
1, 114450, Control_c, 0, 64, 63
1, 114465, Control_c, 0, 64, 66
1, 114479, Control_c, 0, 64, 71
1, 114494, Control_c, 0, 64, 76
1, 114496, Note_off_c, 0, 77, 55
1, 114501, Note_off_c, 0, 86, 52
1, 114509, Control_c, 0, 64, 82
1, 114524, Control_c, 0, 64, 87
1, 114539, Control_c, 0, 64, 91
1, 114553, Control_c, 0, 64, 95
1, 114554, Note_on_c, 0, 60, 40
1, 114568, Control_c, 0, 64, 98
1, 114571, Note_on_c, 0, 74, 59
1, 114583, Control_c, 0, 64, 100
1, 114591, Note_off_c, 0, 60, 51
1, 114598, Control_c, 0, 64, 101
1, 114612, Control_c, 0, 64, 102
1, 114623, Note_off_c, 0, 74, 55
1, 114738, Control_c, 0, 64, 101
1, 114743, Note_on_c, 0, 86, 69
1, 114751, Note_on_c, 0, 57, 44
1, 114751, Note_on_c, 0, 77, 52
1, 114804, Note_off_c, 0, 77, 52
1, 114805, Note_off_c, 0, 57, 61
1, 114842, Control_c, 0, 64, 102
1, 114857, Control_c, 0, 64, 102
1, 114879, Note_off_c, 0, 86, 49
1, 114918, Note_on_c, 0, 48, 44
1, 114933, Note_on_c, 0, 74, 57
1, 114946, Note_off_c, 0, 48, 54
1, 114999, Note_off_c, 0, 74, 51
1, 115065, Control_c, 0, 64, 101
1, 115080, Control_c, 0, 64, 97
1, 115095, Control_c, 0, 64, 87
1, 115109, Control_c, 0, 64, 72
1, 115117, Note_on_c, 0, 81, 58
1, 115124, Note_on_c, 0, 77, 50
1, 115124, Control_c, 0, 64, 63
1, 115127, Note_on_c, 0, 71, 48
1, 115139, Control_c, 0, 64, 58
1, 115154, Control_c, 0, 64, 60
1, 115169, Control_c, 0, 64, 62
1, 115184, Control_c, 0, 64, 64
1, 115199, Control_c, 0, 64, 68
1, 115202, Note_off_c, 0, 71, 51
1, 115214, Control_c, 0, 64, 73
1, 115228, Control_c, 0, 64, 79
1, 115243, Control_c, 0, 64, 85
1, 115258, Control_c, 0, 64, 89
1, 115273, Control_c, 0, 64, 91
1, 115288, Control_c, 0, 64, 95
1, 115295, Note_on_c, 0, 84, 75
1, 115302, Control_c, 0, 64, 98
1, 115311, Note_off_c, 0, 81, 58
1, 115312, Note_off_c, 0, 77, 45
1, 115314, Note_on_c, 0, 60, 42
1, 115316, Note_on_c, 0, 74, 40
1, 115317, Control_c, 0, 64, 101
1, 115332, Control_c, 0, 64, 103
1, 115339, Note_off_c, 0, 60, 57
1, 115347, Control_c, 0, 64, 106
1, 115359, Note_off_c, 0, 74, 47
1, 115361, Control_c, 0, 64, 109
1, 115376, Control_c, 0, 64, 113
1, 115391, Control_c, 0, 64, 115
1, 115464, Note_off_c, 0, 84, 61
1, 115464, Note_on_c, 0, 81, 74
1, 115480, Note_on_c, 0, 77, 71
1, 115503, Control_c, 0, 64, 114
1, 115517, Control_c, 0, 64, 113
1, 115518, Note_on_c, 0, 59, 6
1, 115532, Control_c, 0, 64, 113
1, 115541, Poly_aftertouch_c, 0, 60, 127
1, 115547, Control_c, 0, 64, 112
1, 115550, Note_off_c, 0, 59, 0
1, 115562, Poly_aftertouch_c, 0, 60, 0
1, 115580, Poly_aftertouch_c, 0, 59, 0
1, 115607, Note_off_c, 0, 77, 50
1, 115636, Note_off_c, 0, 81, 64
1, 115639, Note_on_c, 0, 48, 60
1, 115645, Note_on_c, 0, 83, 81
1, 115658, Note_on_c, 0, 74, 58
1, 115682, Note_off_c, 0, 48, 65
1, 115709, Note_off_c, 0, 74, 52
1, 115784, Control_c, 0, 64, 107
1, 115799, Control_c, 0, 64, 94
1, 115814, Control_c, 0, 64, 77
1, 115816, Note_off_c, 0, 83, 62
1, 115820, Note_on_c, 0, 84, 85
1, 115823, Note_on_c, 0, 77, 63
1, 115828, Note_on_c, 0, 69, 58
1, 115829, Control_c, 0, 64, 64
1, 115844, Control_c, 0, 64, 50
1, 115858, Control_c, 0, 64, 48
1, 115873, Control_c, 0, 64, 52
1, 115888, Control_c, 0, 64, 57
1, 115902, Note_off_c, 0, 69, 60
1, 115903, Control_c, 0, 64, 62
1, 115918, Control_c, 0, 64, 66
1, 115926, Note_off_c, 0, 77, 58
1, 115932, Control_c, 0, 64, 70
1, 115947, Control_c, 0, 64, 77
1, 115962, Control_c, 0, 64, 84
1, 115968, Note_off_c, 0, 84, 59
1, 115977, Control_c, 0, 64, 89
1, 115992, Control_c, 0, 64, 95
1, 115996, Note_on_c, 0, 60, 50
1, 115996, Note_on_c, 0, 74, 59
1, 116006, Control_c, 0, 64, 101
1, 116021, Control_c, 0, 64, 110
1, 116027, Note_off_c, 0, 60, 64
1, 116036, Control_c, 0, 64, 117
1, 116051, Control_c, 0, 64, 119
1, 116064, Note_off_c, 0, 74, 52
1, 116081, Control_c, 0, 64, 121
1, 116179, Note_on_c, 0, 57, 54
1, 116188, Note_on_c, 0, 84, 70
1, 116190, Note_on_c, 0, 77, 59
1, 116246, Note_off_c, 0, 57, 61
1, 116248, Note_off_c, 0, 77, 54
1, 116290, Note_off_c, 0, 84, 59
1, 116363, Note_on_c, 0, 48, 45
1, 116375, Note_on_c, 0, 74, 56
1, 116390, Note_off_c, 0, 48, 56
1, 116411, Note_off_c, 0, 74, 65
1, 116516, Control_c, 0, 64, 118
1, 116531, Control_c, 0, 64, 116
1, 116546, Control_c, 0, 64, 111
1, 116561, Control_c, 0, 64, 101
1, 116577, Control_c, 0, 64, 86
1, 116578, Note_on_c, 0, 88, 65
1, 116580, Note_on_c, 0, 67, 44
1, 116592, Control_c, 0, 64, 72
1, 116606, Control_c, 0, 64, 64
1, 116621, Control_c, 0, 64, 65
1, 116636, Control_c, 0, 64, 66
1, 116650, Note_on_c, 0, 77, 17
1, 116651, Control_c, 0, 64, 69
1, 116659, Note_off_c, 0, 88, 62
1, 116660, Note_off_c, 0, 67, 46
1, 116666, Control_c, 0, 64, 73
1, 116680, Control_c, 0, 64, 80
1, 116695, Control_c, 0, 64, 90
1, 116710, Control_c, 0, 64, 97
1, 116725, Note_off_c, 0, 77, 37
1, 116725, Control_c, 0, 64, 101
1, 116740, Control_c, 0, 64, 102
1, 116755, Control_c, 0, 64, 103
1, 116762, Note_on_c, 0, 86, 72
1, 116770, Control_c, 0, 64, 104
1, 116773, Note_on_c, 0, 60, 36
1, 116784, Control_c, 0, 64, 105
1, 116787, Note_on_c, 0, 74, 52
1, 116799, Control_c, 0, 64, 107
1, 116800, Note_off_c, 0, 60, 57
1, 116813, Note_off_c, 0, 74, 54
1, 116814, Control_c, 0, 64, 111
1, 116829, Control_c, 0, 64, 115
1, 116844, Control_c, 0, 64, 117
1, 116859, Note_off_c, 0, 86, 57
1, 116918, Control_c, 0, 64, 118
1, 116933, Control_c, 0, 64, 119
1, 116935, Note_on_c, 0, 83, 76
1, 116942, Note_on_c, 0, 55, 53
1, 116945, Note_on_c, 0, 77, 61
1, 116962, Control_c, 0, 64, 127
1, 116992, Note_off_c, 0, 55, 62
1, 117078, Note_off_c, 0, 83, 52
1, 117112, Note_on_c, 0, 84, 81
1, 117118, Note_on_c, 0, 74, 66
1, 117119, Note_on_c, 0, 48, 55
1, 117130, Note_off_c, 0, 77, 30
1, 117146, Note_off_c, 0, 48, 62
1, 117173, Note_off_c, 0, 74, 55
1, 117187, Note_off_c, 0, 84, 63
1, 117281, Control_c, 0, 64, 99
1, 117296, Control_c, 0, 64, 70
1, 117298, Note_on_c, 0, 86, 86
1, 117301, Note_on_c, 0, 69, 60
1, 117311, Control_c, 0, 64, 32
1, 117314, Note_on_c, 0, 77, 43
1, 117325, Control_c, 0, 64, 0
1, 117386, Control_c, 0, 64, 44
1, 117398, Note_off_c, 0, 69, 60
1, 117401, Control_c, 0, 64, 63
1, 117416, Control_c, 0, 64, 70
1, 117430, Control_c, 0, 64, 83
1, 117445, Control_c, 0, 64, 127
1, 117469, Note_on_c, 0, 60, 58
1, 117472, Note_on_c, 0, 74, 71
1, 117491, Note_off_c, 0, 77, 36
1, 117492, Note_off_c, 0, 86, 56
1, 117501, Note_off_c, 0, 60, 65
1, 117563, Note_off_c, 0, 74, 57
1, 117643, Note_on_c, 0, 86, 89
1, 117646, Note_on_c, 0, 59, 70
1, 117646, Note_on_c, 0, 77, 69
1, 117765, Note_off_c, 0, 59, 57
1, 117786, Note_off_c, 0, 86, 59
1, 117800, Note_off_c, 0, 77, 60
1, 117837, Note_on_c, 0, 48, 71
1, 117855, Note_on_c, 0, 74, 87
1, 117926, Note_off_c, 0, 74, 49
1, 118083, Note_off_c, 0, 48, 30
1, 118111, Note_on_c, 0, 60, 68
1, 118127, Note_on_c, 0, 84, 92
1, 118129, Note_on_c, 0, 76, 73
1, 118194, Control_c, 0, 64, 114
1, 118209, Control_c, 0, 64, 77
1, 118224, Control_c, 0, 64, 62
1, 118239, Control_c, 0, 64, 53
1, 118253, Control_c, 0, 64, 59
1, 118268, Control_c, 0, 64, 62
1, 118283, Control_c, 0, 64, 67
1, 118298, Control_c, 0, 64, 74
1, 118310, Note_off_c, 0, 60, 50
1, 118312, Note_off_c, 0, 76, 52
1, 118313, Control_c, 0, 64, 86
1, 118327, Control_c, 0, 64, 107
1, 118342, Control_c, 0, 64, 127
1, 118362, Note_on_c, 0, 72, 66
1, 118363, Note_on_c, 0, 55, 58
1, 118385, Note_off_c, 0, 84, 46
1, 118393, Note_off_c, 0, 55, 65
1, 118448, Note_off_c, 0, 72, 56
1, 118534, Note_on_c, 0, 48, 63
1, 118538, Note_on_c, 0, 76, 81
1, 118669, Note_off_c, 0, 48, 55
1, 118701, Note_on_c, 0, 86, 90
1, 118707, Note_on_c, 0, 79, 66
1, 118708, Note_on_c, 0, 43, 64
1, 118715, Note_off_c, 0, 76, 61
1, 118814, Note_off_c, 0, 86, 61
1, 118874, Note_off_c, 0, 43, 61
1, 118886, Note_on_c, 0, 36, 70
1, 118914, Note_on_c, 0, 76, 62
1, 118915, Note_off_c, 0, 79, 58
1, 118927, Control_c, 0, 64, 92
1, 118928, Note_on_c, 0, 84, 93
1, 118942, Control_c, 0, 64, 67
1, 118957, Control_c, 0, 64, 42
1, 118972, Control_c, 0, 64, 35
1, 118987, Control_c, 0, 64, 48
1, 119002, Control_c, 0, 64, 57
1, 119017, Control_c, 0, 64, 65
1, 119032, Control_c, 0, 64, 73
1, 119047, Control_c, 0, 64, 92
1, 119058, Note_off_c, 0, 76, 44
1, 119062, Control_c, 0, 64, 127
1, 119071, Note_off_c, 0, 84, 60
1, 119098, Note_on_c, 0, 71, 81
1, 119103, Note_on_c, 0, 43, 62
1, 119151, Note_off_c, 0, 36, 35
1, 119185, Note_off_c, 0, 71, 55
1, 119237, Note_off_c, 0, 43, 59
1, 119269, Note_on_c, 0, 48, 68
1, 119276, Note_on_c, 0, 83, 87
1, 119280, Note_on_c, 0, 76, 76
1, 119303, Note_off_c, 0, 48, 63
1, 119414, Note_off_c, 0, 76, 60
1, 119417, Note_off_c, 0, 83, 50
1, 119438, Note_on_c, 0, 55, 75
1, 119441, Note_on_c, 0, 79, 85
1, 119474, Note_off_c, 0, 79, 64
1, 119575, Note_off_c, 0, 55, 59
1, 119658, Note_on_c, 0, 62, 86
1, 119661, Control_c, 0, 64, 81
1, 119665, Note_on_c, 0, 82, 89
1, 119669, Note_on_c, 0, 74, 79
1, 119676, Control_c, 0, 64, 57
1, 119691, Control_c, 0, 64, 33
1, 119706, Control_c, 0, 64, 46
1, 119720, Control_c, 0, 64, 56
1, 119735, Control_c, 0, 64, 63
1, 119750, Control_c, 0, 64, 70
1, 119765, Control_c, 0, 64, 87
1, 119780, Control_c, 0, 64, 127
1, 119795, Note_off_c, 0, 74, 58
1, 119805, Note_off_c, 0, 62, 55
1, 119811, Note_off_c, 0, 82, 56
1, 119837, Note_on_c, 0, 77, 67
1, 119846, Note_on_c, 0, 70, 60
1, 119850, Note_on_c, 0, 50, 72
1, 119872, Note_off_c, 0, 77, 63
1, 119882, Note_off_c, 0, 50, 67
1, 119897, Note_off_c, 0, 70, 59
1, 120021, Note_on_c, 0, 74, 71
1, 120023, Note_on_c, 0, 48, 62
1, 120025, Note_on_c, 0, 65, 65
1, 120091, Note_off_c, 0, 48, 61
1, 120105, Note_off_c, 0, 74, 60
1, 120108, Note_off_c, 0, 65, 59
1, 120178, Note_on_c, 0, 70, 66
1, 120180, Note_on_c, 0, 36, 64
1, 120185, Note_on_c, 0, 62, 56
1, 120207, Note_off_c, 0, 70, 67
1, 120212, Note_off_c, 0, 62, 57
1, 120212, Note_off_c, 0, 36, 63
1, 120350, Control_c, 0, 64, 86
1, 120365, Control_c, 0, 64, 64
1, 120370, Note_on_c, 0, 63, 86
1, 120371, Note_on_c, 0, 80, 88
1, 120377, Note_on_c, 0, 72, 75
1, 120379, Control_c, 0, 64, 46
1, 120394, Control_c, 0, 64, 50
1, 120409, Control_c, 0, 64, 57
1, 120423, Control_c, 0, 64, 63
1, 120438, Control_c, 0, 64, 71
1, 120453, Control_c, 0, 64, 88
1, 120468, Control_c, 0, 64, 127
1, 120478, Note_off_c, 0, 63, 61
1, 120511, Note_off_c, 0, 80, 59
1, 120521, Note_off_c, 0, 72, 53
1, 120532, Note_on_c, 0, 51, 66
1, 120543, Note_on_c, 0, 75, 65
1, 120548, Note_on_c, 0, 68, 63
1, 120567, Note_off_c, 0, 51, 65
1, 120582, Note_off_c, 0, 75, 61
1, 120597, Note_off_c, 0, 68, 58
1, 120710, Note_on_c, 0, 63, 67
1, 120710, Note_on_c, 0, 72, 72
1, 120715, Note_on_c, 0, 48, 58
1, 120760, Note_off_c, 0, 48, 62
1, 120794, Note_off_c, 0, 63, 58
1, 120806, Note_off_c, 0, 72, 57
1, 120880, Note_on_c, 0, 68, 58
1, 120882, Note_on_c, 0, 36, 56
1, 120909, Note_off_c, 0, 68, 64
1, 120912, Note_off_c, 0, 36, 56
1, 120961, Poly_aftertouch_c, 0, 60, 0
1, 121087, Note_on_c, 0, 79, 87
1, 121092, Note_on_c, 0, 64, 79
1, 121092, Note_on_c, 0, 72, 76
1, 121099, Control_c, 0, 64, 112
1, 121114, Control_c, 0, 64, 76
1, 121128, Control_c, 0, 64, 60
1, 121143, Control_c, 0, 64, 50
1, 121158, Control_c, 0, 64, 57
1, 121172, Control_c, 0, 64, 62
1, 121187, Control_c, 0, 64, 68
1, 121202, Control_c, 0, 64, 79
1, 121210, Note_off_c, 0, 64, 54
1, 121217, Control_c, 0, 64, 104
1, 121232, Control_c, 0, 64, 127
1, 121271, Note_on_c, 0, 52, 70
1, 121271, Note_off_c, 0, 72, 36
1, 121279, Note_on_c, 0, 76, 74
1, 121298, Note_off_c, 0, 52, 67
1, 121342, Note_off_c, 0, 79, 51
1, 121429, Note_off_c, 0, 76, 62
1, 121435, Note_on_c, 0, 81, 87
1, 121444, Note_on_c, 0, 48, 67
1, 121444, Note_on_c, 0, 72, 75
1, 121481, Note_off_c, 0, 72, 65
1, 121496, Note_off_c, 0, 48, 60
1, 121497, Note_off_c, 0, 81, 64
1, 121601, Note_on_c, 0, 79, 88
1, 121602, Note_on_c, 0, 36, 68
1, 121606, Note_on_c, 0, 67, 75
1, 121633, Note_off_c, 0, 36, 63
1, 121638, Note_off_c, 0, 67, 65
1, 121667, Note_off_c, 0, 79, 65
1, 121720, Note_on_c, 0, 74, 32
1, 121774, Control_c, 0, 64, 96
1, 121786, Note_on_c, 0, 66, 83
1, 121789, Note_on_c, 0, 78, 90
1, 121789, Control_c, 0, 64, 69
1, 121791, Note_on_c, 0, 70, 79
1, 121801, Note_off_c, 0, 74, 47
1, 121803, Control_c, 0, 64, 50
1, 121818, Control_c, 0, 64, 47
1, 121833, Control_c, 0, 64, 55
1, 121848, Control_c, 0, 64, 62
1, 121863, Control_c, 0, 64, 69
1, 121877, Control_c, 0, 64, 80
1, 121887, Note_off_c, 0, 70, 54
1, 121892, Control_c, 0, 64, 103
1, 121896, Note_off_c, 0, 66, 61
1, 121907, Control_c, 0, 64, 127
1, 121947, Note_off_c, 0, 78, 53
1, 121959, Note_on_c, 0, 54, 68
1, 121962, Note_on_c, 0, 73, 83
1, 121995, Note_off_c, 0, 54, 66
1, 122136, Note_on_c, 0, 80, 90
1, 122141, Note_on_c, 0, 70, 80
1, 122146, Note_on_c, 0, 48, 66
1, 122161, Note_off_c, 0, 73, 56
1, 122183, Note_off_c, 0, 70, 62
1, 122190, Note_off_c, 0, 48, 59
1, 122234, Note_off_c, 0, 80, 62
1, 122314, Note_on_c, 0, 36, 66
1, 122315, Note_on_c, 0, 78, 91
1, 122319, Note_on_c, 0, 66, 81
1, 122346, Note_off_c, 0, 36, 62
1, 122362, Note_off_c, 0, 78, 67
1, 122374, Note_off_c, 0, 66, 61
1, 122493, Control_c, 0, 64, 82
1, 122503, Note_on_c, 0, 76, 85
1, 122506, Note_on_c, 0, 71, 79
1, 122507, Control_c, 0, 64, 62
1, 122509, Note_on_c, 0, 68, 88
1, 122522, Control_c, 0, 64, 32
1, 122537, Control_c, 0, 64, 29
1, 122552, Control_c, 0, 64, 41
1, 122567, Control_c, 0, 64, 56
1, 122581, Control_c, 0, 64, 64
1, 122596, Control_c, 0, 64, 71
1, 122607, Note_off_c, 0, 68, 61
1, 122611, Control_c, 0, 64, 83
1, 122625, Control_c, 0, 64, 103
1, 122640, Control_c, 0, 64, 127
1, 122642, Note_off_c, 0, 71, 57
1, 122690, Note_on_c, 0, 56, 71
1, 122700, Note_on_c, 0, 64, 69
1, 122703, Note_off_c, 0, 76, 60
1, 122725, Note_off_c, 0, 56, 66
1, 122822, Note_off_c, 0, 64, 45
1, 122869, Note_on_c, 0, 68, 70
1, 122872, Note_on_c, 0, 48, 69
1, 122926, Note_off_c, 0, 48, 53
1, 122974, Note_off_c, 0, 68, 54
1, 123056, Note_on_c, 0, 36, 48
1, 123062, Note_on_c, 0, 71, 76
1, 123096, Note_off_c, 0, 36, 49
1, 123116, Note_off_c, 0, 71, 55
1, 123256, Control_c, 0, 64, 94
1, 123261, Note_on_c, 0, 74, 75
1, 123271, Control_c, 0, 64, 68
1, 123272, Note_on_c, 0, 69, 91
1, 123273, Note_on_c, 0, 66, 65
1, 123286, Control_c, 0, 64, 54
1, 123301, Control_c, 0, 64, 56
1, 123316, Control_c, 0, 64, 60
1, 123330, Control_c, 0, 64, 64
1, 123345, Control_c, 0, 64, 70
1, 123354, Note_off_c, 0, 69, 61
1, 123360, Control_c, 0, 64, 82
1, 123375, Control_c, 0, 64, 108
1, 123390, Control_c, 0, 64, 127
1, 123401, Note_off_c, 0, 66, 59
1, 123457, Note_on_c, 0, 69, 82
1, 123461, Note_on_c, 0, 62, 75
1, 123466, Note_off_c, 0, 74, 61
1, 123521, Note_off_c, 0, 69, 60
1, 123523, Note_off_c, 0, 62, 59
1, 123641, Control_c, 0, 64, 89
1, 123655, Note_on_c, 0, 73, 86
1, 123655, Control_c, 0, 64, 67
1, 123657, Note_on_c, 0, 65, 63
1, 123664, Note_on_c, 0, 71, 90
1, 123670, Control_c, 0, 64, 47
1, 123685, Control_c, 0, 64, 48
1, 123700, Control_c, 0, 64, 56
1, 123722, Control_c, 0, 64, 62
1, 123726, Note_off_c, 0, 71, 63
1, 123737, Control_c, 0, 64, 69
1, 123752, Control_c, 0, 64, 81
1, 123768, Control_c, 0, 64, 127
1, 123887, Note_off_c, 0, 65, 60
1, 123909, Note_off_c, 0, 73, 58
1, 123918, Note_on_c, 0, 68, 77
1, 123927, Note_on_c, 0, 61, 82
1, 123989, Note_off_c, 0, 61, 60
1, 124003, Poly_aftertouch_c, 0, 65, 127
1, 124004, Note_off_c, 0, 68, 60
1, 124030, Poly_aftertouch_c, 0, 65, 0
1, 124205, Note_on_c, 0, 72, 96
1, 124207, Note_on_c, 0, 65, 72
1, 124213, Note_on_c, 0, 62, 81
1, 124242, Control_c, 0, 64, 73
1, 124257, Control_c, 0, 64, 0
1, 124345, Control_c, 0, 64, 36
1, 124360, Control_c, 0, 64, 59
1, 124375, Control_c, 0, 64, 68
1, 124389, Control_c, 0, 64, 83
1, 124404, Control_c, 0, 64, 127
1, 124405, Note_off_c, 0, 62, 61
1, 124527, Note_on_c, 0, 69, 63
1, 124532, Note_on_c, 0, 60, 64
1, 124590, Note_off_c, 0, 65, 54
1, 124616, Note_off_c, 0, 60, 55
1, 124618, Note_off_c, 0, 69, 56
1, 124740, Note_on_c, 0, 69, 67
1, 124743, Note_on_c, 0, 65, 56
1, 124788, Note_off_c, 0, 65, 60
1, 124909, Note_off_c, 0, 69, 32
1, 124920, Note_on_c, 0, 62, 56
1, 124924, Note_on_c, 0, 67, 68
1, 124955, Note_off_c, 0, 62, 64
1, 125021, Note_off_c, 0, 67, 54
1, 125095, Control_c, 0, 64, 110
1, 125110, Control_c, 0, 64, 80
1, 125124, Note_on_c, 0, 65, 53
1, 125125, Note_on_c, 0, 62, 49
1, 125125, Control_c, 0, 64, 64
1, 125127, Note_on_c, 0, 60, 57
1, 125140, Control_c, 0, 64, 44
1, 125155, Control_c, 0, 64, 43
1, 125169, Control_c, 0, 64, 52
1, 125179, Note_off_c, 0, 62, 53
1, 125184, Control_c, 0, 64, 58
1, 125199, Control_c, 0, 64, 62
1, 125220, Control_c, 0, 64, 65
1, 125226, Note_off_c, 0, 60, 56
1, 125235, Control_c, 0, 64, 68
1, 125250, Control_c, 0, 64, 72
1, 125265, Control_c, 0, 64, 76
1, 125280, Control_c, 0, 64, 78
1, 125295, Control_c, 0, 64, 80
1, 125310, Control_c, 0, 64, 82
1, 125319, Note_on_c, 0, 57, 53
1, 125319, Note_on_c, 0, 60, 54
1, 125325, Control_c, 0, 64, 83
1, 125340, Control_c, 0, 64, 83
1, 125355, Control_c, 0, 64, 85
1, 125370, Control_c, 0, 64, 86
1, 125375, Note_off_c, 0, 60, 55
1, 125379, Note_off_c, 0, 65, 35
1, 125385, Control_c, 0, 64, 88
1, 125399, Note_off_c, 0, 57, 55
1, 125399, Control_c, 0, 64, 89
1, 125414, Control_c, 0, 64, 90
1, 125489, Control_c, 0, 64, 90
1, 125493, Note_on_c, 0, 69, 64
1, 125503, Note_on_c, 0, 53, 49
1, 125521, Note_off_c, 0, 72, 53
1, 125566, Note_off_c, 0, 53, 54
1, 125622, Control_c, 0, 64, 91
1, 125672, Note_on_c, 0, 50, 60
1, 125679, Note_on_c, 0, 67, 71
1, 125690, Note_off_c, 0, 69, 35
1, 125704, Note_off_c, 0, 50, 65
1, 125814, Control_c, 0, 64, 91
1, 125852, Note_off_c, 0, 67, 57
1, 125864, Note_on_c, 0, 43, 53
1, 125888, Control_c, 0, 64, 91
1, 125903, Control_c, 0, 64, 88
1, 125908, Note_on_c, 0, 65, 59
1, 125909, Note_on_c, 0, 72, 79
1, 125915, Note_on_c, 0, 62, 66
1, 125918, Control_c, 0, 64, 80
1, 125933, Control_c, 0, 64, 70
1, 125948, Control_c, 0, 64, 62
1, 125970, Control_c, 0, 64, 54
1, 125985, Control_c, 0, 64, 56
1, 125987, Note_off_c, 0, 62, 55
1, 125999, Control_c, 0, 64, 61
1, 126014, Control_c, 0, 64, 65
1, 126029, Control_c, 0, 64, 70
1, 126043, Control_c, 0, 64, 79
1, 126058, Control_c, 0, 64, 92
1, 126073, Control_c, 0, 64, 110
1, 126088, Control_c, 0, 64, 127
1, 126107, Note_on_c, 0, 38, 45
1, 126110, Note_on_c, 0, 60, 66
1, 126140, Note_off_c, 0, 43, 47
1, 126167, Note_off_c, 0, 65, 53
1, 126181, Note_off_c, 0, 60, 55
1, 126272, Note_off_c, 0, 38, 34
1, 126297, Note_on_c, 0, 69, 69
1, 126299, Note_off_c, 0, 72, 58
1, 126302, Note_on_c, 0, 31, 43
1, 126480, Note_on_c, 0, 67, 70
1, 126485, Note_off_c, 0, 31, 41
1, 126486, Note_on_c, 0, 38, 50
1, 126508, Note_off_c, 0, 69, 36
1, 126613, Note_off_c, 0, 67, 57
1, 126637, Control_c, 0, 64, 103
1, 126652, Control_c, 0, 64, 80
1, 126659, Note_off_c, 0, 38, 51
1, 126666, Control_c, 0, 64, 66
1, 126681, Control_c, 0, 64, 57
1, 126684, Note_on_c, 0, 43, 52
1, 126696, Control_c, 0, 64, 58
1, 126698, Note_on_c, 0, 65, 50
1, 126699, Note_on_c, 0, 72, 76
1, 126703, Note_on_c, 0, 62, 57
1, 126719, Control_c, 0, 64, 62
1, 126734, Control_c, 0, 64, 65
1, 126735, Note_off_c, 0, 43, 62
1, 126748, Control_c, 0, 64, 69
1, 126763, Control_c, 0, 64, 80
1, 126778, Control_c, 0, 64, 97
1, 126792, Control_c, 0, 64, 127
1, 126799, Note_off_c, 0, 62, 35
1, 126930, Note_on_c, 0, 60, 55
1, 126934, Note_on_c, 0, 50, 41
1, 127003, Note_off_c, 0, 65, 39
1, 127016, Note_off_c, 0, 60, 54
1, 127102, Note_off_c, 0, 50, 43
1, 127116, Note_on_c, 0, 53, 55
1, 127132, Note_on_c, 0, 69, 59
1, 127179, Note_off_c, 0, 72, 35
1, 127353, Note_off_c, 0, 53, 23
1, 127354, Note_on_c, 0, 57, 52
1, 127358, Note_on_c, 0, 67, 58
1, 127443, Note_off_c, 0, 69, 34
1, 127480, Note_off_c, 0, 67, 60
1, 127590, Note_off_c, 0, 57, 34
1, 127629, Control_c, 0, 64, 123
1, 127644, Control_c, 0, 64, 118
1, 127659, Control_c, 0, 64, 114
1, 127674, Control_c, 0, 64, 110
1, 127689, Control_c, 0, 64, 104
1, 127695, Note_on_c, 0, 60, 29
1, 127700, Note_on_c, 0, 72, 68
1, 127701, Note_on_c, 0, 65, 50
1, 127703, Control_c, 0, 64, 95
1, 127711, Note_on_c, 0, 62, 42
1, 127718, Control_c, 0, 64, 84
1, 127733, Control_c, 0, 64, 73
1, 127748, Control_c, 0, 64, 63
1, 127764, Control_c, 0, 64, 52
1, 127779, Control_c, 0, 64, 47
1, 127793, Control_c, 0, 64, 48
1, 127808, Control_c, 0, 64, 51
1, 127823, Control_c, 0, 64, 55
1, 127838, Control_c, 0, 64, 59
1, 127853, Control_c, 0, 64, 61
1, 127867, Control_c, 0, 64, 63
1, 127882, Control_c, 0, 64, 65
1, 127897, Control_c, 0, 64, 67
1, 127912, Control_c, 0, 64, 69
1, 127925, Note_off_c, 0, 62, 58
1, 127927, Control_c, 0, 64, 72
1, 127942, Control_c, 0, 64, 75
1, 127957, Control_c, 0, 64, 78
1, 127972, Control_c, 0, 64, 81
1, 127986, Control_c, 0, 64, 84
1, 127990, Note_off_c, 0, 60, 30
1, 128001, Control_c, 0, 64, 86
1, 128010, Note_on_c, 0, 55, 35
1, 128016, Control_c, 0, 64, 89
1, 128031, Control_c, 0, 64, 91
1, 128044, Note_off_c, 0, 65, 31
1, 128045, Control_c, 0, 64, 92
1, 128060, Control_c, 0, 64, 93
1, 128075, Control_c, 0, 64, 94
1, 128090, Control_c, 0, 64, 95
1, 128105, Control_c, 0, 64, 96
1, 128137, Note_off_c, 0, 55, 50
1, 128202, Note_on_c, 0, 52, 48
1, 128222, Note_on_c, 0, 60, 44
1, 128249, Note_off_c, 0, 52, 65
1, 128255, Note_off_c, 0, 60, 51
1, 128409, Control_c, 0, 64, 96
1, 128434, Note_on_c, 0, 48, 47
1, 128437, Note_on_c, 0, 62, 41
1, 128438, Control_c, 0, 64, 95
1, 128502, Note_off_c, 0, 62, 49
1, 128527, Control_c, 0, 64, 95
1, 128558, Control_c, 0, 64, 94
1, 128617, Control_c, 0, 64, 94
1, 128627, Note_off_c, 0, 48, 29
1, 128632, Control_c, 0, 64, 93
1, 128647, Control_c, 0, 64, 92
1, 128650, Note_on_c, 0, 43, 38
1, 128655, Note_on_c, 0, 67, 53
1, 128661, Control_c, 0, 64, 91
1, 128671, Note_on_c, 0, 64, 41
1, 128676, Control_c, 0, 64, 88
1, 128691, Control_c, 0, 64, 82
1, 128706, Control_c, 0, 64, 72
1, 128721, Control_c, 0, 64, 66
1, 128735, Control_c, 0, 64, 61
1, 128750, Control_c, 0, 64, 61
1, 128765, Control_c, 0, 64, 62
1, 128780, Control_c, 0, 64, 63
1, 128795, Control_c, 0, 64, 64
1, 128809, Control_c, 0, 64, 66
1, 128824, Control_c, 0, 64, 69
1, 128839, Control_c, 0, 64, 72
1, 128852, Note_off_c, 0, 43, 40
1, 128854, Control_c, 0, 64, 76
1, 128866, Note_off_c, 0, 72, 38
1, 128869, Control_c, 0, 64, 79
1, 128869, Note_on_c, 0, 62, 46
1, 128881, Note_on_c, 0, 36, 31
1, 128884, Control_c, 0, 64, 83
1, 128899, Control_c, 0, 64, 86
1, 128914, Control_c, 0, 64, 90
1, 128917, Note_off_c, 0, 62, 63
1, 128929, Control_c, 0, 64, 92
1, 128943, Control_c, 0, 64, 94
1, 129117, Note_off_c, 0, 36, 33
1, 129127, Note_on_c, 0, 43, 37
1, 129128, Note_on_c, 0, 72, 65
1, 129136, Note_on_c, 0, 60, 44
1, 129175, Note_off_c, 0, 60, 50
1, 129239, Note_off_c, 0, 64, 34
1, 129325, Note_off_c, 0, 67, 18
1, 129359, Note_off_c, 0, 43, 37
1, 129426, Note_on_c, 0, 62, 37
1, 129440, Note_on_c, 0, 48, 34
1, 129480, Note_off_c, 0, 62, 49
1, 129488, Note_off_c, 0, 72, 34
1, 129630, Note_off_c, 0, 48, 41
1, 129632, Control_c, 0, 64, 94
1, 129714, Control_c, 0, 64, 93
1, 129758, Control_c, 0, 64, 93
1, 129788, Control_c, 0, 64, 92
1, 129799, Note_on_c, 0, 72, 57
1, 129801, Note_on_c, 0, 52, 44
1, 129802, Note_on_c, 0, 67, 46
1, 129802, Note_on_c, 0, 64, 47
1, 129803, Control_c, 0, 64, 92
1, 129833, Control_c, 0, 64, 91
1, 129847, Control_c, 0, 64, 90
1, 129862, Control_c, 0, 64, 89
1, 129877, Control_c, 0, 64, 87
1, 129891, Control_c, 0, 64, 85
1, 129906, Control_c, 0, 64, 82
1, 129921, Control_c, 0, 64, 76
1, 129936, Control_c, 0, 64, 70
1, 129951, Control_c, 0, 64, 64
1, 129966, Control_c, 0, 64, 59
1, 129981, Control_c, 0, 64, 55
1, 129996, Control_c, 0, 64, 53
1, 130010, Control_c, 0, 64, 52
1, 130025, Control_c, 0, 64, 51
1, 130055, Control_c, 0, 64, 52
1, 130070, Control_c, 0, 64, 53
1, 130084, Control_c, 0, 64, 54
1, 130099, Control_c, 0, 64, 55
1, 130114, Control_c, 0, 64, 57
1, 130129, Control_c, 0, 64, 58
1, 130144, Control_c, 0, 64, 60
1, 130160, Control_c, 0, 64, 61
1, 130175, Control_c, 0, 64, 62
1, 130189, Control_c, 0, 64, 63
1, 130204, Control_c, 0, 64, 64
1, 130219, Control_c, 0, 64, 65
1, 130234, Control_c, 0, 64, 65
1, 130249, Control_c, 0, 64, 66
1, 130263, Control_c, 0, 64, 67
1, 130278, Control_c, 0, 64, 67
1, 130293, Control_c, 0, 64, 68
1, 130307, Control_c, 0, 64, 69
1, 130322, Control_c, 0, 64, 70
1, 130337, Control_c, 0, 64, 71
1, 130352, Control_c, 0, 64, 72
1, 130367, Control_c, 0, 64, 74
1, 130381, Control_c, 0, 64, 76
1, 130396, Control_c, 0, 64, 78
1, 130411, Control_c, 0, 64, 79
1, 130426, Control_c, 0, 64, 81
1, 130441, Control_c, 0, 64, 83
1, 130463, Control_c, 0, 64, 85
1, 130478, Control_c, 0, 64, 87
1, 130493, Control_c, 0, 64, 89
1, 130507, Control_c, 0, 64, 91
1, 130522, Control_c, 0, 64, 93
1, 130535, Note_on_c, 0, 62, 46
1, 130537, Note_on_c, 0, 55, 38
1, 130537, Control_c, 0, 64, 95
1, 130552, Control_c, 0, 64, 98
1, 130565, Control_c, 0, 64, 102
1, 130580, Control_c, 0, 64, 103
1, 130595, Control_c, 0, 64, 104
1, 130625, Control_c, 0, 64, 104
1, 130633, Note_off_c, 0, 52, 39
1, 130640, Control_c, 0, 64, 105
1, 130684, Control_c, 0, 64, 106
1, 130734, Note_off_c, 0, 64, 38
1, 130747, Note_off_c, 0, 55, 43
1, 130770, Note_off_c, 0, 62, 27
1, 130773, Control_c, 0, 64, 106
1, 130778, Note_off_c, 0, 67, 38
1, 130861, Control_c, 0, 64, 107
1, 131240, Control_c, 0, 64, 107
1, 131285, Control_c, 0, 64, 108
1, 131314, Control_c, 0, 64, 109
1, 131358, Control_c, 0, 64, 110
1, 131645, Note_on_c, 0, 67, 39
1, 131661, Note_on_c, 0, 64, 33
1, 131674, Note_on_c, 0, 60, 35
1, 131684, Control_c, 0, 64, 108
1, 131699, Control_c, 0, 64, 107
1, 131714, Control_c, 0, 64, 105
1, 131728, Control_c, 0, 64, 103
1, 131743, Control_c, 0, 64, 100
1, 131759, Control_c, 0, 64, 96
1, 131774, Control_c, 0, 64, 91
1, 131789, Control_c, 0, 64, 85
1, 131804, Control_c, 0, 64, 78
1, 131819, Control_c, 0, 64, 71
1, 131833, Control_c, 0, 64, 64
1, 131848, Control_c, 0, 64, 59
1, 131863, Control_c, 0, 64, 55
1, 131877, Control_c, 0, 64, 53
1, 131892, Control_c, 0, 64, 51
1, 131907, Control_c, 0, 64, 49
1, 131922, Control_c, 0, 64, 47
1, 131937, Control_c, 0, 64, 46
1, 131959, Control_c, 0, 64, 45
1, 131974, Control_c, 0, 64, 45
1, 131989, Control_c, 0, 64, 44
1, 132197, Control_c, 0, 64, 45
1, 132226, Control_c, 0, 64, 45
1, 132256, Control_c, 0, 64, 46
1, 132434, Control_c, 0, 64, 46
1, 132464, Control_c, 0, 64, 47
1, 132493, Control_c, 0, 64, 47
1, 132508, Control_c, 0, 64, 48
1, 132523, Control_c, 0, 64, 49
1, 132538, Control_c, 0, 64, 49
1, 132553, Control_c, 0, 64, 50
1, 132568, Control_c, 0, 64, 50
1, 132598, Control_c, 0, 64, 51
1, 132613, Control_c, 0, 64, 52
1, 132628, Control_c, 0, 64, 52
1, 132643, Control_c, 0, 64, 53
1, 132657, Control_c, 0, 64, 54
1, 132687, Control_c, 0, 64, 55
1, 132708, Control_c, 0, 64, 55
1, 132723, Control_c, 0, 64, 56
1, 132738, Control_c, 0, 64, 57
1, 132753, Control_c, 0, 64, 58
1, 132768, Control_c, 0, 64, 58
1, 132783, Control_c, 0, 64, 59
1, 132798, Control_c, 0, 64, 60
1, 132812, Control_c, 0, 64, 60
1, 132827, Control_c, 0, 64, 61
1, 132842, Control_c, 0, 64, 62
1, 132871, Control_c, 0, 64, 62
1, 132886, Control_c, 0, 64, 63
1, 132900, Control_c, 0, 64, 63
1, 132915, Control_c, 0, 64, 64
1, 132930, Control_c, 0, 64, 64
1, 132945, Control_c, 0, 64, 65
1, 132960, Control_c, 0, 64, 66
1, 132975, Control_c, 0, 64, 66
1, 132989, Control_c, 0, 64, 67
1, 133004, Control_c, 0, 64, 68
1, 133019, Control_c, 0, 64, 69
1, 133034, Control_c, 0, 64, 71
1, 133049, Control_c, 0, 64, 72
1, 133063, Control_c, 0, 64, 74
1, 133078, Control_c, 0, 64, 75
1, 133093, Control_c, 0, 64, 76
1, 133108, Control_c, 0, 64, 76
1, 133138, Control_c, 0, 64, 77
1, 133153, Control_c, 0, 64, 78
1, 133167, Control_c, 0, 64, 79
1, 133182, Control_c, 0, 64, 81
1, 133197, Control_c, 0, 64, 82
1, 133212, Control_c, 0, 64, 83
1, 133226, Control_c, 0, 64, 84
1, 133241, Control_c, 0, 64, 85
1, 133256, Control_c, 0, 64, 86
1, 133271, Control_c, 0, 64, 87
1, 133286, Control_c, 0, 64, 89
1, 133300, Control_c, 0, 64, 90
1, 133315, Control_c, 0, 64, 91
1, 133330, Control_c, 0, 64, 92
1, 133376, Control_c, 0, 64, 92
1, 133395, Note_off_c, 0, 60, 35
1, 133462, Note_off_c, 0, 64, 64
1, 133472, Control_c, 0, 64, 91
1, 133486, Control_c, 0, 64, 89
1, 133487, Note_off_c, 0, 67, 39
1, 133487, Note_off_c, 0, 72, 38
1, 133501, Control_c, 0, 64, 86
1, 133516, Control_c, 0, 64, 82
1, 133531, Control_c, 0, 64, 78
1, 133546, Control_c, 0, 64, 73
1, 133561, Control_c, 0, 64, 70
1, 133576, Control_c, 0, 64, 68
1, 133591, Control_c, 0, 64, 68
1, 133605, Control_c, 0, 64, 67
1, 133620, Control_c, 0, 64, 66
1, 133635, Control_c, 0, 64, 64
1, 133650, Control_c, 0, 64, 62
1, 133665, Control_c, 0, 64, 60
1, 133679, Control_c, 0, 64, 59
1, 133694, Control_c, 0, 64, 58
1, 133709, Control_c, 0, 64, 56
1, 133724, Control_c, 0, 64, 55
1, 133738, Control_c, 0, 64, 54
1, 133753, Control_c, 0, 64, 54
1, 133783, Control_c, 0, 64, 53
1, 133798, Control_c, 0, 64, 53
1, 133812, Control_c, 0, 64, 52
1, 133953, Note_on_c, 0, 65, 84
1, 133961, Note_on_c, 0, 64, 78
1, 133993, Note_off_c, 0, 65, 63
1, 134003, Note_off_c, 0, 64, 57
1, 134044, Note_on_c, 0, 66, 76
1, 134045, Note_on_c, 0, 63, 72
1, 134105, Note_off_c, 0, 63, 65
1, 134115, Note_on_c, 0, 60, 69
1, 134117, Note_on_c, 0, 70, 71
1, 134118, Note_off_c, 0, 66, 61
1, 134136, Note_off_c, 0, 70, 39
1, 134139, Note_off_c, 0, 60, 67
1, 134144, Note_on_c, 0, 69, 51
1, 134169, Note_off_c, 0, 69, 58
1, 134200, Note_on_c, 0, 59, 85
1, 134216, Note_on_c, 0, 71, 75
1, 134248, Note_off_c, 0, 71, 61
1, 134249, Note_off_c, 0, 59, 62
1, 134284, Note_on_c, 0, 53, 76
1, 134288, Note_on_c, 0, 75, 74
1, 134295, Control_c, 0, 64, 52
1, 134322, Note_off_c, 0, 75, 55
1, 134333, Note_off_c, 0, 53, 60
1, 134363, Note_on_c, 0, 57, 79
1, 134366, Note_on_c, 0, 72, 75
1, 134399, Note_off_c, 0, 57, 64
1, 134400, Note_off_c, 0, 72, 61
1, 134435, Note_on_c, 0, 71, 79
1, 134443, Note_on_c, 0, 59, 80
1, 134470, Note_off_c, 0, 71, 65
1, 134497, Note_off_c, 0, 59, 61
1, 134515, Note_on_c, 0, 72, 84
1, 134524, Note_on_c, 0, 57, 73
1, 134570, Note_off_c, 0, 72, 51
1, 134584, Note_on_c, 0, 75, 91
1, 134586, Note_on_c, 0, 53, 80
1, 134586, Note_off_c, 0, 57, 64
1, 134613, Note_off_c, 0, 53, 69
1, 134624, Note_off_c, 0, 75, 63
1, 134661, Note_on_c, 0, 76, 90
1, 134666, Note_on_c, 0, 52, 84
1, 134708, Note_off_c, 0, 76, 65
1, 134718, Note_off_c, 0, 52, 64
1, 134741, Note_on_c, 0, 83, 86
1, 134748, Note_on_c, 0, 45, 65
1, 134781, Note_off_c, 0, 83, 65
1, 134803, Note_off_c, 0, 45, 58
1, 134813, Note_on_c, 0, 51, 87
1, 134818, Note_on_c, 0, 77, 92
1, 134856, Note_off_c, 0, 77, 66
1, 134879, Note_off_c, 0, 51, 57
1, 134898, Note_on_c, 0, 52, 85
1, 134899, Note_on_c, 0, 76, 85
1, 134956, Note_off_c, 0, 76, 61
1, 134960, Note_off_c, 0, 52, 56
1, 134981, Note_on_c, 0, 77, 97
1, 134985, Note_on_c, 0, 51, 86
1, 135027, Note_off_c, 0, 77, 66
1, 135045, Note_off_c, 0, 51, 65
1, 135056, Note_on_c, 0, 45, 71
1, 135063, Note_on_c, 0, 83, 90
1, 135082, Note_off_c, 0, 45, 66
1, 135089, Note_off_c, 0, 83, 65
1, 135131, Note_on_c, 0, 43, 86
1, 135139, Note_on_c, 0, 84, 93
1, 135185, Note_off_c, 0, 84, 65
1, 135186, Note_off_c, 0, 43, 63
1, 135207, Note_on_c, 0, 41, 81
1, 135217, Note_on_c, 0, 87, 88
1, 135284, Note_off_c, 0, 41, 59
1, 135290, Note_off_c, 0, 87, 62
1, 135293, Note_on_c, 0, 88, 90
1, 135295, Note_on_c, 0, 40, 80
1, 135338, Note_off_c, 0, 40, 60
1, 135338, Note_off_c, 0, 88, 65
1, 135372, Note_on_c, 0, 41, 90
1, 135379, Note_on_c, 0, 87, 90
1, 135429, Control_c, 0, 64, 51
1, 135433, Note_off_c, 0, 41, 63
1, 135433, Note_off_c, 0, 87, 62
1, 135442, Note_on_c, 0, 40, 73
1, 135442, Note_on_c, 0, 88, 85
1, 135444, Control_c, 0, 64, 49
1, 135458, Control_c, 0, 64, 47
1, 135473, Control_c, 0, 64, 43
1, 135481, Note_off_c, 0, 40, 64
1, 135488, Control_c, 0, 64, 40
1, 135490, Note_off_c, 0, 88, 67
1, 135502, Control_c, 0, 64, 41
1, 135517, Control_c, 0, 64, 54
1, 135530, Note_on_c, 0, 41, 91
1, 135530, Note_on_c, 0, 45, 96
1, 135531, Note_on_c, 0, 89, 101
1, 135532, Note_on_c, 0, 38, 86
1, 135532, Control_c, 0, 64, 65
1, 135533, Note_on_c, 0, 81, 95
1, 135537, Note_on_c, 0, 86, 80
1, 135547, Control_c, 0, 64, 80
1, 135559, Note_off_c, 0, 86, 70
1, 135562, Control_c, 0, 64, 127
1, 135570, Note_off_c, 0, 81, 69
1, 135570, Note_off_c, 0, 89, 63
1, 135579, Note_off_c, 0, 45, 62
1, 135598, Note_off_c, 0, 41, 58
1, 135612, Note_off_c, 0, 38, 58
1, 135678, Note_on_c, 0, 65, 100
1, 135722, Note_off_c, 0, 65, 68
1, 135926, Control_c, 0, 64, 90
1, 135941, Control_c, 0, 64, 70
1, 135956, Control_c, 0, 64, 49
1, 135971, Control_c, 0, 64, 0
1, 135998, Note_on_c, 0, 69, 104
1, 136038, Note_off_c, 0, 69, 65
1, 136189, Note_on_c, 0, 74, 87
1, 136226, Note_off_c, 0, 74, 62
1, 136253, Note_on_c, 0, 77, 110
1, 136263, Note_on_c, 0, 64, 87
1, 136282, Control_c, 0, 64, 63
1, 136285, Note_off_c, 0, 77, 71
1, 136297, Control_c, 0, 64, 71
1, 136312, Control_c, 0, 64, 85
1, 136326, Control_c, 0, 64, 127
1, 136347, Note_off_c, 0, 64, 54
1, 136541, Control_c, 0, 64, 100
1, 136555, Note_on_c, 0, 69, 97
1, 136557, Control_c, 0, 64, 68
1, 136572, Control_c, 0, 64, 19
1, 136587, Control_c, 0, 64, 0
1, 136607, Note_off_c, 0, 69, 63
1, 136754, Note_on_c, 0, 74, 80
1, 136787, Note_off_c, 0, 74, 65
1, 136821, Note_on_c, 0, 68, 100
1, 136822, Note_on_c, 0, 77, 99
1, 136838, Control_c, 0, 64, 64
1, 136853, Control_c, 0, 64, 75
1, 136861, Note_off_c, 0, 77, 65
1, 136868, Control_c, 0, 64, 96
1, 136883, Control_c, 0, 64, 127
1, 136905, Note_off_c, 0, 68, 48
1, 137075, Control_c, 0, 64, 87
1, 137090, Control_c, 0, 64, 59
1, 137101, Note_on_c, 0, 73, 91
1, 137105, Control_c, 0, 64, 0
1, 137154, Note_off_c, 0, 73, 64
1, 137307, Note_on_c, 0, 77, 76
1, 137355, Note_off_c, 0, 77, 63
1, 137366, Note_on_c, 0, 80, 100
1, 137377, Note_on_c, 0, 60, 90
1, 137379, Control_c, 0, 64, 45
1, 137394, Control_c, 0, 64, 70
1, 137405, Note_off_c, 0, 80, 67
1, 137409, Control_c, 0, 64, 82
1, 137424, Control_c, 0, 64, 127
1, 137454, Note_off_c, 0, 60, 57
1, 137631, Control_c, 0, 64, 78
1, 137645, Control_c, 0, 64, 34
1, 137651, Note_on_c, 0, 65, 74
1, 137655, Note_on_c, 0, 64, 79
1, 137660, Control_c, 0, 64, 0
1, 137682, Note_off_c, 0, 64, 62
1, 137687, Note_off_c, 0, 65, 65
1, 137840, Note_on_c, 0, 68, 74
1, 137891, Note_off_c, 0, 68, 64
1, 137904, Note_on_c, 0, 72, 93
1, 137918, Note_on_c, 0, 76, 105
1, 137927, Control_c, 0, 64, 39
1, 137943, Note_off_c, 0, 72, 69
1, 137949, Control_c, 0, 64, 73
1, 137964, Control_c, 0, 64, 87
1, 137972, Note_on_c, 0, 84, 40
1, 137979, Control_c, 0, 64, 127
1, 138006, Note_off_c, 0, 84, 47
1, 138007, Note_off_c, 0, 76, 59
1, 138101, Note_on_c, 0, 80, 61
1, 138133, Note_on_c, 0, 81, 70
1, 138161, Note_off_c, 0, 80, 64
1, 138179, Note_on_c, 0, 83, 80
1, 138187, Note_off_c, 0, 81, 66
1, 138196, Note_on_c, 0, 84, 104
1, 138199, Note_off_c, 0, 83, 69
1, 138232, Control_c, 0, 64, 83
1, 138237, Note_off_c, 0, 84, 69
1, 138247, Control_c, 0, 64, 61
1, 138262, Control_c, 0, 64, 0
1, 138405, Note_on_c, 0, 87, 86
1, 138453, Note_off_c, 0, 87, 66
1, 138464, Note_on_c, 0, 58, 90
1, 138465, Note_on_c, 0, 88, 111
1, 138483, Control_c, 0, 64, 69
1, 138498, Control_c, 0, 64, 85
1, 138505, Note_off_c, 0, 88, 72
1, 138510, Note_on_c, 0, 86, 37
1, 138511, Note_off_c, 0, 86, 127
1, 138512, Control_c, 0, 64, 127
1, 138582, Note_off_c, 0, 58, 55
1, 138769, Note_on_c, 0, 64, 96
1, 138801, Control_c, 0, 64, 112
1, 138805, Note_off_c, 0, 64, 69
1, 138816, Control_c, 0, 64, 88
1, 138831, Control_c, 0, 64, 77
1, 138846, Control_c, 0, 64, 70
1, 138861, Control_c, 0, 64, 62
1, 138876, Control_c, 0, 64, 34
1, 138891, Control_c, 0, 64, 0
1, 138982, Note_on_c, 0, 68, 82
1, 139011, Note_off_c, 0, 68, 64
1, 139070, Note_on_c, 0, 73, 92
1, 139072, Note_on_c, 0, 69, 96
1, 139072, Note_on_c, 0, 76, 99
1, 139078, Note_on_c, 0, 57, 89
1, 139099, Control_c, 0, 64, 69
1, 139114, Control_c, 0, 64, 84
1, 139114, Note_off_c, 0, 73, 68
1, 139114, Note_off_c, 0, 57, 65
1, 139117, Note_off_c, 0, 69, 65
1, 139129, Control_c, 0, 64, 127
1, 139170, Note_on_c, 0, 70, 81
1, 139178, Note_off_c, 0, 76, 63
1, 139211, Note_off_c, 0, 70, 55
1, 139247, Control_c, 0, 64, 105
1, 139251, Note_on_c, 0, 68, 83
1, 139262, Control_c, 0, 64, 92
1, 139277, Control_c, 0, 64, 84
1, 139291, Control_c, 0, 64, 79
1, 139302, Note_off_c, 0, 68, 62
1, 139306, Control_c, 0, 64, 75
1, 139321, Control_c, 0, 64, 70
1, 139336, Control_c, 0, 64, 64
1, 139341, Note_on_c, 0, 73, 78
1, 139342, Note_on_c, 0, 69, 84
1, 139344, Note_on_c, 0, 76, 81
1, 139350, Control_c, 0, 64, 56
1, 139365, Control_c, 0, 64, 47
1, 139374, Note_off_c, 0, 73, 66
1, 139378, Note_off_c, 0, 69, 65
1, 139380, Control_c, 0, 64, 45
1, 139395, Control_c, 0, 64, 44
1, 139397, Note_off_c, 0, 76, 59
1, 139410, Control_c, 0, 64, 41
1, 139424, Control_c, 0, 64, 38
1, 139431, Note_on_c, 0, 70, 81
1, 139447, Control_c, 0, 64, 37
1, 139467, Note_off_c, 0, 70, 64
1, 139477, Control_c, 0, 64, 36
1, 139514, Note_on_c, 0, 68, 80
1, 139565, Note_off_c, 0, 68, 61
1, 139600, Note_on_c, 0, 73, 79
1, 139603, Note_on_c, 0, 76, 85
1, 139609, Note_on_c, 0, 69, 86
1, 139635, Note_off_c, 0, 73, 66
1, 139639, Note_off_c, 0, 69, 63
1, 139660, Note_off_c, 0, 76, 63
1, 139686, Note_on_c, 0, 70, 85
1, 139720, Note_off_c, 0, 70, 63
1, 139771, Note_on_c, 0, 68, 84
1, 139824, Note_off_c, 0, 68, 61
1, 139857, Note_on_c, 0, 73, 83
1, 139860, Note_on_c, 0, 76, 91
1, 139866, Note_on_c, 0, 69, 89
1, 139893, Note_off_c, 0, 73, 66
1, 139905, Note_off_c, 0, 69, 66
1, 139915, Note_off_c, 0, 76, 64
1, 139946, Note_on_c, 0, 70, 87
1, 139985, Note_off_c, 0, 70, 62
1, 140029, Note_on_c, 0, 68, 81
1, 140071, Control_c, 0, 64, 36
1, 140078, Note_off_c, 0, 68, 61
1, 140086, Control_c, 0, 64, 35
1, 140114, Note_on_c, 0, 69, 90
1, 140115, Note_on_c, 0, 73, 81
1, 140115, Note_on_c, 0, 76, 85
1, 140115, Control_c, 0, 64, 39
1, 140130, Control_c, 0, 64, 48
1, 140145, Control_c, 0, 64, 58
1, 140160, Control_c, 0, 64, 64
1, 140161, Note_off_c, 0, 69, 63
1, 140174, Control_c, 0, 64, 67
1, 140176, Note_off_c, 0, 73, 55
1, 140196, Control_c, 0, 64, 70
1, 140199, Note_off_c, 0, 76, 45
1, 140208, Note_on_c, 0, 65, 81
1, 140211, Control_c, 0, 64, 74
1, 140212, Note_on_c, 0, 70, 87
1, 140226, Control_c, 0, 64, 78
1, 140241, Control_c, 0, 64, 79
1, 140269, Note_off_c, 0, 65, 61
1, 140271, Control_c, 0, 64, 79
1, 140281, Note_off_c, 0, 70, 59
1, 140286, Control_c, 0, 64, 78
1, 140286, Note_on_c, 0, 64, 77
1, 140292, Note_on_c, 0, 69, 84
1, 140300, Control_c, 0, 64, 78
1, 140308, Note_off_c, 0, 64, 71
1, 140315, Control_c, 0, 64, 77
1, 140330, Control_c, 0, 64, 76
1, 140337, Note_off_c, 0, 69, 63
1, 140345, Control_c, 0, 64, 74
1, 140360, Control_c, 0, 64, 72
1, 140364, Note_on_c, 0, 62, 85
1, 140373, Note_on_c, 0, 69, 71
1, 140374, Control_c, 0, 64, 70
1, 140375, Note_on_c, 0, 65, 89
1, 140389, Control_c, 0, 64, 68
1, 140404, Control_c, 0, 64, 67
1, 140413, Note_off_c, 0, 65, 63
1, 140415, Note_off_c, 0, 62, 62
1, 140419, Control_c, 0, 64, 65
1, 140434, Control_c, 0, 64, 63
1, 140447, Note_on_c, 0, 60, 82
1, 140448, Control_c, 0, 64, 62
1, 140458, Note_on_c, 0, 64, 85
1, 140462, Note_off_c, 0, 69, 63
1, 140463, Control_c, 0, 64, 62
1, 140478, Control_c, 0, 64, 61
1, 140492, Control_c, 0, 64, 60
1, 140500, Note_off_c, 0, 64, 64
1, 140507, Control_c, 0, 64, 60
1, 140515, Note_off_c, 0, 60, 60
1, 140522, Control_c, 0, 64, 59
1, 140525, Note_on_c, 0, 58, 83
1, 140536, Note_on_c, 0, 62, 78
1, 140538, Control_c, 0, 64, 59
1, 140554, Note_off_c, 0, 58, 68
1, 140573, Note_off_c, 0, 62, 65
1, 140605, Note_on_c, 0, 57, 84
1, 140611, Note_on_c, 0, 61, 87
1, 140614, Note_on_c, 0, 64, 80
1, 140627, Control_c, 0, 64, 58
1, 140660, Note_off_c, 0, 57, 65
1, 140680, Note_off_c, 0, 61, 58
1, 140682, Note_off_c, 0, 64, 60
1, 140684, Note_on_c, 0, 53, 79
1, 140695, Note_on_c, 0, 58, 90
1, 140701, Control_c, 0, 64, 58
1, 140747, Note_off_c, 0, 58, 64
1, 140752, Note_off_c, 0, 53, 64
1, 140760, Note_on_c, 0, 52, 73
1, 140773, Note_on_c, 0, 57, 76
1, 140775, Control_c, 0, 64, 57
1, 140784, Note_off_c, 0, 52, 67
1, 140801, Note_off_c, 0, 57, 66
1, 140805, Control_c, 0, 64, 57
1, 140847, Note_on_c, 0, 45, 80
1, 140852, Note_on_c, 0, 52, 74
1, 140858, Note_on_c, 0, 49, 79
1, 140893, Note_off_c, 0, 45, 62
1, 140933, Note_on_c, 0, 46, 85
1, 140942, Note_on_c, 0, 41, 77
1, 140942, Note_off_c, 0, 52, 61
1, 140948, Note_off_c, 0, 49, 63
1, 140989, Note_off_c, 0, 46, 65
1, 140998, Note_off_c, 0, 41, 61
1, 141016, Note_on_c, 0, 45, 84
1, 141019, Control_c, 0, 64, 56
1, 141034, Control_c, 0, 64, 56
1, 141048, Control_c, 0, 64, 55
1, 141051, Note_off_c, 0, 45, 65
1, 141063, Control_c, 0, 64, 55
1, 141092, Control_c, 0, 64, 54
1, 141095, Note_on_c, 0, 41, 77
1, 141105, Note_on_c, 0, 38, 98
1, 141121, Control_c, 0, 64, 54
1, 141128, Note_off_c, 0, 38, 70
1, 141136, Control_c, 0, 64, 53
1, 141149, Note_off_c, 0, 41, 64
1, 141151, Control_c, 0, 64, 52
1, 141247, Note_on_c, 0, 45, 94
1, 141293, Note_off_c, 0, 45, 64
1, 141374, Control_c, 0, 64, 53
1, 141379, Note_on_c, 0, 38, 86
1, 141380, Note_on_c, 0, 41, 85
1, 141398, Note_on_c, 0, 40, 56
1, 141399, Note_off_c, 0, 40, 127
1, 141418, Note_off_c, 0, 41, 65
1, 141427, Note_off_c, 0, 38, 61
1, 141507, Note_on_c, 0, 40, 84
1, 141567, Control_c, 0, 64, 53
1, 141574, Note_off_c, 0, 40, 63
1, 141649, Note_on_c, 0, 38, 94
1, 141651, Note_on_c, 0, 41, 88
1, 141682, Note_off_c, 0, 38, 63
1, 141707, Note_off_c, 0, 41, 63
1, 141793, Note_on_c, 0, 45, 90
1, 141845, Note_off_c, 0, 45, 64
1, 141930, Note_on_c, 0, 38, 84
1, 141932, Note_on_c, 0, 43, 101
1, 141969, Note_off_c, 0, 43, 63
1, 141979, Note_off_c, 0, 38, 60
1, 142071, Note_on_c, 0, 40, 85
1, 142137, Note_off_c, 0, 40, 63
1, 142207, Note_on_c, 0, 38, 94
1, 142212, Note_on_c, 0, 41, 88
1, 142247, Note_off_c, 0, 38, 64
1, 142264, Note_off_c, 0, 41, 64
1, 142286, Control_c, 0, 64, 53
1, 142341, Note_on_c, 0, 45, 87
1, 142406, Note_off_c, 0, 45, 61
1, 142477, Note_on_c, 0, 41, 101
1, 142483, Note_on_c, 0, 38, 83
1, 142521, Note_off_c, 0, 41, 66
1, 142536, Note_off_c, 0, 38, 61
1, 142619, Note_on_c, 0, 40, 87
1, 142664, Control_c, 0, 64, 52
1, 142687, Note_off_c, 0, 40, 63
1, 142753, Note_on_c, 0, 38, 92
1, 142757, Note_on_c, 0, 41, 89
1, 142797, Note_off_c, 0, 38, 61
1, 142809, Note_off_c, 0, 41, 64
1, 142856, Control_c, 0, 64, 52
1, 142889, Note_on_c, 0, 45, 85
1, 142946, Control_c, 0, 64, 51
1, 142949, Note_off_c, 0, 45, 62
1, 143034, Note_on_c, 0, 38, 75
1, 143035, Note_on_c, 0, 40, 91
1, 143066, Note_off_c, 0, 40, 66
1, 143079, Note_off_c, 0, 38, 61
1, 143079, Control_c, 0, 64, 51
1, 143109, Control_c, 0, 64, 50
1, 143124, Control_c, 0, 64, 50
1, 143154, Control_c, 0, 64, 49
1, 143168, Control_c, 0, 64, 49
1, 143174, Note_on_c, 0, 40, 65
1, 143190, Control_c, 0, 64, 48
1, 143205, Control_c, 0, 64, 46
1, 143213, Note_on_c, 0, 38, 23
1, 143213, Note_off_c, 0, 40, 64
1, 143220, Control_c, 0, 64, 44
1, 143235, Control_c, 0, 64, 41
1, 143250, Control_c, 0, 64, 34
1, 143258, Note_off_c, 0, 38, 30
1, 143264, Control_c, 0, 64, 25
1, 143279, Control_c, 0, 64, 13
1, 143294, Control_c, 0, 64, 11
1, 143309, Control_c, 0, 64, 34
1, 143314, Note_on_c, 0, 41, 100
1, 143322, Note_on_c, 0, 38, 77
1, 143323, Note_on_c, 0, 40, 66
1, 143324, Control_c, 0, 64, 61
1, 143338, Control_c, 0, 64, 70
1, 143349, Note_off_c, 0, 38, 66
1, 143353, Control_c, 0, 64, 82
1, 143365, Note_off_c, 0, 40, 63
1, 143368, Control_c, 0, 64, 102
1, 143383, Control_c, 0, 64, 127
1, 143456, Note_on_c, 0, 37, 69
1, 143515, Note_off_c, 0, 37, 57
1, 143546, Control_c, 0, 64, 123
1, 143561, Control_c, 0, 64, 111
1, 143576, Control_c, 0, 64, 102
1, 143589, Note_on_c, 0, 39, 69
1, 143590, Control_c, 0, 64, 93
1, 143592, Note_on_c, 0, 36, 64
1, 143597, Note_on_c, 0, 52, 81
1, 143605, Control_c, 0, 64, 82
1, 143620, Control_c, 0, 64, 73
1, 143623, Note_off_c, 0, 39, 65
1, 143628, Note_off_c, 0, 36, 65
1, 143635, Control_c, 0, 64, 64
1, 143650, Control_c, 0, 64, 54
1, 143653, Note_off_c, 0, 52, 65
1, 143664, Control_c, 0, 64, 47
1, 143679, Control_c, 0, 64, 45
1, 143683, Poly_aftertouch_c, 0, 51, 0
1, 143694, Control_c, 0, 64, 44
1, 143708, Control_c, 0, 64, 43
1, 143714, Note_on_c, 0, 35, 66
1, 143717, Note_on_c, 0, 38, 63
1, 143723, Control_c, 0, 64, 43
1, 143740, Control_c, 0, 64, 42
1, 143748, Note_off_c, 0, 41, 41
1, 143755, Control_c, 0, 64, 42
1, 143756, Note_off_c, 0, 38, 62
1, 143769, Control_c, 0, 64, 41
1, 143770, Note_off_c, 0, 35, 57
1, 143784, Control_c, 0, 64, 40
1, 143791, Note_on_c, 0, 50, 78
1, 143799, Control_c, 0, 64, 39
1, 143813, Control_c, 0, 64, 39
1, 143828, Control_c, 0, 64, 38
1, 143857, Note_on_c, 0, 37, 65
1, 143859, Note_on_c, 0, 53, 100
1, 143863, Note_on_c, 0, 34, 68
1, 143867, Note_off_c, 0, 50, 62
1, 143893, Note_off_c, 0, 37, 64
1, 143902, Control_c, 0, 64, 38
1, 143911, Note_off_c, 0, 34, 62
1, 144012, Note_on_c, 0, 35, 58
1, 144014, Note_on_c, 0, 38, 55
1, 144020, Note_on_c, 0, 41, 72
1, 144046, Note_off_c, 0, 38, 62
1, 144055, Note_off_c, 0, 35, 59
1, 144056, Note_off_c, 0, 41, 65
1, 144073, Control_c, 0, 64, 37
1, 144087, Control_c, 0, 64, 38
1, 144102, Control_c, 0, 64, 37
1, 144149, Note_on_c, 0, 41, 75
1, 144150, Note_on_c, 0, 39, 63
1, 144164, Note_on_c, 0, 36, 43
1, 144181, Note_off_c, 0, 39, 63
1, 144200, Note_off_c, 0, 36, 62
1, 144207, Note_off_c, 0, 41, 63
1, 144249, Poly_aftertouch_c, 0, 35, 0
1, 144278, Note_on_c, 0, 41, 95
1, 144280, Control_c, 0, 64, 37
1, 144282, Note_on_c, 0, 37, 75
1, 144286, Note_on_c, 0, 40, 71
1, 144310, Control_c, 0, 64, 34
1, 144313, Note_off_c, 0, 40, 66
1, 144323, Note_off_c, 0, 37, 60
1, 144325, Control_c, 0, 64, 26
1, 144337, Note_off_c, 0, 41, 64
1, 144339, Control_c, 0, 64, 0
1, 144415, Note_on_c, 0, 38, 94
1, 144415, Note_on_c, 0, 41, 96
1, 144417, Note_off_c, 0, 53, 0
1, 144443, Control_c, 0, 64, 58
1, 144453, Poly_aftertouch_c, 0, 53, 0
1, 144458, Control_c, 0, 64, 67
1, 144465, Note_off_c, 0, 38, 63
1, 144473, Control_c, 0, 64, 76
1, 144487, Control_c, 0, 64, 88
1, 144489, Poly_aftertouch_c, 0, 53, 127
1, 144502, Control_c, 0, 64, 99
1, 144517, Control_c, 0, 64, 103
1, 144533, Control_c, 0, 64, 104
1, 144545, Poly_aftertouch_c, 0, 53, 0
1, 144548, Control_c, 0, 64, 106
1, 144562, Control_c, 0, 64, 106
1, 144566, Note_on_c, 0, 40, 59
1, 144567, Note_on_c, 0, 37, 67
1, 144592, Control_c, 0, 64, 105
1, 144607, Control_c, 0, 64, 101
1, 144616, Note_off_c, 0, 40, 63
1, 144617, Note_off_c, 0, 37, 60
1, 144622, Control_c, 0, 64, 98
1, 144636, Control_c, 0, 64, 97
1, 144651, Control_c, 0, 64, 96
1, 144666, Control_c, 0, 64, 94
1, 144689, Control_c, 0, 64, 92
1, 144704, Control_c, 0, 64, 87
1, 144707, Note_on_c, 0, 52, 86
1, 144714, Note_on_c, 0, 36, 69
1, 144716, Note_on_c, 0, 39, 68
1, 144718, Control_c, 0, 64, 80
1, 144733, Control_c, 0, 64, 69
1, 144747, Note_off_c, 0, 39, 65
1, 144748, Control_c, 0, 64, 62
1, 144751, Note_off_c, 0, 36, 65
1, 144762, Note_off_c, 0, 52, 65
1, 144762, Control_c, 0, 64, 51
1, 144777, Control_c, 0, 64, 46
1, 144792, Control_c, 0, 64, 45
1, 144807, Control_c, 0, 64, 44
1, 144822, Control_c, 0, 64, 42
1, 144835, Note_on_c, 0, 35, 73
1, 144836, Control_c, 0, 64, 41
1, 144841, Note_on_c, 0, 38, 64
1, 144851, Control_c, 0, 64, 40
1, 144866, Note_off_c, 0, 41, 35
1, 144866, Control_c, 0, 64, 39
1, 144876, Note_off_c, 0, 38, 63
1, 144881, Control_c, 0, 64, 38
1, 144896, Control_c, 0, 64, 37
1, 144898, Note_off_c, 0, 35, 60
1, 144910, Control_c, 0, 64, 36
1, 144912, Note_on_c, 0, 50, 84
1, 144925, Control_c, 0, 64, 36
1, 144930, Note_on_c, 0, 51, 19
1, 144931, Note_off_c, 0, 51, 127
1, 144940, Control_c, 0, 64, 35
1, 144955, Control_c, 0, 64, 35
1, 144976, Note_on_c, 0, 53, 95
1, 144982, Note_on_c, 0, 37, 69
1, 144984, Control_c, 0, 64, 34
1, 144985, Note_off_c, 0, 50, 62
1, 144987, Note_on_c, 0, 34, 69
1, 145020, Note_off_c, 0, 37, 64
1, 145040, Note_off_c, 0, 34, 61
1, 145043, Control_c, 0, 64, 34
1, 145073, Control_c, 0, 64, 33
1, 145121, Note_on_c, 0, 35, 62
1, 145127, Note_on_c, 0, 41, 74
1, 145128, Note_on_c, 0, 38, 57
1, 145160, Note_off_c, 0, 38, 63
1, 145169, Note_off_c, 0, 41, 65
1, 145169, Note_off_c, 0, 35, 59
1, 145257, Note_on_c, 0, 36, 60
1, 145263, Note_on_c, 0, 39, 59
1, 145267, Note_on_c, 0, 41, 79
1, 145295, Note_off_c, 0, 39, 62
1, 145303, Note_off_c, 0, 36, 63
1, 145310, Control_c, 0, 64, 33
1, 145321, Note_off_c, 0, 41, 62
1, 145326, Control_c, 0, 64, 32
1, 145341, Control_c, 0, 64, 32
1, 145356, Control_c, 0, 64, 31
1, 145371, Control_c, 0, 64, 31
1, 145394, Note_on_c, 0, 37, 73
1, 145400, Control_c, 0, 64, 30
1, 145401, Note_on_c, 0, 41, 79
1, 145410, Note_on_c, 0, 40, 62
1, 145445, Note_off_c, 0, 37, 60
1, 145449, Note_off_c, 0, 40, 64
1, 145452, Control_c, 0, 64, 29
1, 145458, Note_off_c, 0, 41, 63
1, 145467, Control_c, 0, 64, 28
1, 145482, Control_c, 0, 64, 27
1, 145497, Control_c, 0, 64, 27
1, 145526, Control_c, 0, 64, 29
1, 145527, Note_off_c, 0, 53, 59
1, 145531, Note_on_c, 0, 38, 94
1, 145541, Control_c, 0, 64, 43
1, 145548, Note_on_c, 0, 41, 76
1, 145556, Control_c, 0, 64, 56
1, 145571, Control_c, 0, 64, 63
1, 145583, Note_off_c, 0, 38, 62
1, 145585, Control_c, 0, 64, 67
1, 145600, Control_c, 0, 64, 73
1, 145608, Note_off_c, 0, 41, 60
1, 145615, Note_on_c, 0, 52, 73
1, 145615, Control_c, 0, 64, 82
1, 145630, Control_c, 0, 64, 93
1, 145645, Control_c, 0, 64, 106
1, 145659, Control_c, 0, 64, 127
1, 145678, Poly_aftertouch_c, 0, 43, 0
1, 145678, Note_on_c, 0, 37, 72
1, 145681, Note_on_c, 0, 40, 70
1, 145683, Note_off_c, 0, 52, 64
1, 145684, Note_on_c, 0, 50, 72
1, 145724, Note_off_c, 0, 40, 65
1, 145726, Note_off_c, 0, 37, 61
1, 145733, Control_c, 0, 64, 123
1, 145742, Note_off_c, 0, 50, 66
1, 145747, Note_on_c, 0, 53, 81
1, 145748, Control_c, 0, 64, 121
1, 145763, Control_c, 0, 64, 119
1, 145774, Note_off_c, 0, 53, 67
1, 145778, Control_c, 0, 64, 114
1, 145792, Control_c, 0, 64, 106
1, 145807, Control_c, 0, 64, 97
1, 145811, Note_on_c, 0, 39, 79
1, 145815, Note_on_c, 0, 36, 75
1, 145817, Note_on_c, 0, 53, 84
1, 145822, Control_c, 0, 64, 91
1, 145837, Control_c, 0, 64, 87
1, 145845, Note_off_c, 0, 39, 65
1, 145852, Control_c, 0, 64, 86
1, 145857, Note_off_c, 0, 36, 61
1, 145866, Control_c, 0, 64, 83
1, 145881, Control_c, 0, 64, 80
1, 145885, Note_off_c, 0, 53, 60
1, 145889, Note_on_c, 0, 64, 80
1, 145896, Control_c, 0, 64, 76
1, 145911, Control_c, 0, 64, 72
1, 145926, Control_c, 0, 64, 69
1, 145941, Control_c, 0, 64, 68
1, 145950, Note_on_c, 0, 62, 74
1, 145951, Note_on_c, 0, 38, 69
1, 145953, Note_on_c, 0, 35, 68
1, 145956, Control_c, 0, 64, 67
1, 145965, Note_off_c, 0, 64, 49
1, 145970, Control_c, 0, 64, 66
1, 145979, Note_off_c, 0, 38, 64
1, 145985, Control_c, 0, 64, 65
1, 145991, Note_off_c, 0, 35, 62
1, 146000, Control_c, 0, 64, 64
1, 146006, Note_off_c, 0, 62, 67
1, 146009, Note_on_c, 0, 65, 90
1, 146015, Control_c, 0, 64, 63
1, 146027, Note_off_c, 0, 65, 71
1, 146059, Control_c, 0, 64, 63
1, 146073, Note_on_c, 0, 37, 69
1, 146074, Control_c, 0, 64, 64
1, 146078, Note_on_c, 0, 34, 70
1, 146084, Note_on_c, 0, 65, 87
1, 146103, Control_c, 0, 64, 64
1, 146111, Note_off_c, 0, 37, 63
1, 146118, Control_c, 0, 64, 65
1, 146134, Control_c, 0, 64, 66
1, 146137, Note_off_c, 0, 34, 61
1, 146147, Note_off_c, 0, 65, 58
1, 146149, Control_c, 0, 64, 67
1, 146150, Note_on_c, 0, 76, 80
1, 146164, Control_c, 0, 64, 68
1, 146186, Control_c, 0, 64, 70
1, 146201, Control_c, 0, 64, 72
1, 146215, Control_c, 0, 64, 74
1, 146218, Note_on_c, 0, 74, 81
1, 146220, Note_on_c, 0, 38, 61
1, 146221, Note_on_c, 0, 35, 58
1, 146230, Control_c, 0, 64, 76
1, 146242, Note_off_c, 0, 76, 59
1, 146245, Control_c, 0, 64, 79
1, 146249, Note_off_c, 0, 38, 63
1, 146258, Note_off_c, 0, 35, 61
1, 146260, Control_c, 0, 64, 82
1, 146272, Note_off_c, 0, 74, 67
1, 146275, Control_c, 0, 64, 86
1, 146279, Note_on_c, 0, 77, 85
1, 146289, Control_c, 0, 64, 89
1, 146299, Note_off_c, 0, 77, 70
1, 146304, Control_c, 0, 64, 91
1, 146319, Control_c, 0, 64, 92
1, 146334, Control_c, 0, 64, 92
1, 146340, Note_on_c, 0, 36, 67
1, 146340, Note_on_c, 0, 39, 69
1, 146348, Note_on_c, 0, 77, 91
1, 146349, Control_c, 0, 64, 94
1, 146364, Control_c, 0, 64, 95
1, 146376, Note_off_c, 0, 39, 62
1, 146379, Control_c, 0, 64, 96
1, 146392, Note_off_c, 0, 36, 60
1, 146394, Control_c, 0, 64, 97
1, 146408, Control_c, 0, 64, 98
1, 146409, Note_off_c, 0, 77, 60
1, 146419, Note_on_c, 0, 88, 82
1, 146423, Control_c, 0, 64, 99
1, 146438, Control_c, 0, 64, 101
1, 146453, Control_c, 0, 64, 105
1, 146468, Note_on_c, 0, 86, 79
1, 146468, Control_c, 0, 64, 108
1, 146478, Note_on_c, 0, 37, 63
1, 146480, Note_on_c, 0, 40, 60
1, 146481, Note_off_c, 0, 88, 63
1, 146482, Control_c, 0, 64, 113
1, 146497, Control_c, 0, 64, 127
1, 146514, Note_off_c, 0, 40, 64
1, 146522, Note_off_c, 0, 86, 68
1, 146536, Note_on_c, 0, 89, 96
1, 146537, Note_off_c, 0, 37, 58
1, 146555, Note_off_c, 0, 89, 66
1, 146556, Control_c, 0, 64, 85
1, 146571, Control_c, 0, 64, 64
1, 146586, Control_c, 0, 64, 37
1, 146593, Note_on_c, 0, 89, 99
1, 146594, Note_on_c, 0, 38, 87
1, 146596, Note_on_c, 0, 41, 91
1, 146601, Control_c, 0, 64, 47
1, 146615, Control_c, 0, 64, 58
1, 146630, Control_c, 0, 64, 65
1, 146640, Note_off_c, 0, 41, 62
1, 146645, Control_c, 0, 64, 75
1, 146660, Control_c, 0, 64, 102
1, 146668, Note_off_c, 0, 38, 61
1, 146669, Note_on_c, 0, 82, 92
1, 146675, Control_c, 0, 64, 127
1, 146683, Note_off_c, 0, 89, 62
1, 146727, Note_on_c, 0, 83, 84
1, 146733, Note_off_c, 0, 82, 63
1, 146739, Note_on_c, 0, 37, 65
1, 146747, Note_on_c, 0, 40, 64
1, 146783, Note_off_c, 0, 83, 64
1, 146792, Note_on_c, 0, 77, 75
1, 146794, Note_off_c, 0, 37, 55
1, 146795, Note_off_c, 0, 40, 59
1, 146817, Note_off_c, 0, 77, 68
1, 146865, Note_on_c, 0, 77, 79
1, 146866, Note_on_c, 0, 39, 66
1, 146868, Note_on_c, 0, 36, 68
1, 146884, Note_on_c, 0, 76, 61
1, 146903, Note_off_c, 0, 76, 40
1, 146904, Note_off_c, 0, 39, 60
1, 146921, Note_off_c, 0, 77, 62
1, 146922, Note_off_c, 0, 36, 55
1, 146934, Note_on_c, 0, 70, 81
1, 146981, Note_on_c, 0, 71, 84
1, 146981, Note_off_c, 0, 70, 63
1, 147016, Note_on_c, 0, 35, 61
1, 147021, Note_on_c, 0, 38, 59
1, 147033, Note_off_c, 0, 71, 63
1, 147048, Note_on_c, 0, 65, 77
1, 147058, Note_off_c, 0, 38, 60
1, 147071, Note_off_c, 0, 65, 68
1, 147083, Control_c, 0, 64, 100
1, 147097, Note_off_c, 0, 35, 45
1, 147098, Control_c, 0, 64, 70
1, 147112, Control_c, 0, 64, 50
1, 147115, Note_on_c, 0, 66, 85
1, 147127, Control_c, 0, 64, 43
1, 147132, Note_on_c, 0, 37, 70
1, 147133, Note_on_c, 0, 34, 69
1, 147142, Control_c, 0, 64, 57
1, 147157, Control_c, 0, 64, 64
1, 147172, Control_c, 0, 64, 71
1, 147175, Note_on_c, 0, 59, 83
1, 147177, Note_off_c, 0, 37, 61
1, 147187, Control_c, 0, 64, 83
1, 147202, Control_c, 0, 64, 104
1, 147206, Note_off_c, 0, 66, 59
1, 147210, Note_off_c, 0, 34, 60
1, 147216, Control_c, 0, 64, 127
1, 147234, Note_off_c, 0, 59, 64
1, 147235, Note_on_c, 0, 60, 81
1, 147272, Note_on_c, 0, 35, 63
1, 147276, Note_on_c, 0, 38, 62
1, 147278, Note_off_c, 0, 60, 67
1, 147303, Note_on_c, 0, 54, 83
1, 147307, Note_off_c, 0, 38, 63
1, 147318, Note_off_c, 0, 35, 58
1, 147320, Control_c, 0, 64, 123
1, 147328, Note_off_c, 0, 54, 71
1, 147335, Control_c, 0, 64, 115
1, 147349, Control_c, 0, 64, 111
1, 147364, Control_c, 0, 64, 109
1, 147377, Note_on_c, 0, 53, 90
1, 147379, Control_c, 0, 64, 107
1, 147394, Control_c, 0, 64, 106
1, 147400, Note_on_c, 0, 39, 58
1, 147401, Note_on_c, 0, 36, 56
1, 147409, Control_c, 0, 64, 105
1, 147424, Control_c, 0, 64, 104
1, 147438, Control_c, 0, 64, 104
1, 147440, Note_off_c, 0, 39, 58
1, 147448, Note_on_c, 0, 46, 84
1, 147452, Note_off_c, 0, 53, 61
1, 147468, Control_c, 0, 64, 104
1, 147469, Note_off_c, 0, 36, 48
1, 147483, Control_c, 0, 64, 106
1, 147498, Control_c, 0, 64, 108
1, 147512, Control_c, 0, 64, 111
1, 147516, Note_on_c, 0, 35, 66
1, 147527, Control_c, 0, 64, 113
1, 147538, Note_on_c, 0, 47, 63
1, 147541, Note_off_c, 0, 46, 64
1, 147542, Control_c, 0, 64, 114
1, 147550, Note_on_c, 0, 38, 26
1, 147550, Note_off_c, 0, 35, 61
1, 147556, Control_c, 0, 64, 121
1, 147565, Note_on_c, 0, 41, 81
1, 147571, Note_off_c, 0, 47, 56
1, 147571, Control_c, 0, 64, 127
1, 147590, Note_off_c, 0, 38, 49
1, 147601, Control_c, 0, 64, 112
1, 147602, Note_off_c, 0, 41, 66
1, 147616, Control_c, 0, 64, 71
1, 147631, Control_c, 0, 64, 0
1, 147637, Note_on_c, 0, 41, 90
1, 147645, Note_on_c, 0, 48, 93
1, 147651, Note_on_c, 0, 36, 78
1, 147653, Note_on_c, 0, 33, 77
1, 147695, Note_off_c, 0, 36, 63
1, 147702, Note_off_c, 0, 41, 65
1, 147712, Control_c, 0, 64, 60
1, 147727, Control_c, 0, 64, 69
1, 147728, Note_off_c, 0, 48, 65
1, 147729, Note_off_c, 0, 33, 57
1, 147743, Control_c, 0, 64, 81
1, 147758, Control_c, 0, 64, 97
1, 147773, Control_c, 0, 64, 109
1, 147788, Control_c, 0, 64, 110
1, 147803, Control_c, 0, 64, 108
1, 147817, Note_on_c, 0, 32, 61
1, 147825, Note_on_c, 0, 35, 50
1, 147832, Control_c, 0, 64, 109
1, 147847, Control_c, 0, 64, 111
1, 147863, Note_off_c, 0, 35, 58
1, 147877, Note_off_c, 0, 32, 52
1, 147906, Control_c, 0, 64, 110
1, 147921, Control_c, 0, 64, 109
1, 147933, Note_on_c, 0, 59, 101
1, 147935, Control_c, 0, 64, 107
1, 147947, Note_on_c, 0, 31, 57
1, 147950, Control_c, 0, 64, 106
1, 147951, Note_on_c, 0, 34, 64
1, 147982, Note_off_c, 0, 31, 64
1, 147983, Note_off_c, 0, 34, 60
1, 147985, Note_off_c, 0, 59, 65
1, 148024, Control_c, 0, 64, 106
1, 148039, Control_c, 0, 64, 104
1, 148054, Control_c, 0, 64, 102
1, 148060, Note_on_c, 0, 30, 66
1, 148065, Note_on_c, 0, 33, 64
1, 148069, Control_c, 0, 64, 98
1, 148084, Control_c, 0, 64, 87
1, 148099, Control_c, 0, 64, 71
1, 148106, Note_off_c, 0, 33, 61
1, 148114, Control_c, 0, 64, 49
1, 148120, Note_off_c, 0, 30, 59
1, 148128, Note_on_c, 0, 57, 92
1, 148128, Control_c, 0, 64, 0
1, 148157, Note_off_c, 0, 57, 66
1, 148198, Note_on_c, 0, 60, 105
1, 148200, Note_on_c, 0, 29, 71
1, 148206, Note_on_c, 0, 32, 69
1, 148217, Control_c, 0, 64, 39
1, 148227, Note_off_c, 0, 60, 69
1, 148232, Control_c, 0, 64, 65
1, 148244, Note_off_c, 0, 32, 59
1, 148247, Control_c, 0, 64, 74
1, 148261, Control_c, 0, 64, 97
1, 148276, Control_c, 0, 64, 127
1, 148333, Note_off_c, 0, 29, 0
1, 148340, Note_on_c, 0, 33, 66
1, 148349, Note_on_c, 0, 30, 57
1, 148355, Note_on_c, 0, 41, 92
1, 148360, Note_on_c, 0, 48, 84
1, 148373, Note_off_c, 0, 33, 64
1, 148374, Poly_aftertouch_c, 0, 29, 0
1, 148384, Note_off_c, 0, 41, 65
1, 148389, Note_off_c, 0, 30, 61
1, 148402, Note_off_c, 0, 48, 60
1, 148447, Control_c, 0, 64, 109
1, 148461, Control_c, 0, 64, 81
1, 148476, Control_c, 0, 64, 66
1, 148491, Control_c, 0, 64, 51
1, 148498, Note_on_c, 0, 31, 65
1, 148500, Note_on_c, 0, 41, 99
1, 148501, Note_on_c, 0, 34, 64
1, 148504, Note_on_c, 0, 48, 88
1, 148506, Control_c, 0, 64, 0
1, 148534, Note_off_c, 0, 41, 63
1, 148536, Note_off_c, 0, 34, 63
1, 148540, Note_off_c, 0, 48, 63
1, 148543, Note_off_c, 0, 31, 63
1, 148632, Note_on_c, 0, 41, 99
1, 148632, Note_on_c, 0, 48, 97
1, 148635, Note_on_c, 0, 32, 72
1, 148637, Note_on_c, 0, 35, 72
1, 148665, Note_off_c, 0, 35, 63
1, 148669, Note_off_c, 0, 41, 65
1, 148680, Note_off_c, 0, 48, 64
1, 148697, Note_off_c, 0, 32, 52
1, 148768, Note_on_c, 0, 41, 109
1, 148770, Note_on_c, 0, 48, 112
1, 148776, Note_on_c, 0, 33, 81
1, 148776, Note_on_c, 0, 36, 86
1, 148788, Control_c, 0, 64, 63
1, 148800, Note_off_c, 0, 41, 66
1, 148802, Control_c, 0, 64, 70
1, 148807, Note_off_c, 0, 48, 67
1, 148817, Control_c, 0, 64, 83
1, 148823, Note_off_c, 0, 36, 57
1, 148832, Control_c, 0, 64, 104
1, 148838, Note_off_c, 0, 33, 58
1, 148847, Control_c, 0, 64, 127
1, 148921, Note_on_c, 0, 32, 66
1, 148923, Note_on_c, 0, 35, 69
1, 148963, Note_off_c, 0, 35, 61
1, 148978, Note_off_c, 0, 32, 57
1, 149062, Note_on_c, 0, 31, 67
1, 149068, Note_on_c, 0, 34, 63
1, 149071, Note_on_c, 0, 59, 98
1, 149098, Note_off_c, 0, 34, 64
1, 149109, Note_off_c, 0, 31, 63
1, 149129, Control_c, 0, 64, 112
1, 149143, Control_c, 0, 64, 104
1, 149146, Note_off_c, 0, 59, 56
1, 149158, Control_c, 0, 64, 97
1, 149181, Control_c, 0, 64, 92
1, 149195, Note_on_c, 0, 33, 69
1, 149196, Control_c, 0, 64, 87
1, 149196, Note_on_c, 0, 30, 69
1, 149210, Control_c, 0, 64, 81
1, 149225, Control_c, 0, 64, 70
1, 149235, Note_off_c, 0, 33, 63
1, 149240, Control_c, 0, 64, 51
1, 149253, Note_off_c, 0, 30, 59
1, 149255, Control_c, 0, 64, 0
1, 149278, Note_on_c, 0, 57, 88
1, 149315, Note_off_c, 0, 57, 64
1, 149340, Note_on_c, 0, 32, 69
1, 149341, Note_on_c, 0, 29, 72
1, 149347, Note_on_c, 0, 60, 100
1, 149375, Control_c, 0, 64, 60
1, 149380, Note_off_c, 0, 60, 64
1, 149381, Note_off_c, 0, 32, 62
1, 149389, Control_c, 0, 64, 66
1, 149404, Control_c, 0, 64, 70
1, 149419, Control_c, 0, 64, 73
1, 149433, Control_c, 0, 64, 76
1, 149448, Control_c, 0, 64, 79
1, 149463, Control_c, 0, 64, 81
1, 149472, Note_off_c, 0, 29, 36
1, 149478, Control_c, 0, 64, 85
1, 149490, Note_on_c, 0, 30, 67
1, 149491, Note_on_c, 0, 33, 67
1, 149493, Control_c, 0, 64, 88
1, 149502, Note_on_c, 0, 41, 86
1, 149505, Note_on_c, 0, 48, 81
1, 149507, Control_c, 0, 64, 88
1, 149522, Control_c, 0, 64, 87
1, 149531, Note_off_c, 0, 33, 62
1, 149532, Note_off_c, 0, 41, 66
1, 149533, Note_off_c, 0, 30, 62
1, 149537, Control_c, 0, 64, 86
1, 149551, Note_off_c, 0, 48, 61
1, 149552, Control_c, 0, 64, 85
1, 149567, Control_c, 0, 64, 83
1, 149581, Control_c, 0, 64, 82
1, 149596, Control_c, 0, 64, 80
1, 149611, Control_c, 0, 64, 76
1, 149625, Control_c, 0, 64, 70
1, 149636, Note_on_c, 0, 41, 82
1, 149637, Note_on_c, 0, 31, 56
1, 149639, Note_on_c, 0, 34, 65
1, 149640, Control_c, 0, 64, 65
1, 149641, Note_on_c, 0, 48, 86
1, 149655, Control_c, 0, 64, 60
1, 149670, Control_c, 0, 64, 59
1, 149680, Note_off_c, 0, 41, 64
1, 149682, Note_off_c, 0, 34, 57
1, 149685, Control_c, 0, 64, 58
1, 149692, Note_off_c, 0, 31, 61
1, 149697, Note_off_c, 0, 48, 61
1, 149700, Control_c, 0, 64, 53
1, 149714, Control_c, 0, 64, 49
1, 149729, Control_c, 0, 64, 47
1, 149768, Note_on_c, 0, 41, 90
1, 149774, Note_on_c, 0, 48, 85
1, 149774, Control_c, 0, 64, 47
1, 149774, Note_on_c, 0, 32, 62
1, 149777, Note_on_c, 0, 35, 60
1, 149789, Control_c, 0, 64, 46
1, 149795, Note_off_c, 0, 41, 68
1, 149804, Control_c, 0, 64, 44
1, 149808, Note_off_c, 0, 35, 62
1, 149812, Note_off_c, 0, 32, 64
1, 149817, Note_off_c, 0, 48, 60
1, 149818, Control_c, 0, 64, 42
1, 149833, Control_c, 0, 64, 40
1, 149848, Control_c, 0, 64, 39
1, 149893, Control_c, 0, 64, 40
1, 149907, Note_on_c, 0, 33, 68
1, 149907, Control_c, 0, 64, 48
1, 149910, Note_on_c, 0, 48, 83
1, 149911, Note_on_c, 0, 36, 65
1, 149911, Note_on_c, 0, 41, 66
1, 149929, Control_c, 0, 64, 57
1, 149944, Control_c, 0, 64, 63
1, 149956, Note_off_c, 0, 36, 64
1, 149956, Note_off_c, 0, 33, 63
1, 149959, Control_c, 0, 64, 66
1, 149974, Note_off_c, 0, 48, 63
1, 149974, Control_c, 0, 64, 70
1, 149983, Note_on_c, 0, 59, 71
1, 149989, Control_c, 0, 64, 75
1, 150004, Control_c, 0, 64, 82
1, 150019, Control_c, 0, 64, 88
1, 150033, Control_c, 0, 64, 95
1, 150042, Note_on_c, 0, 57, 80
1, 150043, Note_on_c, 0, 32, 68
1, 150048, Control_c, 0, 64, 100
1, 150057, Note_on_c, 0, 35, 63
1, 150063, Control_c, 0, 64, 106
1, 150068, Note_off_c, 0, 59, 53
1, 150078, Control_c, 0, 64, 107
1, 150094, Note_off_c, 0, 35, 62
1, 150099, Note_off_c, 0, 32, 61
1, 150107, Note_on_c, 0, 60, 80
1, 150107, Note_off_c, 0, 57, 67
1, 150107, Control_c, 0, 64, 107
1, 150129, Note_off_c, 0, 60, 71
1, 150159, Note_off_c, 0, 41, 0
1, 150168, Control_c, 0, 64, 106
1, 150182, Note_on_c, 0, 31, 67
1, 150182, Note_on_c, 0, 34, 74
1, 150182, Note_on_c, 0, 60, 89
1, 150182, Control_c, 0, 64, 104
1, 150197, Control_c, 0, 64, 103
1, 150212, Control_c, 0, 64, 102
1, 150223, Poly_aftertouch_c, 0, 41, 0
1, 150225, Note_off_c, 0, 34, 61
1, 150227, Control_c, 0, 64, 101
1, 150228, Note_off_c, 0, 31, 62
1, 150242, Control_c, 0, 64, 100
1, 150243, Note_off_c, 0, 60, 62
1, 150251, Note_on_c, 0, 71, 83
1, 150256, Control_c, 0, 64, 99
1, 150271, Control_c, 0, 64, 97
1, 150286, Control_c, 0, 64, 96
1, 150301, Control_c, 0, 64, 95
1, 150311, Note_on_c, 0, 69, 79
1, 150316, Control_c, 0, 64, 94
1, 150318, Note_on_c, 0, 30, 69
1, 150330, Control_c, 0, 64, 93
1, 150336, Note_on_c, 0, 33, 62
1, 150337, Note_off_c, 0, 71, 53
1, 150345, Control_c, 0, 64, 92
1, 150360, Control_c, 0, 64, 91
1, 150365, Note_off_c, 0, 30, 61
1, 150368, Note_off_c, 0, 69, 65
1, 150370, Note_on_c, 0, 72, 89
1, 150372, Note_off_c, 0, 33, 63
1, 150375, Control_c, 0, 64, 89
1, 150388, Note_off_c, 0, 72, 75
1, 150390, Control_c, 0, 64, 87
1, 150404, Control_c, 0, 64, 86
1, 150434, Control_c, 0, 64, 86
1, 150445, Note_on_c, 0, 29, 69
1, 150445, Note_on_c, 0, 72, 87
1, 150446, Note_on_c, 0, 32, 67
1, 150448, Control_c, 0, 64, 84
1, 150463, Control_c, 0, 64, 81
1, 150478, Control_c, 0, 64, 78
1, 150485, Note_off_c, 0, 32, 59
1, 150493, Control_c, 0, 64, 77
1, 150494, Note_off_c, 0, 29, 59
1, 150505, Note_off_c, 0, 72, 64
1, 150510, Note_on_c, 0, 83, 85
1, 150572, Note_on_c, 0, 30, 68
1, 150573, Note_on_c, 0, 81, 84
1, 150587, Note_on_c, 0, 33, 62
1, 150592, Note_off_c, 0, 83, 54
1, 150608, Note_off_c, 0, 30, 64
1, 150612, Control_c, 0, 64, 77
1, 150619, Note_off_c, 0, 33, 63
1, 150625, Note_off_c, 0, 81, 67
1, 150627, Control_c, 0, 64, 78
1, 150630, Note_on_c, 0, 84, 90
1, 150642, Control_c, 0, 64, 78
1, 150646, Note_off_c, 0, 84, 74
1, 150656, Control_c, 0, 64, 79
1, 150693, Control_c, 0, 64, 80
1, 150704, Note_on_c, 0, 34, 69
1, 150706, Note_on_c, 0, 31, 66
1, 150713, Note_on_c, 0, 84, 88
1, 150740, Note_off_c, 0, 34, 61
1, 150752, Control_c, 0, 64, 80
1, 150755, Note_off_c, 0, 31, 60
1, 150764, Note_off_c, 0, 84, 62
1, 150780, Note_on_c, 0, 95, 87
1, 150797, Control_c, 0, 64, 81
1, 150826, Control_c, 0, 64, 81
1, 150832, Note_on_c, 0, 32, 54
1, 150838, Note_on_c, 0, 93, 80
1, 150844, Note_off_c, 0, 95, 64
1, 150847, Note_on_c, 0, 35, 47
1, 150877, Note_off_c, 0, 32, 56
1, 150884, Note_off_c, 0, 35, 50
1, 150886, Control_c, 0, 64, 78
1, 150894, Note_off_c, 0, 93, 66
1, 150901, Control_c, 0, 64, 69
1, 150904, Note_on_c, 0, 96, 107
1, 150916, Control_c, 0, 64, 52
1, 150931, Control_c, 0, 64, 0
1, 150934, Note_off_c, 0, 96, 61
1, 150961, Control_c, 0, 64, 31
1, 150961, Note_on_c, 0, 33, 82
1, 150966, Note_on_c, 0, 36, 75
1, 150969, Note_on_c, 0, 96, 90
1, 150975, Control_c, 0, 64, 56
1, 150990, Control_c, 0, 64, 66
1, 151005, Control_c, 0, 64, 75
1, 151015, Note_off_c, 0, 96, 62
1, 151020, Control_c, 0, 64, 91
1, 151026, Note_off_c, 0, 36, 58
1, 151035, Control_c, 0, 64, 121
1, 151044, Note_on_c, 0, 84, 82
1, 151050, Control_c, 0, 64, 127
1, 151075, Note_off_c, 0, 33, 54
1, 151075, Note_off_c, 0, 84, 63
1, 151097, Note_on_c, 0, 32, 63
1, 151118, Note_on_c, 0, 96, 79
1, 151128, Note_on_c, 0, 35, 48
1, 151141, Note_off_c, 0, 96, 70
1, 151168, Note_off_c, 0, 32, 59
1, 151188, Note_on_c, 0, 96, 78
1, 151193, Note_off_c, 0, 35, 50
1, 151211, Note_off_c, 0, 96, 68
1, 151227, Control_c, 0, 64, 123
1, 151235, Note_on_c, 0, 33, 59
1, 151242, Note_on_c, 0, 36, 60
1, 151270, Poly_aftertouch_c, 0, 96, 0
1, 151271, Control_c, 0, 64, 127
1, 151281, Note_off_c, 0, 36, 63
1, 151317, Note_on_c, 0, 95, 88
1, 151341, Note_off_c, 0, 95, 67
1, 151352, Note_off_c, 0, 33, 53
1, 151368, Note_on_c, 0, 32, 59
1, 151380, Note_on_c, 0, 35, 52
1, 151385, Note_on_c, 0, 96, 83
1, 151405, Note_off_c, 0, 96, 70
1, 151429, Note_off_c, 0, 32, 60
1, 151429, Note_off_c, 0, 35, 57
1, 151462, Note_on_c, 0, 96, 98
1, 151472, Control_c, 0, 64, 87
1, 151486, Control_c, 0, 64, 63
1, 151491, Note_on_c, 0, 33, 83
1, 151497, Note_on_c, 0, 36, 74
1, 151501, Note_off_c, 0, 96, 66
1, 151501, Control_c, 0, 64, 42
1, 151516, Control_c, 0, 64, 58
1, 151530, Control_c, 0, 64, 68
1, 151533, Note_on_c, 0, 96, 86
1, 151545, Note_off_c, 0, 36, 57
1, 151545, Control_c, 0, 64, 79
1, 151560, Note_on_c, 0, 94, 50
1, 151560, Control_c, 0, 64, 115
1, 151575, Control_c, 0, 64, 127
1, 151577, Note_off_c, 0, 96, 66
1, 151585, Note_off_c, 0, 94, 39
1, 151607, Note_on_c, 0, 86, 53
1, 151630, Note_on_c, 0, 32, 67
1, 151637, Note_off_c, 0, 86, 66
1, 151642, Note_on_c, 0, 35, 56
1, 151646, Note_off_c, 0, 33, 0
1, 151665, Poly_aftertouch_c, 0, 33, 0
1, 151676, Note_on_c, 0, 96, 66
1, 151698, Note_off_c, 0, 96, 65
1, 151700, Note_off_c, 0, 35, 50
1, 151710, Note_off_c, 0, 32, 50
1, 151733, Note_on_c, 0, 96, 87
1, 151758, Note_off_c, 0, 96, 68
1, 151774, Note_on_c, 0, 33, 58
1, 151776, Note_on_c, 0, 36, 59
1, 151811, Note_on_c, 0, 96, 80
1, 151820, Note_off_c, 0, 36, 60
1, 151833, Note_off_c, 0, 96, 71
1, 151878, Note_on_c, 0, 95, 83
1, 151899, Note_on_c, 0, 96, 69
1, 151901, Note_off_c, 0, 95, 68
1, 151937, Note_off_c, 0, 33, 40
1, 151948, Poly_aftertouch_c, 0, 35, 127
1, 151966, Note_off_c, 0, 96, 68
1, 151996, Poly_aftertouch_c, 0, 35, 0
1, 152082, Note_on_c, 0, 72, 91
1, 152094, Note_on_c, 0, 36, 72
1, 152108, Control_c, 0, 64, 94
1, 152123, Control_c, 0, 64, 69
1, 152134, Note_on_c, 0, 41, 34
1, 152138, Note_off_c, 0, 36, 55
1, 152138, Control_c, 0, 64, 52
1, 152153, Control_c, 0, 64, 26
1, 152161, Note_off_c, 0, 72, 61
1, 152172, Note_on_c, 0, 73, 77
1, 152175, Control_c, 0, 64, 22
1, 152179, Note_off_c, 0, 41, 57
1, 152190, Control_c, 0, 64, 11
1, 152205, Control_c, 0, 64, 0
1, 152236, Note_off_c, 0, 73, 60
1, 152238, Note_on_c, 0, 72, 78
1, 152259, Note_on_c, 0, 41, 53
1, 152260, Note_on_c, 0, 36, 45
1, 152266, Note_on_c, 0, 33, 25
1, 152288, Note_off_c, 0, 41, 57
1, 152290, Note_off_c, 0, 72, 62
1, 152296, Note_off_c, 0, 36, 58
1, 152314, Note_off_c, 0, 33, 47
1, 152324, Note_on_c, 0, 73, 68
1, 152367, Note_off_c, 0, 73, 63
1, 152388, Note_on_c, 0, 41, 50
1, 152391, Note_on_c, 0, 72, 71
1, 152393, Note_on_c, 0, 36, 53
1, 152414, Note_on_c, 0, 33, 46
1, 152423, Note_off_c, 0, 41, 64
1, 152435, Note_off_c, 0, 72, 60
1, 152436, Note_off_c, 0, 36, 61
1, 152448, Note_off_c, 0, 33, 57
1, 152465, Note_on_c, 0, 73, 69
1, 152508, Note_off_c, 0, 73, 62
1, 152528, Note_on_c, 0, 41, 56
1, 152534, Note_on_c, 0, 72, 70
1, 152540, Note_on_c, 0, 36, 52
1, 152545, Note_on_c, 0, 33, 49
1, 152567, Note_off_c, 0, 41, 63
1, 152579, Note_off_c, 0, 36, 63
1, 152582, Note_off_c, 0, 33, 63
1, 152585, Note_off_c, 0, 72, 60
1, 152612, Note_on_c, 0, 73, 67
1, 152653, Note_off_c, 0, 73, 63
1, 152663, Note_on_c, 0, 41, 72
1, 152668, Note_on_c, 0, 36, 63
1, 152672, Note_on_c, 0, 33, 62
1, 152680, Note_on_c, 0, 72, 68
1, 152705, Note_off_c, 0, 41, 66
1, 152710, Note_off_c, 0, 36, 64
1, 152713, Note_off_c, 0, 33, 63
1, 152737, Note_off_c, 0, 72, 61
1, 152759, Note_on_c, 0, 73, 66
1, 152792, Note_off_c, 0, 73, 62
1, 152800, Note_on_c, 0, 41, 83
1, 152805, Note_on_c, 0, 36, 67
1, 152808, Note_on_c, 0, 33, 63
1, 152821, Note_on_c, 0, 72, 69
1, 152840, Note_off_c, 0, 41, 65
1, 152845, Note_off_c, 0, 36, 63
1, 152850, Note_off_c, 0, 33, 63
1, 152874, Note_off_c, 0, 72, 61
1, 152893, Note_on_c, 0, 73, 70
1, 152944, Note_on_c, 0, 41, 84
1, 152946, Note_off_c, 0, 73, 63
1, 152952, Note_on_c, 0, 33, 66
1, 152952, Note_on_c, 0, 36, 71
1, 152970, Note_on_c, 0, 72, 64
1, 152977, Note_off_c, 0, 41, 67
1, 152988, Note_off_c, 0, 36, 66
1, 152990, Note_off_c, 0, 33, 65
1, 153003, Note_off_c, 0, 72, 65
1, 153015, Note_on_c, 0, 73, 69
1, 153028, Control_c, 0, 64, 11
1, 153043, Control_c, 0, 64, 12
1, 153057, Control_c, 0, 64, 15
1, 153058, Note_off_c, 0, 73, 62
1, 153072, Control_c, 0, 64, 16
1, 153076, Note_on_c, 0, 41, 84
1, 153079, Note_on_c, 0, 72, 71
1, 153081, Note_on_c, 0, 36, 68
1, 153085, Note_on_c, 0, 33, 64
1, 153087, Control_c, 0, 64, 17
1, 153114, Note_off_c, 0, 41, 65
1, 153117, Control_c, 0, 64, 16
1, 153119, Note_off_c, 0, 72, 65
1, 153121, Note_off_c, 0, 36, 64
1, 153122, Note_on_c, 0, 73, 78
1, 153124, Note_off_c, 0, 33, 64
1, 153131, Control_c, 0, 64, 0
1, 153148, Note_on_c, 0, 74, 68
1, 153168, Note_on_c, 0, 75, 54
1, 153190, Note_off_c, 0, 74, 59
1, 153199, Note_on_c, 0, 41, 93
1, 153200, Note_off_c, 0, 75, 65
1, 153202, Note_on_c, 0, 33, 85
1, 153211, Note_on_c, 0, 36, 70
1, 153238, Note_off_c, 0, 41, 65
1, 153242, Note_off_c, 0, 73, 65
1, 153244, Note_on_c, 0, 72, 76
1, 153245, Note_off_c, 0, 36, 67
1, 153250, Control_c, 0, 64, 59
1, 153265, Control_c, 0, 64, 67
1, 153280, Control_c, 0, 64, 75
1, 153295, Control_c, 0, 64, 89
1, 153309, Note_off_c, 0, 33, 39
1, 153309, Control_c, 0, 64, 104
1, 153312, Note_off_c, 0, 72, 62
1, 153318, Note_on_c, 0, 73, 73
1, 153325, Control_c, 0, 64, 116
1, 153340, Control_c, 0, 64, 119
1, 153360, Note_on_c, 0, 37, 60
1, 153371, Note_off_c, 0, 73, 62
1, 153372, Note_on_c, 0, 42, 65
1, 153375, Note_on_c, 0, 72, 75
1, 153375, Note_on_c, 0, 34, 51
1, 153406, Note_off_c, 0, 42, 64
1, 153414, Control_c, 0, 64, 118
1, 153417, Note_off_c, 0, 37, 60
1, 153418, Note_off_c, 0, 34, 59
1, 153429, Control_c, 0, 64, 111
1, 153435, Note_off_c, 0, 72, 63
1, 153444, Control_c, 0, 64, 101
1, 153444, Note_on_c, 0, 73, 68
1, 153459, Control_c, 0, 64, 89
1, 153473, Control_c, 0, 64, 75
1, 153488, Control_c, 0, 64, 65
1, 153491, Note_off_c, 0, 73, 59
1, 153500, Note_on_c, 0, 42, 73
1, 153503, Control_c, 0, 64, 54
1, 153509, Note_on_c, 0, 34, 56
1, 153511, Note_on_c, 0, 72, 71
1, 153518, Control_c, 0, 64, 19
1, 153525, Note_on_c, 0, 37, 57
1, 153533, Control_c, 0, 64, 0
1, 153541, Note_off_c, 0, 42, 62
1, 153557, Note_off_c, 0, 34, 60
1, 153560, Note_off_c, 0, 37, 62
1, 153571, Note_off_c, 0, 72, 62
1, 153585, Note_on_c, 0, 73, 76
1, 153640, Note_off_c, 0, 73, 62
1, 153656, Note_on_c, 0, 42, 83
1, 153657, Note_on_c, 0, 72, 75
1, 153658, Note_on_c, 0, 37, 68
1, 153660, Note_on_c, 0, 34, 65
1, 153696, Note_off_c, 0, 42, 67
1, 153715, Note_off_c, 0, 37, 61
1, 153715, Note_off_c, 0, 34, 62
1, 153723, Note_off_c, 0, 72, 63
1, 153729, Note_on_c, 0, 73, 82
1, 153784, Note_off_c, 0, 73, 63
1, 153795, Note_on_c, 0, 42, 96
1, 153798, Note_on_c, 0, 72, 87
1, 153801, Note_on_c, 0, 34, 82
1, 153802, Note_on_c, 0, 37, 82
1, 153820, Control_c, 0, 64, 51
1, 153835, Control_c, 0, 64, 65
1, 153845, Note_off_c, 0, 42, 63
1, 153850, Control_c, 0, 64, 68
1, 153861, Note_off_c, 0, 37, 61
1, 153865, Note_off_c, 0, 72, 64
1, 153865, Control_c, 0, 64, 73
1, 153869, Note_off_c, 0, 34, 62
1, 153871, Note_on_c, 0, 73, 81
1, 153879, Control_c, 0, 64, 80
1, 153894, Control_c, 0, 64, 87
1, 153909, Control_c, 0, 64, 93
1, 153924, Control_c, 0, 64, 95
1, 153937, Note_off_c, 0, 73, 62
1, 153947, Note_on_c, 0, 43, 78
1, 153948, Note_on_c, 0, 38, 69
1, 153950, Note_on_c, 0, 72, 79
1, 153956, Note_on_c, 0, 35, 65
1, 153968, Control_c, 0, 64, 94
1, 153981, Note_off_c, 0, 43, 66
1, 153983, Control_c, 0, 64, 93
1, 153991, Note_off_c, 0, 35, 62
1, 153993, Note_off_c, 0, 38, 62
1, 153998, Control_c, 0, 64, 91
1, 154001, Note_off_c, 0, 72, 63
1, 154013, Control_c, 0, 64, 87
1, 154025, Note_on_c, 0, 73, 70
1, 154028, Control_c, 0, 64, 83
1, 154043, Control_c, 0, 64, 76
1, 154058, Control_c, 0, 64, 70
1, 154072, Control_c, 0, 64, 64
1, 154073, Note_off_c, 0, 73, 60
1, 154087, Control_c, 0, 64, 58
1, 154094, Note_on_c, 0, 43, 73
1, 154099, Note_on_c, 0, 35, 54
1, 154099, Note_on_c, 0, 72, 69
1, 154102, Control_c, 0, 64, 55
1, 154102, Note_on_c, 0, 38, 56
1, 154117, Control_c, 0, 64, 54
1, 154127, Note_off_c, 0, 43, 65
1, 154132, Control_c, 0, 64, 50
1, 154138, Note_off_c, 0, 35, 62
1, 154138, Note_off_c, 0, 38, 63
1, 154144, Note_off_c, 0, 72, 63
1, 154147, Control_c, 0, 64, 45
1, 154157, Note_on_c, 0, 73, 72
1, 154162, Control_c, 0, 64, 37
1, 154177, Control_c, 0, 64, 16
1, 154192, Control_c, 0, 64, 0
1, 154203, Note_off_c, 0, 73, 61
1, 154225, Note_on_c, 0, 72, 70
1, 154231, Note_on_c, 0, 38, 66
1, 154231, Note_on_c, 0, 43, 64
1, 154245, Note_on_c, 0, 35, 48
1, 154261, Note_off_c, 0, 43, 64
1, 154261, Note_off_c, 0, 72, 63
1, 154269, Note_on_c, 0, 73, 74
1, 154272, Note_off_c, 0, 38, 62
1, 154278, Note_off_c, 0, 35, 59
1, 154308, Note_on_c, 0, 74, 66
1, 154314, Note_off_c, 0, 73, 60
1, 154332, Note_on_c, 0, 75, 62
1, 154355, Note_on_c, 0, 73, 71
1, 154358, Note_on_c, 0, 43, 84
1, 154359, Note_on_c, 0, 38, 79
1, 154361, Note_on_c, 0, 35, 79
1, 154361, Note_off_c, 0, 75, 63
1, 154364, Note_off_c, 0, 74, 62
1, 154393, Note_off_c, 0, 43, 64
1, 154397, Note_on_c, 0, 72, 83
1, 154398, Note_off_c, 0, 73, 64
1, 154399, Control_c, 0, 64, 62
1, 154421, Control_c, 0, 64, 65
1, 154436, Control_c, 0, 64, 67
1, 154437, Note_off_c, 0, 38, 55
1, 154451, Control_c, 0, 64, 71
1, 154466, Control_c, 0, 64, 75
1, 154475, Note_off_c, 0, 72, 63
1, 154477, Note_on_c, 0, 73, 75
1, 154479, Note_off_c, 0, 35, 59
1, 154481, Control_c, 0, 64, 79
1, 154495, Control_c, 0, 64, 80
1, 154530, Note_off_c, 0, 73, 64
1, 154539, Note_on_c, 0, 39, 56
1, 154540, Note_on_c, 0, 72, 70
1, 154543, Note_on_c, 0, 44, 63
1, 154549, Note_on_c, 0, 36, 60
1, 154569, Control_c, 0, 64, 79
1, 154577, Note_off_c, 0, 39, 62
1, 154579, Note_off_c, 0, 44, 64
1, 154584, Control_c, 0, 64, 78
1, 154596, Note_off_c, 0, 36, 56
1, 154599, Control_c, 0, 64, 76
1, 154600, Note_off_c, 0, 72, 64
1, 154608, Note_on_c, 0, 73, 68
1, 154613, Control_c, 0, 64, 74
1, 154628, Control_c, 0, 64, 71
1, 154643, Control_c, 0, 64, 69
1, 154650, Note_off_c, 0, 73, 59
1, 154658, Control_c, 0, 64, 66
1, 154673, Control_c, 0, 64, 63
1, 154675, Note_on_c, 0, 72, 66
1, 154682, Note_on_c, 0, 44, 62
1, 154687, Control_c, 0, 64, 61
1, 154691, Note_on_c, 0, 39, 48
1, 154697, Note_on_c, 0, 36, 51
1, 154702, Control_c, 0, 64, 59
1, 154716, Note_off_c, 0, 44, 65
1, 154717, Control_c, 0, 64, 56
1, 154724, Note_off_c, 0, 72, 60
1, 154732, Note_off_c, 0, 39, 63
1, 154732, Control_c, 0, 64, 52
1, 154734, Note_off_c, 0, 36, 63
1, 154739, Note_on_c, 0, 73, 73
1, 154747, Control_c, 0, 64, 47
1, 154762, Control_c, 0, 64, 43
1, 154776, Control_c, 0, 64, 39
1, 154789, Note_off_c, 0, 73, 61
1, 154791, Control_c, 0, 64, 33
1, 154793, Note_on_c, 0, 72, 71
1, 154806, Control_c, 0, 64, 27
1, 154821, Control_c, 0, 64, 21
1, 154836, Control_c, 0, 64, 11
1, 154847, Note_on_c, 0, 44, 48
1, 154848, Note_on_c, 0, 73, 76
1, 154850, Note_off_c, 0, 72, 63
1, 154851, Control_c, 0, 64, 0
1, 154852, Note_on_c, 0, 39, 38
1, 154876, Note_off_c, 0, 44, 53
1, 154887, Note_off_c, 0, 39, 57
1, 154898, Note_off_c, 0, 73, 62
1, 154913, Note_on_c, 0, 72, 67
1, 154942, Poly_aftertouch_c, 0, 36, 0
1, 154947, Note_off_c, 0, 72, 62
1, 154970, Control_c, 0, 64, 52
1, 154976, Note_on_c, 0, 44, 61
1, 154977, Note_on_c, 0, 39, 57
1, 154982, Note_on_c, 0, 71, 78
1, 154985, Control_c, 0, 64, 63
1, 155000, Control_c, 0, 64, 67
1, 155000, Note_on_c, 0, 36, 34
1, 155013, Note_off_c, 0, 44, 61
1, 155015, Control_c, 0, 64, 71
1, 155018, Note_off_c, 0, 39, 61
1, 155029, Control_c, 0, 64, 78
1, 155039, Note_off_c, 0, 36, 53
1, 155044, Control_c, 0, 64, 86
1, 155044, Note_off_c, 0, 71, 53
1, 155059, Control_c, 0, 64, 96
1, 155062, Note_on_c, 0, 72, 69
1, 155074, Control_c, 0, 64, 107
1, 155089, Control_c, 0, 64, 121
1, 155104, Control_c, 0, 64, 123
1, 155128, Note_off_c, 0, 72, 62
1, 155148, Note_on_c, 0, 71, 65
1, 155148, Control_c, 0, 64, 119
1, 155151, Note_on_c, 0, 36, 49
1, 155170, Control_c, 0, 64, 118
1, 155184, Note_on_c, 0, 39, 39
1, 155187, Note_on_c, 0, 44, 41
1, 155199, Control_c, 0, 64, 115
1, 155202, Note_off_c, 0, 36, 61
1, 155209, Note_off_c, 0, 71, 56
1, 155214, Control_c, 0, 64, 111
1, 155217, Note_off_c, 0, 44, 59
1, 155220, Note_off_c, 0, 39, 53
1, 155229, Control_c, 0, 64, 107
1, 155240, Note_on_c, 0, 72, 66
1, 155244, Control_c, 0, 64, 102
1, 155259, Control_c, 0, 64, 94
1, 155274, Control_c, 0, 64, 86
1, 155289, Control_c, 0, 64, 77
1, 155300, Note_off_c, 0, 72, 50
1, 155304, Control_c, 0, 64, 68
1, 155319, Control_c, 0, 64, 61
1, 155319, Note_on_c, 0, 71, 67
1, 155333, Control_c, 0, 64, 54
1, 155339, Note_on_c, 0, 37, 42
1, 155347, Note_on_c, 0, 45, 34
1, 155348, Control_c, 0, 64, 52
1, 155360, Note_on_c, 0, 40, 26
1, 155363, Control_c, 0, 64, 53
1, 155378, Control_c, 0, 64, 57
1, 155387, Note_off_c, 0, 71, 55
1, 155393, Control_c, 0, 64, 62
1, 155405, Note_on_c, 0, 72, 69
1, 155408, Control_c, 0, 64, 66
1, 155417, Note_off_c, 0, 45, 57
1, 155418, Note_off_c, 0, 40, 56
1, 155422, Note_off_c, 0, 37, 54
1, 155423, Control_c, 0, 64, 72
1, 155438, Control_c, 0, 64, 79
1, 155452, Control_c, 0, 64, 86
1, 155467, Control_c, 0, 64, 94
1, 155475, Note_off_c, 0, 72, 58
1, 155482, Control_c, 0, 64, 103
1, 155488, Note_on_c, 0, 71, 71
1, 155497, Control_c, 0, 64, 127
1, 155527, Note_on_c, 0, 37, 48
1, 155533, Note_off_c, 0, 71, 51
1, 155551, Note_on_c, 0, 45, 29
1, 155557, Note_on_c, 0, 40, 37
1, 155574, Note_on_c, 0, 72, 68
1, 155580, Note_off_c, 0, 37, 57
1, 155590, Note_off_c, 0, 45, 51
1, 155592, Note_off_c, 0, 40, 51
1, 155643, Note_on_c, 0, 71, 78
1, 155649, Note_off_c, 0, 72, 62
1, 155677, Note_off_c, 0, 71, 63
1, 155756, Note_on_c, 0, 38, 59
1, 155809, Control_c, 0, 64, 94
1, 155823, Control_c, 0, 64, 72
1, 155828, Note_on_c, 0, 70, 83
1, 155838, Control_c, 0, 64, 57
1, 155853, Control_c, 0, 64, 40
1, 155867, Control_c, 0, 64, 48
1, 155882, Control_c, 0, 64, 57
1, 155897, Control_c, 0, 64, 64
1, 155920, Control_c, 0, 64, 69
1, 155927, Note_off_c, 0, 38, 62
1, 155935, Control_c, 0, 64, 78
1, 155942, Note_off_c, 0, 70, 61
1, 155949, Control_c, 0, 64, 90
1, 155951, Note_on_c, 0, 65, 63
1, 155964, Control_c, 0, 64, 100
1, 155979, Control_c, 0, 64, 102
1, 156025, Note_off_c, 0, 65, 60
1, 156037, Note_on_c, 0, 69, 71
1, 156065, Note_off_c, 0, 69, 64
1, 156103, Note_on_c, 0, 57, 75
1, 156112, Control_c, 0, 64, 103
1, 156127, Control_c, 0, 64, 104
1, 156144, Note_off_c, 0, 57, 61
1, 156156, Control_c, 0, 64, 104
1, 156171, Control_c, 0, 64, 105
1, 156175, Note_on_c, 0, 69, 82
1, 156177, Note_on_c, 0, 58, 66
1, 156186, Control_c, 0, 64, 106
1, 156201, Control_c, 0, 64, 108
1, 156216, Control_c, 0, 64, 113
1, 156221, Note_off_c, 0, 69, 65
1, 156231, Control_c, 0, 64, 119
1, 156236, Note_off_c, 0, 58, 51
1, 156246, Control_c, 0, 64, 127
1, 156258, Note_on_c, 0, 53, 66
1, 156320, Note_off_c, 0, 53, 62
1, 156336, Note_on_c, 0, 70, 90
1, 156352, Note_on_c, 0, 57, 69
1, 156357, Note_on_c, 0, 50, 47
1, 156377, Note_off_c, 0, 57, 67
1, 156392, Note_off_c, 0, 50, 64
1, 156405, Note_off_c, 0, 70, 61
1, 156453, Control_c, 0, 64, 89
1, 156467, Control_c, 0, 64, 61
1, 156482, Control_c, 0, 64, 0
1, 156489, Note_on_c, 0, 71, 92
1, 156490, Note_on_c, 0, 39, 75
1, 156513, Control_c, 0, 64, 48
1, 156528, Control_c, 0, 64, 61
1, 156536, Note_off_c, 0, 39, 61
1, 156543, Control_c, 0, 64, 70
1, 156557, Control_c, 0, 64, 85
1, 156571, Note_off_c, 0, 71, 50
1, 156572, Control_c, 0, 64, 127
1, 156581, Note_on_c, 0, 65, 48
1, 156671, Note_on_c, 0, 69, 77
1, 156677, Note_off_c, 0, 65, 61
1, 156737, Note_off_c, 0, 69, 59
1, 156741, Note_on_c, 0, 58, 68
1, 156792, Note_off_c, 0, 58, 64
1, 156794, Note_on_c, 0, 59, 57
1, 156810, Note_on_c, 0, 71, 91
1, 156834, Note_off_c, 0, 71, 64
1, 156847, Note_off_c, 0, 59, 57
1, 156880, Note_on_c, 0, 53, 66
1, 156928, Note_off_c, 0, 53, 61
1, 156958, Poly_aftertouch_c, 0, 70, 127
1, 156964, Note_on_c, 0, 57, 64
1, 156997, Poly_aftertouch_c, 0, 70, 0
1, 157003, Note_off_c, 0, 57, 63
1, 157015, Note_on_c, 0, 47, 67
1, 157049, Note_off_c, 0, 47, 66
1, 157098, Control_c, 0, 64, 72
1, 157113, Control_c, 0, 64, 0
1, 157121, Note_on_c, 0, 77, 93
1, 157122, Note_on_c, 0, 40, 87
1, 157158, Control_c, 0, 64, 50
1, 157172, Control_c, 0, 64, 65
1, 157187, Control_c, 0, 64, 79
1, 157189, Note_off_c, 0, 40, 62
1, 157202, Control_c, 0, 64, 127
1, 157211, Note_on_c, 0, 69, 72
1, 157215, Note_off_c, 0, 77, 57
1, 157285, Note_on_c, 0, 71, 65
1, 157285, Note_off_c, 0, 69, 64
1, 157331, Note_off_c, 0, 71, 62
1, 157355, Note_on_c, 0, 65, 68
1, 157429, Note_on_c, 0, 53, 86
1, 157439, Note_off_c, 0, 65, 59
1, 157443, Note_on_c, 0, 70, 79
1, 157501, Note_off_c, 0, 70, 61
1, 157513, Note_off_c, 0, 53, 58
1, 157534, Note_on_c, 0, 65, 49
1, 157555, Note_on_c, 0, 69, 69
1, 157574, Note_off_c, 0, 65, 60
1, 157599, Note_on_c, 0, 52, 76
1, 157606, Note_off_c, 0, 69, 66
1, 157624, Note_on_c, 0, 71, 79
1, 157625, Control_c, 0, 64, 95
1, 157626, Note_off_c, 0, 52, 69
1, 157640, Control_c, 0, 64, 65
1, 157655, Control_c, 0, 64, 36
1, 157669, Control_c, 0, 64, 50
1, 157684, Control_c, 0, 64, 60
1, 157699, Control_c, 0, 64, 67
1, 157704, Note_on_c, 0, 72, 83
1, 157709, Note_off_c, 0, 71, 61
1, 157713, Control_c, 0, 64, 81
1, 157718, Note_on_c, 0, 69, 109
1, 157728, Control_c, 0, 64, 127
1, 157733, Note_off_c, 0, 69, 78
1, 157793, Note_on_c, 0, 64, 73
1, 157820, Note_off_c, 0, 72, 62
1, 157855, Note_off_c, 0, 64, 63
1, 157861, Note_on_c, 0, 65, 73
1, 157914, Note_off_c, 0, 65, 63
1, 157945, Note_on_c, 0, 60, 72
1, 158010, Note_on_c, 0, 52, 86
1, 158073, Note_off_c, 0, 60, 62
1, 158094, Note_on_c, 0, 68, 72
1, 158096, Note_off_c, 0, 52, 60
1, 158165, Note_off_c, 0, 68, 61
1, 158168, Note_on_c, 0, 69, 76
1, 158199, Note_off_c, 0, 69, 64
1, 158205, Note_on_c, 0, 53, 66
1, 158234, Note_off_c, 0, 53, 65
1, 158246, Note_on_c, 0, 60, 78
1, 158294, Note_off_c, 0, 60, 64
1, 158314, Control_c, 0, 64, 92
1, 158329, Control_c, 0, 64, 57
1, 158343, Control_c, 0, 64, 0
1, 158347, Note_on_c, 0, 73, 92
1, 158354, Note_on_c, 0, 40, 46
1, 158362, Note_on_c, 0, 41, 52
1, 158388, Control_c, 0, 64, 48
1, 158400, Note_off_c, 0, 40, 64
1, 158400, Note_off_c, 0, 41, 64
1, 158403, Control_c, 0, 64, 63
1, 158417, Control_c, 0, 64, 71
1, 158432, Control_c, 0, 64, 83
1, 158438, Note_on_c, 0, 68, 71
1, 158440, Note_off_c, 0, 73, 61
1, 158447, Control_c, 0, 64, 98
1, 158461, Control_c, 0, 64, 112
1, 158476, Control_c, 0, 64, 113
1, 158491, Control_c, 0, 64, 112
1, 158504, Note_on_c, 0, 72, 80
1, 158506, Control_c, 0, 64, 111
1, 158517, Note_off_c, 0, 68, 58
1, 158569, Note_off_c, 0, 72, 54
1, 158576, Note_on_c, 0, 60, 79
1, 158580, Control_c, 0, 64, 112
1, 158592, Note_on_c, 0, 61, 56
1, 158595, Control_c, 0, 64, 113
1, 158610, Control_c, 0, 64, 116
1, 158624, Control_c, 0, 64, 119
1, 158627, Note_off_c, 0, 60, 66
1, 158639, Control_c, 0, 64, 127
1, 158657, Note_on_c, 0, 73, 93
1, 158663, Note_off_c, 0, 61, 57
1, 158681, Note_on_c, 0, 56, 69
1, 158705, Note_off_c, 0, 73, 61
1, 158747, Note_off_c, 0, 56, 63
1, 158775, Note_on_c, 0, 60, 68
1, 158799, Note_on_c, 0, 74, 93
1, 158815, Note_off_c, 0, 60, 63
1, 158830, Note_on_c, 0, 53, 68
1, 158842, Note_off_c, 0, 74, 63
1, 158860, Note_off_c, 0, 53, 66
1, 158929, Control_c, 0, 64, 89
1, 158944, Control_c, 0, 64, 58
1, 158955, Note_on_c, 0, 42, 90
1, 158957, Note_on_c, 0, 75, 92
1, 158959, Control_c, 0, 64, 0
1, 158988, Control_c, 0, 64, 46
1, 158994, Note_off_c, 0, 42, 63
1, 159003, Control_c, 0, 64, 63
1, 159019, Control_c, 0, 64, 72
1, 159034, Control_c, 0, 64, 93
1, 159042, Note_on_c, 0, 70, 76
1, 159048, Control_c, 0, 64, 127
1, 159060, Note_off_c, 0, 75, 55
1, 159114, Note_on_c, 0, 72, 74
1, 159123, Note_off_c, 0, 70, 56
1, 159190, Note_on_c, 0, 62, 75
1, 159235, Note_off_c, 0, 72, 55
1, 159244, Note_off_c, 0, 62, 62
1, 159248, Note_on_c, 0, 63, 62
1, 159265, Note_on_c, 0, 75, 94
1, 159289, Note_off_c, 0, 63, 59
1, 159291, Note_off_c, 0, 75, 62
1, 159319, Note_on_c, 0, 58, 75
1, 159376, Note_off_c, 0, 58, 62
1, 159407, Note_on_c, 0, 60, 71
1, 159460, Note_on_c, 0, 51, 73
1, 159465, Note_off_c, 0, 60, 64
1, 159495, Note_off_c, 0, 51, 64
1, 159537, Control_c, 0, 64, 102
1, 159552, Control_c, 0, 64, 64
1, 159566, Control_c, 0, 64, 0
1, 159572, Note_on_c, 0, 43, 95
1, 159572, Note_on_c, 0, 84, 96
1, 159596, Control_c, 0, 64, 46
1, 159611, Control_c, 0, 64, 62
1, 159620, Note_off_c, 0, 43, 64
1, 159626, Control_c, 0, 64, 75
1, 159641, Control_c, 0, 64, 108
1, 159659, Note_off_c, 0, 84, 59
1, 159663, Control_c, 0, 64, 127
1, 159668, Note_on_c, 0, 76, 86
1, 159757, Note_off_c, 0, 76, 63
1, 159760, Note_on_c, 0, 77, 75
1, 159805, Note_off_c, 0, 77, 60
1, 159823, Note_on_c, 0, 72, 71
1, 159875, Note_on_c, 0, 56, 82
1, 159893, Note_off_c, 0, 72, 63
1, 159896, Note_on_c, 0, 77, 80
1, 159943, Note_off_c, 0, 56, 55
1, 159964, Note_on_c, 0, 75, 81
1, 159964, Note_off_c, 0, 77, 62
1, 160022, Note_on_c, 0, 76, 76
1, 160029, Note_on_c, 0, 55, 76
1, 160047, Note_off_c, 0, 75, 58
1, 160058, Note_off_c, 0, 55, 66
1, 160079, Note_off_c, 0, 76, 66
1, 160096, Note_on_c, 0, 78, 62
1, 160107, Note_on_c, 0, 71, 59
1, 160109, Control_c, 0, 64, 88
1, 160112, Note_on_c, 0, 79, 68
1, 160121, Note_off_c, 0, 78, 55
1, 160124, Control_c, 0, 64, 59
1, 160139, Control_c, 0, 64, 0
1, 160154, Note_on_c, 0, 72, 111
1, 160154, Control_c, 0, 64, 34
1, 160156, Note_on_c, 0, 80, 92
1, 160164, Note_off_c, 0, 71, 48
1, 160169, Control_c, 0, 64, 59
1, 160169, Note_off_c, 0, 72, 73
1, 160177, Note_off_c, 0, 79, 63
1, 160183, Control_c, 0, 64, 71
1, 160198, Control_c, 0, 64, 104
1, 160213, Control_c, 0, 64, 127
1, 160252, Note_on_c, 0, 76, 75
1, 160258, Note_off_c, 0, 80, 64
1, 160321, Note_on_c, 0, 78, 81
1, 160333, Note_off_c, 0, 76, 63
1, 160365, Note_on_c, 0, 77, 57
1, 160380, Note_off_c, 0, 78, 61
1, 160397, Note_off_c, 0, 77, 65
1, 160418, Note_on_c, 0, 72, 80
1, 160455, Note_off_c, 0, 72, 64
1, 160460, Note_on_c, 0, 55, 78
1, 160514, Note_on_c, 0, 71, 75
1, 160582, Note_off_c, 0, 71, 61
1, 160593, Note_off_c, 0, 55, 35
1, 160606, Note_on_c, 0, 72, 85
1, 160637, Note_on_c, 0, 56, 72
1, 160668, Note_off_c, 0, 56, 68
1, 160669, Note_off_c, 0, 72, 57
1, 160681, Note_on_c, 0, 65, 88
1, 160710, Control_c, 0, 64, 111
1, 160724, Note_off_c, 0, 65, 65
1, 160725, Control_c, 0, 64, 65
1, 160739, Control_c, 0, 64, 0
1, 160754, Control_c, 0, 64, 12
1, 160755, Note_on_c, 0, 44, 93
1, 160769, Control_c, 0, 64, 54
1, 160784, Control_c, 0, 64, 66
1, 160792, Note_off_c, 0, 44, 63
1, 160799, Control_c, 0, 64, 84
1, 160813, Control_c, 0, 64, 127
1, 160900, Note_on_c, 0, 64, 67
1, 160904, Note_on_c, 0, 59, 57
1, 160932, Note_off_c, 0, 64, 65
1, 160936, Note_off_c, 0, 59, 64
1, 160995, Note_on_c, 0, 64, 71
1, 161003, Note_on_c, 0, 59, 69
1, 161027, Note_off_c, 0, 64, 64
1, 161031, Note_off_c, 0, 59, 65
1, 161069, Note_on_c, 0, 92, 109
1, 161072, Note_on_c, 0, 80, 102
1, 161084, Note_on_c, 0, 56, 37
1, 161084, Note_on_c, 0, 62, 82
1, 161089, Note_on_c, 0, 65, 83
1, 161090, Note_on_c, 0, 90, 64
1, 161091, Note_off_c, 0, 90, 127
1, 161109, Note_off_c, 0, 80, 62
1, 161113, Note_off_c, 0, 92, 67
1, 161113, Note_off_c, 0, 65, 66
1, 161118, Note_off_c, 0, 62, 63
1, 161134, Note_off_c, 0, 56, 64
1, 161193, Note_on_c, 0, 62, 75
1, 161204, Note_on_c, 0, 56, 50
1, 161204, Note_on_c, 0, 65, 70
1, 161227, Note_off_c, 0, 65, 69
1, 161232, Note_off_c, 0, 62, 62
1, 161239, Note_off_c, 0, 56, 65
1, 161292, Note_on_c, 0, 65, 78
1, 161295, Note_on_c, 0, 62, 74
1, 161297, Note_on_c, 0, 92, 96
1, 161301, Note_on_c, 0, 56, 67
1, 161306, Note_on_c, 0, 80, 79
1, 161325, Note_off_c, 0, 62, 62
1, 161326, Note_off_c, 0, 65, 65
1, 161329, Note_off_c, 0, 80, 70
1, 161331, Note_off_c, 0, 92, 62
1, 161337, Note_off_c, 0, 56, 64
1, 161355, Control_c, 0, 64, 80
1, 161370, Control_c, 0, 64, 54
1, 161385, Control_c, 0, 64, 34
1, 161391, Note_on_c, 0, 59, 72
1, 161394, Note_on_c, 0, 71, 100
1, 161394, Note_on_c, 0, 83, 95
1, 161396, Note_on_c, 0, 56, 73
1, 161396, Note_on_c, 0, 64, 79
1, 161400, Control_c, 0, 64, 57
1, 161415, Control_c, 0, 64, 64
1, 161426, Note_off_c, 0, 64, 67
1, 161429, Control_c, 0, 64, 74
1, 161432, Note_off_c, 0, 71, 66
1, 161433, Note_on_c, 0, 81, 36
1, 161434, Note_off_c, 0, 81, 127
1, 161434, Note_off_c, 0, 59, 62
1, 161435, Note_off_c, 0, 56, 62
1, 161438, Note_off_c, 0, 83, 67
1, 161444, Control_c, 0, 64, 102
1, 161459, Control_c, 0, 64, 127
1, 161498, Note_on_c, 0, 59, 69
1, 161501, Note_on_c, 0, 56, 65
1, 161504, Note_on_c, 0, 64, 77
1, 161537, Note_off_c, 0, 64, 66
1, 161546, Note_off_c, 0, 56, 58
1, 161547, Note_off_c, 0, 59, 65
1, 161604, Note_on_c, 0, 64, 77
1, 161609, Note_on_c, 0, 59, 70
1, 161618, Note_on_c, 0, 56, 47
1, 161639, Note_off_c, 0, 64, 66
1, 161644, Note_off_c, 0, 59, 58
1, 161655, Note_off_c, 0, 56, 62
1, 161695, Control_c, 0, 64, 78
1, 161703, Note_on_c, 0, 86, 101
1, 161707, Note_on_c, 0, 74, 101
1, 161710, Control_c, 0, 64, 59
1, 161711, Note_on_c, 0, 65, 82
1, 161712, Note_on_c, 0, 62, 82
1, 161719, Note_on_c, 0, 56, 75
1, 161725, Control_c, 0, 64, 56
1, 161736, Note_off_c, 0, 74, 64
1, 161739, Note_off_c, 0, 86, 68
1, 161740, Control_c, 0, 64, 64
1, 161748, Note_off_c, 0, 65, 61
1, 161751, Note_off_c, 0, 62, 62
1, 161754, Note_off_c, 0, 56, 65
1, 161754, Control_c, 0, 64, 70
1, 161769, Control_c, 0, 64, 80
1, 161784, Control_c, 0, 64, 104
1, 161799, Control_c, 0, 64, 127
1, 161818, Note_on_c, 0, 62, 77
1, 161827, Note_on_c, 0, 65, 74
1, 161833, Note_on_c, 0, 56, 55
1, 161853, Note_off_c, 0, 65, 65
1, 161865, Note_off_c, 0, 56, 65
1, 161870, Note_off_c, 0, 62, 64
1, 161938, Note_on_c, 0, 62, 68
1, 161940, Note_on_c, 0, 56, 62
1, 161948, Note_on_c, 0, 65, 67
1, 161973, Note_off_c, 0, 65, 68
1, 161978, Note_off_c, 0, 56, 60
1, 161981, Note_off_c, 0, 62, 61
1, 161999, Control_c, 0, 64, 89
1, 162014, Control_c, 0, 64, 63
1, 162020, Note_on_c, 0, 71, 82
1, 162022, Note_on_c, 0, 68, 82
1, 162023, Note_on_c, 0, 80, 86
1, 162026, Note_on_c, 0, 74, 75
1, 162028, Control_c, 0, 64, 52
1, 162033, Note_on_c, 0, 59, 78
1, 162038, Note_on_c, 0, 56, 59
1, 162041, Note_on_c, 0, 64, 73
1, 162043, Control_c, 0, 64, 63
1, 162058, Control_c, 0, 64, 72
1, 162064, Note_off_c, 0, 74, 61
1, 162064, Note_off_c, 0, 71, 60
1, 162070, Note_off_c, 0, 64, 65
1, 162073, Control_c, 0, 64, 90
1, 162076, Note_off_c, 0, 56, 61
1, 162078, Note_off_c, 0, 59, 63
1, 162087, Control_c, 0, 64, 127
1, 162106, Note_off_c, 0, 68, 0
1, 162120, Note_on_c, 0, 68, 44
1, 162127, Note_on_c, 0, 71, 64
1, 162130, Note_on_c, 0, 56, 58
1, 162130, Note_on_c, 0, 64, 70
1, 162133, Note_on_c, 0, 59, 64
1, 162141, Note_on_c, 0, 74, 54
1, 162157, Note_off_c, 0, 64, 65
1, 162159, Note_off_c, 0, 59, 69
1, 162159, Note_off_c, 0, 68, 62
1, 162163, Note_off_c, 0, 71, 64
1, 162166, Note_off_c, 0, 56, 65
1, 162169, Note_off_c, 0, 74, 63
1, 162174, Note_off_c, 0, 80, 63
1, 162237, Note_on_c, 0, 73, 83
1, 162243, Note_on_c, 0, 69, 80
1, 162250, Note_on_c, 0, 81, 67
1, 162253, Note_on_c, 0, 76, 68
1, 162261, Note_off_c, 0, 73, 66
1, 162264, Note_off_c, 0, 69, 70
1, 162277, Note_off_c, 0, 81, 68
1, 162282, Note_off_c, 0, 76, 66
1, 162325, Control_c, 0, 64, 70
1, 162340, Control_c, 0, 64, 42
1, 162342, Note_on_c, 0, 83, 93
1, 162345, Note_on_c, 0, 71, 87
1, 162346, Note_on_c, 0, 74, 90
1, 162347, Note_on_c, 0, 77, 82
1, 162348, Note_on_c, 0, 62, 99
1, 162352, Note_on_c, 0, 50, 90
1, 162355, Control_c, 0, 64, 49
1, 162370, Control_c, 0, 64, 63
1, 162377, Note_on_c, 0, 81, 45
1, 162378, Note_off_c, 0, 74, 63
1, 162382, Note_off_c, 0, 71, 60
1, 162384, Control_c, 0, 64, 69
1, 162389, Note_off_c, 0, 62, 68
1, 162392, Note_off_c, 0, 77, 61
1, 162399, Control_c, 0, 64, 86
1, 162407, Note_off_c, 0, 81, 37
1, 162408, Note_off_c, 0, 50, 61
1, 162414, Control_c, 0, 64, 127
1, 162462, Note_on_c, 0, 74, 71
1, 162468, Note_on_c, 0, 77, 72
1, 162472, Note_on_c, 0, 71, 58
1, 162491, Note_off_c, 0, 71, 61
1, 162498, Note_off_c, 0, 74, 54
1, 162562, Note_on_c, 0, 74, 58
1, 162563, Note_on_c, 0, 71, 71
1, 162566, Note_on_c, 0, 50, 72
1, 162572, Note_on_c, 0, 62, 43
1, 162591, Note_off_c, 0, 62, 66
1, 162594, Note_off_c, 0, 50, 63
1, 162605, Note_off_c, 0, 74, 55
1, 162614, Note_off_c, 0, 71, 60
1, 162622, Note_off_c, 0, 77, 62
1, 162665, Note_on_c, 0, 52, 98
1, 162668, Note_on_c, 0, 40, 90
1, 162693, Note_on_c, 0, 74, 62
1, 162695, Note_on_c, 0, 77, 45
1, 162696, Note_on_c, 0, 71, 54
1, 162696, Note_off_c, 0, 52, 64
1, 162697, Note_off_c, 0, 40, 68
1, 162724, Note_off_c, 0, 74, 64
1, 162734, Note_off_c, 0, 71, 62
1, 162738, Note_off_c, 0, 77, 62
1, 162791, Note_on_c, 0, 74, 74
1, 162800, Note_on_c, 0, 77, 61
1, 162804, Note_on_c, 0, 71, 54
1, 162809, Note_off_c, 0, 83, 61
1, 162816, Note_off_c, 0, 74, 67
1, 162826, Note_off_c, 0, 71, 58
1, 162830, Note_off_c, 0, 77, 66
1, 162886, Note_on_c, 0, 76, 88
1, 162886, Note_on_c, 0, 84, 90
1, 162888, Note_on_c, 0, 72, 82
1, 162892, Note_on_c, 0, 79, 79
1, 162926, Note_off_c, 0, 72, 61
1, 162929, Note_off_c, 0, 76, 63
1, 162933, Note_off_c, 0, 79, 61
1, 162951, Note_off_c, 0, 84, 65
1, 162985, Control_c, 0, 64, 87
1, 162999, Note_on_c, 0, 86, 84
1, 163000, Control_c, 0, 64, 61
1, 163000, Note_on_c, 0, 77, 89
1, 163001, Note_on_c, 0, 55, 94
1, 163002, Note_on_c, 0, 74, 83
1, 163005, Note_on_c, 0, 43, 92
1, 163005, Note_on_c, 0, 80, 63
1, 163006, Note_off_c, 0, 80, 127
1, 163009, Note_on_c, 0, 84, 83
1, 163015, Control_c, 0, 64, 44
1, 163026, Note_on_c, 0, 81, 57
1, 163027, Note_on_c, 0, 79, 65
1, 163030, Control_c, 0, 64, 61
1, 163045, Control_c, 0, 64, 68
1, 163048, Note_off_c, 0, 55, 65
1, 163056, Note_off_c, 0, 77, 62
1, 163056, Note_off_c, 0, 81, 67
1, 163057, Note_off_c, 0, 74, 62
1, 163057, Note_off_c, 0, 79, 68
1, 163060, Control_c, 0, 64, 82
1, 163061, Note_off_c, 0, 43, 65
1, 163074, Control_c, 0, 64, 127
1, 163075, Note_off_c, 0, 84, 37
1, 163126, Note_on_c, 0, 77, 82
1, 163127, Note_on_c, 0, 81, 77
1, 163129, Note_on_c, 0, 74, 71
1, 163158, Note_off_c, 0, 74, 65
1, 163161, Note_off_c, 0, 77, 57
1, 163177, Note_off_c, 0, 81, 64
1, 163226, Note_on_c, 0, 74, 75
1, 163230, Note_on_c, 0, 81, 65
1, 163236, Note_on_c, 0, 77, 61
1, 163257, Note_off_c, 0, 74, 63
1, 163266, Note_off_c, 0, 77, 65
1, 163277, Note_off_c, 0, 81, 64
1, 163355, Control_c, 0, 64, 73
1, 163358, Note_on_c, 0, 78, 81
1, 163360, Note_on_c, 0, 75, 77
1, 163361, Note_on_c, 0, 82, 76
1, 163370, Control_c, 0, 64, 45
1, 163374, Note_on_c, 0, 48, 85
1, 163379, Note_on_c, 0, 36, 73
1, 163380, Note_off_c, 0, 75, 56
1, 163405, Note_off_c, 0, 78, 61
1, 163407, Control_c, 0, 64, 62
1, 163415, Note_off_c, 0, 48, 66
1, 163416, Note_off_c, 0, 36, 64
1, 163422, Control_c, 0, 64, 71
1, 163437, Control_c, 0, 64, 96
1, 163442, Note_off_c, 0, 82, 60
1, 163452, Control_c, 0, 64, 127
1, 163567, Note_off_c, 0, 86, 50
1, 163640, Note_on_c, 0, 69, 59
1, 163641, Note_on_c, 0, 66, 51
1, 163664, Note_off_c, 0, 66, 61
1, 163668, Note_off_c, 0, 69, 66
1, 163740, Note_on_c, 0, 66, 77
1, 163747, Note_on_c, 0, 69, 76
1, 163748, Note_on_c, 0, 96, 103
1, 163752, Note_on_c, 0, 60, 37
1, 163755, Note_on_c, 0, 83, 84
1, 163758, Note_on_c, 0, 84, 83
1, 163765, Note_on_c, 0, 95, 52
1, 163774, Note_off_c, 0, 83, 73
1, 163775, Note_off_c, 0, 66, 61
1, 163776, Note_off_c, 0, 69, 66
1, 163777, Note_off_c, 0, 84, 71
1, 163781, Note_off_c, 0, 96, 68
1, 163786, Note_off_c, 0, 60, 65
1, 163786, Note_off_c, 0, 95, 38
1, 163857, Note_on_c, 0, 69, 77
1, 163864, Note_on_c, 0, 66, 78
1, 163877, Note_on_c, 0, 60, 53
1, 163880, Note_on_c, 0, 84, 52
1, 163894, Note_off_c, 0, 69, 57
1, 163895, Note_off_c, 0, 66, 64
1, 163898, Note_off_c, 0, 84, 60
1, 163903, Note_off_c, 0, 60, 64
1, 163965, Note_on_c, 0, 69, 57
1, 163968, Note_on_c, 0, 60, 72
1, 163989, Note_off_c, 0, 69, 61
1, 163993, Note_off_c, 0, 60, 68
1, 164016, Control_c, 0, 64, 89
1, 164030, Control_c, 0, 64, 60
1, 164032, Note_on_c, 0, 85, 93
1, 164038, Note_on_c, 0, 73, 87
1, 164045, Note_on_c, 0, 68, 86
1, 164045, Control_c, 0, 64, 21
1, 164046, Note_on_c, 0, 75, 74
1, 164050, Note_on_c, 0, 60, 74
1, 164051, Note_on_c, 0, 86, 70
1, 164057, Note_off_c, 0, 73, 72
1, 164060, Control_c, 0, 64, 50
1, 164061, Note_off_c, 0, 75, 67
1, 164065, Note_on_c, 0, 62, 58
1, 164074, Control_c, 0, 64, 61
1, 164075, Note_off_c, 0, 86, 52
1, 164077, Note_off_c, 0, 60, 67
1, 164083, Note_off_c, 0, 85, 63
1, 164084, Note_off_c, 0, 68, 58
1, 164089, Control_c, 0, 64, 70
1, 164091, Note_off_c, 0, 62, 63
1, 164104, Control_c, 0, 64, 88
1, 164119, Control_c, 0, 64, 127
1, 164178, Note_on_c, 0, 68, 80
1, 164187, Note_on_c, 0, 63, 75
1, 164192, Note_on_c, 0, 60, 33
1, 164206, Note_off_c, 0, 68, 62
1, 164223, Note_off_c, 0, 60, 52
1, 164235, Note_off_c, 0, 63, 61
1, 164305, Note_on_c, 0, 60, 61
1, 164307, Note_on_c, 0, 68, 69
1, 164329, Note_off_c, 0, 68, 70
1, 164333, Control_c, 0, 64, 84
1, 164348, Control_c, 0, 64, 60
1, 164356, Note_on_c, 0, 90, 102
1, 164361, Note_on_c, 0, 78, 83
1, 164363, Control_c, 0, 64, 33
1, 164378, Control_c, 0, 64, 56
1, 164381, Note_on_c, 0, 69, 76
1, 164384, Note_off_c, 0, 78, 69
1, 164388, Note_on_c, 0, 91, 49
1, 164389, Note_off_c, 0, 91, 127
1, 164393, Control_c, 0, 64, 65
1, 164400, Note_off_c, 0, 90, 62
1, 164404, Note_on_c, 0, 65, 45
1, 164408, Control_c, 0, 64, 74
1, 164410, Note_off_c, 0, 69, 66
1, 164418, Note_off_c, 0, 60, 61
1, 164423, Control_c, 0, 64, 98
1, 164431, Note_off_c, 0, 65, 55
1, 164437, Control_c, 0, 64, 127
1, 164473, Note_on_c, 0, 66, 76
1, 164495, Note_on_c, 0, 69, 59
1, 164506, Note_off_c, 0, 66, 61
1, 164509, Note_on_c, 0, 82, 29
1, 164525, Note_off_c, 0, 69, 60
1, 164544, Note_off_c, 0, 82, 48
1, 164586, Note_on_c, 0, 69, 69
1, 164588, Note_on_c, 0, 60, 63
1, 164595, Note_on_c, 0, 66, 73
1, 164607, Note_off_c, 0, 69, 71
1, 164620, Note_off_c, 0, 60, 66
1, 164627, Note_off_c, 0, 66, 63
1, 164661, Control_c, 0, 64, 101
1, 164676, Control_c, 0, 64, 69
1, 164691, Control_c, 0, 64, 50
1, 164693, Note_on_c, 0, 75, 87
1, 164693, Note_on_c, 0, 84, 87
1, 164694, Note_on_c, 0, 72, 87
1, 164697, Note_on_c, 0, 68, 85
1, 164698, Note_on_c, 0, 78, 79
1, 164705, Control_c, 0, 64, 55
1, 164705, Note_on_c, 0, 60, 75
1, 164709, Note_on_c, 0, 63, 57
1, 164720, Control_c, 0, 64, 63
1, 164734, Note_off_c, 0, 60, 66
1, 164735, Note_off_c, 0, 63, 62
1, 164735, Note_off_c, 0, 72, 62
1, 164735, Control_c, 0, 64, 68
1, 164736, Note_off_c, 0, 68, 57
1, 164746, Note_off_c, 0, 75, 62
1, 164750, Control_c, 0, 64, 79
1, 164755, Note_off_c, 0, 78, 62
1, 164765, Control_c, 0, 64, 105
1, 164774, Note_off_c, 0, 84, 52
1, 164779, Control_c, 0, 64, 127
1, 164798, Note_on_c, 0, 63, 77
1, 164813, Note_on_c, 0, 75, 66
1, 164818, Note_on_c, 0, 78, 60
1, 164840, Note_off_c, 0, 75, 65
1, 164849, Note_off_c, 0, 63, 61
1, 164851, Note_off_c, 0, 78, 66
1, 164875, Poly_aftertouch_c, 0, 68, 127
1, 164905, Poly_aftertouch_c, 0, 68, 0
1, 164922, Note_on_c, 0, 85, 84
1, 164924, Note_on_c, 0, 73, 79
1, 164941, Note_on_c, 0, 79, 51
1, 164948, Note_off_c, 0, 73, 66
1, 164962, Note_off_c, 0, 79, 61
1, 164977, Note_off_c, 0, 85, 62
1, 165009, Control_c, 0, 64, 110
1, 165024, Control_c, 0, 64, 65
1, 165036, Note_on_c, 0, 80, 84
1, 165037, Note_on_c, 0, 75, 90
1, 165039, Note_on_c, 0, 66, 95
1, 165039, Note_on_c, 0, 78, 85
1, 165039, Control_c, 0, 64, 0
1, 165040, Note_on_c, 0, 87, 80
1, 165044, Note_on_c, 0, 54, 90
1, 165053, Control_c, 0, 64, 20
1, 165066, Note_on_c, 0, 85, 55
1, 165068, Control_c, 0, 64, 50
1, 165070, Note_off_c, 0, 75, 52
1, 165083, Control_c, 0, 64, 61
1, 165085, Note_off_c, 0, 85, 62
1, 165093, Note_off_c, 0, 78, 62
1, 165098, Note_off_c, 0, 66, 58
1, 165098, Control_c, 0, 64, 69
1, 165104, Note_off_c, 0, 54, 62
1, 165112, Control_c, 0, 64, 86
1, 165113, Note_off_c, 0, 80, 63
1, 165127, Control_c, 0, 64, 127
1, 165165, Note_on_c, 0, 75, 75
1, 165166, Note_on_c, 0, 78, 72
1, 165174, Note_on_c, 0, 81, 62
1, 165203, Note_off_c, 0, 78, 61
1, 165209, Note_off_c, 0, 75, 60
1, 165211, Note_off_c, 0, 81, 62
1, 165262, Note_on_c, 0, 66, 78
1, 165266, Note_on_c, 0, 54, 82
1, 165273, Note_on_c, 0, 81, 65
1, 165275, Note_on_c, 0, 75, 54
1, 165280, Note_on_c, 0, 78, 66
1, 165285, Note_off_c, 0, 54, 74
1, 165287, Note_off_c, 0, 66, 66
1, 165304, Note_off_c, 0, 75, 49
1, 165315, Note_off_c, 0, 78, 62
1, 165334, Note_off_c, 0, 81, 64
1, 165370, Note_on_c, 0, 56, 101
1, 165373, Note_on_c, 0, 44, 94
1, 165385, Note_on_c, 0, 75, 77
1, 165396, Note_on_c, 0, 81, 61
1, 165398, Note_on_c, 0, 78, 77
1, 165400, Note_off_c, 0, 44, 66
1, 165401, Note_off_c, 0, 56, 62
1, 165445, Note_off_c, 0, 75, 57
1, 165454, Note_off_c, 0, 78, 63
1, 165461, Note_off_c, 0, 81, 64
1, 165496, Note_on_c, 0, 75, 56
1, 165510, Note_on_c, 0, 78, 61
1, 165511, Note_on_c, 0, 81, 53
1, 165531, Note_off_c, 0, 75, 58
1, 165539, Note_off_c, 0, 87, 55
1, 165542, Note_off_c, 0, 81, 67
1, 165544, Note_off_c, 0, 78, 65
1, 165610, Note_on_c, 0, 80, 82
1, 165615, Note_on_c, 0, 76, 81
1, 165616, Note_on_c, 0, 88, 78
1, 165618, Note_on_c, 0, 83, 79
1, 165644, Note_off_c, 0, 76, 64
1, 165667, Note_off_c, 0, 80, 63
1, 165671, Note_off_c, 0, 83, 61
1, 165683, Note_off_c, 0, 88, 64
1, 165743, Control_c, 0, 64, 83
1, 165752, Note_on_c, 0, 78, 97
1, 165752, Note_on_c, 0, 81, 93
1, 165752, Note_on_c, 0, 90, 96
1, 165753, Note_on_c, 0, 59, 98
1, 165754, Note_on_c, 0, 85, 86
1, 165755, Note_on_c, 0, 47, 88
1, 165758, Control_c, 0, 64, 56
1, 165773, Control_c, 0, 64, 0
1, 165788, Control_c, 0, 64, 24
1, 165802, Control_c, 0, 64, 53
1, 165810, Note_off_c, 0, 59, 61
1, 165817, Control_c, 0, 64, 64
1, 165830, Note_off_c, 0, 81, 65
1, 165831, Note_off_c, 0, 78, 63
1, 165832, Control_c, 0, 64, 75
1, 165834, Note_off_c, 0, 47, 62
1, 165834, Note_off_c, 0, 85, 64
1, 165847, Control_c, 0, 64, 104
1, 165862, Control_c, 0, 64, 127
1, 165892, Note_on_c, 0, 85, 74
1, 165893, Note_on_c, 0, 78, 75
1, 165898, Note_on_c, 0, 81, 76
1, 165946, Note_off_c, 0, 81, 63
1, 165967, Note_off_c, 0, 85, 65
1, 165972, Note_off_c, 0, 78, 64
1, 166021, Note_on_c, 0, 79, 84
1, 166025, Note_on_c, 0, 82, 77
1, 166029, Note_on_c, 0, 86, 82
1, 166032, Note_on_c, 0, 87, 55
1, 166053, Note_off_c, 0, 87, 39
1, 166077, Note_off_c, 0, 79, 64
1, 166104, Note_off_c, 0, 82, 63
1, 166105, Note_off_c, 0, 86, 61
1, 166158, Control_c, 0, 64, 113
1, 166173, Control_c, 0, 64, 67
1, 166180, Note_on_c, 0, 52, 96
1, 166184, Note_on_c, 0, 40, 86
1, 166188, Control_c, 0, 64, 0
1, 166190, Note_on_c, 0, 80, 89
1, 166191, Note_on_c, 0, 83, 89
1, 166191, Note_on_c, 0, 87, 89
1, 166232, Control_c, 0, 64, 17
1, 166245, Note_off_c, 0, 40, 63
1, 166247, Control_c, 0, 64, 62
1, 166262, Control_c, 0, 64, 74
1, 166275, Note_off_c, 0, 52, 62
1, 166277, Control_c, 0, 64, 102
1, 166287, Note_off_c, 0, 80, 63
1, 166292, Control_c, 0, 64, 127
1, 166296, Note_off_c, 0, 87, 60
1, 166306, Note_off_c, 0, 83, 60
1, 166389, Note_on_c, 0, 80, 67
1, 166391, Note_on_c, 0, 87, 72
1, 166414, Note_on_c, 0, 83, 47
1, 166419, Note_off_c, 0, 90, 55
1, 166421, Note_on_c, 0, 84, 51
1, 166440, Note_off_c, 0, 84, 62
1, 166446, Note_off_c, 0, 83, 64
1, 166466, Note_off_c, 0, 87, 60
1, 166466, Note_off_c, 0, 80, 59
1, 166521, Note_on_c, 0, 80, 67
1, 166524, Note_on_c, 0, 87, 60
1, 166536, Note_on_c, 0, 83, 63
1, 166551, Note_off_c, 0, 80, 67
1, 166551, Note_off_c, 0, 87, 65
1, 166552, Note_off_c, 0, 83, 64
1, 166727, Note_on_c, 0, 56, 62
1, 166734, Note_on_c, 0, 59, 58
1, 166741, Note_on_c, 0, 66, 91
1, 166744, Note_on_c, 0, 63, 78
1, 166774, Control_c, 0, 64, 87
1, 166789, Control_c, 0, 64, 65
1, 166804, Control_c, 0, 64, 49
1, 166819, Control_c, 0, 64, 48
1, 166833, Control_c, 0, 64, 52
1, 166848, Control_c, 0, 64, 59
1, 166863, Control_c, 0, 64, 65
1, 166877, Control_c, 0, 64, 70
1, 166886, Note_off_c, 0, 56, 62
1, 166886, Note_off_c, 0, 59, 61
1, 166892, Control_c, 0, 64, 83
1, 166908, Control_c, 0, 64, 99
1, 166923, Control_c, 0, 64, 127
1, 166938, Note_off_c, 0, 63, 46
1, 166995, Note_on_c, 0, 56, 56
1, 166998, Note_on_c, 0, 59, 50
1, 167040, Note_off_c, 0, 56, 61
1, 167044, Note_off_c, 0, 59, 59
1, 167131, Note_off_c, 0, 66, 40
1, 167171, Note_on_c, 0, 59, 50
1, 167185, Note_on_c, 0, 56, 44
1, 167269, Note_off_c, 0, 59, 50
1, 167284, Note_off_c, 0, 56, 52
1, 167660, Note_on_c, 0, 56, 41
1, 167676, Note_on_c, 0, 59, 32
1, 167708, Note_off_c, 0, 56, 61
1, 167721, Note_off_c, 0, 59, 57
1, 167750, Note_on_c, 0, 64, 64
1, 167851, Note_off_c, 0, 64, 62
1, 167871, Note_on_c, 0, 59, 38
1, 167879, Note_on_c, 0, 56, 44
1, 167943, Note_off_c, 0, 59, 51
1, 167949, Note_off_c, 0, 56, 54
1, 168050, Control_c, 0, 64, 110
1, 168065, Control_c, 0, 64, 91
1, 168071, Note_on_c, 0, 66, 65
1, 168079, Control_c, 0, 64, 77
1, 168094, Control_c, 0, 64, 67
1, 168109, Control_c, 0, 64, 58
1, 168123, Control_c, 0, 64, 51
1, 168138, Control_c, 0, 64, 49
1, 168153, Control_c, 0, 64, 48
1, 168168, Control_c, 0, 64, 50
1, 168183, Control_c, 0, 64, 54
1, 168197, Control_c, 0, 64, 60
1, 168212, Control_c, 0, 64, 64
1, 168227, Control_c, 0, 64, 67
1, 168242, Control_c, 0, 64, 71
1, 168257, Control_c, 0, 64, 76
1, 168271, Note_on_c, 0, 56, 37
1, 168271, Note_on_c, 0, 60, 38
1, 168271, Control_c, 0, 64, 82
1, 168286, Note_off_c, 0, 66, 54
1, 168286, Control_c, 0, 64, 92
1, 168301, Control_c, 0, 64, 102
1, 168316, Control_c, 0, 64, 123
1, 168330, Control_c, 0, 64, 127
1, 168366, Note_off_c, 0, 56, 39
1, 168375, Note_off_c, 0, 60, 53
1, 168603, Note_on_c, 0, 56, 31
1, 168612, Note_on_c, 0, 60, 35
1, 168815, Note_off_c, 0, 60, 25
1, 168856, Note_off_c, 0, 56, 16
1, 168999, Note_on_c, 0, 52, 36
1, 169049, Note_on_c, 0, 66, 55
1, 169093, Control_c, 0, 64, 118
1, 169108, Control_c, 0, 64, 95
1, 169123, Control_c, 0, 64, 78
1, 169138, Control_c, 0, 64, 69
1, 169153, Control_c, 0, 64, 63
1, 169168, Control_c, 0, 64, 59
1, 169213, Control_c, 0, 64, 61
1, 169227, Control_c, 0, 64, 63
1, 169242, Control_c, 0, 64, 65
1, 169257, Control_c, 0, 64, 67
1, 169271, Control_c, 0, 64, 71
1, 169286, Control_c, 0, 64, 78
1, 169302, Control_c, 0, 64, 90
1, 169317, Control_c, 0, 64, 110
1, 169332, Control_c, 0, 64, 127
1, 169424, Note_off_c, 0, 66, 37
1, 169430, Note_on_c, 0, 57, 41
1, 169437, Note_on_c, 0, 61, 40
1, 169498, Note_off_c, 0, 57, 56
1, 169501, Note_off_c, 0, 61, 56
1, 169621, Note_on_c, 0, 57, 55
1, 169630, Note_on_c, 0, 61, 44
1, 169672, Note_off_c, 0, 57, 58
1, 169693, Note_off_c, 0, 61, 55
1, 169734, Note_on_c, 0, 75, 71
1, 169752, Note_on_c, 0, 67, 49
1, 169793, Note_off_c, 0, 67, 56
1, 169854, Note_on_c, 0, 57, 57
1, 169870, Note_on_c, 0, 61, 41
1, 169892, Note_off_c, 0, 57, 64
1, 169901, Note_off_c, 0, 61, 53
1, 169930, Note_on_c, 0, 73, 85
1, 170028, Note_on_c, 0, 57, 55
1, 170028, Note_on_c, 0, 61, 50
1, 170070, Note_off_c, 0, 57, 61
1, 170101, Note_off_c, 0, 61, 49
1, 170146, Note_off_c, 0, 73, 51
1, 170181, Note_on_c, 0, 68, 60
1, 170183, Note_on_c, 0, 80, 74
1, 170192, Control_c, 0, 64, 104
1, 170206, Control_c, 0, 64, 86
1, 170210, Note_off_c, 0, 75, 13
1, 170221, Control_c, 0, 64, 72
1, 170236, Control_c, 0, 64, 61
1, 170252, Control_c, 0, 64, 48
1, 170267, Control_c, 0, 64, 45
1, 170281, Control_c, 0, 64, 46
1, 170296, Control_c, 0, 64, 50
1, 170311, Control_c, 0, 64, 56
1, 170326, Control_c, 0, 64, 61
1, 170341, Control_c, 0, 64, 65
1, 170355, Control_c, 0, 64, 68
1, 170368, Note_on_c, 0, 58, 42
1, 170370, Control_c, 0, 64, 73
1, 170379, Note_on_c, 0, 62, 34
1, 170385, Control_c, 0, 64, 80
1, 170399, Note_off_c, 0, 58, 60
1, 170399, Control_c, 0, 64, 88
1, 170414, Control_c, 0, 64, 94
1, 170417, Note_off_c, 0, 62, 54
1, 170429, Control_c, 0, 64, 99
1, 170440, Note_off_c, 0, 68, 31
1, 170444, Control_c, 0, 64, 103
1, 170449, Note_off_c, 0, 80, 61
1, 170459, Control_c, 0, 64, 105
1, 170474, Control_c, 0, 64, 106
1, 170488, Control_c, 0, 64, 106
1, 170503, Control_c, 0, 64, 107
1, 170516, Note_on_c, 0, 58, 44
1, 170518, Note_on_c, 0, 62, 54
1, 170518, Control_c, 0, 64, 108
1, 170533, Control_c, 0, 64, 110
1, 170548, Control_c, 0, 64, 112
1, 170561, Note_off_c, 0, 62, 62
1, 170563, Control_c, 0, 64, 113
1, 170571, Note_off_c, 0, 58, 55
1, 170643, Note_on_c, 0, 78, 69
1, 170652, Control_c, 0, 64, 109
1, 170652, Note_on_c, 0, 69, 54
1, 170666, Control_c, 0, 64, 104
1, 170681, Control_c, 0, 64, 95
1, 170696, Control_c, 0, 64, 84
1, 170711, Control_c, 0, 64, 70
1, 170725, Control_c, 0, 64, 61
1, 170740, Control_c, 0, 64, 41
1, 170755, Control_c, 0, 64, 0
1, 170830, Note_on_c, 0, 59, 39
1, 170834, Note_on_c, 0, 63, 40
1, 170897, Control_c, 0, 64, 30
1, 170903, Note_off_c, 0, 59, 55
1, 170907, Note_off_c, 0, 63, 57
1, 170912, Control_c, 0, 64, 53
1, 170927, Control_c, 0, 64, 63
1, 170942, Control_c, 0, 64, 66
1, 170956, Control_c, 0, 64, 69
1, 170971, Control_c, 0, 64, 72
1, 170974, Note_off_c, 0, 69, 48
1, 170986, Control_c, 0, 64, 76
1, 171001, Control_c, 0, 64, 85
1, 171016, Control_c, 0, 64, 93
1, 171030, Control_c, 0, 64, 97
1, 171037, Note_on_c, 0, 63, 41
1, 171042, Note_on_c, 0, 59, 44
1, 171045, Control_c, 0, 64, 98
1, 171090, Control_c, 0, 64, 99
1, 171091, Note_off_c, 0, 59, 58
1, 171125, Note_off_c, 0, 63, 36
1, 171148, Control_c, 0, 64, 99
1, 171208, Control_c, 0, 64, 99
1, 171222, Control_c, 0, 64, 98
1, 171237, Control_c, 0, 64, 97
1, 171243, Note_off_c, 0, 78, 55
1, 171249, Note_on_c, 0, 76, 55
1, 171252, Control_c, 0, 64, 95
1, 171257, Note_on_c, 0, 70, 40
1, 171267, Control_c, 0, 64, 93
1, 171282, Control_c, 0, 64, 90
1, 171296, Control_c, 0, 64, 86
1, 171311, Control_c, 0, 64, 79
1, 171326, Control_c, 0, 64, 70
1, 171341, Control_c, 0, 64, 63
1, 171356, Control_c, 0, 64, 54
1, 171371, Control_c, 0, 64, 49
1, 171401, Control_c, 0, 64, 50
1, 171415, Control_c, 0, 64, 53
1, 171430, Control_c, 0, 64, 57
1, 171445, Control_c, 0, 64, 61
1, 171457, Note_on_c, 0, 60, 41
1, 171460, Control_c, 0, 64, 64
1, 171475, Control_c, 0, 64, 65
1, 171478, Note_on_c, 0, 64, 27
1, 171489, Control_c, 0, 64, 67
1, 171497, Note_off_c, 0, 60, 59
1, 171504, Control_c, 0, 64, 70
1, 171519, Control_c, 0, 64, 72
1, 171524, Note_off_c, 0, 64, 48
1, 171534, Control_c, 0, 64, 74
1, 171548, Control_c, 0, 64, 76
1, 171563, Control_c, 0, 64, 78
1, 171567, Note_off_c, 0, 70, 33
1, 171578, Control_c, 0, 64, 78
1, 171593, Control_c, 0, 64, 79
1, 171608, Control_c, 0, 64, 79
1, 171618, Note_on_c, 0, 60, 42
1, 171637, Control_c, 0, 64, 80
1, 171657, Note_on_c, 0, 64, 33
1, 171672, Note_off_c, 0, 60, 60
1, 171684, Note_off_c, 0, 76, 37
1, 171691, Note_off_c, 0, 64, 51
1, 171696, Note_on_c, 0, 75, 58
1, 171708, Note_off_c, 0, 52, 0
1, 171744, Poly_aftertouch_c, 0, 52, 127
1, 171749, Control_c, 0, 64, 79
1, 171764, Control_c, 0, 64, 79
1, 171779, Control_c, 0, 64, 78
1, 171788, Note_on_c, 0, 73, 62
1, 171788, Note_off_c, 0, 75, 54
1, 171791, Note_on_c, 0, 69, 50
1, 171794, Control_c, 0, 64, 76
1, 171809, Control_c, 0, 64, 72
1, 171824, Control_c, 0, 64, 66
1, 171839, Control_c, 0, 64, 60
1, 171853, Control_c, 0, 64, 55
1, 171868, Control_c, 0, 64, 52
1, 171898, Control_c, 0, 64, 53
1, 171913, Control_c, 0, 64, 56
1, 171927, Control_c, 0, 64, 60
1, 171942, Control_c, 0, 64, 63
1, 171957, Control_c, 0, 64, 65
1, 171958, Note_on_c, 0, 64, 37
1, 171959, Note_on_c, 0, 61, 46
1, 171971, Control_c, 0, 64, 67
1, 171986, Control_c, 0, 64, 69
1, 171991, Note_off_c, 0, 69, 41
1, 171996, Note_off_c, 0, 61, 64
1, 172001, Control_c, 0, 64, 71
1, 172004, Note_off_c, 0, 64, 59
1, 172016, Control_c, 0, 64, 73
1, 172031, Control_c, 0, 64, 75
1, 172045, Control_c, 0, 64, 77
1, 172060, Control_c, 0, 64, 78
1, 172118, Note_on_c, 0, 61, 47
1, 172128, Note_on_c, 0, 64, 43
1, 172149, Control_c, 0, 64, 78
1, 172173, Note_off_c, 0, 61, 57
1, 172173, Note_off_c, 0, 64, 57
1, 172193, Control_c, 0, 64, 78
1, 172194, Note_on_c, 0, 68, 64
1, 172223, Control_c, 0, 64, 77
1, 172238, Control_c, 0, 64, 75
1, 172253, Control_c, 0, 64, 72
1, 172262, Note_off_c, 0, 68, 60
1, 172268, Control_c, 0, 64, 66
1, 172269, Note_on_c, 0, 67, 61
1, 172283, Control_c, 0, 64, 60
1, 172298, Control_c, 0, 64, 54
1, 172312, Control_c, 0, 64, 52
1, 172357, Control_c, 0, 64, 54
1, 172371, Control_c, 0, 64, 58
1, 172393, Control_c, 0, 64, 61
1, 172408, Control_c, 0, 64, 63
1, 172423, Control_c, 0, 64, 65
1, 172429, Note_on_c, 0, 62, 40
1, 172438, Note_on_c, 0, 64, 40
1, 172438, Control_c, 0, 64, 66
1, 172453, Control_c, 0, 64, 68
1, 172468, Control_c, 0, 64, 70
1, 172476, Note_off_c, 0, 64, 60
1, 172477, Note_off_c, 0, 62, 60
1, 172483, Control_c, 0, 64, 73
1, 172498, Control_c, 0, 64, 75
1, 172512, Control_c, 0, 64, 77
1, 172527, Control_c, 0, 64, 78
1, 172542, Control_c, 0, 64, 79
1, 172561, Note_off_c, 0, 73, 39
1, 172587, Note_on_c, 0, 64, 45
1, 172594, Note_on_c, 0, 62, 46
1, 172657, Note_off_c, 0, 64, 51
1, 172670, Note_on_c, 0, 72, 66
1, 172675, Control_c, 0, 64, 78
1, 172679, Note_off_c, 0, 67, 36
1, 172690, Control_c, 0, 64, 78
1, 172699, Note_off_c, 0, 62, 32
1, 172705, Control_c, 0, 64, 77
1, 172720, Control_c, 0, 64, 75
1, 172735, Control_c, 0, 64, 70
1, 172749, Control_c, 0, 64, 65
1, 172761, Note_on_c, 0, 71, 70
1, 172764, Control_c, 0, 64, 62
1, 172779, Control_c, 0, 64, 62
1, 172783, Note_off_c, 0, 72, 55
1, 172787, Poly_aftertouch_c, 0, 52, 0
1, 172793, Control_c, 0, 64, 63
1, 172808, Control_c, 0, 64, 64
1, 172823, Control_c, 0, 64, 65
1, 172838, Control_c, 0, 64, 68
1, 172853, Control_c, 0, 64, 72
1, 172867, Control_c, 0, 64, 76
1, 172882, Control_c, 0, 64, 79
1, 172883, Note_off_c, 0, 71, 57
1, 172897, Control_c, 0, 64, 82
1, 172912, Control_c, 0, 64, 83
1, 172927, Control_c, 0, 64, 84
1, 172928, Note_on_c, 0, 69, 68
1, 172933, Note_on_c, 0, 62, 36
1, 172939, Note_on_c, 0, 65, 51
1, 172957, Control_c, 0, 64, 85
1, 172995, Note_off_c, 0, 69, 62
1, 172999, Note_off_c, 0, 65, 51
1, 173001, Note_off_c, 0, 62, 51
1, 173046, Control_c, 0, 64, 84
1, 173090, Control_c, 0, 64, 84
1, 173106, Note_on_c, 0, 70, 76
1, 173120, Control_c, 0, 64, 83
1, 173150, Note_on_c, 0, 62, 47
1, 173150, Note_on_c, 0, 65, 16
1, 173186, Control_c, 0, 64, 83
1, 173209, Note_off_c, 0, 62, 56
1, 173222, Note_off_c, 0, 65, 37
1, 173231, Control_c, 0, 64, 82
1, 173290, Note_off_c, 0, 70, 53
1, 173305, Control_c, 0, 64, 82
1, 173337, Note_on_c, 0, 57, 44
1, 173350, Control_c, 0, 64, 81
1, 173364, Control_c, 0, 64, 81
1, 173373, Note_on_c, 0, 71, 63
1, 173379, Control_c, 0, 64, 78
1, 173394, Control_c, 0, 64, 73
1, 173409, Control_c, 0, 64, 66
1, 173423, Control_c, 0, 64, 59
1, 173438, Control_c, 0, 64, 52
1, 173453, Control_c, 0, 64, 50
1, 173483, Control_c, 0, 64, 51
1, 173497, Control_c, 0, 64, 54
1, 173512, Control_c, 0, 64, 59
1, 173527, Control_c, 0, 64, 62
1, 173541, Control_c, 0, 64, 64
1, 173556, Control_c, 0, 64, 66
1, 173558, Note_off_c, 0, 71, 60
1, 173571, Control_c, 0, 64, 68
1, 173586, Control_c, 0, 64, 70
1, 173601, Control_c, 0, 64, 74
1, 173615, Control_c, 0, 64, 77
1, 173625, Note_on_c, 0, 62, 39
1, 173630, Control_c, 0, 64, 79
1, 173633, Note_on_c, 0, 66, 38
1, 173645, Control_c, 0, 64, 82
1, 173660, Control_c, 0, 64, 85
1, 173674, Note_off_c, 0, 62, 61
1, 173675, Control_c, 0, 64, 87
1, 173685, Note_off_c, 0, 66, 53
1, 173690, Control_c, 0, 64, 89
1, 173705, Control_c, 0, 64, 90
1, 173720, Control_c, 0, 64, 90
1, 173794, Note_on_c, 0, 62, 47
1, 173805, Note_on_c, 0, 66, 31
1, 173842, Note_off_c, 0, 62, 60
1, 173865, Note_off_c, 0, 66, 42
1, 173890, Control_c, 0, 64, 90
1, 173919, Note_on_c, 0, 80, 69
1, 173934, Note_on_c, 0, 72, 50
1, 173934, Control_c, 0, 64, 89
1, 173949, Control_c, 0, 64, 89
1, 173979, Control_c, 0, 64, 88
1, 173981, Note_off_c, 0, 72, 57
1, 174009, Control_c, 0, 64, 88
1, 174039, Control_c, 0, 64, 87
1, 174051, Note_on_c, 0, 62, 44
1, 174065, Note_on_c, 0, 66, 39
1, 174107, Note_off_c, 0, 62, 59
1, 174112, Note_off_c, 0, 66, 47
1, 174113, Control_c, 0, 64, 87
1, 174122, Note_on_c, 0, 78, 79
1, 174179, Note_off_c, 0, 80, 54
1, 174188, Control_c, 0, 64, 86
1, 174203, Control_c, 0, 64, 86
1, 174226, Note_on_c, 0, 66, 56
1, 174232, Note_on_c, 0, 62, 55
1, 174247, Control_c, 0, 64, 85
1, 174274, Note_off_c, 0, 62, 58
1, 174277, Control_c, 0, 64, 85
1, 174292, Control_c, 0, 64, 84
1, 174307, Control_c, 0, 64, 83
1, 174321, Control_c, 0, 64, 82
1, 174332, Note_off_c, 0, 66, 36
1, 174336, Control_c, 0, 64, 81
1, 174351, Control_c, 0, 64, 79
1, 174365, Control_c, 0, 64, 76
1, 174374, Note_off_c, 0, 78, 59
1, 174375, Note_on_c, 0, 85, 75
1, 174377, Note_on_c, 0, 73, 60
1, 174380, Control_c, 0, 64, 70
1, 174395, Control_c, 0, 64, 64
1, 174410, Control_c, 0, 64, 55
1, 174425, Control_c, 0, 64, 46
1, 174439, Control_c, 0, 64, 43
1, 174469, Control_c, 0, 64, 45
1, 174484, Control_c, 0, 64, 50
1, 174499, Control_c, 0, 64, 56
1, 174513, Control_c, 0, 64, 60
1, 174528, Note_off_c, 0, 73, 59
1, 174528, Control_c, 0, 64, 63
1, 174543, Control_c, 0, 64, 65
1, 174551, Note_off_c, 0, 85, 61
1, 174557, Note_on_c, 0, 63, 38
1, 174557, Control_c, 0, 64, 68
1, 174561, Note_on_c, 0, 67, 36
1, 174572, Control_c, 0, 64, 71
1, 174587, Control_c, 0, 64, 74
1, 174596, Note_off_c, 0, 63, 60
1, 174602, Control_c, 0, 64, 76
1, 174612, Note_off_c, 0, 67, 61
1, 174617, Control_c, 0, 64, 78
1, 174718, Note_on_c, 0, 63, 42
1, 174741, Note_on_c, 0, 67, 40
1, 174757, Control_c, 0, 64, 77
1, 174769, Note_off_c, 0, 63, 57
1, 174781, Note_off_c, 0, 67, 56
1, 174802, Control_c, 0, 64, 77
1, 174817, Control_c, 0, 64, 76
1, 174832, Control_c, 0, 64, 76
1, 174846, Control_c, 0, 64, 75
1, 174861, Control_c, 0, 64, 74
1, 174876, Control_c, 0, 64, 71
1, 174882, Note_on_c, 0, 87, 64
1, 174890, Note_on_c, 0, 73, 45
1, 174891, Control_c, 0, 64, 67
1, 174906, Control_c, 0, 64, 62
1, 174921, Control_c, 0, 64, 60
1, 174936, Control_c, 0, 64, 61
1, 174951, Control_c, 0, 64, 61
1, 174966, Control_c, 0, 64, 62
1, 174981, Control_c, 0, 64, 64
1, 174995, Control_c, 0, 64, 66
1, 175010, Control_c, 0, 64, 68
1, 175025, Control_c, 0, 64, 71
1, 175036, Note_off_c, 0, 73, 41
1, 175040, Note_off_c, 0, 87, 58
1, 175040, Control_c, 0, 64, 73
1, 175055, Control_c, 0, 64, 75
1, 175061, Note_on_c, 0, 63, 41
1, 175069, Control_c, 0, 64, 76
1, 175071, Note_on_c, 0, 67, 30
1, 175084, Control_c, 0, 64, 77
1, 175099, Control_c, 0, 64, 78
1, 175110, Note_off_c, 0, 63, 60
1, 175122, Note_off_c, 0, 67, 47
1, 175129, Control_c, 0, 64, 78
1, 175158, Control_c, 0, 64, 79
1, 175263, Note_off_c, 0, 57, 38
1, 175282, Note_on_c, 0, 63, 33
1, 175285, Note_on_c, 0, 67, 17
1, 175335, Note_off_c, 0, 63, 43
1, 175348, Note_off_c, 0, 67, 40
1, 175417, Control_c, 0, 64, 78
1, 175532, Note_on_c, 0, 56, 34
1, 175535, Control_c, 0, 64, 78
1, 175580, Control_c, 0, 64, 77
1, 175601, Note_on_c, 0, 84, 56
1, 175610, Control_c, 0, 64, 77
1, 175612, Note_on_c, 0, 74, 43
1, 175625, Control_c, 0, 64, 76
1, 175639, Control_c, 0, 64, 75
1, 175654, Control_c, 0, 64, 71
1, 175669, Control_c, 0, 64, 66
1, 175684, Control_c, 0, 64, 61
1, 175699, Control_c, 0, 64, 57
1, 175714, Control_c, 0, 64, 55
1, 175744, Control_c, 0, 64, 56
1, 175759, Control_c, 0, 64, 58
1, 175774, Control_c, 0, 64, 61
1, 175788, Control_c, 0, 64, 63
1, 175803, Control_c, 0, 64, 65
1, 175818, Control_c, 0, 64, 67
1, 175833, Control_c, 0, 64, 70
1, 175842, Note_off_c, 0, 74, 40
1, 175848, Control_c, 0, 64, 73
1, 175863, Control_c, 0, 64, 75
1, 175870, Note_on_c, 0, 64, 34
1, 175878, Control_c, 0, 64, 77
1, 175883, Note_on_c, 0, 68, 36
1, 175892, Control_c, 0, 64, 78
1, 175907, Control_c, 0, 64, 79
1, 175922, Control_c, 0, 64, 79
1, 175926, Note_off_c, 0, 64, 56
1, 175933, Note_off_c, 0, 68, 53
1, 176063, Note_on_c, 0, 68, 42
1, 176066, Note_on_c, 0, 64, 40
1, 176068, Note_off_c, 0, 84, 38
1, 176099, Note_off_c, 0, 64, 55
1, 176099, Control_c, 0, 64, 79
1, 176124, Note_off_c, 0, 68, 50
1, 176140, Note_on_c, 0, 82, 54
1, 176196, Control_c, 0, 64, 78
1, 176211, Control_c, 0, 64, 78
1, 176225, Control_c, 0, 64, 77
1, 176237, Note_on_c, 0, 80, 62
1, 176240, Control_c, 0, 64, 76
1, 176251, Note_off_c, 0, 82, 54
1, 176255, Control_c, 0, 64, 73
1, 176270, Control_c, 0, 64, 69
1, 176272, Note_on_c, 0, 75, 36
1, 176284, Control_c, 0, 64, 64
1, 176299, Control_c, 0, 64, 59
1, 176314, Control_c, 0, 64, 57
1, 176358, Control_c, 0, 64, 58
1, 176373, Control_c, 0, 64, 60
1, 176388, Control_c, 0, 64, 62
1, 176397, Note_on_c, 0, 63, 37
1, 176403, Control_c, 0, 64, 65
1, 176405, Note_on_c, 0, 67, 33
1, 176417, Control_c, 0, 64, 66
1, 176432, Control_c, 0, 64, 68
1, 176447, Control_c, 0, 64, 70
1, 176448, Note_off_c, 0, 63, 60
1, 176458, Note_off_c, 0, 67, 59
1, 176462, Control_c, 0, 64, 72
1, 176467, Note_off_c, 0, 75, 36
1, 176477, Control_c, 0, 64, 73
1, 176493, Control_c, 0, 64, 75
1, 176522, Control_c, 0, 64, 75
1, 176568, Note_on_c, 0, 63, 46
1, 176597, Note_on_c, 0, 67, 26
1, 176611, Note_off_c, 0, 63, 60
1, 176631, Note_off_c, 0, 67, 43
1, 176686, Control_c, 0, 64, 75
1, 176715, Control_c, 0, 64, 74
1, 176730, Control_c, 0, 64, 74
1, 176737, Note_on_c, 0, 76, 58
1, 176745, Control_c, 0, 64, 73
1, 176760, Control_c, 0, 64, 71
1, 176775, Control_c, 0, 64, 67
1, 176789, Control_c, 0, 64, 62
1, 176804, Control_c, 0, 64, 58
1, 176819, Control_c, 0, 64, 56
1, 176833, Control_c, 0, 64, 56
1, 176848, Control_c, 0, 64, 56
1, 176863, Control_c, 0, 64, 58
1, 176885, Control_c, 0, 64, 60
1, 176900, Note_on_c, 0, 66, 37
1, 176900, Control_c, 0, 64, 62
1, 176902, Note_on_c, 0, 62, 36
1, 176915, Control_c, 0, 64, 64
1, 176930, Control_c, 0, 64, 65
1, 176945, Control_c, 0, 64, 67
1, 176960, Control_c, 0, 64, 69
1, 176963, Note_off_c, 0, 66, 56
1, 176975, Control_c, 0, 64, 71
1, 176975, Note_off_c, 0, 62, 57
1, 176989, Control_c, 0, 64, 72
1, 177004, Control_c, 0, 64, 73
1, 177009, Note_off_c, 0, 76, 53
1, 177019, Control_c, 0, 64, 74
1, 177033, Control_c, 0, 64, 74
1, 177063, Control_c, 0, 64, 75
1, 177074, Note_on_c, 0, 66, 39
1, 177097, Note_on_c, 0, 62, 33
1, 177140, Note_off_c, 0, 66, 52
1, 177141, Note_off_c, 0, 62, 57
1, 177152, Control_c, 0, 64, 74
1, 177196, Control_c, 0, 64, 74
1, 177226, Control_c, 0, 64, 73
1, 177255, Control_c, 0, 64, 73
1, 177261, Note_on_c, 0, 77, 49
1, 177270, Control_c, 0, 64, 72
1, 177286, Control_c, 0, 64, 69
1, 177301, Control_c, 0, 64, 66
1, 177316, Control_c, 0, 64, 61
1, 177330, Control_c, 0, 64, 58
1, 177343, Note_off_c, 0, 80, 27
1, 177345, Control_c, 0, 64, 56
1, 177360, Control_c, 0, 64, 55
1, 177389, Control_c, 0, 64, 56
1, 177404, Control_c, 0, 64, 58
1, 177419, Control_c, 0, 64, 60
1, 177434, Control_c, 0, 64, 62
1, 177447, Note_on_c, 0, 61, 33
1, 177449, Control_c, 0, 64, 64
1, 177458, Note_on_c, 0, 65, 30
1, 177464, Control_c, 0, 64, 65
1, 177479, Control_c, 0, 64, 67
1, 177494, Control_c, 0, 64, 69
1, 177497, Note_off_c, 0, 61, 53
1, 177508, Control_c, 0, 64, 72
1, 177514, Note_off_c, 0, 65, 50
1, 177523, Control_c, 0, 64, 76
1, 177538, Control_c, 0, 64, 79
1, 177553, Control_c, 0, 64, 83
1, 177565, Note_off_c, 0, 77, 37
1, 177568, Control_c, 0, 64, 87
1, 177582, Control_c, 0, 64, 90
1, 177597, Control_c, 0, 64, 91
1, 177612, Control_c, 0, 64, 92
1, 177634, Control_c, 0, 64, 92
1, 177726, Note_on_c, 0, 65, 31
1, 177731, Note_on_c, 0, 61, 35
1, 177749, Note_off_c, 0, 56, 39
1, 177872, Control_c, 0, 64, 92
1, 177976, Control_c, 0, 64, 91
1, 178020, Control_c, 0, 64, 91
1, 178073, Note_on_c, 0, 55, 42
1, 178080, Control_c, 0, 64, 90
1, 178084, Note_off_c, 0, 65, 33
1, 178110, Control_c, 0, 64, 90
1, 178125, Control_c, 0, 64, 89
1, 178140, Control_c, 0, 64, 89
1, 178169, Control_c, 0, 64, 88
1, 178184, Control_c, 0, 64, 88
1, 178199, Control_c, 0, 64, 87
1, 178213, Control_c, 0, 64, 85
1, 178228, Note_off_c, 0, 61, 36
1, 178228, Control_c, 0, 64, 82
1, 178243, Control_c, 0, 64, 76
1, 178258, Control_c, 0, 64, 69
1, 178273, Control_c, 0, 64, 64
1, 178287, Control_c, 0, 64, 61
1, 178302, Control_c, 0, 64, 60
1, 178310, Note_on_c, 0, 80, 42
1, 178320, Note_on_c, 0, 77, 31
1, 178332, Control_c, 0, 64, 61
1, 178347, Control_c, 0, 64, 62
1, 178361, Control_c, 0, 64, 64
1, 178384, Control_c, 0, 64, 65
1, 178399, Control_c, 0, 64, 66
1, 178413, Control_c, 0, 64, 68
1, 178428, Control_c, 0, 64, 70
1, 178443, Control_c, 0, 64, 72
1, 178458, Control_c, 0, 64, 74
1, 178473, Control_c, 0, 64, 76
1, 178487, Control_c, 0, 64, 78
1, 178502, Control_c, 0, 64, 79
1, 178513, Note_off_c, 0, 77, 41
1, 178517, Control_c, 0, 64, 81
1, 178532, Control_c, 0, 64, 84
1, 178534, Note_on_c, 0, 68, 42
1, 178536, Note_on_c, 0, 73, 38
1, 178547, Control_c, 0, 64, 86
1, 178561, Control_c, 0, 64, 88
1, 178576, Control_c, 0, 64, 89
1, 178591, Control_c, 0, 64, 90
1, 178599, Note_off_c, 0, 80, 22
1, 178639, Note_off_c, 0, 73, 38
1, 178694, Note_on_c, 0, 61, 50
1, 178718, Note_off_c, 0, 68, 21
1, 178725, Control_c, 0, 64, 90
1, 178757, Note_off_c, 0, 55, 34
1, 178850, Note_off_c, 0, 61, 51
1, 178862, Note_on_c, 0, 80, 31
1, 178866, Note_on_c, 0, 77, 33
1, 178918, Control_c, 0, 64, 90
1, 178941, Note_off_c, 0, 77, 36
1, 178984, Note_on_c, 0, 60, 45
1, 178992, Control_c, 0, 64, 89
1, 179026, Note_off_c, 0, 80, 31
1, 179096, Control_c, 0, 64, 89
1, 179118, Note_on_c, 0, 68, 38
1, 179136, Note_on_c, 0, 72, 37
1, 179178, Note_off_c, 0, 60, 35
1, 179193, Note_off_c, 0, 72, 46
1, 179222, Control_c, 0, 64, 88
1, 179262, Note_off_c, 0, 68, 34
1, 179280, Control_c, 0, 64, 88
1, 179309, Control_c, 0, 64, 87
1, 179324, Control_c, 0, 64, 87
1, 179328, Note_on_c, 0, 68, 40
1, 179339, Control_c, 0, 64, 86
1, 179354, Control_c, 0, 64, 85
1, 179369, Control_c, 0, 64, 81
1, 179383, Control_c, 0, 64, 75
1, 179398, Control_c, 0, 64, 68
1, 179413, Control_c, 0, 64, 63
1, 179428, Control_c, 0, 64, 59
1, 179443, Control_c, 0, 64, 58
1, 179473, Control_c, 0, 64, 59
1, 179488, Control_c, 0, 64, 61
1, 179502, Control_c, 0, 64, 63
1, 179517, Control_c, 0, 64, 65
1, 179518, Note_on_c, 0, 67, 47
1, 179532, Control_c, 0, 64, 67
1, 179547, Control_c, 0, 64, 70
1, 179562, Control_c, 0, 64, 73
1, 179576, Control_c, 0, 64, 76
1, 179591, Control_c, 0, 64, 78
1, 179606, Control_c, 0, 64, 80
1, 179611, Note_off_c, 0, 67, 52
1, 179621, Control_c, 0, 64, 80
1, 179624, Note_off_c, 0, 68, 35
1, 179708, Note_on_c, 0, 73, 51
1, 179847, Note_off_c, 0, 73, 36
1, 179896, Control_c, 0, 64, 80
1, 179905, Note_on_c, 0, 64, 31
1, 179911, Control_c, 0, 64, 79
1, 179912, Note_on_c, 0, 72, 48
1, 179926, Control_c, 0, 64, 78
1, 179940, Control_c, 0, 64, 75
1, 179955, Control_c, 0, 64, 70
1, 179970, Control_c, 0, 64, 65
1, 179984, Control_c, 0, 64, 61
1, 179999, Control_c, 0, 64, 58
1, 180014, Control_c, 0, 64, 58
1, 180058, Control_c, 0, 64, 59
1, 180073, Control_c, 0, 64, 60
1, 180088, Control_c, 0, 64, 62
1, 180103, Control_c, 0, 64, 63
1, 180118, Control_c, 0, 64, 65
1, 180132, Control_c, 0, 64, 67
1, 180147, Control_c, 0, 64, 70
1, 180162, Control_c, 0, 64, 75
1, 180169, Note_off_c, 0, 72, 58
1, 180177, Control_c, 0, 64, 79
1, 180192, Control_c, 0, 64, 85
1, 180206, Control_c, 0, 64, 92
1, 180214, Note_on_c, 0, 65, 37
1, 180221, Control_c, 0, 64, 99
1, 180236, Control_c, 0, 64, 109
1, 180251, Control_c, 0, 64, 127
1, 180267, Note_off_c, 0, 64, 36
1, 180427, Note_off_c, 0, 65, 39
1, 180469, Note_on_c, 0, 80, 43
1, 181065, Note_on_c, 0, 54, 33
1, 181065, Note_on_c, 0, 68, 39
1, 181103, Control_c, 0, 64, 115
1, 181106, Note_off_c, 0, 80, 24
1, 181118, Control_c, 0, 64, 108
1, 181133, Control_c, 0, 64, 101
1, 181148, Control_c, 0, 64, 88
1, 181163, Control_c, 0, 64, 76
1, 181178, Control_c, 0, 64, 66
1, 181193, Control_c, 0, 64, 60
1, 181207, Control_c, 0, 64, 56
1, 181222, Control_c, 0, 64, 57
1, 181237, Control_c, 0, 64, 58
1, 181252, Control_c, 0, 64, 59
1, 181267, Control_c, 0, 64, 61
1, 181282, Control_c, 0, 64, 62
1, 181297, Control_c, 0, 64, 64
1, 181312, Control_c, 0, 64, 65
1, 181327, Control_c, 0, 64, 67
1, 181342, Control_c, 0, 64, 69
1, 181357, Control_c, 0, 64, 72
1, 181378, Control_c, 0, 64, 74
1, 181393, Control_c, 0, 64, 77
1, 181408, Control_c, 0, 64, 79
1, 181423, Control_c, 0, 64, 82
1, 181437, Control_c, 0, 64, 86
1, 181452, Control_c, 0, 64, 89
1, 181467, Control_c, 0, 64, 92
1, 181483, Control_c, 0, 64, 95
1, 181498, Control_c, 0, 64, 98
1, 181512, Control_c, 0, 64, 101
1, 181520, Note_off_c, 0, 68, 33
1, 181527, Control_c, 0, 64, 104
1, 181542, Control_c, 0, 64, 107
1, 181557, Control_c, 0, 64, 108
1, 181572, Control_c, 0, 64, 108
1, 181586, Control_c, 0, 64, 109
1, 181601, Control_c, 0, 64, 110
1, 181642, Note_on_c, 0, 59, 25
1, 181643, Note_on_c, 0, 63, 26
1, 181745, Note_off_c, 0, 59, 39
1, 181766, Note_off_c, 0, 63, 34
1, 181926, Note_on_c, 0, 59, 29
1, 181928, Note_on_c, 0, 63, 30
1, 182045, Control_c, 0, 64, 109
1, 182053, Note_off_c, 0, 59, 31
1, 182083, Note_off_c, 0, 63, 34
1, 182106, Control_c, 0, 64, 108
1, 182143, Note_on_c, 0, 77, 48
1, 182164, Note_on_c, 0, 69, 33
1, 182232, Control_c, 0, 64, 108
1, 182247, Control_c, 0, 64, 107
1, 182276, Control_c, 0, 64, 107
1, 182319, Note_off_c, 0, 69, 41
1, 182329, Note_on_c, 0, 59, 38
1, 182335, Note_on_c, 0, 63, 29
1, 182365, Control_c, 0, 64, 106
1, 182380, Control_c, 0, 64, 105
1, 182391, Note_off_c, 0, 59, 55
1, 182403, Note_off_c, 0, 63, 44
1, 182420, Note_on_c, 0, 75, 56
1, 182422, Note_off_c, 0, 77, 38
1, 182424, Control_c, 0, 64, 105
1, 182439, Control_c, 0, 64, 104
1, 182454, Control_c, 0, 64, 104
1, 182513, Control_c, 0, 64, 103
1, 182528, Control_c, 0, 64, 103
1, 182536, Note_off_c, 0, 75, 55
1, 182543, Control_c, 0, 64, 102
1, 182560, Note_on_c, 0, 59, 35
1, 182565, Note_on_c, 0, 63, 24
1, 182573, Control_c, 0, 64, 102
1, 182602, Control_c, 0, 64, 101
1, 182603, Note_off_c, 0, 59, 53
1, 182628, Note_off_c, 0, 63, 38
1, 182632, Control_c, 0, 64, 101
1, 182646, Control_c, 0, 64, 100
1, 182661, Control_c, 0, 64, 100
1, 182676, Control_c, 0, 64, 99
1, 182691, Control_c, 0, 64, 98
1, 182706, Control_c, 0, 64, 97
1, 182720, Control_c, 0, 64, 96
1, 182735, Control_c, 0, 64, 94
1, 182740, Note_on_c, 0, 82, 64
1, 182748, Note_on_c, 0, 70, 44
1, 182750, Control_c, 0, 64, 92
1, 182765, Control_c, 0, 64, 87
1, 182780, Control_c, 0, 64, 80
1, 182795, Control_c, 0, 64, 71
1, 182809, Control_c, 0, 64, 64
1, 182824, Control_c, 0, 64, 57
1, 182839, Control_c, 0, 64, 54
1, 182877, Control_c, 0, 64, 55
1, 182892, Control_c, 0, 64, 57
1, 182907, Control_c, 0, 64, 59
1, 182922, Control_c, 0, 64, 62
1, 182937, Control_c, 0, 64, 64
1, 182949, Note_on_c, 0, 60, 33
1, 182951, Note_on_c, 0, 64, 34
1, 182951, Control_c, 0, 64, 65
1, 182966, Control_c, 0, 64, 68
1, 182980, Control_c, 0, 64, 70
1, 182995, Control_c, 0, 64, 73
1, 183010, Control_c, 0, 64, 76
1, 183013, Note_off_c, 0, 60, 52
1, 183017, Note_off_c, 0, 64, 54
1, 183024, Control_c, 0, 64, 78
1, 183039, Control_c, 0, 64, 80
1, 183049, Note_off_c, 0, 82, 32
1, 183054, Control_c, 0, 64, 81
1, 183069, Control_c, 0, 64, 82
1, 183122, Note_off_c, 0, 70, 25
1, 183143, Control_c, 0, 64, 83
1, 183149, Note_on_c, 0, 64, 35
1, 183161, Note_on_c, 0, 60, 29
1, 183204, Note_off_c, 0, 60, 48
1, 183215, Note_off_c, 0, 64, 52
1, 183276, Control_c, 0, 64, 82
1, 183310, Note_on_c, 0, 80, 53
1, 183327, Note_on_c, 0, 71, 40
1, 183336, Control_c, 0, 64, 81
1, 183350, Control_c, 0, 64, 80
1, 183365, Control_c, 0, 64, 77
1, 183380, Control_c, 0, 64, 72
1, 183395, Control_c, 0, 64, 66
1, 183410, Control_c, 0, 64, 62
1, 183424, Control_c, 0, 64, 60
1, 183439, Control_c, 0, 64, 61
1, 183468, Control_c, 0, 64, 62
1, 183483, Control_c, 0, 64, 63
1, 183498, Control_c, 0, 64, 64
1, 183513, Control_c, 0, 64, 66
1, 183521, Note_on_c, 0, 61, 31
1, 183528, Note_on_c, 0, 65, 22
1, 183528, Control_c, 0, 64, 69
1, 183542, Control_c, 0, 64, 71
1, 183557, Control_c, 0, 64, 75
1, 183572, Control_c, 0, 64, 77
1, 183587, Control_c, 0, 64, 78
1, 183589, Note_off_c, 0, 61, 41
1, 183601, Control_c, 0, 64, 80
1, 183602, Note_off_c, 0, 71, 28
1, 183616, Note_off_c, 0, 65, 33
1, 183616, Control_c, 0, 64, 82
1, 183639, Control_c, 0, 64, 84
1, 183654, Control_c, 0, 64, 86
1, 183669, Control_c, 0, 64, 87
1, 183685, Control_c, 0, 64, 87
1, 183728, Note_on_c, 0, 65, 15
1, 183743, Note_on_c, 0, 61, 35
1, 183758, Control_c, 0, 64, 88
1, 183772, Control_c, 0, 64, 88
1, 183787, Control_c, 0, 64, 89
1, 183804, Note_off_c, 0, 61, 47
1, 183843, Note_off_c, 0, 65, 35
1, 183849, Note_off_c, 0, 80, 29
1, 183980, Control_c, 0, 64, 88
1, 184039, Control_c, 0, 64, 88
1, 184054, Control_c, 0, 64, 87
1, 184058, Note_on_c, 0, 78, 46
1, 184069, Control_c, 0, 64, 87
1, 184074, Note_on_c, 0, 72, 35
1, 184084, Control_c, 0, 64, 86
1, 184098, Control_c, 0, 64, 86
1, 184113, Control_c, 0, 64, 84
1, 184128, Control_c, 0, 64, 81
1, 184143, Control_c, 0, 64, 76
1, 184158, Control_c, 0, 64, 70
1, 184172, Control_c, 0, 64, 64
1, 184187, Control_c, 0, 64, 60
1, 184202, Control_c, 0, 64, 60
1, 184246, Control_c, 0, 64, 61
1, 184261, Control_c, 0, 64, 62
1, 184276, Control_c, 0, 64, 64
1, 184290, Control_c, 0, 64, 65
1, 184305, Note_on_c, 0, 66, 31
1, 184305, Control_c, 0, 64, 67
1, 184310, Note_on_c, 0, 62, 24
1, 184320, Control_c, 0, 64, 70
1, 184335, Control_c, 0, 64, 72
1, 184350, Control_c, 0, 64, 75
1, 184372, Control_c, 0, 64, 78
1, 184373, Note_off_c, 0, 66, 52
1, 184385, Note_off_c, 0, 62, 44
1, 184387, Control_c, 0, 64, 80
1, 184402, Control_c, 0, 64, 82
1, 184417, Control_c, 0, 64, 84
1, 184426, Note_off_c, 0, 78, 57
1, 184431, Control_c, 0, 64, 85
1, 184457, Note_off_c, 0, 72, 37
1, 184492, Note_on_c, 0, 62, 38
1, 184518, Note_on_c, 0, 66, 18
1, 184551, Note_off_c, 0, 62, 55
1, 184581, Control_c, 0, 64, 84
1, 184585, Note_on_c, 0, 77, 51
1, 184588, Note_off_c, 0, 66, 40
1, 184625, Control_c, 0, 64, 84
1, 184681, Note_off_c, 0, 77, 55
1, 184684, Control_c, 0, 64, 83
1, 184698, Note_on_c, 0, 71, 38
1, 184699, Control_c, 0, 64, 82
1, 184704, Note_on_c, 0, 75, 53
1, 184714, Control_c, 0, 64, 80
1, 184728, Control_c, 0, 64, 76
1, 184743, Control_c, 0, 64, 70
1, 184758, Control_c, 0, 64, 64
1, 184773, Control_c, 0, 64, 61
1, 184788, Control_c, 0, 64, 60
1, 184803, Control_c, 0, 64, 61
1, 184818, Control_c, 0, 64, 61
1, 184833, Control_c, 0, 64, 62
1, 184847, Control_c, 0, 64, 64
1, 184862, Control_c, 0, 64, 65
1, 184877, Control_c, 0, 64, 67
1, 184880, Note_on_c, 0, 63, 37
1, 184888, Note_on_c, 0, 66, 28
1, 184892, Control_c, 0, 64, 69
1, 184907, Control_c, 0, 64, 71
1, 184921, Control_c, 0, 64, 74
1, 184928, Note_off_c, 0, 63, 57
1, 184936, Control_c, 0, 64, 76
1, 184940, Note_off_c, 0, 66, 45
1, 184951, Control_c, 0, 64, 78
1, 184966, Control_c, 0, 64, 79
1, 184976, Note_off_c, 0, 71, 43
1, 184981, Control_c, 0, 64, 81
1, 184995, Control_c, 0, 64, 81
1, 185010, Control_c, 0, 64, 82
1, 185059, Note_on_c, 0, 63, 42
1, 185085, Note_on_c, 0, 66, 33
1, 185129, Note_off_c, 0, 63, 55
1, 185144, Note_off_c, 0, 66, 43
1, 185169, Note_on_c, 0, 70, 44
1, 185181, Control_c, 0, 64, 81
1, 185240, Control_c, 0, 64, 81
1, 185252, Note_off_c, 0, 70, 48
1, 185254, Control_c, 0, 64, 80
1, 185270, Control_c, 0, 64, 80
1, 185285, Control_c, 0, 64, 79
1, 185286, Note_on_c, 0, 69, 48
1, 185300, Control_c, 0, 64, 77
1, 185315, Control_c, 0, 64, 74
1, 185330, Control_c, 0, 64, 70
1, 185344, Control_c, 0, 64, 64
1, 185359, Control_c, 0, 64, 61
1, 185374, Control_c, 0, 64, 61
1, 185419, Control_c, 0, 64, 62
1, 185433, Control_c, 0, 64, 63
1, 185448, Control_c, 0, 64, 65
1, 185463, Control_c, 0, 64, 66
1, 185465, Note_on_c, 0, 64, 25
1, 185472, Note_on_c, 0, 66, 37
1, 185477, Control_c, 0, 64, 69
1, 185492, Control_c, 0, 64, 71
1, 185507, Control_c, 0, 64, 74
1, 185522, Control_c, 0, 64, 78
1, 185537, Control_c, 0, 64, 80
1, 185551, Control_c, 0, 64, 82
1, 185561, Note_off_c, 0, 66, 39
1, 185566, Note_off_c, 0, 64, 54
1, 185566, Control_c, 0, 64, 84
1, 185581, Control_c, 0, 64, 86
1, 185596, Control_c, 0, 64, 87
1, 185611, Control_c, 0, 64, 88
1, 185614, Note_off_c, 0, 75, 38
1, 185640, Control_c, 0, 64, 88
1, 185670, Control_c, 0, 64, 89
1, 185725, Note_on_c, 0, 66, 26
1, 185759, Poly_aftertouch_c, 0, 64, 127
1, 185819, Note_off_c, 0, 66, 35
1, 185825, Poly_aftertouch_c, 0, 64, 0
1, 185827, Note_on_c, 0, 74, 44
1, 185829, Note_off_c, 0, 69, 42
1, 185900, Control_c, 0, 64, 88
1, 185989, Control_c, 0, 64, 87
1, 186003, Control_c, 0, 64, 87
1, 186016, Note_on_c, 0, 73, 50
1, 186018, Control_c, 0, 64, 85
1, 186033, Control_c, 0, 64, 82
1, 186048, Control_c, 0, 64, 77
1, 186063, Control_c, 0, 64, 72
1, 186079, Control_c, 0, 64, 70
1, 186088, Note_off_c, 0, 74, 23
1, 186153, Control_c, 0, 64, 70
1, 186182, Control_c, 0, 64, 71
1, 186197, Control_c, 0, 64, 72
1, 186212, Control_c, 0, 64, 74
1, 186214, Note_off_c, 0, 73, 58
1, 186225, Note_on_c, 0, 71, 50
1, 186227, Control_c, 0, 64, 77
1, 186242, Control_c, 0, 64, 80
1, 186246, Note_on_c, 0, 67, 44
1, 186253, Note_on_c, 0, 64, 36
1, 186256, Control_c, 0, 64, 84
1, 186263, Note_off_c, 0, 54, 1
1, 186271, Control_c, 0, 64, 88
1, 186286, Control_c, 0, 64, 92
1, 186299, Note_off_c, 0, 67, 57
1, 186300, Control_c, 0, 64, 95
1, 186307, Note_off_c, 0, 71, 57
1, 186315, Control_c, 0, 64, 99
1, 186330, Note_off_c, 0, 64, 39
1, 186330, Control_c, 0, 64, 102
1, 186345, Control_c, 0, 64, 106
1, 186360, Control_c, 0, 64, 108
1, 186374, Control_c, 0, 64, 110
1, 186389, Control_c, 0, 64, 111
1, 186404, Control_c, 0, 64, 113
1, 186495, Note_on_c, 0, 72, 50
1, 186505, Note_on_c, 0, 64, 31
1, 186523, Note_on_c, 0, 67, 27
1, 186597, Note_off_c, 0, 67, 37
1, 186616, Note_off_c, 0, 72, 61
1, 186672, Note_off_c, 0, 64, 26
1, 186708, Control_c, 0, 64, 112
1, 186737, Control_c, 0, 64, 111
1, 186782, Control_c, 0, 64, 111
1, 186809, Note_on_c, 0, 59, 31
1, 186826, Control_c, 0, 64, 110
1, 186841, Control_c, 0, 64, 110
1, 186856, Control_c, 0, 64, 108
1, 186871, Control_c, 0, 64, 108
1, 186886, Control_c, 0, 64, 107
1, 186901, Control_c, 0, 64, 106
1, 186916, Control_c, 0, 64, 104
1, 186922, Note_on_c, 0, 73, 52
1, 186931, Control_c, 0, 64, 102
1, 186946, Control_c, 0, 64, 99
1, 186961, Control_c, 0, 64, 95
1, 186976, Control_c, 0, 64, 86
1, 186990, Control_c, 0, 64, 77
1, 187005, Control_c, 0, 64, 67
1, 187020, Control_c, 0, 64, 62
1, 187035, Control_c, 0, 64, 60
1, 187049, Control_c, 0, 64, 61
1, 187064, Control_c, 0, 64, 61
1, 187079, Control_c, 0, 64, 62
1, 187094, Control_c, 0, 64, 64
1, 187109, Control_c, 0, 64, 66
1, 187123, Control_c, 0, 64, 68
1, 187138, Control_c, 0, 64, 70
1, 187153, Control_c, 0, 64, 73
1, 187168, Control_c, 0, 64, 75
1, 187183, Control_c, 0, 64, 78
1, 187197, Control_c, 0, 64, 81
1, 187212, Control_c, 0, 64, 84
1, 187219, Note_on_c, 0, 68, 29
1, 187223, Note_on_c, 0, 64, 35
1, 187227, Control_c, 0, 64, 88
1, 187241, Control_c, 0, 64, 92
1, 187256, Control_c, 0, 64, 96
1, 187271, Control_c, 0, 64, 99
1, 187286, Control_c, 0, 64, 100
1, 187292, Note_off_c, 0, 64, 56
1, 187300, Note_off_c, 0, 73, 34
1, 187309, Note_off_c, 0, 68, 37
1, 187316, Control_c, 0, 64, 100
1, 187449, Note_on_c, 0, 68, 22
1, 187452, Note_on_c, 0, 64, 38
1, 187500, Note_off_c, 0, 64, 56
1, 187515, Note_off_c, 0, 68, 39
1, 187602, Note_on_c, 0, 82, 54
1, 187623, Note_on_c, 0, 74, 37
1, 187731, Note_off_c, 0, 74, 55
1, 187765, Note_on_c, 0, 64, 40
1, 187781, Note_on_c, 0, 68, 29
1, 187827, Note_off_c, 0, 64, 55
1, 187834, Note_off_c, 0, 68, 44
1, 187858, Note_on_c, 0, 80, 62
1, 187974, Note_off_c, 0, 82, 28
1, 187989, Note_on_c, 0, 64, 42
1, 188000, Note_on_c, 0, 68, 38
1, 188136, Note_off_c, 0, 64, 35
1, 188168, Note_off_c, 0, 80, 34
1, 188176, Control_c, 0, 64, 100
1, 188191, Control_c, 0, 64, 99
1, 188199, Note_off_c, 0, 68, 36
1, 188200, Note_on_c, 0, 87, 62
1, 188206, Control_c, 0, 64, 98
1, 188213, Note_on_c, 0, 75, 48
1, 188220, Control_c, 0, 64, 96
1, 188235, Control_c, 0, 64, 93
1, 188250, Control_c, 0, 64, 86
1, 188264, Control_c, 0, 64, 77
1, 188279, Control_c, 0, 64, 68
1, 188294, Control_c, 0, 64, 62
1, 188309, Control_c, 0, 64, 58
1, 188324, Control_c, 0, 64, 58
1, 188339, Control_c, 0, 64, 59
1, 188353, Control_c, 0, 64, 61
1, 188368, Control_c, 0, 64, 64
1, 188383, Control_c, 0, 64, 66
1, 188398, Control_c, 0, 64, 69
1, 188413, Note_on_c, 0, 65, 34
1, 188413, Control_c, 0, 64, 74
1, 188419, Note_on_c, 0, 69, 28
1, 188427, Control_c, 0, 64, 79
1, 188442, Control_c, 0, 64, 83
1, 188457, Control_c, 0, 64, 87
1, 188458, Note_off_c, 0, 65, 49
1, 188466, Note_off_c, 0, 87, 53
1, 188472, Note_off_c, 0, 69, 44
1, 188473, Control_c, 0, 64, 91
1, 188477, Note_off_c, 0, 75, 32
1, 188487, Control_c, 0, 64, 94
1, 188502, Control_c, 0, 64, 99
1, 188517, Control_c, 0, 64, 102
1, 188532, Control_c, 0, 64, 103
1, 188547, Control_c, 0, 64, 104
1, 188562, Control_c, 0, 64, 105
1, 188577, Control_c, 0, 64, 106
1, 188591, Control_c, 0, 64, 107
1, 188606, Control_c, 0, 64, 108
1, 188614, Note_on_c, 0, 65, 33
1, 188617, Note_on_c, 0, 69, 34
1, 188621, Control_c, 0, 64, 108
1, 188678, Note_off_c, 0, 65, 43
1, 188699, Note_off_c, 0, 69, 36
1, 188815, Note_on_c, 0, 89, 64
1, 188821, Note_on_c, 0, 75, 53
1, 188870, Note_off_c, 0, 59, 33
1, 188881, Control_c, 0, 64, 109
1, 188887, Note_off_c, 0, 75, 50
1, 188929, Note_off_c, 0, 89, 54
1, 189077, Note_on_c, 0, 65, 10
1, 189104, Poly_aftertouch_c, 0, 69, 127
1, 189164, Note_off_c, 0, 65, 34
1, 189170, Poly_aftertouch_c, 0, 69, 0
1, 189177, Control_c, 0, 64, 108
1, 189192, Control_c, 0, 64, 108
1, 189221, Control_c, 0, 64, 107
1, 189339, Note_on_c, 0, 65, 15
1, 189341, Control_c, 0, 64, 107
1, 189360, Note_on_c, 0, 69, 12
1, 189516, Note_off_c, 0, 65, 38
1, 189548, Control_c, 0, 64, 106
1, 189578, Control_c, 0, 64, 106
1, 189645, Control_c, 0, 64, 105
1, 189674, Control_c, 0, 64, 105
1, 189685, Note_off_c, 0, 69, 0
1, 189689, Control_c, 0, 64, 104
1, 189704, Control_c, 0, 64, 104
1, 189718, Control_c, 0, 64, 102
1, 189721, Poly_aftertouch_c, 0, 69, 127
1, 189733, Control_c, 0, 64, 101
1, 189734, Note_on_c, 0, 64, 33
1, 189742, Note_on_c, 0, 86, 56
1, 189744, Note_on_c, 0, 58, 30
1, 189748, Note_on_c, 0, 76, 44
1, 189748, Control_c, 0, 64, 99
1, 189763, Control_c, 0, 64, 96
1, 189778, Control_c, 0, 64, 90
1, 189792, Control_c, 0, 64, 81
1, 189807, Control_c, 0, 64, 71
1, 189822, Control_c, 0, 64, 65
1, 189837, Control_c, 0, 64, 59
1, 189852, Control_c, 0, 64, 58
1, 189866, Control_c, 0, 64, 59
1, 189881, Control_c, 0, 64, 61
1, 189896, Control_c, 0, 64, 63
1, 189910, Control_c, 0, 64, 65
1, 189925, Control_c, 0, 64, 69
1, 189935, Poly_aftertouch_c, 0, 69, 0
1, 189940, Control_c, 0, 64, 73
1, 189955, Control_c, 0, 64, 78
1, 189970, Control_c, 0, 64, 83
1, 189984, Control_c, 0, 64, 87
1, 189999, Control_c, 0, 64, 91
1, 190014, Control_c, 0, 64, 94
1, 190018, Note_off_c, 0, 64, 32
1, 190029, Control_c, 0, 64, 97
1, 190040, Note_off_c, 0, 76, 38
1, 190043, Control_c, 0, 64, 98
1, 190058, Control_c, 0, 64, 99
1, 190089, Control_c, 0, 64, 99
1, 190119, Control_c, 0, 64, 100
1, 190128, Note_off_c, 0, 86, 54
1, 190134, Control_c, 0, 64, 100
1, 190159, Note_on_c, 0, 70, 38
1, 190159, Note_on_c, 0, 66, 35
1, 190218, Note_off_c, 0, 70, 51
1, 190219, Note_off_c, 0, 66, 49
1, 190408, Note_on_c, 0, 66, 33
1, 190409, Note_on_c, 0, 70, 35
1, 190496, Note_on_c, 0, 84, 47
1, 190496, Control_c, 0, 64, 100
1, 190505, Note_off_c, 0, 66, 34
1, 190505, Note_off_c, 0, 70, 36
1, 190526, Control_c, 0, 64, 99
1, 190556, Control_c, 0, 64, 99
1, 190586, Control_c, 0, 64, 98
1, 190595, Note_off_c, 0, 84, 53
1, 190601, Control_c, 0, 64, 97
1, 190615, Control_c, 0, 64, 96
1, 190620, Note_on_c, 0, 77, 42
1, 190623, Note_on_c, 0, 82, 48
1, 190630, Control_c, 0, 64, 94
1, 190645, Control_c, 0, 64, 91
1, 190659, Control_c, 0, 64, 85
1, 190674, Control_c, 0, 64, 78
1, 190689, Control_c, 0, 64, 70
1, 190704, Control_c, 0, 64, 64
1, 190719, Control_c, 0, 64, 60
1, 190733, Control_c, 0, 64, 58
1, 190748, Control_c, 0, 64, 58
1, 190763, Control_c, 0, 64, 59
1, 190778, Control_c, 0, 64, 61
1, 190793, Control_c, 0, 64, 63
1, 190807, Control_c, 0, 64, 64
1, 190822, Control_c, 0, 64, 67
1, 190828, Note_on_c, 0, 69, 30
1, 190830, Note_on_c, 0, 65, 26
1, 190837, Control_c, 0, 64, 70
1, 190852, Control_c, 0, 64, 73
1, 190868, Control_c, 0, 64, 77
1, 190883, Control_c, 0, 64, 79
1, 190887, Note_off_c, 0, 65, 42
1, 190888, Note_off_c, 0, 69, 43
1, 190898, Control_c, 0, 64, 82
1, 190912, Control_c, 0, 64, 85
1, 190927, Control_c, 0, 64, 87
1, 190942, Control_c, 0, 64, 88
1, 190956, Control_c, 0, 64, 88
1, 190961, Note_off_c, 0, 77, 42
1, 190971, Control_c, 0, 64, 89
1, 191036, Note_on_c, 0, 69, 33
1, 191054, Note_on_c, 0, 65, 20
1, 191072, Note_off_c, 0, 69, 51
1, 191104, Control_c, 0, 64, 88
1, 191117, Note_off_c, 0, 65, 41
1, 191213, Note_on_c, 0, 78, 49
1, 191231, Control_c, 0, 64, 87
1, 191245, Control_c, 0, 64, 85
1, 191260, Control_c, 0, 64, 83
1, 191275, Control_c, 0, 64, 80
1, 191289, Control_c, 0, 64, 74
1, 191304, Control_c, 0, 64, 69
1, 191319, Control_c, 0, 64, 64
1, 191334, Control_c, 0, 64, 62
1, 191349, Control_c, 0, 64, 63
1, 191364, Control_c, 0, 64, 63
1, 191379, Control_c, 0, 64, 64
1, 191393, Control_c, 0, 64, 66
1, 191407, Note_on_c, 0, 64, 32
1, 191408, Control_c, 0, 64, 68
1, 191414, Note_on_c, 0, 68, 36
1, 191423, Control_c, 0, 64, 71
1, 191436, Note_off_c, 0, 78, 47
1, 191438, Control_c, 0, 64, 74
1, 191453, Control_c, 0, 64, 77
1, 191468, Control_c, 0, 64, 79
1, 191475, Note_off_c, 0, 68, 49
1, 191480, Note_off_c, 0, 64, 43
1, 191482, Control_c, 0, 64, 81
1, 191497, Control_c, 0, 64, 82
1, 191512, Control_c, 0, 64, 84
1, 191527, Control_c, 0, 64, 86
1, 191556, Control_c, 0, 64, 86
1, 191571, Control_c, 0, 64, 87
1, 191586, Control_c, 0, 64, 87
1, 191641, Note_on_c, 0, 64, 34
1, 191648, Note_on_c, 0, 68, 12
1, 191687, Note_off_c, 0, 64, 47
1, 191709, Note_off_c, 0, 68, 42
1, 191824, Control_c, 0, 64, 87
1, 191854, Control_c, 0, 64, 86
1, 191876, Control_c, 0, 64, 85
1, 191891, Control_c, 0, 64, 84
1, 191906, Control_c, 0, 64, 82
1, 191914, Note_on_c, 0, 79, 44
1, 191920, Control_c, 0, 64, 79
1, 191935, Control_c, 0, 64, 74
1, 191950, Control_c, 0, 64, 68
1, 191965, Control_c, 0, 64, 66
1, 191980, Control_c, 0, 64, 65
1, 192009, Control_c, 0, 64, 65
1, 192024, Control_c, 0, 64, 66
1, 192039, Control_c, 0, 64, 67
1, 192054, Control_c, 0, 64, 69
1, 192068, Control_c, 0, 64, 71
1, 192083, Control_c, 0, 64, 74
1, 192098, Control_c, 0, 64, 77
1, 192100, Note_off_c, 0, 79, 42
1, 192112, Control_c, 0, 64, 81
1, 192127, Control_c, 0, 64, 85
1, 192142, Control_c, 0, 64, 89
1, 192157, Control_c, 0, 64, 94
1, 192168, Note_on_c, 0, 63, 38
1, 192172, Control_c, 0, 64, 99
1, 192177, Note_on_c, 0, 67, 25
1, 192183, Note_on_c, 0, 80, 47
1, 192186, Control_c, 0, 64, 107
1, 192201, Control_c, 0, 64, 121
1, 192215, Note_off_c, 0, 63, 47
1, 192216, Control_c, 0, 64, 127
1, 192248, Note_off_c, 0, 67, 38
1, 192275, Note_off_c, 0, 80, 54
1, 192361, Note_off_c, 0, 82, 36
1, 192436, Note_off_c, 0, 58, 36
1, 192544, Note_on_c, 0, 63, 24
1, 192547, Note_on_c, 0, 67, 23
1, 192547, Note_on_c, 0, 81, 47
1, 192623, Note_off_c, 0, 67, 47
1, 192634, Note_off_c, 0, 81, 62
1, 192724, Note_off_c, 0, 63, 35
1, 193285, Note_on_c, 0, 82, 55
1, 193291, Note_on_c, 0, 78, 47
1, 193296, Note_on_c, 0, 27, 36
1, 193296, Note_on_c, 0, 73, 38
1, 193312, Note_on_c, 0, 39, 35
1, 193359, Control_c, 0, 64, 113
1, 193374, Control_c, 0, 64, 99
1, 193389, Control_c, 0, 64, 85
1, 193404, Control_c, 0, 64, 74
1, 193419, Control_c, 0, 64, 67
1, 193433, Control_c, 0, 64, 65
1, 193448, Control_c, 0, 64, 66
1, 193462, Control_c, 0, 64, 68
1, 193477, Control_c, 0, 64, 72
1, 193492, Control_c, 0, 64, 77
1, 193507, Control_c, 0, 64, 83
1, 193508, Note_off_c, 0, 27, 40
1, 193522, Control_c, 0, 64, 90
1, 193537, Control_c, 0, 64, 96
1, 193539, Note_off_c, 0, 39, 40
1, 193552, Control_c, 0, 64, 102
1, 193558, Note_on_c, 0, 70, 32
1, 193566, Control_c, 0, 64, 111
1, 193580, Note_off_c, 0, 78, 40
1, 193581, Control_c, 0, 64, 127
1, 193585, Note_off_c, 0, 73, 34
1, 193593, Note_off_c, 0, 82, 30
1, 193610, Note_off_c, 0, 70, 46
1, 193719, Note_on_c, 0, 82, 43
1, 193719, Note_on_c, 0, 73, 36
1, 193724, Note_on_c, 0, 78, 34
1, 193754, Note_off_c, 0, 73, 51
1, 193757, Note_off_c, 0, 82, 54
1, 193759, Note_off_c, 0, 78, 52
1, 193853, Note_on_c, 0, 47, 36
1, 193853, Note_on_c, 0, 35, 39
1, 193868, Note_on_c, 0, 82, 47
1, 193875, Note_on_c, 0, 73, 28
1, 193883, Note_on_c, 0, 78, 38
1, 193888, Note_off_c, 0, 47, 52
1, 193909, Note_off_c, 0, 35, 48
1, 193918, Note_off_c, 0, 73, 50
1, 193936, Note_off_c, 0, 78, 43
1, 193957, Note_off_c, 0, 82, 54
1, 194011, Note_on_c, 0, 70, 46
1, 194059, Note_on_c, 0, 34, 51
1, 194063, Note_off_c, 0, 70, 59
1, 194069, Note_on_c, 0, 46, 47
1, 194109, Note_off_c, 0, 34, 50
1, 194109, Note_off_c, 0, 46, 61
1, 194157, Note_on_c, 0, 83, 59
1, 194158, Note_on_c, 0, 79, 59
1, 194174, Note_on_c, 0, 74, 34
1, 194196, Note_off_c, 0, 83, 52
1, 194199, Note_off_c, 0, 79, 62
1, 194200, Note_off_c, 0, 74, 47
1, 194285, Control_c, 0, 64, 111
1, 194300, Control_c, 0, 64, 93
1, 194309, Note_on_c, 0, 82, 66
1, 194315, Control_c, 0, 64, 77
1, 194315, Note_on_c, 0, 78, 57
1, 194325, Note_on_c, 0, 58, 52
1, 194330, Control_c, 0, 64, 66
1, 194332, Note_on_c, 0, 46, 52
1, 194333, Note_on_c, 0, 73, 52
1, 194345, Control_c, 0, 64, 60
1, 194359, Control_c, 0, 64, 60
1, 194374, Control_c, 0, 64, 63
1, 194389, Control_c, 0, 64, 66
1, 194404, Control_c, 0, 64, 70
1, 194412, Note_off_c, 0, 58, 50
1, 194419, Control_c, 0, 64, 77
1, 194425, Note_off_c, 0, 46, 61
1, 194428, Note_off_c, 0, 78, 57
1, 194434, Control_c, 0, 64, 85
1, 194448, Note_off_c, 0, 73, 59
1, 194448, Note_off_c, 0, 82, 54
1, 194449, Control_c, 0, 64, 92
1, 194463, Control_c, 0, 64, 101
1, 194478, Control_c, 0, 64, 108
1, 194491, Note_on_c, 0, 70, 39
1, 194493, Control_c, 0, 64, 118
1, 194507, Control_c, 0, 64, 123
1, 194537, Control_c, 0, 64, 127
1, 194560, Note_off_c, 0, 70, 56
1, 194568, Note_on_c, 0, 82, 43
1, 194586, Note_on_c, 0, 78, 46
1, 194607, Note_off_c, 0, 82, 66
1, 194610, Note_on_c, 0, 73, 8
1, 194621, Note_off_c, 0, 78, 54
1, 194672, Note_off_c, 0, 73, 45
1, 194729, Note_on_c, 0, 52, 43
1, 194729, Control_c, 0, 64, 123
1, 194732, Note_on_c, 0, 81, 62
1, 194732, Note_on_c, 0, 64, 52
1, 194744, Note_on_c, 0, 72, 51
1, 194744, Control_c, 0, 64, 121
1, 194755, Note_on_c, 0, 77, 48
1, 194765, Note_off_c, 0, 52, 52
1, 194772, Note_off_c, 0, 64, 64
1, 194774, Control_c, 0, 64, 119
1, 194813, Note_off_c, 0, 81, 56
1, 194866, Note_off_c, 0, 77, 47
1, 194872, Note_on_c, 0, 69, 51
1, 194900, Note_off_c, 0, 72, 31
1, 194926, Note_on_c, 0, 51, 63
1, 194930, Note_on_c, 0, 63, 60
1, 194950, Note_off_c, 0, 69, 47
1, 194954, Note_off_c, 0, 51, 60
1, 194959, Note_off_c, 0, 63, 64
1, 194974, Control_c, 0, 64, 121
1, 195004, Control_c, 0, 64, 123
1, 195013, Note_on_c, 0, 77, 49
1, 195014, Note_on_c, 0, 81, 57
1, 195016, Note_on_c, 0, 72, 54
1, 195045, Note_off_c, 0, 72, 64
1, 195048, Note_off_c, 0, 81, 62
1, 195057, Note_off_c, 0, 77, 61
1, 195078, Control_c, 0, 64, 118
1, 195093, Control_c, 0, 64, 109
1, 195108, Control_c, 0, 64, 91
1, 195123, Control_c, 0, 64, 75
1, 195137, Control_c, 0, 64, 63
1, 195148, Note_on_c, 0, 61, 64
1, 195152, Control_c, 0, 64, 58
1, 195153, Note_on_c, 0, 80, 61
1, 195156, Note_on_c, 0, 73, 57
1, 195167, Control_c, 0, 64, 62
1, 195167, Note_on_c, 0, 76, 45
1, 195170, Note_on_c, 0, 71, 49
1, 195182, Control_c, 0, 64, 65
1, 195187, Note_off_c, 0, 61, 61
1, 195189, Note_off_c, 0, 73, 65
1, 195197, Control_c, 0, 64, 69
1, 195211, Control_c, 0, 64, 79
1, 195226, Control_c, 0, 64, 94
1, 195241, Control_c, 0, 64, 113
1, 195256, Control_c, 0, 64, 127
1, 195264, Note_off_c, 0, 80, 52
1, 195273, Note_off_c, 0, 76, 60
1, 195315, Note_off_c, 0, 71, 33
1, 195325, Note_on_c, 0, 68, 50
1, 195370, Note_off_c, 0, 68, 61
1, 195425, Note_on_c, 0, 80, 49
1, 195445, Note_on_c, 0, 71, 41
1, 195453, Note_on_c, 0, 76, 33
1, 195480, Note_off_c, 0, 71, 48
1, 195495, Note_off_c, 0, 80, 49
1, 195540, Note_on_c, 0, 83, 63
1, 195561, Note_off_c, 0, 76, 0
1, 195574, Poly_aftertouch_c, 0, 80, 127
1, 195586, Note_on_c, 0, 80, 14
1, 195589, Note_off_c, 0, 83, 59
1, 195605, Poly_aftertouch_c, 0, 76, 127
1, 195623, Poly_aftertouch_c, 0, 71, 127
1, 195636, Note_off_c, 0, 80, 49
1, 195656, Poly_aftertouch_c, 0, 76, 0
1, 195667, Poly_aftertouch_c, 0, 71, 0
1, 195693, Note_on_c, 0, 68, 40
1, 195716, Note_on_c, 0, 82, 63
1, 195732, Note_off_c, 0, 68, 56
1, 195746, Note_off_c, 0, 82, 68
1, 195796, Note_on_c, 0, 71, 41
1, 195815, Note_on_c, 0, 80, 32
1, 195823, Note_off_c, 0, 71, 57
1, 195844, Note_off_c, 0, 80, 54
1, 195933, Note_on_c, 0, 94, 73
1, 195946, Note_on_c, 0, 79, 70
1, 195957, Note_off_c, 0, 94, 63
1, 195972, Note_on_c, 0, 70, 38
1, 195985, Note_on_c, 0, 75, 39
1, 196017, Note_off_c, 0, 70, 44
1, 196027, Note_off_c, 0, 75, 45
1, 196029, Note_off_c, 0, 79, 58
1, 196074, Note_on_c, 0, 67, 50
1, 196126, Note_off_c, 0, 67, 56
1, 196186, Note_on_c, 0, 79, 52
1, 196197, Note_on_c, 0, 70, 45
1, 196205, Note_on_c, 0, 75, 35
1, 196208, Note_off_c, 0, 79, 58
1, 196225, Note_off_c, 0, 70, 54
1, 196234, Note_off_c, 0, 75, 52
1, 196331, Note_on_c, 0, 78, 67
1, 196336, Note_on_c, 0, 46, 49
1, 196342, Note_on_c, 0, 58, 49
1, 196342, Note_on_c, 0, 69, 49
1, 196376, Note_on_c, 0, 74, 31
1, 196387, Note_off_c, 0, 58, 64
1, 196400, Note_off_c, 0, 46, 58
1, 196415, Note_off_c, 0, 69, 46
1, 196423, Note_off_c, 0, 74, 45
1, 196434, Note_off_c, 0, 78, 55
1, 196475, Note_on_c, 0, 66, 43
1, 196529, Note_off_c, 0, 66, 58
1, 196589, Note_on_c, 0, 78, 43
1, 196597, Note_on_c, 0, 69, 39
1, 196626, Note_on_c, 0, 74, 7
1, 196628, Note_off_c, 0, 78, 49
1, 196629, Note_off_c, 0, 69, 56
1, 196658, Note_off_c, 0, 74, 40
1, 196738, Control_c, 0, 64, 97
1, 196742, Note_on_c, 0, 77, 68
1, 196753, Control_c, 0, 64, 77
1, 196755, Note_on_c, 0, 24, 47
1, 196765, Note_on_c, 0, 36, 45
1, 196765, Note_on_c, 0, 73, 44
1, 196768, Control_c, 0, 64, 65
1, 196783, Control_c, 0, 64, 56
1, 196792, Note_on_c, 0, 68, 29
1, 196798, Control_c, 0, 64, 58
1, 196813, Control_c, 0, 64, 62
1, 196828, Control_c, 0, 64, 65
1, 196843, Note_off_c, 0, 24, 59
1, 196843, Control_c, 0, 64, 70
1, 196846, Note_off_c, 0, 36, 56
1, 196857, Control_c, 0, 64, 77
1, 196859, Note_off_c, 0, 77, 53
1, 196861, Note_off_c, 0, 73, 31
1, 196872, Control_c, 0, 64, 87
1, 196878, Note_off_c, 0, 68, 35
1, 196887, Control_c, 0, 64, 97
1, 196893, Note_on_c, 0, 65, 36
1, 196901, Control_c, 0, 64, 104
1, 196916, Control_c, 0, 64, 110
1, 196931, Control_c, 0, 64, 112
1, 196948, Note_off_c, 0, 65, 42
1, 196995, Note_on_c, 0, 77, 51
1, 197018, Note_on_c, 0, 68, 26
1, 197028, Note_on_c, 0, 73, 4
1, 197051, Note_off_c, 0, 77, 38
1, 197059, Note_off_c, 0, 68, 44
1, 197084, Note_off_c, 0, 73, 48
1, 197138, Note_on_c, 0, 32, 41
1, 197147, Note_on_c, 0, 77, 53
1, 197151, Note_on_c, 0, 68, 39
1, 197153, Note_on_c, 0, 44, 29
1, 197185, Note_off_c, 0, 32, 46
1, 197186, Note_off_c, 0, 68, 51
1, 197195, Note_off_c, 0, 44, 50
1, 197196, Note_off_c, 0, 77, 46
1, 197235, Control_c, 0, 64, 113
1, 197265, Note_on_c, 0, 65, 49
1, 197266, Control_c, 0, 64, 113
1, 197284, Note_on_c, 0, 31, 52
1, 197287, Note_on_c, 0, 43, 55
1, 197310, Note_off_c, 0, 65, 58
1, 197310, Control_c, 0, 64, 114
1, 197321, Note_off_c, 0, 31, 51
1, 197322, Note_off_c, 0, 43, 64
1, 197369, Control_c, 0, 64, 115
1, 197376, Note_on_c, 0, 78, 72
1, 197395, Note_on_c, 0, 69, 41
1, 197400, Note_on_c, 0, 74, 40
1, 197423, Note_off_c, 0, 74, 58
1, 197424, Note_off_c, 0, 69, 54
1, 197435, Note_off_c, 0, 78, 65
1, 197443, Control_c, 0, 64, 113
1, 197458, Control_c, 0, 64, 109
1, 197473, Control_c, 0, 64, 100
1, 197487, Control_c, 0, 64, 86
1, 197502, Control_c, 0, 64, 72
1, 197513, Note_on_c, 0, 43, 52
1, 197517, Control_c, 0, 64, 63
1, 197518, Note_on_c, 0, 55, 53
1, 197519, Note_on_c, 0, 77, 71
1, 197531, Control_c, 0, 64, 55
1, 197535, Note_on_c, 0, 73, 56
1, 197537, Note_on_c, 0, 68, 40
1, 197546, Control_c, 0, 64, 58
1, 197561, Control_c, 0, 64, 61
1, 197576, Control_c, 0, 64, 64
1, 197591, Control_c, 0, 64, 68
1, 197606, Note_off_c, 0, 43, 60
1, 197606, Control_c, 0, 64, 75
1, 197621, Control_c, 0, 64, 84
1, 197627, Note_off_c, 0, 55, 51
1, 197630, Note_off_c, 0, 68, 46
1, 197635, Control_c, 0, 64, 91
1, 197639, Note_off_c, 0, 73, 55
1, 197650, Control_c, 0, 64, 96
1, 197661, Note_on_c, 0, 65, 42
1, 197665, Control_c, 0, 64, 101
1, 197680, Control_c, 0, 64, 104
1, 197695, Control_c, 0, 64, 107
1, 197701, Note_off_c, 0, 65, 45
1, 197710, Control_c, 0, 64, 108
1, 197724, Control_c, 0, 64, 110
1, 197739, Control_c, 0, 64, 111
1, 197754, Control_c, 0, 64, 113
1, 197769, Note_off_c, 0, 77, 47
1, 197769, Control_c, 0, 64, 113
1, 197783, Note_on_c, 0, 73, 24
1, 197821, Note_off_c, 0, 73, 49
1, 197845, Poly_aftertouch_c, 0, 68, 0
1, 197880, Note_on_c, 0, 47, 43
1, 197886, Note_on_c, 0, 59, 50
1, 197890, Note_on_c, 0, 76, 71
1, 197908, Note_on_c, 0, 67, 52
1, 197911, Note_off_c, 0, 47, 56
1, 197922, Note_off_c, 0, 59, 63
1, 197973, Poly_aftertouch_c, 0, 72, 127
1, 197998, Control_c, 0, 64, 114
1, 198000, Note_off_c, 0, 76, 58
1, 198005, Poly_aftertouch_c, 0, 72, 0
1, 198007, Note_on_c, 0, 64, 49
1, 198013, Control_c, 0, 64, 115
1, 198026, Note_off_c, 0, 67, 35
1, 198056, Note_off_c, 0, 64, 58
1, 198058, Note_on_c, 0, 58, 65
1, 198064, Note_on_c, 0, 46, 49
1, 198089, Control_c, 0, 64, 116
1, 198089, Note_off_c, 0, 58, 65
1, 198092, Note_off_c, 0, 46, 57
1, 198103, Control_c, 0, 64, 118
1, 198118, Control_c, 0, 64, 121
1, 198121, Note_on_c, 0, 76, 68
1, 198133, Control_c, 0, 64, 127
1, 198143, Note_on_c, 0, 72, 36
1, 198148, Note_on_c, 0, 67, 39
1, 198157, Note_off_c, 0, 76, 65
1, 198171, Note_off_c, 0, 72, 54
1, 198178, Note_off_c, 0, 67, 53
1, 198207, Control_c, 0, 64, 114
1, 198221, Control_c, 0, 64, 93
1, 198236, Control_c, 0, 64, 74
1, 198251, Note_on_c, 0, 56, 64
1, 198251, Control_c, 0, 64, 61
1, 198266, Control_c, 0, 64, 53
1, 198271, Note_on_c, 0, 75, 61
1, 198272, Note_on_c, 0, 66, 45
1, 198275, Note_on_c, 0, 71, 45
1, 198276, Note_on_c, 0, 68, 40
1, 198281, Control_c, 0, 64, 58
1, 198295, Note_off_c, 0, 56, 62
1, 198295, Control_c, 0, 64, 62
1, 198304, Note_off_c, 0, 68, 57
1, 198310, Control_c, 0, 64, 66
1, 198325, Control_c, 0, 64, 73
1, 198340, Control_c, 0, 64, 85
1, 198354, Control_c, 0, 64, 101
1, 198355, Note_off_c, 0, 66, 59
1, 198366, Note_off_c, 0, 75, 49
1, 198369, Control_c, 0, 64, 118
1, 198380, Note_off_c, 0, 71, 56
1, 198384, Control_c, 0, 64, 127
1, 198415, Note_on_c, 0, 63, 50
1, 198467, Note_off_c, 0, 63, 55
1, 198515, Note_on_c, 0, 75, 51
1, 198519, Note_on_c, 0, 66, 43
1, 198538, Note_on_c, 0, 71, 41
1, 198557, Note_off_c, 0, 66, 59
1, 198559, Note_off_c, 0, 75, 53
1, 198568, Note_off_c, 0, 71, 54
1, 198646, Note_on_c, 0, 81, 71
1, 198679, Note_on_c, 0, 75, 44
1, 198689, Note_on_c, 0, 66, 39
1, 198691, Note_off_c, 0, 81, 63
1, 198718, Note_off_c, 0, 75, 52
1, 198733, Note_off_c, 0, 66, 47
1, 198768, Note_on_c, 0, 63, 50
1, 198778, Poly_aftertouch_c, 0, 71, 0
1, 198799, Note_on_c, 0, 80, 69
1, 198822, Note_off_c, 0, 63, 55
1, 198831, Note_off_c, 0, 80, 65
1, 198873, Note_on_c, 0, 66, 43
1, 198880, Note_on_c, 0, 75, 37
1, 198907, Note_off_c, 0, 66, 62
1, 198912, Note_off_c, 0, 75, 54
1, 199010, Note_on_c, 0, 92, 78
1, 199010, Note_on_c, 0, 74, 68
1, 199028, Note_on_c, 0, 65, 45
1, 199031, Note_on_c, 0, 70, 53
1, 199036, Note_off_c, 0, 92, 67
1, 199084, Note_off_c, 0, 70, 54
1, 199086, Note_off_c, 0, 74, 59
1, 199094, Note_off_c, 0, 65, 57
1, 199144, Note_on_c, 0, 62, 41
1, 199191, Note_off_c, 0, 62, 58
1, 199244, Note_on_c, 0, 74, 40
1, 199245, Note_on_c, 0, 65, 49
1, 199246, Note_on_c, 0, 70, 47
1, 199270, Note_off_c, 0, 74, 54
1, 199278, Note_off_c, 0, 65, 63
1, 199283, Note_off_c, 0, 70, 65
1, 199386, Note_on_c, 0, 73, 64
1, 199387, Note_on_c, 0, 56, 52
1, 199388, Note_on_c, 0, 44, 56
1, 199398, Note_on_c, 0, 64, 53
1, 199418, Note_on_c, 0, 69, 53
1, 199428, Note_off_c, 0, 56, 65
1, 199442, Note_off_c, 0, 44, 60
1, 199449, Note_off_c, 0, 64, 54
1, 199484, Note_off_c, 0, 69, 56
1, 199497, Note_off_c, 0, 73, 54
1, 199516, Note_on_c, 0, 61, 46
1, 199575, Note_off_c, 0, 61, 53
1, 199629, Note_on_c, 0, 64, 42
1, 199632, Note_on_c, 0, 73, 42
1, 199651, Note_on_c, 0, 69, 20
1, 199658, Note_off_c, 0, 64, 60
1, 199667, Note_off_c, 0, 73, 52
1, 199691, Note_off_c, 0, 69, 44
1, 199772, Note_on_c, 0, 27, 45
1, 199773, Note_on_c, 0, 72, 69
1, 199779, Control_c, 0, 64, 88
1, 199793, Control_c, 0, 64, 70
1, 199794, Note_on_c, 0, 68, 49
1, 199808, Control_c, 0, 64, 58
1, 199822, Note_on_c, 0, 63, 22
1, 199823, Control_c, 0, 64, 46
1, 199838, Control_c, 0, 64, 49
1, 199852, Note_off_c, 0, 68, 54
1, 199853, Control_c, 0, 64, 54
1, 199867, Control_c, 0, 64, 60
1, 199882, Control_c, 0, 64, 64
1, 199895, Note_on_c, 0, 60, 48
1, 199897, Control_c, 0, 64, 68
1, 199907, Note_off_c, 0, 63, 39
1, 199912, Control_c, 0, 64, 73
1, 199927, Control_c, 0, 64, 79
1, 199941, Control_c, 0, 64, 83
1, 199950, Note_off_c, 0, 60, 54
1, 199956, Control_c, 0, 64, 86
1, 199971, Control_c, 0, 64, 88
1, 199986, Control_c, 0, 64, 90
1, 200000, Control_c, 0, 64, 91
1, 200012, Note_off_c, 0, 27, 39
1, 200015, Control_c, 0, 64, 93
1, 200030, Control_c, 0, 64, 94
1, 200043, Note_on_c, 0, 68, 38
1, 200045, Note_on_c, 0, 63, 23
1, 200045, Control_c, 0, 64, 95
1, 200060, Control_c, 0, 64, 96
1, 200074, Control_c, 0, 64, 96
1, 200085, Note_off_c, 0, 63, 50
1, 200113, Note_off_c, 0, 68, 39
1, 200113, Note_on_c, 0, 40, 46
1, 200142, Control_c, 0, 64, 97
1, 200169, Note_off_c, 0, 40, 58
1, 200171, Note_on_c, 0, 68, 40
1, 200187, Note_on_c, 0, 63, 39
1, 200204, Note_off_c, 0, 72, 60
1, 200224, Note_off_c, 0, 63, 49
1, 200241, Note_off_c, 0, 68, 57
1, 200260, Control_c, 0, 64, 97
1, 200268, Note_on_c, 0, 60, 44
1, 200274, Control_c, 0, 64, 98
1, 200286, Note_on_c, 0, 39, 67
1, 200289, Control_c, 0, 64, 99
1, 200304, Control_c, 0, 64, 100
1, 200310, Note_off_c, 0, 60, 55
1, 200319, Control_c, 0, 64, 101
1, 200333, Control_c, 0, 64, 102
1, 200348, Control_c, 0, 64, 104
1, 200360, Note_on_c, 0, 73, 72
1, 200363, Control_c, 0, 64, 106
1, 200370, Note_on_c, 0, 64, 58
1, 200378, Control_c, 0, 64, 108
1, 200393, Control_c, 0, 64, 111
1, 200404, Note_off_c, 0, 64, 64
1, 200408, Control_c, 0, 64, 112
1, 200420, Note_off_c, 0, 73, 64
1, 200423, Control_c, 0, 64, 113
1, 200468, Control_c, 0, 64, 111
1, 200483, Control_c, 0, 64, 103
1, 200497, Control_c, 0, 64, 90
1, 200500, Note_on_c, 0, 51, 77
1, 200505, Note_on_c, 0, 72, 77
1, 200512, Control_c, 0, 64, 72
1, 200523, Note_on_c, 0, 63, 58
1, 200527, Note_off_c, 0, 39, 31
1, 200527, Control_c, 0, 64, 61
1, 200539, Note_on_c, 0, 68, 47
1, 200542, Control_c, 0, 64, 50
1, 200572, Control_c, 0, 64, 54
1, 200587, Control_c, 0, 64, 59
1, 200601, Control_c, 0, 64, 64
1, 200610, Note_off_c, 0, 68, 54
1, 200613, Note_off_c, 0, 63, 61
1, 200616, Control_c, 0, 64, 68
1, 200631, Control_c, 0, 64, 74
1, 200640, Note_on_c, 0, 60, 56
1, 200646, Control_c, 0, 64, 82
1, 200661, Control_c, 0, 64, 90
1, 200676, Control_c, 0, 64, 97
1, 200690, Control_c, 0, 64, 103
1, 200705, Control_c, 0, 64, 110
1, 200712, Note_off_c, 0, 51, 55
1, 200720, Note_off_c, 0, 72, 57
1, 200720, Control_c, 0, 64, 116
1, 200735, Control_c, 0, 64, 123
1, 200737, Note_off_c, 0, 60, 43
1, 200745, Note_on_c, 0, 68, 52
1, 200749, Control_c, 0, 64, 127
1, 200767, Note_on_c, 0, 63, 20
1, 200784, Note_off_c, 0, 68, 61
1, 200813, Note_off_c, 0, 63, 38
1, 200849, Note_on_c, 0, 52, 73
1, 200857, Note_on_c, 0, 71, 80
1, 200860, Note_on_c, 0, 62, 60
1, 200894, Note_on_c, 0, 67, 26
1, 200933, Note_off_c, 0, 67, 50
1, 200966, Note_on_c, 0, 59, 63
1, 200981, Note_off_c, 0, 62, 36
1, 201002, Note_off_c, 0, 52, 51
1, 201002, Note_off_c, 0, 71, 54
1, 201035, Note_on_c, 0, 51, 74
1, 201040, Note_off_c, 0, 59, 54
1, 201092, Note_on_c, 0, 62, 57
1, 201094, Note_on_c, 0, 67, 58
1, 201131, Note_off_c, 0, 62, 64
1, 201132, Note_off_c, 0, 67, 63
1, 201142, Note_off_c, 0, 51, 60
1, 201186, Control_c, 0, 64, 91
1, 201201, Control_c, 0, 64, 68
1, 201210, Note_on_c, 0, 63, 79
1, 201216, Note_on_c, 0, 70, 76
1, 201216, Control_c, 0, 64, 54
1, 201230, Control_c, 0, 64, 51
1, 201233, Note_on_c, 0, 61, 60
1, 201236, Note_on_c, 0, 66, 54
1, 201246, Control_c, 0, 64, 57
1, 201261, Control_c, 0, 64, 62
1, 201272, Note_off_c, 0, 63, 62
1, 201276, Control_c, 0, 64, 67
1, 201290, Note_off_c, 0, 61, 60
1, 201291, Control_c, 0, 64, 76
1, 201306, Control_c, 0, 64, 91
1, 201320, Control_c, 0, 64, 108
1, 201334, Note_off_c, 0, 66, 54
1, 201335, Control_c, 0, 64, 127
1, 201349, Note_on_c, 0, 58, 70
1, 201402, Note_on_c, 0, 51, 68
1, 201406, Poly_aftertouch_c, 0, 68, 127
1, 201420, Note_off_c, 0, 58, 57
1, 201439, Poly_aftertouch_c, 0, 68, 0
1, 201463, Note_on_c, 0, 61, 65
1, 201473, Note_on_c, 0, 66, 56
1, 201498, Note_off_c, 0, 61, 59
1, 201520, Note_off_c, 0, 66, 57
1, 201524, Note_off_c, 0, 51, 38
1, 201561, Note_on_c, 0, 52, 80
1, 201603, Note_on_c, 0, 61, 72
1, 201611, Note_on_c, 0, 66, 65
1, 201612, Note_off_c, 0, 52, 62
1, 201667, Note_off_c, 0, 61, 57
1, 201708, Note_off_c, 0, 66, 57
1, 201709, Note_off_c, 0, 70, 56
1, 201717, Note_on_c, 0, 58, 73
1, 201743, Note_on_c, 0, 51, 84
1, 201791, Note_off_c, 0, 58, 61
1, 201810, Note_off_c, 0, 51, 63
1, 201855, Note_on_c, 0, 61, 62
1, 201861, Note_on_c, 0, 66, 76
1, 201889, Note_on_c, 0, 69, 57
1, 201908, Note_on_c, 0, 39, 75
1, 201910, Note_off_c, 0, 69, 62
1, 201920, Control_c, 0, 64, 85
1, 201934, Note_off_c, 0, 61, 58
1, 201935, Control_c, 0, 64, 68
1, 201950, Control_c, 0, 64, 63
1, 201964, Control_c, 0, 64, 66
1, 201969, Note_off_c, 0, 66, 59
1, 201971, Note_on_c, 0, 69, 90
1, 201978, Note_on_c, 0, 60, 70
1, 201979, Control_c, 0, 64, 71
1, 201984, Note_on_c, 0, 65, 75
1, 201994, Control_c, 0, 64, 80
1, 202009, Control_c, 0, 64, 103
1, 202024, Control_c, 0, 64, 127
1, 202062, Note_off_c, 0, 39, 53
1, 202086, Note_off_c, 0, 65, 61
1, 202107, Note_on_c, 0, 57, 72
1, 202110, Note_off_c, 0, 60, 64
1, 202142, Note_on_c, 0, 40, 61
1, 202166, Note_off_c, 0, 69, 62
1, 202176, Note_off_c, 0, 57, 56
1, 202203, Note_off_c, 0, 40, 62
1, 202219, Note_on_c, 0, 65, 68
1, 202225, Note_on_c, 0, 60, 68
1, 202253, Note_off_c, 0, 60, 66
1, 202268, Note_off_c, 0, 65, 60
1, 202321, Note_on_c, 0, 68, 86
1, 202328, Note_on_c, 0, 39, 84
1, 202333, Note_on_c, 0, 59, 77
1, 202365, Note_on_c, 0, 64, 59
1, 202377, Note_on_c, 0, 66, 24
1, 202411, Note_off_c, 0, 66, 48
1, 202434, Note_off_c, 0, 68, 59
1, 202440, Note_off_c, 0, 59, 60
1, 202441, Note_on_c, 0, 56, 68
1, 202447, Note_off_c, 0, 39, 56
1, 202459, Note_off_c, 0, 64, 56
1, 202518, Note_on_c, 0, 27, 79
1, 202560, Note_on_c, 0, 59, 68
1, 202569, Note_on_c, 0, 64, 63
1, 202575, Note_off_c, 0, 56, 32
1, 202591, Note_off_c, 0, 59, 61
1, 202600, Note_off_c, 0, 64, 63
1, 202655, Control_c, 0, 64, 79
1, 202669, Control_c, 0, 64, 55
1, 202670, Note_off_c, 0, 27, 37
1, 202676, Note_on_c, 0, 24, 82
1, 202684, Control_c, 0, 64, 0
1, 202685, Note_on_c, 0, 67, 77
1, 202687, Note_on_c, 0, 63, 72
1, 202688, Note_on_c, 0, 58, 76
1, 202707, Note_on_c, 0, 61, 43
1, 202707, Note_on_c, 0, 65, 58
1, 202714, Control_c, 0, 64, 42
1, 202729, Control_c, 0, 64, 59
1, 202730, Note_off_c, 0, 65, 39
1, 202731, Note_off_c, 0, 58, 58
1, 202736, Note_off_c, 0, 61, 34
1, 202742, Note_off_c, 0, 63, 50
1, 202743, Control_c, 0, 64, 69
1, 202745, Note_off_c, 0, 67, 48
1, 202758, Control_c, 0, 64, 79
1, 202769, Note_on_c, 0, 55, 73
1, 202773, Control_c, 0, 64, 95
1, 202787, Control_c, 0, 64, 110
1, 202796, Note_off_c, 0, 55, 66
1, 202802, Control_c, 0, 64, 112
1, 202817, Control_c, 0, 64, 107
1, 202832, Control_c, 0, 64, 103
1, 202859, Note_on_c, 0, 70, 82
1, 202860, Note_off_c, 0, 24, 35
1, 202863, Control_c, 0, 64, 104
1, 202867, Note_on_c, 0, 61, 61
1, 202876, Note_on_c, 0, 66, 59
1, 202878, Control_c, 0, 64, 105
1, 202892, Control_c, 0, 64, 105
1, 202922, Note_off_c, 0, 66, 58
1, 202935, Note_off_c, 0, 70, 63
1, 202937, Note_off_c, 0, 61, 35
1, 202966, Control_c, 0, 64, 106
1, 203011, Note_on_c, 0, 60, 75
1, 203013, Note_on_c, 0, 69, 90
1, 203020, Note_on_c, 0, 37, 74
1, 203020, Note_on_c, 0, 65, 75
1, 203025, Control_c, 0, 64, 106
1, 203040, Control_c, 0, 64, 107
1, 203055, Control_c, 0, 64, 108
1, 203067, Note_off_c, 0, 69, 62
1, 203070, Control_c, 0, 64, 109
1, 203079, Note_off_c, 0, 60, 54
1, 203094, Note_off_c, 0, 37, 49
1, 203111, Note_off_c, 0, 65, 61
1, 203117, Note_on_c, 0, 57, 64
1, 203122, Control_c, 0, 64, 110
1, 203137, Control_c, 0, 64, 111
1, 203152, Control_c, 0, 64, 112
1, 203156, Note_off_c, 0, 57, 64
1, 203167, Control_c, 0, 64, 113
1, 203178, Note_on_c, 0, 68, 81
1, 203180, Note_on_c, 0, 59, 76
1, 203181, Control_c, 0, 64, 116
1, 203187, Note_on_c, 0, 36, 77
1, 203189, Note_on_c, 0, 64, 76
1, 203196, Control_c, 0, 64, 127
1, 203243, Note_off_c, 0, 59, 59
1, 203249, Note_off_c, 0, 64, 61
1, 203249, Note_off_c, 0, 68, 62
1, 203329, Control_c, 0, 64, 102
1, 203344, Control_c, 0, 64, 67
1, 203347, Note_on_c, 0, 58, 81
1, 203347, Note_on_c, 0, 67, 87
1, 203351, Note_on_c, 0, 48, 89
1, 203358, Note_off_c, 0, 36, 36
1, 203359, Note_on_c, 0, 63, 62
1, 203359, Control_c, 0, 64, 0
1, 203418, Control_c, 0, 64, 39
1, 203433, Control_c, 0, 64, 63
1, 203448, Control_c, 0, 64, 71
1, 203457, Note_off_c, 0, 58, 64
1, 203463, Note_off_c, 0, 63, 60
1, 203463, Control_c, 0, 64, 83
1, 203478, Control_c, 0, 64, 102
1, 203485, Note_on_c, 0, 55, 53
1, 203492, Control_c, 0, 64, 127
1, 203531, Note_off_c, 0, 67, 55
1, 203537, Note_off_c, 0, 48, 49
1, 203562, Note_off_c, 0, 55, 60
1, 203577, Note_on_c, 0, 58, 66
1, 203595, Note_on_c, 0, 63, 56
1, 203603, Note_off_c, 0, 58, 67
1, 203621, Note_off_c, 0, 63, 62
1, 203695, Note_on_c, 0, 49, 85
1, 203695, Note_on_c, 0, 66, 87
1, 203699, Note_on_c, 0, 57, 83
1, 203708, Note_on_c, 0, 62, 72
1, 203797, Note_off_c, 0, 57, 53
1, 203808, Note_off_c, 0, 49, 58
1, 203809, Note_off_c, 0, 62, 59
1, 203813, Note_on_c, 0, 54, 69
1, 203832, Note_off_c, 0, 66, 55
1, 203875, Note_on_c, 0, 48, 84
1, 203878, Note_off_c, 0, 54, 62
1, 203937, Note_on_c, 0, 57, 73
1, 203949, Note_on_c, 0, 62, 74
1, 203955, Note_off_c, 0, 48, 60
1, 203970, Note_off_c, 0, 57, 64
1, 203975, Note_off_c, 0, 62, 65
1, 204048, Control_c, 0, 64, 107
1, 204062, Note_on_c, 0, 65, 93
1, 204063, Control_c, 0, 64, 63
1, 204066, Note_on_c, 0, 60, 84
1, 204068, Note_on_c, 0, 56, 88
1, 204073, Note_on_c, 0, 61, 76
1, 204078, Control_c, 0, 64, 0
1, 204122, Control_c, 0, 64, 16
1, 204137, Control_c, 0, 64, 58
1, 204146, Note_off_c, 0, 60, 65
1, 204152, Control_c, 0, 64, 69
1, 204164, Note_off_c, 0, 56, 62
1, 204167, Control_c, 0, 64, 80
1, 204181, Note_off_c, 0, 61, 60
1, 204182, Control_c, 0, 64, 101
1, 204191, Note_on_c, 0, 53, 70
1, 204196, Control_c, 0, 64, 127
1, 204267, Note_on_c, 0, 48, 75
1, 204289, Note_off_c, 0, 53, 46
1, 204308, Note_on_c, 0, 56, 66
1, 204310, Note_on_c, 0, 61, 67
1, 204346, Note_off_c, 0, 56, 56
1, 204372, Note_off_c, 0, 48, 55
1, 204377, Note_off_c, 0, 61, 59
1, 204433, Note_on_c, 0, 49, 81
1, 204446, Note_on_c, 0, 56, 74
1, 204447, Note_on_c, 0, 61, 62
1, 204483, Note_off_c, 0, 49, 65
1, 204502, Note_off_c, 0, 56, 57
1, 204546, Note_off_c, 0, 61, 57
1, 204566, Note_on_c, 0, 53, 72
1, 204623, Note_off_c, 0, 65, 53
1, 204646, Note_on_c, 0, 48, 84
1, 204697, Note_on_c, 0, 61, 64
1, 204701, Note_on_c, 0, 56, 67
1, 204718, Note_off_c, 0, 53, 32
1, 204754, Note_off_c, 0, 48, 56
1, 204781, Note_off_c, 0, 56, 55
1, 204783, Note_off_c, 0, 61, 57
1, 204819, Note_on_c, 0, 55, 83
1, 204819, Note_on_c, 0, 64, 87
1, 204821, Note_on_c, 0, 36, 83
1, 204824, Note_on_c, 0, 60, 80
1, 204842, Control_c, 0, 64, 77
1, 204857, Control_c, 0, 64, 50
1, 204871, Control_c, 0, 64, 0
1, 204916, Control_c, 0, 64, 37
1, 204931, Control_c, 0, 64, 60
1, 204942, Note_off_c, 0, 60, 64
1, 204945, Note_off_c, 0, 55, 61
1, 204945, Control_c, 0, 64, 66
1, 204954, Note_on_c, 0, 52, 62
1, 204960, Control_c, 0, 64, 71
1, 204975, Control_c, 0, 64, 79
1, 204980, Note_off_c, 0, 64, 57
1, 204989, Control_c, 0, 64, 90
1, 205004, Control_c, 0, 64, 99
1, 205009, Note_off_c, 0, 36, 55
1, 205019, Control_c, 0, 64, 106
1, 205020, Note_on_c, 0, 37, 77
1, 205034, Control_c, 0, 64, 111
1, 205049, Control_c, 0, 64, 113
1, 205062, Note_off_c, 0, 52, 55
1, 205064, Control_c, 0, 64, 115
1, 205079, Control_c, 0, 64, 118
1, 205079, Note_on_c, 0, 55, 64
1, 205079, Note_off_c, 0, 37, 61
1, 205085, Note_on_c, 0, 60, 58
1, 205094, Control_c, 0, 64, 121
1, 205109, Control_c, 0, 64, 123
1, 205119, Note_off_c, 0, 55, 64
1, 205124, Control_c, 0, 64, 127
1, 205132, Note_off_c, 0, 60, 60
1, 205209, Note_on_c, 0, 63, 89
1, 205213, Note_on_c, 0, 36, 83
1, 205216, Note_on_c, 0, 54, 84
1, 205224, Note_on_c, 0, 59, 67
1, 205320, Note_off_c, 0, 54, 60
1, 205341, Note_off_c, 0, 36, 54
1, 205348, Note_on_c, 0, 51, 64
1, 205356, Note_off_c, 0, 59, 56
1, 205419, Note_off_c, 0, 63, 56
1, 205451, Note_on_c, 0, 24, 80
1, 205546, Note_off_c, 0, 51, 0
1, 205549, Note_on_c, 0, 59, 76
1, 205550, Note_on_c, 0, 54, 73
1, 205583, Poly_aftertouch_c, 0, 51, 127
1, 205615, Note_off_c, 0, 59, 56
1, 205617, Poly_aftertouch_c, 0, 51, 0
1, 205622, Note_off_c, 0, 54, 58
1, 205651, Note_off_c, 0, 24, 37
1, 205760, Note_on_c, 0, 27, 91
1, 205761, Note_on_c, 0, 53, 94
1, 205761, Note_on_c, 0, 62, 95
1, 205765, Note_on_c, 0, 58, 88
1, 205767, Control_c, 0, 64, 78
1, 205782, Control_c, 0, 64, 35
1, 205797, Control_c, 0, 64, 0
1, 205857, Control_c, 0, 64, 42
1, 205872, Control_c, 0, 64, 63
1, 205886, Control_c, 0, 64, 73
1, 205891, Note_off_c, 0, 27, 64
1, 205901, Control_c, 0, 64, 92
1, 205916, Control_c, 0, 64, 127
1, 205970, Note_off_c, 0, 53, 55
1, 205982, Note_off_c, 0, 62, 62
1, 206002, Note_off_c, 0, 58, 60
1, 206215, Note_on_c, 0, 58, 82
1, 206215, Note_on_c, 0, 62, 86
1, 206218, Note_on_c, 0, 53, 76
1, 206483, Note_on_c, 0, 67, 92
1, 206495, Note_off_c, 0, 53, 56
1, 206523, Note_off_c, 0, 58, 56
1, 206537, Note_off_c, 0, 62, 39
1, 206632, Note_off_c, 0, 67, 61
1, 206680, Note_on_c, 0, 58, 73
1, 206680, Note_on_c, 0, 65, 90
1, 206686, Note_on_c, 0, 62, 72
1, 206692, Note_on_c, 0, 53, 72
1, 206786, Note_off_c, 0, 65, 49
1, 206805, Note_off_c, 0, 62, 58
1, 206870, Note_off_c, 0, 53, 58
1, 206910, Note_on_c, 0, 79, 94
1, 206921, Note_on_c, 0, 62, 79
1, 206983, Note_off_c, 0, 58, 31
1, 207035, Note_off_c, 0, 62, 57
1, 207116, Note_on_c, 0, 58, 84
1, 207126, Note_on_c, 0, 53, 70
1, 207164, Note_off_c, 0, 53, 64
1, 207168, Note_off_c, 0, 58, 64
1, 207237, Note_off_c, 0, 79, 52
1, 207312, Note_on_c, 0, 77, 97
1, 207316, Note_on_c, 0, 69, 92
1, 207404, Note_off_c, 0, 77, 65
1, 207413, Note_off_c, 0, 69, 60
1, 207507, Note_on_c, 0, 68, 89
1, 207546, Note_off_c, 0, 68, 66
1, 207703, Control_c, 0, 64, 83
1, 207718, Control_c, 0, 64, 57
1, 207719, Note_on_c, 0, 75, 92
1, 207725, Note_on_c, 0, 82, 97
1, 207733, Control_c, 0, 64, 0
1, 207748, Control_c, 0, 64, 40
1, 207762, Note_on_c, 0, 76, 12
1, 207762, Note_off_c, 0, 82, 63
1, 207762, Control_c, 0, 64, 59
1, 207777, Control_c, 0, 64, 70
1, 207792, Control_c, 0, 64, 92
1, 207807, Control_c, 0, 64, 127
1, 207809, Note_off_c, 0, 76, 36
1, 207845, Note_off_c, 0, 75, 61
1, 207976, Note_on_c, 0, 58, 68
1, 207977, Note_on_c, 0, 62, 71
1, 207984, Note_on_c, 0, 53, 67
1, 208041, Note_on_c, 0, 74, 77
1, 208048, Note_off_c, 0, 58, 63
1, 208053, Note_off_c, 0, 62, 62
1, 208061, Note_off_c, 0, 53, 62
1, 208080, Note_on_c, 0, 84, 96
1, 208093, Note_off_c, 0, 74, 65
1, 208253, Note_on_c, 0, 82, 90
1, 208259, Note_on_c, 0, 62, 68
1, 208259, Note_on_c, 0, 65, 74
1, 208259, Note_off_c, 0, 84, 64
1, 208263, Note_on_c, 0, 58, 60
1, 208284, Note_off_c, 0, 62, 69
1, 208289, Note_off_c, 0, 65, 63
1, 208292, Note_off_c, 0, 82, 65
1, 208295, Note_off_c, 0, 58, 66
1, 208433, Note_on_c, 0, 73, 93
1, 208456, Note_off_c, 0, 73, 65
1, 208475, Note_on_c, 0, 91, 107
1, 208642, Note_on_c, 0, 70, 82
1, 208647, Note_on_c, 0, 65, 75
1, 208650, Note_on_c, 0, 62, 70
1, 208683, Note_off_c, 0, 70, 63
1, 208684, Note_off_c, 0, 62, 61
1, 208689, Note_off_c, 0, 65, 61
1, 208745, Note_off_c, 0, 91, 56
1, 208817, Note_on_c, 0, 89, 101
1, 208821, Note_on_c, 0, 72, 88
1, 208853, Note_off_c, 0, 89, 68
1, 208894, Note_off_c, 0, 72, 56
1, 209033, Note_on_c, 0, 71, 76
1, 209055, Note_off_c, 0, 71, 71
1, 209063, Note_on_c, 0, 66, 36
1, 209106, Note_off_c, 0, 66, 50
1, 209232, Note_on_c, 0, 61, 77
1, 209236, Note_on_c, 0, 66, 72
1, 209349, Note_off_c, 0, 61, 60
1, 209364, Control_c, 0, 64, 91
1, 209374, Note_on_c, 0, 70, 96
1, 209374, Note_on_c, 0, 59, 100
1, 209375, Note_on_c, 0, 36, 96
1, 209377, Note_on_c, 0, 24, 85
1, 209379, Control_c, 0, 64, 57
1, 209394, Control_c, 0, 64, 0
1, 209412, Note_on_c, 0, 68, 41
1, 209436, Note_off_c, 0, 66, 50
1, 209437, Note_off_c, 0, 24, 61
1, 209438, Control_c, 0, 64, 52
1, 209442, Note_off_c, 0, 68, 40
1, 209453, Control_c, 0, 64, 71
1, 209458, Note_off_c, 0, 36, 63
1, 209467, Control_c, 0, 64, 104
1, 209482, Control_c, 0, 64, 127
1, 209554, Note_off_c, 0, 59, 61
1, 209616, Note_off_c, 0, 70, 58
1, 209752, Note_on_c, 0, 56, 67
1, 209753, Note_on_c, 0, 66, 79
1, 209758, Note_on_c, 0, 61, 68
1, 209869, Note_off_c, 0, 56, 59
1, 209893, Note_off_c, 0, 66, 55
1, 209898, Note_off_c, 0, 61, 57
1, 209944, Note_on_c, 0, 72, 91
1, 210010, Note_off_c, 0, 72, 63
1, 210108, Note_on_c, 0, 66, 75
1, 210108, Note_on_c, 0, 70, 91
1, 210111, Note_on_c, 0, 61, 70
1, 210114, Note_on_c, 0, 56, 71
1, 210179, Note_off_c, 0, 70, 63
1, 210207, Note_off_c, 0, 66, 59
1, 210252, Note_off_c, 0, 56, 49
1, 210288, Note_off_c, 0, 61, 61
1, 210300, Note_on_c, 0, 84, 97
1, 210307, Note_on_c, 0, 66, 85
1, 210364, Note_off_c, 0, 66, 58
1, 210492, Note_on_c, 0, 61, 80
1, 210494, Note_on_c, 0, 56, 68
1, 210526, Note_off_c, 0, 56, 66
1, 210538, Note_off_c, 0, 61, 59
1, 210685, Note_on_c, 0, 82, 98
1, 210687, Note_off_c, 0, 84, 55
1, 210689, Note_on_c, 0, 77, 98
1, 210739, Note_off_c, 0, 82, 64
1, 210775, Note_off_c, 0, 77, 61
1, 210865, Note_on_c, 0, 75, 95
1, 210905, Note_off_c, 0, 75, 66
1, 211053, Note_on_c, 0, 80, 97
1, 211054, Note_on_c, 0, 87, 103
1, 211082, Note_off_c, 0, 87, 69
1, 211154, Note_off_c, 0, 80, 62
1, 211288, Note_on_c, 0, 56, 61
1, 211290, Note_on_c, 0, 61, 70
1, 211296, Note_on_c, 0, 66, 66
1, 211356, Note_on_c, 0, 79, 79
1, 211360, Note_off_c, 0, 56, 60
1, 211361, Note_off_c, 0, 61, 60
1, 211366, Note_off_c, 0, 66, 62
1, 211403, Note_on_c, 0, 89, 102
1, 211415, Note_off_c, 0, 79, 67
1, 211571, Note_off_c, 0, 89, 62
1, 211572, Note_on_c, 0, 87, 90
1, 211582, Note_on_c, 0, 66, 79
1, 211583, Note_on_c, 0, 70, 74
1, 211587, Note_on_c, 0, 61, 61
1, 211610, Note_off_c, 0, 70, 67
1, 211613, Note_off_c, 0, 87, 64
1, 211615, Note_off_c, 0, 66, 63
1, 211620, Note_off_c, 0, 61, 64
1, 211855, Note_on_c, 0, 96, 102
1, 211917, Note_on_c, 0, 78, 54
1, 211938, Note_off_c, 0, 78, 42
1, 212108, Note_on_c, 0, 72, 71
1, 212116, Note_on_c, 0, 66, 65
1, 212119, Note_on_c, 0, 75, 74
1, 212136, Note_off_c, 0, 72, 66
1, 212149, Note_off_c, 0, 66, 62
1, 212157, Note_off_c, 0, 75, 59
1, 212286, Note_off_c, 0, 96, 62
1, 212304, Note_on_c, 0, 77, 90
1, 212305, Note_on_c, 0, 94, 107
1, 212351, Note_off_c, 0, 94, 66
1, 212375, Note_off_c, 0, 77, 60
1, 212533, Note_on_c, 0, 75, 85
1, 212555, Note_off_c, 0, 75, 68
1, 212754, Note_on_c, 0, 65, 69
1, 212754, Note_on_c, 0, 70, 76
1, 212846, Note_off_c, 0, 65, 60
1, 212856, Control_c, 0, 64, 89
1, 212868, Note_on_c, 0, 74, 97
1, 212868, Note_on_c, 0, 43, 96
1, 212870, Note_on_c, 0, 31, 89
1, 212871, Control_c, 0, 64, 54
1, 212872, Note_on_c, 0, 60, 90
1, 212885, Control_c, 0, 64, 0
1, 212898, Note_on_c, 0, 62, 60
1, 212899, Note_off_c, 0, 62, 127
1, 212908, Note_off_c, 0, 70, 57
1, 212926, Note_off_c, 0, 31, 63
1, 212930, Control_c, 0, 64, 54
1, 212945, Control_c, 0, 64, 69
1, 212948, Note_off_c, 0, 43, 65
1, 212959, Control_c, 0, 64, 90
1, 212974, Control_c, 0, 64, 127
1, 213017, Note_off_c, 0, 60, 55
1, 213120, Note_off_c, 0, 74, 59
1, 213232, Note_on_c, 0, 70, 81
1, 213233, Note_on_c, 0, 65, 70
1, 213237, Note_on_c, 0, 60, 63
1, 213330, Note_off_c, 0, 60, 57
1, 213351, Note_off_c, 0, 70, 55
1, 213381, Note_off_c, 0, 65, 53
1, 213427, Note_on_c, 0, 81, 95
1, 213610, Note_off_c, 0, 81, 62
1, 213611, Note_on_c, 0, 70, 70
1, 213618, Note_on_c, 0, 79, 101
1, 213619, Note_on_c, 0, 60, 53
1, 213629, Note_on_c, 0, 65, 48
1, 213637, Note_off_c, 0, 70, 68
1, 213640, Note_off_c, 0, 60, 60
1, 213658, Note_off_c, 0, 65, 53
1, 213764, Note_off_c, 0, 79, 55
1, 213816, Note_on_c, 0, 77, 82
1, 213828, Note_on_c, 0, 86, 101
1, 213840, Note_off_c, 0, 77, 67
1, 213878, Note_off_c, 0, 86, 65
1, 214030, Note_on_c, 0, 70, 80
1, 214039, Note_on_c, 0, 65, 70
1, 214048, Note_on_c, 0, 60, 37
1, 214059, Note_off_c, 0, 70, 61
1, 214065, Note_off_c, 0, 65, 68
1, 214080, Note_off_c, 0, 60, 54
1, 214239, Note_on_c, 0, 74, 94
1, 214252, Note_on_c, 0, 83, 98
1, 214254, Note_on_c, 0, 65, 35
1, 214287, Note_off_c, 0, 65, 56
1, 214297, Note_off_c, 0, 83, 60
1, 214326, Note_off_c, 0, 74, 64
1, 214425, Note_on_c, 0, 65, 4
1, 214479, Note_off_c, 0, 65, 0
1, 214482, Note_on_c, 0, 82, 90
1, 214490, Note_on_c, 0, 70, 97
1, 214491, Note_on_c, 0, 65, 60
1, 214495, Note_on_c, 0, 60, 83
1, 214510, Note_off_c, 0, 82, 69
1, 214517, Note_off_c, 0, 60, 69
1, 214537, Note_off_c, 0, 65, 62
1, 214558, Note_off_c, 0, 70, 63
1, 214815, Note_on_c, 0, 29, 84
1, 214879, Note_on_c, 0, 41, 85
1, 214880, Note_off_c, 0, 29, 62
1, 214924, Note_off_c, 0, 41, 64
1, 215027, Note_on_c, 0, 55, 104
1, 215031, Note_on_c, 0, 94, 109
1, 215035, Control_c, 0, 64, 103
1, 215050, Control_c, 0, 64, 66
1, 215065, Control_c, 0, 64, 36
1, 215074, Note_on_c, 0, 92, 48
1, 215086, Control_c, 0, 64, 46
1, 215101, Note_off_c, 0, 92, 38
1, 215101, Control_c, 0, 64, 60
1, 215116, Control_c, 0, 64, 68
1, 215131, Control_c, 0, 64, 90
1, 215146, Control_c, 0, 64, 127
1, 215160, Note_off_c, 0, 55, 55
1, 215392, Note_on_c, 0, 63, 76
1, 215393, Note_on_c, 0, 67, 79
1, 215395, Note_on_c, 0, 58, 72
1, 215487, Note_off_c, 0, 67, 59
1, 215544, Note_off_c, 0, 63, 58
1, 215551, Note_off_c, 0, 58, 58
1, 215577, Note_off_c, 0, 94, 53
1, 215593, Note_on_c, 0, 82, 97
1, 215598, Note_on_c, 0, 64, 86
1, 215696, Note_off_c, 0, 64, 57
1, 215707, Note_off_c, 0, 82, 62
1, 215790, Note_on_c, 0, 63, 91
1, 215795, Note_on_c, 0, 58, 85
1, 215795, Note_on_c, 0, 55, 72
1, 215828, Note_off_c, 0, 55, 67
1, 215840, Note_off_c, 0, 63, 66
1, 215849, Note_off_c, 0, 58, 64
1, 216022, Note_on_c, 0, 80, 103
1, 216023, Note_on_c, 0, 94, 106
1, 216057, Note_off_c, 0, 80, 68
1, 216259, Note_on_c, 0, 67, 86
1, 216260, Note_on_c, 0, 63, 85
1, 216261, Note_on_c, 0, 58, 79
1, 216263, Note_off_c, 0, 94, 49
1, 216314, Note_off_c, 0, 58, 62
1, 216317, Note_off_c, 0, 63, 62
1, 216317, Note_off_c, 0, 67, 64
1, 216514, Note_on_c, 0, 79, 98
1, 216543, Note_off_c, 0, 79, 66
1, 216551, Note_on_c, 0, 95, 105
1, 216624, Note_off_c, 0, 95, 65
1, 216903, Note_on_c, 0, 61, 87
1, 216903, Note_on_c, 0, 67, 89
1, 216903, Note_on_c, 0, 71, 93
1, 216955, Note_off_c, 0, 67, 65
1, 216955, Note_off_c, 0, 71, 63
1, 216967, Note_off_c, 0, 61, 63
1, 217362, Note_on_c, 0, 72, 82
1, 217423, Note_off_c, 0, 72, 65
1, 217424, Note_on_c, 0, 77, 86
1, 217483, Note_on_c, 0, 81, 90
1, 217494, Note_off_c, 0, 77, 65
1, 217520, Note_off_c, 0, 81, 66
1, 217528, Note_on_c, 0, 84, 84
1, 217613, Note_on_c, 0, 89, 91
1, 217628, Note_off_c, 0, 84, 62
1, 217697, Note_on_c, 0, 94, 67
1, 217698, Note_off_c, 0, 94, 127
1, 217700, Note_on_c, 0, 93, 93
1, 217719, Note_off_c, 0, 89, 63
1, 217822, Note_off_c, 0, 93, 66
1, 217836, Control_c, 0, 64, 106
1, 217849, Note_on_c, 0, 96, 104
1, 217849, Note_on_c, 0, 84, 100
1, 217850, Note_on_c, 0, 38, 98
1, 217851, Control_c, 0, 64, 65
1, 217852, Note_on_c, 0, 26, 87
1, 217865, Control_c, 0, 64, 0
1, 217895, Control_c, 0, 64, 42
1, 217910, Control_c, 0, 64, 62
1, 217923, Note_off_c, 0, 26, 62
1, 217925, Control_c, 0, 64, 76
1, 217939, Control_c, 0, 64, 127
1, 217942, Note_off_c, 0, 84, 63
1, 217947, Note_off_c, 0, 38, 60
1, 218096, Note_on_c, 0, 84, 73
1, 218129, Note_off_c, 0, 84, 62
1, 218225, Note_on_c, 0, 50, 75
1, 218226, Note_on_c, 0, 41, 73
1, 218226, Note_on_c, 0, 45, 73
1, 218227, Note_on_c, 0, 84, 79
1, 218259, Note_off_c, 0, 84, 62
1, 218272, Note_off_c, 0, 45, 62
1, 218273, Note_off_c, 0, 41, 61
1, 218281, Note_off_c, 0, 50, 62
1, 218332, Note_on_c, 0, 84, 76
1, 218358, Note_off_c, 0, 84, 67
1, 218423, Note_on_c, 0, 52, 85
1, 218424, Note_on_c, 0, 47, 77
1, 218427, Note_on_c, 0, 43, 76
1, 218445, Note_on_c, 0, 84, 67
1, 218467, Note_off_c, 0, 84, 65
1, 218472, Note_off_c, 0, 52, 61
1, 218477, Note_off_c, 0, 43, 60
1, 218477, Note_off_c, 0, 47, 62
1, 218523, Note_on_c, 0, 84, 75
1, 218547, Note_off_c, 0, 84, 68
1, 218569, Note_off_c, 0, 96, 63
1, 218613, Note_on_c, 0, 53, 87
1, 218616, Note_on_c, 0, 48, 84
1, 218618, Note_on_c, 0, 45, 82
1, 218627, Note_on_c, 0, 98, 104
1, 218627, Note_on_c, 0, 86, 94
1, 218663, Note_off_c, 0, 48, 64
1, 218663, Note_off_c, 0, 53, 62
1, 218671, Note_off_c, 0, 86, 65
1, 218672, Note_off_c, 0, 45, 60
1, 218733, Note_on_c, 0, 86, 85
1, 218758, Note_off_c, 0, 98, 65
1, 218769, Note_off_c, 0, 86, 62
1, 218807, Control_c, 0, 64, 87
1, 218808, Note_on_c, 0, 55, 99
1, 218818, Note_on_c, 0, 50, 93
1, 218821, Note_on_c, 0, 47, 88
1, 218830, Control_c, 0, 64, 64
1, 218833, Note_on_c, 0, 96, 107
1, 218841, Note_on_c, 0, 84, 99
1, 218845, Control_c, 0, 64, 55
1, 218860, Control_c, 0, 64, 63
1, 218874, Control_c, 0, 64, 69
1, 218876, Note_off_c, 0, 84, 66
1, 218883, Note_off_c, 0, 47, 61
1, 218885, Note_off_c, 0, 50, 64
1, 218886, Note_off_c, 0, 55, 59
1, 218889, Control_c, 0, 64, 82
1, 218904, Control_c, 0, 64, 127
1, 218930, Note_on_c, 0, 84, 94
1, 218973, Note_off_c, 0, 84, 64
1, 219028, Note_on_c, 0, 52, 88
1, 219029, Note_on_c, 0, 57, 94
1, 219031, Note_on_c, 0, 48, 87
1, 219041, Note_on_c, 0, 84, 95
1, 219074, Note_off_c, 0, 57, 64
1, 219076, Note_off_c, 0, 84, 65
1, 219080, Note_off_c, 0, 52, 63
1, 219085, Note_off_c, 0, 48, 61
1, 219125, Note_on_c, 0, 84, 87
1, 219155, Note_off_c, 0, 96, 65
1, 219163, Note_off_c, 0, 84, 66
1, 219216, Control_c, 0, 64, 106
1, 219231, Control_c, 0, 64, 67
1, 219232, Note_on_c, 0, 59, 96
1, 219232, Note_on_c, 0, 53, 95
1, 219233, Note_on_c, 0, 50, 90
1, 219237, Note_on_c, 0, 95, 106
1, 219241, Note_on_c, 0, 83, 99
1, 219246, Control_c, 0, 64, 56
1, 219261, Control_c, 0, 64, 64
1, 219275, Control_c, 0, 64, 71
1, 219276, Note_off_c, 0, 83, 67
1, 219285, Note_off_c, 0, 59, 58
1, 219290, Control_c, 0, 64, 87
1, 219294, Note_off_c, 0, 53, 63
1, 219295, Note_off_c, 0, 50, 62
1, 219305, Control_c, 0, 64, 127
1, 219341, Note_on_c, 0, 83, 82
1, 219387, Note_off_c, 0, 83, 64
1, 219429, Note_on_c, 0, 52, 69
1, 219432, Note_on_c, 0, 60, 75
1, 219435, Note_on_c, 0, 55, 73
1, 219454, Note_off_c, 0, 52, 67
1, 219459, Note_off_c, 0, 55, 67
1, 219463, Note_off_c, 0, 60, 64
1, 219468, Note_on_c, 0, 83, 69
1, 219483, Note_off_c, 0, 83, 69
1, 219504, Note_off_c, 0, 95, 58
1, 219593, Note_on_c, 0, 76, 77
1, 219605, Note_on_c, 0, 69, 62
1, 219608, Note_on_c, 0, 81, 48
1, 219618, Note_off_c, 0, 76, 70
1, 219627, Note_off_c, 0, 69, 64
1, 219633, Note_on_c, 0, 86, 72
1, 219646, Note_off_c, 0, 81, 51
1, 219657, Note_on_c, 0, 89, 80
1, 219687, Note_off_c, 0, 86, 65
1, 219712, Note_off_c, 0, 89, 65
1, 219728, Control_c, 0, 64, 90
1, 219736, Note_on_c, 0, 93, 104
1, 219739, Note_on_c, 0, 62, 99
1, 219742, Note_on_c, 0, 81, 89
1, 219742, Control_c, 0, 64, 59
1, 219744, Note_on_c, 0, 53, 90
1, 219748, Note_on_c, 0, 57, 81
1, 219757, Control_c, 0, 64, 0
1, 219782, Note_off_c, 0, 62, 63
1, 219784, Note_off_c, 0, 57, 59
1, 219787, Control_c, 0, 64, 37
1, 219800, Note_off_c, 0, 81, 58
1, 219802, Control_c, 0, 64, 63
1, 219804, Note_off_c, 0, 53, 62
1, 219816, Control_c, 0, 64, 77
1, 219831, Control_c, 0, 64, 127
1, 219863, Note_on_c, 0, 81, 83
1, 219908, Note_off_c, 0, 81, 67
1, 219972, Note_on_c, 0, 55, 79
1, 219972, Note_on_c, 0, 59, 78
1, 219975, Note_on_c, 0, 64, 82
1, 219992, Note_on_c, 0, 81, 81
1, 220006, Note_off_c, 0, 64, 62
1, 220013, Note_off_c, 0, 81, 70
1, 220014, Note_off_c, 0, 59, 63
1, 220021, Note_off_c, 0, 55, 61
1, 220082, Note_on_c, 0, 81, 86
1, 220117, Note_off_c, 0, 81, 62
1, 220174, Note_on_c, 0, 60, 85
1, 220176, Note_on_c, 0, 57, 85
1, 220176, Note_on_c, 0, 65, 87
1, 220196, Note_on_c, 0, 81, 76
1, 220216, Note_off_c, 0, 81, 73
1, 220217, Note_off_c, 0, 60, 65
1, 220219, Note_off_c, 0, 65, 58
1, 220224, Note_off_c, 0, 57, 62
1, 220287, Note_on_c, 0, 81, 79
1, 220309, Note_off_c, 0, 81, 70
1, 220381, Note_on_c, 0, 62, 82
1, 220382, Note_on_c, 0, 67, 91
1, 220384, Note_on_c, 0, 59, 82
1, 220402, Note_on_c, 0, 81, 77
1, 220426, Note_off_c, 0, 62, 63
1, 220427, Note_off_c, 0, 81, 70
1, 220431, Note_off_c, 0, 67, 61
1, 220434, Note_off_c, 0, 59, 62
1, 220486, Note_on_c, 0, 81, 86
1, 220526, Note_off_c, 0, 81, 61
1, 220529, Note_off_c, 0, 93, 65
1, 220580, Control_c, 0, 64, 93
1, 220583, Note_on_c, 0, 69, 97
1, 220584, Note_on_c, 0, 60, 88
1, 220585, Note_on_c, 0, 64, 89
1, 220593, Note_on_c, 0, 91, 101
1, 220594, Note_on_c, 0, 79, 98
1, 220595, Control_c, 0, 64, 67
1, 220610, Control_c, 0, 64, 60
1, 220625, Control_c, 0, 64, 66
1, 220632, Note_off_c, 0, 69, 65
1, 220633, Note_off_c, 0, 79, 68
1, 220639, Control_c, 0, 64, 77
1, 220643, Note_off_c, 0, 64, 63
1, 220645, Note_off_c, 0, 60, 63
1, 220654, Control_c, 0, 64, 97
1, 220669, Control_c, 0, 64, 127
1, 220691, Note_on_c, 0, 79, 90
1, 220732, Note_off_c, 0, 79, 65
1, 220787, Note_on_c, 0, 65, 83
1, 220788, Note_on_c, 0, 62, 77
1, 220788, Note_on_c, 0, 71, 86
1, 220813, Note_on_c, 0, 79, 83
1, 220835, Note_off_c, 0, 79, 69
1, 220836, Note_off_c, 0, 65, 62
1, 220836, Note_off_c, 0, 71, 62
1, 220842, Note_off_c, 0, 62, 63
1, 220910, Note_on_c, 0, 79, 84
1, 220931, Note_off_c, 0, 91, 63
1, 220934, Note_off_c, 0, 79, 67
1, 220990, Note_on_c, 0, 72, 92
1, 220993, Note_on_c, 0, 64, 86
1, 220994, Note_on_c, 0, 67, 84
1, 220995, Control_c, 0, 64, 82
1, 221002, Note_on_c, 0, 89, 104
1, 221006, Note_on_c, 0, 77, 98
1, 221010, Control_c, 0, 64, 65
1, 221039, Control_c, 0, 64, 74
1, 221042, Note_off_c, 0, 77, 67
1, 221049, Note_off_c, 0, 72, 64
1, 221052, Note_off_c, 0, 64, 63
1, 221053, Note_off_c, 0, 67, 62
1, 221054, Control_c, 0, 64, 92
1, 221077, Control_c, 0, 64, 127
1, 221113, Note_on_c, 0, 77, 84
1, 221155, Note_off_c, 0, 77, 59
1, 221204, Note_on_c, 0, 69, 72
1, 221204, Note_on_c, 0, 74, 71
1, 221226, Note_on_c, 0, 65, 40
1, 221230, Note_on_c, 0, 77, 79
1, 221238, Note_off_c, 0, 74, 64
1, 221245, Note_off_c, 0, 69, 63
1, 221253, Note_off_c, 0, 65, 55
1, 221256, Note_off_c, 0, 77, 67
1, 221285, Note_off_c, 0, 89, 59
1, 221300, Note_on_c, 0, 71, 71
1, 221318, Note_on_c, 0, 68, 73
1, 221319, Note_on_c, 0, 64, 69
1, 221324, Note_off_c, 0, 71, 69
1, 221344, Note_off_c, 0, 68, 67
1, 221345, Note_off_c, 0, 64, 69
1, 221357, Note_on_c, 0, 76, 61
1, 221385, Note_on_c, 0, 80, 78
1, 221407, Note_off_c, 0, 76, 61
1, 221411, Note_on_c, 0, 83, 79
1, 221433, Note_off_c, 0, 80, 66
1, 221467, Note_off_c, 0, 83, 67
1, 221492, Control_c, 0, 64, 76
1, 221507, Note_on_c, 0, 88, 103
1, 221507, Control_c, 0, 64, 41
1, 221516, Note_on_c, 0, 76, 94
1, 221518, Note_on_c, 0, 40, 91
1, 221520, Note_on_c, 0, 28, 96
1, 221521, Control_c, 0, 64, 0
1, 221551, Control_c, 0, 64, 48
1, 221564, Note_off_c, 0, 28, 64
1, 221566, Control_c, 0, 64, 69
1, 221581, Control_c, 0, 64, 92
1, 221581, Note_off_c, 0, 40, 62
1, 221595, Note_off_c, 0, 76, 63
1, 221595, Control_c, 0, 64, 127
1, 221696, Note_on_c, 0, 76, 80
1, 221749, Note_off_c, 0, 76, 65
1, 221833, Note_on_c, 0, 70, 83
1, 221838, Note_on_c, 0, 74, 86
1, 221840, Note_on_c, 0, 64, 63
1, 221842, Note_on_c, 0, 76, 84
1, 221868, Note_off_c, 0, 76, 64
1, 221878, Note_off_c, 0, 74, 60
1, 221880, Note_on_c, 0, 65, 28
1, 221887, Note_off_c, 0, 70, 64
1, 221890, Note_off_c, 0, 64, 63
1, 221914, Note_off_c, 0, 65, 50
1, 221935, Note_on_c, 0, 76, 91
1, 221967, Note_off_c, 0, 76, 62
1, 222022, Note_on_c, 0, 69, 81
1, 222023, Note_on_c, 0, 73, 92
1, 222026, Note_on_c, 0, 63, 77
1, 222026, Note_on_c, 0, 76, 94
1, 222059, Note_off_c, 0, 76, 60
1, 222064, Note_off_c, 0, 73, 63
1, 222070, Note_off_c, 0, 69, 64
1, 222084, Note_off_c, 0, 63, 60
1, 222109, Note_on_c, 0, 76, 93
1, 222143, Note_off_c, 0, 76, 62
1, 222147, Note_off_c, 0, 88, 64
1, 222198, Note_on_c, 0, 72, 86
1, 222200, Note_on_c, 0, 62, 69
1, 222201, Note_on_c, 0, 68, 82
1, 222208, Note_on_c, 0, 89, 104
1, 222212, Note_on_c, 0, 77, 103
1, 222240, Note_off_c, 0, 72, 64
1, 222244, Note_off_c, 0, 77, 61
1, 222246, Note_on_c, 0, 87, 37
1, 222259, Note_off_c, 0, 62, 64
1, 222262, Note_off_c, 0, 68, 60
1, 222274, Note_off_c, 0, 87, 36
1, 222299, Note_on_c, 0, 77, 95
1, 222329, Note_off_c, 0, 89, 67
1, 222337, Note_off_c, 0, 77, 63
1, 222392, Note_on_c, 0, 61, 82
1, 222394, Note_on_c, 0, 71, 91
1, 222397, Note_on_c, 0, 67, 80
1, 222404, Control_c, 0, 64, 71
1, 222404, Note_on_c, 0, 88, 106
1, 222406, Note_on_c, 0, 76, 109
1, 222418, Control_c, 0, 64, 53
1, 222433, Control_c, 0, 64, 58
1, 222448, Control_c, 0, 64, 67
1, 222453, Note_off_c, 0, 71, 63
1, 222453, Note_off_c, 0, 76, 60
1, 222463, Control_c, 0, 64, 80
1, 222466, Note_off_c, 0, 67, 63
1, 222475, Note_off_c, 0, 61, 52
1, 222478, Control_c, 0, 64, 127
1, 222505, Note_on_c, 0, 76, 81
1, 222562, Note_off_c, 0, 76, 65
1, 222601, Note_on_c, 0, 70, 77
1, 222603, Note_on_c, 0, 66, 72
1, 222611, Note_on_c, 0, 60, 55
1, 222622, Note_on_c, 0, 76, 88
1, 222651, Note_off_c, 0, 60, 60
1, 222657, Note_off_c, 0, 70, 62
1, 222661, Note_off_c, 0, 76, 64
1, 222664, Note_off_c, 0, 66, 59
1, 222717, Note_on_c, 0, 76, 82
1, 222745, Note_off_c, 0, 76, 63
1, 222747, Note_off_c, 0, 88, 64
1, 222791, Note_on_c, 0, 59, 72
1, 222794, Note_on_c, 0, 69, 84
1, 222797, Control_c, 0, 64, 118
1, 222801, Note_on_c, 0, 65, 77
1, 222812, Note_on_c, 0, 86, 106
1, 222812, Control_c, 0, 64, 71
1, 222813, Note_on_c, 0, 74, 101
1, 222827, Control_c, 0, 64, 58
1, 222840, Note_off_c, 0, 69, 64
1, 222840, Note_off_c, 0, 59, 62
1, 222842, Control_c, 0, 64, 64
1, 222854, Note_off_c, 0, 74, 67
1, 222857, Control_c, 0, 64, 72
1, 222869, Note_off_c, 0, 65, 55
1, 222872, Control_c, 0, 64, 94
1, 222887, Control_c, 0, 64, 127
1, 222930, Note_on_c, 0, 74, 56
1, 222967, Note_off_c, 0, 74, 62
1, 222972, Note_on_c, 0, 58, 57
1, 222988, Note_on_c, 0, 68, 72
1, 223024, Note_off_c, 0, 58, 58
1, 223027, Note_off_c, 0, 86, 59
1, 223030, Note_on_c, 0, 74, 64
1, 223036, Note_off_c, 0, 68, 57
1, 223060, Note_off_c, 0, 74, 65
1, 223127, Note_on_c, 0, 81, 68
1, 223131, Note_on_c, 0, 60, 56
1, 223133, Note_on_c, 0, 69, 51
1, 223145, Note_on_c, 0, 76, 37
1, 223159, Note_off_c, 0, 60, 64
1, 223159, Note_off_c, 0, 69, 56
1, 223173, Note_off_c, 0, 76, 36
1, 223182, Note_off_c, 0, 81, 64
1, 223212, Control_c, 0, 64, 86
1, 223220, Note_on_c, 0, 84, 105
1, 223224, Note_on_c, 0, 72, 85
1, 223227, Note_on_c, 0, 67, 85
1, 223227, Control_c, 0, 64, 63
1, 223228, Note_on_c, 0, 57, 82
1, 223232, Note_on_c, 0, 63, 80
1, 223242, Control_c, 0, 64, 63
1, 223256, Note_off_c, 0, 72, 64
1, 223257, Control_c, 0, 64, 75
1, 223261, Note_off_c, 0, 67, 62
1, 223272, Control_c, 0, 64, 109
1, 223273, Note_off_c, 0, 63, 57
1, 223274, Note_off_c, 0, 57, 63
1, 223286, Control_c, 0, 64, 127
1, 223341, Note_on_c, 0, 72, 70
1, 223382, Note_off_c, 0, 72, 64
1, 223445, Note_on_c, 0, 66, 80
1, 223450, Note_on_c, 0, 56, 69
1, 223451, Note_on_c, 0, 62, 73
1, 223461, Note_on_c, 0, 72, 70
1, 223484, Note_off_c, 0, 66, 59
1, 223486, Note_off_c, 0, 62, 63
1, 223488, Note_off_c, 0, 72, 67
1, 223505, Note_off_c, 0, 56, 60
1, 223549, Note_on_c, 0, 72, 79
1, 223578, Note_off_c, 0, 72, 65
1, 223638, Note_on_c, 0, 55, 74
1, 223638, Note_on_c, 0, 61, 83
1, 223641, Note_on_c, 0, 65, 85
1, 223661, Note_on_c, 0, 72, 76
1, 223682, Note_off_c, 0, 72, 70
1, 223689, Note_off_c, 0, 65, 62
1, 223699, Note_off_c, 0, 55, 62
1, 223700, Note_off_c, 0, 61, 61
1, 223763, Note_on_c, 0, 72, 68
1, 223790, Note_off_c, 0, 72, 66
1, 223834, Note_on_c, 0, 64, 85
1, 223837, Note_on_c, 0, 54, 85
1, 223837, Note_on_c, 0, 60, 72
1, 223862, Note_on_c, 0, 72, 77
1, 223888, Note_off_c, 0, 64, 60
1, 223894, Note_off_c, 0, 54, 61
1, 223895, Note_off_c, 0, 72, 60
1, 223909, Note_off_c, 0, 60, 64
1, 223958, Note_on_c, 0, 72, 59
1, 223972, Note_off_c, 0, 84, 63
1, 223978, Note_off_c, 0, 72, 63
1, 224034, Note_on_c, 0, 63, 91
1, 224036, Control_c, 0, 64, 75
1, 224037, Note_on_c, 0, 59, 84
1, 224038, Note_on_c, 0, 83, 105
1, 224039, Note_on_c, 0, 71, 97
1, 224045, Note_on_c, 0, 53, 77
1, 224051, Control_c, 0, 64, 60
1, 224073, Control_c, 0, 64, 61
1, 224087, Note_off_c, 0, 71, 64
1, 224088, Control_c, 0, 64, 68
1, 224103, Control_c, 0, 64, 78
1, 224104, Note_off_c, 0, 59, 59
1, 224113, Note_off_c, 0, 53, 61
1, 224117, Control_c, 0, 64, 111
1, 224129, Note_off_c, 0, 63, 50
1, 224132, Control_c, 0, 64, 127
1, 224149, Note_on_c, 0, 71, 77
1, 224192, Note_off_c, 0, 71, 62
1, 224240, Note_on_c, 0, 52, 70
1, 224240, Note_on_c, 0, 62, 81
1, 224243, Note_on_c, 0, 58, 80
1, 224258, Note_on_c, 0, 71, 82
1, 224288, Note_off_c, 0, 62, 61
1, 224298, Note_off_c, 0, 52, 64
1, 224298, Note_off_c, 0, 71, 62
1, 224302, Note_off_c, 0, 58, 63
1, 224344, Note_on_c, 0, 71, 82
1, 224383, Note_off_c, 0, 71, 64
1, 224386, Note_off_c, 0, 83, 62
1, 224444, Control_c, 0, 64, 90
1, 224448, Note_on_c, 0, 57, 79
1, 224449, Note_on_c, 0, 61, 88
1, 224452, Note_on_c, 0, 81, 97
1, 224453, Note_on_c, 0, 51, 76
1, 224455, Note_on_c, 0, 69, 97
1, 224459, Control_c, 0, 64, 63
1, 224474, Control_c, 0, 64, 50
1, 224488, Control_c, 0, 64, 62
1, 224500, Note_off_c, 0, 57, 63
1, 224501, Note_off_c, 0, 69, 63
1, 224503, Control_c, 0, 64, 69
1, 224515, Note_off_c, 0, 51, 63
1, 224517, Note_off_c, 0, 61, 58
1, 224518, Control_c, 0, 64, 82
1, 224532, Control_c, 0, 64, 127
1, 224580, Note_on_c, 0, 69, 85
1, 224617, Note_off_c, 0, 69, 58
1, 224649, Note_on_c, 0, 55, 74
1, 224652, Note_on_c, 0, 60, 76
1, 224660, Note_on_c, 0, 50, 56
1, 224678, Note_off_c, 0, 55, 68
1, 224682, Note_off_c, 0, 50, 61
1, 224693, Note_off_c, 0, 60, 60
1, 224708, Note_on_c, 0, 69, 77
1, 224732, Note_off_c, 0, 69, 67
1, 224802, Note_on_c, 0, 62, 64
1, 224803, Note_off_c, 0, 81, 50
1, 224814, Note_on_c, 0, 65, 71
1, 224816, Note_on_c, 0, 59, 72
1, 224830, Note_on_c, 0, 71, 65
1, 224834, Note_off_c, 0, 62, 67
1, 224842, Note_off_c, 0, 65, 68
1, 224844, Note_off_c, 0, 59, 66
1, 224879, Note_on_c, 0, 74, 73
1, 224881, Note_off_c, 0, 71, 60
1, 224917, Note_on_c, 0, 77, 82
1, 224934, Note_off_c, 0, 74, 62
1, 224972, Note_off_c, 0, 77, 65
1, 225013, Control_c, 0, 64, 73
1, 225015, Note_on_c, 0, 83, 104
1, 225018, Note_on_c, 0, 71, 96
1, 225024, Note_on_c, 0, 38, 91
1, 225028, Control_c, 0, 64, 37
1, 225030, Note_on_c, 0, 26, 89
1, 225043, Control_c, 0, 64, 0
1, 225058, Control_c, 0, 64, 45
1, 225073, Control_c, 0, 64, 63
1, 225079, Note_off_c, 0, 26, 61
1, 225087, Control_c, 0, 64, 75
1, 225102, Control_c, 0, 64, 127
1, 225105, Note_off_c, 0, 71, 60
1, 225107, Note_off_c, 0, 38, 61
1, 225203, Note_on_c, 0, 71, 74
1, 225250, Note_off_c, 0, 71, 60
1, 225328, Note_on_c, 0, 50, 79
1, 225334, Note_on_c, 0, 41, 66
1, 225334, Note_on_c, 0, 45, 64
1, 225335, Note_on_c, 0, 71, 78
1, 225367, Note_off_c, 0, 71, 65
1, 225375, Note_on_c, 0, 47, 10
1, 225376, Note_off_c, 0, 45, 63
1, 225379, Note_off_c, 0, 41, 64
1, 225384, Note_off_c, 0, 50, 59
1, 225421, Note_off_c, 0, 47, 39
1, 225447, Note_on_c, 0, 71, 75
1, 225473, Note_off_c, 0, 71, 67
1, 225530, Note_on_c, 0, 52, 91
1, 225531, Note_on_c, 0, 47, 78
1, 225531, Note_on_c, 0, 43, 86
1, 225546, Note_on_c, 0, 71, 77
1, 225585, Note_off_c, 0, 71, 66
1, 225589, Note_off_c, 0, 52, 63
1, 225590, Note_off_c, 0, 47, 62
1, 225598, Note_off_c, 0, 43, 61
1, 225641, Note_on_c, 0, 71, 78
1, 225662, Note_off_c, 0, 71, 70
1, 225684, Note_off_c, 0, 83, 61
1, 225729, Note_on_c, 0, 53, 93
1, 225731, Note_on_c, 0, 45, 86
1, 225731, Note_on_c, 0, 48, 87
1, 225740, Note_on_c, 0, 84, 99
1, 225742, Note_on_c, 0, 72, 94
1, 225767, Note_off_c, 0, 72, 65
1, 225775, Note_off_c, 0, 53, 64
1, 225779, Note_off_c, 0, 48, 63
1, 225791, Note_off_c, 0, 45, 59
1, 225832, Note_on_c, 0, 72, 89
1, 225857, Note_off_c, 0, 84, 65
1, 225858, Note_off_c, 0, 72, 66
1, 225910, Control_c, 0, 64, 87
1, 225921, Note_on_c, 0, 55, 96
1, 225922, Note_on_c, 0, 50, 92
1, 225923, Note_on_c, 0, 47, 87
1, 225925, Control_c, 0, 64, 63
1, 225930, Note_on_c, 0, 83, 104
1, 225933, Note_on_c, 0, 71, 99
1, 225940, Control_c, 0, 64, 56
1, 225954, Control_c, 0, 64, 64
1, 225969, Control_c, 0, 64, 72
1, 225973, Note_off_c, 0, 71, 62
1, 225984, Control_c, 0, 64, 90
1, 225987, Note_off_c, 0, 47, 60
1, 225987, Note_off_c, 0, 50, 62
1, 225996, Note_off_c, 0, 55, 59
1, 225999, Control_c, 0, 64, 127
1, 226033, Note_on_c, 0, 71, 84
1, 226075, Note_off_c, 0, 71, 63
1, 226126, Note_on_c, 0, 57, 86
1, 226127, Note_on_c, 0, 48, 79
1, 226127, Note_on_c, 0, 52, 80
1, 226160, Note_on_c, 0, 71, 77
1, 226178, Note_off_c, 0, 52, 64
1, 226180, Note_off_c, 0, 57, 63
1, 226182, Note_off_c, 0, 48, 60
1, 226184, Note_off_c, 0, 71, 66
1, 226246, Note_on_c, 0, 71, 75
1, 226262, Note_off_c, 0, 83, 60
1, 226270, Note_off_c, 0, 71, 66
1, 226330, Note_on_c, 0, 59, 90
1, 226333, Control_c, 0, 64, 75
1, 226335, Note_on_c, 0, 50, 80
1, 226335, Note_on_c, 0, 53, 80
1, 226345, Note_on_c, 0, 81, 93
1, 226345, Note_on_c, 0, 69, 96
1, 226348, Control_c, 0, 64, 61
1, 226363, Control_c, 0, 64, 63
1, 226378, Control_c, 0, 64, 70
1, 226390, Note_off_c, 0, 69, 65
1, 226392, Control_c, 0, 64, 82
1, 226394, Note_off_c, 0, 53, 63
1, 226397, Note_off_c, 0, 59, 61
1, 226398, Note_off_c, 0, 50, 62
1, 226408, Control_c, 0, 64, 127
1, 226455, Note_on_c, 0, 69, 76
1, 226491, Note_off_c, 0, 69, 62
1, 226529, Note_on_c, 0, 60, 81
1, 226531, Note_on_c, 0, 52, 71
1, 226535, Note_on_c, 0, 55, 63
1, 226564, Note_off_c, 0, 52, 66
1, 226564, Note_off_c, 0, 55, 65
1, 226567, Note_off_c, 0, 60, 62
1, 226568, Note_off_c, 0, 81, 58
1, 226624, Note_on_c, 0, 69, 3
1, 226653, Note_on_c, 0, 71, 69
1, 226664, Note_off_c, 0, 69, 52
1, 226683, Note_on_c, 0, 74, 63
1, 226694, Note_off_c, 0, 71, 59
1, 226721, Note_off_c, 0, 74, 64
1, 226734, Control_c, 0, 64, 105
1, 226738, Note_on_c, 0, 62, 91
1, 226744, Note_on_c, 0, 55, 71
1, 226746, Note_on_c, 0, 53, 83
1, 226747, Note_on_c, 0, 57, 82
1, 226749, Control_c, 0, 64, 66
1, 226750, Note_on_c, 0, 79, 94
1, 226758, Note_on_c, 0, 67, 85
1, 226764, Control_c, 0, 64, 21
1, 226771, Note_off_c, 0, 55, 69
1, 226778, Control_c, 0, 64, 32
1, 226782, Note_off_c, 0, 57, 62
1, 226786, Note_off_c, 0, 62, 65
1, 226793, Control_c, 0, 64, 58
1, 226795, Note_off_c, 0, 67, 61
1, 226804, Note_off_c, 0, 53, 62
1, 226809, Control_c, 0, 64, 68
1, 226824, Control_c, 0, 64, 84
1, 226839, Control_c, 0, 64, 127
1, 226893, Note_on_c, 0, 67, 66
1, 226921, Note_off_c, 0, 67, 67
1, 226963, Note_on_c, 0, 59, 78
1, 226967, Note_on_c, 0, 55, 79
1, 226968, Note_on_c, 0, 64, 78
1, 226994, Note_on_c, 0, 67, 76
1, 227004, Note_off_c, 0, 55, 62
1, 227009, Note_off_c, 0, 59, 62
1, 227018, Note_off_c, 0, 67, 66
1, 227021, Note_off_c, 0, 64, 60
1, 227103, Note_on_c, 0, 67, 76
1, 227128, Note_off_c, 0, 67, 67
1, 227182, Note_on_c, 0, 65, 86
1, 227184, Note_on_c, 0, 60, 82
1, 227185, Note_on_c, 0, 57, 82
1, 227208, Note_on_c, 0, 67, 81
1, 227234, Note_off_c, 0, 57, 63
1, 227234, Note_off_c, 0, 65, 59
1, 227236, Note_off_c, 0, 67, 63
1, 227236, Note_off_c, 0, 60, 64
1, 227315, Note_on_c, 0, 67, 64
1, 227340, Note_off_c, 0, 67, 66
1, 227392, Note_on_c, 0, 67, 87
1, 227394, Note_on_c, 0, 59, 81
1, 227394, Note_on_c, 0, 62, 78
1, 227434, Note_off_c, 0, 59, 58
1, 227445, Note_off_c, 0, 62, 62
1, 227445, Note_off_c, 0, 67, 63
1, 227521, Note_on_c, 0, 67, 64
1, 227528, Note_off_c, 0, 79, 59
1, 227545, Note_off_c, 0, 67, 65
1, 227601, Control_c, 0, 64, 76
1, 227610, Note_on_c, 0, 69, 97
1, 227611, Note_on_c, 0, 60, 86
1, 227614, Note_on_c, 0, 64, 80
1, 227616, Note_on_c, 0, 77, 91
1, 227616, Control_c, 0, 64, 51
1, 227619, Note_on_c, 0, 65, 85
1, 227630, Control_c, 0, 64, 46
1, 227645, Control_c, 0, 64, 58
1, 227655, Note_off_c, 0, 60, 58
1, 227658, Note_off_c, 0, 69, 61
1, 227660, Control_c, 0, 64, 63
1, 227668, Note_off_c, 0, 65, 62
1, 227675, Control_c, 0, 64, 69
1, 227676, Note_off_c, 0, 64, 64
1, 227690, Control_c, 0, 64, 83
1, 227704, Control_c, 0, 64, 127
1, 227758, Note_on_c, 0, 65, 70
1, 227784, Note_off_c, 0, 65, 63
1, 227866, Note_on_c, 0, 65, 81
1, 227871, Note_on_c, 0, 71, 98
1, 227877, Note_on_c, 0, 62, 81
1, 227901, Note_off_c, 0, 62, 70
1, 227911, Note_off_c, 0, 71, 63
1, 227921, Note_off_c, 0, 65, 63
1, 227998, Note_on_c, 0, 65, 77
1, 228081, Note_off_c, 0, 65, 46
1, 228092, Poly_aftertouch_c, 0, 63, 0
1, 228133, Note_on_c, 0, 67, 82
1, 228133, Note_on_c, 0, 72, 96
1, 228139, Note_on_c, 0, 64, 87
1, 228142, Note_on_c, 0, 65, 75
1, 228164, Note_off_c, 0, 64, 65
1, 228175, Note_off_c, 0, 72, 62
1, 228196, Note_off_c, 0, 67, 61
1, 228202, Note_off_c, 0, 65, 63
1, 228283, Note_on_c, 0, 65, 65
1, 228356, Note_off_c, 0, 65, 58
1, 228438, Note_on_c, 0, 74, 99
1, 228442, Note_on_c, 0, 69, 84
1, 228443, Note_on_c, 0, 65, 93
1, 228464, Note_off_c, 0, 74, 70
1, 228485, Note_off_c, 0, 69, 67
1, 228518, Note_off_c, 0, 65, 55
1, 228729, Note_on_c, 0, 65, 51
1, 228774, Note_off_c, 0, 77, 32
1, 228805, Note_off_c, 0, 65, 58
1, 228997, Note_on_c, 0, 64, 97
1, 228998, Note_on_c, 0, 76, 93
1, 229000, Note_on_c, 0, 69, 89
1, 229001, Note_on_c, 0, 71, 87
1, 229004, Note_on_c, 0, 74, 80
1, 229009, Control_c, 0, 64, 68
1, 229018, Note_on_c, 0, 40, 73
1, 229021, Note_on_c, 0, 28, 64
1, 229024, Control_c, 0, 64, 40
1, 229039, Control_c, 0, 64, 40
1, 229046, Note_off_c, 0, 40, 65
1, 229053, Control_c, 0, 64, 56
1, 229057, Note_off_c, 0, 28, 63
1, 229068, Control_c, 0, 64, 64
1, 229083, Control_c, 0, 64, 75
1, 229098, Control_c, 0, 64, 127
1, 229242, Note_off_c, 0, 76, 59
1, 229258, Note_off_c, 0, 64, 54
1, 229290, Note_off_c, 0, 74, 63
1, 229308, Note_off_c, 0, 71, 54
1, 229315, Note_off_c, 0, 69, 59
1, 229777, Note_on_c, 0, 47, 92
1, 229895, Note_off_c, 0, 47, 56
1, 230068, Note_on_c, 0, 35, 79
1, 230109, Note_off_c, 0, 35, 61
1, 230285, Note_on_c, 0, 47, 68
1, 230303, Note_on_c, 0, 48, 72
1, 230337, Note_off_c, 0, 47, 64
1, 230371, Note_on_c, 0, 50, 67
1, 230377, Note_off_c, 0, 48, 64
1, 230396, Note_on_c, 0, 52, 91
1, 230403, Control_c, 0, 64, 93
1, 230416, Note_on_c, 0, 65, 74
1, 230417, Note_off_c, 0, 50, 63
1, 230418, Control_c, 0, 64, 62
1, 230425, Note_on_c, 0, 53, 56
1, 230432, Control_c, 0, 64, 0
1, 230462, Control_c, 0, 64, 13
1, 230472, Note_off_c, 0, 53, 0
1, 230477, Control_c, 0, 64, 56
1, 230485, Note_on_c, 0, 53, 47
1, 230491, Control_c, 0, 64, 70
1, 230506, Control_c, 0, 64, 105
1, 230521, Control_c, 0, 64, 127
1, 230598, Note_off_c, 0, 52, 56
1, 230688, Note_on_c, 0, 40, 67
1, 230724, Note_off_c, 0, 40, 65
1, 230870, Note_off_c, 0, 65, 53
1, 230929, Note_off_c, 0, 53, 41
1, 230970, Note_on_c, 0, 45, 89
1, 231108, Note_off_c, 0, 45, 56
1, 231280, Note_on_c, 0, 33, 89
1, 231350, Note_off_c, 0, 33, 61
1, 231730, Note_on_c, 0, 33, 88
1, 231731, Note_on_c, 0, 28, 91
1, 231731, Note_on_c, 0, 40, 91
1, 231735, Note_on_c, 0, 47, 86
1, 231752, Control_c, 0, 64, 101
1, 231767, Control_c, 0, 64, 66
1, 231782, Control_c, 0, 64, 0
1, 232019, Control_c, 0, 64, 32
1, 232034, Control_c, 0, 64, 45
1, 232049, Control_c, 0, 64, 48
1, 232064, Control_c, 0, 64, 50
1, 232078, Control_c, 0, 64, 53
1, 232093, Control_c, 0, 64, 57
1, 232108, Control_c, 0, 64, 61
1, 232123, Control_c, 0, 64, 63
1, 232138, Control_c, 0, 64, 65
1, 232152, Control_c, 0, 64, 67
1, 232167, Control_c, 0, 64, 70
1, 232182, Control_c, 0, 64, 76
1, 232196, Control_c, 0, 64, 83
1, 232211, Control_c, 0, 64, 92
1, 232226, Control_c, 0, 64, 105
1, 232241, Control_c, 0, 64, 127
1, 232341, Note_off_c, 0, 28, 48
1, 232345, Note_off_c, 0, 33, 30
1, 232385, Note_off_c, 0, 40, 55
1, 232435, Note_off_c, 0, 47, 59
1, 233451, Note_on_c, 0, 40, 68
1, 233473, Note_on_c, 0, 43, 70
1, 233517, Note_on_c, 0, 47, 74
1, 233550, Note_on_c, 0, 64, 85
1, 233552, Note_on_c, 0, 50, 96
1, 233552, Note_on_c, 0, 57, 88
1, 233553, Note_on_c, 0, 53, 89
1, 233555, Note_on_c, 0, 59, 80
1, 233561, Control_c, 0, 64, 116
1, 233562, Note_on_c, 0, 62, 77
1, 233576, Control_c, 0, 64, 69
1, 233591, Control_c, 0, 64, 30
1, 233606, Control_c, 0, 64, 0
1, 235511, Control_c, 0, 64, 17
1, 235526, Control_c, 0, 64, 24
1, 235540, Control_c, 0, 64, 27
1, 235555, Control_c, 0, 64, 29
1, 235570, Control_c, 0, 64, 32
1, 235585, Control_c, 0, 64, 33
1, 235600, Control_c, 0, 64, 35
1, 235615, Control_c, 0, 64, 36
1, 235630, Control_c, 0, 64, 38
1, 235645, Control_c, 0, 64, 39
1, 235660, Control_c, 0, 64, 40
1, 235675, Control_c, 0, 64, 41
1, 235690, Control_c, 0, 64, 42
1, 235705, Control_c, 0, 64, 42
1, 235719, Control_c, 0, 64, 43
1, 235734, Control_c, 0, 64, 43
1, 235749, Control_c, 0, 64, 44
1, 235764, Control_c, 0, 64, 45
1, 235779, Control_c, 0, 64, 45
1, 235793, Control_c, 0, 64, 46
1, 235808, Control_c, 0, 64, 46
1, 235823, Control_c, 0, 64, 47
1, 235837, Control_c, 0, 64, 47
1, 235867, Control_c, 0, 64, 48
1, 235897, Control_c, 0, 64, 48
1, 235941, Control_c, 0, 64, 49
1, 235956, Control_c, 0, 64, 49
1, 235985, Control_c, 0, 64, 50
1, 236030, Control_c, 0, 64, 50
1, 236052, Control_c, 0, 64, 51
1, 236082, Control_c, 0, 64, 51
1, 236097, Control_c, 0, 64, 52
1, 236112, Control_c, 0, 64, 52
1, 236141, Control_c, 0, 64, 53
1, 236171, Control_c, 0, 64, 54
1, 236186, Control_c, 0, 64, 54
1, 236215, Control_c, 0, 64, 55
1, 236230, Control_c, 0, 64, 55
1, 236244, Control_c, 0, 64, 56
1, 236259, Control_c, 0, 64, 56
1, 236274, Control_c, 0, 64, 57
1, 236289, Control_c, 0, 64, 58
1, 236304, Control_c, 0, 64, 58
1, 236319, Control_c, 0, 64, 59
1, 236334, Control_c, 0, 64, 59
1, 236363, Control_c, 0, 64, 60
1, 236378, Control_c, 0, 64, 60
1, 236394, Control_c, 0, 64, 61
1, 236423, Control_c, 0, 64, 61
1, 236453, Control_c, 0, 64, 62
1, 236483, Control_c, 0, 64, 62
1, 236512, Control_c, 0, 64, 63
1, 236557, Control_c, 0, 64, 63
1, 236586, Control_c, 0, 64, 64
1, 236601, Control_c, 0, 64, 64
1, 236631, Control_c, 0, 64, 65
1, 236646, Control_c, 0, 64, 65
1, 236675, Control_c, 0, 64, 66
1, 236690, Control_c, 0, 64, 66
1, 236705, Control_c, 0, 64, 67
1, 236734, Control_c, 0, 64, 67
1, 236779, Control_c, 0, 64, 68
1, 236905, Control_c, 0, 64, 67
1, 236906, Note_off_c, 0, 50, 57
1, 236920, Control_c, 0, 64, 67
1, 236924, Note_off_c, 0, 40, 44
1, 236929, Note_off_c, 0, 47, 61
1, 236935, Control_c, 0, 64, 66
1, 236939, Note_off_c, 0, 53, 60
1, 236939, Note_off_c, 0, 43, 63
1, 236942, Note_off_c, 0, 59, 63
1, 236948, Note_off_c, 0, 57, 64
1, 236949, Control_c, 0, 64, 65
1, 236964, Control_c, 0, 64, 63
1, 236973, Note_off_c, 0, 62, 62
1, 236979, Control_c, 0, 64, 61
1, 236993, Control_c, 0, 64, 59
1, 237008, Control_c, 0, 64, 56
1, 237023, Control_c, 0, 64, 54
1, 237038, Control_c, 0, 64, 52
1, 237053, Control_c, 0, 64, 52
1, 237067, Control_c, 0, 64, 51
1, 237082, Control_c, 0, 64, 50
1, 237097, Control_c, 0, 64, 49
1, 237112, Control_c, 0, 64, 48
1, 237127, Control_c, 0, 64, 47
1, 237141, Control_c, 0, 64, 46
1, 237156, Control_c, 0, 64, 45
1, 237171, Control_c, 0, 64, 45
1, 237187, Control_c, 0, 64, 44
1, 237202, Control_c, 0, 64, 43
1, 237216, Control_c, 0, 64, 42
1, 237231, Control_c, 0, 64, 42
1, 237246, Control_c, 0, 64, 41
1, 237261, Control_c, 0, 64, 40
1, 237276, Control_c, 0, 64, 39
1, 237305, Control_c, 0, 64, 39
1, 237335, Control_c, 0, 64, 38
1, 237350, Control_c, 0, 64, 38
1, 237380, Control_c, 0, 64, 37
1, 237395, Control_c, 0, 64, 37
1, 237815, Control_c, 0, 64, 33
1, 237830, Control_c, 0, 64, 21
1, 237845, Control_c, 0, 64, 0
1, 238981, Control_c, 0, 64, 18
1, 238996, Control_c, 0, 64, 25
1, 239010, Control_c, 0, 64, 32
1, 239025, Control_c, 0, 64, 36
1, 239047, Control_c, 0, 64, 39
1, 239061, Control_c, 0, 64, 42
1, 239076, Control_c, 0, 64, 44
1, 239091, Control_c, 0, 64, 46
1, 239106, Control_c, 0, 64, 47
1, 239121, Control_c, 0, 64, 48
1, 239136, Control_c, 0, 64, 49
1, 239151, Control_c, 0, 64, 50
1, 239165, Control_c, 0, 64, 51
1, 239180, Control_c, 0, 64, 51
1, 239195, Control_c, 0, 64, 52
1, 239210, Control_c, 0, 64, 52
1, 239225, Control_c, 0, 64, 53
1, 239240, Control_c, 0, 64, 54
1, 239255, Control_c, 0, 64, 54
1, 239269, Control_c, 0, 64, 55
1, 239284, Control_c, 0, 64, 55
1, 239299, Control_c, 0, 64, 56
1, 239314, Control_c, 0, 64, 56
1, 239329, Control_c, 0, 64, 57
1, 239343, Control_c, 0, 64, 57
1, 239358, Control_c, 0, 64, 58
1, 239373, Control_c, 0, 64, 59
1, 239387, Control_c, 0, 64, 59
1, 239402, Control_c, 0, 64, 60
1, 239417, Control_c, 0, 64, 60
1, 239432, Control_c, 0, 64, 61
1, 239447, Control_c, 0, 64, 62
1, 239461, Control_c, 0, 64, 63
1, 239476, Control_c, 0, 64, 64
1, 239491, Control_c, 0, 64, 65
1, 239506, Control_c, 0, 64, 66
1, 239521, Control_c, 0, 64, 67
1, 239535, Control_c, 0, 64, 70
1, 239550, Control_c, 0, 64, 72
1, 239565, Control_c, 0, 64, 75
1, 239581, Control_c, 0, 64, 78
1, 239596, Control_c, 0, 64, 81
1, 239611, Control_c, 0, 64, 85
1, 239626, Control_c, 0, 64, 91
1, 239640, Control_c, 0, 64, 97
1, 239655, Control_c, 0, 64, 106
1, 239670, Control_c, 0, 64, 127
1, 239916, Note_off_c, 0, 64, 35
1, 240397, Note_on_c, 0, 66, 33
1, 240689, Note_off_c, 0, 66, 28
1, 240960, Control_c, 0, 64, 112
1, 240975, Control_c, 0, 64, 102
1, 240975, Note_on_c, 0, 65, 41
1, 240989, Control_c, 0, 64, 92
1, 241004, Control_c, 0, 64, 83
1, 241019, Control_c, 0, 64, 74
1, 241033, Control_c, 0, 64, 68
1, 241048, Control_c, 0, 64, 65
1, 241063, Control_c, 0, 64, 66
1, 241078, Control_c, 0, 64, 66
1, 241093, Control_c, 0, 64, 67
1, 241107, Control_c, 0, 64, 68
1, 241122, Control_c, 0, 64, 71
1, 241137, Control_c, 0, 64, 75
1, 241152, Control_c, 0, 64, 80
1, 241167, Control_c, 0, 64, 83
1, 241183, Control_c, 0, 64, 85
1, 241198, Control_c, 0, 64, 87
1, 241212, Control_c, 0, 64, 89
1, 241227, Control_c, 0, 64, 89
1, 241251, Note_off_c, 0, 65, 24
1, 241324, Control_c, 0, 64, 89
1, 241353, Control_c, 0, 64, 88
1, 241368, Control_c, 0, 64, 87
1, 241383, Control_c, 0, 64, 86
1, 241398, Control_c, 0, 64, 85
1, 241406, Note_on_c, 0, 64, 45
1, 241412, Control_c, 0, 64, 80
1, 241427, Control_c, 0, 64, 75
1, 241442, Control_c, 0, 64, 68
1, 241456, Control_c, 0, 64, 64
1, 241471, Control_c, 0, 64, 62
1, 241486, Control_c, 0, 64, 63
1, 241501, Control_c, 0, 64, 64
1, 241516, Control_c, 0, 64, 66
1, 241530, Control_c, 0, 64, 68
1, 241545, Control_c, 0, 64, 72
1, 241560, Control_c, 0, 64, 75
1, 241575, Control_c, 0, 64, 78
1, 241590, Control_c, 0, 64, 79
1, 241604, Control_c, 0, 64, 80
1, 241619, Control_c, 0, 64, 80
1, 241652, Note_off_c, 0, 64, 33
1, 241723, Control_c, 0, 64, 80
1, 241738, Control_c, 0, 64, 79
1, 241753, Control_c, 0, 64, 78
1, 241768, Control_c, 0, 64, 75
1, 241776, Note_on_c, 0, 66, 38
1, 241783, Control_c, 0, 64, 71
1, 241798, Control_c, 0, 64, 66
1, 241812, Control_c, 0, 64, 63
1, 241827, Control_c, 0, 64, 64
1, 241842, Control_c, 0, 64, 64
1, 241856, Control_c, 0, 64, 65
1, 241871, Control_c, 0, 64, 66
1, 241886, Control_c, 0, 64, 69
1, 241901, Control_c, 0, 64, 72
1, 241916, Control_c, 0, 64, 74
1, 241930, Control_c, 0, 64, 76
1, 241945, Control_c, 0, 64, 78
1, 241957, Note_off_c, 0, 66, 43
1, 241960, Control_c, 0, 64, 79
1, 241976, Control_c, 0, 64, 79
1, 242021, Control_c, 0, 64, 78
1, 242042, Control_c, 0, 64, 77
1, 242057, Control_c, 0, 64, 73
1, 242072, Control_c, 0, 64, 68
1, 242076, Note_on_c, 0, 65, 37
1, 242087, Control_c, 0, 64, 66
1, 242102, Control_c, 0, 64, 67
1, 242117, Control_c, 0, 64, 68
1, 242131, Control_c, 0, 64, 70
1, 242146, Control_c, 0, 64, 72
1, 242161, Control_c, 0, 64, 75
1, 242176, Control_c, 0, 64, 76
1, 242179, Note_off_c, 0, 65, 51
1, 242191, Control_c, 0, 64, 78
1, 242206, Control_c, 0, 64, 78
1, 242235, Control_c, 0, 64, 78
1, 242250, Control_c, 0, 64, 77
1, 242265, Control_c, 0, 64, 75
1, 242279, Control_c, 0, 64, 71
1, 242294, Control_c, 0, 64, 69
1, 242309, Control_c, 0, 64, 70
1, 242312, Note_on_c, 0, 64, 37
1, 242324, Control_c, 0, 64, 72
1, 242339, Control_c, 0, 64, 75
1, 242353, Control_c, 0, 64, 77
1, 242368, Control_c, 0, 64, 78
1, 242398, Control_c, 0, 64, 78
1, 242413, Control_c, 0, 64, 77
1, 242427, Control_c, 0, 64, 73
1, 242442, Control_c, 0, 64, 71
1, 242472, Control_c, 0, 64, 72
1, 242474, Note_off_c, 0, 64, 29
1, 242486, Control_c, 0, 64, 72
1, 242501, Control_c, 0, 64, 73
1, 242513, Note_on_c, 0, 66, 36
1, 242516, Control_c, 0, 64, 75
1, 242531, Control_c, 0, 64, 76
1, 242546, Control_c, 0, 64, 78
1, 242583, Note_off_c, 0, 66, 48
1, 242689, Note_on_c, 0, 65, 42
1, 242739, Control_c, 0, 64, 77
1, 242755, Note_off_c, 0, 65, 52
1, 242776, Control_c, 0, 64, 77
1, 242865, Note_on_c, 0, 64, 39
1, 242924, Control_c, 0, 64, 76
1, 242957, Note_off_c, 0, 64, 46
1, 242969, Control_c, 0, 64, 76
1, 243014, Control_c, 0, 64, 75
1, 243029, Note_on_c, 0, 66, 39
1, 243058, Control_c, 0, 64, 75
1, 243088, Control_c, 0, 64, 74
1, 243102, Control_c, 0, 64, 74
1, 243105, Note_off_c, 0, 66, 40
1, 243117, Control_c, 0, 64, 73
1, 243132, Control_c, 0, 64, 73
1, 243147, Control_c, 0, 64, 72
1, 243162, Control_c, 0, 64, 71
1, 243176, Control_c, 0, 64, 70
1, 243178, Note_on_c, 0, 65, 47
1, 243191, Control_c, 0, 64, 69
1, 243206, Control_c, 0, 64, 69
1, 243221, Control_c, 0, 64, 68
1, 243236, Control_c, 0, 64, 67
1, 243250, Control_c, 0, 64, 67
1, 243255, Note_off_c, 0, 65, 51
1, 243265, Control_c, 0, 64, 66
1, 243295, Control_c, 0, 64, 65
1, 243324, Control_c, 0, 64, 65
1, 243330, Note_on_c, 0, 64, 44
1, 243339, Control_c, 0, 64, 64
1, 243354, Control_c, 0, 64, 64
1, 243383, Control_c, 0, 64, 63
1, 243413, Control_c, 0, 64, 63
1, 243420, Note_off_c, 0, 64, 52
1, 243443, Control_c, 0, 64, 62
1, 243458, Control_c, 0, 64, 62
1, 243471, Note_on_c, 0, 66, 44
1, 243502, Control_c, 0, 64, 61
1, 243536, Note_off_c, 0, 66, 57
1, 243554, Control_c, 0, 64, 61
1, 243614, Control_c, 0, 64, 60
1, 243618, Note_on_c, 0, 65, 32
1, 243659, Control_c, 0, 64, 60
1, 243670, Note_off_c, 0, 65, 47
1, 243728, Note_on_c, 0, 64, 45
1, 243789, Note_off_c, 0, 64, 54
1, 243792, Control_c, 0, 64, 59
1, 243856, Note_on_c, 0, 66, 45
1, 243866, Control_c, 0, 64, 59
1, 243902, Note_off_c, 0, 66, 59
1, 243980, Note_on_c, 0, 65, 43
1, 244021, Note_off_c, 0, 65, 61
1, 244106, Note_on_c, 0, 64, 42
1, 244155, Note_off_c, 0, 64, 57
1, 244216, Note_on_c, 0, 66, 42
1, 244221, Control_c, 0, 64, 58
1, 244257, Note_off_c, 0, 66, 58
1, 244332, Control_c, 0, 64, 58
1, 244345, Note_on_c, 0, 65, 45
1, 244382, Note_off_c, 0, 65, 58
1, 244408, Control_c, 0, 64, 57
1, 244460, Note_on_c, 0, 64, 37
1, 244506, Note_off_c, 0, 64, 53
1, 244526, Control_c, 0, 64, 57
1, 244568, Note_on_c, 0, 66, 36
1, 244610, Note_off_c, 0, 66, 48
1, 244691, Note_on_c, 0, 65, 27
1, 244726, Note_off_c, 0, 65, 51
1, 244778, Control_c, 0, 64, 56
1, 244787, Note_on_c, 0, 64, 40
1, 244839, Note_off_c, 0, 64, 58
1, 244896, Control_c, 0, 64, 56
1, 244907, Note_on_c, 0, 66, 42
1, 244919, Note_on_c, 0, 60, 45
1, 244934, Note_off_c, 0, 66, 58
1, 244941, Control_c, 0, 64, 55
1, 244949, Note_off_c, 0, 60, 62
1, 245028, Note_on_c, 0, 62, 55
1, 245062, Note_off_c, 0, 62, 65
1, 245130, Note_on_c, 0, 65, 53
1, 245167, Note_off_c, 0, 65, 64
1, 245170, Control_c, 0, 64, 55
1, 245201, Control_c, 0, 64, 54
1, 245244, Note_on_c, 0, 61, 41
1, 245246, Control_c, 0, 64, 54
1, 245250, Note_on_c, 0, 63, 48
1, 245277, Note_off_c, 0, 61, 59
1, 245283, Note_off_c, 0, 63, 61
1, 245348, Note_on_c, 0, 62, 45
1, 245380, Note_off_c, 0, 62, 64
1, 245408, Control_c, 0, 64, 53
1, 245460, Note_on_c, 0, 64, 52
1, 245497, Control_c, 0, 64, 53
1, 245505, Note_off_c, 0, 64, 61
1, 245568, Note_on_c, 0, 66, 50
1, 245574, Note_on_c, 0, 60, 46
1, 245610, Note_off_c, 0, 60, 62
1, 245610, Note_off_c, 0, 66, 62
1, 245616, Control_c, 0, 64, 52
1, 245683, Note_on_c, 0, 62, 43
1, 245714, Note_off_c, 0, 62, 59
1, 245787, Note_on_c, 0, 65, 48
1, 245825, Note_off_c, 0, 65, 63
1, 245890, Control_c, 0, 64, 52
1, 245900, Note_on_c, 0, 61, 39
1, 245900, Note_on_c, 0, 63, 42
1, 245929, Note_off_c, 0, 63, 58
1, 245940, Note_off_c, 0, 61, 58
1, 246007, Note_on_c, 0, 62, 41
1, 246040, Note_off_c, 0, 62, 58
1, 246113, Note_on_c, 0, 64, 46
1, 246156, Note_off_c, 0, 64, 60
1, 246172, Control_c, 0, 64, 51
1, 246216, Note_on_c, 0, 66, 49
1, 246224, Note_on_c, 0, 60, 40
1, 246258, Note_off_c, 0, 60, 60
1, 246260, Note_off_c, 0, 66, 60
1, 246315, Note_on_c, 0, 62, 50
1, 246353, Note_off_c, 0, 62, 64
1, 246405, Note_on_c, 0, 65, 58
1, 246442, Note_off_c, 0, 65, 63
1, 246516, Note_on_c, 0, 63, 51
1, 246531, Note_on_c, 0, 61, 44
1, 246556, Note_off_c, 0, 63, 61
1, 246569, Note_off_c, 0, 61, 62
1, 246615, Note_on_c, 0, 62, 58
1, 246650, Note_off_c, 0, 62, 64
1, 246707, Note_on_c, 0, 64, 61
1, 246727, Control_c, 0, 64, 51
1, 246743, Note_off_c, 0, 64, 62
1, 246808, Note_on_c, 0, 66, 58
1, 246812, Note_on_c, 0, 60, 53
1, 246845, Note_off_c, 0, 66, 62
1, 246847, Note_off_c, 0, 60, 65
1, 246907, Note_on_c, 0, 62, 49
1, 246954, Note_off_c, 0, 62, 61
1, 246995, Note_on_c, 0, 65, 57
1, 247029, Note_off_c, 0, 65, 64
1, 247091, Note_on_c, 0, 63, 55
1, 247101, Note_on_c, 0, 61, 45
1, 247127, Note_off_c, 0, 63, 61
1, 247137, Note_off_c, 0, 61, 62
1, 247189, Note_on_c, 0, 62, 55
1, 247227, Note_off_c, 0, 62, 63
1, 247247, Control_c, 0, 64, 50
1, 247285, Note_on_c, 0, 64, 54
1, 247323, Note_off_c, 0, 64, 59
1, 247343, Control_c, 0, 64, 50
1, 247371, Note_on_c, 0, 59, 54
1, 247372, Note_on_c, 0, 66, 54
1, 247405, Note_off_c, 0, 59, 64
1, 247411, Note_off_c, 0, 66, 63
1, 247472, Note_on_c, 0, 62, 52
1, 247509, Note_off_c, 0, 62, 64
1, 247554, Note_on_c, 0, 65, 51
1, 247584, Note_off_c, 0, 65, 62
1, 247642, Note_on_c, 0, 61, 51
1, 247647, Note_on_c, 0, 63, 51
1, 247676, Note_off_c, 0, 63, 62
1, 247681, Note_off_c, 0, 61, 63
1, 247732, Note_on_c, 0, 62, 58
1, 247767, Note_off_c, 0, 62, 65
1, 247815, Note_on_c, 0, 64, 63
1, 247852, Note_off_c, 0, 64, 60
1, 247899, Note_on_c, 0, 59, 52
1, 247912, Note_on_c, 0, 66, 53
1, 247934, Note_off_c, 0, 59, 65
1, 247950, Note_off_c, 0, 66, 63
1, 247999, Note_on_c, 0, 62, 54
1, 248045, Note_off_c, 0, 62, 63
1, 248087, Note_on_c, 0, 65, 61
1, 248120, Note_off_c, 0, 65, 64
1, 248174, Note_on_c, 0, 61, 52
1, 248174, Note_on_c, 0, 63, 61
1, 248207, Note_off_c, 0, 63, 65
1, 248211, Note_off_c, 0, 61, 63
1, 248257, Note_on_c, 0, 62, 60
1, 248291, Note_off_c, 0, 62, 64
1, 248339, Note_on_c, 0, 64, 63
1, 248357, Control_c, 0, 64, 49
1, 248375, Note_off_c, 0, 64, 62
1, 248420, Note_on_c, 0, 66, 65
1, 248423, Note_on_c, 0, 58, 52
1, 248451, Note_off_c, 0, 66, 64
1, 248455, Note_off_c, 0, 58, 64
1, 248508, Note_on_c, 0, 62, 58
1, 248545, Note_off_c, 0, 62, 65
1, 248589, Note_on_c, 0, 65, 65
1, 248620, Note_off_c, 0, 65, 64
1, 248674, Note_on_c, 0, 61, 46
1, 248675, Note_on_c, 0, 63, 60
1, 248707, Note_off_c, 0, 63, 65
1, 248709, Note_off_c, 0, 61, 62
1, 248752, Note_on_c, 0, 62, 66
1, 248791, Note_off_c, 0, 62, 65
1, 248838, Note_on_c, 0, 64, 66
1, 248868, Control_c, 0, 64, 49
1, 248872, Note_off_c, 0, 64, 61
1, 248918, Note_on_c, 0, 58, 53
1, 248920, Note_on_c, 0, 66, 61
1, 248952, Note_off_c, 0, 58, 65
1, 248952, Note_off_c, 0, 66, 64
1, 249008, Note_on_c, 0, 62, 63
1, 249044, Note_off_c, 0, 62, 64
1, 249085, Note_on_c, 0, 65, 61
1, 249113, Note_off_c, 0, 65, 64
1, 249160, Note_on_c, 0, 63, 65
1, 249169, Note_on_c, 0, 61, 49
1, 249191, Note_off_c, 0, 63, 66
1, 249202, Note_off_c, 0, 61, 62
1, 249244, Note_on_c, 0, 62, 59
1, 249276, Note_off_c, 0, 62, 65
1, 249321, Note_on_c, 0, 64, 69
1, 249351, Note_off_c, 0, 64, 65
1, 249395, Note_on_c, 0, 67, 64
1, 249403, Note_on_c, 0, 57, 48
1, 249403, Control_c, 0, 64, 48
1, 249423, Note_off_c, 0, 67, 66
1, 249435, Note_off_c, 0, 57, 65
1, 249447, Control_c, 0, 64, 48
1, 249476, Note_on_c, 0, 60, 59
1, 249476, Control_c, 0, 64, 47
1, 249517, Note_off_c, 0, 60, 65
1, 249565, Note_on_c, 0, 65, 67
1, 249593, Note_off_c, 0, 65, 67
1, 249648, Note_on_c, 0, 62, 60
1, 249665, Note_on_c, 0, 59, 48
1, 249679, Note_off_c, 0, 62, 65
1, 249695, Note_off_c, 0, 59, 64
1, 249723, Note_on_c, 0, 63, 55
1, 249748, Note_off_c, 0, 63, 62
1, 249806, Note_on_c, 0, 64, 70
1, 249837, Note_off_c, 0, 64, 64
1, 249882, Note_on_c, 0, 67, 66
1, 249886, Note_on_c, 0, 57, 59
1, 249910, Note_off_c, 0, 67, 66
1, 249918, Note_off_c, 0, 57, 66
1, 249962, Note_on_c, 0, 60, 61
1, 249999, Note_off_c, 0, 60, 65
1, 250045, Note_on_c, 0, 65, 66
1, 250077, Note_off_c, 0, 65, 65
1, 250125, Note_on_c, 0, 62, 67
1, 250138, Note_on_c, 0, 59, 55
1, 250154, Note_off_c, 0, 62, 66
1, 250170, Note_off_c, 0, 59, 65
1, 250204, Note_on_c, 0, 63, 63
1, 250235, Note_off_c, 0, 63, 66
1, 250290, Note_on_c, 0, 64, 77
1, 250328, Note_off_c, 0, 64, 58
1, 250370, Note_on_c, 0, 56, 59
1, 250378, Note_on_c, 0, 68, 65
1, 250405, Note_off_c, 0, 56, 65
1, 250409, Note_off_c, 0, 68, 65
1, 250466, Note_on_c, 0, 60, 56
1, 250504, Note_off_c, 0, 60, 64
1, 250547, Note_on_c, 0, 65, 65
1, 250578, Note_off_c, 0, 65, 66
1, 250625, Note_on_c, 0, 62, 64
1, 250638, Note_on_c, 0, 59, 53
1, 250655, Note_off_c, 0, 62, 66
1, 250670, Note_off_c, 0, 59, 65
1, 250707, Note_on_c, 0, 63, 64
1, 250737, Note_off_c, 0, 63, 66
1, 250794, Note_on_c, 0, 64, 69
1, 250833, Note_off_c, 0, 64, 60
1, 250857, Note_on_c, 0, 55, 58
1, 250873, Note_on_c, 0, 69, 70
1, 250894, Note_off_c, 0, 55, 63
1, 250899, Note_off_c, 0, 69, 69
1, 250901, Control_c, 0, 64, 47
1, 250946, Note_on_c, 0, 60, 64
1, 250982, Note_off_c, 0, 60, 64
1, 251040, Note_on_c, 0, 65, 72
1, 251075, Note_off_c, 0, 65, 62
1, 251119, Note_on_c, 0, 62, 72
1, 251127, Note_on_c, 0, 59, 58
1, 251147, Note_off_c, 0, 62, 67
1, 251163, Note_off_c, 0, 59, 64
1, 251199, Note_on_c, 0, 63, 65
1, 251229, Note_off_c, 0, 63, 66
1, 251285, Note_on_c, 0, 64, 76
1, 251328, Note_off_c, 0, 64, 52
1, 251351, Note_on_c, 0, 52, 58
1, 251366, Note_on_c, 0, 71, 73
1, 251383, Control_c, 0, 64, 46
1, 251386, Note_off_c, 0, 52, 63
1, 251393, Note_off_c, 0, 71, 65
1, 251397, Control_c, 0, 64, 46
1, 251438, Note_on_c, 0, 57, 63
1, 251442, Control_c, 0, 64, 45
1, 251473, Note_off_c, 0, 57, 64
1, 251512, Note_on_c, 0, 65, 66
1, 251542, Note_off_c, 0, 65, 66
1, 251603, Note_on_c, 0, 62, 59
1, 251608, Note_on_c, 0, 59, 64
1, 251635, Note_off_c, 0, 62, 65
1, 251639, Note_off_c, 0, 59, 65
1, 251684, Note_on_c, 0, 60, 61
1, 251715, Note_off_c, 0, 60, 66
1, 251766, Note_on_c, 0, 62, 65
1, 251805, Note_off_c, 0, 62, 63
1, 251853, Note_on_c, 0, 52, 50
1, 251861, Note_on_c, 0, 65, 61
1, 251888, Note_off_c, 0, 52, 65
1, 251891, Note_off_c, 0, 65, 65
1, 251939, Note_on_c, 0, 57, 63
1, 251971, Note_off_c, 0, 57, 65
1, 252028, Note_on_c, 0, 65, 65
1, 252061, Note_off_c, 0, 65, 65
1, 252106, Note_on_c, 0, 59, 63
1, 252115, Note_on_c, 0, 62, 66
1, 252136, Note_off_c, 0, 59, 65
1, 252147, Note_off_c, 0, 62, 66
1, 252187, Note_on_c, 0, 60, 64
1, 252215, Note_off_c, 0, 60, 67
1, 252281, Note_on_c, 0, 62, 67
1, 252317, Note_off_c, 0, 62, 65
1, 252329, Note_on_c, 0, 52, 49
1, 252350, Note_on_c, 0, 65, 69
1, 252380, Note_off_c, 0, 65, 68
1, 252385, Note_off_c, 0, 52, 61
1, 252427, Note_on_c, 0, 57, 56
1, 252490, Note_off_c, 0, 57, 61
1, 252523, Note_on_c, 0, 59, 57
1, 252532, Note_on_c, 0, 65, 78
1, 252566, Note_off_c, 0, 59, 64
1, 252612, Note_on_c, 0, 62, 52
1, 252616, Note_off_c, 0, 65, 58
1, 252624, Note_on_c, 0, 64, 75
1, 252658, Note_off_c, 0, 62, 61
1, 252688, Note_on_c, 0, 59, 55
1, 252688, Note_off_c, 0, 64, 61
1, 252713, Note_on_c, 0, 65, 81
1, 252738, Note_off_c, 0, 59, 60
1, 252776, Note_off_c, 0, 65, 61
1, 252791, Note_on_c, 0, 69, 82
1, 252860, Note_on_c, 0, 52, 43
1, 252873, Note_off_c, 0, 69, 64
1, 252878, Note_on_c, 0, 68, 77
1, 252919, Note_off_c, 0, 52, 63
1, 252947, Note_off_c, 0, 68, 62
1, 252951, Note_on_c, 0, 59, 60
1, 252964, Note_on_c, 0, 69, 77
1, 253005, Note_off_c, 0, 59, 58
1, 253030, Note_off_c, 0, 69, 61
1, 253036, Note_on_c, 0, 62, 59
1, 253042, Note_on_c, 0, 72, 75
1, 253042, Control_c, 0, 64, 45
1, 253057, Control_c, 0, 64, 44
1, 253072, Control_c, 0, 64, 44
1, 253080, Note_off_c, 0, 62, 63
1, 253086, Control_c, 0, 64, 43
1, 253101, Control_c, 0, 64, 43
1, 253113, Note_off_c, 0, 72, 62
1, 253124, Note_on_c, 0, 65, 56
1, 253127, Note_on_c, 0, 71, 75
1, 253131, Control_c, 0, 64, 42
1, 253146, Control_c, 0, 64, 41
1, 253162, Control_c, 0, 64, 40
1, 253173, Note_off_c, 0, 65, 60
1, 253177, Control_c, 0, 64, 38
1, 253191, Control_c, 0, 64, 33
1, 253198, Note_off_c, 0, 71, 61
1, 253200, Note_on_c, 0, 64, 54
1, 253206, Control_c, 0, 64, 20
1, 253207, Note_on_c, 0, 72, 72
1, 253221, Control_c, 0, 64, 0
1, 253223, Note_off_c, 0, 64, 60
1, 253233, Note_off_c, 0, 72, 68
1, 253296, Note_on_c, 0, 76, 75
1, 253303, Control_c, 0, 64, 49
1, 253317, Control_c, 0, 64, 63
1, 253319, Note_on_c, 0, 69, 37
1, 253322, Note_off_c, 0, 76, 67
1, 253332, Control_c, 0, 64, 68
1, 253347, Control_c, 0, 64, 75
1, 253353, Note_off_c, 0, 69, 34
1, 253363, Control_c, 0, 64, 86
1, 253367, Note_on_c, 0, 45, 55
1, 253378, Control_c, 0, 64, 97
1, 253391, Poly_aftertouch_c, 0, 72, 0
1, 253392, Control_c, 0, 64, 103
1, 253422, Control_c, 0, 64, 101
1, 253429, Note_off_c, 0, 45, 60
1, 253437, Control_c, 0, 64, 96
1, 253447, Note_on_c, 0, 52, 64
1, 253452, Control_c, 0, 64, 92
1, 253466, Control_c, 0, 64, 87
1, 253476, Note_off_c, 0, 52, 67
1, 253481, Control_c, 0, 64, 83
1, 253493, Note_on_c, 0, 72, 64
1, 253496, Note_on_c, 0, 65, 66
1, 253496, Control_c, 0, 64, 78
1, 253501, Note_on_c, 0, 69, 59
1, 253510, Control_c, 0, 64, 72
1, 253525, Control_c, 0, 64, 65
1, 253540, Control_c, 0, 64, 58
1, 253541, Note_off_c, 0, 69, 64
1, 253543, Note_off_c, 0, 65, 58
1, 253554, Note_off_c, 0, 72, 56
1, 253555, Control_c, 0, 64, 50
1, 253569, Note_on_c, 0, 64, 70
1, 253570, Control_c, 0, 64, 47
1, 253584, Control_c, 0, 64, 47
1, 253599, Control_c, 0, 64, 46
1, 253614, Control_c, 0, 64, 45
1, 253629, Control_c, 0, 64, 44
1, 253644, Control_c, 0, 64, 44
1, 253653, Note_on_c, 0, 54, 58
1, 253659, Control_c, 0, 64, 43
1, 253674, Control_c, 0, 64, 43
1, 253678, Note_off_c, 0, 64, 61
1, 253688, Control_c, 0, 64, 42
1, 253691, Note_off_c, 0, 54, 66
1, 253703, Control_c, 0, 64, 42
1, 253739, Note_on_c, 0, 56, 69
1, 253768, Note_off_c, 0, 56, 66
1, 253778, Control_c, 0, 64, 41
1, 253807, Control_c, 0, 64, 41
1, 253822, Control_c, 0, 64, 40
1, 253823, Note_on_c, 0, 57, 73
1, 253857, Note_off_c, 0, 57, 66
1, 253907, Note_on_c, 0, 45, 46
1, 253921, Note_on_c, 0, 60, 49
1, 253925, Control_c, 0, 64, 40
1, 253944, Note_off_c, 0, 60, 58
1, 253951, Note_off_c, 0, 45, 63
1, 253980, Note_on_c, 0, 52, 65
1, 253986, Control_c, 0, 64, 39
1, 254016, Note_off_c, 0, 52, 67
1, 254094, Note_on_c, 0, 60, 56
1, 254130, Note_off_c, 0, 60, 64
1, 254171, Control_c, 0, 64, 39
1, 254176, Note_on_c, 0, 54, 52
1, 254184, Note_on_c, 0, 57, 54
1, 254208, Note_off_c, 0, 54, 65
1, 254212, Note_off_c, 0, 57, 64
1, 254215, Control_c, 0, 64, 38
1, 254245, Control_c, 0, 64, 38
1, 254264, Note_on_c, 0, 56, 65
1, 254295, Note_off_c, 0, 56, 66
1, 254336, Note_on_c, 0, 57, 68
1, 254389, Note_off_c, 0, 57, 58
1, 254428, Note_on_c, 0, 45, 52
1, 254435, Note_on_c, 0, 60, 58
1, 254463, Note_off_c, 0, 60, 64
1, 254478, Note_off_c, 0, 45, 61
1, 254508, Note_on_c, 0, 52, 64
1, 254534, Note_off_c, 0, 52, 67
1, 254583, Note_on_c, 0, 64, 64
1, 254671, Note_off_c, 0, 64, 58
1, 254674, Note_on_c, 0, 68, 72
1, 254679, Note_on_c, 0, 52, 42
1, 254732, Note_off_c, 0, 52, 63
1, 254747, Note_on_c, 0, 60, 53
1, 254762, Note_on_c, 0, 69, 81
1, 254774, Note_off_c, 0, 68, 61
1, 254787, Note_off_c, 0, 60, 66
1, 254852, Note_on_c, 0, 71, 82
1, 254854, Note_off_c, 0, 69, 62
1, 254933, Note_on_c, 0, 69, 78
1, 254933, Note_off_c, 0, 71, 63
1, 254946, Note_on_c, 0, 57, 54
1, 254990, Note_off_c, 0, 57, 65
1, 255017, Note_off_c, 0, 69, 65
1, 255022, Note_on_c, 0, 71, 80
1, 255029, Note_on_c, 0, 64, 65
1, 255043, Note_off_c, 0, 71, 70
1, 255058, Note_off_c, 0, 64, 67
1, 255108, Note_on_c, 0, 72, 76
1, 255179, Note_off_c, 0, 72, 59
1, 255188, Note_on_c, 0, 76, 76
1, 255199, Note_on_c, 0, 60, 54
1, 255246, Note_off_c, 0, 60, 62
1, 255260, Control_c, 0, 64, 36
1, 255272, Note_on_c, 0, 80, 76
1, 255273, Note_off_c, 0, 76, 63
1, 255275, Control_c, 0, 64, 29
1, 255280, Note_on_c, 0, 68, 53
1, 255290, Control_c, 0, 64, 0
1, 255302, Note_off_c, 0, 68, 58
1, 255342, Note_off_c, 0, 80, 66
1, 255358, Note_on_c, 0, 84, 80
1, 255361, Note_on_c, 0, 77, 75
1, 255364, Control_c, 0, 64, 41
1, 255370, Note_on_c, 0, 81, 63
1, 255379, Control_c, 0, 64, 59
1, 255389, Note_off_c, 0, 77, 67
1, 255393, Control_c, 0, 64, 64
1, 255396, Note_off_c, 0, 84, 65
1, 255398, Note_off_c, 0, 81, 67
1, 255408, Control_c, 0, 64, 69
1, 255423, Control_c, 0, 64, 75
1, 255438, Control_c, 0, 64, 85
1, 255442, Note_on_c, 0, 48, 55
1, 255453, Control_c, 0, 64, 92
1, 255468, Control_c, 0, 64, 95
1, 255486, Note_off_c, 0, 48, 62
1, 255498, Control_c, 0, 64, 93
1, 255519, Control_c, 0, 64, 92
1, 255533, Note_on_c, 0, 56, 54
1, 255534, Control_c, 0, 64, 90
1, 255549, Control_c, 0, 64, 88
1, 255558, Note_off_c, 0, 56, 59
1, 255563, Note_on_c, 0, 80, 70
1, 255565, Control_c, 0, 64, 83
1, 255570, Note_on_c, 0, 76, 65
1, 255580, Control_c, 0, 64, 76
1, 255581, Note_on_c, 0, 72, 58
1, 255594, Control_c, 0, 64, 68
1, 255609, Control_c, 0, 64, 62
1, 255624, Control_c, 0, 64, 54
1, 255633, Note_off_c, 0, 76, 61
1, 255639, Control_c, 0, 64, 50
1, 255643, Note_off_c, 0, 72, 64
1, 255648, Note_off_c, 0, 80, 60
1, 255653, Note_on_c, 0, 71, 72
1, 255654, Control_c, 0, 64, 49
1, 255668, Control_c, 0, 64, 47
1, 255683, Control_c, 0, 64, 46
1, 255698, Control_c, 0, 64, 45
1, 255713, Control_c, 0, 64, 45
1, 255728, Control_c, 0, 64, 44
1, 255742, Control_c, 0, 64, 43
1, 255744, Note_on_c, 0, 60, 59
1, 255757, Control_c, 0, 64, 42
1, 255763, Note_off_c, 0, 71, 58
1, 255772, Control_c, 0, 64, 42
1, 255780, Note_off_c, 0, 60, 66
1, 255787, Control_c, 0, 64, 41
1, 255802, Control_c, 0, 64, 41
1, 255838, Note_on_c, 0, 62, 60
1, 255847, Control_c, 0, 64, 40
1, 255871, Note_off_c, 0, 62, 64
1, 255876, Control_c, 0, 64, 40
1, 255891, Control_c, 0, 64, 39
1, 255898, Note_on_c, 0, 64, 73
1, 255906, Control_c, 0, 64, 39
1, 255947, Note_off_c, 0, 64, 56
1, 255987, Note_on_c, 0, 68, 63
1, 256000, Note_on_c, 0, 48, 48
1, 256018, Note_off_c, 0, 68, 66
1, 256039, Control_c, 0, 64, 38
1, 256043, Note_off_c, 0, 48, 64
1, 256073, Note_on_c, 0, 56, 59
1, 256105, Note_off_c, 0, 56, 66
1, 256163, Note_on_c, 0, 68, 63
1, 256195, Note_off_c, 0, 68, 65
1, 256247, Note_on_c, 0, 60, 63
1, 256261, Note_on_c, 0, 64, 64
1, 256283, Control_c, 0, 64, 38
1, 256285, Note_off_c, 0, 60, 66
1, 256290, Note_off_c, 0, 64, 66
1, 256346, Note_on_c, 0, 62, 62
1, 256378, Note_off_c, 0, 62, 65
1, 256418, Note_on_c, 0, 64, 65
1, 256467, Note_off_c, 0, 64, 57
1, 256505, Control_c, 0, 64, 37
1, 256511, Note_on_c, 0, 68, 68
1, 256520, Note_on_c, 0, 48, 57
1, 256535, Control_c, 0, 64, 37
1, 256539, Note_off_c, 0, 68, 66
1, 256568, Note_off_c, 0, 48, 63
1, 256600, Note_on_c, 0, 56, 54
1, 256624, Note_off_c, 0, 56, 61
1, 256672, Note_on_c, 0, 69, 70
1, 256753, Note_off_c, 0, 69, 60
1, 256761, Note_on_c, 0, 71, 75
1, 256777, Note_on_c, 0, 57, 60
1, 256818, Note_off_c, 0, 57, 64
1, 256845, Note_on_c, 0, 72, 74
1, 256847, Note_off_c, 0, 71, 62
1, 256851, Note_on_c, 0, 64, 59
1, 256881, Note_off_c, 0, 64, 65
1, 256921, Note_off_c, 0, 72, 64
1, 256926, Note_on_c, 0, 76, 78
1, 257006, Note_off_c, 0, 76, 60
1, 257025, Note_on_c, 0, 60, 51
1, 257026, Note_on_c, 0, 75, 73
1, 257060, Note_off_c, 0, 60, 65
1, 257077, Note_off_c, 0, 75, 63
1, 257107, Note_on_c, 0, 76, 70
1, 257135, Note_on_c, 0, 69, 53
1, 257178, Note_off_c, 0, 69, 63
1, 257192, Note_off_c, 0, 76, 63
1, 257193, Note_on_c, 0, 81, 74
1, 257262, Note_on_c, 0, 64, 49
1, 257274, Note_off_c, 0, 81, 63
1, 257277, Note_on_c, 0, 84, 72
1, 257295, Note_off_c, 0, 64, 65
1, 257351, Note_off_c, 0, 84, 65
1, 257353, Note_on_c, 0, 89, 75
1, 257358, Control_c, 0, 64, 34
1, 257373, Control_c, 0, 64, 30
1, 257377, Note_off_c, 0, 89, 68
1, 257388, Control_c, 0, 64, 27
1, 257415, Note_on_c, 0, 72, 3
1, 257418, Control_c, 0, 64, 39
1, 257432, Control_c, 0, 64, 53
1, 257434, Note_off_c, 0, 72, 41
1, 257438, Note_on_c, 0, 85, 81
1, 257447, Control_c, 0, 64, 61
1, 257462, Note_on_c, 0, 88, 45
1, 257462, Control_c, 0, 64, 66
1, 257468, Note_off_c, 0, 85, 62
1, 257477, Control_c, 0, 64, 71
1, 257483, Note_off_c, 0, 88, 61
1, 257492, Control_c, 0, 64, 80
1, 257507, Control_c, 0, 64, 92
1, 257522, Control_c, 0, 64, 101
1, 257534, Poly_aftertouch_c, 0, 81, 0
1, 257536, Note_on_c, 0, 55, 53
1, 257537, Control_c, 0, 64, 107
1, 257551, Control_c, 0, 64, 109
1, 257566, Control_c, 0, 64, 107
1, 257581, Control_c, 0, 64, 106
1, 257584, Note_off_c, 0, 55, 63
1, 257596, Control_c, 0, 64, 105
1, 257617, Note_on_c, 0, 62, 54
1, 257625, Control_c, 0, 64, 104
1, 257640, Control_c, 0, 64, 102
1, 257647, Note_on_c, 0, 88, 80
1, 257653, Note_on_c, 0, 84, 55
1, 257655, Control_c, 0, 64, 98
1, 257670, Control_c, 0, 64, 93
1, 257685, Control_c, 0, 64, 90
1, 257686, Note_off_c, 0, 62, 56
1, 257699, Control_c, 0, 64, 87
1, 257707, Note_on_c, 0, 81, 75
1, 257707, Note_off_c, 0, 88, 62
1, 257715, Note_on_c, 0, 65, 60
1, 257721, Note_on_c, 0, 77, 67
1, 257722, Note_off_c, 0, 84, 62
1, 257733, Note_off_c, 0, 81, 69
1, 257750, Note_off_c, 0, 77, 68
1, 257766, Note_off_c, 0, 65, 60
1, 257766, Control_c, 0, 64, 87
1, 257796, Control_c, 0, 64, 86
1, 257811, Control_c, 0, 64, 85
1, 257812, Note_on_c, 0, 69, 62
1, 257826, Control_c, 0, 64, 85
1, 257870, Note_off_c, 0, 69, 48
1, 257870, Control_c, 0, 64, 84
1, 257885, Control_c, 0, 64, 82
1, 257891, Note_on_c, 0, 72, 67
1, 257900, Control_c, 0, 64, 79
1, 257914, Control_c, 0, 64, 74
1, 257918, Note_off_c, 0, 72, 67
1, 257929, Control_c, 0, 64, 67
1, 257944, Control_c, 0, 64, 58
1, 257960, Control_c, 0, 64, 42
1, 257975, Control_c, 0, 64, 36
1, 257989, Control_c, 0, 64, 41
1, 257991, Note_on_c, 0, 86, 76
1, 257994, Note_on_c, 0, 79, 63
1, 257996, Note_on_c, 0, 76, 69
1, 257996, Note_on_c, 0, 83, 58
1, 258004, Control_c, 0, 64, 52
1, 258015, Note_off_c, 0, 86, 69
1, 258019, Control_c, 0, 64, 60
1, 258023, Note_off_c, 0, 79, 68
1, 258023, Note_off_c, 0, 83, 65
1, 258026, Note_off_c, 0, 76, 68
1, 258034, Control_c, 0, 64, 64
1, 258049, Control_c, 0, 64, 66
1, 258058, Note_on_c, 0, 55, 53
1, 258063, Control_c, 0, 64, 69
1, 258078, Control_c, 0, 64, 73
1, 258093, Control_c, 0, 64, 76
1, 258108, Control_c, 0, 64, 78
1, 258118, Note_off_c, 0, 55, 59
1, 258123, Control_c, 0, 64, 79
1, 258133, Note_on_c, 0, 60, 57
1, 258197, Note_on_c, 0, 79, 65
1, 258199, Note_on_c, 0, 83, 76
1, 258202, Note_off_c, 0, 60, 56
1, 258226, Control_c, 0, 64, 79
1, 258246, Note_on_c, 0, 64, 49
1, 258246, Note_off_c, 0, 79, 58
1, 258262, Note_off_c, 0, 83, 61
1, 258265, Note_on_c, 0, 76, 71
1, 258270, Control_c, 0, 64, 78
1, 258288, Note_on_c, 0, 72, 55
1, 258294, Note_off_c, 0, 76, 67
1, 258297, Note_off_c, 0, 64, 61
1, 258315, Note_off_c, 0, 72, 64
1, 258330, Control_c, 0, 64, 78
1, 258344, Note_on_c, 0, 67, 56
1, 258374, Control_c, 0, 64, 77
1, 258389, Note_off_c, 0, 67, 56
1, 258389, Control_c, 0, 64, 77
1, 258404, Control_c, 0, 64, 76
1, 258419, Control_c, 0, 64, 74
1, 258430, Note_on_c, 0, 71, 58
1, 258434, Control_c, 0, 64, 70
1, 258448, Note_off_c, 0, 71, 62
1, 258448, Control_c, 0, 64, 63
1, 258463, Control_c, 0, 64, 51
1, 258478, Control_c, 0, 64, 40
1, 258493, Control_c, 0, 64, 40
1, 258515, Control_c, 0, 64, 47
1, 258522, Note_on_c, 0, 81, 70
1, 258530, Control_c, 0, 64, 56
1, 258532, Note_on_c, 0, 77, 55
1, 258540, Note_on_c, 0, 73, 53
1, 258544, Control_c, 0, 64, 63
1, 258547, Note_off_c, 0, 81, 69
1, 258553, Note_off_c, 0, 77, 63
1, 258559, Control_c, 0, 64, 66
1, 258574, Note_off_c, 0, 73, 66
1, 258574, Control_c, 0, 64, 70
1, 258589, Control_c, 0, 64, 74
1, 258595, Note_on_c, 0, 55, 53
1, 258604, Control_c, 0, 64, 77
1, 258619, Control_c, 0, 64, 79
1, 258671, Note_off_c, 0, 55, 60
1, 258693, Note_on_c, 0, 57, 55
1, 258711, Note_on_c, 0, 73, 57
1, 258717, Note_on_c, 0, 76, 60
1, 258737, Control_c, 0, 64, 78
1, 258753, Note_off_c, 0, 57, 59
1, 258756, Note_off_c, 0, 76, 61
1, 258768, Control_c, 0, 64, 78
1, 258780, Note_on_c, 0, 69, 63
1, 258786, Note_off_c, 0, 73, 61
1, 258791, Note_on_c, 0, 61, 49
1, 258798, Note_on_c, 0, 65, 51
1, 258798, Control_c, 0, 64, 77
1, 258809, Note_off_c, 0, 69, 65
1, 258820, Note_off_c, 0, 65, 59
1, 258827, Note_off_c, 0, 61, 64
1, 258842, Control_c, 0, 64, 77
1, 258867, Note_on_c, 0, 64, 62
1, 258872, Control_c, 0, 64, 76
1, 258886, Control_c, 0, 64, 76
1, 258901, Control_c, 0, 64, 75
1, 258905, Note_off_c, 0, 64, 60
1, 258916, Control_c, 0, 64, 74
1, 258931, Control_c, 0, 64, 73
1, 258946, Control_c, 0, 64, 72
1, 258959, Note_on_c, 0, 67, 58
1, 258960, Control_c, 0, 64, 69
1, 258975, Control_c, 0, 64, 65
1, 258988, Note_off_c, 0, 67, 64
1, 258990, Control_c, 0, 64, 59
1, 259004, Control_c, 0, 64, 44
1, 259019, Control_c, 0, 64, 36
1, 259034, Control_c, 0, 64, 37
1, 259045, Note_on_c, 0, 72, 58
1, 259047, Note_on_c, 0, 79, 66
1, 259048, Note_on_c, 0, 76, 53
1, 259049, Control_c, 0, 64, 44
1, 259054, Note_on_c, 0, 69, 56
1, 259064, Control_c, 0, 64, 54
1, 259073, Note_off_c, 0, 76, 64
1, 259074, Note_off_c, 0, 72, 66
1, 259075, Note_off_c, 0, 79, 68
1, 259078, Control_c, 0, 64, 60
1, 259093, Control_c, 0, 64, 64
1, 259094, Note_off_c, 0, 69, 63
1, 259108, Control_c, 0, 64, 66
1, 259112, Note_on_c, 0, 55, 42
1, 259123, Control_c, 0, 64, 68
1, 259137, Control_c, 0, 64, 70
1, 259152, Control_c, 0, 64, 71
1, 259165, Note_off_c, 0, 55, 61
1, 259167, Control_c, 0, 64, 72
1, 259201, Note_on_c, 0, 59, 49
1, 259212, Control_c, 0, 64, 71
1, 259227, Control_c, 0, 64, 69
1, 259242, Control_c, 0, 64, 65
1, 259243, Note_on_c, 0, 72, 50
1, 259246, Note_off_c, 0, 59, 63
1, 259257, Note_on_c, 0, 76, 56
1, 259264, Control_c, 0, 64, 58
1, 259278, Control_c, 0, 64, 52
1, 259293, Control_c, 0, 64, 56
1, 259304, Note_off_c, 0, 76, 62
1, 259306, Note_on_c, 0, 63, 54
1, 259308, Control_c, 0, 64, 60
1, 259312, Note_off_c, 0, 72, 57
1, 259320, Note_on_c, 0, 69, 68
1, 259323, Control_c, 0, 64, 63
1, 259328, Note_on_c, 0, 65, 58
1, 259337, Control_c, 0, 64, 66
1, 259345, Note_off_c, 0, 63, 63
1, 259346, Note_off_c, 0, 69, 68
1, 259351, Control_c, 0, 64, 70
1, 259359, Note_off_c, 0, 65, 65
1, 259366, Control_c, 0, 64, 72
1, 259381, Control_c, 0, 64, 74
1, 259396, Note_on_c, 0, 62, 49
1, 259396, Control_c, 0, 64, 74
1, 259441, Note_off_c, 0, 62, 62
1, 259484, Control_c, 0, 64, 74
1, 259489, Note_on_c, 0, 63, 59
1, 259499, Control_c, 0, 64, 73
1, 259510, Note_off_c, 0, 63, 64
1, 259514, Control_c, 0, 64, 73
1, 259528, Control_c, 0, 64, 72
1, 259543, Control_c, 0, 64, 70
1, 259560, Control_c, 0, 64, 68
1, 259575, Control_c, 0, 64, 65
1, 259579, Note_on_c, 0, 64, 70
1, 259589, Control_c, 0, 64, 61
1, 259604, Control_c, 0, 64, 57
1, 259613, Note_off_c, 0, 64, 61
1, 259619, Control_c, 0, 64, 54
1, 259633, Control_c, 0, 64, 52
1, 259648, Control_c, 0, 64, 51
1, 259662, Note_on_c, 0, 67, 68
1, 259662, Note_on_c, 0, 52, 52
1, 259663, Control_c, 0, 64, 49
1, 259678, Control_c, 0, 64, 48
1, 259689, Note_off_c, 0, 67, 66
1, 259693, Control_c, 0, 64, 47
1, 259707, Control_c, 0, 64, 46
1, 259710, Note_off_c, 0, 52, 61
1, 259722, Control_c, 0, 64, 45
1, 259752, Note_on_c, 0, 59, 56
1, 259784, Note_off_c, 0, 59, 65
1, 259796, Control_c, 0, 64, 45
1, 259811, Control_c, 0, 64, 44
1, 259850, Note_on_c, 0, 67, 57
1, 259886, Note_off_c, 0, 67, 64
1, 259930, Note_on_c, 0, 64, 63
1, 259930, Note_on_c, 0, 61, 58
1, 259944, Control_c, 0, 64, 44
1, 259960, Note_off_c, 0, 64, 65
1, 259963, Note_off_c, 0, 61, 63
1, 260028, Note_on_c, 0, 63, 59
1, 260059, Note_off_c, 0, 63, 67
1, 260115, Control_c, 0, 64, 43
1, 260115, Note_on_c, 0, 64, 72
1, 260158, Note_off_c, 0, 64, 57
1, 260174, Control_c, 0, 64, 43
1, 260193, Note_on_c, 0, 52, 52
1, 260199, Note_on_c, 0, 67, 66
1, 260219, Control_c, 0, 64, 42
1, 260226, Note_off_c, 0, 67, 67
1, 260243, Note_off_c, 0, 52, 61
1, 260282, Note_on_c, 0, 59, 59
1, 260315, Note_off_c, 0, 59, 65
1, 260322, Control_c, 0, 64, 42
1, 260374, Note_on_c, 0, 67, 73
1, 260408, Note_off_c, 0, 67, 61
1, 260462, Note_on_c, 0, 64, 69
1, 260464, Note_on_c, 0, 61, 62
1, 260491, Note_off_c, 0, 64, 66
1, 260494, Note_off_c, 0, 61, 65
1, 260543, Note_on_c, 0, 63, 69
1, 260571, Note_off_c, 0, 63, 66
1, 260574, Control_c, 0, 64, 41
1, 260616, Note_on_c, 0, 64, 79
1, 260658, Note_off_c, 0, 64, 56
1, 260704, Note_on_c, 0, 52, 59
1, 260708, Note_on_c, 0, 67, 64
1, 260737, Note_off_c, 0, 67, 67
1, 260762, Note_off_c, 0, 52, 59
1, 260806, Note_on_c, 0, 59, 61
1, 260837, Note_off_c, 0, 59, 66
1, 260890, Note_on_c, 0, 67, 66
1, 260967, Note_off_c, 0, 67, 62
1, 260981, Note_on_c, 0, 66, 65
1, 260992, Note_on_c, 0, 59, 42
1, 261040, Note_off_c, 0, 66, 62
1, 261043, Note_off_c, 0, 59, 59
1, 261063, Note_on_c, 0, 67, 65
1, 261078, Note_on_c, 0, 64, 57
1, 261109, Note_off_c, 0, 64, 66
1, 261150, Note_off_c, 0, 67, 61
1, 261153, Note_on_c, 0, 71, 73
1, 261232, Note_off_c, 0, 71, 64
1, 261240, Note_on_c, 0, 70, 74
1, 261251, Note_on_c, 0, 64, 50
1, 261292, Note_off_c, 0, 64, 64
1, 261302, Note_off_c, 0, 70, 64
1, 261326, Note_on_c, 0, 71, 74
1, 261364, Note_on_c, 0, 67, 63
1, 261393, Note_off_c, 0, 67, 67
1, 261403, Note_off_c, 0, 71, 58
1, 261409, Note_on_c, 0, 75, 80
1, 261501, Note_on_c, 0, 76, 83
1, 261506, Note_off_c, 0, 75, 63
1, 261529, Note_on_c, 0, 67, 52
1, 261570, Note_off_c, 0, 67, 64
1, 261576, Note_off_c, 0, 76, 63
1, 261579, Note_on_c, 0, 81, 83
1, 261584, Control_c, 0, 64, 40
1, 261599, Control_c, 0, 64, 33
1, 261604, Note_on_c, 0, 71, 53
1, 261613, Control_c, 0, 64, 0
1, 261626, Note_off_c, 0, 71, 59
1, 261661, Note_off_c, 0, 81, 62
1, 261672, Note_on_c, 0, 79, 78
1, 261683, Note_on_c, 0, 76, 72
1, 261689, Note_on_c, 0, 72, 65
1, 261702, Control_c, 0, 64, 45
1, 261708, Note_off_c, 0, 76, 68
1, 261717, Note_off_c, 0, 72, 67
1, 261717, Control_c, 0, 64, 59
1, 261719, Note_off_c, 0, 79, 63
1, 261732, Control_c, 0, 64, 63
1, 261747, Control_c, 0, 64, 65
1, 261756, Note_on_c, 0, 52, 50
1, 261761, Control_c, 0, 64, 67
1, 261776, Control_c, 0, 64, 69
1, 261791, Control_c, 0, 64, 72
1, 261805, Control_c, 0, 64, 73
1, 261815, Note_off_c, 0, 52, 61
1, 261820, Control_c, 0, 64, 74
1, 261835, Note_on_c, 0, 55, 47
1, 261862, Note_off_c, 0, 55, 59
1, 261873, Note_on_c, 0, 76, 59
1, 261880, Control_c, 0, 64, 73
1, 261883, Note_on_c, 0, 69, 66
1, 261895, Control_c, 0, 64, 71
1, 261896, Note_on_c, 0, 72, 61
1, 261910, Control_c, 0, 64, 68
1, 261925, Control_c, 0, 64, 64
1, 261932, Note_off_c, 0, 72, 64
1, 261940, Control_c, 0, 64, 60
1, 261944, Note_off_c, 0, 76, 57
1, 261948, Note_off_c, 0, 69, 63
1, 261955, Control_c, 0, 64, 56
1, 261960, Note_on_c, 0, 67, 64
1, 261969, Control_c, 0, 64, 53
1, 261984, Control_c, 0, 64, 50
1, 261999, Control_c, 0, 64, 48
1, 262014, Control_c, 0, 64, 46
1, 262029, Control_c, 0, 64, 45
1, 262044, Control_c, 0, 64, 44
1, 262059, Note_on_c, 0, 57, 40
1, 262059, Control_c, 0, 64, 43
1, 262074, Control_c, 0, 64, 43
1, 262075, Note_off_c, 0, 67, 60
1, 262089, Control_c, 0, 64, 42
1, 262096, Note_off_c, 0, 57, 66
1, 262118, Control_c, 0, 64, 42
1, 262139, Note_on_c, 0, 59, 59
1, 262148, Control_c, 0, 64, 41
1, 262172, Note_off_c, 0, 59, 64
1, 262192, Control_c, 0, 64, 41
1, 262214, Note_on_c, 0, 60, 65
1, 262221, Control_c, 0, 64, 40
1, 262251, Note_off_c, 0, 60, 64
1, 262297, Note_on_c, 0, 52, 36
1, 262304, Note_on_c, 0, 64, 61
1, 262330, Note_off_c, 0, 52, 56
1, 262336, Note_off_c, 0, 64, 65
1, 262348, Control_c, 0, 64, 40
1, 262377, Control_c, 0, 64, 39
1, 262384, Note_on_c, 0, 55, 50
1, 262413, Note_off_c, 0, 55, 62
1, 262475, Note_on_c, 0, 64, 65
1, 262506, Note_off_c, 0, 64, 65
1, 262561, Note_on_c, 0, 60, 66
1, 262566, Note_on_c, 0, 57, 57
1, 262570, Control_c, 0, 64, 39
1, 262589, Note_off_c, 0, 60, 67
1, 262597, Note_off_c, 0, 57, 66
1, 262614, Control_c, 0, 64, 38
1, 262649, Note_on_c, 0, 59, 64
1, 262677, Note_off_c, 0, 59, 66
1, 262717, Note_on_c, 0, 60, 71
1, 262767, Note_off_c, 0, 60, 61
1, 262802, Note_on_c, 0, 52, 60
1, 262816, Note_on_c, 0, 64, 58
1, 262837, Note_off_c, 0, 52, 65
1, 262841, Note_off_c, 0, 64, 63
1, 262896, Note_on_c, 0, 55, 57
1, 262896, Control_c, 0, 64, 38
1, 262929, Note_off_c, 0, 55, 65
1, 262984, Note_on_c, 0, 64, 54
1, 263078, Note_off_c, 0, 64, 60
1, 263085, Note_on_c, 0, 66, 64
1, 263087, Note_on_c, 0, 55, 42
1, 263129, Note_off_c, 0, 55, 64
1, 263158, Note_on_c, 0, 67, 76
1, 263161, Note_off_c, 0, 66, 62
1, 263174, Note_on_c, 0, 60, 66
1, 263192, Note_off_c, 0, 67, 66
1, 263199, Control_c, 0, 64, 38
1, 263202, Note_off_c, 0, 60, 67
1, 263245, Note_on_c, 0, 69, 82
1, 263323, Note_off_c, 0, 69, 61
1, 263331, Note_on_c, 0, 60, 61
1, 263331, Note_on_c, 0, 72, 78
1, 263385, Note_off_c, 0, 60, 62
1, 263414, Note_on_c, 0, 76, 84
1, 263417, Note_on_c, 0, 67, 72
1, 263419, Note_off_c, 0, 72, 65
1, 263443, Note_off_c, 0, 67, 67
1, 263445, Note_off_c, 0, 76, 68
1, 263500, Note_on_c, 0, 79, 83
1, 263562, Note_on_c, 0, 64, 65
1, 263570, Note_on_c, 0, 83, 93
1, 263577, Note_off_c, 0, 79, 64
1, 263602, Note_off_c, 0, 64, 65
1, 263615, Control_c, 0, 64, 38
1, 263630, Control_c, 0, 64, 21
1, 263645, Control_c, 0, 64, 0
1, 263648, Note_off_c, 0, 83, 64
1, 263651, Note_on_c, 0, 86, 87
1, 263671, Note_on_c, 0, 71, 71
1, 263699, Note_off_c, 0, 71, 65
1, 263729, Note_on_c, 0, 84, 88
1, 263731, Note_on_c, 0, 77, 82
1, 263734, Note_on_c, 0, 81, 81
1, 263747, Note_off_c, 0, 86, 63
1, 263755, Control_c, 0, 64, 49
1, 263761, Note_off_c, 0, 77, 69
1, 263761, Note_off_c, 0, 81, 73
1, 263770, Control_c, 0, 64, 63
1, 263772, Note_off_c, 0, 84, 65
1, 263785, Control_c, 0, 64, 68
1, 263800, Control_c, 0, 64, 76
1, 263815, Control_c, 0, 64, 85
1, 263829, Control_c, 0, 64, 91
1, 263830, Note_on_c, 0, 55, 70
1, 263844, Control_c, 0, 64, 93
1, 263859, Control_c, 0, 64, 92
1, 263874, Control_c, 0, 64, 89
1, 263879, Note_off_c, 0, 55, 60
1, 263889, Control_c, 0, 64, 86
1, 263904, Control_c, 0, 64, 83
1, 263916, Note_on_c, 0, 64, 60
1, 263919, Control_c, 0, 64, 80
1, 263934, Control_c, 0, 64, 74
1, 263940, Note_off_c, 0, 64, 63
1, 263942, Note_on_c, 0, 79, 68
1, 263948, Control_c, 0, 64, 66
1, 263955, Note_on_c, 0, 76, 70
1, 263963, Control_c, 0, 64, 58
1, 263974, Note_on_c, 0, 71, 14
1, 263978, Control_c, 0, 64, 49
1, 263985, Note_off_c, 0, 79, 62
1, 263992, Control_c, 0, 64, 46
1, 264004, Note_off_c, 0, 71, 32
1, 264007, Control_c, 0, 64, 45
1, 264017, Note_off_c, 0, 76, 64
1, 264022, Control_c, 0, 64, 42
1, 264024, Note_on_c, 0, 72, 67
1, 264037, Control_c, 0, 64, 40
1, 264081, Control_c, 0, 64, 40
1, 264086, Note_on_c, 0, 64, 47
1, 264134, Note_off_c, 0, 64, 63
1, 264153, Note_off_c, 0, 72, 64
1, 264155, Control_c, 0, 64, 39
1, 264187, Note_on_c, 0, 66, 63
1, 264218, Note_off_c, 0, 66, 65
1, 264259, Control_c, 0, 64, 39
1, 264274, Control_c, 0, 64, 38
1, 264274, Note_on_c, 0, 67, 81
1, 264312, Note_off_c, 0, 67, 63
1, 264370, Note_on_c, 0, 55, 54
1, 264375, Note_on_c, 0, 72, 58
1, 264395, Note_off_c, 0, 72, 63
1, 264407, Note_off_c, 0, 55, 64
1, 264453, Note_on_c, 0, 64, 62
1, 264484, Note_off_c, 0, 64, 66
1, 264559, Note_on_c, 0, 72, 76
1, 264587, Note_off_c, 0, 72, 64
1, 264631, Note_on_c, 0, 64, 24
1, 264646, Note_on_c, 0, 67, 74
1, 264671, Note_off_c, 0, 64, 63
1, 264680, Note_off_c, 0, 67, 65
1, 264720, Note_on_c, 0, 66, 64
1, 264755, Note_off_c, 0, 66, 64
1, 264820, Note_on_c, 0, 67, 73
1, 264876, Note_off_c, 0, 67, 59
1, 264877, Note_on_c, 0, 55, 45
1, 264888, Note_on_c, 0, 72, 69
1, 264911, Note_off_c, 0, 72, 68
1, 264917, Note_off_c, 0, 55, 55
1, 264979, Note_on_c, 0, 64, 64
1, 265030, Note_off_c, 0, 64, 54
1, 265038, Control_c, 0, 64, 39
1, 265053, Control_c, 0, 64, 40
1, 265068, Control_c, 0, 64, 42
1, 265079, Note_on_c, 0, 72, 70
1, 265083, Control_c, 0, 64, 44
1, 265097, Control_c, 0, 64, 48
1, 265103, Note_on_c, 0, 67, 61
1, 265112, Control_c, 0, 64, 52
1, 265127, Control_c, 0, 64, 55
1, 265133, Note_off_c, 0, 67, 65
1, 265143, Control_c, 0, 64, 57
1, 265148, Note_off_c, 0, 72, 62
1, 265158, Note_on_c, 0, 79, 74
1, 265158, Control_c, 0, 64, 57
1, 265232, Control_c, 0, 64, 56
1, 265249, Note_off_c, 0, 79, 66
1, 265254, Control_c, 0, 64, 55
1, 265260, Note_on_c, 0, 78, 72
1, 265269, Control_c, 0, 64, 54
1, 265284, Control_c, 0, 64, 54
1, 265299, Control_c, 0, 64, 53
1, 265314, Control_c, 0, 64, 53
1, 265323, Note_off_c, 0, 78, 64
1, 265328, Control_c, 0, 64, 52
1, 265350, Note_on_c, 0, 79, 78
1, 265358, Control_c, 0, 64, 52
1, 265383, Note_on_c, 0, 67, 18
1, 265388, Control_c, 0, 64, 51
1, 265402, Control_c, 0, 64, 51
1, 265410, Note_off_c, 0, 67, 45
1, 265423, Note_off_c, 0, 79, 62
1, 265432, Note_on_c, 0, 83, 79
1, 265502, Note_on_c, 0, 71, 48
1, 265506, Control_c, 0, 64, 52
1, 265511, Note_on_c, 0, 86, 82
1, 265516, Note_off_c, 0, 83, 64
1, 265520, Control_c, 0, 64, 53
1, 265535, Control_c, 0, 64, 54
1, 265541, Note_off_c, 0, 71, 65
1, 265550, Control_c, 0, 64, 55
1, 265559, Note_off_c, 0, 86, 64
1, 265565, Control_c, 0, 64, 57
1, 265580, Control_c, 0, 64, 58
1, 265594, Control_c, 0, 64, 59
1, 265598, Note_on_c, 0, 88, 86
1, 265609, Control_c, 0, 64, 61
1, 265624, Control_c, 0, 64, 61
1, 265672, Note_off_c, 0, 88, 64
1, 265677, Note_on_c, 0, 93, 87
1, 265698, Control_c, 0, 64, 61
1, 265713, Control_c, 0, 64, 60
1, 265728, Control_c, 0, 64, 60
1, 265743, Control_c, 0, 64, 59
1, 265744, Note_off_c, 0, 93, 66
1, 265752, Note_on_c, 0, 96, 94
1, 265758, Control_c, 0, 64, 56
1, 265772, Control_c, 0, 64, 48
1, 265787, Control_c, 0, 64, 0
1, 265803, Note_off_c, 0, 96, 64
1, 265845, Note_on_c, 0, 94, 90
1, 265852, Note_on_c, 0, 84, 80
1, 265852, Note_on_c, 0, 87, 87
1, 265856, Note_on_c, 0, 91, 80
1, 265876, Control_c, 0, 64, 17
1, 265877, Note_on_c, 0, 58, 55
1, 265880, Note_off_c, 0, 91, 69
1, 265882, Note_off_c, 0, 87, 66
1, 265886, Note_off_c, 0, 84, 62
1, 265891, Control_c, 0, 64, 56
1, 265898, Note_off_c, 0, 94, 65
1, 265906, Control_c, 0, 64, 64
1, 265920, Control_c, 0, 64, 67
1, 265923, Note_off_c, 0, 58, 57
1, 265936, Control_c, 0, 64, 71
1, 265951, Control_c, 0, 64, 74
1, 265966, Control_c, 0, 64, 77
1, 265981, Note_on_c, 0, 65, 66
1, 265981, Control_c, 0, 64, 79
1, 266075, Note_off_c, 0, 65, 56
1, 266077, Note_on_c, 0, 91, 83
1, 266077, Control_c, 0, 64, 79
1, 266079, Note_on_c, 0, 87, 64
1, 266098, Note_on_c, 0, 68, 64
1, 266131, Note_off_c, 0, 91, 65
1, 266137, Note_on_c, 0, 84, 71
1, 266140, Note_off_c, 0, 87, 64
1, 266141, Note_off_c, 0, 68, 58
1, 266143, Note_on_c, 0, 80, 70
1, 266159, Note_off_c, 0, 84, 70
1, 266166, Control_c, 0, 64, 79
1, 266170, Note_off_c, 0, 80, 69
1, 266202, Note_on_c, 0, 72, 46
1, 266255, Control_c, 0, 64, 79
1, 266265, Note_off_c, 0, 72, 53
1, 266289, Note_on_c, 0, 75, 60
1, 266307, Note_off_c, 0, 75, 60
1, 266329, Control_c, 0, 64, 78
1, 266343, Control_c, 0, 64, 74
1, 266358, Control_c, 0, 64, 64
1, 266373, Control_c, 0, 64, 42
1, 266388, Control_c, 0, 64, 0
1, 266398, Note_on_c, 0, 89, 86
1, 266399, Note_on_c, 0, 82, 65
1, 266400, Note_on_c, 0, 79, 75
1, 266401, Note_on_c, 0, 86, 71
1, 266427, Note_off_c, 0, 82, 67
1, 266427, Note_off_c, 0, 86, 67
1, 266429, Note_off_c, 0, 89, 62
1, 266431, Note_off_c, 0, 79, 64
1, 266432, Control_c, 0, 64, 45
1, 266447, Control_c, 0, 64, 61
1, 266462, Control_c, 0, 64, 65
1, 266476, Control_c, 0, 64, 68
1, 266491, Control_c, 0, 64, 71
1, 266494, Note_on_c, 0, 58, 58
1, 266506, Control_c, 0, 64, 73
1, 266521, Control_c, 0, 64, 75
1, 266547, Note_off_c, 0, 58, 57
1, 266579, Note_on_c, 0, 63, 54
1, 266598, Note_on_c, 0, 82, 57
1, 266598, Note_on_c, 0, 86, 72
1, 266621, Note_off_c, 0, 63, 62
1, 266625, Control_c, 0, 64, 75
1, 266652, Note_off_c, 0, 86, 62
1, 266661, Note_on_c, 0, 67, 60
1, 266669, Note_on_c, 0, 79, 62
1, 266673, Note_on_c, 0, 75, 69
1, 266673, Note_off_c, 0, 82, 64
1, 266684, Control_c, 0, 64, 75
1, 266689, Note_off_c, 0, 79, 65
1, 266699, Note_off_c, 0, 67, 62
1, 266701, Note_off_c, 0, 75, 66
1, 266766, Control_c, 0, 64, 74
1, 266780, Note_on_c, 0, 70, 62
1, 266796, Control_c, 0, 64, 74
1, 266811, Control_c, 0, 64, 73
1, 266825, Control_c, 0, 64, 72
1, 266828, Note_off_c, 0, 70, 62
1, 266840, Control_c, 0, 64, 72
1, 266869, Note_on_c, 0, 74, 63
1, 266870, Control_c, 0, 64, 71
1, 266885, Control_c, 0, 64, 69
1, 266898, Note_off_c, 0, 74, 67
1, 266899, Control_c, 0, 64, 64
1, 266914, Control_c, 0, 64, 48
1, 266929, Control_c, 0, 64, 19
1, 266944, Control_c, 0, 64, 15
1, 266951, Note_on_c, 0, 80, 65
1, 266952, Note_on_c, 0, 84, 73
1, 266954, Note_on_c, 0, 76, 71
1, 266959, Control_c, 0, 64, 27
1, 266973, Control_c, 0, 64, 46
1, 266974, Note_off_c, 0, 84, 70
1, 266979, Note_off_c, 0, 80, 67
1, 266983, Note_off_c, 0, 76, 68
1, 266988, Control_c, 0, 64, 58
1, 267003, Control_c, 0, 64, 62
1, 267017, Control_c, 0, 64, 65
1, 267031, Note_on_c, 0, 58, 57
1, 267032, Control_c, 0, 64, 67
1, 267047, Control_c, 0, 64, 69
1, 267062, Control_c, 0, 64, 71
1, 267077, Control_c, 0, 64, 72
1, 267110, Note_off_c, 0, 58, 58
1, 267135, Note_on_c, 0, 60, 51
1, 267144, Note_on_c, 0, 79, 65
1, 267151, Control_c, 0, 64, 73
1, 267168, Note_on_c, 0, 76, 31
1, 267186, Note_on_c, 0, 77, 12
1, 267192, Note_off_c, 0, 79, 54
1, 267201, Note_off_c, 0, 60, 55
1, 267202, Note_on_c, 0, 72, 61
1, 267210, Note_off_c, 0, 76, 48
1, 267219, Note_on_c, 0, 68, 51
1, 267231, Note_off_c, 0, 72, 66
1, 267231, Note_off_c, 0, 77, 28
1, 267238, Note_on_c, 0, 64, 50
1, 267243, Note_off_c, 0, 68, 57
1, 267275, Note_off_c, 0, 64, 65
1, 267299, Control_c, 0, 64, 72
1, 267317, Note_on_c, 0, 67, 51
1, 267344, Control_c, 0, 64, 72
1, 267361, Note_off_c, 0, 67, 60
1, 267373, Control_c, 0, 64, 71
1, 267388, Control_c, 0, 64, 71
1, 267398, Note_on_c, 0, 70, 61
1, 267403, Control_c, 0, 64, 69
1, 267417, Control_c, 0, 64, 66
1, 267426, Note_off_c, 0, 70, 66
1, 267432, Control_c, 0, 64, 60
1, 267447, Control_c, 0, 64, 47
1, 267462, Control_c, 0, 64, 27
1, 267477, Control_c, 0, 64, 24
1, 267490, Note_on_c, 0, 82, 67
1, 267493, Note_on_c, 0, 75, 60
1, 267497, Note_on_c, 0, 72, 62
1, 267499, Control_c, 0, 64, 32
1, 267501, Note_on_c, 0, 79, 51
1, 267514, Control_c, 0, 64, 48
1, 267522, Note_off_c, 0, 79, 63
1, 267523, Note_off_c, 0, 82, 63
1, 267525, Note_off_c, 0, 75, 66
1, 267529, Control_c, 0, 64, 59
1, 267529, Note_off_c, 0, 72, 66
1, 267544, Control_c, 0, 64, 63
1, 267559, Control_c, 0, 64, 66
1, 267574, Control_c, 0, 64, 69
1, 267588, Control_c, 0, 64, 71
1, 267590, Note_on_c, 0, 58, 58
1, 267603, Control_c, 0, 64, 73
1, 267618, Control_c, 0, 64, 73
1, 267640, Note_off_c, 0, 58, 59
1, 267687, Note_on_c, 0, 60, 49
1, 267699, Note_on_c, 0, 75, 49
1, 267708, Note_on_c, 0, 79, 56
1, 267728, Note_off_c, 0, 60, 65
1, 267741, Note_off_c, 0, 79, 51
1, 267770, Note_on_c, 0, 62, 55
1, 267776, Note_on_c, 0, 72, 63
1, 267779, Note_off_c, 0, 75, 61
1, 267794, Note_on_c, 0, 68, 51
1, 267805, Note_off_c, 0, 72, 67
1, 267808, Note_off_c, 0, 62, 63
1, 267820, Note_off_c, 0, 68, 56
1, 267826, Control_c, 0, 64, 73
1, 267854, Note_on_c, 0, 60, 51
1, 267855, Control_c, 0, 64, 72
1, 267885, Control_c, 0, 64, 72
1, 267895, Note_off_c, 0, 60, 66
1, 267900, Control_c, 0, 64, 71
1, 267929, Control_c, 0, 64, 71
1, 267937, Note_on_c, 0, 62, 56
1, 267944, Control_c, 0, 64, 70
1, 267959, Control_c, 0, 64, 70
1, 267970, Note_off_c, 0, 62, 65
1, 267974, Control_c, 0, 64, 69
1, 267988, Control_c, 0, 64, 68
1, 268003, Control_c, 0, 64, 67
1, 268018, Control_c, 0, 64, 65
1, 268033, Control_c, 0, 64, 63
1, 268035, Note_on_c, 0, 63, 73
1, 268047, Control_c, 0, 64, 60
1, 268062, Control_c, 0, 64, 56
1, 268076, Note_off_c, 0, 63, 58
1, 268077, Control_c, 0, 64, 52
1, 268092, Control_c, 0, 64, 49
1, 268107, Control_c, 0, 64, 45
1, 268118, Note_on_c, 0, 67, 67
1, 268122, Control_c, 0, 64, 42
1, 268132, Note_on_c, 0, 51, 53
1, 268137, Control_c, 0, 64, 40
1, 268145, Note_off_c, 0, 67, 67
1, 268152, Control_c, 0, 64, 40
1, 268167, Control_c, 0, 64, 39
1, 268181, Note_off_c, 0, 51, 60
1, 268182, Control_c, 0, 64, 39
1, 268208, Note_on_c, 0, 58, 64
1, 268246, Note_off_c, 0, 58, 65
1, 268314, Note_on_c, 0, 67, 53
1, 268338, Control_c, 0, 64, 38
1, 268346, Note_off_c, 0, 67, 63
1, 268396, Note_on_c, 0, 63, 57
1, 268409, Note_on_c, 0, 60, 51
1, 268421, Note_off_c, 0, 63, 63
1, 268435, Note_off_c, 0, 60, 63
1, 268487, Note_on_c, 0, 62, 59
1, 268501, Control_c, 0, 64, 38
1, 268519, Note_off_c, 0, 62, 64
1, 268545, Control_c, 0, 64, 37
1, 268569, Note_on_c, 0, 63, 69
1, 268590, Control_c, 0, 64, 37
1, 268620, Note_off_c, 0, 63, 59
1, 268650, Control_c, 0, 64, 36
1, 268652, Note_on_c, 0, 55, 53
1, 268659, Note_on_c, 0, 67, 64
1, 268688, Note_off_c, 0, 67, 66
1, 268692, Note_off_c, 0, 55, 63
1, 268746, Note_on_c, 0, 58, 63
1, 268775, Note_off_c, 0, 58, 66
1, 268825, Note_on_c, 0, 67, 70
1, 268827, Control_c, 0, 64, 36
1, 268858, Note_off_c, 0, 67, 63
1, 268871, Control_c, 0, 64, 35
1, 268901, Control_c, 0, 64, 35
1, 268916, Control_c, 0, 64, 34
1, 268918, Note_on_c, 0, 63, 72
1, 268923, Note_on_c, 0, 60, 60
1, 268944, Note_off_c, 0, 63, 67
1, 268953, Note_off_c, 0, 60, 66
1, 269013, Note_on_c, 0, 62, 66
1, 269043, Note_off_c, 0, 62, 66
1, 269080, Note_on_c, 0, 63, 81
1, 269140, Note_off_c, 0, 63, 62
1, 269166, Note_on_c, 0, 67, 81
1, 269186, Note_on_c, 0, 51, 61
1, 269187, Note_off_c, 0, 67, 71
1, 269243, Note_off_c, 0, 51, 60
1, 269274, Note_on_c, 0, 58, 64
1, 269354, Note_on_c, 0, 67, 66
1, 269358, Note_off_c, 0, 58, 54
1, 269413, Control_c, 0, 64, 34
1, 269446, Note_off_c, 0, 67, 60
1, 269455, Note_on_c, 0, 66, 67
1, 269540, Note_off_c, 0, 66, 59
1, 269545, Note_on_c, 0, 65, 65
1, 269633, Note_on_c, 0, 63, 67
1, 269637, Note_off_c, 0, 65, 59
1, 269708, Note_off_c, 0, 63, 62
1, 269719, Note_on_c, 0, 62, 68
1, 269815, Note_off_c, 0, 62, 61
1, 269821, Note_on_c, 0, 60, 67
1, 269878, Control_c, 0, 64, 34
1, 269908, Control_c, 0, 64, 35
1, 269916, Note_on_c, 0, 58, 71
1, 269922, Control_c, 0, 64, 36
1, 269936, Note_off_c, 0, 60, 59
1, 269938, Control_c, 0, 64, 37
1, 269953, Control_c, 0, 64, 38
1, 269968, Control_c, 0, 64, 39
1, 269982, Control_c, 0, 64, 40
1, 269997, Control_c, 0, 64, 40
1, 270009, Note_on_c, 0, 56, 67
1, 270012, Control_c, 0, 64, 41
1, 270026, Note_off_c, 0, 58, 57
1, 270027, Control_c, 0, 64, 41
1, 270042, Control_c, 0, 64, 42
1, 270057, Control_c, 0, 64, 44
1, 270071, Control_c, 0, 64, 49
1, 270086, Control_c, 0, 64, 53
1, 270106, Note_on_c, 0, 55, 69
1, 270119, Note_off_c, 0, 56, 59
1, 270157, Note_off_c, 0, 55, 62
1, 270161, Control_c, 0, 64, 52
1, 270176, Control_c, 0, 64, 51
1, 270190, Control_c, 0, 64, 49
1, 270205, Control_c, 0, 64, 47
1, 270206, Note_on_c, 0, 54, 79
1, 270220, Control_c, 0, 64, 45
1, 270234, Control_c, 0, 64, 42
1, 270249, Control_c, 0, 64, 40
1, 270264, Control_c, 0, 64, 38
1, 270279, Control_c, 0, 64, 36
1, 270294, Control_c, 0, 64, 35
1, 270295, Note_on_c, 0, 67, 62
1, 270308, Control_c, 0, 64, 35
1, 270323, Control_c, 0, 64, 34
1, 270359, Note_off_c, 0, 67, 55
1, 270378, Note_off_c, 0, 54, 60
1, 270396, Note_on_c, 0, 66, 60
1, 270402, Note_on_c, 0, 49, 61
1, 270447, Note_off_c, 0, 66, 61
1, 270492, Note_on_c, 0, 67, 63
1, 270496, Note_off_c, 0, 49, 62
1, 270502, Note_on_c, 0, 54, 70
1, 270564, Note_off_c, 0, 67, 56
1, 270568, Control_c, 0, 64, 36
1, 270583, Control_c, 0, 64, 37
1, 270587, Note_on_c, 0, 70, 66
1, 270590, Note_on_c, 0, 58, 73
1, 270591, Note_off_c, 0, 54, 64
1, 270597, Control_c, 0, 64, 37
1, 270612, Control_c, 0, 64, 38
1, 270641, Control_c, 0, 64, 38
1, 270651, Note_off_c, 0, 58, 64
1, 270656, Control_c, 0, 64, 39
1, 270666, Note_off_c, 0, 70, 64
1, 270672, Note_on_c, 0, 64, 68
1, 270673, Note_on_c, 0, 69, 77
1, 270686, Control_c, 0, 64, 39
1, 270715, Control_c, 0, 64, 36
1, 270730, Control_c, 0, 64, 0
1, 270749, Note_off_c, 0, 64, 61
1, 270752, Note_off_c, 0, 69, 54
1, 270760, Note_on_c, 0, 66, 78
1, 270767, Note_on_c, 0, 70, 78
1, 270820, Control_c, 0, 64, 31
1, 270835, Control_c, 0, 64, 51
1, 270846, Note_off_c, 0, 70, 61
1, 270849, Note_on_c, 0, 76, 73
1, 270850, Control_c, 0, 64, 59
1, 270864, Control_c, 0, 64, 63
1, 270879, Control_c, 0, 64, 65
1, 270894, Control_c, 0, 64, 67
1, 270909, Control_c, 0, 64, 70
1, 270912, Note_off_c, 0, 66, 58
1, 270924, Control_c, 0, 64, 73
1, 270937, Note_off_c, 0, 76, 61
1, 270939, Note_on_c, 0, 75, 76
1, 270939, Control_c, 0, 64, 76
1, 270941, Note_on_c, 0, 61, 68
1, 270954, Control_c, 0, 64, 78
1, 270969, Control_c, 0, 64, 79
1, 270984, Control_c, 0, 64, 81
1, 270995, Note_off_c, 0, 75, 63
1, 270999, Control_c, 0, 64, 82
1, 271011, Note_off_c, 0, 61, 61
1, 271013, Control_c, 0, 64, 84
1, 271022, Note_on_c, 0, 66, 74
1, 271031, Note_on_c, 0, 76, 82
1, 271043, Control_c, 0, 64, 84
1, 271092, Note_off_c, 0, 66, 61
1, 271102, Control_c, 0, 64, 85
1, 271103, Note_on_c, 0, 70, 71
1, 271109, Note_on_c, 0, 79, 87
1, 271114, Note_off_c, 0, 76, 62
1, 271117, Control_c, 0, 64, 87
1, 271131, Control_c, 0, 64, 89
1, 271146, Control_c, 0, 64, 91
1, 271159, Note_off_c, 0, 70, 63
1, 271161, Control_c, 0, 64, 92
1, 271186, Note_on_c, 0, 82, 90
1, 271187, Note_on_c, 0, 78, 66
1, 271191, Control_c, 0, 64, 93
1, 271197, Note_off_c, 0, 79, 65
1, 271205, Control_c, 0, 64, 94
1, 271207, Note_off_c, 0, 78, 65
1, 271243, Control_c, 0, 64, 88
1, 271257, Control_c, 0, 64, 70
1, 271272, Control_c, 0, 64, 47
1, 271280, Note_on_c, 0, 86, 92
1, 271285, Note_on_c, 0, 76, 89
1, 271287, Control_c, 0, 64, 0
1, 271289, Note_on_c, 0, 80, 88
1, 271291, Note_off_c, 0, 82, 61
1, 271317, Control_c, 0, 64, 46
1, 271324, Note_off_c, 0, 76, 65
1, 271329, Note_off_c, 0, 86, 66
1, 271331, Control_c, 0, 64, 60
1, 271335, Note_off_c, 0, 80, 61
1, 271346, Control_c, 0, 64, 66
1, 271361, Control_c, 0, 64, 72
1, 271375, Note_on_c, 0, 48, 70
1, 271376, Control_c, 0, 64, 80
1, 271391, Control_c, 0, 64, 85
1, 271420, Control_c, 0, 64, 83
1, 271436, Note_on_c, 0, 56, 80
1, 271448, Note_off_c, 0, 48, 59
1, 271464, Control_c, 0, 64, 84
1, 271479, Control_c, 0, 64, 84
1, 271487, Note_on_c, 0, 80, 72
1, 271488, Note_on_c, 0, 83, 88
1, 271509, Control_c, 0, 64, 84
1, 271511, Note_off_c, 0, 56, 64
1, 271524, Control_c, 0, 64, 83
1, 271539, Note_on_c, 0, 62, 67
1, 271547, Note_off_c, 0, 83, 64
1, 271548, Note_on_c, 0, 76, 79
1, 271551, Note_on_c, 0, 72, 82
1, 271555, Control_c, 0, 64, 83
1, 271566, Note_off_c, 0, 80, 64
1, 271574, Note_off_c, 0, 76, 67
1, 271584, Control_c, 0, 64, 82
1, 271586, Note_off_c, 0, 72, 61
1, 271589, Note_off_c, 0, 62, 59
1, 271614, Control_c, 0, 64, 82
1, 271639, Note_on_c, 0, 64, 75
1, 271643, Control_c, 0, 64, 81
1, 271673, Control_c, 0, 64, 80
1, 271687, Control_c, 0, 64, 80
1, 271702, Control_c, 0, 64, 78
1, 271717, Control_c, 0, 64, 76
1, 271723, Note_on_c, 0, 68, 81
1, 271725, Note_off_c, 0, 64, 63
1, 271732, Control_c, 0, 64, 75
1, 271747, Control_c, 0, 64, 74
1, 271752, Note_off_c, 0, 68, 64
1, 271762, Control_c, 0, 64, 74
1, 271777, Control_c, 0, 64, 73
1, 271791, Control_c, 0, 64, 71
1, 271806, Control_c, 0, 64, 69
1, 271821, Control_c, 0, 64, 67
1, 271832, Note_on_c, 0, 76, 84
1, 271836, Control_c, 0, 64, 65
1, 271851, Control_c, 0, 64, 63
1, 271866, Control_c, 0, 64, 60
1, 271880, Control_c, 0, 64, 56
1, 271895, Control_c, 0, 64, 53
1, 271910, Control_c, 0, 64, 50
1, 271925, Control_c, 0, 64, 47
1, 271940, Control_c, 0, 64, 44
1, 271954, Control_c, 0, 64, 42
1, 271969, Control_c, 0, 64, 41
1, 271991, Control_c, 0, 64, 40
1, 272006, Control_c, 0, 64, 39
1, 272045, Note_on_c, 0, 64, 58
1, 272051, Control_c, 0, 64, 39
1, 272098, Note_off_c, 0, 76, 38
1, 272109, Note_off_c, 0, 64, 58
1, 272120, Note_on_c, 0, 56, 68
1, 272149, Note_off_c, 0, 56, 67
1, 272206, Note_on_c, 0, 56, 88
1, 272257, Note_off_c, 0, 56, 64
1, 272294, Note_on_c, 0, 55, 90
1, 272334, Control_c, 0, 64, 38
1, 272340, Note_off_c, 0, 55, 63
1, 272349, Control_c, 0, 64, 35
1, 272364, Control_c, 0, 64, 31
1, 272378, Control_c, 0, 64, 24
1, 272386, Note_on_c, 0, 54, 89
1, 272393, Control_c, 0, 64, 11
1, 272408, Control_c, 0, 64, 0
1, 272467, Control_c, 0, 64, 32
1, 272482, Control_c, 0, 64, 49
1, 272497, Control_c, 0, 64, 56
1, 272504, Note_on_c, 0, 67, 60
1, 272511, Control_c, 0, 64, 60
1, 272526, Control_c, 0, 64, 63
1, 272541, Control_c, 0, 64, 66
1, 272556, Note_off_c, 0, 54, 57
1, 272556, Control_c, 0, 64, 69
1, 272571, Control_c, 0, 64, 72
1, 272573, Note_off_c, 0, 67, 57
1, 272585, Control_c, 0, 64, 75
1, 272593, Note_on_c, 0, 49, 62
1, 272598, Note_on_c, 0, 66, 63
1, 272600, Control_c, 0, 64, 77
1, 272615, Control_c, 0, 64, 78
1, 272650, Note_off_c, 0, 66, 59
1, 272686, Note_off_c, 0, 49, 62
1, 272688, Note_on_c, 0, 67, 67
1, 272689, Note_on_c, 0, 54, 68
1, 272689, Control_c, 0, 64, 78
1, 272751, Note_off_c, 0, 67, 48
1, 272756, Control_c, 0, 64, 78
1, 272782, Note_off_c, 0, 54, 63
1, 272787, Note_on_c, 0, 58, 74
1, 272789, Note_on_c, 0, 70, 70
1, 272839, Note_off_c, 0, 58, 61
1, 272864, Note_off_c, 0, 70, 63
1, 272866, Note_on_c, 0, 64, 68
1, 272871, Note_on_c, 0, 69, 83
1, 272874, Control_c, 0, 64, 77
1, 272889, Control_c, 0, 64, 74
1, 272904, Control_c, 0, 64, 67
1, 272918, Control_c, 0, 64, 51
1, 272930, Note_off_c, 0, 64, 59
1, 272933, Control_c, 0, 64, 0
1, 272948, Note_on_c, 0, 66, 88
1, 272958, Note_off_c, 0, 69, 51
1, 272960, Note_on_c, 0, 70, 87
1, 273008, Control_c, 0, 64, 50
1, 273023, Control_c, 0, 64, 60
1, 273037, Control_c, 0, 64, 64
1, 273047, Note_off_c, 0, 70, 62
1, 273048, Note_on_c, 0, 76, 79
1, 273052, Control_c, 0, 64, 67
1, 273067, Control_c, 0, 64, 70
1, 273082, Control_c, 0, 64, 74
1, 273097, Control_c, 0, 64, 77
1, 273106, Note_off_c, 0, 66, 54
1, 273111, Control_c, 0, 64, 79
1, 273127, Control_c, 0, 64, 80
1, 273129, Note_on_c, 0, 61, 76
1, 273137, Note_on_c, 0, 75, 80
1, 273142, Control_c, 0, 64, 81
1, 273144, Note_off_c, 0, 76, 60
1, 273157, Control_c, 0, 64, 82
1, 273172, Control_c, 0, 64, 83
1, 273186, Control_c, 0, 64, 83
1, 273191, Note_off_c, 0, 75, 64
1, 273213, Note_off_c, 0, 61, 61
1, 273219, Note_on_c, 0, 66, 76
1, 273225, Note_on_c, 0, 76, 84
1, 273293, Note_off_c, 0, 66, 61
1, 273301, Note_on_c, 0, 70, 73
1, 273304, Note_on_c, 0, 79, 90
1, 273309, Note_off_c, 0, 76, 63
1, 273334, Control_c, 0, 64, 84
1, 273353, Note_off_c, 0, 70, 66
1, 273364, Control_c, 0, 64, 84
1, 273379, Control_c, 0, 64, 85
1, 273389, Note_on_c, 0, 82, 90
1, 273394, Note_on_c, 0, 78, 71
1, 273394, Control_c, 0, 64, 87
1, 273402, Note_off_c, 0, 79, 65
1, 273408, Control_c, 0, 64, 90
1, 273416, Note_off_c, 0, 78, 64
1, 273423, Control_c, 0, 64, 92
1, 273438, Control_c, 0, 64, 89
1, 273452, Control_c, 0, 64, 76
1, 273467, Control_c, 0, 64, 60
1, 273469, Note_on_c, 0, 86, 96
1, 273473, Note_on_c, 0, 76, 93
1, 273488, Note_on_c, 0, 80, 91
1, 273488, Note_off_c, 0, 82, 62
1, 273490, Control_c, 0, 64, 17
1, 273505, Control_c, 0, 64, 24
1, 273520, Control_c, 0, 64, 45
1, 273534, Control_c, 0, 64, 60
1, 273544, Note_off_c, 0, 76, 56
1, 273548, Note_off_c, 0, 86, 65
1, 273549, Control_c, 0, 64, 66
1, 273564, Control_c, 0, 64, 72
1, 273565, Note_off_c, 0, 80, 64
1, 273574, Note_on_c, 0, 48, 73
1, 273578, Control_c, 0, 64, 81
1, 273593, Control_c, 0, 64, 89
1, 273607, Control_c, 0, 64, 91
1, 273622, Control_c, 0, 64, 91
1, 273635, Note_on_c, 0, 56, 80
1, 273637, Control_c, 0, 64, 90
1, 273654, Note_off_c, 0, 48, 58
1, 273692, Note_on_c, 0, 80, 76
1, 273699, Note_on_c, 0, 83, 85
1, 273712, Note_off_c, 0, 56, 64
1, 273729, Note_on_c, 0, 62, 69
1, 273756, Note_on_c, 0, 76, 72
1, 273759, Note_on_c, 0, 72, 84
1, 273762, Note_off_c, 0, 83, 65
1, 273778, Note_off_c, 0, 80, 63
1, 273786, Note_off_c, 0, 62, 61
1, 273793, Note_off_c, 0, 76, 64
1, 273801, Note_off_c, 0, 72, 60
1, 273828, Note_on_c, 0, 64, 78
1, 273926, Note_on_c, 0, 68, 88
1, 273926, Note_off_c, 0, 64, 62
1, 273964, Control_c, 0, 64, 90
1, 273969, Note_off_c, 0, 68, 59
1, 273994, Control_c, 0, 64, 89
1, 274009, Control_c, 0, 64, 81
1, 274023, Control_c, 0, 64, 67
1, 274029, Note_on_c, 0, 76, 93
1, 274038, Control_c, 0, 64, 47
1, 274053, Control_c, 0, 64, 0
1, 274097, Control_c, 0, 64, 38
1, 274112, Control_c, 0, 64, 55
1, 274127, Control_c, 0, 64, 61
1, 274142, Control_c, 0, 64, 64
1, 274156, Control_c, 0, 64, 65
1, 274171, Control_c, 0, 64, 67
1, 274186, Control_c, 0, 64, 69
1, 274201, Control_c, 0, 64, 70
1, 274216, Control_c, 0, 64, 70
1, 274221, Note_on_c, 0, 88, 83
1, 274238, Control_c, 0, 64, 71
1, 274243, Note_off_c, 0, 76, 63
1, 274253, Control_c, 0, 64, 71
1, 274273, Note_off_c, 0, 88, 67
1, 274282, Control_c, 0, 64, 72
1, 274329, Note_on_c, 0, 56, 74
1, 274342, Control_c, 0, 64, 72
1, 274360, Note_off_c, 0, 56, 67
1, 274401, Control_c, 0, 64, 72
1, 274430, Note_on_c, 0, 56, 83
1, 274464, Note_off_c, 0, 56, 60
1, 274511, Note_on_c, 0, 54, 83
1, 274519, Control_c, 0, 64, 72
1, 274534, Control_c, 0, 64, 73
1, 274549, Control_c, 0, 64, 73
1, 274558, Note_off_c, 0, 54, 63
1, 274564, Control_c, 0, 64, 74
1, 274593, Control_c, 0, 64, 71
1, 274608, Control_c, 0, 64, 63
1, 274611, Note_on_c, 0, 53, 96
1, 274623, Control_c, 0, 64, 39
1, 274638, Control_c, 0, 64, 0
1, 274668, Control_c, 0, 64, 17
1, 274682, Control_c, 0, 64, 48
1, 274697, Control_c, 0, 64, 60
1, 274712, Control_c, 0, 64, 64
1, 274722, Note_on_c, 0, 70, 68
1, 274728, Control_c, 0, 64, 67
1, 274743, Control_c, 0, 64, 71
1, 274757, Control_c, 0, 64, 74
1, 274772, Control_c, 0, 64, 75
1, 274793, Note_off_c, 0, 70, 63
1, 274804, Note_on_c, 0, 69, 73
1, 274817, Note_on_c, 0, 58, 77
1, 274829, Note_off_c, 0, 53, 62
1, 274876, Note_off_c, 0, 69, 58
1, 274895, Note_on_c, 0, 70, 74
1, 274901, Note_off_c, 0, 58, 63
1, 274909, Note_on_c, 0, 62, 74
1, 274968, Note_off_c, 0, 62, 64
1, 274993, Note_off_c, 0, 70, 61
1, 274994, Note_on_c, 0, 74, 75
1, 274996, Note_on_c, 0, 67, 73
1, 275017, Control_c, 0, 64, 75
1, 275032, Control_c, 0, 64, 76
1, 275061, Control_c, 0, 64, 76
1, 275080, Note_on_c, 0, 69, 88
1, 275081, Note_on_c, 0, 73, 81
1, 275084, Note_off_c, 0, 74, 60
1, 275089, Note_off_c, 0, 67, 63
1, 275120, Control_c, 0, 64, 73
1, 275135, Control_c, 0, 64, 65
1, 275140, Note_off_c, 0, 73, 64
1, 275150, Control_c, 0, 64, 50
1, 275165, Control_c, 0, 64, 35
1, 275172, Note_on_c, 0, 70, 90
1, 275173, Note_off_c, 0, 69, 65
1, 275179, Control_c, 0, 64, 39
1, 275182, Note_on_c, 0, 74, 86
1, 275194, Control_c, 0, 64, 48
1, 275209, Control_c, 0, 64, 60
1, 275224, Control_c, 0, 64, 65
1, 275239, Control_c, 0, 64, 70
1, 275253, Control_c, 0, 64, 75
1, 275268, Control_c, 0, 64, 78
1, 275273, Note_on_c, 0, 79, 84
1, 275277, Note_off_c, 0, 74, 62
1, 275283, Control_c, 0, 64, 78
1, 275359, Note_off_c, 0, 79, 64
1, 275361, Note_off_c, 0, 70, 59
1, 275365, Note_on_c, 0, 78, 82
1, 275380, Note_on_c, 0, 69, 67
1, 275409, Note_off_c, 0, 69, 68
1, 275423, Note_off_c, 0, 78, 64
1, 275455, Note_on_c, 0, 79, 86
1, 275464, Note_on_c, 0, 67, 70
1, 275505, Control_c, 0, 64, 79
1, 275538, Note_on_c, 0, 82, 87
1, 275546, Note_off_c, 0, 67, 58
1, 275549, Note_off_c, 0, 79, 63
1, 275610, Control_c, 0, 64, 79
1, 275625, Control_c, 0, 64, 80
1, 275628, Note_on_c, 0, 62, 64
1, 275628, Note_on_c, 0, 86, 89
1, 275640, Control_c, 0, 64, 82
1, 275643, Note_off_c, 0, 82, 64
1, 275655, Control_c, 0, 64, 81
1, 275660, Note_off_c, 0, 62, 65
1, 275669, Control_c, 0, 64, 72
1, 275684, Control_c, 0, 64, 55
1, 275699, Control_c, 0, 64, 0
1, 275704, Note_on_c, 0, 81, 97
1, 275705, Note_on_c, 0, 89, 104
1, 275708, Note_on_c, 0, 84, 99
1, 275731, Note_off_c, 0, 86, 63
1, 275735, Control_c, 0, 64, 15
1, 275750, Control_c, 0, 64, 49
1, 275765, Note_off_c, 0, 84, 66
1, 275765, Control_c, 0, 64, 63
1, 275768, Note_off_c, 0, 81, 65
1, 275780, Note_off_c, 0, 89, 66
1, 275780, Control_c, 0, 64, 68
1, 275786, Note_on_c, 0, 52, 61
1, 275795, Control_c, 0, 64, 74
1, 275810, Control_c, 0, 64, 79
1, 275825, Control_c, 0, 64, 81
1, 275840, Control_c, 0, 64, 80
1, 275855, Control_c, 0, 64, 79
1, 275873, Note_on_c, 0, 57, 76
1, 275887, Note_off_c, 0, 52, 64
1, 275899, Control_c, 0, 64, 80
1, 275932, Note_on_c, 0, 76, 58
1, 275935, Note_on_c, 0, 84, 87
1, 275942, Note_on_c, 0, 81, 81
1, 275965, Note_off_c, 0, 76, 65
1, 275971, Note_off_c, 0, 57, 63
1, 275974, Control_c, 0, 64, 80
1, 275986, Note_on_c, 0, 60, 74
1, 275995, Note_on_c, 0, 77, 100
1, 276003, Control_c, 0, 64, 80
1, 276017, Note_off_c, 0, 84, 65
1, 276024, Note_off_c, 0, 81, 64
1, 276035, Note_off_c, 0, 77, 67
1, 276053, Note_off_c, 0, 60, 65
1, 276089, Note_on_c, 0, 65, 67
1, 276136, Control_c, 0, 64, 80
1, 276166, Control_c, 0, 64, 81
1, 276176, Note_on_c, 0, 69, 90
1, 276181, Control_c, 0, 64, 81
1, 276182, Note_off_c, 0, 65, 63
1, 276196, Control_c, 0, 64, 82
1, 276210, Control_c, 0, 64, 82
1, 276218, Note_off_c, 0, 69, 64
1, 276225, Control_c, 0, 64, 82
1, 276240, Control_c, 0, 64, 81
1, 276254, Control_c, 0, 64, 77
1, 276269, Control_c, 0, 64, 65
1, 276274, Note_on_c, 0, 77, 98
1, 276284, Control_c, 0, 64, 17
1, 276299, Control_c, 0, 64, 0
1, 276374, Control_c, 0, 64, 47
1, 276389, Control_c, 0, 64, 57
1, 276404, Control_c, 0, 64, 60
1, 276419, Control_c, 0, 64, 62
1, 276433, Control_c, 0, 64, 63
1, 276448, Control_c, 0, 64, 64
1, 276463, Control_c, 0, 64, 65
1, 276466, Note_on_c, 0, 65, 83
1, 276486, Control_c, 0, 64, 66
1, 276529, Note_off_c, 0, 77, 57
1, 276533, Note_off_c, 0, 65, 59
1, 276550, Note_on_c, 0, 52, 81
1, 276559, Control_c, 0, 64, 66
1, 276574, Control_c, 0, 64, 67
1, 276581, Note_off_c, 0, 52, 66
1, 276651, Note_on_c, 0, 52, 84
1, 276681, Note_off_c, 0, 52, 63
1, 276727, Note_on_c, 0, 51, 86
1, 276752, Control_c, 0, 64, 65
1, 276767, Control_c, 0, 64, 52
1, 276772, Note_off_c, 0, 51, 63
1, 276781, Control_c, 0, 64, 0
1, 276818, Note_on_c, 0, 73, 86
1, 276820, Note_on_c, 0, 68, 91
1, 276820, Note_on_c, 0, 77, 94
1, 276833, Note_on_c, 0, 49, 74
1, 276852, Note_off_c, 0, 73, 68
1, 276856, Note_off_c, 0, 77, 66
1, 276856, Control_c, 0, 64, 56
1, 276862, Note_off_c, 0, 68, 60
1, 276870, Control_c, 0, 64, 65
1, 276885, Control_c, 0, 64, 71
1, 276892, Note_off_c, 0, 49, 50
1, 276900, Control_c, 0, 64, 77
1, 276907, Note_on_c, 0, 56, 76
1, 276915, Control_c, 0, 64, 81
1, 276930, Control_c, 0, 64, 82
1, 276944, Control_c, 0, 64, 81
1, 276959, Control_c, 0, 64, 80
1, 276974, Control_c, 0, 64, 79
1, 276976, Note_off_c, 0, 56, 63
1, 276987, Note_on_c, 0, 60, 73
1, 276989, Control_c, 0, 64, 78
1, 277004, Control_c, 0, 64, 76
1, 277014, Note_on_c, 0, 73, 79
1, 277019, Control_c, 0, 64, 72
1, 277021, Note_off_c, 0, 60, 65
1, 277031, Note_on_c, 0, 64, 42
1, 277033, Control_c, 0, 64, 67
1, 277034, Note_on_c, 0, 68, 63
1, 277048, Control_c, 0, 64, 63
1, 277060, Note_off_c, 0, 64, 52
1, 277063, Control_c, 0, 64, 56
1, 277077, Control_c, 0, 64, 45
1, 277083, Note_on_c, 0, 65, 71
1, 277092, Control_c, 0, 64, 0
1, 277098, Note_off_c, 0, 73, 62
1, 277103, Note_off_c, 0, 68, 61
1, 277188, Note_on_c, 0, 58, 71
1, 277200, Note_off_c, 0, 65, 60
1, 277247, Note_off_c, 0, 58, 62
1, 277284, Note_on_c, 0, 60, 57
1, 277314, Note_off_c, 0, 60, 66
1, 277365, Note_on_c, 0, 68, 74
1, 277367, Control_c, 0, 64, 30
1, 277368, Note_on_c, 0, 61, 68
1, 277371, Note_on_c, 0, 65, 59
1, 277381, Control_c, 0, 64, 56
1, 277396, Control_c, 0, 64, 62
1, 277397, Note_off_c, 0, 65, 65
1, 277398, Note_off_c, 0, 61, 66
1, 277407, Note_off_c, 0, 68, 58
1, 277411, Control_c, 0, 64, 66
1, 277420, Note_on_c, 0, 49, 54
1, 277426, Control_c, 0, 64, 71
1, 277441, Control_c, 0, 64, 76
1, 277455, Control_c, 0, 64, 80
1, 277470, Control_c, 0, 64, 80
1, 277491, Note_off_c, 0, 49, 60
1, 277505, Note_on_c, 0, 56, 61
1, 277515, Control_c, 0, 64, 80
1, 277530, Control_c, 0, 64, 79
1, 277540, Note_off_c, 0, 56, 65
1, 277545, Control_c, 0, 64, 78
1, 277559, Control_c, 0, 64, 76
1, 277574, Control_c, 0, 64, 73
1, 277576, Note_on_c, 0, 65, 61
1, 277577, Note_on_c, 0, 60, 49
1, 277589, Control_c, 0, 64, 69
1, 277604, Control_c, 0, 64, 65
1, 277610, Note_off_c, 0, 60, 52
1, 277619, Control_c, 0, 64, 59
1, 277634, Control_c, 0, 64, 49
1, 277638, Note_on_c, 0, 61, 58
1, 277648, Control_c, 0, 64, 40
1, 277663, Control_c, 0, 64, 17
1, 277678, Control_c, 0, 64, 0
1, 277729, Note_off_c, 0, 61, 59
1, 277736, Note_off_c, 0, 65, 36
1, 277749, Note_on_c, 0, 55, 47
1, 277794, Note_off_c, 0, 55, 65
1, 277821, Note_on_c, 0, 56, 48
1, 277847, Note_off_c, 0, 56, 56
1, 277894, Note_on_c, 0, 60, 62
1, 277899, Note_on_c, 0, 65, 56
1, 277899, Control_c, 0, 64, 51
1, 277901, Note_on_c, 0, 57, 57
1, 277915, Control_c, 0, 64, 59
1, 277923, Note_off_c, 0, 60, 66
1, 277929, Note_off_c, 0, 65, 63
1, 277930, Control_c, 0, 64, 63
1, 277933, Note_off_c, 0, 57, 66
1, 277945, Control_c, 0, 64, 65
1, 277960, Control_c, 0, 64, 67
1, 277983, Control_c, 0, 64, 68
1, 277998, Control_c, 0, 64, 69
1, 278019, Note_on_c, 0, 37, 47
1, 278027, Control_c, 0, 64, 69
1, 278042, Control_c, 0, 64, 68
1, 278057, Control_c, 0, 64, 67
1, 278059, Note_off_c, 0, 37, 61
1, 278072, Control_c, 0, 64, 65
1, 278086, Control_c, 0, 64, 64
1, 278087, Note_on_c, 0, 60, 47
1, 278090, Note_on_c, 0, 53, 48
1, 278093, Note_on_c, 0, 57, 42
1, 278101, Control_c, 0, 64, 60
1, 278102, Note_on_c, 0, 38, 50
1, 278116, Control_c, 0, 64, 56
1, 278130, Control_c, 0, 64, 52
1, 278144, Note_off_c, 0, 38, 60
1, 278145, Control_c, 0, 64, 50
1, 278159, Note_on_c, 0, 52, 55
1, 278160, Control_c, 0, 64, 48
1, 278175, Control_c, 0, 64, 47
1, 278190, Control_c, 0, 64, 46
1, 278195, Note_on_c, 0, 39, 48
1, 278234, Control_c, 0, 64, 45
1, 278259, Note_off_c, 0, 39, 62
1, 278275, Note_on_c, 0, 40, 56
1, 278278, Control_c, 0, 64, 45
1, 278293, Control_c, 0, 64, 44
1, 278335, Note_off_c, 0, 40, 63
1, 278355, Note_on_c, 0, 41, 65
1, 278380, Note_off_c, 0, 57, 17
1, 278429, Note_off_c, 0, 41, 60
1, 278440, Note_on_c, 0, 43, 67
1, 278523, Note_off_c, 0, 43, 62
1, 278529, Note_off_c, 0, 52, 40
1, 278537, Note_on_c, 0, 45, 58
1, 278538, Note_off_c, 0, 53, 39
1, 278600, Note_off_c, 0, 45, 64
1, 278618, Note_off_c, 0, 60, 37
1, 278621, Note_on_c, 0, 47, 60
1, 278681, Note_off_c, 0, 47, 52
1, 278722, Note_on_c, 0, 48, 59
1, 278811, Note_on_c, 0, 50, 60
1, 278815, Note_off_c, 0, 48, 57
1, 278850, Control_c, 0, 64, 45
1, 278865, Control_c, 0, 64, 45
1, 278865, Note_off_c, 0, 50, 60
1, 278880, Control_c, 0, 64, 46
1, 278895, Note_on_c, 0, 51, 53
1, 278909, Control_c, 0, 64, 46
1, 278924, Control_c, 0, 64, 47
1, 278940, Note_off_c, 0, 51, 61
1, 278953, Control_c, 0, 64, 48
1, 278968, Control_c, 0, 64, 48
1, 278981, Note_on_c, 0, 52, 61
1, 278983, Control_c, 0, 64, 49
1, 278987, Note_on_c, 0, 45, 50
1, 278998, Control_c, 0, 64, 49
1, 279011, Note_off_c, 0, 52, 67
1, 279013, Control_c, 0, 64, 50
1, 279019, Note_off_c, 0, 45, 63
1, 279086, Note_on_c, 0, 88, 53
1, 279166, Note_off_c, 0, 88, 64
1, 279181, Note_on_c, 0, 52, 52
1, 279184, Note_on_c, 0, 45, 46
1, 279189, Note_on_c, 0, 91, 56
1, 279214, Note_off_c, 0, 52, 66
1, 279220, Note_off_c, 0, 45, 64
1, 279258, Note_off_c, 0, 91, 61
1, 279274, Note_on_c, 0, 84, 57
1, 279276, Note_on_c, 0, 52, 63
1, 279283, Note_on_c, 0, 45, 48
1, 279294, Control_c, 0, 64, 49
1, 279303, Note_off_c, 0, 84, 65
1, 279305, Note_off_c, 0, 52, 67
1, 279310, Note_off_c, 0, 45, 56
1, 279378, Note_on_c, 0, 84, 64
1, 279439, Note_on_c, 0, 45, 45
1, 279451, Note_off_c, 0, 84, 64
1, 279474, Note_on_c, 0, 88, 62
1, 279484, Note_off_c, 0, 45, 63
1, 279540, Note_off_c, 0, 88, 63
1, 279560, Note_on_c, 0, 81, 72
1, 279564, Note_on_c, 0, 53, 69
1, 279579, Note_on_c, 0, 50, 42
1, 279586, Note_off_c, 0, 81, 69
1, 279595, Note_off_c, 0, 53, 65
1, 279610, Note_off_c, 0, 50, 49
1, 279669, Note_on_c, 0, 81, 69
1, 279724, Note_off_c, 0, 81, 55
1, 279741, Note_on_c, 0, 54, 45
1, 279755, Note_on_c, 0, 60, 55
1, 279761, Note_on_c, 0, 84, 69
1, 279771, Note_off_c, 0, 54, 57
1, 279777, Note_on_c, 0, 50, 24
1, 279786, Note_off_c, 0, 60, 66
1, 279804, Note_off_c, 0, 84, 60
1, 279818, Note_off_c, 0, 50, 30
1, 279837, Control_c, 0, 64, 49
1, 279843, Note_on_c, 0, 77, 66
1, 279847, Note_on_c, 0, 59, 71
1, 279851, Note_on_c, 0, 52, 66
1, 279852, Note_on_c, 0, 57, 65
1, 279870, Note_off_c, 0, 77, 67
1, 279872, Note_off_c, 0, 52, 63
1, 279873, Note_off_c, 0, 57, 64
1, 279875, Note_off_c, 0, 59, 67
1, 279932, Note_on_c, 0, 77, 77
1, 280019, Note_off_c, 0, 77, 61
1, 280023, Note_on_c, 0, 52, 52
1, 280034, Note_on_c, 0, 81, 70
1, 280039, Note_on_c, 0, 57, 41
1, 280055, Note_off_c, 0, 52, 66
1, 280069, Note_off_c, 0, 57, 49
1, 280101, Note_off_c, 0, 81, 63
1, 280121, Note_on_c, 0, 74, 67
1, 280123, Note_on_c, 0, 64, 74
1, 280124, Note_on_c, 0, 60, 69
1, 280141, Note_on_c, 0, 57, 58
1, 280145, Note_off_c, 0, 60, 65
1, 280150, Note_off_c, 0, 64, 66
1, 280167, Note_off_c, 0, 57, 63
1, 280177, Note_off_c, 0, 74, 54
1, 280229, Note_on_c, 0, 76, 66
1, 280288, Control_c, 0, 64, 48
1, 280310, Note_off_c, 0, 76, 63
1, 280314, Note_on_c, 0, 57, 50
1, 280320, Note_on_c, 0, 60, 44
1, 280323, Note_on_c, 0, 79, 67
1, 280334, Note_on_c, 0, 64, 36
1, 280348, Note_off_c, 0, 60, 61
1, 280351, Note_off_c, 0, 57, 66
1, 280365, Note_off_c, 0, 64, 51
1, 280376, Note_off_c, 0, 79, 62
1, 280415, Note_on_c, 0, 72, 63
1, 280424, Note_on_c, 0, 60, 69
1, 280427, Note_on_c, 0, 57, 65
1, 280445, Note_off_c, 0, 72, 66
1, 280455, Note_off_c, 0, 60, 65
1, 280456, Note_on_c, 0, 64, 40
1, 280461, Note_off_c, 0, 57, 65
1, 280465, Control_c, 0, 64, 48
1, 280484, Note_off_c, 0, 64, 53
1, 280511, Note_on_c, 0, 72, 64
1, 280586, Note_on_c, 0, 64, 51
1, 280586, Note_off_c, 0, 72, 63
1, 280594, Note_on_c, 0, 57, 48
1, 280603, Note_on_c, 0, 76, 67
1, 280608, Note_on_c, 0, 60, 30
1, 280616, Note_off_c, 0, 64, 63
1, 280624, Note_off_c, 0, 57, 64
1, 280642, Note_off_c, 0, 60, 32
1, 280646, Note_off_c, 0, 76, 64
1, 280683, Note_on_c, 0, 52, 74
1, 280688, Note_on_c, 0, 69, 70
1, 280692, Note_on_c, 0, 57, 68
1, 280692, Note_on_c, 0, 60, 58
1, 280713, Note_off_c, 0, 52, 64
1, 280714, Note_off_c, 0, 69, 69
1, 280719, Note_off_c, 0, 57, 64
1, 280724, Note_off_c, 0, 60, 66
1, 280731, Control_c, 0, 64, 47
1, 280782, Note_on_c, 0, 69, 74
1, 280844, Note_off_c, 0, 69, 60
1, 280866, Note_on_c, 0, 57, 50
1, 280869, Note_on_c, 0, 72, 71
1, 280870, Note_on_c, 0, 60, 43
1, 280876, Note_on_c, 0, 52, 40
1, 280891, Note_off_c, 0, 57, 61
1, 280895, Note_off_c, 0, 60, 60
1, 280908, Note_off_c, 0, 52, 49
1, 280910, Note_off_c, 0, 72, 63
1, 280952, Note_on_c, 0, 57, 77
1, 280952, Note_on_c, 0, 65, 70
1, 280955, Note_on_c, 0, 50, 69
1, 280956, Note_on_c, 0, 59, 67
1, 280986, Note_off_c, 0, 57, 67
1, 280990, Note_off_c, 0, 65, 65
1, 280993, Note_off_c, 0, 50, 65
1, 280993, Note_off_c, 0, 59, 65
1, 281005, Control_c, 0, 64, 47
1, 281062, Note_on_c, 0, 65, 58
1, 281126, Note_on_c, 0, 57, 54
1, 281128, Note_off_c, 0, 65, 61
1, 281131, Note_on_c, 0, 59, 37
1, 281145, Note_on_c, 0, 69, 71
1, 281157, Note_off_c, 0, 57, 65
1, 281158, Note_off_c, 0, 59, 61
1, 281169, Note_off_c, 0, 69, 68
1, 281238, Note_on_c, 0, 59, 68
1, 281242, Note_on_c, 0, 64, 67
1, 281248, Note_on_c, 0, 55, 50
1, 281268, Note_off_c, 0, 59, 66
1, 281271, Note_off_c, 0, 64, 66
1, 281275, Note_off_c, 0, 55, 60
1, 281350, Note_on_c, 0, 65, 50
1, 281379, Note_off_c, 0, 65, 63
1, 281439, Note_on_c, 0, 67, 58
1, 281447, Note_on_c, 0, 59, 47
1, 281455, Note_on_c, 0, 64, 13
1, 281461, Note_on_c, 0, 55, 4
1, 281473, Note_off_c, 0, 59, 56
1, 281473, Note_off_c, 0, 67, 64
1, 281488, Note_off_c, 0, 64, 42
1, 281527, Note_on_c, 0, 69, 67
1, 281536, Note_on_c, 0, 59, 72
1, 281558, Note_on_c, 0, 64, 31
1, 281564, Note_off_c, 0, 59, 66
1, 281566, Note_off_c, 0, 69, 58
1, 281583, Note_off_c, 0, 55, 20
1, 281584, Control_c, 0, 64, 46
1, 281588, Note_off_c, 0, 64, 49
1, 281619, Note_on_c, 0, 71, 70
1, 281648, Note_off_c, 0, 71, 66
1, 281693, Note_on_c, 0, 64, 51
1, 281704, Note_on_c, 0, 59, 42
1, 281705, Note_on_c, 0, 55, 40
1, 281725, Note_on_c, 0, 72, 64
1, 281733, Note_off_c, 0, 64, 64
1, 281737, Note_off_c, 0, 59, 55
1, 281742, Note_off_c, 0, 55, 53
1, 281753, Note_off_c, 0, 72, 67
1, 281807, Note_on_c, 0, 74, 70
1, 281813, Note_on_c, 0, 57, 65
1, 281813, Note_on_c, 0, 62, 64
1, 281818, Note_on_c, 0, 53, 55
1, 281837, Note_off_c, 0, 74, 62
1, 281843, Note_off_c, 0, 53, 62
1, 281844, Note_off_c, 0, 57, 65
1, 281844, Note_off_c, 0, 62, 66
1, 281896, Note_on_c, 0, 76, 69
1, 281906, Note_on_c, 0, 72, 55
1, 281926, Note_off_c, 0, 76, 67
1, 281935, Note_off_c, 0, 72, 65
1, 281990, Note_on_c, 0, 77, 68
1, 281992, Note_on_c, 0, 57, 61
1, 281997, Note_on_c, 0, 62, 44
1, 282003, Note_on_c, 0, 74, 53
1, 282016, Note_on_c, 0, 53, 15
1, 282021, Note_off_c, 0, 57, 66
1, 282024, Note_off_c, 0, 62, 60
1, 282025, Note_off_c, 0, 77, 61
1, 282025, Note_off_c, 0, 74, 59
1, 282058, Note_off_c, 0, 53, 39
1, 282096, Note_on_c, 0, 57, 67
1, 282097, Note_on_c, 0, 62, 65
1, 282105, Note_on_c, 0, 76, 30
1, 282106, Note_on_c, 0, 79, 28
1, 282120, Note_on_c, 0, 53, 33
1, 282128, Note_off_c, 0, 62, 65
1, 282132, Note_off_c, 0, 57, 67
1, 282135, Note_off_c, 0, 76, 35
1, 282138, Note_off_c, 0, 79, 33
1, 282155, Note_off_c, 0, 53, 46
1, 282185, Note_on_c, 0, 81, 62
1, 282186, Note_on_c, 0, 77, 58
1, 282207, Note_off_c, 0, 81, 65
1, 282215, Note_off_c, 0, 77, 64
1, 282271, Note_on_c, 0, 79, 78
1, 282279, Note_on_c, 0, 57, 57
1, 282282, Note_on_c, 0, 62, 45
1, 282282, Note_on_c, 0, 83, 61
1, 282294, Note_on_c, 0, 53, 22
1, 282302, Note_off_c, 0, 79, 62
1, 282308, Note_off_c, 0, 62, 59
1, 282309, Note_off_c, 0, 57, 66
1, 282309, Note_off_c, 0, 83, 66
1, 282336, Note_off_c, 0, 53, 40
1, 282362, Note_on_c, 0, 84, 81
1, 282366, Note_on_c, 0, 81, 74
1, 282379, Note_on_c, 0, 52, 66
1, 282381, Note_on_c, 0, 60, 63
1, 282383, Note_on_c, 0, 55, 62
1, 282384, Note_off_c, 0, 84, 68
1, 282389, Note_off_c, 0, 81, 71
1, 282404, Note_off_c, 0, 52, 67
1, 282411, Note_off_c, 0, 60, 67
1, 282415, Note_off_c, 0, 55, 64
1, 282458, Note_on_c, 0, 76, 79
1, 282470, Note_on_c, 0, 81, 66
1, 282472, Note_on_c, 0, 72, 68
1, 282474, Control_c, 0, 64, 47
1, 282487, Note_off_c, 0, 81, 67
1, 282489, Note_off_c, 0, 76, 70
1, 282500, Note_off_c, 0, 72, 67
1, 282564, Note_on_c, 0, 74, 69
1, 282564, Note_on_c, 0, 77, 73
1, 282564, Note_on_c, 0, 83, 73
1, 282567, Note_on_c, 0, 60, 52
1, 282567, Note_on_c, 0, 55, 57
1, 282576, Note_on_c, 0, 52, 33
1, 282591, Note_off_c, 0, 77, 68
1, 282591, Note_off_c, 0, 74, 68
1, 282591, Note_off_c, 0, 83, 65
1, 282597, Note_off_c, 0, 55, 66
1, 282598, Note_off_c, 0, 60, 66
1, 282610, Note_off_c, 0, 52, 46
1, 282658, Note_on_c, 0, 79, 78
1, 282658, Note_on_c, 0, 84, 76
1, 282663, Note_on_c, 0, 76, 69
1, 282665, Note_on_c, 0, 55, 68
1, 282667, Note_on_c, 0, 60, 67
1, 282682, Note_off_c, 0, 79, 71
1, 282690, Note_off_c, 0, 76, 67
1, 282691, Note_off_c, 0, 84, 60
1, 282694, Note_off_c, 0, 60, 68
1, 282695, Note_off_c, 0, 55, 66
1, 282734, Note_on_c, 0, 52, 3
1, 282735, Note_off_c, 0, 52, 127
1, 282753, Note_on_c, 0, 86, 73
1, 282756, Note_on_c, 0, 77, 69
1, 282760, Note_on_c, 0, 81, 65
1, 282785, Note_off_c, 0, 81, 65
1, 282786, Note_off_c, 0, 77, 66
1, 282786, Note_off_c, 0, 86, 62
1, 282853, Note_on_c, 0, 52, 51
1, 282860, Note_on_c, 0, 88, 53
1, 282860, Note_on_c, 0, 55, 57
1, 282860, Note_on_c, 0, 59, 56
1, 282872, Note_on_c, 0, 83, 43
1, 282873, Note_on_c, 0, 79, 36
1, 282880, Note_off_c, 0, 88, 59
1, 282884, Note_off_c, 0, 59, 62
1, 282886, Note_off_c, 0, 52, 62
1, 282889, Note_off_c, 0, 55, 63
1, 282898, Note_off_c, 0, 83, 50
1, 282900, Note_off_c, 0, 79, 49
1, 282919, Control_c, 0, 64, 47
1, 282949, Control_c, 0, 64, 48
1, 282955, Note_on_c, 0, 89, 68
1, 282961, Note_on_c, 0, 57, 56
1, 282961, Note_on_c, 0, 81, 51
1, 282964, Control_c, 0, 64, 48
1, 282967, Note_on_c, 0, 53, 53
1, 282967, Note_on_c, 0, 84, 43
1, 282971, Note_off_c, 0, 89, 65
1, 282979, Control_c, 0, 64, 49
1, 282982, Note_off_c, 0, 81, 61
1, 282984, Note_off_c, 0, 57, 61
1, 282990, Note_off_c, 0, 53, 59
1, 282991, Note_off_c, 0, 84, 37
1, 282993, Control_c, 0, 64, 50
1, 283008, Control_c, 0, 64, 52
1, 283023, Control_c, 0, 64, 53
1, 283038, Control_c, 0, 64, 54
1, 283046, Note_on_c, 0, 91, 67
1, 283053, Note_on_c, 0, 83, 48
1, 283053, Control_c, 0, 64, 55
1, 283054, Note_on_c, 0, 86, 57
1, 283067, Control_c, 0, 64, 55
1, 283071, Note_off_c, 0, 91, 58
1, 283073, Note_off_c, 0, 86, 62
1, 283074, Note_off_c, 0, 83, 59
1, 283082, Control_c, 0, 64, 56
1, 283152, Note_on_c, 0, 93, 72
1, 283153, Note_on_c, 0, 88, 67
1, 283164, Note_on_c, 0, 84, 47
1, 283170, Note_off_c, 0, 93, 63
1, 283174, Note_off_c, 0, 88, 65
1, 283185, Note_off_c, 0, 84, 53
1, 283244, Note_on_c, 0, 55, 40
1, 283246, Note_on_c, 0, 43, 51
1, 283259, Note_on_c, 0, 89, 73
1, 283265, Note_on_c, 0, 86, 56
1, 283265, Note_on_c, 0, 95, 66
1, 283274, Note_off_c, 0, 55, 52
1, 283280, Note_off_c, 0, 43, 64
1, 283285, Note_off_c, 0, 86, 62
1, 283285, Note_off_c, 0, 95, 59
1, 283286, Note_off_c, 0, 89, 67
1, 283354, Note_on_c, 0, 96, 81
1, 283359, Note_on_c, 0, 91, 70
1, 283366, Note_on_c, 0, 88, 52
1, 283384, Note_off_c, 0, 96, 61
1, 283386, Note_off_c, 0, 91, 68
1, 283387, Note_off_c, 0, 88, 62
1, 283462, Note_on_c, 0, 98, 70
1, 283465, Note_on_c, 0, 93, 65
1, 283477, Note_on_c, 0, 89, 46
1, 283477, Note_off_c, 0, 98, 67
1, 283484, Note_off_c, 0, 93, 65
1, 283500, Note_off_c, 0, 89, 57
1, 283566, Note_on_c, 0, 36, 51
1, 283575, Note_on_c, 0, 100, 73
1, 283581, Note_on_c, 0, 91, 52
1, 283584, Note_on_c, 0, 43, 33
1, 283588, Note_on_c, 0, 95, 55
1, 283602, Note_off_c, 0, 36, 63
1, 283609, Note_off_c, 0, 95, 61
1, 283610, Control_c, 0, 64, 56
1, 283611, Note_off_c, 0, 100, 60
1, 283615, Note_off_c, 0, 43, 50
1, 283615, Note_off_c, 0, 91, 49
1, 283705, Note_on_c, 0, 91, 68
1, 283786, Note_off_c, 0, 91, 63
1, 283799, Note_on_c, 0, 95, 71
1, 283816, Note_on_c, 0, 43, 42
1, 283827, Note_on_c, 0, 36, 35
1, 283847, Note_off_c, 0, 43, 55
1, 283869, Note_off_c, 0, 95, 63
1, 283891, Note_on_c, 0, 88, 69
1, 283891, Note_off_c, 0, 36, 0
1, 283900, Note_on_c, 0, 43, 63
1, 283905, Note_on_c, 0, 36, 40
1, 283918, Note_off_c, 0, 88, 69
1, 283921, Control_c, 0, 64, 56
1, 283931, Note_off_c, 0, 43, 64
1, 283941, Note_off_c, 0, 36, 48
1, 283972, Control_c, 0, 64, 55
1, 283990, Note_on_c, 0, 88, 73
1, 284031, Control_c, 0, 64, 55
1, 284064, Note_off_c, 0, 88, 64
1, 284071, Note_on_c, 0, 36, 51
1, 284073, Note_on_c, 0, 43, 59
1, 284082, Note_on_c, 0, 91, 77
1, 284103, Note_off_c, 0, 43, 63
1, 284105, Note_off_c, 0, 36, 62
1, 284138, Note_off_c, 0, 91, 61
1, 284170, Note_on_c, 0, 84, 74
1, 284174, Note_on_c, 0, 52, 82
1, 284179, Note_on_c, 0, 45, 68
1, 284180, Note_on_c, 0, 41, 66
1, 284197, Note_off_c, 0, 84, 67
1, 284201, Note_off_c, 0, 52, 69
1, 284208, Note_off_c, 0, 41, 63
1, 284208, Note_off_c, 0, 45, 65
1, 284253, Control_c, 0, 64, 54
1, 284272, Note_on_c, 0, 84, 71
1, 284282, Control_c, 0, 64, 54
1, 284348, Note_off_c, 0, 84, 62
1, 284369, Note_on_c, 0, 88, 71
1, 284383, Note_on_c, 0, 52, 58
1, 284397, Note_on_c, 0, 45, 25
1, 284398, Note_on_c, 0, 41, 38
1, 284412, Note_off_c, 0, 52, 66
1, 284413, Note_off_c, 0, 88, 60
1, 284435, Note_off_c, 0, 45, 40
1, 284436, Note_off_c, 0, 41, 52
1, 284457, Note_on_c, 0, 81, 71
1, 284471, Note_on_c, 0, 50, 78
1, 284477, Note_on_c, 0, 48, 63
1, 284481, Note_on_c, 0, 43, 53
1, 284490, Note_off_c, 0, 81, 65
1, 284497, Note_off_c, 0, 50, 66
1, 284505, Note_off_c, 0, 48, 63
1, 284511, Note_off_c, 0, 43, 57
1, 284520, Control_c, 0, 64, 53
1, 284553, Note_on_c, 0, 81, 70
1, 284634, Note_off_c, 0, 81, 63
1, 284650, Note_on_c, 0, 43, 57
1, 284650, Note_on_c, 0, 48, 56
1, 284652, Note_on_c, 0, 50, 51
1, 284657, Note_on_c, 0, 84, 68
1, 284678, Note_off_c, 0, 48, 62
1, 284684, Note_off_c, 0, 43, 64
1, 284684, Note_off_c, 0, 50, 64
1, 284758, Note_on_c, 0, 48, 70
1, 284759, Note_on_c, 0, 55, 75
1, 284761, Note_on_c, 0, 78, 73
1, 284764, Note_on_c, 0, 52, 69
1, 284770, Note_off_c, 0, 84, 57
1, 284790, Note_off_c, 0, 48, 66
1, 284790, Note_off_c, 0, 55, 66
1, 284791, Note_off_c, 0, 52, 67
1, 284843, Note_off_c, 0, 78, 62
1, 284853, Note_on_c, 0, 79, 70
1, 284928, Control_c, 0, 64, 53
1, 284945, Note_off_c, 0, 79, 64
1, 284950, Note_on_c, 0, 55, 56
1, 284951, Note_on_c, 0, 48, 47
1, 284952, Note_on_c, 0, 83, 69
1, 284954, Note_on_c, 0, 52, 42
1, 284958, Control_c, 0, 64, 52
1, 284978, Note_off_c, 0, 48, 59
1, 284981, Note_off_c, 0, 52, 60
1, 284984, Note_off_c, 0, 55, 64
1, 285002, Control_c, 0, 64, 52
1, 285015, Note_off_c, 0, 83, 59
1, 285045, Note_on_c, 0, 76, 70
1, 285050, Note_on_c, 0, 52, 68
1, 285061, Note_on_c, 0, 48, 52
1, 285061, Control_c, 0, 64, 51
1, 285062, Note_on_c, 0, 55, 59
1, 285076, Note_off_c, 0, 76, 66
1, 285083, Note_off_c, 0, 52, 65
1, 285086, Note_off_c, 0, 48, 58
1, 285095, Note_off_c, 0, 55, 65
1, 285152, Note_on_c, 0, 76, 64
1, 285214, Note_off_c, 0, 76, 58
1, 285217, Note_on_c, 0, 52, 51
1, 285222, Note_on_c, 0, 48, 35
1, 285226, Note_on_c, 0, 55, 41
1, 285239, Note_on_c, 0, 79, 67
1, 285242, Note_off_c, 0, 52, 60
1, 285253, Note_off_c, 0, 48, 46
1, 285255, Note_off_c, 0, 55, 53
1, 285291, Note_off_c, 0, 79, 61
1, 285324, Note_on_c, 0, 55, 72
1, 285325, Note_on_c, 0, 72, 71
1, 285328, Note_on_c, 0, 60, 76
1, 285329, Note_on_c, 0, 64, 76
1, 285329, Control_c, 0, 64, 51
1, 285349, Note_off_c, 0, 72, 69
1, 285350, Note_off_c, 0, 60, 69
1, 285352, Note_off_c, 0, 64, 69
1, 285355, Note_off_c, 0, 55, 65
1, 285402, Control_c, 0, 64, 50
1, 285417, Note_on_c, 0, 72, 74
1, 285489, Note_off_c, 0, 72, 55
1, 285516, Note_on_c, 0, 55, 58
1, 285516, Note_on_c, 0, 76, 70
1, 285518, Note_on_c, 0, 64, 49
1, 285521, Note_on_c, 0, 60, 49
1, 285538, Note_off_c, 0, 55, 60
1, 285543, Note_off_c, 0, 60, 60
1, 285543, Note_off_c, 0, 64, 63
1, 285566, Note_off_c, 0, 76, 61
1, 285605, Note_on_c, 0, 69, 71
1, 285611, Note_on_c, 0, 60, 73
1, 285618, Note_on_c, 0, 53, 68
1, 285620, Note_on_c, 0, 62, 62
1, 285635, Note_off_c, 0, 69, 67
1, 285637, Note_off_c, 0, 60, 67
1, 285647, Control_c, 0, 64, 50
1, 285651, Note_off_c, 0, 53, 65
1, 285651, Note_off_c, 0, 62, 66
1, 285691, Control_c, 0, 64, 49
1, 285706, Note_on_c, 0, 69, 62
1, 285736, Control_c, 0, 64, 49
1, 285780, Note_off_c, 0, 69, 46
1, 285785, Note_on_c, 0, 60, 47
1, 285791, Note_on_c, 0, 62, 39
1, 285793, Note_on_c, 0, 53, 42
1, 285799, Note_on_c, 0, 72, 64
1, 285814, Note_off_c, 0, 60, 64
1, 285820, Note_off_c, 0, 62, 57
1, 285824, Note_off_c, 0, 53, 52
1, 285828, Note_off_c, 0, 72, 66
1, 285893, Note_on_c, 0, 62, 67
1, 285897, Note_on_c, 0, 67, 68
1, 285908, Note_on_c, 0, 59, 47
1, 285924, Note_off_c, 0, 62, 66
1, 285925, Note_off_c, 0, 67, 67
1, 285932, Note_off_c, 0, 59, 59
1, 286006, Note_on_c, 0, 69, 58
1, 286035, Note_off_c, 0, 69, 65
1, 286093, Note_on_c, 0, 62, 57
1, 286097, Note_on_c, 0, 71, 68
1, 286109, Note_on_c, 0, 67, 38
1, 286110, Note_on_c, 0, 59, 22
1, 286126, Note_off_c, 0, 62, 65
1, 286132, Note_off_c, 0, 71, 60
1, 286138, Note_off_c, 0, 67, 46
1, 286139, Note_off_c, 0, 59, 44
1, 286194, Note_on_c, 0, 72, 65
1, 286198, Note_on_c, 0, 62, 62
1, 286230, Note_off_c, 0, 72, 65
1, 286234, Note_on_c, 0, 67, 37
1, 286235, Note_off_c, 0, 62, 66
1, 286263, Note_off_c, 0, 67, 35
1, 286288, Note_on_c, 0, 74, 71
1, 286320, Note_off_c, 0, 74, 60
1, 286360, Note_on_c, 0, 67, 57
1, 286368, Note_on_c, 0, 62, 55
1, 286380, Note_on_c, 0, 59, 45
1, 286386, Note_on_c, 0, 76, 64
1, 286392, Note_off_c, 0, 67, 65
1, 286399, Note_off_c, 0, 62, 65
1, 286406, Note_off_c, 0, 59, 55
1, 286416, Note_off_c, 0, 76, 67
1, 286475, Note_on_c, 0, 62, 65
1, 286476, Note_on_c, 0, 77, 75
1, 286477, Note_on_c, 0, 59, 65
1, 286484, Note_on_c, 0, 65, 62
1, 286484, Control_c, 0, 64, 48
1, 286501, Note_off_c, 0, 77, 69
1, 286508, Note_off_c, 0, 62, 65
1, 286508, Note_off_c, 0, 59, 65
1, 286514, Note_off_c, 0, 65, 65
1, 286579, Note_on_c, 0, 79, 73
1, 286582, Note_on_c, 0, 71, 62
1, 286601, Note_off_c, 0, 71, 63
1, 286605, Note_off_c, 0, 79, 68
1, 286670, Note_on_c, 0, 62, 60
1, 286679, Note_on_c, 0, 65, 48
1, 286679, Note_on_c, 0, 81, 76
1, 286682, Note_on_c, 0, 59, 42
1, 286684, Note_on_c, 0, 72, 60
1, 286701, Note_off_c, 0, 62, 65
1, 286702, Note_off_c, 0, 81, 70
1, 286702, Note_off_c, 0, 65, 57
1, 286706, Note_off_c, 0, 72, 65
1, 286711, Note_off_c, 0, 59, 51
1, 286770, Note_on_c, 0, 62, 69
1, 286772, Note_on_c, 0, 65, 66
1, 286773, Note_on_c, 0, 83, 81
1, 286782, Note_on_c, 0, 74, 64
1, 286785, Note_on_c, 0, 59, 52
1, 286796, Note_off_c, 0, 83, 66
1, 286801, Note_off_c, 0, 65, 66
1, 286803, Note_off_c, 0, 62, 64
1, 286804, Note_off_c, 0, 74, 63
1, 286808, Note_off_c, 0, 59, 60
1, 286869, Note_on_c, 0, 84, 85
1, 286871, Note_on_c, 0, 76, 74
1, 286897, Note_off_c, 0, 76, 69
1, 286900, Note_off_c, 0, 84, 59
1, 286943, Note_on_c, 0, 62, 63
1, 286946, Note_on_c, 0, 59, 48
1, 286949, Note_on_c, 0, 65, 56
1, 286975, Note_on_c, 0, 77, 74
1, 286975, Note_on_c, 0, 86, 84
1, 286981, Note_off_c, 0, 62, 65
1, 286986, Note_off_c, 0, 65, 63
1, 286990, Note_off_c, 0, 59, 65
1, 286996, Note_off_c, 0, 86, 67
1, 287000, Note_off_c, 0, 77, 64
1, 287052, Note_on_c, 0, 88, 94
1, 287059, Note_on_c, 0, 79, 82
1, 287060, Note_on_c, 0, 64, 79
1, 287080, Note_off_c, 0, 79, 72
1, 287083, Note_off_c, 0, 64, 70
1, 287084, Note_on_c, 0, 60, 52
1, 287095, Note_off_c, 0, 88, 63
1, 287108, Note_off_c, 0, 60, 56
1, 287161, Note_on_c, 0, 72, 82
1, 287162, Note_on_c, 0, 81, 72
1, 287175, Note_on_c, 0, 84, 48
1, 287182, Note_off_c, 0, 72, 71
1, 287191, Note_off_c, 0, 81, 66
1, 287195, Note_off_c, 0, 84, 58
1, 287234, Control_c, 0, 64, 49
1, 287255, Note_on_c, 0, 83, 79
1, 287261, Note_on_c, 0, 60, 58
1, 287265, Note_on_c, 0, 64, 65
1, 287265, Note_on_c, 0, 74, 69
1, 287266, Note_on_c, 0, 86, 67
1, 287279, Note_off_c, 0, 83, 67
1, 287280, Note_off_c, 0, 74, 66
1, 287283, Note_off_c, 0, 64, 65
1, 287292, Note_off_c, 0, 60, 66
1, 287292, Note_off_c, 0, 86, 65
1, 287352, Note_on_c, 0, 60, 73
1, 287354, Note_on_c, 0, 84, 70
1, 287354, Note_on_c, 0, 64, 64
1, 287356, Note_on_c, 0, 76, 65
1, 287356, Note_on_c, 0, 88, 76
1, 287373, Note_off_c, 0, 64, 64
1, 287373, Note_off_c, 0, 76, 65
1, 287377, Note_off_c, 0, 84, 69
1, 287378, Note_off_c, 0, 60, 68
1, 287381, Note_off_c, 0, 88, 69
1, 287455, Note_on_c, 0, 89, 72
1, 287456, Note_on_c, 0, 86, 69
1, 287460, Note_on_c, 0, 77, 58
1, 287471, Control_c, 0, 64, 49
1, 287479, Note_off_c, 0, 77, 60
1, 287483, Note_off_c, 0, 89, 67
1, 287485, Note_off_c, 0, 86, 67
1, 287517, Control_c, 0, 64, 50
1, 287551, Note_on_c, 0, 88, 72
1, 287554, Note_on_c, 0, 62, 50
1, 287554, Note_on_c, 0, 59, 50
1, 287555, Note_on_c, 0, 91, 71
1, 287563, Note_on_c, 0, 64, 43
1, 287571, Note_on_c, 0, 79, 43
1, 287577, Note_off_c, 0, 88, 69
1, 287578, Note_off_c, 0, 62, 60
1, 287584, Note_off_c, 0, 91, 67
1, 287587, Note_off_c, 0, 59, 65
1, 287593, Note_off_c, 0, 64, 52
1, 287593, Note_off_c, 0, 79, 40
1, 287635, Control_c, 0, 64, 50
1, 287637, Note_on_c, 0, 60, 63
1, 287649, Note_on_c, 0, 89, 66
1, 287650, Note_on_c, 0, 57, 58
1, 287654, Note_on_c, 0, 81, 59
1, 287655, Note_on_c, 0, 93, 66
1, 287665, Note_off_c, 0, 60, 66
1, 287671, Note_off_c, 0, 81, 65
1, 287671, Note_off_c, 0, 89, 56
1, 287673, Note_off_c, 0, 93, 65
1, 287677, Note_on_c, 0, 88, 30
1, 287678, Note_off_c, 0, 57, 64
1, 287694, Note_off_c, 0, 88, 38
1, 287717, Control_c, 0, 64, 51
1, 287751, Note_on_c, 0, 91, 77
1, 287758, Note_on_c, 0, 95, 72
1, 287765, Note_on_c, 0, 83, 54
1, 287776, Control_c, 0, 64, 51
1, 287785, Note_off_c, 0, 83, 60
1, 287785, Note_off_c, 0, 95, 67
1, 287788, Note_off_c, 0, 91, 65
1, 287805, Control_c, 0, 64, 52
1, 287835, Control_c, 0, 64, 52
1, 287863, Note_on_c, 0, 93, 69
1, 287865, Note_on_c, 0, 96, 69
1, 287867, Note_on_c, 0, 84, 64
1, 287879, Control_c, 0, 64, 53
1, 287882, Note_off_c, 0, 84, 67
1, 287890, Note_off_c, 0, 93, 70
1, 287891, Note_off_c, 0, 96, 66
1, 287924, Control_c, 0, 64, 53
1, 287951, Note_on_c, 0, 52, 53
1, 287959, Note_on_c, 0, 98, 86
1, 287963, Note_on_c, 0, 95, 74
1, 287966, Note_on_c, 0, 86, 63
1, 287984, Note_off_c, 0, 86, 65
1, 287987, Note_off_c, 0, 95, 68
1, 287998, Note_off_c, 0, 98, 64
1, 288002, Note_off_c, 0, 52, 62
1, 288012, Control_c, 0, 64, 54
1, 288027, Control_c, 0, 64, 54
1, 288042, Control_c, 0, 64, 55
1, 288046, Note_on_c, 0, 48, 51
1, 288056, Control_c, 0, 64, 55
1, 288064, Note_on_c, 0, 96, 67
1, 288066, Note_on_c, 0, 100, 69
1, 288071, Control_c, 0, 64, 56
1, 288077, Note_on_c, 0, 88, 50
1, 288082, Note_off_c, 0, 96, 63
1, 288086, Control_c, 0, 64, 56
1, 288091, Note_off_c, 0, 100, 55
1, 288100, Note_off_c, 0, 88, 56
1, 288112, Note_on_c, 0, 98, 13
1, 288113, Note_off_c, 0, 98, 127
1, 288130, Note_off_c, 0, 48, 59
1, 288163, Note_on_c, 0, 98, 59
1, 288169, Note_on_c, 0, 101, 84
1, 288171, Note_on_c, 0, 45, 56
1, 288200, Note_off_c, 0, 98, 66
1, 288203, Note_off_c, 0, 101, 61
1, 288207, Note_on_c, 0, 89, 11
1, 288222, Note_off_c, 0, 89, 39
1, 288234, Control_c, 0, 64, 56
1, 288249, Control_c, 0, 64, 55
1, 288264, Control_c, 0, 64, 54
1, 288275, Note_off_c, 0, 45, 36
1, 288279, Control_c, 0, 64, 53
1, 288292, Note_on_c, 0, 43, 48
1, 288294, Control_c, 0, 64, 51
1, 288309, Control_c, 0, 64, 50
1, 288324, Control_c, 0, 64, 51
1, 288325, Note_on_c, 0, 100, 73
1, 288327, Note_on_c, 0, 103, 67
1, 288338, Note_on_c, 0, 91, 53
1, 288339, Control_c, 0, 64, 56
1, 288344, Note_off_c, 0, 103, 66
1, 288350, Note_off_c, 0, 100, 68
1, 288353, Control_c, 0, 64, 61
1, 288361, Note_off_c, 0, 91, 60
1, 288368, Control_c, 0, 64, 64
1, 288383, Control_c, 0, 64, 68
1, 288398, Control_c, 0, 64, 73
1, 288413, Control_c, 0, 64, 78
1, 288428, Control_c, 0, 64, 81
1, 288465, Control_c, 0, 64, 80
1, 288480, Control_c, 0, 64, 79
1, 288508, Note_off_c, 0, 43, 54
1, 288509, Control_c, 0, 64, 79
1, 288524, Note_on_c, 0, 48, 53
1, 288538, Note_on_c, 0, 76, 51
1, 288539, Control_c, 0, 64, 78
1, 288544, Note_on_c, 0, 79, 45
1, 288550, Note_on_c, 0, 72, 40
1, 288559, Note_off_c, 0, 76, 60
1, 288568, Note_off_c, 0, 79, 57
1, 288568, Control_c, 0, 64, 78
1, 288577, Note_off_c, 0, 72, 55
1, 288583, Control_c, 0, 64, 77
1, 288598, Control_c, 0, 64, 77
1, 288613, Control_c, 0, 64, 76
1, 288613, Note_off_c, 0, 48, 47
1, 288628, Control_c, 0, 64, 75
1, 288634, Note_on_c, 0, 76, 66
1, 288637, Note_on_c, 0, 79, 69
1, 288642, Note_on_c, 0, 52, 55
1, 288642, Control_c, 0, 64, 75
1, 288657, Control_c, 0, 64, 74
1, 288660, Note_off_c, 0, 76, 64
1, 288666, Note_off_c, 0, 79, 67
1, 288672, Control_c, 0, 64, 74
1, 288687, Control_c, 0, 64, 73
1, 288695, Note_off_c, 0, 52, 64
1, 288702, Control_c, 0, 64, 71
1, 288717, Control_c, 0, 64, 68
1, 288722, Note_on_c, 0, 55, 68
1, 288732, Control_c, 0, 64, 66
1, 288743, Poly_aftertouch_c, 0, 72, 0
1, 288747, Control_c, 0, 64, 63
1, 288761, Control_c, 0, 64, 61
1, 288771, Note_off_c, 0, 55, 61
1, 288776, Control_c, 0, 64, 57
1, 288791, Control_c, 0, 64, 54
1, 288805, Control_c, 0, 64, 51
1, 288813, Note_on_c, 0, 60, 74
1, 288820, Control_c, 0, 64, 48
1, 288835, Control_c, 0, 64, 47
1, 288843, Note_on_c, 0, 76, 51
1, 288847, Note_on_c, 0, 72, 46
1, 288847, Note_on_c, 0, 79, 64
1, 288850, Control_c, 0, 64, 46
1, 288865, Control_c, 0, 64, 45
1, 288871, Note_off_c, 0, 76, 63
1, 288872, Note_off_c, 0, 72, 60
1, 288875, Note_off_c, 0, 79, 68
1, 288893, Note_off_c, 0, 60, 63
1, 288909, Control_c, 0, 64, 45
1, 288918, Note_on_c, 0, 64, 76
1, 288929, Note_on_c, 0, 79, 76
1, 288938, Note_on_c, 0, 76, 65
1, 288955, Note_off_c, 0, 79, 66
1, 288958, Note_off_c, 0, 76, 65
1, 288970, Note_off_c, 0, 64, 63
1, 288971, Note_on_c, 0, 72, 16
1, 289005, Note_on_c, 0, 67, 85
1, 289009, Note_off_c, 0, 72, 41
1, 289072, Control_c, 0, 64, 44
1, 289074, Note_off_c, 0, 67, 59
1, 289109, Note_on_c, 0, 72, 60
1, 289110, Note_on_c, 0, 66, 66
1, 289116, Note_on_c, 0, 81, 67
1, 289122, Note_on_c, 0, 76, 48
1, 289143, Note_off_c, 0, 72, 65
1, 289144, Note_off_c, 0, 76, 57
1, 289148, Note_off_c, 0, 81, 63
1, 289162, Control_c, 0, 64, 44
1, 289171, Note_off_c, 0, 66, 59
1, 289227, Note_on_c, 0, 65, 66
1, 289227, Note_on_c, 0, 76, 55
1, 289227, Note_on_c, 0, 81, 51
1, 289239, Note_on_c, 0, 72, 36
1, 289243, Control_c, 0, 64, 43
1, 289247, Note_off_c, 0, 76, 61
1, 289255, Note_off_c, 0, 81, 65
1, 289264, Note_off_c, 0, 65, 59
1, 289268, Note_off_c, 0, 72, 52
1, 289288, Control_c, 0, 64, 43
1, 289305, Note_on_c, 0, 64, 67
1, 289380, Note_off_c, 0, 64, 61
1, 289409, Note_on_c, 0, 83, 66
1, 289416, Note_on_c, 0, 76, 52
1, 289420, Note_on_c, 0, 62, 57
1, 289425, Note_on_c, 0, 72, 34
1, 289437, Note_off_c, 0, 76, 63
1, 289438, Note_off_c, 0, 83, 65
1, 289450, Control_c, 0, 64, 42
1, 289453, Note_off_c, 0, 72, 53
1, 289475, Note_off_c, 0, 62, 60
1, 289500, Note_on_c, 0, 60, 70
1, 289504, Note_on_c, 0, 83, 65
1, 289520, Note_off_c, 0, 83, 66
1, 289529, Note_on_c, 0, 76, 37
1, 289546, Note_off_c, 0, 60, 62
1, 289559, Note_off_c, 0, 76, 36
1, 289584, Control_c, 0, 64, 42
1, 289597, Note_on_c, 0, 71, 89
1, 289655, Note_off_c, 0, 71, 59
1, 289694, Note_on_c, 0, 76, 52
1, 289696, Note_on_c, 0, 69, 73
1, 289700, Note_on_c, 0, 72, 64
1, 289700, Note_on_c, 0, 84, 71
1, 289733, Note_off_c, 0, 72, 64
1, 289736, Note_off_c, 0, 84, 58
1, 289736, Note_off_c, 0, 76, 65
1, 289746, Control_c, 0, 64, 41
1, 289784, Note_off_c, 0, 69, 63
1, 289797, Note_on_c, 0, 68, 69
1, 289813, Note_on_c, 0, 72, 55
1, 289819, Note_on_c, 0, 76, 57
1, 289819, Note_on_c, 0, 84, 54
1, 289836, Note_off_c, 0, 72, 57
1, 289838, Note_off_c, 0, 76, 63
1, 289841, Note_off_c, 0, 84, 58
1, 289855, Note_off_c, 0, 68, 60
1, 289890, Note_on_c, 0, 67, 66
1, 289946, Note_off_c, 0, 67, 58
1, 289992, Note_on_c, 0, 76, 57
1, 289996, Note_on_c, 0, 65, 65
1, 290002, Note_on_c, 0, 72, 53
1, 290007, Note_on_c, 0, 84, 55
1, 290022, Control_c, 0, 64, 41
1, 290025, Note_off_c, 0, 72, 60
1, 290027, Note_off_c, 0, 76, 64
1, 290029, Note_off_c, 0, 84, 58
1, 290073, Note_off_c, 0, 65, 60
1, 290092, Note_on_c, 0, 64, 77
1, 290095, Note_on_c, 0, 76, 61
1, 290100, Note_on_c, 0, 84, 65
1, 290109, Note_on_c, 0, 72, 43
1, 290114, Note_off_c, 0, 76, 63
1, 290117, Note_off_c, 0, 84, 65
1, 290121, Note_off_c, 0, 64, 66
1, 290136, Note_off_c, 0, 72, 36
1, 290185, Note_on_c, 0, 77, 89
1, 290252, Note_off_c, 0, 77, 60
1, 290280, Note_on_c, 0, 79, 78
1, 290283, Note_on_c, 0, 76, 73
1, 290294, Note_on_c, 0, 84, 65
1, 290308, Note_off_c, 0, 79, 65
1, 290314, Note_off_c, 0, 84, 64
1, 290373, Note_off_c, 0, 76, 64
1, 290375, Note_on_c, 0, 74, 75
1, 290383, Note_on_c, 0, 77, 66
1, 290383, Note_on_c, 0, 84, 67
1, 290403, Note_on_c, 0, 79, 46
1, 290409, Note_off_c, 0, 77, 63
1, 290410, Note_off_c, 0, 84, 62
1, 290422, Control_c, 0, 64, 40
1, 290428, Note_off_c, 0, 79, 38
1, 290455, Note_off_c, 0, 74, 60
1, 290476, Note_on_c, 0, 72, 75
1, 290541, Note_off_c, 0, 72, 61
1, 290564, Note_on_c, 0, 79, 67
1, 290568, Note_on_c, 0, 76, 70
1, 290571, Note_on_c, 0, 71, 77
1, 290574, Note_on_c, 0, 84, 67
1, 290596, Note_off_c, 0, 79, 67
1, 290599, Note_off_c, 0, 76, 65
1, 290600, Note_off_c, 0, 84, 68
1, 290628, Note_off_c, 0, 71, 52
1, 290629, Control_c, 0, 64, 39
1, 290644, Control_c, 0, 64, 38
1, 290658, Note_on_c, 0, 72, 81
1, 290658, Control_c, 0, 64, 34
1, 290664, Note_on_c, 0, 79, 66
1, 290664, Note_on_c, 0, 84, 74
1, 290667, Note_on_c, 0, 76, 64
1, 290673, Control_c, 0, 64, 31
1, 290681, Note_off_c, 0, 79, 66
1, 290684, Note_off_c, 0, 76, 64
1, 290688, Control_c, 0, 64, 26
1, 290689, Note_off_c, 0, 84, 69
1, 290711, Control_c, 0, 64, 22
1, 290717, Note_off_c, 0, 72, 63
1, 290726, Control_c, 0, 64, 20
1, 290756, Control_c, 0, 64, 26
1, 290756, Note_on_c, 0, 76, 89
1, 290757, Note_on_c, 0, 89, 101
1, 290762, Note_on_c, 0, 81, 90
1, 290771, Control_c, 0, 64, 40
1, 290786, Control_c, 0, 64, 51
1, 290789, Note_off_c, 0, 81, 67
1, 290801, Control_c, 0, 64, 57
1, 290810, Note_off_c, 0, 89, 64
1, 290816, Control_c, 0, 64, 61
1, 290820, Note_off_c, 0, 76, 61
1, 290830, Control_c, 0, 64, 64
1, 290845, Control_c, 0, 64, 67
1, 290857, Note_on_c, 0, 74, 76
1, 290860, Control_c, 0, 64, 70
1, 290863, Note_on_c, 0, 77, 71
1, 290875, Control_c, 0, 64, 73
1, 290890, Control_c, 0, 64, 74
1, 290898, Note_off_c, 0, 77, 63
1, 290920, Control_c, 0, 64, 73
1, 290935, Control_c, 0, 64, 71
1, 290944, Note_off_c, 0, 74, 61
1, 290950, Control_c, 0, 64, 69
1, 290951, Note_on_c, 0, 72, 76
1, 290954, Note_on_c, 0, 81, 80
1, 290957, Note_on_c, 0, 77, 70
1, 290964, Control_c, 0, 64, 67
1, 290979, Control_c, 0, 64, 64
1, 290994, Control_c, 0, 64, 62
1, 290996, Note_off_c, 0, 72, 62
1, 291006, Note_off_c, 0, 77, 54
1, 291008, Control_c, 0, 64, 60
1, 291023, Control_c, 0, 64, 57
1, 291030, Note_off_c, 0, 81, 65
1, 291038, Control_c, 0, 64, 55
1, 291046, Note_on_c, 0, 71, 71
1, 291053, Control_c, 0, 64, 54
1, 291055, Note_on_c, 0, 74, 69
1, 291068, Control_c, 0, 64, 53
1, 291082, Note_off_c, 0, 74, 66
1, 291082, Control_c, 0, 64, 52
1, 291097, Control_c, 0, 64, 51
1, 291112, Control_c, 0, 64, 50
1, 291115, Note_off_c, 0, 71, 61
1, 291127, Control_c, 0, 64, 50
1, 291139, Note_on_c, 0, 69, 72
1, 291142, Control_c, 0, 64, 49
1, 291151, Note_on_c, 0, 77, 57
1, 291171, Control_c, 0, 64, 49
1, 291175, Note_on_c, 0, 74, 27
1, 291186, Control_c, 0, 64, 48
1, 291213, Note_off_c, 0, 77, 64
1, 291214, Note_off_c, 0, 74, 40
1, 291218, Note_off_c, 0, 69, 63
1, 291230, Control_c, 0, 64, 48
1, 291236, Note_on_c, 0, 71, 73
1, 291241, Note_on_c, 0, 67, 66
1, 291260, Control_c, 0, 64, 47
1, 291290, Control_c, 0, 64, 47
1, 291303, Note_off_c, 0, 71, 48
1, 291313, Note_off_c, 0, 67, 62
1, 291319, Control_c, 0, 64, 46
1, 291338, Note_on_c, 0, 65, 68
1, 291364, Control_c, 0, 64, 46
1, 291388, Note_off_c, 0, 65, 59
1, 291410, Note_on_c, 0, 71, 65
1, 291415, Note_on_c, 0, 69, 54
1, 291423, Control_c, 0, 64, 45
1, 291430, Note_on_c, 0, 67, 68
1, 291438, Note_off_c, 0, 69, 62
1, 291440, Note_off_c, 0, 71, 67
1, 291475, Control_c, 0, 64, 45
1, 291491, Note_off_c, 0, 67, 53
1, 291516, Note_on_c, 0, 69, 70
1, 291520, Control_c, 0, 64, 44
1, 291521, Note_on_c, 0, 65, 67
1, 291541, Note_on_c, 0, 71, 54
1, 291545, Note_off_c, 0, 69, 67
1, 291549, Control_c, 0, 64, 44
1, 291558, Note_off_c, 0, 71, 62
1, 291564, Control_c, 0, 64, 43
1, 291599, Note_off_c, 0, 65, 62
1, 291608, Control_c, 0, 64, 43
1, 291618, Note_on_c, 0, 64, 68
1, 291698, Note_off_c, 0, 64, 62
1, 291702, Note_on_c, 0, 69, 56
1, 291709, Note_on_c, 0, 67, 52
1, 291709, Note_on_c, 0, 72, 41
1, 291720, Note_on_c, 0, 65, 68
1, 291731, Note_off_c, 0, 69, 64
1, 291737, Note_off_c, 0, 72, 57
1, 291745, Note_off_c, 0, 67, 63
1, 291796, Note_off_c, 0, 65, 60
1, 291808, Note_on_c, 0, 72, 69
1, 291810, Note_on_c, 0, 69, 58
1, 291811, Note_on_c, 0, 64, 70
1, 291830, Note_on_c, 0, 67, 47
1, 291840, Note_off_c, 0, 72, 61
1, 291841, Note_off_c, 0, 69, 66
1, 291855, Note_off_c, 0, 64, 60
1, 291855, Note_off_c, 0, 67, 58
1, 291898, Note_on_c, 0, 62, 75
1, 291918, Control_c, 0, 64, 42
1, 291953, Note_off_c, 0, 62, 53
1, 291989, Note_on_c, 0, 64, 68
1, 291991, Note_on_c, 0, 69, 64
1, 291994, Note_on_c, 0, 74, 63
1, 292005, Note_on_c, 0, 65, 47
1, 292022, Note_off_c, 0, 69, 66
1, 292029, Note_off_c, 0, 64, 64
1, 292029, Note_off_c, 0, 65, 59
1, 292029, Note_off_c, 0, 74, 58
1, 292071, Note_on_c, 0, 62, 79
1, 292092, Note_on_c, 0, 69, 67
1, 292095, Note_off_c, 0, 62, 70
1, 292106, Note_on_c, 0, 65, 60
1, 292109, Note_off_c, 0, 69, 67
1, 292111, Control_c, 0, 64, 42
1, 292126, Control_c, 0, 64, 36
1, 292137, Note_off_c, 0, 65, 64
1, 292141, Control_c, 0, 64, 0
1, 292206, Note_on_c, 0, 60, 85
1, 292208, Control_c, 0, 64, 38
1, 292208, Note_on_c, 0, 47, 59
1, 292211, Note_on_c, 0, 45, 54
1, 292214, Note_on_c, 0, 41, 51
1, 292223, Control_c, 0, 64, 59
1, 292237, Control_c, 0, 64, 65
1, 292242, Note_off_c, 0, 45, 64
1, 292249, Note_off_c, 0, 41, 65
1, 292249, Note_off_c, 0, 60, 59
1, 292250, Note_off_c, 0, 47, 59
1, 292252, Control_c, 0, 64, 69
1, 292267, Control_c, 0, 64, 74
1, 292282, Control_c, 0, 64, 78
1, 292293, Note_on_c, 0, 59, 77
1, 292297, Control_c, 0, 64, 82
1, 292312, Control_c, 0, 64, 83
1, 292348, Note_off_c, 0, 59, 62
1, 292361, Note_on_c, 0, 45, 44
1, 292365, Note_on_c, 0, 48, 67
1, 292366, Note_on_c, 0, 41, 51
1, 292384, Note_on_c, 0, 57, 79
1, 292395, Note_off_c, 0, 45, 64
1, 292397, Note_off_c, 0, 48, 64
1, 292401, Control_c, 0, 64, 81
1, 292401, Note_off_c, 0, 41, 64
1, 292416, Control_c, 0, 64, 76
1, 292431, Control_c, 0, 64, 66
1, 292437, Note_off_c, 0, 57, 62
1, 292446, Control_c, 0, 64, 53
1, 292460, Control_c, 0, 64, 38
1, 292475, Control_c, 0, 64, 35
1, 292483, Note_on_c, 0, 41, 69
1, 292486, Note_on_c, 0, 45, 65
1, 292492, Note_on_c, 0, 50, 67
1, 292494, Note_on_c, 0, 55, 74
1, 292505, Control_c, 0, 64, 43
1, 292512, Note_off_c, 0, 45, 65
1, 292514, Note_off_c, 0, 41, 65
1, 292518, Note_off_c, 0, 50, 64
1, 292519, Control_c, 0, 64, 57
1, 292534, Control_c, 0, 64, 64
1, 292542, Note_off_c, 0, 55, 57
1, 292549, Control_c, 0, 64, 68
1, 292564, Control_c, 0, 64, 71
1, 292578, Control_c, 0, 64, 74
1, 292593, Control_c, 0, 64, 76
1, 292608, Control_c, 0, 64, 77
1, 292616, Note_on_c, 0, 47, 66
1, 292692, Note_off_c, 0, 47, 60
1, 292697, Control_c, 0, 64, 76
1, 292704, Note_on_c, 0, 50, 68
1, 292742, Note_off_c, 0, 50, 65
1, 292756, Control_c, 0, 64, 76
1, 292806, Note_on_c, 0, 43, 74
1, 292816, Control_c, 0, 64, 75
1, 292831, Control_c, 0, 64, 74
1, 292845, Control_c, 0, 64, 72
1, 292860, Control_c, 0, 64, 70
1, 292875, Control_c, 0, 64, 66
1, 292881, Note_off_c, 0, 43, 49
1, 292890, Control_c, 0, 64, 62
1, 292905, Control_c, 0, 64, 58
1, 292906, Note_on_c, 0, 47, 73
1, 292919, Control_c, 0, 64, 57
1, 292934, Control_c, 0, 64, 56
1, 292956, Control_c, 0, 64, 54
1, 292971, Control_c, 0, 64, 52
1, 292986, Control_c, 0, 64, 50
1, 292988, Note_off_c, 0, 47, 53
1, 293001, Control_c, 0, 64, 44
1, 293015, Control_c, 0, 64, 28
1, 293023, Note_on_c, 0, 58, 64
1, 293023, Note_on_c, 0, 62, 66
1, 293024, Note_on_c, 0, 40, 76
1, 293025, Note_on_c, 0, 53, 67
1, 293030, Control_c, 0, 64, 0
1, 293051, Note_off_c, 0, 58, 66
1, 293051, Note_off_c, 0, 62, 66
1, 293053, Note_off_c, 0, 53, 66
1, 293099, Note_on_c, 0, 62, 89
1, 293103, Note_on_c, 0, 58, 84
1, 293105, Control_c, 0, 64, 16
1, 293108, Note_on_c, 0, 53, 78
1, 293111, Note_off_c, 0, 40, 58
1, 293115, Note_on_c, 0, 41, 78
1, 293120, Control_c, 0, 64, 55
1, 293129, Note_off_c, 0, 58, 67
1, 293135, Control_c, 0, 64, 64
1, 293136, Note_off_c, 0, 53, 69
1, 293141, Note_off_c, 0, 62, 57
1, 293150, Control_c, 0, 64, 69
1, 293165, Control_c, 0, 64, 76
1, 293179, Control_c, 0, 64, 88
1, 293194, Control_c, 0, 64, 102
1, 293208, Note_off_c, 0, 41, 63
1, 293209, Control_c, 0, 64, 117
1, 293220, Note_on_c, 0, 46, 67
1, 293224, Control_c, 0, 64, 123
1, 293254, Control_c, 0, 64, 127
1, 293285, Note_off_c, 0, 46, 63
1, 293297, Note_on_c, 0, 50, 69
1, 293331, Note_off_c, 0, 50, 65
1, 293395, Note_on_c, 0, 74, 81
1, 293397, Note_on_c, 0, 65, 77
1, 293398, Note_on_c, 0, 70, 76
1, 293402, Note_on_c, 0, 53, 76
1, 293449, Note_off_c, 0, 65, 59
1, 293457, Note_off_c, 0, 70, 59
1, 293480, Note_off_c, 0, 53, 60
1, 293491, Note_on_c, 0, 58, 78
1, 293561, Note_off_c, 0, 58, 62
1, 293572, Note_on_c, 0, 67, 86
1, 293582, Note_on_c, 0, 62, 79
1, 293624, Control_c, 0, 64, 102
1, 293634, Note_off_c, 0, 62, 64
1, 293638, Control_c, 0, 64, 80
1, 293653, Control_c, 0, 64, 60
1, 293668, Control_c, 0, 64, 11
1, 293683, Control_c, 0, 64, 0
1, 293700, Note_on_c, 0, 65, 82
1, 293704, Note_on_c, 0, 69, 97
1, 293705, Control_c, 0, 64, 16
1, 293713, Note_off_c, 0, 67, 39
1, 293719, Note_off_c, 0, 74, 64
1, 293720, Control_c, 0, 64, 48
1, 293735, Control_c, 0, 64, 61
1, 293749, Note_off_c, 0, 69, 68
1, 293750, Control_c, 0, 64, 69
1, 293758, Note_off_c, 0, 65, 62
1, 293764, Control_c, 0, 64, 76
1, 293779, Control_c, 0, 64, 86
1, 293794, Control_c, 0, 64, 95
1, 293808, Control_c, 0, 64, 99
1, 293812, Note_on_c, 0, 67, 85
1, 293874, Note_off_c, 0, 67, 54
1, 293907, Note_on_c, 0, 65, 79
1, 293943, Control_c, 0, 64, 98
1, 293958, Control_c, 0, 64, 94
1, 293972, Control_c, 0, 64, 82
1, 293982, Note_off_c, 0, 65, 60
1, 293987, Control_c, 0, 64, 68
1, 294002, Control_c, 0, 64, 54
1, 294010, Note_on_c, 0, 63, 75
1, 294011, Note_on_c, 0, 70, 80
1, 294011, Note_on_c, 0, 75, 91
1, 294012, Note_on_c, 0, 67, 84
1, 294017, Control_c, 0, 64, 49
1, 294032, Control_c, 0, 64, 56
1, 294047, Control_c, 0, 64, 61
1, 294062, Control_c, 0, 64, 64
1, 294062, Note_off_c, 0, 63, 62
1, 294077, Control_c, 0, 64, 68
1, 294092, Control_c, 0, 64, 72
1, 294106, Control_c, 0, 64, 77
1, 294109, Note_off_c, 0, 75, 55
1, 294117, Note_on_c, 0, 65, 67
1, 294121, Control_c, 0, 64, 78
1, 294124, Note_off_c, 0, 70, 57
1, 294136, Control_c, 0, 64, 79
1, 294151, Control_c, 0, 64, 78
1, 294166, Control_c, 0, 64, 79
1, 294193, Note_off_c, 0, 65, 59
1, 294195, Note_off_c, 0, 67, 53
1, 294195, Control_c, 0, 64, 79
1, 294210, Control_c, 0, 64, 80
1, 294214, Note_on_c, 0, 63, 71
1, 294224, Control_c, 0, 64, 81
1, 294239, Control_c, 0, 64, 82
1, 294241, Note_on_c, 0, 72, 83
1, 294246, Note_off_c, 0, 63, 67
1, 294254, Control_c, 0, 64, 81
1, 294269, Control_c, 0, 64, 74
1, 294272, Note_off_c, 0, 72, 66
1, 294284, Control_c, 0, 64, 63
1, 294298, Control_c, 0, 64, 38
1, 294313, Control_c, 0, 64, 39
1, 294321, Note_on_c, 0, 77, 97
1, 294322, Note_on_c, 0, 62, 82
1, 294326, Note_on_c, 0, 65, 82
1, 294328, Control_c, 0, 64, 50
1, 294329, Note_on_c, 0, 70, 84
1, 294343, Control_c, 0, 64, 58
1, 294358, Control_c, 0, 64, 64
1, 294372, Control_c, 0, 64, 68
1, 294381, Note_off_c, 0, 62, 59
1, 294387, Control_c, 0, 64, 75
1, 294402, Control_c, 0, 64, 79
1, 294407, Note_off_c, 0, 77, 54
1, 294416, Control_c, 0, 64, 81
1, 294429, Note_on_c, 0, 60, 72
1, 294447, Note_on_c, 0, 75, 79
1, 294481, Note_off_c, 0, 70, 60
1, 294503, Note_off_c, 0, 60, 63
1, 294507, Note_off_c, 0, 65, 51
1, 294509, Note_off_c, 0, 75, 60
1, 294543, Note_on_c, 0, 58, 74
1, 294557, Control_c, 0, 64, 80
1, 294562, Note_on_c, 0, 74, 78
1, 294589, Note_off_c, 0, 74, 65
1, 294592, Note_off_c, 0, 58, 60
1, 294628, Poly_aftertouch_c, 0, 65, 0
1, 294658, Note_on_c, 0, 58, 69
1, 294662, Note_on_c, 0, 74, 77
1, 294704, Note_off_c, 0, 74, 56
1, 294707, Control_c, 0, 64, 80
1, 294718, Note_off_c, 0, 58, 61
1, 294755, Note_on_c, 0, 57, 68
1, 294756, Note_on_c, 0, 72, 65
1, 294781, Control_c, 0, 64, 80
1, 294810, Note_off_c, 0, 72, 64
1, 294810, Control_c, 0, 64, 81
1, 294821, Note_off_c, 0, 57, 62
1, 294841, Note_on_c, 0, 70, 79
1, 294852, Note_on_c, 0, 55, 74
1, 294874, Note_off_c, 0, 70, 63
1, 294883, Note_off_c, 0, 55, 66
1, 294884, Control_c, 0, 64, 77
1, 294899, Control_c, 0, 64, 67
1, 294914, Control_c, 0, 64, 52
1, 294929, Control_c, 0, 64, 32
1, 294939, Note_on_c, 0, 77, 93
1, 294940, Note_on_c, 0, 75, 90
1, 294941, Note_on_c, 0, 65, 75
1, 294944, Note_on_c, 0, 67, 84
1, 294944, Control_c, 0, 64, 43
1, 294944, Note_on_c, 0, 60, 89
1, 294959, Control_c, 0, 64, 55
1, 294974, Control_c, 0, 64, 63
1, 294977, Note_off_c, 0, 65, 61
1, 294980, Note_off_c, 0, 67, 54
1, 294989, Control_c, 0, 64, 68
1, 294993, Note_off_c, 0, 60, 64
1, 295003, Control_c, 0, 64, 76
1, 295018, Control_c, 0, 64, 86
1, 295033, Control_c, 0, 64, 94
1, 295042, Note_off_c, 0, 75, 60
1, 295049, Note_on_c, 0, 58, 78
1, 295051, Note_on_c, 0, 74, 90
1, 295062, Control_c, 0, 64, 90
1, 295066, Note_off_c, 0, 77, 56
1, 295077, Control_c, 0, 64, 89
1, 295107, Note_off_c, 0, 74, 64
1, 295121, Control_c, 0, 64, 89
1, 295123, Note_off_c, 0, 58, 62
1, 295136, Control_c, 0, 64, 91
1, 295151, Control_c, 0, 64, 92
1, 295152, Note_on_c, 0, 72, 92
1, 295154, Note_on_c, 0, 57, 77
1, 295166, Control_c, 0, 64, 94
1, 295181, Control_c, 0, 64, 94
1, 295203, Control_c, 0, 64, 92
1, 295213, Note_off_c, 0, 72, 63
1, 295218, Control_c, 0, 64, 81
1, 295219, Note_off_c, 0, 57, 64
1, 295233, Control_c, 0, 64, 63
1, 295247, Control_c, 0, 64, 45
1, 295252, Note_on_c, 0, 77, 98
1, 295260, Note_on_c, 0, 62, 87
1, 295262, Control_c, 0, 64, 51
1, 295277, Control_c, 0, 64, 59
1, 295292, Control_c, 0, 64, 64
1, 295307, Control_c, 0, 64, 69
1, 295315, Note_off_c, 0, 62, 62
1, 295321, Control_c, 0, 64, 78
1, 295336, Control_c, 0, 64, 85
1, 295351, Control_c, 0, 64, 88
1, 295361, Note_on_c, 0, 75, 83
1, 295365, Control_c, 0, 64, 87
1, 295367, Note_off_c, 0, 77, 58
1, 295368, Note_on_c, 0, 60, 64
1, 295380, Control_c, 0, 64, 86
1, 295410, Control_c, 0, 64, 87
1, 295418, Note_off_c, 0, 75, 57
1, 295425, Control_c, 0, 64, 87
1, 295439, Note_on_c, 0, 58, 85
1, 295440, Note_off_c, 0, 60, 64
1, 295440, Control_c, 0, 64, 88
1, 295450, Note_on_c, 0, 74, 82
1, 295455, Control_c, 0, 64, 89
1, 295469, Note_off_c, 0, 58, 64
1, 295470, Control_c, 0, 64, 89
1, 295485, Control_c, 0, 64, 90
1, 295486, Note_off_c, 0, 74, 63
1, 295501, Control_c, 0, 64, 91
1, 295516, Control_c, 0, 64, 94
1, 295531, Control_c, 0, 64, 99
1, 295545, Control_c, 0, 64, 107
1, 295560, Control_c, 0, 64, 121
1, 295567, Note_on_c, 0, 80, 43
1, 295575, Control_c, 0, 64, 127
1, 295590, Control_c, 0, 64, 100
1, 295594, Note_off_c, 0, 80, 39
1, 295601, Poly_aftertouch_c, 0, 76, 0
1, 295605, Control_c, 0, 64, 67
1, 295609, Note_on_c, 0, 70, 67
1, 295613, Note_on_c, 0, 80, 77
1, 295615, Note_on_c, 0, 76, 24
1, 295619, Control_c, 0, 64, 0
1, 295624, Poly_aftertouch_c, 0, 68, 127
1, 295627, Note_on_c, 0, 40, 87
1, 295642, Note_on_c, 0, 71, 65
1, 295648, Note_on_c, 0, 67, 39
1, 295660, Note_off_c, 0, 70, 64
1, 295662, Note_off_c, 0, 80, 67
1, 295664, Control_c, 0, 64, 33
1, 295677, Note_off_c, 0, 67, 39
1, 295677, Note_off_c, 0, 71, 55
1, 295678, Control_c, 0, 64, 60
1, 295693, Control_c, 0, 64, 72
1, 295701, Note_off_c, 0, 76, 64
1, 295708, Control_c, 0, 64, 86
1, 295716, Poly_aftertouch_c, 0, 68, 0
1, 295723, Control_c, 0, 64, 107
1, 295738, Control_c, 0, 64, 127
1, 295752, Control_c, 0, 64, 123
1, 295767, Control_c, 0, 64, 116
1, 295797, Control_c, 0, 64, 127
1, 295856, Note_on_c, 0, 47, 72
1, 295863, Note_off_c, 0, 40, 34
1, 295913, Note_off_c, 0, 47, 62
1, 295937, Note_on_c, 0, 52, 69
1, 296018, Note_off_c, 0, 52, 56
1, 296040, Note_on_c, 0, 56, 81
1, 296101, Note_off_c, 0, 56, 63
1, 296137, Note_on_c, 0, 59, 90
1, 296175, Note_off_c, 0, 59, 62
1, 296204, Control_c, 0, 64, 113
1, 296219, Control_c, 0, 64, 76
1, 296234, Control_c, 0, 64, 57
1, 296235, Note_on_c, 0, 66, 89
1, 296235, Note_on_c, 0, 69, 91
1, 296236, Note_on_c, 0, 62, 90
1, 296249, Control_c, 0, 64, 34
1, 296264, Control_c, 0, 64, 48
1, 296275, Note_off_c, 0, 62, 62
1, 296278, Control_c, 0, 64, 58
1, 296294, Note_off_c, 0, 66, 64
1, 296294, Control_c, 0, 64, 65
1, 296294, Note_off_c, 0, 69, 63
1, 296309, Control_c, 0, 64, 72
1, 296324, Control_c, 0, 64, 83
1, 296336, Note_on_c, 0, 61, 79
1, 296339, Control_c, 0, 64, 95
1, 296354, Control_c, 0, 64, 102
1, 296383, Control_c, 0, 64, 101
1, 296390, Note_off_c, 0, 61, 62
1, 296413, Control_c, 0, 64, 102
1, 296428, Control_c, 0, 64, 104
1, 296432, Note_on_c, 0, 59, 67
1, 296442, Control_c, 0, 64, 109
1, 296457, Control_c, 0, 64, 127
1, 296491, Note_off_c, 0, 59, 61
1, 296501, Control_c, 0, 64, 97
1, 296516, Control_c, 0, 64, 71
1, 296527, Note_on_c, 0, 61, 90
1, 296528, Note_on_c, 0, 57, 76
1, 296530, Note_on_c, 0, 71, 88
1, 296531, Control_c, 0, 64, 49
1, 296534, Note_on_c, 0, 67, 77
1, 296536, Note_on_c, 0, 65, 79
1, 296546, Control_c, 0, 64, 51
1, 296561, Control_c, 0, 64, 60
1, 296575, Control_c, 0, 64, 65
1, 296576, Note_off_c, 0, 65, 55
1, 296587, Note_off_c, 0, 67, 61
1, 296590, Note_off_c, 0, 61, 58
1, 296590, Control_c, 0, 64, 71
1, 296600, Note_off_c, 0, 71, 57
1, 296605, Control_c, 0, 64, 81
1, 296613, Note_off_c, 0, 57, 62
1, 296619, Control_c, 0, 64, 96
1, 296631, Note_on_c, 0, 55, 74
1, 296634, Control_c, 0, 64, 101
1, 296664, Control_c, 0, 64, 100
1, 296679, Control_c, 0, 64, 101
1, 296701, Control_c, 0, 64, 102
1, 296716, Control_c, 0, 64, 106
1, 296722, Note_off_c, 0, 55, 60
1, 296731, Control_c, 0, 64, 123
1, 296745, Note_on_c, 0, 53, 74
1, 296746, Control_c, 0, 64, 127
1, 296770, Note_on_c, 0, 64, 74
1, 296771, Note_on_c, 0, 68, 75
1, 296774, Note_on_c, 0, 60, 69
1, 296779, Note_on_c, 0, 72, 69
1, 296790, Control_c, 0, 64, 95
1, 296792, Note_off_c, 0, 53, 62
1, 296794, Note_off_c, 0, 64, 69
1, 296796, Note_off_c, 0, 72, 67
1, 296798, Note_off_c, 0, 68, 66
1, 296802, Note_off_c, 0, 60, 67
1, 296805, Control_c, 0, 64, 67
1, 296819, Control_c, 0, 64, 43
1, 296832, Note_on_c, 0, 52, 84
1, 296834, Control_c, 0, 64, 55
1, 296843, Note_on_c, 0, 68, 79
1, 296845, Note_on_c, 0, 72, 96
1, 296846, Note_on_c, 0, 60, 96
1, 296849, Note_on_c, 0, 64, 89
1, 296849, Control_c, 0, 64, 63
1, 296864, Control_c, 0, 64, 70
1, 296877, Note_off_c, 0, 72, 54
1, 296879, Control_c, 0, 64, 84
1, 296885, Note_off_c, 0, 64, 61
1, 296886, Note_off_c, 0, 60, 59
1, 296894, Control_c, 0, 64, 127
1, 296896, Note_off_c, 0, 68, 64
1, 296898, Note_off_c, 0, 52, 62
1, 296941, Note_on_c, 0, 54, 58
1, 296942, Note_off_c, 0, 54, 127
1, 296954, Note_on_c, 0, 53, 71
1, 296982, Note_off_c, 0, 53, 66
1, 297101, Poly_aftertouch_c, 0, 53, 127
1, 297117, Control_c, 0, 64, 100
1, 297123, Note_on_c, 0, 45, 66
1, 297125, Note_on_c, 0, 42, 75
1, 297131, Note_on_c, 0, 38, 58
1, 297132, Poly_aftertouch_c, 0, 53, 0
1, 297132, Control_c, 0, 64, 78
1, 297147, Control_c, 0, 64, 66
1, 297162, Control_c, 0, 64, 59
1, 297162, Note_off_c, 0, 45, 66
1, 297171, Note_off_c, 0, 38, 63
1, 297177, Control_c, 0, 64, 57
1, 297180, Note_off_c, 0, 42, 61
1, 297191, Control_c, 0, 64, 54
1, 297206, Control_c, 0, 64, 48
1, 297217, Note_on_c, 0, 56, 75
1, 297221, Control_c, 0, 64, 44
1, 297236, Control_c, 0, 64, 42
1, 297273, Note_off_c, 0, 56, 63
1, 297291, Note_on_c, 0, 37, 72
1, 297298, Note_on_c, 0, 44, 62
1, 297307, Note_on_c, 0, 48, 60
1, 297307, Note_on_c, 0, 60, 84
1, 297328, Note_off_c, 0, 44, 65
1, 297337, Note_off_c, 0, 37, 62
1, 297338, Note_off_c, 0, 48, 65
1, 297339, Control_c, 0, 64, 40
1, 297343, Note_off_c, 0, 60, 62
1, 297354, Control_c, 0, 64, 38
1, 297369, Control_c, 0, 64, 35
1, 297394, Note_on_c, 0, 41, 61
1, 297397, Note_on_c, 0, 52, 86
1, 297406, Note_on_c, 0, 50, 71
1, 297411, Note_on_c, 0, 48, 64
1, 297420, Note_on_c, 0, 45, 51
1, 297421, Note_on_c, 0, 36, 47
1, 297429, Note_off_c, 0, 50, 64
1, 297432, Note_off_c, 0, 48, 61
1, 297447, Note_on_c, 0, 38, 26
1, 297448, Note_off_c, 0, 41, 65
1, 297457, Note_off_c, 0, 45, 36
1, 297457, Note_off_c, 0, 52, 65
1, 297463, Note_off_c, 0, 36, 51
1, 297493, Note_off_c, 0, 38, 30
1, 297510, Note_on_c, 0, 56, 79
1, 297554, Control_c, 0, 64, 36
1, 297567, Note_off_c, 0, 56, 62
1, 297606, Note_on_c, 0, 48, 50
1, 297643, Note_off_c, 0, 48, 63
1, 297710, Note_on_c, 0, 52, 68
1, 297712, Note_on_c, 0, 35, 56
1, 297744, Note_off_c, 0, 35, 61
1, 297764, Note_off_c, 0, 52, 61
1, 297830, Note_on_c, 0, 44, 54
1, 297897, Note_off_c, 0, 44, 54
1, 297970, Note_on_c, 0, 48, 36
1, 298021, Note_off_c, 0, 48, 60
1, 298113, Note_on_c, 0, 43, 42
1, 298135, Note_on_c, 0, 45, 34
1, 298141, Note_on_c, 0, 48, 42
1, 298146, Note_off_c, 0, 43, 61
1, 298169, Note_off_c, 0, 45, 50
1, 298170, Note_off_c, 0, 48, 56
1, 298220, Note_on_c, 0, 33, 45
1, 298260, Note_off_c, 0, 33, 61
1, 298320, Note_on_c, 0, 48, 43
1, 298327, Note_on_c, 0, 42, 50
1, 298340, Note_on_c, 0, 45, 34
1, 298360, Note_off_c, 0, 48, 64
1, 298363, Note_off_c, 0, 42, 64
1, 298372, Note_off_c, 0, 45, 49
1, 298411, Note_on_c, 0, 33, 39
1, 298420, Note_on_c, 0, 50, 64
1, 298434, Note_on_c, 0, 47, 49
1, 298455, Note_off_c, 0, 50, 64
1, 298456, Note_off_c, 0, 33, 60
1, 298462, Note_off_c, 0, 47, 60
1, 298516, Note_on_c, 0, 52, 59
1, 298520, Note_on_c, 0, 41, 46
1, 298522, Note_on_c, 0, 48, 44
1, 298546, Note_off_c, 0, 52, 66
1, 298551, Note_off_c, 0, 48, 51
1, 298552, Note_off_c, 0, 41, 60
1, 298603, Note_on_c, 0, 33, 45
1, 298651, Note_off_c, 0, 33, 60
1, 298697, Note_on_c, 0, 48, 51
1, 298700, Note_on_c, 0, 52, 52
1, 298722, Note_on_c, 0, 40, 45
1, 298726, Note_off_c, 0, 48, 62
1, 298733, Note_off_c, 0, 52, 66
1, 298756, Note_off_c, 0, 40, 54
1, 298789, Note_on_c, 0, 33, 41
1, 298834, Note_off_c, 0, 33, 61
1, 298894, Note_on_c, 0, 50, 60
1, 298900, Note_on_c, 0, 45, 45
1, 298902, Note_on_c, 0, 47, 55
1, 298924, Note_off_c, 0, 50, 65
1, 298938, Note_off_c, 0, 45, 59
1, 298942, Note_off_c, 0, 47, 63
1, 298987, Note_on_c, 0, 33, 47
1, 299040, Note_off_c, 0, 33, 60
1, 299099, Note_on_c, 0, 50, 59
1, 299118, Note_on_c, 0, 43, 31
1, 299120, Note_on_c, 0, 47, 23
1, 299130, Note_off_c, 0, 50, 65
1, 299145, Note_off_c, 0, 47, 47
1, 299156, Note_off_c, 0, 43, 44
1, 299186, Note_on_c, 0, 33, 46
1, 299186, Note_on_c, 0, 52, 65
1, 299192, Note_on_c, 0, 48, 59
1, 299222, Note_off_c, 0, 52, 67
1, 299224, Note_off_c, 0, 48, 64
1, 299234, Note_off_c, 0, 33, 61
1, 299288, Note_on_c, 0, 53, 70
1, 299291, Note_on_c, 0, 42, 57
1, 299299, Note_on_c, 0, 50, 57
1, 299318, Control_c, 0, 64, 35
1, 299323, Note_off_c, 0, 50, 62
1, 299323, Note_off_c, 0, 53, 65
1, 299329, Note_off_c, 0, 42, 62
1, 299368, Note_on_c, 0, 33, 45
1, 299421, Note_off_c, 0, 33, 57
1, 299482, Note_on_c, 0, 50, 59
1, 299499, Note_on_c, 0, 41, 44
1, 299499, Note_on_c, 0, 53, 51
1, 299513, Note_off_c, 0, 50, 65
1, 299525, Note_off_c, 0, 53, 58
1, 299532, Note_off_c, 0, 41, 52
1, 299567, Note_on_c, 0, 33, 54
1, 299623, Note_off_c, 0, 33, 60
1, 299678, Note_on_c, 0, 54, 66
1, 299689, Note_on_c, 0, 50, 57
1, 299702, Note_on_c, 0, 42, 52
1, 299725, Note_off_c, 0, 54, 64
1, 299727, Note_off_c, 0, 50, 65
1, 299740, Note_off_c, 0, 42, 64
1, 299778, Note_on_c, 0, 33, 51
1, 299826, Note_off_c, 0, 33, 57
1, 299875, Note_on_c, 0, 55, 66
1, 299878, Note_on_c, 0, 42, 52
1, 299890, Note_on_c, 0, 51, 51
1, 299912, Note_off_c, 0, 55, 66
1, 299921, Note_off_c, 0, 42, 62
1, 299928, Note_off_c, 0, 51, 64
1, 299971, Note_on_c, 0, 33, 46
1, 299979, Note_on_c, 0, 56, 70
1, 299985, Note_on_c, 0, 52, 57
1, 300017, Note_off_c, 0, 33, 59
1, 300020, Note_off_c, 0, 52, 65
1, 300033, Note_off_c, 0, 56, 61
1, 300062, Note_on_c, 0, 53, 68
1, 300065, Note_on_c, 0, 57, 66
1, 300075, Note_on_c, 0, 43, 56
1, 300093, Note_off_c, 0, 53, 65
1, 300099, Note_off_c, 0, 57, 67
1, 300114, Note_off_c, 0, 43, 64
1, 300160, Note_on_c, 0, 33, 50
1, 300201, Note_off_c, 0, 33, 61
1, 300244, Control_c, 0, 64, 36
1, 300258, Note_on_c, 0, 58, 64
1, 300271, Note_on_c, 0, 43, 38
1, 300274, Note_on_c, 0, 54, 53
1, 300290, Control_c, 0, 64, 36
1, 300297, Note_off_c, 0, 58, 64
1, 300307, Note_off_c, 0, 43, 61
1, 300318, Note_off_c, 0, 54, 64
1, 300337, Note_on_c, 0, 33, 55
1, 300351, Note_on_c, 0, 55, 64
1, 300351, Note_on_c, 0, 59, 64
1, 300381, Note_off_c, 0, 59, 65
1, 300384, Note_off_c, 0, 55, 65
1, 300392, Note_off_c, 0, 33, 61
1, 300442, Note_on_c, 0, 60, 79
1, 300448, Note_on_c, 0, 44, 66
1, 300454, Note_on_c, 0, 56, 49
1, 300477, Note_off_c, 0, 60, 66
1, 300478, Note_off_c, 0, 56, 59
1, 300483, Note_off_c, 0, 44, 64
1, 300531, Note_on_c, 0, 32, 65
1, 300578, Note_off_c, 0, 32, 60
1, 300635, Note_on_c, 0, 43, 53
1, 300642, Note_on_c, 0, 61, 59
1, 300648, Note_on_c, 0, 51, 59
1, 300668, Note_off_c, 0, 43, 64
1, 300672, Note_off_c, 0, 51, 62
1, 300674, Note_off_c, 0, 61, 62
1, 300716, Note_on_c, 0, 32, 52
1, 300763, Note_off_c, 0, 32, 58
1, 300818, Note_on_c, 0, 60, 64
1, 300820, Note_on_c, 0, 42, 55
1, 300834, Note_on_c, 0, 56, 38
1, 300852, Note_off_c, 0, 60, 65
1, 300860, Note_off_c, 0, 42, 63
1, 300866, Note_off_c, 0, 56, 49
1, 300897, Note_on_c, 0, 32, 51
1, 300957, Note_off_c, 0, 32, 60
1, 301022, Note_on_c, 0, 59, 54
1, 301023, Note_on_c, 0, 63, 58
1, 301025, Note_on_c, 0, 41, 46
1, 301046, Note_off_c, 0, 59, 62
1, 301058, Note_off_c, 0, 41, 64
1, 301061, Note_off_c, 0, 63, 64
1, 301081, Note_on_c, 0, 32, 51
1, 301138, Note_off_c, 0, 32, 58
1, 301216, Note_on_c, 0, 40, 45
1, 301238, Note_on_c, 0, 57, 48
1, 301242, Note_on_c, 0, 60, 45
1, 301261, Note_off_c, 0, 40, 61
1, 301267, Note_off_c, 0, 57, 61
1, 301271, Note_off_c, 0, 60, 60
1, 301318, Note_on_c, 0, 33, 38
1, 301362, Note_off_c, 0, 33, 58
1, 301405, Note_on_c, 0, 40, 41
1, 301414, Note_on_c, 0, 57, 43
1, 301416, Note_on_c, 0, 60, 47
1, 301418, Note_on_c, 0, 55, 47
1, 301444, Note_off_c, 0, 57, 64
1, 301446, Control_c, 0, 64, 36
1, 301448, Note_off_c, 0, 55, 63
1, 301451, Note_off_c, 0, 60, 65
1, 301460, Note_off_c, 0, 40, 61
1, 301485, Note_on_c, 0, 33, 54
1, 301500, Note_on_c, 0, 59, 62
1, 301510, Note_on_c, 0, 53, 54
1, 301530, Note_off_c, 0, 59, 66
1, 301535, Note_on_c, 0, 64, 18
1, 301535, Note_off_c, 0, 53, 57
1, 301546, Note_off_c, 0, 33, 60
1, 301585, Note_on_c, 0, 40, 51
1, 301587, Note_off_c, 0, 64, 0
1, 301587, Note_on_c, 0, 64, 58
1, 301595, Note_on_c, 0, 60, 68
1, 301600, Note_on_c, 0, 52, 51
1, 301625, Note_off_c, 0, 52, 59
1, 301627, Note_off_c, 0, 60, 62
1, 301633, Note_off_c, 0, 64, 59
1, 301640, Note_off_c, 0, 40, 62
1, 301672, Note_on_c, 0, 33, 56
1, 301729, Note_off_c, 0, 33, 60
1, 301778, Note_on_c, 0, 64, 71
1, 301780, Note_on_c, 0, 52, 51
1, 301782, Note_on_c, 0, 60, 55
1, 301782, Note_on_c, 0, 40, 48
1, 301806, Note_off_c, 0, 52, 61
1, 301812, Note_off_c, 0, 60, 66
1, 301821, Note_off_c, 0, 64, 62
1, 301823, Note_off_c, 0, 40, 65
1, 301863, Note_on_c, 0, 33, 54
1, 301923, Note_off_c, 0, 33, 60
1, 301983, Note_on_c, 0, 41, 52
1, 301987, Note_on_c, 0, 59, 65
1, 301990, Note_on_c, 0, 62, 64
1, 302017, Note_off_c, 0, 59, 65
1, 302022, Note_off_c, 0, 62, 66
1, 302029, Note_off_c, 0, 41, 62
1, 302068, Note_on_c, 0, 33, 54
1, 302127, Note_off_c, 0, 33, 60
1, 302167, Note_on_c, 0, 62, 66
1, 302170, Note_on_c, 0, 59, 54
1, 302174, Note_on_c, 0, 57, 54
1, 302182, Note_on_c, 0, 41, 53
1, 302199, Note_off_c, 0, 62, 65
1, 302200, Note_off_c, 0, 59, 64
1, 302203, Note_off_c, 0, 57, 64
1, 302227, Note_off_c, 0, 41, 63
1, 302254, Note_on_c, 0, 33, 63
1, 302256, Note_on_c, 0, 60, 63
1, 302269, Note_on_c, 0, 64, 48
1, 302274, Note_on_c, 0, 65, 52
1, 302280, Note_on_c, 0, 55, 30
1, 302287, Note_off_c, 0, 60, 67
1, 302292, Note_off_c, 0, 64, 59
1, 302296, Note_off_c, 0, 65, 58
1, 302299, Note_off_c, 0, 55, 41
1, 302310, Note_off_c, 0, 33, 60
1, 302337, Note_on_c, 0, 62, 54
1, 302340, Note_on_c, 0, 53, 79
1, 302354, Note_on_c, 0, 41, 61
1, 302354, Note_on_c, 0, 65, 73
1, 302369, Note_off_c, 0, 53, 67
1, 302385, Note_off_c, 0, 65, 60
1, 302386, Note_off_c, 0, 62, 64
1, 302426, Note_off_c, 0, 41, 63
1, 302459, Note_on_c, 0, 33, 58
1, 302513, Note_off_c, 0, 33, 61
1, 302536, Note_on_c, 0, 65, 80
1, 302537, Note_on_c, 0, 62, 66
1, 302542, Note_on_c, 0, 53, 57
1, 302546, Note_on_c, 0, 41, 70
1, 302563, Note_off_c, 0, 62, 66
1, 302566, Note_off_c, 0, 53, 38
1, 302572, Note_off_c, 0, 65, 64
1, 302584, Note_off_c, 0, 41, 66
1, 302594, Control_c, 0, 64, 35
1, 302609, Control_c, 0, 64, 17
1, 302624, Control_c, 0, 64, 0
1, 302630, Note_on_c, 0, 32, 55
1, 302664, Note_off_c, 0, 32, 54
1, 302727, Note_on_c, 0, 66, 88
1, 302731, Note_on_c, 0, 62, 76
1, 302736, Control_c, 0, 64, 12
1, 302739, Note_on_c, 0, 42, 80
1, 302751, Control_c, 0, 64, 58
1, 302757, Note_off_c, 0, 62, 70
1, 302766, Control_c, 0, 64, 62
1, 302766, Note_off_c, 0, 66, 63
1, 302781, Note_off_c, 0, 42, 60
1, 302781, Control_c, 0, 64, 65
1, 302796, Control_c, 0, 64, 67
1, 302810, Control_c, 0, 64, 69
1, 302825, Control_c, 0, 64, 70
1, 302840, Control_c, 0, 64, 71
1, 302841, Note_on_c, 0, 33, 66
1, 302855, Control_c, 0, 64, 72
1, 302870, Control_c, 0, 64, 72
1, 302876, Note_off_c, 0, 33, 65
1, 302912, Note_on_c, 0, 63, 59
1, 302919, Note_on_c, 0, 42, 61
1, 302919, Note_on_c, 0, 61, 68
1, 302922, Note_on_c, 0, 67, 74
1, 302929, Control_c, 0, 64, 72
1, 302942, Note_off_c, 0, 63, 65
1, 302943, Control_c, 0, 64, 71
1, 302946, Note_off_c, 0, 61, 66
1, 302947, Note_off_c, 0, 67, 67
1, 302958, Control_c, 0, 64, 67
1, 302973, Control_c, 0, 64, 60
1, 302974, Note_off_c, 0, 42, 58
1, 302988, Control_c, 0, 64, 29
1, 302996, Note_on_c, 0, 33, 62
1, 303002, Control_c, 0, 64, 0
1, 303008, Note_on_c, 0, 60, 75
1, 303008, Note_on_c, 0, 64, 78
1, 303033, Note_off_c, 0, 64, 67
1, 303034, Note_off_c, 0, 60, 67
1, 303037, Note_on_c, 0, 69, 49
1, 303051, Note_off_c, 0, 33, 61
1, 303057, Note_on_c, 0, 63, 3
1, 303058, Note_off_c, 0, 63, 127
1, 303060, Note_off_c, 0, 69, 58
1, 303088, Note_on_c, 0, 69, 82
1, 303089, Note_on_c, 0, 59, 86
1, 303091, Note_on_c, 0, 43, 75
1, 303100, Note_on_c, 0, 65, 71
1, 303106, Control_c, 0, 64, 54
1, 303113, Note_off_c, 0, 59, 67
1, 303121, Control_c, 0, 64, 63
1, 303127, Note_off_c, 0, 65, 68
1, 303136, Note_off_c, 0, 69, 66
1, 303136, Control_c, 0, 64, 66
1, 303151, Control_c, 0, 64, 70
1, 303162, Note_off_c, 0, 43, 60
1, 303165, Control_c, 0, 64, 74
1, 303180, Control_c, 0, 64, 77
1, 303191, Note_on_c, 0, 33, 70
1, 303195, Control_c, 0, 64, 78
1, 303240, Control_c, 0, 64, 79
1, 303251, Note_off_c, 0, 33, 60
1, 303254, Control_c, 0, 64, 80
1, 303269, Control_c, 0, 64, 82
1, 303270, Note_on_c, 0, 66, 39
1, 303279, Note_on_c, 0, 70, 66
1, 303280, Note_on_c, 0, 65, 63
1, 303287, Note_on_c, 0, 43, 66
1, 303299, Control_c, 0, 64, 81
1, 303308, Note_off_c, 0, 66, 64
1, 303313, Note_off_c, 0, 70, 64
1, 303314, Control_c, 0, 64, 80
1, 303315, Note_off_c, 0, 65, 60
1, 303328, Control_c, 0, 64, 76
1, 303343, Control_c, 0, 64, 68
1, 303350, Note_off_c, 0, 43, 63
1, 303358, Control_c, 0, 64, 48
1, 303366, Note_on_c, 0, 71, 66
1, 303367, Note_on_c, 0, 33, 72
1, 303373, Control_c, 0, 64, 0
1, 303375, Note_on_c, 0, 68, 25
1, 303376, Note_off_c, 0, 68, 127
1, 303392, Note_off_c, 0, 71, 66
1, 303421, Note_off_c, 0, 33, 59
1, 303448, Note_on_c, 0, 73, 90
1, 303456, Note_on_c, 0, 63, 71
1, 303461, Note_on_c, 0, 44, 85
1, 303469, Control_c, 0, 64, 50
1, 303472, Note_off_c, 0, 63, 67
1, 303476, Note_on_c, 0, 68, 19
1, 303485, Control_c, 0, 64, 66
1, 303493, Note_off_c, 0, 73, 67
1, 303500, Control_c, 0, 64, 75
1, 303514, Control_c, 0, 64, 93
1, 303517, Note_off_c, 0, 44, 60
1, 303524, Note_off_c, 0, 68, 26
1, 303529, Control_c, 0, 64, 127
1, 303555, Note_on_c, 0, 32, 76
1, 303558, Note_on_c, 0, 72, 87
1, 303598, Note_off_c, 0, 72, 66
1, 303605, Note_off_c, 0, 32, 58
1, 303648, Note_on_c, 0, 84, 84
1, 303649, Note_on_c, 0, 80, 85
1, 303651, Note_on_c, 0, 44, 76
1, 303669, Note_off_c, 0, 84, 69
1, 303670, Note_off_c, 0, 80, 70
1, 303712, Note_off_c, 0, 44, 60
1, 303736, Note_on_c, 0, 84, 76
1, 303737, Note_on_c, 0, 74, 69
1, 303742, Note_on_c, 0, 86, 56
1, 303747, Note_on_c, 0, 32, 72
1, 303750, Note_off_c, 0, 84, 68
1, 303753, Note_off_c, 0, 74, 47
1, 303759, Note_on_c, 0, 81, 27
1, 303762, Note_off_c, 0, 86, 62
1, 303790, Note_off_c, 0, 32, 62
1, 303792, Note_off_c, 0, 81, 53
1, 303796, Control_c, 0, 64, 79
1, 303811, Control_c, 0, 64, 27
1, 303826, Control_c, 0, 64, 0
1, 303836, Note_on_c, 0, 68, 89
1, 303839, Note_on_c, 0, 73, 87
1, 303843, Note_on_c, 0, 64, 81
1, 303848, Note_on_c, 0, 43, 81
1, 303856, Note_off_c, 0, 68, 69
1, 303864, Note_off_c, 0, 64, 71
1, 303884, Control_c, 0, 64, 54
1, 303889, Note_off_c, 0, 73, 66
1, 303899, Control_c, 0, 64, 67
1, 303905, Note_off_c, 0, 43, 63
1, 303914, Control_c, 0, 64, 75
1, 303929, Control_c, 0, 64, 84
1, 303944, Control_c, 0, 64, 88
1, 303950, Note_on_c, 0, 73, 89
1, 303959, Note_on_c, 0, 31, 76
1, 303973, Control_c, 0, 64, 88
1, 303988, Control_c, 0, 64, 87
1, 303998, Note_off_c, 0, 73, 64
1, 304015, Note_off_c, 0, 31, 62
1, 304018, Control_c, 0, 64, 88
1, 304033, Control_c, 0, 64, 88
1, 304054, Note_on_c, 0, 85, 94
1, 304057, Note_on_c, 0, 81, 82
1, 304080, Note_on_c, 0, 43, 74
1, 304105, Note_off_c, 0, 81, 63
1, 304114, Note_off_c, 0, 85, 64
1, 304142, Note_off_c, 0, 43, 59
1, 304161, Note_on_c, 0, 85, 86
1, 304166, Note_on_c, 0, 73, 87
1, 304170, Note_on_c, 0, 81, 70
1, 304171, Note_on_c, 0, 31, 78
1, 304199, Note_off_c, 0, 73, 66
1, 304201, Note_off_c, 0, 81, 70
1, 304206, Note_off_c, 0, 31, 65
1, 304218, Control_c, 0, 64, 89
1, 304224, Note_off_c, 0, 85, 66
1, 304233, Control_c, 0, 64, 89
1, 304337, Control_c, 0, 64, 87
1, 304352, Control_c, 0, 64, 83
1, 304367, Control_c, 0, 64, 74
1, 304376, Note_on_c, 0, 41, 57
1, 304378, Note_on_c, 0, 74, 57
1, 304382, Note_on_c, 0, 70, 56
1, 304382, Control_c, 0, 64, 67
1, 304397, Control_c, 0, 64, 60
1, 304410, Note_off_c, 0, 41, 64
1, 304411, Control_c, 0, 64, 54
1, 304420, Note_off_c, 0, 70, 60
1, 304421, Note_off_c, 0, 74, 61
1, 304426, Control_c, 0, 64, 50
1, 304441, Control_c, 0, 64, 45
1, 304456, Control_c, 0, 64, 38
1, 304471, Control_c, 0, 64, 34
1, 304474, Note_on_c, 0, 53, 54
1, 304486, Control_c, 0, 64, 32
1, 304501, Control_c, 0, 64, 31
1, 304505, Note_off_c, 0, 53, 65
1, 304530, Control_c, 0, 64, 30
1, 304560, Control_c, 0, 64, 30
1, 304565, Note_on_c, 0, 58, 64
1, 304573, Note_on_c, 0, 75, 57
1, 304587, Note_on_c, 0, 72, 43
1, 304604, Note_off_c, 0, 75, 63
1, 304608, Note_off_c, 0, 58, 61
1, 304611, Note_off_c, 0, 72, 57
1, 304671, Note_on_c, 0, 62, 58
1, 304671, Note_on_c, 0, 73, 64
1, 304679, Note_on_c, 0, 76, 59
1, 304699, Note_off_c, 0, 73, 67
1, 304704, Note_off_c, 0, 62, 65
1, 304711, Note_off_c, 0, 76, 66
1, 304764, Note_on_c, 0, 65, 55
1, 304765, Note_on_c, 0, 77, 73
1, 304773, Note_on_c, 0, 74, 58
1, 304790, Note_off_c, 0, 77, 68
1, 304793, Note_off_c, 0, 74, 64
1, 304795, Note_off_c, 0, 65, 65
1, 304850, Note_on_c, 0, 70, 77
1, 304852, Note_on_c, 0, 58, 48
1, 304853, Note_on_c, 0, 53, 47
1, 304877, Note_off_c, 0, 58, 60
1, 304879, Note_off_c, 0, 70, 64
1, 304885, Note_off_c, 0, 53, 57
1, 304937, Control_c, 0, 64, 29
1, 304948, Note_on_c, 0, 62, 73
1, 304952, Note_on_c, 0, 74, 51
1, 304952, Note_on_c, 0, 77, 67
1, 304957, Note_on_c, 0, 70, 71
1, 304967, Control_c, 0, 64, 29
1, 304976, Note_on_c, 0, 65, 28
1, 304976, Note_off_c, 0, 62, 67
1, 304987, Note_off_c, 0, 74, 64
1, 304996, Control_c, 0, 64, 28
1, 304997, Note_off_c, 0, 77, 63
1, 305010, Note_off_c, 0, 65, 32
1, 305011, Control_c, 0, 64, 28
1, 305040, Control_c, 0, 64, 27
1, 305041, Note_on_c, 0, 58, 68
1, 305055, Note_on_c, 0, 53, 52
1, 305081, Note_off_c, 0, 58, 64
1, 305085, Note_off_c, 0, 53, 63
1, 305149, Note_on_c, 0, 75, 62
1, 305154, Note_on_c, 0, 72, 60
1, 305162, Note_on_c, 0, 63, 60
1, 305166, Note_on_c, 0, 67, 56
1, 305182, Note_off_c, 0, 75, 64
1, 305183, Note_off_c, 0, 72, 66
1, 305187, Note_off_c, 0, 67, 61
1, 305193, Note_off_c, 0, 63, 65
1, 305251, Note_on_c, 0, 58, 62
1, 305266, Note_on_c, 0, 53, 50
1, 305285, Note_off_c, 0, 58, 67
1, 305290, Note_off_c, 0, 53, 58
1, 305344, Note_on_c, 0, 73, 64
1, 305353, Note_on_c, 0, 77, 62
1, 305373, Note_on_c, 0, 63, 54
1, 305373, Note_off_c, 0, 73, 66
1, 305374, Note_off_c, 0, 70, 50
1, 305386, Note_off_c, 0, 77, 66
1, 305395, Note_off_c, 0, 63, 59
1, 305440, Note_on_c, 0, 78, 75
1, 305444, Note_on_c, 0, 53, 54
1, 305446, Note_on_c, 0, 58, 62
1, 305455, Note_on_c, 0, 74, 61
1, 305475, Note_off_c, 0, 74, 64
1, 305477, Note_off_c, 0, 53, 64
1, 305481, Note_off_c, 0, 58, 66
1, 305481, Note_off_c, 0, 78, 62
1, 305538, Note_on_c, 0, 75, 74
1, 305543, Note_on_c, 0, 79, 77
1, 305544, Note_on_c, 0, 63, 59
1, 305550, Note_on_c, 0, 67, 52
1, 305559, Control_c, 0, 64, 27
1, 305563, Note_off_c, 0, 75, 65
1, 305571, Note_off_c, 0, 79, 65
1, 305571, Note_off_c, 0, 67, 61
1, 305577, Note_off_c, 0, 63, 64
1, 305631, Note_on_c, 0, 70, 79
1, 305640, Note_on_c, 0, 58, 64
1, 305646, Note_on_c, 0, 53, 55
1, 305663, Note_off_c, 0, 70, 62
1, 305678, Note_off_c, 0, 53, 59
1, 305680, Note_off_c, 0, 58, 65
1, 305733, Note_on_c, 0, 79, 78
1, 305736, Note_on_c, 0, 70, 69
1, 305741, Note_on_c, 0, 75, 68
1, 305749, Note_on_c, 0, 63, 68
1, 305757, Note_on_c, 0, 67, 48
1, 305772, Note_off_c, 0, 75, 63
1, 305777, Note_off_c, 0, 63, 66
1, 305783, Note_off_c, 0, 67, 56
1, 305791, Control_c, 0, 64, 26
1, 305792, Note_off_c, 0, 79, 63
1, 305848, Note_on_c, 0, 58, 62
1, 305860, Note_on_c, 0, 53, 53
1, 305890, Note_off_c, 0, 58, 61
1, 305901, Note_off_c, 0, 53, 64
1, 305958, Note_off_c, 0, 70, 61
1, 305960, Note_on_c, 0, 77, 69
1, 305961, Note_on_c, 0, 74, 61
1, 305972, Note_on_c, 0, 62, 49
1, 305984, Note_on_c, 0, 65, 42
1, 305992, Note_off_c, 0, 74, 66
1, 305997, Note_off_c, 0, 77, 63
1, 306000, Note_off_c, 0, 62, 62
1, 306010, Note_off_c, 0, 65, 55
1, 306051, Note_on_c, 0, 70, 76
1, 306051, Note_on_c, 0, 53, 57
1, 306056, Note_on_c, 0, 58, 51
1, 306084, Note_off_c, 0, 53, 62
1, 306092, Note_off_c, 0, 58, 64
1, 306146, Note_on_c, 0, 75, 65
1, 306146, Note_on_c, 0, 78, 78
1, 306152, Note_on_c, 0, 62, 57
1, 306159, Note_on_c, 0, 65, 38
1, 306175, Note_off_c, 0, 75, 66
1, 306184, Note_off_c, 0, 62, 65
1, 306185, Note_off_c, 0, 65, 58
1, 306243, Note_on_c, 0, 76, 69
1, 306245, Note_on_c, 0, 58, 62
1, 306261, Note_on_c, 0, 53, 53
1, 306264, Note_off_c, 0, 70, 38
1, 306272, Note_off_c, 0, 76, 67
1, 306279, Note_off_c, 0, 78, 64
1, 306280, Note_off_c, 0, 58, 62
1, 306286, Note_off_c, 0, 53, 58
1, 306331, Note_on_c, 0, 80, 90
1, 306337, Note_on_c, 0, 60, 67
1, 306343, Note_on_c, 0, 77, 78
1, 306349, Note_on_c, 0, 64, 57
1, 306354, Control_c, 0, 64, 27
1, 306367, Note_off_c, 0, 77, 68
1, 306369, Control_c, 0, 64, 28
1, 306371, Note_off_c, 0, 60, 60
1, 306381, Note_off_c, 0, 64, 65
1, 306384, Control_c, 0, 64, 29
1, 306399, Control_c, 0, 64, 30
1, 306400, Note_off_c, 0, 80, 62
1, 306414, Control_c, 0, 64, 32
1, 306432, Note_on_c, 0, 70, 79
1, 306435, Control_c, 0, 64, 33
1, 306438, Note_on_c, 0, 58, 72
1, 306450, Control_c, 0, 64, 34
1, 306462, Note_on_c, 0, 53, 44
1, 306465, Control_c, 0, 64, 36
1, 306471, Note_off_c, 0, 58, 65
1, 306480, Control_c, 0, 64, 37
1, 306491, Note_off_c, 0, 53, 52
1, 306495, Control_c, 0, 64, 38
1, 306510, Control_c, 0, 64, 38
1, 306525, Control_c, 0, 64, 39
1, 306532, Note_on_c, 0, 78, 72
1, 306533, Note_on_c, 0, 81, 80
1, 306537, Note_on_c, 0, 60, 69
1, 306540, Control_c, 0, 64, 40
1, 306540, Note_on_c, 0, 64, 59
1, 306540, Note_off_c, 0, 70, 58
1, 306553, Note_on_c, 0, 80, 35
1, 306554, Control_c, 0, 64, 42
1, 306569, Control_c, 0, 64, 46
1, 306570, Note_off_c, 0, 64, 66
1, 306570, Note_off_c, 0, 81, 65
1, 306573, Note_off_c, 0, 78, 64
1, 306583, Note_off_c, 0, 80, 33
1, 306584, Control_c, 0, 64, 50
1, 306588, Note_off_c, 0, 60, 55
1, 306599, Control_c, 0, 64, 54
1, 306614, Control_c, 0, 64, 58
1, 306623, Note_on_c, 0, 78, 58
1, 306624, Note_on_c, 0, 53, 68
1, 306627, Note_on_c, 0, 58, 74
1, 306627, Note_on_c, 0, 82, 90
1, 306628, Control_c, 0, 64, 62
1, 306643, Control_c, 0, 64, 64
1, 306644, Note_off_c, 0, 78, 36
1, 306649, Note_on_c, 0, 79, 52
1, 306657, Note_off_c, 0, 53, 66
1, 306658, Control_c, 0, 64, 67
1, 306659, Note_off_c, 0, 58, 65
1, 306669, Note_off_c, 0, 79, 39
1, 306669, Note_off_c, 0, 82, 65
1, 306673, Control_c, 0, 64, 69
1, 306689, Control_c, 0, 64, 73
1, 306718, Control_c, 0, 64, 71
1, 306722, Note_on_c, 0, 83, 95
1, 306722, Note_on_c, 0, 80, 94
1, 306725, Note_on_c, 0, 63, 88
1, 306728, Note_on_c, 0, 59, 81
1, 306733, Control_c, 0, 64, 68
1, 306748, Control_c, 0, 64, 66
1, 306757, Note_off_c, 0, 59, 63
1, 306759, Note_off_c, 0, 63, 59
1, 306763, Control_c, 0, 64, 67
1, 306767, Note_off_c, 0, 80, 65
1, 306774, Note_off_c, 0, 83, 64
1, 306777, Control_c, 0, 64, 68
1, 306792, Control_c, 0, 64, 70
1, 306807, Control_c, 0, 64, 73
1, 306817, Note_on_c, 0, 77, 95
1, 306821, Note_on_c, 0, 53, 85
1, 306822, Note_on_c, 0, 56, 77
1, 306822, Control_c, 0, 64, 77
1, 306837, Control_c, 0, 64, 81
1, 306851, Control_c, 0, 64, 82
1, 306859, Note_off_c, 0, 53, 57
1, 306886, Note_off_c, 0, 56, 59
1, 306912, Note_on_c, 0, 84, 75
1, 306913, Note_on_c, 0, 81, 79
1, 306920, Note_on_c, 0, 63, 79
1, 306925, Note_on_c, 0, 59, 68
1, 306925, Control_c, 0, 64, 83
1, 306940, Control_c, 0, 64, 84
1, 306944, Note_off_c, 0, 81, 65
1, 306945, Note_off_c, 0, 77, 60
1, 306953, Note_off_c, 0, 63, 60
1, 306955, Control_c, 0, 64, 86
1, 306965, Note_off_c, 0, 84, 67
1, 306970, Control_c, 0, 64, 89
1, 306984, Control_c, 0, 64, 92
1, 306999, Control_c, 0, 64, 96
1, 307012, Note_on_c, 0, 85, 99
1, 307014, Note_off_c, 0, 59, 0
1, 307014, Control_c, 0, 64, 100
1, 307015, Note_on_c, 0, 82, 84
1, 307017, Note_on_c, 0, 53, 80
1, 307029, Control_c, 0, 64, 101
1, 307030, Note_on_c, 0, 56, 70
1, 307044, Control_c, 0, 64, 100
1, 307045, Note_off_c, 0, 82, 60
1, 307056, Note_off_c, 0, 56, 69
1, 307058, Note_off_c, 0, 53, 59
1, 307059, Control_c, 0, 64, 86
1, 307061, Note_off_c, 0, 85, 66
1, 307064, Poly_aftertouch_c, 0, 59, 0
1, 307073, Control_c, 0, 64, 67
1, 307088, Control_c, 0, 64, 46
1, 307089, Poly_aftertouch_c, 0, 59, 0
1, 307103, Control_c, 0, 64, 50
1, 307107, Note_on_c, 0, 83, 101
1, 307108, Note_on_c, 0, 86, 92
1, 307111, Note_on_c, 0, 59, 75
1, 307118, Control_c, 0, 64, 60
1, 307119, Note_on_c, 0, 62, 72
1, 307130, Note_on_c, 0, 84, 58
1, 307133, Control_c, 0, 64, 65
1, 307145, Note_off_c, 0, 83, 68
1, 307148, Control_c, 0, 64, 75
1, 307149, Note_off_c, 0, 62, 68
1, 307149, Note_off_c, 0, 84, 41
1, 307163, Control_c, 0, 64, 100
1, 307170, Note_off_c, 0, 86, 64
1, 307172, Note_off_c, 0, 59, 63
1, 307184, Control_c, 0, 64, 127
1, 307216, Note_on_c, 0, 55, 79
1, 307218, Note_on_c, 0, 77, 89
1, 307225, Note_on_c, 0, 53, 83
1, 307243, Note_off_c, 0, 55, 69
1, 307249, Note_off_c, 0, 53, 70
1, 307276, Note_off_c, 0, 77, 61
1, 307319, Note_on_c, 0, 53, 92
1, 307321, Note_on_c, 0, 84, 90
1, 307321, Note_on_c, 0, 87, 96
1, 307342, Note_on_c, 0, 88, 75
1, 307357, Note_off_c, 0, 88, 66
1, 307375, Note_off_c, 0, 53, 63
1, 307386, Note_off_c, 0, 84, 50
1, 307407, Note_off_c, 0, 87, 62
1, 307424, Note_on_c, 0, 41, 83
1, 307456, Note_off_c, 0, 41, 69
1, 307510, Note_on_c, 0, 84, 73
1, 307517, Note_on_c, 0, 81, 64
1, 307526, Control_c, 0, 64, 118
1, 307527, Note_on_c, 0, 88, 49
1, 307532, Note_off_c, 0, 84, 71
1, 307533, Note_off_c, 0, 81, 67
1, 307541, Control_c, 0, 64, 66
1, 307553, Note_off_c, 0, 88, 0
1, 307556, Control_c, 0, 64, 0
1, 307561, Note_on_c, 0, 88, 89
1, 307568, Note_on_c, 0, 81, 97
1, 307573, Note_on_c, 0, 84, 85
1, 307577, Note_on_c, 0, 83, 83
1, 307584, Note_on_c, 0, 26, 85
1, 307586, Control_c, 0, 64, 13
1, 307589, Note_on_c, 0, 28, 78
1, 307600, Control_c, 0, 64, 56
1, 307615, Note_off_c, 0, 26, 67
1, 307615, Control_c, 0, 64, 72
1, 307624, Note_off_c, 0, 84, 61
1, 307630, Control_c, 0, 64, 107
1, 307634, Note_off_c, 0, 83, 60
1, 307645, Control_c, 0, 64, 127
1, 307655, Note_off_c, 0, 28, 61
1, 307661, Note_off_c, 0, 88, 64
1, 307663, Note_off_c, 0, 81, 49
1, 307693, Note_on_c, 0, 76, 82
1, 307700, Note_on_c, 0, 40, 80
1, 307737, Note_off_c, 0, 40, 65
1, 307739, Note_off_c, 0, 76, 65
1, 307805, Note_on_c, 0, 76, 93
1, 307836, Note_on_c, 0, 40, 68
1, 307849, Note_on_c, 0, 38, 38
1, 307853, Note_off_c, 0, 76, 65
1, 307872, Note_off_c, 0, 40, 61
1, 307890, Note_off_c, 0, 38, 49
1, 307904, Note_on_c, 0, 52, 78
1, 307968, Note_off_c, 0, 52, 65
1, 307993, Control_c, 0, 64, 80
1, 308007, Control_c, 0, 64, 58
1, 308018, Note_on_c, 0, 87, 97
1, 308019, Note_on_c, 0, 80, 96
1, 308022, Note_on_c, 0, 53, 91
1, 308022, Control_c, 0, 64, 54
1, 308024, Note_on_c, 0, 83, 84
1, 308037, Control_c, 0, 64, 66
1, 308052, Control_c, 0, 64, 77
1, 308067, Control_c, 0, 64, 127
1, 308068, Note_off_c, 0, 83, 64
1, 308070, Note_off_c, 0, 87, 68
1, 308073, Note_off_c, 0, 80, 63
1, 308105, Note_off_c, 0, 53, 54
1, 308131, Note_on_c, 0, 52, 86
1, 308191, Note_off_c, 0, 52, 64
1, 308224, Note_on_c, 0, 79, 95
1, 308225, Note_on_c, 0, 82, 89
1, 308228, Note_on_c, 0, 86, 90
1, 308236, Note_on_c, 0, 64, 83
1, 308257, Note_off_c, 0, 79, 68
1, 308266, Note_off_c, 0, 82, 67
1, 308277, Note_off_c, 0, 86, 64
1, 308287, Note_off_c, 0, 64, 65
1, 308310, Note_on_c, 0, 52, 81
1, 308334, Note_off_c, 0, 52, 69
1, 308390, Note_on_c, 0, 85, 86
1, 308402, Note_on_c, 0, 78, 75
1, 308404, Note_on_c, 0, 81, 59
1, 308409, Control_c, 0, 64, 97
1, 308418, Note_off_c, 0, 78, 67
1, 308422, Note_off_c, 0, 81, 65
1, 308423, Control_c, 0, 64, 60
1, 308430, Note_off_c, 0, 85, 0
1, 308438, Control_c, 0, 64, 0
1, 308452, Note_on_c, 0, 30, 95
1, 308457, Note_on_c, 0, 78, 98
1, 308463, Note_on_c, 0, 81, 76
1, 308468, Poly_aftertouch_c, 0, 85, 127
1, 308468, Control_c, 0, 64, 49
1, 308483, Control_c, 0, 64, 64
1, 308495, Note_off_c, 0, 81, 64
1, 308497, Control_c, 0, 64, 76
1, 308512, Control_c, 0, 64, 119
1, 308513, Note_off_c, 0, 78, 62
1, 308527, Control_c, 0, 64, 127
1, 308535, Note_off_c, 0, 30, 60
1, 308558, Note_on_c, 0, 42, 80
1, 308564, Note_on_c, 0, 73, 86
1, 308573, Poly_aftertouch_c, 0, 85, 0
1, 308591, Note_off_c, 0, 42, 67
1, 308626, Note_off_c, 0, 73, 60
1, 308685, Note_on_c, 0, 42, 85
1, 308687, Note_on_c, 0, 73, 87
1, 308739, Note_off_c, 0, 42, 60
1, 308751, Note_off_c, 0, 73, 62
1, 308781, Note_on_c, 0, 54, 81
1, 308832, Note_off_c, 0, 54, 64
1, 308874, Control_c, 0, 64, 105
1, 308889, Control_c, 0, 64, 66
1, 308904, Control_c, 0, 64, 43
1, 308907, Note_on_c, 0, 84, 97
1, 308907, Note_on_c, 0, 77, 98
1, 308908, Note_on_c, 0, 55, 83
1, 308908, Note_on_c, 0, 80, 90
1, 308919, Control_c, 0, 64, 59
1, 308933, Control_c, 0, 64, 65
1, 308948, Control_c, 0, 64, 74
1, 308949, Note_off_c, 0, 77, 66
1, 308963, Note_off_c, 0, 80, 65
1, 308963, Control_c, 0, 64, 105
1, 308965, Note_off_c, 0, 84, 67
1, 308978, Control_c, 0, 64, 127
1, 308990, Note_off_c, 0, 55, 62
1, 309021, Note_on_c, 0, 54, 85
1, 309094, Note_off_c, 0, 54, 63
1, 309114, Note_on_c, 0, 76, 93
1, 309118, Note_on_c, 0, 79, 82
1, 309118, Note_on_c, 0, 83, 91
1, 309125, Note_on_c, 0, 66, 77
1, 309152, Note_off_c, 0, 76, 68
1, 309153, Note_off_c, 0, 79, 62
1, 309169, Note_off_c, 0, 83, 66
1, 309169, Note_off_c, 0, 66, 65
1, 309194, Note_on_c, 0, 54, 76
1, 309223, Note_off_c, 0, 54, 66
1, 309280, Note_on_c, 0, 82, 84
1, 309290, Control_c, 0, 64, 114
1, 309291, Note_on_c, 0, 78, 62
1, 309292, Note_on_c, 0, 75, 68
1, 309305, Control_c, 0, 64, 66
1, 309308, Note_off_c, 0, 75, 65
1, 309313, Note_off_c, 0, 78, 64
1, 309319, Control_c, 0, 64, 0
1, 309324, Note_off_c, 0, 82, 0
1, 309325, Note_on_c, 0, 34, 93
1, 309334, Control_c, 0, 64, 17
1, 309347, Note_on_c, 0, 75, 96
1, 309349, Note_on_c, 0, 78, 90
1, 309349, Control_c, 0, 64, 53
1, 309357, Note_on_c, 0, 80, 33
1, 309361, Poly_aftertouch_c, 0, 82, 127
1, 309364, Control_c, 0, 64, 65
1, 309373, Note_off_c, 0, 80, 59
1, 309378, Control_c, 0, 64, 79
1, 309391, Note_off_c, 0, 75, 59
1, 309393, Control_c, 0, 64, 127
1, 309407, Note_off_c, 0, 78, 62
1, 309430, Note_off_c, 0, 34, 57
1, 309437, Note_on_c, 0, 46, 82
1, 309451, Poly_aftertouch_c, 0, 82, 0
1, 309460, Note_on_c, 0, 70, 91
1, 309493, Note_off_c, 0, 46, 63
1, 309510, Note_off_c, 0, 70, 63
1, 309575, Note_on_c, 0, 47, 70
1, 309581, Note_on_c, 0, 70, 88
1, 309599, Note_on_c, 0, 48, 43
1, 309613, Note_off_c, 0, 47, 62
1, 309625, Note_off_c, 0, 70, 65
1, 309629, Note_off_c, 0, 48, 53
1, 309669, Note_on_c, 0, 58, 77
1, 309723, Note_off_c, 0, 58, 62
1, 309757, Control_c, 0, 64, 71
1, 309771, Note_on_c, 0, 58, 59
1, 309771, Control_c, 0, 64, 37
1, 309786, Control_c, 0, 64, 26
1, 309790, Note_on_c, 0, 74, 96
1, 309790, Note_on_c, 0, 81, 93
1, 309791, Note_on_c, 0, 77, 93
1, 309801, Control_c, 0, 64, 55
1, 309816, Control_c, 0, 64, 64
1, 309827, Note_off_c, 0, 74, 66
1, 309831, Control_c, 0, 64, 74
1, 309833, Note_off_c, 0, 77, 65
1, 309834, Note_off_c, 0, 58, 65
1, 309846, Note_off_c, 0, 81, 65
1, 309846, Control_c, 0, 64, 127
1, 309893, Note_on_c, 0, 58, 84
1, 309910, Poly_aftertouch_c, 0, 59, 0
1, 309971, Note_off_c, 0, 58, 58
1, 310000, Note_on_c, 0, 76, 64
1, 310001, Note_on_c, 0, 70, 84
1, 310003, Note_on_c, 0, 80, 91
1, 310006, Note_on_c, 0, 73, 92
1, 310036, Note_off_c, 0, 70, 65
1, 310046, Note_off_c, 0, 73, 65
1, 310052, Note_off_c, 0, 76, 65
1, 310063, Note_on_c, 0, 58, 47
1, 310077, Note_off_c, 0, 80, 63
1, 310084, Note_off_c, 0, 58, 59
1, 310161, Note_on_c, 0, 75, 83
1, 310162, Note_on_c, 0, 72, 85
1, 310177, Note_on_c, 0, 79, 70
1, 310189, Note_off_c, 0, 72, 72
1, 310193, Note_off_c, 0, 75, 66
1, 310195, Control_c, 0, 64, 89
1, 310205, Note_off_c, 0, 79, 67
1, 310209, Control_c, 0, 64, 57
1, 310224, Control_c, 0, 64, 0
1, 310228, Note_on_c, 0, 36, 91
1, 310235, Note_on_c, 0, 72, 98
1, 310235, Note_on_c, 0, 75, 83
1, 310239, Note_on_c, 0, 79, 92
1, 310239, Control_c, 0, 64, 32
1, 310254, Control_c, 0, 64, 58
1, 310269, Control_c, 0, 64, 69
1, 310270, Note_off_c, 0, 72, 62
1, 310281, Note_off_c, 0, 75, 64
1, 310284, Control_c, 0, 64, 95
1, 310290, Note_off_c, 0, 36, 62
1, 310299, Control_c, 0, 64, 127
1, 310308, Note_off_c, 0, 79, 59
1, 310325, Note_on_c, 0, 67, 84
1, 310326, Note_on_c, 0, 48, 80
1, 310370, Note_off_c, 0, 67, 63
1, 310376, Note_off_c, 0, 48, 63
1, 310453, Note_on_c, 0, 67, 90
1, 310469, Note_on_c, 0, 50, 85
1, 310495, Note_off_c, 0, 67, 65
1, 310529, Note_off_c, 0, 50, 62
1, 310556, Note_on_c, 0, 60, 78
1, 310605, Note_off_c, 0, 60, 63
1, 310654, Control_c, 0, 64, 101
1, 310670, Control_c, 0, 64, 65
1, 310674, Note_on_c, 0, 78, 95
1, 310677, Note_on_c, 0, 71, 94
1, 310678, Note_on_c, 0, 61, 57
1, 310681, Note_on_c, 0, 74, 85
1, 310683, Note_on_c, 0, 62, 80
1, 310685, Control_c, 0, 64, 44
1, 310699, Control_c, 0, 64, 58
1, 310714, Control_c, 0, 64, 64
1, 310718, Note_off_c, 0, 71, 62
1, 310722, Note_off_c, 0, 74, 61
1, 310722, Note_off_c, 0, 61, 61
1, 310722, Note_off_c, 0, 62, 59
1, 310729, Control_c, 0, 64, 70
1, 310740, Note_off_c, 0, 78, 63
1, 310743, Control_c, 0, 64, 85
1, 310758, Control_c, 0, 64, 127
1, 310795, Note_on_c, 0, 60, 85
1, 310851, Note_off_c, 0, 60, 62
1, 310889, Note_on_c, 0, 77, 97
1, 310889, Note_on_c, 0, 70, 94
1, 310890, Note_on_c, 0, 73, 87
1, 310901, Note_on_c, 0, 72, 81
1, 310932, Note_off_c, 0, 73, 65
1, 310932, Note_off_c, 0, 77, 66
1, 310933, Note_off_c, 0, 70, 63
1, 310968, Note_off_c, 0, 72, 62
1, 310993, Note_on_c, 0, 60, 80
1, 311025, Note_off_c, 0, 60, 65
1, 311074, Note_on_c, 0, 69, 92
1, 311077, Control_c, 0, 64, 108
1, 311079, Note_on_c, 0, 72, 75
1, 311085, Note_on_c, 0, 76, 75
1, 311092, Control_c, 0, 64, 67
1, 311094, Note_off_c, 0, 69, 69
1, 311101, Note_off_c, 0, 72, 71
1, 311107, Control_c, 0, 64, 30
1, 311110, Note_off_c, 0, 76, 68
1, 311121, Control_c, 0, 64, 40
1, 311136, Control_c, 0, 64, 57
1, 311139, Note_on_c, 0, 76, 100
1, 311147, Note_on_c, 0, 69, 96
1, 311151, Control_c, 0, 64, 65
1, 311155, Note_on_c, 0, 71, 81
1, 311155, Note_on_c, 0, 72, 80
1, 311166, Control_c, 0, 64, 77
1, 311175, Note_off_c, 0, 69, 64
1, 311175, Note_off_c, 0, 71, 70
1, 311177, Note_off_c, 0, 72, 71
1, 311178, Note_off_c, 0, 76, 65
1, 311181, Control_c, 0, 64, 118
1, 311196, Control_c, 0, 64, 127
1, 311237, Note_on_c, 0, 40, 75
1, 311294, Note_off_c, 0, 40, 62
1, 311307, Note_on_c, 0, 48, 79
1, 311339, Note_off_c, 0, 48, 64
1, 311344, Control_c, 0, 64, 88
1, 311358, Control_c, 0, 64, 73
1, 311365, Note_on_c, 0, 57, 89
1, 311373, Control_c, 0, 64, 64
1, 311388, Control_c, 0, 64, 59
1, 311395, Note_off_c, 0, 57, 66
1, 311403, Control_c, 0, 64, 58
1, 311417, Control_c, 0, 64, 56
1, 311432, Control_c, 0, 64, 54
1, 311440, Note_on_c, 0, 56, 87
1, 311447, Control_c, 0, 64, 51
1, 311455, Note_on_c, 0, 52, 78
1, 311462, Control_c, 0, 64, 50
1, 311464, Note_off_c, 0, 56, 70
1, 311491, Note_off_c, 0, 52, 64
1, 311508, Control_c, 0, 64, 49
1, 311522, Control_c, 0, 64, 48
1, 311536, Note_on_c, 0, 57, 81
1, 311552, Control_c, 0, 64, 47
1, 311572, Note_off_c, 0, 57, 61
1, 311600, Note_on_c, 0, 60, 91
1, 311640, Control_c, 0, 64, 47
1, 311643, Note_off_c, 0, 60, 65
1, 311678, Control_c, 0, 64, 46
1, 311683, Note_on_c, 0, 59, 81
1, 311705, Note_on_c, 0, 57, 83
1, 311706, Note_off_c, 0, 59, 70
1, 311750, Note_off_c, 0, 57, 62
1, 311792, Note_on_c, 0, 60, 84
1, 311826, Note_on_c, 0, 64, 88
1, 311828, Note_off_c, 0, 60, 61
1, 311841, Control_c, 0, 64, 47
1, 311867, Note_off_c, 0, 64, 63
1, 311885, Control_c, 0, 64, 47
1, 311900, Control_c, 0, 64, 48
1, 311904, Note_on_c, 0, 63, 92
1, 311915, Control_c, 0, 64, 49
1, 311929, Note_on_c, 0, 60, 79
1, 311929, Control_c, 0, 64, 50
1, 311932, Note_off_c, 0, 63, 63
1, 311944, Control_c, 0, 64, 51
1, 311959, Control_c, 0, 64, 52
1, 311979, Note_off_c, 0, 60, 65
1, 311983, Note_on_c, 0, 64, 84
1, 311989, Control_c, 0, 64, 46
1, 312003, Note_off_c, 0, 64, 73
1, 312004, Control_c, 0, 64, 0
1, 312055, Note_on_c, 0, 64, 87
1, 312056, Note_on_c, 0, 69, 84
1, 312057, Note_on_c, 0, 60, 90
1, 312059, Note_on_c, 0, 65, 75
1, 312078, Control_c, 0, 64, 53
1, 312085, Note_off_c, 0, 60, 67
1, 312087, Note_off_c, 0, 64, 61
1, 312092, Control_c, 0, 64, 75
1, 312095, Note_off_c, 0, 65, 63
1, 312107, Control_c, 0, 64, 127
1, 312149, Note_on_c, 0, 64, 61
1, 312152, Note_on_c, 0, 60, 61
1, 312152, Note_on_c, 0, 65, 52
1, 312162, Note_on_c, 0, 40, 74
1, 312165, Note_on_c, 0, 52, 59
1, 312168, Note_off_c, 0, 60, 67
1, 312172, Note_off_c, 0, 64, 69
1, 312174, Note_off_c, 0, 65, 60
1, 312186, Note_off_c, 0, 52, 62
1, 312192, Note_off_c, 0, 69, 63
1, 312193, Note_off_c, 0, 40, 64
1, 312233, Note_on_c, 0, 52, 78
1, 312233, Poly_aftertouch_c, 0, 40, 0
1, 312265, Note_off_c, 0, 52, 66
1, 312301, Note_on_c, 0, 64, 93
1, 312336, Note_off_c, 0, 64, 63
1, 312360, Control_c, 0, 64, 101
1, 312375, Note_on_c, 0, 63, 91
1, 312375, Control_c, 0, 64, 86
1, 312389, Control_c, 0, 64, 78
1, 312395, Note_off_c, 0, 63, 69
1, 312399, Note_on_c, 0, 60, 83
1, 312404, Control_c, 0, 64, 71
1, 312427, Control_c, 0, 64, 65
1, 312442, Control_c, 0, 64, 60
1, 312452, Note_off_c, 0, 60, 61
1, 312457, Control_c, 0, 64, 55
1, 312471, Control_c, 0, 64, 54
1, 312479, Note_on_c, 0, 64, 86
1, 312486, Control_c, 0, 64, 51
1, 312501, Control_c, 0, 64, 49
1, 312509, Note_off_c, 0, 64, 62
1, 312516, Control_c, 0, 64, 49
1, 312534, Note_on_c, 0, 69, 98
1, 312558, Control_c, 0, 64, 48
1, 312576, Note_off_c, 0, 69, 64
1, 312607, Note_on_c, 0, 68, 89
1, 312618, Note_on_c, 0, 64, 85
1, 312632, Note_off_c, 0, 68, 67
1, 312648, Control_c, 0, 64, 49
1, 312671, Note_off_c, 0, 64, 64
1, 312697, Note_on_c, 0, 69, 88
1, 312736, Note_off_c, 0, 69, 66
1, 312761, Note_on_c, 0, 72, 99
1, 312795, Control_c, 0, 64, 49
1, 312796, Note_off_c, 0, 72, 67
1, 312825, Control_c, 0, 64, 50
1, 312832, Note_on_c, 0, 71, 92
1, 312840, Control_c, 0, 64, 50
1, 312853, Note_on_c, 0, 69, 90
1, 312855, Control_c, 0, 64, 51
1, 312884, Control_c, 0, 64, 51
1, 312901, Note_off_c, 0, 71, 62
1, 312907, Note_off_c, 0, 69, 64
1, 312913, Control_c, 0, 64, 49
1, 312919, Note_on_c, 0, 72, 87
1, 312928, Control_c, 0, 64, 0
1, 312936, Note_off_c, 0, 72, 73
1, 312990, Note_on_c, 0, 69, 89
1, 312993, Note_on_c, 0, 76, 80
1, 312993, Note_on_c, 0, 77, 76
1, 312994, Note_on_c, 0, 72, 82
1, 312994, Note_on_c, 0, 73, 58
1, 312995, Note_off_c, 0, 73, 127
1, 312996, Note_on_c, 0, 79, 73
1, 313002, Control_c, 0, 64, 58
1, 313015, Note_off_c, 0, 72, 71
1, 313017, Control_c, 0, 64, 77
1, 313020, Note_off_c, 0, 69, 60
1, 313020, Note_off_c, 0, 79, 68
1, 313031, Note_off_c, 0, 76, 65
1, 313032, Control_c, 0, 64, 127
1, 313035, Note_off_c, 0, 77, 60
1, 313068, Poly_aftertouch_c, 0, 76, 0
1, 313069, Note_on_c, 0, 77, 77
1, 313071, Note_on_c, 0, 69, 82
1, 313073, Note_on_c, 0, 76, 77
1, 313080, Note_on_c, 0, 72, 79
1, 313091, Poly_aftertouch_c, 0, 71, 0
1, 313093, Note_off_c, 0, 69, 66
1, 313096, Note_on_c, 0, 40, 62
1, 313097, Note_on_c, 0, 53, 56
1, 313098, Note_off_c, 0, 72, 72
1, 313120, Note_off_c, 0, 76, 63
1, 313122, Note_off_c, 0, 53, 60
1, 313123, Note_off_c, 0, 40, 59
1, 313126, Note_off_c, 0, 77, 63
1, 313155, Note_on_c, 0, 52, 76
1, 313174, Note_on_c, 0, 40, 69
1, 313193, Note_off_c, 0, 40, 65
1, 313205, Note_off_c, 0, 52, 67
1, 313235, Note_on_c, 0, 76, 101
1, 313272, Note_off_c, 0, 76, 68
1, 313298, Poly_aftertouch_c, 0, 53, 0
1, 313311, Note_on_c, 0, 75, 99
1, 313339, Note_on_c, 0, 72, 89
1, 313345, Note_off_c, 0, 75, 63
1, 313390, Note_off_c, 0, 72, 65
1, 313415, Note_on_c, 0, 76, 88
1, 313455, Note_off_c, 0, 76, 63
1, 313459, Note_on_c, 0, 81, 101
1, 313471, Control_c, 0, 64, 115
1, 313486, Control_c, 0, 64, 84
1, 313497, Note_off_c, 0, 81, 69
1, 313500, Control_c, 0, 64, 71
1, 313515, Control_c, 0, 64, 65
1, 313530, Control_c, 0, 64, 63
1, 313536, Note_on_c, 0, 80, 97
1, 313560, Control_c, 0, 64, 62
1, 313561, Note_on_c, 0, 76, 76
1, 313569, Note_on_c, 0, 77, 78
1, 313575, Note_off_c, 0, 80, 65
1, 313575, Control_c, 0, 64, 61
1, 313590, Control_c, 0, 64, 61
1, 313602, Note_off_c, 0, 77, 58
1, 313605, Note_off_c, 0, 76, 66
1, 313619, Control_c, 0, 64, 60
1, 313634, Note_on_c, 0, 81, 90
1, 313649, Control_c, 0, 64, 60
1, 313671, Note_off_c, 0, 81, 65
1, 313691, Note_on_c, 0, 84, 99
1, 313708, Control_c, 0, 64, 59
1, 313727, Note_off_c, 0, 84, 66
1, 313752, Control_c, 0, 64, 59
1, 313766, Note_on_c, 0, 83, 95
1, 313778, Note_on_c, 0, 72, 89
1, 313797, Control_c, 0, 64, 58
1, 313799, Note_off_c, 0, 83, 67
1, 313811, Control_c, 0, 64, 58
1, 313825, Note_off_c, 0, 72, 64
1, 313856, Control_c, 0, 64, 57
1, 313857, Note_on_c, 0, 76, 93
1, 313872, Control_c, 0, 64, 57
1, 313887, Control_c, 0, 64, 56
1, 313898, Note_off_c, 0, 76, 64
1, 313902, Control_c, 0, 64, 56
1, 313924, Note_on_c, 0, 88, 98
1, 313966, Note_off_c, 0, 88, 67
1, 314004, Note_on_c, 0, 87, 99
1, 314010, Note_on_c, 0, 69, 90
1, 314049, Note_off_c, 0, 87, 65
1, 314060, Note_off_c, 0, 69, 62
1, 314087, Note_on_c, 0, 72, 95
1, 314127, Note_off_c, 0, 72, 64
1, 314156, Note_on_c, 0, 94, 94
1, 314201, Note_off_c, 0, 94, 66
1, 314231, Note_on_c, 0, 93, 27
1, 314232, Note_off_c, 0, 93, 127
1, 314243, Note_on_c, 0, 64, 86
1, 314257, Note_on_c, 0, 92, 94
1, 314277, Note_off_c, 0, 92, 56
1, 314283, Note_on_c, 0, 91, 66
1, 314290, Note_off_c, 0, 64, 64
1, 314301, Note_off_c, 0, 91, 66
1, 314313, Note_on_c, 0, 69, 81
1, 314323, Control_c, 0, 64, 55
1, 314348, Note_off_c, 0, 69, 67
1, 314393, Note_on_c, 0, 96, 104
1, 314417, Note_on_c, 0, 98, 47
1, 314418, Note_off_c, 0, 98, 127
1, 314439, Note_off_c, 0, 96, 68
1, 314475, Note_on_c, 0, 84, 87
1, 314505, Note_off_c, 0, 84, 65
1, 314560, Control_c, 0, 64, 55
1, 314574, Note_on_c, 0, 62, 68
1, 314575, Control_c, 0, 64, 54
1, 314590, Control_c, 0, 64, 54
1, 314605, Control_c, 0, 64, 53
1, 314620, Control_c, 0, 64, 52
1, 314626, Note_off_c, 0, 62, 53
1, 314634, Control_c, 0, 64, 51
1, 314649, Note_on_c, 0, 60, 69
1, 314649, Control_c, 0, 64, 50
1, 314653, Note_on_c, 0, 98, 74
1, 314672, Control_c, 0, 64, 49
1, 314687, Control_c, 0, 64, 49
1, 314702, Control_c, 0, 64, 48
1, 314717, Control_c, 0, 64, 47
1, 314721, Note_off_c, 0, 60, 63
1, 314728, Note_off_c, 0, 98, 62
1, 314732, Control_c, 0, 64, 46
1, 314743, Note_on_c, 0, 59, 60
1, 314746, Control_c, 0, 64, 45
1, 314749, Note_on_c, 0, 100, 71
1, 314761, Control_c, 0, 64, 44
1, 314776, Control_c, 0, 64, 42
1, 314783, Note_off_c, 0, 59, 64
1, 314791, Control_c, 0, 64, 41
1, 314801, Note_off_c, 0, 100, 62
1, 314806, Control_c, 0, 64, 40
1, 314821, Note_on_c, 0, 57, 58
1, 314821, Control_c, 0, 64, 35
1, 314830, Note_on_c, 0, 101, 72
1, 314836, Control_c, 0, 64, 0
1, 314865, Note_off_c, 0, 57, 62
1, 314886, Note_on_c, 0, 55, 58
1, 314888, Note_off_c, 0, 101, 64
1, 314898, Note_on_c, 0, 103, 80
1, 314925, Control_c, 0, 64, 40
1, 314939, Control_c, 0, 64, 60
1, 314940, Note_off_c, 0, 55, 56
1, 314954, Control_c, 0, 64, 65
1, 314969, Control_c, 0, 64, 68
1, 314970, Note_off_c, 0, 103, 55
1, 314973, Note_on_c, 0, 60, 51
1, 314984, Control_c, 0, 64, 73
1, 314987, Note_on_c, 0, 100, 74
1, 314998, Control_c, 0, 64, 77
1, 315013, Control_c, 0, 64, 81
1, 315015, Note_off_c, 0, 60, 65
1, 315028, Control_c, 0, 64, 81
1, 315035, Note_off_c, 0, 100, 62
1, 315043, Control_c, 0, 64, 82
1, 315057, Note_on_c, 0, 96, 66
1, 315062, Note_on_c, 0, 64, 52
1, 315087, Control_c, 0, 64, 82
1, 315092, Note_off_c, 0, 96, 65
1, 315097, Note_off_c, 0, 64, 59
1, 315131, Note_on_c, 0, 60, 57
1, 315136, Note_on_c, 0, 100, 76
1, 315174, Note_off_c, 0, 60, 64
1, 315199, Note_on_c, 0, 64, 52
1, 315212, Note_off_c, 0, 100, 60
1, 315217, Note_on_c, 0, 96, 68
1, 315240, Note_off_c, 0, 64, 65
1, 315273, Note_off_c, 0, 96, 65
1, 315291, Note_on_c, 0, 67, 49
1, 315295, Control_c, 0, 64, 81
1, 315298, Note_on_c, 0, 91, 62
1, 315309, Control_c, 0, 64, 78
1, 315321, Note_off_c, 0, 67, 57
1, 315324, Control_c, 0, 64, 72
1, 315334, Note_off_c, 0, 91, 64
1, 315339, Control_c, 0, 64, 64
1, 315354, Note_on_c, 0, 55, 57
1, 315354, Control_c, 0, 64, 57
1, 315369, Control_c, 0, 64, 59
1, 315374, Note_on_c, 0, 96, 74
1, 315383, Control_c, 0, 64, 61
1, 315398, Control_c, 0, 64, 63
1, 315420, Control_c, 0, 64, 66
1, 315429, Note_off_c, 0, 55, 52
1, 315435, Control_c, 0, 64, 69
1, 315450, Control_c, 0, 64, 74
1, 315461, Note_on_c, 0, 60, 50
1, 315466, Note_on_c, 0, 91, 64
1, 315466, Control_c, 0, 64, 77
1, 315469, Note_off_c, 0, 96, 62
1, 315481, Control_c, 0, 64, 79
1, 315495, Control_c, 0, 64, 80
1, 315503, Note_off_c, 0, 60, 65
1, 315518, Note_off_c, 0, 91, 63
1, 315542, Note_on_c, 0, 88, 61
1, 315556, Note_on_c, 0, 64, 50
1, 315578, Note_off_c, 0, 88, 63
1, 315591, Note_off_c, 0, 64, 58
1, 315613, Control_c, 0, 64, 80
1, 315614, Note_on_c, 0, 60, 57
1, 315625, Note_on_c, 0, 91, 73
1, 315673, Note_off_c, 0, 60, 58
1, 315693, Note_off_c, 0, 91, 56
1, 315702, Note_on_c, 0, 64, 54
1, 315707, Note_on_c, 0, 88, 63
1, 315732, Control_c, 0, 64, 80
1, 315746, Note_off_c, 0, 64, 62
1, 315760, Note_off_c, 0, 88, 60
1, 315796, Note_on_c, 0, 84, 61
1, 315799, Note_on_c, 0, 67, 49
1, 315806, Control_c, 0, 64, 79
1, 315820, Control_c, 0, 64, 74
1, 315831, Note_off_c, 0, 67, 59
1, 315835, Control_c, 0, 64, 66
1, 315839, Note_off_c, 0, 84, 63
1, 315850, Control_c, 0, 64, 59
1, 315861, Note_on_c, 0, 55, 59
1, 315865, Control_c, 0, 64, 58
1, 315867, Note_on_c, 0, 91, 71
1, 315880, Control_c, 0, 64, 61
1, 315894, Control_c, 0, 64, 63
1, 315909, Control_c, 0, 64, 65
1, 315922, Note_off_c, 0, 55, 55
1, 315924, Control_c, 0, 64, 69
1, 315936, Note_off_c, 0, 91, 57
1, 315939, Control_c, 0, 64, 73
1, 315949, Note_on_c, 0, 88, 63
1, 315954, Control_c, 0, 64, 76
1, 315962, Note_on_c, 0, 60, 50
1, 315968, Control_c, 0, 64, 78
1, 315983, Control_c, 0, 64, 79
1, 315998, Note_off_c, 0, 60, 65
1, 315998, Note_off_c, 0, 88, 63
1, 316022, Note_on_c, 0, 84, 66
1, 316036, Note_on_c, 0, 64, 58
1, 316057, Note_off_c, 0, 84, 62
1, 316058, Control_c, 0, 64, 79
1, 316073, Note_off_c, 0, 64, 62
1, 316100, Note_on_c, 0, 88, 77
1, 316101, Note_on_c, 0, 60, 59
1, 316165, Note_off_c, 0, 60, 57
1, 316186, Note_on_c, 0, 84, 73
1, 316186, Note_off_c, 0, 88, 62
1, 316192, Note_on_c, 0, 64, 56
1, 316213, Control_c, 0, 64, 80
1, 316228, Control_c, 0, 64, 80
1, 316236, Note_off_c, 0, 64, 65
1, 316243, Control_c, 0, 64, 81
1, 316249, Note_off_c, 0, 84, 61
1, 316258, Control_c, 0, 64, 82
1, 316269, Note_on_c, 0, 79, 74
1, 316273, Control_c, 0, 64, 82
1, 316275, Note_on_c, 0, 67, 56
1, 316288, Control_c, 0, 64, 83
1, 316303, Control_c, 0, 64, 81
1, 316310, Note_off_c, 0, 67, 66
1, 316314, Note_off_c, 0, 79, 61
1, 316317, Control_c, 0, 64, 74
1, 316332, Control_c, 0, 64, 63
1, 316341, Note_on_c, 0, 55, 77
1, 316343, Note_on_c, 0, 84, 89
1, 316347, Control_c, 0, 64, 48
1, 316362, Control_c, 0, 64, 50
1, 316377, Control_c, 0, 64, 55
1, 316392, Control_c, 0, 64, 60
1, 316407, Control_c, 0, 64, 65
1, 316407, Note_off_c, 0, 55, 63
1, 316418, Note_on_c, 0, 79, 83
1, 316419, Note_off_c, 0, 84, 63
1, 316421, Note_on_c, 0, 60, 63
1, 316422, Control_c, 0, 64, 70
1, 316436, Control_c, 0, 64, 78
1, 316451, Control_c, 0, 64, 85
1, 316466, Control_c, 0, 64, 87
1, 316468, Note_off_c, 0, 60, 64
1, 316469, Note_off_c, 0, 79, 65
1, 316492, Note_on_c, 0, 76, 77
1, 316499, Note_on_c, 0, 64, 71
1, 316558, Note_off_c, 0, 64, 58
1, 316558, Note_off_c, 0, 76, 57
1, 316567, Note_on_c, 0, 79, 84
1, 316575, Note_on_c, 0, 60, 79
1, 316635, Note_on_c, 0, 84, 82
1, 316636, Note_off_c, 0, 60, 62
1, 316639, Note_off_c, 0, 79, 66
1, 316643, Control_c, 0, 64, 88
1, 316648, Note_on_c, 0, 64, 67
1, 316656, Note_off_c, 0, 84, 70
1, 316658, Control_c, 0, 64, 88
1, 316673, Control_c, 0, 64, 89
1, 316686, Note_off_c, 0, 64, 64
1, 316688, Control_c, 0, 64, 91
1, 316703, Control_c, 0, 64, 94
1, 316705, Note_on_c, 0, 67, 75
1, 316717, Control_c, 0, 64, 100
1, 316728, Note_off_c, 0, 67, 69
1, 316732, Control_c, 0, 64, 109
1, 316747, Control_c, 0, 64, 127
1, 316761, Note_on_c, 0, 90, 81
1, 316763, Note_on_c, 0, 92, 83
1, 316765, Note_on_c, 0, 85, 80
1, 316786, Note_off_c, 0, 92, 69
1, 316786, Note_off_c, 0, 85, 72
1, 316786, Note_off_c, 0, 90, 66
1, 316791, Control_c, 0, 64, 97
1, 316806, Control_c, 0, 64, 71
1, 316821, Control_c, 0, 64, 59
1, 316832, Note_on_c, 0, 92, 101
1, 316836, Control_c, 0, 64, 64
1, 316838, Note_on_c, 0, 85, 92
1, 316838, Note_on_c, 0, 89, 87
1, 316851, Control_c, 0, 64, 71
1, 316851, Note_on_c, 0, 40, 94
1, 316857, Note_off_c, 0, 85, 70
1, 316860, Note_off_c, 0, 89, 66
1, 316866, Control_c, 0, 64, 83
1, 316878, Note_off_c, 0, 92, 65
1, 316881, Control_c, 0, 64, 127
1, 316915, Note_off_c, 0, 40, 63
1, 316945, Note_on_c, 0, 52, 81
1, 316970, Note_off_c, 0, 52, 67
1, 317012, Note_on_c, 0, 90, 85
1, 317018, Note_on_c, 0, 80, 78
1, 317040, Note_off_c, 0, 80, 70
1, 317059, Note_off_c, 0, 90, 60
1, 317067, Control_c, 0, 64, 81
1, 317074, Note_on_c, 0, 90, 77
1, 317081, Note_on_c, 0, 80, 90
1, 317082, Control_c, 0, 64, 60
1, 317097, Control_c, 0, 64, 54
1, 317105, Note_on_c, 0, 28, 92
1, 317110, Note_on_c, 0, 86, 14
1, 317112, Control_c, 0, 64, 63
1, 317119, Note_off_c, 0, 80, 62
1, 317127, Control_c, 0, 64, 71
1, 317131, Note_off_c, 0, 86, 32
1, 317131, Note_off_c, 0, 90, 64
1, 317141, Control_c, 0, 64, 85
1, 317156, Control_c, 0, 64, 127
1, 317164, Note_on_c, 0, 80, 75
1, 317167, Note_off_c, 0, 28, 62
1, 317182, Note_on_c, 0, 40, 80
1, 317187, Note_off_c, 0, 80, 68
1, 317202, Note_on_c, 0, 79, 55
1, 317211, Note_off_c, 0, 40, 67
1, 317223, Note_off_c, 0, 79, 62
1, 317253, Note_on_c, 0, 77, 85
1, 317255, Note_on_c, 0, 85, 83
1, 317259, Note_on_c, 0, 80, 58
1, 317273, Note_off_c, 0, 77, 71
1, 317274, Note_off_c, 0, 85, 72
1, 317284, Note_off_c, 0, 80, 63
1, 317304, Control_c, 0, 64, 93
1, 317319, Control_c, 0, 64, 64
1, 317329, Note_on_c, 0, 80, 91
1, 317330, Note_on_c, 0, 85, 91
1, 317334, Note_on_c, 0, 77, 82
1, 317334, Control_c, 0, 64, 46
1, 317340, Note_on_c, 0, 40, 87
1, 317349, Control_c, 0, 64, 60
1, 317361, Note_off_c, 0, 77, 66
1, 317363, Control_c, 0, 64, 67
1, 317370, Note_off_c, 0, 85, 63
1, 317372, Note_off_c, 0, 80, 61
1, 317378, Control_c, 0, 64, 79
1, 317392, Note_off_c, 0, 40, 60
1, 317393, Control_c, 0, 64, 127
1, 317418, Note_on_c, 0, 52, 86
1, 317448, Note_off_c, 0, 52, 67
1, 317524, Note_on_c, 0, 77, 78
1, 317524, Note_on_c, 0, 80, 80
1, 317527, Note_on_c, 0, 73, 76
1, 317549, Note_off_c, 0, 77, 69
1, 317550, Note_off_c, 0, 73, 70
1, 317551, Note_off_c, 0, 80, 64
1, 317556, Control_c, 0, 64, 102
1, 317571, Control_c, 0, 64, 66
1, 317585, Control_c, 0, 64, 46
1, 317590, Note_on_c, 0, 77, 99
1, 317590, Note_on_c, 0, 80, 80
1, 317600, Control_c, 0, 64, 59
1, 317602, Note_on_c, 0, 73, 71
1, 317603, Note_on_c, 0, 28, 94
1, 317615, Control_c, 0, 64, 66
1, 317623, Note_off_c, 0, 73, 65
1, 317628, Note_off_c, 0, 77, 62
1, 317630, Control_c, 0, 64, 75
1, 317645, Control_c, 0, 64, 103
1, 317648, Note_off_c, 0, 80, 64
1, 317665, Note_off_c, 0, 28, 59
1, 317667, Control_c, 0, 64, 127
1, 317692, Note_on_c, 0, 40, 83
1, 317736, Note_off_c, 0, 40, 61
1, 317784, Note_on_c, 0, 78, 88
1, 317790, Note_on_c, 0, 74, 72
1, 317796, Note_on_c, 0, 81, 64
1, 317800, Control_c, 0, 64, 97
1, 317815, Note_off_c, 0, 74, 69
1, 317815, Control_c, 0, 64, 64
1, 317816, Note_off_c, 0, 78, 63
1, 317820, Note_off_c, 0, 81, 65
1, 317830, Control_c, 0, 64, 17
1, 317845, Control_c, 0, 64, 40
1, 317851, Note_on_c, 0, 78, 85
1, 317852, Note_on_c, 0, 81, 94
1, 317853, Note_on_c, 0, 74, 84
1, 317858, Note_on_c, 0, 40, 94
1, 317860, Control_c, 0, 64, 61
1, 317876, Control_c, 0, 64, 70
1, 317883, Note_off_c, 0, 78, 66
1, 317885, Note_off_c, 0, 74, 63
1, 317890, Control_c, 0, 64, 94
1, 317891, Note_off_c, 0, 81, 64
1, 317905, Control_c, 0, 64, 127
1, 317915, Note_off_c, 0, 40, 64
1, 317949, Note_on_c, 0, 52, 85
1, 317978, Note_off_c, 0, 52, 67
1, 318055, Note_on_c, 0, 74, 76
1, 318060, Note_on_c, 0, 69, 83
1, 318065, Note_on_c, 0, 66, 67
1, 318082, Note_off_c, 0, 74, 64
1, 318083, Control_c, 0, 64, 100
1, 318085, Note_off_c, 0, 69, 65
1, 318093, Note_off_c, 0, 66, 68
1, 318097, Control_c, 0, 64, 64
1, 318112, Control_c, 0, 64, 0
1, 318127, Control_c, 0, 64, 36
1, 318133, Note_on_c, 0, 28, 85
1, 318136, Note_on_c, 0, 69, 79
1, 318140, Note_on_c, 0, 66, 72
1, 318142, Control_c, 0, 64, 57
1, 318152, Note_on_c, 0, 74, 71
1, 318153, Note_on_c, 0, 73, 45
1, 318156, Control_c, 0, 64, 65
1, 318164, Note_off_c, 0, 69, 63
1, 318165, Note_off_c, 0, 66, 69
1, 318171, Control_c, 0, 64, 77
1, 318183, Note_off_c, 0, 74, 61
1, 318186, Control_c, 0, 64, 112
1, 318190, Note_off_c, 0, 73, 62
1, 318198, Note_off_c, 0, 28, 57
1, 318201, Note_on_c, 0, 34, 34
1, 318201, Control_c, 0, 64, 127
1, 318215, Note_on_c, 0, 65, 78
1, 318221, Note_on_c, 0, 40, 81
1, 318242, Note_off_c, 0, 34, 57
1, 318257, Note_off_c, 0, 40, 64
1, 318264, Note_off_c, 0, 65, 64
1, 318312, Note_on_c, 0, 66, 85
1, 318319, Note_on_c, 0, 70, 74
1, 318326, Note_on_c, 0, 75, 62
1, 318332, Note_off_c, 0, 66, 69
1, 318342, Note_off_c, 0, 70, 70
1, 318354, Note_off_c, 0, 75, 63
1, 318379, Control_c, 0, 64, 71
1, 318388, Note_on_c, 0, 66, 91
1, 318389, Note_on_c, 0, 75, 95
1, 318394, Control_c, 0, 64, 33
1, 318395, Note_on_c, 0, 70, 89
1, 318398, Note_on_c, 0, 40, 81
1, 318409, Note_off_c, 0, 66, 69
1, 318412, Note_on_c, 0, 67, 79
1, 318416, Control_c, 0, 64, 42
1, 318431, Control_c, 0, 64, 62
1, 318434, Note_off_c, 0, 67, 70
1, 318446, Control_c, 0, 64, 70
1, 318448, Note_off_c, 0, 70, 66
1, 318454, Note_off_c, 0, 75, 63
1, 318460, Control_c, 0, 64, 111
1, 318467, Note_off_c, 0, 40, 62
1, 318475, Control_c, 0, 64, 127
1, 318495, Note_on_c, 0, 52, 82
1, 318521, Note_off_c, 0, 52, 70
1, 318600, Note_on_c, 0, 64, 53
1, 318606, Note_on_c, 0, 59, 53
1, 318610, Note_on_c, 0, 68, 73
1, 318633, Note_off_c, 0, 59, 65
1, 318637, Note_off_c, 0, 68, 67
1, 318639, Note_off_c, 0, 64, 66
1, 318653, Control_c, 0, 64, 76
1, 318669, Control_c, 0, 64, 13
1, 318677, Note_on_c, 0, 68, 88
1, 318681, Note_on_c, 0, 59, 93
1, 318684, Control_c, 0, 64, 0
1, 318685, Note_on_c, 0, 64, 70
1, 318687, Note_on_c, 0, 28, 85
1, 318727, Note_off_c, 0, 59, 64
1, 318728, Control_c, 0, 64, 59
1, 318732, Note_off_c, 0, 64, 60
1, 318743, Control_c, 0, 64, 74
1, 318755, Note_off_c, 0, 28, 63
1, 318758, Control_c, 0, 64, 127
1, 318759, Note_off_c, 0, 68, 59
1, 318774, Note_on_c, 0, 40, 79
1, 318824, Note_off_c, 0, 40, 63
1, 318906, Control_c, 0, 64, 97
1, 318908, Note_on_c, 0, 57, 83
1, 318908, Note_on_c, 0, 69, 82
1, 318908, Note_on_c, 0, 64, 74
1, 318920, Control_c, 0, 64, 56
1, 318932, Note_off_c, 0, 57, 70
1, 318933, Note_off_c, 0, 69, 67
1, 318935, Note_off_c, 0, 64, 67
1, 318935, Control_c, 0, 64, 0
1, 318971, Note_on_c, 0, 45, 96
1, 318974, Note_on_c, 0, 69, 92
1, 318976, Note_on_c, 0, 33, 88
1, 318976, Note_on_c, 0, 57, 96
1, 318980, Note_on_c, 0, 64, 78
1, 318994, Control_c, 0, 64, 57
1, 319006, Note_off_c, 0, 69, 67
1, 319009, Note_off_c, 0, 57, 64
1, 319009, Control_c, 0, 64, 76
1, 319023, Note_off_c, 0, 45, 60
1, 319024, Control_c, 0, 64, 127
1, 319027, Note_off_c, 0, 33, 61
1, 319027, Note_off_c, 0, 64, 63
1, 319301, Note_on_c, 0, 53, 105
1, 319328, Control_c, 0, 64, 106
1, 319337, Note_off_c, 0, 53, 66
1, 319343, Control_c, 0, 64, 72
1, 319357, Control_c, 0, 64, 41
1, 319372, Control_c, 0, 64, 0
1, 319450, Note_on_c, 0, 52, 111
1, 319480, Note_off_c, 0, 52, 69
1, 319497, Note_on_c, 0, 53, 26
1, 319498, Note_off_c, 0, 53, 127
1, 319602, Note_on_c, 0, 57, 106
1, 319604, Note_on_c, 0, 52, 93
1, 319604, Note_on_c, 0, 62, 103
1, 319608, Note_on_c, 0, 40, 90
1, 319625, Control_c, 0, 64, 68
1, 319640, Control_c, 0, 64, 90
1, 319647, Note_off_c, 0, 57, 65
1, 319654, Control_c, 0, 64, 127
1, 319670, Note_off_c, 0, 62, 66
1, 319674, Note_off_c, 0, 52, 53
1, 319711, Note_off_c, 0, 40, 52
1, 319939, Note_on_c, 0, 60, 108
1, 319976, Note_off_c, 0, 60, 67
1, 319987, Control_c, 0, 64, 96
1, 320002, Control_c, 0, 64, 69
1, 320017, Control_c, 0, 64, 51
1, 320032, Control_c, 0, 64, 0
1, 320076, Note_on_c, 0, 59, 105
1, 320112, Note_off_c, 0, 59, 67
1, 320229, Note_on_c, 0, 38, 97
1, 320229, Note_on_c, 0, 45, 97
1, 320233, Note_on_c, 0, 61, 60
1, 320233, Note_on_c, 0, 69, 96
1, 320234, Note_on_c, 0, 62, 90
1, 320237, Note_on_c, 0, 66, 80
1, 320240, Control_c, 0, 64, 64
1, 320255, Control_c, 0, 64, 80
1, 320270, Control_c, 0, 64, 127
1, 320274, Note_off_c, 0, 61, 62
1, 320287, Note_off_c, 0, 62, 63
1, 320297, Note_off_c, 0, 69, 65
1, 320300, Note_off_c, 0, 66, 63
1, 320397, Note_off_c, 0, 38, 54
1, 320401, Note_off_c, 0, 45, 54
1, 320551, Note_on_c, 0, 54, 105
1, 320581, Control_c, 0, 64, 88
1, 320596, Control_c, 0, 64, 67
1, 320598, Note_off_c, 0, 54, 63
1, 320610, Control_c, 0, 64, 42
1, 320625, Control_c, 0, 64, 0
1, 320707, Note_on_c, 0, 52, 101
1, 320737, Note_off_c, 0, 52, 67
1, 320869, Note_on_c, 0, 57, 89
1, 320872, Note_on_c, 0, 62, 89
1, 320872, Note_on_c, 0, 69, 92
1, 320877, Note_on_c, 0, 40, 97
1, 320877, Note_on_c, 0, 47, 97
1, 320900, Control_c, 0, 64, 64
1, 320915, Control_c, 0, 64, 74
1, 320930, Control_c, 0, 64, 102
1, 320945, Control_c, 0, 64, 127
1, 320947, Note_off_c, 0, 57, 64
1, 320953, Note_off_c, 0, 62, 64
1, 320955, Note_off_c, 0, 69, 66
1, 321066, Note_off_c, 0, 47, 49
1, 321089, Note_off_c, 0, 40, 53
1, 321224, Note_on_c, 0, 60, 104
1, 321257, Control_c, 0, 64, 97
1, 321271, Control_c, 0, 64, 74
1, 321273, Note_off_c, 0, 60, 59
1, 321286, Control_c, 0, 64, 59
1, 321301, Control_c, 0, 64, 0
1, 321396, Note_on_c, 0, 59, 112
1, 321443, Note_off_c, 0, 59, 66
1, 321599, Note_on_c, 0, 45, 99
1, 321602, Note_on_c, 0, 33, 90
1, 321602, Note_on_c, 0, 57, 103
1, 321605, Note_on_c, 0, 64, 87
1, 321605, Note_on_c, 0, 69, 96
1, 321634, Control_c, 0, 64, 53
1, 321649, Control_c, 0, 64, 67
1, 321664, Control_c, 0, 64, 75
1, 321679, Control_c, 0, 64, 91
1, 321694, Control_c, 0, 64, 127
1, 321704, Note_off_c, 0, 57, 63
1, 321728, Note_off_c, 0, 69, 60
1, 321739, Note_off_c, 0, 33, 60
1, 321759, Note_off_c, 0, 64, 61
1, 321775, Note_off_c, 0, 45, 61
1, 322161, Control_c, 0, 64, 95
1, 322176, Control_c, 0, 64, 81
1, 322191, Control_c, 0, 64, 70
1, 322205, Control_c, 0, 64, 64
1, 322216, Note_on_c, 0, 68, 91
1, 322220, Control_c, 0, 64, 60
1, 322235, Control_c, 0, 64, 59
1, 322250, Control_c, 0, 64, 57
1, 322264, Control_c, 0, 64, 55
1, 322268, Note_off_c, 0, 68, 60
1, 322279, Control_c, 0, 64, 54
1, 322300, Note_on_c, 0, 69, 98
1, 322354, Control_c, 0, 64, 55
1, 322373, Note_off_c, 0, 69, 63
1, 322374, Note_on_c, 0, 71, 95
1, 322400, Note_off_c, 0, 71, 66
1, 322448, Note_on_c, 0, 72, 88
1, 322495, Note_off_c, 0, 72, 63
1, 322517, Control_c, 0, 64, 55
1, 322529, Note_on_c, 0, 74, 90
1, 322531, Control_c, 0, 64, 56
1, 322567, Note_off_c, 0, 74, 64
1, 322615, Note_on_c, 0, 76, 81
1, 322650, Control_c, 0, 64, 55
1, 322664, Note_off_c, 0, 76, 63
1, 322695, Control_c, 0, 64, 59
1, 322701, Note_on_c, 0, 61, 95
1, 322705, Note_on_c, 0, 49, 82
1, 322707, Note_on_c, 0, 53, 79
1, 322710, Control_c, 0, 64, 69
1, 322714, Note_on_c, 0, 65, 91
1, 322714, Note_on_c, 0, 73, 89
1, 322717, Note_on_c, 0, 77, 92
1, 322725, Control_c, 0, 64, 90
1, 322740, Control_c, 0, 64, 127
1, 322744, Note_off_c, 0, 61, 63
1, 322756, Note_off_c, 0, 65, 60
1, 322759, Note_off_c, 0, 73, 66
1, 322763, Note_off_c, 0, 53, 62
1, 322770, Note_off_c, 0, 77, 61
1, 322775, Note_off_c, 0, 49, 62
1, 322824, Note_on_c, 0, 61, 104
1, 322828, Note_on_c, 0, 49, 81
1, 322830, Note_on_c, 0, 53, 85
1, 322831, Note_on_c, 0, 77, 95
1, 322833, Note_on_c, 0, 65, 96
1, 322835, Note_on_c, 0, 73, 91
1, 322869, Note_off_c, 0, 61, 63
1, 322871, Note_off_c, 0, 65, 62
1, 322884, Note_off_c, 0, 73, 62
1, 322885, Note_off_c, 0, 77, 57
1, 322894, Note_off_c, 0, 49, 63
1, 322896, Note_off_c, 0, 53, 62
1, 322958, Note_on_c, 0, 61, 101
1, 322962, Note_on_c, 0, 65, 105
1, 322962, Note_on_c, 0, 53, 86
1, 322965, Note_on_c, 0, 73, 99
1, 322965, Note_on_c, 0, 77, 102
1, 322965, Note_on_c, 0, 49, 83
1, 322984, Control_c, 0, 64, 94
1, 322994, Note_off_c, 0, 65, 66
1, 322999, Control_c, 0, 64, 67
1, 323000, Note_off_c, 0, 61, 64
1, 323003, Note_off_c, 0, 73, 69
1, 323003, Note_off_c, 0, 77, 67
1, 323012, Control_c, 0, 64, 50
1, 323017, Note_off_c, 0, 53, 64
1, 323018, Note_off_c, 0, 49, 63
1, 323027, Control_c, 0, 64, 39
1, 323042, Control_c, 0, 64, 35
1, 323057, Control_c, 0, 64, 20
1, 323072, Control_c, 0, 64, 0
1, 323245, Note_on_c, 0, 61, 102
1, 323245, Note_on_c, 0, 65, 92
1, 323248, Note_on_c, 0, 77, 100
1, 323248, Note_on_c, 0, 73, 97
1, 323251, Note_on_c, 0, 53, 88
1, 323255, Note_on_c, 0, 49, 86
1, 323281, Note_on_c, 0, 74, 47
1, 323285, Note_off_c, 0, 65, 65
1, 323288, Note_off_c, 0, 61, 66
1, 323296, Note_off_c, 0, 73, 67
1, 323302, Note_off_c, 0, 77, 68
1, 323304, Note_off_c, 0, 74, 40
1, 323306, Note_off_c, 0, 49, 60
1, 323306, Note_off_c, 0, 53, 64
1, 323397, Control_c, 0, 64, 9
1, 323427, Control_c, 0, 64, 11
1, 323442, Control_c, 0, 64, 13
1, 323457, Control_c, 0, 64, 17
1, 323472, Control_c, 0, 64, 21
1, 323487, Control_c, 0, 64, 27
1, 323501, Control_c, 0, 64, 33
1, 323516, Control_c, 0, 64, 37
1, 323528, Note_on_c, 0, 61, 95
1, 323529, Note_on_c, 0, 65, 84
1, 323531, Note_on_c, 0, 77, 87
1, 323531, Control_c, 0, 64, 40
1, 323532, Note_on_c, 0, 73, 93
1, 323534, Note_on_c, 0, 49, 76
1, 323537, Note_on_c, 0, 53, 82
1, 323546, Control_c, 0, 64, 44
1, 323551, Note_off_c, 0, 65, 70
1, 323561, Control_c, 0, 64, 46
1, 323567, Note_off_c, 0, 49, 67
1, 323567, Note_off_c, 0, 53, 67
1, 323570, Note_off_c, 0, 73, 67
1, 323576, Control_c, 0, 64, 46
1, 323578, Note_off_c, 0, 77, 67
1, 323579, Note_off_c, 0, 61, 63
1, 323591, Control_c, 0, 64, 47
1, 323606, Control_c, 0, 64, 47
1, 323620, Control_c, 0, 64, 48
1, 323635, Control_c, 0, 64, 48
1, 323657, Control_c, 0, 64, 49
1, 323672, Control_c, 0, 64, 49
1, 323713, Note_on_c, 0, 75, 46
1, 323737, Note_off_c, 0, 75, 57
1, 323746, Control_c, 0, 64, 48
1, 323761, Control_c, 0, 64, 45
1, 323775, Control_c, 0, 64, 32
1, 323790, Control_c, 0, 64, 0
1, 323845, Note_on_c, 0, 76, 99
1, 323846, Note_on_c, 0, 72, 101
1, 323847, Note_on_c, 0, 84, 101
1, 323847, Note_on_c, 0, 60, 97
1, 323848, Note_on_c, 0, 64, 99
1, 323849, Note_on_c, 0, 81, 89
1, 323850, Control_c, 0, 64, 45
1, 323854, Note_on_c, 0, 57, 85
1, 323865, Control_c, 0, 64, 70
1, 323880, Control_c, 0, 64, 127
1, 323887, Note_off_c, 0, 72, 67
1, 323893, Note_off_c, 0, 76, 67
1, 323893, Note_off_c, 0, 84, 68
1, 323908, Note_off_c, 0, 81, 66
1, 324028, Note_off_c, 0, 64, 54
1, 324042, Note_off_c, 0, 57, 50
1, 324060, Note_off_c, 0, 60, 52
1, 324324, Control_c, 0, 64, 91
1, 324339, Control_c, 0, 64, 67
1, 324354, Control_c, 0, 64, 45
1, 324369, Control_c, 0, 64, 0
1, 324529, Note_on_c, 0, 45, 99
1, 324532, Note_on_c, 0, 33, 99
1, 324536, Note_on_c, 0, 21, 94
1, 324539, Control_c, 0, 64, 46
1, 324554, Control_c, 0, 64, 72
1, 324569, Control_c, 0, 64, 127
1, 324579, Note_off_c, 0, 21, 65
1, 324597, Note_off_c, 0, 33, 64
1, 324675, Note_off_c, 0, 45, 57
1, 324903, Note_on_c, 0, 52, 108
1, 324971, Note_off_c, 0, 52, 62
1, 325339, Note_on_c, 0, 93, 91
1, 325340, Note_on_c, 0, 81, 88
1, 325356, Note_off_c, 0, 93, 74
1, 325358, Note_off_c, 0, 81, 73
1, 325403, Note_on_c, 0, 81, 101
1, 325404, Note_on_c, 0, 93, 107
1, 325409, Note_on_c, 0, 69, 106
1, 325410, Note_on_c, 0, 57, 100
1, 325445, Note_off_c, 0, 81, 64
1, 325450, Note_off_c, 0, 93, 70
1, 325493, Note_off_c, 0, 57, 60
1, 325537, Note_off_c, 0, 69, 52
1, 326452, Control_c, 0, 64, 123
1, 326467, Control_c, 0, 64, 99
1, 326482, Control_c, 0, 64, 88
1, 326496, Control_c, 0, 64, 81
1, 326511, Control_c, 0, 64, 76
1, 326526, Control_c, 0, 64, 72
1, 326541, Control_c, 0, 64, 70
1, 326556, Control_c, 0, 64, 67
1, 326570, Control_c, 0, 64, 63
1, 326585, Control_c, 0, 64, 59
1, 326600, Control_c, 0, 64, 54
1, 326614, Control_c, 0, 64, 48
1, 326629, Control_c, 0, 64, 42
1, 326652, Control_c, 0, 64, 30
1, 326667, Control_c, 0, 64, 0
1, 326742, End_track
0, 0, End_of_file
