0, 0, Header, 0, 1, 384
1, 0, Start_track
1, 0, Title_t, "Sonata K. 333--Adam Zukiewicz   "
1, 0, Text_t, "2009 Piano-e-Competition audition round"
1, 0, Text_t, "captured January 2009"
1, 0, Text_t, "http://www.piano-e-competition.com/"
1, 0, Text_t, "File processed for distribution by software from Zenph Studios, Inc., http://www.zenph.com"
1, 0, Instrument_name_t, "Yamaha Disklavier Pro Mark IV concert grand piano, model DCFIIISM4PRO"
1, 0, Sequencer_specific, 39, 67, 113, 0, 1, 0, 1, 0, 83, 111, 110, 97, 116, 97, 32, 75, 46, 32, 51, 51, 51, 32, 32, 32, 65, 100, 97, 109, 32, 90, 117, 107, 105, 101, 119, 105, 99, 122, 32, 32
1, 0, Sequencer_specific, 6, 67, 113, 0, 0, 0, 69
1, 0, System_exclusive, 21, 67, 113, 126, 21, 0, 2, 2, 0, 3, 14, 1, 4, 1, 13, 13, 10, 11, 9, 2, 7, 247
1, 0, Sequencer_specific, 5, 67, 123, 12, 2, 1
1, 0, Tempo, 512820
1, 0, Time_signature, 4, 2, 24, 8
1, 0, System_exclusive, 5, 126, 127, 9, 1, 247
1, 1, System_exclusive, 8, 67, 16, 76, 0, 0, 126, 0, 247
1, 2, System_exclusive, 8, 67, 16, 76, 8, 9, 7, 1, 247
1, 3, Control_c, 0, 0, 0
1, 3, Control_c, 1, 0, 0
1, 3, Control_c, 2, 0, 0
1, 3, Control_c, 3, 0, 0
1, 3, Control_c, 4, 0, 0
1, 3, Control_c, 5, 0, 0
1, 3, Control_c, 6, 0, 0
1, 3, Control_c, 7, 0, 0
1, 3, Control_c, 8, 0, 0
1, 3, Control_c, 9, 0, 127
1, 3, Control_c, 10, 0, 0
1, 3, Control_c, 11, 0, 0
1, 3, Control_c, 12, 0, 0
1, 3, Control_c, 13, 0, 0
1, 3, Control_c, 14, 0, 0
1, 3, Control_c, 15, 0, 0
1, 4, Control_c, 0, 32, 0
1, 4, Control_c, 1, 32, 0
1, 4, Control_c, 2, 32, 0
1, 4, Control_c, 3, 32, 0
1, 4, Control_c, 4, 32, 0
1, 4, Control_c, 5, 32, 0
1, 4, Control_c, 6, 32, 0
1, 4, Control_c, 7, 32, 0
1, 4, Control_c, 8, 32, 0
1, 4, Control_c, 9, 32, 0
1, 4, Control_c, 10, 32, 0
1, 4, Control_c, 11, 32, 0
1, 4, Control_c, 12, 32, 0
1, 4, Control_c, 13, 32, 0
1, 4, Control_c, 14, 32, 0
1, 4, Control_c, 15, 32, 0
1, 5, Program_c, 0, 0
1, 5, Program_c, 1, 0
1, 5, Program_c, 2, 0
1, 5, Program_c, 3, 0
1, 5, Program_c, 4, 0
1, 5, Program_c, 5, 0
1, 5, Program_c, 6, 0
1, 5, Program_c, 7, 0
1, 5, Program_c, 8, 0
1, 5, Program_c, 9, 0
1, 5, Program_c, 10, 0
1, 5, Program_c, 11, 0
1, 5, Program_c, 12, 0
1, 5, Program_c, 13, 0
1, 5, Program_c, 14, 0
1, 5, Program_c, 15, 0
1, 6, Control_c, 0, 7, 100
1, 6, Control_c, 1, 7, 100
1, 6, Control_c, 2, 7, 100
1, 6, Control_c, 3, 7, 100
1, 6, Control_c, 4, 7, 100
1, 6, Control_c, 5, 7, 100
1, 6, Control_c, 6, 7, 100
1, 6, Control_c, 7, 7, 100
1, 6, Control_c, 8, 7, 100
1, 6, Control_c, 9, 7, 100
1, 6, Control_c, 10, 7, 100
1, 6, Control_c, 11, 7, 100
1, 6, Control_c, 12, 7, 100
1, 6, Control_c, 13, 7, 100
1, 6, Control_c, 14, 7, 100
1, 6, Control_c, 15, 7, 100
1, 1130, Note_on_c, 0, 79, 58
1, 1203, Note_on_c, 0, 77, 65
1, 1232, Note_off_c, 0, 79, 57
1, 1283, Note_on_c, 0, 75, 61
1, 1305, Note_off_c, 0, 77, 63
1, 1351, Note_on_c, 0, 74, 67
1, 1351, Note_off_c, 0, 75, 61
1, 1444, Note_off_c, 0, 74, 60
1, 1447, Note_on_c, 0, 72, 68
1, 1610, Note_off_c, 0, 72, 60
1, 1621, Note_on_c, 0, 70, 68
1, 1637, Note_on_c, 0, 58, 41
1, 1657, Note_off_c, 0, 70, 63
1, 1822, Note_on_c, 0, 70, 67
1, 1839, Note_off_c, 0, 58, 55
1, 1853, Note_on_c, 0, 62, 40
1, 2006, Note_off_c, 0, 62, 54
1, 2032, Note_on_c, 0, 65, 40
1, 2196, Note_off_c, 0, 65, 49
1, 2224, Note_on_c, 0, 62, 32
1, 2379, Note_on_c, 0, 74, 63
1, 2402, Note_off_c, 0, 62, 47
1, 2408, Note_on_c, 0, 58, 43
1, 2412, Note_off_c, 0, 70, 61
1, 2562, Note_on_c, 0, 79, 76
1, 2567, Note_off_c, 0, 58, 53
1, 2570, Note_off_c, 0, 74, 64
1, 2576, Note_on_c, 0, 62, 41
1, 2731, Note_on_c, 0, 74, 76
1, 2740, Note_off_c, 0, 62, 55
1, 2745, Note_on_c, 0, 67, 45
1, 2765, Note_off_c, 0, 79, 60
1, 2866, Note_off_c, 0, 67, 52
1, 2907, Note_on_c, 0, 77, 70
1, 2949, Note_off_c, 0, 74, 63
1, 3095, Note_on_c, 0, 60, 42
1, 3268, Note_off_c, 0, 60, 59
1, 3274, Note_on_c, 0, 75, 56
1, 3291, Note_on_c, 0, 63, 45
1, 3294, Note_off_c, 0, 77, 55
1, 3433, Note_off_c, 0, 63, 60
1, 3465, Note_on_c, 0, 67, 43
1, 3635, Note_off_c, 0, 67, 53
1, 3644, Note_on_c, 0, 63, 45
1, 3804, Note_off_c, 0, 63, 57
1, 3829, Note_on_c, 0, 77, 58
1, 3830, Note_on_c, 0, 60, 41
1, 3837, Note_off_c, 0, 75, 56
1, 3911, Note_on_c, 0, 79, 66
1, 3916, Note_off_c, 0, 77, 56
1, 3957, Note_off_c, 0, 60, 62
1, 3986, Note_on_c, 0, 63, 42
1, 3992, Note_on_c, 0, 77, 61
1, 4022, Note_off_c, 0, 79, 60
1, 4077, Note_on_c, 0, 75, 67
1, 4094, Note_off_c, 0, 77, 61
1, 4147, Note_off_c, 0, 75, 61
1, 4150, Note_off_c, 0, 63, 50
1, 4155, Note_on_c, 0, 67, 38
1, 4155, Note_on_c, 0, 74, 70
1, 4207, Note_off_c, 0, 67, 60
1, 4237, Note_off_c, 0, 74, 63
1, 4243, Note_on_c, 0, 72, 73
1, 4329, Note_on_c, 0, 70, 69
1, 4340, Note_off_c, 0, 72, 59
1, 4533, Note_on_c, 0, 53, 41
1, 4695, Note_off_c, 0, 53, 57
1, 4717, Note_on_c, 0, 69, 57
1, 4723, Note_off_c, 0, 70, 54
1, 4727, Note_on_c, 0, 60, 44
1, 4872, Note_off_c, 0, 60, 60
1, 4911, Note_on_c, 0, 63, 46
1, 5054, Note_off_c, 0, 69, 61
1, 5084, Note_on_c, 0, 60, 48
1, 5092, Note_off_c, 0, 63, 54
1, 5236, Note_off_c, 0, 60, 57
1, 5254, Note_on_c, 0, 69, 61
1, 5279, Note_on_c, 0, 53, 39
1, 5429, Note_off_c, 0, 53, 59
1, 5440, Note_on_c, 0, 70, 70
1, 5453, Note_on_c, 0, 60, 41
1, 5477, Note_off_c, 0, 69, 59
1, 5495, Control_c, 0, 64, 27
1, 5510, Control_c, 0, 64, 54
1, 5525, Control_c, 0, 64, 64
1, 5540, Control_c, 0, 64, 69
1, 5555, Control_c, 0, 64, 78
1, 5569, Control_c, 0, 64, 88
1, 5584, Control_c, 0, 64, 97
1, 5599, Control_c, 0, 64, 105
1, 5614, Control_c, 0, 64, 113
1, 5615, Note_on_c, 0, 72, 72
1, 5625, Note_off_c, 0, 70, 60
1, 5629, Note_off_c, 0, 60, 57
1, 5629, Control_c, 0, 64, 127
1, 5632, Note_on_c, 0, 63, 46
1, 5673, Note_off_c, 0, 72, 62
1, 5785, Note_off_c, 0, 63, 36
1, 5799, Note_on_c, 0, 72, 69
1, 5808, Note_on_c, 0, 69, 55
1, 5822, Control_c, 0, 64, 117
1, 5836, Control_c, 0, 64, 100
1, 5851, Control_c, 0, 64, 90
1, 5866, Control_c, 0, 64, 81
1, 5881, Control_c, 0, 64, 72
1, 5895, Control_c, 0, 64, 64
1, 5910, Control_c, 0, 64, 50
1, 5925, Control_c, 0, 64, 0
1, 5983, Note_on_c, 0, 58, 49
1, 6132, Note_off_c, 0, 69, 56
1, 6174, Note_off_c, 0, 58, 49
1, 6185, Note_on_c, 0, 74, 54
1, 6194, Note_on_c, 0, 62, 40
1, 6203, Note_off_c, 0, 72, 58
1, 6210, Note_on_c, 0, 70, 31
1, 6341, Note_off_c, 0, 62, 50
1, 6368, Note_on_c, 0, 65, 36
1, 6455, Note_off_c, 0, 70, 53
1, 6496, Note_off_c, 0, 74, 57
1, 6540, Note_on_c, 0, 62, 40
1, 6544, Note_off_c, 0, 65, 52
1, 6713, Note_off_c, 0, 62, 47
1, 6733, Note_on_c, 0, 58, 40
1, 6738, Note_on_c, 0, 77, 54
1, 6819, Note_on_c, 0, 76, 70
1, 6837, Note_off_c, 0, 77, 55
1, 6904, Note_on_c, 0, 62, 30
1, 6905, Note_on_c, 0, 79, 72
1, 6906, Note_off_c, 0, 76, 62
1, 6920, Note_off_c, 0, 58, 36
1, 6989, Note_on_c, 0, 77, 65
1, 7029, Note_off_c, 0, 79, 62
1, 7032, Note_off_c, 0, 62, 55
1, 7063, Note_on_c, 0, 75, 75
1, 7085, Note_off_c, 0, 77, 61
1, 7092, Note_on_c, 0, 65, 36
1, 7128, Note_off_c, 0, 75, 63
1, 7151, Note_on_c, 0, 74, 72
1, 7179, Note_off_c, 0, 74, 64
1, 7244, Note_on_c, 0, 63, 48
1, 7244, Note_off_c, 0, 65, 43
1, 7252, Note_on_c, 0, 74, 71
1, 7418, Note_off_c, 0, 63, 61
1, 7424, Note_on_c, 0, 72, 69
1, 7448, Note_on_c, 0, 67, 34
1, 7459, Note_off_c, 0, 74, 62
1, 7583, Note_off_c, 0, 72, 63
1, 7610, Note_on_c, 0, 62, 43
1, 7626, Note_off_c, 0, 67, 43
1, 7762, Note_off_c, 0, 62, 61
1, 7778, Note_on_c, 0, 70, 74
1, 7804, Note_on_c, 0, 65, 45
1, 7811, Note_off_c, 0, 70, 61
1, 7954, Note_off_c, 0, 65, 59
1, 7974, Note_on_c, 0, 74, 61
1, 7975, Note_on_c, 0, 63, 41
1, 8136, Note_off_c, 0, 63, 58
1, 8145, Note_on_c, 0, 72, 62
1, 8163, Note_on_c, 0, 67, 40
1, 8175, Note_off_c, 0, 74, 61
1, 8290, Note_off_c, 0, 72, 62
1, 8322, Note_on_c, 0, 60, 46
1, 8384, Note_off_c, 0, 67, 35
1, 8500, Note_off_c, 0, 60, 61
1, 8502, Note_on_c, 0, 69, 60
1, 8509, Note_on_c, 0, 63, 46
1, 8535, Note_off_c, 0, 69, 67
1, 8678, Note_off_c, 0, 63, 57
1, 8695, Note_on_c, 0, 62, 41
1, 8704, Note_on_c, 0, 70, 56
1, 8712, Note_on_c, 0, 65, 43
1, 8774, Note_off_c, 0, 70, 59
1, 8796, Note_on_c, 0, 72, 61
1, 8876, Note_off_c, 0, 72, 62
1, 8881, Note_on_c, 0, 70, 59
1, 8952, Note_off_c, 0, 70, 62
1, 8954, Note_on_c, 0, 69, 72
1, 9050, Note_on_c, 0, 70, 72
1, 9055, Note_off_c, 0, 69, 60
1, 9090, Note_off_c, 0, 65, 47
1, 9108, Note_off_c, 0, 70, 64
1, 9123, Note_off_c, 0, 62, 42
1, 9126, Note_on_c, 0, 72, 79
1, 9210, Note_on_c, 0, 74, 78
1, 9220, Note_off_c, 0, 72, 59
1, 9293, Note_on_c, 0, 75, 80
1, 9304, Note_off_c, 0, 74, 59
1, 9372, Note_off_c, 0, 75, 62
1, 9379, Note_on_c, 0, 76, 85
1, 9466, Note_on_c, 0, 77, 80
1, 9468, Note_off_c, 0, 76, 63
1, 9539, Note_off_c, 0, 77, 64
1, 9548, Note_on_c, 0, 76, 83
1, 9624, Note_on_c, 0, 77, 87
1, 9628, Note_off_c, 0, 76, 63
1, 9713, Note_off_c, 0, 77, 63
1, 9718, Note_on_c, 0, 79, 88
1, 9810, Note_on_c, 0, 77, 81
1, 9842, Note_off_c, 0, 79, 64
1, 9889, Note_on_c, 0, 75, 83
1, 9901, Note_off_c, 0, 77, 61
1, 9952, Note_off_c, 0, 75, 63
1, 9975, Note_on_c, 0, 74, 80
1, 10011, Note_off_c, 0, 74, 65
1, 10067, Note_on_c, 0, 74, 75
1, 10078, Note_on_c, 0, 63, 46
1, 10251, Note_on_c, 0, 72, 77
1, 10251, Note_off_c, 0, 63, 60
1, 10255, Note_off_c, 0, 74, 64
1, 10271, Note_on_c, 0, 67, 45
1, 10288, Note_off_c, 0, 72, 61
1, 10430, Note_on_c, 0, 72, 70
1, 10435, Note_off_c, 0, 67, 53
1, 10438, Note_on_c, 0, 62, 45
1, 10610, Note_off_c, 0, 62, 60
1, 10614, Note_off_c, 0, 72, 62
1, 10617, Note_on_c, 0, 70, 71
1, 10623, Note_on_c, 0, 65, 50
1, 10651, Note_off_c, 0, 70, 61
1, 10789, Note_off_c, 0, 65, 59
1, 10798, Note_on_c, 0, 74, 62
1, 10805, Note_on_c, 0, 63, 44
1, 10949, Note_off_c, 0, 63, 61
1, 10964, Note_on_c, 0, 72, 69
1, 10977, Note_off_c, 0, 74, 61
1, 10991, Note_on_c, 0, 67, 45
1, 10994, Note_off_c, 0, 72, 64
1, 11151, Note_on_c, 0, 72, 67
1, 11164, Note_on_c, 0, 60, 37
1, 11185, Note_off_c, 0, 67, 37
1, 11313, Note_off_c, 0, 72, 61
1, 11325, Note_off_c, 0, 60, 61
1, 11331, Note_on_c, 0, 63, 52
1, 11331, Note_on_c, 0, 69, 70
1, 11364, Note_off_c, 0, 69, 66
1, 11494, Note_off_c, 0, 63, 58
1, 11516, Note_on_c, 0, 62, 39
1, 11524, Note_on_c, 0, 70, 64
1, 11531, Note_on_c, 0, 65, 44
1, 11669, Note_off_c, 0, 70, 62
1, 11716, Note_on_c, 0, 72, 59
1, 11788, Note_on_c, 0, 74, 70
1, 11788, Note_off_c, 0, 72, 63
1, 11877, Note_on_c, 0, 75, 73
1, 11892, Note_off_c, 0, 74, 59
1, 11934, Note_off_c, 0, 75, 63
1, 11952, Note_on_c, 0, 77, 82
1, 11963, Note_off_c, 0, 65, 50
1, 12012, Note_off_c, 0, 62, 51
1, 12043, Note_on_c, 0, 79, 81
1, 12052, Note_off_c, 0, 77, 61
1, 12121, Note_on_c, 0, 81, 85
1, 12140, Note_off_c, 0, 79, 62
1, 12199, Note_on_c, 0, 82, 83
1, 12221, Note_off_c, 0, 81, 66
1, 12256, Note_off_c, 0, 82, 65
1, 12274, Note_on_c, 0, 84, 85
1, 12352, Note_on_c, 0, 86, 89
1, 12378, Note_off_c, 0, 84, 63
1, 12437, Note_on_c, 0, 87, 87
1, 12461, Note_off_c, 0, 86, 63
1, 12511, Note_on_c, 0, 89, 93
1, 12524, Note_off_c, 0, 87, 66
1, 12558, Note_off_c, 0, 89, 65
1, 12705, Note_on_c, 0, 89, 94
1, 12760, Note_off_c, 0, 89, 62
1, 12894, Control_c, 0, 64, 47
1, 12902, Note_on_c, 0, 89, 90
1, 12904, Note_on_c, 0, 57, 65
1, 12908, Note_on_c, 0, 77, 80
1, 12909, Control_c, 0, 64, 61
1, 12924, Control_c, 0, 64, 68
1, 12939, Control_c, 0, 64, 75
1, 12953, Control_c, 0, 64, 85
1, 12968, Control_c, 0, 64, 93
1, 12983, Control_c, 0, 64, 95
1, 13042, Control_c, 0, 64, 91
1, 13043, Note_off_c, 0, 57, 63
1, 13057, Control_c, 0, 64, 84
1, 13072, Control_c, 0, 64, 71
1, 13086, Control_c, 0, 64, 56
1, 13089, Note_on_c, 0, 87, 93
1, 13101, Control_c, 0, 64, 0
1, 13130, Note_off_c, 0, 89, 63
1, 13278, Note_on_c, 0, 58, 71
1, 13413, Note_off_c, 0, 58, 61
1, 13451, Note_on_c, 0, 86, 87
1, 13480, Note_off_c, 0, 87, 63
1, 13507, Note_off_c, 0, 86, 66
1, 13633, Note_on_c, 0, 51, 63
1, 13635, Note_on_c, 0, 86, 82
1, 13648, Note_off_c, 0, 77, 59
1, 13787, Note_off_c, 0, 51, 63
1, 13808, Note_on_c, 0, 84, 83
1, 13809, Note_off_c, 0, 86, 59
1, 13817, Note_on_c, 0, 75, 64
1, 13844, Note_off_c, 0, 75, 66
1, 13861, Note_off_c, 0, 84, 65
1, 13984, Note_on_c, 0, 53, 63
1, 13990, Note_on_c, 0, 82, 80
1, 14003, Note_on_c, 0, 74, 54
1, 14023, Note_off_c, 0, 74, 62
1, 14032, Note_off_c, 0, 82, 63
1, 14163, Note_on_c, 0, 81, 84
1, 14173, Note_on_c, 0, 72, 63
1, 14178, Note_off_c, 0, 53, 66
1, 14191, Note_off_c, 0, 72, 64
1, 14206, Note_off_c, 0, 81, 65
1, 14364, Note_on_c, 0, 82, 77
1, 14380, Note_on_c, 0, 74, 54
1, 14542, Note_off_c, 0, 74, 64
1, 14549, Note_off_c, 0, 82, 64
1, 14552, Note_on_c, 0, 46, 57
1, 14596, Note_off_c, 0, 46, 64
1, 14730, Note_on_c, 0, 70, 63
1, 14735, Note_on_c, 0, 50, 58
1, 14781, Note_off_c, 0, 50, 62
1, 14909, Note_on_c, 0, 53, 63
1, 14945, Note_off_c, 0, 53, 65
1, 15129, Note_off_c, 0, 70, 62
1, 15146, Note_on_c, 0, 58, 50
1, 15541, Note_off_c, 0, 58, 55
1, 15542, Note_on_c, 0, 67, 48
1, 15620, Note_on_c, 0, 65, 66
1, 15636, Note_off_c, 0, 67, 53
1, 15699, Note_on_c, 0, 63, 68
1, 15703, Note_off_c, 0, 65, 62
1, 15757, Note_off_c, 0, 63, 61
1, 15776, Note_on_c, 0, 62, 71
1, 15874, Note_on_c, 0, 60, 71
1, 15896, Note_off_c, 0, 62, 56
1, 16055, Note_off_c, 0, 60, 65
1, 16059, Note_on_c, 0, 58, 68
1, 16074, Note_on_c, 0, 46, 42
1, 16095, Note_off_c, 0, 58, 65
1, 16257, Note_on_c, 0, 58, 62
1, 16259, Note_off_c, 0, 46, 46
1, 16265, Note_on_c, 0, 50, 42
1, 16416, Note_off_c, 0, 50, 60
1, 16444, Note_on_c, 0, 53, 40
1, 16615, Note_off_c, 0, 53, 55
1, 16638, Note_on_c, 0, 50, 36
1, 16806, Note_off_c, 0, 50, 55
1, 16819, Note_on_c, 0, 70, 63
1, 16831, Note_on_c, 0, 46, 42
1, 16871, Note_off_c, 0, 58, 59
1, 17003, Note_on_c, 0, 69, 78
1, 17010, Note_off_c, 0, 46, 49
1, 17022, Note_on_c, 0, 50, 50
1, 17052, Note_off_c, 0, 70, 60
1, 17189, Note_on_c, 0, 67, 90
1, 17198, Note_off_c, 0, 50, 59
1, 17199, Note_on_c, 0, 55, 42
1, 17257, Note_off_c, 0, 69, 62
1, 17317, Note_off_c, 0, 55, 53
1, 17390, Note_on_c, 0, 65, 86
1, 17429, Note_off_c, 0, 67, 64
1, 17565, Note_on_c, 0, 48, 48
1, 17756, Note_on_c, 0, 64, 68
1, 17757, Note_off_c, 0, 48, 55
1, 17770, Note_on_c, 0, 55, 34
1, 17779, Note_off_c, 0, 65, 54
1, 17903, Note_off_c, 0, 55, 59
1, 17937, Note_on_c, 0, 58, 44
1, 18128, Note_on_c, 0, 55, 43
1, 18153, Note_off_c, 0, 58, 37
1, 18198, Note_off_c, 0, 64, 55
1, 18228, Note_on_c, 0, 67, 52
1, 18275, Note_off_c, 0, 55, 49
1, 18300, Note_off_c, 0, 67, 60
1, 18309, Note_on_c, 0, 48, 32
1, 18324, Note_on_c, 0, 65, 57
1, 18367, Note_off_c, 0, 65, 61
1, 18394, Note_on_c, 0, 69, 64
1, 18442, Note_off_c, 0, 69, 64
1, 18474, Note_off_c, 0, 48, 52
1, 18480, Note_on_c, 0, 67, 68
1, 18484, Note_on_c, 0, 55, 37
1, 18545, Note_off_c, 0, 67, 58
1, 18561, Note_on_c, 0, 70, 71
1, 18625, Note_off_c, 0, 70, 63
1, 18645, Note_on_c, 0, 69, 75
1, 18658, Note_on_c, 0, 58, 48
1, 18661, Note_off_c, 0, 55, 53
1, 18725, Note_off_c, 0, 58, 56
1, 18728, Note_on_c, 0, 72, 76
1, 18735, Note_off_c, 0, 69, 62
1, 18810, Note_on_c, 0, 70, 82
1, 18814, Note_off_c, 0, 72, 62
1, 18876, Note_off_c, 0, 70, 63
1, 18895, Note_on_c, 0, 67, 81
1, 18958, Note_off_c, 0, 67, 61
1, 18982, Note_on_c, 0, 76, 79
1, 18999, Note_on_c, 0, 52, 41
1, 19034, Note_off_c, 0, 76, 63
1, 19074, Note_on_c, 0, 71, 61
1, 19079, Note_on_c, 0, 72, 66
1, 19109, Note_off_c, 0, 71, 66
1, 19121, Note_off_c, 0, 52, 59
1, 19123, Note_off_c, 0, 72, 59
1, 19146, Note_on_c, 0, 55, 46
1, 19148, Note_on_c, 0, 79, 75
1, 19193, Note_off_c, 0, 79, 62
1, 19222, Note_on_c, 0, 76, 83
1, 19287, Note_off_c, 0, 55, 55
1, 19307, Note_off_c, 0, 76, 59
1, 19312, Note_on_c, 0, 82, 82
1, 19325, Note_on_c, 0, 60, 34
1, 19392, Note_on_c, 0, 81, 80
1, 19409, Note_off_c, 0, 82, 63
1, 19448, Note_off_c, 0, 60, 37
1, 19465, Note_on_c, 0, 55, 41
1, 19486, Note_off_c, 0, 81, 65
1, 19487, Note_on_c, 0, 82, 89
1, 19578, Note_on_c, 0, 81, 88
1, 19602, Note_off_c, 0, 82, 60
1, 19613, Note_off_c, 0, 55, 53
1, 19660, Note_on_c, 0, 79, 84
1, 19671, Note_on_c, 0, 52, 34
1, 19677, Note_off_c, 0, 81, 65
1, 19721, Note_off_c, 0, 79, 62
1, 19743, Note_on_c, 0, 77, 81
1, 19809, Note_off_c, 0, 52, 52
1, 19834, Note_on_c, 0, 76, 82
1, 19840, Note_on_c, 0, 55, 39
1, 19850, Note_off_c, 0, 77, 53
1, 19912, Note_on_c, 0, 74, 75
1, 19922, Note_off_c, 0, 76, 61
1, 19980, Note_off_c, 0, 74, 64
1, 19985, Note_off_c, 0, 55, 54
1, 20002, Note_on_c, 0, 60, 46
1, 20004, Note_on_c, 0, 72, 77
1, 20070, Note_off_c, 0, 72, 52
1, 20073, Note_off_c, 0, 60, 60
1, 20088, Note_on_c, 0, 70, 76
1, 20118, Note_off_c, 0, 70, 63
1, 20176, Note_on_c, 0, 70, 77
1, 20232, Note_off_c, 0, 70, 57
1, 20266, Note_on_c, 0, 69, 70
1, 20346, Note_off_c, 0, 69, 56
1, 20354, Note_on_c, 0, 53, 45
1, 20364, Note_on_c, 0, 74, 64
1, 20421, Note_off_c, 0, 74, 63
1, 20426, Note_on_c, 0, 72, 74
1, 20461, Note_off_c, 0, 72, 57
1, 20498, Note_off_c, 0, 53, 60
1, 20527, Note_on_c, 0, 57, 43
1, 20536, Note_on_c, 0, 72, 65
1, 20684, Note_off_c, 0, 57, 58
1, 20731, Note_on_c, 0, 60, 30
1, 20904, Note_on_c, 0, 57, 41
1, 20915, Note_off_c, 0, 60, 44
1, 20917, Note_off_c, 0, 72, 60
1, 21075, Note_off_c, 0, 57, 56
1, 21090, Note_on_c, 0, 53, 41
1, 21254, Note_off_c, 0, 53, 57
1, 21279, Note_on_c, 0, 86, 64
1, 21285, Note_on_c, 0, 57, 37
1, 21367, Note_on_c, 0, 84, 65
1, 21377, Note_off_c, 0, 86, 64
1, 21404, Note_off_c, 0, 57, 57
1, 21433, Note_off_c, 0, 84, 64
1, 21434, Note_on_c, 0, 82, 72
1, 21462, Note_on_c, 0, 60, 27
1, 21491, Note_off_c, 0, 82, 62
1, 21518, Note_on_c, 0, 81, 65
1, 21601, Note_off_c, 0, 81, 62
1, 21618, Note_on_c, 0, 79, 58
1, 21623, Note_off_c, 0, 60, 47
1, 21632, Note_on_c, 0, 58, 41
1, 21809, Note_off_c, 0, 58, 45
1, 21828, Note_on_c, 0, 60, 39
1, 21998, Note_off_c, 0, 60, 51
1, 22015, Note_on_c, 0, 58, 41
1, 22163, Note_off_c, 0, 58, 55
1, 22173, Note_off_c, 0, 79, 59
1, 22174, Note_on_c, 0, 76, 67
1, 22197, Note_on_c, 0, 60, 36
1, 22204, Note_off_c, 0, 76, 65
1, 22371, Note_off_c, 0, 60, 56
1, 22379, Note_on_c, 0, 77, 50
1, 22391, Note_on_c, 0, 57, 36
1, 22459, Note_off_c, 0, 77, 53
1, 22465, Note_on_c, 0, 84, 59
1, 22550, Note_off_c, 0, 84, 62
1, 22559, Note_on_c, 0, 83, 68
1, 22566, Note_off_c, 0, 57, 41
1, 22569, Note_on_c, 0, 60, 34
1, 22653, Note_on_c, 0, 84, 67
1, 22662, Note_off_c, 0, 83, 60
1, 22724, Note_off_c, 0, 84, 63
1, 22725, Note_on_c, 0, 86, 78
1, 22733, Note_off_c, 0, 60, 47
1, 22738, Note_on_c, 0, 57, 32
1, 22813, Note_on_c, 0, 84, 75
1, 22838, Note_off_c, 0, 86, 64
1, 22882, Note_on_c, 0, 82, 80
1, 22889, Note_off_c, 0, 57, 58
1, 22895, Note_off_c, 0, 84, 61
1, 22915, Note_on_c, 0, 60, 40
1, 22952, Note_off_c, 0, 82, 63
1, 22969, Note_on_c, 0, 81, 76
1, 23044, Note_off_c, 0, 81, 55
1, 23049, Note_on_c, 0, 79, 81
1, 23055, Note_off_c, 0, 60, 60
1, 23067, Note_on_c, 0, 58, 46
1, 23070, Note_off_c, 0, 79, 68
1, 23274, Note_off_c, 0, 58, 54
1, 23288, Note_on_c, 0, 60, 40
1, 23289, Note_on_c, 0, 79, 77
1, 23452, Note_off_c, 0, 60, 52
1, 23465, Note_on_c, 0, 58, 48
1, 23613, Note_off_c, 0, 58, 51
1, 23649, Note_on_c, 0, 60, 45
1, 23650, Note_off_c, 0, 79, 59
1, 23653, Note_on_c, 0, 76, 66
1, 23681, Note_off_c, 0, 76, 66
1, 23836, Note_off_c, 0, 60, 54
1, 23848, Note_on_c, 0, 57, 44
1, 23860, Note_on_c, 0, 77, 61
1, 23946, Note_on_c, 0, 84, 68
1, 23956, Note_off_c, 0, 77, 61
1, 24017, Note_off_c, 0, 57, 56
1, 24030, Note_on_c, 0, 60, 38
1, 24035, Note_off_c, 0, 84, 63
1, 24039, Note_on_c, 0, 83, 76
1, 24129, Note_on_c, 0, 84, 75
1, 24143, Note_off_c, 0, 83, 61
1, 24167, Note_off_c, 0, 60, 49
1, 24179, Note_on_c, 0, 57, 37
1, 24203, Note_on_c, 0, 86, 80
1, 24206, Note_off_c, 0, 84, 64
1, 24290, Note_on_c, 0, 84, 78
1, 24312, Note_off_c, 0, 86, 63
1, 24351, Note_off_c, 0, 57, 62
1, 24370, Note_on_c, 0, 82, 77
1, 24385, Note_on_c, 0, 60, 35
1, 24388, Note_off_c, 0, 84, 62
1, 24430, Note_off_c, 0, 82, 64
1, 24444, Note_on_c, 0, 81, 83
1, 24481, Note_off_c, 0, 81, 67
1, 24521, Note_off_c, 0, 60, 53
1, 24548, Note_on_c, 0, 58, 46
1, 24551, Note_on_c, 0, 81, 80
1, 24734, Note_off_c, 0, 58, 57
1, 24747, Note_on_c, 0, 79, 73
1, 24756, Note_on_c, 0, 62, 37
1, 24766, Note_off_c, 0, 81, 61
1, 24857, Note_off_c, 0, 79, 60
1, 24919, Note_on_c, 0, 58, 47
1, 24947, Note_off_c, 0, 62, 41
1, 25073, Note_off_c, 0, 58, 60
1, 25093, Note_on_c, 0, 79, 73
1, 25106, Note_on_c, 0, 62, 43
1, 25119, Note_off_c, 0, 79, 66
1, 25280, Note_on_c, 0, 79, 72
1, 25290, Note_off_c, 0, 62, 51
1, 25292, Note_on_c, 0, 59, 46
1, 25459, Note_on_c, 0, 77, 56
1, 25461, Note_off_c, 0, 59, 57
1, 25489, Note_on_c, 0, 62, 29
1, 25491, Note_off_c, 0, 79, 58
1, 25603, Note_off_c, 0, 77, 61
1, 25654, Note_on_c, 0, 59, 42
1, 25674, Note_off_c, 0, 62, 42
1, 25807, Note_off_c, 0, 59, 59
1, 25822, Note_on_c, 0, 77, 61
1, 25840, Note_on_c, 0, 62, 43
1, 25847, Note_off_c, 0, 77, 66
1, 25997, Note_off_c, 0, 62, 45
1, 26012, Note_on_c, 0, 60, 40
1, 26019, Note_on_c, 0, 76, 59
1, 26084, Note_off_c, 0, 76, 60
1, 26103, Note_on_c, 0, 77, 61
1, 26182, Note_off_c, 0, 77, 60
1, 26190, Note_on_c, 0, 76, 64
1, 26246, Note_off_c, 0, 76, 61
1, 26287, Note_on_c, 0, 72, 59
1, 26344, Note_off_c, 0, 60, 62
1, 26376, Note_on_c, 0, 77, 60
1, 26378, Note_off_c, 0, 72, 59
1, 26382, Note_on_c, 0, 62, 40
1, 26450, Note_off_c, 0, 77, 57
1, 26466, Note_on_c, 0, 79, 64
1, 26553, Note_on_c, 0, 77, 70
1, 26554, Note_off_c, 0, 79, 59
1, 26601, Note_off_c, 0, 77, 64
1, 26638, Note_on_c, 0, 72, 71
1, 26710, Note_off_c, 0, 62, 60
1, 26725, Note_on_c, 0, 64, 45
1, 26725, Note_on_c, 0, 79, 74
1, 26726, Note_off_c, 0, 72, 57
1, 26806, Note_off_c, 0, 79, 60
1, 26811, Note_on_c, 0, 81, 77
1, 26900, Note_on_c, 0, 79, 78
1, 26910, Note_off_c, 0, 81, 61
1, 26950, Note_off_c, 0, 79, 63
1, 26987, Note_on_c, 0, 72, 77
1, 27059, Note_off_c, 0, 64, 63
1, 27072, Note_on_c, 0, 65, 58
1, 27075, Note_on_c, 0, 81, 76
1, 27079, Note_off_c, 0, 72, 62
1, 27158, Note_off_c, 0, 81, 66
1, 27162, Note_on_c, 0, 82, 85
1, 27258, Note_on_c, 0, 81, 73
1, 27294, Note_off_c, 0, 82, 60
1, 27302, Note_off_c, 0, 81, 66
1, 27326, Note_on_c, 0, 72, 80
1, 27402, Note_off_c, 0, 65, 61
1, 27415, Note_off_c, 0, 72, 61
1, 27422, Note_on_c, 0, 67, 60
1, 27424, Note_on_c, 0, 82, 82
1, 27461, Note_off_c, 0, 82, 63
1, 27606, Note_off_c, 0, 67, 61
1, 27610, Note_on_c, 0, 82, 80
1, 27625, Note_on_c, 0, 72, 52
1, 27644, Note_off_c, 0, 82, 64
1, 27806, Note_off_c, 0, 72, 57
1, 27809, Note_on_c, 0, 64, 53
1, 27967, Note_off_c, 0, 64, 63
1, 27983, Note_on_c, 0, 79, 72
1, 27992, Note_on_c, 0, 72, 48
1, 28007, Note_off_c, 0, 79, 67
1, 28162, Note_off_c, 0, 72, 53
1, 28171, Note_on_c, 0, 82, 68
1, 28180, Note_on_c, 0, 65, 47
1, 28334, Note_off_c, 0, 65, 59
1, 28356, Note_on_c, 0, 81, 62
1, 28363, Note_on_c, 0, 72, 47
1, 28365, Note_off_c, 0, 82, 57
1, 28529, Note_off_c, 0, 72, 52
1, 28534, Note_off_c, 0, 81, 61
1, 28548, Note_on_c, 0, 62, 39
1, 28548, Note_on_c, 0, 79, 57
1, 28697, Note_off_c, 0, 62, 59
1, 28698, Note_off_c, 0, 79, 61
1, 28734, Note_on_c, 0, 72, 49
1, 28734, Note_on_c, 0, 77, 48
1, 28879, Note_off_c, 0, 77, 62
1, 28913, Note_on_c, 0, 76, 65
1, 28917, Note_off_c, 0, 72, 55
1, 28922, Note_on_c, 0, 60, 38
1, 28971, Note_off_c, 0, 76, 60
1, 29020, Note_on_c, 0, 72, 66
1, 29091, Note_off_c, 0, 72, 45
1, 29104, Note_on_c, 0, 83, 60
1, 29176, Note_off_c, 0, 83, 60
1, 29184, Note_on_c, 0, 84, 62
1, 29267, Note_on_c, 0, 62, 59
1, 29275, Note_off_c, 0, 84, 62
1, 29287, Note_on_c, 0, 77, 64
1, 29304, Note_off_c, 0, 60, 64
1, 29339, Note_off_c, 0, 77, 63
1, 29369, Note_on_c, 0, 72, 72
1, 29458, Note_on_c, 0, 83, 66
1, 29464, Note_off_c, 0, 72, 57
1, 29534, Note_on_c, 0, 84, 70
1, 29595, Note_off_c, 0, 83, 37
1, 29616, Note_off_c, 0, 84, 62
1, 29619, Note_on_c, 0, 79, 73
1, 29626, Note_on_c, 0, 64, 65
1, 29672, Note_off_c, 0, 62, 62
1, 29689, Note_off_c, 0, 79, 60
1, 29706, Note_on_c, 0, 72, 79
1, 29791, Note_off_c, 0, 72, 61
1, 29793, Note_on_c, 0, 83, 71
1, 29887, Note_on_c, 0, 84, 72
1, 29896, Note_off_c, 0, 83, 57
1, 29960, Note_on_c, 0, 81, 79
1, 29968, Note_off_c, 0, 84, 63
1, 29969, Note_on_c, 0, 65, 65
1, 29969, Note_off_c, 0, 64, 63
1, 30045, Note_off_c, 0, 81, 62
1, 30056, Note_on_c, 0, 72, 82
1, 30145, Note_on_c, 0, 83, 76
1, 30149, Note_off_c, 0, 72, 61
1, 30221, Note_on_c, 0, 84, 74
1, 30260, Note_off_c, 0, 83, 57
1, 30298, Note_off_c, 0, 65, 61
1, 30300, Note_on_c, 0, 82, 84
1, 30302, Note_off_c, 0, 84, 64
1, 30307, Note_on_c, 0, 67, 66
1, 30338, Note_off_c, 0, 82, 65
1, 30347, Note_off_c, 0, 67, 62
1, 30394, Note_on_c, 0, 72, 53
1, 30470, Note_off_c, 0, 72, 62
1, 30471, Note_on_c, 0, 82, 83
1, 30491, Note_on_c, 0, 71, 52
1, 30505, Note_off_c, 0, 82, 61
1, 30530, Note_off_c, 0, 71, 66
1, 30573, Note_on_c, 0, 72, 56
1, 30624, Note_off_c, 0, 72, 57
1, 30659, Note_on_c, 0, 64, 74
1, 30707, Note_off_c, 0, 64, 58
1, 30749, Note_on_c, 0, 72, 67
1, 30802, Note_on_c, 0, 79, 69
1, 30807, Note_off_c, 0, 72, 56
1, 30832, Note_off_c, 0, 79, 62
1, 30847, Note_on_c, 0, 71, 51
1, 30849, Note_on_c, 0, 81, 61
1, 30874, Note_off_c, 0, 71, 60
1, 30877, Note_off_c, 0, 81, 69
1, 30901, Note_on_c, 0, 79, 78
1, 30914, Note_on_c, 0, 72, 66
1, 30924, Note_off_c, 0, 79, 67
1, 30934, Note_on_c, 0, 78, 75
1, 30957, Note_off_c, 0, 72, 53
1, 30991, Note_on_c, 0, 79, 81
1, 30994, Note_off_c, 0, 78, 64
1, 31002, Note_on_c, 0, 65, 64
1, 31014, Note_on_c, 0, 82, 88
1, 31051, Note_off_c, 0, 79, 62
1, 31092, Note_off_c, 0, 65, 59
1, 31115, Note_on_c, 0, 72, 56
1, 31173, Note_off_c, 0, 72, 57
1, 31190, Note_on_c, 0, 81, 80
1, 31201, Note_on_c, 0, 71, 58
1, 31224, Note_off_c, 0, 81, 67
1, 31224, Note_off_c, 0, 82, 60
1, 31235, Note_off_c, 0, 71, 67
1, 31275, Note_on_c, 0, 72, 68
1, 31333, Note_off_c, 0, 72, 58
1, 31360, Note_on_c, 0, 79, 82
1, 31367, Note_on_c, 0, 62, 63
1, 31381, Note_off_c, 0, 79, 67
1, 31423, Note_off_c, 0, 62, 59
1, 31462, Note_on_c, 0, 71, 59
1, 31510, Note_off_c, 0, 71, 60
1, 31545, Note_on_c, 0, 77, 80
1, 31552, Note_on_c, 0, 69, 64
1, 31569, Note_off_c, 0, 77, 66
1, 31585, Note_off_c, 0, 69, 66
1, 31630, Note_on_c, 0, 71, 62
1, 31718, Note_off_c, 0, 71, 59
1, 31726, Note_on_c, 0, 76, 79
1, 31727, Note_on_c, 0, 60, 65
1, 31807, Note_off_c, 0, 76, 62
1, 31808, Note_on_c, 0, 84, 80
1, 31894, Note_on_c, 0, 79, 80
1, 31912, Note_off_c, 0, 84, 61
1, 31980, Note_on_c, 0, 76, 81
1, 31995, Note_off_c, 0, 79, 62
1, 32026, Note_off_c, 0, 60, 60
1, 32032, Note_off_c, 0, 76, 62
1, 32064, Note_on_c, 0, 72, 78
1, 32129, Note_off_c, 0, 72, 60
1, 32156, Note_on_c, 0, 67, 78
1, 32245, Note_on_c, 0, 64, 76
1, 32250, Note_off_c, 0, 67, 63
1, 32328, Note_on_c, 0, 60, 82
1, 32336, Note_off_c, 0, 64, 63
1, 32424, Note_off_c, 0, 60, 66
1, 32432, Note_on_c, 0, 48, 73
1, 32434, Note_on_c, 0, 36, 71
1, 32584, Control_c, 0, 64, 26
1, 32599, Control_c, 0, 64, 35
1, 32614, Control_c, 0, 64, 36
1, 32629, Control_c, 0, 64, 37
1, 32645, Control_c, 0, 64, 39
1, 32674, Control_c, 0, 64, 37
1, 32689, Control_c, 0, 64, 33
1, 32704, Control_c, 0, 64, 30
1, 32719, Control_c, 0, 64, 28
1, 32734, Control_c, 0, 64, 22
1, 32748, Control_c, 0, 64, 0
1, 32835, Note_off_c, 0, 36, 61
1, 32845, Note_off_c, 0, 48, 62
1, 33129, Note_on_c, 0, 60, 66
1, 33187, Note_on_c, 0, 65, 59
1, 33230, Note_on_c, 0, 69, 64
1, 33270, Note_on_c, 0, 41, 72
1, 33270, Note_on_c, 0, 53, 77
1, 33271, Note_on_c, 0, 72, 90
1, 33289, Control_c, 0, 64, 30
1, 33304, Control_c, 0, 64, 67
1, 33316, Note_off_c, 0, 65, 61
1, 33319, Control_c, 0, 64, 81
1, 33321, Note_off_c, 0, 69, 66
1, 33333, Control_c, 0, 64, 106
1, 33339, Note_off_c, 0, 60, 64
1, 33348, Control_c, 0, 64, 127
1, 33387, Poly_aftertouch_c, 0, 71, 0
1, 33415, Note_off_c, 0, 53, 65
1, 33435, Note_off_c, 0, 41, 62
1, 33834, Note_off_c, 0, 72, 59
1, 33875, Note_on_c, 0, 74, 62
1, 33950, Note_on_c, 0, 72, 79
1, 33975, Note_off_c, 0, 74, 62
1, 33993, Control_c, 0, 64, 104
1, 34008, Control_c, 0, 64, 78
1, 34022, Note_off_c, 0, 72, 65
1, 34022, Control_c, 0, 64, 48
1, 34025, Note_on_c, 0, 70, 77
1, 34037, Control_c, 0, 64, 0
1, 34048, Note_off_c, 0, 70, 69
1, 34213, Note_on_c, 0, 69, 71
1, 34239, Note_off_c, 0, 69, 69
1, 34384, Note_on_c, 0, 67, 68
1, 34422, Note_off_c, 0, 67, 65
1, 34566, Note_on_c, 0, 65, 82
1, 34597, Note_off_c, 0, 65, 63
1, 34753, Note_on_c, 0, 65, 77
1, 34932, Note_on_c, 0, 74, 75
1, 34954, Note_off_c, 0, 65, 62
1, 34979, Note_off_c, 0, 74, 65
1, 35143, Note_on_c, 0, 74, 66
1, 35145, Note_on_c, 0, 58, 41
1, 35155, Note_on_c, 0, 46, 44
1, 35156, Note_on_c, 0, 65, 57
1, 35343, Control_c, 0, 64, 40
1, 35358, Control_c, 0, 64, 60
1, 35373, Control_c, 0, 64, 68
1, 35388, Control_c, 0, 64, 74
1, 35402, Control_c, 0, 64, 83
1, 35417, Control_c, 0, 64, 90
1, 35432, Control_c, 0, 64, 100
1, 35447, Control_c, 0, 64, 116
1, 35462, Control_c, 0, 64, 127
1, 35513, Note_off_c, 0, 46, 61
1, 35711, Note_off_c, 0, 74, 54
1, 35727, Note_on_c, 0, 72, 66
1, 35831, Note_off_c, 0, 65, 34
1, 35832, Control_c, 0, 64, 118
1, 35848, Control_c, 0, 64, 99
1, 35863, Control_c, 0, 64, 85
1, 35878, Control_c, 0, 64, 72
1, 35892, Control_c, 0, 64, 62
1, 35896, Note_on_c, 0, 57, 50
1, 35903, Note_off_c, 0, 58, 35
1, 35907, Note_on_c, 0, 76, 81
1, 35907, Control_c, 0, 64, 34
1, 35922, Control_c, 0, 64, 0
1, 35957, Note_off_c, 0, 72, 61
1, 36087, Note_on_c, 0, 77, 84
1, 36100, Note_off_c, 0, 76, 63
1, 36169, Note_off_c, 0, 77, 59
1, 36249, Note_off_c, 0, 57, 61
1, 36276, Note_on_c, 0, 77, 76
1, 36285, Note_on_c, 0, 59, 44
1, 36288, Note_on_c, 0, 62, 41
1, 36469, Note_on_c, 0, 67, 70
1, 36484, Note_off_c, 0, 77, 60
1, 36644, Note_off_c, 0, 59, 39
1, 36645, Note_on_c, 0, 60, 48
1, 36657, Note_off_c, 0, 62, 47
1, 36824, Note_on_c, 0, 69, 76
1, 36864, Note_off_c, 0, 67, 53
1, 37011, Note_off_c, 0, 60, 64
1, 37024, Note_on_c, 0, 77, 74
1, 37031, Note_on_c, 0, 62, 42
1, 37034, Note_on_c, 0, 59, 47
1, 37037, Note_off_c, 0, 69, 66
1, 37199, Note_off_c, 0, 77, 60
1, 37206, Note_on_c, 0, 67, 71
1, 37373, Note_off_c, 0, 59, 60
1, 37393, Note_on_c, 0, 60, 52
1, 37426, Note_off_c, 0, 62, 36
1, 37567, Note_on_c, 0, 69, 78
1, 37608, Note_off_c, 0, 67, 53
1, 37769, Note_off_c, 0, 60, 41
1, 37777, Note_on_c, 0, 72, 76
1, 37790, Note_off_c, 0, 69, 65
1, 37796, Note_on_c, 0, 62, 39
1, 37872, Poly_aftertouch_c, 0, 65, 0
1, 38067, Note_off_c, 0, 72, 62
1, 38159, Note_on_c, 0, 64, 43
1, 38159, Note_on_c, 0, 72, 61
1, 38181, Note_off_c, 0, 62, 50
1, 38195, Note_off_c, 0, 72, 61
1, 38228, Note_on_c, 0, 70, 73
1, 38258, Note_off_c, 0, 70, 65
1, 38277, Note_on_c, 0, 72, 66
1, 38317, Note_off_c, 0, 72, 63
1, 38321, Note_on_c, 0, 70, 76
1, 38367, Note_off_c, 0, 70, 56
1, 38392, Note_on_c, 0, 69, 62
1, 38447, Note_off_c, 0, 69, 61
1, 38455, Note_on_c, 0, 70, 64
1, 38500, Note_off_c, 0, 64, 59
1, 38517, Note_off_c, 0, 70, 59
1, 38532, Note_on_c, 0, 65, 39
1, 38535, Note_on_c, 0, 69, 69
1, 38559, Control_c, 0, 64, 28
1, 38574, Note_off_c, 0, 69, 65
1, 38574, Control_c, 0, 64, 45
1, 38589, Control_c, 0, 64, 48
1, 38604, Control_c, 0, 64, 49
1, 38619, Control_c, 0, 64, 51
1, 38633, Control_c, 0, 64, 52
1, 38648, Control_c, 0, 64, 51
1, 38663, Control_c, 0, 64, 49
1, 38678, Control_c, 0, 64, 46
1, 38693, Control_c, 0, 64, 43
1, 38708, Control_c, 0, 64, 41
1, 38720, Note_on_c, 0, 69, 66
1, 38723, Control_c, 0, 64, 37
1, 38737, Control_c, 0, 64, 30
1, 38752, Control_c, 0, 64, 19
1, 38767, Control_c, 0, 64, 0
1, 38818, Note_off_c, 0, 65, 59
1, 38901, Note_on_c, 0, 70, 78
1, 38946, Note_off_c, 0, 69, 54
1, 39087, Note_on_c, 0, 72, 82
1, 39111, Note_off_c, 0, 70, 64
1, 39275, Note_on_c, 0, 73, 82
1, 39310, Note_off_c, 0, 72, 60
1, 39464, Note_off_c, 0, 73, 63
1, 39468, Note_on_c, 0, 74, 71
1, 39484, Note_on_c, 0, 46, 39
1, 39641, Note_off_c, 0, 46, 52
1, 39645, Note_on_c, 0, 50, 55
1, 39820, Note_off_c, 0, 50, 64
1, 39843, Note_on_c, 0, 72, 59
1, 39857, Note_on_c, 0, 55, 42
1, 39862, Note_off_c, 0, 74, 53
1, 39922, Note_on_c, 0, 70, 72
1, 39930, Note_off_c, 0, 72, 60
1, 39981, Note_off_c, 0, 55, 60
1, 40017, Note_off_c, 0, 70, 62
1, 40017, Note_on_c, 0, 69, 63
1, 40022, Note_on_c, 0, 58, 43
1, 40199, Note_off_c, 0, 69, 61
1, 40207, Note_on_c, 0, 67, 60
1, 40380, Note_on_c, 0, 69, 72
1, 40409, Note_off_c, 0, 58, 48
1, 40412, Note_off_c, 0, 67, 59
1, 40560, Note_on_c, 0, 70, 84
1, 40589, Note_off_c, 0, 69, 63
1, 40749, Note_off_c, 0, 70, 63
1, 40758, Note_on_c, 0, 74, 67
1, 40933, Note_on_c, 0, 72, 70
1, 40944, Note_on_c, 0, 45, 41
1, 40956, Note_off_c, 0, 74, 57
1, 41109, Note_off_c, 0, 45, 52
1, 41117, Note_on_c, 0, 48, 43
1, 41288, Note_off_c, 0, 48, 61
1, 41310, Note_on_c, 0, 70, 60
1, 41319, Note_on_c, 0, 53, 44
1, 41332, Note_off_c, 0, 72, 59
1, 41388, Note_on_c, 0, 69, 69
1, 41392, Note_off_c, 0, 70, 61
1, 41439, Note_off_c, 0, 53, 63
1, 41456, Note_off_c, 0, 69, 63
1, 41477, Note_on_c, 0, 67, 60
1, 41481, Note_on_c, 0, 57, 45
1, 41655, Note_off_c, 0, 67, 59
1, 41657, Note_on_c, 0, 65, 62
1, 41813, Note_off_c, 0, 65, 61
1, 41834, Note_on_c, 0, 67, 69
1, 41841, Note_off_c, 0, 57, 59
1, 42006, Note_on_c, 0, 69, 78
1, 42015, Note_off_c, 0, 67, 57
1, 42205, Note_on_c, 0, 72, 72
1, 42207, Note_on_c, 0, 55, 44
1, 42215, Note_off_c, 0, 69, 62
1, 42386, Note_on_c, 0, 70, 70
1, 42420, Note_off_c, 0, 72, 59
1, 42562, Note_off_c, 0, 70, 63
1, 42564, Note_on_c, 0, 52, 55
1, 42589, Note_off_c, 0, 55, 52
1, 42748, Note_on_c, 0, 67, 68
1, 42783, Note_off_c, 0, 67, 59
1, 42934, Note_on_c, 0, 70, 70
1, 42943, Note_on_c, 0, 53, 43
1, 42951, Note_off_c, 0, 52, 47
1, 43118, Note_on_c, 0, 69, 66
1, 43159, Note_off_c, 0, 70, 55
1, 43277, Note_off_c, 0, 69, 65
1, 43297, Note_on_c, 0, 50, 50
1, 43299, Note_off_c, 0, 53, 54
1, 43485, Note_on_c, 0, 65, 55
1, 43510, Note_off_c, 0, 65, 59
1, 43666, Note_off_c, 0, 50, 44
1, 43671, Note_on_c, 0, 48, 42
1, 43677, Note_on_c, 0, 64, 56
1, 43725, Note_off_c, 0, 64, 64
1, 43761, Note_on_c, 0, 65, 61
1, 43855, Note_on_c, 0, 67, 66
1, 43855, Note_off_c, 0, 65, 58
1, 43940, Note_on_c, 0, 69, 73
1, 43970, Note_off_c, 0, 67, 56
1, 43999, Note_off_c, 0, 48, 58
1, 44022, Note_on_c, 0, 71, 77
1, 44048, Note_off_c, 0, 69, 63
1, 44103, Note_off_c, 0, 71, 66
1, 44109, Note_on_c, 0, 72, 81
1, 44181, Note_off_c, 0, 72, 59
1, 44191, Note_on_c, 0, 71, 85
1, 44267, Note_off_c, 0, 71, 66
1, 44276, Note_on_c, 0, 72, 77
1, 44360, Note_off_c, 0, 72, 62
1, 44365, Note_on_c, 0, 48, 50
1, 44369, Note_on_c, 0, 60, 67
1, 44431, Note_off_c, 0, 48, 61
1, 44458, Note_on_c, 0, 50, 63
1, 44533, Note_off_c, 0, 50, 64
1, 44541, Note_on_c, 0, 46, 62
1, 44609, Note_off_c, 0, 46, 57
1, 44637, Note_on_c, 0, 48, 67
1, 44716, Note_on_c, 0, 45, 71
1, 44728, Note_off_c, 0, 48, 58
1, 44728, Note_off_c, 0, 60, 62
1, 44801, Note_off_c, 0, 45, 65
1, 44807, Note_on_c, 0, 46, 78
1, 44887, Note_off_c, 0, 46, 63
1, 44893, Note_on_c, 0, 43, 83
1, 44984, Note_on_c, 0, 45, 72
1, 44989, Note_off_c, 0, 43, 61
1, 45097, Note_off_c, 0, 45, 65
1, 45098, Note_on_c, 0, 41, 83
1, 45102, Note_on_c, 0, 72, 94
1, 45103, Note_on_c, 0, 69, 67
1, 45136, Control_c, 0, 64, 44
1, 45151, Control_c, 0, 64, 67
1, 45166, Control_c, 0, 64, 76
1, 45180, Control_c, 0, 64, 92
1, 45182, Note_off_c, 0, 41, 63
1, 45195, Control_c, 0, 64, 127
1, 45463, Control_c, 0, 64, 98
1, 45478, Control_c, 0, 64, 70
1, 45486, Note_on_c, 0, 53, 82
1, 45493, Control_c, 0, 64, 17
1, 45507, Control_c, 0, 64, 0
1, 45537, Control_c, 0, 64, 59
1, 45552, Control_c, 0, 64, 80
1, 45567, Control_c, 0, 64, 127
1, 45606, Note_off_c, 0, 53, 65
1, 45656, Note_off_c, 0, 72, 56
1, 45693, Note_on_c, 0, 74, 66
1, 45737, Note_off_c, 0, 69, 37
1, 45766, Note_on_c, 0, 72, 83
1, 45784, Note_off_c, 0, 74, 62
1, 45797, Control_c, 0, 64, 108
1, 45811, Control_c, 0, 64, 81
1, 45826, Control_c, 0, 64, 60
1, 45836, Note_on_c, 0, 70, 86
1, 45837, Note_off_c, 0, 72, 64
1, 45841, Control_c, 0, 64, 0
1, 45877, Note_off_c, 0, 70, 63
1, 46026, Note_on_c, 0, 69, 82
1, 46063, Note_off_c, 0, 69, 66
1, 46202, Note_on_c, 0, 67, 79
1, 46247, Note_off_c, 0, 67, 63
1, 46384, Note_on_c, 0, 65, 79
1, 46417, Note_off_c, 0, 65, 65
1, 46583, Note_on_c, 0, 65, 74
1, 46758, Note_on_c, 0, 74, 70
1, 46776, Note_off_c, 0, 65, 61
1, 46803, Note_off_c, 0, 74, 66
1, 46968, Note_on_c, 0, 74, 66
1, 46980, Note_on_c, 0, 65, 57
1, 46992, Note_on_c, 0, 58, 38
1, 47001, Note_on_c, 0, 46, 39
1, 47182, Control_c, 0, 64, 20
1, 47204, Control_c, 0, 64, 57
1, 47219, Control_c, 0, 64, 63
1, 47234, Control_c, 0, 64, 66
1, 47249, Control_c, 0, 64, 71
1, 47263, Control_c, 0, 64, 78
1, 47278, Control_c, 0, 64, 85
1, 47293, Control_c, 0, 64, 94
1, 47308, Control_c, 0, 64, 99
1, 47323, Control_c, 0, 64, 102
1, 47338, Control_c, 0, 64, 104
1, 47353, Control_c, 0, 64, 109
1, 47368, Control_c, 0, 64, 116
1, 47382, Control_c, 0, 64, 118
1, 47415, Note_off_c, 0, 46, 41
1, 47472, Control_c, 0, 64, 118
1, 47520, Note_off_c, 0, 74, 53
1, 47531, Control_c, 0, 64, 117
1, 47534, Note_on_c, 0, 72, 64
1, 47546, Control_c, 0, 64, 115
1, 47561, Control_c, 0, 64, 112
1, 47575, Control_c, 0, 64, 110
1, 47590, Control_c, 0, 64, 109
1, 47605, Control_c, 0, 64, 108
1, 47620, Control_c, 0, 64, 106
1, 47628, Note_off_c, 0, 65, 33
1, 47635, Control_c, 0, 64, 102
1, 47649, Control_c, 0, 64, 97
1, 47664, Control_c, 0, 64, 91
1, 47679, Control_c, 0, 64, 84
1, 47694, Control_c, 0, 64, 76
1, 47708, Control_c, 0, 64, 67
1, 47719, Note_on_c, 0, 76, 72
1, 47721, Note_on_c, 0, 57, 43
1, 47723, Control_c, 0, 64, 53
1, 47732, Note_off_c, 0, 58, 42
1, 47738, Control_c, 0, 64, 0
1, 47770, Note_off_c, 0, 72, 63
1, 47904, Note_on_c, 0, 77, 76
1, 47909, Note_off_c, 0, 76, 63
1, 48076, Note_off_c, 0, 57, 56
1, 48109, Note_on_c, 0, 62, 45
1, 48111, Note_on_c, 0, 59, 39
1, 48268, Note_on_c, 0, 67, 63
1, 48278, Note_off_c, 0, 77, 57
1, 48438, Note_off_c, 0, 59, 54
1, 48458, Note_on_c, 0, 69, 65
1, 48467, Note_on_c, 0, 60, 40
1, 48469, Note_off_c, 0, 62, 52
1, 48482, Note_off_c, 0, 67, 57
1, 48628, Note_off_c, 0, 69, 64
1, 48655, Note_on_c, 0, 77, 59
1, 48819, Note_off_c, 0, 60, 61
1, 48837, Note_on_c, 0, 59, 49
1, 48838, Note_on_c, 0, 62, 48
1, 49019, Note_on_c, 0, 67, 69
1, 49055, Note_off_c, 0, 77, 34
1, 49165, Note_off_c, 0, 59, 59
1, 49194, Note_on_c, 0, 69, 78
1, 49204, Note_on_c, 0, 60, 52
1, 49205, Note_off_c, 0, 62, 53
1, 49238, Note_off_c, 0, 67, 59
1, 49373, Note_off_c, 0, 69, 64
1, 49377, Note_on_c, 0, 77, 77
1, 49545, Note_off_c, 0, 60, 62
1, 49568, Note_on_c, 0, 72, 76
1, 49579, Note_on_c, 0, 62, 49
1, 49588, Note_on_c, 0, 65, 43
1, 49615, Note_off_c, 0, 77, 62
1, 49755, Note_off_c, 0, 62, 0
1, 49755, Note_on_c, 0, 62, 13
1, 49921, Note_on_c, 0, 71, 65
1, 49921, Note_off_c, 0, 72, 60
1, 49932, Note_on_c, 0, 64, 48
1, 49934, Note_off_c, 0, 62, 50
1, 49935, Note_off_c, 0, 65, 47
1, 49946, Note_on_c, 0, 67, 39
1, 50095, Note_off_c, 0, 71, 65
1, 50096, Note_on_c, 0, 70, 67
1, 50273, Note_off_c, 0, 64, 50
1, 50273, Note_off_c, 0, 70, 56
1, 50280, Note_on_c, 0, 69, 65
1, 50289, Note_on_c, 0, 65, 46
1, 50313, Note_off_c, 0, 69, 67
1, 50327, Note_off_c, 0, 67, 54
1, 50465, Note_on_c, 0, 69, 63
1, 50497, Note_off_c, 0, 65, 57
1, 50648, Note_on_c, 0, 70, 71
1, 50686, Note_off_c, 0, 69, 61
1, 50824, Note_on_c, 0, 72, 79
1, 50828, Note_off_c, 0, 70, 63
1, 51021, Note_on_c, 0, 73, 78
1, 51054, Note_off_c, 0, 72, 63
1, 51104, Note_on_c, 0, 74, 77
1, 51152, Note_off_c, 0, 73, 53
1, 51192, Note_on_c, 0, 50, 80
1, 51356, Note_off_c, 0, 50, 66
1, 51367, Note_on_c, 0, 62, 78
1, 51418, Note_off_c, 0, 62, 62
1, 51523, Note_off_c, 0, 74, 61
1, 51553, Note_on_c, 0, 60, 65
1, 51555, Note_on_c, 0, 76, 76
1, 51585, Note_off_c, 0, 60, 67
1, 51637, Note_on_c, 0, 78, 78
1, 51639, Note_off_c, 0, 76, 61
1, 51710, Note_off_c, 0, 78, 64
1, 51731, Note_on_c, 0, 58, 63
1, 51734, Note_on_c, 0, 79, 82
1, 51762, Note_off_c, 0, 58, 64
1, 51812, Note_on_c, 0, 81, 81
1, 51830, Note_off_c, 0, 79, 59
1, 51889, Note_on_c, 0, 46, 70
1, 51892, Note_off_c, 0, 81, 64
1, 51900, Note_on_c, 0, 82, 91
1, 51921, Note_off_c, 0, 46, 65
1, 51982, Note_on_c, 0, 81, 83
1, 51997, Note_off_c, 0, 82, 60
1, 52042, Note_off_c, 0, 81, 66
1, 52071, Note_on_c, 0, 58, 81
1, 52071, Note_on_c, 0, 79, 87
1, 52145, Note_on_c, 0, 81, 82
1, 52161, Note_off_c, 0, 79, 57
1, 52238, Note_on_c, 0, 77, 83
1, 52241, Note_on_c, 0, 57, 75
1, 52243, Note_off_c, 0, 58, 52
1, 52250, Note_off_c, 0, 81, 65
1, 52275, Note_off_c, 0, 57, 65
1, 52321, Note_on_c, 0, 79, 87
1, 52326, Note_off_c, 0, 77, 64
1, 52390, Note_off_c, 0, 79, 62
1, 52409, Note_on_c, 0, 55, 78
1, 52410, Note_on_c, 0, 76, 90
1, 52453, Note_off_c, 0, 55, 61
1, 52485, Note_off_c, 0, 76, 54
1, 52497, Note_on_c, 0, 77, 84
1, 52587, Note_on_c, 0, 53, 81
1, 52590, Note_on_c, 0, 74, 85
1, 52593, Note_off_c, 0, 77, 63
1, 52622, Note_off_c, 0, 53, 68
1, 52671, Note_on_c, 0, 76, 88
1, 52674, Note_off_c, 0, 74, 64
1, 52736, Note_off_c, 0, 76, 62
1, 52756, Note_on_c, 0, 52, 91
1, 52760, Note_on_c, 0, 72, 87
1, 52790, Note_off_c, 0, 52, 65
1, 52846, Note_on_c, 0, 74, 84
1, 52853, Note_off_c, 0, 72, 63
1, 52917, Note_on_c, 0, 48, 79
1, 52930, Note_on_c, 0, 70, 88
1, 52930, Note_off_c, 0, 74, 62
1, 52949, Note_off_c, 0, 48, 65
1, 53007, Note_on_c, 0, 72, 84
1, 53011, Note_off_c, 0, 70, 64
1, 53088, Note_off_c, 0, 72, 60
1, 53101, Note_on_c, 0, 53, 88
1, 53102, Note_on_c, 0, 69, 83
1, 53195, Note_on_c, 0, 70, 87
1, 53222, Note_off_c, 0, 69, 64
1, 53240, Note_off_c, 0, 53, 64
1, 53278, Note_on_c, 0, 72, 84
1, 53288, Note_off_c, 0, 70, 63
1, 53327, Note_off_c, 0, 72, 63
1, 53363, Note_on_c, 0, 74, 82
1, 53451, Note_on_c, 0, 45, 85
1, 53458, Note_on_c, 0, 76, 85
1, 53458, Note_off_c, 0, 74, 63
1, 53535, Note_on_c, 0, 77, 84
1, 53537, Note_off_c, 0, 76, 64
1, 53578, Note_off_c, 0, 45, 63
1, 53618, Note_off_c, 0, 77, 63
1, 53622, Note_on_c, 0, 76, 90
1, 53703, Note_on_c, 0, 77, 86
1, 53714, Note_off_c, 0, 76, 60
1, 53786, Note_off_c, 0, 77, 62
1, 53788, Note_on_c, 0, 46, 86
1, 53796, Note_on_c, 0, 79, 92
1, 53882, Note_on_c, 0, 77, 87
1, 53896, Note_off_c, 0, 79, 64
1, 53927, Note_off_c, 0, 46, 64
1, 53973, Note_on_c, 0, 76, 86
1, 53989, Note_off_c, 0, 77, 62
1, 54030, Note_off_c, 0, 76, 64
1, 54052, Note_on_c, 0, 74, 88
1, 54129, Note_off_c, 0, 74, 57
1, 54139, Note_on_c, 0, 76, 91
1, 54140, Note_on_c, 0, 58, 89
1, 54209, Note_off_c, 0, 76, 60
1, 54227, Note_on_c, 0, 74, 88
1, 54237, Note_off_c, 0, 58, 62
1, 54309, Note_on_c, 0, 72, 85
1, 54329, Note_off_c, 0, 74, 49
1, 54387, Note_on_c, 0, 70, 82
1, 54397, Note_off_c, 0, 72, 59
1, 54480, Note_off_c, 0, 70, 63
1, 54485, Note_on_c, 0, 69, 87
1, 54489, Note_on_c, 0, 60, 84
1, 54522, Control_c, 0, 64, 37
1, 54537, Control_c, 0, 64, 61
1, 54551, Control_c, 0, 64, 69
1, 54566, Control_c, 0, 64, 79
1, 54581, Control_c, 0, 64, 93
1, 54596, Control_c, 0, 64, 113
1, 54604, Note_off_c, 0, 60, 61
1, 54611, Control_c, 0, 64, 127
1, 54665, Note_off_c, 0, 69, 63
1, 54849, Note_on_c, 0, 64, 70
1, 54856, Note_on_c, 0, 48, 75
1, 54858, Note_on_c, 0, 69, 81
1, 54885, Control_c, 0, 64, 90
1, 54899, Control_c, 0, 64, 63
1, 54913, Note_off_c, 0, 69, 66
1, 54914, Control_c, 0, 64, 0
1, 54915, Note_on_c, 0, 67, 85
1, 54921, Note_off_c, 0, 64, 37
1, 54964, Note_on_c, 0, 69, 76
1, 54966, Note_off_c, 0, 48, 62
1, 54970, Note_off_c, 0, 67, 63
1, 55017, Note_on_c, 0, 67, 76
1, 55025, Note_off_c, 0, 69, 67
1, 55071, Note_off_c, 0, 67, 63
1, 55077, Note_on_c, 0, 65, 81
1, 55143, Note_off_c, 0, 65, 61
1, 55146, Note_on_c, 0, 67, 76
1, 55198, Note_on_c, 0, 65, 85
1, 55203, Note_on_c, 0, 53, 69
1, 55212, Note_off_c, 0, 67, 65
1, 55249, Note_off_c, 0, 53, 65
1, 55285, Note_on_c, 0, 60, 69
1, 55368, Note_off_c, 0, 60, 61
1, 55383, Note_on_c, 0, 59, 75
1, 55445, Note_off_c, 0, 59, 61
1, 55463, Note_off_c, 0, 65, 57
1, 55476, Note_on_c, 0, 60, 72
1, 55547, Note_on_c, 0, 62, 84
1, 55555, Note_off_c, 0, 60, 62
1, 55595, Note_off_c, 0, 62, 64
1, 55639, Note_on_c, 0, 60, 74
1, 55678, Note_off_c, 0, 60, 65
1, 55720, Note_on_c, 0, 59, 68
1, 55758, Note_off_c, 0, 59, 57
1, 55794, Note_on_c, 0, 60, 73
1, 55867, Note_off_c, 0, 60, 60
1, 55885, Note_on_c, 0, 58, 79
1, 55937, Note_off_c, 0, 58, 61
1, 55962, Note_on_c, 0, 60, 76
1, 56008, Note_off_c, 0, 60, 61
1, 56050, Note_on_c, 0, 57, 69
1, 56086, Note_off_c, 0, 57, 63
1, 56122, Note_on_c, 0, 60, 68
1, 56179, Note_off_c, 0, 60, 60
1, 56230, Note_on_c, 0, 55, 64
1, 56268, Note_off_c, 0, 55, 60
1, 56307, Note_on_c, 0, 60, 64
1, 56360, Note_off_c, 0, 60, 58
1, 56404, Note_on_c, 0, 53, 64
1, 56438, Note_off_c, 0, 53, 63
1, 56474, Note_on_c, 0, 60, 65
1, 56575, Control_c, 0, 64, 17
1, 56580, Note_off_c, 0, 60, 50
1, 56583, Note_on_c, 0, 82, 87
1, 56589, Control_c, 0, 64, 46
1, 56593, Note_on_c, 0, 52, 60
1, 56604, Control_c, 0, 64, 56
1, 56620, Control_c, 0, 64, 57
1, 56635, Control_c, 0, 64, 59
1, 56648, Note_off_c, 0, 52, 60
1, 56650, Control_c, 0, 64, 62
1, 56665, Control_c, 0, 64, 64
1, 56680, Control_c, 0, 64, 65
1, 56691, Note_on_c, 0, 60, 60
1, 56694, Control_c, 0, 64, 64
1, 56709, Control_c, 0, 64, 61
1, 56724, Control_c, 0, 64, 53
1, 56739, Control_c, 0, 64, 30
1, 56754, Control_c, 0, 64, 0
1, 56756, Note_on_c, 0, 79, 81
1, 56757, Note_off_c, 0, 60, 57
1, 56769, Note_off_c, 0, 82, 63
1, 56776, Note_on_c, 0, 55, 49
1, 56797, Note_off_c, 0, 79, 62
1, 56808, Note_off_c, 0, 55, 62
1, 56862, Note_on_c, 0, 60, 41
1, 56908, Note_off_c, 0, 60, 64
1, 56924, Note_on_c, 0, 76, 76
1, 56942, Note_on_c, 0, 58, 53
1, 56963, Note_off_c, 0, 76, 65
1, 56973, Note_off_c, 0, 58, 59
1, 57019, Note_on_c, 0, 60, 50
1, 57064, Note_off_c, 0, 60, 61
1, 57096, Note_on_c, 0, 58, 46
1, 57103, Note_on_c, 0, 76, 69
1, 57124, Note_off_c, 0, 76, 61
1, 57129, Note_off_c, 0, 58, 60
1, 57170, Note_on_c, 0, 60, 56
1, 57223, Note_off_c, 0, 60, 54
1, 57249, Control_c, 0, 64, 41
1, 57264, Control_c, 0, 64, 59
1, 57279, Control_c, 0, 64, 65
1, 57282, Note_on_c, 0, 82, 80
1, 57285, Note_on_c, 0, 52, 50
1, 57294, Control_c, 0, 64, 67
1, 57309, Control_c, 0, 64, 67
1, 57339, Control_c, 0, 64, 68
1, 57350, Note_off_c, 0, 52, 56
1, 57354, Control_c, 0, 64, 68
1, 57374, Note_on_c, 0, 60, 47
1, 57398, Control_c, 0, 64, 66
1, 57413, Control_c, 0, 64, 63
1, 57428, Control_c, 0, 64, 53
1, 57443, Control_c, 0, 64, 10
1, 57455, Note_off_c, 0, 60, 62
1, 57458, Control_c, 0, 64, 0
1, 57460, Note_on_c, 0, 79, 77
1, 57465, Note_on_c, 0, 55, 51
1, 57476, Note_off_c, 0, 82, 62
1, 57493, Note_off_c, 0, 79, 60
1, 57517, Note_off_c, 0, 55, 61
1, 57546, Note_on_c, 0, 60, 48
1, 57634, Note_off_c, 0, 60, 62
1, 57645, Note_on_c, 0, 76, 76
1, 57655, Note_on_c, 0, 58, 43
1, 57672, Note_off_c, 0, 76, 67
1, 57702, Note_off_c, 0, 58, 52
1, 57749, Note_on_c, 0, 60, 45
1, 57787, Note_off_c, 0, 60, 58
1, 57814, Note_on_c, 0, 58, 46
1, 57826, Note_on_c, 0, 76, 75
1, 57852, Note_off_c, 0, 76, 67
1, 57856, Note_off_c, 0, 58, 60
1, 57893, Note_on_c, 0, 60, 54
1, 57947, Note_off_c, 0, 60, 58
1, 57985, Note_on_c, 0, 57, 66
1, 57991, Note_on_c, 0, 77, 71
1, 58018, Note_off_c, 0, 77, 67
1, 58022, Note_off_c, 0, 57, 63
1, 58077, Note_on_c, 0, 60, 49
1, 58131, Note_off_c, 0, 60, 59
1, 58166, Note_on_c, 0, 79, 76
1, 58169, Note_on_c, 0, 52, 60
1, 58191, Note_off_c, 0, 79, 66
1, 58212, Note_off_c, 0, 52, 63
1, 58248, Note_on_c, 0, 60, 60
1, 58315, Note_off_c, 0, 60, 57
1, 58334, Note_on_c, 0, 81, 81
1, 58343, Note_on_c, 0, 53, 64
1, 58367, Note_off_c, 0, 81, 64
1, 58387, Note_off_c, 0, 53, 65
1, 58423, Note_on_c, 0, 60, 60
1, 58473, Note_off_c, 0, 60, 62
1, 58507, Note_on_c, 0, 55, 62
1, 58508, Note_on_c, 0, 82, 85
1, 58539, Note_off_c, 0, 55, 63
1, 58557, Note_off_c, 0, 82, 62
1, 58597, Note_on_c, 0, 60, 52
1, 58673, Control_c, 0, 64, 36
1, 58681, Note_off_c, 0, 60, 54
1, 58688, Control_c, 0, 64, 57
1, 58690, Note_on_c, 0, 83, 87
1, 58702, Note_on_c, 0, 56, 59
1, 58703, Control_c, 0, 64, 65
1, 58718, Control_c, 0, 64, 68
1, 58732, Control_c, 0, 64, 70
1, 58747, Control_c, 0, 64, 70
1, 58762, Control_c, 0, 64, 70
1, 58763, Note_off_c, 0, 56, 61
1, 58777, Control_c, 0, 64, 69
1, 58791, Control_c, 0, 64, 65
1, 58793, Note_on_c, 0, 60, 60
1, 58806, Control_c, 0, 64, 57
1, 58821, Control_c, 0, 64, 28
1, 58836, Control_c, 0, 64, 0
1, 58848, Note_off_c, 0, 60, 56
1, 58868, Note_on_c, 0, 84, 81
1, 58878, Note_on_c, 0, 57, 61
1, 58886, Note_off_c, 0, 83, 64
1, 58911, Note_off_c, 0, 84, 66
1, 58915, Note_off_c, 0, 57, 65
1, 58951, Note_on_c, 0, 60, 65
1, 59000, Control_c, 0, 64, 20
1, 59015, Control_c, 0, 64, 55
1, 59029, Control_c, 0, 64, 65
1, 59036, Note_off_c, 0, 60, 60
1, 59041, Note_on_c, 0, 83, 94
1, 59044, Control_c, 0, 64, 71
1, 59045, Note_on_c, 0, 56, 68
1, 59059, Control_c, 0, 64, 76
1, 59074, Control_c, 0, 64, 80
1, 59088, Control_c, 0, 64, 81
1, 59100, Note_off_c, 0, 56, 56
1, 59133, Control_c, 0, 64, 80
1, 59142, Note_on_c, 0, 60, 64
1, 59148, Control_c, 0, 64, 74
1, 59163, Control_c, 0, 64, 64
1, 59185, Control_c, 0, 64, 21
1, 59187, Note_off_c, 0, 60, 62
1, 59200, Control_c, 0, 64, 0
1, 59229, Note_on_c, 0, 57, 61
1, 59229, Note_on_c, 0, 84, 82
1, 59241, Note_off_c, 0, 83, 64
1, 59264, Note_off_c, 0, 57, 65
1, 59266, Note_off_c, 0, 84, 66
1, 59289, Note_on_c, 0, 60, 69
1, 59361, Note_off_c, 0, 60, 60
1, 59363, Control_c, 0, 64, 24
1, 59378, Control_c, 0, 64, 56
1, 59392, Control_c, 0, 64, 66
1, 59399, Note_on_c, 0, 82, 90
1, 59404, Note_on_c, 0, 52, 64
1, 59407, Control_c, 0, 64, 72
1, 59422, Control_c, 0, 64, 78
1, 59437, Control_c, 0, 64, 84
1, 59452, Control_c, 0, 64, 89
1, 59457, Note_off_c, 0, 52, 56
1, 59467, Control_c, 0, 64, 93
1, 59481, Control_c, 0, 64, 99
1, 59484, Note_on_c, 0, 60, 60
1, 59496, Control_c, 0, 64, 105
1, 59511, Control_c, 0, 64, 110
1, 59526, Control_c, 0, 64, 111
1, 59541, Control_c, 0, 64, 110
1, 59555, Control_c, 0, 64, 99
1, 59568, Note_on_c, 0, 79, 85
1, 59570, Note_off_c, 0, 60, 59
1, 59570, Control_c, 0, 64, 85
1, 59571, Note_on_c, 0, 55, 59
1, 59576, Note_off_c, 0, 82, 61
1, 59585, Control_c, 0, 64, 69
1, 59600, Control_c, 0, 64, 45
1, 59609, Note_off_c, 0, 55, 64
1, 59614, Control_c, 0, 64, 0
1, 59619, Note_off_c, 0, 79, 63
1, 59655, Note_on_c, 0, 60, 58
1, 59717, Note_off_c, 0, 60, 59
1, 59744, Note_on_c, 0, 76, 79
1, 59747, Note_on_c, 0, 58, 59
1, 59775, Note_off_c, 0, 76, 64
1, 59786, Note_off_c, 0, 58, 63
1, 59833, Note_on_c, 0, 60, 58
1, 59881, Note_off_c, 0, 60, 59
1, 59913, Note_on_c, 0, 76, 69
1, 59923, Note_on_c, 0, 58, 52
1, 59949, Note_off_c, 0, 76, 65
1, 59968, Note_off_c, 0, 58, 64
1, 60004, Note_on_c, 0, 60, 55
1, 60051, Note_off_c, 0, 60, 56
1, 60067, Control_c, 0, 64, 22
1, 60082, Control_c, 0, 64, 48
1, 60093, Note_on_c, 0, 82, 81
1, 60097, Control_c, 0, 64, 60
1, 60099, Note_on_c, 0, 52, 60
1, 60111, Control_c, 0, 64, 66
1, 60126, Control_c, 0, 64, 74
1, 60141, Control_c, 0, 64, 81
1, 60156, Control_c, 0, 64, 86
1, 60159, Note_off_c, 0, 52, 57
1, 60171, Control_c, 0, 64, 89
1, 60179, Note_on_c, 0, 60, 61
1, 60186, Control_c, 0, 64, 93
1, 60201, Control_c, 0, 64, 97
1, 60216, Control_c, 0, 64, 99
1, 60245, Control_c, 0, 64, 91
1, 60256, Note_off_c, 0, 60, 62
1, 60260, Control_c, 0, 64, 79
1, 60265, Note_on_c, 0, 79, 82
1, 60268, Note_on_c, 0, 55, 62
1, 60275, Control_c, 0, 64, 65
1, 60290, Control_c, 0, 64, 27
1, 60293, Note_off_c, 0, 82, 62
1, 60304, Note_off_c, 0, 55, 64
1, 60305, Control_c, 0, 64, 0
1, 60315, Note_off_c, 0, 79, 61
1, 60345, Note_on_c, 0, 60, 61
1, 60434, Note_off_c, 0, 60, 62
1, 60446, Note_on_c, 0, 76, 75
1, 60448, Note_on_c, 0, 58, 53
1, 60472, Note_off_c, 0, 76, 67
1, 60483, Note_off_c, 0, 58, 62
1, 60534, Note_on_c, 0, 60, 48
1, 60582, Note_off_c, 0, 60, 61
1, 60617, Note_on_c, 0, 76, 75
1, 60627, Note_on_c, 0, 58, 32
1, 60642, Note_off_c, 0, 76, 67
1, 60660, Note_off_c, 0, 58, 54
1, 60690, Note_on_c, 0, 60, 53
1, 60735, Note_off_c, 0, 60, 59
1, 60788, Note_on_c, 0, 57, 49
1, 60791, Note_on_c, 0, 77, 70
1, 60817, Note_off_c, 0, 77, 67
1, 60822, Note_off_c, 0, 57, 60
1, 60872, Note_on_c, 0, 60, 52
1, 60920, Note_off_c, 0, 60, 61
1, 60963, Note_on_c, 0, 79, 73
1, 60966, Note_on_c, 0, 52, 56
1, 60988, Note_off_c, 0, 79, 66
1, 61008, Note_off_c, 0, 52, 64
1, 61056, Note_on_c, 0, 60, 53
1, 61103, Note_off_c, 0, 60, 60
1, 61126, Note_on_c, 0, 81, 76
1, 61139, Note_on_c, 0, 53, 57
1, 61153, Note_off_c, 0, 81, 65
1, 61178, Note_off_c, 0, 53, 66
1, 61217, Note_on_c, 0, 60, 52
1, 61264, Note_off_c, 0, 60, 61
1, 61291, Note_on_c, 0, 82, 85
1, 61294, Note_on_c, 0, 55, 59
1, 61326, Note_off_c, 0, 55, 64
1, 61333, Note_off_c, 0, 82, 64
1, 61374, Note_on_c, 0, 60, 51
1, 61461, Control_c, 0, 64, 47
1, 61464, Note_off_c, 0, 60, 52
1, 61476, Control_c, 0, 64, 59
1, 61481, Note_on_c, 0, 83, 88
1, 61484, Note_on_c, 0, 56, 60
1, 61491, Control_c, 0, 64, 64
1, 61506, Control_c, 0, 64, 68
1, 61521, Control_c, 0, 64, 72
1, 61536, Control_c, 0, 64, 78
1, 61544, Note_off_c, 0, 56, 59
1, 61551, Control_c, 0, 64, 82
1, 61565, Control_c, 0, 64, 84
1, 61570, Note_on_c, 0, 60, 66
1, 61609, Control_c, 0, 64, 80
1, 61624, Control_c, 0, 64, 73
1, 61639, Control_c, 0, 64, 63
1, 61640, Note_off_c, 0, 60, 61
1, 61654, Note_on_c, 0, 84, 85
1, 61654, Control_c, 0, 64, 0
1, 61669, Note_on_c, 0, 57, 61
1, 61673, Note_off_c, 0, 83, 64
1, 61698, Note_off_c, 0, 84, 65
1, 61705, Note_off_c, 0, 57, 63
1, 61750, Note_on_c, 0, 60, 65
1, 61801, Control_c, 0, 64, 51
1, 61802, Note_off_c, 0, 60, 56
1, 61816, Control_c, 0, 64, 63
1, 61831, Control_c, 0, 64, 68
1, 61836, Note_on_c, 0, 83, 84
1, 61842, Note_on_c, 0, 56, 58
1, 61846, Control_c, 0, 64, 72
1, 61861, Control_c, 0, 64, 75
1, 61876, Control_c, 0, 64, 79
1, 61890, Control_c, 0, 64, 82
1, 61899, Note_off_c, 0, 56, 57
1, 61905, Control_c, 0, 64, 84
1, 61920, Control_c, 0, 64, 87
1, 61929, Note_on_c, 0, 60, 60
1, 61935, Control_c, 0, 64, 91
1, 61950, Control_c, 0, 64, 93
1, 61965, Control_c, 0, 64, 95
1, 61973, Note_off_c, 0, 60, 63
1, 61980, Control_c, 0, 64, 95
1, 62007, Note_on_c, 0, 84, 75
1, 62017, Note_off_c, 0, 83, 63
1, 62022, Note_on_c, 0, 57, 52
1, 62039, Control_c, 0, 64, 94
1, 62040, Note_off_c, 0, 84, 65
1, 62048, Note_off_c, 0, 57, 58
1, 62054, Control_c, 0, 64, 90
1, 62069, Control_c, 0, 64, 83
1, 62077, Note_on_c, 0, 60, 70
1, 62083, Control_c, 0, 64, 73
1, 62098, Control_c, 0, 64, 64
1, 62113, Control_c, 0, 64, 41
1, 62114, Note_off_c, 0, 60, 65
1, 62128, Control_c, 0, 64, 0
1, 62263, Note_on_c, 0, 86, 53
1, 62285, Note_on_c, 0, 74, 36
1, 62344, Control_c, 0, 64, 32
1, 62358, Control_c, 0, 64, 55
1, 62373, Control_c, 0, 64, 62
1, 62388, Control_c, 0, 64, 65
1, 62403, Control_c, 0, 64, 66
1, 62418, Control_c, 0, 64, 68
1, 62432, Control_c, 0, 64, 72
1, 62446, Control_c, 0, 64, 78
1, 62461, Control_c, 0, 64, 84
1, 62464, Note_on_c, 0, 58, 45
1, 62476, Control_c, 0, 64, 91
1, 62491, Control_c, 0, 64, 97
1, 62505, Control_c, 0, 64, 102
1, 62520, Control_c, 0, 64, 104
1, 62535, Control_c, 0, 64, 107
1, 62550, Control_c, 0, 64, 109
1, 62579, Control_c, 0, 64, 105
1, 62594, Control_c, 0, 64, 95
1, 62609, Control_c, 0, 64, 85
1, 62624, Control_c, 0, 64, 79
1, 62634, Note_on_c, 0, 57, 48
1, 62637, Note_off_c, 0, 58, 43
1, 62639, Control_c, 0, 64, 78
1, 62654, Control_c, 0, 64, 80
1, 62668, Control_c, 0, 64, 87
1, 62683, Control_c, 0, 64, 100
1, 62684, Note_off_c, 0, 86, 65
1, 62698, Control_c, 0, 64, 115
1, 62713, Control_c, 0, 64, 127
1, 62718, Note_off_c, 0, 74, 64
1, 62838, Note_off_c, 0, 57, 37
1, 62840, Note_on_c, 0, 58, 45
1, 62872, Note_off_c, 0, 58, 55
1, 63002, Control_c, 0, 64, 106
1, 63017, Control_c, 0, 64, 87
1, 63032, Control_c, 0, 64, 71
1, 63038, Note_on_c, 0, 76, 64
1, 63047, Control_c, 0, 64, 52
1, 63053, Note_on_c, 0, 64, 41
1, 63062, Control_c, 0, 64, 0
1, 63107, Control_c, 0, 64, 40
1, 63122, Control_c, 0, 64, 57
1, 63136, Control_c, 0, 64, 64
1, 63151, Control_c, 0, 64, 67
1, 63166, Control_c, 0, 64, 72
1, 63181, Control_c, 0, 64, 78
1, 63195, Control_c, 0, 64, 88
1, 63209, Control_c, 0, 64, 100
1, 63215, Note_on_c, 0, 60, 46
1, 63224, Control_c, 0, 64, 120
1, 63239, Control_c, 0, 64, 127
1, 63387, Control_c, 0, 64, 116
1, 63401, Note_off_c, 0, 60, 57
1, 63402, Control_c, 0, 64, 95
1, 63410, Note_on_c, 0, 59, 48
1, 63417, Control_c, 0, 64, 83
1, 63429, Note_off_c, 0, 64, 61
1, 63432, Control_c, 0, 64, 78
1, 63446, Control_c, 0, 64, 78
1, 63461, Control_c, 0, 64, 84
1, 63476, Control_c, 0, 64, 94
1, 63491, Control_c, 0, 64, 113
1, 63506, Control_c, 0, 64, 127
1, 63593, Note_on_c, 0, 60, 45
1, 63612, Note_off_c, 0, 59, 37
1, 63653, Note_off_c, 0, 60, 55
1, 63750, Control_c, 0, 64, 97
1, 63765, Control_c, 0, 64, 79
1, 63779, Control_c, 0, 64, 64
1, 63789, Note_on_c, 0, 82, 78
1, 63794, Control_c, 0, 64, 28
1, 63810, Control_c, 0, 64, 0
1, 63813, Note_on_c, 0, 70, 49
1, 63813, Note_off_c, 0, 76, 62
1, 63855, Control_c, 0, 64, 30
1, 63869, Control_c, 0, 64, 55
1, 63884, Control_c, 0, 64, 64
1, 63899, Control_c, 0, 64, 68
1, 63914, Control_c, 0, 64, 73
1, 63929, Control_c, 0, 64, 81
1, 63944, Control_c, 0, 64, 92
1, 63959, Control_c, 0, 64, 108
1, 63974, Control_c, 0, 64, 127
1, 63986, Note_on_c, 0, 61, 47
1, 64137, Control_c, 0, 64, 97
1, 64151, Control_c, 0, 64, 78
1, 64155, Note_off_c, 0, 61, 54
1, 64166, Control_c, 0, 64, 67
1, 64171, Note_on_c, 0, 59, 38
1, 64181, Control_c, 0, 64, 63
1, 64195, Control_c, 0, 64, 64
1, 64210, Control_c, 0, 64, 70
1, 64225, Control_c, 0, 64, 81
1, 64240, Control_c, 0, 64, 103
1, 64255, Control_c, 0, 64, 127
1, 64325, Note_off_c, 0, 70, 54
1, 64347, Note_off_c, 0, 82, 58
1, 64366, Note_on_c, 0, 61, 43
1, 64376, Note_off_c, 0, 59, 40
1, 64397, Note_off_c, 0, 61, 57
1, 64529, Control_c, 0, 64, 103
1, 64544, Control_c, 0, 64, 86
1, 64558, Control_c, 0, 64, 71
1, 64564, Note_on_c, 0, 81, 59
1, 64573, Control_c, 0, 64, 54
1, 64582, Note_on_c, 0, 69, 43
1, 64588, Control_c, 0, 64, 0
1, 64633, Control_c, 0, 64, 45
1, 64648, Control_c, 0, 64, 61
1, 64663, Control_c, 0, 64, 68
1, 64678, Control_c, 0, 64, 73
1, 64693, Control_c, 0, 64, 83
1, 64707, Control_c, 0, 64, 92
1, 64722, Control_c, 0, 64, 104
1, 64737, Control_c, 0, 64, 127
1, 64755, Note_on_c, 0, 62, 40
1, 64915, Control_c, 0, 64, 94
1, 64930, Control_c, 0, 64, 79
1, 64945, Control_c, 0, 64, 71
1, 64953, Note_on_c, 0, 61, 39
1, 64959, Note_off_c, 0, 62, 41
1, 64960, Control_c, 0, 64, 71
1, 64974, Note_off_c, 0, 69, 58
1, 64974, Control_c, 0, 64, 77
1, 64989, Control_c, 0, 64, 87
1, 65004, Control_c, 0, 64, 104
1, 65018, Control_c, 0, 64, 127
1, 65117, Note_off_c, 0, 81, 61
1, 65155, Note_on_c, 0, 62, 36
1, 65184, Note_off_c, 0, 61, 38
1, 65223, Note_off_c, 0, 62, 50
1, 65293, Control_c, 0, 64, 97
1, 65307, Control_c, 0, 64, 79
1, 65322, Control_c, 0, 64, 66
1, 65337, Control_c, 0, 64, 41
1, 65348, Note_on_c, 0, 81, 52
1, 65351, Control_c, 0, 64, 0
1, 65420, Note_off_c, 0, 81, 64
1, 65435, Note_on_c, 0, 79, 57
1, 65513, Note_on_c, 0, 82, 71
1, 65518, Note_off_c, 0, 79, 59
1, 65600, Note_on_c, 0, 81, 67
1, 65607, Note_off_c, 0, 82, 55
1, 65673, Note_on_c, 0, 67, 49
1, 65682, Note_on_c, 0, 58, 47
1, 65682, Note_off_c, 0, 81, 62
1, 65688, Note_on_c, 0, 84, 72
1, 65762, Note_off_c, 0, 58, 58
1, 65765, Note_on_c, 0, 82, 70
1, 65775, Note_off_c, 0, 84, 61
1, 65844, Note_on_c, 0, 81, 69
1, 65855, Note_off_c, 0, 82, 60
1, 65891, Note_off_c, 0, 81, 63
1, 65943, Note_on_c, 0, 79, 65
1, 66037, Note_off_c, 0, 79, 59
1, 66039, Note_off_c, 0, 67, 42
1, 66040, Note_on_c, 0, 77, 66
1, 66046, Note_on_c, 0, 69, 40
1, 66054, Note_on_c, 0, 60, 42
1, 66430, Note_on_c, 0, 76, 59
1, 66440, Note_on_c, 0, 70, 44
1, 66458, Note_off_c, 0, 77, 54
1, 66487, Control_c, 0, 64, 24
1, 66487, Note_off_c, 0, 69, 48
1, 66502, Control_c, 0, 64, 60
1, 66517, Control_c, 0, 64, 70
1, 66532, Control_c, 0, 64, 81
1, 66546, Control_c, 0, 64, 95
1, 66553, Note_off_c, 0, 60, 58
1, 66556, Note_off_c, 0, 70, 63
1, 66561, Control_c, 0, 64, 110
1, 66576, Control_c, 0, 64, 127
1, 66767, Note_off_c, 0, 76, 57
1, 66820, Control_c, 0, 64, 99
1, 66832, Note_on_c, 0, 69, 70
1, 66835, Control_c, 0, 64, 81
1, 66848, Note_on_c, 0, 65, 51
1, 66850, Control_c, 0, 64, 66
1, 66865, Control_c, 0, 64, 24
1, 66879, Control_c, 0, 64, 0
1, 66969, Control_c, 0, 64, 37
1, 66984, Control_c, 0, 64, 61
1, 67000, Control_c, 0, 64, 70
1, 67015, Control_c, 0, 64, 79
1, 67024, Note_on_c, 0, 77, 55
1, 67029, Control_c, 0, 64, 91
1, 67044, Control_c, 0, 64, 104
1, 67059, Control_c, 0, 64, 127
1, 67148, Control_c, 0, 64, 116
1, 67163, Control_c, 0, 64, 89
1, 67177, Control_c, 0, 64, 75
1, 67192, Control_c, 0, 64, 65
1, 67206, Note_off_c, 0, 77, 58
1, 67207, Control_c, 0, 64, 60
1, 67217, Note_on_c, 0, 76, 58
1, 67221, Control_c, 0, 64, 63
1, 67236, Control_c, 0, 64, 69
1, 67251, Control_c, 0, 64, 81
1, 67260, Note_off_c, 0, 69, 63
1, 67266, Control_c, 0, 64, 102
1, 67281, Control_c, 0, 64, 127
1, 67293, Note_off_c, 0, 65, 37
1, 67410, Note_on_c, 0, 77, 55
1, 67420, Note_off_c, 0, 76, 55
1, 67520, Note_off_c, 0, 77, 57
1, 67554, Control_c, 0, 64, 109
1, 67569, Control_c, 0, 64, 88
1, 67584, Note_on_c, 0, 69, 68
1, 67584, Control_c, 0, 64, 70
1, 67596, Note_on_c, 0, 65, 51
1, 67599, Control_c, 0, 64, 38
1, 67614, Control_c, 0, 64, 0
1, 67673, Control_c, 0, 64, 42
1, 67688, Control_c, 0, 64, 62
1, 67702, Control_c, 0, 64, 70
1, 67717, Control_c, 0, 64, 79
1, 67732, Control_c, 0, 64, 93
1, 67746, Control_c, 0, 64, 108
1, 67761, Control_c, 0, 64, 127
1, 67775, Note_on_c, 0, 75, 60
1, 67925, Control_c, 0, 64, 99
1, 67940, Control_c, 0, 64, 83
1, 67951, Note_off_c, 0, 69, 64
1, 67955, Control_c, 0, 64, 73
1, 67959, Note_off_c, 0, 75, 56
1, 67966, Note_on_c, 0, 74, 58
1, 67970, Control_c, 0, 64, 70
1, 67979, Note_off_c, 0, 65, 61
1, 67985, Control_c, 0, 64, 73
1, 67999, Control_c, 0, 64, 81
1, 68014, Control_c, 0, 64, 98
1, 68029, Control_c, 0, 64, 127
1, 68145, Note_on_c, 0, 75, 70
1, 68154, Note_off_c, 0, 74, 61
1, 68252, Note_off_c, 0, 75, 59
1, 68317, Control_c, 0, 64, 92
1, 68327, Note_on_c, 0, 60, 76
1, 68332, Control_c, 0, 64, 73
1, 68334, Note_on_c, 0, 57, 55
1, 68340, Note_on_c, 0, 54, 55
1, 68347, Control_c, 0, 64, 54
1, 68362, Control_c, 0, 64, 0
1, 68517, Note_on_c, 0, 74, 74
1, 68697, Note_on_c, 0, 86, 73
1, 68708, Note_off_c, 0, 74, 64
1, 68736, Note_off_c, 0, 86, 65
1, 68881, Note_on_c, 0, 86, 74
1, 68928, Note_off_c, 0, 86, 66
1, 69048, Note_off_c, 0, 54, 39
1, 69068, Note_off_c, 0, 57, 58
1, 69083, Note_on_c, 0, 55, 44
1, 69084, Note_on_c, 0, 58, 52
1, 69140, Note_off_c, 0, 60, 62
1, 69266, Note_on_c, 0, 86, 55
1, 69417, Note_off_c, 0, 86, 60
1, 69447, Note_on_c, 0, 74, 52
1, 69483, Note_off_c, 0, 74, 64
1, 69493, Note_off_c, 0, 58, 55
1, 69514, Note_off_c, 0, 55, 52
1, 69641, Note_on_c, 0, 74, 56
1, 69680, Note_off_c, 0, 74, 67
1, 69832, Note_on_c, 0, 58, 64
1, 69833, Note_on_c, 0, 55, 38
1, 69843, Note_on_c, 0, 52, 54
1, 69845, Control_c, 0, 64, 37
1, 69860, Control_c, 0, 64, 49
1, 69875, Control_c, 0, 64, 55
1, 69889, Control_c, 0, 64, 62
1, 69904, Control_c, 0, 64, 68
1, 69919, Control_c, 0, 64, 76
1, 69935, Control_c, 0, 64, 85
1, 69949, Control_c, 0, 64, 90
1, 69964, Control_c, 0, 64, 91
1, 69979, Control_c, 0, 64, 92
1, 69994, Control_c, 0, 64, 93
1, 70009, Control_c, 0, 64, 94
1, 70010, Note_on_c, 0, 72, 68
1, 70097, Control_c, 0, 64, 92
1, 70112, Control_c, 0, 64, 90
1, 70127, Control_c, 0, 64, 86
1, 70142, Control_c, 0, 64, 82
1, 70157, Control_c, 0, 64, 78
1, 70171, Control_c, 0, 64, 72
1, 70187, Control_c, 0, 64, 65
1, 70198, Note_on_c, 0, 84, 66
1, 70202, Control_c, 0, 64, 47
1, 70203, Note_off_c, 0, 72, 63
1, 70217, Control_c, 0, 64, 0
1, 70231, Note_off_c, 0, 84, 65
1, 70374, Note_on_c, 0, 84, 67
1, 70425, Note_off_c, 0, 84, 65
1, 70536, Note_off_c, 0, 52, 53
1, 70577, Note_on_c, 0, 57, 49
1, 70578, Note_off_c, 0, 55, 51
1, 70579, Note_on_c, 0, 53, 48
1, 70639, Note_off_c, 0, 58, 36
1, 70763, Note_on_c, 0, 84, 58
1, 70921, Note_off_c, 0, 84, 59
1, 70949, Note_on_c, 0, 72, 65
1, 70979, Note_off_c, 0, 72, 66
1, 71142, Note_on_c, 0, 72, 59
1, 71161, Note_off_c, 0, 57, 63
1, 71168, Note_off_c, 0, 72, 63
1, 71183, Note_off_c, 0, 53, 63
1, 71327, Note_on_c, 0, 73, 64
1, 71511, Note_on_c, 0, 74, 76
1, 71534, Note_off_c, 0, 73, 61
1, 71698, Note_on_c, 0, 55, 50
1, 71700, Note_on_c, 0, 76, 83
1, 71704, Note_on_c, 0, 47, 43
1, 71730, Note_off_c, 0, 74, 65
1, 71880, Note_on_c, 0, 77, 84
1, 71882, Note_off_c, 0, 76, 63
1, 72040, Note_off_c, 0, 77, 56
1, 72055, Note_off_c, 0, 47, 56
1, 72061, Note_off_c, 0, 55, 60
1, 72091, Note_on_c, 0, 48, 40
1, 72091, Note_on_c, 0, 57, 49
1, 72093, Note_on_c, 0, 65, 62
1, 72231, Note_off_c, 0, 65, 56
1, 72270, Note_on_c, 0, 67, 51
1, 72295, Note_off_c, 0, 67, 60
1, 72317, Note_on_c, 0, 65, 63
1, 72347, Note_off_c, 0, 65, 66
1, 72359, Note_on_c, 0, 64, 60
1, 72407, Note_off_c, 0, 64, 58
1, 72422, Note_on_c, 0, 65, 64
1, 72460, Note_on_c, 0, 58, 49
1, 72467, Note_off_c, 0, 65, 60
1, 72472, Note_on_c, 0, 69, 64
1, 72479, Note_off_c, 0, 57, 41
1, 72484, Note_on_c, 0, 64, 34
1, 72551, Note_off_c, 0, 48, 62
1, 72556, Note_off_c, 0, 58, 59
1, 72616, Note_off_c, 0, 64, 27
1, 72631, Note_off_c, 0, 69, 59
1, 72666, Note_on_c, 0, 67, 60
1, 72694, Note_off_c, 0, 67, 63
1, 72781, Control_c, 0, 64, 19
1, 72796, Control_c, 0, 64, 51
1, 72811, Control_c, 0, 64, 63
1, 72826, Control_c, 0, 64, 68
1, 72840, Control_c, 0, 64, 74
1, 72844, Note_on_c, 0, 65, 59
1, 72851, Note_on_c, 0, 53, 43
1, 72855, Control_c, 0, 64, 82
1, 72858, Note_on_c, 0, 57, 38
1, 72869, Note_off_c, 0, 65, 63
1, 72870, Control_c, 0, 64, 87
1, 72881, Note_off_c, 0, 53, 61
1, 72885, Control_c, 0, 64, 90
1, 72892, Note_off_c, 0, 57, 54
1, 72900, Control_c, 0, 64, 93
1, 72914, Control_c, 0, 64, 95
1, 72930, Control_c, 0, 64, 96
1, 72945, Control_c, 0, 64, 97
1, 73004, Control_c, 0, 64, 96
1, 73019, Control_c, 0, 64, 93
1, 73033, Control_c, 0, 64, 86
1, 73048, Note_on_c, 0, 65, 59
1, 73048, Control_c, 0, 64, 76
1, 73063, Control_c, 0, 64, 67
1, 73078, Control_c, 0, 64, 55
1, 73093, Control_c, 0, 64, 20
1, 73108, Control_c, 0, 64, 0
1, 73113, Note_off_c, 0, 65, 57
1, 73131, Note_on_c, 0, 69, 58
1, 73203, Note_off_c, 0, 69, 61
1, 73217, Note_on_c, 0, 67, 64
1, 73221, Note_on_c, 0, 64, 38
1, 73301, Note_off_c, 0, 67, 55
1, 73304, Note_on_c, 0, 70, 62
1, 73362, Note_on_c, 0, 63, 51
1, 73370, Note_off_c, 0, 70, 59
1, 73377, Note_off_c, 0, 64, 50
1, 73388, Note_off_c, 0, 63, 61
1, 73391, Note_on_c, 0, 69, 58
1, 73445, Note_off_c, 0, 69, 61
1, 73491, Note_on_c, 0, 72, 55
1, 73531, Control_c, 0, 64, 36
1, 73537, Note_off_c, 0, 72, 60
1, 73546, Control_c, 0, 64, 59
1, 73561, Control_c, 0, 64, 66
1, 73564, Note_on_c, 0, 70, 61
1, 73567, Note_on_c, 0, 53, 36
1, 73571, Note_on_c, 0, 62, 41
1, 73576, Control_c, 0, 64, 72
1, 73589, Note_off_c, 0, 70, 64
1, 73590, Control_c, 0, 64, 77
1, 73599, Note_off_c, 0, 53, 58
1, 73602, Note_off_c, 0, 62, 58
1, 73605, Control_c, 0, 64, 81
1, 73620, Control_c, 0, 64, 84
1, 73635, Control_c, 0, 64, 86
1, 73650, Control_c, 0, 64, 88
1, 73664, Control_c, 0, 64, 90
1, 73679, Control_c, 0, 64, 91
1, 73694, Control_c, 0, 64, 91
1, 73724, Control_c, 0, 64, 91
1, 73738, Control_c, 0, 64, 88
1, 73753, Control_c, 0, 64, 82
1, 73767, Note_on_c, 0, 65, 72
1, 73768, Control_c, 0, 64, 73
1, 73782, Control_c, 0, 64, 63
1, 73797, Control_c, 0, 64, 34
1, 73812, Control_c, 0, 64, 0
1, 73850, Note_on_c, 0, 69, 76
1, 73853, Note_off_c, 0, 65, 59
1, 73932, Note_off_c, 0, 69, 63
1, 73936, Note_on_c, 0, 67, 83
1, 73947, Note_on_c, 0, 64, 50
1, 74017, Note_on_c, 0, 70, 86
1, 74032, Note_off_c, 0, 67, 62
1, 74100, Note_on_c, 0, 69, 84
1, 74103, Note_off_c, 0, 70, 62
1, 74113, Note_on_c, 0, 63, 57
1, 74119, Note_off_c, 0, 64, 48
1, 74138, Note_off_c, 0, 63, 63
1, 74185, Note_off_c, 0, 69, 64
1, 74203, Note_on_c, 0, 72, 80
1, 74267, Note_off_c, 0, 72, 62
1, 74280, Control_c, 0, 64, 36
1, 74291, Note_on_c, 0, 70, 66
1, 74294, Control_c, 0, 64, 61
1, 74309, Control_c, 0, 64, 67
1, 74311, Note_on_c, 0, 62, 45
1, 74313, Note_on_c, 0, 53, 45
1, 74324, Control_c, 0, 64, 72
1, 74325, Note_off_c, 0, 70, 64
1, 74339, Control_c, 0, 64, 78
1, 74344, Note_off_c, 0, 53, 62
1, 74351, Note_off_c, 0, 62, 63
1, 74354, Control_c, 0, 64, 82
1, 74369, Control_c, 0, 64, 84
1, 74383, Control_c, 0, 64, 85
1, 74398, Control_c, 0, 64, 86
1, 74428, Control_c, 0, 64, 84
1, 74443, Control_c, 0, 64, 80
1, 74458, Control_c, 0, 64, 73
1, 74473, Control_c, 0, 64, 65
1, 74487, Control_c, 0, 64, 41
1, 74492, Note_on_c, 0, 65, 66
1, 74502, Control_c, 0, 64, 0
1, 74558, Note_off_c, 0, 65, 57
1, 74576, Note_on_c, 0, 69, 63
1, 74640, Note_off_c, 0, 69, 55
1, 74664, Note_on_c, 0, 67, 63
1, 74687, Note_on_c, 0, 64, 39
1, 74743, Note_on_c, 0, 70, 66
1, 74750, Note_off_c, 0, 67, 58
1, 74807, Note_off_c, 0, 70, 60
1, 74822, Note_on_c, 0, 69, 76
1, 74830, Note_on_c, 0, 63, 58
1, 74850, Note_off_c, 0, 64, 36
1, 74861, Note_off_c, 0, 63, 65
1, 74925, Note_on_c, 0, 72, 69
1, 74941, Note_off_c, 0, 69, 52
1, 75004, Note_on_c, 0, 62, 70
1, 75012, Note_on_c, 0, 70, 74
1, 75035, Note_off_c, 0, 72, 59
1, 75039, Note_off_c, 0, 62, 64
1, 75100, Note_off_c, 0, 70, 63
1, 75101, Note_on_c, 0, 74, 66
1, 75162, Note_off_c, 0, 74, 63
1, 75175, Note_on_c, 0, 57, 77
1, 75188, Note_on_c, 0, 72, 67
1, 75206, Note_off_c, 0, 57, 66
1, 75254, Note_off_c, 0, 72, 59
1, 75273, Note_on_c, 0, 75, 74
1, 75336, Note_off_c, 0, 75, 63
1, 75346, Note_on_c, 0, 58, 80
1, 75359, Note_on_c, 0, 74, 79
1, 75385, Note_off_c, 0, 58, 62
1, 75434, Note_on_c, 0, 77, 76
1, 75435, Note_off_c, 0, 74, 61
1, 75514, Note_off_c, 0, 77, 59
1, 75519, Note_on_c, 0, 76, 86
1, 75528, Note_on_c, 0, 55, 77
1, 75554, Note_off_c, 0, 55, 66
1, 75591, Note_off_c, 0, 76, 60
1, 75606, Note_on_c, 0, 79, 84
1, 75704, Note_on_c, 0, 77, 85
1, 75710, Note_on_c, 0, 57, 81
1, 75710, Note_off_c, 0, 79, 61
1, 75799, Note_on_c, 0, 79, 83
1, 75832, Note_off_c, 0, 77, 59
1, 75873, Note_off_c, 0, 79, 59
1, 75888, Note_on_c, 0, 81, 82
1, 75974, Note_on_c, 0, 79, 82
1, 76006, Note_off_c, 0, 81, 65
1, 76052, Note_on_c, 0, 77, 68
1, 76083, Note_off_c, 0, 79, 60
1, 76088, Note_off_c, 0, 57, 61
1, 76142, Note_on_c, 0, 75, 82
1, 76143, Note_off_c, 0, 77, 64
1, 76202, Note_off_c, 0, 75, 63
1, 76223, Note_on_c, 0, 74, 79
1, 76306, Note_on_c, 0, 73, 82
1, 76319, Note_off_c, 0, 74, 58
1, 76384, Note_off_c, 0, 73, 62
1, 76407, Note_on_c, 0, 58, 75
1, 76412, Note_on_c, 0, 74, 80
1, 76471, Note_off_c, 0, 74, 64
1, 76493, Note_on_c, 0, 72, 83
1, 76579, Note_on_c, 0, 70, 78
1, 76585, Note_off_c, 0, 72, 60
1, 76663, Note_on_c, 0, 69, 84
1, 76691, Note_off_c, 0, 70, 61
1, 76731, Note_off_c, 0, 69, 66
1, 76748, Note_off_c, 0, 58, 60
1, 76753, Note_on_c, 0, 67, 87
1, 76834, Note_on_c, 0, 65, 85
1, 76840, Note_off_c, 0, 67, 50
1, 76917, Note_on_c, 0, 64, 84
1, 76926, Note_off_c, 0, 65, 60
1, 76985, Note_off_c, 0, 64, 64
1, 76995, Note_on_c, 0, 62, 87
1, 77048, Note_off_c, 0, 62, 64
1, 77084, Note_on_c, 0, 60, 71
1, 77090, Note_on_c, 0, 48, 68
1, 77183, Note_on_c, 0, 65, 78
1, 77258, Note_on_c, 0, 69, 84
1, 77258, Note_off_c, 0, 60, 60
1, 77270, Note_off_c, 0, 65, 60
1, 77275, Note_on_c, 0, 53, 56
1, 77338, Note_on_c, 0, 72, 88
1, 77355, Note_off_c, 0, 69, 65
1, 77415, Note_off_c, 0, 72, 66
1, 77417, Note_on_c, 0, 77, 91
1, 77425, Note_off_c, 0, 53, 64
1, 77439, Note_on_c, 0, 57, 59
1, 77457, Note_off_c, 0, 77, 65
1, 77597, Note_off_c, 0, 48, 61
1, 77602, Note_on_c, 0, 69, 85
1, 77605, Note_off_c, 0, 57, 64
1, 77617, Note_on_c, 0, 65, 65
1, 77619, Note_on_c, 0, 53, 55
1, 77634, Note_off_c, 0, 69, 67
1, 77637, Note_off_c, 0, 65, 64
1, 77785, Note_off_c, 0, 53, 64
1, 77790, Note_on_c, 0, 72, 87
1, 77806, Note_on_c, 0, 48, 52
1, 77806, Note_on_c, 0, 69, 75
1, 77852, Control_c, 0, 64, 32
1, 77867, Control_c, 0, 64, 43
1, 77882, Control_c, 0, 64, 35
1, 77904, Control_c, 0, 64, 0
1, 77980, Note_on_c, 0, 70, 83
1, 77987, Note_on_c, 0, 55, 63
1, 77989, Note_off_c, 0, 69, 63
1, 77990, Note_off_c, 0, 72, 62
1, 77996, Note_on_c, 0, 67, 63
1, 78026, Note_off_c, 0, 67, 66
1, 78026, Note_off_c, 0, 70, 65
1, 78160, Note_on_c, 0, 69, 82
1, 78166, Note_off_c, 0, 55, 58
1, 78169, Note_on_c, 0, 65, 69
1, 78190, Note_off_c, 0, 65, 63
1, 78193, Note_off_c, 0, 69, 64
1, 78342, Note_on_c, 0, 67, 78
1, 78369, Note_on_c, 0, 55, 48
1, 78374, Note_off_c, 0, 67, 61
1, 78395, Note_off_c, 0, 55, 57
1, 78428, Note_off_c, 0, 48, 33
1, 78482, Control_c, 0, 64, 23
1, 78497, Control_c, 0, 64, 53
1, 78512, Control_c, 0, 64, 65
1, 78526, Note_on_c, 0, 65, 73
1, 78526, Control_c, 0, 64, 72
1, 78534, Note_on_c, 0, 53, 63
1, 78537, Note_on_c, 0, 57, 64
1, 78541, Control_c, 0, 64, 82
1, 78551, Note_off_c, 0, 65, 67
1, 78556, Control_c, 0, 64, 95
1, 78563, Note_off_c, 0, 53, 66
1, 78569, Note_off_c, 0, 57, 65
1, 78570, Control_c, 0, 64, 100
1, 78585, Control_c, 0, 64, 102
1, 78600, Control_c, 0, 64, 103
1, 78667, Control_c, 0, 64, 102
1, 78682, Control_c, 0, 64, 100
1, 78696, Control_c, 0, 64, 94
1, 78711, Control_c, 0, 64, 84
1, 78726, Control_c, 0, 64, 73
1, 78741, Control_c, 0, 64, 63
1, 78745, Note_on_c, 0, 77, 68
1, 78753, Note_on_c, 0, 65, 61
1, 78756, Control_c, 0, 64, 31
1, 78771, Control_c, 0, 64, 0
1, 78817, Note_off_c, 0, 77, 59
1, 78820, Note_on_c, 0, 81, 70
1, 78897, Note_off_c, 0, 81, 62
1, 78908, Note_on_c, 0, 64, 58
1, 78911, Note_on_c, 0, 79, 74
1, 78924, Note_off_c, 0, 65, 46
1, 78993, Note_on_c, 0, 82, 78
1, 79009, Note_off_c, 0, 79, 58
1, 79042, Note_off_c, 0, 64, 58
1, 79066, Note_off_c, 0, 82, 63
1, 79072, Note_on_c, 0, 81, 74
1, 79074, Note_on_c, 0, 63, 57
1, 79102, Note_off_c, 0, 63, 64
1, 79137, Note_off_c, 0, 81, 64
1, 79157, Note_on_c, 0, 84, 72
1, 79218, Note_off_c, 0, 84, 63
1, 79230, Control_c, 0, 64, 54
1, 79245, Control_c, 0, 64, 65
1, 79249, Note_on_c, 0, 82, 76
1, 79257, Note_on_c, 0, 62, 48
1, 79260, Control_c, 0, 64, 71
1, 79261, Note_on_c, 0, 53, 50
1, 79274, Note_off_c, 0, 82, 68
1, 79275, Control_c, 0, 64, 78
1, 79290, Note_off_c, 0, 62, 63
1, 79290, Control_c, 0, 64, 84
1, 79291, Note_off_c, 0, 53, 65
1, 79305, Control_c, 0, 64, 88
1, 79319, Control_c, 0, 64, 90
1, 79334, Control_c, 0, 64, 92
1, 79349, Control_c, 0, 64, 93
1, 79364, Control_c, 0, 64, 94
1, 79379, Control_c, 0, 64, 94
1, 79430, Control_c, 0, 64, 92
1, 79445, Control_c, 0, 64, 87
1, 79455, Note_on_c, 0, 77, 71
1, 79460, Control_c, 0, 64, 78
1, 79462, Note_on_c, 0, 65, 65
1, 79475, Control_c, 0, 64, 67
1, 79490, Control_c, 0, 64, 48
1, 79505, Control_c, 0, 64, 0
1, 79534, Note_on_c, 0, 81, 78
1, 79551, Note_off_c, 0, 77, 64
1, 79613, Note_off_c, 0, 81, 64
1, 79622, Note_on_c, 0, 79, 86
1, 79633, Note_on_c, 0, 64, 65
1, 79660, Note_off_c, 0, 65, 57
1, 79706, Note_on_c, 0, 82, 91
1, 79720, Note_off_c, 0, 79, 62
1, 79776, Note_off_c, 0, 64, 57
1, 79785, Note_on_c, 0, 81, 87
1, 79790, Note_off_c, 0, 82, 62
1, 79800, Note_on_c, 0, 63, 65
1, 79830, Note_off_c, 0, 63, 67
1, 79864, Note_off_c, 0, 81, 65
1, 79874, Note_on_c, 0, 84, 80
1, 79939, Note_off_c, 0, 84, 63
1, 79950, Control_c, 0, 64, 38
1, 79959, Note_on_c, 0, 82, 70
1, 79965, Control_c, 0, 64, 59
1, 79978, Note_on_c, 0, 62, 60
1, 79980, Control_c, 0, 64, 66
1, 79991, Note_on_c, 0, 53, 51
1, 79995, Control_c, 0, 64, 72
1, 79996, Note_off_c, 0, 82, 63
1, 80010, Control_c, 0, 64, 76
1, 80014, Note_off_c, 0, 62, 63
1, 80018, Note_off_c, 0, 53, 61
1, 80024, Control_c, 0, 64, 78
1, 80054, Control_c, 0, 64, 77
1, 80069, Control_c, 0, 64, 75
1, 80084, Control_c, 0, 64, 71
1, 80098, Control_c, 0, 64, 68
1, 80113, Control_c, 0, 64, 62
1, 80128, Control_c, 0, 64, 51
1, 80150, Control_c, 0, 64, 30
1, 80165, Control_c, 0, 64, 0
1, 80178, Note_on_c, 0, 77, 60
1, 80184, Note_on_c, 0, 65, 49
1, 80235, Note_off_c, 0, 77, 57
1, 80256, Note_on_c, 0, 81, 62
1, 80329, Note_off_c, 0, 65, 53
1, 80336, Note_on_c, 0, 64, 50
1, 80339, Note_off_c, 0, 81, 65
1, 80351, Note_on_c, 0, 79, 67
1, 80436, Note_on_c, 0, 82, 72
1, 80443, Note_off_c, 0, 79, 58
1, 80473, Note_off_c, 0, 64, 55
1, 80497, Note_on_c, 0, 63, 50
1, 80512, Note_off_c, 0, 82, 61
1, 80518, Note_on_c, 0, 81, 75
1, 80535, Note_off_c, 0, 63, 65
1, 80589, Note_off_c, 0, 81, 63
1, 80601, Note_on_c, 0, 84, 73
1, 80691, Note_on_c, 0, 82, 78
1, 80694, Note_off_c, 0, 84, 62
1, 80698, Note_on_c, 0, 62, 49
1, 80730, Note_off_c, 0, 62, 64
1, 80739, Note_off_c, 0, 82, 63
1, 80771, Note_on_c, 0, 77, 72
1, 80831, Note_off_c, 0, 77, 57
1, 80852, Note_on_c, 0, 84, 73
1, 80865, Note_on_c, 0, 57, 61
1, 80890, Note_off_c, 0, 57, 63
1, 80915, Note_off_c, 0, 84, 65
1, 80942, Note_on_c, 0, 77, 72
1, 81004, Note_off_c, 0, 77, 58
1, 81028, Note_on_c, 0, 86, 85
1, 81029, Note_on_c, 0, 58, 73
1, 81064, Note_off_c, 0, 58, 63
1, 81078, Note_off_c, 0, 86, 66
1, 81114, Note_on_c, 0, 77, 72
1, 81189, Note_off_c, 0, 77, 61
1, 81195, Note_on_c, 0, 88, 91
1, 81199, Note_on_c, 0, 55, 71
1, 81227, Note_off_c, 0, 55, 65
1, 81249, Note_off_c, 0, 88, 67
1, 81291, Note_on_c, 0, 77, 71
1, 81363, Note_off_c, 0, 77, 60
1, 81397, Note_on_c, 0, 89, 90
1, 81400, Note_on_c, 0, 57, 49
1, 81401, Note_on_c, 0, 45, 53
1, 81490, Note_on_c, 0, 88, 85
1, 81508, Note_off_c, 0, 89, 60
1, 81579, Note_on_c, 0, 86, 80
1, 81582, Note_off_c, 0, 88, 67
1, 81621, Note_off_c, 0, 86, 65
1, 81665, Note_on_c, 0, 84, 80
1, 81743, Note_off_c, 0, 57, 58
1, 81750, Note_on_c, 0, 82, 80
1, 81756, Note_off_c, 0, 45, 58
1, 81756, Note_off_c, 0, 84, 62
1, 81837, Note_on_c, 0, 81, 73
1, 81874, Note_off_c, 0, 82, 59
1, 81922, Note_off_c, 0, 81, 66
1, 81927, Note_on_c, 0, 79, 77
1, 81967, Note_off_c, 0, 79, 61
1, 82002, Note_on_c, 0, 77, 77
1, 82078, Note_off_c, 0, 77, 57
1, 82095, Note_on_c, 0, 86, 77
1, 82107, Note_on_c, 0, 58, 52
1, 82111, Note_on_c, 0, 46, 51
1, 82182, Note_on_c, 0, 84, 70
1, 82193, Note_off_c, 0, 86, 63
1, 82274, Note_on_c, 0, 82, 83
1, 82295, Note_off_c, 0, 84, 61
1, 82356, Note_on_c, 0, 81, 80
1, 82369, Note_off_c, 0, 82, 64
1, 82424, Note_off_c, 0, 81, 67
1, 82450, Note_on_c, 0, 79, 80
1, 82489, Note_off_c, 0, 58, 57
1, 82499, Note_off_c, 0, 46, 59
1, 82533, Note_on_c, 0, 77, 81
1, 82545, Note_off_c, 0, 79, 63
1, 82612, Note_on_c, 0, 76, 89
1, 82640, Note_off_c, 0, 77, 61
1, 82700, Note_on_c, 0, 74, 85
1, 82707, Note_off_c, 0, 76, 62
1, 82765, Note_off_c, 0, 74, 66
1, 82792, Note_on_c, 0, 72, 86
1, 82793, Note_on_c, 0, 48, 44
1, 82855, Note_off_c, 0, 48, 60
1, 82879, Note_on_c, 0, 57, 56
1, 82942, Note_off_c, 0, 57, 55
1, 82971, Note_on_c, 0, 53, 56
1, 82972, Note_on_c, 0, 84, 82
1, 82976, Note_off_c, 0, 72, 58
1, 83013, Note_off_c, 0, 84, 67
1, 83014, Note_off_c, 0, 53, 63
1, 83054, Note_on_c, 0, 57, 59
1, 83101, Note_off_c, 0, 57, 58
1, 83151, Note_on_c, 0, 48, 53
1, 83152, Note_on_c, 0, 84, 85
1, 83187, Note_off_c, 0, 84, 67
1, 83194, Note_off_c, 0, 48, 62
1, 83230, Note_on_c, 0, 57, 54
1, 83286, Note_off_c, 0, 57, 57
1, 83317, Note_on_c, 0, 84, 84
1, 83326, Note_on_c, 0, 53, 53
1, 83345, Note_off_c, 0, 84, 65
1, 83362, Note_off_c, 0, 53, 66
1, 83405, Note_on_c, 0, 57, 54
1, 83501, Note_off_c, 0, 57, 57
1, 83511, Note_on_c, 0, 84, 71
1, 83532, Note_on_c, 0, 48, 46
1, 83583, Note_off_c, 0, 48, 59
1, 83601, Note_on_c, 0, 81, 69
1, 83619, Note_off_c, 0, 84, 59
1, 83625, Note_on_c, 0, 57, 49
1, 83669, Note_off_c, 0, 57, 62
1, 83682, Note_on_c, 0, 77, 68
1, 83683, Note_off_c, 0, 81, 62
1, 83706, Note_on_c, 0, 53, 46
1, 83736, Note_off_c, 0, 77, 64
1, 83746, Note_off_c, 0, 53, 64
1, 83758, Note_on_c, 0, 72, 76
1, 83782, Note_on_c, 0, 57, 60
1, 83834, Note_off_c, 0, 57, 59
1, 83844, Note_off_c, 0, 72, 60
1, 83848, Note_on_c, 0, 77, 76
1, 83869, Note_on_c, 0, 48, 56
1, 83903, Note_off_c, 0, 77, 63
1, 83915, Note_off_c, 0, 48, 64
1, 83939, Note_on_c, 0, 72, 79
1, 83946, Note_on_c, 0, 57, 71
1, 83980, Note_off_c, 0, 72, 65
1, 83994, Note_off_c, 0, 57, 59
1, 84024, Note_on_c, 0, 69, 81
1, 84030, Note_on_c, 0, 53, 64
1, 84066, Note_off_c, 0, 53, 64
1, 84071, Note_off_c, 0, 69, 64
1, 84101, Note_on_c, 0, 65, 80
1, 84105, Note_on_c, 0, 57, 59
1, 84146, Note_off_c, 0, 57, 63
1, 84155, Note_off_c, 0, 65, 61
1, 84203, Note_on_c, 0, 69, 75
1, 84204, Note_on_c, 0, 48, 46
1, 84229, Note_off_c, 0, 69, 70
1, 84272, Note_off_c, 0, 48, 57
1, 84277, Note_on_c, 0, 67, 70
1, 84295, Note_on_c, 0, 58, 46
1, 84308, Note_off_c, 0, 67, 62
1, 84322, Note_on_c, 0, 69, 68
1, 84332, Note_off_c, 0, 58, 54
1, 84354, Note_off_c, 0, 69, 66
1, 84361, Note_on_c, 0, 52, 59
1, 84386, Note_on_c, 0, 67, 73
1, 84406, Note_off_c, 0, 52, 60
1, 84422, Note_off_c, 0, 67, 57
1, 84432, Note_on_c, 0, 58, 46
1, 84445, Note_on_c, 0, 69, 62
1, 84469, Note_off_c, 0, 69, 65
1, 84485, Note_off_c, 0, 58, 59
1, 84496, Note_on_c, 0, 67, 61
1, 84530, Note_off_c, 0, 67, 65
1, 84533, Note_on_c, 0, 69, 72
1, 84541, Note_on_c, 0, 48, 40
1, 84566, Note_off_c, 0, 69, 64
1, 84576, Note_off_c, 0, 48, 54
1, 84609, Note_on_c, 0, 58, 54
1, 84609, Note_on_c, 0, 67, 60
1, 84642, Note_off_c, 0, 67, 57
1, 84657, Note_on_c, 0, 69, 61
1, 84664, Note_off_c, 0, 58, 58
1, 84689, Note_off_c, 0, 69, 66
1, 84700, Note_on_c, 0, 52, 56
1, 84724, Note_on_c, 0, 67, 45
1, 84737, Note_off_c, 0, 52, 63
1, 84748, Note_on_c, 0, 69, 68
1, 84749, Note_off_c, 0, 67, 56
1, 84775, Note_off_c, 0, 69, 70
1, 84784, Note_on_c, 0, 58, 54
1, 84820, Note_on_c, 0, 67, 36
1, 84825, Note_off_c, 0, 58, 63
1, 84845, Note_on_c, 0, 69, 66
1, 84851, Note_off_c, 0, 67, 53
1, 84871, Note_on_c, 0, 48, 56
1, 84873, Note_off_c, 0, 69, 66
1, 84899, Note_on_c, 0, 67, 63
1, 84910, Note_off_c, 0, 48, 64
1, 84935, Note_off_c, 0, 67, 63
1, 84937, Note_on_c, 0, 69, 65
1, 84954, Note_on_c, 0, 58, 58
1, 84971, Note_off_c, 0, 69, 64
1, 84998, Note_on_c, 0, 67, 73
1, 85000, Note_off_c, 0, 58, 58
1, 85031, Note_on_c, 0, 52, 66
1, 85043, Note_off_c, 0, 67, 63
1, 85056, Note_on_c, 0, 69, 58
1, 85066, Note_off_c, 0, 52, 64
1, 85082, Note_off_c, 0, 69, 65
1, 85097, Note_on_c, 0, 67, 70
1, 85114, Note_on_c, 0, 58, 63
1, 85140, Note_off_c, 0, 67, 60
1, 85145, Note_on_c, 0, 69, 72
1, 85152, Note_off_c, 0, 58, 64
1, 85174, Note_off_c, 0, 69, 66
1, 85197, Note_on_c, 0, 48, 67
1, 85198, Note_on_c, 0, 67, 74
1, 85250, Note_off_c, 0, 48, 58
1, 85253, Note_off_c, 0, 67, 60
1, 85257, Note_on_c, 0, 69, 72
1, 85270, Note_on_c, 0, 58, 71
1, 85282, Note_off_c, 0, 69, 69
1, 85304, Note_on_c, 0, 67, 71
1, 85321, Note_off_c, 0, 58, 60
1, 85344, Note_off_c, 0, 67, 63
1, 85348, Note_on_c, 0, 69, 71
1, 85358, Note_on_c, 0, 52, 66
1, 85378, Note_off_c, 0, 69, 68
1, 85401, Note_off_c, 0, 52, 62
1, 85405, Note_on_c, 0, 67, 72
1, 85434, Note_on_c, 0, 58, 42
1, 85450, Note_on_c, 0, 65, 77
1, 85452, Note_off_c, 0, 67, 59
1, 85463, Note_off_c, 0, 58, 54
1, 85517, Note_off_c, 0, 65, 60
1, 85526, Note_on_c, 0, 67, 73
1, 85562, Note_on_c, 0, 53, 53
1, 85574, Note_on_c, 0, 65, 81
1, 85578, Note_off_c, 0, 67, 62
1, 85605, Note_off_c, 0, 65, 65
1, 85715, Note_off_c, 0, 53, 65
1, 85802, Note_on_c, 0, 77, 63
1, 85812, Note_on_c, 0, 65, 38
1, 85866, Note_off_c, 0, 65, 0
1, 85866, Note_on_c, 0, 65, 5
1, 85866, Control_c, 0, 64, 37
1, 85881, Control_c, 0, 64, 52
1, 85896, Control_c, 0, 64, 58
1, 85911, Control_c, 0, 64, 60
1, 85926, Control_c, 0, 64, 62
1, 85929, Note_off_c, 0, 65, 47
1, 85940, Control_c, 0, 64, 64
1, 85955, Control_c, 0, 64, 65
1, 85970, Control_c, 0, 64, 66
1, 85982, Note_off_c, 0, 77, 62
1, 86000, Note_on_c, 0, 64, 34
1, 86015, Control_c, 0, 64, 67
1, 86059, Control_c, 0, 64, 66
1, 86074, Control_c, 0, 64, 66
1, 86088, Control_c, 0, 64, 65
1, 86103, Control_c, 0, 64, 65
1, 86118, Control_c, 0, 64, 64
1, 86140, Control_c, 0, 64, 63
1, 86155, Control_c, 0, 64, 62
1, 86170, Note_off_c, 0, 64, 53
1, 86171, Control_c, 0, 64, 60
1, 86186, Control_c, 0, 64, 59
1, 86191, Note_on_c, 0, 77, 60
1, 86200, Control_c, 0, 64, 57
1, 86213, Note_on_c, 0, 65, 35
1, 86215, Control_c, 0, 64, 55
1, 86230, Control_c, 0, 64, 52
1, 86245, Control_c, 0, 64, 49
1, 86260, Control_c, 0, 64, 46
1, 86274, Control_c, 0, 64, 43
1, 86289, Control_c, 0, 64, 38
1, 86304, Control_c, 0, 64, 26
1, 86319, Control_c, 0, 64, 0
1, 86374, Note_on_c, 0, 76, 71
1, 86387, Note_on_c, 0, 67, 41
1, 86388, Note_off_c, 0, 65, 40
1, 86399, Note_off_c, 0, 77, 59
1, 86545, Note_off_c, 0, 67, 62
1, 86562, Note_on_c, 0, 77, 78
1, 86570, Note_on_c, 0, 65, 53
1, 86592, Note_off_c, 0, 76, 61
1, 86744, Note_off_c, 0, 77, 62
1, 86745, Note_off_c, 0, 65, 58
1, 86749, Note_on_c, 0, 79, 79
1, 86763, Note_on_c, 0, 64, 46
1, 86933, Note_on_c, 0, 81, 84
1, 86936, Note_off_c, 0, 64, 61
1, 86946, Note_on_c, 0, 63, 48
1, 86969, Note_off_c, 0, 79, 60
1, 87105, Note_off_c, 0, 63, 61
1, 87135, Note_on_c, 0, 82, 76
1, 87151, Note_on_c, 0, 62, 39
1, 87157, Note_off_c, 0, 81, 62
1, 87229, Note_on_c, 0, 84, 71
1, 87243, Note_off_c, 0, 82, 61
1, 87291, Note_off_c, 0, 62, 52
1, 87310, Note_off_c, 0, 84, 63
1, 87311, Note_on_c, 0, 53, 32
1, 87315, Note_on_c, 0, 86, 71
1, 87399, Note_on_c, 0, 84, 75
1, 87422, Note_off_c, 0, 86, 61
1, 87480, Note_on_c, 0, 82, 80
1, 87481, Note_on_c, 0, 61, 50
1, 87485, Note_off_c, 0, 53, 50
1, 87510, Note_off_c, 0, 84, 62
1, 87565, Note_on_c, 0, 80, 80
1, 87594, Note_off_c, 0, 82, 61
1, 87620, Note_off_c, 0, 61, 61
1, 87641, Note_off_c, 0, 80, 64
1, 87658, Note_on_c, 0, 79, 82
1, 87662, Note_on_c, 0, 53, 42
1, 87741, Note_on_c, 0, 77, 81
1, 87755, Note_off_c, 0, 79, 56
1, 87813, Note_off_c, 0, 53, 61
1, 87829, Note_on_c, 0, 76, 87
1, 87831, Note_off_c, 0, 77, 63
1, 87833, Note_on_c, 0, 60, 53
1, 87916, Note_on_c, 0, 77, 79
1, 87917, Note_off_c, 0, 76, 62
1, 87969, Note_off_c, 0, 60, 56
1, 87991, Note_off_c, 0, 77, 61
1, 88000, Note_on_c, 0, 79, 74
1, 88016, Note_on_c, 0, 53, 45
1, 88096, Note_on_c, 0, 77, 72
1, 88105, Note_off_c, 0, 79, 55
1, 88140, Note_off_c, 0, 53, 61
1, 88176, Note_off_c, 0, 77, 62
1, 88178, Note_on_c, 0, 76, 76
1, 88194, Note_on_c, 0, 64, 39
1, 88228, Note_off_c, 0, 76, 64
1, 88261, Note_on_c, 0, 74, 67
1, 88275, Note_off_c, 0, 64, 54
1, 88343, Note_off_c, 0, 74, 60
1, 88345, Note_on_c, 0, 72, 73
1, 88353, Note_on_c, 0, 53, 34
1, 88408, Note_off_c, 0, 53, 60
1, 88429, Note_off_c, 0, 72, 61
1, 88435, Note_on_c, 0, 70, 71
1, 88501, Note_off_c, 0, 70, 62
1, 88515, Note_on_c, 0, 65, 51
1, 88516, Note_on_c, 0, 69, 73
1, 88540, Note_off_c, 0, 65, 58
1, 88540, Note_off_c, 0, 69, 71
1, 88719, Note_on_c, 0, 69, 62
1, 88731, Note_on_c, 0, 53, 40
1, 88755, Note_off_c, 0, 69, 66
1, 88898, Note_off_c, 0, 53, 61
1, 88916, Note_on_c, 0, 52, 47
1, 89075, Note_off_c, 0, 52, 51
1, 89097, Note_on_c, 0, 65, 55
1, 89101, Note_on_c, 0, 53, 49
1, 89279, Note_off_c, 0, 53, 60
1, 89285, Note_on_c, 0, 64, 67
1, 89295, Note_off_c, 0, 65, 61
1, 89297, Note_on_c, 0, 55, 46
1, 89455, Note_off_c, 0, 55, 60
1, 89476, Note_on_c, 0, 65, 76
1, 89482, Note_on_c, 0, 53, 48
1, 89506, Note_off_c, 0, 64, 61
1, 89654, Note_off_c, 0, 53, 62
1, 89655, Note_off_c, 0, 65, 62
1, 89660, Note_on_c, 0, 67, 77
1, 89661, Note_on_c, 0, 52, 51
1, 89846, Note_on_c, 0, 69, 75
1, 89854, Note_on_c, 0, 51, 58
1, 89854, Note_off_c, 0, 67, 58
1, 89857, Note_off_c, 0, 52, 55
1, 89956, Note_off_c, 0, 51, 55
1, 90051, Note_on_c, 0, 70, 73
1, 90056, Note_off_c, 0, 69, 60
1, 90062, Note_on_c, 0, 50, 61
1, 90091, Control_c, 0, 64, 39
1, 90106, Control_c, 0, 64, 60
1, 90118, Note_off_c, 0, 70, 64
1, 90121, Control_c, 0, 64, 67
1, 90135, Control_c, 0, 64, 72
1, 90150, Control_c, 0, 64, 77
1, 90166, Control_c, 0, 64, 80
1, 90181, Control_c, 0, 64, 80
1, 90200, Note_off_c, 0, 50, 64
1, 90242, Note_on_c, 0, 72, 71
1, 90255, Control_c, 0, 64, 78
1, 90270, Control_c, 0, 64, 73
1, 90281, Note_off_c, 0, 72, 64
1, 90284, Control_c, 0, 64, 67
1, 90289, Note_on_c, 0, 70, 79
1, 90299, Control_c, 0, 64, 60
1, 90314, Control_c, 0, 64, 49
1, 90329, Control_c, 0, 64, 26
1, 90336, Note_off_c, 0, 70, 61
1, 90344, Control_c, 0, 64, 0
1, 90345, Note_on_c, 0, 69, 72
1, 90382, Note_on_c, 0, 70, 64
1, 90403, Note_off_c, 0, 69, 55
1, 90427, Note_on_c, 0, 72, 80
1, 90429, Note_on_c, 0, 46, 61
1, 90448, Note_off_c, 0, 70, 64
1, 90611, Note_off_c, 0, 46, 63
1, 90637, Note_on_c, 0, 74, 81
1, 90647, Note_off_c, 0, 72, 62
1, 90686, Note_off_c, 0, 74, 64
1, 90850, Note_on_c, 0, 74, 70
1, 90856, Note_on_c, 0, 48, 53
1, 90870, Note_on_c, 0, 70, 55
1, 90884, Control_c, 0, 64, 16
1, 90899, Control_c, 0, 64, 39
1, 90914, Control_c, 0, 64, 52
1, 90929, Control_c, 0, 64, 63
1, 90944, Control_c, 0, 64, 70
1, 90960, Control_c, 0, 64, 77
1, 90975, Control_c, 0, 64, 84
1, 90989, Control_c, 0, 64, 87
1, 91004, Control_c, 0, 64, 87
1, 91019, Control_c, 0, 64, 88
1, 91029, Note_off_c, 0, 48, 63
1, 91041, Note_off_c, 0, 70, 61
1, 91049, Control_c, 0, 64, 87
1, 91063, Control_c, 0, 64, 85
1, 91065, Note_on_c, 0, 72, 69
1, 91078, Control_c, 0, 64, 80
1, 91086, Note_on_c, 0, 69, 49
1, 91093, Note_off_c, 0, 74, 61
1, 91093, Control_c, 0, 64, 72
1, 91107, Control_c, 0, 64, 63
1, 91122, Control_c, 0, 64, 28
1, 91137, Control_c, 0, 64, 0
1, 91168, Note_off_c, 0, 69, 64
1, 91175, Note_off_c, 0, 72, 63
1, 91262, Note_on_c, 0, 48, 50
1, 91452, Note_off_c, 0, 48, 63
1, 91481, Note_on_c, 0, 64, 76
1, 91499, Note_on_c, 0, 58, 51
1, 91561, Note_off_c, 0, 58, 60
1, 91772, Note_on_c, 0, 67, 64
1, 91775, Note_on_c, 0, 58, 56
1, 91791, Note_on_c, 0, 53, 41
1, 91791, Note_off_c, 0, 64, 63
1, 91901, Control_c, 0, 64, 47
1, 91916, Control_c, 0, 64, 60
1, 91930, Control_c, 0, 64, 66
1, 91943, Note_off_c, 0, 53, 62
1, 91945, Control_c, 0, 64, 71
1, 91960, Control_c, 0, 64, 81
1, 91975, Control_c, 0, 64, 92
1, 91990, Control_c, 0, 64, 101
1, 92004, Control_c, 0, 64, 108
1, 92019, Control_c, 0, 64, 113
1, 92034, Control_c, 0, 64, 120
1, 92048, Control_c, 0, 64, 127
1, 92249, Control_c, 0, 64, 100
1, 92263, Control_c, 0, 64, 79
1, 92273, Note_on_c, 0, 48, 42
1, 92278, Control_c, 0, 64, 64
1, 92293, Control_c, 0, 64, 37
1, 92308, Control_c, 0, 64, 18
1, 92323, Control_c, 0, 64, 40
1, 92337, Control_c, 0, 64, 59
1, 92352, Control_c, 0, 64, 68
1, 92367, Control_c, 0, 64, 76
1, 92369, Note_off_c, 0, 58, 57
1, 92382, Control_c, 0, 64, 85
1, 92397, Control_c, 0, 64, 94
1, 92412, Control_c, 0, 64, 102
1, 92418, Note_off_c, 0, 48, 60
1, 92427, Control_c, 0, 64, 111
1, 92442, Control_c, 0, 64, 127
1, 92909, Control_c, 0, 64, 120
1, 92924, Control_c, 0, 64, 99
1, 92937, Note_on_c, 0, 65, 47
1, 92939, Control_c, 0, 64, 90
1, 92947, Note_on_c, 0, 41, 27
1, 92953, Control_c, 0, 64, 82
1, 92968, Control_c, 0, 64, 72
1, 92973, Note_on_c, 0, 57, 28
1, 92983, Control_c, 0, 64, 60
1, 92987, Note_off_c, 0, 67, 51
1, 92998, Control_c, 0, 64, 0
1, 93101, Control_c, 0, 64, 22
1, 93116, Control_c, 0, 64, 59
1, 93131, Control_c, 0, 64, 66
1, 93146, Control_c, 0, 64, 72
1, 93160, Control_c, 0, 64, 79
1, 93175, Control_c, 0, 64, 87
1, 93190, Control_c, 0, 64, 95
1, 93198, Note_off_c, 0, 57, 41
1, 93205, Control_c, 0, 64, 103
1, 93220, Control_c, 0, 64, 111
1, 93229, Note_off_c, 0, 65, 54
1, 93235, Control_c, 0, 64, 127
1, 93476, Note_off_c, 0, 41, 38
1, 93882, Note_on_c, 0, 79, 48
1, 93895, Control_c, 0, 64, 110
1, 93909, Control_c, 0, 64, 101
1, 93924, Control_c, 0, 64, 93
1, 93939, Control_c, 0, 64, 85
1, 93954, Control_c, 0, 64, 77
1, 93956, Note_on_c, 0, 77, 54
1, 93969, Control_c, 0, 64, 68
1, 93976, Note_off_c, 0, 79, 47
1, 93983, Control_c, 0, 64, 61
1, 93998, Control_c, 0, 64, 54
1, 94013, Control_c, 0, 64, 45
1, 94028, Control_c, 0, 64, 25
1, 94041, Note_on_c, 0, 75, 62
1, 94043, Control_c, 0, 64, 0
1, 94048, Note_off_c, 0, 77, 62
1, 94094, Note_off_c, 0, 75, 59
1, 94126, Note_on_c, 0, 74, 62
1, 94230, Note_on_c, 0, 72, 62
1, 94236, Note_off_c, 0, 74, 55
1, 94415, Note_off_c, 0, 72, 62
1, 94426, Note_on_c, 0, 70, 67
1, 94448, Note_on_c, 0, 58, 35
1, 94460, Note_off_c, 0, 70, 63
1, 94636, Note_off_c, 0, 58, 43
1, 94644, Note_on_c, 0, 70, 59
1, 94654, Note_on_c, 0, 62, 36
1, 94800, Note_off_c, 0, 62, 50
1, 94832, Note_on_c, 0, 65, 32
1, 95011, Note_on_c, 0, 62, 36
1, 95021, Note_off_c, 0, 65, 40
1, 95212, Note_on_c, 0, 74, 62
1, 95219, Note_off_c, 0, 62, 47
1, 95225, Note_on_c, 0, 58, 41
1, 95242, Note_off_c, 0, 70, 61
1, 95416, Note_off_c, 0, 58, 56
1, 95418, Note_on_c, 0, 79, 84
1, 95423, Note_on_c, 0, 62, 35
1, 95435, Note_off_c, 0, 74, 63
1, 95599, Note_on_c, 0, 74, 81
1, 95613, Note_on_c, 0, 67, 37
1, 95624, Note_off_c, 0, 79, 60
1, 95630, Note_off_c, 0, 62, 43
1, 95748, Note_off_c, 0, 67, 46
1, 95791, Note_on_c, 0, 77, 75
1, 95834, Note_off_c, 0, 74, 62
1, 95998, Note_on_c, 0, 60, 36
1, 96142, Note_off_c, 0, 60, 59
1, 96163, Note_on_c, 0, 75, 60
1, 96183, Note_on_c, 0, 63, 42
1, 96189, Note_off_c, 0, 77, 54
1, 96342, Note_off_c, 0, 63, 57
1, 96370, Note_on_c, 0, 67, 39
1, 96544, Note_on_c, 0, 63, 42
1, 96547, Note_off_c, 0, 67, 47
1, 96719, Note_off_c, 0, 63, 55
1, 96743, Note_on_c, 0, 77, 59
1, 96743, Note_off_c, 0, 75, 59
1, 96746, Note_on_c, 0, 60, 41
1, 96805, Note_off_c, 0, 77, 61
1, 96818, Note_on_c, 0, 79, 68
1, 96876, Note_off_c, 0, 60, 59
1, 96898, Note_on_c, 0, 63, 38
1, 96902, Note_on_c, 0, 77, 62
1, 96925, Note_off_c, 0, 79, 59
1, 96985, Note_on_c, 0, 75, 69
1, 96988, Note_off_c, 0, 77, 63
1, 97041, Note_off_c, 0, 75, 60
1, 97060, Note_off_c, 0, 63, 53
1, 97071, Note_on_c, 0, 74, 66
1, 97077, Note_on_c, 0, 67, 38
1, 97120, Note_off_c, 0, 67, 53
1, 97143, Note_off_c, 0, 74, 56
1, 97155, Note_on_c, 0, 72, 75
1, 97262, Note_on_c, 0, 70, 72
1, 97267, Note_off_c, 0, 72, 63
1, 97453, Note_on_c, 0, 53, 35
1, 97623, Note_off_c, 0, 53, 57
1, 97645, Note_off_c, 0, 70, 55
1, 97651, Note_on_c, 0, 69, 51
1, 97657, Note_on_c, 0, 60, 32
1, 97821, Note_off_c, 0, 60, 47
1, 97840, Note_on_c, 0, 63, 38
1, 97973, Note_off_c, 0, 69, 49
1, 98020, Note_on_c, 0, 60, 37
1, 98058, Note_off_c, 0, 63, 37
1, 98213, Note_on_c, 0, 69, 57
1, 98217, Note_off_c, 0, 60, 48
1, 98224, Note_on_c, 0, 53, 40
1, 98395, Note_off_c, 0, 53, 61
1, 98403, Note_on_c, 0, 70, 74
1, 98413, Note_on_c, 0, 60, 43
1, 98441, Note_off_c, 0, 69, 61
1, 98585, Note_on_c, 0, 72, 77
1, 98591, Note_off_c, 0, 70, 61
1, 98598, Note_on_c, 0, 63, 48
1, 98603, Note_off_c, 0, 60, 60
1, 98631, Note_off_c, 0, 72, 63
1, 98714, Note_off_c, 0, 63, 57
1, 98782, Note_on_c, 0, 72, 76
1, 98787, Note_on_c, 0, 69, 57
1, 98987, Note_on_c, 0, 58, 39
1, 99119, Note_off_c, 0, 69, 56
1, 99165, Note_off_c, 0, 58, 45
1, 99173, Note_on_c, 0, 74, 59
1, 99180, Note_on_c, 0, 62, 36
1, 99189, Note_off_c, 0, 72, 56
1, 99191, Note_on_c, 0, 70, 36
1, 99343, Note_off_c, 0, 62, 48
1, 99372, Note_on_c, 0, 65, 35
1, 99475, Note_off_c, 0, 70, 59
1, 99514, Note_off_c, 0, 74, 60
1, 99554, Note_on_c, 0, 62, 37
1, 99578, Note_off_c, 0, 65, 39
1, 99736, Note_off_c, 0, 62, 49
1, 99760, Note_on_c, 0, 58, 42
1, 99761, Note_on_c, 0, 77, 58
1, 99841, Note_on_c, 0, 76, 71
1, 99843, Note_off_c, 0, 77, 53
1, 99923, Note_off_c, 0, 76, 61
1, 99924, Note_on_c, 0, 79, 72
1, 99930, Note_off_c, 0, 58, 44
1, 99933, Note_on_c, 0, 62, 25
1, 100016, Note_on_c, 0, 77, 65
1, 100041, Note_off_c, 0, 79, 58
1, 100061, Note_off_c, 0, 62, 54
1, 100094, Note_on_c, 0, 75, 67
1, 100101, Note_off_c, 0, 77, 60
1, 100112, Note_on_c, 0, 65, 31
1, 100150, Note_off_c, 0, 75, 58
1, 100180, Note_on_c, 0, 74, 63
1, 100209, Note_off_c, 0, 74, 67
1, 100258, Note_off_c, 0, 65, 48
1, 100269, Note_on_c, 0, 63, 41
1, 100269, Note_on_c, 0, 74, 69
1, 100463, Note_off_c, 0, 63, 60
1, 100472, Note_on_c, 0, 72, 70
1, 100485, Note_on_c, 0, 67, 43
1, 100499, Note_off_c, 0, 74, 57
1, 100574, Note_off_c, 0, 72, 63
1, 100635, Note_on_c, 0, 62, 44
1, 100640, Note_off_c, 0, 67, 44
1, 100793, Note_off_c, 0, 62, 62
1, 100810, Note_on_c, 0, 70, 71
1, 100831, Note_on_c, 0, 65, 43
1, 100838, Note_off_c, 0, 70, 66
1, 100992, Note_off_c, 0, 65, 58
1, 101004, Note_on_c, 0, 74, 59
1, 101014, Note_on_c, 0, 63, 40
1, 101167, Note_off_c, 0, 63, 59
1, 101193, Note_on_c, 0, 72, 61
1, 101205, Note_on_c, 0, 67, 46
1, 101216, Note_off_c, 0, 74, 56
1, 101300, Note_off_c, 0, 72, 62
1, 101367, Note_on_c, 0, 60, 43
1, 101426, Note_off_c, 0, 67, 37
1, 101546, Note_on_c, 0, 69, 60
1, 101551, Note_off_c, 0, 60, 63
1, 101560, Note_on_c, 0, 63, 51
1, 101578, Note_off_c, 0, 69, 67
1, 101731, Note_off_c, 0, 63, 59
1, 101763, Note_on_c, 0, 70, 55
1, 101764, Note_on_c, 0, 62, 38
1, 101766, Note_on_c, 0, 65, 44
1, 101817, Note_off_c, 0, 70, 59
1, 101844, Note_on_c, 0, 72, 66
1, 101934, Note_off_c, 0, 72, 62
1, 101938, Note_on_c, 0, 70, 70
1, 102015, Note_off_c, 0, 70, 63
1, 102019, Note_on_c, 0, 69, 73
1, 102107, Note_on_c, 0, 70, 75
1, 102112, Note_off_c, 0, 69, 61
1, 102165, Note_off_c, 0, 70, 64
1, 102169, Note_off_c, 0, 65, 46
1, 102187, Note_on_c, 0, 72, 80
1, 102215, Note_off_c, 0, 62, 42
1, 102270, Note_on_c, 0, 74, 77
1, 102277, Note_off_c, 0, 72, 63
1, 102351, Note_on_c, 0, 75, 83
1, 102356, Note_off_c, 0, 74, 63
1, 102420, Note_off_c, 0, 75, 63
1, 102438, Note_on_c, 0, 76, 85
1, 102504, Note_off_c, 0, 76, 60
1, 102520, Note_on_c, 0, 77, 80
1, 102574, Note_off_c, 0, 77, 62
1, 102603, Note_on_c, 0, 76, 85
1, 102674, Note_off_c, 0, 76, 58
1, 102681, Note_on_c, 0, 77, 81
1, 102762, Note_off_c, 0, 77, 61
1, 102773, Note_on_c, 0, 79, 83
1, 102858, Note_on_c, 0, 77, 79
1, 102881, Note_off_c, 0, 79, 62
1, 102939, Note_on_c, 0, 75, 82
1, 102940, Note_off_c, 0, 77, 63
1, 102994, Note_off_c, 0, 75, 63
1, 103025, Note_on_c, 0, 74, 76
1, 103049, Note_off_c, 0, 74, 69
1, 103121, Note_on_c, 0, 63, 45
1, 103124, Note_on_c, 0, 74, 76
1, 103287, Note_off_c, 0, 63, 60
1, 103291, Note_on_c, 0, 72, 76
1, 103292, Note_off_c, 0, 74, 62
1, 103317, Note_off_c, 0, 72, 66
1, 103318, Note_on_c, 0, 67, 39
1, 103488, Note_on_c, 0, 62, 39
1, 103488, Note_on_c, 0, 72, 69
1, 103493, Note_off_c, 0, 67, 41
1, 103654, Note_off_c, 0, 62, 56
1, 103660, Note_off_c, 0, 72, 63
1, 103663, Note_on_c, 0, 70, 69
1, 103676, Note_on_c, 0, 65, 44
1, 103692, Note_off_c, 0, 70, 66
1, 103823, Note_off_c, 0, 65, 58
1, 103853, Note_on_c, 0, 74, 63
1, 103856, Note_on_c, 0, 63, 46
1, 104001, Note_off_c, 0, 63, 59
1, 104021, Note_on_c, 0, 72, 70
1, 104027, Note_on_c, 0, 67, 48
1, 104036, Note_off_c, 0, 74, 63
1, 104049, Note_off_c, 0, 72, 64
1, 104227, Note_on_c, 0, 60, 47
1, 104231, Note_on_c, 0, 72, 61
1, 104249, Note_off_c, 0, 67, 50
1, 104400, Note_off_c, 0, 60, 61
1, 104402, Note_on_c, 0, 69, 71
1, 104404, Note_on_c, 0, 63, 51
1, 104404, Note_off_c, 0, 72, 58
1, 104436, Note_off_c, 0, 69, 66
1, 104607, Note_off_c, 0, 63, 61
1, 104610, Note_on_c, 0, 70, 61
1, 104622, Note_on_c, 0, 62, 46
1, 104624, Note_on_c, 0, 65, 50
1, 104777, Note_off_c, 0, 70, 63
1, 104807, Note_on_c, 0, 72, 63
1, 104902, Note_off_c, 0, 72, 63
1, 104903, Note_on_c, 0, 74, 70
1, 104987, Note_on_c, 0, 75, 76
1, 105018, Note_off_c, 0, 74, 63
1, 105057, Note_off_c, 0, 75, 63
1, 105073, Note_on_c, 0, 77, 79
1, 105087, Note_off_c, 0, 65, 51
1, 105121, Note_off_c, 0, 62, 56
1, 105152, Note_on_c, 0, 79, 82
1, 105172, Note_off_c, 0, 77, 58
1, 105233, Note_on_c, 0, 81, 84
1, 105251, Note_off_c, 0, 79, 63
1, 105316, Note_on_c, 0, 82, 84
1, 105341, Note_off_c, 0, 81, 63
1, 105385, Note_off_c, 0, 82, 64
1, 105397, Note_on_c, 0, 84, 86
1, 105480, Note_on_c, 0, 86, 91
1, 105507, Note_off_c, 0, 84, 63
1, 105560, Note_on_c, 0, 87, 89
1, 105585, Note_off_c, 0, 86, 62
1, 105652, Note_on_c, 0, 89, 97
1, 105655, Note_off_c, 0, 87, 66
1, 105696, Note_off_c, 0, 89, 65
1, 105838, Note_on_c, 0, 89, 96
1, 105884, Note_off_c, 0, 89, 62
1, 106014, Note_on_c, 0, 89, 89
1, 106017, Note_on_c, 0, 57, 69
1, 106021, Note_on_c, 0, 77, 70
1, 106167, Note_off_c, 0, 57, 64
1, 106202, Note_on_c, 0, 87, 91
1, 106247, Note_off_c, 0, 89, 63
1, 106389, Note_on_c, 0, 58, 71
1, 106527, Note_off_c, 0, 58, 63
1, 106564, Note_on_c, 0, 86, 80
1, 106589, Note_off_c, 0, 87, 62
1, 106612, Note_off_c, 0, 86, 64
1, 106742, Note_on_c, 0, 86, 81
1, 106744, Note_on_c, 0, 51, 71
1, 106774, Note_off_c, 0, 77, 57
1, 106901, Note_off_c, 0, 51, 62
1, 106911, Note_off_c, 0, 86, 56
1, 106913, Note_on_c, 0, 84, 77
1, 106927, Note_on_c, 0, 75, 59
1, 106959, Note_off_c, 0, 75, 65
1, 106962, Note_off_c, 0, 84, 64
1, 107103, Note_on_c, 0, 53, 63
1, 107109, Note_on_c, 0, 82, 78
1, 107132, Note_on_c, 0, 74, 40
1, 107137, Note_off_c, 0, 82, 64
1, 107161, Note_off_c, 0, 74, 57
1, 107288, Note_on_c, 0, 81, 79
1, 107298, Note_on_c, 0, 72, 51
1, 107311, Note_off_c, 0, 53, 66
1, 107313, Note_off_c, 0, 81, 66
1, 107320, Note_off_c, 0, 72, 59
1, 107481, Note_on_c, 0, 82, 79
1, 107491, Control_c, 0, 64, 31
1, 107498, Note_on_c, 0, 74, 59
1, 107506, Control_c, 0, 64, 53
1, 107521, Control_c, 0, 64, 60
1, 107535, Control_c, 0, 64, 62
1, 107550, Control_c, 0, 64, 63
1, 107565, Control_c, 0, 64, 64
1, 107579, Control_c, 0, 64, 66
1, 107594, Control_c, 0, 64, 68
1, 107609, Control_c, 0, 64, 68
1, 107644, Note_off_c, 0, 74, 57
1, 107653, Control_c, 0, 64, 68
1, 107658, Note_off_c, 0, 82, 63
1, 107663, Note_on_c, 0, 46, 61
1, 107668, Control_c, 0, 64, 65
1, 107683, Control_c, 0, 64, 59
1, 107698, Control_c, 0, 64, 31
1, 107704, Note_off_c, 0, 46, 61
1, 107713, Control_c, 0, 64, 0
1, 107856, Note_on_c, 0, 70, 55
1, 107859, Note_on_c, 0, 50, 69
1, 107898, Note_off_c, 0, 50, 64
1, 107975, Note_off_c, 0, 70, 0
1, 107975, Note_on_c, 0, 70, 3
1, 108045, Note_on_c, 0, 53, 64
1, 108077, Note_off_c, 0, 53, 65
1, 108273, Note_on_c, 0, 58, 48
1, 108285, Note_off_c, 0, 70, 56
1, 108656, Note_on_c, 0, 67, 50
1, 108669, Note_off_c, 0, 58, 56
1, 108742, Note_on_c, 0, 65, 69
1, 108762, Note_off_c, 0, 67, 60
1, 108824, Note_on_c, 0, 63, 68
1, 108829, Note_off_c, 0, 65, 59
1, 108884, Note_off_c, 0, 63, 61
1, 108896, Note_on_c, 0, 62, 73
1, 108993, Note_on_c, 0, 60, 71
1, 109001, Note_off_c, 0, 62, 54
1, 109177, Note_off_c, 0, 60, 65
1, 109179, Note_on_c, 0, 58, 73
1, 109191, Note_on_c, 0, 46, 41
1, 109211, Note_off_c, 0, 58, 67
1, 109371, Note_off_c, 0, 46, 50
1, 109387, Note_on_c, 0, 58, 63
1, 109388, Note_on_c, 0, 50, 49
1, 109546, Note_off_c, 0, 50, 60
1, 109574, Note_on_c, 0, 53, 41
1, 109743, Note_off_c, 0, 53, 53
1, 109758, Note_on_c, 0, 50, 36
1, 109919, Note_off_c, 0, 50, 56
1, 109945, Note_on_c, 0, 70, 70
1, 109951, Note_on_c, 0, 46, 38
1, 109968, Note_off_c, 0, 58, 60
1, 110132, Note_off_c, 0, 46, 50
1, 110133, Note_on_c, 0, 69, 78
1, 110144, Note_on_c, 0, 50, 45
1, 110181, Note_off_c, 0, 70, 52
1, 110312, Note_on_c, 0, 67, 89
1, 110328, Note_off_c, 0, 50, 57
1, 110334, Note_on_c, 0, 55, 38
1, 110367, Note_off_c, 0, 69, 61
1, 110439, Note_off_c, 0, 55, 56
1, 110501, Note_on_c, 0, 65, 87
1, 110544, Note_off_c, 0, 67, 63
1, 110682, Note_on_c, 0, 48, 49
1, 110865, Note_off_c, 0, 48, 58
1, 110885, Note_on_c, 0, 64, 67
1, 110888, Note_on_c, 0, 55, 44
1, 110900, Note_off_c, 0, 65, 53
1, 111028, Note_off_c, 0, 55, 59
1, 111062, Note_on_c, 0, 58, 49
1, 111244, Note_on_c, 0, 55, 46
1, 111251, Note_off_c, 0, 58, 50
1, 111323, Note_off_c, 0, 64, 58
1, 111350, Note_on_c, 0, 67, 55
1, 111397, Note_off_c, 0, 55, 47
1, 111409, Note_off_c, 0, 67, 58
1, 111432, Note_on_c, 0, 48, 35
1, 111436, Note_on_c, 0, 65, 62
1, 111494, Note_off_c, 0, 65, 59
1, 111511, Note_on_c, 0, 69, 65
1, 111564, Note_off_c, 0, 69, 64
1, 111583, Note_off_c, 0, 48, 53
1, 111607, Note_on_c, 0, 55, 43
1, 111611, Note_on_c, 0, 67, 66
1, 111676, Note_off_c, 0, 67, 61
1, 111692, Note_on_c, 0, 70, 70
1, 111752, Note_off_c, 0, 70, 63
1, 111765, Note_off_c, 0, 55, 56
1, 111773, Note_on_c, 0, 69, 75
1, 111781, Note_on_c, 0, 58, 47
1, 111836, Note_off_c, 0, 58, 57
1, 111851, Note_on_c, 0, 72, 75
1, 111855, Note_off_c, 0, 69, 63
1, 111934, Note_off_c, 0, 72, 60
1, 111937, Note_on_c, 0, 70, 74
1, 111996, Note_off_c, 0, 70, 62
1, 112016, Note_on_c, 0, 67, 77
1, 112078, Note_off_c, 0, 67, 61
1, 112108, Note_on_c, 0, 76, 74
1, 112113, Note_on_c, 0, 52, 42
1, 112155, Note_off_c, 0, 76, 65
1, 112189, Note_on_c, 0, 72, 71
1, 112241, Note_off_c, 0, 52, 57
1, 112265, Note_on_c, 0, 55, 46
1, 112267, Note_off_c, 0, 72, 58
1, 112269, Note_on_c, 0, 79, 77
1, 112322, Note_off_c, 0, 79, 62
1, 112363, Note_on_c, 0, 76, 79
1, 112402, Note_off_c, 0, 55, 56
1, 112438, Note_on_c, 0, 60, 33
1, 112441, Note_on_c, 0, 82, 84
1, 112446, Note_off_c, 0, 76, 61
1, 112530, Note_on_c, 0, 81, 83
1, 112536, Note_off_c, 0, 82, 65
1, 112595, Note_off_c, 0, 60, 39
1, 112605, Note_off_c, 0, 81, 64
1, 112608, Note_on_c, 0, 55, 36
1, 112611, Note_on_c, 0, 82, 85
1, 112690, Note_on_c, 0, 81, 83
1, 112717, Note_off_c, 0, 82, 61
1, 112721, Note_off_c, 0, 55, 54
1, 112771, Note_on_c, 0, 52, 36
1, 112776, Note_on_c, 0, 79, 79
1, 112789, Note_off_c, 0, 81, 65
1, 112832, Note_off_c, 0, 79, 62
1, 112857, Note_on_c, 0, 77, 78
1, 112924, Note_off_c, 0, 52, 48
1, 112938, Note_on_c, 0, 55, 39
1, 112943, Note_on_c, 0, 76, 82
1, 112966, Note_off_c, 0, 77, 53
1, 113021, Note_on_c, 0, 74, 76
1, 113025, Note_off_c, 0, 76, 62
1, 113063, Note_off_c, 0, 55, 56
1, 113076, Note_off_c, 0, 74, 65
1, 113078, Note_on_c, 0, 60, 47
1, 113114, Note_on_c, 0, 72, 72
1, 113159, Note_off_c, 0, 60, 61
1, 113197, Note_off_c, 0, 72, 57
1, 113200, Note_on_c, 0, 70, 71
1, 113227, Note_off_c, 0, 70, 69
1, 113283, Note_on_c, 0, 70, 80
1, 113341, Note_off_c, 0, 70, 61
1, 113369, Note_on_c, 0, 69, 75
1, 113429, Note_off_c, 0, 69, 58
1, 113451, Note_on_c, 0, 74, 72
1, 113458, Note_on_c, 0, 53, 34
1, 113517, Note_off_c, 0, 74, 62
1, 113525, Note_on_c, 0, 72, 76
1, 113556, Note_off_c, 0, 72, 60
1, 113594, Note_off_c, 0, 53, 59
1, 113627, Note_on_c, 0, 72, 70
1, 113630, Note_on_c, 0, 57, 41
1, 113791, Note_off_c, 0, 57, 59
1, 113817, Note_on_c, 0, 60, 41
1, 114002, Note_off_c, 0, 72, 60
1, 114004, Note_on_c, 0, 57, 43
1, 114012, Note_off_c, 0, 60, 44
1, 114155, Note_off_c, 0, 57, 54
1, 114184, Note_on_c, 0, 53, 37
1, 114366, Note_off_c, 0, 53, 45
1, 114384, Note_on_c, 0, 57, 37
1, 114387, Note_on_c, 0, 86, 62
1, 114469, Note_on_c, 0, 84, 63
1, 114478, Note_off_c, 0, 86, 62
1, 114491, Note_off_c, 0, 57, 61
1, 114538, Note_off_c, 0, 84, 62
1, 114540, Note_on_c, 0, 82, 64
1, 114561, Note_on_c, 0, 60, 25
1, 114579, Note_off_c, 0, 82, 58
1, 114632, Note_on_c, 0, 81, 65
1, 114700, Note_off_c, 0, 81, 59
1, 114718, Note_on_c, 0, 79, 60
1, 114718, Note_off_c, 0, 60, 44
1, 114726, Note_on_c, 0, 58, 40
1, 114886, Note_off_c, 0, 58, 51
1, 114927, Note_on_c, 0, 60, 25
1, 115095, Note_off_c, 0, 60, 44
1, 115097, Note_on_c, 0, 58, 44
1, 115268, Note_off_c, 0, 58, 48
1, 115274, Note_off_c, 0, 79, 59
1, 115277, Note_on_c, 0, 76, 57
1, 115283, Note_on_c, 0, 60, 42
1, 115302, Note_off_c, 0, 76, 64
1, 115450, Note_off_c, 0, 60, 53
1, 115458, Note_on_c, 0, 77, 53
1, 115475, Note_on_c, 0, 57, 35
1, 115535, Note_on_c, 0, 84, 63
1, 115539, Note_off_c, 0, 77, 59
1, 115615, Note_off_c, 0, 57, 57
1, 115621, Note_off_c, 0, 84, 63
1, 115625, Note_on_c, 0, 83, 76
1, 115642, Note_on_c, 0, 60, 28
1, 115714, Note_on_c, 0, 84, 79
1, 115731, Note_off_c, 0, 83, 60
1, 115794, Note_off_c, 0, 60, 44
1, 115794, Note_off_c, 0, 84, 63
1, 115795, Note_on_c, 0, 57, 36
1, 115796, Note_on_c, 0, 86, 85
1, 115883, Note_on_c, 0, 84, 81
1, 115909, Note_off_c, 0, 86, 63
1, 115949, Note_off_c, 0, 57, 56
1, 115962, Note_on_c, 0, 82, 84
1, 115975, Note_off_c, 0, 84, 61
1, 115979, Note_on_c, 0, 60, 33
1, 116028, Note_off_c, 0, 82, 63
1, 116044, Note_on_c, 0, 81, 78
1, 116128, Note_off_c, 0, 81, 49
1, 116131, Note_on_c, 0, 79, 78
1, 116140, Note_off_c, 0, 60, 49
1, 116143, Note_on_c, 0, 58, 44
1, 116152, Note_off_c, 0, 79, 70
1, 116328, Note_off_c, 0, 58, 59
1, 116338, Note_on_c, 0, 79, 80
1, 116344, Note_on_c, 0, 60, 43
1, 116510, Note_off_c, 0, 60, 56
1, 116518, Note_on_c, 0, 58, 51
1, 116679, Note_off_c, 0, 58, 61
1, 116700, Note_on_c, 0, 76, 75
1, 116700, Note_off_c, 0, 79, 61
1, 116707, Note_on_c, 0, 60, 48
1, 116724, Note_off_c, 0, 76, 68
1, 116893, Note_off_c, 0, 60, 56
1, 116900, Note_on_c, 0, 57, 50
1, 116901, Note_on_c, 0, 77, 60
1, 116977, Note_on_c, 0, 84, 70
1, 116997, Note_off_c, 0, 77, 59
1, 117063, Note_off_c, 0, 57, 60
1, 117066, Note_on_c, 0, 83, 81
1, 117067, Note_off_c, 0, 84, 63
1, 117087, Note_on_c, 0, 60, 40
1, 117155, Note_on_c, 0, 84, 83
1, 117170, Note_off_c, 0, 83, 61
1, 117216, Note_off_c, 0, 60, 54
1, 117236, Note_on_c, 0, 86, 88
1, 117237, Note_off_c, 0, 84, 61
1, 117243, Note_on_c, 0, 57, 45
1, 117326, Note_on_c, 0, 84, 87
1, 117348, Note_off_c, 0, 86, 63
1, 117391, Note_off_c, 0, 57, 63
1, 117401, Note_on_c, 0, 82, 88
1, 117412, Note_off_c, 0, 84, 63
1, 117418, Note_on_c, 0, 60, 40
1, 117457, Note_off_c, 0, 82, 64
1, 117477, Note_on_c, 0, 81, 85
1, 117514, Note_off_c, 0, 81, 69
1, 117558, Note_off_c, 0, 60, 58
1, 117576, Note_on_c, 0, 81, 78
1, 117595, Note_on_c, 0, 58, 49
1, 117768, Note_off_c, 0, 58, 60
1, 117775, Note_on_c, 0, 79, 68
1, 117793, Note_on_c, 0, 62, 39
1, 117799, Note_off_c, 0, 81, 61
1, 117884, Note_off_c, 0, 79, 60
1, 117955, Note_on_c, 0, 58, 50
1, 117973, Note_off_c, 0, 62, 43
1, 118102, Note_off_c, 0, 58, 59
1, 118133, Note_on_c, 0, 79, 70
1, 118140, Note_on_c, 0, 62, 45
1, 118158, Note_off_c, 0, 79, 67
1, 118315, Note_on_c, 0, 79, 68
1, 118325, Note_off_c, 0, 62, 48
1, 118326, Note_on_c, 0, 59, 45
1, 118501, Note_off_c, 0, 59, 56
1, 118512, Note_on_c, 0, 77, 62
1, 118520, Note_on_c, 0, 62, 37
1, 118534, Note_off_c, 0, 79, 51
1, 118607, Note_off_c, 0, 77, 57
1, 118683, Note_on_c, 0, 59, 40
1, 118702, Note_off_c, 0, 62, 40
1, 118836, Note_off_c, 0, 59, 60
1, 118859, Note_on_c, 0, 77, 56
1, 118867, Note_on_c, 0, 62, 42
1, 118891, Note_off_c, 0, 77, 65
1, 119034, Note_off_c, 0, 62, 51
1, 119053, Note_on_c, 0, 76, 55
1, 119055, Note_on_c, 0, 60, 36
1, 119112, Note_off_c, 0, 76, 58
1, 119139, Note_on_c, 0, 77, 61
1, 119218, Note_off_c, 0, 77, 57
1, 119231, Note_on_c, 0, 76, 61
1, 119273, Note_off_c, 0, 76, 63
1, 119312, Note_on_c, 0, 72, 61
1, 119370, Note_off_c, 0, 60, 61
1, 119377, Note_off_c, 0, 72, 52
1, 119398, Note_on_c, 0, 77, 65
1, 119399, Note_on_c, 0, 62, 44
1, 119455, Note_off_c, 0, 77, 57
1, 119483, Note_on_c, 0, 79, 66
1, 119561, Note_on_c, 0, 77, 70
1, 119564, Note_off_c, 0, 79, 59
1, 119611, Note_off_c, 0, 77, 64
1, 119652, Note_on_c, 0, 72, 70
1, 119721, Note_off_c, 0, 62, 59
1, 119735, Note_on_c, 0, 64, 47
1, 119744, Note_on_c, 0, 79, 74
1, 119744, Note_off_c, 0, 72, 58
1, 119814, Note_off_c, 0, 79, 60
1, 119823, Note_on_c, 0, 81, 75
1, 119917, Note_on_c, 0, 79, 81
1, 119925, Note_off_c, 0, 81, 63
1, 119968, Note_off_c, 0, 79, 63
1, 119995, Note_on_c, 0, 72, 80
1, 120062, Note_off_c, 0, 64, 64
1, 120078, Note_off_c, 0, 72, 59
1, 120087, Note_on_c, 0, 65, 55
1, 120088, Note_on_c, 0, 81, 77
1, 120165, Note_on_c, 0, 82, 88
1, 120167, Note_off_c, 0, 81, 67
1, 120250, Note_on_c, 0, 81, 79
1, 120292, Note_off_c, 0, 82, 52
1, 120301, Note_off_c, 0, 81, 65
1, 120323, Note_on_c, 0, 72, 84
1, 120409, Note_off_c, 0, 72, 63
1, 120412, Note_off_c, 0, 65, 62
1, 120416, Note_on_c, 0, 82, 86
1, 120435, Note_on_c, 0, 67, 56
1, 120459, Note_off_c, 0, 82, 63
1, 120590, Note_off_c, 0, 67, 61
1, 120612, Note_on_c, 0, 82, 74
1, 120623, Note_on_c, 0, 72, 42
1, 120638, Note_off_c, 0, 82, 66
1, 120789, Note_off_c, 0, 72, 45
1, 120799, Note_on_c, 0, 64, 50
1, 120955, Note_off_c, 0, 64, 62
1, 120979, Note_on_c, 0, 79, 72
1, 120982, Note_on_c, 0, 72, 50
1, 121002, Note_off_c, 0, 79, 69
1, 121139, Note_off_c, 0, 72, 51
1, 121166, Note_on_c, 0, 82, 68
1, 121172, Note_on_c, 0, 65, 45
1, 121310, Note_off_c, 0, 65, 59
1, 121348, Note_on_c, 0, 81, 64
1, 121357, Note_on_c, 0, 72, 43
1, 121361, Note_off_c, 0, 82, 60
1, 121521, Note_off_c, 0, 81, 61
1, 121522, Note_on_c, 0, 62, 40
1, 121523, Note_off_c, 0, 72, 45
1, 121529, Note_on_c, 0, 79, 64
1, 121672, Note_off_c, 0, 79, 59
1, 121681, Note_off_c, 0, 62, 61
1, 121704, Note_on_c, 0, 77, 57
1, 121707, Note_on_c, 0, 72, 46
1, 121843, Note_off_c, 0, 77, 61
1, 121883, Note_off_c, 0, 72, 57
1, 121884, Note_on_c, 0, 76, 61
1, 121900, Note_on_c, 0, 60, 34
1, 121932, Note_off_c, 0, 76, 62
1, 121974, Note_on_c, 0, 72, 72
1, 122048, Note_off_c, 0, 72, 42
1, 122055, Note_on_c, 0, 83, 66
1, 122145, Note_off_c, 0, 83, 58
1, 122147, Note_on_c, 0, 84, 70
1, 122227, Note_on_c, 0, 62, 59
1, 122230, Note_off_c, 0, 84, 59
1, 122237, Note_on_c, 0, 77, 69
1, 122269, Note_off_c, 0, 60, 52
1, 122294, Note_off_c, 0, 77, 62
1, 122325, Note_on_c, 0, 72, 78
1, 122408, Note_off_c, 0, 72, 49
1, 122412, Note_on_c, 0, 83, 73
1, 122498, Note_on_c, 0, 84, 70
1, 122565, Note_on_c, 0, 64, 73
1, 122567, Note_off_c, 0, 83, 28
1, 122572, Note_on_c, 0, 79, 78
1, 122582, Note_off_c, 0, 84, 63
1, 122602, Note_off_c, 0, 62, 60
1, 122647, Note_off_c, 0, 79, 61
1, 122656, Note_on_c, 0, 72, 84
1, 122740, Note_off_c, 0, 72, 57
1, 122749, Note_on_c, 0, 83, 79
1, 122835, Note_on_c, 0, 84, 77
1, 122845, Note_off_c, 0, 83, 60
1, 122898, Note_off_c, 0, 64, 65
1, 122908, Note_on_c, 0, 65, 70
1, 122912, Note_on_c, 0, 81, 77
1, 122916, Note_off_c, 0, 84, 64
1, 122993, Note_off_c, 0, 81, 64
1, 123000, Note_on_c, 0, 72, 79
1, 123078, Note_off_c, 0, 72, 58
1, 123095, Note_on_c, 0, 83, 76
1, 123156, Note_on_c, 0, 84, 72
1, 123173, Note_off_c, 0, 83, 55
1, 123232, Note_off_c, 0, 65, 62
1, 123241, Note_on_c, 0, 67, 67
1, 123241, Note_off_c, 0, 84, 65
1, 123246, Note_on_c, 0, 82, 83
1, 123279, Note_off_c, 0, 82, 61
1, 123284, Note_off_c, 0, 67, 62
1, 123329, Note_on_c, 0, 72, 56
1, 123405, Note_off_c, 0, 72, 61
1, 123420, Note_on_c, 0, 82, 83
1, 123429, Note_on_c, 0, 71, 55
1, 123456, Note_off_c, 0, 82, 64
1, 123466, Note_off_c, 0, 71, 67
1, 123505, Note_on_c, 0, 72, 60
1, 123553, Note_off_c, 0, 72, 56
1, 123599, Note_on_c, 0, 64, 75
1, 123653, Note_off_c, 0, 64, 62
1, 123685, Note_on_c, 0, 72, 70
1, 123726, Note_on_c, 0, 79, 69
1, 123749, Note_off_c, 0, 72, 58
1, 123765, Note_off_c, 0, 79, 59
1, 123768, Note_on_c, 0, 81, 73
1, 123780, Note_on_c, 0, 71, 59
1, 123792, Note_off_c, 0, 81, 70
1, 123813, Note_off_c, 0, 71, 65
1, 123825, Note_on_c, 0, 79, 77
1, 123857, Note_on_c, 0, 72, 62
1, 123861, Note_off_c, 0, 79, 60
1, 123862, Note_on_c, 0, 78, 74
1, 123891, Note_off_c, 0, 72, 64
1, 123908, Note_on_c, 0, 79, 66
1, 123915, Note_off_c, 0, 78, 63
1, 123934, Note_on_c, 0, 65, 71
1, 123947, Note_on_c, 0, 82, 89
1, 123980, Note_off_c, 0, 79, 62
1, 124024, Note_off_c, 0, 65, 60
1, 124048, Note_on_c, 0, 72, 55
1, 124120, Note_on_c, 0, 81, 83
1, 124124, Note_off_c, 0, 72, 61
1, 124126, Note_on_c, 0, 71, 66
1, 124148, Note_off_c, 0, 82, 34
1, 124156, Note_off_c, 0, 81, 68
1, 124181, Note_off_c, 0, 71, 64
1, 124222, Note_on_c, 0, 72, 67
1, 124269, Note_off_c, 0, 72, 61
1, 124290, Note_on_c, 0, 79, 91
1, 124302, Note_on_c, 0, 62, 65
1, 124333, Note_off_c, 0, 79, 64
1, 124365, Note_off_c, 0, 62, 60
1, 124401, Note_on_c, 0, 71, 61
1, 124440, Note_off_c, 0, 71, 60
1, 124473, Note_on_c, 0, 77, 88
1, 124478, Note_on_c, 0, 69, 66
1, 124509, Note_off_c, 0, 69, 68
1, 124510, Note_off_c, 0, 77, 67
1, 124554, Note_on_c, 0, 71, 62
1, 124638, Note_off_c, 0, 71, 59
1, 124649, Note_on_c, 0, 76, 89
1, 124652, Note_on_c, 0, 60, 76
1, 124734, Note_off_c, 0, 76, 62
1, 124740, Note_on_c, 0, 84, 84
1, 124823, Note_on_c, 0, 79, 84
1, 124837, Note_off_c, 0, 84, 64
1, 124904, Note_on_c, 0, 76, 81
1, 124919, Note_off_c, 0, 79, 59
1, 124951, Note_off_c, 0, 60, 62
1, 124952, Note_off_c, 0, 76, 65
1, 124989, Note_on_c, 0, 72, 79
1, 125038, Note_off_c, 0, 72, 63
1, 125068, Note_on_c, 0, 67, 84
1, 125157, Note_on_c, 0, 64, 79
1, 125161, Note_off_c, 0, 67, 63
1, 125241, Note_on_c, 0, 60, 88
1, 125263, Note_off_c, 0, 64, 61
1, 125333, Note_off_c, 0, 60, 63
1, 125343, Note_on_c, 0, 48, 77
1, 125345, Note_on_c, 0, 36, 76
1, 125403, Control_c, 0, 64, 37
1, 125418, Control_c, 0, 64, 59
1, 125433, Control_c, 0, 64, 66
1, 125448, Control_c, 0, 64, 71
1, 125463, Control_c, 0, 64, 77
1, 125477, Control_c, 0, 64, 84
1, 125492, Control_c, 0, 64, 93
1, 125507, Control_c, 0, 64, 104
1, 125521, Control_c, 0, 64, 127
1, 125670, Note_off_c, 0, 36, 59
1, 125687, Note_off_c, 0, 48, 60
1, 125700, Control_c, 0, 64, 119
1, 125715, Control_c, 0, 64, 88
1, 125729, Control_c, 0, 64, 71
1, 125744, Control_c, 0, 64, 50
1, 125759, Control_c, 0, 64, 0
1, 126030, Note_on_c, 0, 60, 66
1, 126075, Note_on_c, 0, 65, 64
1, 126122, Note_on_c, 0, 69, 70
1, 126165, Note_on_c, 0, 53, 83
1, 126168, Note_on_c, 0, 41, 75
1, 126168, Note_on_c, 0, 72, 91
1, 126182, Control_c, 0, 64, 30
1, 126197, Control_c, 0, 64, 64
1, 126212, Control_c, 0, 64, 71
1, 126212, Note_off_c, 0, 69, 67
1, 126215, Note_off_c, 0, 65, 62
1, 126226, Control_c, 0, 64, 80
1, 126241, Control_c, 0, 64, 96
1, 126245, Note_off_c, 0, 60, 64
1, 126256, Control_c, 0, 64, 127
1, 126344, Note_off_c, 0, 53, 63
1, 126352, Note_off_c, 0, 41, 62
1, 126707, Note_off_c, 0, 72, 60
1, 126748, Note_on_c, 0, 74, 66
1, 126819, Note_on_c, 0, 72, 76
1, 126834, Note_off_c, 0, 74, 61
1, 126870, Control_c, 0, 64, 97
1, 126877, Note_on_c, 0, 70, 83
1, 126877, Note_off_c, 0, 72, 64
1, 126885, Control_c, 0, 64, 74
1, 126901, Control_c, 0, 64, 39
1, 126916, Note_off_c, 0, 70, 63
1, 126916, Control_c, 0, 64, 0
1, 127068, Note_on_c, 0, 69, 74
1, 127119, Note_off_c, 0, 69, 65
1, 127241, Note_on_c, 0, 67, 79
1, 127283, Note_off_c, 0, 67, 62
1, 127425, Note_on_c, 0, 65, 82
1, 127452, Note_off_c, 0, 65, 65
1, 127610, Note_on_c, 0, 65, 69
1, 127790, Note_on_c, 0, 74, 70
1, 127809, Note_off_c, 0, 65, 62
1, 127837, Note_off_c, 0, 74, 67
1, 128000, Note_on_c, 0, 74, 63
1, 128008, Note_on_c, 0, 65, 43
1, 128010, Note_on_c, 0, 58, 44
1, 128014, Note_on_c, 0, 46, 42
1, 128177, Control_c, 0, 64, 10
1, 128192, Control_c, 0, 64, 51
1, 128206, Control_c, 0, 64, 59
1, 128221, Control_c, 0, 64, 62
1, 128236, Control_c, 0, 64, 64
1, 128251, Control_c, 0, 64, 68
1, 128266, Control_c, 0, 64, 74
1, 128280, Control_c, 0, 64, 82
1, 128295, Control_c, 0, 64, 90
1, 128310, Control_c, 0, 64, 95
1, 128324, Control_c, 0, 64, 100
1, 128326, Note_off_c, 0, 46, 59
1, 128338, Control_c, 0, 64, 106
1, 128353, Control_c, 0, 64, 117
1, 128368, Control_c, 0, 64, 127
1, 128556, Note_off_c, 0, 74, 32
1, 128566, Note_on_c, 0, 72, 67
1, 128639, Note_off_c, 0, 65, 36
1, 128681, Control_c, 0, 64, 105
1, 128695, Control_c, 0, 64, 88
1, 128710, Control_c, 0, 64, 73
1, 128719, Note_off_c, 0, 58, 37
1, 128725, Control_c, 0, 64, 59
1, 128739, Control_c, 0, 64, 24
1, 128740, Note_on_c, 0, 76, 81
1, 128754, Control_c, 0, 64, 0
1, 128755, Note_on_c, 0, 57, 42
1, 128784, Control_c, 0, 64, 27
1, 128797, Note_off_c, 0, 72, 62
1, 128799, Control_c, 0, 64, 30
1, 128836, Control_c, 0, 64, 31
1, 128851, Control_c, 0, 64, 32
1, 128865, Control_c, 0, 64, 31
1, 128880, Control_c, 0, 64, 27
1, 128895, Control_c, 0, 64, 21
1, 128910, Control_c, 0, 64, 16
1, 128924, Note_on_c, 0, 77, 86
1, 128925, Control_c, 0, 64, 13
1, 128945, Note_off_c, 0, 76, 63
1, 128954, Control_c, 0, 64, 0
1, 129010, Note_off_c, 0, 77, 59
1, 129091, Note_off_c, 0, 57, 62
1, 129115, Note_on_c, 0, 77, 76
1, 129119, Note_on_c, 0, 62, 48
1, 129128, Note_on_c, 0, 59, 44
1, 129305, Note_on_c, 0, 67, 68
1, 129319, Note_off_c, 0, 77, 57
1, 129463, Note_off_c, 0, 59, 55
1, 129485, Note_off_c, 0, 62, 35
1, 129497, Note_on_c, 0, 60, 49
1, 129675, Note_on_c, 0, 69, 77
1, 129709, Note_off_c, 0, 67, 59
1, 129855, Note_off_c, 0, 60, 62
1, 129863, Note_on_c, 0, 77, 71
1, 129871, Note_off_c, 0, 69, 62
1, 129873, Note_on_c, 0, 62, 43
1, 129876, Note_on_c, 0, 59, 45
1, 130042, Note_off_c, 0, 77, 56
1, 130058, Note_on_c, 0, 67, 68
1, 130213, Note_off_c, 0, 59, 60
1, 130230, Note_on_c, 0, 60, 50
1, 130238, Note_off_c, 0, 62, 36
1, 130413, Note_on_c, 0, 69, 80
1, 130448, Note_off_c, 0, 67, 56
1, 130595, Note_off_c, 0, 60, 60
1, 130624, Note_on_c, 0, 72, 77
1, 130627, Note_on_c, 0, 62, 46
1, 130654, Note_off_c, 0, 69, 65
1, 130689, Control_c, 0, 64, 15
1, 130704, Control_c, 0, 64, 47
1, 130718, Control_c, 0, 64, 60
1, 130733, Control_c, 0, 64, 67
1, 130748, Control_c, 0, 64, 73
1, 130763, Control_c, 0, 64, 82
1, 130778, Control_c, 0, 64, 88
1, 130792, Control_c, 0, 64, 91
1, 130807, Control_c, 0, 64, 92
1, 130814, Note_off_c, 0, 72, 59
1, 130822, Control_c, 0, 64, 93
1, 130836, Control_c, 0, 64, 94
1, 130851, Control_c, 0, 64, 95
1, 130866, Control_c, 0, 64, 95
1, 130881, Control_c, 0, 64, 96
1, 130956, Control_c, 0, 64, 93
1, 130965, Note_on_c, 0, 72, 59
1, 130971, Control_c, 0, 64, 88
1, 130974, Note_off_c, 0, 62, 58
1, 130986, Control_c, 0, 64, 78
1, 130993, Note_on_c, 0, 64, 50
1, 131001, Control_c, 0, 64, 67
1, 131012, Note_off_c, 0, 72, 62
1, 131015, Control_c, 0, 64, 47
1, 131026, Note_on_c, 0, 70, 78
1, 131030, Control_c, 0, 64, 0
1, 131074, Note_off_c, 0, 70, 59
1, 131091, Note_on_c, 0, 72, 67
1, 131131, Note_on_c, 0, 70, 73
1, 131136, Note_off_c, 0, 72, 66
1, 131181, Note_off_c, 0, 70, 62
1, 131189, Note_on_c, 0, 69, 70
1, 131242, Note_off_c, 0, 69, 58
1, 131258, Note_on_c, 0, 70, 64
1, 131316, Note_off_c, 0, 64, 61
1, 131332, Note_off_c, 0, 70, 63
1, 131334, Note_on_c, 0, 69, 77
1, 131344, Note_on_c, 0, 65, 47
1, 131373, Note_off_c, 0, 69, 64
1, 131526, Note_on_c, 0, 69, 69
1, 131627, Note_off_c, 0, 65, 58
1, 131704, Note_on_c, 0, 70, 79
1, 131744, Note_off_c, 0, 69, 59
1, 131894, Note_on_c, 0, 72, 84
1, 131911, Note_off_c, 0, 70, 64
1, 132087, Note_on_c, 0, 73, 81
1, 132110, Note_off_c, 0, 72, 62
1, 132266, Note_off_c, 0, 73, 63
1, 132269, Note_on_c, 0, 74, 76
1, 132282, Note_on_c, 0, 46, 49
1, 132439, Note_off_c, 0, 46, 61
1, 132453, Note_on_c, 0, 50, 55
1, 132626, Note_off_c, 0, 50, 65
1, 132646, Note_on_c, 0, 72, 60
1, 132655, Note_on_c, 0, 55, 49
1, 132659, Note_off_c, 0, 74, 55
1, 132717, Note_on_c, 0, 70, 72
1, 132732, Note_off_c, 0, 72, 58
1, 132791, Note_off_c, 0, 55, 62
1, 132806, Note_on_c, 0, 69, 70
1, 132816, Note_on_c, 0, 58, 48
1, 132816, Note_off_c, 0, 70, 60
1, 132996, Note_on_c, 0, 67, 69
1, 132996, Note_off_c, 0, 69, 64
1, 133139, Note_off_c, 0, 58, 34
1, 133167, Note_on_c, 0, 69, 75
1, 133204, Note_off_c, 0, 67, 58
1, 133353, Note_on_c, 0, 70, 77
1, 133379, Note_off_c, 0, 69, 60
1, 133510, Note_off_c, 0, 70, 62
1, 133533, Note_on_c, 0, 74, 61
1, 133729, Note_on_c, 0, 45, 35
1, 133729, Note_on_c, 0, 72, 62
1, 133747, Note_off_c, 0, 74, 56
1, 133874, Note_off_c, 0, 45, 54
1, 133891, Note_on_c, 0, 48, 45
1, 134072, Note_off_c, 0, 48, 62
1, 134097, Note_on_c, 0, 70, 62
1, 134105, Note_off_c, 0, 72, 60
1, 134115, Note_on_c, 0, 53, 37
1, 134169, Note_off_c, 0, 70, 61
1, 134172, Note_on_c, 0, 69, 65
1, 134240, Note_off_c, 0, 69, 64
1, 134242, Note_off_c, 0, 53, 60
1, 134269, Note_on_c, 0, 67, 57
1, 134276, Note_on_c, 0, 57, 38
1, 134435, Note_off_c, 0, 67, 59
1, 134443, Note_on_c, 0, 65, 59
1, 134609, Note_off_c, 0, 65, 61
1, 134625, Note_off_c, 0, 57, 57
1, 134632, Note_on_c, 0, 67, 65
1, 134805, Note_on_c, 0, 69, 72
1, 134818, Note_off_c, 0, 67, 56
1, 134993, Note_on_c, 0, 55, 47
1, 134997, Note_on_c, 0, 72, 70
1, 135022, Note_off_c, 0, 69, 59
1, 135182, Note_on_c, 0, 70, 67
1, 135226, Note_off_c, 0, 72, 59
1, 135322, Note_off_c, 0, 70, 63
1, 135362, Note_on_c, 0, 52, 55
1, 135394, Note_off_c, 0, 55, 55
1, 135524, Note_on_c, 0, 67, 71
1, 135566, Note_off_c, 0, 67, 61
1, 135724, Note_on_c, 0, 70, 61
1, 135730, Note_on_c, 0, 53, 49
1, 135739, Note_off_c, 0, 52, 54
1, 135902, Note_on_c, 0, 69, 60
1, 135912, Note_off_c, 0, 70, 59
1, 136061, Note_off_c, 0, 69, 65
1, 136093, Note_on_c, 0, 50, 47
1, 136139, Note_off_c, 0, 53, 39
1, 136273, Note_on_c, 0, 65, 54
1, 136323, Note_off_c, 0, 65, 62
1, 136475, Note_on_c, 0, 64, 53
1, 136475, Note_off_c, 0, 50, 38
1, 136476, Note_on_c, 0, 48, 39
1, 136530, Note_off_c, 0, 64, 64
1, 136564, Note_on_c, 0, 65, 68
1, 136653, Note_off_c, 0, 65, 58
1, 136657, Note_on_c, 0, 67, 69
1, 136738, Note_on_c, 0, 69, 77
1, 136753, Note_off_c, 0, 67, 59
1, 136810, Note_off_c, 0, 48, 51
1, 136819, Note_on_c, 0, 71, 80
1, 136834, Note_off_c, 0, 69, 64
1, 136899, Note_off_c, 0, 71, 64
1, 136904, Note_on_c, 0, 72, 81
1, 136988, Note_off_c, 0, 72, 60
1, 136994, Note_on_c, 0, 71, 83
1, 137067, Note_off_c, 0, 71, 65
1, 137078, Note_on_c, 0, 72, 74
1, 137162, Note_off_c, 0, 72, 61
1, 137173, Note_on_c, 0, 48, 49
1, 137185, Note_on_c, 0, 60, 65
1, 137240, Note_off_c, 0, 48, 59
1, 137260, Note_on_c, 0, 50, 66
1, 137346, Note_off_c, 0, 50, 64
1, 137352, Note_on_c, 0, 46, 65
1, 137421, Note_off_c, 0, 46, 59
1, 137441, Note_on_c, 0, 48, 73
1, 137504, Note_off_c, 0, 60, 61
1, 137525, Note_on_c, 0, 45, 73
1, 137534, Note_off_c, 0, 48, 60
1, 137605, Note_off_c, 0, 45, 64
1, 137613, Note_on_c, 0, 46, 83
1, 137690, Note_off_c, 0, 46, 62
1, 137701, Note_on_c, 0, 43, 81
1, 137780, Note_on_c, 0, 45, 77
1, 137784, Note_off_c, 0, 43, 63
1, 137895, Note_on_c, 0, 41, 82
1, 137900, Note_on_c, 0, 72, 89
1, 137902, Note_off_c, 0, 45, 64
1, 137909, Note_on_c, 0, 69, 68
1, 137955, Control_c, 0, 64, 53
1, 137970, Control_c, 0, 64, 74
1, 137981, Note_off_c, 0, 41, 62
1, 137984, Control_c, 0, 64, 87
1, 137999, Control_c, 0, 64, 104
1, 138014, Control_c, 0, 64, 127
1, 138251, Control_c, 0, 64, 101
1, 138266, Control_c, 0, 64, 70
1, 138268, Note_on_c, 0, 53, 76
1, 138281, Control_c, 0, 64, 0
1, 138325, Control_c, 0, 64, 56
1, 138340, Control_c, 0, 64, 74
1, 138355, Control_c, 0, 64, 98
1, 138370, Control_c, 0, 64, 127
1, 138389, Note_off_c, 0, 53, 66
1, 138428, Note_off_c, 0, 72, 58
1, 138477, Note_on_c, 0, 74, 65
1, 138508, Note_off_c, 0, 69, 37
1, 138540, Note_on_c, 0, 72, 77
1, 138572, Note_off_c, 0, 74, 62
1, 138585, Control_c, 0, 64, 95
1, 138600, Control_c, 0, 64, 71
1, 138614, Control_c, 0, 64, 0
1, 138621, Note_on_c, 0, 70, 87
1, 138622, Note_off_c, 0, 72, 65
1, 138665, Note_off_c, 0, 70, 63
1, 138815, Note_on_c, 0, 69, 76
1, 138848, Note_off_c, 0, 69, 63
1, 138997, Note_on_c, 0, 67, 81
1, 139041, Note_off_c, 0, 67, 62
1, 139174, Note_on_c, 0, 65, 87
1, 139209, Note_off_c, 0, 65, 63
1, 139376, Note_on_c, 0, 65, 62
1, 139556, Note_on_c, 0, 74, 65
1, 139583, Note_off_c, 0, 65, 60
1, 139603, Note_off_c, 0, 74, 65
1, 139779, Note_on_c, 0, 58, 42
1, 139782, Note_on_c, 0, 46, 43
1, 139783, Note_on_c, 0, 74, 65
1, 139802, Note_on_c, 0, 65, 42
1, 139941, Control_c, 0, 64, 30
1, 139956, Control_c, 0, 64, 57
1, 139970, Control_c, 0, 64, 65
1, 139985, Control_c, 0, 64, 70
1, 140000, Control_c, 0, 64, 75
1, 140015, Control_c, 0, 64, 82
1, 140029, Control_c, 0, 64, 89
1, 140052, Control_c, 0, 64, 99
1, 140067, Control_c, 0, 64, 119
1, 140082, Control_c, 0, 64, 127
1, 140102, Note_off_c, 0, 46, 59
1, 140339, Note_off_c, 0, 74, 60
1, 140354, Note_on_c, 0, 72, 63
1, 140406, Note_off_c, 0, 65, 39
1, 140483, Control_c, 0, 64, 118
1, 140494, Note_off_c, 0, 58, 34
1, 140498, Control_c, 0, 64, 93
1, 140513, Control_c, 0, 64, 75
1, 140527, Control_c, 0, 64, 57
1, 140535, Note_on_c, 0, 57, 45
1, 140538, Note_on_c, 0, 76, 79
1, 140542, Control_c, 0, 64, 0
1, 140591, Note_off_c, 0, 72, 62
1, 140709, Note_on_c, 0, 77, 83
1, 140715, Note_off_c, 0, 76, 63
1, 140884, Note_off_c, 0, 57, 61
1, 140914, Note_on_c, 0, 62, 52
1, 140919, Note_on_c, 0, 59, 52
1, 141094, Note_on_c, 0, 67, 69
1, 141096, Note_off_c, 0, 77, 56
1, 141252, Note_off_c, 0, 59, 54
1, 141280, Note_on_c, 0, 69, 63
1, 141284, Note_on_c, 0, 60, 42
1, 141290, Note_off_c, 0, 62, 37
1, 141299, Note_off_c, 0, 67, 57
1, 141458, Note_off_c, 0, 69, 61
1, 141479, Note_on_c, 0, 77, 62
1, 141636, Note_off_c, 0, 60, 57
1, 141662, Note_on_c, 0, 59, 50
1, 141665, Note_on_c, 0, 62, 45
1, 141844, Note_on_c, 0, 67, 75
1, 141856, Note_off_c, 0, 77, 39
1, 141999, Note_off_c, 0, 59, 60
1, 142028, Note_on_c, 0, 69, 72
1, 142035, Note_on_c, 0, 60, 48
1, 142042, Note_off_c, 0, 62, 49
1, 142070, Note_off_c, 0, 67, 60
1, 142207, Note_off_c, 0, 69, 64
1, 142208, Note_on_c, 0, 77, 78
1, 142382, Note_off_c, 0, 60, 63
1, 142406, Note_on_c, 0, 72, 71
1, 142414, Note_on_c, 0, 62, 49
1, 142418, Note_on_c, 0, 65, 43
1, 142434, Note_off_c, 0, 77, 61
1, 142580, Note_off_c, 0, 62, 0
1, 142580, Note_on_c, 0, 62, 18
1, 142752, Note_off_c, 0, 72, 61
1, 142762, Note_off_c, 0, 62, 50
1, 142764, Note_on_c, 0, 71, 62
1, 142779, Note_on_c, 0, 64, 46
1, 142791, Note_off_c, 0, 65, 42
1, 142793, Note_on_c, 0, 67, 44
1, 142930, Note_off_c, 0, 71, 62
1, 142940, Note_on_c, 0, 70, 59
1, 143116, Note_off_c, 0, 70, 55
1, 143126, Note_on_c, 0, 65, 45
1, 143129, Note_on_c, 0, 69, 56
1, 143144, Note_off_c, 0, 67, 48
1, 143147, Note_off_c, 0, 64, 38
1, 143170, Note_off_c, 0, 69, 64
1, 143307, Note_on_c, 0, 69, 56
1, 143332, Note_off_c, 0, 65, 58
1, 143493, Note_on_c, 0, 70, 73
1, 143529, Note_off_c, 0, 69, 57
1, 143668, Note_on_c, 0, 72, 83
1, 143677, Note_off_c, 0, 70, 60
1, 143862, Note_on_c, 0, 73, 81
1, 143893, Note_off_c, 0, 72, 60
1, 143946, Note_on_c, 0, 74, 78
1, 143956, Note_off_c, 0, 73, 59
1, 144036, Note_on_c, 0, 50, 76
1, 144185, Note_off_c, 0, 50, 65
1, 144208, Note_on_c, 0, 62, 74
1, 144247, Note_off_c, 0, 62, 61
1, 144364, Note_off_c, 0, 74, 61
1, 144393, Note_on_c, 0, 60, 67
1, 144394, Note_on_c, 0, 76, 73
1, 144423, Note_off_c, 0, 60, 67
1, 144480, Note_on_c, 0, 78, 82
1, 144490, Note_off_c, 0, 76, 62
1, 144555, Note_off_c, 0, 78, 64
1, 144569, Note_on_c, 0, 58, 61
1, 144577, Note_on_c, 0, 79, 82
1, 144600, Note_off_c, 0, 58, 65
1, 144663, Note_on_c, 0, 81, 84
1, 144678, Note_off_c, 0, 79, 57
1, 144734, Note_on_c, 0, 46, 70
1, 144740, Note_off_c, 0, 81, 62
1, 144748, Note_on_c, 0, 82, 89
1, 144769, Note_off_c, 0, 46, 66
1, 144831, Note_on_c, 0, 81, 86
1, 144858, Note_off_c, 0, 82, 61
1, 144892, Note_off_c, 0, 81, 65
1, 144919, Note_on_c, 0, 58, 84
1, 144920, Note_on_c, 0, 79, 84
1, 144995, Note_on_c, 0, 81, 82
1, 145015, Note_off_c, 0, 79, 57
1, 145096, Note_on_c, 0, 77, 85
1, 145097, Note_on_c, 0, 57, 77
1, 145103, Note_off_c, 0, 58, 56
1, 145103, Note_off_c, 0, 81, 66
1, 145133, Note_off_c, 0, 57, 66
1, 145183, Note_on_c, 0, 79, 85
1, 145185, Note_off_c, 0, 77, 61
1, 145246, Note_off_c, 0, 79, 62
1, 145267, Note_on_c, 0, 55, 78
1, 145273, Note_on_c, 0, 76, 87
1, 145309, Note_off_c, 0, 55, 62
1, 145350, Note_off_c, 0, 76, 51
1, 145361, Note_on_c, 0, 77, 81
1, 145449, Note_on_c, 0, 53, 71
1, 145452, Note_off_c, 0, 77, 61
1, 145454, Note_on_c, 0, 74, 89
1, 145479, Note_off_c, 0, 53, 67
1, 145533, Note_off_c, 0, 74, 62
1, 145534, Note_on_c, 0, 76, 84
1, 145596, Note_off_c, 0, 76, 63
1, 145621, Note_on_c, 0, 52, 79
1, 145621, Note_on_c, 0, 72, 87
1, 145648, Note_off_c, 0, 52, 67
1, 145711, Note_on_c, 0, 74, 76
1, 145725, Note_off_c, 0, 72, 60
1, 145788, Note_on_c, 0, 48, 76
1, 145792, Note_on_c, 0, 70, 87
1, 145799, Note_off_c, 0, 74, 61
1, 145816, Note_off_c, 0, 48, 64
1, 145868, Note_on_c, 0, 72, 83
1, 145875, Note_off_c, 0, 70, 64
1, 145953, Note_off_c, 0, 72, 57
1, 145966, Note_on_c, 0, 53, 84
1, 145971, Note_on_c, 0, 69, 84
1, 146065, Note_on_c, 0, 70, 86
1, 146083, Note_off_c, 0, 69, 63
1, 146088, Control_c, 0, 64, 37
1, 146118, Control_c, 0, 64, 18
1, 146129, Note_off_c, 0, 53, 63
1, 146133, Control_c, 0, 64, 0
1, 146145, Note_on_c, 0, 72, 86
1, 146155, Note_off_c, 0, 70, 63
1, 146198, Note_off_c, 0, 72, 63
1, 146230, Note_on_c, 0, 74, 84
1, 146319, Note_on_c, 0, 45, 83
1, 146321, Note_on_c, 0, 76, 83
1, 146322, Note_off_c, 0, 74, 63
1, 146397, Note_off_c, 0, 76, 63
1, 146400, Note_on_c, 0, 77, 83
1, 146456, Note_off_c, 0, 45, 63
1, 146479, Note_off_c, 0, 77, 61
1, 146484, Note_on_c, 0, 76, 88
1, 146569, Note_on_c, 0, 77, 90
1, 146580, Note_off_c, 0, 76, 59
1, 146642, Note_off_c, 0, 77, 63
1, 146652, Note_on_c, 0, 46, 85
1, 146657, Note_on_c, 0, 79, 89
1, 146744, Note_on_c, 0, 77, 90
1, 146767, Note_off_c, 0, 79, 62
1, 146796, Note_off_c, 0, 46, 64
1, 146833, Note_on_c, 0, 76, 90
1, 146839, Note_off_c, 0, 77, 62
1, 146888, Note_off_c, 0, 76, 64
1, 146914, Note_on_c, 0, 74, 85
1, 146991, Note_off_c, 0, 74, 59
1, 147002, Note_on_c, 0, 58, 85
1, 147003, Note_on_c, 0, 76, 88
1, 147064, Note_off_c, 0, 76, 63
1, 147085, Note_on_c, 0, 74, 85
1, 147105, Note_off_c, 0, 58, 63
1, 147171, Note_on_c, 0, 72, 85
1, 147190, Note_off_c, 0, 74, 59
1, 147252, Note_on_c, 0, 70, 85
1, 147261, Note_off_c, 0, 72, 63
1, 147327, Note_off_c, 0, 70, 64
1, 147342, Note_on_c, 0, 69, 90
1, 147351, Note_on_c, 0, 60, 87
1, 147385, Control_c, 0, 64, 39
1, 147400, Control_c, 0, 64, 62
1, 147414, Control_c, 0, 64, 70
1, 147429, Control_c, 0, 64, 81
1, 147444, Control_c, 0, 64, 98
1, 147459, Control_c, 0, 64, 127
1, 147474, Note_off_c, 0, 60, 60
1, 147519, Note_off_c, 0, 69, 61
1, 147711, Note_on_c, 0, 64, 69
1, 147717, Note_on_c, 0, 69, 79
1, 147721, Note_on_c, 0, 48, 76
1, 147749, Control_c, 0, 64, 107
1, 147764, Note_off_c, 0, 69, 61
1, 147764, Control_c, 0, 64, 79
1, 147771, Note_on_c, 0, 67, 81
1, 147779, Control_c, 0, 64, 28
1, 147785, Note_off_c, 0, 64, 60
1, 147793, Control_c, 0, 64, 0
1, 147815, Note_on_c, 0, 69, 79
1, 147815, Note_off_c, 0, 67, 61
1, 147818, Note_off_c, 0, 48, 63
1, 147869, Note_on_c, 0, 67, 78
1, 147872, Note_off_c, 0, 69, 68
1, 147924, Note_off_c, 0, 67, 63
1, 147926, Note_on_c, 0, 65, 80
1, 147985, Note_off_c, 0, 65, 63
1, 147991, Note_on_c, 0, 67, 76
1, 148058, Note_on_c, 0, 65, 90
1, 148060, Note_off_c, 0, 67, 65
1, 148065, Note_on_c, 0, 53, 72
1, 148124, Note_off_c, 0, 53, 65
1, 148147, Note_on_c, 0, 60, 73
1, 148232, Note_off_c, 0, 60, 62
1, 148250, Note_on_c, 0, 59, 68
1, 148301, Note_off_c, 0, 59, 61
1, 148309, Note_off_c, 0, 65, 57
1, 148335, Note_on_c, 0, 60, 72
1, 148412, Note_on_c, 0, 62, 74
1, 148415, Note_off_c, 0, 60, 60
1, 148463, Note_off_c, 0, 62, 61
1, 148510, Note_on_c, 0, 60, 66
1, 148545, Note_off_c, 0, 60, 63
1, 148593, Note_on_c, 0, 59, 61
1, 148619, Note_off_c, 0, 59, 63
1, 148662, Note_on_c, 0, 60, 68
1, 148742, Note_off_c, 0, 60, 55
1, 148753, Note_on_c, 0, 58, 79
1, 148810, Note_off_c, 0, 58, 63
1, 148840, Note_on_c, 0, 60, 74
1, 148889, Note_off_c, 0, 60, 59
1, 148921, Note_on_c, 0, 57, 75
1, 148968, Note_off_c, 0, 57, 63
1, 149000, Note_on_c, 0, 60, 71
1, 149075, Note_off_c, 0, 60, 60
1, 149109, Note_on_c, 0, 55, 66
1, 149145, Note_off_c, 0, 55, 61
1, 149184, Note_on_c, 0, 60, 64
1, 149235, Note_off_c, 0, 60, 60
1, 149278, Note_on_c, 0, 53, 61
1, 149309, Note_off_c, 0, 53, 66
1, 149353, Note_on_c, 0, 60, 64
1, 149439, Control_c, 0, 64, 40
1, 149441, Note_off_c, 0, 60, 59
1, 149454, Control_c, 0, 64, 60
1, 149463, Note_on_c, 0, 82, 87
1, 149469, Control_c, 0, 64, 67
1, 149472, Note_on_c, 0, 52, 55
1, 149483, Control_c, 0, 64, 74
1, 149498, Control_c, 0, 64, 83
1, 149513, Control_c, 0, 64, 93
1, 149528, Control_c, 0, 64, 104
1, 149532, Note_off_c, 0, 52, 60
1, 149543, Control_c, 0, 64, 118
1, 149555, Note_on_c, 0, 60, 60
1, 149558, Control_c, 0, 64, 127
1, 149616, Control_c, 0, 64, 112
1, 149631, Control_c, 0, 64, 90
1, 149634, Note_off_c, 0, 60, 60
1, 149639, Note_on_c, 0, 79, 77
1, 149645, Note_off_c, 0, 82, 62
1, 149645, Note_on_c, 0, 55, 51
1, 149646, Control_c, 0, 64, 71
1, 149661, Control_c, 0, 64, 38
1, 149673, Note_off_c, 0, 79, 61
1, 149676, Control_c, 0, 64, 0
1, 149678, Note_off_c, 0, 55, 55
1, 149739, Note_on_c, 0, 60, 48
1, 149803, Note_off_c, 0, 60, 62
1, 149826, Note_on_c, 0, 76, 78
1, 149836, Note_on_c, 0, 58, 45
1, 149855, Note_off_c, 0, 76, 65
1, 149873, Note_off_c, 0, 58, 62
1, 149923, Note_on_c, 0, 60, 49
1, 149950, Note_off_c, 0, 60, 59
1, 149983, Note_on_c, 0, 58, 55
1, 150003, Note_on_c, 0, 76, 70
1, 150030, Note_off_c, 0, 76, 66
1, 150030, Note_off_c, 0, 58, 61
1, 150069, Note_on_c, 0, 60, 55
1, 150128, Control_c, 0, 64, 43
1, 150143, Control_c, 0, 64, 60
1, 150146, Note_off_c, 0, 60, 52
1, 150158, Control_c, 0, 64, 68
1, 150173, Control_c, 0, 64, 74
1, 150174, Note_on_c, 0, 82, 83
1, 150187, Control_c, 0, 64, 84
1, 150188, Note_on_c, 0, 52, 58
1, 150202, Control_c, 0, 64, 94
1, 150217, Control_c, 0, 64, 104
1, 150231, Control_c, 0, 64, 114
1, 150246, Control_c, 0, 64, 127
1, 150264, Note_off_c, 0, 52, 60
1, 150275, Note_on_c, 0, 60, 58
1, 150320, Control_c, 0, 64, 118
1, 150335, Control_c, 0, 64, 89
1, 150349, Note_on_c, 0, 79, 79
1, 150350, Control_c, 0, 64, 71
1, 150357, Note_off_c, 0, 82, 61
1, 150360, Note_off_c, 0, 60, 60
1, 150364, Control_c, 0, 64, 43
1, 150369, Note_on_c, 0, 55, 51
1, 150379, Control_c, 0, 64, 0
1, 150384, Note_off_c, 0, 79, 61
1, 150402, Note_off_c, 0, 55, 63
1, 150453, Note_on_c, 0, 60, 47
1, 150516, Note_off_c, 0, 60, 56
1, 150543, Note_on_c, 0, 76, 72
1, 150558, Note_on_c, 0, 58, 42
1, 150569, Note_off_c, 0, 76, 67
1, 150589, Note_off_c, 0, 58, 55
1, 150637, Note_on_c, 0, 60, 54
1, 150681, Note_off_c, 0, 60, 61
1, 150709, Note_on_c, 0, 58, 46
1, 150714, Note_on_c, 0, 76, 76
1, 150742, Note_off_c, 0, 76, 66
1, 150754, Note_off_c, 0, 58, 60
1, 150801, Note_on_c, 0, 60, 47
1, 150849, Note_off_c, 0, 60, 61
1, 150887, Note_on_c, 0, 57, 63
1, 150887, Note_on_c, 0, 77, 71
1, 150915, Note_off_c, 0, 77, 65
1, 150922, Note_off_c, 0, 57, 65
1, 150981, Note_on_c, 0, 60, 47
1, 151030, Note_off_c, 0, 60, 61
1, 151061, Note_on_c, 0, 79, 74
1, 151062, Note_on_c, 0, 52, 61
1, 151089, Note_off_c, 0, 79, 64
1, 151103, Note_off_c, 0, 52, 62
1, 151150, Note_on_c, 0, 60, 56
1, 151207, Note_off_c, 0, 60, 56
1, 151233, Note_on_c, 0, 81, 80
1, 151238, Note_on_c, 0, 53, 65
1, 151264, Note_off_c, 0, 81, 64
1, 151285, Note_off_c, 0, 53, 63
1, 151328, Note_on_c, 0, 60, 60
1, 151389, Note_off_c, 0, 60, 55
1, 151412, Note_on_c, 0, 82, 86
1, 151415, Note_on_c, 0, 55, 61
1, 151446, Note_off_c, 0, 55, 64
1, 151458, Note_off_c, 0, 82, 64
1, 151503, Note_on_c, 0, 60, 51
1, 151565, Control_c, 0, 64, 25
1, 151580, Control_c, 0, 64, 59
1, 151583, Note_off_c, 0, 60, 61
1, 151593, Note_on_c, 0, 83, 92
1, 151595, Control_c, 0, 64, 66
1, 151603, Note_on_c, 0, 56, 53
1, 151610, Control_c, 0, 64, 72
1, 151625, Control_c, 0, 64, 81
1, 151640, Control_c, 0, 64, 92
1, 151655, Control_c, 0, 64, 106
1, 151663, Note_off_c, 0, 56, 60
1, 151670, Control_c, 0, 64, 127
1, 151693, Note_on_c, 0, 60, 58
1, 151737, Note_off_c, 0, 60, 57
1, 151759, Control_c, 0, 64, 105
1, 151772, Note_on_c, 0, 84, 85
1, 151774, Control_c, 0, 64, 78
1, 151776, Note_on_c, 0, 57, 61
1, 151787, Note_off_c, 0, 83, 64
1, 151789, Control_c, 0, 64, 59
1, 151803, Control_c, 0, 64, 0
1, 151814, Note_off_c, 0, 57, 63
1, 151815, Note_off_c, 0, 84, 66
1, 151849, Note_on_c, 0, 60, 64
1, 151892, Control_c, 0, 64, 30
1, 151907, Control_c, 0, 64, 54
1, 151922, Control_c, 0, 64, 63
1, 151935, Note_off_c, 0, 60, 58
1, 151937, Control_c, 0, 64, 67
1, 151947, Note_on_c, 0, 56, 63
1, 151947, Note_on_c, 0, 83, 89
1, 151951, Control_c, 0, 64, 73
1, 151966, Control_c, 0, 64, 82
1, 151981, Control_c, 0, 64, 95
1, 151996, Control_c, 0, 64, 121
1, 152010, Control_c, 0, 64, 127
1, 152013, Note_off_c, 0, 56, 59
1, 152051, Note_on_c, 0, 60, 66
1, 152092, Note_off_c, 0, 60, 59
1, 152137, Control_c, 0, 64, 101
1, 152137, Note_on_c, 0, 84, 78
1, 152138, Note_on_c, 0, 57, 57
1, 152149, Note_off_c, 0, 83, 62
1, 152152, Control_c, 0, 64, 75
1, 152164, Note_off_c, 0, 57, 60
1, 152166, Control_c, 0, 64, 54
1, 152170, Note_off_c, 0, 84, 66
1, 152181, Control_c, 0, 64, 0
1, 152203, Note_on_c, 0, 60, 59
1, 152255, Control_c, 0, 64, 38
1, 152270, Control_c, 0, 64, 57
1, 152274, Note_off_c, 0, 60, 53
1, 152284, Control_c, 0, 64, 64
1, 152299, Control_c, 0, 64, 69
1, 152310, Note_on_c, 0, 82, 89
1, 152313, Note_on_c, 0, 52, 65
1, 152314, Control_c, 0, 64, 77
1, 152328, Control_c, 0, 64, 90
1, 152343, Control_c, 0, 64, 117
1, 152358, Control_c, 0, 64, 127
1, 152376, Note_off_c, 0, 52, 58
1, 152406, Note_on_c, 0, 60, 58
1, 152483, Note_off_c, 0, 60, 61
1, 152486, Note_on_c, 0, 79, 78
1, 152493, Control_c, 0, 64, 123
1, 152498, Note_on_c, 0, 55, 56
1, 152498, Note_off_c, 0, 82, 61
1, 152507, Control_c, 0, 64, 88
1, 152520, Note_off_c, 0, 79, 59
1, 152522, Control_c, 0, 64, 68
1, 152533, Note_off_c, 0, 55, 63
1, 152537, Control_c, 0, 64, 0
1, 152583, Note_on_c, 0, 60, 47
1, 152648, Note_off_c, 0, 60, 58
1, 152665, Note_on_c, 0, 76, 81
1, 152668, Note_on_c, 0, 58, 57
1, 152702, Note_off_c, 0, 76, 61
1, 152705, Note_off_c, 0, 58, 62
1, 152764, Note_on_c, 0, 60, 51
1, 152814, Note_off_c, 0, 60, 63
1, 152847, Note_on_c, 0, 58, 53
1, 152850, Note_on_c, 0, 76, 76
1, 152876, Note_off_c, 0, 76, 67
1, 152882, Note_off_c, 0, 58, 63
1, 152930, Note_on_c, 0, 60, 55
1, 152974, Control_c, 0, 64, 50
1, 152989, Note_off_c, 0, 60, 55
1, 152989, Control_c, 0, 64, 63
1, 153004, Control_c, 0, 64, 67
1, 153019, Control_c, 0, 64, 71
1, 153024, Note_on_c, 0, 82, 84
1, 153033, Note_on_c, 0, 52, 57
1, 153033, Control_c, 0, 64, 78
1, 153048, Control_c, 0, 64, 86
1, 153063, Control_c, 0, 64, 98
1, 153078, Control_c, 0, 64, 118
1, 153085, Note_off_c, 0, 52, 59
1, 153093, Control_c, 0, 64, 127
1, 153109, Note_on_c, 0, 60, 60
1, 153190, Note_off_c, 0, 60, 60
1, 153196, Control_c, 0, 64, 106
1, 153201, Note_on_c, 0, 79, 78
1, 153203, Note_on_c, 0, 55, 58
1, 153211, Control_c, 0, 64, 82
1, 153214, Note_off_c, 0, 82, 61
1, 153226, Control_c, 0, 64, 64
1, 153230, Note_off_c, 0, 79, 62
1, 153234, Note_off_c, 0, 55, 63
1, 153240, Control_c, 0, 64, 0
1, 153289, Note_on_c, 0, 60, 48
1, 153362, Note_off_c, 0, 60, 57
1, 153372, Note_on_c, 0, 76, 79
1, 153376, Note_on_c, 0, 58, 53
1, 153401, Note_off_c, 0, 76, 65
1, 153418, Note_off_c, 0, 58, 62
1, 153478, Note_on_c, 0, 60, 55
1, 153532, Note_off_c, 0, 60, 59
1, 153548, Note_on_c, 0, 76, 76
1, 153565, Note_on_c, 0, 58, 54
1, 153580, Note_off_c, 0, 76, 63
1, 153603, Note_off_c, 0, 58, 63
1, 153652, Note_on_c, 0, 60, 46
1, 153690, Note_off_c, 0, 60, 61
1, 153721, Note_on_c, 0, 77, 70
1, 153723, Note_on_c, 0, 57, 59
1, 153747, Note_off_c, 0, 77, 68
1, 153759, Note_off_c, 0, 57, 65
1, 153804, Note_on_c, 0, 60, 58
1, 153859, Note_off_c, 0, 60, 56
1, 153897, Note_on_c, 0, 79, 77
1, 153904, Note_on_c, 0, 52, 65
1, 153926, Note_off_c, 0, 79, 62
1, 153942, Note_off_c, 0, 52, 63
1, 153977, Note_on_c, 0, 60, 64
1, 154045, Note_off_c, 0, 60, 60
1, 154065, Note_on_c, 0, 81, 81
1, 154072, Note_on_c, 0, 53, 64
1, 154099, Note_off_c, 0, 81, 67
1, 154114, Note_off_c, 0, 53, 65
1, 154154, Note_on_c, 0, 60, 68
1, 154205, Note_off_c, 0, 60, 56
1, 154230, Note_on_c, 0, 82, 88
1, 154242, Note_on_c, 0, 55, 73
1, 154280, Note_off_c, 0, 55, 63
1, 154289, Note_off_c, 0, 82, 64
1, 154326, Note_on_c, 0, 60, 64
1, 154398, Control_c, 0, 64, 45
1, 154411, Note_on_c, 0, 83, 88
1, 154412, Note_off_c, 0, 60, 61
1, 154412, Control_c, 0, 64, 61
1, 154421, Note_on_c, 0, 56, 65
1, 154427, Control_c, 0, 64, 67
1, 154442, Control_c, 0, 64, 76
1, 154457, Control_c, 0, 64, 86
1, 154472, Control_c, 0, 64, 99
1, 154474, Note_off_c, 0, 56, 54
1, 154486, Control_c, 0, 64, 113
1, 154501, Control_c, 0, 64, 127
1, 154506, Note_on_c, 0, 60, 67
1, 154576, Control_c, 0, 64, 96
1, 154576, Note_off_c, 0, 60, 61
1, 154591, Control_c, 0, 64, 77
1, 154591, Note_on_c, 0, 84, 80
1, 154602, Note_on_c, 0, 57, 60
1, 154605, Control_c, 0, 64, 60
1, 154606, Note_off_c, 0, 83, 64
1, 154620, Control_c, 0, 64, 0
1, 154635, Note_off_c, 0, 84, 66
1, 154636, Note_off_c, 0, 57, 64
1, 154680, Note_on_c, 0, 60, 67
1, 154723, Control_c, 0, 64, 31
1, 154738, Control_c, 0, 64, 58
1, 154745, Note_off_c, 0, 60, 54
1, 154753, Control_c, 0, 64, 67
1, 154765, Note_on_c, 0, 83, 84
1, 154768, Control_c, 0, 64, 74
1, 154769, Note_on_c, 0, 56, 65
1, 154783, Control_c, 0, 64, 85
1, 154797, Control_c, 0, 64, 100
1, 154812, Note_off_c, 0, 56, 56
1, 154812, Control_c, 0, 64, 127
1, 154850, Note_on_c, 0, 60, 68
1, 154902, Note_off_c, 0, 60, 58
1, 154936, Note_on_c, 0, 57, 57
1, 154945, Note_on_c, 0, 84, 78
1, 154955, Note_off_c, 0, 83, 63
1, 154969, Note_off_c, 0, 57, 65
1, 154986, Note_off_c, 0, 84, 65
1, 155005, Note_on_c, 0, 60, 72
1, 155028, Control_c, 0, 64, 115
1, 155038, Note_off_c, 0, 60, 68
1, 155043, Control_c, 0, 64, 89
1, 155058, Control_c, 0, 64, 72
1, 155073, Control_c, 0, 64, 51
1, 155088, Control_c, 0, 64, 0
1, 155245, Note_on_c, 0, 86, 56
1, 155256, Note_on_c, 0, 74, 43
1, 155324, Control_c, 0, 64, 37
1, 155339, Control_c, 0, 64, 57
1, 155354, Control_c, 0, 64, 63
1, 155369, Control_c, 0, 64, 64
1, 155384, Control_c, 0, 64, 65
1, 155398, Control_c, 0, 64, 67
1, 155413, Control_c, 0, 64, 71
1, 155428, Control_c, 0, 64, 77
1, 155443, Control_c, 0, 64, 86
1, 155452, Note_on_c, 0, 58, 45
1, 155458, Control_c, 0, 64, 94
1, 155473, Control_c, 0, 64, 103
1, 155488, Control_c, 0, 64, 111
1, 155502, Control_c, 0, 64, 127
1, 155591, Control_c, 0, 64, 119
1, 155606, Control_c, 0, 64, 104
1, 155620, Control_c, 0, 64, 100
1, 155643, Note_off_c, 0, 58, 43
1, 155644, Note_on_c, 0, 57, 43
1, 155651, Control_c, 0, 64, 103
1, 155666, Control_c, 0, 64, 118
1, 155679, Note_off_c, 0, 86, 65
1, 155681, Control_c, 0, 64, 127
1, 155717, Note_off_c, 0, 74, 63
1, 155830, Note_off_c, 0, 57, 54
1, 155840, Note_on_c, 0, 58, 44
1, 155873, Note_off_c, 0, 58, 63
1, 155999, Control_c, 0, 64, 104
1, 156014, Control_c, 0, 64, 84
1, 156027, Note_on_c, 0, 76, 64
1, 156029, Control_c, 0, 64, 69
1, 156044, Control_c, 0, 64, 48
1, 156045, Note_on_c, 0, 64, 47
1, 156058, Control_c, 0, 64, 0
1, 156103, Control_c, 0, 64, 34
1, 156118, Control_c, 0, 64, 50
1, 156132, Control_c, 0, 64, 60
1, 156147, Control_c, 0, 64, 66
1, 156162, Control_c, 0, 64, 72
1, 156176, Control_c, 0, 64, 80
1, 156191, Control_c, 0, 64, 93
1, 156206, Control_c, 0, 64, 113
1, 156219, Note_on_c, 0, 60, 48
1, 156221, Control_c, 0, 64, 127
1, 156393, Note_off_c, 0, 60, 58
1, 156399, Control_c, 0, 64, 114
1, 156403, Note_on_c, 0, 59, 50
1, 156410, Note_off_c, 0, 64, 54
1, 156414, Control_c, 0, 64, 93
1, 156429, Control_c, 0, 64, 81
1, 156445, Control_c, 0, 64, 78
1, 156460, Control_c, 0, 64, 80
1, 156474, Control_c, 0, 64, 86
1, 156489, Control_c, 0, 64, 96
1, 156504, Control_c, 0, 64, 117
1, 156526, Control_c, 0, 64, 127
1, 156607, Note_on_c, 0, 60, 45
1, 156623, Note_off_c, 0, 59, 45
1, 156664, Note_off_c, 0, 60, 61
1, 156763, Control_c, 0, 64, 93
1, 156778, Control_c, 0, 64, 77
1, 156794, Control_c, 0, 64, 63
1, 156794, Note_on_c, 0, 82, 72
1, 156808, Control_c, 0, 64, 0
1, 156818, Note_on_c, 0, 70, 46
1, 156829, Note_off_c, 0, 76, 63
1, 156868, Control_c, 0, 64, 34
1, 156882, Control_c, 0, 64, 58
1, 156897, Control_c, 0, 64, 66
1, 156912, Control_c, 0, 64, 72
1, 156926, Control_c, 0, 64, 79
1, 156941, Control_c, 0, 64, 88
1, 156956, Control_c, 0, 64, 101
1, 156971, Control_c, 0, 64, 127
1, 156990, Note_on_c, 0, 61, 41
1, 157133, Control_c, 0, 64, 108
1, 157148, Control_c, 0, 64, 90
1, 157163, Control_c, 0, 64, 81
1, 157178, Control_c, 0, 64, 79
1, 157181, Note_on_c, 0, 59, 39
1, 157193, Control_c, 0, 64, 81
1, 157199, Note_off_c, 0, 61, 39
1, 157208, Control_c, 0, 64, 88
1, 157223, Control_c, 0, 64, 101
1, 157238, Control_c, 0, 64, 127
1, 157345, Note_off_c, 0, 70, 60
1, 157359, Note_off_c, 0, 82, 55
1, 157375, Note_off_c, 0, 59, 52
1, 157393, Note_on_c, 0, 61, 39
1, 157431, Note_off_c, 0, 61, 53
1, 157527, Control_c, 0, 64, 106
1, 157542, Control_c, 0, 64, 89
1, 157556, Control_c, 0, 64, 76
1, 157569, Note_on_c, 0, 81, 53
1, 157571, Control_c, 0, 64, 62
1, 157586, Note_on_c, 0, 69, 43
1, 157586, Control_c, 0, 64, 37
1, 157601, Control_c, 0, 64, 0
1, 157630, Control_c, 0, 64, 32
1, 157645, Control_c, 0, 64, 54
1, 157660, Control_c, 0, 64, 65
1, 157675, Control_c, 0, 64, 70
1, 157690, Control_c, 0, 64, 78
1, 157704, Control_c, 0, 64, 88
1, 157719, Control_c, 0, 64, 100
1, 157734, Control_c, 0, 64, 123
1, 157748, Control_c, 0, 64, 127
1, 157759, Note_on_c, 0, 62, 41
1, 157911, Control_c, 0, 64, 125
1, 157926, Control_c, 0, 64, 94
1, 157941, Control_c, 0, 64, 82
1, 157947, Note_on_c, 0, 61, 47
1, 157951, Note_off_c, 0, 69, 61
1, 157956, Control_c, 0, 64, 82
1, 157971, Control_c, 0, 64, 86
1, 157977, Note_off_c, 0, 62, 34
1, 157986, Control_c, 0, 64, 97
1, 158001, Control_c, 0, 64, 127
1, 158098, Note_off_c, 0, 81, 61
1, 158154, Note_on_c, 0, 62, 42
1, 158203, Note_off_c, 0, 61, 28
1, 158241, Note_off_c, 0, 62, 55
1, 158305, Control_c, 0, 64, 100
1, 158320, Control_c, 0, 64, 83
1, 158335, Control_c, 0, 64, 68
1, 158339, Note_on_c, 0, 81, 56
1, 158350, Control_c, 0, 64, 52
1, 158364, Control_c, 0, 64, 0
1, 158409, Note_off_c, 0, 81, 64
1, 158429, Note_on_c, 0, 79, 66
1, 158517, Note_on_c, 0, 82, 70
1, 158526, Note_off_c, 0, 79, 58
1, 158602, Note_on_c, 0, 81, 71
1, 158622, Note_off_c, 0, 82, 56
1, 158680, Note_on_c, 0, 67, 42
1, 158687, Note_on_c, 0, 58, 46
1, 158692, Note_on_c, 0, 84, 74
1, 158695, Note_off_c, 0, 81, 64
1, 158780, Note_on_c, 0, 82, 71
1, 158804, Note_off_c, 0, 84, 63
1, 158807, Note_off_c, 0, 58, 61
1, 158859, Note_on_c, 0, 81, 75
1, 158878, Note_off_c, 0, 82, 62
1, 158914, Note_off_c, 0, 81, 65
1, 158946, Note_on_c, 0, 79, 73
1, 159039, Note_off_c, 0, 79, 60
1, 159042, Note_on_c, 0, 77, 71
1, 159042, Note_off_c, 0, 67, 44
1, 159047, Note_on_c, 0, 69, 45
1, 159058, Note_on_c, 0, 60, 41
1, 159433, Note_on_c, 0, 76, 63
1, 159442, Note_on_c, 0, 70, 43
1, 159467, Note_off_c, 0, 77, 56
1, 159483, Note_off_c, 0, 69, 59
1, 159483, Control_c, 0, 64, 26
1, 159498, Control_c, 0, 64, 58
1, 159520, Control_c, 0, 64, 69
1, 159535, Control_c, 0, 64, 81
1, 159550, Control_c, 0, 64, 103
1, 159561, Note_off_c, 0, 60, 57
1, 159563, Note_off_c, 0, 70, 60
1, 159565, Control_c, 0, 64, 127
1, 159743, Note_off_c, 0, 76, 57
1, 159833, Control_c, 0, 64, 103
1, 159845, Note_on_c, 0, 69, 54
1, 159848, Control_c, 0, 64, 81
1, 159851, Note_on_c, 0, 65, 45
1, 159863, Control_c, 0, 64, 67
1, 159878, Control_c, 0, 64, 42
1, 159893, Control_c, 0, 64, 0
1, 159966, Control_c, 0, 64, 45
1, 159981, Control_c, 0, 64, 60
1, 159996, Control_c, 0, 64, 66
1, 160011, Control_c, 0, 64, 71
1, 160025, Control_c, 0, 64, 80
1, 160040, Control_c, 0, 64, 94
1, 160049, Note_on_c, 0, 77, 55
1, 160055, Control_c, 0, 64, 115
1, 160070, Control_c, 0, 64, 127
1, 160189, Control_c, 0, 64, 99
1, 160204, Control_c, 0, 64, 86
1, 160218, Control_c, 0, 64, 81
1, 160225, Note_off_c, 0, 77, 54
1, 160233, Control_c, 0, 64, 82
1, 160244, Note_on_c, 0, 76, 50
1, 160248, Control_c, 0, 64, 87
1, 160250, Note_off_c, 0, 69, 62
1, 160270, Control_c, 0, 64, 98
1, 160283, Note_off_c, 0, 65, 37
1, 160285, Control_c, 0, 64, 118
1, 160299, Control_c, 0, 64, 127
1, 160433, Note_on_c, 0, 77, 58
1, 160443, Note_off_c, 0, 76, 54
1, 160543, Note_off_c, 0, 77, 56
1, 160627, Control_c, 0, 64, 101
1, 160627, Note_on_c, 0, 69, 74
1, 160638, Note_on_c, 0, 65, 58
1, 160642, Control_c, 0, 64, 81
1, 160656, Control_c, 0, 64, 65
1, 160671, Control_c, 0, 64, 18
1, 160686, Control_c, 0, 64, 0
1, 160730, Control_c, 0, 64, 42
1, 160745, Control_c, 0, 64, 60
1, 160760, Control_c, 0, 64, 66
1, 160774, Control_c, 0, 64, 72
1, 160789, Control_c, 0, 64, 79
1, 160804, Control_c, 0, 64, 92
1, 160809, Note_on_c, 0, 75, 70
1, 160819, Control_c, 0, 64, 117
1, 160834, Control_c, 0, 64, 127
1, 160982, Control_c, 0, 64, 98
1, 160997, Control_c, 0, 64, 83
1, 161000, Note_on_c, 0, 74, 70
1, 161003, Note_off_c, 0, 75, 56
1, 161005, Note_off_c, 0, 69, 65
1, 161011, Control_c, 0, 64, 82
1, 161034, Control_c, 0, 64, 86
1, 161044, Note_off_c, 0, 65, 62
1, 161048, Control_c, 0, 64, 98
1, 161063, Control_c, 0, 64, 127
1, 161185, Note_on_c, 0, 75, 73
1, 161199, Note_off_c, 0, 74, 62
1, 161289, Note_off_c, 0, 75, 61
1, 161360, Control_c, 0, 64, 114
1, 161375, Control_c, 0, 64, 89
1, 161381, Note_on_c, 0, 60, 83
1, 161389, Control_c, 0, 64, 73
1, 161392, Note_on_c, 0, 57, 63
1, 161401, Note_on_c, 0, 54, 56
1, 161404, Control_c, 0, 64, 58
1, 161419, Control_c, 0, 64, 0
1, 161560, Note_on_c, 0, 74, 73
1, 161744, Note_on_c, 0, 86, 73
1, 161753, Note_off_c, 0, 74, 63
1, 161790, Note_off_c, 0, 86, 65
1, 161933, Note_on_c, 0, 86, 69
1, 161974, Note_off_c, 0, 86, 68
1, 162075, Note_off_c, 0, 54, 56
1, 162127, Note_on_c, 0, 55, 46
1, 162133, Note_off_c, 0, 57, 56
1, 162141, Note_on_c, 0, 58, 46
1, 162188, Note_off_c, 0, 60, 62
1, 162322, Note_on_c, 0, 86, 54
1, 162487, Note_off_c, 0, 86, 50
1, 162499, Note_off_c, 0, 55, 61
1, 162501, Note_on_c, 0, 74, 52
1, 162536, Note_off_c, 0, 58, 60
1, 162549, Note_off_c, 0, 74, 63
1, 162706, Note_on_c, 0, 74, 56
1, 162728, Note_off_c, 0, 74, 64
1, 162885, Note_on_c, 0, 58, 61
1, 162892, Note_on_c, 0, 55, 43
1, 162897, Note_on_c, 0, 52, 49
1, 163071, Note_on_c, 0, 72, 66
1, 163254, Note_off_c, 0, 72, 60
1, 163265, Note_on_c, 0, 84, 61
1, 163296, Note_off_c, 0, 84, 67
1, 163448, Note_on_c, 0, 84, 66
1, 163475, Note_off_c, 0, 84, 69
1, 163646, Note_off_c, 0, 52, 35
1, 163649, Note_on_c, 0, 57, 52
1, 163659, Note_on_c, 0, 53, 46
1, 163685, Note_off_c, 0, 55, 49
1, 163688, Note_off_c, 0, 58, 33
1, 163820, Note_on_c, 0, 84, 55
1, 163975, Note_off_c, 0, 84, 62
1, 163998, Note_on_c, 0, 72, 64
1, 164034, Note_off_c, 0, 72, 67
1, 164183, Note_off_c, 0, 57, 61
1, 164192, Note_on_c, 0, 72, 63
1, 164205, Note_off_c, 0, 53, 65
1, 164223, Note_off_c, 0, 72, 68
1, 164380, Note_on_c, 0, 73, 63
1, 164565, Note_on_c, 0, 74, 74
1, 164584, Note_off_c, 0, 73, 61
1, 164739, Note_on_c, 0, 55, 48
1, 164748, Note_on_c, 0, 47, 48
1, 164754, Note_on_c, 0, 76, 86
1, 164790, Note_off_c, 0, 74, 65
1, 164944, Note_off_c, 0, 76, 62
1, 164946, Note_on_c, 0, 77, 81
1, 165090, Note_off_c, 0, 77, 57
1, 165099, Note_off_c, 0, 47, 62
1, 165101, Note_off_c, 0, 55, 58
1, 165129, Note_on_c, 0, 48, 49
1, 165137, Note_on_c, 0, 57, 43
1, 165138, Note_on_c, 0, 65, 68
1, 165262, Note_off_c, 0, 65, 56
1, 165307, Note_on_c, 0, 67, 55
1, 165339, Note_off_c, 0, 67, 64
1, 165356, Note_on_c, 0, 65, 72
1, 165382, Note_off_c, 0, 65, 68
1, 165401, Note_on_c, 0, 64, 59
1, 165446, Note_off_c, 0, 64, 60
1, 165455, Note_on_c, 0, 65, 67
1, 165505, Note_on_c, 0, 58, 51
1, 165513, Note_off_c, 0, 65, 61
1, 165516, Note_on_c, 0, 64, 51
1, 165516, Note_on_c, 0, 69, 66
1, 165548, Note_off_c, 0, 57, 46
1, 165621, Note_off_c, 0, 48, 55
1, 165627, Note_off_c, 0, 58, 60
1, 165638, Note_off_c, 0, 64, 38
1, 165661, Note_off_c, 0, 69, 59
1, 165709, Note_on_c, 0, 67, 67
1, 165737, Note_off_c, 0, 67, 67
1, 165851, Control_c, 0, 64, 41
1, 165866, Control_c, 0, 64, 60
1, 165880, Control_c, 0, 64, 68
1, 165886, Note_on_c, 0, 65, 64
1, 165895, Control_c, 0, 64, 77
1, 165898, Note_on_c, 0, 53, 47
1, 165907, Note_on_c, 0, 57, 42
1, 165910, Control_c, 0, 64, 90
1, 165916, Note_off_c, 0, 65, 65
1, 165925, Control_c, 0, 64, 105
1, 165937, Note_off_c, 0, 53, 65
1, 165940, Control_c, 0, 64, 127
1, 165951, Note_off_c, 0, 57, 64
1, 166363, Control_c, 0, 64, 111
1, 166378, Control_c, 0, 64, 95
1, 166392, Control_c, 0, 64, 81
1, 166407, Control_c, 0, 64, 66
1, 166422, Control_c, 0, 64, 49
1, 166437, Control_c, 0, 64, 0
1, 166450, Note_on_c, 0, 65, 60
1, 166499, Note_off_c, 0, 65, 55
1, 166526, Note_on_c, 0, 69, 62
1, 166592, Note_off_c, 0, 69, 63
1, 166605, Note_on_c, 0, 67, 65
1, 166630, Note_on_c, 0, 64, 37
1, 166693, Note_on_c, 0, 70, 71
1, 166699, Note_off_c, 0, 67, 58
1, 166756, Note_off_c, 0, 70, 62
1, 166763, Note_on_c, 0, 63, 57
1, 166765, Note_on_c, 0, 69, 69
1, 166777, Note_off_c, 0, 64, 57
1, 166784, Note_off_c, 0, 63, 63
1, 166831, Note_off_c, 0, 69, 62
1, 166848, Note_on_c, 0, 72, 73
1, 166883, Control_c, 0, 64, 18
1, 166898, Control_c, 0, 64, 54
1, 166902, Note_off_c, 0, 72, 59
1, 166913, Control_c, 0, 64, 65
1, 166927, Control_c, 0, 64, 71
1, 166939, Note_on_c, 0, 62, 52
1, 166942, Control_c, 0, 64, 81
1, 166946, Note_on_c, 0, 70, 67
1, 166947, Note_on_c, 0, 53, 40
1, 166957, Control_c, 0, 64, 95
1, 166971, Note_off_c, 0, 62, 64
1, 166972, Control_c, 0, 64, 114
1, 166973, Note_off_c, 0, 70, 68
1, 166980, Note_off_c, 0, 53, 55
1, 166987, Control_c, 0, 64, 127
1, 167135, Note_on_c, 0, 65, 69
1, 167142, Control_c, 0, 64, 101
1, 167157, Control_c, 0, 64, 85
1, 167172, Control_c, 0, 64, 69
1, 167187, Control_c, 0, 64, 51
1, 167202, Control_c, 0, 64, 0
1, 167222, Note_off_c, 0, 65, 58
1, 167224, Note_on_c, 0, 69, 74
1, 167301, Note_off_c, 0, 69, 62
1, 167312, Note_on_c, 0, 67, 77
1, 167313, Note_on_c, 0, 64, 67
1, 167397, Note_on_c, 0, 70, 86
1, 167424, Note_off_c, 0, 67, 59
1, 167477, Note_on_c, 0, 63, 64
1, 167477, Note_off_c, 0, 70, 62
1, 167479, Note_on_c, 0, 69, 85
1, 167493, Note_off_c, 0, 64, 61
1, 167512, Note_off_c, 0, 63, 65
1, 167555, Note_off_c, 0, 69, 66
1, 167564, Note_on_c, 0, 72, 80
1, 167616, Control_c, 0, 64, 24
1, 167632, Control_c, 0, 64, 55
1, 167635, Note_off_c, 0, 72, 58
1, 167647, Control_c, 0, 64, 68
1, 167655, Note_on_c, 0, 70, 71
1, 167659, Note_on_c, 0, 62, 61
1, 167662, Note_on_c, 0, 53, 50
1, 167662, Control_c, 0, 64, 78
1, 167677, Control_c, 0, 64, 94
1, 167680, Note_off_c, 0, 70, 69
1, 167691, Note_off_c, 0, 53, 63
1, 167691, Note_off_c, 0, 62, 64
1, 167692, Control_c, 0, 64, 127
1, 167832, Control_c, 0, 64, 113
1, 167847, Control_c, 0, 64, 86
1, 167853, Note_on_c, 0, 65, 65
1, 167862, Control_c, 0, 64, 70
1, 167877, Control_c, 0, 64, 46
1, 167891, Control_c, 0, 64, 0
1, 167930, Note_off_c, 0, 65, 58
1, 167942, Note_on_c, 0, 69, 63
1, 168011, Note_off_c, 0, 69, 58
1, 168032, Note_on_c, 0, 67, 65
1, 168035, Note_on_c, 0, 64, 48
1, 168114, Note_on_c, 0, 70, 72
1, 168122, Note_off_c, 0, 67, 58
1, 168181, Note_off_c, 0, 70, 63
1, 168182, Note_off_c, 0, 64, 53
1, 168189, Note_on_c, 0, 69, 78
1, 168190, Note_on_c, 0, 63, 52
1, 168216, Note_off_c, 0, 63, 62
1, 168276, Note_on_c, 0, 72, 73
1, 168305, Note_off_c, 0, 69, 56
1, 168362, Note_on_c, 0, 62, 65
1, 168367, Note_on_c, 0, 70, 76
1, 168392, Note_off_c, 0, 72, 57
1, 168397, Note_off_c, 0, 62, 64
1, 168449, Note_on_c, 0, 74, 74
1, 168451, Note_off_c, 0, 70, 64
1, 168511, Note_off_c, 0, 74, 63
1, 168539, Note_on_c, 0, 57, 76
1, 168541, Note_on_c, 0, 72, 78
1, 168574, Note_off_c, 0, 57, 64
1, 168613, Note_off_c, 0, 72, 60
1, 168628, Note_on_c, 0, 75, 77
1, 168681, Note_off_c, 0, 75, 62
1, 168699, Note_on_c, 0, 58, 77
1, 168707, Note_on_c, 0, 74, 83
1, 168733, Note_off_c, 0, 58, 63
1, 168771, Note_off_c, 0, 74, 60
1, 168790, Note_on_c, 0, 77, 83
1, 168871, Note_on_c, 0, 76, 94
1, 168872, Note_off_c, 0, 77, 62
1, 168875, Note_on_c, 0, 55, 70
1, 168900, Note_off_c, 0, 55, 65
1, 168947, Note_off_c, 0, 76, 58
1, 168956, Note_on_c, 0, 79, 88
1, 169049, Note_on_c, 0, 77, 85
1, 169051, Note_off_c, 0, 79, 61
1, 169055, Note_on_c, 0, 57, 81
1, 169140, Note_on_c, 0, 79, 84
1, 169161, Note_off_c, 0, 77, 58
1, 169221, Note_off_c, 0, 79, 60
1, 169226, Note_on_c, 0, 81, 81
1, 169317, Note_on_c, 0, 79, 83
1, 169344, Note_off_c, 0, 81, 65
1, 169395, Note_on_c, 0, 77, 78
1, 169426, Note_off_c, 0, 79, 62
1, 169429, Note_off_c, 0, 57, 63
1, 169484, Note_on_c, 0, 75, 83
1, 169489, Note_off_c, 0, 77, 64
1, 169546, Note_off_c, 0, 75, 64
1, 169561, Note_on_c, 0, 74, 82
1, 169638, Note_on_c, 0, 73, 87
1, 169655, Note_off_c, 0, 74, 58
1, 169719, Note_off_c, 0, 73, 63
1, 169728, Note_on_c, 0, 58, 73
1, 169737, Note_on_c, 0, 74, 75
1, 169790, Note_off_c, 0, 74, 63
1, 169819, Note_on_c, 0, 72, 81
1, 169898, Note_off_c, 0, 72, 60
1, 169903, Note_on_c, 0, 70, 74
1, 169980, Note_on_c, 0, 69, 83
1, 170017, Note_off_c, 0, 70, 60
1, 170058, Note_off_c, 0, 69, 65
1, 170071, Note_off_c, 0, 58, 61
1, 170079, Note_on_c, 0, 67, 83
1, 170158, Note_on_c, 0, 65, 88
1, 170184, Note_off_c, 0, 67, 54
1, 170238, Note_on_c, 0, 64, 82
1, 170251, Note_off_c, 0, 65, 61
1, 170316, Note_off_c, 0, 64, 63
1, 170319, Note_on_c, 0, 62, 87
1, 170374, Note_off_c, 0, 62, 64
1, 170398, Note_on_c, 0, 60, 75
1, 170404, Note_on_c, 0, 48, 70
1, 170494, Note_on_c, 0, 65, 77
1, 170566, Note_on_c, 0, 69, 83
1, 170583, Note_off_c, 0, 65, 62
1, 170585, Note_off_c, 0, 60, 58
1, 170590, Note_on_c, 0, 53, 50
1, 170647, Note_on_c, 0, 72, 84
1, 170670, Note_off_c, 0, 69, 65
1, 170726, Note_off_c, 0, 72, 65
1, 170728, Note_on_c, 0, 77, 85
1, 170733, Note_off_c, 0, 53, 64
1, 170741, Note_on_c, 0, 57, 58
1, 170772, Note_off_c, 0, 77, 63
1, 170902, Note_off_c, 0, 48, 61
1, 170911, Note_off_c, 0, 57, 63
1, 170918, Note_on_c, 0, 69, 83
1, 170928, Note_on_c, 0, 53, 55
1, 170941, Note_on_c, 0, 65, 52
1, 170960, Note_off_c, 0, 69, 66
1, 170966, Note_off_c, 0, 65, 57
1, 171079, Note_off_c, 0, 53, 59
1, 171102, Note_on_c, 0, 72, 77
1, 171114, Note_on_c, 0, 48, 49
1, 171122, Note_on_c, 0, 69, 53
1, 171269, Note_on_c, 0, 70, 75
1, 171272, Note_off_c, 0, 69, 62
1, 171272, Note_off_c, 0, 72, 60
1, 171283, Note_on_c, 0, 55, 53
1, 171296, Note_on_c, 0, 67, 49
1, 171313, Note_off_c, 0, 70, 63
1, 171319, Note_off_c, 0, 67, 58
1, 171432, Note_off_c, 0, 55, 61
1, 171455, Note_on_c, 0, 69, 71
1, 171459, Note_on_c, 0, 58, 54
1, 171463, Note_on_c, 0, 65, 56
1, 171481, Note_off_c, 0, 69, 71
1, 171488, Note_off_c, 0, 65, 58
1, 171625, Note_off_c, 0, 58, 50
1, 171639, Note_on_c, 0, 67, 70
1, 171641, Note_on_c, 0, 55, 58
1, 171659, Note_on_c, 0, 64, 36
1, 171666, Note_off_c, 0, 67, 67
1, 171673, Note_off_c, 0, 55, 64
1, 171690, Note_off_c, 0, 64, 53
1, 171698, Note_off_c, 0, 48, 32
1, 171768, Control_c, 0, 64, 46
1, 171783, Control_c, 0, 64, 61
1, 171797, Control_c, 0, 64, 67
1, 171812, Control_c, 0, 64, 73
1, 171825, Note_on_c, 0, 53, 59
1, 171826, Note_on_c, 0, 65, 67
1, 171827, Control_c, 0, 64, 82
1, 171842, Note_on_c, 0, 57, 46
1, 171842, Control_c, 0, 64, 92
1, 171851, Note_off_c, 0, 53, 65
1, 171854, Note_off_c, 0, 65, 63
1, 171857, Control_c, 0, 64, 101
1, 171871, Note_off_c, 0, 57, 54
1, 171871, Control_c, 0, 64, 109
1, 171886, Control_c, 0, 64, 116
1, 171901, Control_c, 0, 64, 127
1, 172020, Control_c, 0, 64, 108
1, 172027, Note_on_c, 0, 77, 63
1, 172035, Control_c, 0, 64, 92
1, 172050, Note_on_c, 0, 65, 43
1, 172050, Control_c, 0, 64, 79
1, 172065, Control_c, 0, 64, 68
1, 172079, Control_c, 0, 64, 56
1, 172094, Control_c, 0, 64, 13
1, 172105, Note_on_c, 0, 81, 69
1, 172106, Note_off_c, 0, 77, 62
1, 172109, Control_c, 0, 64, 0
1, 172184, Note_off_c, 0, 81, 63
1, 172196, Note_on_c, 0, 64, 55
1, 172197, Note_on_c, 0, 79, 74
1, 172208, Note_off_c, 0, 65, 52
1, 172285, Note_on_c, 0, 82, 79
1, 172300, Note_off_c, 0, 79, 58
1, 172331, Note_off_c, 0, 64, 55
1, 172348, Note_on_c, 0, 63, 60
1, 172363, Note_off_c, 0, 82, 63
1, 172365, Note_on_c, 0, 81, 83
1, 172383, Note_off_c, 0, 63, 65
1, 172439, Note_off_c, 0, 81, 64
1, 172452, Note_on_c, 0, 84, 80
1, 172502, Control_c, 0, 64, 47
1, 172518, Control_c, 0, 64, 62
1, 172525, Note_off_c, 0, 84, 56
1, 172533, Control_c, 0, 64, 68
1, 172541, Note_on_c, 0, 53, 53
1, 172541, Note_on_c, 0, 62, 58
1, 172544, Note_on_c, 0, 82, 75
1, 172547, Control_c, 0, 64, 75
1, 172562, Control_c, 0, 64, 85
1, 172568, Note_off_c, 0, 82, 68
1, 172573, Note_off_c, 0, 53, 67
1, 172573, Note_off_c, 0, 62, 65
1, 172577, Control_c, 0, 64, 97
1, 172592, Control_c, 0, 64, 109
1, 172607, Control_c, 0, 64, 127
1, 172710, Control_c, 0, 64, 106
1, 172725, Control_c, 0, 64, 87
1, 172732, Note_on_c, 0, 77, 66
1, 172740, Note_on_c, 0, 65, 56
1, 172740, Control_c, 0, 64, 71
1, 172754, Control_c, 0, 64, 54
1, 172769, Control_c, 0, 64, 0
1, 172809, Note_on_c, 0, 81, 76
1, 172820, Note_off_c, 0, 77, 61
1, 172884, Note_off_c, 0, 81, 63
1, 172897, Note_on_c, 0, 64, 64
1, 172899, Note_on_c, 0, 79, 86
1, 172918, Note_off_c, 0, 65, 56
1, 172986, Note_on_c, 0, 82, 86
1, 173003, Note_off_c, 0, 79, 61
1, 173033, Note_off_c, 0, 64, 58
1, 173060, Note_on_c, 0, 63, 69
1, 173072, Note_off_c, 0, 82, 63
1, 173073, Note_on_c, 0, 81, 87
1, 173095, Note_off_c, 0, 63, 61
1, 173153, Note_off_c, 0, 81, 64
1, 173159, Note_on_c, 0, 84, 84
1, 173206, Control_c, 0, 64, 39
1, 173222, Control_c, 0, 64, 58
1, 173230, Note_off_c, 0, 84, 57
1, 173237, Control_c, 0, 64, 64
1, 173245, Note_on_c, 0, 82, 78
1, 173251, Note_on_c, 0, 62, 57
1, 173252, Control_c, 0, 64, 71
1, 173259, Note_on_c, 0, 53, 52
1, 173266, Control_c, 0, 64, 79
1, 173274, Note_off_c, 0, 82, 62
1, 173281, Control_c, 0, 64, 90
1, 173289, Note_off_c, 0, 53, 59
1, 173289, Note_off_c, 0, 62, 63
1, 173296, Control_c, 0, 64, 100
1, 173311, Control_c, 0, 64, 110
1, 173326, Control_c, 0, 64, 120
1, 173340, Control_c, 0, 64, 127
1, 173415, Control_c, 0, 64, 109
1, 173430, Control_c, 0, 64, 92
1, 173437, Note_on_c, 0, 77, 70
1, 173442, Note_on_c, 0, 65, 55
1, 173444, Control_c, 0, 64, 73
1, 173459, Control_c, 0, 64, 59
1, 173474, Control_c, 0, 64, 0
1, 173512, Note_off_c, 0, 77, 61
1, 173515, Note_on_c, 0, 81, 74
1, 173587, Note_off_c, 0, 81, 62
1, 173598, Note_on_c, 0, 64, 64
1, 173606, Note_on_c, 0, 79, 82
1, 173627, Note_off_c, 0, 65, 54
1, 173683, Note_on_c, 0, 82, 79
1, 173694, Note_off_c, 0, 79, 60
1, 173735, Note_off_c, 0, 64, 55
1, 173768, Note_on_c, 0, 63, 66
1, 173770, Note_off_c, 0, 82, 62
1, 173771, Note_on_c, 0, 81, 84
1, 173797, Note_off_c, 0, 63, 67
1, 173853, Note_off_c, 0, 81, 64
1, 173856, Note_on_c, 0, 84, 81
1, 173937, Note_on_c, 0, 62, 72
1, 173946, Note_on_c, 0, 82, 89
1, 173952, Note_off_c, 0, 84, 64
1, 173972, Note_off_c, 0, 62, 63
1, 174004, Note_off_c, 0, 82, 64
1, 174035, Note_on_c, 0, 77, 73
1, 174104, Note_off_c, 0, 77, 53
1, 174111, Note_on_c, 0, 84, 78
1, 174115, Note_on_c, 0, 57, 65
1, 174145, Note_off_c, 0, 57, 65
1, 174165, Note_off_c, 0, 84, 65
1, 174201, Note_on_c, 0, 77, 72
1, 174265, Note_off_c, 0, 77, 57
1, 174278, Note_on_c, 0, 58, 68
1, 174283, Note_on_c, 0, 86, 85
1, 174309, Note_off_c, 0, 58, 64
1, 174333, Note_off_c, 0, 86, 66
1, 174373, Note_on_c, 0, 77, 74
1, 174442, Note_off_c, 0, 77, 59
1, 174443, Note_on_c, 0, 88, 86
1, 174445, Note_on_c, 0, 55, 72
1, 174474, Note_off_c, 0, 55, 64
1, 174501, Note_off_c, 0, 88, 68
1, 174552, Note_on_c, 0, 77, 62
1, 174618, Note_off_c, 0, 77, 61
1, 174642, Note_on_c, 0, 89, 86
1, 174651, Note_on_c, 0, 57, 57
1, 174661, Note_on_c, 0, 45, 50
1, 174727, Note_on_c, 0, 88, 84
1, 174742, Note_off_c, 0, 89, 61
1, 174817, Note_on_c, 0, 86, 85
1, 174822, Note_off_c, 0, 88, 67
1, 174867, Note_off_c, 0, 86, 64
1, 174898, Note_on_c, 0, 84, 79
1, 174978, Note_off_c, 0, 57, 62
1, 174984, Note_on_c, 0, 82, 87
1, 174989, Note_off_c, 0, 45, 59
1, 174992, Note_off_c, 0, 84, 63
1, 175060, Note_on_c, 0, 81, 81
1, 175087, Note_off_c, 0, 82, 62
1, 175147, Note_on_c, 0, 79, 83
1, 175151, Note_off_c, 0, 81, 67
1, 175198, Note_off_c, 0, 79, 62
1, 175224, Note_on_c, 0, 77, 82
1, 175310, Note_off_c, 0, 77, 60
1, 175322, Note_on_c, 0, 58, 63
1, 175324, Note_on_c, 0, 86, 88
1, 175330, Note_on_c, 0, 46, 61
1, 175412, Note_on_c, 0, 84, 84
1, 175436, Note_off_c, 0, 86, 65
1, 175495, Note_on_c, 0, 82, 88
1, 175520, Note_off_c, 0, 84, 64
1, 175574, Note_on_c, 0, 81, 70
1, 175594, Note_on_c, 0, 83, 41
1, 175612, Note_off_c, 0, 82, 60
1, 175624, Note_off_c, 0, 83, 33
1, 175631, Note_off_c, 0, 81, 67
1, 175634, Note_off_c, 0, 58, 58
1, 175647, Note_off_c, 0, 46, 61
1, 175661, Note_on_c, 0, 79, 81
1, 175741, Note_off_c, 0, 79, 0
1, 175746, Note_on_c, 0, 77, 76
1, 175755, Note_on_c, 0, 79, 62
1, 175784, Note_off_c, 0, 79, 55
1, 175821, Note_on_c, 0, 76, 88
1, 175841, Note_off_c, 0, 77, 61
1, 175913, Note_on_c, 0, 74, 83
1, 175913, Note_off_c, 0, 76, 63
1, 175967, Note_off_c, 0, 74, 66
1, 175998, Note_on_c, 0, 48, 49
1, 176002, Note_on_c, 0, 72, 87
1, 176071, Note_off_c, 0, 48, 61
1, 176095, Note_on_c, 0, 57, 55
1, 176146, Note_off_c, 0, 57, 58
1, 176177, Note_on_c, 0, 84, 82
1, 176178, Note_off_c, 0, 72, 56
1, 176180, Note_on_c, 0, 53, 54
1, 176214, Note_off_c, 0, 84, 65
1, 176220, Note_off_c, 0, 53, 62
1, 176256, Note_on_c, 0, 57, 61
1, 176305, Note_off_c, 0, 57, 57
1, 176345, Note_on_c, 0, 84, 79
1, 176356, Note_on_c, 0, 48, 53
1, 176365, Note_off_c, 0, 84, 70
1, 176389, Note_off_c, 0, 48, 64
1, 176428, Note_on_c, 0, 57, 57
1, 176488, Note_off_c, 0, 57, 57
1, 176511, Note_on_c, 0, 84, 81
1, 176520, Note_on_c, 0, 53, 61
1, 176531, Note_off_c, 0, 84, 70
1, 176553, Note_off_c, 0, 53, 67
1, 176605, Note_on_c, 0, 57, 54
1, 176667, Note_off_c, 0, 57, 55
1, 176693, Note_on_c, 0, 84, 75
1, 176712, Note_on_c, 0, 48, 50
1, 176762, Note_off_c, 0, 48, 63
1, 176777, Note_on_c, 0, 81, 74
1, 176784, Note_off_c, 0, 84, 58
1, 176798, Note_on_c, 0, 57, 55
1, 176844, Note_off_c, 0, 57, 60
1, 176863, Note_off_c, 0, 81, 64
1, 176864, Note_on_c, 0, 77, 69
1, 176886, Note_on_c, 0, 53, 52
1, 176921, Note_off_c, 0, 77, 61
1, 176921, Note_off_c, 0, 53, 66
1, 176941, Note_on_c, 0, 72, 78
1, 176960, Note_on_c, 0, 57, 67
1, 177002, Note_off_c, 0, 57, 63
1, 177009, Note_off_c, 0, 72, 58
1, 177033, Note_on_c, 0, 77, 75
1, 177050, Note_on_c, 0, 48, 61
1, 177077, Note_off_c, 0, 77, 64
1, 177090, Note_off_c, 0, 48, 63
1, 177108, Note_on_c, 0, 72, 80
1, 177117, Note_on_c, 0, 57, 67
1, 177152, Note_off_c, 0, 72, 63
1, 177159, Note_off_c, 0, 57, 61
1, 177197, Note_on_c, 0, 69, 81
1, 177201, Note_on_c, 0, 53, 60
1, 177237, Note_off_c, 0, 53, 65
1, 177238, Note_off_c, 0, 69, 66
1, 177275, Note_on_c, 0, 65, 79
1, 177279, Note_on_c, 0, 57, 57
1, 177319, Note_off_c, 0, 57, 64
1, 177323, Note_off_c, 0, 65, 57
1, 177374, Note_on_c, 0, 48, 50
1, 177374, Note_on_c, 0, 69, 73
1, 177403, Note_off_c, 0, 69, 67
1, 177436, Note_off_c, 0, 48, 57
1, 177452, Note_on_c, 0, 67, 63
1, 177461, Note_on_c, 0, 58, 56
1, 177481, Note_off_c, 0, 67, 61
1, 177505, Note_on_c, 0, 69, 76
1, 177508, Note_off_c, 0, 58, 63
1, 177534, Note_off_c, 0, 69, 67
1, 177535, Note_on_c, 0, 52, 62
1, 177563, Note_on_c, 0, 67, 73
1, 177573, Note_off_c, 0, 52, 62
1, 177611, Note_on_c, 0, 58, 60
1, 177612, Note_off_c, 0, 67, 57
1, 177630, Note_on_c, 0, 69, 62
1, 177657, Note_off_c, 0, 58, 60
1, 177657, Note_off_c, 0, 69, 66
1, 177675, Note_on_c, 0, 67, 65
1, 177707, Note_on_c, 0, 48, 57
1, 177716, Note_off_c, 0, 67, 56
1, 177724, Note_on_c, 0, 69, 72
1, 177749, Note_off_c, 0, 48, 62
1, 177756, Note_off_c, 0, 69, 64
1, 177781, Note_on_c, 0, 58, 56
1, 177785, Note_on_c, 0, 67, 69
1, 177825, Note_off_c, 0, 67, 61
1, 177829, Note_off_c, 0, 58, 56
1, 177846, Note_on_c, 0, 69, 66
1, 177872, Note_off_c, 0, 69, 70
1, 177877, Note_on_c, 0, 52, 56
1, 177897, Note_on_c, 0, 67, 73
1, 177914, Note_off_c, 0, 52, 65
1, 177935, Note_off_c, 0, 67, 55
1, 177951, Note_on_c, 0, 69, 71
1, 177952, Note_on_c, 0, 58, 57
1, 177979, Note_off_c, 0, 69, 69
1, 177991, Note_off_c, 0, 58, 62
1, 178011, Note_on_c, 0, 67, 68
1, 178047, Note_on_c, 0, 48, 61
1, 178050, Note_off_c, 0, 67, 52
1, 178062, Note_on_c, 0, 69, 74
1, 178083, Note_off_c, 0, 48, 63
1, 178089, Note_off_c, 0, 69, 69
1, 178119, Note_on_c, 0, 58, 69
1, 178119, Note_on_c, 0, 67, 77
1, 178155, Note_off_c, 0, 67, 56
1, 178170, Note_on_c, 0, 69, 70
1, 178186, Note_off_c, 0, 58, 57
1, 178199, Note_off_c, 0, 69, 67
1, 178211, Note_on_c, 0, 52, 72
1, 178223, Note_on_c, 0, 67, 77
1, 178257, Note_off_c, 0, 52, 63
1, 178271, Note_off_c, 0, 67, 58
1, 178284, Note_on_c, 0, 69, 72
1, 178303, Note_on_c, 0, 58, 70
1, 178310, Note_off_c, 0, 69, 69
1, 178334, Note_on_c, 0, 67, 71
1, 178352, Note_off_c, 0, 58, 60
1, 178377, Note_off_c, 0, 67, 61
1, 178384, Note_on_c, 0, 69, 76
1, 178398, Note_on_c, 0, 48, 66
1, 178411, Note_off_c, 0, 69, 66
1, 178439, Note_on_c, 0, 67, 73
1, 178444, Note_off_c, 0, 48, 63
1, 178466, Note_on_c, 0, 58, 76
1, 178487, Note_off_c, 0, 67, 62
1, 178499, Note_on_c, 0, 69, 66
1, 178514, Note_off_c, 0, 58, 61
1, 178529, Note_off_c, 0, 69, 68
1, 178538, Note_on_c, 0, 67, 72
1, 178551, Note_on_c, 0, 52, 68
1, 178585, Note_off_c, 0, 52, 63
1, 178588, Note_off_c, 0, 67, 55
1, 178602, Note_on_c, 0, 65, 73
1, 178670, Note_off_c, 0, 65, 59
1, 178676, Note_on_c, 0, 67, 77
1, 178733, Note_on_c, 0, 53, 56
1, 178737, Note_off_c, 0, 67, 61
1, 178744, Note_on_c, 0, 65, 79
1, 178766, Note_off_c, 0, 65, 69
1, 178870, Note_off_c, 0, 53, 66
1, 178936, Control_c, 0, 64, 27
1, 178951, Note_on_c, 0, 77, 67
1, 178951, Control_c, 0, 64, 56
1, 178959, Note_on_c, 0, 65, 54
1, 178966, Control_c, 0, 64, 63
1, 178988, Control_c, 0, 64, 64
1, 179003, Control_c, 0, 64, 66
1, 179014, Note_off_c, 0, 65, 0
1, 179018, Control_c, 0, 64, 70
1, 179033, Control_c, 0, 64, 76
1, 179047, Control_c, 0, 64, 82
1, 179051, Poly_aftertouch_c, 0, 65, 127
1, 179062, Control_c, 0, 64, 88
1, 179077, Control_c, 0, 64, 92
1, 179092, Control_c, 0, 64, 94
1, 179093, Poly_aftertouch_c, 0, 65, 0
1, 179107, Control_c, 0, 64, 96
1, 179121, Control_c, 0, 64, 98
1, 179125, Note_off_c, 0, 77, 57
1, 179136, Control_c, 0, 64, 98
1, 179144, Note_on_c, 0, 64, 45
1, 179151, Control_c, 0, 64, 99
1, 179240, Control_c, 0, 64, 98
1, 179255, Control_c, 0, 64, 96
1, 179270, Control_c, 0, 64, 94
1, 179285, Control_c, 0, 64, 91
1, 179300, Control_c, 0, 64, 88
1, 179314, Control_c, 0, 64, 85
1, 179315, Note_off_c, 0, 64, 42
1, 179319, Note_on_c, 0, 77, 68
1, 179329, Control_c, 0, 64, 82
1, 179331, Note_on_c, 0, 65, 47
1, 179344, Control_c, 0, 64, 78
1, 179359, Control_c, 0, 64, 74
1, 179374, Control_c, 0, 64, 71
1, 179389, Control_c, 0, 64, 68
1, 179404, Control_c, 0, 64, 66
1, 179419, Control_c, 0, 64, 64
1, 179433, Control_c, 0, 64, 60
1, 179448, Control_c, 0, 64, 55
1, 179463, Control_c, 0, 64, 50
1, 179478, Control_c, 0, 64, 44
1, 179493, Control_c, 0, 64, 34
1, 179496, Note_off_c, 0, 65, 55
1, 179498, Note_on_c, 0, 76, 77
1, 179508, Note_on_c, 0, 67, 49
1, 179508, Control_c, 0, 64, 19
1, 179522, Control_c, 0, 64, 0
1, 179536, Note_off_c, 0, 77, 60
1, 179681, Note_on_c, 0, 77, 81
1, 179681, Note_off_c, 0, 67, 62
1, 179702, Note_on_c, 0, 65, 53
1, 179718, Note_off_c, 0, 76, 59
1, 179864, Note_off_c, 0, 77, 61
1, 179869, Note_on_c, 0, 79, 80
1, 179875, Note_off_c, 0, 65, 59
1, 179883, Note_on_c, 0, 64, 54
1, 180040, Note_off_c, 0, 64, 60
1, 180041, Note_on_c, 0, 81, 89
1, 180052, Note_on_c, 0, 63, 57
1, 180073, Note_off_c, 0, 79, 62
1, 180220, Note_off_c, 0, 63, 62
1, 180235, Note_on_c, 0, 82, 79
1, 180246, Note_on_c, 0, 62, 49
1, 180256, Note_off_c, 0, 81, 60
1, 180329, Note_on_c, 0, 84, 75
1, 180343, Note_off_c, 0, 82, 63
1, 180403, Note_on_c, 0, 53, 50
1, 180406, Note_off_c, 0, 84, 64
1, 180411, Note_on_c, 0, 86, 76
1, 180419, Note_off_c, 0, 62, 38
1, 180501, Note_on_c, 0, 84, 79
1, 180528, Note_off_c, 0, 86, 62
1, 180578, Note_off_c, 0, 53, 53
1, 180581, Note_on_c, 0, 82, 82
1, 180598, Note_on_c, 0, 61, 50
1, 180614, Note_off_c, 0, 84, 61
1, 180669, Note_on_c, 0, 80, 79
1, 180688, Note_off_c, 0, 82, 61
1, 180726, Note_off_c, 0, 61, 61
1, 180734, Note_off_c, 0, 80, 64
1, 180751, Note_on_c, 0, 79, 84
1, 180766, Note_on_c, 0, 53, 40
1, 180836, Note_on_c, 0, 77, 84
1, 180855, Note_off_c, 0, 79, 59
1, 180909, Note_off_c, 0, 53, 61
1, 180920, Note_on_c, 0, 76, 94
1, 180925, Note_off_c, 0, 77, 64
1, 180934, Note_on_c, 0, 60, 54
1, 181008, Note_on_c, 0, 77, 88
1, 181014, Note_off_c, 0, 76, 63
1, 181065, Note_off_c, 0, 60, 58
1, 181082, Note_off_c, 0, 77, 62
1, 181086, Note_on_c, 0, 79, 84
1, 181101, Note_on_c, 0, 53, 44
1, 181175, Note_on_c, 0, 77, 81
1, 181195, Note_off_c, 0, 79, 57
1, 181249, Note_off_c, 0, 53, 62
1, 181264, Note_on_c, 0, 76, 82
1, 181274, Note_on_c, 0, 64, 45
1, 181282, Note_off_c, 0, 77, 60
1, 181317, Note_off_c, 0, 76, 62
1, 181347, Note_on_c, 0, 74, 74
1, 181377, Note_off_c, 0, 64, 52
1, 181433, Note_off_c, 0, 74, 56
1, 181434, Note_on_c, 0, 72, 77
1, 181446, Note_on_c, 0, 53, 39
1, 181506, Note_off_c, 0, 53, 59
1, 181513, Note_on_c, 0, 70, 76
1, 181515, Note_off_c, 0, 72, 61
1, 181579, Note_off_c, 0, 70, 63
1, 181597, Note_on_c, 0, 65, 42
1, 181598, Note_on_c, 0, 69, 75
1, 181624, Note_off_c, 0, 69, 70
1, 181624, Note_off_c, 0, 65, 55
1, 181795, Note_on_c, 0, 69, 68
1, 181809, Note_on_c, 0, 53, 50
1, 181840, Note_off_c, 0, 69, 66
1, 181857, Control_c, 0, 64, 24
1, 181872, Control_c, 0, 64, 40
1, 181887, Control_c, 0, 64, 52
1, 181902, Control_c, 0, 64, 56
1, 181931, Control_c, 0, 64, 57
1, 181983, Control_c, 0, 64, 56
1, 181985, Note_off_c, 0, 53, 59
1, 181998, Control_c, 0, 64, 55
1, 182000, Note_on_c, 0, 52, 41
1, 182014, Control_c, 0, 64, 51
1, 182029, Control_c, 0, 64, 48
1, 182044, Control_c, 0, 64, 44
1, 182059, Control_c, 0, 64, 39
1, 182073, Control_c, 0, 64, 29
1, 182088, Control_c, 0, 64, 18
1, 182103, Control_c, 0, 64, 0
1, 182159, Note_off_c, 0, 52, 60
1, 182170, Note_on_c, 0, 65, 57
1, 182186, Note_on_c, 0, 53, 45
1, 182335, Note_off_c, 0, 53, 60
1, 182352, Note_off_c, 0, 65, 58
1, 182353, Note_on_c, 0, 64, 61
1, 182367, Note_on_c, 0, 55, 46
1, 182510, Note_off_c, 0, 55, 58
1, 182535, Note_on_c, 0, 65, 70
1, 182536, Note_on_c, 0, 53, 44
1, 182550, Note_off_c, 0, 64, 58
1, 182693, Note_off_c, 0, 65, 61
1, 182703, Note_off_c, 0, 53, 63
1, 182715, Note_on_c, 0, 67, 68
1, 182731, Note_on_c, 0, 52, 54
1, 182837, Control_c, 0, 64, 8
1, 182852, Control_c, 0, 64, 15
1, 182867, Control_c, 0, 64, 22
1, 182881, Control_c, 0, 64, 26
1, 182900, Note_off_c, 0, 67, 61
1, 182903, Note_on_c, 0, 69, 68
1, 182906, Note_off_c, 0, 52, 54
1, 182911, Note_on_c, 0, 51, 56
1, 182951, Note_off_c, 0, 51, 61
1, 182955, Control_c, 0, 64, 19
1, 182970, Control_c, 0, 64, 0
1, 183082, Note_on_c, 0, 70, 69
1, 183083, Note_off_c, 0, 69, 60
1, 183088, Note_on_c, 0, 50, 68
1, 183103, Control_c, 0, 64, 36
1, 183118, Control_c, 0, 64, 57
1, 183128, Note_off_c, 0, 70, 62
1, 183133, Control_c, 0, 64, 65
1, 183148, Control_c, 0, 64, 71
1, 183163, Control_c, 0, 64, 77
1, 183177, Control_c, 0, 64, 81
1, 183192, Control_c, 0, 64, 83
1, 183207, Control_c, 0, 64, 83
1, 183216, Note_off_c, 0, 50, 65
1, 183222, Control_c, 0, 64, 84
1, 183237, Control_c, 0, 64, 85
1, 183252, Control_c, 0, 64, 85
1, 183267, Control_c, 0, 64, 86
1, 183271, Note_on_c, 0, 72, 61
1, 183303, Note_off_c, 0, 72, 67
1, 183313, Note_on_c, 0, 70, 74
1, 183350, Note_off_c, 0, 70, 60
1, 183355, Control_c, 0, 64, 85
1, 183360, Note_on_c, 0, 69, 75
1, 183370, Control_c, 0, 64, 84
1, 183385, Control_c, 0, 64, 81
1, 183400, Control_c, 0, 64, 75
1, 183405, Note_on_c, 0, 70, 69
1, 183414, Control_c, 0, 64, 66
1, 183419, Note_off_c, 0, 69, 60
1, 183429, Control_c, 0, 64, 47
1, 183442, Note_on_c, 0, 46, 62
1, 183443, Note_on_c, 0, 72, 75
1, 183444, Control_c, 0, 64, 0
1, 183465, Note_off_c, 0, 70, 63
1, 183606, Note_off_c, 0, 46, 64
1, 183637, Note_off_c, 0, 72, 61
1, 183643, Note_on_c, 0, 74, 74
1, 183672, Note_off_c, 0, 74, 64
1, 183838, Note_on_c, 0, 74, 71
1, 183845, Note_on_c, 0, 48, 56
1, 183853, Note_on_c, 0, 70, 53
1, 183867, Control_c, 0, 64, 21
1, 183882, Control_c, 0, 64, 48
1, 183897, Control_c, 0, 64, 55
1, 183911, Control_c, 0, 64, 55
1, 183926, Control_c, 0, 64, 56
1, 183941, Control_c, 0, 64, 60
1, 183956, Control_c, 0, 64, 64
1, 183971, Control_c, 0, 64, 67
1, 183985, Control_c, 0, 64, 68
1, 183996, Note_off_c, 0, 70, 59
1, 184011, Note_off_c, 0, 48, 63
1, 184034, Note_on_c, 0, 72, 69
1, 184045, Control_c, 0, 64, 67
1, 184049, Note_on_c, 0, 69, 49
1, 184060, Control_c, 0, 64, 65
1, 184063, Note_off_c, 0, 74, 61
1, 184075, Control_c, 0, 64, 61
1, 184090, Control_c, 0, 64, 55
1, 184104, Control_c, 0, 64, 48
1, 184119, Control_c, 0, 64, 34
1, 184134, Control_c, 0, 64, 0
1, 184136, Note_off_c, 0, 69, 60
1, 184146, Note_off_c, 0, 72, 63
1, 184248, Note_on_c, 0, 48, 48
1, 184388, Note_off_c, 0, 48, 62
1, 184445, Note_on_c, 0, 64, 66
1, 184460, Note_on_c, 0, 58, 39
1, 184544, Note_off_c, 0, 58, 53
1, 184719, Note_on_c, 0, 58, 45
1, 184723, Note_on_c, 0, 67, 62
1, 184736, Note_off_c, 0, 64, 57
1, 184738, Note_on_c, 0, 53, 35
1, 184853, Control_c, 0, 64, 50
1, 184868, Control_c, 0, 64, 63
1, 184872, Note_off_c, 0, 53, 56
1, 184883, Control_c, 0, 64, 69
1, 184897, Control_c, 0, 64, 76
1, 184912, Control_c, 0, 64, 84
1, 184927, Control_c, 0, 64, 94
1, 184942, Control_c, 0, 64, 104
1, 184957, Control_c, 0, 64, 113
1, 184972, Control_c, 0, 64, 127
1, 185186, Control_c, 0, 64, 98
1, 185194, Note_on_c, 0, 48, 43
1, 185201, Control_c, 0, 64, 80
1, 185217, Control_c, 0, 64, 67
1, 185231, Control_c, 0, 64, 47
1, 185247, Control_c, 0, 64, 36
1, 185262, Control_c, 0, 64, 47
1, 185276, Control_c, 0, 64, 61
1, 185291, Control_c, 0, 64, 68
1, 185306, Control_c, 0, 64, 77
1, 185321, Control_c, 0, 64, 88
1, 185336, Control_c, 0, 64, 100
1, 185341, Note_off_c, 0, 48, 55
1, 185351, Control_c, 0, 64, 110
1, 185365, Control_c, 0, 64, 122
1, 185376, Note_off_c, 0, 58, 30
1, 185380, Control_c, 0, 64, 127
1, 185802, Control_c, 0, 64, 105
1, 185817, Control_c, 0, 64, 91
1, 185823, Note_on_c, 0, 65, 43
1, 185825, Note_on_c, 0, 41, 37
1, 185832, Control_c, 0, 64, 81
1, 185847, Control_c, 0, 64, 73
1, 185854, Note_on_c, 0, 57, 34
1, 185862, Control_c, 0, 64, 64
1, 185866, Note_off_c, 0, 67, 45
1, 185877, Control_c, 0, 64, 47
1, 185891, Control_c, 0, 64, 0
1, 185995, Control_c, 0, 64, 45
1, 186011, Control_c, 0, 64, 61
1, 186026, Control_c, 0, 64, 67
1, 186040, Control_c, 0, 64, 73
1, 186055, Control_c, 0, 64, 81
1, 186070, Control_c, 0, 64, 88
1, 186085, Control_c, 0, 64, 93
1, 186100, Control_c, 0, 64, 99
1, 186114, Control_c, 0, 64, 105
1, 186129, Note_off_c, 0, 57, 42
1, 186129, Control_c, 0, 64, 114
1, 186144, Control_c, 0, 64, 127
1, 186150, Note_off_c, 0, 65, 35
1, 186174, Note_off_c, 0, 41, 34
1, 186507, Control_c, 0, 64, 121
1, 186522, Control_c, 0, 64, 112
1, 186537, Control_c, 0, 64, 106
1, 186552, Control_c, 0, 64, 101
1, 186567, Control_c, 0, 64, 95
1, 186581, Control_c, 0, 64, 91
1, 186596, Control_c, 0, 64, 87
1, 186611, Control_c, 0, 64, 83
1, 186625, Control_c, 0, 64, 79
1, 186640, Control_c, 0, 64, 75
1, 186655, Control_c, 0, 64, 71
1, 186670, Control_c, 0, 64, 68
1, 186685, Control_c, 0, 64, 65
1, 186700, Control_c, 0, 64, 62
1, 186714, Control_c, 0, 64, 60
1, 186729, Control_c, 0, 64, 57
1, 186743, Control_c, 0, 64, 52
1, 186758, Control_c, 0, 64, 43
1, 186772, Control_c, 0, 64, 24
1, 186787, Control_c, 0, 64, 0
1, 187030, Note_on_c, 0, 74, 50
1, 187107, Note_on_c, 0, 72, 60
1, 187139, Note_off_c, 0, 74, 62
1, 187192, Note_on_c, 0, 70, 69
1, 187206, Note_off_c, 0, 72, 62
1, 187262, Note_off_c, 0, 70, 62
1, 187273, Note_on_c, 0, 69, 73
1, 187378, Note_on_c, 0, 67, 71
1, 187386, Note_off_c, 0, 69, 57
1, 187561, Note_off_c, 0, 67, 60
1, 187562, Note_on_c, 0, 65, 69
1, 187565, Note_on_c, 0, 41, 41
1, 187591, Note_off_c, 0, 65, 65
1, 187755, Note_off_c, 0, 41, 48
1, 187765, Note_on_c, 0, 65, 59
1, 187774, Note_on_c, 0, 45, 38
1, 187910, Note_off_c, 0, 45, 53
1, 187923, Control_c, 0, 64, 18
1, 187938, Control_c, 0, 64, 35
1, 187941, Note_on_c, 0, 48, 35
1, 187952, Control_c, 0, 64, 45
1, 187967, Control_c, 0, 64, 54
1, 187989, Control_c, 0, 64, 60
1, 188004, Control_c, 0, 64, 62
1, 188018, Control_c, 0, 64, 63
1, 188033, Control_c, 0, 64, 64
1, 188048, Control_c, 0, 64, 65
1, 188063, Control_c, 0, 64, 67
1, 188078, Control_c, 0, 64, 69
1, 188093, Control_c, 0, 64, 71
1, 188108, Note_off_c, 0, 65, 53
1, 188123, Control_c, 0, 64, 71
1, 188131, Note_on_c, 0, 45, 31
1, 188137, Note_off_c, 0, 48, 40
1, 188138, Control_c, 0, 64, 72
1, 188152, Control_c, 0, 64, 73
1, 188255, Control_c, 0, 64, 72
1, 188270, Control_c, 0, 64, 71
1, 188284, Control_c, 0, 64, 70
1, 188299, Control_c, 0, 64, 69
1, 188314, Note_on_c, 0, 77, 56
1, 188314, Control_c, 0, 64, 68
1, 188322, Note_off_c, 0, 45, 47
1, 188329, Control_c, 0, 64, 65
1, 188336, Note_on_c, 0, 41, 38
1, 188343, Control_c, 0, 64, 62
1, 188358, Control_c, 0, 64, 58
1, 188373, Control_c, 0, 64, 53
1, 188388, Control_c, 0, 64, 47
1, 188404, Control_c, 0, 64, 30
1, 188418, Control_c, 0, 64, 0
1, 188501, Note_off_c, 0, 41, 51
1, 188502, Note_on_c, 0, 79, 78
1, 188527, Note_on_c, 0, 45, 30
1, 188553, Note_off_c, 0, 77, 60
1, 188686, Note_on_c, 0, 81, 75
1, 188698, Note_off_c, 0, 45, 46
1, 188704, Note_on_c, 0, 48, 38
1, 188709, Note_off_c, 0, 79, 61
1, 188745, Note_off_c, 0, 48, 57
1, 188812, Note_on_c, 0, 76, 57
1, 188867, Note_off_c, 0, 76, 60
1, 188898, Note_on_c, 0, 82, 68
1, 188922, Note_off_c, 0, 81, 46
1, 189096, Note_on_c, 0, 55, 40
1, 189181, Note_off_c, 0, 82, 61
1, 189199, Note_on_c, 0, 79, 56
1, 189265, Note_off_c, 0, 55, 56
1, 189283, Note_on_c, 0, 58, 43
1, 189291, Note_on_c, 0, 76, 51
1, 189306, Note_off_c, 0, 79, 57
1, 189432, Note_off_c, 0, 58, 50
1, 189495, Note_on_c, 0, 64, 31
1, 189530, Control_c, 0, 64, 15
1, 189545, Control_c, 0, 64, 20
1, 189560, Control_c, 0, 64, 24
1, 189575, Control_c, 0, 64, 30
1, 189589, Control_c, 0, 64, 37
1, 189604, Control_c, 0, 64, 43
1, 189611, Note_off_c, 0, 76, 56
1, 189619, Control_c, 0, 64, 45
1, 189664, Control_c, 0, 64, 45
1, 189676, Note_on_c, 0, 58, 35
1, 189679, Control_c, 0, 64, 46
1, 189694, Control_c, 0, 64, 47
1, 189709, Control_c, 0, 64, 47
1, 189768, Control_c, 0, 64, 47
1, 189772, Note_off_c, 0, 64, 41
1, 189782, Control_c, 0, 64, 47
1, 189827, Control_c, 0, 64, 47
1, 189842, Control_c, 0, 64, 48
1, 189852, Note_off_c, 0, 58, 42
1, 189854, Note_on_c, 0, 55, 39
1, 189901, Control_c, 0, 64, 47
1, 189916, Control_c, 0, 64, 47
1, 189930, Control_c, 0, 64, 46
1, 189945, Control_c, 0, 64, 46
1, 189974, Control_c, 0, 64, 45
1, 189989, Control_c, 0, 64, 43
1, 190006, Control_c, 0, 64, 40
1, 190020, Control_c, 0, 64, 39
1, 190045, Note_on_c, 0, 72, 65
1, 190063, Note_on_c, 0, 58, 41
1, 190079, Control_c, 0, 64, 38
1, 190088, Note_off_c, 0, 55, 52
1, 190134, Note_on_c, 0, 70, 76
1, 190138, Control_c, 0, 64, 38
1, 190153, Control_c, 0, 64, 36
1, 190160, Note_off_c, 0, 72, 57
1, 190168, Control_c, 0, 64, 36
1, 190209, Note_off_c, 0, 58, 56
1, 190228, Note_on_c, 0, 69, 75
1, 190262, Note_off_c, 0, 70, 64
1, 190263, Note_on_c, 0, 64, 40
1, 190265, Control_c, 0, 64, 35
1, 190279, Control_c, 0, 64, 34
1, 190294, Note_off_c, 0, 69, 66
1, 190301, Note_on_c, 0, 67, 85
1, 190305, Note_off_c, 0, 64, 64
1, 190309, Control_c, 0, 64, 32
1, 190324, Control_c, 0, 64, 30
1, 190383, Control_c, 0, 64, 30
1, 190397, Control_c, 0, 64, 26
1, 190400, Note_on_c, 0, 65, 83
1, 190412, Control_c, 0, 64, 20
1, 190424, Note_off_c, 0, 67, 59
1, 190427, Control_c, 0, 64, 15
1, 190442, Control_c, 0, 64, 0
1, 190583, Note_on_c, 0, 64, 75
1, 190596, Note_on_c, 0, 43, 57
1, 190596, Note_off_c, 0, 65, 63
1, 190621, Note_off_c, 0, 64, 66
1, 190791, Note_on_c, 0, 64, 62
1, 190796, Note_on_c, 0, 46, 47
1, 190796, Note_off_c, 0, 43, 58
1, 190961, Note_off_c, 0, 46, 58
1, 190996, Note_on_c, 0, 52, 35
1, 191113, Note_off_c, 0, 64, 63
1, 191117, Control_c, 0, 64, 10
1, 191132, Control_c, 0, 64, 16
1, 191183, Note_on_c, 0, 46, 34
1, 191191, Control_c, 0, 64, 17
1, 191223, Note_off_c, 0, 52, 44
1, 191324, Control_c, 0, 64, 16
1, 191369, Note_on_c, 0, 79, 59
1, 191378, Note_off_c, 0, 46, 49
1, 191401, Note_on_c, 0, 43, 42
1, 191540, Note_on_c, 0, 81, 72
1, 191551, Note_on_c, 0, 46, 33
1, 191570, Note_off_c, 0, 79, 60
1, 191602, Note_off_c, 0, 43, 38
1, 191651, Control_c, 0, 64, 13
1, 191666, Control_c, 0, 64, 10
1, 191681, Control_c, 0, 64, 0
1, 191729, Note_on_c, 0, 82, 81
1, 191752, Note_off_c, 0, 81, 64
1, 191755, Note_on_c, 0, 52, 38
1, 191761, Note_off_c, 0, 46, 50
1, 191795, Note_off_c, 0, 52, 63
1, 191878, Note_on_c, 0, 78, 71
1, 191891, Note_off_c, 0, 82, 49
1, 191923, Note_off_c, 0, 78, 62
1, 191925, Note_on_c, 0, 84, 72
1, 192111, Note_on_c, 0, 57, 37
1, 192210, Note_off_c, 0, 84, 62
1, 192211, Note_on_c, 0, 81, 59
1, 192293, Note_off_c, 0, 57, 58
1, 192308, Note_off_c, 0, 81, 64
1, 192311, Note_on_c, 0, 60, 40
1, 192312, Note_on_c, 0, 78, 56
1, 192457, Note_off_c, 0, 60, 60
1, 192487, Note_on_c, 0, 63, 47
1, 192560, Note_off_c, 0, 78, 63
1, 192669, Note_on_c, 0, 60, 48
1, 192705, Note_off_c, 0, 63, 35
1, 192858, Note_off_c, 0, 60, 59
1, 192859, Note_on_c, 0, 81, 73
1, 192872, Note_on_c, 0, 57, 50
1, 193033, Note_on_c, 0, 60, 53
1, 193036, Note_on_c, 0, 82, 89
1, 193043, Note_off_c, 0, 57, 58
1, 193088, Note_off_c, 0, 81, 60
1, 193218, Note_off_c, 0, 60, 64
1, 193224, Note_on_c, 0, 84, 85
1, 193227, Note_on_c, 0, 63, 58
1, 193236, Note_off_c, 0, 82, 65
1, 193294, Note_off_c, 0, 63, 60
1, 193345, Note_off_c, 0, 84, 59
1, 193351, Note_on_c, 0, 79, 65
1, 193417, Note_off_c, 0, 79, 60
1, 193418, Note_on_c, 0, 86, 83
1, 193643, Note_on_c, 0, 46, 43
1, 193727, Note_on_c, 0, 82, 71
1, 193730, Note_off_c, 0, 86, 59
1, 193817, Note_on_c, 0, 79, 60
1, 193819, Note_off_c, 0, 46, 51
1, 193821, Note_on_c, 0, 50, 45
1, 193834, Note_off_c, 0, 82, 56
1, 193923, Note_off_c, 0, 79, 59
1, 194022, Note_on_c, 0, 55, 35
1, 194025, Note_off_c, 0, 50, 58
1, 194103, Note_on_c, 0, 76, 61
1, 194166, Note_off_c, 0, 55, 60
1, 194181, Note_off_c, 0, 76, 56
1, 194213, Note_on_c, 0, 82, 70
1, 194405, Note_on_c, 0, 48, 43
1, 194466, Note_off_c, 0, 82, 63
1, 194486, Note_on_c, 0, 79, 57
1, 194552, Note_off_c, 0, 48, 62
1, 194576, Note_off_c, 0, 79, 55
1, 194577, Note_on_c, 0, 76, 59
1, 194582, Note_on_c, 0, 55, 43
1, 194718, Note_off_c, 0, 76, 62
1, 194742, Control_c, 0, 64, 8
1, 194757, Control_c, 0, 64, 10
1, 194760, Note_off_c, 0, 55, 46
1, 194771, Control_c, 0, 64, 12
1, 194773, Note_on_c, 0, 58, 42
1, 194787, Control_c, 0, 64, 13
1, 194847, Control_c, 0, 64, 12
1, 194861, Control_c, 0, 64, 0
1, 194879, Note_on_c, 0, 71, 61
1, 194897, Note_off_c, 0, 58, 62
1, 194942, Note_off_c, 0, 71, 58
1, 194970, Note_on_c, 0, 77, 49
1, 195170, Note_on_c, 0, 50, 42
1, 195238, Note_off_c, 0, 77, 60
1, 195264, Note_on_c, 0, 74, 50
1, 195318, Note_off_c, 0, 50, 58
1, 195350, Note_on_c, 0, 71, 52
1, 195351, Note_off_c, 0, 74, 54
1, 195367, Note_on_c, 0, 53, 38
1, 195506, Note_off_c, 0, 53, 58
1, 195549, Note_on_c, 0, 56, 35
1, 195701, Note_off_c, 0, 71, 60
1, 195738, Note_on_c, 0, 53, 40
1, 195760, Note_off_c, 0, 56, 43
1, 195909, Note_off_c, 0, 53, 61
1, 195914, Note_on_c, 0, 71, 72
1, 195936, Note_on_c, 0, 50, 47
1, 195938, Note_off_c, 0, 71, 71
1, 196097, Note_off_c, 0, 50, 65
1, 196106, Note_on_c, 0, 71, 76
1, 196111, Note_on_c, 0, 53, 55
1, 196130, Note_off_c, 0, 71, 71
1, 196293, Note_on_c, 0, 71, 86
1, 196303, Note_on_c, 0, 56, 58
1, 196308, Note_off_c, 0, 53, 64
1, 196314, Note_off_c, 0, 71, 70
1, 196343, Note_off_c, 0, 56, 60
1, 196500, Note_on_c, 0, 72, 78
1, 196505, Note_on_c, 0, 57, 62
1, 196506, Note_on_c, 0, 48, 62
1, 196585, Note_on_c, 0, 81, 73
1, 196586, Note_off_c, 0, 72, 62
1, 196675, Note_on_c, 0, 77, 81
1, 196690, Note_off_c, 0, 81, 57
1, 196752, Note_on_c, 0, 72, 79
1, 196763, Note_off_c, 0, 77, 61
1, 196813, Note_off_c, 0, 72, 64
1, 196840, Note_on_c, 0, 69, 80
1, 196921, Note_off_c, 0, 69, 62
1, 196922, Note_off_c, 0, 57, 62
1, 196930, Note_off_c, 0, 48, 62
1, 196931, Note_on_c, 0, 77, 86
1, 197022, Note_on_c, 0, 72, 73
1, 197036, Note_off_c, 0, 77, 59
1, 197076, Note_off_c, 0, 72, 63
1, 197101, Note_on_c, 0, 69, 84
1, 197140, Note_off_c, 0, 69, 68
1, 197200, Note_on_c, 0, 60, 71
1, 197206, Note_on_c, 0, 72, 82
1, 197215, Note_on_c, 0, 69, 75
1, 197373, Note_off_c, 0, 69, 60
1, 197376, Note_on_c, 0, 70, 85
1, 197381, Note_off_c, 0, 60, 58
1, 197381, Note_off_c, 0, 72, 63
1, 197390, Note_on_c, 0, 67, 72
1, 197415, Note_off_c, 0, 67, 67
1, 197423, Note_off_c, 0, 70, 64
1, 197563, Note_on_c, 0, 69, 83
1, 197568, Note_on_c, 0, 48, 66
1, 197569, Note_on_c, 0, 65, 80
1, 197590, Note_off_c, 0, 65, 69
1, 197600, Note_off_c, 0, 69, 67
1, 197630, Note_off_c, 0, 48, 63
1, 197759, Note_on_c, 0, 67, 85
1, 197772, Note_on_c, 0, 64, 64
1, 197784, Note_off_c, 0, 67, 65
1, 197790, Note_off_c, 0, 64, 65
1, 197959, Note_on_c, 0, 53, 76
1, 197960, Control_c, 0, 64, 45
1, 197963, Note_on_c, 0, 65, 83
1, 197975, Control_c, 0, 64, 60
1, 197991, Control_c, 0, 64, 57
1, 198006, Control_c, 0, 64, 36
1, 198020, Control_c, 0, 64, 0
1, 198037, Note_off_c, 0, 53, 62
1, 198050, Note_on_c, 0, 60, 66
1, 198130, Note_off_c, 0, 60, 62
1, 198135, Note_on_c, 0, 56, 66
1, 198168, Note_off_c, 0, 56, 62
1, 198220, Note_on_c, 0, 60, 63
1, 198277, Note_off_c, 0, 60, 60
1, 198309, Note_on_c, 0, 53, 78
1, 198351, Note_off_c, 0, 53, 62
1, 198395, Note_on_c, 0, 60, 71
1, 198403, Note_off_c, 0, 65, 63
1, 198478, Note_off_c, 0, 60, 60
1, 198497, Note_on_c, 0, 56, 73
1, 198538, Note_off_c, 0, 56, 62
1, 198586, Note_on_c, 0, 60, 64
1, 198665, Note_off_c, 0, 60, 56
1, 198689, Note_on_c, 0, 53, 49
1, 198748, Note_off_c, 0, 53, 63
1, 198753, Note_on_c, 0, 65, 60
1, 198784, Note_on_c, 0, 60, 57
1, 198844, Note_on_c, 0, 67, 67
1, 198847, Note_off_c, 0, 65, 59
1, 198860, Note_off_c, 0, 60, 62
1, 198885, Note_on_c, 0, 56, 51
1, 198918, Note_off_c, 0, 56, 63
1, 198936, Note_on_c, 0, 68, 71
1, 198952, Note_off_c, 0, 67, 61
1, 198957, Note_on_c, 0, 60, 65
1, 199006, Note_off_c, 0, 60, 59
1, 199022, Note_on_c, 0, 70, 77
1, 199038, Note_off_c, 0, 68, 65
1, 199045, Note_on_c, 0, 53, 64
1, 199074, Note_off_c, 0, 70, 64
1, 199084, Note_off_c, 0, 53, 65
1, 199104, Note_on_c, 0, 72, 81
1, 199119, Note_on_c, 0, 60, 73
1, 199191, Note_off_c, 0, 60, 60
1, 199194, Note_off_c, 0, 72, 42
1, 199195, Note_on_c, 0, 74, 87
1, 199203, Note_on_c, 0, 56, 77
1, 199262, Note_off_c, 0, 56, 59
1, 199283, Note_on_c, 0, 76, 95
1, 199295, Note_on_c, 0, 60, 76
1, 199307, Note_off_c, 0, 74, 61
1, 199357, Note_off_c, 0, 60, 62
1, 199375, Note_on_c, 0, 77, 86
1, 199385, Note_on_c, 0, 53, 73
1, 199394, Note_off_c, 0, 76, 62
1, 199422, Note_off_c, 0, 53, 64
1, 199435, Note_off_c, 0, 77, 64
1, 199462, Note_on_c, 0, 60, 70
1, 199469, Note_on_c, 0, 72, 82
1, 199530, Note_off_c, 0, 60, 60
1, 199554, Note_on_c, 0, 56, 65
1, 199556, Note_on_c, 0, 80, 81
1, 199564, Note_off_c, 0, 72, 56
1, 199592, Note_off_c, 0, 56, 61
1, 199637, Note_on_c, 0, 60, 68
1, 199644, Note_on_c, 0, 79, 81
1, 199656, Note_off_c, 0, 80, 63
1, 199692, Note_off_c, 0, 60, 60
1, 199728, Note_on_c, 0, 53, 65
1, 199728, Note_on_c, 0, 77, 82
1, 199729, Note_off_c, 0, 79, 62
1, 199764, Note_off_c, 0, 53, 64
1, 199786, Note_off_c, 0, 77, 63
1, 199811, Note_on_c, 0, 60, 67
1, 199816, Note_on_c, 0, 72, 83
1, 199888, Note_off_c, 0, 60, 62
1, 199900, Note_on_c, 0, 80, 82
1, 199906, Note_off_c, 0, 72, 62
1, 199914, Note_on_c, 0, 56, 61
1, 199958, Note_off_c, 0, 56, 62
1, 199989, Note_off_c, 0, 80, 55
1, 200002, Note_on_c, 0, 79, 75
1, 200007, Note_on_c, 0, 60, 67
1, 200052, Note_off_c, 0, 60, 62
1, 200065, Note_off_c, 0, 79, 61
1, 200081, Note_on_c, 0, 77, 71
1, 200097, Note_on_c, 0, 53, 52
1, 200134, Note_off_c, 0, 53, 66
1, 200143, Note_off_c, 0, 77, 61
1, 200167, Note_on_c, 0, 60, 60
1, 200179, Note_on_c, 0, 79, 75
1, 200226, Note_off_c, 0, 60, 58
1, 200248, Note_off_c, 0, 79, 61
1, 200253, Note_on_c, 0, 75, 74
1, 200254, Note_on_c, 0, 56, 66
1, 200297, Note_off_c, 0, 56, 58
1, 200324, Note_off_c, 0, 75, 60
1, 200332, Note_on_c, 0, 60, 66
1, 200337, Note_on_c, 0, 77, 81
1, 200389, Note_off_c, 0, 77, 62
1, 200399, Note_off_c, 0, 60, 62
1, 200422, Note_on_c, 0, 74, 81
1, 200431, Note_on_c, 0, 53, 65
1, 200473, Note_off_c, 0, 53, 64
1, 200489, Note_off_c, 0, 74, 54
1, 200498, Note_on_c, 0, 60, 70
1, 200502, Note_on_c, 0, 75, 84
1, 200564, Note_off_c, 0, 60, 62
1, 200567, Note_off_c, 0, 75, 62
1, 200583, Note_on_c, 0, 72, 90
1, 200585, Note_on_c, 0, 56, 78
1, 200639, Note_off_c, 0, 72, 63
1, 200640, Note_off_c, 0, 56, 61
1, 200666, Note_on_c, 0, 60, 77
1, 200668, Note_on_c, 0, 74, 82
1, 200726, Note_off_c, 0, 60, 64
1, 200752, Note_off_c, 0, 74, 64
1, 200765, Note_on_c, 0, 71, 89
1, 200771, Note_on_c, 0, 55, 70
1, 200787, Note_off_c, 0, 71, 69
1, 200836, Note_off_c, 0, 55, 59
1, 200862, Note_on_c, 0, 65, 66
1, 200936, Note_off_c, 0, 65, 58
1, 200958, Note_on_c, 0, 62, 55
1, 200966, Note_on_c, 0, 89, 82
1, 201001, Note_off_c, 0, 62, 61
1, 201062, Note_on_c, 0, 65, 50
1, 201100, Note_off_c, 0, 65, 58
1, 201141, Note_on_c, 0, 55, 52
1, 201180, Note_off_c, 0, 55, 63
1, 201229, Note_on_c, 0, 65, 52
1, 201295, Note_off_c, 0, 65, 54
1, 201327, Note_on_c, 0, 62, 54
1, 201330, Note_on_c, 0, 87, 77
1, 201366, Note_off_c, 0, 89, 62
1, 201367, Note_off_c, 0, 62, 63
1, 201409, Note_on_c, 0, 65, 61
1, 201473, Note_off_c, 0, 65, 57
1, 201512, Note_on_c, 0, 55, 67
1, 201555, Note_off_c, 0, 55, 59
1, 201591, Note_on_c, 0, 65, 69
1, 201653, Note_off_c, 0, 65, 59
1, 201680, Note_on_c, 0, 62, 70
1, 201686, Note_on_c, 0, 86, 79
1, 201725, Note_off_c, 0, 62, 58
1, 201728, Note_off_c, 0, 87, 58
1, 201768, Note_on_c, 0, 65, 71
1, 201817, Note_off_c, 0, 65, 57
1, 201856, Note_on_c, 0, 55, 72
1, 201901, Note_off_c, 0, 55, 63
1, 201947, Note_on_c, 0, 65, 73
1, 202013, Note_off_c, 0, 65, 60
1, 202019, Note_on_c, 0, 84, 80
1, 202038, Note_on_c, 0, 62, 74
1, 202050, Note_off_c, 0, 86, 64
1, 202077, Note_off_c, 0, 62, 59
1, 202121, Note_on_c, 0, 65, 78
1, 202172, Note_off_c, 0, 65, 60
1, 202214, Note_on_c, 0, 55, 71
1, 202251, Note_off_c, 0, 55, 61
1, 202298, Note_on_c, 0, 65, 75
1, 202363, Note_off_c, 0, 65, 59
1, 202380, Note_on_c, 0, 83, 86
1, 202383, Note_on_c, 0, 62, 75
1, 202420, Note_off_c, 0, 84, 59
1, 202431, Note_off_c, 0, 62, 58
1, 202471, Note_on_c, 0, 65, 75
1, 202526, Note_off_c, 0, 65, 59
1, 202560, Note_on_c, 0, 55, 72
1, 202601, Note_off_c, 0, 55, 61
1, 202640, Note_on_c, 0, 65, 74
1, 202702, Note_off_c, 0, 65, 60
1, 202730, Note_on_c, 0, 62, 69
1, 202731, Note_on_c, 0, 80, 82
1, 202765, Note_off_c, 0, 83, 63
1, 202768, Note_off_c, 0, 62, 61
1, 202816, Note_on_c, 0, 65, 70
1, 202860, Note_off_c, 0, 65, 60
1, 202911, Note_on_c, 0, 55, 62
1, 202982, Note_off_c, 0, 55, 56
1, 203013, Note_on_c, 0, 62, 58
1, 203069, Note_off_c, 0, 62, 56
1, 203102, Note_on_c, 0, 59, 58
1, 203104, Note_on_c, 0, 79, 71
1, 203114, Note_off_c, 0, 80, 62
1, 203150, Note_off_c, 0, 59, 59
1, 203201, Note_on_c, 0, 62, 51
1, 203245, Note_off_c, 0, 62, 60
1, 203285, Note_on_c, 0, 55, 58
1, 203328, Note_off_c, 0, 55, 60
1, 203371, Note_on_c, 0, 62, 54
1, 203412, Note_off_c, 0, 62, 63
1, 203449, Note_on_c, 0, 77, 75
1, 203455, Note_on_c, 0, 59, 54
1, 203472, Note_off_c, 0, 79, 56
1, 203490, Note_off_c, 0, 77, 62
1, 203494, Note_off_c, 0, 59, 63
1, 203534, Note_on_c, 0, 62, 58
1, 203582, Note_off_c, 0, 62, 59
1, 203623, Note_on_c, 0, 77, 63
1, 203635, Note_on_c, 0, 55, 51
1, 203661, Control_c, 0, 64, 8
1, 203676, Control_c, 0, 64, 12
1, 203689, Note_off_c, 0, 55, 57
1, 203713, Control_c, 0, 64, 13
1, 203728, Control_c, 0, 64, 15
1, 203731, Note_on_c, 0, 64, 53
1, 203743, Control_c, 0, 64, 16
1, 203768, Note_off_c, 0, 64, 66
1, 203787, Control_c, 0, 64, 18
1, 203802, Control_c, 0, 64, 20
1, 203806, Note_off_c, 0, 77, 63
1, 203814, Note_on_c, 0, 76, 72
1, 203817, Control_c, 0, 64, 21
1, 203821, Note_on_c, 0, 60, 29
1, 203855, Note_off_c, 0, 60, 55
1, 203875, Note_on_c, 0, 64, 51
1, 203905, Control_c, 0, 64, 20
1, 203920, Control_c, 0, 64, 18
1, 203938, Note_off_c, 0, 64, 55
1, 203983, Note_on_c, 0, 55, 49
1, 203995, Note_on_c, 0, 75, 65
1, 204008, Note_off_c, 0, 76, 54
1, 204023, Control_c, 0, 64, 20
1, 204038, Control_c, 0, 64, 21
1, 204053, Control_c, 0, 64, 22
1, 204065, Note_off_c, 0, 55, 46
1, 204068, Control_c, 0, 64, 26
1, 204083, Control_c, 0, 64, 33
1, 204091, Note_on_c, 0, 63, 47
1, 204097, Control_c, 0, 64, 40
1, 204112, Control_c, 0, 64, 49
1, 204127, Control_c, 0, 64, 56
1, 204140, Note_off_c, 0, 63, 62
1, 204142, Control_c, 0, 64, 60
1, 204157, Control_c, 0, 64, 61
1, 204172, Control_c, 0, 64, 62
1, 204172, Note_on_c, 0, 60, 47
1, 204187, Control_c, 0, 64, 64
1, 204202, Control_c, 0, 64, 65
1, 204216, Control_c, 0, 64, 66
1, 204229, Note_off_c, 0, 60, 60
1, 204231, Control_c, 0, 64, 67
1, 204246, Control_c, 0, 64, 67
1, 204255, Note_on_c, 0, 63, 57
1, 204261, Control_c, 0, 64, 68
1, 204276, Control_c, 0, 64, 69
1, 204291, Note_off_c, 0, 75, 56
1, 204300, Note_off_c, 0, 63, 60
1, 204355, Note_on_c, 0, 55, 51
1, 204380, Control_c, 0, 64, 68
1, 204395, Control_c, 0, 64, 68
1, 204407, Note_off_c, 0, 55, 59
1, 204410, Control_c, 0, 64, 67
1, 204425, Control_c, 0, 64, 66
1, 204428, Note_on_c, 0, 75, 58
1, 204438, Note_on_c, 0, 63, 54
1, 204440, Control_c, 0, 64, 64
1, 204461, Control_c, 0, 64, 63
1, 204476, Control_c, 0, 64, 62
1, 204491, Control_c, 0, 64, 60
1, 204498, Note_off_c, 0, 63, 57
1, 204506, Control_c, 0, 64, 57
1, 204521, Control_c, 0, 64, 53
1, 204524, Note_off_c, 0, 75, 62
1, 204536, Control_c, 0, 64, 47
1, 204537, Note_on_c, 0, 60, 57
1, 204545, Note_on_c, 0, 74, 66
1, 204551, Control_c, 0, 64, 44
1, 204565, Control_c, 0, 64, 41
1, 204578, Note_off_c, 0, 60, 63
1, 204580, Control_c, 0, 64, 38
1, 204595, Control_c, 0, 64, 35
1, 204610, Control_c, 0, 64, 32
1, 204614, Note_on_c, 0, 63, 62
1, 204624, Note_on_c, 0, 75, 72
1, 204625, Control_c, 0, 64, 29
1, 204636, Note_off_c, 0, 74, 54
1, 204640, Control_c, 0, 64, 24
1, 204654, Control_c, 0, 64, 16
1, 204669, Control_c, 0, 64, 0
1, 204674, Note_off_c, 0, 63, 60
1, 204709, Note_on_c, 0, 77, 79
1, 204712, Note_on_c, 0, 55, 57
1, 204712, Note_off_c, 0, 75, 61
1, 204773, Control_c, 0, 64, 10
1, 204790, Note_on_c, 0, 75, 80
1, 204792, Note_on_c, 0, 63, 64
1, 204798, Note_off_c, 0, 55, 53
1, 204801, Note_off_c, 0, 77, 62
1, 204803, Control_c, 0, 64, 12
1, 204818, Control_c, 0, 64, 15
1, 204833, Control_c, 0, 64, 18
1, 204836, Note_off_c, 0, 63, 60
1, 204847, Control_c, 0, 64, 20
1, 204870, Note_off_c, 0, 75, 63
1, 204874, Note_on_c, 0, 60, 61
1, 204878, Note_on_c, 0, 74, 81
1, 204906, Control_c, 0, 64, 19
1, 204915, Note_off_c, 0, 60, 61
1, 204936, Control_c, 0, 64, 16
1, 204951, Control_c, 0, 64, 8
1, 204961, Note_on_c, 0, 63, 54
1, 204963, Note_on_c, 0, 75, 79
1, 204965, Note_off_c, 0, 74, 64
1, 204966, Control_c, 0, 64, 0
1, 205022, Note_off_c, 0, 63, 53
1, 205047, Note_off_c, 0, 75, 62
1, 205054, Control_c, 0, 64, 12
1, 205057, Note_on_c, 0, 78, 72
1, 205069, Note_on_c, 0, 54, 49
1, 205069, Control_c, 0, 64, 17
1, 205084, Control_c, 0, 64, 20
1, 205099, Control_c, 0, 64, 22
1, 205114, Control_c, 0, 64, 27
1, 205129, Control_c, 0, 64, 31
1, 205144, Control_c, 0, 64, 34
1, 205159, Control_c, 0, 64, 37
1, 205166, Note_on_c, 0, 63, 39
1, 205169, Note_off_c, 0, 54, 59
1, 205174, Control_c, 0, 64, 38
1, 205196, Control_c, 0, 64, 40
1, 205211, Control_c, 0, 64, 42
1, 205219, Note_off_c, 0, 63, 61
1, 205226, Control_c, 0, 64, 45
1, 205241, Control_c, 0, 64, 46
1, 205248, Note_on_c, 0, 58, 55
1, 205285, Control_c, 0, 64, 47
1, 205293, Note_off_c, 0, 58, 61
1, 205300, Control_c, 0, 64, 48
1, 205315, Control_c, 0, 64, 47
1, 205329, Note_off_c, 0, 78, 59
1, 205329, Control_c, 0, 64, 47
1, 205338, Note_on_c, 0, 63, 52
1, 205344, Control_c, 0, 64, 46
1, 205356, Note_on_c, 0, 75, 59
1, 205359, Control_c, 0, 64, 46
1, 205389, Control_c, 0, 64, 45
1, 205391, Note_off_c, 0, 63, 57
1, 205403, Control_c, 0, 64, 44
1, 205408, Note_off_c, 0, 75, 59
1, 205418, Control_c, 0, 64, 43
1, 205437, Note_on_c, 0, 77, 68
1, 205443, Note_on_c, 0, 54, 47
1, 205448, Control_c, 0, 64, 43
1, 205478, Control_c, 0, 64, 42
1, 205486, Note_off_c, 0, 77, 64
1, 205493, Control_c, 0, 64, 42
1, 205493, Note_off_c, 0, 54, 61
1, 205498, Note_on_c, 0, 75, 72
1, 205507, Note_on_c, 0, 63, 59
1, 205560, Note_on_c, 0, 77, 65
1, 205561, Note_off_c, 0, 63, 60
1, 205567, Control_c, 0, 64, 42
1, 205582, Control_c, 0, 64, 43
1, 205588, Note_off_c, 0, 75, 0
1, 205592, Note_on_c, 0, 58, 59
1, 205606, Note_on_c, 0, 75, 38
1, 205611, Control_c, 0, 64, 44
1, 205618, Note_off_c, 0, 77, 63
1, 205626, Control_c, 0, 64, 44
1, 205636, Note_off_c, 0, 58, 61
1, 205641, Control_c, 0, 64, 45
1, 205651, Note_off_c, 0, 75, 64
1, 205670, Control_c, 0, 64, 44
1, 205679, Note_on_c, 0, 74, 51
1, 205685, Control_c, 0, 64, 44
1, 205688, Note_on_c, 0, 63, 49
1, 205710, Note_off_c, 0, 74, 52
1, 205729, Control_c, 0, 64, 43
1, 205731, Note_on_c, 0, 75, 59
1, 205734, Note_off_c, 0, 63, 61
1, 205744, Control_c, 0, 64, 42
1, 205759, Control_c, 0, 64, 40
1, 205774, Control_c, 0, 64, 39
1, 205792, Note_on_c, 0, 54, 48
1, 205799, Note_off_c, 0, 75, 63
1, 205813, Note_on_c, 0, 82, 71
1, 205818, Control_c, 0, 64, 38
1, 205833, Control_c, 0, 64, 38
1, 205863, Control_c, 0, 64, 41
1, 205877, Control_c, 0, 64, 44
1, 205878, Note_off_c, 0, 54, 57
1, 205892, Control_c, 0, 64, 44
1, 205898, Note_on_c, 0, 63, 37
1, 205922, Control_c, 0, 64, 45
1, 205937, Control_c, 0, 64, 47
1, 205956, Note_off_c, 0, 63, 61
1, 205959, Control_c, 0, 64, 48
1, 205981, Note_on_c, 0, 58, 53
1, 206025, Note_off_c, 0, 58, 63
1, 206048, Note_off_c, 0, 82, 61
1, 206064, Control_c, 0, 64, 47
1, 206071, Note_on_c, 0, 63, 51
1, 206079, Control_c, 0, 64, 47
1, 206080, Note_on_c, 0, 75, 61
1, 206108, Control_c, 0, 64, 46
1, 206112, Note_off_c, 0, 63, 64
1, 206123, Control_c, 0, 64, 46
1, 206130, Note_off_c, 0, 75, 61
1, 206138, Control_c, 0, 64, 45
1, 206152, Control_c, 0, 64, 45
1, 206159, Note_on_c, 0, 77, 67
1, 206162, Note_on_c, 0, 54, 51
1, 206197, Control_c, 0, 64, 44
1, 206199, Note_off_c, 0, 77, 60
1, 206202, Note_off_c, 0, 54, 63
1, 206211, Note_on_c, 0, 75, 72
1, 206220, Note_on_c, 0, 63, 60
1, 206241, Control_c, 0, 64, 45
1, 206244, Note_off_c, 0, 75, 61
1, 206259, Note_off_c, 0, 63, 64
1, 206261, Note_on_c, 0, 77, 77
1, 206291, Note_on_c, 0, 58, 64
1, 206303, Note_off_c, 0, 77, 65
1, 206303, Note_on_c, 0, 75, 72
1, 206330, Note_off_c, 0, 58, 63
1, 206339, Note_off_c, 0, 75, 64
1, 206345, Control_c, 0, 64, 44
1, 206357, Note_on_c, 0, 74, 79
1, 206360, Control_c, 0, 64, 43
1, 206372, Note_on_c, 0, 63, 60
1, 206375, Control_c, 0, 64, 40
1, 206390, Control_c, 0, 64, 34
1, 206402, Note_on_c, 0, 75, 69
1, 206405, Control_c, 0, 64, 23
1, 206411, Note_off_c, 0, 74, 59
1, 206419, Control_c, 0, 64, 0
1, 206446, Note_off_c, 0, 63, 62
1, 206463, Note_on_c, 0, 81, 87
1, 206473, Note_off_c, 0, 75, 63
1, 206490, Note_on_c, 0, 53, 48
1, 206492, Note_off_c, 0, 81, 69
1, 206546, Note_off_c, 0, 53, 61
1, 206572, Note_on_c, 0, 63, 50
1, 206621, Note_off_c, 0, 63, 61
1, 206636, Note_on_c, 0, 84, 88
1, 206650, Note_on_c, 0, 60, 52
1, 206669, Note_off_c, 0, 84, 66
1, 206700, Note_off_c, 0, 60, 65
1, 206752, Note_on_c, 0, 63, 43
1, 206840, Note_off_c, 0, 63, 60
1, 206870, Note_on_c, 0, 53, 52
1, 206876, Note_on_c, 0, 87, 80
1, 206927, Poly_aftertouch_c, 0, 90, 0
1, 206948, Note_off_c, 0, 53, 52
1, 206975, Note_on_c, 0, 63, 50
1, 207027, Note_off_c, 0, 63, 60
1, 207066, Note_on_c, 0, 60, 43
1, 207103, Note_off_c, 0, 60, 60
1, 207149, Note_on_c, 0, 63, 54
1, 207191, Note_off_c, 0, 63, 62
1, 207247, Note_on_c, 0, 53, 49
1, 207293, Note_off_c, 0, 53, 63
1, 207329, Note_on_c, 0, 63, 54
1, 207330, Note_off_c, 0, 87, 61
1, 207337, Note_on_c, 0, 89, 71
1, 207373, Note_off_c, 0, 63, 62
1, 207412, Note_on_c, 0, 60, 56
1, 207422, Note_on_c, 0, 86, 65
1, 207435, Note_off_c, 0, 89, 59
1, 207464, Note_off_c, 0, 60, 63
1, 207496, Note_on_c, 0, 63, 67
1, 207527, Note_on_c, 0, 87, 74
1, 207528, Note_off_c, 0, 86, 63
1, 207541, Note_off_c, 0, 63, 57
1, 207602, Note_on_c, 0, 53, 50
1, 207602, Note_off_c, 0, 87, 63
1, 207615, Note_on_c, 0, 84, 72
1, 207647, Note_off_c, 0, 53, 63
1, 207666, Control_c, 0, 64, 8
1, 207680, Control_c, 0, 64, 10
1, 207687, Note_on_c, 0, 63, 61
1, 207695, Control_c, 0, 64, 13
1, 207698, Note_on_c, 0, 86, 79
1, 207701, Note_off_c, 0, 84, 60
1, 207710, Control_c, 0, 64, 18
1, 207724, Control_c, 0, 64, 20
1, 207734, Note_off_c, 0, 63, 59
1, 207739, Control_c, 0, 64, 21
1, 207754, Control_c, 0, 64, 22
1, 207769, Control_c, 0, 64, 23
1, 207776, Note_on_c, 0, 60, 61
1, 207779, Note_on_c, 0, 82, 79
1, 207784, Control_c, 0, 64, 24
1, 207789, Note_off_c, 0, 86, 62
1, 207798, Control_c, 0, 64, 24
1, 207822, Note_off_c, 0, 60, 60
1, 207856, Note_on_c, 0, 63, 67
1, 207871, Note_on_c, 0, 84, 76
1, 207887, Note_off_c, 0, 82, 60
1, 207887, Control_c, 0, 64, 24
1, 207913, Note_off_c, 0, 63, 59
1, 207931, Control_c, 0, 64, 23
1, 207953, Note_off_c, 0, 84, 61
1, 207958, Note_on_c, 0, 81, 78
1, 207961, Note_on_c, 0, 53, 62
1, 207961, Control_c, 0, 64, 22
1, 208003, Note_off_c, 0, 53, 65
1, 208020, Control_c, 0, 64, 23
1, 208033, Note_on_c, 0, 63, 67
1, 208050, Note_on_c, 0, 82, 78
1, 208065, Control_c, 0, 64, 24
1, 208080, Note_off_c, 0, 81, 62
1, 208100, Note_off_c, 0, 63, 61
1, 208117, Note_on_c, 0, 60, 72
1, 208128, Note_off_c, 0, 82, 63
1, 208128, Note_on_c, 0, 84, 82
1, 208154, Control_c, 0, 64, 24
1, 208172, Note_off_c, 0, 60, 62
1, 208184, Control_c, 0, 64, 24
1, 208215, Note_on_c, 0, 63, 73
1, 208220, Note_on_c, 0, 82, 89
1, 208222, Note_off_c, 0, 84, 64
1, 208250, Control_c, 0, 64, 23
1, 208274, Note_off_c, 0, 63, 63
1, 208294, Note_off_c, 0, 82, 63
1, 208306, Note_on_c, 0, 53, 69
1, 208313, Note_on_c, 0, 81, 85
1, 208339, Control_c, 0, 64, 22
1, 208350, Note_off_c, 0, 53, 63
1, 208384, Note_on_c, 0, 63, 77
1, 208389, Note_off_c, 0, 81, 54
1, 208396, Note_on_c, 0, 82, 91
1, 208414, Control_c, 0, 64, 21
1, 208443, Note_off_c, 0, 63, 62
1, 208462, Note_on_c, 0, 60, 72
1, 208469, Note_off_c, 0, 82, 63
1, 208485, Note_on_c, 0, 84, 92
1, 208488, Control_c, 0, 64, 21
1, 208503, Control_c, 0, 64, 20
1, 208518, Control_c, 0, 64, 18
1, 208527, Note_off_c, 0, 60, 62
1, 208533, Control_c, 0, 64, 10
1, 208547, Note_on_c, 0, 63, 76
1, 208547, Control_c, 0, 64, 0
1, 208573, Note_on_c, 0, 86, 93
1, 208598, Note_off_c, 0, 84, 63
1, 208604, Note_off_c, 0, 63, 64
1, 208650, Note_on_c, 0, 53, 71
1, 208654, Note_on_c, 0, 87, 96
1, 208657, Note_off_c, 0, 86, 64
1, 208713, Note_off_c, 0, 53, 60
1, 208742, Note_on_c, 0, 60, 65
1, 208743, Note_on_c, 0, 86, 90
1, 208762, Note_off_c, 0, 87, 64
1, 208794, Note_off_c, 0, 60, 59
1, 208800, Note_off_c, 0, 86, 65
1, 208822, Note_on_c, 0, 57, 67
1, 208829, Note_on_c, 0, 84, 84
1, 208874, Note_off_c, 0, 57, 58
1, 208906, Note_on_c, 0, 82, 84
1, 208909, Note_off_c, 0, 84, 53
1, 208913, Note_on_c, 0, 60, 69
1, 208980, Note_off_c, 0, 60, 63
1, 209001, Note_on_c, 0, 81, 83
1, 209013, Note_on_c, 0, 53, 71
1, 209015, Note_off_c, 0, 82, 60
1, 209055, Note_off_c, 0, 81, 66
1, 209059, Note_off_c, 0, 53, 63
1, 209086, Note_on_c, 0, 79, 82
1, 209093, Note_on_c, 0, 60, 67
1, 209132, Control_c, 0, 64, 12
1, 209147, Control_c, 0, 64, 16
1, 209155, Note_off_c, 0, 60, 59
1, 209159, Note_off_c, 0, 79, 0
1, 209162, Control_c, 0, 64, 20
1, 209175, Note_on_c, 0, 57, 75
1, 209177, Control_c, 0, 64, 25
1, 209180, Note_on_c, 0, 77, 71
1, 209192, Control_c, 0, 64, 30
1, 209207, Control_c, 0, 64, 32
1, 209215, Note_off_c, 0, 57, 65
1, 209216, Note_off_c, 0, 77, 60
1, 209222, Control_c, 0, 64, 33
1, 209234, Poly_aftertouch_c, 0, 79, 0
1, 209237, Control_c, 0, 64, 32
1, 209244, Note_on_c, 0, 75, 67
1, 209251, Control_c, 0, 64, 30
1, 209260, Note_on_c, 0, 60, 68
1, 209266, Control_c, 0, 64, 19
1, 209269, Note_off_c, 0, 75, 67
1, 209281, Control_c, 0, 64, 0
1, 209298, Note_off_c, 0, 60, 62
1, 209323, Note_on_c, 0, 75, 82
1, 209339, Note_on_c, 0, 54, 73
1, 209365, Note_off_c, 0, 75, 63
1, 209377, Note_on_c, 0, 77, 3
1, 209381, Note_off_c, 0, 54, 63
1, 209409, Note_on_c, 0, 60, 74
1, 209412, Note_on_c, 0, 75, 68
1, 209437, Note_off_c, 0, 77, 63
1, 209488, Note_off_c, 0, 60, 58
1, 209492, Note_off_c, 0, 75, 63
1, 209505, Note_on_c, 0, 57, 72
1, 209506, Note_on_c, 0, 74, 84
1, 209549, Note_off_c, 0, 74, 66
1, 209553, Note_off_c, 0, 57, 63
1, 209594, Note_on_c, 0, 60, 62
1, 209666, Note_off_c, 0, 60, 50
1, 209715, Note_on_c, 0, 54, 55
1, 209719, Note_on_c, 0, 74, 78
1, 209764, Note_off_c, 0, 54, 59
1, 209804, Note_on_c, 0, 60, 54
1, 209849, Note_off_c, 0, 60, 62
1, 209884, Note_on_c, 0, 57, 53
1, 209930, Note_off_c, 0, 57, 63
1, 209975, Note_on_c, 0, 60, 56
1, 210026, Note_off_c, 0, 60, 57
1, 210073, Note_on_c, 0, 54, 54
1, 210083, Note_off_c, 0, 74, 62
1, 210104, Control_c, 0, 64, 15
1, 210119, Control_c, 0, 64, 26
1, 210134, Control_c, 0, 64, 26
1, 210138, Note_off_c, 0, 54, 59
1, 210162, Note_on_c, 0, 60, 55
1, 210164, Control_c, 0, 64, 28
1, 210179, Control_c, 0, 64, 31
1, 210211, Note_off_c, 0, 60, 62
1, 210223, Control_c, 0, 64, 31
1, 210238, Control_c, 0, 64, 32
1, 210240, Note_on_c, 0, 57, 63
1, 210249, Note_on_c, 0, 74, 82
1, 210291, Note_off_c, 0, 57, 56
1, 210327, Note_on_c, 0, 60, 61
1, 210341, Control_c, 0, 64, 32
1, 210356, Control_c, 0, 64, 30
1, 210371, Control_c, 0, 64, 24
1, 210385, Control_c, 0, 64, 0
1, 210390, Note_off_c, 0, 60, 60
1, 210428, Note_on_c, 0, 86, 87
1, 210430, Note_on_c, 0, 54, 67
1, 210444, Note_off_c, 0, 74, 63
1, 210482, Note_off_c, 0, 86, 66
1, 210513, Note_off_c, 0, 54, 56
1, 210531, Note_on_c, 0, 62, 56
1, 210598, Note_off_c, 0, 62, 55
1, 210621, Note_on_c, 0, 84, 82
1, 210628, Note_on_c, 0, 57, 53
1, 210705, Note_off_c, 0, 57, 57
1, 210732, Note_on_c, 0, 62, 50
1, 210782, Note_off_c, 0, 62, 60
1, 210819, Note_on_c, 0, 55, 59
1, 210864, Note_off_c, 0, 55, 60
1, 210909, Note_on_c, 0, 62, 67
1, 210980, Note_off_c, 0, 62, 59
1, 210996, Note_on_c, 0, 82, 80
1, 211004, Note_on_c, 0, 58, 66
1, 211040, Note_off_c, 0, 84, 58
1, 211044, Note_off_c, 0, 58, 61
1, 211088, Note_on_c, 0, 62, 67
1, 211136, Note_off_c, 0, 62, 58
1, 211168, Note_on_c, 0, 53, 73
1, 211232, Note_off_c, 0, 53, 64
1, 211254, Note_on_c, 0, 62, 73
1, 211327, Note_off_c, 0, 62, 58
1, 211339, Note_on_c, 0, 81, 80
1, 211341, Note_on_c, 0, 57, 76
1, 211365, Note_off_c, 0, 82, 60
1, 211396, Note_off_c, 0, 57, 62
1, 211433, Note_on_c, 0, 62, 68
1, 211490, Note_off_c, 0, 62, 60
1, 211523, Note_on_c, 0, 52, 66
1, 211547, Note_on_c, 0, 53, 43
1, 211578, Note_off_c, 0, 52, 63
1, 211582, Note_off_c, 0, 53, 33
1, 211585, Note_off_c, 0, 81, 64
1, 211606, Note_on_c, 0, 62, 72
1, 211606, Note_on_c, 0, 79, 76
1, 211648, Note_off_c, 0, 62, 59
1, 211681, Note_on_c, 0, 55, 70
1, 211693, Note_on_c, 0, 82, 84
1, 211708, Note_off_c, 0, 79, 60
1, 211732, Note_off_c, 0, 55, 61
1, 211771, Note_on_c, 0, 81, 86
1, 211773, Note_on_c, 0, 62, 60
1, 211773, Note_off_c, 0, 82, 63
1, 211848, Note_off_c, 0, 62, 61
1, 211851, Note_off_c, 0, 81, 66
1, 211863, Note_on_c, 0, 51, 68
1, 211863, Note_on_c, 0, 84, 87
1, 211953, Note_on_c, 0, 82, 87
1, 211964, Note_on_c, 0, 61, 65
1, 211982, Note_off_c, 0, 84, 62
1, 211991, Note_off_c, 0, 51, 51
1, 212022, Note_off_c, 0, 61, 59
1, 212036, Note_on_c, 0, 81, 86
1, 212043, Note_off_c, 0, 82, 64
1, 212045, Note_on_c, 0, 55, 61
1, 212096, Note_off_c, 0, 81, 66
1, 212110, Note_on_c, 0, 61, 67
1, 212113, Note_on_c, 0, 79, 84
1, 212131, Note_off_c, 0, 55, 61
1, 212163, Note_off_c, 0, 61, 61
1, 212178, Note_off_c, 0, 79, 63
1, 212202, Control_c, 0, 64, 31
1, 212217, Control_c, 0, 64, 47
1, 212219, Note_on_c, 0, 78, 83
1, 212223, Note_on_c, 0, 62, 78
1, 212232, Note_on_c, 0, 50, 70
1, 212232, Control_c, 0, 64, 56
1, 212246, Control_c, 0, 64, 59
1, 212276, Control_c, 0, 64, 58
1, 212290, Control_c, 0, 64, 56
1, 212295, Note_off_c, 0, 78, 65
1, 212305, Control_c, 0, 64, 49
1, 212309, Note_on_c, 0, 74, 82
1, 212320, Control_c, 0, 64, 34
1, 212335, Control_c, 0, 64, 15
1, 212350, Control_c, 0, 64, 0
1, 212360, Note_off_c, 0, 74, 60
1, 212397, Note_on_c, 0, 86, 80
1, 212487, Note_off_c, 0, 86, 65
1, 212492, Note_on_c, 0, 85, 69
1, 212552, Note_off_c, 0, 62, 57
1, 212569, Note_off_c, 0, 50, 63
1, 212571, Note_off_c, 0, 85, 64
1, 212575, Note_on_c, 0, 86, 76
1, 212663, Note_on_c, 0, 85, 84
1, 212667, Note_off_c, 0, 86, 63
1, 212736, Note_off_c, 0, 85, 62
1, 212742, Note_on_c, 0, 86, 74
1, 212829, Note_off_c, 0, 86, 63
1, 212830, Note_on_c, 0, 85, 92
1, 212911, Note_on_c, 0, 86, 89
1, 212916, Note_off_c, 0, 85, 64
1, 212995, Note_on_c, 0, 87, 80
1, 213013, Note_off_c, 0, 86, 63
1, 213066, Note_off_c, 0, 87, 61
1, 213073, Note_on_c, 0, 84, 85
1, 213162, Note_on_c, 0, 86, 81
1, 213177, Note_off_c, 0, 84, 64
1, 213249, Note_on_c, 0, 66, 79
1, 213250, Note_on_c, 0, 62, 68
1, 213251, Note_on_c, 0, 82, 78
1, 213258, Note_off_c, 0, 86, 64
1, 213332, Note_on_c, 0, 84, 82
1, 213336, Note_off_c, 0, 82, 64
1, 213397, Note_off_c, 0, 84, 64
1, 213417, Note_on_c, 0, 81, 79
1, 213508, Note_off_c, 0, 81, 65
1, 213515, Note_on_c, 0, 82, 81
1, 213589, Note_off_c, 0, 82, 63
1, 213600, Note_on_c, 0, 63, 66
1, 213606, Note_on_c, 0, 67, 66
1, 213607, Note_on_c, 0, 79, 76
1, 213608, Note_off_c, 0, 66, 58
1, 213621, Note_off_c, 0, 62, 61
1, 213673, Note_off_c, 0, 79, 52
1, 213688, Note_on_c, 0, 81, 75
1, 213751, Note_off_c, 0, 81, 65
1, 213772, Note_on_c, 0, 77, 76
1, 213832, Note_off_c, 0, 77, 49
1, 213857, Note_on_c, 0, 79, 76
1, 213892, Note_off_c, 0, 67, 56
1, 213948, Note_on_c, 0, 75, 78
1, 213960, Note_off_c, 0, 79, 59
1, 213973, Note_off_c, 0, 63, 61
1, 214034, Note_on_c, 0, 77, 75
1, 214039, Note_off_c, 0, 75, 63
1, 214108, Note_off_c, 0, 77, 62
1, 214119, Note_on_c, 0, 74, 75
1, 214164, Note_off_c, 0, 74, 66
1, 214204, Note_on_c, 0, 75, 74
1, 214266, Note_off_c, 0, 75, 61
1, 214299, Note_on_c, 0, 73, 69
1, 214469, Note_off_c, 0, 73, 54
1, 214477, Note_on_c, 0, 82, 72
1, 214671, Note_on_c, 0, 61, 50
1, 214676, Note_on_c, 0, 81, 63
1, 214686, Note_on_c, 0, 51, 43
1, 214702, Note_off_c, 0, 82, 56
1, 214729, Control_c, 0, 64, 23
1, 214744, Control_c, 0, 64, 35
1, 214760, Control_c, 0, 64, 41
1, 214775, Control_c, 0, 64, 47
1, 214789, Control_c, 0, 64, 55
1, 214804, Control_c, 0, 64, 63
1, 214819, Control_c, 0, 64, 66
1, 214834, Control_c, 0, 64, 69
1, 214849, Control_c, 0, 64, 72
1, 214863, Control_c, 0, 64, 74
1, 214868, Note_on_c, 0, 79, 65
1, 214876, Note_off_c, 0, 81, 60
1, 214878, Control_c, 0, 64, 75
1, 214894, Note_off_c, 0, 61, 57
1, 214963, Note_off_c, 0, 51, 62
1, 215004, Control_c, 0, 64, 74
1, 215019, Control_c, 0, 64, 73
1, 215034, Control_c, 0, 64, 72
1, 215049, Control_c, 0, 64, 69
1, 215053, Note_off_c, 0, 79, 58
1, 215061, Note_on_c, 0, 78, 63
1, 215063, Control_c, 0, 64, 66
1, 215064, Note_on_c, 0, 50, 51
1, 215067, Note_on_c, 0, 62, 43
1, 215078, Control_c, 0, 64, 62
1, 215093, Control_c, 0, 64, 56
1, 215099, Note_off_c, 0, 78, 61
1, 215107, Control_c, 0, 64, 47
1, 215122, Control_c, 0, 64, 33
1, 215137, Control_c, 0, 64, 0
1, 215142, Note_on_c, 0, 73, 63
1, 215194, Note_off_c, 0, 73, 58
1, 215231, Note_on_c, 0, 74, 62
1, 215308, Note_off_c, 0, 74, 64
1, 215310, Note_on_c, 0, 73, 72
1, 215380, Note_off_c, 0, 73, 60
1, 215401, Note_on_c, 0, 74, 69
1, 215440, Note_off_c, 0, 62, 52
1, 215467, Note_off_c, 0, 50, 61
1, 215481, Note_off_c, 0, 74, 63
1, 215482, Note_on_c, 0, 73, 83
1, 215555, Note_off_c, 0, 73, 62
1, 215563, Note_on_c, 0, 74, 74
1, 215642, Note_off_c, 0, 74, 63
1, 215645, Note_on_c, 0, 73, 89
1, 215731, Note_on_c, 0, 74, 82
1, 215815, Note_on_c, 0, 75, 78
1, 215822, Note_off_c, 0, 73, 42
1, 215838, Note_off_c, 0, 74, 64
1, 215875, Note_off_c, 0, 75, 63
1, 215893, Note_on_c, 0, 72, 84
1, 215980, Note_on_c, 0, 74, 78
1, 215986, Note_off_c, 0, 72, 59
1, 216049, Control_c, 0, 64, 8
1, 216063, Note_on_c, 0, 50, 68
1, 216064, Note_on_c, 0, 60, 76
1, 216064, Note_off_c, 0, 74, 64
1, 216065, Note_on_c, 0, 70, 79
1, 216108, Control_c, 0, 64, 12
1, 216123, Control_c, 0, 64, 17
1, 216143, Note_off_c, 0, 70, 62
1, 216143, Note_on_c, 0, 72, 81
1, 216182, Control_c, 0, 64, 18
1, 216197, Control_c, 0, 64, 19
1, 216209, Note_off_c, 0, 72, 63
1, 216233, Note_on_c, 0, 69, 78
1, 216256, Control_c, 0, 64, 20
1, 216271, Control_c, 0, 64, 21
1, 216286, Control_c, 0, 64, 23
1, 216289, Note_off_c, 0, 69, 59
1, 216301, Control_c, 0, 64, 24
1, 216314, Note_on_c, 0, 70, 78
1, 216316, Control_c, 0, 64, 26
1, 216330, Control_c, 0, 64, 29
1, 216346, Control_c, 0, 64, 31
1, 216381, Note_off_c, 0, 70, 63
1, 216405, Note_on_c, 0, 58, 70
1, 216409, Note_on_c, 0, 67, 75
1, 216412, Note_on_c, 0, 51, 65
1, 216427, Control_c, 0, 64, 32
1, 216450, Note_off_c, 0, 50, 40
1, 216456, Note_off_c, 0, 67, 61
1, 216467, Note_off_c, 0, 60, 57
1, 216495, Note_on_c, 0, 69, 73
1, 216546, Control_c, 0, 64, 31
1, 216550, Note_off_c, 0, 69, 64
1, 216561, Control_c, 0, 64, 31
1, 216579, Note_on_c, 0, 65, 74
1, 216612, Note_off_c, 0, 65, 59
1, 216658, Note_on_c, 0, 67, 73
1, 216694, Control_c, 0, 64, 30
1, 216740, Note_off_c, 0, 67, 61
1, 216748, Note_on_c, 0, 63, 71
1, 216753, Control_c, 0, 64, 30
1, 216768, Control_c, 0, 64, 28
1, 216785, Note_off_c, 0, 58, 63
1, 216798, Control_c, 0, 64, 30
1, 216825, Note_off_c, 0, 51, 57
1, 216828, Note_on_c, 0, 65, 76
1, 216832, Note_off_c, 0, 63, 63
1, 216872, Control_c, 0, 64, 30
1, 216912, Note_off_c, 0, 65, 56
1, 216924, Note_on_c, 0, 62, 63
1, 216978, Note_off_c, 0, 62, 61
1, 217005, Note_on_c, 0, 63, 66
1, 217035, Control_c, 0, 64, 30
1, 217049, Control_c, 0, 64, 27
1, 217064, Control_c, 0, 64, 26
1, 217079, Control_c, 0, 64, 25
1, 217091, Note_off_c, 0, 63, 63
1, 217094, Control_c, 0, 64, 22
1, 217109, Control_c, 0, 64, 8
1, 217112, Note_on_c, 0, 61, 59
1, 217124, Control_c, 0, 64, 0
1, 217287, Note_off_c, 0, 61, 61
1, 217300, Note_on_c, 0, 67, 63
1, 217473, Note_off_c, 0, 67, 60
1, 217479, Note_on_c, 0, 55, 51
1, 217480, Note_on_c, 0, 51, 45
1, 217481, Note_on_c, 0, 70, 68
1, 217655, Note_off_c, 0, 70, 63
1, 217667, Note_on_c, 0, 61, 66
1, 217717, Note_off_c, 0, 61, 55
1, 217828, Note_off_c, 0, 51, 55
1, 217837, Note_on_c, 0, 54, 52
1, 217842, Note_on_c, 0, 62, 59
1, 217845, Note_on_c, 0, 50, 53
1, 217873, Note_off_c, 0, 62, 65
1, 217881, Note_off_c, 0, 55, 59
1, 217902, Note_off_c, 0, 54, 62
1, 217904, Note_off_c, 0, 50, 65
1, 218051, Note_on_c, 0, 74, 57
1, 218084, Note_off_c, 0, 74, 66
1, 218242, Note_on_c, 0, 55, 52
1, 218244, Note_on_c, 0, 58, 60
1, 218249, Note_on_c, 0, 50, 57
1, 218291, Note_off_c, 0, 55, 63
1, 218296, Note_off_c, 0, 50, 67
1, 218307, Note_off_c, 0, 58, 64
1, 218428, Note_on_c, 0, 74, 57
1, 218462, Note_off_c, 0, 74, 65
1, 218603, Note_on_c, 0, 57, 63
1, 218614, Note_on_c, 0, 54, 64
1, 218616, Note_on_c, 0, 50, 56
1, 218663, Note_off_c, 0, 50, 67
1, 218679, Note_off_c, 0, 54, 61
1, 218683, Note_off_c, 0, 57, 64
1, 218811, Note_on_c, 0, 74, 66
1, 218850, Note_off_c, 0, 74, 63
1, 219001, Note_on_c, 0, 58, 70
1, 219003, Note_on_c, 0, 55, 58
1, 219008, Note_on_c, 0, 50, 61
1, 219058, Note_off_c, 0, 55, 63
1, 219070, Note_off_c, 0, 50, 65
1, 219074, Note_off_c, 0, 58, 63
1, 219210, Note_on_c, 0, 74, 59
1, 219255, Note_off_c, 0, 74, 62
1, 219471, Note_on_c, 0, 50, 37
1, 219479, Note_on_c, 0, 57, 43
1, 219482, Note_on_c, 0, 54, 35
1, 219511, Control_c, 0, 64, 16
1, 219526, Control_c, 0, 64, 28
1, 219541, Control_c, 0, 64, 37
1, 219556, Control_c, 0, 64, 44
1, 219571, Control_c, 0, 64, 49
1, 219586, Control_c, 0, 64, 50
1, 219601, Control_c, 0, 64, 51
1, 219616, Control_c, 0, 64, 52
1, 219631, Control_c, 0, 64, 53
1, 219646, Control_c, 0, 64, 54
1, 219660, Control_c, 0, 64, 55
1, 219675, Note_on_c, 0, 74, 48
1, 219675, Control_c, 0, 64, 55
1, 219749, Control_c, 0, 64, 54
1, 219764, Control_c, 0, 64, 53
1, 219808, Control_c, 0, 64, 53
1, 219823, Control_c, 0, 64, 52
1, 219838, Control_c, 0, 64, 51
1, 219852, Control_c, 0, 64, 51
1, 219853, Note_on_c, 0, 73, 61
1, 219857, Note_off_c, 0, 74, 59
1, 219860, Note_off_c, 0, 50, 47
1, 219882, Control_c, 0, 64, 50
1, 219894, Note_off_c, 0, 57, 52
1, 219896, Control_c, 0, 64, 48
1, 219911, Note_off_c, 0, 54, 52
1, 219911, Control_c, 0, 64, 47
1, 219956, Control_c, 0, 64, 46
1, 219971, Control_c, 0, 64, 44
1, 219986, Control_c, 0, 64, 41
1, 220001, Control_c, 0, 64, 40
1, 220015, Control_c, 0, 64, 40
1, 220030, Control_c, 0, 64, 38
1, 220036, Note_on_c, 0, 74, 65
1, 220043, Note_off_c, 0, 73, 61
1, 220045, Control_c, 0, 64, 35
1, 220060, Control_c, 0, 64, 30
1, 220075, Control_c, 0, 64, 26
1, 220119, Control_c, 0, 64, 21
1, 220134, Control_c, 0, 64, 10
1, 220149, Control_c, 0, 64, 0
1, 220221, Note_on_c, 0, 73, 72
1, 220236, Note_off_c, 0, 74, 61
1, 220417, Note_on_c, 0, 74, 75
1, 220427, Note_off_c, 0, 73, 61
1, 220601, Note_off_c, 0, 74, 62
1, 220606, Note_on_c, 0, 73, 68
1, 220792, Note_on_c, 0, 74, 65
1, 220795, Note_off_c, 0, 73, 59
1, 220987, Note_off_c, 0, 74, 61
1, 221000, Note_on_c, 0, 77, 57
1, 221196, Note_on_c, 0, 60, 40
1, 221196, Note_on_c, 0, 69, 44
1, 221201, Note_on_c, 0, 65, 37
1, 221223, Note_off_c, 0, 69, 57
1, 221224, Note_off_c, 0, 60, 58
1, 221232, Note_off_c, 0, 65, 49
1, 221376, Note_on_c, 0, 69, 60
1, 221376, Note_on_c, 0, 75, 55
1, 221382, Note_on_c, 0, 60, 48
1, 221384, Note_off_c, 0, 77, 57
1, 221390, Note_on_c, 0, 65, 47
1, 221408, Note_off_c, 0, 69, 67
1, 221409, Note_off_c, 0, 60, 62
1, 221417, Note_off_c, 0, 65, 57
1, 221563, Note_on_c, 0, 69, 67
1, 221568, Note_on_c, 0, 65, 54
1, 221569, Note_on_c, 0, 60, 48
1, 221590, Note_off_c, 0, 69, 69
1, 221592, Note_off_c, 0, 65, 62
1, 221595, Note_off_c, 0, 60, 59
1, 221685, Note_off_c, 0, 75, 60
1, 221773, Note_on_c, 0, 69, 62
1, 221788, Note_on_c, 0, 60, 43
1, 221789, Note_on_c, 0, 65, 52
1, 221875, Note_on_c, 0, 75, 68
1, 221927, Note_off_c, 0, 75, 57
1, 221960, Note_on_c, 0, 74, 68
1, 222043, Note_on_c, 0, 75, 77
1, 222069, Note_off_c, 0, 74, 61
1, 222132, Note_on_c, 0, 77, 83
1, 222132, Note_off_c, 0, 75, 63
1, 222135, Note_off_c, 0, 60, 64
1, 222138, Note_off_c, 0, 65, 61
1, 222150, Note_off_c, 0, 69, 62
1, 222221, Note_on_c, 0, 75, 84
1, 222225, Note_off_c, 0, 77, 63
1, 222282, Note_off_c, 0, 75, 63
1, 222304, Note_on_c, 0, 74, 83
1, 222385, Note_on_c, 0, 75, 83
1, 222394, Note_off_c, 0, 74, 61
1, 222484, Note_off_c, 0, 75, 63
1, 222488, Note_on_c, 0, 82, 77
1, 222671, Note_on_c, 0, 75, 52
1, 222676, Note_on_c, 0, 72, 52
1, 222681, Note_on_c, 0, 65, 43
1, 222704, Note_off_c, 0, 72, 61
1, 222707, Note_off_c, 0, 75, 59
1, 222712, Note_off_c, 0, 65, 56
1, 222859, Note_on_c, 0, 75, 63
1, 222860, Note_on_c, 0, 81, 66
1, 222864, Note_on_c, 0, 72, 58
1, 222869, Note_off_c, 0, 82, 51
1, 222870, Note_on_c, 0, 65, 41
1, 222887, Note_off_c, 0, 75, 66
1, 222896, Note_off_c, 0, 72, 65
1, 222898, Note_off_c, 0, 65, 57
1, 223046, Note_on_c, 0, 72, 66
1, 223046, Note_on_c, 0, 75, 63
1, 223059, Note_on_c, 0, 65, 39
1, 223067, Note_off_c, 0, 75, 65
1, 223074, Note_off_c, 0, 72, 68
1, 223090, Note_off_c, 0, 65, 50
1, 223146, Note_off_c, 0, 81, 64
1, 223266, Note_on_c, 0, 75, 56
1, 223271, Note_on_c, 0, 72, 51
1, 223297, Note_on_c, 0, 65, 44
1, 223345, Note_on_c, 0, 81, 62
1, 223418, Note_off_c, 0, 81, 64
1, 223441, Note_on_c, 0, 79, 68
1, 223517, Note_on_c, 0, 81, 77
1, 223536, Note_off_c, 0, 79, 56
1, 223594, Note_off_c, 0, 81, 65
1, 223597, Note_on_c, 0, 82, 86
1, 223610, Note_off_c, 0, 65, 58
1, 223613, Note_off_c, 0, 75, 56
1, 223618, Note_off_c, 0, 72, 60
1, 223689, Note_on_c, 0, 81, 81
1, 223706, Note_off_c, 0, 82, 61
1, 223754, Note_off_c, 0, 81, 67
1, 223775, Note_on_c, 0, 79, 85
1, 223857, Note_on_c, 0, 81, 87
1, 223871, Note_off_c, 0, 79, 61
1, 223960, Note_on_c, 0, 89, 87
1, 223962, Note_off_c, 0, 81, 65
1, 224141, Note_on_c, 0, 65, 46
1, 224329, Note_off_c, 0, 65, 60
1, 224332, Note_on_c, 0, 87, 68
1, 224338, Note_on_c, 0, 72, 50
1, 224347, Note_off_c, 0, 89, 57
1, 224487, Note_off_c, 0, 72, 61
1, 224515, Note_on_c, 0, 75, 49
1, 224560, Note_off_c, 0, 87, 57
1, 224723, Note_on_c, 0, 66, 42
1, 224726, Note_off_c, 0, 75, 51
1, 224800, Note_on_c, 0, 87, 61
1, 224876, Note_off_c, 0, 87, 63
1, 224886, Note_on_c, 0, 86, 68
1, 224978, Note_on_c, 0, 87, 81
1, 224995, Note_off_c, 0, 86, 63
1, 225056, Note_off_c, 0, 87, 64
1, 225057, Note_on_c, 0, 89, 81
1, 225149, Note_on_c, 0, 87, 85
1, 225180, Note_off_c, 0, 89, 62
1, 225226, Note_on_c, 0, 85, 86
1, 225247, Note_off_c, 0, 87, 61
1, 225295, Note_off_c, 0, 85, 64
1, 225314, Note_on_c, 0, 84, 84
1, 225364, Note_off_c, 0, 66, 55
1, 225417, Note_off_c, 0, 84, 59
1, 225418, Note_on_c, 0, 82, 76
1, 225605, Note_on_c, 0, 65, 44
1, 225782, Note_off_c, 0, 65, 57
1, 225784, Note_off_c, 0, 82, 57
1, 225790, Note_on_c, 0, 72, 48
1, 225795, Note_on_c, 0, 81, 52
1, 225959, Note_off_c, 0, 72, 58
1, 225992, Note_on_c, 0, 75, 43
1, 226022, Note_off_c, 0, 81, 62
1, 226195, Note_on_c, 0, 66, 39
1, 226209, Note_off_c, 0, 75, 48
1, 226281, Note_on_c, 0, 87, 62
1, 226354, Note_off_c, 0, 87, 62
1, 226364, Note_on_c, 0, 86, 68
1, 226458, Note_on_c, 0, 87, 71
1, 226458, Note_off_c, 0, 86, 61
1, 226529, Note_off_c, 0, 87, 63
1, 226536, Note_on_c, 0, 89, 71
1, 226633, Note_on_c, 0, 87, 68
1, 226644, Note_off_c, 0, 89, 57
1, 226702, Note_on_c, 0, 85, 70
1, 226702, Note_off_c, 0, 87, 63
1, 226765, Note_off_c, 0, 85, 64
1, 226792, Note_on_c, 0, 84, 67
1, 226845, Note_off_c, 0, 84, 63
1, 226875, Note_off_c, 0, 66, 60
1, 226886, Note_on_c, 0, 82, 62
1, 226889, Note_on_c, 0, 65, 42
1, 226957, Note_off_c, 0, 82, 62
1, 226977, Note_off_c, 0, 65, 60
1, 226982, Note_on_c, 0, 81, 71
1, 227068, Note_on_c, 0, 87, 78
1, 227072, Note_off_c, 0, 81, 62
1, 227144, Note_on_c, 0, 86, 81
1, 227164, Note_off_c, 0, 87, 62
1, 227229, Note_on_c, 0, 75, 64
1, 227232, Note_on_c, 0, 72, 65
1, 227235, Note_on_c, 0, 66, 61
1, 227239, Note_on_c, 0, 89, 89
1, 227242, Note_off_c, 0, 86, 65
1, 227330, Note_on_c, 0, 87, 84
1, 227356, Note_off_c, 0, 89, 62
1, 227411, Note_on_c, 0, 85, 79
1, 227426, Note_off_c, 0, 87, 61
1, 227479, Note_off_c, 0, 85, 64
1, 227499, Note_on_c, 0, 84, 74
1, 227559, Note_off_c, 0, 84, 64
1, 227589, Note_on_c, 0, 82, 71
1, 227603, Note_on_c, 0, 65, 54
1, 227608, Note_off_c, 0, 66, 59
1, 227664, Note_off_c, 0, 75, 57
1, 227665, Note_off_c, 0, 82, 63
1, 227686, Note_off_c, 0, 72, 61
1, 227690, Note_on_c, 0, 81, 71
1, 227696, Note_off_c, 0, 65, 62
1, 227769, Note_on_c, 0, 87, 83
1, 227779, Note_off_c, 0, 81, 62
1, 227849, Note_on_c, 0, 86, 87
1, 227861, Note_off_c, 0, 87, 61
1, 227940, Note_off_c, 0, 86, 63
1, 227943, Note_on_c, 0, 89, 94
1, 227945, Note_on_c, 0, 66, 64
1, 227945, Note_on_c, 0, 75, 73
1, 227946, Note_on_c, 0, 72, 70
1, 228032, Note_on_c, 0, 87, 90
1, 228058, Note_off_c, 0, 89, 62
1, 228112, Note_on_c, 0, 85, 86
1, 228135, Note_off_c, 0, 87, 62
1, 228182, Note_off_c, 0, 85, 65
1, 228198, Note_on_c, 0, 84, 85
1, 228259, Note_off_c, 0, 84, 66
1, 228267, Note_off_c, 0, 66, 62
1, 228296, Note_on_c, 0, 82, 74
1, 228307, Note_on_c, 0, 65, 45
1, 228365, Note_off_c, 0, 82, 62
1, 228387, Note_on_c, 0, 81, 64
1, 228466, Note_on_c, 0, 84, 70
1, 228471, Note_off_c, 0, 81, 61
1, 228550, Note_on_c, 0, 83, 78
1, 228552, Note_off_c, 0, 84, 61
1, 228579, Note_off_c, 0, 75, 38
1, 228618, Note_off_c, 0, 83, 62
1, 228626, Note_off_c, 0, 72, 57
1, 228645, Note_on_c, 0, 86, 74
1, 228648, Note_off_c, 0, 65, 57
1, 228728, Note_on_c, 0, 84, 69
1, 228761, Note_off_c, 0, 86, 62
1, 228807, Control_c, 0, 64, 10
1, 228818, Note_on_c, 0, 82, 78
1, 228822, Control_c, 0, 64, 13
1, 228830, Note_off_c, 0, 84, 63
1, 228866, Control_c, 0, 64, 15
1, 228881, Note_off_c, 0, 82, 63
1, 228899, Note_on_c, 0, 81, 76
1, 228980, Note_off_c, 0, 81, 57
1, 228988, Note_on_c, 0, 79, 74
1, 229000, Control_c, 0, 64, 13
1, 229030, Control_c, 0, 64, 12
1, 229059, Control_c, 0, 64, 10
1, 229061, Note_off_c, 0, 79, 61
1, 229065, Note_on_c, 0, 77, 77
1, 229089, Control_c, 0, 64, 8
1, 229142, Note_off_c, 0, 77, 61
1, 229164, Note_on_c, 0, 79, 79
1, 229201, Control_c, 0, 64, 0
1, 229243, Note_on_c, 0, 78, 86
1, 229249, Note_off_c, 0, 79, 61
1, 229327, Note_off_c, 0, 78, 63
1, 229328, Note_on_c, 0, 81, 79
1, 229408, Note_on_c, 0, 79, 78
1, 229422, Note_off_c, 0, 81, 63
1, 229473, Note_off_c, 0, 79, 61
1, 229501, Note_on_c, 0, 77, 75
1, 229572, Note_off_c, 0, 77, 56
1, 229587, Note_on_c, 0, 75, 71
1, 229664, Note_off_c, 0, 75, 59
1, 229665, Note_on_c, 0, 74, 77
1, 229691, Note_off_c, 0, 74, 66
1, 229858, Note_on_c, 0, 72, 73
1, 229885, Note_off_c, 0, 72, 67
1, 230047, Note_on_c, 0, 74, 70
1, 230073, Note_off_c, 0, 74, 69
1, 230241, Note_on_c, 0, 75, 63
1, 230272, Note_off_c, 0, 75, 64
1, 230481, Note_on_c, 0, 76, 47
1, 230513, Control_c, 0, 64, 12
1, 230528, Control_c, 0, 64, 38
1, 230543, Control_c, 0, 64, 54
1, 230557, Control_c, 0, 64, 62
1, 230572, Control_c, 0, 64, 66
1, 230587, Control_c, 0, 64, 69
1, 230602, Control_c, 0, 64, 72
1, 230617, Control_c, 0, 64, 75
1, 230631, Control_c, 0, 64, 79
1, 230646, Control_c, 0, 64, 82
1, 230669, Control_c, 0, 64, 83
1, 230684, Control_c, 0, 64, 84
1, 230699, Control_c, 0, 64, 84
1, 230712, Note_off_c, 0, 76, 57
1, 230714, Control_c, 0, 64, 86
1, 230720, Note_on_c, 0, 77, 51
1, 230728, Control_c, 0, 64, 87
1, 230762, Note_off_c, 0, 77, 64
1, 230803, Control_c, 0, 64, 87
1, 230936, Control_c, 0, 64, 87
1, 230966, Control_c, 0, 64, 86
1, 230981, Control_c, 0, 64, 85
1, 230996, Control_c, 0, 64, 84
1, 231010, Control_c, 0, 64, 84
1, 231040, Control_c, 0, 64, 82
1, 231054, Control_c, 0, 64, 80
1, 231069, Control_c, 0, 64, 78
1, 231082, Note_on_c, 0, 79, 47
1, 231084, Control_c, 0, 64, 77
1, 231099, Control_c, 0, 64, 76
1, 231114, Control_c, 0, 64, 74
1, 231128, Control_c, 0, 64, 72
1, 231143, Control_c, 0, 64, 69
1, 231158, Control_c, 0, 64, 67
1, 231173, Control_c, 0, 64, 65
1, 231188, Control_c, 0, 64, 63
1, 231189, Note_on_c, 0, 77, 58
1, 231196, Note_off_c, 0, 79, 57
1, 231203, Control_c, 0, 64, 61
1, 231218, Control_c, 0, 64, 58
1, 231233, Control_c, 0, 64, 57
1, 231248, Control_c, 0, 64, 55
1, 231262, Control_c, 0, 64, 53
1, 231269, Note_off_c, 0, 77, 60
1, 231274, Note_on_c, 0, 75, 56
1, 231277, Control_c, 0, 64, 50
1, 231292, Control_c, 0, 64, 47
1, 231307, Control_c, 0, 64, 43
1, 231318, Note_off_c, 0, 75, 57
1, 231322, Control_c, 0, 64, 38
1, 231336, Control_c, 0, 64, 27
1, 231351, Control_c, 0, 64, 0
1, 231362, Note_on_c, 0, 74, 53
1, 231450, Note_off_c, 0, 74, 59
1, 231471, Note_on_c, 0, 72, 53
1, 231645, Note_off_c, 0, 72, 60
1, 231668, Note_on_c, 0, 70, 57
1, 231680, Note_on_c, 0, 58, 38
1, 231700, Note_off_c, 0, 70, 65
1, 231872, Note_off_c, 0, 58, 45
1, 231874, Note_on_c, 0, 70, 51
1, 231897, Note_on_c, 0, 62, 28
1, 232027, Note_off_c, 0, 62, 46
1, 232062, Note_on_c, 0, 65, 34
1, 232249, Note_on_c, 0, 62, 31
1, 232262, Note_off_c, 0, 65, 40
1, 232315, Control_c, 0, 64, 15
1, 232330, Control_c, 0, 64, 16
1, 232360, Control_c, 0, 64, 17
1, 232375, Control_c, 0, 64, 19
1, 232389, Control_c, 0, 64, 21
1, 232404, Control_c, 0, 64, 23
1, 232419, Control_c, 0, 64, 24
1, 232427, Note_on_c, 0, 58, 45
1, 232433, Control_c, 0, 64, 25
1, 232436, Note_on_c, 0, 74, 57
1, 232448, Control_c, 0, 64, 26
1, 232451, Note_off_c, 0, 62, 42
1, 232463, Control_c, 0, 64, 27
1, 232467, Note_off_c, 0, 70, 61
1, 232478, Control_c, 0, 64, 27
1, 232552, Control_c, 0, 64, 28
1, 232623, Note_off_c, 0, 58, 52
1, 232627, Note_on_c, 0, 79, 76
1, 232628, Note_off_c, 0, 74, 63
1, 232630, Note_on_c, 0, 62, 35
1, 232806, Note_on_c, 0, 74, 79
1, 232810, Note_on_c, 0, 67, 41
1, 232825, Note_off_c, 0, 62, 52
1, 232839, Note_off_c, 0, 79, 61
1, 232974, Note_off_c, 0, 67, 55
1, 233012, Note_on_c, 0, 77, 73
1, 233064, Note_off_c, 0, 74, 61
1, 233152, Control_c, 0, 64, 27
1, 233203, Note_on_c, 0, 60, 41
1, 233376, Note_off_c, 0, 60, 59
1, 233390, Note_on_c, 0, 75, 56
1, 233406, Note_on_c, 0, 63, 41
1, 233415, Note_off_c, 0, 77, 52
1, 233434, Control_c, 0, 64, 27
1, 233448, Control_c, 0, 64, 26
1, 233478, Control_c, 0, 64, 24
1, 233493, Control_c, 0, 64, 22
1, 233508, Control_c, 0, 64, 21
1, 233537, Control_c, 0, 64, 20
1, 233552, Control_c, 0, 64, 15
1, 233559, Note_off_c, 0, 63, 58
1, 233567, Control_c, 0, 64, 0
1, 233582, Note_on_c, 0, 67, 42
1, 233775, Note_on_c, 0, 63, 37
1, 233802, Note_off_c, 0, 67, 42
1, 233956, Note_off_c, 0, 75, 60
1, 233966, Note_off_c, 0, 63, 46
1, 233966, Note_on_c, 0, 77, 60
1, 233977, Note_on_c, 0, 60, 41
1, 234028, Note_off_c, 0, 77, 61
1, 234046, Note_on_c, 0, 79, 70
1, 234110, Note_off_c, 0, 60, 61
1, 234134, Note_on_c, 0, 63, 40
1, 234138, Note_on_c, 0, 77, 67
1, 234148, Note_off_c, 0, 79, 56
1, 234211, Note_on_c, 0, 75, 71
1, 234226, Note_off_c, 0, 77, 58
1, 234275, Note_off_c, 0, 75, 60
1, 234293, Note_off_c, 0, 63, 55
1, 234301, Note_on_c, 0, 74, 68
1, 234307, Note_on_c, 0, 67, 39
1, 234369, Note_off_c, 0, 67, 60
1, 234379, Note_off_c, 0, 74, 63
1, 234388, Note_on_c, 0, 72, 70
1, 234497, Note_off_c, 0, 72, 62
1, 234498, Note_on_c, 0, 70, 69
1, 234698, Note_on_c, 0, 53, 32
1, 234890, Note_on_c, 0, 69, 52
1, 234897, Note_off_c, 0, 53, 48
1, 234900, Note_on_c, 0, 60, 36
1, 234923, Note_off_c, 0, 70, 47
1, 235046, Note_off_c, 0, 60, 59
1, 235081, Note_on_c, 0, 63, 42
1, 235221, Note_off_c, 0, 69, 59
1, 235275, Note_on_c, 0, 60, 39
1, 235349, Note_off_c, 0, 63, 36
1, 235438, Note_off_c, 0, 60, 52
1, 235448, Note_on_c, 0, 69, 65
1, 235463, Note_on_c, 0, 53, 44
1, 235533, Control_c, 0, 64, 30
1, 235548, Control_c, 0, 64, 43
1, 235563, Control_c, 0, 64, 48
1, 235578, Control_c, 0, 64, 51
1, 235593, Control_c, 0, 64, 54
1, 235607, Control_c, 0, 64, 59
1, 235622, Control_c, 0, 64, 62
1, 235635, Note_on_c, 0, 70, 77
1, 235637, Control_c, 0, 64, 63
1, 235649, Note_off_c, 0, 53, 58
1, 235651, Control_c, 0, 64, 64
1, 235658, Note_on_c, 0, 60, 41
1, 235666, Control_c, 0, 64, 64
1, 235674, Note_off_c, 0, 69, 59
1, 235681, Control_c, 0, 64, 66
1, 235696, Control_c, 0, 64, 68
1, 235711, Control_c, 0, 64, 70
1, 235725, Control_c, 0, 64, 72
1, 235740, Control_c, 0, 64, 73
1, 235755, Control_c, 0, 64, 75
1, 235770, Control_c, 0, 64, 76
1, 235784, Control_c, 0, 64, 77
1, 235799, Control_c, 0, 64, 78
1, 235811, Note_off_c, 0, 70, 56
1, 235817, Note_on_c, 0, 72, 76
1, 235829, Control_c, 0, 64, 78
1, 235831, Note_on_c, 0, 63, 44
1, 235843, Note_off_c, 0, 60, 61
1, 235844, Control_c, 0, 64, 79
1, 235859, Note_off_c, 0, 72, 61
1, 235907, Note_off_c, 0, 63, 54
1, 235970, Control_c, 0, 64, 78
1, 235984, Control_c, 0, 64, 76
1, 235999, Control_c, 0, 64, 75
1, 236014, Control_c, 0, 64, 73
1, 236015, Note_on_c, 0, 72, 72
1, 236029, Control_c, 0, 64, 70
1, 236034, Note_on_c, 0, 69, 50
1, 236044, Control_c, 0, 64, 66
1, 236059, Control_c, 0, 64, 62
1, 236074, Control_c, 0, 64, 56
1, 236089, Control_c, 0, 64, 48
1, 236103, Control_c, 0, 64, 26
1, 236118, Control_c, 0, 64, 0
1, 236199, Note_on_c, 0, 58, 45
1, 236358, Note_off_c, 0, 69, 57
1, 236369, Note_off_c, 0, 58, 51
1, 236399, Note_on_c, 0, 62, 38
1, 236402, Note_on_c, 0, 74, 54
1, 236404, Note_off_c, 0, 72, 56
1, 236416, Note_on_c, 0, 70, 42
1, 236586, Note_off_c, 0, 62, 43
1, 236595, Note_on_c, 0, 65, 33
1, 236640, Note_off_c, 0, 70, 56
1, 236703, Note_off_c, 0, 74, 57
1, 236780, Note_on_c, 0, 62, 36
1, 236820, Note_off_c, 0, 65, 40
1, 236942, Note_off_c, 0, 62, 49
1, 236967, Note_on_c, 0, 58, 39
1, 236977, Note_on_c, 0, 77, 49
1, 237056, Note_on_c, 0, 76, 67
1, 237069, Note_off_c, 0, 77, 55
1, 237108, Note_off_c, 0, 58, 54
1, 237120, Note_on_c, 0, 62, 32
1, 237137, Note_off_c, 0, 76, 61
1, 237140, Note_on_c, 0, 79, 70
1, 237222, Note_off_c, 0, 62, 57
1, 237225, Note_on_c, 0, 77, 60
1, 237254, Note_off_c, 0, 79, 57
1, 237275, Note_on_c, 0, 65, 40
1, 237302, Note_on_c, 0, 75, 71
1, 237308, Note_off_c, 0, 77, 62
1, 237352, Note_off_c, 0, 75, 61
1, 237385, Note_on_c, 0, 74, 70
1, 237418, Note_off_c, 0, 74, 68
1, 237448, Note_off_c, 0, 65, 52
1, 237481, Note_on_c, 0, 63, 44
1, 237489, Note_on_c, 0, 74, 72
1, 237664, Note_off_c, 0, 63, 59
1, 237683, Note_on_c, 0, 72, 66
1, 237697, Note_on_c, 0, 67, 40
1, 237704, Note_off_c, 0, 74, 55
1, 237751, Note_off_c, 0, 72, 59
1, 237843, Note_on_c, 0, 62, 44
1, 237852, Note_off_c, 0, 67, 54
1, 238011, Note_off_c, 0, 62, 61
1, 238027, Note_on_c, 0, 70, 68
1, 238039, Note_on_c, 0, 65, 45
1, 238059, Note_off_c, 0, 70, 60
1, 238190, Note_off_c, 0, 65, 58
1, 238225, Note_on_c, 0, 74, 64
1, 238229, Note_on_c, 0, 63, 42
1, 238391, Note_off_c, 0, 63, 56
1, 238417, Note_on_c, 0, 72, 62
1, 238429, Note_on_c, 0, 67, 37
1, 238443, Note_off_c, 0, 74, 60
1, 238534, Note_off_c, 0, 72, 62
1, 238594, Note_on_c, 0, 60, 43
1, 238663, Note_off_c, 0, 67, 35
1, 238770, Note_on_c, 0, 69, 62
1, 238774, Note_off_c, 0, 60, 63
1, 238777, Note_on_c, 0, 63, 48
1, 238802, Note_off_c, 0, 69, 66
1, 238954, Note_off_c, 0, 63, 57
1, 238981, Note_on_c, 0, 62, 37
1, 238992, Note_on_c, 0, 65, 40
1, 238992, Note_on_c, 0, 70, 50
1, 239040, Note_off_c, 0, 70, 61
1, 239078, Note_on_c, 0, 72, 58
1, 239161, Note_on_c, 0, 70, 62
1, 239161, Note_off_c, 0, 72, 61
1, 239232, Note_off_c, 0, 70, 63
1, 239234, Note_on_c, 0, 69, 72
1, 239321, Note_on_c, 0, 70, 73
1, 239324, Note_off_c, 0, 69, 61
1, 239370, Note_off_c, 0, 65, 36
1, 239380, Note_off_c, 0, 70, 64
1, 239399, Note_on_c, 0, 72, 80
1, 239400, Note_off_c, 0, 62, 42
1, 239485, Note_on_c, 0, 74, 75
1, 239496, Note_off_c, 0, 72, 61
1, 239569, Note_on_c, 0, 75, 81
1, 239573, Note_off_c, 0, 74, 63
1, 239648, Note_off_c, 0, 75, 63
1, 239661, Note_on_c, 0, 76, 90
1, 239739, Note_off_c, 0, 76, 59
1, 239747, Note_on_c, 0, 77, 83
1, 239809, Note_off_c, 0, 77, 63
1, 239832, Note_on_c, 0, 76, 88
1, 239902, Note_off_c, 0, 76, 54
1, 239904, Note_on_c, 0, 77, 86
1, 239991, Note_off_c, 0, 77, 60
1, 240002, Note_on_c, 0, 79, 88
1, 240090, Note_on_c, 0, 77, 80
1, 240115, Note_off_c, 0, 79, 62
1, 240167, Note_on_c, 0, 75, 79
1, 240172, Note_off_c, 0, 77, 62
1, 240222, Note_off_c, 0, 75, 63
1, 240247, Note_on_c, 0, 74, 80
1, 240282, Note_off_c, 0, 74, 63
1, 240350, Note_on_c, 0, 63, 50
1, 240351, Note_on_c, 0, 74, 72
1, 240533, Note_off_c, 0, 63, 59
1, 240535, Note_on_c, 0, 72, 74
1, 240542, Note_off_c, 0, 74, 63
1, 240562, Note_on_c, 0, 67, 43
1, 240567, Note_off_c, 0, 72, 63
1, 240721, Note_on_c, 0, 72, 75
1, 240725, Note_off_c, 0, 67, 51
1, 240731, Note_on_c, 0, 62, 43
1, 240876, Note_off_c, 0, 62, 58
1, 240893, Note_off_c, 0, 72, 62
1, 240896, Note_on_c, 0, 70, 77
1, 240910, Note_on_c, 0, 65, 49
1, 240925, Note_off_c, 0, 70, 64
1, 241067, Note_off_c, 0, 65, 59
1, 241079, Note_on_c, 0, 74, 65
1, 241092, Note_on_c, 0, 63, 46
1, 241243, Note_off_c, 0, 63, 61
1, 241273, Note_on_c, 0, 72, 71
1, 241274, Note_off_c, 0, 74, 64
1, 241279, Note_on_c, 0, 67, 47
1, 241299, Note_off_c, 0, 72, 69
1, 241458, Note_on_c, 0, 72, 70
1, 241468, Note_on_c, 0, 60, 41
1, 241492, Note_off_c, 0, 67, 43
1, 241628, Note_on_c, 0, 69, 67
1, 241628, Note_off_c, 0, 72, 55
1, 241632, Note_off_c, 0, 60, 62
1, 241639, Note_on_c, 0, 63, 50
1, 241657, Note_off_c, 0, 69, 69
1, 241812, Note_off_c, 0, 63, 61
1, 241831, Note_on_c, 0, 62, 41
1, 241831, Note_on_c, 0, 70, 62
1, 241842, Note_on_c, 0, 65, 42
1, 241987, Note_off_c, 0, 70, 63
1, 242020, Note_on_c, 0, 72, 68
1, 242098, Note_off_c, 0, 72, 63
1, 242099, Note_on_c, 0, 74, 72
1, 242185, Note_on_c, 0, 75, 76
1, 242200, Note_off_c, 0, 74, 59
1, 242247, Note_off_c, 0, 75, 63
1, 242265, Note_on_c, 0, 77, 82
1, 242319, Note_off_c, 0, 65, 44
1, 242342, Note_off_c, 0, 62, 53
1, 242349, Note_on_c, 0, 79, 83
1, 242368, Note_off_c, 0, 77, 57
1, 242429, Note_on_c, 0, 81, 86
1, 242451, Note_off_c, 0, 79, 62
1, 242514, Note_on_c, 0, 82, 88
1, 242533, Note_off_c, 0, 81, 66
1, 242581, Note_off_c, 0, 82, 65
1, 242596, Note_on_c, 0, 84, 85
1, 242683, Note_on_c, 0, 86, 87
1, 242712, Note_off_c, 0, 84, 63
1, 242766, Note_on_c, 0, 87, 91
1, 242791, Note_off_c, 0, 86, 63
1, 242844, Note_on_c, 0, 89, 91
1, 242849, Note_off_c, 0, 87, 67
1, 242885, Note_off_c, 0, 89, 64
1, 243026, Note_on_c, 0, 89, 92
1, 243075, Note_off_c, 0, 89, 63
1, 243198, Control_c, 0, 64, 37
1, 243211, Note_on_c, 0, 89, 89
1, 243212, Note_on_c, 0, 77, 75
1, 243213, Control_c, 0, 64, 53
1, 243216, Note_on_c, 0, 57, 72
1, 243228, Control_c, 0, 64, 55
1, 243242, Control_c, 0, 64, 51
1, 243257, Control_c, 0, 64, 35
1, 243272, Control_c, 0, 64, 0
1, 243355, Note_off_c, 0, 57, 63
1, 243406, Note_on_c, 0, 87, 94
1, 243444, Note_off_c, 0, 89, 63
1, 243589, Note_on_c, 0, 58, 76
1, 243591, Control_c, 0, 64, 42
1, 243606, Control_c, 0, 64, 58
1, 243621, Control_c, 0, 64, 56
1, 243636, Control_c, 0, 64, 45
1, 243651, Control_c, 0, 64, 0
1, 243730, Note_off_c, 0, 58, 63
1, 243756, Note_on_c, 0, 86, 83
1, 243779, Note_off_c, 0, 87, 63
1, 243803, Note_off_c, 0, 86, 64
1, 243941, Note_on_c, 0, 51, 72
1, 243941, Note_on_c, 0, 86, 79
1, 243971, Note_off_c, 0, 77, 59
1, 244107, Note_off_c, 0, 51, 62
1, 244116, Note_off_c, 0, 86, 56
1, 244116, Note_on_c, 0, 84, 78
1, 244127, Note_on_c, 0, 75, 71
1, 244161, Note_off_c, 0, 75, 67
1, 244171, Note_off_c, 0, 84, 64
1, 244301, Note_on_c, 0, 53, 62
1, 244311, Note_on_c, 0, 82, 79
1, 244326, Note_on_c, 0, 74, 55
1, 244347, Note_off_c, 0, 74, 63
1, 244349, Note_off_c, 0, 82, 64
1, 244490, Note_on_c, 0, 81, 83
1, 244496, Note_on_c, 0, 72, 65
1, 244514, Note_off_c, 0, 53, 64
1, 244524, Note_off_c, 0, 72, 67
1, 244533, Note_off_c, 0, 81, 65
1, 244680, Control_c, 0, 64, 40
1, 244688, Note_on_c, 0, 82, 84
1, 244695, Control_c, 0, 64, 59
1, 244696, Note_on_c, 0, 74, 60
1, 244710, Control_c, 0, 64, 65
1, 244725, Control_c, 0, 64, 69
1, 244739, Control_c, 0, 64, 73
1, 244754, Control_c, 0, 64, 76
1, 244769, Control_c, 0, 64, 78
1, 244784, Control_c, 0, 64, 79
1, 244799, Control_c, 0, 64, 80
1, 244814, Control_c, 0, 64, 81
1, 244829, Control_c, 0, 64, 82
1, 244843, Control_c, 0, 64, 82
1, 244857, Note_off_c, 0, 74, 63
1, 244858, Control_c, 0, 64, 81
1, 244870, Note_on_c, 0, 46, 64
1, 244871, Note_off_c, 0, 82, 64
1, 244873, Control_c, 0, 64, 75
1, 244895, Control_c, 0, 64, 64
1, 244910, Control_c, 0, 64, 0
1, 244927, Note_off_c, 0, 46, 60
1, 245061, Note_on_c, 0, 70, 68
1, 245068, Note_on_c, 0, 50, 63
1, 245106, Note_off_c, 0, 50, 67
1, 245140, Note_off_c, 0, 70, 0
1, 245171, Note_on_c, 0, 70, 21
1, 245249, Note_on_c, 0, 53, 53
1, 245281, Note_off_c, 0, 53, 66
1, 245467, Note_off_c, 0, 70, 56
1, 245483, Note_on_c, 0, 58, 44
1, 245895, Note_on_c, 0, 67, 51
1, 245932, Note_off_c, 0, 58, 55
1, 245983, Note_on_c, 0, 65, 65
1, 245998, Note_off_c, 0, 67, 59
1, 246072, Note_on_c, 0, 63, 64
1, 246074, Note_off_c, 0, 65, 60
1, 246119, Note_off_c, 0, 63, 59
1, 246140, Note_on_c, 0, 62, 66
1, 246234, Note_off_c, 0, 62, 61
1, 246236, Note_on_c, 0, 60, 63
1, 246422, Note_off_c, 0, 60, 64
1, 246432, Note_on_c, 0, 58, 60
1, 246442, Note_on_c, 0, 46, 34
1, 246468, Note_off_c, 0, 58, 65
1, 246620, Note_off_c, 0, 46, 47
1, 246634, Note_on_c, 0, 58, 52
1, 246641, Note_on_c, 0, 50, 39
1, 246784, Note_off_c, 0, 50, 59
1, 246820, Note_on_c, 0, 53, 38
1, 246987, Control_c, 0, 64, 13
1, 246993, Note_off_c, 0, 53, 55
1, 246997, Note_on_c, 0, 50, 42
1, 247002, Control_c, 0, 64, 37
1, 247017, Control_c, 0, 64, 54
1, 247031, Control_c, 0, 64, 63
1, 247046, Control_c, 0, 64, 66
1, 247061, Control_c, 0, 64, 67
1, 247076, Control_c, 0, 64, 68
1, 247091, Control_c, 0, 64, 69
1, 247106, Control_c, 0, 64, 70
1, 247121, Control_c, 0, 64, 72
1, 247142, Control_c, 0, 64, 74
1, 247157, Control_c, 0, 64, 75
1, 247172, Control_c, 0, 64, 76
1, 247187, Control_c, 0, 64, 77
1, 247190, Note_on_c, 0, 70, 65
1, 247193, Note_off_c, 0, 50, 42
1, 247197, Note_on_c, 0, 46, 44
1, 247202, Control_c, 0, 64, 78
1, 247210, Note_off_c, 0, 58, 60
1, 247216, Control_c, 0, 64, 79
1, 247231, Control_c, 0, 64, 79
1, 247246, Control_c, 0, 64, 80
1, 247250, Note_off_c, 0, 70, 63
1, 247291, Control_c, 0, 64, 80
1, 247321, Control_c, 0, 64, 80
1, 247365, Control_c, 0, 64, 79
1, 247366, Note_on_c, 0, 50, 42
1, 247367, Note_off_c, 0, 46, 54
1, 247368, Note_on_c, 0, 70, 78
1, 247380, Control_c, 0, 64, 78
1, 247394, Control_c, 0, 64, 76
1, 247408, Control_c, 0, 64, 74
1, 247423, Control_c, 0, 64, 73
1, 247438, Control_c, 0, 64, 72
1, 247453, Control_c, 0, 64, 70
1, 247468, Control_c, 0, 64, 68
1, 247482, Control_c, 0, 64, 67
1, 247528, Control_c, 0, 64, 66
1, 247543, Control_c, 0, 64, 66
1, 247555, Note_on_c, 0, 72, 83
1, 247556, Note_off_c, 0, 50, 63
1, 247572, Control_c, 0, 64, 66
1, 247575, Note_on_c, 0, 53, 51
1, 247575, Note_off_c, 0, 70, 59
1, 247587, Control_c, 0, 64, 67
1, 247602, Control_c, 0, 64, 67
1, 247646, Control_c, 0, 64, 67
1, 247675, Note_off_c, 0, 53, 54
1, 247676, Control_c, 0, 64, 66
1, 247691, Control_c, 0, 64, 64
1, 247705, Control_c, 0, 64, 60
1, 247720, Control_c, 0, 64, 54
1, 247735, Control_c, 0, 64, 45
1, 247742, Note_on_c, 0, 70, 86
1, 247750, Control_c, 0, 64, 17
1, 247765, Control_c, 0, 64, 0
1, 247772, Note_off_c, 0, 72, 62
1, 247933, Note_on_c, 0, 69, 77
1, 247945, Note_on_c, 0, 46, 46
1, 247970, Note_off_c, 0, 70, 62
1, 248110, Note_off_c, 0, 46, 55
1, 248127, Note_on_c, 0, 50, 47
1, 248131, Note_on_c, 0, 68, 71
1, 248153, Note_off_c, 0, 69, 60
1, 248293, Note_off_c, 0, 50, 58
1, 248322, Control_c, 0, 64, 44
1, 248327, Note_on_c, 0, 53, 37
1, 248336, Control_c, 0, 64, 60
1, 248351, Control_c, 0, 64, 65
1, 248366, Control_c, 0, 64, 68
1, 248380, Control_c, 0, 64, 71
1, 248395, Control_c, 0, 64, 72
1, 248410, Control_c, 0, 64, 72
1, 248425, Control_c, 0, 64, 73
1, 248497, Note_on_c, 0, 50, 50
1, 248514, Control_c, 0, 64, 72
1, 248528, Control_c, 0, 64, 72
1, 248532, Note_off_c, 0, 53, 37
1, 248535, Note_off_c, 0, 68, 63
1, 248543, Control_c, 0, 64, 70
1, 248558, Control_c, 0, 64, 67
1, 248573, Control_c, 0, 64, 64
1, 248587, Control_c, 0, 64, 63
1, 248602, Control_c, 0, 64, 63
1, 248617, Control_c, 0, 64, 65
1, 248640, Control_c, 0, 64, 66
1, 248669, Control_c, 0, 64, 65
1, 248689, Note_off_c, 0, 50, 58
1, 248696, Note_on_c, 0, 68, 67
1, 248708, Note_on_c, 0, 46, 46
1, 248743, Control_c, 0, 64, 65
1, 248755, Note_off_c, 0, 68, 65
1, 248787, Control_c, 0, 64, 64
1, 248802, Control_c, 0, 64, 63
1, 248817, Control_c, 0, 64, 63
1, 248832, Control_c, 0, 64, 61
1, 248847, Control_c, 0, 64, 61
1, 248862, Control_c, 0, 64, 59
1, 248868, Note_off_c, 0, 46, 54
1, 248871, Note_on_c, 0, 50, 48
1, 248875, Note_on_c, 0, 68, 74
1, 248877, Control_c, 0, 64, 57
1, 248892, Control_c, 0, 64, 54
1, 248906, Control_c, 0, 64, 49
1, 248908, Note_off_c, 0, 68, 62
1, 248921, Control_c, 0, 64, 47
1, 248936, Control_c, 0, 64, 41
1, 248951, Control_c, 0, 64, 23
1, 248966, Control_c, 0, 64, 0
1, 249064, Note_on_c, 0, 68, 67
1, 249074, Note_on_c, 0, 53, 41
1, 249115, Note_off_c, 0, 50, 57
1, 249116, Note_off_c, 0, 68, 57
1, 249162, Note_off_c, 0, 53, 63
1, 249273, Note_on_c, 0, 80, 63
1, 249333, Note_off_c, 0, 80, 55
1, 249357, Note_on_c, 0, 82, 69
1, 249444, Note_off_c, 0, 82, 60
1, 249451, Note_on_c, 0, 79, 68
1, 249485, Note_on_c, 0, 46, 33
1, 249536, Note_on_c, 0, 80, 74
1, 249536, Note_off_c, 0, 79, 61
1, 249603, Note_off_c, 0, 80, 63
1, 249627, Note_on_c, 0, 77, 66
1, 249642, Note_on_c, 0, 50, 36
1, 249665, Note_off_c, 0, 46, 42
1, 249708, Note_off_c, 0, 77, 57
1, 249717, Note_on_c, 0, 79, 73
1, 249788, Note_on_c, 0, 75, 70
1, 249801, Note_on_c, 0, 53, 41
1, 249801, Note_off_c, 0, 50, 46
1, 249803, Note_off_c, 0, 79, 56
1, 249868, Note_on_c, 0, 77, 77
1, 249881, Note_off_c, 0, 75, 59
1, 249933, Note_off_c, 0, 53, 63
1, 249935, Note_off_c, 0, 77, 64
1, 249953, Note_on_c, 0, 74, 76
1, 249959, Note_on_c, 0, 56, 52
1, 250027, Control_c, 0, 64, 12
1, 250042, Control_c, 0, 64, 13
1, 250044, Note_off_c, 0, 74, 61
1, 250050, Note_on_c, 0, 75, 76
1, 250057, Control_c, 0, 64, 15
1, 250072, Control_c, 0, 64, 17
1, 250087, Control_c, 0, 64, 21
1, 250101, Control_c, 0, 64, 22
1, 250111, Note_off_c, 0, 75, 63
1, 250130, Note_off_c, 0, 56, 36
1, 250139, Note_on_c, 0, 53, 39
1, 250143, Note_on_c, 0, 72, 76
1, 250217, Note_off_c, 0, 72, 53
1, 250227, Note_on_c, 0, 74, 76
1, 250242, Control_c, 0, 64, 23
1, 250281, Note_off_c, 0, 53, 57
1, 250286, Note_on_c, 0, 50, 53
1, 250310, Note_off_c, 0, 74, 63
1, 250316, Control_c, 0, 64, 24
1, 250324, Note_on_c, 0, 70, 78
1, 250346, Control_c, 0, 64, 24
1, 250375, Control_c, 0, 64, 25
1, 250391, Note_off_c, 0, 70, 63
1, 250400, Note_on_c, 0, 72, 81
1, 250403, Control_c, 0, 64, 26
1, 250433, Control_c, 0, 64, 27
1, 250448, Control_c, 0, 64, 28
1, 250462, Control_c, 0, 64, 29
1, 250488, Note_on_c, 0, 46, 39
1, 250494, Note_off_c, 0, 50, 34
1, 250495, Note_on_c, 0, 68, 79
1, 250495, Note_off_c, 0, 72, 63
1, 250537, Control_c, 0, 64, 30
1, 250551, Control_c, 0, 64, 31
1, 250552, Note_off_c, 0, 46, 55
1, 250571, Note_off_c, 0, 68, 65
1, 250573, Note_on_c, 0, 70, 86
1, 250611, Control_c, 0, 64, 31
1, 250625, Control_c, 0, 64, 28
1, 250640, Control_c, 0, 64, 23
1, 250655, Control_c, 0, 64, 15
1, 250667, Note_on_c, 0, 68, 84
1, 250669, Control_c, 0, 64, 0
1, 250686, Note_off_c, 0, 70, 62
1, 250840, Note_off_c, 0, 68, 61
1, 250850, Note_on_c, 0, 67, 78
1, 250859, Note_on_c, 0, 47, 46
1, 250884, Note_off_c, 0, 67, 67
1, 251036, Note_off_c, 0, 47, 59
1, 251053, Note_on_c, 0, 50, 48
1, 251053, Note_on_c, 0, 67, 68
1, 251195, Note_off_c, 0, 50, 59
1, 251231, Note_on_c, 0, 53, 36
1, 251255, Control_c, 0, 64, 8
1, 251315, Control_c, 0, 64, 10
1, 251345, Control_c, 0, 64, 12
1, 251360, Control_c, 0, 64, 13
1, 251389, Control_c, 0, 64, 16
1, 251390, Note_off_c, 0, 53, 61
1, 251404, Control_c, 0, 64, 21
1, 251416, Note_on_c, 0, 55, 45
1, 251419, Control_c, 0, 64, 24
1, 251434, Control_c, 0, 64, 27
1, 251448, Control_c, 0, 64, 28
1, 251463, Control_c, 0, 64, 30
1, 251478, Control_c, 0, 64, 33
1, 251494, Control_c, 0, 64, 39
1, 251509, Control_c, 0, 64, 48
1, 251523, Control_c, 0, 64, 56
1, 251538, Control_c, 0, 64, 59
1, 251553, Control_c, 0, 64, 60
1, 251583, Control_c, 0, 64, 60
1, 251588, Note_off_c, 0, 55, 50
1, 251595, Note_off_c, 0, 67, 53
1, 251597, Control_c, 0, 64, 62
1, 251602, Note_on_c, 0, 79, 64
1, 251607, Note_on_c, 0, 53, 46
1, 251612, Control_c, 0, 64, 62
1, 251634, Control_c, 0, 64, 62
1, 251647, Note_off_c, 0, 79, 60
1, 251649, Control_c, 0, 64, 60
1, 251664, Control_c, 0, 64, 59
1, 251679, Control_c, 0, 64, 56
1, 251694, Control_c, 0, 64, 51
1, 251708, Control_c, 0, 64, 42
1, 251723, Control_c, 0, 64, 12
1, 251738, Control_c, 0, 64, 0
1, 251783, Note_off_c, 0, 53, 59
1, 251785, Note_on_c, 0, 79, 70
1, 251787, Note_on_c, 0, 50, 48
1, 251966, Note_on_c, 0, 77, 79
1, 251977, Note_off_c, 0, 79, 60
1, 251987, Note_on_c, 0, 47, 51
1, 252011, Note_off_c, 0, 77, 65
1, 252017, Note_off_c, 0, 50, 58
1, 252022, Note_off_c, 0, 47, 64
1, 252150, Note_on_c, 0, 77, 76
1, 252320, Note_on_c, 0, 58, 53
1, 252336, Note_on_c, 0, 76, 78
1, 252349, Note_off_c, 0, 77, 63
1, 252386, Note_off_c, 0, 76, 64
1, 252516, Note_off_c, 0, 58, 46
1, 252527, Note_on_c, 0, 61, 51
1, 252529, Note_on_c, 0, 76, 64
1, 252665, Control_c, 0, 64, 10
1, 252701, Note_off_c, 0, 61, 54
1, 252721, Note_on_c, 0, 64, 40
1, 252858, Control_c, 0, 64, 0
1, 252896, Note_off_c, 0, 64, 58
1, 252922, Note_on_c, 0, 67, 42
1, 253080, Note_off_c, 0, 76, 57
1, 253097, Note_on_c, 0, 85, 61
1, 253135, Note_off_c, 0, 85, 67
1, 253280, Note_off_c, 0, 67, 54
1, 253288, Note_on_c, 0, 85, 67
1, 253457, Note_off_c, 0, 85, 62
1, 253467, Note_on_c, 0, 76, 64
1, 253657, Note_on_c, 0, 79, 65
1, 253668, Note_off_c, 0, 76, 55
1, 253838, Note_on_c, 0, 77, 64
1, 253855, Note_off_c, 0, 79, 59
1, 253872, Note_on_c, 0, 57, 34
1, 253882, Note_off_c, 0, 77, 63
1, 254051, Note_off_c, 0, 57, 49
1, 254068, Note_on_c, 0, 77, 41
1, 254069, Note_on_c, 0, 60, 38
1, 254225, Note_off_c, 0, 60, 62
1, 254263, Note_on_c, 0, 65, 39
1, 254439, Note_off_c, 0, 65, 53
1, 254468, Note_on_c, 0, 69, 36
1, 254643, Note_on_c, 0, 78, 63
1, 254687, Note_off_c, 0, 77, 54
1, 254825, Note_off_c, 0, 69, 46
1, 254857, Note_off_c, 0, 78, 53
1, 254874, Note_on_c, 0, 79, 43
1, 255032, Note_off_c, 0, 79, 58
1, 255044, Note_on_c, 0, 75, 56
1, 255239, Note_on_c, 0, 73, 58
1, 255239, Note_off_c, 0, 75, 56
1, 255431, Note_off_c, 0, 73, 61
1, 255438, Note_on_c, 0, 74, 57
1, 255444, Note_on_c, 0, 58, 39
1, 255467, Note_off_c, 0, 74, 67
1, 255612, Note_off_c, 0, 58, 49
1, 255634, Note_on_c, 0, 74, 45
1, 255659, Note_on_c, 0, 62, 36
1, 255807, Note_off_c, 0, 62, 50
1, 255808, Control_c, 0, 64, 35
1, 255823, Control_c, 0, 64, 50
1, 255829, Note_on_c, 0, 65, 40
1, 255838, Control_c, 0, 64, 56
1, 255852, Control_c, 0, 64, 58
1, 255867, Control_c, 0, 64, 60
1, 255882, Control_c, 0, 64, 62
1, 255897, Control_c, 0, 64, 62
1, 255971, Control_c, 0, 64, 62
1, 255986, Control_c, 0, 64, 61
1, 256001, Control_c, 0, 64, 60
1, 256016, Control_c, 0, 64, 59
1, 256031, Note_off_c, 0, 74, 61
1, 256031, Control_c, 0, 64, 58
1, 256045, Control_c, 0, 64, 57
1, 256060, Control_c, 0, 64, 54
1, 256075, Control_c, 0, 64, 50
1, 256081, Note_off_c, 0, 65, 37
1, 256082, Note_on_c, 0, 70, 33
1, 256089, Control_c, 0, 64, 45
1, 256104, Control_c, 0, 64, 39
1, 256126, Control_c, 0, 64, 21
1, 256141, Control_c, 0, 64, 0
1, 256353, Note_on_c, 0, 77, 24
1, 256386, Note_off_c, 0, 77, 47
1, 256574, Note_off_c, 0, 70, 47
1, 256576, Note_on_c, 0, 79, 59
1, 256672, Note_on_c, 0, 77, 65
1, 256674, Note_off_c, 0, 79, 58
1, 256749, Note_off_c, 0, 77, 61
1, 256751, Note_on_c, 0, 75, 61
1, 256788, Note_off_c, 0, 75, 60
1, 256824, Note_on_c, 0, 74, 65
1, 256923, Note_off_c, 0, 74, 58
1, 256926, Note_on_c, 0, 72, 66
1, 256946, Note_on_c, 0, 63, 42
1, 257097, Note_off_c, 0, 63, 54
1, 257119, Note_on_c, 0, 65, 41
1, 257217, Control_c, 0, 64, 18
1, 257232, Control_c, 0, 64, 38
1, 257247, Control_c, 0, 64, 47
1, 257262, Control_c, 0, 64, 48
1, 257277, Control_c, 0, 64, 48
1, 257279, Note_off_c, 0, 65, 50
1, 257292, Control_c, 0, 64, 49
1, 257302, Note_on_c, 0, 63, 30
1, 257336, Control_c, 0, 64, 49
1, 257351, Control_c, 0, 64, 48
1, 257366, Control_c, 0, 64, 49
1, 257469, Control_c, 0, 64, 48
1, 257473, Note_on_c, 0, 69, 58
1, 257474, Note_off_c, 0, 63, 52
1, 257484, Control_c, 0, 64, 47
1, 257485, Note_off_c, 0, 72, 56
1, 257487, Note_on_c, 0, 65, 40
1, 257499, Control_c, 0, 64, 47
1, 257507, Note_off_c, 0, 69, 67
1, 257514, Control_c, 0, 64, 46
1, 257529, Control_c, 0, 64, 44
1, 257543, Control_c, 0, 64, 41
1, 257558, Control_c, 0, 64, 37
1, 257573, Control_c, 0, 64, 32
1, 257588, Control_c, 0, 64, 24
1, 257603, Control_c, 0, 64, 10
1, 257625, Control_c, 0, 64, 0
1, 257670, Note_off_c, 0, 65, 51
1, 257674, Note_on_c, 0, 70, 63
1, 257693, Note_on_c, 0, 62, 37
1, 257733, Note_off_c, 0, 70, 61
1, 257756, Note_on_c, 0, 77, 66
1, 257837, Note_on_c, 0, 76, 77
1, 257841, Note_off_c, 0, 62, 52
1, 257841, Note_off_c, 0, 77, 63
1, 257848, Note_on_c, 0, 65, 40
1, 257924, Note_on_c, 0, 77, 82
1, 257947, Note_off_c, 0, 76, 62
1, 257992, Note_off_c, 0, 65, 53
1, 258010, Note_on_c, 0, 79, 85
1, 258016, Note_off_c, 0, 77, 59
1, 258016, Note_on_c, 0, 62, 32
1, 258094, Note_on_c, 0, 77, 76
1, 258128, Note_off_c, 0, 79, 62
1, 258138, Note_off_c, 0, 62, 54
1, 258180, Note_on_c, 0, 75, 81
1, 258183, Note_on_c, 0, 65, 26
1, 258196, Note_off_c, 0, 77, 61
1, 258244, Note_off_c, 0, 75, 63
1, 258257, Note_on_c, 0, 74, 81
1, 258334, Note_off_c, 0, 65, 51
1, 258338, Note_on_c, 0, 72, 81
1, 258341, Note_off_c, 0, 74, 58
1, 258347, Note_on_c, 0, 63, 45
1, 258366, Note_off_c, 0, 72, 70
1, 258556, Note_on_c, 0, 72, 75
1, 258559, Note_off_c, 0, 63, 59
1, 258576, Note_on_c, 0, 65, 45
1, 258740, Note_on_c, 0, 63, 50
1, 258742, Note_off_c, 0, 65, 56
1, 258916, Note_off_c, 0, 63, 61
1, 258921, Note_on_c, 0, 69, 73
1, 258927, Note_off_c, 0, 72, 58
1, 258941, Note_on_c, 0, 65, 54
1, 258952, Note_off_c, 0, 69, 68
1, 259128, Note_on_c, 0, 70, 68
1, 259131, Note_off_c, 0, 65, 55
1, 259141, Note_on_c, 0, 62, 46
1, 259182, Note_off_c, 0, 70, 63
1, 259205, Note_on_c, 0, 77, 70
1, 259285, Note_off_c, 0, 77, 63
1, 259287, Note_on_c, 0, 76, 81
1, 259296, Note_off_c, 0, 62, 60
1, 259315, Note_on_c, 0, 65, 41
1, 259379, Note_on_c, 0, 77, 78
1, 259395, Note_off_c, 0, 76, 63
1, 259456, Note_on_c, 0, 79, 82
1, 259457, Note_off_c, 0, 77, 59
1, 259467, Note_off_c, 0, 65, 47
1, 259480, Note_on_c, 0, 62, 47
1, 259548, Note_on_c, 0, 77, 80
1, 259573, Note_off_c, 0, 79, 61
1, 259616, Note_off_c, 0, 62, 62
1, 259619, Note_on_c, 0, 75, 79
1, 259635, Note_off_c, 0, 77, 62
1, 259671, Note_on_c, 0, 65, 32
1, 259679, Note_off_c, 0, 75, 63
1, 259700, Note_on_c, 0, 74, 82
1, 259736, Note_off_c, 0, 74, 63
1, 259789, Note_off_c, 0, 65, 44
1, 259803, Note_on_c, 0, 74, 76
1, 259810, Note_on_c, 0, 63, 48
1, 259990, Note_off_c, 0, 63, 60
1, 260001, Note_on_c, 0, 72, 73
1, 260020, Note_on_c, 0, 67, 41
1, 260031, Note_off_c, 0, 74, 62
1, 260132, Note_off_c, 0, 72, 61
1, 260175, Note_on_c, 0, 63, 58
1, 260185, Note_off_c, 0, 67, 56
1, 260333, Note_off_c, 0, 63, 60
1, 260350, Note_on_c, 0, 72, 79
1, 260369, Note_on_c, 0, 67, 52
1, 260388, Note_off_c, 0, 72, 65
1, 260540, Note_on_c, 0, 72, 75
1, 260544, Note_off_c, 0, 67, 55
1, 260548, Note_on_c, 0, 64, 50
1, 260723, Note_off_c, 0, 64, 60
1, 260734, Note_on_c, 0, 70, 71
1, 260746, Note_on_c, 0, 67, 41
1, 260768, Note_off_c, 0, 72, 57
1, 260837, Note_off_c, 0, 70, 61
1, 260902, Control_c, 0, 64, 8
1, 260905, Note_off_c, 0, 67, 49
1, 260911, Note_on_c, 0, 64, 48
1, 260976, Control_c, 0, 64, 0
1, 261042, Note_off_c, 0, 64, 62
1, 261086, Note_on_c, 0, 70, 65
1, 261090, Note_on_c, 0, 67, 46
1, 261113, Note_off_c, 0, 70, 67
1, 261282, Note_off_c, 0, 67, 50
1, 261286, Note_on_c, 0, 69, 58
1, 261286, Note_on_c, 0, 53, 46
1, 261336, Note_off_c, 0, 69, 58
1, 261368, Note_on_c, 0, 70, 69
1, 261455, Note_on_c, 0, 69, 63
1, 261455, Note_off_c, 0, 70, 56
1, 261502, Note_off_c, 0, 69, 64
1, 261539, Note_on_c, 0, 65, 59
1, 261605, Note_off_c, 0, 65, 50
1, 261629, Note_on_c, 0, 70, 67
1, 261632, Note_on_c, 0, 55, 53
1, 261646, Note_off_c, 0, 53, 54
1, 261691, Note_off_c, 0, 70, 59
1, 261718, Note_on_c, 0, 72, 68
1, 261798, Note_on_c, 0, 70, 75
1, 261804, Note_off_c, 0, 72, 62
1, 261854, Note_off_c, 0, 70, 64
1, 261882, Note_on_c, 0, 65, 75
1, 261949, Note_off_c, 0, 65, 56
1, 261972, Note_on_c, 0, 57, 62
1, 261972, Note_on_c, 0, 72, 78
1, 261996, Note_off_c, 0, 55, 54
1, 262045, Note_off_c, 0, 72, 63
1, 262058, Note_on_c, 0, 74, 73
1, 262152, Note_off_c, 0, 74, 63
1, 262153, Note_on_c, 0, 72, 78
1, 262196, Note_off_c, 0, 72, 64
1, 262233, Note_on_c, 0, 65, 79
1, 262317, Note_off_c, 0, 65, 58
1, 262322, Note_on_c, 0, 74, 82
1, 262325, Note_on_c, 0, 58, 66
1, 262341, Note_off_c, 0, 57, 58
1, 262401, Note_off_c, 0, 74, 66
1, 262405, Note_on_c, 0, 75, 85
1, 262426, Note_off_c, 0, 58, 61
1, 262482, Note_on_c, 0, 74, 81
1, 262496, Note_off_c, 0, 75, 60
1, 262541, Note_off_c, 0, 74, 65
1, 262568, Note_on_c, 0, 65, 79
1, 262649, Note_off_c, 0, 65, 63
1, 262659, Note_on_c, 0, 75, 83
1, 262669, Note_on_c, 0, 60, 52
1, 262687, Note_off_c, 0, 75, 62
1, 262821, Note_off_c, 0, 60, 63
1, 262849, Note_on_c, 0, 75, 78
1, 262867, Note_on_c, 0, 65, 46
1, 262884, Note_off_c, 0, 75, 63
1, 263024, Note_off_c, 0, 65, 54
1, 263033, Note_on_c, 0, 57, 59
1, 263200, Note_off_c, 0, 57, 63
1, 263210, Note_on_c, 0, 72, 79
1, 263221, Note_on_c, 0, 65, 63
1, 263237, Note_off_c, 0, 72, 65
1, 263385, Note_off_c, 0, 65, 56
1, 263401, Note_on_c, 0, 58, 52
1, 263402, Note_on_c, 0, 75, 70
1, 263562, Note_off_c, 0, 58, 58
1, 263578, Note_on_c, 0, 74, 67
1, 263586, Note_on_c, 0, 65, 50
1, 263611, Note_off_c, 0, 75, 60
1, 263622, Note_off_c, 0, 74, 64
1, 263755, Note_on_c, 0, 55, 52
1, 263763, Note_on_c, 0, 72, 71
1, 263774, Note_off_c, 0, 65, 48
1, 263787, Note_off_c, 0, 72, 69
1, 263924, Note_off_c, 0, 55, 52
1, 263941, Note_on_c, 0, 70, 68
1, 263944, Note_on_c, 0, 65, 55
1, 263969, Note_off_c, 0, 70, 68
1, 264124, Note_off_c, 0, 65, 57
1, 264132, Note_on_c, 0, 53, 48
1, 264136, Note_on_c, 0, 69, 57
1, 264187, Note_off_c, 0, 69, 61
1, 264229, Note_on_c, 0, 65, 68
1, 264321, Note_off_c, 0, 65, 48
1, 264323, Note_on_c, 0, 76, 58
1, 264396, Note_on_c, 0, 77, 67
1, 264404, Note_off_c, 0, 76, 56
1, 264493, Note_on_c, 0, 55, 69
1, 264493, Note_off_c, 0, 77, 62
1, 264497, Note_on_c, 0, 70, 71
1, 264538, Note_off_c, 0, 53, 61
1, 264556, Note_off_c, 0, 70, 63
1, 264577, Note_on_c, 0, 65, 73
1, 264663, Note_off_c, 0, 65, 55
1, 264672, Note_on_c, 0, 76, 71
1, 264744, Note_on_c, 0, 77, 72
1, 264779, Note_off_c, 0, 76, 50
1, 264832, Note_on_c, 0, 72, 76
1, 264839, Note_off_c, 0, 77, 61
1, 264844, Note_on_c, 0, 57, 83
1, 264878, Note_off_c, 0, 55, 62
1, 264905, Note_off_c, 0, 72, 63
1, 264923, Note_on_c, 0, 65, 79
1, 265015, Note_off_c, 0, 65, 55
1, 265019, Note_on_c, 0, 76, 76
1, 265109, Note_on_c, 0, 77, 73
1, 265111, Note_off_c, 0, 76, 58
1, 265194, Note_on_c, 0, 74, 76
1, 265200, Note_off_c, 0, 77, 62
1, 265204, Note_on_c, 0, 58, 79
1, 265251, Note_off_c, 0, 57, 59
1, 265267, Note_off_c, 0, 74, 63
1, 265278, Note_on_c, 0, 65, 83
1, 265333, Note_off_c, 0, 58, 64
1, 265367, Note_off_c, 0, 65, 59
1, 265370, Note_on_c, 0, 76, 78
1, 265456, Note_on_c, 0, 77, 71
1, 265470, Note_off_c, 0, 76, 55
1, 265533, Note_on_c, 0, 75, 87
1, 265536, Note_on_c, 0, 60, 64
1, 265536, Note_off_c, 0, 77, 63
1, 265568, Note_off_c, 0, 75, 64
1, 265580, Note_off_c, 0, 60, 66
1, 265626, Note_on_c, 0, 65, 61
1, 265704, Note_off_c, 0, 65, 54
1, 265708, Note_on_c, 0, 75, 76
1, 265731, Note_on_c, 0, 64, 57
1, 265736, Note_off_c, 0, 75, 61
1, 265766, Note_off_c, 0, 64, 66
1, 265813, Note_on_c, 0, 65, 64
1, 265864, Note_off_c, 0, 65, 60
1, 265898, Note_on_c, 0, 57, 80
1, 265948, Note_off_c, 0, 57, 62
1, 265984, Note_on_c, 0, 65, 74
1, 266014, Note_on_c, 0, 72, 77
1, 266051, Note_off_c, 0, 72, 53
1, 266053, Note_off_c, 0, 65, 60
1, 266069, Note_on_c, 0, 74, 76
1, 266071, Note_on_c, 0, 64, 67
1, 266095, Note_off_c, 0, 74, 68
1, 266105, Note_off_c, 0, 64, 65
1, 266126, Note_on_c, 0, 72, 84
1, 266142, Note_on_c, 0, 65, 66
1, 266159, Note_off_c, 0, 72, 57
1, 266175, Note_on_c, 0, 71, 75
1, 266204, Note_off_c, 0, 65, 59
1, 266219, Note_on_c, 0, 72, 81
1, 266221, Note_off_c, 0, 71, 65
1, 266240, Note_on_c, 0, 58, 63
1, 266262, Note_on_c, 0, 75, 85
1, 266276, Note_off_c, 0, 72, 65
1, 266302, Note_off_c, 0, 58, 55
1, 266333, Note_on_c, 0, 65, 60
1, 266401, Note_off_c, 0, 65, 57
1, 266425, Note_on_c, 0, 64, 62
1, 266428, Note_on_c, 0, 74, 82
1, 266430, Note_off_c, 0, 75, 39
1, 266459, Note_off_c, 0, 74, 63
1, 266461, Note_off_c, 0, 64, 64
1, 266503, Note_on_c, 0, 65, 71
1, 266562, Note_off_c, 0, 65, 58
1, 266604, Note_on_c, 0, 55, 68
1, 266616, Note_on_c, 0, 72, 80
1, 266636, Note_off_c, 0, 72, 70
1, 266650, Note_off_c, 0, 55, 58
1, 266694, Note_on_c, 0, 64, 66
1, 266745, Note_off_c, 0, 64, 61
1, 266781, Note_on_c, 0, 70, 84
1, 266787, Note_on_c, 0, 62, 68
1, 266825, Note_off_c, 0, 62, 60
1, 266828, Note_off_c, 0, 70, 63
1, 266873, Note_on_c, 0, 64, 66
1, 266962, Note_off_c, 0, 64, 59
1, 266965, Note_on_c, 0, 69, 79
1, 266971, Note_on_c, 0, 53, 69
1, 266981, Control_c, 0, 64, 30
1, 266995, Control_c, 0, 64, 57
1, 267010, Control_c, 0, 64, 63
1, 267025, Control_c, 0, 64, 64
1, 267038, Note_off_c, 0, 69, 63
1, 267049, Note_on_c, 0, 77, 75
1, 267054, Control_c, 0, 64, 64
1, 267069, Control_c, 0, 64, 65
1, 267084, Control_c, 0, 64, 66
1, 267099, Control_c, 0, 64, 67
1, 267114, Control_c, 0, 64, 67
1, 267132, Note_on_c, 0, 72, 80
1, 267144, Note_off_c, 0, 77, 62
1, 267213, Note_on_c, 0, 69, 78
1, 267223, Note_off_c, 0, 72, 63
1, 267233, Control_c, 0, 64, 67
1, 267258, Note_off_c, 0, 53, 65
1, 267265, Note_off_c, 0, 69, 65
1, 267292, Control_c, 0, 64, 66
1, 267293, Note_on_c, 0, 65, 81
1, 267321, Control_c, 0, 64, 66
1, 267350, Note_off_c, 0, 65, 63
1, 267358, Control_c, 0, 64, 65
1, 267373, Control_c, 0, 64, 65
1, 267387, Note_on_c, 0, 60, 80
1, 267388, Control_c, 0, 64, 64
1, 267403, Control_c, 0, 64, 63
1, 267433, Control_c, 0, 64, 63
1, 267447, Control_c, 0, 64, 62
1, 267462, Control_c, 0, 64, 61
1, 267464, Note_on_c, 0, 57, 81
1, 267477, Note_off_c, 0, 60, 65
1, 267477, Control_c, 0, 64, 60
1, 267492, Control_c, 0, 64, 58
1, 267507, Control_c, 0, 64, 53
1, 267522, Control_c, 0, 64, 40
1, 267537, Control_c, 0, 64, 0
1, 267538, Note_off_c, 0, 57, 61
1, 267548, Note_on_c, 0, 53, 88
1, 267623, Note_off_c, 0, 53, 66
1, 267644, Note_on_c, 0, 41, 83
1, 267644, Note_on_c, 0, 29, 78
1, 267730, Control_c, 0, 64, 38
1, 267744, Control_c, 0, 64, 54
1, 267759, Control_c, 0, 64, 60
1, 267774, Control_c, 0, 64, 61
1, 267789, Control_c, 0, 64, 63
1, 267804, Control_c, 0, 64, 64
1, 267819, Control_c, 0, 64, 66
1, 267833, Control_c, 0, 64, 68
1, 267848, Control_c, 0, 64, 71
1, 267863, Control_c, 0, 64, 73
1, 267877, Control_c, 0, 64, 74
1, 267892, Control_c, 0, 64, 75
1, 267907, Control_c, 0, 64, 76
1, 267981, Control_c, 0, 64, 74
1, 267996, Control_c, 0, 64, 70
1, 268011, Control_c, 0, 64, 63
1, 268014, Note_off_c, 0, 29, 62
1, 268026, Control_c, 0, 64, 35
1, 268029, Note_off_c, 0, 41, 62
1, 268041, Control_c, 0, 64, 0
1, 268299, Note_on_c, 0, 53, 69
1, 268341, Note_on_c, 0, 58, 69
1, 268396, Note_on_c, 0, 62, 70
1, 268420, Note_off_c, 0, 53, 62
1, 268450, Note_on_c, 0, 65, 95
1, 268452, Note_off_c, 0, 58, 64
1, 268454, Note_on_c, 0, 46, 83
1, 268462, Note_on_c, 0, 34, 74
1, 268485, Note_off_c, 0, 62, 64
1, 268492, Control_c, 0, 64, 53
1, 268507, Control_c, 0, 64, 64
1, 268522, Control_c, 0, 64, 71
1, 268537, Control_c, 0, 64, 84
1, 268552, Control_c, 0, 64, 112
1, 268566, Control_c, 0, 64, 127
1, 268608, Note_off_c, 0, 34, 59
1, 268614, Note_off_c, 0, 46, 63
1, 268968, Note_off_c, 0, 65, 60
1, 269025, Note_on_c, 0, 67, 64
1, 269091, Note_on_c, 0, 65, 80
1, 269112, Note_off_c, 0, 67, 60
1, 269123, Control_c, 0, 64, 91
1, 269138, Control_c, 0, 64, 67
1, 269153, Control_c, 0, 64, 0
1, 269159, Note_off_c, 0, 65, 64
1, 269160, Note_on_c, 0, 63, 85
1, 269198, Note_off_c, 0, 63, 62
1, 269343, Note_on_c, 0, 62, 69
1, 269385, Note_off_c, 0, 62, 63
1, 269518, Note_on_c, 0, 60, 75
1, 269555, Note_off_c, 0, 60, 65
1, 269693, Note_on_c, 0, 58, 86
1, 269725, Note_off_c, 0, 58, 64
1, 269872, Note_on_c, 0, 58, 76
1, 270052, Note_on_c, 0, 67, 76
1, 270060, Note_off_c, 0, 58, 62
1, 270095, Note_off_c, 0, 67, 62
1, 270238, Note_on_c, 0, 51, 43
1, 270245, Note_on_c, 0, 67, 70
1, 270255, Note_on_c, 0, 58, 59
1, 270256, Note_on_c, 0, 39, 43
1, 270384, Control_c, 0, 64, 24
1, 270398, Control_c, 0, 64, 46
1, 270413, Control_c, 0, 64, 58
1, 270428, Control_c, 0, 64, 66
1, 270443, Control_c, 0, 64, 71
1, 270458, Control_c, 0, 64, 78
1, 270472, Control_c, 0, 64, 86
1, 270487, Control_c, 0, 64, 93
1, 270502, Control_c, 0, 64, 100
1, 270517, Control_c, 0, 64, 111
1, 270532, Control_c, 0, 64, 127
1, 270569, Note_off_c, 0, 39, 55
1, 270762, Note_off_c, 0, 58, 37
1, 270816, Note_on_c, 0, 65, 66
1, 270820, Note_off_c, 0, 67, 37
1, 270947, Control_c, 0, 64, 110
1, 270949, Note_off_c, 0, 51, 35
1, 270962, Control_c, 0, 64, 90
1, 270977, Control_c, 0, 64, 72
1, 270990, Note_on_c, 0, 50, 50
1, 270991, Note_on_c, 0, 69, 78
1, 270992, Control_c, 0, 64, 56
1, 271007, Control_c, 0, 64, 0
1, 271040, Note_off_c, 0, 65, 55
1, 271147, Control_c, 0, 64, 41
1, 271162, Control_c, 0, 64, 58
1, 271174, Note_on_c, 0, 70, 86
1, 271177, Control_c, 0, 64, 68
1, 271182, Note_off_c, 0, 69, 65
1, 271192, Control_c, 0, 64, 78
1, 271207, Control_c, 0, 64, 94
1, 271221, Control_c, 0, 64, 113
1, 271236, Control_c, 0, 64, 127
1, 271239, Note_off_c, 0, 70, 63
1, 271334, Note_off_c, 0, 50, 60
1, 271340, Control_c, 0, 64, 107
1, 271355, Control_c, 0, 64, 93
1, 271369, Note_on_c, 0, 70, 77
1, 271369, Control_c, 0, 64, 79
1, 271370, Note_on_c, 0, 55, 53
1, 271379, Note_on_c, 0, 52, 48
1, 271384, Control_c, 0, 64, 66
1, 271399, Control_c, 0, 64, 31
1, 271413, Control_c, 0, 64, 0
1, 271544, Note_on_c, 0, 60, 65
1, 271551, Note_off_c, 0, 70, 61
1, 271723, Note_off_c, 0, 55, 48
1, 271725, Note_off_c, 0, 52, 56
1, 271730, Note_on_c, 0, 53, 50
1, 271910, Note_on_c, 0, 62, 79
1, 271947, Note_off_c, 0, 60, 62
1, 272088, Note_off_c, 0, 53, 62
1, 272101, Note_on_c, 0, 70, 80
1, 272107, Note_on_c, 0, 55, 40
1, 272110, Note_off_c, 0, 62, 61
1, 272111, Note_on_c, 0, 52, 45
1, 272283, Note_on_c, 0, 60, 70
1, 272290, Note_off_c, 0, 70, 63
1, 272426, Note_off_c, 0, 55, 33
1, 272466, Note_on_c, 0, 53, 53
1, 272476, Note_off_c, 0, 52, 48
1, 272646, Note_on_c, 0, 62, 79
1, 272672, Note_off_c, 0, 60, 59
1, 272810, Note_off_c, 0, 53, 62
1, 272842, Note_on_c, 0, 65, 75
1, 272845, Note_on_c, 0, 55, 48
1, 272867, Control_c, 0, 64, 31
1, 272874, Note_off_c, 0, 62, 61
1, 272882, Control_c, 0, 64, 55
1, 272897, Control_c, 0, 64, 66
1, 272912, Control_c, 0, 64, 72
1, 272927, Control_c, 0, 64, 80
1, 272941, Control_c, 0, 64, 87
1, 272956, Control_c, 0, 64, 92
1, 272971, Control_c, 0, 64, 95
1, 272985, Control_c, 0, 64, 99
1, 273000, Control_c, 0, 64, 103
1, 273015, Control_c, 0, 64, 110
1, 273023, Note_off_c, 0, 65, 59
1, 273030, Control_c, 0, 64, 121
1, 273045, Control_c, 0, 64, 127
1, 273176, Note_on_c, 0, 65, 58
1, 273179, Control_c, 0, 64, 121
1, 273192, Note_off_c, 0, 55, 59
1, 273194, Control_c, 0, 64, 96
1, 273204, Note_on_c, 0, 57, 47
1, 273209, Control_c, 0, 64, 77
1, 273218, Note_off_c, 0, 65, 61
1, 273223, Control_c, 0, 64, 57
1, 273238, Control_c, 0, 64, 0
1, 273239, Note_on_c, 0, 63, 72
1, 273271, Note_off_c, 0, 63, 65
1, 273294, Note_on_c, 0, 65, 71
1, 273347, Note_off_c, 0, 65, 63
1, 273349, Note_on_c, 0, 63, 76
1, 273393, Note_off_c, 0, 63, 53
1, 273410, Note_on_c, 0, 62, 64
1, 273462, Note_off_c, 0, 62, 57
1, 273473, Note_on_c, 0, 63, 70
1, 273538, Note_off_c, 0, 63, 61
1, 273552, Note_on_c, 0, 62, 75
1, 273571, Note_on_c, 0, 58, 41
1, 273580, Note_off_c, 0, 62, 65
1, 273611, Note_off_c, 0, 57, 37
1, 273749, Note_on_c, 0, 62, 64
1, 273828, Note_off_c, 0, 58, 58
1, 273916, Note_on_c, 0, 63, 74
1, 273958, Note_off_c, 0, 62, 56
1, 274110, Note_on_c, 0, 65, 85
1, 274132, Note_off_c, 0, 63, 63
1, 274297, Note_on_c, 0, 66, 82
1, 274335, Note_off_c, 0, 65, 60
1, 274475, Note_off_c, 0, 66, 63
1, 274482, Note_on_c, 0, 67, 74
1, 274492, Note_on_c, 0, 39, 42
1, 274662, Note_off_c, 0, 39, 59
1, 274665, Note_on_c, 0, 43, 59
1, 274846, Note_off_c, 0, 43, 61
1, 274873, Note_on_c, 0, 65, 60
1, 274885, Note_on_c, 0, 48, 43
1, 274887, Note_off_c, 0, 67, 54
1, 274942, Note_on_c, 0, 63, 71
1, 274945, Note_off_c, 0, 65, 61
1, 275026, Note_off_c, 0, 48, 61
1, 275032, Note_on_c, 0, 62, 72
1, 275032, Note_off_c, 0, 63, 61
1, 275055, Note_on_c, 0, 51, 43
1, 275212, Note_off_c, 0, 62, 62
1, 275220, Note_on_c, 0, 60, 71
1, 275395, Note_on_c, 0, 62, 78
1, 275428, Note_off_c, 0, 51, 35
1, 275433, Note_off_c, 0, 60, 61
1, 275456, Control_c, 0, 64, 8
1, 275500, Control_c, 0, 64, 15
1, 275515, Control_c, 0, 64, 21
1, 275530, Control_c, 0, 64, 25
1, 275574, Control_c, 0, 64, 24
1, 275576, Note_on_c, 0, 63, 82
1, 275603, Note_off_c, 0, 62, 61
1, 275611, Control_c, 0, 64, 21
1, 275626, Control_c, 0, 64, 16
1, 275641, Control_c, 0, 64, 0
1, 275752, Note_off_c, 0, 63, 61
1, 275766, Note_on_c, 0, 67, 65
1, 275952, Note_on_c, 0, 65, 62
1, 275958, Note_on_c, 0, 38, 43
1, 275964, Note_off_c, 0, 67, 54
1, 276107, Note_off_c, 0, 38, 47
1, 276126, Note_on_c, 0, 41, 45
1, 276313, Note_off_c, 0, 41, 55
1, 276324, Note_on_c, 0, 63, 60
1, 276339, Note_on_c, 0, 46, 48
1, 276347, Note_off_c, 0, 65, 58
1, 276403, Note_off_c, 0, 63, 63
1, 276407, Note_on_c, 0, 62, 67
1, 276467, Note_off_c, 0, 62, 61
1, 276469, Note_off_c, 0, 46, 54
1, 276495, Note_on_c, 0, 60, 59
1, 276501, Note_on_c, 0, 50, 36
1, 276663, Note_off_c, 0, 60, 63
1, 276675, Note_on_c, 0, 58, 62
1, 276825, Note_off_c, 0, 58, 62
1, 276847, Note_on_c, 0, 60, 65
1, 276866, Note_off_c, 0, 50, 51
1, 277019, Note_on_c, 0, 62, 71
1, 277022, Note_off_c, 0, 60, 58
1, 277208, Note_on_c, 0, 48, 52
1, 277216, Note_on_c, 0, 65, 73
1, 277233, Note_off_c, 0, 62, 57
1, 277395, Note_on_c, 0, 63, 68
1, 277447, Note_off_c, 0, 65, 58
1, 277530, Note_off_c, 0, 63, 64
1, 277574, Note_on_c, 0, 45, 53
1, 277618, Note_off_c, 0, 48, 61
1, 277741, Note_on_c, 0, 60, 74
1, 277769, Note_off_c, 0, 60, 67
1, 277946, Note_on_c, 0, 63, 67
1, 277949, Note_on_c, 0, 46, 52
1, 277952, Note_off_c, 0, 45, 58
1, 278131, Note_on_c, 0, 62, 68
1, 278163, Note_off_c, 0, 63, 65
1, 278274, Note_off_c, 0, 62, 63
1, 278303, Note_on_c, 0, 43, 63
1, 278319, Note_off_c, 0, 46, 61
1, 278475, Note_on_c, 0, 58, 64
1, 278505, Note_off_c, 0, 58, 66
1, 278662, Note_off_c, 0, 43, 51
1, 278681, Note_on_c, 0, 57, 65
1, 278690, Note_on_c, 0, 41, 44
1, 278764, Note_off_c, 0, 57, 60
1, 278772, Note_on_c, 0, 58, 67
1, 278817, Note_off_c, 0, 58, 61
1, 278845, Note_on_c, 0, 59, 69
1, 278933, Note_off_c, 0, 59, 59
1, 278933, Note_on_c, 0, 60, 75
1, 279000, Note_off_c, 0, 41, 41
1, 279019, Note_off_c, 0, 60, 65
1, 279022, Note_on_c, 0, 61, 79
1, 279076, Note_off_c, 0, 61, 63
1, 279079, Control_c, 0, 64, 15
1, 279094, Control_c, 0, 64, 17
1, 279099, Note_on_c, 0, 62, 80
1, 279124, Control_c, 0, 64, 19
1, 279139, Control_c, 0, 64, 22
1, 279153, Control_c, 0, 64, 27
1, 279168, Note_off_c, 0, 62, 58
1, 279168, Control_c, 0, 64, 28
1, 279180, Note_on_c, 0, 63, 76
1, 279227, Control_c, 0, 64, 28
1, 279242, Control_c, 0, 64, 29
1, 279246, Note_off_c, 0, 63, 60
1, 279279, Note_on_c, 0, 64, 72
1, 279316, Control_c, 0, 64, 30
1, 279353, Control_c, 0, 64, 28
1, 279368, Note_on_c, 0, 53, 51
1, 279371, Note_on_c, 0, 65, 86
1, 279377, Note_off_c, 0, 64, 66
1, 279398, Control_c, 0, 64, 29
1, 279425, Note_off_c, 0, 53, 63
1, 279445, Note_on_c, 0, 55, 63
1, 279458, Control_c, 0, 64, 30
1, 279517, Note_off_c, 0, 55, 59
1, 279517, Control_c, 0, 64, 32
1, 279527, Note_on_c, 0, 51, 69
1, 279532, Control_c, 0, 64, 35
1, 279547, Control_c, 0, 64, 37
1, 279593, Note_off_c, 0, 51, 58
1, 279606, Control_c, 0, 64, 38
1, 279613, Note_on_c, 0, 53, 78
1, 279621, Control_c, 0, 64, 38
1, 279636, Control_c, 0, 64, 38
1, 279697, Note_off_c, 0, 65, 61
1, 279699, Note_on_c, 0, 50, 81
1, 279709, Note_off_c, 0, 53, 63
1, 279710, Control_c, 0, 64, 37
1, 279724, Control_c, 0, 64, 37
1, 279739, Control_c, 0, 64, 35
1, 279754, Control_c, 0, 64, 34
1, 279769, Control_c, 0, 64, 30
1, 279778, Note_off_c, 0, 50, 67
1, 279783, Control_c, 0, 64, 22
1, 279786, Note_on_c, 0, 51, 82
1, 279798, Control_c, 0, 64, 8
1, 279813, Control_c, 0, 64, 0
1, 279872, Note_on_c, 0, 48, 80
1, 279872, Note_off_c, 0, 51, 62
1, 279958, Note_off_c, 0, 48, 62
1, 279961, Note_on_c, 0, 50, 74
1, 280006, Note_on_c, 0, 65, 66
1, 280042, Note_on_c, 0, 70, 75
1, 280082, Note_on_c, 0, 46, 78
1, 280091, Note_off_c, 0, 50, 61
1, 280092, Note_on_c, 0, 74, 74
1, 280111, Note_on_c, 0, 77, 91
1, 280146, Control_c, 0, 64, 42
1, 280161, Control_c, 0, 64, 72
1, 280167, Note_off_c, 0, 46, 64
1, 280175, Note_off_c, 0, 74, 65
1, 280176, Control_c, 0, 64, 84
1, 280191, Note_off_c, 0, 65, 58
1, 280191, Control_c, 0, 64, 101
1, 280192, Note_off_c, 0, 70, 63
1, 280206, Control_c, 0, 64, 127
1, 280459, Control_c, 0, 64, 116
1, 280465, Note_on_c, 0, 58, 83
1, 280473, Control_c, 0, 64, 90
1, 280488, Control_c, 0, 64, 78
1, 280503, Control_c, 0, 64, 79
1, 280518, Control_c, 0, 64, 91
1, 280533, Control_c, 0, 64, 127
1, 280581, Note_off_c, 0, 58, 64
1, 280641, Note_off_c, 0, 77, 59
1, 280680, Note_on_c, 0, 79, 71
1, 280750, Note_on_c, 0, 77, 78
1, 280767, Note_off_c, 0, 79, 57
1, 280784, Control_c, 0, 64, 101
1, 280799, Control_c, 0, 64, 77
1, 280814, Control_c, 0, 64, 45
1, 280815, Note_off_c, 0, 77, 64
1, 280817, Note_on_c, 0, 75, 79
1, 280836, Control_c, 0, 64, 0
1, 280852, Note_off_c, 0, 75, 61
1, 281011, Note_on_c, 0, 74, 77
1, 281041, Note_off_c, 0, 74, 63
1, 281183, Note_on_c, 0, 72, 80
1, 281226, Note_off_c, 0, 72, 64
1, 281362, Note_on_c, 0, 70, 86
1, 281399, Note_off_c, 0, 70, 64
1, 281540, Note_on_c, 0, 70, 73
1, 281724, Note_on_c, 0, 79, 78
1, 281728, Note_off_c, 0, 70, 62
1, 281768, Note_off_c, 0, 79, 61
1, 281938, Note_on_c, 0, 79, 71
1, 281945, Note_on_c, 0, 63, 46
1, 281946, Note_on_c, 0, 51, 47
1, 281947, Note_on_c, 0, 70, 59
1, 282060, Control_c, 0, 64, 24
1, 282075, Control_c, 0, 64, 54
1, 282090, Control_c, 0, 64, 64
1, 282105, Control_c, 0, 64, 68
1, 282120, Control_c, 0, 64, 72
1, 282135, Control_c, 0, 64, 77
1, 282149, Control_c, 0, 64, 83
1, 282164, Control_c, 0, 64, 89
1, 282179, Control_c, 0, 64, 96
1, 282194, Control_c, 0, 64, 105
1, 282209, Control_c, 0, 64, 127
1, 282235, Note_off_c, 0, 51, 59
1, 282413, Note_off_c, 0, 70, 53
1, 282465, Note_off_c, 0, 79, 49
1, 282492, Note_on_c, 0, 77, 62
1, 282617, Note_off_c, 0, 63, 35
1, 282630, Control_c, 0, 64, 97
1, 282645, Control_c, 0, 64, 79
1, 282661, Control_c, 0, 64, 64
1, 282668, Note_on_c, 0, 62, 46
1, 282675, Control_c, 0, 64, 41
1, 282678, Note_on_c, 0, 81, 76
1, 282690, Control_c, 0, 64, 38
1, 282705, Control_c, 0, 64, 50
1, 282720, Control_c, 0, 64, 58
1, 282730, Note_off_c, 0, 77, 58
1, 282735, Control_c, 0, 64, 58
1, 282749, Control_c, 0, 64, 56
1, 282764, Control_c, 0, 64, 52
1, 282779, Control_c, 0, 64, 50
1, 282808, Control_c, 0, 64, 49
1, 282823, Control_c, 0, 64, 45
1, 282838, Control_c, 0, 64, 40
1, 282853, Note_on_c, 0, 82, 86
1, 282853, Control_c, 0, 64, 37
1, 282862, Note_off_c, 0, 81, 64
1, 282883, Control_c, 0, 64, 36
1, 282898, Control_c, 0, 64, 31
1, 282913, Control_c, 0, 64, 23
1, 282927, Control_c, 0, 64, 12
1, 282942, Control_c, 0, 64, 8
1, 282957, Control_c, 0, 64, 0
1, 283022, Note_off_c, 0, 62, 62
1, 283037, Note_on_c, 0, 67, 51
1, 283053, Note_on_c, 0, 64, 49
1, 283237, Note_on_c, 0, 72, 69
1, 283250, Note_off_c, 0, 82, 56
1, 283414, Note_on_c, 0, 74, 65
1, 283414, Note_off_c, 0, 64, 49
1, 283429, Note_on_c, 0, 65, 44
1, 283440, Note_off_c, 0, 72, 56
1, 283458, Note_off_c, 0, 67, 34
1, 283572, Note_off_c, 0, 74, 63
1, 283610, Note_on_c, 0, 82, 63
1, 283756, Note_off_c, 0, 65, 52
1, 283784, Note_on_c, 0, 64, 48
1, 283789, Note_on_c, 0, 67, 48
1, 283963, Note_on_c, 0, 72, 76
1, 283972, Note_off_c, 0, 82, 56
1, 284069, Control_c, 0, 64, 10
1, 284084, Control_c, 0, 64, 27
1, 284098, Control_c, 0, 64, 34
1, 284113, Control_c, 0, 64, 37
1, 284114, Note_off_c, 0, 64, 63
1, 284128, Control_c, 0, 64, 39
1, 284142, Control_c, 0, 64, 40
1, 284147, Note_on_c, 0, 65, 56
1, 284150, Note_on_c, 0, 74, 80
1, 284157, Control_c, 0, 64, 40
1, 284176, Note_off_c, 0, 67, 50
1, 284187, Control_c, 0, 64, 39
1, 284197, Note_off_c, 0, 72, 55
1, 284202, Control_c, 0, 64, 39
1, 284292, Control_c, 0, 64, 39
1, 284307, Control_c, 0, 64, 40
1, 284314, Note_off_c, 0, 74, 63
1, 284323, Note_on_c, 0, 82, 86
1, 284425, Control_c, 0, 64, 40
1, 284439, Control_c, 0, 64, 39
1, 284454, Control_c, 0, 64, 39
1, 284469, Control_c, 0, 64, 37
1, 284484, Control_c, 0, 64, 32
1, 284499, Control_c, 0, 64, 19
1, 284514, Control_c, 0, 64, 0
1, 284519, Note_off_c, 0, 65, 60
1, 284521, Note_on_c, 0, 77, 76
1, 284531, Note_on_c, 0, 70, 53
1, 284541, Note_on_c, 0, 67, 55
1, 284549, Note_off_c, 0, 82, 60
1, 284883, Note_off_c, 0, 77, 59
1, 284898, Note_off_c, 0, 67, 50
1, 284901, Note_on_c, 0, 76, 65
1, 284901, Note_off_c, 0, 70, 48
1, 284915, Note_on_c, 0, 72, 44
1, 284916, Note_on_c, 0, 69, 47
1, 285069, Note_off_c, 0, 76, 59
1, 285080, Note_on_c, 0, 75, 59
1, 285250, Note_off_c, 0, 75, 55
1, 285258, Note_on_c, 0, 74, 59
1, 285277, Note_on_c, 0, 70, 52
1, 285281, Note_off_c, 0, 72, 37
1, 285291, Note_off_c, 0, 74, 66
1, 285335, Note_off_c, 0, 69, 42
1, 285467, Note_on_c, 0, 74, 63
1, 285475, Note_off_c, 0, 70, 59
1, 285637, Note_on_c, 0, 75, 75
1, 285667, Note_off_c, 0, 74, 63
1, 285813, Note_on_c, 0, 77, 80
1, 285822, Note_off_c, 0, 75, 56
1, 286003, Note_on_c, 0, 78, 80
1, 286032, Note_off_c, 0, 77, 61
1, 286086, Note_on_c, 0, 79, 79
1, 286105, Note_off_c, 0, 78, 56
1, 286188, Note_on_c, 0, 55, 73
1, 286355, Note_off_c, 0, 55, 61
1, 286366, Note_on_c, 0, 67, 79
1, 286417, Note_off_c, 0, 67, 62
1, 286531, Note_off_c, 0, 79, 59
1, 286548, Note_on_c, 0, 65, 70
1, 286555, Note_on_c, 0, 81, 73
1, 286576, Note_off_c, 0, 65, 66
1, 286645, Note_on_c, 0, 83, 82
1, 286652, Note_off_c, 0, 81, 62
1, 286700, Note_off_c, 0, 83, 63
1, 286719, Note_on_c, 0, 63, 71
1, 286724, Note_on_c, 0, 84, 88
1, 286748, Note_off_c, 0, 63, 66
1, 286818, Note_on_c, 0, 86, 88
1, 286832, Note_off_c, 0, 84, 63
1, 286896, Note_on_c, 0, 51, 68
1, 286904, Note_off_c, 0, 86, 62
1, 286904, Note_on_c, 0, 87, 91
1, 286928, Note_off_c, 0, 51, 64
1, 286990, Note_on_c, 0, 86, 89
1, 287000, Note_off_c, 0, 87, 64
1, 287050, Note_off_c, 0, 86, 63
1, 287073, Note_on_c, 0, 63, 84
1, 287080, Note_on_c, 0, 84, 86
1, 287162, Note_on_c, 0, 86, 80
1, 287181, Note_off_c, 0, 84, 60
1, 287244, Note_off_c, 0, 63, 61
1, 287244, Note_on_c, 0, 62, 72
1, 287249, Note_on_c, 0, 82, 87
1, 287268, Note_off_c, 0, 86, 63
1, 287286, Note_off_c, 0, 62, 62
1, 287329, Note_on_c, 0, 84, 81
1, 287341, Note_off_c, 0, 82, 61
1, 287396, Note_off_c, 0, 84, 64
1, 287412, Note_on_c, 0, 60, 81
1, 287418, Note_on_c, 0, 81, 81
1, 287458, Note_off_c, 0, 60, 62
1, 287496, Note_on_c, 0, 82, 84
1, 287502, Note_off_c, 0, 81, 63
1, 287591, Note_off_c, 0, 82, 62
1, 287592, Note_on_c, 0, 58, 79
1, 287596, Note_on_c, 0, 79, 85
1, 287631, Note_off_c, 0, 58, 61
1, 287676, Note_on_c, 0, 81, 79
1, 287683, Note_off_c, 0, 79, 62
1, 287733, Note_off_c, 0, 81, 66
1, 287761, Note_on_c, 0, 57, 85
1, 287762, Note_on_c, 0, 77, 83
1, 287789, Note_off_c, 0, 57, 64
1, 287819, Note_off_c, 0, 77, 60
1, 287853, Note_on_c, 0, 79, 73
1, 287923, Note_on_c, 0, 53, 78
1, 287936, Note_on_c, 0, 75, 81
1, 287938, Note_off_c, 0, 79, 60
1, 287955, Note_off_c, 0, 53, 67
1, 288012, Note_on_c, 0, 77, 79
1, 288017, Note_off_c, 0, 75, 61
1, 288093, Note_off_c, 0, 77, 57
1, 288111, Note_on_c, 0, 58, 87
1, 288111, Note_on_c, 0, 74, 78
1, 288183, Control_c, 0, 64, 16
1, 288192, Note_on_c, 0, 75, 78
1, 288198, Control_c, 0, 64, 35
1, 288210, Note_off_c, 0, 74, 60
1, 288213, Control_c, 0, 64, 44
1, 288228, Control_c, 0, 64, 48
1, 288243, Control_c, 0, 64, 51
1, 288258, Control_c, 0, 64, 55
1, 288273, Control_c, 0, 64, 59
1, 288277, Note_off_c, 0, 75, 64
1, 288287, Control_c, 0, 64, 61
1, 288293, Note_on_c, 0, 77, 78
1, 288302, Control_c, 0, 64, 62
1, 288323, Note_off_c, 0, 58, 61
1, 288340, Control_c, 0, 64, 61
1, 288341, Note_off_c, 0, 77, 65
1, 288354, Control_c, 0, 64, 61
1, 288369, Control_c, 0, 64, 60
1, 288382, Note_on_c, 0, 79, 80
1, 288384, Control_c, 0, 64, 58
1, 288399, Control_c, 0, 64, 54
1, 288414, Control_c, 0, 64, 52
1, 288428, Control_c, 0, 64, 51
1, 288443, Control_c, 0, 64, 52
1, 288458, Control_c, 0, 64, 54
1, 288473, Control_c, 0, 64, 55
1, 288474, Note_on_c, 0, 50, 85
1, 288476, Note_on_c, 0, 81, 86
1, 288487, Control_c, 0, 64, 56
1, 288499, Note_off_c, 0, 79, 59
1, 288502, Control_c, 0, 64, 57
1, 288517, Control_c, 0, 64, 58
1, 288532, Control_c, 0, 64, 59
1, 288549, Note_off_c, 0, 81, 65
1, 288560, Note_on_c, 0, 82, 84
1, 288591, Control_c, 0, 64, 59
1, 288606, Control_c, 0, 64, 60
1, 288619, Note_off_c, 0, 50, 66
1, 288621, Control_c, 0, 64, 60
1, 288642, Note_on_c, 0, 81, 88
1, 288650, Note_off_c, 0, 82, 64
1, 288651, Control_c, 0, 64, 60
1, 288666, Control_c, 0, 64, 59
1, 288681, Control_c, 0, 64, 58
1, 288695, Control_c, 0, 64, 56
1, 288710, Control_c, 0, 64, 49
1, 288725, Control_c, 0, 64, 30
1, 288733, Note_on_c, 0, 82, 90
1, 288739, Control_c, 0, 64, 0
1, 288741, Note_off_c, 0, 81, 62
1, 288812, Note_on_c, 0, 51, 82
1, 288815, Note_on_c, 0, 84, 91
1, 288816, Note_off_c, 0, 82, 63
1, 288903, Note_on_c, 0, 82, 93
1, 288930, Note_off_c, 0, 84, 63
1, 288989, Note_on_c, 0, 81, 86
1, 288991, Control_c, 0, 64, 8
1, 288995, Note_off_c, 0, 82, 64
1, 289006, Note_off_c, 0, 51, 61
1, 289006, Control_c, 0, 64, 26
1, 289020, Control_c, 0, 64, 28
1, 289036, Control_c, 0, 64, 28
1, 289047, Note_off_c, 0, 81, 64
1, 289051, Control_c, 0, 64, 27
1, 289074, Control_c, 0, 64, 28
1, 289075, Note_on_c, 0, 79, 82
1, 289089, Control_c, 0, 64, 30
1, 289104, Control_c, 0, 64, 31
1, 289141, Note_off_c, 0, 79, 61
1, 289164, Note_on_c, 0, 81, 83
1, 289164, Note_on_c, 0, 63, 79
1, 289223, Note_off_c, 0, 81, 66
1, 289237, Control_c, 0, 64, 31
1, 289244, Note_on_c, 0, 79, 82
1, 289251, Control_c, 0, 64, 31
1, 289270, Note_off_c, 0, 63, 63
1, 289281, Control_c, 0, 64, 30
1, 289324, Control_c, 0, 64, 30
1, 289327, Note_on_c, 0, 77, 84
1, 289339, Control_c, 0, 64, 28
1, 289341, Note_off_c, 0, 79, 59
1, 289354, Control_c, 0, 64, 27
1, 289369, Control_c, 0, 64, 24
1, 289384, Control_c, 0, 64, 19
1, 289399, Control_c, 0, 64, 0
1, 289409, Note_on_c, 0, 75, 82
1, 289417, Note_off_c, 0, 77, 61
1, 289507, Note_off_c, 0, 75, 62
1, 289508, Note_on_c, 0, 65, 81
1, 289511, Note_on_c, 0, 74, 90
1, 289532, Control_c, 0, 64, 33
1, 289547, Control_c, 0, 64, 54
1, 289561, Control_c, 0, 64, 62
1, 289576, Control_c, 0, 64, 67
1, 289591, Control_c, 0, 64, 72
1, 289606, Control_c, 0, 64, 80
1, 289621, Control_c, 0, 64, 95
1, 289636, Control_c, 0, 64, 117
1, 289650, Control_c, 0, 64, 127
1, 289654, Note_off_c, 0, 65, 56
1, 289678, Note_off_c, 0, 74, 62
1, 289876, Note_on_c, 0, 53, 77
1, 289876, Note_on_c, 0, 69, 64
1, 289878, Note_on_c, 0, 74, 81
1, 289912, Note_off_c, 0, 69, 61
1, 289931, Note_off_c, 0, 74, 64
1, 289935, Note_on_c, 0, 72, 83
1, 289940, Control_c, 0, 64, 118
1, 289955, Control_c, 0, 64, 101
1, 289970, Control_c, 0, 64, 90
1, 289974, Note_off_c, 0, 53, 62
1, 289984, Note_off_c, 0, 72, 58
1, 289985, Control_c, 0, 64, 83
1, 289986, Note_on_c, 0, 74, 75
1, 289999, Control_c, 0, 64, 78
1, 290014, Control_c, 0, 64, 75
1, 290029, Control_c, 0, 64, 73
1, 290035, Note_on_c, 0, 72, 75
1, 290036, Note_off_c, 0, 74, 66
1, 290044, Control_c, 0, 64, 70
1, 290059, Control_c, 0, 64, 68
1, 290073, Control_c, 0, 64, 65
1, 290078, Note_off_c, 0, 72, 64
1, 290088, Control_c, 0, 64, 63
1, 290103, Control_c, 0, 64, 62
1, 290112, Note_on_c, 0, 70, 80
1, 290117, Control_c, 0, 64, 61
1, 290132, Control_c, 0, 64, 60
1, 290147, Control_c, 0, 64, 56
1, 290150, Note_off_c, 0, 70, 54
1, 290162, Control_c, 0, 64, 50
1, 290174, Note_on_c, 0, 72, 77
1, 290177, Control_c, 0, 64, 39
1, 290192, Control_c, 0, 64, 0
1, 290248, Note_on_c, 0, 70, 86
1, 290255, Note_on_c, 0, 58, 74
1, 290260, Note_off_c, 0, 72, 63
1, 290299, Note_off_c, 0, 58, 60
1, 290334, Note_on_c, 0, 65, 75
1, 290417, Note_off_c, 0, 65, 59
1, 290430, Note_on_c, 0, 64, 74
1, 290483, Note_off_c, 0, 64, 62
1, 290512, Note_on_c, 0, 65, 77
1, 290592, Note_on_c, 0, 67, 86
1, 290593, Note_off_c, 0, 65, 38
1, 290607, Note_off_c, 0, 70, 63
1, 290647, Note_off_c, 0, 67, 64
1, 290691, Note_on_c, 0, 65, 77
1, 290734, Note_off_c, 0, 65, 58
1, 290770, Note_on_c, 0, 64, 67
1, 290804, Note_off_c, 0, 64, 62
1, 290852, Note_on_c, 0, 65, 70
1, 290924, Note_off_c, 0, 65, 46
1, 290941, Note_on_c, 0, 63, 79
1, 290992, Note_off_c, 0, 63, 57
1, 291022, Note_on_c, 0, 65, 78
1, 291071, Note_off_c, 0, 65, 57
1, 291108, Note_on_c, 0, 62, 75
1, 291152, Note_off_c, 0, 62, 60
1, 291200, Note_on_c, 0, 65, 66
1, 291257, Note_off_c, 0, 65, 53
1, 291286, Note_on_c, 0, 60, 60
1, 291336, Note_off_c, 0, 60, 65
1, 291372, Note_on_c, 0, 65, 63
1, 291441, Note_off_c, 0, 65, 58
1, 291468, Note_on_c, 0, 58, 62
1, 291506, Note_off_c, 0, 58, 61
1, 291563, Note_on_c, 0, 65, 56
1, 291602, Control_c, 0, 64, 17
1, 291617, Note_off_c, 0, 65, 53
1, 291617, Control_c, 0, 64, 52
1, 291631, Control_c, 0, 64, 63
1, 291637, Note_on_c, 0, 75, 86
1, 291646, Control_c, 0, 64, 69
1, 291659, Note_on_c, 0, 57, 63
1, 291661, Control_c, 0, 64, 76
1, 291676, Control_c, 0, 64, 84
1, 291691, Control_c, 0, 64, 90
1, 291705, Control_c, 0, 64, 94
1, 291710, Note_off_c, 0, 57, 60
1, 291720, Control_c, 0, 64, 97
1, 291735, Control_c, 0, 64, 99
1, 291741, Note_on_c, 0, 65, 62
1, 291750, Control_c, 0, 64, 100
1, 291779, Control_c, 0, 64, 100
1, 291794, Control_c, 0, 64, 94
1, 291808, Note_on_c, 0, 72, 79
1, 291808, Note_off_c, 0, 65, 52
1, 291809, Control_c, 0, 64, 81
1, 291817, Note_off_c, 0, 75, 60
1, 291824, Control_c, 0, 64, 69
1, 291831, Note_on_c, 0, 60, 51
1, 291838, Control_c, 0, 64, 50
1, 291846, Note_off_c, 0, 72, 62
1, 291853, Control_c, 0, 64, 0
1, 291864, Note_off_c, 0, 60, 64
1, 291920, Note_on_c, 0, 65, 57
1, 291970, Note_off_c, 0, 65, 55
1, 291988, Note_on_c, 0, 69, 77
1, 292006, Note_on_c, 0, 63, 52
1, 292019, Note_off_c, 0, 69, 66
1, 292043, Note_off_c, 0, 63, 61
1, 292089, Note_on_c, 0, 65, 58
1, 292137, Note_off_c, 0, 65, 58
1, 292173, Note_on_c, 0, 69, 57
1, 292178, Note_on_c, 0, 63, 46
1, 292198, Note_off_c, 0, 69, 58
1, 292207, Note_off_c, 0, 63, 59
1, 292248, Note_on_c, 0, 65, 64
1, 292306, Control_c, 0, 64, 50
1, 292315, Note_off_c, 0, 65, 57
1, 292321, Control_c, 0, 64, 63
1, 292335, Control_c, 0, 64, 67
1, 292341, Note_on_c, 0, 75, 81
1, 292350, Note_on_c, 0, 57, 63
1, 292350, Control_c, 0, 64, 72
1, 292365, Control_c, 0, 64, 77
1, 292380, Control_c, 0, 64, 82
1, 292395, Control_c, 0, 64, 84
1, 292410, Control_c, 0, 64, 85
1, 292421, Note_off_c, 0, 57, 59
1, 292425, Control_c, 0, 64, 86
1, 292435, Note_on_c, 0, 65, 61
1, 292440, Control_c, 0, 64, 86
1, 292454, Control_c, 0, 64, 87
1, 292484, Control_c, 0, 64, 85
1, 292499, Control_c, 0, 64, 78
1, 292504, Note_off_c, 0, 65, 59
1, 292513, Control_c, 0, 64, 67
1, 292519, Note_on_c, 0, 60, 62
1, 292523, Note_on_c, 0, 72, 76
1, 292528, Control_c, 0, 64, 40
1, 292532, Note_off_c, 0, 75, 62
1, 292543, Control_c, 0, 64, 0
1, 292554, Note_off_c, 0, 72, 60
1, 292557, Note_off_c, 0, 60, 65
1, 292603, Note_on_c, 0, 65, 64
1, 292687, Note_off_c, 0, 65, 58
1, 292697, Note_on_c, 0, 69, 73
1, 292708, Note_on_c, 0, 63, 51
1, 292725, Note_off_c, 0, 69, 68
1, 292744, Note_off_c, 0, 63, 63
1, 292797, Note_on_c, 0, 65, 54
1, 292853, Note_off_c, 0, 65, 57
1, 292872, Note_on_c, 0, 69, 76
1, 292887, Note_on_c, 0, 63, 44
1, 292898, Note_off_c, 0, 69, 68
1, 292919, Note_off_c, 0, 63, 58
1, 292964, Note_on_c, 0, 65, 60
1, 293006, Note_off_c, 0, 65, 60
1, 293048, Note_on_c, 0, 70, 76
1, 293049, Note_on_c, 0, 62, 56
1, 293076, Note_off_c, 0, 62, 62
1, 293077, Note_off_c, 0, 70, 62
1, 293128, Note_on_c, 0, 65, 55
1, 293171, Note_off_c, 0, 65, 61
1, 293212, Note_on_c, 0, 57, 66
1, 293212, Note_on_c, 0, 72, 78
1, 293244, Note_off_c, 0, 72, 62
1, 293257, Note_off_c, 0, 57, 65
1, 293299, Note_on_c, 0, 65, 60
1, 293362, Note_off_c, 0, 65, 56
1, 293381, Note_on_c, 0, 58, 67
1, 293389, Note_on_c, 0, 74, 76
1, 293421, Note_off_c, 0, 74, 62
1, 293422, Note_off_c, 0, 58, 62
1, 293473, Note_on_c, 0, 65, 60
1, 293517, Note_off_c, 0, 65, 56
1, 293548, Note_on_c, 0, 75, 81
1, 293560, Note_on_c, 0, 60, 58
1, 293585, Note_off_c, 0, 60, 63
1, 293597, Note_off_c, 0, 75, 63
1, 293637, Note_on_c, 0, 65, 58
1, 293683, Control_c, 0, 64, 41
1, 293698, Control_c, 0, 64, 59
1, 293713, Control_c, 0, 64, 66
1, 293724, Note_off_c, 0, 65, 58
1, 293728, Control_c, 0, 64, 72
1, 293730, Note_on_c, 0, 76, 91
1, 293740, Note_on_c, 0, 61, 61
1, 293742, Control_c, 0, 64, 81
1, 293757, Control_c, 0, 64, 92
1, 293772, Control_c, 0, 64, 102
1, 293787, Control_c, 0, 64, 113
1, 293793, Note_off_c, 0, 61, 60
1, 293802, Control_c, 0, 64, 127
1, 293826, Note_on_c, 0, 65, 63
1, 293862, Control_c, 0, 64, 103
1, 293877, Control_c, 0, 64, 84
1, 293887, Note_off_c, 0, 65, 53
1, 293892, Control_c, 0, 64, 64
1, 293897, Note_on_c, 0, 77, 82
1, 293897, Note_off_c, 0, 76, 57
1, 293906, Control_c, 0, 64, 0
1, 293912, Note_on_c, 0, 62, 63
1, 293939, Note_off_c, 0, 77, 65
1, 293945, Note_off_c, 0, 62, 65
1, 293990, Note_on_c, 0, 65, 66
1, 294025, Control_c, 0, 64, 39
1, 294040, Control_c, 0, 64, 61
1, 294055, Control_c, 0, 64, 69
1, 294070, Note_off_c, 0, 65, 54
1, 294070, Control_c, 0, 64, 78
1, 294081, Note_on_c, 0, 61, 67
1, 294083, Note_on_c, 0, 76, 91
1, 294085, Control_c, 0, 64, 97
1, 294100, Control_c, 0, 64, 127
1, 294119, Note_off_c, 0, 61, 58
1, 294157, Note_on_c, 0, 65, 70
1, 294209, Note_off_c, 0, 76, 61
1, 294221, Note_off_c, 0, 65, 60
1, 294242, Note_on_c, 0, 77, 79
1, 294244, Note_on_c, 0, 62, 61
1, 294262, Control_c, 0, 64, 101
1, 294270, Note_off_c, 0, 77, 65
1, 294275, Note_off_c, 0, 62, 65
1, 294276, Control_c, 0, 64, 75
1, 294291, Control_c, 0, 64, 49
1, 294314, Control_c, 0, 64, 0
1, 294329, Note_on_c, 0, 65, 62
1, 294380, Note_off_c, 0, 65, 53
1, 294388, Control_c, 0, 64, 56
1, 294403, Control_c, 0, 64, 68
1, 294418, Control_c, 0, 64, 77
1, 294430, Note_on_c, 0, 87, 94
1, 294432, Control_c, 0, 64, 94
1, 294434, Note_on_c, 0, 75, 86
1, 294436, Note_on_c, 0, 57, 67
1, 294447, Control_c, 0, 64, 127
1, 294483, Note_off_c, 0, 57, 57
1, 294498, Note_off_c, 0, 75, 60
1, 294511, Note_off_c, 0, 87, 62
1, 294523, Note_on_c, 0, 65, 57
1, 294595, Note_off_c, 0, 65, 56
1, 294606, Note_on_c, 0, 84, 81
1, 294609, Note_on_c, 0, 72, 80
1, 294610, Note_on_c, 0, 60, 66
1, 294651, Note_off_c, 0, 60, 64
1, 294651, Note_off_c, 0, 84, 66
1, 294656, Control_c, 0, 64, 94
1, 294660, Note_off_c, 0, 72, 62
1, 294671, Control_c, 0, 64, 72
1, 294686, Control_c, 0, 64, 0
1, 294699, Note_on_c, 0, 65, 61
1, 294775, Note_off_c, 0, 65, 40
1, 294779, Note_on_c, 0, 81, 79
1, 294783, Note_on_c, 0, 69, 71
1, 294785, Note_on_c, 0, 63, 62
1, 294809, Note_off_c, 0, 69, 70
1, 294812, Note_off_c, 0, 81, 62
1, 294827, Note_off_c, 0, 63, 59
1, 294886, Note_on_c, 0, 65, 54
1, 294917, Note_off_c, 0, 65, 60
1, 294950, Note_on_c, 0, 63, 65
1, 294952, Note_on_c, 0, 81, 80
1, 294963, Note_on_c, 0, 69, 59
1, 294982, Note_off_c, 0, 69, 63
1, 294983, Note_off_c, 0, 81, 62
1, 294986, Note_off_c, 0, 63, 61
1, 295024, Note_on_c, 0, 65, 63
1, 295063, Control_c, 0, 64, 34
1, 295078, Control_c, 0, 64, 58
1, 295093, Control_c, 0, 64, 66
1, 295107, Control_c, 0, 64, 74
1, 295113, Note_off_c, 0, 65, 57
1, 295122, Control_c, 0, 64, 88
1, 295137, Control_c, 0, 64, 114
1, 295143, Note_on_c, 0, 57, 68
1, 295143, Note_on_c, 0, 87, 91
1, 295148, Note_on_c, 0, 75, 83
1, 295152, Control_c, 0, 64, 127
1, 295204, Note_off_c, 0, 57, 61
1, 295207, Note_off_c, 0, 75, 59
1, 295226, Note_off_c, 0, 87, 61
1, 295227, Note_on_c, 0, 65, 67
1, 295307, Note_off_c, 0, 65, 59
1, 295313, Note_on_c, 0, 60, 67
1, 295325, Note_on_c, 0, 72, 77
1, 295325, Note_on_c, 0, 84, 73
1, 295330, Control_c, 0, 64, 114
1, 295345, Control_c, 0, 64, 85
1, 295353, Note_off_c, 0, 60, 64
1, 295360, Control_c, 0, 64, 65
1, 295361, Note_off_c, 0, 72, 63
1, 295364, Note_off_c, 0, 84, 63
1, 295374, Control_c, 0, 64, 0
1, 295395, Note_on_c, 0, 65, 62
1, 295487, Note_off_c, 0, 65, 56
1, 295496, Note_on_c, 0, 63, 59
1, 295497, Note_on_c, 0, 81, 78
1, 295501, Note_on_c, 0, 69, 71
1, 295528, Note_off_c, 0, 69, 69
1, 295532, Note_off_c, 0, 81, 66
1, 295536, Note_off_c, 0, 63, 62
1, 295597, Note_on_c, 0, 65, 53
1, 295644, Note_off_c, 0, 65, 59
1, 295667, Note_on_c, 0, 81, 78
1, 295674, Note_on_c, 0, 69, 70
1, 295676, Note_on_c, 0, 63, 59
1, 295701, Note_off_c, 0, 81, 66
1, 295702, Note_off_c, 0, 69, 67
1, 295715, Note_off_c, 0, 63, 64
1, 295763, Note_on_c, 0, 65, 47
1, 295811, Note_off_c, 0, 65, 59
1, 295851, Note_on_c, 0, 82, 77
1, 295854, Note_on_c, 0, 62, 50
1, 295859, Note_on_c, 0, 70, 62
1, 295876, Note_off_c, 0, 82, 67
1, 295878, Note_off_c, 0, 70, 64
1, 295879, Note_off_c, 0, 62, 58
1, 295941, Note_on_c, 0, 65, 41
1, 295983, Note_off_c, 0, 65, 48
1, 296017, Note_on_c, 0, 84, 76
1, 296021, Note_on_c, 0, 57, 63
1, 296025, Note_on_c, 0, 72, 64
1, 296046, Note_off_c, 0, 72, 64
1, 296054, Note_off_c, 0, 84, 64
1, 296061, Note_off_c, 0, 57, 61
1, 296108, Note_on_c, 0, 65, 50
1, 296174, Note_off_c, 0, 65, 56
1, 296189, Note_on_c, 0, 86, 82
1, 296193, Note_on_c, 0, 58, 67
1, 296196, Note_on_c, 0, 74, 65
1, 296222, Note_off_c, 0, 74, 69
1, 296230, Note_off_c, 0, 58, 62
1, 296230, Note_off_c, 0, 86, 63
1, 296296, Note_on_c, 0, 65, 50
1, 296341, Note_off_c, 0, 65, 60
1, 296362, Note_on_c, 0, 60, 62
1, 296367, Note_on_c, 0, 87, 86
1, 296371, Note_on_c, 0, 75, 74
1, 296392, Note_off_c, 0, 75, 69
1, 296395, Note_off_c, 0, 60, 66
1, 296403, Note_off_c, 0, 87, 62
1, 296460, Note_on_c, 0, 65, 50
1, 296524, Control_c, 0, 64, 40
1, 296539, Control_c, 0, 64, 59
1, 296541, Note_on_c, 0, 88, 89
1, 296543, Note_off_c, 0, 65, 60
1, 296557, Note_on_c, 0, 76, 86
1, 296561, Control_c, 0, 64, 67
1, 296573, Note_on_c, 0, 61, 55
1, 296576, Control_c, 0, 64, 74
1, 296591, Control_c, 0, 64, 85
1, 296606, Control_c, 0, 64, 99
1, 296614, Note_off_c, 0, 61, 63
1, 296621, Control_c, 0, 64, 127
1, 296643, Note_off_c, 0, 76, 60
1, 296660, Note_on_c, 0, 65, 58
1, 296703, Note_off_c, 0, 65, 56
1, 296709, Control_c, 0, 64, 119
1, 296714, Note_off_c, 0, 88, 64
1, 296724, Control_c, 0, 64, 90
1, 296725, Note_on_c, 0, 89, 86
1, 296732, Note_on_c, 0, 77, 75
1, 296732, Note_on_c, 0, 62, 63
1, 296739, Control_c, 0, 64, 72
1, 296753, Control_c, 0, 64, 32
1, 296758, Note_off_c, 0, 77, 66
1, 296767, Note_off_c, 0, 62, 64
1, 296768, Control_c, 0, 64, 0
1, 296777, Note_off_c, 0, 89, 63
1, 296813, Note_on_c, 0, 65, 65
1, 296842, Control_c, 0, 64, 36
1, 296857, Control_c, 0, 64, 59
1, 296861, Note_off_c, 0, 65, 57
1, 296872, Control_c, 0, 64, 65
1, 296887, Control_c, 0, 64, 70
1, 296902, Control_c, 0, 64, 76
1, 296902, Note_on_c, 0, 61, 59
1, 296907, Note_on_c, 0, 88, 89
1, 296913, Note_on_c, 0, 76, 78
1, 296917, Control_c, 0, 64, 87
1, 296932, Control_c, 0, 64, 103
1, 296945, Note_off_c, 0, 76, 60
1, 296947, Control_c, 0, 64, 127
1, 296950, Note_off_c, 0, 61, 57
1, 296982, Note_on_c, 0, 65, 54
1, 297021, Note_off_c, 0, 65, 62
1, 297025, Note_off_c, 0, 88, 62
1, 297070, Note_on_c, 0, 62, 50
1, 297082, Note_on_c, 0, 89, 74
1, 297085, Note_on_c, 0, 77, 70
1, 297100, Note_off_c, 0, 62, 55
1, 297105, Note_off_c, 0, 89, 68
1, 297111, Note_off_c, 0, 77, 67
1, 297171, Note_on_c, 0, 65, 32
1, 297201, Note_off_c, 0, 65, 55
1, 297243, Control_c, 0, 64, 99
1, 297258, Control_c, 0, 64, 79
1, 297273, Control_c, 0, 64, 62
1, 297288, Control_c, 0, 64, 0
1, 297302, Note_on_c, 0, 79, 67
1, 297303, Note_on_c, 0, 67, 61
1, 297458, Control_c, 0, 64, 40
1, 297473, Control_c, 0, 64, 61
1, 297488, Control_c, 0, 64, 68
1, 297490, Note_on_c, 0, 51, 47
1, 297502, Control_c, 0, 64, 75
1, 297517, Control_c, 0, 64, 84
1, 297532, Control_c, 0, 64, 93
1, 297547, Control_c, 0, 64, 105
1, 297562, Control_c, 0, 64, 127
1, 297610, Note_off_c, 0, 51, 0
1, 297610, Note_on_c, 0, 51, 4
1, 297650, Control_c, 0, 64, 102
1, 297665, Note_on_c, 0, 50, 56
1, 297665, Control_c, 0, 64, 85
1, 297674, Note_off_c, 0, 51, 47
1, 297680, Control_c, 0, 64, 76
1, 297692, Poly_aftertouch_c, 0, 76, 127
1, 297698, Note_off_c, 0, 79, 61
1, 297710, Control_c, 0, 64, 84
1, 297725, Control_c, 0, 64, 100
1, 297737, Poly_aftertouch_c, 0, 76, 0
1, 297740, Control_c, 0, 64, 127
1, 297751, Note_off_c, 0, 67, 62
1, 297853, Note_off_c, 0, 50, 62
1, 297856, Note_on_c, 0, 51, 54
1, 297899, Note_off_c, 0, 51, 60
1, 298007, Control_c, 0, 64, 122
1, 298022, Control_c, 0, 64, 91
1, 298029, Note_on_c, 0, 69, 69
1, 298037, Control_c, 0, 64, 72
1, 298038, Note_on_c, 0, 57, 54
1, 298059, Control_c, 0, 64, 48
1, 298073, Control_c, 0, 64, 0
1, 298118, Control_c, 0, 64, 30
1, 298133, Control_c, 0, 64, 56
1, 298148, Control_c, 0, 64, 64
1, 298163, Control_c, 0, 64, 67
1, 298178, Control_c, 0, 64, 73
1, 298193, Control_c, 0, 64, 81
1, 298207, Control_c, 0, 64, 92
1, 298222, Control_c, 0, 64, 110
1, 298225, Note_on_c, 0, 53, 45
1, 298237, Control_c, 0, 64, 127
1, 298385, Control_c, 0, 64, 97
1, 298399, Control_c, 0, 64, 81
1, 298405, Note_off_c, 0, 53, 55
1, 298414, Control_c, 0, 64, 72
1, 298415, Note_on_c, 0, 52, 45
1, 298425, Note_off_c, 0, 57, 63
1, 298429, Control_c, 0, 64, 69
1, 298444, Control_c, 0, 64, 72
1, 298458, Control_c, 0, 64, 81
1, 298473, Control_c, 0, 64, 95
1, 298487, Note_off_c, 0, 69, 66
1, 298488, Control_c, 0, 64, 127
1, 298606, Note_on_c, 0, 53, 44
1, 298634, Note_off_c, 0, 52, 51
1, 298659, Note_off_c, 0, 53, 62
1, 298756, Control_c, 0, 64, 91
1, 298771, Control_c, 0, 64, 71
1, 298779, Note_on_c, 0, 87, 68
1, 298786, Control_c, 0, 64, 51
1, 298799, Note_on_c, 0, 75, 50
1, 298808, Control_c, 0, 64, 0
1, 298837, Control_c, 0, 64, 13
1, 298852, Control_c, 0, 64, 47
1, 298867, Control_c, 0, 64, 60
1, 298881, Control_c, 0, 64, 65
1, 298896, Control_c, 0, 64, 68
1, 298911, Control_c, 0, 64, 73
1, 298926, Control_c, 0, 64, 81
1, 298941, Control_c, 0, 64, 95
1, 298956, Control_c, 0, 64, 127
1, 298984, Note_on_c, 0, 54, 45
1, 299134, Control_c, 0, 64, 99
1, 299148, Control_c, 0, 64, 85
1, 299160, Note_off_c, 0, 54, 49
1, 299163, Control_c, 0, 64, 78
1, 299165, Note_on_c, 0, 52, 40
1, 299178, Control_c, 0, 64, 77
1, 299193, Control_c, 0, 64, 81
1, 299208, Control_c, 0, 64, 89
1, 299222, Control_c, 0, 64, 105
1, 299237, Control_c, 0, 64, 127
1, 299341, Note_off_c, 0, 75, 51
1, 299357, Note_off_c, 0, 87, 62
1, 299370, Note_on_c, 0, 54, 35
1, 299370, Note_off_c, 0, 52, 41
1, 299406, Note_off_c, 0, 54, 57
1, 299504, Control_c, 0, 64, 116
1, 299519, Control_c, 0, 64, 94
1, 299534, Control_c, 0, 64, 80
1, 299557, Control_c, 0, 64, 67
1, 299563, Note_on_c, 0, 86, 54
1, 299572, Control_c, 0, 64, 54
1, 299586, Control_c, 0, 64, 30
1, 299591, Note_on_c, 0, 74, 30
1, 299601, Control_c, 0, 64, 21
1, 299616, Control_c, 0, 64, 27
1, 299631, Control_c, 0, 64, 46
1, 299646, Control_c, 0, 64, 60
1, 299657, Note_off_c, 0, 74, 0
1, 299657, Note_on_c, 0, 74, 6
1, 299660, Control_c, 0, 64, 65
1, 299675, Control_c, 0, 64, 70
1, 299690, Control_c, 0, 64, 74
1, 299704, Control_c, 0, 64, 82
1, 299719, Control_c, 0, 64, 91
1, 299734, Control_c, 0, 64, 103
1, 299749, Control_c, 0, 64, 127
1, 299751, Note_on_c, 0, 55, 31
1, 299927, Control_c, 0, 64, 98
1, 299932, Note_on_c, 0, 54, 43
1, 299942, Control_c, 0, 64, 86
1, 299957, Control_c, 0, 64, 83
1, 299971, Control_c, 0, 64, 85
1, 299972, Note_off_c, 0, 55, 39
1, 299986, Control_c, 0, 64, 93
1, 299987, Note_off_c, 0, 74, 43
1, 300001, Control_c, 0, 64, 106
1, 300016, Control_c, 0, 64, 127
1, 300081, Note_off_c, 0, 86, 63
1, 300121, Note_on_c, 0, 55, 39
1, 300149, Note_off_c, 0, 54, 35
1, 300189, Note_off_c, 0, 55, 59
1, 300268, Control_c, 0, 64, 112
1, 300283, Control_c, 0, 64, 91
1, 300306, Control_c, 0, 64, 76
1, 300321, Control_c, 0, 64, 63
1, 300331, Note_on_c, 0, 86, 47
1, 300335, Control_c, 0, 64, 34
1, 300350, Control_c, 0, 64, 0
1, 300387, Note_off_c, 0, 86, 50
1, 300409, Note_on_c, 0, 84, 62
1, 300484, Note_off_c, 0, 84, 51
1, 300494, Note_on_c, 0, 87, 70
1, 300583, Note_on_c, 0, 86, 67
1, 300612, Note_off_c, 0, 87, 51
1, 300663, Note_on_c, 0, 72, 47
1, 300673, Note_off_c, 0, 86, 62
1, 300682, Note_on_c, 0, 89, 68
1, 300688, Note_on_c, 0, 63, 44
1, 300774, Note_on_c, 0, 87, 66
1, 300774, Note_off_c, 0, 63, 63
1, 300781, Note_off_c, 0, 89, 59
1, 300848, Note_on_c, 0, 86, 69
1, 300849, Note_off_c, 0, 87, 61
1, 300891, Note_off_c, 0, 86, 64
1, 300937, Note_on_c, 0, 84, 60
1, 301009, Note_off_c, 0, 72, 29
1, 301031, Note_off_c, 0, 84, 62
1, 301053, Note_on_c, 0, 82, 61
1, 301061, Note_on_c, 0, 74, 36
1, 301069, Note_on_c, 0, 65, 38
1, 301436, Note_on_c, 0, 81, 52
1, 301446, Note_on_c, 0, 75, 44
1, 301454, Note_off_c, 0, 82, 58
1, 301454, Control_c, 0, 64, 26
1, 301468, Control_c, 0, 64, 54
1, 301483, Control_c, 0, 64, 64
1, 301496, Note_off_c, 0, 74, 41
1, 301498, Control_c, 0, 64, 71
1, 301513, Control_c, 0, 64, 78
1, 301528, Control_c, 0, 64, 87
1, 301538, Note_off_c, 0, 75, 58
1, 301540, Note_off_c, 0, 65, 52
1, 301542, Control_c, 0, 64, 98
1, 301557, Control_c, 0, 64, 113
1, 301572, Control_c, 0, 64, 127
1, 301689, Note_off_c, 0, 81, 61
1, 301827, Note_on_c, 0, 74, 63
1, 301832, Control_c, 0, 64, 95
1, 301836, Note_on_c, 0, 70, 48
1, 301847, Control_c, 0, 64, 77
1, 301862, Control_c, 0, 64, 62
1, 301877, Control_c, 0, 64, 17
1, 301891, Control_c, 0, 64, 0
1, 301906, Control_c, 0, 64, 8
1, 301921, Control_c, 0, 64, 47
1, 301936, Control_c, 0, 64, 62
1, 301951, Control_c, 0, 64, 68
1, 301965, Control_c, 0, 64, 73
1, 301980, Control_c, 0, 64, 81
1, 301995, Control_c, 0, 64, 90
1, 302010, Control_c, 0, 64, 103
1, 302021, Note_on_c, 0, 82, 60
1, 302025, Control_c, 0, 64, 127
1, 302172, Control_c, 0, 64, 103
1, 302187, Control_c, 0, 64, 90
1, 302202, Control_c, 0, 64, 86
1, 302203, Note_on_c, 0, 81, 55
1, 302207, Note_off_c, 0, 82, 58
1, 302217, Control_c, 0, 64, 88
1, 302227, Note_off_c, 0, 70, 56
1, 302232, Note_off_c, 0, 74, 60
1, 302232, Control_c, 0, 64, 97
1, 302247, Control_c, 0, 64, 127
1, 302390, Note_on_c, 0, 82, 67
1, 302409, Note_off_c, 0, 81, 55
1, 302488, Note_off_c, 0, 82, 55
1, 302566, Control_c, 0, 64, 112
1, 302580, Note_on_c, 0, 70, 58
1, 302580, Note_on_c, 0, 74, 67
1, 302580, Control_c, 0, 64, 88
1, 302595, Control_c, 0, 64, 72
1, 302610, Control_c, 0, 64, 55
1, 302625, Control_c, 0, 64, 24
1, 302655, Control_c, 0, 64, 44
1, 302670, Control_c, 0, 64, 59
1, 302685, Control_c, 0, 64, 67
1, 302700, Control_c, 0, 64, 73
1, 302714, Control_c, 0, 64, 82
1, 302729, Control_c, 0, 64, 91
1, 302744, Control_c, 0, 64, 106
1, 302759, Control_c, 0, 64, 127
1, 302770, Note_on_c, 0, 80, 65
1, 302936, Control_c, 0, 64, 96
1, 302948, Note_on_c, 0, 79, 65
1, 302948, Note_off_c, 0, 80, 59
1, 302951, Control_c, 0, 64, 85
1, 302966, Control_c, 0, 64, 84
1, 302974, Note_off_c, 0, 70, 60
1, 302981, Control_c, 0, 64, 89
1, 302989, Note_off_c, 0, 74, 61
1, 302995, Control_c, 0, 64, 103
1, 303010, Control_c, 0, 64, 127
1, 303133, Note_on_c, 0, 80, 72
1, 303143, Note_off_c, 0, 79, 59
1, 303233, Note_off_c, 0, 80, 58
1, 303314, Control_c, 0, 64, 100
1, 303315, Note_on_c, 0, 77, 76
1, 303329, Note_on_c, 0, 74, 55
1, 303329, Control_c, 0, 64, 79
1, 303333, Note_on_c, 0, 71, 60
1, 303344, Control_c, 0, 64, 60
1, 303359, Control_c, 0, 64, 0
1, 303463, Control_c, 0, 64, 35
1, 303478, Control_c, 0, 64, 62
1, 303493, Control_c, 0, 64, 73
1, 303508, Control_c, 0, 64, 91
1, 303519, Note_on_c, 0, 79, 71
1, 303523, Control_c, 0, 64, 127
1, 303640, Control_c, 0, 64, 106
1, 303655, Control_c, 0, 64, 90
1, 303669, Control_c, 0, 64, 83
1, 303684, Control_c, 0, 64, 81
1, 303698, Note_on_c, 0, 78, 65
1, 303699, Control_c, 0, 64, 83
1, 303707, Note_off_c, 0, 79, 54
1, 303714, Control_c, 0, 64, 88
1, 303729, Control_c, 0, 64, 98
1, 303743, Control_c, 0, 64, 123
1, 303758, Control_c, 0, 64, 127
1, 303874, Note_on_c, 0, 79, 64
1, 303886, Note_off_c, 0, 78, 52
1, 303944, Note_off_c, 0, 79, 58
1, 303995, Note_off_c, 0, 71, 49
1, 304025, Control_c, 0, 64, 123
1, 304047, Control_c, 0, 64, 96
1, 304050, Note_off_c, 0, 74, 54
1, 304062, Control_c, 0, 64, 79
1, 304064, Note_on_c, 0, 75, 53
1, 304077, Control_c, 0, 64, 62
1, 304084, Note_on_c, 0, 72, 47
1, 304092, Control_c, 0, 64, 16
1, 304107, Control_c, 0, 64, 0
1, 304116, Note_off_c, 0, 77, 57
1, 304137, Control_c, 0, 64, 35
1, 304151, Control_c, 0, 64, 59
1, 304166, Control_c, 0, 64, 71
1, 304181, Control_c, 0, 64, 82
1, 304196, Control_c, 0, 64, 100
1, 304211, Control_c, 0, 64, 127
1, 304252, Note_on_c, 0, 79, 67
1, 304360, Control_c, 0, 64, 103
1, 304375, Control_c, 0, 64, 88
1, 304390, Control_c, 0, 64, 76
1, 304405, Control_c, 0, 64, 64
1, 304420, Control_c, 0, 64, 37
1, 304422, Note_off_c, 0, 79, 55
1, 304423, Note_on_c, 0, 87, 70
1, 304434, Control_c, 0, 64, 0
1, 304456, Note_off_c, 0, 87, 62
1, 304464, Note_off_c, 0, 75, 56
1, 304479, Note_off_c, 0, 72, 63
1, 304615, Note_on_c, 0, 87, 72
1, 304641, Note_off_c, 0, 87, 66
1, 304775, Control_c, 0, 64, 46
1, 304797, Control_c, 0, 64, 62
1, 304812, Control_c, 0, 64, 67
1, 304814, Note_on_c, 0, 69, 60
1, 304814, Note_on_c, 0, 75, 74
1, 304819, Note_on_c, 0, 72, 64
1, 304826, Control_c, 0, 64, 71
1, 304841, Control_c, 0, 64, 78
1, 304856, Control_c, 0, 64, 83
1, 304871, Control_c, 0, 64, 88
1, 304885, Control_c, 0, 64, 95
1, 304900, Control_c, 0, 64, 103
1, 304915, Control_c, 0, 64, 113
1, 304930, Control_c, 0, 64, 127
1, 304983, Note_on_c, 0, 87, 79
1, 305153, Control_c, 0, 64, 118
1, 305156, Note_off_c, 0, 87, 59
1, 305168, Control_c, 0, 64, 94
1, 305173, Note_on_c, 0, 77, 68
1, 305183, Control_c, 0, 64, 76
1, 305198, Control_c, 0, 64, 57
1, 305201, Note_off_c, 0, 77, 66
1, 305213, Control_c, 0, 64, 0
1, 305359, Note_on_c, 0, 77, 55
1, 305389, Note_off_c, 0, 77, 66
1, 305392, Note_off_c, 0, 69, 25
1, 305546, Note_on_c, 0, 74, 53
1, 305554, Note_on_c, 0, 70, 48
1, 305582, Note_off_c, 0, 72, 63
1, 305590, Control_c, 0, 64, 16
1, 305594, Note_off_c, 0, 75, 51
1, 305605, Control_c, 0, 64, 50
1, 305620, Control_c, 0, 64, 62
1, 305634, Control_c, 0, 64, 67
1, 305649, Control_c, 0, 64, 72
1, 305664, Control_c, 0, 64, 78
1, 305679, Control_c, 0, 64, 83
1, 305694, Control_c, 0, 64, 88
1, 305708, Control_c, 0, 64, 90
1, 305723, Control_c, 0, 64, 92
1, 305731, Note_on_c, 0, 77, 58
1, 305738, Control_c, 0, 64, 93
1, 305753, Control_c, 0, 64, 93
1, 305813, Control_c, 0, 64, 92
1, 305828, Control_c, 0, 64, 89
1, 305843, Control_c, 0, 64, 82
1, 305857, Control_c, 0, 64, 73
1, 305872, Control_c, 0, 64, 63
1, 305873, Note_off_c, 0, 77, 58
1, 305887, Control_c, 0, 64, 43
1, 305902, Control_c, 0, 64, 0
1, 305910, Note_on_c, 0, 86, 58
1, 305919, Note_off_c, 0, 74, 63
1, 305936, Note_off_c, 0, 86, 64
1, 305940, Note_off_c, 0, 70, 62
1, 306103, Note_on_c, 0, 86, 62
1, 306122, Note_off_c, 0, 86, 65
1, 306213, Control_c, 0, 64, 43
1, 306228, Control_c, 0, 64, 60
1, 306243, Control_c, 0, 64, 66
1, 306257, Control_c, 0, 64, 70
1, 306272, Control_c, 0, 64, 76
1, 306288, Note_on_c, 0, 67, 56
1, 306290, Note_on_c, 0, 74, 65
1, 306295, Control_c, 0, 64, 81
1, 306296, Note_on_c, 0, 70, 57
1, 306310, Control_c, 0, 64, 87
1, 306325, Control_c, 0, 64, 94
1, 306339, Control_c, 0, 64, 103
1, 306354, Control_c, 0, 64, 125
1, 306369, Control_c, 0, 64, 127
1, 306467, Note_on_c, 0, 86, 76
1, 306636, Control_c, 0, 64, 111
1, 306641, Note_off_c, 0, 86, 61
1, 306651, Control_c, 0, 64, 89
1, 306656, Note_on_c, 0, 75, 64
1, 306666, Control_c, 0, 64, 71
1, 306680, Control_c, 0, 64, 46
1, 306684, Note_off_c, 0, 75, 67
1, 306695, Control_c, 0, 64, 0
1, 306848, Note_on_c, 0, 75, 57
1, 306873, Note_off_c, 0, 75, 64
1, 307019, Note_on_c, 0, 72, 50
1, 307022, Note_off_c, 0, 70, 50
1, 307035, Note_on_c, 0, 69, 51
1, 307037, Note_off_c, 0, 67, 35
1, 307043, Note_off_c, 0, 74, 44
1, 307073, Control_c, 0, 64, 28
1, 307088, Control_c, 0, 64, 53
1, 307103, Control_c, 0, 64, 62
1, 307117, Control_c, 0, 64, 66
1, 307132, Control_c, 0, 64, 69
1, 307147, Control_c, 0, 64, 72
1, 307162, Control_c, 0, 64, 76
1, 307177, Control_c, 0, 64, 78
1, 307192, Control_c, 0, 64, 81
1, 307207, Control_c, 0, 64, 83
1, 307212, Note_on_c, 0, 75, 59
1, 307221, Control_c, 0, 64, 84
1, 307236, Control_c, 0, 64, 85
1, 307296, Control_c, 0, 64, 83
1, 307311, Control_c, 0, 64, 80
1, 307326, Control_c, 0, 64, 76
1, 307341, Control_c, 0, 64, 70
1, 307356, Control_c, 0, 64, 62
1, 307365, Note_off_c, 0, 69, 57
1, 307367, Note_off_c, 0, 72, 58
1, 307368, Note_off_c, 0, 75, 61
1, 307370, Control_c, 0, 64, 41
1, 307385, Control_c, 0, 64, 0
1, 307395, Note_on_c, 0, 84, 63
1, 307427, Note_off_c, 0, 84, 66
1, 307584, Note_on_c, 0, 84, 60
1, 307620, Note_off_c, 0, 84, 64
1, 307711, Control_c, 0, 64, 32
1, 307726, Control_c, 0, 64, 52
1, 307741, Control_c, 0, 64, 62
1, 307756, Control_c, 0, 64, 65
1, 307771, Control_c, 0, 64, 69
1, 307775, Note_on_c, 0, 72, 50
1, 307788, Note_on_c, 0, 66, 35
1, 307789, Note_on_c, 0, 69, 45
1, 307793, Control_c, 0, 64, 72
1, 307808, Control_c, 0, 64, 75
1, 307823, Control_c, 0, 64, 79
1, 307837, Control_c, 0, 64, 82
1, 307852, Control_c, 0, 64, 85
1, 307867, Control_c, 0, 64, 89
1, 307882, Control_c, 0, 64, 95
1, 307897, Control_c, 0, 64, 101
1, 307911, Control_c, 0, 64, 107
1, 307926, Control_c, 0, 64, 114
1, 307941, Control_c, 0, 64, 127
1, 307969, Note_on_c, 0, 84, 56
1, 308125, Note_off_c, 0, 84, 60
1, 308147, Note_on_c, 0, 74, 57
1, 308148, Control_c, 0, 64, 107
1, 308163, Control_c, 0, 64, 86
1, 308176, Note_off_c, 0, 74, 65
1, 308178, Control_c, 0, 64, 72
1, 308192, Control_c, 0, 64, 55
1, 308208, Control_c, 0, 64, 0
1, 308364, Note_on_c, 0, 74, 37
1, 308395, Note_off_c, 0, 74, 54
1, 308536, Note_off_c, 0, 66, 38
1, 308554, Note_on_c, 0, 67, 46
1, 308560, Note_on_c, 0, 70, 46
1, 308599, Note_off_c, 0, 69, 40
1, 308611, Note_off_c, 0, 72, 57
1, 308747, Note_on_c, 0, 74, 52
1, 308920, Note_off_c, 0, 74, 58
1, 308923, Note_on_c, 0, 82, 67
1, 308927, Note_off_c, 0, 67, 60
1, 308930, Note_off_c, 0, 70, 57
1, 308951, Note_off_c, 0, 82, 66
1, 309107, Note_on_c, 0, 82, 66
1, 309133, Note_off_c, 0, 82, 68
1, 309238, Control_c, 0, 64, 40
1, 309253, Control_c, 0, 64, 59
1, 309268, Control_c, 0, 64, 66
1, 309290, Control_c, 0, 64, 71
1, 309298, Note_on_c, 0, 82, 63
1, 309305, Control_c, 0, 64, 78
1, 309320, Control_c, 0, 64, 84
1, 309335, Control_c, 0, 64, 88
1, 309350, Control_c, 0, 64, 91
1, 309364, Control_c, 0, 64, 94
1, 309379, Control_c, 0, 64, 95
1, 309394, Control_c, 0, 64, 96
1, 309423, Control_c, 0, 64, 94
1, 309438, Control_c, 0, 64, 88
1, 309449, Note_off_c, 0, 82, 56
1, 309453, Control_c, 0, 64, 79
1, 309468, Control_c, 0, 64, 67
1, 309480, Note_on_c, 0, 70, 52
1, 309482, Note_on_c, 0, 64, 50
1, 309482, Control_c, 0, 64, 43
1, 309486, Note_on_c, 0, 72, 54
1, 309497, Control_c, 0, 64, 0
1, 309515, Note_off_c, 0, 64, 64
1, 309520, Note_off_c, 0, 70, 63
1, 309672, Note_on_c, 0, 64, 55
1, 309672, Note_on_c, 0, 70, 56
1, 309699, Note_off_c, 0, 64, 60
1, 309702, Note_off_c, 0, 72, 60
1, 309704, Note_off_c, 0, 70, 61
1, 309848, Note_on_c, 0, 64, 64
1, 309853, Note_on_c, 0, 70, 61
1, 309880, Note_off_c, 0, 64, 66
1, 309883, Note_off_c, 0, 70, 64
1, 309928, Control_c, 0, 64, 24
1, 309943, Control_c, 0, 64, 55
1, 309958, Control_c, 0, 64, 64
1, 309972, Control_c, 0, 64, 69
1, 309987, Control_c, 0, 64, 75
1, 310002, Control_c, 0, 64, 81
1, 310017, Control_c, 0, 64, 87
1, 310034, Note_on_c, 0, 82, 66
1, 310039, Control_c, 0, 64, 93
1, 310054, Control_c, 0, 64, 99
1, 310069, Control_c, 0, 64, 108
1, 310083, Control_c, 0, 64, 119
1, 310098, Control_c, 0, 64, 127
1, 310187, Control_c, 0, 64, 121
1, 310202, Control_c, 0, 64, 96
1, 310210, Note_off_c, 0, 82, 59
1, 310216, Note_on_c, 0, 70, 66
1, 310217, Control_c, 0, 64, 78
1, 310221, Note_on_c, 0, 74, 61
1, 310221, Note_on_c, 0, 65, 63
1, 310231, Control_c, 0, 64, 64
1, 310245, Note_off_c, 0, 70, 67
1, 310246, Control_c, 0, 64, 0
1, 310251, Note_off_c, 0, 65, 65
1, 310365, Note_off_c, 0, 74, 60
1, 310398, Note_on_c, 0, 70, 69
1, 310403, Note_on_c, 0, 65, 68
1, 310426, Note_off_c, 0, 70, 66
1, 310432, Note_off_c, 0, 65, 66
1, 310578, Note_on_c, 0, 70, 77
1, 310582, Note_on_c, 0, 65, 79
1, 310613, Note_off_c, 0, 70, 60
1, 310617, Note_off_c, 0, 65, 66
1, 310677, Control_c, 0, 64, 8
1, 310692, Control_c, 0, 64, 53
1, 310707, Control_c, 0, 64, 65
1, 310722, Control_c, 0, 64, 72
1, 310736, Control_c, 0, 64, 79
1, 310751, Control_c, 0, 64, 87
1, 310765, Note_on_c, 0, 82, 79
1, 310766, Control_c, 0, 64, 98
1, 310789, Control_c, 0, 64, 118
1, 310804, Control_c, 0, 64, 127
1, 310951, Control_c, 0, 64, 99
1, 310954, Note_on_c, 0, 67, 77
1, 310954, Note_on_c, 0, 70, 69
1, 310955, Note_on_c, 0, 75, 75
1, 310960, Note_off_c, 0, 82, 62
1, 310966, Control_c, 0, 64, 79
1, 310981, Note_off_c, 0, 67, 66
1, 310981, Control_c, 0, 64, 61
1, 310983, Note_off_c, 0, 70, 65
1, 310996, Control_c, 0, 64, 0
1, 311023, Note_off_c, 0, 75, 61
1, 311131, Note_on_c, 0, 67, 84
1, 311137, Note_on_c, 0, 70, 72
1, 311164, Note_off_c, 0, 70, 67
1, 311168, Note_off_c, 0, 67, 64
1, 311312, Note_on_c, 0, 67, 89
1, 311313, Note_on_c, 0, 70, 79
1, 311338, Note_off_c, 0, 70, 66
1, 311341, Note_off_c, 0, 67, 64
1, 311441, Control_c, 0, 64, 50
1, 311456, Control_c, 0, 64, 63
1, 311471, Control_c, 0, 64, 71
1, 311485, Control_c, 0, 64, 83
1, 311499, Note_on_c, 0, 82, 83
1, 311500, Control_c, 0, 64, 100
1, 311515, Control_c, 0, 64, 127
1, 311681, Note_on_c, 0, 66, 77
1, 311687, Note_on_c, 0, 70, 70
1, 311695, Note_on_c, 0, 76, 82
1, 311700, Control_c, 0, 64, 119
1, 311705, Note_off_c, 0, 82, 60
1, 311714, Note_off_c, 0, 70, 67
1, 311715, Note_off_c, 0, 66, 62
1, 311715, Control_c, 0, 64, 93
1, 311730, Control_c, 0, 64, 77
1, 311745, Control_c, 0, 64, 62
1, 311759, Control_c, 0, 64, 0
1, 311764, Note_off_c, 0, 76, 60
1, 311875, Note_on_c, 0, 70, 77
1, 311875, Note_on_c, 0, 66, 77
1, 311908, Note_off_c, 0, 70, 60
1, 311908, Note_off_c, 0, 66, 66
1, 312042, Note_on_c, 0, 66, 79
1, 312049, Note_on_c, 0, 70, 68
1, 312070, Note_off_c, 0, 66, 62
1, 312077, Note_off_c, 0, 70, 67
1, 312158, Control_c, 0, 64, 25
1, 312173, Control_c, 0, 64, 48
1, 312188, Control_c, 0, 64, 60
1, 312204, Control_c, 0, 64, 66
1, 312218, Control_c, 0, 64, 71
1, 312233, Control_c, 0, 64, 79
1, 312237, Note_on_c, 0, 82, 67
1, 312248, Control_c, 0, 64, 90
1, 312251, Note_on_c, 0, 65, 68
1, 312260, Note_on_c, 0, 70, 45
1, 312263, Control_c, 0, 64, 103
1, 312286, Control_c, 0, 64, 127
1, 312317, Note_off_c, 0, 70, 52
1, 312332, Note_off_c, 0, 65, 59
1, 312394, Note_off_c, 0, 82, 59
1, 312429, Note_on_c, 0, 77, 61
1, 312468, Note_off_c, 0, 77, 61
1, 312552, Control_c, 0, 64, 106
1, 312567, Control_c, 0, 64, 84
1, 312581, Control_c, 0, 64, 68
1, 312595, Note_on_c, 0, 70, 60
1, 312596, Note_on_c, 0, 62, 62
1, 312596, Control_c, 0, 64, 50
1, 312605, Note_on_c, 0, 82, 84
1, 312611, Control_c, 0, 64, 32
1, 312626, Control_c, 0, 64, 44
1, 312641, Control_c, 0, 64, 60
1, 312656, Control_c, 0, 64, 69
1, 312671, Control_c, 0, 64, 79
1, 312686, Control_c, 0, 64, 95
1, 312700, Control_c, 0, 64, 127
1, 312716, Note_off_c, 0, 70, 61
1, 312735, Note_off_c, 0, 62, 59
1, 312784, Note_on_c, 0, 78, 86
1, 312784, Note_off_c, 0, 82, 61
1, 312856, Note_off_c, 0, 78, 60
1, 312937, Control_c, 0, 64, 112
1, 312952, Control_c, 0, 64, 86
1, 312958, Note_on_c, 0, 70, 75
1, 312960, Note_on_c, 0, 63, 75
1, 312961, Note_on_c, 0, 82, 91
1, 312966, Control_c, 0, 64, 70
1, 312981, Control_c, 0, 64, 55
1, 312997, Control_c, 0, 64, 41
1, 313012, Control_c, 0, 64, 50
1, 313035, Control_c, 0, 64, 62
1, 313049, Control_c, 0, 64, 70
1, 313064, Control_c, 0, 64, 83
1, 313079, Control_c, 0, 64, 105
1, 313085, Note_off_c, 0, 70, 61
1, 313094, Control_c, 0, 64, 127
1, 313123, Note_off_c, 0, 63, 61
1, 313140, Note_off_c, 0, 82, 63
1, 313151, Note_on_c, 0, 79, 86
1, 313214, Note_off_c, 0, 79, 59
1, 313300, Control_c, 0, 64, 102
1, 313315, Control_c, 0, 64, 84
1, 313327, Note_on_c, 0, 87, 85
1, 313330, Note_on_c, 0, 60, 72
1, 313330, Note_on_c, 0, 65, 74
1, 313330, Control_c, 0, 64, 74
1, 313345, Control_c, 0, 64, 70
1, 313360, Control_c, 0, 64, 71
1, 313374, Control_c, 0, 64, 78
1, 313389, Control_c, 0, 64, 95
1, 313404, Control_c, 0, 64, 127
1, 313451, Note_off_c, 0, 60, 62
1, 313451, Note_off_c, 0, 65, 60
1, 313485, Note_off_c, 0, 87, 58
1, 313509, Note_on_c, 0, 81, 63
1, 313533, Note_off_c, 0, 81, 67
1, 313596, Control_c, 0, 64, 98
1, 313611, Control_c, 0, 64, 76
1, 313626, Control_c, 0, 64, 52
1, 313641, Control_c, 0, 64, 0
1, 313679, Note_on_c, 0, 87, 71
1, 313688, Note_on_c, 0, 65, 53
1, 313690, Note_on_c, 0, 58, 48
1, 313726, Note_off_c, 0, 87, 64
1, 313738, Note_on_c, 0, 86, 65
1, 313761, Note_off_c, 0, 86, 65
1, 313762, Note_on_c, 0, 84, 62
1, 313774, Note_off_c, 0, 65, 62
1, 313817, Note_off_c, 0, 84, 61
1, 313830, Note_on_c, 0, 86, 70
1, 313830, Note_off_c, 0, 58, 62
1, 313870, Note_on_c, 0, 89, 76
1, 313874, Note_off_c, 0, 86, 65
1, 313910, Note_off_c, 0, 89, 58
1, 313975, Control_c, 0, 64, 41
1, 313990, Control_c, 0, 64, 46
1, 314004, Control_c, 0, 64, 23
1, 314019, Control_c, 0, 64, 0
1, 314027, Note_on_c, 0, 84, 68
1, 314041, Note_on_c, 0, 53, 45
1, 314043, Note_on_c, 0, 50, 45
1, 314059, Note_off_c, 0, 84, 65
1, 314071, Note_on_c, 0, 82, 77
1, 314113, Note_off_c, 0, 82, 63
1, 314120, Note_on_c, 0, 81, 72
1, 314161, Note_on_c, 0, 82, 68
1, 314167, Note_off_c, 0, 53, 65
1, 314169, Note_off_c, 0, 50, 66
1, 314176, Note_off_c, 0, 81, 54
1, 314196, Note_on_c, 0, 86, 76
1, 314217, Note_off_c, 0, 82, 63
1, 314231, Note_off_c, 0, 86, 63
1, 314345, Control_c, 0, 64, 46
1, 314360, Control_c, 0, 64, 53
1, 314364, Note_on_c, 0, 81, 61
1, 314375, Control_c, 0, 64, 46
1, 314384, Note_on_c, 0, 58, 42
1, 314384, Note_off_c, 0, 81, 67
1, 314390, Note_on_c, 0, 51, 47
1, 314390, Control_c, 0, 64, 0
1, 314409, Note_on_c, 0, 79, 75
1, 314438, Note_off_c, 0, 79, 61
1, 314462, Note_on_c, 0, 78, 60
1, 314489, Note_off_c, 0, 58, 60
1, 314504, Note_off_c, 0, 78, 63
1, 314510, Note_off_c, 0, 51, 61
1, 314513, Note_on_c, 0, 79, 71
1, 314548, Note_on_c, 0, 82, 73
1, 314556, Note_off_c, 0, 79, 58
1, 314582, Note_off_c, 0, 82, 57
1, 314743, Note_on_c, 0, 74, 58
1, 314757, Note_on_c, 0, 55, 36
1, 314765, Note_on_c, 0, 51, 42
1, 314770, Note_off_c, 0, 74, 66
1, 314781, Note_on_c, 0, 72, 71
1, 314808, Note_off_c, 0, 72, 67
1, 314843, Note_on_c, 0, 71, 63
1, 314861, Note_off_c, 0, 71, 65
1, 314890, Note_on_c, 0, 72, 58
1, 314911, Note_off_c, 0, 55, 60
1, 314921, Note_off_c, 0, 72, 65
1, 314926, Note_on_c, 0, 75, 65
1, 314936, Note_off_c, 0, 51, 55
1, 315085, Note_off_c, 0, 75, 62
1, 315120, Note_on_c, 0, 65, 55
1, 315163, Note_off_c, 0, 65, 57
1, 315204, Note_on_c, 0, 77, 66
1, 315284, Note_off_c, 0, 77, 62
1, 315299, Note_on_c, 0, 79, 69
1, 315380, Note_on_c, 0, 77, 70
1, 315392, Note_off_c, 0, 79, 57
1, 315451, Note_on_c, 0, 50, 45
1, 315452, Note_on_c, 0, 58, 45
1, 315458, Note_on_c, 0, 75, 77
1, 315482, Note_off_c, 0, 77, 61
1, 315539, Note_on_c, 0, 74, 82
1, 315543, Note_off_c, 0, 75, 63
1, 315602, Note_off_c, 0, 74, 63
1, 315628, Note_on_c, 0, 72, 86
1, 315703, Note_off_c, 0, 72, 43
1, 315714, Note_on_c, 0, 70, 79
1, 315762, Note_off_c, 0, 70, 63
1, 315816, Note_off_c, 0, 50, 61
1, 315819, Note_on_c, 0, 74, 75
1, 315831, Note_on_c, 0, 51, 49
1, 315841, Note_off_c, 0, 74, 70
1, 315887, Note_on_c, 0, 72, 80
1, 315917, Note_off_c, 0, 72, 58
1, 315938, Note_on_c, 0, 74, 63
1, 315965, Note_off_c, 0, 74, 68
1, 315995, Note_on_c, 0, 72, 72
1, 316041, Note_off_c, 0, 72, 61
1, 316042, Note_on_c, 0, 74, 72
1, 316066, Note_off_c, 0, 74, 68
1, 316094, Note_on_c, 0, 72, 67
1, 316112, Note_off_c, 0, 51, 60
1, 316113, Note_on_c, 0, 57, 55
1, 316115, Note_on_c, 0, 53, 51
1, 316132, Note_off_c, 0, 72, 62
1, 316139, Note_off_c, 0, 58, 34
1, 316147, Note_on_c, 0, 74, 69
1, 316203, Note_off_c, 0, 57, 61
1, 316205, Note_off_c, 0, 74, 63
1, 316218, Note_on_c, 0, 72, 50
1, 316245, Note_off_c, 0, 53, 61
1, 316274, Note_off_c, 0, 72, 58
1, 316292, Note_on_c, 0, 70, 76
1, 316353, Note_off_c, 0, 70, 62
1, 316382, Note_on_c, 0, 72, 69
1, 316429, Control_c, 0, 64, 34
1, 316444, Control_c, 0, 64, 56
1, 316459, Control_c, 0, 64, 65
1, 316472, Note_off_c, 0, 72, 62
1, 316473, Control_c, 0, 64, 73
1, 316476, Note_on_c, 0, 70, 75
1, 316488, Control_c, 0, 64, 83
1, 316494, Note_on_c, 0, 58, 55
1, 316495, Note_on_c, 0, 46, 58
1, 316503, Control_c, 0, 64, 96
1, 316507, Note_off_c, 0, 70, 66
1, 316518, Control_c, 0, 64, 113
1, 316533, Control_c, 0, 64, 127
1, 316546, Note_off_c, 0, 46, 62
1, 316551, Note_off_c, 0, 58, 61
1, 316636, Control_c, 0, 64, 118
1, 316651, Control_c, 0, 64, 87
1, 316666, Control_c, 0, 64, 68
1, 316669, Note_on_c, 0, 58, 72
1, 316680, Control_c, 0, 64, 34
1, 316695, Control_c, 0, 64, 0
1, 316736, Note_off_c, 0, 58, 62
1, 316749, Note_on_c, 0, 62, 62
1, 316835, Note_off_c, 0, 62, 58
1, 316845, Note_on_c, 0, 57, 48
1, 316857, Note_on_c, 0, 60, 58
1, 316926, Note_off_c, 0, 60, 50
1, 316937, Note_on_c, 0, 63, 63
1, 316987, Note_off_c, 0, 57, 52
1, 316993, Note_off_c, 0, 63, 61
1, 316999, Note_on_c, 0, 56, 53
1, 317023, Note_on_c, 0, 62, 62
1, 317023, Note_off_c, 0, 56, 58
1, 317071, Note_off_c, 0, 62, 61
1, 317118, Note_on_c, 0, 65, 56
1, 317176, Note_off_c, 0, 65, 58
1, 317178, Control_c, 0, 64, 49
1, 317182, Note_on_c, 0, 55, 49
1, 317185, Note_on_c, 0, 46, 49
1, 317193, Control_c, 0, 64, 67
1, 317195, Note_on_c, 0, 63, 61
1, 317208, Control_c, 0, 64, 80
1, 317217, Note_off_c, 0, 63, 64
1, 317222, Note_off_c, 0, 46, 64
1, 317223, Control_c, 0, 64, 107
1, 317224, Note_off_c, 0, 55, 61
1, 317238, Control_c, 0, 64, 127
1, 317386, Control_c, 0, 64, 95
1, 317390, Note_on_c, 0, 58, 67
1, 317401, Control_c, 0, 64, 77
1, 317415, Control_c, 0, 64, 59
1, 317430, Control_c, 0, 64, 0
1, 317455, Note_off_c, 0, 58, 60
1, 317470, Note_on_c, 0, 62, 64
1, 317554, Note_off_c, 0, 62, 61
1, 317558, Note_on_c, 0, 60, 79
1, 317559, Note_on_c, 0, 57, 67
1, 317646, Note_on_c, 0, 63, 76
1, 317657, Note_off_c, 0, 60, 61
1, 317716, Note_off_c, 0, 63, 62
1, 317724, Note_on_c, 0, 62, 79
1, 317727, Note_on_c, 0, 56, 59
1, 317731, Note_off_c, 0, 57, 60
1, 317757, Note_off_c, 0, 56, 64
1, 317793, Note_off_c, 0, 62, 61
1, 317826, Note_on_c, 0, 65, 68
1, 317853, Control_c, 0, 64, 44
1, 317868, Control_c, 0, 64, 61
1, 317879, Note_off_c, 0, 65, 57
1, 317883, Control_c, 0, 64, 68
1, 317898, Control_c, 0, 64, 77
1, 317902, Note_on_c, 0, 63, 67
1, 317908, Note_on_c, 0, 55, 53
1, 317913, Control_c, 0, 64, 90
1, 317917, Note_on_c, 0, 46, 50
1, 317927, Control_c, 0, 64, 111
1, 317930, Note_off_c, 0, 63, 68
1, 317942, Control_c, 0, 64, 127
1, 317947, Note_off_c, 0, 46, 56
1, 317953, Note_off_c, 0, 55, 60
1, 318090, Control_c, 0, 64, 109
1, 318095, Note_on_c, 0, 58, 61
1, 318105, Control_c, 0, 64, 85
1, 318120, Control_c, 0, 64, 68
1, 318135, Control_c, 0, 64, 0
1, 318161, Note_off_c, 0, 58, 63
1, 318180, Note_on_c, 0, 62, 60
1, 318245, Note_off_c, 0, 62, 51
1, 318273, Note_on_c, 0, 60, 63
1, 318287, Note_on_c, 0, 57, 56
1, 318361, Note_on_c, 0, 63, 65
1, 318365, Note_off_c, 0, 60, 59
1, 318428, Note_off_c, 0, 63, 62
1, 318436, Note_off_c, 0, 57, 49
1, 318438, Note_on_c, 0, 62, 72
1, 318439, Note_on_c, 0, 56, 53
1, 318470, Note_off_c, 0, 56, 64
1, 318536, Note_on_c, 0, 65, 62
1, 318557, Note_off_c, 0, 62, 56
1, 318604, Note_on_c, 0, 55, 73
1, 318618, Note_on_c, 0, 63, 63
1, 318635, Note_off_c, 0, 65, 56
1, 318641, Note_off_c, 0, 55, 62
1, 318694, Note_off_c, 0, 63, 63
1, 318700, Note_on_c, 0, 67, 62
1, 318743, Note_off_c, 0, 67, 62
1, 318780, Note_on_c, 0, 50, 70
1, 318782, Note_on_c, 0, 65, 67
1, 318812, Note_off_c, 0, 50, 68
1, 318841, Note_off_c, 0, 65, 60
1, 318868, Note_on_c, 0, 68, 69
1, 318930, Note_off_c, 0, 68, 64
1, 318943, Note_on_c, 0, 51, 70
1, 318960, Note_on_c, 0, 67, 70
1, 318971, Note_off_c, 0, 51, 65
1, 319024, Note_off_c, 0, 67, 49
1, 319038, Note_on_c, 0, 70, 79
1, 319113, Note_off_c, 0, 70, 60
1, 319118, Note_on_c, 0, 48, 62
1, 319127, Note_on_c, 0, 69, 80
1, 319148, Note_off_c, 0, 48, 64
1, 319199, Note_off_c, 0, 69, 63
1, 319210, Note_on_c, 0, 72, 76
1, 319294, Note_on_c, 0, 50, 85
1, 319301, Note_off_c, 0, 72, 61
1, 319303, Note_on_c, 0, 70, 89
1, 319390, Note_on_c, 0, 72, 85
1, 319390, Note_off_c, 0, 70, 64
1, 319476, Note_off_c, 0, 72, 62
1, 319479, Note_on_c, 0, 74, 82
1, 319558, Note_on_c, 0, 72, 87
1, 319572, Note_off_c, 0, 50, 65
1, 319587, Note_off_c, 0, 74, 64
1, 319644, Note_on_c, 0, 70, 84
1, 319662, Note_off_c, 0, 72, 63
1, 319718, Note_on_c, 0, 68, 84
1, 319735, Note_off_c, 0, 70, 62
1, 319793, Note_off_c, 0, 68, 64
1, 319805, Note_on_c, 0, 67, 88
1, 319879, Note_off_c, 0, 67, 58
1, 319888, Note_on_c, 0, 66, 77
1, 319944, Note_off_c, 0, 66, 65
1, 319975, Note_on_c, 0, 67, 82
1, 319979, Note_on_c, 0, 51, 76
1, 320064, Note_off_c, 0, 67, 57
1, 320067, Note_on_c, 0, 72, 79
1, 320147, Note_on_c, 0, 75, 85
1, 320147, Note_off_c, 0, 72, 64
1, 320228, Note_off_c, 0, 51, 59
1, 320233, Note_on_c, 0, 74, 80
1, 320260, Note_off_c, 0, 75, 60
1, 320304, Note_off_c, 0, 74, 64
1, 320321, Note_on_c, 0, 72, 88
1, 320404, Note_on_c, 0, 70, 85
1, 320416, Note_off_c, 0, 72, 58
1, 320484, Note_on_c, 0, 69, 85
1, 320493, Note_off_c, 0, 70, 63
1, 320559, Note_off_c, 0, 69, 65
1, 320573, Note_on_c, 0, 67, 85
1, 320624, Note_off_c, 0, 67, 64
1, 320654, Note_on_c, 0, 65, 77
1, 320658, Note_on_c, 0, 53, 73
1, 320742, Note_on_c, 0, 70, 80
1, 320815, Note_on_c, 0, 74, 76
1, 320833, Note_off_c, 0, 70, 57
1, 320845, Note_on_c, 0, 58, 59
1, 320847, Note_off_c, 0, 65, 59
1, 320894, Note_on_c, 0, 77, 74
1, 320918, Note_off_c, 0, 74, 60
1, 320972, Note_on_c, 0, 82, 88
1, 320976, Note_off_c, 0, 77, 65
1, 320990, Note_off_c, 0, 58, 63
1, 320998, Note_on_c, 0, 62, 66
1, 321009, Note_off_c, 0, 82, 64
1, 321149, Note_off_c, 0, 53, 61
1, 321166, Note_off_c, 0, 62, 62
1, 321172, Note_on_c, 0, 74, 75
1, 321175, Note_on_c, 0, 70, 57
1, 321179, Note_on_c, 0, 58, 59
1, 321186, Note_on_c, 0, 73, 23
1, 321196, Note_off_c, 0, 70, 60
1, 321198, Note_off_c, 0, 74, 69
1, 321226, Note_off_c, 0, 73, 48
1, 321292, Note_off_c, 0, 58, 0
1, 321292, Note_on_c, 0, 58, 4
1, 321330, Control_c, 0, 64, 18
1, 321345, Control_c, 0, 64, 49
1, 321345, Note_off_c, 0, 58, 59
1, 321354, Note_on_c, 0, 77, 85
1, 321360, Control_c, 0, 64, 60
1, 321362, Note_on_c, 0, 53, 59
1, 321366, Note_on_c, 0, 74, 74
1, 321375, Control_c, 0, 64, 64
1, 321389, Control_c, 0, 64, 67
1, 321404, Control_c, 0, 64, 70
1, 321419, Control_c, 0, 64, 73
1, 321434, Control_c, 0, 64, 76
1, 321449, Control_c, 0, 64, 77
1, 321478, Control_c, 0, 64, 77
1, 321493, Control_c, 0, 64, 74
1, 321508, Control_c, 0, 64, 68
1, 321518, Note_off_c, 0, 74, 58
1, 321523, Control_c, 0, 64, 56
1, 321524, Note_off_c, 0, 77, 60
1, 321526, Note_on_c, 0, 75, 78
1, 321537, Control_c, 0, 64, 0
1, 321542, Note_on_c, 0, 60, 59
1, 321542, Note_on_c, 0, 72, 59
1, 321565, Note_off_c, 0, 72, 64
1, 321567, Note_off_c, 0, 75, 64
1, 321682, Note_off_c, 0, 60, 62
1, 321705, Note_on_c, 0, 74, 78
1, 321706, Note_on_c, 0, 70, 79
1, 321721, Note_on_c, 0, 63, 59
1, 321730, Note_off_c, 0, 70, 68
1, 321736, Note_off_c, 0, 74, 62
1, 321828, Note_off_c, 0, 63, 38
1, 321885, Note_on_c, 0, 72, 76
1, 321888, Note_on_c, 0, 60, 64
1, 321893, Note_on_c, 0, 69, 69
1, 321912, Note_off_c, 0, 72, 67
1, 321921, Note_off_c, 0, 60, 66
1, 321921, Note_off_c, 0, 69, 69
1, 321951, Note_off_c, 0, 53, 33
1, 322019, Control_c, 0, 64, 26
1, 322034, Control_c, 0, 64, 52
1, 322049, Control_c, 0, 64, 63
1, 322064, Control_c, 0, 64, 67
1, 322079, Control_c, 0, 64, 73
1, 322086, Note_on_c, 0, 70, 81
1, 322087, Note_on_c, 0, 58, 68
1, 322091, Note_on_c, 0, 62, 58
1, 322094, Control_c, 0, 64, 82
1, 322108, Control_c, 0, 64, 95
1, 322113, Note_off_c, 0, 58, 67
1, 322120, Note_off_c, 0, 70, 64
1, 322122, Note_off_c, 0, 62, 65
1, 322123, Control_c, 0, 64, 114
1, 322138, Control_c, 0, 64, 127
1, 322273, Note_on_c, 0, 70, 73
1, 322285, Control_c, 0, 64, 101
1, 322300, Control_c, 0, 64, 83
1, 322315, Control_c, 0, 64, 69
1, 322329, Control_c, 0, 64, 43
1, 322338, Note_off_c, 0, 70, 62
1, 322344, Control_c, 0, 64, 0
1, 322352, Note_on_c, 0, 74, 70
1, 322427, Note_off_c, 0, 74, 59
1, 322441, Note_on_c, 0, 72, 70
1, 322451, Note_on_c, 0, 69, 49
1, 322531, Note_off_c, 0, 72, 60
1, 322532, Note_on_c, 0, 75, 70
1, 322600, Note_off_c, 0, 75, 62
1, 322606, Note_on_c, 0, 68, 51
1, 322615, Note_off_c, 0, 69, 41
1, 322618, Note_on_c, 0, 74, 67
1, 322627, Note_off_c, 0, 68, 62
1, 322696, Note_off_c, 0, 74, 57
1, 322701, Note_on_c, 0, 77, 68
1, 322731, Control_c, 0, 64, 13
1, 322746, Control_c, 0, 64, 51
1, 322768, Control_c, 0, 64, 62
1, 322783, Control_c, 0, 64, 67
1, 322785, Note_off_c, 0, 77, 59
1, 322793, Note_on_c, 0, 67, 59
1, 322793, Note_on_c, 0, 75, 74
1, 322797, Control_c, 0, 64, 76
1, 322803, Note_on_c, 0, 58, 42
1, 322812, Control_c, 0, 64, 88
1, 322815, Note_off_c, 0, 75, 69
1, 322824, Note_off_c, 0, 67, 64
1, 322827, Control_c, 0, 64, 103
1, 322831, Note_off_c, 0, 58, 54
1, 322842, Control_c, 0, 64, 127
1, 322946, Control_c, 0, 64, 102
1, 322960, Control_c, 0, 64, 81
1, 322974, Note_on_c, 0, 82, 72
1, 322975, Control_c, 0, 64, 66
1, 322989, Note_on_c, 0, 70, 57
1, 322990, Control_c, 0, 64, 15
1, 323005, Control_c, 0, 64, 0
1, 323047, Note_on_c, 0, 86, 76
1, 323053, Note_off_c, 0, 82, 64
1, 323132, Note_off_c, 0, 86, 62
1, 323137, Note_on_c, 0, 84, 87
1, 323137, Note_off_c, 0, 70, 58
1, 323147, Note_on_c, 0, 69, 62
1, 323229, Note_on_c, 0, 87, 87
1, 323232, Note_off_c, 0, 84, 60
1, 323274, Note_off_c, 0, 69, 56
1, 323308, Note_on_c, 0, 68, 62
1, 323313, Note_on_c, 0, 86, 87
1, 323316, Note_off_c, 0, 87, 62
1, 323338, Note_off_c, 0, 68, 68
1, 323388, Note_on_c, 0, 89, 88
1, 323388, Note_off_c, 0, 86, 64
1, 323450, Control_c, 0, 64, 27
1, 323465, Control_c, 0, 64, 57
1, 323480, Control_c, 0, 64, 64
1, 323483, Note_off_c, 0, 89, 61
1, 323483, Note_on_c, 0, 87, 86
1, 323494, Note_on_c, 0, 58, 59
1, 323495, Control_c, 0, 64, 70
1, 323496, Note_on_c, 0, 67, 57
1, 323512, Note_off_c, 0, 87, 68
1, 323518, Control_c, 0, 64, 80
1, 323533, Control_c, 0, 64, 93
1, 323536, Note_off_c, 0, 67, 64
1, 323537, Note_off_c, 0, 58, 64
1, 323547, Control_c, 0, 64, 104
1, 323562, Control_c, 0, 64, 112
1, 323577, Control_c, 0, 64, 113
1, 323636, Control_c, 0, 64, 107
1, 323651, Control_c, 0, 64, 91
1, 323665, Control_c, 0, 64, 73
1, 323680, Control_c, 0, 64, 54
1, 323691, Note_on_c, 0, 70, 70
1, 323695, Control_c, 0, 64, 0
1, 323754, Note_off_c, 0, 70, 58
1, 323771, Note_on_c, 0, 74, 66
1, 323846, Note_off_c, 0, 74, 59
1, 323861, Note_on_c, 0, 72, 66
1, 323872, Note_on_c, 0, 69, 50
1, 323939, Note_on_c, 0, 75, 68
1, 323947, Note_off_c, 0, 72, 59
1, 324006, Note_off_c, 0, 75, 62
1, 324025, Note_on_c, 0, 68, 52
1, 324025, Note_on_c, 0, 74, 66
1, 324029, Note_off_c, 0, 69, 52
1, 324051, Note_off_c, 0, 68, 64
1, 324085, Note_off_c, 0, 74, 63
1, 324106, Note_on_c, 0, 77, 68
1, 324192, Note_on_c, 0, 67, 64
1, 324192, Note_on_c, 0, 75, 69
1, 324192, Note_off_c, 0, 77, 58
1, 324222, Note_off_c, 0, 67, 65
1, 324234, Note_off_c, 0, 75, 62
1, 324279, Note_on_c, 0, 70, 69
1, 324325, Note_off_c, 0, 70, 61
1, 324366, Note_on_c, 0, 62, 67
1, 324368, Note_on_c, 0, 77, 71
1, 324398, Note_off_c, 0, 62, 65
1, 324430, Note_off_c, 0, 77, 57
1, 324444, Note_on_c, 0, 70, 70
1, 324506, Note_off_c, 0, 70, 59
1, 324532, Note_on_c, 0, 63, 75
1, 324534, Note_on_c, 0, 79, 79
1, 324565, Note_off_c, 0, 63, 66
1, 324583, Note_off_c, 0, 79, 60
1, 324618, Note_on_c, 0, 70, 65
1, 324675, Note_off_c, 0, 70, 49
1, 324699, Note_on_c, 0, 60, 71
1, 324702, Note_on_c, 0, 81, 72
1, 324727, Note_off_c, 0, 60, 69
1, 324747, Note_off_c, 0, 81, 65
1, 324778, Note_on_c, 0, 70, 72
1, 324837, Note_off_c, 0, 70, 59
1, 324879, Note_on_c, 0, 82, 82
1, 324881, Note_on_c, 0, 62, 63
1, 324895, Note_on_c, 0, 50, 59
1, 324967, Note_on_c, 0, 84, 79
1, 324978, Note_off_c, 0, 82, 63
1, 325069, Note_off_c, 0, 84, 64
1, 325075, Note_on_c, 0, 86, 69
1, 325151, Note_on_c, 0, 84, 76
1, 325167, Note_off_c, 0, 86, 62
1, 325232, Note_on_c, 0, 82, 83
1, 325235, Note_off_c, 0, 62, 59
1, 325244, Note_off_c, 0, 50, 63
1, 325251, Note_off_c, 0, 84, 64
1, 325306, Note_on_c, 0, 80, 81
1, 325318, Note_off_c, 0, 82, 62
1, 325369, Note_off_c, 0, 80, 64
1, 325370, Control_c, 0, 64, 10
1, 325390, Note_on_c, 0, 79, 85
1, 325429, Control_c, 0, 64, 12
1, 325468, Note_on_c, 0, 78, 86
1, 325488, Note_off_c, 0, 79, 58
1, 325542, Note_off_c, 0, 78, 65
1, 325557, Note_on_c, 0, 63, 77
1, 325561, Note_on_c, 0, 51, 69
1, 325563, Note_on_c, 0, 79, 87
1, 325593, Control_c, 0, 64, 15
1, 325608, Control_c, 0, 64, 17
1, 325617, Note_off_c, 0, 79, 61
1, 325623, Control_c, 0, 64, 18
1, 325647, Note_on_c, 0, 77, 86
1, 325652, Control_c, 0, 64, 20
1, 325667, Control_c, 0, 64, 21
1, 325682, Control_c, 0, 64, 26
1, 325697, Control_c, 0, 64, 27
1, 325711, Control_c, 0, 64, 29
1, 325726, Control_c, 0, 64, 31
1, 325730, Note_on_c, 0, 75, 80
1, 325735, Note_off_c, 0, 77, 62
1, 325741, Control_c, 0, 64, 34
1, 325763, Control_c, 0, 64, 36
1, 325778, Control_c, 0, 64, 37
1, 325793, Control_c, 0, 64, 38
1, 325808, Control_c, 0, 64, 39
1, 325820, Note_on_c, 0, 74, 85
1, 325823, Control_c, 0, 64, 39
1, 325838, Control_c, 0, 64, 40
1, 325842, Note_off_c, 0, 75, 59
1, 325879, Note_off_c, 0, 74, 65
1, 325906, Note_off_c, 0, 63, 61
1, 325907, Note_on_c, 0, 72, 86
1, 325912, Note_off_c, 0, 51, 58
1, 325912, Control_c, 0, 64, 41
1, 325927, Control_c, 0, 64, 41
1, 325942, Control_c, 0, 64, 42
1, 325957, Control_c, 0, 64, 43
1, 325972, Control_c, 0, 64, 43
1, 325988, Note_on_c, 0, 70, 84
1, 325995, Note_off_c, 0, 72, 56
1, 326001, Control_c, 0, 64, 44
1, 326014, Control_c, 0, 64, 45
1, 326029, Control_c, 0, 64, 44
1, 326044, Control_c, 0, 64, 43
1, 326058, Control_c, 0, 64, 40
1, 326066, Note_on_c, 0, 69, 84
1, 326073, Control_c, 0, 64, 31
1, 326079, Note_off_c, 0, 70, 61
1, 326088, Control_c, 0, 64, 0
1, 326125, Note_off_c, 0, 69, 66
1, 326154, Note_on_c, 0, 67, 81
1, 326221, Note_on_c, 0, 53, 61
1, 326227, Note_on_c, 0, 65, 88
1, 326229, Note_off_c, 0, 67, 61
1, 326250, Note_off_c, 0, 65, 68
1, 326271, Note_off_c, 0, 53, 62
1, 326307, Note_on_c, 0, 62, 59
1, 326369, Note_off_c, 0, 62, 57
1, 326392, Note_on_c, 0, 86, 83
1, 326398, Note_on_c, 0, 58, 59
1, 326431, Note_off_c, 0, 86, 66
1, 326436, Note_off_c, 0, 58, 63
1, 326484, Note_on_c, 0, 62, 54
1, 326531, Note_off_c, 0, 62, 62
1, 326574, Note_on_c, 0, 53, 61
1, 326583, Note_on_c, 0, 86, 70
1, 326608, Note_off_c, 0, 86, 66
1, 326615, Note_off_c, 0, 53, 65
1, 326665, Note_on_c, 0, 62, 53
1, 326720, Note_off_c, 0, 62, 57
1, 326747, Note_on_c, 0, 86, 69
1, 326752, Note_on_c, 0, 58, 59
1, 326775, Note_off_c, 0, 86, 68
1, 326779, Note_off_c, 0, 58, 64
1, 326828, Note_on_c, 0, 62, 61
1, 326900, Note_off_c, 0, 62, 45
1, 326932, Note_on_c, 0, 86, 68
1, 326943, Note_on_c, 0, 53, 55
1, 326989, Note_off_c, 0, 53, 64
1, 327012, Note_on_c, 0, 82, 74
1, 327022, Note_off_c, 0, 86, 60
1, 327027, Note_on_c, 0, 62, 54
1, 327077, Note_off_c, 0, 62, 58
1, 327096, Note_on_c, 0, 77, 73
1, 327111, Note_off_c, 0, 82, 62
1, 327115, Note_on_c, 0, 58, 60
1, 327141, Note_off_c, 0, 77, 64
1, 327148, Note_off_c, 0, 58, 65
1, 327167, Note_on_c, 0, 74, 77
1, 327192, Note_on_c, 0, 62, 64
1, 327233, Note_off_c, 0, 62, 61
1, 327260, Note_on_c, 0, 82, 87
1, 327260, Note_off_c, 0, 74, 62
1, 327281, Note_on_c, 0, 53, 64
1, 327319, Note_off_c, 0, 53, 66
1, 327344, Note_on_c, 0, 77, 75
1, 327352, Note_on_c, 0, 62, 71
1, 327355, Note_off_c, 0, 82, 61
1, 327401, Note_off_c, 0, 77, 62
1, 327409, Note_off_c, 0, 62, 58
1, 327426, Note_on_c, 0, 74, 81
1, 327438, Note_on_c, 0, 58, 71
1, 327474, Note_off_c, 0, 58, 62
1, 327505, Note_off_c, 0, 74, 58
1, 327510, Note_on_c, 0, 70, 77
1, 327522, Note_on_c, 0, 62, 59
1, 327552, Note_off_c, 0, 70, 64
1, 327558, Note_off_c, 0, 62, 62
1, 327605, Note_on_c, 0, 74, 75
1, 327611, Note_on_c, 0, 53, 56
1, 327631, Note_off_c, 0, 74, 66
1, 327671, Note_off_c, 0, 53, 54
1, 327682, Note_on_c, 0, 72, 74
1, 327695, Note_on_c, 0, 63, 50
1, 327710, Note_off_c, 0, 72, 61
1, 327732, Note_on_c, 0, 74, 72
1, 327733, Note_off_c, 0, 63, 62
1, 327760, Note_off_c, 0, 74, 67
1, 327766, Note_on_c, 0, 57, 60
1, 327795, Note_on_c, 0, 72, 79
1, 327801, Note_off_c, 0, 57, 65
1, 327829, Note_off_c, 0, 72, 55
1, 327838, Note_on_c, 0, 63, 55
1, 327855, Note_on_c, 0, 74, 63
1, 327876, Note_off_c, 0, 63, 66
1, 327882, Note_off_c, 0, 74, 67
1, 327910, Note_on_c, 0, 72, 65
1, 327926, Note_on_c, 0, 53, 55
1, 327931, Note_off_c, 0, 72, 60
1, 327948, Note_on_c, 0, 74, 71
1, 327967, Note_off_c, 0, 53, 65
1, 327977, Note_off_c, 0, 74, 66
1, 328010, Note_on_c, 0, 72, 70
1, 328018, Note_on_c, 0, 63, 60
1, 328059, Note_off_c, 0, 63, 63
1, 328059, Note_off_c, 0, 72, 64
1, 328068, Note_on_c, 0, 74, 66
1, 328094, Note_off_c, 0, 74, 69
1, 328095, Note_on_c, 0, 57, 67
1, 328117, Note_on_c, 0, 72, 66
1, 328129, Note_off_c, 0, 57, 64
1, 328155, Note_off_c, 0, 72, 61
1, 328163, Note_on_c, 0, 74, 67
1, 328184, Note_on_c, 0, 63, 59
1, 328197, Note_off_c, 0, 74, 66
1, 328220, Note_off_c, 0, 63, 65
1, 328230, Note_on_c, 0, 72, 70
1, 328267, Note_on_c, 0, 53, 63
1, 328267, Note_off_c, 0, 72, 59
1, 328282, Note_on_c, 0, 74, 63
1, 328309, Note_off_c, 0, 53, 65
1, 328310, Note_off_c, 0, 74, 67
1, 328327, Note_on_c, 0, 72, 70
1, 328350, Note_on_c, 0, 63, 64
1, 328350, Control_c, 0, 64, 8
1, 328365, Control_c, 0, 64, 10
1, 328373, Note_off_c, 0, 72, 61
1, 328375, Note_on_c, 0, 74, 70
1, 328380, Control_c, 0, 64, 13
1, 328389, Note_off_c, 0, 63, 63
1, 328395, Control_c, 0, 64, 15
1, 328412, Note_off_c, 0, 74, 64
1, 328437, Note_on_c, 0, 57, 69
1, 328439, Note_on_c, 0, 72, 71
1, 328440, Control_c, 0, 64, 16
1, 328454, Control_c, 0, 64, 18
1, 328469, Control_c, 0, 64, 19
1, 328470, Note_off_c, 0, 57, 64
1, 328483, Note_off_c, 0, 72, 65
1, 328488, Note_on_c, 0, 74, 64
1, 328516, Note_on_c, 0, 63, 75
1, 328518, Note_off_c, 0, 74, 67
1, 328528, Control_c, 0, 64, 20
1, 328533, Note_on_c, 0, 72, 70
1, 328558, Note_off_c, 0, 63, 60
1, 328588, Note_off_c, 0, 72, 62
1, 328594, Note_on_c, 0, 74, 70
1, 328602, Control_c, 0, 64, 21
1, 328607, Note_on_c, 0, 53, 67
1, 328620, Note_off_c, 0, 74, 68
1, 328632, Control_c, 0, 64, 21
1, 328648, Note_on_c, 0, 72, 71
1, 328652, Note_off_c, 0, 53, 64
1, 328661, Control_c, 0, 64, 23
1, 328675, Note_on_c, 0, 63, 73
1, 328676, Control_c, 0, 64, 24
1, 328689, Note_off_c, 0, 72, 67
1, 328691, Note_on_c, 0, 74, 73
1, 328717, Note_off_c, 0, 74, 68
1, 328720, Note_off_c, 0, 63, 60
1, 328749, Note_on_c, 0, 72, 70
1, 328758, Control_c, 0, 64, 23
1, 328768, Note_on_c, 0, 57, 63
1, 328773, Control_c, 0, 64, 20
1, 328787, Control_c, 0, 64, 18
1, 328789, Note_off_c, 0, 72, 63
1, 328801, Note_off_c, 0, 57, 64
1, 328802, Control_c, 0, 64, 15
1, 328803, Note_on_c, 0, 70, 75
1, 328817, Control_c, 0, 64, 0
1, 328869, Note_off_c, 0, 70, 63
1, 328875, Note_on_c, 0, 72, 77
1, 328932, Note_off_c, 0, 72, 60
1, 328944, Note_on_c, 0, 58, 59
1, 328944, Note_on_c, 0, 70, 77
1, 328969, Note_off_c, 0, 70, 67
1, 329065, Note_off_c, 0, 58, 63
1, 329128, Control_c, 0, 64, 44
1, 329143, Control_c, 0, 64, 58
1, 329156, Note_on_c, 0, 82, 68
1, 329158, Control_c, 0, 64, 63
1, 329169, Note_on_c, 0, 70, 47
1, 329173, Control_c, 0, 64, 67
1, 329188, Control_c, 0, 64, 71
1, 329195, Note_off_c, 0, 70, 57
1, 329202, Control_c, 0, 64, 75
1, 329217, Control_c, 0, 64, 79
1, 329232, Control_c, 0, 64, 84
1, 329247, Control_c, 0, 64, 88
1, 329262, Control_c, 0, 64, 92
1, 329275, Note_off_c, 0, 82, 59
1, 329276, Control_c, 0, 64, 95
1, 329291, Control_c, 0, 64, 97
1, 329306, Control_c, 0, 64, 99
1, 329314, Note_on_c, 0, 68, 32
1, 329320, Control_c, 0, 64, 102
1, 329335, Control_c, 0, 64, 103
1, 329346, Note_off_c, 0, 68, 53
1, 329350, Control_c, 0, 64, 104
1, 329360, Note_on_c, 0, 69, 40
1, 329454, Control_c, 0, 64, 103
1, 329468, Control_c, 0, 64, 100
1, 329483, Control_c, 0, 64, 94
1, 329506, Control_c, 0, 64, 86
1, 329512, Note_off_c, 0, 69, 55
1, 329515, Note_on_c, 0, 82, 73
1, 329521, Control_c, 0, 64, 78
1, 329535, Control_c, 0, 64, 70
1, 329539, Note_on_c, 0, 70, 43
1, 329550, Control_c, 0, 64, 61
1, 329565, Control_c, 0, 64, 51
1, 329580, Control_c, 0, 64, 41
1, 329595, Control_c, 0, 64, 29
1, 329609, Control_c, 0, 64, 0
1, 329695, Note_off_c, 0, 82, 60
1, 329695, Note_on_c, 0, 72, 52
1, 329701, Note_on_c, 0, 81, 67
1, 329708, Note_off_c, 0, 70, 44
1, 329884, Note_on_c, 0, 82, 79
1, 329900, Note_on_c, 0, 70, 54
1, 329916, Note_off_c, 0, 72, 53
1, 329916, Note_off_c, 0, 81, 64
1, 330061, Note_on_c, 0, 84, 83
1, 330071, Note_off_c, 0, 82, 63
1, 330076, Note_on_c, 0, 69, 56
1, 330084, Note_off_c, 0, 70, 53
1, 330240, Note_on_c, 0, 86, 83
1, 330254, Note_off_c, 0, 69, 63
1, 330260, Note_on_c, 0, 68, 61
1, 330282, Note_off_c, 0, 84, 60
1, 330400, Note_off_c, 0, 68, 57
1, 330407, Note_off_c, 0, 86, 63
1, 330436, Note_on_c, 0, 87, 66
1, 330453, Note_on_c, 0, 67, 39
1, 330516, Note_off_c, 0, 87, 58
1, 330527, Note_on_c, 0, 86, 66
1, 330569, Note_off_c, 0, 86, 64
1, 330589, Note_off_c, 0, 67, 55
1, 330608, Note_on_c, 0, 87, 65
1, 330627, Note_on_c, 0, 58, 38
1, 330662, Note_off_c, 0, 87, 59
1, 330682, Note_on_c, 0, 86, 71
1, 330726, Note_off_c, 0, 86, 63
1, 330762, Note_on_c, 0, 87, 72
1, 330764, Note_off_c, 0, 58, 61
1, 330786, Note_on_c, 0, 66, 50
1, 330837, Note_on_c, 0, 85, 74
1, 330851, Note_off_c, 0, 87, 60
1, 330903, Note_off_c, 0, 85, 64
1, 330906, Note_off_c, 0, 66, 60
1, 330924, Note_on_c, 0, 84, 77
1, 330949, Note_on_c, 0, 58, 48
1, 331015, Note_on_c, 0, 82, 83
1, 331024, Note_off_c, 0, 84, 60
1, 331076, Note_off_c, 0, 58, 59
1, 331106, Note_on_c, 0, 81, 85
1, 331112, Note_on_c, 0, 65, 55
1, 331112, Note_off_c, 0, 82, 64
1, 331191, Note_on_c, 0, 82, 89
1, 331200, Note_off_c, 0, 81, 63
1, 331244, Note_off_c, 0, 65, 58
1, 331273, Note_on_c, 0, 84, 86
1, 331273, Note_off_c, 0, 82, 63
1, 331279, Note_on_c, 0, 58, 54
1, 331358, Note_on_c, 0, 82, 85
1, 331387, Note_off_c, 0, 84, 63
1, 331427, Note_off_c, 0, 58, 60
1, 331432, Note_on_c, 0, 81, 78
1, 331448, Note_off_c, 0, 82, 61
1, 331454, Note_on_c, 0, 69, 51
1, 331489, Note_off_c, 0, 81, 66
1, 331519, Note_on_c, 0, 79, 79
1, 331558, Note_off_c, 0, 69, 57
1, 331593, Note_on_c, 0, 58, 42
1, 331600, Note_on_c, 0, 77, 76
1, 331609, Note_off_c, 0, 79, 54
1, 331653, Note_off_c, 0, 58, 57
1, 331677, Note_off_c, 0, 77, 61
1, 331679, Note_on_c, 0, 75, 77
1, 331750, Note_off_c, 0, 75, 61
1, 331772, Note_on_c, 0, 70, 62
1, 331772, Note_on_c, 0, 74, 77
1, 331796, Note_off_c, 0, 74, 69
1, 331799, Note_off_c, 0, 70, 63
1, 331958, Note_on_c, 0, 74, 65
1, 331965, Note_on_c, 0, 58, 43
1, 331975, Control_c, 0, 64, 28
1, 331990, Control_c, 0, 64, 54
1, 332005, Control_c, 0, 64, 62
1, 332008, Note_off_c, 0, 74, 66
1, 332020, Control_c, 0, 64, 66
1, 332035, Control_c, 0, 64, 68
1, 332050, Control_c, 0, 64, 70
1, 332065, Control_c, 0, 64, 71
1, 332079, Control_c, 0, 64, 72
1, 332109, Control_c, 0, 64, 71
1, 332117, Note_off_c, 0, 58, 54
1, 332123, Control_c, 0, 64, 69
1, 332138, Control_c, 0, 64, 65
1, 332149, Note_on_c, 0, 57, 45
1, 332153, Control_c, 0, 64, 57
1, 332169, Control_c, 0, 64, 31
1, 332184, Control_c, 0, 64, 0
1, 332291, Note_off_c, 0, 57, 60
1, 332318, Note_on_c, 0, 70, 59
1, 332336, Note_on_c, 0, 58, 44
1, 332482, Note_off_c, 0, 58, 56
1, 332502, Note_on_c, 0, 69, 70
1, 332513, Note_on_c, 0, 60, 45
1, 332513, Note_off_c, 0, 70, 60
1, 332672, Note_off_c, 0, 60, 64
1, 332682, Note_on_c, 0, 70, 83
1, 332684, Note_on_c, 0, 58, 54
1, 332709, Note_off_c, 0, 69, 62
1, 332845, Note_off_c, 0, 58, 62
1, 332854, Note_off_c, 0, 70, 64
1, 332860, Note_on_c, 0, 72, 78
1, 332865, Note_on_c, 0, 57, 57
1, 332932, Control_c, 0, 64, 8
1, 332946, Control_c, 0, 64, 25
1, 332961, Control_c, 0, 64, 29
1, 333022, Control_c, 0, 64, 31
1, 333032, Note_on_c, 0, 74, 83
1, 333035, Note_on_c, 0, 56, 61
1, 333036, Control_c, 0, 64, 36
1, 333039, Note_off_c, 0, 57, 58
1, 333051, Control_c, 0, 64, 37
1, 333053, Note_off_c, 0, 72, 60
1, 333066, Control_c, 0, 64, 37
1, 333081, Control_c, 0, 64, 38
1, 333091, Note_off_c, 0, 56, 61
1, 333096, Control_c, 0, 64, 41
1, 333111, Control_c, 0, 64, 42
1, 333125, Control_c, 0, 64, 40
1, 333140, Control_c, 0, 64, 16
1, 333155, Control_c, 0, 64, 0
1, 333215, Note_on_c, 0, 55, 64
1, 333218, Note_on_c, 0, 75, 77
1, 333230, Note_off_c, 0, 74, 57
1, 333251, Control_c, 0, 64, 53
1, 333266, Control_c, 0, 64, 65
1, 333281, Control_c, 0, 64, 69
1, 333282, Note_off_c, 0, 75, 64
1, 333295, Control_c, 0, 64, 74
1, 333310, Control_c, 0, 64, 79
1, 333325, Control_c, 0, 64, 82
1, 333340, Control_c, 0, 64, 84
1, 333346, Note_off_c, 0, 55, 60
1, 333369, Control_c, 0, 64, 80
1, 333384, Control_c, 0, 64, 73
1, 333396, Note_on_c, 0, 77, 68
1, 333399, Control_c, 0, 64, 64
1, 333414, Control_c, 0, 64, 49
1, 333429, Control_c, 0, 64, 0
1, 333442, Note_off_c, 0, 77, 65
1, 333442, Note_on_c, 0, 75, 77
1, 333492, Note_off_c, 0, 75, 61
1, 333495, Note_on_c, 0, 74, 73
1, 333537, Note_on_c, 0, 75, 61
1, 333555, Note_off_c, 0, 74, 58
1, 333585, Note_on_c, 0, 51, 56
1, 333591, Control_c, 0, 64, 22
1, 333597, Note_on_c, 0, 77, 79
1, 333606, Control_c, 0, 64, 55
1, 333621, Control_c, 0, 64, 61
1, 333626, Note_off_c, 0, 75, 61
1, 333636, Control_c, 0, 64, 58
1, 333651, Control_c, 0, 64, 48
1, 333665, Control_c, 0, 64, 13
1, 333680, Control_c, 0, 64, 0
1, 333769, Note_off_c, 0, 51, 63
1, 333784, Note_on_c, 0, 79, 80
1, 333792, Note_off_c, 0, 77, 62
1, 333838, Note_off_c, 0, 79, 62
1, 333997, Note_on_c, 0, 79, 72
1, 333999, Control_c, 0, 64, 8
1, 334003, Note_on_c, 0, 53, 49
1, 334014, Control_c, 0, 64, 53
1, 334016, Note_on_c, 0, 75, 54
1, 334029, Control_c, 0, 64, 62
1, 334044, Control_c, 0, 64, 65
1, 334059, Control_c, 0, 64, 67
1, 334074, Control_c, 0, 64, 70
1, 334089, Control_c, 0, 64, 73
1, 334104, Control_c, 0, 64, 74
1, 334118, Control_c, 0, 64, 75
1, 334133, Control_c, 0, 64, 73
1, 334148, Control_c, 0, 64, 70
1, 334163, Control_c, 0, 64, 64
1, 334177, Note_off_c, 0, 53, 65
1, 334178, Control_c, 0, 64, 46
1, 334182, Note_off_c, 0, 75, 59
1, 334192, Control_c, 0, 64, 0
1, 334213, Note_on_c, 0, 77, 68
1, 334238, Note_on_c, 0, 74, 45
1, 334238, Note_off_c, 0, 79, 60
1, 334318, Note_off_c, 0, 74, 63
1, 334325, Note_off_c, 0, 77, 63
1, 334385, Control_c, 0, 64, 45
1, 334399, Control_c, 0, 64, 53
1, 334414, Control_c, 0, 64, 56
1, 334420, Note_on_c, 0, 53, 48
1, 334429, Control_c, 0, 64, 55
1, 334443, Control_c, 0, 64, 46
1, 334458, Control_c, 0, 64, 0
1, 334578, Note_off_c, 0, 53, 65
1, 334637, Note_on_c, 0, 69, 72
1, 334658, Note_on_c, 0, 63, 38
1, 334691, Note_off_c, 0, 63, 53
1, 334946, Note_on_c, 0, 72, 67
1, 334953, Note_off_c, 0, 69, 64
1, 334954, Note_on_c, 0, 58, 43
1, 334956, Note_on_c, 0, 63, 50
1, 335045, Control_c, 0, 64, 54
1, 335060, Control_c, 0, 64, 66
1, 335075, Control_c, 0, 64, 74
1, 335089, Control_c, 0, 64, 83
1, 335101, Note_off_c, 0, 58, 62
1, 335104, Control_c, 0, 64, 92
1, 335119, Control_c, 0, 64, 102
1, 335134, Control_c, 0, 64, 116
1, 335148, Control_c, 0, 64, 127
1, 335430, Control_c, 0, 64, 95
1, 335445, Control_c, 0, 64, 75
1, 335456, Note_on_c, 0, 53, 43
1, 335460, Control_c, 0, 64, 60
1, 335475, Control_c, 0, 64, 0
1, 335527, Control_c, 0, 64, 44
1, 335542, Control_c, 0, 64, 63
1, 335557, Control_c, 0, 64, 71
1, 335564, Note_off_c, 0, 63, 60
1, 335571, Control_c, 0, 64, 80
1, 335586, Control_c, 0, 64, 90
1, 335601, Control_c, 0, 64, 105
1, 335604, Note_off_c, 0, 53, 61
1, 335616, Control_c, 0, 64, 127
1, 336184, Note_on_c, 0, 70, 52
1, 336194, Control_c, 0, 64, 112
1, 336203, Note_on_c, 0, 46, 34
1, 336209, Control_c, 0, 64, 96
1, 336216, Note_on_c, 0, 62, 29
1, 336224, Control_c, 0, 64, 86
1, 336247, Control_c, 0, 64, 77
1, 336261, Control_c, 0, 64, 67
1, 336276, Control_c, 0, 64, 48
1, 336281, Note_off_c, 0, 72, 44
1, 336291, Control_c, 0, 64, 0
1, 336513, Control_c, 0, 64, 34
1, 336528, Control_c, 0, 64, 46
1, 336543, Control_c, 0, 64, 53
1, 336558, Control_c, 0, 64, 60
1, 336573, Control_c, 0, 64, 64
1, 336587, Control_c, 0, 64, 69
1, 336602, Control_c, 0, 64, 72
1, 336617, Control_c, 0, 64, 76
1, 336632, Control_c, 0, 64, 78
1, 336647, Control_c, 0, 64, 80
1, 336661, Control_c, 0, 64, 82
1, 336676, Control_c, 0, 64, 85
1, 336691, Control_c, 0, 64, 88
1, 336706, Control_c, 0, 64, 92
1, 336721, Control_c, 0, 64, 96
1, 336736, Control_c, 0, 64, 100
1, 336751, Control_c, 0, 64, 105
1, 336766, Control_c, 0, 64, 109
1, 336780, Control_c, 0, 64, 115
1, 336795, Control_c, 0, 64, 127
1, 336922, Note_off_c, 0, 62, 38
1, 336959, Control_c, 0, 64, 119
1, 336974, Control_c, 0, 64, 109
1, 336996, Control_c, 0, 64, 103
1, 337011, Control_c, 0, 64, 98
1, 337022, Note_off_c, 0, 70, 40
1, 337025, Control_c, 0, 64, 91
1, 337040, Control_c, 0, 64, 84
1, 337048, Note_off_c, 0, 46, 42
1, 337055, Control_c, 0, 64, 78
1, 337070, Control_c, 0, 64, 75
1, 337085, Control_c, 0, 64, 71
1, 337099, Control_c, 0, 64, 67
1, 337114, Control_c, 0, 64, 64
1, 337129, Control_c, 0, 64, 60
1, 337144, Control_c, 0, 64, 57
1, 337159, Control_c, 0, 64, 54
1, 337174, Control_c, 0, 64, 50
1, 337189, Control_c, 0, 64, 43
1, 337204, Control_c, 0, 64, 30
1, 337218, Control_c, 0, 64, 18
1, 337233, Control_c, 0, 64, 15
1, 337247, Control_c, 0, 64, 8
1, 337262, Control_c, 0, 64, 0
1, 338336, Control_c, 0, 64, 8
1, 338350, Control_c, 0, 64, 10
1, 338365, Control_c, 0, 64, 15
1, 338380, Control_c, 0, 64, 16
1, 338410, Control_c, 0, 64, 17
1, 338425, Control_c, 0, 64, 18
1, 338469, Control_c, 0, 64, 19
1, 338551, Control_c, 0, 64, 20
1, 338611, Control_c, 0, 64, 21
1, 338641, Control_c, 0, 64, 22
1, 339270, Control_c, 0, 64, 21
1, 339284, Control_c, 0, 64, 21
1, 339359, Control_c, 0, 64, 20
1, 339433, Control_c, 0, 64, 19
1, 339448, Control_c, 0, 64, 17
1, 339463, Control_c, 0, 64, 16
1, 339537, Control_c, 0, 64, 15
1, 339611, Control_c, 0, 64, 13
1, 339626, Control_c, 0, 64, 12
1, 339641, Control_c, 0, 64, 10
1, 339656, Control_c, 0, 64, 8
1, 339671, Control_c, 0, 64, 0
1, 339746, End_track
0, 0, End_of_file
