0, 0, Header, 0, 1, 384
1, 0, Start_track
1, 0, Title_t, "Etude Op. 10/1--Adam Zukiewicz  "
1, 0, Text_t, "2009 Piano-e-Competition audition round"
1, 0, Text_t, "captured January 2009"
1, 0, Text_t, "http://www.piano-e-competition.com/"
1, 0, Text_t, "File processed for distribution by software from Zenph Studios, Inc., http://www.zenph.com"
1, 0, Instrument_name_t, "Yamaha Disklavier Pro Mark IV concert grand piano, model DCFIIISM4PRO"
1, 0, Sequencer_specific, 39, 67, 113, 0, 1, 0, 1, 0, 69, 116, 117, 100, 101, 32, 79, 112, 46, 32, 49, 48, 47, 49, 32, 32, 65, 100, 97, 109, 32, 90, 117, 107, 105, 101, 119, 105, 99, 122, 32, 32
1, 0, Sequencer_specific, 6, 67, 113, 0, 0, 0, 69
1, 0, System_exclusive, 21, 67, 113, 126, 21, 0, 2, 2, 0, 3, 14, 1, 4, 1, 13, 13, 10, 11, 9, 2, 7, 247
1, 0, Sequencer_specific, 5, 67, 123, 12, 2, 1
1, 0, Tempo, 512820
1, 0, Time_signature, 4, 2, 24, 8
1, 0, System_exclusive, 5, 126, 127, 9, 1, 247
1, 1, System_exclusive, 8, 67, 16, 76, 0, 0, 126, 0, 247
1, 2, System_exclusive, 8, 67, 16, 76, 8, 9, 7, 1, 247
1, 3, Control_c, 0, 0, 0
1, 3, Control_c, 1, 0, 0
1, 3, Control_c, 2, 0, 0
1, 3, Control_c, 3, 0, 0
1, 3, Control_c, 4, 0, 0
1, 3, Control_c, 5, 0, 0
1, 3, Control_c, 6, 0, 0
1, 3, Control_c, 7, 0, 0
1, 3, Control_c, 8, 0, 0
1, 3, Control_c, 9, 0, 127
1, 3, Control_c, 10, 0, 0
1, 3, Control_c, 11, 0, 0
1, 3, Control_c, 12, 0, 0
1, 3, Control_c, 13, 0, 0
1, 3, Control_c, 14, 0, 0
1, 3, Control_c, 15, 0, 0
1, 4, Control_c, 0, 32, 0
1, 4, Control_c, 1, 32, 0
1, 4, Control_c, 2, 32, 0
1, 4, Control_c, 3, 32, 0
1, 4, Control_c, 4, 32, 0
1, 4, Control_c, 5, 32, 0
1, 4, Control_c, 6, 32, 0
1, 4, Control_c, 7, 32, 0
1, 4, Control_c, 8, 32, 0
1, 4, Control_c, 9, 32, 0
1, 4, Control_c, 10, 32, 0
1, 4, Control_c, 11, 32, 0
1, 4, Control_c, 12, 32, 0
1, 4, Control_c, 13, 32, 0
1, 4, Control_c, 14, 32, 0
1, 4, Control_c, 15, 32, 0
1, 5, Program_c, 0, 0
1, 5, Program_c, 1, 0
1, 5, Program_c, 2, 0
1, 5, Program_c, 3, 0
1, 5, Program_c, 4, 0
1, 5, Program_c, 5, 0
1, 5, Program_c, 6, 0
1, 5, Program_c, 7, 0
1, 5, Program_c, 8, 0
1, 5, Program_c, 9, 0
1, 5, Program_c, 10, 0
1, 5, Program_c, 11, 0
1, 5, Program_c, 12, 0
1, 5, Program_c, 13, 0
1, 5, Program_c, 14, 0
1, 5, Program_c, 15, 0
1, 6, Control_c, 0, 7, 100
1, 6, Control_c, 1, 7, 100
1, 6, Control_c, 2, 7, 100
1, 6, Control_c, 3, 7, 100
1, 6, Control_c, 4, 7, 100
1, 6, Control_c, 5, 7, 100
1, 6, Control_c, 6, 7, 100
1, 6, Control_c, 7, 7, 100
1, 6, Control_c, 8, 7, 100
1, 6, Control_c, 9, 7, 100
1, 6, Control_c, 10, 7, 100
1, 6, Control_c, 11, 7, 100
1, 6, Control_c, 12, 7, 100
1, 6, Control_c, 13, 7, 100
1, 6, Control_c, 14, 7, 100
1, 6, Control_c, 15, 7, 100
1, 1129, Note_on_c, 0, 48, 94
1, 1133, Note_on_c, 0, 36, 88
1, 1166, Control_c, 0, 64, 52
1, 1181, Control_c, 0, 64, 83
1, 1196, Control_c, 0, 64, 127
1, 1267, Note_off_c, 0, 48, 61
1, 1380, Note_on_c, 0, 48, 66
1, 1451, Note_off_c, 0, 48, 60
1, 1480, Note_on_c, 0, 55, 55
1, 1531, Note_off_c, 0, 55, 58
1, 1537, Note_on_c, 0, 48, 28
1, 1538, Note_on_c, 0, 60, 61
1, 1598, Note_off_c, 0, 60, 65
1, 1606, Note_on_c, 0, 64, 62
1, 1638, Note_off_c, 0, 64, 65
1, 1691, Note_on_c, 0, 60, 64
1, 1737, Note_off_c, 0, 60, 65
1, 1747, Note_on_c, 0, 67, 71
1, 1802, Note_off_c, 0, 67, 64
1, 1815, Note_on_c, 0, 72, 55
1, 1830, Note_on_c, 0, 71, 53
1, 1850, Note_off_c, 0, 71, 61
1, 1859, Note_on_c, 0, 76, 75
1, 1859, Note_off_c, 0, 72, 64
1, 1889, Note_off_c, 0, 76, 61
1, 1922, Note_on_c, 0, 71, 61
1, 1940, Note_off_c, 0, 71, 66
1, 1944, Note_on_c, 0, 72, 61
1, 1980, Note_off_c, 0, 72, 64
1, 1984, Note_on_c, 0, 79, 72
1, 2035, Note_off_c, 0, 79, 62
1, 2041, Note_on_c, 0, 84, 67
1, 2069, Note_on_c, 0, 88, 78
1, 2080, Note_off_c, 0, 84, 63
1, 2099, Note_off_c, 0, 88, 66
1, 2135, Note_on_c, 0, 84, 77
1, 2200, Note_on_c, 0, 91, 80
1, 2202, Note_off_c, 0, 84, 64
1, 2252, Note_on_c, 0, 96, 70
1, 2271, Note_off_c, 0, 91, 63
1, 2317, Note_on_c, 0, 100, 93
1, 2324, Note_off_c, 0, 96, 67
1, 2375, Note_on_c, 0, 96, 83
1, 2390, Note_off_c, 0, 100, 63
1, 2427, Note_on_c, 0, 91, 77
1, 2445, Note_off_c, 0, 96, 65
1, 2455, Note_off_c, 0, 91, 64
1, 2515, Note_on_c, 0, 84, 51
1, 2556, Note_off_c, 0, 84, 67
1, 2570, Note_on_c, 0, 88, 89
1, 2613, Note_on_c, 0, 84, 72
1, 2640, Note_off_c, 0, 88, 65
1, 2690, Note_off_c, 0, 84, 62
1, 2698, Note_on_c, 0, 79, 66
1, 2724, Note_off_c, 0, 79, 63
1, 2754, Note_on_c, 0, 72, 72
1, 2805, Note_off_c, 0, 72, 62
1, 2823, Note_on_c, 0, 76, 84
1, 2861, Note_off_c, 0, 48, 52
1, 2867, Note_on_c, 0, 72, 70
1, 2886, Note_off_c, 0, 76, 59
1, 2935, Note_on_c, 0, 67, 67
1, 2942, Note_off_c, 0, 72, 62
1, 2963, Note_off_c, 0, 67, 67
1, 2997, Note_on_c, 0, 60, 69
1, 3062, Note_off_c, 0, 60, 64
1, 3076, Note_on_c, 0, 64, 75
1, 3114, Note_on_c, 0, 60, 64
1, 3141, Note_off_c, 0, 64, 64
1, 3180, Note_on_c, 0, 55, 74
1, 3189, Note_off_c, 0, 60, 65
1, 3237, Note_off_c, 0, 55, 58
1, 3251, Note_on_c, 0, 48, 79
1, 3326, Note_off_c, 0, 36, 59
1, 3329, Note_off_c, 0, 48, 60
1, 3330, Note_on_c, 0, 41, 96
1, 3334, Note_on_c, 0, 29, 89
1, 3352, Control_c, 0, 64, 83
1, 3367, Control_c, 0, 64, 43
1, 3382, Control_c, 0, 64, 0
1, 3395, Note_on_c, 0, 48, 71
1, 3437, Note_off_c, 0, 48, 60
1, 3472, Note_on_c, 0, 57, 72
1, 3530, Note_off_c, 0, 57, 65
1, 3540, Note_on_c, 0, 60, 64
1, 3544, Control_c, 0, 64, 49
1, 3559, Control_c, 0, 64, 78
1, 3574, Control_c, 0, 64, 110
1, 3575, Note_off_c, 0, 60, 66
1, 3588, Control_c, 0, 64, 127
1, 3594, Note_on_c, 0, 65, 69
1, 3624, Note_off_c, 0, 65, 65
1, 3656, Note_on_c, 0, 60, 73
1, 3702, Note_off_c, 0, 60, 63
1, 3723, Note_on_c, 0, 69, 73
1, 3772, Note_off_c, 0, 69, 67
1, 3773, Note_on_c, 0, 72, 70
1, 3833, Note_off_c, 0, 72, 65
1, 3852, Note_on_c, 0, 77, 53
1, 3877, Note_off_c, 0, 77, 64
1, 3901, Note_on_c, 0, 72, 76
1, 3944, Note_off_c, 0, 41, 58
1, 3951, Note_off_c, 0, 72, 64
1, 3957, Note_on_c, 0, 81, 71
1, 4010, Note_on_c, 0, 84, 73
1, 4012, Note_off_c, 0, 81, 67
1, 4057, Note_on_c, 0, 89, 75
1, 4059, Note_off_c, 0, 84, 66
1, 4063, Note_off_c, 0, 29, 0
1, 4084, Note_off_c, 0, 89, 66
1, 4101, Poly_aftertouch_c, 0, 29, 127
1, 4125, Note_on_c, 0, 84, 82
1, 4177, Note_on_c, 0, 93, 78
1, 4184, Note_off_c, 0, 84, 63
1, 4239, Note_on_c, 0, 96, 83
1, 4259, Note_off_c, 0, 93, 63
1, 4300, Note_on_c, 0, 42, 95
1, 4300, Note_on_c, 0, 100, 96
1, 4302, Note_off_c, 0, 96, 68
1, 4307, Note_on_c, 0, 30, 79
1, 4309, Control_c, 0, 64, 84
1, 4319, Poly_aftertouch_c, 0, 29, 0
1, 4324, Control_c, 0, 64, 31
1, 4339, Control_c, 0, 64, 0
1, 4356, Note_on_c, 0, 96, 88
1, 4382, Note_off_c, 0, 100, 65
1, 4412, Control_c, 0, 64, 62
1, 4418, Note_on_c, 0, 93, 78
1, 4427, Control_c, 0, 64, 95
1, 4432, Note_off_c, 0, 96, 64
1, 4442, Control_c, 0, 64, 127
1, 4444, Note_off_c, 0, 93, 64
1, 4495, Note_on_c, 0, 84, 71
1, 4560, Note_on_c, 0, 88, 87
1, 4561, Note_off_c, 0, 84, 67
1, 4614, Note_on_c, 0, 84, 79
1, 4633, Note_off_c, 0, 88, 65
1, 4678, Note_on_c, 0, 81, 68
1, 4682, Note_off_c, 0, 84, 62
1, 4702, Note_off_c, 0, 81, 70
1, 4741, Note_on_c, 0, 72, 70
1, 4798, Note_off_c, 0, 72, 63
1, 4808, Note_on_c, 0, 76, 84
1, 4848, Note_on_c, 0, 72, 71
1, 4867, Note_off_c, 0, 76, 61
1, 4919, Note_on_c, 0, 69, 63
1, 4921, Note_off_c, 0, 72, 64
1, 4950, Note_off_c, 0, 69, 68
1, 4987, Note_on_c, 0, 60, 69
1, 5013, Control_c, 0, 64, 94
1, 5028, Control_c, 0, 64, 72
1, 5043, Control_c, 0, 64, 61
1, 5043, Note_off_c, 0, 60, 62
1, 5054, Note_on_c, 0, 62, 80
1, 5058, Control_c, 0, 64, 64
1, 5073, Control_c, 0, 64, 72
1, 5085, Note_off_c, 0, 42, 60
1, 5088, Control_c, 0, 64, 95
1, 5096, Note_off_c, 0, 30, 61
1, 5102, Control_c, 0, 64, 127
1, 5115, Note_on_c, 0, 60, 76
1, 5123, Note_off_c, 0, 62, 63
1, 5161, Note_on_c, 0, 57, 76
1, 5172, Note_off_c, 0, 60, 65
1, 5198, Note_off_c, 0, 57, 64
1, 5234, Note_on_c, 0, 48, 77
1, 5295, Note_off_c, 0, 48, 61
1, 5295, Control_c, 0, 64, 82
1, 5317, Control_c, 0, 64, 26
1, 5323, Note_on_c, 0, 43, 100
1, 5326, Note_on_c, 0, 31, 82
1, 5332, Control_c, 0, 64, 0
1, 5410, Note_on_c, 0, 47, 77
1, 5451, Note_off_c, 0, 47, 65
1, 5480, Control_c, 0, 64, 55
1, 5483, Note_on_c, 0, 55, 69
1, 5495, Control_c, 0, 64, 78
1, 5509, Control_c, 0, 64, 108
1, 5524, Control_c, 0, 64, 127
1, 5529, Note_on_c, 0, 59, 72
1, 5535, Note_off_c, 0, 55, 63
1, 5587, Note_off_c, 0, 59, 63
1, 5594, Note_on_c, 0, 62, 67
1, 5611, Note_off_c, 0, 43, 61
1, 5620, Note_off_c, 0, 62, 66
1, 5658, Note_on_c, 0, 59, 77
1, 5714, Note_off_c, 0, 59, 61
1, 5727, Note_on_c, 0, 67, 74
1, 5788, Note_on_c, 0, 71, 70
1, 5792, Control_c, 0, 64, 90
1, 5798, Note_off_c, 0, 67, 63
1, 5806, Control_c, 0, 64, 66
1, 5807, Note_off_c, 0, 31, 55
1, 5821, Control_c, 0, 64, 0
1, 5830, Note_on_c, 0, 42, 93
1, 5838, Note_on_c, 0, 30, 81
1, 5845, Note_off_c, 0, 71, 67
1, 5848, Note_on_c, 0, 74, 69
1, 5851, Control_c, 0, 64, 54
1, 5866, Control_c, 0, 64, 81
1, 5872, Note_off_c, 0, 74, 68
1, 5881, Control_c, 0, 64, 127
1, 5902, Note_on_c, 0, 71, 79
1, 5942, Note_off_c, 0, 42, 59
1, 5965, Note_on_c, 0, 79, 76
1, 5969, Note_off_c, 0, 71, 63
1, 6021, Note_on_c, 0, 83, 69
1, 6029, Control_c, 0, 64, 122
1, 6036, Note_off_c, 0, 79, 62
1, 6044, Control_c, 0, 64, 105
1, 6057, Note_off_c, 0, 30, 62
1, 6065, Control_c, 0, 64, 110
1, 6078, Note_on_c, 0, 86, 84
1, 6079, Note_on_c, 0, 40, 98
1, 6080, Control_c, 0, 64, 127
1, 6083, Note_on_c, 0, 28, 83
1, 6084, Note_off_c, 0, 83, 65
1, 6101, Note_off_c, 0, 86, 66
1, 6144, Note_off_c, 0, 28, 59
1, 6145, Note_on_c, 0, 83, 86
1, 6188, Note_off_c, 0, 40, 57
1, 6206, Note_on_c, 0, 91, 82
1, 6215, Note_on_c, 0, 28, 54
1, 6216, Note_off_c, 0, 83, 62
1, 6266, Note_on_c, 0, 93, 74
1, 6273, Control_c, 0, 64, 81
1, 6286, Note_off_c, 0, 91, 62
1, 6288, Control_c, 0, 64, 10
1, 6303, Control_c, 0, 64, 0
1, 6320, Note_on_c, 0, 38, 97
1, 6325, Note_on_c, 0, 98, 97
1, 6326, Note_on_c, 0, 26, 86
1, 6326, Note_off_c, 0, 93, 60
1, 6362, Note_off_c, 0, 28, 50
1, 6376, Note_on_c, 0, 95, 33
1, 6383, Note_on_c, 0, 93, 86
1, 6414, Note_off_c, 0, 98, 60
1, 6431, Note_off_c, 0, 95, 45
1, 6436, Control_c, 0, 64, 10
1, 6444, Note_on_c, 0, 90, 80
1, 6450, Control_c, 0, 64, 82
1, 6465, Note_off_c, 0, 93, 64
1, 6465, Control_c, 0, 64, 127
1, 6499, Note_off_c, 0, 90, 65
1, 6524, Note_on_c, 0, 84, 66
1, 6548, Note_off_c, 0, 26, 60
1, 6552, Note_off_c, 0, 84, 67
1, 6583, Note_on_c, 0, 86, 88
1, 6654, Note_on_c, 0, 81, 76
1, 6656, Note_off_c, 0, 86, 62
1, 6700, Note_on_c, 0, 78, 70
1, 6706, Note_off_c, 0, 81, 61
1, 6742, Note_off_c, 0, 78, 62
1, 6764, Note_on_c, 0, 72, 67
1, 6811, Note_off_c, 0, 72, 59
1, 6843, Note_on_c, 0, 74, 80
1, 6908, Note_on_c, 0, 69, 74
1, 6914, Note_off_c, 0, 74, 61
1, 6930, Note_off_c, 0, 38, 55
1, 6932, Note_on_c, 0, 71, 25
1, 6957, Note_on_c, 0, 66, 77
1, 6963, Note_off_c, 0, 69, 65
1, 6969, Note_off_c, 0, 71, 53
1, 7004, Note_off_c, 0, 66, 61
1, 7024, Note_on_c, 0, 60, 64
1, 7073, Note_off_c, 0, 60, 65
1, 7093, Note_on_c, 0, 62, 77
1, 7158, Note_on_c, 0, 57, 78
1, 7188, Note_off_c, 0, 62, 58
1, 7204, Note_on_c, 0, 54, 83
1, 7214, Note_off_c, 0, 57, 63
1, 7265, Note_on_c, 0, 48, 80
1, 7265, Note_off_c, 0, 54, 61
1, 7326, Note_on_c, 0, 43, 109
1, 7332, Note_on_c, 0, 31, 90
1, 7346, Note_off_c, 0, 48, 61
1, 7348, Control_c, 0, 64, 119
1, 7363, Control_c, 0, 64, 79
1, 7377, Control_c, 0, 64, 0
1, 7437, Note_on_c, 0, 48, 81
1, 7485, Note_off_c, 0, 48, 56
1, 7510, Note_on_c, 0, 53, 69
1, 7566, Note_off_c, 0, 53, 64
1, 7567, Note_on_c, 0, 56, 63
1, 7599, Note_off_c, 0, 56, 67
1, 7616, Note_on_c, 0, 62, 60
1, 7622, Control_c, 0, 64, 30
1, 7637, Control_c, 0, 64, 70
1, 7652, Control_c, 0, 64, 89
1, 7657, Note_off_c, 0, 62, 65
1, 7667, Control_c, 0, 64, 127
1, 7690, Note_on_c, 0, 60, 73
1, 7755, Note_on_c, 0, 65, 72
1, 7757, Note_off_c, 0, 60, 63
1, 7819, Note_off_c, 0, 65, 62
1, 7820, Note_on_c, 0, 68, 70
1, 7860, Note_off_c, 0, 68, 65
1, 7868, Note_on_c, 0, 74, 70
1, 7898, Note_off_c, 0, 74, 64
1, 7931, Note_on_c, 0, 72, 81
1, 7988, Note_on_c, 0, 77, 73
1, 7994, Note_off_c, 0, 72, 60
1, 8041, Note_on_c, 0, 80, 70
1, 8051, Note_off_c, 0, 77, 63
1, 8087, Note_off_c, 0, 80, 66
1, 8088, Note_on_c, 0, 86, 77
1, 8119, Note_off_c, 0, 86, 63
1, 8152, Note_on_c, 0, 84, 82
1, 8208, Note_on_c, 0, 89, 83
1, 8226, Note_off_c, 0, 84, 60
1, 8256, Note_on_c, 0, 92, 75
1, 8275, Control_c, 0, 64, 110
1, 8277, Note_off_c, 0, 89, 63
1, 8290, Control_c, 0, 64, 74
1, 8313, Control_c, 0, 64, 0
1, 8313, Note_on_c, 0, 98, 95
1, 8326, Note_off_c, 0, 92, 64
1, 8372, Control_c, 0, 64, 58
1, 8382, Note_on_c, 0, 91, 91
1, 8386, Control_c, 0, 64, 80
1, 8391, Note_off_c, 0, 98, 67
1, 8401, Control_c, 0, 64, 127
1, 8441, Note_on_c, 0, 89, 73
1, 8447, Note_off_c, 0, 91, 63
1, 8470, Note_off_c, 0, 89, 63
1, 8501, Note_on_c, 0, 83, 74
1, 8559, Note_off_c, 0, 83, 65
1, 8562, Note_on_c, 0, 86, 82
1, 8628, Note_on_c, 0, 79, 83
1, 8634, Note_off_c, 0, 86, 65
1, 8679, Note_on_c, 0, 77, 69
1, 8691, Note_off_c, 0, 79, 60
1, 8711, Note_off_c, 0, 77, 62
1, 8746, Note_on_c, 0, 71, 71
1, 8751, Note_off_c, 0, 31, 58
1, 8796, Note_off_c, 0, 71, 67
1, 8808, Note_on_c, 0, 74, 77
1, 8868, Note_on_c, 0, 67, 83
1, 8872, Note_off_c, 0, 74, 65
1, 8920, Note_off_c, 0, 67, 62
1, 8921, Note_on_c, 0, 65, 72
1, 8947, Note_off_c, 0, 65, 67
1, 8984, Note_on_c, 0, 59, 75
1, 9009, Control_c, 0, 64, 105
1, 9024, Control_c, 0, 64, 97
1, 9039, Control_c, 0, 64, 100
1, 9061, Control_c, 0, 64, 127
1, 9066, Note_on_c, 0, 63, 88
1, 9078, Note_off_c, 0, 59, 59
1, 9095, Note_off_c, 0, 43, 61
1, 9133, Note_off_c, 0, 63, 65
1, 9136, Note_on_c, 0, 55, 76
1, 9197, Note_on_c, 0, 53, 78
1, 9214, Note_off_c, 0, 55, 62
1, 9270, Note_on_c, 0, 47, 80
1, 9291, Note_off_c, 0, 53, 41
1, 9325, Note_off_c, 0, 47, 65
1, 9333, Note_on_c, 0, 56, 21
1, 9375, Note_off_c, 0, 56, 50
1, 9389, Note_on_c, 0, 48, 97
1, 9391, Note_on_c, 0, 36, 90
1, 9401, Control_c, 0, 64, 84
1, 9416, Control_c, 0, 64, 38
1, 9431, Control_c, 0, 64, 0
1, 9511, Note_off_c, 0, 48, 59
1, 9547, Note_on_c, 0, 48, 57
1, 9593, Note_off_c, 0, 48, 63
1, 9616, Note_on_c, 0, 55, 67
1, 9659, Note_on_c, 0, 48, 31
1, 9684, Note_off_c, 0, 55, 62
1, 9685, Note_on_c, 0, 60, 58
1, 9732, Note_off_c, 0, 60, 65
1, 9739, Note_on_c, 0, 64, 69
1, 9766, Note_off_c, 0, 64, 67
1, 9809, Note_on_c, 0, 60, 66
1, 9839, Control_c, 0, 64, 29
1, 9854, Control_c, 0, 64, 71
1, 9860, Note_off_c, 0, 60, 63
1, 9869, Control_c, 0, 64, 87
1, 9875, Note_on_c, 0, 67, 75
1, 9884, Control_c, 0, 64, 127
1, 9934, Note_off_c, 0, 67, 63
1, 9935, Note_on_c, 0, 72, 76
1, 9985, Note_off_c, 0, 72, 65
1, 9987, Note_on_c, 0, 76, 71
1, 10012, Note_off_c, 0, 76, 66
1, 10049, Note_on_c, 0, 72, 67
1, 10101, Note_off_c, 0, 72, 58
1, 10102, Note_on_c, 0, 79, 79
1, 10158, Note_off_c, 0, 79, 61
1, 10160, Note_on_c, 0, 84, 77
1, 10206, Note_on_c, 0, 88, 68
1, 10207, Note_off_c, 0, 84, 67
1, 10233, Note_off_c, 0, 88, 69
1, 10266, Note_on_c, 0, 84, 71
1, 10310, Note_on_c, 0, 91, 81
1, 10314, Note_off_c, 0, 84, 61
1, 10376, Note_on_c, 0, 96, 81
1, 10390, Note_off_c, 0, 91, 64
1, 10430, Note_on_c, 0, 100, 91
1, 10435, Note_off_c, 0, 96, 67
1, 10477, Note_on_c, 0, 96, 81
1, 10502, Note_off_c, 0, 100, 65
1, 10533, Note_on_c, 0, 91, 74
1, 10555, Note_off_c, 0, 96, 65
1, 10570, Note_off_c, 0, 91, 62
1, 10615, Note_on_c, 0, 84, 76
1, 10673, Note_off_c, 0, 84, 66
1, 10677, Note_on_c, 0, 88, 86
1, 10724, Note_on_c, 0, 84, 75
1, 10744, Note_off_c, 0, 88, 65
1, 10793, Note_on_c, 0, 79, 70
1, 10797, Note_off_c, 0, 84, 63
1, 10819, Note_off_c, 0, 79, 66
1, 10855, Note_on_c, 0, 72, 70
1, 10918, Note_off_c, 0, 72, 63
1, 10927, Note_on_c, 0, 76, 81
1, 10936, Note_off_c, 0, 48, 55
1, 10972, Note_on_c, 0, 72, 68
1, 10981, Note_off_c, 0, 76, 60
1, 11018, Note_off_c, 0, 36, 53
1, 11038, Note_on_c, 0, 67, 59
1, 11040, Note_off_c, 0, 72, 63
1, 11072, Note_off_c, 0, 67, 65
1, 11101, Note_on_c, 0, 60, 64
1, 11160, Note_off_c, 0, 60, 64
1, 11188, Note_on_c, 0, 64, 59
1, 11208, Note_on_c, 0, 62, 57
1, 11223, Note_on_c, 0, 60, 65
1, 11235, Note_off_c, 0, 64, 62
1, 11236, Note_off_c, 0, 62, 54
1, 11278, Note_off_c, 0, 60, 65
1, 11294, Note_on_c, 0, 55, 63
1, 11323, Note_off_c, 0, 55, 64
1, 11354, Note_on_c, 0, 48, 70
1, 11401, Note_off_c, 0, 48, 60
1, 11429, Note_on_c, 0, 45, 87
1, 11432, Note_on_c, 0, 33, 76
1, 11456, Control_c, 0, 64, 90
1, 11470, Control_c, 0, 64, 54
1, 11485, Control_c, 0, 64, 0
1, 11491, Note_on_c, 0, 48, 72
1, 11535, Note_off_c, 0, 48, 62
1, 11564, Note_on_c, 0, 53, 58
1, 11574, Control_c, 0, 64, 35
1, 11589, Control_c, 0, 64, 71
1, 11604, Control_c, 0, 64, 88
1, 11608, Note_off_c, 0, 53, 63
1, 11619, Control_c, 0, 64, 127
1, 11627, Note_on_c, 0, 60, 70
1, 11685, Note_off_c, 0, 60, 65
1, 11693, Note_on_c, 0, 65, 73
1, 11720, Note_off_c, 0, 65, 65
1, 11763, Note_on_c, 0, 60, 69
1, 11802, Note_off_c, 0, 60, 62
1, 11822, Note_on_c, 0, 65, 74
1, 11873, Note_off_c, 0, 65, 62
1, 11889, Note_on_c, 0, 72, 62
1, 11944, Note_off_c, 0, 72, 65
1, 11947, Note_on_c, 0, 77, 79
1, 11980, Note_off_c, 0, 77, 59
1, 12018, Note_on_c, 0, 72, 77
1, 12067, Note_off_c, 0, 72, 59
1, 12081, Note_on_c, 0, 77, 77
1, 12123, Note_off_c, 0, 77, 61
1, 12135, Note_on_c, 0, 84, 72
1, 12188, Note_off_c, 0, 84, 66
1, 12198, Note_on_c, 0, 89, 69
1, 12215, Note_off_c, 0, 89, 65
1, 12254, Note_on_c, 0, 84, 69
1, 12294, Note_on_c, 0, 89, 78
1, 12305, Note_off_c, 0, 84, 63
1, 12367, Note_on_c, 0, 96, 69
1, 12367, Control_c, 0, 64, 92
1, 12368, Note_off_c, 0, 89, 64
1, 12382, Control_c, 0, 64, 64
1, 12397, Control_c, 0, 64, 0
1, 12417, Note_on_c, 0, 100, 90
1, 12426, Note_off_c, 0, 96, 67
1, 12457, Control_c, 0, 64, 52
1, 12471, Note_on_c, 0, 97, 89
1, 12471, Control_c, 0, 64, 73
1, 12486, Control_c, 0, 64, 99
1, 12487, Note_on_c, 0, 96, 90
1, 12489, Note_off_c, 0, 97, 69
1, 12494, Note_off_c, 0, 100, 64
1, 12501, Control_c, 0, 64, 127
1, 12538, Note_on_c, 0, 90, 78
1, 12543, Note_off_c, 0, 96, 65
1, 12589, Note_off_c, 0, 90, 63
1, 12612, Note_on_c, 0, 84, 70
1, 12655, Note_off_c, 0, 84, 61
1, 12675, Note_on_c, 0, 88, 90
1, 12719, Note_on_c, 0, 84, 72
1, 12737, Note_off_c, 0, 88, 66
1, 12784, Note_on_c, 0, 78, 75
1, 12794, Note_off_c, 0, 84, 65
1, 12822, Note_off_c, 0, 78, 61
1, 12852, Note_on_c, 0, 72, 76
1, 12901, Note_off_c, 0, 72, 63
1, 12921, Note_on_c, 0, 76, 81
1, 12969, Note_on_c, 0, 72, 76
1, 12981, Note_off_c, 0, 76, 60
1, 13031, Note_on_c, 0, 66, 69
1, 13032, Note_off_c, 0, 72, 64
1, 13063, Note_off_c, 0, 66, 61
1, 13092, Note_on_c, 0, 60, 72
1, 13112, Note_off_c, 0, 45, 59
1, 13142, Note_off_c, 0, 60, 66
1, 13153, Note_off_c, 0, 33, 53
1, 13168, Note_on_c, 0, 64, 78
1, 13220, Note_on_c, 0, 60, 74
1, 13234, Note_off_c, 0, 64, 57
1, 13275, Note_on_c, 0, 54, 80
1, 13282, Note_off_c, 0, 60, 65
1, 13333, Note_on_c, 0, 48, 80
1, 13351, Note_off_c, 0, 54, 51
1, 13397, Note_on_c, 0, 43, 106
1, 13402, Note_on_c, 0, 31, 86
1, 13405, Note_off_c, 0, 48, 61
1, 13428, Control_c, 0, 64, 98
1, 13442, Control_c, 0, 64, 68
1, 13457, Control_c, 0, 64, 0
1, 13487, Note_on_c, 0, 48, 78
1, 13524, Note_off_c, 0, 48, 64
1, 13551, Note_on_c, 0, 55, 65
1, 13613, Note_on_c, 0, 60, 64
1, 13619, Note_off_c, 0, 55, 61
1, 13655, Note_on_c, 0, 62, 69
1, 13663, Note_off_c, 0, 60, 62
1, 13689, Note_off_c, 0, 62, 64
1, 13729, Note_on_c, 0, 60, 71
1, 13733, Control_c, 0, 64, 54
1, 13747, Control_c, 0, 64, 78
1, 13762, Control_c, 0, 64, 108
1, 13777, Control_c, 0, 64, 127
1, 13792, Note_off_c, 0, 60, 62
1, 13796, Note_on_c, 0, 62, 17
1, 13796, Note_on_c, 0, 67, 68
1, 13841, Note_off_c, 0, 62, 51
1, 13860, Note_on_c, 0, 72, 75
1, 13865, Note_off_c, 0, 67, 65
1, 13911, Note_off_c, 0, 72, 65
1, 13921, Note_on_c, 0, 74, 63
1, 13938, Note_off_c, 0, 74, 65
1, 13984, Note_on_c, 0, 72, 68
1, 14019, Note_on_c, 0, 74, 40
1, 14027, Note_off_c, 0, 72, 54
1, 14037, Note_on_c, 0, 79, 72
1, 14049, Note_off_c, 0, 74, 62
1, 14092, Note_on_c, 0, 84, 74
1, 14097, Note_off_c, 0, 79, 63
1, 14145, Note_off_c, 0, 84, 66
1, 14151, Note_on_c, 0, 86, 65
1, 14168, Note_off_c, 0, 86, 66
1, 14208, Note_on_c, 0, 84, 76
1, 14258, Note_on_c, 0, 91, 79
1, 14263, Note_off_c, 0, 84, 67
1, 14321, Note_on_c, 0, 96, 78
1, 14337, Note_off_c, 0, 91, 64
1, 14346, Control_c, 0, 64, 99
1, 14361, Control_c, 0, 64, 67
1, 14376, Note_on_c, 0, 98, 96
1, 14376, Control_c, 0, 64, 0
1, 14388, Note_off_c, 0, 96, 68
1, 14445, Note_on_c, 0, 95, 93
1, 14450, Control_c, 0, 64, 65
1, 14454, Note_off_c, 0, 98, 62
1, 14466, Control_c, 0, 64, 89
1, 14481, Control_c, 0, 64, 127
1, 14506, Note_on_c, 0, 91, 75
1, 14513, Note_off_c, 0, 95, 65
1, 14531, Note_off_c, 0, 91, 66
1, 14577, Note_on_c, 0, 83, 73
1, 14636, Note_off_c, 0, 83, 63
1, 14638, Note_on_c, 0, 86, 76
1, 14688, Note_on_c, 0, 83, 76
1, 14707, Note_off_c, 0, 86, 64
1, 14740, Note_on_c, 0, 79, 73
1, 14749, Note_off_c, 0, 31, 57
1, 14753, Note_off_c, 0, 83, 61
1, 14773, Note_off_c, 0, 79, 62
1, 14810, Note_on_c, 0, 71, 72
1, 14880, Note_off_c, 0, 71, 65
1, 14882, Note_on_c, 0, 74, 72
1, 14936, Note_on_c, 0, 71, 70
1, 14940, Note_off_c, 0, 74, 64
1, 14990, Note_on_c, 0, 67, 63
1, 14994, Note_off_c, 0, 71, 64
1, 15021, Note_off_c, 0, 67, 65
1, 15070, Note_on_c, 0, 59, 63
1, 15086, Note_off_c, 0, 43, 59
1, 15121, Note_off_c, 0, 59, 57
1, 15142, Note_on_c, 0, 62, 70
1, 15193, Note_on_c, 0, 59, 70
1, 15211, Note_off_c, 0, 62, 62
1, 15248, Note_on_c, 0, 55, 64
1, 15248, Note_off_c, 0, 59, 63
1, 15278, Note_off_c, 0, 55, 64
1, 15327, Note_on_c, 0, 47, 72
1, 15361, Note_off_c, 0, 47, 66
1, 15427, Note_on_c, 0, 48, 91
1, 15430, Note_on_c, 0, 36, 83
1, 15436, Control_c, 0, 64, 113
1, 15451, Control_c, 0, 64, 78
1, 15466, Control_c, 0, 64, 0
1, 15512, Note_on_c, 0, 50, 76
1, 15543, Note_off_c, 0, 50, 70
1, 15572, Note_on_c, 0, 55, 70
1, 15643, Note_off_c, 0, 55, 62
1, 15652, Note_on_c, 0, 62, 62
1, 15673, Control_c, 0, 64, 32
1, 15688, Control_c, 0, 64, 77
1, 15703, Control_c, 0, 64, 107
1, 15710, Note_off_c, 0, 62, 63
1, 15718, Control_c, 0, 64, 127
1, 15719, Note_on_c, 0, 64, 69
1, 15740, Note_off_c, 0, 64, 64
1, 15789, Note_on_c, 0, 65, 19
1, 15792, Note_on_c, 0, 62, 67
1, 15834, Note_off_c, 0, 65, 48
1, 15841, Note_off_c, 0, 62, 63
1, 15859, Note_on_c, 0, 67, 71
1, 15912, Note_off_c, 0, 67, 61
1, 15915, Note_on_c, 0, 74, 70
1, 15971, Note_off_c, 0, 74, 66
1, 15978, Note_on_c, 0, 76, 72
1, 16006, Note_off_c, 0, 76, 61
1, 16040, Note_on_c, 0, 77, 23
1, 16048, Note_on_c, 0, 74, 75
1, 16081, Note_off_c, 0, 77, 54
1, 16097, Note_off_c, 0, 74, 63
1, 16109, Note_on_c, 0, 79, 80
1, 16159, Note_on_c, 0, 86, 82
1, 16164, Note_off_c, 0, 79, 61
1, 16216, Note_off_c, 0, 86, 66
1, 16231, Note_on_c, 0, 88, 59
1, 16251, Note_off_c, 0, 88, 65
1, 16283, Note_on_c, 0, 86, 79
1, 16332, Note_on_c, 0, 91, 82
1, 16337, Note_off_c, 0, 86, 66
1, 16391, Note_on_c, 0, 98, 83
1, 16400, Note_off_c, 0, 91, 64
1, 16407, Control_c, 0, 64, 95
1, 16422, Control_c, 0, 64, 61
1, 16437, Control_c, 0, 64, 0
1, 16451, Note_on_c, 0, 100, 92
1, 16461, Note_off_c, 0, 98, 67
1, 16496, Control_c, 0, 64, 48
1, 16511, Control_c, 0, 64, 77
1, 16512, Note_on_c, 0, 96, 90
1, 16525, Control_c, 0, 64, 112
1, 16539, Note_off_c, 0, 100, 63
1, 16548, Control_c, 0, 64, 127
1, 16573, Note_on_c, 0, 91, 79
1, 16596, Note_off_c, 0, 96, 66
1, 16612, Note_off_c, 0, 91, 60
1, 16649, Note_on_c, 0, 84, 73
1, 16710, Note_on_c, 0, 88, 86
1, 16710, Note_off_c, 0, 84, 64
1, 16757, Note_on_c, 0, 84, 74
1, 16776, Note_off_c, 0, 88, 65
1, 16827, Note_on_c, 0, 79, 72
1, 16832, Note_off_c, 0, 84, 63
1, 16853, Note_off_c, 0, 79, 66
1, 16892, Note_on_c, 0, 72, 70
1, 16953, Note_off_c, 0, 72, 63
1, 16965, Note_on_c, 0, 76, 78
1, 17014, Note_on_c, 0, 72, 71
1, 17020, Note_off_c, 0, 76, 60
1, 17077, Note_off_c, 0, 72, 62
1, 17080, Note_on_c, 0, 67, 65
1, 17092, Note_off_c, 0, 48, 52
1, 17110, Note_off_c, 0, 67, 66
1, 17149, Note_on_c, 0, 60, 61
1, 17178, Note_off_c, 0, 36, 53
1, 17219, Note_off_c, 0, 60, 60
1, 17236, Note_on_c, 0, 64, 70
1, 17284, Note_on_c, 0, 60, 56
1, 17302, Note_off_c, 0, 64, 60
1, 17348, Note_on_c, 0, 55, 66
1, 17359, Note_off_c, 0, 60, 63
1, 17393, Note_off_c, 0, 55, 59
1, 17440, Note_on_c, 0, 48, 63
1, 17474, Note_off_c, 0, 48, 63
1, 17618, Note_on_c, 0, 45, 62
1, 17622, Note_on_c, 0, 33, 58
1, 17622, Control_c, 0, 64, 103
1, 17637, Control_c, 0, 64, 79
1, 17652, Control_c, 0, 64, 46
1, 17668, Control_c, 0, 64, 0
1, 17707, Note_on_c, 0, 52, 57
1, 17756, Note_off_c, 0, 52, 60
1, 17796, Note_on_c, 0, 60, 59
1, 17845, Note_off_c, 0, 60, 64
1, 17855, Note_on_c, 0, 64, 61
1, 17901, Note_off_c, 0, 64, 65
1, 17913, Note_on_c, 0, 65, 64
1, 17944, Note_off_c, 0, 65, 64
1, 17977, Note_on_c, 0, 64, 62
1, 18044, Note_off_c, 0, 64, 63
1, 18063, Note_on_c, 0, 72, 70
1, 18090, Control_c, 0, 64, 49
1, 18105, Control_c, 0, 64, 62
1, 18116, Note_off_c, 0, 72, 63
1, 18119, Note_on_c, 0, 76, 68
1, 18120, Control_c, 0, 64, 71
1, 18135, Control_c, 0, 64, 88
1, 18150, Control_c, 0, 64, 127
1, 18168, Note_off_c, 0, 76, 63
1, 18179, Note_on_c, 0, 77, 59
1, 18200, Note_off_c, 0, 77, 63
1, 18235, Note_on_c, 0, 76, 67
1, 18270, Note_off_c, 0, 45, 57
1, 18293, Note_off_c, 0, 76, 59
1, 18303, Note_on_c, 0, 84, 69
1, 18362, Note_off_c, 0, 84, 65
1, 18365, Note_on_c, 0, 88, 69
1, 18411, Note_off_c, 0, 88, 67
1, 18415, Note_on_c, 0, 89, 69
1, 18431, Note_off_c, 0, 89, 63
1, 18470, Note_on_c, 0, 88, 73
1, 18523, Note_off_c, 0, 88, 64
1, 18534, Note_on_c, 0, 96, 72
1, 18584, Note_on_c, 0, 100, 69
1, 18595, Note_off_c, 0, 96, 65
1, 18639, Control_c, 0, 64, 83
1, 18649, Note_on_c, 0, 35, 58
1, 18649, Note_on_c, 0, 47, 66
1, 18651, Note_on_c, 0, 101, 84
1, 18651, Note_off_c, 0, 100, 64
1, 18654, Note_off_c, 0, 33, 40
1, 18654, Control_c, 0, 64, 50
1, 18669, Control_c, 0, 64, 0
1, 18712, Note_on_c, 0, 98, 84
1, 18724, Note_off_c, 0, 101, 62
1, 18728, Control_c, 0, 64, 61
1, 18743, Control_c, 0, 64, 78
1, 18758, Control_c, 0, 64, 107
1, 18767, Note_on_c, 0, 95, 77
1, 18772, Note_off_c, 0, 98, 65
1, 18773, Control_c, 0, 64, 127
1, 18794, Note_off_c, 0, 47, 59
1, 18802, Note_off_c, 0, 95, 65
1, 18848, Note_on_c, 0, 86, 69
1, 18907, Note_off_c, 0, 86, 63
1, 18910, Note_on_c, 0, 89, 79
1, 18960, Note_on_c, 0, 86, 70
1, 18976, Note_off_c, 0, 89, 59
1, 19016, Note_on_c, 0, 83, 69
1, 19023, Note_off_c, 0, 86, 64
1, 19044, Note_off_c, 0, 83, 66
1, 19085, Note_on_c, 0, 74, 67
1, 19150, Control_c, 0, 64, 99
1, 19151, Note_on_c, 0, 45, 69
1, 19155, Note_on_c, 0, 33, 63
1, 19155, Note_on_c, 0, 77, 77
1, 19158, Note_off_c, 0, 74, 59
1, 19165, Control_c, 0, 64, 74
1, 19179, Control_c, 0, 64, 61
1, 19185, Note_off_c, 0, 35, 36
1, 19194, Control_c, 0, 64, 55
1, 19202, Note_on_c, 0, 74, 60
1, 19209, Control_c, 0, 64, 62
1, 19214, Note_off_c, 0, 77, 62
1, 19224, Control_c, 0, 64, 73
1, 19239, Control_c, 0, 64, 92
1, 19255, Control_c, 0, 64, 127
1, 19264, Note_on_c, 0, 71, 57
1, 19270, Note_off_c, 0, 74, 65
1, 19291, Note_off_c, 0, 71, 65
1, 19328, Note_on_c, 0, 62, 66
1, 19332, Note_off_c, 0, 45, 61
1, 19384, Note_off_c, 0, 62, 59
1, 19404, Note_on_c, 0, 65, 74
1, 19453, Note_on_c, 0, 62, 65
1, 19467, Note_off_c, 0, 65, 60
1, 19508, Note_on_c, 0, 59, 65
1, 19518, Note_off_c, 0, 62, 62
1, 19548, Note_off_c, 0, 59, 64
1, 19579, Note_on_c, 0, 50, 75
1, 19647, Note_off_c, 0, 50, 60
1, 19652, Note_on_c, 0, 44, 87
1, 19658, Note_on_c, 0, 32, 69
1, 19677, Control_c, 0, 64, 88
1, 19691, Control_c, 0, 64, 62
1, 19700, Note_off_c, 0, 33, 37
1, 19706, Control_c, 0, 64, 0
1, 19724, Note_on_c, 0, 50, 78
1, 19765, Note_off_c, 0, 50, 66
1, 19798, Note_on_c, 0, 59, 73
1, 19825, Control_c, 0, 64, 54
1, 19840, Control_c, 0, 64, 66
1, 19852, Note_on_c, 0, 62, 62
1, 19854, Note_off_c, 0, 59, 63
1, 19855, Control_c, 0, 64, 74
1, 19870, Control_c, 0, 64, 90
1, 19884, Control_c, 0, 64, 127
1, 19907, Note_off_c, 0, 62, 63
1, 19913, Note_on_c, 0, 64, 65
1, 19933, Note_off_c, 0, 64, 65
1, 19967, Note_on_c, 0, 62, 67
1, 20028, Note_off_c, 0, 62, 59
1, 20052, Note_on_c, 0, 71, 72
1, 20107, Note_on_c, 0, 74, 63
1, 20111, Note_off_c, 0, 71, 64
1, 20156, Note_off_c, 0, 74, 65
1, 20160, Note_on_c, 0, 76, 70
1, 20182, Note_off_c, 0, 76, 66
1, 20219, Note_on_c, 0, 74, 74
1, 20283, Note_off_c, 0, 74, 60
1, 20292, Note_on_c, 0, 83, 75
1, 20352, Note_on_c, 0, 86, 67
1, 20354, Note_off_c, 0, 44, 57
1, 20355, Note_off_c, 0, 32, 54
1, 20356, Note_off_c, 0, 83, 63
1, 20395, Note_on_c, 0, 88, 82
1, 20396, Note_off_c, 0, 86, 63
1, 20418, Note_off_c, 0, 88, 73
1, 20455, Note_on_c, 0, 86, 71
1, 20509, Note_on_c, 0, 95, 80
1, 20520, Note_off_c, 0, 86, 63
1, 20565, Note_on_c, 0, 98, 78
1, 20585, Note_off_c, 0, 95, 65
1, 20619, Control_c, 0, 64, 84
1, 20621, Note_on_c, 0, 45, 84
1, 20627, Note_on_c, 0, 33, 71
1, 20627, Note_on_c, 0, 100, 86
1, 20633, Note_off_c, 0, 98, 66
1, 20633, Control_c, 0, 64, 56
1, 20648, Control_c, 0, 64, 0
1, 20690, Note_on_c, 0, 96, 88
1, 20707, Note_off_c, 0, 100, 63
1, 20723, Control_c, 0, 64, 62
1, 20737, Control_c, 0, 64, 78
1, 20741, Note_on_c, 0, 93, 79
1, 20752, Note_off_c, 0, 96, 66
1, 20752, Control_c, 0, 64, 106
1, 20767, Control_c, 0, 64, 127
1, 20777, Note_off_c, 0, 93, 61
1, 20812, Note_off_c, 0, 45, 59
1, 20818, Note_on_c, 0, 84, 73
1, 20879, Note_off_c, 0, 84, 65
1, 20880, Note_on_c, 0, 88, 83
1, 20931, Note_on_c, 0, 84, 74
1, 20947, Note_off_c, 0, 88, 64
1, 20982, Note_on_c, 0, 81, 69
1, 20994, Note_off_c, 0, 84, 62
1, 21008, Note_off_c, 0, 81, 67
1, 21062, Note_on_c, 0, 72, 74
1, 21099, Note_off_c, 0, 72, 60
1, 21130, Note_on_c, 0, 43, 94
1, 21131, Control_c, 0, 64, 108
1, 21136, Note_on_c, 0, 76, 84
1, 21137, Note_on_c, 0, 31, 78
1, 21143, Note_off_c, 0, 33, 53
1, 21146, Control_c, 0, 64, 82
1, 21161, Control_c, 0, 64, 65
1, 21176, Control_c, 0, 64, 53
1, 21190, Control_c, 0, 64, 60
1, 21191, Note_on_c, 0, 72, 81
1, 21195, Note_off_c, 0, 76, 60
1, 21205, Control_c, 0, 64, 71
1, 21220, Control_c, 0, 64, 91
1, 21235, Control_c, 0, 64, 127
1, 21241, Note_on_c, 0, 69, 62
1, 21246, Note_off_c, 0, 72, 63
1, 21266, Note_off_c, 0, 69, 65
1, 21307, Note_on_c, 0, 60, 68
1, 21349, Note_off_c, 0, 43, 59
1, 21371, Note_off_c, 0, 60, 62
1, 21386, Note_on_c, 0, 64, 82
1, 21398, Note_off_c, 0, 31, 48
1, 21429, Note_on_c, 0, 60, 68
1, 21456, Note_off_c, 0, 64, 61
1, 21497, Note_on_c, 0, 57, 63
1, 21514, Note_off_c, 0, 60, 65
1, 21531, Note_off_c, 0, 57, 65
1, 21581, Note_on_c, 0, 47, 75
1, 21590, Note_on_c, 0, 48, 66
1, 21641, Note_off_c, 0, 47, 62
1, 21660, Note_off_c, 0, 48, 58
1, 21675, Note_on_c, 0, 41, 94
1, 21679, Note_on_c, 0, 29, 88
1, 21709, Control_c, 0, 64, 100
1, 21724, Control_c, 0, 64, 67
1, 21739, Control_c, 0, 64, 0
1, 21803, Note_on_c, 0, 48, 72
1, 21840, Note_off_c, 0, 48, 66
1, 21882, Note_on_c, 0, 57, 69
1, 21938, Control_c, 0, 64, 35
1, 21939, Note_on_c, 0, 60, 60
1, 21939, Note_off_c, 0, 57, 63
1, 21953, Control_c, 0, 64, 74
1, 21968, Control_c, 0, 64, 100
1, 21983, Control_c, 0, 64, 127
1, 21987, Note_off_c, 0, 60, 63
1, 21989, Note_on_c, 0, 64, 73
1, 22017, Note_off_c, 0, 64, 64
1, 22066, Note_on_c, 0, 60, 72
1, 22114, Note_off_c, 0, 60, 63
1, 22133, Note_on_c, 0, 69, 74
1, 22186, Note_on_c, 0, 72, 65
1, 22195, Note_off_c, 0, 69, 64
1, 22245, Note_off_c, 0, 72, 65
1, 22246, Note_on_c, 0, 76, 76
1, 22269, Note_off_c, 0, 76, 66
1, 22311, Note_on_c, 0, 72, 78
1, 22354, Note_off_c, 0, 72, 61
1, 22380, Note_on_c, 0, 83, 76
1, 22423, Note_on_c, 0, 84, 57
1, 22433, Note_off_c, 0, 83, 64
1, 22472, Note_on_c, 0, 88, 67
1, 22472, Note_off_c, 0, 84, 66
1, 22482, Note_on_c, 0, 86, 17
1, 22487, Note_off_c, 0, 88, 68
1, 22531, Note_on_c, 0, 84, 76
1, 22573, Note_off_c, 0, 84, 63
1, 22592, Note_on_c, 0, 94, 78
1, 22627, Note_off_c, 0, 86, 24
1, 22647, Note_on_c, 0, 97, 64
1, 22687, Control_c, 0, 64, 83
1, 22698, Note_off_c, 0, 94, 59
1, 22702, Control_c, 0, 64, 64
1, 22717, Control_c, 0, 64, 46
1, 22726, Note_on_c, 0, 99, 92
1, 22732, Control_c, 0, 64, 60
1, 22747, Control_c, 0, 64, 74
1, 22761, Control_c, 0, 64, 108
1, 22767, Note_off_c, 0, 97, 51
1, 22776, Control_c, 0, 64, 127
1, 22791, Note_on_c, 0, 95, 82
1, 22804, Note_off_c, 0, 99, 64
1, 22814, Note_on_c, 0, 93, 62
1, 22829, Note_on_c, 0, 94, 46
1, 22837, Note_off_c, 0, 95, 64
1, 22845, Note_off_c, 0, 93, 48
1, 22861, Note_off_c, 0, 94, 49
1, 22902, Note_on_c, 0, 83, 74
1, 22935, Note_off_c, 0, 83, 61
1, 22977, Note_on_c, 0, 87, 87
1, 23026, Note_on_c, 0, 83, 54
1, 23029, Note_on_c, 0, 84, 68
1, 23053, Note_off_c, 0, 87, 61
1, 23069, Note_off_c, 0, 84, 60
1, 23080, Note_on_c, 0, 81, 51
1, 23086, Note_off_c, 0, 83, 64
1, 23101, Note_off_c, 0, 81, 62
1, 23143, Note_on_c, 0, 71, 77
1, 23154, Note_on_c, 0, 70, 48
1, 23155, Note_off_c, 0, 70, 127
1, 23176, Note_off_c, 0, 71, 61
1, 23219, Note_on_c, 0, 75, 81
1, 23279, Note_on_c, 0, 71, 76
1, 23304, Note_off_c, 0, 75, 60
1, 23323, Note_on_c, 0, 69, 62
1, 23334, Note_off_c, 0, 41, 54
1, 23334, Note_off_c, 0, 71, 67
1, 23343, Note_off_c, 0, 69, 65
1, 23392, Note_on_c, 0, 59, 82
1, 23439, Note_off_c, 0, 59, 63
1, 23472, Note_on_c, 0, 63, 83
1, 23513, Poly_aftertouch_c, 0, 57, 0
1, 23520, Note_on_c, 0, 59, 71
1, 23548, Note_off_c, 0, 63, 63
1, 23579, Note_on_c, 0, 57, 55
1, 23583, Note_off_c, 0, 59, 61
1, 23602, Note_off_c, 0, 57, 60
1, 23644, Note_on_c, 0, 47, 85
1, 23650, Poly_aftertouch_c, 0, 58, 127
1, 23695, Poly_aftertouch_c, 0, 58, 0
1, 23700, Note_off_c, 0, 47, 62
1, 23707, Note_on_c, 0, 40, 94
1, 23712, Note_on_c, 0, 28, 86
1, 23729, Note_off_c, 0, 29, 41
1, 23733, Control_c, 0, 64, 97
1, 23748, Control_c, 0, 64, 65
1, 23763, Control_c, 0, 64, 0
1, 23769, Note_on_c, 0, 47, 70
1, 23821, Note_off_c, 0, 47, 64
1, 23861, Note_on_c, 0, 57, 73
1, 23918, Note_on_c, 0, 59, 63
1, 23921, Note_off_c, 0, 57, 62
1, 23954, Note_off_c, 0, 59, 64
1, 23973, Note_on_c, 0, 64, 60
1, 24003, Note_off_c, 0, 64, 66
1, 24040, Note_on_c, 0, 59, 76
1, 24096, Note_off_c, 0, 59, 62
1, 24097, Control_c, 0, 64, 68
1, 24112, Control_c, 0, 64, 83
1, 24124, Note_on_c, 0, 69, 73
1, 24126, Control_c, 0, 64, 113
1, 24141, Control_c, 0, 64, 127
1, 24178, Note_off_c, 0, 69, 66
1, 24181, Note_on_c, 0, 71, 72
1, 24213, Note_off_c, 0, 71, 65
1, 24237, Note_on_c, 0, 76, 69
1, 24262, Note_off_c, 0, 76, 65
1, 24296, Note_on_c, 0, 71, 78
1, 24344, Note_off_c, 0, 71, 62
1, 24364, Note_on_c, 0, 81, 72
1, 24421, Note_on_c, 0, 83, 71
1, 24425, Note_off_c, 0, 81, 64
1, 24458, Note_off_c, 0, 83, 64
1, 24471, Note_on_c, 0, 88, 65
1, 24495, Note_off_c, 0, 88, 65
1, 24529, Note_on_c, 0, 83, 79
1, 24569, Note_off_c, 0, 83, 61
1, 24594, Note_on_c, 0, 93, 81
1, 24648, Note_on_c, 0, 95, 76
1, 24653, Note_off_c, 0, 93, 63
1, 24689, Control_c, 0, 64, 79
1, 24694, Note_off_c, 0, 95, 67
1, 24697, Note_on_c, 0, 100, 84
1, 24704, Control_c, 0, 64, 19
1, 24718, Control_c, 0, 64, 0
1, 24722, Note_on_c, 0, 101, 38
1, 24723, Note_off_c, 0, 101, 127
1, 24756, Note_on_c, 0, 95, 87
1, 24757, Note_on_c, 0, 96, 75
1, 24763, Control_c, 0, 64, 30
1, 24779, Note_off_c, 0, 100, 65
1, 24786, Control_c, 0, 64, 72
1, 24800, Control_c, 0, 64, 99
1, 24805, Note_on_c, 0, 92, 81
1, 24810, Note_off_c, 0, 96, 65
1, 24815, Control_c, 0, 64, 127
1, 24829, Note_off_c, 0, 95, 66
1, 24857, Note_off_c, 0, 92, 63
1, 24894, Note_on_c, 0, 83, 71
1, 24949, Note_off_c, 0, 28, 53
1, 24952, Note_off_c, 0, 83, 65
1, 24967, Note_on_c, 0, 88, 76
1, 24976, Note_on_c, 0, 89, 55
1, 24998, Note_off_c, 0, 89, 57
1, 25022, Note_on_c, 0, 83, 76
1, 25027, Note_off_c, 0, 88, 67
1, 25059, Note_on_c, 0, 80, 79
1, 25072, Note_off_c, 0, 83, 62
1, 25108, Note_off_c, 0, 80, 62
1, 25140, Note_on_c, 0, 71, 67
1, 25188, Note_off_c, 0, 71, 59
1, 25203, Note_on_c, 0, 76, 82
1, 25262, Note_off_c, 0, 76, 63
1, 25265, Note_on_c, 0, 71, 76
1, 25312, Note_on_c, 0, 68, 70
1, 25316, Note_off_c, 0, 71, 64
1, 25339, Note_off_c, 0, 68, 69
1, 25378, Note_on_c, 0, 59, 74
1, 25394, Note_off_c, 0, 40, 57
1, 25435, Note_off_c, 0, 59, 63
1, 25449, Note_on_c, 0, 64, 75
1, 25525, Note_off_c, 0, 64, 63
1, 25527, Note_on_c, 0, 59, 69
1, 25564, Note_off_c, 0, 59, 59
1, 25567, Note_on_c, 0, 56, 76
1, 25594, Note_off_c, 0, 56, 68
1, 25644, Note_on_c, 0, 47, 79
1, 25688, Note_off_c, 0, 47, 61
1, 25767, Note_on_c, 0, 45, 95
1, 25770, Note_on_c, 0, 33, 83
1, 25801, Control_c, 0, 64, 82
1, 25816, Control_c, 0, 64, 0
1, 25908, Note_on_c, 0, 52, 72
1, 25957, Note_off_c, 0, 52, 63
1, 25981, Note_on_c, 0, 57, 63
1, 26026, Note_off_c, 0, 57, 64
1, 26038, Control_c, 0, 64, 68
1, 26042, Note_on_c, 0, 61, 52
1, 26052, Control_c, 0, 64, 91
1, 26067, Control_c, 0, 64, 127
1, 26080, Note_off_c, 0, 61, 64
1, 26088, Note_on_c, 0, 67, 63
1, 26117, Note_off_c, 0, 33, 57
1, 26126, Note_off_c, 0, 67, 64
1, 26163, Note_on_c, 0, 64, 70
1, 26219, Note_off_c, 0, 64, 65
1, 26229, Note_on_c, 0, 69, 67
1, 26288, Note_off_c, 0, 69, 65
1, 26302, Note_on_c, 0, 73, 70
1, 26336, Note_off_c, 0, 73, 64
1, 26357, Note_on_c, 0, 79, 65
1, 26386, Note_off_c, 0, 79, 65
1, 26419, Note_on_c, 0, 76, 86
1, 26470, Note_off_c, 0, 76, 63
1, 26473, Note_on_c, 0, 81, 69
1, 26532, Note_off_c, 0, 81, 66
1, 26540, Note_on_c, 0, 85, 77
1, 26581, Note_on_c, 0, 91, 90
1, 26589, Note_off_c, 0, 85, 64
1, 26634, Note_on_c, 0, 85, 75
1, 26645, Note_off_c, 0, 91, 62
1, 26678, Note_on_c, 0, 81, 69
1, 26678, Poly_aftertouch_c, 0, 88, 0
1, 26718, Note_off_c, 0, 85, 64
1, 26741, Note_off_c, 0, 81, 59
1, 26755, Note_on_c, 0, 76, 78
1, 26787, Note_off_c, 0, 76, 63
1, 26817, Control_c, 0, 64, 83
1, 26820, Note_on_c, 0, 50, 103
1, 26825, Note_on_c, 0, 38, 84
1, 26827, Note_on_c, 0, 91, 94
1, 26832, Control_c, 0, 64, 34
1, 26839, Note_off_c, 0, 45, 61
1, 26846, Control_c, 0, 64, 0
1, 26891, Note_on_c, 0, 84, 86
1, 26899, Note_off_c, 0, 91, 58
1, 26920, Control_c, 0, 64, 65
1, 26935, Control_c, 0, 64, 88
1, 26948, Note_on_c, 0, 81, 73
1, 26950, Control_c, 0, 64, 127
1, 26959, Note_off_c, 0, 84, 62
1, 26978, Note_off_c, 0, 81, 65
1, 27021, Note_on_c, 0, 76, 74
1, 27069, Note_off_c, 0, 76, 66
1, 27088, Note_on_c, 0, 79, 89
1, 27147, Note_on_c, 0, 72, 83
1, 27149, Note_off_c, 0, 79, 61
1, 27194, Note_on_c, 0, 69, 72
1, 27206, Note_off_c, 0, 72, 61
1, 27226, Note_off_c, 0, 69, 66
1, 27260, Note_on_c, 0, 64, 69
1, 27309, Note_off_c, 0, 64, 66
1, 27329, Note_on_c, 0, 67, 87
1, 27391, Note_on_c, 0, 60, 79
1, 27394, Note_off_c, 0, 67, 64
1, 27433, Note_on_c, 0, 57, 65
1, 27457, Note_off_c, 0, 60, 60
1, 27504, Note_on_c, 0, 52, 74
1, 27508, Note_off_c, 0, 50, 55
1, 27534, Note_off_c, 0, 52, 63
1, 27550, Control_c, 0, 64, 111
1, 27565, Control_c, 0, 64, 93
1, 27580, Control_c, 0, 64, 91
1, 27588, Note_on_c, 0, 66, 90
1, 27588, Note_off_c, 0, 57, 23
1, 27595, Control_c, 0, 64, 105
1, 27610, Control_c, 0, 64, 127
1, 27623, Note_on_c, 0, 63, 47
1, 27644, Note_on_c, 0, 60, 76
1, 27650, Note_off_c, 0, 63, 60
1, 27661, Note_off_c, 0, 66, 65
1, 27702, Note_on_c, 0, 57, 78
1, 27721, Note_off_c, 0, 60, 63
1, 27750, Note_off_c, 0, 57, 64
1, 27796, Note_on_c, 0, 50, 81
1, 27879, Note_off_c, 0, 50, 55
1, 27901, Note_off_c, 0, 38, 59
1, 27907, Note_on_c, 0, 43, 110
1, 27910, Note_on_c, 0, 31, 89
1, 27942, Control_c, 0, 64, 114
1, 27957, Control_c, 0, 64, 76
1, 27971, Poly_aftertouch_c, 0, 55, 127
1, 27972, Control_c, 0, 64, 0
1, 28009, Poly_aftertouch_c, 0, 55, 0
1, 28090, Note_on_c, 0, 50, 62
1, 28128, Note_off_c, 0, 50, 67
1, 28146, Note_on_c, 0, 55, 58
1, 28199, Note_off_c, 0, 55, 63
1, 28208, Note_on_c, 0, 60, 57
1, 28252, Note_off_c, 0, 60, 64
1, 28273, Note_on_c, 0, 65, 64
1, 28312, Note_off_c, 0, 65, 64
1, 28346, Note_on_c, 0, 62, 64
1, 28372, Control_c, 0, 64, 50
1, 28387, Control_c, 0, 64, 82
1, 28395, Note_off_c, 0, 62, 60
1, 28402, Control_c, 0, 64, 107
1, 28409, Note_on_c, 0, 67, 67
1, 28417, Control_c, 0, 64, 127
1, 28463, Note_off_c, 0, 67, 62
1, 28474, Note_on_c, 0, 72, 66
1, 28527, Note_off_c, 0, 72, 63
1, 28541, Note_on_c, 0, 77, 68
1, 28572, Note_off_c, 0, 77, 64
1, 28614, Note_on_c, 0, 74, 70
1, 28645, Note_off_c, 0, 74, 62
1, 28670, Note_on_c, 0, 79, 73
1, 28704, Note_off_c, 0, 79, 61
1, 28720, Note_on_c, 0, 84, 65
1, 28759, Note_off_c, 0, 84, 65
1, 28770, Note_on_c, 0, 89, 64
1, 28800, Note_off_c, 0, 89, 66
1, 28826, Note_on_c, 0, 86, 81
1, 28883, Note_off_c, 0, 86, 64
1, 28887, Note_on_c, 0, 91, 77
1, 28940, Note_on_c, 0, 96, 80
1, 28941, Note_off_c, 0, 91, 64
1, 28974, Control_c, 0, 64, 93
1, 28987, Note_on_c, 0, 101, 95
1, 28988, Control_c, 0, 64, 65
1, 28995, Note_off_c, 0, 96, 66
1, 29003, Control_c, 0, 64, 0
1, 29045, Note_on_c, 0, 95, 93
1, 29048, Control_c, 0, 64, 62
1, 29055, Note_off_c, 0, 101, 63
1, 29062, Control_c, 0, 64, 88
1, 29077, Control_c, 0, 64, 127
1, 29105, Note_on_c, 0, 91, 79
1, 29119, Note_off_c, 0, 95, 65
1, 29143, Note_off_c, 0, 91, 61
1, 29174, Note_on_c, 0, 86, 73
1, 29217, Note_off_c, 0, 31, 58
1, 29224, Note_off_c, 0, 86, 65
1, 29236, Note_on_c, 0, 89, 85
1, 29309, Note_on_c, 0, 83, 81
1, 29311, Note_off_c, 0, 89, 62
1, 29355, Note_on_c, 0, 79, 73
1, 29365, Note_off_c, 0, 83, 61
1, 29385, Note_off_c, 0, 79, 62
1, 29416, Note_on_c, 0, 74, 67
1, 29474, Note_off_c, 0, 74, 67
1, 29492, Note_on_c, 0, 77, 77
1, 29549, Note_off_c, 0, 77, 61
1, 29554, Note_on_c, 0, 71, 78
1, 29604, Note_on_c, 0, 67, 60
1, 29609, Note_off_c, 0, 71, 63
1, 29634, Note_off_c, 0, 67, 65
1, 29657, Note_off_c, 0, 43, 58
1, 29663, Note_on_c, 0, 62, 69
1, 29716, Note_off_c, 0, 62, 64
1, 29736, Note_on_c, 0, 65, 76
1, 29802, Note_on_c, 0, 59, 79
1, 29803, Note_off_c, 0, 65, 62
1, 29850, Note_on_c, 0, 55, 62
1, 29856, Note_off_c, 0, 59, 61
1, 29880, Note_off_c, 0, 55, 61
1, 29910, Note_on_c, 0, 50, 80
1, 29962, Note_off_c, 0, 50, 64
1, 29967, Note_on_c, 0, 48, 89
1, 29972, Note_on_c, 0, 36, 82
1, 29974, Control_c, 0, 64, 82
1, 29990, Control_c, 0, 64, 25
1, 30005, Control_c, 0, 64, 0
1, 30029, Note_off_c, 0, 48, 64
1, 30077, Note_on_c, 0, 48, 72
1, 30122, Note_off_c, 0, 48, 61
1, 30146, Note_on_c, 0, 55, 57
1, 30175, Control_c, 0, 64, 55
1, 30190, Control_c, 0, 64, 78
1, 30201, Note_off_c, 0, 55, 63
1, 30203, Note_on_c, 0, 58, 65
1, 30205, Control_c, 0, 64, 107
1, 30216, Note_on_c, 0, 48, 41
1, 30219, Control_c, 0, 64, 127
1, 30232, Note_off_c, 0, 58, 67
1, 30250, Note_on_c, 0, 64, 61
1, 30280, Note_off_c, 0, 64, 67
1, 30309, Note_on_c, 0, 60, 69
1, 30376, Note_off_c, 0, 60, 63
1, 30387, Note_on_c, 0, 67, 69
1, 30442, Note_on_c, 0, 70, 75
1, 30447, Note_off_c, 0, 67, 63
1, 30492, Note_off_c, 0, 70, 66
1, 30504, Note_on_c, 0, 76, 69
1, 30524, Note_off_c, 0, 48, 53
1, 30542, Note_off_c, 0, 76, 63
1, 30568, Note_on_c, 0, 72, 78
1, 30624, Note_off_c, 0, 72, 62
1, 30628, Note_on_c, 0, 79, 74
1, 30679, Note_on_c, 0, 82, 73
1, 30683, Note_off_c, 0, 79, 62
1, 30724, Note_off_c, 0, 82, 64
1, 30740, Note_on_c, 0, 88, 65
1, 30772, Note_off_c, 0, 88, 69
1, 30798, Note_on_c, 0, 84, 80
1, 30850, Note_off_c, 0, 84, 63
1, 30856, Note_on_c, 0, 91, 73
1, 30914, Note_off_c, 0, 91, 63
1, 30920, Note_on_c, 0, 94, 81
1, 30946, Note_off_c, 0, 36, 59
1, 30953, Control_c, 0, 64, 92
1, 30962, Note_on_c, 0, 99, 90
1, 30962, Note_on_c, 0, 42, 83
1, 30964, Note_off_c, 0, 94, 65
1, 30968, Control_c, 0, 64, 57
1, 30971, Note_on_c, 0, 30, 77
1, 30983, Control_c, 0, 64, 0
1, 31016, Note_on_c, 0, 96, 32
1, 31028, Note_on_c, 0, 94, 78
1, 31035, Note_off_c, 0, 99, 63
1, 31042, Control_c, 0, 64, 61
1, 31054, Note_off_c, 0, 96, 52
1, 31057, Control_c, 0, 64, 83
1, 31072, Control_c, 0, 64, 127
1, 31094, Note_on_c, 0, 87, 75
1, 31095, Note_off_c, 0, 94, 66
1, 31120, Note_off_c, 0, 87, 67
1, 31154, Note_on_c, 0, 84, 71
1, 31187, Note_off_c, 0, 84, 56
1, 31219, Note_on_c, 0, 87, 81
1, 31289, Note_off_c, 0, 87, 65
1, 31290, Note_on_c, 0, 82, 76
1, 31343, Note_off_c, 0, 82, 65
1, 31344, Note_on_c, 0, 75, 74
1, 31367, Note_off_c, 0, 75, 67
1, 31412, Note_on_c, 0, 72, 64
1, 31442, Note_off_c, 0, 72, 67
1, 31471, Note_on_c, 0, 75, 75
1, 31541, Note_on_c, 0, 70, 78
1, 31543, Note_off_c, 0, 75, 62
1, 31602, Note_off_c, 0, 70, 64
1, 31604, Note_on_c, 0, 63, 70
1, 31633, Note_off_c, 0, 63, 67
1, 31662, Note_on_c, 0, 60, 71
1, 31687, Note_off_c, 0, 42, 58
1, 31693, Note_off_c, 0, 60, 65
1, 31704, Note_off_c, 0, 30, 59
1, 31737, Note_on_c, 0, 63, 75
1, 31794, Note_on_c, 0, 58, 75
1, 31803, Note_off_c, 0, 63, 63
1, 31852, Note_off_c, 0, 58, 63
1, 31862, Note_on_c, 0, 51, 67
1, 31899, Note_on_c, 0, 48, 76
1, 31902, Note_off_c, 0, 51, 59
1, 31952, Note_off_c, 0, 48, 63
1, 31972, Note_on_c, 0, 41, 91
1, 31977, Note_on_c, 0, 29, 81
1, 32013, Control_c, 0, 64, 77
1, 32028, Control_c, 0, 64, 0
1, 32057, Note_on_c, 0, 48, 77
1, 32076, Note_on_c, 0, 58, 6
1, 32100, Note_off_c, 0, 48, 59
1, 32117, Note_off_c, 0, 58, 39
1, 32123, Note_on_c, 0, 51, 57
1, 32147, Control_c, 0, 64, 36
1, 32148, Note_off_c, 0, 51, 59
1, 32162, Control_c, 0, 64, 73
1, 32164, Note_on_c, 0, 57, 66
1, 32177, Control_c, 0, 64, 98
1, 32192, Control_c, 0, 64, 127
1, 32216, Note_off_c, 0, 57, 63
1, 32218, Note_on_c, 0, 63, 67
1, 32262, Note_off_c, 0, 63, 62
1, 32262, Note_off_c, 0, 29, 60
1, 32297, Note_on_c, 0, 60, 79
1, 32364, Note_off_c, 0, 60, 60
1, 32367, Note_on_c, 0, 63, 68
1, 32405, Note_off_c, 0, 63, 63
1, 32428, Note_on_c, 0, 69, 61
1, 32429, Note_on_c, 0, 68, 6
1, 32468, Note_on_c, 0, 70, 26
1, 32469, Note_off_c, 0, 70, 127
1, 32474, Note_off_c, 0, 68, 48
1, 32479, Note_off_c, 0, 69, 66
1, 32494, Note_on_c, 0, 75, 52
1, 32523, Note_on_c, 0, 74, 38
1, 32524, Note_off_c, 0, 75, 38
1, 32551, Note_off_c, 0, 74, 56
1, 32581, Note_on_c, 0, 72, 63
1, 32628, Note_off_c, 0, 72, 62
1, 32631, Note_on_c, 0, 75, 57
1, 32668, Note_off_c, 0, 75, 65
1, 32687, Note_on_c, 0, 81, 66
1, 32726, Note_on_c, 0, 82, 34
1, 32727, Note_off_c, 0, 82, 127
1, 32744, Note_off_c, 0, 81, 65
1, 32747, Note_on_c, 0, 87, 74
1, 32771, Note_off_c, 0, 87, 53
1, 32810, Note_on_c, 0, 84, 70
1, 32873, Note_on_c, 0, 87, 49
1, 32873, Note_off_c, 0, 84, 54
1, 32897, Note_off_c, 0, 87, 59
1, 32897, Note_on_c, 0, 88, 50
1, 32900, Note_on_c, 0, 94, 75
1, 32920, Note_off_c, 0, 88, 61
1, 32972, Note_off_c, 0, 94, 64
1, 32973, Note_off_c, 0, 41, 61
1, 32985, Control_c, 0, 64, 92
1, 32987, Note_on_c, 0, 47, 95
1, 32989, Note_on_c, 0, 99, 98
1, 32993, Note_on_c, 0, 35, 84
1, 33000, Control_c, 0, 64, 61
1, 33022, Control_c, 0, 64, 0
1, 33066, Note_on_c, 0, 92, 86
1, 33069, Note_off_c, 0, 99, 64
1, 33096, Control_c, 0, 64, 64
1, 33111, Control_c, 0, 64, 82
1, 33126, Control_c, 0, 64, 127
1, 33138, Note_on_c, 0, 87, 77
1, 33142, Note_off_c, 0, 92, 64
1, 33171, Note_off_c, 0, 87, 60
1, 33192, Note_on_c, 0, 83, 72
1, 33242, Note_off_c, 0, 83, 63
1, 33268, Note_on_c, 0, 87, 87
1, 33325, Note_on_c, 0, 80, 82
1, 33332, Note_off_c, 0, 87, 64
1, 33382, Note_on_c, 0, 75, 73
1, 33388, Note_off_c, 0, 80, 63
1, 33406, Note_off_c, 0, 75, 64
1, 33454, Note_on_c, 0, 71, 61
1, 33481, Note_on_c, 0, 69, 47
1, 33488, Note_off_c, 0, 71, 66
1, 33508, Note_off_c, 0, 69, 62
1, 33521, Note_on_c, 0, 75, 76
1, 33574, Note_off_c, 0, 75, 62
1, 33576, Note_on_c, 0, 68, 78
1, 33639, Note_on_c, 0, 63, 72
1, 33639, Note_off_c, 0, 68, 63
1, 33663, Note_off_c, 0, 47, 55
1, 33668, Note_off_c, 0, 63, 65
1, 33698, Note_on_c, 0, 59, 75
1, 33728, Note_off_c, 0, 35, 60
1, 33758, Note_off_c, 0, 59, 58
1, 33782, Note_on_c, 0, 63, 81
1, 33842, Note_on_c, 0, 56, 77
1, 33843, Note_off_c, 0, 63, 64
1, 33899, Note_on_c, 0, 51, 74
1, 33906, Note_off_c, 0, 56, 62
1, 33951, Note_on_c, 0, 47, 81
1, 33960, Note_off_c, 0, 51, 51
1, 33997, Note_off_c, 0, 47, 62
1, 34015, Note_on_c, 0, 34, 84
1, 34038, Control_c, 0, 64, 84
1, 34052, Control_c, 0, 64, 48
1, 34067, Control_c, 0, 64, 0
1, 34111, Note_on_c, 0, 46, 69
1, 34140, Note_off_c, 0, 46, 66
1, 34171, Note_on_c, 0, 53, 62
1, 34229, Note_off_c, 0, 53, 64
1, 34235, Note_on_c, 0, 56, 61
1, 34268, Note_off_c, 0, 56, 65
1, 34283, Note_on_c, 0, 62, 68
1, 34304, Control_c, 0, 64, 62
1, 34318, Control_c, 0, 64, 72
1, 34330, Note_off_c, 0, 62, 59
1, 34333, Control_c, 0, 64, 84
1, 34348, Control_c, 0, 64, 111
1, 34363, Control_c, 0, 64, 127
1, 34368, Note_on_c, 0, 58, 75
1, 34414, Note_off_c, 0, 58, 60
1, 34431, Note_on_c, 0, 65, 67
1, 34486, Note_off_c, 0, 65, 62
1, 34491, Note_on_c, 0, 68, 71
1, 34536, Note_off_c, 0, 68, 64
1, 34553, Note_on_c, 0, 74, 67
1, 34581, Note_off_c, 0, 74, 67
1, 34640, Note_on_c, 0, 70, 60
1, 34667, Note_off_c, 0, 70, 65
1, 34684, Note_on_c, 0, 77, 65
1, 34740, Note_off_c, 0, 77, 64
1, 34748, Note_on_c, 0, 80, 73
1, 34778, Note_off_c, 0, 80, 63
1, 34796, Note_on_c, 0, 86, 68
1, 34822, Note_off_c, 0, 86, 67
1, 34874, Note_on_c, 0, 82, 72
1, 34913, Note_off_c, 0, 82, 56
1, 34917, Note_on_c, 0, 89, 70
1, 34984, Note_on_c, 0, 92, 81
1, 34990, Note_off_c, 0, 89, 62
1, 35032, Note_on_c, 0, 46, 94
1, 35035, Note_on_c, 0, 98, 100
1, 35035, Note_off_c, 0, 92, 63
1, 35038, Control_c, 0, 64, 114
1, 35053, Control_c, 0, 64, 80
1, 35067, Control_c, 0, 64, 63
1, 35082, Control_c, 0, 64, 46
1, 35088, Note_on_c, 0, 95, 57
1, 35091, Note_on_c, 0, 92, 90
1, 35096, Note_off_c, 0, 98, 67
1, 35097, Control_c, 0, 64, 56
1, 35112, Note_off_c, 0, 95, 61
1, 35112, Control_c, 0, 64, 69
1, 35126, Control_c, 0, 64, 95
1, 35141, Control_c, 0, 64, 127
1, 35144, Note_on_c, 0, 88, 74
1, 35167, Note_off_c, 0, 92, 63
1, 35192, Note_off_c, 0, 88, 67
1, 35218, Note_on_c, 0, 82, 78
1, 35241, Note_off_c, 0, 82, 70
1, 35299, Note_on_c, 0, 86, 82
1, 35354, Note_off_c, 0, 86, 63
1, 35355, Note_on_c, 0, 80, 87
1, 35408, Note_on_c, 0, 76, 79
1, 35424, Note_off_c, 0, 80, 62
1, 35455, Note_off_c, 0, 76, 65
1, 35478, Note_on_c, 0, 70, 83
1, 35505, Note_off_c, 0, 70, 64
1, 35567, Note_on_c, 0, 74, 76
1, 35570, Note_on_c, 0, 76, 65
1, 35597, Note_off_c, 0, 76, 64
1, 35609, Note_on_c, 0, 68, 83
1, 35616, Note_off_c, 0, 74, 64
1, 35663, Note_on_c, 0, 64, 75
1, 35695, Note_off_c, 0, 68, 60
1, 35717, Note_off_c, 0, 64, 65
1, 35746, Note_on_c, 0, 58, 81
1, 35771, Note_off_c, 0, 46, 59
1, 35779, Note_off_c, 0, 58, 64
1, 35814, Note_off_c, 0, 34, 57
1, 35825, Note_on_c, 0, 62, 85
1, 35887, Note_on_c, 0, 56, 88
1, 35894, Note_off_c, 0, 62, 63
1, 35931, Poly_aftertouch_c, 0, 59, 127
1, 35946, Note_on_c, 0, 52, 80
1, 35961, Note_off_c, 0, 56, 62
1, 35962, Poly_aftertouch_c, 0, 59, 0
1, 36030, Note_on_c, 0, 46, 93
1, 36051, Note_off_c, 0, 52, 60
1, 36116, Note_off_c, 0, 46, 61
1, 36130, Note_on_c, 0, 45, 100
1, 36133, Note_on_c, 0, 33, 86
1, 36151, Control_c, 0, 64, 98
1, 36166, Control_c, 0, 64, 64
1, 36180, Control_c, 0, 64, 0
1, 36271, Note_off_c, 0, 45, 63
1, 36313, Control_c, 0, 64, 63
1, 36328, Control_c, 0, 64, 91
1, 36341, Note_on_c, 0, 45, 69
1, 36342, Note_on_c, 0, 56, 33
1, 36343, Control_c, 0, 64, 127
1, 36377, Note_off_c, 0, 56, 52
1, 36396, Note_off_c, 0, 45, 62
1, 36411, Note_on_c, 0, 52, 68
1, 36475, Note_on_c, 0, 57, 65
1, 36480, Note_off_c, 0, 52, 63
1, 36508, Note_on_c, 0, 45, 45
1, 36546, Note_off_c, 0, 57, 64
1, 36553, Note_on_c, 0, 61, 68
1, 36579, Note_off_c, 0, 61, 65
1, 36624, Note_on_c, 0, 57, 70
1, 36670, Note_off_c, 0, 57, 50
1, 36703, Note_on_c, 0, 64, 69
1, 36774, Note_on_c, 0, 69, 64
1, 36775, Note_off_c, 0, 64, 65
1, 36833, Note_off_c, 0, 69, 66
1, 36839, Note_on_c, 0, 73, 71
1, 36864, Note_off_c, 0, 73, 68
1, 36903, Note_on_c, 0, 69, 74
1, 36947, Note_off_c, 0, 69, 50
1, 36972, Note_on_c, 0, 76, 75
1, 37023, Note_on_c, 0, 81, 68
1, 37033, Note_off_c, 0, 76, 64
1, 37074, Note_off_c, 0, 81, 67
1, 37075, Note_on_c, 0, 85, 78
1, 37097, Note_off_c, 0, 85, 71
1, 37147, Note_on_c, 0, 81, 59
1, 37168, Note_off_c, 0, 81, 59
1, 37177, Note_on_c, 0, 83, 57
1, 37198, Note_off_c, 0, 83, 61
1, 37204, Note_on_c, 0, 88, 77
1, 37273, Note_off_c, 0, 88, 66
1, 37276, Note_on_c, 0, 93, 68
1, 37311, Note_on_c, 0, 97, 92
1, 37330, Note_off_c, 0, 93, 65
1, 37365, Note_off_c, 0, 97, 67
1, 37372, Note_on_c, 0, 93, 68
1, 37409, Note_on_c, 0, 88, 73
1, 37428, Note_off_c, 0, 93, 63
1, 37446, Note_off_c, 0, 88, 65
1, 37488, Note_on_c, 0, 81, 71
1, 37538, Note_off_c, 0, 81, 59
1, 37580, Note_on_c, 0, 85, 79
1, 37625, Note_on_c, 0, 82, 40
1, 37640, Note_on_c, 0, 81, 70
1, 37655, Note_off_c, 0, 82, 58
1, 37663, Note_off_c, 0, 85, 63
1, 37693, Note_on_c, 0, 76, 70
1, 37697, Note_off_c, 0, 81, 63
1, 37720, Note_off_c, 0, 76, 65
1, 37758, Note_on_c, 0, 69, 71
1, 37797, Note_off_c, 0, 69, 61
1, 37845, Note_on_c, 0, 73, 73
1, 37894, Note_on_c, 0, 69, 75
1, 37902, Note_off_c, 0, 73, 65
1, 37915, Note_off_c, 0, 45, 42
1, 37955, Note_off_c, 0, 69, 63
1, 37958, Note_on_c, 0, 64, 54
1, 37980, Note_off_c, 0, 64, 61
1, 38024, Note_on_c, 0, 57, 64
1, 38060, Note_off_c, 0, 57, 60
1, 38110, Note_on_c, 0, 61, 64
1, 38155, Note_on_c, 0, 57, 71
1, 38175, Note_off_c, 0, 61, 63
1, 38222, Note_on_c, 0, 52, 65
1, 38226, Note_off_c, 0, 57, 63
1, 38270, Note_off_c, 0, 52, 63
1, 38301, Note_on_c, 0, 45, 75
1, 38384, Note_off_c, 0, 45, 63
1, 38428, Note_on_c, 0, 38, 92
1, 38447, Note_off_c, 0, 33, 59
1, 38471, Control_c, 0, 64, 76
1, 38486, Control_c, 0, 64, 0
1, 38594, Note_on_c, 0, 45, 63
1, 38635, Note_off_c, 0, 45, 65
1, 38651, Note_on_c, 0, 50, 63
1, 38699, Note_off_c, 0, 50, 65
1, 38724, Note_on_c, 0, 54, 50
1, 38754, Note_off_c, 0, 54, 64
1, 38769, Note_on_c, 0, 60, 57
1, 38805, Note_off_c, 0, 60, 65
1, 38846, Note_on_c, 0, 57, 70
1, 38871, Control_c, 0, 64, 38
1, 38886, Control_c, 0, 64, 69
1, 38900, Control_c, 0, 64, 78
1, 38904, Note_off_c, 0, 57, 62
1, 38911, Note_on_c, 0, 62, 66
1, 38915, Control_c, 0, 64, 91
1, 38930, Control_c, 0, 64, 113
1, 38945, Control_c, 0, 64, 127
1, 38971, Note_off_c, 0, 62, 61
1, 38977, Note_on_c, 0, 66, 64
1, 39020, Note_off_c, 0, 66, 64
1, 39034, Note_on_c, 0, 72, 69
1, 39073, Note_off_c, 0, 72, 64
1, 39106, Note_on_c, 0, 69, 67
1, 39159, Note_off_c, 0, 69, 61
1, 39161, Note_on_c, 0, 74, 76
1, 39219, Note_off_c, 0, 74, 64
1, 39221, Note_on_c, 0, 78, 75
1, 39263, Note_off_c, 0, 78, 63
1, 39271, Note_on_c, 0, 84, 71
1, 39298, Note_off_c, 0, 84, 68
1, 39336, Note_on_c, 0, 81, 82
1, 39376, Note_on_c, 0, 86, 59
1, 39397, Note_off_c, 0, 81, 65
1, 39446, Note_on_c, 0, 90, 77
1, 39452, Note_off_c, 0, 86, 66
1, 39491, Note_off_c, 0, 90, 67
1, 39498, Note_on_c, 0, 96, 97
1, 39500, Note_on_c, 0, 43, 95
1, 39501, Control_c, 0, 64, 89
1, 39503, Note_off_c, 0, 38, 57
1, 39508, Note_on_c, 0, 31, 79
1, 39516, Control_c, 0, 64, 49
1, 39530, Control_c, 0, 64, 0
1, 39563, Note_on_c, 0, 89, 98
1, 39565, Note_off_c, 0, 96, 66
1, 39590, Control_c, 0, 64, 55
1, 39604, Control_c, 0, 64, 80
1, 39619, Control_c, 0, 64, 127
1, 39624, Note_on_c, 0, 86, 73
1, 39631, Note_off_c, 0, 89, 62
1, 39650, Note_off_c, 0, 86, 61
1, 39694, Note_on_c, 0, 79, 71
1, 39759, Note_off_c, 0, 79, 65
1, 39766, Note_on_c, 0, 84, 85
1, 39829, Note_on_c, 0, 77, 86
1, 39830, Note_off_c, 0, 84, 65
1, 39879, Note_on_c, 0, 74, 71
1, 39892, Note_off_c, 0, 77, 60
1, 39906, Note_off_c, 0, 74, 67
1, 39943, Note_on_c, 0, 67, 74
1, 40008, Note_off_c, 0, 67, 62
1, 40017, Note_on_c, 0, 72, 85
1, 40074, Note_off_c, 0, 72, 64
1, 40075, Note_on_c, 0, 65, 84
1, 40125, Note_on_c, 0, 62, 61
1, 40133, Note_off_c, 0, 65, 61
1, 40155, Note_off_c, 0, 62, 64
1, 40196, Note_on_c, 0, 55, 63
1, 40235, Control_c, 0, 64, 118
1, 40250, Control_c, 0, 64, 88
1, 40255, Note_off_c, 0, 55, 63
1, 40265, Note_on_c, 0, 59, 85
1, 40265, Control_c, 0, 64, 76
1, 40272, Note_off_c, 0, 43, 58
1, 40279, Control_c, 0, 64, 74
1, 40294, Control_c, 0, 64, 84
1, 40309, Control_c, 0, 64, 127
1, 40330, Note_on_c, 0, 53, 76
1, 40336, Note_off_c, 0, 59, 63
1, 40376, Note_on_c, 0, 50, 71
1, 40382, Note_off_c, 0, 53, 65
1, 40402, Note_off_c, 0, 50, 69
1, 40441, Note_on_c, 0, 43, 86
1, 40483, Note_on_c, 0, 45, 16
1, 40507, Note_off_c, 0, 43, 58
1, 40524, Note_on_c, 0, 36, 93
1, 40539, Note_off_c, 0, 31, 59
1, 40539, Note_off_c, 0, 45, 53
1, 40539, Control_c, 0, 64, 81
1, 40553, Control_c, 0, 64, 0
1, 40614, Note_on_c, 0, 43, 86
1, 40656, Note_off_c, 0, 43, 64
1, 40680, Note_on_c, 0, 48, 61
1, 40721, Note_off_c, 0, 48, 66
1, 40722, Note_on_c, 0, 52, 64
1, 40772, Note_off_c, 0, 52, 64
1, 40780, Note_on_c, 0, 59, 68
1, 40805, Control_c, 0, 64, 57
1, 40821, Control_c, 0, 64, 76
1, 40829, Note_off_c, 0, 59, 62
1, 40836, Control_c, 0, 64, 91
1, 40850, Control_c, 0, 64, 127
1, 40856, Note_on_c, 0, 55, 71
1, 40918, Note_off_c, 0, 55, 61
1, 40927, Note_on_c, 0, 60, 77
1, 40984, Note_off_c, 0, 60, 63
1, 40988, Note_on_c, 0, 64, 70
1, 41035, Note_off_c, 0, 64, 65
1, 41054, Note_on_c, 0, 71, 58
1, 41085, Note_off_c, 0, 71, 67
1, 41103, Note_on_c, 0, 67, 78
1, 41166, Note_off_c, 0, 67, 61
1, 41174, Note_on_c, 0, 72, 74
1, 41221, Note_off_c, 0, 72, 64
1, 41222, Note_on_c, 0, 76, 79
1, 41273, Note_off_c, 0, 76, 65
1, 41284, Note_on_c, 0, 83, 72
1, 41309, Note_off_c, 0, 83, 68
1, 41341, Note_on_c, 0, 79, 80
1, 41391, Note_on_c, 0, 84, 85
1, 41392, Note_off_c, 0, 79, 62
1, 41452, Note_off_c, 0, 84, 63
1, 41455, Note_on_c, 0, 88, 82
1, 41495, Control_c, 0, 64, 87
1, 41496, Note_on_c, 0, 41, 97
1, 41501, Note_on_c, 0, 29, 83
1, 41502, Note_on_c, 0, 95, 98
1, 41505, Note_off_c, 0, 88, 67
1, 41507, Note_off_c, 0, 36, 59
1, 41509, Control_c, 0, 64, 49
1, 41524, Control_c, 0, 64, 0
1, 41570, Note_on_c, 0, 88, 85
1, 41571, Note_on_c, 0, 89, 64
1, 41571, Note_off_c, 0, 95, 67
1, 41592, Poly_aftertouch_c, 0, 91, 0
1, 41598, Control_c, 0, 64, 55
1, 41613, Control_c, 0, 64, 85
1, 41614, Note_off_c, 0, 89, 63
1, 41620, Note_on_c, 0, 84, 76
1, 41629, Control_c, 0, 64, 127
1, 41640, Note_off_c, 0, 88, 66
1, 41663, Note_off_c, 0, 84, 62
1, 41689, Note_on_c, 0, 77, 78
1, 41757, Note_off_c, 0, 77, 63
1, 41762, Note_on_c, 0, 83, 83
1, 41824, Note_on_c, 0, 76, 89
1, 41827, Note_off_c, 0, 83, 65
1, 41872, Note_on_c, 0, 72, 75
1, 41885, Note_off_c, 0, 76, 62
1, 41911, Note_off_c, 0, 72, 63
1, 41941, Note_on_c, 0, 65, 74
1, 42009, Note_off_c, 0, 65, 64
1, 42018, Note_on_c, 0, 71, 86
1, 42079, Note_off_c, 0, 71, 64
1, 42080, Note_on_c, 0, 64, 84
1, 42129, Note_on_c, 0, 60, 69
1, 42131, Note_off_c, 0, 64, 63
1, 42159, Note_off_c, 0, 60, 66
1, 42194, Note_on_c, 0, 55, 59
1, 42227, Note_off_c, 0, 41, 57
1, 42259, Note_off_c, 0, 55, 63
1, 42269, Note_on_c, 0, 59, 84
1, 42337, Note_off_c, 0, 59, 64
1, 42340, Note_on_c, 0, 52, 68
1, 42350, Note_on_c, 0, 53, 65
1, 42370, Note_off_c, 0, 53, 65
1, 42382, Note_off_c, 0, 52, 64
1, 42386, Note_on_c, 0, 48, 65
1, 42413, Note_off_c, 0, 48, 65
1, 42458, Note_on_c, 0, 41, 78
1, 42521, Note_off_c, 0, 41, 59
1, 42536, Note_on_c, 0, 35, 91
1, 42540, Control_c, 0, 64, 93
1, 42551, Note_off_c, 0, 29, 61
1, 42555, Control_c, 0, 64, 60
1, 42570, Control_c, 0, 64, 0
1, 42623, Note_on_c, 0, 41, 75
1, 42659, Note_off_c, 0, 41, 62
1, 42681, Note_on_c, 0, 47, 70
1, 42727, Note_on_c, 0, 50, 67
1, 42731, Note_off_c, 0, 47, 62
1, 42787, Note_off_c, 0, 50, 65
1, 42794, Note_on_c, 0, 57, 70
1, 42829, Control_c, 0, 64, 42
1, 42839, Note_off_c, 0, 57, 64
1, 42844, Control_c, 0, 64, 67
1, 42859, Control_c, 0, 64, 76
1, 42868, Note_on_c, 0, 53, 75
1, 42874, Control_c, 0, 64, 89
1, 42889, Control_c, 0, 64, 111
1, 42903, Control_c, 0, 64, 127
1, 42930, Note_off_c, 0, 53, 64
1, 42934, Note_on_c, 0, 59, 73
1, 42996, Note_off_c, 0, 59, 63
1, 42999, Note_on_c, 0, 62, 73
1, 43047, Note_off_c, 0, 62, 63
1, 43061, Note_on_c, 0, 69, 70
1, 43100, Note_off_c, 0, 69, 62
1, 43126, Note_on_c, 0, 65, 82
1, 43178, Note_off_c, 0, 65, 59
1, 43188, Note_on_c, 0, 71, 61
1, 43248, Note_off_c, 0, 71, 65
1, 43252, Note_on_c, 0, 74, 73
1, 43289, Note_off_c, 0, 74, 65
1, 43295, Note_on_c, 0, 81, 69
1, 43324, Note_off_c, 0, 81, 67
1, 43364, Note_on_c, 0, 77, 73
1, 43386, Note_on_c, 0, 79, 57
1, 43411, Note_off_c, 0, 77, 65
1, 43414, Note_on_c, 0, 83, 81
1, 43436, Note_off_c, 0, 79, 62
1, 43478, Note_off_c, 0, 83, 62
1, 43479, Note_on_c, 0, 86, 77
1, 43508, Note_off_c, 0, 35, 61
1, 43519, Control_c, 0, 64, 89
1, 43523, Note_on_c, 0, 40, 87
1, 43525, Note_on_c, 0, 28, 76
1, 43534, Control_c, 0, 64, 59
1, 43535, Note_on_c, 0, 91, 90
1, 43539, Note_off_c, 0, 86, 66
1, 43549, Control_c, 0, 64, 0
1, 43599, Note_on_c, 0, 86, 84
1, 43606, Note_off_c, 0, 91, 65
1, 43608, Control_c, 0, 64, 58
1, 43617, Note_off_c, 0, 28, 57
1, 43622, Control_c, 0, 64, 77
1, 43637, Control_c, 0, 64, 108
1, 43652, Control_c, 0, 64, 127
1, 43662, Note_off_c, 0, 86, 66
1, 43668, Note_on_c, 0, 83, 64
1, 43694, Note_off_c, 0, 83, 67
1, 43721, Note_on_c, 0, 76, 65
1, 43768, Note_off_c, 0, 76, 63
1, 43794, Note_on_c, 0, 79, 82
1, 43857, Note_off_c, 0, 79, 62
1, 43858, Note_on_c, 0, 74, 69
1, 43904, Note_on_c, 0, 71, 69
1, 43911, Note_off_c, 0, 74, 64
1, 43935, Note_off_c, 0, 71, 66
1, 43974, Note_on_c, 0, 64, 78
1, 44037, Note_on_c, 0, 45, 93
1, 44038, Note_off_c, 0, 64, 61
1, 44039, Control_c, 0, 64, 87
1, 44039, Note_on_c, 0, 69, 77
1, 44040, Note_on_c, 0, 33, 81
1, 44053, Control_c, 0, 64, 55
1, 44056, Note_off_c, 0, 40, 59
1, 44068, Control_c, 0, 64, 0
1, 44110, Note_off_c, 0, 69, 65
1, 44112, Note_on_c, 0, 72, 74
1, 44127, Control_c, 0, 64, 65
1, 44142, Control_c, 0, 64, 84
1, 44155, Note_off_c, 0, 72, 64
1, 44157, Control_c, 0, 64, 127
1, 44170, Note_on_c, 0, 79, 76
1, 44191, Note_off_c, 0, 45, 59
1, 44201, Note_off_c, 0, 79, 59
1, 44242, Note_on_c, 0, 76, 84
1, 44300, Note_on_c, 0, 81, 76
1, 44301, Note_off_c, 0, 76, 62
1, 44355, Note_off_c, 0, 81, 64
1, 44363, Note_on_c, 0, 84, 82
1, 44403, Note_off_c, 0, 84, 66
1, 44404, Note_on_c, 0, 91, 85
1, 44468, Note_on_c, 0, 88, 84
1, 44481, Note_off_c, 0, 91, 64
1, 44511, Note_off_c, 0, 88, 68
1, 44517, Note_off_c, 0, 33, 58
1, 44519, Poly_aftertouch_c, 0, 89, 0
1, 44519, Control_c, 0, 64, 93
1, 44534, Control_c, 0, 64, 66
1, 44537, Note_on_c, 0, 38, 97
1, 44538, Note_on_c, 0, 26, 84
1, 44549, Control_c, 0, 64, 0
1, 44550, Note_on_c, 0, 89, 90
1, 44594, Control_c, 0, 64, 64
1, 44609, Control_c, 0, 64, 85
1, 44612, Note_off_c, 0, 89, 59
1, 44621, Note_on_c, 0, 84, 75
1, 44623, Control_c, 0, 64, 127
1, 44644, Note_on_c, 0, 83, 45
1, 44651, Note_off_c, 0, 26, 59
1, 44671, Note_on_c, 0, 81, 72
1, 44671, Note_off_c, 0, 83, 57
1, 44686, Note_off_c, 0, 84, 66
1, 44714, Note_off_c, 0, 81, 64
1, 44746, Note_on_c, 0, 74, 70
1, 44767, Note_off_c, 0, 38, 0
1, 44790, Note_off_c, 0, 74, 62
1, 44805, Poly_aftertouch_c, 0, 38, 127
1, 44814, Note_on_c, 0, 77, 84
1, 44815, Note_on_c, 0, 38, 13
1, 44815, Note_on_c, 0, 40, 23
1, 44862, Note_off_c, 0, 40, 28
1, 44867, Note_on_c, 0, 72, 81
1, 44879, Note_off_c, 0, 77, 59
1, 44916, Note_on_c, 0, 69, 74
1, 44929, Note_off_c, 0, 72, 61
1, 44960, Note_off_c, 0, 69, 64
1, 44995, Note_on_c, 0, 62, 76
1, 45032, Control_c, 0, 64, 108
1, 45047, Control_c, 0, 64, 74
1, 45062, Control_c, 0, 64, 0
1, 45063, Note_on_c, 0, 43, 104
1, 45064, Note_off_c, 0, 62, 58
1, 45066, Note_on_c, 0, 31, 80
1, 45071, Note_on_c, 0, 67, 83
1, 45078, Note_off_c, 0, 38, 54
1, 45132, Note_off_c, 0, 67, 63
1, 45134, Note_on_c, 0, 71, 70
1, 45150, Control_c, 0, 64, 58
1, 45165, Control_c, 0, 64, 82
1, 45178, Note_off_c, 0, 71, 66
1, 45180, Control_c, 0, 64, 127
1, 45189, Note_on_c, 0, 77, 77
1, 45201, Note_off_c, 0, 43, 58
1, 45220, Note_off_c, 0, 77, 63
1, 45256, Note_on_c, 0, 74, 82
1, 45314, Note_on_c, 0, 79, 79
1, 45315, Note_off_c, 0, 74, 63
1, 45358, Note_off_c, 0, 79, 63
1, 45373, Note_on_c, 0, 83, 80
1, 45415, Note_on_c, 0, 89, 87
1, 45415, Note_off_c, 0, 83, 65
1, 45482, Note_on_c, 0, 86, 82
1, 45501, Note_off_c, 0, 89, 61
1, 45527, Note_off_c, 0, 86, 65
1, 45530, Note_off_c, 0, 31, 60
1, 45535, Control_c, 0, 64, 108
1, 45550, Control_c, 0, 64, 73
1, 45551, Note_on_c, 0, 36, 91
1, 45551, Note_on_c, 0, 24, 91
1, 45558, Note_on_c, 0, 88, 98
1, 45565, Control_c, 0, 64, 0
1, 45610, Control_c, 0, 64, 45
1, 45622, Note_on_c, 0, 83, 84
1, 45625, Control_c, 0, 64, 71
1, 45628, Note_off_c, 0, 88, 68
1, 45640, Control_c, 0, 64, 98
1, 45652, Note_off_c, 0, 24, 50
1, 45655, Control_c, 0, 64, 127
1, 45681, Note_on_c, 0, 79, 74
1, 45692, Note_off_c, 0, 83, 63
1, 45711, Note_off_c, 0, 79, 62
1, 45756, Note_on_c, 0, 72, 70
1, 45797, Note_off_c, 0, 72, 62
1, 45829, Note_on_c, 0, 76, 77
1, 45848, Note_on_c, 0, 74, 57
1, 45876, Note_off_c, 0, 74, 52
1, 45881, Note_on_c, 0, 71, 72
1, 45885, Note_off_c, 0, 76, 60
1, 45932, Note_on_c, 0, 67, 71
1, 45934, Note_off_c, 0, 71, 66
1, 45960, Note_off_c, 0, 67, 66
1, 46001, Note_on_c, 0, 60, 77
1, 46037, Note_on_c, 0, 62, 30
1, 46048, Control_c, 0, 64, 121
1, 46051, Note_off_c, 0, 36, 60
1, 46057, Note_off_c, 0, 60, 62
1, 46063, Control_c, 0, 64, 77
1, 46066, Note_on_c, 0, 65, 76
1, 46066, Note_on_c, 0, 29, 80
1, 46066, Note_on_c, 0, 41, 92
1, 46070, Note_off_c, 0, 62, 56
1, 46078, Control_c, 0, 64, 0
1, 46125, Note_off_c, 0, 65, 63
1, 46131, Note_on_c, 0, 69, 69
1, 46137, Control_c, 0, 64, 65
1, 46146, Note_off_c, 0, 29, 61
1, 46152, Control_c, 0, 64, 87
1, 46166, Control_c, 0, 64, 127
1, 46175, Note_off_c, 0, 69, 66
1, 46194, Note_on_c, 0, 76, 73
1, 46219, Note_off_c, 0, 76, 66
1, 46256, Note_on_c, 0, 72, 81
1, 46309, Note_off_c, 0, 72, 60
1, 46312, Note_on_c, 0, 77, 72
1, 46367, Note_off_c, 0, 77, 62
1, 46376, Note_on_c, 0, 81, 78
1, 46420, Note_on_c, 0, 88, 87
1, 46421, Note_off_c, 0, 81, 65
1, 46494, Note_on_c, 0, 84, 82
1, 46502, Note_off_c, 0, 41, 0
1, 46502, Note_on_c, 0, 41, 3
1, 46513, Note_off_c, 0, 88, 65
1, 46539, Note_off_c, 0, 84, 64
1, 46554, Note_off_c, 0, 41, 62
1, 46559, Control_c, 0, 64, 89
1, 46567, Note_on_c, 0, 47, 98
1, 46573, Note_on_c, 0, 35, 82
1, 46574, Control_c, 0, 64, 55
1, 46576, Note_on_c, 0, 86, 96
1, 46588, Control_c, 0, 64, 0
1, 46633, Note_on_c, 0, 81, 86
1, 46648, Note_off_c, 0, 86, 62
1, 46662, Control_c, 0, 64, 65
1, 46677, Control_c, 0, 64, 92
1, 46692, Control_c, 0, 64, 127
1, 46696, Note_on_c, 0, 77, 74
1, 46705, Note_off_c, 0, 81, 65
1, 46733, Note_off_c, 0, 77, 61
1, 46761, Note_on_c, 0, 71, 72
1, 46808, Note_off_c, 0, 71, 67
1, 46829, Note_on_c, 0, 74, 87
1, 46884, Note_on_c, 0, 69, 75
1, 46887, Note_off_c, 0, 74, 63
1, 46932, Note_on_c, 0, 65, 71
1, 46944, Note_off_c, 0, 69, 65
1, 46960, Note_off_c, 0, 65, 66
1, 46998, Note_on_c, 0, 59, 79
1, 47053, Note_off_c, 0, 59, 64
1, 47072, Note_off_c, 0, 47, 58
1, 47073, Note_on_c, 0, 62, 81
1, 47105, Note_off_c, 0, 35, 55
1, 47131, Note_on_c, 0, 57, 78
1, 47139, Note_off_c, 0, 62, 63
1, 47171, Note_on_c, 0, 53, 76
1, 47181, Note_off_c, 0, 57, 64
1, 47207, Note_off_c, 0, 53, 67
1, 47247, Note_on_c, 0, 47, 87
1, 47287, Note_off_c, 0, 47, 66
1, 47332, Note_on_c, 0, 35, 95
1, 47352, Control_c, 0, 64, 105
1, 47367, Control_c, 0, 64, 69
1, 47382, Control_c, 0, 64, 0
1, 47604, Control_c, 0, 64, 63
1, 47608, Note_on_c, 0, 87, 93
1, 47619, Control_c, 0, 64, 85
1, 47620, Note_on_c, 0, 47, 78
1, 47634, Control_c, 0, 64, 127
1, 47670, Note_on_c, 0, 81, 81
1, 47691, Note_off_c, 0, 87, 64
1, 47731, Note_off_c, 0, 81, 64
1, 47738, Note_on_c, 0, 78, 70
1, 47770, Note_off_c, 0, 78, 64
1, 47802, Note_on_c, 0, 71, 77
1, 47843, Note_off_c, 0, 71, 61
1, 47878, Note_on_c, 0, 75, 84
1, 47936, Note_on_c, 0, 69, 81
1, 47954, Note_off_c, 0, 75, 62
1, 48007, Note_on_c, 0, 66, 71
1, 48012, Note_off_c, 0, 69, 64
1, 48042, Note_off_c, 0, 66, 63
1, 48078, Note_on_c, 0, 59, 77
1, 48097, Note_off_c, 0, 47, 54
1, 48120, Note_off_c, 0, 59, 60
1, 48151, Note_on_c, 0, 63, 87
1, 48178, Note_off_c, 0, 35, 61
1, 48216, Note_on_c, 0, 57, 82
1, 48219, Note_off_c, 0, 63, 66
1, 48278, Note_on_c, 0, 54, 79
1, 48290, Note_off_c, 0, 57, 65
1, 48329, Note_off_c, 0, 54, 64
1, 48361, Note_on_c, 0, 45, 83
1, 48364, Note_on_c, 0, 47, 79
1, 48412, Control_c, 0, 64, 109
1, 48416, Note_off_c, 0, 45, 65
1, 48419, Note_on_c, 0, 35, 99
1, 48427, Control_c, 0, 64, 78
1, 48430, Note_off_c, 0, 47, 65
1, 48442, Control_c, 0, 64, 55
1, 48457, Control_c, 0, 64, 31
1, 48472, Control_c, 0, 64, 59
1, 48472, Note_off_c, 0, 35, 68
1, 48486, Control_c, 0, 64, 75
1, 48501, Control_c, 0, 64, 119
1, 48516, Control_c, 0, 64, 127
1, 48877, Note_on_c, 0, 40, 103
1, 48881, Note_on_c, 0, 28, 91
1, 48910, Control_c, 0, 64, 94
1, 48925, Control_c, 0, 64, 61
1, 48940, Control_c, 0, 64, 0
1, 49114, Note_on_c, 0, 47, 70
1, 49163, Note_off_c, 0, 47, 59
1, 49206, Control_c, 0, 64, 67
1, 49221, Control_c, 0, 64, 103
1, 49228, Note_on_c, 0, 52, 65
1, 49235, Control_c, 0, 64, 127
1, 49324, Note_on_c, 0, 56, 69
1, 49333, Note_off_c, 0, 52, 60
1, 49385, Note_off_c, 0, 56, 65
1, 49406, Note_on_c, 0, 64, 70
1, 49462, Note_off_c, 0, 64, 62
1, 49487, Note_on_c, 0, 59, 46
1, 49515, Note_off_c, 0, 59, 54
1, 49557, Note_on_c, 0, 64, 75
1, 49593, Note_on_c, 0, 65, 19
1, 49606, Note_off_c, 0, 64, 58
1, 49631, Note_on_c, 0, 68, 73
1, 49672, Note_off_c, 0, 65, 41
1, 49678, Note_off_c, 0, 68, 62
1, 49706, Note_on_c, 0, 76, 75
1, 49758, Note_off_c, 0, 76, 63
1, 49762, Note_on_c, 0, 71, 58
1, 49781, Note_off_c, 0, 71, 63
1, 49828, Note_on_c, 0, 76, 82
1, 49896, Note_on_c, 0, 80, 75
1, 49906, Note_off_c, 0, 76, 61
1, 49941, Note_off_c, 0, 80, 63
1, 49952, Note_on_c, 0, 88, 66
1, 49993, Note_on_c, 0, 83, 70
1, 50003, Note_off_c, 0, 88, 66
1, 50010, Note_off_c, 0, 83, 68
1, 50052, Note_on_c, 0, 88, 75
1, 50129, Note_on_c, 0, 92, 74
1, 50147, Note_off_c, 0, 88, 63
1, 50174, Note_off_c, 0, 92, 62
1, 50175, Note_on_c, 0, 100, 92
1, 50244, Note_on_c, 0, 92, 84
1, 50249, Note_off_c, 0, 100, 65
1, 50302, Note_off_c, 0, 92, 64
1, 50317, Note_on_c, 0, 88, 65
1, 50333, Note_off_c, 0, 88, 69
1, 50389, Note_on_c, 0, 83, 81
1, 50438, Note_on_c, 0, 88, 74
1, 50445, Note_off_c, 0, 83, 60
1, 50498, Note_off_c, 0, 88, 68
1, 50501, Note_on_c, 0, 80, 77
1, 50544, Note_off_c, 0, 80, 59
1, 50575, Note_on_c, 0, 76, 67
1, 50601, Note_off_c, 0, 76, 65
1, 50635, Note_off_c, 0, 40, 55
1, 50644, Note_on_c, 0, 71, 81
1, 50690, Note_on_c, 0, 76, 75
1, 50705, Note_off_c, 0, 71, 61
1, 50728, Note_on_c, 0, 72, 39
1, 50749, Note_on_c, 0, 68, 81
1, 50754, Note_off_c, 0, 76, 64
1, 50756, Note_off_c, 0, 72, 53
1, 50795, Note_off_c, 0, 68, 64
1, 50814, Note_on_c, 0, 64, 79
1, 50858, Note_off_c, 0, 64, 66
1, 50889, Note_on_c, 0, 59, 92
1, 50944, Note_off_c, 0, 59, 62
1, 50951, Note_on_c, 0, 38, 93
1, 50954, Note_on_c, 0, 26, 87
1, 50959, Note_on_c, 0, 65, 94
1, 50970, Control_c, 0, 64, 92
1, 50983, Note_off_c, 0, 28, 41
1, 50992, Control_c, 0, 64, 63
1, 51000, Note_on_c, 0, 62, 40
1, 51006, Control_c, 0, 64, 0
1, 51030, Note_off_c, 0, 62, 54
1, 51036, Control_c, 0, 64, 43
1, 51051, Control_c, 0, 64, 72
1, 51053, Note_on_c, 0, 59, 93
1, 51066, Note_off_c, 0, 65, 64
1, 51066, Control_c, 0, 64, 103
1, 51080, Control_c, 0, 64, 127
1, 51120, Note_off_c, 0, 38, 53
1, 51146, Note_on_c, 0, 55, 91
1, 51162, Note_off_c, 0, 26, 50
1, 51174, Note_off_c, 0, 59, 60
1, 51231, Note_off_c, 0, 55, 60
1, 51245, Note_on_c, 0, 50, 96
1, 51357, Note_off_c, 0, 50, 58
1, 51477, Note_on_c, 0, 36, 99
1, 51483, Note_on_c, 0, 24, 87
1, 51511, Control_c, 0, 64, 114
1, 51526, Control_c, 0, 64, 76
1, 51541, Control_c, 0, 64, 0
1, 51694, Note_on_c, 0, 48, 72
1, 51763, Note_off_c, 0, 48, 62
1, 51783, Note_on_c, 0, 55, 65
1, 51860, Note_off_c, 0, 55, 61
1, 51865, Note_on_c, 0, 60, 61
1, 51924, Note_off_c, 0, 60, 65
1, 51927, Note_on_c, 0, 64, 73
1, 51948, Control_c, 0, 64, 63
1, 51959, Note_off_c, 0, 64, 63
1, 51962, Control_c, 0, 64, 85
1, 51977, Control_c, 0, 64, 127
1, 51998, Note_on_c, 0, 60, 74
1, 52026, Note_off_c, 0, 24, 59
1, 52057, Note_off_c, 0, 60, 63
1, 52067, Note_on_c, 0, 67, 73
1, 52133, Note_on_c, 0, 72, 69
1, 52134, Note_off_c, 0, 67, 63
1, 52192, Note_off_c, 0, 72, 64
1, 52207, Note_on_c, 0, 76, 67
1, 52226, Note_off_c, 0, 76, 65
1, 52255, Note_on_c, 0, 72, 66
1, 52314, Note_off_c, 0, 72, 63
1, 52316, Note_on_c, 0, 79, 79
1, 52374, Note_off_c, 0, 79, 62
1, 52377, Note_on_c, 0, 84, 75
1, 52422, Note_off_c, 0, 84, 63
1, 52430, Note_on_c, 0, 88, 60
1, 52448, Note_off_c, 0, 88, 65
1, 52470, Note_on_c, 0, 84, 69
1, 52534, Note_on_c, 0, 91, 79
1, 52538, Note_off_c, 0, 84, 65
1, 52595, Note_on_c, 0, 96, 79
1, 52606, Note_off_c, 0, 91, 64
1, 52637, Note_on_c, 0, 48, 91
1, 52647, Note_on_c, 0, 100, 92
1, 52654, Note_off_c, 0, 96, 66
1, 52703, Note_on_c, 0, 96, 84
1, 52703, Note_on_c, 0, 97, 65
1, 52726, Note_off_c, 0, 100, 66
1, 52730, Note_off_c, 0, 97, 67
1, 52753, Note_on_c, 0, 91, 72
1, 52770, Note_off_c, 0, 96, 65
1, 52788, Note_off_c, 0, 91, 60
1, 52831, Note_on_c, 0, 84, 74
1, 52888, Note_off_c, 0, 84, 64
1, 52895, Note_on_c, 0, 88, 91
1, 52940, Note_on_c, 0, 84, 73
1, 52958, Note_off_c, 0, 88, 66
1, 53009, Note_on_c, 0, 79, 72
1, 53012, Note_off_c, 0, 84, 65
1, 53036, Note_off_c, 0, 79, 64
1, 53075, Note_on_c, 0, 72, 69
1, 53148, Note_off_c, 0, 72, 65
1, 53155, Note_on_c, 0, 76, 80
1, 53191, Note_off_c, 0, 48, 54
1, 53202, Note_on_c, 0, 72, 74
1, 53213, Note_off_c, 0, 76, 59
1, 53268, Note_on_c, 0, 67, 69
1, 53272, Note_off_c, 0, 72, 59
1, 53296, Note_off_c, 0, 67, 65
1, 53334, Note_off_c, 0, 36, 56
1, 53341, Note_on_c, 0, 60, 66
1, 53402, Note_off_c, 0, 60, 65
1, 53417, Note_on_c, 0, 64, 75
1, 53463, Note_on_c, 0, 60, 68
1, 53482, Note_off_c, 0, 64, 59
1, 53519, Note_on_c, 0, 55, 67
1, 53545, Note_off_c, 0, 60, 63
1, 53579, Note_off_c, 0, 55, 61
1, 53589, Note_on_c, 0, 48, 74
1, 53651, Note_on_c, 0, 41, 96
1, 53656, Note_on_c, 0, 29, 88
1, 53661, Note_off_c, 0, 48, 61
1, 53697, Control_c, 0, 64, 83
1, 53712, Control_c, 0, 64, 39
1, 53727, Control_c, 0, 64, 0
1, 53730, Note_on_c, 0, 48, 69
1, 53770, Note_off_c, 0, 48, 65
1, 53814, Note_on_c, 0, 57, 65
1, 53852, Note_off_c, 0, 57, 65
1, 53857, Note_on_c, 0, 60, 56
1, 53898, Note_off_c, 0, 60, 67
1, 53905, Note_on_c, 0, 65, 70
1, 53947, Note_off_c, 0, 65, 62
1, 53981, Note_on_c, 0, 60, 68
1, 54016, Control_c, 0, 64, 30
1, 54031, Control_c, 0, 64, 77
1, 54041, Note_off_c, 0, 60, 65
1, 54046, Control_c, 0, 64, 114
1, 54057, Note_on_c, 0, 69, 73
1, 54061, Control_c, 0, 64, 127
1, 54107, Note_off_c, 0, 69, 67
1, 54115, Note_on_c, 0, 72, 66
1, 54153, Note_off_c, 0, 72, 64
1, 54170, Note_on_c, 0, 77, 61
1, 54198, Note_off_c, 0, 77, 67
1, 54230, Note_on_c, 0, 72, 74
1, 54285, Note_off_c, 0, 72, 63
1, 54290, Note_on_c, 0, 81, 73
1, 54291, Note_off_c, 0, 41, 54
1, 54335, Note_off_c, 0, 81, 66
1, 54347, Note_on_c, 0, 84, 67
1, 54375, Note_off_c, 0, 84, 67
1, 54403, Note_on_c, 0, 89, 61
1, 54422, Note_off_c, 0, 89, 60
1, 54449, Note_on_c, 0, 84, 80
1, 54501, Note_on_c, 0, 93, 81
1, 54501, Note_off_c, 0, 84, 64
1, 54564, Note_on_c, 0, 96, 80
1, 54583, Note_off_c, 0, 93, 63
1, 54615, Note_on_c, 0, 42, 100
1, 54618, Note_on_c, 0, 100, 94
1, 54620, Note_on_c, 0, 30, 85
1, 54621, Note_off_c, 0, 96, 66
1, 54624, Control_c, 0, 64, 92
1, 54639, Control_c, 0, 64, 59
1, 54640, Note_off_c, 0, 29, 41
1, 54654, Control_c, 0, 64, 0
1, 54671, Note_on_c, 0, 96, 83
1, 54702, Note_off_c, 0, 100, 65
1, 54730, Note_on_c, 0, 93, 74
1, 54750, Control_c, 0, 64, 45
1, 54759, Note_off_c, 0, 96, 66
1, 54765, Control_c, 0, 64, 81
1, 54770, Note_off_c, 0, 93, 60
1, 54779, Control_c, 0, 64, 127
1, 54809, Note_on_c, 0, 84, 76
1, 54876, Note_on_c, 0, 88, 84
1, 54876, Note_off_c, 0, 84, 64
1, 54927, Note_on_c, 0, 84, 80
1, 54947, Note_off_c, 0, 88, 65
1, 54983, Note_on_c, 0, 81, 63
1, 54994, Note_off_c, 0, 84, 62
1, 55010, Note_off_c, 0, 81, 69
1, 55045, Note_on_c, 0, 72, 72
1, 55106, Note_off_c, 0, 72, 62
1, 55122, Note_on_c, 0, 76, 83
1, 55172, Note_on_c, 0, 72, 72
1, 55187, Note_off_c, 0, 76, 60
1, 55227, Note_on_c, 0, 69, 63
1, 55232, Note_off_c, 0, 72, 63
1, 55257, Note_off_c, 0, 69, 66
1, 55293, Note_on_c, 0, 60, 72
1, 55344, Control_c, 0, 64, 109
1, 55358, Control_c, 0, 64, 90
1, 55367, Note_off_c, 0, 60, 64
1, 55369, Note_on_c, 0, 62, 80
1, 55370, Note_off_c, 0, 42, 60
1, 55373, Control_c, 0, 64, 83
1, 55383, Note_off_c, 0, 30, 61
1, 55388, Control_c, 0, 64, 88
1, 55402, Control_c, 0, 64, 108
1, 55417, Control_c, 0, 64, 127
1, 55435, Note_on_c, 0, 60, 66
1, 55439, Note_off_c, 0, 62, 62
1, 55476, Note_on_c, 0, 57, 80
1, 55492, Note_off_c, 0, 60, 66
1, 55513, Note_off_c, 0, 57, 63
1, 55559, Note_on_c, 0, 48, 76
1, 55608, Note_off_c, 0, 48, 61
1, 55621, Note_on_c, 0, 43, 99
1, 55624, Note_on_c, 0, 31, 85
1, 55633, Control_c, 0, 64, 99
1, 55648, Control_c, 0, 64, 68
1, 55663, Control_c, 0, 64, 0
1, 55715, Note_on_c, 0, 47, 72
1, 55751, Note_off_c, 0, 47, 66
1, 55781, Note_on_c, 0, 55, 67
1, 55796, Control_c, 0, 64, 40
1, 55811, Control_c, 0, 64, 73
1, 55824, Note_on_c, 0, 59, 56
1, 55826, Control_c, 0, 64, 98
1, 55841, Note_off_c, 0, 55, 61
1, 55841, Control_c, 0, 64, 127
1, 55882, Note_off_c, 0, 43, 62
1, 55882, Note_off_c, 0, 59, 63
1, 55886, Note_on_c, 0, 62, 67
1, 55915, Note_off_c, 0, 62, 57
1, 55929, Note_on_c, 0, 64, 43
1, 55952, Note_on_c, 0, 59, 72
1, 55958, Note_off_c, 0, 64, 57
1, 55997, Note_off_c, 0, 31, 0
1, 55997, Note_on_c, 0, 31, 3
1, 56006, Note_off_c, 0, 59, 61
1, 56031, Note_on_c, 0, 67, 74
1, 56077, Note_on_c, 0, 71, 71
1, 56093, Note_off_c, 0, 67, 62
1, 56108, Control_c, 0, 64, 82
1, 56123, Control_c, 0, 64, 52
1, 56129, Note_off_c, 0, 31, 39
1, 56135, Note_on_c, 0, 42, 96
1, 56138, Control_c, 0, 64, 0
1, 56140, Note_on_c, 0, 30, 82
1, 56144, Note_off_c, 0, 71, 65
1, 56148, Note_on_c, 0, 74, 64
1, 56166, Note_off_c, 0, 74, 66
1, 56167, Control_c, 0, 64, 56
1, 56182, Control_c, 0, 64, 80
1, 56197, Control_c, 0, 64, 127
1, 56200, Note_on_c, 0, 71, 72
1, 56257, Note_off_c, 0, 42, 58
1, 56257, Note_off_c, 0, 71, 64
1, 56270, Note_on_c, 0, 79, 78
1, 56329, Note_on_c, 0, 83, 73
1, 56346, Note_off_c, 0, 79, 60
1, 56352, Control_c, 0, 64, 89
1, 56367, Control_c, 0, 64, 79
1, 56377, Note_off_c, 0, 30, 61
1, 56382, Control_c, 0, 64, 81
1, 56388, Note_off_c, 0, 83, 64
1, 56392, Note_on_c, 0, 40, 97
1, 56396, Note_on_c, 0, 28, 84
1, 56397, Control_c, 0, 64, 99
1, 56402, Note_on_c, 0, 86, 59
1, 56412, Control_c, 0, 64, 127
1, 56421, Note_off_c, 0, 86, 65
1, 56431, Note_on_c, 0, 88, 41
1, 56432, Note_off_c, 0, 88, 127
1, 56444, Note_on_c, 0, 83, 78
1, 56487, Note_off_c, 0, 28, 0
1, 56502, Note_on_c, 0, 91, 88
1, 56502, Note_off_c, 0, 40, 54
1, 56511, Note_off_c, 0, 83, 64
1, 56514, Note_on_c, 0, 28, 48
1, 56570, Note_on_c, 0, 93, 78
1, 56583, Note_off_c, 0, 91, 63
1, 56589, Control_c, 0, 64, 92
1, 56604, Control_c, 0, 64, 61
1, 56619, Control_c, 0, 64, 0
1, 56631, Note_off_c, 0, 93, 62
1, 56632, Note_on_c, 0, 98, 104
1, 56632, Note_off_c, 0, 28, 53
1, 56636, Note_on_c, 0, 38, 99
1, 56641, Note_on_c, 0, 26, 87
1, 56677, Note_on_c, 0, 95, 28
1, 56705, Note_on_c, 0, 93, 95
1, 56723, Note_off_c, 0, 98, 65
1, 56740, Note_off_c, 0, 95, 62
1, 56752, Control_c, 0, 64, 77
1, 56753, Note_on_c, 0, 90, 85
1, 56767, Control_c, 0, 64, 127
1, 56776, Note_off_c, 0, 93, 62
1, 56796, Note_off_c, 0, 26, 60
1, 56818, Note_off_c, 0, 90, 65
1, 56836, Note_on_c, 0, 84, 70
1, 56869, Note_off_c, 0, 84, 64
1, 56901, Note_on_c, 0, 86, 87
1, 56976, Note_off_c, 0, 86, 64
1, 56977, Note_on_c, 0, 81, 66
1, 56995, Note_on_c, 0, 79, 57
1, 56995, Note_on_c, 0, 83, 36
1, 57020, Note_on_c, 0, 78, 74
1, 57022, Note_off_c, 0, 79, 55
1, 57025, Note_off_c, 0, 81, 66
1, 57028, Note_off_c, 0, 83, 52
1, 57051, Note_off_c, 0, 78, 65
1, 57084, Note_on_c, 0, 72, 67
1, 57124, Note_off_c, 0, 72, 44
1, 57162, Note_on_c, 0, 74, 80
1, 57230, Note_on_c, 0, 69, 70
1, 57235, Note_off_c, 0, 74, 62
1, 57243, Note_off_c, 0, 38, 59
1, 57275, Note_on_c, 0, 66, 68
1, 57285, Note_off_c, 0, 69, 62
1, 57316, Note_off_c, 0, 66, 61
1, 57340, Note_on_c, 0, 60, 67
1, 57393, Note_off_c, 0, 60, 65
1, 57419, Note_on_c, 0, 62, 82
1, 57480, Note_on_c, 0, 57, 74
1, 57510, Note_off_c, 0, 62, 59
1, 57524, Note_on_c, 0, 54, 79
1, 57528, Note_off_c, 0, 57, 62
1, 57568, Note_off_c, 0, 54, 59
1, 57587, Note_on_c, 0, 48, 82
1, 57658, Note_on_c, 0, 43, 108
1, 57662, Note_on_c, 0, 31, 91
1, 57662, Note_off_c, 0, 48, 62
1, 57694, Control_c, 0, 64, 106
1, 57709, Control_c, 0, 64, 72
1, 57731, Control_c, 0, 64, 0
1, 57766, Note_on_c, 0, 48, 77
1, 57815, Note_off_c, 0, 48, 59
1, 57840, Note_on_c, 0, 53, 52
1, 57884, Note_on_c, 0, 56, 56
1, 57888, Note_off_c, 0, 53, 66
1, 57916, Note_off_c, 0, 56, 66
1, 57922, Note_on_c, 0, 62, 61
1, 57962, Note_off_c, 0, 62, 65
1, 57998, Note_on_c, 0, 60, 72
1, 58054, Note_off_c, 0, 60, 62
1, 58059, Note_on_c, 0, 65, 68
1, 58122, Note_on_c, 0, 68, 66
1, 58126, Note_off_c, 0, 65, 62
1, 58130, Control_c, 0, 64, 63
1, 58145, Control_c, 0, 64, 90
1, 58160, Control_c, 0, 64, 127
1, 58162, Note_off_c, 0, 68, 66
1, 58175, Note_on_c, 0, 74, 69
1, 58206, Note_off_c, 0, 74, 62
1, 58235, Note_on_c, 0, 72, 80
1, 58300, Note_on_c, 0, 77, 75
1, 58302, Note_off_c, 0, 72, 63
1, 58318, Poly_aftertouch_c, 0, 76, 0
1, 58356, Note_on_c, 0, 80, 73
1, 58365, Note_off_c, 0, 77, 62
1, 58401, Note_off_c, 0, 80, 67
1, 58405, Note_on_c, 0, 86, 73
1, 58431, Note_off_c, 0, 86, 67
1, 58474, Note_on_c, 0, 84, 87
1, 58529, Note_on_c, 0, 89, 80
1, 58544, Note_off_c, 0, 84, 62
1, 58587, Note_on_c, 0, 92, 77
1, 58606, Note_off_c, 0, 89, 62
1, 58637, Note_off_c, 0, 92, 65
1, 58639, Note_on_c, 0, 98, 97
1, 58643, Control_c, 0, 64, 98
1, 58658, Control_c, 0, 64, 73
1, 58673, Control_c, 0, 64, 55
1, 58688, Control_c, 0, 64, 53
1, 58702, Control_c, 0, 64, 65
1, 58703, Note_on_c, 0, 91, 92
1, 58715, Note_off_c, 0, 98, 67
1, 58717, Control_c, 0, 64, 86
1, 58732, Control_c, 0, 64, 127
1, 58764, Note_on_c, 0, 89, 78
1, 58771, Note_off_c, 0, 91, 64
1, 58799, Note_off_c, 0, 89, 60
1, 58818, Note_on_c, 0, 83, 73
1, 58881, Note_off_c, 0, 83, 66
1, 58893, Note_on_c, 0, 86, 82
1, 58952, Note_on_c, 0, 79, 84
1, 58957, Note_off_c, 0, 86, 66
1, 59004, Note_on_c, 0, 77, 70
1, 59012, Note_off_c, 0, 79, 60
1, 59030, Note_off_c, 0, 77, 68
1, 59060, Note_on_c, 0, 71, 76
1, 59117, Note_off_c, 0, 71, 65
1, 59120, Note_off_c, 0, 31, 58
1, 59137, Note_on_c, 0, 74, 81
1, 59196, Note_on_c, 0, 67, 81
1, 59202, Note_off_c, 0, 74, 63
1, 59248, Note_on_c, 0, 65, 76
1, 59254, Note_off_c, 0, 67, 60
1, 59276, Note_off_c, 0, 65, 67
1, 59309, Note_on_c, 0, 59, 72
1, 59348, Control_c, 0, 64, 112
1, 59363, Control_c, 0, 64, 105
1, 59377, Control_c, 0, 64, 114
1, 59388, Note_on_c, 0, 63, 86
1, 59392, Control_c, 0, 64, 127
1, 59395, Note_off_c, 0, 59, 60
1, 59403, Note_off_c, 0, 43, 60
1, 59448, Note_off_c, 0, 63, 65
1, 59451, Note_on_c, 0, 55, 74
1, 59516, Note_on_c, 0, 53, 78
1, 59536, Note_off_c, 0, 55, 63
1, 59572, Note_off_c, 0, 53, 60
1, 59579, Note_on_c, 0, 47, 81
1, 59624, Note_off_c, 0, 47, 64
1, 59666, Note_on_c, 0, 48, 97
1, 59669, Note_on_c, 0, 36, 86
1, 59674, Control_c, 0, 64, 99
1, 59688, Control_c, 0, 64, 70
1, 59703, Control_c, 0, 64, 0
1, 59722, Note_off_c, 0, 48, 65
1, 59795, Note_on_c, 0, 48, 51
1, 59812, Note_on_c, 0, 50, 44
1, 59832, Note_off_c, 0, 48, 54
1, 59845, Note_off_c, 0, 50, 64
1, 59848, Note_on_c, 0, 55, 66
1, 59899, Note_on_c, 0, 48, 48
1, 59911, Note_on_c, 0, 60, 62
1, 59915, Note_off_c, 0, 55, 61
1, 59958, Note_off_c, 0, 60, 65
1, 59977, Note_on_c, 0, 64, 63
1, 60008, Note_off_c, 0, 64, 66
1, 60023, Control_c, 0, 64, 68
1, 60038, Control_c, 0, 64, 87
1, 60040, Note_on_c, 0, 60, 72
1, 60053, Control_c, 0, 64, 127
1, 60099, Note_off_c, 0, 60, 63
1, 60103, Note_on_c, 0, 67, 71
1, 60164, Note_on_c, 0, 72, 69
1, 60165, Note_off_c, 0, 67, 64
1, 60213, Note_off_c, 0, 72, 64
1, 60219, Note_on_c, 0, 76, 67
1, 60237, Note_off_c, 0, 76, 65
1, 60289, Note_on_c, 0, 72, 61
1, 60325, Note_off_c, 0, 72, 54
1, 60331, Note_on_c, 0, 79, 74
1, 60390, Note_on_c, 0, 84, 75
1, 60396, Note_off_c, 0, 79, 62
1, 60408, Poly_aftertouch_c, 0, 74, 0
1, 60445, Note_off_c, 0, 84, 66
1, 60451, Note_on_c, 0, 88, 70
1, 60467, Note_off_c, 0, 88, 69
1, 60509, Note_on_c, 0, 84, 71
1, 60550, Note_on_c, 0, 86, 44
1, 60559, Note_off_c, 0, 84, 62
1, 60561, Note_on_c, 0, 91, 77
1, 60575, Note_off_c, 0, 86, 56
1, 60617, Note_on_c, 0, 96, 81
1, 60630, Note_off_c, 0, 91, 63
1, 60671, Note_on_c, 0, 100, 91
1, 60676, Note_off_c, 0, 96, 66
1, 60734, Note_on_c, 0, 96, 80
1, 60743, Note_on_c, 0, 98, 51
1, 60759, Note_off_c, 0, 100, 63
1, 60767, Note_off_c, 0, 98, 59
1, 60780, Note_on_c, 0, 91, 70
1, 60798, Note_off_c, 0, 96, 66
1, 60812, Note_off_c, 0, 91, 53
1, 60829, Note_on_c, 0, 89, 14
1, 60830, Note_off_c, 0, 89, 127
1, 60861, Note_on_c, 0, 84, 74
1, 60908, Note_off_c, 0, 84, 55
1, 60928, Note_on_c, 0, 88, 90
1, 60977, Note_on_c, 0, 84, 75
1, 60992, Note_off_c, 0, 88, 64
1, 61044, Note_off_c, 0, 84, 64
1, 61053, Note_on_c, 0, 79, 51
1, 61076, Note_off_c, 0, 79, 60
1, 61099, Note_on_c, 0, 72, 68
1, 61159, Note_off_c, 0, 72, 61
1, 61176, Note_on_c, 0, 76, 81
1, 61223, Note_on_c, 0, 72, 72
1, 61233, Note_off_c, 0, 48, 52
1, 61234, Note_off_c, 0, 76, 60
1, 61286, Note_on_c, 0, 67, 68
1, 61291, Note_off_c, 0, 72, 64
1, 61315, Note_off_c, 0, 67, 66
1, 61318, Note_off_c, 0, 36, 47
1, 61348, Note_on_c, 0, 60, 69
1, 61408, Note_off_c, 0, 60, 64
1, 61430, Note_on_c, 0, 64, 77
1, 61481, Note_on_c, 0, 60, 69
1, 61504, Note_off_c, 0, 64, 59
1, 61531, Note_on_c, 0, 55, 70
1, 61546, Note_off_c, 0, 60, 65
1, 61571, Note_off_c, 0, 55, 60
1, 61606, Note_on_c, 0, 48, 76
1, 61664, Note_off_c, 0, 48, 61
1, 61683, Note_on_c, 0, 45, 88
1, 61687, Note_on_c, 0, 33, 80
1, 61713, Control_c, 0, 64, 122
1, 61728, Control_c, 0, 64, 82
1, 61743, Control_c, 0, 64, 47
1, 61758, Control_c, 0, 64, 0
1, 61761, Note_on_c, 0, 48, 73
1, 61794, Note_off_c, 0, 48, 64
1, 61814, Note_on_c, 0, 53, 60
1, 61874, Note_off_c, 0, 53, 66
1, 61883, Note_on_c, 0, 60, 62
1, 61906, Control_c, 0, 64, 63
1, 61920, Control_c, 0, 64, 73
1, 61935, Control_c, 0, 64, 83
1, 61944, Note_off_c, 0, 60, 66
1, 61950, Control_c, 0, 64, 101
1, 61953, Note_on_c, 0, 65, 62
1, 61964, Control_c, 0, 64, 127
1, 61981, Note_off_c, 0, 65, 65
1, 62008, Note_on_c, 0, 60, 66
1, 62065, Note_on_c, 0, 65, 69
1, 62067, Note_off_c, 0, 60, 65
1, 62128, Note_off_c, 0, 65, 62
1, 62142, Note_on_c, 0, 72, 66
1, 62197, Note_off_c, 0, 72, 65
1, 62217, Note_on_c, 0, 77, 65
1, 62242, Note_off_c, 0, 77, 67
1, 62274, Note_on_c, 0, 72, 76
1, 62324, Note_on_c, 0, 77, 70
1, 62328, Note_off_c, 0, 72, 62
1, 62385, Note_off_c, 0, 77, 62
1, 62395, Note_on_c, 0, 84, 69
1, 62443, Note_off_c, 0, 84, 66
1, 62465, Note_on_c, 0, 89, 52
1, 62489, Note_off_c, 0, 89, 57
1, 62497, Note_on_c, 0, 84, 77
1, 62551, Note_on_c, 0, 89, 81
1, 62557, Note_off_c, 0, 84, 65
1, 62617, Note_off_c, 0, 89, 60
1, 62620, Note_on_c, 0, 96, 80
1, 62640, Control_c, 0, 64, 111
1, 62655, Control_c, 0, 64, 83
1, 62668, Note_on_c, 0, 100, 85
1, 62669, Control_c, 0, 64, 65
1, 62676, Note_off_c, 0, 96, 66
1, 62684, Control_c, 0, 64, 53
1, 62699, Control_c, 0, 64, 59
1, 62713, Control_c, 0, 64, 72
1, 62721, Note_on_c, 0, 96, 77
1, 62728, Control_c, 0, 64, 96
1, 62740, Note_off_c, 0, 100, 64
1, 62743, Control_c, 0, 64, 127
1, 62777, Note_on_c, 0, 90, 78
1, 62787, Note_off_c, 0, 96, 66
1, 62829, Note_off_c, 0, 90, 66
1, 62854, Note_on_c, 0, 84, 71
1, 62879, Note_off_c, 0, 84, 68
1, 62917, Note_on_c, 0, 88, 88
1, 62973, Note_on_c, 0, 84, 77
1, 62991, Note_off_c, 0, 88, 64
1, 63038, Note_on_c, 0, 78, 66
1, 63039, Note_off_c, 0, 84, 64
1, 63066, Note_off_c, 0, 78, 68
1, 63099, Note_on_c, 0, 72, 70
1, 63128, Note_off_c, 0, 45, 61
1, 63131, Note_off_c, 0, 72, 60
1, 63179, Note_on_c, 0, 75, 78
1, 63231, Note_on_c, 0, 72, 73
1, 63251, Note_off_c, 0, 75, 63
1, 63293, Note_on_c, 0, 66, 72
1, 63296, Note_off_c, 0, 72, 62
1, 63326, Note_off_c, 0, 66, 63
1, 63358, Note_on_c, 0, 60, 71
1, 63395, Note_off_c, 0, 60, 63
1, 63403, Control_c, 0, 64, 108
1, 63412, Note_on_c, 0, 44, 90
1, 63418, Control_c, 0, 64, 96
1, 63421, Note_on_c, 0, 32, 75
1, 63433, Control_c, 0, 64, 94
1, 63439, Note_on_c, 0, 63, 79
1, 63440, Note_off_c, 0, 33, 51
1, 63448, Control_c, 0, 64, 98
1, 63463, Control_c, 0, 64, 127
1, 63493, Note_on_c, 0, 60, 72
1, 63506, Note_off_c, 0, 32, 53
1, 63522, Note_off_c, 0, 63, 64
1, 63524, Note_off_c, 0, 44, 57
1, 63548, Note_on_c, 0, 54, 74
1, 63571, Note_off_c, 0, 60, 63
1, 63612, Note_off_c, 0, 54, 57
1, 63620, Note_on_c, 0, 48, 76
1, 63679, Note_off_c, 0, 48, 63
1, 63695, Note_on_c, 0, 43, 104
1, 63699, Control_c, 0, 64, 109
1, 63701, Note_on_c, 0, 31, 82
1, 63722, Control_c, 0, 64, 75
1, 63737, Control_c, 0, 64, 0
1, 63779, Note_on_c, 0, 48, 75
1, 63815, Note_off_c, 0, 48, 64
1, 63837, Note_on_c, 0, 55, 60
1, 63897, Note_on_c, 0, 60, 67
1, 63898, Note_off_c, 0, 55, 61
1, 63957, Note_on_c, 0, 62, 63
1, 63957, Note_off_c, 0, 60, 65
1, 63980, Note_off_c, 0, 62, 59
1, 64026, Note_on_c, 0, 60, 67
1, 64089, Note_off_c, 0, 60, 64
1, 64092, Note_on_c, 0, 67, 70
1, 64093, Control_c, 0, 64, 56
1, 64107, Control_c, 0, 64, 78
1, 64122, Control_c, 0, 64, 98
1, 64137, Control_c, 0, 64, 127
1, 64157, Note_on_c, 0, 72, 76
1, 64163, Note_off_c, 0, 67, 64
1, 64213, Note_off_c, 0, 72, 64
1, 64228, Note_on_c, 0, 74, 51
1, 64251, Note_off_c, 0, 74, 63
1, 64274, Note_on_c, 0, 72, 70
1, 64334, Note_on_c, 0, 79, 75
1, 64338, Note_off_c, 0, 72, 64
1, 64339, Poly_aftertouch_c, 0, 76, 0
1, 64390, Note_on_c, 0, 84, 81
1, 64400, Note_off_c, 0, 79, 62
1, 64443, Note_off_c, 0, 84, 65
1, 64479, Note_on_c, 0, 86, 35
1, 64508, Note_on_c, 0, 84, 71
1, 64508, Note_off_c, 0, 86, 58
1, 64557, Note_on_c, 0, 91, 80
1, 64563, Note_off_c, 0, 84, 66
1, 64619, Note_on_c, 0, 96, 75
1, 64631, Note_off_c, 0, 91, 63
1, 64661, Control_c, 0, 64, 94
1, 64674, Note_on_c, 0, 98, 97
1, 64676, Control_c, 0, 64, 74
1, 64684, Note_off_c, 0, 96, 68
1, 64691, Control_c, 0, 64, 62
1, 64706, Control_c, 0, 64, 61
1, 64721, Control_c, 0, 64, 71
1, 64736, Control_c, 0, 64, 91
1, 64741, Note_on_c, 0, 95, 87
1, 64751, Control_c, 0, 64, 127
1, 64753, Note_off_c, 0, 98, 65
1, 64795, Note_on_c, 0, 91, 76
1, 64806, Note_off_c, 0, 95, 63
1, 64822, Note_off_c, 0, 91, 65
1, 64857, Note_on_c, 0, 83, 70
1, 64929, Note_off_c, 0, 83, 64
1, 64935, Note_on_c, 0, 86, 75
1, 64936, Note_on_c, 0, 88, 68
1, 64960, Note_off_c, 0, 88, 67
1, 64978, Note_on_c, 0, 83, 70
1, 64998, Note_off_c, 0, 86, 64
1, 65034, Note_on_c, 0, 79, 70
1, 65052, Note_off_c, 0, 83, 63
1, 65059, Note_off_c, 0, 79, 67
1, 65102, Note_on_c, 0, 71, 71
1, 65169, Note_off_c, 0, 71, 63
1, 65177, Note_on_c, 0, 74, 79
1, 65240, Note_on_c, 0, 71, 68
1, 65250, Note_off_c, 0, 74, 62
1, 65297, Note_on_c, 0, 67, 65
1, 65304, Note_off_c, 0, 71, 65
1, 65315, Note_off_c, 0, 43, 61
1, 65329, Note_off_c, 0, 67, 65
1, 65343, Note_off_c, 0, 31, 59
1, 65359, Note_on_c, 0, 59, 72
1, 65418, Note_off_c, 0, 59, 60
1, 65441, Note_on_c, 0, 62, 73
1, 65504, Note_on_c, 0, 59, 70
1, 65511, Note_off_c, 0, 62, 60
1, 65555, Note_on_c, 0, 55, 53
1, 65558, Note_off_c, 0, 59, 61
1, 65582, Note_off_c, 0, 55, 56
1, 65627, Note_on_c, 0, 47, 73
1, 65673, Note_off_c, 0, 47, 59
1, 65733, Note_on_c, 0, 42, 80
1, 65739, Note_on_c, 0, 30, 74
1, 65752, Control_c, 0, 64, 81
1, 65767, Control_c, 0, 64, 50
1, 65782, Control_c, 0, 64, 0
1, 65796, Note_on_c, 0, 48, 66
1, 65856, Note_off_c, 0, 48, 61
1, 65884, Note_on_c, 0, 57, 66
1, 65948, Note_on_c, 0, 60, 54
1, 65948, Note_off_c, 0, 57, 63
1, 65996, Note_off_c, 0, 60, 66
1, 66008, Note_on_c, 0, 62, 54
1, 66032, Note_off_c, 0, 62, 57
1, 66061, Note_on_c, 0, 60, 73
1, 66128, Note_off_c, 0, 60, 63
1, 66137, Note_on_c, 0, 69, 72
1, 66160, Control_c, 0, 64, 58
1, 66175, Control_c, 0, 64, 79
1, 66190, Control_c, 0, 64, 103
1, 66198, Note_on_c, 0, 72, 71
1, 66204, Control_c, 0, 64, 127
1, 66208, Note_off_c, 0, 69, 65
1, 66249, Note_off_c, 0, 72, 63
1, 66255, Note_on_c, 0, 74, 63
1, 66274, Note_off_c, 0, 74, 64
1, 66302, Note_on_c, 0, 72, 75
1, 66370, Note_off_c, 0, 72, 60
1, 66371, Note_on_c, 0, 81, 76
1, 66391, Note_off_c, 0, 42, 49
1, 66426, Note_on_c, 0, 84, 74
1, 66441, Note_off_c, 0, 81, 65
1, 66479, Note_off_c, 0, 30, 34
1, 66484, Note_off_c, 0, 84, 66
1, 66490, Note_on_c, 0, 86, 58
1, 66509, Note_off_c, 0, 86, 64
1, 66529, Note_on_c, 0, 84, 73
1, 66582, Note_off_c, 0, 84, 63
1, 66599, Note_on_c, 0, 93, 76
1, 66643, Note_on_c, 0, 96, 72
1, 66690, Note_off_c, 0, 93, 63
1, 66710, Note_on_c, 0, 41, 95
1, 66716, Control_c, 0, 64, 89
1, 66717, Note_on_c, 0, 99, 97
1, 66718, Note_on_c, 0, 29, 82
1, 66731, Control_c, 0, 64, 62
1, 66743, Note_off_c, 0, 96, 68
1, 66746, Control_c, 0, 64, 0
1, 66775, Control_c, 0, 64, 41
1, 66789, Note_on_c, 0, 96, 66
1, 66790, Control_c, 0, 64, 70
1, 66793, Note_on_c, 0, 94, 81
1, 66804, Note_off_c, 0, 99, 64
1, 66805, Control_c, 0, 64, 127
1, 66817, Note_off_c, 0, 94, 63
1, 66834, Note_on_c, 0, 93, 35
1, 66846, Note_off_c, 0, 96, 62
1, 66866, Note_off_c, 0, 93, 52
1, 66877, Note_on_c, 0, 84, 78
1, 66927, Note_off_c, 0, 84, 64
1, 66972, Note_on_c, 0, 87, 83
1, 67023, Note_on_c, 0, 84, 79
1, 67043, Note_off_c, 0, 87, 66
1, 67073, Note_on_c, 0, 81, 60
1, 67094, Note_off_c, 0, 81, 67
1, 67095, Note_off_c, 0, 84, 61
1, 67111, Note_on_c, 0, 80, 22
1, 67136, Note_on_c, 0, 72, 77
1, 67151, Note_off_c, 0, 80, 31
1, 67181, Note_off_c, 0, 72, 62
1, 67206, Control_c, 0, 64, 105
1, 67221, Control_c, 0, 64, 96
1, 67222, Note_on_c, 0, 75, 80
1, 67236, Control_c, 0, 64, 99
1, 67250, Control_c, 0, 64, 127
1, 67269, Note_on_c, 0, 71, 79
1, 67302, Note_off_c, 0, 75, 62
1, 67336, Note_on_c, 0, 69, 45
1, 67338, Note_off_c, 0, 71, 64
1, 67362, Note_off_c, 0, 69, 58
1, 67398, Note_on_c, 0, 59, 79
1, 67452, Note_off_c, 0, 59, 60
1, 67457, Note_off_c, 0, 41, 57
1, 67485, Note_on_c, 0, 63, 84
1, 67503, Note_off_c, 0, 29, 52
1, 67533, Note_on_c, 0, 59, 78
1, 67572, Note_off_c, 0, 63, 62
1, 67600, Note_on_c, 0, 57, 54
1, 67620, Note_off_c, 0, 59, 61
1, 67627, Note_off_c, 0, 57, 57
1, 67670, Note_on_c, 0, 47, 86
1, 67737, Poly_aftertouch_c, 0, 58, 0
1, 67767, Note_off_c, 0, 47, 60
1, 67774, Note_on_c, 0, 40, 98
1, 67777, Note_on_c, 0, 28, 89
1, 67820, Control_c, 0, 64, 94
1, 67835, Control_c, 0, 64, 63
1, 67849, Control_c, 0, 64, 0
1, 67883, Poly_aftertouch_c, 0, 58, 127
1, 67891, Note_on_c, 0, 47, 67
1, 67913, Poly_aftertouch_c, 0, 58, 0
1, 67931, Note_off_c, 0, 47, 63
1, 67959, Note_on_c, 0, 56, 74
1, 68015, Note_off_c, 0, 56, 61
1, 68021, Note_on_c, 0, 59, 63
1, 68056, Note_off_c, 0, 59, 64
1, 68072, Note_on_c, 0, 64, 64
1, 68102, Control_c, 0, 64, 71
1, 68109, Note_off_c, 0, 64, 65
1, 68117, Control_c, 0, 64, 102
1, 68131, Control_c, 0, 64, 127
1, 68141, Note_on_c, 0, 59, 80
1, 68196, Note_off_c, 0, 59, 60
1, 68212, Note_off_c, 0, 28, 57
1, 68230, Note_on_c, 0, 68, 71
1, 68261, Note_off_c, 0, 68, 66
1, 68281, Note_on_c, 0, 71, 62
1, 68319, Note_off_c, 0, 71, 65
1, 68330, Note_on_c, 0, 76, 68
1, 68361, Note_off_c, 0, 76, 66
1, 68396, Note_on_c, 0, 71, 80
1, 68452, Note_off_c, 0, 71, 57
1, 68469, Note_on_c, 0, 80, 70
1, 68518, Note_off_c, 0, 80, 63
1, 68523, Note_on_c, 0, 83, 62
1, 68551, Note_off_c, 0, 83, 66
1, 68564, Note_on_c, 0, 88, 70
1, 68590, Note_off_c, 0, 88, 70
1, 68618, Note_on_c, 0, 83, 77
1, 68667, Note_off_c, 0, 83, 60
1, 68689, Note_on_c, 0, 92, 79
1, 68751, Note_on_c, 0, 95, 77
1, 68754, Note_on_c, 0, 94, 21
1, 68757, Note_off_c, 0, 92, 63
1, 68790, Note_off_c, 0, 95, 64
1, 68796, Note_on_c, 0, 52, 95
1, 68797, Note_off_c, 0, 94, 49
1, 68801, Note_on_c, 0, 100, 90
1, 68874, Note_off_c, 0, 100, 65
1, 68876, Note_on_c, 0, 95, 87
1, 68882, Note_on_c, 0, 94, 70
1, 68901, Note_on_c, 0, 92, 80
1, 68934, Note_off_c, 0, 95, 65
1, 68940, Note_off_c, 0, 94, 56
1, 68963, Note_off_c, 0, 92, 63
1, 68995, Note_on_c, 0, 83, 74
1, 69046, Note_off_c, 0, 83, 62
1, 69065, Note_on_c, 0, 88, 90
1, 69122, Note_off_c, 0, 52, 52
1, 69126, Note_on_c, 0, 83, 79
1, 69129, Note_off_c, 0, 88, 66
1, 69178, Note_on_c, 0, 80, 66
1, 69188, Note_off_c, 0, 83, 62
1, 69205, Note_off_c, 0, 80, 68
1, 69231, Note_on_c, 0, 71, 72
1, 69311, Note_off_c, 0, 71, 63
1, 69314, Note_on_c, 0, 76, 82
1, 69374, Note_off_c, 0, 76, 64
1, 69378, Note_on_c, 0, 71, 70
1, 69423, Note_on_c, 0, 68, 63
1, 69431, Note_off_c, 0, 71, 62
1, 69453, Note_off_c, 0, 68, 67
1, 69501, Note_on_c, 0, 59, 64
1, 69554, Note_off_c, 0, 40, 57
1, 69575, Note_off_c, 0, 59, 62
1, 69579, Note_on_c, 0, 64, 75
1, 69646, Note_on_c, 0, 59, 60
1, 69646, Note_off_c, 0, 64, 63
1, 69690, Note_off_c, 0, 59, 62
1, 69705, Note_on_c, 0, 56, 66
1, 69734, Note_off_c, 0, 56, 65
1, 69799, Note_on_c, 0, 47, 54
1, 69829, Note_off_c, 0, 47, 54
1, 69958, Note_on_c, 0, 38, 80
1, 69993, Control_c, 0, 64, 95
1, 70008, Control_c, 0, 64, 69
1, 70023, Control_c, 0, 64, 0
1, 70077, Note_on_c, 0, 50, 50
1, 70113, Note_off_c, 0, 50, 55
1, 70141, Note_on_c, 0, 57, 59
1, 70187, Note_off_c, 0, 57, 65
1, 70209, Note_on_c, 0, 60, 46
1, 70234, Note_off_c, 0, 60, 59
1, 70253, Note_on_c, 0, 65, 52
1, 70286, Note_off_c, 0, 65, 64
1, 70311, Note_on_c, 0, 62, 69
1, 70375, Note_off_c, 0, 62, 62
1, 70381, Note_on_c, 0, 69, 64
1, 70423, Control_c, 0, 64, 19
1, 70436, Note_off_c, 0, 69, 65
1, 70438, Control_c, 0, 64, 57
1, 70451, Note_on_c, 0, 72, 69
1, 70461, Control_c, 0, 64, 64
1, 70475, Control_c, 0, 64, 72
1, 70483, Note_off_c, 0, 72, 65
1, 70490, Control_c, 0, 64, 87
1, 70505, Control_c, 0, 64, 127
1, 70509, Note_on_c, 0, 77, 54
1, 70530, Note_off_c, 0, 77, 61
1, 70554, Note_on_c, 0, 74, 70
1, 70611, Note_off_c, 0, 74, 64
1, 70615, Note_on_c, 0, 81, 75
1, 70674, Note_on_c, 0, 84, 75
1, 70675, Note_off_c, 0, 81, 65
1, 70714, Note_off_c, 0, 84, 66
1, 70723, Note_on_c, 0, 89, 70
1, 70748, Note_off_c, 0, 89, 64
1, 70766, Note_on_c, 0, 86, 71
1, 70832, Note_on_c, 0, 93, 77
1, 70834, Note_off_c, 0, 86, 65
1, 70887, Note_on_c, 0, 96, 84
1, 70901, Note_off_c, 0, 93, 62
1, 70936, Note_on_c, 0, 43, 99
1, 70942, Note_on_c, 0, 101, 106
1, 70942, Note_on_c, 0, 31, 82
1, 70949, Control_c, 0, 64, 93
1, 70951, Note_off_c, 0, 38, 59
1, 70951, Note_off_c, 0, 96, 66
1, 70964, Control_c, 0, 64, 63
1, 70979, Control_c, 0, 64, 0
1, 71004, Note_on_c, 0, 95, 97
1, 71010, Note_off_c, 0, 101, 62
1, 71052, Control_c, 0, 64, 50
1, 71064, Note_on_c, 0, 91, 81
1, 71067, Control_c, 0, 64, 74
1, 71082, Note_off_c, 0, 95, 66
1, 71082, Control_c, 0, 64, 110
1, 71097, Control_c, 0, 64, 127
1, 71107, Note_off_c, 0, 91, 63
1, 71122, Note_on_c, 0, 86, 84
1, 71184, Note_off_c, 0, 86, 67
1, 71216, Note_on_c, 0, 89, 85
1, 71225, Note_on_c, 0, 91, 57
1, 71245, Note_off_c, 0, 91, 61
1, 71271, Note_on_c, 0, 83, 89
1, 71281, Note_off_c, 0, 89, 63
1, 71322, Note_on_c, 0, 79, 69
1, 71335, Note_off_c, 0, 83, 62
1, 71371, Note_off_c, 0, 79, 61
1, 71380, Note_on_c, 0, 74, 84
1, 71440, Note_off_c, 0, 74, 67
1, 71467, Note_on_c, 0, 77, 76
1, 71489, Note_on_c, 0, 76, 61
1, 71523, Note_off_c, 0, 77, 65
1, 71525, Note_on_c, 0, 71, 74
1, 71551, Note_on_c, 0, 69, 52
1, 71567, Note_off_c, 0, 76, 31
1, 71577, Note_off_c, 0, 69, 36
1, 71581, Note_off_c, 0, 71, 64
1, 71592, Note_on_c, 0, 65, 57
1, 71593, Note_on_c, 0, 67, 47
1, 71621, Note_off_c, 0, 67, 55
1, 71623, Note_off_c, 0, 65, 64
1, 71651, Note_on_c, 0, 60, 72
1, 71658, Note_on_c, 0, 62, 47
1, 71666, Note_off_c, 0, 43, 57
1, 71689, Note_off_c, 0, 62, 54
1, 71696, Note_off_c, 0, 60, 64
1, 71715, Note_on_c, 0, 65, 79
1, 71791, Note_on_c, 0, 59, 73
1, 71793, Note_off_c, 0, 65, 62
1, 71832, Note_on_c, 0, 55, 75
1, 71843, Note_off_c, 0, 59, 62
1, 71872, Note_off_c, 0, 55, 54
1, 71895, Note_on_c, 0, 50, 82
1, 71952, Note_off_c, 0, 50, 66
1, 71965, Note_on_c, 0, 36, 93
1, 71979, Note_off_c, 0, 31, 61
1, 71988, Control_c, 0, 64, 100
1, 72003, Control_c, 0, 64, 68
1, 72018, Control_c, 0, 64, 0
1, 72070, Note_on_c, 0, 48, 63
1, 72094, Note_on_c, 0, 50, 49
1, 72104, Note_off_c, 0, 48, 65
1, 72124, Note_off_c, 0, 50, 60
1, 72125, Note_on_c, 0, 55, 65
1, 72172, Note_on_c, 0, 60, 60
1, 72177, Note_off_c, 0, 55, 63
1, 72231, Note_off_c, 0, 60, 64
1, 72236, Note_on_c, 0, 64, 56
1, 72240, Control_c, 0, 64, 41
1, 72254, Control_c, 0, 64, 69
1, 72265, Note_off_c, 0, 64, 66
1, 72269, Control_c, 0, 64, 80
1, 72284, Control_c, 0, 64, 98
1, 72292, Note_on_c, 0, 60, 74
1, 72298, Control_c, 0, 64, 127
1, 72352, Note_off_c, 0, 60, 63
1, 72361, Note_on_c, 0, 67, 72
1, 72423, Note_off_c, 0, 67, 64
1, 72433, Note_on_c, 0, 72, 61
1, 72465, Note_off_c, 0, 72, 67
1, 72484, Note_on_c, 0, 76, 55
1, 72500, Poly_aftertouch_c, 0, 71, 127
1, 72507, Note_off_c, 0, 76, 62
1, 72525, Poly_aftertouch_c, 0, 71, 0
1, 72534, Note_on_c, 0, 72, 74
1, 72558, Note_off_c, 0, 72, 63
1, 72600, Note_on_c, 0, 82, 70
1, 72646, Note_off_c, 0, 82, 62
1, 72663, Note_on_c, 0, 84, 71
1, 72704, Note_off_c, 0, 84, 63
1, 72718, Note_on_c, 0, 91, 86
1, 72778, Note_on_c, 0, 84, 82
1, 72781, Note_off_c, 0, 91, 64
1, 72831, Note_on_c, 0, 82, 68
1, 72832, Note_off_c, 0, 84, 61
1, 72878, Note_on_c, 0, 76, 77
1, 72895, Note_off_c, 0, 82, 51
1, 72919, Note_off_c, 0, 76, 63
1, 72944, Control_c, 0, 64, 94
1, 72953, Note_on_c, 0, 48, 91
1, 72959, Control_c, 0, 64, 70
1, 72964, Note_on_c, 0, 90, 92
1, 72974, Control_c, 0, 64, 32
1, 72989, Control_c, 0, 64, 0
1, 73003, Control_c, 0, 64, 52
1, 73009, Note_on_c, 0, 84, 65
1, 73018, Control_c, 0, 64, 74
1, 73025, Note_off_c, 0, 90, 68
1, 73033, Control_c, 0, 64, 116
1, 73047, Control_c, 0, 64, 127
1, 73056, Note_on_c, 0, 81, 64
1, 73084, Note_off_c, 0, 81, 67
1, 73088, Note_off_c, 0, 84, 65
1, 73118, Note_on_c, 0, 75, 73
1, 73178, Note_off_c, 0, 75, 57
1, 73213, Note_on_c, 0, 78, 84
1, 73269, Note_on_c, 0, 72, 73
1, 73276, Note_on_c, 0, 75, 20
1, 73290, Note_off_c, 0, 78, 62
1, 73312, Note_on_c, 0, 69, 65
1, 73312, Note_off_c, 0, 75, 53
1, 73355, Note_off_c, 0, 72, 62
1, 73380, Note_off_c, 0, 69, 62
1, 73382, Note_on_c, 0, 63, 78
1, 73405, Note_off_c, 0, 63, 70
1, 73433, Control_c, 0, 64, 109
1, 73455, Control_c, 0, 64, 79
1, 73470, Control_c, 0, 64, 64
1, 73475, Note_on_c, 0, 77, 81
1, 73485, Control_c, 0, 64, 57
1, 73499, Control_c, 0, 64, 64
1, 73514, Control_c, 0, 64, 76
1, 73529, Control_c, 0, 64, 107
1, 73530, Note_on_c, 0, 71, 82
1, 73539, Note_off_c, 0, 77, 64
1, 73544, Control_c, 0, 64, 127
1, 73581, Note_on_c, 0, 68, 73
1, 73598, Note_off_c, 0, 71, 64
1, 73629, Note_off_c, 0, 68, 60
1, 73646, Note_on_c, 0, 62, 67
1, 73698, Note_off_c, 0, 62, 63
1, 73702, Note_off_c, 0, 48, 58
1, 73723, Note_on_c, 0, 65, 85
1, 73765, Note_off_c, 0, 36, 54
1, 73787, Note_on_c, 0, 59, 81
1, 73791, Note_off_c, 0, 65, 62
1, 73837, Note_on_c, 0, 56, 73
1, 73839, Note_off_c, 0, 59, 63
1, 73879, Note_off_c, 0, 56, 60
1, 73899, Note_on_c, 0, 50, 83
1, 73959, Note_off_c, 0, 50, 65
1, 73982, Note_on_c, 0, 36, 90
1, 74018, Control_c, 0, 64, 90
1, 74033, Control_c, 0, 64, 57
1, 74048, Control_c, 0, 64, 0
1, 74074, Note_on_c, 0, 48, 73
1, 74113, Note_off_c, 0, 48, 63
1, 74131, Note_on_c, 0, 55, 65
1, 74195, Note_off_c, 0, 55, 62
1, 74200, Note_on_c, 0, 60, 60
1, 74237, Note_on_c, 0, 64, 71
1, 74241, Note_off_c, 0, 60, 67
1, 74280, Note_off_c, 0, 64, 62
1, 74311, Note_on_c, 0, 60, 78
1, 74337, Control_c, 0, 64, 18
1, 74352, Control_c, 0, 64, 71
1, 74367, Control_c, 0, 64, 93
1, 74369, Note_off_c, 0, 60, 65
1, 74378, Note_on_c, 0, 67, 73
1, 74382, Control_c, 0, 64, 127
1, 74433, Note_on_c, 0, 72, 71
1, 74439, Note_off_c, 0, 67, 64
1, 74486, Note_on_c, 0, 76, 73
1, 74487, Note_off_c, 0, 72, 65
1, 74512, Note_off_c, 0, 76, 67
1, 74553, Note_on_c, 0, 72, 77
1, 74600, Note_off_c, 0, 72, 45
1, 74608, Note_on_c, 0, 79, 73
1, 74670, Note_on_c, 0, 84, 74
1, 74679, Note_off_c, 0, 79, 61
1, 74716, Note_on_c, 0, 88, 97
1, 74722, Note_off_c, 0, 84, 64
1, 74767, Note_on_c, 0, 84, 76
1, 74788, Note_off_c, 0, 88, 64
1, 74798, Note_on_c, 0, 79, 76
1, 74846, Note_off_c, 0, 84, 64
1, 74850, Note_off_c, 0, 79, 57
1, 74886, Note_on_c, 0, 72, 75
1, 74909, Note_off_c, 0, 72, 66
1, 74966, Note_off_c, 0, 36, 59
1, 74969, Control_c, 0, 64, 85
1, 74972, Note_on_c, 0, 43, 98
1, 74977, Note_on_c, 0, 31, 81
1, 74983, Control_c, 0, 64, 54
1, 74984, Note_on_c, 0, 87, 92
1, 74998, Control_c, 0, 64, 0
1, 75021, Note_on_c, 0, 84, 18
1, 75027, Control_c, 0, 64, 43
1, 75032, Note_on_c, 0, 81, 58
1, 75042, Control_c, 0, 64, 71
1, 75050, Note_off_c, 0, 87, 65
1, 75057, Control_c, 0, 64, 104
1, 75067, Note_off_c, 0, 84, 41
1, 75072, Control_c, 0, 64, 127
1, 75098, Note_on_c, 0, 78, 65
1, 75100, Note_off_c, 0, 81, 66
1, 75129, Note_off_c, 0, 78, 66
1, 75151, Note_on_c, 0, 72, 70
1, 75194, Note_off_c, 0, 72, 62
1, 75233, Note_on_c, 0, 75, 79
1, 75279, Note_on_c, 0, 69, 79
1, 75303, Note_off_c, 0, 75, 63
1, 75357, Note_on_c, 0, 66, 65
1, 75363, Note_off_c, 0, 69, 65
1, 75395, Note_off_c, 0, 66, 59
1, 75420, Note_on_c, 0, 60, 72
1, 75443, Control_c, 0, 64, 117
1, 75456, Note_off_c, 0, 60, 64
1, 75458, Control_c, 0, 64, 78
1, 75473, Control_c, 0, 64, 55
1, 75488, Control_c, 0, 64, 0
1, 75488, Note_on_c, 0, 74, 86
1, 75517, Control_c, 0, 64, 57
1, 75532, Control_c, 0, 64, 76
1, 75547, Control_c, 0, 64, 127
1, 75548, Note_on_c, 0, 68, 81
1, 75563, Note_off_c, 0, 74, 64
1, 75587, Note_on_c, 0, 65, 67
1, 75620, Note_off_c, 0, 68, 64
1, 75625, Note_off_c, 0, 65, 61
1, 75659, Note_on_c, 0, 59, 71
1, 75715, Note_off_c, 0, 59, 63
1, 75729, Note_off_c, 0, 43, 60
1, 75738, Note_off_c, 0, 31, 55
1, 75743, Note_on_c, 0, 62, 80
1, 75803, Note_on_c, 0, 56, 83
1, 75807, Note_off_c, 0, 62, 63
1, 75856, Note_on_c, 0, 53, 72
1, 75873, Note_off_c, 0, 56, 62
1, 75907, Note_off_c, 0, 53, 64
1, 75918, Note_on_c, 0, 47, 79
1, 75974, Note_off_c, 0, 47, 65
1, 76018, Note_on_c, 0, 43, 94
1, 76020, Note_on_c, 0, 31, 85
1, 76043, Control_c, 0, 64, 81
1, 76058, Control_c, 0, 64, 0
1, 76124, Note_on_c, 0, 46, 69
1, 76156, Note_off_c, 0, 46, 64
1, 76185, Note_on_c, 0, 52, 66
1, 76221, Control_c, 0, 64, 57
1, 76235, Note_off_c, 0, 52, 62
1, 76236, Note_on_c, 0, 55, 56
1, 76236, Control_c, 0, 64, 76
1, 76251, Control_c, 0, 64, 95
1, 76265, Control_c, 0, 64, 127
1, 76281, Note_off_c, 0, 55, 62
1, 76298, Note_on_c, 0, 61, 67
1, 76331, Note_off_c, 0, 61, 63
1, 76375, Note_on_c, 0, 58, 76
1, 76424, Note_off_c, 0, 58, 61
1, 76471, Note_on_c, 0, 64, 62
1, 76522, Note_on_c, 0, 67, 54
1, 76527, Note_off_c, 0, 64, 65
1, 76555, Note_off_c, 0, 67, 65
1, 76558, Poly_aftertouch_c, 0, 65, 0
1, 76574, Note_on_c, 0, 73, 62
1, 76594, Note_off_c, 0, 73, 63
1, 76633, Poly_aftertouch_c, 0, 68, 0
1, 76648, Note_on_c, 0, 70, 68
1, 76676, Note_off_c, 0, 70, 67
1, 76710, Note_on_c, 0, 76, 66
1, 76769, Note_on_c, 0, 79, 51
1, 76770, Note_off_c, 0, 76, 63
1, 76792, Note_off_c, 0, 79, 61
1, 76796, Note_on_c, 0, 80, 40
1, 76802, Poly_aftertouch_c, 0, 77, 0
1, 76811, Note_on_c, 0, 85, 64
1, 76827, Note_off_c, 0, 80, 33
1, 76842, Note_off_c, 0, 85, 66
1, 76868, Note_on_c, 0, 82, 75
1, 76922, Note_on_c, 0, 88, 79
1, 76922, Note_off_c, 0, 82, 62
1, 76982, Note_on_c, 0, 91, 79
1, 76997, Note_off_c, 0, 88, 65
1, 77014, Control_c, 0, 64, 102
1, 77029, Control_c, 0, 64, 72
1, 77037, Note_on_c, 0, 97, 98
1, 77038, Note_off_c, 0, 91, 65
1, 77043, Control_c, 0, 64, 0
1, 77087, Control_c, 0, 64, 40
1, 77100, Note_off_c, 0, 97, 66
1, 77102, Control_c, 0, 64, 71
1, 77106, Note_on_c, 0, 90, 89
1, 77117, Control_c, 0, 64, 103
1, 77132, Control_c, 0, 64, 127
1, 77157, Note_on_c, 0, 87, 76
1, 77192, Note_off_c, 0, 90, 64
1, 77211, Note_off_c, 0, 87, 60
1, 77225, Note_on_c, 0, 81, 71
1, 77287, Note_off_c, 0, 81, 63
1, 77306, Note_on_c, 0, 85, 83
1, 77364, Note_on_c, 0, 78, 85
1, 77378, Note_off_c, 0, 85, 64
1, 77428, Note_off_c, 0, 78, 63
1, 77428, Note_on_c, 0, 75, 65
1, 77455, Note_off_c, 0, 75, 66
1, 77487, Note_on_c, 0, 69, 73
1, 77552, Note_off_c, 0, 69, 54
1, 77568, Note_on_c, 0, 73, 81
1, 77622, Note_on_c, 0, 66, 80
1, 77652, Note_off_c, 0, 73, 62
1, 77679, Poly_aftertouch_c, 0, 70, 127
1, 77690, Note_off_c, 0, 66, 62
1, 77691, Note_on_c, 0, 63, 70
1, 77714, Poly_aftertouch_c, 0, 70, 0
1, 77723, Note_off_c, 0, 63, 65
1, 77752, Note_on_c, 0, 57, 77
1, 77795, Note_off_c, 0, 57, 63
1, 77831, Note_on_c, 0, 72, 85
1, 77836, Note_off_c, 0, 43, 61
1, 77846, Note_off_c, 0, 31, 58
1, 77907, Note_on_c, 0, 66, 84
1, 77911, Note_off_c, 0, 72, 59
1, 77922, Note_on_c, 0, 69, 35
1, 77960, Note_off_c, 0, 69, 55
1, 77962, Note_on_c, 0, 63, 78
1, 77981, Note_off_c, 0, 66, 62
1, 78017, Note_off_c, 0, 63, 63
1, 78033, Note_on_c, 0, 57, 80
1, 78079, Note_off_c, 0, 57, 63
1, 78118, Note_on_c, 0, 43, 101
1, 78120, Note_on_c, 0, 31, 88
1, 78140, Control_c, 0, 64, 85
1, 78155, Control_c, 0, 64, 41
1, 78170, Control_c, 0, 64, 0
1, 78239, Note_on_c, 0, 56, 70
1, 78263, Note_off_c, 0, 56, 67
1, 78273, Control_c, 0, 64, 51
1, 78287, Note_on_c, 0, 62, 63
1, 78288, Control_c, 0, 64, 82
1, 78303, Control_c, 0, 64, 127
1, 78352, Note_off_c, 0, 62, 63
1, 78354, Note_on_c, 0, 65, 68
1, 78385, Note_off_c, 0, 65, 66
1, 78404, Note_on_c, 0, 72, 72
1, 78432, Note_off_c, 0, 72, 65
1, 78484, Note_on_c, 0, 68, 72
1, 78515, Note_off_c, 0, 68, 66
1, 78544, Note_on_c, 0, 74, 64
1, 78608, Note_off_c, 0, 74, 65
1, 78609, Note_on_c, 0, 77, 66
1, 78640, Note_off_c, 0, 77, 67
1, 78655, Note_on_c, 0, 84, 73
1, 78693, Note_off_c, 0, 84, 65
1, 78749, Note_on_c, 0, 80, 62
1, 78778, Note_off_c, 0, 80, 66
1, 78783, Note_on_c, 0, 87, 79
1, 78809, Note_off_c, 0, 87, 66
1, 78823, Note_on_c, 0, 86, 73
1, 78856, Note_off_c, 0, 86, 62
1, 78865, Note_on_c, 0, 89, 78
1, 78912, Note_on_c, 0, 96, 93
1, 78919, Note_off_c, 0, 89, 63
1, 78966, Note_on_c, 0, 89, 90
1, 78972, Note_off_c, 0, 96, 65
1, 78998, Note_on_c, 0, 91, 43
1, 79023, Note_off_c, 0, 91, 53
1, 79028, Note_on_c, 0, 86, 71
1, 79050, Note_off_c, 0, 89, 62
1, 79106, Note_on_c, 0, 80, 68
1, 79118, Note_off_c, 0, 86, 61
1, 79131, Note_off_c, 0, 80, 69
1, 79140, Control_c, 0, 64, 94
1, 79156, Control_c, 0, 64, 57
1, 79168, Note_on_c, 0, 95, 94
1, 79171, Control_c, 0, 64, 0
1, 79223, Note_on_c, 0, 89, 90
1, 79230, Control_c, 0, 64, 63
1, 79241, Note_off_c, 0, 95, 66
1, 79245, Control_c, 0, 64, 87
1, 79260, Control_c, 0, 64, 127
1, 79290, Note_on_c, 0, 86, 69
1, 79300, Note_off_c, 0, 89, 61
1, 79316, Note_off_c, 0, 86, 68
1, 79351, Note_on_c, 0, 79, 76
1, 79396, Note_off_c, 0, 79, 61
1, 79426, Note_on_c, 0, 83, 74
1, 79445, Note_on_c, 0, 81, 76
1, 79479, Note_on_c, 0, 77, 77
1, 79492, Note_off_c, 0, 83, 62
1, 79502, Note_off_c, 0, 81, 64
1, 79536, Note_on_c, 0, 74, 72
1, 79544, Note_off_c, 0, 77, 63
1, 79561, Note_off_c, 0, 74, 67
1, 79601, Note_on_c, 0, 67, 69
1, 79671, Note_off_c, 0, 67, 62
1, 79673, Note_on_c, 0, 71, 86
1, 79697, Note_off_c, 0, 43, 53
1, 79736, Note_on_c, 0, 65, 82
1, 79741, Note_off_c, 0, 71, 61
1, 79788, Note_on_c, 0, 62, 69
1, 79801, Note_off_c, 0, 65, 62
1, 79816, Note_off_c, 0, 62, 66
1, 79857, Note_on_c, 0, 55, 74
1, 79896, Note_off_c, 0, 31, 55
1, 79919, Note_off_c, 0, 55, 61
1, 79927, Note_on_c, 0, 59, 87
1, 79998, Note_on_c, 0, 53, 82
1, 80004, Note_off_c, 0, 59, 61
1, 80040, Note_on_c, 0, 50, 85
1, 80059, Note_off_c, 0, 53, 66
1, 80089, Note_off_c, 0, 50, 65
1, 80115, Note_on_c, 0, 43, 93
1, 80202, Note_off_c, 0, 43, 59
1, 80203, Note_on_c, 0, 36, 96
1, 80207, Note_on_c, 0, 24, 95
1, 80238, Control_c, 0, 64, 94
1, 80253, Control_c, 0, 64, 64
1, 80268, Control_c, 0, 64, 0
1, 80295, Note_on_c, 0, 43, 81
1, 80328, Note_off_c, 0, 43, 62
1, 80373, Note_on_c, 0, 52, 70
1, 80415, Note_off_c, 0, 52, 66
1, 80418, Note_on_c, 0, 55, 69
1, 80469, Note_off_c, 0, 55, 64
1, 80487, Note_on_c, 0, 60, 63
1, 80515, Note_off_c, 0, 60, 67
1, 80542, Note_on_c, 0, 55, 73
1, 80600, Note_off_c, 0, 55, 59
1, 80622, Note_on_c, 0, 64, 72
1, 80638, Control_c, 0, 64, 65
1, 80653, Control_c, 0, 64, 82
1, 80668, Note_on_c, 0, 67, 71
1, 80668, Control_c, 0, 64, 107
1, 80670, Note_off_c, 0, 64, 64
1, 80683, Control_c, 0, 64, 127
1, 80717, Note_off_c, 0, 67, 64
1, 80742, Note_on_c, 0, 72, 51
1, 80764, Note_off_c, 0, 72, 59
1, 80772, Note_on_c, 0, 74, 43
1, 80792, Note_on_c, 0, 67, 74
1, 80797, Note_off_c, 0, 74, 58
1, 80853, Note_off_c, 0, 67, 61
1, 80870, Note_on_c, 0, 76, 75
1, 80904, Note_on_c, 0, 79, 74
1, 80920, Note_off_c, 0, 76, 61
1, 80965, Note_off_c, 0, 79, 63
1, 80983, Note_on_c, 0, 84, 64
1, 81000, Note_off_c, 0, 84, 66
1, 81032, Note_on_c, 0, 79, 77
1, 81082, Note_off_c, 0, 79, 62
1, 81092, Note_on_c, 0, 88, 85
1, 81148, Note_on_c, 0, 91, 84
1, 81154, Note_off_c, 0, 88, 66
1, 81207, Note_on_c, 0, 96, 103
1, 81214, Note_off_c, 0, 91, 62
1, 81259, Note_on_c, 0, 91, 89
1, 81272, Note_off_c, 0, 96, 67
1, 81322, Note_on_c, 0, 88, 74
1, 81335, Note_off_c, 0, 91, 62
1, 81354, Note_off_c, 0, 88, 66
1, 81385, Note_on_c, 0, 79, 78
1, 81448, Note_off_c, 0, 79, 61
1, 81455, Note_on_c, 0, 84, 84
1, 81517, Note_on_c, 0, 79, 83
1, 81529, Note_off_c, 0, 84, 66
1, 81575, Note_on_c, 0, 76, 75
1, 81582, Note_off_c, 0, 79, 62
1, 81605, Note_off_c, 0, 76, 66
1, 81640, Note_on_c, 0, 67, 73
1, 81722, Note_on_c, 0, 72, 85
1, 81724, Note_off_c, 0, 67, 65
1, 81788, Note_on_c, 0, 67, 84
1, 81791, Note_off_c, 0, 72, 65
1, 81837, Note_on_c, 0, 64, 76
1, 81849, Note_off_c, 0, 67, 61
1, 81865, Note_off_c, 0, 64, 66
1, 81912, Note_on_c, 0, 55, 79
1, 81985, Note_off_c, 0, 36, 53
1, 81992, Note_on_c, 0, 60, 88
1, 82009, Note_off_c, 0, 55, 60
1, 82012, Note_off_c, 0, 24, 50
1, 82077, Note_on_c, 0, 55, 88
1, 82093, Note_off_c, 0, 60, 61
1, 82167, Note_on_c, 0, 52, 87
1, 82177, Note_off_c, 0, 55, 63
1, 82225, Note_off_c, 0, 52, 62
1, 82281, Note_on_c, 0, 43, 97
1, 82390, Note_off_c, 0, 43, 60
1, 82472, Note_on_c, 0, 36, 101
1, 82473, Note_on_c, 0, 24, 94
1, 84176, Control_c, 0, 64, 114
1, 84191, Control_c, 0, 64, 88
1, 84205, Control_c, 0, 64, 67
1, 84220, Control_c, 0, 64, 29
1, 84235, Control_c, 0, 64, 0
1, 84264, Note_off_c, 0, 24, 61
1, 84265, Note_off_c, 0, 36, 61
1, 84340, End_track
0, 0, End_of_file
