0, 0, Header, 0, 1, 384
1, 0, Start_track
1, 0, Title_t, "Sonata No. 9--Darrett Zusko     "
1, 0, Text_t, "2006 International Piano-e-Competition Recital Round"
1, 0, Text_t, "St. Paul, Minnesota, July 2006"
1, 0, Text_t, "http://www.piano-e-competition.com/"
1, 0, Instrument_name_t, "Yamaha Disklavier Pro Mark IV concert grand piano"
1, 0, Sequencer_specific, 39, 67, 113, 0, 1, 0, 1, 0, 83, 111, 110, 97, 116, 97, 32, 78, 111, 46, 32, 57, 32, 32, 32, 32, 68, 97, 114, 114, 101, 116, 116, 32, 90, 117, 115, 107, 111, 32, 32, 32
1, 0, Sequencer_specific, 6, 67, 113, 0, 0, 0, 69
1, 0, System_exclusive, 21, 67, 113, 126, 21, 0, 2, 2, 0, 14, 5, 1, 4, 4, 10, 10, 10, 6, 12, 15, 3, 247
1, 0, Sequencer_specific, 5, 67, 123, 12, 2, 1
1, 0, Tempo, 512820
1, 0, Time_signature, 4, 2, 24, 8
1, 0, System_exclusive, 5, 126, 127, 9, 1, 247
1, 1, System_exclusive, 8, 67, 16, 76, 0, 0, 126, 0, 247
1, 2, System_exclusive, 8, 67, 16, 76, 8, 9, 7, 1, 247
1, 3, Control_c, 0, 0, 0
1, 4, Control_c, 0, 32, 0
1, 5, Program_c, 0, 0
1, 6, Control_c, 0, 7, 100
1, 95, Control_c, 0, 64, 15
1, 95, Control_c, 0, 67, 15
1, 184, Control_c, 0, 64, 31
1, 184, Control_c, 0, 67, 31
1, 273, Control_c, 0, 64, 46
1, 273, Control_c, 0, 67, 46
1, 362, Control_c, 0, 64, 63
1, 362, Control_c, 0, 67, 63
1, 452, Control_c, 0, 64, 77
1, 452, Control_c, 0, 67, 77
1, 541, Control_c, 0, 64, 94
1, 541, Control_c, 0, 67, 94
1, 630, Control_c, 0, 64, 108
1, 630, Control_c, 0, 67, 108
1, 719, Control_c, 0, 64, 127
1, 719, Control_c, 0, 67, 127
1, 911, Note_on_c, 0, 67, 41
1, 919, Note_on_c, 0, 71, 47
1, 1563, Note_on_c, 0, 70, 57
1, 1575, Note_off_c, 0, 71, 53
1, 1584, Note_on_c, 0, 61, 42
1, 1623, Note_off_c, 0, 67, 41
1, 1798, Note_off_c, 0, 70, 60
1, 2130, Note_on_c, 0, 69, 52
1, 2150, Note_on_c, 0, 65, 43
1, 2207, Note_off_c, 0, 61, 34
1, 2213, Control_c, 0, 64, 99
1, 2227, Control_c, 0, 64, 73
1, 2242, Control_c, 0, 64, 53
1, 2257, Control_c, 0, 64, 0
1, 2301, Control_c, 0, 64, 41
1, 2316, Control_c, 0, 64, 57
1, 2331, Control_c, 0, 64, 68
1, 2346, Control_c, 0, 64, 75
1, 2360, Control_c, 0, 64, 81
1, 2375, Control_c, 0, 64, 83
1, 2390, Control_c, 0, 64, 85
1, 2405, Control_c, 0, 64, 87
1, 2420, Control_c, 0, 64, 90
1, 2434, Control_c, 0, 64, 93
1, 2449, Control_c, 0, 64, 97
1, 2464, Control_c, 0, 64, 101
1, 2486, Control_c, 0, 64, 105
1, 2501, Control_c, 0, 64, 109
1, 2516, Control_c, 0, 64, 120
1, 2531, Control_c, 0, 64, 127
1, 2648, Note_off_c, 0, 69, 57
1, 2653, Note_off_c, 0, 65, 27
1, 2663, Note_on_c, 0, 68, 55
1, 2695, Note_on_c, 0, 59, 40
1, 2764, Note_off_c, 0, 59, 60
1, 2838, Note_off_c, 0, 68, 58
1, 3170, Note_on_c, 0, 71, 54
1, 3186, Note_on_c, 0, 67, 44
1, 3191, Note_on_c, 0, 61, 36
1, 3194, Note_on_c, 0, 65, 41
1, 3265, Control_c, 0, 64, 96
1, 3280, Control_c, 0, 64, 72
1, 3295, Control_c, 0, 64, 52
1, 3309, Control_c, 0, 64, 0
1, 3339, Control_c, 0, 64, 33
1, 3354, Control_c, 0, 64, 54
1, 3369, Control_c, 0, 64, 69
1, 3383, Control_c, 0, 64, 85
1, 3398, Control_c, 0, 64, 117
1, 3413, Control_c, 0, 64, 127
1, 3451, Note_off_c, 0, 65, 53
1, 3741, Note_on_c, 0, 64, 49
1, 3760, Note_on_c, 0, 55, 29
1, 3798, Control_c, 0, 64, 105
1, 3805, Note_off_c, 0, 61, 33
1, 3813, Control_c, 0, 64, 81
1, 3828, Control_c, 0, 64, 69
1, 3843, Control_c, 0, 64, 67
1, 3857, Control_c, 0, 64, 69
1, 3872, Control_c, 0, 64, 77
1, 3887, Control_c, 0, 64, 91
1, 3902, Control_c, 0, 64, 127
1, 4051, Note_off_c, 0, 64, 50
1, 4152, Note_off_c, 0, 55, 38
1, 4273, Note_on_c, 0, 63, 51
1, 4289, Note_on_c, 0, 59, 38
1, 4354, Control_c, 0, 64, 82
1, 4369, Control_c, 0, 64, 63
1, 4384, Control_c, 0, 64, 41
1, 4399, Control_c, 0, 64, 0
1, 4414, Control_c, 0, 64, 35
1, 4428, Control_c, 0, 64, 50
1, 4443, Control_c, 0, 64, 65
1, 4449, Note_off_c, 0, 59, 36
1, 4458, Control_c, 0, 64, 77
1, 4472, Control_c, 0, 64, 93
1, 4487, Control_c, 0, 64, 110
1, 4502, Control_c, 0, 64, 127
1, 4534, Note_off_c, 0, 63, 55
1, 4813, Note_on_c, 0, 62, 42
1, 4820, Note_on_c, 0, 53, 28
1, 4851, Control_c, 0, 64, 119
1, 4866, Control_c, 0, 64, 85
1, 4880, Control_c, 0, 64, 68
1, 4895, Control_c, 0, 64, 60
1, 4910, Control_c, 0, 64, 61
1, 4925, Control_c, 0, 64, 66
1, 4940, Control_c, 0, 64, 75
1, 4953, Note_off_c, 0, 53, 51
1, 4954, Control_c, 0, 64, 97
1, 4969, Control_c, 0, 64, 127
1, 4992, Note_off_c, 0, 62, 55
1, 5362, Note_on_c, 0, 61, 44
1, 5365, Note_on_c, 0, 65, 40
1, 5399, Control_c, 0, 64, 98
1, 5414, Control_c, 0, 64, 71
1, 5429, Control_c, 0, 64, 49
1, 5444, Control_c, 0, 64, 0
1, 5496, Control_c, 0, 64, 50
1, 5510, Control_c, 0, 64, 66
1, 5525, Control_c, 0, 64, 79
1, 5540, Control_c, 0, 64, 101
1, 5555, Control_c, 0, 64, 127
1, 5615, Note_off_c, 0, 65, 54
1, 5638, Note_off_c, 0, 67, 41
1, 5650, Note_off_c, 0, 61, 39
1, 5927, Note_off_c, 0, 71, 60
1, 5937, Note_on_c, 0, 70, 64
1, 5966, Note_on_c, 0, 61, 38
1, 6001, Control_c, 0, 64, 94
1, 6016, Control_c, 0, 64, 71
1, 6031, Control_c, 0, 64, 54
1, 6046, Control_c, 0, 64, 41
1, 6061, Control_c, 0, 64, 44
1, 6075, Control_c, 0, 64, 58
1, 6090, Control_c, 0, 64, 69
1, 6105, Control_c, 0, 64, 85
1, 6119, Control_c, 0, 64, 127
1, 6173, Note_off_c, 0, 70, 60
1, 6485, Note_on_c, 0, 69, 62
1, 6503, Note_on_c, 0, 65, 40
1, 6519, Note_off_c, 0, 61, 36
1, 6541, Control_c, 0, 64, 107
1, 6556, Control_c, 0, 64, 76
1, 6571, Control_c, 0, 64, 57
1, 6586, Control_c, 0, 64, 0
1, 6616, Control_c, 0, 64, 33
1, 6631, Control_c, 0, 64, 52
1, 6645, Control_c, 0, 64, 65
1, 6660, Control_c, 0, 64, 77
1, 6675, Control_c, 0, 64, 91
1, 6690, Control_c, 0, 64, 101
1, 6705, Control_c, 0, 64, 105
1, 6719, Control_c, 0, 64, 110
1, 6734, Control_c, 0, 64, 115
1, 6750, Control_c, 0, 64, 127
1, 6841, Note_off_c, 0, 65, 37
1, 7004, Note_on_c, 0, 68, 64
1, 7010, Note_off_c, 0, 69, 56
1, 7023, Note_on_c, 0, 59, 51
1, 7024, Control_c, 0, 64, 104
1, 7039, Control_c, 0, 64, 88
1, 7054, Control_c, 0, 64, 85
1, 7083, Control_c, 0, 64, 88
1, 7098, Control_c, 0, 64, 107
1, 7113, Control_c, 0, 64, 127
1, 7118, Note_off_c, 0, 59, 58
1, 7182, Note_off_c, 0, 68, 61
1, 7545, Note_on_c, 0, 71, 58
1, 7559, Note_on_c, 0, 65, 41
1, 7559, Note_on_c, 0, 67, 39
1, 7572, Note_on_c, 0, 61, 35
1, 7617, Control_c, 0, 64, 114
1, 7632, Control_c, 0, 64, 85
1, 7646, Control_c, 0, 64, 67
1, 7661, Control_c, 0, 64, 48
1, 7676, Control_c, 0, 64, 0
1, 7728, Control_c, 0, 64, 39
1, 7742, Control_c, 0, 64, 56
1, 7757, Control_c, 0, 64, 67
1, 7772, Control_c, 0, 64, 76
1, 7787, Control_c, 0, 64, 85
1, 7802, Control_c, 0, 64, 89
1, 7817, Control_c, 0, 64, 93
1, 7831, Control_c, 0, 64, 97
1, 7845, Note_off_c, 0, 65, 55
1, 7846, Control_c, 0, 64, 104
1, 7861, Control_c, 0, 64, 117
1, 7876, Control_c, 0, 64, 127
1, 8089, Note_on_c, 0, 64, 50
1, 8108, Note_on_c, 0, 55, 35
1, 8145, Note_off_c, 0, 61, 35
1, 8172, Control_c, 0, 64, 122
1, 8187, Control_c, 0, 64, 83
1, 8202, Control_c, 0, 64, 66
1, 8216, Control_c, 0, 64, 55
1, 8231, Control_c, 0, 64, 58
1, 8246, Control_c, 0, 64, 63
1, 8261, Control_c, 0, 64, 72
1, 8276, Control_c, 0, 64, 85
1, 8290, Control_c, 0, 64, 107
1, 8305, Control_c, 0, 64, 127
1, 8413, Note_off_c, 0, 64, 51
1, 8482, Note_off_c, 0, 55, 36
1, 8627, Note_on_c, 0, 63, 53
1, 8637, Note_on_c, 0, 59, 44
1, 8684, Control_c, 0, 64, 107
1, 8699, Control_c, 0, 64, 81
1, 8714, Control_c, 0, 64, 65
1, 8728, Control_c, 0, 64, 49
1, 8743, Control_c, 0, 64, 42
1, 8758, Control_c, 0, 64, 44
1, 8773, Control_c, 0, 64, 53
1, 8788, Control_c, 0, 64, 63
1, 8802, Control_c, 0, 64, 74
1, 8818, Control_c, 0, 64, 89
1, 8833, Control_c, 0, 64, 108
1, 8847, Control_c, 0, 64, 115
1, 8848, Note_off_c, 0, 59, 36
1, 8855, Note_off_c, 0, 63, 59
1, 8862, Control_c, 0, 64, 122
1, 8877, Control_c, 0, 64, 127
1, 9145, Note_on_c, 0, 62, 44
1, 9161, Note_on_c, 0, 53, 31
1, 9189, Control_c, 0, 64, 104
1, 9204, Control_c, 0, 64, 81
1, 9226, Control_c, 0, 64, 62
1, 9241, Control_c, 0, 64, 39
1, 9256, Control_c, 0, 64, 0
1, 9270, Control_c, 0, 64, 31
1, 9285, Control_c, 0, 64, 49
1, 9300, Control_c, 0, 64, 64
1, 9315, Control_c, 0, 64, 77
1, 9330, Control_c, 0, 64, 96
1, 9343, Note_off_c, 0, 53, 35
1, 9344, Control_c, 0, 64, 117
1, 9357, Note_off_c, 0, 62, 53
1, 9359, Control_c, 0, 64, 127
1, 9715, Note_on_c, 0, 65, 40
1, 9736, Note_on_c, 0, 61, 33
1, 9759, Control_c, 0, 64, 94
1, 9774, Control_c, 0, 64, 71
1, 9788, Control_c, 0, 64, 51
1, 9803, Control_c, 0, 64, 0
1, 9833, Control_c, 0, 64, 30
1, 9848, Control_c, 0, 64, 50
1, 9862, Control_c, 0, 64, 68
1, 9877, Control_c, 0, 64, 81
1, 9892, Control_c, 0, 64, 100
1, 9907, Control_c, 0, 64, 115
1, 9922, Control_c, 0, 64, 127
1, 9925, Note_off_c, 0, 67, 58
1, 9939, Note_off_c, 0, 61, 41
1, 9939, Note_off_c, 0, 65, 59
1, 10077, Note_off_c, 0, 71, 31
1, 10261, Note_on_c, 0, 70, 61
1, 10285, Note_on_c, 0, 61, 39
1, 10300, Control_c, 0, 64, 95
1, 10315, Control_c, 0, 64, 70
1, 10330, Control_c, 0, 64, 51
1, 10345, Control_c, 0, 64, 38
1, 10360, Control_c, 0, 64, 44
1, 10375, Control_c, 0, 64, 59
1, 10385, Note_off_c, 0, 61, 63
1, 10389, Control_c, 0, 64, 72
1, 10404, Control_c, 0, 64, 91
1, 10419, Control_c, 0, 64, 127
1, 10434, Note_off_c, 0, 70, 47
1, 10434, Control_c, 0, 67, 111
1, 10449, Control_c, 0, 67, 69
1, 10464, Control_c, 0, 67, 0
1, 10816, Note_on_c, 0, 64, 62
1, 10842, Control_c, 0, 67, 38
1, 10857, Control_c, 0, 67, 49
1, 10872, Control_c, 0, 67, 62
1, 10875, Note_off_c, 0, 64, 56
1, 10887, Control_c, 0, 67, 79
1, 10899, Note_on_c, 0, 71, 54
1, 10902, Control_c, 0, 67, 99
1, 10908, Note_on_c, 0, 65, 44
1, 10910, Note_on_c, 0, 67, 48
1, 10916, Control_c, 0, 67, 127
1, 10931, Control_c, 0, 64, 110
1, 10946, Control_c, 0, 64, 92
1, 10961, Control_c, 0, 64, 77
1, 10976, Control_c, 0, 64, 62
1, 10990, Control_c, 0, 64, 44
1, 11005, Control_c, 0, 64, 0
1, 11094, Control_c, 0, 64, 39
1, 11109, Control_c, 0, 64, 51
1, 11123, Control_c, 0, 64, 60
1, 11138, Control_c, 0, 64, 64
1, 11150, Note_on_c, 0, 61, 39
1, 11153, Control_c, 0, 64, 65
1, 11168, Control_c, 0, 64, 66
1, 11183, Control_c, 0, 64, 68
1, 11197, Control_c, 0, 64, 70
1, 11212, Control_c, 0, 64, 72
1, 11227, Control_c, 0, 64, 74
1, 11230, Note_off_c, 0, 61, 55
1, 11242, Control_c, 0, 64, 76
1, 11257, Control_c, 0, 64, 77
1, 11268, Note_on_c, 0, 51, 40
1, 11272, Control_c, 0, 64, 78
1, 11287, Control_c, 0, 64, 78
1, 11302, Control_c, 0, 64, 79
1, 11316, Control_c, 0, 64, 79
1, 11331, Control_c, 0, 64, 80
1, 11346, Control_c, 0, 64, 82
1, 11361, Control_c, 0, 64, 84
1, 11376, Control_c, 0, 64, 88
1, 11381, Note_off_c, 0, 67, 16
1, 11390, Control_c, 0, 64, 89
1, 11392, Note_off_c, 0, 71, 59
1, 11405, Control_c, 0, 64, 88
1, 11406, Note_on_c, 0, 70, 59
1, 11410, Note_on_c, 0, 61, 49
1, 11420, Control_c, 0, 64, 80
1, 11425, Note_off_c, 0, 65, 37
1, 11435, Control_c, 0, 64, 67
1, 11449, Control_c, 0, 64, 51
1, 11472, Control_c, 0, 64, 43
1, 11486, Control_c, 0, 64, 47
1, 11501, Control_c, 0, 64, 60
1, 11516, Control_c, 0, 64, 70
1, 11522, Note_off_c, 0, 61, 64
1, 11531, Control_c, 0, 64, 82
1, 11546, Control_c, 0, 64, 99
1, 11561, Control_c, 0, 64, 111
1, 11576, Control_c, 0, 64, 117
1, 11577, Note_off_c, 0, 70, 62
1, 11591, Control_c, 0, 64, 119
1, 11640, Note_off_c, 0, 51, 41
1, 11650, Control_c, 0, 67, 119
1, 11665, Control_c, 0, 67, 83
1, 11680, Control_c, 0, 67, 0
1, 11850, Note_on_c, 0, 67, 71
1, 11929, Note_off_c, 0, 67, 59
1, 11931, Note_on_c, 0, 74, 65
1, 11940, Note_on_c, 0, 70, 60
1, 11945, Note_on_c, 0, 68, 53
1, 11946, Control_c, 0, 64, 116
1, 11961, Control_c, 0, 64, 97
1, 11976, Control_c, 0, 64, 75
1, 11990, Control_c, 0, 64, 56
1, 12005, Control_c, 0, 64, 0
1, 12065, Control_c, 0, 64, 30
1, 12080, Control_c, 0, 64, 44
1, 12095, Control_c, 0, 64, 58
1, 12109, Control_c, 0, 64, 64
1, 12121, Note_on_c, 0, 64, 48
1, 12124, Control_c, 0, 64, 68
1, 12139, Control_c, 0, 64, 69
1, 12154, Control_c, 0, 64, 70
1, 12169, Control_c, 0, 64, 71
1, 12183, Control_c, 0, 64, 72
1, 12185, Note_off_c, 0, 64, 54
1, 12198, Control_c, 0, 64, 74
1, 12220, Control_c, 0, 64, 75
1, 12235, Control_c, 0, 64, 75
1, 12241, Note_on_c, 0, 58, 41
1, 12250, Control_c, 0, 64, 76
1, 12265, Control_c, 0, 64, 77
1, 12279, Control_c, 0, 64, 78
1, 12294, Control_c, 0, 64, 79
1, 12309, Control_c, 0, 64, 82
1, 12323, Note_on_c, 0, 48, 49
1, 12324, Control_c, 0, 64, 88
1, 12340, Control_c, 0, 64, 97
1, 12355, Control_c, 0, 64, 101
1, 12384, Control_c, 0, 64, 91
1, 12399, Control_c, 0, 64, 77
1, 12403, Note_on_c, 0, 73, 59
1, 12408, Note_on_c, 0, 64, 53
1, 12414, Control_c, 0, 64, 68
1, 12427, Note_off_c, 0, 48, 52
1, 12443, Control_c, 0, 64, 72
1, 12458, Control_c, 0, 64, 83
1, 12464, Note_off_c, 0, 68, 35
1, 12473, Control_c, 0, 64, 110
1, 12484, Note_off_c, 0, 64, 64
1, 12488, Control_c, 0, 64, 127
1, 12499, Note_off_c, 0, 70, 35
1, 12518, Note_off_c, 0, 58, 54
1, 12520, Note_off_c, 0, 73, 63
1, 12548, Note_off_c, 0, 74, 36
1, 12762, Note_on_c, 0, 70, 87
1, 12810, Note_off_c, 0, 70, 63
1, 12839, Note_on_c, 0, 77, 78
1, 12844, Note_on_c, 0, 73, 68
1, 12849, Note_on_c, 0, 71, 68
1, 12858, Control_c, 0, 64, 96
1, 12873, Control_c, 0, 64, 66
1, 12887, Control_c, 0, 64, 0
1, 12931, Note_on_c, 0, 67, 56
1, 12947, Control_c, 0, 64, 40
1, 12968, Control_c, 0, 64, 60
1, 12976, Note_off_c, 0, 67, 63
1, 12983, Control_c, 0, 64, 70
1, 12998, Control_c, 0, 64, 81
1, 13013, Control_c, 0, 64, 91
1, 13013, Note_on_c, 0, 61, 59
1, 13028, Control_c, 0, 64, 96
1, 13036, Note_off_c, 0, 61, 60
1, 13041, Note_off_c, 0, 71, 57
1, 13043, Control_c, 0, 64, 99
1, 13057, Control_c, 0, 64, 102
1, 13072, Control_c, 0, 64, 105
1, 13087, Control_c, 0, 64, 108
1, 13109, Note_on_c, 0, 55, 57
1, 13117, Control_c, 0, 64, 110
1, 13174, Note_off_c, 0, 55, 47
1, 13186, Note_on_c, 0, 45, 50
1, 13219, Note_off_c, 0, 45, 63
1, 13271, Note_on_c, 0, 67, 68
1, 13273, Note_on_c, 0, 76, 66
1, 13275, Note_off_c, 0, 77, 57
1, 13281, Note_off_c, 0, 73, 46
1, 13302, Note_off_c, 0, 67, 64
1, 13311, Control_c, 0, 64, 113
1, 13325, Control_c, 0, 64, 116
1, 13338, Note_off_c, 0, 76, 65
1, 13340, Control_c, 0, 64, 120
1, 13355, Control_c, 0, 64, 127
1, 13554, Note_on_c, 0, 73, 95
1, 13621, Note_on_c, 0, 80, 91
1, 13621, Control_c, 0, 64, 112
1, 13624, Note_on_c, 0, 76, 85
1, 13625, Note_off_c, 0, 73, 66
1, 13627, Note_on_c, 0, 74, 86
1, 13636, Control_c, 0, 64, 62
1, 13651, Control_c, 0, 64, 0
1, 13691, Note_on_c, 0, 70, 76
1, 13717, Control_c, 0, 64, 59
1, 13732, Control_c, 0, 64, 115
1, 13739, Note_off_c, 0, 70, 66
1, 13747, Control_c, 0, 64, 127
1, 13754, Note_on_c, 0, 64, 67
1, 13777, Note_off_c, 0, 64, 68
1, 13791, Note_off_c, 0, 74, 63
1, 13866, Note_on_c, 0, 58, 59
1, 13890, Note_off_c, 0, 58, 62
1, 13897, Note_on_c, 0, 52, 75
1, 13955, Note_on_c, 0, 42, 86
1, 13967, Note_off_c, 0, 52, 63
1, 13979, Note_off_c, 0, 76, 62
1, 14000, Note_off_c, 0, 80, 61
1, 14002, Note_off_c, 0, 42, 63
1, 14005, Note_on_c, 0, 79, 77
1, 14012, Note_on_c, 0, 70, 81
1, 14061, Note_off_c, 0, 70, 59
1, 14096, Note_off_c, 0, 79, 62
1, 14664, Note_on_c, 0, 82, 66
1, 14672, Note_on_c, 0, 78, 54
1, 14673, Note_on_c, 0, 46, 71
1, 14678, Note_on_c, 0, 70, 52
1, 14682, Note_on_c, 0, 39, 57
1, 14682, Note_on_c, 0, 75, 49
1, 14694, Note_on_c, 0, 33, 59
1, 14762, Control_c, 0, 64, 76
1, 14777, Control_c, 0, 64, 46
1, 14792, Control_c, 0, 64, 0
1, 14837, Control_c, 0, 64, 40
1, 14852, Control_c, 0, 64, 66
1, 14867, Control_c, 0, 64, 110
1, 14873, Note_off_c, 0, 82, 61
1, 14881, Control_c, 0, 64, 127
1, 14894, Note_off_c, 0, 70, 63
1, 14897, Note_off_c, 0, 75, 54
1, 14897, Note_off_c, 0, 78, 60
1, 15362, Control_c, 0, 67, 47
1, 15371, Note_on_c, 0, 54, 48
1, 15377, Control_c, 0, 67, 57
1, 15392, Control_c, 0, 67, 60
1, 15406, Control_c, 0, 67, 58
1, 15421, Note_off_c, 0, 54, 59
1, 15421, Control_c, 0, 67, 56
1, 15436, Control_c, 0, 67, 52
1, 15451, Control_c, 0, 67, 47
1, 15466, Control_c, 0, 67, 44
1, 15481, Control_c, 0, 67, 43
1, 15496, Control_c, 0, 67, 42
1, 15516, Note_on_c, 0, 54, 62
1, 15526, Control_c, 0, 67, 42
1, 15547, Note_off_c, 0, 54, 64
1, 15610, Note_on_c, 0, 54, 72
1, 15638, Note_off_c, 0, 54, 63
1, 15639, Note_off_c, 0, 33, 59
1, 15645, Control_c, 0, 67, 41
1, 15655, Note_off_c, 0, 46, 60
1, 15658, Note_off_c, 0, 39, 59
1, 15694, Note_on_c, 0, 54, 68
1, 15719, Control_c, 0, 67, 41
1, 15734, Note_off_c, 0, 54, 61
1, 15734, Control_c, 0, 67, 40
1, 15784, Note_on_c, 0, 46, 66
1, 15853, Control_c, 0, 67, 39
1, 15859, Note_on_c, 0, 54, 66
1, 15868, Control_c, 0, 67, 40
1, 15883, Control_c, 0, 67, 41
1, 15912, Control_c, 0, 67, 41
1, 15942, Control_c, 0, 64, 103
1, 15964, Note_on_c, 0, 51, 66
1, 15964, Control_c, 0, 64, 79
1, 15964, Control_c, 0, 67, 41
1, 15965, Note_off_c, 0, 54, 57
1, 15979, Control_c, 0, 64, 61
1, 15994, Control_c, 0, 64, 39
1, 16009, Control_c, 0, 64, 0
1, 16009, Control_c, 0, 67, 41
1, 16023, Control_c, 0, 67, 42
1, 16038, Control_c, 0, 67, 42
1, 16068, Control_c, 0, 67, 42
1, 16071, Note_on_c, 0, 39, 58
1, 16083, Control_c, 0, 67, 41
1, 16098, Control_c, 0, 67, 40
1, 16112, Control_c, 0, 67, 39
1, 16142, Control_c, 0, 67, 38
1, 16155, Note_off_c, 0, 39, 59
1, 16157, Control_c, 0, 67, 0
1, 16179, Note_on_c, 0, 33, 56
1, 16216, Control_c, 0, 64, 34
1, 16230, Control_c, 0, 64, 39
1, 16245, Control_c, 0, 64, 48
1, 16260, Control_c, 0, 64, 59
1, 16275, Control_c, 0, 64, 65
1, 16290, Control_c, 0, 64, 70
1, 16304, Control_c, 0, 64, 75
1, 16319, Control_c, 0, 64, 79
1, 16335, Control_c, 0, 64, 84
1, 16350, Control_c, 0, 64, 88
1, 16365, Control_c, 0, 64, 91
1, 16380, Control_c, 0, 64, 94
1, 16395, Control_c, 0, 64, 97
1, 16402, Note_on_c, 0, 39, 57
1, 16409, Control_c, 0, 64, 100
1, 16424, Control_c, 0, 64, 106
1, 16439, Control_c, 0, 64, 116
1, 16453, Control_c, 0, 64, 122
1, 16461, Note_off_c, 0, 51, 60
1, 16462, Note_on_c, 0, 55, 64
1, 16468, Control_c, 0, 64, 117
1, 16483, Control_c, 0, 64, 97
1, 16498, Control_c, 0, 64, 69
1, 16511, Note_off_c, 0, 55, 57
1, 16513, Control_c, 0, 64, 36
1, 16527, Control_c, 0, 64, 0
1, 16541, Note_on_c, 0, 54, 65
1, 16587, Control_c, 0, 64, 50
1, 16602, Control_c, 0, 64, 68
1, 16617, Control_c, 0, 64, 84
1, 16629, Note_off_c, 0, 54, 62
1, 16632, Control_c, 0, 64, 127
1, 16694, Note_off_c, 0, 33, 34
1, 16955, Note_on_c, 0, 33, 49
1, 17004, Note_off_c, 0, 39, 37
1, 17041, Note_on_c, 0, 58, 65
1, 17103, Note_off_c, 0, 58, 59
1, 17132, Note_on_c, 0, 39, 65
1, 17141, Note_off_c, 0, 33, 41
1, 17198, Note_on_c, 0, 58, 80
1, 17238, Note_off_c, 0, 58, 61
1, 17313, Note_on_c, 0, 33, 63
1, 17319, Note_on_c, 0, 58, 73
1, 17325, Note_off_c, 0, 46, 59
1, 17333, Note_off_c, 0, 39, 62
1, 17344, Note_off_c, 0, 33, 60
1, 17349, Note_off_c, 0, 58, 66
1, 17427, Note_on_c, 0, 58, 77
1, 17449, Note_off_c, 0, 58, 70
1, 17624, Control_c, 0, 64, 90
1, 17639, Control_c, 0, 64, 70
1, 17654, Control_c, 0, 64, 51
1, 17654, Control_c, 0, 67, 39
1, 17666, Note_on_c, 0, 50, 41
1, 17669, Control_c, 0, 64, 0
1, 17669, Control_c, 0, 67, 50
1, 17684, Control_c, 0, 67, 62
1, 17699, Control_c, 0, 67, 74
1, 17714, Control_c, 0, 67, 85
1, 17728, Control_c, 0, 67, 98
1, 17743, Control_c, 0, 67, 113
1, 17751, Note_on_c, 0, 58, 55
1, 17758, Control_c, 0, 67, 127
1, 17838, Note_off_c, 0, 58, 53
1, 17860, Note_on_c, 0, 55, 39
1, 17933, Note_on_c, 0, 43, 45
1, 18057, Note_on_c, 0, 37, 45
1, 18058, Note_off_c, 0, 43, 56
1, 18173, Control_c, 0, 64, 36
1, 18188, Control_c, 0, 64, 50
1, 18210, Control_c, 0, 64, 58
1, 18225, Control_c, 0, 64, 61
1, 18239, Control_c, 0, 64, 62
1, 18254, Control_c, 0, 64, 63
1, 18269, Control_c, 0, 64, 65
1, 18273, Note_on_c, 0, 43, 49
1, 18284, Control_c, 0, 64, 66
1, 18299, Control_c, 0, 64, 68
1, 18313, Control_c, 0, 64, 69
1, 18328, Control_c, 0, 64, 69
1, 18338, Note_on_c, 0, 59, 55
1, 18343, Control_c, 0, 64, 70
1, 18376, Note_off_c, 0, 59, 64
1, 18403, Note_on_c, 0, 58, 65
1, 18419, Note_off_c, 0, 55, 29
1, 18434, Note_off_c, 0, 37, 41
1, 18536, Control_c, 0, 64, 68
1, 18551, Control_c, 0, 64, 63
1, 18566, Control_c, 0, 64, 55
1, 18581, Control_c, 0, 64, 42
1, 18596, Control_c, 0, 64, 0
1, 18627, Note_on_c, 0, 37, 46
1, 18627, Note_off_c, 0, 43, 56
1, 18655, Control_c, 0, 64, 40
1, 18670, Control_c, 0, 64, 51
1, 18685, Control_c, 0, 64, 61
1, 18699, Control_c, 0, 64, 66
1, 18714, Control_c, 0, 64, 68
1, 18730, Control_c, 0, 64, 69
1, 18745, Control_c, 0, 64, 69
1, 18760, Control_c, 0, 64, 70
1, 18774, Control_c, 0, 64, 71
1, 18789, Control_c, 0, 64, 73
1, 18804, Control_c, 0, 64, 74
1, 18819, Control_c, 0, 64, 76
1, 18834, Control_c, 0, 64, 77
1, 18849, Control_c, 0, 64, 78
1, 18863, Control_c, 0, 64, 79
1, 18878, Control_c, 0, 64, 79
1, 18893, Control_c, 0, 64, 80
1, 18908, Control_c, 0, 64, 81
1, 18922, Control_c, 0, 64, 82
1, 18924, Note_on_c, 0, 43, 52
1, 18937, Control_c, 0, 64, 84
1, 18943, Note_off_c, 0, 37, 42
1, 18960, Control_c, 0, 64, 85
1, 18975, Control_c, 0, 64, 86
1, 18989, Control_c, 0, 64, 87
1, 19004, Control_c, 0, 64, 88
1, 19013, Note_off_c, 0, 43, 55
1, 19019, Control_c, 0, 64, 89
1, 19034, Control_c, 0, 64, 90
1, 19049, Control_c, 0, 64, 91
1, 19063, Control_c, 0, 64, 92
1, 19078, Control_c, 0, 64, 93
1, 19093, Control_c, 0, 64, 94
1, 19108, Control_c, 0, 64, 95
1, 19123, Control_c, 0, 64, 96
1, 19152, Control_c, 0, 64, 98
1, 19167, Control_c, 0, 64, 100
1, 19181, Control_c, 0, 64, 102
1, 19196, Control_c, 0, 64, 104
1, 19211, Control_c, 0, 67, 101
1, 19221, Note_off_c, 0, 50, 60
1, 19222, Note_on_c, 0, 37, 62
1, 19226, Control_c, 0, 64, 106
1, 19226, Control_c, 0, 67, 47
1, 19241, Control_c, 0, 67, 0
1, 19253, Note_off_c, 0, 37, 61
1, 19255, Control_c, 0, 64, 109
1, 19285, Control_c, 0, 64, 111
1, 19329, Control_c, 0, 64, 113
1, 19344, Control_c, 0, 64, 115
1, 19374, Control_c, 0, 64, 117
1, 19404, Control_c, 0, 64, 120
1, 19419, Control_c, 0, 64, 122
1, 19434, Control_c, 0, 64, 124
1, 19448, Control_c, 0, 64, 127
1, 19523, Note_on_c, 0, 50, 71
1, 19627, Control_c, 0, 64, 122
1, 19642, Control_c, 0, 64, 111
1, 19657, Control_c, 0, 64, 91
1, 19672, Control_c, 0, 64, 73
1, 19686, Control_c, 0, 64, 56
1, 19708, Control_c, 0, 64, 0
1, 19781, Note_on_c, 0, 43, 49
1, 19797, Control_c, 0, 64, 40
1, 19812, Control_c, 0, 64, 51
1, 19827, Control_c, 0, 64, 59
1, 19842, Control_c, 0, 64, 61
1, 19857, Control_c, 0, 64, 62
1, 19872, Control_c, 0, 64, 64
1, 19886, Control_c, 0, 64, 66
1, 19901, Control_c, 0, 64, 68
1, 19916, Control_c, 0, 64, 71
1, 19930, Control_c, 0, 64, 73
1, 19934, Note_on_c, 0, 37, 44
1, 19945, Control_c, 0, 64, 76
1, 19960, Control_c, 0, 64, 78
1, 19967, Note_off_c, 0, 43, 38
1, 19975, Control_c, 0, 64, 80
1, 19990, Control_c, 0, 64, 83
1, 20004, Control_c, 0, 64, 86
1, 20019, Control_c, 0, 64, 89
1, 20034, Control_c, 0, 64, 93
1, 20049, Control_c, 0, 64, 96
1, 20064, Control_c, 0, 64, 100
1, 20078, Control_c, 0, 64, 103
1, 20093, Control_c, 0, 64, 106
1, 20108, Control_c, 0, 64, 111
1, 20122, Control_c, 0, 64, 117
1, 20137, Control_c, 0, 64, 127
1, 20241, Note_on_c, 0, 43, 48
1, 20251, Note_off_c, 0, 58, 62
1, 20298, Note_off_c, 0, 37, 41
1, 20435, Control_c, 0, 67, 46
1, 20457, Control_c, 0, 67, 70
1, 20472, Control_c, 0, 67, 101
1, 20487, Control_c, 0, 67, 127
1, 20555, Note_on_c, 0, 37, 42
1, 20627, Note_off_c, 0, 43, 27
1, 20648, Note_on_c, 0, 58, 51
1, 20700, Note_off_c, 0, 58, 60
1, 20763, Note_on_c, 0, 43, 50
1, 20796, Note_off_c, 0, 37, 42
1, 20835, Note_on_c, 0, 58, 64
1, 20877, Note_off_c, 0, 58, 60
1, 20964, Note_on_c, 0, 58, 70
1, 21002, Note_off_c, 0, 58, 57
1, 21017, Note_on_c, 0, 37, 52
1, 21080, Note_off_c, 0, 37, 54
1, 21100, Note_off_c, 0, 43, 52
1, 21112, Note_on_c, 0, 58, 69
1, 21138, Note_off_c, 0, 58, 66
1, 21155, Note_off_c, 0, 50, 35
1, 21168, Control_c, 0, 67, 117
1, 21183, Control_c, 0, 67, 65
1, 21206, Control_c, 0, 67, 0
1, 21383, Control_c, 0, 67, 55
1, 21398, Control_c, 0, 64, 104
1, 21398, Control_c, 0, 67, 84
1, 21413, Control_c, 0, 64, 82
1, 21413, Control_c, 0, 67, 119
1, 21428, Control_c, 0, 64, 67
1, 21428, Control_c, 0, 67, 127
1, 21443, Control_c, 0, 64, 54
1, 21458, Control_c, 0, 64, 35
1, 21472, Control_c, 0, 64, 0
1, 21553, Note_on_c, 0, 71, 56
1, 21575, Note_on_c, 0, 67, 33
1, 21814, Control_c, 0, 64, 34
1, 21829, Control_c, 0, 64, 37
1, 21843, Control_c, 0, 64, 39
1, 21858, Control_c, 0, 64, 43
1, 21873, Control_c, 0, 64, 51
1, 21888, Control_c, 0, 64, 58
1, 21902, Control_c, 0, 64, 62
1, 21919, Control_c, 0, 64, 63
1, 21934, Control_c, 0, 64, 64
1, 21955, Control_c, 0, 64, 64
1, 21970, Control_c, 0, 64, 65
1, 21985, Control_c, 0, 64, 66
1, 22000, Control_c, 0, 64, 67
1, 22015, Control_c, 0, 64, 68
1, 22030, Control_c, 0, 64, 69
1, 22045, Control_c, 0, 64, 70
1, 22060, Control_c, 0, 64, 71
1, 22074, Control_c, 0, 64, 72
1, 22084, Note_on_c, 0, 70, 55
1, 22089, Control_c, 0, 64, 74
1, 22090, Note_off_c, 0, 71, 52
1, 22095, Note_on_c, 0, 61, 39
1, 22104, Control_c, 0, 64, 75
1, 22119, Control_c, 0, 64, 78
1, 22134, Control_c, 0, 64, 80
1, 22148, Control_c, 0, 64, 83
1, 22163, Control_c, 0, 64, 86
1, 22164, Note_off_c, 0, 67, 43
1, 22178, Control_c, 0, 64, 89
1, 22193, Control_c, 0, 64, 92
1, 22207, Control_c, 0, 64, 95
1, 22222, Control_c, 0, 64, 97
1, 22237, Control_c, 0, 64, 99
1, 22281, Control_c, 0, 64, 101
1, 22414, Note_off_c, 0, 70, 28
1, 22549, Note_on_c, 0, 69, 57
1, 22572, Note_on_c, 0, 65, 41
1, 22593, Note_off_c, 0, 61, 34
1, 22621, Control_c, 0, 64, 98
1, 22636, Control_c, 0, 64, 83
1, 22651, Control_c, 0, 64, 67
1, 22666, Control_c, 0, 64, 48
1, 22680, Control_c, 0, 64, 0
1, 22718, Control_c, 0, 64, 30
1, 22733, Control_c, 0, 64, 48
1, 22748, Control_c, 0, 64, 61
1, 22763, Control_c, 0, 64, 69
1, 22778, Control_c, 0, 64, 75
1, 22793, Control_c, 0, 64, 77
1, 22808, Control_c, 0, 64, 77
1, 22822, Control_c, 0, 64, 78
1, 22837, Control_c, 0, 64, 79
1, 22852, Control_c, 0, 64, 80
1, 22864, Note_off_c, 0, 65, 37
1, 22867, Control_c, 0, 64, 81
1, 22882, Control_c, 0, 64, 83
1, 22896, Control_c, 0, 64, 83
1, 22911, Control_c, 0, 64, 84
1, 22926, Control_c, 0, 64, 85
1, 22941, Control_c, 0, 64, 86
1, 22955, Control_c, 0, 64, 86
1, 22970, Control_c, 0, 64, 87
1, 22985, Control_c, 0, 64, 88
1, 23000, Control_c, 0, 64, 90
1, 23015, Control_c, 0, 64, 91
1, 23029, Control_c, 0, 64, 94
1, 23029, Control_c, 0, 67, 114
1, 23038, Note_on_c, 0, 68, 57
1, 23042, Note_off_c, 0, 69, 50
1, 23044, Control_c, 0, 64, 95
1, 23044, Control_c, 0, 67, 88
1, 23059, Control_c, 0, 64, 97
1, 23059, Control_c, 0, 67, 60
1, 23064, Note_on_c, 0, 59, 45
1, 23074, Control_c, 0, 67, 0
1, 23089, Control_c, 0, 64, 100
1, 23118, Control_c, 0, 64, 102
1, 23158, Note_off_c, 0, 59, 58
1, 23178, Control_c, 0, 64, 104
1, 23210, Note_off_c, 0, 68, 59
1, 23561, Note_on_c, 0, 71, 50
1, 23570, Note_on_c, 0, 67, 40
1, 23589, Note_on_c, 0, 65, 31
1, 23595, Note_on_c, 0, 61, 31
1, 23660, Control_c, 0, 64, 101
1, 23675, Control_c, 0, 64, 93
1, 23690, Control_c, 0, 64, 79
1, 23705, Control_c, 0, 64, 65
1, 23719, Control_c, 0, 64, 47
1, 23734, Control_c, 0, 64, 0
1, 23778, Control_c, 0, 64, 41
1, 23793, Control_c, 0, 64, 56
1, 23808, Control_c, 0, 64, 67
1, 23823, Control_c, 0, 64, 75
1, 23838, Control_c, 0, 64, 84
1, 23852, Control_c, 0, 64, 86
1, 23867, Control_c, 0, 64, 88
1, 23881, Note_off_c, 0, 65, 42
1, 23882, Control_c, 0, 64, 90
1, 23896, Control_c, 0, 64, 92
1, 23911, Control_c, 0, 64, 94
1, 23926, Control_c, 0, 64, 96
1, 23985, Control_c, 0, 64, 98
1, 24077, Note_on_c, 0, 64, 50
1, 24109, Note_on_c, 0, 55, 24
1, 24196, Note_off_c, 0, 61, 39
1, 24513, Control_c, 0, 64, 100
1, 24536, Note_off_c, 0, 64, 35
1, 24543, Note_on_c, 0, 63, 49
1, 24543, Control_c, 0, 64, 103
1, 24557, Control_c, 0, 64, 110
1, 24566, Note_on_c, 0, 59, 38
1, 24572, Control_c, 0, 64, 113
1, 24601, Control_c, 0, 64, 101
1, 24603, Note_off_c, 0, 55, 39
1, 24616, Control_c, 0, 64, 82
1, 24631, Control_c, 0, 64, 67
1, 24646, Control_c, 0, 64, 59
1, 24661, Control_c, 0, 64, 61
1, 24675, Control_c, 0, 64, 66
1, 24690, Control_c, 0, 64, 75
1, 24705, Control_c, 0, 64, 89
1, 24719, Control_c, 0, 64, 106
1, 24734, Control_c, 0, 64, 127
1, 24969, Note_off_c, 0, 63, 26
1, 25022, Note_on_c, 0, 62, 53
1, 25039, Note_off_c, 0, 59, 41
1, 25044, Note_on_c, 0, 53, 40
1, 25163, Note_off_c, 0, 67, 56
1, 25172, Note_off_c, 0, 62, 61
1, 25515, Note_on_c, 0, 65, 52
1, 25534, Note_on_c, 0, 59, 39
1, 25536, Note_on_c, 0, 61, 42
1, 25543, Note_off_c, 0, 71, 32
1, 25554, Note_on_c, 0, 55, 32
1, 25561, Note_off_c, 0, 53, 49
1, 25588, Control_c, 0, 64, 97
1, 25603, Control_c, 0, 64, 76
1, 25617, Control_c, 0, 64, 60
1, 25632, Control_c, 0, 64, 36
1, 25647, Control_c, 0, 64, 0
1, 25677, Control_c, 0, 64, 44
1, 25699, Control_c, 0, 64, 58
1, 25714, Control_c, 0, 64, 69
1, 25714, Control_c, 0, 67, 42
1, 25729, Control_c, 0, 64, 78
1, 25729, Control_c, 0, 67, 47
1, 25743, Control_c, 0, 64, 87
1, 25743, Control_c, 0, 67, 50
1, 25758, Control_c, 0, 64, 90
1, 25758, Control_c, 0, 67, 52
1, 25769, Note_off_c, 0, 55, 39
1, 25773, Control_c, 0, 64, 92
1, 25773, Control_c, 0, 67, 53
1, 25788, Control_c, 0, 64, 94
1, 25788, Control_c, 0, 67, 55
1, 25803, Control_c, 0, 64, 95
1, 25803, Control_c, 0, 67, 57
1, 25817, Control_c, 0, 64, 97
1, 25817, Control_c, 0, 67, 65
1, 25832, Control_c, 0, 67, 72
1, 25847, Control_c, 0, 64, 100
1, 25847, Control_c, 0, 67, 80
1, 25862, Control_c, 0, 67, 88
1, 25876, Control_c, 0, 67, 98
1, 25891, Control_c, 0, 67, 109
1, 25906, Control_c, 0, 67, 121
1, 25922, Control_c, 0, 67, 127
1, 26019, Note_on_c, 0, 58, 54
1, 26034, Note_on_c, 0, 49, 35
1, 26057, Note_off_c, 0, 59, 43
1, 26069, Control_c, 0, 64, 91
1, 26084, Control_c, 0, 64, 75
1, 26099, Control_c, 0, 64, 66
1, 26114, Control_c, 0, 64, 64
1, 26128, Control_c, 0, 64, 65
1, 26143, Control_c, 0, 64, 69
1, 26158, Control_c, 0, 64, 77
1, 26172, Control_c, 0, 64, 90
1, 26187, Control_c, 0, 64, 105
1, 26202, Control_c, 0, 64, 112
1, 26217, Control_c, 0, 64, 114
1, 26498, Note_on_c, 0, 57, 47
1, 26504, Note_on_c, 0, 53, 44
1, 26519, Note_off_c, 0, 58, 41
1, 26535, Control_c, 0, 64, 111
1, 26550, Control_c, 0, 64, 97
1, 26564, Control_c, 0, 64, 79
1, 26574, Note_off_c, 0, 49, 42
1, 26579, Control_c, 0, 64, 62
1, 26594, Control_c, 0, 64, 34
1, 26609, Control_c, 0, 64, 0
1, 26638, Control_c, 0, 64, 44
1, 26653, Control_c, 0, 64, 60
1, 26668, Control_c, 0, 64, 70
1, 26683, Control_c, 0, 64, 81
1, 26698, Control_c, 0, 64, 89
1, 26714, Control_c, 0, 64, 90
1, 26729, Control_c, 0, 64, 91
1, 26743, Control_c, 0, 64, 91
1, 26750, Note_off_c, 0, 53, 51
1, 26758, Control_c, 0, 64, 92
1, 26773, Control_c, 0, 64, 93
1, 26787, Control_c, 0, 64, 93
1, 26802, Control_c, 0, 64, 94
1, 26817, Control_c, 0, 64, 94
1, 26981, Control_c, 0, 64, 95
1, 26990, Note_on_c, 0, 56, 49
1, 27010, Control_c, 0, 64, 94
1, 27012, Note_on_c, 0, 47, 31
1, 27025, Control_c, 0, 64, 86
1, 27028, Note_off_c, 0, 57, 38
1, 27040, Control_c, 0, 64, 72
1, 27055, Control_c, 0, 64, 59
1, 27069, Control_c, 0, 64, 51
1, 27084, Control_c, 0, 64, 54
1, 27099, Control_c, 0, 64, 60
1, 27113, Control_c, 0, 64, 69
1, 27128, Control_c, 0, 64, 80
1, 27131, Note_off_c, 0, 61, 64
1, 27143, Control_c, 0, 64, 95
1, 27157, Note_off_c, 0, 65, 60
1, 27158, Control_c, 0, 64, 107
1, 27172, Note_off_c, 0, 56, 60
1, 27173, Control_c, 0, 64, 116
1, 27195, Control_c, 0, 64, 127
1, 27195, Control_c, 0, 67, 88
1, 27210, Control_c, 0, 67, 36
1, 27218, Note_off_c, 0, 47, 30
1, 27225, Control_c, 0, 67, 0
1, 27581, Control_c, 0, 67, 46
1, 27596, Control_c, 0, 67, 60
1, 27610, Control_c, 0, 67, 76
1, 27625, Control_c, 0, 67, 95
1, 27640, Control_c, 0, 67, 116
1, 27655, Control_c, 0, 64, 124
1, 27655, Control_c, 0, 67, 127
1, 27670, Control_c, 0, 64, 119
1, 27675, Note_on_c, 0, 65, 43
1, 27685, Note_on_c, 0, 61, 39
1, 27685, Control_c, 0, 64, 116
1, 27693, Note_on_c, 0, 59, 36
1, 27712, Note_on_c, 0, 55, 24
1, 27715, Control_c, 0, 64, 114
1, 27729, Control_c, 0, 64, 112
1, 27744, Control_c, 0, 64, 105
1, 27759, Control_c, 0, 64, 92
1, 27774, Control_c, 0, 64, 76
1, 27789, Control_c, 0, 64, 60
1, 27804, Control_c, 0, 64, 35
1, 27818, Control_c, 0, 64, 0
1, 27863, Control_c, 0, 64, 41
1, 27878, Control_c, 0, 64, 57
1, 27892, Control_c, 0, 64, 67
1, 27897, Note_off_c, 0, 59, 59
1, 27907, Control_c, 0, 64, 74
1, 27922, Control_c, 0, 64, 79
1, 27944, Control_c, 0, 64, 81
1, 27959, Control_c, 0, 64, 83
1, 27974, Control_c, 0, 64, 85
1, 27989, Control_c, 0, 64, 88
1, 28004, Control_c, 0, 64, 91
1, 28015, Note_off_c, 0, 55, 36
1, 28018, Control_c, 0, 64, 93
1, 28033, Control_c, 0, 64, 95
1, 28048, Control_c, 0, 64, 96
1, 28122, Control_c, 0, 64, 98
1, 28211, Control_c, 0, 67, 117
1, 28215, Note_off_c, 0, 65, 59
1, 28225, Note_on_c, 0, 64, 60
1, 28225, Control_c, 0, 67, 101
1, 28235, Note_off_c, 0, 61, 54
1, 28240, Control_c, 0, 67, 76
1, 28248, Note_on_c, 0, 55, 40
1, 28255, Control_c, 0, 67, 54
1, 28269, Control_c, 0, 67, 40
1, 28284, Control_c, 0, 67, 0
1, 28338, Note_off_c, 0, 64, 64
1, 28374, Control_c, 0, 64, 100
1, 28701, Note_on_c, 0, 63, 53
1, 28714, Note_on_c, 0, 59, 47
1, 28735, Note_off_c, 0, 55, 37
1, 28752, Control_c, 0, 64, 93
1, 28767, Control_c, 0, 64, 76
1, 28782, Control_c, 0, 64, 57
1, 28797, Control_c, 0, 64, 0
1, 28841, Control_c, 0, 64, 37
1, 28856, Control_c, 0, 64, 56
1, 28871, Control_c, 0, 64, 69
1, 28885, Control_c, 0, 64, 79
1, 28900, Control_c, 0, 64, 89
1, 28915, Control_c, 0, 64, 91
1, 28930, Control_c, 0, 64, 93
1, 28945, Control_c, 0, 64, 94
1, 28952, Note_off_c, 0, 63, 29
1, 28959, Control_c, 0, 64, 95
1, 29034, Control_c, 0, 64, 97
1, 29138, Control_c, 0, 64, 99
1, 29153, Control_c, 0, 64, 102
1, 29167, Note_off_c, 0, 59, 54
1, 29175, Note_on_c, 0, 62, 52
1, 29191, Note_on_c, 0, 53, 42
1, 29197, Control_c, 0, 64, 93
1, 29212, Control_c, 0, 64, 79
1, 29227, Control_c, 0, 64, 70
1, 29242, Control_c, 0, 64, 67
1, 29256, Control_c, 0, 64, 68
1, 29271, Control_c, 0, 64, 73
1, 29286, Control_c, 0, 64, 81
1, 29286, Control_c, 0, 67, 45
1, 29301, Control_c, 0, 64, 91
1, 29301, Control_c, 0, 67, 52
1, 29315, Control_c, 0, 64, 100
1, 29315, Control_c, 0, 67, 59
1, 29317, Note_off_c, 0, 53, 55
1, 29330, Control_c, 0, 64, 104
1, 29330, Control_c, 0, 67, 75
1, 29345, Control_c, 0, 64, 106
1, 29345, Control_c, 0, 67, 94
1, 29360, Control_c, 0, 67, 115
1, 29375, Control_c, 0, 67, 127
1, 29607, Note_off_c, 0, 62, 60
1, 29639, Note_on_c, 0, 65, 51
1, 29655, Note_on_c, 0, 59, 49
1, 29662, Note_on_c, 0, 61, 45
1, 29664, Control_c, 0, 64, 101
1, 29666, Note_on_c, 0, 55, 32
1, 29679, Control_c, 0, 64, 88
1, 29694, Control_c, 0, 64, 71
1, 29708, Control_c, 0, 64, 53
1, 29723, Control_c, 0, 64, 0
1, 29768, Control_c, 0, 64, 46
1, 29782, Control_c, 0, 64, 62
1, 29797, Control_c, 0, 64, 74
1, 29812, Control_c, 0, 64, 85
1, 29827, Control_c, 0, 64, 92
1, 29842, Note_off_c, 0, 61, 64
1, 29842, Control_c, 0, 64, 94
1, 29856, Control_c, 0, 64, 96
1, 29856, Control_c, 0, 67, 125
1, 29866, Note_off_c, 0, 65, 59
1, 29871, Control_c, 0, 67, 102
1, 29886, Control_c, 0, 64, 99
1, 29886, Control_c, 0, 67, 60
1, 29901, Control_c, 0, 67, 0
1, 29913, Note_off_c, 0, 55, 39
1, 29917, Control_c, 0, 64, 101
1, 30050, Control_c, 0, 64, 103
1, 30080, Control_c, 0, 64, 105
1, 30124, Control_c, 0, 64, 100
1, 30128, Note_on_c, 0, 58, 58
1, 30138, Control_c, 0, 64, 84
1, 30152, Note_on_c, 0, 49, 33
1, 30153, Control_c, 0, 64, 65
1, 30159, Note_off_c, 0, 59, 52
1, 30168, Control_c, 0, 64, 34
1, 30191, Control_c, 0, 64, 0
1, 30220, Control_c, 0, 64, 42
1, 30235, Control_c, 0, 64, 57
1, 30250, Control_c, 0, 64, 69
1, 30265, Control_c, 0, 64, 79
1, 30280, Control_c, 0, 64, 90
1, 30294, Control_c, 0, 64, 91
1, 30309, Control_c, 0, 64, 92
1, 30324, Control_c, 0, 64, 92
1, 30338, Control_c, 0, 64, 93
1, 30469, Note_on_c, 0, 64, 79
1, 30529, Note_off_c, 0, 64, 56
1, 30564, Note_on_c, 0, 65, 68
1, 30571, Note_off_c, 0, 49, 33
1, 30582, Note_on_c, 0, 59, 44
1, 30583, Note_on_c, 0, 55, 35
1, 30590, Note_off_c, 0, 58, 37
1, 30605, Control_c, 0, 64, 92
1, 30612, Note_on_c, 0, 61, 36
1, 30620, Control_c, 0, 64, 88
1, 30635, Control_c, 0, 64, 80
1, 30650, Control_c, 0, 64, 70
1, 30664, Control_c, 0, 64, 61
1, 30679, Control_c, 0, 64, 50
1, 30694, Control_c, 0, 64, 43
1, 30710, Control_c, 0, 64, 40
1, 30814, Control_c, 0, 64, 40
1, 30829, Control_c, 0, 64, 39
1, 30858, Control_c, 0, 64, 39
1, 30902, Control_c, 0, 64, 40
1, 30917, Control_c, 0, 64, 41
1, 30940, Control_c, 0, 64, 41
1, 30955, Control_c, 0, 64, 42
1, 30969, Control_c, 0, 64, 45
1, 30984, Control_c, 0, 64, 49
1, 30999, Control_c, 0, 64, 54
1, 31014, Control_c, 0, 64, 56
1, 31029, Control_c, 0, 64, 57
1, 31035, Note_off_c, 0, 59, 53
1, 31039, Note_off_c, 0, 55, 42
1, 31043, Control_c, 0, 64, 60
1, 31058, Control_c, 0, 64, 63
1, 31060, Note_on_c, 0, 58, 49
1, 31062, Note_on_c, 0, 49, 30
1, 31073, Control_c, 0, 64, 67
1, 31087, Control_c, 0, 64, 73
1, 31102, Control_c, 0, 64, 79
1, 31107, Note_off_c, 0, 65, 62
1, 31115, Note_off_c, 0, 61, 64
1, 31117, Control_c, 0, 64, 85
1, 31132, Control_c, 0, 64, 92
1, 31133, Note_off_c, 0, 49, 59
1, 31147, Control_c, 0, 64, 99
1, 31151, Note_off_c, 0, 58, 63
1, 31161, Control_c, 0, 64, 106
1, 31176, Control_c, 0, 64, 115
1, 31191, Control_c, 0, 64, 127
1, 31310, Control_c, 0, 67, 36
1, 31325, Control_c, 0, 67, 37
1, 31340, Control_c, 0, 67, 39
1, 31354, Control_c, 0, 67, 42
1, 31367, Note_on_c, 0, 67, 69
1, 31369, Control_c, 0, 67, 54
1, 31384, Control_c, 0, 67, 67
1, 31399, Control_c, 0, 67, 76
1, 31414, Control_c, 0, 67, 79
1, 31429, Control_c, 0, 67, 80
1, 31449, Note_on_c, 0, 58, 51
1, 31473, Control_c, 0, 67, 79
1, 31488, Control_c, 0, 67, 78
1, 31503, Control_c, 0, 67, 76
1, 31518, Note_off_c, 0, 67, 60
1, 31518, Control_c, 0, 67, 76
1, 31533, Control_c, 0, 67, 76
1, 31542, Note_on_c, 0, 68, 57
1, 31572, Note_on_c, 0, 62, 47
1, 31575, Note_on_c, 0, 64, 43
1, 31578, Control_c, 0, 64, 112
1, 31593, Control_c, 0, 64, 96
1, 31608, Control_c, 0, 64, 76
1, 31622, Control_c, 0, 64, 59
1, 31622, Control_c, 0, 67, 76
1, 31637, Control_c, 0, 64, 30
1, 31652, Control_c, 0, 64, 0
1, 31667, Control_c, 0, 67, 75
1, 31673, Note_on_c, 0, 52, 41
1, 31704, Control_c, 0, 64, 34
1, 31704, Control_c, 0, 67, 74
1, 31718, Control_c, 0, 64, 54
1, 31718, Control_c, 0, 67, 73
1, 31733, Control_c, 0, 64, 65
1, 31733, Control_c, 0, 67, 73
1, 31748, Control_c, 0, 64, 71
1, 31763, Control_c, 0, 64, 75
1, 31763, Control_c, 0, 67, 71
1, 31775, Note_on_c, 0, 48, 60
1, 31778, Control_c, 0, 64, 76
1, 31778, Control_c, 0, 67, 69
1, 31792, Control_c, 0, 64, 77
1, 31792, Control_c, 0, 67, 68
1, 31801, Note_off_c, 0, 58, 55
1, 31807, Control_c, 0, 64, 78
1, 31816, Note_off_c, 0, 52, 53
1, 31822, Control_c, 0, 64, 79
1, 31822, Control_c, 0, 67, 67
1, 31826, Note_off_c, 0, 48, 58
1, 31837, Control_c, 0, 64, 80
1, 31837, Control_c, 0, 67, 67
1, 31852, Control_c, 0, 64, 80
1, 31852, Control_c, 0, 67, 66
1, 31867, Control_c, 0, 64, 82
1, 31867, Control_c, 0, 67, 65
1, 31882, Control_c, 0, 64, 85
1, 31897, Control_c, 0, 64, 90
1, 31911, Control_c, 0, 64, 98
1, 31911, Control_c, 0, 67, 65
1, 31926, Control_c, 0, 64, 100
1, 31926, Control_c, 0, 67, 64
1, 31941, Control_c, 0, 67, 62
1, 31953, Note_on_c, 0, 61, 59
1, 31956, Control_c, 0, 64, 89
1, 31956, Control_c, 0, 67, 61
1, 31971, Control_c, 0, 64, 71
1, 31971, Control_c, 0, 67, 60
1, 31976, Note_on_c, 0, 52, 46
1, 31985, Control_c, 0, 64, 53
1, 31985, Control_c, 0, 67, 60
1, 32000, Control_c, 0, 64, 40
1, 32000, Control_c, 0, 67, 58
1, 32015, Control_c, 0, 64, 49
1, 32015, Control_c, 0, 67, 55
1, 32030, Control_c, 0, 64, 62
1, 32030, Control_c, 0, 67, 53
1, 32037, Note_off_c, 0, 62, 63
1, 32037, Note_off_c, 0, 64, 65
1, 32040, Note_off_c, 0, 52, 58
1, 32044, Control_c, 0, 64, 77
1, 32044, Control_c, 0, 67, 52
1, 32055, Note_off_c, 0, 61, 62
1, 32059, Control_c, 0, 64, 118
1, 32063, Note_off_c, 0, 68, 62
1, 32074, Control_c, 0, 64, 127
1, 32074, Control_c, 0, 67, 53
1, 32104, Control_c, 0, 67, 52
1, 32118, Control_c, 0, 67, 51
1, 32163, Control_c, 0, 67, 52
1, 32178, Control_c, 0, 67, 54
1, 32222, Control_c, 0, 67, 53
1, 32237, Control_c, 0, 67, 52
1, 32293, Note_on_c, 0, 70, 84
1, 32296, Control_c, 0, 67, 53
1, 32341, Control_c, 0, 67, 52
1, 32353, Note_on_c, 0, 61, 57
1, 32386, Control_c, 0, 67, 53
1, 32393, Note_off_c, 0, 70, 63
1, 32400, Control_c, 0, 67, 55
1, 32415, Control_c, 0, 67, 55
1, 32442, Note_on_c, 0, 71, 78
1, 32453, Control_c, 0, 64, 95
1, 32453, Control_c, 0, 67, 55
1, 32461, Note_on_c, 0, 65, 58
1, 32468, Note_on_c, 0, 67, 56
1, 32468, Control_c, 0, 64, 67
1, 32468, Control_c, 0, 67, 54
1, 32482, Control_c, 0, 64, 37
1, 32495, Note_off_c, 0, 61, 63
1, 32497, Control_c, 0, 64, 0
1, 32497, Control_c, 0, 67, 54
1, 32527, Control_c, 0, 64, 38
1, 32532, Note_on_c, 0, 55, 55
1, 32541, Control_c, 0, 64, 60
1, 32556, Control_c, 0, 64, 76
1, 32571, Control_c, 0, 64, 99
1, 32571, Control_c, 0, 67, 52
1, 32586, Control_c, 0, 64, 127
1, 32586, Control_c, 0, 67, 50
1, 32601, Control_c, 0, 67, 49
1, 32615, Control_c, 0, 67, 46
1, 32620, Note_off_c, 0, 55, 59
1, 32630, Control_c, 0, 67, 44
1, 32639, Note_on_c, 0, 45, 67
1, 32645, Control_c, 0, 67, 41
1, 32660, Control_c, 0, 67, 0
1, 32668, Note_off_c, 0, 45, 61
1, 32790, Note_on_c, 0, 55, 63
1, 32793, Control_c, 0, 64, 96
1, 32803, Note_on_c, 0, 64, 84
1, 32807, Control_c, 0, 64, 72
1, 32822, Control_c, 0, 64, 65
1, 32837, Control_c, 0, 64, 72
1, 32839, Note_off_c, 0, 65, 61
1, 32852, Control_c, 0, 64, 95
1, 32854, Note_off_c, 0, 67, 63
1, 32857, Note_off_c, 0, 55, 63
1, 32860, Note_off_c, 0, 71, 63
1, 32866, Control_c, 0, 64, 127
1, 32886, Note_off_c, 0, 64, 63
1, 33089, Note_on_c, 0, 73, 94
1, 33146, Note_on_c, 0, 64, 66
1, 33164, Control_c, 0, 64, 95
1, 33186, Control_c, 0, 64, 62
1, 33201, Control_c, 0, 64, 0
1, 33205, Note_off_c, 0, 73, 62
1, 33228, Note_on_c, 0, 74, 82
1, 33256, Note_on_c, 0, 68, 59
1, 33260, Control_c, 0, 64, 55
1, 33266, Note_on_c, 0, 70, 56
1, 33275, Control_c, 0, 64, 70
1, 33282, Note_off_c, 0, 64, 62
1, 33289, Control_c, 0, 64, 84
1, 33304, Control_c, 0, 64, 106
1, 33309, Note_on_c, 0, 58, 65
1, 33319, Control_c, 0, 64, 127
1, 33325, Note_off_c, 0, 68, 59
1, 33336, Note_off_c, 0, 70, 63
1, 33338, Note_off_c, 0, 58, 66
1, 33338, Note_off_c, 0, 74, 63
1, 33435, Note_on_c, 0, 52, 61
1, 33484, Note_off_c, 0, 52, 52
1, 33497, Note_on_c, 0, 42, 52
1, 33539, Note_off_c, 0, 42, 59
1, 33591, Note_on_c, 0, 67, 77
1, 33603, Note_on_c, 0, 58, 61
1, 33630, Note_off_c, 0, 67, 61
1, 33632, Note_off_c, 0, 58, 65
1, 33823, Control_c, 0, 67, 45
1, 33837, Control_c, 0, 67, 59
1, 33852, Control_c, 0, 67, 76
1, 33867, Control_c, 0, 67, 93
1, 33882, Control_c, 0, 67, 116
1, 33897, Control_c, 0, 67, 127
1, 34083, Control_c, 0, 64, 113
1, 34098, Control_c, 0, 64, 99
1, 34112, Control_c, 0, 64, 86
1, 34127, Control_c, 0, 64, 73
1, 34142, Control_c, 0, 64, 62
1, 34157, Control_c, 0, 64, 52
1, 34172, Control_c, 0, 64, 45
1, 34186, Control_c, 0, 64, 34
1, 34201, Control_c, 0, 64, 0
1, 34213, Note_on_c, 0, 66, 49
1, 34245, Note_on_c, 0, 62, 40
1, 34249, Note_on_c, 0, 56, 34
1, 34258, Note_on_c, 0, 60, 34
1, 34394, Control_c, 0, 64, 34
1, 34409, Control_c, 0, 64, 45
1, 34423, Control_c, 0, 64, 57
1, 34438, Control_c, 0, 64, 63
1, 34453, Control_c, 0, 64, 66
1, 34468, Control_c, 0, 64, 68
1, 34483, Control_c, 0, 64, 69
1, 34489, Note_off_c, 0, 60, 41
1, 34498, Control_c, 0, 64, 70
1, 34512, Control_c, 0, 64, 71
1, 34527, Control_c, 0, 64, 72
1, 34542, Control_c, 0, 64, 73
1, 34557, Control_c, 0, 64, 76
1, 34571, Control_c, 0, 64, 79
1, 34586, Control_c, 0, 64, 82
1, 34601, Control_c, 0, 64, 85
1, 34616, Control_c, 0, 64, 88
1, 34630, Control_c, 0, 64, 91
1, 34645, Control_c, 0, 64, 95
1, 34660, Control_c, 0, 64, 98
1, 34729, Control_c, 0, 64, 100
1, 34735, Note_on_c, 0, 59, 43
1, 34744, Note_on_c, 0, 50, 22
1, 34772, Note_off_c, 0, 66, 58
1, 34773, Note_off_c, 0, 62, 40
1, 34785, Note_off_c, 0, 50, 51
1, 34785, Note_off_c, 0, 59, 63
1, 34818, Note_off_c, 0, 56, 40
1, 35036, Note_on_c, 0, 68, 62
1, 35097, Note_off_c, 0, 68, 59
1, 35122, Note_on_c, 0, 59, 37
1, 35166, Note_on_c, 0, 69, 58
1, 35187, Note_on_c, 0, 65, 41
1, 35188, Control_c, 0, 64, 97
1, 35191, Note_on_c, 0, 63, 45
1, 35203, Control_c, 0, 64, 89
1, 35217, Control_c, 0, 64, 77
1, 35232, Control_c, 0, 64, 62
1, 35247, Control_c, 0, 64, 0
1, 35341, Note_on_c, 0, 53, 40
1, 35351, Control_c, 0, 64, 42
1, 35366, Control_c, 0, 64, 55
1, 35381, Control_c, 0, 64, 64
1, 35395, Control_c, 0, 64, 65
1, 35410, Control_c, 0, 64, 66
1, 35432, Control_c, 0, 64, 67
1, 35447, Control_c, 0, 64, 68
1, 35453, Note_on_c, 0, 49, 50
1, 35455, Note_off_c, 0, 59, 55
1, 35462, Control_c, 0, 64, 71
1, 35462, Control_c, 0, 67, 112
1, 35462, Note_off_c, 0, 53, 59
1, 35477, Control_c, 0, 64, 75
1, 35477, Control_c, 0, 67, 60
1, 35483, Note_off_c, 0, 49, 62
1, 35492, Control_c, 0, 64, 81
1, 35492, Control_c, 0, 67, 0
1, 35507, Control_c, 0, 64, 89
1, 35522, Control_c, 0, 64, 93
1, 35537, Control_c, 0, 64, 93
1, 35552, Control_c, 0, 64, 90
1, 35566, Control_c, 0, 64, 80
1, 35581, Note_on_c, 0, 62, 57
1, 35581, Control_c, 0, 64, 68
1, 35596, Note_on_c, 0, 53, 48
1, 35596, Control_c, 0, 64, 65
1, 35611, Control_c, 0, 64, 69
1, 35626, Control_c, 0, 64, 81
1, 35635, Note_off_c, 0, 63, 58
1, 35635, Note_off_c, 0, 65, 62
1, 35641, Note_off_c, 0, 53, 64
1, 35641, Control_c, 0, 64, 127
1, 35646, Note_off_c, 0, 62, 63
1, 35664, Note_off_c, 0, 69, 63
1, 35883, Note_on_c, 0, 71, 78
1, 35949, Note_on_c, 0, 62, 61
1, 35981, Note_off_c, 0, 71, 58
1, 36002, Note_on_c, 0, 72, 81
1, 36025, Note_on_c, 0, 66, 63
1, 36025, Note_on_c, 0, 68, 58
1, 36040, Control_c, 0, 64, 87
1, 36055, Control_c, 0, 64, 60
1, 36070, Control_c, 0, 64, 0
1, 36115, Control_c, 0, 64, 32
1, 36123, Note_off_c, 0, 62, 62
1, 36128, Note_on_c, 0, 56, 55
1, 36130, Control_c, 0, 64, 62
1, 36144, Control_c, 0, 64, 80
1, 36159, Control_c, 0, 64, 127
1, 36201, Note_off_c, 0, 56, 61
1, 36227, Note_on_c, 0, 46, 69
1, 36249, Note_off_c, 0, 46, 60
1, 36262, Note_off_c, 0, 66, 61
1, 36318, Note_off_c, 0, 68, 62
1, 36333, Note_off_c, 0, 72, 64
1, 36362, Note_on_c, 0, 65, 95
1, 36368, Note_on_c, 0, 56, 76
1, 36381, Note_off_c, 0, 65, 69
1, 36401, Note_off_c, 0, 56, 62
1, 36620, Note_on_c, 0, 74, 95
1, 36672, Note_on_c, 0, 65, 84
1, 36685, Control_c, 0, 64, 76
1, 36699, Control_c, 0, 64, 0
1, 36735, Note_off_c, 0, 74, 56
1, 36744, Control_c, 0, 64, 60
1, 36747, Note_on_c, 0, 75, 105
1, 36756, Note_on_c, 0, 69, 86
1, 36758, Note_on_c, 0, 71, 77
1, 36759, Control_c, 0, 64, 127
1, 36770, Note_on_c, 0, 59, 73
1, 36773, Note_off_c, 0, 65, 63
1, 36782, Note_off_c, 0, 71, 64
1, 36787, Note_off_c, 0, 69, 60
1, 36806, Note_off_c, 0, 75, 64
1, 36815, Note_off_c, 0, 59, 61
1, 36890, Note_on_c, 0, 53, 76
1, 36936, Note_on_c, 0, 49, 27
1, 36977, Note_off_c, 0, 53, 57
1, 36986, Note_on_c, 0, 43, 75
1, 37004, Note_off_c, 0, 49, 54
1, 37031, Note_on_c, 0, 68, 98
1, 37037, Note_off_c, 0, 43, 62
1, 37040, Note_on_c, 0, 59, 76
1, 37064, Note_off_c, 0, 59, 67
1, 37078, Note_off_c, 0, 68, 63
1, 37233, Note_on_c, 0, 77, 102
1, 37241, Control_c, 0, 64, 111
1, 37256, Control_c, 0, 64, 64
1, 37271, Control_c, 0, 64, 0
1, 37274, Note_on_c, 0, 34, 100
1, 37286, Control_c, 0, 64, 29
1, 37301, Control_c, 0, 64, 56
1, 37316, Control_c, 0, 64, 127
1, 37317, Note_off_c, 0, 34, 66
1, 37328, Note_off_c, 0, 77, 68
1, 37522, Control_c, 0, 64, 84
1, 37532, Note_on_c, 0, 78, 99
1, 37537, Control_c, 0, 64, 48
1, 37540, Note_on_c, 0, 65, 88
1, 37540, Note_on_c, 0, 77, 76
1, 37544, Note_on_c, 0, 70, 82
1, 37552, Control_c, 0, 64, 0
1, 37554, Note_on_c, 0, 53, 94
1, 37555, Note_on_c, 0, 73, 78
1, 37561, Note_on_c, 0, 40, 77
1, 37564, Note_on_c, 0, 76, 56
1, 37566, Note_on_c, 0, 46, 77
1, 37578, Note_off_c, 0, 73, 69
1, 37578, Note_off_c, 0, 78, 68
1, 37580, Note_off_c, 0, 65, 64
1, 37582, Control_c, 0, 64, 55
1, 37586, Note_off_c, 0, 76, 39
1, 37590, Note_off_c, 0, 70, 60
1, 37596, Note_off_c, 0, 77, 66
1, 37596, Control_c, 0, 64, 127
1, 38198, Note_off_c, 0, 53, 60
1, 38204, Note_on_c, 0, 49, 60
1, 38244, Note_off_c, 0, 49, 62
1, 38324, Note_on_c, 0, 49, 70
1, 38365, Note_off_c, 0, 49, 60
1, 38423, Note_on_c, 0, 49, 64
1, 38452, Note_off_c, 0, 49, 67
1, 38501, Note_on_c, 0, 49, 77
1, 38517, Note_off_c, 0, 46, 60
1, 38520, Note_off_c, 0, 40, 61
1, 38536, Note_off_c, 0, 49, 64
1, 38631, Note_on_c, 0, 49, 59
1, 38635, Control_c, 0, 67, 38
1, 38650, Control_c, 0, 67, 53
1, 38665, Control_c, 0, 67, 70
1, 38679, Control_c, 0, 67, 94
1, 38695, Control_c, 0, 67, 119
1, 38700, Note_off_c, 0, 49, 61
1, 38710, Control_c, 0, 67, 127
1, 38715, Note_on_c, 0, 46, 53
1, 38740, Control_c, 0, 64, 97
1, 38755, Control_c, 0, 64, 76
1, 38768, Control_c, 0, 64, 61
1, 38783, Control_c, 0, 64, 40
1, 38798, Control_c, 0, 64, 0
1, 38821, Note_on_c, 0, 40, 47
1, 38900, Note_off_c, 0, 40, 53
1, 38916, Control_c, 0, 64, 39
1, 38923, Note_on_c, 0, 34, 48
1, 38931, Control_c, 0, 64, 50
1, 38946, Control_c, 0, 64, 62
1, 38961, Control_c, 0, 64, 65
1, 38975, Control_c, 0, 64, 67
1, 38990, Control_c, 0, 64, 68
1, 39125, Note_on_c, 0, 40, 45
1, 39144, Note_off_c, 0, 34, 44
1, 39191, Note_on_c, 0, 50, 54
1, 39217, Note_off_c, 0, 46, 48
1, 39230, Note_off_c, 0, 50, 64
1, 39257, Note_on_c, 0, 49, 55
1, 39264, Control_c, 0, 64, 66
1, 39279, Control_c, 0, 64, 58
1, 39294, Control_c, 0, 64, 40
1, 39308, Control_c, 0, 64, 0
1, 39368, Control_c, 0, 64, 35
1, 39382, Control_c, 0, 64, 48
1, 39397, Control_c, 0, 64, 59
1, 39412, Control_c, 0, 64, 65
1, 39426, Control_c, 0, 64, 67
1, 39441, Control_c, 0, 64, 68
1, 39448, Note_off_c, 0, 40, 46
1, 39456, Control_c, 0, 64, 70
1, 39471, Control_c, 0, 64, 72
1, 39480, Note_on_c, 0, 34, 47
1, 39486, Control_c, 0, 64, 75
1, 39502, Control_c, 0, 64, 78
1, 39517, Control_c, 0, 64, 83
1, 39528, Note_off_c, 0, 49, 62
1, 39531, Control_c, 0, 64, 89
1, 39546, Control_c, 0, 64, 95
1, 39561, Control_c, 0, 64, 105
1, 39576, Control_c, 0, 64, 122
1, 39590, Control_c, 0, 64, 127
1, 39650, Note_on_c, 0, 40, 48
1, 39669, Note_off_c, 0, 34, 43
1, 39842, Note_on_c, 0, 34, 52
1, 39842, Control_c, 0, 67, 107
1, 39850, Note_off_c, 0, 40, 51
1, 39857, Control_c, 0, 67, 0
1, 39876, Note_off_c, 0, 34, 60
1, 40190, Note_on_c, 0, 63, 74
1, 40191, Control_c, 0, 64, 95
1, 40205, Control_c, 0, 64, 62
1, 40216, Note_on_c, 0, 59, 49
1, 40220, Control_c, 0, 64, 0
1, 40249, Control_c, 0, 64, 47
1, 40264, Control_c, 0, 64, 71
1, 40279, Control_c, 0, 64, 127
1, 40308, Note_off_c, 0, 59, 60
1, 40309, Note_off_c, 0, 63, 61
1, 40336, Note_on_c, 0, 53, 54
1, 40365, Note_off_c, 0, 53, 64
1, 40410, Note_on_c, 0, 81, 78
1, 40418, Note_on_c, 0, 69, 70
1, 40419, Note_on_c, 0, 77, 67
1, 40444, Note_off_c, 0, 77, 69
1, 40446, Note_off_c, 0, 69, 64
1, 40456, Note_off_c, 0, 81, 64
1, 40476, Note_on_c, 0, 43, 81
1, 40504, Note_off_c, 0, 43, 67
1, 40585, Note_on_c, 0, 62, 99
1, 40603, Note_on_c, 0, 53, 71
1, 40616, Note_off_c, 0, 62, 68
1, 40628, Note_off_c, 0, 53, 63
1, 40640, Note_on_c, 0, 68, 105
1, 40640, Note_on_c, 0, 80, 103
1, 40641, Note_on_c, 0, 71, 103
1, 40681, Note_off_c, 0, 68, 70
1, 40703, Note_off_c, 0, 71, 65
1, 40715, Note_off_c, 0, 80, 69
1, 40771, Note_on_c, 0, 42, 10
1, 40792, Control_c, 0, 64, 107
1, 40807, Control_c, 0, 64, 62
1, 40817, Note_off_c, 0, 42, 55
1, 40821, Control_c, 0, 64, 0
1, 40830, Note_on_c, 0, 83, 103
1, 40830, Note_on_c, 0, 71, 115
1, 40832, Note_on_c, 0, 79, 94
1, 40836, Note_on_c, 0, 76, 91
1, 40836, Control_c, 0, 64, 31
1, 40839, Note_on_c, 0, 47, 93
1, 40842, Note_on_c, 0, 40, 81
1, 40842, Note_on_c, 0, 78, 73
1, 40844, Note_on_c, 0, 34, 89
1, 40851, Control_c, 0, 64, 68
1, 40859, Note_off_c, 0, 78, 66
1, 40865, Note_off_c, 0, 76, 63
1, 40866, Control_c, 0, 64, 127
1, 40866, Note_off_c, 0, 79, 69
1, 40872, Note_off_c, 0, 83, 70
1, 40872, Note_off_c, 0, 71, 68
1, 40889, Note_on_c, 0, 77, 8
1, 40889, Note_off_c, 0, 77, 127
1, 41331, Note_on_c, 0, 55, 93
1, 41430, Note_off_c, 0, 55, 60
1, 41502, Note_on_c, 0, 55, 91
1, 41552, Note_off_c, 0, 55, 62
1, 41603, Note_on_c, 0, 55, 81
1, 41642, Note_off_c, 0, 47, 58
1, 41648, Note_off_c, 0, 55, 63
1, 41665, Note_off_c, 0, 34, 30
1, 41675, Note_off_c, 0, 40, 53
1, 41687, Note_on_c, 0, 55, 70
1, 41738, Note_off_c, 0, 55, 63
1, 41754, Note_on_c, 0, 47, 75
1, 41847, Note_on_c, 0, 55, 75
1, 41939, Note_off_c, 0, 55, 58
1, 41939, Note_on_c, 0, 52, 71
1, 41957, Control_c, 0, 64, 87
1, 41972, Control_c, 0, 64, 66
1, 41977, Poly_aftertouch_c, 0, 38, 127
1, 41987, Control_c, 0, 64, 39
1, 42001, Control_c, 0, 64, 0
1, 42044, Note_on_c, 0, 40, 73
1, 42060, Control_c, 0, 64, 38
1, 42062, Poly_aftertouch_c, 0, 38, 0
1, 42075, Control_c, 0, 64, 52
1, 42090, Control_c, 0, 64, 64
1, 42105, Control_c, 0, 64, 69
1, 42119, Control_c, 0, 64, 71
1, 42154, Note_on_c, 0, 34, 77
1, 42187, Control_c, 0, 64, 69
1, 42201, Control_c, 0, 64, 65
1, 42216, Control_c, 0, 64, 60
1, 42217, Note_off_c, 0, 40, 61
1, 42231, Control_c, 0, 64, 58
1, 42260, Control_c, 0, 64, 58
1, 42275, Control_c, 0, 64, 58
1, 42290, Control_c, 0, 64, 56
1, 42305, Control_c, 0, 64, 56
1, 42319, Control_c, 0, 64, 55
1, 42334, Control_c, 0, 64, 51
1, 42349, Control_c, 0, 64, 30
1, 42364, Control_c, 0, 64, 0
1, 42394, Note_on_c, 0, 40, 58
1, 42452, Note_on_c, 0, 56, 70
1, 42486, Note_off_c, 0, 52, 61
1, 42523, Note_on_c, 0, 55, 73
1, 42535, Note_off_c, 0, 56, 62
1, 42660, Control_c, 0, 64, 44
1, 42675, Control_c, 0, 64, 59
1, 42691, Control_c, 0, 64, 67
1, 42705, Control_c, 0, 64, 75
1, 42717, Note_off_c, 0, 34, 59
1, 42720, Control_c, 0, 64, 93
1, 42735, Control_c, 0, 64, 127
1, 42743, Note_off_c, 0, 55, 62
1, 42893, Note_on_c, 0, 34, 78
1, 42968, Note_off_c, 0, 40, 60
1, 43035, Note_on_c, 0, 55, 75
1, 43108, Note_off_c, 0, 55, 59
1, 43182, Note_on_c, 0, 40, 76
1, 43250, Note_on_c, 0, 55, 87
1, 43290, Note_off_c, 0, 34, 38
1, 43293, Note_off_c, 0, 55, 63
1, 43403, Note_on_c, 0, 55, 91
1, 43442, Note_off_c, 0, 55, 65
1, 43481, Note_on_c, 0, 34, 91
1, 43525, Note_off_c, 0, 47, 59
1, 43546, Note_on_c, 0, 55, 97
1, 43578, Note_off_c, 0, 55, 65
1, 43677, Note_on_c, 0, 47, 84
1, 43687, Note_off_c, 0, 40, 61
1, 43832, Note_on_c, 0, 55, 91
1, 43965, Note_on_c, 0, 40, 79
1, 44067, Note_on_c, 0, 56, 98
1, 44079, Note_off_c, 0, 34, 55
1, 44092, Note_off_c, 0, 55, 58
1, 44142, Control_c, 0, 64, 101
1, 44157, Control_c, 0, 64, 66
1, 44172, Control_c, 0, 64, 0
1, 44250, Note_on_c, 0, 34, 83
1, 44351, Control_c, 0, 64, 57
1, 44366, Control_c, 0, 64, 75
1, 44380, Control_c, 0, 64, 127
1, 44432, Note_off_c, 0, 40, 51
1, 44724, Note_on_c, 0, 40, 51
1, 44876, Note_off_c, 0, 56, 61
1, 44938, Note_off_c, 0, 34, 33
1, 45300, Note_on_c, 0, 34, 62
1, 45362, Note_off_c, 0, 40, 57
1, 45588, Note_on_c, 0, 40, 81
1, 45597, Note_off_c, 0, 34, 63
1, 45601, Note_off_c, 0, 47, 60
1, 45714, Note_on_c, 0, 34, 84
1, 45773, Note_on_c, 0, 48, 96
1, 45788, Note_off_c, 0, 34, 61
1, 45801, Note_off_c, 0, 40, 60
1, 45817, Note_on_c, 0, 55, 86
1, 45829, Note_off_c, 0, 48, 58
1, 45853, Note_on_c, 0, 56, 80
1, 45881, Note_on_c, 0, 60, 82
1, 45886, Note_off_c, 0, 55, 62
1, 45928, Note_off_c, 0, 56, 65
1, 45930, Note_on_c, 0, 64, 83
1, 45934, Note_on_c, 0, 62, 73
1, 45947, Note_off_c, 0, 60, 66
1, 45955, Note_off_c, 0, 64, 69
1, 45960, Note_off_c, 0, 62, 66
1, 46014, Note_on_c, 0, 65, 104
1, 46024, Note_on_c, 0, 50, 102
1, 46034, Control_c, 0, 64, 101
1, 46049, Control_c, 0, 64, 63
1, 46064, Control_c, 0, 64, 0
1, 46138, Control_c, 0, 64, 69
1, 46151, Note_on_c, 0, 67, 84
1, 46153, Control_c, 0, 64, 127
1, 46154, Note_off_c, 0, 65, 57
1, 46185, Note_off_c, 0, 67, 57
1, 46218, Note_on_c, 0, 65, 66
1, 46250, Note_off_c, 0, 65, 66
1, 46259, Note_on_c, 0, 67, 71
1, 46265, Note_off_c, 0, 50, 55
1, 46280, Note_off_c, 0, 67, 68
1, 46319, Note_on_c, 0, 65, 75
1, 46321, Note_on_c, 0, 40, 61
1, 46343, Note_off_c, 0, 65, 61
1, 46357, Note_on_c, 0, 67, 62
1, 46384, Note_off_c, 0, 67, 63
1, 46417, Note_on_c, 0, 65, 74
1, 46443, Note_off_c, 0, 65, 66
1, 46450, Note_on_c, 0, 67, 80
1, 46477, Note_off_c, 0, 67, 66
1, 46485, Note_on_c, 0, 34, 80
1, 46489, Note_off_c, 0, 40, 62
1, 46506, Note_on_c, 0, 65, 80
1, 46542, Note_off_c, 0, 65, 62
1, 46545, Note_on_c, 0, 67, 78
1, 46572, Note_off_c, 0, 67, 67
1, 46610, Note_on_c, 0, 65, 69
1, 46634, Note_off_c, 0, 65, 64
1, 46644, Note_on_c, 0, 67, 74
1, 46680, Note_off_c, 0, 67, 63
1, 46716, Note_on_c, 0, 65, 70
1, 46743, Note_off_c, 0, 65, 67
1, 46755, Note_on_c, 0, 67, 69
1, 46780, Note_off_c, 0, 67, 62
1, 46822, Note_on_c, 0, 65, 63
1, 46842, Control_c, 0, 67, 44
1, 46843, Note_off_c, 0, 65, 60
1, 46857, Control_c, 0, 67, 55
1, 46858, Note_on_c, 0, 67, 65
1, 46872, Control_c, 0, 67, 63
1, 46883, Note_off_c, 0, 67, 69
1, 46887, Control_c, 0, 67, 69
1, 46902, Control_c, 0, 67, 76
1, 46912, Note_on_c, 0, 65, 69
1, 46916, Control_c, 0, 67, 85
1, 46931, Control_c, 0, 67, 98
1, 46944, Note_off_c, 0, 65, 65
1, 46946, Control_c, 0, 67, 116
1, 46959, Note_on_c, 0, 67, 57
1, 46959, Note_off_c, 0, 34, 61
1, 46961, Control_c, 0, 67, 127
1, 46976, Note_on_c, 0, 40, 59
1, 46989, Note_off_c, 0, 67, 65
1, 47022, Note_on_c, 0, 65, 60
1, 47040, Note_off_c, 0, 65, 64
1, 47054, Note_on_c, 0, 67, 63
1, 47091, Note_off_c, 0, 67, 63
1, 47115, Note_on_c, 0, 65, 53
1, 47144, Note_off_c, 0, 65, 63
1, 47164, Note_on_c, 0, 67, 62
1, 47189, Note_off_c, 0, 67, 67
1, 47222, Note_on_c, 0, 65, 60
1, 47242, Note_off_c, 0, 65, 64
1, 47258, Note_on_c, 0, 67, 57
1, 47287, Note_off_c, 0, 67, 60
1, 47318, Note_on_c, 0, 65, 57
1, 47350, Note_off_c, 0, 65, 59
1, 47369, Note_on_c, 0, 67, 52
1, 47412, Note_off_c, 0, 67, 56
1, 47443, Note_on_c, 0, 65, 41
1, 47475, Note_off_c, 0, 65, 55
1, 47486, Note_on_c, 0, 67, 60
1, 47509, Note_off_c, 0, 67, 62
1, 47544, Note_on_c, 0, 65, 54
1, 47557, Note_off_c, 0, 40, 48
1, 47561, Note_on_c, 0, 34, 54
1, 47567, Note_off_c, 0, 65, 60
1, 47579, Note_on_c, 0, 67, 66
1, 47627, Note_off_c, 0, 67, 55
1, 47652, Note_on_c, 0, 65, 56
1, 47677, Note_off_c, 0, 65, 57
1, 47701, Note_on_c, 0, 67, 54
1, 47728, Note_off_c, 0, 67, 59
1, 47770, Note_on_c, 0, 65, 44
1, 47794, Note_off_c, 0, 65, 54
1, 47807, Note_on_c, 0, 67, 53
1, 47834, Note_off_c, 0, 67, 56
1, 47885, Note_on_c, 0, 65, 44
1, 47910, Note_off_c, 0, 34, 53
1, 47913, Note_off_c, 0, 65, 54
1, 47917, Note_on_c, 0, 40, 45
1, 47930, Note_on_c, 0, 67, 48
1, 47959, Note_off_c, 0, 67, 55
1, 47987, Note_on_c, 0, 65, 49
1, 48010, Note_off_c, 0, 65, 58
1, 48034, Note_on_c, 0, 67, 66
1, 48079, Note_off_c, 0, 67, 56
1, 48091, Note_on_c, 0, 65, 62
1, 48124, Note_off_c, 0, 65, 64
1, 48226, Note_on_c, 0, 34, 57
1, 48280, Note_off_c, 0, 34, 56
1, 48315, Note_on_c, 0, 55, 54
1, 48324, Note_off_c, 0, 40, 33
1, 48356, Note_on_c, 0, 56, 61
1, 48362, Note_off_c, 0, 55, 58
1, 48369, Control_c, 0, 67, 119
1, 48384, Control_c, 0, 67, 80
1, 48392, Note_on_c, 0, 60, 57
1, 48399, Control_c, 0, 67, 0
1, 48409, Note_off_c, 0, 56, 62
1, 48430, Note_on_c, 0, 64, 68
1, 48443, Note_off_c, 0, 60, 61
1, 48465, Note_off_c, 0, 64, 64
1, 48531, Note_on_c, 0, 50, 73
1, 48648, Note_on_c, 0, 65, 59
1, 48651, Control_c, 0, 64, 109
1, 48666, Control_c, 0, 64, 71
1, 48680, Control_c, 0, 64, 42
1, 48695, Control_c, 0, 64, 0
1, 48710, Control_c, 0, 67, 36
1, 48718, Note_off_c, 0, 65, 61
1, 48725, Control_c, 0, 64, 40
1, 48725, Control_c, 0, 67, 67
1, 48729, Note_on_c, 0, 67, 52
1, 48740, Control_c, 0, 64, 61
1, 48740, Control_c, 0, 67, 111
1, 48754, Control_c, 0, 64, 80
1, 48754, Control_c, 0, 67, 127
1, 48769, Control_c, 0, 64, 127
1, 48770, Note_off_c, 0, 67, 63
1, 48799, Note_on_c, 0, 65, 46
1, 48813, Note_on_c, 0, 40, 50
1, 48826, Note_off_c, 0, 65, 62
1, 48847, Note_on_c, 0, 67, 43
1, 48873, Note_off_c, 0, 67, 58
1, 48894, Note_off_c, 0, 50, 61
1, 48922, Note_on_c, 0, 65, 51
1, 48943, Note_off_c, 0, 65, 60
1, 48956, Note_on_c, 0, 67, 55
1, 48966, Note_on_c, 0, 34, 74
1, 48977, Note_off_c, 0, 67, 61
1, 48983, Note_off_c, 0, 40, 61
1, 49002, Note_off_c, 0, 34, 63
1, 49020, Note_on_c, 0, 65, 59
1, 49041, Note_off_c, 0, 65, 65
1, 49049, Note_on_c, 0, 67, 65
1, 49102, Note_off_c, 0, 67, 64
1, 49111, Note_on_c, 0, 65, 70
1, 49132, Note_off_c, 0, 65, 70
1, 49211, Note_on_c, 0, 48, 74
1, 49239, Note_on_c, 0, 64, 64
1, 49285, Note_on_c, 0, 60, 63
1, 49338, Note_on_c, 0, 56, 64
1, 49345, Note_off_c, 0, 60, 62
1, 49374, Note_off_c, 0, 56, 64
1, 49383, Note_on_c, 0, 55, 63
1, 49389, Note_off_c, 0, 64, 33
1, 49421, Note_on_c, 0, 47, 80
1, 49424, Note_off_c, 0, 48, 64
1, 49431, Note_on_c, 0, 56, 64
1, 49431, Note_off_c, 0, 55, 59
1, 49459, Control_c, 0, 64, 85
1, 49467, Note_off_c, 0, 56, 59
1, 49474, Control_c, 0, 64, 61
1, 49489, Control_c, 0, 64, 30
1, 49499, Note_on_c, 0, 55, 51
1, 49503, Control_c, 0, 64, 0
1, 49518, Control_c, 0, 64, 42
1, 49533, Control_c, 0, 64, 60
1, 49535, Note_off_c, 0, 55, 63
1, 49544, Note_on_c, 0, 56, 62
1, 49548, Control_c, 0, 64, 72
1, 49562, Control_c, 0, 64, 93
1, 49575, Note_off_c, 0, 56, 64
1, 49577, Control_c, 0, 64, 127
1, 49607, Note_on_c, 0, 55, 62
1, 49634, Note_off_c, 0, 55, 68
1, 49640, Note_on_c, 0, 56, 66
1, 49686, Note_off_c, 0, 56, 59
1, 49712, Note_on_c, 0, 55, 63
1, 49744, Note_off_c, 0, 55, 60
1, 49751, Note_on_c, 0, 56, 69
1, 49777, Control_c, 0, 67, 97
1, 49787, Note_off_c, 0, 56, 62
1, 49792, Control_c, 0, 67, 0
1, 49803, Note_on_c, 0, 55, 67
1, 49846, Note_off_c, 0, 55, 60
1, 49855, Note_on_c, 0, 56, 59
1, 49905, Note_off_c, 0, 56, 52
1, 49910, Note_on_c, 0, 55, 40
1, 49947, Note_on_c, 0, 48, 84
1, 49949, Note_off_c, 0, 47, 64
1, 49960, Note_off_c, 0, 55, 0
1, 49997, Poly_aftertouch_c, 0, 55, 127
1, 50018, Note_on_c, 0, 56, 72
1, 50038, Poly_aftertouch_c, 0, 55, 0
1, 50076, Note_on_c, 0, 60, 73
1, 50079, Note_off_c, 0, 56, 64
1, 50098, Note_on_c, 0, 64, 82
1, 50125, Note_off_c, 0, 60, 63
1, 50129, Note_off_c, 0, 48, 60
1, 50140, Note_off_c, 0, 64, 67
1, 50164, Note_on_c, 0, 50, 76
1, 50189, Note_on_c, 0, 65, 86
1, 50208, Control_c, 0, 64, 116
1, 50223, Control_c, 0, 64, 70
1, 50238, Control_c, 0, 64, 0
1, 50282, Control_c, 0, 64, 48
1, 50297, Control_c, 0, 64, 67
1, 50301, Note_off_c, 0, 65, 61
1, 50307, Note_on_c, 0, 67, 69
1, 50312, Control_c, 0, 64, 89
1, 50326, Control_c, 0, 64, 127
1, 50330, Note_off_c, 0, 50, 56
1, 50337, Note_off_c, 0, 67, 64
1, 50339, Note_on_c, 0, 40, 65
1, 50372, Note_on_c, 0, 65, 55
1, 50416, Note_off_c, 0, 65, 64
1, 50424, Note_on_c, 0, 67, 68
1, 50429, Note_on_c, 0, 34, 89
1, 50442, Note_off_c, 0, 40, 62
1, 50452, Note_off_c, 0, 67, 67
1, 50457, Note_off_c, 0, 34, 69
1, 50487, Note_on_c, 0, 65, 67
1, 50509, Note_off_c, 0, 65, 69
1, 50512, Note_on_c, 0, 67, 78
1, 50536, Note_off_c, 0, 67, 64
1, 50578, Note_on_c, 0, 65, 76
1, 50605, Note_on_c, 0, 67, 75
1, 50608, Note_off_c, 0, 65, 63
1, 50669, Note_off_c, 0, 67, 62
1, 50677, Note_on_c, 0, 65, 74
1, 50709, Note_off_c, 0, 65, 67
1, 50751, Note_on_c, 0, 48, 75
1, 50788, Note_on_c, 0, 64, 69
1, 50833, Note_on_c, 0, 60, 62
1, 50868, Note_off_c, 0, 64, 62
1, 50881, Note_off_c, 0, 60, 63
1, 50886, Note_on_c, 0, 56, 68
1, 50921, Note_off_c, 0, 56, 65
1, 50924, Note_off_c, 0, 48, 63
1, 50929, Note_on_c, 0, 47, 87
1, 50933, Note_on_c, 0, 55, 69
1, 50957, Control_c, 0, 64, 118
1, 50972, Note_off_c, 0, 55, 61
1, 50972, Control_c, 0, 64, 72
1, 50985, Note_on_c, 0, 56, 65
1, 50987, Control_c, 0, 64, 41
1, 51001, Control_c, 0, 64, 36
1, 51016, Control_c, 0, 64, 51
1, 51020, Note_off_c, 0, 56, 63
1, 51031, Control_c, 0, 64, 67
1, 51046, Control_c, 0, 64, 95
1, 51047, Note_on_c, 0, 55, 62
1, 51061, Control_c, 0, 64, 127
1, 51079, Note_on_c, 0, 56, 67
1, 51079, Note_off_c, 0, 55, 64
1, 51082, Note_off_c, 0, 47, 61
1, 51116, Note_off_c, 0, 56, 59
1, 51143, Note_on_c, 0, 55, 68
1, 51183, Note_off_c, 0, 55, 63
1, 51186, Note_on_c, 0, 56, 71
1, 51222, Note_off_c, 0, 56, 61
1, 51243, Note_on_c, 0, 55, 74
1, 51285, Note_off_c, 0, 55, 60
1, 51288, Note_on_c, 0, 56, 66
1, 51322, Note_off_c, 0, 56, 61
1, 51332, Note_on_c, 0, 55, 66
1, 51378, Note_off_c, 0, 55, 63
1, 51394, Note_on_c, 0, 56, 43
1, 51416, Note_on_c, 0, 55, 71
1, 51417, Note_off_c, 0, 56, 59
1, 51443, Note_on_c, 0, 56, 74
1, 51451, Note_off_c, 0, 55, 63
1, 51486, Note_off_c, 0, 56, 64
1, 51497, Note_on_c, 0, 62, 54
1, 51520, Note_off_c, 0, 62, 60
1, 51563, Note_on_c, 0, 66, 87
1, 51593, Note_on_c, 0, 70, 91
1, 51595, Note_off_c, 0, 66, 63
1, 51630, Note_off_c, 0, 70, 66
1, 51675, Control_c, 0, 64, 104
1, 51677, Note_on_c, 0, 71, 95
1, 51686, Note_on_c, 0, 56, 100
1, 51690, Control_c, 0, 64, 63
1, 51705, Control_c, 0, 64, 0
1, 51749, Control_c, 0, 64, 45
1, 51764, Control_c, 0, 64, 87
1, 51776, Note_off_c, 0, 56, 63
1, 51779, Control_c, 0, 64, 127
1, 51794, Note_on_c, 0, 73, 74
1, 51795, Note_off_c, 0, 71, 57
1, 51827, Note_off_c, 0, 73, 61
1, 51862, Note_on_c, 0, 71, 57
1, 51890, Note_off_c, 0, 71, 62
1, 51917, Note_on_c, 0, 73, 58
1, 51934, Note_off_c, 0, 73, 67
1, 51977, Note_on_c, 0, 71, 54
1, 51979, Control_c, 0, 67, 36
1, 51981, Note_on_c, 0, 40, 56
1, 51994, Note_on_c, 0, 73, 76
1, 51994, Control_c, 0, 67, 66
1, 52004, Note_off_c, 0, 71, 55
1, 52009, Control_c, 0, 67, 106
1, 52023, Control_c, 0, 67, 127
1, 52024, Note_off_c, 0, 73, 63
1, 52044, Note_on_c, 0, 34, 77
1, 52044, Note_off_c, 0, 40, 61
1, 52063, Note_on_c, 0, 71, 68
1, 52071, Note_off_c, 0, 34, 66
1, 52098, Note_off_c, 0, 71, 60
1, 52102, Note_on_c, 0, 73, 69
1, 52162, Note_off_c, 0, 73, 65
1, 52172, Note_on_c, 0, 71, 47
1, 52199, Note_off_c, 0, 71, 55
1, 52232, Note_on_c, 0, 54, 73
1, 52260, Note_on_c, 0, 70, 70
1, 52316, Note_off_c, 0, 70, 64
1, 52319, Note_on_c, 0, 66, 68
1, 52321, Control_c, 0, 67, 125
1, 52349, Note_off_c, 0, 66, 68
1, 52358, Note_on_c, 0, 62, 69
1, 52365, Control_c, 0, 67, 123
1, 52394, Control_c, 0, 67, 120
1, 52421, Note_off_c, 0, 62, 57
1, 52423, Note_off_c, 0, 54, 59
1, 52424, Control_c, 0, 67, 118
1, 52425, Note_on_c, 0, 53, 86
1, 52425, Note_on_c, 0, 61, 70
1, 52453, Note_off_c, 0, 61, 67
1, 52478, Note_on_c, 0, 62, 61
1, 52483, Control_c, 0, 64, 72
1, 52498, Control_c, 0, 64, 40
1, 52513, Control_c, 0, 64, 0
1, 52513, Control_c, 0, 67, 116
1, 52517, Note_off_c, 0, 62, 63
1, 52521, Note_on_c, 0, 61, 64
1, 52528, Control_c, 0, 64, 51
1, 52542, Control_c, 0, 64, 71
1, 52542, Control_c, 0, 67, 114
1, 52555, Note_off_c, 0, 61, 62
1, 52557, Control_c, 0, 64, 127
1, 52584, Note_on_c, 0, 62, 58
1, 52602, Control_c, 0, 67, 109
1, 52617, Control_c, 0, 67, 104
1, 52622, Note_on_c, 0, 61, 67
1, 52623, Note_off_c, 0, 62, 62
1, 52632, Control_c, 0, 67, 95
1, 52653, Control_c, 0, 67, 81
1, 52668, Control_c, 0, 67, 67
1, 52674, Note_off_c, 0, 61, 60
1, 52683, Control_c, 0, 67, 51
1, 52686, Note_on_c, 0, 62, 66
1, 52698, Control_c, 0, 67, 0
1, 52732, Note_off_c, 0, 62, 61
1, 52747, Note_on_c, 0, 61, 62
1, 52778, Note_off_c, 0, 61, 65
1, 52781, Note_on_c, 0, 62, 65
1, 52829, Note_off_c, 0, 53, 51
1, 52834, Note_off_c, 0, 62, 63
1, 52841, Note_on_c, 0, 61, 66
1, 52888, Note_on_c, 0, 62, 42
1, 52927, Note_off_c, 0, 62, 61
1, 52944, Note_on_c, 0, 54, 99
1, 52944, Note_off_c, 0, 61, 63
1, 52989, Note_on_c, 0, 62, 64
1, 53028, Note_off_c, 0, 62, 60
1, 53030, Note_on_c, 0, 66, 83
1, 53082, Note_on_c, 0, 70, 91
1, 53094, Note_off_c, 0, 66, 65
1, 53127, Note_off_c, 0, 70, 69
1, 53155, Note_off_c, 0, 54, 62
1, 53158, Control_c, 0, 64, 86
1, 53169, Note_on_c, 0, 71, 101
1, 53173, Control_c, 0, 64, 49
1, 53180, Note_on_c, 0, 56, 102
1, 53188, Control_c, 0, 64, 0
1, 53217, Control_c, 0, 64, 43
1, 53225, Note_off_c, 0, 56, 68
1, 53232, Control_c, 0, 64, 89
1, 53247, Control_c, 0, 64, 127
1, 53278, Note_on_c, 0, 73, 76
1, 53282, Note_off_c, 0, 71, 58
1, 53329, Note_off_c, 0, 73, 60
1, 53344, Note_on_c, 0, 71, 59
1, 53398, Note_on_c, 0, 73, 67
1, 53431, Note_off_c, 0, 71, 0
1, 53431, Note_off_c, 0, 73, 64
1, 53433, Note_on_c, 0, 40, 88
1, 53448, Note_on_c, 0, 71, 42
1, 53489, Note_on_c, 0, 73, 72
1, 53493, Note_on_c, 0, 34, 100
1, 53496, Note_off_c, 0, 40, 60
1, 53502, Note_off_c, 0, 71, 61
1, 53520, Note_off_c, 0, 34, 68
1, 53562, Note_off_c, 0, 73, 62
1, 53562, Note_on_c, 0, 71, 62
1, 53617, Note_off_c, 0, 71, 63
1, 53697, Note_on_c, 0, 54, 74
1, 53707, Note_on_c, 0, 70, 67
1, 53758, Note_off_c, 0, 70, 61
1, 53770, Note_on_c, 0, 66, 63
1, 53800, Note_off_c, 0, 66, 66
1, 53814, Note_on_c, 0, 62, 64
1, 53881, Note_on_c, 0, 53, 87
1, 53884, Note_off_c, 0, 54, 62
1, 53890, Note_off_c, 0, 62, 60
1, 53892, Note_on_c, 0, 61, 65
1, 53921, Control_c, 0, 64, 72
1, 53927, Note_off_c, 0, 61, 65
1, 53936, Control_c, 0, 64, 46
1, 53946, Note_on_c, 0, 62, 58
1, 53951, Control_c, 0, 64, 54
1, 53965, Control_c, 0, 64, 70
1, 53980, Control_c, 0, 64, 127
1, 53987, Note_off_c, 0, 62, 64
1, 54002, Note_on_c, 0, 61, 61
1, 54033, Note_off_c, 0, 61, 66
1, 54039, Note_off_c, 0, 53, 62
1, 54060, Note_on_c, 0, 62, 66
1, 54091, Note_off_c, 0, 62, 62
1, 54098, Note_on_c, 0, 61, 68
1, 54128, Note_off_c, 0, 61, 64
1, 54168, Note_on_c, 0, 62, 65
1, 54196, Note_off_c, 0, 62, 65
1, 54200, Note_on_c, 0, 61, 75
1, 54237, Note_off_c, 0, 61, 63
1, 54239, Note_on_c, 0, 62, 86
1, 54263, Note_off_c, 0, 62, 68
1, 54343, Note_on_c, 0, 62, 84
1, 54376, Note_off_c, 0, 62, 67
1, 54391, Note_on_c, 0, 68, 81
1, 54423, Note_on_c, 0, 72, 77
1, 54435, Note_off_c, 0, 68, 65
1, 54463, Note_on_c, 0, 76, 84
1, 54479, Note_off_c, 0, 72, 63
1, 54498, Note_off_c, 0, 76, 63
1, 54561, Note_on_c, 0, 79, 76
1, 54579, Note_on_c, 0, 77, 60
1, 54599, Note_off_c, 0, 77, 64
1, 54610, Note_off_c, 0, 79, 65
1, 54611, Control_c, 0, 64, 66
1, 54625, Control_c, 0, 64, 0
1, 54627, Note_on_c, 0, 40, 64
1, 54650, Note_on_c, 0, 79, 51
1, 54664, Note_on_c, 0, 77, 77
1, 54671, Control_c, 0, 64, 55
1, 54674, Note_off_c, 0, 79, 65
1, 54682, Note_on_c, 0, 76, 43
1, 54686, Control_c, 0, 64, 95
1, 54689, Note_on_c, 0, 34, 85
1, 54701, Control_c, 0, 64, 127
1, 54707, Note_off_c, 0, 40, 61
1, 54710, Note_off_c, 0, 76, 60
1, 54713, Note_off_c, 0, 34, 66
1, 54713, Note_off_c, 0, 77, 62
1, 54784, Note_on_c, 0, 77, 35
1, 54817, Note_off_c, 0, 77, 54
1, 54825, Note_on_c, 0, 72, 52
1, 54832, Note_on_c, 0, 74, 49
1, 54856, Note_off_c, 0, 74, 55
1, 54876, Note_on_c, 0, 68, 70
1, 54900, Note_off_c, 0, 72, 59
1, 54915, Note_off_c, 0, 68, 63
1, 54926, Note_on_c, 0, 67, 73
1, 54951, Note_on_c, 0, 59, 84
1, 54960, Note_on_c, 0, 47, 67
1, 54985, Note_off_c, 0, 67, 63
1, 54990, Note_on_c, 0, 68, 56
1, 55025, Note_off_c, 0, 68, 63
1, 55036, Note_on_c, 0, 67, 72
1, 55095, Note_off_c, 0, 67, 0
1, 55110, Note_on_c, 0, 67, 61
1, 55129, Note_on_c, 0, 68, 41
1, 55161, Note_off_c, 0, 67, 64
1, 55176, Note_on_c, 0, 72, 84
1, 55187, Note_off_c, 0, 68, 64
1, 55203, Note_on_c, 0, 76, 78
1, 55216, Note_off_c, 0, 72, 67
1, 55222, Note_off_c, 0, 76, 72
1, 55269, Note_on_c, 0, 77, 94
1, 55288, Poly_aftertouch_c, 0, 69, 0
1, 55293, Note_on_c, 0, 79, 76
1, 55306, Note_off_c, 0, 77, 66
1, 55315, Note_off_c, 0, 79, 66
1, 55318, Note_off_c, 0, 59, 59
1, 55330, Note_off_c, 0, 47, 54
1, 55349, Note_on_c, 0, 77, 68
1, 55359, Note_on_c, 0, 79, 75
1, 55373, Note_off_c, 0, 77, 62
1, 55391, Note_off_c, 0, 79, 62
1, 55403, Note_on_c, 0, 77, 67
1, 55432, Note_off_c, 0, 77, 66
1, 55470, Note_on_c, 0, 76, 85
1, 55500, Note_on_c, 0, 72, 75
1, 55537, Note_off_c, 0, 76, 63
1, 55546, Note_on_c, 0, 68, 85
1, 55557, Note_off_c, 0, 72, 62
1, 55577, Note_on_c, 0, 59, 100
1, 55580, Note_on_c, 0, 47, 91
1, 55583, Note_on_c, 0, 67, 75
1, 55585, Note_off_c, 0, 68, 64
1, 55593, Note_off_c, 0, 59, 74
1, 55622, Note_off_c, 0, 47, 66
1, 55634, Note_off_c, 0, 67, 58
1, 55667, Note_on_c, 0, 67, 71
1, 55687, Note_on_c, 0, 68, 23
1, 55711, Note_off_c, 0, 67, 66
1, 55723, Note_on_c, 0, 41, 106
1, 55735, Note_on_c, 0, 40, 74
1, 55735, Note_off_c, 0, 40, 127
1, 55744, Note_on_c, 0, 35, 72
1, 55744, Note_off_c, 0, 41, 72
1, 55745, Note_on_c, 0, 74, 95
1, 55750, Note_off_c, 0, 68, 65
1, 55761, Note_off_c, 0, 74, 76
1, 55762, Note_on_c, 0, 34, 40
1, 55762, Note_off_c, 0, 34, 127
1, 55770, Note_off_c, 0, 35, 58
1, 55795, Poly_aftertouch_c, 0, 34, 0
1, 55827, Note_on_c, 0, 78, 93
1, 55864, Note_off_c, 0, 78, 61
1, 55865, Note_on_c, 0, 82, 97
1, 55872, Note_on_c, 0, 61, 47
1, 55872, Note_off_c, 0, 61, 127
1, 55892, Note_off_c, 0, 82, 64
1, 55914, Note_on_c, 0, 56, 86
1, 55952, Note_on_c, 0, 62, 66
1, 55975, Control_c, 0, 64, 77
1, 55990, Control_c, 0, 64, 0
1, 56011, Note_on_c, 0, 83, 109
1, 56014, Note_on_c, 0, 66, 111
1, 56028, Note_on_c, 0, 85, 86
1, 56043, Note_off_c, 0, 83, 71
1, 56048, Note_on_c, 0, 86, 68
1, 56049, Note_off_c, 0, 85, 67
1, 56063, Note_off_c, 0, 86, 67
1, 56064, Control_c, 0, 64, 127
1, 56096, Note_on_c, 0, 83, 93
1, 56105, Note_off_c, 0, 66, 65
1, 56114, Note_on_c, 0, 85, 107
1, 56123, Note_off_c, 0, 83, 64
1, 56140, Note_off_c, 0, 62, 59
1, 56152, Note_off_c, 0, 56, 62
1, 56152, Note_off_c, 0, 85, 67
1, 56166, Note_on_c, 0, 83, 88
1, 56207, Note_off_c, 0, 83, 66
1, 56224, Note_on_c, 0, 86, 44
1, 56243, Note_on_c, 0, 83, 84
1, 56251, Note_off_c, 0, 86, 60
1, 56278, Note_on_c, 0, 85, 92
1, 56283, Note_off_c, 0, 83, 66
1, 56331, Note_on_c, 0, 83, 103
1, 56359, Note_off_c, 0, 83, 70
1, 56370, Note_off_c, 0, 85, 68
1, 56472, Control_c, 0, 67, 103
1, 56487, Control_c, 0, 67, 127
1, 56679, Note_on_c, 0, 61, 66
1, 56680, Control_c, 0, 64, 106
1, 56694, Control_c, 0, 64, 76
1, 56707, Note_on_c, 0, 40, 39
1, 56709, Control_c, 0, 64, 48
1, 56712, Note_on_c, 0, 53, 42
1, 56718, Note_on_c, 0, 47, 42
1, 56719, Note_on_c, 0, 34, 45
1, 56724, Control_c, 0, 64, 0
1, 56783, Control_c, 0, 64, 31
1, 56798, Control_c, 0, 64, 50
1, 56812, Control_c, 0, 64, 66
1, 56827, Control_c, 0, 64, 70
1, 56836, Note_off_c, 0, 61, 61
1, 56842, Control_c, 0, 64, 72
1, 56857, Control_c, 0, 64, 75
1, 56864, Note_on_c, 0, 62, 52
1, 56872, Control_c, 0, 64, 79
1, 56887, Control_c, 0, 64, 84
1, 56901, Note_off_c, 0, 62, 60
1, 56901, Control_c, 0, 64, 86
1, 56916, Control_c, 0, 64, 88
1, 56931, Control_c, 0, 64, 91
1, 56944, Note_on_c, 0, 61, 54
1, 56945, Control_c, 0, 64, 95
1, 56960, Control_c, 0, 64, 99
1, 56972, Note_off_c, 0, 61, 64
1, 56975, Control_c, 0, 64, 105
1, 56986, Note_on_c, 0, 62, 60
1, 56990, Control_c, 0, 64, 116
1, 57005, Control_c, 0, 64, 127
1, 57020, Note_off_c, 0, 62, 60
1, 57039, Note_on_c, 0, 61, 70
1, 57078, Note_off_c, 0, 61, 60
1, 57112, Note_on_c, 0, 62, 48
1, 57144, Note_off_c, 0, 62, 63
1, 57155, Note_on_c, 0, 61, 71
1, 57187, Note_off_c, 0, 61, 66
1, 57226, Note_on_c, 0, 62, 46
1, 57248, Note_off_c, 0, 62, 59
1, 57252, Note_off_c, 0, 47, 59
1, 57255, Note_on_c, 0, 61, 73
1, 57265, Note_off_c, 0, 34, 43
1, 57279, Note_off_c, 0, 40, 44
1, 57282, Note_off_c, 0, 61, 67
1, 57330, Note_on_c, 0, 62, 40
1, 57354, Note_on_c, 0, 61, 66
1, 57358, Note_off_c, 0, 62, 56
1, 57383, Note_off_c, 0, 61, 67
1, 57413, Note_on_c, 0, 62, 56
1, 57442, Note_off_c, 0, 62, 64
1, 57448, Note_on_c, 0, 61, 70
1, 57462, Note_off_c, 0, 53, 36
1, 57476, Note_off_c, 0, 61, 64
1, 57512, Note_on_c, 0, 62, 62
1, 57539, Note_off_c, 0, 62, 64
1, 57551, Note_on_c, 0, 61, 66
1, 57577, Note_off_c, 0, 61, 66
1, 57593, Note_on_c, 0, 53, 47
1, 57598, Note_on_c, 0, 62, 69
1, 57615, Note_on_c, 0, 47, 64
1, 57626, Note_on_c, 0, 34, 43
1, 57631, Note_on_c, 0, 40, 48
1, 57640, Note_off_c, 0, 62, 60
1, 57651, Note_on_c, 0, 61, 52
1, 57689, Note_off_c, 0, 53, 54
1, 57700, Note_on_c, 0, 62, 60
1, 57712, Note_off_c, 0, 61, 0
1, 57726, Note_on_c, 0, 61, 60
1, 57733, Note_off_c, 0, 62, 60
1, 57755, Note_off_c, 0, 61, 67
1, 57857, Note_on_c, 0, 67, 75
1, 57878, Note_off_c, 0, 47, 59
1, 57902, Note_on_c, 0, 68, 69
1, 57902, Note_off_c, 0, 40, 58
1, 57908, Note_off_c, 0, 67, 56
1, 57912, Note_off_c, 0, 34, 41
1, 57923, Note_on_c, 0, 72, 69
1, 57944, Note_on_c, 0, 76, 78
1, 57944, Note_off_c, 0, 68, 62
1, 57970, Note_off_c, 0, 72, 64
1, 57970, Control_c, 0, 67, 103
1, 57980, Note_off_c, 0, 76, 58
1, 57985, Control_c, 0, 67, 0
1, 58031, Note_on_c, 0, 77, 85
1, 58039, Note_on_c, 0, 79, 82
1, 58044, Control_c, 0, 64, 85
1, 58057, Note_off_c, 0, 77, 64
1, 58059, Control_c, 0, 64, 52
1, 58073, Note_off_c, 0, 79, 62
1, 58073, Control_c, 0, 64, 0
1, 58103, Control_c, 0, 64, 53
1, 58117, Control_c, 0, 64, 86
1, 58119, Note_on_c, 0, 79, 71
1, 58132, Note_on_c, 0, 40, 62
1, 58132, Control_c, 0, 64, 127
1, 58179, Note_on_c, 0, 34, 67
1, 58179, Note_off_c, 0, 79, 65
1, 58182, Note_off_c, 0, 40, 62
1, 58184, Poly_aftertouch_c, 0, 77, 127
1, 58206, Note_off_c, 0, 34, 57
1, 58207, Poly_aftertouch_c, 0, 77, 0
1, 58259, Note_on_c, 0, 76, 75
1, 58292, Note_on_c, 0, 72, 64
1, 58295, Note_off_c, 0, 76, 52
1, 58355, Note_off_c, 0, 72, 59
1, 58358, Note_on_c, 0, 68, 67
1, 58391, Note_off_c, 0, 68, 63
1, 58406, Note_on_c, 0, 67, 71
1, 58437, Note_on_c, 0, 59, 85
1, 58457, Note_on_c, 0, 47, 52
1, 58459, Note_off_c, 0, 67, 55
1, 58473, Note_on_c, 0, 68, 54
1, 58504, Note_off_c, 0, 68, 62
1, 58514, Note_on_c, 0, 67, 62
1, 58572, Note_off_c, 0, 67, 60
1, 58579, Note_on_c, 0, 68, 62
1, 58614, Note_off_c, 0, 68, 61
1, 58616, Note_on_c, 0, 67, 69
1, 58664, Note_on_c, 0, 68, 50
1, 58689, Note_off_c, 0, 67, 60
1, 58695, Note_on_c, 0, 72, 85
1, 58718, Note_off_c, 0, 68, 64
1, 58724, Note_on_c, 0, 76, 75
1, 58740, Note_off_c, 0, 72, 63
1, 58745, Note_off_c, 0, 76, 70
1, 58788, Note_on_c, 0, 77, 92
1, 58813, Note_on_c, 0, 79, 82
1, 58829, Note_off_c, 0, 77, 64
1, 58846, Note_off_c, 0, 79, 62
1, 58871, Note_off_c, 0, 47, 59
1, 58874, Note_off_c, 0, 59, 60
1, 58882, Note_on_c, 0, 77, 64
1, 58890, Note_on_c, 0, 79, 77
1, 58919, Note_off_c, 0, 77, 0
1, 58925, Note_off_c, 0, 79, 65
1, 58942, Poly_aftertouch_c, 0, 77, 0
1, 58987, Note_on_c, 0, 76, 73
1, 59017, Note_on_c, 0, 72, 70
1, 59060, Note_off_c, 0, 76, 64
1, 59062, Note_on_c, 0, 68, 88
1, 59086, Note_off_c, 0, 72, 61
1, 59092, Note_on_c, 0, 59, 99
1, 59094, Note_on_c, 0, 67, 86
1, 59097, Note_on_c, 0, 47, 92
1, 59097, Note_off_c, 0, 68, 66
1, 59118, Note_off_c, 0, 59, 66
1, 59136, Note_off_c, 0, 67, 63
1, 59139, Note_off_c, 0, 47, 66
1, 59160, Note_on_c, 0, 68, 63
1, 59189, Note_off_c, 0, 68, 64
1, 59193, Note_on_c, 0, 67, 89
1, 59221, Note_on_c, 0, 68, 66
1, 59236, Note_off_c, 0, 67, 65
1, 59241, Note_on_c, 0, 40, 102
1, 59246, Note_on_c, 0, 34, 100
1, 59257, Note_on_c, 0, 74, 94
1, 59258, Note_off_c, 0, 34, 71
1, 59258, Note_off_c, 0, 40, 74
1, 59268, Note_off_c, 0, 68, 64
1, 59276, Note_off_c, 0, 74, 67
1, 59335, Note_on_c, 0, 34, 31
1, 59348, Note_on_c, 0, 78, 88
1, 59375, Note_off_c, 0, 34, 55
1, 59392, Note_off_c, 0, 78, 58
1, 59393, Note_on_c, 0, 82, 91
1, 59413, Note_off_c, 0, 82, 67
1, 59445, Note_on_c, 0, 56, 92
1, 59485, Note_on_c, 0, 62, 76
1, 59512, Note_on_c, 0, 61, 21
1, 59542, Control_c, 0, 64, 110
1, 59557, Control_c, 0, 64, 62
1, 59561, Note_off_c, 0, 61, 50
1, 59571, Control_c, 0, 64, 0
1, 59572, Note_on_c, 0, 83, 111
1, 59576, Note_on_c, 0, 66, 112
1, 59590, Note_on_c, 0, 85, 93
1, 59607, Note_off_c, 0, 83, 70
1, 59616, Control_c, 0, 64, 96
1, 59625, Note_on_c, 0, 84, 12
1, 59625, Note_off_c, 0, 84, 127
1, 59631, Control_c, 0, 64, 127
1, 59634, Note_off_c, 0, 85, 65
1, 59659, Note_on_c, 0, 83, 93
1, 59682, Poly_aftertouch_c, 0, 84, 0
1, 59688, Note_on_c, 0, 85, 94
1, 59690, Note_off_c, 0, 83, 64
1, 59723, Note_off_c, 0, 85, 65
1, 59728, Note_off_c, 0, 56, 63
1, 59732, Note_off_c, 0, 66, 62
1, 59736, Note_off_c, 0, 62, 62
1, 59740, Note_on_c, 0, 83, 88
1, 59779, Note_on_c, 0, 85, 87
1, 59783, Note_off_c, 0, 83, 65
1, 59804, Note_off_c, 0, 85, 61
1, 59832, Note_on_c, 0, 83, 81
1, 59853, Note_on_c, 0, 85, 95
1, 59866, Note_off_c, 0, 83, 65
1, 59888, Note_off_c, 0, 85, 66
1, 59911, Note_on_c, 0, 83, 91
1, 59942, Note_on_c, 0, 85, 91
1, 59951, Note_off_c, 0, 83, 67
1, 59974, Note_off_c, 0, 85, 55
1, 59998, Note_on_c, 0, 83, 86
1, 60013, Note_on_c, 0, 85, 98
1, 60028, Note_off_c, 0, 83, 65
1, 60063, Note_on_c, 0, 83, 93
1, 60064, Note_off_c, 0, 85, 68
1, 60097, Note_off_c, 0, 83, 68
1, 60117, Note_on_c, 0, 70, 99
1, 60400, Note_on_c, 0, 71, 102
1, 60402, Note_off_c, 0, 70, 57
1, 61158, Control_c, 0, 64, 115
1, 61173, Control_c, 0, 64, 106
1, 61188, Control_c, 0, 64, 99
1, 61203, Control_c, 0, 64, 93
1, 61217, Control_c, 0, 64, 90
1, 61232, Control_c, 0, 64, 86
1, 61247, Control_c, 0, 64, 81
1, 61262, Control_c, 0, 64, 77
1, 61277, Control_c, 0, 64, 74
1, 61291, Control_c, 0, 64, 72
1, 61306, Control_c, 0, 64, 69
1, 61321, Control_c, 0, 64, 65
1, 61336, Control_c, 0, 64, 62
1, 61351, Control_c, 0, 64, 59
1, 61366, Control_c, 0, 64, 57
1, 61381, Control_c, 0, 64, 54
1, 61396, Control_c, 0, 64, 50
1, 61410, Control_c, 0, 64, 47
1, 61425, Control_c, 0, 64, 40
1, 61440, Control_c, 0, 64, 29
1, 61455, Control_c, 0, 64, 0
1, 61573, Control_c, 0, 64, 45
1, 61575, Note_off_c, 0, 71, 67
1, 61588, Control_c, 0, 64, 67
1, 61603, Control_c, 0, 64, 102
1, 61617, Control_c, 0, 64, 127
1, 61822, Note_on_c, 0, 34, 92
1, 61831, Note_on_c, 0, 40, 97
1, 61867, Note_off_c, 0, 34, 65
1, 61871, Note_off_c, 0, 40, 66
1, 61890, Note_on_c, 0, 73, 113
1, 61960, Note_on_c, 0, 74, 75
1, 62013, Note_on_c, 0, 78, 88
1, 62031, Note_off_c, 0, 73, 48
1, 62065, Note_on_c, 0, 82, 105
1, 62070, Note_on_c, 0, 56, 94
1, 62072, Note_off_c, 0, 74, 66
1, 62082, Note_off_c, 0, 78, 66
1, 62093, Note_off_c, 0, 82, 73
1, 62137, Note_on_c, 0, 62, 88
1, 62291, Control_c, 0, 64, 93
1, 62306, Control_c, 0, 64, 57
1, 62310, Note_on_c, 0, 83, 117
1, 62321, Control_c, 0, 64, 0
1, 62326, Note_on_c, 0, 66, 114
1, 62365, Control_c, 0, 64, 79
1, 62366, Note_off_c, 0, 56, 64
1, 62385, Note_off_c, 0, 62, 61
1, 62388, Control_c, 0, 64, 127
1, 62390, Note_off_c, 0, 66, 71
1, 62427, Note_on_c, 0, 85, 94
1, 62430, Note_off_c, 0, 83, 58
1, 62470, Note_off_c, 0, 85, 65
1, 62509, Note_on_c, 0, 83, 72
1, 62529, Note_off_c, 0, 83, 56
1, 62542, Note_on_c, 0, 85, 88
1, 62572, Note_off_c, 0, 85, 61
1, 62597, Note_on_c, 0, 83, 79
1, 62641, Note_off_c, 0, 83, 63
1, 62649, Note_on_c, 0, 85, 78
1, 62669, Note_off_c, 0, 85, 71
1, 62701, Note_on_c, 0, 83, 73
1, 62747, Note_off_c, 0, 83, 62
1, 62753, Note_on_c, 0, 85, 70
1, 62776, Note_off_c, 0, 85, 70
1, 62802, Note_on_c, 0, 83, 67
1, 62833, Note_off_c, 0, 83, 63
1, 62841, Note_on_c, 0, 85, 59
1, 62859, Note_off_c, 0, 85, 61
1, 62886, Note_on_c, 0, 85, 90
1, 62919, Poly_aftertouch_c, 0, 83, 127
1, 62923, Note_off_c, 0, 85, 65
1, 62973, Poly_aftertouch_c, 0, 83, 0
1, 63003, Note_on_c, 0, 70, 97
1, 63381, Note_on_c, 0, 71, 90
1, 63402, Note_off_c, 0, 70, 55
1, 65094, Control_c, 0, 64, 118
1, 65108, Control_c, 0, 64, 106
1, 65123, Control_c, 0, 64, 96
1, 65138, Control_c, 0, 64, 86
1, 65153, Control_c, 0, 64, 77
1, 65168, Control_c, 0, 64, 69
1, 65182, Control_c, 0, 64, 59
1, 65197, Control_c, 0, 64, 49
1, 65212, Control_c, 0, 64, 39
1, 65227, Control_c, 0, 64, 0
1, 65753, Control_c, 0, 64, 35
1, 65768, Control_c, 0, 64, 43
1, 65782, Control_c, 0, 64, 52
1, 65797, Control_c, 0, 64, 61
1, 65812, Control_c, 0, 64, 63
1, 65826, Control_c, 0, 64, 64
1, 65841, Control_c, 0, 64, 65
1, 65858, Control_c, 0, 64, 67
1, 65872, Control_c, 0, 64, 69
1, 65887, Control_c, 0, 64, 71
1, 65902, Control_c, 0, 64, 73
1, 65917, Control_c, 0, 64, 76
1, 65931, Control_c, 0, 64, 80
1, 65946, Control_c, 0, 64, 85
1, 65961, Control_c, 0, 64, 89
1, 65976, Control_c, 0, 64, 94
1, 65991, Control_c, 0, 64, 101
1, 66005, Control_c, 0, 64, 115
1, 66020, Control_c, 0, 64, 127
1, 66035, Note_off_c, 0, 71, 44
1, 66640, Note_on_c, 0, 61, 49
1, 66814, Control_c, 0, 64, 115
1, 66828, Control_c, 0, 64, 108
1, 66843, Control_c, 0, 64, 104
1, 66858, Control_c, 0, 64, 101
1, 66880, Control_c, 0, 64, 98
1, 66910, Control_c, 0, 64, 95
1, 66925, Control_c, 0, 64, 93
1, 66940, Control_c, 0, 64, 91
1, 66949, Note_on_c, 0, 62, 51
1, 66954, Control_c, 0, 64, 90
1, 66969, Control_c, 0, 64, 89
1, 66976, Note_off_c, 0, 61, 38
1, 66984, Control_c, 0, 64, 88
1, 66999, Control_c, 0, 64, 86
1, 67014, Control_c, 0, 64, 84
1, 67028, Control_c, 0, 64, 83
1, 67043, Control_c, 0, 64, 82
1, 67058, Control_c, 0, 64, 81
1, 67073, Control_c, 0, 64, 80
1, 67087, Control_c, 0, 64, 79
1, 67102, Control_c, 0, 64, 77
1, 67117, Control_c, 0, 64, 76
1, 67132, Control_c, 0, 64, 74
1, 67147, Control_c, 0, 64, 72
1, 67161, Control_c, 0, 64, 70
1, 67164, Note_off_c, 0, 62, 59
1, 67166, Note_on_c, 0, 66, 52
1, 67176, Control_c, 0, 64, 68
1, 67191, Control_c, 0, 64, 66
1, 67206, Control_c, 0, 64, 63
1, 67222, Control_c, 0, 64, 60
1, 67222, Control_c, 0, 67, 36
1, 67236, Control_c, 0, 64, 58
1, 67251, Control_c, 0, 64, 57
1, 67295, Control_c, 0, 67, 36
1, 67310, Control_c, 0, 64, 57
1, 67325, Control_c, 0, 64, 56
1, 67384, Control_c, 0, 67, 0
1, 67444, Control_c, 0, 64, 56
1, 67463, Note_on_c, 0, 56, 37
1, 67468, Note_on_c, 0, 62, 33
1, 67474, Control_c, 0, 64, 55
1, 67533, Control_c, 0, 64, 55
1, 67578, Control_c, 0, 64, 55
1, 67593, Control_c, 0, 64, 56
1, 67608, Control_c, 0, 64, 57
1, 67630, Control_c, 0, 64, 59
1, 67645, Control_c, 0, 64, 62
1, 67651, Note_on_c, 0, 70, 59
1, 67659, Control_c, 0, 64, 65
1, 67674, Control_c, 0, 64, 69
1, 67689, Control_c, 0, 64, 73
1, 67703, Control_c, 0, 64, 77
1, 67718, Control_c, 0, 64, 81
1, 67733, Control_c, 0, 64, 86
1, 67748, Control_c, 0, 64, 92
1, 67763, Control_c, 0, 64, 100
1, 67778, Control_c, 0, 64, 114
1, 67793, Control_c, 0, 64, 127
1, 67860, Note_off_c, 0, 70, 33
1, 68010, Note_on_c, 0, 71, 63
1, 68133, Control_c, 0, 64, 94
1, 68147, Control_c, 0, 64, 77
1, 68162, Control_c, 0, 64, 64
1, 68177, Control_c, 0, 64, 50
1, 68192, Control_c, 0, 64, 34
1, 68207, Control_c, 0, 64, 0
1, 68236, Control_c, 0, 64, 41
1, 68252, Control_c, 0, 64, 57
1, 68267, Control_c, 0, 64, 66
1, 68282, Control_c, 0, 64, 73
1, 68297, Control_c, 0, 64, 80
1, 68311, Control_c, 0, 64, 83
1, 68326, Control_c, 0, 64, 87
1, 68341, Control_c, 0, 64, 91
1, 68356, Control_c, 0, 64, 97
1, 68378, Control_c, 0, 64, 104
1, 68393, Control_c, 0, 64, 115
1, 68407, Control_c, 0, 64, 127
1, 68626, Note_off_c, 0, 66, 37
1, 68720, Note_off_c, 0, 62, 38
1, 68851, Note_on_c, 0, 67, 64
1, 69089, Control_c, 0, 64, 117
1, 69095, Note_on_c, 0, 66, 50
1, 69101, Note_off_c, 0, 67, 56
1, 69104, Control_c, 0, 64, 85
1, 69127, Control_c, 0, 64, 69
1, 69135, Note_off_c, 0, 71, 58
1, 69138, Note_off_c, 0, 56, 47
1, 69139, Note_on_c, 0, 70, 57
1, 69142, Control_c, 0, 64, 62
1, 69156, Control_c, 0, 64, 63
1, 69171, Control_c, 0, 64, 67
1, 69186, Control_c, 0, 64, 74
1, 69201, Control_c, 0, 64, 81
1, 69216, Control_c, 0, 64, 84
1, 69230, Control_c, 0, 64, 85
1, 69313, Note_on_c, 0, 65, 66
1, 69319, Note_off_c, 0, 70, 61
1, 69327, Note_on_c, 0, 61, 48
1, 69349, Note_on_c, 0, 59, 42
1, 69382, Note_off_c, 0, 66, 38
1, 69394, Control_c, 0, 64, 84
1, 69408, Control_c, 0, 64, 84
1, 69423, Control_c, 0, 64, 81
1, 69438, Control_c, 0, 64, 73
1, 69453, Control_c, 0, 64, 61
1, 69468, Control_c, 0, 64, 32
1, 69471, Note_on_c, 0, 70, 82
1, 69482, Control_c, 0, 64, 0
1, 69527, Control_c, 0, 64, 32
1, 69542, Control_c, 0, 64, 53
1, 69556, Control_c, 0, 64, 69
1, 69571, Control_c, 0, 64, 92
1, 69586, Control_c, 0, 64, 127
1, 69638, Note_off_c, 0, 70, 56
1, 69811, Note_on_c, 0, 71, 76
1, 69950, Control_c, 0, 64, 97
1, 69965, Control_c, 0, 64, 77
1, 69979, Control_c, 0, 64, 60
1, 69994, Control_c, 0, 64, 37
1, 70009, Control_c, 0, 64, 0
1, 70068, Control_c, 0, 64, 37
1, 70083, Control_c, 0, 64, 51
1, 70097, Control_c, 0, 64, 62
1, 70112, Control_c, 0, 64, 69
1, 70127, Control_c, 0, 64, 75
1, 70142, Control_c, 0, 64, 79
1, 70157, Control_c, 0, 64, 82
1, 70172, Control_c, 0, 64, 85
1, 70186, Control_c, 0, 64, 90
1, 70201, Control_c, 0, 64, 97
1, 70217, Control_c, 0, 64, 105
1, 70231, Control_c, 0, 64, 127
1, 70577, Note_on_c, 0, 66, 75
1, 70602, Control_c, 0, 64, 89
1, 70613, Note_off_c, 0, 65, 60
1, 70624, Control_c, 0, 64, 65
1, 70639, Control_c, 0, 64, 49
1, 70648, Note_on_c, 0, 70, 82
1, 70654, Control_c, 0, 64, 51
1, 70661, Note_off_c, 0, 71, 60
1, 70669, Control_c, 0, 64, 60
1, 70684, Control_c, 0, 64, 71
1, 70699, Control_c, 0, 64, 101
1, 70714, Control_c, 0, 64, 127
1, 70737, Note_off_c, 0, 61, 62
1, 70759, Note_off_c, 0, 59, 53
1, 70769, Note_on_c, 0, 65, 79
1, 70777, Note_off_c, 0, 70, 63
1, 70851, Note_off_c, 0, 65, 62
1, 70854, Note_on_c, 0, 64, 84
1, 70881, Note_off_c, 0, 66, 63
1, 71069, Control_c, 0, 64, 120
1, 71075, Note_on_c, 0, 68, 89
1, 71084, Control_c, 0, 64, 109
1, 71096, Note_on_c, 0, 62, 59
1, 71099, Control_c, 0, 64, 101
1, 71114, Control_c, 0, 64, 93
1, 71128, Control_c, 0, 64, 83
1, 71143, Control_c, 0, 64, 73
1, 71158, Control_c, 0, 64, 63
1, 71173, Control_c, 0, 64, 46
1, 71188, Control_c, 0, 64, 0
1, 71247, Control_c, 0, 64, 41
1, 71262, Note_on_c, 0, 70, 93
1, 71262, Control_c, 0, 64, 60
1, 71277, Control_c, 0, 64, 72
1, 71292, Control_c, 0, 64, 84
1, 71307, Control_c, 0, 64, 101
1, 71321, Control_c, 0, 64, 115
1, 71336, Control_c, 0, 64, 127
1, 71465, Note_off_c, 0, 70, 56
1, 71678, Note_on_c, 0, 71, 90
1, 71818, Control_c, 0, 64, 87
1, 71833, Control_c, 0, 64, 69
1, 71848, Control_c, 0, 64, 51
1, 71863, Control_c, 0, 64, 0
1, 71922, Control_c, 0, 64, 37
1, 71937, Control_c, 0, 64, 52
1, 71951, Control_c, 0, 64, 64
1, 71966, Control_c, 0, 64, 71
1, 71981, Control_c, 0, 64, 77
1, 71996, Control_c, 0, 64, 82
1, 72011, Control_c, 0, 64, 87
1, 72026, Control_c, 0, 64, 98
1, 72041, Control_c, 0, 64, 115
1, 72055, Control_c, 0, 64, 127
1, 72367, Note_off_c, 0, 71, 34
1, 72690, Note_on_c, 0, 70, 60
1, 72825, Note_off_c, 0, 70, 62
1, 73138, Control_c, 0, 64, 114
1, 73152, Control_c, 0, 64, 101
1, 73167, Control_c, 0, 64, 92
1, 73182, Control_c, 0, 64, 85
1, 73197, Control_c, 0, 64, 79
1, 73212, Control_c, 0, 64, 75
1, 73227, Control_c, 0, 64, 71
1, 73241, Control_c, 0, 64, 65
1, 73256, Control_c, 0, 64, 61
1, 73271, Control_c, 0, 64, 58
1, 73286, Control_c, 0, 64, 57
1, 73301, Control_c, 0, 64, 55
1, 73315, Control_c, 0, 64, 52
1, 73330, Control_c, 0, 64, 48
1, 73345, Control_c, 0, 64, 42
1, 73360, Control_c, 0, 64, 37
1, 73375, Control_c, 0, 64, 33
1, 73389, Control_c, 0, 64, 31
1, 73433, Control_c, 0, 64, 32
1, 73448, Control_c, 0, 64, 36
1, 73463, Control_c, 0, 64, 42
1, 73478, Control_c, 0, 64, 49
1, 73493, Control_c, 0, 64, 54
1, 73507, Control_c, 0, 64, 58
1, 73522, Control_c, 0, 64, 61
1, 73537, Control_c, 0, 64, 63
1, 73552, Control_c, 0, 64, 65
1, 73567, Control_c, 0, 64, 67
1, 73582, Control_c, 0, 64, 68
1, 73597, Control_c, 0, 64, 70
1, 73619, Control_c, 0, 64, 72
1, 73634, Control_c, 0, 64, 74
1, 73648, Control_c, 0, 64, 76
1, 73663, Control_c, 0, 64, 79
1, 73678, Control_c, 0, 64, 81
1, 73693, Control_c, 0, 64, 83
1, 73702, Note_on_c, 0, 70, 58
1, 73708, Control_c, 0, 64, 85
1, 73722, Control_c, 0, 64, 88
1, 73737, Control_c, 0, 64, 92
1, 73752, Control_c, 0, 64, 96
1, 73766, Control_c, 0, 64, 103
1, 73781, Control_c, 0, 64, 108
1, 73796, Control_c, 0, 64, 113
1, 73811, Control_c, 0, 64, 117
1, 73826, Control_c, 0, 64, 119
1, 73852, Note_off_c, 0, 70, 29
1, 74065, Note_on_c, 0, 71, 51
1, 74109, Control_c, 0, 64, 117
1, 74124, Control_c, 0, 64, 115
1, 74139, Control_c, 0, 64, 110
1, 74154, Control_c, 0, 64, 97
1, 74169, Control_c, 0, 64, 81
1, 74184, Control_c, 0, 64, 68
1, 74199, Control_c, 0, 64, 56
1, 74213, Control_c, 0, 64, 40
1, 74228, Control_c, 0, 64, 0
1, 74272, Control_c, 0, 64, 41
1, 74287, Control_c, 0, 64, 51
1, 74302, Control_c, 0, 64, 61
1, 74317, Control_c, 0, 64, 67
1, 74331, Control_c, 0, 64, 72
1, 74346, Control_c, 0, 64, 76
1, 74369, Control_c, 0, 64, 80
1, 74384, Control_c, 0, 64, 84
1, 74398, Control_c, 0, 64, 89
1, 74413, Control_c, 0, 64, 96
1, 74428, Control_c, 0, 64, 103
1, 74443, Control_c, 0, 64, 116
1, 74458, Control_c, 0, 64, 127
1, 74473, Note_off_c, 0, 71, 31
1, 74494, Note_off_c, 0, 64, 52
1, 74536, Note_off_c, 0, 62, 37
1, 74562, Note_off_c, 0, 68, 38
1, 75175, Note_on_c, 0, 70, 46
1, 75350, Note_off_c, 0, 70, 39
1, 75537, Note_on_c, 0, 68, 43
1, 75538, Note_on_c, 0, 64, 42
1, 75607, Control_c, 0, 64, 106
1, 75622, Control_c, 0, 64, 94
1, 75636, Control_c, 0, 64, 86
1, 75651, Control_c, 0, 64, 80
1, 75666, Control_c, 0, 64, 75
1, 75681, Control_c, 0, 64, 70
1, 75696, Control_c, 0, 64, 64
1, 75710, Control_c, 0, 64, 60
1, 75725, Control_c, 0, 64, 58
1, 75740, Control_c, 0, 64, 57
1, 75755, Control_c, 0, 64, 56
1, 75758, Note_on_c, 0, 70, 58
1, 75770, Control_c, 0, 64, 56
1, 75785, Control_c, 0, 64, 55
1, 75799, Control_c, 0, 64, 54
1, 75814, Control_c, 0, 64, 53
1, 76008, Note_on_c, 0, 71, 48
1, 76014, Control_c, 0, 64, 53
1, 76029, Control_c, 0, 64, 52
1, 76035, Note_off_c, 0, 70, 46
1, 76074, Control_c, 0, 64, 52
1, 76089, Control_c, 0, 64, 51
1, 76104, Control_c, 0, 64, 51
1, 76148, Control_c, 0, 64, 51
1, 76162, Control_c, 0, 64, 52
1, 76177, Control_c, 0, 64, 55
1, 76192, Control_c, 0, 64, 58
1, 76206, Control_c, 0, 64, 61
1, 76221, Control_c, 0, 64, 64
1, 76237, Control_c, 0, 64, 67
1, 76252, Control_c, 0, 64, 70
1, 76266, Control_c, 0, 64, 73
1, 76281, Control_c, 0, 64, 75
1, 76296, Control_c, 0, 64, 78
1, 76311, Control_c, 0, 64, 83
1, 76326, Control_c, 0, 64, 89
1, 76340, Control_c, 0, 64, 95
1, 76355, Control_c, 0, 64, 104
1, 76356, Note_off_c, 0, 64, 34
1, 76370, Control_c, 0, 64, 117
1, 76374, Note_off_c, 0, 68, 38
1, 76385, Control_c, 0, 64, 127
1, 76718, Control_c, 0, 67, 37
1, 76733, Control_c, 0, 67, 58
1, 76747, Control_c, 0, 67, 68
1, 76762, Control_c, 0, 67, 83
1, 76777, Control_c, 0, 67, 118
1, 76792, Control_c, 0, 67, 127
1, 76880, Note_on_c, 0, 70, 54
1, 76890, Note_off_c, 0, 71, 58
1, 77227, Note_on_c, 0, 71, 51
1, 77238, Note_off_c, 0, 70, 60
1, 77251, Note_on_c, 0, 65, 38
1, 77251, Note_on_c, 0, 67, 41
1, 77296, Control_c, 0, 64, 95
1, 77311, Control_c, 0, 64, 75
1, 77326, Control_c, 0, 64, 59
1, 77341, Control_c, 0, 64, 46
1, 77363, Control_c, 0, 64, 40
1, 77378, Control_c, 0, 64, 43
1, 77393, Control_c, 0, 64, 51
1, 77408, Control_c, 0, 64, 60
1, 77422, Control_c, 0, 64, 68
1, 77437, Control_c, 0, 64, 82
1, 77451, Note_on_c, 0, 74, 70
1, 77452, Control_c, 0, 64, 97
1, 77464, Note_off_c, 0, 71, 58
1, 77467, Control_c, 0, 64, 110
1, 77482, Control_c, 0, 64, 127
1, 77511, Control_c, 0, 67, 98
1, 77526, Control_c, 0, 67, 66
1, 77541, Control_c, 0, 67, 0
1, 77585, Note_off_c, 0, 67, 25
1, 77589, Note_off_c, 0, 65, 38
1, 77609, Note_off_c, 0, 74, 35
1, 77640, Note_on_c, 0, 76, 66
1, 77779, Note_off_c, 0, 76, 54
1, 78455, Note_on_c, 0, 74, 52
1, 78614, Note_off_c, 0, 74, 63
1, 78968, Note_on_c, 0, 74, 44
1, 78993, Control_c, 0, 64, 106
1, 79002, Note_on_c, 0, 68, 34
1, 79008, Control_c, 0, 64, 78
1, 79013, Note_on_c, 0, 70, 32
1, 79023, Control_c, 0, 64, 60
1, 79038, Control_c, 0, 64, 40
1, 79052, Control_c, 0, 64, 32
1, 79067, Control_c, 0, 64, 42
1, 79082, Control_c, 0, 64, 57
1, 79097, Control_c, 0, 64, 68
1, 79112, Control_c, 0, 64, 82
1, 79127, Control_c, 0, 64, 107
1, 79141, Control_c, 0, 64, 127
1, 79221, Note_off_c, 0, 74, 64
1, 79297, Note_off_c, 0, 70, 42
1, 79304, Note_off_c, 0, 68, 39
1, 79862, Note_on_c, 0, 79, 61
1, 79937, Note_off_c, 0, 79, 62
1, 80980, Note_on_c, 0, 74, 58
1, 81183, Note_on_c, 0, 72, 58
1, 81189, Note_off_c, 0, 74, 55
1, 81255, Control_c, 0, 64, 114
1, 81270, Control_c, 0, 64, 98
1, 81285, Control_c, 0, 64, 89
1, 81300, Control_c, 0, 64, 81
1, 81308, Note_off_c, 0, 72, 60
1, 81315, Control_c, 0, 64, 72
1, 81326, Note_on_c, 0, 67, 53
1, 81329, Control_c, 0, 64, 66
1, 81344, Control_c, 0, 64, 61
1, 81359, Control_c, 0, 64, 58
1, 81374, Control_c, 0, 64, 56
1, 81389, Control_c, 0, 64, 55
1, 81404, Control_c, 0, 64, 54
1, 81418, Control_c, 0, 64, 51
1, 81433, Control_c, 0, 64, 47
1, 81448, Control_c, 0, 64, 41
1, 81463, Control_c, 0, 64, 31
1, 81478, Control_c, 0, 64, 0
1, 81622, Note_off_c, 0, 67, 55
1, 81627, Note_on_c, 0, 68, 52
1, 81717, Note_off_c, 0, 68, 59
1, 81739, Note_on_c, 0, 71, 42
1, 81872, Control_c, 0, 64, 29
1, 81886, Control_c, 0, 64, 39
1, 81901, Control_c, 0, 64, 50
1, 81916, Control_c, 0, 64, 60
1, 81931, Control_c, 0, 64, 63
1, 81946, Control_c, 0, 64, 64
1, 81960, Control_c, 0, 64, 64
1, 81975, Control_c, 0, 64, 65
1, 81990, Control_c, 0, 64, 67
1, 82004, Control_c, 0, 64, 69
1, 82019, Control_c, 0, 64, 72
1, 82034, Control_c, 0, 64, 76
1, 82049, Control_c, 0, 64, 81
1, 82064, Control_c, 0, 64, 88
1, 82078, Control_c, 0, 64, 97
1, 82093, Control_c, 0, 64, 110
1, 82108, Control_c, 0, 64, 127
1, 82345, Note_off_c, 0, 71, 27
1, 82617, Note_on_c, 0, 68, 50
1, 82771, Note_off_c, 0, 68, 35
1, 82989, Control_c, 0, 67, 39
1, 83004, Control_c, 0, 67, 52
1, 83019, Control_c, 0, 67, 55
1, 83034, Control_c, 0, 67, 56
1, 83049, Control_c, 0, 67, 57
1, 83062, Note_on_c, 0, 68, 43
1, 83064, Control_c, 0, 67, 58
1, 83079, Control_c, 0, 67, 63
1, 83094, Control_c, 0, 67, 78
1, 83103, Note_off_c, 0, 68, 61
1, 83108, Control_c, 0, 67, 97
1, 83123, Control_c, 0, 67, 124
1, 83138, Control_c, 0, 67, 127
1, 83332, Note_on_c, 0, 72, 48
1, 83383, Note_on_c, 0, 68, 29
1, 83412, Control_c, 0, 64, 117
1, 83428, Control_c, 0, 64, 100
1, 83443, Control_c, 0, 64, 88
1, 83457, Control_c, 0, 64, 76
1, 83472, Control_c, 0, 64, 68
1, 83487, Control_c, 0, 64, 60
1, 83502, Control_c, 0, 64, 51
1, 83517, Control_c, 0, 64, 44
1, 83528, Note_on_c, 0, 74, 60
1, 83531, Control_c, 0, 64, 34
1, 83546, Control_c, 0, 64, 0
1, 83605, Control_c, 0, 67, 98
1, 83620, Control_c, 0, 64, 35
1, 83620, Control_c, 0, 67, 45
1, 83635, Control_c, 0, 64, 46
1, 83635, Control_c, 0, 67, 0
1, 83649, Control_c, 0, 64, 55
1, 83664, Control_c, 0, 64, 58
1, 83679, Control_c, 0, 64, 58
1, 83724, Control_c, 0, 64, 57
1, 83739, Control_c, 0, 64, 56
1, 83754, Note_on_c, 0, 75, 67
1, 83754, Control_c, 0, 64, 53
1, 83762, Note_off_c, 0, 74, 57
1, 83769, Control_c, 0, 64, 50
1, 83783, Control_c, 0, 64, 46
1, 83798, Control_c, 0, 64, 39
1, 83813, Control_c, 0, 64, 0
1, 83887, Control_c, 0, 64, 44
1, 83902, Control_c, 0, 64, 57
1, 83917, Control_c, 0, 64, 65
1, 83931, Control_c, 0, 64, 70
1, 83946, Control_c, 0, 64, 75
1, 83961, Control_c, 0, 64, 81
1, 83976, Control_c, 0, 64, 88
1, 83991, Control_c, 0, 64, 97
1, 83996, Note_off_c, 0, 75, 62
1, 84006, Control_c, 0, 64, 110
1, 84021, Control_c, 0, 64, 127
1, 84295, Note_off_c, 0, 68, 31
1, 84587, Note_off_c, 0, 72, 39
1, 84665, Note_on_c, 0, 74, 71
1, 84936, Note_on_c, 0, 69, 27
1, 84946, Note_on_c, 0, 71, 40
1, 84998, Note_on_c, 0, 75, 56
1, 85044, Control_c, 0, 64, 102
1, 85059, Control_c, 0, 64, 81
1, 85068, Note_off_c, 0, 74, 37
1, 85074, Control_c, 0, 64, 64
1, 85089, Control_c, 0, 64, 38
1, 85103, Control_c, 0, 64, 0
1, 85148, Control_c, 0, 64, 37
1, 85162, Control_c, 0, 64, 54
1, 85177, Control_c, 0, 64, 66
1, 85178, Note_on_c, 0, 78, 62
1, 85192, Control_c, 0, 64, 77
1, 85207, Control_c, 0, 64, 85
1, 85222, Control_c, 0, 64, 88
1, 85225, Note_off_c, 0, 75, 56
1, 85237, Control_c, 0, 64, 89
1, 85252, Control_c, 0, 64, 91
1, 85267, Control_c, 0, 64, 91
1, 85282, Control_c, 0, 64, 92
1, 85296, Control_c, 0, 64, 93
1, 85311, Control_c, 0, 64, 93
1, 85326, Control_c, 0, 64, 94
1, 85341, Control_c, 0, 64, 95
1, 85350, Note_on_c, 0, 80, 67
1, 85369, Note_off_c, 0, 78, 47
1, 85370, Control_c, 0, 64, 96
1, 85400, Control_c, 0, 64, 99
1, 85415, Control_c, 0, 64, 102
1, 85429, Control_c, 0, 64, 107
1, 85444, Control_c, 0, 64, 118
1, 85459, Control_c, 0, 64, 127
1, 85493, Note_off_c, 0, 71, 33
1, 85525, Note_off_c, 0, 69, 37
1, 85938, Note_off_c, 0, 80, 35
1, 85956, Control_c, 0, 67, 36
1, 85970, Control_c, 0, 67, 43
1, 85985, Control_c, 0, 67, 50
1, 86000, Control_c, 0, 67, 57
1, 86015, Control_c, 0, 67, 67
1, 86030, Control_c, 0, 67, 86
1, 86045, Control_c, 0, 67, 116
1, 86060, Control_c, 0, 67, 127
1, 86255, Note_on_c, 0, 78, 52
1, 86391, Note_off_c, 0, 78, 51
1, 86782, Note_on_c, 0, 78, 50
1, 86805, Note_on_c, 0, 74, 34
1, 86810, Note_on_c, 0, 72, 30
1, 86838, Control_c, 0, 64, 103
1, 86853, Control_c, 0, 64, 79
1, 86868, Control_c, 0, 64, 61
1, 86882, Control_c, 0, 64, 34
1, 86897, Control_c, 0, 64, 0
1, 86927, Control_c, 0, 64, 32
1, 86942, Control_c, 0, 64, 50
1, 86957, Control_c, 0, 64, 64
1, 86972, Control_c, 0, 64, 75
1, 86987, Control_c, 0, 64, 87
1, 87001, Control_c, 0, 64, 93
1, 87016, Control_c, 0, 64, 96
1, 87016, Control_c, 0, 67, 91
1, 87024, Note_off_c, 0, 78, 60
1, 87031, Control_c, 0, 64, 101
1, 87031, Control_c, 0, 67, 49
1, 87046, Control_c, 0, 64, 110
1, 87046, Control_c, 0, 67, 0
1, 87061, Control_c, 0, 64, 127
1, 87074, Note_off_c, 0, 74, 39
1, 87086, Note_off_c, 0, 72, 38
1, 87631, Note_on_c, 0, 83, 62
1, 87698, Note_off_c, 0, 83, 63
1, 88874, Note_on_c, 0, 78, 58
1, 89035, Note_off_c, 0, 78, 56
1, 89041, Control_c, 0, 64, 119
1, 89056, Control_c, 0, 64, 111
1, 89058, Note_on_c, 0, 76, 56
1, 89070, Control_c, 0, 64, 104
1, 89085, Control_c, 0, 64, 98
1, 89100, Control_c, 0, 64, 91
1, 89100, Control_c, 0, 67, 36
1, 89114, Control_c, 0, 64, 84
1, 89114, Control_c, 0, 67, 44
1, 89129, Control_c, 0, 64, 79
1, 89129, Control_c, 0, 67, 58
1, 89144, Control_c, 0, 64, 74
1, 89144, Control_c, 0, 67, 71
1, 89159, Control_c, 0, 64, 70
1, 89159, Control_c, 0, 67, 81
1, 89174, Control_c, 0, 64, 65
1, 89174, Control_c, 0, 67, 93
1, 89188, Control_c, 0, 64, 61
1, 89188, Control_c, 0, 67, 113
1, 89202, Note_off_c, 0, 76, 60
1, 89203, Control_c, 0, 64, 58
1, 89203, Control_c, 0, 67, 127
1, 89205, Note_on_c, 0, 71, 53
1, 89218, Control_c, 0, 64, 57
1, 89233, Control_c, 0, 64, 56
1, 89248, Control_c, 0, 64, 54
1, 89262, Control_c, 0, 64, 52
1, 89277, Control_c, 0, 64, 48
1, 89292, Control_c, 0, 64, 42
1, 89306, Control_c, 0, 64, 33
1, 89321, Control_c, 0, 64, 0
1, 89528, Note_off_c, 0, 71, 52
1, 89532, Note_on_c, 0, 72, 48
1, 89621, Note_off_c, 0, 72, 57
1, 89637, Note_on_c, 0, 75, 49
1, 89802, Control_c, 0, 64, 33
1, 89818, Control_c, 0, 64, 42
1, 89833, Control_c, 0, 64, 50
1, 89848, Control_c, 0, 64, 58
1, 89863, Control_c, 0, 64, 62
1, 89878, Control_c, 0, 64, 64
1, 89892, Control_c, 0, 64, 65
1, 89907, Control_c, 0, 64, 67
1, 89922, Control_c, 0, 64, 70
1, 89936, Control_c, 0, 64, 74
1, 89941, Note_off_c, 0, 75, 54
1, 89951, Control_c, 0, 64, 78
1, 89966, Control_c, 0, 64, 84
1, 89981, Control_c, 0, 64, 95
1, 89996, Control_c, 0, 64, 110
1, 90010, Control_c, 0, 64, 127
1, 90136, Control_c, 0, 67, 122
1, 90151, Control_c, 0, 67, 95
1, 90166, Control_c, 0, 67, 72
1, 90181, Control_c, 0, 67, 52
1, 90196, Control_c, 0, 67, 0
1, 90582, Note_on_c, 0, 84, 56
1, 90680, Note_off_c, 0, 84, 64
1, 90963, Note_on_c, 0, 84, 59
1, 91002, Note_off_c, 0, 84, 49
1, 91088, Note_on_c, 0, 84, 49
1, 91124, Note_off_c, 0, 84, 64
1, 91136, Note_on_c, 0, 86, 59
1, 91137, Control_c, 0, 67, 37
1, 91152, Control_c, 0, 67, 52
1, 91166, Control_c, 0, 67, 80
1, 91169, Note_off_c, 0, 86, 67
1, 91181, Control_c, 0, 67, 117
1, 91196, Control_c, 0, 67, 127
1, 91200, Note_on_c, 0, 84, 60
1, 91232, Note_off_c, 0, 84, 64
1, 91256, Note_on_c, 0, 86, 44
1, 91282, Note_off_c, 0, 86, 54
1, 91295, Note_on_c, 0, 84, 60
1, 91322, Note_off_c, 0, 84, 68
1, 91325, Note_on_c, 0, 86, 72
1, 91369, Note_off_c, 0, 86, 60
1, 91382, Note_on_c, 0, 84, 76
1, 91402, Note_off_c, 0, 84, 73
1, 91403, Note_on_c, 0, 71, 76
1, 91609, Note_off_c, 0, 71, 54
1, 91634, Note_on_c, 0, 66, 67
1, 91664, Note_off_c, 0, 66, 66
1, 91795, Note_on_c, 0, 60, 64
1, 91924, Note_on_c, 0, 50, 63
1, 91930, Control_c, 0, 67, 125
1, 91934, Note_off_c, 0, 60, 64
1, 91945, Control_c, 0, 67, 121
1, 91960, Control_c, 0, 67, 111
1, 91975, Control_c, 0, 67, 70
1, 91984, Note_off_c, 0, 50, 63
1, 91989, Control_c, 0, 67, 0
1, 92040, Note_on_c, 0, 66, 74
1, 92174, Note_off_c, 0, 66, 62
1, 92201, Note_on_c, 0, 64, 76
1, 92314, Note_off_c, 0, 64, 62
1, 92367, Note_on_c, 0, 59, 78
1, 92518, Note_off_c, 0, 59, 53
1, 92664, Note_on_c, 0, 60, 82
1, 92698, Note_on_c, 0, 41, 48
1, 92746, Note_off_c, 0, 60, 57
1, 92755, Note_on_c, 0, 47, 53
1, 92798, Control_c, 0, 64, 92
1, 92812, Control_c, 0, 64, 66
1, 92827, Control_c, 0, 64, 30
1, 92830, Note_on_c, 0, 63, 78
1, 92842, Control_c, 0, 64, 0
1, 92856, Control_c, 0, 64, 32
1, 92864, Note_on_c, 0, 57, 63
1, 92871, Control_c, 0, 64, 50
1, 92886, Control_c, 0, 64, 67
1, 92889, Note_off_c, 0, 41, 63
1, 92901, Control_c, 0, 64, 84
1, 92904, Note_off_c, 0, 57, 65
1, 92908, Note_off_c, 0, 47, 63
1, 92916, Control_c, 0, 64, 127
1, 92919, Note_off_c, 0, 63, 67
1, 93101, Note_on_c, 0, 69, 62
1, 93128, Note_on_c, 0, 74, 68
1, 93166, Note_on_c, 0, 75, 76
1, 93175, Note_off_c, 0, 74, 63
1, 93179, Note_off_c, 0, 69, 59
1, 93200, Note_on_c, 0, 67, 82
1, 93379, Note_on_c, 0, 66, 93
1, 93390, Note_off_c, 0, 67, 56
1, 93394, Note_off_c, 0, 75, 55
1, 93534, Note_on_c, 0, 69, 57
1, 93562, Note_on_c, 0, 74, 63
1, 93616, Note_on_c, 0, 75, 66
1, 93621, Note_off_c, 0, 74, 63
1, 93631, Note_off_c, 0, 69, 49
1, 93703, Note_off_c, 0, 75, 58
1, 93759, Note_off_c, 0, 66, 58
1, 93810, Note_on_c, 0, 65, 64
1, 93882, Note_off_c, 0, 65, 62
1, 94063, Note_on_c, 0, 69, 40
1, 94102, Note_on_c, 0, 74, 47
1, 94142, Note_off_c, 0, 69, 41
1, 94150, Note_on_c, 0, 75, 55
1, 94150, Note_off_c, 0, 74, 59
1, 94177, Control_c, 0, 67, 41
1, 94192, Control_c, 0, 67, 58
1, 94207, Control_c, 0, 67, 84
1, 94207, Note_off_c, 0, 75, 64
1, 94221, Control_c, 0, 67, 116
1, 94236, Control_c, 0, 67, 127
1, 94588, Note_on_c, 0, 38, 44
1, 94612, Note_on_c, 0, 50, 30
1, 94660, Control_c, 0, 64, 95
1, 94671, Note_on_c, 0, 64, 63
1, 94675, Control_c, 0, 64, 62
1, 94689, Control_c, 0, 64, 0
1, 94694, Note_off_c, 0, 38, 62
1, 94699, Note_on_c, 0, 60, 32
1, 94704, Control_c, 0, 64, 29
1, 94707, Note_on_c, 0, 54, 44
1, 94719, Control_c, 0, 64, 45
1, 94733, Control_c, 0, 64, 63
1, 94737, Note_off_c, 0, 50, 61
1, 94748, Control_c, 0, 64, 81
1, 94762, Note_off_c, 0, 54, 63
1, 94763, Control_c, 0, 64, 127
1, 94778, Note_off_c, 0, 60, 59
1, 94811, Note_off_c, 0, 64, 65
1, 94862, Note_on_c, 0, 50, 57
1, 94912, Note_off_c, 0, 50, 61
1, 94931, Note_on_c, 0, 60, 60
1, 94968, Note_off_c, 0, 60, 64
1, 94979, Note_on_c, 0, 66, 89
1, 94999, Note_off_c, 0, 66, 72
1, 95044, Control_c, 0, 67, 120
1, 95059, Control_c, 0, 67, 97
1, 95074, Control_c, 0, 67, 65
1, 95089, Control_c, 0, 67, 0
1, 95102, Note_on_c, 0, 64, 61
1, 95123, Note_on_c, 0, 76, 83
1, 95176, Note_off_c, 0, 64, 62
1, 95226, Note_on_c, 0, 83, 95
1, 95278, Note_off_c, 0, 76, 61
1, 95318, Note_on_c, 0, 72, 62
1, 95356, Note_off_c, 0, 72, 63
1, 95379, Note_on_c, 0, 66, 65
1, 95410, Note_off_c, 0, 66, 67
1, 95488, Note_on_c, 0, 60, 66
1, 95570, Note_on_c, 0, 50, 65
1, 95578, Note_off_c, 0, 60, 61
1, 95586, Note_off_c, 0, 83, 52
1, 95596, Note_off_c, 0, 50, 66
1, 95691, Note_on_c, 0, 78, 90
1, 95820, Note_off_c, 0, 78, 58
1, 95860, Note_on_c, 0, 76, 93
1, 95934, Note_off_c, 0, 76, 61
1, 96010, Note_on_c, 0, 71, 93
1, 96134, Note_off_c, 0, 71, 59
1, 96214, Note_on_c, 0, 53, 52
1, 96264, Note_on_c, 0, 72, 85
1, 96294, Note_on_c, 0, 59, 57
1, 96320, Control_c, 0, 64, 83
1, 96335, Control_c, 0, 64, 49
1, 96350, Control_c, 0, 64, 0
1, 96389, Note_off_c, 0, 72, 58
1, 96394, Control_c, 0, 64, 43
1, 96409, Control_c, 0, 64, 69
1, 96411, Note_off_c, 0, 53, 62
1, 96414, Note_on_c, 0, 75, 80
1, 96424, Control_c, 0, 64, 91
1, 96430, Note_on_c, 0, 69, 67
1, 96430, Note_off_c, 0, 59, 64
1, 96439, Control_c, 0, 64, 127
1, 96456, Note_off_c, 0, 69, 68
1, 96463, Note_off_c, 0, 75, 66
1, 96624, Note_on_c, 0, 81, 64
1, 96645, Note_on_c, 0, 83, 66
1, 96664, Note_on_c, 0, 86, 81
1, 96681, Note_off_c, 0, 81, 63
1, 96693, Note_on_c, 0, 87, 84
1, 96697, Note_off_c, 0, 83, 64
1, 96702, Note_off_c, 0, 86, 62
1, 96713, Note_on_c, 0, 79, 90
1, 96904, Note_on_c, 0, 78, 93
1, 96916, Note_off_c, 0, 79, 53
1, 96931, Note_off_c, 0, 87, 55
1, 97062, Note_on_c, 0, 81, 56
1, 97094, Note_on_c, 0, 83, 57
1, 97125, Note_off_c, 0, 81, 56
1, 97125, Note_on_c, 0, 86, 64
1, 97160, Note_off_c, 0, 83, 61
1, 97160, Note_off_c, 0, 78, 46
1, 97161, Note_off_c, 0, 86, 61
1, 97167, Note_on_c, 0, 87, 62
1, 97302, Note_on_c, 0, 77, 72
1, 97349, Note_off_c, 0, 77, 63
1, 97503, Note_on_c, 0, 81, 53
1, 97503, Note_off_c, 0, 87, 62
1, 97530, Note_on_c, 0, 83, 52
1, 97568, Note_off_c, 0, 81, 52
1, 97584, Note_on_c, 0, 86, 56
1, 97611, Note_off_c, 0, 83, 54
1, 97649, Note_off_c, 0, 86, 65
1, 97655, Note_on_c, 0, 87, 60
1, 97698, Note_on_c, 0, 46, 51
1, 97727, Control_c, 0, 64, 104
1, 97742, Control_c, 0, 64, 63
1, 97757, Control_c, 0, 64, 0
1, 97782, Note_on_c, 0, 56, 55
1, 97803, Control_c, 0, 64, 47
1, 97809, Note_off_c, 0, 46, 62
1, 97818, Control_c, 0, 64, 67
1, 97832, Control_c, 0, 64, 90
1, 97847, Control_c, 0, 64, 127
1, 97867, Note_on_c, 0, 62, 65
1, 97871, Note_off_c, 0, 56, 61
1, 97899, Note_off_c, 0, 62, 66
1, 97964, Note_on_c, 0, 76, 87
1, 98010, Note_off_c, 0, 87, 54
1, 98106, Note_on_c, 0, 70, 93
1, 98369, Note_on_c, 0, 71, 87
1, 98373, Note_off_c, 0, 70, 60
1, 98428, Note_on_c, 0, 80, 65
1, 98451, Note_on_c, 0, 87, 75
1, 98502, Note_on_c, 0, 88, 84
1, 98511, Note_off_c, 0, 87, 65
1, 99197, Note_on_c, 0, 70, 70
1, 99205, Note_off_c, 0, 71, 55
1, 99223, Note_off_c, 0, 70, 69
1, 99343, Note_off_c, 0, 76, 60
1, 99405, Note_on_c, 0, 49, 73
1, 99479, Control_c, 0, 64, 90
1, 99494, Control_c, 0, 64, 59
1, 99509, Control_c, 0, 64, 0
1, 99512, Note_on_c, 0, 59, 74
1, 99553, Control_c, 0, 64, 53
1, 99563, Note_off_c, 0, 49, 64
1, 99568, Control_c, 0, 64, 75
1, 99583, Control_c, 0, 64, 127
1, 99619, Note_on_c, 0, 65, 85
1, 99626, Note_off_c, 0, 59, 63
1, 99674, Note_off_c, 0, 65, 62
1, 99686, Note_off_c, 0, 88, 40
1, 99714, Note_on_c, 0, 75, 89
1, 99736, Note_off_c, 0, 80, 62
1, 99835, Note_on_c, 0, 70, 101
1, 99998, Note_on_c, 0, 79, 47
1, 100001, Note_off_c, 0, 70, 65
1, 100006, Note_on_c, 0, 71, 94
1, 100064, Note_on_c, 0, 86, 68
1, 100088, Note_on_c, 0, 85, 50
1, 100101, Note_on_c, 0, 87, 92
1, 100112, Note_off_c, 0, 85, 38
1, 100133, Note_off_c, 0, 86, 66
1, 100723, Note_on_c, 0, 70, 85
1, 100732, Note_off_c, 0, 71, 46
1, 100751, Note_off_c, 0, 70, 66
1, 100971, Note_on_c, 0, 52, 73
1, 101021, Control_c, 0, 64, 109
1, 101036, Control_c, 0, 64, 64
1, 101051, Control_c, 0, 64, 0
1, 101077, Note_on_c, 0, 62, 76
1, 101088, Note_off_c, 0, 52, 63
1, 101095, Control_c, 0, 64, 59
1, 101110, Control_c, 0, 64, 127
1, 101158, Note_off_c, 0, 75, 55
1, 101181, Note_off_c, 0, 62, 63
1, 101191, Note_on_c, 0, 68, 98
1, 101227, Note_off_c, 0, 68, 70
1, 101293, Note_off_c, 0, 87, 50
1, 101349, Note_on_c, 0, 74, 97
1, 101382, Note_off_c, 0, 79, 60
1, 101509, Note_on_c, 0, 70, 101
1, 101781, Note_off_c, 0, 70, 61
1, 101783, Note_on_c, 0, 71, 100
1, 101839, Note_on_c, 0, 78, 71
1, 101864, Note_on_c, 0, 85, 81
1, 101915, Note_on_c, 0, 86, 84
1, 101933, Note_off_c, 0, 85, 64
1, 102619, Note_off_c, 0, 71, 29
1, 102672, Note_on_c, 0, 70, 71
1, 102726, Note_off_c, 0, 70, 65
1, 103385, Control_c, 0, 67, 36
1, 103400, Control_c, 0, 67, 42
1, 103415, Control_c, 0, 67, 46
1, 103430, Control_c, 0, 67, 52
1, 103444, Control_c, 0, 67, 61
1, 103459, Control_c, 0, 67, 69
1, 103474, Control_c, 0, 67, 79
1, 103489, Control_c, 0, 67, 101
1, 103504, Control_c, 0, 67, 125
1, 103519, Control_c, 0, 67, 127
1, 103555, Note_on_c, 0, 70, 64
1, 103707, Note_off_c, 0, 78, 51
1, 103728, Note_off_c, 0, 86, 56
1, 103927, Note_on_c, 0, 71, 60
1, 103930, Note_off_c, 0, 70, 43
1, 103964, Note_on_c, 0, 78, 57
1, 104002, Note_on_c, 0, 85, 57
1, 104038, Note_off_c, 0, 85, 60
1, 104054, Note_on_c, 0, 86, 57
1, 104785, Note_off_c, 0, 74, 35
1, 104846, Note_off_c, 0, 86, 38
1, 104936, Note_off_c, 0, 78, 37
1, 104947, Note_off_c, 0, 71, 56
1, 105186, Note_on_c, 0, 70, 49
1, 105284, Note_off_c, 0, 70, 63
1, 105453, Control_c, 0, 67, 125
1, 105467, Control_c, 0, 67, 91
1, 105482, Control_c, 0, 67, 69
1, 105497, Control_c, 0, 67, 60
1, 105512, Control_c, 0, 67, 47
1, 105527, Control_c, 0, 67, 0
1, 105832, Control_c, 0, 67, 39
1, 105846, Control_c, 0, 67, 60
1, 105861, Control_c, 0, 67, 91
1, 105876, Control_c, 0, 67, 127
1, 106422, Note_on_c, 0, 66, 54
1, 106439, Note_on_c, 0, 62, 40
1, 106443, Note_on_c, 0, 56, 43
1, 106454, Control_c, 0, 64, 93
1, 106464, Note_on_c, 0, 50, 36
1, 106467, Note_on_c, 0, 40, 36
1, 106469, Control_c, 0, 64, 64
1, 106483, Control_c, 0, 64, 39
1, 106498, Control_c, 0, 64, 32
1, 106513, Control_c, 0, 64, 42
1, 106528, Control_c, 0, 64, 59
1, 106543, Control_c, 0, 64, 74
1, 106562, Note_off_c, 0, 40, 59
1, 106565, Note_off_c, 0, 56, 62
1, 106565, Control_c, 0, 64, 106
1, 106580, Control_c, 0, 64, 127
1, 106580, Note_off_c, 0, 50, 63
1, 106600, Note_off_c, 0, 62, 60
1, 106625, Note_off_c, 0, 66, 63
1, 106904, Note_on_c, 0, 70, 68
1, 106937, Note_on_c, 0, 80, 47
1, 106949, Note_on_c, 0, 78, 42
1, 107014, Note_off_c, 0, 78, 47
1, 107042, Note_off_c, 0, 80, 33
1, 107114, Control_c, 0, 67, 111
1, 107129, Control_c, 0, 67, 56
1, 107144, Control_c, 0, 67, 0
1, 107155, Note_on_c, 0, 71, 79
1, 107157, Note_off_c, 0, 70, 62
1, 107164, Note_on_c, 0, 86, 61
1, 107170, Note_on_c, 0, 85, 58
1, 107217, Note_off_c, 0, 85, 52
1, 107226, Note_off_c, 0, 86, 63
1, 107528, Note_on_c, 0, 80, 57
1, 107534, Note_on_c, 0, 78, 54
1, 107572, Note_off_c, 0, 78, 61
1, 107623, Note_on_c, 0, 86, 66
1, 107627, Note_on_c, 0, 85, 59
1, 107656, Note_off_c, 0, 80, 27
1, 107687, Note_off_c, 0, 85, 58
1, 107701, Note_off_c, 0, 86, 62
1, 107919, Note_on_c, 0, 78, 60
1, 107927, Note_on_c, 0, 80, 52
1, 107963, Note_off_c, 0, 78, 53
1, 107966, Note_off_c, 0, 80, 60
1, 107997, Note_on_c, 0, 86, 63
1, 108007, Note_on_c, 0, 85, 56
1, 108063, Note_off_c, 0, 86, 62
1, 108066, Note_off_c, 0, 85, 53
1, 108333, Note_on_c, 0, 80, 50
1, 108337, Note_on_c, 0, 78, 44
1, 108382, Note_off_c, 0, 78, 53
1, 108439, Note_on_c, 0, 86, 52
1, 108464, Note_on_c, 0, 85, 41
1, 108479, Note_off_c, 0, 80, 36
1, 108644, Note_off_c, 0, 86, 39
1, 108687, Note_off_c, 0, 85, 54
1, 108711, Note_on_c, 0, 70, 75
1, 108714, Note_off_c, 0, 71, 48
1, 108736, Note_on_c, 0, 78, 55
1, 108740, Note_on_c, 0, 80, 59
1, 108756, Note_off_c, 0, 78, 60
1, 108885, Note_on_c, 0, 71, 88
1, 108887, Note_off_c, 0, 70, 65
1, 108896, Note_off_c, 0, 80, 61
1, 108920, Note_on_c, 0, 89, 73
1, 108929, Control_c, 0, 64, 69
1, 108931, Note_on_c, 0, 88, 63
1, 108944, Control_c, 0, 64, 0
1, 108989, Control_c, 0, 64, 54
1, 108992, Note_off_c, 0, 71, 66
1, 109004, Control_c, 0, 64, 83
1, 109019, Control_c, 0, 64, 127
1, 109022, Note_on_c, 0, 74, 92
1, 109034, Note_on_c, 0, 81, 79
1, 109037, Note_on_c, 0, 83, 79
1, 109038, Note_off_c, 0, 89, 45
1, 109040, Note_off_c, 0, 88, 58
1, 109120, Note_off_c, 0, 74, 64
1, 109133, Note_off_c, 0, 81, 44
1, 109145, Note_off_c, 0, 83, 57
1, 109159, Note_on_c, 0, 76, 96
1, 109162, Note_on_c, 0, 89, 77
1, 109166, Note_on_c, 0, 88, 76
1, 109269, Note_off_c, 0, 76, 58
1, 109379, Note_on_c, 0, 71, 71
1, 109405, Note_off_c, 0, 88, 61
1, 109406, Note_off_c, 0, 89, 59
1, 109410, Note_on_c, 0, 81, 53
1, 109411, Note_on_c, 0, 83, 65
1, 109459, Note_off_c, 0, 71, 61
1, 109475, Note_on_c, 0, 65, 57
1, 109502, Note_off_c, 0, 65, 65
1, 109508, Control_c, 0, 67, 42
1, 109515, Note_off_c, 0, 83, 59
1, 109516, Note_on_c, 0, 88, 69
1, 109518, Note_on_c, 0, 89, 74
1, 109523, Note_off_c, 0, 81, 44
1, 109523, Control_c, 0, 67, 57
1, 109538, Control_c, 0, 67, 80
1, 109560, Control_c, 0, 67, 116
1, 109575, Control_c, 0, 67, 127
1, 109633, Note_on_c, 0, 59, 56
1, 109668, Note_off_c, 0, 59, 64
1, 109699, Note_off_c, 0, 89, 57
1, 109704, Note_off_c, 0, 88, 60
1, 109706, Note_on_c, 0, 53, 54
1, 109718, Note_on_c, 0, 83, 63
1, 109724, Note_on_c, 0, 81, 53
1, 109762, Note_off_c, 0, 53, 57
1, 109767, Note_off_c, 0, 81, 58
1, 109767, Note_on_c, 0, 43, 57
1, 109788, Note_off_c, 0, 83, 49
1, 109805, Note_off_c, 0, 43, 64
1, 109813, Note_on_c, 0, 89, 60
1, 109821, Note_on_c, 0, 88, 54
1, 110050, Control_c, 0, 67, 106
1, 110065, Control_c, 0, 67, 73
1, 110077, Note_off_c, 0, 89, 57
1, 110080, Control_c, 0, 67, 37
1, 110082, Note_off_c, 0, 88, 60
1, 110095, Control_c, 0, 67, 0
1, 110110, Note_on_c, 0, 83, 55
1, 110122, Note_on_c, 0, 81, 48
1, 110158, Note_off_c, 0, 83, 53
1, 110166, Note_off_c, 0, 81, 55
1, 110180, Note_on_c, 0, 89, 78
1, 110183, Note_on_c, 0, 88, 75
1, 110366, Note_on_c, 0, 74, 97
1, 110390, Note_on_c, 0, 81, 80
1, 110390, Note_on_c, 0, 83, 82
1, 110413, Note_off_c, 0, 81, 68
1, 110417, Note_off_c, 0, 89, 58
1, 110425, Note_off_c, 0, 88, 54
1, 110437, Note_off_c, 0, 83, 64
1, 110545, Note_on_c, 0, 79, 96
1, 110581, Note_off_c, 0, 74, 61
1, 110666, Control_c, 0, 64, 85
1, 110680, Control_c, 0, 64, 57
1, 110695, Control_c, 0, 64, 0
1, 110715, Note_on_c, 0, 74, 78
1, 110754, Control_c, 0, 64, 63
1, 110769, Control_c, 0, 64, 91
1, 110784, Control_c, 0, 64, 127
1, 110796, Note_on_c, 0, 92, 75
1, 110805, Note_on_c, 0, 91, 67
1, 110845, Note_off_c, 0, 79, 59
1, 110855, Note_on_c, 0, 68, 68
1, 110874, Note_off_c, 0, 74, 63
1, 110888, Note_off_c, 0, 68, 61
1, 110912, Note_off_c, 0, 91, 62
1, 110917, Note_on_c, 0, 86, 75
1, 110920, Note_on_c, 0, 84, 73
1, 110927, Note_off_c, 0, 92, 50
1, 111040, Note_on_c, 0, 92, 76
1, 111043, Note_on_c, 0, 62, 67
1, 111043, Note_on_c, 0, 91, 65
1, 111046, Note_off_c, 0, 84, 56
1, 111060, Note_off_c, 0, 86, 59
1, 111088, Note_off_c, 0, 62, 57
1, 111132, Note_on_c, 0, 56, 67
1, 111200, Note_on_c, 0, 46, 76
1, 111209, Note_off_c, 0, 91, 63
1, 111211, Note_off_c, 0, 92, 58
1, 111221, Note_on_c, 0, 86, 63
1, 111222, Note_off_c, 0, 56, 62
1, 111225, Note_on_c, 0, 84, 65
1, 111225, Note_off_c, 0, 46, 66
1, 111308, Note_off_c, 0, 84, 45
1, 111320, Note_on_c, 0, 92, 74
1, 111333, Note_on_c, 0, 91, 59
1, 111353, Note_off_c, 0, 86, 50
1, 111543, Note_off_c, 0, 91, 64
1, 111546, Note_off_c, 0, 92, 60
1, 111567, Note_on_c, 0, 86, 58
1, 111577, Note_on_c, 0, 84, 54
1, 111633, Note_off_c, 0, 84, 48
1, 111642, Note_off_c, 0, 86, 60
1, 111643, Note_on_c, 0, 91, 64
1, 111647, Note_on_c, 0, 92, 75
1, 111761, Note_on_c, 0, 74, 91
1, 111828, Note_off_c, 0, 91, 61
1, 111830, Note_on_c, 0, 84, 67
1, 111831, Note_off_c, 0, 92, 61
1, 111832, Note_on_c, 0, 86, 70
1, 111937, Note_on_c, 0, 72, 96
1, 111949, Note_off_c, 0, 74, 57
1, 111991, Note_on_c, 0, 92, 74
1, 111992, Note_off_c, 0, 86, 58
1, 111994, Note_on_c, 0, 91, 64
1, 111998, Note_off_c, 0, 84, 34
1, 112080, Note_on_c, 0, 67, 86
1, 112117, Note_off_c, 0, 72, 56
1, 112159, Note_off_c, 0, 91, 63
1, 112172, Note_on_c, 0, 86, 79
1, 112172, Note_on_c, 0, 84, 79
1, 112172, Note_off_c, 0, 92, 62
1, 112206, Note_off_c, 0, 67, 60
1, 112226, Note_on_c, 0, 68, 90
1, 112287, Note_off_c, 0, 68, 68
1, 112320, Note_off_c, 0, 84, 58
1, 112367, Note_on_c, 0, 92, 74
1, 112370, Note_on_c, 0, 91, 64
1, 112375, Note_off_c, 0, 86, 57
1, 112392, Note_on_c, 0, 71, 95
1, 112488, Control_c, 0, 64, 76
1, 112503, Control_c, 0, 64, 43
1, 112518, Control_c, 0, 64, 0
1, 112570, Control_c, 0, 64, 49
1, 112584, Control_c, 0, 64, 68
1, 112599, Control_c, 0, 64, 91
1, 112614, Control_c, 0, 64, 127
1, 112623, Note_on_c, 0, 65, 63
1, 112631, Note_off_c, 0, 91, 61
1, 112644, Note_off_c, 0, 92, 61
1, 112647, Note_on_c, 0, 86, 58
1, 112658, Note_on_c, 0, 83, 53
1, 112662, Note_off_c, 0, 71, 56
1, 112718, Control_c, 0, 67, 41
1, 112722, Note_on_c, 0, 59, 61
1, 112733, Control_c, 0, 67, 57
1, 112733, Note_off_c, 0, 65, 61
1, 112748, Control_c, 0, 67, 80
1, 112751, Note_off_c, 0, 59, 65
1, 112757, Note_on_c, 0, 91, 64
1, 112757, Note_on_c, 0, 92, 71
1, 112763, Control_c, 0, 67, 119
1, 112766, Note_off_c, 0, 86, 56
1, 112778, Control_c, 0, 67, 127
1, 112789, Note_off_c, 0, 83, 41
1, 112899, Note_on_c, 0, 49, 52
1, 112956, Note_off_c, 0, 92, 46
1, 112958, Note_on_c, 0, 86, 55
1, 112965, Note_off_c, 0, 91, 38
1, 112965, Note_on_c, 0, 83, 57
1, 112974, Note_on_c, 0, 37, 57
1, 113031, Note_off_c, 0, 83, 62
1, 113043, Note_on_c, 0, 92, 81
1, 113046, Note_off_c, 0, 86, 65
1, 113047, Note_on_c, 0, 91, 70
1, 113069, Note_off_c, 0, 92, 64
1, 113072, Note_off_c, 0, 91, 71
1, 113132, Note_off_c, 0, 37, 28
1, 113229, Note_on_c, 0, 80, 64
1, 113229, Note_on_c, 0, 83, 59
1, 113259, Note_off_c, 0, 80, 61
1, 113277, Note_on_c, 0, 88, 68
1, 113277, Note_on_c, 0, 89, 71
1, 113278, Note_off_c, 0, 83, 64
1, 113308, Note_off_c, 0, 88, 71
1, 113311, Note_off_c, 0, 89, 67
1, 113407, Note_on_c, 0, 80, 79
1, 113410, Note_on_c, 0, 77, 73
1, 113448, Note_on_c, 0, 86, 93
1, 113452, Note_on_c, 0, 85, 85
1, 113457, Note_off_c, 0, 80, 63
1, 113463, Note_off_c, 0, 77, 62
1, 113482, Control_c, 0, 67, 122
1, 113483, Note_off_c, 0, 86, 67
1, 113489, Note_off_c, 0, 49, 37
1, 113492, Note_off_c, 0, 85, 49
1, 113497, Control_c, 0, 67, 88
1, 113512, Control_c, 0, 67, 54
1, 113526, Control_c, 0, 67, 0
1, 113581, Note_on_c, 0, 77, 92
1, 113583, Note_on_c, 0, 74, 83
1, 113607, Note_on_c, 0, 83, 102
1, 113615, Note_on_c, 0, 82, 86
1, 113616, Note_off_c, 0, 77, 67
1, 113621, Note_off_c, 0, 74, 67
1, 113640, Note_off_c, 0, 82, 65
1, 113643, Note_off_c, 0, 83, 70
1, 113883, Control_c, 0, 64, 102
1, 113898, Control_c, 0, 64, 72
1, 113913, Control_c, 0, 64, 48
1, 113928, Control_c, 0, 64, 0
1, 114995, Control_c, 0, 64, 37
1, 115010, Control_c, 0, 64, 47
1, 115025, Control_c, 0, 64, 59
1, 115040, Control_c, 0, 64, 64
1, 115054, Control_c, 0, 64, 66
1, 115069, Control_c, 0, 64, 67
1, 115084, Control_c, 0, 64, 69
1, 115099, Control_c, 0, 64, 73
1, 115114, Control_c, 0, 64, 77
1, 115128, Control_c, 0, 64, 80
1, 115143, Control_c, 0, 64, 84
1, 115158, Control_c, 0, 64, 87
1, 115172, Control_c, 0, 64, 91
1, 115187, Control_c, 0, 64, 95
1, 115202, Control_c, 0, 64, 99
1, 115216, Note_on_c, 0, 74, 44
1, 115217, Control_c, 0, 64, 102
1, 115232, Control_c, 0, 64, 104
1, 115246, Control_c, 0, 64, 106
1, 115261, Control_c, 0, 64, 110
1, 115276, Control_c, 0, 64, 118
1, 115291, Note_on_c, 0, 79, 73
1, 115291, Control_c, 0, 64, 127
1, 115440, Note_off_c, 0, 74, 38
1, 115457, Note_on_c, 0, 68, 43
1, 115493, Note_off_c, 0, 68, 64
1, 115539, Note_on_c, 0, 80, 86
1, 115553, Note_off_c, 0, 79, 62
1, 115692, Note_on_c, 0, 62, 49
1, 115734, Note_off_c, 0, 62, 63
1, 115764, Note_on_c, 0, 56, 59
1, 115868, Note_on_c, 0, 46, 53
1, 115884, Note_off_c, 0, 56, 61
1, 115894, Note_off_c, 0, 46, 55
1, 116200, Note_on_c, 0, 74, 62
1, 116228, Note_off_c, 0, 80, 64
1, 116393, Note_on_c, 0, 72, 80
1, 116398, Note_off_c, 0, 74, 63
1, 116525, Note_on_c, 0, 67, 93
1, 116587, Note_on_c, 0, 79, 80
1, 116635, Note_off_c, 0, 72, 59
1, 116638, Note_off_c, 0, 67, 66
1, 116653, Note_on_c, 0, 80, 85
1, 116653, Note_on_c, 0, 68, 88
1, 116690, Note_off_c, 0, 79, 58
1, 116697, Note_on_c, 0, 84, 89
1, 116706, Note_off_c, 0, 68, 66
1, 116735, Note_off_c, 0, 80, 66
1, 116742, Note_on_c, 0, 88, 95
1, 116754, Note_off_c, 0, 84, 73
1, 116771, Note_off_c, 0, 88, 66
1, 116820, Note_on_c, 0, 46, 69
1, 116855, Note_on_c, 0, 52, 78
1, 116884, Note_off_c, 0, 46, 62
1, 116909, Note_off_c, 0, 52, 63
1, 116913, Note_on_c, 0, 62, 81
1, 116945, Note_off_c, 0, 62, 64
1, 117025, Note_on_c, 0, 71, 108
1, 117031, Note_on_c, 0, 89, 103
1, 117061, Note_off_c, 0, 71, 69
1, 117118, Note_off_c, 0, 89, 62
1, 117143, Note_on_c, 0, 91, 83
1, 117171, Note_off_c, 0, 91, 63
1, 117210, Note_on_c, 0, 89, 76
1, 117225, Note_off_c, 0, 89, 67
1, 117253, Note_on_c, 0, 91, 65
1, 117282, Note_off_c, 0, 91, 68
1, 117298, Note_on_c, 0, 89, 78
1, 117332, Note_off_c, 0, 89, 64
1, 117341, Note_on_c, 0, 91, 76
1, 117363, Note_off_c, 0, 91, 72
1, 117400, Note_on_c, 0, 89, 77
1, 117428, Note_off_c, 0, 89, 64
1, 117435, Note_on_c, 0, 91, 80
1, 117459, Note_off_c, 0, 91, 69
1, 117494, Note_on_c, 0, 89, 77
1, 117526, Note_off_c, 0, 89, 64
1, 117529, Note_on_c, 0, 91, 80
1, 117551, Note_off_c, 0, 91, 72
1, 117587, Note_on_c, 0, 89, 78
1, 117619, Note_on_c, 0, 91, 82
1, 117622, Note_off_c, 0, 89, 63
1, 117644, Note_off_c, 0, 91, 67
1, 117680, Note_on_c, 0, 89, 74
1, 117710, Note_on_c, 0, 91, 80
1, 117714, Note_off_c, 0, 89, 63
1, 117738, Note_off_c, 0, 91, 66
1, 117771, Note_on_c, 0, 89, 75
1, 117808, Note_on_c, 0, 91, 70
1, 117814, Note_off_c, 0, 89, 64
1, 117842, Note_off_c, 0, 91, 62
1, 117869, Note_on_c, 0, 89, 64
1, 117914, Note_off_c, 0, 89, 61
1, 117952, Note_on_c, 0, 89, 50
1, 117970, Poly_aftertouch_c, 0, 91, 127
1, 117996, Note_off_c, 0, 89, 0
1, 117999, Poly_aftertouch_c, 0, 91, 0
1, 118033, Poly_aftertouch_c, 0, 89, 127
1, 118036, Note_on_c, 0, 91, 53
1, 118050, Poly_aftertouch_c, 0, 89, 0
1, 118073, Note_off_c, 0, 91, 68
1, 118092, Note_on_c, 0, 89, 69
1, 118118, Note_on_c, 0, 91, 93
1, 118122, Note_off_c, 0, 89, 65
1, 118158, Note_off_c, 0, 91, 68
1, 118165, Note_on_c, 0, 89, 87
1, 118198, Note_off_c, 0, 89, 62
1, 118253, Note_on_c, 0, 46, 75
1, 118290, Note_on_c, 0, 52, 76
1, 118315, Note_off_c, 0, 46, 61
1, 118321, Note_on_c, 0, 79, 71
1, 118352, Note_on_c, 0, 80, 82
1, 118373, Note_off_c, 0, 79, 65
1, 118375, Note_on_c, 0, 84, 84
1, 118403, Note_off_c, 0, 80, 68
1, 118408, Note_on_c, 0, 88, 83
1, 118426, Note_off_c, 0, 84, 69
1, 118439, Note_off_c, 0, 88, 64
1, 118469, Note_off_c, 0, 52, 59
1, 118476, Note_on_c, 0, 89, 109
1, 118480, Note_on_c, 0, 62, 97
1, 118515, Note_off_c, 0, 62, 68
1, 118520, Note_on_c, 0, 91, 23
1, 118523, Note_off_c, 0, 89, 60
1, 118593, Note_off_c, 0, 91, 64
1, 118607, Note_on_c, 0, 89, 77
1, 118631, Note_on_c, 0, 91, 86
1, 118643, Note_off_c, 0, 89, 60
1, 118667, Note_off_c, 0, 91, 69
1, 118702, Note_on_c, 0, 91, 85
1, 118707, Note_on_c, 0, 89, 52
1, 118737, Note_off_c, 0, 91, 68
1, 118763, Note_off_c, 0, 89, 67
1, 118801, Note_on_c, 0, 88, 78
1, 118844, Note_on_c, 0, 84, 82
1, 118875, Note_off_c, 0, 88, 61
1, 118885, Note_on_c, 0, 80, 90
1, 118898, Note_off_c, 0, 84, 65
1, 118928, Note_off_c, 0, 80, 64
1, 118933, Note_on_c, 0, 79, 77
1, 118950, Note_on_c, 0, 71, 101
1, 118974, Note_off_c, 0, 79, 60
1, 118977, Note_off_c, 0, 71, 70
1, 118987, Note_on_c, 0, 80, 72
1, 119017, Note_off_c, 0, 80, 62
1, 119035, Note_on_c, 0, 79, 75
1, 119079, Note_off_c, 0, 79, 66
1, 119100, Note_on_c, 0, 80, 32
1, 119136, Note_on_c, 0, 79, 67
1, 119139, Note_off_c, 0, 80, 52
1, 119185, Note_on_c, 0, 80, 82
1, 119228, Note_on_c, 0, 84, 91
1, 119232, Note_off_c, 0, 79, 61
1, 119258, Note_off_c, 0, 80, 66
1, 119268, Note_on_c, 0, 88, 86
1, 119280, Note_off_c, 0, 84, 68
1, 119282, Note_on_c, 0, 86, 58
1, 119295, Note_off_c, 0, 88, 70
1, 119309, Note_off_c, 0, 86, 62
1, 119342, Note_on_c, 0, 89, 105
1, 119375, Note_off_c, 0, 89, 66
1, 119589, Note_on_c, 0, 73, 101
1, 119591, Control_c, 0, 64, 92
1, 119606, Control_c, 0, 64, 58
1, 119621, Control_c, 0, 64, 0
1, 119650, Control_c, 0, 64, 34
1, 119653, Note_on_c, 0, 40, 81
1, 119657, Note_on_c, 0, 34, 79
1, 119665, Control_c, 0, 64, 90
1, 119680, Control_c, 0, 64, 127
1, 119687, Note_off_c, 0, 34, 65
1, 119689, Note_off_c, 0, 40, 63
1, 119735, Note_off_c, 0, 73, 62
1, 119800, Note_on_c, 0, 74, 107
1, 119828, Note_off_c, 0, 74, 71
1, 119893, Note_on_c, 0, 65, 95
1, 119894, Note_on_c, 0, 53, 83
1, 119944, Note_off_c, 0, 53, 63
1, 119972, Note_off_c, 0, 65, 64
1, 120083, Note_on_c, 0, 66, 105
1, 120090, Note_on_c, 0, 54, 89
1, 120119, Note_off_c, 0, 54, 63
1, 120130, Note_on_c, 0, 73, 85
1, 120171, Note_off_c, 0, 66, 51
1, 120176, Note_off_c, 0, 73, 66
1, 120189, Note_on_c, 0, 78, 83
1, 120232, Note_on_c, 0, 82, 86
1, 120248, Note_off_c, 0, 78, 62
1, 120266, Control_c, 0, 64, 80
1, 120271, Note_off_c, 0, 82, 67
1, 120281, Control_c, 0, 64, 37
1, 120295, Control_c, 0, 64, 0
1, 120303, Note_on_c, 0, 83, 114
1, 120307, Note_on_c, 0, 68, 109
1, 120313, Note_on_c, 0, 56, 102
1, 120325, Control_c, 0, 64, 64
1, 120337, Note_off_c, 0, 68, 71
1, 120340, Control_c, 0, 64, 127
1, 120353, Note_off_c, 0, 56, 68
1, 120401, Note_on_c, 0, 85, 83
1, 120401, Note_off_c, 0, 83, 66
1, 120426, Poly_aftertouch_c, 0, 61, 0
1, 120458, Note_off_c, 0, 85, 62
1, 120472, Note_on_c, 0, 83, 80
1, 120492, Note_off_c, 0, 83, 67
1, 120516, Note_on_c, 0, 85, 73
1, 120564, Note_off_c, 0, 85, 62
1, 120576, Note_on_c, 0, 83, 84
1, 120582, Note_on_c, 0, 40, 88
1, 120613, Note_off_c, 0, 83, 63
1, 120627, Note_on_c, 0, 85, 75
1, 120653, Note_on_c, 0, 34, 101
1, 120657, Note_off_c, 0, 85, 61
1, 120689, Note_off_c, 0, 40, 58
1, 120689, Note_on_c, 0, 83, 79
1, 120711, Note_off_c, 0, 83, 63
1, 120738, Note_on_c, 0, 85, 73
1, 120759, Note_off_c, 0, 85, 71
1, 120800, Note_on_c, 0, 83, 73
1, 120815, Note_off_c, 0, 83, 67
1, 120843, Note_on_c, 0, 85, 69
1, 120866, Note_off_c, 0, 85, 70
1, 120892, Note_on_c, 0, 83, 75
1, 120923, Note_off_c, 0, 83, 63
1, 120924, Control_c, 0, 67, 41
1, 120939, Control_c, 0, 67, 57
1, 120943, Note_on_c, 0, 85, 59
1, 120954, Control_c, 0, 67, 75
1, 120969, Note_off_c, 0, 85, 64
1, 120970, Control_c, 0, 67, 98
1, 120985, Control_c, 0, 67, 125
1, 120994, Note_on_c, 0, 83, 64
1, 121000, Control_c, 0, 67, 127
1, 121019, Note_off_c, 0, 83, 66
1, 121050, Note_off_c, 0, 34, 63
1, 121050, Note_on_c, 0, 85, 43
1, 121053, Note_on_c, 0, 40, 72
1, 121082, Note_on_c, 0, 83, 68
1, 121099, Note_off_c, 0, 83, 61
1, 121112, Note_off_c, 0, 85, 51
1, 121145, Note_on_c, 0, 85, 52
1, 121191, Note_off_c, 0, 85, 56
1, 121199, Note_on_c, 0, 83, 36
1, 121228, Note_on_c, 0, 85, 54
1, 121245, Note_off_c, 0, 83, 59
1, 121256, Note_off_c, 0, 85, 67
1, 121289, Note_on_c, 0, 83, 49
1, 121308, Note_on_c, 0, 85, 91
1, 121311, Note_off_c, 0, 83, 61
1, 121339, Note_off_c, 0, 85, 58
1, 121372, Note_on_c, 0, 83, 84
1, 121410, Note_off_c, 0, 83, 59
1, 121412, Note_on_c, 0, 85, 82
1, 121426, Note_off_c, 0, 40, 58
1, 121432, Note_off_c, 0, 85, 71
1, 121446, Note_on_c, 0, 34, 75
1, 121473, Note_on_c, 0, 83, 71
1, 121500, Note_off_c, 0, 83, 63
1, 121511, Note_on_c, 0, 85, 65
1, 121530, Note_off_c, 0, 85, 65
1, 121580, Note_on_c, 0, 83, 37
1, 121583, Note_on_c, 0, 85, 65
1, 121604, Note_off_c, 0, 83, 0
1, 121606, Note_off_c, 0, 85, 64
1, 121611, Note_on_c, 0, 40, 86
1, 121619, Note_off_c, 0, 34, 62
1, 121622, Note_on_c, 0, 83, 59
1, 121646, Note_on_c, 0, 85, 96
1, 121649, Note_off_c, 0, 83, 67
1, 121682, Note_off_c, 0, 85, 66
1, 121688, Control_c, 0, 67, 103
1, 121703, Control_c, 0, 67, 0
1, 121707, Note_on_c, 0, 83, 49
1, 121731, Note_off_c, 0, 83, 57
1, 121743, Note_on_c, 0, 34, 102
1, 121755, Note_off_c, 0, 40, 63
1, 121809, Note_on_c, 0, 73, 87
1, 121844, Note_off_c, 0, 34, 60
1, 121845, Note_on_c, 0, 74, 80
1, 121854, Note_off_c, 0, 73, 65
1, 121861, Note_on_c, 0, 78, 79
1, 121884, Note_on_c, 0, 82, 91
1, 121887, Note_off_c, 0, 74, 67
1, 121912, Note_off_c, 0, 78, 63
1, 121921, Note_off_c, 0, 82, 65
1, 121956, Control_c, 0, 64, 104
1, 121962, Note_on_c, 0, 83, 104
1, 121971, Control_c, 0, 64, 62
1, 121986, Control_c, 0, 64, 0
1, 122015, Control_c, 0, 64, 42
1, 122030, Note_on_c, 0, 85, 89
1, 122030, Control_c, 0, 64, 94
1, 122038, Note_on_c, 0, 40, 77
1, 122039, Note_off_c, 0, 83, 63
1, 122045, Control_c, 0, 64, 127
1, 122069, Note_off_c, 0, 85, 65
1, 122096, Note_on_c, 0, 83, 66
1, 122101, Note_on_c, 0, 34, 94
1, 122111, Note_on_c, 0, 85, 80
1, 122116, Note_off_c, 0, 40, 62
1, 122126, Note_off_c, 0, 83, 63
1, 122129, Note_off_c, 0, 34, 69
1, 122153, Note_off_c, 0, 85, 65
1, 122160, Note_on_c, 0, 83, 65
1, 122182, Note_off_c, 0, 83, 69
1, 122230, Note_on_c, 0, 82, 67
1, 122293, Note_off_c, 0, 82, 64
1, 122295, Note_on_c, 0, 78, 74
1, 122331, Note_off_c, 0, 78, 60
1, 122334, Note_on_c, 0, 74, 79
1, 122373, Note_off_c, 0, 74, 60
1, 122397, Note_on_c, 0, 73, 83
1, 122401, Note_on_c, 0, 65, 103
1, 122411, Note_on_c, 0, 53, 88
1, 122430, Note_on_c, 0, 75, 29
1, 122437, Note_off_c, 0, 73, 56
1, 122463, Note_off_c, 0, 75, 47
1, 122464, Note_on_c, 0, 74, 78
1, 122496, Note_off_c, 0, 74, 63
1, 122502, Note_on_c, 0, 73, 70
1, 122531, Note_off_c, 0, 73, 59
1, 122564, Note_on_c, 0, 74, 74
1, 122603, Note_off_c, 0, 74, 63
1, 122604, Note_on_c, 0, 73, 66
1, 122632, Note_on_c, 0, 75, 34
1, 122659, Note_off_c, 0, 73, 65
1, 122661, Note_off_c, 0, 75, 47
1, 122664, Note_on_c, 0, 74, 82
1, 122697, Note_off_c, 0, 65, 58
1, 122725, Note_on_c, 0, 78, 87
1, 122745, Note_off_c, 0, 53, 63
1, 122754, Note_off_c, 0, 74, 61
1, 122761, Note_on_c, 0, 82, 87
1, 122782, Note_off_c, 0, 78, 63
1, 122788, Note_on_c, 0, 83, 104
1, 122811, Note_off_c, 0, 82, 68
1, 122816, Note_off_c, 0, 83, 70
1, 123009, Note_on_c, 0, 67, 100
1, 123086, Note_on_c, 0, 34, 90
1, 123087, Note_on_c, 0, 40, 85
1, 123097, Control_c, 0, 64, 71
1, 123112, Control_c, 0, 64, 0
1, 123133, Note_off_c, 0, 40, 64
1, 123135, Note_off_c, 0, 34, 63
1, 123142, Control_c, 0, 64, 44
1, 123157, Control_c, 0, 64, 100
1, 123172, Control_c, 0, 64, 127
1, 123239, Note_on_c, 0, 68, 95
1, 123250, Note_off_c, 0, 67, 65
1, 123273, Note_off_c, 0, 68, 69
1, 123321, Note_on_c, 0, 59, 98
1, 123326, Note_on_c, 0, 47, 79
1, 123383, Note_off_c, 0, 47, 64
1, 123416, Note_off_c, 0, 59, 63
1, 123504, Note_on_c, 0, 60, 100
1, 123512, Note_on_c, 0, 48, 92
1, 123538, Note_off_c, 0, 48, 68
1, 123569, Note_on_c, 0, 67, 82
1, 123587, Note_on_c, 0, 68, 60
1, 123594, Note_off_c, 0, 60, 63
1, 123613, Note_on_c, 0, 72, 79
1, 123619, Note_off_c, 0, 67, 64
1, 123637, Note_off_c, 0, 68, 64
1, 123647, Note_on_c, 0, 76, 89
1, 123669, Note_off_c, 0, 72, 66
1, 123680, Note_off_c, 0, 76, 67
1, 123720, Control_c, 0, 64, 97
1, 123725, Note_on_c, 0, 77, 109
1, 123729, Note_on_c, 0, 62, 103
1, 123735, Control_c, 0, 64, 58
1, 123735, Note_on_c, 0, 50, 96
1, 123750, Control_c, 0, 64, 0
1, 123767, Note_off_c, 0, 62, 68
1, 123779, Note_off_c, 0, 50, 66
1, 123780, Control_c, 0, 64, 52
1, 123802, Control_c, 0, 64, 127
1, 123861, Note_on_c, 0, 79, 82
1, 123864, Note_off_c, 0, 77, 56
1, 123900, Note_off_c, 0, 79, 60
1, 123935, Note_on_c, 0, 77, 67
1, 123971, Note_on_c, 0, 79, 74
1, 123971, Note_off_c, 0, 77, 60
1, 123996, Note_on_c, 0, 40, 94
1, 124016, Note_off_c, 0, 79, 61
1, 124048, Note_on_c, 0, 77, 72
1, 124058, Note_on_c, 0, 34, 99
1, 124072, Note_off_c, 0, 77, 66
1, 124082, Note_on_c, 0, 79, 68
1, 124087, Note_off_c, 0, 40, 60
1, 124120, Note_off_c, 0, 79, 61
1, 124163, Note_on_c, 0, 77, 69
1, 124191, Note_off_c, 0, 77, 66
1, 124194, Note_on_c, 0, 79, 66
1, 124224, Note_off_c, 0, 79, 63
1, 124260, Note_on_c, 0, 77, 70
1, 124287, Note_off_c, 0, 77, 64
1, 124295, Note_on_c, 0, 79, 59
1, 124330, Note_off_c, 0, 79, 60
1, 124356, Note_on_c, 0, 77, 67
1, 124388, Note_off_c, 0, 77, 62
1, 124391, Note_on_c, 0, 79, 64
1, 124431, Note_off_c, 0, 79, 60
1, 124439, Control_c, 0, 67, 49
1, 124454, Control_c, 0, 67, 67
1, 124460, Note_off_c, 0, 34, 64
1, 124463, Note_on_c, 0, 77, 64
1, 124469, Control_c, 0, 67, 85
1, 124471, Note_on_c, 0, 40, 72
1, 124484, Control_c, 0, 67, 99
1, 124489, Note_off_c, 0, 77, 68
1, 124498, Note_on_c, 0, 79, 54
1, 124498, Control_c, 0, 67, 117
1, 124513, Control_c, 0, 67, 127
1, 124537, Note_off_c, 0, 79, 64
1, 124575, Note_on_c, 0, 77, 62
1, 124602, Note_off_c, 0, 77, 64
1, 124608, Note_on_c, 0, 79, 64
1, 124637, Note_off_c, 0, 79, 62
1, 124675, Note_on_c, 0, 77, 62
1, 124708, Note_off_c, 0, 77, 62
1, 124722, Note_on_c, 0, 79, 47
1, 124758, Note_off_c, 0, 79, 60
1, 124773, Note_off_c, 0, 40, 38
1, 124791, Note_on_c, 0, 77, 51
1, 124814, Note_off_c, 0, 77, 60
1, 124824, Note_on_c, 0, 79, 57
1, 124851, Note_off_c, 0, 79, 66
1, 124878, Note_on_c, 0, 34, 67
1, 124887, Note_on_c, 0, 77, 67
1, 124916, Note_off_c, 0, 77, 65
1, 124941, Note_on_c, 0, 79, 40
1, 124967, Note_off_c, 0, 79, 57
1, 125006, Note_on_c, 0, 77, 52
1, 125026, Note_off_c, 0, 77, 60
1, 125035, Note_on_c, 0, 79, 65
1, 125057, Note_off_c, 0, 79, 70
1, 125077, Note_on_c, 0, 40, 67
1, 125094, Note_off_c, 0, 34, 51
1, 125098, Note_on_c, 0, 77, 65
1, 125121, Note_on_c, 0, 79, 74
1, 125121, Note_off_c, 0, 77, 70
1, 125160, Note_off_c, 0, 79, 65
1, 125166, Note_on_c, 0, 77, 54
1, 125185, Note_off_c, 0, 77, 61
1, 125248, Note_on_c, 0, 34, 84
1, 125284, Note_off_c, 0, 40, 59
1, 125291, Note_off_c, 0, 34, 65
1, 125303, Note_on_c, 0, 67, 76
1, 125329, Control_c, 0, 67, 54
1, 125344, Control_c, 0, 67, 0
1, 125356, Note_on_c, 0, 68, 74
1, 125367, Note_on_c, 0, 72, 84
1, 125367, Note_off_c, 0, 67, 61
1, 125396, Note_on_c, 0, 76, 86
1, 125402, Note_off_c, 0, 68, 66
1, 125418, Note_off_c, 0, 72, 66
1, 125434, Note_off_c, 0, 76, 69
1, 125519, Note_on_c, 0, 77, 90
1, 125560, Note_on_c, 0, 62, 76
1, 125566, Control_c, 0, 64, 73
1, 125581, Note_on_c, 0, 50, 53
1, 125581, Control_c, 0, 64, 0
1, 125640, Control_c, 0, 64, 59
1, 125655, Control_c, 0, 64, 83
1, 125658, Note_off_c, 0, 62, 63
1, 125658, Note_off_c, 0, 77, 63
1, 125670, Control_c, 0, 64, 127
1, 125679, Note_on_c, 0, 79, 54
1, 125698, Note_off_c, 0, 50, 63
1, 125709, Note_off_c, 0, 79, 67
1, 125739, Note_on_c, 0, 77, 65
1, 125768, Note_off_c, 0, 77, 67
1, 125788, Note_on_c, 0, 79, 66
1, 125813, Note_off_c, 0, 79, 68
1, 125842, Note_on_c, 0, 77, 72
1, 125868, Note_off_c, 0, 77, 66
1, 125873, Note_on_c, 0, 79, 72
1, 125894, Note_on_c, 0, 34, 82
1, 125902, Note_off_c, 0, 79, 62
1, 125917, Note_off_c, 0, 34, 66
1, 125941, Note_on_c, 0, 77, 72
1, 125962, Poly_aftertouch_c, 0, 40, 0
1, 125965, Note_off_c, 0, 77, 71
1, 125965, Note_on_c, 0, 79, 78
1, 126038, Note_off_c, 0, 79, 65
1, 126040, Note_on_c, 0, 77, 77
1, 126066, Note_off_c, 0, 77, 67
1, 126114, Note_on_c, 0, 60, 85
1, 126120, Note_on_c, 0, 48, 70
1, 126144, Note_on_c, 0, 76, 75
1, 126156, Note_off_c, 0, 48, 62
1, 126189, Note_off_c, 0, 60, 60
1, 126201, Note_on_c, 0, 72, 66
1, 126241, Note_off_c, 0, 76, 53
1, 126271, Note_on_c, 0, 68, 64
1, 126274, Note_off_c, 0, 72, 61
1, 126325, Note_off_c, 0, 68, 61
1, 126328, Note_on_c, 0, 59, 79
1, 126330, Note_on_c, 0, 67, 59
1, 126351, Note_on_c, 0, 47, 51
1, 126372, Note_off_c, 0, 67, 56
1, 126377, Note_on_c, 0, 68, 43
1, 126403, Control_c, 0, 64, 88
1, 126418, Control_c, 0, 64, 57
1, 126424, Note_off_c, 0, 68, 62
1, 126433, Control_c, 0, 64, 0
1, 126441, Note_on_c, 0, 67, 60
1, 126448, Control_c, 0, 64, 41
1, 126463, Control_c, 0, 64, 66
1, 126478, Control_c, 0, 64, 127
1, 126481, Note_off_c, 0, 67, 63
1, 126488, Note_on_c, 0, 68, 46
1, 126519, Note_off_c, 0, 68, 62
1, 126541, Note_on_c, 0, 67, 54
1, 126554, Note_off_c, 0, 47, 63
1, 126573, Note_off_c, 0, 59, 63
1, 126582, Note_off_c, 0, 67, 60
1, 126586, Note_on_c, 0, 68, 63
1, 126615, Note_off_c, 0, 68, 61
1, 126639, Note_on_c, 0, 67, 57
1, 126680, Note_on_c, 0, 68, 61
1, 126680, Note_off_c, 0, 67, 57
1, 126758, Note_on_c, 0, 67, 20
1, 126809, Note_off_c, 0, 68, 61
1, 126812, Note_off_c, 0, 67, 0
1, 126815, Note_on_c, 0, 48, 77
1, 126817, Note_on_c, 0, 60, 93
1, 126825, Note_on_c, 0, 67, 66
1, 126846, Note_off_c, 0, 48, 61
1, 126866, Note_on_c, 0, 68, 68
1, 126881, Note_off_c, 0, 60, 58
1, 126890, Note_off_c, 0, 67, 63
1, 126909, Note_on_c, 0, 72, 86
1, 126923, Note_off_c, 0, 68, 65
1, 126928, Note_on_c, 0, 76, 88
1, 126955, Note_off_c, 0, 72, 64
1, 126967, Note_off_c, 0, 76, 67
1, 127014, Note_on_c, 0, 77, 103
1, 127033, Note_on_c, 0, 62, 103
1, 127034, Control_c, 0, 64, 68
1, 127046, Note_on_c, 0, 50, 84
1, 127049, Control_c, 0, 64, 0
1, 127078, Control_c, 0, 64, 35
1, 127086, Note_off_c, 0, 62, 65
1, 127093, Control_c, 0, 64, 66
1, 127108, Control_c, 0, 64, 127
1, 127115, Note_off_c, 0, 50, 62
1, 127145, Note_off_c, 0, 77, 61
1, 127153, Note_on_c, 0, 79, 68
1, 127192, Note_off_c, 0, 79, 58
1, 127232, Note_on_c, 0, 77, 58
1, 127262, Note_off_c, 0, 77, 64
1, 127277, Note_on_c, 0, 79, 66
1, 127304, Note_off_c, 0, 79, 65
1, 127312, Note_on_c, 0, 40, 78
1, 127340, Note_on_c, 0, 77, 72
1, 127365, Note_on_c, 0, 34, 75
1, 127369, Note_off_c, 0, 77, 63
1, 127375, Note_off_c, 0, 40, 61
1, 127380, Note_on_c, 0, 79, 70
1, 127387, Note_off_c, 0, 34, 65
1, 127402, Note_off_c, 0, 79, 70
1, 127437, Note_on_c, 0, 77, 71
1, 127462, Note_on_c, 0, 79, 82
1, 127463, Note_off_c, 0, 77, 68
1, 127519, Note_on_c, 0, 77, 87
1, 127522, Note_off_c, 0, 79, 64
1, 127565, Note_off_c, 0, 77, 65
1, 127572, Note_on_c, 0, 60, 88
1, 127583, Note_on_c, 0, 48, 72
1, 127613, Note_off_c, 0, 48, 64
1, 127627, Note_off_c, 0, 60, 61
1, 127642, Note_on_c, 0, 76, 75
1, 127698, Note_on_c, 0, 72, 65
1, 127763, Note_off_c, 0, 76, 52
1, 127766, Note_off_c, 0, 72, 60
1, 127768, Note_on_c, 0, 68, 64
1, 127799, Note_on_c, 0, 59, 78
1, 127801, Note_off_c, 0, 68, 63
1, 127816, Note_on_c, 0, 67, 67
1, 127822, Note_on_c, 0, 47, 53
1, 127857, Control_c, 0, 64, 79
1, 127867, Note_on_c, 0, 68, 59
1, 127869, Note_off_c, 0, 67, 61
1, 127872, Control_c, 0, 64, 46
1, 127887, Control_c, 0, 64, 0
1, 127906, Note_off_c, 0, 68, 63
1, 127916, Control_c, 0, 64, 57
1, 127927, Note_on_c, 0, 67, 60
1, 127931, Control_c, 0, 64, 95
1, 127946, Control_c, 0, 64, 127
1, 127974, Note_off_c, 0, 67, 60
1, 127975, Note_on_c, 0, 68, 57
1, 128007, Note_off_c, 0, 47, 64
1, 128019, Note_off_c, 0, 68, 58
1, 128031, Note_on_c, 0, 67, 50
1, 128076, Note_on_c, 0, 68, 54
1, 128076, Note_off_c, 0, 67, 61
1, 128129, Note_off_c, 0, 59, 62
1, 128133, Note_on_c, 0, 67, 44
1, 128144, Note_off_c, 0, 68, 0
1, 128157, Note_on_c, 0, 68, 57
1, 128204, Note_off_c, 0, 68, 62
1, 128225, Note_off_c, 0, 67, 63
1, 128302, Note_on_c, 0, 61, 91
1, 128323, Note_off_c, 0, 61, 71
1, 128372, Note_on_c, 0, 62, 71
1, 128415, Note_on_c, 0, 66, 80
1, 128427, Note_off_c, 0, 62, 61
1, 128452, Note_on_c, 0, 70, 90
1, 128460, Note_off_c, 0, 66, 66
1, 128469, Note_off_c, 0, 70, 75
1, 128529, Note_on_c, 0, 56, 101
1, 128606, Control_c, 0, 64, 78
1, 128620, Control_c, 0, 64, 31
1, 128635, Control_c, 0, 64, 0
1, 128679, Note_on_c, 0, 71, 79
1, 128679, Control_c, 0, 64, 61
1, 128694, Control_c, 0, 64, 127
1, 128725, Note_on_c, 0, 73, 77
1, 128726, Note_off_c, 0, 56, 62
1, 128726, Note_off_c, 0, 71, 61
1, 128767, Note_off_c, 0, 73, 58
1, 128798, Note_on_c, 0, 71, 63
1, 128821, Note_off_c, 0, 71, 66
1, 128839, Note_on_c, 0, 73, 67
1, 128865, Note_off_c, 0, 73, 66
1, 128911, Note_on_c, 0, 71, 63
1, 128924, Note_on_c, 0, 40, 65
1, 128942, Note_off_c, 0, 71, 62
1, 128952, Note_on_c, 0, 73, 48
1, 128989, Note_off_c, 0, 73, 65
1, 128990, Note_on_c, 0, 34, 82
1, 129004, Note_off_c, 0, 40, 61
1, 129031, Note_on_c, 0, 71, 58
1, 129031, Note_off_c, 0, 34, 66
1, 129060, Note_off_c, 0, 71, 64
1, 129061, Note_on_c, 0, 73, 73
1, 129110, Note_off_c, 0, 73, 61
1, 129125, Note_on_c, 0, 71, 77
1, 129168, Note_off_c, 0, 71, 60
1, 129209, Note_on_c, 0, 54, 93
1, 129230, Note_off_c, 0, 54, 68
1, 129272, Note_on_c, 0, 70, 82
1, 129347, Note_off_c, 0, 70, 62
1, 129350, Note_on_c, 0, 66, 81
1, 129413, Note_off_c, 0, 66, 64
1, 129417, Note_on_c, 0, 62, 82
1, 129438, Note_off_c, 0, 62, 70
1, 129626, Note_on_c, 0, 53, 80
1, 129631, Note_on_c, 0, 61, 79
1, 129640, Note_on_c, 0, 40, 62
1, 129651, Note_on_c, 0, 34, 56
1, 129679, Control_c, 0, 64, 73
1, 129694, Control_c, 0, 64, 0
1, 129739, Control_c, 0, 64, 38
1, 129755, Control_c, 0, 64, 63
1, 129777, Control_c, 0, 64, 90
1, 129792, Control_c, 0, 64, 127
1, 129816, Note_off_c, 0, 61, 58
1, 129853, Note_on_c, 0, 62, 43
1, 129882, Note_off_c, 0, 62, 57
1, 129925, Note_on_c, 0, 61, 45
1, 129954, Note_off_c, 0, 61, 64
1, 129967, Note_on_c, 0, 62, 56
1, 130004, Note_off_c, 0, 62, 64
1, 130034, Note_on_c, 0, 61, 59
1, 130067, Note_off_c, 0, 61, 65
1, 130088, Note_on_c, 0, 62, 56
1, 130109, Note_off_c, 0, 34, 42
1, 130123, Note_off_c, 0, 62, 63
1, 130137, Note_on_c, 0, 61, 64
1, 130169, Note_off_c, 0, 61, 61
1, 130208, Note_on_c, 0, 62, 49
1, 130238, Note_off_c, 0, 62, 63
1, 130267, Note_on_c, 0, 61, 50
1, 130296, Note_off_c, 0, 61, 61
1, 130315, Note_on_c, 0, 62, 60
1, 130337, Note_off_c, 0, 40, 58
1, 130343, Note_off_c, 0, 62, 66
1, 130382, Note_on_c, 0, 61, 42
1, 130407, Note_on_c, 0, 62, 63
1, 130407, Note_off_c, 0, 61, 58
1, 130441, Note_off_c, 0, 62, 65
1, 130478, Note_on_c, 0, 61, 51
1, 130504, Note_off_c, 0, 61, 59
1, 130514, Note_on_c, 0, 62, 62
1, 130549, Note_off_c, 0, 62, 68
1, 130576, Note_on_c, 0, 61, 59
1, 130606, Note_off_c, 0, 61, 66
1, 130617, Note_on_c, 0, 62, 76
1, 130622, Note_off_c, 0, 53, 40
1, 130669, Note_off_c, 0, 62, 61
1, 130672, Note_on_c, 0, 61, 80
1, 130680, Note_on_c, 0, 53, 81
1, 130692, Note_on_c, 0, 47, 88
1, 130708, Note_on_c, 0, 34, 67
1, 130711, Note_on_c, 0, 40, 59
1, 130748, Control_c, 0, 64, 72
1, 130763, Control_c, 0, 64, 41
1, 130778, Control_c, 0, 64, 0
1, 130807, Control_c, 0, 64, 49
1, 130822, Control_c, 0, 64, 78
1, 130837, Control_c, 0, 64, 127
1, 130839, Note_off_c, 0, 61, 63
1, 130863, Note_on_c, 0, 62, 54
1, 130892, Note_off_c, 0, 62, 55
1, 130937, Note_on_c, 0, 61, 47
1, 130965, Note_off_c, 0, 61, 65
1, 130977, Note_on_c, 0, 62, 58
1, 131013, Note_off_c, 0, 62, 62
1, 131032, Note_on_c, 0, 61, 65
1, 131067, Note_off_c, 0, 61, 64
1, 131091, Note_on_c, 0, 62, 59
1, 131120, Note_off_c, 0, 62, 67
1, 131149, Note_on_c, 0, 61, 59
1, 131182, Note_off_c, 0, 61, 65
1, 131207, Note_on_c, 0, 62, 60
1, 131232, Note_off_c, 0, 34, 27
1, 131238, Note_off_c, 0, 62, 65
1, 131253, Note_on_c, 0, 61, 65
1, 131290, Note_off_c, 0, 61, 67
1, 131307, Note_on_c, 0, 62, 73
1, 131355, Note_off_c, 0, 62, 61
1, 131372, Note_on_c, 0, 61, 64
1, 131392, Note_off_c, 0, 47, 59
1, 131402, Note_off_c, 0, 40, 58
1, 131402, Note_off_c, 0, 61, 65
1, 131415, Note_on_c, 0, 62, 61
1, 131465, Note_off_c, 0, 62, 62
1, 131466, Note_on_c, 0, 61, 70
1, 131507, Note_off_c, 0, 61, 58
1, 131523, Note_on_c, 0, 62, 62
1, 131576, Note_on_c, 0, 61, 71
1, 131578, Note_off_c, 0, 62, 63
1, 131619, Note_off_c, 0, 61, 59
1, 131626, Note_on_c, 0, 62, 69
1, 131691, Note_on_c, 0, 61, 76
1, 131692, Note_off_c, 0, 62, 63
1, 131744, Note_off_c, 0, 61, 63
1, 131746, Note_on_c, 0, 62, 71
1, 131805, Note_off_c, 0, 62, 64
1, 131805, Note_on_c, 0, 61, 78
1, 131860, Note_off_c, 0, 53, 24
1, 131862, Note_off_c, 0, 61, 65
1, 131865, Note_on_c, 0, 62, 75
1, 131966, Note_on_c, 0, 53, 84
1, 131969, Note_on_c, 0, 61, 82
1, 131975, Note_off_c, 0, 62, 61
1, 131995, Note_on_c, 0, 47, 91
1, 132008, Note_on_c, 0, 40, 71
1, 132013, Note_on_c, 0, 34, 75
1, 132112, Control_c, 0, 64, 109
1, 132127, Control_c, 0, 64, 69
1, 132142, Control_c, 0, 64, 31
1, 132157, Control_c, 0, 64, 0
1, 132201, Control_c, 0, 64, 41
1, 132216, Control_c, 0, 64, 64
1, 132231, Control_c, 0, 64, 79
1, 132236, Note_off_c, 0, 61, 57
1, 132246, Control_c, 0, 64, 127
1, 132256, Note_on_c, 0, 62, 51
1, 132290, Note_off_c, 0, 62, 63
1, 132348, Note_on_c, 0, 61, 52
1, 132378, Note_off_c, 0, 61, 65
1, 132385, Note_on_c, 0, 62, 57
1, 132420, Note_off_c, 0, 62, 63
1, 132451, Note_on_c, 0, 61, 61
1, 132487, Note_off_c, 0, 61, 64
1, 132505, Note_on_c, 0, 62, 57
1, 132537, Note_off_c, 0, 62, 64
1, 132580, Note_on_c, 0, 61, 58
1, 132602, Control_c, 0, 67, 40
1, 132608, Note_off_c, 0, 61, 67
1, 132616, Control_c, 0, 67, 46
1, 132631, Control_c, 0, 67, 52
1, 132639, Note_on_c, 0, 62, 48
1, 132646, Control_c, 0, 67, 60
1, 132661, Control_c, 0, 67, 67
1, 132662, Note_off_c, 0, 62, 61
1, 132676, Control_c, 0, 67, 79
1, 132684, Note_on_c, 0, 61, 64
1, 132690, Control_c, 0, 67, 94
1, 132705, Control_c, 0, 67, 112
1, 132720, Control_c, 0, 67, 127
1, 132722, Note_off_c, 0, 61, 63
1, 132732, Note_on_c, 0, 62, 67
1, 132777, Note_off_c, 0, 62, 60
1, 132809, Note_on_c, 0, 61, 65
1, 132843, Note_off_c, 0, 61, 64
1, 132871, Note_on_c, 0, 62, 44
1, 132899, Note_off_c, 0, 62, 54
1, 132915, Note_on_c, 0, 61, 66
1, 132955, Note_off_c, 0, 61, 63
1, 132983, Note_on_c, 0, 62, 54
1, 133007, Note_off_c, 0, 62, 60
1, 133041, Note_on_c, 0, 61, 57
1, 133066, Note_off_c, 0, 61, 67
1, 133073, Poly_aftertouch_c, 0, 56, 127
1, 133083, Note_on_c, 0, 62, 65
1, 133113, Note_off_c, 0, 62, 65
1, 133131, Poly_aftertouch_c, 0, 56, 0
1, 133137, Note_on_c, 0, 61, 57
1, 133168, Poly_aftertouch_c, 0, 56, 127
1, 133169, Note_off_c, 0, 61, 65
1, 133198, Note_on_c, 0, 62, 56
1, 133231, Note_off_c, 0, 62, 65
1, 133266, Note_on_c, 0, 61, 55
1, 133299, Note_off_c, 0, 61, 64
1, 133316, Note_on_c, 0, 62, 49
1, 133359, Note_off_c, 0, 62, 51
1, 133388, Note_on_c, 0, 61, 57
1, 133418, Note_off_c, 0, 61, 67
1, 133464, Note_on_c, 0, 62, 42
1, 133497, Note_off_c, 0, 62, 53
1, 133507, Note_on_c, 0, 61, 55
1, 133557, Note_off_c, 0, 61, 60
1, 133593, Note_on_c, 0, 62, 48
1, 133615, Poly_aftertouch_c, 0, 56, 0
1, 133630, Note_off_c, 0, 62, 49
1, 133652, Poly_aftertouch_c, 0, 56, 127
1, 133689, Note_on_c, 0, 61, 38
1, 133718, Note_off_c, 0, 61, 53
1, 133751, Note_on_c, 0, 62, 24
1, 133784, Note_off_c, 0, 62, 53
1, 133807, Note_on_c, 0, 61, 50
1, 133841, Note_off_c, 0, 47, 34
1, 133863, Note_off_c, 0, 40, 33
1, 133871, Note_off_c, 0, 61, 55
1, 133882, Note_off_c, 0, 34, 25
1, 133912, Note_on_c, 0, 62, 31
1, 133963, Note_off_c, 0, 62, 46
1, 133998, Note_on_c, 0, 61, 51
1, 134042, Note_off_c, 0, 61, 57
1, 134064, Poly_aftertouch_c, 0, 56, 0
1, 134079, Note_on_c, 0, 62, 40
1, 134158, Note_off_c, 0, 62, 0
1, 134158, Note_on_c, 0, 62, 19
1, 134177, Note_off_c, 0, 53, 37
1, 134217, Note_off_c, 0, 62, 57
1, 134255, Note_on_c, 0, 61, 45
1, 134833, Control_c, 0, 64, 117
1, 134848, Control_c, 0, 64, 103
1, 134863, Control_c, 0, 64, 93
1, 134878, Control_c, 0, 64, 83
1, 134892, Control_c, 0, 64, 71
1, 134893, Note_off_c, 0, 61, 38
1, 134893, Note_on_c, 0, 62, 47
1, 134907, Control_c, 0, 64, 57
1, 134908, Note_on_c, 0, 58, 42
1, 134922, Control_c, 0, 64, 33
1, 134937, Control_c, 0, 64, 0
1, 135405, Control_c, 0, 64, 30
1, 135420, Control_c, 0, 64, 40
1, 135435, Control_c, 0, 64, 45
1, 135449, Control_c, 0, 64, 50
1, 135464, Control_c, 0, 64, 54
1, 135479, Control_c, 0, 64, 59
1, 135494, Control_c, 0, 64, 61
1, 135509, Control_c, 0, 64, 61
1, 135534, Note_on_c, 0, 61, 52
1, 135553, Control_c, 0, 64, 62
1, 135554, Note_off_c, 0, 62, 51
1, 135555, Note_on_c, 0, 52, 39
1, 135597, Control_c, 0, 64, 61
1, 135629, Note_off_c, 0, 58, 61
1, 135641, Control_c, 0, 64, 62
1, 135656, Control_c, 0, 64, 64
1, 135671, Control_c, 0, 64, 66
1, 135686, Control_c, 0, 64, 68
1, 135701, Control_c, 0, 64, 71
1, 135716, Control_c, 0, 64, 76
1, 135731, Control_c, 0, 64, 80
1, 135745, Control_c, 0, 64, 85
1, 135768, Control_c, 0, 64, 89
1, 135783, Control_c, 0, 64, 90
1, 135797, Control_c, 0, 64, 91
1, 136023, Note_on_c, 0, 60, 54
1, 136034, Note_on_c, 0, 56, 50
1, 136035, Note_off_c, 0, 52, 50
1, 136069, Note_off_c, 0, 61, 38
1, 136079, Control_c, 0, 64, 90
1, 136094, Control_c, 0, 64, 85
1, 136109, Control_c, 0, 64, 72
1, 136123, Control_c, 0, 64, 53
1, 136139, Control_c, 0, 64, 0
1, 136184, Control_c, 0, 64, 34
1, 136199, Control_c, 0, 64, 49
1, 136213, Control_c, 0, 64, 60
1, 136228, Control_c, 0, 64, 68
1, 136243, Control_c, 0, 64, 73
1, 136258, Control_c, 0, 64, 74
1, 136302, Control_c, 0, 64, 75
1, 136317, Control_c, 0, 64, 75
1, 136435, Control_c, 0, 64, 76
1, 136450, Control_c, 0, 64, 78
1, 136464, Control_c, 0, 64, 79
1, 136468, Note_off_c, 0, 60, 60
1, 136479, Note_on_c, 0, 59, 58
1, 136479, Control_c, 0, 64, 81
1, 136496, Note_off_c, 0, 56, 52
1, 136500, Note_on_c, 0, 50, 43
1, 136590, Control_c, 0, 64, 81
1, 136666, Note_off_c, 0, 50, 50
1, 136953, Note_off_c, 0, 59, 60
1, 136958, Note_on_c, 0, 62, 54
1, 136983, Note_on_c, 0, 58, 48
1, 136991, Note_on_c, 0, 56, 41
1, 136994, Note_on_c, 0, 52, 37
1, 137050, Control_c, 0, 64, 81
1, 137065, Control_c, 0, 64, 79
1, 137080, Control_c, 0, 64, 73
1, 137094, Control_c, 0, 64, 63
1, 137109, Control_c, 0, 64, 46
1, 137124, Control_c, 0, 64, 0
1, 137183, Control_c, 0, 64, 44
1, 137198, Control_c, 0, 64, 58
1, 137212, Control_c, 0, 64, 67
1, 137227, Control_c, 0, 64, 73
1, 137242, Control_c, 0, 64, 77
1, 137265, Control_c, 0, 64, 78
1, 137280, Control_c, 0, 64, 79
1, 137294, Control_c, 0, 64, 80
1, 137309, Control_c, 0, 64, 81
1, 137389, Note_off_c, 0, 56, 57
1, 137442, Control_c, 0, 64, 81
1, 137453, Note_on_c, 0, 55, 51
1, 137457, Control_c, 0, 64, 82
1, 137459, Note_on_c, 0, 46, 41
1, 137501, Control_c, 0, 64, 81
1, 137516, Control_c, 0, 64, 74
1, 137531, Control_c, 0, 64, 64
1, 137546, Control_c, 0, 64, 52
1, 137561, Control_c, 0, 64, 48
1, 137576, Control_c, 0, 64, 53
1, 137591, Control_c, 0, 64, 62
1, 137606, Control_c, 0, 64, 70
1, 137610, Note_off_c, 0, 52, 39
1, 137620, Control_c, 0, 64, 80
1, 137635, Control_c, 0, 64, 89
1, 137650, Control_c, 0, 64, 95
1, 137665, Control_c, 0, 64, 97
1, 137910, Note_on_c, 0, 54, 52
1, 137921, Note_on_c, 0, 50, 49
1, 137937, Note_off_c, 0, 46, 54
1, 137949, Note_off_c, 0, 55, 38
1, 137962, Control_c, 0, 64, 86
1, 137977, Control_c, 0, 64, 71
1, 137991, Control_c, 0, 64, 53
1, 138014, Control_c, 0, 64, 0
1, 138043, Control_c, 0, 64, 33
1, 138058, Control_c, 0, 64, 48
1, 138073, Control_c, 0, 64, 63
1, 138088, Control_c, 0, 64, 73
1, 138103, Control_c, 0, 64, 83
1, 138117, Control_c, 0, 64, 87
1, 138132, Control_c, 0, 64, 88
1, 138191, Control_c, 0, 64, 88
1, 138250, Control_c, 0, 64, 88
1, 138355, Control_c, 0, 64, 88
1, 138375, Note_off_c, 0, 50, 59
1, 138384, Control_c, 0, 64, 88
1, 138385, Note_on_c, 0, 53, 50
1, 138399, Control_c, 0, 64, 85
1, 138407, Note_on_c, 0, 44, 36
1, 138412, Note_off_c, 0, 54, 37
1, 138414, Control_c, 0, 64, 75
1, 138429, Control_c, 0, 64, 60
1, 138443, Control_c, 0, 64, 33
1, 138458, Control_c, 0, 64, 0
1, 138488, Control_c, 0, 64, 45
1, 138503, Control_c, 0, 64, 60
1, 138518, Control_c, 0, 64, 71
1, 138533, Control_c, 0, 64, 83
1, 138548, Control_c, 0, 64, 95
1, 138552, Note_off_c, 0, 53, 62
1, 138563, Control_c, 0, 64, 99
1, 138568, Note_off_c, 0, 58, 64
1, 138575, Note_off_c, 0, 62, 63
1, 138578, Control_c, 0, 64, 101
1, 138600, Note_off_c, 0, 44, 42
1, 138607, Control_c, 0, 64, 104
1, 138893, Note_on_c, 0, 62, 50
1, 138902, Note_on_c, 0, 58, 44
1, 138913, Note_on_c, 0, 52, 36
1, 138921, Note_on_c, 0, 56, 38
1, 138971, Control_c, 0, 64, 97
1, 138985, Control_c, 0, 64, 81
1, 139000, Control_c, 0, 64, 66
1, 139015, Control_c, 0, 64, 47
1, 139030, Control_c, 0, 64, 0
1, 139089, Control_c, 0, 64, 48
1, 139104, Control_c, 0, 64, 63
1, 139119, Control_c, 0, 64, 72
1, 139133, Control_c, 0, 64, 82
1, 139148, Control_c, 0, 64, 87
1, 139154, Note_off_c, 0, 56, 51
1, 139162, Note_off_c, 0, 52, 55
1, 139163, Control_c, 0, 64, 89
1, 139178, Control_c, 0, 64, 91
1, 139192, Control_c, 0, 64, 91
1, 139207, Control_c, 0, 64, 92
1, 139222, Control_c, 0, 64, 93
1, 139237, Control_c, 0, 64, 93
1, 139252, Control_c, 0, 64, 94
1, 139371, Control_c, 0, 64, 94
1, 139386, Control_c, 0, 64, 95
1, 139401, Control_c, 0, 64, 95
1, 139415, Control_c, 0, 64, 95
1, 139416, Note_on_c, 0, 61, 59
1, 139430, Note_on_c, 0, 52, 44
1, 139430, Control_c, 0, 64, 92
1, 139441, Note_off_c, 0, 62, 54
1, 139445, Control_c, 0, 64, 83
1, 139460, Control_c, 0, 64, 74
1, 139461, Note_off_c, 0, 58, 61
1, 139475, Control_c, 0, 64, 69
1, 139512, Control_c, 0, 64, 71
1, 139527, Control_c, 0, 64, 75
1, 139542, Control_c, 0, 64, 82
1, 139542, Control_c, 0, 67, 116
1, 139557, Control_c, 0, 64, 90
1, 139557, Control_c, 0, 67, 78
1, 139571, Control_c, 0, 64, 97
1, 139571, Control_c, 0, 67, 48
1, 139586, Control_c, 0, 64, 101
1, 139586, Control_c, 0, 67, 0
1, 139615, Control_c, 0, 64, 103
1, 139662, Note_off_c, 0, 61, 63
1, 139675, Control_c, 0, 64, 106
1, 139892, Note_on_c, 0, 60, 48
1, 139901, Note_off_c, 0, 52, 55
1, 139901, Note_on_c, 0, 56, 50
1, 139942, Control_c, 0, 64, 93
1, 139956, Control_c, 0, 64, 76
1, 139971, Control_c, 0, 64, 59
1, 139986, Control_c, 0, 64, 30
1, 140001, Control_c, 0, 64, 0
1, 140015, Control_c, 0, 64, 31
1, 140030, Control_c, 0, 64, 49
1, 140045, Control_c, 0, 64, 64
1, 140060, Control_c, 0, 64, 75
1, 140075, Control_c, 0, 64, 87
1, 140089, Control_c, 0, 64, 94
1, 140104, Control_c, 0, 64, 95
1, 140150, Control_c, 0, 64, 96
1, 140355, Note_off_c, 0, 60, 62
1, 140371, Note_on_c, 0, 59, 53
1, 140394, Control_c, 0, 64, 91
1, 140399, Note_on_c, 0, 50, 40
1, 140405, Note_off_c, 0, 56, 53
1, 140409, Control_c, 0, 64, 79
1, 140424, Control_c, 0, 64, 67
1, 140438, Control_c, 0, 64, 62
1, 140453, Control_c, 0, 64, 64
1, 140468, Control_c, 0, 64, 68
1, 140483, Control_c, 0, 64, 76
1, 140498, Control_c, 0, 64, 87
1, 140512, Control_c, 0, 64, 101
1, 140527, Control_c, 0, 64, 115
1, 140542, Control_c, 0, 64, 127
1, 140563, Note_off_c, 0, 50, 59
1, 140646, Control_c, 0, 67, 42
1, 140661, Control_c, 0, 67, 43
1, 140691, Control_c, 0, 67, 44
1, 140720, Control_c, 0, 67, 45
1, 140735, Control_c, 0, 67, 47
1, 140750, Control_c, 0, 67, 49
1, 140764, Control_c, 0, 67, 65
1, 140779, Control_c, 0, 67, 88
1, 140794, Control_c, 0, 67, 105
1, 140809, Control_c, 0, 67, 118
1, 140824, Control_c, 0, 67, 125
1, 140838, Control_c, 0, 67, 127
1, 140840, Note_off_c, 0, 59, 63
1, 140854, Note_on_c, 0, 62, 56
1, 140871, Note_on_c, 0, 58, 49
1, 140887, Note_on_c, 0, 56, 44
1, 140899, Note_on_c, 0, 52, 35
1, 140928, Control_c, 0, 64, 119
1, 140943, Control_c, 0, 64, 104
1, 140958, Control_c, 0, 64, 87
1, 140973, Control_c, 0, 64, 71
1, 140988, Control_c, 0, 64, 54
1, 140988, Control_c, 0, 67, 125
1, 141010, Control_c, 0, 64, 0
1, 141025, Control_c, 0, 67, 122
1, 141040, Control_c, 0, 67, 119
1, 141054, Control_c, 0, 64, 38
1, 141054, Control_c, 0, 67, 117
1, 141069, Control_c, 0, 64, 56
1, 141084, Control_c, 0, 64, 69
1, 141084, Control_c, 0, 67, 114
1, 141099, Control_c, 0, 64, 79
1, 141099, Control_c, 0, 67, 112
1, 141114, Control_c, 0, 64, 89
1, 141114, Control_c, 0, 67, 110
1, 141129, Control_c, 0, 64, 92
1, 141143, Control_c, 0, 64, 94
1, 141143, Control_c, 0, 67, 107
1, 141158, Control_c, 0, 64, 95
1, 141173, Control_c, 0, 67, 105
1, 141187, Control_c, 0, 64, 97
1, 141217, Control_c, 0, 64, 99
1, 141262, Note_off_c, 0, 56, 57
1, 141306, Control_c, 0, 64, 101
1, 141321, Control_c, 0, 64, 103
1, 141335, Control_c, 0, 64, 108
1, 141346, Note_on_c, 0, 55, 53
1, 141349, Control_c, 0, 64, 115
1, 141364, Control_c, 0, 64, 118
1, 141371, Note_on_c, 0, 46, 43
1, 141393, Control_c, 0, 64, 106
1, 141393, Control_c, 0, 67, 103
1, 141408, Control_c, 0, 64, 86
1, 141408, Control_c, 0, 67, 100
1, 141423, Control_c, 0, 64, 69
1, 141423, Control_c, 0, 67, 96
1, 141438, Control_c, 0, 64, 54
1, 141438, Control_c, 0, 67, 89
1, 141452, Control_c, 0, 64, 51
1, 141452, Control_c, 0, 67, 79
1, 141467, Control_c, 0, 64, 56
1, 141467, Control_c, 0, 67, 66
1, 141474, Note_off_c, 0, 52, 40
1, 141482, Control_c, 0, 64, 65
1, 141482, Control_c, 0, 67, 54
1, 141497, Control_c, 0, 64, 74
1, 141497, Control_c, 0, 67, 39
1, 141512, Control_c, 0, 64, 89
1, 141512, Control_c, 0, 67, 0
1, 141527, Control_c, 0, 64, 104
1, 141541, Control_c, 0, 64, 113
1, 141556, Control_c, 0, 64, 115
1, 141585, Control_c, 0, 64, 117
1, 141615, Control_c, 0, 64, 120
1, 141630, Control_c, 0, 64, 124
1, 141645, Control_c, 0, 64, 127
1, 141801, Note_on_c, 0, 54, 65
1, 141810, Note_on_c, 0, 50, 58
1, 141845, Note_off_c, 0, 46, 60
1, 141861, Control_c, 0, 64, 95
1, 141872, Note_off_c, 0, 55, 49
1, 141876, Control_c, 0, 64, 70
1, 141890, Control_c, 0, 64, 49
1, 141905, Control_c, 0, 64, 0
1, 141935, Control_c, 0, 64, 31
1, 141950, Control_c, 0, 64, 56
1, 141964, Control_c, 0, 64, 72
1, 141979, Control_c, 0, 64, 88
1, 141994, Control_c, 0, 64, 105
1, 142008, Control_c, 0, 64, 116
1, 142023, Control_c, 0, 64, 127
1, 142264, Note_on_c, 0, 53, 75
1, 142282, Note_on_c, 0, 44, 65
1, 142291, Note_off_c, 0, 50, 59
1, 142304, Note_off_c, 0, 54, 61
1, 142321, Control_c, 0, 64, 112
1, 142335, Control_c, 0, 64, 74
1, 142350, Control_c, 0, 64, 48
1, 142365, Control_c, 0, 64, 0
1, 142395, Control_c, 0, 64, 41
1, 142409, Control_c, 0, 64, 61
1, 142424, Control_c, 0, 64, 79
1, 142439, Control_c, 0, 64, 117
1, 142454, Control_c, 0, 64, 127
1, 142553, Note_off_c, 0, 44, 62
1, 142622, Note_off_c, 0, 53, 56
1, 142733, Note_on_c, 0, 52, 84
1, 142743, Note_on_c, 0, 48, 72
1, 142788, Control_c, 0, 64, 110
1, 142803, Control_c, 0, 64, 73
1, 142818, Control_c, 0, 64, 48
1, 142832, Control_c, 0, 64, 0
1, 142862, Control_c, 0, 64, 33
1, 142877, Control_c, 0, 64, 55
1, 142892, Control_c, 0, 64, 73
1, 142906, Control_c, 0, 64, 107
1, 142921, Control_c, 0, 64, 127
1, 142932, Note_off_c, 0, 52, 60
1, 143293, Note_on_c, 0, 51, 91
1, 143299, Note_off_c, 0, 48, 63
1, 143300, Note_on_c, 0, 42, 75
1, 143418, Control_c, 0, 64, 78
1, 143433, Control_c, 0, 64, 57
1, 143448, Control_c, 0, 64, 0
1, 143567, Control_c, 0, 64, 44
1, 143581, Control_c, 0, 64, 61
1, 143595, Control_c, 0, 64, 69
1, 143610, Control_c, 0, 64, 78
1, 143625, Control_c, 0, 64, 92
1, 143640, Control_c, 0, 64, 116
1, 143654, Control_c, 0, 64, 127
1, 143765, Note_off_c, 0, 58, 61
1, 143851, Note_off_c, 0, 51, 52
1, 143958, Note_off_c, 0, 62, 61
1, 144038, Note_off_c, 0, 42, 53
1, 144324, Note_on_c, 0, 61, 85
1, 144335, Note_on_c, 0, 57, 76
1, 144473, Note_off_c, 0, 57, 61
1, 144527, Note_off_c, 0, 61, 58
1, 144806, Note_on_c, 0, 42, 82
1, 144816, Note_on_c, 0, 51, 90
1, 144843, Note_on_c, 0, 60, 85
1, 144852, Note_on_c, 0, 56, 73
1, 144900, Control_c, 0, 64, 102
1, 144915, Control_c, 0, 64, 61
1, 144930, Note_off_c, 0, 42, 63
1, 144930, Control_c, 0, 64, 0
1, 144933, Note_on_c, 0, 50, 60
1, 144934, Note_on_c, 0, 54, 88
1, 144941, Note_off_c, 0, 51, 62
1, 145019, Control_c, 0, 64, 40
1, 145034, Control_c, 0, 64, 57
1, 145049, Control_c, 0, 64, 69
1, 145064, Control_c, 0, 64, 85
1, 145069, Note_off_c, 0, 54, 60
1, 145070, Note_off_c, 0, 50, 63
1, 145079, Control_c, 0, 64, 127
1, 145180, Note_off_c, 0, 60, 60
1, 145317, Note_off_c, 0, 56, 32
1, 145834, Note_on_c, 0, 68, 72
1, 145845, Note_on_c, 0, 60, 63
1, 145846, Note_on_c, 0, 56, 66
1, 145847, Note_on_c, 0, 44, 91
1, 145851, Note_on_c, 0, 30, 80
1, 145854, Note_on_c, 0, 36, 77
1, 145931, Control_c, 0, 64, 98
1, 145946, Control_c, 0, 64, 69
1, 145961, Control_c, 0, 64, 44
1, 145976, Control_c, 0, 64, 0
1, 146006, Control_c, 0, 64, 29
1, 146021, Control_c, 0, 64, 52
1, 146036, Control_c, 0, 64, 68
1, 146050, Control_c, 0, 64, 86
1, 146065, Control_c, 0, 64, 127
1, 146124, Note_off_c, 0, 68, 53
1, 146153, Note_off_c, 0, 56, 35
1, 146154, Note_off_c, 0, 60, 35
1, 146485, Note_off_c, 0, 36, 26
1, 146498, Note_off_c, 0, 44, 35
1, 146528, Note_off_c, 0, 30, 27
1, 146754, Control_c, 0, 67, 39
1, 146769, Control_c, 0, 67, 43
1, 146784, Control_c, 0, 67, 50
1, 146799, Control_c, 0, 67, 62
1, 146814, Control_c, 0, 67, 79
1, 146828, Control_c, 0, 67, 93
1, 146843, Control_c, 0, 67, 107
1, 146858, Control_c, 0, 67, 125
1, 146873, Control_c, 0, 67, 127
1, 147338, Note_on_c, 0, 43, 50
1, 147384, Control_c, 0, 64, 99
1, 147399, Control_c, 0, 64, 73
1, 147414, Control_c, 0, 64, 48
1, 147428, Control_c, 0, 64, 0
1, 147736, Note_on_c, 0, 36, 44
1, 147794, Note_on_c, 0, 51, 49
1, 147893, Note_on_c, 0, 30, 46
1, 147925, Control_c, 0, 64, 32
1, 147940, Control_c, 0, 64, 47
1, 147946, Note_off_c, 0, 36, 34
1, 147954, Control_c, 0, 64, 57
1, 147969, Control_c, 0, 64, 61
1, 147984, Control_c, 0, 64, 62
1, 147999, Control_c, 0, 64, 65
1, 148014, Control_c, 0, 64, 68
1, 148028, Control_c, 0, 64, 72
1, 148043, Control_c, 0, 64, 76
1, 148058, Control_c, 0, 64, 79
1, 148060, Note_off_c, 0, 51, 56
1, 148073, Control_c, 0, 64, 83
1, 148089, Control_c, 0, 64, 87
1, 148103, Control_c, 0, 64, 90
1, 148118, Control_c, 0, 64, 93
1, 148134, Control_c, 0, 64, 96
1, 148149, Control_c, 0, 64, 98
1, 148161, Note_on_c, 0, 36, 54
1, 148193, Control_c, 0, 64, 100
1, 148223, Control_c, 0, 67, 125
1, 148224, Note_on_c, 0, 51, 57
1, 148229, Note_off_c, 0, 30, 41
1, 148238, Control_c, 0, 67, 96
1, 148252, Control_c, 0, 67, 70
1, 148267, Control_c, 0, 67, 43
1, 148282, Control_c, 0, 67, 0
1, 148293, Note_off_c, 0, 51, 57
1, 148442, Note_on_c, 0, 30, 47
1, 148444, Note_off_c, 0, 36, 53
1, 148465, Note_on_c, 0, 51, 62
1, 148502, Note_off_c, 0, 51, 66
1, 148565, Note_on_c, 0, 51, 73
1, 148575, Note_on_c, 0, 36, 58
1, 148602, Note_off_c, 0, 51, 61
1, 148614, Note_off_c, 0, 30, 40
1, 148737, Note_on_c, 0, 30, 47
1, 148739, Note_off_c, 0, 43, 58
1, 148789, Note_on_c, 0, 51, 77
1, 148820, Note_off_c, 0, 51, 62
1, 148898, Note_on_c, 0, 44, 60
1, 148900, Note_off_c, 0, 36, 22
1, 148927, Control_c, 0, 64, 97
1, 148942, Control_c, 0, 64, 93
1, 148957, Control_c, 0, 64, 83
1, 148968, Note_on_c, 0, 51, 60
1, 148972, Control_c, 0, 64, 70
1, 148987, Control_c, 0, 64, 48
1, 148990, Note_off_c, 0, 30, 25
1, 149001, Control_c, 0, 64, 0
1, 149044, Note_off_c, 0, 51, 58
1, 149054, Note_on_c, 0, 48, 63
1, 149146, Note_on_c, 0, 36, 49
1, 149149, Control_c, 0, 67, 41
1, 149164, Control_c, 0, 67, 50
1, 149179, Control_c, 0, 67, 62
1, 149193, Control_c, 0, 67, 77
1, 149208, Control_c, 0, 67, 102
1, 149223, Control_c, 0, 67, 125
1, 149234, Note_off_c, 0, 36, 59
1, 149246, Control_c, 0, 67, 127
1, 149273, Note_on_c, 0, 30, 42
1, 149416, Note_on_c, 0, 36, 43
1, 149445, Note_off_c, 0, 30, 43
1, 149469, Note_on_c, 0, 52, 55
1, 149511, Note_off_c, 0, 52, 65
1, 149529, Note_off_c, 0, 48, 37
1, 149538, Note_on_c, 0, 51, 64
1, 149715, Note_off_c, 0, 36, 51
1, 149726, Note_on_c, 0, 30, 39
1, 149917, Note_off_c, 0, 30, 45
1, 149921, Note_on_c, 0, 36, 40
1, 150084, Control_c, 0, 64, 41
1, 150098, Control_c, 0, 64, 52
1, 150113, Control_c, 0, 64, 60
1, 150128, Control_c, 0, 64, 62
1, 150131, Note_on_c, 0, 30, 39
1, 150143, Control_c, 0, 64, 64
1, 150157, Control_c, 0, 64, 67
1, 150172, Control_c, 0, 64, 70
1, 150187, Note_off_c, 0, 51, 64
1, 150187, Control_c, 0, 64, 76
1, 150191, Note_off_c, 0, 30, 44
1, 150202, Control_c, 0, 64, 81
1, 150216, Control_c, 0, 64, 86
1, 150231, Control_c, 0, 64, 89
1, 150231, Control_c, 0, 67, 110
1, 150246, Control_c, 0, 64, 93
1, 150246, Control_c, 0, 67, 93
1, 150261, Control_c, 0, 64, 95
1, 150261, Control_c, 0, 67, 72
1, 150276, Control_c, 0, 64, 97
1, 150276, Control_c, 0, 67, 0
1, 150291, Control_c, 0, 64, 99
1, 150305, Note_off_c, 0, 36, 33
1, 150305, Control_c, 0, 64, 101
1, 150320, Control_c, 0, 64, 103
1, 150355, Note_off_c, 0, 44, 39
1, 150453, Control_c, 0, 64, 100
1, 150468, Control_c, 0, 64, 95
1, 150483, Control_c, 0, 64, 89
1, 150498, Control_c, 0, 64, 82
1, 150513, Control_c, 0, 64, 74
1, 150528, Control_c, 0, 64, 69
1, 150543, Control_c, 0, 64, 62
1, 150558, Control_c, 0, 64, 50
1, 150558, Control_c, 0, 67, 36
1, 150572, Control_c, 0, 64, 34
1, 150572, Control_c, 0, 67, 58
1, 150587, Control_c, 0, 64, 0
1, 150587, Control_c, 0, 67, 82
1, 150602, Control_c, 0, 67, 115
1, 150617, Control_c, 0, 67, 127
1, 150662, Note_on_c, 0, 60, 43
1, 150677, Note_on_c, 0, 56, 46
1, 150817, Control_c, 0, 64, 35
1, 150832, Control_c, 0, 64, 49
1, 150847, Control_c, 0, 64, 60
1, 150862, Control_c, 0, 64, 65
1, 150877, Control_c, 0, 64, 66
1, 150891, Control_c, 0, 64, 67
1, 150906, Control_c, 0, 64, 68
1, 150921, Control_c, 0, 64, 70
1, 150936, Control_c, 0, 64, 72
1, 150951, Control_c, 0, 64, 74
1, 150966, Control_c, 0, 64, 75
1, 150980, Control_c, 0, 64, 76
1, 150995, Control_c, 0, 64, 77
1, 151010, Control_c, 0, 64, 77
1, 151025, Control_c, 0, 64, 78
1, 151040, Control_c, 0, 64, 78
1, 151054, Control_c, 0, 64, 79
1, 151069, Control_c, 0, 64, 79
1, 151084, Control_c, 0, 64, 80
1, 151098, Control_c, 0, 64, 80
1, 151113, Control_c, 0, 64, 81
1, 151128, Control_c, 0, 64, 84
1, 151143, Control_c, 0, 64, 87
1, 151155, Note_on_c, 0, 59, 58
1, 151158, Control_c, 0, 64, 89
1, 151164, Note_off_c, 0, 60, 53
1, 151172, Control_c, 0, 64, 90
1, 151181, Note_off_c, 0, 56, 39
1, 151194, Note_on_c, 0, 50, 36
1, 151202, Control_c, 0, 64, 89
1, 151217, Control_c, 0, 64, 83
1, 151232, Control_c, 0, 64, 73
1, 151246, Control_c, 0, 64, 69
1, 151276, Control_c, 0, 64, 69
1, 151291, Control_c, 0, 64, 73
1, 151306, Control_c, 0, 64, 80
1, 151322, Control_c, 0, 64, 88
1, 151336, Control_c, 0, 64, 97
1, 151347, Note_off_c, 0, 59, 63
1, 151351, Control_c, 0, 64, 103
1, 151366, Control_c, 0, 64, 105
1, 151598, Note_on_c, 0, 58, 66
1, 151620, Note_on_c, 0, 54, 48
1, 151658, Note_off_c, 0, 50, 37
1, 151669, Control_c, 0, 64, 103
1, 151684, Control_c, 0, 64, 85
1, 151699, Control_c, 0, 64, 63
1, 151714, Control_c, 0, 64, 0
1, 151803, Control_c, 0, 64, 52
1, 151818, Control_c, 0, 64, 67
1, 151833, Control_c, 0, 64, 74
1, 151848, Control_c, 0, 64, 84
1, 151863, Control_c, 0, 64, 86
1, 151877, Control_c, 0, 64, 87
1, 151892, Control_c, 0, 64, 88
1, 151907, Control_c, 0, 64, 88
1, 151915, Note_off_c, 0, 58, 36
1, 151936, Control_c, 0, 64, 89
1, 151951, Control_c, 0, 67, 111
1, 151966, Control_c, 0, 64, 89
1, 151966, Control_c, 0, 67, 75
1, 151981, Control_c, 0, 64, 90
1, 151981, Control_c, 0, 67, 37
1, 151995, Control_c, 0, 64, 90
1, 151995, Control_c, 0, 67, 0
1, 152010, Control_c, 0, 64, 91
1, 152025, Control_c, 0, 64, 92
1, 152040, Control_c, 0, 64, 92
1, 152042, Note_on_c, 0, 57, 62
1, 152055, Control_c, 0, 64, 93
1, 152063, Note_on_c, 0, 48, 62
1, 152069, Control_c, 0, 64, 94
1, 152070, Note_off_c, 0, 54, 60
1, 152084, Control_c, 0, 64, 95
1, 152099, Control_c, 0, 64, 97
1, 152115, Control_c, 0, 64, 99
1, 152130, Control_c, 0, 64, 101
1, 152140, Note_off_c, 0, 48, 59
1, 152144, Control_c, 0, 64, 104
1, 152159, Control_c, 0, 64, 108
1, 152174, Control_c, 0, 64, 111
1, 152189, Control_c, 0, 64, 113
1, 152218, Control_c, 0, 64, 116
1, 152256, Control_c, 0, 64, 119
1, 152286, Control_c, 0, 64, 124
1, 152300, Control_c, 0, 64, 127
1, 152526, Note_off_c, 0, 57, 62
1, 152534, Note_on_c, 0, 60, 60
1, 152551, Note_on_c, 0, 54, 50
1, 152552, Note_on_c, 0, 50, 35
1, 152552, Note_on_c, 0, 56, 52
1, 152611, Control_c, 0, 64, 119
1, 152626, Control_c, 0, 64, 99
1, 152641, Control_c, 0, 64, 79
1, 152656, Control_c, 0, 64, 61
1, 152671, Control_c, 0, 64, 0
1, 152730, Control_c, 0, 64, 43
1, 152744, Control_c, 0, 64, 60
1, 152759, Control_c, 0, 64, 75
1, 152774, Control_c, 0, 64, 92
1, 152789, Control_c, 0, 64, 124
1, 152804, Control_c, 0, 64, 127
1, 152940, Note_off_c, 0, 54, 60
1, 153041, Note_on_c, 0, 53, 57
1, 153044, Note_on_c, 0, 44, 44
1, 153094, Control_c, 0, 64, 97
1, 153109, Control_c, 0, 64, 70
1, 153123, Control_c, 0, 64, 54
1, 153138, Control_c, 0, 64, 52
1, 153153, Control_c, 0, 64, 59
1, 153160, Note_off_c, 0, 50, 38
1, 153167, Control_c, 0, 64, 69
1, 153182, Control_c, 0, 64, 89
1, 153197, Control_c, 0, 64, 127
1, 153249, Note_off_c, 0, 53, 59
1, 153462, Note_on_c, 0, 52, 60
1, 153470, Note_on_c, 0, 48, 61
1, 153486, Note_off_c, 0, 44, 60
1, 153493, Control_c, 0, 64, 84
1, 153508, Control_c, 0, 64, 60
1, 153523, Control_c, 0, 64, 0
1, 153567, Control_c, 0, 64, 37
1, 153582, Control_c, 0, 64, 60
1, 153597, Control_c, 0, 64, 74
1, 153612, Control_c, 0, 64, 95
1, 153627, Control_c, 0, 64, 127
1, 153923, Note_off_c, 0, 48, 60
1, 153926, Note_on_c, 0, 51, 64
1, 153932, Note_on_c, 0, 42, 51
1, 153941, Note_off_c, 0, 52, 49
1, 153946, Control_c, 0, 64, 97
1, 153961, Control_c, 0, 64, 69
1, 153976, Control_c, 0, 64, 45
1, 153990, Control_c, 0, 64, 34
1, 154005, Control_c, 0, 64, 49
1, 154020, Control_c, 0, 64, 65
1, 154035, Control_c, 0, 64, 87
1, 154042, Note_off_c, 0, 56, 64
1, 154050, Control_c, 0, 64, 127
1, 154057, Note_off_c, 0, 51, 61
1, 154060, Note_off_c, 0, 60, 60
1, 154439, Note_on_c, 0, 60, 52
1, 154463, Note_on_c, 0, 56, 40
1, 154465, Note_on_c, 0, 54, 37
1, 154492, Note_on_c, 0, 50, 36
1, 154516, Control_c, 0, 64, 87
1, 154524, Note_off_c, 0, 42, 38
1, 154531, Control_c, 0, 64, 64
1, 154545, Control_c, 0, 64, 0
1, 154619, Control_c, 0, 64, 44
1, 154634, Control_c, 0, 64, 61
1, 154649, Control_c, 0, 64, 73
1, 154664, Control_c, 0, 64, 93
1, 154674, Note_off_c, 0, 54, 58
1, 154679, Control_c, 0, 64, 127
1, 154702, Note_off_c, 0, 50, 39
1, 154921, Note_on_c, 0, 59, 64
1, 154934, Note_off_c, 0, 60, 56
1, 154935, Note_off_c, 0, 56, 39
1, 154945, Note_on_c, 0, 50, 47
1, 155041, Note_off_c, 0, 59, 63
1, 155360, Note_on_c, 0, 58, 67
1, 155381, Note_on_c, 0, 54, 50
1, 155396, Note_off_c, 0, 50, 55
1, 155428, Control_c, 0, 64, 83
1, 155443, Control_c, 0, 64, 60
1, 155458, Control_c, 0, 64, 0
1, 155517, Control_c, 0, 64, 52
1, 155532, Control_c, 0, 64, 66
1, 155547, Control_c, 0, 64, 77
1, 155561, Control_c, 0, 64, 92
1, 155576, Control_c, 0, 64, 111
1, 155591, Control_c, 0, 64, 127
1, 155601, Note_off_c, 0, 58, 58
1, 155797, Note_on_c, 0, 57, 64
1, 155809, Note_off_c, 0, 54, 61
1, 155813, Note_on_c, 0, 48, 60
1, 155893, Note_off_c, 0, 48, 59
1, 156232, Note_off_c, 0, 57, 63
1, 156242, Note_on_c, 0, 60, 61
1, 156258, Note_on_c, 0, 54, 48
1, 156260, Note_on_c, 0, 50, 42
1, 156269, Note_on_c, 0, 56, 51
1, 156325, Control_c, 0, 64, 91
1, 156340, Control_c, 0, 64, 63
1, 156355, Control_c, 0, 64, 29
1, 156370, Control_c, 0, 64, 0
1, 156399, Control_c, 0, 64, 36
1, 156414, Control_c, 0, 64, 57
1, 156429, Control_c, 0, 64, 72
1, 156444, Control_c, 0, 64, 98
1, 156458, Control_c, 0, 64, 127
1, 156634, Note_off_c, 0, 54, 52
1, 156716, Note_on_c, 0, 53, 61
1, 156722, Note_on_c, 0, 44, 50
1, 156762, Control_c, 0, 64, 90
1, 156777, Control_c, 0, 64, 66
1, 156791, Control_c, 0, 64, 43
1, 156806, Control_c, 0, 64, 35
1, 156821, Control_c, 0, 64, 47
1, 156835, Control_c, 0, 64, 63
1, 156850, Control_c, 0, 64, 85
1, 156853, Note_off_c, 0, 50, 35
1, 156865, Control_c, 0, 64, 127
1, 156995, Note_off_c, 0, 53, 58
1, 157156, Note_on_c, 0, 48, 72
1, 157157, Note_on_c, 0, 52, 75
1, 157181, Note_off_c, 0, 44, 62
1, 157207, Control_c, 0, 64, 110
1, 157222, Control_c, 0, 64, 74
1, 157237, Control_c, 0, 64, 53
1, 157252, Control_c, 0, 64, 0
1, 157281, Control_c, 0, 64, 46
1, 157296, Control_c, 0, 64, 65
1, 157311, Control_c, 0, 64, 87
1, 157326, Control_c, 0, 64, 127
1, 157611, Note_on_c, 0, 51, 88
1, 157622, Note_on_c, 0, 42, 74
1, 157652, Note_off_c, 0, 52, 57
1, 157661, Note_off_c, 0, 48, 62
1, 157688, Control_c, 0, 64, 113
1, 157704, Control_c, 0, 64, 75
1, 157719, Control_c, 0, 64, 51
1, 157734, Control_c, 0, 64, 0
1, 157778, Control_c, 0, 64, 48
1, 157793, Control_c, 0, 64, 69
1, 157808, Control_c, 0, 64, 100
1, 157823, Control_c, 0, 64, 127
1, 158068, Note_on_c, 0, 46, 81
1, 158069, Note_on_c, 0, 50, 84
1, 158103, Note_off_c, 0, 42, 61
1, 158105, Note_off_c, 0, 51, 63
1, 158134, Control_c, 0, 64, 113
1, 158148, Control_c, 0, 64, 72
1, 158163, Control_c, 0, 64, 40
1, 158178, Control_c, 0, 64, 0
1, 158223, Control_c, 0, 64, 42
1, 158245, Control_c, 0, 64, 62
1, 158260, Control_c, 0, 64, 75
1, 158275, Control_c, 0, 64, 98
1, 158289, Control_c, 0, 64, 127
1, 158642, Note_on_c, 0, 40, 74
1, 158645, Note_on_c, 0, 49, 94
1, 158683, Note_off_c, 0, 50, 61
1, 158749, Control_c, 0, 64, 111
1, 158751, Note_off_c, 0, 46, 45
1, 158764, Control_c, 0, 64, 77
1, 158779, Control_c, 0, 64, 55
1, 158794, Control_c, 0, 64, 0
1, 158927, Control_c, 0, 64, 38
1, 158942, Control_c, 0, 64, 54
1, 158957, Control_c, 0, 64, 63
1, 158979, Control_c, 0, 64, 70
1, 158994, Control_c, 0, 64, 82
1, 159008, Control_c, 0, 64, 108
1, 159023, Control_c, 0, 64, 127
1, 159263, Note_off_c, 0, 56, 61
1, 159764, Note_on_c, 0, 59, 92
1, 159786, Note_off_c, 0, 60, 56
1, 159792, Note_on_c, 0, 55, 66
1, 159855, Note_off_c, 0, 40, 56
1, 159906, Note_off_c, 0, 49, 60
1, 159957, Note_off_c, 0, 59, 61
1, 160253, Note_on_c, 0, 40, 80
1, 160255, Note_on_c, 0, 49, 91
1, 160295, Note_on_c, 0, 58, 92
1, 160302, Note_on_c, 0, 54, 80
1, 160313, Note_off_c, 0, 55, 60
1, 160350, Control_c, 0, 64, 93
1, 160356, Note_off_c, 0, 40, 60
1, 160365, Control_c, 0, 64, 65
1, 160369, Note_on_c, 0, 48, 81
1, 160376, Note_on_c, 0, 52, 82
1, 160379, Note_off_c, 0, 49, 61
1, 160380, Control_c, 0, 64, 0
1, 160491, Control_c, 0, 64, 47
1, 160506, Control_c, 0, 64, 63
1, 160521, Note_off_c, 0, 52, 63
1, 160521, Control_c, 0, 64, 76
1, 160526, Note_off_c, 0, 48, 62
1, 160536, Control_c, 0, 64, 100
1, 160551, Control_c, 0, 64, 127
1, 160789, Note_off_c, 0, 58, 59
1, 160949, Note_off_c, 0, 54, 32
1, 161329, Note_on_c, 0, 42, 96
1, 161332, Note_on_c, 0, 66, 79
1, 161338, Note_on_c, 0, 28, 84
1, 161341, Note_on_c, 0, 34, 88
1, 161342, Note_on_c, 0, 54, 65
1, 161349, Note_on_c, 0, 58, 66
1, 161432, Control_c, 0, 64, 81
1, 161447, Control_c, 0, 64, 57
1, 161462, Control_c, 0, 64, 0
1, 161506, Control_c, 0, 64, 41
1, 161521, Control_c, 0, 64, 64
1, 161536, Control_c, 0, 64, 86
1, 161551, Control_c, 0, 64, 127
1, 161589, Note_off_c, 0, 66, 60
1, 161617, Note_off_c, 0, 54, 36
1, 161645, Note_off_c, 0, 58, 54
1, 162156, Note_off_c, 0, 42, 52
1, 162169, Note_off_c, 0, 28, 35
1, 162228, Note_off_c, 0, 34, 56
1, 162256, Control_c, 0, 67, 37
1, 162271, Control_c, 0, 67, 43
1, 162286, Control_c, 0, 67, 52
1, 162301, Control_c, 0, 67, 66
1, 162315, Control_c, 0, 67, 85
1, 162329, Control_c, 0, 67, 112
1, 162344, Control_c, 0, 67, 127
1, 162850, Note_on_c, 0, 41, 57
1, 162916, Control_c, 0, 64, 110
1, 162931, Control_c, 0, 64, 80
1, 162946, Control_c, 0, 64, 61
1, 162960, Control_c, 0, 64, 0
1, 163273, Note_on_c, 0, 34, 47
1, 163302, Note_on_c, 0, 49, 51
1, 163403, Note_on_c, 0, 28, 52
1, 163432, Note_off_c, 0, 34, 42
1, 163435, Control_c, 0, 64, 30
1, 163450, Control_c, 0, 64, 41
1, 163472, Control_c, 0, 64, 53
1, 163487, Control_c, 0, 64, 63
1, 163501, Control_c, 0, 64, 67
1, 163516, Control_c, 0, 64, 72
1, 163531, Control_c, 0, 64, 80
1, 163546, Control_c, 0, 64, 93
1, 163557, Note_off_c, 0, 49, 60
1, 163561, Control_c, 0, 64, 124
1, 163575, Control_c, 0, 64, 127
1, 163650, Control_c, 0, 67, 104
1, 163653, Note_on_c, 0, 34, 55
1, 163665, Control_c, 0, 67, 74
1, 163679, Control_c, 0, 67, 47
1, 163694, Control_c, 0, 67, 0
1, 163733, Note_on_c, 0, 49, 64
1, 163760, Note_off_c, 0, 28, 35
1, 163819, Note_off_c, 0, 49, 53
1, 163896, Note_on_c, 0, 28, 54
1, 163915, Note_off_c, 0, 34, 55
1, 163997, Note_on_c, 0, 49, 60
1, 164022, Note_off_c, 0, 49, 63
1, 164047, Note_on_c, 0, 34, 62
1, 164091, Note_on_c, 0, 49, 66
1, 164099, Note_off_c, 0, 28, 39
1, 164131, Note_off_c, 0, 49, 64
1, 164230, Note_on_c, 0, 28, 69
1, 164234, Note_off_c, 0, 41, 64
1, 164313, Note_on_c, 0, 49, 77
1, 164351, Note_off_c, 0, 49, 63
1, 164355, Note_off_c, 0, 34, 27
1, 164397, Note_on_c, 0, 42, 83
1, 164475, Note_on_c, 0, 49, 69
1, 164562, Control_c, 0, 64, 108
1, 164572, Note_off_c, 0, 49, 60
1, 164574, Note_on_c, 0, 46, 68
1, 164577, Control_c, 0, 64, 78
1, 164592, Note_off_c, 0, 28, 37
1, 164592, Control_c, 0, 64, 59
1, 164607, Control_c, 0, 64, 0
1, 164681, Control_c, 0, 64, 40
1, 164684, Note_on_c, 0, 34, 64
1, 164696, Control_c, 0, 64, 56
1, 164711, Control_c, 0, 64, 68
1, 164725, Control_c, 0, 64, 74
1, 164740, Control_c, 0, 64, 79
1, 164755, Control_c, 0, 64, 81
1, 164770, Control_c, 0, 64, 81
1, 164785, Control_c, 0, 64, 82
1, 164787, Note_on_c, 0, 28, 71
1, 164799, Control_c, 0, 64, 84
1, 164814, Control_c, 0, 64, 86
1, 164829, Control_c, 0, 64, 89
1, 164840, Note_off_c, 0, 34, 38
1, 164843, Control_c, 0, 64, 92
1, 164858, Control_c, 0, 64, 95
1, 164873, Control_c, 0, 64, 99
1, 164888, Control_c, 0, 64, 104
1, 164890, Note_off_c, 0, 46, 57
1, 164904, Control_c, 0, 64, 111
1, 164919, Control_c, 0, 64, 127
1, 164949, Note_on_c, 0, 34, 74
1, 165013, Note_on_c, 0, 50, 70
1, 165046, Note_off_c, 0, 50, 64
1, 165058, Note_off_c, 0, 28, 32
1, 165060, Control_c, 0, 64, 101
1, 165074, Control_c, 0, 64, 67
1, 165078, Note_on_c, 0, 49, 81
1, 165089, Control_c, 0, 64, 0
1, 165134, Control_c, 0, 64, 49
1, 165146, Note_off_c, 0, 49, 66
1, 165148, Control_c, 0, 64, 71
1, 165163, Control_c, 0, 64, 115
1, 165178, Control_c, 0, 64, 127
1, 165227, Note_off_c, 0, 42, 61
1, 165284, Note_on_c, 0, 28, 90
1, 165300, Note_off_c, 0, 34, 62
1, 165387, Note_off_c, 0, 28, 59
1, 165399, Note_on_c, 0, 52, 87
1, 165451, Note_on_c, 0, 34, 75
1, 165477, Note_off_c, 0, 52, 57
1, 165528, Note_on_c, 0, 43, 93
1, 165587, Note_on_c, 0, 52, 99
1, 165627, Note_off_c, 0, 43, 59
1, 165635, Note_off_c, 0, 52, 62
1, 165708, Note_on_c, 0, 28, 91
1, 165730, Note_off_c, 0, 34, 61
1, 165734, Note_on_c, 0, 52, 95
1, 165756, Note_off_c, 0, 28, 58
1, 165769, Note_off_c, 0, 52, 65
1, 165847, Note_on_c, 0, 52, 95
1, 165885, Note_off_c, 0, 52, 64
1, 165909, Note_on_c, 0, 44, 99
1, 165927, Control_c, 0, 64, 111
1, 165942, Control_c, 0, 64, 67
1, 165957, Control_c, 0, 64, 34
1, 165971, Control_c, 0, 64, 0
1, 165972, Note_on_c, 0, 52, 96
1, 165986, Control_c, 0, 64, 34
1, 166001, Control_c, 0, 64, 60
1, 166016, Control_c, 0, 64, 87
1, 166030, Control_c, 0, 64, 127
1, 166043, Note_on_c, 0, 49, 97
1, 166078, Note_off_c, 0, 52, 30
1, 166091, Note_off_c, 0, 49, 66
1, 166106, Note_on_c, 0, 37, 94
1, 166173, Note_on_c, 0, 53, 99
1, 166231, Note_on_c, 0, 31, 91
1, 166237, Note_on_c, 0, 52, 104
1, 166237, Control_c, 0, 64, 62
1, 166252, Control_c, 0, 64, 0
1, 166254, Note_off_c, 0, 37, 64
1, 166256, Note_off_c, 0, 53, 63
1, 166356, Control_c, 0, 64, 43
1, 166370, Control_c, 0, 64, 76
1, 166383, Note_on_c, 0, 37, 99
1, 166385, Control_c, 0, 64, 105
1, 166400, Control_c, 0, 64, 127
1, 166415, Note_off_c, 0, 44, 63
1, 166622, Note_on_c, 0, 45, 104
1, 166660, Control_c, 0, 64, 94
1, 166665, Note_off_c, 0, 31, 62
1, 166675, Control_c, 0, 64, 60
1, 166690, Control_c, 0, 64, 0
1, 166779, Control_c, 0, 64, 30
1, 166793, Control_c, 0, 64, 54
1, 166807, Control_c, 0, 64, 68
1, 166818, Note_on_c, 0, 31, 80
1, 166822, Control_c, 0, 64, 86
1, 166837, Control_c, 0, 64, 127
1, 166855, Note_off_c, 0, 37, 62
1, 166950, Note_on_c, 0, 37, 95
1, 166976, Note_off_c, 0, 31, 62
1, 167099, Note_on_c, 0, 31, 77
1, 167125, Note_off_c, 0, 37, 61
1, 167407, Note_on_c, 0, 37, 72
1, 167417, Note_off_c, 0, 31, 60
1, 167456, Note_on_c, 0, 34, 14
1, 167493, Note_off_c, 0, 37, 62
1, 167510, Note_on_c, 0, 31, 75
1, 167519, Note_off_c, 0, 34, 48
1, 167717, Note_on_c, 0, 37, 83
1, 167730, Note_off_c, 0, 31, 63
1, 167754, Note_off_c, 0, 52, 63
1, 167871, Note_on_c, 0, 31, 79
1, 167906, Note_off_c, 0, 37, 61
1, 167933, Note_on_c, 0, 52, 93
1, 167989, Note_off_c, 0, 52, 60
1, 168061, Note_on_c, 0, 37, 90
1, 168112, Note_off_c, 0, 31, 55
1, 168151, Note_on_c, 0, 52, 108
1, 168201, Note_off_c, 0, 52, 57
1, 168298, Note_on_c, 0, 52, 99
1, 168348, Note_off_c, 0, 52, 62
1, 168378, Note_on_c, 0, 31, 77
1, 168401, Note_off_c, 0, 45, 59
1, 168434, Note_on_c, 0, 52, 100
1, 168451, Note_off_c, 0, 31, 60
1, 168455, Note_off_c, 0, 52, 68
1, 168506, Note_off_c, 0, 37, 57
1, 168586, Control_c, 0, 67, 50
1, 168601, Control_c, 0, 67, 83
1, 168616, Control_c, 0, 67, 127
1, 168675, Control_c, 0, 64, 80
1, 168690, Control_c, 0, 64, 0
1, 168948, Note_on_c, 0, 30, 43
1, 168988, Note_on_c, 0, 42, 33
1, 169094, Note_on_c, 0, 52, 50
1, 169099, Control_c, 0, 64, 33
1, 169113, Control_c, 0, 64, 48
1, 169128, Control_c, 0, 64, 61
1, 169143, Control_c, 0, 64, 66
1, 169158, Control_c, 0, 64, 70
1, 169173, Control_c, 0, 64, 76
1, 169187, Control_c, 0, 64, 86
1, 169188, Note_off_c, 0, 52, 60
1, 169202, Control_c, 0, 64, 102
1, 169217, Control_c, 0, 64, 127
1, 169221, Note_on_c, 0, 58, 59
1, 169251, Note_off_c, 0, 58, 65
1, 169329, Note_off_c, 0, 30, 40
1, 169346, Note_on_c, 0, 64, 61
1, 169363, Note_off_c, 0, 42, 41
1, 169391, Note_off_c, 0, 64, 56
1, 169407, Note_on_c, 0, 70, 67
1, 169462, Note_on_c, 0, 68, 84
1, 169482, Note_off_c, 0, 70, 64
1, 169493, Note_off_c, 0, 68, 62
1, 169535, Control_c, 0, 67, 75
1, 169550, Control_c, 0, 67, 0
1, 169732, Note_on_c, 0, 72, 76
1, 170023, Note_on_c, 0, 73, 79
1, 170050, Note_off_c, 0, 72, 55
1, 170193, Note_on_c, 0, 70, 49
1, 170251, Note_on_c, 0, 64, 47
1, 170343, Note_off_c, 0, 64, 54
1, 170344, Note_off_c, 0, 70, 32
1, 170550, Note_on_c, 0, 66, 58
1, 170637, Note_off_c, 0, 66, 55
1, 170661, Note_on_c, 0, 61, 31
1, 170695, Note_off_c, 0, 61, 45
1, 170869, Note_on_c, 0, 64, 55
1, 170873, Note_on_c, 0, 70, 38
1, 170899, Note_off_c, 0, 64, 66
1, 170902, Note_off_c, 0, 70, 61
1, 171111, Note_on_c, 0, 72, 69
1, 171133, Note_off_c, 0, 73, 62
1, 171147, Note_off_c, 0, 72, 62
1, 171155, Note_on_c, 0, 61, 47
1, 171174, Note_on_c, 0, 54, 43
1, 171228, Note_off_c, 0, 54, 56
1, 171375, Note_on_c, 0, 70, 63
1, 171381, Note_off_c, 0, 61, 52
1, 171384, Note_on_c, 0, 58, 45
1, 171393, Note_on_c, 0, 64, 48
1, 171405, Note_on_c, 0, 73, 79
1, 171409, Note_off_c, 0, 70, 65
1, 171418, Note_off_c, 0, 58, 63
1, 171422, Note_off_c, 0, 64, 62
1, 171424, Note_on_c, 0, 68, 62
1, 171468, Note_off_c, 0, 68, 49
1, 171549, Note_on_c, 0, 54, 52
1, 171595, Note_off_c, 0, 54, 59
1, 171606, Note_on_c, 0, 49, 48
1, 171630, Note_off_c, 0, 73, 60
1, 171638, Note_off_c, 0, 49, 54
1, 171657, Note_on_c, 0, 76, 90
1, 171712, Note_off_c, 0, 76, 65
1, 171803, Note_on_c, 0, 58, 58
1, 171820, Note_on_c, 0, 64, 44
1, 171862, Note_off_c, 0, 64, 64
1, 171875, Note_on_c, 0, 52, 54
1, 171883, Note_off_c, 0, 58, 60
1, 171909, Note_off_c, 0, 52, 64
1, 171970, Note_on_c, 0, 78, 89
1, 172008, Note_on_c, 0, 75, 50
1, 172151, Note_on_c, 0, 73, 52
1, 172181, Note_on_c, 0, 42, 46
1, 172208, Note_off_c, 0, 42, 59
1, 172262, Note_off_c, 0, 75, 34
1, 172287, Note_on_c, 0, 70, 37
1, 172300, Note_off_c, 0, 73, 37
1, 172348, Note_off_c, 0, 70, 48
1, 172354, Note_on_c, 0, 68, 40
1, 172391, Note_on_c, 0, 58, 49
1, 172405, Note_on_c, 0, 64, 49
1, 172435, Note_off_c, 0, 64, 65
1, 172440, Note_on_c, 0, 52, 50
1, 172443, Note_off_c, 0, 58, 61
1, 172477, Note_off_c, 0, 52, 64
1, 172489, Note_on_c, 0, 75, 53
1, 172592, Note_off_c, 0, 68, 22
1, 172622, Note_on_c, 0, 73, 51
1, 172669, Note_on_c, 0, 42, 54
1, 172694, Note_on_c, 0, 37, 46
1, 172714, Note_off_c, 0, 42, 59
1, 172722, Note_off_c, 0, 75, 33
1, 172732, Note_off_c, 0, 37, 51
1, 172735, Note_on_c, 0, 70, 52
1, 172783, Note_off_c, 0, 73, 33
1, 172810, Note_on_c, 0, 68, 42
1, 172863, Note_off_c, 0, 68, 55
1, 172879, Note_off_c, 0, 70, 33
1, 172893, Note_on_c, 0, 58, 60
1, 172896, Note_on_c, 0, 64, 66
1, 172906, Note_on_c, 0, 52, 58
1, 172910, Note_on_c, 0, 75, 62
1, 172918, Note_off_c, 0, 64, 66
1, 172935, Note_off_c, 0, 58, 62
1, 172944, Note_off_c, 0, 52, 65
1, 172996, Note_on_c, 0, 73, 70
1, 172999, Note_off_c, 0, 78, 50
1, 173045, Note_off_c, 0, 75, 57
1, 173088, Note_on_c, 0, 76, 82
1, 173093, Note_off_c, 0, 73, 57
1, 173181, Note_on_c, 0, 42, 57
1, 173190, Note_on_c, 0, 30, 49
1, 173224, Note_off_c, 0, 42, 61
1, 173237, Note_off_c, 0, 30, 50
1, 173251, Note_on_c, 0, 70, 55
1, 173329, Note_off_c, 0, 70, 60
1, 173353, Note_on_c, 0, 68, 47
1, 173367, Note_off_c, 0, 76, 61
1, 173376, Note_off_c, 0, 68, 58
1, 173591, Control_c, 0, 64, 94
1, 173595, Note_on_c, 0, 24, 58
1, 173605, Control_c, 0, 64, 62
1, 173620, Control_c, 0, 64, 0
1, 173621, Note_on_c, 0, 36, 48
1, 173680, Control_c, 0, 64, 52
1, 173689, Note_off_c, 0, 24, 64
1, 173695, Control_c, 0, 64, 76
1, 173704, Note_off_c, 0, 36, 62
1, 173710, Control_c, 0, 64, 127
1, 173928, Note_on_c, 0, 43, 33
1, 173946, Note_on_c, 0, 52, 46
1, 173972, Note_off_c, 0, 43, 42
1, 173990, Note_off_c, 0, 52, 63
1, 174134, Note_on_c, 0, 36, 48
1, 174190, Note_on_c, 0, 43, 54
1, 174202, Note_off_c, 0, 36, 59
1, 174229, Note_off_c, 0, 43, 61
1, 174277, Note_on_c, 0, 81, 93
1, 174481, Note_on_c, 0, 52, 16
1, 174507, Note_on_c, 0, 58, 59
1, 174524, Note_off_c, 0, 52, 53
1, 174537, Note_off_c, 0, 58, 65
1, 174659, Note_on_c, 0, 43, 30
1, 174691, Note_on_c, 0, 52, 44
1, 174707, Note_off_c, 0, 43, 41
1, 174732, Note_off_c, 0, 52, 50
1, 174818, Note_on_c, 0, 58, 67
1, 174846, Note_off_c, 0, 58, 68
1, 174866, Note_on_c, 0, 64, 74
1, 174886, Note_off_c, 0, 81, 58
1, 174890, Note_on_c, 0, 76, 96
1, 174932, Note_off_c, 0, 76, 66
1, 175006, Note_on_c, 0, 52, 72
1, 175025, Note_off_c, 0, 64, 60
1, 175053, Note_on_c, 0, 58, 83
1, 175157, Note_on_c, 0, 74, 96
1, 175284, Note_off_c, 0, 74, 48
1, 175289, Note_on_c, 0, 69, 90
1, 175369, Note_off_c, 0, 52, 54
1, 175382, Note_off_c, 0, 58, 62
1, 175383, Note_on_c, 0, 64, 81
1, 175406, Note_off_c, 0, 64, 70
1, 175433, Note_off_c, 0, 69, 58
1, 175472, Note_on_c, 0, 70, 93
1, 175554, Note_on_c, 0, 45, 52
1, 175585, Note_off_c, 0, 70, 54
1, 175625, Note_on_c, 0, 52, 42
1, 175736, Note_on_c, 0, 73, 76
1, 175749, Control_c, 0, 64, 97
1, 175763, Note_on_c, 0, 61, 46
1, 175764, Control_c, 0, 64, 69
1, 175774, Note_on_c, 0, 67, 41
1, 175779, Control_c, 0, 64, 41
1, 175794, Control_c, 0, 64, 0
1, 175805, Note_off_c, 0, 61, 0
1, 175805, Note_on_c, 0, 61, 10
1, 175856, Note_on_c, 0, 59, 49
1, 175868, Control_c, 0, 64, 47
1, 175882, Control_c, 0, 64, 64
1, 175894, Note_off_c, 0, 45, 39
1, 175896, Note_off_c, 0, 52, 60
1, 175897, Control_c, 0, 64, 77
1, 175899, Note_off_c, 0, 61, 61
1, 175912, Control_c, 0, 64, 95
1, 175926, Control_c, 0, 64, 110
1, 175931, Note_off_c, 0, 67, 51
1, 175937, Note_off_c, 0, 73, 63
1, 175940, Note_off_c, 0, 59, 62
1, 175941, Control_c, 0, 64, 127
1, 175971, Control_c, 0, 67, 43
1, 175986, Control_c, 0, 67, 75
1, 176000, Control_c, 0, 67, 111
1, 176015, Control_c, 0, 67, 127
1, 176108, Note_on_c, 0, 79, 53
1, 176131, Note_on_c, 0, 78, 44
1, 176144, Note_off_c, 0, 79, 58
1, 176145, Note_on_c, 0, 55, 53
1, 176147, Note_on_c, 0, 73, 55
1, 176157, Note_on_c, 0, 71, 53
1, 176187, Note_off_c, 0, 55, 63
1, 176188, Note_off_c, 0, 73, 58
1, 176190, Note_off_c, 0, 78, 50
1, 176193, Note_off_c, 0, 71, 62
1, 176210, Note_on_c, 0, 61, 68
1, 176291, Control_c, 0, 67, 89
1, 176305, Control_c, 0, 67, 38
1, 176320, Control_c, 0, 67, 0
1, 176355, Note_off_c, 0, 61, 55
1, 176374, Note_on_c, 0, 66, 96
1, 176378, Note_on_c, 0, 71, 59
1, 176379, Note_on_c, 0, 73, 56
1, 176447, Note_off_c, 0, 71, 53
1, 176448, Note_off_c, 0, 73, 61
1, 176449, Note_on_c, 0, 79, 52
1, 176450, Note_on_c, 0, 78, 60
1, 176474, Note_off_c, 0, 79, 65
1, 176476, Note_off_c, 0, 78, 63
1, 176630, Note_on_c, 0, 79, 62
1, 176641, Note_on_c, 0, 78, 61
1, 176678, Note_on_c, 0, 71, 56
1, 176679, Note_on_c, 0, 73, 45
1, 176685, Note_off_c, 0, 78, 50
1, 176694, Note_off_c, 0, 79, 37
1, 176715, Note_off_c, 0, 71, 62
1, 176721, Note_off_c, 0, 73, 63
1, 176830, Note_on_c, 0, 73, 58
1, 176843, Note_on_c, 0, 71, 53
1, 176875, Note_on_c, 0, 78, 63
1, 176876, Note_on_c, 0, 79, 58
1, 176880, Note_off_c, 0, 73, 50
1, 176883, Note_off_c, 0, 71, 63
1, 176903, Note_off_c, 0, 78, 64
1, 176905, Note_off_c, 0, 79, 66
1, 177040, Note_on_c, 0, 61, 88
1, 177041, Note_on_c, 0, 79, 38
1, 177042, Note_on_c, 0, 78, 53
1, 177043, Note_off_c, 0, 66, 49
1, 177079, Note_on_c, 0, 71, 64
1, 177080, Note_on_c, 0, 73, 56
1, 177088, Note_off_c, 0, 61, 66
1, 177114, Note_off_c, 0, 71, 60
1, 177119, Note_off_c, 0, 78, 56
1, 177120, Note_off_c, 0, 73, 58
1, 177121, Note_off_c, 0, 79, 37
1, 177270, Note_on_c, 0, 73, 64
1, 177280, Note_on_c, 0, 59, 93
1, 177285, Note_on_c, 0, 71, 57
1, 177324, Note_on_c, 0, 78, 65
1, 177324, Note_on_c, 0, 79, 64
1, 177332, Note_off_c, 0, 73, 54
1, 177335, Note_off_c, 0, 71, 59
1, 177351, Note_off_c, 0, 79, 65
1, 177354, Note_off_c, 0, 78, 62
1, 177468, Note_on_c, 0, 54, 85
1, 177476, Note_on_c, 0, 79, 52
1, 177482, Note_on_c, 0, 78, 56
1, 177488, Note_off_c, 0, 59, 62
1, 177510, Note_on_c, 0, 71, 62
1, 177510, Note_on_c, 0, 73, 57
1, 177515, Note_off_c, 0, 79, 63
1, 177520, Note_off_c, 0, 78, 60
1, 177538, Note_off_c, 0, 71, 65
1, 177541, Note_off_c, 0, 73, 64
1, 177618, Note_on_c, 0, 55, 91
1, 177657, Note_off_c, 0, 54, 47
1, 177691, Note_on_c, 0, 61, 67
1, 177746, Note_on_c, 0, 66, 73
1, 177764, Note_off_c, 0, 61, 62
1, 177803, Control_c, 0, 64, 92
1, 177818, Control_c, 0, 64, 61
1, 177833, Control_c, 0, 64, 0
1, 177853, Note_off_c, 0, 55, 61
1, 177853, Note_off_c, 0, 66, 64
1, 177863, Note_on_c, 0, 68, 80
1, 177881, Note_on_c, 0, 58, 78
1, 177907, Control_c, 0, 64, 32
1, 177922, Control_c, 0, 64, 49
1, 177937, Control_c, 0, 64, 65
1, 177943, Note_off_c, 0, 58, 64
1, 177951, Control_c, 0, 64, 80
1, 177952, Note_off_c, 0, 68, 63
1, 177966, Control_c, 0, 64, 127
1, 178087, Note_on_c, 0, 72, 90
1, 178147, Note_on_c, 0, 70, 62
1, 178193, Note_on_c, 0, 64, 70
1, 178201, Note_off_c, 0, 70, 63
1, 178220, Note_off_c, 0, 64, 68
1, 178328, Note_on_c, 0, 73, 95
1, 178346, Note_off_c, 0, 72, 62
1, 178422, Note_on_c, 0, 61, 57
1, 178495, Note_on_c, 0, 54, 46
1, 178525, Note_off_c, 0, 54, 56
1, 178657, Note_on_c, 0, 64, 57
1, 178670, Note_off_c, 0, 61, 33
1, 178677, Note_on_c, 0, 58, 56
1, 178700, Note_off_c, 0, 64, 63
1, 178707, Note_off_c, 0, 58, 65
1, 178840, Note_on_c, 0, 54, 46
1, 178870, Note_on_c, 0, 49, 41
1, 178874, Note_off_c, 0, 54, 64
1, 178903, Note_off_c, 0, 49, 51
1, 178999, Note_on_c, 0, 58, 61
1, 179000, Note_on_c, 0, 64, 59
1, 179044, Note_off_c, 0, 64, 59
1, 179052, Note_on_c, 0, 52, 77
1, 179057, Note_off_c, 0, 58, 62
1, 179087, Note_off_c, 0, 52, 63
1, 179159, Note_on_c, 0, 49, 88
1, 179204, Note_on_c, 0, 72, 89
1, 179224, Note_off_c, 0, 73, 63
1, 179226, Note_off_c, 0, 49, 62
1, 179246, Note_on_c, 0, 42, 63
1, 179279, Note_off_c, 0, 42, 50
1, 179281, Note_on_c, 0, 43, 70
1, 179292, Note_off_c, 0, 72, 64
1, 179300, Note_on_c, 0, 41, 40
1, 179315, Note_on_c, 0, 48, 71
1, 179316, Control_c, 0, 64, 82
1, 179330, Control_c, 0, 64, 54
1, 179331, Note_off_c, 0, 41, 56
1, 179345, Control_c, 0, 64, 46
1, 179360, Control_c, 0, 64, 62
1, 179374, Control_c, 0, 64, 95
1, 179389, Note_off_c, 0, 43, 63
1, 179389, Control_c, 0, 64, 127
1, 179404, Note_off_c, 0, 48, 63
1, 179405, Note_on_c, 0, 58, 99
1, 179440, Note_off_c, 0, 58, 67
1, 179493, Note_on_c, 0, 73, 95
1, 179498, Note_on_c, 0, 68, 92
1, 179502, Note_on_c, 0, 64, 105
1, 179524, Note_off_c, 0, 64, 68
1, 179589, Note_off_c, 0, 68, 60
1, 179611, Note_off_c, 0, 73, 60
1, 179633, Note_on_c, 0, 76, 98
1, 179708, Note_off_c, 0, 76, 62
1, 179739, Note_on_c, 0, 78, 103
1, 179863, Note_on_c, 0, 61, 104
1, 180006, Note_off_c, 0, 61, 62
1, 180044, Note_on_c, 0, 63, 72
1, 180071, Note_off_c, 0, 63, 68
1, 180110, Note_on_c, 0, 61, 56
1, 180125, Note_off_c, 0, 61, 67
1, 180148, Note_on_c, 0, 63, 66
1, 180176, Note_off_c, 0, 63, 60
1, 180180, Note_on_c, 0, 61, 71
1, 180212, Note_off_c, 0, 61, 66
1, 180256, Note_on_c, 0, 63, 62
1, 180273, Note_off_c, 0, 63, 64
1, 180286, Note_on_c, 0, 61, 69
1, 180302, Note_off_c, 0, 78, 34
1, 180316, Note_off_c, 0, 61, 64
1, 180337, Note_on_c, 0, 63, 67
1, 180359, Note_off_c, 0, 63, 62
1, 180389, Note_on_c, 0, 61, 54
1, 180409, Note_off_c, 0, 61, 63
1, 180426, Note_on_c, 0, 63, 68
1, 180452, Note_off_c, 0, 63, 64
1, 180479, Note_on_c, 0, 61, 60
1, 180504, Note_off_c, 0, 61, 64
1, 180560, Note_on_c, 0, 63, 32
1, 180582, Note_on_c, 0, 61, 56
1, 180590, Note_off_c, 0, 63, 47
1, 180623, Note_off_c, 0, 61, 64
1, 180655, Note_on_c, 0, 63, 55
1, 180697, Note_off_c, 0, 63, 62
1, 180716, Note_on_c, 0, 61, 59
1, 180757, Note_off_c, 0, 61, 64
1, 180801, Note_on_c, 0, 63, 41
1, 180812, Note_on_c, 0, 76, 64
1, 180832, Note_off_c, 0, 63, 50
1, 180849, Note_off_c, 0, 76, 63
1, 180856, Note_on_c, 0, 61, 45
1, 180898, Note_off_c, 0, 61, 53
1, 180975, Note_on_c, 0, 63, 14
1, 181000, Note_off_c, 0, 63, 0
1, 181014, Note_on_c, 0, 61, 39
1, 181021, Poly_aftertouch_c, 0, 63, 0
1, 181070, Note_off_c, 0, 61, 58
1, 181100, Note_on_c, 0, 63, 39
1, 181109, Control_c, 0, 67, 40
1, 181124, Control_c, 0, 67, 72
1, 181138, Control_c, 0, 67, 107
1, 181148, Note_off_c, 0, 63, 60
1, 181153, Control_c, 0, 67, 127
1, 181183, Note_on_c, 0, 61, 44
1, 181235, Note_off_c, 0, 61, 59
1, 181267, Note_on_c, 0, 63, 47
1, 181309, Note_off_c, 0, 63, 58
1, 181388, Note_on_c, 0, 61, 54
1, 181423, Note_off_c, 0, 61, 64
1, 181768, Control_c, 0, 64, 93
1, 181780, Note_on_c, 0, 44, 51
1, 181783, Control_c, 0, 64, 61
1, 181798, Control_c, 0, 64, 0
1, 182090, Note_on_c, 0, 37, 41
1, 182134, Note_on_c, 0, 52, 59
1, 182260, Note_on_c, 0, 31, 34
1, 182265, Control_c, 0, 64, 41
1, 182276, Note_off_c, 0, 37, 39
1, 182280, Control_c, 0, 64, 51
1, 182294, Control_c, 0, 64, 60
1, 182309, Control_c, 0, 64, 64
1, 182324, Control_c, 0, 64, 67
1, 182339, Control_c, 0, 64, 70
1, 182354, Note_off_c, 0, 52, 56
1, 182354, Control_c, 0, 64, 72
1, 182368, Control_c, 0, 64, 75
1, 182383, Control_c, 0, 64, 78
1, 182398, Control_c, 0, 64, 79
1, 182413, Control_c, 0, 64, 81
1, 182428, Control_c, 0, 64, 84
1, 182442, Control_c, 0, 64, 86
1, 182457, Control_c, 0, 64, 87
1, 182459, Note_on_c, 0, 37, 54
1, 182473, Control_c, 0, 64, 87
1, 182476, Note_off_c, 0, 31, 40
1, 182503, Control_c, 0, 64, 88
1, 182512, Note_on_c, 0, 52, 69
1, 182533, Control_c, 0, 64, 88
1, 182543, Note_off_c, 0, 52, 63
1, 182562, Control_c, 0, 67, 84
1, 182577, Control_c, 0, 67, 41
1, 182591, Control_c, 0, 67, 0
1, 182652, Note_off_c, 0, 37, 55
1, 182668, Note_on_c, 0, 31, 43
1, 182729, Note_on_c, 0, 52, 76
1, 182754, Note_off_c, 0, 52, 68
1, 182796, Note_on_c, 0, 37, 58
1, 182805, Note_off_c, 0, 31, 47
1, 182810, Note_on_c, 0, 52, 78
1, 182844, Note_off_c, 0, 52, 60
1, 182963, Note_on_c, 0, 31, 50
1, 182984, Control_c, 0, 64, 88
1, 182984, Control_c, 0, 67, 49
1, 182988, Note_on_c, 0, 52, 75
1, 182999, Control_c, 0, 67, 69
1, 183002, Note_off_c, 0, 37, 38
1, 183014, Control_c, 0, 67, 96
1, 183019, Note_off_c, 0, 52, 64
1, 183029, Control_c, 0, 64, 87
1, 183029, Control_c, 0, 67, 127
1, 183043, Control_c, 0, 64, 84
1, 183058, Control_c, 0, 64, 75
1, 183062, Note_on_c, 0, 52, 72
1, 183073, Control_c, 0, 64, 59
1, 183088, Control_c, 0, 64, 0
1, 183115, Note_off_c, 0, 52, 61
1, 183116, Note_on_c, 0, 49, 77
1, 183143, Note_off_c, 0, 49, 66
1, 183247, Note_off_c, 0, 31, 54
1, 183251, Note_on_c, 0, 37, 60
1, 183314, Note_on_c, 0, 53, 68
1, 183362, Note_off_c, 0, 53, 54
1, 183402, Note_on_c, 0, 52, 58
1, 183410, Note_on_c, 0, 31, 40
1, 183427, Note_off_c, 0, 37, 43
1, 183636, Control_c, 0, 64, 29
1, 183651, Control_c, 0, 64, 46
1, 183666, Control_c, 0, 64, 57
1, 183678, Note_off_c, 0, 31, 41
1, 183681, Control_c, 0, 64, 61
1, 183681, Note_on_c, 0, 37, 37
1, 183702, Control_c, 0, 64, 64
1, 183717, Control_c, 0, 64, 66
1, 183732, Control_c, 0, 64, 70
1, 183747, Control_c, 0, 64, 77
1, 183762, Control_c, 0, 64, 87
1, 183777, Control_c, 0, 64, 99
1, 183792, Control_c, 0, 64, 122
1, 183807, Control_c, 0, 64, 127
1, 183878, Note_off_c, 0, 52, 61
1, 183935, Note_on_c, 0, 31, 40
1, 183973, Note_off_c, 0, 37, 40
1, 183984, Control_c, 0, 67, 103
1, 183999, Control_c, 0, 67, 45
1, 184013, Control_c, 0, 67, 0
1, 184074, Note_on_c, 0, 37, 61
1, 184114, Note_off_c, 0, 31, 41
1, 184205, Note_on_c, 0, 31, 79
1, 184228, Note_off_c, 0, 44, 60
1, 184229, Note_off_c, 0, 31, 66
1, 184245, Note_off_c, 0, 37, 62
1, 184356, Control_c, 0, 64, 87
1, 184370, Control_c, 0, 64, 61
1, 184385, Control_c, 0, 64, 0
1, 184430, Note_on_c, 0, 72, 81
1, 184458, Note_on_c, 0, 68, 59
1, 184543, Note_on_c, 0, 73, 90
1, 184546, Note_off_c, 0, 68, 53
1, 184555, Note_off_c, 0, 72, 65
1, 184569, Note_on_c, 0, 64, 63
1, 184630, Control_c, 0, 64, 31
1, 184644, Control_c, 0, 64, 47
1, 184653, Note_on_c, 0, 58, 67
1, 184659, Control_c, 0, 64, 60
1, 184674, Control_c, 0, 64, 64
1, 184689, Control_c, 0, 64, 65
1, 184716, Note_off_c, 0, 58, 61
1, 184744, Note_on_c, 0, 52, 57
1, 184749, Control_c, 0, 64, 65
1, 184778, Control_c, 0, 64, 67
1, 184793, Control_c, 0, 64, 70
1, 184808, Control_c, 0, 64, 75
1, 184815, Note_off_c, 0, 52, 58
1, 184821, Note_on_c, 0, 42, 63
1, 184823, Control_c, 0, 64, 79
1, 184852, Control_c, 0, 64, 72
1, 184861, Note_off_c, 0, 42, 66
1, 184868, Control_c, 0, 64, 58
1, 184883, Control_c, 0, 64, 0
1, 184909, Note_on_c, 0, 43, 48
1, 184912, Control_c, 0, 64, 33
1, 184927, Control_c, 0, 64, 60
1, 184942, Control_c, 0, 64, 76
1, 184957, Control_c, 0, 64, 102
1, 184972, Control_c, 0, 64, 127
1, 184973, Note_off_c, 0, 64, 48
1, 184987, Note_on_c, 0, 48, 63
1, 184990, Note_off_c, 0, 43, 56
1, 185059, Note_off_c, 0, 73, 59
1, 185060, Note_on_c, 0, 58, 70
1, 185090, Note_off_c, 0, 58, 66
1, 185109, Note_off_c, 0, 48, 55
1, 185127, Note_on_c, 0, 64, 64
1, 185193, Note_on_c, 0, 67, 66
1, 185208, Note_off_c, 0, 64, 57
1, 185245, Note_on_c, 0, 72, 88
1, 185257, Note_off_c, 0, 67, 64
1, 185262, Note_off_c, 0, 72, 72
1, 185334, Control_c, 0, 67, 59
1, 185349, Control_c, 0, 67, 121
1, 185364, Control_c, 0, 67, 127
1, 185390, Note_on_c, 0, 44, 55
1, 185408, Control_c, 0, 64, 119
1, 185423, Control_c, 0, 64, 70
1, 185438, Control_c, 0, 64, 0
1, 185481, Note_on_c, 0, 52, 51
1, 185532, Note_off_c, 0, 52, 47
1, 185547, Note_on_c, 0, 49, 64
1, 185580, Note_off_c, 0, 49, 64
1, 185659, Note_on_c, 0, 37, 45
1, 185756, Note_on_c, 0, 53, 61
1, 185796, Note_off_c, 0, 53, 57
1, 185845, Note_on_c, 0, 52, 61
1, 185853, Note_on_c, 0, 31, 37
1, 185853, Note_off_c, 0, 37, 43
1, 185995, Control_c, 0, 64, 30
1, 186009, Control_c, 0, 64, 40
1, 186024, Control_c, 0, 64, 51
1, 186039, Control_c, 0, 64, 62
1, 186054, Control_c, 0, 64, 68
1, 186069, Control_c, 0, 64, 73
1, 186084, Control_c, 0, 64, 79
1, 186087, Note_off_c, 0, 52, 62
1, 186098, Control_c, 0, 64, 84
1, 186113, Control_c, 0, 64, 91
1, 186128, Control_c, 0, 64, 101
1, 186142, Control_c, 0, 64, 127
1, 186153, Note_on_c, 0, 37, 52
1, 186207, Note_off_c, 0, 31, 40
1, 186333, Note_on_c, 0, 31, 48
1, 186361, Note_off_c, 0, 37, 51
1, 186403, Note_on_c, 0, 52, 62
1, 186463, Note_off_c, 0, 52, 61
1, 186499, Control_c, 0, 67, 106
1, 186501, Note_on_c, 0, 37, 59
1, 186513, Control_c, 0, 67, 73
1, 186528, Control_c, 0, 67, 0
1, 186558, Note_off_c, 0, 31, 36
1, 186576, Note_on_c, 0, 52, 75
1, 186621, Note_off_c, 0, 52, 60
1, 186695, Note_on_c, 0, 52, 79
1, 186715, Note_on_c, 0, 31, 63
1, 186743, Note_off_c, 0, 52, 60
1, 186767, Note_off_c, 0, 37, 61
1, 186768, Note_off_c, 0, 31, 62
1, 186775, Note_off_c, 0, 44, 54
1, 186804, Note_on_c, 0, 52, 85
1, 186827, Note_off_c, 0, 52, 69
1, 186995, Control_c, 0, 64, 118
1, 187010, Control_c, 0, 64, 90
1, 187025, Control_c, 0, 64, 75
1, 187039, Control_c, 0, 64, 63
1, 187054, Control_c, 0, 64, 50
1, 187069, Control_c, 0, 64, 31
1, 187078, Note_on_c, 0, 72, 70
1, 187083, Control_c, 0, 64, 0
1, 187083, Control_c, 0, 67, 48
1, 187091, Note_on_c, 0, 68, 63
1, 187098, Control_c, 0, 67, 74
1, 187113, Control_c, 0, 67, 116
1, 187128, Control_c, 0, 67, 127
1, 187169, Note_off_c, 0, 68, 60
1, 187183, Note_on_c, 0, 73, 88
1, 187187, Note_off_c, 0, 72, 65
1, 187211, Note_on_c, 0, 64, 56
1, 187247, Control_c, 0, 64, 32
1, 187262, Control_c, 0, 64, 44
1, 187277, Control_c, 0, 64, 55
1, 187286, Note_on_c, 0, 58, 64
1, 187292, Control_c, 0, 64, 63
1, 187306, Control_c, 0, 64, 66
1, 187321, Control_c, 0, 64, 68
1, 187336, Control_c, 0, 64, 68
1, 187351, Control_c, 0, 64, 69
1, 187366, Control_c, 0, 64, 70
1, 187369, Note_off_c, 0, 58, 59
1, 187381, Note_on_c, 0, 52, 59
1, 187381, Control_c, 0, 64, 71
1, 187396, Control_c, 0, 64, 71
1, 187410, Control_c, 0, 64, 72
1, 187458, Note_on_c, 0, 42, 61
1, 187462, Control_c, 0, 64, 72
1, 187495, Note_off_c, 0, 52, 37
1, 187515, Note_off_c, 0, 42, 62
1, 187536, Control_c, 0, 64, 73
1, 187551, Control_c, 0, 64, 75
1, 187566, Control_c, 0, 64, 79
1, 187574, Note_on_c, 0, 43, 57
1, 187581, Control_c, 0, 64, 84
1, 187595, Control_c, 0, 64, 84
1, 187610, Control_c, 0, 64, 83
1, 187625, Control_c, 0, 64, 77
1, 187640, Control_c, 0, 64, 64
1, 187655, Control_c, 0, 64, 39
1, 187670, Control_c, 0, 64, 0
1, 187700, Control_c, 0, 64, 38
1, 187703, Note_off_c, 0, 43, 51
1, 187714, Control_c, 0, 64, 59
1, 187715, Note_on_c, 0, 48, 59
1, 187729, Control_c, 0, 64, 72
1, 187744, Control_c, 0, 64, 88
1, 187759, Control_c, 0, 64, 111
1, 187769, Note_off_c, 0, 64, 50
1, 187774, Control_c, 0, 64, 127
1, 187785, Note_on_c, 0, 58, 67
1, 187787, Note_off_c, 0, 48, 62
1, 187818, Note_off_c, 0, 58, 65
1, 187855, Note_off_c, 0, 73, 57
1, 187884, Note_on_c, 0, 64, 71
1, 187906, Control_c, 0, 67, 117
1, 187921, Control_c, 0, 67, 86
1, 187936, Control_c, 0, 67, 44
1, 187951, Control_c, 0, 67, 0
1, 187958, Note_on_c, 0, 67, 77
1, 187977, Note_off_c, 0, 64, 62
1, 188040, Note_off_c, 0, 67, 62
1, 188046, Note_on_c, 0, 72, 79
1, 188074, Note_off_c, 0, 72, 62
1, 188160, Note_on_c, 0, 73, 88
1, 188211, Control_c, 0, 64, 76
1, 188226, Control_c, 0, 64, 50
1, 188241, Control_c, 0, 64, 0
1, 188271, Control_c, 0, 64, 34
1, 188283, Note_on_c, 0, 76, 81
1, 188285, Control_c, 0, 64, 65
1, 188291, Note_on_c, 0, 71, 74
1, 188300, Control_c, 0, 64, 93
1, 188315, Control_c, 0, 64, 127
1, 188338, Note_off_c, 0, 73, 48
1, 188346, Note_off_c, 0, 71, 60
1, 188366, Note_on_c, 0, 78, 101
1, 188382, Note_on_c, 0, 67, 74
1, 188384, Note_off_c, 0, 76, 63
1, 188473, Note_on_c, 0, 61, 65
1, 188524, Note_off_c, 0, 61, 59
1, 188539, Note_on_c, 0, 55, 66
1, 188567, Note_off_c, 0, 55, 64
1, 188632, Note_on_c, 0, 45, 69
1, 188741, Note_off_c, 0, 45, 61
1, 188759, Note_on_c, 0, 46, 63
1, 188774, Control_c, 0, 64, 76
1, 188789, Control_c, 0, 64, 44
1, 188803, Control_c, 0, 64, 0
1, 188849, Control_c, 0, 64, 56
1, 188864, Control_c, 0, 64, 75
1, 188865, Note_on_c, 0, 51, 67
1, 188866, Note_off_c, 0, 46, 62
1, 188878, Control_c, 0, 64, 124
1, 188880, Note_off_c, 0, 67, 53
1, 188893, Control_c, 0, 64, 127
1, 188936, Note_on_c, 0, 61, 76
1, 188951, Note_off_c, 0, 51, 61
1, 188979, Note_off_c, 0, 78, 53
1, 188981, Note_off_c, 0, 61, 54
1, 189004, Note_on_c, 0, 67, 79
1, 189076, Note_on_c, 0, 70, 86
1, 189093, Note_off_c, 0, 67, 59
1, 189137, Note_on_c, 0, 76, 92
1, 189138, Note_off_c, 0, 70, 68
1, 189167, Note_off_c, 0, 76, 63
1, 189351, Note_on_c, 0, 81, 97
1, 189360, Control_c, 0, 64, 78
1, 189375, Control_c, 0, 64, 56
1, 189390, Control_c, 0, 64, 0
1, 189414, Note_on_c, 0, 74, 39
1, 189449, Control_c, 0, 64, 50
1, 189464, Control_c, 0, 64, 64
1, 189478, Control_c, 0, 64, 73
1, 189493, Control_c, 0, 64, 84
1, 189508, Control_c, 0, 64, 97
1, 189523, Control_c, 0, 64, 109
1, 189531, Note_on_c, 0, 70, 65
1, 189538, Control_c, 0, 64, 127
1, 189634, Note_on_c, 0, 64, 55
1, 189688, Note_off_c, 0, 64, 62
1, 189727, Note_on_c, 0, 58, 61
1, 189764, Note_off_c, 0, 58, 63
1, 189798, Note_on_c, 0, 48, 66
1, 189890, Note_off_c, 0, 48, 61
1, 189900, Note_on_c, 0, 49, 66
1, 189916, Control_c, 0, 64, 87
1, 189931, Control_c, 0, 64, 61
1, 189946, Control_c, 0, 64, 0
1, 189976, Control_c, 0, 64, 40
1, 189990, Control_c, 0, 64, 62
1, 190005, Control_c, 0, 64, 83
1, 190013, Note_off_c, 0, 49, 64
1, 190019, Note_on_c, 0, 54, 70
1, 190020, Control_c, 0, 64, 127
1, 190032, Note_off_c, 0, 70, 48
1, 190087, Note_off_c, 0, 54, 60
1, 190114, Note_on_c, 0, 64, 66
1, 190126, Note_off_c, 0, 74, 64
1, 190154, Note_off_c, 0, 64, 63
1, 190172, Note_on_c, 0, 70, 71
1, 190224, Note_off_c, 0, 70, 64
1, 190226, Note_off_c, 0, 81, 50
1, 190245, Note_on_c, 0, 73, 78
1, 190319, Note_on_c, 0, 81, 92
1, 190396, Note_on_c, 0, 52, 72
1, 190442, Control_c, 0, 64, 68
1, 190458, Control_c, 0, 64, 0
1, 190502, Control_c, 0, 64, 45
1, 190517, Control_c, 0, 64, 100
1, 190531, Control_c, 0, 64, 127
1, 190538, Note_on_c, 0, 57, 79
1, 190543, Note_off_c, 0, 52, 61
1, 190562, Note_off_c, 0, 57, 67
1, 190576, Note_off_c, 0, 73, 57
1, 190607, Note_on_c, 0, 67, 79
1, 190651, Note_off_c, 0, 81, 50
1, 190681, Note_on_c, 0, 73, 84
1, 190704, Note_off_c, 0, 67, 52
1, 190748, Note_on_c, 0, 76, 91
1, 190767, Note_off_c, 0, 73, 65
1, 190812, Note_off_c, 0, 76, 68
1, 190813, Note_on_c, 0, 81, 100
1, 190873, Control_c, 0, 64, 83
1, 190879, Note_on_c, 0, 55, 91
1, 190888, Control_c, 0, 64, 47
1, 190903, Control_c, 0, 64, 0
1, 190932, Control_c, 0, 64, 42
1, 190947, Control_c, 0, 64, 85
1, 190962, Control_c, 0, 64, 127
1, 190973, Note_on_c, 0, 60, 98
1, 190981, Note_off_c, 0, 55, 65
1, 191000, Note_off_c, 0, 60, 66
1, 191034, Note_on_c, 0, 70, 90
1, 191053, Note_off_c, 0, 81, 59
1, 191077, Note_off_c, 0, 70, 66
1, 191093, Note_on_c, 0, 76, 86
1, 191150, Note_on_c, 0, 79, 86
1, 191171, Note_off_c, 0, 76, 65
1, 191207, Note_on_c, 0, 81, 106
1, 191227, Note_off_c, 0, 79, 65
1, 191236, Control_c, 0, 64, 108
1, 191251, Control_c, 0, 64, 56
1, 191263, Note_on_c, 0, 58, 93
1, 191267, Control_c, 0, 64, 0
1, 191341, Control_c, 0, 64, 56
1, 191355, Control_c, 0, 64, 127
1, 191372, Note_off_c, 0, 81, 59
1, 191379, Note_on_c, 0, 64, 87
1, 191444, Note_off_c, 0, 58, 57
1, 191456, Note_on_c, 0, 81, 107
1, 191506, Note_on_c, 0, 66, 107
1, 191508, Note_off_c, 0, 64, 69
1, 191554, Note_off_c, 0, 66, 68
1, 191661, Note_on_c, 0, 73, 117
1, 191668, Note_off_c, 0, 81, 51
1, 191687, Note_off_c, 0, 73, 74
1, 191876, Note_on_c, 0, 81, 104
1, 192127, Note_on_c, 0, 76, 104
1, 192129, Note_off_c, 0, 81, 67
1, 192173, Note_off_c, 0, 76, 68
1, 192248, Note_on_c, 0, 74, 107
1, 192340, Note_on_c, 0, 69, 93
1, 192359, Note_off_c, 0, 74, 64
1, 192403, Note_on_c, 0, 70, 102
1, 192419, Note_off_c, 0, 69, 65
1, 192439, Note_off_c, 0, 70, 71
1, 192562, Note_on_c, 0, 60, 106
1, 192564, Note_on_c, 0, 73, 101
1, 192567, Note_on_c, 0, 69, 97
1, 192567, Note_on_c, 0, 64, 97
1, 192570, Note_on_c, 0, 52, 105
1, 192575, Note_on_c, 0, 45, 92
1, 192576, Note_on_c, 0, 39, 97
1, 192591, Control_c, 0, 64, 100
1, 192606, Control_c, 0, 64, 65
1, 192621, Control_c, 0, 64, 0
1, 192683, Note_off_c, 0, 45, 62
1, 192717, Control_c, 0, 64, 50
1, 192732, Control_c, 0, 64, 66
1, 192747, Control_c, 0, 64, 78
1, 192762, Control_c, 0, 64, 101
1, 192776, Control_c, 0, 64, 127
1, 192809, Note_off_c, 0, 60, 47
1, 192893, Note_on_c, 0, 45, 72
1, 192916, Note_off_c, 0, 39, 60
1, 192940, Note_on_c, 0, 60, 92
1, 193002, Note_on_c, 0, 39, 96
1, 193018, Note_off_c, 0, 45, 62
1, 193023, Note_off_c, 0, 60, 57
1, 193160, Note_on_c, 0, 45, 84
1, 193175, Note_off_c, 0, 39, 64
1, 193211, Note_on_c, 0, 60, 98
1, 193297, Note_off_c, 0, 60, 60
1, 193375, Note_on_c, 0, 39, 96
1, 193394, Note_off_c, 0, 45, 58
1, 193474, Note_on_c, 0, 60, 96
1, 193520, Note_off_c, 0, 60, 65
1, 193585, Note_on_c, 0, 45, 84
1, 193610, Note_off_c, 0, 39, 63
1, 193625, Note_on_c, 0, 60, 94
1, 193658, Note_off_c, 0, 52, 53
1, 193668, Note_off_c, 0, 60, 65
1, 193695, Note_on_c, 0, 39, 90
1, 193708, Note_off_c, 0, 45, 64
1, 193712, Note_off_c, 0, 39, 70
1, 193731, Poly_aftertouch_c, 0, 43, 0
1, 193753, Note_on_c, 0, 60, 102
1, 193764, Note_on_c, 0, 39, 51
1, 193787, Note_off_c, 0, 60, 67
1, 193788, Note_off_c, 0, 39, 60
1, 193810, Note_off_c, 0, 64, 62
1, 193836, Note_off_c, 0, 73, 60
1, 193843, Note_on_c, 0, 60, 96
1, 193858, Note_off_c, 0, 60, 78
1, 193862, Note_off_c, 0, 69, 62
1, 193894, Note_on_c, 0, 58, 83
1, 193971, Control_c, 0, 64, 91
1, 193980, Note_on_c, 0, 64, 80
1, 193986, Control_c, 0, 64, 57
1, 194001, Control_c, 0, 64, 0
1, 194052, Note_on_c, 0, 66, 88
1, 194072, Note_on_c, 0, 81, 103
1, 194114, Note_off_c, 0, 58, 64
1, 194114, Note_off_c, 0, 64, 66
1, 194119, Control_c, 0, 64, 127
1, 194135, Note_on_c, 0, 73, 122
1, 194157, Note_off_c, 0, 66, 68
1, 194166, Note_off_c, 0, 73, 72
1, 194225, Note_off_c, 0, 81, 57
1, 194356, Note_on_c, 0, 81, 108
1, 194552, Note_on_c, 0, 76, 103
1, 194558, Note_off_c, 0, 81, 61
1, 194591, Note_off_c, 0, 76, 68
1, 194656, Note_on_c, 0, 74, 104
1, 194739, Note_on_c, 0, 69, 82
1, 194746, Note_on_c, 0, 71, 84
1, 194752, Note_off_c, 0, 74, 66
1, 194795, Note_on_c, 0, 70, 101
1, 194804, Note_off_c, 0, 71, 56
1, 194812, Note_off_c, 0, 69, 66
1, 194828, Note_off_c, 0, 70, 69
1, 194931, Note_on_c, 0, 60, 107
1, 194933, Note_on_c, 0, 73, 104
1, 194934, Note_on_c, 0, 69, 96
1, 194938, Note_on_c, 0, 52, 114
1, 194938, Note_on_c, 0, 64, 90
1, 194943, Note_on_c, 0, 45, 99
1, 194943, Note_on_c, 0, 39, 99
1, 194968, Note_on_c, 0, 63, 46
1, 194968, Note_off_c, 0, 63, 127
1, 194979, Control_c, 0, 64, 103
1, 194994, Control_c, 0, 64, 66
1, 195009, Control_c, 0, 64, 0
1, 195045, Note_off_c, 0, 45, 59
1, 195053, Control_c, 0, 64, 40
1, 195060, Note_off_c, 0, 60, 55
1, 195068, Control_c, 0, 64, 112
1, 195083, Control_c, 0, 64, 127
1, 195140, Note_on_c, 0, 45, 93
1, 195148, Note_off_c, 0, 39, 64
1, 195186, Note_on_c, 0, 60, 109
1, 195206, Note_off_c, 0, 52, 54
1, 195229, Note_on_c, 0, 39, 108
1, 195232, Note_off_c, 0, 45, 64
1, 195242, Note_off_c, 0, 60, 64
1, 195283, Note_on_c, 0, 45, 72
1, 195296, Note_off_c, 0, 39, 67
1, 195307, Note_off_c, 0, 45, 69
1, 195328, Note_off_c, 0, 64, 51
1, 195343, Note_off_c, 0, 73, 62
1, 195349, Note_on_c, 0, 60, 104
1, 195370, Note_off_c, 0, 60, 73
1, 195372, Note_on_c, 0, 64, 40
1, 195372, Note_off_c, 0, 69, 64
1, 195405, Note_off_c, 0, 64, 53
1, 195429, Note_on_c, 0, 63, 60
1, 195465, Note_off_c, 0, 63, 63
1, 195498, Control_c, 0, 64, 85
1, 195513, Control_c, 0, 64, 57
1, 195514, Note_on_c, 0, 58, 74
1, 195525, Note_on_c, 0, 64, 74
1, 195527, Control_c, 0, 64, 0
1, 195530, Note_on_c, 0, 73, 100
1, 195537, Note_on_c, 0, 66, 77
1, 195587, Control_c, 0, 64, 37
1, 195597, Note_on_c, 0, 81, 99
1, 195602, Control_c, 0, 64, 75
1, 195617, Control_c, 0, 64, 127
1, 195659, Note_on_c, 0, 76, 100
1, 195674, Note_off_c, 0, 81, 68
1, 195682, Note_off_c, 0, 73, 61
1, 195697, Note_off_c, 0, 76, 70
1, 195713, Note_off_c, 0, 58, 63
1, 195721, Note_off_c, 0, 64, 65
1, 195726, Note_off_c, 0, 66, 64
1, 195753, Note_on_c, 0, 74, 110
1, 195832, Note_on_c, 0, 69, 93
1, 195858, Note_off_c, 0, 74, 69
1, 195892, Note_on_c, 0, 70, 103
1, 195909, Note_off_c, 0, 69, 67
1, 195918, Note_off_c, 0, 70, 72
1, 195980, Control_c, 0, 64, 84
1, 195994, Control_c, 0, 64, 46
1, 195994, Control_c, 0, 67, 68
1, 196009, Control_c, 0, 64, 0
1, 196009, Control_c, 0, 67, 127
1, 196496, Note_on_c, 0, 73, 51
1, 196535, Note_on_c, 0, 65, 31
1, 196540, Note_on_c, 0, 51, 40
1, 196604, Note_off_c, 0, 65, 0
1, 196604, Note_on_c, 0, 65, 6
1, 196699, Control_c, 0, 64, 30
1, 196714, Control_c, 0, 64, 43
1, 196729, Control_c, 0, 64, 56
1, 196743, Control_c, 0, 64, 61
1, 196758, Control_c, 0, 64, 64
1, 196773, Control_c, 0, 64, 65
1, 196788, Control_c, 0, 64, 68
1, 196791, Note_on_c, 0, 71, 61
1, 196795, Note_off_c, 0, 73, 57
1, 196802, Control_c, 0, 64, 71
1, 196804, Note_on_c, 0, 67, 44
1, 196817, Control_c, 0, 64, 76
1, 196832, Control_c, 0, 64, 80
1, 196837, Note_off_c, 0, 65, 52
1, 196848, Control_c, 0, 64, 84
1, 196851, Note_off_c, 0, 51, 53
1, 196863, Control_c, 0, 64, 89
1, 196878, Control_c, 0, 64, 92
1, 196892, Control_c, 0, 64, 95
1, 196907, Control_c, 0, 64, 101
1, 196922, Control_c, 0, 64, 107
1, 196922, Control_c, 0, 67, 125
1, 196937, Control_c, 0, 64, 115
1, 196937, Control_c, 0, 67, 87
1, 196952, Control_c, 0, 64, 127
1, 196952, Control_c, 0, 67, 55
1, 196966, Control_c, 0, 67, 0
1, 197081, Note_off_c, 0, 71, 50
1, 197102, Note_off_c, 0, 67, 58
1, 197104, Note_on_c, 0, 70, 46
1, 197110, Note_on_c, 0, 61, 45
1, 197146, Note_off_c, 0, 61, 58
1, 197166, Control_c, 0, 67, 40
1, 197169, Note_off_c, 0, 70, 51
1, 197181, Control_c, 0, 67, 62
1, 197196, Control_c, 0, 67, 86
1, 197211, Control_c, 0, 67, 127
1, 197271, Note_on_c, 0, 61, 44
1, 197364, Note_on_c, 0, 65, 58
1, 197388, Control_c, 0, 64, 107
1, 197403, Control_c, 0, 64, 86
1, 197417, Control_c, 0, 64, 69
1, 197432, Control_c, 0, 64, 53
1, 197447, Control_c, 0, 64, 0
1, 197492, Control_c, 0, 64, 29
1, 197507, Control_c, 0, 64, 49
1, 197522, Control_c, 0, 64, 63
1, 197524, Note_on_c, 0, 55, 37
1, 197537, Control_c, 0, 64, 70
1, 197551, Control_c, 0, 64, 77
1, 197566, Control_c, 0, 64, 81
1, 197577, Note_on_c, 0, 67, 52
1, 197581, Control_c, 0, 64, 85
1, 197581, Note_on_c, 0, 71, 52
1, 197596, Control_c, 0, 64, 88
1, 197604, Note_off_c, 0, 65, 54
1, 197611, Control_c, 0, 64, 92
1, 197620, Note_off_c, 0, 55, 57
1, 197625, Note_off_c, 0, 67, 62
1, 197625, Control_c, 0, 64, 95
1, 197635, Note_on_c, 0, 51, 19
1, 197641, Note_off_c, 0, 61, 37
1, 197641, Control_c, 0, 64, 98
1, 197671, Control_c, 0, 64, 100
1, 197684, Note_off_c, 0, 51, 51
1, 197686, Control_c, 0, 64, 102
1, 197715, Control_c, 0, 64, 105
1, 197741, Note_on_c, 0, 64, 58
1, 197745, Control_c, 0, 64, 108
1, 197760, Control_c, 0, 64, 110
1, 197769, Note_on_c, 0, 55, 32
1, 197772, Note_off_c, 0, 64, 66
1, 197775, Control_c, 0, 64, 113
1, 197775, Control_c, 0, 67, 124
1, 197789, Control_c, 0, 64, 120
1, 197789, Control_c, 0, 67, 91
1, 197802, Note_off_c, 0, 55, 52
1, 197804, Control_c, 0, 64, 127
1, 197804, Control_c, 0, 67, 53
1, 197819, Control_c, 0, 67, 0
1, 197842, Note_off_c, 0, 71, 60
1, 197864, Note_on_c, 0, 70, 62
1, 197876, Note_on_c, 0, 61, 48
1, 197927, Note_off_c, 0, 61, 61
1, 198001, Note_on_c, 0, 64, 50
1, 198020, Note_off_c, 0, 70, 63
1, 198048, Control_c, 0, 64, 99
1, 198052, Note_on_c, 0, 68, 61
1, 198063, Control_c, 0, 64, 73
1, 198078, Control_c, 0, 64, 55
1, 198093, Control_c, 0, 64, 44
1, 198108, Control_c, 0, 64, 51
1, 198122, Control_c, 0, 64, 62
1, 198136, Note_off_c, 0, 64, 57
1, 198137, Control_c, 0, 64, 71
1, 198152, Control_c, 0, 64, 85
1, 198166, Control_c, 0, 64, 107
1, 198168, Note_on_c, 0, 58, 56
1, 198181, Control_c, 0, 64, 127
1, 198230, Note_on_c, 0, 70, 58
1, 198233, Note_on_c, 0, 74, 62
1, 198234, Note_on_c, 0, 48, 65
1, 198258, Note_off_c, 0, 48, 57
1, 198261, Note_off_c, 0, 58, 63
1, 198273, Note_off_c, 0, 68, 56
1, 198327, Note_off_c, 0, 70, 59
1, 198361, Note_on_c, 0, 67, 77
1, 198380, Note_on_c, 0, 58, 46
1, 198382, Note_off_c, 0, 67, 70
1, 198411, Note_off_c, 0, 58, 53
1, 198472, Note_off_c, 0, 74, 59
1, 198483, Note_on_c, 0, 64, 66
1, 198483, Note_on_c, 0, 73, 68
1, 198551, Note_off_c, 0, 64, 60
1, 198573, Note_off_c, 0, 73, 63
1, 198589, Note_on_c, 0, 67, 77
1, 198598, Control_c, 0, 64, 95
1, 198612, Control_c, 0, 64, 64
1, 198619, Note_on_c, 0, 71, 79
1, 198627, Control_c, 0, 64, 33
1, 198642, Control_c, 0, 64, 35
1, 198655, Note_off_c, 0, 67, 63
1, 198657, Control_c, 0, 64, 54
1, 198678, Control_c, 0, 64, 73
1, 198689, Note_on_c, 0, 61, 61
1, 198693, Control_c, 0, 64, 127
1, 198709, Note_off_c, 0, 61, 65
1, 198752, Note_off_c, 0, 71, 62
1, 198759, Note_on_c, 0, 73, 76
1, 198759, Note_on_c, 0, 77, 74
1, 198781, Note_off_c, 0, 77, 71
1, 198786, Note_on_c, 0, 55, 60
1, 198799, Note_off_c, 0, 73, 57
1, 198819, Note_off_c, 0, 55, 64
1, 198825, Note_on_c, 0, 45, 65
1, 198853, Note_off_c, 0, 45, 63
1, 198878, Note_on_c, 0, 70, 82
1, 198882, Note_on_c, 0, 61, 74
1, 198905, Note_off_c, 0, 61, 65
1, 198925, Note_off_c, 0, 70, 65
1, 198988, Note_on_c, 0, 76, 91
1, 199003, Note_on_c, 0, 67, 61
1, 199026, Note_off_c, 0, 67, 61
1, 199034, Note_off_c, 0, 76, 65
1, 199082, Note_on_c, 0, 70, 90
1, 199093, Control_c, 0, 64, 114
1, 199108, Control_c, 0, 64, 65
1, 199118, Note_on_c, 0, 74, 94
1, 199123, Control_c, 0, 64, 0
1, 199141, Note_on_c, 0, 75, 65
1, 199149, Note_off_c, 0, 70, 65
1, 199152, Control_c, 0, 64, 30
1, 199160, Note_off_c, 0, 75, 43
1, 199167, Control_c, 0, 64, 56
1, 199173, Note_on_c, 0, 64, 70
1, 199182, Control_c, 0, 64, 74
1, 199197, Note_off_c, 0, 64, 67
1, 199197, Control_c, 0, 64, 119
1, 199197, Control_c, 0, 67, 73
1, 199212, Control_c, 0, 64, 127
1, 199212, Control_c, 0, 67, 127
1, 199228, Note_off_c, 0, 74, 60
1, 199238, Note_on_c, 0, 80, 90
1, 199242, Note_on_c, 0, 76, 74
1, 199285, Note_on_c, 0, 58, 63
1, 199300, Note_off_c, 0, 80, 65
1, 199307, Note_off_c, 0, 58, 64
1, 199320, Note_on_c, 0, 52, 73
1, 199324, Note_off_c, 0, 76, 59
1, 199376, Note_on_c, 0, 42, 66
1, 199387, Note_off_c, 0, 52, 58
1, 199396, Note_on_c, 0, 73, 70
1, 199415, Note_on_c, 0, 64, 53
1, 199415, Note_off_c, 0, 42, 64
1, 199434, Note_off_c, 0, 64, 65
1, 199444, Note_on_c, 0, 75, 18
1, 199483, Note_off_c, 0, 73, 61
1, 199485, Note_off_c, 0, 75, 39
1, 199522, Note_on_c, 0, 79, 73
1, 199540, Note_on_c, 0, 70, 66
1, 199547, Note_off_c, 0, 79, 66
1, 199564, Note_off_c, 0, 70, 70
1, 199657, Note_on_c, 0, 63, 60
1, 199732, Note_on_c, 0, 67, 74
1, 199739, Control_c, 0, 64, 96
1, 199754, Control_c, 0, 64, 68
1, 199768, Control_c, 0, 64, 39
1, 199783, Control_c, 0, 64, 0
1, 199827, Control_c, 0, 64, 53
1, 199829, Note_on_c, 0, 57, 53
1, 199842, Control_c, 0, 64, 68
1, 199842, Control_c, 0, 67, 100
1, 199857, Control_c, 0, 64, 82
1, 199857, Control_c, 0, 67, 50
1, 199872, Control_c, 0, 64, 111
1, 199872, Control_c, 0, 67, 0
1, 199886, Note_off_c, 0, 63, 59
1, 199886, Control_c, 0, 64, 127
1, 199894, Note_off_c, 0, 67, 57
1, 199902, Note_on_c, 0, 69, 53
1, 199902, Note_on_c, 0, 73, 64
1, 199917, Note_off_c, 0, 57, 62
1, 199921, Note_on_c, 0, 53, 52
1, 199936, Note_off_c, 0, 69, 63
1, 199960, Note_off_c, 0, 53, 49
1, 199996, Note_on_c, 0, 66, 73
1, 200009, Note_on_c, 0, 57, 52
1, 200021, Note_off_c, 0, 66, 70
1, 200030, Note_off_c, 0, 57, 61
1, 200090, Note_on_c, 0, 72, 75
1, 200091, Note_on_c, 0, 63, 75
1, 200118, Note_off_c, 0, 73, 58
1, 200118, Note_off_c, 0, 63, 65
1, 200193, Note_on_c, 0, 66, 85
1, 200214, Note_off_c, 0, 72, 62
1, 200236, Control_c, 0, 64, 102
1, 200237, Note_on_c, 0, 70, 88
1, 200250, Control_c, 0, 64, 66
1, 200265, Control_c, 0, 64, 30
1, 200274, Note_off_c, 0, 66, 65
1, 200285, Note_on_c, 0, 60, 64
1, 200295, Control_c, 0, 64, 53
1, 200310, Control_c, 0, 64, 74
1, 200324, Control_c, 0, 64, 127
1, 200346, Note_off_c, 0, 60, 57
1, 200359, Note_on_c, 0, 50, 69
1, 200378, Note_on_c, 0, 60, 56
1, 200382, Note_on_c, 0, 76, 81
1, 200389, Note_off_c, 0, 50, 64
1, 200390, Note_off_c, 0, 70, 63
1, 200395, Note_on_c, 0, 72, 65
1, 200423, Note_off_c, 0, 72, 65
1, 200429, Note_off_c, 0, 60, 64
1, 200453, Note_off_c, 0, 76, 60
1, 200464, Note_on_c, 0, 69, 98
1, 200542, Note_off_c, 0, 69, 52
1, 200560, Note_on_c, 0, 75, 95
1, 200565, Note_on_c, 0, 66, 95
1, 200618, Note_off_c, 0, 66, 63
1, 200638, Note_off_c, 0, 75, 59
1, 200651, Control_c, 0, 64, 91
1, 200654, Note_on_c, 0, 69, 96
1, 200666, Control_c, 0, 64, 62
1, 200672, Note_on_c, 0, 73, 96
1, 200681, Control_c, 0, 64, 50
1, 200696, Control_c, 0, 64, 63
1, 200708, Note_on_c, 0, 63, 87
1, 200710, Control_c, 0, 64, 82
1, 200714, Note_off_c, 0, 69, 64
1, 200725, Control_c, 0, 64, 127
1, 200742, Note_off_c, 0, 63, 68
1, 200766, Note_on_c, 0, 75, 92
1, 200773, Note_off_c, 0, 73, 63
1, 200780, Note_on_c, 0, 79, 76
1, 200800, Note_off_c, 0, 79, 70
1, 200812, Note_on_c, 0, 57, 80
1, 200830, Note_off_c, 0, 75, 69
1, 200843, Note_on_c, 0, 47, 69
1, 200852, Note_off_c, 0, 57, 65
1, 200868, Note_off_c, 0, 47, 66
1, 200874, Note_on_c, 0, 63, 91
1, 200890, Note_on_c, 0, 71, 69
1, 200891, Note_on_c, 0, 72, 70
1, 200913, Note_off_c, 0, 63, 61
1, 200923, Note_off_c, 0, 71, 66
1, 200934, Note_off_c, 0, 72, 61
1, 200972, Note_on_c, 0, 78, 103
1, 200983, Note_on_c, 0, 69, 84
1, 200997, Note_off_c, 0, 69, 75
1, 201024, Note_off_c, 0, 78, 58
1, 201074, Control_c, 0, 64, 77
1, 201081, Note_on_c, 0, 72, 95
1, 201089, Control_c, 0, 64, 44
1, 201104, Control_c, 0, 64, 0
1, 201110, Note_on_c, 0, 76, 109
1, 201119, Control_c, 0, 64, 55
1, 201134, Control_c, 0, 64, 82
1, 201141, Note_off_c, 0, 72, 65
1, 201148, Control_c, 0, 64, 127
1, 201152, Note_on_c, 0, 66, 93
1, 201184, Note_off_c, 0, 66, 67
1, 201204, Note_off_c, 0, 76, 68
1, 201231, Note_on_c, 0, 78, 91
1, 201234, Note_on_c, 0, 82, 95
1, 201245, Note_on_c, 0, 60, 70
1, 201278, Note_off_c, 0, 82, 60
1, 201284, Note_off_c, 0, 60, 65
1, 201290, Note_off_c, 0, 78, 60
1, 201302, Note_on_c, 0, 54, 69
1, 201354, Note_on_c, 0, 44, 89
1, 201358, Note_on_c, 0, 75, 100
1, 201361, Note_on_c, 0, 66, 94
1, 201376, Note_off_c, 0, 66, 76
1, 201378, Note_off_c, 0, 54, 0
1, 201409, Note_off_c, 0, 75, 67
1, 201415, Poly_aftertouch_c, 0, 54, 127
1, 201431, Note_on_c, 0, 54, 8
1, 201471, Note_off_c, 0, 54, 0
1, 201477, Poly_aftertouch_c, 0, 78, 0
1, 201510, Note_on_c, 0, 72, 109
1, 201510, Note_on_c, 0, 81, 108
1, 201537, Note_off_c, 0, 81, 72
1, 201539, Note_off_c, 0, 72, 71
1, 201587, Note_off_c, 0, 44, 57
1, 201588, Poly_aftertouch_c, 0, 54, 0
1, 201686, Note_on_c, 0, 73, 12
1, 201709, Note_off_c, 0, 73, 0
1, 201719, Control_c, 0, 64, 108
1, 201726, Note_on_c, 0, 66, 116
1, 201726, Note_on_c, 0, 80, 106
1, 201730, Note_on_c, 0, 72, 96
1, 201731, Note_on_c, 0, 76, 93
1, 201734, Control_c, 0, 64, 62
1, 201735, Note_on_c, 0, 57, 110
1, 201741, Note_on_c, 0, 50, 97
1, 201743, Note_on_c, 0, 44, 94
1, 201746, Poly_aftertouch_c, 0, 73, 127
1, 201749, Control_c, 0, 64, 0
1, 201778, Note_on_c, 0, 78, 24
1, 201778, Control_c, 0, 64, 53
1, 201790, Poly_aftertouch_c, 0, 73, 0
1, 201793, Control_c, 0, 64, 127
1, 201816, Note_off_c, 0, 78, 30
1, 201853, Note_off_c, 0, 66, 61
1, 201865, Note_off_c, 0, 80, 57
1, 201891, Note_off_c, 0, 72, 55
1, 201895, Note_off_c, 0, 76, 64
1, 202522, Note_off_c, 0, 50, 55
1, 202686, Note_on_c, 0, 50, 85
1, 202691, Note_off_c, 0, 44, 63
1, 202712, Note_on_c, 0, 60, 106
1, 202756, Note_off_c, 0, 60, 68
1, 202791, Note_on_c, 0, 44, 91
1, 202823, Note_off_c, 0, 50, 62
1, 202842, Note_on_c, 0, 48, 28
1, 202883, Note_off_c, 0, 48, 54
1, 203126, Note_on_c, 0, 50, 80
1, 203163, Note_on_c, 0, 60, 89
1, 203207, Note_off_c, 0, 44, 61
1, 203210, Note_off_c, 0, 60, 65
1, 203348, Note_on_c, 0, 44, 78
1, 203399, Note_off_c, 0, 50, 64
1, 203409, Note_on_c, 0, 60, 94
1, 203437, Note_off_c, 0, 60, 63
1, 203469, Note_on_c, 0, 60, 91
1, 203478, Note_on_c, 0, 50, 80
1, 203501, Note_off_c, 0, 44, 65
1, 203505, Note_off_c, 0, 60, 69
1, 203659, Note_on_c, 0, 44, 69
1, 203716, Note_off_c, 0, 44, 61
1, 203722, Note_on_c, 0, 60, 87
1, 203743, Note_off_c, 0, 60, 71
1, 203769, Note_off_c, 0, 57, 57
1, 203779, Note_on_c, 0, 60, 98
1, 203795, Note_on_c, 0, 54, 97
1, 203802, Note_on_c, 0, 44, 83
1, 203824, Control_c, 0, 64, 110
1, 203826, Note_off_c, 0, 50, 65
1, 203839, Control_c, 0, 64, 65
1, 203853, Control_c, 0, 64, 0
1, 204009, Control_c, 0, 64, 52
1, 204024, Control_c, 0, 64, 78
1, 204037, Note_on_c, 0, 70, 88
1, 204040, Control_c, 0, 64, 127
1, 204068, Note_off_c, 0, 60, 61
1, 204089, Note_on_c, 0, 66, 102
1, 204108, Note_off_c, 0, 70, 65
1, 204153, Note_off_c, 0, 66, 63
1, 204282, Note_off_c, 0, 44, 59
1, 204420, Note_on_c, 0, 69, 87
1, 204438, Note_off_c, 0, 69, 73
1, 204470, Note_on_c, 0, 60, 96
1, 204470, Note_on_c, 0, 68, 97
1, 204473, Note_on_c, 0, 64, 95
1, 204476, Note_on_c, 0, 57, 101
1, 204484, Note_on_c, 0, 44, 90
1, 204485, Note_on_c, 0, 50, 89
1, 204505, Note_off_c, 0, 54, 64
1, 204573, Control_c, 0, 64, 73
1, 204588, Control_c, 0, 64, 36
1, 204602, Control_c, 0, 64, 0
1, 204788, Control_c, 0, 64, 43
1, 204803, Control_c, 0, 64, 60
1, 204817, Control_c, 0, 64, 72
1, 204833, Control_c, 0, 64, 94
1, 204848, Control_c, 0, 64, 127
1, 205219, Note_off_c, 0, 50, 59
1, 205263, Note_off_c, 0, 60, 52
1, 205358, Note_on_c, 0, 50, 80
1, 205370, Note_off_c, 0, 44, 62
1, 205397, Note_on_c, 0, 60, 95
1, 205481, Note_on_c, 0, 44, 88
1, 205508, Note_off_c, 0, 50, 61
1, 205642, Note_off_c, 0, 60, 56
1, 205736, Note_on_c, 0, 50, 75
1, 205766, Note_off_c, 0, 44, 61
1, 205781, Note_on_c, 0, 60, 95
1, 205890, Note_off_c, 0, 60, 53
1, 205954, Note_on_c, 0, 44, 82
1, 206008, Note_off_c, 0, 50, 60
1, 206017, Note_on_c, 0, 60, 94
1, 206094, Note_off_c, 0, 60, 57
1, 206154, Note_on_c, 0, 50, 78
1, 206187, Note_on_c, 0, 60, 93
1, 206187, Note_off_c, 0, 44, 63
1, 206244, Note_off_c, 0, 60, 61
1, 206316, Note_on_c, 0, 44, 72
1, 206324, Note_on_c, 0, 60, 89
1, 206369, Note_off_c, 0, 60, 65
1, 206378, Note_off_c, 0, 44, 63
1, 206437, Note_on_c, 0, 60, 86
1, 206444, Note_off_c, 0, 57, 48
1, 206479, Note_off_c, 0, 60, 65
1, 206489, Note_off_c, 0, 64, 59
1, 206506, Note_off_c, 0, 68, 58
1, 206622, Note_on_c, 0, 54, 61
1, 206640, Note_on_c, 0, 44, 53
1, 206652, Note_off_c, 0, 50, 60
1, 206655, Control_c, 0, 64, 72
1, 206670, Control_c, 0, 64, 0
1, 206938, Note_on_c, 0, 70, 81
1, 206971, Note_on_c, 0, 66, 79
1, 206974, Control_c, 0, 64, 48
1, 206980, Note_on_c, 0, 60, 57
1, 206989, Control_c, 0, 64, 57
1, 207003, Control_c, 0, 64, 63
1, 207018, Control_c, 0, 64, 68
1, 207033, Control_c, 0, 64, 77
1, 207044, Note_off_c, 0, 70, 58
1, 207048, Control_c, 0, 64, 93
1, 207063, Control_c, 0, 64, 127
1, 207126, Note_off_c, 0, 44, 59
1, 207270, Note_on_c, 0, 69, 60
1, 207288, Note_off_c, 0, 60, 58
1, 207293, Note_off_c, 0, 66, 60
1, 207300, Note_on_c, 0, 50, 56
1, 207302, Note_off_c, 0, 69, 62
1, 207317, Note_on_c, 0, 45, 40
1, 207331, Control_c, 0, 64, 73
1, 207335, Note_off_c, 0, 54, 37
1, 207346, Control_c, 0, 64, 0
1, 207564, Note_on_c, 0, 68, 73
1, 207612, Control_c, 0, 64, 40
1, 207613, Note_on_c, 0, 64, 65
1, 207618, Note_on_c, 0, 60, 48
1, 207627, Control_c, 0, 64, 60
1, 207638, Note_off_c, 0, 68, 57
1, 207642, Control_c, 0, 64, 67
1, 207664, Control_c, 0, 64, 73
1, 207679, Control_c, 0, 64, 81
1, 207694, Control_c, 0, 64, 89
1, 207708, Control_c, 0, 64, 99
1, 207723, Control_c, 0, 64, 113
1, 207738, Control_c, 0, 64, 127
1, 207746, Note_off_c, 0, 45, 50
1, 207858, Note_on_c, 0, 67, 59
1, 207862, Note_off_c, 0, 64, 63
1, 207867, Note_off_c, 0, 60, 55
1, 207886, Note_off_c, 0, 67, 65
1, 207913, Note_on_c, 0, 54, 53
1, 207916, Note_on_c, 0, 44, 50
1, 207916, Control_c, 0, 64, 83
1, 207931, Control_c, 0, 64, 49
1, 207933, Note_off_c, 0, 50, 48
1, 207946, Control_c, 0, 64, 0
1, 208160, Note_on_c, 0, 70, 70
1, 208193, Note_on_c, 0, 66, 68
1, 208204, Note_on_c, 0, 60, 48
1, 208227, Control_c, 0, 64, 40
1, 208241, Control_c, 0, 64, 50
1, 208256, Control_c, 0, 64, 55
1, 208268, Note_off_c, 0, 70, 61
1, 208271, Control_c, 0, 64, 61
1, 208286, Control_c, 0, 64, 66
1, 208301, Control_c, 0, 64, 71
1, 208316, Control_c, 0, 64, 78
1, 208330, Control_c, 0, 64, 83
1, 208345, Control_c, 0, 64, 87
1, 208348, Note_off_c, 0, 44, 58
1, 208360, Control_c, 0, 64, 92
1, 208375, Control_c, 0, 64, 97
1, 208390, Control_c, 0, 64, 105
1, 208412, Control_c, 0, 64, 114
1, 208427, Control_c, 0, 64, 127
1, 208456, Note_on_c, 0, 69, 52
1, 208462, Note_off_c, 0, 60, 61
1, 208468, Note_off_c, 0, 66, 63
1, 208483, Note_off_c, 0, 69, 64
1, 208503, Note_on_c, 0, 50, 50
1, 208516, Control_c, 0, 64, 84
1, 208518, Note_on_c, 0, 45, 39
1, 208530, Control_c, 0, 64, 58
1, 208532, Note_off_c, 0, 54, 38
1, 208545, Control_c, 0, 64, 0
1, 208721, Note_on_c, 0, 68, 66
1, 208757, Note_on_c, 0, 64, 66
1, 208772, Note_off_c, 0, 68, 48
1, 208774, Note_on_c, 0, 60, 46
1, 208797, Control_c, 0, 64, 46
1, 208812, Control_c, 0, 64, 59
1, 208828, Control_c, 0, 64, 65
1, 208843, Control_c, 0, 64, 69
1, 208845, Note_off_c, 0, 45, 55
1, 208858, Control_c, 0, 64, 73
1, 208872, Control_c, 0, 64, 77
1, 208887, Control_c, 0, 64, 80
1, 208902, Control_c, 0, 64, 86
1, 208917, Control_c, 0, 64, 91
1, 208932, Control_c, 0, 64, 95
1, 208946, Control_c, 0, 64, 98
1, 208951, Note_off_c, 0, 60, 60
1, 208961, Control_c, 0, 64, 100
1, 208966, Note_off_c, 0, 64, 64
1, 208967, Note_on_c, 0, 67, 53
1, 208990, Note_off_c, 0, 67, 58
1, 208991, Note_on_c, 0, 44, 52
1, 208991, Control_c, 0, 64, 103
1, 209010, Note_off_c, 0, 50, 37
1, 209029, Note_off_c, 0, 44, 63
1, 209055, Note_on_c, 0, 54, 43
1, 209092, Note_on_c, 0, 60, 67
1, 209154, Note_on_c, 0, 74, 75
1, 209161, Control_c, 0, 64, 99
1, 209176, Control_c, 0, 64, 95
1, 209191, Control_c, 0, 64, 91
1, 209205, Control_c, 0, 64, 86
1, 209207, Note_on_c, 0, 70, 64
1, 209220, Control_c, 0, 64, 81
1, 209235, Control_c, 0, 64, 76
1, 209245, Note_off_c, 0, 74, 57
1, 209250, Control_c, 0, 64, 72
1, 209255, Note_on_c, 0, 75, 95
1, 209263, Note_off_c, 0, 70, 63
1, 209265, Control_c, 0, 64, 67
1, 209272, Note_on_c, 0, 66, 69
1, 209278, Note_off_c, 0, 60, 54
1, 209279, Control_c, 0, 64, 61
1, 209294, Control_c, 0, 64, 49
1, 209309, Control_c, 0, 64, 34
1, 209323, Control_c, 0, 64, 0
1, 209368, Control_c, 0, 64, 41
1, 209383, Control_c, 0, 64, 55
1, 209398, Control_c, 0, 64, 64
1, 209413, Control_c, 0, 64, 70
1, 209427, Control_c, 0, 64, 72
1, 209442, Control_c, 0, 64, 72
1, 209485, Note_off_c, 0, 54, 35
1, 209487, Control_c, 0, 64, 73
1, 209502, Control_c, 0, 64, 73
1, 209517, Control_c, 0, 64, 75
1, 209518, Note_on_c, 0, 69, 45
1, 209531, Control_c, 0, 64, 77
1, 209543, Note_off_c, 0, 66, 48
1, 209546, Control_c, 0, 64, 78
1, 209553, Note_off_c, 0, 69, 52
1, 209561, Control_c, 0, 64, 80
1, 209565, Note_on_c, 0, 60, 41
1, 209568, Note_on_c, 0, 50, 48
1, 209576, Control_c, 0, 64, 81
1, 209585, Note_on_c, 0, 45, 25
1, 209588, Note_off_c, 0, 75, 54
1, 209591, Control_c, 0, 64, 83
1, 209605, Control_c, 0, 64, 84
1, 209616, Note_off_c, 0, 60, 53
1, 209621, Control_c, 0, 64, 86
1, 209627, Note_off_c, 0, 45, 52
1, 209636, Control_c, 0, 64, 88
1, 209651, Control_c, 0, 64, 89
1, 209666, Control_c, 0, 64, 90
1, 209681, Control_c, 0, 64, 91
1, 209695, Control_c, 0, 64, 91
1, 209702, Note_on_c, 0, 70, 58
1, 209725, Control_c, 0, 64, 92
1, 209739, Note_off_c, 0, 50, 57
1, 209755, Note_off_c, 0, 70, 58
1, 209758, Note_on_c, 0, 74, 72
1, 209769, Control_c, 0, 64, 92
1, 209776, Note_on_c, 0, 66, 47
1, 209784, Control_c, 0, 64, 94
1, 209799, Control_c, 0, 64, 97
1, 209822, Note_on_c, 0, 44, 50
1, 209828, Control_c, 0, 64, 91
1, 209843, Control_c, 0, 64, 75
1, 209858, Control_c, 0, 64, 60
1, 209873, Control_c, 0, 64, 48
1, 209882, Note_off_c, 0, 44, 57
1, 209888, Control_c, 0, 64, 53
1, 209906, Note_on_c, 0, 69, 48
1, 209910, Control_c, 0, 64, 61
1, 209915, Note_on_c, 0, 54, 39
1, 209925, Control_c, 0, 64, 70
1, 209931, Note_off_c, 0, 74, 63
1, 209932, Note_off_c, 0, 69, 59
1, 209940, Control_c, 0, 64, 83
1, 209954, Control_c, 0, 64, 107
1, 209968, Note_off_c, 0, 54, 56
1, 209969, Control_c, 0, 64, 127
1, 209999, Note_on_c, 0, 60, 47
1, 210024, Note_off_c, 0, 60, 58
1, 210096, Note_on_c, 0, 75, 69
1, 210214, Note_on_c, 0, 38, 58
1, 210223, Note_on_c, 0, 78, 77
1, 210260, Note_off_c, 0, 66, 41
1, 210278, Note_off_c, 0, 75, 53
1, 210279, Note_off_c, 0, 38, 60
1, 210289, Note_on_c, 0, 44, 56
1, 210340, Note_on_c, 0, 70, 77
1, 210351, Note_off_c, 0, 44, 57
1, 210354, Note_off_c, 0, 78, 52
1, 210402, Note_on_c, 0, 54, 50
1, 210431, Note_off_c, 0, 54, 62
1, 210480, Note_off_c, 0, 70, 59
1, 210518, Note_on_c, 0, 80, 91
1, 210542, Note_on_c, 0, 77, 60
1, 210550, Note_on_c, 0, 66, 65
1, 210584, Note_on_c, 0, 60, 55
1, 210607, Note_off_c, 0, 60, 59
1, 210629, Note_off_c, 0, 66, 57
1, 210720, Note_on_c, 0, 75, 59
1, 210742, Note_off_c, 0, 80, 58
1, 210800, Note_off_c, 0, 77, 40
1, 210854, Note_on_c, 0, 72, 44
1, 210859, Note_off_c, 0, 75, 54
1, 210876, Note_on_c, 0, 69, 22
1, 210920, Note_on_c, 0, 77, 58
1, 210933, Note_off_c, 0, 69, 43
1, 210945, Note_off_c, 0, 72, 53
1, 210996, Note_off_c, 0, 77, 50
1, 211001, Note_on_c, 0, 75, 51
1, 211085, Note_on_c, 0, 72, 45
1, 211111, Note_on_c, 0, 69, 31
1, 211141, Note_off_c, 0, 72, 51
1, 211155, Note_off_c, 0, 69, 48
1, 211163, Note_on_c, 0, 70, 74
1, 211177, Control_c, 0, 67, 41
1, 211192, Note_off_c, 0, 70, 63
1, 211192, Control_c, 0, 67, 60
1, 211201, Note_off_c, 0, 75, 31
1, 211207, Control_c, 0, 67, 88
1, 211223, Control_c, 0, 67, 119
1, 211238, Control_c, 0, 67, 127
1, 211307, Note_on_c, 0, 78, 66
1, 211326, Note_on_c, 0, 66, 69
1, 211327, Note_on_c, 0, 77, 56
1, 211354, Note_off_c, 0, 66, 66
1, 211493, Note_on_c, 0, 75, 58
1, 211550, Note_off_c, 0, 77, 36
1, 211654, Note_on_c, 0, 72, 37
1, 211668, Note_on_c, 0, 69, 46
1, 211679, Note_off_c, 0, 78, 26
1, 211690, Control_c, 0, 67, 119
1, 211703, Note_off_c, 0, 75, 33
1, 211705, Note_off_c, 0, 72, 60
1, 211705, Control_c, 0, 67, 74
1, 211719, Control_c, 0, 67, 0
1, 211748, Note_off_c, 0, 69, 37
1, 211954, Note_on_c, 0, 54, 65
1, 212016, Control_c, 0, 67, 50
1, 212031, Control_c, 0, 64, 83
1, 212031, Control_c, 0, 67, 88
1, 212046, Control_c, 0, 64, 58
1, 212046, Control_c, 0, 67, 127
1, 212061, Control_c, 0, 64, 0
1, 212120, Control_c, 0, 64, 49
1, 212142, Control_c, 0, 64, 64
1, 212157, Control_c, 0, 64, 73
1, 212172, Control_c, 0, 64, 85
1, 212185, Note_on_c, 0, 44, 46
1, 212187, Control_c, 0, 64, 91
1, 212202, Control_c, 0, 64, 96
1, 212217, Control_c, 0, 64, 101
1, 212231, Control_c, 0, 64, 108
1, 212246, Control_c, 0, 64, 127
1, 212250, Note_off_c, 0, 54, 58
1, 212272, Note_on_c, 0, 70, 74
1, 212317, Note_on_c, 0, 66, 74
1, 212320, Note_on_c, 0, 60, 59
1, 212342, Note_on_c, 0, 38, 51
1, 212343, Note_off_c, 0, 70, 57
1, 212361, Note_off_c, 0, 44, 55
1, 212492, Note_on_c, 0, 44, 50
1, 212497, Control_c, 0, 67, 93
1, 212512, Control_c, 0, 67, 46
1, 212527, Note_on_c, 0, 69, 81
1, 212527, Control_c, 0, 67, 0
1, 212534, Note_off_c, 0, 60, 62
1, 212535, Note_off_c, 0, 38, 36
1, 212536, Note_off_c, 0, 66, 64
1, 212545, Note_off_c, 0, 69, 71
1, 212757, Note_off_c, 0, 44, 58
1, 212757, Note_on_c, 0, 38, 47
1, 212807, Note_on_c, 0, 51, 76
1, 212832, Note_off_c, 0, 51, 66
1, 212875, Note_on_c, 0, 44, 61
1, 212878, Note_on_c, 0, 51, 83
1, 212903, Note_off_c, 0, 38, 34
1, 212930, Note_off_c, 0, 51, 60
1, 213027, Note_on_c, 0, 38, 55
1, 213066, Note_off_c, 0, 38, 60
1, 213073, Note_on_c, 0, 51, 86
1, 213094, Note_off_c, 0, 51, 71
1, 213143, Note_off_c, 0, 44, 25
1, 213156, Note_on_c, 0, 54, 90
1, 213232, Control_c, 0, 64, 115
1, 213246, Control_c, 0, 64, 77
1, 213261, Control_c, 0, 64, 56
1, 213276, Control_c, 0, 64, 0
1, 213350, Control_c, 0, 67, 41
1, 213365, Control_c, 0, 67, 72
1, 213374, Note_on_c, 0, 44, 45
1, 213380, Control_c, 0, 67, 114
1, 213395, Control_c, 0, 64, 41
1, 213395, Control_c, 0, 67, 127
1, 213410, Control_c, 0, 64, 55
1, 213425, Control_c, 0, 64, 64
1, 213428, Note_on_c, 0, 70, 75
1, 213439, Control_c, 0, 64, 71
1, 213453, Note_off_c, 0, 54, 56
1, 213454, Control_c, 0, 64, 79
1, 213468, Note_on_c, 0, 66, 77
1, 213469, Control_c, 0, 64, 90
1, 213476, Note_on_c, 0, 60, 52
1, 213484, Control_c, 0, 64, 104
1, 213498, Control_c, 0, 64, 127
1, 213515, Note_off_c, 0, 70, 61
1, 213524, Note_on_c, 0, 38, 50
1, 213536, Note_off_c, 0, 44, 54
1, 213658, Note_on_c, 0, 69, 88
1, 213670, Note_off_c, 0, 60, 60
1, 213672, Note_off_c, 0, 66, 64
1, 213673, Note_on_c, 0, 44, 56
1, 213678, Note_off_c, 0, 69, 68
1, 213711, Note_off_c, 0, 38, 34
1, 213855, Note_on_c, 0, 38, 43
1, 213855, Note_off_c, 0, 44, 57
1, 213918, Note_on_c, 0, 51, 72
1, 213943, Note_off_c, 0, 51, 65
1, 213984, Note_on_c, 0, 44, 53
1, 213991, Note_off_c, 0, 38, 34
1, 213991, Note_on_c, 0, 51, 82
1, 214031, Note_off_c, 0, 51, 61
1, 214125, Note_on_c, 0, 38, 54
1, 214150, Note_off_c, 0, 44, 60
1, 214161, Note_off_c, 0, 38, 60
1, 214166, Note_on_c, 0, 51, 76
1, 214188, Note_off_c, 0, 51, 69
1, 214337, Note_on_c, 0, 60, 65
1, 214340, Poly_aftertouch_c, 0, 51, 0
1, 214367, Note_off_c, 0, 60, 67
1, 214374, Note_on_c, 0, 54, 60
1, 214377, Note_on_c, 0, 74, 78
1, 214381, Control_c, 0, 64, 103
1, 214403, Control_c, 0, 64, 63
1, 214411, Note_off_c, 0, 54, 65
1, 214418, Control_c, 0, 64, 0
1, 214433, Note_on_c, 0, 70, 66
1, 214462, Note_on_c, 0, 44, 63
1, 214465, Note_off_c, 0, 74, 63
1, 214473, Note_off_c, 0, 70, 63
1, 214483, Note_on_c, 0, 75, 79
1, 214495, Note_on_c, 0, 66, 66
1, 214495, Note_off_c, 0, 44, 63
1, 214714, Note_on_c, 0, 69, 55
1, 214715, Control_c, 0, 64, 42
1, 214730, Control_c, 0, 64, 55
1, 214737, Note_off_c, 0, 75, 59
1, 214744, Control_c, 0, 64, 63
1, 214752, Note_off_c, 0, 66, 41
1, 214759, Control_c, 0, 64, 67
1, 214764, Note_on_c, 0, 60, 51
1, 214768, Note_on_c, 0, 45, 35
1, 214774, Control_c, 0, 64, 71
1, 214775, Note_on_c, 0, 50, 32
1, 214789, Control_c, 0, 64, 75
1, 214796, Note_off_c, 0, 60, 65
1, 214804, Control_c, 0, 64, 79
1, 214805, Note_off_c, 0, 45, 42
1, 214811, Note_off_c, 0, 50, 45
1, 214818, Control_c, 0, 64, 81
1, 214829, Note_off_c, 0, 69, 36
1, 214833, Control_c, 0, 64, 84
1, 214848, Control_c, 0, 64, 85
1, 214863, Control_c, 0, 64, 86
1, 214878, Control_c, 0, 64, 86
1, 214888, Note_on_c, 0, 70, 57
1, 214907, Control_c, 0, 64, 87
1, 214933, Note_off_c, 0, 70, 56
1, 214937, Note_on_c, 0, 74, 75
1, 214951, Control_c, 0, 64, 87
1, 214951, Control_c, 0, 67, 123
1, 214956, Note_on_c, 0, 66, 54
1, 214966, Control_c, 0, 67, 93
1, 214981, Control_c, 0, 67, 54
1, 214996, Control_c, 0, 67, 0
1, 215021, Note_off_c, 0, 74, 62
1, 215055, Control_c, 0, 64, 88
1, 215070, Control_c, 0, 64, 92
1, 215085, Control_c, 0, 64, 100
1, 215100, Control_c, 0, 64, 108
1, 215130, Control_c, 0, 64, 91
1, 215130, Note_on_c, 0, 69, 53
1, 215151, Control_c, 0, 64, 71
1, 215161, Note_on_c, 0, 73, 76
1, 215166, Note_off_c, 0, 66, 39
1, 215166, Control_c, 0, 64, 49
1, 215175, Note_off_c, 0, 69, 60
1, 215181, Control_c, 0, 64, 0
1, 215182, Note_on_c, 0, 61, 69
1, 215186, Note_on_c, 0, 48, 61
1, 215187, Note_on_c, 0, 54, 61
1, 215210, Note_off_c, 0, 61, 67
1, 215211, Control_c, 0, 64, 44
1, 215212, Note_off_c, 0, 48, 56
1, 215217, Note_off_c, 0, 54, 65
1, 215227, Control_c, 0, 64, 60
1, 215241, Control_c, 0, 64, 71
1, 215256, Control_c, 0, 64, 76
1, 215330, Control_c, 0, 64, 77
1, 215336, Note_on_c, 0, 70, 75
1, 215345, Control_c, 0, 64, 77
1, 215360, Control_c, 0, 64, 78
1, 215374, Control_c, 0, 64, 79
1, 215382, Note_on_c, 0, 66, 89
1, 215389, Control_c, 0, 64, 78
1, 215394, Note_off_c, 0, 70, 62
1, 215404, Control_c, 0, 64, 73
1, 215419, Control_c, 0, 64, 59
1, 215434, Control_c, 0, 64, 0
1, 215543, Note_on_c, 0, 69, 68
1, 215556, Note_off_c, 0, 66, 62
1, 215566, Note_off_c, 0, 69, 69
1, 215583, Note_on_c, 0, 64, 89
1, 215585, Note_on_c, 0, 57, 78
1, 215589, Note_on_c, 0, 51, 72
1, 215597, Control_c, 0, 64, 56
1, 215602, Note_off_c, 0, 64, 73
1, 215607, Note_off_c, 0, 57, 67
1, 215612, Note_off_c, 0, 51, 66
1, 215612, Control_c, 0, 64, 71
1, 215627, Control_c, 0, 64, 75
1, 215641, Control_c, 0, 64, 76
1, 215656, Control_c, 0, 64, 76
1, 215671, Control_c, 0, 64, 77
1, 215744, Note_on_c, 0, 68, 67
1, 215759, Control_c, 0, 64, 74
1, 215774, Control_c, 0, 64, 64
1, 215778, Note_on_c, 0, 64, 79
1, 215782, Note_off_c, 0, 73, 41
1, 215789, Control_c, 0, 64, 41
1, 215804, Control_c, 0, 64, 0
1, 215908, Note_off_c, 0, 68, 55
1, 215915, Control_c, 0, 64, 40
1, 215930, Control_c, 0, 64, 54
1, 215931, Note_on_c, 0, 72, 68
1, 215932, Note_off_c, 0, 64, 63
1, 215939, Note_on_c, 0, 67, 57
1, 215945, Control_c, 0, 64, 62
1, 215953, Note_off_c, 0, 72, 68
1, 215960, Control_c, 0, 64, 66
1, 215961, Note_off_c, 0, 67, 60
1, 215974, Control_c, 0, 64, 68
1, 215987, Note_on_c, 0, 52, 60
1, 215989, Control_c, 0, 64, 67
1, 216004, Control_c, 0, 64, 56
1, 216020, Control_c, 0, 64, 0
1, 216035, Control_c, 0, 67, 36
1, 216050, Control_c, 0, 67, 60
1, 216064, Control_c, 0, 67, 101
1, 216079, Control_c, 0, 67, 127
1, 216167, Note_on_c, 0, 45, 44
1, 216198, Note_on_c, 0, 60, 71
1, 216216, Note_on_c, 0, 55, 53
1, 216250, Note_off_c, 0, 45, 59
1, 216257, Control_c, 0, 64, 31
1, 216268, Note_on_c, 0, 39, 51
1, 216272, Control_c, 0, 64, 45
1, 216286, Control_c, 0, 64, 59
1, 216301, Control_c, 0, 64, 66
1, 216316, Control_c, 0, 64, 69
1, 216331, Control_c, 0, 64, 72
1, 216337, Note_off_c, 0, 60, 58
1, 216346, Control_c, 0, 64, 74
1, 216361, Control_c, 0, 64, 78
1, 216376, Note_off_c, 0, 39, 56
1, 216376, Control_c, 0, 64, 82
1, 216384, Note_on_c, 0, 45, 57
1, 216390, Control_c, 0, 64, 86
1, 216405, Control_c, 0, 64, 90
1, 216420, Control_c, 0, 64, 92
1, 216435, Control_c, 0, 64, 95
1, 216445, Note_on_c, 0, 60, 74
1, 216450, Control_c, 0, 64, 98
1, 216464, Control_c, 0, 64, 104
1, 216471, Note_off_c, 0, 60, 68
1, 216479, Control_c, 0, 64, 110
1, 216479, Control_c, 0, 67, 111
1, 216494, Control_c, 0, 64, 117
1, 216494, Control_c, 0, 67, 76
1, 216508, Control_c, 0, 64, 122
1, 216508, Control_c, 0, 67, 0
1, 216523, Control_c, 0, 64, 124
1, 216538, Control_c, 0, 64, 127
1, 216546, Note_off_c, 0, 45, 62
1, 216558, Note_on_c, 0, 39, 57
1, 216590, Note_on_c, 0, 60, 71
1, 216613, Note_off_c, 0, 60, 70
1, 216640, Note_off_c, 0, 39, 60
1, 216653, Note_on_c, 0, 45, 60
1, 216674, Note_on_c, 0, 60, 85
1, 216696, Note_off_c, 0, 60, 71
1, 216775, Note_on_c, 0, 39, 63
1, 216779, Note_off_c, 0, 45, 61
1, 216784, Note_on_c, 0, 60, 72
1, 216811, Note_off_c, 0, 60, 65
1, 216857, Note_on_c, 0, 60, 93
1, 216897, Note_off_c, 0, 60, 56
1, 216902, Control_c, 0, 64, 92
1, 216912, Note_on_c, 0, 57, 85
1, 216917, Note_off_c, 0, 39, 61
1, 216917, Control_c, 0, 64, 57
1, 216927, Note_on_c, 0, 45, 53
1, 216932, Control_c, 0, 64, 0
1, 216963, Note_off_c, 0, 57, 64
1, 216964, Note_on_c, 0, 61, 75
1, 217013, Note_off_c, 0, 61, 57
1, 217014, Note_off_c, 0, 45, 63
1, 217033, Note_on_c, 0, 60, 77
1, 217043, Note_on_c, 0, 39, 59
1, 217088, Note_off_c, 0, 52, 0
1, 217088, Note_on_c, 0, 52, 14
1, 217138, Note_off_c, 0, 39, 60
1, 217144, Note_off_c, 0, 55, 63
1, 217154, Control_c, 0, 64, 48
1, 217159, Note_on_c, 0, 45, 51
1, 217169, Control_c, 0, 64, 75
1, 217170, Note_off_c, 0, 60, 66
1, 217184, Control_c, 0, 64, 92
1, 217199, Control_c, 0, 64, 127
1, 217247, Note_on_c, 0, 39, 85
1, 217261, Note_off_c, 0, 45, 62
1, 217282, Note_off_c, 0, 39, 64
1, 217288, Note_off_c, 0, 52, 52
1, 217354, Note_on_c, 0, 72, 80
1, 217369, Note_on_c, 0, 67, 73
1, 217398, Note_on_c, 0, 57, 77
1, 217419, Note_on_c, 0, 51, 53
1, 217426, Note_off_c, 0, 67, 61
1, 217428, Note_off_c, 0, 57, 64
1, 217434, Note_on_c, 0, 73, 78
1, 217447, Note_off_c, 0, 51, 59
1, 217454, Note_on_c, 0, 56, 77
1, 217454, Note_off_c, 0, 72, 60
1, 217477, Note_off_c, 0, 56, 69
1, 217490, Note_on_c, 0, 74, 86
1, 217493, Note_on_c, 0, 66, 75
1, 217509, Note_off_c, 0, 66, 68
1, 217512, Note_off_c, 0, 73, 62
1, 217521, Note_off_c, 0, 74, 63
1, 217597, Note_on_c, 0, 75, 91
1, 217611, Note_on_c, 0, 63, 77
1, 217622, Control_c, 0, 64, 92
1, 217634, Note_off_c, 0, 63, 70
1, 217635, Note_on_c, 0, 57, 66
1, 217636, Control_c, 0, 64, 55
1, 217647, Note_on_c, 0, 78, 82
1, 217649, Note_off_c, 0, 75, 64
1, 217651, Control_c, 0, 64, 0
1, 217675, Note_off_c, 0, 57, 60
1, 217705, Note_on_c, 0, 73, 72
1, 217705, Note_off_c, 0, 78, 64
1, 217706, Note_on_c, 0, 47, 71
1, 217736, Note_off_c, 0, 47, 65
1, 217744, Note_off_c, 0, 73, 60
1, 217772, Note_on_c, 0, 80, 79
1, 217775, Note_on_c, 0, 69, 56
1, 217932, Control_c, 0, 64, 35
1, 217947, Control_c, 0, 64, 46
1, 217956, Note_on_c, 0, 73, 59
1, 217957, Note_off_c, 0, 69, 48
1, 217962, Control_c, 0, 64, 58
1, 217977, Control_c, 0, 64, 66
1, 217983, Note_off_c, 0, 80, 59
1, 217992, Control_c, 0, 64, 72
1, 218006, Control_c, 0, 64, 79
1, 218012, Note_off_c, 0, 73, 61
1, 218021, Control_c, 0, 64, 84
1, 218031, Note_on_c, 0, 63, 62
1, 218032, Note_on_c, 0, 48, 47
1, 218035, Note_on_c, 0, 53, 53
1, 218036, Control_c, 0, 64, 90
1, 218051, Control_c, 0, 64, 96
1, 218065, Note_off_c, 0, 48, 55
1, 218066, Control_c, 0, 64, 102
1, 218069, Note_off_c, 0, 53, 63
1, 218079, Note_off_c, 0, 63, 47
1, 218080, Control_c, 0, 64, 109
1, 218095, Control_c, 0, 64, 120
1, 218110, Control_c, 0, 64, 127
1, 218120, Note_on_c, 0, 73, 65
1, 218126, Note_on_c, 0, 69, 48
1, 218158, Note_on_c, 0, 78, 87
1, 218165, Note_off_c, 0, 73, 60
1, 218275, Note_off_c, 0, 78, 57
1, 218276, Note_on_c, 0, 73, 71
1, 218294, Note_off_c, 0, 69, 26
1, 218330, Note_off_c, 0, 73, 63
1, 218331, Note_on_c, 0, 77, 79
1, 218349, Note_on_c, 0, 76, 83
1, 218355, Control_c, 0, 64, 78
1, 218369, Control_c, 0, 64, 41
1, 218370, Note_on_c, 0, 64, 86
1, 218370, Note_on_c, 0, 57, 77
1, 218377, Note_off_c, 0, 77, 66
1, 218382, Note_on_c, 0, 51, 62
1, 218384, Control_c, 0, 64, 0
1, 218391, Note_off_c, 0, 64, 72
1, 218398, Note_off_c, 0, 57, 69
1, 218399, Control_c, 0, 64, 37
1, 218411, Note_off_c, 0, 51, 57
1, 218415, Control_c, 0, 64, 74
1, 218430, Control_c, 0, 64, 127
1, 218515, Note_on_c, 0, 73, 75
1, 218561, Note_on_c, 0, 69, 81
1, 218567, Note_off_c, 0, 73, 61
1, 218679, Note_off_c, 0, 69, 52
1, 218690, Note_on_c, 0, 72, 83
1, 218709, Control_c, 0, 64, 67
1, 218724, Control_c, 0, 64, 0
1, 218743, Note_off_c, 0, 72, 63
1, 218747, Note_on_c, 0, 67, 106
1, 218749, Note_on_c, 0, 60, 88
1, 218755, Note_on_c, 0, 54, 87
1, 218774, Note_off_c, 0, 67, 69
1, 218777, Note_off_c, 0, 54, 70
1, 218780, Note_off_c, 0, 60, 68
1, 218783, Control_c, 0, 64, 46
1, 218798, Control_c, 0, 64, 83
1, 218813, Control_c, 0, 64, 127
1, 218871, Note_on_c, 0, 71, 78
1, 218922, Note_off_c, 0, 71, 61
1, 218939, Note_on_c, 0, 67, 84
1, 218948, Note_off_c, 0, 76, 54
1, 219030, Note_on_c, 0, 75, 96
1, 219032, Note_off_c, 0, 67, 57
1, 219032, Note_on_c, 0, 70, 94
1, 219048, Note_off_c, 0, 70, 75
1, 219053, Note_off_c, 0, 75, 67
1, 219143, Note_on_c, 0, 55, 70
1, 219146, Control_c, 0, 64, 69
1, 219161, Control_c, 0, 64, 0
1, 219190, Control_c, 0, 67, 71
1, 219206, Control_c, 0, 67, 127
1, 219319, Note_on_c, 0, 48, 52
1, 219360, Note_on_c, 0, 63, 70
1, 219379, Note_on_c, 0, 58, 52
1, 219395, Note_off_c, 0, 48, 52
1, 219431, Note_on_c, 0, 42, 52
1, 219458, Control_c, 0, 64, 41
1, 219473, Control_c, 0, 64, 52
1, 219488, Control_c, 0, 64, 62
1, 219503, Control_c, 0, 64, 67
1, 219514, Note_off_c, 0, 63, 63
1, 219518, Control_c, 0, 64, 73
1, 219531, Note_off_c, 0, 42, 50
1, 219532, Control_c, 0, 64, 79
1, 219547, Note_on_c, 0, 48, 55
1, 219547, Control_c, 0, 64, 85
1, 219562, Control_c, 0, 64, 92
1, 219577, Control_c, 0, 64, 101
1, 219592, Control_c, 0, 64, 117
1, 219606, Control_c, 0, 64, 127
1, 219609, Note_on_c, 0, 63, 80
1, 219621, Control_c, 0, 67, 106
1, 219637, Note_off_c, 0, 63, 72
1, 219643, Control_c, 0, 67, 45
1, 219658, Control_c, 0, 67, 0
1, 219724, Note_off_c, 0, 48, 61
1, 219735, Note_on_c, 0, 42, 66
1, 219756, Note_on_c, 0, 63, 80
1, 219781, Note_off_c, 0, 63, 67
1, 219807, Note_off_c, 0, 42, 61
1, 219822, Note_on_c, 0, 63, 98
1, 219837, Note_on_c, 0, 48, 64
1, 219853, Note_off_c, 0, 63, 55
1, 219933, Note_on_c, 0, 63, 83
1, 219943, Note_on_c, 0, 42, 66
1, 219951, Note_off_c, 0, 48, 55
1, 219962, Note_off_c, 0, 63, 67
1, 220003, Note_on_c, 0, 63, 96
1, 220030, Control_c, 0, 64, 68
1, 220045, Note_off_c, 0, 63, 60
1, 220045, Control_c, 0, 64, 0
1, 220060, Note_on_c, 0, 60, 81
1, 220105, Note_off_c, 0, 42, 62
1, 220114, Note_on_c, 0, 48, 60
1, 220114, Note_off_c, 0, 60, 65
1, 220115, Note_on_c, 0, 64, 60
1, 220147, Note_off_c, 0, 64, 65
1, 220180, Note_on_c, 0, 63, 76
1, 220203, Note_off_c, 0, 48, 58
1, 220221, Note_on_c, 0, 42, 59
1, 220264, Note_off_c, 0, 58, 64
1, 220267, Control_c, 0, 64, 56
1, 220281, Control_c, 0, 64, 73
1, 220295, Note_off_c, 0, 63, 65
1, 220296, Control_c, 0, 64, 86
1, 220306, Note_off_c, 0, 42, 59
1, 220311, Control_c, 0, 64, 104
1, 220326, Note_on_c, 0, 48, 69
1, 220326, Control_c, 0, 64, 127
1, 220406, Note_on_c, 0, 42, 85
1, 220415, Note_off_c, 0, 48, 64
1, 220426, Note_off_c, 0, 55, 61
1, 220430, Note_off_c, 0, 42, 68
1, 220492, Note_on_c, 0, 75, 83
1, 220496, Note_on_c, 0, 70, 74
1, 220538, Note_off_c, 0, 70, 61
1, 220549, Note_on_c, 0, 60, 79
1, 220570, Note_on_c, 0, 76, 76
1, 220583, Note_on_c, 0, 69, 53
1, 220587, Note_off_c, 0, 60, 59
1, 220594, Note_off_c, 0, 75, 59
1, 220622, Note_on_c, 0, 77, 91
1, 220625, Note_on_c, 0, 59, 60
1, 220639, Note_off_c, 0, 69, 65
1, 220645, Note_off_c, 0, 59, 64
1, 220647, Note_off_c, 0, 76, 66
1, 220665, Note_off_c, 0, 77, 66
1, 220668, Note_on_c, 0, 50, 76
1, 220712, Note_off_c, 0, 50, 62
1, 220720, Note_on_c, 0, 60, 76
1, 220752, Note_off_c, 0, 60, 65
1, 220767, Note_on_c, 0, 66, 103
1, 220793, Note_on_c, 0, 76, 100
1, 220805, Note_off_c, 0, 66, 66
1, 220809, Control_c, 0, 64, 95
1, 220823, Control_c, 0, 64, 58
1, 220838, Control_c, 0, 64, 0
1, 220866, Note_on_c, 0, 83, 113
1, 220866, Note_off_c, 0, 76, 68
1, 221060, Control_c, 0, 64, 41
1, 221075, Control_c, 0, 64, 73
1, 221083, Note_on_c, 0, 72, 55
1, 221090, Control_c, 0, 64, 91
1, 221104, Control_c, 0, 64, 127
1, 221141, Note_off_c, 0, 72, 60
1, 221147, Note_on_c, 0, 66, 62
1, 221175, Note_off_c, 0, 66, 65
1, 221182, Note_off_c, 0, 83, 55
1, 221200, Note_on_c, 0, 78, 68
1, 221253, Note_on_c, 0, 76, 77
1, 221288, Note_off_c, 0, 78, 59
1, 221301, Note_on_c, 0, 71, 82
1, 221304, Note_off_c, 0, 76, 65
1, 221355, Note_on_c, 0, 72, 82
1, 221374, Note_off_c, 0, 71, 60
1, 221375, Note_off_c, 0, 72, 69
1, 221437, Control_c, 0, 64, 74
1, 221452, Control_c, 0, 64, 0
1, 221459, Note_on_c, 0, 66, 105
1, 221468, Poly_aftertouch_c, 0, 46, 0
1, 221477, Note_on_c, 0, 47, 75
1, 221479, Note_on_c, 0, 54, 70
1, 221497, Control_c, 0, 64, 40
1, 221512, Control_c, 0, 64, 70
1, 221522, Note_on_c, 0, 41, 79
1, 221527, Control_c, 0, 64, 127
1, 221540, Note_off_c, 0, 47, 64
1, 221541, Note_off_c, 0, 54, 62
1, 221548, Note_off_c, 0, 41, 67
1, 221620, Note_off_c, 0, 66, 62
1, 221622, Note_on_c, 0, 75, 79
1, 221671, Note_on_c, 0, 62, 51
1, 221675, Note_on_c, 0, 71, 82
1, 221676, Note_off_c, 0, 75, 65
1, 221728, Note_off_c, 0, 62, 39
1, 221795, Note_on_c, 0, 74, 73
1, 221824, Control_c, 0, 64, 76
1, 221839, Control_c, 0, 64, 40
1, 221849, Note_off_c, 0, 74, 63
1, 221850, Note_on_c, 0, 65, 72
1, 221853, Control_c, 0, 64, 0
1, 221857, Note_on_c, 0, 57, 42
1, 221858, Note_on_c, 0, 50, 48
1, 221885, Note_off_c, 0, 71, 36
1, 221891, Note_on_c, 0, 44, 63
1, 221920, Control_c, 0, 64, 48
1, 221923, Note_off_c, 0, 50, 62
1, 221930, Note_off_c, 0, 44, 66
1, 221932, Note_off_c, 0, 65, 60
1, 221935, Control_c, 0, 64, 63
1, 221945, Note_off_c, 0, 57, 63
1, 221950, Control_c, 0, 64, 72
1, 221965, Control_c, 0, 64, 82
1, 221980, Control_c, 0, 64, 89
1, 221986, Note_on_c, 0, 62, 54
1, 221995, Control_c, 0, 64, 92
1, 222009, Control_c, 0, 64, 95
1, 222022, Note_on_c, 0, 73, 63
1, 222024, Control_c, 0, 64, 98
1, 222035, Note_off_c, 0, 62, 56
1, 222039, Control_c, 0, 64, 101
1, 222053, Control_c, 0, 64, 106
1, 222065, Note_on_c, 0, 69, 81
1, 222068, Control_c, 0, 64, 112
1, 222071, Note_off_c, 0, 73, 64
1, 222083, Control_c, 0, 64, 127
1, 222105, Note_on_c, 0, 72, 36
1, 222114, Note_on_c, 0, 50, 63
1, 222123, Note_off_c, 0, 69, 65
1, 222147, Note_off_c, 0, 72, 65
1, 222180, Note_on_c, 0, 60, 67
1, 222193, Note_on_c, 0, 59, 50
1, 222195, Note_off_c, 0, 50, 60
1, 222218, Note_off_c, 0, 59, 57
1, 222227, Note_off_c, 0, 60, 64
1, 222242, Note_on_c, 0, 66, 99
1, 222280, Note_off_c, 0, 66, 66
1, 222297, Note_on_c, 0, 76, 100
1, 222344, Note_on_c, 0, 83, 105
1, 222356, Note_off_c, 0, 76, 64
1, 222394, Control_c, 0, 64, 74
1, 222410, Control_c, 0, 64, 0
1, 222507, Note_on_c, 0, 72, 79
1, 222555, Note_on_c, 0, 66, 89
1, 222558, Control_c, 0, 64, 79
1, 222558, Note_off_c, 0, 72, 62
1, 222573, Control_c, 0, 64, 127
1, 222574, Note_off_c, 0, 66, 74
1, 222631, Note_off_c, 0, 83, 43
1, 222637, Note_on_c, 0, 78, 82
1, 222685, Note_on_c, 0, 76, 86
1, 222721, Note_off_c, 0, 78, 59
1, 222729, Note_on_c, 0, 71, 81
1, 222738, Note_off_c, 0, 76, 66
1, 222781, Note_on_c, 0, 72, 85
1, 222798, Note_off_c, 0, 71, 63
1, 222808, Note_off_c, 0, 72, 65
1, 222876, Control_c, 0, 64, 74
1, 222891, Control_c, 0, 64, 0
1, 222894, Note_on_c, 0, 54, 64
1, 222900, Note_on_c, 0, 66, 96
1, 222902, Note_on_c, 0, 47, 72
1, 222936, Control_c, 0, 64, 32
1, 222944, Note_on_c, 0, 41, 62
1, 222950, Control_c, 0, 64, 58
1, 222952, Note_off_c, 0, 54, 63
1, 222957, Note_off_c, 0, 47, 62
1, 222965, Control_c, 0, 64, 73
1, 222973, Note_off_c, 0, 41, 56
1, 222980, Control_c, 0, 64, 90
1, 222995, Control_c, 0, 64, 120
1, 223010, Control_c, 0, 64, 127
1, 223037, Note_on_c, 0, 68, 2
1, 223050, Note_on_c, 0, 75, 71
1, 223050, Note_off_c, 0, 66, 59
1, 223075, Note_off_c, 0, 68, 50
1, 223107, Note_on_c, 0, 71, 81
1, 223107, Note_off_c, 0, 75, 65
1, 223115, Note_on_c, 0, 62, 47
1, 223230, Note_on_c, 0, 74, 70
1, 223233, Note_off_c, 0, 62, 41
1, 223247, Control_c, 0, 64, 122
1, 223262, Control_c, 0, 64, 84
1, 223271, Note_on_c, 0, 50, 58
1, 223277, Control_c, 0, 64, 63
1, 223283, Note_on_c, 0, 65, 74
1, 223283, Note_off_c, 0, 71, 44
1, 223289, Note_on_c, 0, 57, 38
1, 223292, Control_c, 0, 64, 41
1, 223293, Note_off_c, 0, 74, 63
1, 223304, Note_on_c, 0, 44, 67
1, 223307, Control_c, 0, 64, 42
1, 223308, Note_off_c, 0, 50, 65
1, 223321, Note_off_c, 0, 57, 51
1, 223321, Control_c, 0, 64, 57
1, 223336, Control_c, 0, 64, 69
1, 223341, Note_off_c, 0, 65, 62
1, 223351, Control_c, 0, 64, 85
1, 223355, Note_off_c, 0, 44, 57
1, 223366, Control_c, 0, 64, 127
1, 223412, Note_on_c, 0, 73, 74
1, 223420, Note_on_c, 0, 62, 58
1, 223461, Note_on_c, 0, 69, 79
1, 223465, Note_off_c, 0, 73, 61
1, 223482, Note_off_c, 0, 62, 61
1, 223539, Note_off_c, 0, 69, 59
1, 223550, Note_on_c, 0, 72, 85
1, 223581, Control_c, 0, 64, 97
1, 223591, Note_off_c, 0, 72, 64
1, 223596, Control_c, 0, 64, 59
1, 223611, Control_c, 0, 64, 0
1, 223618, Note_on_c, 0, 50, 77
1, 223619, Note_on_c, 0, 69, 103
1, 223621, Note_on_c, 0, 57, 93
1, 223650, Note_on_c, 0, 44, 86
1, 223655, Control_c, 0, 64, 66
1, 223661, Note_off_c, 0, 57, 65
1, 223664, Note_off_c, 0, 50, 65
1, 223670, Control_c, 0, 64, 127
1, 223677, Note_off_c, 0, 44, 70
1, 223691, Note_off_c, 0, 69, 59
1, 223743, Note_on_c, 0, 78, 89
1, 223753, Note_on_c, 0, 65, 69
1, 223801, Note_on_c, 0, 74, 83
1, 223811, Note_off_c, 0, 78, 55
1, 223865, Note_off_c, 0, 65, 59
1, 223910, Note_on_c, 0, 77, 85
1, 223911, Note_off_c, 0, 74, 55
1, 223936, Control_c, 0, 64, 115
1, 223951, Control_c, 0, 64, 66
1, 223955, Note_on_c, 0, 68, 75
1, 223961, Note_on_c, 0, 60, 73
1, 223962, Note_on_c, 0, 53, 63
1, 223966, Control_c, 0, 64, 0
1, 223980, Note_off_c, 0, 77, 57
1, 223986, Note_on_c, 0, 47, 70
1, 223988, Note_off_c, 0, 60, 67
1, 224003, Note_off_c, 0, 53, 63
1, 224011, Control_c, 0, 64, 60
1, 224016, Note_off_c, 0, 47, 66
1, 224024, Note_on_c, 0, 54, 15
1, 224024, Note_off_c, 0, 54, 127
1, 224026, Control_c, 0, 64, 80
1, 224038, Note_off_c, 0, 68, 62
1, 224041, Control_c, 0, 64, 127
1, 224069, Note_on_c, 0, 65, 68
1, 224069, Note_on_c, 0, 76, 82
1, 224109, Note_off_c, 0, 65, 48
1, 224124, Note_on_c, 0, 72, 81
1, 224125, Note_off_c, 0, 76, 65
1, 224207, Note_on_c, 0, 75, 90
1, 224213, Note_off_c, 0, 72, 65
1, 224245, Note_off_c, 0, 75, 70
1, 224255, Control_c, 0, 64, 85
1, 224270, Control_c, 0, 64, 51
1, 224272, Note_on_c, 0, 72, 88
1, 224281, Note_on_c, 0, 53, 80
1, 224282, Note_on_c, 0, 60, 84
1, 224285, Control_c, 0, 64, 0
1, 224299, Note_on_c, 0, 47, 83
1, 224300, Control_c, 0, 64, 46
1, 224305, Note_off_c, 0, 72, 68
1, 224312, Note_off_c, 0, 60, 68
1, 224315, Control_c, 0, 64, 69
1, 224319, Note_off_c, 0, 53, 64
1, 224329, Note_off_c, 0, 47, 62
1, 224329, Control_c, 0, 64, 127
1, 224368, Note_on_c, 0, 79, 87
1, 224380, Note_on_c, 0, 68, 71
1, 224402, Note_off_c, 0, 68, 70
1, 224418, Note_on_c, 0, 77, 81
1, 224433, Note_off_c, 0, 79, 63
1, 224438, Note_off_c, 0, 77, 72
1, 224508, Note_on_c, 0, 80, 79
1, 224537, Note_on_c, 0, 81, 51
1, 224538, Note_on_c, 0, 75, 36
1, 224538, Note_off_c, 0, 75, 127
1, 224550, Note_off_c, 0, 80, 55
1, 224558, Note_on_c, 0, 68, 19
1, 224558, Note_off_c, 0, 68, 127
1, 224561, Note_off_c, 0, 81, 39
1, 224567, Control_c, 0, 64, 124
1, 224579, Note_on_c, 0, 75, 90
1, 224582, Control_c, 0, 64, 64
1, 224585, Note_on_c, 0, 68, 18
1, 224589, Note_on_c, 0, 63, 106
1, 224591, Note_on_c, 0, 50, 75
1, 224594, Note_on_c, 0, 56, 93
1, 224596, Control_c, 0, 64, 0
1, 224625, Note_off_c, 0, 75, 67
1, 224626, Control_c, 0, 64, 41
1, 224629, Note_off_c, 0, 68, 62
1, 224641, Control_c, 0, 64, 127
1, 224706, Note_on_c, 0, 71, 96
1, 224726, Note_off_c, 0, 71, 65
1, 224755, Note_off_c, 0, 63, 59
1, 224766, Note_off_c, 0, 56, 60
1, 224778, Note_on_c, 0, 71, 96
1, 224781, Note_off_c, 0, 50, 61
1, 224812, Note_off_c, 0, 71, 67
1, 224859, Note_on_c, 0, 71, 99
1, 224895, Note_off_c, 0, 71, 67
1, 224931, Control_c, 0, 64, 75
1, 224946, Control_c, 0, 64, 37
1, 224952, Note_on_c, 0, 53, 77
1, 224955, Note_on_c, 0, 60, 79
1, 224956, Note_on_c, 0, 72, 102
1, 224960, Control_c, 0, 64, 0
1, 224975, Control_c, 0, 64, 35
1, 224990, Note_off_c, 0, 60, 64
1, 224990, Control_c, 0, 64, 58
1, 224995, Note_off_c, 0, 72, 63
1, 225005, Control_c, 0, 64, 80
1, 225009, Note_off_c, 0, 53, 63
1, 225020, Control_c, 0, 64, 127
1, 225024, Note_on_c, 0, 47, 47
1, 225052, Note_off_c, 0, 47, 54
1, 225056, Note_on_c, 0, 81, 90
1, 225092, Note_off_c, 0, 81, 69
1, 225127, Note_on_c, 0, 77, 80
1, 225145, Note_on_c, 0, 78, 73
1, 225149, Note_on_c, 0, 75, 58
1, 225149, Note_off_c, 0, 75, 127
1, 225161, Note_off_c, 0, 78, 62
1, 225168, Note_off_c, 0, 77, 62
1, 225175, Note_on_c, 0, 76, 26
1, 225212, Note_off_c, 0, 76, 47
1, 225214, Note_on_c, 0, 80, 95
1, 225247, Note_on_c, 0, 68, 49
1, 225255, Note_on_c, 0, 75, 78
1, 225266, Note_off_c, 0, 80, 64
1, 225271, Control_c, 0, 64, 68
1, 225280, Note_on_c, 0, 63, 94
1, 225281, Note_on_c, 0, 79, 67
1, 225283, Note_on_c, 0, 50, 69
1, 225284, Note_on_c, 0, 56, 75
1, 225286, Control_c, 0, 64, 0
1, 225300, Note_off_c, 0, 75, 49
1, 225304, Note_on_c, 0, 74, 50
1, 225307, Note_off_c, 0, 79, 63
1, 225325, Note_off_c, 0, 68, 64
1, 225326, Note_off_c, 0, 74, 57
1, 225345, Control_c, 0, 64, 49
1, 225360, Control_c, 0, 64, 68
1, 225375, Control_c, 0, 64, 87
1, 225390, Control_c, 0, 64, 127
1, 225392, Note_on_c, 0, 71, 92
1, 225414, Note_off_c, 0, 71, 64
1, 225465, Note_on_c, 0, 71, 83
1, 225497, Note_off_c, 0, 71, 60
1, 225536, Note_off_c, 0, 63, 54
1, 225551, Note_on_c, 0, 71, 84
1, 225571, Note_off_c, 0, 71, 71
1, 225576, Note_off_c, 0, 50, 55
1, 225583, Note_off_c, 0, 56, 59
1, 225647, Note_on_c, 0, 71, 82
1, 225679, Control_c, 0, 64, 87
1, 225694, Control_c, 0, 64, 52
1, 225699, Note_off_c, 0, 71, 63
1, 225709, Note_on_c, 0, 68, 66
1, 225709, Control_c, 0, 64, 0
1, 225742, Note_on_c, 0, 72, 73
1, 225745, Note_off_c, 0, 68, 65
1, 225801, Note_off_c, 0, 72, 60
1, 225813, Note_on_c, 0, 71, 72
1, 225828, Note_on_c, 0, 63, 59
1, 225840, Note_on_c, 0, 56, 48
1, 225850, Note_on_c, 0, 50, 35
1, 225887, Control_c, 0, 64, 37
1, 225901, Note_off_c, 0, 50, 57
1, 225901, Control_c, 0, 64, 49
1, 225909, Note_off_c, 0, 63, 62
1, 225916, Control_c, 0, 64, 58
1, 225931, Control_c, 0, 64, 61
1, 225941, Note_off_c, 0, 56, 58
1, 225946, Control_c, 0, 64, 63
1, 225961, Control_c, 0, 64, 65
1, 225975, Control_c, 0, 64, 67
1, 225990, Control_c, 0, 64, 69
1, 226005, Control_c, 0, 64, 73
1, 226019, Control_c, 0, 64, 79
1, 226034, Control_c, 0, 64, 87
1, 226049, Note_on_c, 0, 64, 74
1, 226049, Control_c, 0, 64, 93
1, 226064, Control_c, 0, 64, 97
1, 226109, Control_c, 0, 64, 91
1, 226123, Control_c, 0, 64, 77
1, 226138, Control_c, 0, 64, 64
1, 226153, Control_c, 0, 64, 45
1, 226168, Control_c, 0, 64, 34
1, 226183, Control_c, 0, 64, 36
1, 226198, Control_c, 0, 64, 47
1, 226203, Note_off_c, 0, 64, 57
1, 226213, Control_c, 0, 64, 58
1, 226227, Control_c, 0, 64, 64
1, 226242, Control_c, 0, 64, 66
1, 226257, Control_c, 0, 64, 66
1, 226272, Control_c, 0, 64, 67
1, 226273, Note_off_c, 0, 71, 54
1, 226279, Note_on_c, 0, 65, 60
1, 226283, Note_on_c, 0, 55, 41
1, 226287, Control_c, 0, 64, 68
1, 226301, Control_c, 0, 64, 70
1, 226311, Note_on_c, 0, 50, 14
1, 226316, Control_c, 0, 64, 72
1, 226324, Note_off_c, 0, 65, 60
1, 226331, Control_c, 0, 64, 73
1, 226346, Control_c, 0, 64, 74
1, 226362, Note_off_c, 0, 50, 47
1, 226472, Control_c, 0, 64, 74
1, 226487, Control_c, 0, 64, 76
1, 226492, Note_off_c, 0, 55, 31
1, 226502, Control_c, 0, 64, 79
1, 226517, Control_c, 0, 64, 82
1, 226532, Control_c, 0, 64, 83
1, 226547, Control_c, 0, 64, 83
1, 226562, Control_c, 0, 64, 79
1, 226577, Control_c, 0, 64, 67
1, 226591, Control_c, 0, 64, 42
1, 226606, Control_c, 0, 64, 0
1, 227325, Control_c, 0, 67, 36
1, 227340, Control_c, 0, 67, 42
1, 227355, Control_c, 0, 67, 51
1, 227369, Control_c, 0, 67, 63
1, 227384, Control_c, 0, 67, 79
1, 227399, Control_c, 0, 67, 96
1, 227403, Note_on_c, 0, 75, 56
1, 227414, Control_c, 0, 67, 120
1, 227429, Control_c, 0, 67, 127
1, 227444, Note_on_c, 0, 71, 50
1, 227459, Note_off_c, 0, 75, 51
1, 227463, Note_on_c, 0, 55, 38
1, 227465, Note_on_c, 0, 65, 32
1, 227473, Note_on_c, 0, 50, 24
1, 227695, Note_on_c, 0, 74, 64
1, 227709, Note_off_c, 0, 71, 61
1, 227714, Note_off_c, 0, 65, 53
1, 227724, Note_off_c, 0, 74, 68
1, 227746, Note_off_c, 0, 50, 46
1, 227764, Note_on_c, 0, 59, 47
1, 227766, Note_on_c, 0, 49, 40
1, 227790, Note_off_c, 0, 55, 40
1, 227957, Note_on_c, 0, 73, 62
1, 227989, Note_off_c, 0, 49, 56
1, 227992, Note_off_c, 0, 73, 60
1, 228004, Note_on_c, 0, 69, 62
1, 228007, Note_off_c, 0, 59, 55
1, 228020, Note_on_c, 0, 55, 38
1, 228039, Note_on_c, 0, 65, 32
1, 228049, Note_on_c, 0, 50, 21
1, 228198, Note_on_c, 0, 72, 48
1, 228198, Note_off_c, 0, 69, 62
1, 228202, Note_off_c, 0, 65, 48
1, 228221, Note_off_c, 0, 72, 57
1, 228231, Note_off_c, 0, 50, 52
1, 228238, Note_off_c, 0, 55, 58
1, 228246, Note_on_c, 0, 59, 48
1, 228249, Note_on_c, 0, 49, 40
1, 228392, Note_on_c, 0, 75, 64
1, 228417, Note_off_c, 0, 49, 58
1, 228423, Note_off_c, 0, 75, 60
1, 228428, Note_on_c, 0, 71, 61
1, 228431, Note_on_c, 0, 65, 41
1, 228437, Note_off_c, 0, 59, 53
1, 228454, Note_on_c, 0, 55, 44
1, 228459, Note_on_c, 0, 50, 33
1, 228604, Note_off_c, 0, 71, 62
1, 228606, Note_on_c, 0, 74, 57
1, 228608, Note_off_c, 0, 65, 51
1, 228637, Note_off_c, 0, 74, 64
1, 228639, Note_off_c, 0, 50, 48
1, 228648, Note_off_c, 0, 55, 60
1, 228661, Note_on_c, 0, 49, 41
1, 228663, Note_on_c, 0, 59, 56
1, 228796, Note_on_c, 0, 73, 64
1, 228836, Note_off_c, 0, 49, 40
1, 228836, Note_off_c, 0, 59, 62
1, 228836, Note_on_c, 0, 65, 41
1, 228837, Note_off_c, 0, 73, 51
1, 228840, Note_on_c, 0, 50, 43
1, 228843, Note_on_c, 0, 55, 52
1, 228850, Note_on_c, 0, 69, 59
1, 228852, Control_c, 0, 64, 31
1, 228867, Control_c, 0, 64, 45
1, 228869, Note_off_c, 0, 55, 56
1, 228871, Note_off_c, 0, 50, 50
1, 228882, Control_c, 0, 64, 57
1, 228897, Control_c, 0, 64, 63
1, 228902, Note_off_c, 0, 65, 60
1, 228912, Control_c, 0, 64, 65
1, 228926, Control_c, 0, 64, 67
1, 228941, Control_c, 0, 64, 69
1, 228955, Note_off_c, 0, 69, 63
1, 228956, Control_c, 0, 64, 70
1, 228958, Note_on_c, 0, 72, 55
1, 228964, Note_on_c, 0, 49, 60
1, 228971, Control_c, 0, 64, 71
1, 228979, Note_off_c, 0, 72, 59
1, 228986, Control_c, 0, 64, 73
1, 228986, Control_c, 0, 67, 113
1, 229000, Control_c, 0, 64, 76
1, 229000, Control_c, 0, 67, 66
1, 229015, Control_c, 0, 64, 83
1, 229015, Control_c, 0, 67, 0
1, 229016, Note_on_c, 0, 59, 59
1, 229027, Note_off_c, 0, 49, 63
1, 229030, Control_c, 0, 64, 85
1, 229045, Control_c, 0, 64, 84
1, 229060, Control_c, 0, 64, 70
1, 229066, Note_on_c, 0, 65, 74
1, 229075, Control_c, 0, 64, 35
1, 229083, Note_off_c, 0, 59, 60
1, 229083, Note_off_c, 0, 65, 67
1, 229089, Control_c, 0, 64, 0
1, 229096, Note_on_c, 0, 79, 66
1, 229127, Note_off_c, 0, 79, 62
1, 229199, Note_on_c, 0, 80, 80
1, 229216, Note_on_c, 0, 71, 56
1, 229226, Note_on_c, 0, 55, 43
1, 229234, Note_on_c, 0, 50, 45
1, 229268, Note_off_c, 0, 50, 53
1, 229269, Note_off_c, 0, 55, 54
1, 229352, Note_on_c, 0, 49, 61
1, 229378, Control_c, 0, 64, 33
1, 229389, Note_on_c, 0, 74, 57
1, 229390, Note_off_c, 0, 49, 65
1, 229393, Control_c, 0, 64, 48
1, 229405, Note_on_c, 0, 59, 44
1, 229408, Note_off_c, 0, 71, 43
1, 229408, Control_c, 0, 64, 58
1, 229423, Control_c, 0, 64, 65
1, 229426, Note_off_c, 0, 74, 61
1, 229435, Note_on_c, 0, 65, 70
1, 229438, Control_c, 0, 64, 68
1, 229452, Control_c, 0, 64, 72
1, 229458, Note_off_c, 0, 80, 56
1, 229459, Note_off_c, 0, 65, 69
1, 229467, Control_c, 0, 64, 76
1, 229482, Control_c, 0, 64, 79
1, 229483, Note_off_c, 0, 59, 33
1, 229497, Control_c, 0, 64, 82
1, 229512, Control_c, 0, 64, 85
1, 229523, Note_on_c, 0, 76, 61
1, 229526, Control_c, 0, 64, 88
1, 229541, Control_c, 0, 64, 91
1, 229556, Control_c, 0, 64, 93
1, 229558, Note_on_c, 0, 55, 58
1, 229563, Note_on_c, 0, 50, 64
1, 229565, Note_on_c, 0, 71, 29
1, 229570, Control_c, 0, 64, 95
1, 229578, Note_on_c, 0, 79, 63
1, 229587, Control_c, 0, 64, 97
1, 229588, Note_off_c, 0, 50, 64
1, 229590, Note_off_c, 0, 55, 63
1, 229596, Note_off_c, 0, 76, 53
1, 229602, Control_c, 0, 64, 100
1, 229616, Control_c, 0, 64, 103
1, 229626, Note_off_c, 0, 71, 42
1, 229631, Control_c, 0, 64, 111
1, 229638, Note_on_c, 0, 74, 58
1, 229643, Note_off_c, 0, 79, 62
1, 229646, Control_c, 0, 64, 127
1, 229657, Note_off_c, 0, 74, 62
1, 229695, Note_on_c, 0, 52, 44
1, 229722, Note_on_c, 0, 62, 47
1, 229729, Note_off_c, 0, 52, 51
1, 229733, Note_on_c, 0, 80, 86
1, 229736, Control_c, 0, 64, 74
1, 229750, Control_c, 0, 64, 0
1, 229751, Note_on_c, 0, 68, 81
1, 229772, Note_off_c, 0, 68, 70
1, 229775, Poly_aftertouch_c, 0, 53, 0
1, 229776, Note_off_c, 0, 62, 57
1, 229784, Note_on_c, 0, 83, 78
1, 229787, Note_off_c, 0, 80, 63
1, 229826, Note_off_c, 0, 83, 65
1, 229830, Note_on_c, 0, 78, 79
1, 229874, Note_off_c, 0, 78, 59
1, 229906, Note_on_c, 0, 85, 100
1, 229922, Note_on_c, 0, 58, 65
1, 229924, Note_on_c, 0, 53, 53
1, 229930, Note_on_c, 0, 74, 75
1, 229950, Note_off_c, 0, 53, 53
1, 229957, Note_off_c, 0, 58, 65
1, 230036, Note_on_c, 0, 52, 63
1, 230058, Note_on_c, 0, 77, 68
1, 230067, Note_off_c, 0, 52, 63
1, 230091, Control_c, 0, 64, 44
1, 230099, Note_off_c, 0, 74, 54
1, 230101, Note_on_c, 0, 62, 16
1, 230106, Control_c, 0, 64, 67
1, 230121, Note_off_c, 0, 77, 62
1, 230127, Note_off_c, 0, 85, 61
1, 230128, Control_c, 0, 64, 74
1, 230139, Note_on_c, 0, 68, 83
1, 230142, Control_c, 0, 64, 81
1, 230157, Control_c, 0, 64, 84
1, 230159, Note_off_c, 0, 68, 71
1, 230172, Control_c, 0, 64, 90
1, 230187, Control_c, 0, 64, 96
1, 230201, Control_c, 0, 64, 102
1, 230205, Note_off_c, 0, 62, 37
1, 230216, Control_c, 0, 64, 106
1, 230224, Note_on_c, 0, 78, 61
1, 230231, Control_c, 0, 64, 108
1, 230258, Note_on_c, 0, 74, 55
1, 230267, Note_on_c, 0, 58, 58
1, 230272, Note_on_c, 0, 53, 55
1, 230284, Note_off_c, 0, 78, 60
1, 230286, Note_on_c, 0, 83, 69
1, 230296, Note_off_c, 0, 58, 64
1, 230297, Note_off_c, 0, 53, 57
1, 230346, Note_off_c, 0, 74, 62
1, 230352, Note_on_c, 0, 77, 74
1, 230365, Control_c, 0, 64, 111
1, 230368, Note_on_c, 0, 55, 51
1, 230368, Note_off_c, 0, 83, 63
1, 230375, Note_off_c, 0, 77, 71
1, 230395, Control_c, 0, 64, 101
1, 230401, Note_off_c, 0, 55, 60
1, 230402, Note_on_c, 0, 65, 66
1, 230410, Control_c, 0, 64, 80
1, 230421, Note_off_c, 0, 65, 64
1, 230425, Control_c, 0, 64, 62
1, 230440, Control_c, 0, 64, 43
1, 230453, Note_on_c, 0, 71, 87
1, 230455, Control_c, 0, 64, 46
1, 230457, Poly_aftertouch_c, 0, 57, 0
1, 230470, Control_c, 0, 64, 58
1, 230481, Note_on_c, 0, 88, 86
1, 230485, Control_c, 0, 64, 68
1, 230487, Note_off_c, 0, 71, 64
1, 230499, Control_c, 0, 64, 81
1, 230514, Control_c, 0, 64, 100
1, 230529, Control_c, 0, 64, 113
1, 230544, Control_c, 0, 64, 120
1, 230549, Note_on_c, 0, 83, 77
1, 230557, Note_off_c, 0, 88, 63
1, 230559, Control_c, 0, 64, 122
1, 230588, Control_c, 0, 64, 124
1, 230592, Note_off_c, 0, 83, 65
1, 230595, Note_on_c, 0, 81, 83
1, 230603, Control_c, 0, 64, 127
1, 230628, Note_off_c, 0, 81, 62
1, 230663, Note_on_c, 0, 76, 83
1, 230699, Note_on_c, 0, 77, 89
1, 230704, Note_off_c, 0, 76, 67
1, 230706, Control_c, 0, 64, 91
1, 230721, Control_c, 0, 64, 61
1, 230736, Control_c, 0, 64, 36
1, 230750, Note_on_c, 0, 76, 88
1, 230750, Note_on_c, 0, 80, 104
1, 230751, Control_c, 0, 64, 58
1, 230752, Note_on_c, 0, 74, 103
1, 230753, Note_off_c, 0, 77, 70
1, 230760, Note_on_c, 0, 71, 104
1, 230765, Note_on_c, 0, 64, 92
1, 230765, Control_c, 0, 64, 82
1, 230769, Note_on_c, 0, 58, 93
1, 230769, Note_off_c, 0, 76, 68
1, 230780, Control_c, 0, 64, 127
1, 230782, Note_off_c, 0, 80, 70
1, 230786, Note_off_c, 0, 74, 69
1, 230789, Note_off_c, 0, 58, 72
1, 230792, Note_off_c, 0, 71, 69
1, 230798, Note_off_c, 0, 64, 69
1, 230888, Note_on_c, 0, 71, 97
1, 230916, Note_off_c, 0, 71, 64
1, 230936, Control_c, 0, 64, 68
1, 230951, Control_c, 0, 64, 0
1, 230965, Note_on_c, 0, 71, 82
1, 230996, Note_off_c, 0, 71, 61
1, 231058, Note_on_c, 0, 71, 67
1, 231062, Note_on_c, 0, 43, 46
1, 231085, Note_off_c, 0, 71, 66
1, 231096, Note_on_c, 0, 45, 28
1, 231096, Note_off_c, 0, 43, 53
1, 231105, Note_on_c, 0, 53, 59
1, 231130, Note_off_c, 0, 53, 62
1, 231142, Note_off_c, 0, 45, 29
1, 231152, Note_on_c, 0, 59, 82
1, 231158, Control_c, 0, 64, 75
1, 231162, Note_on_c, 0, 76, 80
1, 231173, Control_c, 0, 64, 127
1, 231179, Note_off_c, 0, 59, 66
1, 231221, Note_on_c, 0, 71, 76
1, 231225, Note_off_c, 0, 76, 63
1, 231256, Note_off_c, 0, 71, 62
1, 231263, Note_on_c, 0, 69, 79
1, 231292, Note_off_c, 0, 69, 63
1, 231334, Note_on_c, 0, 64, 80
1, 231373, Note_on_c, 0, 65, 84
1, 231382, Note_off_c, 0, 64, 66
1, 231397, Note_off_c, 0, 65, 60
1, 231424, Note_on_c, 0, 64, 91
1, 231424, Note_on_c, 0, 62, 107
1, 231426, Note_on_c, 0, 68, 101
1, 231433, Note_on_c, 0, 59, 113
1, 231438, Note_on_c, 0, 46, 93
1, 231439, Note_on_c, 0, 52, 96
1, 231459, Note_off_c, 0, 68, 70
1, 231460, Note_off_c, 0, 64, 67
1, 231465, Note_off_c, 0, 59, 71
1, 231467, Note_off_c, 0, 46, 63
1, 231467, Note_off_c, 0, 62, 68
1, 231471, Note_off_c, 0, 52, 65
1, 231559, Note_on_c, 0, 59, 93
1, 231576, Note_off_c, 0, 59, 73
1, 231647, Note_on_c, 0, 59, 88
1, 231668, Note_off_c, 0, 59, 68
1, 231683, Control_c, 0, 64, 82
1, 231698, Control_c, 0, 64, 45
1, 231713, Control_c, 0, 64, 0
1, 231729, Note_on_c, 0, 59, 67
1, 231751, Note_off_c, 0, 59, 69
1, 231790, Note_on_c, 0, 59, 81
1, 231840, Note_off_c, 0, 59, 64
1, 231843, Note_on_c, 0, 56, 78
1, 231888, Note_on_c, 0, 60, 78
1, 231892, Note_off_c, 0, 56, 63
1, 231956, Note_on_c, 0, 59, 84
1, 231962, Note_off_c, 0, 60, 65
1, 232219, Note_on_c, 0, 55, 45
1, 232229, Note_on_c, 0, 51, 45
1, 232247, Control_c, 0, 64, 36
1, 232261, Control_c, 0, 64, 48
1, 232276, Control_c, 0, 64, 60
1, 232291, Control_c, 0, 64, 64
1, 232306, Control_c, 0, 64, 65
1, 232321, Control_c, 0, 64, 66
1, 232336, Control_c, 0, 64, 67
1, 232351, Control_c, 0, 64, 69
1, 232373, Control_c, 0, 64, 71
1, 232387, Control_c, 0, 64, 73
1, 232402, Control_c, 0, 64, 74
1, 232432, Control_c, 0, 64, 74
1, 232447, Control_c, 0, 64, 75
1, 232461, Control_c, 0, 64, 76
1, 232476, Control_c, 0, 64, 77
1, 232491, Control_c, 0, 64, 78
1, 232506, Control_c, 0, 64, 79
1, 232520, Note_on_c, 0, 54, 53
1, 232521, Control_c, 0, 64, 79
1, 232535, Control_c, 0, 64, 80
1, 232542, Note_off_c, 0, 55, 36
1, 232550, Control_c, 0, 64, 82
1, 232556, Note_on_c, 0, 45, 30
1, 232565, Control_c, 0, 64, 83
1, 232568, Note_off_c, 0, 51, 38
1, 232580, Control_c, 0, 64, 85
1, 232595, Control_c, 0, 64, 86
1, 232610, Control_c, 0, 64, 87
1, 232625, Control_c, 0, 64, 87
1, 232640, Control_c, 0, 64, 88
1, 232655, Control_c, 0, 64, 90
1, 232669, Control_c, 0, 64, 91
1, 232684, Control_c, 0, 64, 93
1, 232699, Control_c, 0, 64, 97
1, 232714, Control_c, 0, 64, 110
1, 232729, Control_c, 0, 64, 127
1, 232751, Note_on_c, 0, 53, 68
1, 232768, Note_on_c, 0, 49, 61
1, 232773, Note_off_c, 0, 45, 47
1, 232773, Note_off_c, 0, 54, 52
1, 232804, Control_c, 0, 64, 82
1, 232819, Control_c, 0, 64, 63
1, 232833, Control_c, 0, 64, 48
1, 232848, Control_c, 0, 64, 49
1, 232863, Control_c, 0, 64, 56
1, 232878, Control_c, 0, 64, 65
1, 232893, Control_c, 0, 64, 83
1, 232908, Control_c, 0, 64, 127
1, 232967, Control_c, 0, 64, 80
1, 232974, Note_on_c, 0, 54, 81
1, 232974, Note_on_c, 0, 45, 71
1, 232982, Control_c, 0, 64, 58
1, 232989, Note_off_c, 0, 49, 63
1, 232993, Note_off_c, 0, 53, 60
1, 232997, Control_c, 0, 64, 37
1, 233011, Control_c, 0, 64, 44
1, 233026, Control_c, 0, 64, 57
1, 233041, Control_c, 0, 64, 67
1, 233056, Control_c, 0, 64, 79
1, 233071, Control_c, 0, 64, 102
1, 233085, Control_c, 0, 64, 127
1, 233167, Control_c, 0, 64, 101
1, 233182, Control_c, 0, 64, 66
1, 233194, Note_off_c, 0, 45, 62
1, 233197, Control_c, 0, 64, 0
1, 233202, Note_on_c, 0, 55, 79
1, 233206, Note_off_c, 0, 54, 63
1, 233207, Note_on_c, 0, 51, 74
1, 233241, Control_c, 0, 64, 44
1, 233256, Control_c, 0, 64, 63
1, 233271, Control_c, 0, 64, 77
1, 233285, Control_c, 0, 64, 110
1, 233300, Control_c, 0, 64, 127
1, 233345, Control_c, 0, 64, 93
1, 233359, Control_c, 0, 64, 64
1, 233374, Control_c, 0, 64, 0
1, 233415, Note_on_c, 0, 47, 58
1, 233415, Note_on_c, 0, 56, 82
1, 233418, Control_c, 0, 64, 50
1, 233427, Note_off_c, 0, 55, 60
1, 233433, Control_c, 0, 64, 66
1, 233439, Note_off_c, 0, 51, 64
1, 233441, Note_off_c, 0, 47, 57
1, 233445, Note_off_c, 0, 56, 65
1, 233448, Control_c, 0, 64, 78
1, 233462, Control_c, 0, 64, 90
1, 233464, Note_off_c, 0, 59, 64
1, 233477, Control_c, 0, 64, 93
1, 233597, Control_c, 0, 64, 93
1, 233611, Control_c, 0, 64, 97
1, 233656, Control_c, 0, 64, 85
1, 233659, Poly_aftertouch_c, 0, 57, 127
1, 233671, Control_c, 0, 64, 68
1, 233674, Note_on_c, 0, 63, 79
1, 233680, Note_on_c, 0, 59, 37
1, 233686, Control_c, 0, 64, 44
1, 233686, Note_on_c, 0, 53, 60
1, 233701, Control_c, 0, 64, 0
1, 233745, Control_c, 0, 64, 39
1, 233760, Control_c, 0, 64, 56
1, 233768, Note_off_c, 0, 53, 58
1, 233775, Control_c, 0, 64, 65
1, 233789, Control_c, 0, 64, 70
1, 233790, Note_off_c, 0, 63, 61
1, 233804, Control_c, 0, 64, 72
1, 233824, Note_on_c, 0, 65, 73
1, 233847, Poly_aftertouch_c, 0, 57, 0
1, 233848, Control_c, 0, 64, 72
1, 233871, Control_c, 0, 64, 74
1, 233886, Control_c, 0, 64, 76
1, 233894, Note_off_c, 0, 65, 63
1, 233901, Control_c, 0, 64, 79
1, 233902, Note_on_c, 0, 62, 71
1, 233913, Note_on_c, 0, 53, 58
1, 233915, Control_c, 0, 64, 83
1, 233930, Control_c, 0, 64, 88
1, 233945, Control_c, 0, 64, 92
1, 233960, Control_c, 0, 64, 96
1, 233967, Note_off_c, 0, 62, 63
1, 233975, Control_c, 0, 64, 100
1, 233989, Control_c, 0, 64, 102
1, 233990, Note_off_c, 0, 53, 56
1, 234006, Note_on_c, 0, 65, 78
1, 234019, Control_c, 0, 64, 104
1, 234038, Note_off_c, 0, 65, 56
1, 234046, Note_off_c, 0, 59, 43
1, 234067, Note_on_c, 0, 57, 59
1, 234067, Note_on_c, 0, 61, 80
1, 234152, Control_c, 0, 64, 106
1, 234166, Note_off_c, 0, 61, 61
1, 234166, Note_on_c, 0, 65, 75
1, 234181, Control_c, 0, 64, 111
1, 234189, Note_off_c, 0, 65, 70
1, 234196, Control_c, 0, 64, 127
1, 234208, Note_off_c, 0, 57, 50
1, 234230, Note_on_c, 0, 65, 84
1, 234246, Note_off_c, 0, 65, 73
1, 234253, Note_on_c, 0, 60, 72
1, 234255, Control_c, 0, 64, 88
1, 234257, Note_on_c, 0, 51, 58
1, 234270, Control_c, 0, 64, 64
1, 234285, Control_c, 0, 64, 0
1, 234289, Note_on_c, 0, 65, 77
1, 234293, Note_off_c, 0, 60, 61
1, 234325, Note_off_c, 0, 65, 0
1, 234363, Note_off_c, 0, 51, 37
1, 234364, Poly_aftertouch_c, 0, 65, 0
1, 234404, Note_on_c, 0, 59, 77
1, 234414, Note_on_c, 0, 55, 59
1, 234462, Note_on_c, 0, 62, 78
1, 234487, Note_off_c, 0, 62, 68
1, 234495, Note_on_c, 0, 66, 85
1, 234514, Note_off_c, 0, 66, 71
1, 234517, Note_off_c, 0, 59, 59
1, 234547, Note_off_c, 0, 55, 58
1, 234552, Note_on_c, 0, 58, 80
1, 234553, Control_c, 0, 64, 68
1, 234558, Note_on_c, 0, 49, 71
1, 234564, Note_on_c, 0, 65, 87
1, 234568, Control_c, 0, 64, 127
1, 234609, Note_off_c, 0, 65, 65
1, 234648, Note_on_c, 0, 73, 86
1, 234664, Note_off_c, 0, 73, 73
1, 234711, Note_on_c, 0, 73, 76
1, 234723, Note_off_c, 0, 73, 73
1, 234747, Note_off_c, 0, 58, 62
1, 234759, Note_on_c, 0, 73, 93
1, 234777, Note_off_c, 0, 73, 72
1, 234781, Note_on_c, 0, 57, 75
1, 234796, Note_on_c, 0, 53, 64
1, 234807, Note_off_c, 0, 49, 34
1, 234807, Note_on_c, 0, 73, 85
1, 234823, Note_off_c, 0, 73, 75
1, 234869, Note_on_c, 0, 73, 64
1, 234899, Note_off_c, 0, 73, 0
1, 234899, Note_on_c, 0, 73, 62
1, 234913, Note_off_c, 0, 57, 60
1, 234933, Note_off_c, 0, 73, 64
1, 234941, Note_on_c, 0, 56, 91
1, 234944, Note_on_c, 0, 47, 72
1, 234950, Note_off_c, 0, 53, 58
1, 234953, Note_on_c, 0, 73, 76
1, 234978, Note_on_c, 0, 46, 21
1, 235019, Note_off_c, 0, 46, 33
1, 235024, Note_off_c, 0, 73, 63
1, 235050, Note_off_c, 0, 56, 61
1, 235059, Note_off_c, 0, 47, 59
1, 235072, Note_on_c, 0, 73, 80
1, 235081, Note_on_c, 0, 55, 95
1, 235087, Note_on_c, 0, 51, 89
1, 235115, Note_on_c, 0, 70, 87
1, 235118, Note_off_c, 0, 73, 66
1, 235141, Note_on_c, 0, 74, 88
1, 235159, Note_off_c, 0, 70, 67
1, 235182, Note_off_c, 0, 74, 66
1, 235223, Note_off_c, 0, 55, 57
1, 235227, Note_off_c, 0, 51, 60
1, 235251, Note_on_c, 0, 73, 100
1, 235255, Note_on_c, 0, 61, 106
1, 235262, Note_on_c, 0, 54, 93
1, 235263, Note_on_c, 0, 65, 83
1, 235269, Note_on_c, 0, 45, 75
1, 235287, Control_c, 0, 64, 72
1, 235302, Control_c, 0, 64, 0
1, 235398, Control_c, 0, 64, 58
1, 235412, Control_c, 0, 64, 79
1, 235427, Control_c, 0, 64, 127
1, 235466, Note_off_c, 0, 61, 61
1, 235481, Note_off_c, 0, 65, 59
1, 235501, Note_off_c, 0, 73, 59
1, 235506, Note_off_c, 0, 45, 57
1, 235545, Note_off_c, 0, 54, 54
1, 235638, Note_on_c, 0, 72, 91
1, 235639, Note_on_c, 0, 64, 86
1, 235643, Note_on_c, 0, 60, 83
1, 235662, Note_off_c, 0, 72, 61
1, 235664, Note_off_c, 0, 60, 70
1, 235665, Note_off_c, 0, 64, 66
1, 235722, Note_on_c, 0, 54, 71
1, 235736, Note_on_c, 0, 53, 64
1, 235753, Control_c, 0, 64, 92
1, 235768, Control_c, 0, 64, 73
1, 235779, Note_on_c, 0, 57, 79
1, 235783, Control_c, 0, 64, 69
1, 235788, Note_off_c, 0, 53, 64
1, 235792, Note_off_c, 0, 54, 62
1, 235798, Control_c, 0, 64, 72
1, 235802, Note_on_c, 0, 59, 112
1, 235802, Note_on_c, 0, 71, 105
1, 235806, Note_on_c, 0, 63, 103
1, 235812, Control_c, 0, 64, 81
1, 235822, Note_off_c, 0, 59, 71
1, 235825, Note_off_c, 0, 63, 71
1, 235827, Control_c, 0, 64, 108
1, 235828, Note_off_c, 0, 71, 65
1, 235830, Note_off_c, 0, 57, 63
1, 235842, Control_c, 0, 64, 127
1, 235901, Control_c, 0, 64, 91
1, 235912, Poly_aftertouch_c, 0, 66, 0
1, 235916, Control_c, 0, 64, 54
1, 235931, Control_c, 0, 64, 0
1, 235948, Note_on_c, 0, 45, 57
1, 235999, Note_off_c, 0, 45, 63
1, 236004, Note_on_c, 0, 51, 75
1, 236044, Note_off_c, 0, 51, 65
1, 236047, Note_on_c, 0, 76, 73
1, 236067, Note_on_c, 0, 67, 68
1, 236068, Note_on_c, 0, 58, 60
1, 236073, Note_on_c, 0, 72, 72
1, 236073, Note_off_c, 0, 76, 67
1, 236089, Note_off_c, 0, 58, 61
1, 236132, Control_c, 0, 64, 94
1, 236147, Control_c, 0, 64, 127
1, 236154, Note_on_c, 0, 57, 74
1, 236181, Note_off_c, 0, 72, 62
1, 236190, Note_off_c, 0, 57, 64
1, 236201, Note_on_c, 0, 63, 87
1, 236209, Note_on_c, 0, 75, 91
1, 236247, Note_off_c, 0, 63, 65
1, 236253, Note_off_c, 0, 67, 48
1, 236255, Note_off_c, 0, 75, 70
1, 236276, Note_on_c, 0, 76, 73
1, 236300, Note_on_c, 0, 70, 114
1, 236308, Note_on_c, 0, 72, 97
1, 236312, Note_on_c, 0, 67, 97
1, 236329, Note_off_c, 0, 76, 67
1, 236333, Note_off_c, 0, 70, 73
1, 236377, Note_off_c, 0, 67, 60
1, 236430, Note_on_c, 0, 75, 112
1, 236437, Note_off_c, 0, 72, 62
1, 236461, Note_off_c, 0, 75, 74
1, 236548, Note_on_c, 0, 61, 81
1, 236568, Note_on_c, 0, 57, 61
1, 236592, Control_c, 0, 64, 96
1, 236607, Control_c, 0, 64, 68
1, 236622, Control_c, 0, 64, 41
1, 236636, Control_c, 0, 64, 0
1, 236649, Note_on_c, 0, 63, 88
1, 236660, Note_off_c, 0, 61, 62
1, 236669, Note_off_c, 0, 63, 72
1, 236681, Control_c, 0, 64, 43
1, 236696, Control_c, 0, 64, 59
1, 236710, Control_c, 0, 64, 64
1, 236715, Note_on_c, 0, 63, 88
1, 236725, Control_c, 0, 64, 62
1, 236732, Note_off_c, 0, 63, 72
1, 236732, Note_on_c, 0, 60, 76
1, 236733, Note_off_c, 0, 57, 63
1, 236740, Control_c, 0, 64, 55
1, 236741, Note_on_c, 0, 51, 60
1, 236754, Control_c, 0, 64, 42
1, 236769, Control_c, 0, 64, 0
1, 236773, Note_on_c, 0, 63, 85
1, 236786, Note_off_c, 0, 60, 58
1, 236799, Note_off_c, 0, 63, 69
1, 236815, Control_c, 0, 64, 31
1, 236842, Note_on_c, 0, 63, 75
1, 236864, Note_off_c, 0, 63, 68
1, 236882, Control_c, 0, 64, 0
1, 236890, Note_off_c, 0, 51, 61
1, 236892, Note_on_c, 0, 63, 80
1, 236898, Note_on_c, 0, 59, 77
1, 236902, Note_on_c, 0, 55, 65
1, 236912, Note_off_c, 0, 63, 72
1, 236946, Note_on_c, 0, 63, 76
1, 236967, Note_off_c, 0, 63, 72
1, 236985, Control_c, 0, 64, 29
1, 236996, Note_on_c, 0, 63, 81
1, 237025, Note_off_c, 0, 63, 66
1, 237026, Note_off_c, 0, 59, 54
1, 237046, Note_on_c, 0, 63, 73
1, 237053, Note_on_c, 0, 49, 70
1, 237054, Note_on_c, 0, 58, 83
1, 237059, Control_c, 0, 64, 32
1, 237073, Note_off_c, 0, 63, 0
1, 237074, Control_c, 0, 64, 33
1, 237076, Note_off_c, 0, 55, 35
1, 237089, Control_c, 0, 64, 35
1, 237104, Control_c, 0, 64, 36
1, 237112, Poly_aftertouch_c, 0, 63, 0
1, 237119, Control_c, 0, 64, 38
1, 237133, Control_c, 0, 64, 41
1, 237140, Note_off_c, 0, 49, 52
1, 237147, Note_off_c, 0, 58, 61
1, 237148, Control_c, 0, 64, 44
1, 237155, Poly_aftertouch_c, 0, 63, 0
1, 237163, Control_c, 0, 64, 50
1, 237177, Control_c, 0, 64, 55
1, 237192, Note_on_c, 0, 57, 84
1, 237192, Note_on_c, 0, 63, 84
1, 237192, Control_c, 0, 64, 58
1, 237206, Note_on_c, 0, 53, 70
1, 237206, Control_c, 0, 64, 55
1, 237221, Control_c, 0, 64, 44
1, 237230, Note_off_c, 0, 63, 62
1, 237236, Control_c, 0, 64, 0
1, 237266, Note_on_c, 0, 60, 68
1, 237284, Note_on_c, 0, 64, 81
1, 237295, Note_off_c, 0, 60, 65
1, 237305, Note_off_c, 0, 64, 73
1, 237317, Note_off_c, 0, 57, 59
1, 237341, Note_off_c, 0, 53, 50
1, 237346, Note_on_c, 0, 47, 76
1, 237349, Note_on_c, 0, 56, 85
1, 237360, Note_on_c, 0, 63, 103
1, 237384, Control_c, 0, 64, 127
1, 237400, Note_off_c, 0, 63, 67
1, 237485, Note_on_c, 0, 71, 82
1, 237505, Note_off_c, 0, 71, 71
1, 237536, Note_on_c, 0, 71, 81
1, 237553, Note_off_c, 0, 71, 72
1, 237583, Note_off_c, 0, 47, 63
1, 237595, Note_off_c, 0, 56, 62
1, 237596, Note_on_c, 0, 55, 75
1, 237603, Note_on_c, 0, 51, 69
1, 237606, Note_on_c, 0, 71, 93
1, 237633, Note_off_c, 0, 71, 0
1, 237657, Poly_aftertouch_c, 0, 71, 0
1, 237698, Note_on_c, 0, 71, 72
1, 237719, Note_off_c, 0, 71, 70
1, 237740, Note_off_c, 0, 55, 57
1, 237745, Note_on_c, 0, 71, 81
1, 237768, Note_on_c, 0, 45, 77
1, 237769, Note_on_c, 0, 54, 83
1, 237797, Note_off_c, 0, 51, 58
1, 237850, Note_off_c, 0, 71, 62
1, 237901, Note_on_c, 0, 72, 78
1, 237906, Note_on_c, 0, 71, 85
1, 237910, Note_on_c, 0, 53, 94
1, 237915, Note_off_c, 0, 45, 54
1, 237925, Note_on_c, 0, 49, 86
1, 237931, Note_off_c, 0, 54, 56
1, 237940, Note_off_c, 0, 72, 60
1, 237945, Note_on_c, 0, 68, 86
1, 237949, Note_off_c, 0, 71, 64
1, 237999, Note_on_c, 0, 74, 80
1, 237999, Note_off_c, 0, 68, 65
1, 238004, Note_on_c, 0, 72, 74
1, 238020, Note_off_c, 0, 74, 69
1, 238027, Note_off_c, 0, 72, 68
1, 238027, Note_off_c, 0, 49, 57
1, 238035, Note_off_c, 0, 53, 62
1, 238081, Note_on_c, 0, 52, 98
1, 238084, Note_on_c, 0, 71, 103
1, 238085, Note_on_c, 0, 43, 90
1, 238087, Note_on_c, 0, 59, 109
1, 238092, Note_on_c, 0, 63, 99
1, 238119, Control_c, 0, 64, 74
1, 238133, Control_c, 0, 64, 45
1, 238148, Control_c, 0, 64, 0
1, 238222, Control_c, 0, 64, 48
1, 238237, Control_c, 0, 64, 74
1, 238252, Control_c, 0, 64, 127
1, 238267, Note_off_c, 0, 71, 56
1, 238283, Note_off_c, 0, 59, 60
1, 238295, Note_off_c, 0, 63, 56
1, 238350, Note_off_c, 0, 43, 56
1, 238428, Note_off_c, 0, 52, 36
1, 238435, Note_on_c, 0, 58, 104
1, 238435, Note_on_c, 0, 70, 102
1, 238441, Note_on_c, 0, 62, 92
1, 238467, Note_off_c, 0, 58, 66
1, 238476, Note_off_c, 0, 70, 68
1, 238479, Note_off_c, 0, 62, 66
1, 238527, Note_on_c, 0, 43, 70
1, 238539, Note_on_c, 0, 52, 83
1, 238556, Control_c, 0, 64, 94
1, 238571, Control_c, 0, 64, 80
1, 238573, Note_off_c, 0, 43, 61
1, 238574, Note_on_c, 0, 51, 94
1, 238586, Control_c, 0, 64, 79
1, 238594, Note_off_c, 0, 52, 65
1, 238596, Note_on_c, 0, 55, 96
1, 238596, Note_off_c, 0, 51, 70
1, 238601, Control_c, 0, 64, 83
1, 238608, Note_on_c, 0, 57, 105
1, 238610, Note_on_c, 0, 69, 106
1, 238612, Note_on_c, 0, 61, 99
1, 238616, Control_c, 0, 64, 102
1, 238625, Note_off_c, 0, 57, 74
1, 238629, Note_off_c, 0, 61, 75
1, 238630, Control_c, 0, 64, 127
1, 238634, Note_off_c, 0, 69, 63
1, 238636, Note_off_c, 0, 55, 65
1, 238719, Control_c, 0, 64, 95
1, 238734, Control_c, 0, 64, 58
1, 238748, Control_c, 0, 64, 0
1, 238764, Note_on_c, 0, 43, 66
1, 238808, Note_on_c, 0, 49, 83
1, 238820, Note_off_c, 0, 43, 62
1, 238832, Note_on_c, 0, 74, 84
1, 238850, Note_on_c, 0, 65, 79
1, 238852, Control_c, 0, 64, 44
1, 238857, Note_on_c, 0, 70, 91
1, 238861, Note_off_c, 0, 49, 62
1, 238863, Note_on_c, 0, 56, 88
1, 238867, Control_c, 0, 64, 127
1, 238883, Note_off_c, 0, 74, 58
1, 238885, Note_off_c, 0, 56, 69
1, 238954, Note_on_c, 0, 55, 79
1, 238966, Note_off_c, 0, 70, 64
1, 238977, Note_on_c, 0, 53, 51
1, 238980, Note_on_c, 0, 56, 2
1, 238993, Note_on_c, 0, 73, 91
1, 238995, Note_off_c, 0, 56, 0
1, 239001, Note_off_c, 0, 53, 61
1, 239004, Note_on_c, 0, 61, 89
1, 239006, Note_off_c, 0, 55, 60
1, 239020, Note_off_c, 0, 65, 61
1, 239024, Poly_aftertouch_c, 0, 56, 0
1, 239046, Note_off_c, 0, 61, 64
1, 239063, Note_off_c, 0, 73, 66
1, 239064, Note_on_c, 0, 74, 93
1, 239111, Note_on_c, 0, 68, 106
1, 239113, Note_on_c, 0, 70, 104
1, 239117, Note_on_c, 0, 65, 97
1, 239135, Note_off_c, 0, 74, 68
1, 239142, Note_off_c, 0, 68, 74
1, 239207, Note_off_c, 0, 65, 53
1, 239219, Note_off_c, 0, 70, 63
1, 239239, Note_on_c, 0, 73, 121
1, 239270, Note_off_c, 0, 73, 74
1, 239424, Control_c, 0, 64, 80
1, 239439, Control_c, 0, 64, 0
1, 239981, Control_c, 0, 64, 31
1, 239995, Control_c, 0, 64, 41
1, 240010, Control_c, 0, 64, 52
1, 240025, Control_c, 0, 64, 61
1, 240040, Control_c, 0, 64, 66
1, 240044, Note_on_c, 0, 70, 87
1, 240055, Control_c, 0, 64, 70
1, 240070, Control_c, 0, 64, 74
1, 240080, Note_on_c, 0, 58, 54
1, 240084, Control_c, 0, 64, 81
1, 240097, Note_on_c, 0, 62, 41
1, 240099, Control_c, 0, 64, 90
1, 240100, Note_on_c, 0, 43, 39
1, 240114, Control_c, 0, 64, 104
1, 240119, Note_on_c, 0, 51, 36
1, 240129, Control_c, 0, 64, 127
1, 240207, Note_off_c, 0, 62, 58
1, 240208, Note_off_c, 0, 58, 62
1, 240242, Note_off_c, 0, 70, 63
1, 240250, Note_off_c, 0, 43, 61
1, 240347, Note_on_c, 0, 69, 73
1, 240369, Note_on_c, 0, 57, 46
1, 240383, Note_on_c, 0, 61, 37
1, 240417, Note_off_c, 0, 69, 59
1, 240418, Note_off_c, 0, 57, 57
1, 240432, Note_off_c, 0, 61, 46
1, 240543, Control_c, 0, 67, 39
1, 240558, Control_c, 0, 67, 52
1, 240573, Control_c, 0, 67, 67
1, 240584, Note_on_c, 0, 68, 66
1, 240588, Control_c, 0, 64, 100
1, 240588, Control_c, 0, 67, 80
1, 240602, Note_on_c, 0, 50, 47
1, 240610, Control_c, 0, 64, 76
1, 240610, Control_c, 0, 67, 99
1, 240614, Note_on_c, 0, 56, 51
1, 240615, Note_on_c, 0, 42, 40
1, 240617, Note_on_c, 0, 60, 42
1, 240625, Control_c, 0, 64, 66
1, 240625, Control_c, 0, 67, 127
1, 240640, Control_c, 0, 64, 65
1, 240655, Control_c, 0, 64, 69
1, 240661, Note_off_c, 0, 51, 41
1, 240670, Control_c, 0, 64, 76
1, 240674, Note_off_c, 0, 60, 47
1, 240684, Control_c, 0, 64, 85
1, 240688, Note_off_c, 0, 42, 61
1, 240690, Note_off_c, 0, 56, 62
1, 240699, Control_c, 0, 64, 94
1, 240709, Note_off_c, 0, 50, 60
1, 240714, Control_c, 0, 64, 101
1, 240728, Control_c, 0, 64, 106
1, 240743, Note_off_c, 0, 68, 62
1, 240743, Control_c, 0, 64, 110
1, 240758, Control_c, 0, 64, 127
1, 240801, Note_on_c, 0, 41, 51
1, 240819, Control_c, 0, 64, 90
1, 240833, Control_c, 0, 64, 62
1, 240834, Note_on_c, 0, 50, 53
1, 240837, Note_on_c, 0, 67, 67
1, 240848, Control_c, 0, 64, 0
1, 240861, Note_on_c, 0, 59, 51
1, 240862, Note_on_c, 0, 55, 47
1, 240876, Note_off_c, 0, 50, 63
1, 240878, Control_c, 0, 64, 29
1, 240893, Control_c, 0, 64, 56
1, 240903, Note_off_c, 0, 55, 63
1, 240907, Control_c, 0, 64, 73
1, 240908, Note_on_c, 0, 53, 58
1, 240915, Note_off_c, 0, 59, 63
1, 240922, Control_c, 0, 64, 107
1, 240924, Note_on_c, 0, 49, 35
1, 240932, Note_off_c, 0, 67, 63
1, 240937, Control_c, 0, 64, 127
1, 240950, Note_off_c, 0, 53, 62
1, 240951, Control_c, 0, 67, 86
1, 240961, Note_off_c, 0, 49, 45
1, 240966, Control_c, 0, 67, 0
1, 240971, Note_off_c, 0, 41, 29
1, 241099, Note_on_c, 0, 41, 56
1, 241127, Note_on_c, 0, 72, 58
1, 241142, Note_on_c, 0, 63, 50
1, 241159, Control_c, 0, 64, 69
1, 241166, Note_on_c, 0, 68, 58
1, 241170, Note_off_c, 0, 63, 55
1, 241171, Note_off_c, 0, 41, 56
1, 241174, Control_c, 0, 64, 36
1, 241175, Note_on_c, 0, 47, 62
1, 241189, Control_c, 0, 64, 0
1, 241204, Control_c, 0, 64, 39
1, 241215, Note_off_c, 0, 47, 66
1, 241218, Control_c, 0, 64, 60
1, 241233, Control_c, 0, 64, 76
1, 241240, Note_on_c, 0, 54, 67
1, 241248, Control_c, 0, 64, 127
1, 241260, Note_off_c, 0, 54, 63
1, 241325, Note_off_c, 0, 72, 59
1, 241334, Note_on_c, 0, 53, 62
1, 241347, Note_on_c, 0, 71, 77
1, 241360, Note_off_c, 0, 68, 56
1, 241382, Note_off_c, 0, 53, 61
1, 241392, Note_on_c, 0, 59, 71
1, 241418, Note_off_c, 0, 71, 62
1, 241422, Note_off_c, 0, 59, 66
1, 241429, Note_on_c, 0, 72, 78
1, 241472, Note_on_c, 0, 63, 96
1, 241473, Note_on_c, 0, 68, 95
1, 241491, Note_on_c, 0, 66, 73
1, 241502, Note_off_c, 0, 72, 59
1, 241508, Note_off_c, 0, 66, 67
1, 241510, Note_off_c, 0, 63, 63
1, 241585, Note_off_c, 0, 68, 59
1, 241610, Note_on_c, 0, 71, 92
1, 241632, Note_on_c, 0, 53, 56
1, 241633, Note_on_c, 0, 62, 82
1, 241656, Control_c, 0, 64, 91
1, 241663, Note_off_c, 0, 71, 65
1, 241671, Control_c, 0, 64, 57
1, 241685, Control_c, 0, 64, 32
1, 241691, Note_on_c, 0, 61, 99
1, 241691, Note_on_c, 0, 65, 105
1, 241691, Note_off_c, 0, 53, 64
1, 241700, Control_c, 0, 64, 48
1, 241706, Note_off_c, 0, 62, 66
1, 241715, Control_c, 0, 64, 64
1, 241726, Note_off_c, 0, 61, 69
1, 241727, Note_off_c, 0, 65, 69
1, 241729, Control_c, 0, 64, 87
1, 241744, Control_c, 0, 64, 127
1, 241856, Note_on_c, 0, 71, 85
1, 241913, Note_on_c, 0, 67, 80
1, 241955, Note_on_c, 0, 40, 80
1, 241981, Control_c, 0, 64, 88
1, 241996, Control_c, 0, 64, 77
1, 242009, Note_on_c, 0, 46, 80
1, 242011, Control_c, 0, 64, 78
1, 242020, Note_off_c, 0, 67, 57
1, 242023, Note_on_c, 0, 70, 88
1, 242025, Note_off_c, 0, 40, 63
1, 242026, Control_c, 0, 64, 95
1, 242030, Note_off_c, 0, 71, 60
1, 242041, Control_c, 0, 64, 127
1, 242060, Note_on_c, 0, 53, 79
1, 242062, Note_off_c, 0, 46, 63
1, 242077, Note_off_c, 0, 70, 65
1, 242080, Note_off_c, 0, 53, 67
1, 242158, Note_on_c, 0, 56, 73
1, 242165, Note_on_c, 0, 74, 92
1, 242189, Note_off_c, 0, 56, 54
1, 242226, Note_on_c, 0, 65, 83
1, 242231, Note_on_c, 0, 70, 99
1, 242240, Note_on_c, 0, 64, 65
1, 242241, Poly_aftertouch_c, 0, 55, 127
1, 242242, Note_off_c, 0, 74, 61
1, 242262, Note_off_c, 0, 64, 62
1, 242265, Note_off_c, 0, 65, 66
1, 242271, Poly_aftertouch_c, 0, 55, 0
1, 242312, Note_on_c, 0, 73, 100
1, 242330, Note_off_c, 0, 70, 55
1, 242344, Control_c, 0, 64, 87
1, 242351, Note_on_c, 0, 62, 89
1, 242357, Note_on_c, 0, 53, 64
1, 242359, Control_c, 0, 64, 54
1, 242366, Note_off_c, 0, 73, 68
1, 242375, Control_c, 0, 64, 0
1, 242387, Note_off_c, 0, 53, 67
1, 242390, Control_c, 0, 64, 49
1, 242401, Note_on_c, 0, 61, 102
1, 242402, Note_on_c, 0, 65, 107
1, 242404, Control_c, 0, 64, 75
1, 242419, Control_c, 0, 64, 127
1, 242422, Note_on_c, 0, 63, 60
1, 242428, Note_on_c, 0, 55, 16
1, 242436, Note_off_c, 0, 65, 71
1, 242438, Note_off_c, 0, 62, 68
1, 242445, Note_off_c, 0, 63, 60
1, 242450, Note_off_c, 0, 61, 65
1, 242474, Note_off_c, 0, 55, 39
1, 242513, Note_on_c, 0, 77, 98
1, 242515, Note_on_c, 0, 71, 96
1, 242515, Note_on_c, 0, 67, 96
1, 242551, Note_off_c, 0, 71, 59
1, 242551, Note_off_c, 0, 77, 66
1, 242590, Note_on_c, 0, 73, 105
1, 242632, Note_on_c, 0, 37, 91
1, 242657, Control_c, 0, 64, 67
1, 242665, Note_on_c, 0, 36, 57
1, 242671, Control_c, 0, 64, 0
1, 242679, Poly_aftertouch_c, 0, 71, 0
1, 242688, Note_on_c, 0, 43, 77
1, 242697, Note_off_c, 0, 36, 54
1, 242712, Note_on_c, 0, 76, 95
1, 242715, Control_c, 0, 64, 52
1, 242730, Control_c, 0, 64, 127
1, 242735, Note_off_c, 0, 37, 63
1, 242739, Note_off_c, 0, 67, 59
1, 242740, Note_on_c, 0, 50, 101
1, 242749, Note_off_c, 0, 73, 56
1, 242757, Note_off_c, 0, 43, 62
1, 242758, Note_on_c, 0, 44, 33
1, 242772, Note_off_c, 0, 50, 67
1, 242801, Note_off_c, 0, 44, 51
1, 242804, Note_off_c, 0, 76, 63
1, 242858, Note_on_c, 0, 80, 91
1, 242860, Note_on_c, 0, 49, 87
1, 242864, Note_on_c, 0, 67, 79
1, 242865, Note_on_c, 0, 71, 81
1, 242879, Note_on_c, 0, 55, 79
1, 242893, Note_off_c, 0, 71, 64
1, 242897, Note_off_c, 0, 80, 68
1, 242924, Note_off_c, 0, 67, 62
1, 242938, Note_on_c, 0, 76, 97
1, 242939, Note_off_c, 0, 49, 64
1, 242950, Note_on_c, 0, 62, 106
1, 242953, Note_off_c, 0, 55, 65
1, 242994, Note_off_c, 0, 62, 69
1, 243010, Note_off_c, 0, 76, 64
1, 243043, Note_on_c, 0, 79, 98
1, 243060, Poly_aftertouch_c, 0, 56, 0
1, 243086, Note_off_c, 0, 79, 70
1, 243111, Note_on_c, 0, 61, 31
1, 243150, Note_off_c, 0, 61, 54
1, 243153, Control_c, 0, 64, 66
1, 243168, Control_c, 0, 64, 0
1, 243185, Note_on_c, 0, 83, 102
1, 243186, Note_on_c, 0, 77, 101
1, 243186, Note_on_c, 0, 81, 96
1, 243186, Note_on_c, 0, 62, 100
1, 243187, Note_on_c, 0, 53, 93
1, 243213, Control_c, 0, 64, 61
1, 243228, Control_c, 0, 64, 127
1, 243231, Note_on_c, 0, 79, 19
1, 243231, Note_off_c, 0, 79, 127
1, 243238, Note_off_c, 0, 53, 66
1, 243258, Note_on_c, 0, 61, 93
1, 243260, Note_on_c, 0, 65, 101
1, 243266, Note_off_c, 0, 62, 64
1, 243270, Note_off_c, 0, 83, 57
1, 243273, Note_off_c, 0, 81, 63
1, 243290, Note_off_c, 0, 77, 66
1, 243293, Note_off_c, 0, 65, 68
1, 243294, Note_off_c, 0, 61, 68
1, 243326, Note_on_c, 0, 73, 99
1, 243326, Note_on_c, 0, 82, 101
1, 243353, Note_off_c, 0, 82, 70
1, 243362, Note_off_c, 0, 73, 67
1, 243416, Note_on_c, 0, 81, 90
1, 243423, Note_on_c, 0, 77, 99
1, 243454, Note_off_c, 0, 81, 68
1, 243461, Note_off_c, 0, 77, 67
1, 243499, Note_on_c, 0, 80, 105
1, 243505, Note_on_c, 0, 71, 97
1, 243524, Note_off_c, 0, 71, 67
1, 243549, Note_off_c, 0, 80, 74
1, 243620, Control_c, 0, 64, 72
1, 243627, Note_on_c, 0, 29, 105
1, 243632, Note_on_c, 0, 83, 119
1, 243635, Control_c, 0, 64, 35
1, 243637, Note_on_c, 0, 79, 100
1, 243650, Control_c, 0, 64, 46
1, 243665, Control_c, 0, 64, 127
1, 243709, Note_on_c, 0, 31, 21
1, 243712, Note_off_c, 0, 83, 62
1, 243732, Note_off_c, 0, 79, 64
1, 243754, Note_off_c, 0, 31, 29
1, 243760, Note_on_c, 0, 35, 73
1, 243768, Note_on_c, 0, 82, 89
1, 243769, Note_off_c, 0, 29, 61
1, 243772, Note_on_c, 0, 73, 91
1, 243796, Note_off_c, 0, 35, 64
1, 243809, Note_off_c, 0, 73, 65
1, 243814, Note_off_c, 0, 82, 66
1, 243829, Note_on_c, 0, 43, 55
1, 243857, Note_off_c, 0, 43, 52
1, 243863, Note_on_c, 0, 81, 89
1, 243877, Note_on_c, 0, 41, 70
1, 243877, Note_on_c, 0, 77, 79
1, 243900, Note_off_c, 0, 77, 67
1, 243929, Note_off_c, 0, 81, 63
1, 243945, Note_on_c, 0, 71, 83
1, 243946, Note_on_c, 0, 47, 70
1, 243952, Note_on_c, 0, 80, 94
1, 243972, Note_off_c, 0, 41, 57
1, 243991, Note_off_c, 0, 71, 64
1, 243992, Note_off_c, 0, 80, 67
1, 244013, Note_off_c, 0, 47, 64
1, 244026, Note_on_c, 0, 55, 90
1, 244036, Note_on_c, 0, 41, 10
1, 244038, Note_on_c, 0, 79, 87
1, 244048, Note_on_c, 0, 75, 87
1, 244066, Note_on_c, 0, 47, 68
1, 244074, Note_off_c, 0, 55, 63
1, 244075, Note_off_c, 0, 41, 54
1, 244104, Note_off_c, 0, 79, 61
1, 244122, Note_on_c, 0, 78, 92
1, 244129, Note_on_c, 0, 69, 88
1, 244132, Note_on_c, 0, 41, 79
1, 244134, Poly_aftertouch_c, 0, 45, 0
1, 244134, Note_off_c, 0, 47, 66
1, 244136, Note_off_c, 0, 75, 64
1, 244161, Note_off_c, 0, 41, 62
1, 244176, Note_off_c, 0, 69, 63
1, 244176, Note_off_c, 0, 78, 60
1, 244208, Note_on_c, 0, 43, 87
1, 244208, Note_on_c, 0, 77, 91
1, 244214, Note_on_c, 0, 73, 91
1, 244269, Note_off_c, 0, 73, 62
1, 244276, Note_off_c, 0, 77, 61
1, 244277, Note_on_c, 0, 35, 85
1, 244281, Note_on_c, 0, 76, 88
1, 244287, Note_off_c, 0, 43, 59
1, 244291, Note_on_c, 0, 67, 86
1, 244316, Note_off_c, 0, 76, 64
1, 244327, Note_on_c, 0, 29, 98
1, 244333, Note_off_c, 0, 67, 63
1, 244352, Note_off_c, 0, 35, 63
1, 244361, Note_off_c, 0, 29, 69
1, 244376, Note_on_c, 0, 75, 97
1, 244385, Note_on_c, 0, 71, 86
1, 244432, Note_off_c, 0, 75, 55
1, 244450, Note_off_c, 0, 71, 51
1, 244454, Note_on_c, 0, 74, 90
1, 244456, Note_on_c, 0, 65, 84
1, 244486, Note_off_c, 0, 74, 62
1, 244489, Note_on_c, 0, 73, 33
1, 244489, Note_off_c, 0, 73, 127
1, 244498, Note_off_c, 0, 65, 61
1, 244544, Note_on_c, 0, 73, 72
1, 244551, Note_on_c, 0, 69, 83
1, 244590, Note_off_c, 0, 73, 60
1, 244597, Note_off_c, 0, 69, 58
1, 244618, Note_on_c, 0, 72, 92
1, 244623, Note_on_c, 0, 63, 98
1, 244638, Note_on_c, 0, 73, 35
1, 244653, Note_off_c, 0, 72, 66
1, 244664, Note_off_c, 0, 63, 65
1, 244664, Note_off_c, 0, 73, 57
1, 244708, Control_c, 0, 64, 69
1, 244709, Note_on_c, 0, 50, 106
1, 244710, Note_on_c, 0, 41, 96
1, 244710, Note_on_c, 0, 71, 103
1, 244715, Note_on_c, 0, 67, 91
1, 244723, Control_c, 0, 64, 0
1, 244753, Control_c, 0, 64, 41
1, 244760, Note_off_c, 0, 41, 66
1, 244769, Control_c, 0, 64, 69
1, 244769, Note_off_c, 0, 71, 64
1, 244781, Note_on_c, 0, 49, 102
1, 244781, Note_on_c, 0, 53, 98
1, 244784, Note_off_c, 0, 67, 65
1, 244784, Control_c, 0, 64, 127
1, 244788, Note_off_c, 0, 50, 63
1, 244808, Note_on_c, 0, 70, 98
1, 244816, Note_off_c, 0, 49, 67
1, 244817, Note_on_c, 0, 61, 100
1, 244817, Note_off_c, 0, 53, 65
1, 244854, Note_off_c, 0, 61, 67
1, 244856, Note_off_c, 0, 70, 68
1, 244905, Note_on_c, 0, 69, 97
1, 244908, Note_on_c, 0, 65, 101
1, 244945, Note_off_c, 0, 65, 67
1, 244945, Note_off_c, 0, 69, 64
1, 244986, Note_on_c, 0, 68, 103
1, 244992, Note_on_c, 0, 59, 98
1, 245019, Note_off_c, 0, 59, 63
1, 245048, Note_off_c, 0, 68, 72
1, 245064, Note_on_c, 0, 60, 2
1, 245113, Note_off_c, 0, 60, 41
1, 245126, Note_on_c, 0, 71, 108
1, 245130, Note_on_c, 0, 67, 104
1, 245143, Note_on_c, 0, 29, 109
1, 245146, Control_c, 0, 64, 115
1, 245160, Note_on_c, 0, 31, 63
1, 245161, Control_c, 0, 64, 66
1, 245176, Control_c, 0, 64, 0
1, 245220, Control_c, 0, 64, 44
1, 245235, Control_c, 0, 64, 74
1, 245237, Note_on_c, 0, 33, 54
1, 245237, Note_on_c, 0, 35, 79
1, 245250, Control_c, 0, 64, 127
1, 245270, Note_on_c, 0, 70, 94
1, 245270, Note_off_c, 0, 67, 41
1, 245273, Note_off_c, 0, 29, 62
1, 245276, Note_on_c, 0, 61, 80
1, 245280, Note_off_c, 0, 71, 61
1, 245285, Note_off_c, 0, 33, 63
1, 245288, Note_off_c, 0, 31, 41
1, 245303, Note_off_c, 0, 35, 64
1, 245307, Note_off_c, 0, 61, 65
1, 245314, Note_off_c, 0, 70, 67
1, 245326, Note_on_c, 0, 43, 54
1, 245353, Note_off_c, 0, 43, 54
1, 245360, Note_on_c, 0, 69, 88
1, 245368, Note_on_c, 0, 65, 81
1, 245378, Note_on_c, 0, 41, 90
1, 245412, Note_off_c, 0, 65, 62
1, 245434, Note_on_c, 0, 47, 79
1, 245437, Note_on_c, 0, 59, 86
1, 245438, Note_off_c, 0, 69, 60
1, 245442, Note_on_c, 0, 68, 91
1, 245473, Poly_aftertouch_c, 0, 45, 127
1, 245484, Note_off_c, 0, 59, 63
1, 245488, Note_off_c, 0, 68, 61
1, 245505, Note_off_c, 0, 47, 63
1, 245513, Note_on_c, 0, 55, 89
1, 245526, Note_on_c, 0, 67, 94
1, 245529, Poly_aftertouch_c, 0, 45, 0
1, 245535, Note_on_c, 0, 63, 92
1, 245555, Note_on_c, 0, 47, 67
1, 245556, Note_off_c, 0, 41, 63
1, 245559, Note_off_c, 0, 55, 66
1, 245606, Note_off_c, 0, 67, 64
1, 245608, Note_on_c, 0, 66, 94
1, 245611, Note_off_c, 0, 63, 61
1, 245614, Poly_aftertouch_c, 0, 45, 0
1, 245617, Note_on_c, 0, 57, 78
1, 245624, Note_on_c, 0, 41, 74
1, 245633, Note_off_c, 0, 47, 64
1, 245660, Note_off_c, 0, 57, 60
1, 245660, Note_off_c, 0, 66, 65
1, 245662, Note_off_c, 0, 41, 60
1, 245699, Note_on_c, 0, 65, 78
1, 245705, Note_on_c, 0, 61, 79
1, 245720, Note_on_c, 0, 43, 71
1, 245760, Note_off_c, 0, 65, 63
1, 245761, Note_off_c, 0, 61, 62
1, 245765, Note_on_c, 0, 64, 82
1, 245777, Note_off_c, 0, 43, 58
1, 245783, Note_on_c, 0, 55, 73
1, 245784, Note_on_c, 0, 35, 72
1, 245803, Note_off_c, 0, 64, 61
1, 245816, Note_off_c, 0, 55, 61
1, 245826, Note_on_c, 0, 29, 84
1, 245845, Note_off_c, 0, 35, 62
1, 245864, Note_off_c, 0, 29, 64
1, 245867, Note_on_c, 0, 63, 81
1, 245885, Note_on_c, 0, 59, 74
1, 245929, Note_off_c, 0, 63, 60
1, 245938, Note_off_c, 0, 59, 47
1, 245939, Control_c, 0, 67, 42
1, 245950, Note_on_c, 0, 62, 77
1, 245954, Control_c, 0, 67, 62
1, 245955, Note_on_c, 0, 53, 75
1, 245969, Control_c, 0, 67, 82
1, 245977, Note_off_c, 0, 62, 66
1, 245984, Control_c, 0, 67, 109
1, 245995, Note_off_c, 0, 53, 62
1, 245999, Control_c, 0, 67, 127
1, 246033, Note_on_c, 0, 61, 24
1, 246055, Note_on_c, 0, 57, 77
1, 246112, Note_off_c, 0, 61, 52
1, 246124, Note_on_c, 0, 60, 81
1, 246126, Note_off_c, 0, 57, 59
1, 246141, Note_on_c, 0, 51, 84
1, 246173, Note_off_c, 0, 60, 64
1, 246185, Note_off_c, 0, 51, 60
1, 246221, Control_c, 0, 64, 115
1, 246234, Note_on_c, 0, 59, 88
1, 246236, Control_c, 0, 64, 69
1, 246246, Note_on_c, 0, 55, 75
1, 246251, Control_c, 0, 64, 31
1, 246265, Control_c, 0, 64, 0
1, 246295, Control_c, 0, 64, 43
1, 246302, Note_off_c, 0, 55, 64
1, 246310, Control_c, 0, 64, 62
1, 246322, Note_off_c, 0, 59, 61
1, 246325, Control_c, 0, 64, 75
1, 246327, Note_on_c, 0, 58, 81
1, 246335, Note_on_c, 0, 49, 76
1, 246340, Control_c, 0, 64, 92
1, 246355, Control_c, 0, 64, 127
1, 246361, Note_off_c, 0, 49, 66
1, 246370, Note_off_c, 0, 58, 60
1, 246420, Note_on_c, 0, 57, 70
1, 246423, Note_on_c, 0, 53, 68
1, 246474, Note_on_c, 0, 56, 91
1, 246474, Control_c, 0, 67, 116
1, 246480, Note_on_c, 0, 47, 58
1, 246483, Note_off_c, 0, 57, 62
1, 246485, Note_off_c, 0, 53, 37
1, 246489, Control_c, 0, 67, 0
1, 246504, Note_off_c, 0, 47, 59
1, 246509, Note_off_c, 0, 56, 63
1, 246590, Note_on_c, 0, 59, 90
1, 246594, Note_on_c, 0, 55, 74
1, 246628, Note_off_c, 0, 55, 63
1, 246632, Note_on_c, 0, 61, 91
1, 246634, Note_on_c, 0, 49, 62
1, 246644, Note_off_c, 0, 59, 62
1, 246651, Note_on_c, 0, 58, 76
1, 246655, Note_off_c, 0, 61, 69
1, 246671, Note_off_c, 0, 49, 64
1, 246672, Note_off_c, 0, 58, 69
1, 246716, Note_on_c, 0, 61, 55
1, 246716, Note_off_c, 0, 61, 127
1, 246742, Note_on_c, 0, 57, 63
1, 246749, Note_on_c, 0, 62, 29
1, 246750, Note_on_c, 0, 53, 61
1, 246768, Note_on_c, 0, 61, 71
1, 246789, Note_off_c, 0, 62, 46
1, 246792, Note_off_c, 0, 57, 60
1, 246793, Note_off_c, 0, 61, 64
1, 246814, Note_on_c, 0, 56, 73
1, 246814, Note_off_c, 0, 53, 62
1, 246817, Note_on_c, 0, 47, 42
1, 246835, Poly_aftertouch_c, 0, 61, 0
1, 246845, Note_off_c, 0, 56, 64
1, 246852, Control_c, 0, 64, 75
1, 246854, Note_off_c, 0, 47, 44
1, 246867, Control_c, 0, 64, 51
1, 246871, Note_on_c, 0, 61, 89
1, 246882, Control_c, 0, 64, 37
1, 246896, Control_c, 0, 64, 51
1, 246897, Note_off_c, 0, 61, 60
1, 246911, Control_c, 0, 64, 64
1, 246926, Control_c, 0, 64, 78
1, 246927, Note_on_c, 0, 59, 79
1, 246927, Note_on_c, 0, 55, 77
1, 246929, Note_on_c, 0, 61, 80
1, 246941, Control_c, 0, 64, 127
1, 246957, Note_off_c, 0, 61, 65
1, 246963, Note_off_c, 0, 59, 59
1, 246966, Note_off_c, 0, 55, 57
1, 247008, Note_on_c, 0, 49, 51
1, 247008, Note_on_c, 0, 58, 77
1, 247034, Note_off_c, 0, 58, 66
1, 247040, Note_off_c, 0, 49, 60
1, 247070, Note_on_c, 0, 62, 75
1, 247115, Note_on_c, 0, 57, 55
1, 247119, Note_on_c, 0, 53, 63
1, 247128, Note_on_c, 0, 61, 68
1, 247143, Note_off_c, 0, 62, 59
1, 247148, Control_c, 0, 64, 83
1, 247163, Note_off_c, 0, 57, 62
1, 247164, Control_c, 0, 64, 62
1, 247179, Control_c, 0, 64, 0
1, 247188, Note_off_c, 0, 53, 62
1, 247200, Note_on_c, 0, 56, 58
1, 247237, Note_off_c, 0, 56, 63
1, 247253, Control_c, 0, 64, 36
1, 247253, Control_c, 0, 67, 36
1, 247267, Control_c, 0, 64, 51
1, 247267, Control_c, 0, 67, 54
1, 247276, Note_on_c, 0, 59, 72
1, 247282, Control_c, 0, 64, 63
1, 247282, Control_c, 0, 67, 74
1, 247297, Control_c, 0, 64, 70
1, 247297, Control_c, 0, 67, 109
1, 247303, Note_on_c, 0, 55, 53
1, 247312, Control_c, 0, 64, 77
1, 247312, Control_c, 0, 67, 127
1, 247321, Note_off_c, 0, 59, 57
1, 247327, Control_c, 0, 64, 82
1, 247349, Control_c, 0, 64, 86
1, 247364, Control_c, 0, 64, 89
1, 247379, Control_c, 0, 64, 92
1, 247383, Note_off_c, 0, 55, 61
1, 247389, Note_on_c, 0, 49, 45
1, 247393, Control_c, 0, 64, 96
1, 247407, Note_on_c, 0, 58, 56
1, 247408, Control_c, 0, 64, 99
1, 247410, Note_off_c, 0, 61, 61
1, 247422, Note_off_c, 0, 49, 54
1, 247423, Control_c, 0, 64, 101
1, 247434, Note_off_c, 0, 58, 62
1, 247438, Control_c, 0, 64, 104
1, 247453, Control_c, 0, 64, 106
1, 247467, Control_c, 0, 64, 110
1, 247482, Note_on_c, 0, 57, 58
1, 247482, Control_c, 0, 64, 113
1, 247497, Control_c, 0, 64, 116
1, 247526, Note_on_c, 0, 53, 47
1, 247526, Control_c, 0, 64, 118
1, 247536, Note_off_c, 0, 57, 50
1, 247556, Control_c, 0, 64, 120
1, 247600, Note_on_c, 0, 47, 59
1, 247600, Note_off_c, 0, 53, 60
1, 247601, Note_on_c, 0, 56, 58
1, 247628, Note_off_c, 0, 56, 56
1, 247631, Note_off_c, 0, 47, 65
1, 247675, Control_c, 0, 64, 122
1, 247733, Control_c, 0, 64, 127
1, 247807, Control_c, 0, 64, 98
1, 247808, Note_on_c, 0, 59, 67
1, 247822, Control_c, 0, 64, 72
1, 247836, Note_on_c, 0, 55, 46
1, 247836, Control_c, 0, 64, 53
1, 247846, Note_on_c, 0, 29, 56
1, 247850, Note_on_c, 0, 41, 54
1, 247851, Control_c, 0, 64, 37
1, 247866, Control_c, 0, 64, 42
1, 247881, Control_c, 0, 64, 53
1, 247884, Note_off_c, 0, 29, 62
1, 247891, Note_off_c, 0, 41, 51
1, 247896, Control_c, 0, 64, 66
1, 247911, Control_c, 0, 64, 79
1, 247924, Note_off_c, 0, 59, 60
1, 247926, Control_c, 0, 64, 100
1, 247941, Control_c, 0, 64, 127
1, 247947, Note_off_c, 0, 55, 62
1, 247947, Note_on_c, 0, 58, 63
1, 247968, Note_on_c, 0, 49, 61
1, 247977, Note_off_c, 0, 58, 66
1, 247999, Note_off_c, 0, 49, 63
1, 248055, Note_on_c, 0, 57, 58
1, 248060, Control_c, 0, 67, 107
1, 248063, Note_on_c, 0, 53, 47
1, 248075, Control_c, 0, 67, 0
1, 248098, Note_off_c, 0, 53, 54
1, 248116, Note_off_c, 0, 57, 43
1, 248117, Note_on_c, 0, 47, 68
1, 248119, Note_on_c, 0, 56, 82
1, 248138, Note_off_c, 0, 47, 61
1, 248146, Note_off_c, 0, 56, 68
1, 248216, Note_on_c, 0, 59, 88
1, 248220, Note_on_c, 0, 55, 78
1, 248254, Note_off_c, 0, 55, 60
1, 248269, Note_on_c, 0, 61, 79
1, 248270, Note_off_c, 0, 59, 57
1, 248277, Note_on_c, 0, 58, 76
1, 248280, Note_on_c, 0, 49, 66
1, 248289, Note_off_c, 0, 61, 71
1, 248300, Note_off_c, 0, 58, 66
1, 248316, Note_off_c, 0, 49, 63
1, 248332, Note_on_c, 0, 61, 80
1, 248350, Note_off_c, 0, 61, 65
1, 248367, Note_on_c, 0, 57, 77
1, 248391, Note_on_c, 0, 61, 72
1, 248398, Note_on_c, 0, 53, 59
1, 248416, Note_off_c, 0, 61, 65
1, 248419, Note_off_c, 0, 57, 54
1, 248441, Note_off_c, 0, 53, 60
1, 248450, Poly_aftertouch_c, 0, 61, 0
1, 248452, Note_on_c, 0, 56, 60
1, 248453, Control_c, 0, 64, 83
1, 248453, Note_on_c, 0, 47, 45
1, 248467, Control_c, 0, 64, 57
1, 248480, Note_off_c, 0, 56, 66
1, 248481, Note_off_c, 0, 47, 56
1, 248482, Control_c, 0, 64, 0
1, 248497, Note_on_c, 0, 61, 79
1, 248527, Control_c, 0, 64, 45
1, 248528, Note_off_c, 0, 61, 65
1, 248541, Control_c, 0, 64, 61
1, 248556, Control_c, 0, 64, 70
1, 248564, Note_on_c, 0, 61, 81
1, 248571, Control_c, 0, 64, 75
1, 248577, Note_on_c, 0, 59, 72
1, 248586, Note_on_c, 0, 55, 54
1, 248586, Control_c, 0, 64, 75
1, 248587, Note_off_c, 0, 61, 70
1, 248612, Note_off_c, 0, 59, 60
1, 248635, Note_off_c, 0, 55, 57
1, 248680, Note_on_c, 0, 58, 56
1, 248683, Note_on_c, 0, 49, 21
1, 248689, Control_c, 0, 64, 75
1, 248704, Note_off_c, 0, 58, 60
1, 248704, Control_c, 0, 67, 36
1, 248719, Control_c, 0, 64, 74
1, 248719, Control_c, 0, 67, 47
1, 248730, Note_on_c, 0, 62, 73
1, 248732, Note_off_c, 0, 49, 41
1, 248734, Control_c, 0, 67, 58
1, 248749, Control_c, 0, 67, 75
1, 248764, Control_c, 0, 67, 101
1, 248779, Control_c, 0, 67, 127
1, 248786, Note_on_c, 0, 57, 47
1, 248797, Note_on_c, 0, 53, 43
1, 248799, Note_on_c, 0, 61, 56
1, 248808, Note_off_c, 0, 62, 63
1, 248824, Control_c, 0, 64, 67
1, 248846, Control_c, 0, 64, 50
1, 248861, Control_c, 0, 64, 0
1, 248870, Note_on_c, 0, 47, 40
1, 248886, Note_off_c, 0, 53, 59
1, 248889, Note_off_c, 0, 57, 62
1, 248897, Note_on_c, 0, 56, 50
1, 248905, Control_c, 0, 64, 43
1, 248909, Note_off_c, 0, 47, 58
1, 248920, Control_c, 0, 64, 60
1, 248935, Control_c, 0, 64, 68
1, 248936, Note_off_c, 0, 56, 63
1, 248950, Control_c, 0, 64, 75
1, 248964, Control_c, 0, 64, 80
1, 248979, Control_c, 0, 64, 83
1, 248994, Control_c, 0, 64, 87
1, 249008, Note_on_c, 0, 59, 58
1, 249009, Control_c, 0, 64, 90
1, 249021, Note_on_c, 0, 55, 60
1, 249024, Control_c, 0, 64, 89
1, 249038, Control_c, 0, 64, 85
1, 249051, Note_off_c, 0, 59, 59
1, 249053, Control_c, 0, 64, 75
1, 249068, Control_c, 0, 64, 66
1, 249082, Control_c, 0, 64, 61
1, 249097, Control_c, 0, 64, 64
1, 249102, Note_off_c, 0, 55, 61
1, 249107, Note_on_c, 0, 58, 60
1, 249112, Control_c, 0, 64, 72
1, 249127, Control_c, 0, 64, 89
1, 249142, Control_c, 0, 64, 127
1, 249160, Note_off_c, 0, 58, 59
1, 249231, Note_off_c, 0, 61, 62
1, 249233, Note_on_c, 0, 57, 49
1, 249237, Note_on_c, 0, 53, 52
1, 249332, Note_off_c, 0, 57, 57
1, 249384, Note_on_c, 0, 56, 62
1, 249439, Control_c, 0, 67, 96
1, 249454, Control_c, 0, 67, 0
1, 249477, Note_off_c, 0, 53, 34
1, 249670, Control_c, 0, 64, 98
1, 249675, Note_on_c, 0, 69, 56
1, 249685, Control_c, 0, 64, 70
1, 249693, Note_off_c, 0, 56, 58
1, 249694, Note_on_c, 0, 59, 49
1, 249698, Note_on_c, 0, 65, 39
1, 249699, Control_c, 0, 64, 46
1, 249704, Note_on_c, 0, 51, 40
1, 249714, Control_c, 0, 64, 0
1, 249744, Control_c, 0, 64, 51
1, 249757, Note_off_c, 0, 59, 63
1, 249759, Control_c, 0, 64, 67
1, 249774, Control_c, 0, 64, 89
1, 249786, Note_off_c, 0, 51, 61
1, 249788, Control_c, 0, 64, 127
1, 249838, Note_off_c, 0, 65, 61
1, 249887, Note_on_c, 0, 59, 62
1, 249896, Note_off_c, 0, 69, 61
1, 249911, Note_on_c, 0, 68, 51
1, 249944, Note_off_c, 0, 68, 64
1, 249952, Note_off_c, 0, 59, 54
1, 250018, Note_on_c, 0, 41, 72
1, 250048, Note_on_c, 0, 67, 67
1, 250048, Note_off_c, 0, 41, 65
1, 250071, Note_on_c, 0, 63, 54
1, 250085, Poly_aftertouch_c, 0, 29, 127
1, 250114, Note_off_c, 0, 67, 60
1, 250117, Note_off_c, 0, 63, 59
1, 250126, Poly_aftertouch_c, 0, 29, 0
1, 250179, Note_on_c, 0, 57, 63
1, 250185, Note_on_c, 0, 66, 66
1, 250212, Note_off_c, 0, 57, 64
1, 250228, Note_off_c, 0, 66, 62
1, 250293, Note_on_c, 0, 69, 68
1, 250311, Note_on_c, 0, 65, 60
1, 250340, Note_on_c, 0, 63, 63
1, 250348, Note_on_c, 0, 59, 44
1, 250436, Note_off_c, 0, 59, 59
1, 250448, Note_on_c, 0, 53, 61
1, 250462, Note_on_c, 0, 62, 67
1, 250481, Note_off_c, 0, 63, 34
1, 250506, Note_off_c, 0, 62, 59
1, 250552, Note_off_c, 0, 53, 61
1, 250560, Note_on_c, 0, 57, 65
1, 250564, Note_on_c, 0, 61, 73
1, 250597, Note_off_c, 0, 65, 60
1, 250618, Note_off_c, 0, 57, 64
1, 250641, Note_off_c, 0, 61, 64
1, 250646, Note_on_c, 0, 60, 80
1, 250662, Note_on_c, 0, 51, 78
1, 250696, Note_off_c, 0, 60, 61
1, 250759, Control_c, 0, 64, 75
1, 250774, Control_c, 0, 64, 40
1, 250785, Note_on_c, 0, 63, 86
1, 250789, Control_c, 0, 64, 0
1, 250793, Note_on_c, 0, 59, 70
1, 250804, Note_off_c, 0, 51, 62
1, 250818, Control_c, 0, 64, 44
1, 250832, Note_off_c, 0, 59, 64
1, 250833, Control_c, 0, 64, 68
1, 250835, Note_off_c, 0, 63, 61
1, 250848, Control_c, 0, 64, 108
1, 250862, Control_c, 0, 64, 127
1, 250916, Note_on_c, 0, 68, 67
1, 250919, Note_on_c, 0, 59, 67
1, 250921, Note_off_c, 0, 69, 58
1, 250954, Note_off_c, 0, 59, 61
1, 250965, Note_off_c, 0, 68, 58
1, 251025, Note_on_c, 0, 67, 71
1, 251040, Note_on_c, 0, 63, 60
1, 251072, Note_off_c, 0, 63, 65
1, 251097, Note_off_c, 0, 67, 58
1, 251127, Note_on_c, 0, 57, 71
1, 251130, Note_on_c, 0, 66, 77
1, 251159, Note_off_c, 0, 57, 67
1, 251227, Note_off_c, 0, 66, 61
1, 251240, Note_on_c, 0, 59, 68
1, 251245, Note_on_c, 0, 63, 78
1, 251330, Note_off_c, 0, 59, 63
1, 251331, Note_off_c, 0, 63, 60
1, 251334, Note_on_c, 0, 53, 69
1, 251342, Note_on_c, 0, 62, 71
1, 251384, Note_off_c, 0, 62, 60
1, 251389, Note_off_c, 0, 53, 51
1, 251436, Note_on_c, 0, 57, 71
1, 251440, Note_on_c, 0, 61, 73
1, 251476, Note_off_c, 0, 57, 63
1, 251488, Note_off_c, 0, 61, 62
1, 251520, Note_on_c, 0, 60, 75
1, 251557, Note_off_c, 0, 60, 63
1, 251597, Control_c, 0, 64, 96
1, 251612, Control_c, 0, 64, 66
1, 251613, Note_on_c, 0, 58, 81
1, 251625, Note_on_c, 0, 59, 80
1, 251626, Control_c, 0, 64, 41
1, 251627, Poly_aftertouch_c, 0, 57, 0
1, 251641, Control_c, 0, 64, 46
1, 251656, Control_c, 0, 64, 61
1, 251671, Control_c, 0, 64, 79
1, 251678, Note_off_c, 0, 58, 64
1, 251679, Note_off_c, 0, 59, 65
1, 251685, Control_c, 0, 64, 127
1, 251720, Note_on_c, 0, 69, 71
1, 251774, Control_c, 0, 64, 90
1, 251789, Control_c, 0, 64, 56
1, 251794, Note_on_c, 0, 41, 83
1, 251798, Note_on_c, 0, 65, 73
1, 251804, Control_c, 0, 64, 0
1, 251815, Note_off_c, 0, 41, 69
1, 251841, Control_c, 0, 64, 50
1, 251856, Control_c, 0, 64, 69
1, 251871, Control_c, 0, 64, 100
1, 251885, Control_c, 0, 64, 127
1, 251905, Poly_aftertouch_c, 0, 40, 0
1, 251914, Note_on_c, 0, 68, 77
1, 251916, Note_off_c, 0, 69, 61
1, 251919, Note_off_c, 0, 65, 64
1, 251935, Note_off_c, 0, 68, 71
1, 251962, Note_on_c, 0, 49, 67
1, 251972, Note_on_c, 0, 57, 76
1, 251978, Note_on_c, 0, 61, 99
1, 251990, Control_c, 0, 64, 65
1, 252005, Control_c, 0, 64, 0
1, 252117, Note_on_c, 0, 67, 91
1, 252123, Control_c, 0, 64, 72
1, 252138, Control_c, 0, 64, 127
1, 252142, Note_off_c, 0, 61, 65
1, 252157, Note_off_c, 0, 57, 63
1, 252166, Note_on_c, 0, 63, 84
1, 252180, Note_off_c, 0, 49, 65
1, 252194, Note_off_c, 0, 67, 61
1, 252241, Note_on_c, 0, 66, 85
1, 252251, Note_off_c, 0, 63, 62
1, 252260, Note_off_c, 0, 66, 72
1, 252316, Control_c, 0, 67, 79
1, 252331, Control_c, 0, 64, 80
1, 252331, Control_c, 0, 67, 127
1, 252342, Note_on_c, 0, 29, 57
1, 252346, Control_c, 0, 64, 39
1, 252361, Control_c, 0, 64, 0
1, 252382, Note_on_c, 0, 41, 43
1, 252390, Note_on_c, 0, 58, 72
1, 252397, Note_on_c, 0, 49, 71
1, 252418, Note_off_c, 0, 41, 51
1, 252424, Note_on_c, 0, 61, 54
1, 252439, Note_off_c, 0, 58, 55
1, 252448, Note_on_c, 0, 57, 62
1, 252503, Note_on_c, 0, 41, 69
1, 252533, Note_off_c, 0, 41, 65
1, 252590, Control_c, 0, 64, 40
1, 252594, Note_on_c, 0, 41, 74
1, 252605, Control_c, 0, 64, 58
1, 252620, Control_c, 0, 64, 62
1, 252622, Note_off_c, 0, 41, 66
1, 252634, Control_c, 0, 64, 66
1, 252649, Control_c, 0, 64, 68
1, 252656, Note_off_c, 0, 49, 53
1, 252659, Note_on_c, 0, 41, 83
1, 252664, Control_c, 0, 64, 69
1, 252679, Control_c, 0, 64, 70
1, 252681, Note_off_c, 0, 57, 62
1, 252686, Note_off_c, 0, 41, 67
1, 252694, Control_c, 0, 64, 72
1, 252696, Note_off_c, 0, 61, 63
1, 252708, Control_c, 0, 64, 77
1, 252723, Control_c, 0, 64, 86
1, 252728, Note_on_c, 0, 58, 84
1, 252738, Control_c, 0, 64, 89
1, 252742, Note_on_c, 0, 41, 69
1, 252743, Note_on_c, 0, 49, 93
1, 252745, Note_on_c, 0, 61, 87
1, 252746, Note_on_c, 0, 57, 84
1, 252754, Control_c, 0, 64, 87
1, 252761, Note_off_c, 0, 41, 67
1, 252769, Control_c, 0, 64, 77
1, 252779, Note_off_c, 0, 58, 64
1, 252784, Control_c, 0, 64, 64
1, 252799, Control_c, 0, 64, 57
1, 252813, Control_c, 0, 64, 62
1, 252828, Control_c, 0, 64, 67
1, 252843, Control_c, 0, 64, 78
1, 252849, Note_on_c, 0, 41, 70
1, 252857, Control_c, 0, 64, 108
1, 252866, Note_off_c, 0, 49, 62
1, 252872, Control_c, 0, 64, 127
1, 252882, Note_off_c, 0, 41, 67
1, 252916, Note_off_c, 0, 57, 62
1, 252932, Note_on_c, 0, 41, 79
1, 252946, Note_off_c, 0, 61, 61
1, 252961, Control_c, 0, 67, 116
1, 252964, Note_off_c, 0, 41, 66
1, 252976, Control_c, 0, 67, 0
1, 253009, Note_on_c, 0, 41, 79
1, 253044, Note_off_c, 0, 41, 65
1, 253081, Note_on_c, 0, 41, 83
1, 253101, Note_off_c, 0, 29, 50
1, 253106, Note_off_c, 0, 41, 71
1, 253154, Control_c, 0, 64, 77
1, 253169, Control_c, 0, 64, 32
1, 253184, Control_c, 0, 64, 0
1, 253186, Note_on_c, 0, 67, 76
1, 253205, Note_on_c, 0, 63, 69
1, 253212, Note_on_c, 0, 57, 68
1, 253214, Note_on_c, 0, 49, 71
1, 253228, Control_c, 0, 64, 53
1, 253241, Note_off_c, 0, 57, 67
1, 253243, Control_c, 0, 64, 68
1, 253245, Note_off_c, 0, 49, 64
1, 253257, Control_c, 0, 64, 82
1, 253272, Control_c, 0, 64, 105
1, 253287, Control_c, 0, 64, 127
1, 253317, Note_off_c, 0, 63, 61
1, 253348, Note_off_c, 0, 67, 61
1, 253355, Note_on_c, 0, 66, 71
1, 253360, Note_on_c, 0, 57, 57
1, 253388, Note_off_c, 0, 66, 62
1, 253393, Note_off_c, 0, 57, 65
1, 253422, Note_on_c, 0, 41, 79
1, 253426, Note_on_c, 0, 29, 71
1, 253446, Note_off_c, 0, 41, 70
1, 253454, Note_off_c, 0, 29, 56
1, 253458, Note_on_c, 0, 65, 70
1, 253463, Note_on_c, 0, 61, 69
1, 253498, Note_off_c, 0, 61, 62
1, 253506, Note_off_c, 0, 65, 50
1, 253535, Note_on_c, 0, 64, 83
1, 253540, Note_on_c, 0, 55, 74
1, 253569, Note_off_c, 0, 55, 66
1, 253589, Note_off_c, 0, 64, 61
1, 253631, Note_on_c, 0, 67, 80
1, 253637, Note_on_c, 0, 63, 79
1, 253648, Note_on_c, 0, 61, 78
1, 253652, Note_on_c, 0, 57, 67
1, 253712, Note_off_c, 0, 61, 60
1, 253721, Note_off_c, 0, 57, 57
1, 253740, Note_on_c, 0, 60, 73
1, 253746, Note_on_c, 0, 51, 78
1, 253762, Note_off_c, 0, 60, 69
1, 253823, Note_on_c, 0, 59, 89
1, 253828, Note_on_c, 0, 55, 81
1, 253840, Note_off_c, 0, 51, 61
1, 253886, Note_off_c, 0, 63, 59
1, 253896, Note_off_c, 0, 59, 63
1, 253913, Note_off_c, 0, 55, 60
1, 253915, Note_on_c, 0, 49, 78
1, 253917, Note_on_c, 0, 58, 90
1, 253959, Note_off_c, 0, 58, 65
1, 253992, Control_c, 0, 64, 73
1, 254007, Control_c, 0, 64, 0
1, 254013, Note_off_c, 0, 49, 63
1, 254022, Note_on_c, 0, 61, 91
1, 254026, Note_on_c, 0, 57, 80
1, 254053, Note_off_c, 0, 57, 70
1, 254058, Note_off_c, 0, 61, 63
1, 254087, Control_c, 0, 64, 64
1, 254102, Control_c, 0, 64, 107
1, 254117, Control_c, 0, 64, 127
1, 254124, Note_off_c, 0, 67, 57
1, 254132, Note_on_c, 0, 66, 79
1, 254141, Note_on_c, 0, 57, 74
1, 254172, Note_off_c, 0, 57, 66
1, 254178, Note_off_c, 0, 66, 61
1, 254236, Note_on_c, 0, 65, 73
1, 254237, Note_on_c, 0, 61, 75
1, 254286, Note_off_c, 0, 61, 62
1, 254314, Note_on_c, 0, 55, 78
1, 254316, Note_on_c, 0, 64, 81
1, 254345, Note_off_c, 0, 65, 49
1, 254353, Note_off_c, 0, 55, 63
1, 254397, Note_on_c, 0, 61, 83
1, 254401, Note_on_c, 0, 57, 74
1, 254472, Note_on_c, 0, 60, 83
1, 254481, Note_on_c, 0, 51, 84
1, 254483, Note_off_c, 0, 57, 61
1, 254483, Note_off_c, 0, 61, 64
1, 254492, Note_off_c, 0, 64, 55
1, 254501, Note_off_c, 0, 60, 66
1, 254531, Note_off_c, 0, 51, 59
1, 254566, Note_on_c, 0, 59, 98
1, 254570, Note_on_c, 0, 55, 89
1, 254602, Note_off_c, 0, 59, 67
1, 254639, Note_on_c, 0, 58, 87
1, 254663, Note_off_c, 0, 55, 56
1, 254666, Control_c, 0, 64, 94
1, 254678, Note_on_c, 0, 57, 47
1, 254681, Control_c, 0, 64, 65
1, 254682, Note_off_c, 0, 58, 63
1, 254695, Control_c, 0, 64, 0
1, 254725, Control_c, 0, 64, 55
1, 254734, Note_on_c, 0, 55, 73
1, 254740, Control_c, 0, 64, 115
1, 254741, Note_on_c, 0, 56, 93
1, 254755, Control_c, 0, 64, 127
1, 254759, Note_on_c, 0, 53, 57
1, 254759, Note_off_c, 0, 53, 127
1, 254765, Note_off_c, 0, 55, 65
1, 254770, Note_off_c, 0, 56, 61
1, 254784, Note_off_c, 0, 57, 67
1, 254828, Note_on_c, 0, 67, 73
1, 254878, Note_on_c, 0, 63, 96
1, 254898, Note_on_c, 0, 41, 72
1, 254920, Note_off_c, 0, 41, 63
1, 254925, Control_c, 0, 64, 92
1, 254940, Control_c, 0, 64, 54
1, 254955, Control_c, 0, 64, 39
1, 254970, Control_c, 0, 64, 62
1, 254985, Control_c, 0, 64, 87
1, 254985, Note_on_c, 0, 66, 92
1, 254994, Poly_aftertouch_c, 0, 40, 0
1, 254999, Control_c, 0, 64, 127
1, 255000, Note_off_c, 0, 67, 63
1, 255002, Note_off_c, 0, 63, 65
1, 255020, Note_off_c, 0, 66, 67
1, 255030, Note_on_c, 0, 56, 83
1, 255041, Note_on_c, 0, 47, 74
1, 255052, Note_on_c, 0, 59, 101
1, 255054, Note_off_c, 0, 56, 70
1, 255067, Note_on_c, 0, 54, 61
1, 255067, Note_on_c, 0, 55, 78
1, 255069, Note_on_c, 0, 53, 74
1, 255074, Control_c, 0, 64, 79
1, 255089, Control_c, 0, 64, 32
1, 255103, Control_c, 0, 64, 0
1, 255111, Note_off_c, 0, 54, 57
1, 255121, Note_off_c, 0, 53, 59
1, 255198, Note_on_c, 0, 65, 92
1, 255208, Control_c, 0, 64, 49
1, 255217, Note_off_c, 0, 59, 64
1, 255223, Control_c, 0, 64, 93
1, 255226, Note_on_c, 0, 61, 86
1, 255238, Control_c, 0, 64, 127
1, 255241, Note_off_c, 0, 55, 64
1, 255251, Note_off_c, 0, 65, 62
1, 255258, Note_off_c, 0, 47, 64
1, 255299, Note_on_c, 0, 64, 90
1, 255307, Note_off_c, 0, 61, 64
1, 255320, Note_off_c, 0, 64, 72
1, 255326, Control_c, 0, 67, 36
1, 255341, Control_c, 0, 67, 99
1, 255356, Control_c, 0, 67, 127
1, 255397, Note_on_c, 0, 29, 67
1, 255440, Note_on_c, 0, 41, 56
1, 255444, Control_c, 0, 64, 102
1, 255459, Control_c, 0, 64, 71
1, 255462, Note_on_c, 0, 56, 74
1, 255465, Note_off_c, 0, 41, 57
1, 255467, Note_on_c, 0, 47, 73
1, 255474, Control_c, 0, 64, 42
1, 255488, Note_on_c, 0, 59, 77
1, 255489, Note_off_c, 0, 56, 67
1, 255489, Control_c, 0, 64, 0
1, 255500, Note_on_c, 0, 55, 72
1, 255557, Note_on_c, 0, 41, 70
1, 255591, Note_off_c, 0, 41, 66
1, 255615, Control_c, 0, 64, 30
1, 255630, Control_c, 0, 64, 50
1, 255644, Note_on_c, 0, 41, 79
1, 255645, Control_c, 0, 64, 65
1, 255659, Control_c, 0, 64, 71
1, 255669, Note_off_c, 0, 41, 67
1, 255674, Control_c, 0, 64, 78
1, 255676, Note_off_c, 0, 55, 58
1, 255689, Control_c, 0, 64, 85
1, 255702, Note_off_c, 0, 59, 60
1, 255703, Note_off_c, 0, 47, 45
1, 255704, Control_c, 0, 64, 90
1, 255712, Note_on_c, 0, 41, 89
1, 255719, Control_c, 0, 64, 91
1, 255733, Control_c, 0, 64, 92
1, 255748, Control_c, 0, 64, 97
1, 255751, Note_off_c, 0, 41, 66
1, 255763, Control_c, 0, 64, 111
1, 255778, Control_c, 0, 64, 127
1, 255791, Note_on_c, 0, 56, 83
1, 255799, Note_on_c, 0, 47, 80
1, 255824, Note_on_c, 0, 59, 81
1, 255827, Note_on_c, 0, 57, 69
1, 255831, Note_on_c, 0, 55, 74
1, 255837, Control_c, 0, 64, 118
1, 255852, Control_c, 0, 64, 73
1, 255855, Note_off_c, 0, 56, 65
1, 255864, Note_off_c, 0, 57, 59
1, 255867, Control_c, 0, 64, 43
1, 255882, Control_c, 0, 64, 32
1, 255897, Control_c, 0, 64, 45
1, 255908, Note_on_c, 0, 41, 84
1, 255912, Control_c, 0, 64, 62
1, 255926, Control_c, 0, 64, 80
1, 255931, Note_off_c, 0, 41, 67
1, 255941, Control_c, 0, 64, 127
1, 255941, Control_c, 0, 67, 116
1, 255956, Control_c, 0, 67, 38
1, 255959, Note_off_c, 0, 47, 63
1, 255971, Control_c, 0, 67, 0
1, 255981, Note_on_c, 0, 58, 29
1, 255986, Note_on_c, 0, 41, 86
1, 256005, Note_off_c, 0, 55, 63
1, 256017, Note_off_c, 0, 58, 43
1, 256019, Note_off_c, 0, 41, 65
1, 256022, Note_off_c, 0, 59, 65
1, 256069, Note_on_c, 0, 41, 88
1, 256104, Note_off_c, 0, 41, 67
1, 256137, Note_on_c, 0, 41, 78
1, 256150, Note_off_c, 0, 29, 52
1, 256171, Note_off_c, 0, 41, 65
1, 256223, Control_c, 0, 64, 73
1, 256230, Note_on_c, 0, 65, 80
1, 256238, Control_c, 0, 64, 37
1, 256242, Note_on_c, 0, 61, 75
1, 256253, Control_c, 0, 64, 0
1, 256268, Note_on_c, 0, 55, 76
1, 256282, Control_c, 0, 64, 43
1, 256292, Note_off_c, 0, 55, 69
1, 256297, Control_c, 0, 64, 65
1, 256309, Note_on_c, 0, 45, 23
1, 256312, Control_c, 0, 64, 95
1, 256335, Control_c, 0, 64, 127
1, 256341, Note_off_c, 0, 61, 61
1, 256341, Note_off_c, 0, 65, 57
1, 256362, Note_off_c, 0, 45, 44
1, 256375, Note_on_c, 0, 64, 75
1, 256376, Note_on_c, 0, 55, 70
1, 256403, Note_off_c, 0, 64, 67
1, 256426, Note_off_c, 0, 55, 59
1, 256471, Note_on_c, 0, 41, 84
1, 256481, Note_on_c, 0, 29, 67
1, 256483, Note_on_c, 0, 63, 82
1, 256490, Note_off_c, 0, 41, 69
1, 256502, Note_on_c, 0, 59, 60
1, 256523, Note_off_c, 0, 59, 65
1, 256524, Note_on_c, 0, 58, 28
1, 256529, Note_off_c, 0, 29, 45
1, 256538, Note_off_c, 0, 63, 61
1, 256562, Note_off_c, 0, 58, 41
1, 256568, Note_on_c, 0, 62, 84
1, 256570, Note_on_c, 0, 53, 74
1, 256595, Note_off_c, 0, 53, 66
1, 256615, Note_off_c, 0, 62, 64
1, 256649, Note_on_c, 0, 59, 82
1, 256650, Note_on_c, 0, 65, 89
1, 256651, Note_on_c, 0, 61, 87
1, 256660, Note_on_c, 0, 55, 82
1, 256705, Note_off_c, 0, 59, 63
1, 256733, Note_off_c, 0, 55, 61
1, 256735, Note_on_c, 0, 58, 87
1, 256749, Note_on_c, 0, 49, 69
1, 256784, Note_off_c, 0, 58, 64
1, 256818, Note_on_c, 0, 57, 86
1, 256818, Note_off_c, 0, 49, 62
1, 256827, Note_on_c, 0, 53, 83
1, 256892, Note_off_c, 0, 53, 59
1, 256892, Note_off_c, 0, 57, 53
1, 256896, Note_on_c, 0, 56, 85
1, 256926, Note_off_c, 0, 61, 59
1, 256942, Control_c, 0, 64, 100
1, 256951, Note_off_c, 0, 56, 64
1, 256957, Control_c, 0, 64, 61
1, 256958, Note_on_c, 0, 47, 56
1, 256971, Control_c, 0, 64, 0
1, 256973, Note_on_c, 0, 55, 98
1, 256973, Note_on_c, 0, 59, 101
1, 256976, Note_off_c, 0, 65, 57
1, 256983, Note_off_c, 0, 47, 60
1, 257005, Note_off_c, 0, 55, 66
1, 257008, Note_off_c, 0, 59, 66
1, 257016, Control_c, 0, 64, 64
1, 257030, Control_c, 0, 64, 127
1, 257131, Note_on_c, 0, 65, 84
1, 257175, Note_on_c, 0, 61, 97
1, 257208, Note_off_c, 0, 65, 62
1, 257265, Note_on_c, 0, 64, 98
1, 257284, Note_off_c, 0, 61, 65
1, 257301, Note_on_c, 0, 50, 82
1, 257304, Note_off_c, 0, 64, 69
1, 257307, Note_on_c, 0, 52, 79
1, 257310, Note_on_c, 0, 41, 71
1, 257333, Note_off_c, 0, 52, 65
1, 257337, Note_on_c, 0, 43, 56
1, 257346, Note_on_c, 0, 53, 104
1, 257359, Note_on_c, 0, 49, 90
1, 257369, Note_off_c, 0, 50, 63
1, 257370, Note_off_c, 0, 43, 49
1, 257387, Note_off_c, 0, 41, 63
1, 257393, Control_c, 0, 64, 80
1, 257408, Control_c, 0, 64, 44
1, 257423, Control_c, 0, 64, 0
1, 257503, Note_on_c, 0, 59, 92
1, 257512, Control_c, 0, 64, 73
1, 257527, Control_c, 0, 64, 127
1, 257555, Note_on_c, 0, 55, 75
1, 257568, Note_on_c, 0, 60, 18
1, 257572, Note_off_c, 0, 59, 65
1, 257615, Note_on_c, 0, 58, 91
1, 257620, Note_off_c, 0, 60, 52
1, 257629, Note_off_c, 0, 55, 65
1, 257646, Note_off_c, 0, 58, 62
1, 257658, Note_off_c, 0, 53, 57
1, 257682, Note_on_c, 0, 47, 78
1, 257691, Note_off_c, 0, 49, 66
1, 257720, Control_c, 0, 64, 106
1, 257735, Control_c, 0, 64, 67
1, 257748, Note_on_c, 0, 55, 82
1, 257750, Control_c, 0, 64, 0
1, 257763, Note_on_c, 0, 65, 86
1, 257779, Note_on_c, 0, 61, 69
1, 257784, Note_off_c, 0, 55, 67
1, 257794, Control_c, 0, 64, 55
1, 257797, Note_off_c, 0, 47, 65
1, 257809, Control_c, 0, 64, 75
1, 257831, Control_c, 0, 64, 127
1, 257843, Note_off_c, 0, 65, 58
1, 257895, Note_on_c, 0, 64, 74
1, 257896, Note_on_c, 0, 55, 76
1, 257898, Note_off_c, 0, 61, 39
1, 257929, Note_off_c, 0, 64, 64
1, 257950, Note_off_c, 0, 55, 60
1, 257995, Note_on_c, 0, 41, 94
1, 257996, Note_on_c, 0, 29, 88
1, 258006, Note_on_c, 0, 59, 80
1, 258011, Note_on_c, 0, 63, 60
1, 258019, Note_off_c, 0, 41, 71
1, 258025, Note_off_c, 0, 29, 63
1, 258035, Note_off_c, 0, 63, 41
1, 258048, Note_off_c, 0, 59, 63
1, 258064, Note_on_c, 0, 64, 22
1, 258080, Note_on_c, 0, 53, 78
1, 258085, Note_on_c, 0, 62, 80
1, 258108, Note_off_c, 0, 64, 52
1, 258112, Note_off_c, 0, 62, 67
1, 258119, Note_off_c, 0, 53, 58
1, 258171, Note_on_c, 0, 61, 93
1, 258172, Note_on_c, 0, 65, 89
1, 258189, Note_on_c, 0, 59, 94
1, 258199, Note_on_c, 0, 55, 80
1, 258243, Note_off_c, 0, 59, 59
1, 258268, Note_on_c, 0, 58, 95
1, 258273, Note_off_c, 0, 55, 62
1, 258306, Note_on_c, 0, 49, 63
1, 258322, Note_off_c, 0, 58, 62
1, 258344, Note_off_c, 0, 49, 64
1, 258353, Note_on_c, 0, 57, 84
1, 258358, Note_on_c, 0, 53, 81
1, 258419, Note_off_c, 0, 57, 61
1, 258428, Note_on_c, 0, 56, 93
1, 258435, Note_off_c, 0, 53, 58
1, 258457, Note_off_c, 0, 61, 59
1, 258472, Note_off_c, 0, 56, 66
1, 258480, Note_on_c, 0, 47, 63
1, 258483, Control_c, 0, 64, 75
1, 258492, Note_on_c, 0, 55, 86
1, 258495, Note_on_c, 0, 59, 98
1, 258498, Control_c, 0, 64, 0
1, 258507, Note_off_c, 0, 65, 56
1, 258517, Note_off_c, 0, 47, 64
1, 258528, Control_c, 0, 64, 41
1, 258535, Note_off_c, 0, 59, 67
1, 258536, Note_off_c, 0, 55, 65
1, 258542, Control_c, 0, 64, 72
1, 258557, Control_c, 0, 64, 127
1, 258608, Poly_aftertouch_c, 0, 56, 0
1, 258632, Note_on_c, 0, 65, 84
1, 258684, Note_on_c, 0, 61, 95
1, 258711, Note_off_c, 0, 65, 62
1, 258768, Note_on_c, 0, 64, 98
1, 258788, Note_off_c, 0, 61, 64
1, 258807, Note_on_c, 0, 50, 95
1, 258816, Control_c, 0, 64, 75
1, 258819, Note_off_c, 0, 64, 69
1, 258820, Note_on_c, 0, 41, 75
1, 258831, Control_c, 0, 64, 49
1, 258846, Control_c, 0, 64, 51
1, 258852, Note_off_c, 0, 41, 69
1, 258859, Note_on_c, 0, 53, 101
1, 258860, Note_on_c, 0, 49, 98
1, 258861, Control_c, 0, 64, 67
1, 258869, Note_off_c, 0, 50, 66
1, 258875, Control_c, 0, 64, 98
1, 258890, Control_c, 0, 64, 127
1, 258896, Note_off_c, 0, 53, 67
1, 258898, Note_off_c, 0, 49, 68
1, 258982, Note_on_c, 0, 59, 97
1, 259016, Note_on_c, 0, 55, 79
1, 259029, Note_off_c, 0, 59, 66
1, 259080, Note_on_c, 0, 58, 100
1, 259097, Note_off_c, 0, 55, 64
1, 259131, Note_off_c, 0, 58, 67
1, 259158, Note_on_c, 0, 50, 94
1, 259159, Note_on_c, 0, 41, 98
1, 259164, Note_on_c, 0, 52, 79
1, 259181, Note_on_c, 0, 59, 101
1, 259183, Note_on_c, 0, 55, 101
1, 259183, Note_off_c, 0, 52, 40
1, 259187, Note_on_c, 0, 49, 93
1, 259189, Note_on_c, 0, 53, 97
1, 259203, Note_off_c, 0, 41, 65
1, 259206, Note_off_c, 0, 50, 67
1, 259228, Note_off_c, 0, 59, 64
1, 259235, Note_off_c, 0, 49, 66
1, 259242, Note_off_c, 0, 53, 63
1, 259246, Note_off_c, 0, 55, 62
1, 259277, Control_c, 0, 64, 66
1, 259290, Note_on_c, 0, 58, 87
1, 259292, Control_c, 0, 64, 0
1, 259301, Note_on_c, 0, 49, 81
1, 259332, Note_off_c, 0, 49, 67
1, 259344, Note_off_c, 0, 58, 63
1, 259401, Note_on_c, 0, 57, 71
1, 259408, Note_on_c, 0, 53, 70
1, 259426, Note_off_c, 0, 57, 64
1, 259438, Note_off_c, 0, 53, 66
1, 259483, Note_on_c, 0, 47, 52
1, 259483, Note_on_c, 0, 56, 76
1, 259510, Note_off_c, 0, 47, 53
1, 259510, Note_off_c, 0, 56, 66
1, 259558, Note_on_c, 0, 59, 83
1, 259566, Note_on_c, 0, 55, 78
1, 259594, Note_on_c, 0, 54, 38
1, 259603, Note_off_c, 0, 59, 62
1, 259627, Note_off_c, 0, 55, 64
1, 259633, Note_off_c, 0, 54, 32
1, 259648, Note_on_c, 0, 58, 79
1, 259655, Note_on_c, 0, 49, 74
1, 259675, Note_off_c, 0, 58, 66
1, 259680, Note_off_c, 0, 49, 67
1, 259745, Note_on_c, 0, 57, 58
1, 259748, Note_on_c, 0, 53, 70
1, 259771, Note_off_c, 0, 57, 60
1, 259785, Note_off_c, 0, 53, 63
1, 259826, Note_on_c, 0, 56, 81
1, 259837, Note_on_c, 0, 47, 58
1, 259864, Note_off_c, 0, 47, 57
1, 259879, Note_off_c, 0, 56, 61
1, 259921, Control_c, 0, 64, 41
1, 259930, Note_on_c, 0, 59, 94
1, 259935, Note_on_c, 0, 55, 92
1, 259937, Control_c, 0, 64, 96
1, 259938, Note_on_c, 0, 43, 104
1, 259942, Note_on_c, 0, 29, 95
1, 259943, Note_on_c, 0, 35, 98
1, 259952, Control_c, 0, 64, 127
1, 259967, Note_off_c, 0, 29, 66
1, 259968, Note_off_c, 0, 35, 69
1, 259973, Note_off_c, 0, 43, 67
1, 259978, Note_on_c, 0, 31, 39
1, 259995, Note_off_c, 0, 55, 65
1, 259996, Note_off_c, 0, 59, 60
1, 260013, Note_off_c, 0, 31, 51
1, 260023, Poly_aftertouch_c, 0, 33, 0
1, 260038, Note_on_c, 0, 49, 86
1, 260038, Note_on_c, 0, 58, 87
1, 260077, Note_off_c, 0, 49, 66
1, 260080, Poly_aftertouch_c, 0, 33, 0
1, 260085, Note_off_c, 0, 58, 62
1, 260142, Note_on_c, 0, 57, 80
1, 260149, Note_on_c, 0, 53, 77
1, 260168, Note_off_c, 0, 57, 69
1, 260180, Note_off_c, 0, 53, 64
1, 260216, Note_on_c, 0, 56, 98
1, 260217, Note_on_c, 0, 47, 78
1, 260242, Note_off_c, 0, 47, 68
1, 260255, Control_c, 0, 64, 80
1, 260258, Note_off_c, 0, 56, 65
1, 260270, Control_c, 0, 64, 48
1, 260285, Control_c, 0, 64, 0
1, 260298, Note_on_c, 0, 59, 102
1, 260305, Note_on_c, 0, 55, 96
1, 260329, Control_c, 0, 64, 44
1, 260339, Note_off_c, 0, 59, 67
1, 260344, Control_c, 0, 64, 69
1, 260357, Note_off_c, 0, 55, 66
1, 260359, Control_c, 0, 64, 108
1, 260374, Control_c, 0, 64, 127
1, 260387, Note_on_c, 0, 58, 95
1, 260393, Note_on_c, 0, 49, 90
1, 260421, Note_off_c, 0, 49, 67
1, 260426, Note_off_c, 0, 58, 64
1, 260473, Note_on_c, 0, 57, 89
1, 260477, Note_on_c, 0, 53, 86
1, 260514, Note_off_c, 0, 57, 64
1, 260515, Note_off_c, 0, 53, 63
1, 260536, Note_on_c, 0, 56, 103
1, 260539, Note_on_c, 0, 47, 85
1, 260564, Note_off_c, 0, 47, 70
1, 260567, Control_c, 0, 64, 80
1, 260571, Note_off_c, 0, 56, 70
1, 260582, Control_c, 0, 64, 67
1, 260596, Control_c, 0, 64, 68
1, 260611, Control_c, 0, 64, 80
1, 260618, Note_on_c, 0, 50, 107
1, 260624, Note_on_c, 0, 55, 30
1, 260626, Control_c, 0, 64, 127
1, 260627, Note_on_c, 0, 59, 104
1, 260639, Note_on_c, 0, 41, 61
1, 260659, Note_off_c, 0, 59, 62
1, 260663, Note_off_c, 0, 50, 66
1, 260666, Note_off_c, 0, 41, 59
1, 260672, Note_off_c, 0, 55, 63
1, 260687, Note_on_c, 0, 53, 98
1, 260696, Note_on_c, 0, 48, 92
1, 260714, Note_off_c, 0, 53, 72
1, 260716, Note_on_c, 0, 52, 46
1, 260717, Note_off_c, 0, 48, 69
1, 260725, Note_on_c, 0, 58, 96
1, 260744, Note_off_c, 0, 52, 56
1, 260770, Note_on_c, 0, 49, 42
1, 260771, Note_off_c, 0, 58, 62
1, 260792, Note_off_c, 0, 49, 63
1, 260833, Note_on_c, 0, 57, 94
1, 260842, Note_on_c, 0, 53, 84
1, 260862, Note_off_c, 0, 57, 64
1, 260866, Note_off_c, 0, 53, 68
1, 260911, Note_on_c, 0, 56, 106
1, 260920, Note_on_c, 0, 47, 94
1, 260941, Note_off_c, 0, 47, 71
1, 260955, Note_off_c, 0, 56, 66
1, 261002, Note_on_c, 0, 59, 106
1, 261004, Note_on_c, 0, 55, 99
1, 261034, Note_off_c, 0, 59, 68
1, 261048, Note_off_c, 0, 55, 66
1, 261085, Note_on_c, 0, 58, 100
1, 261095, Note_on_c, 0, 49, 103
1, 261125, Note_off_c, 0, 49, 64
1, 261134, Note_off_c, 0, 58, 65
1, 261185, Note_on_c, 0, 53, 100
1, 261186, Note_on_c, 0, 57, 97
1, 261224, Note_off_c, 0, 57, 65
1, 261235, Note_off_c, 0, 53, 65
1, 261271, Note_on_c, 0, 56, 108
1, 261278, Note_on_c, 0, 47, 99
1, 261310, Note_off_c, 0, 47, 64
1, 261337, Note_off_c, 0, 56, 66
1, 261385, Note_on_c, 0, 59, 102
1, 261388, Note_on_c, 0, 55, 98
1, 261389, Control_c, 0, 64, 69
1, 261394, Note_on_c, 0, 43, 124
1, 261397, Note_on_c, 0, 29, 103
1, 261399, Note_on_c, 0, 35, 100
1, 261404, Control_c, 0, 64, 0
1, 261420, Note_on_c, 0, 37, 61
1, 261420, Note_off_c, 0, 37, 127
1, 261426, Note_on_c, 0, 31, 54
1, 261429, Note_off_c, 0, 31, 57
1, 261435, Note_on_c, 0, 33, 41
1, 261449, Control_c, 0, 64, 39
1, 261454, Poly_aftertouch_c, 0, 37, 0
1, 261463, Control_c, 0, 64, 82
1, 261466, Note_off_c, 0, 59, 59
1, 261477, Note_off_c, 0, 33, 48
1, 261478, Control_c, 0, 64, 127
1, 261482, Note_off_c, 0, 55, 60
1, 261540, Note_on_c, 0, 58, 93
1, 261543, Note_on_c, 0, 49, 92
1, 261585, Note_off_c, 0, 49, 63
1, 261589, Note_off_c, 0, 58, 66
1, 261652, Note_on_c, 0, 57, 94
1, 261656, Note_on_c, 0, 53, 93
1, 261688, Note_off_c, 0, 57, 64
1, 261692, Note_off_c, 0, 53, 64
1, 261739, Note_on_c, 0, 56, 110
1, 261745, Note_on_c, 0, 47, 92
1, 261766, Note_off_c, 0, 47, 70
1, 261785, Note_on_c, 0, 48, 35
1, 261785, Note_off_c, 0, 48, 127
1, 261797, Note_off_c, 0, 56, 65
1, 261815, Poly_aftertouch_c, 0, 48, 0
1, 261850, Note_on_c, 0, 55, 104
1, 261854, Note_on_c, 0, 59, 96
1, 261874, Note_on_c, 0, 60, 51
1, 261874, Note_off_c, 0, 60, 127
1, 261905, Note_off_c, 0, 59, 64
1, 261909, Note_off_c, 0, 55, 65
1, 261981, Note_on_c, 0, 58, 105
1, 261992, Note_on_c, 0, 49, 95
1, 262031, Note_off_c, 0, 49, 66
1, 262041, Note_off_c, 0, 58, 65
1, 262094, Poly_aftertouch_c, 0, 37, 127
1, 262106, Note_off_c, 0, 29, 63
1, 262114, Note_on_c, 0, 57, 99
1, 262118, Note_on_c, 0, 53, 97
1, 262119, Note_off_c, 0, 43, 65
1, 262127, Note_off_c, 0, 35, 63
1, 262164, Poly_aftertouch_c, 0, 37, 0
1, 262183, Note_off_c, 0, 53, 61
1, 262195, Note_off_c, 0, 57, 60
1, 262266, Note_on_c, 0, 56, 113
1, 262273, Note_on_c, 0, 47, 102
1, 262297, Note_off_c, 0, 47, 69
1, 262316, Note_off_c, 0, 56, 71
1, 262386, Note_on_c, 0, 41, 84
1, 262413, Note_on_c, 0, 50, 91
1, 262463, Note_off_c, 0, 41, 65
1, 262467, Note_on_c, 0, 49, 99
1, 262475, Note_on_c, 0, 53, 106
1, 262487, Note_off_c, 0, 50, 64
1, 262503, Control_c, 0, 64, 80
1, 262517, Control_c, 0, 64, 39
1, 262532, Control_c, 0, 64, 0
1, 262768, Note_on_c, 0, 67, 105
1, 262784, Control_c, 0, 64, 47
1, 262798, Control_c, 0, 64, 127
1, 263017, Note_on_c, 0, 68, 113
1, 263045, Note_off_c, 0, 67, 60
1, 263050, Note_off_c, 0, 53, 62
1, 263075, Note_off_c, 0, 49, 68
1, 263402, Note_on_c, 0, 37, 15
1, 263506, Note_off_c, 0, 37, 35
1, 263540, Note_on_c, 0, 43, 110
1, 263544, Note_on_c, 0, 29, 97
1, 263547, Note_on_c, 0, 35, 101
1, 263575, Note_on_c, 0, 33, 50
1, 263577, Control_c, 0, 64, 89
1, 263591, Control_c, 0, 64, 55
1, 263606, Control_c, 0, 64, 0
1, 263607, Note_off_c, 0, 33, 50
1, 263636, Control_c, 0, 64, 33
1, 263651, Control_c, 0, 64, 68
1, 263665, Control_c, 0, 64, 127
1, 263695, Note_off_c, 0, 68, 53
1, 263737, Note_on_c, 0, 33, 23
1, 263762, Note_on_c, 0, 59, 65
1, 263815, Note_off_c, 0, 29, 59
1, 263880, Note_on_c, 0, 62, 72
1, 263890, Note_off_c, 0, 59, 61
1, 263900, Note_off_c, 0, 33, 0
1, 263934, Note_off_c, 0, 62, 62
1, 263939, Poly_aftertouch_c, 0, 33, 127
1, 264025, Note_off_c, 0, 43, 59
1, 264032, Note_off_c, 0, 35, 60
1, 264036, Note_on_c, 0, 67, 106
1, 264044, Poly_aftertouch_c, 0, 33, 0
1, 264048, Note_on_c, 0, 59, 95
1, 264072, Note_off_c, 0, 59, 63
1, 264197, Note_on_c, 0, 62, 68
1, 264299, Note_on_c, 0, 59, 78
1, 264319, Note_off_c, 0, 59, 71
1, 264327, Note_off_c, 0, 62, 64
1, 264334, Note_off_c, 0, 67, 28
1, 264404, Note_on_c, 0, 41, 78
1, 264461, Note_on_c, 0, 50, 85
1, 264473, Note_off_c, 0, 41, 66
1, 264474, Note_on_c, 0, 68, 116
1, 264485, Note_on_c, 0, 53, 102
1, 264488, Note_on_c, 0, 49, 92
1, 264510, Note_off_c, 0, 50, 66
1, 264533, Control_c, 0, 64, 86
1, 264548, Control_c, 0, 64, 52
1, 264570, Control_c, 0, 64, 0
1, 264703, Control_c, 0, 64, 72
1, 264718, Control_c, 0, 64, 127
1, 264729, Note_off_c, 0, 68, 55
1, 264733, Note_on_c, 0, 71, 106
1, 264971, Note_on_c, 0, 73, 112
1, 264988, Note_off_c, 0, 71, 64
1, 265000, Note_off_c, 0, 53, 63
1, 265028, Note_on_c, 0, 75, 9
1, 265028, Note_off_c, 0, 49, 60
1, 265081, Note_off_c, 0, 75, 35
1, 265340, Note_on_c, 0, 37, 9
1, 265379, Poly_aftertouch_c, 0, 34, 127
1, 265392, Note_off_c, 0, 37, 48
1, 265422, Poly_aftertouch_c, 0, 34, 0
1, 265428, Note_on_c, 0, 43, 110
1, 265433, Note_on_c, 0, 29, 101
1, 265435, Note_on_c, 0, 35, 102
1, 265437, Control_c, 0, 64, 107
1, 265452, Control_c, 0, 64, 69
1, 265454, Note_on_c, 0, 33, 67
1, 265467, Control_c, 0, 64, 58
1, 265480, Note_off_c, 0, 29, 64
1, 265482, Control_c, 0, 64, 67
1, 265483, Note_off_c, 0, 33, 57
1, 265485, Note_off_c, 0, 43, 65
1, 265489, Note_off_c, 0, 35, 65
1, 265497, Control_c, 0, 64, 85
1, 265507, Poly_aftertouch_c, 0, 34, 0
1, 265511, Control_c, 0, 64, 127
1, 265623, Note_off_c, 0, 73, 50
1, 265640, Note_on_c, 0, 65, 67
1, 265715, Note_off_c, 0, 65, 58
1, 265746, Note_on_c, 0, 68, 72
1, 265808, Note_off_c, 0, 68, 62
1, 265885, Note_on_c, 0, 71, 116
1, 265901, Note_on_c, 0, 65, 82
1, 265974, Note_off_c, 0, 65, 52
1, 266049, Note_off_c, 0, 71, 59
1, 266063, Note_on_c, 0, 68, 73
1, 266154, Note_off_c, 0, 68, 60
1, 266188, Note_on_c, 0, 65, 88
1, 266250, Note_off_c, 0, 65, 64
1, 266354, Note_on_c, 0, 41, 84
1, 266378, Note_on_c, 0, 76, 117
1, 266384, Note_on_c, 0, 50, 93
1, 266437, Note_off_c, 0, 41, 63
1, 266440, Note_on_c, 0, 49, 96
1, 266443, Note_on_c, 0, 53, 100
1, 266455, Note_off_c, 0, 50, 66
1, 266469, Control_c, 0, 64, 77
1, 266481, Poly_aftertouch_c, 0, 70, 0
1, 266483, Control_c, 0, 64, 0
1, 266557, Control_c, 0, 64, 55
1, 266572, Control_c, 0, 64, 127
1, 266607, Note_on_c, 0, 65, 80
1, 266674, Note_off_c, 0, 49, 59
1, 266687, Note_off_c, 0, 53, 62
1, 266718, Note_on_c, 0, 68, 80
1, 266730, Note_off_c, 0, 76, 0
1, 266738, Note_off_c, 0, 65, 48
1, 266767, Poly_aftertouch_c, 0, 76, 127
1, 266780, Note_off_c, 0, 68, 63
1, 266780, Poly_aftertouch_c, 0, 76, 0
1, 266860, Note_on_c, 0, 71, 109
1, 266991, Note_off_c, 0, 71, 0
1, 267014, Note_on_c, 0, 65, 77
1, 267030, Poly_aftertouch_c, 0, 71, 0
1, 267134, Note_on_c, 0, 68, 81
1, 267165, Note_off_c, 0, 65, 52
1, 267218, Note_off_c, 0, 68, 63
1, 267271, Note_on_c, 0, 76, 103
1, 267284, Note_on_c, 0, 43, 114
1, 267285, Note_on_c, 0, 29, 102
1, 267289, Note_on_c, 0, 35, 100
1, 267309, Note_on_c, 0, 33, 64
1, 267337, Note_off_c, 0, 33, 57
1, 267351, Control_c, 0, 64, 113
1, 267366, Control_c, 0, 64, 67
1, 267380, Control_c, 0, 64, 0
1, 267425, Control_c, 0, 64, 50
1, 267439, Control_c, 0, 64, 81
1, 267454, Control_c, 0, 64, 127
1, 267481, Note_on_c, 0, 65, 66
1, 267483, Note_off_c, 0, 29, 56
1, 267496, Poly_aftertouch_c, 0, 33, 127
1, 267519, Note_off_c, 0, 43, 60
1, 267537, Note_off_c, 0, 35, 55
1, 267539, Poly_aftertouch_c, 0, 33, 0
1, 267597, Note_on_c, 0, 68, 79
1, 267641, Note_off_c, 0, 65, 60
1, 267654, Note_off_c, 0, 68, 65
1, 267668, Note_off_c, 0, 76, 53
1, 267713, Note_on_c, 0, 71, 122
1, 267863, Note_on_c, 0, 65, 83
1, 267908, Note_off_c, 0, 71, 47
1, 267972, Note_on_c, 0, 68, 92
1, 267999, Note_off_c, 0, 65, 60
1, 268056, Note_off_c, 0, 68, 63
1, 268114, Note_on_c, 0, 76, 117
1, 268127, Note_on_c, 0, 50, 104
1, 268129, Control_c, 0, 64, 76
1, 268130, Note_on_c, 0, 41, 100
1, 268144, Control_c, 0, 64, 32
1, 268159, Control_c, 0, 64, 0
1, 268170, Note_off_c, 0, 41, 66
1, 268188, Control_c, 0, 64, 44
1, 268193, Note_on_c, 0, 53, 103
1, 268195, Note_on_c, 0, 49, 104
1, 268203, Control_c, 0, 64, 102
1, 268206, Note_off_c, 0, 50, 67
1, 268218, Control_c, 0, 64, 127
1, 268251, Note_off_c, 0, 53, 65
1, 268256, Note_off_c, 0, 49, 68
1, 268326, Note_on_c, 0, 65, 95
1, 268406, Note_off_c, 0, 76, 57
1, 268422, Poly_aftertouch_c, 0, 73, 0
1, 268429, Note_on_c, 0, 68, 96
1, 268447, Note_off_c, 0, 65, 53
1, 268462, Poly_aftertouch_c, 0, 73, 0
1, 268486, Note_off_c, 0, 68, 67
1, 268555, Note_on_c, 0, 71, 121
1, 268712, Note_on_c, 0, 65, 96
1, 268767, Note_off_c, 0, 71, 44
1, 268824, Note_on_c, 0, 68, 101
1, 268849, Note_off_c, 0, 65, 63
1, 268955, Note_off_c, 0, 68, 65
1, 268968, Control_c, 0, 64, 103
1, 268980, Note_on_c, 0, 76, 112
1, 268983, Control_c, 0, 64, 66
1, 268998, Control_c, 0, 64, 58
1, 268998, Note_on_c, 0, 43, 117
1, 269000, Note_on_c, 0, 34, 99
1, 269003, Note_on_c, 0, 29, 104
1, 269011, Note_on_c, 0, 33, 84
1, 269012, Control_c, 0, 64, 70
1, 269027, Note_off_c, 0, 29, 72
1, 269027, Control_c, 0, 64, 127
1, 269030, Note_on_c, 0, 35, 55
1, 269031, Note_off_c, 0, 34, 68
1, 269036, Note_off_c, 0, 43, 67
1, 269040, Note_off_c, 0, 33, 67
1, 269045, Note_on_c, 0, 36, 26
1, 269052, Note_off_c, 0, 36, 127
1, 269060, Note_off_c, 0, 35, 63
1, 269093, Poly_aftertouch_c, 0, 36, 0
1, 269242, Note_on_c, 0, 65, 84
1, 269351, Note_on_c, 0, 68, 97
1, 269365, Note_off_c, 0, 76, 45
1, 269385, Note_off_c, 0, 65, 58
1, 269429, Note_off_c, 0, 68, 64
1, 269479, Note_on_c, 0, 71, 123
1, 269664, Note_on_c, 0, 65, 99
1, 269791, Note_off_c, 0, 71, 57
1, 269826, Note_on_c, 0, 68, 105
1, 269842, Note_off_c, 0, 65, 64
1, 269862, Note_off_c, 0, 68, 73
1, 269950, Poly_aftertouch_c, 0, 67, 0
1, 270019, Control_c, 0, 67, 42
1, 270033, Control_c, 0, 64, 65
1, 270033, Control_c, 0, 67, 127
1, 270048, Control_c, 0, 64, 0
1, 270515, Note_on_c, 0, 41, 42
1, 270560, Control_c, 0, 64, 34
1, 270575, Control_c, 0, 64, 46
1, 270590, Control_c, 0, 64, 58
1, 270604, Control_c, 0, 64, 65
1, 270607, Note_on_c, 0, 46, 40
1, 270619, Control_c, 0, 64, 68
1, 270634, Control_c, 0, 64, 72
1, 270649, Control_c, 0, 64, 78
1, 270664, Control_c, 0, 64, 86
1, 270679, Control_c, 0, 64, 93
1, 270688, Note_off_c, 0, 41, 33
1, 270694, Note_on_c, 0, 56, 48
1, 270694, Control_c, 0, 64, 100
1, 270696, Note_on_c, 0, 62, 43
1, 270709, Control_c, 0, 64, 108
1, 270723, Control_c, 0, 64, 127
1, 270724, Note_off_c, 0, 62, 58
1, 270730, Note_off_c, 0, 46, 58
1, 270739, Note_off_c, 0, 56, 51
1, 270745, Note_on_c, 0, 65, 40
1, 270774, Note_off_c, 0, 65, 54
1, 270786, Note_on_c, 0, 68, 43
1, 270819, Note_off_c, 0, 68, 62
1, 270825, Note_on_c, 0, 70, 50
1, 270848, Note_off_c, 0, 70, 59
1, 270863, Note_on_c, 0, 68, 57
1, 270892, Note_off_c, 0, 68, 64
1, 270929, Note_on_c, 0, 70, 58
1, 270957, Note_off_c, 0, 70, 66
1, 270967, Note_on_c, 0, 68, 61
1, 270983, Note_off_c, 0, 68, 67
1, 271051, Note_on_c, 0, 64, 64
1, 271084, Note_on_c, 0, 71, 62
1, 271096, Note_off_c, 0, 64, 57
1, 271145, Note_on_c, 0, 62, 34
1, 271174, Note_on_c, 0, 59, 53
1, 271182, Note_off_c, 0, 62, 54
1, 271208, Note_off_c, 0, 71, 59
1, 271219, Note_off_c, 0, 59, 61
1, 271226, Note_on_c, 0, 73, 64
1, 271239, Note_on_c, 0, 61, 59
1, 271275, Note_off_c, 0, 61, 65
1, 271278, Note_off_c, 0, 73, 60
1, 271309, Note_on_c, 0, 59, 58
1, 271309, Note_on_c, 0, 71, 54
1, 271343, Note_off_c, 0, 71, 63
1, 271344, Note_off_c, 0, 59, 65
1, 271357, Note_on_c, 0, 61, 58
1, 271359, Note_on_c, 0, 73, 65
1, 271390, Note_off_c, 0, 61, 63
1, 271400, Note_off_c, 0, 73, 61
1, 271415, Note_on_c, 0, 71, 70
1, 271427, Note_on_c, 0, 59, 54
1, 271442, Note_off_c, 0, 71, 62
1, 271451, Note_on_c, 0, 73, 65
1, 271461, Note_off_c, 0, 59, 62
1, 271470, Note_on_c, 0, 61, 44
1, 271491, Note_off_c, 0, 61, 62
1, 271496, Note_off_c, 0, 73, 62
1, 271498, Note_on_c, 0, 71, 67
1, 271522, Note_on_c, 0, 59, 59
1, 271542, Note_on_c, 0, 73, 68
1, 271547, Note_off_c, 0, 71, 63
1, 271553, Note_off_c, 0, 59, 63
1, 271556, Note_on_c, 0, 61, 69
1, 271561, Control_c, 0, 67, 104
1, 271576, Control_c, 0, 67, 38
1, 271586, Note_on_c, 0, 71, 61
1, 271591, Control_c, 0, 67, 0
1, 271597, Note_off_c, 0, 73, 63
1, 271612, Note_off_c, 0, 61, 61
1, 271639, Note_off_c, 0, 71, 64
1, 271641, Note_on_c, 0, 59, 68
1, 271642, Note_on_c, 0, 70, 84
1, 271645, Poly_aftertouch_c, 0, 68, 0
1, 271658, Note_off_c, 0, 70, 74
1, 271713, Note_off_c, 0, 59, 61
1, 271715, Note_on_c, 0, 62, 66
1, 271741, Note_on_c, 0, 64, 75
1, 271799, Note_off_c, 0, 62, 62
1, 271808, Note_on_c, 0, 67, 63
1, 271808, Note_off_c, 0, 64, 66
1, 271835, Note_off_c, 0, 67, 67
1, 271840, Note_on_c, 0, 44, 64
1, 271872, Control_c, 0, 67, 41
1, 271887, Control_c, 0, 67, 95
1, 271901, Note_on_c, 0, 49, 64
1, 271902, Control_c, 0, 67, 127
1, 271947, Control_c, 0, 64, 112
1, 271962, Control_c, 0, 64, 69
1, 271975, Note_on_c, 0, 65, 67
1, 271977, Control_c, 0, 64, 36
1, 271992, Control_c, 0, 64, 0
1, 271997, Note_on_c, 0, 59, 76
1, 272006, Note_off_c, 0, 44, 64
1, 272007, Control_c, 0, 64, 30
1, 272021, Control_c, 0, 64, 52
1, 272024, Note_off_c, 0, 49, 61
1, 272031, Note_off_c, 0, 59, 67
1, 272036, Control_c, 0, 64, 69
1, 272059, Control_c, 0, 64, 88
1, 272074, Control_c, 0, 64, 127
1, 272083, Note_on_c, 0, 71, 85
1, 272091, Note_on_c, 0, 68, 77
1, 272099, Note_off_c, 0, 65, 63
1, 272149, Note_off_c, 0, 71, 64
1, 272185, Note_off_c, 0, 68, 61
1, 272219, Note_on_c, 0, 74, 98
1, 272304, Note_off_c, 0, 74, 66
1, 272308, Note_on_c, 0, 76, 94
1, 272310, Control_c, 0, 67, 94
1, 272325, Control_c, 0, 67, 0
1, 272345, Note_on_c, 0, 68, 68
1, 272371, Note_off_c, 0, 68, 66
1, 272373, Note_on_c, 0, 70, 79
1, 272425, Note_off_c, 0, 70, 65
1, 272428, Note_on_c, 0, 68, 81
1, 272449, Note_off_c, 0, 68, 71
1, 272503, Note_on_c, 0, 64, 78
1, 272536, Note_off_c, 0, 64, 65
1, 272537, Note_on_c, 0, 62, 69
1, 272566, Note_off_c, 0, 62, 65
1, 272597, Note_on_c, 0, 59, 56
1, 272628, Note_on_c, 0, 61, 69
1, 272632, Note_off_c, 0, 59, 64
1, 272662, Note_off_c, 0, 61, 59
1, 272666, Control_c, 0, 67, 63
1, 272681, Control_c, 0, 67, 127
1, 272696, Note_on_c, 0, 59, 70
1, 272730, Note_off_c, 0, 59, 64
1, 272742, Note_on_c, 0, 61, 70
1, 272775, Note_off_c, 0, 61, 62
1, 272799, Note_on_c, 0, 59, 65
1, 272858, Note_on_c, 0, 61, 64
1, 272859, Note_on_c, 0, 74, 95
1, 272873, Note_off_c, 0, 76, 60
1, 272887, Note_off_c, 0, 74, 65
1, 272888, Note_off_c, 0, 61, 67
1, 272909, Note_on_c, 0, 62, 70
1, 272926, Note_off_c, 0, 59, 60
1, 272933, Note_on_c, 0, 64, 80
1, 273003, Note_on_c, 0, 67, 72
1, 273007, Note_off_c, 0, 62, 63
1, 273017, Note_off_c, 0, 64, 67
1, 273031, Note_off_c, 0, 67, 66
1, 273173, Note_on_c, 0, 79, 89
1, 273177, Control_c, 0, 64, 92
1, 273185, Note_on_c, 0, 47, 61
1, 273192, Control_c, 0, 64, 63
1, 273195, Note_on_c, 0, 71, 65
1, 273205, Note_on_c, 0, 62, 65
1, 273206, Note_on_c, 0, 52, 57
1, 273207, Control_c, 0, 64, 0
1, 273209, Note_on_c, 0, 68, 55
1, 273233, Note_off_c, 0, 71, 51
1, 273237, Control_c, 0, 64, 49
1, 273247, Note_off_c, 0, 79, 62
1, 273249, Note_off_c, 0, 47, 64
1, 273251, Control_c, 0, 64, 69
1, 273264, Note_off_c, 0, 52, 63
1, 273266, Control_c, 0, 64, 102
1, 273266, Note_off_c, 0, 62, 64
1, 273281, Control_c, 0, 64, 127
1, 273309, Note_off_c, 0, 68, 62
1, 273349, Note_on_c, 0, 70, 58
1, 273372, Note_off_c, 0, 70, 65
1, 273387, Note_on_c, 0, 68, 74
1, 273430, Note_off_c, 0, 68, 61
1, 273432, Note_on_c, 0, 70, 85
1, 273477, Note_on_c, 0, 68, 59
1, 273478, Note_off_c, 0, 70, 63
1, 273482, Note_on_c, 0, 74, 78
1, 273498, Note_off_c, 0, 68, 70
1, 273502, Control_c, 0, 67, 96
1, 273519, Control_c, 0, 67, 40
1, 273534, Control_c, 0, 67, 0
1, 273558, Note_on_c, 0, 64, 83
1, 273603, Note_off_c, 0, 64, 67
1, 273609, Note_on_c, 0, 62, 65
1, 273633, Note_off_c, 0, 62, 65
1, 273656, Note_on_c, 0, 59, 72
1, 273704, Note_on_c, 0, 61, 72
1, 273704, Note_off_c, 0, 59, 61
1, 273744, Note_off_c, 0, 61, 61
1, 273761, Note_on_c, 0, 59, 58
1, 273785, Note_on_c, 0, 79, 99
1, 273794, Note_on_c, 0, 68, 77
1, 273794, Note_on_c, 0, 71, 80
1, 273802, Note_off_c, 0, 59, 61
1, 273815, Note_on_c, 0, 61, 56
1, 273821, Note_off_c, 0, 74, 63
1, 273848, Note_off_c, 0, 68, 60
1, 273856, Note_off_c, 0, 61, 63
1, 273857, Note_off_c, 0, 79, 64
1, 273860, Note_on_c, 0, 59, 62
1, 273913, Note_on_c, 0, 61, 59
1, 273925, Note_off_c, 0, 59, 0
1, 273962, Poly_aftertouch_c, 0, 59, 127
1, 273976, Note_off_c, 0, 61, 0
1, 274012, Poly_aftertouch_c, 0, 59, 0
1, 274013, Poly_aftertouch_c, 0, 61, 127
1, 274039, Note_off_c, 0, 71, 24
1, 274044, Poly_aftertouch_c, 0, 61, 0
1, 274054, Note_on_c, 0, 74, 101
1, 274059, Poly_aftertouch_c, 0, 59, 0
1, 274069, Note_on_c, 0, 59, 63
1, 274082, Note_off_c, 0, 74, 70
1, 274095, Note_on_c, 0, 62, 63
1, 274115, Note_off_c, 0, 59, 65
1, 274143, Note_on_c, 0, 64, 85
1, 274179, Note_on_c, 0, 67, 79
1, 274189, Note_off_c, 0, 62, 63
1, 274197, Note_off_c, 0, 64, 67
1, 274208, Note_off_c, 0, 67, 63
1, 274277, Note_on_c, 0, 50, 67
1, 274304, Note_on_c, 0, 55, 78
1, 274319, Control_c, 0, 64, 70
1, 274329, Note_off_c, 0, 50, 66
1, 274334, Control_c, 0, 64, 0
1, 274345, Note_on_c, 0, 53, 40
1, 274358, Note_on_c, 0, 65, 91
1, 274358, Note_on_c, 0, 79, 80
1, 274360, Note_on_c, 0, 71, 88
1, 274362, Note_on_c, 0, 68, 92
1, 274363, Control_c, 0, 64, 52
1, 274373, Note_off_c, 0, 55, 64
1, 274375, Note_on_c, 0, 80, 62
1, 274375, Note_off_c, 0, 80, 127
1, 274378, Note_off_c, 0, 53, 62
1, 274378, Control_c, 0, 64, 100
1, 274380, Note_on_c, 0, 81, 52
1, 274380, Note_off_c, 0, 81, 127
1, 274383, Note_off_c, 0, 71, 65
1, 274384, Note_off_c, 0, 65, 67
1, 274390, Note_off_c, 0, 79, 54
1, 274393, Control_c, 0, 64, 127
1, 274414, Note_off_c, 0, 68, 61
1, 274508, Note_on_c, 0, 68, 75
1, 274543, Note_on_c, 0, 70, 79
1, 274552, Note_off_c, 0, 68, 63
1, 274568, Note_on_c, 0, 71, 63
1, 274581, Note_off_c, 0, 70, 60
1, 274582, Note_on_c, 0, 68, 65
1, 274585, Note_off_c, 0, 71, 67
1, 274610, Note_off_c, 0, 68, 69
1, 274618, Note_on_c, 0, 74, 97
1, 274670, Note_on_c, 0, 64, 74
1, 274701, Note_on_c, 0, 62, 79
1, 274706, Note_off_c, 0, 64, 63
1, 274723, Note_off_c, 0, 62, 70
1, 274762, Note_on_c, 0, 59, 81
1, 274808, Note_on_c, 0, 61, 63
1, 274814, Note_off_c, 0, 59, 62
1, 274843, Note_off_c, 0, 61, 65
1, 274864, Note_on_c, 0, 59, 65
1, 274875, Note_on_c, 0, 79, 107
1, 274879, Note_on_c, 0, 71, 92
1, 274882, Note_on_c, 0, 68, 84
1, 274897, Note_on_c, 0, 61, 84
1, 274903, Note_off_c, 0, 74, 63
1, 274911, Note_off_c, 0, 59, 64
1, 274927, Note_on_c, 0, 63, 30
1, 274927, Note_off_c, 0, 68, 64
1, 274935, Note_off_c, 0, 79, 59
1, 274936, Note_off_c, 0, 61, 61
1, 274953, Note_on_c, 0, 59, 74
1, 274963, Note_off_c, 0, 63, 52
1, 275004, Note_on_c, 0, 61, 62
1, 275006, Note_off_c, 0, 59, 62
1, 275077, Note_off_c, 0, 61, 59
1, 275082, Note_off_c, 0, 71, 36
1, 275085, Note_on_c, 0, 59, 48
1, 275135, Note_on_c, 0, 74, 109
1, 275163, Note_off_c, 0, 74, 72
1, 275168, Note_on_c, 0, 62, 77
1, 275180, Note_off_c, 0, 59, 65
1, 275221, Note_on_c, 0, 64, 90
1, 275273, Note_on_c, 0, 67, 81
1, 275273, Note_off_c, 0, 62, 65
1, 275284, Note_off_c, 0, 64, 68
1, 275291, Note_off_c, 0, 67, 73
1, 275366, Note_on_c, 0, 62, 94
1, 275370, Note_on_c, 0, 53, 76
1, 275433, Note_off_c, 0, 62, 57
1, 275448, Note_on_c, 0, 65, 101
1, 275451, Note_on_c, 0, 61, 98
1, 275462, Note_off_c, 0, 53, 43
1, 275490, Poly_aftertouch_c, 0, 73, 0
1, 275513, Control_c, 0, 64, 84
1, 275528, Control_c, 0, 64, 46
1, 275543, Control_c, 0, 64, 0
1, 275626, Note_on_c, 0, 67, 105
1, 275626, Note_on_c, 0, 79, 101
1, 275646, Control_c, 0, 64, 60
1, 275661, Control_c, 0, 64, 127
1, 275717, Note_off_c, 0, 67, 61
1, 275738, Note_off_c, 0, 79, 64
1, 275821, Note_off_c, 0, 65, 61
1, 275831, Note_on_c, 0, 80, 106
1, 275836, Note_on_c, 0, 68, 112
1, 275843, Note_off_c, 0, 61, 64
1, 275851, Note_on_c, 0, 81, 72
1, 275855, Note_off_c, 0, 68, 67
1, 275863, Note_off_c, 0, 80, 74
1, 275868, Note_off_c, 0, 81, 69
1, 276084, Control_c, 0, 67, 60
1, 276099, Control_c, 0, 67, 106
1, 276112, Note_on_c, 0, 29, 62
1, 276113, Control_c, 0, 67, 127
1, 276173, Note_on_c, 0, 67, 66
1, 276307, Note_on_c, 0, 35, 56
1, 276354, Note_off_c, 0, 29, 34
1, 276365, Note_on_c, 0, 61, 58
1, 276376, Note_off_c, 0, 35, 60
1, 276426, Note_on_c, 0, 43, 52
1, 276459, Note_off_c, 0, 43, 64
1, 276506, Note_on_c, 0, 65, 57
1, 276514, Note_on_c, 0, 41, 65
1, 276561, Note_off_c, 0, 61, 37
1, 276561, Note_off_c, 0, 67, 50
1, 276599, Note_on_c, 0, 59, 72
1, 276605, Note_on_c, 0, 47, 67
1, 276670, Note_off_c, 0, 41, 0
1, 276674, Note_off_c, 0, 65, 57
1, 276677, Note_off_c, 0, 47, 63
1, 276686, Note_on_c, 0, 55, 83
1, 276707, Poly_aftertouch_c, 0, 41, 127
1, 276712, Note_on_c, 0, 67, 77
1, 276751, Note_on_c, 0, 47, 73
1, 276754, Poly_aftertouch_c, 0, 41, 0
1, 276756, Note_off_c, 0, 55, 61
1, 276759, Control_c, 0, 67, 75
1, 276774, Control_c, 0, 67, 0
1, 276809, Note_on_c, 0, 41, 77
1, 276826, Note_off_c, 0, 47, 62
1, 276837, Note_on_c, 0, 61, 77
1, 276855, Note_off_c, 0, 41, 65
1, 276891, Note_off_c, 0, 67, 58
1, 276900, Note_on_c, 0, 43, 81
1, 276904, Note_off_c, 0, 59, 37
1, 276938, Note_on_c, 0, 65, 82
1, 276939, Note_off_c, 0, 61, 55
1, 276969, Note_on_c, 0, 35, 76
1, 276971, Note_off_c, 0, 43, 58
1, 277010, Note_on_c, 0, 29, 88
1, 277019, Note_off_c, 0, 35, 63
1, 277025, Note_on_c, 0, 59, 86
1, 277055, Note_on_c, 0, 31, 30
1, 277058, Poly_aftertouch_c, 0, 35, 0
1, 277062, Note_off_c, 0, 65, 61
1, 277066, Note_on_c, 0, 35, 75
1, 277083, Note_off_c, 0, 29, 62
1, 277100, Note_off_c, 0, 35, 66
1, 277105, Note_off_c, 0, 31, 47
1, 277111, Note_on_c, 0, 43, 83
1, 277118, Note_on_c, 0, 67, 84
1, 277145, Note_off_c, 0, 59, 61
1, 277146, Note_off_c, 0, 43, 64
1, 277178, Note_on_c, 0, 61, 86
1, 277192, Note_off_c, 0, 67, 63
1, 277199, Note_off_c, 0, 61, 69
1, 277228, Note_on_c, 0, 41, 67
1, 277234, Note_on_c, 0, 40, 59
1, 277264, Note_off_c, 0, 40, 57
1, 277266, Note_on_c, 0, 47, 85
1, 277275, Note_off_c, 0, 41, 64
1, 277306, Note_off_c, 0, 47, 65
1, 277318, Poly_aftertouch_c, 0, 61, 127
1, 277323, Note_on_c, 0, 65, 105
1, 277324, Note_on_c, 0, 79, 95
1, 277328, Note_on_c, 0, 67, 101
1, 277329, Note_on_c, 0, 77, 94
1, 277340, Poly_aftertouch_c, 0, 61, 0
1, 277356, Note_off_c, 0, 65, 64
1, 277358, Note_off_c, 0, 67, 53
1, 277366, Note_off_c, 0, 79, 59
1, 277382, Note_off_c, 0, 77, 58
1, 277447, Note_on_c, 0, 53, 77
1, 277479, Note_on_c, 0, 62, 90
1, 277496, Note_on_c, 0, 64, 57
1, 277496, Note_off_c, 0, 64, 127
1, 277522, Control_c, 0, 64, 88
1, 277537, Control_c, 0, 64, 52
1, 277552, Control_c, 0, 64, 0
1, 277562, Note_on_c, 0, 68, 114
1, 277562, Note_on_c, 0, 80, 111
1, 277592, Note_on_c, 0, 78, 51
1, 277592, Note_off_c, 0, 78, 127
1, 277593, Note_off_c, 0, 68, 69
1, 277596, Control_c, 0, 64, 59
1, 277611, Control_c, 0, 64, 127
1, 277613, Note_off_c, 0, 53, 61
1, 277617, Note_off_c, 0, 80, 62
1, 277656, Note_off_c, 0, 62, 57
1, 277660, Note_on_c, 0, 65, 103
1, 277660, Note_on_c, 0, 61, 97
1, 277762, Note_on_c, 0, 71, 113
1, 277762, Note_on_c, 0, 83, 109
1, 277791, Note_off_c, 0, 83, 69
1, 277791, Note_off_c, 0, 71, 67
1, 277911, Note_off_c, 0, 65, 57
1, 277925, Note_on_c, 0, 73, 115
1, 277926, Note_on_c, 0, 85, 110
1, 277946, Note_off_c, 0, 85, 71
1, 277948, Note_off_c, 0, 73, 73
1, 277952, Note_off_c, 0, 61, 67
1, 278180, Note_on_c, 0, 71, 82
1, 278185, Note_on_c, 0, 67, 76
1, 278190, Note_on_c, 0, 29, 73
1, 278295, Note_off_c, 0, 29, 49
1, 278303, Note_off_c, 0, 71, 53
1, 278320, Poly_aftertouch_c, 0, 33, 127
1, 278336, Note_on_c, 0, 35, 40
1, 278351, Note_on_c, 0, 61, 82
1, 278351, Note_on_c, 0, 70, 76
1, 278367, Poly_aftertouch_c, 0, 33, 0
1, 278368, Note_off_c, 0, 35, 50
1, 278373, Note_off_c, 0, 67, 34
1, 278385, Note_on_c, 0, 43, 50
1, 278401, Note_off_c, 0, 61, 63
1, 278402, Note_off_c, 0, 70, 65
1, 278411, Note_off_c, 0, 43, 57
1, 278476, Note_on_c, 0, 41, 62
1, 278476, Note_on_c, 0, 69, 82
1, 278484, Note_on_c, 0, 65, 70
1, 278525, Note_off_c, 0, 65, 58
1, 278528, Note_off_c, 0, 69, 61
1, 278581, Note_on_c, 0, 47, 45
1, 278584, Note_on_c, 0, 68, 86
1, 278586, Note_on_c, 0, 59, 72
1, 278612, Note_off_c, 0, 59, 67
1, 278639, Note_off_c, 0, 68, 60
1, 278667, Note_on_c, 0, 55, 88
1, 278667, Poly_aftertouch_c, 0, 48, 127
1, 278669, Note_off_c, 0, 47, 53
1, 278696, Note_on_c, 0, 71, 94
1, 278696, Poly_aftertouch_c, 0, 48, 0
1, 278705, Note_on_c, 0, 67, 81
1, 278727, Note_off_c, 0, 55, 62
1, 278736, Note_off_c, 0, 41, 35
1, 278737, Note_on_c, 0, 47, 61
1, 278748, Note_off_c, 0, 71, 60
1, 278767, Note_off_c, 0, 67, 64
1, 278790, Note_on_c, 0, 41, 69
1, 278811, Note_on_c, 0, 70, 95
1, 278816, Note_off_c, 0, 47, 64
1, 278817, Note_on_c, 0, 61, 90
1, 278833, Note_off_c, 0, 41, 64
1, 278856, Note_off_c, 0, 61, 65
1, 278867, Note_off_c, 0, 70, 66
1, 278882, Note_on_c, 0, 43, 82
1, 278927, Note_on_c, 0, 69, 87
1, 278937, Note_on_c, 0, 65, 72
1, 278954, Note_on_c, 0, 35, 77
1, 278963, Note_off_c, 0, 43, 61
1, 278972, Note_off_c, 0, 65, 63
1, 278978, Note_off_c, 0, 69, 62
1, 279005, Note_on_c, 0, 29, 93
1, 279013, Note_off_c, 0, 35, 63
1, 279017, Note_on_c, 0, 68, 97
1, 279019, Note_on_c, 0, 59, 92
1, 279049, Note_off_c, 0, 59, 66
1, 279056, Note_on_c, 0, 35, 73
1, 279073, Note_off_c, 0, 68, 66
1, 279078, Note_off_c, 0, 29, 62
1, 279103, Note_off_c, 0, 35, 62
1, 279107, Note_on_c, 0, 43, 82
1, 279124, Note_on_c, 0, 71, 98
1, 279130, Note_off_c, 0, 43, 71
1, 279130, Note_on_c, 0, 67, 94
1, 279169, Note_off_c, 0, 71, 63
1, 279178, Note_off_c, 0, 67, 66
1, 279225, Note_on_c, 0, 70, 107
1, 279231, Note_on_c, 0, 41, 74
1, 279234, Note_on_c, 0, 61, 78
1, 279252, Note_off_c, 0, 61, 67
1, 279270, Note_off_c, 0, 70, 69
1, 279284, Note_on_c, 0, 47, 79
1, 279306, Note_on_c, 0, 45, 45
1, 279314, Note_off_c, 0, 41, 64
1, 279333, Note_off_c, 0, 47, 64
1, 279339, Note_off_c, 0, 45, 46
1, 279349, Note_on_c, 0, 73, 110
1, 279350, Note_on_c, 0, 83, 98
1, 279355, Note_on_c, 0, 71, 96
1, 279355, Note_on_c, 0, 77, 91
1, 279383, Note_on_c, 0, 81, 46
1, 279383, Note_off_c, 0, 81, 127
1, 279394, Note_off_c, 0, 83, 59
1, 279395, Note_on_c, 0, 79, 32
1, 279396, Note_off_c, 0, 71, 45
1, 279414, Note_off_c, 0, 77, 65
1, 279418, Note_off_c, 0, 73, 61
1, 279426, Note_off_c, 0, 79, 57
1, 279488, Note_on_c, 0, 76, 102
1, 279497, Note_on_c, 0, 67, 96
1, 279521, Note_off_c, 0, 67, 64
1, 279551, Note_off_c, 0, 76, 71
1, 279579, Poly_aftertouch_c, 0, 61, 127
1, 279622, Poly_aftertouch_c, 0, 61, 0
1, 279640, Note_on_c, 0, 53, 82
1, 279650, Control_c, 0, 64, 73
1, 279663, Note_on_c, 0, 62, 97
1, 279664, Control_c, 0, 64, 0
1, 279671, Note_on_c, 0, 83, 109
1, 279672, Note_on_c, 0, 88, 104
1, 279672, Note_on_c, 0, 79, 107
1, 279690, Note_on_c, 0, 86, 70
1, 279700, Note_off_c, 0, 53, 61
1, 279707, Note_off_c, 0, 86, 47
1, 279717, Note_on_c, 0, 65, 101
1, 279718, Note_on_c, 0, 61, 97
1, 279724, Note_off_c, 0, 79, 61
1, 279724, Control_c, 0, 64, 66
1, 279730, Note_off_c, 0, 62, 66
1, 279738, Control_c, 0, 64, 127
1, 279756, Note_off_c, 0, 65, 71
1, 279761, Note_off_c, 0, 88, 57
1, 279762, Note_off_c, 0, 61, 68
1, 279787, Note_off_c, 0, 83, 65
1, 279824, Note_on_c, 0, 82, 5
1, 279857, Note_on_c, 0, 73, 88
1, 279883, Note_on_c, 0, 75, 35
1, 279888, Note_off_c, 0, 73, 62
1, 279904, Note_off_c, 0, 82, 64
1, 279913, Note_off_c, 0, 75, 55
1, 279977, Note_on_c, 0, 83, 100
1, 279986, Note_on_c, 0, 81, 82
1, 279987, Note_on_c, 0, 77, 89
1, 280022, Note_on_c, 0, 80, 38
1, 280030, Note_off_c, 0, 77, 67
1, 280043, Note_off_c, 0, 83, 61
1, 280045, Note_off_c, 0, 81, 65
1, 280052, Note_off_c, 0, 80, 33
1, 280095, Note_on_c, 0, 80, 105
1, 280101, Note_on_c, 0, 71, 95
1, 280119, Note_off_c, 0, 71, 70
1, 280139, Note_off_c, 0, 80, 74
1, 280235, Note_on_c, 0, 29, 105
1, 280235, Note_on_c, 0, 83, 115
1, 280236, Note_on_c, 0, 79, 98
1, 280238, Note_on_c, 0, 88, 101
1, 280239, Note_on_c, 0, 86, 102
1, 280251, Poly_aftertouch_c, 0, 37, 0
1, 280271, Note_off_c, 0, 79, 64
1, 280290, Note_off_c, 0, 86, 61
1, 280291, Note_off_c, 0, 88, 61
1, 280308, Note_off_c, 0, 83, 61
1, 280322, Poly_aftertouch_c, 0, 33, 127
1, 280325, Note_off_c, 0, 29, 60
1, 280354, Note_on_c, 0, 35, 51
1, 280370, Note_on_c, 0, 36, 57
1, 280371, Poly_aftertouch_c, 0, 33, 0
1, 280379, Note_on_c, 0, 82, 87
1, 280385, Note_on_c, 0, 73, 90
1, 280392, Note_off_c, 0, 35, 63
1, 280402, Note_off_c, 0, 36, 53
1, 280403, Note_off_c, 0, 73, 73
1, 280409, Poly_aftertouch_c, 0, 37, 127
1, 280415, Note_on_c, 0, 43, 71
1, 280419, Note_off_c, 0, 82, 65
1, 280447, Note_off_c, 0, 43, 66
1, 280452, Poly_aftertouch_c, 0, 37, 0
1, 280480, Poly_aftertouch_c, 0, 74, 127
1, 280487, Note_on_c, 0, 83, 90
1, 280492, Note_on_c, 0, 81, 86
1, 280494, Note_on_c, 0, 41, 80
1, 280495, Note_on_c, 0, 77, 84
1, 280500, Poly_aftertouch_c, 0, 74, 0
1, 280531, Note_off_c, 0, 77, 63
1, 280539, Note_off_c, 0, 81, 65
1, 280546, Note_off_c, 0, 83, 63
1, 280576, Note_on_c, 0, 47, 66
1, 280578, Note_off_c, 0, 41, 62
1, 280590, Note_on_c, 0, 80, 100
1, 280596, Note_on_c, 0, 71, 84
1, 280617, Note_off_c, 0, 71, 70
1, 280637, Note_off_c, 0, 80, 70
1, 280683, Note_off_c, 0, 47, 61
1, 280723, Note_on_c, 0, 55, 119
1, 280725, Note_on_c, 0, 79, 107
1, 280725, Note_on_c, 0, 88, 100
1, 280732, Note_on_c, 0, 83, 91
1, 280732, Note_on_c, 0, 84, 86
1, 280737, Note_on_c, 0, 86, 69
1, 280747, Note_off_c, 0, 84, 74
1, 280754, Note_off_c, 0, 86, 43
1, 280757, Note_off_c, 0, 79, 72
1, 280767, Note_on_c, 0, 49, 35
1, 280767, Note_off_c, 0, 49, 127
1, 280768, Note_off_c, 0, 88, 64
1, 280773, Note_off_c, 0, 83, 64
1, 280802, Poly_aftertouch_c, 0, 47, 127
1, 280814, Poly_aftertouch_c, 0, 45, 127
1, 280822, Note_off_c, 0, 55, 56
1, 280832, Note_on_c, 0, 47, 16
1, 280851, Note_on_c, 0, 82, 92
1, 280854, Poly_aftertouch_c, 0, 45, 0
1, 280857, Note_on_c, 0, 73, 95
1, 280886, Note_off_c, 0, 82, 66
1, 280893, Note_off_c, 0, 73, 66
1, 280911, Note_on_c, 0, 41, 75
1, 280939, Note_off_c, 0, 47, 63
1, 280950, Note_on_c, 0, 81, 96
1, 280963, Note_on_c, 0, 77, 84
1, 280965, Note_off_c, 0, 41, 66
1, 281005, Note_off_c, 0, 77, 64
1, 281009, Note_off_c, 0, 81, 64
1, 281014, Note_on_c, 0, 43, 81
1, 281067, Note_on_c, 0, 80, 104
1, 281072, Note_on_c, 0, 71, 88
1, 281096, Note_off_c, 0, 43, 56
1, 281106, Note_on_c, 0, 35, 75
1, 281109, Note_off_c, 0, 71, 62
1, 281113, Note_off_c, 0, 80, 66
1, 281119, Note_on_c, 0, 78, 21
1, 281161, Note_off_c, 0, 78, 48
1, 281163, Note_on_c, 0, 29, 100
1, 281175, Note_off_c, 0, 35, 62
1, 281190, Note_on_c, 0, 79, 97
1, 281193, Note_on_c, 0, 75, 92
1, 281234, Note_on_c, 0, 35, 74
1, 281236, Note_off_c, 0, 75, 68
1, 281243, Note_off_c, 0, 79, 62
1, 281247, Note_off_c, 0, 29, 62
1, 281263, Note_on_c, 0, 33, 10
1, 281289, Note_off_c, 0, 35, 63
1, 281295, Note_on_c, 0, 78, 99
1, 281296, Note_on_c, 0, 43, 72
1, 281300, Note_on_c, 0, 69, 96
1, 281315, Note_off_c, 0, 33, 51
1, 281319, Note_off_c, 0, 43, 67
1, 281346, Note_off_c, 0, 69, 65
1, 281348, Note_off_c, 0, 78, 57
1, 281380, Note_on_c, 0, 41, 81
1, 281401, Note_on_c, 0, 77, 91
1, 281406, Note_on_c, 0, 73, 98
1, 281449, Note_on_c, 0, 45, 14
1, 281450, Note_off_c, 0, 77, 65
1, 281451, Note_on_c, 0, 47, 77
1, 281452, Note_off_c, 0, 73, 64
1, 281455, Note_off_c, 0, 41, 64
1, 281495, Note_off_c, 0, 45, 37
1, 281500, Note_on_c, 0, 76, 97
1, 281506, Note_on_c, 0, 67, 99
1, 281519, Note_off_c, 0, 47, 62
1, 281544, Note_off_c, 0, 67, 66
1, 281544, Note_off_c, 0, 76, 67
1, 281679, Note_on_c, 0, 62, 109
1, 281681, Note_on_c, 0, 75, 102
1, 281682, Note_on_c, 0, 71, 100
1, 281695, Note_on_c, 0, 54, 108
1, 281702, Note_on_c, 0, 70, 63
1, 281720, Note_off_c, 0, 70, 64
1, 281726, Control_c, 0, 64, 76
1, 281729, Note_on_c, 0, 68, 7
1, 281729, Note_off_c, 0, 68, 127
1, 281729, Note_on_c, 0, 49, 44
1, 281741, Control_c, 0, 64, 36
1, 281756, Control_c, 0, 64, 0
1, 281759, Note_off_c, 0, 49, 49
1, 281771, Control_c, 0, 64, 44
1, 281793, Control_c, 0, 64, 127
1, 281795, Note_off_c, 0, 62, 59
1, 281819, Note_off_c, 0, 54, 58
1, 281830, Note_on_c, 0, 47, 72
1, 281874, Note_on_c, 0, 65, 98
1, 281887, Note_on_c, 0, 41, 76
1, 281890, Note_off_c, 0, 47, 62
1, 281935, Note_on_c, 0, 47, 66
1, 281949, Note_on_c, 0, 66, 10
1, 281959, Note_off_c, 0, 41, 62
1, 281968, Note_off_c, 0, 65, 0
1, 281969, Note_off_c, 0, 66, 0
1, 281969, Note_on_c, 0, 66, 59
1, 281973, Note_off_c, 0, 47, 64
1, 281991, Poly_aftertouch_c, 0, 65, 0
1, 282047, Note_on_c, 0, 42, 84
1, 282102, Note_off_c, 0, 42, 64
1, 282123, Note_on_c, 0, 35, 32
1, 282153, Note_on_c, 0, 29, 108
1, 282168, Note_on_c, 0, 33, 66
1, 282233, Note_on_c, 0, 36, 47
1, 282253, Note_off_c, 0, 29, 63
1, 282262, Note_off_c, 0, 33, 61
1, 282272, Note_on_c, 0, 42, 80
1, 282290, Note_off_c, 0, 36, 60
1, 282290, Note_off_c, 0, 35, 55
1, 282293, Poly_aftertouch_c, 0, 32, 0
1, 282295, Note_off_c, 0, 42, 67
1, 282354, Note_off_c, 0, 66, 62
1, 282358, Note_off_c, 0, 75, 51
1, 282372, Note_on_c, 0, 41, 78
1, 282380, Note_on_c, 0, 65, 108
1, 282423, Note_off_c, 0, 71, 50
1, 282425, Note_on_c, 0, 47, 79
1, 282427, Note_on_c, 0, 45, 44
1, 282434, Note_off_c, 0, 41, 62
1, 282457, Note_off_c, 0, 45, 53
1, 282458, Note_off_c, 0, 65, 59
1, 282459, Note_off_c, 0, 47, 65
1, 282606, Note_on_c, 0, 62, 110
1, 282609, Note_on_c, 0, 66, 101
1, 282609, Note_on_c, 0, 71, 98
1, 282611, Note_on_c, 0, 75, 100
1, 282621, Note_on_c, 0, 54, 110
1, 282647, Note_on_c, 0, 49, 57
1, 282653, Note_on_c, 0, 56, 32
1, 282659, Note_off_c, 0, 54, 65
1, 282664, Note_on_c, 0, 44, 36
1, 282664, Note_off_c, 0, 44, 127
1, 282667, Note_off_c, 0, 66, 64
1, 282668, Note_on_c, 0, 46, 27
1, 282668, Note_off_c, 0, 46, 127
1, 282676, Note_off_c, 0, 71, 64
1, 282680, Note_off_c, 0, 75, 63
1, 282680, Note_off_c, 0, 49, 63
1, 282685, Note_off_c, 0, 56, 52
1, 282691, Note_off_c, 0, 62, 61
1, 282698, Poly_aftertouch_c, 0, 44, 0
1, 282712, Poly_aftertouch_c, 0, 46, 127
1, 282713, Poly_aftertouch_c, 0, 48, 127
1, 282733, Note_on_c, 0, 69, 99
1, 282751, Note_on_c, 0, 48, 21
1, 282760, Poly_aftertouch_c, 0, 46, 0
1, 282764, Poly_aftertouch_c, 0, 53, 0
1, 282795, Note_off_c, 0, 69, 67
1, 282814, Note_off_c, 0, 48, 61
1, 282826, Note_on_c, 0, 41, 57
1, 282838, Note_on_c, 0, 43, 40
1, 282858, Note_on_c, 0, 71, 103
1, 282859, Note_off_c, 0, 41, 58
1, 282879, Note_off_c, 0, 43, 43
1, 282960, Note_on_c, 0, 42, 80
1, 282999, Note_on_c, 0, 34, 71
1, 283015, Note_off_c, 0, 42, 52
1, 283046, Note_off_c, 0, 34, 63
1, 283065, Note_on_c, 0, 29, 97
1, 283087, Note_on_c, 0, 35, 60
1, 283090, Note_on_c, 0, 36, 43
1, 283101, Note_on_c, 0, 33, 46
1, 283112, Note_on_c, 0, 31, 12
1, 283112, Note_off_c, 0, 31, 127
1, 283132, Note_off_c, 0, 35, 0
1, 283133, Note_off_c, 0, 36, 43
1, 283139, Note_off_c, 0, 33, 49
1, 283145, Note_on_c, 0, 35, 63
1, 283157, Note_off_c, 0, 29, 63
1, 283179, Note_off_c, 0, 35, 63
1, 283188, Note_on_c, 0, 42, 66
1, 283190, Note_off_c, 0, 71, 48
1, 283212, Note_off_c, 0, 42, 60
1, 283285, Note_on_c, 0, 69, 103
1, 283288, Note_on_c, 0, 47, 85
1, 283330, Note_off_c, 0, 47, 63
1, 283332, Note_on_c, 0, 41, 74
1, 283343, Note_off_c, 0, 69, 59
1, 283378, Note_on_c, 0, 47, 76
1, 283387, Note_off_c, 0, 41, 65
1, 283410, Note_off_c, 0, 47, 65
1, 283467, Control_c, 0, 64, 65
1, 283482, Note_on_c, 0, 74, 91
1, 283482, Control_c, 0, 64, 0
1, 283483, Note_on_c, 0, 65, 107
1, 283485, Note_on_c, 0, 78, 101
1, 283498, Note_on_c, 0, 57, 113
1, 283500, Note_on_c, 0, 70, 82
1, 283513, Note_off_c, 0, 70, 71
1, 283527, Note_off_c, 0, 57, 73
1, 283527, Control_c, 0, 64, 93
1, 283542, Control_c, 0, 64, 127
1, 283735, Note_off_c, 0, 65, 45
1, 283741, Note_off_c, 0, 78, 53
1, 283759, Note_on_c, 0, 69, 85
1, 283775, Note_off_c, 0, 74, 52
1, 283848, Note_on_c, 0, 34, 21
1, 283878, Note_on_c, 0, 29, 87
1, 283890, Note_on_c, 0, 31, 63
1, 283909, Note_off_c, 0, 34, 47
1, 283922, Note_off_c, 0, 69, 57
1, 283938, Note_off_c, 0, 31, 0
1, 283941, Control_c, 0, 64, 77
1, 283952, Note_on_c, 0, 65, 113
1, 283952, Note_on_c, 0, 74, 99
1, 283956, Note_on_c, 0, 78, 104
1, 283956, Control_c, 0, 64, 0
1, 283968, Note_on_c, 0, 70, 74
1, 283968, Note_off_c, 0, 70, 127
1, 283977, Poly_aftertouch_c, 0, 31, 127
1, 283986, Control_c, 0, 64, 40
1, 284001, Control_c, 0, 64, 100
1, 284016, Control_c, 0, 64, 127
1, 284019, Note_on_c, 0, 35, 79
1, 284048, Note_off_c, 0, 29, 63
1, 284075, Note_off_c, 0, 35, 64
1, 284077, Note_off_c, 0, 65, 56
1, 284080, Note_on_c, 0, 42, 74
1, 284083, Poly_aftertouch_c, 0, 31, 0
1, 284111, Note_off_c, 0, 42, 64
1, 284135, Note_off_c, 0, 78, 47
1, 284166, Note_off_c, 0, 74, 57
1, 284180, Note_on_c, 0, 47, 74
1, 284189, Note_on_c, 0, 69, 86
1, 284213, Note_off_c, 0, 47, 64
1, 284229, Note_on_c, 0, 41, 66
1, 284231, Note_off_c, 0, 69, 60
1, 284248, Note_on_c, 0, 43, 58
1, 284276, Note_off_c, 0, 43, 62
1, 284276, Poly_aftertouch_c, 0, 48, 0
1, 284278, Note_on_c, 0, 47, 81
1, 284281, Note_off_c, 0, 41, 65
1, 284302, Note_off_c, 0, 47, 69
1, 284309, Note_on_c, 0, 48, 20
1, 284358, Note_off_c, 0, 48, 50
1, 284364, Control_c, 0, 64, 71
1, 284375, Note_on_c, 0, 57, 116
1, 284379, Control_c, 0, 64, 0
1, 284404, Note_on_c, 0, 54, 58
1, 284404, Note_off_c, 0, 54, 127
1, 284438, Control_c, 0, 64, 51
1, 284452, Control_c, 0, 64, 127
1, 284514, Note_on_c, 0, 56, 8
1, 284528, Note_off_c, 0, 57, 53
1, 284548, Note_off_c, 0, 56, 47
1, 284567, Note_on_c, 0, 66, 91
1, 284576, Note_on_c, 0, 62, 69
1, 284608, Note_off_c, 0, 66, 50
1, 284612, Note_off_c, 0, 62, 60
1, 284714, Note_on_c, 0, 66, 105
1, 284716, Note_on_c, 0, 62, 95
1, 284765, Note_off_c, 0, 62, 62
1, 284782, Note_off_c, 0, 66, 57
1, 284797, Note_on_c, 0, 29, 100
1, 284843, Note_on_c, 0, 33, 35
1, 284882, Note_on_c, 0, 66, 120
1, 284886, Note_on_c, 0, 62, 108
1, 284893, Note_on_c, 0, 35, 76
1, 284919, Note_on_c, 0, 36, 50
1, 284920, Note_off_c, 0, 33, 0
1, 284920, Note_on_c, 0, 33, 5
1, 284924, Note_off_c, 0, 62, 66
1, 284942, Note_off_c, 0, 29, 57
1, 284944, Note_off_c, 0, 66, 55
1, 284955, Note_off_c, 0, 36, 34
1, 284960, Note_off_c, 0, 33, 56
1, 284978, Note_off_c, 0, 35, 63
1, 284980, Note_on_c, 0, 42, 93
1, 285007, Note_off_c, 0, 42, 69
1, 285039, Note_on_c, 0, 66, 126
1, 285043, Note_on_c, 0, 62, 119
1, 285078, Note_on_c, 0, 41, 83
1, 285083, Note_off_c, 0, 62, 55
1, 285085, Note_on_c, 0, 65, 32
1, 285101, Note_off_c, 0, 66, 58
1, 285119, Note_off_c, 0, 65, 50
1, 285142, Note_on_c, 0, 47, 87
1, 285148, Note_off_c, 0, 41, 64
1, 285154, Note_on_c, 0, 45, 45
1, 285174, Note_on_c, 0, 66, 121
1, 285176, Note_on_c, 0, 62, 124
1, 285178, Note_off_c, 0, 47, 67
1, 285187, Note_off_c, 0, 45, 45
1, 285217, Note_off_c, 0, 62, 66
1, 285222, Note_on_c, 0, 65, 26
1, 285224, Note_off_c, 0, 66, 73
1, 285263, Note_off_c, 0, 65, 47
1, 285342, Note_on_c, 0, 71, 97
1, 285343, Note_on_c, 0, 62, 109
1, 285345, Note_on_c, 0, 75, 103
1, 285363, Note_on_c, 0, 54, 118
1, 285366, Note_on_c, 0, 70, 53
1, 285366, Note_off_c, 0, 70, 127
1, 285392, Note_on_c, 0, 69, 30
1, 285396, Note_on_c, 0, 49, 52
1, 285396, Note_off_c, 0, 49, 127
1, 285413, Note_on_c, 0, 50, 26
1, 285413, Note_off_c, 0, 50, 127
1, 285414, Note_off_c, 0, 62, 56
1, 285422, Note_off_c, 0, 54, 62
1, 285425, Poly_aftertouch_c, 0, 49, 0
1, 285426, Note_off_c, 0, 69, 51
1, 285443, Poly_aftertouch_c, 0, 50, 0
1, 285506, Note_on_c, 0, 46, 34
1, 285548, Note_on_c, 0, 47, 54
1, 285553, Note_off_c, 0, 46, 53
1, 285554, Note_on_c, 0, 65, 87
1, 285583, Note_on_c, 0, 41, 72
1, 285632, Note_off_c, 0, 47, 71
1, 285639, Note_off_c, 0, 41, 63
1, 285651, Note_off_c, 0, 65, 58
1, 285665, Note_on_c, 0, 66, 104
1, 285706, Note_on_c, 0, 42, 87
1, 285763, Note_off_c, 0, 42, 61
1, 285807, Note_on_c, 0, 35, 48
1, 285810, Note_on_c, 0, 29, 100
1, 285833, Control_c, 0, 64, 82
1, 285838, Note_on_c, 0, 33, 54
1, 285848, Control_c, 0, 64, 68
1, 285852, Note_off_c, 0, 35, 0
1, 285862, Control_c, 0, 64, 75
1, 285868, Note_on_c, 0, 36, 46
1, 285877, Control_c, 0, 64, 127
1, 285890, Poly_aftertouch_c, 0, 35, 127
1, 285909, Note_off_c, 0, 29, 62
1, 285919, Poly_aftertouch_c, 0, 35, 0
1, 285920, Note_on_c, 0, 42, 79
1, 285926, Note_off_c, 0, 33, 0
1, 285943, Note_off_c, 0, 36, 63
1, 285950, Note_off_c, 0, 42, 67
1, 285964, Poly_aftertouch_c, 0, 33, 127
1, 285993, Poly_aftertouch_c, 0, 33, 0
1, 285998, Note_off_c, 0, 66, 60
1, 286002, Note_off_c, 0, 75, 0
1, 286018, Note_on_c, 0, 65, 114
1, 286019, Poly_aftertouch_c, 0, 75, 0
1, 286025, Note_on_c, 0, 41, 88
1, 286046, Poly_aftertouch_c, 0, 75, 0
1, 286067, Note_off_c, 0, 71, 61
1, 286073, Note_on_c, 0, 46, 70
1, 286075, Note_on_c, 0, 43, 17
1, 286076, Note_off_c, 0, 41, 65
1, 286093, Note_on_c, 0, 47, 75
1, 286095, Note_off_c, 0, 65, 57
1, 286099, Note_off_c, 0, 46, 58
1, 286105, Note_off_c, 0, 43, 0
1, 286115, Note_off_c, 0, 47, 68
1, 286123, Poly_aftertouch_c, 0, 43, 0
1, 286232, Control_c, 0, 64, 85
1, 286233, Note_on_c, 0, 62, 107
1, 286235, Note_on_c, 0, 71, 99
1, 286236, Note_on_c, 0, 66, 107
1, 286236, Note_on_c, 0, 75, 100
1, 286245, Note_on_c, 0, 54, 125
1, 286247, Control_c, 0, 64, 74
1, 286262, Control_c, 0, 64, 83
1, 286280, Note_on_c, 0, 49, 59
1, 286284, Control_c, 0, 64, 127
1, 286291, Note_on_c, 0, 42, 48
1, 286304, Note_off_c, 0, 54, 69
1, 286314, Note_off_c, 0, 66, 65
1, 286314, Note_off_c, 0, 49, 63
1, 286317, Note_off_c, 0, 71, 63
1, 286317, Note_off_c, 0, 75, 62
1, 286323, Note_off_c, 0, 42, 56
1, 286345, Note_off_c, 0, 62, 52
1, 286355, Note_on_c, 0, 47, 64
1, 286363, Note_on_c, 0, 69, 94
1, 286369, Poly_aftertouch_c, 0, 48, 127
1, 286384, Note_on_c, 0, 46, 3
1, 286416, Note_off_c, 0, 46, 52
1, 286424, Note_off_c, 0, 69, 66
1, 286425, Note_on_c, 0, 41, 80
1, 286433, Note_off_c, 0, 47, 62
1, 286445, Poly_aftertouch_c, 0, 48, 0
1, 286468, Note_off_c, 0, 41, 64
1, 286471, Note_on_c, 0, 71, 108
1, 286548, Note_on_c, 0, 42, 89
1, 286635, Note_off_c, 0, 42, 61
1, 286639, Note_on_c, 0, 35, 71
1, 286655, Note_on_c, 0, 29, 104
1, 286670, Control_c, 0, 64, 71
1, 286677, Note_off_c, 0, 35, 63
1, 286685, Control_c, 0, 64, 30
1, 286700, Control_c, 0, 64, 60
1, 286715, Control_c, 0, 64, 127
1, 286718, Note_on_c, 0, 35, 92
1, 286737, Note_on_c, 0, 33, 37
1, 286751, Note_off_c, 0, 29, 61
1, 286757, Note_on_c, 0, 36, 34
1, 286761, Note_on_c, 0, 42, 77
1, 286773, Note_off_c, 0, 35, 65
1, 286780, Note_off_c, 0, 33, 44
1, 286785, Note_off_c, 0, 42, 67
1, 286797, Note_off_c, 0, 36, 46
1, 286830, Note_off_c, 0, 71, 57
1, 286869, Note_on_c, 0, 69, 105
1, 286877, Note_on_c, 0, 48, 75
1, 286878, Note_on_c, 0, 47, 74
1, 286907, Note_off_c, 0, 48, 64
1, 286907, Note_off_c, 0, 47, 63
1, 286911, Note_on_c, 0, 41, 68
1, 286911, Note_on_c, 0, 43, 70
1, 286944, Note_off_c, 0, 69, 51
1, 286969, Note_on_c, 0, 48, 76
1, 286969, Note_off_c, 0, 41, 62
1, 286970, Note_off_c, 0, 43, 61
1, 286981, Note_on_c, 0, 47, 64
1, 286996, Note_off_c, 0, 48, 67
1, 287022, Note_off_c, 0, 47, 52
1, 287033, Control_c, 0, 64, 74
1, 287048, Control_c, 0, 64, 0
1, 287065, Note_on_c, 0, 74, 94
1, 287070, Note_on_c, 0, 65, 114
1, 287071, Note_on_c, 0, 78, 103
1, 287077, Note_on_c, 0, 57, 106
1, 287092, Control_c, 0, 64, 62
1, 287099, Note_on_c, 0, 70, 61
1, 287108, Control_c, 0, 64, 127
1, 287110, Note_off_c, 0, 57, 73
1, 287113, Note_on_c, 0, 54, 52
1, 287113, Note_off_c, 0, 54, 127
1, 287122, Note_off_c, 0, 70, 63
1, 287246, Note_off_c, 0, 78, 54
1, 287290, Note_off_c, 0, 65, 39
1, 287307, Note_on_c, 0, 69, 93
1, 287323, Note_off_c, 0, 74, 55
1, 287354, Note_on_c, 0, 32, 23
1, 287379, Note_off_c, 0, 69, 58
1, 287387, Poly_aftertouch_c, 0, 36, 127
1, 287389, Note_on_c, 0, 29, 99
1, 287391, Poly_aftertouch_c, 0, 35, 127
1, 287417, Note_on_c, 0, 33, 55
1, 287435, Poly_aftertouch_c, 0, 35, 0
1, 287452, Poly_aftertouch_c, 0, 36, 0
1, 287453, Note_off_c, 0, 32, 33
1, 287463, Note_off_c, 0, 33, 43
1, 287477, Control_c, 0, 64, 112
1, 287492, Control_c, 0, 64, 63
1, 287507, Control_c, 0, 64, 0
1, 287518, Note_on_c, 0, 78, 87
1, 287519, Note_on_c, 0, 74, 80
1, 287521, Note_on_c, 0, 65, 90
1, 287524, Note_on_c, 0, 69, 78
1, 287537, Control_c, 0, 64, 54
1, 287551, Control_c, 0, 64, 100
1, 287566, Control_c, 0, 64, 127
1, 287569, Note_on_c, 0, 35, 73
1, 287569, Poly_aftertouch_c, 0, 33, 127
1, 287586, Note_off_c, 0, 65, 58
1, 287594, Note_off_c, 0, 29, 62
1, 287601, Note_off_c, 0, 78, 58
1, 287623, Poly_aftertouch_c, 0, 33, 0
1, 287623, Note_off_c, 0, 35, 62
1, 287644, Note_off_c, 0, 74, 55
1, 287646, Note_on_c, 0, 42, 51
1, 287655, Note_off_c, 0, 69, 53
1, 287676, Note_off_c, 0, 42, 54
1, 287697, Note_on_c, 0, 65, 97
1, 287697, Note_on_c, 0, 69, 75
1, 287697, Note_on_c, 0, 78, 94
1, 287699, Note_on_c, 0, 74, 78
1, 287709, Note_on_c, 0, 41, 73
1, 287755, Note_off_c, 0, 78, 58
1, 287757, Note_off_c, 0, 65, 61
1, 287794, Note_off_c, 0, 74, 62
1, 287798, Note_on_c, 0, 47, 79
1, 287798, Note_off_c, 0, 41, 64
1, 287802, Note_off_c, 0, 69, 62
1, 287836, Note_on_c, 0, 69, 91
1, 287836, Note_on_c, 0, 74, 82
1, 287838, Note_on_c, 0, 65, 102
1, 287842, Note_on_c, 0, 78, 99
1, 287846, Note_off_c, 0, 47, 61
1, 287852, Note_on_c, 0, 54, 85
1, 287869, Note_off_c, 0, 65, 66
1, 287890, Note_off_c, 0, 54, 63
1, 287890, Note_off_c, 0, 69, 63
1, 287891, Note_off_c, 0, 74, 65
1, 287891, Note_off_c, 0, 78, 56
1, 287974, Control_c, 0, 64, 67
1, 287980, Note_on_c, 0, 73, 99
1, 287983, Note_on_c, 0, 68, 105
1, 287984, Note_on_c, 0, 81, 100
1, 287986, Note_on_c, 0, 60, 102
1, 287988, Note_on_c, 0, 59, 99
1, 287988, Note_on_c, 0, 77, 85
1, 287989, Control_c, 0, 64, 35
1, 288004, Control_c, 0, 64, 49
1, 288017, Note_on_c, 0, 78, 26
1, 288017, Note_off_c, 0, 78, 127
1, 288018, Note_off_c, 0, 60, 68
1, 288019, Control_c, 0, 64, 74
1, 288022, Note_off_c, 0, 59, 69
1, 288034, Control_c, 0, 64, 127
1, 288054, Note_off_c, 0, 81, 56
1, 288101, Note_off_c, 0, 68, 56
1, 288116, Note_off_c, 0, 73, 60
1, 288132, Note_off_c, 0, 77, 62
1, 288162, Note_on_c, 0, 77, 83
1, 288166, Note_on_c, 0, 68, 105
1, 288166, Note_on_c, 0, 73, 103
1, 288166, Note_on_c, 0, 81, 95
1, 288174, Note_on_c, 0, 29, 101
1, 288180, Note_on_c, 0, 32, 88
1, 288202, Note_off_c, 0, 32, 62
1, 288222, Note_on_c, 0, 35, 29
1, 288229, Note_off_c, 0, 81, 58
1, 288240, Note_on_c, 0, 33, 21
1, 288251, Note_off_c, 0, 35, 0
1, 288263, Note_off_c, 0, 68, 60
1, 288269, Note_on_c, 0, 35, 58
1, 288269, Note_off_c, 0, 73, 58
1, 288284, Note_on_c, 0, 34, 41
1, 288287, Note_off_c, 0, 29, 62
1, 288290, Note_off_c, 0, 77, 61
1, 288301, Poly_aftertouch_c, 0, 36, 127
1, 288302, Note_on_c, 0, 36, 8
1, 288325, Note_on_c, 0, 42, 84
1, 288325, Note_off_c, 0, 34, 54
1, 288326, Note_off_c, 0, 33, 41
1, 288327, Note_on_c, 0, 73, 109
1, 288327, Note_off_c, 0, 35, 63
1, 288328, Note_on_c, 0, 81, 102
1, 288329, Note_on_c, 0, 68, 107
1, 288336, Note_off_c, 0, 36, 0
1, 288347, Note_off_c, 0, 42, 65
1, 288352, Note_off_c, 0, 68, 75
1, 288354, Note_on_c, 0, 80, 51
1, 288354, Note_off_c, 0, 80, 127
1, 288359, Poly_aftertouch_c, 0, 36, 0
1, 288367, Note_on_c, 0, 78, 29
1, 288367, Note_off_c, 0, 78, 127
1, 288379, Note_off_c, 0, 73, 67
1, 288379, Note_off_c, 0, 81, 68
1, 288400, Note_on_c, 0, 41, 82
1, 288401, Poly_aftertouch_c, 0, 77, 127
1, 288415, Note_on_c, 0, 40, 64
1, 288424, Note_on_c, 0, 47, 81
1, 288426, Poly_aftertouch_c, 0, 77, 0
1, 288444, Note_off_c, 0, 40, 36
1, 288445, Note_off_c, 0, 41, 66
1, 288453, Note_off_c, 0, 47, 67
1, 288474, Note_on_c, 0, 80, 43
1, 288485, Note_on_c, 0, 54, 77
1, 288499, Note_off_c, 0, 80, 56
1, 288506, Note_off_c, 0, 54, 69
1, 288531, Control_c, 0, 64, 66
1, 288546, Control_c, 0, 64, 0
1, 288558, Note_on_c, 0, 75, 99
1, 288559, Note_on_c, 0, 71, 117
1, 288560, Note_on_c, 0, 84, 104
1, 288561, Control_c, 0, 64, 44
1, 288563, Note_on_c, 0, 80, 103
1, 288571, Note_on_c, 0, 82, 76
1, 288574, Note_on_c, 0, 63, 104
1, 288575, Control_c, 0, 64, 81
1, 288590, Control_c, 0, 64, 127
1, 288591, Note_on_c, 0, 83, 44
1, 288591, Note_off_c, 0, 82, 71
1, 288594, Note_on_c, 0, 61, 63
1, 288596, Note_on_c, 0, 72, 32
1, 288596, Note_off_c, 0, 72, 127
1, 288597, Note_on_c, 0, 62, 69
1, 288599, Note_off_c, 0, 63, 75
1, 288615, Note_off_c, 0, 61, 43
1, 288616, Note_off_c, 0, 83, 61
1, 288626, Note_off_c, 0, 62, 64
1, 288653, Note_on_c, 0, 60, 20
1, 288690, Note_off_c, 0, 60, 34
1, 288717, Note_off_c, 0, 71, 60
1, 288728, Note_off_c, 0, 84, 56
1, 288743, Note_off_c, 0, 75, 61
1, 288755, Note_off_c, 0, 80, 60
1, 288804, Note_on_c, 0, 71, 111
1, 288804, Note_on_c, 0, 75, 119
1, 288805, Note_on_c, 0, 84, 102
1, 288806, Note_on_c, 0, 80, 98
1, 288809, Note_on_c, 0, 31, 102
1, 288810, Note_on_c, 0, 29, 105
1, 288822, Note_on_c, 0, 83, 74
1, 288828, Note_on_c, 0, 82, 55
1, 288828, Note_off_c, 0, 82, 127
1, 288838, Note_off_c, 0, 83, 62
1, 288840, Note_on_c, 0, 35, 34
1, 288840, Note_off_c, 0, 35, 127
1, 288840, Note_on_c, 0, 37, 32
1, 288868, Poly_aftertouch_c, 0, 35, 0
1, 288889, Note_off_c, 0, 37, 58
1, 288925, Note_on_c, 0, 35, 67
1, 288943, Note_on_c, 0, 33, 6
1, 288979, Note_off_c, 0, 84, 51
1, 288981, Note_off_c, 0, 71, 52
1, 288988, Note_off_c, 0, 31, 51
1, 288991, Note_off_c, 0, 29, 61
1, 289001, Note_off_c, 0, 33, 51
1, 289001, Poly_aftertouch_c, 0, 34, 127
1, 289010, Note_on_c, 0, 42, 90
1, 289026, Note_off_c, 0, 35, 61
1, 289026, Note_off_c, 0, 75, 58
1, 289032, Note_off_c, 0, 80, 59
1, 289035, Note_off_c, 0, 42, 68
1, 289039, Poly_aftertouch_c, 0, 36, 127
1, 289056, Poly_aftertouch_c, 0, 34, 0
1, 289071, Poly_aftertouch_c, 0, 36, 0
1, 289090, Note_on_c, 0, 84, 99
1, 289091, Note_on_c, 0, 71, 116
1, 289091, Note_on_c, 0, 75, 106
1, 289095, Note_on_c, 0, 80, 99
1, 289101, Note_on_c, 0, 47, 100
1, 289104, Note_on_c, 0, 82, 76
1, 289115, Note_on_c, 0, 83, 65
1, 289116, Note_on_c, 0, 48, 79
1, 289123, Note_off_c, 0, 82, 66
1, 289125, Note_off_c, 0, 84, 70
1, 289134, Note_off_c, 0, 83, 41
1, 289141, Note_on_c, 0, 45, 27
1, 289144, Note_off_c, 0, 80, 68
1, 289145, Note_off_c, 0, 71, 69
1, 289158, Note_off_c, 0, 75, 69
1, 289184, Note_on_c, 0, 41, 75
1, 289197, Note_off_c, 0, 45, 34
1, 289206, Note_off_c, 0, 48, 29
1, 289280, Note_on_c, 0, 48, 27
1, 289298, Note_on_c, 0, 54, 102
1, 289299, Note_off_c, 0, 47, 65
1, 289320, Note_off_c, 0, 41, 61
1, 289334, Note_off_c, 0, 48, 62
1, 289336, Note_off_c, 0, 54, 65
1, 289343, Note_on_c, 0, 45, 3
1, 289381, Note_off_c, 0, 45, 50
1, 289513, Note_on_c, 0, 42, 120
1, 289518, Note_on_c, 0, 29, 102
1, 289525, Note_on_c, 0, 41, 87
1, 289526, Note_on_c, 0, 34, 88
1, 289528, Note_on_c, 0, 37, 89
1, 289528, Note_off_c, 0, 37, 127
1, 289530, Note_on_c, 0, 32, 82
1, 289530, Note_off_c, 0, 32, 127
1, 289537, Note_on_c, 0, 50, 90
1, 289539, Note_on_c, 0, 59, 33
1, 289542, Note_on_c, 0, 40, 65
1, 289542, Note_off_c, 0, 40, 127
1, 289542, Note_off_c, 0, 29, 69
1, 289545, Note_off_c, 0, 41, 40
1, 289545, Note_off_c, 0, 42, 68
1, 289551, Note_on_c, 0, 31, 35
1, 289551, Note_off_c, 0, 31, 127
1, 289552, Note_off_c, 0, 34, 66
1, 289573, Note_on_c, 0, 54, 82
1, 289576, Poly_aftertouch_c, 0, 31, 0
1, 289577, Control_c, 0, 64, 84
1, 289580, Note_off_c, 0, 59, 62
1, 289587, Note_off_c, 0, 50, 67
1, 289592, Control_c, 0, 64, 45
1, 289595, Poly_aftertouch_c, 0, 30, 0
1, 289607, Control_c, 0, 64, 0
1, 289624, Note_off_c, 0, 54, 69
1, 289635, Note_on_c, 0, 59, 58
1, 289646, Note_on_c, 0, 63, 72
1, 289659, Note_off_c, 0, 59, 62
1, 289676, Note_off_c, 0, 63, 65
1, 289727, Note_on_c, 0, 62, 69
1, 289753, Note_off_c, 0, 62, 68
1, 289756, Note_on_c, 0, 66, 90
1, 289787, Note_off_c, 0, 66, 68
1, 289793, Note_on_c, 0, 63, 89
1, 289839, Note_off_c, 0, 63, 65
1, 289843, Control_c, 0, 64, 47
1, 289849, Note_on_c, 0, 74, 95
1, 289858, Control_c, 0, 64, 89
1, 289860, Note_on_c, 0, 59, 97
1, 289873, Control_c, 0, 64, 127
1, 289875, Note_on_c, 0, 82, 92
1, 289885, Note_off_c, 0, 74, 68
1, 289895, Note_off_c, 0, 59, 69
1, 289899, Note_on_c, 0, 86, 74
1, 289931, Note_off_c, 0, 86, 58
1, 289934, Note_on_c, 0, 78, 90
1, 289947, Control_c, 0, 64, 102
1, 289958, Note_off_c, 0, 82, 66
1, 289962, Control_c, 0, 64, 64
1, 289977, Control_c, 0, 64, 0
1, 289980, Note_on_c, 0, 74, 76
1, 289986, Note_off_c, 0, 78, 63
1, 290004, Note_off_c, 0, 74, 68
1, 290055, Note_on_c, 0, 62, 106
1, 290079, Note_on_c, 0, 61, 69
1, 290079, Note_off_c, 0, 61, 127
1, 290085, Note_off_c, 0, 62, 70
1, 290093, Note_on_c, 0, 71, 64
1, 290117, Note_on_c, 0, 66, 80
1, 290120, Note_on_c, 0, 74, 32
1, 290122, Note_off_c, 0, 71, 64
1, 290123, Note_on_c, 0, 72, 36
1, 290154, Note_off_c, 0, 72, 47
1, 290154, Note_off_c, 0, 74, 32
1, 290159, Note_off_c, 0, 66, 62
1, 290164, Note_on_c, 0, 62, 86
1, 290183, Note_off_c, 0, 62, 71
1, 290206, Control_c, 0, 64, 33
1, 290221, Control_c, 0, 64, 71
1, 290236, Control_c, 0, 64, 127
1, 290267, Note_on_c, 0, 61, 60
1, 290271, Note_on_c, 0, 45, 116
1, 290275, Note_on_c, 0, 32, 110
1, 290286, Note_on_c, 0, 39, 84
1, 290288, Note_on_c, 0, 50, 82
1, 290292, Note_on_c, 0, 37, 77
1, 290292, Note_off_c, 0, 37, 127
1, 290293, Note_on_c, 0, 34, 73
1, 290293, Note_off_c, 0, 34, 127
1, 290296, Note_off_c, 0, 32, 70
1, 290299, Note_off_c, 0, 45, 69
1, 290308, Note_off_c, 0, 39, 66
1, 290309, Note_on_c, 0, 54, 54
1, 290311, Note_off_c, 0, 61, 63
1, 290322, Note_off_c, 0, 50, 65
1, 290326, Control_c, 0, 64, 74
1, 290335, Note_off_c, 0, 54, 57
1, 290335, Note_on_c, 0, 53, 76
1, 290341, Control_c, 0, 64, 0
1, 290360, Note_on_c, 0, 57, 81
1, 290382, Note_off_c, 0, 53, 63
1, 290398, Note_off_c, 0, 57, 67
1, 290401, Poly_aftertouch_c, 0, 35, 0
1, 290458, Note_on_c, 0, 62, 74
1, 290478, Note_off_c, 0, 62, 68
1, 290497, Note_on_c, 0, 65, 79
1, 290507, Note_on_c, 0, 69, 82
1, 290525, Note_off_c, 0, 65, 66
1, 290538, Note_on_c, 0, 61, 91
1, 290539, Note_off_c, 0, 69, 67
1, 290574, Note_off_c, 0, 61, 61
1, 290587, Note_on_c, 0, 74, 92
1, 290592, Control_c, 0, 64, 80
1, 290602, Note_on_c, 0, 57, 98
1, 290607, Control_c, 0, 64, 127
1, 290608, Note_on_c, 0, 85, 100
1, 290618, Note_on_c, 0, 81, 75
1, 290623, Note_off_c, 0, 74, 64
1, 290624, Note_on_c, 0, 82, 69
1, 290634, Note_on_c, 0, 78, 41
1, 290639, Note_off_c, 0, 57, 69
1, 290648, Note_off_c, 0, 82, 53
1, 290662, Note_off_c, 0, 85, 65
1, 290681, Control_c, 0, 64, 80
1, 290683, Note_on_c, 0, 77, 84
1, 290683, Note_off_c, 0, 81, 67
1, 290687, Note_on_c, 0, 74, 98
1, 290696, Control_c, 0, 64, 41
1, 290701, Note_off_c, 0, 77, 73
1, 290708, Note_off_c, 0, 78, 38
1, 290711, Control_c, 0, 64, 0
1, 290726, Note_off_c, 0, 74, 61
1, 290788, Note_on_c, 0, 60, 102
1, 290797, Note_on_c, 0, 72, 82
1, 290809, Note_off_c, 0, 60, 72
1, 290826, Note_off_c, 0, 72, 62
1, 290829, Note_on_c, 0, 65, 57
1, 290848, Note_on_c, 0, 64, 41
1, 290851, Note_off_c, 0, 65, 59
1, 290878, Note_off_c, 0, 64, 57
1, 290884, Note_on_c, 0, 62, 53
1, 290884, Note_off_c, 0, 62, 127
1, 290955, Control_c, 0, 64, 52
1, 290970, Control_c, 0, 64, 127
1, 290992, Poly_aftertouch_c, 0, 60, 127
1, 291000, Note_on_c, 0, 42, 120
1, 291004, Note_on_c, 0, 29, 106
1, 291013, Note_on_c, 0, 34, 85
1, 291020, Note_on_c, 0, 32, 80
1, 291020, Note_off_c, 0, 32, 127
1, 291022, Note_on_c, 0, 50, 82
1, 291024, Note_off_c, 0, 29, 72
1, 291024, Note_on_c, 0, 37, 67
1, 291024, Note_off_c, 0, 37, 127
1, 291024, Note_on_c, 0, 63, 33
1, 291029, Note_off_c, 0, 42, 68
1, 291030, Note_on_c, 0, 52, 77
1, 291044, Control_c, 0, 64, 84
1, 291045, Note_off_c, 0, 34, 65
1, 291049, Poly_aftertouch_c, 0, 37, 0
1, 291053, Note_off_c, 0, 52, 70
1, 291056, Note_on_c, 0, 31, 6
1, 291056, Poly_aftertouch_c, 0, 60, 0
1, 291057, Note_off_c, 0, 50, 66
1, 291058, Note_on_c, 0, 54, 71
1, 291059, Control_c, 0, 64, 48
1, 291065, Note_off_c, 0, 63, 40
1, 291065, Poly_aftertouch_c, 0, 59, 0
1, 291074, Control_c, 0, 64, 0
1, 291080, Note_on_c, 0, 59, 52
1, 291106, Note_off_c, 0, 54, 64
1, 291107, Note_on_c, 0, 63, 76
1, 291108, Note_off_c, 0, 31, 46
1, 291119, Note_off_c, 0, 59, 68
1, 291131, Note_off_c, 0, 63, 69
1, 291194, Note_on_c, 0, 62, 72
1, 291214, Note_on_c, 0, 66, 91
1, 291220, Note_off_c, 0, 62, 68
1, 291234, Note_off_c, 0, 66, 73
1, 291246, Note_on_c, 0, 68, 44
1, 291266, Note_on_c, 0, 63, 90
1, 291276, Note_off_c, 0, 68, 34
1, 291291, Note_off_c, 0, 63, 67
1, 291310, Note_on_c, 0, 74, 75
1, 291322, Note_on_c, 0, 76, 78
1, 291322, Note_on_c, 0, 59, 96
1, 291323, Note_on_c, 0, 87, 94
1, 291327, Control_c, 0, 64, 82
1, 291332, Note_on_c, 0, 83, 78
1, 291332, Note_off_c, 0, 74, 70
1, 291342, Control_c, 0, 64, 127
1, 291344, Note_off_c, 0, 76, 68
1, 291359, Note_off_c, 0, 59, 69
1, 291376, Note_off_c, 0, 87, 66
1, 291384, Note_on_c, 0, 78, 90
1, 291393, Note_off_c, 0, 83, 66
1, 291397, Note_on_c, 0, 84, 2
1, 291410, Note_on_c, 0, 74, 94
1, 291416, Control_c, 0, 64, 79
1, 291423, Note_off_c, 0, 78, 65
1, 291431, Control_c, 0, 64, 43
1, 291434, Note_off_c, 0, 74, 61
1, 291436, Note_off_c, 0, 84, 52
1, 291445, Control_c, 0, 64, 0
1, 291484, Note_on_c, 0, 62, 106
1, 291507, Note_off_c, 0, 62, 68
1, 291519, Note_on_c, 0, 60, 52
1, 291519, Note_off_c, 0, 60, 127
1, 291520, Note_on_c, 0, 71, 68
1, 291532, Note_on_c, 0, 74, 51
1, 291533, Note_on_c, 0, 72, 50
1, 291539, Note_on_c, 0, 66, 82
1, 291540, Note_off_c, 0, 71, 65
1, 291554, Note_off_c, 0, 74, 57
1, 291557, Note_off_c, 0, 72, 55
1, 291575, Note_off_c, 0, 66, 65
1, 291588, Note_on_c, 0, 62, 74
1, 291604, Note_off_c, 0, 62, 69
1, 291631, Control_c, 0, 64, 34
1, 291645, Control_c, 0, 64, 127
1, 291674, Note_on_c, 0, 45, 122
1, 291675, Note_on_c, 0, 61, 68
1, 291682, Note_on_c, 0, 32, 94
1, 291689, Note_on_c, 0, 34, 82
1, 291694, Note_off_c, 0, 45, 70
1, 291699, Note_on_c, 0, 46, 48
1, 291699, Note_off_c, 0, 46, 127
1, 291701, Note_on_c, 0, 50, 75
1, 291706, Note_off_c, 0, 32, 60
1, 291707, Poly_aftertouch_c, 0, 60, 0
1, 291712, Note_off_c, 0, 34, 63
1, 291712, Note_off_c, 0, 61, 62
1, 291715, Note_on_c, 0, 37, 35
1, 291715, Note_off_c, 0, 37, 127
1, 291720, Note_on_c, 0, 54, 41
1, 291726, Note_on_c, 0, 39, 18
1, 291727, Note_on_c, 0, 53, 84
1, 291728, Note_off_c, 0, 50, 65
1, 291730, Poly_aftertouch_c, 0, 46, 0
1, 291751, Note_off_c, 0, 54, 57
1, 291753, Poly_aftertouch_c, 0, 37, 0
1, 291761, Note_on_c, 0, 57, 71
1, 291763, Control_c, 0, 64, 69
1, 291769, Note_off_c, 0, 39, 49
1, 291775, Note_off_c, 0, 53, 63
1, 291778, Control_c, 0, 64, 0
1, 291794, Note_off_c, 0, 57, 67
1, 291826, Note_on_c, 0, 60, 8
1, 291859, Note_on_c, 0, 62, 82
1, 291872, Note_off_c, 0, 60, 31
1, 291880, Note_off_c, 0, 62, 70
1, 291882, Note_on_c, 0, 68, 81
1, 291907, Note_off_c, 0, 68, 66
1, 291914, Note_on_c, 0, 65, 48
1, 291916, Note_on_c, 0, 64, 39
1, 291920, Note_on_c, 0, 69, 68
1, 291922, Note_on_c, 0, 61, 86
1, 291937, Note_off_c, 0, 69, 66
1, 291941, Note_off_c, 0, 65, 35
1, 291949, Note_off_c, 0, 64, 35
1, 291951, Note_off_c, 0, 61, 67
1, 291984, Note_on_c, 0, 74, 79
1, 291987, Control_c, 0, 64, 87
1, 291988, Note_on_c, 0, 85, 103
1, 291989, Note_on_c, 0, 57, 99
1, 292001, Note_on_c, 0, 81, 83
1, 292001, Control_c, 0, 64, 127
1, 292002, Note_on_c, 0, 76, 70
1, 292006, Note_off_c, 0, 74, 70
1, 292019, Note_off_c, 0, 57, 67
1, 292022, Note_off_c, 0, 76, 41
1, 292025, Note_on_c, 0, 82, 34
1, 292040, Note_off_c, 0, 85, 65
1, 292052, Note_off_c, 0, 81, 65
1, 292055, Note_off_c, 0, 82, 33
1, 292058, Note_on_c, 0, 74, 95
1, 292065, Note_on_c, 0, 77, 52
1, 292065, Note_off_c, 0, 77, 127
1, 292075, Control_c, 0, 64, 78
1, 292080, Note_off_c, 0, 74, 66
1, 292090, Control_c, 0, 64, 0
1, 292133, Note_on_c, 0, 60, 96
1, 292153, Note_off_c, 0, 60, 72
1, 292160, Note_on_c, 0, 72, 75
1, 292168, Note_on_c, 0, 65, 75
1, 292183, Note_off_c, 0, 72, 65
1, 292191, Note_off_c, 0, 65, 70
1, 292222, Note_on_c, 0, 62, 75
1, 292282, Note_on_c, 0, 66, 104
1, 292290, Control_c, 0, 64, 127
1, 292297, Note_on_c, 0, 54, 107
1, 292311, Note_off_c, 0, 62, 54
1, 292314, Note_on_c, 0, 49, 80
1, 292317, Note_on_c, 0, 42, 75
1, 292317, Note_off_c, 0, 42, 127
1, 292325, Note_on_c, 0, 44, 45
1, 292325, Note_off_c, 0, 44, 127
1, 292327, Note_off_c, 0, 54, 67
1, 292330, Note_on_c, 0, 55, 63
1, 292330, Note_off_c, 0, 55, 127
1, 292341, Note_off_c, 0, 49, 63
1, 292358, Poly_aftertouch_c, 0, 55, 0
1, 292370, Note_on_c, 0, 47, 36
1, 292381, Note_off_c, 0, 66, 65
1, 292383, Note_off_c, 0, 47, 0
1, 292383, Note_on_c, 0, 47, 21
1, 292397, Note_on_c, 0, 75, 90
1, 292402, Note_on_c, 0, 62, 85
1, 292418, Note_off_c, 0, 47, 33
1, 292431, Note_on_c, 0, 42, 105
1, 292436, Note_on_c, 0, 44, 89
1, 292436, Note_on_c, 0, 64, 52
1, 292438, Note_on_c, 0, 29, 73
1, 292440, Note_on_c, 0, 30, 65
1, 292448, Note_off_c, 0, 75, 61
1, 292449, Note_off_c, 0, 42, 72
1, 292451, Note_on_c, 0, 34, 61
1, 292451, Note_on_c, 0, 71, 75
1, 292455, Note_on_c, 0, 32, 56
1, 292459, Note_off_c, 0, 44, 68
1, 292464, Note_off_c, 0, 30, 62
1, 292466, Note_off_c, 0, 29, 57
1, 292484, Note_off_c, 0, 34, 54
1, 292487, Note_off_c, 0, 62, 56
1, 292488, Note_on_c, 0, 74, 88
1, 292489, Note_off_c, 0, 32, 53
1, 292490, Note_off_c, 0, 64, 39
1, 292545, Note_off_c, 0, 74, 56
1, 292557, Note_on_c, 0, 65, 95
1, 292563, Note_on_c, 0, 57, 113
1, 292567, Note_on_c, 0, 44, 82
1, 292574, Note_on_c, 0, 62, 100
1, 292578, Note_on_c, 0, 51, 73
1, 292579, Note_on_c, 0, 52, 68
1, 292582, Note_on_c, 0, 46, 71
1, 292582, Note_off_c, 0, 46, 127
1, 292585, Note_off_c, 0, 57, 70
1, 292592, Note_off_c, 0, 44, 68
1, 292598, Note_off_c, 0, 52, 66
1, 292606, Note_off_c, 0, 51, 67
1, 292607, Note_on_c, 0, 69, 70
1, 292613, Note_on_c, 0, 49, 36
1, 292613, Note_off_c, 0, 49, 127
1, 292617, Note_off_c, 0, 71, 24
1, 292630, Note_on_c, 0, 68, 10
1, 292636, Note_off_c, 0, 62, 57
1, 292650, Poly_aftertouch_c, 0, 49, 0
1, 292656, Note_on_c, 0, 73, 93
1, 292663, Note_off_c, 0, 65, 58
1, 292672, Note_off_c, 0, 69, 65
1, 292679, Note_off_c, 0, 68, 45
1, 292690, Note_on_c, 0, 45, 117
1, 292692, Note_on_c, 0, 34, 112
1, 292695, Note_off_c, 0, 73, 67
1, 292709, Note_on_c, 0, 37, 67
1, 292714, Note_off_c, 0, 34, 69
1, 292715, Note_on_c, 0, 39, 64
1, 292715, Note_off_c, 0, 39, 127
1, 292715, Note_off_c, 0, 45, 68
1, 292735, Note_on_c, 0, 33, 38
1, 292741, Note_off_c, 0, 37, 61
1, 292781, Note_off_c, 0, 33, 46
1, 292809, Note_on_c, 0, 54, 96
1, 292816, Note_on_c, 0, 42, 120
1, 292824, Note_on_c, 0, 35, 95
1, 292838, Note_on_c, 0, 30, 68
1, 292838, Note_off_c, 0, 30, 127
1, 292840, Note_on_c, 0, 58, 34
1, 292845, Note_on_c, 0, 36, 58
1, 292854, Control_c, 0, 64, 95
1, 292856, Note_off_c, 0, 42, 66
1, 292860, Note_on_c, 0, 37, 19
1, 292860, Note_off_c, 0, 37, 127
1, 292866, Note_off_c, 0, 35, 62
1, 292867, Note_off_c, 0, 58, 57
1, 292869, Control_c, 0, 64, 57
1, 292872, Note_off_c, 0, 36, 59
1, 292883, Control_c, 0, 64, 0
1, 292899, Note_on_c, 0, 29, 85
1, 292901, Poly_aftertouch_c, 0, 37, 0
1, 292905, Note_on_c, 0, 63, 71
1, 292910, Note_off_c, 0, 54, 62
1, 292911, Note_on_c, 0, 35, 31
1, 292916, Note_on_c, 0, 32, 59
1, 292928, Note_off_c, 0, 29, 67
1, 292939, Note_on_c, 0, 59, 68
1, 292943, Note_off_c, 0, 35, 41
1, 292948, Note_off_c, 0, 32, 51
1, 292970, Note_off_c, 0, 63, 65
1, 292977, Note_on_c, 0, 50, 39
1, 293000, Note_on_c, 0, 62, 78
1, 293008, Note_off_c, 0, 50, 53
1, 293063, Note_on_c, 0, 53, 86
1, 293068, Note_off_c, 0, 62, 64
1, 293075, Note_on_c, 0, 45, 81
1, 293077, Note_on_c, 0, 38, 81
1, 293081, Note_off_c, 0, 59, 59
1, 293098, Note_off_c, 0, 45, 66
1, 293099, Note_on_c, 0, 32, 85
1, 293102, Poly_aftertouch_c, 0, 37, 127
1, 293107, Note_off_c, 0, 38, 66
1, 293121, Note_off_c, 0, 32, 65
1, 293125, Note_off_c, 0, 53, 62
1, 293128, Poly_aftertouch_c, 0, 37, 0
1, 293144, Note_on_c, 0, 61, 83
1, 293197, Note_on_c, 0, 57, 71
1, 293200, Note_on_c, 0, 50, 64
1, 293201, Note_off_c, 0, 61, 62
1, 293227, Note_off_c, 0, 50, 64
1, 293250, Note_off_c, 0, 57, 63
1, 293283, Note_on_c, 0, 62, 7
1, 293283, Note_off_c, 0, 62, 127
1, 293319, Note_on_c, 0, 35, 66
1, 293337, Note_on_c, 0, 29, 83
1, 293344, Note_on_c, 0, 42, 91
1, 293351, Note_off_c, 0, 35, 64
1, 293361, Note_off_c, 0, 29, 66
1, 293373, Note_on_c, 0, 45, 37
1, 293413, Note_off_c, 0, 45, 50
1, 293473, Note_on_c, 0, 51, 62
1, 293492, Note_off_c, 0, 42, 60
1, 293508, Note_on_c, 0, 47, 55
1, 293547, Note_off_c, 0, 51, 63
1, 293557, Note_on_c, 0, 38, 82
1, 293563, Note_on_c, 0, 32, 89
1, 293563, Note_on_c, 0, 50, 63
1, 293566, Note_on_c, 0, 41, 71
1, 293580, Note_off_c, 0, 38, 66
1, 293589, Note_off_c, 0, 32, 64
1, 293602, Note_off_c, 0, 47, 57
1, 293628, Note_off_c, 0, 50, 63
1, 293695, Note_on_c, 0, 49, 78
1, 293748, Note_off_c, 0, 41, 48
1, 293765, Note_on_c, 0, 45, 54
1, 293766, Note_off_c, 0, 49, 65
1, 293798, Note_on_c, 0, 48, 75
1, 293816, Note_off_c, 0, 45, 62
1, 293831, Note_off_c, 0, 48, 66
1, 293848, Note_on_c, 0, 30, 64
1, 293936, Control_c, 0, 67, 42
1, 293951, Control_c, 0, 67, 57
1, 293966, Control_c, 0, 67, 76
1, 293981, Control_c, 0, 67, 89
1, 293994, Note_on_c, 0, 39, 71
1, 293995, Control_c, 0, 67, 92
1, 294010, Control_c, 0, 67, 93
1, 294025, Control_c, 0, 67, 95
1, 294036, Note_off_c, 0, 39, 61
1, 294054, Control_c, 0, 67, 100
1, 294058, Note_on_c, 0, 35, 54
1, 294069, Control_c, 0, 67, 104
1, 294084, Control_c, 0, 67, 109
1, 294099, Control_c, 0, 67, 119
1, 294113, Control_c, 0, 67, 127
1, 294173, Note_off_c, 0, 35, 48
1, 294192, Note_on_c, 0, 38, 57
1, 294230, Note_off_c, 0, 38, 63
1, 294243, Note_on_c, 0, 29, 50
1, 294252, Note_off_c, 0, 30, 50
1, 294548, Note_on_c, 0, 37, 54
1, 294618, Note_off_c, 0, 37, 55
1, 294619, Note_on_c, 0, 33, 43
1, 294933, Note_on_c, 0, 36, 41
1, 294941, Note_off_c, 0, 33, 42
1, 295090, Note_off_c, 0, 36, 32
1, 296701, Control_c, 0, 64, 31
1, 296716, Control_c, 0, 64, 36
1, 296730, Control_c, 0, 64, 40
1, 296745, Control_c, 0, 64, 41
1, 296768, Control_c, 0, 64, 42
1, 296783, Control_c, 0, 64, 43
1, 296798, Control_c, 0, 64, 46
1, 296812, Control_c, 0, 64, 49
1, 296827, Control_c, 0, 64, 52
1, 296842, Control_c, 0, 64, 53
1, 296857, Control_c, 0, 64, 54
1, 296871, Control_c, 0, 64, 54
1, 296886, Control_c, 0, 64, 56
1, 296901, Control_c, 0, 64, 58
1, 296916, Control_c, 0, 64, 59
1, 296931, Control_c, 0, 64, 60
1, 296945, Control_c, 0, 64, 61
1, 296960, Control_c, 0, 64, 62
1, 296975, Control_c, 0, 64, 62
1, 296989, Control_c, 0, 64, 63
1, 297004, Control_c, 0, 64, 64
1, 297019, Control_c, 0, 64, 66
1, 297034, Control_c, 0, 64, 67
1, 297049, Control_c, 0, 64, 68
1, 297063, Control_c, 0, 64, 69
1, 297078, Control_c, 0, 64, 70
1, 297093, Control_c, 0, 64, 72
1, 297108, Control_c, 0, 64, 74
1, 297123, Control_c, 0, 64, 77
1, 297138, Control_c, 0, 64, 79
1, 297152, Control_c, 0, 64, 81
1, 297167, Control_c, 0, 64, 83
1, 297182, Control_c, 0, 64, 85
1, 297197, Control_c, 0, 64, 89
1, 297212, Control_c, 0, 64, 92
1, 297227, Control_c, 0, 64, 95
1, 297242, Control_c, 0, 64, 100
1, 297256, Control_c, 0, 64, 105
1, 297271, Control_c, 0, 64, 117
1, 297286, Control_c, 0, 64, 127
1, 297330, Control_c, 0, 67, 111
1, 297345, Control_c, 0, 67, 85
1, 297360, Control_c, 0, 67, 66
1, 297375, Control_c, 0, 67, 52
1, 297389, Control_c, 0, 67, 0
1, 298379, Poly_aftertouch_c, 0, 31, 127
1, 299725, Note_on_c, 0, 71, 53
1, 299743, Note_on_c, 0, 67, 37
1, 299908, Poly_aftertouch_c, 0, 31, 0
1, 299975, Note_off_c, 0, 29, 31
1, 300541, Note_on_c, 0, 70, 57
1, 300564, Note_on_c, 0, 61, 31
1, 300575, Note_off_c, 0, 71, 51
1, 300633, Note_off_c, 0, 67, 42
1, 300911, Note_off_c, 0, 70, 33
1, 301128, Note_on_c, 0, 69, 56
1, 301153, Note_on_c, 0, 65, 41
1, 301192, Note_off_c, 0, 61, 36
1, 301238, Control_c, 0, 64, 104
1, 301260, Control_c, 0, 64, 84
1, 301275, Control_c, 0, 64, 71
1, 301290, Control_c, 0, 64, 58
1, 301305, Control_c, 0, 64, 45
1, 301320, Control_c, 0, 64, 31
1, 301335, Control_c, 0, 64, 0
1, 301409, Control_c, 0, 64, 31
1, 301423, Control_c, 0, 64, 40
1, 301438, Control_c, 0, 64, 48
1, 301453, Control_c, 0, 64, 57
1, 301468, Control_c, 0, 64, 64
1, 301484, Control_c, 0, 64, 69
1, 301499, Control_c, 0, 64, 74
1, 301513, Control_c, 0, 64, 77
1, 301528, Control_c, 0, 64, 80
1, 301543, Control_c, 0, 64, 84
1, 301558, Control_c, 0, 64, 89
1, 301573, Control_c, 0, 64, 94
1, 301587, Control_c, 0, 64, 102
1, 301602, Control_c, 0, 64, 111
1, 301617, Control_c, 0, 64, 127
1, 301706, Note_on_c, 0, 68, 57
1, 301737, Note_off_c, 0, 69, 55
1, 301741, Note_on_c, 0, 59, 37
1, 301778, Note_off_c, 0, 65, 39
1, 301803, Note_off_c, 0, 59, 56
1, 301873, Note_off_c, 0, 68, 57
1, 302358, Note_on_c, 0, 71, 58
1, 302376, Note_on_c, 0, 67, 47
1, 302387, Note_on_c, 0, 65, 38
1, 302395, Note_on_c, 0, 61, 38
1, 302454, Control_c, 0, 64, 115
1, 302469, Control_c, 0, 64, 83
1, 302483, Control_c, 0, 64, 64
1, 302498, Control_c, 0, 64, 35
1, 302513, Control_c, 0, 64, 0
1, 302557, Control_c, 0, 64, 30
1, 302572, Control_c, 0, 64, 46
1, 302587, Control_c, 0, 64, 61
1, 302602, Control_c, 0, 64, 71
1, 302616, Control_c, 0, 64, 84
1, 302631, Control_c, 0, 64, 93
1, 302631, Control_c, 0, 67, 45
1, 302646, Control_c, 0, 64, 99
1, 302646, Control_c, 0, 67, 53
1, 302661, Control_c, 0, 64, 107
1, 302661, Control_c, 0, 67, 63
1, 302676, Control_c, 0, 64, 122
1, 302676, Control_c, 0, 67, 83
1, 302691, Control_c, 0, 64, 127
1, 302691, Control_c, 0, 67, 113
1, 302705, Note_off_c, 0, 65, 37
1, 302706, Control_c, 0, 67, 127
1, 302954, Note_on_c, 0, 64, 51
1, 302977, Note_on_c, 0, 55, 33
1, 303009, Control_c, 0, 64, 100
1, 303024, Control_c, 0, 64, 76
1, 303036, Note_off_c, 0, 61, 36
1, 303039, Control_c, 0, 64, 66
1, 303054, Control_c, 0, 64, 64
1, 303070, Control_c, 0, 64, 66
1, 303084, Control_c, 0, 64, 71
1, 303099, Control_c, 0, 64, 80
1, 303114, Control_c, 0, 64, 93
1, 303129, Control_c, 0, 64, 116
1, 303143, Control_c, 0, 64, 127
1, 303260, Note_off_c, 0, 64, 39
1, 303486, Note_on_c, 0, 63, 52
1, 303522, Note_on_c, 0, 59, 41
1, 303550, Control_c, 0, 64, 93
1, 303558, Note_off_c, 0, 55, 39
1, 303565, Control_c, 0, 64, 72
1, 303580, Control_c, 0, 64, 57
1, 303595, Control_c, 0, 64, 41
1, 303610, Control_c, 0, 64, 38
1, 303624, Control_c, 0, 64, 44
1, 303639, Control_c, 0, 64, 56
1, 303654, Control_c, 0, 64, 65
1, 303669, Control_c, 0, 64, 74
1, 303684, Control_c, 0, 64, 86
1, 303698, Control_c, 0, 64, 96
1, 303713, Control_c, 0, 64, 101
1, 303714, Note_off_c, 0, 63, 61
1, 303728, Control_c, 0, 64, 105
1, 303735, Note_off_c, 0, 59, 44
1, 303743, Control_c, 0, 64, 112
1, 303758, Control_c, 0, 64, 122
1, 303773, Control_c, 0, 64, 127
1, 304050, Note_on_c, 0, 62, 45
1, 304059, Note_on_c, 0, 53, 37
1, 304085, Control_c, 0, 64, 120
1, 304100, Control_c, 0, 64, 91
1, 304114, Control_c, 0, 64, 71
1, 304129, Control_c, 0, 64, 57
1, 304144, Control_c, 0, 64, 50
1, 304159, Control_c, 0, 64, 54
1, 304173, Control_c, 0, 64, 62
1, 304188, Control_c, 0, 64, 70
1, 304198, Note_off_c, 0, 53, 54
1, 304203, Control_c, 0, 64, 82
1, 304218, Control_c, 0, 64, 103
1, 304233, Control_c, 0, 64, 127
1, 304235, Note_off_c, 0, 62, 57
1, 304656, Note_on_c, 0, 65, 32
1, 304677, Note_on_c, 0, 61, 33
1, 304686, Control_c, 0, 64, 118
1, 304701, Control_c, 0, 64, 92
1, 304716, Control_c, 0, 64, 74
1, 304731, Control_c, 0, 64, 59
1, 304745, Control_c, 0, 64, 41
1, 304760, Control_c, 0, 64, 0
1, 304775, Control_c, 0, 64, 32
1, 304790, Control_c, 0, 64, 43
1, 304804, Control_c, 0, 64, 56
1, 304819, Control_c, 0, 64, 66
1, 304833, Note_off_c, 0, 67, 30
1, 304834, Control_c, 0, 64, 75
1, 304849, Control_c, 0, 64, 85
1, 304864, Control_c, 0, 64, 92
1, 304879, Control_c, 0, 64, 95
1, 304894, Control_c, 0, 64, 99
1, 304894, Control_c, 0, 67, 110
1, 304909, Control_c, 0, 64, 104
1, 304909, Control_c, 0, 67, 76
1, 304921, Note_off_c, 0, 61, 42
1, 304923, Control_c, 0, 64, 112
1, 304923, Control_c, 0, 67, 48
1, 304938, Control_c, 0, 64, 127
1, 304938, Control_c, 0, 67, 0
1, 304966, Note_off_c, 0, 65, 52
1, 305302, Note_on_c, 0, 70, 55
1, 305305, Note_off_c, 0, 71, 55
1, 305319, Note_on_c, 0, 61, 35
1, 305345, Control_c, 0, 64, 98
1, 305360, Control_c, 0, 64, 78
1, 305375, Control_c, 0, 64, 63
1, 305390, Control_c, 0, 64, 53
1, 305404, Control_c, 0, 64, 53
1, 305419, Control_c, 0, 64, 59
1, 305434, Control_c, 0, 64, 65
1, 305449, Control_c, 0, 64, 74
1, 305464, Control_c, 0, 64, 95
1, 305480, Control_c, 0, 64, 127
1, 305526, Note_off_c, 0, 70, 64
1, 305884, Note_on_c, 0, 69, 53
1, 305901, Note_on_c, 0, 65, 38
1, 305961, Control_c, 0, 64, 94
1, 305963, Note_off_c, 0, 61, 36
1, 305976, Control_c, 0, 64, 71
1, 305991, Control_c, 0, 64, 47
1, 306006, Control_c, 0, 64, 0
1, 306050, Control_c, 0, 64, 39
1, 306065, Control_c, 0, 64, 56
1, 306080, Control_c, 0, 64, 70
1, 306093, Control_c, 0, 64, 83
1, 306108, Control_c, 0, 64, 99
1, 306123, Control_c, 0, 64, 109
1, 306138, Control_c, 0, 64, 120
1, 306143, Note_off_c, 0, 65, 52
1, 306152, Control_c, 0, 64, 127
1, 306444, Note_on_c, 0, 68, 63
1, 306469, Note_on_c, 0, 59, 40
1, 306470, Note_off_c, 0, 69, 59
1, 306502, Control_c, 0, 64, 110
1, 306517, Control_c, 0, 64, 79
1, 306531, Control_c, 0, 64, 60
1, 306546, Control_c, 0, 64, 45
1, 306561, Control_c, 0, 64, 49
1, 306575, Control_c, 0, 64, 59
1, 306590, Control_c, 0, 64, 69
1, 306605, Control_c, 0, 64, 90
1, 306611, Note_off_c, 0, 59, 58
1, 306620, Control_c, 0, 64, 127
1, 306666, Note_off_c, 0, 68, 59
1, 307235, Note_on_c, 0, 71, 64
1, 307286, Note_on_c, 0, 67, 28
1, 307288, Note_on_c, 0, 61, 40
1, 307294, Note_on_c, 0, 65, 30
1, 307354, Control_c, 0, 64, 120
1, 307369, Control_c, 0, 64, 97
1, 307384, Control_c, 0, 64, 80
1, 307398, Control_c, 0, 64, 65
1, 307413, Control_c, 0, 64, 41
1, 307428, Control_c, 0, 64, 0
1, 307487, Control_c, 0, 64, 40
1, 307502, Control_c, 0, 64, 56
1, 307517, Control_c, 0, 64, 68
1, 307532, Control_c, 0, 64, 76
1, 307547, Control_c, 0, 64, 83
1, 307562, Control_c, 0, 64, 87
1, 307562, Control_c, 0, 67, 37
1, 307577, Control_c, 0, 64, 91
1, 307577, Control_c, 0, 67, 41
1, 307592, Control_c, 0, 64, 96
1, 307592, Control_c, 0, 67, 44
1, 307606, Control_c, 0, 64, 100
1, 307606, Control_c, 0, 67, 48
1, 307621, Control_c, 0, 64, 104
1, 307621, Control_c, 0, 67, 57
1, 307636, Control_c, 0, 64, 106
1, 307636, Control_c, 0, 67, 71
1, 307642, Note_off_c, 0, 65, 42
1, 307651, Control_c, 0, 67, 81
1, 307666, Control_c, 0, 67, 94
1, 307681, Control_c, 0, 67, 112
1, 307696, Control_c, 0, 67, 127
1, 307932, Note_on_c, 0, 64, 54
1, 307952, Note_off_c, 0, 61, 35
1, 307971, Note_on_c, 0, 55, 13
1, 307978, Control_c, 0, 64, 91
1, 308000, Control_c, 0, 64, 74
1, 308015, Control_c, 0, 64, 61
1, 308030, Control_c, 0, 64, 45
1, 308045, Control_c, 0, 64, 39
1, 308060, Control_c, 0, 64, 48
1, 308074, Control_c, 0, 64, 61
1, 308089, Control_c, 0, 64, 73
1, 308104, Control_c, 0, 64, 90
1, 308119, Control_c, 0, 64, 111
1, 308134, Control_c, 0, 64, 127
1, 308150, Note_off_c, 0, 55, 20
1, 308208, Note_off_c, 0, 64, 51
1, 308504, Note_on_c, 0, 63, 46
1, 308525, Note_on_c, 0, 59, 36
1, 308546, Control_c, 0, 64, 103
1, 308561, Control_c, 0, 64, 82
1, 308576, Control_c, 0, 64, 69
1, 308591, Control_c, 0, 64, 59
1, 308606, Control_c, 0, 64, 53
1, 308620, Control_c, 0, 64, 55
1, 308635, Control_c, 0, 64, 61
1, 308650, Control_c, 0, 64, 67
1, 308666, Control_c, 0, 64, 73
1, 308681, Control_c, 0, 64, 79
1, 308696, Control_c, 0, 64, 83
1, 308710, Control_c, 0, 64, 85
1, 308714, Note_off_c, 0, 63, 60
1, 308725, Note_off_c, 0, 59, 42
1, 308725, Control_c, 0, 64, 88
1, 308748, Control_c, 0, 64, 92
1, 308762, Control_c, 0, 64, 95
1, 308777, Control_c, 0, 64, 98
1, 308792, Control_c, 0, 64, 101
1, 308807, Control_c, 0, 64, 103
1, 309148, Control_c, 0, 64, 101
1, 309224, Note_on_c, 0, 62, 28
1, 309231, Note_on_c, 0, 53, 18
1, 309266, Control_c, 0, 64, 99
1, 309281, Control_c, 0, 64, 95
1, 309295, Control_c, 0, 64, 88
1, 309310, Control_c, 0, 64, 79
1, 309325, Control_c, 0, 64, 70
1, 309340, Control_c, 0, 64, 59
1, 309355, Control_c, 0, 64, 43
1, 309369, Control_c, 0, 64, 32
1, 309384, Control_c, 0, 64, 0
1, 309429, Control_c, 0, 64, 33
1, 309443, Control_c, 0, 64, 43
1, 309459, Control_c, 0, 64, 52
1, 309474, Control_c, 0, 64, 59
1, 309496, Control_c, 0, 64, 64
1, 309511, Control_c, 0, 64, 69
1, 309526, Control_c, 0, 64, 73
1, 309541, Control_c, 0, 64, 76
1, 309556, Control_c, 0, 64, 78
1, 309571, Control_c, 0, 64, 79
1, 309585, Control_c, 0, 64, 81
1, 309600, Control_c, 0, 64, 82
1, 309615, Control_c, 0, 64, 84
1, 309630, Control_c, 0, 64, 85
1, 309630, Control_c, 0, 67, 111
1, 309645, Control_c, 0, 64, 86
1, 309645, Control_c, 0, 67, 94
1, 309657, Note_off_c, 0, 53, 31
1, 309660, Control_c, 0, 64, 86
1, 309660, Control_c, 0, 67, 75
1, 309674, Control_c, 0, 64, 87
1, 309674, Control_c, 0, 67, 55
1, 309689, Control_c, 0, 64, 87
1, 309689, Control_c, 0, 67, 36
1, 309704, Control_c, 0, 67, 0
1, 309718, Control_c, 0, 64, 88
1, 309733, Note_off_c, 0, 62, 40
1, 309881, Control_c, 0, 64, 87
1, 309896, Control_c, 0, 64, 87
1, 309911, Control_c, 0, 64, 86
1, 309926, Control_c, 0, 64, 85
1, 309941, Control_c, 0, 64, 83
1, 309955, Control_c, 0, 64, 80
1, 309970, Control_c, 0, 64, 76
1, 309985, Control_c, 0, 64, 73
1, 310000, Control_c, 0, 64, 69
1, 310015, Control_c, 0, 64, 63
1, 310030, Control_c, 0, 64, 56
1, 310045, Control_c, 0, 64, 48
1, 310059, Control_c, 0, 64, 36
1, 310074, Control_c, 0, 64, 0
1, 310779, Control_c, 0, 64, 29
1, 310808, Control_c, 0, 64, 31
1, 310823, Control_c, 0, 64, 32
1, 310838, Control_c, 0, 64, 34
1, 310853, Control_c, 0, 64, 36
1, 310868, Control_c, 0, 64, 39
1, 310882, Control_c, 0, 64, 43
1, 310897, Control_c, 0, 64, 47
1, 310912, Control_c, 0, 64, 54
1, 310927, Control_c, 0, 64, 59
1, 310942, Control_c, 0, 64, 60
1, 310957, Control_c, 0, 64, 61
1, 310994, Control_c, 0, 64, 62
1, 311009, Control_c, 0, 64, 62
1, 311023, Control_c, 0, 64, 63
1, 311038, Control_c, 0, 64, 64
1, 311053, Control_c, 0, 64, 65
1, 311069, Control_c, 0, 64, 66
1, 311084, Control_c, 0, 64, 67
1, 311099, Control_c, 0, 64, 68
1, 311113, Control_c, 0, 64, 69
1, 311128, Control_c, 0, 64, 71
1, 311143, Control_c, 0, 64, 74
1, 311158, Control_c, 0, 64, 77
1, 311172, Control_c, 0, 64, 80
1, 311187, Control_c, 0, 64, 84
1, 311202, Control_c, 0, 64, 87
1, 311217, Control_c, 0, 64, 90
1, 311232, Control_c, 0, 64, 93
1, 311246, Control_c, 0, 64, 96
1, 311261, Control_c, 0, 64, 100
1, 311276, Control_c, 0, 64, 105
1, 311291, Control_c, 0, 64, 113
1, 311306, Control_c, 0, 64, 127
1, 311817, Control_c, 0, 67, 41
1, 311832, Control_c, 0, 67, 47
1, 311846, Control_c, 0, 67, 49
1, 311862, Control_c, 0, 67, 55
1, 311877, Control_c, 0, 67, 70
1, 311892, Control_c, 0, 67, 89
1, 311907, Control_c, 0, 67, 112
1, 311921, Control_c, 0, 67, 127
1, 312213, Note_on_c, 0, 61, 34
1, 312215, Note_on_c, 0, 65, 34
1, 312595, Control_c, 0, 67, 114
1, 312610, Control_c, 0, 67, 90
1, 312619, Note_off_c, 0, 65, 39
1, 312625, Control_c, 0, 67, 54
1, 312639, Control_c, 0, 67, 0
1, 312707, Note_off_c, 0, 61, 40
1, 313114, Control_c, 0, 64, 116
1, 313128, Control_c, 0, 64, 101
1, 313143, Control_c, 0, 64, 94
1, 313158, Control_c, 0, 64, 89
1, 313173, Control_c, 0, 64, 83
1, 313188, Control_c, 0, 64, 75
1, 313202, Control_c, 0, 64, 67
1, 313217, Control_c, 0, 64, 57
1, 313240, Control_c, 0, 64, 51
1, 313255, Control_c, 0, 64, 48
1, 313269, Control_c, 0, 64, 46
1, 313284, Control_c, 0, 64, 45
1, 313343, Control_c, 0, 64, 45
1, 313492, Control_c, 0, 64, 46
1, 313522, Control_c, 0, 64, 46
1, 313581, Control_c, 0, 64, 47
1, 313626, Control_c, 0, 64, 47
1, 313670, Control_c, 0, 64, 48
1, 313848, Control_c, 0, 64, 48
1, 313877, Control_c, 0, 64, 49
1, 313922, Control_c, 0, 64, 49
1, 313937, Control_c, 0, 64, 50
1, 313951, Control_c, 0, 64, 50
1, 314048, Control_c, 0, 64, 51
1, 314078, Control_c, 0, 64, 51
1, 314107, Control_c, 0, 64, 52
1, 314137, Control_c, 0, 64, 52
1, 314152, Control_c, 0, 64, 53
1, 314166, Control_c, 0, 64, 54
1, 314181, Control_c, 0, 64, 56
1, 314196, Control_c, 0, 64, 58
1, 314211, Control_c, 0, 64, 60
1, 314226, Control_c, 0, 64, 62
1, 314240, Control_c, 0, 64, 63
1, 314256, Control_c, 0, 64, 64
1, 314271, Control_c, 0, 64, 66
1, 314286, Control_c, 0, 64, 67
1, 314300, Control_c, 0, 64, 69
1, 314315, Control_c, 0, 64, 72
1, 314331, Control_c, 0, 64, 74
1, 314346, Control_c, 0, 64, 76
1, 314361, Control_c, 0, 64, 78
1, 314375, Control_c, 0, 64, 81
1, 314390, Control_c, 0, 64, 83
1, 314405, Control_c, 0, 64, 85
1, 314420, Control_c, 0, 64, 88
1, 314435, Control_c, 0, 64, 90
1, 314450, Control_c, 0, 64, 94
1, 314464, Control_c, 0, 64, 96
1, 314479, Control_c, 0, 64, 98
1, 314508, Control_c, 0, 64, 101
1, 314538, Control_c, 0, 64, 103
1, 314538, Control_c, 0, 67, 44
1, 314553, Control_c, 0, 67, 55
1, 314568, Control_c, 0, 67, 67
1, 314582, Control_c, 0, 67, 81
1, 314597, Control_c, 0, 67, 103
1, 314612, Control_c, 0, 64, 105
1, 314612, Control_c, 0, 67, 127
1, 315806, Note_on_c, 0, 29, 28
1, 317261, Note_off_c, 0, 29, 14
1, 318988, Note_off_c, 0, 67, 19
1, 319352, Note_off_c, 0, 71, 29
1, 321640, Control_c, 0, 64, 103
1, 321670, Control_c, 0, 64, 100
1, 321699, Control_c, 0, 64, 97
1, 321714, Control_c, 0, 64, 95
1, 321729, Control_c, 0, 64, 92
1, 321744, Control_c, 0, 64, 90
1, 321759, Control_c, 0, 64, 88
1, 321773, Control_c, 0, 64, 86
1, 321788, Control_c, 0, 64, 84
1, 321803, Control_c, 0, 64, 82
1, 321817, Control_c, 0, 64, 80
1, 321832, Control_c, 0, 64, 78
1, 321847, Control_c, 0, 64, 76
1, 321862, Control_c, 0, 64, 75
1, 321877, Control_c, 0, 64, 73
1, 321891, Control_c, 0, 64, 71
1, 321906, Control_c, 0, 64, 69
1, 321921, Control_c, 0, 64, 67
1, 321936, Control_c, 0, 64, 65
1, 321951, Control_c, 0, 64, 64
1, 321965, Control_c, 0, 64, 64
1, 322010, Control_c, 0, 64, 63
1, 322025, Control_c, 0, 64, 63
1, 322040, Control_c, 0, 64, 62
1, 322055, Control_c, 0, 64, 61
1, 322070, Control_c, 0, 64, 61
1, 322085, Control_c, 0, 64, 60
1, 322099, Control_c, 0, 64, 59
1, 322114, Control_c, 0, 64, 57
1, 322129, Control_c, 0, 64, 55
1, 322144, Control_c, 0, 64, 54
1, 322159, Control_c, 0, 64, 52
1, 322173, Control_c, 0, 64, 51
1, 322188, Control_c, 0, 64, 49
1, 322203, Control_c, 0, 64, 47
1, 322225, Control_c, 0, 64, 45
1, 322240, Control_c, 0, 64, 44
1, 322255, Control_c, 0, 64, 43
1, 322285, Control_c, 0, 64, 43
1, 322922, Control_c, 0, 64, 43
1, 323064, Control_c, 0, 64, 44
1, 323167, Control_c, 0, 64, 44
1, 323551, Control_c, 0, 64, 45
1, 323960, Control_c, 0, 64, 45
1, 324109, Control_c, 0, 64, 46
1, 324198, Control_c, 0, 64, 46
1, 324331, Control_c, 0, 64, 47
1, 324545, Control_c, 0, 64, 47
1, 324769, Control_c, 0, 64, 48
1, 324931, Control_c, 0, 64, 47
1, 324976, Control_c, 0, 64, 47
1, 325006, Control_c, 0, 64, 46
1, 325021, Control_c, 0, 64, 46
1, 325050, Control_c, 0, 64, 45
1, 325080, Control_c, 0, 64, 45
1, 325109, Control_c, 0, 64, 44
1, 325124, Control_c, 0, 64, 43
1, 325139, Control_c, 0, 64, 43
1, 325154, Control_c, 0, 64, 42
1, 325168, Control_c, 0, 64, 41
1, 325183, Control_c, 0, 64, 41
1, 325198, Control_c, 0, 64, 39
1, 325221, Control_c, 0, 64, 37
1, 325236, Control_c, 0, 64, 33
1, 325250, Control_c, 0, 64, 0
1, 325858, Control_c, 0, 67, 124
1, 325873, Control_c, 0, 67, 118
1, 325918, Control_c, 0, 67, 116
1, 325969, Control_c, 0, 67, 114
1, 326014, Control_c, 0, 67, 112
1, 326028, Control_c, 0, 67, 107
1, 326043, Control_c, 0, 67, 82
1, 326058, Control_c, 0, 67, 41
1, 326073, Control_c, 0, 67, 0
1, 326073, End_track
0, 0, End_of_file
