0, 0, Header, 0, 1, 384
1, 0, Start_track
1, 0, Title_t, "Meditation--Darrett Zusko       "
1, 0, Text_t, "2006 International Piano-e-Competition Recital Round"
1, 0, Text_t, "St. Paul, Minnesota, July 2006"
1, 0, Text_t, "http://www.piano-e-competition.com/"
1, 0, Instrument_name_t, "Yamaha Disklavier Pro Mark IV concert grand piano"
1, 0, Sequencer_specific, 39, 67, 113, 0, 1, 0, 1, 0, 77, 101, 100, 105, 116, 97, 116, 105, 111, 110, 32, 32, 32, 32, 32, 32, 68, 97, 114, 114, 101, 116, 116, 32, 90, 117, 115, 107, 111, 32, 32, 32
1, 0, Copyright_t, "Copyright (c) Zenph Studios, Inc. 2002-2006.  All Rights Reserved.  File created Mon Aug 21 23:54:33 2006"
1, 0, Sequencer_specific, 6, 67, 113, 0, 0, 0, 69
1, 0, System_exclusive, 21, 67, 113, 126, 21, 0, 2, 2, 0, 3, 14, 1, 4, 1, 13, 13, 10, 11, 9, 2, 7, 247
1, 0, Sequencer_specific, 5, 67, 123, 12, 2, 1
1, 0, Tempo, 512820
1, 0, Time_signature, 4, 2, 24, 8
1, 0, System_exclusive, 5, 126, 127, 9, 1, 247
1, 1, System_exclusive, 8, 67, 16, 76, 0, 0, 126, 0, 247
1, 2, System_exclusive, 8, 67, 16, 76, 8, 9, 7, 1, 247
1, 3, Control_c, 0, 0, 0
1, 4, Control_c, 0, 32, 0
1, 5, Program_c, 0, 0
1, 6, Control_c, 0, 7, 100
1, 95, Control_c, 0, 64, 15
1, 95, Control_c, 0, 67, 15
1, 184, Control_c, 0, 64, 31
1, 184, Control_c, 0, 67, 31
1, 273, Control_c, 0, 64, 46
1, 273, Control_c, 0, 67, 46
1, 362, Control_c, 0, 64, 63
1, 362, Control_c, 0, 67, 63
1, 452, Control_c, 0, 64, 77
1, 452, Control_c, 0, 67, 77
1, 541, Control_c, 0, 64, 94
1, 541, Control_c, 0, 67, 94
1, 630, Control_c, 0, 64, 108
1, 630, Control_c, 0, 67, 108
1, 719, Control_c, 0, 64, 127
1, 719, Control_c, 0, 67, 127
1, 906, Note_on_c, 0, 69, 63
1, 997, Note_on_c, 0, 43, 41
1, 1053, Note_off_c, 0, 43, 39
1, 1076, Note_on_c, 0, 52, 33
1, 1144, Note_off_c, 0, 52, 48
1, 1153, Note_on_c, 0, 57, 45
1, 1156, Note_off_c, 0, 69, 59
1, 1168, Control_c, 0, 67, 114
1, 1183, Control_c, 0, 67, 93
1, 1192, Note_on_c, 0, 61, 50
1, 1198, Control_c, 0, 67, 65
1, 1213, Control_c, 0, 67, 0
1, 1234, Note_off_c, 0, 57, 39
1, 1238, Note_off_c, 0, 61, 60
1, 1282, Note_on_c, 0, 69, 57
1, 1395, Note_on_c, 0, 76, 78
1, 1708, Note_on_c, 0, 74, 81
1, 1734, Note_off_c, 0, 76, 61
1, 1904, Note_on_c, 0, 73, 77
1, 1907, Note_off_c, 0, 74, 57
1, 1931, Note_off_c, 0, 69, 16
1, 1991, Note_off_c, 0, 73, 61
1, 2000, Note_on_c, 0, 42, 37
1, 2060, Note_on_c, 0, 62, 36
1, 2073, Note_on_c, 0, 50, 34
1, 2107, Note_on_c, 0, 69, 46
1, 2236, Note_on_c, 0, 74, 73
1, 2293, Note_on_c, 0, 57, 40
1, 2326, Control_c, 0, 64, 95
1, 2340, Control_c, 0, 64, 72
1, 2355, Control_c, 0, 64, 52
1, 2370, Control_c, 0, 64, 0
1, 2414, Control_c, 0, 64, 36
1, 2429, Control_c, 0, 64, 61
1, 2444, Control_c, 0, 64, 77
1, 2459, Control_c, 0, 64, 127
1, 2489, Note_off_c, 0, 42, 41
1, 2526, Note_off_c, 0, 57, 39
1, 2533, Note_off_c, 0, 50, 40
1, 3036, Note_off_c, 0, 62, 43
1, 3106, Note_on_c, 0, 57, 39
1, 3118, Note_on_c, 0, 54, 32
1, 3144, Note_off_c, 0, 74, 58
1, 3156, Note_off_c, 0, 69, 56
1, 3414, Note_off_c, 0, 57, 41
1, 3451, Note_off_c, 0, 54, 38
1, 3809, Note_on_c, 0, 74, 70
1, 3870, Note_on_c, 0, 40, 53
1, 3897, Control_c, 0, 64, 71
1, 3911, Control_c, 0, 64, 44
1, 3926, Control_c, 0, 64, 34
1, 3939, Note_on_c, 0, 45, 50
1, 3941, Control_c, 0, 64, 50
1, 3952, Note_off_c, 0, 40, 58
1, 3956, Control_c, 0, 64, 64
1, 3971, Control_c, 0, 64, 79
1, 3976, Note_off_c, 0, 45, 62
1, 3985, Control_c, 0, 64, 127
1, 3988, Note_on_c, 0, 49, 50
1, 4022, Note_off_c, 0, 49, 63
1, 4073, Note_on_c, 0, 57, 63
1, 4111, Note_off_c, 0, 57, 65
1, 4160, Note_on_c, 0, 79, 81
1, 4170, Note_off_c, 0, 74, 64
1, 4185, Note_on_c, 0, 67, 52
1, 4192, Note_on_c, 0, 69, 56
1, 4382, Note_on_c, 0, 78, 92
1, 4393, Note_off_c, 0, 79, 62
1, 4485, Note_on_c, 0, 38, 60
1, 4542, Note_off_c, 0, 78, 62
1, 4556, Control_c, 0, 64, 75
1, 4563, Note_on_c, 0, 77, 95
1, 4571, Control_c, 0, 64, 54
1, 4585, Note_on_c, 0, 45, 47
1, 4585, Control_c, 0, 64, 55
1, 4600, Control_c, 0, 64, 64
1, 4615, Control_c, 0, 64, 79
1, 4631, Control_c, 0, 64, 127
1, 4636, Note_off_c, 0, 69, 53
1, 4636, Note_off_c, 0, 77, 62
1, 4641, Note_off_c, 0, 38, 60
1, 4652, Note_off_c, 0, 45, 62
1, 4669, Note_off_c, 0, 67, 35
1, 4679, Note_on_c, 0, 50, 51
1, 4715, Note_off_c, 0, 50, 63
1, 4831, Note_on_c, 0, 78, 88
1, 4856, Note_on_c, 0, 69, 29
1, 4877, Note_on_c, 0, 66, 39
1, 4897, Note_on_c, 0, 57, 40
1, 4912, Control_c, 0, 64, 80
1, 4926, Control_c, 0, 64, 51
1, 4941, Control_c, 0, 64, 0
1, 4971, Control_c, 0, 64, 53
1, 4986, Control_c, 0, 64, 71
1, 5000, Control_c, 0, 64, 127
1, 5016, Note_off_c, 0, 57, 64
1, 5120, Note_off_c, 0, 66, 64
1, 5185, Note_off_c, 0, 69, 53
1, 5196, Note_off_c, 0, 78, 60
1, 5539, Note_on_c, 0, 57, 42
1, 5550, Note_on_c, 0, 62, 49
1, 5555, Note_on_c, 0, 54, 42
1, 5619, Note_off_c, 0, 54, 61
1, 5634, Note_off_c, 0, 62, 62
1, 5642, Note_off_c, 0, 57, 56
1, 5978, Note_on_c, 0, 81, 90
1, 6048, Note_off_c, 0, 81, 63
1, 6288, Note_on_c, 0, 71, 85
1, 6327, Note_on_c, 0, 67, 38
1, 6346, Note_on_c, 0, 55, 25
1, 6355, Note_on_c, 0, 62, 30
1, 6355, Note_on_c, 0, 64, 35
1, 6356, Note_on_c, 0, 59, 34
1, 6378, Note_off_c, 0, 67, 0
1, 6378, Note_on_c, 0, 67, 15
1, 6380, Control_c, 0, 64, 78
1, 6395, Control_c, 0, 64, 51
1, 6410, Control_c, 0, 64, 0
1, 6440, Control_c, 0, 64, 50
1, 6454, Control_c, 0, 64, 70
1, 6469, Control_c, 0, 64, 119
1, 6484, Control_c, 0, 64, 127
1, 6492, Note_off_c, 0, 64, 50
1, 6516, Note_off_c, 0, 62, 51
1, 6522, Note_off_c, 0, 59, 53
1, 6534, Note_on_c, 0, 76, 91
1, 6535, Note_off_c, 0, 71, 64
1, 6550, Note_off_c, 0, 55, 39
1, 6707, Note_on_c, 0, 79, 90
1, 6732, Note_off_c, 0, 76, 61
1, 6760, Note_off_c, 0, 67, 40
1, 6773, Note_on_c, 0, 45, 46
1, 6784, Note_off_c, 0, 79, 65
1, 6855, Note_on_c, 0, 50, 37
1, 7014, Note_on_c, 0, 79, 81
1, 7049, Note_on_c, 0, 69, 54
1, 7051, Note_on_c, 0, 74, 50
1, 7094, Note_on_c, 0, 57, 36
1, 7115, Control_c, 0, 64, 75
1, 7129, Control_c, 0, 64, 48
1, 7144, Control_c, 0, 64, 0
1, 7185, Note_off_c, 0, 45, 50
1, 7189, Control_c, 0, 64, 49
1, 7203, Control_c, 0, 64, 67
1, 7218, Control_c, 0, 64, 98
1, 7223, Note_off_c, 0, 50, 55
1, 7233, Control_c, 0, 64, 127
1, 7242, Note_off_c, 0, 57, 55
1, 7713, Note_on_c, 0, 78, 74
1, 7738, Note_off_c, 0, 79, 61
1, 7739, Note_on_c, 0, 66, 41
1, 7748, Note_on_c, 0, 62, 34
1, 7750, Note_on_c, 0, 57, 34
1, 7803, Control_c, 0, 64, 90
1, 7818, Control_c, 0, 64, 65
1, 7833, Control_c, 0, 64, 34
1, 7848, Control_c, 0, 64, 30
1, 7863, Control_c, 0, 64, 45
1, 7878, Control_c, 0, 64, 61
1, 7893, Control_c, 0, 64, 77
1, 7908, Control_c, 0, 64, 127
1, 7953, Note_off_c, 0, 66, 58
1, 7980, Note_off_c, 0, 62, 47
1, 8008, Note_off_c, 0, 57, 40
1, 8012, Note_off_c, 0, 78, 50
1, 8217, Note_on_c, 0, 78, 77
1, 8253, Note_off_c, 0, 69, 58
1, 8278, Note_off_c, 0, 74, 55
1, 8346, Note_on_c, 0, 47, 35
1, 8406, Note_on_c, 0, 52, 39
1, 8537, Note_on_c, 0, 62, 50
1, 8621, Note_on_c, 0, 68, 68
1, 8642, Control_c, 0, 64, 76
1, 8656, Control_c, 0, 64, 53
1, 8671, Control_c, 0, 64, 40
1, 8686, Control_c, 0, 64, 50
1, 8691, Note_off_c, 0, 78, 56
1, 8701, Control_c, 0, 64, 63
1, 8716, Control_c, 0, 64, 77
1, 8731, Control_c, 0, 64, 127
1, 8817, Note_off_c, 0, 47, 40
1, 8839, Note_off_c, 0, 52, 61
1, 8841, Note_on_c, 0, 74, 78
1, 8854, Note_off_c, 0, 62, 52
1, 9026, Note_on_c, 0, 78, 85
1, 9027, Note_off_c, 0, 74, 61
1, 9084, Note_off_c, 0, 78, 60
1, 9092, Note_off_c, 0, 68, 56
1, 9327, Note_on_c, 0, 78, 71
1, 9356, Note_on_c, 0, 69, 43
1, 9375, Note_on_c, 0, 61, 39
1, 9380, Note_on_c, 0, 67, 38
1, 9381, Note_on_c, 0, 49, 37
1, 9382, Note_on_c, 0, 57, 24
1, 9434, Control_c, 0, 64, 124
1, 9449, Control_c, 0, 64, 80
1, 9464, Control_c, 0, 64, 54
1, 9479, Control_c, 0, 64, 0
1, 9538, Control_c, 0, 64, 42
1, 9553, Control_c, 0, 64, 63
1, 9568, Control_c, 0, 64, 77
1, 9583, Control_c, 0, 64, 107
1, 9597, Control_c, 0, 64, 127
1, 9632, Note_off_c, 0, 49, 37
1, 9646, Note_off_c, 0, 57, 49
1, 9676, Note_off_c, 0, 78, 60
1, 9692, Note_off_c, 0, 61, 61
1, 10184, Note_on_c, 0, 76, 55
1, 10218, Note_on_c, 0, 57, 26
1, 10223, Note_on_c, 0, 61, 33
1, 10302, Control_c, 0, 64, 95
1, 10317, Control_c, 0, 64, 72
1, 10332, Control_c, 0, 64, 54
1, 10346, Control_c, 0, 64, 0
1, 10376, Control_c, 0, 64, 39
1, 10391, Control_c, 0, 64, 56
1, 10406, Control_c, 0, 64, 70
1, 10421, Control_c, 0, 64, 87
1, 10436, Control_c, 0, 64, 127
1, 10486, Note_off_c, 0, 61, 41
1, 10509, Note_off_c, 0, 76, 54
1, 10528, Note_off_c, 0, 57, 41
1, 10603, Note_off_c, 0, 67, 54
1, 10627, Note_off_c, 0, 69, 36
1, 11015, Note_on_c, 0, 69, 56
1, 11081, Note_on_c, 0, 43, 46
1, 11140, Control_c, 0, 64, 85
1, 11155, Control_c, 0, 64, 63
1, 11169, Control_c, 0, 64, 45
1, 11172, Note_on_c, 0, 52, 37
1, 11184, Control_c, 0, 64, 48
1, 11199, Control_c, 0, 64, 59
1, 11214, Control_c, 0, 64, 70
1, 11229, Control_c, 0, 64, 91
1, 11245, Note_on_c, 0, 57, 48
1, 11251, Control_c, 0, 64, 127
1, 11279, Note_off_c, 0, 69, 60
1, 11303, Note_on_c, 0, 61, 57
1, 11376, Note_off_c, 0, 61, 61
1, 11390, Note_on_c, 0, 69, 65
1, 11428, Note_off_c, 0, 43, 38
1, 11512, Note_on_c, 0, 76, 78
1, 11592, Note_off_c, 0, 57, 57
1, 11613, Note_off_c, 0, 52, 56
1, 11757, Note_on_c, 0, 74, 88
1, 11788, Note_off_c, 0, 76, 60
1, 11908, Note_on_c, 0, 73, 87
1, 11943, Note_on_c, 0, 42, 49
1, 11943, Note_off_c, 0, 74, 28
1, 11997, Note_off_c, 0, 69, 36
1, 12018, Note_off_c, 0, 73, 56
1, 12024, Note_on_c, 0, 50, 38
1, 12074, Note_on_c, 0, 62, 42
1, 12115, Note_on_c, 0, 69, 52
1, 12230, Note_on_c, 0, 74, 84
1, 12278, Note_on_c, 0, 57, 47
1, 12326, Control_c, 0, 64, 94
1, 12341, Control_c, 0, 64, 66
1, 12355, Control_c, 0, 64, 0
1, 12415, Control_c, 0, 64, 54
1, 12430, Control_c, 0, 64, 74
1, 12444, Control_c, 0, 64, 127
1, 12451, Note_off_c, 0, 42, 56
1, 12493, Note_off_c, 0, 50, 61
1, 12643, Note_off_c, 0, 57, 56
1, 12964, Note_off_c, 0, 62, 59
1, 12966, Note_on_c, 0, 57, 51
1, 12984, Note_on_c, 0, 54, 42
1, 13059, Note_off_c, 0, 69, 63
1, 13065, Note_off_c, 0, 74, 56
1, 13116, Note_off_c, 0, 57, 59
1, 13146, Note_off_c, 0, 54, 61
1, 13426, Note_on_c, 0, 74, 89
1, 13461, Note_on_c, 0, 40, 58
1, 13497, Control_c, 0, 64, 103
1, 13512, Control_c, 0, 64, 66
1, 13527, Control_c, 0, 64, 36
1, 13536, Note_on_c, 0, 45, 63
1, 13542, Control_c, 0, 64, 33
1, 13557, Control_c, 0, 64, 53
1, 13572, Control_c, 0, 64, 71
1, 13578, Note_off_c, 0, 40, 62
1, 13587, Control_c, 0, 64, 127
1, 13593, Note_on_c, 0, 49, 76
1, 13600, Note_off_c, 0, 45, 63
1, 13652, Note_off_c, 0, 49, 60
1, 13680, Note_on_c, 0, 57, 78
1, 13723, Note_off_c, 0, 57, 62
1, 13780, Note_on_c, 0, 79, 88
1, 13790, Note_off_c, 0, 74, 59
1, 13801, Note_on_c, 0, 67, 64
1, 13805, Note_on_c, 0, 69, 67
1, 13995, Note_on_c, 0, 78, 99
1, 14010, Note_off_c, 0, 79, 62
1, 14099, Note_on_c, 0, 38, 69
1, 14135, Note_off_c, 0, 78, 60
1, 14164, Control_c, 0, 64, 87
1, 14168, Note_on_c, 0, 77, 101
1, 14179, Control_c, 0, 64, 56
1, 14186, Note_on_c, 0, 45, 60
1, 14194, Control_c, 0, 64, 34
1, 14198, Note_off_c, 0, 67, 52
1, 14210, Control_c, 0, 64, 52
1, 14210, Note_off_c, 0, 69, 59
1, 14224, Control_c, 0, 64, 71
1, 14246, Control_c, 0, 64, 127
1, 14248, Note_off_c, 0, 77, 64
1, 14264, Note_off_c, 0, 38, 60
1, 14275, Note_off_c, 0, 45, 62
1, 14290, Note_on_c, 0, 50, 72
1, 14343, Note_off_c, 0, 50, 60
1, 14433, Note_on_c, 0, 78, 94
1, 14457, Note_on_c, 0, 66, 68
1, 14459, Note_on_c, 0, 69, 52
1, 14496, Note_on_c, 0, 57, 56
1, 14513, Control_c, 0, 64, 70
1, 14528, Control_c, 0, 64, 29
1, 14543, Control_c, 0, 64, 0
1, 14558, Control_c, 0, 64, 50
1, 14573, Control_c, 0, 64, 77
1, 14585, Note_off_c, 0, 57, 65
1, 14587, Control_c, 0, 64, 127
1, 15011, Note_on_c, 0, 62, 70
1, 15017, Note_off_c, 0, 66, 63
1, 15020, Note_on_c, 0, 57, 58
1, 15023, Note_on_c, 0, 54, 57
1, 15030, Note_on_c, 0, 50, 50
1, 15056, Note_off_c, 0, 69, 60
1, 15071, Note_off_c, 0, 50, 63
1, 15086, Note_off_c, 0, 57, 63
1, 15095, Note_off_c, 0, 62, 63
1, 15100, Note_off_c, 0, 54, 62
1, 15119, Note_off_c, 0, 78, 57
1, 15360, Note_on_c, 0, 78, 98
1, 15372, Note_on_c, 0, 66, 88
1, 15521, Note_off_c, 0, 66, 53
1, 15562, Note_off_c, 0, 78, 54
1, 15664, Note_on_c, 0, 78, 96
1, 15684, Note_on_c, 0, 66, 74
1, 15684, Note_on_c, 0, 72, 68
1, 15693, Note_on_c, 0, 45, 57
1, 15703, Note_on_c, 0, 39, 52
1, 15706, Control_c, 0, 64, 99
1, 15712, Note_on_c, 0, 51, 54
1, 15721, Control_c, 0, 64, 63
1, 15743, Control_c, 0, 64, 0
1, 15787, Control_c, 0, 64, 67
1, 15802, Control_c, 0, 64, 127
1, 15812, Note_off_c, 0, 66, 59
1, 15831, Note_off_c, 0, 72, 59
1, 15894, Note_off_c, 0, 78, 57
1, 15975, Note_on_c, 0, 80, 100
1, 15998, Note_on_c, 0, 68, 70
1, 16021, Note_off_c, 0, 68, 70
1, 16053, Note_off_c, 0, 80, 61
1, 16135, Note_off_c, 0, 39, 60
1, 16181, Note_on_c, 0, 81, 99
1, 16195, Note_off_c, 0, 45, 37
1, 16203, Note_on_c, 0, 69, 71
1, 16209, Note_off_c, 0, 51, 55
1, 16252, Note_off_c, 0, 69, 40
1, 16316, Note_off_c, 0, 81, 63
1, 16511, Note_on_c, 0, 81, 88
1, 16538, Note_on_c, 0, 73, 61
1, 16547, Note_on_c, 0, 69, 58
1, 16568, Note_on_c, 0, 40, 31
1, 16571, Note_on_c, 0, 45, 42
1, 16575, Note_on_c, 0, 52, 35
1, 16611, Control_c, 0, 64, 76
1, 16626, Control_c, 0, 64, 46
1, 16640, Control_c, 0, 64, 0
1, 16685, Control_c, 0, 64, 32
1, 16700, Control_c, 0, 64, 61
1, 16714, Control_c, 0, 64, 79
1, 16723, Note_off_c, 0, 40, 54
1, 16729, Control_c, 0, 64, 127
1, 16740, Note_off_c, 0, 52, 60
1, 16746, Note_off_c, 0, 45, 54
1, 16839, Note_off_c, 0, 73, 57
1, 17247, Note_on_c, 0, 73, 65
1, 17272, Note_on_c, 0, 57, 24
1, 17272, Note_on_c, 0, 64, 33
1, 17277, Note_on_c, 0, 61, 30
1, 17282, Note_on_c, 0, 52, 31
1, 17329, Control_c, 0, 64, 108
1, 17344, Control_c, 0, 64, 72
1, 17358, Control_c, 0, 64, 49
1, 17373, Control_c, 0, 64, 0
1, 17388, Control_c, 0, 64, 29
1, 17403, Control_c, 0, 64, 51
1, 17419, Control_c, 0, 64, 74
1, 17434, Control_c, 0, 64, 127
1, 17462, Note_off_c, 0, 81, 61
1, 17516, Note_off_c, 0, 52, 40
1, 17518, Note_off_c, 0, 64, 44
1, 17551, Note_off_c, 0, 61, 45
1, 17551, Note_off_c, 0, 69, 57
1, 17554, Note_off_c, 0, 57, 52
1, 17578, Note_off_c, 0, 73, 58
1, 17697, Note_on_c, 0, 73, 78
1, 17966, Note_on_c, 0, 74, 76
1, 17990, Note_off_c, 0, 73, 58
1, 18003, Note_on_c, 0, 68, 54
1, 18028, Note_on_c, 0, 59, 36
1, 18029, Note_on_c, 0, 52, 38
1, 18049, Control_c, 0, 64, 98
1, 18052, Note_on_c, 0, 64, 30
1, 18061, Note_on_c, 0, 62, 30
1, 18063, Control_c, 0, 64, 68
1, 18078, Control_c, 0, 64, 42
1, 18093, Control_c, 0, 64, 0
1, 18123, Control_c, 0, 64, 34
1, 18137, Control_c, 0, 64, 58
1, 18152, Control_c, 0, 64, 73
1, 18167, Control_c, 0, 64, 97
1, 18181, Control_c, 0, 64, 127
1, 18231, Note_off_c, 0, 64, 43
1, 18240, Note_off_c, 0, 59, 53
1, 18242, Note_off_c, 0, 62, 43
1, 18249, Note_on_c, 0, 76, 75
1, 18255, Note_off_c, 0, 52, 61
1, 18264, Note_off_c, 0, 74, 60
1, 18437, Note_off_c, 0, 76, 64
1, 18440, Note_on_c, 0, 78, 80
1, 18478, Note_on_c, 0, 45, 43
1, 18478, Control_c, 0, 64, 87
1, 18493, Control_c, 0, 64, 64
1, 18508, Control_c, 0, 64, 55
1, 18523, Control_c, 0, 64, 62
1, 18538, Control_c, 0, 64, 74
1, 18539, Note_off_c, 0, 68, 62
1, 18551, Note_on_c, 0, 52, 50
1, 18553, Control_c, 0, 64, 107
1, 18568, Control_c, 0, 64, 127
1, 18579, Note_off_c, 0, 78, 60
1, 18617, Note_off_c, 0, 45, 36
1, 18632, Note_on_c, 0, 59, 47
1, 18632, Note_off_c, 0, 52, 56
1, 18679, Note_off_c, 0, 59, 64
1, 18684, Note_on_c, 0, 62, 56
1, 18753, Note_off_c, 0, 62, 61
1, 18773, Note_on_c, 0, 68, 50
1, 18956, Note_on_c, 0, 78, 80
1, 18997, Note_off_c, 0, 68, 37
1, 19525, Note_off_c, 0, 78, 55
1, 20106, Note_on_c, 0, 69, 43
1, 20135, Note_on_c, 0, 61, 30
1, 20139, Note_on_c, 0, 57, 25
1, 20145, Note_on_c, 0, 64, 28
1, 20236, Control_c, 0, 64, 89
1, 20251, Control_c, 0, 64, 70
1, 20265, Control_c, 0, 64, 55
1, 20280, Control_c, 0, 64, 0
1, 20369, Control_c, 0, 64, 40
1, 20383, Control_c, 0, 64, 55
1, 20398, Control_c, 0, 64, 64
1, 20413, Control_c, 0, 64, 70
1, 20428, Control_c, 0, 64, 75
1, 20443, Control_c, 0, 64, 80
1, 20458, Control_c, 0, 64, 84
1, 20472, Control_c, 0, 64, 90
1, 20487, Control_c, 0, 64, 97
1, 20502, Control_c, 0, 64, 106
1, 20517, Control_c, 0, 64, 127
1, 20531, Note_off_c, 0, 61, 24
1, 20553, Note_off_c, 0, 64, 43
1, 20590, Note_off_c, 0, 57, 35
1, 20672, Note_off_c, 0, 69, 33
1, 21099, Note_on_c, 0, 69, 51
1, 21162, Control_c, 0, 64, 86
1, 21176, Note_on_c, 0, 43, 40
1, 21177, Control_c, 0, 64, 64
1, 21192, Control_c, 0, 64, 38
1, 21206, Control_c, 0, 64, 31
1, 21221, Control_c, 0, 64, 41
1, 21236, Control_c, 0, 64, 55
1, 21251, Control_c, 0, 64, 66
1, 21262, Note_on_c, 0, 52, 35
1, 21266, Control_c, 0, 64, 78
1, 21280, Control_c, 0, 64, 95
1, 21295, Control_c, 0, 64, 119
1, 21310, Control_c, 0, 64, 127
1, 21320, Note_on_c, 0, 57, 42
1, 21333, Note_off_c, 0, 69, 58
1, 21343, Note_off_c, 0, 43, 36
1, 21382, Note_on_c, 0, 61, 47
1, 21455, Note_off_c, 0, 61, 58
1, 21462, Note_on_c, 0, 69, 56
1, 21617, Note_on_c, 0, 76, 78
1, 21728, Note_off_c, 0, 52, 40
1, 21897, Note_on_c, 0, 74, 84
1, 21927, Note_off_c, 0, 76, 61
1, 22091, Note_on_c, 0, 73, 86
1, 22092, Note_off_c, 0, 57, 31
1, 22116, Note_off_c, 0, 74, 57
1, 22154, Note_off_c, 0, 69, 43
1, 22179, Note_on_c, 0, 42, 46
1, 22222, Note_off_c, 0, 73, 54
1, 22266, Note_on_c, 0, 50, 41
1, 22455, Note_on_c, 0, 74, 80
1, 22502, Note_on_c, 0, 69, 42
1, 22506, Note_on_c, 0, 62, 42
1, 22550, Note_on_c, 0, 57, 35
1, 22586, Control_c, 0, 64, 92
1, 22601, Control_c, 0, 64, 68
1, 22616, Control_c, 0, 64, 38
1, 22631, Control_c, 0, 64, 0
1, 22675, Control_c, 0, 64, 46
1, 22681, Note_off_c, 0, 42, 46
1, 22687, Note_off_c, 0, 50, 62
1, 22690, Control_c, 0, 64, 63
1, 22705, Control_c, 0, 64, 77
1, 22720, Control_c, 0, 64, 100
1, 22734, Control_c, 0, 64, 127
1, 22922, Note_off_c, 0, 57, 55
1, 22933, Note_on_c, 0, 59, 60
1, 23123, Note_off_c, 0, 59, 49
1, 23262, Control_c, 0, 64, 91
1, 23276, Control_c, 0, 64, 71
1, 23277, Note_on_c, 0, 59, 63
1, 23288, Note_on_c, 0, 54, 44
1, 23291, Control_c, 0, 64, 65
1, 23295, Note_on_c, 0, 57, 46
1, 23306, Control_c, 0, 64, 68
1, 23310, Note_off_c, 0, 62, 63
1, 23321, Control_c, 0, 64, 77
1, 23336, Control_c, 0, 64, 106
1, 23345, Note_off_c, 0, 69, 63
1, 23350, Control_c, 0, 64, 127
1, 23360, Note_off_c, 0, 74, 63
1, 23507, Note_off_c, 0, 54, 60
1, 23570, Note_on_c, 0, 60, 67
1, 23573, Note_off_c, 0, 57, 57
1, 23603, Note_off_c, 0, 59, 60
1, 23623, Note_on_c, 0, 74, 90
1, 23677, Note_off_c, 0, 60, 60
1, 23704, Note_off_c, 0, 74, 62
1, 23716, Note_on_c, 0, 52, 59
1, 23740, Note_on_c, 0, 57, 62
1, 23786, Note_on_c, 0, 60, 69
1, 23861, Note_on_c, 0, 79, 82
1, 23888, Note_on_c, 0, 67, 65
1, 23889, Note_on_c, 0, 69, 65
1, 23913, Control_c, 0, 64, 83
1, 23928, Control_c, 0, 64, 58
1, 23942, Control_c, 0, 64, 38
1, 23957, Control_c, 0, 64, 47
1, 23980, Control_c, 0, 64, 63
1, 23995, Control_c, 0, 64, 85
1, 24010, Control_c, 0, 64, 127
1, 24076, Note_on_c, 0, 78, 92
1, 24099, Note_off_c, 0, 79, 58
1, 24124, Note_off_c, 0, 67, 60
1, 24128, Note_off_c, 0, 52, 60
1, 24130, Note_off_c, 0, 69, 59
1, 24140, Note_on_c, 0, 61, 81
1, 24172, Note_off_c, 0, 60, 63
1, 24189, Note_off_c, 0, 78, 63
1, 24205, Note_off_c, 0, 57, 55
1, 24225, Note_on_c, 0, 77, 98
1, 24232, Note_off_c, 0, 61, 61
1, 24280, Note_off_c, 0, 77, 63
1, 24449, Note_on_c, 0, 78, 90
1, 24463, Note_on_c, 0, 57, 41
1, 24464, Note_on_c, 0, 50, 41
1, 24471, Note_on_c, 0, 66, 70
1, 24472, Note_on_c, 0, 69, 54
1, 24495, Note_on_c, 0, 61, 46
1, 24498, Control_c, 0, 64, 99
1, 24513, Control_c, 0, 64, 66
1, 24528, Control_c, 0, 64, 0
1, 24572, Control_c, 0, 64, 47
1, 24587, Control_c, 0, 64, 67
1, 24603, Control_c, 0, 64, 96
1, 24618, Control_c, 0, 64, 127
1, 24697, Note_off_c, 0, 50, 36
1, 24717, Note_off_c, 0, 57, 63
1, 24747, Note_off_c, 0, 61, 63
1, 24761, Note_on_c, 0, 62, 74
1, 24911, Note_off_c, 0, 62, 59
1, 24995, Control_c, 0, 64, 83
1, 24996, Note_on_c, 0, 57, 55
1, 25002, Note_on_c, 0, 62, 88
1, 25003, Note_on_c, 0, 54, 69
1, 25010, Control_c, 0, 64, 61
1, 25015, Note_off_c, 0, 66, 65
1, 25020, Note_off_c, 0, 69, 63
1, 25025, Control_c, 0, 64, 56
1, 25040, Control_c, 0, 64, 66
1, 25054, Control_c, 0, 64, 87
1, 25055, Note_off_c, 0, 78, 62
1, 25069, Control_c, 0, 64, 127
1, 25205, Note_off_c, 0, 57, 62
1, 25260, Note_on_c, 0, 63, 92
1, 25265, Note_off_c, 0, 54, 56
1, 25282, Note_off_c, 0, 62, 60
1, 25332, Note_on_c, 0, 81, 102
1, 25385, Note_off_c, 0, 63, 56
1, 25388, Note_off_c, 0, 81, 66
1, 25449, Note_on_c, 0, 55, 63
1, 25451, Note_on_c, 0, 59, 64
1, 25499, Note_on_c, 0, 63, 75
1, 25569, Note_on_c, 0, 71, 99
1, 25588, Note_on_c, 0, 67, 72
1, 25611, Control_c, 0, 64, 90
1, 25626, Control_c, 0, 64, 60
1, 25641, Control_c, 0, 64, 0
1, 25670, Control_c, 0, 64, 50
1, 25685, Control_c, 0, 64, 80
1, 25700, Control_c, 0, 64, 127
1, 25734, Note_off_c, 0, 67, 35
1, 25737, Note_off_c, 0, 71, 63
1, 25740, Note_on_c, 0, 76, 99
1, 25801, Note_off_c, 0, 59, 61
1, 25808, Note_on_c, 0, 64, 90
1, 25821, Note_off_c, 0, 63, 62
1, 25824, Note_off_c, 0, 55, 60
1, 25862, Note_off_c, 0, 64, 71
1, 25878, Note_off_c, 0, 76, 60
1, 25893, Note_on_c, 0, 79, 96
1, 25990, Note_off_c, 0, 79, 61
1, 26112, Note_on_c, 0, 79, 92
1, 26129, Note_on_c, 0, 74, 70
1, 26145, Note_on_c, 0, 67, 56
1, 26157, Note_on_c, 0, 57, 48
1, 26167, Note_on_c, 0, 71, 52
1, 26181, Note_on_c, 0, 62, 39
1, 26205, Control_c, 0, 64, 88
1, 26227, Control_c, 0, 64, 63
1, 26242, Control_c, 0, 64, 30
1, 26257, Control_c, 0, 64, 0
1, 26287, Control_c, 0, 64, 52
1, 26301, Control_c, 0, 64, 72
1, 26316, Control_c, 0, 64, 104
1, 26326, Note_off_c, 0, 67, 53
1, 26331, Control_c, 0, 64, 127
1, 26360, Note_off_c, 0, 71, 58
1, 26365, Note_off_c, 0, 79, 59
1, 26525, Note_on_c, 0, 70, 91
1, 26536, Note_off_c, 0, 74, 54
1, 26645, Note_off_c, 0, 70, 58
1, 26749, Note_on_c, 0, 70, 68
1, 26787, Note_on_c, 0, 78, 84
1, 26814, Note_on_c, 0, 74, 59
1, 26816, Note_on_c, 0, 66, 54
1, 26864, Control_c, 0, 64, 78
1, 26879, Control_c, 0, 64, 54
1, 26893, Control_c, 0, 64, 30
1, 26908, Control_c, 0, 64, 41
1, 26923, Control_c, 0, 64, 59
1, 26938, Control_c, 0, 64, 75
1, 26953, Control_c, 0, 64, 127
1, 26990, Note_off_c, 0, 70, 63
1, 26999, Note_off_c, 0, 66, 59
1, 27025, Note_off_c, 0, 78, 59
1, 27051, Note_off_c, 0, 62, 61
1, 27063, Note_off_c, 0, 57, 39
1, 27066, Note_on_c, 0, 69, 84
1, 27160, Note_on_c, 0, 78, 88
1, 27167, Note_off_c, 0, 74, 61
1, 27206, Note_off_c, 0, 69, 57
1, 27243, Note_on_c, 0, 62, 51
1, 27244, Note_on_c, 0, 59, 51
1, 27316, Note_on_c, 0, 69, 60
1, 27382, Note_on_c, 0, 66, 80
1, 27421, Control_c, 0, 64, 79
1, 27436, Control_c, 0, 64, 54
1, 27450, Control_c, 0, 64, 0
1, 27465, Control_c, 0, 64, 33
1, 27480, Control_c, 0, 64, 51
1, 27495, Control_c, 0, 64, 66
1, 27510, Control_c, 0, 64, 84
1, 27524, Control_c, 0, 64, 127
1, 27585, Note_on_c, 0, 74, 83
1, 27587, Note_off_c, 0, 66, 63
1, 27602, Note_off_c, 0, 59, 54
1, 27606, Note_off_c, 0, 78, 55
1, 27633, Note_off_c, 0, 62, 62
1, 27643, Note_on_c, 0, 68, 63
1, 27673, Note_off_c, 0, 69, 38
1, 27724, Note_off_c, 0, 68, 59
1, 27757, Note_on_c, 0, 78, 84
1, 27782, Note_off_c, 0, 74, 56
1, 27862, Note_off_c, 0, 78, 58
1, 27985, Note_on_c, 0, 78, 70
1, 28032, Note_on_c, 0, 68, 42
1, 28032, Note_on_c, 0, 61, 30
1, 28035, Note_on_c, 0, 69, 42
1, 28080, Control_c, 0, 64, 94
1, 28095, Control_c, 0, 64, 67
1, 28110, Control_c, 0, 64, 36
1, 28124, Control_c, 0, 64, 0
1, 28169, Control_c, 0, 64, 47
1, 28184, Control_c, 0, 64, 63
1, 28198, Control_c, 0, 64, 73
1, 28213, Control_c, 0, 64, 85
1, 28228, Control_c, 0, 64, 94
1, 28243, Control_c, 0, 64, 97
1, 28272, Control_c, 0, 64, 100
1, 28287, Control_c, 0, 64, 103
1, 28302, Control_c, 0, 64, 107
1, 28316, Control_c, 0, 64, 113
1, 28320, Note_on_c, 0, 67, 55
1, 28331, Control_c, 0, 64, 127
1, 28340, Note_off_c, 0, 68, 57
1, 28482, Note_off_c, 0, 67, 53
1, 28669, Note_on_c, 0, 76, 64
1, 28689, Note_off_c, 0, 78, 60
1, 28696, Note_on_c, 0, 67, 49
1, 28739, Control_c, 0, 64, 94
1, 28754, Control_c, 0, 64, 66
1, 28769, Control_c, 0, 64, 53
1, 28784, Control_c, 0, 64, 54
1, 28799, Control_c, 0, 64, 61
1, 28813, Control_c, 0, 64, 69
1, 28828, Control_c, 0, 64, 86
1, 28828, Note_off_c, 0, 69, 63
1, 28843, Control_c, 0, 64, 127
1, 28846, Note_off_c, 0, 76, 65
1, 28940, Note_off_c, 0, 67, 51
1, 28944, Note_on_c, 0, 66, 63
1, 29072, Note_off_c, 0, 61, 52
1, 29073, Note_on_c, 0, 67, 74
1, 29081, Note_off_c, 0, 66, 64
1, 29093, Note_off_c, 0, 67, 70
1, 29144, Note_on_c, 0, 69, 80
1, 29265, Note_on_c, 0, 43, 48
1, 29311, Note_off_c, 0, 69, 54
1, 29359, Note_on_c, 0, 52, 41
1, 29372, Note_on_c, 0, 61, 59
1, 29442, Note_on_c, 0, 69, 59
1, 29546, Note_on_c, 0, 76, 81
1, 29592, Note_on_c, 0, 57, 59
1, 29607, Control_c, 0, 64, 110
1, 29622, Control_c, 0, 64, 73
1, 29636, Control_c, 0, 64, 52
1, 29651, Control_c, 0, 64, 43
1, 29666, Control_c, 0, 64, 54
1, 29667, Note_off_c, 0, 61, 43
1, 29681, Control_c, 0, 64, 67
1, 29696, Control_c, 0, 64, 89
1, 29710, Control_c, 0, 64, 127
1, 29743, Note_off_c, 0, 76, 60
1, 29785, Note_on_c, 0, 74, 92
1, 29804, Note_off_c, 0, 43, 39
1, 29816, Note_off_c, 0, 52, 61
1, 29854, Note_off_c, 0, 57, 59
1, 29891, Note_off_c, 0, 74, 60
1, 29898, Note_off_c, 0, 69, 49
1, 29932, Note_on_c, 0, 73, 93
1, 29991, Note_on_c, 0, 42, 65
1, 30063, Note_on_c, 0, 50, 52
1, 30093, Note_off_c, 0, 73, 55
1, 30119, Note_on_c, 0, 62, 39
1, 30149, Note_on_c, 0, 69, 56
1, 30257, Note_on_c, 0, 74, 88
1, 30297, Control_c, 0, 64, 96
1, 30310, Control_c, 0, 64, 65
1, 30318, Note_on_c, 0, 57, 51
1, 30325, Control_c, 0, 64, 31
1, 30340, Control_c, 0, 64, 0
1, 30370, Control_c, 0, 64, 52
1, 30382, Note_off_c, 0, 42, 62
1, 30384, Control_c, 0, 64, 75
1, 30394, Note_off_c, 0, 50, 63
1, 30399, Control_c, 0, 64, 127
1, 30606, Note_off_c, 0, 57, 62
1, 30629, Note_on_c, 0, 59, 59
1, 30809, Note_off_c, 0, 59, 45
1, 30895, Note_on_c, 0, 59, 72
1, 30896, Control_c, 0, 64, 102
1, 30907, Note_on_c, 0, 57, 65
1, 30908, Note_on_c, 0, 54, 61
1, 30911, Control_c, 0, 64, 71
1, 30918, Note_off_c, 0, 62, 56
1, 30925, Control_c, 0, 64, 60
1, 30940, Control_c, 0, 64, 63
1, 30952, Note_off_c, 0, 69, 63
1, 30955, Control_c, 0, 64, 73
1, 30958, Note_off_c, 0, 74, 62
1, 30970, Control_c, 0, 64, 115
1, 30985, Control_c, 0, 64, 127
1, 31084, Note_off_c, 0, 54, 61
1, 31123, Note_on_c, 0, 60, 83
1, 31158, Note_off_c, 0, 59, 57
1, 31159, Note_off_c, 0, 57, 61
1, 31180, Note_on_c, 0, 74, 100
1, 31224, Note_off_c, 0, 60, 62
1, 31242, Note_off_c, 0, 74, 65
1, 31243, Note_on_c, 0, 52, 71
1, 31272, Note_on_c, 0, 57, 77
1, 31324, Note_on_c, 0, 60, 86
1, 31408, Note_on_c, 0, 79, 88
1, 31424, Note_on_c, 0, 67, 77
1, 31427, Note_on_c, 0, 69, 76
1, 31430, Control_c, 0, 64, 85
1, 31445, Control_c, 0, 64, 51
1, 31467, Control_c, 0, 64, 0
1, 31496, Control_c, 0, 64, 33
1, 31511, Control_c, 0, 64, 72
1, 31526, Control_c, 0, 64, 127
1, 31572, Note_off_c, 0, 79, 65
1, 31603, Note_on_c, 0, 78, 95
1, 31631, Note_off_c, 0, 69, 58
1, 31632, Note_off_c, 0, 67, 60
1, 31671, Note_on_c, 0, 61, 96
1, 31672, Note_off_c, 0, 52, 60
1, 31684, Note_off_c, 0, 78, 61
1, 31702, Note_off_c, 0, 60, 64
1, 31743, Note_on_c, 0, 77, 103
1, 31753, Note_off_c, 0, 57, 0
1, 31764, Note_off_c, 0, 61, 61
1, 31791, Poly_aftertouch_c, 0, 57, 127
1, 31795, Note_off_c, 0, 77, 68
1, 31845, Poly_aftertouch_c, 0, 57, 0
1, 31942, Note_on_c, 0, 57, 42
1, 31954, Note_on_c, 0, 50, 53
1, 31958, Note_on_c, 0, 61, 58
1, 31973, Note_on_c, 0, 78, 103
1, 31990, Note_on_c, 0, 69, 74
1, 31991, Note_on_c, 0, 66, 78
1, 32031, Control_c, 0, 64, 80
1, 32045, Control_c, 0, 64, 48
1, 32060, Control_c, 0, 64, 0
1, 32289, Control_c, 0, 64, 64
1, 32304, Control_c, 0, 64, 80
1, 32319, Control_c, 0, 64, 127
1, 32338, Note_off_c, 0, 61, 64
1, 32343, Note_on_c, 0, 62, 79
1, 32511, Note_off_c, 0, 62, 63
1, 32595, Note_on_c, 0, 62, 91
1, 32600, Note_off_c, 0, 57, 64
1, 32610, Note_off_c, 0, 50, 62
1, 32629, Note_off_c, 0, 62, 64
1, 32692, Note_off_c, 0, 69, 60
1, 32727, Note_off_c, 0, 66, 61
1, 32747, Note_off_c, 0, 78, 56
1, 32802, Note_on_c, 0, 50, 96
1, 32809, Note_on_c, 0, 38, 78
1, 32843, Note_on_c, 0, 40, 49
1, 32860, Note_off_c, 0, 38, 62
1, 32875, Note_off_c, 0, 40, 35
1, 32897, Note_off_c, 0, 50, 63
1, 32969, Note_on_c, 0, 78, 106
1, 32978, Note_on_c, 0, 66, 97
1, 33067, Note_off_c, 0, 66, 58
1, 33110, Note_off_c, 0, 78, 45
1, 33182, Note_on_c, 0, 39, 75
1, 33186, Note_on_c, 0, 45, 68
1, 33190, Note_on_c, 0, 51, 82
1, 33239, Note_on_c, 0, 78, 97
1, 33247, Control_c, 0, 64, 81
1, 33251, Note_on_c, 0, 66, 85
1, 33252, Note_on_c, 0, 72, 80
1, 33261, Control_c, 0, 64, 42
1, 33276, Control_c, 0, 64, 0
1, 33321, Note_off_c, 0, 66, 62
1, 33335, Control_c, 0, 64, 70
1, 33345, Note_off_c, 0, 72, 63
1, 33350, Control_c, 0, 64, 127
1, 33380, Note_off_c, 0, 78, 57
1, 33492, Note_on_c, 0, 80, 103
1, 33499, Note_on_c, 0, 68, 87
1, 33523, Note_off_c, 0, 68, 66
1, 33547, Note_off_c, 0, 80, 63
1, 33554, Note_off_c, 0, 39, 62
1, 33684, Note_on_c, 0, 81, 98
1, 33688, Note_off_c, 0, 51, 54
1, 33699, Note_on_c, 0, 69, 88
1, 33743, Note_on_c, 0, 40, 73
1, 33749, Note_off_c, 0, 45, 51
1, 33773, Control_c, 0, 64, 75
1, 33788, Control_c, 0, 64, 34
1, 33803, Control_c, 0, 64, 0
1, 33848, Control_c, 0, 64, 51
1, 33848, Note_on_c, 0, 45, 71
1, 33863, Control_c, 0, 64, 83
1, 33878, Control_c, 0, 64, 127
1, 33917, Note_off_c, 0, 40, 60
1, 33925, Note_off_c, 0, 69, 59
1, 33931, Note_off_c, 0, 81, 55
1, 33975, Note_off_c, 0, 45, 62
1, 33977, Note_on_c, 0, 54, 89
1, 34029, Note_off_c, 0, 54, 60
1, 34072, Note_on_c, 0, 81, 99
1, 34084, Note_on_c, 0, 69, 84
1, 34084, Note_on_c, 0, 73, 77
1, 34102, Note_off_c, 0, 69, 72
1, 34107, Note_off_c, 0, 73, 69
1, 34116, Note_off_c, 0, 81, 69
1, 34384, Note_on_c, 0, 56, 93
1, 34515, Note_off_c, 0, 56, 61
1, 34560, Note_on_c, 0, 52, 63
1, 34610, Note_on_c, 0, 56, 63
1, 34666, Note_on_c, 0, 73, 88
1, 34686, Note_on_c, 0, 64, 69
1, 34687, Note_on_c, 0, 61, 73
1, 34729, Control_c, 0, 64, 79
1, 34744, Control_c, 0, 64, 49
1, 34758, Control_c, 0, 64, 0
1, 34788, Control_c, 0, 64, 45
1, 34796, Note_off_c, 0, 64, 64
1, 34803, Control_c, 0, 64, 67
1, 34818, Control_c, 0, 64, 104
1, 34832, Control_c, 0, 64, 127
1, 34873, Note_off_c, 0, 73, 55
1, 34934, Note_off_c, 0, 61, 27
1, 34951, Note_off_c, 0, 52, 61
1, 34957, Note_on_c, 0, 57, 72
1, 34965, Note_off_c, 0, 56, 60
1, 35038, Note_on_c, 0, 73, 91
1, 35049, Note_on_c, 0, 61, 73
1, 35132, Note_off_c, 0, 61, 58
1, 35163, Note_off_c, 0, 57, 61
1, 35165, Note_on_c, 0, 52, 53
1, 35177, Note_on_c, 0, 58, 61
1, 35262, Note_off_c, 0, 73, 56
1, 35289, Note_on_c, 0, 68, 49
1, 35292, Note_on_c, 0, 74, 84
1, 35300, Control_c, 0, 64, 116
1, 35312, Note_on_c, 0, 62, 66
1, 35314, Control_c, 0, 64, 73
1, 35329, Control_c, 0, 64, 46
1, 35344, Control_c, 0, 64, 0
1, 35374, Control_c, 0, 64, 49
1, 35389, Control_c, 0, 64, 71
1, 35401, Note_off_c, 0, 62, 52
1, 35404, Control_c, 0, 64, 104
1, 35412, Note_off_c, 0, 74, 60
1, 35419, Control_c, 0, 64, 127
1, 35507, Note_off_c, 0, 68, 62
1, 35525, Note_off_c, 0, 52, 62
1, 35527, Note_on_c, 0, 76, 86
1, 35532, Note_on_c, 0, 64, 72
1, 35559, Note_off_c, 0, 64, 68
1, 35562, Note_off_c, 0, 58, 62
1, 35571, Note_off_c, 0, 76, 61
1, 35574, Note_on_c, 0, 59, 63
1, 35660, Note_on_c, 0, 78, 92
1, 35675, Note_on_c, 0, 66, 73
1, 35691, Note_off_c, 0, 59, 50
1, 35717, Note_on_c, 0, 45, 50
1, 35723, Note_off_c, 0, 66, 56
1, 35757, Note_off_c, 0, 78, 56
1, 35804, Note_on_c, 0, 52, 46
1, 35902, Note_on_c, 0, 78, 82
1, 35928, Note_on_c, 0, 66, 55
1, 35932, Note_on_c, 0, 69, 50
1, 35961, Control_c, 0, 64, 87
1, 35976, Control_c, 0, 64, 64
1, 35991, Control_c, 0, 64, 34
1, 36005, Control_c, 0, 64, 0
1, 36015, Note_off_c, 0, 45, 54
1, 36026, Note_on_c, 0, 59, 47
1, 36035, Note_off_c, 0, 52, 62
1, 36035, Control_c, 0, 64, 34
1, 36050, Control_c, 0, 64, 50
1, 36065, Control_c, 0, 64, 63
1, 36079, Control_c, 0, 64, 72
1, 36094, Control_c, 0, 64, 80
1, 36109, Control_c, 0, 64, 85
1, 36124, Control_c, 0, 64, 86
1, 36138, Control_c, 0, 64, 87
1, 36153, Control_c, 0, 64, 89
1, 36158, Note_off_c, 0, 59, 61
1, 36168, Control_c, 0, 64, 92
1, 36183, Control_c, 0, 64, 96
1, 36198, Control_c, 0, 64, 101
1, 36212, Control_c, 0, 64, 106
1, 36227, Control_c, 0, 64, 112
1, 36242, Control_c, 0, 64, 117
1, 36256, Control_c, 0, 64, 127
1, 36295, Note_on_c, 0, 60, 51
1, 36366, Note_off_c, 0, 60, 55
1, 36375, Note_off_c, 0, 66, 64
1, 36378, Note_off_c, 0, 78, 60
1, 36409, Note_off_c, 0, 69, 51
1, 36576, Note_on_c, 0, 69, 56
1, 36609, Note_on_c, 0, 64, 42
1, 36626, Note_on_c, 0, 60, 41
1, 36648, Note_on_c, 0, 57, 22
1, 36709, Control_c, 0, 64, 89
1, 36724, Control_c, 0, 64, 66
1, 36739, Control_c, 0, 64, 44
1, 36754, Control_c, 0, 64, 0
1, 36799, Control_c, 0, 64, 46
1, 36814, Control_c, 0, 64, 63
1, 36828, Control_c, 0, 64, 73
1, 36843, Control_c, 0, 64, 84
1, 36858, Control_c, 0, 64, 90
1, 36873, Control_c, 0, 64, 92
1, 36887, Control_c, 0, 64, 93
1, 36902, Control_c, 0, 64, 94
1, 36917, Control_c, 0, 64, 96
1, 36947, Control_c, 0, 64, 99
1, 36976, Control_c, 0, 64, 102
1, 36978, Note_off_c, 0, 60, 36
1, 37035, Control_c, 0, 64, 104
1, 37065, Control_c, 0, 64, 111
1, 37079, Control_c, 0, 64, 127
1, 37103, Note_on_c, 0, 61, 40
1, 37139, Control_c, 0, 64, 94
1, 37154, Control_c, 0, 64, 71
1, 37169, Control_c, 0, 64, 55
1, 37183, Control_c, 0, 64, 52
1, 37198, Control_c, 0, 64, 57
1, 37213, Control_c, 0, 64, 64
1, 37228, Control_c, 0, 64, 75
1, 37243, Control_c, 0, 64, 93
1, 37258, Control_c, 0, 64, 127
1, 37276, Note_off_c, 0, 61, 53
1, 37294, Note_off_c, 0, 57, 53
1, 37322, Note_off_c, 0, 69, 49
1, 37346, Note_off_c, 0, 64, 39
1, 37574, Note_on_c, 0, 69, 66
1, 37630, Note_off_c, 0, 69, 62
1, 37940, Note_on_c, 0, 69, 57
1, 37964, Note_on_c, 0, 62, 48
1, 37979, Note_on_c, 0, 67, 39
1, 37996, Note_on_c, 0, 59, 30
1, 38010, Note_on_c, 0, 50, 18
1, 38011, Note_on_c, 0, 47, 9
1, 38036, Control_c, 0, 64, 88
1, 38051, Control_c, 0, 64, 68
1, 38066, Control_c, 0, 64, 53
1, 38081, Control_c, 0, 64, 45
1, 38095, Control_c, 0, 64, 49
1, 38110, Control_c, 0, 64, 58
1, 38125, Control_c, 0, 64, 66
1, 38140, Control_c, 0, 64, 79
1, 38155, Control_c, 0, 64, 97
1, 38170, Control_c, 0, 64, 124
1, 38185, Control_c, 0, 64, 127
1, 38189, Note_on_c, 0, 71, 75
1, 38193, Note_off_c, 0, 69, 58
1, 38212, Note_off_c, 0, 67, 52
1, 38238, Note_off_c, 0, 50, 46
1, 38252, Note_off_c, 0, 59, 42
1, 38265, Note_off_c, 0, 47, 40
1, 38297, Note_off_c, 0, 62, 51
1, 38351, Note_on_c, 0, 69, 84
1, 38355, Note_off_c, 0, 71, 60
1, 38420, Note_off_c, 0, 69, 59
1, 38553, Note_on_c, 0, 71, 77
1, 38587, Note_on_c, 0, 67, 39
1, 38590, Note_on_c, 0, 61, 52
1, 38606, Note_on_c, 0, 57, 32
1, 38612, Note_on_c, 0, 45, 28
1, 38619, Note_on_c, 0, 52, 31
1, 38650, Control_c, 0, 64, 107
1, 38665, Control_c, 0, 64, 75
1, 38680, Control_c, 0, 64, 52
1, 38695, Control_c, 0, 64, 0
1, 38754, Control_c, 0, 64, 47
1, 38755, Note_off_c, 0, 45, 52
1, 38769, Control_c, 0, 64, 65
1, 38782, Note_off_c, 0, 52, 57
1, 38784, Control_c, 0, 64, 83
1, 38799, Control_c, 0, 64, 127
1, 38815, Note_off_c, 0, 61, 60
1, 38829, Note_off_c, 0, 57, 55
1, 38860, Note_off_c, 0, 67, 48
1, 39224, Note_on_c, 0, 57, 28
1, 39233, Note_on_c, 0, 61, 40
1, 39238, Note_on_c, 0, 64, 40
1, 39309, Note_off_c, 0, 61, 45
1, 39314, Note_off_c, 0, 57, 46
1, 39322, Note_off_c, 0, 64, 61
1, 39791, Note_on_c, 0, 69, 62
1, 39824, Note_off_c, 0, 71, 55
1, 39886, Note_off_c, 0, 69, 53
1, 40019, Note_on_c, 0, 69, 75
1, 40045, Note_on_c, 0, 43, 48
1, 40046, Control_c, 0, 64, 104
1, 40051, Note_on_c, 0, 57, 44
1, 40051, Note_on_c, 0, 61, 55
1, 40057, Note_on_c, 0, 64, 48
1, 40060, Note_on_c, 0, 52, 44
1, 40061, Control_c, 0, 64, 73
1, 40076, Control_c, 0, 64, 56
1, 40091, Control_c, 0, 64, 55
1, 40105, Control_c, 0, 64, 61
1, 40120, Control_c, 0, 64, 72
1, 40134, Note_off_c, 0, 61, 60
1, 40135, Control_c, 0, 64, 95
1, 40150, Control_c, 0, 64, 127
1, 40203, Note_off_c, 0, 43, 55
1, 40221, Note_on_c, 0, 71, 88
1, 40230, Note_off_c, 0, 52, 61
1, 40239, Note_off_c, 0, 64, 61
1, 40256, Note_off_c, 0, 69, 35
1, 40263, Note_off_c, 0, 57, 53
1, 40359, Note_on_c, 0, 69, 94
1, 40362, Note_off_c, 0, 71, 54
1, 40564, Note_on_c, 0, 71, 89
1, 40575, Note_off_c, 0, 69, 63
1, 40596, Note_on_c, 0, 62, 56
1, 40607, Note_on_c, 0, 42, 39
1, 40614, Note_on_c, 0, 57, 38
1, 40622, Note_on_c, 0, 50, 37
1, 40662, Control_c, 0, 64, 93
1, 40677, Control_c, 0, 64, 66
1, 40692, Control_c, 0, 64, 0
1, 40751, Control_c, 0, 64, 41
1, 40766, Control_c, 0, 64, 60
1, 40781, Control_c, 0, 64, 73
1, 40795, Control_c, 0, 64, 96
1, 40810, Control_c, 0, 64, 127
1, 40838, Note_off_c, 0, 42, 40
1, 40841, Note_off_c, 0, 50, 49
1, 40967, Note_off_c, 0, 57, 38
1, 41148, Note_on_c, 0, 57, 51
1, 41171, Note_on_c, 0, 54, 46
1, 41236, Note_off_c, 0, 57, 59
1, 41265, Note_off_c, 0, 54, 60
1, 41644, Note_on_c, 0, 69, 73
1, 41649, Note_off_c, 0, 71, 52
1, 41702, Note_off_c, 0, 62, 56
1, 41748, Note_off_c, 0, 69, 61
1, 41926, Note_on_c, 0, 69, 81
1, 41951, Note_on_c, 0, 63, 66
1, 41962, Note_on_c, 0, 60, 48
1, 41971, Note_on_c, 0, 53, 39
1, 41971, Note_on_c, 0, 41, 33
1, 41980, Note_on_c, 0, 45, 35
1, 41995, Control_c, 0, 64, 90
1, 42009, Control_c, 0, 64, 64
1, 42024, Control_c, 0, 64, 34
1, 42039, Control_c, 0, 64, 35
1, 42054, Control_c, 0, 64, 52
1, 42069, Control_c, 0, 64, 68
1, 42083, Control_c, 0, 64, 97
1, 42098, Control_c, 0, 64, 127
1, 42161, Note_off_c, 0, 53, 60
1, 42164, Note_on_c, 0, 71, 91
1, 42170, Note_off_c, 0, 45, 55
1, 42180, Note_off_c, 0, 69, 37
1, 42185, Note_off_c, 0, 63, 63
1, 42189, Note_off_c, 0, 41, 53
1, 42294, Note_off_c, 0, 60, 54
1, 42331, Note_on_c, 0, 69, 94
1, 42343, Note_off_c, 0, 71, 58
1, 42371, Note_off_c, 0, 69, 64
1, 42403, Note_on_c, 0, 40, 56
1, 42460, Note_on_c, 0, 45, 63
1, 42522, Note_on_c, 0, 52, 68
1, 42532, Note_on_c, 0, 61, 77
1, 42559, Control_c, 0, 64, 78
1, 42567, Note_on_c, 0, 67, 75
1, 42573, Control_c, 0, 64, 59
1, 42588, Control_c, 0, 64, 57
1, 42603, Control_c, 0, 64, 66
1, 42607, Note_off_c, 0, 61, 65
1, 42618, Control_c, 0, 64, 84
1, 42632, Control_c, 0, 64, 127
1, 42655, Note_on_c, 0, 76, 94
1, 42707, Note_off_c, 0, 45, 62
1, 42728, Note_off_c, 0, 40, 40
1, 42728, Note_off_c, 0, 52, 61
1, 42849, Note_off_c, 0, 76, 57
1, 42954, Note_on_c, 0, 74, 95
1, 42990, Note_off_c, 0, 67, 63
1, 43005, Note_off_c, 0, 74, 62
1, 43023, Note_on_c, 0, 52, 59
1, 43071, Note_on_c, 0, 57, 61
1, 43160, Note_on_c, 0, 61, 57
1, 43199, Note_on_c, 0, 67, 62
1, 43234, Note_on_c, 0, 73, 84
1, 43263, Control_c, 0, 64, 90
1, 43265, Note_on_c, 0, 64, 60
1, 43278, Control_c, 0, 64, 62
1, 43293, Control_c, 0, 64, 0
1, 43322, Control_c, 0, 64, 39
1, 43337, Control_c, 0, 64, 61
1, 43352, Control_c, 0, 64, 86
1, 43360, Note_off_c, 0, 64, 63
1, 43367, Control_c, 0, 64, 127
1, 43378, Note_off_c, 0, 61, 60
1, 43402, Note_off_c, 0, 57, 62
1, 43427, Note_off_c, 0, 52, 61
1, 43482, Note_on_c, 0, 74, 92
1, 43520, Note_off_c, 0, 67, 62
1, 43520, Note_off_c, 0, 73, 60
1, 43550, Note_off_c, 0, 74, 65
1, 43728, Note_on_c, 0, 71, 72
1, 43756, Note_on_c, 0, 62, 51
1, 43759, Note_on_c, 0, 66, 58
1, 43761, Note_on_c, 0, 38, 41
1, 43762, Note_on_c, 0, 59, 45
1, 43775, Control_c, 0, 64, 78
1, 43790, Control_c, 0, 64, 58
1, 43791, Note_on_c, 0, 50, 28
1, 43805, Control_c, 0, 64, 39
1, 43819, Control_c, 0, 64, 41
1, 43825, Note_off_c, 0, 59, 0
1, 43825, Note_on_c, 0, 59, 16
1, 43834, Control_c, 0, 64, 52
1, 43837, Note_off_c, 0, 71, 61
1, 43849, Control_c, 0, 64, 64
1, 43864, Control_c, 0, 64, 81
1, 43873, Note_off_c, 0, 62, 39
1, 43879, Control_c, 0, 64, 127
1, 43980, Note_off_c, 0, 50, 42
1, 43980, Note_off_c, 0, 59, 34
1, 44023, Note_on_c, 0, 73, 74
1, 44065, Note_off_c, 0, 66, 51
1, 44075, Note_off_c, 0, 38, 39
1, 44141, Note_off_c, 0, 73, 63
1, 44381, Note_on_c, 0, 71, 70
1, 44400, Note_on_c, 0, 67, 49
1, 44415, Note_on_c, 0, 57, 40
1, 44421, Note_on_c, 0, 64, 45
1, 44424, Note_on_c, 0, 37, 39
1, 44448, Note_on_c, 0, 49, 29
1, 44463, Control_c, 0, 64, 105
1, 44478, Control_c, 0, 64, 72
1, 44493, Control_c, 0, 64, 51
1, 44508, Control_c, 0, 64, 0
1, 44552, Control_c, 0, 64, 42
1, 44567, Control_c, 0, 64, 61
1, 44579, Note_off_c, 0, 37, 56
1, 44582, Control_c, 0, 64, 74
1, 44597, Control_c, 0, 64, 92
1, 44612, Control_c, 0, 64, 127
1, 44614, Note_off_c, 0, 49, 35
1, 44877, Note_on_c, 0, 69, 56
1, 44879, Note_off_c, 0, 71, 62
1, 45166, Note_on_c, 0, 61, 45
1, 45175, Note_on_c, 0, 52, 36
1, 45177, Note_on_c, 0, 49, 37
1, 45212, Control_c, 0, 64, 97
1, 45226, Control_c, 0, 64, 71
1, 45241, Control_c, 0, 64, 56
1, 45256, Control_c, 0, 64, 50
1, 45271, Control_c, 0, 64, 56
1, 45287, Control_c, 0, 64, 65
1, 45301, Control_c, 0, 64, 78
1, 45316, Control_c, 0, 64, 110
1, 45331, Control_c, 0, 64, 127
1, 45355, Note_off_c, 0, 61, 62
1, 45375, Note_off_c, 0, 67, 52
1, 45378, Note_off_c, 0, 64, 63
1, 45435, Note_off_c, 0, 49, 43
1, 45438, Note_off_c, 0, 69, 61
1, 45448, Note_off_c, 0, 52, 34
1, 45801, Note_on_c, 0, 69, 65
1, 45861, Note_off_c, 0, 57, 9
1, 45900, Note_off_c, 0, 69, 53
1, 46048, Note_on_c, 0, 69, 70
1, 46072, Note_on_c, 0, 57, 50
1, 46073, Note_on_c, 0, 67, 56
1, 46074, Note_on_c, 0, 62, 54
1, 46080, Control_c, 0, 64, 92
1, 46084, Note_on_c, 0, 47, 43
1, 46087, Note_on_c, 0, 35, 49
1, 46095, Control_c, 0, 64, 67
1, 46110, Control_c, 0, 64, 52
1, 46124, Control_c, 0, 64, 54
1, 46131, Note_off_c, 0, 57, 57
1, 46139, Control_c, 0, 64, 62
1, 46144, Note_off_c, 0, 69, 62
1, 46154, Control_c, 0, 64, 72
1, 46170, Control_c, 0, 64, 98
1, 46185, Control_c, 0, 64, 127
1, 46248, Note_on_c, 0, 71, 86
1, 46264, Note_on_c, 0, 59, 69
1, 46305, Note_off_c, 0, 71, 60
1, 46308, Note_off_c, 0, 59, 54
1, 46347, Note_off_c, 0, 47, 36
1, 46350, Note_off_c, 0, 67, 42
1, 46372, Note_off_c, 0, 62, 61
1, 46395, Note_on_c, 0, 69, 89
1, 46403, Note_on_c, 0, 57, 78
1, 46456, Note_off_c, 0, 57, 60
1, 46472, Note_off_c, 0, 69, 59
1, 46570, Note_on_c, 0, 71, 82
1, 46578, Note_on_c, 0, 67, 57
1, 46580, Note_off_c, 0, 35, 62
1, 46586, Note_on_c, 0, 61, 62
1, 46594, Note_on_c, 0, 59, 63
1, 46594, Note_on_c, 0, 33, 63
1, 46606, Note_on_c, 0, 64, 50
1, 46608, Note_on_c, 0, 45, 54
1, 46621, Control_c, 0, 64, 77
1, 46636, Control_c, 0, 64, 52
1, 46651, Control_c, 0, 64, 0
1, 46710, Control_c, 0, 64, 47
1, 46722, Note_off_c, 0, 33, 62
1, 46725, Control_c, 0, 64, 65
1, 46740, Control_c, 0, 64, 81
1, 46743, Note_off_c, 0, 45, 63
1, 46755, Control_c, 0, 64, 127
1, 47137, Note_on_c, 0, 55, 64
1, 47154, Note_on_c, 0, 49, 60
1, 47156, Note_on_c, 0, 52, 51
1, 47161, Note_on_c, 0, 45, 42
1, 47289, Note_off_c, 0, 55, 62
1, 47336, Note_off_c, 0, 49, 58
1, 47369, Note_off_c, 0, 45, 30
1, 47410, Note_off_c, 0, 71, 52
1, 47420, Note_off_c, 0, 52, 39
1, 47461, Note_off_c, 0, 59, 54
1, 47605, Note_off_c, 0, 67, 60
1, 47621, Note_on_c, 0, 69, 86
1, 47632, Note_off_c, 0, 64, 59
1, 47640, Note_on_c, 0, 57, 67
1, 47664, Note_off_c, 0, 61, 57
1, 47718, Note_off_c, 0, 57, 54
1, 47762, Note_off_c, 0, 69, 51
1, 47782, Note_on_c, 0, 31, 77
1, 47783, Note_on_c, 0, 43, 81
1, 47860, Control_c, 0, 64, 84
1, 47861, Note_on_c, 0, 69, 90
1, 47870, Note_on_c, 0, 57, 71
1, 47873, Note_on_c, 0, 61, 62
1, 47875, Control_c, 0, 64, 61
1, 47878, Note_on_c, 0, 64, 67
1, 47890, Control_c, 0, 64, 50
1, 47904, Control_c, 0, 64, 59
1, 47919, Control_c, 0, 64, 69
1, 47928, Note_off_c, 0, 57, 63
1, 47941, Control_c, 0, 64, 113
1, 47956, Control_c, 0, 64, 127
1, 47957, Note_off_c, 0, 61, 63
1, 47959, Note_off_c, 0, 64, 65
1, 47969, Note_off_c, 0, 69, 61
1, 48026, Note_off_c, 0, 43, 60
1, 48038, Note_on_c, 0, 71, 90
1, 48055, Note_on_c, 0, 59, 69
1, 48080, Note_off_c, 0, 59, 67
1, 48096, Note_off_c, 0, 71, 61
1, 48109, Note_off_c, 0, 31, 60
1, 48171, Note_on_c, 0, 69, 102
1, 48180, Note_on_c, 0, 57, 90
1, 48214, Note_off_c, 0, 57, 62
1, 48236, Note_off_c, 0, 69, 62
1, 48321, Note_on_c, 0, 71, 100
1, 48335, Note_on_c, 0, 62, 82
1, 48341, Note_on_c, 0, 59, 78
1, 48350, Note_on_c, 0, 42, 88
1, 48353, Note_on_c, 0, 30, 79
1, 48356, Control_c, 0, 64, 73
1, 48371, Control_c, 0, 64, 35
1, 48386, Control_c, 0, 64, 0
1, 48430, Control_c, 0, 64, 49
1, 48432, Note_off_c, 0, 30, 64
1, 48445, Control_c, 0, 64, 80
1, 48454, Note_off_c, 0, 42, 64
1, 48460, Control_c, 0, 64, 127
1, 48744, Note_off_c, 0, 59, 62
1, 48764, Note_off_c, 0, 71, 57
1, 48770, Note_on_c, 0, 54, 95
1, 48783, Note_on_c, 0, 42, 71
1, 48783, Note_off_c, 0, 62, 64
1, 48788, Note_on_c, 0, 45, 66
1, 48793, Note_on_c, 0, 50, 63
1, 49050, Note_on_c, 0, 69, 98
1, 49058, Note_on_c, 0, 57, 96
1, 49104, Note_off_c, 0, 50, 61
1, 49146, Note_off_c, 0, 54, 57
1, 49182, Note_off_c, 0, 42, 60
1, 49197, Note_off_c, 0, 57, 56
1, 49229, Note_off_c, 0, 69, 56
1, 49238, Note_off_c, 0, 45, 0
1, 49258, Note_on_c, 0, 45, 27
1, 49263, Note_on_c, 0, 41, 80
1, 49274, Note_on_c, 0, 48, 74
1, 49284, Note_on_c, 0, 53, 87
1, 49342, Control_c, 0, 64, 97
1, 49353, Note_on_c, 0, 69, 100
1, 49357, Note_on_c, 0, 57, 97
1, 49357, Control_c, 0, 64, 62
1, 49363, Note_on_c, 0, 63, 86
1, 49372, Control_c, 0, 64, 0
1, 49402, Control_c, 0, 64, 42
1, 49417, Control_c, 0, 64, 70
1, 49439, Control_c, 0, 64, 127
1, 49477, Note_off_c, 0, 57, 58
1, 49482, Note_off_c, 0, 69, 52
1, 49485, Note_off_c, 0, 53, 59
1, 49533, Note_off_c, 0, 48, 61
1, 49540, Note_off_c, 0, 45, 59
1, 49552, Note_off_c, 0, 41, 64
1, 49561, Note_off_c, 0, 63, 57
1, 49578, Note_on_c, 0, 71, 105
1, 49581, Note_on_c, 0, 59, 97
1, 49626, Note_off_c, 0, 59, 65
1, 49644, Note_off_c, 0, 71, 61
1, 49756, Note_on_c, 0, 57, 108
1, 49757, Note_on_c, 0, 69, 103
1, 49788, Note_off_c, 0, 57, 71
1, 49823, Note_off_c, 0, 69, 68
1, 49841, Note_on_c, 0, 28, 100
1, 49894, Note_off_c, 0, 28, 69
1, 49909, Note_on_c, 0, 31, 47
1, 49986, Note_off_c, 0, 31, 62
1, 50081, Note_on_c, 0, 81, 104
1, 50086, Note_on_c, 0, 69, 103
1, 50088, Note_on_c, 0, 73, 96
1, 50101, Note_on_c, 0, 40, 75
1, 50135, Control_c, 0, 64, 82
1, 50151, Control_c, 0, 64, 43
1, 50166, Control_c, 0, 64, 0
1, 50203, Control_c, 0, 64, 54
1, 50218, Control_c, 0, 64, 83
1, 50232, Control_c, 0, 64, 127
1, 50249, Note_off_c, 0, 40, 63
1, 50303, Note_off_c, 0, 81, 60
1, 50324, Note_off_c, 0, 69, 62
1, 50394, Note_on_c, 0, 45, 67
1, 50445, Note_on_c, 0, 49, 68
1, 50505, Note_on_c, 0, 52, 71
1, 50509, Note_on_c, 0, 80, 97
1, 50514, Note_on_c, 0, 68, 94
1, 50515, Note_off_c, 0, 45, 61
1, 50527, Note_off_c, 0, 73, 59
1, 50539, Note_off_c, 0, 49, 64
1, 50544, Note_off_c, 0, 80, 70
1, 50548, Note_off_c, 0, 52, 61
1, 50551, Note_off_c, 0, 68, 65
1, 50568, Note_on_c, 0, 57, 76
1, 50615, Note_off_c, 0, 57, 65
1, 50641, Note_on_c, 0, 61, 90
1, 50721, Note_on_c, 0, 78, 100
1, 50726, Note_on_c, 0, 69, 78
1, 50729, Note_on_c, 0, 66, 92
1, 50738, Note_on_c, 0, 60, 79
1, 50738, Note_off_c, 0, 61, 65
1, 50746, Note_on_c, 0, 57, 69
1, 50751, Note_on_c, 0, 52, 59
1, 50765, Control_c, 0, 64, 74
1, 50780, Control_c, 0, 64, 46
1, 50795, Control_c, 0, 64, 33
1, 50810, Control_c, 0, 64, 54
1, 50825, Control_c, 0, 64, 73
1, 50829, Note_off_c, 0, 66, 61
1, 50837, Note_off_c, 0, 78, 56
1, 50839, Control_c, 0, 64, 127
1, 50923, Note_off_c, 0, 57, 61
1, 50934, Note_on_c, 0, 61, 77
1, 50937, Note_on_c, 0, 76, 97
1, 50943, Note_on_c, 0, 64, 92
1, 50952, Note_off_c, 0, 60, 59
1, 51016, Note_off_c, 0, 76, 59
1, 51022, Note_off_c, 0, 64, 52
1, 51028, Note_off_c, 0, 61, 63
1, 51029, Note_on_c, 0, 56, 73
1, 51144, Control_c, 0, 64, 89
1, 51147, Note_on_c, 0, 74, 98
1, 51159, Note_on_c, 0, 62, 83
1, 51159, Control_c, 0, 64, 60
1, 51164, Note_on_c, 0, 71, 74
1, 51172, Note_on_c, 0, 66, 89
1, 51174, Control_c, 0, 64, 0
1, 51218, Control_c, 0, 64, 57
1, 51225, Note_off_c, 0, 62, 60
1, 51233, Control_c, 0, 64, 76
1, 51248, Control_c, 0, 64, 127
1, 51254, Note_off_c, 0, 71, 58
1, 51259, Note_off_c, 0, 66, 64
1, 51291, Note_off_c, 0, 74, 58
1, 51312, Note_off_c, 0, 52, 39
1, 51353, Note_off_c, 0, 69, 34
1, 51423, Note_off_c, 0, 56, 59
1, 51440, Note_on_c, 0, 73, 87
1, 51443, Note_on_c, 0, 57, 54
1, 51447, Note_on_c, 0, 64, 68
1, 51455, Control_c, 0, 64, 85
1, 51456, Note_on_c, 0, 61, 72
1, 51470, Control_c, 0, 64, 60
1, 51485, Control_c, 0, 64, 35
1, 51500, Control_c, 0, 64, 41
1, 51515, Control_c, 0, 64, 59
1, 51529, Control_c, 0, 64, 72
1, 51544, Control_c, 0, 64, 95
1, 51549, Note_off_c, 0, 61, 61
1, 51559, Control_c, 0, 64, 127
1, 51572, Note_off_c, 0, 64, 65
1, 51576, Note_off_c, 0, 73, 62
1, 51584, Note_off_c, 0, 57, 62
1, 51722, Note_on_c, 0, 54, 44
1, 51728, Note_on_c, 0, 57, 53
1, 51820, Note_on_c, 0, 63, 50
1, 51826, Note_on_c, 0, 73, 73
1, 51855, Note_on_c, 0, 61, 57
1, 51864, Control_c, 0, 64, 85
1, 51878, Control_c, 0, 64, 62
1, 51893, Control_c, 0, 64, 0
1, 51952, Control_c, 0, 64, 42
1, 51967, Control_c, 0, 64, 58
1, 51982, Control_c, 0, 64, 68
1, 51983, Note_off_c, 0, 57, 62
1, 51997, Control_c, 0, 64, 76
1, 52011, Control_c, 0, 64, 81
1, 52022, Note_off_c, 0, 63, 58
1, 52027, Control_c, 0, 64, 81
1, 52072, Control_c, 0, 64, 82
1, 52086, Control_c, 0, 64, 84
1, 52101, Control_c, 0, 64, 90
1, 52116, Control_c, 0, 64, 103
1, 52131, Control_c, 0, 64, 127
1, 52169, Note_off_c, 0, 54, 57
1, 52171, Note_on_c, 0, 56, 51
1, 52175, Note_on_c, 0, 62, 45
1, 52175, Control_c, 0, 64, 98
1, 52190, Control_c, 0, 64, 74
1, 52204, Control_c, 0, 64, 58
1, 52219, Control_c, 0, 64, 42
1, 52234, Control_c, 0, 64, 45
1, 52249, Control_c, 0, 64, 56
1, 52264, Control_c, 0, 64, 65
1, 52265, Note_on_c, 0, 64, 59
1, 52270, Note_off_c, 0, 61, 59
1, 52279, Control_c, 0, 64, 74
1, 52294, Control_c, 0, 64, 85
1, 52298, Note_off_c, 0, 73, 63
1, 52309, Control_c, 0, 64, 92
1, 52323, Control_c, 0, 64, 94
1, 52343, Note_off_c, 0, 56, 59
1, 52388, Note_on_c, 0, 71, 77
1, 52406, Note_off_c, 0, 62, 36
1, 52412, Note_on_c, 0, 59, 49
1, 52416, Note_off_c, 0, 64, 53
1, 52462, Note_off_c, 0, 59, 48
1, 52496, Note_off_c, 0, 71, 51
1, 52613, Control_c, 0, 64, 93
1, 52621, Note_on_c, 0, 71, 42
1, 52636, Note_on_c, 0, 64, 43
1, 52641, Note_on_c, 0, 57, 38
1, 52656, Note_on_c, 0, 62, 31
1, 52672, Control_c, 0, 64, 93
1, 52687, Control_c, 0, 64, 88
1, 52702, Control_c, 0, 64, 77
1, 52717, Control_c, 0, 64, 64
1, 52732, Control_c, 0, 64, 46
1, 52747, Control_c, 0, 64, 0
1, 52805, Control_c, 0, 64, 30
1, 52820, Control_c, 0, 64, 44
1, 52834, Control_c, 0, 64, 58
1, 52849, Control_c, 0, 64, 67
1, 52864, Control_c, 0, 64, 72
1, 52879, Control_c, 0, 64, 73
1, 52923, Control_c, 0, 64, 74
1, 52938, Control_c, 0, 64, 74
1, 52967, Control_c, 0, 64, 75
1, 53012, Control_c, 0, 64, 75
1, 53167, Note_on_c, 0, 61, 48
1, 53178, Note_off_c, 0, 62, 41
1, 53197, Control_c, 0, 64, 75
1, 53212, Control_c, 0, 64, 69
1, 53227, Control_c, 0, 64, 58
1, 53242, Control_c, 0, 64, 37
1, 53256, Control_c, 0, 64, 0
1, 53271, Control_c, 0, 64, 34
1, 53286, Control_c, 0, 64, 49
1, 53301, Control_c, 0, 64, 62
1, 53316, Control_c, 0, 64, 71
1, 53331, Control_c, 0, 64, 81
1, 53346, Control_c, 0, 64, 88
1, 53361, Control_c, 0, 64, 91
1, 53364, Note_off_c, 0, 61, 60
1, 53370, Note_off_c, 0, 57, 57
1, 53376, Control_c, 0, 64, 91
1, 53391, Control_c, 0, 64, 92
1, 53405, Control_c, 0, 64, 93
1, 53420, Control_c, 0, 64, 93
1, 53435, Control_c, 0, 64, 94
1, 53450, Control_c, 0, 64, 95
1, 53510, Control_c, 0, 64, 97
1, 53581, Note_off_c, 0, 64, 53
1, 53672, Control_c, 0, 64, 99
1, 53686, Note_on_c, 0, 69, 68
1, 53689, Note_off_c, 0, 71, 53
1, 53746, Control_c, 0, 64, 101
1, 53771, Note_off_c, 0, 69, 60
1, 54058, Note_on_c, 0, 69, 58
1, 54076, Note_on_c, 0, 67, 48
1, 54091, Note_on_c, 0, 62, 37
1, 54099, Note_on_c, 0, 59, 18
1, 54100, Note_on_c, 0, 47, 23
1, 54107, Note_on_c, 0, 50, 24
1, 54124, Control_c, 0, 64, 99
1, 54139, Control_c, 0, 64, 89
1, 54154, Control_c, 0, 64, 74
1, 54169, Control_c, 0, 64, 58
1, 54184, Control_c, 0, 64, 45
1, 54199, Control_c, 0, 64, 46
1, 54213, Control_c, 0, 64, 55
1, 54228, Control_c, 0, 64, 64
1, 54243, Control_c, 0, 64, 75
1, 54258, Control_c, 0, 64, 95
1, 54273, Control_c, 0, 64, 127
1, 54288, Note_on_c, 0, 71, 83
1, 54296, Note_off_c, 0, 67, 59
1, 54297, Note_off_c, 0, 69, 59
1, 54315, Note_off_c, 0, 50, 48
1, 54336, Note_off_c, 0, 47, 46
1, 54362, Note_off_c, 0, 59, 42
1, 54374, Note_off_c, 0, 62, 41
1, 54451, Note_off_c, 0, 71, 60
1, 54453, Note_on_c, 0, 69, 83
1, 54610, Note_off_c, 0, 69, 60
1, 54640, Note_on_c, 0, 71, 74
1, 54663, Note_on_c, 0, 67, 57
1, 54666, Note_on_c, 0, 61, 46
1, 54707, Note_on_c, 0, 52, 25
1, 54708, Note_on_c, 0, 57, 26
1, 54712, Note_on_c, 0, 45, 24
1, 54724, Control_c, 0, 64, 112
1, 54739, Control_c, 0, 64, 76
1, 54754, Control_c, 0, 64, 53
1, 54769, Control_c, 0, 64, 0
1, 54813, Control_c, 0, 64, 32
1, 54828, Control_c, 0, 64, 49
1, 54831, Note_off_c, 0, 45, 51
1, 54843, Control_c, 0, 64, 64
1, 54858, Control_c, 0, 64, 76
1, 54859, Note_off_c, 0, 52, 56
1, 54872, Control_c, 0, 64, 97
1, 54887, Control_c, 0, 64, 127
1, 54891, Note_off_c, 0, 57, 56
1, 54896, Note_off_c, 0, 61, 59
1, 54930, Note_off_c, 0, 67, 62
1, 55227, Note_on_c, 0, 57, 37
1, 55230, Note_on_c, 0, 61, 45
1, 55242, Note_on_c, 0, 64, 42
1, 55281, Note_off_c, 0, 57, 56
1, 55290, Note_off_c, 0, 64, 62
1, 55323, Note_off_c, 0, 61, 44
1, 55812, Note_on_c, 0, 69, 66
1, 55835, Note_off_c, 0, 71, 59
1, 55887, Note_off_c, 0, 69, 53
1, 56041, Note_on_c, 0, 69, 72
1, 56065, Note_on_c, 0, 43, 43
1, 56066, Control_c, 0, 64, 108
1, 56067, Note_on_c, 0, 57, 45
1, 56067, Note_on_c, 0, 61, 55
1, 56070, Note_on_c, 0, 64, 50
1, 56081, Control_c, 0, 64, 75
1, 56082, Note_on_c, 0, 52, 36
1, 56096, Control_c, 0, 64, 59
1, 56111, Control_c, 0, 64, 56
1, 56125, Control_c, 0, 64, 64
1, 56140, Control_c, 0, 64, 76
1, 56146, Note_off_c, 0, 61, 62
1, 56155, Control_c, 0, 64, 112
1, 56175, Note_off_c, 0, 43, 53
1, 56177, Control_c, 0, 64, 127
1, 56210, Note_off_c, 0, 64, 53
1, 56218, Note_off_c, 0, 52, 61
1, 56225, Note_off_c, 0, 57, 61
1, 56237, Note_on_c, 0, 71, 85
1, 56243, Note_off_c, 0, 69, 53
1, 56368, Note_on_c, 0, 69, 92
1, 56371, Note_off_c, 0, 71, 55
1, 56437, Note_off_c, 0, 69, 65
1, 56548, Note_on_c, 0, 71, 86
1, 56580, Note_on_c, 0, 62, 50
1, 56591, Note_on_c, 0, 57, 37
1, 56592, Note_on_c, 0, 50, 35
1, 56596, Note_on_c, 0, 42, 43
1, 56637, Control_c, 0, 64, 122
1, 56652, Control_c, 0, 64, 77
1, 56667, Control_c, 0, 64, 56
1, 56681, Control_c, 0, 64, 0
1, 56726, Control_c, 0, 64, 41
1, 56741, Control_c, 0, 64, 58
1, 56756, Control_c, 0, 64, 71
1, 56764, Note_off_c, 0, 42, 54
1, 56771, Control_c, 0, 64, 85
1, 56786, Control_c, 0, 64, 105
1, 56788, Note_off_c, 0, 50, 63
1, 56800, Control_c, 0, 64, 117
1, 56815, Control_c, 0, 64, 127
1, 56943, Note_off_c, 0, 57, 28
1, 57134, Note_on_c, 0, 57, 31
1, 57148, Note_on_c, 0, 54, 39
1, 57223, Note_off_c, 0, 57, 59
1, 57247, Note_off_c, 0, 54, 53
1, 57512, Note_off_c, 0, 62, 19
1, 57570, Note_off_c, 0, 71, 54
1, 57585, Note_on_c, 0, 69, 59
1, 57682, Note_off_c, 0, 69, 60
1, 57979, Note_on_c, 0, 69, 59
1, 57997, Note_on_c, 0, 63, 39
1, 58011, Note_on_c, 0, 60, 35
1, 58017, Note_on_c, 0, 41, 24
1, 58031, Note_on_c, 0, 53, 14
1, 58056, Note_on_c, 0, 45, 33
1, 58104, Control_c, 0, 64, 86
1, 58119, Control_c, 0, 64, 66
1, 58134, Control_c, 0, 64, 45
1, 58150, Control_c, 0, 64, 0
1, 58194, Control_c, 0, 64, 45
1, 58209, Control_c, 0, 64, 60
1, 58224, Control_c, 0, 64, 72
1, 58239, Control_c, 0, 64, 86
1, 58253, Control_c, 0, 64, 104
1, 58268, Control_c, 0, 64, 109
1, 58283, Control_c, 0, 64, 114
1, 58298, Control_c, 0, 64, 127
1, 58309, Note_off_c, 0, 53, 39
1, 58326, Note_on_c, 0, 71, 62
1, 58327, Note_off_c, 0, 69, 37
1, 58341, Note_off_c, 0, 63, 60
1, 58347, Note_off_c, 0, 45, 39
1, 58369, Note_off_c, 0, 41, 51
1, 58503, Note_off_c, 0, 60, 40
1, 58538, Note_on_c, 0, 69, 65
1, 58558, Note_off_c, 0, 71, 57
1, 58563, Note_off_c, 0, 69, 68
1, 58627, Note_on_c, 0, 40, 40
1, 58685, Note_on_c, 0, 45, 37
1, 58727, Note_on_c, 0, 52, 50
1, 58747, Note_on_c, 0, 61, 57
1, 58750, Control_c, 0, 64, 88
1, 58765, Control_c, 0, 64, 63
1, 58780, Control_c, 0, 64, 59
1, 58786, Note_on_c, 0, 67, 60
1, 58795, Control_c, 0, 64, 64
1, 58810, Control_c, 0, 64, 74
1, 58817, Note_off_c, 0, 61, 64
1, 58825, Control_c, 0, 64, 101
1, 58840, Control_c, 0, 64, 127
1, 58869, Note_off_c, 0, 45, 61
1, 58877, Note_on_c, 0, 76, 78
1, 58879, Note_off_c, 0, 40, 39
1, 58888, Note_off_c, 0, 52, 61
1, 59016, Note_off_c, 0, 76, 54
1, 59256, Note_on_c, 0, 74, 86
1, 59297, Note_off_c, 0, 67, 50
1, 59305, Note_off_c, 0, 74, 59
1, 59350, Note_on_c, 0, 52, 44
1, 59400, Note_on_c, 0, 57, 42
1, 59485, Note_on_c, 0, 61, 44
1, 59512, Note_on_c, 0, 67, 52
1, 59547, Note_on_c, 0, 73, 72
1, 59573, Note_on_c, 0, 64, 45
1, 59573, Control_c, 0, 64, 89
1, 59587, Control_c, 0, 64, 63
1, 59602, Control_c, 0, 64, 43
1, 59617, Control_c, 0, 64, 44
1, 59632, Control_c, 0, 64, 55
1, 59647, Control_c, 0, 64, 65
1, 59661, Control_c, 0, 64, 78
1, 59667, Note_off_c, 0, 64, 61
1, 59669, Note_off_c, 0, 61, 58
1, 59676, Control_c, 0, 64, 112
1, 59691, Control_c, 0, 64, 127
1, 59718, Note_off_c, 0, 57, 61
1, 59731, Note_off_c, 0, 52, 52
1, 59803, Note_on_c, 0, 74, 78
1, 59829, Note_off_c, 0, 73, 57
1, 59831, Note_off_c, 0, 67, 59
1, 59854, Note_off_c, 0, 74, 60
1, 60052, Note_on_c, 0, 71, 70
1, 60077, Note_on_c, 0, 66, 54
1, 60081, Note_on_c, 0, 38, 41
1, 60088, Note_on_c, 0, 62, 33
1, 60091, Note_on_c, 0, 59, 45
1, 60099, Control_c, 0, 64, 79
1, 60102, Note_on_c, 0, 50, 21
1, 60114, Control_c, 0, 64, 59
1, 60129, Control_c, 0, 64, 46
1, 60143, Control_c, 0, 64, 50
1, 60145, Note_off_c, 0, 62, 47
1, 60155, Note_off_c, 0, 71, 62
1, 60158, Control_c, 0, 64, 60
1, 60173, Control_c, 0, 64, 70
1, 60188, Control_c, 0, 64, 95
1, 60203, Control_c, 0, 64, 127
1, 60214, Note_off_c, 0, 59, 57
1, 60234, Note_off_c, 0, 50, 36
1, 60320, Note_on_c, 0, 73, 70
1, 60324, Note_off_c, 0, 66, 63
1, 60357, Note_off_c, 0, 38, 39
1, 60423, Note_off_c, 0, 73, 62
1, 60666, Note_on_c, 0, 71, 63
1, 60687, Note_on_c, 0, 67, 48
1, 60692, Note_on_c, 0, 57, 34
1, 60707, Note_on_c, 0, 64, 39
1, 60716, Note_on_c, 0, 37, 40
1, 60744, Control_c, 0, 64, 92
1, 60747, Note_on_c, 0, 49, 28
1, 60759, Control_c, 0, 64, 71
1, 60774, Control_c, 0, 64, 53
1, 60789, Control_c, 0, 64, 0
1, 60834, Control_c, 0, 64, 45
1, 60848, Control_c, 0, 64, 59
1, 60861, Note_off_c, 0, 37, 55
1, 60863, Control_c, 0, 64, 70
1, 60876, Note_off_c, 0, 49, 52
1, 60878, Control_c, 0, 64, 81
1, 60893, Control_c, 0, 64, 93
1, 60908, Control_c, 0, 64, 96
1, 60937, Control_c, 0, 64, 99
1, 60966, Control_c, 0, 64, 103
1, 60996, Control_c, 0, 64, 106
1, 61106, Note_off_c, 0, 71, 60
1, 61109, Note_on_c, 0, 69, 61
1, 61392, Note_on_c, 0, 61, 43
1, 61413, Note_on_c, 0, 49, 34
1, 61416, Note_on_c, 0, 52, 36
1, 61449, Control_c, 0, 64, 103
1, 61463, Control_c, 0, 64, 88
1, 61478, Control_c, 0, 64, 72
1, 61493, Control_c, 0, 64, 58
1, 61508, Control_c, 0, 64, 46
1, 61522, Control_c, 0, 64, 48
1, 61537, Control_c, 0, 64, 59
1, 61552, Control_c, 0, 64, 69
1, 61567, Control_c, 0, 64, 85
1, 61582, Control_c, 0, 64, 127
1, 61588, Note_off_c, 0, 61, 56
1, 61625, Note_off_c, 0, 67, 43
1, 61630, Note_off_c, 0, 64, 51
1, 61672, Note_off_c, 0, 52, 38
1, 61685, Note_off_c, 0, 49, 41
1, 61708, Note_off_c, 0, 69, 54
1, 61928, Note_off_c, 0, 57, 26
1, 62031, Note_on_c, 0, 69, 72
1, 62138, Note_off_c, 0, 69, 52
1, 62253, Note_on_c, 0, 47, 65
1, 62262, Note_on_c, 0, 35, 63
1, 62300, Note_on_c, 0, 69, 71
1, 62302, Control_c, 0, 64, 101
1, 62311, Note_on_c, 0, 57, 63
1, 62314, Note_on_c, 0, 67, 66
1, 62316, Note_on_c, 0, 62, 51
1, 62317, Control_c, 0, 64, 72
1, 62332, Control_c, 0, 64, 55
1, 62357, Note_off_c, 0, 57, 55
1, 62361, Control_c, 0, 64, 62
1, 62376, Control_c, 0, 64, 74
1, 62384, Note_off_c, 0, 69, 60
1, 62391, Control_c, 0, 64, 119
1, 62406, Control_c, 0, 64, 127
1, 62479, Note_off_c, 0, 67, 52
1, 62488, Note_on_c, 0, 71, 84
1, 62509, Note_on_c, 0, 59, 64
1, 62517, Note_off_c, 0, 47, 59
1, 62544, Note_off_c, 0, 59, 58
1, 62550, Note_off_c, 0, 71, 59
1, 62601, Note_off_c, 0, 62, 61
1, 62634, Note_on_c, 0, 69, 89
1, 62642, Note_on_c, 0, 57, 80
1, 62685, Note_off_c, 0, 57, 58
1, 62709, Note_off_c, 0, 69, 57
1, 62793, Note_on_c, 0, 71, 84
1, 62793, Note_off_c, 0, 35, 62
1, 62804, Note_on_c, 0, 67, 62
1, 62806, Note_on_c, 0, 61, 57
1, 62807, Note_on_c, 0, 59, 69
1, 62808, Note_on_c, 0, 33, 64
1, 62815, Note_on_c, 0, 64, 58
1, 62822, Note_on_c, 0, 45, 61
1, 62835, Control_c, 0, 64, 92
1, 62850, Control_c, 0, 64, 64
1, 62864, Control_c, 0, 64, 0
1, 62947, Control_c, 0, 64, 48
1, 62956, Note_off_c, 0, 33, 62
1, 62962, Control_c, 0, 64, 66
1, 62962, Note_off_c, 0, 45, 63
1, 62977, Control_c, 0, 64, 84
1, 62992, Control_c, 0, 64, 127
1, 63332, Note_on_c, 0, 55, 75
1, 63346, Note_on_c, 0, 52, 60
1, 63346, Note_off_c, 0, 59, 61
1, 63351, Note_on_c, 0, 49, 61
1, 63352, Note_on_c, 0, 45, 59
1, 63366, Note_off_c, 0, 71, 57
1, 63389, Note_off_c, 0, 64, 60
1, 63389, Note_off_c, 0, 61, 63
1, 63395, Note_off_c, 0, 67, 60
1, 63697, Note_off_c, 0, 55, 61
1, 63727, Note_off_c, 0, 52, 60
1, 63741, Note_off_c, 0, 45, 60
1, 63746, Note_off_c, 0, 49, 64
1, 63865, Note_on_c, 0, 69, 94
1, 63878, Note_on_c, 0, 57, 77
1, 63938, Note_off_c, 0, 57, 56
1, 63984, Note_off_c, 0, 69, 58
1, 64025, Note_on_c, 0, 31, 80
1, 64027, Note_on_c, 0, 43, 84
1, 64095, Control_c, 0, 64, 113
1, 64107, Note_on_c, 0, 69, 90
1, 64110, Control_c, 0, 64, 73
1, 64116, Note_on_c, 0, 57, 72
1, 64121, Note_on_c, 0, 64, 73
1, 64122, Note_on_c, 0, 61, 70
1, 64125, Control_c, 0, 64, 57
1, 64140, Control_c, 0, 64, 58
1, 64155, Control_c, 0, 64, 66
1, 64170, Control_c, 0, 64, 88
1, 64184, Control_c, 0, 64, 127
1, 64189, Note_off_c, 0, 57, 61
1, 64214, Note_off_c, 0, 69, 59
1, 64218, Note_off_c, 0, 61, 63
1, 64220, Note_off_c, 0, 64, 66
1, 64278, Note_off_c, 0, 43, 59
1, 64299, Note_on_c, 0, 71, 96
1, 64304, Note_on_c, 0, 59, 85
1, 64333, Note_off_c, 0, 59, 65
1, 64338, Note_off_c, 0, 31, 62
1, 64346, Note_off_c, 0, 71, 63
1, 64432, Note_on_c, 0, 69, 104
1, 64437, Note_on_c, 0, 57, 96
1, 64474, Note_off_c, 0, 57, 62
1, 64490, Note_off_c, 0, 69, 62
1, 64578, Note_on_c, 0, 71, 102
1, 64578, Control_c, 0, 64, 100
1, 64585, Note_on_c, 0, 42, 92
1, 64585, Note_on_c, 0, 59, 93
1, 64585, Note_on_c, 0, 62, 92
1, 64587, Note_on_c, 0, 30, 85
1, 64593, Control_c, 0, 64, 62
1, 64608, Control_c, 0, 64, 0
1, 64645, Note_off_c, 0, 30, 64
1, 64667, Control_c, 0, 64, 52
1, 64670, Note_off_c, 0, 42, 62
1, 64682, Control_c, 0, 64, 83
1, 64696, Control_c, 0, 64, 127
1, 64946, Note_off_c, 0, 59, 60
1, 64952, Note_off_c, 0, 71, 51
1, 64988, Note_off_c, 0, 62, 63
1, 64989, Note_on_c, 0, 54, 98
1, 65004, Note_on_c, 0, 42, 73
1, 65007, Note_on_c, 0, 50, 73
1, 65007, Note_on_c, 0, 45, 69
1, 65264, Note_on_c, 0, 69, 100
1, 65265, Note_on_c, 0, 57, 105
1, 65318, Note_off_c, 0, 50, 62
1, 65341, Note_off_c, 0, 54, 55
1, 65358, Note_off_c, 0, 42, 61
1, 65422, Note_off_c, 0, 45, 0
1, 65424, Note_off_c, 0, 69, 47
1, 65429, Note_off_c, 0, 57, 53
1, 65457, Note_on_c, 0, 41, 84
1, 65458, Poly_aftertouch_c, 0, 45, 127
1, 65466, Note_on_c, 0, 45, 3
1, 65475, Note_on_c, 0, 48, 82
1, 65492, Note_on_c, 0, 53, 92
1, 65544, Note_on_c, 0, 69, 99
1, 65544, Note_on_c, 0, 57, 105
1, 65550, Note_on_c, 0, 63, 96
1, 65550, Control_c, 0, 64, 84
1, 65565, Control_c, 0, 64, 46
1, 65579, Control_c, 0, 64, 0
1, 65609, Control_c, 0, 64, 51
1, 65622, Note_off_c, 0, 53, 61
1, 65624, Control_c, 0, 64, 127
1, 65639, Note_off_c, 0, 69, 58
1, 65654, Note_off_c, 0, 57, 57
1, 65663, Note_off_c, 0, 48, 62
1, 65676, Note_off_c, 0, 41, 57
1, 65687, Note_off_c, 0, 45, 42
1, 65749, Note_off_c, 0, 63, 61
1, 65755, Note_on_c, 0, 71, 104
1, 65755, Note_on_c, 0, 59, 105
1, 65806, Note_off_c, 0, 59, 63
1, 65812, Note_off_c, 0, 71, 60
1, 65940, Note_on_c, 0, 57, 107
1, 65940, Note_on_c, 0, 69, 105
1, 65975, Note_off_c, 0, 57, 69
1, 65986, Note_on_c, 0, 63, 32
1, 66012, Note_on_c, 0, 28, 104
1, 66012, Note_off_c, 0, 69, 68
1, 66015, Note_off_c, 0, 63, 54
1, 66207, Note_on_c, 0, 40, 96
1, 66282, Note_on_c, 0, 81, 101
1, 66284, Control_c, 0, 64, 70
1, 66292, Note_on_c, 0, 69, 103
1, 66292, Note_on_c, 0, 73, 92
1, 66299, Control_c, 0, 64, 0
1, 66319, Note_off_c, 0, 28, 64
1, 66355, Note_off_c, 0, 40, 66
1, 66373, Control_c, 0, 64, 70
1, 66387, Control_c, 0, 64, 127
1, 66402, Note_off_c, 0, 81, 59
1, 66414, Note_off_c, 0, 69, 59
1, 66534, Note_on_c, 0, 45, 63
1, 66590, Note_on_c, 0, 49, 77
1, 66639, Note_off_c, 0, 45, 54
1, 66647, Note_off_c, 0, 73, 58
1, 66668, Note_on_c, 0, 52, 79
1, 66680, Note_on_c, 0, 80, 101
1, 66684, Note_on_c, 0, 68, 102
1, 66708, Note_off_c, 0, 49, 63
1, 66720, Note_off_c, 0, 80, 71
1, 66721, Note_off_c, 0, 68, 67
1, 66731, Note_off_c, 0, 52, 63
1, 66739, Note_on_c, 0, 57, 86
1, 66809, Note_off_c, 0, 57, 56
1, 66819, Note_on_c, 0, 61, 93
1, 66904, Note_on_c, 0, 78, 103
1, 66906, Note_on_c, 0, 69, 88
1, 66908, Note_on_c, 0, 66, 99
1, 66918, Note_on_c, 0, 60, 83
1, 66919, Note_on_c, 0, 57, 76
1, 66921, Note_off_c, 0, 61, 66
1, 66929, Control_c, 0, 64, 79
1, 66931, Note_on_c, 0, 52, 67
1, 66944, Control_c, 0, 64, 50
1, 66959, Control_c, 0, 64, 0
1, 66989, Control_c, 0, 64, 49
1, 67003, Control_c, 0, 64, 70
1, 67006, Note_off_c, 0, 78, 55
1, 67007, Note_off_c, 0, 66, 63
1, 67018, Control_c, 0, 64, 127
1, 67102, Note_on_c, 0, 61, 83
1, 67106, Note_on_c, 0, 76, 99
1, 67106, Note_off_c, 0, 57, 60
1, 67108, Note_on_c, 0, 64, 105
1, 67112, Note_off_c, 0, 60, 61
1, 67118, Note_off_c, 0, 52, 61
1, 67183, Note_off_c, 0, 76, 60
1, 67191, Note_on_c, 0, 52, 71
1, 67195, Note_off_c, 0, 61, 63
1, 67198, Note_on_c, 0, 56, 81
1, 67219, Note_off_c, 0, 64, 59
1, 67326, Note_on_c, 0, 74, 100
1, 67329, Control_c, 0, 64, 88
1, 67336, Note_on_c, 0, 62, 91
1, 67336, Note_on_c, 0, 71, 82
1, 67344, Control_c, 0, 64, 57
1, 67348, Note_on_c, 0, 66, 93
1, 67359, Control_c, 0, 64, 0
1, 67367, Note_off_c, 0, 69, 59
1, 67410, Control_c, 0, 64, 36
1, 67416, Note_off_c, 0, 62, 61
1, 67425, Control_c, 0, 64, 63
1, 67440, Control_c, 0, 64, 88
1, 67452, Note_off_c, 0, 66, 62
1, 67455, Control_c, 0, 64, 127
1, 67460, Note_off_c, 0, 74, 60
1, 67466, Note_off_c, 0, 71, 58
1, 67479, Note_off_c, 0, 52, 36
1, 67565, Note_off_c, 0, 56, 56
1, 67649, Note_on_c, 0, 73, 94
1, 67665, Note_on_c, 0, 61, 79
1, 67665, Note_on_c, 0, 64, 76
1, 67668, Note_on_c, 0, 57, 64
1, 67689, Note_off_c, 0, 61, 70
1, 67711, Note_off_c, 0, 73, 70
1, 67775, Note_off_c, 0, 64, 62
1, 67784, Note_off_c, 0, 57, 62
1, 67973, Note_on_c, 0, 57, 51
1, 67980, Note_on_c, 0, 54, 50
1, 67982, Poly_aftertouch_c, 0, 70, 127
1, 68018, Poly_aftertouch_c, 0, 70, 0
1, 68091, Note_on_c, 0, 63, 46
1, 68101, Note_on_c, 0, 73, 79
1, 68121, Note_on_c, 0, 61, 58
1, 68136, Control_c, 0, 64, 86
1, 68158, Control_c, 0, 64, 59
1, 68173, Control_c, 0, 64, 0
1, 68262, Control_c, 0, 64, 48
1, 68277, Control_c, 0, 64, 64
1, 68291, Control_c, 0, 64, 72
1, 68302, Note_off_c, 0, 63, 61
1, 68306, Control_c, 0, 64, 81
1, 68321, Control_c, 0, 64, 91
1, 68325, Note_off_c, 0, 61, 58
1, 68336, Control_c, 0, 64, 104
1, 68351, Control_c, 0, 64, 127
1, 68352, Note_off_c, 0, 73, 56
1, 68504, Note_on_c, 0, 71, 74
1, 68510, Note_off_c, 0, 57, 39
1, 68518, Note_on_c, 0, 59, 41
1, 68545, Note_off_c, 0, 71, 58
1, 68548, Note_off_c, 0, 59, 53
1, 68590, Note_on_c, 0, 73, 85
1, 68599, Note_on_c, 0, 61, 77
1, 68639, Note_off_c, 0, 61, 58
1, 68695, Note_off_c, 0, 73, 57
1, 68892, Note_on_c, 0, 71, 85
1, 68905, Note_on_c, 0, 59, 68
1, 68923, Note_off_c, 0, 59, 67
1, 68935, Note_off_c, 0, 71, 60
1, 68984, Note_on_c, 0, 73, 103
1, 68991, Note_on_c, 0, 61, 89
1, 69020, Note_off_c, 0, 61, 64
1, 69064, Note_off_c, 0, 73, 57
1, 69131, Note_off_c, 0, 54, 55
1, 69269, Note_on_c, 0, 71, 84
1, 69282, Note_on_c, 0, 59, 75
1, 69297, Note_off_c, 0, 59, 70
1, 69315, Note_off_c, 0, 71, 64
1, 69354, Note_on_c, 0, 73, 93
1, 69371, Note_on_c, 0, 61, 74
1, 69377, Note_on_c, 0, 64, 69
1, 69378, Note_on_c, 0, 62, 66
1, 69383, Note_on_c, 0, 56, 60
1, 69412, Control_c, 0, 64, 78
1, 69427, Control_c, 0, 64, 53
1, 69442, Control_c, 0, 64, 0
1, 69486, Control_c, 0, 64, 42
1, 69501, Control_c, 0, 64, 61
1, 69516, Control_c, 0, 64, 76
1, 69530, Control_c, 0, 64, 100
1, 69544, Note_off_c, 0, 61, 61
1, 69545, Control_c, 0, 64, 127
1, 69567, Note_off_c, 0, 73, 60
1, 69687, Note_on_c, 0, 71, 70
1, 69707, Note_on_c, 0, 59, 42
1, 69736, Note_off_c, 0, 59, 53
1, 69740, Note_off_c, 0, 71, 59
1, 69774, Note_on_c, 0, 73, 74
1, 69780, Note_on_c, 0, 61, 69
1, 69790, Control_c, 0, 64, 87
1, 69804, Control_c, 0, 64, 63
1, 69819, Control_c, 0, 64, 40
1, 69834, Control_c, 0, 64, 38
1, 69841, Note_off_c, 0, 61, 50
1, 69848, Control_c, 0, 64, 50
1, 69863, Control_c, 0, 64, 64
1, 69878, Control_c, 0, 64, 77
1, 69893, Control_c, 0, 64, 112
1, 69908, Control_c, 0, 64, 127
1, 69941, Note_off_c, 0, 73, 58
1, 70101, Note_on_c, 0, 71, 66
1, 70112, Note_on_c, 0, 59, 46
1, 70141, Note_off_c, 0, 59, 54
1, 70161, Note_off_c, 0, 71, 60
1, 70205, Control_c, 0, 64, 91
1, 70209, Note_on_c, 0, 73, 70
1, 70220, Control_c, 0, 64, 67
1, 70234, Control_c, 0, 64, 50
1, 70236, Note_on_c, 0, 61, 45
1, 70249, Control_c, 0, 64, 47
1, 70264, Control_c, 0, 64, 53
1, 70278, Control_c, 0, 64, 62
1, 70291, Note_off_c, 0, 61, 57
1, 70293, Control_c, 0, 64, 74
1, 70308, Control_c, 0, 64, 93
1, 70315, Note_off_c, 0, 64, 62
1, 70323, Control_c, 0, 64, 127
1, 70343, Note_off_c, 0, 62, 59
1, 70353, Note_off_c, 0, 73, 62
1, 70362, Note_off_c, 0, 56, 59
1, 70552, Control_c, 0, 67, 42
1, 70567, Control_c, 0, 67, 48
1, 70582, Control_c, 0, 67, 51
1, 70597, Control_c, 0, 67, 54
1, 70612, Control_c, 0, 67, 58
1, 70626, Control_c, 0, 67, 64
1, 70641, Control_c, 0, 67, 74
1, 70656, Control_c, 0, 67, 91
1, 70671, Control_c, 0, 67, 112
1, 70686, Control_c, 0, 67, 127
1, 70687, Note_on_c, 0, 71, 55
1, 70712, Note_on_c, 0, 59, 41
1, 70742, Note_off_c, 0, 59, 55
1, 71126, Note_off_c, 0, 71, 59
1, 71133, Note_on_c, 0, 74, 60
1, 71163, Note_on_c, 0, 62, 37
1, 71172, Note_on_c, 0, 57, 32
1, 71177, Note_on_c, 0, 65, 28
1, 71257, Control_c, 0, 64, 95
1, 71272, Control_c, 0, 64, 74
1, 71287, Control_c, 0, 64, 55
1, 71301, Control_c, 0, 64, 0
1, 71405, Control_c, 0, 64, 30
1, 71420, Control_c, 0, 64, 47
1, 71434, Control_c, 0, 64, 59
1, 71449, Control_c, 0, 64, 65
1, 71464, Control_c, 0, 64, 69
1, 71465, Note_off_c, 0, 62, 59
1, 71479, Control_c, 0, 64, 74
1, 71494, Control_c, 0, 64, 81
1, 71509, Control_c, 0, 64, 93
1, 71524, Control_c, 0, 64, 127
1, 71655, Note_off_c, 0, 74, 31
1, 71710, Note_on_c, 0, 72, 44
1, 71726, Note_on_c, 0, 60, 27
1, 71764, Note_off_c, 0, 60, 53
1, 71800, Note_off_c, 0, 72, 52
1, 71843, Note_on_c, 0, 74, 62
1, 71849, Note_on_c, 0, 62, 56
1, 71898, Note_off_c, 0, 62, 60
1, 72133, Note_off_c, 0, 74, 28
1, 72214, Note_on_c, 0, 60, 63
1, 72225, Note_on_c, 0, 72, 59
1, 72245, Note_off_c, 0, 60, 66
1, 72269, Note_off_c, 0, 72, 55
1, 72318, Note_off_c, 0, 65, 41
1, 72321, Note_on_c, 0, 74, 77
1, 72323, Note_on_c, 0, 62, 68
1, 72351, Note_off_c, 0, 57, 54
1, 72368, Note_off_c, 0, 62, 59
1, 72392, Control_c, 0, 67, 110
1, 72406, Control_c, 0, 67, 0
1, 72507, Note_off_c, 0, 74, 33
1, 72636, Note_on_c, 0, 72, 72
1, 72650, Note_on_c, 0, 60, 66
1, 72679, Note_off_c, 0, 60, 68
1, 72710, Note_off_c, 0, 72, 54
1, 72726, Note_on_c, 0, 74, 92
1, 72730, Note_on_c, 0, 67, 78
1, 72737, Note_on_c, 0, 62, 74
1, 72740, Note_on_c, 0, 64, 59
1, 72744, Note_on_c, 0, 58, 60
1, 72770, Control_c, 0, 64, 79
1, 72785, Control_c, 0, 64, 57
1, 72800, Control_c, 0, 64, 34
1, 72815, Control_c, 0, 64, 39
1, 72829, Control_c, 0, 64, 56
1, 72844, Control_c, 0, 64, 71
1, 72859, Control_c, 0, 64, 127
1, 72868, Note_off_c, 0, 67, 59
1, 72890, Note_off_c, 0, 74, 57
1, 72915, Note_off_c, 0, 62, 54
1, 72930, Note_off_c, 0, 64, 63
1, 73048, Note_on_c, 0, 60, 75
1, 73051, Note_on_c, 0, 72, 79
1, 73071, Note_off_c, 0, 60, 70
1, 73071, Note_off_c, 0, 72, 68
1, 73141, Note_on_c, 0, 74, 97
1, 73142, Note_on_c, 0, 62, 93
1, 73183, Note_off_c, 0, 62, 63
1, 73197, Note_off_c, 0, 74, 62
1, 73403, Note_off_c, 0, 58, 30
1, 73425, Note_on_c, 0, 60, 101
1, 73426, Note_on_c, 0, 72, 101
1, 73459, Note_off_c, 0, 60, 68
1, 73464, Note_off_c, 0, 72, 62
1, 73567, Note_on_c, 0, 74, 110
1, 73568, Note_on_c, 0, 62, 109
1, 73603, Note_off_c, 0, 62, 66
1, 73608, Note_off_c, 0, 74, 63
1, 73893, Note_on_c, 0, 60, 105
1, 73894, Note_on_c, 0, 72, 102
1, 73932, Note_off_c, 0, 60, 72
1, 73987, Note_off_c, 0, 72, 71
1, 74244, Note_on_c, 0, 33, 98
1, 74295, Note_on_c, 0, 86, 104
1, 74296, Note_on_c, 0, 74, 114
1, 74296, Note_on_c, 0, 77, 104
1, 74303, Note_on_c, 0, 81, 90
1, 74341, Control_c, 0, 64, 99
1, 74356, Control_c, 0, 64, 60
1, 74371, Control_c, 0, 64, 0
1, 74423, Note_on_c, 0, 36, 71
1, 74430, Control_c, 0, 64, 61
1, 74445, Control_c, 0, 64, 127
1, 74463, Note_off_c, 0, 33, 55
1, 74482, Note_off_c, 0, 86, 56
1, 74495, Note_on_c, 0, 41, 72
1, 74502, Note_off_c, 0, 74, 56
1, 74506, Note_off_c, 0, 36, 61
1, 74534, Note_off_c, 0, 77, 48
1, 74543, Note_off_c, 0, 41, 63
1, 74555, Note_off_c, 0, 81, 58
1, 74558, Note_on_c, 0, 45, 67
1, 74586, Note_off_c, 0, 45, 65
1, 74652, Note_on_c, 0, 48, 67
1, 74709, Note_on_c, 0, 53, 64
1, 74711, Note_off_c, 0, 48, 61
1, 74728, Note_on_c, 0, 84, 100
1, 74731, Note_on_c, 0, 72, 106
1, 74731, Note_on_c, 0, 77, 96
1, 74735, Note_on_c, 0, 81, 93
1, 74762, Note_off_c, 0, 53, 62
1, 74764, Note_on_c, 0, 57, 71
1, 74779, Note_off_c, 0, 72, 62
1, 74785, Note_off_c, 0, 81, 62
1, 74789, Note_off_c, 0, 57, 66
1, 74794, Note_off_c, 0, 77, 64
1, 74799, Note_off_c, 0, 84, 64
1, 74847, Note_on_c, 0, 60, 66
1, 74874, Note_on_c, 0, 65, 83
1, 74876, Note_off_c, 0, 60, 69
1, 74912, Note_off_c, 0, 65, 0
1, 74934, Note_on_c, 0, 69, 102
1, 74936, Poly_aftertouch_c, 0, 65, 0
1, 74976, Note_off_c, 0, 69, 68
1, 75041, Note_on_c, 0, 82, 98
1, 75044, Note_on_c, 0, 70, 95
1, 75079, Note_off_c, 0, 70, 67
1, 75089, Note_off_c, 0, 82, 63
1, 75156, Note_on_c, 0, 81, 103
1, 75157, Note_on_c, 0, 69, 107
1, 75202, Note_off_c, 0, 69, 62
1, 75215, Note_off_c, 0, 81, 61
1, 75302, Note_on_c, 0, 79, 96
1, 75305, Note_on_c, 0, 67, 106
1, 75306, Note_on_c, 0, 45, 97
1, 75308, Note_on_c, 0, 72, 98
1, 75312, Note_on_c, 0, 36, 81
1, 75314, Note_on_c, 0, 33, 89
1, 75342, Control_c, 0, 64, 66
1, 75357, Control_c, 0, 64, 0
1, 75402, Control_c, 0, 64, 68
1, 75414, Note_off_c, 0, 79, 59
1, 75416, Control_c, 0, 64, 127
1, 75429, Note_off_c, 0, 67, 51
1, 75479, Note_off_c, 0, 72, 65
1, 75512, Note_on_c, 0, 65, 104
1, 75514, Note_on_c, 0, 77, 104
1, 75556, Note_off_c, 0, 65, 70
1, 75556, Note_off_c, 0, 77, 70
1, 75683, Note_off_c, 0, 36, 61
1, 75694, Note_off_c, 0, 33, 62
1, 75792, Note_on_c, 0, 64, 115
1, 75795, Note_on_c, 0, 76, 109
1, 75813, Note_on_c, 0, 70, 68
1, 75813, Note_off_c, 0, 70, 127
1, 75817, Note_off_c, 0, 76, 69
1, 75819, Note_off_c, 0, 64, 71
1, 75820, Note_on_c, 0, 73, 60
1, 75820, Note_off_c, 0, 73, 127
1, 75831, Note_off_c, 0, 45, 54
1, 75884, Note_on_c, 0, 70, 98
1, 75884, Note_on_c, 0, 76, 105
1, 75888, Note_on_c, 0, 65, 96
1, 75890, Note_on_c, 0, 64, 100
1, 75893, Note_on_c, 0, 34, 84
1, 75914, Control_c, 0, 64, 110
1, 75929, Control_c, 0, 64, 64
1, 75944, Control_c, 0, 64, 0
1, 75956, Note_off_c, 0, 34, 65
1, 75958, Note_on_c, 0, 29, 80
1, 76009, Note_on_c, 0, 34, 73
1, 76017, Control_c, 0, 64, 54
1, 76032, Control_c, 0, 64, 127
1, 76047, Note_off_c, 0, 29, 60
1, 76059, Note_on_c, 0, 38, 70
1, 76090, Note_off_c, 0, 34, 62
1, 76111, Note_off_c, 0, 38, 61
1, 76120, Note_on_c, 0, 41, 75
1, 76132, Note_off_c, 0, 76, 58
1, 76133, Note_off_c, 0, 65, 58
1, 76140, Note_off_c, 0, 64, 61
1, 76147, Note_off_c, 0, 41, 67
1, 76220, Note_on_c, 0, 46, 67
1, 76260, Note_on_c, 0, 50, 65
1, 76265, Note_off_c, 0, 46, 58
1, 76296, Note_off_c, 0, 50, 64
1, 76308, Note_off_c, 0, 70, 59
1, 76322, Note_on_c, 0, 74, 89
1, 76323, Note_on_c, 0, 62, 91
1, 76334, Note_on_c, 0, 53, 70
1, 76358, Note_off_c, 0, 53, 66
1, 76374, Note_off_c, 0, 62, 63
1, 76379, Note_off_c, 0, 74, 62
1, 76417, Note_on_c, 0, 58, 79
1, 76465, Note_off_c, 0, 58, 65
1, 76475, Note_on_c, 0, 62, 95
1, 76530, Note_off_c, 0, 62, 65
1, 76570, Note_on_c, 0, 73, 91
1, 76572, Note_on_c, 0, 61, 94
1, 76615, Note_off_c, 0, 61, 67
1, 76621, Note_off_c, 0, 73, 64
1, 76637, Note_on_c, 0, 45, 83
1, 76667, Note_on_c, 0, 50, 83
1, 76668, Note_on_c, 0, 62, 96
1, 76669, Note_on_c, 0, 74, 104
1, 76696, Note_on_c, 0, 54, 87
1, 76715, Note_off_c, 0, 74, 67
1, 76719, Note_off_c, 0, 62, 60
1, 76725, Note_off_c, 0, 45, 60
1, 76737, Control_c, 0, 64, 92
1, 76752, Control_c, 0, 64, 55
1, 76767, Control_c, 0, 64, 0
1, 76779, Note_on_c, 0, 60, 108
1, 76782, Note_on_c, 0, 72, 56
1, 76782, Note_on_c, 0, 75, 94
1, 76782, Control_c, 0, 64, 29
1, 76782, Note_on_c, 0, 63, 113
1, 76785, Note_on_c, 0, 66, 95
1, 76796, Control_c, 0, 64, 59
1, 76811, Control_c, 0, 64, 104
1, 76826, Control_c, 0, 64, 127
1, 76852, Note_off_c, 0, 75, 65
1, 76859, Note_off_c, 0, 63, 67
1, 76887, Note_off_c, 0, 72, 62
1, 76893, Note_off_c, 0, 66, 63
1, 76932, Note_on_c, 0, 74, 95
1, 76933, Note_on_c, 0, 62, 97
1, 76964, Note_off_c, 0, 74, 70
1, 76967, Note_off_c, 0, 62, 67
1, 76994, Note_off_c, 0, 60, 61
1, 77022, Note_on_c, 0, 73, 71
1, 77032, Note_on_c, 0, 61, 106
1, 77044, Note_off_c, 0, 54, 59
1, 77052, Note_off_c, 0, 50, 63
1, 77063, Note_off_c, 0, 61, 70
1, 77080, Note_off_c, 0, 73, 64
1, 77111, Note_on_c, 0, 74, 91
1, 77113, Note_on_c, 0, 62, 96
1, 77128, Note_on_c, 0, 73, 56
1, 77148, Note_off_c, 0, 62, 68
1, 77161, Note_off_c, 0, 73, 64
1, 77169, Note_off_c, 0, 74, 70
1, 77223, Note_on_c, 0, 31, 99
1, 77284, Poly_aftertouch_c, 0, 34, 127
1, 77306, Note_on_c, 0, 87, 104
1, 77308, Note_on_c, 0, 75, 126
1, 77312, Note_on_c, 0, 82, 94
1, 77323, Control_c, 0, 64, 86
1, 77325, Note_on_c, 0, 79, 72
1, 77333, Note_on_c, 0, 78, 52
1, 77336, Poly_aftertouch_c, 0, 34, 0
1, 77337, Note_off_c, 0, 78, 49
1, 77338, Control_c, 0, 64, 30
1, 77352, Control_c, 0, 64, 0
1, 77372, Note_on_c, 0, 34, 68
1, 77397, Control_c, 0, 64, 47
1, 77412, Control_c, 0, 64, 127
1, 77423, Note_off_c, 0, 31, 64
1, 77429, Note_on_c, 0, 38, 66
1, 77438, Note_off_c, 0, 34, 63
1, 77456, Note_off_c, 0, 38, 61
1, 77458, Note_on_c, 0, 43, 74
1, 77485, Note_off_c, 0, 43, 65
1, 77545, Note_off_c, 0, 75, 50
1, 77545, Note_on_c, 0, 46, 70
1, 77560, Note_off_c, 0, 87, 60
1, 77598, Note_on_c, 0, 50, 69
1, 77604, Note_off_c, 0, 82, 48
1, 77607, Note_off_c, 0, 46, 60
1, 77628, Note_off_c, 0, 79, 33
1, 77636, Note_off_c, 0, 50, 62
1, 77666, Note_on_c, 0, 55, 67
1, 77691, Note_off_c, 0, 55, 66
1, 77694, Note_on_c, 0, 86, 101
1, 77694, Note_on_c, 0, 74, 108
1, 77699, Note_on_c, 0, 79, 86
1, 77706, Note_on_c, 0, 82, 87
1, 77741, Note_on_c, 0, 58, 76
1, 77792, Note_on_c, 0, 62, 67
1, 77795, Note_off_c, 0, 58, 62
1, 77819, Note_off_c, 0, 62, 65
1, 77851, Note_on_c, 0, 67, 79
1, 77897, Note_off_c, 0, 86, 54
1, 77903, Note_off_c, 0, 74, 53
1, 77909, Note_on_c, 0, 70, 103
1, 77917, Note_off_c, 0, 67, 66
1, 77935, Note_off_c, 0, 79, 60
1, 77941, Note_off_c, 0, 70, 69
1, 77962, Note_off_c, 0, 82, 59
1, 78019, Poly_aftertouch_c, 0, 68, 0
1, 78028, Note_on_c, 0, 86, 98
1, 78031, Note_on_c, 0, 74, 96
1, 78057, Note_off_c, 0, 74, 67
1, 78064, Note_off_c, 0, 86, 68
1, 78136, Poly_aftertouch_c, 0, 80, 0
1, 78137, Note_on_c, 0, 85, 85
1, 78144, Poly_aftertouch_c, 0, 80, 0
1, 78145, Note_on_c, 0, 73, 90
1, 78162, Note_off_c, 0, 73, 74
1, 78180, Note_off_c, 0, 85, 64
1, 78230, Note_on_c, 0, 86, 96
1, 78234, Note_on_c, 0, 74, 92
1, 78252, Note_off_c, 0, 74, 70
1, 78260, Note_off_c, 0, 86, 63
1, 78319, Note_on_c, 0, 84, 102
1, 78324, Note_on_c, 0, 72, 89
1, 78343, Note_off_c, 0, 72, 71
1, 78343, Note_off_c, 0, 84, 65
1, 78393, Note_on_c, 0, 82, 82
1, 78400, Note_on_c, 0, 70, 93
1, 78421, Note_off_c, 0, 70, 67
1, 78432, Note_on_c, 0, 34, 90
1, 78433, Note_off_c, 0, 82, 65
1, 78451, Note_on_c, 0, 38, 81
1, 78466, Note_on_c, 0, 46, 98
1, 78472, Control_c, 0, 64, 69
1, 78474, Note_on_c, 0, 81, 104
1, 78475, Note_on_c, 0, 69, 105
1, 78481, Note_on_c, 0, 74, 94
1, 78486, Control_c, 0, 64, 44
1, 78501, Control_c, 0, 64, 56
1, 78508, Note_off_c, 0, 81, 70
1, 78511, Note_off_c, 0, 69, 65
1, 78516, Control_c, 0, 64, 72
1, 78517, Note_off_c, 0, 74, 55
1, 78531, Control_c, 0, 64, 127
1, 78569, Note_on_c, 0, 79, 95
1, 78571, Note_on_c, 0, 67, 99
1, 78596, Note_off_c, 0, 67, 67
1, 78597, Note_off_c, 0, 79, 72
1, 78613, Note_on_c, 0, 73, 27
1, 78660, Note_on_c, 0, 78, 93
1, 78664, Note_on_c, 0, 66, 95
1, 78666, Note_off_c, 0, 73, 44
1, 78681, Note_off_c, 0, 66, 75
1, 78700, Note_off_c, 0, 78, 61
1, 78739, Note_on_c, 0, 67, 97
1, 78740, Note_on_c, 0, 79, 91
1, 78762, Note_off_c, 0, 67, 64
1, 78773, Note_off_c, 0, 79, 65
1, 78785, Note_off_c, 0, 46, 57
1, 78797, Note_off_c, 0, 38, 61
1, 78829, Note_off_c, 0, 34, 61
1, 78830, Note_on_c, 0, 81, 104
1, 78831, Note_on_c, 0, 69, 100
1, 78858, Note_off_c, 0, 69, 70
1, 78863, Note_off_c, 0, 81, 67
1, 78924, Note_on_c, 0, 79, 99
1, 78925, Note_on_c, 0, 67, 108
1, 78958, Note_off_c, 0, 67, 67
1, 78965, Note_off_c, 0, 79, 62
1, 79062, Note_on_c, 0, 36, 79
1, 79064, Note_on_c, 0, 77, 106
1, 79068, Note_on_c, 0, 65, 104
1, 79070, Note_on_c, 0, 67, 104
1, 79073, Note_on_c, 0, 70, 92
1, 79087, Control_c, 0, 64, 66
1, 79102, Control_c, 0, 64, 0
1, 79119, Note_on_c, 0, 31, 80
1, 79119, Note_off_c, 0, 36, 64
1, 79131, Control_c, 0, 64, 32
1, 79146, Control_c, 0, 64, 75
1, 79152, Poly_aftertouch_c, 0, 73, 0
1, 79160, Note_on_c, 0, 36, 63
1, 79161, Control_c, 0, 64, 127
1, 79175, Note_off_c, 0, 77, 60
1, 79175, Note_off_c, 0, 70, 65
1, 79193, Note_on_c, 0, 40, 77
1, 79199, Note_off_c, 0, 67, 49
1, 79203, Note_off_c, 0, 31, 59
1, 79214, Note_off_c, 0, 65, 56
1, 79225, Note_off_c, 0, 36, 62
1, 79241, Note_off_c, 0, 40, 62
1, 79253, Note_on_c, 0, 43, 71
1, 79278, Note_off_c, 0, 43, 61
1, 79329, Note_on_c, 0, 48, 80
1, 79375, Note_on_c, 0, 52, 78
1, 79394, Note_off_c, 0, 48, 62
1, 79414, Note_off_c, 0, 52, 65
1, 79424, Note_on_c, 0, 76, 89
1, 79427, Note_on_c, 0, 64, 92
1, 79432, Note_on_c, 0, 67, 87
1, 79438, Note_on_c, 0, 70, 80
1, 79442, Note_on_c, 0, 55, 71
1, 79465, Note_off_c, 0, 55, 60
1, 79466, Note_off_c, 0, 64, 65
1, 79485, Note_off_c, 0, 76, 62
1, 79489, Note_off_c, 0, 67, 64
1, 79506, Note_on_c, 0, 60, 80
1, 79507, Note_off_c, 0, 70, 63
1, 79549, Note_on_c, 0, 64, 78
1, 79549, Note_off_c, 0, 60, 66
1, 79591, Note_off_c, 0, 64, 66
1, 79593, Note_on_c, 0, 67, 104
1, 79626, Note_off_c, 0, 67, 73
1, 79728, Note_on_c, 0, 77, 88
1, 79730, Note_on_c, 0, 65, 86
1, 79747, Note_off_c, 0, 77, 64
1, 79751, Note_off_c, 0, 65, 71
1, 79844, Note_on_c, 0, 64, 88
1, 79849, Note_on_c, 0, 76, 82
1, 79864, Note_off_c, 0, 64, 73
1, 79865, Note_on_c, 0, 70, 47
1, 79865, Note_off_c, 0, 76, 74
1, 79888, Note_off_c, 0, 70, 63
1, 79938, Note_on_c, 0, 77, 95
1, 79939, Note_on_c, 0, 65, 88
1, 79960, Note_off_c, 0, 65, 67
1, 79968, Note_off_c, 0, 77, 63
1, 80034, Note_on_c, 0, 67, 81
1, 80034, Note_on_c, 0, 79, 75
1, 80054, Note_off_c, 0, 79, 71
1, 80059, Note_off_c, 0, 67, 69
1, 80073, Control_c, 0, 64, 93
1, 80088, Control_c, 0, 64, 75
1, 80102, Note_on_c, 0, 81, 96
1, 80102, Control_c, 0, 64, 81
1, 80103, Note_on_c, 0, 69, 89
1, 80117, Control_c, 0, 64, 127
1, 80136, Note_on_c, 0, 75, 57
1, 80140, Note_off_c, 0, 69, 62
1, 80145, Note_off_c, 0, 81, 68
1, 80156, Note_off_c, 0, 75, 61
1, 80177, Note_on_c, 0, 55, 91
1, 80181, Note_on_c, 0, 43, 75
1, 80185, Note_on_c, 0, 50, 76
1, 80186, Note_on_c, 0, 46, 71
1, 80196, Note_off_c, 0, 55, 70
1, 80207, Note_off_c, 0, 50, 67
1, 80210, Note_off_c, 0, 43, 64
1, 80211, Note_off_c, 0, 46, 65
1, 80213, Note_on_c, 0, 82, 63
1, 80232, Note_on_c, 0, 71, 41
1, 80232, Note_off_c, 0, 82, 41
1, 80258, Note_off_c, 0, 71, 55
1, 80280, Note_on_c, 0, 84, 89
1, 80283, Note_on_c, 0, 72, 91
1, 80301, Note_on_c, 0, 80, 65
1, 80305, Note_off_c, 0, 72, 66
1, 80307, Note_on_c, 0, 82, 47
1, 80307, Note_off_c, 0, 82, 127
1, 80317, Note_off_c, 0, 84, 65
1, 80325, Note_off_c, 0, 80, 65
1, 80359, Note_on_c, 0, 50, 94
1, 80366, Note_on_c, 0, 38, 83
1, 80377, Note_on_c, 0, 74, 101
1, 80378, Note_on_c, 0, 86, 92
1, 80379, Note_off_c, 0, 50, 71
1, 80384, Note_on_c, 0, 88, 95
1, 80395, Note_off_c, 0, 38, 66
1, 80400, Note_off_c, 0, 88, 73
1, 80407, Note_on_c, 0, 76, 41
1, 80407, Note_off_c, 0, 76, 127
1, 80407, Note_off_c, 0, 74, 65
1, 80414, Note_off_c, 0, 86, 65
1, 80473, Note_on_c, 0, 76, 102
1, 80473, Note_on_c, 0, 88, 103
1, 80503, Note_off_c, 0, 76, 69
1, 80508, Note_on_c, 0, 82, 26
1, 80514, Note_off_c, 0, 88, 63
1, 80542, Note_off_c, 0, 82, 51
1, 80579, Note_on_c, 0, 46, 102
1, 80581, Note_on_c, 0, 34, 98
1, 80585, Note_on_c, 0, 89, 106
1, 80585, Note_on_c, 0, 77, 108
1, 80593, Note_on_c, 0, 44, 69
1, 80603, Note_on_c, 0, 39, 57
1, 80612, Note_off_c, 0, 46, 61
1, 80614, Note_off_c, 0, 44, 64
1, 80620, Note_off_c, 0, 77, 67
1, 80620, Note_off_c, 0, 89, 70
1, 80624, Note_off_c, 0, 34, 62
1, 80634, Note_off_c, 0, 39, 54
1, 80639, Note_on_c, 0, 33, 14
1, 80642, Note_on_c, 0, 87, 6
1, 80642, Note_off_c, 0, 87, 127
1, 80656, Poly_aftertouch_c, 0, 37, 127
1, 80691, Note_off_c, 0, 33, 50
1, 80700, Poly_aftertouch_c, 0, 37, 0
1, 80707, Note_on_c, 0, 79, 108
1, 80707, Note_on_c, 0, 91, 112
1, 80741, Note_off_c, 0, 79, 70
1, 80744, Note_off_c, 0, 91, 70
1, 80752, Note_on_c, 0, 90, 29
1, 80752, Note_off_c, 0, 90, 127
1, 80896, Note_on_c, 0, 93, 106
1, 80898, Note_on_c, 0, 81, 117
1, 80901, Note_on_c, 0, 85, 102
1, 80901, Control_c, 0, 64, 83
1, 80908, Note_on_c, 0, 45, 108
1, 80913, Note_on_c, 0, 33, 94
1, 80915, Note_on_c, 0, 90, 66
1, 80916, Control_c, 0, 64, 0
1, 80931, Note_off_c, 0, 90, 63
1, 80961, Control_c, 0, 64, 44
1, 80969, Note_off_c, 0, 33, 63
1, 80976, Control_c, 0, 64, 127
1, 80992, Note_off_c, 0, 45, 61
1, 81055, Note_off_c, 0, 85, 59
1, 81071, Note_off_c, 0, 81, 51
1, 81075, Note_on_c, 0, 47, 92
1, 81080, Note_off_c, 0, 93, 54
1, 81081, Note_on_c, 0, 35, 71
1, 81105, Note_off_c, 0, 47, 65
1, 81107, Note_on_c, 0, 86, 88
1, 81107, Note_off_c, 0, 35, 65
1, 81175, Note_off_c, 0, 86, 66
1, 81204, Note_on_c, 0, 49, 95
1, 81217, Note_on_c, 0, 37, 75
1, 81220, Note_on_c, 0, 79, 104
1, 81223, Note_on_c, 0, 91, 104
1, 81225, Note_on_c, 0, 88, 102
1, 81232, Note_on_c, 0, 50, 58
1, 81253, Note_off_c, 0, 37, 67
1, 81255, Note_off_c, 0, 50, 61
1, 81261, Note_off_c, 0, 49, 64
1, 81282, Note_on_c, 0, 39, 3
1, 81291, Note_off_c, 0, 39, 0
1, 81294, Note_off_c, 0, 91, 64
1, 81295, Note_off_c, 0, 79, 66
1, 81313, Note_off_c, 0, 88, 65
1, 81328, Poly_aftertouch_c, 0, 39, 0
1, 81340, Note_on_c, 0, 38, 84
1, 81354, Note_on_c, 0, 50, 82
1, 81383, Note_on_c, 0, 41, 64
1, 81392, Control_c, 0, 64, 82
1, 81403, Note_on_c, 0, 91, 113
1, 81406, Note_on_c, 0, 81, 109
1, 81407, Control_c, 0, 64, 41
1, 81408, Note_on_c, 0, 79, 103
1, 81408, Note_on_c, 0, 86, 100
1, 81422, Control_c, 0, 64, 0
1, 81426, Note_off_c, 0, 50, 63
1, 81436, Control_c, 0, 64, 38
1, 81437, Note_on_c, 0, 45, 80
1, 81451, Control_c, 0, 64, 86
1, 81455, Note_off_c, 0, 38, 61
1, 81466, Control_c, 0, 64, 127
1, 81467, Note_off_c, 0, 41, 66
1, 81480, Note_on_c, 0, 43, 11
1, 81489, Note_off_c, 0, 45, 64
1, 81490, Note_on_c, 0, 50, 63
1, 81491, Note_off_c, 0, 91, 62
1, 81506, Note_off_c, 0, 81, 56
1, 81506, Note_off_c, 0, 86, 66
1, 81511, Note_off_c, 0, 50, 67
1, 81515, Note_off_c, 0, 79, 56
1, 81524, Note_off_c, 0, 43, 38
1, 81571, Note_on_c, 0, 53, 78
1, 81597, Note_on_c, 0, 57, 73
1, 81620, Note_on_c, 0, 62, 78
1, 81650, Note_off_c, 0, 53, 61
1, 81663, Note_on_c, 0, 65, 88
1, 81685, Note_off_c, 0, 65, 65
1, 81697, Note_off_c, 0, 62, 63
1, 81698, Note_on_c, 0, 77, 105
1, 81698, Note_on_c, 0, 89, 103
1, 81712, Note_off_c, 0, 57, 67
1, 81758, Note_off_c, 0, 77, 64
1, 81758, Note_off_c, 0, 89, 63
1, 81825, Note_on_c, 0, 49, 100
1, 81826, Note_on_c, 0, 81, 103
1, 81826, Note_on_c, 0, 89, 107
1, 81828, Note_on_c, 0, 77, 113
1, 81832, Note_on_c, 0, 37, 97
1, 81843, Control_c, 0, 64, 81
1, 81858, Control_c, 0, 64, 61
1, 81867, Note_on_c, 0, 39, 43
1, 81867, Note_off_c, 0, 37, 64
1, 81873, Note_off_c, 0, 49, 65
1, 81873, Control_c, 0, 64, 61
1, 81878, Note_on_c, 0, 42, 14
1, 81888, Control_c, 0, 64, 77
1, 81903, Control_c, 0, 64, 127
1, 81906, Note_off_c, 0, 89, 62
1, 81908, Note_off_c, 0, 39, 31
1, 81924, Note_off_c, 0, 81, 60
1, 81932, Note_off_c, 0, 42, 47
1, 81945, Note_on_c, 0, 50, 102
1, 81947, Note_on_c, 0, 83, 108
1, 81949, Note_on_c, 0, 38, 98
1, 81961, Note_off_c, 0, 77, 61
1, 81963, Note_on_c, 0, 81, 56
1, 81982, Note_off_c, 0, 81, 65
1, 81986, Note_off_c, 0, 38, 65
1, 81991, Note_off_c, 0, 50, 66
1, 82015, Note_off_c, 0, 83, 68
1, 82065, Note_on_c, 0, 76, 115
1, 82066, Note_on_c, 0, 52, 104
1, 82066, Note_on_c, 0, 85, 99
1, 82067, Note_on_c, 0, 88, 106
1, 82072, Note_on_c, 0, 40, 94
1, 82088, Note_on_c, 0, 41, 76
1, 82113, Note_off_c, 0, 41, 39
1, 82116, Note_off_c, 0, 40, 63
1, 82132, Note_off_c, 0, 52, 59
1, 82132, Note_off_c, 0, 76, 63
1, 82134, Note_off_c, 0, 88, 64
1, 82153, Note_off_c, 0, 85, 64
1, 82224, Note_on_c, 0, 41, 92
1, 82228, Note_on_c, 0, 53, 93
1, 82259, Control_c, 0, 64, 83
1, 82274, Control_c, 0, 64, 41
1, 82275, Note_on_c, 0, 88, 97
1, 82276, Note_on_c, 0, 76, 113
1, 82281, Note_on_c, 0, 81, 96
1, 82286, Note_on_c, 0, 85, 91
1, 82289, Control_c, 0, 64, 0
1, 82305, Note_on_c, 0, 45, 73
1, 82308, Note_off_c, 0, 53, 62
1, 82333, Control_c, 0, 64, 44
1, 82348, Control_c, 0, 64, 127
1, 82358, Note_on_c, 0, 50, 67
1, 82365, Note_on_c, 0, 52, 54
1, 82381, Note_off_c, 0, 41, 37
1, 82382, Note_off_c, 0, 45, 62
1, 82399, Note_off_c, 0, 52, 59
1, 82401, Note_off_c, 0, 50, 66
1, 82407, Note_on_c, 0, 53, 77
1, 82407, Note_off_c, 0, 88, 61
1, 82419, Note_off_c, 0, 76, 53
1, 82428, Note_off_c, 0, 53, 70
1, 82483, Note_on_c, 0, 57, 59
1, 82491, Note_off_c, 0, 85, 63
1, 82502, Note_on_c, 0, 62, 74
1, 82517, Note_off_c, 0, 81, 62
1, 82535, Note_off_c, 0, 57, 52
1, 82541, Note_on_c, 0, 65, 79
1, 82542, Note_on_c, 0, 74, 114
1, 82544, Note_on_c, 0, 86, 107
1, 82549, Note_off_c, 0, 62, 64
1, 82564, Note_off_c, 0, 65, 70
1, 82639, Note_off_c, 0, 74, 59
1, 82640, Note_off_c, 0, 86, 62
1, 82677, Note_on_c, 0, 42, 78
1, 82696, Control_c, 0, 64, 76
1, 82698, Note_on_c, 0, 86, 104
1, 82701, Note_on_c, 0, 74, 110
1, 82702, Note_on_c, 0, 81, 96
1, 82711, Control_c, 0, 64, 50
1, 82720, Note_on_c, 0, 45, 70
1, 82726, Control_c, 0, 64, 46
1, 82741, Control_c, 0, 64, 64
1, 82747, Note_off_c, 0, 42, 64
1, 82755, Control_c, 0, 64, 127
1, 82757, Note_off_c, 0, 45, 65
1, 82761, Note_on_c, 0, 50, 79
1, 82766, Note_off_c, 0, 81, 66
1, 82776, Note_off_c, 0, 86, 63
1, 82785, Note_off_c, 0, 50, 68
1, 82788, Note_off_c, 0, 74, 60
1, 82842, Note_on_c, 0, 54, 69
1, 82867, Note_off_c, 0, 54, 56
1, 82890, Note_on_c, 0, 59, 57
1, 82915, Note_off_c, 0, 59, 59
1, 82939, Note_on_c, 0, 62, 54
1, 82963, Note_on_c, 0, 72, 104
1, 82963, Note_on_c, 0, 84, 103
1, 82973, Note_on_c, 0, 66, 98
1, 82973, Note_off_c, 0, 62, 50
1, 82998, Note_off_c, 0, 66, 69
1, 83045, Note_off_c, 0, 72, 59
1, 83054, Note_off_c, 0, 84, 62
1, 83117, Note_on_c, 0, 84, 100
1, 83120, Note_on_c, 0, 43, 87
1, 83122, Note_on_c, 0, 72, 99
1, 83122, Note_on_c, 0, 74, 100
1, 83131, Note_on_c, 0, 79, 87
1, 83149, Control_c, 0, 64, 67
1, 83164, Control_c, 0, 64, 0
1, 83175, Note_on_c, 0, 46, 71
1, 83179, Control_c, 0, 64, 32
1, 83194, Control_c, 0, 64, 70
1, 83200, Note_off_c, 0, 79, 64
1, 83207, Note_on_c, 0, 50, 75
1, 83208, Control_c, 0, 64, 127
1, 83209, Note_off_c, 0, 43, 62
1, 83210, Note_off_c, 0, 84, 67
1, 83223, Note_off_c, 0, 74, 57
1, 83224, Note_off_c, 0, 72, 69
1, 83234, Note_off_c, 0, 46, 62
1, 83235, Note_off_c, 0, 50, 64
1, 83260, Note_on_c, 0, 55, 76
1, 83284, Note_off_c, 0, 55, 69
1, 83334, Note_on_c, 0, 58, 78
1, 83373, Note_on_c, 0, 62, 62
1, 83388, Note_on_c, 0, 82, 103
1, 83390, Note_on_c, 0, 70, 110
1, 83396, Note_on_c, 0, 67, 89
1, 83410, Note_off_c, 0, 62, 65
1, 83414, Note_off_c, 0, 67, 71
1, 83435, Note_off_c, 0, 58, 65
1, 83470, Note_off_c, 0, 70, 54
1, 83475, Note_off_c, 0, 82, 57
1, 83525, Note_on_c, 0, 48, 86
1, 83531, Note_on_c, 0, 82, 98
1, 83540, Note_on_c, 0, 70, 94
1, 83540, Note_on_c, 0, 74, 88
1, 83543, Note_on_c, 0, 78, 84
1, 83548, Control_c, 0, 64, 98
1, 83563, Control_c, 0, 64, 57
1, 83575, Note_on_c, 0, 50, 74
1, 83578, Control_c, 0, 64, 0
1, 83581, Note_off_c, 0, 48, 60
1, 83593, Control_c, 0, 64, 45
1, 83608, Control_c, 0, 64, 69
1, 83618, Note_on_c, 0, 54, 74
1, 83623, Control_c, 0, 64, 127
1, 83637, Note_off_c, 0, 70, 62
1, 83644, Note_off_c, 0, 50, 63
1, 83654, Note_off_c, 0, 54, 60
1, 83661, Note_on_c, 0, 57, 76
1, 83672, Note_off_c, 0, 82, 60
1, 83682, Note_off_c, 0, 57, 68
1, 83736, Note_on_c, 0, 62, 77
1, 83773, Note_off_c, 0, 78, 59
1, 83776, Note_on_c, 0, 66, 96
1, 83797, Note_off_c, 0, 62, 65
1, 83804, Note_on_c, 0, 81, 102
1, 83805, Note_on_c, 0, 69, 111
1, 83808, Note_off_c, 0, 66, 68
1, 83826, Note_off_c, 0, 74, 56
1, 83921, Note_off_c, 0, 69, 56
1, 83926, Note_off_c, 0, 81, 60
1, 83954, Note_on_c, 0, 46, 82
1, 83989, Note_on_c, 0, 81, 96
1, 83998, Note_on_c, 0, 74, 90
1, 83999, Note_on_c, 0, 69, 94
1, 84001, Control_c, 0, 64, 74
1, 84016, Control_c, 0, 64, 36
1, 84031, Control_c, 0, 64, 0
1, 84041, Note_on_c, 0, 50, 61
1, 84059, Note_off_c, 0, 46, 64
1, 84061, Control_c, 0, 64, 57
1, 84076, Control_c, 0, 64, 104
1, 84078, Note_off_c, 0, 50, 67
1, 84079, Note_on_c, 0, 55, 73
1, 84091, Control_c, 0, 64, 127
1, 84103, Note_off_c, 0, 55, 68
1, 84129, Note_off_c, 0, 69, 59
1, 84140, Note_off_c, 0, 81, 60
1, 84161, Note_on_c, 0, 58, 76
1, 84195, Note_on_c, 0, 62, 70
1, 84216, Note_off_c, 0, 58, 61
1, 84225, Note_off_c, 0, 62, 65
1, 84249, Note_on_c, 0, 67, 77
1, 84294, Note_off_c, 0, 67, 46
1, 84300, Note_on_c, 0, 70, 94
1, 84305, Note_on_c, 0, 79, 98
1, 84309, Note_on_c, 0, 67, 85
1, 84315, Note_off_c, 0, 70, 75
1, 84322, Note_off_c, 0, 74, 51
1, 84384, Note_off_c, 0, 67, 0
1, 84434, Note_off_c, 0, 79, 57
1, 84470, Poly_aftertouch_c, 0, 67, 0
1, 84509, Note_on_c, 0, 79, 97
1, 84517, Note_on_c, 0, 67, 83
1, 84518, Note_on_c, 0, 74, 88
1, 84530, Note_on_c, 0, 62, 77
1, 84532, Note_on_c, 0, 58, 68
1, 84550, Control_c, 0, 64, 73
1, 84565, Control_c, 0, 64, 48
1, 84580, Control_c, 0, 64, 47
1, 84595, Control_c, 0, 64, 64
1, 84601, Note_off_c, 0, 62, 63
1, 84606, Note_off_c, 0, 58, 60
1, 84610, Control_c, 0, 64, 97
1, 84632, Control_c, 0, 64, 127
1, 84652, Note_off_c, 0, 79, 62
1, 84663, Note_off_c, 0, 67, 61
1, 84667, Note_on_c, 0, 62, 90
1, 84676, Note_on_c, 0, 58, 82
1, 84699, Note_off_c, 0, 74, 63
1, 84717, Note_off_c, 0, 62, 65
1, 84718, Note_off_c, 0, 58, 62
1, 84765, Note_on_c, 0, 62, 90
1, 84765, Note_on_c, 0, 77, 109
1, 84767, Note_on_c, 0, 65, 102
1, 84777, Note_on_c, 0, 58, 82
1, 84813, Note_off_c, 0, 58, 63
1, 84816, Note_off_c, 0, 62, 63
1, 84846, Note_off_c, 0, 65, 62
1, 84854, Note_off_c, 0, 77, 62
1, 84888, Note_on_c, 0, 58, 90
1, 84892, Note_on_c, 0, 62, 91
1, 84973, Control_c, 0, 64, 97
1, 84987, Control_c, 0, 64, 65
1, 84995, Note_on_c, 0, 77, 105
1, 85000, Note_on_c, 0, 65, 95
1, 85001, Note_on_c, 0, 67, 96
1, 85001, Note_on_c, 0, 74, 92
1, 85002, Control_c, 0, 64, 35
1, 85017, Control_c, 0, 64, 43
1, 85032, Control_c, 0, 64, 62
1, 85047, Control_c, 0, 64, 87
1, 85061, Control_c, 0, 64, 127
1, 85067, Note_off_c, 0, 62, 60
1, 85072, Note_off_c, 0, 58, 62
1, 85083, Note_off_c, 0, 65, 61
1, 85083, Note_off_c, 0, 77, 64
1, 85084, Note_off_c, 0, 67, 60
1, 85091, Note_off_c, 0, 74, 65
1, 85136, Note_on_c, 0, 62, 90
1, 85144, Note_on_c, 0, 58, 79
1, 85181, Note_off_c, 0, 58, 62
1, 85191, Note_off_c, 0, 62, 63
1, 85235, Note_on_c, 0, 64, 104
1, 85235, Note_on_c, 0, 76, 100
1, 85245, Note_on_c, 0, 62, 79
1, 85255, Note_on_c, 0, 58, 75
1, 85279, Note_off_c, 0, 76, 61
1, 85286, Note_off_c, 0, 58, 65
1, 85288, Note_off_c, 0, 64, 61
1, 85298, Note_off_c, 0, 62, 63
1, 85353, Note_on_c, 0, 76, 88
1, 85354, Note_on_c, 0, 67, 93
1, 85355, Note_on_c, 0, 64, 96
1, 85355, Note_on_c, 0, 74, 80
1, 85358, Note_on_c, 0, 62, 82
1, 85363, Note_on_c, 0, 58, 87
1, 85414, Note_off_c, 0, 62, 63
1, 85415, Note_off_c, 0, 58, 61
1, 85439, Note_off_c, 0, 64, 64
1, 85452, Note_off_c, 0, 76, 64
1, 85453, Note_off_c, 0, 67, 64
1, 85467, Note_off_c, 0, 74, 66
1, 85476, Note_on_c, 0, 62, 81
1, 85485, Note_on_c, 0, 58, 76
1, 85529, Note_off_c, 0, 58, 60
1, 85533, Note_off_c, 0, 62, 63
1, 85590, Note_on_c, 0, 77, 100
1, 85591, Note_on_c, 0, 65, 107
1, 85597, Note_on_c, 0, 62, 79
1, 85602, Note_on_c, 0, 58, 78
1, 85625, Note_off_c, 0, 65, 66
1, 85626, Note_off_c, 0, 77, 65
1, 85639, Note_off_c, 0, 58, 60
1, 85647, Note_off_c, 0, 62, 63
1, 85722, Note_on_c, 0, 76, 95
1, 85723, Note_on_c, 0, 62, 81
1, 85729, Note_on_c, 0, 58, 78
1, 85736, Control_c, 0, 64, 108
1, 85736, Note_on_c, 0, 67, 83
1, 85737, Note_on_c, 0, 64, 86
1, 85741, Note_on_c, 0, 74, 77
1, 85751, Control_c, 0, 64, 68
1, 85766, Control_c, 0, 64, 44
1, 85778, Note_off_c, 0, 58, 58
1, 85781, Note_off_c, 0, 62, 59
1, 85781, Control_c, 0, 64, 46
1, 85792, Note_off_c, 0, 67, 59
1, 85796, Control_c, 0, 64, 63
1, 85810, Control_c, 0, 64, 99
1, 85812, Note_off_c, 0, 74, 58
1, 85825, Control_c, 0, 64, 127
1, 85849, Note_on_c, 0, 62, 81
1, 85863, Note_on_c, 0, 58, 71
1, 85896, Note_off_c, 0, 58, 62
1, 85900, Note_off_c, 0, 64, 61
1, 85903, Note_off_c, 0, 62, 62
1, 85943, Note_on_c, 0, 62, 77
1, 85944, Note_on_c, 0, 74, 86
1, 85951, Note_on_c, 0, 58, 83
1, 85952, Note_on_c, 0, 67, 90
1, 85966, Note_off_c, 0, 76, 63
1, 85967, Note_off_c, 0, 62, 68
1, 85975, Note_off_c, 0, 58, 66
1, 85977, Note_off_c, 0, 67, 63
1, 85990, Note_off_c, 0, 74, 64
1, 86115, Note_on_c, 0, 55, 86
1, 86127, Note_on_c, 0, 62, 89
1, 86130, Note_on_c, 0, 43, 74
1, 86130, Control_c, 0, 64, 96
1, 86145, Control_c, 0, 64, 65
1, 86147, Note_on_c, 0, 58, 50
1, 86160, Control_c, 0, 64, 42
1, 86172, Note_off_c, 0, 58, 64
1, 86175, Control_c, 0, 64, 47
1, 86183, Note_off_c, 0, 55, 62
1, 86185, Note_off_c, 0, 43, 56
1, 86189, Control_c, 0, 64, 63
1, 86204, Control_c, 0, 64, 84
1, 86219, Control_c, 0, 64, 127
1, 86250, Note_on_c, 0, 58, 64
1, 86291, Note_off_c, 0, 58, 62
1, 86335, Note_on_c, 0, 53, 100
1, 86340, Note_on_c, 0, 41, 91
1, 86347, Note_on_c, 0, 58, 81
1, 86355, Note_off_c, 0, 62, 64
1, 86360, Note_on_c, 0, 55, 53
1, 86364, Note_off_c, 0, 41, 68
1, 86370, Note_off_c, 0, 53, 66
1, 86380, Note_off_c, 0, 55, 63
1, 86384, Note_off_c, 0, 58, 67
1, 86416, Poly_aftertouch_c, 0, 44, 127
1, 86452, Note_on_c, 0, 53, 102
1, 86455, Note_on_c, 0, 41, 89
1, 86455, Control_c, 0, 64, 94
1, 86459, Note_on_c, 0, 67, 98
1, 86460, Poly_aftertouch_c, 0, 44, 0
1, 86463, Note_on_c, 0, 58, 103
1, 86465, Poly_aftertouch_c, 0, 46, 0
1, 86470, Control_c, 0, 64, 64
1, 86477, Note_on_c, 0, 62, 72
1, 86485, Control_c, 0, 64, 44
1, 86499, Control_c, 0, 64, 50
1, 86508, Note_off_c, 0, 41, 63
1, 86514, Control_c, 0, 64, 63
1, 86516, Note_off_c, 0, 53, 64
1, 86528, Note_off_c, 0, 58, 57
1, 86529, Control_c, 0, 64, 88
1, 86543, Note_off_c, 0, 62, 62
1, 86544, Control_c, 0, 64, 127
1, 86581, Note_on_c, 0, 62, 68
1, 86598, Note_on_c, 0, 58, 75
1, 86635, Note_off_c, 0, 58, 61
1, 86640, Note_off_c, 0, 62, 63
1, 86668, Note_off_c, 0, 67, 61
1, 86674, Note_on_c, 0, 52, 110
1, 86680, Note_on_c, 0, 40, 93
1, 86681, Note_on_c, 0, 62, 80
1, 86695, Note_on_c, 0, 58, 81
1, 86706, Note_off_c, 0, 40, 66
1, 86709, Note_on_c, 0, 46, 39
1, 86717, Note_off_c, 0, 52, 64
1, 86723, Note_on_c, 0, 42, 21
1, 86730, Note_off_c, 0, 58, 46
1, 86741, Note_off_c, 0, 46, 49
1, 86765, Note_off_c, 0, 42, 47
1, 86766, Note_off_c, 0, 62, 63
1, 86766, Poly_aftertouch_c, 0, 44, 127
1, 86791, Note_on_c, 0, 58, 105
1, 86791, Note_on_c, 0, 70, 101
1, 86796, Note_on_c, 0, 62, 69
1, 86797, Note_on_c, 0, 67, 82
1, 86798, Note_on_c, 0, 52, 106
1, 86805, Note_on_c, 0, 40, 92
1, 86811, Poly_aftertouch_c, 0, 44, 0
1, 86811, Control_c, 0, 64, 91
1, 86825, Control_c, 0, 64, 56
1, 86828, Note_on_c, 0, 64, 44
1, 86834, Note_off_c, 0, 40, 67
1, 86834, Note_off_c, 0, 52, 70
1, 86840, Control_c, 0, 64, 42
1, 86848, Note_on_c, 0, 46, 18
1, 86855, Control_c, 0, 64, 54
1, 86856, Note_off_c, 0, 64, 55
1, 86878, Control_c, 0, 64, 68
1, 86887, Note_off_c, 0, 58, 60
1, 86893, Control_c, 0, 64, 116
1, 86902, Note_off_c, 0, 62, 60
1, 86906, Note_off_c, 0, 46, 28
1, 86908, Control_c, 0, 64, 127
1, 86958, Note_on_c, 0, 62, 69
1, 86962, Note_on_c, 0, 58, 78
1, 87024, Note_off_c, 0, 58, 60
1, 87046, Note_off_c, 0, 62, 61
1, 87072, Note_on_c, 0, 50, 110
1, 87076, Note_on_c, 0, 38, 101
1, 87099, Note_on_c, 0, 62, 76
1, 87103, Note_on_c, 0, 44, 53
1, 87107, Note_on_c, 0, 58, 87
1, 87111, Note_on_c, 0, 42, 38
1, 87140, Note_off_c, 0, 44, 49
1, 87147, Note_off_c, 0, 42, 59
1, 87168, Note_off_c, 0, 70, 51
1, 87168, Poly_aftertouch_c, 0, 40, 127
1, 87173, Note_off_c, 0, 50, 53
1, 87179, Note_off_c, 0, 38, 55
1, 87183, Note_off_c, 0, 58, 63
1, 87197, Poly_aftertouch_c, 0, 40, 0
1, 87204, Note_off_c, 0, 67, 36
1, 87266, Note_on_c, 0, 57, 104
1, 87266, Note_on_c, 0, 69, 103
1, 87269, Note_on_c, 0, 38, 86
1, 87269, Note_on_c, 0, 67, 87
1, 87272, Note_on_c, 0, 50, 103
1, 87283, Note_on_c, 0, 64, 73
1, 87292, Note_off_c, 0, 62, 60
1, 87293, Control_c, 0, 64, 82
1, 87308, Control_c, 0, 64, 49
1, 87322, Control_c, 0, 64, 0
1, 87412, Control_c, 0, 64, 34
1, 87416, Note_off_c, 0, 50, 57
1, 87419, Note_off_c, 0, 38, 60
1, 87427, Control_c, 0, 64, 70
1, 87441, Control_c, 0, 64, 127
1, 87447, Note_off_c, 0, 67, 51
1, 87450, Note_off_c, 0, 57, 55
1, 87477, Note_off_c, 0, 64, 59
1, 87543, Note_on_c, 0, 67, 73
1, 87546, Note_on_c, 0, 57, 79
1, 87548, Note_on_c, 0, 64, 64
1, 87579, Note_on_c, 0, 37, 82
1, 87581, Note_on_c, 0, 49, 97
1, 87586, Note_off_c, 0, 57, 56
1, 87593, Note_off_c, 0, 64, 60
1, 87598, Note_off_c, 0, 67, 62
1, 87603, Note_off_c, 0, 37, 65
1, 87612, Note_off_c, 0, 49, 63
1, 87668, Note_on_c, 0, 67, 76
1, 87671, Note_on_c, 0, 57, 100
1, 87674, Note_on_c, 0, 64, 81
1, 87775, Note_on_c, 0, 52, 57
1, 87778, Note_on_c, 0, 49, 76
1, 87805, Control_c, 0, 64, 74
1, 87820, Control_c, 0, 64, 52
1, 87835, Control_c, 0, 64, 53
1, 87850, Control_c, 0, 64, 71
1, 87857, Note_on_c, 0, 61, 108
1, 87865, Control_c, 0, 64, 127
1, 87878, Note_off_c, 0, 57, 52
1, 87909, Note_off_c, 0, 61, 66
1, 87918, Note_off_c, 0, 52, 59
1, 87991, Note_on_c, 0, 61, 104
1, 88000, Note_on_c, 0, 52, 75
1, 88032, Note_off_c, 0, 64, 64
1, 88038, Note_off_c, 0, 61, 65
1, 88040, Note_off_c, 0, 67, 62
1, 88047, Note_on_c, 0, 57, 92
1, 88048, Note_off_c, 0, 69, 54
1, 88092, Note_on_c, 0, 61, 105
1, 88113, Note_off_c, 0, 49, 63
1, 88122, Note_off_c, 0, 57, 64
1, 88133, Note_off_c, 0, 61, 70
1, 88154, Note_on_c, 0, 53, 34
1, 88179, Note_off_c, 0, 52, 57
1, 88189, Note_off_c, 0, 53, 44
1, 88212, Note_on_c, 0, 46, 90
1, 88215, Note_on_c, 0, 50, 73
1, 88235, Control_c, 0, 64, 80
1, 88250, Control_c, 0, 64, 48
1, 88252, Note_on_c, 0, 65, 96
1, 88258, Note_on_c, 0, 56, 101
1, 88258, Note_on_c, 0, 58, 102
1, 88264, Control_c, 0, 64, 0
1, 88279, Control_c, 0, 64, 50
1, 88294, Control_c, 0, 64, 75
1, 88303, Note_off_c, 0, 46, 63
1, 88309, Control_c, 0, 64, 127
1, 88330, Note_off_c, 0, 58, 63
1, 88342, Poly_aftertouch_c, 0, 59, 127
1, 88342, Note_on_c, 0, 59, 13
1, 88345, Note_off_c, 0, 56, 66
1, 88349, Note_off_c, 0, 50, 61
1, 88354, Note_off_c, 0, 65, 65
1, 88386, Note_off_c, 0, 59, 45
1, 88402, Note_on_c, 0, 58, 102
1, 88403, Note_on_c, 0, 62, 95
1, 88405, Note_on_c, 0, 50, 61
1, 88413, Note_on_c, 0, 46, 67
1, 88448, Note_off_c, 0, 62, 66
1, 88451, Note_off_c, 0, 58, 63
1, 88458, Note_off_c, 0, 46, 0
1, 88496, Poly_aftertouch_c, 0, 46, 127
1, 88515, Note_on_c, 0, 58, 99
1, 88529, Note_on_c, 0, 62, 101
1, 88551, Note_off_c, 0, 50, 63
1, 88555, Note_off_c, 0, 58, 65
1, 88565, Note_off_c, 0, 62, 65
1, 88581, Note_on_c, 0, 60, 23
1, 88589, Poly_aftertouch_c, 0, 46, 0
1, 88613, Poly_aftertouch_c, 0, 46, 0
1, 88629, Note_off_c, 0, 60, 38
1, 88634, Note_on_c, 0, 45, 75
1, 88673, Note_on_c, 0, 52, 81
1, 88686, Note_on_c, 0, 57, 98
1, 88702, Note_on_c, 0, 55, 105
1, 88702, Control_c, 0, 64, 72
1, 88705, Note_on_c, 0, 62, 97
1, 88708, Note_on_c, 0, 64, 90
1, 88717, Control_c, 0, 64, 0
1, 88728, Note_off_c, 0, 64, 74
1, 88746, Note_off_c, 0, 55, 0
1, 88775, Note_off_c, 0, 57, 60
1, 88776, Control_c, 0, 64, 64
1, 88783, Poly_aftertouch_c, 0, 55, 127
1, 88790, Note_off_c, 0, 52, 59
1, 88791, Control_c, 0, 64, 101
1, 88801, Poly_aftertouch_c, 0, 55, 0
1, 88806, Control_c, 0, 64, 127
1, 88837, Note_on_c, 0, 57, 88
1, 88839, Note_on_c, 0, 52, 72
1, 88890, Note_off_c, 0, 57, 64
1, 88899, Note_off_c, 0, 52, 61
1, 88913, Note_off_c, 0, 62, 63
1, 88941, Note_on_c, 0, 57, 86
1, 88943, Note_on_c, 0, 52, 72
1, 88950, Note_on_c, 0, 61, 103
1, 88964, Note_off_c, 0, 57, 70
1, 88977, Note_off_c, 0, 45, 61
1, 88980, Note_off_c, 0, 52, 63
1, 89068, Note_on_c, 0, 43, 79
1, 89075, Note_on_c, 0, 45, 82
1, 89075, Note_on_c, 0, 52, 90
1, 89087, Control_c, 0, 64, 78
1, 89102, Control_c, 0, 64, 54
1, 89124, Control_c, 0, 64, 42
1, 89139, Note_on_c, 0, 49, 95
1, 89139, Control_c, 0, 64, 55
1, 89143, Note_off_c, 0, 45, 54
1, 89153, Control_c, 0, 64, 71
1, 89168, Control_c, 0, 64, 127
1, 89169, Note_off_c, 0, 52, 60
1, 89197, Note_off_c, 0, 49, 65
1, 89233, Note_on_c, 0, 45, 65
1, 89233, Note_on_c, 0, 52, 89
1, 89284, Note_off_c, 0, 52, 65
1, 89291, Note_off_c, 0, 61, 58
1, 89293, Note_off_c, 0, 45, 61
1, 89348, Note_on_c, 0, 45, 74
1, 89349, Note_on_c, 0, 52, 91
1, 89352, Note_on_c, 0, 57, 107
1, 89362, Note_off_c, 0, 43, 58
1, 89396, Note_off_c, 0, 57, 68
1, 89407, Note_off_c, 0, 52, 64
1, 89433, Note_off_c, 0, 45, 58
1, 89434, Note_on_c, 0, 41, 91
1, 89474, Note_on_c, 0, 45, 51
1, 89510, Control_c, 0, 64, 106
1, 89525, Control_c, 0, 64, 71
1, 89540, Control_c, 0, 64, 54
1, 89555, Control_c, 0, 64, 53
1, 89560, Note_on_c, 0, 62, 102
1, 89562, Note_on_c, 0, 53, 98
1, 89564, Note_on_c, 0, 50, 102
1, 89569, Control_c, 0, 64, 63
1, 89584, Control_c, 0, 64, 86
1, 89595, Note_off_c, 0, 50, 64
1, 89599, Control_c, 0, 64, 127
1, 89611, Note_off_c, 0, 62, 61
1, 89635, Note_on_c, 0, 52, 8
1, 89646, Note_off_c, 0, 45, 62
1, 89653, Note_off_c, 0, 53, 57
1, 89682, Note_off_c, 0, 52, 44
1, 89731, Note_on_c, 0, 60, 101
1, 89737, Note_on_c, 0, 53, 95
1, 89743, Note_on_c, 0, 45, 87
1, 89745, Note_on_c, 0, 59, 72
1, 89764, Note_off_c, 0, 59, 40
1, 89771, Note_off_c, 0, 41, 65
1, 89778, Note_off_c, 0, 60, 67
1, 89780, Note_off_c, 0, 53, 67
1, 89793, Note_off_c, 0, 45, 62
1, 89913, Note_on_c, 0, 58, 111
1, 89918, Note_on_c, 0, 46, 100
1, 89919, Note_on_c, 0, 50, 94
1, 89921, Note_on_c, 0, 53, 81
1, 89928, Note_on_c, 0, 38, 77
1, 89929, Note_on_c, 0, 41, 77
1, 89944, Note_off_c, 0, 50, 67
1, 89954, Note_off_c, 0, 41, 67
1, 89958, Note_off_c, 0, 38, 63
1, 89962, Note_on_c, 0, 57, 30
1, 89993, Note_off_c, 0, 57, 52
1, 90011, Note_off_c, 0, 46, 60
1, 90039, Note_off_c, 0, 53, 61
1, 90072, Note_off_c, 0, 58, 56
1, 90184, Note_on_c, 0, 58, 106
1, 90193, Note_on_c, 0, 46, 95
1, 90202, Note_on_c, 0, 55, 69
1, 90205, Note_on_c, 0, 52, 72
1, 90221, Note_on_c, 0, 37, 82
1, 90223, Note_on_c, 0, 49, 76
1, 90228, Note_on_c, 0, 40, 54
1, 90244, Control_c, 0, 64, 83
1, 90259, Control_c, 0, 64, 52
1, 90268, Note_on_c, 0, 57, 7
1, 90273, Control_c, 0, 64, 0
1, 90363, Control_c, 0, 64, 40
1, 90378, Control_c, 0, 64, 63
1, 90392, Control_c, 0, 64, 76
1, 90407, Control_c, 0, 64, 127
1, 90427, Note_off_c, 0, 49, 59
1, 90449, Note_off_c, 0, 46, 60
1, 90451, Note_off_c, 0, 37, 60
1, 90454, Note_off_c, 0, 57, 32
1, 90458, Note_off_c, 0, 40, 57
1, 90471, Note_off_c, 0, 55, 57
1, 90494, Note_off_c, 0, 52, 53
1, 90511, Note_on_c, 0, 49, 86
1, 90511, Note_off_c, 0, 58, 57
1, 90519, Note_on_c, 0, 40, 44
1, 90527, Note_on_c, 0, 37, 55
1, 90568, Note_off_c, 0, 37, 58
1, 90583, Note_off_c, 0, 49, 58
1, 90586, Note_off_c, 0, 40, 59
1, 90675, Note_on_c, 0, 57, 80
1, 90689, Note_on_c, 0, 45, 79
1, 90700, Note_on_c, 0, 52, 62
1, 90700, Note_on_c, 0, 55, 72
1, 90703, Note_on_c, 0, 49, 63
1, 90712, Note_on_c, 0, 40, 49
1, 90714, Note_on_c, 0, 37, 41
1, 90728, Note_on_c, 0, 47, 34
1, 90733, Note_off_c, 0, 45, 0
1, 90755, Control_c, 0, 64, 81
1, 90768, Note_off_c, 0, 49, 60
1, 90770, Control_c, 0, 64, 51
1, 90771, Poly_aftertouch_c, 0, 45, 127
1, 90781, Note_off_c, 0, 47, 42
1, 90785, Control_c, 0, 64, 0
1, 90810, Poly_aftertouch_c, 0, 45, 0
1, 90814, Note_off_c, 0, 37, 0
1, 90814, Control_c, 0, 64, 44
1, 90818, Note_off_c, 0, 40, 0
1, 90829, Control_c, 0, 64, 65
1, 90838, Note_on_c, 0, 37, 41
1, 90844, Control_c, 0, 64, 89
1, 90846, Note_on_c, 0, 40, 32
1, 90848, Note_on_c, 0, 49, 63
1, 90859, Control_c, 0, 64, 127
1, 90915, Note_off_c, 0, 49, 59
1, 90921, Note_off_c, 0, 37, 58
1, 90924, Note_off_c, 0, 40, 59
1, 90993, Note_on_c, 0, 49, 72
1, 90999, Note_off_c, 0, 52, 55
1, 91005, Note_on_c, 0, 37, 55
1, 91016, Note_on_c, 0, 40, 48
1, 91066, Note_off_c, 0, 37, 59
1, 91073, Note_off_c, 0, 49, 57
1, 91079, Note_off_c, 0, 40, 54
1, 91129, Note_off_c, 0, 55, 60
1, 91129, Note_off_c, 0, 57, 65
1, 91161, Note_on_c, 0, 45, 92
1, 91165, Note_on_c, 0, 37, 70
1, 91166, Note_on_c, 0, 40, 58
1, 91169, Note_on_c, 0, 49, 60
1, 91196, Note_off_c, 0, 40, 64
1, 91196, Note_off_c, 0, 45, 66
1, 91200, Note_off_c, 0, 49, 63
1, 91211, Note_off_c, 0, 37, 63
1, 91352, Note_on_c, 0, 34, 68
1, 91442, Note_on_c, 0, 38, 61
1, 91447, Note_on_c, 0, 53, 82
1, 91469, Note_on_c, 0, 44, 62
1, 91490, Control_c, 0, 64, 100
1, 91498, Note_on_c, 0, 50, 16
1, 91504, Control_c, 0, 64, 68
1, 91519, Control_c, 0, 64, 35
1, 91534, Control_c, 0, 64, 0
1, 91564, Control_c, 0, 64, 46
1, 91579, Control_c, 0, 64, 65
1, 91594, Control_c, 0, 64, 83
1, 91609, Control_c, 0, 64, 127
1, 91617, Note_off_c, 0, 53, 61
1, 91668, Note_off_c, 0, 50, 37
1, 91689, Note_on_c, 0, 52, 87
1, 91695, Note_off_c, 0, 44, 58
1, 91833, Note_off_c, 0, 52, 59
1, 91875, Note_on_c, 0, 50, 99
1, 91923, Note_off_c, 0, 50, 64
1, 91938, Note_off_c, 0, 38, 59
1, 92083, Note_on_c, 0, 33, 62
1, 92084, Note_off_c, 0, 34, 62
1, 92196, Note_on_c, 0, 40, 46
1, 92241, Note_on_c, 0, 50, 72
1, 92271, Note_on_c, 0, 52, 50
1, 92278, Note_on_c, 0, 45, 45
1, 92283, Control_c, 0, 64, 88
1, 92297, Control_c, 0, 64, 63
1, 92312, Control_c, 0, 64, 0
1, 92372, Control_c, 0, 64, 31
1, 92382, Note_off_c, 0, 40, 61
1, 92387, Note_off_c, 0, 33, 62
1, 92387, Control_c, 0, 64, 51
1, 92402, Control_c, 0, 64, 64
1, 92417, Control_c, 0, 64, 72
1, 92417, Control_c, 0, 67, 41
1, 92431, Control_c, 0, 64, 80
1, 92431, Control_c, 0, 67, 50
1, 92446, Control_c, 0, 64, 87
1, 92446, Control_c, 0, 67, 57
1, 92460, Control_c, 0, 64, 94
1, 92460, Control_c, 0, 67, 67
1, 92475, Control_c, 0, 64, 103
1, 92475, Control_c, 0, 67, 84
1, 92491, Control_c, 0, 64, 111
1, 92491, Control_c, 0, 67, 108
1, 92506, Control_c, 0, 64, 127
1, 92506, Control_c, 0, 67, 127
1, 92664, Note_on_c, 0, 57, 64
1, 92761, Note_off_c, 0, 57, 60
1, 92896, Note_on_c, 0, 57, 63
1, 92969, Note_off_c, 0, 57, 56
1, 93141, Note_on_c, 0, 57, 49
1, 93149, Note_on_c, 0, 49, 59
1, 93151, Note_off_c, 0, 50, 55
1, 93180, Control_c, 0, 64, 92
1, 93194, Control_c, 0, 64, 67
1, 93208, Control_c, 0, 64, 46
1, 93223, Control_c, 0, 64, 41
1, 93238, Control_c, 0, 64, 52
1, 93253, Control_c, 0, 64, 64
1, 93267, Control_c, 0, 64, 80
1, 93282, Control_c, 0, 64, 112
1, 93298, Control_c, 0, 64, 127
1, 93306, Note_off_c, 0, 57, 57
1, 93364, Note_off_c, 0, 45, 48
1, 93436, Note_off_c, 0, 49, 62
1, 93438, Note_off_c, 0, 52, 61
1, 93512, Note_on_c, 0, 57, 39
1, 93588, Note_off_c, 0, 57, 47
1, 93764, Control_c, 0, 67, 119
1, 93779, Control_c, 0, 67, 94
1, 93794, Control_c, 0, 67, 70
1, 93809, Control_c, 0, 67, 50
1, 93815, Note_on_c, 0, 57, 76
1, 93824, Control_c, 0, 67, 0
1, 93987, Note_off_c, 0, 57, 60
1, 94196, Note_on_c, 0, 64, 72
1, 94215, Note_on_c, 0, 57, 40
1, 94244, Note_on_c, 0, 55, 33
1, 94285, Control_c, 0, 64, 74
1, 94300, Control_c, 0, 64, 50
1, 94314, Control_c, 0, 64, 0
1, 94344, Control_c, 0, 64, 37
1, 94366, Control_c, 0, 64, 56
1, 94381, Control_c, 0, 64, 69
1, 94396, Control_c, 0, 64, 88
1, 94411, Control_c, 0, 64, 113
1, 94426, Control_c, 0, 64, 127
1, 94429, Note_off_c, 0, 64, 62
1, 94442, Note_on_c, 0, 69, 41
1, 94475, Note_off_c, 0, 69, 60
1, 94539, Note_on_c, 0, 62, 76
1, 94645, Note_on_c, 0, 69, 66
1, 94671, Note_off_c, 0, 57, 58
1, 94693, Note_off_c, 0, 69, 56
1, 94739, Note_on_c, 0, 61, 83
1, 94743, Note_off_c, 0, 55, 43
1, 94769, Note_off_c, 0, 62, 60
1, 94831, Note_on_c, 0, 69, 72
1, 94879, Note_off_c, 0, 69, 56
1, 94967, Note_on_c, 0, 62, 78
1, 94978, Note_off_c, 0, 61, 61
1, 94992, Note_on_c, 0, 54, 51
1, 94994, Note_on_c, 0, 57, 51
1, 95003, Control_c, 0, 64, 84
1, 95018, Control_c, 0, 64, 60
1, 95033, Control_c, 0, 64, 0
1, 95037, Note_on_c, 0, 69, 66
1, 95062, Control_c, 0, 64, 40
1, 95077, Control_c, 0, 64, 59
1, 95092, Control_c, 0, 64, 77
1, 95114, Control_c, 0, 64, 127
1, 95117, Note_off_c, 0, 57, 63
1, 95117, Note_off_c, 0, 69, 58
1, 95135, Note_off_c, 0, 62, 61
1, 95140, Note_off_c, 0, 54, 62
1, 95167, Note_on_c, 0, 71, 53
1, 95247, Note_off_c, 0, 71, 53
1, 95253, Note_on_c, 0, 69, 54
1, 95314, Note_off_c, 0, 69, 58
1, 95324, Note_on_c, 0, 68, 56
1, 95361, Note_on_c, 0, 42, 44
1, 95376, Note_off_c, 0, 68, 60
1, 95412, Note_on_c, 0, 69, 54
1, 95419, Note_on_c, 0, 50, 49
1, 95460, Note_off_c, 0, 42, 57
1, 95466, Note_off_c, 0, 69, 51
1, 95492, Note_on_c, 0, 71, 63
1, 95493, Note_off_c, 0, 50, 62
1, 95527, Note_on_c, 0, 57, 32
1, 95558, Note_off_c, 0, 71, 62
1, 95561, Note_off_c, 0, 57, 45
1, 95575, Note_on_c, 0, 73, 66
1, 95616, Note_off_c, 0, 73, 61
1, 95644, Note_on_c, 0, 74, 74
1, 95682, Note_off_c, 0, 74, 58
1, 95717, Note_on_c, 0, 76, 78
1, 95766, Note_on_c, 0, 62, 81
1, 95782, Note_on_c, 0, 57, 53
1, 95789, Note_on_c, 0, 54, 34
1, 95793, Note_on_c, 0, 78, 80
1, 95806, Note_off_c, 0, 57, 56
1, 95810, Note_off_c, 0, 62, 62
1, 95822, Note_off_c, 0, 54, 50
1, 95871, Note_off_c, 0, 76, 50
1, 95885, Note_on_c, 0, 79, 76
1, 95897, Note_on_c, 0, 52, 68
1, 95905, Note_off_c, 0, 78, 58
1, 95937, Note_on_c, 0, 57, 59
1, 95983, Note_on_c, 0, 61, 70
1, 96041, Control_c, 0, 64, 103
1, 96056, Control_c, 0, 64, 70
1, 96068, Note_on_c, 0, 81, 75
1, 96071, Control_c, 0, 64, 38
1, 96085, Control_c, 0, 64, 0
1, 96113, Note_off_c, 0, 79, 36
1, 96115, Control_c, 0, 64, 48
1, 96125, Note_on_c, 0, 67, 89
1, 96129, Note_off_c, 0, 52, 52
1, 96130, Control_c, 0, 64, 68
1, 96144, Control_c, 0, 64, 92
1, 96159, Control_c, 0, 64, 127
1, 96160, Note_off_c, 0, 81, 64
1, 96247, Note_off_c, 0, 67, 63
1, 96356, Note_on_c, 0, 66, 94
1, 96443, Note_on_c, 0, 81, 81
1, 96453, Note_off_c, 0, 57, 49
1, 96469, Note_off_c, 0, 66, 62
1, 96505, Note_off_c, 0, 81, 62
1, 96522, Note_on_c, 0, 65, 87
1, 96530, Note_off_c, 0, 61, 53
1, 96559, Note_off_c, 0, 65, 65
1, 96596, Note_on_c, 0, 81, 83
1, 96601, Note_on_c, 0, 50, 78
1, 96641, Control_c, 0, 64, 88
1, 96656, Control_c, 0, 64, 59
1, 96671, Control_c, 0, 64, 38
1, 96675, Note_on_c, 0, 57, 54
1, 96679, Note_off_c, 0, 50, 63
1, 96686, Control_c, 0, 64, 49
1, 96696, Note_off_c, 0, 81, 65
1, 96700, Note_off_c, 0, 57, 56
1, 96701, Control_c, 0, 64, 64
1, 96712, Note_on_c, 0, 62, 83
1, 96715, Control_c, 0, 64, 85
1, 96730, Control_c, 0, 64, 127
1, 96754, Note_off_c, 0, 62, 62
1, 96778, Note_on_c, 0, 66, 100
1, 96817, Note_off_c, 0, 66, 67
1, 96912, Note_on_c, 0, 81, 62
1, 96968, Note_off_c, 0, 81, 62
1, 96998, Note_on_c, 0, 83, 72
1, 97058, Note_off_c, 0, 83, 62
1, 97063, Note_on_c, 0, 85, 77
1, 97107, Note_off_c, 0, 85, 65
1, 97124, Note_on_c, 0, 86, 72
1, 97154, Note_on_c, 0, 42, 65
1, 97183, Note_on_c, 0, 88, 82
1, 97189, Note_off_c, 0, 86, 59
1, 97219, Note_off_c, 0, 42, 60
1, 97219, Note_on_c, 0, 50, 61
1, 97239, Note_on_c, 0, 90, 73
1, 97272, Note_on_c, 0, 91, 87
1, 97273, Note_off_c, 0, 88, 65
1, 97349, Note_on_c, 0, 93, 95
1, 97358, Note_off_c, 0, 90, 65
1, 97374, Note_off_c, 0, 91, 65
1, 97383, Note_off_c, 0, 50, 62
1, 97389, Note_on_c, 0, 57, 66
1, 97416, Note_off_c, 0, 57, 66
1, 97504, Note_on_c, 0, 91, 76
1, 97511, Note_off_c, 0, 93, 56
1, 97589, Note_off_c, 0, 91, 57
1, 97591, Note_on_c, 0, 90, 68
1, 97660, Note_on_c, 0, 88, 69
1, 97670, Note_off_c, 0, 90, 61
1, 97705, Note_on_c, 0, 69, 82
1, 97713, Note_off_c, 0, 88, 65
1, 97723, Note_off_c, 0, 69, 72
1, 97744, Note_on_c, 0, 86, 67
1, 97800, Note_off_c, 0, 86, 64
1, 97837, Note_on_c, 0, 85, 63
1, 97861, Note_on_c, 0, 43, 55
1, 97930, Note_on_c, 0, 52, 60
1, 98027, Control_c, 0, 64, 75
1, 98030, Note_on_c, 0, 88, 71
1, 98042, Control_c, 0, 64, 56
1, 98046, Note_off_c, 0, 43, 60
1, 98053, Note_off_c, 0, 85, 57
1, 98056, Note_on_c, 0, 59, 80
1, 98057, Control_c, 0, 64, 54
1, 98072, Control_c, 0, 64, 63
1, 98088, Control_c, 0, 64, 78
1, 98110, Control_c, 0, 64, 127
1, 98116, Note_off_c, 0, 52, 63
1, 98135, Note_off_c, 0, 59, 62
1, 98181, Note_on_c, 0, 86, 74
1, 98225, Note_off_c, 0, 88, 35
1, 98244, Note_off_c, 0, 86, 58
1, 98265, Note_on_c, 0, 64, 90
1, 98268, Note_on_c, 0, 85, 69
1, 98307, Note_off_c, 0, 64, 66
1, 98341, Note_off_c, 0, 85, 62
1, 98343, Note_on_c, 0, 86, 71
1, 98403, Note_on_c, 0, 67, 93
1, 98419, Note_off_c, 0, 67, 74
1, 98435, Note_on_c, 0, 85, 79
1, 98474, Note_off_c, 0, 86, 62
1, 98498, Note_on_c, 0, 83, 75
1, 98513, Note_off_c, 0, 85, 63
1, 98525, Note_on_c, 0, 45, 72
1, 98542, Note_off_c, 0, 83, 59
1, 98555, Note_off_c, 0, 45, 63
1, 98644, Note_on_c, 0, 83, 79
1, 98655, Note_on_c, 0, 67, 80
1, 98677, Note_on_c, 0, 57, 48
1, 98679, Note_on_c, 0, 62, 53
1, 98747, Control_c, 0, 64, 122
1, 98762, Control_c, 0, 64, 75
1, 98777, Control_c, 0, 64, 46
1, 98778, Note_on_c, 0, 81, 65
1, 98787, Note_off_c, 0, 83, 52
1, 98792, Control_c, 0, 64, 0
1, 98806, Control_c, 0, 64, 33
1, 98821, Control_c, 0, 64, 54
1, 98836, Control_c, 0, 64, 71
1, 98858, Control_c, 0, 64, 103
1, 98873, Control_c, 0, 64, 127
1, 98886, Note_on_c, 0, 79, 60
1, 98895, Note_off_c, 0, 81, 51
1, 98967, Note_off_c, 0, 79, 61
1, 98970, Note_on_c, 0, 78, 65
1, 99002, Note_off_c, 0, 67, 60
1, 99031, Note_off_c, 0, 78, 58
1, 99061, Note_on_c, 0, 76, 64
1, 99088, Note_off_c, 0, 76, 68
1, 99149, Note_on_c, 0, 74, 67
1, 99250, Note_on_c, 0, 66, 74
1, 99276, Note_off_c, 0, 74, 36
1, 99326, Note_on_c, 0, 76, 60
1, 99362, Control_c, 0, 64, 79
1, 99377, Control_c, 0, 64, 55
1, 99392, Control_c, 0, 64, 0
1, 99422, Control_c, 0, 64, 48
1, 99434, Note_off_c, 0, 76, 55
1, 99436, Control_c, 0, 64, 65
1, 99437, Note_on_c, 0, 74, 58
1, 99451, Control_c, 0, 64, 84
1, 99466, Control_c, 0, 64, 127
1, 99514, Note_on_c, 0, 73, 63
1, 99530, Note_off_c, 0, 66, 60
1, 99536, Note_off_c, 0, 74, 50
1, 99596, Note_on_c, 0, 71, 67
1, 99598, Note_off_c, 0, 57, 63
1, 99611, Note_off_c, 0, 73, 55
1, 99634, Note_off_c, 0, 62, 62
1, 99643, Note_on_c, 0, 66, 83
1, 99659, Note_off_c, 0, 71, 62
1, 99665, Note_off_c, 0, 66, 71
1, 99692, Note_on_c, 0, 69, 67
1, 99719, Note_off_c, 0, 69, 64
1, 99766, Note_on_c, 0, 68, 69
1, 99822, Note_on_c, 0, 47, 60
1, 99857, Note_on_c, 0, 52, 73
1, 99860, Note_on_c, 0, 51, 5
1, 99889, Control_c, 0, 64, 115
1, 99898, Note_off_c, 0, 68, 50
1, 99903, Control_c, 0, 64, 74
1, 99907, Note_on_c, 0, 56, 67
1, 99918, Control_c, 0, 64, 51
1, 99921, Note_on_c, 0, 66, 64
1, 99923, Note_off_c, 0, 51, 48
1, 99933, Control_c, 0, 64, 33
1, 99948, Control_c, 0, 64, 42
1, 99963, Control_c, 0, 64, 59
1, 99975, Note_off_c, 0, 47, 37
1, 99977, Control_c, 0, 64, 72
1, 99990, Note_off_c, 0, 52, 60
1, 99992, Control_c, 0, 64, 99
1, 99997, Note_off_c, 0, 66, 59
1, 100007, Control_c, 0, 64, 127
1, 100031, Note_on_c, 0, 68, 61
1, 100048, Note_off_c, 0, 56, 60
1, 100095, Note_on_c, 0, 62, 81
1, 100113, Note_on_c, 0, 66, 64
1, 100117, Note_off_c, 0, 68, 60
1, 100128, Note_off_c, 0, 62, 63
1, 100156, Note_off_c, 0, 66, 62
1, 100218, Note_on_c, 0, 64, 48
1, 100268, Note_off_c, 0, 64, 56
1, 100281, Note_on_c, 0, 66, 96
1, 100313, Note_off_c, 0, 66, 64
1, 100319, Note_on_c, 0, 74, 60
1, 100414, Note_off_c, 0, 74, 62
1, 100415, Note_on_c, 0, 76, 63
1, 100441, Note_off_c, 0, 76, 65
1, 100493, Note_on_c, 0, 45, 56
1, 100585, Note_on_c, 0, 66, 73
1, 100602, Note_on_c, 0, 68, 53
1, 100603, Note_on_c, 0, 74, 59
1, 100638, Control_c, 0, 64, 117
1, 100653, Control_c, 0, 64, 77
1, 100668, Control_c, 0, 64, 56
1, 100682, Control_c, 0, 64, 0
1, 100727, Control_c, 0, 64, 43
1, 100735, Note_on_c, 0, 52, 33
1, 100742, Control_c, 0, 64, 60
1, 100757, Control_c, 0, 64, 72
1, 100772, Control_c, 0, 64, 83
1, 100787, Control_c, 0, 64, 94
1, 100801, Control_c, 0, 64, 96
1, 100804, Note_off_c, 0, 52, 52
1, 100831, Note_off_c, 0, 45, 50
1, 100831, Control_c, 0, 64, 98
1, 100856, Note_on_c, 0, 51, 39
1, 100860, Control_c, 0, 64, 102
1, 100875, Control_c, 0, 64, 105
1, 100890, Control_c, 0, 64, 108
1, 100897, Note_off_c, 0, 51, 56
1, 100905, Control_c, 0, 64, 113
1, 100912, Note_off_c, 0, 68, 58
1, 100920, Control_c, 0, 64, 124
1, 100933, Note_on_c, 0, 52, 46
1, 100934, Control_c, 0, 64, 127
1, 100952, Note_off_c, 0, 66, 62
1, 100993, Note_off_c, 0, 52, 52
1, 101039, Note_on_c, 0, 54, 58
1, 101136, Note_off_c, 0, 54, 54
1, 101140, Note_on_c, 0, 56, 52
1, 101279, Note_off_c, 0, 74, 51
1, 101287, Note_on_c, 0, 64, 66
1, 101300, Note_on_c, 0, 73, 45
1, 101315, Note_on_c, 0, 67, 45
1, 101338, Note_on_c, 0, 59, 50
1, 101372, Control_c, 0, 64, 115
1, 101375, Note_off_c, 0, 56, 34
1, 101387, Control_c, 0, 64, 88
1, 101402, Control_c, 0, 64, 68
1, 101417, Control_c, 0, 64, 45
1, 101431, Control_c, 0, 64, 0
1, 101476, Control_c, 0, 64, 38
1, 101490, Control_c, 0, 64, 54
1, 101494, Note_on_c, 0, 57, 45
1, 101505, Control_c, 0, 64, 66
1, 101508, Note_off_c, 0, 59, 35
1, 101520, Control_c, 0, 64, 73
1, 101535, Control_c, 0, 64, 81
1, 101550, Control_c, 0, 64, 83
1, 101565, Control_c, 0, 64, 84
1, 101574, Note_off_c, 0, 57, 51
1, 101580, Control_c, 0, 64, 85
1, 101595, Control_c, 0, 64, 88
1, 101606, Note_on_c, 0, 56, 49
1, 101610, Control_c, 0, 64, 91
1, 101624, Control_c, 0, 64, 98
1, 101639, Control_c, 0, 64, 107
1, 101654, Control_c, 0, 64, 127
1, 101687, Note_off_c, 0, 64, 63
1, 101706, Note_off_c, 0, 67, 36
1, 101727, Note_on_c, 0, 57, 45
1, 101729, Note_off_c, 0, 73, 63
1, 101762, Note_off_c, 0, 56, 37
1, 101786, Note_off_c, 0, 57, 62
1, 101836, Note_on_c, 0, 59, 39
1, 101914, Note_on_c, 0, 69, 73
1, 102024, Note_off_c, 0, 59, 56
1, 102046, Note_on_c, 0, 61, 58
1, 102078, Note_off_c, 0, 61, 65
1, 102248, Note_off_c, 0, 69, 51
1, 102255, Note_on_c, 0, 76, 63
1, 102270, Note_on_c, 0, 43, 47
1, 102274, Note_on_c, 0, 64, 44
1, 102280, Note_on_c, 0, 49, 52
1, 102328, Control_c, 0, 64, 90
1, 102343, Control_c, 0, 64, 63
1, 102358, Control_c, 0, 64, 42
1, 102373, Control_c, 0, 64, 40
1, 102388, Control_c, 0, 64, 53
1, 102403, Control_c, 0, 64, 66
1, 102417, Control_c, 0, 64, 85
1, 102426, Note_off_c, 0, 76, 62
1, 102432, Control_c, 0, 64, 127
1, 102433, Note_on_c, 0, 69, 53
1, 102446, Note_off_c, 0, 64, 60
1, 102498, Note_off_c, 0, 69, 61
1, 102516, Note_on_c, 0, 74, 78
1, 102537, Note_on_c, 0, 62, 69
1, 102543, Note_on_c, 0, 50, 55
1, 102622, Note_off_c, 0, 62, 62
1, 102629, Note_on_c, 0, 69, 65
1, 102721, Note_off_c, 0, 69, 59
1, 102740, Note_on_c, 0, 73, 88
1, 102749, Note_on_c, 0, 61, 76
1, 102760, Note_on_c, 0, 52, 60
1, 102771, Note_off_c, 0, 43, 60
1, 102793, Note_off_c, 0, 74, 62
1, 102823, Note_off_c, 0, 52, 60
1, 102849, Note_on_c, 0, 69, 65
1, 102850, Note_off_c, 0, 50, 33
1, 102864, Note_off_c, 0, 61, 56
1, 102905, Note_off_c, 0, 49, 52
1, 103060, Note_on_c, 0, 74, 83
1, 103072, Note_off_c, 0, 69, 61
1, 103083, Note_on_c, 0, 62, 59
1, 103093, Note_on_c, 0, 42, 47
1, 103099, Note_off_c, 0, 73, 60
1, 103103, Note_on_c, 0, 54, 48
1, 103121, Note_on_c, 0, 50, 25
1, 103136, Control_c, 0, 64, 89
1, 103151, Control_c, 0, 64, 63
1, 103163, Note_off_c, 0, 50, 51
1, 103166, Control_c, 0, 64, 0
1, 103210, Control_c, 0, 64, 31
1, 103225, Control_c, 0, 64, 55
1, 103239, Control_c, 0, 64, 71
1, 103254, Control_c, 0, 64, 99
1, 103256, Note_on_c, 0, 50, 57
1, 103269, Control_c, 0, 64, 127
1, 103285, Note_off_c, 0, 54, 59
1, 103395, Note_off_c, 0, 50, 36
1, 103402, Note_on_c, 0, 68, 60
1, 103419, Note_on_c, 0, 56, 56
1, 103506, Note_off_c, 0, 56, 57
1, 103522, Note_on_c, 0, 50, 51
1, 103565, Note_off_c, 0, 42, 35
1, 103610, Note_on_c, 0, 69, 84
1, 103614, Note_off_c, 0, 50, 60
1, 103621, Note_on_c, 0, 57, 74
1, 103640, Note_off_c, 0, 68, 49
1, 103708, Note_off_c, 0, 57, 63
1, 103713, Note_on_c, 0, 50, 73
1, 103789, Note_off_c, 0, 69, 56
1, 103817, Note_on_c, 0, 71, 84
1, 103820, Note_on_c, 0, 59, 79
1, 103833, Note_off_c, 0, 50, 54
1, 103870, Control_c, 0, 64, 93
1, 103885, Control_c, 0, 64, 64
1, 103900, Control_c, 0, 64, 57
1, 103914, Note_off_c, 0, 59, 59
1, 103915, Control_c, 0, 64, 63
1, 103928, Note_on_c, 0, 50, 69
1, 103930, Control_c, 0, 64, 73
1, 103944, Control_c, 0, 64, 107
1, 103959, Control_c, 0, 64, 127
1, 104006, Note_off_c, 0, 50, 60
1, 104011, Note_on_c, 0, 57, 73
1, 104013, Note_on_c, 0, 69, 84
1, 104020, Note_off_c, 0, 74, 61
1, 104045, Note_off_c, 0, 62, 58
1, 104062, Note_off_c, 0, 71, 54
1, 104084, Note_on_c, 0, 50, 74
1, 104087, Note_off_c, 0, 57, 63
1, 104168, Note_off_c, 0, 69, 61
1, 104177, Note_off_c, 0, 50, 61
1, 104179, Note_on_c, 0, 42, 72
1, 104187, Note_on_c, 0, 74, 99
1, 104191, Note_on_c, 0, 62, 89
1, 104194, Note_on_c, 0, 57, 75
1, 104212, Note_off_c, 0, 62, 70
1, 104227, Note_on_c, 0, 50, 71
1, 104234, Note_off_c, 0, 74, 68
1, 104236, Note_off_c, 0, 42, 57
1, 104237, Note_off_c, 0, 57, 63
1, 104260, Note_off_c, 0, 50, 66
1, 104266, Poly_aftertouch_c, 0, 55, 127
1, 104302, Poly_aftertouch_c, 0, 55, 0
1, 104344, Note_on_c, 0, 40, 70
1, 104394, Note_on_c, 0, 45, 72
1, 104418, Note_on_c, 0, 47, 70
1, 104441, Control_c, 0, 64, 89
1, 104447, Note_on_c, 0, 79, 89
1, 104456, Control_c, 0, 64, 63
1, 104456, Note_on_c, 0, 67, 82
1, 104471, Control_c, 0, 64, 39
1, 104486, Control_c, 0, 64, 45
1, 104501, Control_c, 0, 64, 62
1, 104516, Control_c, 0, 64, 86
1, 104525, Note_off_c, 0, 79, 61
1, 104531, Control_c, 0, 64, 127
1, 104575, Note_off_c, 0, 67, 63
1, 104579, Note_on_c, 0, 69, 74
1, 104632, Note_off_c, 0, 69, 62
1, 104669, Note_on_c, 0, 78, 96
1, 104671, Note_on_c, 0, 66, 96
1, 104678, Note_on_c, 0, 48, 88
1, 104722, Note_off_c, 0, 40, 61
1, 104735, Note_off_c, 0, 47, 60
1, 104745, Note_off_c, 0, 66, 62
1, 104749, Note_off_c, 0, 48, 59
1, 104758, Note_off_c, 0, 45, 62
1, 104765, Note_on_c, 0, 69, 75
1, 104768, Note_off_c, 0, 78, 56
1, 104848, Note_on_c, 0, 49, 95
1, 104861, Note_on_c, 0, 77, 95
1, 104862, Note_on_c, 0, 65, 90
1, 104869, Note_off_c, 0, 69, 58
1, 104939, Note_off_c, 0, 77, 62
1, 104941, Note_off_c, 0, 65, 63
1, 104942, Note_on_c, 0, 69, 76
1, 104948, Note_off_c, 0, 49, 62
1, 105110, Note_on_c, 0, 78, 97
1, 105117, Note_on_c, 0, 66, 88
1, 105130, Control_c, 0, 64, 113
1, 105136, Note_on_c, 0, 38, 75
1, 105141, Note_on_c, 0, 45, 68
1, 105143, Note_on_c, 0, 50, 78
1, 105145, Control_c, 0, 64, 65
1, 105160, Control_c, 0, 64, 0
1, 105191, Note_off_c, 0, 38, 63
1, 105203, Note_off_c, 0, 45, 64
1, 105205, Control_c, 0, 64, 34
1, 105219, Control_c, 0, 64, 69
1, 105227, Note_off_c, 0, 50, 64
1, 105234, Control_c, 0, 64, 127
1, 105316, Note_off_c, 0, 69, 59
1, 105339, Note_off_c, 0, 66, 60
1, 105344, Note_on_c, 0, 50, 56
1, 105427, Note_off_c, 0, 50, 58
1, 105444, Note_on_c, 0, 62, 55
1, 105446, Note_on_c, 0, 68, 65
1, 105450, Note_on_c, 0, 66, 64
1, 105458, Note_on_c, 0, 56, 46
1, 105458, Note_on_c, 0, 54, 39
1, 105490, Note_off_c, 0, 62, 56
1, 105498, Note_off_c, 0, 56, 62
1, 105501, Note_off_c, 0, 54, 61
1, 105509, Note_off_c, 0, 66, 48
1, 105521, Note_on_c, 0, 50, 65
1, 105540, Note_off_c, 0, 68, 61
1, 105612, Note_on_c, 0, 54, 63
1, 105614, Note_off_c, 0, 50, 63
1, 105620, Note_on_c, 0, 62, 77
1, 105628, Note_on_c, 0, 69, 92
1, 105633, Note_on_c, 0, 57, 69
1, 105637, Note_on_c, 0, 66, 84
1, 105684, Note_off_c, 0, 62, 63
1, 105694, Note_on_c, 0, 50, 81
1, 105696, Note_off_c, 0, 57, 64
1, 105705, Note_off_c, 0, 54, 61
1, 105720, Note_off_c, 0, 66, 60
1, 105750, Note_off_c, 0, 69, 59
1, 105779, Note_on_c, 0, 71, 95
1, 105781, Note_on_c, 0, 54, 79
1, 105784, Note_on_c, 0, 62, 92
1, 105786, Note_on_c, 0, 66, 94
1, 105798, Note_on_c, 0, 59, 74
1, 105798, Note_off_c, 0, 50, 62
1, 105805, Control_c, 0, 64, 87
1, 105813, Note_on_c, 0, 58, 56
1, 105820, Control_c, 0, 64, 58
1, 105835, Control_c, 0, 64, 52
1, 105839, Note_off_c, 0, 58, 57
1, 105848, Note_off_c, 0, 62, 62
1, 105848, Note_off_c, 0, 78, 54
1, 105849, Control_c, 0, 64, 66
1, 105855, Note_off_c, 0, 59, 64
1, 105857, Note_on_c, 0, 50, 80
1, 105864, Note_off_c, 0, 54, 63
1, 105864, Control_c, 0, 64, 98
1, 105878, Note_off_c, 0, 66, 59
1, 105879, Control_c, 0, 64, 127
1, 105932, Note_on_c, 0, 54, 80
1, 105937, Note_off_c, 0, 50, 63
1, 105943, Note_on_c, 0, 62, 86
1, 105967, Note_on_c, 0, 69, 90
1, 105974, Note_on_c, 0, 66, 91
1, 106035, Note_on_c, 0, 50, 81
1, 106040, Note_off_c, 0, 66, 60
1, 106041, Note_off_c, 0, 62, 62
1, 106065, Note_off_c, 0, 71, 56
1, 106066, Note_off_c, 0, 69, 59
1, 106074, Note_off_c, 0, 54, 64
1, 106087, Note_off_c, 0, 50, 64
1, 106105, Note_on_c, 0, 66, 103
1, 106106, Note_on_c, 0, 78, 107
1, 106108, Note_on_c, 0, 69, 82
1, 106133, Note_off_c, 0, 66, 67
1, 106138, Note_off_c, 0, 69, 67
1, 106152, Note_off_c, 0, 78, 70
1, 106263, Note_on_c, 0, 33, 83
1, 106289, Note_on_c, 0, 38, 80
1, 106329, Note_on_c, 0, 45, 93
1, 106357, Note_on_c, 0, 84, 101
1, 106360, Control_c, 0, 64, 79
1, 106362, Note_on_c, 0, 78, 89
1, 106364, Note_on_c, 0, 72, 92
1, 106366, Note_on_c, 0, 74, 93
1, 106375, Control_c, 0, 64, 47
1, 106390, Control_c, 0, 64, 0
1, 106419, Control_c, 0, 64, 50
1, 106434, Control_c, 0, 64, 85
1, 106445, Note_off_c, 0, 74, 55
1, 106449, Control_c, 0, 64, 127
1, 106455, Note_off_c, 0, 72, 60
1, 106460, Note_off_c, 0, 84, 62
1, 106508, Note_off_c, 0, 78, 58
1, 106559, Note_on_c, 0, 83, 110
1, 106561, Note_on_c, 0, 71, 107
1, 106582, Note_off_c, 0, 45, 55
1, 106594, Note_off_c, 0, 71, 68
1, 106595, Note_off_c, 0, 83, 69
1, 106632, Note_off_c, 0, 38, 61
1, 106640, Note_off_c, 0, 33, 36
1, 106710, Note_on_c, 0, 70, 108
1, 106710, Note_on_c, 0, 82, 104
1, 106739, Note_off_c, 0, 70, 70
1, 106752, Note_off_c, 0, 82, 62
1, 106817, Poly_aftertouch_c, 0, 78, 0
1, 106943, Note_on_c, 0, 83, 105
1, 106945, Note_on_c, 0, 74, 97
1, 106948, Note_on_c, 0, 71, 98
1, 106949, Note_on_c, 0, 79, 89
1, 106954, Control_c, 0, 64, 97
1, 106962, Note_on_c, 0, 31, 78
1, 106962, Note_on_c, 0, 43, 93
1, 106964, Note_on_c, 0, 38, 89
1, 106968, Control_c, 0, 64, 59
1, 106983, Control_c, 0, 64, 0
1, 106989, Note_off_c, 0, 31, 67
1, 106997, Note_off_c, 0, 38, 65
1, 107008, Note_off_c, 0, 43, 63
1, 107012, Control_c, 0, 64, 31
1, 107027, Control_c, 0, 64, 89
1, 107042, Control_c, 0, 64, 127
1, 107143, Note_off_c, 0, 71, 51
1, 107158, Note_on_c, 0, 50, 73
1, 107171, Note_on_c, 0, 43, 54
1, 107198, Note_off_c, 0, 83, 45
1, 107225, Note_off_c, 0, 50, 63
1, 107235, Note_on_c, 0, 55, 78
1, 107238, Note_off_c, 0, 43, 39
1, 107242, Note_off_c, 0, 79, 59
1, 107253, Note_on_c, 0, 47, 37
1, 107255, Note_off_c, 0, 55, 71
1, 107286, Note_off_c, 0, 47, 51
1, 107289, Note_on_c, 0, 83, 104
1, 107290, Note_on_c, 0, 71, 92
1, 107300, Note_off_c, 0, 74, 37
1, 107306, Note_off_c, 0, 71, 73
1, 107321, Note_on_c, 0, 59, 92
1, 107332, Note_off_c, 0, 83, 68
1, 107345, Note_on_c, 0, 50, 63
1, 107371, Note_on_c, 0, 55, 73
1, 107380, Note_on_c, 0, 62, 98
1, 107386, Note_off_c, 0, 59, 64
1, 107393, Note_off_c, 0, 50, 52
1, 107396, Note_off_c, 0, 62, 71
1, 107421, Note_off_c, 0, 55, 65
1, 107462, Note_on_c, 0, 62, 30
1, 107482, Note_off_c, 0, 62, 62
1, 107509, Control_c, 0, 64, 89
1, 107515, Poly_aftertouch_c, 0, 78, 0
1, 107524, Control_c, 0, 64, 57
1, 107530, Note_on_c, 0, 78, 94
1, 107531, Note_on_c, 0, 88, 104
1, 107534, Note_on_c, 0, 76, 106
1, 107539, Note_on_c, 0, 82, 92
1, 107539, Control_c, 0, 64, 0
1, 107554, Control_c, 0, 64, 39
1, 107559, Note_on_c, 0, 42, 112
1, 107566, Note_on_c, 0, 30, 96
1, 107569, Control_c, 0, 64, 65
1, 107569, Note_on_c, 0, 34, 87
1, 107583, Control_c, 0, 64, 127
1, 107591, Note_off_c, 0, 30, 65
1, 107595, Note_off_c, 0, 34, 65
1, 107596, Note_on_c, 0, 32, 42
1, 107596, Note_off_c, 0, 32, 127
1, 107603, Note_off_c, 0, 42, 65
1, 107609, Note_off_c, 0, 88, 60
1, 107610, Note_on_c, 0, 83, 2
1, 107637, Note_off_c, 0, 76, 60
1, 107649, Note_off_c, 0, 83, 40
1, 107688, Note_off_c, 0, 82, 61
1, 107702, Note_off_c, 0, 78, 60
1, 107752, Note_on_c, 0, 86, 101
1, 107753, Note_on_c, 0, 74, 104
1, 107789, Note_off_c, 0, 74, 68
1, 107803, Note_off_c, 0, 86, 63
1, 107908, Note_on_c, 0, 85, 106
1, 107909, Note_on_c, 0, 73, 109
1, 107942, Note_off_c, 0, 73, 68
1, 107957, Note_off_c, 0, 85, 67
1, 108066, Control_c, 0, 64, 62
1, 108080, Note_on_c, 0, 74, 110
1, 108080, Note_on_c, 0, 86, 104
1, 108081, Control_c, 0, 64, 0
1, 108082, Note_on_c, 0, 78, 99
1, 108083, Note_on_c, 0, 83, 103
1, 108087, Note_on_c, 0, 47, 98
1, 108090, Note_on_c, 0, 38, 85
1, 108093, Note_on_c, 0, 35, 79
1, 108095, Note_on_c, 0, 42, 87
1, 108120, Note_off_c, 0, 38, 69
1, 108124, Note_off_c, 0, 35, 64
1, 108125, Control_c, 0, 64, 62
1, 108126, Note_off_c, 0, 42, 67
1, 108131, Note_off_c, 0, 47, 65
1, 108140, Control_c, 0, 64, 127
1, 108197, Poly_aftertouch_c, 0, 39, 0
1, 108230, Note_off_c, 0, 74, 51
1, 108252, Note_on_c, 0, 54, 83
1, 108254, Note_on_c, 0, 47, 76
1, 108273, Note_off_c, 0, 86, 47
1, 108277, Note_off_c, 0, 47, 72
1, 108301, Note_off_c, 0, 54, 60
1, 108305, Note_on_c, 0, 59, 72
1, 108329, Note_off_c, 0, 59, 68
1, 108343, Note_off_c, 0, 83, 61
1, 108370, Note_on_c, 0, 58, 84
1, 108384, Note_on_c, 0, 74, 103
1, 108385, Note_on_c, 0, 86, 100
1, 108393, Note_on_c, 0, 59, 76
1, 108396, Note_on_c, 0, 54, 79
1, 108404, Note_off_c, 0, 78, 62
1, 108406, Note_off_c, 0, 74, 65
1, 108424, Note_on_c, 0, 62, 62
1, 108429, Note_off_c, 0, 86, 69
1, 108444, Note_on_c, 0, 66, 108
1, 108451, Note_off_c, 0, 58, 61
1, 108475, Note_off_c, 0, 66, 70
1, 108484, Note_off_c, 0, 59, 64
1, 108487, Note_off_c, 0, 62, 64
1, 108490, Note_off_c, 0, 54, 62
1, 108534, Note_on_c, 0, 87, 37
1, 108568, Note_off_c, 0, 87, 65
1, 108609, Note_on_c, 0, 37, 82
1, 108622, Control_c, 0, 64, 94
1, 108633, Note_on_c, 0, 91, 106
1, 108633, Note_on_c, 0, 79, 100
1, 108637, Note_on_c, 0, 88, 93
1, 108637, Control_c, 0, 64, 54
1, 108642, Note_on_c, 0, 45, 73
1, 108651, Note_on_c, 0, 52, 105
1, 108652, Control_c, 0, 64, 0
1, 108658, Note_on_c, 0, 42, 29
1, 108666, Control_c, 0, 64, 39
1, 108680, Note_off_c, 0, 42, 59
1, 108681, Control_c, 0, 64, 115
1, 108696, Control_c, 0, 64, 127
1, 108701, Note_off_c, 0, 88, 65
1, 108703, Note_off_c, 0, 79, 67
1, 108709, Note_off_c, 0, 91, 67
1, 108737, Poly_aftertouch_c, 0, 81, 0
1, 108816, Note_on_c, 0, 78, 107
1, 108816, Note_on_c, 0, 90, 98
1, 108851, Note_off_c, 0, 78, 66
1, 108859, Note_off_c, 0, 90, 66
1, 108900, Note_off_c, 0, 52, 57
1, 108918, Note_off_c, 0, 37, 61
1, 108947, Note_off_c, 0, 45, 58
1, 108952, Note_on_c, 0, 88, 97
1, 108953, Note_on_c, 0, 76, 103
1, 108991, Note_off_c, 0, 76, 67
1, 108993, Note_off_c, 0, 88, 65
1, 109090, Note_on_c, 0, 81, 83
1, 109091, Note_on_c, 0, 78, 113
1, 109091, Note_on_c, 0, 90, 104
1, 109093, Note_on_c, 0, 50, 103
1, 109093, Note_on_c, 0, 86, 88
1, 109095, Note_on_c, 0, 38, 86
1, 109096, Control_c, 0, 64, 70
1, 109098, Note_on_c, 0, 45, 96
1, 109111, Control_c, 0, 64, 0
1, 109124, Note_off_c, 0, 38, 68
1, 109128, Note_off_c, 0, 45, 67
1, 109140, Control_c, 0, 64, 68
1, 109141, Note_off_c, 0, 50, 67
1, 109155, Control_c, 0, 64, 127
1, 109169, Note_off_c, 0, 78, 62
1, 109171, Note_off_c, 0, 90, 69
1, 109190, Note_off_c, 0, 81, 65
1, 109193, Note_off_c, 0, 86, 63
1, 109249, Note_on_c, 0, 50, 80
1, 109251, Note_on_c, 0, 57, 78
1, 109284, Note_on_c, 0, 54, 60
1, 109296, Note_off_c, 0, 50, 61
1, 109302, Note_off_c, 0, 57, 64
1, 109313, Note_on_c, 0, 62, 84
1, 109315, Note_off_c, 0, 54, 67
1, 109347, Note_off_c, 0, 62, 67
1, 109412, Note_on_c, 0, 90, 107
1, 109414, Note_on_c, 0, 78, 113
1, 109430, Note_on_c, 0, 57, 63
1, 109434, Note_on_c, 0, 66, 87
1, 109438, Note_on_c, 0, 59, 70
1, 109441, Note_on_c, 0, 69, 90
1, 109443, Note_on_c, 0, 62, 81
1, 109459, Note_off_c, 0, 57, 68
1, 109467, Note_off_c, 0, 59, 66
1, 109470, Note_off_c, 0, 66, 64
1, 109479, Note_off_c, 0, 69, 64
1, 109488, Note_off_c, 0, 62, 68
1, 109503, Note_off_c, 0, 78, 59
1, 109550, Note_off_c, 0, 90, 59
1, 109592, Note_on_c, 0, 79, 109
1, 109593, Note_on_c, 0, 85, 109
1, 109593, Note_on_c, 0, 91, 112
1, 109593, Control_c, 0, 64, 60
1, 109605, Note_on_c, 0, 52, 112
1, 109608, Control_c, 0, 64, 0
1, 109610, Note_on_c, 0, 45, 89
1, 109618, Note_on_c, 0, 41, 72
1, 109618, Note_off_c, 0, 41, 127
1, 109622, Control_c, 0, 64, 39
1, 109623, Note_on_c, 0, 40, 59
1, 109623, Note_off_c, 0, 40, 127
1, 109625, Note_on_c, 0, 90, 29
1, 109626, Note_on_c, 0, 43, 71
1, 109626, Note_on_c, 0, 46, 64
1, 109626, Note_off_c, 0, 46, 127
1, 109637, Control_c, 0, 64, 74
1, 109638, Note_off_c, 0, 45, 69
1, 109640, Note_off_c, 0, 52, 70
1, 109648, Note_off_c, 0, 43, 60
1, 109652, Control_c, 0, 64, 127
1, 109658, Note_off_c, 0, 90, 33
1, 109659, Poly_aftertouch_c, 0, 46, 0
1, 109661, Note_off_c, 0, 91, 67
1, 109662, Note_off_c, 0, 79, 67
1, 109696, Note_off_c, 0, 85, 66
1, 109777, Note_on_c, 0, 90, 102
1, 109781, Note_on_c, 0, 78, 113
1, 109801, Note_off_c, 0, 90, 69
1, 109801, Note_on_c, 0, 77, 77
1, 109803, Note_on_c, 0, 89, 79
1, 109818, Note_off_c, 0, 78, 64
1, 109820, Note_off_c, 0, 89, 67
1, 109823, Note_off_c, 0, 77, 71
1, 109992, Note_on_c, 0, 76, 126
1, 109993, Note_on_c, 0, 88, 106
1, 109998, Note_on_c, 0, 55, 106
1, 110001, Note_on_c, 0, 85, 96
1, 110002, Note_on_c, 0, 81, 87
1, 110004, Note_on_c, 0, 45, 89
1, 110005, Note_on_c, 0, 43, 87
1, 110005, Note_on_c, 0, 49, 85
1, 110019, Note_on_c, 0, 86, 49
1, 110019, Note_off_c, 0, 86, 127
1, 110019, Note_off_c, 0, 81, 72
1, 110033, Note_off_c, 0, 88, 68
1, 110037, Note_off_c, 0, 76, 61
1, 110039, Note_off_c, 0, 43, 60
1, 110061, Note_off_c, 0, 85, 67
1, 110108, Note_off_c, 0, 55, 54
1, 110123, Note_off_c, 0, 45, 44
1, 110174, Note_off_c, 0, 49, 61
1, 110356, Control_c, 0, 64, 64
1, 110371, Control_c, 0, 64, 0
1, 110372, Note_on_c, 0, 81, 118
1, 110372, Note_on_c, 0, 93, 118
1, 110373, Note_on_c, 0, 86, 116
1, 110382, Note_on_c, 0, 54, 107
1, 110390, Note_on_c, 0, 45, 97
1, 110391, Note_on_c, 0, 42, 98
1, 110391, Note_on_c, 0, 50, 93
1, 110400, Control_c, 0, 64, 41
1, 110415, Control_c, 0, 64, 127
1, 110421, Note_off_c, 0, 54, 68
1, 110430, Note_on_c, 0, 90, 22
1, 110431, Note_off_c, 0, 50, 63
1, 110435, Note_off_c, 0, 42, 67
1, 110436, Note_off_c, 0, 45, 66
1, 110463, Note_off_c, 0, 90, 47
1, 110643, Note_on_c, 0, 30, 93
1, 110650, Note_on_c, 0, 38, 92
1, 110762, Note_off_c, 0, 30, 64
1, 110768, Note_on_c, 0, 42, 88
1, 110770, Note_on_c, 0, 33, 71
1, 110779, Note_off_c, 0, 38, 63
1, 110779, Note_off_c, 0, 93, 49
1, 110795, Note_off_c, 0, 33, 60
1, 110803, Note_off_c, 0, 42, 66
1, 110823, Note_off_c, 0, 81, 47
1, 110880, Note_on_c, 0, 45, 88
1, 110899, Note_on_c, 0, 38, 55
1, 110927, Note_on_c, 0, 36, 23
1, 110932, Note_off_c, 0, 38, 53
1, 110934, Note_on_c, 0, 42, 67
1, 110937, Note_off_c, 0, 45, 66
1, 110955, Note_off_c, 0, 42, 71
1, 110961, Note_on_c, 0, 50, 78
1, 110976, Note_off_c, 0, 36, 51
1, 110987, Note_off_c, 0, 50, 67
1, 111041, Note_on_c, 0, 54, 95
1, 111083, Note_on_c, 0, 50, 49
1, 111089, Note_off_c, 0, 54, 62
1, 111104, Note_on_c, 0, 57, 104
1, 111145, Note_off_c, 0, 57, 69
1, 111152, Note_off_c, 0, 50, 64
1, 111223, Note_off_c, 0, 86, 58
1, 111247, Note_on_c, 0, 91, 105
1, 111250, Note_on_c, 0, 79, 100
1, 111292, Note_off_c, 0, 79, 69
1, 111298, Note_off_c, 0, 91, 66
1, 111363, Note_on_c, 0, 30, 92
1, 111389, Note_on_c, 0, 78, 113
1, 111390, Note_on_c, 0, 90, 101
1, 111390, Note_on_c, 0, 32, 55
1, 111426, Note_on_c, 0, 38, 82
1, 111426, Note_off_c, 0, 32, 51
1, 111426, Note_off_c, 0, 78, 65
1, 111436, Note_off_c, 0, 90, 70
1, 111480, Note_off_c, 0, 30, 62
1, 111557, Note_on_c, 0, 45, 106
1, 111560, Note_on_c, 0, 88, 99
1, 111562, Note_on_c, 0, 76, 109
1, 111567, Note_on_c, 0, 81, 93
1, 111599, Note_on_c, 0, 85, 44
1, 111599, Note_off_c, 0, 85, 127
1, 111604, Note_on_c, 0, 37, 21
1, 111620, Note_off_c, 0, 88, 61
1, 111620, Note_off_c, 0, 81, 62
1, 111634, Note_off_c, 0, 76, 58
1, 111670, Note_off_c, 0, 37, 39
1, 111756, Note_on_c, 0, 86, 107
1, 111757, Note_on_c, 0, 74, 112
1, 111790, Note_off_c, 0, 74, 71
1, 111792, Note_off_c, 0, 86, 71
1, 111800, Note_on_c, 0, 80, 28
1, 111800, Note_off_c, 0, 80, 127
1, 111976, Poly_aftertouch_c, 0, 37, 0
1, 111984, Note_on_c, 0, 85, 107
1, 111987, Note_on_c, 0, 73, 119
1, 111991, Note_off_c, 0, 45, 60
1, 112011, Note_off_c, 0, 73, 70
1, 112013, Note_on_c, 0, 80, 54
1, 112013, Note_off_c, 0, 80, 127
1, 112018, Note_off_c, 0, 85, 73
1, 112129, Note_off_c, 0, 38, 30
1, 112253, Note_on_c, 0, 85, 108
1, 112254, Control_c, 0, 64, 65
1, 112255, Note_on_c, 0, 79, 95
1, 112256, Note_on_c, 0, 73, 117
1, 112265, Note_on_c, 0, 43, 107
1, 112269, Note_on_c, 0, 38, 95
1, 112269, Note_on_c, 0, 31, 96
1, 112269, Control_c, 0, 64, 0
1, 112308, Note_off_c, 0, 43, 67
1, 112311, Note_off_c, 0, 31, 65
1, 112311, Note_off_c, 0, 38, 64
1, 112336, Control_c, 0, 64, 60
1, 112351, Control_c, 0, 64, 127
1, 112490, Note_off_c, 0, 85, 60
1, 112511, Note_off_c, 0, 73, 53
1, 112555, Note_on_c, 0, 38, 55
1, 112557, Note_on_c, 0, 47, 59
1, 112594, Note_off_c, 0, 38, 60
1, 112600, Note_off_c, 0, 47, 60
1, 112609, Note_on_c, 0, 43, 49
1, 112618, Note_off_c, 0, 79, 48
1, 112628, Note_off_c, 0, 43, 64
1, 112638, Note_on_c, 0, 50, 57
1, 112666, Note_off_c, 0, 50, 57
1, 112740, Note_on_c, 0, 55, 57
1, 112745, Note_on_c, 0, 53, 52
1, 112777, Note_off_c, 0, 53, 61
1, 112782, Note_off_c, 0, 55, 62
1, 112818, Note_on_c, 0, 59, 62
1, 112830, Note_on_c, 0, 83, 84
1, 112831, Note_on_c, 0, 71, 88
1, 112838, Note_off_c, 0, 59, 62
1, 112894, Note_on_c, 0, 62, 83
1, 112924, Note_on_c, 0, 59, 57
1, 112947, Note_on_c, 0, 67, 104
1, 112947, Note_off_c, 0, 62, 56
1, 112963, Note_off_c, 0, 71, 53
1, 112985, Note_off_c, 0, 67, 70
1, 112989, Note_off_c, 0, 83, 52
1, 112999, Note_off_c, 0, 59, 64
1, 113087, Note_on_c, 0, 71, 102
1, 113089, Note_on_c, 0, 83, 101
1, 113133, Note_off_c, 0, 71, 66
1, 113135, Note_off_c, 0, 83, 63
1, 113212, Note_on_c, 0, 81, 101
1, 113214, Note_on_c, 0, 34, 100
1, 113215, Note_on_c, 0, 69, 105
1, 113270, Note_on_c, 0, 42, 84
1, 113282, Note_off_c, 0, 69, 56
1, 113283, Note_off_c, 0, 81, 61
1, 113337, Control_c, 0, 64, 101
1, 113352, Control_c, 0, 64, 61
1, 113365, Note_on_c, 0, 79, 92
1, 113367, Control_c, 0, 64, 0
1, 113369, Note_on_c, 0, 67, 103
1, 113375, Note_on_c, 0, 49, 110
1, 113376, Note_on_c, 0, 73, 94
1, 113387, Note_on_c, 0, 76, 65
1, 113396, Control_c, 0, 64, 41
1, 113405, Note_off_c, 0, 76, 65
1, 113411, Control_c, 0, 64, 72
1, 113417, Note_off_c, 0, 67, 66
1, 113426, Control_c, 0, 64, 127
1, 113429, Note_off_c, 0, 79, 64
1, 113453, Note_off_c, 0, 73, 61
1, 113466, Poly_aftertouch_c, 0, 37, 127
1, 113492, Poly_aftertouch_c, 0, 37, 0
1, 113532, Note_on_c, 0, 78, 107
1, 113533, Note_on_c, 0, 66, 108
1, 113565, Note_off_c, 0, 78, 69
1, 113566, Note_off_c, 0, 66, 70
1, 113602, Note_off_c, 0, 49, 59
1, 113624, Note_off_c, 0, 34, 56
1, 113638, Poly_aftertouch_c, 0, 73, 0
1, 113648, Note_on_c, 0, 64, 109
1, 113648, Note_on_c, 0, 76, 104
1, 113673, Note_off_c, 0, 42, 58
1, 113721, Note_on_c, 0, 35, 84
1, 113723, Note_on_c, 0, 47, 88
1, 113739, Note_on_c, 0, 42, 87
1, 113743, Note_off_c, 0, 76, 56
1, 113765, Note_off_c, 0, 64, 55
1, 113856, Note_off_c, 0, 35, 61
1, 113861, Note_on_c, 0, 76, 89
1, 113863, Control_c, 0, 64, 113
1, 113867, Note_on_c, 0, 64, 85
1, 113869, Note_on_c, 0, 66, 79
1, 113870, Note_on_c, 0, 71, 76
1, 113878, Control_c, 0, 64, 67
1, 113893, Control_c, 0, 64, 0
1, 113910, Note_off_c, 0, 42, 64
1, 113925, Note_on_c, 0, 35, 64
1, 113936, Note_off_c, 0, 47, 62
1, 113937, Control_c, 0, 64, 49
1, 113942, Note_on_c, 0, 38, 62
1, 113952, Control_c, 0, 64, 74
1, 113967, Control_c, 0, 64, 127
1, 113969, Note_on_c, 0, 42, 75
1, 114000, Note_off_c, 0, 35, 62
1, 114006, Note_off_c, 0, 38, 62
1, 114015, Note_on_c, 0, 41, 39
1, 114015, Note_on_c, 0, 47, 75
1, 114017, Note_off_c, 0, 76, 55
1, 114019, Note_off_c, 0, 64, 62
1, 114033, Note_off_c, 0, 42, 62
1, 114037, Note_off_c, 0, 47, 71
1, 114054, Note_off_c, 0, 41, 46
1, 114131, Note_on_c, 0, 42, 60
1, 114150, Note_off_c, 0, 71, 55
1, 114168, Note_on_c, 0, 62, 101
1, 114170, Note_on_c, 0, 74, 101
1, 114171, Note_on_c, 0, 50, 48
1, 114189, Note_on_c, 0, 54, 83
1, 114192, Note_off_c, 0, 42, 63
1, 114201, Note_off_c, 0, 62, 62
1, 114201, Note_off_c, 0, 50, 63
1, 114201, Note_off_c, 0, 66, 65
1, 114213, Note_off_c, 0, 54, 68
1, 114222, Note_off_c, 0, 74, 67
1, 114296, Note_on_c, 0, 59, 74
1, 114311, Note_on_c, 0, 50, 32
1, 114326, Note_on_c, 0, 54, 63
1, 114341, Note_off_c, 0, 50, 54
1, 114356, Note_on_c, 0, 62, 100
1, 114361, Note_off_c, 0, 59, 51
1, 114379, Note_off_c, 0, 54, 57
1, 114392, Note_off_c, 0, 62, 68
1, 114406, Note_on_c, 0, 55, 31
1, 114446, Note_off_c, 0, 55, 49
1, 114505, Note_on_c, 0, 66, 100
1, 114507, Note_on_c, 0, 78, 101
1, 114543, Note_off_c, 0, 66, 68
1, 114548, Note_off_c, 0, 78, 63
1, 114634, Note_on_c, 0, 44, 75
1, 114660, Note_on_c, 0, 76, 97
1, 114663, Note_on_c, 0, 64, 102
1, 114673, Note_on_c, 0, 50, 75
1, 114708, Note_off_c, 0, 64, 65
1, 114732, Note_off_c, 0, 76, 59
1, 114734, Note_on_c, 0, 54, 79
1, 114875, Note_on_c, 0, 74, 102
1, 114893, Note_on_c, 0, 62, 86
1, 114894, Note_on_c, 0, 71, 80
1, 114896, Note_on_c, 0, 66, 82
1, 114909, Control_c, 0, 64, 119
1, 114924, Control_c, 0, 64, 71
1, 114939, Control_c, 0, 64, 37
1, 114943, Note_on_c, 0, 59, 83
1, 114954, Control_c, 0, 64, 0
1, 114983, Control_c, 0, 64, 44
1, 114998, Control_c, 0, 64, 69
1, 115013, Control_c, 0, 64, 127
1, 115015, Note_off_c, 0, 62, 62
1, 115024, Note_off_c, 0, 74, 65
1, 115027, Note_off_c, 0, 71, 58
1, 115057, Note_off_c, 0, 66, 62
1, 115145, Note_on_c, 0, 73, 101
1, 115150, Note_on_c, 0, 61, 94
1, 115186, Note_off_c, 0, 61, 63
1, 115195, Note_off_c, 0, 73, 62
1, 115267, Note_off_c, 0, 44, 20
1, 115309, Note_off_c, 0, 59, 51
1, 115341, Note_on_c, 0, 71, 99
1, 115349, Note_on_c, 0, 59, 81
1, 115485, Note_off_c, 0, 54, 49
1, 115497, Note_off_c, 0, 59, 58
1, 115498, Note_off_c, 0, 50, 31
1, 115531, Note_off_c, 0, 71, 53
1, 115617, Note_on_c, 0, 71, 97
1, 115642, Note_on_c, 0, 66, 62
1, 115644, Note_on_c, 0, 62, 59
1, 115647, Note_on_c, 0, 59, 64
1, 115668, Note_on_c, 0, 50, 44
1, 115673, Control_c, 0, 64, 78
1, 115674, Note_on_c, 0, 45, 40
1, 115688, Control_c, 0, 64, 52
1, 115690, Note_on_c, 0, 54, 50
1, 115703, Control_c, 0, 64, 0
1, 115747, Control_c, 0, 64, 45
1, 115762, Control_c, 0, 64, 65
1, 115769, Note_off_c, 0, 59, 58
1, 115776, Control_c, 0, 64, 84
1, 115791, Control_c, 0, 64, 127
1, 115855, Note_off_c, 0, 71, 58
1, 115866, Note_off_c, 0, 45, 40
1, 115879, Note_off_c, 0, 50, 59
1, 115894, Note_off_c, 0, 54, 61
1, 115921, Note_off_c, 0, 66, 63
1, 115947, Note_on_c, 0, 69, 87
1, 115962, Note_on_c, 0, 57, 68
1, 116013, Note_off_c, 0, 57, 59
1, 116022, Note_off_c, 0, 69, 59
1, 116135, Note_on_c, 0, 67, 90
1, 116145, Note_on_c, 0, 55, 84
1, 116186, Note_off_c, 0, 55, 66
1, 116201, Note_off_c, 0, 62, 56
1, 116301, Note_on_c, 0, 62, 60
1, 116305, Note_on_c, 0, 66, 102
1, 116312, Note_on_c, 0, 57, 66
1, 116314, Note_on_c, 0, 54, 66
1, 116317, Control_c, 0, 64, 75
1, 116332, Control_c, 0, 64, 59
1, 116347, Control_c, 0, 64, 64
1, 116352, Note_off_c, 0, 67, 48
1, 116362, Control_c, 0, 64, 78
1, 116375, Note_off_c, 0, 62, 62
1, 116376, Note_off_c, 0, 57, 63
1, 116377, Control_c, 0, 64, 127
1, 116390, Note_off_c, 0, 54, 59
1, 116392, Note_off_c, 0, 66, 64
1, 116480, Note_on_c, 0, 64, 95
1, 116493, Note_on_c, 0, 52, 85
1, 116531, Note_off_c, 0, 52, 56
1, 116559, Note_off_c, 0, 64, 59
1, 116562, Note_on_c, 0, 54, 10
1, 116594, Note_off_c, 0, 54, 44
1, 116644, Note_on_c, 0, 62, 98
1, 116656, Note_on_c, 0, 50, 82
1, 116678, Note_off_c, 0, 50, 68
1, 116702, Note_off_c, 0, 62, 62
1, 116854, Note_on_c, 0, 69, 91
1, 116866, Note_on_c, 0, 67, 72
1, 116888, Note_on_c, 0, 57, 59
1, 116905, Note_on_c, 0, 61, 77
1, 116916, Note_on_c, 0, 64, 35
1, 116918, Control_c, 0, 64, 73
1, 116921, Note_on_c, 0, 49, 61
1, 116933, Control_c, 0, 64, 42
1, 116948, Control_c, 0, 64, 0
1, 116968, Note_off_c, 0, 64, 0
1, 116968, Note_on_c, 0, 64, 25
1, 116977, Control_c, 0, 64, 33
1, 116985, Note_off_c, 0, 49, 62
1, 116992, Control_c, 0, 64, 57
1, 117006, Control_c, 0, 64, 74
1, 117021, Control_c, 0, 64, 120
1, 117036, Control_c, 0, 64, 127
1, 117039, Note_off_c, 0, 61, 64
1, 117047, Note_off_c, 0, 57, 64
1, 117101, Poly_aftertouch_c, 0, 51, 127
1, 117116, Note_on_c, 0, 59, 86
1, 117127, Note_on_c, 0, 47, 63
1, 117136, Poly_aftertouch_c, 0, 51, 0
1, 117183, Note_off_c, 0, 47, 61
1, 117247, Note_off_c, 0, 59, 54
1, 117456, Note_on_c, 0, 61, 67
1, 117461, Note_on_c, 0, 57, 57
1, 117474, Note_on_c, 0, 45, 50
1, 117483, Control_c, 0, 64, 115
1, 117497, Control_c, 0, 64, 76
1, 117512, Control_c, 0, 64, 64
1, 117527, Control_c, 0, 64, 65
1, 117542, Control_c, 0, 64, 71
1, 117556, Control_c, 0, 64, 90
1, 117565, Note_off_c, 0, 64, 42
1, 117575, Note_off_c, 0, 57, 62
1, 117578, Control_c, 0, 64, 127
1, 117611, Note_off_c, 0, 67, 63
1, 117614, Note_off_c, 0, 61, 64
1, 117618, Note_off_c, 0, 45, 61
1, 117629, Note_off_c, 0, 69, 59
1, 117987, Note_on_c, 0, 71, 93
1, 118012, Note_on_c, 0, 62, 61
1, 118023, Note_on_c, 0, 66, 48
1, 118023, Note_on_c, 0, 59, 64
1, 118053, Note_on_c, 0, 38, 43
1, 118081, Note_on_c, 0, 50, 26
1, 118097, Control_c, 0, 64, 83
1, 118112, Control_c, 0, 64, 60
1, 118127, Control_c, 0, 64, 0
1, 118171, Control_c, 0, 64, 34
1, 118186, Control_c, 0, 64, 53
1, 118190, Note_off_c, 0, 38, 52
1, 118201, Control_c, 0, 64, 66
1, 118216, Control_c, 0, 64, 78
1, 118231, Control_c, 0, 64, 99
1, 118245, Control_c, 0, 64, 127
1, 118330, Note_off_c, 0, 50, 40
1, 118345, Note_off_c, 0, 71, 53
1, 118363, Note_off_c, 0, 59, 54
1, 118466, Note_on_c, 0, 50, 37
1, 118467, Note_on_c, 0, 54, 44
1, 118471, Note_off_c, 0, 66, 63
1, 118527, Note_off_c, 0, 54, 53
1, 118530, Note_off_c, 0, 50, 53
1, 118734, Note_on_c, 0, 54, 38
1, 118753, Note_on_c, 0, 50, 26
1, 118802, Note_off_c, 0, 54, 45
1, 118807, Note_off_c, 0, 50, 46
1, 118824, Note_on_c, 0, 69, 58
1, 118845, Note_on_c, 0, 57, 43
1, 118863, Note_off_c, 0, 62, 48
1, 118917, Note_off_c, 0, 57, 50
1, 119043, Note_on_c, 0, 54, 27
1, 119064, Note_off_c, 0, 69, 37
1, 119096, Poly_aftertouch_c, 0, 50, 127
1, 119149, Poly_aftertouch_c, 0, 50, 0
1, 119177, Note_off_c, 0, 54, 36
1, 119367, Note_on_c, 0, 54, 46
1, 119387, Note_on_c, 0, 50, 33
1, 119416, Note_off_c, 0, 54, 58
1, 119435, Note_off_c, 0, 50, 45
1, 119497, Note_on_c, 0, 54, 59
1, 119504, Note_on_c, 0, 50, 34
1, 119515, Note_on_c, 0, 69, 97
1, 119532, Note_on_c, 0, 57, 75
1, 119551, Note_off_c, 0, 50, 60
1, 119562, Note_off_c, 0, 54, 55
1, 119581, Note_off_c, 0, 57, 50
1, 119624, Note_on_c, 0, 54, 79
1, 119669, Note_off_c, 0, 69, 50
1, 119734, Note_on_c, 0, 52, 68
1, 119734, Note_on_c, 0, 50, 63
1, 119740, Note_off_c, 0, 54, 60
1, 119786, Note_on_c, 0, 55, 62
1, 119793, Note_on_c, 0, 69, 94
1, 119805, Note_on_c, 0, 67, 78
1, 119812, Note_on_c, 0, 61, 66
1, 119828, Note_on_c, 0, 57, 63
1, 119835, Note_on_c, 0, 64, 57
1, 119838, Control_c, 0, 64, 90
1, 119853, Control_c, 0, 64, 60
1, 119868, Control_c, 0, 64, 0
1, 119912, Control_c, 0, 64, 49
1, 119927, Control_c, 0, 64, 72
1, 119942, Control_c, 0, 64, 127
1, 119984, Note_off_c, 0, 57, 53
1, 119998, Note_off_c, 0, 69, 54
1, 120044, Note_off_c, 0, 67, 52
1, 120066, Note_off_c, 0, 64, 63
1, 120067, Note_off_c, 0, 61, 63
1, 120127, Note_on_c, 0, 71, 98
1, 120148, Note_on_c, 0, 59, 55
1, 120170, Note_off_c, 0, 59, 62
1, 120172, Note_off_c, 0, 71, 67
1, 120398, Note_off_c, 0, 55, 51
1, 120448, Note_off_c, 0, 50, 61
1, 120452, Note_off_c, 0, 52, 55
1, 120687, Note_on_c, 0, 69, 96
1, 120706, Note_on_c, 0, 57, 71
1, 120733, Note_off_c, 0, 57, 66
1, 120773, Note_off_c, 0, 69, 58
1, 120856, Note_on_c, 0, 71, 86
1, 120881, Note_on_c, 0, 62, 53
1, 120884, Note_on_c, 0, 66, 62
1, 120888, Note_on_c, 0, 69, 49
1, 120897, Note_on_c, 0, 59, 57
1, 120907, Note_off_c, 0, 69, 42
1, 120928, Control_c, 0, 64, 79
1, 120929, Note_on_c, 0, 38, 40
1, 120943, Control_c, 0, 64, 57
1, 120958, Control_c, 0, 64, 0
1, 120965, Note_on_c, 0, 50, 14
1, 121002, Control_c, 0, 64, 41
1, 121017, Control_c, 0, 64, 61
1, 121032, Control_c, 0, 64, 78
1, 121044, Note_off_c, 0, 38, 55
1, 121046, Control_c, 0, 64, 107
1, 121061, Control_c, 0, 64, 127
1, 121121, Note_off_c, 0, 50, 48
1, 121189, Note_off_c, 0, 59, 49
1, 121240, Control_c, 0, 67, 44
1, 121255, Control_c, 0, 67, 62
1, 121269, Control_c, 0, 67, 85
1, 121284, Control_c, 0, 67, 111
1, 121292, Note_on_c, 0, 50, 32
1, 121299, Control_c, 0, 67, 127
1, 121302, Note_on_c, 0, 54, 42
1, 121330, Note_off_c, 0, 71, 55
1, 121376, Note_off_c, 0, 50, 58
1, 121380, Note_off_c, 0, 54, 53
1, 121464, Note_off_c, 0, 66, 61
1, 121528, Note_on_c, 0, 54, 39
1, 121534, Note_on_c, 0, 50, 35
1, 121601, Note_off_c, 0, 54, 49
1, 121610, Note_off_c, 0, 50, 50
1, 121662, Note_on_c, 0, 69, 59
1, 121677, Note_on_c, 0, 57, 49
1, 121692, Note_off_c, 0, 62, 37
1, 121730, Note_off_c, 0, 57, 63
1, 121760, Note_off_c, 0, 69, 57
1, 121834, Note_on_c, 0, 54, 38
1, 121850, Note_on_c, 0, 50, 29
1, 121897, Note_off_c, 0, 54, 52
1, 121899, Control_c, 0, 67, 121
1, 121900, Note_off_c, 0, 50, 52
1, 121913, Control_c, 0, 67, 102
1, 121928, Control_c, 0, 67, 78
1, 121943, Control_c, 0, 67, 48
1, 121958, Control_c, 0, 67, 0
1, 122214, Note_on_c, 0, 54, 46
1, 122221, Note_on_c, 0, 50, 40
1, 122258, Note_off_c, 0, 54, 62
1, 122261, Note_off_c, 0, 50, 60
1, 122318, Note_on_c, 0, 54, 59
1, 122338, Note_on_c, 0, 50, 50
1, 122391, Note_on_c, 0, 69, 95
1, 122409, Note_off_c, 0, 50, 43
1, 122412, Note_on_c, 0, 57, 72
1, 122437, Note_off_c, 0, 54, 37
1, 122479, Note_off_c, 0, 57, 45
1, 122493, Note_on_c, 0, 54, 77
1, 122510, Note_on_c, 0, 50, 69
1, 122545, Note_off_c, 0, 69, 51
1, 122594, Note_on_c, 0, 52, 78
1, 122616, Note_off_c, 0, 54, 59
1, 122639, Note_on_c, 0, 55, 69
1, 122646, Note_on_c, 0, 69, 96
1, 122653, Note_on_c, 0, 67, 81
1, 122658, Note_on_c, 0, 57, 81
1, 122660, Note_on_c, 0, 61, 72
1, 122668, Note_on_c, 0, 64, 71
1, 122678, Control_c, 0, 64, 83
1, 122692, Control_c, 0, 64, 52
1, 122707, Control_c, 0, 64, 0
1, 122736, Control_c, 0, 64, 33
1, 122751, Control_c, 0, 64, 67
1, 122766, Control_c, 0, 64, 117
1, 122781, Control_c, 0, 64, 127
1, 122810, Note_off_c, 0, 69, 53
1, 122848, Note_off_c, 0, 57, 55
1, 122911, Note_off_c, 0, 67, 60
1, 122928, Note_off_c, 0, 64, 63
1, 122932, Note_on_c, 0, 71, 99
1, 122941, Note_on_c, 0, 59, 97
1, 122944, Note_off_c, 0, 61, 65
1, 122962, Note_off_c, 0, 59, 71
1, 122983, Note_off_c, 0, 71, 68
1, 123111, Note_off_c, 0, 50, 61
1, 123121, Note_off_c, 0, 52, 61
1, 123212, Note_off_c, 0, 55, 60
1, 123465, Note_on_c, 0, 57, 67
1, 123521, Note_on_c, 0, 69, 102
1, 123588, Note_off_c, 0, 57, 56
1, 123651, Note_off_c, 0, 69, 49
1, 123758, Note_on_c, 0, 78, 92
1, 123779, Note_on_c, 0, 69, 71
1, 123787, Note_on_c, 0, 72, 62
1, 123791, Note_on_c, 0, 63, 56
1, 123795, Note_on_c, 0, 54, 38
1, 123801, Note_on_c, 0, 57, 50
1, 123820, Control_c, 0, 64, 75
1, 123824, Note_on_c, 0, 50, 22
1, 123835, Control_c, 0, 64, 41
1, 123850, Control_c, 0, 64, 0
1, 123895, Control_c, 0, 64, 57
1, 123895, Note_off_c, 0, 50, 0
1, 123895, Note_on_c, 0, 50, 2
1, 123909, Control_c, 0, 64, 75
1, 123923, Control_c, 0, 64, 127
1, 123928, Note_off_c, 0, 54, 55
1, 123936, Note_off_c, 0, 57, 63
1, 123947, Note_off_c, 0, 72, 60
1, 123952, Note_off_c, 0, 63, 62
1, 123965, Note_off_c, 0, 69, 57
1, 124031, Note_off_c, 0, 78, 55
1, 124130, Note_on_c, 0, 55, 58
1, 124161, Note_on_c, 0, 64, 61
1, 124169, Note_on_c, 0, 59, 60
1, 124175, Control_c, 0, 64, 101
1, 124178, Note_on_c, 0, 76, 91
1, 124188, Note_on_c, 0, 71, 82
1, 124190, Control_c, 0, 64, 84
1, 124190, Note_on_c, 0, 67, 77
1, 124205, Control_c, 0, 64, 85
1, 124214, Note_off_c, 0, 67, 68
1, 124220, Control_c, 0, 64, 97
1, 124226, Note_off_c, 0, 71, 61
1, 124228, Note_off_c, 0, 55, 61
1, 124235, Control_c, 0, 64, 127
1, 124241, Note_off_c, 0, 76, 64
1, 124244, Note_off_c, 0, 59, 61
1, 124260, Note_off_c, 0, 64, 61
1, 124442, Note_on_c, 0, 74, 102
1, 124450, Control_c, 0, 64, 71
1, 124453, Note_on_c, 0, 71, 83
1, 124456, Note_on_c, 0, 65, 79
1, 124462, Note_on_c, 0, 59, 55
1, 124465, Control_c, 0, 64, 0
1, 124468, Note_on_c, 0, 62, 63
1, 124473, Note_on_c, 0, 56, 60
1, 124509, Control_c, 0, 64, 53
1, 124524, Control_c, 0, 64, 82
1, 124531, Note_off_c, 0, 50, 55
1, 124539, Control_c, 0, 64, 127
1, 124540, Note_off_c, 0, 62, 60
1, 124542, Note_off_c, 0, 56, 61
1, 124554, Note_off_c, 0, 65, 58
1, 124575, Note_off_c, 0, 59, 63
1, 124589, Note_off_c, 0, 74, 54
1, 124601, Note_off_c, 0, 71, 54
1, 124673, Note_on_c, 0, 73, 103
1, 124685, Note_on_c, 0, 64, 84
1, 124687, Note_on_c, 0, 61, 81
1, 124688, Note_on_c, 0, 69, 73
1, 124690, Note_on_c, 0, 57, 36
1, 124705, Note_off_c, 0, 64, 72
1, 124708, Note_off_c, 0, 69, 70
1, 124717, Note_off_c, 0, 73, 69
1, 124721, Note_off_c, 0, 57, 48
1, 124741, Note_off_c, 0, 61, 64
1, 124854, Note_on_c, 0, 50, 50
1, 124873, Note_on_c, 0, 52, 42
1, 124889, Note_on_c, 0, 71, 93
1, 124898, Note_on_c, 0, 55, 44
1, 124901, Note_on_c, 0, 67, 80
1, 124902, Note_on_c, 0, 61, 85
1, 124909, Control_c, 0, 64, 98
1, 124924, Control_c, 0, 64, 63
1, 124938, Control_c, 0, 64, 0
1, 124983, Control_c, 0, 64, 42
1, 124998, Control_c, 0, 64, 64
1, 125013, Control_c, 0, 64, 85
1, 125015, Note_off_c, 0, 61, 62
1, 125015, Note_off_c, 0, 67, 59
1, 125028, Control_c, 0, 64, 127
1, 125066, Note_off_c, 0, 71, 55
1, 125104, Note_on_c, 0, 69, 96
1, 125116, Note_on_c, 0, 66, 83
1, 125119, Note_on_c, 0, 62, 73
1, 125120, Note_on_c, 0, 57, 59
1, 125121, Note_on_c, 0, 54, 65
1, 125126, Note_off_c, 0, 55, 42
1, 125142, Note_off_c, 0, 62, 66
1, 125150, Note_off_c, 0, 66, 60
1, 125163, Note_off_c, 0, 69, 65
1, 125164, Note_off_c, 0, 52, 37
1, 125177, Note_off_c, 0, 54, 62
1, 125180, Note_off_c, 0, 57, 62
1, 125407, Note_on_c, 0, 67, 99
1, 125427, Note_on_c, 0, 61, 63
1, 125433, Note_on_c, 0, 64, 57
1, 125459, Note_on_c, 0, 55, 36
1, 125472, Note_on_c, 0, 58, 47
1, 125510, Control_c, 0, 64, 95
1, 125525, Control_c, 0, 64, 67
1, 125540, Control_c, 0, 64, 45
1, 125555, Control_c, 0, 64, 0
1, 125629, Control_c, 0, 64, 29
1, 125631, Note_off_c, 0, 58, 59
1, 125643, Control_c, 0, 64, 41
1, 125658, Control_c, 0, 64, 47
1, 125673, Control_c, 0, 64, 51
1, 125687, Control_c, 0, 64, 56
1, 125689, Note_on_c, 0, 54, 54
1, 125702, Control_c, 0, 64, 63
1, 125714, Note_on_c, 0, 57, 43
1, 125717, Control_c, 0, 64, 70
1, 125720, Note_off_c, 0, 55, 39
1, 125724, Note_off_c, 0, 64, 62
1, 125732, Control_c, 0, 64, 77
1, 125740, Note_on_c, 0, 66, 85
1, 125747, Control_c, 0, 64, 86
1, 125752, Note_on_c, 0, 62, 68
1, 125757, Note_off_c, 0, 61, 60
1, 125761, Note_off_c, 0, 67, 54
1, 125761, Control_c, 0, 64, 96
1, 125776, Control_c, 0, 64, 106
1, 125791, Note_off_c, 0, 62, 62
1, 125791, Control_c, 0, 64, 116
1, 125806, Control_c, 0, 64, 127
1, 125827, Note_off_c, 0, 66, 65
1, 125845, Note_off_c, 0, 50, 56
1, 125888, Note_off_c, 0, 57, 54
1, 125985, Note_on_c, 0, 64, 88
1, 126002, Note_on_c, 0, 58, 64
1, 126004, Note_off_c, 0, 54, 51
1, 126006, Note_on_c, 0, 61, 57
1, 126018, Note_on_c, 0, 50, 28
1, 126027, Note_on_c, 0, 55, 30
1, 126081, Control_c, 0, 64, 113
1, 126096, Control_c, 0, 64, 102
1, 126110, Control_c, 0, 64, 94
1, 126125, Control_c, 0, 64, 87
1, 126140, Control_c, 0, 64, 83
1, 126155, Control_c, 0, 64, 79
1, 126170, Control_c, 0, 64, 76
1, 126184, Control_c, 0, 64, 73
1, 126199, Control_c, 0, 64, 70
1, 126214, Control_c, 0, 64, 67
1, 126229, Control_c, 0, 64, 63
1, 126244, Control_c, 0, 64, 59
1, 126250, Note_on_c, 0, 54, 44
1, 126259, Control_c, 0, 64, 52
1, 126265, Note_off_c, 0, 55, 54
1, 126269, Note_on_c, 0, 57, 35
1, 126270, Note_off_c, 0, 61, 54
1, 126274, Control_c, 0, 64, 40
1, 126289, Control_c, 0, 64, 0
1, 126289, Note_off_c, 0, 58, 62
1, 126295, Note_on_c, 0, 62, 72
1, 126304, Note_on_c, 0, 59, 57
1, 126317, Note_off_c, 0, 64, 60
1, 126333, Control_c, 0, 64, 35
1, 126348, Control_c, 0, 64, 53
1, 126363, Control_c, 0, 64, 65
1, 126378, Control_c, 0, 64, 75
1, 126392, Control_c, 0, 64, 88
1, 126401, Note_off_c, 0, 59, 60
1, 126407, Control_c, 0, 64, 98
1, 126408, Note_off_c, 0, 54, 62
1, 126422, Control_c, 0, 64, 104
1, 126434, Note_off_c, 0, 62, 63
1, 126437, Control_c, 0, 64, 107
1, 126455, Note_off_c, 0, 57, 42
1, 126598, Note_on_c, 0, 62, 75
1, 126624, Note_on_c, 0, 59, 49
1, 126625, Note_on_c, 0, 56, 47
1, 126647, Note_on_c, 0, 53, 40
1, 126666, Control_c, 0, 64, 103
1, 126681, Control_c, 0, 64, 87
1, 126696, Control_c, 0, 64, 69
1, 126711, Control_c, 0, 64, 51
1, 126725, Control_c, 0, 64, 0
1, 126740, Control_c, 0, 64, 31
1, 126755, Control_c, 0, 64, 48
1, 126770, Control_c, 0, 64, 63
1, 126785, Control_c, 0, 64, 76
1, 126799, Control_c, 0, 64, 95
1, 126814, Control_c, 0, 64, 127
1, 126905, Control_c, 0, 67, 41
1, 126920, Control_c, 0, 67, 46
1, 126934, Control_c, 0, 67, 47
1, 126962, Note_off_c, 0, 59, 36
1, 126994, Control_c, 0, 67, 47
1, 127003, Note_off_c, 0, 62, 30
1, 127009, Note_on_c, 0, 61, 67
1, 127023, Control_c, 0, 67, 46
1, 127028, Note_off_c, 0, 56, 55
1, 127038, Control_c, 0, 67, 45
1, 127042, Note_on_c, 0, 57, 37
1, 127048, Note_off_c, 0, 53, 40
1, 127053, Control_c, 0, 67, 44
1, 127068, Note_on_c, 0, 52, 38
1, 127068, Control_c, 0, 64, 105
1, 127072, Note_on_c, 0, 55, 27
1, 127082, Control_c, 0, 64, 78
1, 127082, Control_c, 0, 67, 44
1, 127097, Control_c, 0, 64, 60
1, 127097, Control_c, 0, 67, 42
1, 127112, Control_c, 0, 64, 44
1, 127112, Control_c, 0, 67, 41
1, 127127, Control_c, 0, 64, 46
1, 127127, Control_c, 0, 67, 41
1, 127141, Control_c, 0, 64, 59
1, 127141, Control_c, 0, 67, 40
1, 127156, Control_c, 0, 64, 70
1, 127171, Control_c, 0, 64, 89
1, 127186, Control_c, 0, 64, 127
1, 127192, Note_off_c, 0, 57, 50
1, 127231, Control_c, 0, 67, 38
1, 127237, Note_off_c, 0, 61, 63
1, 127261, Note_off_c, 0, 55, 37
1, 127275, Control_c, 0, 67, 39
1, 127281, Note_off_c, 0, 52, 60
1, 127290, Control_c, 0, 67, 39
1, 127312, Control_c, 0, 67, 41
1, 127320, Note_off_c, 0, 50, 39
1, 127371, Control_c, 0, 67, 40
1, 127401, Control_c, 0, 67, 41
1, 127430, Control_c, 0, 67, 40
1, 127445, Control_c, 0, 67, 37
1, 127460, Control_c, 0, 67, 0
1, 127726, Note_on_c, 0, 59, 78
1, 127778, Note_on_c, 0, 54, 35
1, 127782, Note_on_c, 0, 50, 33
1, 127792, Note_on_c, 0, 38, 36
1, 127809, Note_on_c, 0, 45, 28
1, 127831, Control_c, 0, 64, 92
1, 127846, Control_c, 0, 64, 69
1, 127861, Control_c, 0, 64, 45
1, 127876, Control_c, 0, 64, 0
1, 127905, Control_c, 0, 64, 41
1, 127920, Control_c, 0, 64, 58
1, 127935, Control_c, 0, 64, 71
1, 127939, Note_off_c, 0, 38, 52
1, 127950, Control_c, 0, 64, 89
1, 127964, Control_c, 0, 64, 127
1, 127965, Note_off_c, 0, 45, 53
1, 128019, Note_off_c, 0, 54, 58
1, 128076, Control_c, 0, 67, 40
1, 128088, Note_off_c, 0, 50, 44
1, 128090, Control_c, 0, 67, 48
1, 128105, Control_c, 0, 67, 54
1, 128120, Control_c, 0, 67, 62
1, 128135, Control_c, 0, 67, 73
1, 128150, Control_c, 0, 67, 88
1, 128164, Control_c, 0, 67, 107
1, 128179, Control_c, 0, 67, 127
1, 128308, Note_on_c, 0, 54, 35
1, 128330, Note_on_c, 0, 50, 14
1, 128406, Note_off_c, 0, 54, 51
1, 128419, Note_off_c, 0, 50, 39
1, 128584, Note_on_c, 0, 54, 25
1, 128590, Note_on_c, 0, 50, 38
1, 128656, Note_off_c, 0, 50, 53
1, 128661, Note_on_c, 0, 57, 58
1, 128675, Note_off_c, 0, 54, 38
1, 128689, Note_off_c, 0, 59, 56
1, 128814, Note_off_c, 0, 57, 56
1, 128875, Note_on_c, 0, 54, 29
1, 128903, Note_on_c, 0, 50, 4
1, 128992, Note_off_c, 0, 50, 36
1, 128993, Note_off_c, 0, 54, 37
1, 129227, Note_on_c, 0, 54, 47
1, 129233, Note_on_c, 0, 50, 41
1, 129272, Note_off_c, 0, 54, 61
1, 129274, Note_off_c, 0, 50, 60
1, 129299, Control_c, 0, 67, 123
1, 129314, Control_c, 0, 67, 116
1, 129328, Control_c, 0, 67, 110
1, 129341, Note_on_c, 0, 54, 61
1, 129343, Control_c, 0, 67, 100
1, 129357, Note_on_c, 0, 50, 42
1, 129358, Control_c, 0, 67, 81
1, 129373, Control_c, 0, 67, 47
1, 129388, Control_c, 0, 67, 0
1, 129412, Note_on_c, 0, 57, 87
1, 129428, Note_off_c, 0, 54, 53
1, 129513, Note_on_c, 0, 54, 75
1, 129525, Note_off_c, 0, 50, 35
1, 129573, Note_off_c, 0, 57, 51
1, 129648, Note_on_c, 0, 52, 61
1, 129648, Note_on_c, 0, 50, 56
1, 129660, Note_off_c, 0, 54, 60
1, 129665, Note_on_c, 0, 55, 64
1, 129703, Note_on_c, 0, 57, 86
1, 129765, Control_c, 0, 64, 86
1, 129780, Control_c, 0, 64, 58
1, 129795, Control_c, 0, 64, 0
1, 129854, Control_c, 0, 64, 38
1, 129869, Control_c, 0, 64, 49
1, 129884, Control_c, 0, 64, 56
1, 129899, Control_c, 0, 64, 63
1, 129914, Control_c, 0, 64, 70
1, 129928, Control_c, 0, 64, 78
1, 129943, Control_c, 0, 64, 83
1, 129958, Control_c, 0, 64, 87
1, 129973, Control_c, 0, 64, 95
1, 129988, Control_c, 0, 64, 124
1, 129997, Note_off_c, 0, 57, 61
1, 130003, Control_c, 0, 64, 127
1, 130013, Note_on_c, 0, 59, 92
1, 130109, Note_off_c, 0, 59, 64
1, 130184, Note_off_c, 0, 55, 55
1, 130328, Note_off_c, 0, 52, 57
1, 130342, Note_off_c, 0, 50, 61
1, 130611, Note_on_c, 0, 57, 91
1, 130828, Note_on_c, 0, 59, 78
1, 130831, Note_off_c, 0, 57, 62
1, 130860, Note_on_c, 0, 54, 52
1, 130885, Note_on_c, 0, 50, 27
1, 130898, Note_on_c, 0, 38, 32
1, 130900, Note_on_c, 0, 45, 34
1, 130930, Control_c, 0, 64, 96
1, 130945, Control_c, 0, 64, 69
1, 130960, Control_c, 0, 64, 41
1, 130975, Control_c, 0, 64, 0
1, 131019, Control_c, 0, 64, 36
1, 131034, Control_c, 0, 64, 60
1, 131056, Control_c, 0, 64, 74
1, 131064, Note_off_c, 0, 38, 56
1, 131067, Note_off_c, 0, 45, 57
1, 131071, Control_c, 0, 64, 94
1, 131086, Control_c, 0, 64, 127
1, 131131, Note_off_c, 0, 54, 60
1, 131192, Note_off_c, 0, 50, 39
1, 131204, Control_c, 0, 67, 40
1, 131219, Control_c, 0, 67, 45
1, 131234, Control_c, 0, 67, 52
1, 131249, Control_c, 0, 67, 63
1, 131264, Control_c, 0, 67, 76
1, 131279, Control_c, 0, 67, 93
1, 131294, Control_c, 0, 67, 112
1, 131308, Control_c, 0, 67, 127
1, 131356, Note_on_c, 0, 54, 40
1, 131403, Poly_aftertouch_c, 0, 50, 127
1, 131431, Note_off_c, 0, 54, 47
1, 131466, Poly_aftertouch_c, 0, 50, 0
1, 131625, Note_on_c, 0, 50, 28
1, 131630, Note_on_c, 0, 54, 42
1, 131739, Note_off_c, 0, 54, 37
1, 131748, Note_off_c, 0, 50, 0
1, 131754, Note_on_c, 0, 57, 60
1, 131793, Note_off_c, 0, 59, 61
1, 131815, Poly_aftertouch_c, 0, 50, 0
1, 131922, Note_on_c, 0, 50, 23
1, 131925, Note_on_c, 0, 54, 38
1, 131958, Note_off_c, 0, 57, 61
1, 132152, Note_off_c, 0, 54, 38
1, 132186, Note_off_c, 0, 50, 37
1, 132367, Note_on_c, 0, 54, 40
1, 132379, Note_on_c, 0, 50, 33
1, 132426, Note_off_c, 0, 54, 55
1, 132435, Note_off_c, 0, 50, 50
1, 132471, Control_c, 0, 67, 112
1, 132486, Control_c, 0, 67, 86
1, 132495, Note_on_c, 0, 54, 50
1, 132501, Control_c, 0, 67, 57
1, 132504, Note_on_c, 0, 50, 31
1, 132516, Control_c, 0, 67, 36
1, 132531, Control_c, 0, 67, 0
1, 132574, Note_off_c, 0, 54, 58
1, 132579, Note_on_c, 0, 57, 74
1, 132683, Note_on_c, 0, 54, 68
1, 132706, Note_off_c, 0, 57, 56
1, 132712, Note_off_c, 0, 50, 43
1, 132811, Note_off_c, 0, 54, 56
1, 132832, Note_on_c, 0, 50, 37
1, 132842, Note_on_c, 0, 55, 53
1, 132848, Note_on_c, 0, 52, 40
1, 132873, Note_on_c, 0, 57, 71
1, 132968, Control_c, 0, 64, 80
1, 132983, Control_c, 0, 64, 56
1, 132998, Control_c, 0, 64, 0
1, 133042, Control_c, 0, 64, 32
1, 133057, Control_c, 0, 64, 49
1, 133071, Control_c, 0, 64, 61
1, 133086, Control_c, 0, 64, 64
1, 133101, Control_c, 0, 64, 66
1, 133116, Control_c, 0, 64, 69
1, 133131, Control_c, 0, 64, 73
1, 133145, Control_c, 0, 64, 78
1, 133160, Control_c, 0, 64, 86
1, 133175, Control_c, 0, 64, 98
1, 133190, Control_c, 0, 64, 127
1, 133297, Note_on_c, 0, 59, 74
1, 133298, Note_off_c, 0, 57, 62
1, 133308, Note_off_c, 0, 55, 57
1, 133349, Note_off_c, 0, 50, 58
1, 133366, Note_off_c, 0, 52, 57
1, 133645, Note_off_c, 0, 59, 62
1, 134086, Note_on_c, 0, 57, 89
1, 134219, Note_off_c, 0, 57, 50
1, 134398, Note_on_c, 0, 64, 89
1, 134423, Note_on_c, 0, 54, 65
1, 134426, Note_on_c, 0, 57, 59
1, 134449, Note_on_c, 0, 45, 44
1, 134450, Note_on_c, 0, 38, 40
1, 134524, Control_c, 0, 64, 90
1, 134539, Control_c, 0, 64, 64
1, 134554, Control_c, 0, 64, 0
1, 134613, Control_c, 0, 64, 42
1, 134628, Control_c, 0, 64, 59
1, 134642, Control_c, 0, 64, 71
1, 134657, Control_c, 0, 64, 84
1, 134672, Control_c, 0, 64, 99
1, 134687, Control_c, 0, 64, 108
1, 134702, Control_c, 0, 64, 122
1, 134716, Control_c, 0, 64, 127
1, 134798, Note_off_c, 0, 64, 57
1, 134860, Note_off_c, 0, 57, 56
1, 134865, Note_on_c, 0, 62, 77
1, 134951, Note_off_c, 0, 62, 63
1, 135005, Note_off_c, 0, 54, 60
1, 135169, Note_on_c, 0, 61, 76
1, 135196, Note_on_c, 0, 50, 51
1, 135197, Note_on_c, 0, 53, 49
1, 135207, Note_on_c, 0, 44, 60
1, 135220, Note_off_c, 0, 45, 60
1, 135228, Control_c, 0, 64, 84
1, 135243, Control_c, 0, 64, 58
1, 135258, Control_c, 0, 64, 0
1, 135303, Control_c, 0, 64, 53
1, 135318, Control_c, 0, 64, 77
1, 135333, Control_c, 0, 64, 127
1, 135388, Note_off_c, 0, 53, 59
1, 135401, Note_off_c, 0, 61, 60
1, 135415, Note_on_c, 0, 59, 88
1, 135428, Note_off_c, 0, 50, 62
1, 135461, Note_off_c, 0, 59, 67
1, 135494, Note_off_c, 0, 38, 54
1, 135665, Note_on_c, 0, 64, 90
1, 135688, Note_on_c, 0, 54, 65
1, 135690, Note_on_c, 0, 57, 56
1, 135708, Note_on_c, 0, 38, 46
1, 135723, Note_on_c, 0, 45, 48
1, 135741, Control_c, 0, 64, 92
1, 135756, Control_c, 0, 64, 64
1, 135758, Note_off_c, 0, 44, 60
1, 135770, Control_c, 0, 64, 0
1, 135830, Control_c, 0, 64, 50
1, 135844, Control_c, 0, 64, 65
1, 135859, Control_c, 0, 64, 76
1, 135874, Control_c, 0, 64, 91
1, 135889, Control_c, 0, 64, 108
1, 135903, Control_c, 0, 64, 127
1, 135944, Note_off_c, 0, 57, 61
1, 135947, Note_on_c, 0, 62, 75
1, 135947, Note_off_c, 0, 64, 60
1, 135986, Note_off_c, 0, 62, 61
1, 136026, Note_off_c, 0, 54, 57
1, 136152, Note_on_c, 0, 44, 53
1, 136183, Note_on_c, 0, 61, 72
1, 136215, Note_on_c, 0, 53, 46
1, 136220, Note_on_c, 0, 50, 46
1, 136227, Note_off_c, 0, 45, 38
1, 136244, Control_c, 0, 64, 95
1, 136259, Control_c, 0, 64, 68
1, 136274, Control_c, 0, 64, 43
1, 136295, Control_c, 0, 64, 0
1, 136325, Control_c, 0, 64, 46
1, 136340, Control_c, 0, 64, 65
1, 136355, Control_c, 0, 64, 80
1, 136370, Control_c, 0, 64, 108
1, 136385, Control_c, 0, 64, 127
1, 136428, Note_on_c, 0, 59, 78
1, 136433, Note_off_c, 0, 53, 62
1, 136442, Note_off_c, 0, 61, 52
1, 136446, Note_off_c, 0, 50, 60
1, 136493, Note_off_c, 0, 59, 65
1, 136504, Note_off_c, 0, 38, 59
1, 136754, Note_on_c, 0, 64, 76
1, 136787, Note_on_c, 0, 57, 44
1, 136795, Note_on_c, 0, 54, 45
1, 136802, Note_on_c, 0, 38, 37
1, 136832, Note_on_c, 0, 45, 34
1, 136876, Note_off_c, 0, 44, 30
1, 136890, Control_c, 0, 64, 102
1, 136905, Control_c, 0, 64, 78
1, 136919, Control_c, 0, 64, 62
1, 136934, Control_c, 0, 64, 40
1, 136949, Control_c, 0, 64, 0
1, 137038, Control_c, 0, 64, 37
1, 137060, Control_c, 0, 64, 51
1, 137075, Control_c, 0, 64, 61
1, 137090, Control_c, 0, 64, 67
1, 137105, Control_c, 0, 64, 70
1, 137119, Control_c, 0, 64, 72
1, 137134, Control_c, 0, 64, 73
1, 137149, Control_c, 0, 64, 76
1, 137164, Control_c, 0, 64, 80
1, 137179, Control_c, 0, 64, 84
1, 137193, Control_c, 0, 64, 89
1, 137208, Control_c, 0, 64, 94
1, 137214, Note_on_c, 0, 62, 64
1, 137216, Note_off_c, 0, 57, 57
1, 137224, Control_c, 0, 64, 99
1, 137234, Note_off_c, 0, 64, 60
1, 137239, Control_c, 0, 64, 105
1, 137254, Control_c, 0, 64, 112
1, 137268, Control_c, 0, 64, 124
1, 137272, Note_off_c, 0, 62, 61
1, 137283, Control_c, 0, 64, 127
1, 137315, Note_off_c, 0, 54, 60
1, 137559, Note_on_c, 0, 61, 60
1, 137597, Note_on_c, 0, 53, 26
1, 137610, Note_on_c, 0, 44, 31
1, 137610, Note_on_c, 0, 50, 27
1, 137668, Control_c, 0, 64, 90
1, 137683, Control_c, 0, 64, 71
1, 137688, Note_off_c, 0, 45, 38
1, 137698, Control_c, 0, 64, 55
1, 137713, Control_c, 0, 64, 33
1, 137728, Control_c, 0, 64, 0
1, 137772, Control_c, 0, 64, 41
1, 137787, Control_c, 0, 64, 55
1, 137809, Control_c, 0, 64, 66
1, 137824, Control_c, 0, 64, 77
1, 137839, Control_c, 0, 64, 92
1, 137849, Note_off_c, 0, 53, 40
1, 137854, Control_c, 0, 64, 105
1, 137868, Control_c, 0, 64, 127
1, 137882, Note_off_c, 0, 61, 50
1, 137950, Note_off_c, 0, 50, 42
1, 138117, Note_off_c, 0, 44, 41
1, 138208, Note_off_c, 0, 38, 40
1, 138367, Note_on_c, 0, 59, 71
1, 138431, Note_off_c, 0, 59, 63
1, 138736, Control_c, 0, 67, 36
1, 138753, Note_on_c, 0, 59, 68
1, 138766, Control_c, 0, 67, 36
1, 138780, Control_c, 0, 67, 37
1, 138795, Control_c, 0, 67, 38
1, 138796, Note_on_c, 0, 50, 41
1, 138802, Note_on_c, 0, 54, 37
1, 138810, Control_c, 0, 67, 39
1, 138814, Note_on_c, 0, 38, 37
1, 138818, Note_on_c, 0, 45, 31
1, 138841, Control_c, 0, 64, 104
1, 138841, Control_c, 0, 67, 39
1, 138855, Control_c, 0, 64, 75
1, 138855, Control_c, 0, 67, 41
1, 138870, Control_c, 0, 64, 55
1, 138870, Control_c, 0, 67, 56
1, 138884, Control_c, 0, 64, 0
1, 138884, Control_c, 0, 67, 73
1, 138899, Control_c, 0, 67, 86
1, 138913, Control_c, 0, 64, 41
1, 138913, Control_c, 0, 67, 94
1, 138928, Control_c, 0, 64, 59
1, 138928, Control_c, 0, 67, 97
1, 138943, Control_c, 0, 64, 73
1, 138943, Control_c, 0, 67, 101
1, 138958, Control_c, 0, 64, 93
1, 138958, Control_c, 0, 67, 111
1, 138973, Control_c, 0, 64, 127
1, 138973, Control_c, 0, 67, 124
1, 138987, Control_c, 0, 67, 127
1, 138995, Note_off_c, 0, 38, 39
1, 138997, Note_off_c, 0, 54, 58
1, 139006, Note_off_c, 0, 45, 43
1, 139020, Note_off_c, 0, 50, 40
1, 139154, Note_on_c, 0, 54, 47
1, 139171, Note_on_c, 0, 50, 41
1, 139202, Note_on_c, 0, 45, 26
1, 139216, Note_on_c, 0, 38, 26
1, 139217, Note_off_c, 0, 50, 59
1, 139238, Note_off_c, 0, 45, 58
1, 139242, Note_off_c, 0, 54, 53
1, 139258, Note_off_c, 0, 38, 48
1, 139763, Note_on_c, 0, 38, 40
1, 139785, Note_on_c, 0, 45, 31
1, 139799, Note_on_c, 0, 54, 39
1, 139841, Note_on_c, 0, 50, 37
1, 139876, Note_off_c, 0, 38, 53
1, 139887, Note_off_c, 0, 50, 61
1, 139911, Note_off_c, 0, 45, 34
1, 139925, Note_off_c, 0, 54, 51
1, 140352, Control_c, 0, 67, 101
1, 140367, Control_c, 0, 67, 78
1, 140382, Control_c, 0, 67, 57
1, 140396, Control_c, 0, 67, 0
1, 140406, Note_off_c, 0, 59, 34
1, 140683, Note_on_c, 0, 57, 57
1, 140819, Control_c, 0, 67, 52
1, 140834, Control_c, 0, 67, 86
1, 140849, Control_c, 0, 67, 110
1, 140864, Control_c, 0, 67, 126
1, 140899, Note_off_c, 0, 57, 60
1, 140928, Note_on_c, 0, 59, 47
1, 140991, Note_off_c, 0, 59, 58
1, 141029, Note_on_c, 0, 57, 42
1, 141056, Note_off_c, 0, 57, 58
1, 141093, Note_on_c, 0, 59, 50
1, 141128, Note_off_c, 0, 59, 65
1, 141139, Note_on_c, 0, 57, 64
1, 141178, Note_off_c, 0, 57, 62
1, 141202, Note_on_c, 0, 59, 70
1, 141248, Note_off_c, 0, 59, 58
1, 141273, Note_on_c, 0, 57, 62
1, 141327, Note_off_c, 0, 57, 61
1, 141333, Note_on_c, 0, 56, 73
1, 141413, Control_c, 0, 64, 98
1, 141428, Control_c, 0, 64, 73
1, 141442, Control_c, 0, 64, 43
1, 141457, Control_c, 0, 64, 0
1, 141557, Note_off_c, 0, 56, 64
1, 141559, Note_on_c, 0, 57, 66
1, 141731, Control_c, 0, 67, 76
1, 141745, Note_on_c, 0, 59, 64
1, 141746, Control_c, 0, 67, 0
1, 141748, Note_off_c, 0, 57, 65
1, 141790, Control_c, 0, 64, 34
1, 141805, Control_c, 0, 64, 45
1, 141820, Control_c, 0, 64, 55
1, 141834, Control_c, 0, 64, 61
1, 141849, Control_c, 0, 64, 65
1, 141864, Control_c, 0, 64, 69
1, 141879, Control_c, 0, 64, 74
1, 141894, Control_c, 0, 64, 84
1, 141896, Note_off_c, 0, 59, 59
1, 141909, Control_c, 0, 64, 100
1, 141915, Note_on_c, 0, 62, 67
1, 141923, Control_c, 0, 64, 127
1, 141944, Note_off_c, 0, 62, 65
1, 142081, Note_on_c, 0, 66, 79
1, 142092, Note_on_c, 0, 62, 38
1, 142108, Note_on_c, 0, 50, 38
1, 142116, Note_on_c, 0, 57, 35
1, 142132, Control_c, 0, 64, 82
1, 142147, Control_c, 0, 64, 59
1, 142162, Control_c, 0, 64, 0
1, 142192, Control_c, 0, 64, 35
1, 142206, Control_c, 0, 64, 56
1, 142221, Control_c, 0, 64, 72
1, 142236, Control_c, 0, 64, 97
1, 142251, Control_c, 0, 64, 127
1, 142268, Note_off_c, 0, 50, 35
1, 142271, Note_on_c, 0, 69, 83
1, 142293, Note_off_c, 0, 57, 49
1, 142296, Note_off_c, 0, 66, 63
1, 142305, Note_off_c, 0, 62, 40
1, 142493, Note_on_c, 0, 71, 89
1, 142513, Note_off_c, 0, 69, 60
1, 142707, Note_off_c, 0, 71, 61
1, 142734, Note_on_c, 0, 74, 87
1, 142785, Note_off_c, 0, 74, 65
1, 143111, Note_on_c, 0, 78, 75
1, 143184, Control_c, 0, 64, 93
1, 143199, Control_c, 0, 64, 66
1, 143214, Control_c, 0, 64, 0
1, 143288, Control_c, 0, 64, 46
1, 143303, Control_c, 0, 64, 60
1, 143303, Control_c, 0, 67, 40
1, 143318, Control_c, 0, 64, 69
1, 143318, Control_c, 0, 67, 52
1, 143321, Note_on_c, 0, 80, 55
1, 143321, Note_off_c, 0, 78, 56
1, 143333, Control_c, 0, 64, 78
1, 143333, Control_c, 0, 67, 62
1, 143348, Control_c, 0, 64, 87
1, 143348, Control_c, 0, 67, 73
1, 143354, Note_off_c, 0, 80, 65
1, 143362, Control_c, 0, 64, 92
1, 143362, Control_c, 0, 67, 93
1, 143377, Control_c, 0, 64, 97
1, 143377, Control_c, 0, 67, 122
1, 143380, Note_on_c, 0, 78, 46
1, 143392, Control_c, 0, 64, 102
1, 143392, Control_c, 0, 67, 127
1, 143407, Control_c, 0, 64, 109
1, 143419, Note_off_c, 0, 78, 61
1, 143421, Control_c, 0, 64, 119
1, 143435, Note_on_c, 0, 80, 59
1, 143436, Control_c, 0, 64, 127
1, 143465, Note_off_c, 0, 80, 68
1, 143499, Note_on_c, 0, 78, 63
1, 143527, Note_off_c, 0, 78, 64
1, 143533, Note_on_c, 0, 80, 62
1, 143562, Note_off_c, 0, 80, 66
1, 143566, Note_on_c, 0, 71, 62
1, 143571, Note_on_c, 0, 62, 43
1, 143578, Note_on_c, 0, 68, 39
1, 143596, Note_on_c, 0, 78, 65
1, 143611, Note_off_c, 0, 62, 62
1, 143618, Note_off_c, 0, 68, 64
1, 143628, Note_off_c, 0, 78, 60
1, 143643, Note_on_c, 0, 80, 56
1, 143674, Note_off_c, 0, 80, 63
1, 143675, Note_off_c, 0, 71, 62
1, 143715, Note_on_c, 0, 78, 47
1, 143742, Note_on_c, 0, 80, 64
1, 143742, Note_off_c, 0, 78, 52
1, 143768, Note_off_c, 0, 80, 67
1, 143813, Note_on_c, 0, 78, 65
1, 143844, Note_off_c, 0, 78, 60
1, 143862, Note_on_c, 0, 74, 71
1, 143864, Note_on_c, 0, 80, 55
1, 143888, Note_off_c, 0, 74, 67
1, 143894, Note_off_c, 0, 80, 65
1, 143924, Note_on_c, 0, 78, 62
1, 143949, Note_on_c, 0, 74, 75
1, 143953, Note_off_c, 0, 78, 63
1, 143960, Note_on_c, 0, 80, 65
1, 143974, Note_off_c, 0, 74, 68
1, 143988, Note_off_c, 0, 80, 65
1, 144018, Note_on_c, 0, 78, 69
1, 144054, Note_off_c, 0, 78, 57
1, 144073, Note_on_c, 0, 80, 56
1, 144103, Note_off_c, 0, 80, 66
1, 144129, Note_on_c, 0, 78, 62
1, 144157, Note_off_c, 0, 78, 62
1, 144169, Note_on_c, 0, 80, 65
1, 144196, Note_off_c, 0, 80, 69
1, 144216, Note_on_c, 0, 74, 75
1, 144230, Note_on_c, 0, 78, 69
1, 144243, Note_off_c, 0, 74, 63
1, 144257, Note_off_c, 0, 78, 62
1, 144272, Note_on_c, 0, 80, 68
1, 144299, Note_off_c, 0, 80, 63
1, 144308, Note_on_c, 0, 74, 83
1, 144328, Note_off_c, 0, 74, 72
1, 144336, Note_on_c, 0, 78, 69
1, 144370, Note_off_c, 0, 78, 57
1, 144386, Note_on_c, 0, 80, 59
1, 144415, Note_off_c, 0, 80, 67
1, 144439, Note_on_c, 0, 78, 64
1, 144469, Note_off_c, 0, 78, 61
1, 144481, Note_on_c, 0, 80, 64
1, 144509, Note_off_c, 0, 80, 66
1, 144543, Note_on_c, 0, 78, 74
1, 144583, Note_off_c, 0, 78, 57
1, 144604, Note_on_c, 0, 80, 55
1, 144624, Note_off_c, 0, 80, 63
1, 144656, Note_on_c, 0, 78, 66
1, 144691, Note_off_c, 0, 78, 55
1, 144693, Note_on_c, 0, 71, 80
1, 144700, Note_on_c, 0, 80, 57
1, 144702, Note_on_c, 0, 68, 63
1, 144709, Note_on_c, 0, 62, 53
1, 144718, Note_off_c, 0, 80, 65
1, 144732, Note_off_c, 0, 62, 60
1, 144734, Note_off_c, 0, 68, 64
1, 144736, Note_off_c, 0, 71, 64
1, 144753, Note_on_c, 0, 78, 56
1, 144756, Control_c, 0, 67, 120
1, 144771, Control_c, 0, 67, 88
1, 144785, Control_c, 0, 67, 54
1, 144791, Note_on_c, 0, 80, 75
1, 144794, Note_off_c, 0, 78, 60
1, 144800, Control_c, 0, 67, 0
1, 144827, Note_off_c, 0, 80, 57
1, 144854, Note_on_c, 0, 78, 70
1, 144898, Note_off_c, 0, 78, 58
1, 144914, Note_on_c, 0, 80, 59
1, 144941, Note_off_c, 0, 80, 68
1, 144958, Note_on_c, 0, 78, 59
1, 144991, Note_off_c, 0, 78, 62
1, 144992, Note_on_c, 0, 74, 83
1, 145010, Note_on_c, 0, 80, 65
1, 145024, Note_off_c, 0, 74, 60
1, 145036, Note_off_c, 0, 80, 66
1, 145056, Note_on_c, 0, 78, 74
1, 145083, Note_on_c, 0, 74, 92
1, 145089, Note_off_c, 0, 78, 58
1, 145098, Note_on_c, 0, 80, 72
1, 145124, Note_off_c, 0, 74, 66
1, 145131, Note_off_c, 0, 80, 58
1, 145170, Note_on_c, 0, 78, 71
1, 145196, Note_off_c, 0, 78, 64
1, 145220, Note_on_c, 0, 80, 61
1, 145247, Note_off_c, 0, 80, 69
1, 145263, Note_on_c, 0, 78, 73
1, 145304, Note_off_c, 0, 78, 56
1, 145324, Note_on_c, 0, 80, 70
1, 145352, Note_off_c, 0, 80, 65
1, 145375, Note_on_c, 0, 74, 91
1, 145378, Note_on_c, 0, 78, 74
1, 145407, Note_off_c, 0, 78, 57
1, 145417, Note_off_c, 0, 74, 62
1, 145438, Note_on_c, 0, 80, 61
1, 145465, Note_off_c, 0, 80, 69
1, 145476, Note_on_c, 0, 74, 96
1, 145489, Note_on_c, 0, 78, 75
1, 145509, Note_off_c, 0, 74, 69
1, 145511, Note_off_c, 0, 78, 66
1, 145542, Note_on_c, 0, 80, 65
1, 145568, Note_off_c, 0, 80, 69
1, 145595, Note_on_c, 0, 78, 72
1, 145622, Note_off_c, 0, 78, 60
1, 145647, Note_on_c, 0, 80, 64
1, 145674, Note_off_c, 0, 80, 67
1, 145711, Note_on_c, 0, 78, 65
1, 145730, Note_off_c, 0, 78, 62
1, 145748, Note_on_c, 0, 80, 65
1, 145776, Note_off_c, 0, 80, 68
1, 145802, Note_on_c, 0, 78, 71
1, 145842, Note_off_c, 0, 78, 56
1, 145859, Control_c, 0, 67, 49
1, 145864, Note_on_c, 0, 80, 54
1, 145873, Control_c, 0, 67, 72
1, 145885, Note_off_c, 0, 80, 61
1, 145888, Control_c, 0, 67, 100
1, 145903, Control_c, 0, 67, 127
1, 145920, Note_on_c, 0, 78, 63
1, 145951, Note_off_c, 0, 78, 60
1, 145957, Note_on_c, 0, 80, 66
1, 145985, Note_off_c, 0, 80, 64
1, 146021, Note_on_c, 0, 78, 72
1, 146065, Note_on_c, 0, 68, 54
1, 146066, Note_on_c, 0, 71, 59
1, 146066, Note_off_c, 0, 78, 54
1, 146074, Note_on_c, 0, 62, 41
1, 146096, Note_on_c, 0, 80, 50
1, 146116, Note_off_c, 0, 80, 61
1, 146121, Note_off_c, 0, 62, 59
1, 146141, Note_off_c, 0, 68, 62
1, 146149, Note_on_c, 0, 78, 58
1, 146156, Note_off_c, 0, 71, 62
1, 146176, Note_off_c, 0, 78, 63
1, 146191, Note_on_c, 0, 80, 63
1, 146218, Note_off_c, 0, 80, 68
1, 146246, Note_on_c, 0, 78, 64
1, 146276, Note_off_c, 0, 78, 61
1, 146308, Note_on_c, 0, 80, 53
1, 146338, Note_off_c, 0, 80, 58
1, 146372, Note_on_c, 0, 78, 58
1, 146396, Note_off_c, 0, 78, 61
1, 146419, Note_on_c, 0, 80, 58
1, 146448, Note_off_c, 0, 80, 68
1, 146467, Note_on_c, 0, 78, 67
1, 146501, Note_off_c, 0, 78, 58
1, 146535, Note_on_c, 0, 80, 46
1, 146555, Note_on_c, 0, 76, 74
1, 146556, Note_off_c, 0, 80, 61
1, 146590, Note_on_c, 0, 78, 57
1, 146596, Note_off_c, 0, 76, 62
1, 146609, Note_off_c, 0, 78, 62
1, 146625, Note_on_c, 0, 74, 83
1, 146630, Note_on_c, 0, 80, 63
1, 146653, Control_c, 0, 67, 102
1, 146655, Note_off_c, 0, 80, 69
1, 146668, Control_c, 0, 67, 68
1, 146682, Note_on_c, 0, 78, 68
1, 146683, Control_c, 0, 67, 44
1, 146697, Control_c, 0, 67, 0
1, 146720, Note_off_c, 0, 74, 64
1, 146725, Note_off_c, 0, 78, 59
1, 146726, Note_on_c, 0, 73, 85
1, 146742, Note_on_c, 0, 80, 60
1, 146778, Note_off_c, 0, 80, 67
1, 146809, Note_on_c, 0, 78, 60
1, 146840, Note_off_c, 0, 78, 63
1, 146850, Note_on_c, 0, 80, 64
1, 146874, Note_off_c, 0, 80, 68
1, 146916, Note_on_c, 0, 78, 54
1, 146937, Note_off_c, 0, 78, 59
1, 146942, Note_on_c, 0, 80, 69
1, 146966, Note_off_c, 0, 80, 69
1, 147003, Note_on_c, 0, 78, 74
1, 147043, Note_off_c, 0, 78, 57
1, 147051, Note_on_c, 0, 80, 61
1, 147078, Note_off_c, 0, 80, 66
1, 147095, Note_on_c, 0, 74, 82
1, 147114, Note_off_c, 0, 73, 64
1, 147117, Note_on_c, 0, 78, 57
1, 147212, Note_off_c, 0, 78, 62
1, 147218, Note_on_c, 0, 77, 71
1, 147283, Control_c, 0, 64, 81
1, 147298, Control_c, 0, 64, 58
1, 147313, Control_c, 0, 64, 0
1, 147338, Note_off_c, 0, 77, 60
1, 147358, Control_c, 0, 64, 54
1, 147367, Note_on_c, 0, 78, 74
1, 147372, Control_c, 0, 64, 72
1, 147387, Control_c, 0, 64, 115
1, 147395, Note_off_c, 0, 74, 66
1, 147402, Control_c, 0, 64, 127
1, 147452, Note_off_c, 0, 78, 60
1, 147615, Note_on_c, 0, 81, 68
1, 147665, Note_on_c, 0, 78, 79
1, 147706, Control_c, 0, 64, 83
1, 147721, Control_c, 0, 64, 57
1, 147736, Control_c, 0, 64, 0
1, 147781, Control_c, 0, 64, 53
1, 147796, Control_c, 0, 64, 72
1, 147810, Control_c, 0, 64, 104
1, 147825, Control_c, 0, 64, 127
1, 147826, Note_on_c, 0, 83, 65
1, 147838, Note_off_c, 0, 81, 57
1, 147869, Note_off_c, 0, 83, 60
1, 147896, Note_off_c, 0, 78, 58
1, 147917, Note_on_c, 0, 81, 52
1, 147950, Note_off_c, 0, 81, 63
1, 147972, Note_on_c, 0, 83, 59
1, 147993, Note_off_c, 0, 83, 62
1, 148002, Control_c, 0, 67, 37
1, 148017, Control_c, 0, 67, 42
1, 148032, Control_c, 0, 67, 52
1, 148037, Note_on_c, 0, 81, 48
1, 148047, Control_c, 0, 67, 63
1, 148062, Control_c, 0, 67, 75
1, 148063, Note_off_c, 0, 81, 56
1, 148067, Note_on_c, 0, 83, 66
1, 148076, Control_c, 0, 67, 89
1, 148091, Control_c, 0, 67, 108
1, 148094, Note_off_c, 0, 83, 66
1, 148106, Control_c, 0, 67, 127
1, 148139, Note_on_c, 0, 81, 57
1, 148159, Note_off_c, 0, 81, 63
1, 148172, Note_on_c, 0, 83, 59
1, 148189, Note_on_c, 0, 66, 52
1, 148192, Note_on_c, 0, 62, 43
1, 148195, Note_off_c, 0, 83, 60
1, 148197, Note_on_c, 0, 69, 50
1, 148237, Note_on_c, 0, 81, 61
1, 148265, Note_off_c, 0, 81, 67
1, 148270, Note_on_c, 0, 83, 63
1, 148305, Note_off_c, 0, 83, 64
1, 148342, Note_on_c, 0, 81, 61
1, 148368, Note_off_c, 0, 62, 53
1, 148371, Note_off_c, 0, 81, 68
1, 148386, Note_on_c, 0, 83, 60
1, 148407, Note_off_c, 0, 83, 60
1, 148447, Note_on_c, 0, 81, 60
1, 148474, Note_on_c, 0, 83, 72
1, 148477, Note_off_c, 0, 81, 64
1, 148507, Note_off_c, 0, 83, 56
1, 148550, Note_on_c, 0, 81, 62
1, 148579, Note_off_c, 0, 81, 68
1, 148595, Note_on_c, 0, 83, 54
1, 148619, Note_off_c, 0, 83, 57
1, 148651, Note_on_c, 0, 81, 66
1, 148676, Note_off_c, 0, 81, 69
1, 148678, Note_on_c, 0, 74, 86
1, 148683, Note_off_c, 0, 69, 19
1, 148687, Note_on_c, 0, 83, 68
1, 148692, Note_off_c, 0, 66, 37
1, 148715, Note_off_c, 0, 83, 62
1, 148755, Note_on_c, 0, 81, 66
1, 148771, Note_off_c, 0, 74, 63
1, 148783, Note_off_c, 0, 81, 64
1, 148800, Note_on_c, 0, 83, 62
1, 148819, Note_off_c, 0, 83, 62
1, 148881, Note_on_c, 0, 81, 45
1, 148894, Note_on_c, 0, 83, 63
1, 148905, Note_off_c, 0, 81, 56
1, 148924, Note_off_c, 0, 83, 64
1, 148971, Note_on_c, 0, 81, 48
1, 148997, Note_off_c, 0, 81, 64
1, 148998, Note_on_c, 0, 83, 61
1, 149032, Note_off_c, 0, 83, 64
1, 149081, Note_on_c, 0, 81, 49
1, 149102, Note_off_c, 0, 81, 60
1, 149107, Note_on_c, 0, 83, 63
1, 149114, Note_on_c, 0, 62, 49
1, 149115, Note_on_c, 0, 57, 42
1, 149128, Note_on_c, 0, 66, 52
1, 149137, Note_off_c, 0, 83, 64
1, 149179, Note_on_c, 0, 81, 59
1, 149206, Note_off_c, 0, 81, 64
1, 149223, Note_on_c, 0, 83, 56
1, 149246, Note_off_c, 0, 83, 57
1, 149278, Note_on_c, 0, 81, 64
1, 149307, Note_off_c, 0, 81, 66
1, 149321, Note_on_c, 0, 83, 61
1, 149339, Note_off_c, 0, 57, 54
1, 149343, Note_off_c, 0, 83, 58
1, 149399, Note_on_c, 0, 81, 47
1, 149420, Note_off_c, 0, 81, 59
1, 149424, Note_on_c, 0, 83, 58
1, 149458, Note_off_c, 0, 83, 62
1, 149502, Note_on_c, 0, 81, 54
1, 149525, Note_off_c, 0, 81, 64
1, 149544, Note_on_c, 0, 69, 74
1, 149547, Note_on_c, 0, 83, 56
1, 149548, Note_off_c, 0, 66, 61
1, 149549, Note_off_c, 0, 62, 62
1, 149570, Note_off_c, 0, 83, 58
1, 149610, Note_on_c, 0, 81, 56
1, 149623, Note_off_c, 0, 69, 62
1, 149642, Note_on_c, 0, 83, 68
1, 149642, Note_off_c, 0, 81, 65
1, 149678, Note_off_c, 0, 83, 59
1, 149724, Note_on_c, 0, 81, 55
1, 149757, Note_off_c, 0, 81, 64
1, 149788, Note_on_c, 0, 83, 41
1, 149815, Note_off_c, 0, 83, 54
1, 149847, Note_on_c, 0, 81, 44
1, 149873, Note_off_c, 0, 81, 56
1, 149892, Note_on_c, 0, 83, 52
1, 149913, Note_on_c, 0, 57, 49
1, 149913, Note_off_c, 0, 83, 58
1, 149917, Note_on_c, 0, 62, 51
1, 149929, Note_on_c, 0, 54, 43
1, 149941, Note_on_c, 0, 81, 57
1, 149976, Note_off_c, 0, 81, 64
1, 149985, Note_on_c, 0, 83, 64
1, 150036, Note_off_c, 0, 83, 55
1, 150061, Note_on_c, 0, 81, 56
1, 150072, Control_c, 0, 67, 122
1, 150086, Control_c, 0, 67, 87
1, 150097, Note_off_c, 0, 81, 62
1, 150101, Control_c, 0, 67, 43
1, 150116, Control_c, 0, 67, 0
1, 150134, Note_on_c, 0, 80, 60
1, 150160, Note_off_c, 0, 80, 69
1, 150203, Note_on_c, 0, 81, 71
1, 150341, Note_on_c, 0, 66, 76
1, 150404, Note_off_c, 0, 81, 60
1, 150427, Control_c, 0, 64, 84
1, 150436, Note_on_c, 0, 86, 73
1, 150442, Control_c, 0, 64, 54
1, 150457, Control_c, 0, 64, 0
1, 150486, Control_c, 0, 64, 43
1, 150501, Control_c, 0, 64, 67
1, 150523, Control_c, 0, 64, 103
1, 150538, Control_c, 0, 64, 127
1, 150578, Note_off_c, 0, 57, 40
1, 150587, Note_off_c, 0, 86, 62
1, 150588, Note_off_c, 0, 54, 61
1, 150594, Note_off_c, 0, 62, 36
1, 150611, Note_on_c, 0, 88, 61
1, 150617, Note_off_c, 0, 66, 61
1, 150640, Note_off_c, 0, 88, 67
1, 150684, Note_on_c, 0, 86, 50
1, 150709, Note_off_c, 0, 86, 55
1, 150714, Note_on_c, 0, 88, 69
1, 150742, Note_off_c, 0, 88, 66
1, 150783, Note_on_c, 0, 86, 62
1, 150809, Note_off_c, 0, 86, 66
1, 150821, Note_on_c, 0, 88, 62
1, 150847, Note_off_c, 0, 88, 64
1, 150880, Note_on_c, 0, 86, 67
1, 150890, Note_on_c, 0, 54, 46
1, 150890, Note_on_c, 0, 57, 48
1, 150900, Note_on_c, 0, 50, 32
1, 150907, Note_off_c, 0, 86, 67
1, 150918, Note_on_c, 0, 88, 64
1, 150948, Note_off_c, 0, 88, 63
1, 150993, Note_on_c, 0, 86, 63
1, 151019, Note_off_c, 0, 86, 67
1, 151033, Note_on_c, 0, 88, 56
1, 151039, Note_off_c, 0, 50, 32
1, 151054, Note_off_c, 0, 88, 61
1, 151091, Note_on_c, 0, 86, 67
1, 151118, Note_off_c, 0, 86, 68
1, 151119, Note_on_c, 0, 88, 69
1, 151151, Note_off_c, 0, 88, 59
1, 151194, Note_on_c, 0, 86, 65
1, 151221, Note_off_c, 0, 86, 69
1, 151240, Note_on_c, 0, 88, 60
1, 151260, Note_off_c, 0, 88, 62
1, 151300, Note_on_c, 0, 86, 72
1, 151305, Note_on_c, 0, 62, 80
1, 151316, Note_off_c, 0, 57, 61
1, 151335, Note_off_c, 0, 54, 55
1, 151338, Note_off_c, 0, 86, 58
1, 151349, Note_on_c, 0, 88, 60
1, 151382, Note_off_c, 0, 88, 64
1, 151407, Note_off_c, 0, 62, 61
1, 151424, Note_on_c, 0, 86, 57
1, 151451, Note_off_c, 0, 86, 67
1, 151459, Note_on_c, 0, 88, 59
1, 151486, Note_off_c, 0, 88, 64
1, 151528, Note_on_c, 0, 86, 60
1, 151552, Note_off_c, 0, 86, 65
1, 151558, Note_on_c, 0, 88, 67
1, 151589, Note_off_c, 0, 88, 63
1, 151627, Note_on_c, 0, 86, 65
1, 151656, Note_off_c, 0, 86, 66
1, 151683, Note_on_c, 0, 88, 53
1, 151707, Note_on_c, 0, 50, 43
1, 151709, Note_off_c, 0, 88, 57
1, 151715, Note_on_c, 0, 45, 35
1, 151719, Note_on_c, 0, 54, 42
1, 151749, Note_on_c, 0, 86, 59
1, 151772, Note_off_c, 0, 86, 63
1, 151784, Note_on_c, 0, 88, 64
1, 151817, Note_off_c, 0, 88, 61
1, 151853, Note_on_c, 0, 86, 59
1, 151886, Note_off_c, 0, 86, 65
1, 151889, Note_off_c, 0, 45, 41
1, 151915, Note_on_c, 0, 88, 51
1, 151919, Note_off_c, 0, 50, 59
1, 151942, Note_off_c, 0, 88, 55
1, 151963, Note_off_c, 0, 54, 46
1, 151975, Note_on_c, 0, 86, 58
1, 151996, Note_off_c, 0, 86, 64
1, 152017, Note_on_c, 0, 88, 65
1, 152047, Note_off_c, 0, 88, 63
1, 152088, Note_on_c, 0, 86, 59
1, 152118, Note_off_c, 0, 86, 66
1, 152123, Note_on_c, 0, 57, 71
1, 152142, Note_on_c, 0, 88, 59
1, 152166, Note_off_c, 0, 88, 62
1, 152221, Note_on_c, 0, 86, 50
1, 152224, Note_off_c, 0, 57, 64
1, 152244, Note_off_c, 0, 86, 57
1, 152249, Note_on_c, 0, 88, 60
1, 152288, Note_off_c, 0, 88, 59
1, 152322, Note_on_c, 0, 86, 59
1, 152351, Note_off_c, 0, 86, 64
1, 152380, Note_on_c, 0, 88, 46
1, 152407, Note_off_c, 0, 88, 56
1, 152434, Note_on_c, 0, 86, 59
1, 152464, Note_off_c, 0, 86, 67
1, 152476, Note_on_c, 0, 88, 64
1, 152505, Note_off_c, 0, 88, 67
1, 152540, Note_on_c, 0, 86, 63
1, 152562, Note_on_c, 0, 42, 44
1, 152564, Note_on_c, 0, 50, 47
1, 152567, Note_on_c, 0, 45, 40
1, 152571, Note_off_c, 0, 86, 65
1, 152593, Note_on_c, 0, 88, 51
1, 152620, Note_off_c, 0, 88, 60
1, 152654, Note_off_c, 0, 42, 59
1, 152658, Note_on_c, 0, 86, 56
1, 152660, Note_off_c, 0, 45, 60
1, 152667, Note_off_c, 0, 50, 62
1, 152680, Note_off_c, 0, 86, 62
1, 152696, Note_on_c, 0, 88, 62
1, 152725, Note_off_c, 0, 88, 65
1, 152760, Note_on_c, 0, 86, 63
1, 152797, Note_off_c, 0, 86, 64
1, 152813, Note_on_c, 0, 88, 59
1, 152847, Note_off_c, 0, 88, 61
1, 152892, Note_on_c, 0, 86, 50
1, 152915, Note_off_c, 0, 86, 60
1, 152929, Note_on_c, 0, 88, 60
1, 152962, Note_off_c, 0, 88, 63
1, 152996, Note_on_c, 0, 86, 60
1, 153027, Note_off_c, 0, 86, 66
1, 153039, Note_on_c, 0, 88, 66
1, 153078, Note_off_c, 0, 88, 60
1, 153117, Note_on_c, 0, 86, 60
1, 153149, Note_off_c, 0, 86, 64
1, 153150, Note_on_c, 0, 54, 72
1, 153175, Note_on_c, 0, 88, 57
1, 153198, Note_off_c, 0, 88, 62
1, 153230, Note_on_c, 0, 86, 61
1, 153265, Note_off_c, 0, 86, 63
1, 153275, Note_on_c, 0, 88, 60
1, 153313, Note_off_c, 0, 88, 59
1, 153323, Note_off_c, 0, 54, 53
1, 153362, Note_on_c, 0, 86, 50
1, 153363, Control_c, 0, 67, 38
1, 153378, Control_c, 0, 67, 41
1, 153388, Note_off_c, 0, 86, 58
1, 153393, Control_c, 0, 67, 42
1, 153408, Control_c, 0, 67, 45
1, 153415, Note_on_c, 0, 88, 52
1, 153422, Control_c, 0, 67, 51
1, 153437, Control_c, 0, 67, 59
1, 153440, Note_off_c, 0, 88, 60
1, 153452, Control_c, 0, 67, 71
1, 153467, Control_c, 0, 67, 84
1, 153473, Note_on_c, 0, 86, 56
1, 153482, Control_c, 0, 67, 96
1, 153496, Control_c, 0, 67, 105
1, 153504, Note_off_c, 0, 86, 65
1, 153511, Control_c, 0, 67, 115
1, 153521, Note_on_c, 0, 88, 67
1, 153534, Control_c, 0, 67, 125
1, 153548, Control_c, 0, 67, 127
1, 153549, Note_off_c, 0, 88, 64
1, 153591, Note_on_c, 0, 86, 50
1, 153619, Note_off_c, 0, 86, 65
1, 153635, Note_on_c, 0, 88, 47
1, 153660, Note_off_c, 0, 88, 56
1, 153689, Note_on_c, 0, 86, 59
1, 153720, Note_off_c, 0, 86, 64
1, 153734, Note_on_c, 0, 88, 58
1, 153770, Note_off_c, 0, 88, 64
1, 153796, Note_on_c, 0, 86, 51
1, 153805, Note_on_c, 0, 42, 48
1, 153807, Note_on_c, 0, 45, 40
1, 153812, Note_on_c, 0, 38, 33
1, 153829, Note_off_c, 0, 86, 65
1, 153862, Note_on_c, 0, 88, 40
1, 153889, Note_off_c, 0, 88, 54
1, 153908, Note_on_c, 0, 86, 59
1, 153936, Note_off_c, 0, 86, 67
1, 153960, Note_on_c, 0, 88, 60
1, 153981, Note_off_c, 0, 88, 60
1, 153987, Note_off_c, 0, 38, 39
1, 154020, Note_on_c, 0, 86, 63
1, 154047, Note_off_c, 0, 86, 65
1, 154047, Note_off_c, 0, 42, 36
1, 154052, Note_on_c, 0, 88, 65
1, 154086, Note_off_c, 0, 88, 60
1, 154101, Note_off_c, 0, 45, 36
1, 154126, Note_on_c, 0, 86, 62
1, 154154, Note_off_c, 0, 86, 66
1, 154185, Note_on_c, 0, 88, 52
1, 154209, Note_off_c, 0, 88, 58
1, 154231, Note_on_c, 0, 54, 78
1, 154236, Note_on_c, 0, 86, 65
1, 154269, Note_off_c, 0, 86, 68
1, 154287, Note_on_c, 0, 88, 66
1, 154321, Note_off_c, 0, 88, 61
1, 154354, Note_on_c, 0, 86, 62
1, 154384, Note_off_c, 0, 86, 62
1, 154413, Note_on_c, 0, 88, 54
1, 154430, Note_off_c, 0, 54, 57
1, 154437, Note_off_c, 0, 88, 61
1, 154467, Note_on_c, 0, 86, 64
1, 154496, Note_off_c, 0, 86, 64
1, 154506, Note_on_c, 0, 88, 69
1, 154533, Note_off_c, 0, 88, 65
1, 154578, Note_on_c, 0, 86, 66
1, 154605, Note_off_c, 0, 86, 66
1, 154624, Note_on_c, 0, 88, 56
1, 154644, Note_off_c, 0, 88, 62
1, 154670, Note_on_c, 0, 45, 59
1, 154674, Note_on_c, 0, 42, 58
1, 154680, Note_on_c, 0, 38, 47
1, 154687, Note_on_c, 0, 86, 62
1, 154713, Note_off_c, 0, 86, 67
1, 154714, Note_on_c, 0, 88, 68
1, 154754, Note_off_c, 0, 88, 60
1, 154793, Note_on_c, 0, 86, 73
1, 154819, Note_off_c, 0, 86, 66
1, 154831, Control_c, 0, 67, 114
1, 154835, Note_on_c, 0, 88, 62
1, 154836, Note_off_c, 0, 38, 33
1, 154846, Control_c, 0, 67, 66
1, 154861, Control_c, 0, 67, 0
1, 154864, Note_off_c, 0, 88, 65
1, 154908, Note_on_c, 0, 86, 65
1, 154920, Note_off_c, 0, 42, 37
1, 154932, Note_off_c, 0, 86, 69
1, 154937, Note_on_c, 0, 88, 61
1, 154948, Note_off_c, 0, 45, 22
1, 154968, Note_off_c, 0, 88, 65
1, 155016, Note_on_c, 0, 86, 65
1, 155045, Note_off_c, 0, 86, 63
1, 155052, Note_on_c, 0, 88, 58
1, 155081, Note_off_c, 0, 88, 67
1, 155116, Note_on_c, 0, 86, 66
1, 155144, Note_off_c, 0, 86, 66
1, 155155, Note_on_c, 0, 88, 67
1, 155194, Note_off_c, 0, 88, 58
1, 155228, Note_on_c, 0, 86, 68
1, 155260, Note_off_c, 0, 86, 63
1, 155281, Note_on_c, 0, 88, 58
1, 155309, Note_off_c, 0, 88, 64
1, 155354, Note_on_c, 0, 86, 62
1, 155372, Control_c, 0, 67, 36
1, 155382, Note_off_c, 0, 86, 67
1, 155387, Control_c, 0, 67, 45
1, 155389, Note_on_c, 0, 54, 70
1, 155389, Note_on_c, 0, 88, 63
1, 155401, Control_c, 0, 67, 58
1, 155416, Control_c, 0, 67, 76
1, 155431, Control_c, 0, 67, 94
1, 155442, Note_off_c, 0, 88, 60
1, 155446, Control_c, 0, 67, 111
1, 155460, Note_on_c, 0, 86, 66
1, 155460, Control_c, 0, 67, 124
1, 155475, Control_c, 0, 67, 127
1, 155504, Note_off_c, 0, 86, 61
1, 155522, Note_on_c, 0, 88, 51
1, 155550, Note_off_c, 0, 88, 63
1, 155599, Note_on_c, 0, 86, 52
1, 155618, Note_off_c, 0, 86, 61
1, 155621, Note_off_c, 0, 54, 50
1, 155627, Note_on_c, 0, 88, 65
1, 155659, Note_off_c, 0, 88, 62
1, 155696, Note_on_c, 0, 86, 63
1, 155728, Note_off_c, 0, 86, 63
1, 155767, Note_on_c, 0, 88, 51
1, 155791, Note_off_c, 0, 88, 60
1, 155818, Note_on_c, 0, 86, 58
1, 155847, Note_off_c, 0, 86, 67
1, 155859, Note_on_c, 0, 88, 68
1, 155888, Note_off_c, 0, 88, 62
1, 155931, Note_on_c, 0, 86, 60
1, 155960, Note_off_c, 0, 86, 66
1, 155985, Note_on_c, 0, 88, 52
1, 156007, Note_off_c, 0, 88, 60
1, 156027, Note_on_c, 0, 38, 28
1, 156027, Note_on_c, 0, 42, 36
1, 156029, Note_on_c, 0, 45, 36
1, 156038, Note_on_c, 0, 86, 64
1, 156070, Note_off_c, 0, 86, 62
1, 156078, Note_on_c, 0, 88, 65
1, 156115, Note_off_c, 0, 88, 61
1, 156157, Note_on_c, 0, 86, 58
1, 156190, Note_off_c, 0, 86, 64
1, 156193, Note_off_c, 0, 38, 38
1, 156244, Note_off_c, 0, 45, 33
1, 156274, Note_on_c, 0, 86, 52
1, 156278, Note_off_c, 0, 42, 35
1, 156298, Note_off_c, 0, 86, 62
1, 156307, Note_on_c, 0, 88, 43
1, 156340, Note_off_c, 0, 88, 64
1, 156388, Note_on_c, 0, 86, 45
1, 156413, Note_off_c, 0, 86, 55
1, 156422, Note_on_c, 0, 88, 61
1, 156443, Note_off_c, 0, 88, 63
1, 156485, Note_on_c, 0, 86, 63
1, 156521, Note_off_c, 0, 86, 64
1, 156527, Note_on_c, 0, 88, 60
1, 156562, Note_off_c, 0, 88, 61
1, 156615, Note_on_c, 0, 86, 46
1, 156637, Note_off_c, 0, 86, 58
1, 156657, Note_on_c, 0, 88, 47
1, 156683, Note_off_c, 0, 88, 56
1, 156717, Note_on_c, 0, 86, 56
1, 156741, Note_off_c, 0, 86, 63
1, 156752, Note_on_c, 0, 88, 64
1, 156780, Note_off_c, 0, 88, 64
1, 156819, Note_on_c, 0, 86, 61
1, 156849, Note_off_c, 0, 86, 64
1, 156867, Note_on_c, 0, 88, 52
1, 156894, Note_off_c, 0, 88, 55
1, 156938, Note_on_c, 0, 86, 59
1, 156968, Note_on_c, 0, 88, 62
1, 156974, Note_off_c, 0, 86, 55
1, 156998, Note_off_c, 0, 88, 60
1, 157053, Note_on_c, 0, 86, 40
1, 157079, Note_on_c, 0, 88, 63
1, 157084, Note_off_c, 0, 86, 50
1, 157107, Note_off_c, 0, 88, 66
1, 157149, Note_on_c, 0, 86, 51
1, 157179, Note_off_c, 0, 86, 66
1, 157197, Note_on_c, 0, 88, 55
1, 157218, Note_off_c, 0, 88, 61
1, 157241, Note_on_c, 0, 38, 49
1, 157254, Note_on_c, 0, 86, 63
1, 157293, Note_off_c, 0, 86, 62
1, 157299, Note_on_c, 0, 88, 62
1, 157303, Note_off_c, 0, 38, 57
1, 157335, Note_off_c, 0, 88, 59
1, 157341, Note_on_c, 0, 45, 45
1, 157376, Note_on_c, 0, 86, 62
1, 157402, Note_off_c, 0, 86, 69
1, 157418, Note_on_c, 0, 88, 61
1, 157445, Note_off_c, 0, 88, 65
1, 157472, Note_off_c, 0, 45, 49
1, 157478, Note_on_c, 0, 86, 68
1, 157503, Note_on_c, 0, 54, 70
1, 157506, Note_off_c, 0, 86, 62
1, 157514, Note_on_c, 0, 88, 63
1, 157545, Note_off_c, 0, 88, 64
1, 157564, Note_off_c, 0, 54, 61
1, 157588, Note_on_c, 0, 86, 62
1, 157615, Note_off_c, 0, 86, 67
1, 157630, Note_on_c, 0, 88, 61
1, 157654, Note_off_c, 0, 88, 67
1, 157686, Note_on_c, 0, 86, 68
1, 157716, Note_on_c, 0, 88, 67
1, 157716, Note_off_c, 0, 86, 63
1, 157751, Note_off_c, 0, 88, 62
1, 157752, Note_on_c, 0, 50, 57
1, 157794, Note_on_c, 0, 86, 67
1, 157810, Control_c, 0, 67, 114
1, 157821, Note_off_c, 0, 86, 67
1, 157825, Control_c, 0, 67, 98
1, 157830, Note_on_c, 0, 57, 60
1, 157831, Note_on_c, 0, 88, 64
1, 157840, Control_c, 0, 67, 81
1, 157849, Note_off_c, 0, 50, 60
1, 157854, Control_c, 0, 67, 52
1, 157858, Note_off_c, 0, 88, 68
1, 157869, Control_c, 0, 67, 0
1, 157903, Note_on_c, 0, 86, 73
1, 157932, Note_off_c, 0, 86, 64
1, 157943, Note_on_c, 0, 88, 69
1, 157950, Note_off_c, 0, 57, 64
1, 157976, Note_on_c, 0, 66, 97
1, 157976, Note_off_c, 0, 88, 62
1, 158020, Note_on_c, 0, 86, 70
1, 158050, Note_off_c, 0, 66, 61
1, 158056, Note_off_c, 0, 86, 63
1, 158070, Note_on_c, 0, 88, 66
1, 158100, Note_off_c, 0, 88, 66
1, 158134, Note_on_c, 0, 86, 69
1, 158175, Note_off_c, 0, 86, 62
1, 158184, Note_on_c, 0, 88, 62
1, 158212, Note_off_c, 0, 88, 66
1, 158232, Note_on_c, 0, 62, 60
1, 158245, Note_on_c, 0, 86, 69
1, 158285, Note_off_c, 0, 86, 63
1, 158295, Note_on_c, 0, 88, 61
1, 158328, Note_off_c, 0, 88, 66
1, 158331, Note_off_c, 0, 62, 62
1, 158352, Note_on_c, 0, 69, 59
1, 158357, Note_on_c, 0, 86, 70
1, 158401, Note_off_c, 0, 86, 63
1, 158408, Note_on_c, 0, 88, 68
1, 158444, Note_off_c, 0, 88, 62
1, 158473, Note_on_c, 0, 86, 68
1, 158473, Note_off_c, 0, 69, 56
1, 158514, Note_off_c, 0, 86, 60
1, 158530, Note_on_c, 0, 88, 70
1, 158563, Note_off_c, 0, 88, 64
1, 158598, Note_on_c, 0, 86, 63
1, 158628, Note_off_c, 0, 86, 65
1, 158640, Note_on_c, 0, 78, 90
1, 158645, Note_on_c, 0, 88, 71
1, 158674, Note_off_c, 0, 88, 64
1, 158696, Note_off_c, 0, 78, 60
1, 158712, Note_on_c, 0, 86, 71
1, 158748, Note_off_c, 0, 86, 57
1, 158774, Note_on_c, 0, 88, 64
1, 158804, Note_off_c, 0, 88, 68
1, 158840, Note_on_c, 0, 86, 61
1, 158868, Note_off_c, 0, 86, 67
1, 158878, Note_on_c, 0, 88, 67
1, 158906, Note_off_c, 0, 88, 66
1, 158941, Note_on_c, 0, 86, 67
1, 158978, Note_off_c, 0, 86, 60
1, 159004, Note_on_c, 0, 88, 52
1, 159030, Note_off_c, 0, 88, 62
1, 159058, Note_on_c, 0, 86, 62
1, 159086, Note_off_c, 0, 86, 67
1, 159102, Note_on_c, 0, 88, 68
1, 159129, Note_off_c, 0, 88, 68
1, 159171, Note_on_c, 0, 86, 63
1, 159198, Note_off_c, 0, 86, 69
1, 159202, Note_on_c, 0, 88, 64
1, 159231, Note_off_c, 0, 88, 65
1, 159278, Note_on_c, 0, 86, 63
1, 159306, Note_off_c, 0, 86, 66
1, 159323, Note_on_c, 0, 88, 55
1, 159347, Note_off_c, 0, 88, 60
1, 159389, Note_on_c, 0, 86, 62
1, 159421, Note_off_c, 0, 86, 64
1, 159421, Note_on_c, 0, 88, 64
1, 159461, Note_off_c, 0, 88, 58
1, 159486, Control_c, 0, 67, 39
1, 159501, Control_c, 0, 67, 50
1, 159514, Note_on_c, 0, 86, 58
1, 159523, Control_c, 0, 67, 67
1, 159538, Control_c, 0, 67, 88
1, 159544, Note_off_c, 0, 86, 66
1, 159553, Control_c, 0, 67, 114
1, 159559, Note_on_c, 0, 88, 60
1, 159567, Control_c, 0, 67, 127
1, 159590, Note_off_c, 0, 88, 66
1, 159619, Note_on_c, 0, 86, 68
1, 159655, Note_off_c, 0, 86, 59
1, 159666, Note_on_c, 0, 88, 63
1, 159700, Note_off_c, 0, 88, 61
1, 159739, Note_on_c, 0, 86, 63
1, 159770, Note_off_c, 0, 86, 64
1, 159800, Note_on_c, 0, 88, 50
1, 159824, Note_off_c, 0, 88, 58
1, 159852, Note_on_c, 0, 86, 67
1, 159884, Note_off_c, 0, 86, 58
1, 159890, Note_on_c, 0, 88, 64
1, 159924, Note_off_c, 0, 88, 62
1, 159945, Note_on_c, 0, 62, 43
1, 159965, Note_on_c, 0, 86, 61
1, 159997, Note_off_c, 0, 86, 63
1, 160023, Note_on_c, 0, 88, 57
1, 160032, Note_off_c, 0, 62, 61
1, 160048, Note_on_c, 0, 69, 43
1, 160050, Note_off_c, 0, 88, 65
1, 160074, Note_on_c, 0, 86, 69
1, 160114, Note_off_c, 0, 86, 57
1, 160124, Note_on_c, 0, 88, 64
1, 160159, Note_off_c, 0, 88, 60
1, 160188, Note_on_c, 0, 86, 57
1, 160225, Note_off_c, 0, 86, 61
1, 160234, Note_off_c, 0, 69, 23
1, 160265, Note_on_c, 0, 88, 47
1, 160278, Note_on_c, 0, 78, 76
1, 160289, Note_off_c, 0, 88, 59
1, 160319, Note_on_c, 0, 86, 58
1, 160349, Note_off_c, 0, 86, 65
1, 160356, Note_on_c, 0, 88, 73
1, 160405, Note_off_c, 0, 88, 60
1, 160427, Note_on_c, 0, 86, 63
1, 160476, Note_off_c, 0, 86, 60
1, 160488, Note_on_c, 0, 88, 46
1, 160510, Note_off_c, 0, 78, 38
1, 160522, Note_off_c, 0, 88, 64
1, 160546, Note_on_c, 0, 86, 51
1, 160581, Note_off_c, 0, 86, 66
1, 160600, Note_on_c, 0, 88, 60
1, 160625, Note_off_c, 0, 88, 62
1, 160665, Note_on_c, 0, 86, 60
1, 160698, Note_off_c, 0, 86, 62
1, 160700, Note_on_c, 0, 88, 65
1, 160741, Note_off_c, 0, 88, 58
1, 160790, Note_on_c, 0, 86, 56
1, 160817, Note_off_c, 0, 86, 63
1, 160850, Note_on_c, 0, 88, 44
1, 160877, Note_off_c, 0, 88, 53
1, 160897, Note_on_c, 0, 86, 65
1, 160930, Note_off_c, 0, 86, 62
1, 160948, Note_on_c, 0, 88, 62
1, 160980, Note_off_c, 0, 88, 63
1, 161039, Note_on_c, 0, 86, 50
1, 161060, Note_off_c, 0, 86, 59
1, 161082, Note_on_c, 0, 88, 54
1, 161105, Note_off_c, 0, 88, 61
1, 161142, Note_on_c, 0, 86, 57
1, 161174, Note_off_c, 0, 86, 61
1, 161180, Note_on_c, 0, 88, 62
1, 161219, Note_off_c, 0, 88, 59
1, 161258, Note_on_c, 0, 86, 53
1, 161287, Note_off_c, 0, 86, 53
1, 161317, Note_on_c, 0, 88, 49
1, 161342, Note_off_c, 0, 88, 57
1, 161383, Note_on_c, 0, 86, 43
1, 161406, Note_on_c, 0, 62, 41
1, 161407, Note_off_c, 0, 86, 58
1, 161416, Note_on_c, 0, 88, 54
1, 161442, Note_off_c, 0, 88, 54
1, 161483, Note_on_c, 0, 86, 52
1, 161488, Note_off_c, 0, 62, 53
1, 161506, Note_on_c, 0, 69, 44
1, 161518, Note_on_c, 0, 88, 68
1, 161519, Note_off_c, 0, 86, 60
1, 161553, Note_off_c, 0, 88, 60
1, 161609, Note_on_c, 0, 86, 48
1, 161633, Note_off_c, 0, 86, 59
1, 161654, Note_on_c, 0, 88, 52
1, 161672, Note_off_c, 0, 69, 31
1, 161678, Note_off_c, 0, 88, 64
1, 161719, Note_on_c, 0, 86, 57
1, 161753, Note_off_c, 0, 86, 59
1, 161764, Note_on_c, 0, 88, 62
1, 161793, Note_off_c, 0, 88, 65
1, 161833, Note_on_c, 0, 86, 59
1, 161867, Note_off_c, 0, 86, 61
1, 161893, Note_on_c, 0, 88, 51
1, 161922, Note_off_c, 0, 88, 59
1, 161929, Note_on_c, 0, 78, 67
1, 161968, Note_on_c, 0, 86, 37
1, 162004, Note_off_c, 0, 86, 52
1, 162005, Note_on_c, 0, 88, 62
1, 162036, Note_off_c, 0, 88, 64
1, 162089, Note_on_c, 0, 86, 51
1, 162111, Note_off_c, 0, 86, 59
1, 162135, Note_on_c, 0, 88, 61
1, 162166, Note_off_c, 0, 88, 65
1, 162173, Note_off_c, 0, 78, 34
1, 162179, Note_on_c, 0, 86, 70
1, 162207, Note_off_c, 0, 86, 62
1, 162243, Note_on_c, 0, 88, 64
1, 162276, Note_off_c, 0, 88, 61
1, 162358, Note_on_c, 0, 86, 29
1, 162392, Note_on_c, 0, 88, 40
1, 162393, Note_off_c, 0, 86, 56
1, 162420, Note_off_c, 0, 88, 55
1, 162452, Note_on_c, 0, 86, 56
1, 162484, Note_off_c, 0, 86, 64
1, 162503, Note_on_c, 0, 88, 58
1, 162534, Note_off_c, 0, 88, 63
1, 162583, Note_on_c, 0, 86, 44
1, 162606, Note_off_c, 0, 86, 59
1, 162621, Note_on_c, 0, 88, 58
1, 162659, Note_off_c, 0, 88, 59
1, 162695, Note_on_c, 0, 86, 48
1, 162702, Note_on_c, 0, 62, 33
1, 162722, Note_off_c, 0, 86, 57
1, 162760, Note_on_c, 0, 88, 40
1, 162790, Note_off_c, 0, 88, 54
1, 162828, Note_on_c, 0, 86, 45
1, 162849, Note_on_c, 0, 69, 33
1, 162855, Note_off_c, 0, 86, 56
1, 162867, Note_on_c, 0, 88, 59
1, 162873, Note_off_c, 0, 62, 40
1, 162897, Note_off_c, 0, 88, 62
1, 162912, Note_off_c, 0, 69, 46
1, 162939, Note_on_c, 0, 86, 51
1, 162972, Note_off_c, 0, 86, 54
1, 162986, Note_on_c, 0, 88, 55
1, 163022, Note_off_c, 0, 88, 62
1, 163088, Note_on_c, 0, 86, 28
1, 163122, Note_on_c, 0, 88, 54
1, 163124, Note_off_c, 0, 86, 44
1, 163154, Note_off_c, 0, 88, 57
1, 163204, Note_on_c, 0, 86, 41
1, 163237, Note_off_c, 0, 86, 54
1, 163255, Note_on_c, 0, 88, 59
1, 163297, Note_off_c, 0, 88, 58
1, 163352, Note_on_c, 0, 86, 40
1, 163394, Note_off_c, 0, 86, 54
1, 163414, Note_on_c, 0, 88, 47
1, 163454, Note_off_c, 0, 88, 54
1, 163492, Note_on_c, 0, 86, 43
1, 163529, Note_off_c, 0, 86, 53
1, 163552, Note_on_c, 0, 88, 50
1, 163583, Note_off_c, 0, 88, 57
1, 163803, Note_on_c, 0, 86, 46
1, 163851, Note_on_c, 0, 78, 41
1, 163872, Note_off_c, 0, 86, 60
1, 163911, Note_off_c, 0, 78, 52
1, 166152, Control_c, 0, 64, 115
1, 166167, Control_c, 0, 64, 106
1, 166182, Control_c, 0, 64, 98
1, 166197, Control_c, 0, 64, 91
1, 166212, Control_c, 0, 64, 85
1, 166226, Control_c, 0, 64, 80
1, 166248, Control_c, 0, 64, 75
1, 166263, Control_c, 0, 64, 70
1, 166277, Control_c, 0, 64, 65
1, 166292, Control_c, 0, 64, 61
1, 166307, Control_c, 0, 64, 58
1, 166322, Control_c, 0, 64, 58
1, 166337, Control_c, 0, 64, 57
1, 166352, Control_c, 0, 64, 56
1, 166367, Control_c, 0, 64, 55
1, 166382, Control_c, 0, 64, 54
1, 166397, Control_c, 0, 64, 54
1, 166412, Control_c, 0, 64, 53
1, 166426, Control_c, 0, 64, 53
1, 166485, Control_c, 0, 64, 52
1, 166574, Control_c, 0, 64, 52
1, 166589, Control_c, 0, 64, 51
1, 166856, Control_c, 0, 64, 52
1, 167130, Control_c, 0, 64, 52
1, 167249, Control_c, 0, 64, 53
1, 168115, Control_c, 0, 67, 125
1, 168130, Control_c, 0, 67, 109
1, 168145, Control_c, 0, 67, 91
1, 168160, Control_c, 0, 67, 73
1, 168175, Control_c, 0, 67, 58
1, 168189, Control_c, 0, 67, 44
1, 168204, Control_c, 0, 67, 0
1, 168234, Control_c, 0, 64, 52
1, 168686, Control_c, 0, 64, 52
1, 168701, Control_c, 0, 64, 51
1, 168716, Control_c, 0, 64, 51
1, 168731, Control_c, 0, 64, 50
1, 168746, Control_c, 0, 64, 48
1, 168760, Control_c, 0, 64, 46
1, 168775, Control_c, 0, 64, 43
1, 168790, Control_c, 0, 64, 38
1, 168805, Control_c, 0, 64, 0
1, 168805, End_track
0, 0, End_of_file
